<svg class="icon" viewBox="0 0 1024 1024" xmlns="http://www.w3.org/2000/svg" width="200" height="200"><defs><style>@font-face{font-family:feedback-iconfont;src:url(//at.alicdn.com/t/font_1031158_u69w8yhxdu.woff2?t=1630033759944) format(&quot;woff2&quot;),url(//at.alicdn.com/t/font_1031158_u69w8yhxdu.woff?t=1630033759944) format(&quot;woff&quot;),url(//at.alicdn.com/t/font_1031158_u69w8yhxdu.ttf?t=1630033759944) format(&quot;truetype&quot;)}</style></defs><path d="M744.46 1024c-24.908 0-50.503-5.027-76.097-15.082-25.594 9.94-51.188 15.082-76.097 15.082-9.37 0-18.739-.686-27.88-2.17-74.497-11.541-145.567-70.5-195.27-161.68-28.451-52.216-46.961-110.26-53.474-167.619-7.313-63.529.685-123.515 23.08-173.447 2.514-5.713 16.568-35.65 42.162-67.528 35.193-43.647 77.583-72.212 122.602-82.496 11.768-2.628 22.852-3.999 33.935-3.999 20.91 0 37.82 4.685 54.273 9.141 19.996 5.485 40.677 11.198 76.67 11.198 36.105 0 56.672-5.713 76.668-11.198 16.453-4.57 33.364-9.14 54.273-9.14 11.084 0 22.167 1.256 33.936 3.998 45.018 10.284 87.409 38.849 122.6 82.496 25.71 31.879 39.65 61.815 42.163 67.528 22.395 49.932 30.393 109.918 23.08 173.447-6.627 57.359-25.137 115.403-53.473 167.62-49.59 91.294-120.773 150.138-195.271 161.678-9.14 1.485-18.51 2.171-27.88 2.171z" fill="#25467A"/><path d="M487.26 1012.117c-28.107 0-57.015-5.713-85.923-17.025-28.908 11.312-57.816 17.025-85.924 17.025-10.512 0-21.138-.8-31.536-2.4-84.095-13.025-164.42-79.525-220.407-182.587C31.362 768.057 10.453 702.586 3.026 637.8c-8.227-71.755.8-139.511 26.051-195.956 2.857-6.398 18.739-40.334 47.647-76.211 39.762-49.36 87.637-81.582 138.369-93.122 13.254-3.085 25.823-4.457 38.277-4.457 23.538 0 42.733 5.256 61.243 10.398 22.51 6.17 45.933 12.569 86.61 12.569s63.985-6.399 86.609-12.569c18.51-5.142 37.706-10.398 61.243-10.398 12.569 0 25.023 1.486 38.278 4.457 50.845 11.654 98.606 43.761 138.369 93.122 29.022 35.992 44.79 69.813 47.646 76.211 25.252 56.33 34.278 124.087 26.052 195.842-7.427 64.786-28.337 130.257-60.444 189.33-55.988 103.062-136.313 169.562-220.408 182.587-10.17 1.714-20.795 2.514-31.307 2.514z" fill="#25467A"/><path d="M617.175 711.27c-16.111 0-31.65-5.713-43.876-16.225-28.223-24.223-31.536-66.842-7.313-95.065 38.734-45.247 90.608-118.602 117.688-211.267 9.37-31.993 17.71-74.497 4.342-95.064-10.284-15.882-37.249-29.137-68.556-44.676-21.138-10.398-44.676-22.166-68.442-37.249-17.825 50.96-52.103 100.55-102.149 148.081-12.911 12.226-60.215 70.27-71.412 86.495-12.569 17.94-33.25 28.68-55.188 28.68-13.94 0-27.308-4.228-38.62-12.226-30.393-21.367-37.82-63.415-16.568-93.922 11.426-16.34 65.814-84.781 89.123-106.948 39.534-37.477 63.643-73.926 71.641-108.433 2.971-12.568 3.428-23.651 2.743-33.364-15.426-12.34-25.366-31.307-25.366-52.673C405.222 30.279 435.5 0 472.635 0h64.1c37.135 0 67.414 30.279 67.414 67.414 0 5.255-.571 10.397-1.828 15.425 22.737 18.281 49.36 31.535 76.897 45.132 44.904 22.281 91.408 45.247 121.801 91.98 17.71 27.194 27.308 59.187 28.565 95.179 1.143 32.564-4.227 68.899-16.567 111.06-33.707 115.746-97.35 206.012-144.768 261.314-12.683 15.196-31.422 23.766-51.074 23.766z" fill="#25467A"/><path d="M758.857 247.602c25.366 39.077 27.308 91.408 5.942 164.763-31.193 107.176-90.38 191.157-134.599 242.689-3.428 3.999-8.227 5.941-13.025 5.941-4 0-7.884-1.37-11.198-4.113-7.198-6.17-7.998-17.025-1.828-24.223 42.048-49.018 98.264-128.657 127.743-229.892 18.396-63.071 17.824-106.376-1.714-136.54-17.825-27.423-50.503-43.534-88.438-62.273-42.162-20.91-89.008-44.104-126.943-88.323 1.029 16.797.115 35.992-4.799 57.13-11.768 50.846-44.104 101.464-95.864 150.595-16.453 15.654-66.157 77.24-78.04 94.037-3.313 4.798-8.683 7.312-14.054 7.312a17.235 17.235 0 0 1-9.826-3.085c-7.77-5.484-9.598-16.11-4.228-23.88 11.655-16.568 63.072-80.782 82.496-99.292C437.33 254 466.237 209.096 476.52 164.992c7.656-33.136 3.885-59.873-1.257-80.21h-2.856c-9.484 0-17.14-7.656-17.14-17.14s7.656-17.139 17.14-17.139h64.1c9.483 0 17.139 7.655 17.139 17.139s-7.656 17.14-17.14 17.14h-2.741c34.278 44.56 79.296 66.841 122.944 88.436 40.905 20.11 79.296 39.077 102.148 74.384z" fill="#7EC21B"/><path d="M744.46 1002.29c-24.794 0-50.274-5.598-76.097-16.796-25.823 11.198-51.303 16.797-76.097 16.797-8.227 0-16.568-.686-24.566-1.829-35.192-5.484-69.585-22.623-102.035-51.074-29.25-25.594-55.987-59.987-77.468-99.52-27.08-49.818-44.79-105.12-50.96-159.736-6.856-59.644.571-115.746 21.367-162.136 5.256-11.768 54.502-115.974 149.795-137.683 10.169-2.285 19.653-3.428 29.136-3.428 17.939 0 32.793 4.113 48.56 8.455 20.339 5.6 43.42 11.998 82.382 11.998s62.044-6.399 82.496-11.998c15.768-4.342 30.508-8.455 48.56-8.455 9.484 0 18.968 1.143 29.137 3.428 95.407 21.824 144.54 125.915 149.795 137.683 20.796 46.39 28.223 102.492 21.367 162.136-6.284 54.73-23.88 109.918-50.96 159.735-21.481 39.534-48.218 73.927-77.469 99.521-32.45 28.45-66.842 45.704-102.034 51.074-8.34 1.257-16.682 1.829-24.909 1.829z" fill="#25467A"/><path d="M957.441 537.252c-3.199-7.199-48.789-105.234-134.027-124.773-52.445-11.997-68.556 17.482-154.937 17.482S565.986 400.482 513.54 412.48c-85.466 19.424-130.942 117.573-134.14 124.772-72.67 162.249 47.76 418.306 191.843 440.587 37.706 5.827 71.87-5.142 97.235-17.482 25.366 12.34 59.416 23.31 97.236 17.482C909.566 955.559 1030.11 699.5 957.44 537.252z" fill="#8C1616"/><path d="M765.599 977.839c-37.706 5.827-71.87-5.142-97.236-17.482-25.366 12.34-59.53 23.31-97.235 17.482-67.3-10.398-129.457-71.87-169.105-150.824 57.472 30.965 125 48.904 197.327 48.904 189.215 0 346.208-122.601 375.116-283.137 29.25 159.393-80.325 365.176-208.867 385.057z" fill="#801414"/><path d="M487.26 984.694c-27.879 0-56.787-6.512-85.923-19.195-29.136 12.797-58.044 19.195-85.924 19.195-9.14 0-18.396-.685-27.308-2.056-39.191-6.056-77.468-25.252-113.689-57.016-32.678-28.68-62.729-67.3-86.838-111.518-30.393-55.988-50.274-117.917-57.244-179.274-7.655-66.842.571-129.686 23.88-181.56 5.942-13.14 60.901-129.57 167.163-153.794 11.198-2.514 21.824-3.77 32.222-3.77 19.88 0 36.449 4.57 54.045 9.369 23.194 6.398 49.474 13.597 93.807 13.597 44.447 0 70.727-7.199 93.922-13.597 17.596-4.8 34.164-9.37 54.045-9.37 10.398 0 20.91 1.257 32.222 3.771 45.36 10.398 86.837 38.506 123.172 83.638 26.851 33.364 41.362 64.329 43.99 70.27 23.31 51.875 31.536 114.718 23.88 181.56-7.083 61.358-26.85 123.401-57.244 179.274-24.109 44.333-54.045 82.839-86.837 111.518-36.221 31.765-74.498 50.96-113.69 57.016-9.369 1.257-18.51 1.942-27.65 1.942z" fill="#25467A"/><path d="M727.664 462.411c-3.656-8.112-55.073-118.83-151.395-140.883-59.3-13.597-77.354 19.767-174.932 19.767s-115.746-33.25-175.047-19.767C129.97 343.58 78.552 454.413 75.01 462.411c-82.153 183.273 53.93 472.466 216.523 497.603 42.619 6.627 81.125-5.827 109.804-19.767 28.68 13.94 67.185 26.28 109.804 19.767 162.592-25.137 298.676-314.33 216.523-497.603z" fill="#C71E1E"/><path d="M511.141 960.014c-42.619 6.627-81.125-5.713-109.804-19.652-28.68 13.94-67.185 26.28-109.804 19.652-75.983-11.769-146.139-81.124-191.043-170.362 64.9 34.964 141.225 55.188 222.807 55.188 213.667 0 390.884-138.37 423.563-319.7 33.135 179.96-90.723 412.365-235.719 434.874z" fill="#BA1C1C"/><path d="M401.337 685.333c-35.306 0-63.986-28.68-63.986-63.986 0-7.084 5.713-12.797 12.797-12.797s12.798 5.713 12.798 12.797c0 21.252 17.253 38.391 38.391 38.391s38.391-17.139 38.391-38.391c0-7.084 5.713-12.797 12.798-12.797s12.797 5.713 12.797 12.797c0 35.306-28.68 63.986-63.986 63.986zM234.974 518.97a38.391 38.391 0 1 0 76.783 0 38.391 38.391 0 1 0-76.783 0zm255.943 0a38.391 38.391 0 1 0 76.783 0 38.391 38.391 0 1 0-76.783 0z" fill="#25467A"/><path d="M222.177 582.956h-51.189c-14.168 0-25.594 11.426-25.594 25.594s11.426 25.594 25.594 25.594h51.189c14.168 0 25.594-11.426 25.594-25.594 0-14.054-11.426-25.594-25.594-25.594zm409.509 0h-51.189c-14.168 0-25.594 11.426-25.594 25.594s11.426 25.594 25.594 25.594h51.189c14.168 0 25.594-11.426 25.594-25.594s-11.54-25.594-25.594-25.594z" fill="#E67878"/></svg>