<svg class="icon" viewBox="0 0 1024 1024" xmlns="http://www.w3.org/2000/svg" width="200" height="200"><defs><style>@font-face{font-family:feedback-iconfont;src:url(//at.alicdn.com/t/font_1031158_u69w8yhxdu.woff2?t=1630033759944) format(&quot;woff2&quot;),url(//at.alicdn.com/t/font_1031158_u69w8yhxdu.woff?t=1630033759944) format(&quot;woff&quot;),url(//at.alicdn.com/t/font_1031158_u69w8yhxdu.ttf?t=1630033759944) format(&quot;truetype&quot;)}</style></defs><path d="M512 0a38.4 38.4 0 0 0-38.4 38.4V192h76.8V38.4A38.4 38.4 0 0 0 512 0z" fill="#25467A"/><path d="M512 1024C215.326 1024 0 824.823 0 550.4 0 270.48 224.903 51.2 512 51.2s512 219.28 512 499.2c0 274.423-215.326 473.6-512 473.6z" fill="#25467A"/><path d="M972.8 550.4c0 254.469-206.331 422.4-460.8 422.4S51.2 804.869 51.2 550.4c0-219.269 153.143-393.211 358.4-437.12 12.674-2.811 25.6-5.12 38.651-6.789a498.674 498.674 0 0 1 127.498 0c13.051 1.669 25.977 3.978 38.651 6.789 205.314 43.909 358.4 217.851 358.4 437.12z" fill="#FA0"/><path d="M972.8 550.4c0 254.469-206.331 422.4-460.8 422.4-211.074 0-388.994-115.589-443.52-300.16A516.171 516.171 0 0 0 416 806.4c262.651 0 479.611-195.2 513.669-448.514C957.314 415.61 972.8 480.766 972.8 550.4z" fill="#F5AA00"/><path d="M204.8 640a25.6 25.6 0 1 0 51.2 0 25.6 25.6 0 1 0-51.2 0zm-51.2 76.8a25.6 25.6 0 1 0 51.2 0 25.6 25.6 0 1 0-51.2 0zm102.4 0a25.6 25.6 0 1 0 51.2 0 25.6 25.6 0 1 0-51.2 0zM780.8 640a25.6 25.6 0 1 0 51.2 0 25.6 25.6 0 1 0-51.2 0zm-51.2 76.8a25.6 25.6 0 1 0 51.2 0 25.6 25.6 0 1 0-51.2 0zm102.4 0a25.6 25.6 0 1 0 51.2 0 25.6 25.6 0 1 0-51.2 0z" fill="#EAA014"/><path d="M512 550.4a64.069 64.069 0 0 1-64-64 12.8 12.8 0 1 1 25.6 0 38.4 38.4 0 0 0 76.8 0 12.8 12.8 0 1 1 25.6 0 64.069 64.069 0 0 1-64 64zM345.6 384a38.4 38.4 0 1 0 76.8 0 38.4 38.4 0 1 0-76.8 0zm256 0a38.4 38.4 0 1 0 76.8 0 38.4 38.4 0 1 0-76.8 0z" fill="#25467A"/><path d="M332.8 448h-51.2a25.6 25.6 0 1 0 0 51.2h51.2a25.6 25.6 0 1 0 0-51.2zm409.6 0h-51.2a25.6 25.6 0 1 0 0 51.2h51.2a25.6 25.6 0 0 0 0-51.2z" fill="#FFD191"/><path d="M614.4 113.28v1.92c0 42.366-45.829 76.8-102.4 76.8s-102.4-34.434-102.4-76.8v-1.92c12.674-2.811 25.6-5.12 38.651-6.789a498.674 498.674 0 0 1 127.498 0c13.051 1.669 25.977 3.978 38.651 6.789z" fill="#00AA5E"/></svg>