<svg class="icon" viewBox="0 0 1024 1024" xmlns="http://www.w3.org/2000/svg" width="200" height="200"><defs><style>@font-face{font-family:feedback-iconfont;src:url(//at.alicdn.com/t/font_1031158_u69w8yhxdu.woff2?t=1630033759944) format(&quot;woff2&quot;),url(//at.alicdn.com/t/font_1031158_u69w8yhxdu.woff?t=1630033759944) format(&quot;woff&quot;),url(//at.alicdn.com/t/font_1031158_u69w8yhxdu.ttf?t=1630033759944) format(&quot;truetype&quot;)}</style></defs><path d="M512 1024c-166.183 0-512 0-512-345.6 0-45.577 5.966-94.617 17.76-145.954a104.776 104.776 0 0 1-1.28-7.806c-3.234-26.286 3.989-49.851 18.183-65.394q-.252-3.6-.263-7.246c0-26.354 9.966-48.8 25.863-62.503 1.611-22.446 10.594-41.531 24.24-54 2.388-23.863 13.211-43.68 29.063-55.36 3.428-27.234 17.885-48.914 38.205-58.697 5.463-17.931 16.926-32 32.492-39.44 5.44-16.137 15.497-29.017 28.571-36.72 6-17.52 18.206-30.96 34.903-37.451 8-18.286 22.857-31.475 42.286-35.703a60.286 60.286 0 0 1 33.611-21.84 58.994 58.994 0 0 1 35.223-18.549 58.206 58.206 0 0 1 33.372-13.966 58.617 58.617 0 0 1 51.28-10.08 308.8 308.8 0 0 1 136.982 0 58.617 58.617 0 0 1 51.28 10.08 58.206 58.206 0 0 1 33.372 13.966 58.994 58.994 0 0 1 35.223 18.549 60.217 60.217 0 0 1 33.6 21.828c19.371 4.195 34.285 17.349 42.285 35.703 16.686 6.469 28.88 19.897 34.892 37.383 13.097 7.691 23.177 20.571 28.571 36.766 15.566 7.394 27.029 21.508 32.492 39.463 20.32 9.782 34.811 31.462 38.205 58.697 15.852 11.68 26.675 31.497 29.063 55.36 13.646 12.468 22.629 31.554 24.24 54 15.897 13.714 25.863 36.148 25.863 62.503 0 2.422-.091 4.845-.263 7.245 14.195 15.543 21.417 39.12 18.183 65.372a98.867 98.867 0 0 1-1.28 7.828C1018.034 583.783 1024 632.823 1024 678.4c0 345.6-345.817 345.6-512 345.6z" fill="#25467A"/><path d="M953.28 531.097a46.377 46.377 0 0 0 3.429-12.731c1.725-14.035-2.572-26.115-9.589-26.972a7.337 7.337 0 0 0-4.491 1.063q-3.566-11.783-7.486-23.543A42.514 42.514 0 0 0 938.4 452c0-14.137-5.714-25.6-12.8-25.6a7.794 7.794 0 0 0-5.166 2.217q-4.217-10.754-8.754-21.417a48 48 0 0 0 1.143-10.4c0-14.137-5.714-25.6-12.8-25.6a7.246 7.246 0 0 0-3.874 1.326c-2.698-5.715-5.509-11.303-8.343-16.926a48.423 48.423 0 0 0 1.017-10c0-14.137-5.714-25.6-12.8-25.6a8.217 8.217 0 0 0-5.646 2.72c-3.726-6.651-7.577-13.234-11.428-19.76a48 48 0 0 0 1.142-10.389c0-14.137-5.714-25.6-12.8-25.6-2.868 0-5.485 1.955-7.622 5.143q-7.383-11.2-15.132-22c.972-11.748-2.526-21.371-8.628-22.491a8.491 8.491 0 0 0-6.549 2.034q-8-10.354-16.217-20.286c-.297-11.371-4.572-20.24-10.583-20.788a8.069 8.069 0 0 0-5.714 2.023q-6.423-7.143-13.017-14.035c1.268-10.902-1.509-19.908-7.223-21.371-3.177-.811-6.663.903-9.852 4.251-5.085-4.868-10.183-9.702-15.394-14.308 1.143-12-2.354-21.92-8.56-23.063-3.726-.674-7.646 2.011-10.891 6.731-4.035-3.2-8.16-6.16-12.252-9.2C698.31 108.377 693.28 100 687.246 100c-2.96 0-5.657 2.103-7.829 5.486-3.428-2.286-6.857-4.572-10.286-6.675-1.851-9.588-6.48-16.411-11.92-16.411-2.88 0-5.508 1.977-7.645 5.177-3.703-1.966-7.463-3.668-11.2-5.497-2.183-7.874-6.332-13.28-11.155-13.28-2.788 0-5.348 1.84-7.451 4.869-4.331-1.795-8.663-3.623-13.04-5.212-2.286-7.006-6.217-11.657-10.709-11.657-3.017 0-5.714 2.171-8 5.714a262.309 262.309 0 0 0-152.114 0c-2.194-3.497-4.926-5.714-7.943-5.714-4.491 0-8.434 4.651-10.708 11.657-4.377 1.589-8.709 3.429-13.04 5.212-2.103-3.029-4.663-4.869-7.452-4.869-4.823 0-8.971 5.406-11.154 13.28-3.737 1.829-7.497 3.531-11.2 5.497-2.137-3.2-4.766-5.177-7.646-5.177-5.44 0-10.068 6.857-11.92 16.411-3.428 2.115-6.857 4.435-10.285 6.675-2.172-3.429-4.869-5.486-7.829-5.486-6.034 0-11.063 8.377-12.411 19.611-4.092 3.04-8.218 6-12.252 9.2-3.246-4.72-7.166-7.405-10.891-6.731-6.206 1.143-9.68 11.063-8.56 23.063-5.212 4.571-10.286 9.44-15.395 14.308-3.188-3.348-6.674-5.062-9.851-4.251-5.714 1.463-8.491 10.469-7.223 21.371q-6.606 6.858-13.017 14.035a8.069 8.069 0 0 0-5.714-2.023c-6.023.548-10.286 9.417-10.583 20.788q-8.24 9.943-16.217 20.286a8.491 8.491 0 0 0-6.549-2.034c-6.103 1.143-9.6 10.743-8.628 22.491q-7.738 10.823-15.132 22c-2.137-3.188-4.754-5.143-7.623-5.143-7.074 0-12.8 11.429-12.8 25.6a48 48 0 0 0 1.143 10.389c-3.897 6.526-7.748 13.109-11.428 19.76A8.217 8.217 0 0 0 148 320c-7.074 0-12.8 11.429-12.8 25.6a48.423 48.423 0 0 0 1.017 10c-2.834 5.623-5.646 11.246-8.343 16.926A7.246 7.246 0 0 0 124 371.2c-7.074 0-12.8 11.429-12.8 25.6a48 48 0 0 0 1.143 10.4q-4.572 10.674-8.754 21.417a7.794 7.794 0 0 0-5.166-2.217c-7.074 0-12.8 11.429-12.8 25.6a42.514 42.514 0 0 0 3.257 16.914q-3.943 11.783-7.486 23.543a7.337 7.337 0 0 0-4.491-1.063c-7.017.857-11.314 12.937-9.589 26.972a46.377 46.377 0 0 0 3.429 12.731c-12.64 51.04-19.52 101.12-19.52 147.303 0 254.469 206.331 294.4 460.8 294.4s460.8-39.931 460.8-294.4c-.023-46.183-6.903-96.263-19.543-147.303z" fill="#FCFCFC"/><path d="M512 550.4a64.069 64.069 0 0 1-64-64 12.8 12.8 0 1 1 25.6 0 38.4 38.4 0 0 0 76.8 0 12.8 12.8 0 1 1 25.6 0 64.069 64.069 0 0 1-64 64zM345.6 384a38.4 38.4 0 1 0 76.8 0 38.4 38.4 0 1 0-76.8 0zm256 0a38.4 38.4 0 1 0 76.8 0 38.4 38.4 0 1 0-76.8 0z" fill="#25467A"/><path d="M332.8 448h-51.2a25.6 25.6 0 1 0 0 51.2h51.2a25.6 25.6 0 1 0 0-51.2zm409.6 0h-51.2a25.6 25.6 0 1 0 0 51.2h51.2a25.6 25.6 0 0 0 0-51.2z" fill="#FCCEC7"/><path d="M202.843 642.068a25.6 12.8 62.53 1 0 22.714-11.81 25.6 12.8 62.53 1 0-22.714 11.81zm-44.181 49.086a25.6 12.8 62.53 1 0 22.713-11.809 25.6 12.8 62.53 1 0-22.713 11.81zm124.05 2.694a12.8 25.6 2.49 1 0 2.225-51.152 12.8 25.6 2.49 1 0-2.225 51.152zm515.339-34.861a12.8 25.6 27.47 1 0 23.618-45.428 12.8 25.6 27.47 1 0-23.618 45.428zm44.185 49.097a12.8 25.6 27.47 1 0 23.617-45.427 12.8 25.6 27.47 1 0-23.617 45.427zM727.43 668.772a25.6 12.8 87.51 1 0 25.577-1.112 25.6 12.8 87.51 1 0-25.576 1.112z" fill="#F3F3F3"/><path d="M768 870.4v76.8c-73.211 20.091-161.28 25.6-256 25.6s-182.789-5.509-256-25.6v-76.8c0-70.4 57.6-128 128-128h256c70.4 0 128 57.6 128 128z" fill="#2A2626"/></svg>