<svg class="icon" viewBox="0 0 1024 1024" xmlns="http://www.w3.org/2000/svg" width="200" height="200"><defs><style>@font-face{font-family:feedback-iconfont;src:url(//at.alicdn.com/t/font_1031158_u69w8yhxdu.woff2?t=1630033759944) format(&quot;woff2&quot;),url(//at.alicdn.com/t/font_1031158_u69w8yhxdu.woff?t=1630033759944) format(&quot;woff&quot;),url(//at.alicdn.com/t/font_1031158_u69w8yhxdu.ttf?t=1630033759944) format(&quot;truetype&quot;)}</style></defs><path d="M967.008 291.429c-29.12-29.886-64.606-45.578-99.429-53.795 4.32-3.074 8.64-5.943 12.789-8.548 14.617-9.212 48.857-30.777 39.931-71.475-7.257-33.44-41.805-55.051-88-55.051a128.389 128.389 0 0 0-35.84 5.017 110.64 110.64 0 0 0-20.182-22.423c-20.446-17.291-47.829-26.8-77.086-26.8-46.252 0-80.823 21.612-88.137 55.337-8.56 40.549 25.474 62.023 40 71.178 12.937 8.171 27.611 17.428 37.954 34.697a86.411 86.411 0 0 1 5.223 10.503c-48.766 3.371-107.052 16.342-150.857 61.325-39.612 40.663-58.72 98.915-56.8 173.189 1.668 63.006 14.354 134.571 36.571 206.708 2.446 8.08 4.983 16.138 7.612 23.863a612.086 612.086 0 0 0 6.64 18.903c3.428 9.474 6.857 18.834 10.377 27.223 16.937 43.189 37.085 83.817 58.491 117.863l5.417 8.423a390.354 390.354 0 0 0 30.857 40.697 89.628 89.628 0 0 0 5.006 5.714c34.629 38.08 70.857 57.383 107.623 57.383 80.114 0 142.469-91.897 180.846-169.554l.651-1.143.674-1.532a665.309 665.309 0 0 0 19.109-42.434l1.28-3.166c39.714-95.714 63.817-201.028 66.149-288.982 1.862-74.206-17.246-132.458-56.869-173.12z" fill="#25467A"/><path d="M623.545 250c-44.48-42.617-102.697-60.8-157.371-68.366 17.623-11.257 48.48-33.143 39.92-72.777-7.555-34.926-44.572-57.497-94.229-57.497a139.817 139.817 0 0 0-45.154 7.36 122.069 122.069 0 0 0-25.292-29.657C319.168 10.286 289.328 0 257.374 0c-49.692 0-86.686 22.583-94.229 57.509-9.051 41.851 26 64 42.846 74.628 15.794 9.966 33.691 21.269 46.697 42.994.651 1.086 1.086 2.229 1.691 3.326C191.991 183.35 120.231 199.634 67.671 250 20.47 295.223-2.238 359.36.174 440.663c2.285 73.268 19.257 156.503 49.04 240.286 5.577 16.217 12.068 33.142 19.154 49.954 28 67.794 62.171 129.143 98.96 177.68 16.114 20.971 31.6 38.446 47.257 53.291 43.177 41.223 87.257 62.126 131.017 62.126 104.115 0 187.875-120.629 228.446-192.4a742.495 742.495 0 0 0 26.286-50.503C654.837 668.4 687.888 544.31 691.008 440.63c2.446-81.269-20.263-145.406-67.463-190.629z" fill="#25467A"/><path d="M972.654 449.646c.125 4.343.125 8.96 0 13.565-.389 12.286-1.143 24.835-2.435 37.635-7.165 76.411-29.714 160.377-59.771 233.143l-1.543 3.428c-.891 2.183-1.794 4.48-2.811 6.663-4.743 11.429-9.863 22.4-14.983 33.017a3.886 3.886 0 0 0-.503 1.029c-2.949 5.885-5.897 11.645-8.834 17.143-39.04 73.725-85.12 124.925-126.72 124.925-22.4 0-46.469-14.983-69.635-40.583-1.405-1.405-2.56-2.811-3.965-4.48a343.143 343.143 0 0 1-27.269-36.091c-1.657-2.434-3.2-4.994-4.857-7.429-18.823-30.08-36.743-65.782-52.103-104.571a922.587 922.587 0 0 0 27.143-72.571c5.714-17.143 10.88-34.183 15.36-51.2 15.223-56.835 24.183-112.64 25.726-163.2 1.794-58.503-10.286-107.143-35.715-145.029 46.332-17.92 98.286-14.594 125.315-14.594 55.554-.023 215.04-14.229 217.6 169.2z" fill="#E67800"/><path d="M972.654 449.646c.125 4.343.125 8.96 0 13.565-.389 12.286-1.143 24.835-2.435 37.635H806.38a25.6 25.6 0 1 1 0-51.2zm-191.875 179.2a25.68 25.68 0 0 1-25.6 25.6H624.368c5.714-17.143 10.88-34.183 15.36-51.2h115.429a25.68 25.68 0 0 1 25.622 25.6zM906.094 744c-4.743 11.429-9.863 22.4-14.983 33.017a3.886 3.886 0 0 0-.503 1.029c-2.949 5.885-5.897 11.645-8.834 17.143H767.979a25.6 25.6 0 0 1 0-51.2z" fill="#D97100"/><path d="M639.854 439.269c-3.075 100.571-36.572 218.377-84.229 318.08-.64 1.417-1.28 2.697-1.92 4.102-7.554 16.126-15.737 31.692-24.194 46.549-.252.377-.377.766-.64 1.143-55.166 97.463-122.743 167.086-183.292 167.086-30.468 0-62.857-17.658-94.331-47.738-1.794-1.668-3.429-3.325-5.257-5.245a413.029 413.029 0 0 1-36.983-42.377L202.471 872c-26.492-36.571-51.429-80.389-72.96-128-4.732-9.989-9.143-20.103-13.303-30.343-2.949-6.857-5.714-13.817-8.457-20.857a798.806 798.806 0 0 1-9.726-26.503C71.02 590.263 53.614 510.526 51.431 439.223 44.55 206.949 268.779 224.49 345.579 224.49s301.189-17.54 294.275 214.78z" fill="#FE8500"/><path d="M345.602 552a64.08 64.08 0 0 1-64-64 12.8 12.8 0 1 1 25.6 0 38.4 38.4 0 1 0 76.8 0 12.8 12.8 0 1 1 25.6 0 64.08 64.08 0 0 1-64 64zm-166.4-166.354a38.4 38.4 0 1 0 76.8 0 38.4 38.4 0 1 0-76.8 0zm256 0a38.4 38.4 0 1 0 76.8 0 38.4 38.4 0 1 0-76.8 0z" fill="#25467A"/><path d="M166.402 449.646h-51.2a25.6 25.6 0 0 0 0 51.2h51.2a25.6 25.6 0 0 0 0-51.2zm409.577 0h-51.2a25.6 25.6 0 0 0 0 51.2h51.2a25.6 25.6 0 0 0 0-51.2z" fill="#FAAD96"/><path d="M376.585 193.771c-16-1.142-31.234-1.542-45.188-1.542-6.012 0-11.646.137-16.892.262a162.56 162.56 0 0 0-17.92-43.794c-33.28-55.6-86.788-64.457-83.428-80.251s61.314-28.766 95.36 0c20.731 17.463 29.565 47.634 31.874 79.874 4.857-11.303 11.52-21.063 20.354-28.514 34.172-28.766 91.897-15.92 95.36 0 3.303 15.154-46.114 23.885-79.52 73.965zm425.234 38.4c-13.782-.994-26.891-1.325-38.857-1.325-5.177 0-10.023.114-14.548.217a139.611 139.611 0 0 0-15.417-37.714c-28.652-47.863-74.709-55.498-71.852-69.086s52.789-24.766 82.092 0c17.851 15.028 25.451 41.006 27.428 68.754 4.183-9.726 9.92-18.126 17.52-24.537 29.417-24.766 79.12-13.714 82.092 0 2.845 13.063-39.703 20.583-68.458 63.691z" fill="#B4E876"/><path d="M255.98 718.446A25.68 25.68 0 0 1 230.38 744H129.51c-4.73-9.989-9.142-20.103-13.302-30.343-2.949-6.857-5.714-13.817-8.457-20.857h122.628a25.68 25.68 0 0 1 25.6 25.646zm299.645 38.903c-.64 1.417-1.28 2.697-1.92 4.102-7.554 16.126-15.737 31.692-24.194 46.549H409.579a25.6 25.6 0 0 1 0-51.2h140.8a23.897 23.897 0 0 1 5.246.549zM319.98 897.646a25.68 25.68 0 0 1-25.6 25.6h-48.388a413.029 413.029 0 0 1-36.983-42.377L202.471 872h91.908a25.68 25.68 0 0 1 25.6 25.646z" fill="#E67800"/></svg>