<svg class="icon" viewBox="0 0 1024 1024" xmlns="http://www.w3.org/2000/svg" width="200" height="200"><defs><style>@font-face{font-family:feedback-iconfont;src:url(//at.alicdn.com/t/font_1031158_u69w8yhxdu.woff2?t=1630033759944) format(&quot;woff2&quot;),url(//at.alicdn.com/t/font_1031158_u69w8yhxdu.woff?t=1630033759944) format(&quot;woff&quot;),url(//at.alicdn.com/t/font_1031158_u69w8yhxdu.ttf?t=1630033759944) format(&quot;truetype&quot;)}</style></defs><path d="M388.694 1024c-102.137 0-205.268-42.16-275.897-112.777C49.403 847.817 7.654 754.834.991 662.49c-5.714-79.085 10.595-196.388 120.275-306.057C242.51 235.19 428.443 153.726 583.94 153.726c31.783 0 61.588 3.428 89.143 10.114a96 96 0 0 1 13.485-11.051 104.206 104.206 0 0 1 57.909-17.258 107.303 107.303 0 0 1 14.023.915l47.886-46.343c.102-3.143.285-5.714.457-7.703C811.106 35.429 849.494 0 896.077 0c2.766 0 5.577.126 8.377.4 38.183 3.737 68.572 31.326 78.034 66.766a91.657 91.657 0 0 1 40.24 91.954c-7.382 43.806-44.502 75.589-88.274 75.589a89.394 89.394 0 0 1-15.691-1.395l-1.04-.171-29.943 29.051c4.274 24.423-.103 50.286-13.577 70.652a88.263 88.263 0 0 1-14.32 16.651c40.525 163.52-38.777 399.806-192.252 553.292C588.26 982.069 491.826 1024 388.694 1024z" fill="#25467A"/><path d="M940.991 104.709a8.629 8.629 0 0 1-4.571-2.286c-2.446-2.594-2.172-7.726-2.172-7.772 2-21.828-13.497-41.142-34.605-43.257S859.79 65.35 857.79 87.166a100.057 100.057 0 0 0 1.029 23.451L717.79 247.03a40.617 40.617 0 0 0-4.834 55.908 37.509 37.509 0 0 0 54.08 4.994L904.26 174.79a84.114 84.114 0 0 0 23.566 8.125 37.417 37.417 0 0 0 6.628.595c18.286 0 34.537-13.6 37.783-32.892 3.634-21.588-10.343-42.148-31.246-45.908z" fill="#F3F3F3"/><path d="M693.346 237.863c.125-3.143 1.6-28.972 21.862-42.663s51.189-9.909 61.863 4.8c8.057 11.086-.103 21.943 9.075 32 9.76 10.697 22.857 2.606 35.725 11.737 15.657 11.074 22.446 41.417 9.6 60.8-13.028 19.657-40.48 19.292-47.463 19.2-45.005-.606-92.434-43.348-90.662-85.874z" fill="#FCA256"/><path d="M157.471 392.64C325.723 224.377 631.38 138.754 758.317 265.703s41.314 432.583-126.937 600.846-380.823 110.011-482.377 8.457S-10.792 560.89 157.47 392.64z" fill="#FCAF6D"/><path d="M809.22 533.246c-23.806 118.4-89.463 244.868-177.783 333.314-168.331 168.194-380.937 109.954-482.434 8.446a324.743 324.743 0 0 1-56.583-77.292A508.674 508.674 0 0 0 332.808 857.6c216.446 0 401.669-134.4 476.412-324.354z" fill="#F0A668"/><path d="M409.608 665.6a64.069 64.069 0 0 1-64-64 12.8 12.8 0 1 1 25.6 0 38.4 38.4 0 0 0 76.8 0 12.8 12.8 0 1 1 25.6 0 64.069 64.069 0 0 1-64 64zm-166.4-166.4a38.4 38.4 0 1 0 76.8 0 38.4 38.4 0 1 0-76.8 0zm256 0a38.4 38.4 0 1 0 76.8 0 38.4 38.4 0 1 0-76.8 0z" fill="#25467A"/><path d="M230.408 563.2h-51.2a25.6 25.6 0 1 0 0 51.2h51.2a25.6 25.6 0 0 0 0-51.2zm409.6 0h-51.2a25.6 25.6 0 0 0 0 51.2h51.2a25.6 25.6 0 0 0 0-51.2z" fill="#FF806C"/></svg>