<svg class="icon" viewBox="0 0 1024 1024" xmlns="http://www.w3.org/2000/svg" width="200" height="200"><defs><style>@font-face{font-family:feedback-iconfont;src:url(//at.alicdn.com/t/font_1031158_u69w8yhxdu.woff2?t=1630033759944) format(&quot;woff2&quot;),url(//at.alicdn.com/t/font_1031158_u69w8yhxdu.woff?t=1630033759944) format(&quot;woff&quot;),url(//at.alicdn.com/t/font_1031158_u69w8yhxdu.ttf?t=1630033759944) format(&quot;truetype&quot;)}</style></defs><path d="M512 1024C215.314 1024 0 829.143 0 560.686 0 383.657 97.714 232 258.4 153.714c-8.229-34.057-2.171-62.857-1.143-67.543l8.572-36.342 38.057-2.4c2.285-.115 5.371-.229 8.914-.229 14.629 0 29.257 2.286 43.2 6.743C362.857 45.6 370.629 38.286 379.429 32l20.228-14.514 24.114 6.743a132.731 132.731 0 0 1 33.258 14.628c8.342-7.771 17.257-14.743 26.857-20.914L512 0l28.114 18.057c9.6 6.172 18.629 13.143 26.857 20.914 10.286-6.4 21.486-11.314 33.258-14.628l24.114-6.743L644.57 32c8.686 6.286 16.572 13.6 23.429 21.943a142.153 142.153 0 0 1 43.2-6.743c3.543 0 6.629.114 8.914.229l38.057 2.4 8.572 36.342c1.143 4.686 7.2 33.486-1.143 67.543 160.686 78.4 258.4 230.057 258.4 406.972C1024 829.143 808.686 1024 512 1024z" fill="#25467A"/><path d="M409.6 72.457c7.086 2.057 24.8 8 38.4 25.029 5.943 7.428 10.286 15.885 12.8 25.028 3.314-8.8 7.657-17.143 12.8-25.028C483.657 82.4 496.686 69.6 512 59.886V210.17H409.6c-5.486.572-45.714 4.458-76.8-25.028-37.029-35.2-26.286-84.914-25.6-87.657 8.114-.457 29.714-.8 51.2 12.571 10.286 6.4 18.971 14.857 25.6 25.029a57.782 57.782 0 0 1 0-25.029c4.8-21.828 20.686-34.171 25.6-37.6zm204.8 0c-7.086 2.057-24.8 8-38.4 25.029-5.943 7.428-10.286 15.885-12.8 25.028-3.314-8.8-7.657-17.143-12.8-25.028C540.343 82.4 527.314 69.6 512 59.886V210.17h102.4c5.486.572 45.714 4.458 76.8-25.028 37.029-35.2 26.286-84.914 25.6-87.657-8.114-.457-29.714-.8-51.2 12.571-10.286 6.4-18.971 14.857-25.6 25.029a57.782 57.782 0 0 0 0-25.029c-4.8-21.828-20.686-34.171-25.6-37.6z" fill="#3151B7"/><path d="M51.2 560.686a460.8 413.143 0 1 0 921.6 0 460.8 413.143 0 1 0-921.6 0z" fill="#6087F0"/><path d="M972.8 560.8c0 248.914-206.286 413.143-460.8 413.143-219.543 0-403.2-122.286-449.486-315.543 95.772 94.857 225.143 148.114 359.886 148 255.657 0 467.429-187.314 505.714-432.114C956.8 428.686 972.8 491.429 972.8 560.8z" fill="#5C81E6"/><path d="M512 550.4c-35.314 0-64-28.686-64-64 0-7.086 5.714-12.8 12.8-12.8s12.8 5.714 12.8 12.8c0 21.257 17.257 38.4 38.4 38.4s38.4-17.143 38.4-38.4c0-7.086 5.714-12.8 12.8-12.8s12.8 5.714 12.8 12.8c0 35.314-28.686 64-64 64zM345.6 384a38.4 38.4 0 1 0 76.8 0 38.4 38.4 0 1 0-76.8 0zm256 0a38.4 38.4 0 1 0 76.8 0 38.4 38.4 0 1 0-76.8 0z" fill="#25467A"/><path d="M332.8 448h-51.2c-14.171 0-25.6 11.429-25.6 25.6s11.429 25.6 25.6 25.6h51.2c14.171 0 25.6-11.429 25.6-25.6S346.971 448 332.8 448zm409.6 0h-51.2c-14.171 0-25.6 11.429-25.6 25.6s11.429 25.6 25.6 25.6h51.2c14.171 0 25.6-11.429 25.6-25.6 0-14.171-11.429-25.6-25.6-25.6z" fill="#89A2F6"/></svg>