<svg class="icon" viewBox="0 0 1024 1024" xmlns="http://www.w3.org/2000/svg" width="200" height="200"><defs><style>@font-face{font-family:feedback-iconfont;src:url(//at.alicdn.com/t/font_1031158_u69w8yhxdu.woff2?t=1630033759944) format(&quot;woff2&quot;),url(//at.alicdn.com/t/font_1031158_u69w8yhxdu.woff?t=1630033759944) format(&quot;woff&quot;),url(//at.alicdn.com/t/font_1031158_u69w8yhxdu.ttf?t=1630033759944) format(&quot;truetype&quot;)}</style></defs><path d="M768.549 1024a69.44 69.44 0 0 1-32.549-8.137l-20.949-11.189-23.782-1.794a68.571 68.571 0 0 1-45.189-21.634l-12.674-13.6-14.126-4.64a68.331 68.331 0 0 1-43.109-42.057l-3.428-9.943-9.052-7.509a66.903 66.903 0 0 1-24-44.926l-1.142-10.982-5.806-7.292a66.583 66.583 0 0 1-11.234-62.686l-3.269-7.931a66.286 66.286 0 0 1 .137-51.086l8.183-19.577L528 680a67.017 67.017 0 0 1 29.143-50.217l3.428-2.343 1.223-3.954a68.057 68.057 0 0 1 44.172-44.343l18.8-6.057 21.874-16a68.994 68.994 0 0 1 35.52-13.063l34.72-2.606 32.48-9.383a69.211 69.211 0 0 1 38.503 0l32.48 9.383 34.72 2.606a69.006 69.006 0 0 1 35.52 13.051l21.874 16 18.812 6.069a68.011 68.011 0 0 1 44.171 44.343l1.223 3.943 3.428 2.342A67.051 67.051 0 0 1 1009.143 680l1.486 18.994 8.171 19.577a66.286 66.286 0 0 1 .137 51.086l-3.257 7.932a66.64 66.64 0 0 1-11.234 62.685l-5.806 7.292-1.143 10.971a66.846 66.846 0 0 1-24 44.937l-9.051 7.509-3.429 9.943a68.377 68.377 0 0 1-43.108 42.057l-14.126 4.64-12.686 13.611a68.571 68.571 0 0 1-45.188 21.623l-23.772 1.794-20.994 11.212a69.429 69.429 0 0 1-32.594 8.137zM512 0h.011q36.08 0 36.08 36.08v131.829q0 36.08-36.08 36.08H512q-36.08 0-36.08-36.08V36.08Q475.92 0 512 0z" fill="#25467A"/><path d="M512 1024a97.783 97.783 0 0 1-45.909-11.429l-57.531-30.72-65.143-4.902a95.28 95.28 0 0 1-62.857-29.829l-38.754-41.589-45.84-15.04c-27.52-9.017-49.429-30.125-58.629-56.457L123.91 795.59 90.674 768a88.069 88.069 0 0 1-31.885-59.04l-4.343-42.857L30.114 635.6A86.457 86.457 0 0 1 15.43 554l7.314-21.806-16.229-39.451a85.611 85.611 0 0 1 .183-65.943l22.137-53.029L32.95 321.2c2.068-26.503 16.228-50.606 38.857-66.137L96.73 237.92l9.143-29.246c8.686-27.897 31.132-50.125 60.035-59.428l50.914-16.4 56.423-41.189a96.674 96.674 0 0 1 49.76-18.194l83.428-6.274 78.32-22.618a98.286 98.286 0 0 1 54.492 0L617.52 67.19l83.429 6.274a96.56 96.56 0 0 1 49.794 18.194l56.491 41.246 50.915 16.411c28.902 9.303 51.348 31.532 60.034 59.429l9.143 29.246 24.925 17.142c22.618 15.52 36.778 39.635 38.858 66.138l4.114 52.571 22.137 53.029a85.611 85.611 0 0 1 .183 65.942l-16.229 39.452 7.315 21.806a86.457 86.457 0 0 1-14.686 81.6l-24.332 30.548-4.342 42.857A88.069 88.069 0 0 1 933.326 768l-33.223 27.554L886.674 834c-9.2 26.286-31.108 47.44-58.617 56.457l-45.851 15.04-38.755 41.589a95.28 95.28 0 0 1-62.857 29.828l-65.143 4.903-57.542 30.754A97.909 97.909 0 0 1 512 1024z" fill="#25467A"/><path d="m972.423 443.851-22.286-53.382a41.657 41.657 0 0 1-3.12-12.892l-4.16-52.926a43.189 43.189 0 0 0-18.891-32.148l-25.646-17.6a43.691 43.691 0 0 1-17.143-22.983l-9.36-30.046a44.571 44.571 0 0 0-29.177-28.903l-51.326-16.537a46.469 46.469 0 0 1-13.143-6.685l-56.822-41.486a46.994 46.994 0 0 0-24.195-8.846l-83.714-6.274a48.354 48.354 0 0 1-9.657-1.737l-78.537-22.72a47.886 47.886 0 0 0-26.492 0l-78.537 22.697a48.354 48.354 0 0 1-9.657 1.76l-83.703 6.274a46.994 46.994 0 0 0-24.194 8.846l-56.823 41.486a46.469 46.469 0 0 1-13.143 6.685l-51.326 16.537a44.64 44.64 0 0 0-29.188 28.903l-9.349 30.046a43.691 43.691 0 0 1-17.143 22.983l-25.645 17.6a43.189 43.189 0 0 0-18.903 32.148l-4.137 52.926a41.657 41.657 0 0 1-3.12 12.892L51.6 443.85a41.783 41.783 0 0 0-.091 32.058l16.571 40.285a41.68 41.68 0 0 1 .971 29.212L61.44 568a41.977 41.977 0 0 0 7.131 39.714l24.789 31.143a42.446 42.446 0 0 1 9.143 22.183l4.423 43.566a42.983 42.983 0 0 0 15.497 28.697l33.748 28a43.429 43.429 0 0 1 13.372 19.12l13.611 39.006a44.674 44.674 0 0 0 28.503 27.428l46.492 15.246a45.966 45.966 0 0 1 19.302 12.274l39.2 42.194a46.526 46.526 0 0 0 30.56 14.492l65.715 4.948a47.417 47.417 0 0 1 18.72 5.418l58.034 30.982a47.623 47.623 0 0 0 44.64 0l58.034-30.982a47.36 47.36 0 0 1 18.72-5.429l65.715-4.949a46.526 46.526 0 0 0 30.56-14.48l39.2-42.08a45.966 45.966 0 0 1 19.302-12.274l46.492-15.246a44.674 44.674 0 0 0 28.503-27.428l13.714-39.086a43.429 43.429 0 0 1 13.371-19.12l33.749-28a43.029 43.029 0 0 0 15.497-28.697l4.423-43.566a42.446 42.446 0 0 1 9.143-22.183l24.686-31.177A42 42 0 0 0 962.56 568l-7.6-22.64a41.749 41.749 0 0 1 .983-29.211l16.56-40.286a41.726 41.726 0 0 0-.08-32.012z" fill="#FF5252"/><path d="M621.086 194s-31.166-34.229-44.675-37.131c-12.982-2.412-57.142 16.88-57.142 16.88s48.308-39.543 61.817-37.132c13.508 2.892 40 57.383 40 57.383zm127.794 44.571s-17.143-41.954-28.571-48.708-59.738-1.92-59.738-1.92 59.738-22.194 71.692-15.92c11.428 6.754 16.628 66.548 16.628 66.548zm91.931 91.578s5.2-44.846-1.554-55.463c-7.268-10.606-52.468-27.006-52.468-27.006s64.422 5.303 71.177 15.92c6.754 11.086-17.143 66.549-17.143 66.549zm26.503 236.617s31.166-34.72 31.166-47.257c.526-12.572-28.057-49.143-28.057-49.143s50.4 37.143 50.4 49.68-53.509 46.765-53.509 46.765zm-29.6 109.245s40-25.565 44.149-37.622-12.457-54.492-12.457-54.492 37.92 48.709 33.76 60.766-65.452 31.348-65.452 31.348zm-57.668 87.76s48.308-6.262 57.657-14.948c9.348-9.143 15.063-53.532 15.063-53.532s10.388 59.326.514 68c-9.337 9.143-73.234.48-73.234.48zm-128.309 76.652s47.783 7.714 59.737 1.931 32.206-46.777 32.206-46.777-9.874 59.314-21.817 65.143c-11.429 5.783-70.126-20.251-70.126-20.251zm-124.16 42.068s45.714 15.92 58.183 12.058c12.994-3.863 41.04-40.503 41.04-40.503s-21.303 56.411-34.286 60.274c-12.468 3.863-64.937-31.829-64.937-31.829zM402.914 194s31.166-34.229 44.675-37.131c12.982-2.412 57.142 16.88 57.142 16.88s-48.32-39.543-61.817-37.132-40 57.383-40 57.383zM275.12 238.571s17.143-41.954 28.571-48.708 59.738-1.92 59.738-1.92-59.738-22.229-71.68-15.92c-11.429 6.754-16.629 66.548-16.629 66.548zm-91.943 91.578s-5.2-44.846 1.554-55.463c7.28-10.606 52.469-27.006 52.469-27.006s-64.411 5.303-71.166 15.92 17.143 66.549 17.143 66.549zm697.12 111.165s18.709-41.474 15.074-53.531-42.08-39.543-42.08-39.543 60.263 22.183 63.372 34.286c3.634 12.057-36.366 58.834-36.366 58.834zm-736.594 0s-18.697-41.474-15.063-53.531 42.069-39.543 42.069-39.543-60.252 22.183-63.372 34.286c-3.634 12.057 36.366 58.834 36.366 58.834zm12.983 125.452s-31.166-34.72-31.166-47.257c-.526-12.572 28.046-49.143 28.046-49.143S103.177 507.429 103.177 520s53.509 46.766 53.509 46.766zm29.6 109.245s-40-25.565-44.16-37.622 12.468-54.492 12.468-54.492-37.92 48.709-33.76 60.766 65.452 31.348 65.452 31.348zm498.697 40.183s35.84.972 44.148-4.343 18.183-37.565 18.183-37.565-.514 44.365-8.308 49.668c-8.835 5.303-54.023-7.714-54.023-7.714zm117.394-109.337s23.897-25.074 24.412-34.286-19.212-37.131-19.212-37.131 36.366 29.017 35.852 38.183-41.052 33.234-41.052 33.234zm25.463-124.491s15.577-30.377 13.497-39.063c-2.068-9.143-29.611-30.377-29.611-30.377s43.634 18.285 45.714 27.485c1.566 8.686-29.6 41.955-29.6 41.955zM661.086 253.863s-24.412-24.594-34.286-26.046-41.554 13.989-41.554 13.989 34.8-30.857 44.674-28.937 31.166 40.994 31.166 40.994zm97.657 84.868s-5.189-32.788-11.943-39.542-42.594-10.126-42.594-10.126 47.268-7.234 54.537-.48 0 50.148 0 50.148zM577.45 793.554s33.246 12.057 43.12 9.646c9.349-2.411 30.64-29.417 30.64-29.417s-16.617 41.474-25.965 44.366c-9.875 2.411-47.795-24.595-47.795-24.595zm-238.434-77.36s-35.84.972-44.148-4.343c-7.795-5.302-18.183-37.565-18.183-37.565s.514 44.365 8.308 49.668c8.835 5.303 54.023-7.714 54.023-7.714zM221.623 606.857s-23.897-25.074-24.412-34.286 19.212-37.131 19.212-37.131-36.354 29.017-35.852 38.183c1.04 9.143 41.04 33.268 41.04 33.268zM196.16 482.366s-15.589-30.377-13.497-39.063c2.068-9.143 29.611-30.377 29.611-30.377S168.64 431.21 166.56 440.41c-1.566 8.686 29.6 41.955 29.6 41.955zm166.754-228.503s24.412-24.594 34.286-26.046 41.554 13.989 41.554 13.989-34.8-30.857-44.674-28.937-31.166 40.994-31.166 40.994zm-97.657 84.868s5.189-32.788 11.943-39.542 42.594-10.126 42.594-10.126-47.268-7.234-54.537-.48 0 50.148 0 50.148zM446.55 793.554s-33.246 12.057-43.12 9.646c-9.349-2.411-30.64-29.417-30.64-29.417s16.617 41.474 25.965 44.366c9.875 2.411 47.795-24.595 47.795-24.595zm-202.595-29.783s-48.308-6.262-57.657-14.948c-9.36-9.143-15.063-53.532-15.063-53.532s-10.388 59.326-.525 68c9.348 9.143 73.245.48 73.245.48zm128.309 76.652s-47.794 7.714-59.737 1.931-32.206-46.777-32.206-46.777 9.863 59.314 21.817 65.143 70.126-20.251 70.126-20.251zM496.41 882.49s-45.714 15.92-58.171 12.058c-12.994-3.863-41.04-40.503-41.04-40.503s21.291 56.411 34.286 60.274c12.457 3.863 64.925-31.829 64.925-31.829z" fill="#D50000"/><path d="M768.549 998.857a44.251 44.251 0 0 1-20.755-5.177l-25.623-13.714-29.062-2.195a43.429 43.429 0 0 1-28.675-13.714l-17.143-18.343-20.274-6.651a43.131 43.131 0 0 1-27.211-26.457l-5.715-16.549-14.434-11.908A41.874 41.874 0 0 1 564.571 856l-1.851-18.286-10.423-13.074a41.577 41.577 0 0 1-6.983-39.257l2.903-8.652-6.857-16.594a41.291 41.291 0 0 1 .091-31.84l9.715-23.291 1.805-23.017a42.023 42.023 0 0 1 18.286-31.44l10.606-7.28 3.828-12.275a42.869 42.869 0 0 1 27.863-27.885l22.663-7.303 25.143-18.355a43.909 43.909 0 0 1 22.617-8.308l37.314-2.8 34.983-10.114a44.194 44.194 0 0 1 24.537 0l34.983 10.114 37.315 2.8a43.874 43.874 0 0 1 22.582 8.286l25.143 18.354 22.652 7.303a42.846 42.846 0 0 1 27.874 27.897l3.817 12.263 10.606 7.28a42.046 42.046 0 0 1 18.286 31.44l1.794 23.017 9.726 23.291a41.291 41.291 0 0 1 .08 31.84l-6.858 16.595 2.903 8.651a41.577 41.577 0 0 1-6.983 39.269l-10.354 13.085L972.571 856a41.863 41.863 0 0 1-15.074 28.126l-14.48 11.988-5.783 16.549a43.109 43.109 0 0 1-27.2 26.457l-20.285 6.651-17.086 18.343a43.509 43.509 0 0 1-28.686 13.715l-29.063 2.194-25.623 13.714a44.24 44.24 0 0 1-20.742 5.12z" fill="#25467A"/><path d="m974.514 737.143-9.943-23.932a18.469 18.469 0 0 1-1.394-5.714l-1.851-23.68a19.326 19.326 0 0 0-8.457-14.377l-11.429-7.874a19.429 19.429 0 0 1-7.657-10.286l-4.194-13.44a19.909 19.909 0 0 0-13.052-12.926l-22.96-7.394a21.189 21.189 0 0 1-5.886-2.994l-25.417-18.56A20.96 20.96 0 0 0 851.43 592l-37.463-2.823a21.143 21.143 0 0 1-4.32-.777l-35.143-10.149a21.326 21.326 0 0 0-11.852 0L727.52 588.4a21.28 21.28 0 0 1-4.32.777L685.714 592a20.914 20.914 0 0 0-10.811 3.954l-25.429 18.56a20.88 20.88 0 0 1-5.885 2.995l-23.018 7.348a19.943 19.943 0 0 0-13.062 12.926l-4.08 13.44a19.6 19.6 0 0 1-7.658 10.286l-11.428 7.874a19.303 19.303 0 0 0-8.446 14.377l-1.954 23.669a19.12 19.12 0 0 1-1.394 5.714l-9.978 24a18.686 18.686 0 0 0 0 14.343l7.406 18.023a18.697 18.697 0 0 1 .446 13.062l-3.429 10.126a18.777 18.777 0 0 0 3.2 17.749l11.086 13.92a18.983 18.983 0 0 1 4.069 9.92l1.977 19.428a19.223 19.223 0 0 0 6.96 12.846l15.097 12.571a19.497 19.497 0 0 1 5.977 8.549l6.114 17.486a19.966 19.966 0 0 0 12.743 12.285l20.8 6.858a20.571 20.571 0 0 1 8.64 5.497l17.486 18.765a20.857 20.857 0 0 0 13.714 6.48l29.394 2.218a21.223 21.223 0 0 1 8.32 2.388l25.955 13.863a21.349 21.349 0 0 0 19.965 0l25.966-13.863a21.109 21.109 0 0 1 8.377-2.423l29.452-2.217a20.834 20.834 0 0 0 13.714-6.48l17.543-18.823a20.571 20.571 0 0 1 8.628-5.497l20.8-6.857a19.989 19.989 0 0 0 12.686-12.217l6.114-17.486a19.429 19.429 0 0 1 5.978-8.548l15.097-12.572a19.269 19.269 0 0 0 6.937-12.823l1.977-19.428a18.983 18.983 0 0 1 4.069-9.92l11.085-13.92a18.777 18.777 0 0 0 3.189-17.749l-3.429-10.126a18.697 18.697 0 0 1 .435-13.062l7.417-18.023a18.686 18.686 0 0 0-.012-14.343z" fill="#FF5252"/><path d="M582.057 754.583c0-97.589 86.652-158.686 186.492-158.686S955.04 656.994 955.04 754.583 868.389 952.72 768.549 952.72 582.057 852.171 582.057 754.583z" fill="#FFEBEE"/><path d="M512 575.314a69.28 69.28 0 0 1-69.189-69.223 13.851 13.851 0 0 1 27.68-.822v.822a41.52 41.52 0 0 0 83.029 0 13.84 13.84 0 1 1 27.669-.822v.822A69.269 69.269 0 0 1 512 575.314zM332.069 395.43a41.52 41.52 0 0 0 83.028 0 41.52 41.52 0 1 0-83.028 0zm276.765 0a41.52 41.52 0 0 0 83.029.068v-.068a41.52 41.52 0 1 0-83.029 0z" fill="#25467A"/><path d="M318.24 464.617h-55.291a27.669 27.669 0 1 0 0 55.337h55.382a27.669 27.669 0 1 0 0-55.337h-.091zm442.811 0h-55.36a27.669 27.669 0 0 0 0 55.337h55.36a27.669 27.669 0 1 0 0-55.337z" fill="#FFEBEE"/></svg>