<svg class="icon" viewBox="0 0 1024 1024" xmlns="http://www.w3.org/2000/svg" width="200" height="200"><defs><style>@font-face{font-family:feedback-iconfont;src:url(//at.alicdn.com/t/font_1031158_u69w8yhxdu.woff2?t=1630033759944) format(&quot;woff2&quot;),url(//at.alicdn.com/t/font_1031158_u69w8yhxdu.woff?t=1630033759944) format(&quot;woff&quot;),url(//at.alicdn.com/t/font_1031158_u69w8yhxdu.ttf?t=1630033759944) format(&quot;truetype&quot;)}</style></defs><path d="M899.76 483.291a76.64 76.64 0 0 0-28.297-17.988c8.72-22.583 12.411-43.737 11.326-63.132 76.411-23.497 138.091-101.108 141.097-187.794 1.828-52.491-18.709-102.491-59.372-144.606C926.103 29.99 870.96.057 836.251.057c-18.137 0-30.445 7.246-37.554 13.303-27.428 23.36-19.154 53.646-10.926 71.794L763.43 96.766a173.486 173.486 0 0 0-66.378 56A140.24 140.24 0 0 0 512 147.429a140.251 140.251 0 0 0-185.051 5.325 173.509 173.509 0 0 0-66.378-56L236.23 85.097c8.228-18.148 16.525-48.434-10.903-71.771C218.194 7.246 205.897 0 187.749 0 153.04 0 97.897 30 59.486 69.771 18.823 111.886-1.714 161.886.114 214.377 3.12 301.051 64.79 378.651 141.19 402.171c-1.04 18.469 2.285 38.572 10.171 59.966a76.297 76.297 0 0 0-39.909 21.154L48.114 546.64a76.8 76.8 0 0 0 54.297 131.074 77.429 77.429 0 0 0 13.555-1.143 76.891 76.891 0 0 0 97.851 99.155 76.823 76.823 0 0 0 57.509 119.383A101.851 101.851 0 0 0 256 948.949c0 33.371 26.754 72.354 102.183 72.354a174.286 174.286 0 0 0 35.851-3.577 113.497 113.497 0 0 0 66.572-2.972 114.034 114.034 0 0 0 95.874-2.743 114.286 114.286 0 0 0 45.12 9.338 112.423 112.423 0 0 0 28.354-3.623 174.286 174.286 0 0 0 35.852 3.577c75.428 0 102.194-38.983 102.194-72.354a101.794 101.794 0 0 0-16.491-55.669 76.88 76.88 0 0 0 45.885-117.554 76.903 76.903 0 0 0 97.852-99.155 77.463 77.463 0 0 0 13.565 1.143 76.8 76.8 0 0 0 54.298-131.108z" fill="#25467A"/><path d="M665.611 897.737c-.297 0-.56.08-.845.092a63.497 63.497 0 0 0-112.252-32.286 63.109 63.109 0 0 0-86.857-6.343 63.543 63.543 0 0 0-106.366 38.629c-.285 0-.548-.092-.834-.092a51.2 51.2 0 0 0-51.2 51.2c0 21.714 60.194 26.686 88.24 15.074a62.549 62.549 0 0 0 66.949-8.262 63.234 63.234 0 0 0 92.297-6.343 63.017 63.017 0 0 0 73.828 14.605c28.046 11.612 88.252 6.64 88.252-15.074a51.2 51.2 0 0 0-51.212-51.2zM251.35 614.4H384v51.2H261.954l-55.863 55.863a25.601 25.601 0 1 1-36.205-36.206l63.36-63.36a25.543 25.543 0 0 1 18.103-7.497zm89.6 115.2h132.66v51.2H351.554l-55.863 55.863a25.601 25.601 0 1 1-36.205-36.206l63.36-63.314a25.543 25.543 0 0 1 18.103-7.543zM165.714 512h132.709v51.2H176.366l-55.863 55.863a25.6 25.6 0 0 1-36.194-36.206l63.348-63.36A25.554 25.554 0 0 1 165.714 512zm594.149 102.4H627.21v51.2h122.046l55.863 55.863a25.601 25.601 0 0 0 36.206-36.206l-63.36-63.36a25.543 25.543 0 0 0-18.103-7.497zm-89.6 115.2H537.61v51.2h122.046l55.863 55.863a25.601 25.601 0 1 0 36.206-36.206l-63.36-63.314a25.543 25.543 0 0 0-18.103-7.543zM845.45 512H712.79v51.2h122.057l55.863 55.863a25.601 25.601 0 0 0 36.205-36.206l-63.36-63.36A25.554 25.554 0 0 0 845.451 512z" fill="#EA5100"/><path d="M384.011 768a128 128 0 1 0 256 0 128 128 0 1 0-256 0z" fill="#FE6100"/><path d="M332.811 588.8a179.2 179.2 0 1 0 358.4 0 179.2 179.2 0 1 0-358.4 0z" fill="#EA5100"/><path d="M825.851 384c-23.268-39.737-89.451-.48-188.308-51.2C567.61 296.914 559.84 256 512 256s-55.6 40.914-125.543 76.8C287.6 383.52 221.417 344.229 198.15 384c-25.875 44.16 34.971 132.434 87.874 179.2C372.903 640 478.549 640 512 640s139.097 0 225.966-76.8c52.891-46.766 113.76-135.04 87.885-179.2z" fill="#FE6100"/><path d="M512 550.4a64.069 64.069 0 0 1-64-64 12.8 12.8 0 0 1 25.6 0 38.4 38.4 0 0 0 76.8 0 12.8 12.8 0 1 1 25.6 0 64.08 64.08 0 0 1-64 64z" fill="#25467A"/><path d="M332.811 448h-51.2a25.6 25.6 0 0 0 0 51.2h51.2a25.6 25.6 0 1 0 0-51.2zm409.6 0h-51.2a25.6 25.6 0 1 0 0 51.2h51.2a25.6 25.6 0 0 0 0-51.2z" fill="#E62325"/><path d="M332.811 256a89.6 89.6 0 1 0 179.2 0 89.6 89.6 0 1 0-179.2 0z" fill="#FFF"/><path d="M384.011 256a38.4 38.4 0 1 0 76.8 0 38.4 38.4 0 1 0-76.8 0z" fill="#25467A"/><path d="M512.011 256a89.6 89.6 0 1 0 179.2 0 89.6 89.6 0 1 0-179.2 0z" fill="#FFF"/><path d="M563.211 256a38.4 38.4 0 1 0 76.8 0 38.4 38.4 0 1 0-76.8 0z" fill="#25467A"/><path d="M719.2 270.857c12.491 57.246 69.349 85.92 112.674 87.44 73.749 2.594 138.286-71.417 140.846-145.737 3.806-109.646-128.96-170.423-140.846-160.309-8.194 6.983 38.217 50.08 30.537 114.8-5.211 43.898-33.04 78.526-38.354 76.572-4.091-1.543 7.303-24 0-51.017-6.148-22.755-22.857-38.777-38.514-49.657-50.377 24.125-77.234 77.954-66.343 127.908zm-414.4 0c-12.491 57.246-69.349 85.92-112.674 87.44C118.377 360.891 53.84 286.88 51.28 212.56 47.474 102.914 180.24 42.137 192.126 52.251c8.194 6.983-38.217 50.08-30.537 114.8 5.211 43.898 33.04 78.526 38.354 76.572 4.091-1.543-7.303-24 0-51.017 6.148-22.755 22.857-38.777 38.514-49.657 50.377 24.125 77.234 77.954 66.343 127.908z" fill="#FE6100"/><path d="M140.789 652.8A12.777 12.777 0 0 1 128 640.64c-5.566-112 49.143-209.691 136.206-242.994 52.571-20.103 103.303-11.212 136.594-.195a12.8 12.8 0 0 1-8 24.298c-29.36-9.703-73.909-17.623-119.406-.195C197.966 450.434 148.663 539.99 153.6 639.36a12.8 12.8 0 0 1-12.149 13.417zm742.434 0A12.777 12.777 0 0 0 896 640.64c5.566-112-49.143-209.691-136.206-242.994-52.571-20.103-103.303-11.212-136.594-.195a12.8 12.8 0 0 0 8 24.298c29.36-9.703 73.909-17.623 119.417-.195 75.429 28.88 124.72 118.435 119.794 217.806a12.777 12.777 0 0 0 12.138 13.417z" fill="#FAAD96"/></svg>