<svg class="icon" viewBox="0 0 1024 1024" xmlns="http://www.w3.org/2000/svg" width="200" height="200"><defs><style>@font-face{font-family:feedback-iconfont;src:url(//at.alicdn.com/t/font_1031158_u69w8yhxdu.woff2?t=1630033759944) format(&quot;woff2&quot;),url(//at.alicdn.com/t/font_1031158_u69w8yhxdu.woff?t=1630033759944) format(&quot;woff&quot;),url(//at.alicdn.com/t/font_1031158_u69w8yhxdu.ttf?t=1630033759944) format(&quot;truetype&quot;)}</style></defs><path d="M923.156 158.444a51.097 51.097 0 1 0-70.719-69.84c-.629-.49-1.143-1.04-1.828-1.52C742.667 4.8 623.399 1.6 572.474.23c-4.08-.115-9.61-.229-16.41-.229-74.126 0-215.873 14.766-332.317 113.61-115.679 98.228-176.73 253.392-181.46 461.172-1.864 81.142-16.195 130.467-27.726 170.101-13.292 45.714-25.851 88.925 2.708 138.193C88.354 1005.714 261.118 1024 357.78 1024c8.88 0 15.75-.16 20.058-.286 283.996-7.828 610.279-213.014 643.227-506.005 11.691-103.634-9.852-247.895-97.908-359.265z" fill="#25467A"/><path d="M93.451 576.005c4.572-198.763 63.394-338.35 163.427-423.287C379.688 48.445 535.458 50.537 571.16 51.485c46.743 1.246 153.667 4.092 248.443 76.365 123.713 94.33 164.593 259.7 150.581 384.156-31.325 278.11-348.407 453.778-593.764 460.566-34.412.949-245.06 5.28-314.877-115.142-34.502-59.542 27.817-102.376 31.908-281.425z" fill="#FED500"/><path d="M970.127 512.006c-31.234 278.11-348.305 453.709-593.685 460.566-34.434 1.029-245.128 5.257-314.899-115.062-28.8-49.668 9.863-87.816 25.863-203.266a516.623 516.623 0 0 0 366.99 152.136c255.368 0 467.732-184.707 510.611-427.779 8.446 46.217 9.84 92.034 5.12 133.405z" fill="#F2CB00"/><path d="M511.995 550.382a64.08 64.08 0 0 1-64-63.999 12.8 12.8 0 0 1 25.6 0 38.4 38.4 0 0 0 76.8 0 12.8 12.8 0 0 1 25.6 0 64.08 64.08 0 0 1-64 64zM345.597 383.984a38.4 38.4 0 1 0 76.8 0 38.4 38.4 0 1 0-76.8 0zm255.997 0a38.4 38.4 0 1 0 76.8 0 38.4 38.4 0 1 0-76.8 0z" fill="#25467A"/><path d="M332.797 448.006h-51.2a25.6 25.6 0 0 0 0 51.2h51.2a25.6 25.6 0 1 0 0-51.2zm409.596 0h-51.2a25.6 25.6 0 1 0 0 51.2h51.2a25.6 25.6 0 0 0 0-51.2z" fill="#FBEAAE"/></svg>