<svg class="icon" viewBox="0 0 1024 1024" xmlns="http://www.w3.org/2000/svg" width="200" height="200"><defs><style>@font-face{font-family:feedback-iconfont;src:url(//at.alicdn.com/t/font_1031158_u69w8yhxdu.woff2?t=1630033759944) format(&quot;woff2&quot;),url(//at.alicdn.com/t/font_1031158_u69w8yhxdu.woff?t=1630033759944) format(&quot;woff&quot;),url(//at.alicdn.com/t/font_1031158_u69w8yhxdu.ttf?t=1630033759944) format(&quot;truetype&quot;)}</style></defs><path d="M460.8 742.4a281.6 281.6 0 1 0 563.2 0 281.6 281.6 0 1 0-563.2 0z" fill="#25467A"/><path d="M448 1024c-27.097 0-45.246-17.291-55.28-27.189C157.36 971.6 0 778.377 0 512S157.246 52.571 392.709 27.2C402.743 17.291 420.89 0 448 0s45.246 17.291 55.28 27.189C738.64 52.4 896 245.623 896 512S738.754 971.429 503.291 996.8c-10.034 9.909-28.182 27.2-55.291 27.2z" fill="#25467A"/><path d="M844.8 512c0 228.697-128 416.297-358.4 434.971-12.571 1.086-25.349 25.829-38.4 25.829s-25.851-24.743-38.4-25.829C179.2 928.297 51.2 740.697 51.2 512s128-416.297 358.4-434.971C422.171 75.886 434.949 51.2 448 51.2s25.851 24.743 38.4 25.829C716.8 95.703 844.8 283.303 844.8 512z" fill="#C4881C"/><path d="M844.8 512c0 228.731-128 416.251-358.4 434.949-12.571 1.142-25.349 25.851-38.4 25.851s-25.851-24.709-38.4-25.851c-133.12-10.755-231.931-77.955-291.714-176.778A508.48 508.48 0 0 0 307.2 806.4c267.909 0 487.806-205.829 510.08-467.966C835.429 391.554 844.8 450.286 844.8 512z" fill="#B87F1A"/><path d="M499.2 742.4a243.2 243.2 0 1 0 486.4 0 243.2 243.2 0 1 0-486.4 0z" fill="#9C6D1E"/><path d="M524.8 742.4a217.6 217.6 0 1 0 435.2 0 217.6 217.6 0 1 0-435.2 0z" fill="#B4E876"/><path d="M691.2 742.4a51.2 51.2 0 1 0 102.4 0 51.2 51.2 0 1 0-102.4 0z" fill="#FBEFC6"/><path d="M755.2 581.177c-1.92 48.4-7.817 95.086-12.8 95.086s-10.88-46.686-12.8-95.086c0-18.057 5.783-20.114 12.8-20.114s12.8 2.057 12.8 20.114z" fill="#81B532"/><path d="M736 646.4a6.4 6.4 0 1 0 12.8 0 6.4 6.4 0 1 0-12.8 0z" fill="#272727"/><path d="M865.451 637.451c-35.588 32.858-72.765 61.715-76.285 58.183s25.325-40.697 58.183-76.285c12.765-12.766 18.285-10.138 23.268-5.166s7.6 10.503-5.166 23.268z" fill="#81B532"/><path d="M803.886 674.514a6.4 6.4 0 1 0 12.8 0 6.4 6.4 0 1 0-12.8 0z" fill="#272727"/><path d="M903.623 755.2c-48.4-1.92-95.086-7.817-95.086-12.8s46.686-10.88 95.086-12.8c18.057 0 20.114 5.783 20.114 12.8s-2.057 12.8-20.114 12.8z" fill="#81B532"/><path d="M832 742.4a6.4 6.4 0 1 0 12.8 0 6.4 6.4 0 1 0-12.8 0z" fill="#272727"/><path d="M847.349 865.451c-32.858-35.588-61.715-72.765-58.183-76.285s40.697 25.325 76.285 58.183c12.766 12.765 10.138 18.285 5.166 23.268s-10.503 7.6-23.268-5.166z" fill="#81B532"/><path d="M803.886 810.286a6.4 6.4 0 1 0 12.8 0 6.4 6.4 0 1 0-12.8 0z" fill="#272727"/><path d="M729.6 903.623c1.92-48.4 7.817-95.086 12.8-95.086s10.88 46.686 12.8 95.086c0 18.057-5.783 20.114-12.8 20.114s-12.8-2.057-12.8-20.114z" fill="#81B532"/><path d="M736 838.4a6.4 6.4 0 1 0 12.8 0 6.4 6.4 0 1 0-12.8 0z" fill="#272727"/><path d="M619.349 847.349c35.588-32.858 72.765-61.715 76.285-58.183s-25.325 40.697-58.183 76.285c-12.765 12.766-18.285 10.138-23.268 5.166s-7.6-10.503 5.166-23.268z" fill="#81B532"/><path d="M668.114 810.286a6.4 6.4 0 1 0 12.8 0 6.4 6.4 0 1 0-12.8 0z" fill="#272727"/><path d="M581.177 729.6c48.4 1.92 95.086 7.817 95.086 12.8s-46.686 10.88-95.086 12.8c-18.057 0-20.114-5.783-20.114-12.8s2.057-12.8 20.114-12.8z" fill="#81B532"/><path d="M640 742.4a6.4 6.4 0 1 0 12.8 0 6.4 6.4 0 1 0-12.8 0z" fill="#272727"/><path d="M637.451 619.349c32.858 35.588 61.715 72.765 58.183 76.285s-40.697-25.325-76.285-58.183c-12.766-12.765-10.138-18.285-5.166-23.268s10.503-7.6 23.268 5.166z" fill="#81B532"/><path d="M668.114 674.514a6.4 6.4 0 1 0 12.8 0 6.4 6.4 0 1 0-12.8 0z" fill="#272727"/><path d="M786.411 586.777c-11.337 47.086-26.285 91.737-31.108 90.766s-1.554-47.92 6-95.76c3.52-17.714 9.588-18.606 16.468-17.234s12.16 4.514 8.64 22.228z" fill="#81B532"/><path d="M754.731 648.24a6.4 6.4 0 1 0 12.8 0 6.4 6.4 0 1 0-12.8 0z" fill="#272727"/><path d="M883.566 663.474c-41.315 25.292-83.429 46.32-86.183 42.183s32.788-34.983 72-63.463c15.017-10.034 19.931-6.377 23.84-.537s5.348 11.783-9.657 21.817z" fill="#81B532"/><path d="M815.817 689.063a6.4 6.4 0 1 0 12.8 0 6.4 6.4 0 1 0-12.8 0z" fill="#272727"/><path d="M898.023 786.411c-47.086-11.337-91.737-26.285-90.766-31.108s47.92-1.554 95.76 6c17.714 3.52 18.606 9.588 17.234 16.468s-4.514 12.16-22.228 8.64z" fill="#81B532"/><path d="M830.16 761.131a6.4 6.4 0 1 0 12.8 0 6.4 6.4 0 1 0-12.8 0z" fill="#272727"/><path d="M821.326 883.566c-25.292-41.315-46.32-83.429-42.183-86.183s34.983 32.788 63.463 72c10.034 15.017 6.377 19.931.537 23.84s-11.783 5.348-21.817-9.657z" fill="#81B532"/><path d="M789.337 822.217a6.4 6.4 0 1 0 12.8 0 6.4 6.4 0 1 0-12.8 0z" fill="#272727"/><path d="M698.389 898.023c11.337-47.086 26.228-91.737 31.108-90.766s1.554 47.92-6 95.76c-3.52 17.714-9.588 18.606-16.468 17.234s-12.172-4.514-8.64-22.228z" fill="#81B532"/><path d="M717.269 836.56a6.4 6.4 0 1 0 12.8 0 6.4 6.4 0 1 0-12.8 0z" fill="#272727"/><path d="M601.234 821.326c41.315-25.292 83.429-46.32 86.183-42.183s-32.788 34.983-72 63.463c-15.017 10.034-19.931 6.377-23.84.537s-5.291-11.783 9.657-21.817z" fill="#81B532"/><path d="M656.183 795.737a6.4 6.4 0 1 0 12.8 0 6.4 6.4 0 1 0-12.8 0z" fill="#272727"/><path d="M586.777 698.389c47.086 11.337 91.737 26.228 90.766 31.108s-47.92 1.554-95.76-6c-17.714-3.52-18.606-9.588-17.234-16.468s4.514-12.172 22.228-8.64z" fill="#81B532"/><path d="M641.84 723.669a6.4 6.4 0 1 0 12.8 0 6.4 6.4 0 1 0-12.8 0z" fill="#272727"/><path d="M663.474 601.234c25.292 41.315 46.32 83.429 42.183 86.183s-34.983-32.788-63.463-72c-10.034-15.017-6.377-19.931-.537-23.84s11.783-5.291 21.817 9.657z" fill="#81B532"/><path d="M682.663 662.583a6.4 6.4 0 1 0 12.8 0 6.4 6.4 0 1 0-12.8 0z" fill="#272727"/><path d="M815.92 598.354c-20.297 43.977-43.611 84.857-48.217 82.949S775.53 634 792.274 588.56c6.857-16.686 13.029-16.377 19.52-13.714s11.063 6.868 4.126 23.508z" fill="#81B532"/><path d="M772.743 653.703a6.4 6.4 0 1 0 12.8 0 6.4 6.4 0 1 0-12.8 0z" fill="#272727"/><path d="M896.24 692.571c-45.44 16.743-90.834 29.166-92.743 24.572s38.972-27.92 82.949-48.217c16.685-6.857 20.8-2.366 23.485 4.125s2.995 12.572-13.691 19.52z" fill="#81B532"/><path d="M824.697 705.657a6.4 6.4 0 1 0 12.8 0 6.4 6.4 0 1 0-12.8 0z" fill="#272727"/><path d="M886.446 815.92c-43.977-20.297-84.857-43.611-82.949-48.217s47.303 7.828 92.743 24.571c16.686 6.857 16.377 13.029 13.714 19.52s-6.823 11.063-23.508 4.126z" fill="#81B532"/><path d="M824.697 779.143a6.4 6.4 0 1 0 12.8 0 6.4 6.4 0 1 0-12.8 0z" fill="#272727"/><path d="M792.274 896.24c-16.743-45.44-29.165-90.834-24.571-92.743s27.92 38.972 48.217 82.949c6.914 16.685 2.366 20.8-4.126 23.485s-12.617 2.995-19.52-13.691z" fill="#81B532"/><path d="M772.743 831.097a6.4 6.4 0 1 0 12.8 0 6.4 6.4 0 1 0-12.8 0z" fill="#272727"/><path d="M668.88 886.446c20.297-43.977 43.611-84.857 48.217-82.949s-7.828 47.303-24.571 92.743c-6.857 16.686-13.029 16.377-19.52 13.714s-11.04-6.823-4.126-23.508z" fill="#81B532"/><path d="M699.257 831.097a6.4 6.4 0 1 0 12.8 0 6.4 6.4 0 1 0-12.8 0z" fill="#272727"/><path d="M588.571 792.274c45.44-16.743 90.835-29.165 92.743-24.571s-38.971 27.92-82.948 48.217c-16.652 6.937-20.812 2.366-23.509-4.126s-2.983-12.617 13.714-19.52z" fill="#81B532"/><path d="M647.303 779.143a6.4 6.4 0 1 0 12.8 0 6.4 6.4 0 1 0-12.8 0z" fill="#272727"/><path d="M598.354 668.88c43.932 20.263 84.857 43.611 82.949 48.217S634 709.27 588.57 692.571c-16.685-6.857-16.377-13.028-13.714-19.52s6.857-11.085 23.497-4.171z" fill="#81B532"/><path d="M647.303 705.657a6.4 6.4 0 1 0 12.8 0 6.4 6.4 0 1 0-12.8 0z" fill="#272727"/><path d="M692.571 588.571c16.743 45.44 29.166 90.835 24.572 92.743s-28-39.028-48.263-82.96c-6.857-16.685-2.366-20.8 4.126-23.485s12.617-2.995 19.565 13.702z" fill="#81B532"/><path d="M699.257 653.703a6.4 6.4 0 1 0 12.8 0 6.4 6.4 0 1 0-12.8 0z" fill="#272727"/><path d="M842.606 615.463c-28.48 39.166-59.326 74.72-63.463 72s16.891-44.869 42.183-86.183c10.034-15.006 16-13.509 21.817-9.611s9.497 8.777-.537 23.794z" fill="#81B532"/><path d="M789.337 662.583a6.4 6.4 0 1 0 12.8 0 6.4 6.4 0 1 0-12.8 0z" fill="#272727"/><path d="M903.017 723.497c-47.84 7.554-94.788 10.88-95.76 6s43.68-19.771 90.766-31.108c17.714-3.52 20.857 1.748 22.228 8.64s.48 12.971-17.234 16.468z" fill="#81B532"/><path d="M830.16 723.669a6.4 6.4 0 1 0 12.8 0 6.4 6.4 0 1 0-12.8 0z" fill="#272727"/><path d="M869.337 842.606c-39.166-28.48-74.72-59.326-72-63.463s44.869 16.891 86.183 42.183c15.006 10.034 13.509 16 9.611 21.817s-8.777 9.497-23.794-.537z" fill="#81B532"/><path d="M815.817 795.737a6.4 6.4 0 1 0 12.8 0 6.4 6.4 0 1 0-12.8 0z" fill="#272727"/><path d="M761.303 903.017c-7.554-47.84-10.88-94.788-6-95.76s19.771 43.68 31.108 90.766c3.52 17.714-1.748 20.857-8.64 22.228s-12.948.48-16.468-17.234z" fill="#81B532"/><path d="M754.731 836.56a6.4 6.4 0 1 0 12.8 0 6.4 6.4 0 1 0-12.8 0z" fill="#272727"/><path d="M642.194 869.337c28.48-39.166 59.326-74.72 63.463-72s-16.891 44.949-42.183 86.229c-10.034 15.005-16 13.508-21.817 9.611s-9.497-8.823.537-23.84z" fill="#81B532"/><path d="M682.663 822.217a6.4 6.4 0 1 0 12.8 0 6.4 6.4 0 1 0-12.8 0z" fill="#272727"/><path d="M581.783 761.303c47.84-7.554 94.788-10.88 95.76-6s-43.68 19.771-90.766 31.108c-17.714 3.52-20.857-1.748-22.228-8.64s-.48-12.948 17.234-16.468z" fill="#81B532"/><path d="M641.84 761.131a6.4 6.4 0 1 0 12.8 0 6.4 6.4 0 1 0-12.8 0z" fill="#272727"/><path d="M615.463 642.194c39.166 28.48 74.72 59.326 72 63.463s-44.869-16.891-86.183-42.183c-15.006-10.034-13.509-16-9.611-21.817s8.777-9.497 23.794.537z" fill="#81B532"/><path d="M656.183 689.063a6.4 6.4 0 1 0 12.8 0 6.4 6.4 0 1 0-12.8 0z" fill="#272727"/><path d="M723.497 581.783c7.554 47.84 10.88 94.788 6 95.76s-19.771-43.68-31.108-90.766c-3.52-17.714 1.748-20.857 8.64-22.228s12.971-.48 16.468 17.234z" fill="#81B532"/><path d="M717.269 648.24a6.4 6.4 0 1 0 12.8 0 6.4 6.4 0 1 0-12.8 0z" fill="#272727"/><path d="M384 550.4a64.069 64.069 0 0 1-64-64 12.8 12.8 0 1 1 25.6 0 38.4 38.4 0 0 0 76.8 0 12.8 12.8 0 1 1 25.6 0 64.069 64.069 0 0 1-64 64zM217.6 384a38.4 38.4 0 1 0 76.8 0 38.4 38.4 0 1 0-76.8 0zm256 0a38.4 38.4 0 1 0 76.8 0 38.4 38.4 0 1 0-76.8 0z" fill="#25467A"/><path d="M204.8 448h-51.2a25.6 25.6 0 1 0 0 51.2h51.2a25.6 25.6 0 1 0 0-51.2zm409.6 0h-51.2a25.6 25.6 0 1 0 0 51.2h51.2a25.6 25.6 0 0 0 0-51.2z" fill="#FFB000"/></svg>