<svg class="icon" viewBox="0 0 1024 1024" xmlns="http://www.w3.org/2000/svg" width="200" height="200"><defs><style>@font-face{font-family:feedback-iconfont;src:url(//at.alicdn.com/t/font_1031158_u69w8yhxdu.woff2?t=1630033759944) format(&quot;woff2&quot;),url(//at.alicdn.com/t/font_1031158_u69w8yhxdu.woff?t=1630033759944) format(&quot;woff&quot;),url(//at.alicdn.com/t/font_1031158_u69w8yhxdu.ttf?t=1630033759944) format(&quot;truetype&quot;)}</style></defs><path d="M426.971 1024c-121.6 0-225.257-34.4-299.657-99.429-40.914-35.771-72.571-80.457-93.943-132.8C11.2 737.714 0 675.314 0 606.4 0 538.629 10.971 465.943 31.771 396c20.458-68.914 50.515-135.314 86.858-192.114C157.714 142.97 202.514 94.4 252 59.429 307.771 20 366.629 0 426.971 0s119.2 20 174.972 59.429C651.314 94.4 696.114 142.97 735.2 203.886c36.343 56.8 66.4 123.2 86.857 192.114 20.8 69.943 31.772 142.743 31.772 210.4 0 68.914-11.2 131.314-33.372 185.371-21.371 52.229-53.028 96.915-93.943 132.8C652.23 989.6 548.571 1024 426.971 1024z" fill="#25467A"/><path d="M707.886 1024c-92.457 0-170.057-27.2-224.457-78.629C454.514 917.943 432 883.657 416.8 843.314c-16.571-43.657-24.914-94.743-24.914-151.885 0-117.829 35.657-248.229 95.314-348.915 29.829-50.285 64.914-91.543 101.486-119.543 38.743-29.6 78.857-44.685 119.2-44.685s80.457 14.971 119.2 44.685c36.685 28 71.771 69.372 101.485 119.543C988.343 443.2 1024 573.6 1024 691.43c0 57.257-8.343 108.342-24.914 151.885-15.315 40.343-37.715 74.629-66.629 102.057C878.057 996.8 800.343 1024 707.886 1024z" fill="#25467A"/><path d="M707.886 959.429c-77.829 0-141.829-21.715-185.143-62.629C500.8 876.114 483.77 849.829 472 818.857c-13.6-35.771-20.457-78.628-20.457-127.428 0-105.943 32.114-223.315 85.828-314.058 25.6-43.314 55.315-78.514 85.715-101.714 28.457-21.714 57.028-32.8 84.685-32.8s56.229 11.086 84.686 32.8c30.4 23.2 60.114 58.4 85.714 101.714C931.886 468.114 964 585.486 964 691.43c0 48.8-6.857 91.657-20.457 127.428C931.77 849.83 914.743 876 892.8 896.8c-43.086 41.029-107.086 62.629-184.914 62.629z" fill="#527801"/><path d="M426.971 1000c-115.771 0-213.828-32.343-283.771-93.486-38.171-33.371-67.543-75.085-87.543-123.885C34.63 731.543 24 672.229 24 606.4c0-65.486 10.629-135.886 30.857-203.543 19.886-66.743 48.914-131.086 84.114-185.943 37.372-58.285 80-104.571 126.858-137.714C317.486 42.629 371.77 24.114 426.97 24.114S536.457 42.63 588.114 79.2c46.857 33.143 89.486 79.429 126.857 137.714 35.2 54.857 64.229 119.2 84.115 185.943C819.2 470.63 829.943 541.03 829.943 606.4c0 65.829-10.629 125.143-31.543 176.229-20 48.8-49.486 90.4-87.543 123.771-70.057 61.257-168.114 93.6-283.886 93.6z" fill="#25467A"/><path d="M806.971 606.4c0 259.886-170.171 370.743-380 370.743S46.857 866.286 46.857 606.4 217.03 46.857 426.971 46.857s380 299.657 380 559.543z" fill="#527801"/><path d="M426.971 965.714c-107.2 0-197.142-29.143-260.228-84.343C133.143 852 107.2 815.2 89.486 771.886c-19.2-46.743-28.915-101.6-28.915-162.972 0-126.4 41.258-266.285 110.515-374.4 34.514-53.943 75.2-98.285 117.714-128.343 44.914-31.771 91.429-47.885 138.171-47.885S520.23 74.4 565.143 106.17c42.514 30.058 83.2 74.4 117.714 128.343 69.143 108 110.514 248 110.514 374.4 0 61.372-9.714 116.229-28.914 162.972C746.743 815.2 720.686 852 687.2 881.37c-63.086 55.2-153.029 84.343-260.229 84.343z" fill="#ACCB42"/><path d="M426.971 907.657c-93.485 0-172-25.486-226.971-73.6-29.257-25.6-52-57.714-67.429-95.428-16.685-40.8-25.142-88.686-25.142-142.172 0-110.171 36-232.228 96.342-326.514 30.058-46.972 65.6-85.714 102.629-111.886 39.2-27.771 79.771-41.714 120.571-41.714s81.372 14.057 120.572 41.714c37.028 26.172 72.571 64.914 102.628 111.886 60.343 94.171 96.343 216.228 96.343 326.514 0 53.486-8.457 101.372-25.143 142.172-15.428 37.714-38.171 69.828-67.428 95.428-54.972 48.229-133.486 73.6-226.972 73.6z" fill="#FCFA95"/><path d="M193.943 610.4c0-136.914 104.343-262.743 233.028-262.743S660 473.486 660 610.4 555.657 843.543 426.971 843.543 193.943 747.314 193.943 610.4z" fill="#F28F00"/><path d="M660 610.4c0 136.914-104.343 233.143-233.029 233.143-100.8 0-186.742-59.086-219.2-150.514 46.286 42.628 113.372 67.771 188.115 67.771 139.543 0 252.685-87.886 252.685-212.914 0-6.172-.228-12.343-.8-18.515C655.657 555.2 660 582.63 660 610.4z" fill="#D98F18"/><path d="M427.543 724.343c-35.314 0-64-28.686-64-64 0-7.086 5.714-12.8 12.8-12.8s12.8 5.714 12.8 12.8c0 21.257 17.257 38.4 38.4 38.4s38.4-17.143 38.4-38.4c0-7.086 5.714-12.8 12.8-12.8s12.8 5.714 12.8 12.8c0 35.428-28.686 64-64 64zm-166.4-166.4a38.4 38.4 0 1 0 76.8 0 38.4 38.4 0 1 0-76.8 0zm256 0a38.4 38.4 0 1 0 76.8 0 38.4 38.4 0 1 0-76.8 0z" fill="#25467A"/><path d="M248.343 621.943h-51.2c-14.172 0-25.6 11.428-25.6 25.6 0 14.171 11.428 25.6 25.6 25.6h51.2c14.171 0 25.6-11.429 25.6-25.6 0-14.057-11.429-25.486-25.6-25.6zm409.6 0h-51.2c-14.172 0-25.6 11.428-25.6 25.6 0 14.171 11.428 25.6 25.6 25.6h51.2c14.171 0 25.6-11.429 25.6-25.6 0-14.057-11.429-25.486-25.6-25.6z" fill="#D1EB7D"/></svg>