<svg class="icon" viewBox="0 0 1024 1024" xmlns="http://www.w3.org/2000/svg" width="200" height="200"><defs><style>@font-face{font-family:feedback-iconfont;src:url(//at.alicdn.com/t/font_1031158_u69w8yhxdu.woff2?t=1630033759944) format(&quot;woff2&quot;),url(//at.alicdn.com/t/font_1031158_u69w8yhxdu.woff?t=1630033759944) format(&quot;woff&quot;),url(//at.alicdn.com/t/font_1031158_u69w8yhxdu.ttf?t=1630033759944) format(&quot;truetype&quot;)}</style></defs><path d="M511.784 1023.989c-48.22 0-93.96-11.355-138.843-34.603a76.927 76.927 0 0 1-108.901-29.7 77.27 77.27 0 0 1-21.397 3.003 76.938 76.938 0 0 1-72.425-51.314 77.12 77.12 0 0 1-4.307.114 76.241 76.241 0 0 1-54.285-22.493 77.212 77.212 0 0 1-13.777-18.666 76.88 76.88 0 0 1-72.254-76.641V742.51a76.15 76.15 0 0 1 19.557-51.19C19.757 657.509.006 613.55.006 550.595c.08-5.78 1.382-50.87 22.756-98.928 10.018-22.516 28.136-44.895 54.01-66.726v-42.267A152.79 152.79 0 0 1 12.8 217.939c0-84.66 68.873-153.534 153.533-153.534h51.178v102.356h2.388a138.843 138.843 0 0 1-2.388-25.59 140.739 140.739 0 1 1 264.8 66.03 209.943 209.943 0 0 1 58.945 0 140.682 140.682 0 1 1 262.424-40.44h2.376V64.405h51.178c84.66 0 153.544 68.873 153.544 153.534a152.814 152.814 0 0 1-63.972 124.734v42.267c25.863 21.83 43.98 44.198 54 66.737 21.384 48.048 22.675 93.137 22.755 98.129 0 63.515-19.751 107.645-45.146 141.504a76.15 76.15 0 0 1 19.569 51.2v51.179a76.88 76.88 0 0 1-72.232 76.64 77.075 77.075 0 0 1-68.062 41.126c-1.439 0-2.878 0-4.295-.115a76.972 76.972 0 0 1-93.856 48.288 76.88 76.88 0 0 1-108.913 29.701c-44.883 23.305-90.623 34.66-138.842 34.66z" fill="#25467A"/><path d="M179.128 409.855V281.911a25.589 25.589 0 0 0-51.178 0v127.944a25.589 25.589 0 0 0 51.178 0zm204.711-63.972V217.939a25.589 25.589 0 1 0-51.178 0v127.944a25.589 25.589 0 1 0 51.178 0zm307.067 0V217.939a25.589 25.589 0 1 0-51.178 0v127.944a25.589 25.589 0 1 0 51.178 0zm204.71 63.972V281.911a25.589 25.589 0 0 0-51.177 0v127.944a25.589 25.589 0 1 0 51.178 0z" fill="#FAAD96"/><path d="m939.3 724.416-36.178-36.19-36.19 36.19 28.685 28.696v40.577a25.6 25.6 0 0 0 51.189 0V742.51a25.509 25.509 0 0 0-7.505-18.095zM709.413 906.188l-90.475-90.463a25.582 25.582 0 0 0-36.179 36.178l90.464 90.475a25.59 25.59 0 1 0 36.19-36.19zm89.607-38.383-90.475-90.464a25.582 25.582 0 1 0-36.179 36.179l90.464 90.52a25.59 25.59 0 0 0 36.19-36.19zm76.766-51.178-90.463-90.463a25.603 25.603 0 1 0-36.19 36.224l90.51 90.43a25.59 25.59 0 0 0 36.19-36.19zm-791.52-92.211 36.19-36.19 36.19 36.19-28.696 28.696v40.577a25.589 25.589 0 0 1-51.178 0V742.51a25.555 25.555 0 0 1 7.494-18.095zm229.889 181.772 90.475-90.463a25.589 25.589 0 0 1 36.19 36.178l-90.475 90.475a25.59 25.59 0 1 1-36.19-36.19zm-89.607-38.383 90.475-90.464a25.589 25.589 0 1 1 36.19 36.179l-90.475 90.52a25.59 25.59 0 1 1-36.19-36.19zm-76.766-51.178 90.475-90.463a25.603 25.603 0 0 1 36.19 36.224l-90.521 90.43a25.59 25.59 0 0 1-36.19-36.19z" fill="#E65800"/><path d="M639.728 307.5c-83.472-33.392-76.767-51.178-127.944-51.178s-44.461 17.786-127.945 51.178C212.485 343.3 94.64 416.024 69.52 472.468a222.977 222.977 0 0 0-18.278 78.126c0 115.938 81.233 149.935 151.934 222.235 84.409 86.305 170.2 199.982 308.609 199.982s224.2-113.677 308.643-199.982c70.723-72.3 151.934-106.24 151.934-222.235a223.149 223.149 0 0 0-18.347-78.126C928.928 416.001 811.082 343.301 639.728 307.5z" fill="#FE6100"/><path d="M972.395 550.594c0 115.916-81.245 149.946-152.003 222.246-84.443 86.226-170.166 199.97-308.608 199.97S287.629 859.067 203.186 772.84C154.18 722.805 100.054 691.082 71.53 637.722c94.816 103.772 231.191 168.761 382.69 168.761 227.49 0 420.687-146.496 490.417-350.316a99.168 99.168 0 0 1 9.47 16.255 224.828 224.828 0 0 1 18.289 78.172z" fill="#F25D00"/><path d="M511.784 550.594a64.052 64.052 0 0 1-63.973-63.972 12.794 12.794 0 1 1 25.59 0 38.383 38.383 0 0 0 76.766 0 12.794 12.794 0 1 1 25.589 0 64.04 64.04 0 0 1-63.972 63.972z" fill="#25467A"/><path d="M332.661 448.239h-51.178a25.589 25.589 0 1 0 0 51.177h51.178a25.589 25.589 0 1 0 0-51.177zm409.423 0h-51.178a25.589 25.589 0 1 0 0 51.177h51.178a25.589 25.589 0 0 0 0-51.177z" fill="#E62325"/><path d="M268.69 141.172a89.561 89.561 0 1 0 179.121 0 89.561 89.561 0 1 0-179.122 0z" fill="#FFF"/><path d="M319.867 141.172a38.383 38.383 0 1 0 76.766 0 38.383 38.383 0 1 0-76.766 0z" fill="#25467A"/><path d="M268.69 217.939a102.356 102.356 0 1 1-102.357-102.356v102.356z" fill="#FE6100"/><path d="M575.756 141.172a89.561 89.561 0 1 0 179.122 0 89.561 89.561 0 1 0-179.122 0z" fill="#FFF"/><path d="M626.934 141.172a38.383 38.383 0 1 0 76.766 0 38.383 38.383 0 1 0-76.766 0z" fill="#25467A"/><path d="M754.878 217.939a102.367 102.367 0 1 0 102.356-102.356v102.356z" fill="#FE6100"/></svg>