<svg class="icon" viewBox="0 0 1024 1024" xmlns="http://www.w3.org/2000/svg" width="200" height="200"><defs><style>@font-face{font-family:feedback-iconfont;src:url(//at.alicdn.com/t/font_1031158_u69w8yhxdu.woff2?t=1630033759944) format(&quot;woff2&quot;),url(//at.alicdn.com/t/font_1031158_u69w8yhxdu.woff?t=1630033759944) format(&quot;woff&quot;),url(//at.alicdn.com/t/font_1031158_u69w8yhxdu.ttf?t=1630033759944) format(&quot;truetype&quot;)}</style></defs><path d="M512 1024c-43.04 0-80-1.52-119.394-18.766a555.714 555.714 0 0 1-78.72 6.195c-77.223 0-135.475-21.349-173.166-63.429-47.211-52.72-50.057-109.463-53.657-181.28-2.114-42.286-4.754-94.777-16.126-163.326-10.823-65.143-26.286-120.697-39.886-169.657C1.92 328.994-21.086 246.31 31.12 165.886c17.223-26.526 36.983-40.629 54.434-53.075 57.143-40.845 129.029-61.554 213.475-61.554 36.571 0 75.428 3.932 115.805 11.68a811.234 811.234 0 0 1 194.286 0c40.343-7.748 79.257-11.68 115.806-11.68 84.445 0 156.274 20.709 213.485 61.554 17.44 12.446 37.2 26.549 54.423 53.075 52.206 80.377 29.2 163.108.069 267.851-13.623 48.96-29.063 104.469-39.886 169.657-11.371 68.572-14.011 121.143-16.126 163.326-3.6 71.817-6.445 128.56-53.714 181.28-37.714 42.08-96 63.429-173.154 63.429a557.417 557.417 0 0 1-78.72-6.149C592 1022.48 555.04 1024 512 1024z" fill="#25467A"/><path d="M512 0a38.4 38.4 0 0 0-38.4 38.4V192h76.8V38.4A38.4 38.4 0 0 0 512 0z" fill="#25467A"/><path d="M902.709 594.96c33.291-200.377 107.36-308.949 47.405-401.234-11.691-17.989-24.857-27.577-41.257-39.28C773.28 57.69 570.731 121.61 512 142.206c-58.731-20.572-261.28-84.515-396.857 12.24-16.4 11.703-29.566 21.291-41.257 39.28C13.93 286.01 88 394.583 121.29 594.96c30.698 184.937.183 254.857 57.452 318.857C216.4 955.863 301.029 987.04 512 926.251c210.937 60.789 295.6 29.612 333.257-12.434C902.526 849.874 872 779.897 902.71 594.96z" fill="#00884B"/><path d="M919.166 513.36c-6.012 25.474-11.646 52.48-16.515 81.543-30.582 184.96-.125 254.971-57.337 318.857-30.205 33.794-90.628 60.411-221.954 38.526-32.503-5.509-69.371-14-111.36-25.989-41.989 12.023-78.857 20.48-111.36 25.977-131.326 21.886-191.749-4.731-221.954-38.525-41.852-46.72-36.857-96.606-43.006-192.252a575.771 575.771 0 0 0 182.034 66.812 587.36 587.36 0 0 0 104.709 9.474 572.686 572.686 0 0 0 287.486-76.8A578.983 578.983 0 0 0 919.166 513.36z" fill="#007D45"/><path d="M712.754 602.217c5.966-269.131 92.16-378.857 25.143-444.137-27.371-26.651-112.994-49.817-225.897-49.817s-198.526 23.166-225.851 49.817c-67.063 65.28 19.131 175.006 25.142 444.137C315.43 792 313.623 892 373.966 935.314 420.286 968.56 449.28 972.8 512 972.8s91.714-4.24 138.034-37.486C710.377 892 708.571 792 712.754 602.217z" fill="#00AA5E"/><path d="M709.886 720.983c-3.84 114.686-13.566 181.12-59.897 214.4a258.057 258.057 0 0 1-26.629 16.891c-32.891 17.795-61.44 20.48-111.36 20.48s-78.469-2.685-111.36-20.48a258.057 258.057 0 0 1-26.629-16.891c-36.342-26.114-50.171-72.709-56.32-147.074a587.36 587.36 0 0 0 104.709 9.474 572.686 572.686 0 0 0 287.486-76.8z" fill="#009E57"/><path d="M512 550.4a64.069 64.069 0 0 1-64-64 12.8 12.8 0 1 1 25.6 0 38.4 38.4 0 0 0 76.8 0 12.8 12.8 0 1 1 25.6 0 64.069 64.069 0 0 1-64 64zM345.6 384a38.4 38.4 0 1 0 76.8 0 38.4 38.4 0 1 0-76.8 0zm256 0a38.4 38.4 0 1 0 76.8 0 38.4 38.4 0 1 0-76.8 0z" fill="#25467A"/><path d="M332.8 448h-51.2a25.6 25.6 0 1 0 0 51.2h51.2a25.6 25.6 0 1 0 0-51.2zm409.6 0h-51.2a25.6 25.6 0 1 0 0 51.2h51.2a25.6 25.6 0 0 0 0-51.2z" fill="#57D785"/></svg>