<svg class="icon" viewBox="0 0 1024 1024" xmlns="http://www.w3.org/2000/svg" width="200" height="200"><defs><style>@font-face{font-family:feedback-iconfont;src:url(//at.alicdn.com/t/font_1031158_u69w8yhxdu.woff2?t=1630033759944) format(&quot;woff2&quot;),url(//at.alicdn.com/t/font_1031158_u69w8yhxdu.woff?t=1630033759944) format(&quot;woff&quot;),url(//at.alicdn.com/t/font_1031158_u69w8yhxdu.ttf?t=1630033759944) format(&quot;truetype&quot;)}</style></defs><path d="M727.086 275.314c-33.372 0-64.686-12.685-87.772-34.171a127.129 127.129 0 0 1-16.114 1.028c-20.8 0-41.029-4.914-58.971-14.057C548.114 235.2 530.4 238.857 512 238.857s-36-3.657-52.229-10.743c-17.942 9.143-38.171 14.057-58.971 14.057a127.07 127.07 0 0 1-16.114-1.028c-23.086 21.486-54.515 34.171-87.772 34.171-69.143 0-125.485-53.6-125.485-119.428S227.77 36.457 296.914 36.457c5.372 0 10.743.343 16.115 1.029C336.114 16 367.543 3.314 400.8 3.314c18.4 0 36 3.657 52.229 10.743C470.97 4.914 491.2 0 512 0s41.029 4.914 58.971 14.057C587.086 6.971 604.8 3.314 623.2 3.314c33.371 0 64.686 12.686 87.771 34.172a127.129 127.129 0 0 1 16.115-1.029c69.143 0 125.485 53.6 125.485 119.429S796.23 275.314 727.086 275.314z" fill="#25467A"/><path d="M512 1024c-69.943 0-133.371-4.686-188.457-13.943-62.857-10.514-117.257-27.428-161.829-50.171C110.63 933.829 70.857 899.2 43.771 857.257 14.743 812.343 0 758.743 0 697.943 0 630.514 18.171 563.886 53.943 500 84 446.286 127.429 393.029 183.2 341.6c-28.114-48.229-37.029-125.6-5.486-175.657 9.029-14.4 22.286-26.514 38.172-35.086 21.485-11.543 44.114-17.371 67.2-17.371 22.057 0 43.2 5.485 61.828 15.543 14.972-5.943 31.2-9.029 47.886-9.029 20 0 39.314 4.457 56.571 12.8 18.858-10.286 40.343-16 62.629-16 22.171 0 43.771 5.714 62.629 16C591.886 124.457 611.2 120 631.2 120c16.686 0 32.914 3.086 47.886 9.029 18.628-10.058 39.885-15.543 61.828-15.543 23.2 0 45.829 5.828 67.2 17.371 15.886 8.572 29.029 20.686 38.172 35.086C877.829 216 869.029 293.37 840.8 341.6 896.571 393.143 940 446.4 970.057 500 1005.83 563.886 1024 630.514 1024 697.943c0 60.8-14.743 114.4-43.771 159.314C953.143 899.2 913.37 933.83 862.17 959.886c-44.571 22.743-98.971 39.657-161.828 50.171C645.37 1019.314 581.943 1024 512 1024z" fill="#25467A"/><path d="M727.086 84.457c-12.915 0-25.029 3.086-35.657 8.572-11.886-24.686-37.943-41.715-68.229-41.715-21.257 0-40.343 8.343-54.057 21.829C555.429 57.714 534.857 48 512 48s-43.429 9.714-57.143 25.143c-13.6-13.486-32.8-21.829-54.057-21.829-30.286 0-56.457 17.143-68.229 41.715-10.628-5.486-22.742-8.572-35.657-8.572-41.485 0-75.085 32-75.085 71.429s33.6 71.428 75.085 71.428c30.286 0 56.457-17.143 68.229-41.714 10.628 5.486 22.743 8.571 35.657 8.571 22.857 0 43.429-9.714 57.143-25.142 13.6 13.485 32.8 21.828 54.057 21.828 21.257 0 40.343-8.343 54.057-21.828 13.714 15.428 34.286 25.142 57.143 25.142 12.914 0 25.029-3.085 35.657-8.571 11.886 24.686 37.943 41.714 68.229 41.714 41.485 0 75.085-32 75.085-71.428s-33.6-71.429-75.085-71.429z" fill="#FFF3E0"/><path d="M359.886 122.743a45.143 30.857 90 1 0 61.714 0 45.143 30.857 90 1 0-61.714 0zm97.028 0a45.143 30.857 90 1 0 61.715 0 45.143 30.857 90 1 0-61.715 0zm96.915 0a45.143 30.857 90 1 0 61.714 0 45.143 30.857 90 1 0-61.714 0zm97.028 0a45.143 30.857 90 1 0 61.714 0 45.143 30.857 90 1 0-61.714 0z" fill="#FF8A65"/><path d="M408.457 122.743a45.143 30.857 90 1 0 61.714 0 45.143 30.857 90 1 0-61.714 0zm-97.028 0a45.143 30.857 90 1 0 61.714 0 45.143 30.857 90 1 0-61.714 0zm193.942 0a45.143 30.857 90 1 0 61.715 0 45.143 30.857 90 1 0-61.715 0zm97.029 0a45.143 30.857 90 1 0 61.714 0 45.143 30.857 90 1 0-61.714 0z" fill="#F4511E"/><path d="M378.4 150.057a46.971 30.857 90 1 0 61.714 0 46.971 30.857 90 1 0-61.714 0zm-97.029 0a46.971 30.857 90 1 0 61.715 0 46.971 30.857 90 1 0-61.715 0zm193.943 0a46.971 30.857 90 1 0 61.715 0 46.971 30.857 90 1 0-61.715 0zm97.029 0a46.971 30.857 90 1 0 61.714 0 46.971 30.857 90 1 0-61.714 0zm97.028 0a46.971 30.857 90 1 0 61.715 0 46.971 30.857 90 1 0-61.715 0z" fill="#FF7043"/><path d="M426.857 150.057a46.971 30.857 90 1 0 61.714 0 46.971 30.857 90 1 0-61.714 0zm-96.914 0a46.971 30.857 90 1 0 61.714 0 46.971 30.857 90 1 0-61.714 0zm193.943 0a46.971 30.857 90 1 0 61.714 0 46.971 30.857 90 1 0-61.714 0zm96.914 0a46.971 30.857 90 1 0 61.714 0 46.971 30.857 90 1 0-61.714 0z" fill="#FF8A65"/><path d="M512 997.829c-68.343 0-130.171-4.572-183.657-13.486-59.886-10.057-111.657-26.057-153.6-47.429C77.029 887.086 27.429 806.63 27.429 698.057c0-63.086 17.028-125.6 50.742-185.6 30.286-54.171 75.086-108 133.143-160.228 4.115-3.658 4.915-9.715 1.829-13.943-28.343-38.972-40.229-113.829-12-158.743 6.628-10.514 16.343-19.429 28.114-25.829 17.257-9.257 35.314-14.057 53.714-14.057 21.943 0 42.972 6.972 59.886 19.429 14.972-8.457 32.114-13.029 49.829-13.029 20.914 0 40.914 6.286 57.371 17.714 17.257-13.371 39.086-20.914 61.714-20.914 22.629 0 44.458 7.543 61.715 20.914 16.571-11.428 36.457-17.714 57.371-17.714 17.714 0 34.857 4.572 49.829 13.029 17.028-12.572 37.943-19.429 59.885-19.429 18.4 0 36.458 4.686 53.715 14.057 11.771 6.286 21.485 15.2 28.114 25.829 28.343 44.914 16.457 119.771-12 158.743-3.086 4.228-2.286 10.171 1.829 13.943C870.286 404.457 915.086 458.4 945.37 512.457c33.6 60.114 50.743 122.514 50.743 185.6 0 108.572-49.6 189.029-147.314 238.857-41.943 21.372-93.6 37.372-153.6 47.429-53.029 8.914-114.857 13.486-183.2 13.486z" fill="#25467A"/><path d="M796.914 367.886C784.686 356.8 782.4 338.857 792 325.714c24.457-33.6 33.714-99.2 11.086-135.085-4.8-7.543-11.657-13.715-19.772-18.058-39.085-21.028-78.743-10.285-100.457 14.972-13.486-12.229-31.657-19.657-51.657-19.657-23.543 0-44.571 10.285-58.286 26.4-13.6-17.943-35.771-29.715-60.914-29.715-25.029 0-47.2 11.658-60.914 29.715-13.715-16.115-34.743-26.4-58.286-26.4-20 0-38.286 7.543-51.657 19.657-21.714-25.257-61.372-36-100.457-14.972-8.115 4.343-14.972 10.4-19.772 18.058-22.628 35.885-13.257 101.485 11.086 135.085 9.6 13.257 7.314 31.2-4.914 42.172C119.429 464.686 50.4 573.6 50.4 697.943 50.4 913.029 257.029 976 512 976s461.6-63.086 461.6-278.057c0-124.343-69.143-233.257-176.686-330.057z" fill="#FFF3E0"/><path d="M973.6 697.943C973.6 913.029 766.971 976 512 976c-245.029 0-445.486-58.286-460.686-253.714 98.057 86.628 234.4 140.228 385.143 140.228 231.772 0 429.486-126.857 506.514-305.257 19.772 44.686 30.629 91.429 30.629 140.686z" fill="#F5E9D7"/><path d="M512 695.429c-35.314 0-64-28.686-64-64 0-7.086 5.714-12.8 12.8-12.8s12.8 5.714 12.8 12.8c0 21.257 17.257 38.4 38.4 38.4s38.4-17.143 38.4-38.4c0-7.086 5.714-12.8 12.8-12.8s12.8 5.714 12.8 12.8c0 35.314-28.686 63.885-64 64zm-166.4-166.4a38.4 38.4 0 1 0 76.8 0 38.4 38.4 0 1 0-76.8 0zm256 0a38.4 38.4 0 1 0 76.8 0 38.4 38.4 0 1 0-76.8 0z" fill="#25467A"/><path d="M332.8 593.029h-51.2c-14.171 0-25.6 11.428-25.6 25.6 0 14.171 11.429 25.6 25.6 25.6h51.2c14.171 0 25.6-11.429 25.6-25.6 0-14.172-11.429-25.6-25.6-25.6zm409.6 0h-51.2c-14.171 0-25.6 11.428-25.6 25.6 0 14.171 11.429 25.6 25.6 25.6h51.2c14.171 0 25.6-11.429 25.6-25.6 0-14.172-11.429-25.6-25.6-25.6z" fill="#FCCEC7"/></svg>