<svg class="icon" viewBox="0 0 1024 1024" xmlns="http://www.w3.org/2000/svg" width="200" height="200"><defs><style>@font-face{font-family:feedback-iconfont;src:url(//at.alicdn.com/t/font_1031158_u69w8yhxdu.woff2?t=1630033759944) format(&quot;woff2&quot;),url(//at.alicdn.com/t/font_1031158_u69w8yhxdu.woff?t=1630033759944) format(&quot;woff&quot;),url(//at.alicdn.com/t/font_1031158_u69w8yhxdu.ttf?t=1630033759944) format(&quot;truetype&quot;)}</style></defs><path d="M511.543 1024c-65.029 0-189.714-9.143-293.829-70.514C109.371 889.6 52.114 786.4 52.114 654.743c0-100.572 29.829-186.629 88.686-256 48.571-57.257 106.857-91.429 145.371-114.057 11.543-6.743 25.715-15.086 30.743-19.2 1.715-3.2 7.086-15.772 11.543-52.343 3.543-29.486 5.143-63.2 6.629-93.029 3.085-64 4.228-88 22.285-106.057L371.543 0H652.57l14.058 14.057c18.171 18.172 19.314 42.057 22.285 106.057 1.372 29.715 2.972 63.543 6.629 93.029 4.457 36.686 9.828 49.143 11.543 52.343 5.028 4.114 19.2 12.457 30.743 19.2 38.514 22.628 96.8 56.685 145.371 114.057 58.857 69.371 88.686 155.428 88.686 256 0 131.657-57.257 234.971-165.486 298.743C702.171 1014.857 577.486 1024 512.457 1024h-.914z" fill="#25467A"/><path d="M671.771 298.171C634.057 259.2 646.057 61.371 632.686 48H391.314c-13.371 13.371-1.485 211.2-39.085 250.171-37.715 38.972-252.115 98.515-252.115 356.572S341.371 976 511.543 976h.914c170.172 0 411.429-63.314 411.429-321.257S709.486 337.257 671.77 298.17z" fill="#FAF9F8"/><path d="M641.257 298.171C610.743 259.2 620.457 61.371 609.6 48H414.4c-10.857 13.371-1.143 211.2-31.657 250.171-30.514 38.972-204 98.515-204 356.572S373.943 976 511.657 976h.686c137.714 0 332.914-63.314 332.914-321.257s-173.486-317.486-204-356.572z" fill="#E7E0DE"/><path d="M631.2 298.171C603.086 259.2 612 61.371 601.943 48H422.057C412 61.371 421.03 259.2 392.914 298.171 364.8 337.143 204.8 396.686 204.8 654.743S384.686 976 511.657 976h.686C639.2 976 819.2 912.686 819.2 654.743s-159.886-317.486-188-356.572z" fill="#FAF9F8"/><path d="M583.886 298.171C566.97 259.2 572.343 61.371 566.286 48H457.714c-6.057 13.371-.685 211.2-17.6 250.171C423.2 337.143 326.63 396.686 326.63 654.743S435.2 976 511.77 976h.458c76.571 0 185.257-63.314 185.257-321.257s-96.572-317.486-113.6-356.572z" fill="#E7E0DE"/><path d="M573.829 298.171C559.2 259.2 563.886 61.371 558.743 48H465.37c-5.142 13.371-.571 211.2-15.085 250.171-14.629 38.972-97.486 98.515-97.486 356.572S445.943 976 511.771 976h.458c65.828 0 159.085-63.314 159.085-321.257S588.343 337.257 573.83 298.17z" fill="#FAF9F8"/><path d="M510.286 976h1.257-2.857 1.6zm3.771 0h1.372-2.858 1.486z" fill="#EFEBE9"/><path d="M510.286 976h1.257-1.486.229zm3.428 0h.229-1.486 1.257z" fill="#D7CCC8"/><path d="M510.286 976h1.257-1.486.229zm3.428 0h.229-1.486 1.257z" fill="#EFEBE9"/><path d="M512 758.971c-38.171 0-69.143-30.971-69.143-69.257-.228-7.657 5.829-14.057 13.372-14.285s14.057 5.828 14.285 13.371v.8c0 22.971 18.629 41.486 41.486 41.486 22.971 0 41.486-18.629 41.486-41.486-.229-7.657 5.828-14.057 13.371-14.286s14.057 5.829 14.286 13.372v.8c0 38.514-30.972 69.485-69.143 69.485zM332.114 579.086c0 22.971 18.515 41.485 41.486 41.485 22.971 0 41.486-18.514 41.486-41.485 0-22.972-18.629-41.486-41.486-41.486-22.971 0-41.486 18.629-41.486 41.486zm276.686 0c0 22.971 18.514 41.485 41.486 41.6 22.971 0 41.485-18.515 41.6-41.486v-.114c0-22.972-18.629-41.486-41.486-41.486s-41.6 18.629-41.6 41.486z" fill="#25467A"/><path d="M318.286 648.343H262.97c-15.314 0-27.657 12.343-27.657 27.657s12.343 27.657 27.657 27.657h55.315c15.314 0 27.657-12.343 27.657-27.657s-12.343-27.657-27.657-27.657zm442.743 0h-55.315c-15.314 0-27.657 12.457-27.657 27.657 0 15.314 12.343 27.657 27.657 27.657h55.315c15.314 0 27.657-12.343 27.657-27.657.114-15.314-12.343-27.657-27.657-27.657z" fill="#FFCDD2"/><path d="M661.829 281.943H362.17C387.77 221.257 379.313 60.114 391.313 48H632.57c12.115 12.114 3.658 173.257 29.258 233.943z" fill="#DCE775"/><path d="M633.6 281.943H390.4C411.2 221.257 404.343 60.114 414.057 48h195.886c9.828 12.114 2.971 173.257 23.657 233.943z" fill="#C0CA33"/><path d="M624.914 281.943H399.086C418.4 221.257 412 60.114 421.029 48h181.828C612 60.114 605.6 221.257 624.914 281.943z" fill="#DCE775"/><path d="M579.314 281.943H444.686C456.114 221.257 452.343 60.114 457.829 48H566.17c5.372 12.114 1.6 173.257 13.143 233.943z" fill="#C0CA33"/><path d="M569.829 281.943H454.17C464 221.257 460.8 60.114 465.486 48h93.143c4.571 12.114 1.371 173.257 11.2 233.943z" fill="#DCE775"/></svg>