<svg class="icon" viewBox="0 0 1024 1024" xmlns="http://www.w3.org/2000/svg" width="200" height="200"><defs><style>@font-face{font-family:feedback-iconfont;src:url(//at.alicdn.com/t/font_1031158_u69w8yhxdu.woff2?t=1630033759944) format(&quot;woff2&quot;),url(//at.alicdn.com/t/font_1031158_u69w8yhxdu.woff?t=1630033759944) format(&quot;woff&quot;),url(//at.alicdn.com/t/font_1031158_u69w8yhxdu.ttf?t=1630033759944) format(&quot;truetype&quot;)}</style></defs><path d="M284.343 1024c-47.543 0-93.486-5.714-129.486-16.229-51.428-14.971-82.514-39.428-92.571-72.8-10.172-33.942 2.971-69.485 38.971-105.714a276.996 276.996 0 0 1 13.143-12.343c-23.429-25.828-43.086-55.085-58.629-87.657-26.285-54.971-39.542-116.914-39.542-184 0-127.543 44.228-244.571 128-338.4C215.77 126.63 313.143 68.8 411.429 48.343c8.571-1.943 11.2-4.914 18.628-13.6C440.457 22.629 459.886 0 495.43 0c4.914 0 9.942.457 14.971 1.371C574.857 12.8 637.714 34.63 697.143 66.286c59.2 31.543 112.343 71.543 157.943 118.628 47.428 49.029 84.571 103.886 110.628 162.972 27.772 63.314 41.943 129.6 41.943 197.257 0 67.428-13.943 130.057-41.371 186.057-15.657 32-36 61.6-59.772 87.543a382.668 382.668 0 0 1 15.2 13.371c14.057 13.372 24.343 26.057 31.429 38.972 15.086 27.428 12.8 50.4 8.228 64.8-6.285 19.771-20.342 36.228-41.828 49.028-14.172 8.457-32.114 15.543-53.486 21.143-36.8 9.6-83.086 14.629-133.6 14.629-48.914 0-97.943-4.915-141.714-14.057-36.114-7.543-67.657-17.829-94.172-30.629-70.857 42.857-169.142 48-212.228 48z" fill="#25467A"/><path d="M806.514 811.429C686.4 741.943 506.057 728.686 459.2 796.8c-15.2 22.171-17.257 54.4-3.771 80.686C516.57 995.429 890.97 992 913.486 921.029c12.8-40.229-89.143-99.2-106.972-109.6z" fill="#95D13C"/><path d="M202.971 813.6c105.143-66.971 264.915-76.457 307.886-7.886 13.943 22.4 16.457 54.515 4.914 80.457-51.657 116.458-384.114 105.258-405.485 34.4-12.115-40.114 77.028-96.914 92.685-106.971z" fill="#B4E876"/><path d="M501.6 50.629c-33.714-5.943-29.943 35.771-79.771 46.628C255.086 132 66.286 294.514 66.286 545.371c0 264.343 231.771 397.029 445.6 311.429 204.457 91.657 445.6-47.2 445.6-311.429C957.37 294.514 740.343 92.914 501.6 50.63z" fill="#F8D0C3"/><path d="M957.486 545.371c0 264.229-241.143 403.086-445.6 311.429-171.543 68.686-354.629-3.2-420.343-170.743 88.914 76 204.343 121.829 330.4 121.829 253.6 0 463.886-185.486 502.628-428.115 21.143 51.543 32.915 107.2 32.915 165.6z" fill="#EDC7BA"/><path d="M511.771 536.8c-37.371 0-67.657-30.286-67.657-67.657a13.438 13.438 0 0 1 13.486-13.486 13.438 13.438 0 0 1 13.486 13.486c0 22.514 18.285 40.571 40.571 40.571 22.4 0 40.572-18.171 40.572-40.571a13.438 13.438 0 0 1 13.485-13.486 13.438 13.438 0 0 1 13.486 13.486c.229 37.371-30.057 67.657-67.429 67.657zM335.886 360.914a40.571 40.571 0 1 0 81.143 0 40.571 40.571 0 1 0-81.143 0zm270.743 0a40.571 40.571 0 1 0 81.142 0 40.571 40.571 0 1 0-81.142 0z" fill="#25467A"/><path d="M322.4 428.571h-54.171c-14.972 0-27.086 12.115-27.086 27.086s12.114 27.086 27.086 27.086H322.4c14.971 0 27.086-12.114 27.086-27.086s-12.115-27.086-27.086-27.086zm433.029 0h-54.172c-14.971 0-27.086 12.115-27.086 27.086s12.115 27.086 27.086 27.086h54.172c14.971 0 27.085-12.114 27.085-27.086s-12.114-27.086-27.085-27.086z" fill="#F87EAC"/></svg>