<svg class="icon" viewBox="0 0 1024 1024" xmlns="http://www.w3.org/2000/svg" width="200" height="200"><defs><style>@font-face{font-family:feedback-iconfont;src:url(//at.alicdn.com/t/font_1031158_u69w8yhxdu.woff2?t=1630033759944) format(&quot;woff2&quot;),url(//at.alicdn.com/t/font_1031158_u69w8yhxdu.woff?t=1630033759944) format(&quot;woff&quot;),url(//at.alicdn.com/t/font_1031158_u69w8yhxdu.ttf?t=1630033759944) format(&quot;truetype&quot;)}</style></defs><path d="M508.058 1024C290.492 1024 29.201 851.68 2.195 604.4-12.125 473.326 36.87 278.549 351.692 94.983 412.572 59.429 514.572 0 636.23 0a360.514 360.514 0 0 1 105.577 15.726c127.245 38.948 211.028 139.897 247.028 221.383 63.897 144.708 39.36 349.12-62.514 520.777C834.012 913.45 694.64 1009.897 544 1022.514a435.469 435.469 0 0 1-35.943 1.486z" fill="#25467A"/><path d="M52.984 598.857C25.144 344.606 308.332 179.52 377.452 139.223c73.532-42.88 204.103-119.006 349.406-74.537 102.777 31.451 179.886 113.143 215.223 193.143 108.183 244.914-81.246 686.857-402.411 713.691-214.023 17.886-462.4-150.537-486.686-372.663z" fill="#FFDFB3"/><path d="M972.572 427.52c-5.383 238.594-177.543 522.629-432.902 544-169.235 14.206-359.829-88.091-444.183-241.234A573.429 573.429 0 0 0 422.4 832c258.309 0 477.028-170.114 550.171-404.48z" fill="#F5D6AC"/><path d="M512 534.183a64.069 64.069 0 0 1-63.999-64 12.8 12.8 0 1 1 25.6 0 38.4 38.4 0 0 0 76.8 0 12.8 12.8 0 1 1 25.6 0 64.069 64.069 0 0 1-64 64zm-166.399-166.4a38.4 38.4 0 1 0 76.8 0 38.4 38.4 0 1 0-76.8 0zm255.999 0a38.4 38.4 0 1 0 76.8 0 38.4 38.4 0 1 0-76.8 0z" fill="#25467A"/><path d="M332.801 431.783h-51.2a25.6 25.6 0 1 0 0 51.2h51.2a25.6 25.6 0 1 0 0-51.2zm409.6 0h-51.2a25.6 25.6 0 1 0 0 51.2h51.2a25.6 25.6 0 0 0 0-51.2z" fill="#FAAD96"/><path d="M128.001 627.2a25.6 25.6 0 1 0 51.2 0 25.6 25.6 0 1 0-51.2 0zm204.8 256a25.6 25.6 0 1 0 51.2 0 25.6 25.6 0 1 0-51.2 0zM755.2 704a25.6 25.6 0 1 0 51.2 0 25.6 25.6 0 1 0-51.2 0zm0-76.8a25.6 25.6 0 1 0 51.2 0 25.6 25.6 0 1 0-51.2 0zm-550.399 38.4a25.6 25.6 0 1 0 51.2 0 25.6 25.6 0 1 0-51.2 0zm64 166.4a25.6 25.6 0 1 0 51.2 0 25.6 25.6 0 1 0-51.2 0zm-102.4-102.4a25.6 25.6 0 1 0 51.2 0 25.6 25.6 0 1 0-51.2 0zM832 652.8a25.6 25.6 0 1 0 51.2 0 25.6 25.6 0 1 0-51.2 0z" fill="#FFCA80"/></svg>