<svg class="icon" viewBox="0 0 1024 1024" xmlns="http://www.w3.org/2000/svg" width="200" height="200"><defs><style>@font-face{font-family:feedback-iconfont;src:url(//at.alicdn.com/t/font_1031158_u69w8yhxdu.woff2?t=1630033759944) format(&quot;woff2&quot;),url(//at.alicdn.com/t/font_1031158_u69w8yhxdu.woff?t=1630033759944) format(&quot;woff&quot;),url(//at.alicdn.com/t/font_1031158_u69w8yhxdu.ttf?t=1630033759944) format(&quot;truetype&quot;)}</style></defs><path d="M511.994 1024C215.324 1024 .001 824.825.001 550.406A495.891 495.891 0 0 1 51.68 329.15a115.279 115.279 0 0 1 69.061-186.534 114.879 114.879 0 0 1 115.313-51.428 115.233 115.233 0 0 1 96.742-52.777 111.576 111.576 0 0 1 16 1.143 114.49 114.49 0 0 1 103.427-22.788 114.581 114.581 0 0 1 135.598 12 113.141 113.141 0 0 1 26.571-3.155 114.284 114.284 0 0 1 73.6 26.754 111.576 111.576 0 0 1 15.999-1.143 115.427 115.427 0 0 1 111.153 84.88 114.936 114.936 0 0 1 149.712 65.964 114.901 114.901 0 0 1 23.051 161.461c23.977 58.937 36.08 121.622 36.08 186.878 0 274.42-215.323 473.594-511.994 473.594z" fill="#25467A"/><path d="M767.077 175.45a63.52 63.52 0 0 0-95.999-63.69 63.325 63.325 0 0 0-99.222-18.468 63.576 63.576 0 0 0-111.061-16.16A63.268 63.268 0 0 0 365.71 98.96a63.668 63.668 0 0 0-96.913 54.65 64.468 64.468 0 0 0 1.543 13.715C138.845 244.695 51.2 384.568 51.2 550.405c0 254.466 206.329 422.396 460.794 422.396S972.79 804.87 972.79 550.406c0-160.147-81.69-296.122-205.712-374.956z" fill="#A7F562"/><path d="M457.595 405.253c-1.143-2.022-2.423-3.92-3.566-5.931a63.256 63.256 0 0 0-34.285-87.69 63.142 63.142 0 0 0-61.348-81.222c-.434 0-.845.126-1.28.126a62.97 62.97 0 0 0-79.999-48.686 63.793 63.793 0 0 0-122.444 11.783 63.873 63.873 0 0 0-36.96 121.919C75.578 383.105 51.19 463.104 51.19 550.406c0 137.347 60.033 249.471 155.426 323.584 54.274 42.286 119.93 72 192.512 87.165 11.006 2.434 22.011 4.217 33.28 5.886a2.857 2.857 0 0 0 .377-.64 537.742 537.742 0 0 0 24.834-561.136z" fill="#CDFF9E"/><path d="M506.749 803.717a528.873 528.873 0 0 1-73.988 162.684 2.857 2.857 0 0 1-.377.64c-11.268-1.669-22.274-3.429-33.28-5.886-72.582-15.108-138.284-44.925-192.512-87.165C128 812.928 73.474 726.015 56.71 620.576c95.096 113.656 237.94 185.85 397.709 185.85a505.925 505.925 0 0 0 52.33-2.709z" fill="#C7F799"/><path d="M925.978 350.625a63.748 63.748 0 0 0-5.177-115.187 63.702 63.702 0 0 0-108.01-37.828 63.725 63.725 0 0 0-104.696 23.714 63.736 63.736 0 0 0-106.502 47.485c0 1.955.4 3.806.572 5.715a63.782 63.782 0 0 0-90.17 58.285c0 1.954.4 3.805.57 5.714a63.702 63.702 0 0 0-76.261 97.679 499.548 499.548 0 0 0-3.029 530.964 546.279 546.279 0 0 0 78.72 5.635c254.465 0 460.794-167.93 460.794-422.395 0-72.594-16.903-140.193-46.811-199.78z" fill="#EAFFD6"/><path d="M972.789 550.406c0 254.465-206.33 422.395-460.795 422.395a546.279 546.279 0 0 1-78.719-5.635 495.125 495.125 0 0 1-65.793-167.998 513.457 513.457 0 0 0 86.913 7.292c239.357 0 440.703-162.17 500.348-382.59a446.532 446.532 0 0 1 18.046 126.536z" fill="#E3F7D0"/><path d="M511.994 550.406a64.068 64.068 0 0 1-63.999-64 12.8 12.8 0 1 1 25.6 0 38.4 38.4 0 0 0 76.799 0 12.8 12.8 0 1 1 25.6 0 64.068 64.068 0 0 1-64 64zM345.596 384.008a38.4 38.4 0 1 0 76.8 0 38.4 38.4 0 1 0-76.8 0zm255.997 0a38.4 38.4 0 1 0 76.8 0 38.4 38.4 0 1 0-76.8 0z" fill="#25467A"/><path d="M332.797 448.007h-51.2a25.6 25.6 0 1 0 0 51.2h51.2a25.6 25.6 0 1 0 0-51.2zm409.595 0h-51.2a25.6 25.6 0 1 0 0 51.2h51.2a25.6 25.6 0 0 0 0-51.2z" fill="#FCCEC7"/></svg>