<svg class="icon" viewBox="0 0 1024 1024" xmlns="http://www.w3.org/2000/svg" width="200" height="200"><defs><style>@font-face{font-family:feedback-iconfont;src:url(//at.alicdn.com/t/font_1031158_u69w8yhxdu.woff2?t=1630033759944) format(&quot;woff2&quot;),url(//at.alicdn.com/t/font_1031158_u69w8yhxdu.woff?t=1630033759944) format(&quot;woff&quot;),url(//at.alicdn.com/t/font_1031158_u69w8yhxdu.ttf?t=1630033759944) format(&quot;truetype&quot;)}</style></defs><path d="M0 512a512 512 0 1 0 1024 0A512 512 0 1 0 0 512z" fill="#25467A"/><path d="M51.2 512a460.8 460.8 0 1 0 921.6 0 460.8 460.8 0 1 0-921.6 0z" fill="#57D785"/><path d="M972.8 512a458.286 458.286 0 0 1-155.52 345.143 453.303 453.303 0 0 1-122.286 77.828 415.646 415.646 0 0 1-47.611 17.532 452.137 452.137 0 0 1-107.52 19.428c-9.223.64-18.56.892-27.909.892a483 483 0 0 1-38.525-1.532 457.84 457.84 0 0 1-96.903-18.822 415.646 415.646 0 0 1-47.612-17.532A453.303 453.303 0 0 1 206.63 857.11 458.286 458.286 0 0 1 51.2 512c0-154.114 75.771-290.686 192-374.4l28.286-18.811a466.034 466.034 0 0 1 92.571-43.429c15.097-4.994 30.457-9.349 46.206-12.926a461.097 461.097 0 0 1 70.914-10.285c10.286-.64 20.48-1.029 30.857-1.029 12.572 0 25.143.514 37.372 1.531a445.84 445.84 0 0 1 64.308 9.818c15.749 3.577 31.109 7.931 46.206 12.925a466.034 466.034 0 0 1 92.571 43.429L780.8 137.6c116.229 83.714 192 220.286 192 374.4z" fill="#57D785"/><path d="m556.034 911.234-35.428 36.732 19.337 23.943c-9.223.64-18.56.891-27.909.891-12.925 0-25.851-.514-38.525-1.531l-7.04-8.709A25.577 25.577 0 0 1 468 928.766l35.429-36.732-36.869-45.314a25.566 25.566 0 0 1 1.28-33.794l35.589-37.246-36.743-44.8a25.28 25.28 0 0 1 1.143-33.794l35.588-37.715-36.743-44.285a25.566 25.566 0 0 1 1.029-33.795l35.714-38.137-36.571-43.783a25.714 25.714 0 0 1 .777-33.92l35.84-38.651-36.572-43.269a25.554 25.554 0 0 1 .778-33.794l35.76-39.337-36.48-42.754a25.566 25.566 0 0 1 .502-33.795l35.978-39.68-36.48-42.365a25.703 25.703 0 0 1 .377-33.795l36.103-40.182-22.286-25.6c10.286-.64 20.48-1.029 30.857-1.029 12.571 0 25.143.514 37.371 1.531l7.555 8.583a25.726 25.726 0 0 1-.252 33.92l-36.228 40.195 36.571 42.491a25.566 25.566 0 0 1-.503 33.794l-36.103 39.806 36.572 42.88a25.429 25.429 0 0 1-.64 33.92l-35.966 39.291 36.743 43.429a25.726 25.726 0 0 1-.777 33.92l-35.966 38.789 36.743 43.897a25.589 25.589 0 0 1-.903 33.92l-35.84 38.274 36.869 44.286a25.589 25.589 0 0 1-1.143 33.92l-35.714 37.714 36.868 44.937a25.451 25.451 0 0 1-1.143 33.92l-35.543 37.257 36.869 45.44a25.6 25.6 0 0 1-1.406 33.92zm-183.943-.125c9.738 15.737 14.343 31.485 10.503 35.428-2.285 2.286-4.228 4.229-6.023 5.886a415.646 415.646 0 0 1-47.611-17.532c-.389-.514-.891-1.142-1.28-1.794-10.286-15.108-14.331-27.268-9.989-29.44a80.366 80.366 0 0 0 16.778-11.006c-17.28-27.005-25.475-40-41.349-64.765-8.709-13.715-11.646-26.377-7.04-30.595a172.571 172.571 0 0 0 18.286-19.588c-14.469-24-21.383-35.577-34.823-57.474-7.417-12.16-8.96-25.143-3.966-31.36 8.32-10.286 12.412-15.863 20.869-28.023-12.16-20.972-17.875-30.96-29.166-49.52-6.4-10.492-6.651-23.68-.891-32 9.462-13.44 14.205-20.732 24.182-36.217-10.102-17.795-15.097-26.115-24.571-41.475-5.371-8.583-4.354-21.885 2.286-32.125 11.005-16.64 16.64-25.475 28.285-44.298C278.126 410.88 274 404.354 266 392.32c-4.571-6.789-2.434-19.966 5.371-31.874 12.915-19.875 19.578-30.16 33.395-52.092a234.594 234.594 0 0 0-17.795-24.068c-3.965-4.857-.377-17.795 8.709-31.486 15.109-22.789 22.857-34.686 39.291-59.429-6.262-7.165-9.337-10.285-15.737-15.234-3.714-2.811 1.143-15.486 11.772-30.583 17.794-25.6 27.005-38.788 46.205-66.183a40.286 40.286 0 0 0-13.177-5.942c15.097-4.995 30.457-9.349 46.206-12.926a17342.028 17342.028 0 0 1-41.349 61.44 122.034 122.034 0 0 1 14.08 18.046c3.2 4.857-2.045 21.12-11.897 36.571-16.388 25.851-24.32 38.274-39.554 62.206a310.24 310.24 0 0 1 16.514 27.143c3.84 6.857.252 23.542-8.194 37.371-13.829 22.914-20.354 33.92-33.28 54.914 7.726 13.177 11.646 20.377 19.714 35.966 4.572 8.96 2.686 25.726-4.354 37.714-11.52 19.84-17.143 29.315-27.909 47.109 9.223 16.64 13.955 25.6 23.818 44.663 5.622 10.754 5.371 27.52-.64 37.714-9.6 16.606-14.332 24.411-23.475 38.926 11.132 20.091 16.892 30.72 28.926 53.12 6.789 12.571 8.194 29.188 3.074 37.371-8.068 13.189-12.034 19.337-19.84 30.469 13.315 23.165 20.355 35.428 34.812 61.051 8.194 14.217 11.143 30.469 6.788 36.48-6.914 9.737-10.285 14.217-17.143 21.897 16.035 26.195 24.355 39.886 41.76 68.435zm-100.605-792.32v.251c-.892 4.48-10.286 20.731-21.12 36.731C232.32 182.4 223.874 195.326 208 220.286c0 9.6 0 15.108.251 27.52.138 7.165-6.137 24.583-14.205 39.303-13.315 24.32-19.429 35.965-31.097 58.365 2.045 14.08 3.2 21.715 6.011 38.526 1.669 9.6-1.531 27.52-7.291 40.709-9.223 21.371-13.44 31.611-21.509 50.811 4.869 18.171 7.554 27.909 13.566 48.64 3.325 11.646 3.2 29.829-.377 40.96-5.898 18.046-8.583 26.491-13.578 42.286 8.195 21.714 12.675 33.143 22.538 57.474 5.497 13.566 8.445 31.36 6.525 40.194-3.074 14.206-4.48 20.572-7.165 32.503 12.285 24.834 18.937 37.897 33.28 65.029 8 15.108 13.942 32.125 13.302 38.4a607.457 607.457 0 0 0-1.531 16.125 460.914 460.914 0 0 1-38.149-37.714 9.611 9.611 0 0 1-.251-4.091c1.794-6.915 2.686-10.88 4.48-19.966-14.331-25.474-20.869-37.714-33.143-61.063-6.914-12.926-10.114-26.754-8.057-33.531 3.326-10.88 4.983-16.903 8.823-30.08-10.137-22.755-14.709-33.372-23.177-53.543-4.732-11.429-5.715-25.726-2.286-34.686 5.497-14.72 8.32-22.526 14.72-39.428-6.537-19.326-9.349-28.286-14.72-44.926-3.074-9.474-1.543-23.806 3.429-34.812 8.32-18.182 12.8-27.782 22.274-47.874-3.429-15.486-4.994-22.526-7.806-35.2-1.668-7.291 2.172-21.371 9.212-34.171 11.771-21.12 18.045-32.137 31.36-55.177-1.143-11.258-1.669-16.126-2.686-24.698-.514-4.868 5.714-18.182 15.234-32.388 15.737-23.68 24.183-35.84 41.977-61.177.515-6.789.766-9.475 1.029-13.577.126-1.92 5.714-10.286 14.206-21.372zM766.72 611.326c-11.269 18.56-17.029 28.571-29.189 49.543 8.458 12.16 12.572 17.782 20.869 28.022 4.994 6.275 3.429 19.2-3.966 31.36-13.44 21.898-20.354 33.418-34.823 57.475a172.571 172.571 0 0 0 18.286 19.588c4.572 4.217 1.669 16.892-7.04 30.595-15.874 24.822-24.068 37.714-41.348 64.765a80.366 80.366 0 0 0 16.777 11.006c4.343 2.171.251 14.331-9.989 29.44-.388.64-.891 1.28-1.28 1.794a415.646 415.646 0 0 1-47.611 17.532c-1.795-1.657-3.715-3.577-6.023-5.886-3.84-3.966.766-19.714 10.503-35.429 17.405-28.571 25.725-42.285 41.725-68.48-6.857-7.68-10.285-12.16-17.142-21.897-4.355-6.011-1.406-22.263 6.788-36.48 14.457-25.6 21.497-37.885 34.812-61.051-7.806-11.132-11.772-17.28-19.84-30.469-5.12-8.183-3.715-24.823 3.074-37.371 12.034-22.4 17.794-33.029 28.926-53.12-9.143-14.469-13.829-22.274-23.429-38.789-6.011-10.285-6.263-27.005-.64-37.714 9.863-19.063 14.594-28.023 23.817-44.663-10.754-17.794-16.388-27.268-27.908-47.108-7.04-12.035-8.96-28.8-4.355-37.715 8.08-15.703 12-22.903 19.726-36.08-12.926-20.994-19.429-32-33.28-54.914-8.446-13.829-12.034-30.469-8.194-37.371a310.24 310.24 0 0 1 16.514-27.143c-15.234-23.932-23.166-36.355-39.554-62.206-9.852-15.486-15.097-31.749-11.897-36.571a122.034 122.034 0 0 1 14.08-18.046c-16.263-24.069-25.475-37.714-41.349-61.44 15.749 3.577 31.109 7.931 46.206 12.926a40.286 40.286 0 0 0-13.177 6.011c19.2 27.429 28.411 40.583 46.205 66.183 10.617 15.097 15.486 27.771 11.772 30.583-6.4 4.994-9.475 8.068-15.737 15.234 16.377 24.709 24.182 36.571 39.291 59.429 9.143 13.714 12.674 26.628 8.709 31.485a234.594 234.594 0 0 0-17.795 24.069c13.817 21.863 20.48 32.148 33.406 52.023 7.806 11.908 9.989 25.085 5.371 31.874-8 12.034-12.16 18.56-20.571 32.891 11.646 18.823 17.28 27.658 28.286 44.298 6.663 10.285 7.68 23.542 2.285 32.125-9.474 15.36-14.468 23.68-24.571 41.475 9.977 15.485 14.72 22.777 24.183 36.217 5.748 8.32 5.497 21.508-.903 32zm140.034 5.817C898.31 637.37 893.691 648 883.59 670.65c3.84 13.178 5.497 19.2 8.822 30.08 2.058 6.778-1.142 20.572-8.057 33.532-12.285 23.303-18.823 35.588-33.143 61.063 1.795 9.085 2.686 13.051 4.48 19.965a9.611 9.611 0 0 1-.251 4.092 460.914 460.914 0 0 1-38.149 37.714c-.388-4.731-.765-8.96-1.531-16.126-.64-6.274 5.246-23.291 13.303-38.4 14.343-27.131 20.994-40.194 33.28-65.028-2.686-11.897-4.092-18.286-7.166-32.503-1.92-8.834 1.029-26.629 6.526-40.194 9.863-24.32 14.343-35.715 22.537-57.475-4.994-15.748-7.68-24.194-13.577-42.285-3.577-11.132-3.703-29.315-.377-40.96 6.011-20.732 8.697-30.469 13.565-48.64-8.068-19.2-12.285-29.44-21.508-50.812-5.714-13.188-8.96-31.108-7.292-40.708 2.812-16.766 3.966-24.446 6.012-38.526-11.646-22.4-17.783-34.046-31.097-58.366-8.069-14.72-14.343-32.137-14.206-39.303.251-12.411.251-17.92.251-27.52-15.874-24.96-24.32-37.885-42.365-64.514-10.88-16-20.229-32.251-21.12-36.731v-.252L780.8 137.6c8.446 11.131 14.08 19.429 14.206 21.371.263 4.103.514 6.789 1.028 13.578 17.795 25.337 26.286 37.497 41.977 61.177 9.475 14.205 15.749 27.52 15.235 32.388-1.017 8.572-1.532 13.44-2.686 24.697 13.314 23.04 19.589 34.058 31.36 55.178 7.04 12.8 10.88 26.88 9.211 34.171-2.811 12.674-4.342 19.714-7.805 35.2 9.474 20.091 13.954 29.714 22.274 47.874 4.994 11.006 6.526 25.337 3.429 34.812-5.372 16.64-8.183 25.6-14.72 44.925 6.4 16.903 9.222 24.709 14.72 39.429 3.485 8.96 2.457 23.314-2.275 34.743z" fill="#00AA5E"/><path d="M512 550.4a64.069 64.069 0 0 1-64-64 12.8 12.8 0 1 1 25.6 0 38.4 38.4 0 0 0 76.8 0 12.8 12.8 0 1 1 25.6 0 64.069 64.069 0 0 1-64 64zM345.6 384a38.4 38.4 0 1 0 76.8 0 38.4 38.4 0 1 0-76.8 0zm256 0a38.4 38.4 0 1 0 76.8 0 38.4 38.4 0 1 0-76.8 0z" fill="#25467A"/><path d="M332.8 448h-51.2a25.6 25.6 0 1 0 0 51.2h51.2a25.6 25.6 0 1 0 0-51.2zm409.6 0h-51.2a25.6 25.6 0 1 0 0 51.2h51.2a25.6 25.6 0 0 0 0-51.2z" fill="#CEF3D1"/></svg>