<svg class="icon" viewBox="0 0 1024 1024" xmlns="http://www.w3.org/2000/svg" width="200" height="200"><defs><style>@font-face{font-family:feedback-iconfont;src:url(//at.alicdn.com/t/font_1031158_u69w8yhxdu.woff2?t=1630033759944) format(&quot;woff2&quot;),url(//at.alicdn.com/t/font_1031158_u69w8yhxdu.woff?t=1630033759944) format(&quot;woff&quot;),url(//at.alicdn.com/t/font_1031158_u69w8yhxdu.ttf?t=1630033759944) format(&quot;truetype&quot;)}</style></defs><path d="M263.259 1024a83.051 83.051 0 0 1-83.154-84.732 1318.96 1318.96 0 0 0-13.326-215.12c-1.143-8-2.423-16.114-3.829-24.537a136 136 0 0 1-64.777-81.142 135.817 135.817 0 0 1-81.257-196.08 135.783 135.783 0 0 1 81.257-196.103 135.806 135.806 0 0 1 78.514-87.749q4.972-2.057 10.069-3.691A118.731 118.731 0 0 1 299.75 52.949q3.829 0 7.646.24a118.549 118.549 0 0 1 133.12-32 130.949 130.949 0 0 1 143.006 0 118.549 118.549 0 0 1 133.12 32q3.805-.24 7.634-.24a118.686 118.686 0 0 1 112.994 81.908q5.097 1.623 10.057 3.692a135.874 135.874 0 0 1 78.538 87.737A135.794 135.794 0 0 1 1007.11 422.4a135.794 135.794 0 0 1-81.245 196.069 136 136 0 0 1-64.789 81.142 1154.229 1154.229 0 0 0-3.829 24.526 1319.234 1319.234 0 0 0-13.325 215.143 83.051 83.051 0 0 1-83.155 84.72z" fill="#25467A"/><path d="M942.87 421.326a84.789 84.789 0 0 0-61.714-148.972c-.514-.525-.983-1.143-1.509-1.645a85.04 85.04 0 0 0-52.091-84.823 83.623 83.623 0 0 0-36.366-6.149 67.589 67.589 0 0 0-97.828-68.286c-.537-.228-1.143-.388-1.669-.617a68.057 68.057 0 0 0-64.503-46.857 67.234 67.234 0 0 0-49.383 21.634 80.114 80.114 0 0 0-131.634 0A67.2 67.2 0 0 0 396.813 64a68.057 68.057 0 0 0-64.503 46.857c-.548.229-1.143.389-1.668.617a68.034 68.034 0 0 0-78.64 12.572 67.303 67.303 0 0 0-19.177 55.748 83.703 83.703 0 0 0-36.378 6.149 85.051 85.051 0 0 0-52.08 84.914c-.525.514-1.142.983-1.645 1.509a84.789 84.789 0 0 0-61.715 148.903c0 .742.092 1.485.092 2.285a84.789 84.789 0 0 0 61.714 148.972c.514.525.983 1.143 1.509 1.645a84.789 84.789 0 0 0 148.903 61.715c.742 0 1.485-.092 2.285-.092a84.789 84.789 0 0 0 148.972-61.714c.525-.514 1.143-.983 1.645-1.509a85.6 85.6 0 0 0 65.886-24.537 85.554 85.554 0 0 0 66.034 24.412c.515.525.983 1.143 1.509 1.645a84.789 84.789 0 0 0 148.903 61.715c.743 0 1.486-.092 2.286-.092A84.789 84.789 0 0 0 879.716 574c.526-.514 1.143-.983 1.646-1.509a84.789 84.789 0 0 0 61.714-148.902c-.091-.732-.206-1.52-.206-2.263z" fill="#00884B"/><path d="M806.413 716.8a1363.943 1363.943 0 0 0-13.828 223.486 31.886 31.886 0 0 1-32 32.514H263.442a31.886 31.886 0 0 1-32-32.514A1363.943 1363.943 0 0 0 217.613 716.8a1378.948 1378.948 0 0 0-38.4-179.2c25.6-8.571 51.2-17.029 76.8-25.6 14.08 100.354 77.189 159.486 115.2 153.6 15.749-2.434 32.126-16.766 44.8-39.68 17.794-32.251 28.286-81.669 19.2-139.52h153.6c-9.143 57.851 1.406 107.269 19.2 139.52 12.674 22.914 29.063 37.246 44.8 39.68 38.012 5.886 101.12-53.246 115.2-153.6 25.6 8.571 51.2 17.029 76.8 25.6a1378.948 1378.948 0 0 0-38.4 179.2z" fill="#D7F4BD"/><path d="M512.013 896a64.069 64.069 0 0 1-64-64 12.8 12.8 0 1 1 25.6 0 38.4 38.4 0 0 0 76.8 0 12.8 12.8 0 0 1 25.6 0 64.069 64.069 0 0 1-64 64zm-166.4-166.4a38.4 38.4 0 1 0 76.8 0 38.4 38.4 0 1 0-76.8 0zm256 0a38.4 38.4 0 1 0 76.8 0 38.4 38.4 0 1 0-76.8 0z" fill="#25467A"/><path d="M332.813 793.6h-51.2a25.6 25.6 0 1 0 0 51.2h51.2a25.6 25.6 0 0 0 0-51.2zm409.6 0h-51.2a25.6 25.6 0 1 0 0 51.2h51.2a25.6 25.6 0 0 0 0-51.2z" fill="#B4E876"/><path d="M934.413 435.2a72.274 72.274 0 0 0-49.76-68.571c-.24-.583-.411-1.143-.651-1.783a72.08 72.08 0 0 0-96.88-96.88c-.583-.24-1.143-.412-1.783-.652a72.069 72.069 0 0 0-137.052 0c-.582.24-1.142.412-1.782.652a72.069 72.069 0 0 0-96.869 96.88c-.251.583-.423 1.2-.651 1.783a72.057 72.057 0 0 0 0 137.051c.228.583.4 1.2.651 1.783a72.069 72.069 0 0 0 96.869 96.88c.582.24 1.2.411 1.782.651a72.069 72.069 0 0 0 137.052 0c.594-.24 1.211-.411 1.783-.651a72.08 72.08 0 0 0 96.88-96.88c.24-.583.411-1.2.651-1.783a72.274 72.274 0 0 0 49.76-68.48z" fill="#00AA5E"/><path d="M768.013 384a85.063 85.063 0 0 0-58.548-80.629c-.275-.685-.48-1.405-.766-2.091a84.789 84.789 0 0 0-113.966-113.966c-.686-.285-1.406-.491-2.091-.765a84.789 84.789 0 0 0-161.246 0c-.697.274-1.417.48-2.103.765A84.789 84.789 0 0 0 315.327 301.28c-.285.686-.48 1.406-.765 2.091a84.789 84.789 0 0 0 0 161.258c.285.685.48 1.405.765 2.091a84.789 84.789 0 0 0 113.966 113.966c.686.285 1.406.491 2.103.765a84.789 84.789 0 0 0 161.246 0c.685-.274 1.405-.48 2.091-.765A84.789 84.789 0 0 0 708.7 466.72c.286-.686.491-1.406.766-2.091A85.063 85.063 0 0 0 768.013 384z" fill="#34BC6E"/><path d="M524.813 435.2a72.274 72.274 0 0 0-49.76-68.571c-.24-.583-.411-1.143-.651-1.783a72.08 72.08 0 0 0-96.88-96.88c-.583-.24-1.143-.412-1.783-.652a72.069 72.069 0 0 0-137.052 0c-.582.24-1.142.412-1.782.652a72.069 72.069 0 0 0-96.869 96.88c-.251.583-.423 1.2-.651 1.783a72.057 72.057 0 0 0 0 137.051c.228.583.4 1.2.651 1.783a72.069 72.069 0 0 0 96.869 96.88c.582.24 1.2.411 1.782.651a72.069 72.069 0 0 0 137.052 0c.594-.24 1.211-.411 1.783-.651a72.08 72.08 0 0 0 96.88-96.88c.24-.583.411-1.2.651-1.783a72.274 72.274 0 0 0 49.76-68.48z" fill="#57D785"/></svg>