<svg class="icon" viewBox="0 0 1024 1024" xmlns="http://www.w3.org/2000/svg" width="200" height="200"><defs><style>@font-face{font-family:feedback-iconfont;src:url(//at.alicdn.com/t/font_1031158_u69w8yhxdu.woff2?t=1630033759944) format(&quot;woff2&quot;),url(//at.alicdn.com/t/font_1031158_u69w8yhxdu.woff?t=1630033759944) format(&quot;woff&quot;),url(//at.alicdn.com/t/font_1031158_u69w8yhxdu.ttf?t=1630033759944) format(&quot;truetype&quot;)}</style></defs><path d="M1000.103 747.829c-22.354-21.498-56.309-35.772-96-40.88-1.04-32-5.349-64.686-10.949-95.04a70.152 70.152 0 0 0 4.012-2.4c16.103-10.423 35.428-32.503 36.183-78.469 1.142-73.886-49.623-214.274-166.218-295.029a380.571 380.571 0 0 0-34-20.88c-17.908-25.668-35.874-47.222-53.508-64.171C624.4 97.806 541.509 60.571 447.429 44.571c-1.063-1.142-2-2.285-3.098-3.428a141.097 141.097 0 0 0-199.12 0c-.994.994-1.851 2.08-2.822 3.097-64.995 11.486-119.052 34.389-154.869 66.617a87.019 87.019 0 0 0-4.434 4C31.063 164.891 0 259.257 0 367.28c0 131.737 45.097 253.714 120.629 326.377C184.24 754.823 288 802.491 357.714 829.886c12.115 42.903 38.332 102.251 91.817 112.868a84.126 84.126 0 0 0 16.378 1.577c34.788 0 69.908-19.954 87.382-49.691a75.448 75.448 0 0 0 2.469-4.48c52.32 11.291 100.686 17.691 142.549 18.8 4.948 34.149 17.874 68.663 42.971 92.8 15.337 14.754 32.183 22.229 50.057 22.24 50.903 0 64.949-50.503 74.229-83.931 4.137-14.858 11.805-42.48 18.96-49.36 7.52-7.223 36.857-14.766 52.571-18.812 34.926-8.971 74.503-19.154 84.812-58.16 3.634-13.348 5.52-39.668-21.806-65.908z" fill="#25467A"/><path d="M559.68 232c22.251-26.663 115.737 1.794 178.286 45.257 126.331 87.76 168.251 265.692 131.428 289.623-33.314 21.623-137.268-78.217-168.914-108.571C629.246 389.874 530.503 266.914 559.68 232z" fill="#DEEDF7"/><path d="M836.286 810.846a78.709 78.709 0 0 1-13.817 18.434c-1.543 1.543-3.2 2.949-4.869 4.354-103.166 81.92-528.891-48.388-661.371-176.251C88.514 592.103 55.657 487.269 51.52 387.554l30.72 29.715c20.571 19.977 54.149 19.977 74.88 0a50.183 50.183 0 0 0 0-72.446l-92.674-89.6c11.268-44.034 29.565-81.017 54.148-104.697a17.554 17.554 0 0 1 2.435-2.057 147.84 147.84 0 0 1 25.257-18.583c114.685-69.497 374.4-62.332 497.92 56.834 127.063 122.503 256.468 505.086 192.08 624.126z" fill="#175D8D"/><path d="M836.286 810.846a78.709 78.709 0 0 1-13.817 18.434c-1.543 1.543-3.2 2.949-4.869 4.354-103.166 81.92-528.891-48.388-661.371-176.251C88.514 592.103 55.657 487.269 51.52 387.554l30.72 29.715c20.571 19.977 54.149 19.977 74.88 0a50.183 50.183 0 0 0 0-72.446l-92.674-89.6c11.268-44.034 29.565-81.017 54.148-104.697a17.554 17.554 0 0 1 2.435-2.057 147.84 147.84 0 0 1 25.257-18.583c177.748 78.343 384.343 248.834 518.48 418.948 37.634 47.737 121.52 154.115 171.52 262.012z" fill="#009BEF"/><path d="M817.6 833.634c-103.166 81.92-528.891-48.388-661.371-176.251C88.514 592.103 55.657 487.269 51.52 387.554l30.72 29.715c20.571 19.977 54.149 19.977 74.88 0a50.183 50.183 0 0 0 0-72.446l-92.674-89.6c11.268-44.034 29.565-81.017 54.148-104.697a17.554 17.554 0 0 1 2.435-2.057c114.56 78.857 237.714 179.337 358.857 296.194 136.88 132.08 252.343 266.606 337.714 388.971z" fill="#C2DBF4"/><path d="M776.869 966.411c-39.863-38.445-39.863-142.571 0-181.017s147.817-38.457 187.68 0-75.623 31.166-115.498 69.623-32.308 149.852-72.182 111.394zM521.406 538.983c-90.492 87.303-254.206 205.303-379.52 103.543l-.252-.252c-4.48-5.245-8.834-10.491-13.063-16.125-49.28-64.766-73.462-153.475-76.925-238.469l30.64 29.566c20.571 19.977 54.148 19.977 74.88 0a50.183 50.183 0 0 0 0-72.446l-92.572-89.474c.777-3.063 1.543-6.012 2.435-8.96 11.268-40.183 28.8-73.852 51.588-95.863 86.857-83.84 347.897-92.8 493.177 9.463 5.715 4.228 11.429 8.457 16.777 12.8 0 .137 0 .137.126.137 105.703 120.811-16.663 278.651-107.291 366.08zM409.954 702.446c23.2-10.286 80.183 60.571 99.223 119.634 6.377 19.76 7.486 35.074 0 47.851-9.748 16.595-32.994 27.212-49.611 23.92-54-10.742-81.223-177.28-49.612-191.405z" fill="#DEEDF7"/><path d="M255.166 139.234a89.6 89.6 0 1 0 179.2 0 89.6 89.6 0 1 0-179.2 0z" fill="#FFF"/><path d="M306.366 139.234a38.4 38.4 0 1 0 76.8 0 38.4 38.4 0 1 0-76.8 0z" fill="#25467A"/></svg>