<svg class="icon" viewBox="0 0 1024 1024" xmlns="http://www.w3.org/2000/svg" width="200" height="200"><defs><style>@font-face{font-family:feedback-iconfont;src:url(//at.alicdn.com/t/font_1031158_u69w8yhxdu.woff2?t=1630033759944) format(&quot;woff2&quot;),url(//at.alicdn.com/t/font_1031158_u69w8yhxdu.woff?t=1630033759944) format(&quot;woff&quot;),url(//at.alicdn.com/t/font_1031158_u69w8yhxdu.ttf?t=1630033759944) format(&quot;truetype&quot;)}</style></defs><path d="M571.314 1024c-61.371 0-134.743-20.571-164.571-77.486-10.514.572-20.914.915-31.086.915-27.086 0-51.771-2.058-69.257-5.943-36.457-7.886-68.914-22.4-93.714-41.829-33.486-26.171-52.8-60.8-55.772-99.886-1.371-17.828 3.315-34.285 10.4-48.457-7.085-2.971-13.714-6.285-19.657-10.057-32-20.114-58.286-45.028-76-71.886-23.771-36.114-32-75.2-23.657-113.028a107.988 107.988 0 0 1 2.4-8.686c-12.914-10.4-23.543-22.514-31.543-36C.23 481.257-4.57 445.143 4.343 407.43c7.086-29.943 32.343-55.086 72.8-72.686 30.4-13.143 66.514-20.8 99.2-20.8 5.143 0 10.286.228 15.314.571 2.857.229 9.257.572 19.429.572 28 0 128.8-3.2 251.657-43.772C538.97 246.171 567.429 216 597.6 184c14.4-15.314 29.257-30.971 48.457-45.257-1.028-4.114-1.943-8.343-2.628-12.686-3.086-19.886-2.4-41.143 2.057-59.771 12-50.286 45.028-61.715 58.628-64.343C710.971.686 717.943 0 724.686 0c20.228 0 35.885 5.829 48.457 10.514 10.286 3.772 18.4 6.857 30.628 7.657 11.658.8 22.172 1.143 31.315 1.486 18.4.686 32.914 1.257 46.285 4.114 31.315 6.858 46.172 26.058 53.029 40.915 14.743 31.771 4 61.143-7.429 92.228-4.342 11.772-12 21.943-20.457 30.4a167.893 167.893 0 0 0 24.343 37.943c55.429 64.686 87.314 149.6 92.343 245.6 4 77.143-9.486 160.457-37.943 234.857-22.857 59.657-53.828 112.457-91.886 157.143-32 37.486-69.371 69.372-110.971 94.972-71.886 44.114-140.229 58.971-174.514 63.885-11.657 1.486-24 2.286-36.572 2.286z" fill="#25467A"/><path d="M730.057 84.229S712.8 155.77 681.143 177.37c-57.143 39.086-73.029 101.029-203.2 144-139.2 45.943-255.657 48-289.829 45.486-57.6-4.228-127.885 24.343-134.628 53.029-11.429 48 11.2 86.743 63.885 106.171C178.971 548.8 300.457 599.086 516.8 516c112.8-43.314 207.314-91.314 219.086-260.343 5.257-75.428 40.343-156.571 40.343-156.571l-46.172-14.857z" fill="#FDC51D"/><path d="M749.6 94.857c-10.629 25.257-19.543 62.972-30.4 84.229-38.057 74.171-122.4 207.657-258.743 251.085-132.343 42.172-264.8 56.8-301.257 50.515-52.571-8.915-82.057-12.457-108.457-32.229-.572-9.028.343-18.514 2.743-28.343 6.857-28.685 77.028-57.371 134.628-53.028 34.286 2.514 150.629.457 289.829-45.486C608 278.629 624 216.686 681.029 177.6c31.657-21.6 48.914-93.143 48.914-93.143l19.657 10.4z" fill="#FDDA72"/><path d="M738.971 164.8s-2.285 88.457-29.714 116.229c-49.486 50.171-82.286 131.314-187.2 181.942-133.257 64.229-266.514 53.715-300.8 52.572-57.714-1.943-118.171 23.771-124.457 52.571-10.971 50.057 28.343 97.715 76.571 128.115 48.229 30.4 261.943 57.6 460.458-69.029 103.542-66.057 174.514-139.886 157.485-308.343-7.543-75.086-4.571-149.143-4.571-149.143L738.97 164.8z" fill="#FDC51D"/><path d="M588.229 509.371c-59.315 44.115-126.743 70.4-261.715 92.686 0 0-112.914 18.629-225.257-16.8a99.694 99.694 0 0 1-6.286-2.057c.115-4.914.686-9.943 1.829-14.971 6.286-28.8 66.743-54.515 124.457-52.572 34.286 1.143 167.543 11.657 300.8-52.571 104.914-50.629 137.714-131.772 187.2-181.943 27.429-27.772 29.714-116.229 29.714-116.229l26.972 2.857c-20.914 181.486-64.114 257.029-177.714 341.6z" fill="#FDDA72"/><path d="M780.229 166.286S798.4 267.77 769.714 310.057c-40.343 59.429-70.4 183.2-155.2 268.229C506.743 686.17 342.743 690.97 309.943 701.943c-55.314 18.514-105.143 64.114-102.857 93.714 4 51.314 54.971 82.629 109.485 94.4C371.086 901.83 612.23 906.857 764 716.914c79.2-99.085 143.771-266.057 79.2-419.657-28.8-68.571-15.086-124.343-15.086-124.343l-47.885-6.628z" fill="#FDC51D"/><path d="M784.571 377.943c-25.828 213.943-182.628 306.628-248 330.171-65.485 23.543-238.857 20.229-320.8 60.8 16.458-25.6 53.829-53.485 94.172-67.085 32.8-10.972 196.8-15.772 304.571-123.658 84.915-84.914 114.972-208.8 155.315-268.228 28.685-42.286 10.514-143.772 10.514-143.772l26.971 3.658c8.457 96.342-11.085 111.885-22.743 208.114z" fill="#FDDA72"/><path d="M796.114 158.057s46.286 89.943 31.2 140c-21.257 70.514-14.171 198.4-70.4 308.914C685.6 747.086 531.43 809.257 503.543 831.2c-47.086 36.914-65.943 56.914-55.314 84.114 18.514 47.315 97.6 61.943 152.685 53.943 55.086-7.886 248-49.943 337.486-283.314 46.629-121.714 60.114-302.743-45.143-425.829-46.971-54.857-49.943-112.571-49.943-112.571l-47.2 10.514z" fill="#FDC51D"/><path d="M722.171 777.257c-76 73.6-192.685 131.772-276.571 127.429-2.4-22.286 17.257-41.486 58.057-73.486 28-21.943 182.057-84.114 253.372-224.229 56.114-110.4 49.142-238.4 70.4-308.914 15.085-50.171-31.2-140-31.2-140L816 153.6c31.886 61.6 44.571 144.229 49.371 175.429 25.258 164.914-30.628 339.2-143.2 448.228z" fill="#FDDA72"/><path d="M713.257 53.829C745.03 47.77 758.743 68 800.8 70.629c54.4 3.428 80.229-.572 88.229 16.8 5.257 11.314.114 25.371-9.143 50.514-4.229 11.428-30.743 31.771-51.772 34.743-61.257 8.8-89.943-2.286-121.028-25.715-21.829-16.228-20.115-88.228 6.171-93.142z" fill="#C7D93B"/><path d="M828.343 252c-3.886-24-12.572-48.8-20-66.971 1.828 28.571.914 49.485-1.6 68.342-7.429.343-14.629.572-21.6.572 3.086-42.629-4.914-87.772-4.914-87.772l21.257 2.858c-3.2-6.972-5.372-11.086-5.372-11.086l19.772-4.457c15.428 29.828 26.4 64.685 34.057 96.228-7.429.915-14.514 1.715-21.6 2.286zm-62.4-84.343c-3.657 31.314-7.886 59.429-13.029 85.029a366.981 366.981 0 0 1-26.857-3.315c11.657-36.457 12.914-84.571 12.914-84.571l26.972 2.857zm-16.343-72.8c-10.629 25.257-19.543 62.972-30.4 84.229-3.2 6.285-6.857 13.143-10.743 20.228a107.442 107.442 0 0 1-9.943-5.485c-7.428-4.458-13.943-9.486-19.885-14.629.8-.571 1.714-1.143 2.514-1.714 31.657-21.6 48.914-93.143 48.914-93.143L749.6 94.857z" fill="#C7D93B"/><path d="M581.6 664.914c-35.314 0-64-28.685-64-64 0-7.085 5.714-12.8 12.8-12.8s12.8 5.715 12.8 12.8c0 21.257 17.257 38.4 38.4 38.4s38.4-17.143 38.4-38.4c0-7.085 5.714-12.8 12.8-12.8s12.8 5.715 12.8 12.8c0 35.315-28.686 64-64 64zm-166.4-166.4a38.4 38.4 0 1 0 76.8 0 38.4 38.4 0 1 0-76.8 0zm256 0a38.4 38.4 0 1 0 76.8 0 38.4 38.4 0 1 0-76.8 0z" fill="#25467A"/><path d="M402.4 562.514h-51.2c-14.171 0-25.6 11.429-25.6 25.6 0 14.172 11.429 25.6 25.6 25.6h51.2c14.171 0 25.6-11.428 25.6-25.6 0-14.057-11.429-25.6-25.6-25.6zm409.6 0h-51.2c-14.171 0-25.6 11.429-25.6 25.6 0 14.172 11.429 25.6 25.6 25.6H812c14.171 0 25.6-11.428 25.6-25.6 0-14.057-11.429-25.6-25.6-25.6z" fill="#FDEDBE"/></svg>