<svg class="icon" viewBox="0 0 1024 1024" xmlns="http://www.w3.org/2000/svg" width="200" height="200"><defs><style>@font-face{font-family:feedback-iconfont;src:url(//at.alicdn.com/t/font_1031158_u69w8yhxdu.woff2?t=1630033759944) format(&quot;woff2&quot;),url(//at.alicdn.com/t/font_1031158_u69w8yhxdu.woff?t=1630033759944) format(&quot;woff&quot;),url(//at.alicdn.com/t/font_1031158_u69w8yhxdu.ttf?t=1630033759944) format(&quot;truetype&quot;)}</style></defs><path d="M409.212 91.316h-37.326c-9.245 0-16.78-7.533-16.78-16.779V16.78c0-9.245 7.535-16.779 16.78-16.779h37.326c9.246 0 16.78 7.534 16.78 16.78V74.65c-.115 9.132-7.534 16.665-16.78 16.665z" fill="#25467A"/><path d="M778.473 404.646c-7.077-91.088-31.733-171.56-71.227-232.857-28.08-43.49-67.346-79.331-113.347-103.416-40.407-21.23-110.835-35.5-157.749-31.276 0 0-22.715-1.255-45.658-1.712-22.943.457-45.658 1.712-45.658 1.712-46.914-4.223-117.342 10.045-157.75 31.276-46 24.2-85.266 59.927-113.346 103.416-39.494 61.296-64.15 141.769-71.227 232.857-7.077 90.632 3.196 191.765 29.792 292.555 20.318 76.934 63.351 143.481 127.843 198.043 57.301 48.398 118.255 75.222 152.499 87.664 7.19 4.794 13.583 10.159 18.948 15.866 15.181 15.98 36.64 25.226 58.785 25.226 22.258 0 43.603-9.132 58.785-25.226 5.365-5.707 11.757-11.072 18.948-15.866 34.244-12.442 95.197-39.266 152.499-87.664 64.492-54.448 107.525-121.109 127.843-198.043 26.824-100.79 37.097-201.923 30.02-292.555z" fill="#25467A"/><path d="M867.164 1022.744c-8.79 0-17.693-2.168-25.454-6.278l-137.546-72.368-137.545 72.368c-7.876 4.11-16.666 6.278-25.455 6.278-16.208 0-31.504-7.077-41.891-19.518-10.387-12.328-14.84-28.537-12.1-44.517l26.254-153.184-111.292-108.438c-15.067-14.61-20.318-36.184-13.812-56.16 6.507-19.975 23.4-34.243 44.175-37.325l153.754-22.373 68.83-139.371c9.245-18.834 28.08-30.591 49.082-30.591s39.837 11.757 49.083 30.59l68.83 139.372 153.868 22.373c20.774 2.968 37.782 17.35 44.174 37.325 6.506 19.976 1.142 41.55-13.812 56.16L895.015 805.525 921.27 958.71c2.74 15.98-1.712 32.189-12.1 44.517-10.615 12.441-25.796 19.518-42.005 19.518z" fill="#25467A"/><path d="M390.492 114.488c30.477-59.242 196.787-44.288 278.401 82.07 71.227 110.265 87.892 291.186 35.614 489.115-54.105 204.89-278.972 269.954-314.015 269.954V114.488zm0 841.025c-34.929 0-259.795-65.063-314.014-269.955-52.28-197.928-35.5-378.735 35.613-489C193.705 70.2 360.015 55.247 390.492 114.489v841.025z" fill="#BACF3D"/><path d="M642.64 196.559C568.787 70.314 418.115 55.246 390.492 114.488c-27.623-59.242-178.181-44.174-252.148 82.07-64.492 110.265-79.559 291.072-32.189 489.115 32.646 136.403 133.779 210.826 207.06 245.298 19.291 9.018 37.098 21.117 51.594 36.413 6.392 6.734 15.524 10.958 25.683 10.958s19.29-4.224 25.683-10.958c14.496-15.296 32.303-27.281 51.594-36.413 73.281-34.472 174.414-108.895 207.06-245.298 47.37-198.043 32.303-378.85-32.19-489.114z" fill="#F8CF3D"/><path d="M390.492 76.363c14.04 0 77.619-6.278 109.694 123.163 28.08 113.119 34.7 298.72 14.04 501.67C492.88 911.452 404.189 978 390.492 978V76.363zm0 901.865c-13.812 0-102.389-66.661-123.734-276.803-20.66-203.18-14.04-388.666 14.04-501.784C312.988 70.2 376.452 76.478 390.492 76.478v901.75z" fill="#F8BE3D"/><path d="M390.492 76.363c11.529 0 63.58-6.278 89.833 123.163 23.057 113.119 28.422 298.72 11.528 501.784-17.464 210.257-90.06 276.918-101.361 276.918V76.363zm0 901.865c-11.3 0-83.897-66.661-101.361-276.803-16.894-202.951-11.529-388.552 11.528-501.67 26.368-129.67 78.304-123.277 89.833-123.277v901.75z" fill="#E1CF3D"/><path d="M406.7 539.452c0 262.991-7.305 438.89-16.208 438.89-8.903 0-16.209-175.899-16.209-438.89s7.306-462.974 16.209-462.974c8.903-.115 16.209 199.983 16.209 462.974z" fill="#BACF3D"/><path d="M390.492 528.38c-35.5 0-64.378-28.879-64.378-64.378 0-7.077 5.707-12.899 12.898-12.899 7.077 0 12.899 5.708 12.899 12.899 0 21.345 17.35 38.581 38.695 38.581s38.581-17.236 38.581-38.581c0-7.077 5.822-12.899 12.899-12.899 7.077 0 12.898 5.822 12.898 12.899-.114 35.5-28.993 64.378-64.492 64.378zM223.155 360.928a38.581 38.581 0 1 0 77.162 0 38.581 38.581 0 1 0-77.162 0zm257.512 0a38.581 38.581 0 1 0 77.162 0 38.581 38.581 0 1 0-77.162 0z" fill="#25467A"/><path d="M210.256 425.306h-51.594c-14.268 0-25.797 11.53-25.682 25.797 0 14.154 11.528 25.683 25.682 25.683h51.48c14.268 0 25.797-11.529 25.797-25.683.114-14.154-11.415-25.682-25.683-25.797zm412.066 0h-51.594c-14.268 0-25.797 11.53-25.797 25.683 0 14.268 11.529 25.797 25.683 25.797h51.48c14.268 0 25.796-11.529 25.682-25.797.228-14.154-11.3-25.568-25.454-25.683z" fill="#F8E088"/><path d="M867.164 999.915a32.055 32.055 0 0 1-14.839-3.652l-145.421-76.478c-.8-.456-1.827-.685-2.74-.685s-1.94.229-2.74.685l-145.42 76.478a32.055 32.055 0 0 1-14.84 3.652c-9.474 0-18.377-4.109-24.427-11.414-6.05-7.191-8.675-16.666-7.077-25.911l27.737-161.973c.343-1.94-.342-3.88-1.712-5.25L417.887 680.65c-8.79-8.56-11.871-21.117-8.104-32.76s13.697-19.975 25.797-21.801l162.657-23.629c1.94-.228 3.538-1.484 4.452-3.196l72.71-147.362c5.365-10.958 16.437-17.806 28.65-17.806 12.215 0 23.287 6.848 28.651 17.806l72.711 147.362c.913 1.712 2.511 2.968 4.452 3.196l162.657 23.743c12.1 1.712 22.03 10.044 25.797 21.801 3.767 11.643.685 24.2-8.104 32.76L872.529 795.366c-1.37 1.37-2.055 3.31-1.712 5.251l27.737 161.973c1.598 9.36-.913 18.72-7.077 25.91-5.936 7.306-14.953 11.415-24.313 11.415z" fill="#25467A"/><path d="m712.268 462.061 72.711 147.362c4.224 8.447 12.328 14.383 21.688 15.752l162.657 23.628c7.534 1.142 10.502 10.274 5.023 15.524L856.663 779.044a28.835 28.835 0 0 0-8.219 25.454l27.737 161.973c1.256 7.42-6.506 13.126-13.24 9.588L717.519 899.58a28.38 28.38 0 0 0-26.71 0l-145.421 76.48c-6.735 3.538-14.497-2.169-13.241-9.588l27.737-161.973a28.835 28.835 0 0 0-8.218-25.454L433.867 664.327c-5.364-5.25-2.397-14.496 5.023-15.524l162.657-23.742c9.36-1.37 17.464-7.191 21.688-15.752l72.71-147.362c3.31-6.734 13.013-6.734 16.323.114z" fill="#F8CF3D"/><path d="M718.204 660.218c0 63.58-6.278 63.008-14.154 63.008-7.762 0-14.154.571-14.154-63.008s8.79-167.223 14.154-167.223 14.154 103.644 14.154 167.223zm-86.18 42.12c60.497 19.633 57.986 25.454 55.589 32.874s-3.767 13.583-64.264-6.05-156.38-60.04-154.667-65.063c1.484-5.022 102.845 18.606 163.342 38.239zm13.355 94.969c37.326-51.48 42.12-47.256 48.398-42.69s11.757 7.875-25.569 59.241c-37.325 51.48-105.47 130.126-109.694 127.044s49.54-92.115 86.865-143.595zm94.513 16.665c-37.326-51.48-31.961-54.676-25.569-59.241s11.072-8.79 48.398 42.69 91.202 140.513 86.865 143.595c-4.224 3.082-72.369-75.678-109.694-127.044zm44.973-84.81c-60.497 19.633-61.867 13.47-64.264 6.05s-4.908-13.241 55.589-32.874 161.858-43.261 163.456-38.239c1.598 5.022-94.284 45.43-154.781 65.063z" fill="#F8DD7C"/><path d="M712.84 679.623c0 13.583-3.882 16.893-8.676 16.893s-8.675-3.31-8.675-16.893 3.881-32.19 8.675-32.19 8.675 18.606 8.675 32.19zm-69.401 32.874c12.898 4.223 14.839 8.903 13.355 13.469s-5.822 7.191-18.72 2.968-29.45-13.584-27.966-18.15 20.432-2.51 33.33 1.713zm13.126 79.217c7.99-10.958 13.013-11.415 16.894-8.561 3.88 2.853 5.022 7.762-2.968 18.72-7.99 10.958-22.03 23.742-25.91 21.002s3.994-20.203 11.984-31.161zm81.386 10.045c-7.99-10.958-6.849-15.867-2.968-18.72s8.904-2.397 16.894 8.56 15.752 28.309 11.985 31.162-17.92-10.044-25.91-21.002zm29.792-72.825c-12.898 4.223-17.236 1.598-18.72-2.968s.457-9.246 13.355-13.47 31.847-6.277 33.33-1.711-15.066 13.925-27.965 18.149z" fill="#F89359"/></svg>