<svg class="icon" viewBox="0 0 1024 1024" xmlns="http://www.w3.org/2000/svg" width="200" height="200"><defs><style>@font-face{font-family:feedback-iconfont;src:url(//at.alicdn.com/t/font_1031158_u69w8yhxdu.woff2?t=1630033759944) format(&quot;woff2&quot;),url(//at.alicdn.com/t/font_1031158_u69w8yhxdu.woff?t=1630033759944) format(&quot;woff&quot;),url(//at.alicdn.com/t/font_1031158_u69w8yhxdu.ttf?t=1630033759944) format(&quot;truetype&quot;)}</style></defs><path d="M837.714 195.131A127.794 127.794 0 0 0 623.83 65.886a127.851 127.851 0 0 0-223.658 0A127.76 127.76 0 0 0 186.286 195.13C71.21 282.8 0 418.343 0 576c0 263.771 210.549 448 512 448s512-184.229 512-448c0-157.657-71.211-293.2-186.286-380.869z" fill="#25467A"/><path d="M768.194 210.56A76.766 76.766 0 1 0 640 153.6c0 1.143.114 2.206.171 3.314a498.423 498.423 0 0 0-53.622-10.743 76.8 76.8 0 1 0-149.098 0 498.423 498.423 0 0 0-53.622 10.743c0-1.143.171-2.194.171-3.314a76.8 76.8 0 1 0-128.194 56.96C132.434 285.714 51.2 416.331 51.2 576c0 254.491 206.309 396.8 460.8 396.8S972.8 830.491 972.8 576c0-159.669-81.234-290.286-204.606-365.44z" fill="#F5E8DE"/><path d="M972.8 576c0 254.469-206.331 396.8-460.8 396.8-234.754 0-428.571-121.143-457.086-339.589C149.714 739.43 287.874 806.4 441.6 806.4c241.531 0 444.411-165.12 502.149-388.571C962.56 466.046 972.8 519.166 972.8 576z" fill="#EBDED5"/><path d="M512 550.4a64.069 64.069 0 0 1-64-64 12.8 12.8 0 1 1 25.6 0 38.4 38.4 0 0 0 76.8 0 12.8 12.8 0 1 1 25.6 0 64.069 64.069 0 0 1-64 64zM345.6 384a38.4 38.4 0 1 0 76.8 0 38.4 38.4 0 1 0-76.8 0zm256 0a38.4 38.4 0 1 0 76.8 0 38.4 38.4 0 1 0-76.8 0z" fill="#25467A"/><path d="M332.8 448h-51.2a25.6 25.6 0 1 0 0 51.2h51.2a25.6 25.6 0 1 0 0-51.2zm409.6 0h-51.2a25.6 25.6 0 1 0 0 51.2h51.2a25.6 25.6 0 0 0 0-51.2z" fill="#FCCEC7"/></svg>