<svg class="icon" viewBox="0 0 1024 1024" xmlns="http://www.w3.org/2000/svg" width="200" height="200"><defs><style>@font-face{font-family:feedback-iconfont;src:url(//at.alicdn.com/t/font_1031158_u69w8yhxdu.woff2?t=1630033759944) format(&quot;woff2&quot;),url(//at.alicdn.com/t/font_1031158_u69w8yhxdu.woff?t=1630033759944) format(&quot;woff&quot;),url(//at.alicdn.com/t/font_1031158_u69w8yhxdu.ttf?t=1630033759944) format(&quot;truetype&quot;)}</style></defs><path d="M701.714 1021.829c-82.857 0-159.885-28.458-216.8-80C425.486 888 392.8 813.029 392.8 730.743c0-36.686 7.543-64.229 22.857-84.114 11.772-14.972 33.714-32.915 72.343-32.915 29.829 0 62.971 10.743 97.943 22.057 36.914 12 78.743 25.486 115.771 25.486 37.029 0 78.857-13.6 115.772-25.6 34.971-11.314 68.114-22.057 97.943-22.057 38.628 0 60.685 17.943 72.342 33.029 15.429 19.885 22.858 47.428 22.858 84.114 0 82.286-32.686 157.143-92.115 211.086-56.914 51.542-133.943 80-216.8 80zm-200-809.715c-18.971 0-34.285-15.314-34.285-34.285V34.286C467.429 15.314 482.743 0 501.714 0S536 15.314 536 34.286v143.543c0 18.971-15.429 34.285-34.286 34.285z" fill="#25467A"/><path d="M500.8 1024c-176.229 0-313.257-48.686-396.229-140.8-35.428-39.314-60.914-86.4-75.771-139.886-15.086-54.4-19.2-116.228-12.114-183.543 7.771-74.857 25.714-145.028 53.371-208.685 24.457-56.229 56.572-107.772 95.429-153.029 61.943-72.114 142.971-129.143 222.4-156.571 35.657-12.343 74.743-18.857 113.028-18.857s77.257 6.514 113.029 18.857c79.428 27.428 160.571 84.457 222.4 156.571 38.857 45.257 70.971 96.8 95.428 153.029 27.658 63.657 45.6 133.828 53.372 208.685C992.114 627.2 988 688.914 973.029 743.43c-14.858 53.485-40.229 100.457-75.772 139.885C814.057 975.314 677.03 1024 500.8 1024z" fill="#25467A"/><path d="M939.543 564.457C908.457 265.943 716.229 125.143 598.97 84.686c-31.542-10.857-65.142-16.343-98.057-16.343s-66.514 5.486-98.057 16.343C285.37 125.143 93.142 265.943 62.056 564.457c-30.4 292.457 166.514 413.829 438.743 413.829s469.143-121.372 438.743-413.829z" fill="#FFEF66"/><path d="M500.914 976.571C273.6 976.571 98.857 892 65.03 693.83c92.685 97.942 223.2 158.857 367.885 158.857 234.515 0 431.886-160.229 490.857-378.172 7.2 28.457 12.686 57.943 15.772 88.343 30.514 292.343-166.4 413.714-438.629 413.714z" fill="#F2E573"/><path d="M500.8 552.114c-35.314 0-64-28.685-64-64 0-7.085 5.714-12.8 12.8-12.8s12.8 5.715 12.8 12.8c0 21.257 17.257 38.4 38.4 38.4s38.4-17.143 38.4-38.4c0-7.085 5.714-12.8 12.8-12.8s12.8 5.715 12.8 12.8c0 35.315-28.686 64-64 64zm-166.4-166.4a38.4 38.4 0 1 0 76.8 0 38.4 38.4 0 1 0-76.8 0zm256 0a38.4 38.4 0 1 0 76.8 0 38.4 38.4 0 1 0-76.8 0z" fill="#25467A"/><path d="M321.6 449.714h-51.2c-14.171 0-25.6 11.429-25.6 25.6s11.429 25.6 25.6 25.6h51.2c14.171 0 25.6-11.428 25.6-25.6s-11.429-25.6-25.6-25.6zm409.6 0H680c-14.171 0-25.6 11.429-25.6 25.6s11.429 25.6 25.6 25.6h51.2c14.171 0 25.6-11.428 25.6-25.6s-11.429-25.6-25.6-25.6z" fill="#FBC02D"/><path d="M176.914 582.057a15.086 15.086 0 1 0 30.172 0 15.086 15.086 0 1 0-30.172 0zm-42.057 55.086a15.086 15.086 0 1 0 30.172 0 15.086 15.086 0 1 0-30.172 0zm84.114 0a15.086 15.086 0 1 0 30.172 0 15.086 15.086 0 1 0-30.172 0zm575.543-55.086a15.086 15.086 0 1 0 30.172 0 15.086 15.086 0 1 0-30.172 0zm-42.057 55.086a15.086 15.086 0 1 0 30.172 0 15.086 15.086 0 1 0-30.172 0zm84.114 0a15.086 15.086 0 1 0 30.172 0 15.086 15.086 0 1 0-30.172 0zm-691.2 78.286a15.086 15.086 0 1 0 30.172 0 15.086 15.086 0 1 0-30.172 0zm-41.942 55.085a15.086 15.086 0 1 0 30.171 0 15.086 15.086 0 1 0-30.171 0zm84 0a15.086 15.086 0 1 0 30.171 0 15.086 15.086 0 1 0-30.171 0zm638.628-55.085a15.086 15.086 0 1 0 30.172 0 15.086 15.086 0 1 0-30.172 0zM784 770.514a15.086 15.086 0 1 0 30.171 0 15.086 15.086 0 1 0-30.171 0zm84 0a15.086 15.086 0 1 0 30.171 0 15.086 15.086 0 1 0-30.171 0zM373.371 192.229a15.086 15.086 0 1 0 30.172 0 15.086 15.086 0 1 0-30.172 0zm42.058-55.086a15.086 15.086 0 1 0 30.171 0 15.086 15.086 0 1 0-30.171 0zm-84.115 0a15.086 15.086 0 1 0 30.172 0 15.086 15.086 0 1 0-30.172 0zm266.743 55.086a15.086 15.086 0 1 0 30.172 0 15.086 15.086 0 1 0-30.172 0zm42.057-55.086a15.086 15.086 0 1 0 30.172 0 15.086 15.086 0 1 0-30.172 0zm-84.114 0a15.086 15.086 0 1 0 30.171 0 15.086 15.086 0 1 0-30.171 0zm-70.286 652.8a15.086 15.086 0 1 0 30.172 0 15.086 15.086 0 1 0-30.172 0zm-42.057 55.086a15.086 15.086 0 1 0 30.172 0 15.086 15.086 0 1 0-30.172 0zm84.114 0a15.086 15.086 0 1 0 30.172 0 15.086 15.086 0 1 0-30.172 0zm131.772 49.142a15.086 15.086 0 1 0 30.171 0 15.086 15.086 0 1 0-30.171 0zm67.2-17.028a15.086 15.086 0 1 0 30.171 0 15.086 15.086 0 1 0-30.171 0zM660.8 824.8a15.086 15.086 0 1 0 30.171 0 15.086 15.086 0 1 0-30.171 0zM312 894.171a15.086 15.086 0 1 0 30.171 0 15.086 15.086 0 1 0-30.171 0zm-63.836-7.659a15.086 15.086 0 1 0 23.643-18.744 15.086 15.086 0 1 0-23.643 18.744zm62.465-61.712a15.086 15.086 0 1 0 30.171 0 15.086 15.086 0 1 0-30.171 0z" fill="#FDD835"/><path d="M701.714 998.971c-77.143 0-148.685-26.285-201.485-74.057-54.629-49.485-84.572-118.4-84.572-194.057 0-31.428 5.943-54.4 18.057-70.057 12.457-16 30.629-24.114 54.286-24.114 26.286 0 56.229 9.714 90.857 20.914 38.514 12.457 82.172 26.629 122.857 26.629 40.686 0 84.343-14.172 122.857-26.629 34.629-11.314 64.572-21.029 90.858-21.029 23.542 0 41.828 8.115 54.285 24.229 12.229 15.771 18.057 38.629 18.057 70.171 0 75.772-30.057 144.686-84.571 194.058-52.686 47.657-124.229 73.942-201.486 73.942z" fill="#25467A"/><path d="M965.029 730.743c0 145.371-117.943 245.371-263.2 245.371s-263.2-100-263.2-245.371 135.771-23.772 263.2-23.772 263.2-121.6 263.2 23.772z" fill="#FEF8E2"/><path d="M701.714 964.686c-68.685 0-132-23.2-178.4-65.257C476 856.57 449.943 796.686 449.943 730.743c0-23.2 3.657-39.772 10.971-49.029 5.715-7.428 14.4-10.857 27.086-10.857 20.8 0 49.714 9.372 80.343 19.314 40.914 13.258 87.314 28.343 133.486 28.343 46.171 0 92.571-15.085 133.485-28.343 30.629-9.942 59.429-19.314 80.343-19.314 12.8 0 21.372 3.429 27.086 10.857 7.2 9.372 10.971 25.943 10.971 49.143 0 65.943-26.057 125.829-73.371 168.686-46.514 41.943-109.943 65.143-178.629 65.143z" fill="#FCE68D"/><path d="M505.714 780.343c-39.085 5.143-43.885-1.486-44.914-10.172-1.143-8.685 1.829-16.114 40.914-21.257 39.086-5.143 99.543-5.714 100.686 2.972 1.029 8.685-57.6 23.428-96.686 28.457zm45.257-61.829c0 10.057-37.371 18.286-62.857 18.286s-29.714-8.114-29.714-18.286 4.229-18.285 29.714-18.285 62.857 8.114 62.857 18.285zm14.515 75.772c3.314 9.485-28.915 29.828-53.029 38.4-24 8.685-30.743 2.285-34.171-7.2S476 806.857 500 798.17c24.229-8.571 62.057-13.371 65.486-3.885zm121.143-35.543c10.057 1.028 14.514 38.971 12 64.343-2.515 25.371-11.086 28.8-21.143 27.771-10.057-1.028-17.829-5.943-15.315-31.314 2.515-25.6 14.4-61.829 24.458-60.8zM618.4 839.2c8.8 5.143-3.086 41.486-16 63.429-12.8 21.942-22.057 21.485-30.743 16.342-8.686-5.142-13.714-12.8-.686-34.857 12.686-21.943 38.629-49.943 47.429-44.914zm35.657 12.457c9.714 3.314 5.372 41.486-2.857 65.714-8.229 24.229-17.371 25.715-26.971 22.4s-16.115-9.828-7.772-34.171c8-24.229 27.886-57.143 37.6-53.943zm-7.657-98.743c4.229 7.086-18.171 28.229-35.771 38.857s-24 6.743-28.115-.228c-4.114-6.972-4.8-14.4 12.915-25.029 17.485-10.628 46.742-20.571 50.971-13.6zm36.571 112.8c9.029.343 14.972 33.943 14.058 56.572-.915 22.628-8.343 26.171-17.372 25.714-8.914-.457-16.114-4.343-15.2-27.086.914-22.514 9.486-55.428 18.514-55.2zm-69.142-137.6c-.572 5.6-21.6 8.229-35.772 6.972-14.171-1.257-16.114-6.057-15.543-11.657.572-5.6 3.2-9.943 17.372-8.572 14.171 1.257 34.4 7.657 33.943 13.257zm-7.886 81.372c6.4 7.543-23.886 43.543-48.114 64s-33.372 17.714-39.772 10.171c-6.4-7.543-7.657-17.028 16.572-37.486 24.342-20.342 64.914-44.114 71.314-36.685zm59.543-54.286c6.4 3.2-3.543 35.429-13.829 55.771C641.371 831.314 634.63 832 628.23 828.8c-6.4-3.2-9.829-9.143.457-29.486 10.285-20.114 30.4-47.314 36.8-44.114zm135.657-3.314c1.143-8.686 61.6-8 100.686-2.972 39.085 5.143 42.057 12.572 40.914 21.257-1.029 8.686-5.829 15.315-44.914 10.172-39.086-5.029-97.829-19.772-96.686-28.457zm114.286-51.657c25.485 0 29.714 8.114 29.714 18.285s-4.229 18.286-29.714 18.286-62.858-8.114-62.858-18.286 37.372-18.285 62.858-18.285zm-12 98.057c24 8.685 25.142 17.828 21.714 27.314-3.314 9.486-10.057 15.886-34.172 7.2-24-8.686-56.342-28.914-53.028-38.4 3.428-9.6 41.257-4.8 65.486 3.886zM741.37 819.543c2.515 25.371-5.257 30.286-15.314 31.314s-18.628-2.286-21.143-27.771c-2.514-25.372 1.943-63.315 12-64.343 9.943-1.029 21.829 35.2 24.457 60.8zm91.2 64.571c13.029 21.943 7.886 29.715-.685 34.857-8.686 5.143-17.943 5.6-30.743-16.342-12.8-21.943-24.8-58.286-16-63.429 8.686-5.029 34.628 22.971 47.428 44.914zM787.086 905.6c8.343 24.343 1.714 30.857-7.772 34.171s-18.743 1.943-26.971-22.4c-8.229-24.228-12.572-62.4-2.857-65.714 9.714-3.2 29.485 29.714 37.6 53.943zm21.028-139.086c17.715 10.629 17.029 18.057 12.915 25.029-4.115 6.971-10.515 10.857-28.115.228s-40-31.885-35.771-38.857c4.228-6.971 33.371 2.972 50.971 13.6zM738.971 921.03c1.029 22.742-6.171 26.628-15.2 27.085-8.914.457-16.457-3.085-17.371-25.714-.914-22.629 5.029-56.229 14.057-56.571 9.029-.343 17.714 32.571 18.514 55.2zm84.572-206.172c14.171-1.371 16.8 2.972 17.371 8.572s-1.371 10.4-15.543 11.657c-14.171 1.257-35.2-1.257-35.771-6.972-.457-5.6 19.771-12 33.943-13.257zM868.8 846.171c24.229 20.458 23.086 30.058 16.571 37.486-6.4 7.657-15.542 10.4-39.771-10.171s-54.514-56.572-48.114-64c6.514-7.429 47.085 16.343 71.314 36.685zm-93.943-46.742c10.286 20.342 6.857 26.285.457 29.485-6.4 3.2-13.143 2.515-23.428-17.828s-20.115-52.686-13.829-55.772c6.4-3.314 26.514 23.886 36.8 44.115z" fill="#FEF8E2"/><path d="M695.771 726.171a10.286 5.943 90 1 0 11.886 0 10.286 5.943 90 1 0-11.886 0zm-20.457-.8a10.286 5.943 90 1 0 11.886 0 10.286 5.943 90 1 0-11.886 0zm41.029 0a10.286 5.943 90 1 0 11.886 0 10.286 5.943 90 1 0-11.886 0zm-62.857-2.171a10.286 5.943 90 1 0 11.885 0 10.286 5.943 90 1 0-11.885 0zm84.685 0a10.286 5.943 90 1 0 11.886 0 10.286 5.943 90 1 0-11.886 0zm-106.057-4.914a10.286 5.943 90 1 0 11.886 0 10.286 5.943 90 1 0-11.886 0zm127.429 0a10.286 5.943 90 1 0 11.886 0 10.286 5.943 90 1 0-11.886 0z" fill="#FDD835"/></svg>