<svg class="icon" viewBox="0 0 1024 1024" xmlns="http://www.w3.org/2000/svg" width="200" height="200"><defs><style>@font-face{font-family:feedback-iconfont;src:url(//at.alicdn.com/t/font_1031158_u69w8yhxdu.woff2?t=1630033759944) format(&quot;woff2&quot;),url(//at.alicdn.com/t/font_1031158_u69w8yhxdu.woff?t=1630033759944) format(&quot;woff&quot;),url(//at.alicdn.com/t/font_1031158_u69w8yhxdu.ttf?t=1630033759944) format(&quot;truetype&quot;)}</style></defs><path d="M846.934 367.388c-5.485-111.302-27.083-200.207-64.107-264.2-31.31-54.05-72.106-86.276-109.13-86.276-5.143 0-10.057.572-14.742 1.829-4.57-.8-9.256-1.372-13.941-1.372-7.085 0-13.942 1.143-20.34 3.314a57.283 57.283 0 0 0-19.884 11.885 71.788 71.788 0 0 0-5.828-3.086c-3.314-4.456-7.2-8.456-11.77-11.884-11.656-8.913-26.055-13.484-42.624-13.484-1.486 0-2.971 0-4.457.114C531.883 1.371 522.627 0 512.114 0c-10.627 0-19.997 1.6-27.997 4.342-1.6-.114-3.2-.114-4.8-.114-16.569 0-30.967 4.571-42.623 13.484-4.457 3.428-8.456 7.428-11.77 11.885-2.057.914-4 2.057-5.828 3.085a57.283 57.283 0 0 0-19.883-11.884c-6.285-2.172-13.142-3.314-20.341-3.314-4.685 0-9.37.457-13.941 1.371-4.8-1.257-9.714-1.828-14.742-1.828-37.024 0-77.82 32.225-109.13 86.276-37.025 63.993-58.508 152.783-64.107 264.199-7.77 155.411-8.685 262.256-3.2 346.361 3.542 53.48 9.599 96.79 18.74 132.443 11.314 44.223 27.198 76.677 48.681 99.074 23.883 24.912 57.022 43.652 98.618 55.537 33.025 9.485 64.564 12.798 88.447 13.713 10.284 6.056 22.283 9.37 34.625 9.37h94.732c12.341 0 24.112-3.314 34.396-9.256 24.226-.686 57.365-3.771 92.218-13.827 41.481-11.999 74.62-30.625 98.504-55.537 21.483-22.397 37.481-54.85 48.68-99.074 9.142-35.654 15.198-78.963 18.74-132.443 5.6-84.562 4.572-191.407-3.199-346.475z" fill="#25467A"/><path d="M557.138 974.406H463.32a17.655 17.655 0 0 1-17.713-17.713v-29.368a17.655 17.655 0 0 1 17.713-17.712h93.818a17.655 17.655 0 0 1 17.712 17.712v29.368c.114 9.713-7.885 17.713-17.712 17.713z" fill="#FFF59D"/><path d="M767.629 381.786c0-11.085-10.513-20.34-24.798-23.197 14.284-2.857 24.798-12.113 24.798-23.198 0-11.656-11.542-21.255-26.969-23.54 12.113-3.314 20.57-11.085 20.57-20.34 0-10.514-11.2-19.313-26.17-21.484 0-.229-.113-.571-.113-.8 9.484-2.857 16.112-9.37 16.112-17.027 0-9.713-10.856-17.712-24.454-18.398 7.542-2.4 12.684-7.542 12.684-13.484 0-8.227-10.17-14.97-22.74-14.97h-1.486c6.628-2.628 11.085-7.427 11.085-12.798 0-8.228-10.17-14.97-22.74-14.97-1.144 0-2.286.114-3.429.229-.114-.572-.229-1.029-.343-1.486 3.314-2.171 5.485-5.142 5.485-8.456 0-6.4-7.77-11.656-17.255-11.656-8.113 0-14.855 3.771-16.684 8.913-1.714-1.257-3.428-2.514-5.142-3.656 6.97-1.943 11.999-6.514 11.999-11.885.114-7.313-8.685-13.37-19.541-13.484-2.171 0-4.114.114-6.057.571.229-1.257.343-2.628.343-4.113 0-7.885-4.114-14.17-20.455-14.17-1.6 0-3.085.114-4.57.228 2.856-7.427-2.743-17.712-13.37-23.654-5.143-2.857-10.4-4.228-15.199-4.114.115-.914.115-1.828.115-2.743 0-7.884-4.114-14.17-20.455-14.17-2.857 0-5.257.23-7.428.572-2.514-.8-5.37-1.257-8.342-1.486a221.652 221.652 0 0 0-5.257-2.742c1.029-1.371 1.715-2.971 1.715-4.685 0-5.714-6.857-10.285-15.199-10.285-6.056 0-11.313 2.4-13.827 5.942-1.828-5.828-9.484-10.17-18.74-10.17-9.37 0-17.141 4.457-18.856 10.399-2.285-3.657-7.656-6.17-13.94-6.17-8.343 0-15.2 4.57-15.2 10.284 0 2.285 1.144 4.456 3.086 6.17-.8.343-1.485.8-2.285 1.257-.8-.114-1.714-.114-2.514-.114-3.657 0-7.085.572-10.17 1.486a43.773 43.773 0 0 0-7.2-.572c-16.227 0-20.455 6.4-20.455 14.17 0 .914 0 1.943.115 2.743-4.571 0-9.714 1.371-14.627 4.114-10.628 5.942-16.227 16.226-13.37 23.654-1.486-.114-3.2-.228-5.028-.228-16.227 0-20.455 6.399-20.455 14.17 0 1.485.114 2.856.457 4.227-1.714-.342-3.657-.57-5.6-.685-10.97-.114-19.883 5.6-19.997 12.913-.114 5.028 4 9.37 10.056 11.77-1.371.914-2.743 1.942-4.114 2.857-2.514-4.228-8.799-7.314-15.998-7.314-9.485 0-17.255 5.257-17.255 11.656 0 3.428 2.17 6.4 5.599 8.57-.114.458-.229 1.029-.343 1.486-1.143-.114-2.4-.229-3.657-.229-12.57 0-22.74 6.743-22.74 14.97 0 5.485 4.457 10.285 11.085 12.799h-1.486c-12.57 0-22.74 6.742-22.74 14.97 0 5.713 4.8 10.627 11.884 13.14 0 .115-.114.23-.114.344-13.142 1.028-23.426 8.913-23.426 18.398 0 6.856 5.37 12.913 13.37 16.112-.114.8-.229 1.486-.343 2.286-13.484 2.742-23.312 11.084-23.312 20.912 0 9.141 8.57 17.026 20.684 20.34-15.313 2.286-26.854 11.999-26.854 23.54 0 11.085 10.513 20.341 24.797 23.198-14.284 2.857-24.797 12.113-24.797 23.197 0 11.085 10.627 20.455 25.025 23.198-14.398 2.742-25.025 12.113-25.025 23.311s10.627 20.455 25.025 23.198c-14.398 2.742-25.025 12.113-25.025 23.311 0 11.085 10.513 20.341 24.797 23.198-14.284 2.857-24.797 12.113-24.797 23.197 0 11.085 10.627 20.455 25.025 23.198-14.398 2.742-25.025 12.113-25.025 23.311 0 11.085 10.627 20.455 25.025 23.198-14.398 2.742-25.025 12.113-25.025 23.311s10.627 20.455 25.025 23.198c-14.398 2.742-25.025 12.113-25.025 23.312s10.627 20.454 25.025 23.197c-14.398 2.742-25.025 12.113-25.025 23.312 0 11.084 10.627 20.454 25.025 23.197-14.398 2.743-25.025 12.113-25.025 23.197 0 11.085 10.627 20.455 25.025 23.198-14.398 2.742-25.025 12.113-25.025 23.312s10.627 20.454 25.025 23.197c-14.398 2.743-25.025 12.113-25.025 23.312 0 13.37 15.198 24.111 34.053 24.111 7.542 0 14.398-1.714 20.112-4.685 32.453 47.195 111.416 80.448 203.634 80.448 91.19 0 169.467-32.568 202.606-79.077 5.028 2.057 10.742 3.2 16.913 3.2 18.855 0 34.053-10.742 34.053-24.112 0-11.084-10.627-20.454-25.026-23.311 14.399-2.743 25.026-12.113 25.026-23.198s-10.627-20.455-25.026-23.311c14.399-2.743 25.026-12.113 25.026-23.198 0-11.084-10.627-20.455-25.026-23.197 14.399-2.743 25.026-12.113 25.026-23.198 0-11.084-10.627-20.455-25.026-23.311 14.399-2.743 25.026-12.113 25.026-23.198s-10.627-20.455-25.026-23.311c14.399-2.743 25.026-12.113 25.026-23.198s-10.627-20.455-25.026-23.312c14.399-2.742 25.026-12.112 25.026-23.197 0-11.084-10.627-20.455-25.026-23.312 14.399-2.742 25.026-12.113 25.026-23.197 0-11.085-10.513-20.34-24.797-23.197 14.284-2.857 24.797-12.113 24.797-23.198 0-11.084-10.627-20.455-25.026-23.312 14.399-2.742 25.026-12.112 25.026-23.197s-10.627-20.455-25.026-23.312c14.627-2.742 25.255-12.113 25.255-23.197zM638.843 146.041c.114 0 .114 0 0 0z" fill="#FFEE58"/><path d="M550.739 161.468c-2.172-6.4-7.771-11.77-17.941-14.742 10.741-2.742 15.998-7.999 17.94-14.284 2.057 6.4 7.2 11.542 17.941 14.284-10.17 2.972-15.77 8.342-17.94 14.742zm-74.964 0c-2.17-6.4-7.77-11.77-17.94-14.742 10.741-2.742 15.998-7.999 17.94-14.284 2.057 6.4 7.2 11.542 17.941 14.284-10.284 2.972-15.77 8.342-17.94 14.742zm70.507-45.024c-1.943-5.942-7.085-10.742-16.455-13.484 9.827-2.514 14.627-7.314 16.455-13.141 1.828 5.827 6.628 10.513 16.455 13.14-9.37 2.743-14.398 7.543-16.455 13.485zm-68.564 0c-1.943-5.942-7.085-10.742-16.455-13.484 9.827-2.514 14.627-7.314 16.455-13.141 1.828 5.827 6.628 10.513 16.455 13.14-9.37 2.743-14.512 7.543-16.455 13.485zm52.451-32.91c-.8-2.4-2.97-4.457-6.856-5.6 4.114-1.028 6.056-2.97 6.856-5.485.8 2.4 2.743 4.342 6.857 5.485-4 1.143-6.057 3.086-6.857 5.6zm-36.338 0c-.8-2.4-2.971-4.457-6.857-5.6 4.114-1.028 6.057-2.97 6.857-5.485.8 2.4 2.742 4.342 6.856 5.485-3.885 1.143-5.942 3.086-6.856 5.6zm-83.42 79.99c-1.942-5.942-7.085-10.741-16.455-13.484 9.828-2.514 14.627-7.313 16.455-13.141 1.829 5.828 6.628 10.513 16.456 13.141-9.37 2.743-14.513 7.542-16.456 13.485zm213.12 0c-1.943-5.942-7.086-10.741-16.456-13.484 9.828-2.514 14.627-7.313 16.455-13.141 1.829 5.828 6.628 10.513 16.456 13.141-9.37 2.743-14.513 7.542-16.456 13.485zm.228 48.11c-2.171-6.4-7.77-11.77-17.94-14.742 10.74-2.742 15.997-7.999 17.94-14.284 2.057 6.4 7.2 11.542 17.94 14.284-10.17 2.971-15.769 8.342-17.94 14.742zm0 46.737c-2.171-6.4-7.77-11.77-17.94-14.741 10.74-2.743 15.997-8 17.94-14.284 2.057 6.4 7.2 11.541 17.94 14.284-10.17 2.971-15.769 8.342-17.94 14.741zm0 46.738c-2.171-6.4-7.77-11.77-17.94-14.741 10.74-2.743 15.997-8 17.94-14.285 2.057 6.4 7.2 11.542 17.94 14.285-10.17 3.085-15.769 8.342-17.94 14.74zm0 92.447c-2.171-6.4-7.77-11.77-17.94-14.742 10.74-2.742 15.997-7.999 17.94-14.284 2.057 6.4 7.2 11.542 17.94 14.284-10.17 2.972-15.769 8.342-17.94 14.742zm0 46.737c-2.171-6.399-7.77-11.77-17.94-14.74 10.74-2.743 15.997-8 17.94-14.285 2.057 6.4 7.2 11.542 17.94 14.284-10.17 3.085-15.769 8.342-17.94 14.741zm0 46.852c-2.171-6.4-7.77-11.77-17.94-14.741 10.74-2.743 15.997-8 17.94-14.284 2.057 6.4 7.2 11.541 17.94 14.284-10.17 2.971-15.769 8.228-17.94 14.741zm0 46.738c-2.171-6.4-7.77-11.77-17.94-14.741 10.74-2.743 15.997-8 17.94-14.285 2.057 6.4 7.2 11.542 17.94 14.285-10.17 2.97-15.769 8.227-17.94 14.74zm0 45.595c-2.171-6.4-7.77-11.77-17.94-14.741 10.74-2.743 15.997-8 17.94-14.285 2.057 6.4 7.2 11.542 17.94 14.285-10.17 2.97-15.769 8.341-17.94 14.74zm0 46.852c-2.171-6.4-7.77-11.77-17.94-14.742 10.74-2.742 15.997-7.999 17.94-14.284 2.057 6.4 7.2 11.542 17.94 14.284-10.17 2.972-15.769 8.228-17.94 14.742zm0 46.737c-2.171-6.399-7.77-11.77-17.94-14.74 10.74-2.743 15.997-8 17.94-14.285 2.057 6.4 7.2 11.542 17.94 14.284-10.17 2.971-15.769 8.228-17.94 14.741zm0 46.738c-2.171-6.4-7.77-11.77-17.94-14.741 10.74-2.743 15.997-8 17.94-14.284 2.057 6.399 7.2 11.541 17.94 14.284-10.17 2.97-15.769 8.227-17.94 14.74zm0 45.71c-2.171-6.4-7.77-11.771-17.94-14.742 10.74-2.743 15.997-8 17.94-14.284 2.057 6.4 7.2 11.541 17.94 14.284-10.17 2.971-15.769 8.228-17.94 14.741zm0 46.737c-2.171-6.4-7.77-11.77-17.94-14.741 10.74-2.743 15.997-8 17.94-14.285 2.057 6.4 7.2 11.542 17.94 14.285-10.17 2.97-15.769 8.227-17.94 14.74zm0 46.737c-2.171-6.399-7.77-11.77-17.94-14.74 10.74-2.743 15.997-8 17.94-14.285 2.057 6.4 7.2 11.542 17.94 14.284-10.17 2.971-15.769 8.228-17.94 14.741zm0 46.738c-2.171-6.4-7.77-11.77-17.94-14.741 10.74-2.743 15.997-8 17.94-14.284 2.057 6.399 7.2 11.541 17.94 14.284-10.17 2.97-15.769 8.342-17.94 14.741zM474.747 211.634c-2.171-6.4-7.77-11.77-17.94-14.742 10.74-2.742 15.997-7.999 17.94-14.284 2.057 6.4 7.2 11.542 17.94 14.284-10.17 2.971-15.769 8.342-17.94 14.742zm0 46.737c-2.171-6.4-7.77-11.77-17.94-14.741 10.74-2.743 15.997-8 17.94-14.284 2.057 6.4 7.2 11.541 17.94 14.284-10.17 2.971-15.769 8.342-17.94 14.741zm0 46.738c-2.171-6.4-7.77-11.77-17.94-14.741 10.74-2.743 15.997-8 17.94-14.285 2.057 6.4 7.2 11.542 17.94 14.285-10.17 3.085-15.769 8.342-17.94 14.74zm0 46.852c-2.171-6.4-7.77-11.77-17.94-14.741 10.74-2.743 15.997-8 17.94-14.285 2.057 6.4 7.2 11.542 17.94 14.285-10.17 2.97-15.769 8.227-17.94 14.74zm0 45.595c-2.171-6.4-7.77-11.77-17.94-14.742 10.74-2.742 15.997-7.999 17.94-14.284 2.057 6.4 7.2 11.542 17.94 14.284-10.17 2.972-15.769 8.342-17.94 14.742zm0 46.737c-2.171-6.399-7.77-11.77-17.94-14.74 10.74-2.743 15.997-8 17.94-14.285 2.057 6.4 7.2 11.542 17.94 14.284-10.17 3.085-15.769 8.342-17.94 14.741zm0 139.185c-2.171-6.4-7.77-11.77-17.94-14.741 10.74-2.743 15.997-8 17.94-14.285 2.057 6.4 7.2 11.542 17.94 14.285-10.17 2.97-15.769 8.341-17.94 14.74zm0 46.852c-2.171-6.4-7.77-11.77-17.94-14.742 10.74-2.742 15.997-7.999 17.94-14.284 2.057 6.4 7.2 11.542 17.94 14.284-10.17 2.972-15.769 8.228-17.94 14.742zm0 46.737c-2.171-6.399-7.77-11.77-17.94-14.74 10.74-2.743 15.997-8 17.94-14.285 2.057 6.4 7.2 11.542 17.94 14.284-10.17 2.971-15.769 8.228-17.94 14.741zm0 46.738c-2.171-6.4-7.77-11.77-17.94-14.741 10.74-2.743 15.997-8 17.94-14.284 2.057 6.399 7.2 11.541 17.94 14.284-10.17 2.97-15.769 8.227-17.94 14.74zm0 45.71c-2.171-6.4-7.77-11.771-17.94-14.742 10.74-2.743 15.997-8 17.94-14.284 2.057 6.4 7.2 11.541 17.94 14.284-10.17 2.971-15.769 8.228-17.94 14.741zm0 46.737c-2.171-6.4-7.77-11.77-17.94-14.741 10.74-2.743 15.997-8 17.94-14.285 2.057 6.4 7.2 11.542 17.94 14.285-10.17 2.97-15.769 8.227-17.94 14.74zm0 46.737c-2.171-6.399-7.77-11.77-17.94-14.74 10.74-2.743 15.997-8 17.94-14.285 2.057 6.4 7.2 11.542 17.94 14.284-10.17 2.971-15.769 8.228-17.94 14.741zm0 46.738c-2.171-6.4-7.77-11.77-17.94-14.741 10.74-2.743 15.997-8 17.94-14.284 2.057 6.399 7.2 11.541 17.94 14.284-10.17 2.97-15.769 8.342-17.94 14.741zm-74.506-698.093c-2.171-6.4-7.77-11.77-17.94-14.742 10.74-2.742 15.997-7.999 17.94-14.284 2.057 6.4 7.2 11.542 17.94 14.284-10.17 2.971-15.769 8.342-17.94 14.742zm0 46.737c-2.171-6.4-7.77-11.77-17.94-14.741 10.74-2.743 15.997-8 17.94-14.284 2.057 6.4 7.2 11.541 17.94 14.284-10.17 2.971-15.769 8.342-17.94 14.741zm0 46.738c-2.171-6.4-7.77-11.77-17.94-14.741 10.74-2.743 15.997-8 17.94-14.285 2.057 6.4 7.2 11.542 17.94 14.285-10.17 3.085-15.769 8.342-17.94 14.74zm0 92.447c-2.171-6.4-7.77-11.77-17.94-14.742 10.74-2.742 15.997-7.999 17.94-14.284 2.057 6.4 7.2 11.542 17.94 14.284-10.17 2.972-15.769 8.342-17.94 14.742zm0 46.737c-2.171-6.399-7.77-11.77-17.94-14.74 10.74-2.743 15.997-8 17.94-14.285 2.057 6.4 7.2 11.542 17.94 14.284-10.17 3.085-15.769 8.342-17.94 14.741zm0 46.852c-2.171-6.4-7.77-11.77-17.94-14.741 10.74-2.743 15.997-8 17.94-14.284 2.057 6.4 7.2 11.541 17.94 14.284-10.17 2.971-15.769 8.228-17.94 14.741zm0 46.738c-2.171-6.4-7.77-11.77-17.94-14.741 10.74-2.743 15.997-8 17.94-14.285 2.057 6.4 7.2 11.542 17.94 14.285-10.17 2.97-15.769 8.227-17.94 14.74zm0 45.595c-2.171-6.4-7.77-11.77-17.94-14.741 10.74-2.743 15.997-8 17.94-14.285 2.057 6.4 7.2 11.542 17.94 14.285-10.17 2.97-15.769 8.341-17.94 14.74zm0 46.852c-2.171-6.4-7.77-11.77-17.94-14.742 10.74-2.742 15.997-7.999 17.94-14.284 2.057 6.4 7.2 11.542 17.94 14.284-10.17 2.972-15.769 8.228-17.94 14.742zm0 46.737c-2.171-6.399-7.77-11.77-17.94-14.74 10.74-2.743 15.997-8 17.94-14.285 2.057 6.4 7.2 11.542 17.94 14.284-10.17 2.971-15.769 8.228-17.94 14.741zm0 46.738c-2.171-6.4-7.77-11.77-17.94-14.741 10.74-2.743 15.997-8 17.94-14.284 2.057 6.399 7.2 11.541 17.94 14.284-10.17 2.97-15.769 8.227-17.94 14.74zm0 45.71c-2.171-6.4-7.77-11.771-17.94-14.742 10.74-2.743 15.997-8 17.94-14.284 2.057 6.4 7.2 11.541 17.94 14.284-10.17 2.971-15.769 8.228-17.94 14.741zm0 46.737c-2.171-6.4-7.77-11.77-17.94-14.741 10.74-2.743 15.997-8 17.94-14.285 2.057 6.4 7.2 11.542 17.94 14.285-10.17 2.97-15.769 8.227-17.94 14.74zm0 46.737c-2.171-6.399-7.77-11.77-17.94-14.74 10.74-2.743 15.997-8 17.94-14.285 2.057 6.4 7.2 11.542 17.94 14.284-10.17 2.971-15.769 8.228-17.94 14.741zm0 46.738c-2.171-6.4-7.77-11.77-17.94-14.741 10.74-2.743 15.997-8 17.94-14.284 2.057 6.399 7.2 11.541 17.94 14.284-10.17 2.97-15.769 8.342-17.94 14.741zm-68.792-698.093c-2.171-6.4-7.77-11.77-17.941-14.742 10.742-2.742 15.998-7.999 17.94-14.284 2.058 6.4 7.2 11.542 17.942 14.284-10.285 2.971-15.77 8.342-17.941 14.742zm0 46.737c-2.171-6.4-7.77-11.77-17.941-14.741 10.742-2.743 15.998-8 17.94-14.284 2.058 6.4 7.2 11.541 17.942 14.284-10.285 2.971-15.77 8.342-17.941 14.741zm0 46.738c-2.171-6.4-7.77-11.77-17.941-14.741 10.742-2.743 15.998-8 17.94-14.285 2.058 6.4 7.2 11.542 17.942 14.285-10.285 3.085-15.77 8.342-17.941 14.74zm0 46.852c-2.171-6.4-7.77-11.77-17.941-14.741 10.742-2.743 15.998-8 17.94-14.285 2.058 6.4 7.2 11.542 17.942 14.285-10.285 2.97-15.77 8.227-17.941 14.74zm0 92.332c-2.171-6.399-7.77-11.77-17.941-14.74 10.742-2.743 15.998-8 17.94-14.285 2.058 6.4 7.2 11.542 17.942 14.284-10.285 3.085-15.77 8.342-17.941 14.741zm0 46.852c-2.171-6.4-7.77-11.77-17.941-14.741 10.742-2.743 15.998-8 17.94-14.284 2.058 6.4 7.2 11.541 17.942 14.284-10.285 2.971-15.77 8.228-17.941 14.741zm0 46.738c-2.171-6.4-7.77-11.77-17.941-14.741 10.742-2.743 15.998-8 17.94-14.285 2.058 6.4 7.2 11.542 17.942 14.285-10.285 2.97-15.77 8.227-17.941 14.74zm0 45.595c-2.171-6.4-7.77-11.77-17.941-14.741 10.742-2.743 15.998-8 17.94-14.285 2.058 6.4 7.2 11.542 17.942 14.285-10.285 2.97-15.77 8.341-17.941 14.74zm0 46.852c-2.171-6.4-7.77-11.77-17.941-14.742 10.742-2.742 15.998-7.999 17.94-14.284 2.058 6.4 7.2 11.542 17.942 14.284-10.285 2.972-15.77 8.228-17.941 14.742zm0 46.737c-2.171-6.399-7.77-11.77-17.941-14.74 10.742-2.743 15.998-8 17.94-14.285 2.058 6.4 7.2 11.542 17.942 14.284-10.285 2.971-15.77 8.228-17.941 14.741zm0 46.738c-2.171-6.4-7.77-11.77-17.941-14.741 10.742-2.743 15.998-8 17.94-14.284 2.058 6.399 7.2 11.541 17.942 14.284-10.285 2.97-15.77 8.227-17.941 14.74zm0 45.71c-2.171-6.4-7.77-11.771-17.941-14.742 10.742-2.743 15.998-8 17.94-14.284 2.058 6.4 7.2 11.541 17.942 14.284-10.285 2.971-15.77 8.228-17.941 14.741zm0 46.737c-2.171-6.4-7.77-11.77-17.941-14.741 10.742-2.743 15.998-8 17.94-14.285 2.058 6.4 7.2 11.542 17.942 14.285-10.285 2.97-15.77 8.227-17.941 14.74zm0 46.737c-2.171-6.399-7.77-11.77-17.941-14.74 10.742-2.743 15.998-8 17.94-14.285 2.058 6.4 7.2 11.542 17.942 14.284-10.285 2.971-15.77 8.228-17.941 14.741zm0 46.738c-2.171-6.4-7.77-11.77-17.941-14.741 10.742-2.743 15.998-8 17.94-14.284 2.058 6.399 7.2 11.541 17.942 14.284-10.285 2.97-15.77 8.342-17.941 14.741zm361.102-698.093c-2.17-6.4-7.77-11.77-17.94-14.742 10.741-2.742 15.998-7.999 17.94-14.284 2.057 6.4 7.2 11.542 17.941 14.284-10.17 2.971-15.77 8.342-17.94 14.742zm0 46.737c-2.17-6.4-7.77-11.77-17.94-14.741 10.741-2.743 15.998-8 17.94-14.284 2.057 6.4 7.2 11.541 17.941 14.284-10.17 2.971-15.77 8.342-17.94 14.741zm0 46.738c-2.17-6.4-7.77-11.77-17.94-14.741 10.741-2.743 15.998-8 17.94-14.285 2.057 6.4 7.2 11.542 17.941 14.285-10.17 3.085-15.77 8.342-17.94 14.74zm0 46.852c-2.17-6.4-7.77-11.77-17.94-14.741 10.741-2.743 15.998-8 17.94-14.285 2.057 6.4 7.2 11.542 17.941 14.285-10.17 2.97-15.77 8.227-17.94 14.74zm0 92.332c-2.17-6.399-7.77-11.77-17.94-14.74 10.741-2.743 15.998-8 17.94-14.285 2.057 6.4 7.2 11.542 17.941 14.284-10.17 3.085-15.77 8.342-17.94 14.741zm0 46.852c-2.17-6.4-7.77-11.77-17.94-14.741 10.741-2.743 15.998-8 17.94-14.284 2.057 6.4 7.2 11.541 17.941 14.284-10.17 2.971-15.77 8.228-17.94 14.741zm0 46.738c-2.17-6.4-7.77-11.77-17.94-14.741 10.741-2.743 15.998-8 17.94-14.285 2.057 6.4 7.2 11.542 17.941 14.285-10.17 2.97-15.77 8.227-17.94 14.74zm0 45.595c-2.17-6.4-7.77-11.77-17.94-14.741 10.741-2.743 15.998-8 17.94-14.285 2.057 6.4 7.2 11.542 17.941 14.285-10.17 2.97-15.77 8.341-17.94 14.74zm0 46.852c-2.17-6.4-7.77-11.77-17.94-14.742 10.741-2.742 15.998-7.999 17.94-14.284 2.057 6.4 7.2 11.542 17.941 14.284-10.17 2.972-15.77 8.228-17.94 14.742zm0 46.737c-2.17-6.399-7.77-11.77-17.94-14.74 10.741-2.743 15.998-8 17.94-14.285 2.057 6.4 7.2 11.542 17.941 14.284-10.17 2.971-15.77 8.228-17.94 14.741zm0 46.738c-2.17-6.4-7.77-11.77-17.94-14.741 10.741-2.743 15.998-8 17.94-14.284 2.057 6.399 7.2 11.541 17.941 14.284-10.17 2.97-15.77 8.227-17.94 14.74zm0 45.71c-2.17-6.4-7.77-11.771-17.94-14.742 10.741-2.743 15.998-8 17.94-14.284 2.057 6.4 7.2 11.541 17.941 14.284-10.17 2.971-15.77 8.228-17.94 14.741zm0 46.737c-2.17-6.4-7.77-11.77-17.94-14.741 10.741-2.743 15.998-8 17.94-14.285 2.057 6.4 7.2 11.542 17.941 14.285-10.17 2.97-15.77 8.227-17.94 14.74zm0 46.737c-2.17-6.399-7.77-11.77-17.94-14.74 10.741-2.743 15.998-8 17.94-14.285 2.057 6.4 7.2 11.542 17.941 14.284-10.17 2.971-15.77 8.228-17.94 14.741zm0 46.738c-2.17-6.4-7.77-11.77-17.94-14.741 10.741-2.743 15.998-8 17.94-14.284 2.057 6.399 7.2 11.541 17.941 14.284-10.17 2.97-15.77 8.342-17.94 14.741zM549.253 211.634c-2.171-6.4-7.77-11.77-17.94-14.742 10.74-2.742 15.997-7.999 17.94-14.284 2.057 6.4 7.2 11.542 17.94 14.284-10.17 2.971-15.769 8.342-17.94 14.742zm0 46.737c-2.171-6.4-7.77-11.77-17.94-14.741 10.74-2.743 15.997-8 17.94-14.284 2.057 6.4 7.2 11.541 17.94 14.284-10.17 2.971-15.769 8.342-17.94 14.741zm0 46.738c-2.171-6.4-7.77-11.77-17.94-14.741 10.74-2.743 15.997-8 17.94-14.285 2.057 6.4 7.2 11.542 17.94 14.285-10.17 3.085-15.769 8.342-17.94 14.74zm0 46.852c-2.171-6.4-7.77-11.77-17.94-14.741 10.74-2.743 15.997-8 17.94-14.285 2.057 6.4 7.2 11.542 17.94 14.285-10.17 2.97-15.769 8.227-17.94 14.74zm0 45.595c-2.171-6.4-7.77-11.77-17.94-14.742 10.74-2.742 15.997-7.999 17.94-14.284 2.057 6.4 7.2 11.542 17.94 14.284-10.17 2.972-15.769 8.342-17.94 14.742zm0 46.737c-2.171-6.399-7.77-11.77-17.94-14.74 10.74-2.743 15.997-8 17.94-14.285 2.057 6.4 7.2 11.542 17.94 14.284-10.17 3.085-15.769 8.342-17.94 14.741zm0 139.185c-2.171-6.4-7.77-11.77-17.94-14.741 10.74-2.743 15.997-8 17.94-14.285 2.057 6.4 7.2 11.542 17.94 14.285-10.17 2.97-15.769 8.341-17.94 14.74zm0 46.852c-2.171-6.4-7.77-11.77-17.94-14.742 10.74-2.742 15.997-7.999 17.94-14.284 2.057 6.4 7.2 11.542 17.94 14.284-10.17 2.972-15.769 8.228-17.94 14.742zm0 46.737c-2.171-6.399-7.77-11.77-17.94-14.74 10.74-2.743 15.997-8 17.94-14.285 2.057 6.4 7.2 11.542 17.94 14.284-10.17 2.971-15.769 8.228-17.94 14.741zm0 46.738c-2.171-6.4-7.77-11.77-17.94-14.741 10.74-2.743 15.997-8 17.94-14.284 2.057 6.399 7.2 11.541 17.94 14.284-10.17 2.97-15.769 8.227-17.94 14.74zm0 45.71c-2.171-6.4-7.77-11.771-17.94-14.742 10.74-2.743 15.997-8 17.94-14.284 2.057 6.4 7.2 11.541 17.94 14.284-10.17 2.971-15.769 8.228-17.94 14.741zm0 46.737c-2.171-6.4-7.77-11.77-17.94-14.741 10.74-2.743 15.997-8 17.94-14.285 2.057 6.4 7.2 11.542 17.94 14.285-10.17 2.97-15.769 8.227-17.94 14.74zm0 46.737c-2.171-6.399-7.77-11.77-17.94-14.74 10.74-2.743 15.997-8 17.94-14.285 2.057 6.4 7.2 11.542 17.94 14.284-10.17 2.971-15.769 8.228-17.94 14.741zm0 46.738c-2.171-6.4-7.77-11.77-17.94-14.741 10.74-2.743 15.997-8 17.94-14.284 2.057 6.399 7.2 11.541 17.94 14.284-10.17 2.97-15.769 8.342-17.94 14.741z" fill="#F5A816"/><path d="M382.643 68.221c-19.198-6.742-138.042 48.337-153.469 301.68s-15.426 474.576 61.365 540.055c81.248 69.249 223.518 59.764 232.888 35.767 7.885-20.112-94.39-24.911-156.896-98.389-90.505-106.16-79.077-303.966-65.707-514.914C313.965 121.358 405.04 76.106 382.643 68.221z" fill="#9CCC65"/><path d="M641.357 68.221c19.198-6.742 138.156 48.337 153.583 301.68s15.427 474.69-61.365 540.055c-81.362 69.249-223.518 59.879-233.002 35.881-7.885-20.112 94.39-24.911 156.896-98.389 90.505-106.16 79.077-303.966 65.707-514.914C709.921 121.358 618.96 76.106 641.357 68.221z" fill="#9CCC65"/><path d="M353.275 68.221c-15.656-6.742-112.902 48.337-125.472 301.68s-12.684 474.69 50.166 540.055c66.393 69.249 231.403 60.336 239.173 36.224 6.514-20.112-125.7-25.483-177.009-98.846-73.934-106.16-64.564-303.966-53.708-514.914 10.628-211.062 85.02-256.314 66.85-264.199z" fill="#DCE775"/><path d="M670.725 68.221c15.656-6.742 112.902 48.337 125.472 301.68 12.684 253.344 12.684 474.69-50.166 540.055-66.393 69.249-231.403 60.336-239.173 36.224-6.514-20.112 125.7-25.483 177.009-98.846 73.934-106.16 64.564-303.966 53.708-514.914-10.628-211.062-85.134-256.314-66.85-264.199z" fill="#DCE775"/><path d="M512 547.025c-35.31 0-63.993-28.683-63.993-63.993 0-7.085 5.714-12.799 12.799-12.799s12.798 5.714 12.798 12.799c0 21.255 17.256 38.396 38.396 38.396s38.396-17.141 38.396-38.396c0-7.085 5.713-12.799 12.798-12.799s12.799 5.714 12.799 12.799c0 35.31-28.683 63.993-63.993 63.993zM345.619 380.643a38.396 38.396 0 1 0 76.791 0 38.396 38.396 0 1 0-76.791 0zm255.971 0a38.396 38.396 0 1 0 76.791 0 38.396 38.396 0 1 0-76.791 0z" fill="#25467A"/><path d="M332.82 444.636h-51.194c-14.17 0-25.597 11.427-25.597 25.597s11.427 25.597 25.597 25.597h51.194c14.17 0 25.597-11.427 25.597-25.597s-11.427-25.597-25.597-25.597zm409.554 0H691.18c-14.17 0-25.597 11.427-25.597 25.597s11.427 25.597 25.597 25.597h51.194c14.17 0 25.597-11.427 25.597-25.597s-11.427-25.597-25.597-25.597z" fill="#FFF59D"/></svg>