<svg class="icon" viewBox="0 0 1024 1024" xmlns="http://www.w3.org/2000/svg" width="200" height="200"><defs><style>@font-face{font-family:feedback-iconfont;src:url(//at.alicdn.com/t/font_1031158_u69w8yhxdu.woff2?t=1630033759944) format(&quot;woff2&quot;),url(//at.alicdn.com/t/font_1031158_u69w8yhxdu.woff?t=1630033759944) format(&quot;woff&quot;),url(//at.alicdn.com/t/font_1031158_u69w8yhxdu.ttf?t=1630033759944) format(&quot;truetype&quot;)}</style></defs><path d="M460.817 742.4a281.6 281.6 0 1 0 563.2 0 281.6 281.6 0 1 0-563.2 0z" fill="#25467A"/><path d="M703.4 290.08a311.109 311.109 0 0 1 51.84-44.571 300.754 300.754 0 0 1 64-33.2c-25.988-23.143-75.223-58.938-140.366-60.869a184 184 0 0 0-25.6 1.029 475.714 475.714 0 0 1 25.223-62.023 465.486 465.486 0 0 1 38.4-64.606 330.663 330.663 0 0 0-89.223 10.286c-66.045 16.925-109.177 50-122.365 60.571-1.795 1.417-3.2 2.72-4.092 3.497A222.389 222.389 0 0 0 409.64 0a222.183 222.183 0 0 0-91.52 100.274c-.903-.777-2.286-2.08-4.103-3.497-13.177-10.594-56.32-43.668-122.365-60.571A330.571 330.571 0 0 0 102.44 25.92a467.749 467.749 0 0 1 38.4 64.606 475.531 475.531 0 0 1 25.212 62.023 184 184 0 0 0-25.6-1.029C75.309 153.451 26.017 189.234.04 212.377a300.754 300.754 0 0 1 64 33.2 312 312 0 0 1 51.84 44.572C-2.268 403.92-.097 608.937.017 620.309c.64 45.714 12.572 252.902 136.572 344 26.491 19.508 50.56 28.422 72.708 35.017 54.423 16.4 116.435 24.674 183.955 24.674 5.382 0 10.754 0 16.388-.126 5.634.126 11.006.126 16.377.126 67.589 0 129.543-8.274 184-24.674 22.137-6.595 46.206-15.509 72.697-35.017 124.035-91.098 136-298.286 136.583-344 .069-11.372 2.24-216.389-115.897-330.229z" fill="#25467A"/><path d="M749.972 208.8a273.337 273.337 0 0 0-105.303-7.223c-71.486 9.143-120.286 44.572-141.166 61.897l109.931 75.955A183.623 183.623 0 0 1 749.972 208.8zm-680.686 0a273.337 273.337 0 0 1 105.303-7.223c71.485 9.143 120.274 44.572 141.165 61.897L205.823 339.43a186.103 186.103 0 0 0-55.92-89.52 184.949 184.949 0 0 0-80.617-41.11z" fill="#73A22C"/><path d="M179.24 81.6a261.886 261.886 0 0 1 166.4 128 202.743 202.743 0 0 1 64-153.6v230.4H256.017a306.846 306.846 0 0 0-12.8-89.6A309.714 309.714 0 0 0 179.24 81.6z" fill="#81B532"/><path d="M640.017 81.6a261.886 261.886 0 0 0-166.4 128 202.743 202.743 0 0 0-64-153.6v230.4h153.6a306.069 306.069 0 0 1 12.8-89.6 309.497 309.497 0 0 1 64-115.2z" fill="#81B532"/><path d="M652.074 311.543c-19.92-14.857-38.148-21.612-56.937-27.429-36.857-11.268-97.828-24.96-185.497-23.188-87.668-1.772-148.64 11.92-185.508 23.188-18.789 5.783-37.018 12.572-56.938 27.429C59.286 391.383 50.623 575.977 51.263 621.154c.731 50.4 14.96 231.532 115.931 306.286 20.412 15.177 39.12 21.989 56.938 27.429 35.577 10.811 96.308 24.411 185.508 22.548 89.2 1.863 149.932-11.737 185.497-22.548 17.829-5.395 36.572-12.206 56.937-27.429 100.983-74.811 115.2-255.943 115.932-306.286.64-45.154-7.989-229.771-115.932-309.611z" fill="#FEBE00"/><path d="M332.074 974.949a701.794 701.794 0 0 0 77.566 2.434 701.897 701.897 0 0 0 77.566-2.434zm363.258-619.783 17.92 27.428a281.406 281.406 0 0 0-17.92-27.428zm-84.092-65.657 23.932 11.062a158.743 158.743 0 0 0-23.932-11.062zm-109.063-24.366 28.675 3.966c-8.96-1.498-18.56-2.766-28.675-3.966zm-318.08 35.428 24-11.005a158.343 158.343 0 0 0-24 11.005zm175.109-38.857 36.571-.891c-12.765.011-25.051.263-36.571.891zM54.943 555.36a499.874 499.874 0 0 0-2.423 27.429m14.08-95.36c-3.714 15.36-6.4 30.331-8.583 44.571m26.366-103.177a454.473 454.473 0 0 0-10.366 30.594m49.92-104.194a281.406 281.406 0 0 0-17.92 27.428m639.235 76.8a445.936 445.936 0 0 0-10.366-30.594m26.366 103.177c-2.172-14.217-4.869-29.188-8.572-44.571m14.08 95.36a506.557 506.557 0 0 0-2.434-27.429M749.092 759.52c5.245-20.571 9.085-40.697 11.908-59.131 1.28-1.795 2.423-3.589 3.703-5.383-1.017-.126-1.92-.126-2.937-.252 1.406-9.348 2.434-18.171 3.326-26.491" fill="#FEB400"/><path d="M736.417 577.509c10.377 1.92 20.48 3.702 30.343 5.245a505.546 505.546 0 0 0-2.434-27.428c-4.572-.766-9.223-1.532-13.954-2.286 3.84-7.177 7.554-14.08 10.88-21.12-2.172-14.217-4.858-29.189-8.572-44.571-8.32 19.325-18.286 39.417-29.714 60.16a707.76 707.76 0 0 1-86.526-24.96 682.503 682.503 0 0 0 50.046-82.046c19.977 7.417 39.68 13.714 58.754 18.811a445.936 445.936 0 0 0-10.366-30.594c-12.034-3.703-24.32-7.68-36.571-12.286 5.497-11.645 10.366-22.914 14.971-33.92a281.406 281.406 0 0 0-17.92-27.428c-6.137 16.137-13.44 33.417-21.885 51.428a632.389 632.389 0 0 1-73.989-36.103 724.914 724.914 0 0 0 35.692-69.84 158.743 158.743 0 0 0-23.932-11.005 672.926 672.926 0 0 1-34.286 67.428 643.223 643.223 0 0 1-66.08-47.645l-3.428-3.063c8.571-12.412 16.251-24.96 23.417-37.12-8.96-1.543-18.56-2.812-28.674-3.966-4.572 7.68-9.6 15.486-14.857 23.417-9.6-8.823-18.686-17.92-27.258-26.88-11.531-.64-23.817-.891-36.571-.891a569.977 569.977 0 0 0 48.514 49.657 588.114 588.114 0 0 1-62.331 71.806 587.257 587.257 0 0 1-62.343-71.806 569.977 569.977 0 0 0 48.514-49.669c-12.8 0-25.085.252-36.571.892-8.572 8.96-17.669 18.057-27.269 26.88-5.245-7.932-10.285-15.737-14.857-23.417-10.114 1.142-19.714 2.422-28.674 3.965 7.177 12.16 14.857 24.709 23.428 37.12l-3.428 3.075a642.091 642.091 0 0 1-66.183 47.611 672.709 672.709 0 0 1-34.286-67.429 158.343 158.343 0 0 0-24 11.006 730.16 730.16 0 0 0 35.715 70.012 633.143 633.143 0 0 1-73.978 36.102c-8.457-18.045-15.748-35.325-21.897-51.428a281.406 281.406 0 0 0-17.92 27.428c4.572 11.006 9.475 22.275 14.983 33.92-12.297 4.572-24.583 8.583-36.571 12.286a448.267 448.267 0 0 0-10.377 30.594c19.074-5.12 38.788-11.428 58.754-18.811a683.977 683.977 0 0 0 50.148 81.954 707.189 707.189 0 0 1-86.525 24.96c-11.429-20.743-21.372-40.834-29.715-60.16-3.714 15.36-6.4 30.332-8.582 44.572 3.325 7.04 7.04 13.943 10.88 21.12-4.732.765-9.338 1.531-13.955 2.285a510.378 510.378 0 0 0-2.423 27.429c9.852-1.543 19.966-3.326 30.332-5.246a669.886 669.886 0 0 0 56 80 743.143 743.143 0 0 1-84.572 10.755c.903 8.32 1.92 17.142 3.326 26.491a789.817 789.817 0 0 0 100.994-14.08 655.051 655.051 0 0 0 70.275 67.429c3.074 2.56 6.274 4.868 9.348 7.428a782.023 782.023 0 0 1-121.085 17.92 652.137 652.137 0 0 1-58.869-73.108 572.274 572.274 0 0 0 11.771 59.005c4.355 5.372 8.835 10.617 13.315 15.749-2.949.126-5.886.251-8.96.251a480.705 480.705 0 0 0 8.445 26.366c8-.251 15.875-.64 23.68-1.017a674.674 674.674 0 0 0 56 51.966c10.869 9.142 22.138 17.531 33.532 25.851-23.303 2.183-47.36 3.326-72.572 3.429a202.366 202.366 0 0 0 21.886 26.114 791.714 791.714 0 0 0 84.332-6.629A683.006 683.006 0 0 0 363.937 968c-10.617 2.56-21.12 4.869-31.863 6.914a701.794 701.794 0 0 0 77.566 2.435 701.897 701.897 0 0 0 77.566-2.435c-10.754-2.045-21.246-4.354-31.874-6.914a683.429 683.429 0 0 0 134.274-66.56 791.714 791.714 0 0 0 84.354 6.651 203.291 203.291 0 0 0 21.886-26.114c-25.212-.126-49.28-1.268-72.572-3.428 11.429-8.32 22.652-16.766 33.532-25.852a651.771 651.771 0 0 0 55.806-51.966c7.931.378 15.874.766 23.805 1.018 3.075-8.698 5.886-17.532 8.457-26.366-3.074-.126-6.022-.126-8.971-.252 4.491-5.131 8.971-10.377 13.189-15.622 5.245-20.572 9.085-40.709 11.908-59.132a653.429 653.429 0 0 1-58.754 73.086 797.269 797.269 0 0 1-121.143-17.92c3.074-2.56 6.4-4.869 9.337-7.429a655.051 655.051 0 0 0 70.274-67.428 766.114 766.114 0 0 0 100.995 14.08c1.405-9.349 2.434-18.172 3.325-26.492a742.96 742.96 0 0 1-84.571-10.754 668.434 668.434 0 0 0 55.954-80.011zM585.766 393.143a679.406 679.406 0 0 0 75.966 37.417 636.571 636.571 0 0 1-50.949 82.183 639.326 639.326 0 0 1-83.589-41.223 635.691 635.691 0 0 0 58.572-78.377zM317.857 627.68a674.937 674.937 0 0 0 91.783-52.731 674.137 674.137 0 0 0 91.772 52.731 651.337 651.337 0 0 1-91.772 61.954 640.857 640.857 0 0 1-91.783-61.954zm203.429 138.754a640.446 640.446 0 0 1-111.612 59.772 640.16 640.16 0 0 1-111.622-59.772 679.886 679.886 0 0 0 111.622-46.594 679.36 679.36 0 0 0 111.578 46.594zM295.72 608.87a613.874 613.874 0 0 1-70.526-74.286 651.589 651.589 0 0 0 85.246-43.143 607.531 607.531 0 0 0 50.937 47.497c8.457 6.857 17.029 13.303 25.349 19.703a641.966 641.966 0 0 1-91.006 50.229zm136.823-50.183c8.331-6.4 16.903-12.8 25.349-19.703a609.497 609.497 0 0 0 50.948-47.497 650.88 650.88 0 0 0 85.246 43.143 614.766 614.766 0 0 1-70.526 74.285 642.069 642.069 0 0 1-91.017-50.228zM492.074 328c.766.514 1.269 1.28 1.92 1.794a648.697 648.697 0 0 0 69.246 49.783 589.783 589.783 0 0 1-58.88 77.829 602.286 602.286 0 0 1-59.771-43.486c-5.372-4.48-10.366-8.96-15.486-13.44A618.617 618.617 0 0 0 492.074 328zm-82.434 90.629c5.886 5.245 11.772 10.617 18.046 15.737a696.754 696.754 0 0 0 58.286 42.88 592.114 592.114 0 0 1-45.052 41.223c-10.286 8.571-20.743 16.502-31.234 24.182-10.503-7.68-20.994-15.611-31.234-24.182a590.171 590.171 0 0 1-45.063-41.223 696.891 696.891 0 0 0 58.285-42.88c6.183-5.086 12.069-10.457 17.966-15.703zm-84.354-88.8c.64-.515 1.143-1.28 1.92-1.795a618.48 618.48 0 0 0 62.971 72.446c-5.12 4.48-10.103 8.96-15.485 13.44a603.429 603.429 0 0 1-59.772 43.52 588.789 588.789 0 0 1-58.903-77.829 651.006 651.006 0 0 0 69.269-49.782zM157.606 430.56a679.269 679.269 0 0 0 75.897-37.417 623.211 623.211 0 0 0 58.629 78.331 637.92 637.92 0 0 1-83.589 41.223 637.714 637.714 0 0 1-50.937-82.137zm-47.109 141.051a732.857 732.857 0 0 0 88.835-26.742 608 608 0 0 0 69.371 75.428 697.337 697.337 0 0 1-100.217 31.223 640.389 640.389 0 0 1-57.989-79.909zm77.829 102.275A699.646 699.646 0 0 0 290.852 640a55.909 55.909 0 0 1 4.228 3.714 686.194 686.194 0 0 0 86.526 60.572 648.286 648.286 0 0 1-111.109 42.88c-8.571-6.4-17.017-12.926-24.697-19.429a596.046 596.046 0 0 1-57.474-53.851zm-8.88 158.468c-13.566-11.143-26.286-22.651-38.4-34.285a765.714 765.714 0 0 0 123.908-22.138 687.074 687.074 0 0 0 109.44 64 720.96 720.96 0 0 1-138.628 33.92 632 632 0 0 1-56.32-41.497zm230.148 123.429a683.28 683.28 0 0 1-139.428-60.423 742.377 742.377 0 0 0 139.428-40.183 739.429 739.429 0 0 0 139.429 40.183 683.829 683.829 0 0 1-139.383 60.389zm268.572-157.714c-12.16 11.657-24.834 23.165-38.4 34.285a630.377 630.377 0 0 1-56.32 41.475 721.051 721.051 0 0 1-138.617-33.92 680.366 680.366 0 0 0 109.303-64 769.977 769.977 0 0 0 124.045 22.137zm-104.697-70.4c-7.68 6.537-16 13.062-24.709 19.428a648.16 648.16 0 0 1-111.028-42.868 675.223 675.223 0 0 0 86.525-60.675c1.406-1.28 2.812-2.434 4.092-3.588A705.977 705.977 0 0 0 631 673.886a594.549 594.549 0 0 1-57.52 53.76zm77.314-76.16a697.92 697.92 0 0 1-100.229-31.223 608 608 0 0 0 69.372-75.429A733.463 733.463 0 0 0 708.76 571.6a639.097 639.097 0 0 1-57.966 79.886z" fill="#FEB400"/><path d="M345.64 614.4a64.069 64.069 0 0 1-64-64 12.8 12.8 0 0 1 25.6 0 38.4 38.4 0 1 0 76.8 0 12.8 12.8 0 1 1 25.6 0 64.08 64.08 0 0 1-64 64zM179.24 448a38.4 38.4 0 1 0 76.8 0 38.4 38.4 0 1 0-76.8 0zm256 0a38.4 38.4 0 1 0 76.8 0 38.4 38.4 0 1 0-76.8 0z" fill="#25467A"/><path d="M166.44 512h-51.2a25.6 25.6 0 0 0 0 51.2h51.2a25.6 25.6 0 1 0 0-51.2zm409.577 0h-51.2a25.6 25.6 0 0 0 0 51.2h51.2a25.6 25.6 0 1 0 0-51.2z" fill="#FEE14C"/><path d="M499.217 742.4a243.2 243.2 0 1 0 486.4 0 243.2 243.2 0 1 0-486.4 0z" fill="#FED500"/><path d="M524.817 742.4a217.6 217.6 0 1 0 435.2 0 217.6 217.6 0 1 0-435.2 0z" fill="#FEE566"/><path d="m955.446 697.509-54.709-3.795 21.372-74.08a205.029 205.029 0 0 1 12.228 20.16 216.549 216.549 0 0 1 21.109 57.715zm-67.657 206.925-24.08-49.234 74.834-18.537a205.714 205.714 0 0 1-11.36 20.674 216.72 216.72 0 0 1-39.394 47.097zm-213.017 44.88 30.594-45.485 53.508 55.554a204.571 204.571 0 0 1-23.588.503 216.846 216.846 0 0 1-60.514-10.572zM529.4 787.27l54.686 3.76-21.372 74.114a204.343 204.343 0 0 1-12.228-20.172A216.686 216.686 0 0 1 529.4 787.27zm67.657-206.915 24.092 49.235-74.846 18.525a205.714 205.714 0 0 1 11.36-20.685 216.709 216.709 0 0 1 39.394-47.075zm213.029-44.857-30.64 45.474-53.463-55.554a204.686 204.686 0 0 1 23.589-.503 216.857 216.857 0 0 1 60.514 10.583zM691.217 742.4a51.2 51.2 0 1 0 102.4 0 51.2 51.2 0 1 0-102.4 0z" fill="#FED500"/></svg>