<svg class="icon" viewBox="0 0 1024 1024" xmlns="http://www.w3.org/2000/svg" width="200" height="200"><defs><style>@font-face{font-family:feedback-iconfont;src:url(//at.alicdn.com/t/font_1031158_u69w8yhxdu.woff2?t=1630033759944) format(&quot;woff2&quot;),url(//at.alicdn.com/t/font_1031158_u69w8yhxdu.woff?t=1630033759944) format(&quot;woff&quot;),url(//at.alicdn.com/t/font_1031158_u69w8yhxdu.ttf?t=1630033759944) format(&quot;truetype&quot;)}</style></defs><path d="M512 1024c-47.086 0-86.286-5.486-125.029-32.114C354.286 969.37 325.6 934.743 284.8 868.229c-22.4-36.458-50.743-71.658-80.686-108.915C125.257 661.486 36 550.63 43.886 390.743c3.428-68.457 26.285-125.943 68-171.2 29.028-31.314 67.2-56.686 114.057-75.657 1.943-44.8 21.028-79.772 28.114-91.429l22.172-35.886 44.8 15.086c7.657 2.629 17.028 5.714 27.2 9.714 1.371-1.828 2.628-3.2 3.542-4.342L379.2 4.686l41.6 20.457c8.114 4 18.057 8.914 28.914 14.971 11.315-10.628 24.229-19.543 38.515-26.857L513.943 0l25.714 13.143c14.286 7.314 27.086 16.228 38.4 26.857 10.857-6.057 20.686-10.857 28.914-14.857l41.486-20.457 27.429 32.343c.914 1.142 2.171 2.628 3.543 4.457 10.285-4 19.542-7.086 27.314-9.715l44.8-15.085 22.171 35.885c7.315 11.886 26.743 47.543 28.229 93.029 45.714 18.971 83.086 44.343 111.543 75.543 40.914 44.914 63.314 101.943 66.628 169.6 8 159.886-81.371 270.743-160.114 368.571-29.943 37.257-58.286 72.457-80.686 108.915-40.8 66.4-69.485 101.142-102.171 123.657C598.286 1018.514 559.086 1024 512 1024z" fill="#25467A"/><path d="M352.914 265.714c-14.285-7.885-42.857-25.943-60.343-58.857-33.028-62.286 2.972-122.857 7.658-130.4 28.685 9.714 76.114 24.8 111.2 63.314 29.828 32.686 38.971 61.029 46.971 83.086-44.8 16.572-60.8 26.4-105.486 42.857z" fill="#6C8726"/><path d="M417.029 261.029c-13.029-9.6-38.629-31.2-50.858-65.943-23.314-65.943 21.6-121.372 27.429-128.229 26.971 13.257 71.543 34.286 100.457 76.914 24.572 36 29.372 65.372 33.943 88.229-46.743 10.743-64.229 18.4-110.971 29.029z" fill="#7A992B"/><path d="M674.971 265.714c14.286-7.885 42.858-25.943 60.343-58.857 33.029-62.286-2.971-122.857-7.657-130.4-28.686 9.714-76.114 24.8-111.2 63.314-29.828 32.686-38.971 61.029-46.971 83.086 44.685 16.572 60.685 26.4 105.485 42.857z" fill="#6C8726"/><path d="M610.629 261.029c13.028-9.6 38.628-31.2 50.857-65.943C684.8 129.257 640 73.829 634.057 66.857c-26.971 13.257-71.543 34.286-100.457 76.914-24.571 36.115-29.371 65.486-33.943 88.343 46.972 10.629 64.229 18.286 110.972 28.915z" fill="#7A992B"/><path d="M513.943 55.543c-72.457 36.914-69.714 127.543-69.714 127.543l69.6 42.057 69.6-42.057c.114 0 2.857-90.515-69.486-127.543z" fill="#86A82F"/><path d="M927.2 393.029C917.257 192.57 720.457 149.257 512 149.257S106.743 192.571 96.8 393.03c-9.943 198.856 149.143 313.14 234.057 451.427C401.486 959.314 434.057 975.543 512 975.543s110.514-16.229 181.143-131.086c85.028-138.4 244-252.686 234.057-451.428z" fill="#EE4042"/><path d="M220.343 613.829a9.6 6.514 90 1 0 13.028 0 9.6 6.514 90 1 0-13.028 0zm63.2-10.4a9.486 6.4 90 1 0 12.8 0 9.486 6.4 90 1 0-12.8 0zm62.971 15.542a9.371 6.4 90 1 0 12.8 0 9.371 6.4 90 1 0-12.8 0zm63.2-15.542a9.371 6.4 90 1 0 12.8 0 9.371 6.4 90 1 0-12.8 0zm63.2 8.342a9.257 6.286 90 1 0 12.572 0 9.257 6.286 90 1 0-12.572 0zm63.086 0a9.143 6.286 90 1 0 12.571 0 9.143 6.286 90 1 0-12.571 0zm63.2-8.342a9.029 6.171 90 1 0 12.343 0 9.029 6.171 90 1 0-12.343 0zm63.086 15.542a9.029 6.171 90 1 0 12.343 0 9.029 6.171 90 1 0-12.343 0zm63.2-15.542a9.029 6.057 90 1 0 12.114 0 9.029 6.057 90 1 0-12.114 0zm63.2 10.4a8.914 6.057 90 1 0 12.114 0 8.914 6.057 90 1 0-12.114 0zM140.343 509.143a9.6 6.514 90 1 0 13.028 0 9.6 6.514 90 1 0-13.028 0zm63.086 10.286a9.6 6.514 90 1 0 13.028 0 9.6 6.514 90 1 0-13.028 0zm602.057 0a8.914 6.057 90 1 0 12.114 0 8.914 6.057 90 1 0-12.114 0zm63.085-10.286a8.914 6.057 90 1 0 12.115 0 8.914 6.057 90 1 0-12.115 0zM129.029 402.057a9.6 6.514 90 1 0 13.028 0 9.6 6.514 90 1 0-13.028 0zm63.085 10.4a9.6 6.514 90 1 0 13.029 0 9.6 6.514 90 1 0-13.029 0zm624.686 0a8.914 6.057 90 1 0 12.114 0 8.914 6.057 90 1 0-12.114 0zm62.971-10.4a8.914 6.057 90 1 0 12.115 0 8.914 6.057 90 1 0-12.115 0zM220.343 257.143a9.6 6.514 90 1 0 13.028 0 9.6 6.514 90 1 0-13.028 0zm63.2-10.286a9.486 6.4 90 1 0 12.8 0 9.486 6.4 90 1 0-12.8 0zm126.171 0a9.371 6.4 90 1 0 12.8 0 9.371 6.4 90 1 0-12.8 0zm63.2 8.229a9.257 6.286 90 1 0 12.572 0 9.257 6.286 90 1 0-12.572 0zm63.086 0a9.143 6.286 90 1 0 12.571 0 9.143 6.286 90 1 0-12.571 0zm63.2-8.229a9.029 6.171 90 1 0 12.343 0 9.029 6.171 90 1 0-12.343 0zm126.286 0a9.029 6.057 90 1 0 12.114 0 9.029 6.057 90 1 0-12.114 0zm63.2 10.286a8.914 6.057 90 1 0 12.114 0 8.914 6.057 90 1 0-12.114 0zm-601.143 49.714a9.6 6.514 90 1 0 13.028 0 9.6 6.514 90 1 0-13.028 0zm636.571 0a8.914 6.057 90 1 0 12.115 0 8.914 6.057 90 1 0-12.115 0zm-545.485 398.4a9.486 6.514 90 1 0 13.028 0 9.486 6.514 90 1 0-13.028 0zm64.571-10.4a9.486 6.4 90 1 0 12.8 0 9.486 6.4 90 1 0-12.8 0zm64.457 10.4a9.371 6.4 90 1 0 12.8 0 9.371 6.4 90 1 0-12.8 0zm64.572-10.4a9.257 6.286 90 1 0 12.571 0 9.257 6.286 90 1 0-12.571 0zm64.457 0a9.143 6.286 90 1 0 12.571 0 9.143 6.286 90 1 0-12.571 0zm64.571 10.4a9.029 6.171 90 1 0 12.343 0 9.029 6.171 90 1 0-12.343 0zm64.457-10.4a9.029 6.171 90 1 0 12.343 0 9.029 6.171 90 1 0-12.343 0zm64.572 10.4a9.029 6.057 90 1 0 12.114 0 9.029 6.057 90 1 0-12.114 0zm-404.115 81.029a9.6 6.514 90 1 0 13.029 0 9.6 6.514 90 1 0-13.029 0zm52 9.257a9.486 6.4 90 1 0 12.8 0 9.486 6.4 90 1 0-12.8 0zm63.086-9.257a9.371 6.4 90 1 0 12.8 0 9.371 6.4 90 1 0-12.8 0zm63.2 6.171a9.143 6.286 90 1 0 12.572 0 9.143 6.286 90 1 0-12.572 0zm63.2-6.171a9.029 6.171 90 1 0 12.343 0 9.029 6.171 90 1 0-12.343 0zm63.314 9.257a9.029 6.057 90 1 0 12.115 0 9.029 6.057 90 1 0-12.115 0zm51.772-9.257a8.914 6.057 90 1 0 12.114 0 8.914 6.057 90 1 0-12.114 0zM408.457 877.6a9.6 6.514 90 1 0 13.029 0 9.6 6.514 90 1 0-13.029 0zm48 8.343a9.371 6.4 90 1 0 12.8 0 9.371 6.4 90 1 0-12.8 0zm48-8.343a9.143 6.286 90 1 0 12.572 0 9.143 6.286 90 1 0-12.572 0zm48 8.343a9.029 6.171 90 1 0 12.343 0 9.029 6.171 90 1 0-12.343 0zm47.886-8.343a8.914 6.057 90 1 0 12.114 0 8.914 6.057 90 1 0-12.114 0z" fill="#E0C32D"/><path d="M512 550.4c-35.314 0-64-28.686-64-64 0-7.086 5.714-12.8 12.8-12.8s12.8 5.714 12.8 12.8c0 21.257 17.257 38.4 38.4 38.4s38.4-17.143 38.4-38.4c0-7.086 5.714-12.8 12.8-12.8s12.8 5.714 12.8 12.8c0 35.314-28.686 64-64 64zM345.6 384a38.4 38.4 0 1 0 76.8 0 38.4 38.4 0 1 0-76.8 0zm256 0a38.4 38.4 0 1 0 76.8 0 38.4 38.4 0 1 0-76.8 0z" fill="#25467A"/><path d="M332.8 448h-51.2c-14.171 0-25.6 11.429-25.6 25.6s11.429 25.6 25.6 25.6h51.2c14.171 0 25.6-11.429 25.6-25.6S346.971 448 332.8 448zm409.6 0h-51.2c-14.171 0-25.6 11.429-25.6 25.6s11.429 25.6 25.6 25.6h51.2c14.171 0 25.6-11.429 25.6-25.6S756.571 448 742.4 448z" fill="#EE8385"/></svg>