<svg width="400" height="400" viewBox="0 0 300 300" xmlns="http://www.w3.org/2000/svg"><g fill="#231817"><path d="M6.79 89.7c.96-1.84 3.28-1.84 5.08-1.94 14.74-.04 29.48.02 44.21-.03 2.44.11 5.57-.2 7.06 2.19 2.29 3.24 4.27 6.73 5.94 10.33 1.53 3.36-1.26 6.46-2.64 9.34-1.89 2.86-3.22 7.5-7.4 7.33-9.67.33-19.36.02-29.04.11-4.2.21-9.59-1.09-12.13 3.25 15.39.43 30.79.06 46.18.19 2.11-.19 4.93 1.09 4.66 3.57.51 8.35.18 16.73.22 25.09-.17 2.19.25 5.45-2.51 6.11-5.6.68-11.29.13-16.93.32.02-2.71.01-5.42-.02-8.13 3.7-.01 7.4-.02 11.1-.05.03-6.24.02-12.48.03-18.73-14.55.17-29.12-.04-43.67.06-3.15-.21-4.69 3.17-7.21 4.48-2.77.44-5.61.23-8.41.25-.01-2.61-.03-5.22-.07-7.83 1.71-.35 3.46-.61 5.11-1.2 1.73-1.88 2.87-4.2 4.25-6.33-5.34-3.24-7.23-9.48-10.6-14.38v-2.82c2.46-3.6 4.35-7.56 6.79-11.18m5.41 6.51c-.21.79-.62 2.38-.82 3.18 15.75.02 31.49.06 47.24-.05-.52-1.15-1.05-2.3-1.58-3.44-14.94.14-29.91-.43-44.84.31m-1.05 9.28c.44 1.03.88 2.07 1.32 3.1 13.13 1.43 26.4.32 39.59.69 3.03.4 5.7-.97 7.14-3.63-16.01-.4-32.04-.14-48.05-.16zm96.27-17.7c2.7-.01 5.41 0 8.11.01l.04 3.87c9.32.08 18.63-.05 27.94.08 3.06 4.39 1.48 9.88 1.96 14.85-2.66.54-5.37.75-8.09.76-.11-2.34-.18-4.68-.3-7.02-17.14-.11-34.29-.15-51.43.02.02 2.31 0 4.62-.06 6.93-2.68-.02-5.36 0-8.04.03-.07-4.52-.09-9.04.11-13.56 1.43-.77 2.74-2.07 4.48-2.03 8.4-.12 16.81.08 25.22-.11.01-.96.04-2.87.06-3.83zm51.82 13.27c1.67-4.29 2.4-8.87 3.56-13.31 2.79.01 5.58.01 8.37.08-.95 6.44-4.12 12.5-3.85 19.11.12 16.18-.21 32.37.18 48.54-2.8.06-5.6.06-8.4.11-.21-14.8.18-29.61-.23-44.4-1.74-.24-3.49-.46-5.24-.65.07-2.63.34-5.25.7-7.86 1.72-.27 4.05.4 4.91-1.62zm14.66-8.16c.06-1.95.69-4.88 3.26-4.53 12.3-.16 24.61 0 36.92-.07 1.7.14 4.3-.31 4.74 1.93 1.12 3.43.28 7.2.54 10.77-.29 4.19 1.04 8.92-1.7 12.54-5.93.36-11.89.07-17.83.25.01 1.62.04 3.24.07 4.86 7.27.05 14.54.06 21.82.01.1 2.87.1 5.74.05 8.62-7.2-.21-14.41.01-21.61-.1.06 9.45.07 18.9.02 28.35-2.77-.01-5.53-.01-8.29 0-.02-9.45-.15-18.91.07-28.36-6.87-.05-13.76.35-20.59-.41.02-2.69.02-5.38.06-8.07 6.84.01 13.69-.01 20.54.02-.02-1.66-.04-3.32-.05-4.97-4.63-.04-9.25-.02-13.87-.07-2.05.25-4.39-1.46-4.18-3.64-.12-5.71-.16-11.43.03-17.13m8.28 3.17c.01 3.14.01 6.29.08 9.43 9.67-.01 19.35.05 29.02-.03.01-3.1-.01-6.21-.02-9.31-9.69-.07-19.39.14-29.08-.09zm48.52-7.28c5.3-1.54 10.88-1.01 16.32-.98 2.36-.13 4.53 1.66 4.41 4.1.03 6.38.05 12.77 0 19.15.34 2.08-1.56 3.24-2.76 4.59 1.18 1.25 3.05 2.3 2.76 4.31.07 7.7.04 15.41 0 23.12.19 2.84-2.81 4.6-5.36 4.32-1.88-.14-4.39.81-5.41-1.36-.39-3.33.69-6.4 2.47-9.15.25-5.31-.05-10.64.11-15.96-4.22-2.25-2.74-8.11-.14-11.12.33-4.57-.02-9.17.11-13.76-1.52 0-3.04-.01-4.56-.01 0 19.83 0 39.66-.02 59.49-2.72-.03-5.45-.03-8.18.03.21-22.26-.24-44.52.25-66.77zm31.33.19c1.59-1.43 3.92-1.18 5.91-1.24 6.33.12 12.68-.1 19.01.1 4.29.01 5.2 5.01 7.04 7.96 1.46.14 2.93.28 4.4.41-.03 2.72-.02 5.43-.02 8.14-2.75 0-5.52.2-8.25-.18-2.5-2.12-3.63-5.33-5.37-8.02-5.79-.07-11.58-.07-17.37.01-1.79 2.76-2.73 6.51-5.86 8.06-2.52.29-5.06.11-7.58.11-.2-2.68-.22-5.36-.25-8.04 1.52-.2 3.05-.4 4.58-.61 1.09-2.32 2.16-4.69 3.76-6.7zm-5.79 18.35c13.32 0 26.63-.02 39.95.01v8.06c-13.32.05-26.65.07-39.97-.01.02-2.69.03-5.38.02-8.06zm-173.8 3.21c2.65.04 5.29.04 7.94.01l.12 3.24c13.97-.09 27.94-.04 41.91-.01.01-.82.02-2.44.03-3.25 2.7.04 5.41.05 8.12.04l.04 2.88c1.64.29 3.28.62 4.91.99-.12 2.62-.15 5.24-.32 7.85-1.55.01-3.09.03-4.63.05-.03 5.08.25 10.18-.12 15.25-3.59 4.27-9.97 3.99-14.79 6.13 6.2 2.8 12.89 4.42 19.72 3.69-.26 2.63.79 5.77-.56 8.06-3.52.13-7.07.27-10.56-.18-7.76-2.1-15.29-5.27-23.16-6.83-7.54 1.88-14.85 4.74-22.37 6.79-3.7.61-7.49.18-11.23.3.02-2.7.01-5.41-.02-8.11 3.13-.05 6.27.14 9.38-.18 3.54-.94 6.98-2.23 10.46-3.38-4.83-2.12-10.68-2.28-14.76-5.83-.49-5.14-.19-10.32-.17-15.47-1.63-.33-3.26-.71-4.89-1.06.05-2.54.04-5.08.04-7.62 1.58-.13 3.17-.24 4.75-.36l.16-3m7.96 11.72c.01 3.63.02 7.26.11 10.89 6 1.68 11.92 3.64 17.87 5.51 1.47.41 3.03 1.11 4.55.44 6.48-1.99 12.94-4.03 19.43-5.98.04-3.41.19-6.83.01-10.24-.36-.27-1.08-.82-1.43-1.09-13.51.06-27.04-.26-40.54.47zm166.04-2.49c2.76-.01 5.52-.02 8.28.06.07 4.38-.15 8.76.04 13.13.06 1.64 1.59 2.69 2.13 4.17.24 2.2.13 4.42.15 6.64-3.39-.52-8.47 1.38-10.32-2.45-.61-7.15-.05-14.37-.28-21.55zm13.29.06c2.83-.02 5.66-.01 8.5.01.61 5.75-1.59 12.27 2.02 17.29.26 2.2.14 4.43.18 6.65-3.42-.46-8.9 1.37-10.3-2.99-.73-6.94-.16-13.98-.4-20.96zm17.95-.04c2.68-.03 5.38-.03 8.07-.04-.22 7.26.38 14.57-.3 21.8-2.2 3.67-7.5 1.62-11.06 2.3.01-2.75 0-5.49-.05-8.23 1.11-.12 2.22-.25 3.33-.39 0-5.15-.03-10.3.01-15.44z"/><path d="M19.41 132.45c3.2-.08 6.4-.09 9.59.03-4.48 7.63-8.3 15.65-13.22 23.01-4.83.06-9.67.03-14.5.11 0-2.74-.02-5.48-.06-8.22 3.31.04 6.62.02 9.93-.01 2.87-4.91 5.6-9.9 8.26-14.92zm22.05.08c3-.31 6.03-.1 9.05-.06-4.07 7.84-8.08 15.8-13.18 23.03-3.55.03-7.11.07-10.66.04.01-2.69-.02-5.37-.04-8.05 2.23-.31 4.9.57 6.75-1.06 3.01-4.44 5.01-9.51 8.08-13.9zm138.28-.06c2.95-.02 5.9-.04 8.85.07-2.67 7.05-3.38 14.73-6.32 21.66-3.04 2.48-7.35.89-10.95 1.36.01-2.7.02-5.4.02-8.1 1.58-.05 3.16-.11 4.74-.16 1.11-4.97 2.62-9.84 3.66-14.83zm25.24-.01c2.77-.02 5.53-.01 8.3.02 1.25 4.51 2.19 9.1 3.49 13.6.95 1.85 3.37 1.16 5.04 1.53-.05 2.65-.07 5.31-.07 7.96-3.09-.07-6.2.18-9.26-.24-2.13-.79-2.87-3.31-3.32-5.33-1.26-5.88-3.15-11.61-4.18-17.54zm48.89 14.94c14.83-.1 29.66-.1 44.49 0 .01 2.69.02 5.39.06 8.09-14.69.15-29.39-.11-44.08.12-.84-2.66-.66-5.47-.47-8.21z"/></g><path d="M12.2 96.21c14.93-.74 29.9-.17 44.84-.31.53 1.14 1.06 2.29 1.58 3.44-15.75.11-31.49.07-47.24.05.2-.8.61-2.39.82-3.18zm-1.05 9.28c16.01.02 32.04-.24 48.05.16-1.44 2.66-4.11 4.03-7.14 3.63-13.19-.37-26.46.74-39.59-.69-.44-1.03-.88-2.07-1.32-3.1zM186 167.73c5.79.15 11.62-.41 17.39.26.03 3.26.05 6.52.04 9.78-4.35 1.83-7.55-2.19-11.46-3.18-5.19-.45-10.4 0-15.6-.24-1.22 4.37-1.16 9.01-.07 13.4 4.93-.12 9.85.05 14.78-.01 4.4.61 7.46-4.78 11.97-2.85.78 2.86 2.67 7.32-.56 9.3-5.47.64-11 .04-16.49.18-5.79-.14-11.66.61-17.36-.69.06-7.24-.02-14.47 0-21.71.04-1.56-.12-3.79 1.94-4.04 5.11-.51 10.28-.08 15.42-.2zm25.68.06c11.86-.06 23.72-.13 35.58-.01.46 8.84.2 17.71.14 26.56-11.93.09-23.86.05-35.78.05-.18-8.86-.32-17.74.06-26.6m5.91 7.08c.1 4.49.07 8.99.09 13.48 7.59.15 15.19.07 22.78.06.21-4.66.19-9.32.09-13.98-7.66.18-15.34-.45-22.96.44zM1.17 168.4c4.03-.69 8.14-.83 12.21-.35.36 8.46.03 16.93.2 25.39-2 .3-4.75 2.21-5.97-.37-.54-6.05-.05-12.15-.22-18.22-2.07-.35-4.12-.75-6.16-1.24-.01-1.74-.03-3.47-.06-5.21zm56.87 1.73c1.26-2.43 4.44-2.68 6.86-2.35 2.95 1.64 4.04 5.12 5.61 7.91 2.76 6.02 6.64 11.51 8.63 17.87-1.77.07-3.54.12-5.32.16-1.09-1.03-2.12-2.14-3.37-2.98-3.82-.55-7.7-.26-11.54-.32-4.49-.7-7.25 4.22-11.81 3.46.23-2.85.93-5.65 2.5-8.06 3.1-5.08 5.37-10.6 8.44-15.69m.66 13.88c2.84.45 5.68.04 8.44-.67-1.26-2.55-2.68-5.03-4.19-7.45-1.87 2.44-3.34 5.17-4.25 8.12zm30.71-15.63c3.51.19 7.88-1.33 10.66 1.55 5.66 5.27 10.58 11.29 16.44 16.35 1.96-5.78.76-11.99 1.04-17.97 2.26-.04 4.53-.08 6.79-.13.33 8.4.1 16.8.16 25.21-3.16.74-6.83 2.05-9.82.08-6.88-5.32-11.77-12.91-19.03-17.79-.23 5.96-.07 11.92-.16 17.88-1.93.09-3.85.18-5.78.3-2.5-8.34-.26-17-.3-25.48zm166.29-.55c3.22-.05 6.56-.43 9.68.63 1.31.83 1.92 2.36 2.73 3.63 2.63 4.91 5.19 9.86 8.21 14.55.5-.05 1.5-.14 1.99-.19 3.11-6.26 6.55-12.37 10.27-18.29 2.85.27 5.95-.5 8.63.65 1.23 7.29.33 14.92.54 22.34.64 3.09-4.7 3.77-5.4 1.08-.49-5.48.67-11.1-1.06-16.44-3.64 5.38-6.24 11.38-9.8 16.79-2.45 2.33-7.7 2.72-9.47-.73-2.84-5.14-5.6-10.34-8.44-15.47-.44.08-1.33.23-1.77.31-.35 5.53.57 11.18-.45 16.62-1.69.27-3.38.47-5.08.6.2-8.71-.74-17.38-.58-26.08zm-101.14 20.75c1.13-1.29 2.86-1.14 4.39-.96 2.21.99 1.57 3.56 1.56 5.5-1.43 2.39-4.25.77-6.39.65-.11-1.74-.77-3.68.44-5.19z" fill="#f7c70f"/></svg>