<svg width="400" height="400" viewBox="0 0 300 300" xmlns="http://www.w3.org/2000/svg"><g fill="#d31145"><path d="M0 0h300v300H0V0m94.93 52.87C85.21 58.49 77.1 66.35 69.5 74.5 53.21 93.7 44.03 118.81 44.3 144c.05 21.72 7.24 43.25 19.79 60.93 1.03 1.35 2.76 3.35 4.49 1.8.22-1.48-.53-2.79-1.3-3.98-6.61-9.86-12.03-20.81-14.15-32.56 6.9 1.69 13.64 4.7 20.89 4.41 4.55.11 8.56-2.32 12.8-3.6 5.75-1.79 11.53-3.56 17.48-4.56-1.38-1.04-2.73-2.14-4.29-2.9-3.66-.29-7.3 1.1-10.94.24.41-1.67.79-3.43 2.03-4.72 3.48-4.01 7.7-7.37 10.72-11.79-6.43.84-11.35 5.96-17.89 6.48-4.88 1.14-10.34-.46-14.77 2.38-5.58 3.35-11.55 6.03-17.83 7.78-.09-4.83-.27-9.79 1.34-14.42 2.65-7.8 7.66-14.61 13.36-20.47 2.31-2.16 4.71-4.95 8.19-4.74.37 1.78.23 3.77 1.29 5.33 1.29 1.99 3.5 3.72 2.97 6.38.49 5.52-4.82 8.78-7.09 13.22.88 2.73 3.93.28 5.66-.12 5.67-2.9 12.66-3.04 17.42-7.61 6.12-4.5 12.21-9.07 17.58-14.46 3.48-3.64 7.56-6.61 11.81-9.27 3.74-2.22 5.43-6.46 8.56-9.33 4.67-4.86 11.11-7.43 16.09-11.92 2.48-2.7 4.3-5.94 6.67-8.74 3.9 1.19 6.5 4.65 8.13 8.21 2.43 6.26 11.46 5.73 13.91 11.93-3.72-1.02-7.49-1.99-11.38-1.57 1.99 4.96 7.88 6.97 9.76 12.02.76 2.32 1.02 4.77 1.69 7.11 1.17 4.47 4.46 8.07 5.42 12.61.8 3.58 1.25 7.48 3.85 10.31 3.13 3.48 6.18 7.23 10.1 9.84 3.12.74 6.34.98 9.47 1.66-.45-2.22-.74-4.47-.95-6.72 2.78.15 5.94.41 7.76 2.85 2.51 3.36 2.92 8.02 2.05 12.02-.87 4.67-6.31 6.42-7.58 10.89 5.4-.5 10.81-.93 16.22-1.39 5.37-1.23 7.45-7.77 13.09-8.44.04 2.19.04 4.38.04 6.57 4.12-.8 7.4-3.56 11.03-5.49-2.65 12.34-8.35 23.88-15.42 34.27-.55.93-.76 2.02-1.06 3.05 1.07.07 2.14.07 3.21.01 14.29-18.59 22.09-42.04 21.78-65.48-.17-19.39-5.85-38.7-16.24-55.07-11.46-18.65-29.07-33.24-49.15-41.81-30.78-12.83-67.7-10.07-95.98 7.73m49.3 60.53c-5.98 4.56-12.32 8.97-19.63 11.09-1.84.68-4.32 1.01-4.81 3.3 4.2.92 9.07.83 12.29 4.13 4.09 3.91 7.76 8.25 12.12 11.89 3.34 2.6 4.32 6.86 5.72 10.63 1.7.18 3.49.07 5.12.7 1.26 1.34 2.28 3.83.16 4.93-3.58 2.74-6.21 6.66-10.2 8.83-5.31 2.04-11.2 1.85-16.58 3.68-2.04 1.9 1.15 3.11 2.78 3.21 6.25.82 12.54 1.85 18.86 1.57 3.92.02 6.44-3.46 9.88-4.74 3.96-.11 7.94 1.5 11.88.34 4.42-1.2 8.99-1.98 13.2-3.83-4.29-4.67-11.64-.81-16.1-5.1-4.93-3.96-4.88-11.22-9.78-15.19-6.47-6.12-16.69-9.47-19.21-18.86-1.21-3.4 1.85-6.01 4.33-7.72 3.46-2.16 4.63-6.22 6.51-9.58-2.18-.26-4.71-.93-6.54.72m-49.08 82.73C82 206.6 69.34 217.66 56.33 228.31c3.46 3.25 7.27 6.1 10.73 9.35 3.87-3.31 7.67-6.72 11.52-10.05.82-.62 1.76-1.75 2.86-.93 2.81 1.74 5.2 4.08 8 5.85 5.34 3.56 11.45 5.65 17.31 8.15-.65 5.51-1.86 10.96-2.47 16.48l.38.89c4.15 1.7 8.44 3.26 12.91 3.8 2.86-19.24 5.51-38.52 7.83-57.83 1.31-8.77-6.68-17.08-15.43-16.53-6 .55-10.18 5.35-14.82 8.64m79.56.57c-2 4.92-.43 10.23-.02 15.29 2.22 16.86 4.45 33.72 7.04 50.52 4.29-1.45 8.63-2.77 12.95-4.14.15-6.05-1.76-11.86-2.32-17.84 8.29-2.75 16.33-6.53 23.09-12.13 1.1-.7 2.02-1.96 3.4-2.05 4.77 3.06 8.15 8.03 13.2 10.64 3.72-2.02 6.97-5.01 9.79-8.15-.07-1.51-1.44-2.33-2.43-3.25-13.23-10.72-25.93-22.06-39.25-32.67-4.01-3.11-8.79-6.47-14.15-5.22-4.63 1.44-9.6 4.14-11.3 9m-31.75-1.91c-.35 23.15-.27 46.33-.03 69.48 4.6.23 9.22.25 13.82-.04-.07-23.15-.05-46.29-.03-69.44-4.58-.32-9.18-.31-13.76 0z"/><path d="M93.4 66.33c29.98-21.05 71.87-23.29 104.06-5.87 24.12 12.37 42.61 35.26 49.61 61.45 1.27 5.29 2.76 10.61 2.72 16.1.52 4.09-4.63 5.36-7.77 5.56-4.77.6-8.55-2.84-11.61-5.98-6.96-7.22-16.96-10.1-24.61-16.42-2.36-1.64-4.01-4.04-5.13-6.66-2.31-5.37-6.8-9.79-12.23-11.95-7.63-3.2-15.67-5.68-22.5-10.48-3.06-1.98-5.9-5-9.83-4.86-2.54-.38-3.33 2.64-4.72 4.16-6.43 9.8-20.08 10.85-26.56 20.58-2.92 4.68-8.73 5.78-12.82 9.08-5.69 4.48-11.28 9.08-17.04 13.49-3.44-.86-7.02-1.56-10.02-3.58-4.37-2.49-7.94-6.42-12.81-7.98-8.2 4.46-14.39 11.57-21.58 17.35 1.63-29.52 18.26-57.68 42.84-73.99zm13.54 136.64c1.44-1.36 3.4-1.71 5.25-2.12.8 8.7-2.54 17.13-2.94 25.79-6.3.08-11.73-3.85-16.69-7.3-1.57-.72-1.56-3-.06-3.8 4.89-4.1 9.47-8.56 14.44-12.57zm79.67 1.01c-1-3.25 3.25-3.32 4.82-1.6 5.73 4.82 11.48 9.63 16.91 14.81-4.47 5.47-11.4 8.14-17.87 10.47-1.65-7.82-2.69-15.78-3.86-23.68z"/></g><g fill="#fcfcfd"><path d="M94.93 52.87c28.28-17.8 65.2-20.56 95.98-7.73 20.08 8.57 37.69 23.16 49.15 41.81 10.39 16.37 16.07 35.68 16.24 55.07.31 23.44-7.49 46.89-21.78 65.48-1.07.06-2.14.06-3.21-.01.3-1.03.51-2.12 1.06-3.05 7.07-10.39 12.77-21.93 15.42-34.27-3.63 1.93-6.91 4.69-11.03 5.49 0-2.19 0-4.38-.04-6.57-5.64.67-7.72 7.21-13.09 8.44-5.41.46-10.82.89-16.22 1.39 1.27-4.47 6.71-6.22 7.58-10.89.87-4 .46-8.66-2.05-12.02-1.82-2.44-4.98-2.7-7.76-2.85.21 2.25.5 4.5.95 6.72-3.13-.68-6.35-.92-9.47-1.66-3.92-2.61-6.97-6.36-10.1-9.84-2.6-2.83-3.05-6.73-3.85-10.31-.96-4.54-4.25-8.14-5.42-12.61-.67-2.34-.93-4.79-1.69-7.11-1.88-5.05-7.77-7.06-9.76-12.02 3.89-.42 7.66.55 11.38 1.57-2.45-6.2-11.48-5.67-13.91-11.93-1.63-3.56-4.23-7.02-8.13-8.21-2.37 2.8-4.19 6.04-6.67 8.74-4.98 4.49-11.42 7.06-16.09 11.92-3.13 2.87-4.82 7.11-8.56 9.33-4.25 2.66-8.33 5.63-11.81 9.27-5.37 5.39-11.46 9.96-17.58 14.46-4.76 4.57-11.75 4.71-17.42 7.61-1.73.4-4.78 2.85-5.66.12 2.27-4.44 7.58-7.7 7.09-13.22.53-2.66-1.68-4.39-2.97-6.38-1.06-1.56-.92-3.55-1.29-5.33-3.48-.21-5.88 2.58-8.19 4.74-5.7 5.86-10.71 12.67-13.36 20.47-1.61 4.63-1.43 9.59-1.34 14.42 6.28-1.75 12.25-4.43 17.83-7.78 4.43-2.84 9.89-1.24 14.77-2.38 6.54-.52 11.46-5.64 17.89-6.48-3.02 4.42-7.24 7.78-10.72 11.79-1.24 1.29-1.62 3.05-2.03 4.72 3.64.86 7.28-.53 10.94-.24 1.56.76 2.91 1.86 4.29 2.9-5.95 1-11.73 2.77-17.48 4.56-4.24 1.28-8.25 3.71-12.8 3.6-7.25.29-13.99-2.72-20.89-4.41 2.12 11.75 7.54 22.7 14.15 32.56.77 1.19 1.52 2.5 1.3 3.98-1.73 1.55-3.46-.45-4.49-1.8C51.54 187.25 44.35 165.72 44.3 144c-.27-25.19 8.91-50.3 25.2-69.5 7.6-8.15 15.71-16.01 25.43-21.63M93.4 66.33c-24.58 16.31-41.21 44.47-42.84 73.99 7.19-5.78 13.38-12.89 21.58-17.35 4.87 1.56 8.44 5.49 12.81 7.98 3 2.02 6.58 2.72 10.02 3.58 5.76-4.41 11.35-9.01 17.04-13.49 4.09-3.3 9.9-4.4 12.82-9.08 6.48-9.73 20.13-10.78 26.56-20.58 1.39-1.52 2.18-4.54 4.72-4.16 3.93-.14 6.77 2.88 9.83 4.86 6.83 4.8 14.87 7.28 22.5 10.48 5.43 2.16 9.92 6.58 12.23 11.95 1.12 2.62 2.77 5.02 5.13 6.66 7.65 6.32 17.65 9.2 24.61 16.42 3.06 3.14 6.84 6.58 11.61 5.98 3.14-.2 8.29-1.47 7.77-5.56.04-5.49-1.45-10.81-2.72-16.1-7-26.19-25.49-49.08-49.61-61.45-32.19-17.42-74.08-15.18-104.06 5.87z"/><path d="M144.23 113.4c1.83-1.65 4.36-.98 6.54-.72-1.88 3.36-3.05 7.42-6.51 9.58-2.48 1.71-5.54 4.32-4.33 7.72 2.52 9.39 12.74 12.74 19.21 18.86 4.9 3.97 4.85 11.23 9.78 15.19 4.46 4.29 11.81.43 16.1 5.1-4.21 1.85-8.78 2.63-13.2 3.83-3.94 1.16-7.92-.45-11.88-.34-3.44 1.28-5.96 4.76-9.88 4.74-6.32.28-12.61-.75-18.86-1.57-1.63-.1-4.82-1.31-2.78-3.21 5.38-1.83 11.27-1.64 16.58-3.68 3.99-2.17 6.62-6.09 10.2-8.83 2.12-1.1 1.1-3.59-.16-4.93-1.63-.63-3.42-.52-5.12-.7-1.4-3.77-2.38-8.03-5.72-10.63-4.36-3.64-8.03-7.98-12.12-11.89-3.22-3.3-8.09-3.21-12.29-4.13.49-2.29 2.97-2.62 4.81-3.3 7.31-2.12 13.65-6.53 19.63-11.09zm-49.08 82.73c4.64-3.29 8.82-8.09 14.82-8.64 8.75-.55 16.74 7.76 15.43 16.53-2.32 19.31-4.97 38.59-7.83 57.83-4.47-.54-8.76-2.1-12.91-3.8l-.38-.89c.61-5.52 1.82-10.97 2.47-16.48-5.86-2.5-11.97-4.59-17.31-8.15-2.8-1.77-5.19-4.11-8-5.85-1.1-.82-2.04.31-2.86.93-3.85 3.33-7.65 6.74-11.52 10.05-3.46-3.25-7.27-6.1-10.73-9.35C69.34 217.66 82 206.6 95.15 196.13m11.79 6.84c-4.97 4.01-9.55 8.47-14.44 12.57-1.5.8-1.51 3.08.06 3.8 4.96 3.45 10.39 7.38 16.69 7.3.4-8.66 3.74-17.09 2.94-25.79-1.85.41-3.81.76-5.25 2.12zm67.77-6.27c1.7-4.86 6.67-7.56 11.3-9 5.36-1.25 10.14 2.11 14.15 5.22 13.32 10.61 26.02 21.95 39.25 32.67.99.92 2.36 1.74 2.43 3.25-2.82 3.14-6.07 6.13-9.79 8.15-5.05-2.61-8.43-7.58-13.2-10.64-1.38.09-2.3 1.35-3.4 2.05-6.76 5.6-14.8 9.38-23.09 12.13.56 5.98 2.47 11.79 2.32 17.84-4.32 1.37-8.66 2.69-12.95 4.14-2.59-16.8-4.82-33.66-7.04-50.52-.41-5.06-1.98-10.37.02-15.29m11.9 7.28c1.17 7.9 2.21 15.86 3.86 23.68 6.47-2.33 13.4-5 17.87-10.47-5.43-5.18-11.18-9.99-16.91-14.81-1.57-1.72-5.82-1.65-4.82 1.6zm-43.65-9.19c4.58-.31 9.18-.32 13.76 0-.02 23.15-.04 46.29.03 69.44-4.6.29-9.22.27-13.82.04-.24-23.15-.32-46.33.03-69.48z"/></g></svg>