<svg width="400" height="400" viewBox="0 0 300 300" xmlns="http://www.w3.org/2000/svg"><g fill="#dc0000"><path d="M0 0h300v300H0V0m72.81 60.12c-1.87 3.28-1.44 7.18-1.34 10.8 5.64-1.42 11.07-4.59 13.98-9.78 1.79-2.65 1.11-6 1.24-9-5.53.1-11.19 3.05-13.88 7.98m142.35-7.07c.1 3.42-.22 7.17 1.77 10.17 2.79 4.56 7.8 7 12.6 8.88 3.47-9.05-4.66-19.99-14.37-19.05M59.7 56.9c-3.03 5.83-2.99 13.2.74 18.71 1.72 2.38 3.77 5.64 7.17 5.13 2.31-5.28 2.67-11.78-.23-16.92-1.72-3.05-3.81-6.57-7.68-6.92m174.71 25.09c5.06-.58 7.66-5.85 9.1-10.14.2-4.94 1.5-10.87-2.3-14.79-7.83 5.36-11.33 16.34-6.8 24.93m-132.06-21.3c1.29 2.29 3.37 4.47 3.17 7.27.15 2.9-.88 5.65-1.68 8.38-5.52 17.56-10.71 35.23-16.14 52.82-1.2 4.04-3.47 7.64-5.62 11.23 6.58.15 13.16.13 19.74.03-1.6-3.2-3.13-6.64-2.43-10.32.87-4.52 2.81-8.79 3.54-13.36 7.02-.03 14.05-.11 21.07 0 .82 4.85 2.96 9.4 3.58 14.29.51 3.36-1.36 6.36-2.45 9.39 9.59.07 19.2.15 28.79-.03-2.51-5.13-5.67-10-7.14-15.58-6.27-21.36-12.27-42.81-18.53-64.18-8.64-.03-17.27-.13-25.9.06m53.23-.08c2.69 3.54 3.94 7.93 3.82 12.36.06 18.35.08 36.7 0 55.06.09 4.44-.94 9.01-4.05 12.34 11.22.25 22.44.01 33.65.12 12.58.9 24.63-10.82 23.56-23.5.54-9.48-6.3-17.45-14.21-21.75 5.99-4.37 10.53-11.44 9.15-19.13-.91-8.56-8.86-15.58-17.43-15.54-11.5.03-22.99 0-34.49.04m-85.57 20.8c4.56.18 9.52-.21 13.23-3.16 2.56-1.9 3.72-4.96 4.99-7.76-7.5-2.72-17.12 2.85-18.22 10.92m143.98-9.94c1.32 3.49 3.11 7.19 6.65 8.91 3.71 1.64 8.24 3.24 12.02.91-2.98-6.93-11.07-12.7-18.67-9.82M50.5 73.06c-.15 3.31-.42 6.68.16 9.97 1.89 6.02 6.84 11.09 12.9 12.96 3.12-9.42-3.04-21.23-13.06-22.93M239.1 83.2c-2.48 4.13-1.8 9.13-1.46 13.69 9.67-2.4 16.36-13.72 12.74-23.21-4.83 1.55-9.13 4.86-11.28 9.52M65.89 95.62c8.06.65 17.68-4.34 17.96-13.29-8.19-1.14-17.46 4.55-17.96 13.29m151.28-12.28c1.14 3.35 1.91 7.27 5.04 9.39 3.77 3.12 8.78 3.77 13.49 3.91-1.2-8.59-10.05-14.74-18.53-13.3M48.18 101.7c3.17 5.36 9.05 9.61 15.52 9.02-.3-5.03-2-10.17-5.62-13.8-2.97-3.4-7.4-4.83-11.65-5.84-1.79 3.57.3 7.33 1.75 10.62m190.22 9.55c10.01-.22 18.49-9.57 17.39-19.58-9.9.32-18.46 9.62-17.39 19.58m-171.89-1.47c3.29-.94 6.69-1.72 9.65-3.51 4.19-2.36 6.42-7.24 6.54-11.92-8.15-.36-17.85 6.47-16.19 15.43M220.32 95.4c.12 2.33-.29 4.89.99 7 2.77 5.69 9.42 8.33 15.46 8.35-.5-8.52-8.45-14.46-16.45-15.35M67.25 122.62c8.36 1.1 14.99-7.51 14.27-15.42-7.99-.27-14.12 7.9-14.27 15.42m152.18-15.6c0 2.61-.44 5.33.37 7.86 2.39 4.84 7.3 8.36 12.69 8.91 1.22-8.04-5.57-15.18-13.06-16.77m-174.27 3.34c1.58 9.69 10.97 17.15 20.81 16.12-.16-10.26-10.95-18.03-20.81-16.12m189.02 16.23c9.5 1.28 19.88-6.44 19.75-16.35-9.64-1.26-19.36 6.58-19.75 16.35m-159.59-1.04c-1.85 3.39-1.41 7.44-1.03 11.13.36.23 1.09.69 1.45.92 3.55-2.63 7.13-5.7 8.79-9.91 1.37-3.45.37-7.24-.55-10.67-3.59 1.97-6.8 4.82-8.66 8.53m142.1-7.62c-.47 4.31-1.23 9.08 1.14 13.02 1.94 3.33 4.78 7.1 9.06 6.96 2.42-7.88-2.19-17.58-10.2-19.98M49.05 128.61c1.06 6.06 6.52 10.33 12.2 11.83 3.82.53 7.69.23 11.51-.07-.47-1.74-.77-3.68-2.17-4.95-2.75-2.91-5.79-5.98-9.83-6.92-3.88-.56-7.82-.17-11.71.11m188.94.5c-4.21 2.57-8.29 6.31-9.02 11.45 9.32 2.76 19.95-3.78 22.36-13.07-4.46-.33-9.34-.81-13.34 1.62M62.28 160.23c-.26 2.02 1.25 5.05-1.35 5.95-5.77.34-11.57-.05-17.35.26.05 3.76.06 7.51-.03 11.27 2.29.48 4.63.65 6.97.58.37-1.95.76-3.88 1.12-5.82 3.09.06 6.18.04 9.27.05-.45 3.09-1.22 6.18-2.78 8.91-5.45.67-10.97.12-16.45.31-.06 2.25-.1 4.51-.15 6.77 4.18.24 8.53-.62 12.54.9-1.58 2.18-3.14 4.37-4.69 6.56 3.76 1.01 7.5 2.19 11.07 3.77.27.86-.06 1.39-.99 1.58-4.91 2.31-10.52 2.14-15.53 4.15 1.16 1.68 2.2 3.45 3.58 4.97 8.11 1.65 15.44-3.34 22.66-6.14 5.41.31 9.85 4.24 13.97 7.44 2.27-2.04 4.35-4.33 5.85-7.01-4.28-2.53-8.86-4.47-13.39-6.5 1.55-3.14 3.13-6.28 4.24-9.61 3.53-.07 7.06-.09 10.58-.13 0-2.03.01-4.05.02-6.08-8.13-.21-16.26-.11-24.39-.16.79-2.19 1.77-4.3 2.77-6.4-2.2-.88-4.41-1.76-6.4-3.05 5.68-.55 11.39-.06 17.08-.32.41 2.01.81 4.02 1.09 6.06 2.32-.04 4.64-.03 6.95 0 .85-4 1.11-8.15.32-12.18-5.88-.28-11.83.44-17.67-.52-.37-2.03-.58-4.08-.75-6.14-2.73-.09-5.46.12-8.16.53m47.22.17c-.03 2.66-.07 5.31-.1 7.97-3.38.07-6.76.09-10.14.01-.02 1.75-.05 3.51-.09 5.27 3.47.12 6.91.55 10.37.83-.07 1.28-.14 2.56-.19 3.85-2.96.02-5.92.03-8.87.01-.08 1.75-.14 3.51-.21 5.26 3.08.04 6.17.24 9.22.77-.07 1.36-.12 2.72-.16 4.08-3.96.16-7.92.14-11.88.13-.03 1.95-.03 3.9-.03 5.85 3.52.01 7.03.01 10.55.12-1.45 4.72-4.54 8.63-8.27 11.78 1.41 1.77 3.2 4.47 5.83 3.27 4.83-3.67 7.98-9.28 9.23-15.17 3.29-.01 6.57.01 9.85.09l.12-5.36c-2.77 0-5.54 0-8.31.05-.37-1.42-.87-2.85-.74-4.34 2.18-1.96 5.35-.94 8-1.2-.01-1.75-.01-3.5.01-5.24-2.43-.03-4.86-.07-7.29-.16-.02-1.31-.05-2.62-.09-3.93 3.05-.02 6.08-.36 9.11-.75-.12-1.72-.24-3.44-.42-5.15l-8.57-.03c-.01-2.62.01-5.24.01-7.86-2.31-.04-4.63-.09-6.94-.15m121.25-.14c-.73 1.77-.51 4.53-2.82 5.04-5.12.23-10.25-.09-15.37.15.02 1.7.03 3.4.03 5.09 5.66.69 11.82-1.28 17.05 1.48-5.03 2.48-10.78.85-16.15 1.4.04 1.69.06 3.38.07 5.08 2.8.02 5.6 0 8.41-.01 1.72.21 4.55-.66 5.02 1.81-5.48.48-10.98.19-16.47.24-.29 1.98-.65 3.95-1 5.92 4.66.1 9.33.03 13.99.17-2.61 6.63-7.76 11.77-12.74 16.68 1.89 1.55 4.01 2.78 6.25 3.77 3.5-3.2 6.6-6.78 9.6-10.45 4.95-.29 9.93-.2 14.9-.24-.03 2.54-.06 5.08-.16 7.62-1.74.43-3.46.91-5.16 1.46.8 2.08 1.62 4.15 2.49 6.21 3.29-.33 6.68-.77 9.63-2.4.89-4.21.24-8.58.46-12.85 3.2-.03 6.45.14 9.58-.65-.04-1.72-.04-3.44-.03-5.16-3.07-.1-6.13-.13-9.19-.2.06-1.33.12-2.65.17-3.98 3.38.1 6.77.06 10.16.1.06-1.73.13-3.46.21-5.19-8.51-1.92-17.4.08-26.02-1.16.49-.38 1.48-1.15 1.98-1.53 5.87-.56 11.81.34 17.67-.43-.03-1.53.85-3.55-.41-4.77-5.76-.81-11.92 1.2-17.33-1.46 6.52-2.75 13.84-.74 20.72-1.45-.01-1.71-.01-3.42 0-5.14-6-.13-12-.01-18-.1.07-1.65.14-3.29.23-4.94-2.59-.06-5.18-.1-7.77-.11m-56.86 2.86c-.73 6.13.36 12.38-.85 18.47-1.51 5.58-4.29 10.93-8.55 14.9-3.41 3.41-7.71 5.68-11.63 8.41 2.1 1.64 3.62 5.34 6.76 4.78 4.19-1.83 7.74-4.91 10.85-8.21 3.3-3.46 5.37-7.84 8.44-11.47 2.2 4.85 5.02 9.48 8.94 13.14 2.77 2.54 5.36 5.77 9.16 6.72 2.65-1.42 4.32-4.09 6.41-6.17-4.06-2.99-8.9-4.94-12.39-8.67-4.43-4.37-6.9-10.32-8.29-16.29-.87-5.37-.35-10.84 0-16.23-2.82-.02-7.12-2.49-8.85.62m-47.35.39c-.22 15.7-.01 31.41-.04 47.11 2.05.05 4.09.08 6.13.12 1.14-4.17.44-8.51.85-12.76.92 1.89 1.67 3.85 2.36 5.84 5.22.45 12.32-2.68 11.74-8.81.59-5.31-2.9-9.61-5.03-14.12.75-5.61 2.93-10.99 4.29-16.5-6.51-1.96-13.56-.44-20.3-.88m99.7 36.11c1.16 2.16 2.34 4.31 3.57 6.45 2.25-.65 4.38-1.63 6.43-2.76a81.983 81.983 0 0 0-4.17-6.68c-2 .88-3.96 1.87-5.83 2.99M65.41 224.47c-.02 8.31-.32 16.64.09 24.94.98-.01 1.97-.02 2.95-.04.3-5.94-.05-11.89.3-17.83 4.48 4.93 7.67 10.83 11.42 16.31.84 1.46 2.72 1.41 4.15 1.83.28-8.36.12-16.72.13-25.08-1.02-.05-2.03-.09-3.04-.11-.16 5.65.02 11.31-.25 16.96-1.45-1.04-2.94-2.11-3.82-3.7a362.97 362.97 0 0 0-8.74-13.2c-1.06-.02-2.13-.05-3.19-.08m84.95-.04c-.12 5.75.21 11.51-.21 17.25-5.02-4.92-7.97-11.45-12.39-16.84-1.45-.93-2.51-.61-3.17.98-.15 7.67-.06 15.34-.02 23.01l3.14-.16c.08-5.7-.13-11.41.14-17.1 4.83 5.19 7.91 11.68 12.29 17.22 1.13-.03 2.27-.06 3.41-.08-.03-8.02.09-16.04-.04-24.06-1.05-.07-2.1-.14-3.15-.22m8.17 7.98c-.5 4.56-.97 9.94 2.55 13.5 5.12 5.07 14.28 4.61 19.29-.39.31-2.99.12-6.01.11-9.01-3.37-.01-6.75.02-10.12-.02-.03 1.04-.07 2.08-.11 3.12 2.35.04 4.71.1 7.06.24-.27 1.58-.55 3.17-.8 4.76-2.92 1.01-6.13 2.54-9.22 1.27-6.59-1.62-7.32-10.75-3.92-15.55 2.03-3.46 6.52-3.33 9.96-2.64 2.2 1.49 3.55 4.35 6.51 4.42-.43-2.18-.97-4.67-3-5.93-2.46-2.05-5.81-1.9-8.81-1.76-4.5.06-8.34 3.81-9.5 7.99m35.79-7.93c-.08 8.26-.07 16.51.05 24.76 5.28-.03 10.73.79 15.82-1.02-2.75-4.35-8.43-1.95-12.69-2.56-.02-7.06.17-14.13-.16-21.19-.76.01-2.27.01-3.02.01m19.23.16c-.02 8.2-.07 16.42.03 24.62 1 .08 2.01.15 3.01.24.2-8.36.1-16.72.05-25.09-1.03.09-2.06.16-3.09.23m-164.48 1.35c-3.27 7.38-5.57 15.17-8.85 22.56 1.21.07 2.42.14 3.63.2.92-2.39 1.58-4.95 3.19-6.99 2.96-.25 5.94-.27 8.89-.02 1.64 2.39 2.45 5.22 3.95 7.7.74-.23 2.23-.68 2.98-.91-3.14-7.39-5.84-14.97-9.18-22.27-.5-2.11-4.07-2.57-4.61-.27m40.38-1.33c.08 8.08-.01 16.15.04 24.23 5.22.62 11.07 1.16 15.84-1.45 4.02-2.82 2.28-8.15 0-11.5.73-3.11 2.57-7.14-.55-9.59-4.49-2.99-10.26-1.43-15.33-1.69m29.61-.03c-2.42 4.07-3.58 8.71-5.41 13.05-1.4 3.92-3.82 7.71-3.24 12.04.74-.36 2.22-1.08 2.96-1.43.7-2.25 1.47-4.47 2.28-6.67 3.21-.02 6.43-.03 9.65 0 1.4 2.72 1.76 6.48 4.75 7.99.44-.32 1.31-.97 1.75-1.29-3.16-7.94-6.12-16.02-9.86-23.7-.72.01-2.16.01-2.88.01m103.48-.13c-.26 8.07-.08 16.16-.11 24.24 1.05 0 2.11 0 3.18.01.02-3.45.04-6.9.15-10.35 3.63-.07 7.26-.07 10.89-.14.03-.75.1-2.24.13-2.98-3.74.12-7.54.25-11.17-.83.03-2.27.04-4.54.03-6.81 4.35-.12 8.71.1 13.05-.17-.03-.7-.11-2.08-.15-2.78-5.33-.25-10.67-.03-16-.19m20.49 7.5c.8 4.68-.73 9.34-.24 14.03.28 1.23.36 3.67 2.24 3.31 5.2.02 10.39.02 15.59-.06.01-.78.05-2.34.07-3.13-4.77-.7-9.6-.37-14.4-.45.02-2.56.03-5.13.08-7.69 4.39-.53 8.82-.28 13.24-.36-.01-.57-.02-1.7-.03-2.26-4.37-.89-8.84-.72-13.27-.71-.01-2.38 0-4.75.03-7.13 5.01-.42 10.75 1.45 15.13-1.58-5.4-2.66-11.72-.94-17.53-1.35-1.92 1.99-1.09 4.94-.91 7.38z"/><path d="M179.51 72.33c4.28-.16 8.96 1.62 10.79 5.77 1.04 3.72.73 8.28-2.44 10.91-2.22 2.25-5.59 1.63-8.43 1.82-.08-6.16-.12-12.33.08-18.5zm-72.36 33.14c1.47-7.41 3.38-14.92 6.78-21.69 2.43 7.1 4.62 14.32 6.19 21.68-4.33.09-8.65.11-12.97.01zm72.37-4.06c6.17-.03 12.64 3.36 14.79 9.4 3.24 7.36-1.74 16.52-9.3 18.6-1.85.28-3.73.26-5.59.33-.04-9.44-.19-18.89.1-28.33zm-46.1 67.88c1.78.09 3.56.18 5.35.31-.62 4.25-2.74 8.14-3.36 12.36 1.87 3.55 4.86 6.81 5.09 11-.84 3.16-4.08 3.94-6.95 3.87-.38-9.17-.15-18.36-.13-27.54zm98.69 17.54c2.91-.62 5.95-.35 8.91-.2.33 1.25.51 2.53.72 3.81-3.9.1-7.81.12-11.71-.08.67-1.19 1.3-2.41 2.08-3.53zm-171.35 4.33c2.53-3.73 7.5-2.94 11.18-1.68-1.22 1.86-2.45 3.71-3.73 5.52-2.75-.7-5.37-1.88-7.45-3.84zm32.01 43.55c.24-2.38-1.09-5.43 1.16-7.12 2.95-.2 5.88.33 8.75.98.01 1.93-.04 3.87-.13 5.82-3.26.24-6.52.33-9.78.32zm-41.64-5.86c1.65 3.15 3.11 6.46 3.65 10.01-2.27.58-4.59.33-6.85-.17.71-3.39 2.01-6.61 3.2-9.84zm65.87 9.8c.7-3.29 1.97-6.43 3.8-9.25 1.21 3.02 2.43 6.04 3.2 9.21-2.33.06-4.67.08-7 .04zm-24.22-.98c3.45 0 7.15-.49 10.28 1.3 1.78 1.63 1.78 4.47.1 6.17-3.35 1.04-6.94.45-10.4.5-.05-2.65-.04-5.31.02-7.97z"/></g><g fill="#fcfcfb"><path d="M72.81 60.12c2.69-4.93 8.35-7.88 13.88-7.98-.13 3 .55 6.35-1.24 9-2.91 5.19-8.34 8.36-13.98 9.78-.1-3.62-.53-7.52 1.34-10.8zm142.35-7.07c9.71-.94 17.84 10 14.37 19.05-4.8-1.88-9.81-4.32-12.6-8.88-1.99-3-1.67-6.75-1.77-10.17zM59.7 56.9c3.87.35 5.96 3.87 7.68 6.92 2.9 5.14 2.54 11.64.23 16.92-3.4.51-5.45-2.75-7.17-5.13-3.73-5.51-3.77-12.88-.74-18.71zm174.71 25.09c-4.53-8.59-1.03-19.57 6.8-24.93 3.8 3.92 2.5 9.85 2.3 14.79-1.44 4.29-4.04 9.56-9.1 10.14zm-132.06-21.3c8.63-.19 17.26-.09 25.9-.06 6.26 21.37 12.26 42.82 18.53 64.18 1.47 5.58 4.63 10.45 7.14 15.58-9.59.18-19.2.1-28.79.03 1.09-3.03 2.96-6.03 2.45-9.39-.62-4.89-2.76-9.44-3.58-14.29-7.02-.11-14.05-.03-21.07 0-.73 4.57-2.67 8.84-3.54 13.36-.7 3.68.83 7.12 2.43 10.32-6.58.1-13.16.12-19.74-.03 2.15-3.59 4.42-7.19 5.62-11.23 5.43-17.59 10.62-35.26 16.14-52.82.8-2.73 1.83-5.48 1.68-8.38.2-2.8-1.88-4.98-3.17-7.27m4.8 44.78c4.32.1 8.64.08 12.97-.01-1.57-7.36-3.76-14.58-6.19-21.68-3.4 6.77-5.31 14.28-6.78 21.69zm48.43-44.86c11.5-.04 22.99-.01 34.49-.04 8.57-.04 16.52 6.98 17.43 15.54 1.38 7.69-3.16 14.76-9.15 19.13 7.91 4.3 14.75 12.27 14.21 21.75 1.07 12.68-10.98 24.4-23.56 23.5-11.21-.11-22.43.13-33.65-.12 3.11-3.33 4.14-7.9 4.05-12.34.08-18.36.06-36.71 0-55.06.12-4.43-1.13-8.82-3.82-12.36m23.93 11.72c-.2 6.17-.16 12.34-.08 18.5 2.84-.19 6.21.43 8.43-1.82 3.17-2.63 3.48-7.19 2.44-10.91-1.83-4.15-6.51-5.93-10.79-5.77m.01 29.08c-.29 9.44-.14 18.89-.1 28.33 1.86-.07 3.74-.05 5.59-.33 7.56-2.08 12.54-11.24 9.3-18.6-2.15-6.04-8.62-9.43-14.79-9.4zm-109.51-20c1.1-8.07 10.72-13.64 18.22-10.92-1.27 2.8-2.43 5.86-4.99 7.76-3.71 2.95-8.67 3.34-13.23 3.16zm143.98-9.94c7.6-2.88 15.69 2.89 18.67 9.82-3.78 2.33-8.31.73-12.02-.91-3.54-1.72-5.33-5.42-6.65-8.91zM50.5 73.06c10.02 1.7 16.18 13.51 13.06 22.93-6.06-1.87-11.01-6.94-12.9-12.96-.58-3.29-.31-6.66-.16-9.97zM239.1 83.2c2.15-4.66 6.45-7.97 11.28-9.52 3.62 9.49-3.07 20.81-12.74 23.21-.34-4.56-1.02-9.56 1.46-13.69zM65.89 95.62c.5-8.74 9.77-14.43 17.96-13.29-.28 8.95-9.9 13.94-17.96 13.29zm151.28-12.28c8.48-1.44 17.33 4.71 18.53 13.3-4.71-.14-9.72-.79-13.49-3.91-3.13-2.12-3.9-6.04-5.04-9.39zM48.18 101.7c-1.45-3.29-3.54-7.05-1.75-10.62 4.25 1.01 8.68 2.44 11.65 5.84 3.62 3.63 5.32 8.77 5.62 13.8-6.47.59-12.35-3.66-15.52-9.02zm190.22 9.55c-1.07-9.96 7.49-19.26 17.39-19.58 1.1 10.01-7.38 19.36-17.39 19.58zm-171.89-1.47c-1.66-8.96 8.04-15.79 16.19-15.43-.12 4.68-2.35 9.56-6.54 11.92-2.96 1.79-6.36 2.57-9.65 3.51zM220.32 95.4c8 .89 15.95 6.83 16.45 15.35-6.04-.02-12.69-2.66-15.46-8.35-1.28-2.11-.87-4.67-.99-7zM67.25 122.62c.15-7.52 6.28-15.69 14.27-15.42.72 7.91-5.91 16.52-14.27 15.42zm152.18-15.6c7.49 1.59 14.28 8.73 13.06 16.77-5.39-.55-10.3-4.07-12.69-8.91-.81-2.53-.37-5.25-.37-7.86zm-174.27 3.34c9.86-1.91 20.65 5.86 20.81 16.12-9.84 1.03-19.23-6.43-20.81-16.12zm189.02 16.23c.39-9.77 10.11-17.61 19.75-16.35.13 9.91-10.25 17.63-19.75 16.35zm-159.59-1.04c1.86-3.71 5.07-6.56 8.66-8.53.92 3.43 1.92 7.22.55 10.67-1.66 4.21-5.24 7.28-8.79 9.91-.36-.23-1.09-.69-1.45-.92-.38-3.69-.82-7.74 1.03-11.13zm142.1-7.62c8.01 2.4 12.62 12.1 10.2 19.98-4.28.14-7.12-3.63-9.06-6.96-2.37-3.94-1.61-8.71-1.14-13.02zM49.05 128.61c3.89-.28 7.83-.67 11.71-.11 4.04.94 7.08 4.01 9.83 6.92 1.4 1.27 1.7 3.21 2.17 4.95-3.82.3-7.69.6-11.51.07-5.68-1.5-11.14-5.77-12.2-11.83zm188.94.5c4-2.43 8.88-1.95 13.34-1.62-2.41 9.29-13.04 15.83-22.36 13.07.73-5.14 4.81-8.88 9.02-11.45zM62.28 160.23c2.7-.41 5.43-.62 8.16-.53.17 2.06.38 4.11.75 6.14 5.84.96 11.79.24 17.67.52.79 4.03.53 8.18-.32 12.18-2.31-.03-4.63-.04-6.95 0-.28-2.04-.68-4.05-1.09-6.06-5.69.26-11.4-.23-17.08.32 1.99 1.29 4.2 2.17 6.4 3.05-1 2.1-1.98 4.21-2.77 6.4 8.13.05 16.26-.05 24.39.16-.01 2.03-.02 4.05-.02 6.08-3.52.04-7.05.06-10.58.13-1.11 3.33-2.69 6.47-4.24 9.61 4.53 2.03 9.11 3.97 13.39 6.5-1.5 2.68-3.58 4.97-5.85 7.01-4.12-3.2-8.56-7.13-13.97-7.44-7.22 2.8-14.55 7.79-22.66 6.14-1.38-1.52-2.42-3.29-3.58-4.97 5.01-2.01 10.62-1.84 15.53-4.15.93-.19 1.26-.72.99-1.58-3.57-1.58-7.31-2.76-11.07-3.77 1.55-2.19 3.11-4.38 4.69-6.56-4.01-1.52-8.36-.66-12.54-.9.05-2.26.09-4.52.15-6.77 5.48-.19 11 .36 16.45-.31 1.56-2.73 2.33-5.82 2.78-8.91-3.09-.01-6.18.01-9.27-.05-.36 1.94-.75 3.87-1.12 5.82-2.34.07-4.68-.1-6.97-.58.09-3.76.08-7.51.03-11.27 5.78-.31 11.58.08 17.35-.26 2.6-.9 1.09-3.93 1.35-5.95m-1.52 30.93c2.08 1.96 4.7 3.14 7.45 3.84 1.28-1.81 2.51-3.66 3.73-5.52-3.68-1.26-8.65-2.05-11.18 1.68zm48.74-30.76c2.31.06 4.63.11 6.94.15 0 2.62-.02 5.24-.01 7.86l8.57.03c.18 1.71.3 3.43.42 5.15-3.03.39-6.06.73-9.11.75.04 1.31.07 2.62.09 3.93 2.43.09 4.86.13 7.29.16-.02 1.74-.02 3.49-.01 5.24-2.65.26-5.82-.76-8 1.2-.13 1.49.37 2.92.74 4.34 2.77-.05 5.54-.05 8.31-.05l-.12 5.36c-3.28-.08-6.56-.1-9.85-.09-1.25 5.89-4.4 11.5-9.23 15.17-2.63 1.2-4.42-1.5-5.83-3.27 3.73-3.15 6.82-7.06 8.27-11.78-3.52-.11-7.03-.11-10.55-.12 0-1.95 0-3.9.03-5.85 3.96.01 7.92.03 11.88-.13.04-1.36.09-2.72.16-4.08-3.05-.53-6.14-.73-9.22-.77.07-1.75.13-3.51.21-5.26 2.95.02 5.91.01 8.87-.01.05-1.29.12-2.57.19-3.85-3.46-.28-6.9-.71-10.37-.83.04-1.76.07-3.52.09-5.27 3.38.08 6.76.06 10.14-.01.03-2.66.07-5.31.1-7.97zm121.25-.14c2.59.01 5.18.05 7.77.11-.09 1.65-.16 3.29-.23 4.94 6 .09 12-.03 18 .1-.01 1.72-.01 3.43 0 5.14-6.88.71-14.2-1.3-20.72 1.45 5.41 2.66 11.57.65 17.33 1.46 1.26 1.22.38 3.24.41 4.77-5.86.77-11.8-.13-17.67.43-.5.38-1.49 1.15-1.98 1.53 8.62 1.24 17.51-.76 26.02 1.16-.08 1.73-.15 3.46-.21 5.19-3.39-.04-6.78 0-10.16-.1-.05 1.33-.11 2.65-.17 3.98 3.06.07 6.12.1 9.19.2-.01 1.72-.01 3.44.03 5.16-3.13.79-6.38.62-9.58.65-.22 4.27.43 8.64-.46 12.85-2.95 1.63-6.34 2.07-9.63 2.4-.87-2.06-1.69-4.13-2.49-6.21 1.7-.55 3.42-1.03 5.16-1.46.1-2.54.13-5.08.16-7.62-4.97.04-9.95-.05-14.9.24-3 3.67-6.1 7.25-9.6 10.45-2.24-.99-4.36-2.22-6.25-3.77 4.98-4.91 10.13-10.05 12.74-16.68-4.66-.14-9.33-.07-13.99-.17.35-1.97.71-3.94 1-5.92 5.49-.05 10.99.24 16.47-.24-.47-2.47-3.3-1.6-5.02-1.81-2.81.01-5.61.03-8.41.01-.01-1.7-.03-3.39-.07-5.08 5.37-.55 11.12 1.08 16.15-1.4-5.23-2.76-11.39-.79-17.05-1.48 0-1.69-.01-3.39-.03-5.09 5.12-.24 10.25.08 15.37-.15 2.31-.51 2.09-3.27 2.82-5.04m1.36 26.57c-.78 1.12-1.41 2.34-2.08 3.53 3.9.2 7.81.18 11.71.08-.21-1.28-.39-2.56-.72-3.81-2.96-.15-6-.42-8.91.2zm-58.22-23.71c1.73-3.11 6.03-.64 8.85-.62-.35 5.39-.87 10.86 0 16.23 1.39 5.97 3.86 11.92 8.29 16.29 3.49 3.73 8.33 5.68 12.39 8.67-2.09 2.08-3.76 4.75-6.41 6.17-3.8-.95-6.39-4.18-9.16-6.72-3.92-3.66-6.74-8.29-8.94-13.14-3.07 3.63-5.14 8.01-8.44 11.47-3.11 3.3-6.66 6.38-10.85 8.21-3.14.56-4.66-3.14-6.76-4.78 3.92-2.73 8.22-5 11.63-8.41 4.26-3.97 7.04-9.32 8.55-14.9 1.21-6.09.12-12.34.85-18.47zm-47.35.39c6.74.44 13.79-1.08 20.3.88-1.36 5.51-3.54 10.89-4.29 16.5 2.13 4.51 5.62 8.81 5.03 14.12.58 6.13-6.52 9.26-11.74 8.81-.69-1.99-1.44-3.95-2.36-5.84-.41 4.25.29 8.59-.85 12.76-2.04-.04-4.08-.07-6.13-.12.03-15.7-.18-31.41.04-47.11m6.88 5.78c-.02 9.18-.25 18.37.13 27.54 2.87.07 6.11-.71 6.95-3.87-.23-4.19-3.22-7.45-5.09-11 .62-4.22 2.74-8.11 3.36-12.36-1.79-.13-3.57-.22-5.35-.31z"/><path d="M226.24 199.62c1.87-1.12 3.83-2.11 5.83-2.99 1.5 2.15 2.88 4.39 4.17 6.68-2.05 1.13-4.18 2.11-6.43 2.76-1.23-2.14-2.41-4.29-3.57-6.45zM65.41 224.47c1.06.03 2.13.06 3.19.08 3.01 4.33 5.92 8.74 8.74 13.2.88 1.59 2.37 2.66 3.82 3.7.27-5.65.09-11.31.25-16.96 1.01.02 2.02.06 3.04.11-.01 8.36.15 16.72-.13 25.08-1.43-.42-3.31-.37-4.15-1.83-3.75-5.48-6.94-11.38-11.42-16.31-.35 5.94 0 11.89-.3 17.83-.98.02-1.97.03-2.95.04-.41-8.3-.11-16.63-.09-24.94zm84.95-.04c1.05.08 2.1.15 3.15.22.13 8.02.01 16.04.04 24.06-1.14.02-2.28.05-3.41.08-4.38-5.54-7.46-12.03-12.29-17.22-.27 5.69-.06 11.4-.14 17.1l-3.14.16c-.04-7.67-.13-15.34.02-23.01.66-1.59 1.72-1.91 3.17-.98 4.42 5.39 7.37 11.92 12.39 16.84.42-5.74.09-11.5.21-17.25zm8.17 7.98c1.16-4.18 5-7.93 9.5-7.99 3-.14 6.35-.29 8.81 1.76 2.03 1.26 2.57 3.75 3 5.93-2.96-.07-4.31-2.93-6.51-4.42-3.44-.69-7.93-.82-9.96 2.64-3.4 4.8-2.67 13.93 3.92 15.55 3.09 1.27 6.3-.26 9.22-1.27.25-1.59.53-3.18.8-4.76-2.35-.14-4.71-.2-7.06-.24.04-1.04.08-2.08.11-3.12 3.37.04 6.75.01 10.12.02.01 3 .2 6.02-.11 9.01-5.01 5-14.17 5.46-19.29.39-3.52-3.56-3.05-8.94-2.55-13.5zm35.79-7.93c.75 0 2.26 0 3.02-.01.33 7.06.14 14.13.16 21.19 4.26.61 9.94-1.79 12.69 2.56-5.09 1.81-10.54.99-15.82 1.02-.12-8.25-.13-16.5-.05-24.76zm19.23.16c1.03-.07 2.06-.14 3.09-.23.05 8.37.15 16.73-.05 25.09-1-.09-2.01-.16-3.01-.24-.1-8.2-.05-16.42-.03-24.62zm-164.48 1.35c.54-2.3 4.11-1.84 4.61.27 3.34 7.3 6.04 14.88 9.18 22.27-.75.23-2.24.68-2.98.91-1.5-2.48-2.31-5.31-3.95-7.7-2.95-.25-5.93-.23-8.89.02-1.61 2.04-2.27 4.6-3.19 6.99-1.21-.06-2.42-.13-3.63-.2 3.28-7.39 5.58-15.18 8.85-22.56m2.06 2.86c-1.19 3.23-2.49 6.45-3.2 9.84 2.26.5 4.58.75 6.85.17-.54-3.55-2-6.86-3.65-10.01zm38.32-4.19c5.07.26 10.84-1.3 15.33 1.69 3.12 2.45 1.28 6.48.55 9.59 2.28 3.35 4.02 8.68 0 11.5-4.77 2.61-10.62 2.07-15.84 1.45-.05-8.08.04-16.15-.04-24.23m3.32 10.05c3.26.01 6.52-.08 9.78-.32.09-1.95.14-3.89.13-5.82-2.87-.65-5.8-1.18-8.75-.98-2.25 1.69-.92 4.74-1.16 7.12m.01 2.96c-.06 2.66-.07 5.32-.02 7.97 3.46-.05 7.05.54 10.4-.5 1.68-1.7 1.68-4.54-.1-6.17-3.13-1.79-6.83-1.3-10.28-1.3zm26.28-13.04c.72 0 2.16 0 2.88-.01 3.74 7.68 6.7 15.76 9.86 23.7-.44.32-1.31.97-1.75 1.29-2.99-1.51-3.35-5.27-4.75-7.99-3.22-.03-6.44-.02-9.65 0-.81 2.2-1.58 4.42-2.28 6.67-.74.35-2.22 1.07-2.96 1.43-.58-4.33 1.84-8.12 3.24-12.04 1.83-4.34 2.99-8.98 5.41-13.05M117 238.65c2.33.04 4.67.02 7-.04-.77-3.17-1.99-6.19-3.2-9.21-1.83 2.82-3.1 5.96-3.8 9.25zm105.54-14.15c5.33.16 10.67-.06 16 .19.04.7.12 2.08.15 2.78-4.34.27-8.7.05-13.05.17.01 2.27 0 4.54-.03 6.81 3.63 1.08 7.43.95 11.17.83-.03.74-.1 2.23-.13 2.98-3.63.07-7.26.07-10.89.14-.11 3.45-.13 6.9-.15 10.35-1.07-.01-2.13-.01-3.18-.01.03-8.08-.15-16.17.11-24.24zm20.49 7.5c-.18-2.44-1.01-5.39.91-7.38 5.81.41 12.13-1.31 17.53 1.35-4.38 3.03-10.12 1.16-15.13 1.58-.03 2.38-.04 4.75-.03 7.13 4.43-.01 8.9-.18 13.27.71.01.56.02 1.69.03 2.26-4.42.08-8.85-.17-13.24.36-.05 2.56-.06 5.13-.08 7.69 4.8.08 9.63-.25 14.4.45-.02.79-.06 2.35-.07 3.13-5.2.08-10.39.08-15.59.06-1.88.36-1.96-2.08-2.24-3.31-.49-4.69 1.04-9.35.24-14.03z"/></g></svg>