<svg width="400" height="400" viewBox="0 0 300 300" xmlns="http://www.w3.org/2000/svg"><g fill="#fefeff"><path d="M0 0h300v300H0V0m144.19 19.25c-5.12 4.8-9.81 10.03-15 14.74.48 4.05 2.92 7.97 6.35 10.13 9.26 1.85 18.71 4.18 26.59 9.62 5.25 3.44 9.23 9.1 9.29 15.54-3.1 7.14-11.15 10.38-18.49 10.64 7.42 2.05 14.64 4.91 21.32 8.76 5 2.97 10.41 6.6 12.24 12.42 1.7 7.2-3.66 13.41-9.09 17.3-6.01 4.01-13.27 6.69-20.57 6.17 3.96-2.02 8.38-4.75 9.37-9.45.23-2.98-2.02-5.46-4.45-6.85-5.34-3.07-11.46-4.35-17.43-5.55-13.4-2.11-27.51-2.16-40.53 1.93 13.17 13.32 26.51 26.47 39.7 39.77 4.05 4.45 11.96 4.52 16.03.06 18.32-18.34 36.67-36.67 54.99-55.01 4.09-4.25 3.6-11.48-.64-15.47-17.91-18.03-35.93-35.97-53.9-53.95-3.98-4.35-11.44-4.88-15.78-.8M89.06 76.03c-2.56 2.21-2.81 5.74-2.93 8.89 19.37-7.05 40.58-8.96 60.78-4.72 2.77.8 5.34-.71 7.74-1.86l-.18-3.49c-8.52-6.82-19.69-9.59-30.45-9.39-12.3.02-25.25 2.58-34.96 10.57m173.45 102.93c3.85 2.21 1.02 7.02.94 10.48-3.11 1.72-6.66 2.31-10.17 2.55.34 4.49 5.44 3.84 8.65 3.49-.46 1.33-.94 2.64-1.45 3.95-2.24.57-4.49 1.08-6.77 1.48-.1.3-.3.92-.4 1.23.4.34 1.22 1.01 1.62 1.35 1.44.04 2.87.09 4.31.14-.47 1.84-1.36 3.78-3.41 4.24-5.21 1.33-10.53 2.62-15.93 2.73.45 2.61 1.99 5.73 5.04 5.74 3.15-.25 6.09-1.63 9.21-2.12-3.97 6.31-8.03 12.69-13.45 17.88-.56.26-1.67.76-2.22 1.01-.07.49-.21 1.48-.27 1.98 8.27-.55 13.63-7.65 18.81-13.25.54.15 1.61.46 2.14.61.64 3.54 1.29 7.17 3.39 10.18.97.06 1.93.13 2.9.19.64-2.02 1.01-4.11 1.12-6.23-1.37-1.4-2.79-2.75-4.36-3.91l2.93-.56c2.3-.64 4.69-.88 7.08-1.02.28 5.48.69 11.31-2.13 16.27-.85-.02-2.55-.05-3.4-.07 1.17 3.95 4.2 7.12 7.66 9.24l1.79-.28c.75-2.03 1.56-4.09 1.52-6.29.06-6.39-.08-12.79.07-19.18 3.71-.71 7.5-.62 11.27-.54-.04-1.49-.08-2.97-.13-4.45-3.11-1.52-6.62-1.11-9.96-1.07-1.17-2.1-3.17-3.39-5.25-4.48 5.08-.79 10.22-.86 15.35-.82.01-2.03.01-4.06.02-6.09-7.52-.48-14.83 1.52-22.16 2.82.38-.97 1.15-2.9 1.53-3.86 3.9-1.46 8.13-1.61 12.22-2.07-1.56-4.64-6.78-3.66-10.45-2.73.47-1.2.98-2.39 1.49-3.58 3.55-.71 7.13-1.31 10.72-1.83 1.03-4.71-4.7-6.1-8.26-5.38.49-2.23.85-4.52.35-6.78-3.23-1.81-6.85-2.8-10.57-2.45-.35.37-1.04 1.11-1.39 1.48M96.4 180.5c.08.83.16 1.66.25 2.5 2.11 2.31 4.11 4.99 4.08 8.28-7.67 2.16-15.63 3.6-23.57 4.29.59 2.33 1.71 4.49 3.57 6.05 6.94-.8 13.44-3.52 20.28-4.83 1.6.5 3.25.84 4.93.8.5-.46 1.49-1.39 1.98-1.86 8.23-.96 16.54-.25 24.8-.47.59-2.68-.95-4.79-2.73-6.59-6.92-1.39-13.81 1.19-20.76 1.14.11-2.13.87-4.57-.62-6.4-2.71-3.65-8.15-4.75-12.21-2.91m-58.98 5.13c-.56 3.24 1.44 6.16 1.03 9.39-.48 8.98-.04 17.97-.03 26.96.17 4.49 1.09 9.75 5.24 12.32 5.38 4.15 12.67 3.21 18.67 1.08.3-.58.9-1.74 1.2-2.33-.93-2.57-2.31-5.29-4.97-6.42-4.55-2.47-9.79 2.4-14.07-1.13-.77-3.66-1.22-7.9.82-11.19 4.66-2.58 10.66-1.87 15.03-5.18 1.21-2.64-1.97-5.38-4.41-5.7-3.62.16-6.6 2.5-9.86 3.81 1.04-5.09 3.72-9.77 4.28-14.94-1.19-5.59-7.85-7.97-12.93-6.67m134.96 4.64c-.09 1.57.39 3.27-.4 4.74-3.99 9.35-11.28 16.63-18 24.04-3.45 3.49-6.69 7.83-11.77 8.87 1 .65 1.97 1.34 3.05 1.86 6.72-.85 12.85-4.31 18.18-8.34 4.22-3.13 7.22-7.59 11.38-10.78 2.07-.38 3.49 1.42 4.85 2.67 6.32 7.03 12.56 14.69 21.19 18.97 4.16 2.3 8.96.56 13.2-.53 3.12-1.02 6.67-1.82 8.66-4.67-3.57-3.97-9-5.01-13.72-7.01-7.98-2.64-15.93-5.58-23.25-9.78-2.33-1.44-4.98-2.8-6.3-5.33.25-3.35 4.84-4.53 4.87-8.08-1.76-4.86-6.91-7.52-11.94-6.63m-157.63 4.37c-.01.59-.04 1.77-.05 2.35 3.31 4.1 4.95 9.08 5.55 14.26-3.11.68-6.18 1.53-9.28 2.28.07 1.53.16 3.06.29 4.59 3.46 1.27 7.04.3 10.34-.98.25 2.44.95 5.07-.14 7.42-3.03 2.73-6.61 4.9-10.54 6.08-.17 2.99-.09 6.27 2.78 7.98 3.71 0 6.03-3.24 8.64-5.39 4.04-3.97 9.11-7.8 10.12-13.73-1.39.5-2.77 1.01-4.16 1.52.93-6.31 2.74-12.7 1.71-19.11-.24-2.33-2.24-3.86-4.24-4.72-3.49-1.44-7.2-2.63-11.02-2.55m83.24 11c-2.63-.5-4.98-2.19-7.78-2.1.99 3.22 2.98 6.11 3.32 9.52.5 3.32.18 7.35 3.31 9.49 1.49-.95 3.05-1.77 4.65-2.49.35 4.66.38 9.48-1.23 13.94-.58.37-1.73 1.09-2.31 1.45-.85-.5-1.7-.99-2.56-1.47.28 4.74 4.18 7.79 7.63 10.47.75-.45 1.51-.89 2.27-1.33 2.19-8.02-.65-16.45 1.39-24.45 2.56-.2 5.12-.27 7.68-.35.43-1.98-.11-3.89-1.06-5.64 1.88-2.27 5.87-4.51 4.02-8-2.08-2.04-5.09-3.54-8.05-3.35-3.87 1.13-7.34 3.36-11.28 4.31m-12.66 20.45c-.4 3.14 1.18 5.98 2.66 8.61 5.65-3.14 5.67-11.85 1.05-15.91-1.05 2.53-2.57 4.82-3.71 7.3m29.28-6.92c-.62 2.41.19 4.78 1.51 6.8 1.88 2.89 3.51 6.4 6.94 7.71l1.47-1.55c.43-2.06 1.1-4.19.46-6.28-.48-4.38-5.82-5.01-9.27-5.8-.28-.22-.84-.66-1.11-.88m-79.27 38.52c-.09 8.39-.02 16.77-.04 25.16 3.85.41 7.78.6 11.61-.1 3.68-.29 7.47-2.94 7.63-6.89.15-3.41-2.82-5.63-5.67-6.73 2-.68 3.47-2.18 4.6-3.91l-.16-3.17c-.31-.56-.93-1.66-1.24-2.21-4.88-3.54-11.13-2.3-16.73-2.15m65.99-.11c0 5.46.07 10.93.01 16.4-.11 1.87-.13 4.27-1.94 5.37-1.97.64-4.07.29-6.09.21-.09.68-.27 2.04-.35 2.72.58 1.66 2.77.61 4.07.94 3.85.34 8.46-1.66 8.74-6.02.75-6.52.12-13.11.36-19.66-1.6.01-3.2.02-4.8.04m57.14 2.93c-3.69 2.6-4.92 7.35-4.82 11.65.89 3.74 2.7 7.6 6.36 9.33 5.43 2.66 11.66 1.64 17.38.71.11-4.32.03-8.63.06-12.94-3.3.02-6.6.01-9.9 0 .01 1.03.01 2.06.01 3.1 1.73 0 3.46.02 5.2.04-.01 2.39-.02 4.79-.04 7.2-2.86.03-5.92.57-8.64-.56-6.54-2.74-7.17-13.44-.91-16.83 3.74-2.19 8.28-1.8 12.29-.67.33-.74 1-2.23 1.33-2.97-5.87-2.16-13.13-1.81-18.32 1.94m70.59-2.94c-.01 8.52-.17 17.05.08 25.57 1.13 0 3.38-.01 4.51-.01.33-3.81-.51-7.77.61-11.48 3.35.13 6.71.1 10.07.04-.01-1.04-.01-2.08-.01-3.12-3.54-.05-7.08-.04-10.61-.07 0-2.58 0-5.15.01-7.73 3.72-.01 7.45.01 11.18-.08-.04-1.06-.08-2.12-.11-3.17-5.25.06-10.49.02-15.73.05m-168.36-.02c.03 8.43.05 16.86 0 25.29 5.6-.09 11.2.4 16.78-.04-.01-.82-.04-2.46-.06-3.28-3.98-.01-7.96-.03-11.94-.01.01-2.69.03-5.36.04-8.04 3.57-.01 7.13 0 10.7-.01-.14-1.23-.3-2.45-.45-3.66-3.42.05-6.83.03-10.25.04-.01-2.36-.01-4.73 0-7.09 3.71 0 7.42-.01 11.13.01l.03-3.2c-5.32 0-10.65 0-15.98-.01m22.67 25.33c1.66 0 3.32.02 4.97-.14-.13-8.38-.06-16.76-.03-25.14-1.64-.03-3.27-.06-4.9-.08-.02 8.45.05 16.9-.04 25.36m30.02-.02c1.64-.02 3.28-.05 4.92-.09-.08-8.4-.03-16.79-.01-25.18-1.63-.03-3.26-.04-4.88-.06-.04 8.45.02 16.89-.03 25.33m12.44-25.32c0 8.42.09 16.85-.05 25.27 1.51.08 3.02.1 4.53.06-.3-6.67.38-13.37-.4-20.02 3.91 6.94 8.59 13.4 12.97 20.04 1.64-.03 3.28-.04 4.93-.04-.02-8.43.04-16.86-.02-25.28-1.1-.01-3.29-.03-4.39-.03-.03 6.52.09 13.05-.02 19.58-3.04-7.11-8.22-13-12.24-19.55l-5.31-.03m68.78 0c.05 8.43 0 16.87.01 25.31 5.5-.49 11.15 1.06 16.53-.31l.24-2.99c-4-.05-7.99-.06-11.99-.02 0-7.32-.04-14.64.03-21.97-1.61-.01-3.22-.01-4.82-.02m21.97.01c.01 8.44-.02 16.88 0 25.32 1.59-.01 3.19-.03 4.79-.05-.02-8.42-.03-16.85.01-25.27h-4.8m34.91 25.27c5.61.68 11.24.13 16.86-.1-.02-.8-.06-2.39-.09-3.19-4-.04-8-.03-12-.01.03-2.69.02-5.37.04-8.06 3.51.01 7.02 0 10.54.01-.01-.82-.02-2.48-.03-3.31-3.51-.34-7.04-.35-10.55-.32.02-2.37.04-4.74.1-7.11 3.7.04 7.4.02 11.11 0-.01-.79-.01-2.38-.01-3.17-5.32 0-10.63-.01-15.94 0 .02 8.42.05 16.84-.03 25.26z"/><path d="M98.51 208.46c2.95-.84 5.85-1.97 8.92-2.3-.42 2.14-.92 4.25-1.49 6.35-2.08.76-4.15 1.52-6.21 2.28-.2-2.15-.48-4.29-1.22-6.33zm165.26 4.27c1.95-1.45 4.52-1.5 6.76-2.23.39 1.84.77 3.69 1.11 5.55-4.12.78-8.18 1.88-12.32 2.53 1.35-2.03 2.63-4.18 4.45-5.85zM40.22 260.44c2.79-.1 5.63.03 8.12 1.45.02 1.56.69 3.52-.82 4.64-1.91 1.93-4.88 1.13-7.3 1.35-.03-2.49-.03-4.97 0-7.44zm.12 19.94c-.2-3.26-.33-6.54.21-9.77 2.11.67 4.38.64 6.48 1.32 2.43.95 3.21 4.36 1.47 6.27-2.14 2.11-5.44 1.66-8.16 2.18z"/></g><g fill="#bd0130"><path d="M144.19 19.25c4.34-4.08 11.8-3.55 15.78.8 17.97 17.98 35.99 35.92 53.9 53.95 4.24 3.99 4.73 11.22.64 15.47-18.32 18.34-36.67 36.67-54.99 55.01-4.07 4.46-11.98 4.39-16.03-.06-13.19-13.3-26.53-26.45-39.7-39.77 13.02-4.09 27.13-4.04 40.53-1.93 5.97 1.2 12.09 2.48 17.43 5.55 2.43 1.39 4.68 3.87 4.45 6.85-.99 4.7-5.41 7.43-9.37 9.45 7.3.52 14.56-2.16 20.57-6.17 5.43-3.89 10.79-10.1 9.09-17.3-1.83-5.82-7.24-9.45-12.24-12.42-6.68-3.85-13.9-6.71-21.32-8.76 7.34-.26 15.39-3.5 18.49-10.64-.06-6.44-4.04-12.1-9.29-15.54-7.88-5.44-17.33-7.77-26.59-9.62-3.43-2.16-5.87-6.08-6.35-10.13 5.19-4.71 9.88-9.94 15-14.74z"/><path d="M89.06 76.03c9.71-7.99 22.66-10.55 34.96-10.57 10.76-.2 21.93 2.57 30.45 9.39l.18 3.49c-2.4 1.15-4.97 2.66-7.74 1.86-20.2-4.24-41.41-2.33-60.78 4.72.12-3.15.37-6.68 2.93-8.89z"/></g><path d="M262.51 178.96c.35-.37 1.04-1.11 1.39-1.48 3.72-.35 7.34.64 10.57 2.45.5 2.26.14 4.55-.35 6.78 3.56-.72 9.29.67 8.26 5.38-3.59.52-7.17 1.12-10.72 1.83-.51 1.19-1.02 2.38-1.49 3.58 3.67-.93 8.89-1.91 10.45 2.73-4.09.46-8.32.61-12.22 2.07-.38.96-1.15 2.89-1.53 3.86 7.33-1.3 14.64-3.3 22.16-2.82-.01 2.03-.01 4.06-.02 6.09-5.13-.04-10.27.03-15.35.82 2.08 1.09 4.08 2.38 5.25 4.48 3.34-.04 6.85-.45 9.96 1.07.05 1.48.09 2.96.13 4.45-3.77-.08-7.56-.17-11.27.54-.15 6.39-.01 12.79-.07 19.18.04 2.2-.77 4.26-1.52 6.29l-1.79.28c-3.46-2.12-6.49-5.29-7.66-9.24.85.02 2.55.05 3.4.07 2.82-4.96 2.41-10.79 2.13-16.27-2.39.14-4.78.38-7.08 1.02l-2.93.56c1.57 1.16 2.99 2.51 4.36 3.91-.11 2.12-.48 4.21-1.12 6.23-.97-.06-1.93-.13-2.9-.19-2.1-3.01-2.75-6.64-3.39-10.18-.53-.15-1.6-.46-2.14-.61-5.18 5.6-10.54 12.7-18.81 13.25.06-.5.2-1.49.27-1.98.55-.25 1.66-.75 2.22-1.01 5.42-5.19 9.48-11.57 13.45-17.88-3.12.49-6.06 1.87-9.21 2.12-3.05-.01-4.59-3.13-5.04-5.74 5.4-.11 10.72-1.4 15.93-2.73 2.05-.46 2.94-2.4 3.41-4.24-1.44-.05-2.87-.1-4.31-.14-.4-.34-1.22-1.01-1.62-1.35.1-.31.3-.93.4-1.23 2.28-.4 4.53-.91 6.77-1.48.51-1.31.99-2.62 1.45-3.95-3.21.35-8.31 1-8.65-3.49 3.51-.24 7.06-.83 10.17-2.55.08-3.46 2.91-8.27-.94-10.48m1.26 33.77c-1.82 1.67-3.1 3.82-4.45 5.85 4.14-.65 8.2-1.75 12.32-2.53-.34-1.86-.72-3.71-1.11-5.55-2.24.73-4.81.78-6.76 2.23zM96.4 180.5c4.06-1.84 9.5-.74 12.21 2.91 1.49 1.83.73 4.27.62 6.4 6.95.05 13.84-2.53 20.76-1.14 1.78 1.8 3.32 3.91 2.73 6.59-8.26.22-16.57-.49-24.8.47-.49.47-1.48 1.4-1.98 1.86-1.68.04-3.33-.3-4.93-.8-6.84 1.31-13.34 4.03-20.28 4.83-1.86-1.56-2.98-3.72-3.57-6.05 7.94-.69 15.9-2.13 23.57-4.29.03-3.29-1.97-5.97-4.08-8.28-.09-.84-.17-1.67-.25-2.5zm-58.98 5.13c5.08-1.3 11.74 1.08 12.93 6.67-.56 5.17-3.24 9.85-4.28 14.94 3.26-1.31 6.24-3.65 9.86-3.81 2.44.32 5.62 3.06 4.41 5.7-4.37 3.31-10.37 2.6-15.03 5.18-2.04 3.29-1.59 7.53-.82 11.19 4.28 3.53 9.52-1.34 14.07 1.13 2.66 1.13 4.04 3.85 4.97 6.42-.3.59-.9 1.75-1.2 2.33-6 2.13-13.29 3.07-18.67-1.08-4.15-2.57-5.07-7.83-5.24-12.32-.01-8.99-.45-17.98.03-26.96.41-3.23-1.59-6.15-1.03-9.39zm134.96 4.64c5.03-.89 10.18 1.77 11.94 6.63-.03 3.55-4.62 4.73-4.87 8.08 1.32 2.53 3.97 3.89 6.3 5.33 7.32 4.2 15.27 7.14 23.25 9.78 4.72 2 10.15 3.04 13.72 7.01-1.99 2.85-5.54 3.65-8.66 4.67-4.24 1.09-9.04 2.83-13.2.53-8.63-4.28-14.87-11.94-21.19-18.97-1.36-1.25-2.78-3.05-4.85-2.67-4.16 3.19-7.16 7.65-11.38 10.78-5.33 4.03-11.46 7.49-18.18 8.34-1.08-.52-2.05-1.21-3.05-1.86 5.08-1.04 8.32-5.38 11.77-8.87 6.72-7.41 14.01-14.69 18-24.04.79-1.47.31-3.17.4-4.74zm-157.63 4.37c3.82-.08 7.53 1.11 11.02 2.55 2 .86 4 2.39 4.24 4.72 1.03 6.41-.78 12.8-1.71 19.11 1.39-.51 2.77-1.02 4.16-1.52-1.01 5.93-6.08 9.76-10.12 13.73-2.61 2.15-4.93 5.39-8.64 5.39-2.87-1.71-2.95-4.99-2.78-7.98 3.93-1.18 7.51-3.35 10.54-6.08 1.09-2.35.39-4.98.14-7.42-3.3 1.28-6.88 2.25-10.34.98-.13-1.53-.22-3.06-.29-4.59 3.1-.75 6.17-1.6 9.28-2.28-.6-5.18-2.24-10.16-5.55-14.26.01-.58.04-1.76.05-2.35zm83.24 11c3.94-.95 7.41-3.18 11.28-4.31 2.96-.19 5.97 1.31 8.05 3.35 1.85 3.49-2.14 5.73-4.02 8 .95 1.75 1.49 3.66 1.06 5.64-2.56.08-5.12.15-7.68.35-2.04 8 .8 16.43-1.39 24.45-.76.44-1.52.88-2.27 1.33-3.45-2.68-7.35-5.73-7.63-10.47.86.48 1.71.97 2.56 1.47.58-.36 1.73-1.08 2.31-1.45 1.61-4.46 1.58-9.28 1.23-13.94-1.6.72-3.16 1.54-4.65 2.49-3.13-2.14-2.81-6.17-3.31-9.49-.34-3.41-2.33-6.3-3.32-9.52 2.8-.09 5.15 1.6 7.78 2.1m.52 2.82c.74 2.04 1.02 4.18 1.22 6.33 2.06-.76 4.13-1.52 6.21-2.28.57-2.1 1.07-4.21 1.49-6.35-3.07.33-5.97 1.46-8.92 2.3zm-13.18 17.63c1.14-2.48 2.66-4.77 3.71-7.3 4.62 4.06 4.6 12.77-1.05 15.91-1.48-2.63-3.06-5.47-2.66-8.61zm29.28-6.92c.27.22.83.66 1.11.88 3.45.79 8.79 1.42 9.27 5.8.64 2.09-.03 4.22-.46 6.28l-1.47 1.55c-3.43-1.31-5.06-4.82-6.94-7.71-1.32-2.02-2.13-4.39-1.51-6.8zm-79.27 38.52c5.6-.15 11.85-1.39 16.73 2.15.31.55.93 1.65 1.24 2.21l.16 3.17c-1.13 1.73-2.6 3.23-4.6 3.91 2.85 1.1 5.82 3.32 5.67 6.73-.16 3.95-3.95 6.6-7.63 6.89-3.83.7-7.76.51-11.61.1.02-8.39-.05-16.77.04-25.16m4.88 2.75c-.03 2.47-.03 4.95 0 7.44 2.42-.22 5.39.58 7.3-1.35 1.51-1.12.84-3.08.82-4.64-2.49-1.42-5.33-1.55-8.12-1.45m.12 19.94c2.72-.52 6.02-.07 8.16-2.18 1.74-1.91.96-5.32-1.47-6.27-2.1-.68-4.37-.65-6.48-1.32-.54 3.23-.41 6.51-.21 9.77zm60.99-22.8c1.6-.02 3.2-.03 4.8-.04-.24 6.55.39 13.14-.36 19.66-.28 4.36-4.89 6.36-8.74 6.02-1.3-.33-3.49.72-4.07-.94.08-.68.26-2.04.35-2.72 2.02.08 4.12.43 6.09-.21 1.81-1.1 1.83-3.5 1.94-5.37.06-5.47-.01-10.94-.01-16.4zm57.14 2.93c5.19-3.75 12.45-4.1 18.32-1.94-.33.74-1 2.23-1.33 2.97-4.01-1.13-8.55-1.52-12.29.67-6.26 3.39-5.63 14.09.91 16.83 2.72 1.13 5.78.59 8.64.56.02-2.41.03-4.81.04-7.2-1.74-.02-3.47-.04-5.2-.04 0-1.04 0-2.07-.01-3.1 3.3.01 6.6.02 9.9 0-.03 4.31.05 8.62-.06 12.94-5.72.93-11.95 1.95-17.38-.71-3.66-1.73-5.47-5.59-6.36-9.33-.1-4.3 1.13-9.05 4.82-11.65zm70.59-2.94c5.24-.03 10.48.01 15.73-.05.03 1.05.07 2.11.11 3.17-3.73.09-7.46.07-11.18.08-.01 2.58-.01 5.15-.01 7.73 3.53.03 7.07.02 10.61.07 0 1.04 0 2.08.01 3.12-3.36.06-6.72.09-10.07-.04-1.12 3.71-.28 7.67-.61 11.48-1.13 0-3.38.01-4.51.01-.25-8.52-.09-17.05-.08-25.57zm-168.36-.02c5.33.01 10.66.01 15.98.01l-.03 3.2c-3.71-.02-7.42-.01-11.13-.01-.01 2.36-.01 4.73 0 7.09 3.42-.01 6.83.01 10.25-.04.15 1.21.31 2.43.45 3.66-3.57.01-7.13 0-10.7.01-.01 2.68-.03 5.35-.04 8.04 3.98-.02 7.96 0 11.94.01.02.82.05 2.46.06 3.28-5.58.44-11.18-.05-16.78.04.05-8.43.03-16.86 0-25.29zm22.67 25.33c.09-8.46.02-16.91.04-25.36 1.63.02 3.26.05 4.9.08-.03 8.38-.1 16.76.03 25.14-1.65.16-3.31.14-4.97.14zm30.02-.02c.05-8.44-.01-16.88.03-25.33 1.62.02 3.25.03 4.88.06-.02 8.39-.07 16.78.01 25.18-1.64.04-3.28.07-4.92.09zm12.44-25.32 5.31.03c4.02 6.55 9.2 12.44 12.24 19.55.11-6.53-.01-13.06.02-19.58 1.1 0 3.29.02 4.39.03.06 8.42 0 16.85.02 25.28-1.65 0-3.29.01-4.93.04-4.38-6.64-9.06-13.1-12.97-20.04.78 6.65.1 13.35.4 20.02-1.51.04-3.02.02-4.53-.06.14-8.42.05-16.85.05-25.27zm68.78 0c1.6.01 3.21.01 4.82.02-.07 7.33-.03 14.65-.03 21.97 4-.04 7.99-.03 11.99.02l-.24 2.99c-5.38 1.37-11.03-.18-16.53.31-.01-8.44.04-16.88-.01-25.31zm21.97.01h4.8c-.04 8.42-.03 16.85-.01 25.27-1.6.02-3.2.04-4.79.05-.02-8.44.01-16.88 0-25.32zm34.91 25.27c.08-8.42.05-16.84.03-25.26 5.31-.01 10.62 0 15.94 0 0 .79 0 2.38.01 3.17-3.71.02-7.41.04-11.11 0a421.4 421.4 0 0 0-.1 7.11c3.51-.03 7.04-.02 10.55.32.01.83.02 2.49.03 3.31-3.52-.01-7.03 0-10.54-.01-.02 2.69-.01 5.37-.04 8.06 4-.02 8-.03 12 .01.03.8.07 2.39.09 3.19-5.62.23-11.25.78-16.86.1z" fill="#020202"/></svg>