<svg width="400" height="400" viewBox="0 0 300 300" xmlns="http://www.w3.org/2000/svg"><g fill="#fff"><path d="M0 0h300v300H0V0m134.89 27.08c-10.28 3.65-18.4 12.02-23.15 21.7-.25 1.17-.5 2.33-.76 3.49-6.42 2.2-12.45 5.68-17.04 10.75-5.85 6.23-11.17 14.66-9.17 23.59l1.63.12c8.5-8.22 16.2-17.37 25.68-24.49 5.87 5.46 11.28 11.4 17.14 16.88-7.89 9.42-17.53 17.26-25.6 26.54 2.61 2.46 5.15 4.99 7.61 7.61 2.9-2.08 5.21-4.82 7.76-7.29 8.03-7.96 15.96-16.02 24.01-23.96.82-.87 1.84-1.7 1.98-2.98-8.1-8.45-16.59-16.53-24.73-24.95 5.03-6.77 11-12.89 17.84-17.85 8.27 8.06 16.27 16.39 24.56 24.41.32.05.96.14 1.28.18 2.7-2.15 4.89-4.85 7.4-7.21-7.8-8.49-16.28-16.34-24.28-24.64-2.99-3.49-8.17-3.07-12.16-1.9m21.11-.25c.15.54.45 1.62.6 2.15 2.98 2.46 5.58 5.32 8.32 8.03 5.43 5.54 11.26 10.76 15.75 17.14-5.4 5.43-10.8 10.86-16.25 16.23-.91 1.05-2.24-.13-2.88-.86-8.09-8.07-16.08-16.25-24.29-24.2-2.39 2.88-5.06 5.52-7.91 7.94 11.17 11.56 22.83 22.66 33.95 34.27 8.62-8.3 16.83-17.02 25.51-25.26 6 4.55 11.64 9.67 16.2 15.69 1.07 1.07 1.22 2.96-.12 3.89-7.87 7.79-15.49 15.85-23.6 23.4 2.55 2.74 5.26 5.33 7.88 8.01 7.85-6.82 14.77-14.64 22.27-21.83 2.03-2.14 4.84-4.15 5.01-7.37.69-6.14-2.4-11.85-5.82-16.69-4.95-6.93-12.07-12.15-20.11-14.87-2.92-8.01-7.98-15.3-14.96-20.29-5.49-4.24-12.54-7.2-19.55-5.38M86.99 95.95c-1.36 1.35-2.5 3.08-2.57 5.06-.66 6.37 2.76 12.25 6.41 17.19 4.91 6.64 11.92 11.53 19.69 14.21 2.67 7.79 7.6 14.81 14.22 19.75 5.54 4.27 12.51 7.58 19.68 6.13.09-.43.27-1.3.36-1.74-8.31-8.45-17.37-16.26-24.54-25.75 5.76-5.76 11.32-11.77 17.42-17.18 7.57 7.69 15.29 15.22 22.82 22.94 1.01.99 2.14 1.83 3.29 2.66 2.49-2.67 5.11-5.21 7.69-7.78-10.62-10.71-21.33-21.33-31.95-32.04-.77-.65-1.87-2.12-2.91-.98-8.34 7.91-16.18 16.36-24.51 24.29-6.7-5.13-12.79-11.05-17.76-17.88 8.2-8.47 16.56-16.79 25-25.03-2.18-3.21-5.18-5.71-7.93-8.39-8.02 8.29-16.27 16.36-24.41 24.54m68.38 9.39c8.35 8.58 17.01 16.87 25.3 25.52-5.16 6.66-11.06 12.73-17.82 17.79-8.54-8.28-16.92-16.73-25.25-25.24-2.41 2.33-4.96 4.54-7.16 7.09-1.08 1.08.39 2.18 1.05 2.96 7.53 7.49 15.04 15.01 22.54 22.53 3.98 4.23 10.53 2.75 15.15.46 9.6-4.78 17.93-13.32 20.78-23.83 9.08-3.16 17.16-9.29 22.25-17.49 3.31-5.05 5.44-11.26 3.68-17.28-2.77 1.02-4.44 3.59-6.54 5.51-6.76 6.52-12.96 13.66-20.53 19.29-5.08-4.73-9.83-9.79-14.82-14.62-.76-.99-2.57-1.89-1.6-3.34 7.99-8.76 17.11-16.5 24.82-25.52-2.68-2.53-5.21-5.21-7.89-7.75-11.26 11.36-22.51 22.75-33.96 33.92M32.93 194.35c1.58 4.13 3.41 8.15 4.96 12.29h-4.9c1.26 4.24 3.63 8.08 4.7 12.37-.86 7.5-3.66 14.67-4.56 22.17 2.01-.01 4.03-.02 6.04-.02 1.78-7.38 3.76-14.74 5.04-22.21-1.4-4.17-3.29-8.15-4.91-12.23 1.69-.02 3.38-.03 5.07-.05-1.71-4.11-3.32-8.26-5.1-12.35-2.11.01-4.22.01-6.34.03m20.62 1.99c-2.81-.02-5.62-.03-8.43-.03l.03 4.4c2.85 0 5.69 0 8.54.01l-.08 2.87c-2.69-.01-5.38-.01-8.07-.01.03 2.56.02 5.13.04 7.7l5.98.03c.01-.79.02-2.37.03-3.16 3.27-.47 6.59-.4 9.89-.37l.33 3.47c1.97.02 3.94.03 5.92.05.05-2.57.08-5.14.11-7.71-2.81-.03-5.61-.02-8.42-.02-.03-.96-.06-1.91-.08-2.86 2.99 0 5.99 0 8.98-.05v-4.32c-2.95-.03-5.91-.03-8.86 0-.02-.65-.07-1.96-.1-2.61-1.89-.01-3.77-.02-5.66-.02-.03.65-.11 1.97-.15 2.63m17.78-2.66c-.03 1.27-.04 2.54-.06 3.82-.5.05-1.51.14-2.01.19-.04 1.59-.07 3.19-.11 4.79.54.28 1.62.83 2.16 1.11-.12 10.89.06 21.78-.11 32.67-.65.15-1.94.43-2.58.57l.04 3.57c3.25-.01 7.42-.46 8.45-4.18.43-11.1.04-22.22.19-33.33.48.14 1.43.4 1.9.54.26 10.89.08 21.79.07 32.68-2.1.51-1.73 2.64-1.89 4.33 1.97-.3 3.93-.67 5.88-1.09.91-1.69 2.19-3.36 1.94-5.4-.02-12.09-.04-24.18 0-36.28-2.66-.03-5.32-.02-7.97-.03.01-1.29.03-2.59.04-3.88-1.98-.04-3.96-.06-5.94-.08m23.68.63c1.71 4.08 3.74 8.01 5.65 12-1.88.02-3.76.03-5.64.05 1.22 2.91 2.6 5.74 4.01 8.56.71 1.61 1.9 3.27 1.17 5.11-1.64 6.94-3.71 13.77-5.15 20.75 2.52.03 5.04.03 7.55.04 1.84-7.59 4.27-15.1 5.55-22.79-1.57-3.98-3.68-7.73-5.44-11.64 1.9-.01 3.79-.02 5.69-.04-1.88-3.97-3.64-8.01-5.72-11.87-2.54-.32-5.11-.16-7.67-.17m13.21 7.21c12.75.05 25.49.04 38.24 0l.08-4.15c-9.04-.08-18.08-.02-27.12-.04.36-.9 1.06-2.7 1.41-3.6-2.95-.02-5.89-.02-8.84.03-1.16 2.63-2.44 5.21-3.77 7.76m47.33 39.34c2.48-.13 5.05.1 7.46-.65 2.2-.79 3.14-3.12 4.13-5.03 3.5-7.93 6.82-15.94 10.46-23.8.86 0 1.72.02 2.58.03 5.88 9.79 11.69 19.63 17.62 29.4 3.13-.08 6.28-.01 9.41.3-.99-3.2-3.01-5.9-4.67-8.75-5.13-8.59-10.25-17.17-15.39-25.75l-7.46.03c1.7-4.34 3.82-8.51 5.42-12.9-2.91-.02-5.82-.02-8.73-.11-7.34 15.55-13.78 31.54-20.83 47.23m67.75-45.26c-2.51-.03-5.01-.04-7.51-.04l-.03 4.89c2.33 0 4.65 0 6.98-.01-.13 1.11-.27 2.21-.4 3.32-2.22.04-4.43.14-6.62.38.03 1.5.05 3 .07 4.51 1.94.02 3.88.03 5.82.05-.28 1.29-.56 2.58-.84 3.88-1.68 0-3.35-.01-5.01 0 .01 1.6.01 3.21.02 4.81l4.14.06c-.77 6.37-2.1 12.66-2.85 19.04 2.51-.02 5.02-.01 7.54.01.46-2.66.87-5.33 1.18-8.01 10.8-.13 21.6-.05 32.4-.05-.01 2.38-.03 4.77-.04 7.15-6.11.17-12.21.03-18.32.11-.62-1.31-1.25-2.61-1.85-3.92-2.53-.02-5.05-.03-7.57-.03 1.47 2.99 2.98 5.98 4.39 9.01 7.41.04 14.83.08 22.24.01 2.8-.12 6.4-.88 7.47-3.84.41-2.78.2-5.6.2-8.39.74-.03 2.2-.11 2.93-.14-.05-1.88-.1-3.75-.17-5.62-.69-.03-2.08-.07-2.78-.09l.03-5.24 3.04.04c.1-1.65.18-3.31.22-4.96-13.22.01-26.44.09-39.66-.04.4-1.29.79-2.58 1.2-3.86 12.82.12 25.64.04 38.46.04.15-1.66.08-3.31-.2-4.94-12.57.22-25.15.08-37.72.07.15-1.12.3-2.24.46-3.37 12.55.02 25.11.12 37.66-.05 0-1.59 0-3.18.01-4.77-12.25-.08-24.5-.04-36.74-.01-.02-.47-.07-1.41-.09-1.88-2.33-.01-4.65-.01-6.98-.04l-1.08 1.92m-112.56 8.01c.04 12.18.03 24.37.01 36.56 8.8-.1 17.6.12 26.4-.09 3.19-.25 7.3-1.68 7.85-5.31.17-3.35-.31-6.7-.14-10.05 2.43-.47 2.14-3.08 2.35-4.96-.59-.37-1.76-1.11-2.34-1.48.3-4.88-.06-9.77.31-14.65-11.48-.05-22.96-.02-34.44-.02m-65.41 14.22c5.17-.01 10.35-.03 15.53.01-1.01 2.3-2.15 4.55-3.38 6.75-3.92-.03-7.85-.03-11.77.04.31 1.48-.49 3.56 1.13 4.48 2.65.2 5.32.06 7.98.04-1.12 2.21-2.31 4.4-3.53 6.56h-2.75c-.02 1.54-.03 3.07-.04 4.61 2.76-.16 5.8.21 8.28-1.27 2.48-2.85 3.45-6.63 5.6-9.68 1.42-.16 2.85-.25 4.28-.26-.22-1.83.9-4.7-1.78-4.93 1.91-3.27 4.04-6.66 3.55-10.63-7.68-.04-15.36.01-23.04-.04-.03 1.44-.05 2.88-.06 4.32m50.96 37.7c-.12 5.99-.02 11.99-.07 17.99 1.03-.29 2.02-.68 2.96-1.18 2.07-1.56 1.29-4.41 1.55-6.65 4.59-.01 9.19-.02 13.78.02 0 2.53-.01 5.06-.03 7.59 1.49.02 2.98.03 4.47.06.31-5.95.52-11.96-.15-17.89-1.43.04-2.86.08-4.29.13-.01 2.29-.01 4.59-.02 6.89-4.62-.02-9.24.01-13.85-.05 0-2.29.01-4.57.01-6.85-1.46-.03-2.91-.04-4.36-.06m61.09.01c.04 6.07-.11 12.14.1 18.21 1.36-.73 2.85-1.33 3.92-2.49.83-5.18.18-10.48.34-15.71-1.46-.01-2.91-.01-4.36-.01m25.08-.03c.01 5.94.03 11.88 0 17.83 6.25-.05 12.51-.04 18.76-.02l.15-3.2c-4.85-.51-9.73-.16-14.59-.33-.02-4.75-.01-9.49 0-14.22l-4.32-.06m-148.05.07c0 5.91.04 11.82-.02 17.73 6.67-.32 13.47.75 20.04-.77 1.16-2.81 1.78-6.71-1.45-8.36 3.08-1.71 3.17-6.67.08-8.41-6.2-.5-12.44-.09-18.65-.19m29.2 1.11c-.35 5.21-.35 10.45.01 15.66 3.65 1.41 7.59.9 11.4.96 3.86-.06 7.81.42 11.53-.85.39-5.3.44-10.63 0-15.93-4-1.54-8.33-.84-12.5-.98-3.5.08-7.2-.5-10.44 1.14m61.47 16.67c1.61-.05 3.22-.11 4.83-.18.6-1.24 1.22-2.47 1.85-3.69 4.02.01 8.04.02 12.07-.03.73 1.26 1.46 2.53 2.18 3.8 1.72.03 3.44.04 5.17.06-3.56-6-7.33-11.85-10.97-17.8-1.45.02-2.9.04-4.34.07-3.54 5.96-7.26 11.8-10.79 17.77m82.54-17.78c.01 5.97 0 11.94.02 17.92 1.22-.43 2.44-.85 3.66-1.26 1.93-5.34.63-11.12 1.04-16.67-1.57 0-3.15 0-4.72.01m14.18-.01c.03 6.02-.05 12.04.05 18.06 1.95-.48 3.55-1.63 4.68-3.28-.06-1.25-.11-2.5-.15-3.74 2.67-.02 5.34-.02 8.01 0v-3.24h-7.97c0-1.56 0-3.13.01-4.69 4.97 0 9.95.03 14.93-.03l-.04-3.06c-6.51-.05-13.02-.04-19.52-.02m24.87 0c.01 5.91.01 11.83-.01 17.74 6.67 0 13.33-.01 19.99.01-.09-1.18-.19-2.35-.29-3.52-5.02.08-10.05.04-15.07.05.01-1.43.02-2.84.05-4.26 2.98.03 5.96.03 8.94-.04-.12-.76-.37-2.28-.5-3.04-2.82.04-5.64.05-8.46.07v-3.96c5.03.03 10.07.03 15.11.01-.03-1.02-.06-2.04-.08-3.05-6.56-.04-13.12-.02-19.68-.01z"/><path d="M117.61 207.35c6.69-.09 13.39-.03 20.09-.04-.01 3.97-.02 7.95.01 11.93-.71.01-2.14.04-2.86.06-2-3-3.97-6.01-5.95-9.02-2.59-.01-5.18.02-7.78.14 1.86 2.97 3.78 5.9 5.66 8.85-3.05 0-6.1-.01-9.15 0 .05-3.97.04-7.95-.02-11.92zm110.06 10.09c10.08.02 20.17-.13 30.25.05.45 1.71.21 3.53.3 5.28-10.4.01-20.8.02-31.19 0 .21-1.78.42-3.55.64-5.33zm-110.13 6.91c6.64-1.12 13.42-.29 20.13-.51.03 4.13.11 8.26-.14 12.39-.87.01-1.75.03-2.62.05-2.06-3.19-4.03-6.44-6.01-9.67-2.55-.01-5.1-.01-7.65.02 1.83 3.27 3.71 6.51 5.55 9.77-3.05.04-6.11.02-9.16 0 .02-4.02.05-8.04-.1-12.05zm-78.75 34.18c3.95 0 7.89-.03 11.84.01.08 1.34.14 2.68.18 4.02-4.02.13-8.04.12-12.06.03.01-1.36.02-2.71.04-4.06zm28.83.9c4.79-1.34 9.85-.44 14.75-.57.12 3.64.11 7.28 0 10.92-4.9.05-9.81.26-14.7-.18.08-3.39.1-6.78-.05-10.17zm66.19 6.85c1.29-2.43 2.7-4.79 4.18-7.1 1.36 2.34 2.68 4.7 3.91 7.11-2.7.03-5.4.03-8.09-.01zm-95.05-.62c3.94-.01 7.88.01 11.82-.01.47 1.52.48 3.07-.12 4.56-3.89-.1-7.78-.06-11.66-.09-.02-1.49-.03-2.98-.04-4.46z"/></g><g fill="#c1161e"><path d="M134.89 27.08c3.99-1.17 9.17-1.59 12.16 1.9 8 8.3 16.48 16.15 24.28 24.64-2.51 2.36-4.7 5.06-7.4 7.21-.32-.04-.96-.13-1.28-.18-8.29-8.02-16.29-16.35-24.56-24.41-6.84 4.96-12.81 11.08-17.84 17.85 8.14 8.42 16.63 16.5 24.73 24.95-.14 1.28-1.16 2.11-1.98 2.98-8.05 7.94-15.98 16-24.01 23.96-2.55 2.47-4.86 5.21-7.76 7.29-2.46-2.62-5-5.15-7.61-7.61 8.07-9.28 17.71-17.12 25.6-26.54-5.86-5.48-11.27-11.42-17.14-16.88-9.48 7.12-17.18 16.27-25.68 24.49l-1.63-.12c-2-8.93 3.32-17.36 9.17-23.59 4.59-5.07 10.62-8.55 17.04-10.75.26-1.16.51-2.32.76-3.49 4.75-9.68 12.87-18.05 23.15-21.7z"/><path d="M156 26.83c7.01-1.82 14.06 1.14 19.55 5.38 6.98 4.99 12.04 12.28 14.96 20.29 8.04 2.72 15.16 7.94 20.11 14.87 3.42 4.84 6.51 10.55 5.82 16.69-.17 3.22-2.98 5.23-5.01 7.37-7.5 7.19-14.42 15.01-22.27 21.83-2.62-2.68-5.33-5.27-7.88-8.01 8.11-7.55 15.73-15.61 23.6-23.4 1.34-.93 1.19-2.82.12-3.89-4.56-6.02-10.2-11.14-16.2-15.69-8.68 8.24-16.89 16.96-25.51 25.26-11.12-11.61-22.78-22.71-33.95-34.27 2.85-2.42 5.52-5.06 7.91-7.94 8.21 7.95 16.2 16.13 24.29 24.2.64.73 1.97 1.91 2.88.86 5.45-5.37 10.85-10.8 16.25-16.23-4.49-6.38-10.32-11.6-15.75-17.14-2.74-2.71-5.34-5.57-8.32-8.03-.15-.53-.45-1.61-.6-2.15zM86.99 95.95c8.14-8.18 16.39-16.25 24.41-24.54 2.75 2.68 5.75 5.18 7.93 8.39-8.44 8.24-16.8 16.56-25 25.03 4.97 6.83 11.06 12.75 17.76 17.88 8.33-7.93 16.17-16.38 24.51-24.29 1.04-1.14 2.14.33 2.91.98 10.62 10.71 21.33 21.33 31.95 32.04-2.58 2.57-5.2 5.11-7.69 7.78-1.15-.83-2.28-1.67-3.29-2.66-7.53-7.72-15.25-15.25-22.82-22.94-6.1 5.41-11.66 11.42-17.42 17.18 7.17 9.49 16.23 17.3 24.54 25.75-.09.44-.27 1.31-.36 1.74-7.17 1.45-14.14-1.86-19.68-6.13-6.62-4.94-11.55-11.96-14.22-19.75-7.77-2.68-14.78-7.57-19.69-14.21-3.65-4.94-7.07-10.82-6.41-17.19.07-1.98 1.21-3.71 2.57-5.06z"/><path d="M155.37 105.34c11.45-11.17 22.7-22.56 33.96-33.92 2.68 2.54 5.21 5.22 7.89 7.75-7.71 9.02-16.83 16.76-24.82 25.52-.97 1.45.84 2.35 1.6 3.34 4.99 4.83 9.74 9.89 14.82 14.62 7.57-5.63 13.77-12.77 20.53-19.29 2.1-1.92 3.77-4.49 6.54-5.51 1.76 6.02-.37 12.23-3.68 17.28-5.09 8.2-13.17 14.33-22.25 17.49-2.85 10.51-11.18 19.05-20.78 23.83-4.62 2.29-11.17 3.77-15.15-.46-7.5-7.52-15.01-15.04-22.54-22.53-.66-.78-2.13-1.88-1.05-2.96 2.2-2.55 4.75-4.76 7.16-7.09 8.33 8.51 16.71 16.96 25.25 25.24 6.76-5.06 12.66-11.13 17.82-17.79-8.29-8.65-16.95-16.94-25.3-25.52z"/></g><path d="M32.93 194.35c2.12-.02 4.23-.02 6.34-.03 1.78 4.09 3.39 8.24 5.1 12.35-1.69.02-3.38.03-5.07.05 1.62 4.08 3.51 8.06 4.91 12.23-1.28 7.47-3.26 14.83-5.04 22.21-2.01 0-4.03.01-6.04.02.9-7.5 3.7-14.67 4.56-22.17-1.07-4.29-3.44-8.13-4.7-12.37h4.9c-1.55-4.14-3.38-8.16-4.96-12.29zm20.62 1.99c.04-.66.12-1.98.15-2.63 1.89 0 3.77.01 5.66.02.03.65.08 1.96.1 2.61 2.95-.03 5.91-.03 8.86 0v4.32c-2.99.05-5.99.05-8.98.05.02.95.05 1.9.08 2.86 2.81 0 5.61-.01 8.42.02-.03 2.57-.06 5.14-.11 7.71-1.98-.02-3.95-.03-5.92-.05l-.33-3.47c-3.3-.03-6.62-.1-9.89.37-.01.79-.02 2.37-.03 3.16l-5.98-.03c-.02-2.57-.01-5.14-.04-7.7 2.69 0 5.38 0 8.07.01l.08-2.87c-2.85-.01-5.69-.01-8.54-.01l-.03-4.4c2.81 0 5.62.01 8.43.03zm17.78-2.66c1.98.02 3.96.04 5.94.08-.01 1.29-.03 2.59-.04 3.88 2.65.01 5.31 0 7.97.03-.04 12.1-.02 24.19 0 36.28.25 2.04-1.03 3.71-1.94 5.4-1.95.42-3.91.79-5.88 1.09.16-1.69-.21-3.82 1.89-4.33.01-10.89.19-21.79-.07-32.68-.47-.14-1.42-.4-1.9-.54-.15 11.11.24 22.23-.19 33.33-1.03 3.72-5.2 4.17-8.45 4.18l-.04-3.57c.64-.14 1.93-.42 2.58-.57.17-10.89-.01-21.78.11-32.67-.54-.28-1.62-.83-2.16-1.11.04-1.6.07-3.2.11-4.79.5-.05 1.51-.14 2.01-.19.02-1.28.03-2.55.06-3.82zm23.68.63c2.56.01 5.13-.15 7.67.17 2.08 3.86 3.84 7.9 5.72 11.87-1.9.02-3.79.03-5.69.04 1.76 3.91 3.87 7.66 5.44 11.64-1.28 7.69-3.71 15.2-5.55 22.79-2.51-.01-5.03-.01-7.55-.04 1.44-6.98 3.51-13.81 5.15-20.75.73-1.84-.46-3.5-1.17-5.11-1.41-2.82-2.79-5.65-4.01-8.56 1.88-.02 3.76-.03 5.64-.05-1.91-3.99-3.94-7.92-5.65-12zm13.21 7.21c1.33-2.55 2.61-5.13 3.77-7.76 2.95-.05 5.89-.05 8.84-.03-.35.9-1.05 2.7-1.41 3.6 9.04.02 18.08-.04 27.12.04l-.08 4.15c-12.75.04-25.49.05-38.24 0zm47.33 39.34c7.05-15.69 13.49-31.68 20.83-47.23 2.91.09 5.82.09 8.73.11-1.6 4.39-3.72 8.56-5.42 12.9l7.46-.03c5.14 8.58 10.26 17.16 15.39 25.75 1.66 2.85 3.68 5.55 4.67 8.75-3.13-.31-6.28-.38-9.41-.3-5.93-9.77-11.74-19.61-17.62-29.4-.86-.01-1.72-.03-2.58-.03-3.64 7.86-6.96 15.87-10.46 23.8-.99 1.91-1.93 4.24-4.13 5.03-2.41.75-4.98.52-7.46.65zm67.75-45.26 1.08-1.92c2.33.03 4.65.03 6.98.04.02.47.07 1.41.09 1.88 12.24-.03 24.49-.07 36.74.01-.01 1.59-.01 3.18-.01 4.77-12.55.17-25.11.07-37.66.05-.16 1.13-.31 2.25-.46 3.37 12.57.01 25.15.15 37.72-.07.28 1.63.35 3.28.2 4.94-12.82 0-25.64.08-38.46-.04-.41 1.28-.8 2.57-1.2 3.86 13.22.13 26.44.05 39.66.04-.04 1.65-.12 3.31-.22 4.96l-3.04-.04-.03 5.24c.7.02 2.09.06 2.78.09.07 1.87.12 3.74.17 5.62-.73.03-2.19.11-2.93.14 0 2.79.21 5.61-.2 8.39-1.07 2.96-4.67 3.72-7.47 3.84-7.41.07-14.83.03-22.24-.01-1.41-3.03-2.92-6.02-4.39-9.01 2.52 0 5.04.01 7.57.03.6 1.31 1.23 2.61 1.85 3.92 6.11-.08 12.21.06 18.32-.11.01-2.38.03-4.77.04-7.15-10.8 0-21.6-.08-32.4.05-.31 2.68-.72 5.35-1.18 8.01-2.52-.02-5.03-.03-7.54-.01.75-6.38 2.08-12.67 2.85-19.04l-4.14-.06c-.01-1.6-.01-3.21-.02-4.81 1.66-.01 3.33 0 5.01 0 .28-1.3.56-2.59.84-3.88-1.94-.02-3.88-.03-5.82-.05-.02-1.51-.04-3.01-.07-4.51 2.19-.24 4.4-.34 6.62-.38.13-1.11.27-2.21.4-3.32-2.33.01-4.65.01-6.98.01l.03-4.89c2.5 0 5 .01 7.51.04m4.37 21.84c-.22 1.78-.43 3.55-.64 5.33 10.39.02 20.79.01 31.19 0-.09-1.75.15-3.57-.3-5.28-10.08-.18-20.17-.03-30.25-.05zm-116.93-13.83c11.48 0 22.96-.03 34.44.02-.37 4.88-.01 9.77-.31 14.65.58.37 1.75 1.11 2.34 1.48-.21 1.88.08 4.49-2.35 4.96-.17 3.35.31 6.7.14 10.05-.55 3.63-4.66 5.06-7.85 5.31-8.8.21-17.6-.01-26.4.09.02-12.19.03-24.38-.01-36.56m6.87 3.74c.06 3.97.07 7.95.02 11.92 3.05-.01 6.1 0 9.15 0-1.88-2.95-3.8-5.88-5.66-8.85 2.6-.12 5.19-.15 7.78-.14 1.98 3.01 3.95 6.02 5.95 9.02.72-.02 2.15-.05 2.86-.06-.03-3.98-.02-7.96-.01-11.93-6.7.01-13.4-.05-20.09.04m-.07 17c.15 4.01.12 8.03.1 12.05 3.05.02 6.11.04 9.16 0-1.84-3.26-3.72-6.5-5.55-9.77 2.55-.03 5.1-.03 7.65-.02 1.98 3.23 3.95 6.48 6.01 9.67.87-.02 1.75-.04 2.62-.05.25-4.13.17-8.26.14-12.39-6.71.22-13.49-.61-20.13.51zm-72.21-6.52c.01-1.44.03-2.88.06-4.32 7.68.05 15.36 0 23.04.04.49 3.97-1.64 7.36-3.55 10.63 2.68.23 1.56 3.1 1.78 4.93-1.43.01-2.86.1-4.28.26-2.15 3.05-3.12 6.83-5.6 9.68-2.48 1.48-5.52 1.11-8.28 1.27.01-1.54.02-3.07.04-4.61h2.75c1.22-2.16 2.41-4.35 3.53-6.56-2.66.02-5.33.16-7.98-.04-1.62-.92-.82-3-1.13-4.48 3.92-.07 7.85-.07 11.77-.04 1.23-2.2 2.37-4.45 3.38-6.75-5.18-.04-10.36-.02-15.53-.01zm50.96 37.7c1.45.02 2.9.03 4.36.06 0 2.28-.01 4.56-.01 6.85 4.61.06 9.23.03 13.85.05.01-2.3.01-4.6.02-6.89 1.43-.05 2.86-.09 4.29-.13.67 5.93.46 11.94.15 17.89-1.49-.03-2.98-.04-4.47-.06.02-2.53.03-5.06.03-7.59-4.59-.04-9.19-.03-13.78-.02-.26 2.24.52 5.09-1.55 6.65-.94.5-1.93.89-2.96 1.18.05-6-.05-12 .07-17.99zm61.09.01c1.45 0 2.9 0 4.36.01-.16 5.23.49 10.53-.34 15.71-1.07 1.16-2.56 1.76-3.92 2.49-.21-6.07-.06-12.14-.1-18.21zm25.08-.03 4.32.06c-.01 4.73-.02 9.47 0 14.22 4.86.17 9.74-.18 14.59.33l-.15 3.2c-6.25-.02-12.51-.03-18.76.02.03-5.95.01-11.89 0-17.83zm-148.05.07c6.21.1 12.45-.31 18.65.19 3.09 1.74 3 6.7-.08 8.41 3.23 1.65 2.61 5.55 1.45 8.36-6.57 1.52-13.37.45-20.04.77.06-5.91.02-11.82.02-17.73m4.38 2.95c-.02 1.35-.03 2.7-.04 4.06 4.02.09 8.04.1 12.06-.03-.04-1.34-.1-2.68-.18-4.02-3.95-.04-7.89-.01-11.84-.01m-.03 7.13c.01 1.48.02 2.97.04 4.46 3.88.03 7.77-.01 11.66.09.6-1.49.59-3.04.12-4.56-3.94.02-7.88 0-11.82.01zm24.85-8.97c3.24-1.64 6.94-1.06 10.44-1.14 4.17.14 8.5-.56 12.5.98.44 5.3.39 10.63 0 15.93-3.72 1.27-7.67.79-11.53.85-3.81-.06-7.75.45-11.4-.96-.36-5.21-.36-10.45-.01-15.66m4.01 2.74c.15 3.39.13 6.78.05 10.17 4.89.44 9.8.23 14.7.18.11-3.64.12-7.28 0-10.92-4.9.13-9.96-.77-14.75.57zm57.46 13.93c3.53-5.97 7.25-11.81 10.79-17.77 1.44-.03 2.89-.05 4.34-.07 3.64 5.95 7.41 11.8 10.97 17.8-1.73-.02-3.45-.03-5.17-.06-.72-1.27-1.45-2.54-2.18-3.8-4.03.05-8.05.04-12.07.03-.63 1.22-1.25 2.45-1.85 3.69-1.61.07-3.22.13-4.83.18m8.73-7.08c2.69.04 5.39.04 8.09.01-1.23-2.41-2.55-4.77-3.91-7.11-1.48 2.31-2.89 4.67-4.18 7.1zm73.81-10.7c1.57-.01 3.15-.01 4.72-.01-.41 5.55.89 11.33-1.04 16.67-1.22.41-2.44.83-3.66 1.26-.02-5.98-.01-11.95-.02-17.92zm14.18-.01c6.5-.02 13.01-.03 19.52.02l.04 3.06c-4.98.06-9.96.03-14.93.03-.01 1.56-.01 3.13-.01 4.69h7.97v3.24c-2.67-.02-5.34-.02-8.01 0 .04 1.24.09 2.49.15 3.74-1.13 1.65-2.73 2.8-4.68 3.28-.1-6.02-.02-12.04-.05-18.06zm24.87 0c6.56-.01 13.12-.03 19.68.01.02 1.01.05 2.03.08 3.05-5.04.02-10.08.02-15.11-.01v3.96c2.82-.02 5.64-.03 8.46-.07.13.76.38 2.28.5 3.04-2.98.07-5.96.07-8.94.04-.03 1.42-.04 2.83-.05 4.26 5.02-.01 10.05.03 15.07-.05.1 1.17.2 2.34.29 3.52-6.66-.02-13.32-.01-19.99-.01.02-5.91.02-11.83.01-17.74z" fill="#494848"/></svg>