<svg width="400" height="400" viewBox="0 0 300 300" xmlns="http://www.w3.org/2000/svg"><g fill="#ec572d"><path d="M0 0h300v300H0V0m49.43 78.39c.01 2.06.01 4.11.03 6.17-5.8.33-11.61-.03-17.41.25-1.55.3-3.11.55-4.67.76-1.27 1.59-2.73 3.3-2.71 5.46-.15 6.67-.07 13.35-.01 20.02-.11 3.41 3.04 6.06 6.3 6.22 6.15.33 12.32-.08 18.48.23-.01 3.05 0 6.1-.01 9.15 3.07.59 6.19.59 9.27.01 0-3.11.25-6.21.68-9.28 6.73.01 13.46-.03 20.18.01 1.32-1.3 2.62-2.61 3.91-3.93.23-8.37.13-16.75.02-25.12-1.4-1.15-2.64-2.84-4.58-3.01-6.69-1.27-13.52-.18-20.26-.89.01-2 0-3.99-.02-5.98-3.07-.06-6.13-.08-9.2-.07m194.1.15c.03.77.07 2.3.1 3.07-7.34.33-14.81-.72-22.03.92-2.13 2.53-2.12 5.81-1.99 8.94 2.3.05 4.6.08 6.91.1.01-1.31.03-2.62.05-3.93 14.3-.28 28.61.07 42.91-.2l1.05 4.17c2.04-.01 4.08-.01 6.12-.02-.01-2.34-.02-4.68.01-7.01-1.57-1.42-3.39-2.81-5.6-2.82-6.16-.31-12.33.07-18.49-.27.01-.79.04-2.37.05-3.16-3.03-.18-6.08-.17-9.09.21M92.31 85.98c-.01 12.1-.31 24.22.17 36.32 1.47 1.56 3.07 3.56 5.48 3.28 16.14.05 32.28.2 48.41-.12l3.15-3c.48-12.89.5-25.83.1-38.73-.82-1.06-1.63-2.13-2.43-3.2-3.05-.52-6.13-.83-9.23-.73-12.99.15-25.99-.13-38.98.13-3.35-.17-7.14 2.37-6.67 6.05m67.34 1.29c6.98.31 13.97-.16 20.96.17-.06 7.68.13 15.36-.12 23.03-7.97-.19-15.94-.19-23.9.07-.04 2.01-.09 4.01-.14 6.02 7.98 1.34 16.1.29 24.15.77-.02 3.07-.02 6.14-.04 9.22 3.02.23 6.06.28 9.1.19.01-3.08 0-6.17-.08-9.25 8.02-.85 16.15.51 24.12-.82-.04-2.09-.07-4.18-.1-6.28-7.77.13-15.55-.29-23.31.17-1.42-7.54-.21-15.33-.68-22.98 7.35-.56 14.72-.13 22.07-.16.01-2.27 0-4.53-.03-6.8-17.68.15-35.37.11-53.06.01.32 2.13-1.28 5.47 1.06 6.64m40.54 4.03c-2.34 5.12-5.65 9.87-7.15 15.31 3.01.03 6.03-.03 9.04-.28 2.01-5.13 5.29-9.67 6.92-14.95-2.93-.09-5.87-.11-8.81-.08m29.32.26c-.02 1.59-.05 3.18-.07 4.77-3.32.06-6.63.08-9.95.11l-.12 6.21c3.36-.01 6.73.15 10.05.74.16 2.37-.19 4.99 1.24 7.07 1.46 2.33 4.02 3.57 6.29 4.97l2.44.24c.07.45.22 1.35.3 1.8-6.19 1.98-12.71 1.78-19.12 1.97v5.99c6.53.25 13.34.9 19.59-1.47 2.42-.79 4.61-2.24 7.14-2.7 3.6-.44 6.54 2.09 9.85 3.03 5.97 2.01 12.35 1.23 18.53 1.23.04-2.07.08-4.15.11-6.22-6.66-.02-13.55.34-19.82-2.33 3.66-1.52 7.12-3.5 10.21-5.99.54-2.54 1.04-5.08 1.28-7.66 3.32-.37 6.66-.62 10.01-.7-.04-2.04-.07-4.08-.09-6.11-3.37-.12-6.73-.15-10.1-.15-.01-1.57-.01-3.14-.01-4.72-2.84-.18-5.68-.18-8.52.03l-.12 4.79c-6.74-.26-13.5.15-20.23-.15-1.31-1.24-.67-3.23-.94-4.82-2.65.01-5.3.04-7.95.07m-67.66-.28c.93 5.62 4.63 10.12 6.8 15.25 3.03.05 6.05.07 9.07 0-1.76-5.39-5.18-9.97-7.45-15.13-2.81-.11-5.61-.14-8.42-.12m-18.96 52.14c-5.46 1.43-9.86 6.85-9.39 12.6.2 6.15-.29 12.32.27 18.45 1.71 5.5 7.49 9.32 13.18 9.22 5.37-.01 10.76.18 16.13-.13 5.11-.23 9.45-4.07 11.19-8.73.67-4.45.23-8.97.34-13.46-6.99-.84-14.12-.69-21.11-.01.05 2.03.08 4.07.12 6.1 4.19.06 8.39.03 12.59.17-.43 2.71 1.2 6.58-1.1 8.55-7.62.28-15.28.11-22.91.02.39-8.6-.85-17.24.26-25.79 7.71.13 15.44-.27 23.13.14 1.46 1.34.45 4.14.82 6.05 2.75.03 5.5.03 8.25.01.76-5.46-2.87-10.47-7.72-12.6-4.42-1.85-9.29-1.18-13.95-1.28-3.37.09-6.85-.4-10.1.69m-118.03.56c-.67 12.84.09 25.77-.38 38.65 2.61.78 5.34.75 8.04.79 1.35-3.89.8-8.05.85-12.08 7.36-.31 14.76-.01 22.09-.99 3.71-1.41 7.64-4.19 8.13-8.45.28-4.9.93-10.69-3.07-14.38-4.98-5.5-12.96-3.89-19.54-4.14-5.34.35-10.95-.72-16.12.6m45.31-.58c-.95 4.49-.37 9.09-.52 13.63.15 8.34-.23 16.69.15 25.03 1.75 2.42 5.38.8 7.92 1.39 1.11-4.73.46-9.62.65-14.43-.13-8.34.24-16.69-.18-25.02-2.46-1.11-5.37-.39-8.02-.6m16.11.02c-1.04 6.16-.04 12.41-.48 18.6.27 7.13-.69 14.34.67 21.39 2.34-.07 4.68-.09 7.02-.07.38-9.08.09-18.16.15-27.24 1.95.08 3.11 1.71 4.34 2.96 6.55 7.45 13.05 14.93 19.6 22.37 2.21 2.64 5.93 1.69 8.93 2 1.67-7.09-.25-14.32.64-21.46-.58-6.18.73-12.4-.52-18.54-2.4.02-4.8.04-7.2.08-.3 7.84-.05 15.69-.11 23.53.11 1.47-.22 2.83-.97 4.08-7.91-9.22-16.05-18.26-24.1-27.35-2.61-.58-5.32-.28-7.97-.35m117.72.31c-5.87 12.66-12.78 24.82-18.67 37.48-.32.28-.95.85-1.27 1.13 3.01 1.17 6.3 1.36 9.35.19 4.66-9.8 9.81-19.35 14.43-29.16.35.04 1.04.13 1.38.18 4.41 9.24 9.15 18.32 13.73 27.48 1.41 3.73 6.03 1.95 9.05 2.12a28.76 28.76 0 0 0-.92-3.6c-6.08-11.93-12.39-23.77-18.06-35.9-3-.33-6.03-.35-9.02.08m32.35-.26c.03 13.29-.38 26.6.2 39.89 2.36-.04 4.72-.04 7.09.01.65-9.44-.68-19.02.84-28.38 7.81 8.78 15.69 17.5 23.4 26.37 2.01 3.11 6.18 1.86 9.26 1.77.6-13.16.06-26.39.27-39.57-2.65-.08-5.31-.09-7.95-.05.01 8.69-.14 17.38.09 26.07-.51.05-1.55.14-2.07.18-7.66-8.78-15.45-17.44-23.11-26.21-2.68-.1-5.35-.12-8.02-.08m-33.79 28c-.09 3.95-.12 7.89.05 11.83 3.96-.02 7.93-.02 11.89.02.06-3.95.05-7.89-.03-11.84-3.97-.07-7.94-.1-11.91-.01m34.32 36.3c-2.29-.48-4.34-1.68-6.43-2.67-.03.56-.08 1.68-.1 2.23 2.62.58 5.15 1.44 7.63 2.48.83-1.89 3.05-1.86 4.74-2.41.03 4.4-4.74 4.97-7.13 7.53 3.3.34 6.15-1.19 8.28-3.59 2.39 2.69 5.69 4.8 9.44 4.28-3.21-2.32-7.26-3.44-9.52-6.95 2-.42 4.09-.81 6.09-.12-.66 1.04-1.32 2.08-1.97 3.12l2.4-.16c.56-1.65 1.1-3.3 1.56-4.98-3.73-.11-7.45-.15-11.18-.14-.13-.67-.4-2.01-.54-2.68-1.07 1.33-1.67 3.34-3.27 4.06m-183.19-2.5c-.69 3.89-3.1 7.1-4.41 10.75.63-.2 1.88-.62 2.51-.83.86 4.64-.11 9.44 1.18 14.01.57-1.66 1.48-3.31 1.2-5.13-.35-6.16-.55-12.58 1.47-18.5-.49-.07-1.47-.22-1.95-.3m2.68.17c-.05 2.68-.03 5.37.04 8.06 2.23.05 4.47.03 6.69.24l.36 2.62c-2.93.07-5.86.07-8.79.29 1.74 2.32 6.1-.38 7.06 2.31-1.77 2.82-5.16 4.05-7.44 6.4 3.71.81 6.09-2.73 8.81-4.55.14 2.32.25 4.65.33 6.98l1.18-.08c.04-2.27.09-4.53.21-6.79 3.01 1.77 5.65 4.1 8.69 5.83.05-.59.16-1.78.21-2.38-2.97-1.53-7.03-2.9-7.55-6.72 2.64-.18 5.89.94 8.07-1.05-3.11-.23-6.23 0-9.32-.32-.1-.66-.31-1.97-.42-2.63 2.39-.04 4.78-.08 7.17-.14.06-2.67.06-5.35.02-8.02-5.11-.16-10.22-.08-15.32-.05m29.4 5.51c-.08-1.57-.06-3.13-.06-4.69-2.03-.49-4.13-.66-6.12.1.11 7.08.02 14.17-.03 21.25.5.02 1.5.07 2 .1-.06-1.78-.11-3.56-.17-5.33 1.68.01 3.36.01 5.04 0 .68-3.47-.38-6.82-1.39-10.1 1.3.03 2.61.06 3.91.13.96.98 2.3.99 3.58 1.09-.38 3.33.28 6.63 1.19 9.83 2.35-2.89.1-6.9-.61-10 1.19-.01 3.58-.03 4.77-.03-.1 3.36-1 6.57-2.06 9.74.22.59.65 1.78.86 2.38-3.44-.06-6.89-.01-10.34.07.11.46.32 1.36.43 1.82 4.55-.01 9.09-.03 13.64 0 .07-.46.2-1.37.26-1.83-1.24-.03-2.49-.05-3.73-.07 1.28-3.55 2.07-7.24 2.77-10.93l-1.58-.01c.07-.86.22-2.59.3-3.45 1.01.51 2.03 1.03 3.05 1.55l.04-1.99c-2.96-1.18-5.13-3.6-7.69-5.28-3.32.57-4.66 4.88-8.06 5.65m39.46 3.74c1.32-.24 2.54-.75 3.6-1.57.24 1.14.48 2.27.71 3.41-.76 0-2.3.01-3.06.01l-.08 2.03c.73-.03 2.19-.1 2.92-.14.04 3.18.05 6.36.14 9.55 1.93-.36 3.66-1.26 5.25-2.38l-.2-2.71c-1.09.8-2.18 1.59-3.27 2.39-.02-2.23-.02-4.46-.01-6.69 1.67-.17 3.95.3 3.87-2.12-.91.06-2.75.17-3.67.23-.08-1.02-.16-2.04-.23-3.05a8.56 8.56 0 0 0 4.02-1.87c-2.05-.22-4.1-.35-6.15-.49.26-.52.78-1.57 1.03-2.1 1.1-1.38 6.46.3 4.14-2.18-2.06-.06-3.71-.84-4.38-2.9-1.18 3.68-2.96 7.11-4.63 10.58m32.78-9c-1.36 2.36-3.05 4.57-3.8 7.23.39-.4 1.16-1.18 1.54-1.58.65.63 1.29 1.26 1.93 1.91-1.28 1.75-2.53 3.52-3.75 5.31l3.42-.08c-.01 3.1.02 6.2.04 9.31l1.31-.04c.19-5.3.24-10.64 1.22-15.86-.9-.68-1.79-1.36-2.66-2.07.56-.56 1.68-1.67 2.24-2.23.08-.62.23-1.86.3-2.47-.44.14-1.34.43-1.79.57m46.48-1c-.08 1.58-.11 3.17-.12 4.75-1.21.47-2.43.95-3.63 1.44 1.14.51 2.36.79 3.59 1.04a165.9 165.9 0 0 1-.52 6.31c-.52.12-1.57.36-2.1.48l-.48 1.89c.74-.08 2.23-.25 2.98-.34.04 1.76.08 3.53.13 5.3-.72-.01-2.16-.01-2.89-.01l.12 1.87c1.33.02 2.66.05 3.99.08.03-2.79.06-5.58.21-8.37a74.3 74.3 0 0 0 3.71-3.4c-.95.06-2.86.17-3.81.22.05-1.39.11-2.78.16-4.17.88-.18 2.63-.54 3.5-.72-.83-.29-2.5-.86-3.34-1.15-.49-1.73.18-4.03-1.5-5.22m7.33.97c-1.7 1.24-1 3.55-1.38 5.33-1.84.84-2.5 2.44-1.93 4.41 2.92-1.82 4.48-4.71 4.04-8.16 1.96.04 3.92.08 5.89.13 0 2.05.03 4.11.06 6.16 1.92.04 3.83.05 5.75.02-.71-1.76-2.47-1.93-4.14-2.06-.29-2-.47-4.01-.56-6.02-2.58-.03-5.17-.14-7.73.19m-76.44 1.06c1.57 7.08-.56 14.31.92 21.37 2.75-.32 6.63-2.01 5.02-5.5-.66.87-1.97 2.61-2.63 3.47-1.35-2.86-1.09-6.03-.85-9.09.58.17 1.74.5 2.32.66.77 4.91 4.86 8.36 9.28 10.09-.03-.46-.07-1.37-.09-1.83-1.89-.81-3.68-1.93-4.43-3.97.65-.43 1.94-1.3 2.59-1.74l.2-2.22c-1.6 1.08-3.25 2.09-4.97 2.98l-.51-3.46c1.82-.27 3.63-.59 5.44-.92 0-3.65.02-7.3-.24-10.94-4.01.27-8.32-.8-12.05 1.1m26.33.33c5.06 1.1 10.53 1.17 15.57-.04-3.32-1.17-6.91-.55-10.33-1.18-1.76.35-3.52.72-5.24 1.22m.03 4.61c-.08.48-.25 1.43-.33 1.91 3.41.02 6.83.03 10.25-.06 1.11 4.01.52 8.19-.09 12.24-2.17-.19-4.32-.37-6.48-.52.16.52.5 1.56.67 2.08 2.55.19 5.11.24 7.67.13.48-4.57.44-9.17.33-13.75 1.26-.06 2.52-.12 3.78-.17-.04-.47-.1-1.4-.13-1.87-5.23-.02-10.45.02-15.67.01m67.9 2.22-.24 2c2.88-.82 5.46-2.38 7.81-4.21-2.79-.95-5.06 1.43-7.57 2.21m-141.39.92c.3 3.31.38 7.82 3.68 9.6-.43-3.43-1.19-7.03-3.68-9.6m121.75-.18c.13.51.39 1.51.52 2.01 3.12-.11 6.24-.14 9.36-.05-.66 2.57-2.49 4.45-4.73 5.75-1.55-1.99-3.18-3.93-5.07-5.61-.03 2.14.77 4.07 2.62 5.24.54 3.18-3.37 3.12-5.49 3.68.06.55.17 1.65.22 2.2 2.53-.76 4.88-2.09 7.49-2.57 3.01.22 5.75 1.77 8.63 2.57.05-.53.15-1.59.21-2.12-2.07-.41-4.09-.99-6.08-1.68.92-3.14 5.33-5.76 3.44-9.27-3.7-.21-7.42.03-11.12-.15m22.22 9.25c.42.87.83 1.75 1.23 2.63-.84-.07-2.5-.22-3.33-.3l.12 1.55c3.59.04 7.49-.71 9.89-3.64 1.7-1.69 1.4-4.22 1.54-6.4 1.96-.04 3.93-.09 5.89-.15.74 2.36.12 5.35 2.04 7.19.18-2.97.14-5.94.12-8.91-5.76 1-11.5-.65-17.27-.17-.25 2.73-.31 5.47-.23 8.2m9.48-.75c2.79 2.79 6.86 3.74 10.54 4.81-2.02-3.73-6.74-4.35-10.54-4.81z"/><path d="M100.46 119.38c-.2-11.25-.3-22.51.03-33.76 13.68.17 27.36.13 41.04 0 .4 11.27.32 22.58-.03 33.85-13.67-.37-27.36-.18-41.04-.09m4.01-29.14c.01 1.56.01 3.12 0 4.68 3.95.63 7.97.33 11.95.38.3.78.91 2.35 1.21 3.14-3.59 1.31-7.46.76-11.2.88-.01 1.5-.02 3.01-.04 4.51 3.46.48 6.95.44 10.43.38l-.03 5.45c-3.66.06-7.34-.16-11 .04-2.1.74-.96 3.45-1.52 5.05 6.2 1.14 12.55.28 18.81.54 4.83-.28 9.78.68 14.49-.65-.11-2.38-.15-4.77-.16-7.15-1.96-.03-3.92-.06-5.88-.08l-.08 2.19c-2.07.01-4.13.02-6.2.04-.64-2.89-.69-7.46 3.14-7.91l-.6 2.53c2.64-.19 5.29-.43 7.93-.54 0-1.49-.01-2.98 0-4.46-3-.04-6-.03-9 .08l-2-1.08-.09-2.8c3.47-.22 6.94-.12 10.41-.18 3.67.83 3.63-6.3.04-5.59-10.19.32-20.5-.78-30.61.55zm-71.03 1.33c5.33.04 10.66.02 15.98.01.02 6.31.05 12.63.02 18.95-5.35-.01-10.7.03-16.04-.02-.05-6.31-.08-12.62.04-18.94zm25.31 1.25c.25-.29.75-.87 1.01-1.16 5.01-.15 10.05-.2 15.06.15-.1 6.25.1 12.51-.14 18.77-5.14-.01-10.28-.14-15.41.06-1.19-5.85-.32-11.89-.52-17.82zm178.51 10.7c7.09-1.28 14.45-.9 21.59-.2-.14 1.61-.27 3.23-.38 4.85-3.18 2.22-6.8 3.65-10.32 5.22-3.12-1.71-6.63-2.74-9.51-4.86-.92-1.51-1-3.33-1.38-5.01zM33.34 150.39c7.08-.02 14.17-.03 21.26-.04.16 4.45.1 8.9.07 13.35-7.05.88-14.28.86-21.35.12.09-4.48.05-8.96.02-13.43zm24.32 57.13c4.22-1.31 8.67-.83 12.95-.1-.55 1.46.56 4.11-1.47 4.65-3.81.44-7.68.2-11.45-.52 0-1.01-.02-3.02-.03-4.03zm81.06 2.82c-2.04.55-1.17-3.28.29-2.9 2.25-.12 4.51-.03 6.77-.01-.04 1.09-.08 2.18-.11 3.28-2.32-.13-4.64-.13-6.95-.37zm-57.13-2.92c.64.14 1.92.41 2.57.54-1.24 4.21.03 8.35.94 12.47l-3.7.36c.09-4.46.07-8.91.19-13.37zm8.38 4.03c.94-1.49 1.94-2.94 3-4.34 1.88 1.19 3.63 2.58 5.2 4.17-2.74.14-5.47.17-8.2.17zm47.89 1.28c2.58-.78 5.37-.4 8.02-.23.4 1.03.36 2.06-.14 3.1-2.76-.11-5.52-.13-8.28-.13l.4-2.74zm97.3 13.09c-2.41-2.21-1.46-5.64-.79-8.41 2.15.15 4.3.39 6.42.83-.9 3.16-2.42 6.23-5.63 7.58z"/></g><g fill="#fbfcf8"><path d="M49.43 78.39c3.07-.01 6.13.01 9.2.07.02 1.99.03 3.98.02 5.98 6.74.71 13.57-.38 20.26.89 1.94.17 3.18 1.86 4.58 3.01.11 8.37.21 16.75-.02 25.12-1.29 1.32-2.59 2.63-3.91 3.93-6.72-.04-13.45 0-20.18-.01-.43 3.07-.68 6.17-.68 9.28-3.08.58-6.2.58-9.27-.01.01-3.05 0-6.1.01-9.15-6.16-.31-12.33.1-18.48-.23-3.26-.16-6.41-2.81-6.3-6.22-.06-6.67-.14-13.35.01-20.02-.02-2.16 1.44-3.87 2.71-5.46 1.56-.21 3.12-.46 4.67-.76 5.8-.28 11.61.08 17.41-.25-.02-2.06-.02-4.11-.03-6.17M33.44 91.57c-.12 6.32-.09 12.63-.04 18.94 5.34.05 10.69.01 16.04.02.03-6.32 0-12.64-.02-18.95-5.32.01-10.65.03-15.98-.01m25.31 1.25c.2 5.93-.67 11.97.52 17.82 5.13-.2 10.27-.07 15.41-.06.24-6.26.04-12.52.14-18.77-5.01-.35-10.05-.3-15.06-.15-.26.29-.76.87-1.01 1.16zm184.78-14.28c3.01-.38 6.06-.39 9.09-.21-.01.79-.04 2.37-.05 3.16 6.16.34 12.33-.04 18.49.27 2.21.01 4.03 1.4 5.6 2.82-.03 2.33-.02 4.67-.01 7.01-2.04.01-4.08.01-6.12.02l-1.05-4.17c-14.3.27-28.61-.08-42.91.2-.02 1.31-.04 2.62-.05 3.93-2.31-.02-4.61-.05-6.91-.1-.13-3.13-.14-6.41 1.99-8.94 7.22-1.64 14.69-.59 22.03-.92-.03-.77-.07-2.3-.1-3.07zM92.31 85.98c-.47-3.68 3.32-6.22 6.67-6.05 12.99-.26 25.99.02 38.98-.13 3.1-.1 6.18.21 9.23.73.8 1.07 1.61 2.14 2.43 3.2.4 12.9.38 25.84-.1 38.73l-3.15 3c-16.13.32-32.27.17-48.41.12-2.41.28-4.01-1.72-5.48-3.28-.48-12.1-.18-24.22-.17-36.32m8.15 33.4c13.68-.09 27.37-.28 41.04.09.35-11.27.43-22.58.03-33.85-13.68.13-27.36.17-41.04 0-.33 11.25-.23 22.51-.03 33.76zm59.19-32.11c-2.34-1.17-.74-4.51-1.06-6.64 17.69.1 35.38.14 53.06-.01.03 2.27.04 4.53.03 6.8-7.35.03-14.72-.4-22.07.16.47 7.65-.74 15.44.68 22.98 7.76-.46 15.54-.04 23.31-.17.03 2.1.06 4.19.1 6.28-7.97 1.33-16.1-.03-24.12.82.08 3.08.09 6.17.08 9.25-3.04.09-6.08.04-9.1-.19.02-3.08.02-6.15.04-9.22-8.05-.48-16.17.57-24.15-.77.05-2.01.1-4.01.14-6.02 7.96-.26 15.93-.26 23.9-.07.25-7.67.06-15.35.12-23.03-6.99-.33-13.98.14-20.96-.17z"/><path d="M104.47 90.24c10.11-1.33 20.42-.23 30.61-.55 3.59-.71 3.63 6.42-.04 5.59-3.47.06-6.94-.04-10.41.18l.09 2.8 2 1.08c3-.11 6-.12 9-.08-.01 1.48 0 2.97 0 4.46-2.64.11-5.29.35-7.93.54l.6-2.53c-3.83.45-3.78 5.02-3.14 7.91 2.07-.02 4.13-.03 6.2-.04l.08-2.19c1.96.02 3.92.05 5.88.08.01 2.38.05 4.77.16 7.15-4.71 1.33-9.66.37-14.49.65-6.26-.26-12.61.6-18.81-.54.56-1.6-.58-4.31 1.52-5.05 3.66-.2 7.34.02 11-.04l.03-5.45c-3.48.06-6.97.1-10.43-.38.02-1.5.03-3.01.04-4.51 3.74-.12 7.61.43 11.2-.88-.3-.79-.91-2.36-1.21-3.14-3.98-.05-8 .25-11.95-.38.01-1.56.01-3.12 0-4.68zm95.72 1.06c2.94-.03 5.88-.01 8.81.08-1.63 5.28-4.91 9.82-6.92 14.95-3.01.25-6.03.31-9.04.28 1.5-5.44 4.81-10.19 7.15-15.31zm29.32.26c2.65-.03 5.3-.06 7.95-.07.27 1.59-.37 3.58.94 4.82 6.73.3 13.49-.11 20.23.15l.12-4.79c2.84-.21 5.68-.21 8.52-.03 0 1.58 0 3.15.01 4.72 3.37 0 6.73.03 10.1.15.02 2.03.05 4.07.09 6.11-3.35.08-6.69.33-10.01.7-.24 2.58-.74 5.12-1.28 7.66-3.09 2.49-6.55 4.47-10.21 5.99 6.27 2.67 13.16 2.31 19.82 2.33-.03 2.07-.07 4.15-.11 6.22-6.18 0-12.56.78-18.53-1.23-3.31-.94-6.25-3.47-9.85-3.03-2.53.46-4.72 1.91-7.14 2.7-6.25 2.37-13.06 1.72-19.59 1.47v-5.99c6.41-.19 12.93.01 19.12-1.97-.08-.45-.23-1.35-.3-1.8l-2.44-.24c-2.27-1.4-4.83-2.64-6.29-4.97-1.43-2.08-1.08-4.7-1.24-7.07-3.32-.59-6.69-.75-10.05-.74l.12-6.21c3.32-.03 6.63-.05 9.95-.11.02-1.59.05-3.18.07-4.77m7.75 11.96c.38 1.68.46 3.5 1.38 5.01 2.88 2.12 6.39 3.15 9.51 4.86 3.52-1.57 7.14-3 10.32-5.22.11-1.62.24-3.24.38-4.85-7.14-.7-14.5-1.08-21.59.2zm-75.41-12.24c2.81-.02 5.61.01 8.42.12 2.27 5.16 5.69 9.74 7.45 15.13-3.02.07-6.04.05-9.07 0-2.17-5.13-5.87-9.63-6.8-15.25zm-18.96 52.14c3.25-1.09 6.73-.6 10.1-.69 4.66.1 9.53-.57 13.95 1.28 4.85 2.13 8.48 7.14 7.72 12.6-2.75.02-5.5.02-8.25-.01-.37-1.91.64-4.71-.82-6.05-7.69-.41-15.42-.01-23.13-.14-1.11 8.55.13 17.19-.26 25.79 7.63.09 15.29.26 22.91-.02 2.3-1.97.67-5.84 1.1-8.55-4.2-.14-8.4-.11-12.59-.17-.04-2.03-.07-4.07-.12-6.1 6.99-.68 14.12-.83 21.11.01-.11 4.49.33 9.01-.34 13.46-1.74 4.66-6.08 8.5-11.19 8.73-5.37.31-10.76.12-16.13.13-5.69.1-11.47-3.72-13.18-9.22-.56-6.13-.07-12.3-.27-18.45-.47-5.75 3.93-11.17 9.39-12.6zm-118.03.56c5.17-1.32 10.78-.25 16.12-.6 6.58.25 14.56-1.36 19.54 4.14 4 3.69 3.35 9.48 3.07 14.38-.49 4.26-4.42 7.04-8.13 8.45-7.33.98-14.73.68-22.09.99-.05 4.03.5 8.19-.85 12.08-2.7-.04-5.43-.01-8.04-.79.47-12.88-.29-25.81.38-38.65m8.48 6.41c.03 4.47.07 8.95-.02 13.43 7.07.74 14.3.76 21.35-.12.03-4.45.09-8.9-.07-13.35-7.09.01-14.18.02-21.26.04zm36.83-6.99c2.65.21 5.56-.51 8.02.6.42 8.33.05 16.68.18 25.02-.19 4.81.46 9.7-.65 14.43-2.54-.59-6.17 1.03-7.92-1.39-.38-8.34 0-16.69-.15-25.03.15-4.54-.43-9.14.52-13.63zm16.11.02c2.65.07 5.36-.23 7.97.35 8.05 9.09 16.19 18.13 24.1 27.35.75-1.25 1.08-2.61.97-4.08.06-7.84-.19-15.69.11-23.53 2.4-.04 4.8-.06 7.2-.08 1.25 6.14-.06 12.36.52 18.54-.89 7.14 1.03 14.37-.64 21.46-3-.31-6.72.64-8.93-2-6.55-7.44-13.05-14.92-19.6-22.37-1.23-1.25-2.39-2.88-4.34-2.96-.06 9.08.23 18.16-.15 27.24-2.34-.02-4.68 0-7.02.07-1.36-7.05-.4-14.26-.67-21.39.44-6.19-.56-12.44.48-18.6zm117.72.31c2.99-.43 6.02-.41 9.02-.08 5.67 12.13 11.98 23.97 18.06 35.9.38 1.17.69 2.37.92 3.6-3.02-.17-7.64 1.61-9.05-2.12-4.58-9.16-9.32-18.24-13.73-27.48-.34-.05-1.03-.14-1.38-.18-4.62 9.81-9.77 19.36-14.43 29.16-3.05 1.17-6.34.98-9.35-.19.32-.28.95-.85 1.27-1.13 5.89-12.66 12.8-24.82 18.67-37.48zm32.35-.26c2.67-.04 5.34-.02 8.02.08 7.66 8.77 15.45 17.43 23.11 26.21.52-.04 1.56-.13 2.07-.18-.23-8.69-.08-17.38-.09-26.07 2.64-.04 5.3-.03 7.95.05-.21 13.18.33 26.41-.27 39.57-3.08.09-7.25 1.34-9.26-1.77-7.71-8.87-15.59-17.59-23.4-26.37-1.52 9.36-.19 18.94-.84 28.38-2.37-.05-4.73-.05-7.09-.01-.58-13.29-.17-26.6-.2-39.89z"/><path d="M202.56 171.47c3.97-.09 7.94-.06 11.91.01.08 3.95.09 7.89.03 11.84-3.96-.04-7.93-.04-11.89-.02-.17-3.94-.14-7.88-.05-11.83zm34.32 36.3c1.6-.72 2.2-2.73 3.27-4.06.14.67.41 2.01.54 2.68 3.73-.01 7.45.03 11.18.14-.46 1.68-1 3.33-1.56 4.98l-2.4.16c.65-1.04 1.31-2.08 1.97-3.12-2-.69-4.09-.3-6.09.12 2.26 3.51 6.31 4.63 9.52 6.95-3.75.52-7.05-1.59-9.44-4.28-2.13 2.4-4.98 3.93-8.28 3.59 2.39-2.56 7.16-3.13 7.13-7.53-1.69.55-3.91.52-4.74 2.41-2.48-1.04-5.01-1.9-7.63-2.48.02-.55.07-1.67.1-2.23 2.09.99 4.14 2.19 6.43 2.67zm-183.19-2.5c.48.08 1.46.23 1.95.3-2.02 5.92-1.82 12.34-1.47 18.5.28 1.82-.63 3.47-1.2 5.13-1.29-4.57-.32-9.37-1.18-14.01-.63.21-1.88.63-2.51.83 1.31-3.65 3.72-6.86 4.41-10.75z"/><path d="M56.37 205.44c5.1-.03 10.21-.11 15.32.05.04 2.67.04 5.35-.02 8.02-2.39.06-4.78.1-7.17.14.11.66.32 1.97.42 2.63 3.09.32 6.21.09 9.32.32-2.18 1.99-5.43.87-8.07 1.05.52 3.82 4.58 5.19 7.55 6.72-.05.6-.16 1.79-.21 2.38-3.04-1.73-5.68-4.06-8.69-5.83-.12 2.26-.17 4.52-.21 6.79l-1.18.08c-.08-2.33-.19-4.66-.33-6.98-2.72 1.82-5.1 5.36-8.81 4.55 2.28-2.35 5.67-3.58 7.44-6.4-.96-2.69-5.32.01-7.06-2.31 2.93-.22 5.86-.22 8.79-.29l-.36-2.62c-2.22-.21-4.46-.19-6.69-.24-.07-2.69-.09-5.38-.04-8.06m1.29 2.08c.01 1.01.03 3.02.03 4.03 3.77.72 7.64.96 11.45.52 2.03-.54.92-3.19 1.47-4.65-4.28-.73-8.73-1.21-12.95.1zm28.11 3.43c3.4-.77 4.74-5.08 8.06-5.65 2.56 1.68 4.73 4.1 7.69 5.28l-.04 1.99c-1.02-.52-2.04-1.04-3.05-1.55-.08.86-.23 2.59-.3 3.45l1.58.01c-.7 3.69-1.49 7.38-2.77 10.93 1.24.02 2.49.04 3.73.07-.06.46-.19 1.37-.26 1.83-4.55-.03-9.09-.01-13.64 0-.11-.46-.32-1.36-.43-1.82 3.45-.08 6.9-.13 10.34-.07-.21-.6-.64-1.79-.86-2.38 1.06-3.17 1.96-6.38 2.06-9.74-1.19 0-3.58.02-4.77.03.71 3.1 2.96 7.11.61 10-.91-3.2-1.57-6.5-1.19-9.83-1.28-.1-2.62-.11-3.58-1.09-1.3-.07-2.61-.1-3.91-.13 1.01 3.28 2.07 6.63 1.39 10.1-1.68.01-3.36.01-5.04 0 .06 1.77.11 3.55.17 5.33-.5-.03-1.5-.08-2-.1.05-7.08.14-14.17.03-21.25 1.99-.76 4.09-.59 6.12-.1 0 1.56-.02 3.12.06 4.69m-4.18-3.53c-.12 4.46-.1 8.91-.19 13.37l3.7-.36c-.91-4.12-2.18-8.26-.94-12.47-.65-.13-1.93-.4-2.57-.54m8.38 4.03c2.73 0 5.46-.03 8.2-.17a29.363 29.363 0 0 0-5.2-4.17c-1.06 1.4-2.06 2.85-3 4.34zm35.26 3.24c1.67-3.47 3.45-6.9 4.63-10.58.67 2.06 2.32 2.84 4.38 2.9 2.32 2.48-3.04.8-4.14 2.18-.25.53-.77 1.58-1.03 2.1 2.05.14 4.1.27 6.15.49a8.56 8.56 0 0 1-4.02 1.87c.07 1.01.15 2.03.23 3.05.92-.06 2.76-.17 3.67-.23.08 2.42-2.2 1.95-3.87 2.12-.01 2.23-.01 4.46.01 6.69 1.09-.8 2.18-1.59 3.27-2.39l.2 2.71c-1.59 1.12-3.32 2.02-5.25 2.38-.09-3.19-.1-6.37-.14-9.55-.73.04-2.19.11-2.92.14l.08-2.03c.76 0 2.3-.01 3.06-.01-.23-1.14-.47-2.27-.71-3.41-1.06.82-2.28 1.33-3.6 1.57zm32.78-9c.45-.14 1.35-.43 1.79-.57-.07.61-.22 1.85-.3 2.47-.56.56-1.68 1.67-2.24 2.23.87.71 1.76 1.39 2.66 2.07-.98 5.22-1.03 10.56-1.22 15.86l-1.31.04c-.02-3.11-.05-6.21-.04-9.31l-3.42.08c1.22-1.79 2.47-3.56 3.75-5.31-.64-.65-1.28-1.28-1.93-1.91-.38.4-1.15 1.18-1.54 1.58.75-2.66 2.44-4.87 3.8-7.23zm46.48-1c1.68 1.19 1.01 3.49 1.5 5.22.84.29 2.51.86 3.34 1.15-.87.18-2.62.54-3.5.72-.05 1.39-.11 2.78-.16 4.17.95-.05 2.86-.16 3.81-.22a74.3 74.3 0 0 1-3.71 3.4c-.15 2.79-.18 5.58-.21 8.37-1.33-.03-2.66-.06-3.99-.08l-.12-1.87c.73 0 2.17 0 2.89.01-.05-1.77-.09-3.54-.13-5.3-.75.09-2.24.26-2.98.34l.48-1.89c.53-.12 1.58-.36 2.1-.48.21-2.1.39-4.2.52-6.31-1.23-.25-2.45-.53-3.59-1.04 1.2-.49 2.42-.97 3.63-1.44.01-1.58.04-3.17.12-4.75z"/><path d="M211.82 205.66c2.56-.33 5.15-.22 7.73-.19.09 2.01.27 4.02.56 6.02 1.67.13 3.43.3 4.14 2.06-1.92.03-3.83.02-5.75-.02-.03-2.05-.06-4.11-.06-6.16-1.97-.05-3.93-.09-5.89-.13.44 3.45-1.12 6.34-4.04 8.16-.57-1.97.09-3.57 1.93-4.41.38-1.78-.32-4.09 1.38-5.33zm-76.44 1.06c3.73-1.9 8.04-.83 12.05-1.1.26 3.64.24 7.29.24 10.94-1.81.33-3.62.65-5.44.92l.51 3.46c1.72-.89 3.37-1.9 4.97-2.98l-.2 2.22c-.65.44-1.94 1.31-2.59 1.74.75 2.04 2.54 3.16 4.43 3.97.02.46.06 1.37.09 1.83-4.42-1.73-8.51-5.18-9.28-10.09-.58-.16-1.74-.49-2.32-.66-.24 3.06-.5 6.23.85 9.09.66-.86 1.97-2.6 2.63-3.47 1.61 3.49-2.27 5.18-5.02 5.5-1.48-7.06.65-14.29-.92-21.37m3.34 3.62c2.31.24 4.63.24 6.95.37.03-1.1.07-2.19.11-3.28-2.26-.02-4.52-.11-6.77.01-1.46-.38-2.33 3.45-.29 2.9m-.86 2.39-.4 2.74c2.76 0 5.52.02 8.28.13.5-1.04.54-2.07.14-3.1-2.65-.17-5.44-.55-8.02.23zm23.85-5.68c1.72-.5 3.48-.87 5.24-1.22 3.42.63 7.01.01 10.33 1.18-5.04 1.21-10.51 1.14-15.57.04zm.03 4.61c5.22.01 10.44-.03 15.67-.01.03.47.09 1.4.13 1.87-1.26.05-2.52.11-3.78.17.11 4.58.15 9.18-.33 13.75-2.56.11-5.12.06-7.67-.13-.17-.52-.51-1.56-.67-2.08 2.16.15 4.31.33 6.48.52.61-4.05 1.2-8.23.09-12.24-3.42.09-6.84.08-10.25.06.08-.48.25-1.43.33-1.91zm67.9 2.22c2.51-.78 4.78-3.16 7.57-2.21-2.35 1.83-4.93 3.39-7.81 4.21l.24-2zm-141.39.92c2.49 2.57 3.25 6.17 3.68 9.6-3.3-1.78-3.38-6.29-3.68-9.6z"/><path d="M210 214.62c3.7.18 7.42-.06 11.12.15 1.89 3.51-2.52 6.13-3.44 9.27 1.99.69 4.01 1.27 6.08 1.68-.06.53-.16 1.59-.21 2.12-2.88-.8-5.62-2.35-8.63-2.57-2.61.48-4.96 1.81-7.49 2.57-.05-.55-.16-1.65-.22-2.2 2.12-.56 6.03-.5 5.49-3.68-1.85-1.17-2.65-3.1-2.62-5.24 1.89 1.68 3.52 3.62 5.07 5.61 2.24-1.3 4.07-3.18 4.73-5.75-3.12-.09-6.24-.06-9.36.05-.13-.5-.39-1.5-.52-2.01zm22.22 9.25c-.08-2.73-.02-5.47.23-8.2 5.77-.48 11.51 1.17 17.27.17.02 2.97.06 5.94-.12 8.91-1.92-1.84-1.3-4.83-2.04-7.19-1.96.06-3.93.11-5.89.15-.14 2.18.16 4.71-1.54 6.4-2.4 2.93-6.3 3.68-9.89 3.64l-.12-1.55c.83.08 2.49.23 3.33.3-.4-.88-.81-1.76-1.23-2.63m2.94 1.95c3.21-1.35 4.73-4.42 5.63-7.58-2.12-.44-4.27-.68-6.42-.83-.67 2.77-1.62 6.2.79 8.41z"/><path d="M241.7 223.12c3.8.46 8.52 1.08 10.54 4.81-3.68-1.07-7.75-2.02-10.54-4.81z"/></g></svg>