<?xml version="1.0" encoding="UTF-8" ?>
<!DOCTYPE svg PUBLIC "-//W3C//DTD SVG 1.1//EN" "http://www.w3.org/Graphics/SVG/1.1/DTD/svg11.dtd">
<svg width="300pt" height="300pt" viewBox="0 0 300 300" version="1.1" xmlns="http://www.w3.org/2000/svg">
<g id="#073190ff">
<path fill="#073190" opacity="1.00" d=" M 130.22 29.26 C 135.47 26.35 140.69 22.42 146.98 22.51 C 151.28 22.23 155.52 23.56 159.19 25.74 C 164.98 29.12 170.77 32.49 176.59 35.82 C 176.52 36.09 176.40 36.63 176.33 36.90 C 173.52 37.25 170.71 37.87 168.27 39.37 C 150.42 49.58 132.67 59.96 114.74 70.03 C 114.63 89.70 114.73 109.38 114.68 129.05 C 114.62 134.01 115.62 138.95 117.70 143.45 C 111.16 139.57 104.45 135.97 97.89 132.12 C 91.24 128.31 86.57 120.81 87.04 113.03 C 87.08 93.34 87.00 73.65 87.08 53.96 C 101.55 45.88 115.81 37.44 130.22 29.26 Z" />
<path fill="#073190" opacity="1.00" d=" M 125.17 183.06 C 127.24 183.05 129.30 183.04 131.37 183.03 C 131.70 184.50 132.05 185.96 132.41 187.42 C 139.07 187.44 145.75 187.19 152.40 187.63 C 152.74 191.05 152.75 194.49 152.72 197.93 C 150.63 197.89 148.55 197.87 146.46 197.86 C 146.49 195.75 146.51 193.64 146.53 191.53 C 134.61 191.53 122.69 191.44 110.77 191.57 C 110.79 193.66 110.80 195.75 110.82 197.85 C 108.75 197.84 106.68 197.84 104.61 197.84 C 104.62 194.36 104.62 190.87 104.63 187.39 C 111.69 187.39 118.76 187.39 125.83 187.40 C 125.61 185.95 125.39 184.50 125.17 183.06 Z" />
<path fill="#073190" opacity="1.00" d=" M 175.49 205.59 C 178.15 198.45 177.67 190.67 177.82 183.19 C 180.12 183.09 182.42 183.04 184.72 183.01 C 184.72 188.27 183.99 193.67 185.61 198.78 C 188.80 210.66 197.69 220.44 208.84 225.45 C 207.13 226.72 205.42 227.98 203.73 229.27 C 194.04 225.15 186.26 217.13 181.98 207.57 C 179.34 214.43 174.04 219.77 168.47 224.36 C 166.16 226.08 163.85 227.96 161.07 228.86 C 158.83 228.70 157.81 226.34 156.63 224.76 C 164.41 220.23 172.00 214.13 175.49 205.59 Z" />
<path fill="#073190" opacity="1.00" d=" M 231.80 183.16 C 233.80 183.14 235.81 183.13 237.83 183.12 C 237.77 184.49 237.71 185.86 237.65 187.23 C 244.20 187.24 250.75 187.19 257.30 187.27 C 257.30 188.33 257.29 190.46 257.29 191.52 C 250.42 191.58 243.56 191.53 236.70 191.56 C 236.49 192.59 236.29 193.61 236.08 194.64 C 242.50 194.69 248.92 194.64 255.34 194.68 C 255.33 196.22 255.32 197.76 255.31 199.31 C 248.44 199.31 241.56 199.32 234.68 199.31 C 234.38 200.08 233.78 201.62 233.47 202.39 C 242.40 202.41 251.32 202.39 260.25 202.41 C 260.25 203.50 260.24 205.67 260.24 206.76 C 257.28 206.78 254.29 206.56 251.34 206.89 C 250.23 207.64 250.83 209.40 250.45 210.55 C 253.39 210.62 256.32 210.63 259.26 210.67 C 259.25 212.20 259.23 213.74 259.22 215.28 C 256.37 215.31 253.52 215.33 250.67 215.37 C 250.68 219.59 250.72 223.81 250.57 228.04 C 250.03 228.35 248.94 228.98 248.39 229.29 C 245.24 229.28 242.09 229.28 238.93 229.26 C 238.38 227.94 237.81 226.63 237.25 225.32 C 239.75 225.26 242.25 225.24 244.76 225.22 C 244.75 221.92 244.75 218.62 244.76 215.32 C 238.41 215.33 232.06 215.28 225.71 215.36 C 222.85 218.27 220.01 221.32 216.44 223.38 C 214.20 224.69 211.91 222.52 209.79 221.86 C 215.38 217.67 221.10 213.16 224.29 206.78 C 219.76 206.74 215.22 206.79 210.69 206.69 C 210.69 205.63 210.70 203.52 210.70 202.46 C 215.97 202.37 221.24 202.38 226.51 202.44 C 227.01 201.41 227.51 200.38 228.01 199.35 C 224.09 199.30 220.17 199.31 216.25 199.32 C 216.25 198.15 216.23 195.82 216.22 194.65 C 220.63 194.56 225.07 194.95 229.46 194.46 C 229.97 193.53 230.35 192.55 230.77 191.59 C 225.09 191.50 219.42 191.61 213.75 191.49 C 213.74 190.10 213.74 188.71 213.73 187.33 C 219.29 187.06 224.85 187.43 230.41 187.13 C 231.94 186.46 231.28 184.41 231.80 183.16 M 231.73 206.74 C 230.88 208.01 230.03 209.28 229.20 210.55 C 234.40 210.67 239.60 210.63 244.80 210.61 C 244.76 209.32 244.71 208.03 244.67 206.74 C 240.35 206.76 236.04 206.76 231.73 206.74 Z" />
<path fill="#073190" opacity="1.00" d=" M 50.44 185.38 C 64.94 185.43 79.45 185.28 93.96 185.44 C 96.46 185.08 97.49 187.83 97.33 189.90 C 97.34 203.04 97.32 216.19 97.32 229.33 C 81.70 229.39 66.08 229.34 50.47 229.36 C 50.41 214.70 50.46 200.04 50.44 185.38 M 56.66 190.44 C 56.67 201.73 56.64 213.03 56.68 224.32 C 68.02 224.34 79.36 224.30 90.70 224.34 C 90.79 213.03 90.72 201.72 90.74 190.40 C 79.38 190.42 68.02 190.36 56.66 190.44 Z" />
<path fill="#073190" opacity="1.00" d=" M 59.56 193.67 C 68.94 193.66 78.32 193.73 87.70 193.63 C 87.96 195.26 88.20 196.90 88.44 198.54 C 84.40 198.65 80.37 198.63 76.34 198.61 C 76.31 200.23 76.28 201.86 76.26 203.49 C 79.71 203.49 83.15 203.49 86.60 203.49 C 86.59 205.12 86.57 206.76 86.56 208.39 C 83.14 208.38 79.72 208.39 76.29 208.39 C 76.29 210.74 76.28 213.08 76.28 215.43 C 77.51 215.43 78.74 215.43 79.97 215.44 C 79.81 213.76 79.64 212.07 79.48 210.39 C 81.10 210.38 82.73 210.38 84.35 210.38 C 84.75 212.05 85.17 213.73 85.57 215.41 C 86.28 215.45 87.71 215.54 88.42 215.58 C 88.21 217.18 87.99 218.78 87.76 220.38 C 78.36 220.30 68.96 220.35 59.56 220.35 C 59.54 218.71 59.51 217.08 59.48 215.44 C 62.88 215.44 66.28 215.44 69.68 215.46 C 69.68 213.10 69.69 210.74 69.69 208.39 C 66.88 208.39 64.07 208.40 61.26 208.41 C 61.24 206.77 61.22 205.14 61.20 203.51 C 64.19 203.50 67.18 203.48 70.16 203.37 C 70.15 201.81 70.15 200.26 70.14 198.70 C 66.59 198.60 63.04 198.61 59.49 198.61 C 59.51 196.96 59.53 195.32 59.56 193.67 Z" />
<path fill="#073190" opacity="1.00" d=" M 113.22 197.37 C 113.20 196.12 113.19 194.88 113.15 193.64 C 123.37 193.73 133.60 193.76 143.82 193.63 C 143.80 194.76 144.77 197.18 142.95 197.26 C 133.04 197.43 123.13 197.18 113.22 197.37 Z" />
<path fill="#073190" opacity="1.00" d=" M 110.77 199.50 C 122.41 199.42 134.05 199.44 145.69 199.49 C 145.75 202.50 145.76 205.51 145.74 208.53 C 134.08 208.48 122.43 208.57 110.77 208.47 C 110.77 205.48 110.77 202.49 110.77 199.50 M 117.30 205.34 C 124.71 205.31 132.12 205.33 139.53 205.32 C 139.52 204.66 139.49 203.34 139.48 202.67 C 132.08 202.69 124.68 202.70 117.29 202.67 C 117.29 203.56 117.29 204.45 117.30 205.34 Z" />
<path fill="#073190" opacity="1.00" d=" M 107.23 210.64 C 121.35 210.68 135.47 210.61 149.59 210.68 C 150.12 216.89 149.81 223.14 149.84 229.37 C 135.64 229.35 121.44 229.36 107.24 229.37 C 107.20 223.12 107.20 216.88 107.23 210.64 M 113.45 214.50 C 113.44 215.57 113.43 216.65 113.42 217.73 C 117.42 217.74 121.42 217.74 125.42 217.69 C 125.42 216.90 125.42 215.32 125.41 214.53 C 121.42 214.50 117.44 214.50 113.45 214.50 M 131.60 214.51 C 131.59 215.58 131.58 216.65 131.58 217.72 C 135.58 217.74 139.59 217.74 143.60 217.72 C 143.59 216.64 143.57 215.56 143.56 214.49 C 139.58 214.51 135.59 214.50 131.60 214.51 M 113.43 221.59 C 113.43 222.89 113.43 224.20 113.44 225.51 C 117.43 225.52 121.42 225.53 125.41 225.48 C 125.41 224.19 125.41 222.90 125.41 221.61 C 121.42 221.58 117.42 221.59 113.43 221.59 M 131.59 221.59 C 131.59 222.89 131.59 224.19 131.58 225.50 C 135.59 225.52 139.59 225.52 143.59 225.52 C 143.59 224.20 143.59 222.89 143.59 221.58 C 139.59 221.59 135.59 221.59 131.59 221.59 Z" />
<path fill="#073190" opacity="1.00" d=" M 225.01 217.41 C 227.10 217.37 229.19 217.34 231.28 217.31 C 232.64 220.01 233.97 222.74 235.18 225.52 C 233.23 225.53 231.29 225.53 229.34 225.52 C 227.93 222.80 226.48 220.10 225.01 217.41 Z" />
<path fill="#073190" opacity="1.00" d=" M 53.16 241.21 C 58.51 237.33 65.73 237.82 71.75 239.68 C 71.22 240.76 70.70 241.85 70.18 242.95 C 65.81 242.13 60.80 241.00 56.90 243.82 C 52.76 246.69 52.43 253.44 56.28 256.69 C 59.26 259.62 63.82 258.68 67.56 258.36 C 67.56 256.42 67.56 254.48 67.57 252.55 C 65.81 252.54 64.04 252.53 62.28 252.52 C 62.27 251.42 62.26 250.33 62.25 249.24 C 65.44 249.23 68.64 249.23 71.83 249.23 C 71.76 253.03 72.05 256.86 71.63 260.66 C 65.86 263.29 58.50 263.67 53.17 259.81 C 47.23 255.58 47.20 245.43 53.16 241.21 Z" />
<path fill="#073190" opacity="1.00" d=" M 154.53 238.62 C 155.99 238.99 158.35 237.95 159.08 239.69 C 159.62 245.06 158.67 250.51 159.57 255.85 C 161.40 260.11 169.16 259.76 170.32 255.08 C 170.85 249.66 170.40 244.19 170.55 238.76 C 171.95 238.71 173.35 238.67 174.75 238.63 C 175.34 244.29 175.59 250.09 174.80 255.73 C 172.60 264.81 157.65 264.97 154.85 256.23 C 154.08 250.41 154.67 244.48 154.53 238.62 Z" />
<path fill="#073190" opacity="1.00" d=" M 189.30 238.70 C 190.73 238.71 192.17 238.71 193.61 238.72 C 193.66 245.23 193.63 251.75 193.63 258.26 C 197.97 258.28 202.31 258.21 206.64 258.42 C 206.21 259.75 206.27 262.58 204.10 262.21 C 199.17 262.28 194.16 262.62 189.33 261.46 C 189.19 253.88 189.22 246.29 189.30 238.70 Z" />
<path fill="#073190" opacity="1.00" d=" M 242.63 238.75 C 248.27 238.69 253.91 238.74 259.56 238.70 C 259.57 239.96 259.58 241.21 259.60 242.47 C 255.30 242.47 251.00 242.45 246.71 242.51 C 246.72 244.46 246.73 246.40 246.74 248.35 C 250.89 248.38 255.04 248.35 259.19 248.47 C 259.19 249.52 259.20 250.58 259.21 251.64 C 255.06 251.80 250.90 251.76 246.75 251.75 C 246.74 253.93 246.75 256.11 246.78 258.29 C 251.27 258.27 255.77 258.26 260.26 258.30 C 260.23 259.61 260.20 260.92 260.18 262.24 C 254.27 262.25 248.37 262.23 242.47 262.26 C 242.41 254.43 242.16 246.58 242.63 238.75 Z" />
<path fill="#073190" opacity="1.00" d=" M 76.67 238.58 C 78.13 238.92 80.11 238.16 81.14 239.57 C 81.54 244.69 80.82 249.85 81.47 254.96 C 82.96 259.86 91.39 259.84 92.56 254.72 C 93.05 249.40 92.62 244.04 92.76 238.71 C 94.30 238.72 95.84 238.73 97.38 238.74 C 97.28 244.19 97.66 249.67 97.21 255.11 C 96.12 261.41 88.38 264.17 82.88 261.96 C 79.53 260.81 76.82 257.72 76.71 254.09 C 76.52 248.92 76.71 243.75 76.67 238.58 Z" />
<path fill="#073190" opacity="1.00" d=" M 108.37 239.47 C 115.84 235.54 126.95 240.07 127.67 248.95 C 128.94 256.28 122.07 262.88 114.99 262.82 C 108.37 263.19 101.52 257.83 101.48 250.96 C 101.03 246.13 104.16 241.58 108.37 239.47 M 111.40 242.57 C 108.21 243.67 106.08 246.86 105.73 250.14 C 105.72 254.93 110.06 259.30 114.96 258.79 C 120.67 259.03 125.34 252.33 122.69 247.12 C 120.86 242.83 115.67 241.10 111.40 242.57 Z" />
<path fill="#073190" opacity="1.00" d=" M 132.43 239.64 C 132.79 239.45 133.51 239.07 133.87 238.88 C 139.42 238.45 145.00 238.85 150.57 238.72 C 150.57 239.66 150.58 241.53 150.58 242.47 C 145.95 242.47 141.31 242.45 136.68 242.52 C 136.67 244.54 136.67 246.57 136.67 248.61 C 140.71 248.67 144.76 248.67 148.82 248.63 C 148.99 249.85 149.16 251.07 149.33 252.30 C 145.11 252.33 140.89 252.30 136.67 252.38 C 136.69 255.66 136.68 258.95 136.60 262.24 C 135.53 262.25 133.39 262.26 132.32 262.27 C 132.26 254.73 131.95 247.16 132.43 239.64 Z" />
<path fill="#073190" opacity="1.00" d=" M 209.77 238.74 C 211.33 238.73 212.89 238.72 214.45 238.71 C 214.47 246.49 214.46 254.26 214.46 262.03 C 212.89 261.91 210.56 263.16 209.92 261.08 C 209.53 253.65 209.90 246.19 209.77 238.74 Z" />
<path fill="#073190" opacity="1.00" d=" M 219.77 252.98 C 219.90 248.22 219.30 243.37 220.61 238.72 C 226.32 238.71 232.03 238.75 237.75 238.68 C 237.76 239.95 237.80 241.23 237.84 242.51 C 233.40 242.45 228.97 242.46 224.54 242.48 C 224.53 244.53 224.52 246.59 224.52 248.65 C 228.51 248.65 232.51 248.65 236.51 248.67 C 236.50 249.58 236.49 251.41 236.49 252.32 C 232.50 252.32 228.51 252.32 224.53 252.32 C 224.53 255.47 224.53 258.62 224.55 261.78 C 223.15 262.01 221.76 262.24 220.37 262.48 C 219.86 259.34 219.68 256.16 219.77 252.98 Z" />
</g>
<g id="#e50012ff">
<path fill="#e50012" opacity="1.00" d=" M 179.13 46.03 C 185.04 43.62 191.94 44.15 197.28 47.72 C 202.45 51.17 208.69 53.24 212.90 57.98 C 209.01 61.28 204.34 63.42 199.99 66.02 C 184.55 74.96 168.98 83.65 153.67 92.79 C 153.72 104.24 153.66 115.69 153.70 127.14 C 155.46 126.49 157.19 125.76 158.82 124.81 C 167.32 119.88 175.83 114.96 184.39 110.12 C 184.45 102.68 184.40 95.24 184.43 87.81 C 191.95 83.55 199.37 79.10 206.90 74.86 C 208.89 73.52 211.02 74.74 212.48 76.22 C 212.22 90.44 212.85 104.68 212.15 118.89 C 210.97 121.68 210.07 124.70 208.03 127.01 C 205.38 130.20 201.55 132.00 198.04 134.06 C 182.75 142.88 167.48 151.76 152.10 160.44 C 150.41 160.43 148.71 160.41 147.02 160.38 C 140.62 156.13 132.30 153.72 128.44 146.55 C 125.66 142.22 126.35 136.90 126.28 132.01 C 126.40 113.37 126.05 94.71 126.45 76.07 C 144.20 66.41 161.55 56.01 179.13 46.03 Z" />
</g>
</svg>
