<?xml version="1.0" encoding="UTF-8" ?>
<!DOCTYPE svg PUBLIC "-//W3C//DTD SVG 1.1//EN" "http://www.w3.org/Graphics/SVG/1.1/DTD/svg11.dtd">
<svg width="300pt" height="300pt" viewBox="0 0 300 300" version="1.1" xmlns="http://www.w3.org/2000/svg">
<g id="#fefefeff">
<path fill="#fefefe" opacity="1.00" d=" M 164.54 240.24 C 164.93 240.39 165.72 240.70 166.11 240.86 C 166.25 241.26 166.53 242.06 166.66 242.46 C 166.05 242.55 164.82 242.72 164.21 242.81 C 164.29 242.17 164.46 240.88 164.54 240.24 Z" />
</g>
<g id="#c6172cff">
<path fill="#c6172c" opacity="1.00" d=" M 119.07 47.77 C 134.04 47.29 149.04 45.87 164.01 47.23 C 175.18 47.56 186.38 48.12 197.46 49.61 C 200.58 49.88 201.80 53.21 202.01 55.90 C 203.01 65.46 203.84 75.05 203.81 84.68 C 171.86 84.51 139.91 84.56 107.97 84.41 C 103.09 84.32 98.21 84.73 93.38 85.42 C 93.34 79.13 93.38 72.80 94.25 66.56 C 94.67 61.89 94.50 57.12 95.78 52.56 C 96.17 51.15 97.60 50.41 98.84 49.87 C 105.47 48.27 112.35 48.71 119.07 47.77 Z" />
<path fill="#c6172c" opacity="1.00" d=" M 92.66 98.57 C 92.64 95.51 92.65 92.45 92.72 89.39 C 98.76 90.51 104.92 90.68 110.99 89.74 C 122.52 89.51 134.06 89.81 145.59 89.54 C 146.19 92.49 146.41 95.49 146.43 98.50 C 128.51 98.65 110.59 98.34 92.66 98.57 Z" />
<path fill="#c6172c" opacity="1.00" d=" M 151.38 89.58 C 169.03 89.63 186.68 89.56 204.33 89.52 C 204.37 92.55 204.40 95.59 204.42 98.63 C 186.70 98.70 168.99 98.58 151.27 98.59 C 151.28 95.58 151.32 92.58 151.38 89.58 Z" />
<path fill="#c6172c" opacity="1.00" d=" M 92.69 112.54 C 92.64 109.52 92.64 106.49 92.68 103.47 C 110.53 103.81 128.42 103.12 146.24 103.76 C 146.52 106.67 146.38 109.59 146.39 112.51 C 128.49 112.65 110.59 112.39 92.69 112.54 Z" />
<path fill="#c6172c" opacity="1.00" d=" M 151.29 103.47 C 168.99 103.48 186.70 103.31 204.40 103.44 C 204.42 106.48 204.40 109.52 204.36 112.56 C 199.69 112.41 194.86 113.19 190.29 112.22 C 187.84 109.35 185.43 105.06 180.99 105.62 C 176.98 106.10 175.19 110.05 172.53 112.51 C 165.45 112.76 158.35 112.52 151.26 112.56 C 151.18 109.53 151.21 106.50 151.29 103.47 Z" />
<path fill="#c6172c" opacity="1.00" d=" M 93.21 117.30 C 119.40 117.55 145.59 117.18 171.77 117.33 C 172.98 120.83 174.21 125.01 178.10 126.36 C 181.25 126.82 185.21 127.31 187.62 124.76 C 189.80 122.82 190.53 119.89 191.57 117.28 C 195.66 117.25 199.76 117.23 203.85 117.27 C 203.70 123.87 203.78 130.48 203.21 137.05 C 202.26 142.59 202.79 148.36 201.05 153.76 C 200.49 156.10 197.67 156.03 195.77 156.47 C 185.43 157.73 175.05 158.59 164.64 158.76 C 149.46 160.06 134.25 158.75 119.07 158.32 C 112.33 157.27 105.43 157.52 98.76 155.98 C 96.48 155.52 95.51 153.18 95.41 151.08 C 93.97 139.88 93.27 128.59 93.21 117.30 Z" />
</g>
<g id="#010101ff">
<path fill="#010101" opacity="1.00" d=" M 37.66 180.46 C 52.71 180.32 67.75 180.42 82.79 180.40 C 84.74 180.22 86.94 181.81 86.57 183.92 C 86.57 196.72 86.66 209.53 86.51 222.33 C 70.70 222.24 54.88 222.43 39.07 222.23 C 38.73 221.94 38.06 221.35 37.73 221.05 C 37.58 207.52 37.72 193.99 37.66 180.46 M 43.58 185.58 C 43.59 195.85 43.55 206.13 43.58 216.41 C 55.73 216.51 67.89 216.48 80.04 216.43 L 80.61 215.80 C 80.84 205.71 80.64 195.60 80.57 185.51 C 68.24 185.55 55.91 185.42 43.58 185.58 Z" />
<path fill="#010101" opacity="1.00" d=" M 107.39 180.39 C 109.49 180.37 111.59 180.40 113.69 180.47 C 112.69 182.81 111.39 185.00 110.48 187.38 C 109.86 193.42 111.05 199.58 109.81 205.57 C 108.01 205.56 106.20 205.55 104.40 205.55 C 104.32 202.03 104.37 198.51 104.36 194.99 C 102.12 196.15 99.99 197.50 97.74 198.64 C 97.83 195.88 96.96 192.45 99.49 190.48 C 102.78 187.66 105.47 184.27 107.39 180.39 Z" />
<path fill="#010101" opacity="1.00" d=" M 123.46 180.37 C 125.40 180.40 127.33 180.45 129.27 180.54 C 129.44 183.38 129.42 186.23 129.53 189.08 C 134.33 187.20 138.66 184.40 142.78 181.34 C 143.61 182.91 144.37 184.53 144.99 186.21 C 140.36 189.98 134.94 192.57 129.42 194.77 C 129.40 196.08 129.39 197.39 129.38 198.70 C 135.05 198.88 140.80 198.20 146.36 199.65 C 146.44 200.66 146.60 202.69 146.67 203.70 C 139.61 204.96 132.37 204.05 125.23 204.28 C 125.28 205.41 125.32 206.54 125.37 207.67 C 133.07 208.06 140.92 206.82 148.50 208.63 C 148.53 210.19 148.55 211.74 148.57 213.30 C 140.84 213.38 133.11 213.28 125.38 213.31 C 125.39 216.10 125.41 218.89 125.46 221.69 C 123.51 222.10 121.54 222.34 119.55 222.47 C 119.44 219.45 119.47 216.43 119.50 213.42 C 112.45 213.19 105.40 213.38 98.35 213.32 C 98.34 211.43 98.36 209.55 98.40 207.67 C 105.41 207.74 112.43 207.71 119.45 207.67 C 119.45 206.55 119.45 205.44 119.45 204.33 C 120.81 204.03 122.18 203.74 123.56 203.48 C 123.48 201.09 123.45 198.71 123.42 196.33 C 120.11 196.55 116.85 197.20 113.56 197.59 C 113.45 195.92 113.38 194.26 113.31 192.60 C 116.64 192.13 120.15 192.01 123.28 190.72 C 123.69 187.29 123.40 183.82 123.46 180.37 Z" />
<path fill="#010101" opacity="1.00" d=" M 174.51 180.35 C 176.46 180.39 178.41 180.47 180.36 180.60 C 180.80 185.33 179.98 190.33 182.35 194.68 C 187.24 204.41 195.45 212.03 203.93 218.65 C 201.78 219.88 199.40 222.78 196.76 221.36 C 190.17 214.37 183.47 207.43 177.85 199.60 C 174.60 204.11 172.03 209.14 168.04 213.07 C 165.04 216.07 162.18 219.29 158.71 221.76 C 156.18 222.12 154.37 219.82 152.30 218.79 C 158.67 214.03 165.20 209.09 169.27 202.08 C 173.24 195.60 174.87 187.90 174.51 180.35 Z" />
<path fill="#010101" opacity="1.00" d=" M 225.51 182.46 C 226.71 181.79 227.80 180.93 229.02 180.30 C 231.77 179.65 233.45 182.75 236.11 182.55 C 242.74 182.62 249.38 182.47 256.02 182.57 C 257.58 182.48 258.56 183.98 259.76 184.74 C 259.47 185.46 258.87 186.92 258.57 187.64 C 249.88 187.47 241.19 187.56 232.49 187.58 C 232.49 188.52 232.48 189.46 232.48 190.41 C 241.02 190.38 249.56 190.33 258.10 190.45 C 258.66 191.81 259.22 193.17 259.78 194.54 C 258.23 194.99 256.67 195.45 255.04 195.37 C 246.88 195.38 238.72 195.30 230.57 195.39 C 230.56 196.05 230.54 197.37 230.53 198.03 C 239.75 198.58 249.01 197.95 258.24 198.36 C 258.74 199.72 259.24 201.08 259.75 202.45 C 257.39 203.38 254.86 203.45 252.36 203.47 C 252.38 204.19 252.41 205.65 252.43 206.37 C 254.35 206.40 256.26 206.45 258.18 206.52 C 258.72 207.91 259.26 209.30 259.79 210.71 C 257.46 211.76 254.89 211.52 252.41 211.53 C 252.39 215.16 252.42 218.78 252.39 222.41 C 244.45 222.51 236.51 222.51 228.58 222.41 C 228.55 219.09 228.58 215.76 228.60 212.43 C 230.16 212.45 231.72 212.47 233.29 212.49 C 234.13 214.12 233.97 216.76 236.18 217.19 C 239.66 217.52 243.23 217.48 246.63 216.51 C 246.40 214.85 246.68 213.07 245.98 211.51 C 238.44 211.43 230.90 211.60 223.36 211.50 C 221.03 214.14 218.99 217.09 216.30 219.38 C 213.85 220.05 211.67 218.23 209.51 217.42 C 211.51 215.64 213.56 213.90 215.57 212.12 C 214.53 211.55 213.50 210.97 212.48 210.38 C 212.56 209.06 212.63 207.74 212.70 206.42 C 215.27 206.41 217.85 206.42 220.42 206.30 C 220.54 205.56 220.79 204.06 220.92 203.31 C 217.11 203.40 213.30 203.41 209.49 203.41 C 209.44 201.67 209.41 199.94 209.40 198.21 C 214.47 198.17 219.59 198.62 224.60 197.61 C 224.63 197.04 224.67 195.91 224.69 195.34 C 219.83 195.29 214.97 195.47 210.12 195.30 C 208.74 194.17 209.63 191.98 209.28 190.41 C 214.81 190.28 220.34 190.54 225.86 190.31 C 226.14 189.65 226.70 188.32 226.97 187.66 C 221.13 187.39 215.27 187.66 209.43 187.52 C 209.44 185.86 209.46 184.20 209.49 182.54 C 214.83 182.45 220.18 182.74 225.51 182.46 M 227.61 203.48 C 227.54 204.22 227.41 205.69 227.34 206.43 C 233.71 206.35 240.07 206.43 246.44 206.40 C 246.44 205.64 246.43 204.13 246.42 203.38 C 240.15 203.40 233.88 203.28 227.61 203.48 Z" />
<path fill="#010101" opacity="1.00" d=" M 46.50 188.40 C 56.85 188.35 67.20 188.32 77.55 188.41 C 77.97 190.14 79.72 192.62 77.00 193.24 C 72.76 193.50 68.51 193.23 64.27 193.40 C 64.49 195.04 64.00 196.91 64.92 198.38 C 69.16 198.49 73.40 198.32 77.64 198.47 C 78.03 200.07 78.36 201.69 78.65 203.33 C 73.91 203.52 69.16 203.48 64.42 203.50 C 64.38 205.20 64.36 206.90 64.34 208.60 C 66.75 208.63 69.17 208.66 71.58 208.75 C 72.36 207.59 73.13 206.43 73.91 205.27 C 75.42 205.68 76.98 206.02 78.32 206.89 C 78.47 209.09 78.40 211.30 78.39 213.51 C 67.76 213.71 57.13 213.56 46.49 213.59 C 46.48 212.51 46.46 210.33 46.45 209.24 C 50.37 208.16 54.46 208.84 58.47 208.58 C 58.46 206.89 58.45 205.20 58.43 203.51 C 54.50 203.17 50.34 204.13 46.56 203.05 C 46.47 201.52 46.40 200.00 46.38 198.47 C 50.38 198.33 54.38 198.41 58.38 198.42 C 58.43 196.74 58.48 195.06 58.52 193.39 C 54.49 193.14 50.37 193.81 46.43 192.74 C 46.44 191.65 46.48 189.49 46.50 188.40 Z" />
<path fill="#010101" opacity="1.00" d=" M 74.48 240.00 C 76.91 235.04 83.96 234.23 88.43 236.24 C 88.44 236.79 88.46 237.87 88.47 238.42 C 85.30 238.88 81.26 237.18 78.82 239.96 C 77.05 241.14 77.29 243.85 78.61 245.30 C 80.59 247.48 83.85 246.65 86.40 246.31 C 84.79 245.05 83.08 243.94 81.39 242.79 C 83.49 241.27 86.06 241.42 88.51 241.43 C 89.38 244.06 89.35 246.80 88.50 249.44 C 84.26 249.40 78.83 250.99 75.75 247.11 C 73.74 245.36 74.19 242.36 74.48 240.00 Z" />
<path fill="#010101" opacity="1.00" d=" M 112.64 235.69 C 116.50 234.69 121.81 235.35 123.51 239.49 C 125.89 243.61 122.54 249.82 117.65 249.70 C 114.82 249.82 111.40 250.12 109.48 247.58 C 105.68 243.95 107.80 237.20 112.64 235.69 M 111.53 240.57 C 111.29 242.11 111.43 243.66 111.46 245.21 C 113.00 246.04 114.55 246.85 116.10 247.66 C 117.54 246.76 119.11 246.01 120.29 244.78 C 120.81 242.49 120.48 239.91 118.35 238.55 C 115.89 237.96 112.92 238.12 111.53 240.57 Z" />
<path fill="#010101" opacity="1.00" d=" M 126.31 235.52 C 127.35 235.43 128.40 235.35 129.45 235.26 C 129.71 237.07 130.03 238.86 130.37 240.66 C 132.43 240.62 134.49 240.58 136.55 240.53 C 136.53 238.83 136.52 237.14 136.51 235.45 C 137.47 235.45 139.39 235.44 140.35 235.44 C 140.38 240.12 140.34 244.81 140.40 249.49 C 139.11 249.51 137.82 249.52 136.53 249.53 C 136.52 247.55 136.50 245.57 136.45 243.60 C 134.46 243.59 132.48 243.57 130.49 243.54 C 130.08 245.65 129.69 247.77 129.34 249.90 C 128.62 249.76 127.19 249.47 126.48 249.32 C 126.25 244.72 126.52 240.11 126.31 235.52 Z" />
<path fill="#010101" opacity="1.00" d=" M 153.48 235.37 C 154.76 235.39 156.05 235.41 157.33 235.44 C 157.24 240.16 158.49 246.71 153.44 249.35 C 150.27 249.83 145.67 250.37 144.19 246.70 C 142.84 243.11 143.77 239.10 143.53 235.34 C 144.47 235.37 146.36 235.43 147.30 235.47 C 147.26 239.14 147.20 242.83 147.53 246.50 C 149.28 246.58 151.04 246.60 152.80 246.58 C 154.01 242.96 153.44 239.10 153.48 235.37 Z" />
<path fill="#010101" opacity="1.00" d=" M 163.46 235.37 C 164.69 235.40 165.93 235.44 167.16 235.48 C 169.08 240.16 171.28 244.71 173.06 249.44 C 171.89 249.51 170.72 249.59 169.55 249.66 C 168.75 248.26 167.96 246.87 167.17 245.48 C 165.42 245.79 162.92 244.99 162.24 247.22 C 161.48 249.47 159.52 249.84 157.37 249.66 C 159.32 244.86 161.33 240.09 163.46 235.37 M 164.54 240.24 C 164.46 240.88 164.29 242.17 164.21 242.81 C 164.82 242.72 166.05 242.55 166.66 242.46 C 166.53 242.06 166.25 241.26 166.11 240.86 C 165.72 240.70 164.93 240.39 164.54 240.24 Z" />
<path fill="#010101" opacity="1.00" d=" M 200.37 235.40 C 204.02 235.86 208.62 234.01 211.39 237.16 C 208.49 238.22 204.88 237.68 202.64 240.13 C 205.02 240.66 207.41 241.10 209.82 241.49 C 209.81 242.03 209.79 243.11 209.78 243.65 C 207.72 243.90 205.18 243.05 203.67 244.89 C 203.56 246.46 203.57 248.03 203.55 249.61 C 202.49 249.59 201.42 249.57 200.36 249.56 C 200.34 244.84 200.35 240.12 200.37 235.40 Z" />
<path fill="#010101" opacity="1.00" d=" M 212.49 235.45 C 215.87 235.39 219.26 235.39 222.65 235.38 C 222.62 236.12 222.57 237.60 222.55 238.34 C 220.44 238.32 218.33 238.30 216.23 238.30 C 216.21 238.86 216.17 239.96 216.15 240.51 C 218.59 240.59 221.01 241.02 223.32 241.86 C 221.71 244.22 218.76 243.50 216.34 243.65 C 216.28 244.37 216.16 245.83 216.10 246.55 C 218.75 246.53 221.43 246.62 223.91 247.68 C 223.55 248.16 222.85 249.13 222.50 249.62 C 219.15 249.58 215.81 249.57 212.47 249.52 C 212.49 244.83 212.49 240.14 212.49 235.45 Z" />
<path fill="#010101" opacity="1.00" d=" M 91.95 235.98 C 92.82 235.80 94.55 235.45 95.41 235.27 C 95.52 239.01 95.39 242.77 95.69 246.51 C 97.61 246.64 99.54 246.65 101.46 246.55 C 101.77 242.88 101.68 239.19 101.66 235.51 C 102.60 235.50 104.49 235.49 105.44 235.48 C 105.03 239.64 106.49 244.37 104.00 248.07 C 101.40 250.56 97.33 249.76 94.14 249.19 C 90.96 245.66 91.40 240.33 91.95 235.98 Z" />
<path fill="#010101" opacity="1.00" d=" M 180.43 235.43 C 181.24 235.42 182.87 235.38 183.68 235.37 C 183.70 239.08 183.70 242.80 183.66 246.52 C 185.98 246.61 188.29 246.63 190.61 246.63 C 190.64 247.37 190.69 248.86 190.72 249.60 C 187.28 249.59 183.85 249.58 180.42 249.52 C 180.46 244.82 180.44 240.13 180.43 235.43 Z" />
<path fill="#010101" opacity="1.00" d=" M 193.36 235.42 C 194.17 235.41 195.80 235.40 196.62 235.40 C 196.62 240.12 196.61 244.85 196.62 249.58 C 195.81 249.57 194.19 249.56 193.38 249.55 C 193.35 244.84 193.37 240.13 193.36 235.42 Z" />
</g>
</svg>
