<?xml version="1.0" encoding="UTF-8" ?>
<!DOCTYPE svg PUBLIC "-//W3C//DTD SVG 1.1//EN" "http://www.w3.org/Graphics/SVG/1.1/DTD/svg11.dtd">
<svg width="300pt" height="300pt" viewBox="0 0 300 300" version="1.1" xmlns="http://www.w3.org/2000/svg">
<g id="#fefffeff">
<path fill="#fefffe" opacity="1.00" d=" M 0.00 0.00 L 300.00 0.00 L 300.00 300.00 L 0.00 300.00 L 0.00 0.00 M 132.24 32.40 C 132.14 69.93 132.22 107.47 132.20 145.00 C 132.50 152.16 131.23 159.27 131.67 166.43 C 143.20 166.57 154.78 166.90 166.29 166.30 C 166.73 162.21 166.49 158.10 166.53 154.00 C 166.52 119.00 166.53 84.00 166.52 49.00 C 166.51 43.48 166.66 37.95 166.31 32.44 C 154.95 32.57 143.59 32.58 132.24 32.40 M 39.37 32.51 C 39.23 77.22 39.28 121.93 39.34 166.63 C 49.23 166.58 59.12 166.55 69.01 166.64 C 70.54 166.50 72.24 166.90 73.62 166.06 C 73.79 149.62 73.62 133.17 73.69 116.73 C 88.89 116.65 104.10 116.86 119.30 116.62 C 118.34 105.26 119.17 93.84 118.85 82.46 C 103.79 82.25 88.74 82.45 73.69 82.35 C 73.59 65.77 73.84 49.19 73.57 32.61 C 62.19 33.43 50.74 33.29 39.37 32.51 M 224.36 33.19 C 213.93 47.45 203.88 62.00 193.63 76.40 C 188.75 84.48 181.92 91.31 178.00 99.96 C 187.46 114.10 197.74 127.68 207.23 141.80 C 212.31 150.36 219.28 157.64 224.04 166.40 C 237.05 166.73 250.08 166.59 263.10 166.49 C 261.31 163.46 259.36 160.52 257.21 157.73 C 249.64 147.95 242.82 137.64 235.49 127.68 C 228.70 118.55 222.88 108.73 215.86 99.77 C 217.34 97.31 218.91 94.89 220.63 92.59 C 228.51 82.40 235.03 71.23 243.20 61.25 C 249.61 51.93 256.72 43.04 262.24 33.13 C 249.62 33.12 236.99 33.00 224.36 33.19 M 151.86 177.63 C 150.75 182.34 151.47 187.21 151.28 191.99 C 151.51 202.84 150.80 213.73 151.69 224.54 C 152.34 223.15 152.57 221.63 152.53 220.11 C 152.53 207.71 152.49 195.31 152.54 182.90 C 152.59 181.12 152.39 179.34 151.86 177.63 M 87.75 178.69 C 87.50 193.93 87.27 209.23 87.89 224.45 C 88.53 223.08 89.46 221.72 89.34 220.14 C 89.36 207.41 89.28 194.68 89.33 181.96 C 89.56 180.58 88.94 179.38 87.75 178.69 M 212.37 179.20 C 212.31 194.07 212.28 208.93 212.39 223.79 C 212.66 223.77 213.22 223.73 213.50 223.72 C 213.67 208.86 213.47 194.01 213.61 179.16 C 213.30 179.17 212.68 179.19 212.37 179.20 M 116.47 183.63 C 111.77 183.78 107.07 183.57 102.37 183.72 C 102.29 191.83 102.53 199.95 102.33 208.06 C 102.18 212.65 99.14 216.61 99.39 221.21 C 101.98 219.30 104.67 217.14 105.81 214.01 C 107.79 209.53 107.54 204.55 107.64 199.77 C 111.69 199.66 115.73 199.72 119.78 199.71 C 119.73 200.43 119.62 201.87 119.57 202.59 C 116.17 202.60 112.77 202.57 109.38 202.61 C 109.70 206.22 110.39 209.83 111.93 213.12 C 110.45 213.91 108.55 214.18 107.44 215.51 C 107.28 216.65 107.18 217.80 107.14 218.96 C 110.44 218.44 113.50 217.01 116.39 215.39 C 117.57 214.55 119.04 213.66 119.00 212.02 C 119.07 209.70 116.76 210.75 115.32 210.68 C 114.75 208.38 112.86 207.22 110.80 206.36 C 113.77 206.36 116.73 206.25 119.69 206.24 C 119.70 209.69 119.74 213.14 119.64 216.59 C 117.90 217.58 116.23 218.72 114.87 220.21 C 117.34 220.78 119.91 220.97 122.41 220.49 C 125.49 219.39 124.32 215.66 124.75 213.18 C 129.45 215.82 134.08 219.86 139.79 219.54 C 138.74 216.21 135.23 215.28 132.58 213.56 C 133.45 211.89 134.93 210.27 134.55 208.25 C 133.95 205.33 135.69 202.80 136.41 200.09 C 137.48 199.84 138.55 199.61 139.63 199.40 C 139.64 198.44 139.65 197.48 139.67 196.53 C 138.35 196.46 137.03 196.39 135.71 196.33 C 135.73 194.35 135.80 192.37 135.89 190.40 C 132.75 190.34 129.60 190.57 126.48 190.26 C 124.76 189.43 123.27 188.02 121.30 187.83 C 120.36 188.53 119.57 189.38 118.92 190.38 C 115.94 190.43 112.96 190.32 109.98 190.48 C 109.33 191.50 109.34 192.51 110.01 193.52 C 113.26 193.71 116.52 193.56 119.77 193.64 C 119.76 194.35 119.74 195.76 119.73 196.47 C 115.68 196.44 111.63 196.50 107.58 196.45 C 107.54 193.47 107.55 190.48 107.54 187.49 C 117.88 187.54 128.21 187.38 138.54 187.52 C 138.64 186.25 138.72 184.97 138.79 183.69 C 134.87 183.54 130.96 183.69 127.04 183.63 C 124.53 183.95 123.51 180.45 121.04 180.71 C 118.98 180.52 117.89 182.54 116.47 183.63 M 178.46 181.32 C 177.53 186.84 178.08 192.64 175.93 197.93 C 173.17 204.86 168.68 211.19 162.64 215.63 C 160.54 216.63 161.51 219.21 161.40 221.03 C 169.54 216.05 177.35 209.55 180.84 200.38 C 181.11 200.46 181.65 200.64 181.92 200.73 C 184.98 209.93 193.09 216.44 201.39 220.83 C 201.34 219.89 201.24 218.01 201.20 217.07 C 198.69 214.50 195.82 212.29 193.45 209.57 C 188.96 204.85 186.13 198.76 184.69 192.45 C 184.09 188.80 184.33 185.08 184.03 181.40 C 182.17 181.38 180.31 181.36 178.46 181.32 M 238.35 183.42 C 233.44 183.70 228.51 183.33 223.59 183.61 C 223.64 184.91 223.69 186.21 223.76 187.52 C 228.21 187.50 232.68 187.30 237.13 187.61 C 237.64 187.97 238.67 188.68 239.19 189.04 C 235.33 191.61 230.55 190.07 226.23 190.52 C 226.40 191.82 226.49 193.14 226.83 194.42 C 230.25 194.49 233.68 194.27 237.10 194.66 C 236.56 195.33 235.49 196.69 234.96 197.37 C 230.90 197.65 226.84 197.39 222.78 197.53 C 222.68 198.94 222.47 200.47 223.80 201.43 C 227.01 201.57 230.23 201.41 233.45 201.47 C 232.25 203.83 230.98 206.19 229.14 208.11 C 226.55 211.06 222.33 213.45 223.23 218.03 C 226.80 215.77 230.02 213.03 232.97 210.01 C 234.95 207.66 238.32 208.99 240.97 208.66 C 244.40 208.99 248.09 208.01 251.35 209.07 C 251.52 211.49 251.42 213.93 251.44 216.36 C 249.82 216.63 248.02 216.24 246.54 217.07 C 246.46 217.91 246.30 219.59 246.22 220.43 C 249.67 220.59 253.20 220.68 256.41 219.19 C 256.74 215.69 256.70 212.18 256.67 208.68 C 258.92 208.62 261.18 208.60 263.43 208.60 C 263.44 207.79 263.46 206.17 263.47 205.36 C 261.25 205.32 259.03 205.30 256.81 205.31 C 256.71 204.06 256.62 202.81 256.54 201.56 C 258.96 201.48 261.41 201.38 263.70 200.52 C 263.50 199.74 263.10 198.19 262.89 197.42 C 256.92 197.45 250.95 197.43 244.99 197.46 C 243.38 197.56 241.95 197.08 240.70 196.03 C 241.35 195.63 242.64 194.85 243.29 194.45 C 248.68 194.21 254.09 194.45 259.48 194.38 C 259.51 193.40 259.58 191.44 259.61 190.47 C 254.50 190.48 249.39 190.46 244.29 190.53 C 244.31 189.51 244.32 188.49 244.34 187.47 C 249.91 187.41 255.49 187.58 261.06 187.38 C 262.52 186.35 263.06 184.45 261.17 183.53 C 255.98 183.39 250.78 183.45 245.59 183.59 C 245.54 182.82 245.42 181.28 245.36 180.50 C 243.90 180.51 242.45 180.56 241.00 180.66 C 240.07 181.54 239.29 182.55 238.35 183.42 M 60.77 182.38 C 60.51 192.09 58.55 201.68 55.85 210.98 C 55.23 213.19 55.19 215.50 55.07 217.78 C 60.54 217.95 66.03 217.87 71.48 217.28 C 72.06 220.58 75.19 220.81 77.75 219.58 C 76.46 213.08 75.19 206.56 73.47 200.16 C 72.03 200.20 70.59 200.23 69.16 200.30 C 69.87 204.65 70.83 208.96 71.64 213.30 C 67.79 213.91 63.95 214.62 60.04 214.52 C 62.76 203.93 66.00 193.36 66.75 182.39 C 64.75 182.34 62.76 182.35 60.77 182.38 M 38.32 183.20 C 38.31 184.35 38.31 185.49 38.30 186.64 C 41.62 186.61 44.93 186.61 48.25 186.59 C 48.27 188.56 48.30 190.53 48.30 192.51 C 45.07 192.66 41.84 192.68 38.62 192.46 C 38.52 196.26 38.29 200.08 38.72 203.87 C 40.33 207.36 44.49 206.22 47.55 206.49 C 47.34 209.66 47.52 212.84 47.29 216.02 C 46.08 218.29 43.35 217.24 41.29 217.48 C 41.30 218.55 41.31 219.62 41.31 220.69 C 44.11 220.68 46.93 220.77 49.73 220.57 C 51.30 220.74 51.94 219.18 52.49 218.02 C 52.85 212.88 52.61 207.71 52.61 202.55 C 50.03 202.58 47.44 202.64 44.86 202.47 C 43.25 201.13 42.93 198.08 44.17 196.53 C 47.35 196.26 51.29 197.10 53.33 193.94 C 53.80 190.44 53.49 186.90 53.61 183.38 C 48.57 182.52 43.38 182.52 38.32 183.20 M 236.21 210.49 C 237.06 212.80 238.00 215.09 238.83 217.41 C 240.52 217.40 242.21 217.37 243.91 217.33 C 243.20 215.01 242.41 212.66 241.00 210.66 C 239.40 210.50 237.81 210.44 236.21 210.49 M 62.82 239.02 C 56.41 241.54 56.70 252.66 63.40 254.61 C 65.96 254.80 69.21 255.31 71.02 253.03 C 73.23 250.12 74.29 245.96 72.31 242.64 C 70.94 238.91 66.29 237.42 62.82 239.02 M 79.79 238.66 C 79.72 244.09 79.54 249.54 79.92 254.97 C 84.78 252.62 80.55 246.89 82.29 242.98 C 85.03 246.61 87.54 250.41 89.87 254.32 C 90.73 254.41 91.59 254.51 92.46 254.62 C 92.41 249.64 92.75 244.65 92.36 239.69 C 91.98 239.21 91.22 238.24 90.83 237.76 C 90.00 241.94 90.55 246.22 90.30 250.45 C 87.08 246.90 84.80 242.65 82.08 238.74 C 81.32 238.71 80.55 238.68 79.79 238.66 M 104.41 254.58 C 107.45 254.91 110.47 254.00 113.51 254.24 C 113.48 251.57 113.48 248.91 113.48 246.25 C 110.83 246.22 108.12 246.04 105.59 246.99 C 107.66 247.69 109.80 248.14 111.92 248.64 C 111.27 249.89 110.63 251.15 110.00 252.42 C 108.05 252.52 106.07 252.85 104.13 252.44 C 102.03 250.99 101.11 248.48 101.38 245.99 C 101.12 242.51 104.83 239.03 108.27 240.48 C 109.92 241.60 111.38 242.97 112.98 244.16 C 112.82 242.97 112.59 241.80 112.30 240.65 C 110.42 238.24 107.12 238.15 104.34 238.56 C 97.32 240.63 97.40 252.55 104.41 254.58 M 122.89 245.94 C 122.75 243.18 122.78 240.41 122.20 237.70 C 121.81 238.24 121.04 239.31 120.66 239.84 C 120.43 244.28 120.51 248.75 120.67 253.19 C 121.03 253.74 121.75 254.84 122.11 255.38 C 122.66 252.83 123.04 250.24 123.50 247.67 C 124.10 247.56 125.31 247.32 125.92 247.21 C 127.86 249.78 129.24 252.97 132.04 254.75 L 132.90 254.25 C 131.96 250.64 128.85 248.13 127.02 244.97 C 129.18 242.86 131.48 240.85 133.10 238.27 C 128.64 238.96 126.30 243.43 122.89 245.94 M 143.74 238.58 C 141.50 243.86 139.26 249.18 137.84 254.75 C 140.50 254.46 140.82 251.51 141.83 249.57 C 143.72 249.54 145.61 249.51 147.50 249.47 C 148.64 251.54 149.28 254.36 152.05 254.75 C 150.53 249.12 148.10 243.78 145.81 238.44 C 145.29 238.47 144.26 238.54 143.74 238.58 M 168.25 238.34 C 168.20 242.31 168.31 246.29 168.06 250.26 C 164.73 246.27 162.39 241.55 158.84 237.72 C 156.80 242.47 157.86 247.78 157.74 252.80 C 158.18 253.27 159.08 254.22 159.52 254.69 C 159.85 250.61 159.57 246.52 159.81 242.44 C 163.33 246.19 165.04 251.33 168.91 254.78 C 169.26 254.51 169.95 253.98 170.30 253.71 C 170.61 248.73 170.33 243.73 170.41 238.74 C 169.87 238.64 168.79 238.44 168.25 238.34 M 178.37 241.22 C 175.27 245.58 176.98 252.85 182.33 254.43 C 185.50 255.46 188.50 252.35 191.54 254.14 C 191.40 251.50 191.43 248.86 191.48 246.23 C 188.88 245.68 186.22 245.62 183.59 245.98 C 185.30 247.71 187.74 248.04 189.94 248.78 C 188.47 250.64 186.78 253.17 184.02 252.58 C 177.51 252.26 177.57 240.25 184.07 240.11 C 187.05 239.52 188.59 242.69 190.77 244.10 C 191.80 237.35 181.19 236.27 178.37 241.22 M 208.59 238.53 C 208.61 243.72 208.69 248.90 208.57 254.09 C 212.12 253.73 217.23 255.99 219.52 252.47 C 216.73 251.63 212.65 253.71 210.80 250.94 C 210.61 246.76 210.84 242.57 210.69 238.39 C 210.16 238.43 209.12 238.49 208.59 238.53 M 225.27 238.34 C 225.21 243.47 225.24 248.60 225.27 253.73 C 225.81 253.73 226.90 253.74 227.45 253.74 C 227.38 248.66 227.38 243.57 227.39 238.49 C 226.86 238.45 225.80 238.38 225.27 238.34 M 37.73 239.37 C 37.82 244.36 37.76 249.35 37.76 254.34 C 38.62 254.40 39.47 254.46 40.33 254.53 C 40.34 252.18 40.35 249.84 40.35 247.49 C 43.01 247.49 45.67 247.48 48.33 247.47 C 48.32 250.29 48.14 253.18 49.04 255.91 C 49.54 254.92 50.51 254.10 50.56 252.93 C 50.77 248.40 50.51 243.86 50.59 239.32 C 50.02 239.28 48.86 239.19 48.28 239.15 C 48.30 241.28 48.30 243.40 48.32 245.53 C 45.65 245.55 42.97 245.58 40.30 245.57 C 40.29 243.49 40.29 241.41 40.27 239.33 C 39.43 239.34 38.58 239.36 37.73 239.37 M 235.38 238.37 C 234.25 243.28 234.59 248.43 234.90 253.43 C 235.48 253.55 236.64 253.81 237.22 253.93 C 237.27 251.53 237.30 249.13 237.39 246.74 C 239.83 246.79 242.29 246.81 244.72 246.43 C 242.65 244.63 239.76 244.87 237.22 244.60 C 237.25 243.15 237.28 241.70 237.29 240.26 C 240.19 240.06 243.57 241.07 245.91 238.84 C 242.43 238.18 238.89 238.46 235.38 238.37 M 251.59 238.44 C 251.62 243.70 251.55 248.95 251.70 254.21 C 255.60 253.95 259.99 255.20 263.41 252.70 C 260.23 252.03 256.99 252.20 253.77 252.23 C 253.72 250.59 253.68 248.96 253.65 247.33 C 256.31 247.21 258.98 247.17 261.65 247.08 C 261.91 246.69 262.43 245.91 262.70 245.53 C 259.70 245.00 256.68 244.68 253.65 244.52 C 253.67 243.10 253.69 241.67 253.70 240.25 C 256.89 239.94 260.65 241.27 263.18 238.73 C 259.34 238.07 255.45 238.40 251.59 238.44 Z" />
<path fill="#fefffe" opacity="1.00" d=" M 124.58 193.60 C 126.63 193.58 128.68 193.57 130.74 193.53 C 130.73 194.52 130.72 195.50 130.72 196.50 C 128.67 196.46 126.63 196.43 124.59 196.42 C 124.59 195.48 124.58 194.54 124.58 193.60 Z" />
<path fill="#fefffe" opacity="1.00" d=" M 124.71 199.69 C 126.69 199.68 128.67 199.67 130.65 199.65 C 130.64 200.62 130.64 201.59 130.64 202.56 C 128.60 202.57 126.57 202.58 124.54 202.56 C 124.60 201.60 124.65 200.65 124.71 199.69 Z" />
<path fill="#fefffe" opacity="1.00" d=" M 238.78 201.57 C 243.00 201.29 247.24 201.41 251.47 201.49 C 251.50 202.54 251.53 203.59 251.57 204.65 C 247.14 205.69 242.57 205.22 238.07 205.34 C 238.30 204.08 238.54 202.83 238.78 201.57 Z" />
<path fill="#fefffe" opacity="1.00" d=" M 124.47 206.73 C 126.54 206.29 128.61 205.88 130.70 205.49 C 130.56 207.41 130.37 209.32 130.15 211.23 C 128.05 210.00 126.24 208.37 124.47 206.73 Z" />
<path fill="#fefffe" opacity="1.00" d=" M 64.11 240.46 C 67.22 239.43 69.81 241.73 70.82 244.51 C 72.22 247.32 70.42 250.49 68.45 252.52 C 66.47 252.75 63.83 253.38 62.37 251.61 C 59.00 248.64 60.03 242.24 64.11 240.46 Z" />
<path fill="#fefffe" opacity="1.00" d=" M 142.34 247.72 C 143.11 245.50 143.88 243.28 144.78 241.10 C 145.64 243.28 146.43 245.49 147.15 247.72 C 145.55 247.73 143.94 247.73 142.34 247.72 Z" />
</g>
<g id="#ed6b1cff">
<path fill="#ed6b1c" opacity="1.00" d=" M 132.24 32.40 C 143.59 32.58 154.95 32.57 166.31 32.44 C 166.66 37.95 166.51 43.48 166.52 49.00 C 166.53 84.00 166.52 119.00 166.53 154.00 C 166.49 158.10 166.73 162.21 166.29 166.30 C 154.78 166.90 143.20 166.57 131.67 166.43 C 131.23 159.27 132.50 152.16 132.20 145.00 C 132.22 107.47 132.14 69.93 132.24 32.40 Z" />
</g>
<g id="#e20162ff">
<path fill="#e20162" opacity="1.00" d=" M 39.37 32.51 C 50.74 33.29 62.19 33.43 73.57 32.61 C 73.84 49.19 73.59 65.77 73.69 82.35 C 88.74 82.45 103.79 82.25 118.85 82.46 C 119.17 93.84 118.34 105.26 119.30 116.62 C 104.10 116.86 88.89 116.65 73.69 116.73 C 73.62 133.17 73.79 149.62 73.62 166.06 C 72.24 166.90 70.54 166.50 69.01 166.64 C 59.12 166.55 49.23 166.58 39.34 166.63 C 39.28 121.93 39.23 77.22 39.37 32.51 Z" />
</g>
<g id="#099ac9ff">
<path fill="#099ac9" opacity="1.00" d=" M 224.36 33.19 C 236.99 33.00 249.62 33.12 262.24 33.13 C 256.72 43.04 249.61 51.93 243.20 61.25 C 235.03 71.23 228.51 82.40 220.63 92.59 C 218.91 94.89 217.34 97.31 215.86 99.77 C 222.88 108.73 228.70 118.55 235.49 127.68 C 242.82 137.64 249.64 147.95 257.21 157.73 C 259.36 160.52 261.31 163.46 263.10 166.49 C 250.08 166.59 237.05 166.73 224.04 166.40 C 219.28 157.64 212.31 150.36 207.23 141.80 C 197.74 127.68 187.46 114.10 178.00 99.96 C 181.92 91.31 188.75 84.48 193.63 76.40 C 203.88 62.00 213.93 47.45 224.36 33.19 Z" />
</g>
<g id="#090909ff">
<path fill="#090909" opacity="1.00" d=" M 151.86 177.63 C 152.39 179.34 152.59 181.12 152.54 182.90 C 152.49 195.31 152.53 207.71 152.53 220.11 C 152.57 221.63 152.34 223.15 151.69 224.54 C 150.80 213.73 151.51 202.84 151.28 191.99 C 151.47 187.21 150.75 182.34 151.86 177.63 Z" />
<path fill="#090909" opacity="1.00" d=" M 87.75 178.69 C 88.94 179.38 89.56 180.58 89.33 181.96 C 89.28 194.68 89.36 207.41 89.34 220.14 C 89.46 221.72 88.53 223.08 87.89 224.45 C 87.27 209.23 87.50 193.93 87.75 178.69 Z" />
<path fill="#090909" opacity="1.00" d=" M 212.37 179.20 C 212.68 179.19 213.30 179.17 213.61 179.16 C 213.47 194.01 213.67 208.86 213.50 223.72 C 213.22 223.73 212.66 223.77 212.39 223.79 C 212.28 208.93 212.31 194.07 212.37 179.20 Z" />
<path fill="#090909" opacity="1.00" d=" M 116.47 183.63 C 117.89 182.54 118.98 180.52 121.04 180.71 C 123.51 180.45 124.53 183.95 127.04 183.63 C 130.96 183.69 134.87 183.54 138.79 183.69 C 138.72 184.97 138.64 186.25 138.54 187.52 C 128.21 187.38 117.88 187.54 107.54 187.49 C 107.55 190.48 107.54 193.47 107.58 196.45 C 111.63 196.50 115.68 196.44 119.73 196.47 C 119.74 195.76 119.76 194.35 119.77 193.64 C 116.52 193.56 113.26 193.71 110.01 193.52 C 109.34 192.51 109.33 191.50 109.98 190.48 C 112.96 190.32 115.94 190.43 118.92 190.38 C 119.57 189.38 120.36 188.53 121.30 187.83 C 123.27 188.02 124.76 189.43 126.48 190.26 C 129.60 190.57 132.75 190.34 135.89 190.40 C 135.80 192.37 135.73 194.35 135.71 196.33 C 137.03 196.39 138.35 196.46 139.67 196.53 C 139.65 197.48 139.64 198.44 139.63 199.40 C 138.55 199.61 137.48 199.84 136.41 200.09 C 135.69 202.80 133.95 205.33 134.55 208.25 C 134.93 210.27 133.45 211.89 132.58 213.56 C 135.23 215.28 138.74 216.21 139.79 219.54 C 134.08 219.86 129.45 215.82 124.75 213.18 C 124.32 215.66 125.49 219.39 122.41 220.49 C 119.91 220.97 117.34 220.78 114.87 220.21 C 116.23 218.72 117.90 217.58 119.64 216.59 C 119.74 213.14 119.70 209.69 119.69 206.24 C 116.73 206.25 113.77 206.36 110.80 206.36 C 112.86 207.22 114.75 208.38 115.32 210.68 C 116.76 210.75 119.07 209.70 119.00 212.02 C 119.04 213.66 117.57 214.55 116.39 215.39 C 113.50 217.01 110.44 218.44 107.14 218.96 C 107.18 217.80 107.28 216.65 107.44 215.51 C 108.55 214.18 110.45 213.91 111.93 213.12 C 110.39 209.83 109.70 206.22 109.38 202.61 C 112.77 202.57 116.17 202.60 119.57 202.59 C 119.62 201.87 119.73 200.43 119.78 199.71 C 115.73 199.72 111.69 199.66 107.64 199.77 C 107.54 204.55 107.79 209.53 105.81 214.01 C 104.67 217.14 101.98 219.30 99.39 221.21 C 99.14 216.61 102.18 212.65 102.33 208.06 C 102.53 199.95 102.29 191.83 102.37 183.72 C 107.07 183.57 111.77 183.78 116.47 183.63 M 124.58 193.60 C 124.58 194.54 124.59 195.48 124.59 196.42 C 126.63 196.43 128.67 196.46 130.72 196.50 C 130.72 195.50 130.73 194.52 130.74 193.53 C 128.68 193.57 126.63 193.58 124.58 193.60 M 124.71 199.69 C 124.65 200.65 124.60 201.60 124.54 202.56 C 126.57 202.58 128.60 202.57 130.64 202.56 C 130.64 201.59 130.64 200.62 130.65 199.65 C 128.67 199.67 126.69 199.68 124.71 199.69 M 124.47 206.73 C 126.24 208.37 128.05 210.00 130.15 211.23 C 130.37 209.32 130.56 207.41 130.70 205.49 C 128.61 205.88 126.54 206.29 124.47 206.73 Z" />
<path fill="#090909" opacity="1.00" d=" M 178.46 181.32 C 180.31 181.36 182.17 181.38 184.03 181.40 C 184.33 185.08 184.09 188.80 184.69 192.45 C 186.13 198.76 188.96 204.85 193.45 209.57 C 195.82 212.29 198.69 214.50 201.20 217.07 C 201.24 218.01 201.34 219.89 201.39 220.83 C 193.09 216.44 184.98 209.93 181.92 200.73 C 181.65 200.64 181.11 200.46 180.84 200.38 C 177.35 209.55 169.54 216.05 161.40 221.03 C 161.51 219.21 160.54 216.63 162.64 215.63 C 168.68 211.19 173.17 204.86 175.93 197.93 C 178.08 192.64 177.53 186.84 178.46 181.32 Z" />
<path fill="#090909" opacity="1.00" d=" M 238.35 183.42 C 239.29 182.55 240.07 181.54 241.00 180.66 C 242.45 180.56 243.90 180.51 245.36 180.50 C 245.42 181.28 245.54 182.82 245.59 183.59 C 250.78 183.45 255.98 183.39 261.17 183.53 C 263.06 184.45 262.52 186.35 261.06 187.38 C 255.49 187.58 249.91 187.41 244.34 187.47 C 244.32 188.49 244.31 189.51 244.29 190.53 C 249.39 190.46 254.50 190.48 259.61 190.47 C 259.58 191.44 259.51 193.40 259.48 194.38 C 254.09 194.45 248.68 194.21 243.29 194.45 C 242.64 194.85 241.35 195.63 240.70 196.03 C 241.95 197.08 243.38 197.56 244.99 197.46 C 250.95 197.43 256.92 197.45 262.89 197.42 C 263.10 198.19 263.50 199.74 263.70 200.52 C 261.41 201.38 258.96 201.48 256.54 201.56 C 256.62 202.81 256.71 204.06 256.81 205.31 C 259.03 205.30 261.25 205.32 263.47 205.36 C 263.46 206.17 263.44 207.79 263.43 208.60 C 261.18 208.60 258.92 208.62 256.67 208.68 C 256.70 212.18 256.74 215.69 256.41 219.19 C 253.20 220.68 249.67 220.59 246.22 220.43 C 246.30 219.59 246.46 217.91 246.54 217.07 C 248.02 216.24 249.82 216.63 251.44 216.36 C 251.42 213.93 251.52 211.49 251.35 209.07 C 248.09 208.01 244.40 208.99 240.97 208.66 C 238.32 208.99 234.95 207.66 232.97 210.01 C 230.02 213.03 226.80 215.77 223.23 218.03 C 222.33 213.45 226.55 211.06 229.14 208.11 C 230.98 206.19 232.25 203.83 233.45 201.47 C 230.23 201.41 227.01 201.57 223.80 201.43 C 222.47 200.47 222.68 198.94 222.78 197.53 C 226.84 197.39 230.90 197.65 234.96 197.37 C 235.49 196.69 236.56 195.33 237.10 194.66 C 233.68 194.27 230.25 194.49 226.83 194.42 C 226.49 193.14 226.40 191.82 226.23 190.52 C 230.55 190.07 235.33 191.61 239.19 189.04 C 238.67 188.68 237.64 187.97 237.13 187.61 C 232.68 187.30 228.21 187.50 223.76 187.52 C 223.69 186.21 223.64 184.91 223.59 183.61 C 228.51 183.33 233.44 183.70 238.35 183.42 M 238.78 201.57 C 238.54 202.83 238.30 204.08 238.07 205.34 C 242.57 205.22 247.14 205.69 251.57 204.65 C 251.53 203.59 251.50 202.54 251.47 201.49 C 247.24 201.41 243.00 201.29 238.78 201.57 Z" />
<path fill="#090909" opacity="1.00" d=" M 60.77 182.38 C 62.76 182.35 64.75 182.34 66.75 182.39 C 66.00 193.36 62.76 203.93 60.04 214.52 C 63.95 214.62 67.79 213.91 71.64 213.30 C 70.83 208.96 69.87 204.65 69.16 200.30 C 70.59 200.23 72.03 200.20 73.47 200.16 C 75.19 206.56 76.46 213.08 77.75 219.58 C 75.19 220.81 72.06 220.58 71.48 217.28 C 66.03 217.87 60.54 217.95 55.07 217.78 C 55.19 215.50 55.23 213.19 55.85 210.98 C 58.55 201.68 60.51 192.09 60.77 182.38 Z" />
<path fill="#090909" opacity="1.00" d=" M 38.32 183.20 C 43.38 182.52 48.57 182.52 53.61 183.38 C 53.49 186.90 53.80 190.44 53.33 193.94 C 51.29 197.10 47.35 196.26 44.17 196.53 C 42.93 198.08 43.25 201.13 44.86 202.47 C 47.44 202.64 50.03 202.58 52.61 202.55 C 52.61 207.71 52.85 212.88 52.49 218.02 C 51.94 219.18 51.30 220.74 49.73 220.57 C 46.93 220.77 44.11 220.68 41.31 220.69 C 41.31 219.62 41.30 218.55 41.29 217.48 C 43.35 217.24 46.08 218.29 47.29 216.02 C 47.52 212.84 47.34 209.66 47.55 206.49 C 44.49 206.22 40.33 207.36 38.72 203.87 C 38.29 200.08 38.52 196.26 38.62 192.46 C 41.84 192.68 45.07 192.66 48.30 192.51 C 48.30 190.53 48.27 188.56 48.25 186.59 C 44.93 186.61 41.62 186.61 38.30 186.64 C 38.31 185.49 38.31 184.35 38.32 183.20 Z" />
<path fill="#090909" opacity="1.00" d=" M 236.21 210.49 C 237.81 210.44 239.40 210.50 241.00 210.66 C 242.41 212.66 243.20 215.01 243.91 217.33 C 242.21 217.37 240.52 217.40 238.83 217.41 C 238.00 215.09 237.06 212.80 236.21 210.49 Z" />
<path fill="#090909" opacity="1.00" d=" M 62.82 239.02 C 66.29 237.42 70.94 238.91 72.31 242.64 C 74.29 245.96 73.23 250.12 71.02 253.03 C 69.21 255.31 65.96 254.80 63.40 254.61 C 56.70 252.66 56.41 241.54 62.82 239.02 M 64.11 240.46 C 60.03 242.24 59.00 248.64 62.37 251.61 C 63.83 253.38 66.47 252.75 68.45 252.52 C 70.42 250.49 72.22 247.32 70.82 244.51 C 69.81 241.73 67.22 239.43 64.11 240.46 Z" />
<path fill="#090909" opacity="1.00" d=" M 79.79 238.66 C 80.55 238.68 81.32 238.71 82.08 238.74 C 84.80 242.65 87.08 246.90 90.30 250.45 C 90.55 246.22 90.00 241.94 90.83 237.76 C 91.22 238.24 91.98 239.21 92.36 239.69 C 92.75 244.65 92.41 249.64 92.46 254.62 C 91.59 254.51 90.73 254.41 89.87 254.32 C 87.54 250.41 85.03 246.61 82.29 242.98 C 80.55 246.89 84.78 252.62 79.92 254.97 C 79.54 249.54 79.72 244.09 79.79 238.66 Z" />
<path fill="#090909" opacity="1.00" d=" M 104.41 254.58 C 97.40 252.55 97.32 240.63 104.34 238.56 C 107.12 238.15 110.42 238.24 112.30 240.65 C 112.59 241.80 112.82 242.97 112.98 244.16 C 111.38 242.97 109.92 241.60 108.27 240.48 C 104.83 239.03 101.12 242.51 101.38 245.99 C 101.11 248.48 102.03 250.99 104.13 252.44 C 106.07 252.85 108.05 252.52 110.00 252.42 C 110.63 251.15 111.27 249.89 111.92 248.64 C 109.80 248.14 107.66 247.69 105.59 246.99 C 108.12 246.04 110.83 246.22 113.48 246.25 C 113.48 248.91 113.48 251.57 113.51 254.24 C 110.47 254.00 107.45 254.91 104.41 254.58 Z" />
<path fill="#090909" opacity="1.00" d=" M 122.89 245.94 C 126.30 243.43 128.64 238.96 133.10 238.27 C 131.48 240.85 129.18 242.86 127.02 244.97 C 128.85 248.13 131.96 250.64 132.90 254.25 L 132.04 254.75 C 129.24 252.97 127.86 249.78 125.92 247.21 C 125.31 247.32 124.10 247.56 123.50 247.67 C 123.04 250.24 122.66 252.83 122.11 255.38 C 121.75 254.84 121.03 253.74 120.67 253.19 C 120.51 248.75 120.43 244.28 120.66 239.84 C 121.04 239.31 121.81 238.24 122.20 237.70 C 122.78 240.41 122.75 243.18 122.89 245.94 Z" />
<path fill="#090909" opacity="1.00" d=" M 143.74 238.58 C 144.26 238.54 145.29 238.47 145.81 238.44 C 148.10 243.78 150.53 249.12 152.05 254.75 C 149.28 254.36 148.64 251.54 147.50 249.47 C 145.61 249.51 143.72 249.54 141.83 249.57 C 140.82 251.51 140.50 254.46 137.84 254.75 C 139.26 249.18 141.50 243.86 143.74 238.58 M 142.34 247.72 C 143.94 247.73 145.55 247.73 147.15 247.72 C 146.43 245.49 145.64 243.28 144.78 241.10 C 143.88 243.28 143.11 245.50 142.34 247.72 Z" />
<path fill="#090909" opacity="1.00" d=" M 168.25 238.34 C 168.79 238.44 169.87 238.64 170.41 238.74 C 170.33 243.73 170.61 248.73 170.30 253.71 C 169.95 253.98 169.26 254.51 168.91 254.78 C 165.04 251.33 163.33 246.19 159.81 242.44 C 159.57 246.52 159.85 250.61 159.52 254.69 C 159.08 254.22 158.18 253.27 157.74 252.80 C 157.86 247.78 156.80 242.47 158.84 237.72 C 162.39 241.55 164.73 246.27 168.06 250.26 C 168.31 246.29 168.20 242.31 168.25 238.34 Z" />
<path fill="#090909" opacity="1.00" d=" M 178.37 241.22 C 181.19 236.27 191.80 237.35 190.77 244.10 C 188.59 242.69 187.05 239.52 184.07 240.11 C 177.57 240.25 177.51 252.26 184.02 252.58 C 186.78 253.17 188.47 250.64 189.94 248.78 C 187.74 248.04 185.30 247.71 183.59 245.98 C 186.22 245.62 188.88 245.68 191.48 246.23 C 191.43 248.86 191.40 251.50 191.54 254.14 C 188.50 252.35 185.50 255.46 182.33 254.43 C 176.98 252.85 175.27 245.58 178.37 241.22 Z" />
<path fill="#090909" opacity="1.00" d=" M 208.59 238.53 C 209.12 238.49 210.16 238.43 210.69 238.39 C 210.84 242.57 210.61 246.76 210.80 250.94 C 212.65 253.71 216.73 251.63 219.52 252.47 C 217.23 255.99 212.12 253.73 208.57 254.09 C 208.69 248.90 208.61 243.72 208.59 238.53 Z" />
<path fill="#090909" opacity="1.00" d=" M 225.27 238.34 C 225.80 238.38 226.86 238.45 227.39 238.49 C 227.38 243.57 227.38 248.66 227.45 253.74 C 226.90 253.74 225.81 253.73 225.27 253.73 C 225.24 248.60 225.21 243.47 225.27 238.34 Z" />
<path fill="#090909" opacity="1.00" d=" M 37.73 239.37 C 38.58 239.36 39.43 239.34 40.27 239.33 C 40.29 241.41 40.29 243.49 40.30 245.57 C 42.97 245.58 45.65 245.55 48.32 245.53 C 48.30 243.40 48.30 241.28 48.28 239.15 C 48.86 239.19 50.02 239.28 50.59 239.32 C 50.51 243.86 50.77 248.40 50.56 252.93 C 50.51 254.10 49.54 254.92 49.04 255.91 C 48.14 253.18 48.32 250.29 48.33 247.47 C 45.67 247.48 43.01 247.49 40.35 247.49 C 40.35 249.84 40.34 252.18 40.33 254.53 C 39.47 254.46 38.62 254.40 37.76 254.34 C 37.76 249.35 37.82 244.36 37.73 239.37 Z" />
<path fill="#090909" opacity="1.00" d=" M 235.38 238.37 C 238.89 238.46 242.43 238.18 245.91 238.84 C 243.57 241.07 240.19 240.06 237.29 240.26 C 237.28 241.70 237.25 243.15 237.22 244.60 C 239.76 244.87 242.65 244.63 244.72 246.43 C 242.29 246.81 239.83 246.79 237.39 246.74 C 237.30 249.13 237.27 251.53 237.22 253.93 C 236.64 253.81 235.48 253.55 234.90 253.43 C 234.59 248.43 234.25 243.28 235.38 238.37 Z" />
<path fill="#090909" opacity="1.00" d=" M 251.59 238.44 C 255.45 238.40 259.34 238.07 263.18 238.73 C 260.65 241.27 256.89 239.94 253.70 240.25 C 253.69 241.67 253.67 243.10 253.65 244.52 C 256.68 244.68 259.70 245.00 262.70 245.53 C 262.43 245.91 261.91 246.69 261.65 247.08 C 258.98 247.17 256.31 247.21 253.65 247.33 C 253.68 248.96 253.72 250.59 253.77 252.23 C 256.99 252.20 260.23 252.03 263.41 252.70 C 259.99 255.20 255.60 253.95 251.70 254.21 C 251.55 248.95 251.62 243.70 251.59 238.44 Z" />
</g>
</svg>
