<?xml version="1.0" encoding="UTF-8" ?>
<!DOCTYPE svg PUBLIC "-//W3C//DTD SVG 1.1//EN" "http://www.w3.org/Graphics/SVG/1.1/DTD/svg11.dtd">
<svg width="300pt" height="300pt" viewBox="0 0 300 300" version="1.1" xmlns="http://www.w3.org/2000/svg">
<g id="#ffffffff">
</g>
<g id="#03309fff">
<path fill="#03309f" opacity="1.00" d=" M 36.10 69.91 C 48.08 59.89 59.96 49.75 72.06 39.88 C 72.15 55.15 72.04 70.42 72.11 85.69 C 78.70 80.99 85.73 76.97 92.42 72.43 C 103.63 64.96 118.85 64.04 130.89 70.05 C 140.71 74.57 147.99 83.80 151.05 94.06 C 153.69 103.90 152.59 114.78 147.71 123.76 C 142.64 133.04 135.37 140.83 128.87 149.09 C 130.38 144.77 131.96 140.48 133.23 136.07 C 133.30 134.30 133.38 132.52 133.43 130.74 C 125.54 130.68 117.64 130.54 109.76 130.78 C 108.17 131.00 108.39 132.85 107.95 133.97 C 106.74 139.58 102.30 144.08 97.23 146.49 C 90.47 149.11 82.35 147.98 76.74 143.30 C 69.42 136.74 67.90 124.18 74.62 116.63 C 80.38 109.36 91.79 107.20 99.57 112.49 C 104.05 114.74 106.51 119.31 108.32 123.76 C 113.21 123.85 118.11 123.81 123.00 123.84 C 125.34 123.82 127.69 123.85 130.03 123.96 C 131.21 123.85 132.38 123.73 133.56 123.60 C 131.94 111.37 124.76 100.00 114.37 93.34 C 103.98 86.31 90.66 84.65 78.57 87.40 C 63.99 90.99 51.36 102.48 47.36 117.09 C 43.91 128.95 45.91 142.57 53.45 152.50 C 57.08 157.56 61.79 161.74 67.07 165.01 C 52.59 162.38 40.41 150.38 37.25 136.04 C 36.45 132.76 36.14 129.38 36.11 126.02 C 36.11 107.32 36.13 88.61 36.10 69.91 Z" />
<path fill="#03309f" opacity="1.00" d=" M 33.56 180.36 C 34.78 179.16 35.98 177.94 37.17 176.72 C 41.76 180.39 46.01 184.47 50.67 188.05 C 50.23 190.24 49.70 192.41 49.20 194.60 C 55.83 193.56 62.60 193.43 69.12 191.67 C 71.15 192.83 73.17 194.01 75.20 195.17 C 74.86 196.56 74.52 197.95 74.18 199.35 C 67.25 199.63 60.33 200.24 53.47 201.33 C 59.17 204.49 64.73 207.92 70.54 210.89 C 70.68 213.71 70.71 216.55 70.67 219.38 C 69.42 219.82 68.17 220.26 66.91 220.70 C 62.76 216.39 58.26 212.43 53.39 208.95 C 54.56 210.93 55.76 212.90 56.94 214.89 C 54.20 220.07 51.38 225.23 48.05 230.08 C 53.09 235.13 58.02 240.47 64.20 244.15 C 68.35 245.71 72.89 245.42 77.25 245.57 C 77.99 246.32 78.74 247.07 79.50 247.82 C 79.50 248.67 79.50 250.38 79.50 251.24 C 73.06 251.97 66.63 252.73 60.20 253.53 C 55.73 246.66 49.14 241.59 43.84 235.42 C 35.19 244.33 24.57 251.28 12.84 255.40 C 11.84 254.93 10.84 254.48 9.83 254.03 C 9.59 252.94 9.34 251.85 9.10 250.76 C 19.56 246.51 29.10 240.02 36.76 231.71 C 37.59 230.99 38.32 229.62 37.36 228.69 C 34.53 225.33 31.41 221.63 27.13 220.24 C 22.51 223.46 18.48 227.56 13.37 230.08 C 12.32 228.57 11.24 227.08 10.17 225.58 C 16.25 220.89 21.98 215.73 27.10 210.00 C 28.84 208.11 30.14 205.87 31.15 203.52 C 26.77 204.00 22.43 204.73 18.12 205.67 C 16.46 204.48 14.77 203.32 13.09 202.14 C 13.29 200.83 13.49 199.51 13.69 198.20 C 23.72 197.07 33.78 196.26 43.81 195.18 C 40.92 189.89 37.14 185.19 33.56 180.36 M 37.18 202.74 C 37.92 204.19 38.68 205.63 39.44 207.08 C 38.48 210.48 35.30 212.31 32.91 214.63 C 37.10 216.91 38.93 221.76 43.02 224.27 C 45.54 219.42 49.37 214.24 47.64 208.47 C 48.81 208.02 49.99 207.57 51.16 207.13 C 50.55 206.65 49.31 205.70 48.70 205.23 C 48.61 204.01 48.53 202.80 48.44 201.60 C 44.70 202.08 40.94 202.47 37.18 202.74 Z" />
<path fill="#03309f" opacity="1.00" d=" M 91.51 178.62 C 92.19 178.30 93.53 177.66 94.20 177.34 C 95.75 179.53 97.55 181.57 98.79 183.97 C 97.90 187.59 96.56 191.09 95.09 194.51 C 98.18 194.17 101.31 193.79 104.22 192.63 C 105.26 193.44 106.31 194.26 107.35 195.07 C 107.76 190.20 106.89 185.35 105.72 180.64 C 107.44 180.18 109.17 179.74 110.90 179.29 C 111.83 181.54 112.79 183.79 113.74 186.03 C 118.95 185.56 124.11 184.62 129.34 184.34 C 130.17 183.44 130.99 182.55 131.82 181.65 C 132.57 181.62 134.06 181.56 134.80 181.52 C 136.44 182.92 138.11 184.29 139.76 185.69 C 138.64 186.98 137.55 188.28 136.42 189.57 C 135.46 196.38 135.23 203.27 134.58 210.11 C 135.93 213.86 137.43 217.57 138.59 221.39 C 138.13 221.81 137.20 222.66 136.73 223.08 C 136.62 223.47 136.39 224.25 136.28 224.63 C 134.00 226.80 131.73 228.97 129.43 231.12 C 131.83 235.16 133.85 239.52 136.97 243.07 C 140.06 245.35 144.28 244.78 147.89 245.39 C 147.86 246.22 147.81 247.90 147.78 248.74 C 148.12 248.68 148.80 248.57 149.15 248.51 C 155.65 239.18 159.45 228.21 160.73 216.94 C 161.91 206.96 163.21 196.72 161.18 186.77 C 162.87 186.35 164.57 185.94 166.27 185.52 C 167.14 187.67 168.01 189.82 168.86 191.98 C 173.86 191.67 178.85 191.10 183.87 191.14 C 183.50 186.94 181.04 183.37 179.93 179.37 C 181.25 178.80 182.59 178.23 183.92 177.65 C 186.88 181.16 189.81 184.68 192.84 188.13 C 192.74 188.69 192.52 189.82 192.41 190.38 C 198.55 189.15 204.92 189.32 210.94 187.44 C 212.56 189.18 214.14 190.95 215.69 192.77 C 215.28 193.51 214.47 195.00 214.07 195.75 C 206.35 196.89 198.48 196.23 190.78 197.58 C 190.74 198.63 190.69 199.68 190.64 200.73 C 193.86 199.92 198.58 201.54 200.34 197.84 C 203.07 196.52 205.24 198.37 207.20 200.05 C 207.29 200.87 207.46 202.50 207.55 203.32 C 206.72 204.42 205.91 205.54 205.11 206.67 C 208.76 206.96 212.34 206.06 215.88 205.30 C 217.45 206.55 219.05 207.80 220.66 209.01 C 220.21 210.33 219.77 211.65 219.32 212.97 C 214.60 213.17 209.93 213.86 205.27 214.59 C 205.27 215.74 205.27 216.89 205.28 218.05 C 206.62 218.52 207.95 219.03 209.28 219.54 C 209.76 221.56 210.96 223.57 210.68 225.69 C 208.23 229.10 204.10 230.71 201.11 233.60 C 203.44 235.70 205.62 238.01 208.28 239.72 C 211.97 241.93 216.45 241.32 220.55 241.49 C 220.87 242.65 221.19 243.82 221.51 244.99 C 220.86 245.79 220.22 246.61 219.59 247.42 C 215.08 247.92 210.61 248.76 206.09 249.19 C 200.73 243.89 196.13 237.87 190.68 232.67 C 190.05 240.22 192.18 248.39 188.16 255.31 C 186.81 255.21 185.46 255.12 184.11 255.02 C 181.85 251.39 178.75 248.41 175.55 245.63 C 175.59 244.57 175.64 243.51 175.69 242.45 C 176.63 241.78 177.57 241.12 178.52 240.46 C 180.19 241.62 181.88 242.74 183.59 243.84 C 183.61 241.52 183.61 239.20 183.60 236.88 C 178.27 240.68 172.18 243.39 167.33 247.83 C 164.78 246.41 160.54 246.17 160.24 242.62 C 158.19 246.55 155.69 250.24 152.80 253.61 C 151.76 253.57 150.73 253.53 149.69 253.48 C 148.84 252.72 148.03 251.91 147.09 251.28 C 142.65 251.13 138.29 252.26 133.86 252.23 C 132.50 252.30 131.89 250.78 131.24 249.86 C 129.58 246.64 128.49 243.14 126.62 240.01 C 121.06 243.86 116.88 249.46 111.90 254.03 C 111.08 254.18 109.44 254.48 108.61 254.64 C 107.45 253.02 106.18 251.47 105.15 249.76 C 105.59 248.52 106.49 247.52 107.20 246.43 C 107.21 244.57 107.20 242.71 107.17 240.86 C 102.23 243.99 98.82 248.99 94.94 253.28 C 91.20 254.02 89.22 250.26 87.98 247.40 C 88.75 246.66 89.47 245.88 90.15 245.07 C 90.79 239.86 90.28 234.59 90.61 229.36 C 88.09 229.78 85.59 230.30 83.08 230.81 C 81.74 229.74 80.40 228.69 79.05 227.64 C 79.24 226.30 79.45 224.95 79.65 223.62 C 83.31 223.29 86.94 222.69 90.58 222.28 C 90.67 220.54 90.73 218.80 90.80 217.07 C 89.15 217.30 87.50 217.54 85.85 217.77 C 85.53 217.33 84.87 216.45 84.54 216.01 C 83.17 217.88 81.80 219.76 80.51 221.69 C 78.28 222.23 76.24 221.75 74.74 219.98 C 81.26 210.08 86.04 199.17 89.70 187.92 C 90.65 184.89 90.94 181.72 91.51 178.62 M 114.48 193.57 C 114.48 195.26 114.48 196.95 114.48 198.64 C 119.24 198.23 123.83 196.42 128.62 196.57 C 128.69 195.02 128.77 193.47 128.86 191.92 C 124.04 192.28 119.27 193.00 114.48 193.57 M 169.55 199.12 C 170.06 205.06 168.00 210.78 168.31 216.69 C 173.71 216.34 179.15 216.97 184.53 216.29 C 179.98 213.62 173.91 217.13 169.12 214.80 C 168.27 213.61 169.15 212.25 169.77 211.21 C 174.45 211.21 179.02 210.04 183.62 209.37 C 183.60 209.19 183.54 208.82 183.51 208.64 C 180.28 209.20 177.03 209.68 173.85 210.48 C 172.45 209.23 171.05 207.99 169.64 206.77 C 170.33 205.51 170.32 203.64 171.71 202.92 C 175.68 202.41 179.72 202.45 183.65 201.61 C 183.61 200.47 183.56 199.32 183.52 198.18 C 178.87 198.55 174.20 198.71 169.55 199.12 M 92.04 202.45 C 90.99 204.94 89.77 207.37 88.41 209.71 C 93.40 209.07 98.27 207.83 103.22 206.98 C 105.12 207.73 105.83 210.11 107.17 211.56 C 107.27 207.86 107.26 204.17 107.24 200.47 C 102.17 201.08 97.05 201.39 92.04 202.45 M 114.54 205.76 C 114.50 207.47 114.47 209.19 114.45 210.91 C 118.80 210.62 123.11 210.00 127.42 209.46 C 127.53 207.73 127.64 205.99 127.75 204.26 C 123.33 204.67 118.95 205.38 114.54 205.76 M 190.02 208.09 C 193.06 208.45 196.30 208.75 199.18 207.46 C 196.11 207.42 193.06 207.71 190.02 208.09 M 104.97 214.52 C 102.56 214.69 100.17 215.11 97.80 215.58 C 97.79 217.33 97.76 219.09 97.73 220.85 C 100.30 220.60 102.84 220.15 105.35 219.52 C 105.81 219.96 106.74 220.83 107.20 221.27 C 107.28 218.12 107.26 214.98 107.16 211.84 C 106.41 212.72 105.69 213.61 104.97 214.52 M 189.87 216.30 C 192.65 216.68 196.26 217.70 198.50 215.50 C 195.61 215.58 192.72 215.86 189.87 216.30 M 122.59 217.61 C 123.93 220.13 125.25 222.66 126.65 225.14 C 128.63 222.44 130.63 219.70 131.74 216.50 C 128.68 216.76 125.64 217.21 122.59 217.61 M 114.38 241.84 C 117.64 239.61 120.29 235.45 124.77 236.16 C 122.32 231.59 120.11 226.90 117.88 222.22 C 117.07 220.61 116.45 218.77 114.67 217.96 C 114.41 225.91 114.20 233.88 114.38 241.84 M 192.75 224.50 C 194.07 225.91 195.41 227.29 196.77 228.66 C 198.67 227.06 200.53 225.40 202.20 223.56 C 199.03 223.59 195.87 223.96 192.75 224.50 M 177.94 225.99 C 181.98 226.24 179.52 231.74 183.55 232.13 C 183.61 229.82 183.61 227.51 183.61 225.20 C 181.72 225.46 179.83 225.74 177.94 225.99 M 97.70 228.32 C 97.56 232.36 97.57 236.41 97.61 240.46 C 100.07 238.56 102.49 236.62 104.90 234.66 C 105.47 234.65 106.63 234.62 107.21 234.60 C 107.20 232.12 107.20 229.63 107.21 227.15 C 104.02 227.40 100.86 227.85 97.70 228.32 M 166.02 228.39 C 164.74 232.51 163.35 236.61 161.51 240.52 C 166.16 238.72 170.66 236.58 175.15 234.42 C 172.99 231.61 169.83 229.81 166.85 227.99 C 166.64 228.09 166.23 228.29 166.02 228.39 Z" />
<path fill="#03309f" opacity="1.00" d=" M 271.44 178.73 C 272.10 178.48 273.41 177.98 274.07 177.74 C 275.93 179.79 277.79 181.86 279.66 183.92 C 278.59 188.65 275.12 192.38 273.92 197.09 C 275.76 196.66 277.61 196.19 279.40 195.56 C 280.91 196.73 282.42 197.90 283.94 199.06 C 283.72 200.45 283.49 201.85 283.26 203.24 C 278.22 203.73 273.18 204.30 268.21 205.27 C 268.18 208.05 268.12 210.82 268.08 213.60 C 273.16 212.93 278.27 212.44 283.30 211.47 C 284.74 212.88 286.20 214.28 287.62 215.72 C 287.12 216.81 286.57 217.88 285.99 218.93 C 281.15 219.74 276.21 219.66 271.37 220.56 C 275.21 227.71 277.62 235.73 282.82 242.07 C 286.05 242.58 289.27 243.18 292.51 243.71 C 292.50 244.58 292.50 246.32 292.50 247.19 C 291.79 247.87 291.10 248.56 290.41 249.25 C 286.56 249.19 282.73 249.61 278.90 249.75 C 277.49 249.88 276.25 248.78 275.70 247.58 C 272.70 239.85 270.40 231.75 266.28 224.51 C 264.97 230.99 262.72 237.40 258.77 242.77 C 255.84 246.88 252.02 250.25 248.11 253.41 C 246.22 253.37 244.17 254.16 242.37 253.46 C 240.73 251.58 239.18 249.51 238.25 247.18 C 240.48 242.93 239.49 238.04 239.87 233.46 C 234.11 235.35 228.42 237.42 222.87 239.85 C 220.86 239.06 219.21 237.60 217.43 236.42 C 217.74 235.13 218.06 233.85 218.38 232.57 C 221.07 231.83 223.74 231.04 226.41 230.26 C 226.34 218.97 226.51 207.68 226.52 196.39 C 225.87 196.43 224.58 196.52 223.94 196.57 C 222.72 195.56 221.50 194.56 220.27 193.58 C 220.41 192.23 220.57 190.89 220.74 189.54 C 229.58 188.34 238.50 187.51 247.21 185.47 C 249.70 184.55 251.07 187.56 252.85 188.76 C 252.32 190.07 251.81 191.38 251.30 192.70 C 250.06 192.75 248.82 192.80 247.59 192.85 C 247.33 200.54 247.30 208.23 247.27 215.92 C 251.76 215.60 256.23 215.08 260.68 214.39 C 260.80 211.65 260.92 208.90 260.97 206.15 C 258.58 206.64 256.22 207.21 253.90 207.91 C 252.23 206.68 250.61 205.40 248.99 204.12 C 249.38 202.89 249.83 201.69 250.32 200.51 C 253.02 199.77 255.83 199.63 258.60 199.34 C 256.32 194.38 253.70 189.56 250.38 185.22 C 251.21 184.47 252.05 183.73 252.89 182.99 C 253.71 183.09 255.35 183.29 256.17 183.39 C 258.78 186.34 261.56 189.15 263.95 192.28 C 265.67 194.07 264.47 196.60 264.21 198.68 C 264.79 198.61 265.95 198.45 266.53 198.37 C 269.08 192.07 270.67 185.47 271.44 178.73 M 234.01 195.21 C 234.00 197.32 233.99 199.42 233.97 201.53 C 235.88 201.01 237.83 200.57 239.64 199.76 C 240.07 197.93 240.16 196.05 240.39 194.19 C 238.26 194.51 236.13 194.86 234.01 195.21 M 233.74 208.77 C 233.73 210.47 233.72 212.18 233.72 213.89 C 235.77 213.48 237.80 213.01 239.82 212.51 C 239.83 211.03 239.84 209.55 239.85 208.08 C 237.81 208.30 235.77 208.54 233.74 208.77 M 233.78 221.59 C 233.50 223.83 233.52 226.08 233.50 228.33 C 235.63 227.74 237.75 227.11 239.87 226.47 C 239.86 224.43 239.86 222.40 239.85 220.36 C 237.89 220.83 235.24 219.89 233.78 221.59 M 247.49 219.96 C 247.36 221.30 247.23 222.64 247.11 223.99 C 248.43 223.76 249.76 223.54 251.08 223.32 C 251.92 224.00 252.76 224.68 253.62 225.36 C 253.61 226.39 253.61 227.42 253.62 228.45 C 251.48 229.27 249.34 230.09 247.20 230.91 C 247.40 236.16 246.65 241.39 246.83 246.64 C 253.84 240.10 257.90 231.02 259.69 221.72 C 257.03 222.08 254.42 222.71 251.87 223.52 C 250.40 222.34 248.94 221.15 247.49 219.96 Z" />
</g>
<g id="#f9d70cff">
<path fill="#f9d70c" opacity="1.00" d=" M 222.41 48.31 C 223.27 48.40 224.13 48.49 225.00 48.58 C 227.45 51.89 230.57 54.59 233.49 57.47 C 244.60 68.46 255.60 79.56 266.69 90.57 C 261.89 94.86 258.28 100.24 253.56 104.59 C 251.12 106.93 248.41 109.19 247.15 112.43 C 239.47 129.62 231.50 146.68 223.86 163.89 C 223.41 163.74 222.51 163.43 222.06 163.27 C 217.37 159.12 213.37 154.30 208.76 150.07 C 204.97 146.26 201.47 142.10 197.06 138.98 C 194.74 135.35 191.34 132.66 188.34 129.64 C 185.64 127.01 183.31 123.94 180.03 121.97 C 179.26 120.76 178.25 119.76 177.10 118.93 C 173.70 114.50 169.42 110.83 165.27 107.12 C 165.56 105.98 165.36 104.50 166.54 103.82 C 169.18 101.71 171.57 99.32 173.88 96.85 C 189.97 80.59 206.38 64.64 222.41 48.31 Z" />
</g>
<g id="#010101ff">
<path fill="#010101" opacity="1.00" d=" M 253.56 104.59 C 258.28 100.24 261.89 94.86 266.69 90.57 C 271.68 95.50 276.60 100.50 281.60 105.43 C 282.77 106.52 281.01 107.61 280.36 108.37 C 264.23 124.27 248.27 140.34 232.14 156.25 C 229.41 158.82 227.09 161.91 223.86 163.89 C 231.50 146.68 239.47 129.62 247.15 112.43 C 248.41 109.19 251.12 106.93 253.56 104.59 Z" />
</g>
</svg>
