<?xml version="1.0" encoding="UTF-8" ?>
<!DOCTYPE svg PUBLIC "-//W3C//DTD SVG 1.1//EN" "http://www.w3.org/Graphics/SVG/1.1/DTD/svg11.dtd">
<svg width="300pt" height="300pt" viewBox="0 0 300 300" version="1.1" xmlns="http://www.w3.org/2000/svg">
<g id="#fffffeff">
</g>
<g id="#049782ff">
<path fill="#049782" opacity="1.00" d=" M 143.48 23.47 C 147.55 23.23 151.63 23.25 155.71 23.37 C 155.71 35.09 155.96 46.82 155.54 58.54 C 151.72 58.69 147.90 58.67 144.08 58.66 C 142.91 54.88 143.36 50.89 143.31 47.00 C 143.41 39.16 143.11 31.31 143.48 23.47 Z" />
<path fill="#049782" opacity="1.00" d=" M 127.89 27.17 C 130.76 26.00 133.77 25.26 136.73 24.35 C 136.87 36.47 136.55 48.60 137.35 60.70 C 140.72 61.47 144.18 61.50 147.62 61.47 C 149.22 67.33 148.15 73.48 148.42 79.47 C 143.62 79.25 138.81 79.45 134.01 79.28 C 132.75 79.11 130.40 78.69 130.60 76.98 C 130.29 64.76 130.62 52.52 130.45 40.29 C 116.32 47.27 106.04 62.07 105.41 77.95 C 104.66 90.82 109.85 103.94 119.38 112.66 C 125.89 118.74 134.31 123.70 143.44 123.79 C 143.32 115.69 143.30 107.59 143.44 99.50 C 139.66 99.47 135.85 99.69 132.09 99.25 C 131.74 98.92 131.04 98.28 130.69 97.96 C 130.22 92.48 130.59 86.97 130.51 81.48 C 136.07 81.49 141.62 81.52 147.17 81.51 C 149.79 86.78 147.76 92.85 148.58 98.46 C 148.94 98.91 149.67 99.81 150.03 100.26 C 151.38 94.95 150.19 89.43 150.73 84.03 C 151.10 83.07 151.68 82.27 152.47 81.61 C 157.87 81.14 163.50 82.37 168.72 80.51 C 168.10 86.84 169.40 93.32 167.86 99.54 C 164.00 99.41 160.13 99.44 156.28 99.77 C 155.64 107.79 155.29 115.92 156.36 123.91 C 175.48 121.65 191.27 104.83 193.57 85.92 C 193.94 78.90 193.94 71.64 191.15 65.05 C 186.97 54.47 179.11 45.11 168.69 40.28 C 168.23 53.18 169.17 66.12 168.19 78.99 C 162.38 79.63 156.52 79.01 150.71 79.63 C 151.08 73.76 149.43 67.43 151.71 61.87 C 154.95 60.94 158.52 61.68 161.82 60.76 C 162.79 55.90 162.26 50.92 162.35 46.00 C 162.42 38.75 162.24 31.50 162.51 24.25 C 171.60 26.44 179.90 31.20 187.32 36.78 C 197.68 45.70 204.59 58.59 206.47 72.11 C 206.81 80.16 207.27 88.44 204.82 96.24 C 200.38 110.73 190.39 123.61 176.87 130.68 C 164.96 136.72 150.98 139.20 137.86 136.14 C 121.05 132.92 106.47 121.17 98.86 105.96 C 87.59 85.13 91.69 57.22 108.52 40.56 C 114.50 35.49 120.48 30.06 127.89 27.17 Z" />
</g>
<g id="#231818ff">
<path fill="#231818" opacity="1.00" d=" M 178.55 164.40 C 183.02 164.73 187.54 165.55 191.54 167.65 C 192.90 169.86 190.38 171.56 189.46 173.34 C 188.97 179.85 190.90 186.23 192.75 192.40 C 195.34 200.78 200.58 208.10 206.90 214.08 C 210.41 217.68 215.23 219.35 219.71 221.35 C 219.69 221.66 219.66 222.29 219.65 222.60 C 215.60 224.20 211.60 226.49 210.06 230.85 C 205.15 230.59 202.00 226.30 199.05 222.90 C 191.97 214.46 188.87 203.54 187.27 192.84 C 186.00 199.75 184.99 206.99 181.27 213.10 C 175.36 221.86 165.81 227.09 156.30 231.09 C 154.93 231.77 153.38 231.71 151.90 231.79 C 152.69 230.69 153.50 229.56 154.66 228.80 C 162.05 223.57 169.06 217.18 172.69 208.69 C 179.47 194.97 178.13 179.24 178.55 164.40 Z" />
<path fill="#231818" opacity="1.00" d=" M 35.59 165.15 C 40.28 165.39 44.99 166.22 49.23 168.31 C 47.53 171.63 45.16 174.62 44.20 178.30 C 48.08 178.41 51.97 178.35 55.85 178.29 C 57.36 176.57 58.79 173.46 61.61 174.50 C 64.46 176.16 67.08 178.28 69.39 180.64 C 69.61 181.88 69.59 183.14 69.64 184.40 C 66.31 184.75 62.80 184.16 59.67 185.59 C 57.35 186.86 55.49 188.82 53.11 190.02 C 53.36 186.63 54.95 183.59 56.03 180.43 C 52.11 180.35 48.18 180.38 44.26 180.44 C 45.51 187.19 47.74 193.74 50.86 199.86 C 53.89 196.30 56.36 192.31 58.61 188.21 C 63.10 188.88 66.64 192.68 69.24 196.18 C 63.65 197.46 58.41 199.80 53.02 201.69 C 54.24 205.77 57.48 208.79 60.74 211.33 C 63.69 213.56 66.74 215.82 70.34 216.88 C 71.81 217.53 73.81 217.51 74.71 219.05 C 72.51 220.58 69.86 221.26 67.64 222.74 C 65.92 224.12 65.18 226.31 63.74 227.92 C 60.59 227.48 58.42 224.79 56.15 222.81 C 46.06 212.52 42.96 197.59 42.28 183.68 C 40.18 187.53 36.72 191.35 37.55 196.04 C 37.59 197.77 36.20 199.21 36.27 200.97 C 36.15 206.37 36.30 211.78 36.34 217.19 C 39.88 215.93 43.08 213.93 46.44 212.28 C 47.42 212.70 48.05 213.42 48.32 214.43 C 43.27 219.34 38.34 224.37 33.44 229.43 C 32.29 230.69 30.90 231.69 29.26 232.22 C 27.95 229.91 26.48 227.67 25.49 225.21 C 24.47 222.77 26.22 220.43 26.38 218.02 C 26.57 214.38 26.46 210.73 26.37 207.08 C 20.17 210.76 14.90 216.13 8.00 218.57 C 7.59 218.23 6.77 217.56 6.36 217.23 C 18.24 207.84 28.10 195.04 32.19 180.33 C 28.98 180.35 25.77 180.40 22.57 180.38 C 22.62 183.52 23.43 187.36 20.65 189.63 C 18.21 192.09 14.45 191.98 11.70 190.14 C 11.46 188.24 11.05 186.32 11.33 184.41 C 12.52 182.29 14.58 180.86 16.05 178.94 C 17.09 177.27 17.34 175.28 17.79 173.40 C 18.22 173.42 19.08 173.46 19.51 173.48 C 20.41 175.07 21.29 176.68 22.12 178.31 C 25.82 178.35 29.51 178.34 33.21 178.39 C 34.70 174.12 34.80 169.56 35.59 165.15 Z" />
<path fill="#231818" opacity="1.00" d=" M 251.92 165.27 C 256.84 164.76 261.61 166.35 265.89 168.65 C 264.79 170.65 263.35 172.43 261.97 174.24 C 264.80 175.44 267.93 175.43 270.92 175.04 C 274.19 174.37 274.41 169.13 278.02 169.34 C 280.79 171.36 284.09 173.65 284.79 177.24 C 277.06 177.39 269.32 177.06 261.60 177.43 C 261.18 179.52 260.66 181.58 260.18 183.65 C 262.95 183.60 265.77 183.96 268.51 183.49 C 270.20 181.95 271.54 180.08 272.96 178.30 C 276.32 179.68 279.32 182.03 281.02 185.30 C 274.39 186.15 267.68 185.56 261.02 185.69 C 258.23 186.74 258.56 190.45 257.53 192.83 C 263.37 192.61 269.20 193.18 275.03 193.16 C 278.13 193.38 279.49 190.25 281.47 188.48 C 282.44 187.01 284.75 186.67 285.99 188.01 C 288.06 189.90 290.45 191.82 291.11 194.70 C 286.04 195.67 280.87 195.11 275.75 195.29 C 277.50 196.09 279.27 196.82 281.02 197.62 C 280.32 199.74 279.58 201.85 279.20 204.06 C 281.13 202.82 282.56 201.00 284.04 199.28 C 287.43 200.68 291.10 202.87 292.12 206.66 C 287.95 206.90 283.78 206.83 279.61 206.82 C 279.33 214.04 279.82 221.29 279.34 228.50 C 276.94 232.80 271.15 232.51 266.88 232.41 C 266.32 230.38 266.21 227.87 264.28 226.61 C 261.81 224.97 259.49 222.82 256.48 222.31 C 254.92 221.92 252.87 221.51 252.71 219.55 C 252.27 215.58 251.25 211.74 250.00 207.97 C 254.51 208.23 259.28 210.37 261.37 214.59 C 262.08 217.17 261.20 219.80 260.38 222.25 C 263.31 221.85 267.40 223.89 269.40 221.03 C 269.76 216.38 269.45 211.71 269.46 207.05 C 263.05 206.91 256.60 206.59 250.22 207.34 C 248.89 207.40 248.25 208.71 247.46 209.57 C 242.28 216.37 235.19 221.98 227.12 224.88 C 227.26 221.22 231.06 219.61 233.04 216.98 C 238.50 210.56 243.19 203.32 245.95 195.31 C 241.27 195.12 236.58 195.32 231.90 195.19 C 230.36 195.19 229.40 193.71 228.20 192.97 C 234.56 192.54 240.95 193.19 247.32 192.61 C 247.84 190.32 248.42 188.03 248.76 185.71 C 244.92 185.66 241.06 185.96 237.24 185.52 C 236.95 185.05 236.36 184.12 236.07 183.65 C 240.57 183.64 245.07 183.64 249.57 183.65 C 249.99 181.58 250.40 179.50 250.74 177.41 C 245.09 177.18 239.44 177.23 233.80 177.33 C 233.63 176.67 233.30 175.35 233.13 174.69 C 239.22 175.28 245.41 175.59 251.50 174.75 C 251.59 171.58 251.73 168.42 251.92 165.27 M 256.40 195.25 C 255.06 198.51 253.32 201.59 251.71 204.72 C 257.65 204.84 263.60 204.90 269.55 204.73 C 269.43 201.59 269.33 198.44 269.39 195.30 C 265.06 195.17 260.73 195.21 256.40 195.25 Z" />
<path fill="#231818" opacity="1.00" d=" M 89.80 165.31 C 93.78 165.41 97.39 167.19 101.05 168.54 C 99.59 172.12 96.27 174.64 95.25 178.51 C 95.92 178.51 97.27 178.49 97.94 178.48 C 101.14 178.97 101.83 174.43 104.77 174.24 C 107.34 175.16 109.19 177.66 109.95 180.24 C 104.62 180.75 99.25 180.50 93.89 180.53 C 91.73 183.08 89.68 185.72 87.84 188.51 C 91.73 188.67 95.63 188.68 99.53 188.61 C 100.90 186.98 102.36 185.42 103.90 183.94 C 106.08 185.78 108.65 187.56 109.24 190.56 C 106.54 190.66 103.83 190.49 101.15 190.78 C 98.70 193.16 99.68 197.21 100.63 200.13 C 101.97 198.30 103.42 196.55 104.94 194.86 C 107.03 195.91 108.75 197.50 110.47 199.04 C 111.02 188.10 110.52 177.13 110.67 166.18 C 114.09 167.13 117.03 169.18 120.31 170.46 C 124.05 170.80 127.81 170.49 131.56 170.52 C 132.67 169.07 133.81 167.64 135.00 166.24 C 138.21 167.47 140.97 169.54 143.61 171.70 C 142.91 173.15 141.70 174.47 141.57 176.14 C 141.27 182.77 141.78 189.43 141.49 196.06 C 141.13 196.89 140.40 198.54 140.04 199.37 C 142.23 200.40 144.40 201.48 146.55 202.59 C 146.47 203.31 146.39 204.03 146.32 204.76 C 141.92 206.06 138.45 209.23 134.29 211.05 C 135.83 213.32 137.37 215.70 139.63 217.32 C 142.66 219.44 146.25 220.63 149.12 223.00 C 144.69 224.10 141.51 227.25 139.13 230.99 C 134.18 228.00 130.82 223.19 128.42 218.03 C 127.42 218.39 126.36 218.71 125.74 219.65 C 122.08 223.79 118.74 228.20 114.85 232.12 C 112.76 229.49 110.83 226.68 109.50 223.58 C 108.96 221.27 110.94 219.30 110.69 216.99 C 110.31 211.80 110.74 206.62 110.70 201.43 C 107.12 201.53 103.54 201.53 99.96 201.50 C 99.63 206.24 99.39 211.05 100.32 215.74 C 103.31 213.66 106.47 211.54 110.15 211.01 C 109.39 214.50 106.17 216.43 104.17 219.17 C 101.00 222.71 98.69 226.91 95.59 230.50 C 95.29 230.50 94.69 230.49 94.39 230.49 C 92.26 228.03 90.96 225.00 89.48 222.13 C 92.57 215.71 90.92 208.46 91.35 201.62 C 88.29 201.49 85.23 201.52 82.17 201.56 C 82.28 201.04 82.50 199.99 82.62 199.47 C 85.47 199.63 88.34 199.71 91.20 199.73 C 91.33 197.14 91.45 194.55 91.33 191.96 C 90.06 190.58 87.91 190.70 86.22 190.13 C 84.87 191.91 83.35 193.72 81.02 194.12 C 84.76 184.81 88.36 175.32 89.80 165.31 M 119.46 172.59 C 119.47 175.67 119.46 178.75 119.47 181.84 C 123.76 182.40 128.10 182.24 132.41 182.40 C 132.53 179.17 132.53 175.94 132.59 172.71 C 128.22 172.49 123.83 172.67 119.46 172.59 M 119.40 184.18 C 119.51 187.49 119.48 190.80 119.45 194.12 C 123.82 194.51 128.22 194.51 132.59 194.14 C 132.52 190.81 132.53 187.47 132.57 184.14 C 128.18 184.08 123.79 184.19 119.40 184.18 M 119.51 196.32 C 119.44 203.45 119.40 210.58 119.50 217.71 C 121.94 216.93 124.41 216.23 126.90 215.64 C 126.21 209.23 124.25 202.97 124.40 196.45 C 122.77 196.41 121.14 196.36 119.51 196.32 M 128.28 196.20 C 129.00 200.28 130.25 204.23 131.97 207.99 C 134.11 205.28 136.14 202.38 136.82 198.93 C 133.91 198.12 131.43 196.06 128.28 196.20 Z" />
<path fill="#231818" opacity="1.00" d=" M 19.89 248.03 C 20.97 249.26 21.96 250.60 22.54 252.15 C 25.08 258.41 27.68 264.65 30.21 270.92 C 31.03 273.20 32.70 275.00 34.25 276.80 C 30.11 276.81 25.98 276.77 21.84 276.92 C 22.74 276.11 23.69 275.34 24.51 274.45 C 24.76 272.43 23.67 270.56 23.22 268.65 C 20.48 268.62 17.74 268.46 15.01 268.66 C 14.23 270.43 13.68 272.29 13.13 274.14 C 14.16 275.01 15.18 275.90 16.21 276.79 C 12.79 276.84 9.37 276.82 5.96 276.68 C 7.66 275.52 10.10 274.98 10.86 272.85 C 14.13 264.68 16.80 256.27 19.89 248.03 M 15.82 266.72 C 17.88 266.74 19.94 266.73 22.01 266.70 C 21.33 263.60 20.28 260.60 18.98 257.71 C 17.57 260.57 16.44 263.58 15.82 266.72 Z" />
<path fill="#231818" opacity="1.00" d=" M 48.54 249.16 C 56.03 249.06 63.72 247.94 71.07 249.99 C 73.00 252.24 74.45 255.74 72.59 258.46 C 71.45 260.60 68.86 261.15 66.89 262.24 C 69.40 263.28 72.59 264.07 73.57 266.97 C 73.66 269.39 74.42 272.50 72.33 274.31 C 70.85 275.80 68.84 276.75 66.72 276.75 C 61.11 277.00 55.49 276.74 49.88 276.81 C 51.04 275.58 52.48 274.54 53.19 272.96 C 53.49 267.97 53.18 262.97 53.31 257.98 C 53.22 255.78 53.65 253.42 52.54 251.41 C 51.33 250.46 49.94 249.78 48.54 249.16 M 59.33 251.04 C 59.23 254.62 59.26 258.21 59.31 261.80 C 60.95 261.58 62.68 261.70 64.25 261.12 C 68.31 259.93 66.43 254.76 66.43 251.67 C 64.09 251.16 61.72 250.59 59.33 251.04 M 59.14 263.64 C 59.29 267.46 59.26 271.28 59.33 275.11 C 61.99 275.09 65.35 275.51 67.26 273.25 C 67.68 270.51 68.40 267.02 66.15 264.87 C 64.44 262.83 61.46 263.78 59.14 263.64 Z" />
<path fill="#231818" opacity="1.00" d=" M 92.16 253.07 C 95.53 248.70 101.87 248.38 106.66 250.33 C 108.10 251.05 109.34 249.73 110.63 249.25 C 110.62 252.55 110.82 255.85 110.54 259.15 C 109.27 257.17 108.34 254.98 106.83 253.17 C 105.00 251.13 101.98 250.97 99.49 251.60 C 96.36 253.53 95.60 257.58 95.46 260.99 C 95.38 265.47 95.09 270.89 99.00 273.99 C 101.28 275.04 104.44 275.21 106.37 273.34 C 107.97 271.88 109.23 270.09 110.93 268.74 C 111.15 274.58 104.51 278.33 99.26 277.15 C 94.16 276.55 89.79 272.10 89.44 266.95 C 88.97 262.23 88.91 256.90 92.16 253.07 Z" />
<path fill="#231818" opacity="1.00" d=" M 162.40 249.30 C 166.25 248.96 170.12 249.20 173.98 249.20 C 173.06 250.46 171.36 251.44 171.38 253.17 C 171.19 260.46 171.30 267.76 171.37 275.06 C 174.42 275.27 177.58 275.46 180.50 274.36 C 182.96 272.42 184.23 269.48 185.78 266.85 C 185.88 270.13 185.67 273.41 185.55 276.69 C 177.68 277.01 169.80 276.75 161.92 276.80 C 163.18 275.36 165.38 274.22 165.34 272.07 C 165.39 266.03 165.45 259.99 165.30 253.95 C 165.31 251.97 163.48 250.73 162.40 249.30 Z" />
<path fill="#231818" opacity="1.00" d=" M 199.95 249.40 C 204.62 249.05 209.33 249.08 214.00 249.45 C 212.86 250.15 211.69 250.82 210.52 251.48 C 209.18 259.10 209.34 267.07 210.42 274.71 C 211.94 275.27 213.45 275.84 214.95 276.46 C 209.92 276.97 204.84 276.99 199.81 276.56 C 201.02 275.81 202.27 275.11 203.52 274.44 C 204.02 266.83 203.84 259.19 203.62 251.58 C 202.38 250.87 201.15 250.16 199.95 249.40 Z" />
<path fill="#231818" opacity="1.00" d=" M 229.96 249.41 C 237.49 248.51 245.16 248.55 252.70 249.32 C 252.72 252.04 252.77 254.76 252.60 257.47 C 250.71 255.64 249.83 252.95 247.70 251.34 C 245.09 250.37 242.26 250.67 239.56 250.97 C 239.60 254.55 239.62 258.14 239.64 261.72 C 242.54 261.93 245.27 260.82 245.90 257.71 C 246.29 257.57 247.06 257.30 247.45 257.16 C 247.31 261.02 247.45 264.90 247.10 268.76 C 245.79 267.00 244.50 265.22 243.19 263.47 C 242.29 263.49 240.49 263.53 239.59 263.55 C 239.59 267.08 239.58 270.62 239.69 274.15 C 241.06 275.02 242.45 275.88 243.84 276.73 C 238.89 276.88 233.94 276.87 229.00 276.63 C 230.47 275.89 231.95 275.17 233.43 274.46 C 233.76 266.86 233.73 259.23 233.46 251.63 C 232.28 250.90 231.11 250.17 229.96 249.41 Z" />
<path fill="#231818" opacity="1.00" d=" M 267.06 249.47 C 274.93 248.92 282.88 248.32 290.74 249.35 C 290.71 251.97 290.68 254.59 290.47 257.20 C 288.45 254.62 286.98 250.49 283.05 250.66 C 280.92 250.87 278.00 249.70 276.70 251.99 C 276.56 255.15 276.70 258.31 276.68 261.47 C 278.30 261.24 280.24 261.92 281.67 260.93 C 283.02 259.39 284.02 257.58 285.22 255.92 C 285.22 260.19 285.97 264.60 284.75 268.76 C 283.82 267.15 282.96 265.49 281.89 263.97 C 280.27 263.22 278.43 263.47 276.72 263.33 C 276.73 267.24 276.65 271.15 276.82 275.06 C 279.90 275.30 283.10 275.44 286.06 274.35 C 288.44 273.11 289.76 270.65 291.52 268.74 C 291.54 271.37 291.43 274.00 291.42 276.62 C 283.19 276.74 274.84 277.40 266.67 276.28 C 267.93 275.67 269.22 275.12 270.52 274.58 C 271.23 266.89 271.08 259.13 270.50 251.43 C 269.35 250.79 268.20 250.14 267.06 249.47 Z" />
</g>
</svg>
