<?xml version="1.0" encoding="UTF-8" ?>
<!DOCTYPE svg PUBLIC "-//W3C//DTD SVG 1.1//EN" "http://www.w3.org/Graphics/SVG/1.1/DTD/svg11.dtd">
<svg width="300pt" height="300pt" viewBox="0 0 300 300" version="1.1" xmlns="http://www.w3.org/2000/svg">
<g id="#fefefcff">
<path fill="#fefefc" opacity="1.00" d=" M 131.48 115.26 C 134.04 109.24 140.27 104.64 146.99 105.36 C 153.83 104.61 162.39 109.79 161.70 117.36 C 160.05 117.39 158.40 117.44 156.76 117.49 C 154.92 115.63 153.34 113.53 151.32 111.86 C 148.03 111.25 143.96 110.74 141.39 113.40 C 137.17 116.98 137.13 122.95 137.57 128.01 C 138.11 133.99 145.08 138.26 150.62 135.93 C 153.46 134.56 155.75 131.85 155.88 128.60 C 153.12 128.56 150.36 128.52 147.61 128.27 C 147.81 126.37 147.03 123.90 149.10 122.80 C 153.58 122.44 158.22 122.18 162.57 123.54 C 162.44 129.54 162.60 135.54 162.43 141.54 C 161.54 141.56 159.77 141.62 158.88 141.65 C 157.99 140.61 157.11 139.58 156.24 138.54 C 153.20 140.64 149.93 143.11 146.00 142.69 C 138.80 143.14 132.59 137.51 130.51 130.92 C 128.94 125.81 129.45 120.17 131.48 115.26 Z" />
<path fill="#fefefc" opacity="1.00" d=" M 178.60 106.00 C 182.24 104.89 186.17 105.27 189.92 105.52 C 196.60 106.69 201.40 113.32 201.60 119.92 C 201.81 125.28 202.30 131.18 198.90 135.75 C 193.97 143.95 181.80 144.83 174.50 139.51 C 168.65 134.59 167.75 126.23 168.57 119.09 C 169.70 113.55 173.08 108.01 178.60 106.00 M 181.26 112.02 C 176.40 114.72 174.95 120.83 175.56 126.01 C 175.74 131.01 179.39 136.98 185.00 136.57 C 190.89 136.86 195.22 130.49 194.59 125.02 C 195.11 119.84 193.21 113.56 187.93 111.59 C 185.73 111.37 183.33 111.11 181.26 112.02 Z" />
<path fill="#fefefc" opacity="1.00" d=" M 207.56 106.28 C 210.15 105.40 212.81 106.20 215.41 106.61 C 218.10 111.35 220.60 116.19 223.33 120.91 C 225.15 124.00 226.39 127.56 229.20 129.93 C 229.63 122.10 229.18 114.25 229.40 106.41 C 231.45 106.41 233.51 106.42 235.58 106.43 C 235.75 118.16 235.69 129.90 235.60 141.63 C 233.35 141.61 231.11 141.59 228.87 141.57 C 224.72 135.42 221.40 128.77 217.70 122.35 C 216.97 120.93 215.86 119.78 214.62 118.82 C 214.08 126.67 214.69 134.55 214.25 142.40 C 212.01 142.04 209.78 141.67 207.53 141.41 C 207.53 129.70 207.46 117.99 207.56 106.28 Z" />
<path fill="#fefefc" opacity="1.00" d=" M 68.56 121.03 C 70.44 116.06 71.71 110.81 74.48 106.23 C 77.05 106.36 79.61 106.43 82.17 106.53 C 85.98 118.23 90.63 129.68 93.90 141.54 C 91.53 141.59 89.16 141.60 86.79 141.61 C 85.90 139.29 85.00 136.98 84.15 134.65 C 79.93 134.43 75.71 134.49 71.49 134.55 C 70.39 136.88 69.37 139.25 68.31 141.60 C 66.23 141.60 64.15 141.61 62.07 141.60 C 63.07 134.42 66.49 127.92 68.56 121.03 M 73.99 128.38 C 76.56 128.46 79.14 128.47 81.71 128.44 C 81.40 124.03 79.72 119.91 77.95 115.92 C 75.65 119.69 74.32 123.98 73.99 128.38 Z" />
<path fill="#fefefc" opacity="1.00" d=" M 99.45 106.45 C 107.85 106.35 116.26 106.26 124.67 106.44 C 124.65 108.42 124.62 110.41 124.57 112.41 C 118.52 112.47 112.47 112.36 106.43 112.44 C 106.43 115.06 106.44 117.67 106.52 120.29 C 111.94 120.31 117.37 120.26 122.79 120.24 C 122.79 122.07 122.79 123.90 122.78 125.73 C 117.37 125.77 111.95 125.77 106.54 125.71 C 106.43 128.90 106.41 132.08 106.37 135.27 C 112.79 135.68 119.22 135.27 125.64 135.63 C 125.61 137.61 125.59 139.58 125.57 141.56 C 116.85 141.74 108.13 141.64 99.42 141.59 C 99.35 129.88 99.32 118.16 99.45 106.45 Z" />
<path fill="#fefefc" opacity="1.00" d=" M 86.64 163.72 C 96.49 163.43 106.35 163.48 116.20 163.69 C 115.76 165.56 115.50 167.46 115.28 169.37 C 111.98 169.82 108.68 170.33 105.34 170.45 C 105.19 180.07 105.36 189.69 105.26 199.32 C 102.71 199.41 100.17 199.45 97.62 199.45 C 97.52 189.76 97.61 180.07 97.54 170.38 C 94.24 170.06 90.63 170.93 87.55 169.39 C 86.18 167.85 86.88 165.59 86.64 163.72 Z" />
<path fill="#fefefc" opacity="1.00" d=" M 119.69 163.61 C 122.22 163.58 124.75 163.60 127.29 163.66 C 127.33 168.23 127.34 172.79 127.54 177.36 C 131.89 177.42 136.26 177.49 140.61 177.28 C 140.67 172.61 140.17 167.81 141.82 163.33 C 144.03 163.51 146.24 163.75 148.42 164.23 C 148.21 175.94 148.47 187.65 148.30 199.36 C 145.98 199.43 143.67 199.50 141.36 199.59 C 140.02 194.31 140.90 188.84 140.60 183.47 C 136.21 183.40 131.81 183.40 127.42 183.53 C 127.07 188.83 128.04 194.26 126.55 199.44 C 124.24 199.41 121.94 199.42 119.64 199.44 C 119.76 187.49 119.58 175.55 119.69 163.61 Z" />
<path fill="#fefefc" opacity="1.00" d=" M 152.41 163.63 C 162.02 163.59 171.65 163.35 181.26 163.73 C 181.25 165.61 181.25 167.50 181.27 169.39 C 177.63 169.57 173.98 169.54 170.38 170.16 C 170.36 178.13 170.39 186.09 170.38 194.05 C 170.46 195.94 169.73 197.70 169.17 199.46 C 167.36 199.46 165.54 199.49 163.73 199.56 C 163.21 197.76 162.55 195.95 162.61 194.05 C 162.56 186.06 162.67 178.07 162.58 170.08 C 159.18 169.53 155.74 169.53 152.31 169.54 C 152.34 167.57 152.37 165.60 152.41 163.63 Z" />
<path fill="#fefefc" opacity="1.00" d=" M 185.41 164.32 C 193.49 164.15 201.57 164.12 209.65 164.30 C 209.63 166.05 209.61 167.81 209.59 169.57 C 203.91 169.62 198.23 169.58 192.55 169.64 C 192.37 172.55 192.33 175.47 192.38 178.39 C 197.41 178.31 202.44 178.43 207.47 178.45 C 207.57 180.19 207.67 181.94 207.76 183.68 C 202.73 183.77 197.71 183.80 192.69 183.76 C 191.41 188.64 191.79 193.69 191.70 198.67 C 189.60 198.65 187.49 198.64 185.39 198.62 C 185.31 187.18 185.33 175.75 185.41 164.32 Z" />
</g>
<g id="#036aa7ff">
<path fill="#036aa7" opacity="1.00" d=" M 210.73 19.14 C 214.78 17.88 218.80 16.01 223.14 16.36 C 237.23 61.49 252.24 106.33 266.59 151.38 C 237.07 151.72 207.53 151.41 178.00 151.53 C 130.64 151.43 83.27 151.65 35.91 151.43 C 30.50 132.84 23.96 114.60 18.37 96.06 C 17.04 91.39 14.70 86.92 14.47 82.00 C 20.34 81.02 25.92 78.89 31.58 77.11 C 91.28 57.75 151.10 38.73 210.73 19.14 M 131.48 115.26 C 129.45 120.17 128.94 125.81 130.51 130.92 C 132.59 137.51 138.80 143.14 146.00 142.69 C 149.93 143.11 153.20 140.64 156.24 138.54 C 157.11 139.58 157.99 140.61 158.88 141.65 C 159.77 141.62 161.54 141.56 162.43 141.54 C 162.60 135.54 162.44 129.54 162.57 123.54 C 158.22 122.18 153.58 122.44 149.10 122.80 C 147.03 123.90 147.81 126.37 147.61 128.27 C 150.36 128.52 153.12 128.56 155.88 128.60 C 155.75 131.85 153.46 134.56 150.62 135.93 C 145.08 138.26 138.11 133.99 137.57 128.01 C 137.13 122.95 137.17 116.98 141.39 113.40 C 143.96 110.74 148.03 111.25 151.32 111.86 C 153.34 113.53 154.92 115.63 156.76 117.49 C 158.40 117.44 160.05 117.39 161.70 117.36 C 162.39 109.79 153.83 104.61 146.99 105.36 C 140.27 104.64 134.04 109.24 131.48 115.26 M 178.60 106.00 C 173.08 108.01 169.70 113.55 168.57 119.09 C 167.75 126.23 168.65 134.59 174.50 139.51 C 181.80 144.83 193.97 143.95 198.90 135.75 C 202.30 131.18 201.81 125.28 201.60 119.92 C 201.40 113.32 196.60 106.69 189.92 105.52 C 186.17 105.27 182.24 104.89 178.60 106.00 M 207.56 106.28 C 207.46 117.99 207.53 129.70 207.53 141.41 C 209.78 141.67 212.01 142.04 214.25 142.40 C 214.69 134.55 214.08 126.67 214.62 118.82 C 215.86 119.78 216.97 120.93 217.70 122.35 C 221.40 128.77 224.72 135.42 228.87 141.57 C 231.11 141.59 233.35 141.61 235.60 141.63 C 235.69 129.90 235.75 118.16 235.58 106.43 C 233.51 106.42 231.45 106.41 229.40 106.41 C 229.18 114.25 229.63 122.10 229.20 129.93 C 226.39 127.56 225.15 124.00 223.33 120.91 C 220.60 116.19 218.10 111.35 215.41 106.61 C 212.81 106.20 210.15 105.40 207.56 106.28 M 68.56 121.03 C 66.49 127.92 63.07 134.42 62.07 141.60 C 64.15 141.61 66.23 141.60 68.31 141.60 C 69.37 139.25 70.39 136.88 71.49 134.55 C 75.71 134.49 79.93 134.43 84.15 134.65 C 85.00 136.98 85.90 139.29 86.79 141.61 C 89.16 141.60 91.53 141.59 93.90 141.54 C 90.63 129.68 85.98 118.23 82.17 106.53 C 79.61 106.43 77.05 106.36 74.48 106.23 C 71.71 110.81 70.44 116.06 68.56 121.03 M 99.45 106.45 C 99.32 118.16 99.35 129.88 99.42 141.59 C 108.13 141.64 116.85 141.74 125.57 141.56 C 125.59 139.58 125.61 137.61 125.64 135.63 C 119.22 135.27 112.79 135.68 106.37 135.27 C 106.41 132.08 106.43 128.90 106.54 125.71 C 111.95 125.77 117.37 125.77 122.78 125.73 C 122.79 123.90 122.79 122.07 122.79 120.24 C 117.37 120.26 111.94 120.31 106.52 120.29 C 106.44 117.67 106.43 115.06 106.43 112.44 C 112.47 112.36 118.52 112.47 124.57 112.41 C 124.62 110.41 124.65 108.42 124.67 106.44 C 116.26 106.26 107.85 106.35 99.45 106.45 Z" />
<path fill="#036aa7" opacity="1.00" d=" M 181.26 112.02 C 183.33 111.11 185.73 111.37 187.93 111.59 C 193.21 113.56 195.11 119.84 194.59 125.02 C 195.22 130.49 190.89 136.86 185.00 136.57 C 179.39 136.98 175.74 131.01 175.56 126.01 C 174.95 120.83 176.40 114.72 181.26 112.02 Z" />
<path fill="#036aa7" opacity="1.00" d=" M 73.99 128.38 C 74.32 123.98 75.65 119.69 77.95 115.92 C 79.72 119.91 81.40 124.03 81.71 128.44 C 79.14 128.47 76.56 128.46 73.99 128.38 Z" />
</g>
<g id="#e53c2aff">
<path fill="#e53c2a" opacity="1.00" d=" M 38.20 155.55 C 114.57 155.25 190.94 155.47 267.31 155.44 C 269.51 159.74 270.71 164.44 272.27 168.99 C 277.85 187.16 284.11 205.11 289.70 223.27 C 284.55 225.77 278.92 226.96 273.55 228.85 C 254.46 235.31 235.22 241.27 216.05 247.44 C 176.81 260.36 137.37 272.67 98.13 285.59 C 92.54 287.06 87.20 289.92 81.29 289.80 C 67.14 247.28 53.61 204.54 39.68 161.95 C 38.99 159.86 38.52 157.71 38.20 155.55 M 86.64 163.72 C 86.88 165.59 86.18 167.85 87.55 169.39 C 90.63 170.93 94.24 170.06 97.54 170.38 C 97.61 180.07 97.52 189.76 97.62 199.45 C 100.17 199.45 102.71 199.41 105.26 199.32 C 105.36 189.69 105.19 180.07 105.34 170.45 C 108.68 170.33 111.98 169.82 115.28 169.37 C 115.50 167.46 115.76 165.56 116.20 163.69 C 106.35 163.48 96.49 163.43 86.64 163.72 M 119.69 163.61 C 119.58 175.55 119.76 187.49 119.64 199.44 C 121.94 199.42 124.24 199.41 126.55 199.44 C 128.04 194.26 127.07 188.83 127.42 183.53 C 131.81 183.40 136.21 183.40 140.60 183.47 C 140.90 188.84 140.02 194.31 141.36 199.59 C 143.67 199.50 145.98 199.43 148.30 199.36 C 148.47 187.65 148.21 175.94 148.42 164.23 C 146.24 163.75 144.03 163.51 141.82 163.33 C 140.17 167.81 140.67 172.61 140.61 177.28 C 136.26 177.49 131.89 177.42 127.54 177.36 C 127.34 172.79 127.33 168.23 127.29 163.66 C 124.75 163.60 122.22 163.58 119.69 163.61 M 152.41 163.63 C 152.37 165.60 152.34 167.57 152.31 169.54 C 155.74 169.53 159.18 169.53 162.58 170.08 C 162.67 178.07 162.56 186.06 162.61 194.05 C 162.55 195.95 163.21 197.76 163.73 199.56 C 165.54 199.49 167.36 199.46 169.17 199.46 C 169.73 197.70 170.46 195.94 170.38 194.05 C 170.39 186.09 170.36 178.13 170.38 170.16 C 173.98 169.54 177.63 169.57 181.27 169.39 C 181.25 167.50 181.25 165.61 181.26 163.73 C 171.65 163.35 162.02 163.59 152.41 163.63 M 185.41 164.32 C 185.33 175.75 185.31 187.18 185.39 198.62 C 187.49 198.64 189.60 198.65 191.70 198.67 C 191.79 193.69 191.41 188.64 192.69 183.76 C 197.71 183.80 202.73 183.77 207.76 183.68 C 207.67 181.94 207.57 180.19 207.47 178.45 C 202.44 178.43 197.41 178.31 192.38 178.39 C 192.33 175.47 192.37 172.55 192.55 169.64 C 198.23 169.58 203.91 169.62 209.59 169.57 C 209.61 167.81 209.63 166.05 209.65 164.30 C 201.57 164.12 193.49 164.15 185.41 164.32 Z" />
</g>
</svg>
