<?xml version="1.0" encoding="UTF-8" ?>
<!DOCTYPE svg PUBLIC "-//W3C//DTD SVG 1.1//EN" "http://www.w3.org/Graphics/SVG/1.1/DTD/svg11.dtd">
<svg width="300pt" height="300pt" viewBox="0 0 300 300" version="1.1" xmlns="http://www.w3.org/2000/svg">
<g id="#2adb91ff">
<path fill="#2adb91" opacity="1.00" d=" M 65.41 1.54 C 116.94 1.28 168.47 1.51 220.00 1.43 C 226.66 1.56 233.39 0.99 239.99 2.19 C 263.73 5.36 284.99 22.21 293.66 44.52 C 297.12 52.87 298.71 61.94 298.57 70.96 C 298.55 123.32 298.52 175.68 298.52 228.04 C 298.87 243.76 293.82 259.64 284.05 272.01 C 271.44 288.58 250.82 298.53 230.05 298.52 C 176.03 298.50 122.02 298.53 68.01 298.50 C 53.38 297.98 38.87 292.82 27.43 283.62 C 11.17 270.99 1.49 250.57 1.47 230.03 C 1.48 176.67 1.44 123.32 1.43 69.96 C 1.33 55.50 6.09 41.09 14.66 29.46 C 26.37 13.30 45.50 2.80 65.41 1.54 M 99.38 84.47 C 95.80 85.89 93.39 89.09 90.67 91.67 C 76.13 106.12 61.51 120.50 47.07 135.05 C 44.16 137.74 43.71 142.20 45.10 145.76 C 46.91 149.29 50.90 151.81 54.93 151.32 C 57.78 150.93 60.11 149.06 62.06 147.07 C 73.18 135.85 84.89 125.23 96.02 114.02 C 97.84 112.32 99.57 110.27 102.04 109.55 C 104.35 109.15 106.01 111.11 107.57 112.47 C 119.02 124.01 130.66 135.36 142.15 146.86 C 144.37 148.94 146.81 151.28 150.01 151.53 C 155.73 152.24 161.47 146.84 160.70 141.02 C 160.69 137.96 158.55 135.54 156.52 133.49 C 142.93 120.08 129.43 106.57 115.77 93.23 C 113.05 90.62 110.51 87.78 107.46 85.55 C 105.16 83.83 102.06 84.03 99.38 84.47 M 99.54 149.70 C 95.52 151.29 93.00 155.08 89.87 157.87 C 75.67 171.68 61.42 185.45 47.41 199.45 C 45.37 201.39 44.08 204.10 44.34 206.96 C 44.18 213.12 51.09 218.20 56.93 216.17 C 60.17 214.94 62.44 212.19 64.87 209.87 C 76.06 198.73 87.23 187.57 98.43 176.45 C 100.29 174.10 104.01 173.37 106.06 175.88 C 118.58 187.71 130.88 199.78 143.29 211.72 C 145.41 213.66 147.94 215.73 151.00 215.58 C 154.57 215.67 157.31 213.01 159.75 210.76 C 172.02 198.97 184.06 186.94 196.64 175.50 C 199.22 172.88 202.52 175.55 204.47 177.56 C 216.15 189.21 228.14 200.55 239.82 212.20 C 241.60 213.90 243.53 215.70 246.06 216.12 C 251.95 217.29 258.09 212.03 257.75 206.02 C 257.79 202.94 255.67 200.44 253.63 198.37 C 238.09 183.25 222.44 168.24 207.05 152.96 C 204.96 150.76 202.14 149.04 198.99 149.31 C 194.80 149.11 191.87 152.49 189.09 155.10 C 177.71 166.38 166.15 177.49 154.46 188.44 C 152.62 190.38 149.46 190.24 147.62 188.38 C 134.53 176.49 122.09 163.88 109.07 151.91 C 106.60 149.46 102.82 148.81 99.54 149.70 Z" />
</g>
<g id="#ffffffff">
<path fill="#ffffff" opacity="1.00" d=" M 99.38 84.47 C 102.06 84.03 105.16 83.83 107.46 85.55 C 110.51 87.78 113.05 90.62 115.77 93.23 C 129.43 106.57 142.93 120.08 156.52 133.49 C 158.55 135.54 160.69 137.96 160.70 141.02 C 161.47 146.84 155.73 152.24 150.01 151.53 C 146.81 151.28 144.37 148.94 142.15 146.86 C 130.66 135.36 119.02 124.01 107.57 112.47 C 106.01 111.11 104.35 109.15 102.04 109.55 C 99.57 110.27 97.84 112.32 96.02 114.02 C 84.89 125.23 73.18 135.85 62.06 147.07 C 60.11 149.06 57.78 150.93 54.93 151.32 C 50.90 151.81 46.91 149.29 45.10 145.76 C 43.71 142.20 44.16 137.74 47.07 135.05 C 61.51 120.50 76.13 106.12 90.67 91.67 C 93.39 89.09 95.80 85.89 99.38 84.47 Z" />
<path fill="#ffffff" opacity="1.00" d=" M 99.54 149.70 C 102.82 148.81 106.60 149.46 109.07 151.91 C 122.09 163.88 134.53 176.49 147.62 188.38 C 149.46 190.24 152.62 190.38 154.46 188.44 C 166.15 177.49 177.71 166.38 189.09 155.10 C 191.87 152.49 194.80 149.11 198.99 149.31 C 202.14 149.04 204.96 150.76 207.05 152.96 C 222.44 168.24 238.09 183.25 253.63 198.37 C 255.67 200.44 257.79 202.94 257.75 206.02 C 258.09 212.03 251.95 217.29 246.06 216.12 C 243.53 215.70 241.60 213.90 239.82 212.20 C 228.14 200.55 216.15 189.21 204.47 177.56 C 202.52 175.55 199.22 172.88 196.64 175.50 C 184.06 186.94 172.02 198.97 159.75 210.76 C 157.31 213.01 154.57 215.67 151.00 215.58 C 147.94 215.73 145.41 213.66 143.29 211.72 C 130.88 199.78 118.58 187.71 106.06 175.88 C 104.01 173.37 100.29 174.10 98.43 176.45 C 87.23 187.57 76.06 198.73 64.87 209.87 C 62.44 212.19 60.17 214.94 56.93 216.17 C 51.09 218.20 44.18 213.12 44.34 206.96 C 44.08 204.10 45.37 201.39 47.41 199.45 C 61.42 185.45 75.67 171.68 89.87 157.87 C 93.00 155.08 95.52 151.29 99.54 149.70 Z" />
</g>
</svg>
