<?xml version="1.0" encoding="UTF-8" ?>
<!DOCTYPE svg PUBLIC "-//W3C//DTD SVG 1.1//EN" "http://www.w3.org/Graphics/SVG/1.1/DTD/svg11.dtd">
<svg width="300pt" height="300pt" viewBox="0 0 300 300" version="1.1" xmlns="http://www.w3.org/2000/svg">
<g id="#ffffffff">
<path fill="#ffffff" opacity="1.00" d=" M 125.89 261.46 C 126.66 259.15 127.40 256.85 128.15 254.54 C 128.94 256.83 129.67 259.14 130.51 261.42 C 128.97 261.44 127.43 261.45 125.89 261.46 Z" />
</g>
<g id="#0068b5ff">
<path fill="#0068b5" opacity="1.00" d=" M 64.57 26.65 C 91.00 26.65 117.43 26.62 143.85 26.67 C 143.83 40.93 143.84 55.18 143.85 69.44 C 127.25 67.21 109.03 67.35 94.26 76.28 C 87.21 80.40 82.29 87.44 80.19 95.27 C 76.55 107.71 76.32 120.83 76.81 133.69 C 80.76 125.42 88.68 118.79 98.07 118.26 C 113.57 117.95 129.89 119.05 144.39 112.55 C 144.42 130.15 144.39 147.76 144.41 165.36 C 117.10 170.04 90.05 176.97 64.61 188.07 C 64.51 134.27 64.59 80.46 64.57 26.65 Z" />
</g>
<g id="#58b54aff">
<path fill="#58b54a" opacity="1.00" d=" M 150.15 26.66 C 175.54 26.65 200.93 26.64 226.32 26.67 C 226.31 70.67 226.32 114.67 226.32 158.67 C 200.95 158.69 175.60 160.66 150.52 164.45 C 150.53 148.40 150.51 132.36 150.52 116.31 C 163.22 117.22 176.28 118.11 188.61 114.20 C 198.79 111.40 208.64 104.89 212.67 94.76 C 218.20 81.21 217.98 66.22 217.50 51.84 C 215.27 55.64 213.04 59.66 209.35 62.25 C 204.13 66.16 197.44 67.58 191.01 67.43 C 177.31 67.16 162.94 67.05 150.21 72.87 C 150.08 57.46 150.19 42.06 150.15 26.66 Z" />
</g>
<g id="#fdd900ff">
<path fill="#fdd900" opacity="1.00" d=" M 209.35 62.25 C 213.04 59.66 215.27 55.64 217.50 51.84 C 217.98 66.22 218.20 81.21 212.67 94.76 C 208.64 104.89 198.79 111.40 188.61 114.20 C 176.28 118.11 163.22 117.22 150.52 116.31 C 150.51 132.36 150.53 148.40 150.52 164.45 C 148.47 164.70 146.44 165.03 144.41 165.36 C 144.39 147.76 144.42 130.15 144.39 112.55 C 144.49 101.69 144.39 90.82 144.41 79.96 C 144.10 76.42 147.51 74.34 150.21 72.87 C 162.94 67.05 177.31 67.16 191.01 67.43 C 197.44 67.58 204.13 66.16 209.35 62.25 Z" />
</g>
<g id="#020202ff">
<path fill="#020202" opacity="1.00" d=" M 219.72 195.62 C 221.64 196.10 223.59 196.50 225.54 196.85 C 224.50 198.64 223.65 200.52 223.10 202.52 C 226.87 202.66 230.64 202.58 234.42 202.65 C 235.19 201.40 235.97 200.16 236.75 198.93 C 238.28 200.48 239.84 202.02 241.30 203.66 C 235.17 204.18 229.00 203.51 222.89 204.25 C 222.72 205.97 222.54 207.70 222.35 209.43 C 225.93 209.41 229.50 209.42 233.08 209.41 C 233.72 208.29 234.37 207.18 235.02 206.08 C 236.50 207.49 237.95 208.94 239.32 210.46 C 233.53 210.84 227.72 210.66 221.92 210.70 C 221.60 212.53 221.27 214.37 220.95 216.20 C 225.74 216.11 230.53 216.32 235.32 216.12 C 236.50 215.19 237.01 213.19 238.70 213.07 C 240.20 214.34 241.49 215.84 242.81 217.31 C 235.29 217.73 227.75 217.48 220.22 217.54 C 219.38 219.92 218.49 222.29 217.44 224.58 C 221.75 224.57 226.06 224.61 230.37 224.52 C 230.12 222.74 229.86 220.97 229.61 219.19 C 231.59 218.79 233.59 219.05 235.57 219.33 C 234.51 220.89 233.71 222.59 233.46 224.48 C 234.38 224.52 236.22 224.59 237.14 224.63 C 237.73 223.56 238.33 222.50 238.94 221.44 C 240.27 222.77 241.61 224.11 242.90 225.50 C 239.94 226.18 236.50 225.06 233.86 226.55 C 233.64 230.09 233.74 233.67 234.22 237.19 C 233.96 240.67 230.98 242.55 227.94 243.41 C 226.87 241.45 225.49 239.70 223.86 238.19 L 222.52 239.50 C 222.52 238.86 222.43 238.16 222.95 237.68 C 225.09 237.81 227.21 238.17 229.34 238.37 C 230.58 234.44 230.10 230.31 230.21 226.28 C 228.46 226.15 226.73 225.94 225.00 225.74 C 222.32 225.84 219.63 225.84 216.95 225.82 C 214.20 230.73 210.29 234.90 205.92 238.43 C 205.55 238.43 204.80 238.43 204.43 238.43 C 209.65 232.26 213.82 225.22 216.47 217.58 C 212.70 217.55 208.94 217.56 205.17 217.56 C 205.16 217.22 205.13 216.54 205.12 216.20 C 208.85 216.14 212.60 216.32 216.33 216.11 C 218.10 215.03 217.34 212.44 217.92 210.72 C 214.64 210.29 210.83 211.69 207.89 209.73 C 211.37 209.23 214.90 209.43 218.41 209.45 C 218.66 207.59 218.92 205.73 219.20 203.88 C 215.05 203.90 210.90 203.78 206.76 204.05 C 206.71 203.69 206.60 202.97 206.54 202.61 C 210.81 202.61 215.09 202.61 219.36 202.63 C 219.50 200.29 219.63 197.96 219.72 195.62 Z" />
<path fill="#020202" opacity="1.00" d=" M 62.19 196.19 C 63.81 196.34 65.43 196.49 67.05 196.64 C 65.71 200.18 66.12 204.00 66.09 207.70 C 69.69 207.21 74.66 209.36 76.65 205.23 C 78.12 205.74 79.49 206.52 80.79 207.36 C 78.40 214.10 80.04 221.38 79.68 228.38 C 78.37 228.75 77.06 229.14 75.74 229.50 C 75.73 228.05 75.72 226.59 75.71 225.14 C 72.50 225.16 69.29 225.16 66.08 225.16 C 66.07 230.98 66.16 236.79 66.34 242.61 C 64.83 242.56 62.66 244.18 61.77 242.34 C 62.39 236.64 62.32 230.91 62.35 225.18 C 59.09 225.15 55.83 225.15 52.57 225.19 C 52.57 225.98 52.58 227.58 52.59 228.37 C 51.28 228.75 49.97 229.14 48.67 229.52 C 48.90 221.69 49.01 213.87 48.70 206.05 C 53.03 207.90 57.73 207.88 62.35 207.66 C 62.31 203.84 62.29 200.02 62.19 196.19 M 52.58 209.23 C 52.61 214.04 52.61 218.85 52.58 223.65 C 55.84 223.68 59.09 223.68 62.34 223.65 C 62.30 218.85 62.30 214.05 62.34 209.25 C 59.09 209.20 55.84 209.20 52.58 209.23 M 66.08 209.20 C 66.10 214.02 66.11 218.85 66.07 223.67 C 69.29 223.67 72.50 223.66 75.72 223.70 C 75.72 218.87 75.70 214.04 75.73 209.21 C 72.51 209.22 69.30 209.21 66.08 209.20 Z" />
<path fill="#020202" opacity="1.00" d=" M 108.25 196.15 C 109.93 196.29 111.61 196.44 113.29 196.60 C 112.80 197.64 112.30 198.68 111.80 199.72 C 111.79 200.67 111.78 201.62 111.77 202.58 C 114.92 202.63 118.06 202.62 121.21 202.57 C 121.21 200.42 121.21 198.28 121.22 196.14 C 122.42 196.26 124.83 196.49 126.03 196.61 C 125.11 198.49 124.37 200.45 124.29 202.57 C 126.21 202.60 128.13 202.60 130.05 202.58 C 130.70 201.46 131.37 200.36 132.02 199.24 C 133.47 200.69 134.92 202.14 136.28 203.68 C 132.37 203.99 128.44 203.77 124.53 204.02 C 124.55 205.74 124.57 207.46 124.57 209.19 C 123.46 209.41 122.34 209.62 121.23 209.84 C 121.22 207.96 121.21 206.08 121.22 204.20 C 118.10 203.81 114.94 203.81 111.81 204.18 C 111.79 205.99 111.77 207.81 111.73 209.63 C 110.58 209.82 109.44 210.01 108.30 210.20 C 108.34 208.09 108.39 205.97 108.41 203.86 C 105.00 203.87 101.57 204.05 98.18 203.57 C 101.26 201.72 105.06 202.95 108.44 202.63 C 108.38 200.46 108.31 198.31 108.25 196.15 Z" />
<path fill="#020202" opacity="1.00" d=" M 166.32 197.02 C 168.44 197.30 170.56 197.59 172.67 197.90 C 172.08 198.82 171.50 199.75 170.91 200.69 C 172.70 210.91 174.88 221.47 180.85 230.17 C 182.95 233.36 185.85 235.91 189.04 237.96 C 186.70 239.03 185.05 240.96 183.92 243.23 C 174.07 233.65 172.48 219.38 170.01 206.59 C 170.65 220.96 164.99 237.46 150.99 243.65 C 153.50 239.67 157.27 236.62 159.49 232.42 C 166.05 221.89 166.74 209.08 166.32 197.02 Z" />
<path fill="#020202" opacity="1.00" d=" M 114.69 208.16 C 116.45 208.31 118.21 208.47 119.97 208.64 C 119.36 210.30 118.74 211.97 118.22 213.67 C 121.13 213.73 124.96 214.89 125.95 211.13 C 127.55 212.04 129.13 212.96 130.72 213.89 C 130.08 214.72 129.43 215.54 128.79 216.38 C 128.79 219.91 128.73 223.45 128.91 226.98 C 130.30 225.98 131.52 224.78 132.55 223.42 C 133.80 224.79 135.07 226.15 136.28 227.55 C 130.67 227.94 125.04 227.66 119.42 227.80 C 122.91 233.09 128.31 237.30 134.76 238.06 C 133.25 239.56 132.03 241.31 131.21 243.29 C 128.07 241.72 124.74 240.13 122.63 237.21 C 120.32 234.41 119.21 230.90 118.02 227.53 C 116.46 236.78 107.51 242.82 98.61 243.49 C 101.43 240.90 105.25 239.78 108.02 237.12 C 110.96 234.70 113.01 231.40 114.13 227.79 C 108.94 227.74 103.76 227.76 98.57 227.79 L 98.59 226.39 C 100.65 226.41 102.72 226.42 104.78 226.44 C 104.84 221.74 104.81 217.03 104.65 212.33 C 107.88 213.54 111.29 214.08 114.71 214.34 C 114.76 212.28 114.74 210.21 114.69 208.16 M 118.61 215.34 C 118.68 219.06 118.53 222.77 118.24 226.48 C 120.58 226.43 122.93 226.41 125.28 226.38 C 125.26 222.70 125.24 219.03 125.28 215.36 C 123.06 215.34 120.83 215.34 118.61 215.34 M 108.32 215.33 C 108.33 219.03 108.33 222.73 108.33 226.44 C 110.31 226.43 112.30 226.43 114.28 226.43 C 114.68 222.75 114.84 219.04 114.83 215.34 C 112.66 215.33 110.49 215.33 108.32 215.33 Z" />
<path fill="#020202" opacity="1.00" d=" M 217.16 228.18 C 221.91 227.37 225.45 236.35 219.49 237.10 C 218.95 234.10 216.92 231.20 217.16 228.18 Z" />
<path fill="#020202" opacity="1.00" d=" M 149.94 255.96 C 151.43 251.97 155.95 249.98 160.01 250.35 C 161.69 250.61 164.02 250.07 165.08 251.76 C 165.04 252.55 164.96 254.13 164.92 254.92 C 162.46 254.46 159.84 253.62 157.38 254.57 C 153.51 256.38 153.22 262.93 157.21 264.77 C 159.64 266.19 162.53 265.26 165.08 264.75 C 165.12 265.69 165.20 267.56 165.24 268.50 C 161.09 269.45 156.31 269.79 152.71 267.10 C 149.18 264.68 148.67 259.74 149.94 255.96 Z" />
<path fill="#020202" opacity="1.00" d=" M 173.56 250.71 C 177.14 249.90 181.52 250.12 184.08 253.11 C 186.55 256.29 186.73 260.85 185.24 264.49 C 182.34 270.83 171.66 270.90 168.72 264.57 C 166.54 259.70 167.80 252.34 173.56 250.71 M 173.07 261.89 C 173.51 263.67 174.89 265.84 177.01 265.50 C 179.11 265.82 180.44 263.63 180.79 261.86 C 182.04 258.54 180.25 254.73 176.99 253.41 C 173.63 254.68 171.90 258.51 173.07 261.89 Z" />
<path fill="#020202" opacity="1.00" d=" M 208.17 252.37 C 211.69 249.59 216.42 250.34 220.54 250.83 C 220.51 252.22 220.49 253.61 220.46 255.01 C 217.91 254.50 215.11 253.01 212.67 254.71 C 209.41 256.29 209.62 260.35 210.54 263.31 C 213.27 265.85 217.12 265.94 220.49 264.67 C 220.55 265.94 220.63 267.22 220.71 268.50 C 215.38 270.05 208.71 269.30 205.51 264.24 C 204.18 260.18 204.47 255.09 208.17 252.37 Z" />
<path fill="#020202" opacity="1.00" d=" M 228.78 250.79 C 232.30 249.93 236.55 249.97 239.27 252.74 C 243.15 257.26 242.41 265.15 237.26 268.46 C 235.15 268.79 233.04 269.15 230.92 269.40 C 228.31 268.47 225.30 267.39 224.25 264.54 C 222.15 259.79 223.27 252.65 228.78 250.79 M 228.50 258.02 C 227.58 261.42 229.66 266.78 233.95 265.32 C 238.21 262.51 237.42 254.65 232.16 253.46 C 230.59 254.65 228.41 255.70 228.50 258.02 Z" />
<path fill="#020202" opacity="1.00" d=" M 56.01 250.62 C 58.04 250.60 60.07 250.59 62.10 250.60 C 64.39 256.66 66.67 262.74 69.15 268.73 C 67.31 268.75 65.47 268.77 63.63 268.78 C 63.23 267.57 62.82 266.36 62.42 265.16 C 60.25 264.95 58.07 264.82 55.89 264.75 C 55.28 266.06 54.74 267.42 54.01 268.68 C 52.39 268.82 50.76 268.78 49.13 268.80 C 51.44 262.74 53.79 256.71 56.01 250.62 M 56.64 261.46 C 58.12 261.46 59.60 261.45 61.08 261.46 C 60.45 259.17 59.79 256.88 59.07 254.62 C 58.23 256.89 57.44 259.18 56.64 261.46 Z" />
<path fill="#020202" opacity="1.00" d=" M 69.53 250.60 C 71.32 250.59 73.11 250.59 74.90 250.60 C 76.18 255.28 77.45 259.96 78.91 264.59 C 80.36 259.95 81.66 255.28 82.93 250.60 C 84.62 250.60 86.31 250.60 88.00 250.61 C 86.09 256.66 83.80 262.59 81.98 268.67 C 79.88 268.75 77.79 268.77 75.69 268.80 C 73.66 262.72 71.70 256.63 69.53 250.60 Z" />
<path fill="#020202" opacity="1.00" d=" M 91.29 268.77 C 91.31 262.71 91.28 256.64 91.32 250.58 C 92.94 250.58 94.56 250.59 96.18 250.59 C 96.18 256.66 96.17 262.72 96.19 268.79 C 94.56 268.78 92.93 268.77 91.29 268.77 Z" />
<path fill="#020202" opacity="1.00" d=" M 99.32 250.62 C 101.06 250.59 102.81 250.57 104.56 250.54 C 106.04 255.26 107.17 260.09 108.84 264.75 C 110.03 260.00 111.39 255.30 112.74 250.60 C 114.43 250.59 116.13 250.60 117.82 250.61 C 115.72 256.65 113.73 262.72 111.62 268.76 C 109.57 268.77 107.53 268.77 105.48 268.79 C 103.46 262.72 101.48 256.64 99.32 250.62 Z" />
<path fill="#020202" opacity="1.00" d=" M 118.29 268.69 C 120.79 262.71 122.88 256.56 125.34 250.56 C 127.31 250.58 129.28 250.59 131.25 250.60 C 133.60 256.66 135.90 262.75 138.31 268.79 C 136.47 268.78 134.64 268.77 132.80 268.75 C 132.35 267.42 131.88 266.10 131.41 264.78 C 129.53 264.81 127.66 264.76 125.79 264.93 C 124.05 265.33 124.05 267.56 123.18 268.80 C 121.55 268.77 119.92 268.74 118.29 268.69 M 125.89 261.46 C 127.43 261.45 128.97 261.44 130.51 261.42 C 129.67 259.14 128.94 256.83 128.15 254.54 C 127.40 256.85 126.66 259.15 125.89 261.46 Z" />
<path fill="#020202" opacity="1.00" d=" M 189.63 250.60 C 193.70 250.59 197.78 250.59 201.86 250.59 C 201.83 251.51 201.78 253.33 201.75 254.24 C 199.37 254.23 196.98 254.22 194.60 254.21 C 194.61 255.51 194.62 256.82 194.64 258.13 C 196.96 258.12 199.28 258.10 201.60 258.09 C 201.62 258.95 201.65 260.67 201.67 261.53 C 199.31 261.53 196.96 261.51 194.61 261.50 C 194.61 263.92 194.62 266.35 194.64 268.79 C 192.96 268.77 191.29 268.77 189.61 268.76 C 189.65 262.71 189.63 256.66 189.63 250.60 Z" />
<path fill="#020202" opacity="1.00" d=" M 139.34 260.20 C 141.70 260.20 144.07 260.21 146.44 260.21 C 146.44 261.05 146.45 262.75 146.45 263.59 C 144.08 263.60 141.71 263.60 139.33 263.62 C 139.33 262.47 139.34 261.33 139.34 260.20 Z" />
</g>
</svg>
