<svg version="1.1" id="图层_1" xmlns="http://www.w3.org/2000/svg" x="0" y="0" viewBox="0 0 450 140" style="enable-background:new 0 0 450 140" xml:space="preserve"><style>.st0{fill:#f90}</style><path d="M12.6 8c6.7-5.5 15.6-7.2 24-7 7.2.4 14.9 2.3 20.2 7.7 3.8 3.9 5.2 9.7 5.3 15 .2 8.7 0 17.2.1 25.9.1 3.6-.4 7.5 1 10.9 1 2.7 2.8 4.7 4.3 7.2.7 1 .9 2.7-.2 3.4-3.4 3.1-6.9 6.1-10.3 9.1-.9.9-2.4 1.4-3.5.7-3.4-2.4-5.8-5.9-8-9.5-4.1 4.4-9 8.4-14.9 9.6-6.2 1.2-13 1.2-18.7-2-4.7-2.6-7.9-7.4-9-12.5-1.3-5.9-1-12.2 1.4-17.7 2.6-6.1 8-10.7 14.1-12.9 7.8-3 16.3-3.3 24.5-4.2-.1-4.3.6-9.4-2.4-12.9-5.2-5.2-15.8-2.9-17.8 4.6-.4 1.5-.8 3.6-2.7 3.6-3.7-.3-7.4-.8-11.1-1.2-1.3-.2-2.7-.1-3.8-.9-.8-.7-.8-1.8-.6-2.7 1-5.4 3.8-10.6 8.1-14.2m15.8 37.9c-3.1 1.7-5.4 4.7-6 8.4s-.3 7.8 2.2 10.7c2.4 2.9 6.7 3.2 9.9 1.6 3.1-1.5 5.3-4.5 6.6-7.7 2-4.9 1.5-10.4 1.5-15.8-4.9.2-9.9.6-14.2 2.8zM196.9 5.6c7.2-4.1 15.8-5.1 24-4.3 6.8.8 14 3.3 18.2 9.2 3.6 4.9 4 11.5 3.9 17.4v26.4c0 3.2.7 6.2 2.3 8.8 1 1.9 2.5 3.3 3.4 5.3.5 1.1.2 2.4-.8 3.1-3.4 3-6.8 5.9-10.1 8.9-1 1-2.6 1.5-3.8.6-3.2-2.5-5.6-5.8-7.8-9.3-4.1 4.3-8.9 8.3-14.8 9.5-6.4 1.2-13.6 1.3-19.4-2.2-4.7-2.8-7.7-7.8-8.7-13.1-1-5.7-.7-11.8 1.8-17.1 2.7-6.1 8.3-10.5 14.4-12.8 7.7-2.8 15.9-3.2 24-4-.1-3.7.5-7.8-1.2-11.4-1.7-3.3-5.5-4.6-8.8-4.3-4.3.1-8.8 2.8-10 7.3-.4 1.5-.8 3.5-2.6 3.7-4.4-.4-8.8-.9-13.2-1.4-1.3-.1-2.6-1-2.5-2.5.9-7.5 5.4-14.2 11.7-17.8m11.9 40.7c-3.2 1.9-5.3 5.4-5.6 9.1-.3 3.3 0 7.2 2.4 9.8 2.4 2.9 6.7 3.2 9.9 1.6 3.2-1.5 5.3-4.6 6.6-7.8 1.9-4.9 1.5-10.4 1.4-15.7-5.1 0-10.3.4-14.7 3zM103.6 4.9c5-3.4 11.6-3.9 17.2-2.2 5.6 1.9 9.3 7.1 11.5 12.4 1.5-4 4.1-7.7 7.8-10.1 8.1-5.4 20.2-4.1 26.5 3.6 3.8 4.6 4.4 10.9 4.3 16.7-.2 17.6-.1 35.3-.1 52.9.2 1.6-1.3 2.9-2.7 2.7-4.6 0-9.1.1-13.7 0-1.6 0-2.7-1.6-2.5-3.2 0-15.1-.1-30.1.1-45.2-.1-3.6.1-8-2.7-10.7-3.5-3-9.2-2.3-12.2 1.2-2.8 3.2-2.8 7.6-3 11.6v43c.1 1.4-.8 3.1-2.2 3.1-4.2.2-8.5 0-12.7.1-1.1-.1-2.5.2-3.3-.7-.8-.7-.8-2-.8-3V40.3c0-4.7.4-9.7-.7-14.3-.6-2.3-1.9-4.6-4.1-5.6-2.6-1.1-5.6-1-8.1.4s-3.7 4.2-4.3 7c-.9 4.5-.7 9.1-.8 13.6v36.8c.1 1.5-1.3 2.8-2.7 2.7-4.4.1-8.8 0-13.2 0-1.2.1-2.6-.5-3-1.8-.2-1.2-.1-2.4-.1-3.5V6.2c-.2-1.6 1.1-3 2.6-2.9 4.2-.1 8.5-.1 12.7 0 1.4-.1 2.8 1 2.8 2.5.1 3.3 0 6.4.1 9.7 1.4-4.1 3.7-8.2 7.3-10.6zm239.1-2.5c7.4-1.6 15.4-.6 21.9 3.3 6.1 3.7 10.5 9.9 13 16.7 3.1 8.5 3.9 17.6 3 26.5-1.1 9.8-5 19.8-12.5 26.4-10.4 9.4-27.6 9.4-37.8-.3-7.2-6.7-10.6-16.6-11.7-26.3-1.1-10.9.1-22.4 5.4-32 3.9-7.1 10.7-12.7 18.7-14.3m4.5 14.4c-2.9.7-5.1 3.2-6.2 5.9-2.2 5.4-2.2 11.3-2.4 17 .1 6 .1 12 1.6 17.8.7 2.9 1.9 5.8 4.1 7.7 3.2 2.9 8.5 2.4 11.4-.7 2-2.2 3.1-5.1 3.7-8 1-4.5 1.1-9.2 1.1-13.9.1-5.8-.2-11.6-1.5-17.2-.6-2.6-1.5-5.2-3.5-7-2.2-1.7-5.5-2.1-8.3-1.6zM417.1 5c4.7-3.4 11-3.8 16.5-2.6 6.1 1.4 11 6.5 12.7 12.7 1.5 5.5 1.6 11.3 1.6 16.9v46.2c.1 1.6-1.4 2.9-2.9 2.7h-13.7c-1.6.1-2.6-1.7-2.4-3.2.1-14.3-.1-28.8.1-43-.2-4.1-.1-8.7-2.5-12.1-2.7-3.7-8.8-3.6-11.8-.4-3.4 3.5-4.1 8.8-4.3 13.5-.1 14 0 28-.1 42 .2 1.8-1.4 3.3-3.1 3.3H394c-1.5.1-2.9-1.2-2.8-2.7V6.2c-.2-1.7 1.3-3 2.8-2.9 4-.1 8.1 0 12.1 0 1.4-.1 3.1.7 3 2.4.1 3.6 0 7.5.1 11.1 1.9-4.5 4-9 7.9-11.8zm-157.4.6c0-1.6 1.4-2.7 2.8-2.5h45c1.4-.1 2.7 1.1 2.6 2.5.1 2.8 0 5.6 0 8.4.1 2.3-1.4 4.1-2.5 6-8.1 11.8-16.2 23.7-24.3 35.6 8.8-.3 17.9 1.1 25.7 5.6 1.7.8 2.7 2.8 2.6 4.7v10.4c.1 1.5-1.1 3-2.6 2.9-1.4-.5-2.7-1.3-4.1-1.9-13.1-5.8-28.7-5.8-41.7.3-1.3.6-2.4 1.4-3.8 1.7-1.4-.1-2.5-1.6-2.4-3V65.4c0-2.5.6-5 2.1-7.2 8.9-13.1 17.8-26.3 26.8-39.3h-23.4c-1.5.2-3-1.1-2.8-2.8-.1-3.6-.1-7 0-10.5z" id="_x23_000000ff"/><g id="_x23_ff9900ff"><path class="st0" d="M275.5 84.7c6.6-1 13.4-1.1 19.9.4 1.8.5 3.8.9 5.1 2.3 1.1 2.1.8 4.6.8 6.9-.6 7.7-3 15.3-6.6 22.2-2.3 4.3-5.2 8.4-8.9 11.5-.9.7-2.2 1.4-3.2.7-.4-.7-.5-1.4-.2-2.1 2.7-7.2 5.6-14.3 7.1-22 .4-2.8 1.2-5.8-.2-8.4-1.6-2-4.3-2.1-6.6-2.5-8-.7-15.9.5-23.8 1.3-.9.2-2.1-.3-2.2-1.4.2-1.4 1.4-2.2 2.4-3 5-3 10.7-4.9 16.4-5.9z"/><path class="st0" d="M65.6 89.2c1.7-.8 3.4.7 4.9 1.5 29 16.8 61.5 26.7 94.6 29.7 36.3 3.3 73.3-2.7 107.1-16.7 2.1-.9 4.7-2.4 6.9-.8 2.2 1.4 1.7 4.7-.3 6-14.9 11.2-32.2 18.7-50 23.7-25.1 7-51.8 8.4-77.4 3.5-31.8-5.7-61.8-20.8-85.7-42.9-1.2-1.2-1.6-3.2-.1-4z"/></g></svg>