<?xml version="1.0" encoding="utf-8"?>
<!-- Generator: Adobe Illustrator 27.0.1, SVG Export Plug-In . SVG Version: 6.00 Build 0)  -->
<svg version="1.1" id="Layer_1" xmlns="http://www.w3.org/2000/svg" xmlns:xlink="http://www.w3.org/1999/xlink" x="0px" y="0px"
	 viewBox="0 0 115.3 45" style="enable-background:new 0 0 115.3 45;" xml:space="preserve">
<style type="text/css">
	.st0{fill:#E65656;}
</style>
<g transform="translate(0 0)">
	<path class="st0" d="M16.6,35.1c1.1,1.5,2.4,2.9,3.8,4.2c0.3,0.2,0.6,0.4,1,0.4c0.2,0,0.4,0,0.6-0.1c0.9-0.2,1.8-0.6,2.5-1.2
		c0.8-0.5,1.4-1.2,1.9-2c0.2-0.4,0.6-1.2,0.2-1.6c-2.4-2.4-4.6-5-6.5-7.9c-0.1-0.1-0.1-0.2-0.2-0.2c0.2-0.2,0.5-0.5,0.7-0.8
		c7.5-7.7,10.3-9.1,10-9.9c-0.1-0.5-0.6-0.6-1-0.6c-1,0.2-2,0.4-2.9,0.9c-1.6,0.9-3.1,2-4.5,3.3c-1.5,1.2-2.9,2.6-4.4,4
		c-0.7-1.2-1.5-2.5-2.2-3.8c-0.2-0.5-0.6-1-0.8-1.5c-0.2-0.3-0.6-0.4-1-0.4c-0.2,0-0.4,0-0.6,0.1c-0.9,0.2-1.8,0.6-2.5,1.2
		c-0.8,0.5-1.4,1.2-1.9,2c-0.3,0.5-0.4,1.1-0.2,1.6c0.7,1.4,1.5,2.8,2.3,4.1c0.5,0.8,1,1.6,1.5,2.4c-0.6,0.6-1,1.2-1.6,1.9
		c-3,3.6-5.8,7.3-8.5,11.2c-0.2,0.5-0.5,1.2-0.5,1.9c0.1,0.5,0.6,0.9,1.1,0.9l0,0c0.8,0,1.6-0.3,2.3-0.7c0.9-0.5,1.6-1.1,2.3-1.9
		c2.3-3.3,4.8-6.6,7.3-9.8C15.4,33.4,15.9,34.2,16.6,35.1z"/>
	<path class="st0" d="M30.7,10H5.4c-2.7,0-5,2.2-5,4.8v24.3c0,0.4,0.1,0.8,0.2,1.2c0.7-1,1.5-2,2.2-3V14.8c0-1.4,1.2-2.6,2.7-2.6
		h25.3c1.5,0,2.7,1.2,2.7,2.6v24.3c0,1.4-1.2,2.6-2.7,2.6H11.1c-0.5,0.6-0.9,1.3-1.4,2c-0.1,0.1-0.1,0.2-0.2,0.2h21.2
		c2.7,0,5-2.2,5-4.8V14.8C35.7,12.2,33.5,10,30.7,10z"/>
</g>
<g>
	<path class="st0" d="M60.5,20l-3.2,6.1c-0.9-0.3-2-0.5-3.1-0.5c-1.6,0-2.4,0.4-2.4,1.3c0,0.4,0.2,0.7,0.7,1
		c0.4,0.2,1.1,0.4,1.9,0.4c1.1,0,2.1-0.2,2.9-0.6l3.2,6.5c-0.9,0.5-2,1-3.3,1.3c-1.3,0.3-2.5,0.5-3.7,0.5c-2.9,0-5.2-0.8-7-2.5
		c-1.7-1.7-2.6-3.8-2.6-6.2c0-2.6,0.9-4.7,2.7-6.4c1.8-1.7,4.1-2.5,6.9-2.5c1.2,0,2.4,0.2,3.7,0.5C58.6,19,59.7,19.5,60.5,20z"/>
	<path class="st0" d="M70.7,35.9c-2.4,0-4.5-0.9-6.2-2.6c-1.7-1.7-2.6-3.8-2.6-6.3c0-2.5,0.9-4.6,2.6-6.3c1.7-1.7,3.8-2.6,6.2-2.6
		c2.5,0,4.5,0.9,6.2,2.6c1.7,1.7,2.6,3.8,2.6,6.3c0,2.5-0.9,4.6-2.6,6.3C75.2,35,73.1,35.9,70.7,35.9z M70.7,24.8
		c-0.5,0-0.9,0.2-1.2,0.5C69.1,25.6,69,26,69,26.6s0.2,0.9,0.5,1.3s0.7,0.5,1.2,0.5c0.5,0,0.9-0.2,1.2-0.5c0.3-0.3,0.5-0.8,0.5-1.3
		s-0.2-0.9-0.5-1.3C71.6,24.9,71.2,24.8,70.7,24.8z"/>
	<path class="st0" d="M99.2,35.7h-5.8l-3.7-5.4v5.3h-7.6V18.5h5.4l4,5.8v-5.8h7.6V35.7z"/>
	<path class="st0" d="M101,34.3l1.5-3.8c0.5,0.6,1.1,1.1,1.7,1.5s1.3,0.5,2,0.5c0.4,0,0.7-0.1,1-0.3s0.4-0.4,0.4-0.7
		c0-0.3-0.1-0.5-0.3-0.7s-0.8-0.4-1.6-0.7c-0.9-0.3-1.6-0.5-2.2-0.8c-0.6-0.3-1-0.8-1.4-1.3c-0.4-0.6-0.6-1.2-0.6-1.9
		c0-1.3,0.6-2.4,1.7-3.1c1.2-0.7,2.8-1.1,4.9-1.1c2.4,0,4.4,0.4,6,1.2l-1.7,3.4c-1.1-1-2.1-1.5-3.2-1.5c-0.3,0-0.6,0.1-0.8,0.2
		c-0.2,0.1-0.3,0.3-0.3,0.6c0,0.3,0.1,0.5,0.3,0.7c0.2,0.2,0.8,0.4,1.7,0.7c0.9,0.2,1.7,0.5,2.3,0.8c0.6,0.3,1.1,0.7,1.5,1.3
		c0.4,0.6,0.5,1.3,0.5,2.1c0,1.4-0.6,2.5-1.7,3.3c-1.1,0.8-2.6,1.2-4.4,1.2C106,35.8,103.5,35.3,101,34.3z"/>
</g>
</svg>
