<svg version="1.1" id="图层_1" xmlns="http://www.w3.org/2000/svg" x="0" y="0" viewBox="0 0 349 99.1" style="enable-background:new 0 0 349 99.1" xml:space="preserve"><style>.st0{fill:#e40613}</style><g id="_x23_e40613ff"><path class="st0" d="M47.3.6C52.8-.2 58.4 0 64 0h222c8.3 0 16.9-.5 24.8 2.5 15.6 4.7 28 17.9 32.5 33.5 2.6 9.5 2.5 19.7-.6 29-4.2 12.7-13.7 23.5-25.7 29.2-6.6 2.9-13.7 4.8-20.9 4.8H53c-12.4-.3-24.6-5.5-33.3-14.3-10-9.6-15.6-23.6-14.8-37.4.4-13 6.5-25.5 15.9-34.2C28.2 6.5 37.5 1.9 47.3.6m241.1 8.3c-13.6 2.3-25.8 12-31 24.9C249.7 51 256.2 73 272 83.4c10.8 7.9 25.5 9.4 38 4.9 11.5-4.1 20.8-13.7 24.7-25.3 2.3-6.4 2.6-13.3 1.8-20-2.1-13.5-11.5-25.6-24-31.1-7.5-3.6-16-4.2-24.1-3z"/><path class="st0" d="M307.6 29.9c2.8-3.2 9 1 6.8 4.8-3.8 5.4-9.6 9.1-13.2 14.6 4 5.2 10 8.6 14.1 13.7.8 1.6.4 3.7-.7 5-2 1.2-4.9 1.1-6.7-.6-4.4-3.9-8.4-8.1-13-11.7-4.9 4.3-8.9 9.4-13.7 13.8-3 2.5-8.7-1.8-6.3-5.2 3.4-4.5 7.9-8.1 11.7-12.4.6-.8 2-2 .8-3.1-4-4.3-8.9-7.8-13-12.1-2-2.1-.6-6.5 2.6-6.5 4.3-.3 6.7 4.1 9.7 6.4 2.7 2 4.7 5.5 7.9 6.4 4.9-3.9 8.5-8.9 13-13.1z"/></g><path d="M288.4 8.9c8.1-1.2 16.6-.6 24 3 12.5 5.5 21.9 17.5 24 31.1.9 6.7.6 13.6-1.8 20-3.9 11.6-13.2 21.2-24.7 25.3-12.5 4.6-27.2 3-38-4.9C256.2 73 249.7 51 257.4 33.7c5.1-12.9 17.3-22.5 31-24.8m19.2 21c-4.5 4.1-8.1 9.2-12.9 13.1-3.2-.9-5.3-4.4-7.9-6.4-3-2.3-5.4-6.6-9.7-6.4-3.1 0-4.5 4.4-2.6 6.5 4.1 4.3 9 7.8 13 12.1 1.2 1-.2 2.2-.8 3.1-3.8 4.3-8.2 7.9-11.7 12.4-2.4 3.5 3.3 7.7 6.3 5.2 4.8-4.4 8.8-9.5 13.7-13.8 4.6 3.6 8.6 7.8 13 11.7 1.7 1.7 4.6 1.8 6.7.6 1.2-1.3 1.6-3.4.7-5-4.1-5.2-10.1-8.5-14.1-13.7 3.6-5.5 9.4-9.2 13.2-14.6 2.1-3.8-4.1-8-6.9-4.8z" style="fill:#f7f7f7" id="_x23_f7f7f7ff"/><path d="m97.4 42.7-8 15.3c-2.3-.8-4.9-1.2-7.8-1.2-4.1 0-6.1 1.1-6.1 3.3 0 1.1.6 1.9 1.7 2.5 1.1.6 2.7.9 4.8.9 2.8 0 5.3-.5 7.3-1.5l8 16.4c-2.3 1.4-5 2.4-8.2 3.3s-6.3 1.2-9.2 1.2c-7.3 0-13.2-2.1-17.5-6.4-4.4-4.2-6.5-9.5-6.5-15.6 0-6.6 2.3-12 6.8-16.2 4.5-4.3 10.3-6.4 17.3-6.4 3 0 6.1.4 9.4 1.2s5.8 1.8 8 3.2zm25.5 40c-6.2 0-11.4-2.2-15.7-6.5-4.3-4.3-6.4-9.6-6.4-15.8 0-6.2 2.1-11.5 6.4-15.8 4.3-4.3 9.5-6.5 15.7-6.5 6.2 0 11.4 2.2 15.7 6.5 4.3 4.3 6.4 9.6 6.4 15.8 0 6.2-2.1 11.5-6.4 15.8-4.3 4.3-9.5 6.5-15.7 6.5zm0-28c-1.2 0-2.2.4-3.1 1.3-.8.9-1.2 1.9-1.2 3.2s.4 2.4 1.2 3.2 1.8 1.3 3.1 1.3c1.2 0 2.3-.4 3.1-1.3s1.2-1.9 1.2-3.2-.4-2.4-1.2-3.2c-.8-.9-1.8-1.3-3.1-1.3zm71.9 27.6h-14.5L171 68.7V82h-19.1V38.8h13.7l10.1 14.6V38.8h19.1v43.5zm4.5-3.6 3.9-9.6c1.2 1.6 2.7 2.9 4.4 3.8s3.4 1.4 5 1.4c1 0 1.8-.2 2.5-.7.6-.5.9-1 .9-1.8 0-.7-.3-1.3-.8-1.8s-1.9-1.1-4.1-1.7c-2.2-.6-4.1-1.3-5.5-2.1-1.4-.8-2.6-1.9-3.6-3.4s-1.4-3.1-1.4-4.9c0-3.4 1.5-6 4.4-7.9 2.9-1.9 7-2.8 12.3-2.8 5.9 0 11 1 15.2 2.9l-4.2 8.7c-2.8-2.5-5.4-3.7-8-3.7-.8 0-1.5.2-2.1.6-.5.4-.8.9-.8 1.4 0 .7.3 1.3.8 1.8s2 1.1 4.3 1.6c2.4.6 4.3 1.3 5.8 2 1.5.8 2.8 1.9 3.7 3.4.9 1.5 1.4 3.2 1.4 5.2 0 3.5-1.4 6.3-4.3 8.3-2.8 2-6.5 3-11 3-6.1.1-12.4-1.2-18.8-3.7z" style="fill:#fff"/></svg>