<svg version="1.1" id="图层_1" xmlns="http://www.w3.org/2000/svg" x="0" y="0" viewBox="0 0 499.6 155.8" style="enable-background:new 0 0 499.6 155.8" xml:space="preserve"><style>.st2{fill:#fff}</style><path d="M11.6 9.9C18.6 4.1 27.5 0 36.7.3c36 .1 72 0 108 0 3.9 0 7.8-.2 11.7-.3-1 6-.8 12-.7 18v120c0 5.6.2 11.3-.2 16.9-4.6.5-9.2.5-13.8.4-37-.1-74 .1-111.1-.1C13.8 153-.1 137.2 0 120.1 0 92.4.1 64.7 0 37-.2 26.9 4.1 16.7 11.6 9.9m23 38c-1.5 1.7-3.6 3-4.5 5.2 1.8 3.5 5.4 5.8 8 8.7C43.3 67.2 49.2 72.1 54 78c-7.4 8.4-15.9 15.7-23.4 23.9-1.4 1.7 1.1 3.1 2 4.3 6.9 6.4 13.1 13.5 20.1 19.8 8.8-7.5 16.2-16.6 25-24.2 8.8 7.6 16.2 16.6 24.9 24.2 7.9-7.4 15.5-15.1 22.9-22.9-7.5-8.8-16.6-16.2-24.2-25 7.6-8.7 16.7-16.2 24.2-25-6.2-7.1-13.3-13.3-19.7-20.2-1.3-1.1-3.2-3.7-4.8-1.6-7.9 7.5-15.2 15.7-23.3 23-8.8-7.5-16.2-16.6-25-24.1-6.4 5.4-11.9 11.9-18.1 17.7z" style="fill:#f64138" id="_x23_f64138ff"/><path d="M156.5 0h294.3c8.8.1 18-.8 26.3 2.8 9.3 4 17.3 11.7 20.5 21.4 2.6 6.6 1.9 13.8 2 20.8v76.1c-.4 18.2-16.4 34.4-34.7 34.7-138.4.1-276.7 0-415.1 0-6.3-.2-12.8.5-19.1-.4 37 .2 74 0 111.1.1 4.6.1 9.2.1 13.8-.4.5-5.6.3-11.3.2-16.9v-120c-.2-6.2-.3-12.2.7-18.2z" style="fill:#dd2e29" id="_x23_dd2e29ff"/><path class="st2" d="M34.6 47.9c6.2-5.8 11.7-12.2 18.2-17.7 8.8 7.5 16.2 16.6 25 24.1 8.2-7.2 15.4-15.4 23.3-23 1.6-2.1 3.6.4 4.8 1.6 6.4 6.9 13.5 13.1 19.7 20.2-7.5 8.8-16.6 16.2-24.2 25 7.6 8.8 16.7 16.1 24.2 25-7.5 7.8-15 15.6-22.9 22.9-8.8-7.6-16.2-16.6-24.9-24.2-8.8 7.6-16.2 16.7-25 24.2-7-6.2-13.2-13.4-20.1-19.8-.9-1.1-3.4-2.6-2-4.3 7.5-8.2 16-15.5 23.4-23.9-4.8-5.9-10.7-10.8-15.9-16.3-2.6-2.9-6.1-5.2-8-8.7.8-2.1 2.9-3.5 4.4-5.1z" id="_x23_ffffffff"/><path class="st2" d="M252.1 66.2 240 89.4c-3.6-1.2-7.5-1.8-11.8-1.8-6.2 0-9.2 1.7-9.2 5 0 1.6.9 2.9 2.6 3.8s4.2 1.4 7.3 1.4c4.3 0 8-.8 11.1-2.3l12.2 24.8c-3.4 2.1-7.6 3.7-12.5 4.9-4.9 1.2-9.5 1.8-14 1.8-11.1 0-20-3.2-26.6-9.6-6.6-6.4-9.9-14.3-9.9-23.7 0-9.9 3.4-18.1 10.3-24.6s15.6-9.7 26.2-9.7c4.6 0 9.3.6 14.2 1.9 4.9 1.1 9 2.8 12.2 4.9zm38.8 60.8c-9.4 0-17.3-3.3-23.8-9.9-6.5-6.6-9.8-14.6-9.8-24s3.3-17.4 9.8-24c6.5-6.5 14.5-9.8 23.8-9.8 9.4 0 17.4 3.3 23.9 9.8 6.5 6.5 9.8 14.5 9.8 24s-3.3 17.5-9.8 24c-6.6 6.6-14.5 9.9-23.9 9.9zm0-42.5c-1.9 0-3.4.7-4.6 2-1.2 1.3-1.8 2.9-1.8 4.9s.6 3.6 1.8 4.9c1.2 1.3 2.8 2 4.6 2 1.9 0 3.5-.7 4.7-2 1.2-1.3 1.8-2.9 1.8-4.9s-.6-3.6-1.8-4.9c-1.3-1.4-2.8-2-4.7-2zM400 126.4h-22l-14.1-20.7v20.2h-29V60.4h20.8L371 82.5V60.4h29v66zm6.9-5.5 5.9-14.5c1.8 2.5 4 4.4 6.6 5.8s5.1 2.1 7.6 2.1c1.5 0 2.8-.3 3.7-1 .9-.7 1.4-1.6 1.4-2.7s-.4-2-1.2-2.8c-.8-.8-2.9-1.7-6.3-2.6-3.4-1-6.2-2-8.4-3.2-2.2-1.2-4-2.9-5.4-5.1-1.4-2.3-2.2-4.7-2.2-7.4 0-5.2 2.2-9.2 6.6-12 4.4-2.9 10.6-4.3 18.6-4.3 9 0 16.7 1.5 23.1 4.4l-6.4 13.2c-4.2-3.8-8.2-5.6-12.1-5.6-1.3 0-2.3.3-3.1.9-.8.6-1.2 1.3-1.2 2.2 0 1.1.4 2 1.2 2.8s3 1.6 6.5 2.5c3.6.9 6.5 1.9 8.9 3.1 2.3 1.1 4.2 2.9 5.6 5.2 1.4 2.3 2.1 4.9 2.1 7.9 0 5.3-2.2 9.5-6.5 12.6-4.3 3.1-9.9 4.6-16.7 4.6-9.2-.3-18.7-2.2-28.3-6.1z"/></svg>