<?xml version="1.0" encoding="utf-8"?>
<!-- Generator: Adobe Illustrator 25.4.1, SVG Export Plug-In . SVG Version: 6.00 Build 0)  -->
<!DOCTYPE svg PUBLIC "-//W3C//DTD SVG 1.1//EN" "http://www.w3.org/Graphics/SVG/1.1/DTD/svg11.dtd" [
	<!ENTITY st0 "enable-background:new    ;">
	<!ENTITY st1 "fill:#E65656;">
]>
<svg version="1.1" id="Layer_1" xmlns="http://www.w3.org/2000/svg" xmlns:xlink="http://www.w3.org/1999/xlink" x="0px" y="0px"
	 viewBox="0 0 115.3 45" style="enable-background:new 0 0 115.3 45;" xml:space="preserve">
<g style="&st0;">
	<path style="&st1;" d="M69.9,28.9c0.1,0,0.3,0.1,0.4,0.2l1.1,1.2c-0.6,0.7-1.3,1.3-2.2,1.7c-0.9,0.4-1.9,0.6-3.1,0.6
		c-1.1,0-2-0.2-2.9-0.5c-0.9-0.4-1.6-0.9-2.2-1.5s-1.1-1.4-1.4-2.3c-0.3-0.9-0.5-1.9-0.5-3c0-1.1,0.2-2.1,0.5-3s0.8-1.7,1.5-2.3
		s1.4-1.2,2.3-1.5s1.8-0.5,2.9-0.5c1.1,0,2,0.2,2.8,0.5s1.5,0.8,2.1,1.4l-0.9,1.2c-0.1,0.1-0.1,0.2-0.2,0.2
		c-0.1,0.1-0.2,0.1-0.3,0.1c-0.1,0-0.2,0-0.3-0.1c-0.1-0.1-0.2-0.1-0.4-0.2c-0.1-0.1-0.3-0.2-0.4-0.3c-0.2-0.1-0.4-0.2-0.6-0.3
		c-0.2-0.1-0.5-0.2-0.8-0.2c-0.3-0.1-0.6-0.1-1-0.1c-0.6,0-1.2,0.1-1.8,0.3c-0.5,0.2-1,0.6-1.4,1c-0.4,0.4-0.7,1-0.9,1.6
		c-0.2,0.6-0.3,1.3-0.3,2.2c0,0.8,0.1,1.5,0.3,2.2c0.2,0.6,0.5,1.2,0.9,1.6s0.9,0.8,1.4,1c0.5,0.2,1.1,0.3,1.7,0.3
		c0.4,0,0.7,0,1-0.1c0.3,0,0.6-0.1,0.8-0.2s0.5-0.2,0.7-0.3s0.4-0.3,0.7-0.5c0.1-0.1,0.1-0.1,0.2-0.1C69.7,28.9,69.8,28.9,69.9,28.9
		z"/>
	<path style="&st1;" d="M86.6,25c0,1.1-0.2,2-0.5,2.9c-0.3,0.9-0.8,1.7-1.5,2.3c-0.6,0.7-1.4,1.2-2.3,1.5c-0.9,0.4-1.9,0.6-3,0.6
		c-1.1,0-2.1-0.2-3-0.6c-0.9-0.4-1.7-0.9-2.3-1.5c-0.6-0.7-1.1-1.4-1.5-2.3S72,26.1,72,25c0-1.1,0.2-2,0.5-2.9s0.9-1.7,1.5-2.3
		c0.6-0.7,1.4-1.2,2.3-1.5c0.9-0.4,1.9-0.6,3-0.6c0.7,0,1.4,0.1,2.1,0.3s1.2,0.4,1.8,0.7c0.5,0.3,1,0.7,1.5,1.1
		c0.4,0.4,0.8,0.9,1.1,1.5c0.3,0.5,0.5,1.1,0.7,1.8C86.6,23.7,86.6,24.3,86.6,25z M83.9,25c0-0.8-0.1-1.5-0.3-2.1
		c-0.2-0.6-0.5-1.2-0.9-1.6c-0.4-0.4-0.9-0.8-1.4-1c-0.6-0.2-1.2-0.3-1.9-0.3s-1.3,0.1-1.9,0.3c-0.6,0.2-1,0.6-1.4,1
		c-0.4,0.4-0.7,1-0.9,1.6c-0.2,0.6-0.3,1.3-0.3,2.1c0,0.8,0.1,1.5,0.3,2.1c0.2,0.6,0.5,1.2,0.9,1.6s0.9,0.8,1.4,1s1.2,0.4,1.9,0.4
		s1.3-0.1,1.9-0.4s1-0.6,1.4-1s0.7-1,0.9-1.6C83.8,26.5,83.9,25.8,83.9,25z"/>
	<path style="&st1;" d="M101.2,17.8v14.5h-1.4c-0.2,0-0.4,0-0.5-0.1c-0.1-0.1-0.3-0.2-0.4-0.4l-7.5-9.6c0,0.4,0.1,0.8,0.1,1.2v8.9
		H89V17.8h1.4c0.1,0,0.2,0,0.3,0c0.1,0,0.2,0,0.2,0.1c0.1,0,0.1,0.1,0.2,0.1s0.1,0.1,0.2,0.2l7.6,9.7c0-0.2,0-0.5,0-0.7
		c0-0.2,0-0.4,0-0.6v-8.8H101.2z"/>
	<path style="&st1;" d="M112.1,20.4c-0.1,0.1-0.2,0.2-0.3,0.3c-0.1,0.1-0.2,0.1-0.3,0.1c-0.1,0-0.3-0.1-0.5-0.2s-0.4-0.2-0.6-0.3
		c-0.2-0.1-0.5-0.2-0.8-0.3c-0.3-0.1-0.7-0.2-1.1-0.2c-0.4,0-0.7,0-1,0.1c-0.3,0.1-0.5,0.2-0.7,0.4c-0.2,0.2-0.3,0.4-0.4,0.6
		c-0.1,0.2-0.1,0.5-0.1,0.7c0,0.3,0.1,0.6,0.3,0.9s0.4,0.4,0.8,0.6s0.7,0.3,1.1,0.4c0.4,0.1,0.8,0.3,1.2,0.4s0.8,0.3,1.2,0.5
		c0.4,0.2,0.8,0.4,1.1,0.7c0.3,0.3,0.6,0.6,0.8,1.1c0.2,0.4,0.3,0.9,0.3,1.5c0,0.7-0.1,1.3-0.3,1.8c-0.2,0.6-0.5,1.1-1,1.5
		c-0.4,0.4-1,0.8-1.6,1s-1.3,0.4-2.1,0.4c-0.5,0-0.9,0-1.4-0.1c-0.4-0.1-0.9-0.2-1.3-0.4c-0.4-0.2-0.8-0.4-1.2-0.6
		c-0.4-0.2-0.7-0.5-1-0.8l0.8-1.3c0.1-0.1,0.2-0.2,0.3-0.2s0.2-0.1,0.3-0.1c0.2,0,0.3,0.1,0.5,0.2s0.4,0.3,0.7,0.5
		c0.3,0.2,0.6,0.3,0.9,0.5s0.8,0.2,1.3,0.2c0.8,0,1.4-0.2,1.8-0.5s0.6-0.9,0.6-1.6c0-0.4-0.1-0.7-0.3-0.9s-0.4-0.4-0.8-0.6
		c-0.3-0.2-0.7-0.3-1.1-0.4c-0.4-0.1-0.8-0.2-1.2-0.4c-0.4-0.1-0.8-0.3-1.2-0.5c-0.4-0.2-0.8-0.4-1.1-0.7c-0.3-0.3-0.6-0.7-0.8-1.1
		c-0.2-0.5-0.3-1-0.3-1.7c0-0.5,0.1-1,0.3-1.5c0.2-0.5,0.5-0.9,0.9-1.3c0.4-0.4,0.9-0.7,1.5-0.9s1.3-0.4,2-0.4
		c0.9,0,1.6,0.1,2.4,0.4s1.3,0.6,1.8,1.1L112.1,20.4z"/>
</g>
<g transform="translate(0 0)">
	<path style="&st1;" d="M20.1,32.3c1.4,1.9,3,3.7,4.7,5.4c0.4,0.3,0.8,0.5,1.3,0.5c0.2,0,0.5,0,0.7-0.1c1.1-0.3,2.2-0.8,3.1-1.5
		c1-0.7,1.7-1.5,2.3-2.6c0.3-0.5,0.7-1.6,0.2-2.1c-3-3.1-5.7-6.5-8-10.2c-0.1-0.1-0.1-0.2-0.2-0.3c0.3-0.3,0.6-0.6,0.9-1
		c9.3-9.9,12.7-11.7,12.4-12.8c-0.1-0.6-0.7-0.8-1.3-0.8C35,7,33.7,7.3,32.6,8c-2,1.2-3.9,2.6-5.6,4.2c-1.9,1.6-3.6,3.3-5.4,5.1
		c-0.9-1.6-1.8-3.2-2.7-4.9c-0.3-0.6-0.7-1.3-1-1.9c-0.2-0.4-0.7-0.5-1.3-0.5c-0.3,0-0.5,0-0.8,0.1c-1.1,0.3-2.2,0.8-3.1,1.5
		c-1,0.7-1.7,1.5-2.3,2.6c-0.4,0.6-0.5,1.4-0.2,2.1c0.9,1.8,1.9,3.6,2.8,5.3c0.6,1,1.2,2.1,1.8,3.1c-0.7,0.8-1.3,1.6-2,2.4
		c-3.7,4.6-7.2,9.4-10.5,14.4C2,42.1,1.7,43,1.7,43.9c0.1,0.7,0.7,1.1,1.4,1.1h0c1,0,2-0.4,2.9-0.9c1.1-0.6,2-1.4,2.8-2.4
		c2.9-4.3,5.9-8.5,9.1-12.6C18.6,30.2,19.3,31.2,20.1,32.3z"/>
	<path style="&st1;" d="M37.6,0H6.2C2.8,0,0,2.8,0,6.2v31.4c0,0.5,0.1,1,0.2,1.5c0.9-1.3,1.8-2.6,2.7-3.9v-29c0-1.8,1.5-3.3,3.3-3.3
		h31.4c1.8,0,3.3,1.5,3.3,3.3v31.4c0,1.8-1.5,3.3-3.3,3.3H13.3c-0.6,0.8-1.1,1.7-1.7,2.6c-0.1,0.1-0.1,0.2-0.2,0.3h26.3
		c3.4,0,6.2-2.8,6.2-6.2V6.2C43.8,2.8,41,0,37.6,0z"/>
</g>
</svg>
