<svg xmlns="http://www.w3.org/2000/svg" viewBox="0 0 480 180" style="enable-background:new 0 0 480 180" xml:space="preserve"><path d="M73.9 39.8C42.3 39.8 16 53.1 16 93.2 16 125 33.7 145 74.7 145c48.3 0 51.4-31.6 51.4-31.6h-23.4s-5 17-29.4 17c-19.9 0-34.2-13.3-34.2-32h89.5V86.8c0-18.5-11.8-47-54.7-47zm-.8 15c18.9 0 31.8 11.5 31.8 28.7H39.7c0-18.3 16.8-28.7 33.4-28.7z" style="fill:#e53238"/><path d="M128.6 1v123.9c0 7-.5 16.9-.5 16.9h22.3s.8-7.1.8-13.6c0 0 11 17.1 41 17.1 31.6 0 53-21.7 53-52.9 0-29-19.7-52.3-53-52.3-31.2 0-40.8 16.7-40.8 16.7V1h-22.8zm57.9 54.5c21.4 0 35.1 15.8 35.1 37 0 22.7-15.8 37.6-34.9 37.6-22.9 0-35.2-17.7-35.2-37.4-.1-18.4 11-37.2 35-37.2z" style="fill:#0064d2"/><path d="M300.7 39.8c-47.5 0-50.6 25.8-50.6 29.9h23.7s1.2-15.1 25.3-15.1c15.6 0 27.7 7.1 27.7 20.7v4.9h-27.7c-36.8 0-56.3 10.7-56.3 32.4 0 21.3 18 32.9 42.3 32.9 33.1 0 43.8-18.2 43.8-18.2 0 7.2.6 14.3.6 14.3h21s-.8-8.8-.8-14.5V78.5c0-31.9-26-38.7-49-38.7zm26.1 55.1v6.5c0 8.4-5.3 29.4-36.2 29.4-16.9 0-24.2-8.4-24.2-18.1.1-17.7 24.5-17.8 60.4-17.8z" style="fill:#f5af02"/><path d="M337 43.9h26.6l38.2 75.9 38.1-75.9H464L394.6 179h-25.3l20-37.7L337 43.9z" style="fill:#86b817"/></svg>