<svg version="1.1" id="图层_1" xmlns="http://www.w3.org/2000/svg" x="0" y="0" viewBox="0 0 497.7 105.4" style="enable-background:new 0 0 497.7 105.4" xml:space="preserve"><style>.st0{fill:#36b14b}</style><g id="_x23_36b14bff"><path class="st0" d="M474.6-.2c7.2-.1 14.5.4 21.6-.7 1.5 1.4 1.8 3.5 1.8 5.4-.1 29.7 0 59.4-.1 89.1-.1 3.9.4 7.9-.3 11.8-1 1.9-3.3 1.4-5 1.6h-479c-4.5-.1-9.2.4-13.6-.5-.3-1.9-.4-3.9-.4-5.8.1-27.3 0-54.7 0-82C-.4 12.4-.9 6.2 0 0c1.2-.1 2.4-.2 3.6-.2 157 .1 314 0 471 0M4.3 4.3c-.6 3.1-.3 6.2-.3 9.3 0 29.5-.1 59.1 0 88.6 21.5.5 43.1.1 64.6.2h353c23.9-.1 47.8.2 71.6-.2.5-11.8.1-23.7.2-35.6-.1-20.9.3-41.7-.2-62.6H14.6c-3.4 0-6.9-.3-10.3.3z"/><path class="st0" d="M15.9 14.9c155.2.1 310.4 0 465.5 0 .4 1.5.5 3.1.6 4.6-.1 22.3-.1 44.7 0 67 0 1.6-.1 3.2-.4 4.8-14.3.4-28.7.1-43 .2-116.7.1-233.3-.1-350-.1-24.3-.1-48.5.2-72.8-.2-.2-1.6-.3-3.2-.3-4.8.2-18.7.1-37.3.1-56 .1-5-.4-10.3.3-15.5z"/></g><path d="M4.3 4.3c3.4-.6 6.9-.3 10.3-.3h478.6c.5 20.9.1 41.7.2 62.6-.1 11.9.3 23.8-.2 35.6-23.9.4-47.8.1-71.6.2h-353c-21.5-.1-43.1.3-64.6-.2-.1-29.5 0-59.1 0-88.6 0-3.1-.3-6.2.3-9.3m11.6 10.6c-.7 5.2-.2 10.5-.3 15.7 0 18.7.1 37.3-.1 56 0 1.6.1 3.2.3 4.8 24.2.4 48.5 0 72.8.2 116.7 0 233.3.1 350 .1 14.4-.1 28.7.2 43-.2.3-1.6.3-3.2.4-4.8-.1-22.3-.1-44.7 0-67 0-1.6-.2-3.1-.6-4.6-155.1-.2-310.3-.1-465.5-.2z" style="fill:#fdfefb" id="_x23_fdfefbff"/><path d="m185 27.6-12.2 23.2c-3.6-1.2-7.5-1.8-11.8-1.8-6.2 0-9.2 1.7-9.2 5 0 1.6.9 2.9 2.6 3.8s4.2 1.4 7.3 1.4c4.3 0 8-.8 11.1-2.3L185 81.5c-3.4 2.1-7.6 3.7-12.5 4.9-4.9 1.2-9.5 1.8-14 1.8-11.1 0-20-3.2-26.6-9.6-6.6-6.4-9.9-14.3-9.9-23.7 0-9.9 3.4-18.1 10.3-24.6s15.6-9.7 26.2-9.7c4.6 0 9.3.6 14.2 1.9 4.9 1.3 9 3 12.3 5.1zm38.7 60.7c-9.4 0-17.3-3.3-23.8-9.9-6.5-6.6-9.8-14.6-9.8-24s3.3-17.4 9.8-24c6.5-6.5 14.5-9.8 23.8-9.8 9.4 0 17.4 3.3 23.9 9.8 6.5 6.5 9.8 14.5 9.8 24s-3.3 17.5-9.8 24c-6.5 6.6-14.5 9.9-23.9 9.9zm0-42.5c-1.9 0-3.4.7-4.6 2-1.2 1.3-1.8 2.9-1.8 4.9s.6 3.6 1.8 4.9c1.2 1.3 2.8 2 4.6 2 1.9 0 3.5-.7 4.7-2 1.2-1.3 1.8-2.9 1.8-4.9s-.6-3.6-1.8-4.9c-1.2-1.4-2.8-2-4.7-2zm109.2 42h-22l-14.1-20.7v20.2h-29V21.7h20.8l15.3 22.2V21.7h29v66.1zm6.8-5.6 5.9-14.5c1.8 2.5 4 4.4 6.6 5.8 2.6 1.4 5.1 2.1 7.6 2.1 1.5 0 2.8-.3 3.7-1 .9-.7 1.4-1.6 1.4-2.7s-.4-2-1.2-2.8c-.8-.8-2.9-1.7-6.3-2.6-3.4-1-6.2-2-8.4-3.2-2.2-1.2-4-2.9-5.4-5.1-1.4-2.3-2.2-4.7-2.2-7.4 0-5.2 2.2-9.2 6.6-12 4.4-2.9 10.6-4.3 18.6-4.3 9 0 16.7 1.5 23.1 4.4l-6.4 13.2c-4.2-3.8-8.2-5.6-12.1-5.6-1.3 0-2.3.3-3.1.9-.8.6-1.2 1.3-1.2 2.2 0 1.1.4 2 1.2 2.8s3 1.6 6.5 2.5c3.6.9 6.5 1.9 8.9 3.1 2.3 1.1 4.2 2.9 5.6 5.2 1.4 2.3 2.1 4.9 2.1 7.9 0 5.3-2.2 9.5-6.5 12.6-4.3 3.1-9.9 4.6-16.7 4.6-9.1-.3-18.6-2.2-28.3-6.1z" style="fill:#fff"/></svg>