<?xml version="1.0" encoding="utf-8"?>
<!-- Generator: Adobe Illustrator 27.0.1, SVG Export Plug-In . SVG Version: 6.00 Build 0)  -->
<svg version="1.1" id="Layer_1" xmlns="http://www.w3.org/2000/svg" xmlns:xlink="http://www.w3.org/1999/xlink" x="0px" y="0px"
	 viewBox="0 0 115.3 45" style="enable-background:new 0 0 115.3 45;" xml:space="preserve">
<style type="text/css">
	.st0{fill:#32CE98;}
</style>
<g>
	<path class="st0" d="M43.6,18.5H54c2.2,0,3.9,0.6,5.1,1.7c1.2,1.1,1.8,2.5,1.8,4.1c0,1.6-0.6,3-1.7,4.1c-1.1,1.1-2.5,1.7-4,1.7
		c-1.3,0-2.6-0.5-3.9-1.5v7.1h-7.6V18.5z M51.2,22.2v3.7c0.2,0.1,0.4,0.1,0.6,0.1c0.6,0,1-0.2,1.4-0.5s0.5-0.8,0.5-1.4
		c0-0.6-0.1-1-0.4-1.4c-0.3-0.3-0.7-0.5-1.3-0.5H51.2z"/>
	<path class="st0" d="M62.7,18.5h11.2c1.9,0,3.5,0.5,4.6,1.5c1.1,1,1.7,2.2,1.7,3.7c0,1.6-0.7,2.9-2,3.8c1.8,2.1,3,4.8,3.3,8.2h-7.9
		c-0.1-2.2-0.5-3.8-1-4.8c-0.5-1-1.3-1.5-2.4-1.5v6.3h-7.6V18.5z M70.3,22v3.3h0.2c1.4,0,2-0.5,2-1.6c0-0.4-0.1-0.8-0.4-1.2
		c-0.3-0.3-0.7-0.5-1.4-0.5H70.3z"/>
	<path class="st0" d="M91,35.9c-2.4,0-4.5-0.9-6.2-2.6c-1.7-1.7-2.6-3.8-2.6-6.3c0-2.5,0.9-4.6,2.6-6.3c1.7-1.7,3.8-2.6,6.2-2.6
		c2.5,0,4.5,0.9,6.2,2.6c1.7,1.7,2.6,3.8,2.6,6.3c0,2.5-0.9,4.6-2.6,6.3C95.6,35,93.5,35.9,91,35.9z M91,24.8
		c-0.5,0-0.9,0.2-1.2,0.5c-0.3,0.3-0.5,0.8-0.5,1.3s0.2,0.9,0.5,1.3s0.7,0.5,1.2,0.5c0.5,0,0.9-0.2,1.2-0.5c0.3-0.3,0.5-0.8,0.5-1.3
		s-0.2-0.9-0.5-1.3C91.9,24.9,91.5,24.8,91,24.8z"/>
	<path class="st0" d="M101,34.3l1.5-3.8c0.5,0.6,1.1,1.1,1.7,1.5s1.3,0.5,2,0.5c0.4,0,0.7-0.1,1-0.3s0.4-0.4,0.4-0.7
		c0-0.3-0.1-0.5-0.3-0.7s-0.8-0.4-1.6-0.7c-0.9-0.3-1.6-0.5-2.2-0.8c-0.6-0.3-1-0.8-1.4-1.3c-0.4-0.6-0.6-1.2-0.6-1.9
		c0-1.3,0.6-2.4,1.7-3.1c1.2-0.7,2.8-1.1,4.9-1.1c2.4,0,4.4,0.4,6,1.2l-1.7,3.4c-1.1-1-2.1-1.5-3.2-1.5c-0.3,0-0.6,0.1-0.8,0.2
		c-0.2,0.1-0.3,0.3-0.3,0.6c0,0.3,0.1,0.5,0.3,0.7c0.2,0.2,0.8,0.4,1.7,0.7c0.9,0.2,1.7,0.5,2.3,0.8c0.6,0.3,1.1,0.7,1.5,1.3
		c0.4,0.6,0.5,1.3,0.5,2.1c0,1.4-0.6,2.5-1.7,3.3c-1.1,0.8-2.6,1.2-4.4,1.2C106,35.8,103.5,35.3,101,34.3z"/>
</g>
<g transform="translate(0 0)">
	<path class="st0" d="M37.8,8.4c-0.4,0.7-0.8,1.4-1.3,2.2c0.3,0.5,0.5,1,0.5,1.5v25.3c0,1.4-1.3,2.6-2.8,2.6H7.8
		C6.3,40,5,38.8,5,37.3V12c0-1.4,1.3-2.6,2.8-2.6h18.6c0.5-0.8,1-1.6,1.4-2.3h-20c-2.8,0-5.2,2.2-5.2,5v25.3c0,2.7,2.3,5,5.2,5h26.5
		c2.8,0,5.2-2.2,5.2-5V12C39.4,10.6,38.8,9.3,37.8,8.4z"/>
	<path class="st0" d="M33.2,6.8c-0.7,0-7,6.1-14.2,18.9c-0.1-0.1-0.1-0.2-0.1-0.2c-0.5-1-1-2-1.7-2.9c-0.1-0.1-0.2-0.3-0.3-0.4
		c-0.3-0.4-1.1-0.3-1.6-0.3c-0.9,0.2-1.7,0.5-2.3,1c-0.7,0.5-1.3,1-1.7,1.7c-0.2,0.4-0.5,1-0.1,1.4c0.3,0.3,0.5,0.7,0.8,1
		c0.6,0.9,1.1,1.9,1.6,3c0.6,1.5,1.1,3,1.5,4.5c0.3,1,1.7,0.8,2.5,0.5c0.5-0.2,1.1-0.5,1.6-0.8c0.4-0.2,0.7-0.5,1-0.8
		c0.3-0.2,0.5-0.5,0.7-0.9c3-10.5,10.6-20.8,11.9-22.6c0.1-0.2,1.3-1.6,1.4-2.4C34.1,7,33.7,6.8,33.2,6.8z"/>
</g>
</svg>
