<svg version="1.1" id="Layer_1" xmlns="http://www.w3.org/2000/svg" x="0" y="0" viewBox="0 0 115.3 45" style="enable-background:new 0 0 115.3 45" xml:space="preserve"><style>.st0{fill:#32ce98}</style><path class="st0" d="M36.7 9.9c-.4.7-.8 1.4-1.3 2.2.3.5.5 1 .5 1.5v25.3c0 1.4-1.3 2.6-2.8 2.6H6.7c-1.5 0-2.8-1.2-2.8-2.6V13.5c0-1.4 1.3-2.6 2.8-2.6h18.6c.5-.8 1-1.6 1.4-2.3h-20c-2.8 0-5.2 2.2-5.2 5v25.3c0 2.7 2.3 5 5.2 5h26.5c2.8 0 5.2-2.2 5.2-5V13.5c0-1.4-.6-2.7-1.7-3.6z"/><path class="st0" d="M32.1 8.3c-.7 0-7 6.1-14.2 18.9-.1-.1-.1-.2-.1-.2-.5-1-1-2-1.7-2.9-.1-.1-.2-.3-.3-.4-.3-.4-1.1-.3-1.6-.3-.9.2-1.7.5-2.3 1-.7.5-1.3 1-1.7 1.7-.2.4-.5 1-.1 1.4.3.3.5.7.8 1 .6.9 1.1 1.9 1.6 3 .6 1.5 1.1 3 1.5 4.5.3 1 1.7.8 2.5.5.5-.2 1.1-.5 1.6-.8.4-.2.7-.5 1-.8.3-.2.5-.5.7-.9 3-10.5 10.6-20.8 11.9-22.6.1-.2 1.3-1.6 1.4-2.4-.1-.5-.5-.7-1-.7zm11 9.9h10.4c2.2 0 3.9.6 5.1 1.7 1.2 1.1 1.8 2.5 1.8 4.1 0 1.6-.6 3-1.7 4.1-1.1 1.1-2.5 1.7-4 1.7-1.3 0-2.6-.5-3.9-1.5v7.1h-7.6V18.2zm7.5 3.7v3.7c.2.1.4.1.6.1.6 0 1-.2 1.4-.5s.5-.8.5-1.4c0-.6-.1-1-.4-1.4-.3-.3-.7-.5-1.3-.5h-.8zm11.6-3.7h11.2c1.9 0 3.5.5 4.6 1.5 1.1 1 1.7 2.2 1.7 3.7 0 1.6-.7 2.9-2 3.8 1.8 2.1 3 4.8 3.3 8.2h-7.9c-.1-2.2-.5-3.8-1-4.8s-1.3-1.5-2.4-1.5v6.3h-7.6V18.2zm7.5 3.5V25h.3c1.4 0 2-.5 2-1.6 0-.4-.1-.8-.4-1.2-.3-.3-.7-.5-1.4-.5h-.5zm20.7 13.9c-2.4 0-4.5-.9-6.2-2.6-1.7-1.7-2.6-3.8-2.6-6.3s.9-4.6 2.6-6.3c1.7-1.7 3.8-2.6 6.2-2.6 2.5 0 4.5.9 6.2 2.6 1.7 1.7 2.6 3.8 2.6 6.3s-.9 4.6-2.6 6.3c-1.6 1.8-3.7 2.6-6.2 2.6zm0-11.1c-.5 0-.9.2-1.2.5-.3.3-.5.8-.5 1.3s.2.9.5 1.3.7.5 1.2.5.9-.2 1.2-.5c.3-.3.5-.8.5-1.3s-.1-.9-.4-1.3c-.4-.3-.8-.5-1.3-.5zm10 9.5 1.5-3.8c.5.6 1.1 1.1 1.7 1.5.7.4 1.3.5 2 .5.4 0 .7-.1 1-.3.2-.2.4-.4.4-.7 0-.3-.1-.5-.3-.7s-.8-.4-1.6-.7c-.9-.3-1.6-.5-2.2-.8-.6-.3-1-.8-1.4-1.3-.4-.6-.6-1.2-.6-1.9 0-1.3.6-2.4 1.7-3.1 1.2-.7 2.8-1.1 4.9-1.1 2.4 0 4.4.4 6 1.2l-1.7 3.4c-1.1-1-2.1-1.5-3.2-1.5-.3 0-.6.1-.8.2-.2.1-.3.3-.3.6s.1.5.3.7c.2.2.8.4 1.7.7.9.2 1.7.5 2.3.8.6.3 1.1.7 1.5 1.3.4.6.5 1.3.5 2.1 0 1.4-.6 2.5-1.7 3.3-1.1.8-2.6 1.2-4.4 1.2-2.3 0-4.8-.5-7.3-1.6z"/></svg>