<svg version="1.1" id="图层_1" xmlns="http://www.w3.org/2000/svg" x="0" y="0" viewBox="0 0 497.7 105.4" style="enable-background:new 0 0 497.7 105.4" xml:space="preserve"><style>.st0{fill:#36b14b}</style><g id="_x23_36b14bff"><path class="st0" d="M474.6-.2c7.2-.1 14.5.4 21.6-.7 1.5 1.4 1.8 3.5 1.8 5.4-.1 29.7 0 59.4-.1 89.1-.1 3.9.4 7.9-.3 11.8-1 1.9-3.3 1.4-5 1.6h-479c-4.5-.1-9.2.4-13.6-.5-.3-1.9-.4-3.9-.4-5.8.1-27.3 0-54.7 0-82C-.4 12.4-.9 6.2 0 0c1.2-.1 2.4-.2 3.6-.2 157 .1 314 0 471 0M4.3 4.3c-.6 3.1-.3 6.2-.3 9.3 0 29.5-.1 59.1 0 88.6 21.5.5 43.1.1 64.6.2h353c23.9-.1 47.8.2 71.6-.2.5-11.8.1-23.7.2-35.6-.1-20.9.3-41.7-.2-62.6H14.6c-3.4 0-6.9-.3-10.3.3z"/><path class="st0" d="M15.9 14.9c155.2.1 310.4 0 465.5 0 .4 1.5.5 3.1.6 4.6-.1 22.3-.1 44.7 0 67 0 1.6-.1 3.2-.4 4.8-14.3.4-28.7.1-43 .2-116.7.1-233.3-.1-350-.1-24.3-.1-48.5.2-72.8-.2-.2-1.6-.3-3.2-.3-4.8.2-18.7.1-37.3.1-56 .1-5-.4-10.3.3-15.5z"/></g><path id="_x23_fdfefbff" d="M4.3 4.3c3.4-.6 6.9-.3 10.3-.3h478.6c.5 20.9.1 41.7.2 62.6-.1 11.9.3 23.8-.2 35.6-23.9.4-47.8.1-71.6.2h-353c-21.5-.1-43.1.3-64.6-.2-.1-29.5 0-59.1 0-88.6 0-3.1-.3-6.2.3-9.3m11.6 10.6c-.7 5.2-.2 10.5-.3 15.7 0 18.7.1 37.3-.1 56 0 1.6.1 3.2.3 4.8 24.2.4 48.5 0 72.8.2 116.7 0 233.3.1 350 .1 14.4-.1 28.7.2 43-.2.3-1.6.3-3.2.4-4.8-.1-22.3-.1-44.7 0-67 0-1.6-.2-3.1-.6-4.6-155.1-.2-310.3-.1-465.5-.2z" style="fill:#fdfefb"/><path d="M131.6 23h39.7c8.4 0 14.8 2.1 19.3 6.4 4.5 4.3 6.7 9.5 6.7 15.8 0 6.1-2.1 11.3-6.4 15.6-4.3 4.3-9.4 6.4-15.4 6.4-5 0-10-1.9-15-5.7v27h-29V23zm29 14.1v14.3c.9.2 1.7.3 2.4.3 2.2 0 3.9-.7 5.3-2.1 1.3-1.4 2-3.2 2-5.4s-.6-3.9-1.7-5.2c-1.1-1.3-2.8-1.9-4.9-1.9h-3.1zM204.8 23h42.8c7.4 0 13.2 1.9 17.5 5.6 4.2 3.7 6.4 8.4 6.4 14 0 6.2-2.5 11-7.5 14.5 7.1 8.1 11.3 18.5 12.7 31.4h-30.1c-.5-8.3-1.8-14.4-3.7-18.3s-4.9-5.9-9-5.9v24.3h-29V23zm29 13.5v12.6h.8c5.2 0 7.8-2 7.8-6.1 0-1.7-.5-3.2-1.6-4.5-1.1-1.3-2.8-2-5.3-2h-1.7zm79.1 53.1c-9.4 0-17.3-3.3-23.8-9.9-6.5-6.6-9.8-14.6-9.8-24s3.3-17.4 9.8-24c6.5-6.5 14.5-9.8 23.8-9.8 9.4 0 17.4 3.3 23.9 9.8 6.5 6.5 9.8 14.5 9.8 24s-3.3 17.5-9.8 24c-6.5 6.6-14.5 9.9-23.9 9.9zm0-42.5c-1.9 0-3.4.7-4.6 2-1.2 1.3-1.8 2.9-1.8 4.9 0 2 .6 3.6 1.8 4.9 1.2 1.3 2.8 2 4.6 2 1.9 0 3.5-.7 4.7-2 1.2-1.3 1.8-2.9 1.8-4.9 0-2-.6-3.6-1.8-4.9-1.2-1.4-2.8-2-4.7-2zm38.2 36.4L357 69c1.8 2.5 4 4.4 6.6 5.8 2.6 1.4 5.1 2.1 7.6 2.1 1.5 0 2.8-.3 3.7-1 .9-.7 1.4-1.6 1.4-2.7s-.4-2-1.2-2.8c-.8-.8-2.9-1.7-6.3-2.6-3.4-1-6.2-2-8.4-3.2-2.2-1.2-4-2.9-5.4-5.1-1.4-2.3-2.2-4.7-2.2-7.4 0-5.2 2.2-9.2 6.6-12 4.4-2.9 10.6-4.3 18.6-4.3 9 0 16.7 1.5 23.1 4.4l-6.4 13.2c-4.2-3.8-8.2-5.6-12.1-5.6-1.3 0-2.3.3-3.1.9-.8.6-1.2 1.3-1.2 2.2 0 1.1.4 2 1.2 2.8.8.8 3 1.6 6.5 2.5 3.6.9 6.5 1.9 8.9 3.1 2.3 1.1 4.2 2.9 5.6 5.2 1.4 2.3 2.1 4.9 2.1 7.9 0 5.3-2.2 9.5-6.5 12.6-4.3 3.1-9.9 4.6-16.7 4.6-9.2-.3-18.7-2.2-28.3-6.1z" style="fill:#fff"/></svg>