<svg version="1.1" id="图层_1" xmlns="http://www.w3.org/2000/svg" x="0" y="0" viewBox="0 0 507.4 157.7" style="enable-background:new 0 0 507.4 157.7" xml:space="preserve"><style>.st3{fill:#fff}</style><path d="M6.1 26C10.5 11.5 25 1.1 40 1.3h107c4.3 0 8.7-.3 13 .3-.1 46.1 0 92.2-.1 138.3-.1 5.2.4 10.5-.2 15.7-4.5.8-9.1.4-13.7.4-37.4-.1-74.7.1-112.1-.1-17.2-2.2-30.2-19.1-29.7-36.1.1-24.3 0-48.7 0-73 .1-6.9-.6-14.1 1.9-20.8m106.2 4.2C102 44.3 92.1 58.6 81.9 72.8c-2.9 3.7-5.1 8.2-8.8 11.1C62.4 77.4 52.8 69 42 62.6c-3.6 3.6-6 8.2-9.1 12.2-3.2 4.7-6.9 9.1-9.6 14 2.8 2.9 6.2 5 9.5 7.3C46 105.2 58.9 114.7 72 124c3 2.2 5.8 4.5 9.1 6.2 2.1-1.7 3.5-4 5-6.3 17.5-24.8 35.1-49.5 52.9-74.1.8-1.3 2.8-3.3.7-4.4-7.9-5.8-15.8-11.7-24.1-17-1.6-1.2-2.5 1-3.3 1.8z" style="fill:#0dac50" id="_x23_0dac50ff"/><path d="M160 1.6c4.3-.5 8.7-.2 13-.3h290c4.3.1 8.8-.3 13 .8.7.7 1.6 1.1 2.7 1 14.4 4.2 25.3 18.6 25.1 33.7.1 27.7 0 55.4 0 83.1 1 19.5-17.1 38-36.8 36.8H44c-3.4 0-6.8.4-10.1-.8 37.4.2 74.7 0 112.1.1 4.6 0 9.2.3 13.7-.4.7-5.2.2-10.5.2-15.7.1-46.1 0-92.2.1-138.3z" style="fill:#0a9947" id="_x23_0a9947ff"/><path d="M476 3.1c1.4-1.1 2.3-.7 2.7 1-1 0-1.9-.3-2.7-1z" style="opacity:.4;fill:#2b4e3b;enable-background:new" id="_x23_2b4e3b67"/><path class="st3" d="M112.3 30.2c.8-.8 1.8-3 3.2-1.8 8.3 5.3 16.1 11.2 24.1 17 2.2 1.1.1 3.1-.7 4.4-17.8 24.6-35.3 49.4-52.9 74.1-1.5 2.2-2.9 4.5-5 6.3-3.3-1.6-6.2-4-9.1-6.2-13.1-9.3-25.9-18.8-39.2-27.9-3.3-2.3-6.7-4.4-9.5-7.3 2.7-5 6.4-9.4 9.6-14 3.1-4 5.5-8.6 9.1-12.2C52.8 69 62.4 77.4 73.1 83.9c3.7-3 5.9-7.4 8.8-11.1 10.2-14.2 20.1-28.5 30.4-42.6z" id="_x23_ffffffff"/><path class="st3" d="M180.2 59.2h39.7c8.4 0 14.8 2.1 19.3 6.4 4.5 4.3 6.7 9.5 6.7 15.8 0 6.1-2.1 11.3-6.4 15.6-4.3 4.3-9.4 6.4-15.4 6.4-5 0-10-1.9-15-5.7v27h-29V59.2zm29 14.2v14.3c.9.2 1.7.3 2.4.3 2.2 0 3.9-.7 5.3-2.1 1.3-1.4 2-3.2 2-5.4s-.6-3.9-1.7-5.2c-1.1-1.3-2.8-1.9-4.9-1.9h-3.1zm44.1-14.2h42.8c7.4 0 13.2 1.9 17.5 5.6 4.2 3.7 6.4 8.4 6.4 14 0 6.2-2.5 11-7.5 14.5 7.1 8.1 11.3 18.5 12.7 31.4h-30.1c-.5-8.3-1.8-14.4-3.7-18.3s-4.9-5.9-9-5.9v24.3h-29V59.2zm29 13.5v12.6h.8c5.2 0 7.8-2 7.8-6.1 0-1.7-.5-3.2-1.6-4.5-1.1-1.3-2.8-2-5.3-2h-1.7zm79.2 53.1c-9.4 0-17.3-3.3-23.8-9.9-6.5-6.6-9.8-14.6-9.8-24s3.3-17.4 9.8-24c6.5-6.5 14.5-9.8 23.8-9.8 9.4 0 17.4 3.3 23.9 9.8 6.5 6.5 9.8 14.5 9.8 24s-3.3 17.5-9.8 24c-6.5 6.6-14.5 9.9-23.9 9.9zm0-42.5c-1.9 0-3.4.7-4.6 2-1.2 1.3-1.8 2.9-1.8 4.9s.6 3.6 1.8 4.9c1.2 1.3 2.8 2 4.6 2 1.9 0 3.5-.7 4.7-2 1.2-1.3 1.8-2.9 1.8-4.9s-.6-3.6-1.8-4.9c-1.2-1.4-2.8-2-4.7-2zm38.1 36.4 5.9-14.5c1.8 2.5 4 4.4 6.6 5.8s5.1 2.1 7.6 2.1c1.5 0 2.8-.3 3.7-1 .9-.7 1.4-1.6 1.4-2.7s-.4-2-1.2-2.8c-.8-.8-2.9-1.7-6.3-2.6-3.4-1-6.2-2-8.4-3.2-2.2-1.2-4-2.9-5.4-5.1-1.4-2.3-2.2-4.7-2.2-7.4 0-5.2 2.2-9.2 6.6-12 4.4-2.9 10.6-4.3 18.6-4.3 9 0 16.7 1.5 23.1 4.4l-6.4 13.2C439 85.8 435 84 431.1 84c-1.3 0-2.3.3-3.1.9-.8.6-1.2 1.3-1.2 2.2 0 1.1.4 2 1.2 2.8s3 1.6 6.5 2.5c3.6.9 6.5 1.9 8.9 3.1 2.3 1.1 4.2 2.9 5.6 5.2 1.4 2.3 2.1 4.9 2.1 7.9 0 5.3-2.2 9.5-6.5 12.6-4.3 3.1-9.9 4.6-16.7 4.6-9.1-.3-18.6-2.2-28.3-6.1z"/></svg>