<svg viewBox="0 0 32 32" xmlns="http://www.w3.org/2000/svg"><defs><linearGradient x1="81.775%" y1="10.605%" x2="19.681%" y2="87.114%" id="a"><stop stop-color="#FE3DAC" offset="0%"/><stop stop-color="#3A2BC6" offset="100%"/></linearGradient></defs><g fill="none" fill-rule="evenodd"><circle fill="#FFF" cx="16" cy="16" r="13"/><path d="M16 0C7.168 0 0 7.168 0 16s7.168 16 16 16 16-7.168 16-16S24.832 0 16 0zm7.264 22.688c-1.888 2.08-4.576 3.28-7.36 3.28h-.016a9.971 9.971 0 0 1-7.424-3.328c-1.92-2.144-2.8-4.896-2.496-7.76.496-4.576 4.176-8.272 8.752-8.8a9.525 9.525 0 0 1 1.168-.064c2.208 0 4.32.72 6.08 2.08.112.08.176.208.176.352a.463.463 0 0 1-.16.368l-1.056.944a.64.64 0 0 1-.416.16.545.545 0 0 1-.352-.112 7.468 7.468 0 0 0-4.272-1.344 7.535 7.535 0 0 0-5.616 2.528 7.432 7.432 0 0 0-1.856 5.872c.384 3.44 3.168 6.224 6.624 6.608.288.032.576.048.864.048 2.016 0 3.904-.8 5.344-2.24a.642.642 0 0 1 .448-.192.63.63 0 0 1 .336.096l1.168.768c.112.08.192.192.208.336 0 .16-.048.304-.144.4zM24 10.08a2.424 2.424 0 0 1 2.416 2.416A2.424 2.424 0 0 1 24 14.912a2.424 2.424 0 0 1-2.416-2.416A2.424 2.424 0 0 1 24 10.08zm-.052 1.573a.8.8 0 1 0 0 1.6.8.8 0 0 0 0-1.6z" fill="url(#a)" fill-rule="nonzero"/></g></svg>