<svg viewBox="0 0 32 32" xmlns="http://www.w3.org/2000/svg"><g fill="none" fill-rule="evenodd"><circle fill="#2E2E2E" cx="16" cy="16" r="16"/><g fill="#FFF"><path d="M7 7v18h16.665v-2.018H8.995V9.018h14.67V7z"/><path d="M25.32 13.917c0-.427-.165-.8-.496-1.115-.331-.316-.791-.475-1.389-.475-.506 0-.901.103-1.195.317a.99.99 0 0 0-.442.846c0 .186.037.353.11.502.074.149.194.279.368.4.175.12.405.223.7.316a9.24 9.24 0 0 0 1.094.26c1.113.205 1.959.549 2.547 1.023.589.483.883 1.19.883 2.129v.186a3.4 3.4 0 0 1-.267 1.357c-.174.4-.432.744-.763 1.032-.331.288-.736.502-1.214.66a5.384 5.384 0 0 1-1.61.233c-.698 0-1.305-.102-1.839-.298a3.55 3.55 0 0 1-1.324-.827 3.445 3.445 0 0 1-.8-1.237 4.27 4.27 0 0 1-.276-1.552v-.093h1.996c0 .641.184 1.152.551 1.543.368.381.939.576 1.72.576.607 0 1.058-.13 1.352-.4.295-.269.442-.585.442-.948a1.36 1.36 0 0 0-.092-.502 1.073 1.073 0 0 0-.322-.427c-.147-.13-.359-.242-.626-.344a5.761 5.761 0 0 0-1.002-.26 10.352 10.352 0 0 1-1.472-.363 4.254 4.254 0 0 1-1.158-.586 2.464 2.464 0 0 1-.764-.92c-.184-.373-.276-.819-.276-1.349v-.093c0-.437.092-.846.267-1.218.175-.372.423-.697.745-.976a3.306 3.306 0 0 1 1.15-.641 4.72 4.72 0 0 1 1.508-.233c.625 0 1.177.093 1.665.27.487.176.892.418 1.223.725.33.307.552.67.745 1.06.239.474.248 1.44.248 1.44l-1.986-.018z"/></g></g></svg>