<svg viewBox="0 0 32 32" xmlns="http://www.w3.org/2000/svg"><defs><linearGradient x1="100%" y1="48.873%" x2="-.733%" y2="49.606%" id="a"><stop stop-color="#B3F8F1" offset="0%"/><stop stop-color="#8FF0BE" offset="50%"/><stop stop-color="#B5F9F1" offset="100%"/></linearGradient></defs><g fill="none" fill-rule="evenodd"><circle fill="#7BBAA4" cx="16" cy="16" r="16"/><g transform="translate(6.468 4)"><path d="M6.419 3.996C4.02 5.594-.374 10.389.025 15.184c.4 4.795 3.597 8.391 9.59 8.79 5.994.4 9.99-3.995 10.39-7.591.399-3.597-1.999-10.789-7.992-12.787-1.636-.51-1.429-.28-2.398-.4-1.555-.19-.799-.799-3.196.8z" stroke="#004531" fill="#7BBAA4"/><path d="M10.015 22.376c4.414 0 7.991-3.399 7.991-7.592 0-1.535-.48-2.965-1.305-4.16-2.29-1.034-11.88-1.434-13.479.564-.692 1.124-1.199 2.2-1.199 3.596 0 4.193 3.578 7.592 7.992 7.592z" fill="#FFAFBC"/><path d="M12.013 21.178c2.397-.4 4.795-2.797 4.795-4.795 0-1.998-.77-2.797-3.197-2.797s-6.793 3.786-6.793 5.993c0 2.207 2.797 1.998 5.195 1.599zM4.39 15.277c.381-.095.748-.597.733-1.003-.014-.407-.143-.565-.53-.552-.389.014-1.06.809-1.044 1.258.015.45.461.391.842.297z" fill="#FF93A1"/><path d="M15.609 20.778c.57-.142 1.505-.842 1.483-1.452-.021-.61-.214-.848-.796-.827-.583.02-1.91 1.206-1.886 1.88.024.673.628.541 1.199.399z" fill="#FFF"/><path d="M10.015 12.387c3.53 0 6.793-.936 6.793-1.598s-3.262-1.2-6.793-1.2-6.793.937-6.793 1.6c0 .661 3.262 1.198 6.793 1.198z" fill="#FFD3DA"/><path d="m0 3.996.343 2.4a.2.2 0 0 0 .34.114l1.993-1.994a.2.2 0 0 1 .26-.02l4.093 2.977a.2.2 0 0 0 .28-.045c.6-.835 1.094-1.446 1.482-1.834.333-.334.833-.746 1.499-1.237a1 1 0 0 1 1.04-.09l.258.128 3.055 1.528a.2.2 0 0 0 .243-.051l1.756-2.108a.2.2 0 0 1 .295-.013l.644.644-.663-1.658a.2.2 0 0 0-.348-.042l-1.686 2.36a.2.2 0 0 1-.253.063l-3.753-1.877a.2.2 0 0 0-.18 0c-.832.418-1.468.803-1.907 1.154-.342.274-.803.717-1.382 1.331a1 1 0 0 1-1.341.103L3.324 3.695a.2.2 0 0 0-.251.004L.993 5.432a.2.2 0 0 1-.307-.064L0 3.996z" fill="url(#a)" transform="translate(1.224 9.59)"/><ellipse fill="#FFF" transform="rotate(39 5.295 9.708)" cx="5.295" cy="9.708" rx="1.199" ry="2.397"/><path d="m7.617 3.197 2.797.4.8-.4v2.397c-.533.266-1.066.4-1.599.4a3.546 3.546 0 0 1-1.598-.4l-.4-2.397z" fill="#8CB973"/><path d="m7.218 1.199 4.395-.4v1.598l-.4.8c-.532.532-1.198.799-1.997.799-.8 0-1.332-.267-1.599-.8l-.799-.799.4-1.198z" fill="#DE8845"/><path d="M9.615 1.598c.883 0 1.682-.133 2.398-.4C11.03.4 10.098 0 9.216 0c-.883 0-1.682.4-2.398 1.199.982.266 1.915.4 2.797.4z" fill="#EBB749"/><path d="M7.218 3.596a1.82 1.82 0 0 0 0-.4c-.072-.5-.2-1.268-.387-2.305a.16.16 0 0 1 .062-.15C7.543.247 8.318 0 9.216 0c.903 0 1.806.288 2.71.865a.16.16 0 0 1 .072.159c-.187.985-.316 1.71-.385 2.173a1.635 1.635 0 0 0 0 .4" stroke="#004531"/></g></g></svg>