<svg viewBox="0 0 32 32" xmlns="http://www.w3.org/2000/svg"><g fill="none" fill-rule="evenodd"><circle fill="#1F2944" cx="16" cy="16" r="16"/><g transform="translate(8 7.5)" fill="#FFF"><path d="M0 0h2v2H0zm0 5h2v2H0zm5-5h2v2H5zm0 5h2v2H5zm5-5h2v2h-2z"/><rect x="15" y=".5" width="1" height="1" rx=".5"/><rect x="15" y="5.5" width="1" height="1" rx=".5"/><path d="M0 10h2v2H0z"/><rect x="15" y="10.5" width="1" height="1" rx=".5"/><rect x="15" y="15.5" width="1" height="1" rx=".5"/><rect x="10.5" y="10.5" width="1" height="1" rx=".5"/><rect x="10.5" y="15.5" width="1" height="1" rx=".5"/><rect x="5.5" y="10.5" width="1" height="1" rx=".5"/><rect x="10.5" y="5.5" width="1" height="1" rx=".5"/><rect x="5.5" y="15.5" width="1" height="1" rx=".5"/><rect x=".5" y="15.5" width="1" height="1" rx=".5"/></g></g></svg>