<svg viewBox="0 0 32 32" xmlns="http://www.w3.org/2000/svg"><g fill="none" fill-rule="evenodd"><circle fill="#F00500" cx="16" cy="16" r="16"/><g fill-rule="nonzero"><path d="M10.45 14.295c.186.012.4-.012.612-.028a2.51 2.51 0 0 0 .658-.135c.131-.047.252-.123.304-.26.095-.25.116-.513.042-.768-.116-.398-.409-.666-.726-.91a1.155 1.155 0 0 0-.928-.243c-.588.099-1.186.616-1.258 1.225-.032.268-.047.524.108.765.105.163.214.299.43.316.242.02.485.04.757.038zm11.094.003c.133.01.342-.016.552-.03.186-.012.362-.054.475-.23.159-.246.224-.514.184-.801-.07-.503-.366-.856-.794-1.105-.341-.199-.706-.262-1.09-.124-.223.08-.403.229-.572.386-.299.28-.527.6-.56 1.026-.032.391.128.627.501.737.401.118.813.132 1.304.141zM23.566 16c0-.247.003-.495-.075-.732-.099-.3-.073-.303-.37-.277-.406.035-.77.206-1.128.384-.508.252-.99.55-1.464.862-.383.253-.781.487-1.112.81-.262.254-.496.528-.555.907-.019.117.02.186.148.217.12.028.24.052.366.052.472 0 .932-.084 1.387-.194a7.568 7.568 0 0 0 1.692-.613c.357-.184.694-.395.967-.694.072-.08.125-.16.123-.274-.002-.15.013-.299.021-.448zm-14.955-.038c.006.105.026.284.022.463-.004.167.078.278.189.385.46.441 1.025.7 1.612.921.382.143.773.254 1.172.342.4.087.803.15 1.212.162.146.004.292-.012.432-.06.12-.04.157-.097.138-.214a1.012 1.012 0 0 0-.096-.296c-.183-.362-.466-.639-.794-.864-.846-.582-1.704-1.145-2.653-1.553-.289-.124-.585-.226-.909-.222-.11.001-.157.046-.197.14-.1.231-.107.477-.128.796zM5.628 3.877c-.07-.01-.085.01-.146.148-.231.515-.297 1.063-.326 1.616a7.48 7.48 0 0 0 .042 1.026c.02.237.049.472.085.707a20.468 20.468 0 0 0 .363 1.797c.107.42.224.839.346 1.256.1.345.212.687.32 1.03.008.024.017.054.05.054.027 0 .034-.026.046-.044.234-.368.469-.735.734-1.083.33-.433.669-.858 1.05-1.249.307-.316.619-.628.96-.909a12.5 12.5 0 0 1 .98-.743c.063-.042.06-.074.013-.123-.23-.24-.45-.49-.686-.723a20.42 20.42 0 0 0-1.233-1.143 13.233 13.233 0 0 0-.961-.749 8.505 8.505 0 0 0-1.095-.648 3.505 3.505 0 0 0-.542-.22zm17.188 4.476c.054.094.154.14.227.214.324.33.663.647.965 1a16.416 16.416 0 0 1 1.347 1.824c.03.048.037.123.102.128.017 0 .046-.091.062-.143.127-.427.265-.85.388-1.278.14-.486.27-.974.377-1.467.119-.539.22-1.081.283-1.632.042-.366.065-.732.08-1.099.012-.326-.03-.653-.065-.978-.007-.02-.018-.041-.02-.063a2.863 2.863 0 0 0-.26-.872c-.062-.138-.077-.14-.222-.082a7.21 7.21 0 0 0-1.43.76c-.701.479-1.34 1.034-1.953 1.62A21.04 21.04 0 0 0 21.67 7.35c-.05.055-.063.086.01.139.271.197.544.392.806.603.108.088.2.2.33.26zm-.158-3.723c.313-.299.616-.608.946-.89.598-.511 1.236-.964 1.96-1.287.47-.21.957-.363 1.475-.403.075-.005.12.008.164.079.19.303.31.633.402.976.19.707.218 1.428.19 2.152-.022.592-.082 1.18-.168 1.767-.068.464-.153.925-.237 1.386-.032.176-.08.348-.104.525-.01.036-.024.07-.032.107-.13.6-.282 1.195-.439 1.789-.185.699-.38 1.395-.607 2.08-.067.202-.023.357.056.53.224.495.51.962.7 1.474.136.364.27.727.382 1.099.183.607.32 1.224.421 1.85a16.533 16.533 0 0 1 .204 2.156c.004.128.057.257.009.387-.174-.027-.348-.06-.523-.078a8.414 8.414 0 0 0-1.72-.03 6.789 6.789 0 0 0-1.922.47c-.8.33-1.507.807-2.135 1.399-.17.16-.334.327-.507.498l-.194-.58c-.185-.545-.462-1.048-.713-1.563a1.948 1.948 0 0 0-.284-.43 5.974 5.974 0 0 0-1.375-1.181c-.804-.493-1.69-.707-2.626-.71a4.763 4.763 0 0 0-1.425.241c-.916.285-1.653.829-2.281 1.54-.23.26-.381.563-.557.852a9.918 9.918 0 0 0-.64 1.215l-.269.621-.114-.125c-1.08-1.187-2.37-2.002-3.988-2.249a7.787 7.787 0 0 0-1.808-.048c-.3.024-.595.075-.89.125.004-.335.033-.67.06-1.004.035-.438.098-.873.172-1.306.063-.366.143-.73.23-1.092.14-.58.308-1.151.51-1.713.037-.107.095-.213-.006-.318-.003-.004.005-.018.011-.037.066.087.1.072.134-.021a22.25 22.25 0 0 1 .683-1.608c.024-.052.042-.103.019-.16a16.938 16.938 0 0 1-.578-1.703c-.126-.44-.244-.882-.34-1.33-.069-.323-.143-.646-.215-.969-.017-.268-.083-.529-.123-.793a23.408 23.408 0 0 1-.256-2.5 14.7 14.7 0 0 1-.01-1.242c.02-.51.054-1.019.184-1.515.07-.27.163-.533.314-.771.173-.274.314-.326.635-.276.565.087 1.062.33 1.533.632.63.403 1.19.891 1.72 1.413l.64.627c.013.018.025.038.04.054.278.302.561.601.836.908.389.434.775.871 1.154 1.314.077.09.14.104.244.06.668-.273 1.36-.466 2.069-.599.613-.114 1.234-.154 1.856-.176.89-.03 1.778.01 2.658.157.788.13 1.56.328 2.308.611.169.064.167.067.276-.086.33-.463.684-.907 1.046-1.345.27-.328.56-.641.845-.957z" fill="#F4A817"/><path d="M17.762 29.684h-.103c.04.025.07.016.103 0zm-.337.05c.081.024.133.005.194-.025-.07-.023-.12.015-.194.024zm-1.185-4.269v-.003h-.958c-.191 0-.189 0-.182.191.002.05.026.073.062.096.094.062.201.095.304.14.071.03.11.024.138-.06.056-.166.062-.16.237-.149.058.004.089.03.115.072l.178.296c.093.152.242.161.36.023l.15-.179c.168-.197.168-.197.367-.029.027.023.047.059.094.048a.385.385 0 0 0 .288-.352c.003-.085-.032-.096-.105-.095-.349.003-.698.001-1.048.001zm3.26-.967h-.952c-.046 0-.07.028-.084.062-.032.083-.09.1-.174.097-.248-.007-.496-.003-.744-.005-.128 0-.28.038-.376-.017-.1-.058-.153-.204-.212-.32-.041-.08-.09-.12-.18-.106-.057.01-.077-.01-.076-.071.003-.28.002-.56 0-.841 0-.048.012-.072.06-.088a2.04 2.04 0 0 0 .599-.322c.357-.27.607-.612.69-1.059.058-.307.028-.618.039-.927.012-.373-.367-.754-.742-.754h-2.086c-.423 0-.703.279-.703.7 0 .198.01.397-.002.594-.024.406.143.729.416 1.01.33.34.738.564 1.169.75.041.018.082.024.081.087-.003.284-.002.568 0 .851 0 .045-.01.08-.062.066-.114-.027-.155.048-.2.128-.05.091-.108.177-.159.268-.023.041-.05.056-.098.055-.443 0-.887.001-1.33-.023-.035-.002-.069 0-.07-.048 0-.071-.048-.08-.106-.08l-.924-.006c-.023 0-.058-.016-.064.023-.006.036-.013.075.019.106.054.051.105.107.163.153a.28.28 0 0 1 .109.22c.008.13.031.258.057.386.02.106.053.138.16.105.069-.021.148-.03.16.084.017.156.068.304.118.452.068.198.146.393.272.56.145-.147.158-.32.152-.51-.012-.35-.004-.7-.004-1.054.051.006.108.008.162.02.469.095.944.13 1.42.148a10.96 10.96 0 0 0 2.287-.167c.085-.015.1.003.098.084-.008.359-.006.718-.012 1.076-.003.166.114.268.19.41l.352-.913c.066-.17.066-.173.248-.172.051 0 .093 0 .108-.063l.23-.949zm6.091.832.018-.022-.012-.01-.01.029a7.924 7.924 0 0 1-.02.024c-.032-.002-.046.014-.045.044l-.028.007.008.012.02-.018a.072.072 0 0 0 .045-.045l.024-.021zm.096-.039a7.49 7.49 0 0 1-.732.737 15.073 15.073 0 0 1-1.918 1.484c-.718.471-1.468.886-2.25 1.244-.552.254-1.117.477-1.696.663-.561.18-1.133.32-1.716.418a7.49 7.49 0 0 1-1.961.084 8.618 8.618 0 0 1-1.699-.34c-.15-.045-.299-.099-.446-.15a34.293 34.293 0 0 1-.707-.248c-.32-.118-.625-.262-.933-.403a18.092 18.092 0 0 1-4.306-2.753c-.937-.808-1.784-1.696-2.44-2.75a6.284 6.284 0 0 1-.753-1.673 3.72 3.72 0 0 1-.122-1.23c.296-.05.591-.101.89-.125a7.787 7.787 0 0 1 1.808.048c1.619.247 2.91 1.062 3.99 2.25l.113.124.27-.621c.182-.421.4-.823.639-1.215.176-.29.328-.592.557-.851.628-.712 1.364-1.256 2.281-1.54a4.75 4.75 0 0 1 1.425-.242c.937.003 1.822.217 2.626.71.522.32.974.722 1.375 1.182.114.13.209.274.284.429.251.515.528 1.018.713 1.564l.194.579c.173-.17.336-.338.507-.498a6.987 6.987 0 0 1 2.135-1.398 6.79 6.79 0 0 1 1.923-.47 8.418 8.418 0 0 1 1.72.03c.174.017.348.05.522.077.008.227-.01.453-.045.678a6.373 6.373 0 0 1-.544 1.768c-.145.31-.33.596-.504.89a9.398 9.398 0 0 1-1.105 1.46c-.01.012-.023.02-.034.03-.019-.047.042-.072.036-.125-.046.042-.1.067-.104.13-.012.006-.034.009-.036.017-.006.027.02.022.036.028l.007.008z" fill="#FFFEFE"/><path d="M5.628 3.877c.182.054.365.133.542.22.381.187.746.406 1.095.648.334.232.65.488.962.75.43.36.834.748 1.232 1.142.236.233.457.482.686.723.046.049.05.08-.013.123a11.788 11.788 0 0 0-1.94 1.653c-.381.39-.72.815-1.05 1.248-.265.348-.5.715-.734 1.083-.012.018-.019.044-.046.044-.033 0-.042-.03-.05-.053-.108-.344-.22-.686-.32-1.031a37.058 37.058 0 0 1-.346-1.256 20.337 20.337 0 0 1-.363-1.797c-.036-.235-.064-.47-.085-.707a7.372 7.372 0 0 1-.042-1.026c.029-.553.095-1.101.326-1.616.061-.138.076-.158.146-.148z" fill="#F28F1F"/><path d="M26.582 4.922c.036.325.077.652.064.978-.014.367-.038.733-.079 1.1-.062.55-.164 1.092-.283 1.631-.108.493-.237.981-.377 1.467-.123.428-.261.851-.388 1.278-.016.052-.045.144-.063.143-.064-.005-.07-.08-.101-.128a15.924 15.924 0 0 0-1.347-1.824c-.302-.353-.64-.67-.965-1-.073-.075-.173-.12-.227-.214.02-.027.045-.05.06-.08.141-.299.302-.587.474-.87.259-.428.546-.836.882-1.206.353-.389.752-.725 1.227-.963.353-.176.723-.298 1.123-.312z" fill="#F28B20"/><path d="M8.611 15.96c.021-.318.029-.564.128-.796.04-.093.087-.138.197-.139.324-.004.62.098.909.222.949.408 1.807.971 2.653 1.553.328.225.61.502.794.864.047.094.079.192.096.296.019.117-.019.175-.138.215-.14.047-.286.063-.432.06a6.495 6.495 0 0 1-1.212-.163 8.546 8.546 0 0 1-1.172-.342c-.587-.22-1.152-.48-1.612-.921-.111-.107-.193-.218-.19-.385.005-.179-.015-.358-.02-.463z" fill="#1F1712"/><path d="M23.566 16c-.008.148-.023.298-.02.447 0 .115-.052.195-.124.274-.273.3-.61.51-.967.694a7.567 7.567 0 0 1-1.692.613c-.455.11-.916.193-1.387.194-.126 0-.247-.024-.366-.052-.128-.03-.167-.1-.148-.217.059-.38.293-.653.555-.908.33-.322.729-.556 1.112-.809.473-.311.955-.61 1.464-.862.359-.178.722-.349 1.128-.384.296-.026.27-.022.37.277.078.237.074.485.075.732z" fill="#1F1713"/><path d="M26.582 4.922c-.4.014-.77.136-1.123.312-.475.238-.874.574-1.227.963-.336.37-.623.778-.882 1.206a9.842 9.842 0 0 0-.475.87c-.014.03-.04.053-.06.08-.13-.06-.222-.173-.33-.26-.262-.212-.535-.407-.807-.604-.072-.053-.06-.084-.01-.14.332-.365.673-.722 1.029-1.063.612-.587 1.252-1.142 1.953-1.622.447-.305.924-.56 1.43-.759.145-.057.16-.056.223.081.128.279.223.567.258.873.003.022.014.042.02.063z" fill="#F2991D"/><path d="M21.544 14.298c-.492-.009-.903-.023-1.304-.141-.373-.11-.533-.346-.502-.737.034-.427.262-.747.561-1.026.169-.157.349-.306.572-.386.383-.138.749-.075 1.09.124.428.25.723.602.794 1.105.04.287-.025.555-.184.801-.113.176-.29.218-.475.23-.21.013-.42.04-.552.03zm-11.094-.003c-.273.003-.516-.019-.759-.038-.215-.017-.324-.153-.429-.316-.155-.241-.14-.497-.108-.765.072-.609.67-1.126 1.258-1.225.34-.057.652.029.928.242.317.245.61.513.726.91.074.256.053.52-.042.77-.052.136-.173.212-.304.259a2.505 2.505 0 0 1-.658.135c-.213.016-.426.04-.613.028z" fill="#FFFEFE"/><path d="M25.68 25.239c.005-.064.057-.089.104-.131.006.053-.055.078-.036.125l-.003.006h-.065z" fill="#F6D9A7"/><path d="M25.68 25.239h.058c-.01.025-.023.046-.052.052l-.006-.008v-.045z" fill="#FFFEFE"/><path d="m19.499 24.498-.23.95c-.015.062-.057.062-.109.062-.181 0-.181.001-.247.172l-.353.913c-.075-.142-.192-.244-.19-.41.007-.358.005-.717.013-1.076.001-.081-.013-.1-.098-.084-.757.13-1.52.196-2.287.167a8.731 8.731 0 0 1-1.42-.148c-.055-.012-.111-.014-.162-.02 0 .353-.008.704.004 1.054.006.19-.007.363-.152.51a1.99 1.99 0 0 1-.272-.56c-.05-.148-.101-.296-.118-.452-.012-.115-.091-.105-.161-.084-.106.033-.138 0-.16-.105a3.05 3.05 0 0 1-.056-.386.28.28 0 0 0-.109-.22c-.058-.046-.109-.102-.163-.154-.032-.03-.025-.069-.02-.105.007-.039.042-.023.065-.023l.924.005c.058 0 .105.01.106.08.001.05.034.047.07.05.443.023.886.022 1.33.022.047 0 .075-.014.098-.055.05-.09.109-.177.16-.268.043-.08.085-.155.2-.127.051.012.06-.022.06-.067 0-.283-.002-.567 0-.851.002-.063-.039-.07-.08-.088-.432-.185-.838-.41-1.169-.75-.273-.28-.44-.603-.416-1.01.012-.196.001-.395.002-.593 0-.421.28-.7.703-.7h2.086c.375 0 .754.381.742.754-.01.31.019.62-.039.927-.083.447-.333.789-.69 1.059a2.06 2.06 0 0 1-.598.322c-.049.016-.062.04-.061.088.002.28.003.56 0 .84-.001.061.02.082.076.072.09-.015.139.026.18.106.059.116.113.262.212.32.096.055.248.017.376.017.248.002.496-.002.744.005.085.003.142-.014.174-.097.013-.034.038-.063.084-.062h.951z" fill="#1D1919"/><path d="M16.24 25.465c.35 0 .7.002 1.048 0 .073-.002.108.009.105.094a.385.385 0 0 1-.288.352c-.047.01-.067-.025-.094-.048-.199-.168-.199-.168-.366.03l-.152.178c-.117.138-.266.129-.36-.023-.06-.098-.118-.197-.177-.296-.026-.042-.057-.068-.115-.072-.175-.011-.18-.017-.237.148-.028.085-.067.091-.138.06-.103-.044-.21-.077-.304-.139-.036-.023-.06-.046-.062-.096-.007-.192-.01-.191.182-.191h.958v.003z" fill="#171413"/><path d="M17.425 29.733c.075-.009.124-.047.194-.024-.06.03-.113.049-.194.024zm.336-.049c-.033.016-.063.025-.102 0h.102zm7.919-4.446v.045c-.015-.006-.042 0-.036-.028.002-.008.024-.011.036-.017zm-.158.157c0-.03.013-.046.045-.044a.072.072 0 0 1-.045.045z" fill="#F6D9A7"/><path d="m25.522 25.396-.02.018-.008-.012.028-.007zm-.33.32-.001.008c-.003.002-.007.004-.01.003-.01-.005-.01-.01.001-.014l.01.003z" fill="#F7DDB0"/><path d="m25.588 25.326.01-.027.011.009-.018.022-.003-.004z" fill="#F6D9A7"/><path d="m25.567 25.35.021-.024.004.003-.025.022z" fill="#F6D9A7"/><path d="m25.452 25.46.011-.014c.015.013 0 .014-.007.019l-.004-.004z" fill="#F7DDB0"/><path d="m25.456 25.464-.013.01a1.12 1.12 0 0 0 .01-.013l.003.003zm-.058.049.003.008-.007-.001zm-.061.058c.005-.008.01-.02.02-.006l-.013.013-.007-.007z" fill="#F7DDB0"/><path d="m25.344 25.577-.014.009a.974.974 0 0 0 .008-.015l.006.006zm-.058.036-.003-.006h.006zm-.068.067-.003-.006.006.001z" fill="#F7DDB0"/></g></g></svg>