<svg width="200pt" height="200pt" viewBox="0 0 200 200" xmlns="http://www.w3.org/2000/svg"><path fill="#7ac4f3" d="M99.99 9.24c9.74-.23 19.45 1.56 28.56 4.98 4.62 1.76 9.44 3.25 13.48 6.21-10.98 2.76-22.25 6.14-31.02 13.66-5.52 4.35-9.39 10.32-12.6 16.48-11.03.28-22.17 3.92-30.58 11.19-10.01 8.07-16.21 20.42-17.19 33.2-1.89 20.03 10.56 40.44 29.33 47.78-6.69 9.9-18.2 15.95-29.97 17.18-5.78 1.11-11.57-.26-17.34-.62C15.73 141.54 7 116.38 8.89 91.97 10.92 61.55 29.83 32.87 57 19.02 70.14 12.07 85.12 8.6 99.99 9.24z"/><path fill="#0267af" d="M139.96 37.87c7.88-2.09 16.25-1.82 24.21-.34 12.96 14.18 21.64 32.4 23.41 51.61 1.91 15.85-1 32.18-7.59 46.68-9.18 20.24-26.23 36.76-46.74 45.3-25.54 11.02-56.18 8.98-80.09-5.2 18.14-2.48 36.95-11.94 44.65-29.43 14.42.06 28.89-6.5 37.84-17.9 8.64-10.59 12.53-24.99 9.92-38.45-2.68-16.1-14.38-30.06-29.43-36.13 5.86-7.84 14.27-13.78 23.82-16.14z"/></svg>