<svg width="264" height="200pt" viewBox="0 0 198 200" xmlns="http://www.w3.org/2000/svg"><path fill="#41c3e7" d="M78.34 15.55c3.58-.88 6.76-3.31 10.58-3.12 8.2.01 16.51-.33 24.58 1.43 6.26 2.24 12.13 5.56 18.61 7.22 1.91.43 3.57 1.46 5.1 2.65-2.64 1.18-5.3 2.32-7.99 3.38 2.38 3.34 6.11 5.15 9.61 7.06-.06.59-.19 1.77-.25 2.36-12.65 2.17-24.31 8.66-33.36 17.69-2.58 2.49-4.1 5.89-6.77 8.28-3.49 2.14-7.7 2.47-11.55 3.64-5.31 1.17-9.17 5.24-13.66 8-4.03 2.77-9.05 5.01-10.98 9.85-2.65 6.37-5.79 12.95-5.43 20.02.56 4.23.67 8.68 2.68 12.54 3.18 6.11 7.43 11.79 13.02 15.89 3.19 2.06 6.72 3.66 9.36 6.48-1.16 1.75-2.34 3.48-3.49 5.23a29.88 29.88 0 0 0 6.45 3.86c-.45 1.94-1.84 3.34-3.49 4.36-5.23 3.38-9.42 8.58-15.65 10.2-7.68 2.1-15.71 3.85-23.69 2.69-3.58-.54-6.47-2.95-8.51-5.82-8.63-11.41-14.57-24.75-17.77-38.67-.54-6.85-1.76-13.71-1.06-20.6 1.17-7.94.74-16.21 3.77-23.79 2.34-9.39 6.6-18.17 11.51-26.46 6.33-8.8 14.12-16.54 22.59-23.27 4.62-4.02 10.82-5.04 16.08-7.91 3-1.7 6.41-2.35 9.71-3.19z"/><path fill="#058bcc" d="M120 50.01c6.05-6.47 14.78-8.9 22.99-11.31 5.96-.4 12.05-.27 17.86 1.26 5.69 5.25 10.12 11.87 13.44 18.85 1.7 3.34 3.74 6.57 4.62 10.25 1.17 5.53 3.94 10.72 3.68 16.5 1.35 9.76.89 19.65.78 29.48-1.86 18.68-9.83 36.84-22.86 50.43-6.69 7.59-15.26 13.21-24.08 18.01-13.43 6.59-28.59 9.18-43.46 8.77-12.21-1.62-24.46-4.75-35.01-11.32 4.02-1.87 8.51-2.66 12.21-5.2-4.01-1.75-7.78-3.98-11.08-6.86 8.07-2.02 16.11-4.61 23.35-8.77 3.52-2.64 6.41-6.01 9.56-9.07 3.55-3.49 5.95-7.98 9.6-11.36 4.12-1.62 8.64-.71 12.9-1.51 4.21-2.28 8.41-4.66 12.27-7.51 3.4-2.39 5.44-6.14 8.66-8.73 3.07-2.26 3.43-6.41 4.38-9.81 3.04-12.57-1.86-26.06-11.18-34.76-3.91-4.59-10.34-5.7-14.32-10.19 2.24-2.51 4.46-5.04 6.52-7.7-1.42-1.02-2.95-1.93-4.17-3.2-1.19-2.53 1.94-4.49 3.34-6.25z"/></svg>