<svg width="200pt" height="200pt" viewBox="0 0 200 200" xmlns="http://www.w3.org/2000/svg"><path fill="#fa9d02" d="M89.37 0h14.14c1.3 1.83 2.57 3.7 4.16 5.31 10.51 9.47 20.04 19.97 30.02 29.98 5.92 5.08 10.43 11.57 16.49 16.51 10.19 9.47 19.73 19.62 29.71 29.31 3.71 3.97 8.53 7.29 10.23 12.71-8.37-.77-16.3-3.76-24.47-5.54-19.77-3.04-39.53-7.45-59.65-6.76-16.34.28-32.75-.81-49.03 1.1-12.47.67-24.63 3.72-36.97 5.44-8.09 1.1-16.06 2.94-24 4.77v-4.1c12.56-12 24.49-24.66 36.91-36.8 3.73-3.27 7.77-6.21 11.12-9.89 10.96-11.05 22-22.01 33.02-32.99C84.11 6.3 86.63 3.04 89.37 0z"/><path fill="#020fae" d="M143 99.66c9-.12 18-.2 27-.34 9.99-.96 19.98.49 30 .23v2.36c-2.8 6.21-8.77 9.97-13.44 14.63-22.11 21.91-44.07 43.96-65.95 66.1-2.3 2.4-4.9 4.48-7.37 6.69-3.72 3.31-6.4 7.66-10.41 10.67h-3.49c-10.42-8.98-19.34-19.59-29.77-28.58-3.9-4-8.17-7.6-11.94-11.7 6.61-.52 12.61-3.64 18.93-5.37 3.77-.98 6.92-3.39 9.47-6.27 3.76-4.04 5.09-10.83 1.22-15.26-4.14-3.92-9.38-7.24-11.56-12.75-.28-2.89-1.09-6.72 1.69-8.67 3.59-2.97 7.79-5.73 12.54-6.17 17.57-2.87 35.31-4.51 53.08-5.57z"/></svg>