<svg width="200pt" height="200pt" viewBox="0 0 200 200" xmlns="http://www.w3.org/2000/svg"><path d="M87.86 12.22c23.71-3.59 49.29 3.58 66.63 20.41-11.14-5.37-23.04-9.67-35.51-10.16-17.53-1.02-35.37 3.75-49.97 13.54-11.8 8-21.67 19.01-28.07 31.77-5.04 10.4-7.81 22.28-5.61 33.8-11.4-10.02-13.31-27.01-9.31-40.93 2.33-8.93 7.64-16.6 12.8-24.1 13.25-12.97 30.63-21.79 49.04-24.33zm78.11 82.08c8.93 8.11 12.57 21 10.91 32.75-1.27 12.28-7.59 23.28-15.05 32.85-13.52 13.09-31.33 21.82-50.06 24.02-19.78 2.61-40.57-2.22-56.86-13.83-2.9-1.98-5.62-4.23-7.93-6.88 11.43 6.02 24.07 9.97 37.04 10.35 19.29.67 38.84-5.62 53.88-17.78 12.68-10.64 23.36-24.53 27.22-40.89 1.82-6.7 1.89-13.75.85-20.59z" fill="#e9a539"/><path d="M109.89 29.46c16.26-2.6 33.68.77 47.14 10.46 15.02 10.92 25.42 27.84 28.71 46.1 5.03 26.6-4.87 54.92-23.91 73.88 7.46-9.57 13.78-20.57 15.05-32.85 1.66-11.75-1.98-24.64-10.91-32.75-7.45-7.02-17.82-10.57-28.01-10.12-12.55.1-24.28 5.99-33.68 13.97-14.26-14.5-28.71-28.81-43.1-43.17 13.26-13 30.14-22.85 48.71-25.52zm-92.1 42.61c4.03-13.3 11.42-25.51 21.03-35.52-5.16 7.5-10.47 15.17-12.8 24.1-4 13.92-2.09 30.91 9.31 40.93 7.02 6.82 16.96 10.34 26.69 10.15 12.88.23 25.3-5.5 34.77-14 14.33 14.48 28.78 28.83 43.19 43.23-13.27 13.17-30.39 22.96-49.07 25.56-17.09 2.72-35.44-1.43-49.07-12.28-10.01-8.06-17.88-18.78-22.51-30.78-6.34-16.3-6.61-34.72-1.54-51.39z" fill="#1c4698"/></svg>