<svg width="200pt" height="200pt" viewBox="0 0 200 200" xmlns="http://www.w3.org/2000/svg"><g fill="#fbf6f6"><path d="M0 0h200v200H0V0m85.33 32.43c-3.02.62-6.05 1.2-9.04 1.92-11.61 8.71-20.82 19.88-31.86 29.07-5.41 3.67-7.55 10.41-8.43 16.56.04 28.32-.09 56.64.06 84.96 1.28 3.64 3.54 7.95 7.93 8.05 30.64-.02 61.29.12 91.94-.07 8.62-2.88 14.49-10.12 20.32-16.68 6.63-5.7 12.33-12.4 17.73-19.26 5.82-10.36 3.67-22.66 4.02-33.98-.2-11.63 1.32-23.67-3.31-34.7-4.49-5.17-8.79-10.55-14.18-14.82-8.01-6.72-14.4-15.71-24.41-19.66-8.42-2.83-17.41-1.58-26.1-1.82-8.22.16-16.48-.43-24.67.43z"/><path d="M83.26 78.19c13.24-.45 26.5-.07 39.75-.21 3.23-.97 6.44.24 8.88 2.2.27 13.27.03 26.55.13 39.83.49 2.85.3 7.85-3.32 8.7-13.22.63-26.47.19-39.71.26-2.71.46-6.97 0-7.7-3.27-.62-14.87-.22-29.77-.24-44.66-.03-1.35 1.47-1.93 2.21-2.85z"/></g><path fill="#c10f1a" d="M85.33 32.43c8.19-.86 16.45-.27 24.67-.43 8.69.24 17.68-1.01 26.1 1.82 10.01 3.95 16.4 12.94 24.41 19.66 5.39 4.27 9.69 9.65 14.18 14.82 4.63 11.03 3.11 23.07 3.31 34.7-.35 11.32 1.8 23.62-4.02 33.98-5.4 6.86-11.1 13.56-17.73 19.26-5.83 6.56-11.7 13.8-20.32 16.68-30.65.19-61.3.05-91.94.07-4.39-.1-6.65-4.41-7.93-8.05-.15-28.32-.02-56.64-.06-84.96.88-6.15 3.02-12.89 8.43-16.56 11.04-9.19 20.25-20.36 31.86-29.07 2.99-.72 6.02-1.3 9.04-1.92m-2.07 45.76c-.74.92-2.24 1.5-2.21 2.85.02 14.89-.38 29.79.24 44.66.73 3.27 4.99 3.73 7.7 3.27 13.24-.07 26.49.37 39.71-.26 3.62-.85 3.81-5.85 3.32-8.7-.1-13.28.14-26.56-.13-39.83-2.44-1.96-5.65-3.17-8.88-2.2-13.25.14-26.51-.24-39.75.21z"/></svg>