<svg xmlns="http://www.w3.org/2000/svg" viewBox="0 0 200 200" style="enable-background:new 0 0 200 200" xml:space="preserve"><path d="M58.7 131.8c-1.4-1.7 2.6-12.2 1.6-14.2.2-.3.4-1.5.6-1.8 19 .7 38 .2 57.1.4 8.1-.1 16.3.5 24.4-.5-.3-6.6-1.1-13.2-.7-19.8.4-4.8.5-9.6.8-14.5.6-11.3 2.5-22.5 3.9-33.7 1-9.7 3.5-19.2 5.9-28.6.4-2.2 2.2-4.5 4.7-4.5 8.3-.1 16.7.1 25 0 2.2.1 4.8-.4 6.6 1.2-5.1 19.1-9.1 38.6-10.3 58.4-1.3 9.9-.8 19.9-.9 29.8.1 5.7-.2 11.4.8 17 .6 9.6 1.3 19.2 3.5 28.5h-.4c-11.7.2-23.4.2-35.1-.1-9.6-.2-19.1-.1-28.7 0-.2 11 1.1 22 2.2 32.9-12.5-.2-25 .1-37.5-.1.5-5.4 1.8-10.8 2.1-16.2.3-5.5.2-11.1.2-16.6-9.5-.3-19 .4-28.4-.5-.2-.3-.5-.9-.7-1.2M17.6 30c-1.1-5.1-3.1-10.1-3.2-15.4 8.9-.1 17.7 0 26.6-.1 2.8-.1 5.5.3 8.2 1 3.2 10.6 5.5 21.4 7.3 32.3-11.5-.5-23.4 2-34.8.1l-.4-.7c-1.8-5.5-2-11.5-3.7-17.2z" style="fill:#0198dc"/><path d="m59.2 131.6-2.7 14.9c.2.3-.2 2.1-.1 2.4.4 1.7-.3 3.3-.6 5-1.7 8.4-3.5 16.9-5.8 25.2-.4 1.8-1.9 3.7-3.9 3.5-10.6.1-21.3.2-31.9-.1.6-4.8 2-9.5 3.1-14.2 7.9-34.1 10.2-69.6 6.1-104.3-.5-5.4-1.8-10.7-1.7-16.1l.3-.5c11.4 1.9 23-.1 34.5.4 9.4.1 18.9.1 28.3 0 .1-11.1-.3-22.2-2.4-33.2 12.7-.1 25.5-.3 38.2.1-1.4 6.9-3.1 13.8-2.8 20.8 0 4.1-.1 8.1-.1 12.2 9.6 0 19.2.7 28.7 0-1.4 11.2-3.3 22.4-3.9 33.7H60.4c.5 11.2-.3 22.5.4 33.8l.1.7c-.2.3-.5 6.6-.7 6.8" style="fill:#0178bf"/><path d="M146.2 149.4c11.7.4 23.4.4 35.1.1 2.2 11 4.6 21.9 7.4 32.8-10.6.6-21.2.2-31.7.3-2.9.4-4.4-2.4-4.9-4.9-2.4-9.3-4.6-18.7-5.9-28.3z" style="fill:#035298"/></svg>