<svg width="200pt" height="200pt" viewBox="0 0 200 200" xmlns="http://www.w3.org/2000/svg"><g fill="#cd2a34"><path d="M92.69 35.13c11.82-1.17 24.24-1.47 35.49 2.93 14.7 5.23 28.52 14.34 37.16 27.55 4.96 7.54 8.82 15.8 11.5 24.41 2.32 7.43 1.6 15.3 1.66 22.96.03 8.52-2.66 16.76-6.2 24.41-5.92 13.65-16.4 25.12-28.96 32.96-8.79 4.79-18.36 8.39-28.26 9.94-9.61.3-19.46.87-28.82-1.77-10.58-2.83-20.58-7.87-29.17-14.65-6.53-5.51-11.68-12.47-16.22-19.66-6.3-9.91-8.77-21.66-10.17-33.17-.66-5.09.73-10.09 1.43-15.09.86-6.41 2.73-12.66 5.28-18.6 5.26-10.98 13.41-20.42 22.79-28.1 9.21-7.69 20.84-11.88 32.49-14.12M72.86 61.01c.87 1.49 1.43 3.3 2.94 4.3 2.41 1.56 5.42 1.29 8.16 1.44 14.03-.04 28.06-.11 42.09.02 3.78 0 8.51-.06 10.59-3.85.59-3.2-2.77-5.15-5-6.74-10.07-5.89-22.19-6.4-33.55-5.84-9.17.77-19.22 3.09-25.23 10.67M51.05 82.09c-7.8 16.35-7.27 36.1.51 52.36 1.23 2.56 3.22 4.8 6.05 5.54 3.22-6.19 3.23-13.31 4.02-20.08.75-6.28 1.28-12.65.44-18.95-1.1-8.37-1.25-17.02-4.48-24.94-3.1.77-5.25 3.26-6.54 6.07m101.52-5.64c-5.32 12.9-5.61 27.27-4.87 41.02.94 7.14 1 14.77 4.7 21.17.96-.04 1.91-.09 2.87-.14 7.07-11.69 11.12-25.66 8.66-39.32-1.62-8.01-3.79-16.32-9.18-22.7-.54-.01-1.63-.02-2.18-.03m-72.4 9.14c-1.9 7.74.69 15.59.35 23.41.21 6.88-2.02 13.79-.35 20.61 5.86 1.33 11.88.84 17.83.86 8.69-.22 17.4.39 26.09-.14 2.79-.32 7.67-1.49 6.77-5.26-1.44-8.79-1.97-17.76-.97-26.63.47-4.09 1.62-8.15 1.14-12.29-6.27-1.3-12.69-.56-19.03-.69-10.61.14-21.23-.24-31.83.13m-5.32 63.29c-1.1 1.82-2.6 3.68-2.31 5.95-.01 2.26 2.07 3.63 3.85 4.56 7.35 3.64 15.34 6.13 23.57 6.53 12.61 1.64 25.13-2.3 36.39-7.7.24-2.91.25-5.83.07-8.74-3.05-.82-6.2-1.2-9.36-1.12-11.02.1-22.04.05-33.06.07-6.39.05-12.79-.33-19.15.45z"/><path d="M96.34 96.51c6.22-.21 12.51-.48 18.72.19 2.27.02 2.74 2.64 3.23 4.37.65 4.58.65 9.3 0 13.88-.24 2.97-3.92 3.24-6.22 3.54-5.89.15-11.95.69-17.72-.73-2.67-.49-3.34-3.46-3.66-5.73-.48-4.77-.01-9.81 2.17-14.13.58-1.3 2.31-1.14 3.48-1.39z"/></g></svg>