<svg width="200pt" height="200pt" viewBox="0 0 200 200" xmlns="http://www.w3.org/2000/svg"><g fill="#ed1c2b"><path d="M25.8 43.87c13.84-17.54 34.5-29.36 56.48-33.02 13.17-.99 26.74-1.14 39.4 3.18 12.91 3.57 24.71 10.7 34.36 19.92-5 5.36-10.27 10.46-15.46 15.64-2.71 2.65-5.11 5.7-8.42 7.66-4.11-3.88-7.65-8.42-12.26-11.71-2.17-.94-3.62 1.12-5.05 2.36-13.93 14.05-28 27.96-41.95 42-2.67 2.56-5.36 5.12-7.66 8.03 4.39 6.74 10.84 11.73 16.31 17.54 11.15 11.17 22.31 22.32 33.41 33.55 1.31.99 3 3.35 4.79 2.05 4.82-3.54 8.23-8.65 12.96-12.3 1.78-1.24 3.46.71 4.67 1.84 7.03 7.27 14.35 14.25 21.44 21.46-3.54 4.69-8.56 7.94-13.23 11.39-17.71 11.36-39.27 17.02-60.25 14.41-12.76-1.46-25.09-5.87-36.24-12.18-13-8.68-24.65-19.9-31.83-33.94-9.03-16.21-12.34-35.31-10.22-53.67 2.13-16.06 8.53-31.6 18.75-44.21z"/><path d="M113.84 59.8c1.82-1.46 3.44-4.25 6.15-3.41 4.97 3.86 8.86 8.93 13.58 13.08 3.5.62 5.1-3.55 7.51-5.34 1.89-2.55 5.66-1.95 7.43.41 6.6 7.04 13.7 13.6 20.33 20.62 3.79 3.99 8.37 7.33 11.39 11.99.77 1.99-1.11 3.51-2.24 4.88-9.42 9.56-19.11 18.87-28.37 28.59-1.66 1.49-3.22 3.58-5.59 3.82-3.78-2.13-6.21-6.03-10-8.21-4.66 4.33-8.8 9.21-13.56 13.43-1.32 1.67-3.38.73-4.51-.61-12.99-13.15-26.25-26.06-39.16-39.28-1.54-1.48.59-3.28 1.52-4.43 11.84-11.85 23.77-23.6 35.52-35.54m2.58 16.59c-6.3 6.36-12.64 12.69-19 18.99-.98 1.17-3.22 2.75-1.52 4.32 6.11 6.66 12.75 12.82 19.05 19.31 1.23 1 2.31 2.69 4.07 2.64 2.41-1.13 3.84-3.49 5.33-5.57-4.92-4.88-9.9-9.69-14.74-14.64-1.59-1.46-1.66-4.48-.08-5.95 4.18-4.47 8.68-8.63 12.97-12.98 4.08-3.14-3-9.84-6.08-6.12m27.12 10.22c-3.15 2.46-5.69 5.58-8.6 8.31-1.02 1.2-2.69 2.17-2.69 3.92 3.11 3.83 6.85 7.12 10.29 10.65.76 1.06 2.41 1.4 3.35.38 3.17-2.82 6.04-5.97 9.05-8.96.69-.9 2.35-2.05 1.37-3.32-2.64-3.28-5.76-6.17-8.75-9.14-1.17-.87-2.36-2.73-4.02-1.84z"/></g></svg>