<svg width="200pt" height="200pt" viewBox="0 0 200 200" xmlns="http://www.w3.org/2000/svg"><path fill="#29176d" d="M59.67 6.81c1.17-.34 2.4-.28 3.61-.38-.04 18.85-.24 37.71.23 56.56-.09 2.95.28 5.88 1.04 8.73 5.22-5.46 10.48-10.93 16.25-15.81 9.31-7.56 21.46-10.41 33.18-11.26 28.98-.52 57.43 20.18 64.32 48.61 2.44 8.3 2.58 17.02 2.07 25.59-1.44 9.02-4.43 17.81-9.07 25.69-5.47 8.91-13.52 15.95-22.38 21.35-1.74 1.11-3.75 1.64-5.73 2.11.45-6.09 4.07-11.47 3.74-17.7-10.28-.01-20.58-.21-30.83.39-2.49 3.38-3.76 7.59-6.78 10.62-5.27 5.41-12.97 7.63-20.33 8.01-7.19-.58-14.61-1.77-20.77-5.8-5.84-3.97-11.05-9.67-12.32-16.85-1.34-8.91-.32-18.92 5.86-25.94 11.66-13.35 34.58-13.92 47.24-1.7 4.7 4.71 6.1 11.49 7.64 17.72 7.79.11 15.59-.18 23.38-.15 2.56.02 5.16-.01 7.66-.63.76-12.15-3.95-23.96-10.68-33.85-4.04-4.71-8.45-9.15-13.37-12.94-13.92-9.55-31.49-13.53-48.17-11.04-8.7 1.86-17.55 4.13-25.05 9.12-15.66 9.56-25.59 27.44-26.09 45.7-.12 8.68-.48 17.6 2.35 25.95 3.83 13.03 11.72 25.34 23.24 32.75 1.99 1.67 4.12 3.17 6.11 4.84-6.65 1.04-13.11-1.44-19.12-3.99-13.94-6.15-26.3-17.16-31.76-31.63-.82-1.83-.63-3.87-.67-5.81.03-33.7.08-67.39.07-101.08.06-2.76-.23-5.55.25-8.27 3.9-3.82 8.84-6.35 13.2-9.61 7-4.59 13.36-10.08 20.52-14.44 7.37-4.49 13.94-10.15 21.16-14.86z"/></svg>