<svg xmlns="http://www.w3.org/2000/svg" viewBox="0 0 200 200" style="enable-background:new 0 0 200 200" xml:space="preserve"><path d="M86.4 12.4c9.4-.1 18.7-.1 28.1 0-.1 5.4-.1 10.8 0 16.2 3.4.1 7.6-1 10.2 1.9 3.5 3.2 3 8.3 3.1 12.5-.2 12.4.7 24.8.5 37.2-.3.4-.8 1.3-1.1 1.7-6.4 3-12.2 7-18.5 10.1.1-9.9.5-19.8 0-29.7-3.5-4-9.8-4.8-14.2-1.9-2.9 1.8-2.8 5.6-2.6 8.5.7 7.6.3 15.3.5 22.9-6.8-3.5-13-7.9-19.6-11.8-.2-14.4.6-28.7.7-43.1-.2-3.7 2.4-7 5.8-8.3 2.4-.5 4.8-.2 7.3-.1-.1-5.3-.1-10.7-.2-16.1zm23.9 81.9c6.8-3.3 13.3-7 19.9-10.7 12 6.8 23.7 14.1 35.6 20.9 3 1.9 6.3 4.6 5.9 8.5.3 3.2-1.8 5.8-3.6 8.2 4.8 2.9 9.7 5.5 14.4 8.5-5 7.9-9.3 16.1-14.2 24.1-4.9-2.7-9.6-5.7-14.5-8.4-.7 3.4-2.9 6-5.5 8.1-7.1 1.6-12.7-3.7-18.5-6.6-9.3-5.1-18.4-10.4-27.7-15.4-.2-7.5 0-14.9.1-22.4l2.4 1.2c6.6 4.1 13.5 7.9 20 12.2 2.1 1.1 4.4 1.1 6.6.2 4.1-3 6.1-7.9 5.1-12.9-7.9-6.2-17.5-9.9-26-15.5zm-75.5 10.6c12.1-7.2 24.3-14.3 36.3-21.5 6.3 3.3 12.1 7.3 18.4 10.6 0 .3.1 1 .2 1.3-7.5 4.2-15.2 8.2-22.6 12.6-3.5 1.7-3.4 6.2-2.1 9.3 1 2.8 3.5 4.6 5.7 6.4 3.8.4 6.9-2 10-3.9 5.9-3.6 11.8-7.2 17.8-10.7-.1 7.5 0 15-.4 22.5-10 6.3-20.6 11.7-30.9 17.7-4 2.1-8 5.3-12.8 4.6-4-.4-6.2-4.4-7.5-7.9-5 2.2-9.5 5.4-14.3 8-5.1-7.8-9.3-16.1-14.2-24.1 4.7-3 9.6-5.6 14.3-8.6-3.1-2.9-4.1-7.2-3.2-11.3 1.5-1.9 3.1-3.8 5.3-5z" style="fill:#fd0102"/></svg>