<svg width="200pt" height="200pt" viewBox="0 0 200 200" xmlns="http://www.w3.org/2000/svg"><g fill="#fefefe"><path d="M0 0h200v200H0V0m86.45 12.35c.04 5.41.01 10.81.01 16.22-2.42-.03-4.88-.36-7.26.14-3.34 1.29-6.03 4.57-5.78 8.28-.14 14.38-.86 28.73-.71 43.1 6.58 3.86 12.81 8.33 19.61 11.8-.2-7.64.13-15.31-.53-22.94-.16-2.97-.24-6.74 2.63-8.53 4.35-2.93 10.72-2.09 14.18 1.88.45 9.9.04 19.81-.02 29.72 6.34-3.07 12.15-7.13 18.54-10.11.28-.43.83-1.29 1.1-1.73.18-12.39-.76-24.76-.52-37.17-.05-4.26.49-9.4-3.05-12.55-2.59-2.88-6.76-1.87-10.17-1.93-.01-5.41-.06-10.82.04-16.22-9.36-.04-18.71-.05-28.07.04m23.88 81.93c8.43 5.63 18.05 9.34 26.14 15.49.98 4.98-1.1 9.9-5.15 12.88-2.18.85-4.47.84-6.56-.25-6.51-4.3-13.34-8.06-19.97-12.17-.82-.42-1.63-.83-2.45-1.24-.09 7.46-.28 14.93-.11 22.39 9.3 5 18.4 10.36 27.67 15.43 5.84 2.97 11.42 8.25 18.51 6.65 2.6-2.09 4.83-4.7 5.5-8.07 4.92 2.63 9.64 5.63 14.51 8.35 4.86-7.95 9.15-16.24 14.16-24.1-4.68-3.05-9.63-5.64-14.42-8.51 1.82-2.37 3.91-4.96 3.61-8.15.35-3.89-2.98-6.63-5.94-8.51-11.94-6.86-23.64-14.16-35.64-20.91-6.52 3.75-13.09 7.44-19.86 10.72M34.81 104.9c-2.18 1.19-3.78 3.13-5.35 5-.81 4.12.15 8.34 3.25 11.28-4.65 3.04-9.58 5.62-14.27 8.59 4.89 7.95 9.15 16.27 14.23 24.1 4.8-2.6 9.32-5.75 14.33-7.96 1.26 3.41 3.45 7.48 7.49 7.86 4.8.72 8.86-2.44 12.84-4.57 10.24-5.97 20.87-11.37 30.86-17.69.4-7.48.32-14.99.41-22.48-5.98 3.5-11.89 7.1-17.82 10.69-3.09 1.83-6.16 4.29-9.99 3.87-2.2-1.84-4.71-3.62-5.74-6.42-1.34-3.1-1.4-7.58 2.09-9.27 7.41-4.4 15.06-8.41 22.59-12.62-.04-.33-.14-1-.18-1.33-6.3-3.23-12.14-7.29-18.41-10.58-12.06 7.27-24.23 14.33-36.33 21.53m78.05 62.03c-2.37-.26-4.73-.63-7.01-1.33-.54.27-1.61.81-2.15 1.08 1.36 5.5.93 11.18-.88 16.51l1.07.35c3.43-1.12 7.19-2.19 9.76-4.88-2.88.31-5.71 1.01-8.6 1.1 1.29-2.06 3.22-4.41 5.98-3.84 2.82 2.37 5.15 5.28 8.1 7.52 2.19-.04 4.39-.08 6.59-.22-.9-1.47-3.04-5.21-3.97-1.43-2.49-1.34-4.98-2.78-6.86-4.94 1.05-.77 1.9-1.73 2.14-3.03-1.78-.3-3.97.37-5.35-1.14 3.81-.34 5.28-4.1 6-7.28-1.66.32-3.26.88-4.82 1.53m19.06 4.12c.54.25 1.62.76 2.16 1.02.07.43.19 1.28.25 1.7.67-.04 2.01-.12 2.68-.17-1.31 1.24-2.64 2.46-3.95 3.7l3.26.21c-.06 1.73-1.25 3.7-.31 5.34 2.53-.35 3.82-2.96 5.42-4.67l-3.95.4c.68-1.88 2.4-3.02 3.52-4.6-.9 0-2.7.01-3.6.01l2.97-2.33c-1.27-1.59-3.49.51-4.64-.63.04-.38.13-1.14.17-1.51 2.37-1.18 3.9 1.52 5.81 2.38-.24-2.68-2.61-4.34-4.05-6.41-2.08 1.66-4.57 3.05-5.74 5.56m34.67-2.29c-1.25 1.34 1.28 2.27 1.99 2.89-1.79 2.14-5.19 3.14-5.7 6.14 1.64-.21 3.19-1.23 4.84-1.13.57 1.99 1.97 3.15 4.02 3.32a80.45 80.45 0 0 0-.56-4.92c.35-.46 1.05-1.39 1.4-1.85-.49-1.15-.97-2.28-1.44-3.43.91-.91 1.8-1.85 2.67-2.8-1.2-.66-2.41-1.3-3.63-1.9-1.2 1.22-2.44 2.41-3.59 3.68m-147.3-.09c-2.35-.03-6.69-2.63-7.01 1.22.02 2.6-1.75 6.5 1.52 7.73 1.73-1.8 4-2.66 6.49-2.34.38 4.32-1.6 9.08.62 13.07 2.56-3.71 1.35-8.32 1.92-12.49 1.02-1.03 2.81-.03 4.09-.61 1.66-1.21 3.29-2.54 4.51-4.21-1.05-3.93-5.74-2.12-8.67-2.45l-.2-3.34c-2.3-.13-2.91 1.57-3.27 3.42m21.44-1.88c-.58 5.11-.37 10.26-.5 15.39-.01 2.37 2.54 1.19 3.84.81 2.83-1.08 5.89-.92 8.86-.93 1.33 1.07 2.64 2.26 4.27 2.88 2.28.41 2.07-2.52 2.39-4.01-.18-4.39-.21-8.78-.22-13.17-6.01-2.13-12.43-.7-18.64-.97m101.76.98c.64 5.22.05 10.47-.39 15.68 1.4-.03 2.79-.05 4.19-.08.48-1 .96-2 1.44-2.99 2.77 1.31 5.92 1.95 8.19-.61-2.33-.37-4.67-.6-6.98-1.08.48-.65 1.42-1.97 1.89-2.62-2.51.05-4.48 2.05-6.83 2.72-.42-3.08 2.66-3.5 4.68-4.61-.51-.66-1.01-1.33-1.51-1.99a15.76 15.76 0 0 1-3.4 2.57c.8-1.58 2.06-2.84 3.16-4.22-.89.14-2.68.42-3.57.55 1-.96 1.46-3.26 3.25-2.91.7 1.65 1.34 3.35 2.21 4.93.42-2.1.98-4.15 1.63-6.18-.31-.35-.92-1.05-1.22-1.4-2.27.68-4.51 1.44-6.74 2.24m35.28-2.01c-.96 2.28 2.21 3.33 3.16 4.85-2.64.39-5.28.8-7.92 1.24.6 1.31 1.25 2.6 1.93 3.88.89-.76 1.76-1.53 2.62-2.31.55-.09 1.64-.26 2.19-.34.49 2.43.69 4.9.52 7.38-2.41-.05-4.83-.19-7.24 0 2.55 1.51 5.39 2.46 8.25 3.23 1.75-3.54.9-7.56 1.12-11.34 2.2-.28 4.41-.53 6.59-.94-1.74-2.5-4.73-1.48-7.19-.89.48-2.39-1.11-5.85-4.03-4.76m-100.29 3.6-1 2.31c-2.33 1.65-4.82 3.09-7.08 4.84-.01.22-.03.65-.05.86 2.83-.06 5.28-1.62 7.65-3 4.65.99 8.92 3.1 12.94 5.57 2.25 1.38 4.29-.96 5.99-2.17-5.46-.89-10.81-2.27-15.87-4.56.62-.86 1.25-1.71 1.87-2.56-1.48-.46-2.96-.88-4.45-1.29z"/><path d="M106.91 170.56c.6-3.03 5.32-2.09 7.2-.63-2.31.81-4.79.62-7.2.63zm-64.64.19c1.44-.89 2.96-1.77 4.72-1.54 2.92.09 5.94-.58 8.79.3 1.59 3.88.77 8.38.96 12.5-4.17-2.63-9.15-1.89-13.72-.9-.45-3.44-.81-6.89-.75-10.36m1.02 2.12c1.75.16 3.93-.98 5.35.59-2.19.01-3.99.77-5.42 2.27 1.83.18 4.16-.92 5.51.91l-2.37.64-2.15-.37c.58.64 1.15 1.3 1.71 1.97 3.58-1.05 7.22-.27 10.52 1.25-.24-1.91-1.8-2.92-3.18-3.99-.81.22-2.42.68-3.23.9.22-.42.67-1.27.89-1.69 1.65.67 3.01.22 4.09-1.32-1.83-.19-3.66-.4-5.48-.65 1.77-1.12 3.92-1.06 5.93-1.29l-.02-1.87c-3.98.6-9.7-1.26-12.15 2.65zm-20.35-1.89c1.23-.29 2.5-.37 3.75-.51.05.56.14 1.68.18 2.24-1.4-.36-5.58.79-3.93-1.73zm-7.92 2.56c.9-1.42 2.48-2.05 3.97-2.68.45.32 1.35.94 1.8 1.25-1.86.7-3.78 1.28-5.77 1.43zm129.39 6.6c1.68-.56 2.24-.05 1.68 1.56-1.68.59-2.24.07-1.68-1.56z"/></g><path d="M86.45 12.35c9.36-.09 18.71-.08 28.07-.04-.1 5.4-.05 10.81-.04 16.22 3.41.06 7.58-.95 10.17 1.93 3.54 3.15 3 8.29 3.05 12.55-.24 12.41.7 24.78.52 37.17-.27.44-.82 1.3-1.1 1.73-6.39 2.98-12.2 7.04-18.54 10.11.06-9.91.47-19.82.02-29.72-3.46-3.97-9.83-4.81-14.18-1.88-2.87 1.79-2.79 5.56-2.63 8.53.66 7.63.33 15.3.53 22.94-6.8-3.47-13.03-7.94-19.61-11.8-.15-14.37.57-28.72.71-43.1-.25-3.71 2.44-6.99 5.78-8.28 2.38-.5 4.84-.17 7.26-.14 0-5.41.03-10.81-.01-16.22zm23.88 81.93c6.77-3.28 13.34-6.97 19.86-10.72 12 6.75 23.7 14.05 35.64 20.91 2.96 1.88 6.29 4.62 5.94 8.51.3 3.19-1.79 5.78-3.61 8.15 4.79 2.87 9.74 5.46 14.42 8.51-5.01 7.86-9.3 16.15-14.16 24.1-4.87-2.72-9.59-5.72-14.51-8.35-.67 3.37-2.9 5.98-5.5 8.07-7.09 1.6-12.67-3.68-18.51-6.65-9.27-5.07-18.37-10.43-27.67-15.43-.17-7.46.02-14.93.11-22.39.82.41 1.63.82 2.45 1.24 6.63 4.11 13.46 7.87 19.97 12.17 2.09 1.09 4.38 1.1 6.56.25 4.05-2.98 6.13-7.9 5.15-12.88-8.09-6.15-17.71-9.86-26.14-15.49zM34.81 104.9c12.1-7.2 24.27-14.26 36.33-21.53 6.27 3.29 12.11 7.35 18.41 10.58.04.33.14 1 .18 1.33-7.53 4.21-15.18 8.22-22.59 12.62-3.49 1.69-3.43 6.17-2.09 9.27 1.03 2.8 3.54 4.58 5.74 6.42 3.83.42 6.9-2.04 9.99-3.87 5.93-3.59 11.84-7.19 17.82-10.69-.09 7.49-.01 15-.41 22.48-9.99 6.32-20.62 11.72-30.86 17.69-3.98 2.13-8.04 5.29-12.84 4.57-4.04-.38-6.23-4.45-7.49-7.86-5.01 2.21-9.53 5.36-14.33 7.96-5.08-7.83-9.34-16.15-14.23-24.1 4.69-2.97 9.62-5.55 14.27-8.59-3.1-2.94-4.06-7.16-3.25-11.28 1.57-1.87 3.17-3.81 5.35-5z" fill="#fd0102"/><g fill="#101011"><path d="M112.86 166.93c1.56-.65 3.16-1.21 4.82-1.53-.72 3.18-2.19 6.94-6 7.28 1.38 1.51 3.57.84 5.35 1.14-.24 1.3-1.09 2.26-2.14 3.03 1.88 2.16 4.37 3.6 6.86 4.94.93-3.78 3.07-.04 3.97 1.43-2.2.14-4.4.18-6.59.22-2.95-2.24-5.28-5.15-8.1-7.52-2.76-.57-4.69 1.78-5.98 3.84 2.89-.09 5.72-.79 8.6-1.1-2.57 2.69-6.33 3.76-9.76 4.88l-1.07-.35c1.81-5.33 2.24-11.01.88-16.51.54-.27 1.61-.81 2.15-1.08 2.28.7 4.64 1.07 7.01 1.33m-5.95 3.63c2.41-.01 4.89.18 7.2-.63-1.88-1.46-6.6-2.4-7.2.63zm25.01.49c1.17-2.51 3.66-3.9 5.74-5.56 1.44 2.07 3.81 3.73 4.05 6.41-1.91-.86-3.44-3.56-5.81-2.38-.04.37-.13 1.13-.17 1.51 1.15 1.14 3.37-.96 4.64.63l-2.97 2.33c.9 0 2.7-.01 3.6-.01-1.12 1.58-2.84 2.72-3.52 4.6l3.95-.4c-1.6 1.71-2.89 4.32-5.42 4.67-.94-1.64.25-3.61.31-5.34l-3.26-.21c1.31-1.24 2.64-2.46 3.95-3.7-.67.05-2.01.13-2.68.17-.06-.42-.18-1.27-.25-1.7-.54-.26-1.62-.77-2.16-1.02zm34.67-2.29c1.15-1.27 2.39-2.46 3.59-3.68 1.22.6 2.43 1.24 3.63 1.9-.87.95-1.76 1.89-2.67 2.8.47 1.15.95 2.28 1.44 3.43-.35.46-1.05 1.39-1.4 1.85.24 1.63.42 3.27.56 4.92-2.05-.17-3.45-1.33-4.02-3.32-1.65-.1-3.2.92-4.84 1.13.51-3 3.91-4 5.7-6.14-.71-.62-3.24-1.55-1.99-2.89zm-147.3-.09c.36-1.85.97-3.55 3.27-3.42l.2 3.34c2.93.33 7.62-1.48 8.67 2.45-1.22 1.67-2.85 3-4.51 4.21-1.28.58-3.07-.42-4.09.61-.57 4.17.64 8.78-1.92 12.49-2.22-3.99-.24-8.75-.62-13.07-2.49-.32-4.76.54-6.49 2.34-3.27-1.23-1.5-5.13-1.52-7.73.32-3.85 4.66-1.25 7.01-1.22m3.65 2.31c-1.65 2.52 2.53 1.37 3.93 1.73-.04-.56-.13-1.68-.18-2.24-1.25.14-2.52.22-3.75.51m-7.92 2.56c1.99-.15 3.91-.73 5.77-1.43-.45-.31-1.35-.93-1.8-1.25-1.49.63-3.07 1.26-3.97 2.68zm25.71-6.75c6.21.27 12.63-1.16 18.64.97.01 4.39.04 8.78.22 13.17-.32 1.49-.11 4.42-2.39 4.01-1.63-.62-2.94-1.81-4.27-2.88-2.97.01-6.03-.15-8.86.93-1.3.38-3.85 1.56-3.84-.81.13-5.13-.08-10.28.5-15.39m1.54 3.96c-.06 3.47.3 6.92.75 10.36 4.57-.99 9.55-1.73 13.72.9-.19-4.12.63-8.62-.96-12.5-2.85-.88-5.87-.21-8.79-.3-1.76-.23-3.28.65-4.72 1.54zm100.22-2.98c2.23-.8 4.47-1.56 6.74-2.24.3.35.91 1.05 1.22 1.4-.65 2.03-1.21 4.08-1.63 6.18-.87-1.58-1.51-3.28-2.21-4.93-1.79-.35-2.25 1.95-3.25 2.91.89-.13 2.68-.41 3.57-.55-1.1 1.38-2.36 2.64-3.16 4.22 1.25-.7 2.38-1.56 3.4-2.57.5.66 1 1.33 1.51 1.99-2.02 1.11-5.1 1.53-4.68 4.61 2.35-.67 4.32-2.67 6.83-2.72-.47.65-1.41 1.97-1.89 2.62 2.31.48 4.65.71 6.98 1.08-2.27 2.56-5.42 1.92-8.19.61-.48.99-.96 1.99-1.44 2.99-1.4.03-2.79.05-4.19.08.44-5.21 1.03-10.46.39-15.68m1.92 12.37c-.56 1.63 0 2.15 1.68 1.56.56-1.61 0-2.12-1.68-1.56z"/><path d="M177.77 165.76c2.92-1.09 4.51 2.37 4.03 4.76 2.46-.59 5.45-1.61 7.19.89-2.18.41-4.39.66-6.59.94-.22 3.78.63 7.8-1.12 11.34-2.86-.77-5.7-1.72-8.25-3.23 2.41-.19 4.83-.05 7.24 0 .17-2.48-.03-4.95-.52-7.38-.55.08-1.64.25-2.19.34-.86.78-1.73 1.55-2.62 2.31a73.67 73.67 0 0 1-1.93-3.88c2.64-.44 5.28-.85 7.92-1.24-.95-1.52-4.12-2.57-3.16-4.85zm-100.29 3.6c1.49.41 2.97.83 4.45 1.29-.62.85-1.25 1.7-1.87 2.56 5.06 2.29 10.41 3.67 15.87 4.56-1.7 1.21-3.74 3.55-5.99 2.17-4.02-2.47-8.29-4.58-12.94-5.57-2.37 1.38-4.82 2.94-7.65 3 .02-.21.04-.64.05-.86 2.26-1.75 4.75-3.19 7.08-4.84l1-2.31zm-34.19 3.51c2.45-3.91 8.17-2.05 12.15-2.65l.02 1.87c-2.01.23-4.16.17-5.93 1.29 1.82.25 3.65.46 5.48.65-1.08 1.54-2.44 1.99-4.09 1.32-.22.42-.67 1.27-.89 1.69.81-.22 2.42-.68 3.23-.9 1.38 1.07 2.94 2.08 3.18 3.99-3.3-1.52-6.94-2.3-10.52-1.25-.56-.67-1.13-1.33-1.71-1.97l2.15.37 2.37-.64c-1.35-1.83-3.68-.73-5.51-.91 1.43-1.5 3.23-2.26 5.42-2.27-1.42-1.57-3.6-.43-5.35-.59z"/></g></svg>