<svg width="200pt" height="200pt" viewBox="0 0 200 200" xmlns="http://www.w3.org/2000/svg"><path fill="#87191b" d="M65.45 12.44c25.45.76 51.21 3.76 76.56-.46 8.93-.36-.85 11.49 1.02 15.89 5.84 1.64 11.87-.82 17.77-.79 3.74 5.51-3.65 11.64-3.79 17.7 6.86 4.03 17.21-1.84 23.89 2.46-6.33 37.84-2.7 76.66 4.77 114.11-.56 5.88 7.7 17.23.05 20.2-20.91-.22-42.55-.03-63.03-.21-5.34-6.25-2.62-15.67-4.89-23.12-7.95-1.93-17.18-2.13-25.19-.62-1.43 7.85-.34 17.56-4.95 24.11-20.97.11-41.85-.66-62.8.15-2.79.55-6.35-1.79-3.43-5.46 7.93-42.39 15.6-86.25 7.57-129.2 6.92-2.89 15.5-.25 22.99-1.3 1.93-6.68-7.12-13.22-1.74-18.85 5.65-.48 11.22 2.35 16.81 1.04 3.26-3.8-8.35-13.73-1.61-15.65m16.98 34.01c-5.5.5-.21 7.47.55 10.56 4.84 16.25-24.17.57-28.83 9.1 1.88 31.99-2.73 63.74-4.7 95.39 6.72-.52 25.22 5.77 24.64-6.48 1.49-18.53.52-37.13 1.1-55.69 3.56-5.12 10.63-2.98 15.8-3.39 14.29 1.72 30.39-3.19 43.87 2.26.58 20.77-.37 41.83 2.45 62.45 6.17 4.23 16.39-.02 23.74 1.23-3.95-32.06-6.65-64.17-5.2-96.55-8.81-4.74-21.72 1.79-30.84-2.55.05-5.78 7.66-11.19 3.75-16.6-15.41-.33-30.92-.58-46.33.27m15.98 66.92c-11.65-.13-3.02 17.84-4.97 25.17 7.63.61 15.99 1.57 23.41-.75 2.05-7.78-.6-15.66-.09-23.53-5.98-1.45-12.25-1.51-18.35-.89z"/></svg>