<svg width="200pt" height="200pt" viewBox="0 0 200 200" xmlns="http://www.w3.org/2000/svg"><path fill="#02397a" d="M66.7 54.69c13.48-3.04 27.52-3.21 41.17-1.35 5.91 1.11 12.13 1.75 17.42 4.86-17.87-2.42-36.32-.39-53.4 5.34-14.14 5.01-28.02 12.92-36.55 25.63-5.66 8.48-8.43 19.9-4.13 29.54 4.13 9.11 12.38 15.52 20.99 20.14 14.96 7.9 32.05 10.99 48.83 11.23 18.15-.18 36.97-3.6 52.36-13.72 8.04-5.21 15.1-13.39 15.83-23.31.25-7.11-4.89-13.02-10.57-16.63-10.54-6.81-23.28-9.28-35.66-9.66-15.35-.21-31.46 2.75-43.91 12.28 6.65 4.64 13.97 8.29 20.91 12.49l1.01.06c9.38-5.36 18.76-10.75 28-16.38 4.19 1.91 7.98 4.58 12.01 6.79 2.63 1.32 5.31 3.76 4.88 7.01.16 3.24-2.87 5.17-5.3 6.63-11.02 6.28-21.92 12.78-32.92 19.09-4.53 2.72-10.61 2.48-15-.42-11.96-7.08-24.06-13.91-35.97-21.06-4.7-2.61-7.92-8.41-6.01-13.73 2.37-6.01 7.12-10.71 12.01-14.77 12.69-9.77 28.5-14.58 44.22-16.47 19.4-1.89 39.6.02 57.47 8.19 11.29 5.13 22.24 13.26 26.86 25.19 3.39 8.41 1.62 17.82-1.57 25.99-7.1 15.81-21.8 26.86-37.33 33.64-18.57 8.28-39.21 11.22-59.43 10.33-23.53-1.01-47.61-7.54-66.31-22.33-11.35-8.98-20.54-22.32-20.51-37.25-.51-12.89 6.11-25 15.11-33.83C33.63 66.09 49.99 58.73 66.7 54.69z"/></svg>