<svg width="200pt" height="200pt" viewBox="0 0 200 200" xmlns="http://www.w3.org/2000/svg"><g fill="#b40c0c"><path d="M115.29 6.89c7.18-.77 14.25 1.23 21.16 2.94 11.11 3.27 21.53 8.82 30.58 16.05 19.93 16.81 31.35 43.13 30.05 69.16.71 12.37-1.7 24.8-6.59 36.17-12.4 28.6-41.38 49.09-72.46 51.33-5.37.13-10.75.11-16.12.03-19-1.78-37.1-10.48-50.99-23.47-14.37-13.83-23.67-33.08-24.73-53.06.11-6.74-.38-13.52.7-20.21 2.7-16.05 9.94-31.79 21.87-43.05 6.71-5.86 14.08-11.3 22.56-14.28 1.22 2.6-1.71 3.97-3.12 5.66-11.77 12.51-18.86 29.62-18.49 46.87-.13 16.39 6.49 32.65 17.53 44.71 10.92 12.3 26.41 20.43 42.76 22.32 13.48 1.39 27.61-.67 39.36-7.71 24.93-13.62 39.5-44.36 33-72.21-4.1-19.5-17.5-35.85-33.77-46.79-9.18-6.22-19.67-10.52-30.58-12.5-1.28-.1-2.18-.75-2.72-1.96zm-78.9 18.35c8.99-6.31 21.84-4.23 29.75 2.89-6.84 2.4-14.38 3.97-19.87 9.13-7.56 7.43-17.5 12.93-28.26 13.36-5.07.03-10.4.43-15.15-1.69.09-.42.26-1.25.35-1.67 7.09-1.25 14.12-3.77 19.65-8.52 5.03-4 7.88-10.21 13.53-13.5z"/><path d="M102.72 58c1.37-12.82 13.23-24.02 26.32-23.55 4.01-.07 8.14-.18 11.89 1.5 14.58 6.35 25.98 19.54 30.24 34.86 3.79 13.44 2.82 28.34-3.46 40.89-6.44 13.29-18.47 23.75-32.6 28.1-9.72 3.21-20.22 3.17-30.21 1.42-1.23-.22-1.92-.99-2.04-2.32 5.66-.31 11.43-1.31 16.18-4.63 8.12-5.12 13.61-14.59 13.05-24.29-.48-9.66-6.67-18.55-15.16-22.99-6.43-3.22-11.09-9.27-13.27-16.04-1.58-4.14-.79-8.64-.94-12.95z"/></g></svg>