<svg width="200pt" height="200pt" viewBox="0 0 200 200" xmlns="http://www.w3.org/2000/svg"><path fill="#ea8b15" d="M99.44 17.77c5.81-.86 11.71-.31 17.56-.49 7.63-.26 15.04 2.08 22.11 4.71 4.75 1.87 9.59 3.95 13.3 7.57 6.61 6.39 12.68 13.91 14.95 23 2.02 6.64 1.22 13.64 1.34 20.46.31 8.01-3.08 15.5-6.07 22.75-3.22 7.8-8.28 14.68-14.07 20.77-2.77 3.13-7.55 1.56-10.18-.92-2.88-3.3-3.7-7.77-5.15-11.77-2.15-6.78-6.56-12.6-8.31-19.53-.98-4.01-4.08-7.05-5.08-11.06-1.5-4.17-2.97-9.09-6.93-11.55-3.44-.51-6.72 1.16-10.06 1.73-7.77 1.48-15.25 4.12-22.76 6.53-5.66 1.84-11.84 2.05-17.16 4.93-1.9.93-3.15 3.02-3.26 5.11 1.09 7.02 5.1 13.06 7.61 19.6 3.24 8.24 7.08 16.22 10.75 24.27 1.54 3.01 2.71 6.84 6.09 8.27 4.07 1.08 8.15-.65 11.99-1.86 4.83-1.74 9.9-2.69 14.81-4.19 6.31-2.08 12.5-4.81 19.14-5.67 3.7-.45 6.51 3.75 5.39 7.13-1.19 3.97-4.94 6.38-8.17 8.61-10.45 6.26-21.42 12.22-33.52 14.48-4.91.99-9.63 3.14-14.73 2.99-8.14-.17-16.44.64-24.42-1.4-7.97-2.03-15.4-5.91-21.84-11-4.66-3.21-9.21-7.01-11.46-12.37-2.07-4.96-5.11-9.59-6.09-14.95-2.33-11.81-.24-24.15 4.71-35.03 1.72-4.17 3.11-8.54 5.8-12.23 2.9-4.06 5.09-8.71 8.95-12 4.27-3.72 7.66-8.34 12.13-11.85 3.33-2.64 6.54-5.44 9.82-8.15 2.57-2.23 6.13-2.48 9.05-4.07 9.96-7.02 22.12-9.84 33.76-12.82z"/><path fill="#0c7abb" d="M185.55 83.37c1.81-.31 3.94.83 3.92 2.85.43 6.5.2 13.09-1.18 19.48-1.59 7.49-2.98 15.17-6.64 21.99-2.41 4.34-4.36 8.91-6.88 13.18-4.76 7.34-10.45 14.29-17.95 18.97-4.16 2.46-8.19 5.11-12.02 8.05-13.24 8.7-29.16 12.22-44.77 13.48-6.34.02-12.88.78-19.04-1.16-7.13-2.31-14.92-2.71-21.46-6.67-6.64-2.99-12.72-7.05-17.96-12.13-4.21-4.11-9.24-7.45-12.56-12.41-1.47-1.95-2.91-4.13-2.76-6.69 4.41-.95 6.65 3.55 9.73 5.74 4.01 2.99 8.25 5.66 12.49 8.32 6.36 2.9 13.43 3.74 20.24 5.1 9.84 2.09 19.95.57 29.78-.8 11.11-2.99 22.4-5.85 32.54-11.49 12.49-5.75 23-14.89 32.61-24.56 2.66-3.68 4.99-7.59 8.07-10.95 6.98-8.85 9.46-20.14 13.84-30.3z"/></svg>