<svg width="200pt" height="200pt" viewBox="0 0 200 200" xmlns="http://www.w3.org/2000/svg"><path fill="#024098" d="M87.89 14.05c6.87-.75 13.87-2.17 20.75-.71 10.23 1.38 19.81 6.68 26.39 14.63 4.71 4.81 7.13 11.19 9.45 17.38 3.4 9.84 5.71 20.19 5.3 30.67.8 18.2-4.26 36.51-13.58 52.09-2.92 5.05-6.85 9.4-10.04 14.26 16.98-14.06 28.44-34.5 31.58-56.33 2.55-17.03-.34-34.69-7.58-50.27-2.04-4.27-4.7-8.22-6.46-12.62 14.51 7.82 25.8 21.38 30.91 37.06 6.57 21.34 5 45.22-4.92 65.3-6.22 12.98-15.87 24.24-27.42 32.78-5.08 3.78-10.73 6.68-16.24 9.76 27.95-8.82 50.74-32.46 58.09-60.89 2.19-8.54 3.26-17.31 3.48-26.11 2.35 4.63 1.84 10.09 2.59 15.12.86 16.59-3.04 33.49-11.27 47.94-10.37 18.86-28.19 33.4-48.63 40.06-27.27 9.27-59.05 4.13-81.71-13.77-20.22-15.38-33.16-40-34.06-65.43-.18-7.19-.33-14.61 2.05-21.5.1 4.17-.42 8.34-.12 12.5.66 13.74 6.42 27.52 17 36.55 9.7 8.79 23.64 12.55 36.47 10.06 16.88-2.81 31.1-14.62 39.72-29.04 7.49-13.03 10.88-28.67 8.04-43.55-2.56-14.82-11.69-28.81-25.41-35.51-8.38-4.48-18.2-4.99-27.46-3.81-9.27 1.55-17.76 6.19-25.09 11.95-3.67 2.79-6.34 6.66-10.01 9.45.63-1.43 1.3-2.86 2.22-4.14 13.48-17.8 33.79-30.52 55.96-33.88z"/><path fill="#ef7b04" d="M58.29 64.21c2.78.32 5.41 1.27 7.89 2.52 6.42 3.12 13.24 5.35 19.59 8.62.02 5.61-2.77 10.59-5.02 15.56-2.59 5.55-4.25 11.56-7.75 16.66-1.75-.27-3.5-.61-5.11-1.36-7.48-3.34-15.13-6.31-22.54-9.82.09-1.22-.06-2.49.31-3.68 2.75-7.69 6.43-15.01 9.46-22.59.8-2.1 2.04-3.98 3.17-5.91z"/></svg>