<svg width="200pt" height="244" viewBox="0 0 200 183" xmlns="http://www.w3.org/2000/svg"><g fill="#e60215"><path d="M126.58 0h3.97c1.82 3.15 2.95 6.95 5.95 9.22 5.59.75 12.17-.96 16.6 3.55 3.35 2.13 2.07 6.35 2.89 9.61 2.36 2.76 6.1 3.87 9.46 4.94 5.7 1.77 11.72.32 17.52 1.24 3.62 2.12 5.8 6.55 4.39 10.66-2.43 3.48-6.69 4.86-10.02 7.28-3.14 1.98-5.34 5.07-8.32 7.25-2.54-1.27-4.86-2.92-7.25-4.43-14.82-9.82-34.4-11.5-50.95-5.32-12.73 4.4-23.95 13.22-30.86 24.83-3.88 6.58-6.9 13.78-8.23 21.33-.45 6.21-.43 12.48-.01 18.69 1.82 10.39 6.37 20.3 13.03 28.48 9.68 11.85 24.23 19.47 39.4 21.12 5.26.15 10.55.24 15.8-.17 13.3-2.34 25.58-8.91 35.83-17.58 3.79-3.41 7.32-7.1 11.16-10.46l-.33 5.14c3.16-2.18 6.28-4.81 7.41-8.64.46-.1 1.37-.29 1.83-.39-.58 5.86-3.76 10.95-7.17 15.58 2.04-1.04 4.07-2.11 6.14-3.09-4.31 13.74-14.72 24.52-25.89 33.12-8.23 6.51-18.82 8.27-28.65 11.04h-24.67c-8.01-2.89-16.5-4.43-24.22-8.13-29.18-12.93-51.15-41.79-53.87-73.83-.18-7-.1-14.01-.04-21.02-7.61 2.42-15.68 6.1-23.77 3.75C6.87 82.08 2.46 75.82 0 69.61v-8.18c2.57-6.2 6.5-11.66 10.3-17.15 1.37 3.18 2.42 6.82 5.28 9.01 3.69 2.23 8.23 1.23 12.13.2C39.06 50.4 47.82 42 55.98 33.99c14.4-14.44 31.65-27.24 52.01-31.4A57.652 57.652 0 0 1 126.58 0z"/><path d="M111.34 77.31c1.77-.79 3.74-.68 5.63-.72 13.36 0 26.72.03 40.08-.02 3.5-.16 7.03 1.44 9.18 4.23 1.63 2.39 1.29 5.42 1.4 8.16-.07 8.28.07 16.57-.04 24.85.22 4.63-3.99 8.97-8.64 8.71-15 .1-29.99-.01-44.99.01-3.03.13-6.61-.99-8.05-3.86-1.91-7.42-1.14-15.1-1.29-22.67-.08-4.72-.12-9.54 1.31-14.09 1.01-2.23 3.16-3.79 5.41-4.6z"/></g></svg>