<svg width="200pt" height="200pt" viewBox="0 0 200 200" xmlns="http://www.w3.org/2000/svg"><g fill="#ec9335"><path d="M0 0h200v113.05c-.53-.22-1.59-.68-2.12-.9-6.2-12.29-13.42-24.02-19.87-36.17-1.98-3.58-4.41-7.98-8.93-8.48-4.02-.69-7.49 2.3-9.18 5.67-8.98 15.95-18.22 31.74-27.22 47.68-2.17 3.81-5.8 8.18-3.48 12.77 2.15 5.64 11.46 5.98 14.26.83 8.29-14.13 16.34-28.42 24.89-42.4 7.98 13.89 15.84 27.85 23.68 41.82 1.68 3.07 4.94 4.64 7.97 6.06v40.76c-.17.9-.52 2.71-.69 3.61-3.49-2.76-4.43-7.31-6.64-10.97-4.91-8.7-9.73-17.45-14.63-26.16-1.95-3.69-4.43-8.18-9.06-8.67-4.23-.76-7.63 2.66-9.42 6.1-10.12 18.64-21.27 36.72-31.32 55.4h-9.29l1.13-.17c-9.29-16.09-18.14-32.43-27.37-48.55-2.68-4.49-4.45-10.41-9.77-12.47-4.15-1.53-8.27 1.09-10.21 4.71-4.1 7.56-8.58 14.9-12.77 22.41-6.16 11.48-13.4 22.36-19.13 34.07H0V0m72.95 72.17c-10.21 18.04-20.69 35.94-30.87 54.01-1.27 2.82-1.4 6.61.63 9.13 2.87 3.93 9.58 3.97 12.61.24 8.56-14.47 16.65-29.25 25.51-43.52 8.03 14.04 15.95 28.13 23.92 42.19 2.1 4.35 8.34 5.7 12.04 2.59 3.27-1.91 3.88-6.48 2.28-9.67-10.13-17.95-20.17-35.96-30.18-53.98-1.77-2.7-4.36-5.65-7.84-5.71-3.38-.41-6.48 1.91-8.1 4.72z"/><path d="M64.32 191.09c5.68-9.25 10.57-18.98 16.52-28.06 7.07 12.28 13.78 24.75 20.94 36.97H60.19c.25-3.39 2.53-6.06 4.13-8.91zm83.98 6.17c6.53-11.49 13.31-22.83 19.84-34.32 7.31 12.24 14.05 24.82 21.36 37.06h-42.13c.2-.96.51-1.87.93-2.74z"/></g><g fill="#fdfefd"><path d="M72.95 72.17c1.62-2.81 4.72-5.13 8.1-4.72 3.48.06 6.07 3.01 7.84 5.71 10.01 18.02 20.05 36.03 30.18 53.98 1.6 3.19.99 7.76-2.28 9.67-3.7 3.11-9.94 1.76-12.04-2.59-7.97-14.06-15.89-28.15-23.92-42.19-8.86 14.27-16.95 29.05-25.51 43.52-3.03 3.73-9.74 3.69-12.61-.24-2.03-2.52-1.9-6.31-.63-9.13 10.18-18.07 20.66-35.97 30.87-54.01zm86.95 1c1.69-3.37 5.16-6.36 9.18-5.67 4.52.5 6.95 4.9 8.93 8.48 6.45 12.15 13.67 23.88 19.87 36.17.53.22 1.59.68 2.12.9v26.88c-3.03-1.42-6.29-2.99-7.97-6.06-7.84-13.97-15.7-27.93-23.68-41.82-8.55 13.98-16.6 28.27-24.89 42.4-2.8 5.15-12.11 4.81-14.26-.83-2.32-4.59 1.31-8.96 3.48-12.77 9-15.94 18.24-31.73 27.22-47.68z"/><path d="M72.73 143.52c1.94-3.62 6.06-6.24 10.21-4.71 5.32 2.06 7.09 7.98 9.77 12.47 9.23 16.12 18.08 32.46 27.37 48.55l-1.13.17h-17.17c-7.16-12.22-13.87-24.69-20.94-36.97-5.95 9.08-10.84 18.81-16.52 28.06-1.6 2.85-3.88 5.52-4.13 8.91H40.83c5.73-11.71 12.97-22.59 19.13-34.07 4.19-7.51 8.67-14.85 12.77-22.41zm86.83 1.08c1.79-3.44 5.19-6.86 9.42-6.1 4.63.49 7.11 4.98 9.06 8.67 4.9 8.71 9.72 17.46 14.63 26.16 2.21 3.66 3.15 8.21 6.64 10.97.17-.9.52-2.71.69-3.61V200h-10.5c-7.31-12.24-14.05-24.82-21.36-37.06-6.53 11.49-13.31 22.83-19.84 34.32-.42.87-.73 1.78-.93 2.74h-19.13c10.05-18.68 21.2-36.76 31.32-55.4z"/></g></svg>