<svg width="200pt" height="200pt" viewBox="0 0 200 200" xmlns="http://www.w3.org/2000/svg"><g fill="#fc0203"><path d="M46.58 51.56c3.9-4.16 8.06-9.7 14.35-9.7 5.35-.34 10.71-.01 16.07-.14 3.96.02 8-.33 11.89.6l.44.83c-.94 7.53-4.18 14.57-5.26 22.1-1.59 10.45-4.68 20.57-7.22 30.8-1.63 10.41-4.44 20.57-7.08 30.76-1.6 8-2.93 16.09-5.29 23.92-1.75 5.48-5.79 9.76-8.42 14.79 5.66-1.63 12.01-4.62 13.91-10.69 2.69-7.94 5.26-15.99 6.46-24.31 2-9.39 5.46-18.45 6.83-27.97 1.2-10.82 6.16-20.82 7.2-31.69.81-9.68 4.13-20.21 12.33-26.13 5.22-3.96 12.09-2.98 18.21-3.05 5.48.18 11.07-.55 16.47.72.22 9.36-3.32 18.3-5.47 27.3-2.41 7.56-2.7 15.56-4.83 23.19-1.22 4.69-2.82 9.27-4.09 13.95-1.31 4.73-1.47 9.68-2.71 14.43-1.61 6.28-3.44 12.5-4.98 18.79-1.22 4.94-.89 10.3-3.29 14.9-2.26 4.23-5.52 7.88-9.19 10.94-3.26 2.84-7.91 2.28-11.92 2.41-11.33-.28-22.69.54-33.99-.55-6.35-.41-12.65.78-19 .49-6.25-.23-12.58.62-18.75-.63-.19-6.61 3.35-12.54 4.05-19.02 1.3-11.17 5.46-21.71 7.45-32.74 2.25-13 6.78-25.5 8.68-38.57 2.23-8.6 3.77-17.49 7.15-25.73z"/><path d="M152.42 44.37c4.36-3.56 10.37-2.55 15.58-2.7 6.61.31 13.3-.63 19.84.55-.31 9.42-4.76 18.1-6.06 27.38-1.4 11.7-6.11 22.67-7.71 34.33-.89 7.14-3.34 13.94-5.05 20.9-3.12 11.24-3.7 23.34-9.39 33.75-3.38 6.28-10.65 9.57-17.58 9.68-12.06.18-24.12.02-36.16-.67 4.18-3.36 9.58-5.4 12.58-10.07 3.11-4.78 3.05-10.73 4.82-16.02 2.47-7.48 4.87-15.01 6.13-22.81 1.6-9.95 4.42-19.63 6.59-29.45 1.98-11.38 4.33-22.71 7.67-33.77 1.41-4.65 5.11-8.09 8.74-11.1z"/></g></svg>