<svg width="200pt" height="200pt" viewBox="0 0 200 200" xmlns="http://www.w3.org/2000/svg"><g fill="#fc0203"><path d="M90.76 1.63c7.64-.65 15.52-.96 22.9 1.44 7.12 1.58 13.93 4.9 18.92 10.31 5.06 3.92 10.1 9.46 10.04 16.24.31 1.86-1.57 2.48-2.84 3.27-4.07 2.15-8.55 3.35-12.63 5.47-3.16 1.51-6.04 3.55-9.24 4.98-4.04.07-7.86-1.9-11.92-1.87-4.86-.06-9.74-.18-14.59.17-5.82.97-11.54 2.61-17.02 4.83-7.32 2.24-13.22 7.33-19.18 11.9-1.3.29-2.63.34-3.96.47-2.84-6.49-1.75-13.81-.28-20.51 1.44-6.28 4.71-11.88 7.91-17.4 2.31-3.98 6.34-6.41 9.61-9.5 6.09-5.66 14.34-8.1 22.28-9.8zm54.46 39.3c8.5-2.3 17.62-1.32 25.71 1.96 5.83 2.55 11.88 5.12 16.2 9.98 5.78 4.98 9.71 11.63 12.87 18.48v39.23c-3.36 6.03-7.05 12.91-13.92 15.45-5.37-6.63-11.48-12.61-17.59-18.55-2.11-1.87-2.41-4.77-2.82-7.38-1.58-11.48-5.11-23.05-12.81-31.97-5.5-8.58-14.36-13.93-22.14-20.18 3.8-4.08 9.23-5.79 14.5-7.02zm-117.49 2.8c3.76-1.71 7.96-1.41 11.98-1.37 1.51 6.31 1.58 12.84 2.82 19.2.48 3.3 1.52 6.65.94 10.01-.88 2.53-2.49 4.71-3.77 7.04-2.83 4.92-3.57 10.64-5.03 16.03-1.75 6.3-1.2 12.89-1.11 19.34.91 8.62 3.86 16.86 5.4 25.36-8.5.64-16.28-3.76-23.26-8.06-7-4.2-11.42-11.29-15.7-18V69.07c1.61-2.45 3.2-4.91 4.69-7.44 2.42-4.09 6.01-7.3 9.45-10.51 3.76-3.68 8.89-5.29 13.59-7.39zm55.6 13.3c9.17-2.67 19.1-3.86 28.4-1.12 3.17.85 6.44 1.38 9.51 2.6 1.44.48 2.45 1.87 2.24 3.42.03 13.04.12 26.08-.03 39.12.24 1.72-1.33 2.71-2.31 3.84-3.95-3.75-8.69-6.71-11.9-11.18-2.46-3.48-6.06-5.81-9.28-8.5-7.08 4.41-11.65 11.6-18.34 16.45-3.03 2.64-4.9 6.39-8.28 8.66-4.4 2.95-6.97 7.79-11.31 10.81-3.06 2.25-4.86 5.67-7.53 8.3-1.29 1.61-3.58.92-5.36 1.24-4.66-13.7-5.28-28.82-.82-42.63 1.76-3.69 3.87-7.26 6.65-10.28 2.4-2.6 3.66-6.14 6.6-8.26 6.69-5 13.19-11.1 21.76-12.47z"/><path d="M136.48 96.48c3.9-3.21 6.22-8.73 11.78-9.37 3.04 3.97 3.48 9.1 4.24 13.86.28 7.4.73 14.93-.85 22.22-.63 5.25-3.47 9.84-6.18 14.26-8.52 12.34-21.52 22.27-36.5 24.91-10.14.31-20.83 1.44-30.38-2.77-2.21-.93-4.33-2.92-3.97-5.53.01-11.7-.01-23.4-.04-35.1-.12-2.4.74-4.67 1.39-6.93 7.69 4.41 12.96 11.75 19.29 17.74 1.55 1.83 4.41 2.65 6.2.63 8.5-7.78 16.11-16.51 24.91-23.96 3.28-3.42 6.53-6.86 10.11-9.96zm28.97 23.62c1.92.32 4.32.01 5.55 1.87 2.77 3.35 5.08 7.05 7.4 10.7 5.41 9.05 5.78 20.04 4.6 30.24-1.02 8.41-5.45 15.88-10.41 22.56-4.35 6.67-11.58 10.52-18.21 14.53h-41.61c-1.12-1.32-2.24-2.66-3.34-3.99 2.69-4.74 5.78-9.23 8.45-13.97 1.79-3.08 2.34-6.8 4.52-9.65 3.17-2.72 7.27-4.02 10.71-6.34 11.33-6.21 19.98-16.4 26.16-27.59 2.97-5.78 4.15-12.23 6.18-18.36zM16.57 149.98c.18-1.74.69-3.81 2.44-4.6 6.21-.37 12.04 2.36 18.13 3.13 3.98.93 8.67.45 11.84 3.47 3.84 3.44 7.05 7.63 11.5 10.37 4.37 2.68 8.64 5.54 13.28 7.75 5.26 2.54 11.16 3.02 16.82 4.08 6.39.78 12.84.13 19.24.54.44 5.96-3.85 10.47-7.3 14.78-3.75 4.61-9.22 7.18-14.01 10.5H45.35c-5.38-2.87-10.92-5.76-15.55-9.76-4.2-5.73-7.62-12.06-10.69-18.46-3.27-6.79-3.03-14.48-2.54-21.8z"/></g></svg>