<svg width="200pt" height="200pt" viewBox="0 0 200 200" xmlns="http://www.w3.org/2000/svg"><g fill="#e70012"><path d="M85.12 12.54c14.32-5.1 31.27-2.35 42.92 7.53 5.19 4.57 9.95 10.16 12.02 16.87-8.55.99-16.63 4.89-23.07 10.56-20.54-6.14-44.12-.46-59.49 14.53-5.12-20.37 8.01-42.72 27.62-49.49zM8.06 75.96c5.22-16.41 21-28.54 38.16-29.63-1.66 8.5-.58 17.49 2.91 25.4-12.35 17.57-14.08 41.8-4.45 60.98-12.32-1.46-23.91-8.15-30.98-18.4-7.81-10.95-10.1-25.62-5.64-38.35zm120.86-23.95c7.72-3.92 16.37-6.24 25.07-5.4 14.63 1.11 28.54 9.98 35.23 23.12 6.07 11.5 6.64 25.77 1.22 37.62-2.58 5.98-6.79 11.08-11.51 15.5-3.78-7.89-10.11-14.37-17.53-18.93-.46-17.3-8.9-34.14-22.37-44.98-3.15-2.62-6.63-4.78-10.11-6.93zM78.23 62.28c12.76-6.29 28.27-6.61 41.33-1 2.31.87 3.95 3.24 3.76 5.74-.01 10.67-.01 21.35 0 32.03.48 2.05-2.26 4.56-4.05 2.92-6.08-5.39-11.41-11.59-17.48-17-1.87-1.61-4.03.11-5.33 1.53-13.5 13.6-27.29 26.91-40.72 40.57-4.99-10.19-6.45-22.17-3.39-33.15 3.44-13.66 13.21-25.52 25.88-31.64z"/><path d="M103 126.1c13.71-13.71 27.62-27.24 41.25-41.03 4.93 10.1 6.42 21.95 3.47 32.85-3.58 14.5-14.25 27-27.97 32.87-12.46 5.4-27.18 5.45-39.61-.08-2.25-.89-3.6-3.34-3.45-5.71-.02-10.68-.01-21.35-.01-32.03-.48-2.4 3.03-4.48 4.62-2.34 5.71 5.31 10.98 11.09 16.71 16.38 1.55 1.6 3.79.54 4.99-.91zm57.61-9.51c8.61 8.05 14.16 19.53 14.07 31.42.35 12.49-5.15 24.99-14.67 33.09-13.83 12.5-36.07 14.54-51.72 4.27 6.3-5.77 10.67-13.6 12.51-21.92 14.17-5.32 26.57-15.6 33.57-29.1 3.05-5.54 4.91-11.61 6.24-17.76zM26.04 138.45c7.88 3.83 16.65 5.89 25.44 5.01 13.03 17.14 35.65 26.28 56.93 23.11-4.69 9.76-12.77 17.91-22.86 22-11.02 4.51-23.96 4.65-34.84-.36-11.02-4.95-19.89-14.61-23.59-26.14-2.64-7.58-2.36-15.8-1.08-23.62z"/></g></svg>