<svg width="200pt" height="200pt" viewBox="0 0 200 200" xmlns="http://www.w3.org/2000/svg"><path fill="#1b6faf" d="M11.04 57.11C28.96 18.52 74.7-4.43 116.25 3.74c2.8 1.55 2.69 5.95.37 7.94-8.52 11.21-16.09 25.25-13.1 39.87 1.69 18.98 10.93 36.03 21.38 51.54 6.33 10.08 8.8 21.77 12.27 32.93 6.26-.14 7.79-8.69 10.65-13.07 13.52-26.03.01-61.9-27.89-71.8-7.89-1.13-6.7-9.78-5.44-15.71 1.9-6.52 4.15-13.11 8.44-18.5 3.7-6.83 12.39-9.43 18.94-4.89 20.32 9.28 36.99 26.35 46.67 46.38 10.84 22.47 11.4 48.67 4.24 72.28-12.99 41.18-55.55 70.83-98.8 67.34-5.27-1.11-12.93 1.45-16.87-3.35-1.68-3.77 1.49-5.86 3.51-8.1 13.73-13.65 18.25-34.64 13.99-53.19-2.9-18.25-15.29-32.71-23.13-48.95-3.75-7.54-5.24-15.94-8.59-23.63-17.56 15.31-21.85 42.51-11.82 63.15 5.71 14.22 19.78 20.6 32.06 27.92 2.57 6.4-.75 13.56-3.64 19.52-3.49 6.84-6.67 14.5-13.63 18.51-4.49.73-8.94-.66-12.65-3.16-17.48-9.39-32.46-23.9-41.46-41.65C5.5 134.71 4.15 122.14 0 111.3V87.7c5.63-8.99 4.57-21.5 11.04-30.59z"/></svg>