<svg width="200pt" height="200pt" viewBox="0 0 200 200" xmlns="http://www.w3.org/2000/svg"><g fill="#6bc9d8"><path d="M60.91 33.82c5.54-2.87 11.86-4.29 18.08-4.25 1.81 1.2 1.33 3.56 1.49 5.4-.15 7.69.05 15.39-.02 23.08.15 3.58-2.64 6.17-5.07 8.37-2.9 2.5-5.58 5.23-8.28 7.95.4 1.34.53 2.87 1.61 3.89 3.26 3.4 7.1 6.23 10.13 9.86 2.32 2.36 1.42 5.91 1.61 8.88-.34 8.29.57 16.63-.5 24.88-7.37-.81-14.96-1.84-21.69-5.13-8.72-5.82-16.99-13.3-20.88-23.29-1.86-5.31-3.2-10.83-3.76-16.42-.56-4.76 1.01-9.36 2.17-13.91 1.67-7.09 5.86-13.29 10.4-18.87 3.81-4.81 9.37-7.68 14.71-10.44z"/><path d="M80.55 68.99C83.54 45.37 107.43 27 131 29.68c12.71 1.66 25.18 8.12 32.55 18.81 2.98 4.96 6.28 9.95 7.43 15.71.79 3.52.78 7.16.82 10.75-9.23 1.12-18.57.26-27.85.56-5.76.26-9.22-5.04-12.77-8.71-1.6-1.49-3.27-3.91-5.76-3.38-5.12 3.92-8.62 10.65-15.41 11.94-8.67.19-17.35.13-26.02.06-3.53.43-3.8-3.94-3.44-6.43zm46.5 6.87c14.18-.06 28.07 7.27 36.6 18.52 4.71 8.09 9.09 17 8.81 26.61.33 12.47-4.97 24.87-13.82 33.59-8.05 8.9-20.28 13.91-32.26 12.98-1.51-6.42-.3-13.04-.73-19.56.17-4.5-1.1-9.64 1.69-13.58 3.76-4.17 8.63-7.48 11.25-12.59-.05-.32-.13-.96-.17-1.28-4.11-5.57-11.96-9.09-12.5-16.72-.66-5.59.05-11.22-.25-16.83-.25-3.77.35-7.52 1.38-11.14z"/><path d="M34.21 122.25c3.78-1.27 7.88-.56 11.79-.71 6.31.24 12.66-.44 18.95.22 4.92 3.03 8.05 8.18 12.59 11.69 1.28.46 2.71.46 4.03.15 4.61-3.4 8.09-8.14 12.74-11.47 6.1-1.31 12.48-.23 18.69-.59 3.89.25 8.15-.79 11.79.72 1.72 4.31.64 9.32-.75 13.62-4.08 13.15-14.59 23.92-27.34 28.94-10.56 4.2-22.83 4.34-33.34-.1-14.56-5.14-25.77-18.43-28.57-33.59-.35-2.88-1.98-6.14-.58-8.88z"/></g><path fill="#f9c322" d="M93.75 85.67c7.16-1.43 14.83-1.87 21.76.82 1.85 6.35.73 13.05 1 19.57.47 3.21-2.17 6.42-5.46 6.35-5.03.18-10.07.21-15.09-.02-2.56-.27-6.08-1.33-6.3-4.39-.3-5.6-.15-11.23-.26-16.84-.2-2.61 1.83-5.01 4.35-5.49z"/></svg>