<svg width="200pt" height="200pt" viewBox="0 0 200 200" xmlns="http://www.w3.org/2000/svg"><path fill="#e50104" d="M62.63 0h14.91c3.94 1.06 7.76 2.5 11.69 3.59 5.41 1.39 9.11 6.62 14.91 6.93 8.91.6 17.14 4.21 25.72 6.34 3.43.9 6.41 2.89 9.51 4.53 13.8 6.77 25.21 17.63 34.38 29.83 3.41 5.78 7.64 11.19 9.7 17.65 1.66 4.86 4.17 9.43 5.24 14.48 2.24 13.41 2.99 27.2.64 40.67-.52 7.82-4.36 14.76-7.04 21.98-5.08 11.54-12.85 21.73-22.13 30.24-4.5 4.96-10.32 8.33-15.62 12.33-1.85 1.32-3.72 3.05-6.16 2.89.52-1.78.89-3.6.98-5.45-6.7 4.5-12.88 9.75-19.78 13.99H54.31c-2.16-2.33-4.13-4.83-6.04-7.36-1.9-2.79-5.5-3.16-8.29-4.61-2.97-2.85-4.13-7.04-7.07-9.93-5.17-5.17-10.53-10.22-14.79-16.21-2.79-4.59-6.12-8.84-8.32-13.78-2.46-6.21-5.72-12.21-6.6-18.92-.64-5-2.29-9.78-3.2-14.72V98.59c.42-3.13.93-6.27 1.89-9.29.29.17.85.51 1.14.68.57 3.87.91 7.88 2.81 11.38 2.99 5.47 5.91 11.06 9.99 15.83 5.35 6.76 12.69 11.57 20.12 15.76 5.46 3.22 11.78 4.37 17.86 5.82 4.32 1.12 8.81.64 13.22.75 6.99.33 13.67-2.04 20.38-3.6 17.42-7.05 32.15-21.52 37.75-39.69 4.01-9.1 3.79-19.18 3.28-28.9-.98-5.46-2.73-10.81-5.47-15.65-2.25 3.74-2 8.24-3.38 12.27-1.32 4.35-2.95 8.63-5.11 12.65-4.53 7.91-11.92 13.65-19.59 18.3-10.31 5.22-22.37 8.43-33.83 5.34-6.19-1.76-12.47-3.82-17.9-7.35-11.22-7.71-19.95-19.74-21.94-33.38-2.02-9.47-.43-19.33 2.79-28.33 4.13-8.97 10.33-17.21 18.76-22.55C48.46 3.84 56.08 3.07 62.63 0z"/></svg>