<svg width="200pt" height="199pt" viewBox="0 0 200 199" xmlns="http://www.w3.org/2000/svg"><g fill="#1598cf"><path d="M57.07 28.02c9.3-8.17 20.5-14.71 32.91-16.49 9-.48 18.4-.76 26.89 2.78 8.66 3.56 16.66 8.55 24.45 13.71.23 13.32-.02 26.65.12 39.98-.03 6.83.18 13.68-.36 20.5-2.05-2.47-1.83-5.87-3.01-8.73-3.18-7.72-8.37-14.87-15.67-19.13-5.71-3.24-11.71-6.51-18.37-7.06-6.48-.53-13.19-.26-19.3 2.14-8.3 2.89-14.67 9.28-19.89 16.11-3.51 4.49-5.22 10.03-8.18 14.85-3.04 5.02-6.63 10.06-11.91 12.92-8.19 4.52-17.47 6.69-26.72 7.65-5.99.63-12.1-.12-18.03 1.15V65.81c10.41-.26 22.32 1.07 31.02-5.82 8.75-10.58 15.85-22.61 26.05-31.97z"/><path d="M84.68 80.58c9.89-.08 19.78-.09 29.67.03-.02 9.7.49 19.44-.25 29.12-9.73-.28-19.49-.26-29.22.02-.67-9.7-.23-19.45-.2-29.17z"/></g><path fill="#50a588" d="M170.71 84.09c9.61-2.27 19.55-1.35 29.29-2.43v42.24c-9.76-.13-20.14-.62-29.1 3.88-4.31 1.93-6.61 6.23-9.35 9.81-5.59 7.04-10.55 14.63-17.17 20.8-7.65 8.47-17.66 14.43-28.2 18.59-10.96 3.25-22.84 2.67-33.69-.76-9.41-3.39-17.98-8.71-26.01-14.59.32-21.68-.05-43.36.18-65.04 2.02 5.24 1.87 11.11 4.57 16.13 7.56 16.56 27.01 25.78 44.7 23.57 9.67-1.16 17.78-7.19 24.59-13.76 5.85-5.85 7.73-14.2 12.01-21.04 6.24-9.68 17.23-15.04 28.18-17.4z"/></svg>