<svg width="200pt" height="264" viewBox="0 0 200 198" xmlns="http://www.w3.org/2000/svg"><g fill="#e40507"><path d="M91.37 17.23c15.54-1.52 31.22 2.4 45.2 9.08 12.8 7.32 24.38 17.37 31.86 30.21 6.85 10.26 10.13 22.46 12.01 34.53.86 14.39-.73 29.28-6.99 42.42-3.49 6.9-7.03 13.92-12.41 19.58-9.76 11.84-23.12 20.51-37.57 25.48-5.59 1.25-11.13 2.75-16.81 3.56-20.82 1.89-42.37-3.94-58.89-16.89-9.69-6.69-16.77-16.42-22.64-26.47-9.79-18.07-12.23-39.86-6.99-59.72 2.43-11.32 8.28-21.56 15.07-30.81 8.14-9.29 17.55-17.92 28.99-22.91 9.05-4.57 19.1-7.11 29.17-8.06M73.21 33.38c-25.73 9.23-44.5 34.86-45.83 62.12 5.14.15 10.29.39 15.43.07 1.33-6.18-.62-12.4.04-18.61.49-4.09.46-8.59 3.04-12.04 2.87-3.44 7.58-3.87 11.58-5.19 1.05-3.72 1.42-8.04 4.49-10.76 2.49-2.82 6.53-2.83 9.98-3.16 7.22-.14 14.45-.04 21.67-.08.93-5.42.67-10.92.64-16.4-7.22-.22-14.35 1.43-21.04 4.05m29.14-4.23c-.23 5.51-.17 11.04.06 16.55 9.59.21 19.28-.54 28.78 1.15 5.16 2.1 6.96 8.2 7.37 13.31 4.19.45 8.8 1.32 11.7 4.69 2.4 3.14 2.8 7.28 2.99 11.1.02 6.55-.03 13.11.17 19.67 5.01.14 10.03.14 15.04-.12-.73-34.67-31.59-65.26-66.11-66.35m.07 23.42c-.17 2.63-.16 5.26-.02 7.88 9.44-.1 18.88.15 28.31-.15-.09-1.55 0-3.14-.37-4.66-1.5-2.52-4.63-3.13-7.35-3.07-6.86.13-13.71-.15-20.57 0m-35.79 1.07c-.23 2.21-2.24 5.14.17 6.75 8.88.24 17.77.04 26.65 0 .99-2.53 1.02-5.33.08-7.88-8.95.55-18.09-.88-26.9 1.13M50.74 71.16c-1.1 8.06-.25 16.31-.44 24.45 2.41.08 4.82.11 7.23.1.11-9.19.18-18.39-.03-27.59-2.54.19-6.27-.35-6.76 3.04m15-2.77c-.16 21.71-.07 43.43.02 65.14 21.58-.05 43.17.04 64.76-.04.27-21.71-.11-43.42.2-65.12-11.57-.39-23.15-.06-34.72-.15-10.09.1-20.18-.26-30.26.17m72.73-.35c-.46 3.64-.87 7.3-.54 10.96.58 5.51-.61 11.05.46 16.54 2.39.06 4.78.1 7.18.08.1-8.07.4-16.18-.1-24.24-.49-3.36-4.45-3.08-7-3.34m.08 35.62c-.7 3.74-.97 7.55-.63 11.35.58 6.31-.17 12.68.68 18.98 2.35-.66 4.62-1.55 6.83-2.58.52-9.25.36-18.54.05-27.79-2.31.01-4.62.02-6.93.04m-110.92-.04c-.35 7.42 2.17 14.5 4.35 21.47 7.81 20.23 25.23 36.88 46.32 42.54 4.93 1.88 10.16 2.94 15.45 2.66.02-4.92.05-9.84-.04-14.76-8.24-.17-16.48.15-24.72-.01-3.01.09-5.64-1.82-7.67-3.84-2.83-2.89-2.97-7.16-3.9-10.86-2.21-.22-4.48-.13-6.63-.73-3.54-1.47-6.63-4.58-7.21-8.48-1.55-9.04-.47-18.24-.95-27.35-4.94-1.04-10-.46-15-.64m22.66.6c-.08 9.04-.21 18.09.17 27.12 2.09 1.27 4.36 2.25 6.82 2.46.68-10.06.33-20.16.18-30.23-2.4.03-4.82.13-7.17.65m103.15-.08c-.51 7.97.22 15.96-.32 23.93-.37 5-3.1 9.92-7.75 12.12-2.23.62-4.59.4-6.88.56.4 6.19-3.2 13.01-9.5 14.55-8.88.49-17.78.05-26.66.14-.17 4.98-.2 9.96-.06 14.94 6.11.05 12.09-1.34 17.8-3.45 12.71-3.6 23.34-12.13 32.21-21.65 8.31-10.4 14.52-22.93 15.91-36.29.03-1.83.86-4.22-1.18-5.29-4.52-.17-9.08-.22-13.57.44m-87.83 36.49c.19 2.35.48 4.68.82 7.01 2.76.83 5.63 1.19 8.51 1.05 6.45-.19 12.91.27 19.34-.35 0-2.4 0-4.79.03-7.18-9.5-1.17-19.14-.29-28.7-.53m36.68.06c-.02 2.59.04 5.18.21 7.77 8.08.28 16.2.38 24.28.04 3.79-.37 4-4.78 4.06-7.71-9.51-.32-19.04-.19-28.55-.1z"/><path d="M81.38 76.65c9.54-.64 19.13-.09 28.69-.28 3.08.19 7.04-.5 9.11 2.41 2.55 3.15 2.12 7.43 2.14 11.22-.14 8.36.18 16.73-.12 25.09-.03 3.16-2.2 5.68-4.74 7.28-2.64 1.22-5.62.91-8.45.98-8.21-.15-16.43.05-24.65-.06-4.45.08-8.36-3.77-8.46-8.2-.45-9.37-.03-18.76-.28-28.14-.04-4.24 1.77-9.94 6.76-10.3m4.36 10.89c-.34 7.99-.11 15.99-.18 23.98 4.06 1.09 8.28.82 12.45.86 4.18-.06 8.46.46 12.52-.8-.08-8.06.23-16.11-.18-24.16-8.2-.12-16.41-.01-24.61.12z"/></g></svg>