<svg width="200pt" height="200pt" viewBox="0 0 200 200" xmlns="http://www.w3.org/2000/svg"><path fill="#fff" d="M101.83 57.02c2.01-1.11 3.63-2.79 5.26-4.39 2.96-.17 6.02-.83 8.93-.02 2.59 1.17 4.73 3.1 7.21 4.44 8.82 2.65 18.45-.48 27.11 2.81.79 4.92-1.18 9.72-3.51 13.94-3.62 4.25-9.68 3.92-14.75 3.92 1.29 1.93 2.58 4.38 5.12 4.76 3.6.31 7.3.1 10.78 1.3 3.42 2.45 1.9 7.13 1.46 10.61-3.25 1.48-7 2.16-9.74 4.57-1.04 1.83.46 3.75 1.06 5.45 2.89.93 5.89.48 8.82.06-.15 5.5.31 11.55-2.81 16.38-2.79 4.46-10.86 1.05-11.58 7.41 4.46 2.44 9.72 1.44 14.39 3.12 1.68 5.77-.31 12.09-3.7 16.86-7.16 1.72-14.64 1.74-21.92.93-11.38-2.19-22.91-3.44-34.38-5.03-8.78-2.05-15.83 6.23-24.55 5.38-3.09-.39-6.2-2.03-7.95-4.65-1.01-2.84-1.48-5.86-1.92-8.82-.41-5.44 3.91-9.76 4.27-15.06.38-2.48-1.16-4.64-1.75-6.95-.93-2.36.6-4.67 1.07-6.95.82-2.45.36-5.08.89-7.57 1.22-1.72 2.89-3.74 5.27-3.35 2.63-.31 4.71 1.53 7.11 2.21 2.17.13 4.39-.29 6.53.2 1.07.82 1.97 1.82 2.92 2.77.01 6.52-1.46 13.95-7.18 17.9-3.05 2.51-7.16 1.09-10.72 1.09.01 2.43 0 4.92 1.02 7.18.6.2 1.8.59 2.4.78 7.09-1.71 12.45-6.92 19.01-9.75 4.85 1.97 7.92 6.67 12.89 8.42 2.55 1.29 5.45.48 8.16.34 3.2 2.77 8.88 4.01 11.63.03-.18-1.69-.44-3.39-1.23-4.92-1.36.56-2.71 1.42-4.25 1.13-5.66-.64-11.63-1.08-16.64-4.05-4.71-2.76-8.13-8.06-7.92-13.6-.02-2.34 1.85-4.75 4.36-4.43 4.57-.49 9.87 1.59 13.78-1.69 2.19-1.69 4.71-5.58 1.48-7.54-4.21 3.4-10.03 4.35-15.12 2.64-2.18-.87-3.48-2.91-3.92-5.14 1.82-2.05 3.32-4.36 4.4-6.89-2.55-4.09-7.62-4.49-11.92-5.25.33 3.83 2.56 9.22-1.49 11.7-6.1.27-13.19-.11-17.75-4.74-2.18-1.98-4.28-4.47-4.23-7.58-.3-5.04-1.51-10.43.86-15.16 1.12-3.04 3.18-6.51 6.86-6.49 6.16-1.05 8.75 6.36 14.53 6.85 3.39 1.16 5.63-1.93 7.51-4.17 4.45-1.23 9.44.87 13.84-.99z"/><path fill="#c71b1e" d="M92.74 6.24c29.59-2.78 60.09 10.22 78.99 33.12 15.03 17.8 22.96 41.42 21.79 64.69-1.12 23.3-11.21 46.16-28.04 62.38-23.31 23.37-59.56 32.58-91.21 23.25-23.28-6.49-43.65-22.49-55.65-43.45-7.73-13.74-12.4-29.42-12.27-45.26-.79-24.95 9.47-49.95 27.14-67.52C49.08 17.67 70.56 7.57 92.74 6.24m9.09 50.78c-4.4 1.86-9.39-.24-13.84.99-1.88 2.24-4.12 5.33-7.51 4.17-5.78-.49-8.37-7.9-14.53-6.85-3.68-.02-5.74 3.45-6.86 6.49-2.37 4.73-1.16 10.12-.86 15.16-.05 3.11 2.05 5.6 4.23 7.58 4.56 4.63 11.65 5.01 17.75 4.74 4.05-2.48 1.82-7.87 1.49-11.7 4.3.76 9.37 1.16 11.92 5.25-1.08 2.53-2.58 4.84-4.4 6.89.44 2.23 1.74 4.27 3.92 5.14 5.09 1.71 10.91.76 15.12-2.64 3.23 1.96.71 5.85-1.48 7.54-3.91 3.28-9.21 1.2-13.78 1.69-2.51-.32-4.38 2.09-4.36 4.43-.21 5.54 3.21 10.84 7.92 13.6 5.01 2.97 10.98 3.41 16.64 4.05 1.54.29 2.89-.57 4.25-1.13.79 1.53 1.05 3.23 1.23 4.92-2.75 3.98-8.43 2.74-11.63-.03-2.71.14-5.61.95-8.16-.34-4.97-1.75-8.04-6.45-12.89-8.42-6.56 2.83-11.92 8.04-19.01 9.75-.6-.19-1.8-.58-2.4-.78-1.02-2.26-1.01-4.75-1.02-7.18 3.56 0 7.67 1.42 10.72-1.09 5.72-3.95 7.19-11.38 7.18-17.9-.95-.95-1.85-1.95-2.92-2.77-2.14-.49-4.36-.07-6.53-.2-2.4-.68-4.48-2.52-7.11-2.21-2.38-.39-4.05 1.63-5.27 3.35-.53 2.49-.07 5.12-.89 7.57-.47 2.28-2 4.59-1.07 6.95.59 2.31 2.13 4.47 1.75 6.95-.36 5.3-4.68 9.62-4.27 15.06.44 2.96.91 5.98 1.92 8.82 1.75 2.62 4.86 4.26 7.95 4.65 8.72.85 15.77-7.43 24.55-5.38 11.47 1.59 23 2.84 34.38 5.03 7.28.81 14.76.79 21.92-.93 3.39-4.77 5.38-11.09 3.7-16.86-4.67-1.68-9.93-.68-14.39-3.12.72-6.36 8.79-2.95 11.58-7.41 3.12-4.83 2.66-10.88 2.81-16.38-2.93.42-5.93.87-8.82-.06-.6-1.7-2.1-3.62-1.06-5.45 2.74-2.41 6.49-3.09 9.74-4.57.44-3.48 1.96-8.16-1.46-10.61-3.48-1.2-7.18-.99-10.78-1.3-2.54-.38-3.83-2.83-5.12-4.76 5.07 0 11.13.33 14.75-3.92 2.33-4.22 4.3-9.02 3.51-13.94-8.66-3.29-18.29-.16-27.11-2.81-2.48-1.34-4.62-3.27-7.21-4.44-2.91-.81-5.97-.15-8.93.02-1.63 1.6-3.25 3.28-5.26 4.39z"/></svg>