<svg width="200pt" height="200pt" viewBox="0 0 200 200" xmlns="http://www.w3.org/2000/svg"><g fill="#fdfbf1"><path d="M0 0h200v200H0V0m92.38 31.42C74.15 37.03 58.72 49.14 45.8 62.8c-10.56 13.66-24.49 26.65-27.39 44.51-2.6 14.04 3.12 28.5 12.42 38.88 11.09 15.11 23.9 30.32 40.35 39.67 16.08 13.1 39.75 15.38 57.81 5.1 22.16-12.32 39.99-31.4 52.98-52.98 7.41-10.65 10.93-24.38 5.74-36.79-6.92-17.15-19.19-31.67-32.26-44.59-16.68-15.81-38.63-30.75-63.07-25.18z"/><path d="M88.36 92.36c10.62-.48 21.58-1.21 32.01 1.25 9.85 7.14 14.76 22.64 7.6 33.37-4.21 10.8-17.75 9.06-26.96 10.07-5.23-.26-15.13 2.62-15.6-5.43.56-12.84-.63-25.62.77-38.44.55-.2 1.64-.62 2.18-.82z"/></g><path fill="#ebc22a" d="M92.38 31.42c24.44-5.57 46.39 9.37 63.07 25.18 13.07 12.92 25.34 27.44 32.26 44.59 5.19 12.41 1.67 26.14-5.74 36.79-12.99 21.58-30.82 40.66-52.98 52.98-18.06 10.28-41.73 8-57.81-5.1-16.45-9.35-29.26-24.56-40.35-39.67-9.3-10.38-15.02-24.84-12.42-38.88 2.9-17.86 16.83-30.85 27.39-44.51 12.92-13.66 28.35-25.77 46.58-31.38m3.96 2.98c-12.04 1.02-22.63 7.58-31.46 15.42-9.83 4.19-14.13 14.47-22.33 20.64-5.95 9.13-14.11 16.73-18.03 27.15-7.47 11.34-4.92 26.66 2.22 37.56 6.68 13.92 18.18 24.45 28.35 35.72 13.86 11.44 28.99 24.4 47.91 25.05 29.99-1.58 52.62-24.78 69.92-47.02 8.25-12.54 19.56-27.02 14.4-43.05-1.6-11.56-10.65-19.37-16.04-29.13-3.28-4.05-5.6-10.05-11.34-10.83-.46 2.87 2.13 4.4 3.58 6.43.74 11.24 4.02 22.65.59 33.75-4.34 12.48-14.27 23.21-27.19 26.83-14.49 4.51-29.56 6.88-44.93 6.09-4.93 1.78-8.22-3.02-8.82-7.1.43-13.2-.99-26.45 1.13-39.57 5.11-3.79 11.75-2 17.62-2.41-3.2-5.15 4.42-4.93 2.27.07 4.03 1.19 1.92-3.86 4.54-5.28 1.82-1.93 5-2.32 6.04-4.99 1.19-3.32-1.73-5.96-3.25-8.57 1.26-2.47.3-8.24 4.09-7.84 4.4-5.21 4.36-13.38-1.3-17.65.4-3.61.98-10.61-3.93-10.77 0 2.85 2.25 6.96-1.29 8.2-1.38-2.41-1.81-5.2-2.37-7.88-3.65 1.76-6.87-1.01-10.38-.82m-7.98 57.96c-.54.2-1.63.62-2.18.82-1.4 12.82-.21 25.6-.77 38.44.47 8.05 10.37 5.17 15.6 5.43 9.21-1.01 22.75.73 26.96-10.07 7.16-10.73 2.25-26.23-7.6-33.37-10.43-2.46-21.39-1.73-32.01-1.25z"/><path fill="#cf8f0c" d="M96.34 34.4c3.51-.19 6.73 2.58 10.38.82.56 2.68.99 5.47 2.37 7.88 3.54-1.24 1.29-5.35 1.29-8.2 4.91.16 4.33 7.16 3.93 10.77 5.66 4.27 5.7 12.44 1.3 17.65-3.79-.4-2.83 5.37-4.09 7.84 1.52 2.61 4.44 5.25 3.25 8.57-1.04 2.67-4.22 3.06-6.04 4.99-2.62 1.42-.51 6.47-4.54 5.28 2.15-5-5.47-5.22-2.27-.07-5.87.41-12.51-1.38-17.62 2.41-2.12 13.12-.7 26.37-1.13 39.57.6 4.08 3.89 8.88 8.82 7.1 15.37.79 30.44-1.58 44.93-6.09 12.92-3.62 22.85-14.35 27.19-26.83 3.43-11.1.15-22.51-.59-33.75-1.45-2.03-4.04-3.56-3.58-6.43 5.74.78 8.06 6.78 11.34 10.83 5.39 9.76 14.44 17.57 16.04 29.13 5.16 16.03-6.15 30.51-14.4 43.05-17.3 22.24-39.93 45.44-69.92 47.02-18.92-.65-34.05-13.61-47.91-25.05-10.17-11.27-21.67-21.8-28.35-35.72-7.14-10.9-9.69-26.22-2.22-37.56 3.92-10.42 12.08-18.02 18.03-27.15 8.2-6.17 12.5-16.45 22.33-20.64 8.83-7.84 19.42-14.4 31.46-15.42z"/></svg>