<svg width="200pt" height="200pt" viewBox="0 0 200 200" xmlns="http://www.w3.org/2000/svg"><g fill="#de6523"><path d="M93.37 13.38c27.92-5.03 54.81 10.02 73.09 30.2 19.36 24.85 24.01 60.37 11.36 89.3-7.66 16.14-19.6 31.13-36.14 38.72-3.31 1.71-1.24-3.58.41-4.49 26.3-23.63 32.57-67.96 9.96-96.15-13-11.86-31.73-21.34-49.49-15.62-13.93 2.55-25.61 16.16-23.62 30.68.15 10.71 7.76 20.73 17.73 24.34 1.59 1.14 3.23 3.91.6 4.85-16.15 5.02-34.2-1.8-44.05-15.41-18.34-25.39-6.89-63.22 19.79-77.83 6.11-4.39 13.6-5.64 20.36-8.59z"/><path d="M51.52 24.51c4.05-2.42 4.35 4.62.49 5.5-19.94 20.64-27.84 53.48-16.26 80.13 10.2 24.86 44.27 40.65 68.2 25.82 15.37-10.38 18.44-35.12 2.95-46.84-1.79-3.67-12.47-4.87-7.18-9.37 13.32-4.12 29.51-.06 38.62 10.89 13.84 10.6 13.8 30.07 12.28 45.79-7.58 35.97-52.56 57.85-85.46 40.51-32.62-12.01-55.26-46.2-54.22-80.95-.13-28.93 16.41-56.2 40.58-71.48z"/></g></svg>