<svg width="200pt" height="199pt" viewBox="0 0 200 199" xmlns="http://www.w3.org/2000/svg"><path fill="#c5011c" d="M15.97 54.94a9.062 9.062 0 0 1 6.97-2.52c21.04.07 42.07-.07 63.11.05 3.09-.24 5.1 2.49 7 4.5 7.78 9.21 15.52 18.47 23.17 27.8 3.2 3.22 5.48 7.26 9.04 10.12.32-13.29-.12-26.6.22-39.89.97-1.53 2.54-2.91 4.48-2.56 18.88-.01 37.76-.01 56.64-.01.28 6.4.32 12.81 0 19.21-2.79.03-5.57-.4-8.34-.19 2.59.51 5.25.54 7.86.9-2.55.5-6.05-1.18-7.73 1.47-.11 23.28-.08 46.57-.01 69.86-3.21 2.7-7.53 1.9-11.39 2-19.6-.05-39.2-.01-58.8-.01-1.89-.18-4.1.34-5.64-1.06-4.65-3.78-7.87-8.93-11.97-13.24-4.36-4.64-8.13-9.77-12.32-14.55-2.92-3.43-5.53-7.34-9.61-9.51-.44 11.86-.02 23.74-.2 35.61.28 1.93-1.73 3.48-3.54 3.32-14.32.07-28.64-.02-42.97.05-2.3.11-5.19-.34-6.15-2.78-.41-2.47-.23-5-.26-7.5.04-25.02-.02-50.04.02-75.06.05-2.01-.01-4.04.42-6.01z"/></svg>