<svg width="200pt" height="200pt" viewBox="0 0 200 200" xmlns="http://www.w3.org/2000/svg"><path fill="#d94b23" d="M26.28 39.17c7.44-.02 15.03-.85 22.42.16 4.79.52 5.99 6.57 10.65 7.32 28.2.85 56.44.06 84.66.4 5.3.68 10.85-.58 14.89-4.19 6.6-6.73 16.82-2.94 25.11-3.88 3.65-.5 3.83 4.07 2.53 6.67-6.81 28.29-11.02 57.18-12.79 86.25-2.74 15.93 1.96 32.88-2.45 48.38-7.84 1.67-16.93.43-25.22.65-8.75-2.42-1.22-15.31-9.71-18.32-18.55-1.23-37.44-.64-56.09-.3-11.34-.79-6.47 12.58-11.46 18.61-8.78-.6-18.9 1.56-27.11-.65-4.38-12.51-.13-27-1.92-40.17-1.33-14.69-2.36-29.42-3.78-44.1-.32-2.23 1.96-3.41 3.3-4.77 28.49-.72 57.03.12 85.51-.13 3.35 7.93 2.86 19.27-2.09 26.64-15.89 3.09-32.41.14-48.5 1.44-4.03 2.4-1.58 7.84-2.1 11.56 3.53 4.35 10.03 2.78 14.86 3.3 13.7.87 27.39-1.86 41.03-.18 3.97.47 8.67-.32 11.69-3.12 2.54-15.61 3.86-31.42 5.74-47.14 1.39-3.3-.31-7.45-3.78-8.3-35.11-.92-70.32.31-105.4-.58-8.03-3.71-5.92-14.55-8.5-21.62.59-4.32-5.01-10.29-1.49-13.93z"/></svg>