<svg width="200pt" height="200pt" viewBox="0 0 200 200" xmlns="http://www.w3.org/2000/svg"><path fill="#af0203" d="M0 1.4c7.3-1.67 14.69.02 22.05-.09 5.46.07 10.77 1.44 16.14 2.26 9.49 1.32 17.78 6.64 27.16 8.4.36 2.03.73 4.06 1.09 6.09 3.69.29 7.8.11 10.77 2.71 5.9 4.68 11.76 9.56 16.63 15.34 2.43 2.91-.23 6.44-1.78 9.05-5.46 8.6-9.18 18.2-12.31 27.86-5.29-7.27-9.53-15.39-16.19-21.58-9.49-9.71-22.54-14.3-33.99-21.11-.32 24.22-.12 48.45.08 72.67.1 20.86-.25 41.73.19 62.59 12.05-.96 23.04-6.99 32.11-14.68 7.54-6.41 12.69-15 17.19-23.69 1.55-3.36 3.24-7.63.68-10.96-5.58-8.21-15.15-12.11-23.77-16.27 5.58-3.16 12.42-4.18 17.03-8.93 5-4.91 10.78-9.44 13.8-15.95 2.46-5.43 5.66-10.5 8.04-15.97a96.049 96.049 0 0 1 14.78-24.4c4.21-5.13 9.58-9.21 13.48-14.62 2.14-2.82 3.86-6.03 6.53-8.4 2.1-1.5 4.88-1.06 7.3-1.36 8.27-.09 15.25-5.29 23.27-6.57C173.38 1.64 186.72.11 200 1.3V200h-22.19c-11.13-2.9-22.65-4.44-33.42-8.62-9.42-3.87-17.29-10.43-25.43-16.38-4.65-3.91-9.6-8.23-11.67-14.1.99-4.85 4.59-8.67 6.71-13.06 3.55-6.39 5-13.65 8.11-20.25 3.89 5.84 7.09 12.19 11.9 17.36 9.74 11 22.81 20.82 38.19 20.64.35-40.53.22-81.06.29-121.59-.02-3.22-.1-6.43-.22-9.65-2.78.29-5.63.45-8.27 1.45-11.84 4.97-23.33 11.61-31.66 21.59-6.05 5.83-9.8 13.64-11.7 21.74-1.05 3.95 2.68 6.73 5.18 9.13 5.82 5.54 13.53 8.18 20.22 12.42-3.57 1.41-7.17 2.79-10.45 4.82-7.23 4.6-14.43 9.86-18.75 17.47-5.51 7.83-6.96 17.61-12.25 25.57-5.86 11.47-14.78 21.05-24.77 29.04-8.88 5.47-17.79 11.09-27.62 14.69-16.25 4.97-33.27 8.63-50.36 6.82-.92-11.71.15-23.47-.69-35.18-.32-3.97-.5-7.94-.45-11.91C.87 111.33.51 70.67.6 30c-.15-9.2.49-18.45-.6-27.62V1.4z"/></svg>