<svg width="200pt" height="197pt" viewBox="0 0 200 197" xmlns="http://www.w3.org/2000/svg"><g fill="#fcfbfb"><path d="M0 0h200v197H0V0m97.4 24.1c-10 2.44-20.51 3.64-29.75 8.45-7.14 3.52-13.84 8.03-19.35 13.8-3.9 4.1-8.62 7.56-11.31 12.66-3.23 5.93-7.28 11.49-9.23 18.02-1.9 6.18-4.33 12.37-4.33 18.93-.04 5.34-.16 10.69.22 16.02.85 9.27 5.06 17.74 9.46 25.79 2.6 4.68 4.73 9.73 8.41 13.71 6.86 7.35 15.11 13.25 23.8 18.26 6.86 3.87 14.22 7.31 22.19 7.95 6.08.51 12.13 2.28 18.26 1.34 7.17-.9 14.38-2.15 21.08-4.97 8.27-3.14 15.59-8.26 22.52-13.66 7.22-6.61 13.97-14.03 18.14-22.99 5.71-9.43 8.95-20.36 9.04-31.4.02-7.27.07-14.63-1.81-21.71-2.81-9.94-7.15-19.46-13.03-27.96-2.8-3.83-6.52-6.83-9.81-10.22-3.17-3.29-6.72-6.25-10.74-8.46-11.19-6.2-23.4-10.42-35.89-13.08-2.59-.48-5.25-1.01-7.87-.48z"/><path d="M88.77 38.05c6.65-1.41 13.5-.46 20.24-.64 5.42-.31 10.38 2.18 15.38 3.89 4.48 1.86 9.46 2.94 13.19 6.24 7.08 5.86 13.34 12.68 18.76 20.09 4.26 5.61 5.94 12.65 7.3 19.43 1.22 7.51 2.75 15.25 1.06 22.82-1.27 5.72-1.43 11.76-3.77 17.21a73.371 73.371 0 0 1-12.73 19.11c-4.39 5.32-9.7 9.92-15.9 13-7.58 3.77-15.66 7.42-24.3 7.37-10.68-.04-21.7.81-31.94-2.85-18.66-7.69-33.2-24.14-39.2-43.33-3.7-14.14-3.63-29.68 2.34-43.2 2.81-7.01 7.85-12.73 12.28-18.74 6.74-8.05 15.94-14.24 26.14-16.91 3.74-1.09 7.35-2.57 11.15-3.49m15.64 22.56c-1.6 2.03-1.06 4.86-1.07 7.26.07 1.35.26 3.62 2.08 3.6 7.65.31 15.31.65 22.94 1.27 1.8 2.83 1.44 6.43 1.04 9.61-6.23 4.31-14.53.6-21.48 2.54-1 .54-2.41 1.21-2.46 2.52-.44 6.12.18 12.25.07 18.38.08 4.49-.47 9.02.12 13.48.21.26.62.79.83 1.05 7.35.98 14.97-1.02 22.18 1.02 1.38 3.43 1.54 7.79-.74 10.89-8.02.93-16.13-.36-24.15.53-1.18 3.38-1.87 7.81.87 10.63 5.77.54 11.57.02 17.35.08 4.99-.1 10.01.35 14.99-.15 2.29-.16 4.22-2.04 4.37-4.34.47-5.32-.09-10.66.07-15.98-.07-4.28.47-8.61-.23-12.86-.85-1.55-2.64-2.05-4.24-2.38-6.05-.84-12.19.34-18.23-.54-1.88-1.01-1.18-3.48-1.41-5.22.21-1.75-.36-4.13 1.42-5.22 7.46-1.23 15.27 1.01 22.58-1.28.76-7.78-.45-15.63.61-23.4.42-3.75 1.32-8.28-1.72-11.23-5.02-.83-10.14-.27-15.2-.4-6.86.17-13.74-.3-20.59.14m-43.81.95c-2.71 2.73-2.06 6.94-2.2 10.44.28 6.62-.4 13.29.42 19.87.4 3.41 4.07 5.03 7.16 4.43 5.43-.67 10.94-.63 16.29.57.52 3.45.52 6.98.06 10.43-6.42.76-12.9-.23-19.33.32-1.99.11-3.84 1.48-4.18 3.51-.74 4.58-.18 9.25-.3 13.87.11 4.96-.49 9.96.29 14.88.59 3.29 4.43 3.62 7.12 3.64 7.36.02 14.73-.13 22.09.07 2.44-.12 5.16.28 7.34-1.08 2.78-2.57 2.74-7.38 0-9.96-7.62-.73-15.31.66-22.92-.22-1.63-3.38-2.95-7.96-.12-11.1 6.6-1.96 13.71.27 20.34-1.67 1.12-2.7.89-5.69.94-8.55-.13-6.52.01-13.04.04-19.57-.06-2.38.02-5.31-2.25-6.77-6.49-1.07-13.36 1.01-19.64-1.42-3.17-3.05-2.08-8.7 1.74-10.6 7.22-.83 14.74.86 21.77-1.58 2.21-2.75 2.67-9.71-2.23-9.59-7.68-.4-15.42.49-23.06-.71-3.09-.16-6.59-1.01-9.37.79z"/></g><g fill="#8b1b29"><path d="M97.4 24.1c2.62-.53 5.28 0 7.87.48 12.49 2.66 24.7 6.88 35.89 13.08 4.02 2.21 7.57 5.17 10.74 8.46 3.29 3.39 7.01 6.39 9.81 10.22 5.88 8.5 10.22 18.02 13.03 27.96 1.88 7.08 1.83 14.44 1.81 21.71-.09 11.04-3.33 21.97-9.04 31.4-4.17 8.96-10.92 16.38-18.14 22.99-6.93 5.4-14.25 10.52-22.52 13.66-6.7 2.82-13.91 4.07-21.08 4.97-6.13.94-12.18-.83-18.26-1.34-7.97-.64-15.33-4.08-22.19-7.95-8.69-5.01-16.94-10.91-23.8-18.26-3.68-3.98-5.81-9.03-8.41-13.71-4.4-8.05-8.61-16.52-9.46-25.79-.38-5.33-.26-10.68-.22-16.02 0-6.56 2.43-12.75 4.33-18.93 1.95-6.53 6-12.09 9.23-18.02 2.69-5.1 7.41-8.56 11.31-12.66 5.51-5.77 12.21-10.28 19.35-13.8 9.24-4.81 19.75-6.01 29.75-8.45m-8.63 13.95c-3.8.92-7.41 2.4-11.15 3.49-10.2 2.67-19.4 8.86-26.14 16.91-4.43 6.01-9.47 11.73-12.28 18.74-5.97 13.52-6.04 29.06-2.34 43.2 6 19.19 20.54 35.64 39.2 43.33 10.24 3.66 21.26 2.81 31.94 2.85 8.64.05 16.72-3.6 24.3-7.37 6.2-3.08 11.51-7.68 15.9-13a73.371 73.371 0 0 0 12.73-19.11c2.34-5.45 2.5-11.49 3.77-17.21 1.69-7.57.16-15.31-1.06-22.82-1.36-6.78-3.04-13.82-7.3-19.43-5.42-7.41-11.68-14.23-18.76-20.09-3.73-3.3-8.71-4.38-13.19-6.24-5-1.71-9.96-4.2-15.38-3.89-6.74.18-13.59-.77-20.24.64z"/><path d="M104.41 60.61c6.85-.44 13.73.03 20.59-.14 5.06.13 10.18-.43 15.2.4 3.04 2.95 2.14 7.48 1.72 11.23-1.06 7.77.15 15.62-.61 23.4-7.31 2.29-15.12.05-22.58 1.28-1.78 1.09-1.21 3.47-1.42 5.22.23 1.74-.47 4.21 1.41 5.22 6.04.88 12.18-.3 18.23.54 1.6.33 3.39.83 4.24 2.38.7 4.25.16 8.58.23 12.86-.16 5.32.4 10.66-.07 15.98-.15 2.3-2.08 4.18-4.37 4.34-4.98.5-10 .05-14.99.15-5.78-.06-11.58.46-17.35-.08-2.74-2.82-2.05-7.25-.87-10.63 8.02-.89 16.13.4 24.15-.53 2.28-3.1 2.12-7.46.74-10.89-7.21-2.04-14.83-.04-22.18-1.02-.21-.26-.62-.79-.83-1.05-.59-4.46-.04-8.99-.12-13.48.11-6.13-.51-12.26-.07-18.38.05-1.31 1.46-1.98 2.46-2.52 6.95-1.94 15.25 1.77 21.48-2.54.4-3.18.76-6.78-1.04-9.61-7.63-.62-15.29-.96-22.94-1.27-1.82.02-2.01-2.25-2.08-3.6.01-2.4-.53-5.23 1.07-7.26zm-43.81.95c2.78-1.8 6.28-.95 9.37-.79 7.64 1.2 15.38.31 23.06.71 4.9-.12 4.44 6.84 2.23 9.59-7.03 2.44-14.55.75-21.77 1.58-3.82 1.9-4.91 7.55-1.74 10.6 6.28 2.43 13.15.35 19.64 1.42 2.27 1.46 2.19 4.39 2.25 6.77-.03 6.53-.17 13.05-.04 19.57-.05 2.86.18 5.85-.94 8.55-6.63 1.94-13.74-.29-20.34 1.67-2.83 3.14-1.51 7.72.12 11.1 7.61.88 15.3-.51 22.92.22 2.74 2.58 2.78 7.39 0 9.96-2.18 1.36-4.9.96-7.34 1.08-7.36-.2-14.73-.05-22.09-.07-2.69-.02-6.53-.35-7.12-3.64-.78-4.92-.18-9.92-.29-14.88.12-4.62-.44-9.29.3-13.87.34-2.03 2.19-3.4 4.18-3.51 6.43-.55 12.91.44 19.33-.32.46-3.45.46-6.98-.06-10.43-5.35-1.2-10.86-1.24-16.29-.57-3.09.6-6.76-1.02-7.16-4.43-.82-6.58-.14-13.25-.42-19.87.14-3.5-.51-7.71 2.2-10.44z"/></g></svg>