<svg width="200pt" height="199pt" viewBox="0 0 200 199" xmlns="http://www.w3.org/2000/svg"><g fill="#0439e7"><path d="M0 0h200v199H0V0m68.31 30.09c-20.4 9.69-35.42 29.05-41.06 50.77-1.13 5.31-2.06 10.68-2.56 16.09-.75 19.64 6.15 39.5 18.85 54.51 4.52 4.51 8.74 9.47 14.15 12.98 11.8 7.85 25.45 14.11 39.86 14.2.06-15.66-.02-31.32.05-46.98 8.81-.26 17.63.09 26.44-.16 3.42.21 6.18-3.27 6.31-6.48.22-24.85-.21-49.71.21-74.55 7.21 3.79 13.24 9.42 18.37 15.68 9.86 13.01 13.87 30.53 10.17 46.48-4.87 23.32-25.81 42.31-49.66 44.17-.24 4.74.11 9.5-.56 14.21-.42 2.61.22 5.22.7 7.78 6.72-.23 13.33-1.76 19.61-4.11 15.68-4.96 29.31-15.5 38.69-28.94 18.61-25.54 19.34-62.78 1.25-88.78-6.04-9.16-14.06-17.07-23.36-22.92-10.8-7.01-23.4-11.78-36.39-11.83-.47 5.25-.93 10.53-.22 15.79-.54 10.74-.33 21.51-.45 32.28-8.57.18-17.15-.08-25.72.1-1.69.12-3.85.03-4.82 1.73-2.24 2.82-1.73 6.54-1.78 9.9.03 22.67.04 45.34 0 68.01-6.7-2.51-11.66-7.98-16.35-13.15-14.46-16.78-17.63-42.43-7.2-62.04 8.58-16.61 25.63-29.66 44.65-30.61.08-7.58.1-15.16-.07-22.74-10 1.63-20.15 3.62-29.11 8.61z"/><path d="M94.35 91.4c6.04-.04 12.08-.06 18.12.03.09 6.28.19 12.56-.1 18.83-5.96.16-11.93.01-17.89.09-.19-6.31-.12-12.63-.13-18.95z"/></g><path fill="#fbfcfa" d="M68.31 30.09c8.96-4.99 19.11-6.98 29.11-8.61.17 7.58.15 15.16.07 22.74-19.02.95-36.07 14-44.65 30.61-10.43 19.61-7.26 45.26 7.2 62.04 4.69 5.17 9.65 10.64 16.35 13.15.04-22.67.03-45.34 0-68.01.05-3.36-.46-7.08 1.78-9.9.97-1.7 3.13-1.61 4.82-1.73 8.57-.18 17.15.08 25.72-.1.12-10.77-.09-21.54.45-32.28-.71-5.26-.25-10.54.22-15.79 12.99.05 25.59 4.82 36.39 11.83 9.3 5.85 17.32 13.76 23.36 22.92 18.09 26 17.36 63.24-1.25 88.78-9.38 13.44-23.01 23.98-38.69 28.94-6.28 2.35-12.89 3.88-19.61 4.11-.48-2.56-1.12-5.17-.7-7.78.67-4.71.32-9.47.56-14.21 23.85-1.86 44.79-20.85 49.66-44.17 3.7-15.95-.31-33.47-10.17-46.48-5.13-6.26-11.16-11.89-18.37-15.68-.42 24.84.01 49.7-.21 74.55-.13 3.21-2.89 6.69-6.31 6.48-8.81.25-17.63-.1-26.44.16-.07 15.66.01 31.32-.05 46.98-14.41-.09-28.06-6.35-39.86-14.2-5.41-3.51-9.63-8.47-14.15-12.98-12.7-15.01-19.6-34.87-18.85-54.51.5-5.41 1.43-10.78 2.56-16.09 5.64-21.72 20.66-41.08 41.06-50.77M94.35 91.4c.01 6.32-.06 12.64.13 18.95 5.96-.08 11.93.07 17.89-.09.29-6.27.19-12.55.1-18.83-6.04-.09-12.08-.07-18.12-.03z"/></svg>