<svg xmlns="http://www.w3.org/2000/svg" viewBox="0 0 200 199" style="enable-background:new 0 0 200 199" xml:space="preserve"><path d="M96.4 27c15.8-1.9 31.9 2 45.8 9.7 7.5 3.9 13.7 9.7 19.7 15.6C175.2 67 183.2 87 182.5 107c.3 11.8-3.1 23.5-8.1 34.1-11.5 23.5-35.3 40.7-61.4 43.5-9.5.1-19.1.9-28.4-1.6-20.3-5.1-38.5-18.4-49.2-36.6-12.4-20.9-14.7-47.6-5.3-70 10.7-27 37.1-47.5 66.3-49.4m-8.3 23.4C69.2 55.6 53.5 71 48.4 90c-2.6 7.7-2.1 15.8-1.8 23.8 2.3 14.1 9.4 27.8 20.8 36.7 14.2 11.7 34.4 16 52 10.5 25.2-6.6 43.5-32.8 41.1-58.7-5.1-1.3-10.4-.4-15.5-.7-8.5-.2-17 .4-25.5-.3-5.2-4.8-9.9-10-15.1-14.9-.8-.9-1.9-1.4-3.1-1.1-3.1 2.2-5.4 5.2-8.1 7.9-3.6 3.7-7.8 6.9-10.6 11.2-.7 1.3.7 2.4 1.4 3.4 3.3 3.4 6.8 6.5 10.1 10 3.2 3.1 5.9 6.8 9.8 9 5.1-4.5 9.6-9.7 14.6-14.3 2.9-2.5 7-1.7 10.5-1.9 5.9.2 11.9-.6 17.7.8 0 5.5-2.2 10.6-4.6 15.4-8.5 17.2-29.5 26.8-48.1 22.4-12.4-2.7-23.6-10.9-29.3-22.3-6.4-11.9-7.2-27-1.2-39.2 5.6-12.1 16.9-21.4 29.9-24.4 12.5-2.7 26.1 0 36.4 7.8 6 4.2 9.9 10.4 13.8 16.4 4.7.2 9.4.2 14.1 0-5.5-17.7-20.4-31.5-38-36.8-10.3-3.1-21.3-3-31.6-.3z" style="fill:#eb3e05"/></svg>