<svg width="200pt" height="200pt" viewBox="0 0 200 200" xmlns="http://www.w3.org/2000/svg"><path d="M104.72 28.93c7.68-3.56 16.54-3.04 24.39-.32 14.31 3.92 25.99 13.73 36.42 23.88 4.44 4.73 9.2 9.51 11.84 15.54-1.15 2.2-2.91 3.99-4.57 5.79-3.39 3.44-6.26 7.77-11.1 9.3-5.02-7.45-11.8-13.44-17.31-20.49-4.69-5.94-10.44-10.89-15.93-16.05-5.51-4.51-10.93-9.29-17.34-12.5-2.48-1.23-4.52-3.14-6.4-5.15zm-15.34 6.59c6.23-.54 12.88-.55 18.45 2.71 9.22 4.25 15.41 12.52 22.55 19.39 8.76 10.03 18.82 18.93 26.91 29.53-.58 5.92-6.14 9.26-9.78 13.34-2.39 2.17-4.58 5.79-8.31 5.19-2.05-.03-3.46-1.72-4.84-3.01-7.84-8.49-16.34-16.34-24.31-24.71-2.21-2.02-4.46-5.04-7.83-4.63-2.08.01-3.16 2.08-4.44 3.4-2.91 3.75-6.29 7.09-9.78 10.29-4.53 4.14-8.13 9.18-12.73 13.25-2.77 2.69-6.14 5.09-7.62 8.8.3 2.07 1.52 3.86 2.9 5.37 9.38 9.64 18.66 19.39 27.75 29.3 2.27 3.04 6.82 2.32 8.87-.57 8.21-8.79 16.87-17.14 25.25-25.76 2.13-2.19 4.06-4.61 6.52-6.44 2.01-1.49 4.64-1.36 7.02-1.48 6.34-.07 12.69.04 19.03-.01 3.25.07 6.58-.14 9.73.81 2.54.43 2.64 3.59 2.84 5.63.45 11.38-4.95 21.86-9.91 31.76-8.06 13.03-20.16 23.75-34.4 29.56-8.69 3.43-17.73 6.91-27.25 6.31-11.89.61-23.49-2.73-34.48-6.91-4.15-1.56-7.55-4.45-11.03-7.09-4.87-3.76-10.45-6.75-14.35-11.63-3.96-4.44-6.34-9.92-8.9-15.21-4.97-9.41-8.16-19.97-7.89-30.68.02-5.85-.27-11.79 1.16-17.52 1.7-7.15 3.44-14.43 7.1-20.88 2.79-5.04 6.22-9.69 9.83-14.16 5.32-6.8 12.75-11.45 19.87-16.12 6.92-3.61 14.34-6.59 22.07-7.83z" fill="#0958a7"/></svg>