<svg width="200pt" height="200pt" viewBox="0 0 200 200" xmlns="http://www.w3.org/2000/svg"><path fill="#013d77" d="M74.6 38.53c.91-.83 1.77-1.85 3.02-2.15 6.99 7.22 14.37 14.08 21.14 21.52-9.09 8.57-17.63 17.7-26.6 26.4 16.54 16.64 32.9 33.48 49.73 49.83-14.69 15.17-29.77 29.94-44.58 44.98-22.47-22-44.43-44.52-66.77-66.66-1.5-1.69-3.75-2.95-4.43-5.22 22.74-22.97 45.76-45.69 68.49-68.7z"/><path d="M121.36 40.38c1.4-1.35 2.65-3.03 4.52-3.73 5.73 5.04 11.2 10.43 16.24 16.17-10.9.55-21.85.42-32.76.08 3.66-4.5 8.11-8.25 12-12.52zm-18.49 18.51c1.72-2.16 4.66-1.63 7.09-1.74 11.68.11 23.36-.34 35.02.08 2.35-.11 3.71 2.11 5.28 3.48 4.18 4.5 9.05 8.39 12.62 13.43-24.82.35-49.67.23-74.5-.05 4.24-5.6 9.67-10.13 14.49-15.2zM80.82 80.57c2.93-3.12 7.34-2.28 11.18-2.33 23.69.17 47.37 0 71.05-.05 2.14.12 4.71-.37 6.21 1.56 4.98 5.07 10.23 9.89 14.81 15.34-29.32.12-58.66.05-87.96.06-5.85-3.95-10.17-9.76-15.29-14.58zM99.57 99.4c25.8-.53 51.62.01 77.43-.27 3.82-.06 7.81-.9 11.51.38 3.2 2.27 5.69 5.37 8.25 8.31-3.21 2.76-5.63 7.05-9.76 8.4-22.68.15-45.37-.07-68.06.1-3.01.19-4.95-2.49-6.94-4.31-4.03-4.32-8.48-8.22-12.43-12.61zm20.79 21.1c6.52-.73 13.09-.32 19.64-.41 14.7.08 29.41-.11 44.12.12-4.88 5.4-10.02 10.57-15.3 15.58-2.02 2.19-5.2 1.34-7.82 1.5-12-.33-24.03.47-36.01-.5 1.9-1.97 3.82-3.94 5.71-5.93-3.16-3.73-6.82-6.99-10.34-10.36zm-3.54 24.32c1.79-1.62 3.43-4.07 6.13-3.98 7.68-.23 15.37.01 23.05-.06 5.67.1 11.39-.44 17 .66-4.64 5.19-9.72 9.96-14.63 14.89-2.08 2.4-5.53 1.69-8.35 1.82-11.89-.33-23.8.35-35.68-.38 3.82-4.64 8.37-8.58 12.48-12.95zm-7.93 17.36c11.1-.56 22.23-.47 33.34-.28-3.31 4.42-7.49 8.07-11.34 12-1.77 1.72-3.44 3.65-5.66 4.82-5.61-5.34-10.73-11.19-16.34-16.54z" fill="#aa8249"/></svg>