<svg width="264" height="200pt" viewBox="0 0 198 200" xmlns="http://www.w3.org/2000/svg"><g fill="#fbf9eb"><path d="M0 0h198v200H0V0m85.34 20.53c-8.83.45-16.7 4.42-25.05 6.83-7.03 3.65-13.66 8.09-19.77 13.14-2.08 2.91-4.86 5.19-7.67 7.34-7.75 10.74-14.74 22.35-17.38 35.5-5.64 18.58-1.32 38.47 6.31 55.82 1.55 6.05 6.61 10.14 9.61 15.49 3.99 3.96 8.36 7.62 11.94 12.02 9.83 7.25 20.98 12.83 32.74 16.14 9.53 1.99 19.29 1.05 28.94 1.14 28.59-1.82 54.09-21.41 66.02-46.93 4.85-10.42 6.92-21.56 7.86-33.02-1.29-4.78-.81-9.77-1.35-14.66-1.89-5.52-2.37-11.38-3.93-16.99-3.41-2.82-2.81-7.87-6.22-10.7-3.95-8.34-10.76-14.52-16.6-21.43-6.31-4.48-11.85-10.3-19.46-12.63-5.9-3.9-13.17-4.7-19.97-6.11-8.1-3.51-17.51-.92-26.02-.95z"/><path d="M77.14 37.08c11.61-.15 23.22-.15 34.82-.02 1.38.48 3.11.93 3.42 2.6 2.18 8.42-.44 17.96 2.86 26.09 5.64 1.89 11.74.93 17.57 1.38 3.76 5.34 1.35 12.74 2.48 18.81 1.68 19.8 4.39 39.52 5.15 59.41 1.55 2.66.36 5.18-.65 7.52-8.19.24-16.39.24-24.58.01-3.52-4.92.14-14.47-6.5-17.6-10.46-.35-21.05-.65-31.46-.01-6.6 3.16-3.07 12.22-6.43 17.62-8.55.18-17.11.24-25.65 0a25.2 25.2 0 0 1-1.05-2.95c2.42-19.81 3.6-39.76 5.19-59.66 1.1-7.5 1.07-15.41 3.39-22.57 5.38-2.35 12.62 1.24 18.1-1.95 1.05-9.58 1.32-19.22 3.34-28.68M66.26 79.17c-1.76 1.78-4.3 3.4-2.24 6.82.02 11.59-.24 23.18.17 34.76 2.24 3.46 8.34 3.61 10.6.02.59-4.56 0-9.2.25-13.78 1.44.04 4.31.1 5.74.13 2.82 1.96-.19 6.47 1.28 8.89-3.03 7.02 7.23 9.31 10.8 5.75.3-11.59.14-23.18.11-34.77.85-2.98-.45-5.67-2.13-7.9-2.94-.26-6.02-.24-8.7 1.09-.94 4.8 1.56 10.78-1.37 14.71-11.47 3-1.53-13.14-8.8-15.88l-5.71.16m37.04.12c-1.12.52-2.24 1.05-3.17 1.88-.44 11.26-.02 22.56-.1 33.84-.88 2.94.45 5.69 2.13 7.89 3.11.27 6.83.95 8.64-2.13.57-4.15.01-8.38.34-12.55 3.89-3.33 9.9-1.13 14.63-1.41 3.45-1.98 2.02-6.46 2.15-9.63-4.54-2.92-10.58-1.71-15.68-2.39-1.78-.84-1.72-3.7-.04-4.62 4.52-.48 9.08 0 13.62-.28 2.07-2.29 1.78-5.92 2.1-8.71-6.95-5.16-16.7-1-24.62-1.89z"/></g><g fill="#9c8223"><path d="M85.34 20.53c8.51.03 17.92-2.56 26.02.95 6.8 1.41 14.07 2.21 19.97 6.11 7.61 2.33 13.15 8.15 19.46 12.63 5.84 6.91 12.65 13.09 16.6 21.43 3.41 2.83 2.81 7.88 6.22 10.7 1.56 5.61 2.04 11.47 3.93 16.99.54 4.89.06 9.88 1.35 14.66-.94 11.46-3.01 22.6-7.86 33.02-11.93 25.52-37.43 45.11-66.02 46.93-9.65-.09-19.41.85-28.94-1.14-11.76-3.31-22.91-8.89-32.74-16.14-3.58-4.4-7.95-8.06-11.94-12.02-3-5.35-8.06-9.44-9.61-15.49-7.63-17.35-11.95-37.24-6.31-55.82 2.64-13.15 9.63-24.76 17.38-35.5 2.81-2.15 5.59-4.43 7.67-7.34 6.11-5.05 12.74-9.49 19.77-13.14 8.35-2.41 16.22-6.38 25.05-6.83m-8.2 16.55c-2.02 9.46-2.29 19.1-3.34 28.68-5.48 3.19-12.72-.4-18.1 1.95-2.32 7.16-2.29 15.07-3.39 22.57-1.59 19.9-2.77 39.85-5.19 59.66a25.2 25.2 0 0 0 1.05 2.95c8.54.24 17.1.18 25.65 0 3.36-5.4-.17-14.46 6.43-17.62 10.41-.64 21-.34 31.46.01 6.64 3.13 2.98 12.68 6.5 17.6 8.19.23 16.39.23 24.58-.01 1.01-2.34 2.2-4.86.65-7.52-.76-19.89-3.47-39.61-5.15-59.41-1.13-6.07 1.28-13.47-2.48-18.81-5.83-.45-11.93.51-17.57-1.38-3.3-8.13-.68-17.67-2.86-26.09-.31-1.67-2.04-2.12-3.42-2.6-11.6-.13-23.21-.13-34.82.02z"/><path d="m66.26 79.17 5.71-.16c7.27 2.74-2.67 18.88 8.8 15.88 2.93-3.93.43-9.91 1.37-14.71 2.68-1.33 5.76-1.35 8.7-1.09 1.68 2.23 2.98 4.92 2.13 7.9.03 11.59.19 23.18-.11 34.77-3.57 3.56-13.83 1.27-10.8-5.75-1.47-2.42 1.54-6.93-1.28-8.89-1.43-.03-4.3-.09-5.74-.13-.25 4.58.34 9.22-.25 13.78-2.26 3.59-8.36 3.44-10.6-.02-.41-11.58-.15-23.17-.17-34.76-2.06-3.42.48-5.04 2.24-6.82zm37.04.12c7.92.89 17.67-3.27 24.62 1.89-.32 2.79-.03 6.42-2.1 8.71-4.54.28-9.1-.2-13.62.28-1.68.92-1.74 3.78.04 4.62 5.1.68 11.14-.53 15.68 2.39-.13 3.17 1.3 7.65-2.15 9.63-4.73.28-10.74-1.92-14.63 1.41-.33 4.17.23 8.4-.34 12.55-1.81 3.08-5.53 2.4-8.64 2.13-1.68-2.2-3.01-4.95-2.13-7.89.08-11.28-.34-22.58.1-33.84.93-.83 2.05-1.36 3.17-1.88z"/></g></svg>