<svg width="200pt" height="197pt" viewBox="0 0 200 197" xmlns="http://www.w3.org/2000/svg"><g fill="#f9f3f1"><path d="M0 0h200v197H0V0m89.4 17.5c-32.04 2.67-60.62 26.12-70.42 56.49-11.03 33.53-.11 74.33 29.21 94.86 15.08 11.58 34.6 17.94 53.82 16.19 32.92.18 63.47-22.67 75.19-52.93 1.47-1.76.02-5.72-2-2.91-4.19 6.38-9.75 11.56-15.41 16.61-21.08 14.3-53.5 11.73-69.63-8.96-15.15-12.76-16.02-35.06-12.25-53.02 2.46-2.71 3.56-6.2 4.3-9.71 7.42-11.27 18.11-20.41 31.04-24.85 23.03-7.44 52.55 2.96 62.91 25.77 6.21-.36-2-6.59-.79-9.58C160.33 33.75 124.9 12.05 89.4 17.5m21.89 62.67c-.78.9-2.25 1.53-2.22 2.89-.18 11.9-.17 23.82.04 35.74 6.38 4.82 15.55.96 22.89 2.25 5.25-1.5 16.08 3.41 17.89-4.12.05-11.01.83-22.62-.58-33.28-11.19-6.54-25.36-2.29-38.02-3.48z"/><path d="M128.39 97.48c8.57-5.11 7.24 12.99-.41 8.55-5 .6-4.69-9.8.41-8.55z"/></g><g fill="#a83a36"><path d="M89.4 17.5c35.5-5.45 70.93 16.25 85.97 47.96-1.21 2.99 7 9.22.79 9.58-10.36-22.81-39.88-33.21-62.91-25.77-12.93 4.44-23.62 13.58-31.04 24.85-.74 3.51-1.84 7-4.3 9.71-3.77 17.96-2.9 40.26 12.25 53.02 16.13 20.69 48.55 23.26 69.63 8.96 5.66-5.05 11.22-10.23 15.41-16.61 2.02-2.81 3.47 1.15 2 2.91-11.72 30.26-42.27 53.11-75.19 52.93-19.22 1.75-38.74-4.61-53.82-16.19-29.32-20.53-40.24-61.33-29.21-94.86 9.8-30.37 38.38-53.82 70.42-56.49z"/><path d="M111.29 80.17c12.66 1.19 26.83-3.06 38.02 3.48 1.41 10.66.63 22.27.58 33.28-1.81 7.53-12.64 2.62-17.89 4.12-7.34-1.29-16.51 2.57-22.89-2.25-.21-11.92-.22-23.84-.04-35.74-.03-1.36 1.44-1.99 2.22-2.89m17.1 17.31c-5.1-1.25-5.41 9.15-.41 8.55 7.65 4.44 8.98-13.66.41-8.55z"/></g></svg>