<svg width="392" height="392" viewBox="0 0 294 294" xmlns="http://www.w3.org/2000/svg"><path fill="#ce352d" d="M193.82 28.97c10.35-.89 21.26-.96 30.9 3.41 8.35 3.71 13.22 13.94 10.35 22.71-2.11 6.1-7.62 10.07-12.99 13.15 15.47 12.98 27 30.51 32.66 49.91 4.84 15.56 6.76 32.66 1.61 48.4-1.39 2.87.79 5.61 1.06 8.47.72 7.29-1.11 14.53-3.15 21.47-7.95 23.82-24.27 44.79-45.6 58.1-13.05 8.03-27.06 16.1-42.71 16.96-5.47.66-9.98-3.36-13.18-7.3-7.17-8.58-10.36-20.18-8.98-31.23 1.87-13.32 11.01-25.22 23.1-30.94 8.53-4.13 18.32-4.75 27.59-3.51 6.13.94 12.5 4.32 14.06 10.82-5.32-1.68-10.93-2.99-16.51-1.88-9.09 1.76-17.28 7.48-22.25 15.25-6.04 9.67-1.37 24.05 9.15 28.4 4.31 1.65 9.39 1.53 13.52-.6 17.02-9.32 31.69-23.7 39.36-41.72 3.15-7.57 5.08-16.05 3.38-24.21-1.28-6.37-6.59-12.04-13.22-12.65-6.25-.6-12.35 1.32-18.45 2.4-21.63 4.5-43.31 14.07-57.22 31.88-3.54 4.97-8.11 9.53-9.69 15.6-2.52 8.8-2.35 18.06-1.95 27.12.17 4.49 1.86 9.3-.65 13.46-6.38-3.54-11.01-9.43-14.89-15.46-9.43-14.55-12.79-32.89-9.08-49.82 2.14-9.96 8.06-19.3 17.22-24.13.75 2.23.7 5.37 3.24 6.42 3.28.84 6.68-.08 9.77-1.22 7.82-2.89 14.94-7.38 21.61-12.33 2.66-2.09 5.62-4.45 6.34-7.96-.05-3.01-1.4-6.69-4.53-7.65-4.2-.27-8.7-.16-12.44 1.98-4.32 2.22-8 5.43-11.68 8.53-.73-4.99-1.01-10.11-2.77-14.89-4.12 2.77-7.8 6.1-11.39 9.5-9.16 8.65-17.66 18.19-23.79 29.27-3.74 6.45-2.82 14.19-3.15 21.33.16 13.07-.83 26.54 3.41 39.14 2.75 9.25 7.76 17.55 12.53 25.85-10.9-2.57-21.37-6.92-31.18-12.28-4.15-2.15-8.02-5.6-8.57-10.51-1.43-9.94.13-19.99.11-29.97-5.94 4.65-12.15 9.67-19.82 10.94-3.17.61-6.73-1.08-7.99-4.11-2.12-4.7-2.77-10.54-.14-15.19 1.77-3.42 4.08-6.55 6.71-9.36 7.06-7.61 14.88-14.45 22.25-21.76 4.28-4.31 8.68-8.66 11.62-14.05-11.93 7.66-23.8 16.22-37.82 19.56-5.52 1.39-11.69 1.78-16.82-1.09-4.81-2.76-7.08-8.22-8.52-13.3-3.28-11.63-1.53-24.32 3.85-35.04 1.24 4.06 1.86 8.87 5.47 11.63 3.31 2.31 7.69 1.9 11.24.37 13.5-5.24 26.75-11.71 41.18-14 7.37-1.24 15.31.32 21.29 4.89 4.12 3.1 6.08 8.05 8.07 12.62 5.98-4.46 12.42-8.24 19.27-11.19-3.04-6.52-8.07-11.76-13.22-16.66 4.62-1.19 9.35-1.97 13.98-3.16 14.15-3.91 27.23-10.99 39.02-19.65-.64 14.23 5 28.72 16.25 37.72-6.44 2-13.58 4.11-17.75 9.82-1.83 2.92 1.75 5.32 4.24 5.96 5.74.82 11.92-.88 16.22-4.83 4.05-3.9 6.32-9.27 7.4-14.71 2.67-11.27 0-23.46-6.27-33.08-5.78-8.77-15.52-14.18-25.53-16.63-11.48-2.87-23.65-2.99-35.22-.56-7.18 1.29-13.18 5.69-19.74 8.61-15.57 7.52-32.32 14.74-50.04 13.11-6.25-.78-14.08-1.39-17.34-7.72-4.78-7.97-8.94-18.29-4.69-27.34 6.03-.54 12.09-.15 18.13.09 6.89.49 13.32-2.72 19.25-5.86 2.82-1.32 3.1-4.82 4.93-7.06 5.78-7.56 15.18-11.05 23.94-13.85 14.17-4.31 29.11-6.27 43.91-5.14 10.27.65 20.14 3.79 29.91 6.79 3.6 1.07 7.25 2.14 11.02 2.36 4.49.2 9.32-3.61 8.85-8.38-.06-4.82-4.82-7.28-8.04-10.02z"/></svg>