<svg width="200pt" height="200pt" viewBox="0 0 200 200" xmlns="http://www.w3.org/2000/svg"><g fill="#e60112"><path d="M32.61 42.63C46.5 28.38 65.24 18.96 85 16.48c14.51-2.42 29.53.09 43.22 5.14 20.65 7.8 38.29 23.74 47.48 43.88 1.63 3.38 3.31 6.91 3.13 10.77-12.37-.07-24.74.08-37.11-.01-7.48-16.92-14.06-34.22-21.59-51.12-7.19 16.55-13.93 33.28-20.85 49.94-.9 2.19-1.95 4.31-3.1 6.37-8.6-17.88-16.33-36.17-24.62-54.2-5.63 12.1-10.53 24.51-15.77 36.78-9.75 22.57-19.26 45.25-28.94 67.86-.55 1.34-1.18 3.01.04 4.2 6.04 8.29 12.2 16.5 18.32 24.73.76 1.26 2.49.76 3.71.94 27.69-.11 55.39-.32 83.09-.48 5.54-.55 11.11-.65 16.68-.65 5.74-8.8 11.54-17.55 17.04-26.49-.56-1.56-1.11-3.12-1.62-4.7 4.28-.09 8.57-.13 12.85.14-3.73 11.41-11.35 21.23-19.83 29.57-16.92 16.34-40.73 24.89-64.14 24.17-12.42-.73-24.72-3.74-35.91-9.26-17.56-8.42-32.07-23.12-40.12-40.87-7.37-15.8-9.71-34.06-5.64-51.08 3.2-14.85 11.05-28.38 21.29-39.48z"/><path d="M110.13 82.91c.76-1.73 1.68-3.39 2.65-5.01 8.13 18.86 16.54 37.62 24.18 56.68-14.66.26-29.31.1-43.96.21-17.33.68-34.68.32-52.01.35 6.01-16.72 13.22-32.99 19.54-49.6.75-2.13 1.8-4.14 3.1-5.99 8.53 17.26 16.4 34.85 25.05 52.06 6.99-16.31 14.45-32.4 21.45-48.7zm33.89-2.58c12.42.08 24.86-.29 37.28.22l.08 3.8c-12.21.23-24.43.11-36.64.01-.18-1-.54-3.02-.72-4.03zm3.02 8.13c11.31-.19 22.64-.31 33.95 0 2.05-.08 1.34 2.71 1.75 4.01-11.46.27-22.92.08-34.37.1-.45-1.37-.89-2.74-1.33-4.11zm3.26 7.98c7.56-.28 15.13-.08 22.69-.13 3.51.04 7.09-.31 10.51.71-.07 1.14-.13 2.28-.18 3.42-10.49 1.09-21.15 1.27-31.64.19-.46-1.4-.92-2.8-1.38-4.19zm3.71 7.92c9.58.03 19.19-.34 28.76.2-.06 1.02-.18 3.06-.25 4.08-9.24.14-18.48.18-27.72-.03-.26-1.42-.52-2.84-.79-4.25zm3.07 8.21c8.16-.11 16.33-.11 24.49-.03 0 1.33.01 2.66.03 3.99-7.65.42-15.31.1-22.96.2-.51-1.39-1.04-2.78-1.56-4.16zm3.98 8.12c5.68.12 11.37-.14 17.05.06 2.71-.13 1.83 4.16-.4 3.88-5.37.32-10.77.13-16.15.06-.16-1.34-.33-2.67-.5-4z"/></g></svg>