<svg width="200pt" height="200pt" viewBox="0 0 200 200" xmlns="http://www.w3.org/2000/svg"><g fill="#d6104c"><path d="M63.53 28.14C75.82 20.45 90.55 16.86 105 17.41c10.99-.39 21.93 2.36 32.04 6.52 7.43 3.98 14.97 8.05 21.31 13.67 3.62 3.89 7.99 7.14 10.81 11.71 5.6 8.46 11.67 17.17 13.75 27.26-11.46.2-22.91-.07-34.36.19-4.95-10.91-9.15-22.14-13.61-33.25-1.99-4.97-4.54-9.71-6.04-14.86-.6.03-1.2.06-1.79.08-5.67 14.54-12.22 28.71-17.9 43.24-1.25 3.13-2.49 6.29-4.22 9.2-2.62-.59-2.75-3.77-3.79-5.79-3.65-8.63-6.64-17.54-10.75-25.98-3.09-6.79-5.3-14.03-9.42-20.3-1.36 1.89-2.72 3.81-3.63 5.97-6.32 16.35-13.37 32.41-19.91 48.68-3.53 9.38-7.18 18.73-11.45 27.8-1.83 5.16-3.55 10.38-5.96 15.32-1.33 2.73-2.61 6.25-.79 9.06 4.03 6.33 9.11 11.93 12.88 18.43 1.26 2.12 2.92 4.72 5.81 4.19 31.89-.14 63.79-.12 95.68-.06 4.94-7.19 10.61-13.86 15.51-21.07 2.27-2.63.92-6.09.24-9.04 3.86-.09 7.72-.12 11.58.01-.45 5.29-3.88 9.54-6.49 13.94-9.9 17.17-26.5 30.14-45.29 36.27-5.25 1.66-10.63 3.2-16.19 3.12-10.19.1-20.56.67-30.52-1.93-7.05-2.05-13.95-4.78-20.06-8.91-6.82-3.66-12.93-8.5-18.38-13.97-4.5-5.62-9.08-11.25-12.65-17.52-4.13-7.32-6.88-15.35-8.44-23.59-2.1-7.78-1.56-15.89-1.42-23.85 1.19-8.95 3.02-17.97 7.14-26.08 4.47-8.54 9.51-16.96 16.37-23.82 5.71-5.18 11.55-10.38 18.47-13.91z"/><path d="M72.47 78.29h2.22c3.57 10.23 8.19 20.05 12.22 30.1 3.38 7.88 6.58 15.85 10.23 23.61 1.98-3.35 3.57-6.91 4.88-10.57 5.33-13.63 11.19-27.06 16.47-40.71.36-1.21 1.18-1.75 2.48-1.61 1.75 2.89 2.76 6.13 3.99 9.26 5.68 14.81 11.59 29.54 17.63 44.2-2.14.62-4.34.96-6.57.91-28.34-.12-56.68.11-85.02-.1 1.38-6.13 4.45-11.68 6.52-17.57 4.7-12.62 10.75-24.72 14.95-37.52zm77.34 2.45c9.41-.15 18.83-.03 28.24-.11 2.58-.11 5.12.36 7.63.93-.28 1.28-.57 2.56-.89 3.84-9.95-.08-19.9.01-29.85-.04-1.94.16-3.68-.77-5.34-1.63l.21-2.99zm3.54 8.66c11.08-.08 22.18-.18 33.27.07-.08.99-.16 1.98-.23 2.97-10.86 0-21.73.24-32.59-.09l-.45-2.95zm3.04 7.08c10.31.07 20.62-.14 30.92.15.05 1.08.11 2.17.17 3.26-4.1.9-8.32.59-12.48.62-6.12 0-12.23.07-18.34-.12l-.27-3.91zm3.17 8.16c8.95-.13 17.91-.09 26.87 0 .33 1.23.68 2.45 1.05 3.67-9.29.24-18.58.29-27.86.02l-.06-3.69zm2.24 8.18c7.95-.79 15.96-.32 23.94-.31-.24 1.3-.47 2.61-.72 3.91-6.3-.19-12.6.02-18.9-.1-2.22.31-3.1-2.15-4.32-3.5zm4.58 6.73c5.75.15 11.51.17 17.26.05-.05 1.32-.09 2.63-.13 3.94-5.7.11-11.4.09-17.1.02l-.03-4.01z"/></g></svg>