<svg width="200pt" height="200pt" viewBox="0 0 200 200" xmlns="http://www.w3.org/2000/svg"><path fill="#e80016" d="M103.26 0h8.34c19.64 1.16 39.14 8.32 54 21.38 10.58 9.26 18.75 21.7 21.4 35.64 1.85 10.49.81 21.55-3.43 31.36-.03.06-.09.19-.11.25-4.67 10.72-15.53 18.08-26.98 19.55-8.41.68-17.17-.73-24.59-4.85 6.51 1.58 13.44 3.17 20.03 1.04 9.4-2.56 16.28-11.74 16.88-21.36 1.08-12-4.41-23.74-12.42-32.41-9.12-9.67-22.31-14.7-35.39-15.74-18.49-1.41-37.5 4.46-51.81 16.31-12.91 10.64-21.55 26.3-23.68 42.9-2.13 14.71.87 30.11 8.24 43.02 10.52 18.64 30.18 31.73 51.41 34.4 15.92 2.25 32.39-1.22 46.46-8.87 20-10.84 34.64-30.24 41.33-51.81 1.38-4.45 1.59-9.13 2.39-13.69-.05-1.58 1.46-2.21 2.72-2.61 4.34 22.99-2.53 48.47-20.21 64.31-5.18 4.42-7.94 10.76-11.85 16.18-7.37 10.98-18.65 18.8-30.83 23.59-2.11.73-4.33 1.12-6.53 1.41h-9.94c-13.19-1.8-26.29-4.87-39.66-4.82-10.02-.74-20.68.38-29.97-4.21-10.17-5.25-15.42-16.09-19.87-26.07-7.5-18.05-18.39-34.37-28.46-51.03-.73-2.88.32-5.94.48-8.87C4.36 77.18 15.58 49.56 35.9 29.85 53.9 12.42 78.13 1.2 103.26 0z"/><path d="M95.97 59.9c12.35-6.11 27.37-6.21 39.95-.69 11.24 4.95 20.62 14.28 25.08 25.78-8.92 3.77-17.95 7.31-26.88 11.07-1.18.27-2.59 1.52-3.73.56-4.91-4.18-8.92-9.34-13.95-13.39-6.43 6.73-13.21 13.12-19.65 19.84.77 1.23 1.64 2.42 2.72 3.4 5.67 5.41 11.06 11.09 16.7 16.52 5.67-3.71 9.69-9.47 14.9-13.79 9.92 4.1 19.82 8.28 29.79 12.27-4.55 12.73-15.65 22.52-28.17 27.16-12.25 4.18-26.24 3.56-37.77-2.51-18.73-9.05-29.93-31.39-25.57-51.81 2.69-14.83 12.85-28.13 26.58-34.41zm87.49 28.73z" fill="#cdc8ce"/></svg>