<svg width="200pt" height="200pt" viewBox="0 0 200 200" xmlns="http://www.w3.org/2000/svg"><path fill="#dd0514" d="M138.54 15.1c2.05-.66 4.09.43 6.09.82 7.16 1.76 12.5 7.16 18.37 11.26 7.06 5.31 15.28 10.85 17.25 20.09.32 4.27.76 8.77-.66 12.91-3.11 8.84-4.98 18.05-7.96 26.93-.43 8.23-.48 16.52.02 24.74 3.29 9.62 5.5 19.57 8.64 29.24.44 5.24.8 10.88-2.03 15.57-3.44 7.13-10.84 10.86-16.33 16.15-5.68 4.02-11.13 8.84-18 10.65-3.96.23-8.3.79-11.86-1.38-9.7-4.51-15.57-13.89-23.44-20.71-3.6-3.07-6.37-7.03-10.17-9.87-3.07-.8-5.25 1.85-7.39 3.57-6.82 6.51-13.23 13.44-20.26 19.73-3.76 3.46-7.64 7.12-12.66 8.6-3.04.37-6.14.35-9.17-.05-8.16-2.79-14.27-9.18-21.28-13.91-6.78-4.35-13.06-10.51-15.09-18.53-.28-4.3-.66-8.84 1.15-12.88 3.55-8.82 6.04-18.04 7.64-27.41.37-6.2.15-12.42.15-18.63.11-4.88-1.66-9.49-2.57-14.22-1.32-6.54-4.07-12.64-6.14-18.95-2.63-10.97 3.64-22.06 12.71-28.01 7.31-4.56 13.5-10.84 21.23-14.7 7.36-1.88 15.66-.4 21.25 5.02 8.2 8.08 16.29 16.3 24.44 24.44 1.66 2.48 5.65 3.03 7.52.5 8.39-8.26 16.61-16.7 25.39-24.55 3.42-3.74 8.31-5.48 13.16-6.42M49.37 43.43c-3.65 2.22-7.11 4.8-10.3 7.64-2.77 2.1-1.44 6.04-.67 8.84 2.97 8.92 4.44 18.22 6.77 27.31.32 4.27 1.33 8.48 1.36 12.78-.2 12.34-4.16 24.13-7.25 35.98-1.11 3.4-2.05 6.88-1.83 10.5a86.43 86.43 0 0 0 11.87 9.18c2.55 1.64 6.21 1.15 8.16-1.21 4.96-4.7 9.66-9.66 14.52-14.45 2.6-2.73 6.4-5.21 5.7-9.51-4.01-3.7-7.74-7.7-11.94-11.2-4.95-4.09-8.89-9.45-10.92-15.57-1.17-5.79.71-11.94 4.44-16.43 5.19-7.11 12.57-12.16 18.04-19 .46-1.57.61-3.65-.85-4.75-5.25-5.45-10.94-10.47-15.69-16.37-2.72-3.05-7.35-6.24-11.41-3.74M117.94 63c-2.21 1.73-2.13 5.25-.33 7.25 5.31 6.71 12.56 11.68 17.52 18.69 3.92 5.21 4.84 12.84 1.44 18.53-2.97 6.36-8.89 10.54-13.29 15.85-3.03 3.39-9.13 7.04-6.3 12.27 5.43 6.04 11.45 11.55 17.16 17.34 2.38 2.86 6.3 3.39 9.73 2.43 4.19-2.59 8.08-5.71 11.58-9.17.63-2.72.24-5.58-.78-8.14-3.57-10.09-5.72-20.6-7.94-31.05-1.28-13.9 2.58-27.53 6.08-40.83.87-3.76 2.83-7.31 2.8-11.23.33-2.38-2-3.69-3.42-5.2-2.66-2.14-4.97-4.89-8.17-6.24-2.36-.26-4.74-.07-7.11-.08-6.09 6.76-12.66 13.04-18.97 19.58m-22.5 22.58c-4.42 4.38-9.92 7.98-13.12 13.4 1.74 5.53 6.94 8.93 10.75 13.01 1.67 2.13 5.27 2.31 6.91.06 3.42-3.63 7.32-6.82 10.46-10.71 1.41-4.8-3.9-7.19-6.44-10.33-2.62-2.07-4.59-6.59-8.56-5.43z"/></svg>