<svg width="200pt" height="200pt" viewBox="0 0 200 200" xmlns="http://www.w3.org/2000/svg"><path fill="#c93b3d" d="M96.39 4.49c11.79-2.14 22.07 5.55 33.51 6.68 16.88 8.42 31.79 19.91 42.08 35.93 2.77 7.46-4.83 11.02-10.15 13.79-9.47 4.38-19.42 7.7-29.39 10.66-2.62 2.46-5.46.75-7.51-1.49-9.96-6.04-14.79-20.96-27.93-20.09-4.07.9-7.64 3.53-10.6 6.43-10.02 13.17-25.03 22.3-33.11 36.9-.62 7.4 5.63 13.12 10.94 17.48 3.94 8.36 13.53 11.62 18.45 19.53 6.28 5.2 13.24 15.91 22.31 8.67 19.02-21.45 52.3-5.82 73.4-23.6 4.37-4.82 6.7 4.34 3.17 7.22-4.26 3.68-2.84 9.78-5.85 14.18-10.28 18.2-25.56 35.7-46.07 41.79-25.77 14.71-57.75 6.15-80.55-9.62-6.45-3.84-9.9-11.05-16.54-14.42-4.3-9.86-13.9-17.43-14.14-28.89-10.56-17.59-8.86-40.81-.86-59.06 8.9-34.97 43.65-58.7 78.84-62.09z"/><path fill="#4b935c" d="M176.69 64.13c10.52 11.39 7.48 29.78-.57 41.99-8.74 4.49-17.7 10.64-28.12 8.87-9.76-.93-19.04 4.19-28.75 2.81-4.96-3.85-.19-10.6.89-15.54.7-10.05 9.1-15.74 16.5-20.67 13.79-4.72 28.03-8.95 40.05-17.46z"/></svg>