<svg width="264" height="200pt" viewBox="0 0 198 200" xmlns="http://www.w3.org/2000/svg"><g fill="#c8371a"><path d="M84.87 29.87c5.83-2.04 12.07-1.41 18.12-1.59 17.98-.53 35.47 8.21 47.29 21.51 4.93 6.26 9.95 13.08 11.43 21.08.15 2.97-.05 5.94-.4 8.88-1.71-4.1-3.3-8.37-6.42-11.64-1.87-1.84-1.79-4.56-2.09-6.97-1.98-.62-4.05-1.06-5.88-2.08-3.05-2.23-4.51-6.42-8.33-7.6-4.39-1.32-8.4-3.59-12.45-5.68-3.15-1.68-5.7-4.25-8.83-5.95-8.13-4.37-17.03-7.71-26.34-8.1-2.14-.25-4.79.34-6.1-1.86z"/><path d="M70.42 37.51c10.09-2.24 21.17-3.22 30.86 1.14-8.87.69-17.22 3.79-25.79 5.92-5.69 1.28-10.69 4.37-15.32 7.8 1.44.5 2.88 1 4.33 1.49-5.8 2.37-11.64 4.97-16.34 9.22-9.08 7.2-16 16.59-21.77 26.55-.22-2.61-.37-5.24.04-7.84 1.93-6.61 4.65-13.13 8.6-18.79 4.64-5.01 8.58-10.77 14.16-14.83 6.44-4.62 13.45-8.77 21.23-10.66zm95.85 37.27c.61-.89 1.23-1.78 1.85-2.67 2.03 5.69 4.76 11.18 5.84 17.17 3.77 15.75 1.06 32.83-6.96 46.85-6.64 11.48-17.45 20.4-29.78 25.14-2.99 1-6.03 2.13-9.23 2.12 3.36-2.96 8.1-3.89 11-7.4 4.87-5.46 10.48-10.23 15.25-15.78 2.61-2.83.49-6.41-.94-9.2 4.88-7.14 10.37-14.32 11.86-23.07 2.79-10.8 3.24-22.2 1.11-33.16z"/><path d="M32.08 88c4.36-5.03 7.3-11.5 13.19-15.01-4.44 8.32-9.87 16.19-13.07 25.14-.95 2.2.61 4.31 1.31 6.33 3.38 6.98 1.63 15.18 4.9 22.21 3.45 7.64 4.91 16.17 9.65 23.21 3.13 4.81 5.91 9.94 10 14.03 2.31 2.38 4.84 4.64 6.37 7.66-3.17.07-5.52-2.28-8.05-3.82-15.7-10.22-27.28-27.02-29.85-45.71-.61-11.51-.7-23.88 5.55-34.04z"/><path d="M57.03 152.57c5.98 4.21 10.85 9.72 16.47 14.36 6.75-2.06 13.13 1.82 19.78 2.37 4.93.67 9.8-.82 14.72-.77 4.72.02 9.44.45 14.16.07-7.25-.87-15.04.56-21.67-3.26 6.15.83 12.27 2.33 18.52 2.12 8.06-.28 16.14-1.71 23.51-5.08 3.5-1.36 6.58-3.91 10.43-4.16-1.24 2.88-3.95 4.56-6.34 6.38-4.09 2.97-7.93 6.44-12.69 8.34-4.56 1.81-8.93 4.29-13.84 5.03-13.39 2.75-27.94 2.41-40.37-3.75-4.08-2.1-8.53-3.85-11.78-7.21-3.77-4.71-9.2-8.37-10.9-14.44z"/></g><g fill="#ce5e18"><path d="M43.62 51.63c9.81-8.74 22.09-15.36 35.35-16.44 8.48-1.54 17.15.16 25.27 2.66 12.16 3.5 22.39 12.54 27.89 23.87 3.5 7.26 6.22 15.27 5.27 23.44-2.46-2.45-4.09-5.56-6.21-8.29-6.45-8.41-15.23-14.75-24.56-19.61-13.02-5.19-27.88-6.47-41.32-2.09-6.1 1.76-11.24 5.69-17.15 7.91 4.7-4.25 10.54-6.85 16.34-9.22-1.45-.49-2.89-.99-4.33-1.49 4.63-3.43 9.63-6.52 15.32-7.8 8.57-2.13 16.92-5.23 25.79-5.92-9.69-4.36-20.77-3.38-30.86-1.14-7.78 1.89-14.79 6.04-21.23 10.66-5.58 4.06-9.52 9.82-14.16 14.83 1.7-4.53 5.24-8.01 8.59-11.37z"/><path d="M126.14 45.78c4.05 2.09 8.06 4.36 12.45 5.68 3.82 1.18 5.28 5.37 8.33 7.6 1.83 1.02 3.9 1.46 5.88 2.08.3 2.41.22 5.13 2.09 6.97 3.12 3.27 4.71 7.54 6.42 11.64.35-2.94.55-5.91.4-8.88 4.05 8.52 3.38 18.49 1.65 27.52-1.17 8.02-5.96 14.86-10.94 21.01-6.25 6.06-13.05 11.91-21.16 15.32.25-4.07 4.1-6.22 5.89-9.54 2.02-3.55 4.23-6.99 6.23-10.55 6.17-15.84 5.74-34.45-2.6-49.45-3.43-7.48-9.52-13.13-14.64-19.4zM47.06 69.11c12.48-9.44 29.32-11.8 44.29-8.01.99.54 1.78 1.36 2.64 2.09-8.02.17-15.76 2.94-22.26 7.57-16.44 8.02-26.68 25.49-29.1 43.23-.19 4.28-1.5 8.54-.78 12.84.92 5.24 1.6 10.59 3.6 15.56.97 2.46 1.9 4.94 2.61 7.49-4.74-7.04-6.2-15.57-9.65-23.21-3.27-7.03-1.52-15.23-4.9-22.21-.7-2.02-2.26-4.13-1.31-6.33 3.2-8.95 8.63-16.82 13.07-25.14-5.89 3.51-8.83 9.98-13.19 15.01 2.8-7.74 8.7-13.81 14.98-18.89zM23.78 96.99c-.65-5.24.49-10.44 2.65-15.2-.41 2.6-.26 5.23-.04 7.84.48 2.77-1.33 5.09-2.61 7.36z"/><path d="M55.73 98.62c.47-.13 1.42-.39 1.9-.52-.63 9.9.86 19.78 3.38 29.33 1.88 5.33 4.6 10.34 7.53 15.15 7.77 10.87 19.48 18.36 31.95 22.76 6.63 3.82 14.42 2.39 21.67 3.26-4.72.38-9.44-.05-14.16-.07-4.92-.05-9.79 1.44-14.72.77-6.65-.55-13.03-4.43-19.78-2.37-5.62-4.64-10.49-10.15-16.47-14.36 1.7 6.07 7.13 9.73 10.9 14.44-10.32-7.18-17.5-18.7-19.74-31.04-2.45-12.85.89-26.24 7.54-37.35z"/><path d="M160.84 116.75c1.45-2.93 2.36-6.14 4.32-8.81-1.49 8.75-6.98 15.93-11.86 23.07 1.43 2.79 3.55 6.37.94 9.2-4.77 5.55-10.38 10.32-15.25 15.78-2.9 3.51-7.64 4.44-11 7.4-2.25 1.74-5.35.91-7.99 1.17-10.67.56-21.31-3.3-29.61-9.92-3.19-2.5-6.06-5.37-9.3-7.8.45-.41 1.35-1.22 1.8-1.62 5.55.97 10.91 2.77 16.4 4 5.18.41 10.41.24 15.6.1 11.84-1.89 23.74-6.41 32.2-15.2 5.63-4.87 10.21-10.84 13.75-17.37z"/></g><path fill="#f7d708" d="M94.42 81.74c6.66-.99 13.95-.05 18.96 4.83 10.09 7.63 10.99 24.08 2.18 33.01-3.74 4.3-9.55 5.83-14.95 6.75-7.47.07-15.26-2.97-19.56-9.33-4.35-4.86-3.84-11.74-3.45-17.78.53-3.65 2.17-7.19 4.83-9.78 3.34-3.4 6.92-7.25 11.99-7.7z"/></svg>