<svg width="203pt" height="203pt" viewBox="0 0 203 203" xmlns="http://www.w3.org/2000/svg"><path d="M83 15.51c4.33-.01 8.67-.01 13 0-.01 4.42 0 8.83-.02 13.25-4.32-.02-8.64-.03-12.96 0-.02-4.42-.01-8.83-.02-13.25zm15.76.01c4.29-.01 8.58.04 12.87-.07.18 4.42.07 8.85.1 13.28-4.31-.01-8.63-.01-12.94.01-.05-4.41-.03-8.81-.03-13.22zm15.73-.03c4.44.01 8.89-.07 13.33.08-.08 4.4-.03 8.79-.05 13.19-4.39.03-8.78-.04-13.17.09-.22-4.45-.09-8.9-.11-13.36zM52.01 31.01h13.24c0 4.41 0 8.82-.01 13.23-4.41.01-8.82.01-13.23.01V31.01zm15.38.13c4.46-.26 8.93-.13 13.4-.11-.04 4.4-.03 8.81-.02 13.21-4.4.03-8.79-.01-13.19.06-.19-4.39.01-8.78-.19-13.16zM98.75 31c4.34 0 8.68-.01 13.02.02-.02 4.4-.01 8.81-.01 13.22-4.33.02-8.67.02-13.01.01-.01-4.42-.01-8.83 0-13.25zm31.26.01h12.98v13.24h-12.98V31.01zm15.22 0c4.44-.01 8.88-.05 13.31.04-.08 4.42.05 8.83-.12 13.25-4.4-.07-8.79-.04-13.18-.05-.01-4.42 0-8.83-.01-13.24zM52.07 46.45c4.4.09 8.81-.03 13.22.12-.06 4.29-.05 8.58-.01 12.88-4.45.08-8.89.12-13.34-.02.11-4.33 0-8.66.13-12.98zm-15.31.05c4.28-.01 8.57.07 12.85-.1.26 4.35.09 8.71.16 13.07-4.34.05-8.68.03-13.01.02-.01-4.33-.01-8.66 0-12.99zm46.27.02c4.31 0 8.62 0 12.94-.01-.01 4.34.03 8.68-.06 13.01-4.28-.06-8.55-.06-12.83 0-.08-4.34-.04-8.67-.05-13zm31.48-.01c4.37-.01 8.74.06 13.1-.1.22 4.39.2 8.78.01 13.17-4.37-.14-8.74-.08-13.11-.09-.01-4.33-.01-8.65 0-12.98zM130 46.5c4.33-.01 8.67-.01 13 0 0 4.32-.02 8.63.04 12.95-4.32.12-8.64 0-12.96.12-.15-4.36-.07-8.71-.08-13.07zm30.76.03c4.4-.02 8.8-.01 13.21-.02 0 4.33-.01 8.65.01 12.97-4.42-.01-8.84.06-13.25-.07.05-4.29.03-8.59.03-12.88zm-124 15.23c4.34 0 8.68-.07 13.02.07-.07 4.38-.04 8.76-.02 13.14-4.33.04-8.67.02-13.01.02 0-4.41 0-8.82.01-13.23zm15.25 0c4.41-.01 8.82-.01 13.23 0 .01 4.41.01 8.82.01 13.23C60.83 75 56.42 75 52 75c0-4.42 0-8.83.01-13.24zm15.48-.01c4.44 0 8.88-.06 13.31.05-.05 4.39-.03 8.78 0 13.18-4.44.05-8.88.02-13.31.02-.01-4.42-.01-8.84 0-13.25zm47.01 0c4.42-.01 8.84-.01 13.26.01 0 4.41-.01 8.82.01 13.23-4.42.02-8.85.01-13.27.01-.01-4.42-.01-8.83 0-13.25zm30.72.04c4.42-.07 8.83-.03 13.24-.06.09 4.4-.01 8.79.11 13.18-4.45.16-8.89.08-13.34.08.01-4.4.02-8.8-.01-13.2zm15.53-.04c4.42-.01 8.83-.01 13.25 0V75h-13.25c-.01-4.42-.01-8.83 0-13.25zm-139.5 15.5c4.43.01 8.86-.06 13.29.07-.07 4.39-.04 8.78-.04 13.18-4.39 0-8.78-.04-13.16.05-.16-4.43-.07-8.86-.09-13.3zm15.55-.03c4.32.03 8.64.01 12.96.03-.04 4.45.13 8.91-.15 13.36-4.28-.17-8.57-.09-12.86-.11 0-4.43-.04-8.85.05-13.28zm30.73.01c4.41.02 8.82.01 13.23.02.01 4.39-.03 8.79.04 13.18-4.43.13-8.86.06-13.3.07-.01-4.43-.03-8.85.03-13.27zm62.48 0c4.33.01 8.65.01 12.98 0 .02 4.42.01 8.85.01 13.27-4.33.01-8.67.01-13 0 0-4.42-.01-8.85.01-13.27zm15.26.04c4.43.04 8.87-.09 13.3.11-.14 4.37-.08 8.74-.09 13.1-4.37.01-8.73-.05-13.1.08-.2-4.43-.08-8.86-.11-13.29zM36.75 93c4.34 0 8.68-.01 13.02.01-.01 4.4-.01 8.81 0 13.21-4.34.06-8.68.04-13.02.03-.01-4.42-.01-8.83 0-13.25zM52 93h13.25c.01 4.42.01 8.83 0 13.25-4.42.01-8.83.01-13.25 0V93zm78 0h13c0 4.42 0 8.83-.01 13.24-4.33.01-8.66.01-12.98 0-.01-4.41-.01-8.82-.01-13.24zm15.24.02c4.44-.01 8.88-.09 13.32.07-.12 4.4.01 8.8-.14 13.19-4.39-.06-8.79 0-13.18-.07.02-4.4.01-8.8 0-13.19zm15.5-.02H174v13.26c-4.42 0-8.84 0-13.25-.01-.02-4.41-.01-8.83-.01-13.25zM21.22 108.82c4.4-.12 8.81-.03 13.21-.1.14 4.38-.01 8.77.16 13.15-4.45.23-8.9.11-13.35.11.01-4.39.04-8.78-.02-13.16zm15.53-.07c4.36.02 8.72-.1 13.07.11-.11 4.37-.06 8.74-.04 13.11-4.34.05-8.69.03-13.03.03-.01-4.42-.01-8.83 0-13.25zm30.76.01c4.41-.01 8.82-.01 13.24 0-.01 4.41-.02 8.81.01 13.22-4.42.03-8.83.01-13.25.02-.01-4.42-.01-8.83 0-13.24zm62.5 0c4.32-.01 8.65-.01 12.98 0 .01 4.41.01 8.82.01 13.24h-13c0-4.42 0-8.83.01-13.24zm46.21 0c4.34-.03 8.69-.02 13.03-.01.01 4.41.01 8.83.01 13.25-4.35 0-8.7.01-13.05-.01.01-4.41.01-8.82.01-13.23zM36.79 124.22c4.32.03 8.64.01 12.97.02.01 4.41-.01 8.82.03 13.22-4.35.08-8.69.05-13.04.04 0-4.43-.04-8.85.04-13.28zm15.21-.01c4.41.01 8.82.01 13.23 0 .06 4.4-.02 8.8.09 13.2-4.41.23-8.82.03-13.23.18-.17-4.46-.08-8.92-.09-13.38zm15.61-.04c4.38.14 8.76.07 13.14.08-.03 4.44.1 8.89-.12 13.33-4.37-.14-8.75-.07-13.13-.09.03-4.44-.09-8.88.11-13.32zm15.46.08c4.29.06 8.58.05 12.88.01.01 4.41.02 8.83-.02 13.25-4.28-.05-8.56-.06-12.84.01-.08-4.42-.05-8.85-.02-13.27zm31.36.13c4.43-.2 8.87-.08 13.3-.11-.01 4.39-.02 8.78.03 13.17-4.42.07-8.83.04-13.24.04-.01-4.37.05-8.73-.09-13.1zm15.6-.15c4.31.03 8.62.04 12.93-.01.05 4.45.11 8.9-.06 13.35-4.28-.11-8.56-.09-12.84-.04-.1-4.43-.07-8.86-.03-13.3zm15.21.01c4.46.03 8.91-.13 13.36.14-.16 4.37-.08 8.75-.09 13.12-4.45-.02-8.9.1-13.35-.1.13-4.39.06-8.77.08-13.16zm15.52 0c4.41 0 8.82 0 13.23-.01.01 4.44.05 8.87-.04 13.31-4.42-.09-8.85.08-13.27-.16.11-4.38.05-8.76.08-13.14zm-124 15.52c4.35.02 8.69-.09 13.03.1-.1 4.29-.05 8.58-.06 12.87-4.31 0-8.62-.01-12.93.02-.07-4.33-.04-8.66-.04-12.99zm46.24-.01c4.33-.01 8.67-.01 13 0 0 4.34.02 8.69-.03 13.03-4.32-.03-8.64-.03-12.96-.01-.02-4.34-.01-8.68-.01-13.02zm15.75 0c4.35 0 8.72-.08 13.07.08-.07 4.31-.03 8.62-.05 12.94-4.34.02-8.68.01-13.02.01-.02-4.35-.01-8.69 0-13.03zm46.51.04c4.41-.05 8.81-.03 13.22-.03 0 4.3-.02 8.61.04 12.91-4.42.1-8.83.04-13.25.06 0-4.31.01-8.63-.01-12.94zm-93.24 15.23c4.41.02 8.82.01 13.22.02v13.19c-4.4.01-8.8.01-13.2.01-.01-4.41 0-8.81-.02-13.22zm15.46.06c4.42-.08 8.85-.05 13.27-.03-.04 4.38-.03 8.77-.01 13.16-4.37.06-8.74-.01-13.11.09-.22-4.41-.05-8.81-.15-13.22zM83 155h13v13.25H83V155zm31.43.1c4.44-.18 8.89-.09 13.34-.09-.02 4.41-.01 8.82-.01 13.22-4.38.04-8.77-.02-13.15.08-.23-4.4-.04-8.81-.18-13.21zm15.58-.09h12.98v13.24h-12.98v-13.24zm15.24.01c4.42-.01 8.85-.05 13.28.04-.09 4.41.06 8.83-.14 13.24-4.4-.11-8.79.02-13.18-.14.08-4.38.04-8.76.04-13.14zM83 170.5c4.33-.01 8.67-.01 13 0 0 4.42.01 8.84-.01 13.27-4.33-.02-8.65-.02-12.98 0-.02-4.42-.01-8.85-.01-13.27zm15.75 0c4.35-.01 8.69-.04 13.04.05-.05 4.4-.03 8.8-.03 13.2-4.34.01-8.67.01-13 .01-.02-4.42-.02-8.84-.01-13.26z" fill="#e74125"/><path d="M83 31.01c4.33-.02 8.66-.02 12.99 0 .02 4.4.02 8.81 0 13.22-4.33.03-8.66.03-12.98 0-.02-4.41-.02-8.81-.01-13.22zm15.78 30.77c4.33-.03 8.66-.12 12.99.09-.04 4.35-.03 8.71.02 13.06-4.34.11-8.68.08-13.01.06-.05-4.41-.05-8.81 0-13.21zm31.23-.01c4.33-.03 8.65-.03 12.98 0 .02 4.41.02 8.81 0 13.22-4.32.02-8.65.02-12.98.01-.02-4.41-.02-8.82 0-13.23zM21.23 93.04c4.45-.04 8.91-.17 13.36.12-.21 4.38.1 8.77-.27 13.14-4.36-.1-8.73.03-13.08-.15.02-4.37.01-8.74-.01-13.11zM67.54 93c4.41-.01 8.83-.04 13.24.06-.04 4.36-.04 8.71-.01 13.07-4.41.21-8.82.11-13.23.1-.06-4.41-.06-8.82 0-13.23zm108.68.06c4.33-.09 8.67-.07 13-.05.04 4.41.05 8.81-.01 13.22-4.33.02-8.65.09-12.97-.08.02-4.37.02-8.73-.02-13.09zm-46.21 46.71c4.32-.03 8.65-.03 12.97-.01.04 4.35.06 8.69-.06 13.04-4.28-.07-8.57-.07-12.85-.01-.11-4.34-.08-8.68-.06-13.02zm-31.24 15.24c4.34-.02 8.67-.04 13 .04-.02 4.35-.04 8.71.01 13.07-4.33.22-8.67.12-13 .11-.05-4.41-.04-8.81-.01-13.22z" fill="#e096a5"/><path d="M114.55 44.27c.16-4.37-.54-8.98.26-13.2 4.31-.21 8.63-.01 12.95-.05-.02 4.4-.02 8.8 0 13.21-4.41.04-8.81.01-13.21.04zM67.51 46.5c4.38 0 8.76.05 13.13-.07.15 4.39.22 8.79-.04 13.18-4.37-.19-8.73-.1-13.09-.11-.01-4.33-.01-8.67 0-13zm77.67.09c4.44-.16 8.88-.07 13.31-.09.01 4.34.01 8.67 0 13-4.36.01-8.73-.07-13.1.1-.27-4.33-.06-8.67-.21-13.01zM52 108.75c4.42 0 8.83-.01 13.25 0V122H52v-13.25zm93.21.08c4.39-.16 8.79-.02 13.18-.14.21 4.4.03 8.81.17 13.22-4.44.16-8.89.09-13.33.06.03-4.38.05-8.76-.02-13.14zm15.55-.08H174V122c-4.42 0-8.83 0-13.25-.01 0-4.41-.01-8.82.01-13.24zm-46.25 31c4.42.01 8.85-.05 13.27.06-.06 4.31-.03 8.63-.03 12.94-4.44-.03-8.89.1-13.33-.11.13-4.3.07-8.59.09-12.89z" fill="#b50080"/><path d="M98.75 46.51c4.35 0 8.69-.04 13.04.04-.07 4.31-.04 8.62-.03 12.93-4.34.03-8.67.02-13.01.01V46.51zM83 61.75h13V75H83V61.75zm93.25 15.5h13v13.24c-4.35 0-8.7.05-13.05-.04.09-4.4.04-8.8.05-13.2zm-77.5 47h13c0 4.41-.01 8.82.02 13.22-4.34.04-8.68.03-13.02.02 0-4.41-.01-8.83 0-13.24zM52 139.75h13.25c0 4.34.01 8.67-.02 13.01-4.41-.02-8.81-.02-13.22 0-.02-4.34-.01-8.67-.01-13.01z" fill="#900000"/><path d="M52.05 77.22c4.39.04 8.78.03 13.17.03.05 4.41.04 8.81.02 13.22-4.41.05-8.82.04-13.24.01 0-4.42-.03-8.84.05-13.26zm108.77.01c4.38.03 8.76.02 13.15 0 .05 4.42.03 8.84.03 13.26-4.42.02-8.83.02-13.24-.01-.01-4.41-.06-8.83.06-13.25z" fill="#f9c053"/><path d="M67.51 139.75c4.42 0 8.83-.03 13.25.04-.02 4.32-.01 8.64-.01 12.96-4.46-.05-8.92.15-13.37-.17.2-4.27.11-8.55.13-12.83zm93.25 0H174c0 4.34.01 8.67-.02 13.01-4.41-.02-8.81-.01-13.22-.01-.02-4.33-.02-8.66 0-13z" fill="#f29600"/><path fill="#009f46" d="M114.51 170.5c4.43.02 8.87-.06 13.3.08-.1 4.39-.05 8.78-.06 13.17-4.41 0-8.81-.01-13.22.02-.05-4.42-.03-8.85-.02-13.27z"/></svg>