<svg width="200pt" height="199pt" viewBox="0 0 200 199" xmlns="http://www.w3.org/2000/svg"><g fill="#e8242c"><path d="M31.09 56.23c12.8-22.02 36.44-37.48 61.87-39.8 9.45-.13 19.11-.8 28.3 1.94 35.45 8.09 63.5 42.93 61.54 79.63 1.05 19.34-6.93 38.11-18.78 53.06 4.44 1.5 9.11 3 12.64 6.22 4.07 3.58 6.86 8.35 9.1 13.23-4.39-1.86-8.35-4.65-12.95-6-4.76-1.7-9.91-1.1-14.86-1.17-3.87-.09-7.83.55-11.17 2.61-14.62 9.44-32.29 14.86-49.76 13.38-6.12-2.12-12.08-6.69-13.32-13.4-.96-8.38 4.61-17.16 12.62-19.84 12.13-4.5 25.52-6.07 36.43-13.46 14.21-8.53 24.81-22.9 28.49-39.09 2.59-9.87.95-20.52-3.2-29.72-7.54-15-24.4-24.97-41.16-24.32 6.75 4.22 14.43 8.01 18.45 15.26 5.03 7.93 3.52 18.14-.25 26.26-2.41 5.7-7.31 9.86-12.53 12.95-.52-4.93.45-10.01-.97-14.82-.55-2.42-3.21-3.82-5.56-3.65-9.7-.08-19.4.03-29.1-.04-1.84.19-4.08-.36-5.49 1.13-2.01 1.84-2.86 4.68-2.8 7.35.06 8.08.11 16.17.01 24.25-9.03 1.66-18.36 3.92-25.61 9.9-8.72 6.07-14.43 15.21-20.01 24.02-6.09-8.17-9.21-18.01-11.65-27.78-3.99-19.65-.73-40.88 9.72-58.1z"/><path d="M140.75 52.51c5.36 3.16 8.87 8.67 11.28 14.26 4.13 9.78 1.74 20.89-2.23 30.31-3.92 9.15-10.57 17.23-19.08 22.44-9.84 5.82-21.21 8.12-32.21 10.66-8.76 1.82-17.73 4.65-24.57 10.66-4.62 3.99-7.86 9.49-9.23 15.43-.67 4.78-.32 9.64-.22 14.45-4.77-2.83-9.94-5.25-13.9-9.21-1.16-7.83.6-15.97 4.66-22.74 4.55-6.78 11.5-11.6 18.95-14.71 11.17-4.79 23.21-6.91 35.09-9.1 12.18-2.21 22.99-9.61 30.63-19.19 5.73-8.23 9.43-18.84 6.59-28.82-.97-5.17-4.19-9.49-5.76-14.44z"/></g></svg>