<svg width="200pt" height="200pt" viewBox="0 0 200 200" xmlns="http://www.w3.org/2000/svg"><g fill="#ec2f35"><path d="M117.46 19.56c3.41-.3 6.64 1.13 9.82 2.14 5.37 2.02 10.86 3.72 16.05 6.19 14.72 7.85 27.88 19.94 33.81 35.85 2.51 7.27 6.62 14.31 6.42 22.22-.03 7.35-.14 14.69.02 22.04.62 9.48-3.61 18.25-6.66 26.98-7.74 16.29-19.75 31.65-36.64 39.02-3.57 2.17-7.73 2.83-11.57 4.32-9.68 3.33-20.03 3.9-30.17 2.98-1.2-7.51 3.35-14.13 6.28-20.67 2.09-5.9 5.76-11.12 7.49-17.17 2.52-5.91 5.36-11.69 7.77-17.65 2.12-7.11 6.39-13.31 8.81-20.31 1.96-5.91 5.94-11.17 6.58-17.48-1.92-3.1-5.45-4.59-8.58-6.15-9.28-4.1-18.89-7.45-27.88-12.16-2.29-1.08-1.4-4.01-1.07-5.93 1.02-6.18 4.49-11.49 6.37-17.39 3.7-7.67 5.69-16.05 9.61-23.62.94-1.26 1.82-2.95 3.54-3.21z"/><path d="M63.47 25.62c6.67-2.33 13.58-3.96 20.43-5.68 6.52-.73 13.34-.84 19.7 1-2.78 10.61-7.94 20.38-12.43 30.32-6.04 16.67-14.61 32.24-21.32 48.63-2 4.38-4.64 8.47-6.2 13.05.77 3.47 4.93 4.41 7.76 5.72 7.64 2.21 13.91 7.5 21.55 9.73 3.24 1.04 6.57 2.2 9.17 4.48 1.73 5.55-.73 11.18-3.23 16.06-3.82 9.24-7.53 18.53-11.31 27.78-.99 2.05-2.21 4.79-4.83 4.93-5.19-.09-10.23-1.71-14.92-3.85-11.24-3.8-21.69-10.08-29.86-18.75-4.68-4.48-7.94-10.13-11.48-15.49-2.03-3.1-3.7-6.44-4.89-9.95-2.1-6.34-4.54-12.77-4.26-19.56.15-8.36-.07-16.72.03-25.07.89-7.58 4.29-14.53 6.89-21.63 2.35-4.95 4.7-9.93 7.56-14.62 7.98-11.59 19.27-20.57 31.64-27.1z"/></g></svg>