<svg width="200pt" height="199pt" viewBox="0 0 200 199" xmlns="http://www.w3.org/2000/svg"><g fill="#fefefe"><path d="M0 0h200v199H0V0m71.98 22.75c-10.63 5.59-19.2 14.17-27.69 22.51-4.1 3.57-7.38 7.93-11.32 11.66-4.66 5.12-8.24 11.29-10.22 17.94-1.42 7.37-.18 15.19 3.85 21.57 1.76 2.31-.25 5.09-.53 7.58-2.31 1.51-2.22 4.66-3.34 6.96-.34 4.48-.15 8.99-.22 13.49l.97.1c.02.68.05 2.04.06 2.72 2.73 3.47 4.22 7.73 7.05 11.13 3.87 4.49 7.65 9.06 11.77 13.33 3.95 4.04 8.87 6.99 12.64 11.24 6.9 6.45 14.31 13.24 23.91 15.1 6.44 1.15 13.79.67 19.08-3.55.38.03 1.14.1 1.52.13l.01-1.33c1.48.04 2.97.13 4.45.25 2.03 1.66 4.47 2.63 6.84 3.7 5.75 2.14 12.68 2.03 18.16-.75.37.03 1.1.07 1.46.1l.15-1.31c.38.06 1.14.17 1.52.22 6.63-3.55 12.19-8.56 17.57-13.72 4.89-4.9 11.53-8.35 15.08-14.38.35 0 1.05.02 1.4.03.91-2.65 3.16-4.45 4.84-6.59 3.69-4.2 6.48-9.03 9.16-13.91 1.4-4.88 1.27-10 1.01-15.01-.34-1.35-.69-2.68-.99-4.03-.65-1.35-1.29-2.7-1.95-4.04-.29-.7-.89-2.1-1.19-2.81-.28.17-.83.51-1.1.68l-.48-4.54.89.84c3.84-6.87 6.75-14.99 4.57-22.9-2.34-8.53-7.48-16.13-13.87-22.18-11.32-11.16-22.13-23.41-36.47-30.77-6.17-2.94-13.8-4.13-20.14-1.05-2.95 1.1-5.5 2.99-8.37 4.24-4.52-.48-7.79-4.5-12.23-5.43-6.03-1.23-12.45-.1-17.85 2.78z"/><path d="M72.42 70.34c2.5-.3 5-.61 7.53-.61 16.96.05 33.92.08 50.87-.03 0 19.61-.12 39.23.03 58.84-19.41-.15-38.82.18-58.22-.14-.19-19.35.19-38.71-.21-58.06z"/></g><path fill="#c963a6" d="M71.98 22.75c5.4-2.88 11.82-4.01 17.85-2.78 4.44.93 7.71 4.95 12.23 5.43 2.87-1.25 5.42-3.14 8.37-4.24 6.34-3.08 13.97-1.89 20.14 1.05 14.34 7.36 25.15 19.61 36.47 30.77 6.39 6.05 11.53 13.65 13.87 22.18 2.18 7.91-.73 16.03-4.57 22.9l-.89-.84c-6.37-6.17-12.44-12.76-19.66-17.97-7.26-4.53-15.14-9.21-24-9.05-.24-.64-.73-1.93-.98-2.57-1.75-5.27-2.88-10.82-5.66-15.69-3.9-7.1-8.43-14.14-15-19.06-2.73-2.01-5.01-4.75-8.14-6.14-1.99.5-3.41 2.15-4.97 3.38-3.24 3.05-7.17 5.44-9.71 9.17-2.17 3.19-5.08 5.91-6.54 9.54-2.76 6.89-7.11 13.21-8.37 20.64-9.19 1.38-17.66 5.65-25.45 10.52-5.25 3.66-9.35 8.62-14.17 12.77-2.16 2.14-5.92 4.61-3.52 8.08-.48.62-.98 1.23-1.5 1.83-.43.34-1.29 1-1.71 1.34.28-2.49 2.29-5.27.53-7.58-4.03-6.38-5.27-14.2-3.85-21.57 1.98-6.65 5.56-12.82 10.22-17.94 3.94-3.73 7.22-8.09 11.32-11.66 8.49-8.34 17.06-16.92 27.69-22.51z"/><path fill="#a83691" d="M97.04 30.12c1.56-1.23 2.98-2.88 4.97-3.38 3.13 1.39 5.41 4.13 8.14 6.14 6.57 4.92 11.1 11.96 15 19.06 2.78 4.87 3.91 10.42 5.66 15.69.01.52.01 1.55.01 2.07-16.95.11-33.91.08-50.87.03-2.53 0-5.03.31-7.53.61v-.87c1.26-7.43 5.61-13.75 8.37-20.64 1.46-3.63 4.37-6.35 6.54-9.54 2.54-3.73 6.47-6.12 9.71-9.17z"/><path d="M130.81 67.63c.25.64.74 1.93.98 2.57 8.86-.16 16.74 4.52 24 9.05 7.22 5.21 13.29 11.8 19.66 17.97l.48 4.54c-5.07 2.88-8.31 7.94-12.99 11.31-3.42 2.49-6.44 5.48-9.86 7.97-6.53 4.59-14.58 5.93-22.23 7.5-.15-19.61-.03-39.23-.03-58.84 0-.52 0-1.55-.01-2.07zM46.97 79.99c7.79-4.87 16.26-9.14 25.45-10.52v.87c.4 19.35.02 38.71.21 58.06l-3.04-.2c-8.28-1.41-16.1-5.02-22.76-10.11-6.94-4.4-12.31-10.77-19.05-15.42.52-.6 1.02-1.21 1.5-1.83-2.4-3.47 1.36-5.94 3.52-8.08 4.82-4.15 8.92-9.11 14.17-12.77z" fill="#4d4b9e"/><path fill="#059bd6" d="M175.93 101.76c.27-.17.82-.51 1.1-.68.3.71.9 2.11 1.19 2.81.66 1.34 1.3 2.69 1.95 4.04.3 1.35.65 2.68.99 4.03.26 5.01.39 10.13-1.01 15.01-2.68 4.88-5.47 9.71-9.16 13.91-1.68 2.14-3.93 3.94-4.84 6.59-.35-.01-1.05-.03-1.4-.03-3.55 6.03-10.19 9.48-15.08 14.38-5.38 5.16-10.94 10.17-17.57 13.72-.38-.05-1.14-.16-1.52-.22l-.15 1.31c-.36-.03-1.09-.07-1.46-.1-5.48 2.78-12.41 2.89-18.16.75-2.37-1.07-4.81-2.04-6.84-3.7-1.48-.12-2.97-.21-4.45-.25l-.01 1.33c-.38-.03-1.14-.1-1.52-.13-5.29 4.22-12.64 4.7-19.08 3.55-9.6-1.86-17.01-8.65-23.91-15.1-3.77-4.25-8.69-7.2-12.64-11.24-4.12-4.27-7.9-8.84-11.77-13.33-2.83-3.4-4.32-7.66-7.05-11.13-.01-.68-.04-2.04-.06-2.72l-.97-.1c.07-4.5-.12-9.01.22-13.49 1.12-2.3 1.03-5.45 3.34-6.96.42-.34 1.28-1 1.71-1.34 6.74 4.65 12.11 11.02 19.05 15.42 6.66 5.09 14.48 8.7 22.76 10.11 1.52 1.86 3.04 3.73 4.73 5.44.64 5.14 2.8 9.96 6.01 14 4.66 6.23 8.78 13.04 14.77 18.14 2.15 1.86 3.95 4.09 5.62 6.39 4.92-2.01 7.12-7.33 11.43-10.2 5.15-3.73 7.92-9.56 11.02-14.9 4.14-5.31 8.3-11.47 7.68-18.53 7.65-1.57 15.7-2.91 22.23-7.5 3.42-2.49 6.44-5.48 9.86-7.97 4.68-3.37 7.92-8.43 12.99-11.31z"/><path fill="#0375ba" d="m69.59 128.2 3.04.2c19.4.32 38.81-.01 58.22.14.62 7.06-3.54 13.22-7.68 18.53-3.1 5.34-5.87 11.17-11.02 14.9-4.31 2.87-6.51 8.19-11.43 10.2-1.67-2.3-3.47-4.53-5.62-6.39-5.99-5.1-10.11-11.91-14.77-18.14-3.21-4.04-5.37-8.86-6.01-14-1.69-1.71-3.21-3.58-4.73-5.44z"/></svg>