<svg width="199pt" height="200pt" viewBox="0 0 199 200" xmlns="http://www.w3.org/2000/svg"><path fill="#0265fd" d="M98.36 1.3c5.21-.75 9.66 2.89 14.02 5.16 14.13 7.69 27.17 17.28 39.03 28.13 7.81 6.59 14.85 14.12 20.84 22.4-7.24-2.49-14.88-3.13-22.39-4.4-9.68-.5-19.46-.51-28.98 1.57-7.51.45-14.22 4.14-21.07 6.87-10.07 5.2-19.5 12.61-24.87 22.79-3.86 6.54-3.91 14.43-3.34 21.78.21 3.35 1.65 6.48 3.52 9.22 2.39 3.51 5 7.06 8.69 9.3 2.67 1.62 5.39 3.15 7.98 4.89-11.27 4.35-23.54 3.91-35.4 3.49-7.78-.63-15.28-2.98-22.76-5.06-11.05-4.26-21.61-10.68-29.06-20.05-2.45-3.11-4.76-7.39-2.56-11.28 17.98-35.99 46.67-66.42 81.14-87.1 5.12-2.47 9.72-6.07 15.21-7.71z"/><path fill="#cca934" d="M105.81 70.89c7.33-2.98 15.25-4.28 23.14-4.42 7.87-.09 15.83-.27 23.55 1.53 9.96 2.31 20.13 5.02 28.64 10.95 7.1 4.53 13.43 10.4 17.86 17.61v8.53c-5.46 7.39-9.29 15.83-14.71 23.26-7.03 10.98-16.08 20.45-24.93 29.96-10.37 10.1-21.17 19.98-33.74 27.3-4.07 2.28-8.39 4.11-12.21 6.8-4.03 2.86-8.27 5.44-12.71 7.59h-1.42c-3.47-1.93-6.87-3.99-10.35-5.89-6.52-3.82-14.14-5.97-19.46-11.6-12.29-10.32-24.98-20.31-35.63-32.38-1.17-1.37-1.46-3.2-1.98-4.86 7.74-.08 15.24 2 22.92 2.55 8.22 1.25 16.45-.57 24.56-1.82 15.91-2.68 31.38-10.26 41.55-23.05 4.03-5.88 7.91-12.54 7.72-19.91-.03-4.71.48-9.69-1.59-14.07-1.92-4.13-4.63-7.93-8.07-10.92-3.84-3.26-8.58-5.17-13.14-7.16z"/></svg>