<svg width="200pt" height="200pt" viewBox="0 0 200 200" xmlns="http://www.w3.org/2000/svg"><path fill="#d9261d" d="M70.38 48.44c7.94-3.27 16.21-5.94 24.77-6.88 6.29-.21 12.61-.23 18.89.2 19.49 3.75 37.95 14.18 49.97 30.15 3.71 5.51 7.5 11.06 9.85 17.31 1.25 3.25.84 6.81.92 10.22-8.57 4.58-17.17 9.33-26.61 11.86-5.83 1.99-13.15 4.27-18.58.18-5.38-3.55-9.13-8.91-13.85-13.22-3.68-3.35-6.59-7.67-11.01-10.13-2.37-1.56-4.97.36-6.89 1.74-8.33 6.98-14.57 16.34-23.74 22.33-5.47 1.39-10.79-1.25-16.14-2.03-6.03-.98-11.86-2.79-17.77-4.28-2.97-.86-6.77-.62-8.74-3.39-3.19-3.37-2.27-8.58-.38-12.36 4.38-10.24 10.59-19.71 18.45-27.62 6.4-5.43 13.02-10.87 20.86-14.08z"/><path fill="#e0aa1f" d="M153.47 114.06c6.62-3.32 13.34-6.63 19-11.5.98 6.42-1.34 12.69-3.77 18.52-3.59 7.8-6.76 15.78-10.26 23.63-1.92 4.27-4.62 8.15-6.31 12.54-1.08 2.55-2.08 5.52-4.7 6.9-3.44.6-6.96.25-10.43.32-24.34.02-48.68.07-73.01-.01-4.57.55-6.87-4.07-8.75-7.4-2.66-5.61-6.12-10.81-8.48-16.56-1.44-3.48-3.06-6.88-4.92-10.15-4.48-8.04-7.79-16.66-10.65-25.39 6.29.91 11.33 4.96 16.98 7.49 5.05 2.24 9.88 5.12 15.28 6.47 10.06 2.33 20.06 5.9 30.52 5.53 7.62-.11 15.25.26 22.86-.15 12.55-1.91 25.13-4.72 36.64-10.24z"/></svg>