<svg width="264" height="200pt" viewBox="0 0 198 200" xmlns="http://www.w3.org/2000/svg"><path fill="#e81d27" d="M59.06 40.44c11.23-4.09 23.36-3.92 35.07-5.48 6.35-1.08 12.57 1.25 18.88 1.54 10.81.19 21.3 3.25 31.48 6.63 3.41.96 5.88 3.6 8 6.3-6.55.6-12.94-1.37-19.48-1.09-8.66-.36-17.33 1.03-25.55 3.73-9.89 3.26-18.26 9.67-26.61 15.69-4 2.84-8.56 4.75-12.58 7.56-6.5 4.47-12.83 9.19-19.38 13.6-4.29 2.76-8.94 5.93-10.32 11.17.64 4.22 3.2 8.27 6.96 10.39 12.55 7.62 24.21 16.57 36.37 24.76 1.66.79 1.89 2.55 1.49 4.18-2.54 3.35-6.74 4.8-10.51 6.28-6.67 2.64-13.95 1.54-20.93 1.77-12.29-.25-23.05-6.99-32.87-13.72-8.79-6.73-13.17-17.12-19.08-26.12V88.59C4.02 84.9 5.58 79.58 8.25 75c3.53-6.44 9-11.44 14.59-16.07 10.2-9.24 23.32-14.29 36.22-18.49z"/><path fill="#0859a4" d="M104.47 70.26c8.08-5.03 15.8-11.67 25.57-12.87 6.49.02 13.19-.74 19.47 1.27 4.57 1.2 8.79 3.4 13.25 4.92 4.91 1.71 8.66 5.45 12.87 8.36 7.55 4.71 13.31 12.11 16.6 20.34 2.78 8.43 3.29 17.97-.27 26.26-4 10.67-11.14 20.11-20.1 27.13-6.19 4.14-12.17 8.65-18.86 11.97-10.57 4.47-21.63 7.86-32.97 9.66-14.02.02-28.05.02-42.08 0-9.54-1.3-18.72-4.35-27.86-7.31-3.11-1.09-6.57-2.17-8.38-5.18 3.94-1.08 7.97.25 11.88.78 8.72 1.77 17.69.78 26.37-.67 8.95-1.92 17.88-5.06 25.04-10.93 11.14-7.48 22.12-15.21 33.15-22.86 5.48-3.88 10.45-8.51 16.33-11.82.9-3.08 1.44-6.33.88-9.53-2.63-5.08-8.2-7.3-12.53-10.61-5.15-3.99-10.18-8.57-16.58-10.44-5.27-.92-10.74-.49-15.89.94.2 1.85-.33 4.21 1.64 5.28 5.47 3.94 11.24 7.44 16.89 11.12 2.31 1.88 5.84 4.3 4.36 7.76-3.77 4.22-9.22 6.36-13.51 9.97-5.72 4.7-12.34 8.15-17.93 13.01-1.56 1.56-3.95 2.45-6.03 1.37-6.42-3.71-12.09-8.56-18.33-12.54-3.71-2.12-6.01-5.96-9.76-8.03-2.58-1.55-6.48-3.27-5.15-7 2.18-3.83 6.47-5.68 9.9-8.21a362.48 362.48 0 0 0 32.03-22.14z"/></svg>