<svg width="200pt" height="200pt" viewBox="0 0 200 200" xmlns="http://www.w3.org/2000/svg"><path fill="#353a74" d="M96.07 20.24c16.97-8.39 37.25-9 55.16-3.38 22.61 6.95 37.92 33.23 30.77 56.17-2.82 9.54-8.53 17.96-15.29 25.15 12.1 8.5 21.28 21.94 22.5 36.91.78 10.15-1.95 20.44-6.84 29.3-8.27 12.21-21.82 20.4-36.21 23.13-7.96 1.61-16.11 1.28-24.17 1.31-35.74.02-71.48-.04-107.21.03-.01-17.4-.02-34.81 0-52.21 12.26 16.09 29.98 28.52 50.13 32.01 23.21 4.03 47.48-4.42 64.85-19.92 5.02-4.4 9.92-9.38 12.33-15.74-7.15 6-13.05 14.15-21.98 17.62 9.81-9.58 19.51-20.85 21.79-34.82-7.83 15.38-19.52 29.94-36.08 36.26 1.92-2.47 4.58-4.18 6.83-6.32 6.97-6.41 13.59-13.33 18.78-21.29 3.14-4.77 5.53-10.1 6.28-15.79-1.41 1.46-2.76 3.01-4.4 4.24 1.84-8.99 3.37-18.79-.35-27.52-.63 8.99-1.86 18.05-5.01 26.55-1.92 4.89-4.78 10.12-10.02 12.01 5.74-8.21 11.43-18.63 7.45-28.83-3.39 7.85-7.42 15.63-13.7 21.6-7.92 8.08-19.49 12.36-30.75 11.25-11.11-.63-21.2-7.54-27.15-16.73-13.61-20.87-9.02-50.69 8.88-67.62 9.99-9.26 21.07-17.51 33.41-23.37z"/><path fill="#ce0926" d="M14.93 16.24c21.09.26 42.2-.29 63.27.26-25.06 9.39-45.65 29.16-57.87 52.79-2.13 3.84-3.46 8.06-5.6 11.89.19-21.65-.02-43.3.2-64.94z"/></svg>