<svg width="200pt" height="200pt" viewBox="0 0 200 200" xmlns="http://www.w3.org/2000/svg"><path d="M34.59 39.62c14.37-11.3 31.93-18.81 50.15-20.63 0 2.02 0 4.04.02 6.07.02 11.19.06 22.39-.08 33.59-10.24-.01-20.48-.29-30.72.14 1.77 8.44 3.9 16.86 4.47 25.49.78 14.14.41 28.47-2.91 42.29-3.62 15.19-9.69 29.89-18.46 42.84-13.84-10.33-25.02-24.54-30.53-41C2.34 116.8 1.68 104.17 3.19 92c3.19-20.67 15-39.56 31.4-52.38zm79.24-20.87c21.99 2.79 43.2 12.77 58.76 28.66 12.54 12.8 21.27 29.67 22.95 47.62.5 10.29.54 20.83-2.71 30.73-5.08 17.58-16.85 32.51-31.16 43.62-16.77-24.08-23.98-54.31-21.71-83.43.57-9.19 2.86-18.14 4.46-27.18-10.14-.37-20.3-.16-30.45-.1-.57-13.3-.13-26.62-.14-39.92z" fill="#e60000"/><path fill="#b3b3b4" d="M112.97 24.79c.28-2.02.57-4.03.86-6.04.01 13.3-.43 26.62.14 39.92 10.15-.06 20.31-.27 30.45.1-1.6 9.04-3.89 17.99-4.46 27.18-2.27 29.12 4.94 59.35 21.71 83.43-2.88 2.16-6 3.98-9.21 5.6-11.45-18.36-18.91-39.29-20.51-60.93-.81-13.18-.42-26.56 2.62-39.46.72-3.24 1.32-6.5 1.87-9.77-9.42-.35-18.85-.16-28.28-.09-.4-13.2-.09-26.4-.13-39.61l4.94-.33z"/><path fill="#b3b3b3" d="M84.76 25.06c1.81-.03 3.62-.07 5.44-.1.21 13.25.4 26.51-.13 39.75-9.43.01-18.87-.33-28.3.18 1.19 5.9 2.78 11.72 3.71 17.67 3.59 25.21.63 51.56-10.07 74.8-2.72 6.14-5.96 12.05-9.54 17.73a105.71 105.71 0 0 1-8.81-5.68c8.77-12.95 14.84-27.65 18.46-42.84 3.32-13.82 3.69-28.15 2.91-42.29-.57-8.63-2.7-17.05-4.47-25.49 10.24-.43 20.48-.15 30.72-.14.14-11.2.1-22.4.08-33.59z"/><path fill="#fecc02" d="M83.94 89.37c9.61.11 19.25-.32 28.85.11 3.43.66 2.44 4.99 2.33 7.49-1.38 11.68-1.32 23.46.15 35.12-.05 2.56-.22 5.12-.37 7.67-10.45-1.02-20.92-.8-31.4-.74-.06-1.82-.13-3.65-.14-5.47-.03-5.54.81-11.03 1.02-16.56.48-9.23-2.12-18.42-.44-27.62z"/><path fill="#fed630" d="M115.27 132.09c.64 5.35 2.14 10.59 2.42 15.97l-.03 3.05c-1.26-1.04-2.51-2.07-3.75-3.11-1.19 1.23-2.38 2.46-3.57 3.68-.79-1.15-1.58-2.31-2.37-3.46-9.23.48-18.65 1.85-27.73-.5.85-4.77 1.7-9.54 3.12-14.17.01 1.82.08 3.65.14 5.47 10.48-.06 20.95-.28 31.4.74.15-2.55.32-5.11.37-7.67z"/><path fill="#ffdd51" d="M77.64 157.21c.76-3.19 1.57-6.38 2.6-9.49 9.08 2.35 18.5.98 27.73.5.79 1.15 1.58 2.31 2.37 3.46 1.19-1.22 2.38-2.45 3.57-3.68 1.24 1.04 2.49 2.07 3.75 3.11l.03-3.05c1.19 2.16 2.24 4.38 3.26 6.63-2.38.47-4.83.67-7.12-.3-2.8 1.22-5.73 2.38-8.86 1.93-9.11-.84-18.3-.63-27.33.89z"/><path fill="#fee26c" d="M104.97 156.32c3.13.45 6.06-.71 8.86-1.93 2.29.97 4.74.77 7.12.3.09 1.02.15 2.05.05 3.08-.11 1.31-.19 2.63-.24 3.95-9.58.54-19.17.26-28.76.25-5.46.28-10.93.27-16.38-.1.69-1.55 1.37-3.1 2.02-4.66 9.03-1.52 18.22-1.73 27.33-.89z"/><path fill="#ffe886" d="M121 157.77c.77 1.37 1.66 2.7 2.14 4.22-.26 2.54-.65 5.07-1 7.6-10.02-.89-20.1-.59-30.14-.62-5.05-.08-10.13 1.2-15.14.29-.95-1.35-1.55-2.89-2.15-4.41.02-1.01.08-2.02.16-3.02l.75.04c5.45.37 10.92.38 16.38.1 9.59.01 19.18.29 28.76-.25.05-1.32.13-2.64.24-3.95z"/><path fill="#feee9d" d="M123.14 161.99c.13.3.38.91.51 1.21.89 2.21 1.74 4.44 2.56 6.69-.06 1.98-.2 3.96-.32 5.94-17.78-1.56-35.68-.83-53.49-.17-.25-1.28-.47-2.57-.68-3.85.24-2.56 1.8-4.75 2.99-6.96.6 1.52 1.2 3.06 2.15 4.41 5.01.91 10.09-.37 15.14-.29 10.04.03 20.12-.27 30.14.62.35-2.53.74-5.06 1-7.6z"/><path fill="#fff7ce" d="M123.65 163.2c3.77 3.46 4.73 8.65 7.16 12.95 1.48 2.68 2.4 5.6 3.38 8.48-6.71 1.45-13.31 3.52-20.18 4.05-9.17.73-18.49 2-27.59.06-4.45-.98-8.92-1.83-13.41-2.56-2.06-.5-4.53-.67-5.98-2.43-1.06-3.21.45-6.83 3.23-8.66-.89 2.57-1.51 5.23-2.14 7.87C74 181.85 79.95 180.32 86 181c9.33.59 18.69-.19 28.03.12 4.45.1 8.92 1.02 13.36.25 2.52-3.67.16-7.88-1.18-11.48-.82-2.25-1.67-4.48-2.56-6.69z"/><path fill="#fff1b4" d="M126.21 169.89c1.34 3.6 3.7 7.81 1.18 11.48-4.44.77-8.91-.15-13.36-.25-9.34-.31-18.7.47-28.03-.12-6.05-.68-12 .85-17.88 1.96.63-2.64 1.25-5.3 2.14-7.87.4-1.13.96-2.19 1.46-3.28.21 1.28.43 2.57.68 3.85 17.81-.66 35.71-1.39 53.49.17.12-1.98.26-3.96.32-5.94z"/></svg>