<svg width="199pt" height="200pt" viewBox="0 0 199 200" xmlns="http://www.w3.org/2000/svg"><path fill="#c92c26" d="M98.34 24.98c17.12-2.07 34.76 2.28 49.49 11.09 8.04 5.5 16.1 11.44 21.54 19.7 11.6 15.28 17.62 34.86 15.78 54.03-1.69 14.48-6.62 28.96-15.98 40.32-9.97 12.98-23.98 22.92-39.71 27.57-9.79 3.43-20.27 3.2-30.49 2.91-8.4-.25-16.48-3.04-24.15-6.28-16.23-6.95-29.61-19.88-37.93-35.37-11.39-21.5-11.47-48.28-1.12-70.19 11.91-23.71 35.92-41.31 62.57-43.78m1.15 13.27c-8.7 1.35-17.51 3.73-24.85 8.77 3.15 3.23 6.87 6.04 9.03 10.1 1.47 2.28 2.43 5.07 4.67 6.72 2.89 1.3 6.16.36 9.13-.18.64-6.67-1.25-13.71 1.38-20.07 3.96-.12 8.02-.66 11.9.37 2.59 2.44 5.02 5.48 5.66 9.07-.37 3.51-2.39 6.62-3.02 10.1 4.95 1.05 11.32 2.8 15.35-1.32 4.06-4.52 7.97-9.18 11.83-13.88-3.12-2.25-6.5-4.13-10.1-5.5-9.82-3.57-20.51-6.01-30.98-4.18m50.14 17.38c-3.78 3.52-5.78 8.46-7.64 13.17-4.12 11.92-4.83 24.69-4.69 37.2-.48 16.43 4.28 32.44 9.5 47.83 1.43-.86 2.94-1.64 4.19-2.78 10.89-9.87 18-23.55 20.74-37.92 3.19-19.85-3.56-40.94-17.53-55.36-1.26-1.1-2.73-2.64-4.57-2.14M48.18 73.01c-3.89 8.08-6.75 16.88-6.79 25.94-.04 5.15-.17 10.34.57 15.46 2.77 16.09 12.13 30.83 25.37 40.34 6.3-18.08 10.48-37.29 8.97-56.54-1.11-10.59-1.85-21.53-6.33-31.36-1.92-4.2-4.34-8.74-8.78-10.68-5.72 4.36-9.72 10.53-13.01 16.84m43.13 7.31c-.35 2.19-.69 4.41-.43 6.63.62 5.89.29 11.81.59 17.71 5.43 1.25 11.01.69 16.52.83 3.62.09 7.25.02 10.8-.76 1.19-4.83.47-9.81.78-14.71.2-3.39.61-6.76.76-10.15-4.43-.34-8.88-.35-13.33-.32-5.23.06-10.54-.46-15.69.77m-3.28 37.47c-2.26 12.39-6.5 24.42-12.82 35.33-.87 1.99-3.16 5.41-.38 6.84 9.41 5.68 20.61 7.56 31.42 8.3 12.03-.48 24.36-3.11 34.56-9.79-2.51-6.08-6.51-11.4-8.99-17.51-3.78-7.38-6.49-15.21-8.89-23.12-5.62-.75-11.29-.31-16.93-.36-5.99.09-12-.34-17.97.31z"/></svg>