<svg width="200pt" height="200pt" viewBox="0 0 200 200" xmlns="http://www.w3.org/2000/svg"><g fill="#e99e22"><path d="M82.38 12.46c28.6-5.75 55.21 16.17 62.39 42.82 4.01 12.55 1.24 25.82 2.16 38.72-5.58 1.58-2.26-7.06-4.34-9.64-4.31-17.11-19.52-31.86-37.47-33.63-12.93-2.37-27.16 1.58-36.74 10.67C56.4 71.67 45.93 83.57 34.86 94.82c-4.98 3.7-8.07 10.01-14.69 11.24-3.23-14.49-1.56-30.47-.18-45.07 19.79-17.33 34.6-43.21 62.39-48.53z"/><path d="M98.99 74.07c1.37-.21 3.03-.22 3.68 1.26 3.76 5.87 9.88 9.51 14.36 14.66 2.45 2.75-.42 5.71-2.46 7.59-4.75 3.91-8.27 9.32-13.66 12.43-7.24-.12-10.06-8.91-15.54-12.4-8.53-5.05 2.08-13.4 6.6-17.64 2.03-2.3 4.47-4.22 7.02-5.9z"/></g><path fill="#12458f" d="M178.31 78.36c.4-.14 1.2-.42 1.59-.56.17 15.04.17 30.08.04 45.11-10.65 12.55-23.53 23.18-34.66 35.36-19.62 20.06-55.64 21.93-75.16.63-19.59-18.12-24.36-49.32-17.01-73.99 4.44 6.91.07 18.43 5.98 25.93 11.01 26.1 48.5 34.92 69.76 16.03 17.15-15.45 32.64-32.69 49.46-48.51z"/></svg>