<svg width="200pt" height="200pt" viewBox="0 0 200 200" xmlns="http://www.w3.org/2000/svg"><path d="M114.43 12.68c3.54-1.92 8.09-.76 10.74 2.12 19.87 19.15 39.73 38.31 59.55 57.52 4.13 3.32 4.28 10.3.28 13.78-3.42 3.52-9.54 3.29-12.9-.2-19.99-19.33-40-38.64-60-57.95-4.84-4.09-3.56-12.84 2.33-15.27zm-39.3.63c3.48-1.75 7.89-.76 10.56 2 11.25 10.73 22.3 21.67 33.57 32.39 2.1 1.94 4.11 4.34 4.2 7.35.52 5.2-4.2 10.2-9.44 9.87-2.89.14-5.39-1.5-7.33-3.48-11.28-11.07-22.71-21.97-34.06-32.95-4.81-4.2-3.27-12.68 2.5-15.18zM55.34 33.57c3.4-1.92 7.95-1.34 10.71 1.45 11.03 10.59 22.04 21.22 33.03 31.87 1.8 1.79 3.95 3.5 4.63 6.06 1.94 5.16-2.15 11.48-7.65 11.89-2.97.46-6.02-.68-8.06-2.86C76.39 70.6 64.53 59.49 52.96 48.07c-4.24-4.07-2.91-11.99 2.38-14.5zM36.4 53.37c3.65-1.91 8.24-.74 10.98 2.2C58.87 66.8 70.52 77.85 82.02 89.08c4.29 3.87 3.46 11.55-1.52 14.46-3.31 2.13-8.19 1.85-11.06-.93C57.61 91.41 46 79.99 34.27 68.71c-4.94-4.05-3.77-12.82 2.13-15.34zM16.51 73.68c3.55-2.17 8.36-1.37 11.22 1.58 11.71 11.29 23.4 22.6 35.07 33.93 3.74 3.46 3.56 9.95-.24 13.29-3.41 3.33-9.47 3.26-12.79-.16-11.76-11.26-23.41-22.64-35.16-33.93-4.46-4.03-3.37-11.9 1.9-14.71zm123.73 2.59c3.47-1.76 7.85-.81 10.55 1.89 11.4 10.99 22.75 22.02 34.18 32.98 4.21 3.28 5.06 10.12 1.04 13.89-3.33 3.74-9.83 3.82-13.21.11-11.13-10.48-21.96-21.3-33.06-31.82-1.8-1.77-3.9-3.55-4.49-6.13-1.48-4.24 1.08-9.04 4.99-10.92zm-19.82 20.25c3.33-1.93 7.92-1.37 10.66 1.34 11.68 11.02 23.09 22.32 34.7 33.42 2.16 1.94 3.76 4.71 3.54 7.7-.13 4.8-4.47 9.12-9.34 8.87-3.18.25-5.77-1.81-7.88-3.91-11.25-11.09-22.75-21.91-34.02-32.97-4.25-4.09-2.83-11.81 2.34-14.45zM18.29 112.49c3.39-1.67 7.51-.46 10.12 2.07 20 19.37 40.07 38.66 60.07 58.03 3.3 3 3.96 8.37 1.3 12-2.97 4.56-10.04 5.48-13.91 1.54-20.25-19.41-40.39-38.94-60.55-58.45-4.86-4.29-3.05-13 2.97-15.19zm85.12 3.11c3.03-.68 6.4.12 8.58 2.4 10.82 10.52 21.76 20.9 32.56 31.44 2.41 2.32 5.46 4.86 5.35 8.55.64 5.4-4.53 10.54-9.93 9.83-2.84.02-5.11-1.88-7-3.78-11.5-11.21-23.22-22.2-34.58-33.55-4.48-4.86-1.4-13.63 5.02-14.89zm-21.22 20.69c3.71-1.94 8.39-.71 11.13 2.3 11.48 11.19 23.09 22.25 34.58 33.42 3.65 3.35 3.74 9.69.12 13.09-3.38 3.66-9.78 3.68-13.18.05-11.77-11.21-23.37-22.61-35.08-33.88-4.58-4.14-3.17-12.46 2.43-14.98z" fill="#e70012"/></svg>