<svg width="200pt" height="200pt" viewBox="0 0 200 200" xmlns="http://www.w3.org/2000/svg"><path d="M81.49 29.45c2.9-2.62 5.5-6.07 9.37-7.24 5.11 2.13 7.8 7.59 12.64 10.15 1.37.54 2.44-.65 3.39-1.43 2.98-2.73 5.61-5.92 9.1-8.04 1.13-.81 2.69-.66 3.84.02 7.73 4.46 12.49 12.34 19.44 17.75 6.43 5.23 11.65 11.75 18.04 17.01 4.65 3.99 8.67 8.63 13.2 12.75 3.09 3 6.41 5.81 9.06 9.23 1.08 1.13 1.28 2.75.92 4.23-2.64 4.57-7.77 7.21-9.96 12.08 1.82 5.35 6.98 8.22 10.89 11.84.73 1.82-.4 3.62-1.49 5-3 3.82-6.78 6.92-10.02 10.52-7.52-5.11-13.81-11.7-20-18.3-4.39-4.8-10.15-8.38-13.44-14.13 2.47-4.82 6.47-8.93 10.78-12.2 1.74-1.26 3.28.4 4.63 1.4a48.32 48.32 0 0 1 7.12 7.32c.76-.66 1.52-1.31 2.29-1.96-7.33-6.56-13.78-14.07-21.11-20.66-7.21-7.81-15.46-14.55-24.01-20.82 1.88 3.67 4.68 6.68 7.56 9.58 1.59 1.24 1.23 3.57.02 4.94-3.01 4-6.41 7.81-10.64 10.54-4.72-3.56-9.44-7.23-13.3-11.73-3.44-3.99-7.52-7.35-11.06-11.25-3.58-3.89-8.81-6.26-11.31-11.07.34-2.33 2.61-3.81 4.05-5.53zM63.6 48.79c3.21-4.49 7.59-7.93 11.44-11.83 5.53 5.18 11.43 9.97 16.53 15.6 5.46 6.22 12.7 10.65 17.69 17.31 1.04 1.71.16 3.81-.97 5.23-2.57 3.47-5.4 6.86-8.99 9.31-1.15.6-2.76 1.75-3.98.7-4.94-3.45-8.54-8.41-13.15-12.26a112.93 112.93 0 0 1-10.25-9.68c-2.81-3.01-6.4-5.26-8.85-8.61-1.49-1.71-.68-4.16.53-5.77zM46.35 66.64c3.6-4.65 8.06-8.54 12.67-12.16 8.61 9.61 19.58 16.68 28.21 26.27 2.3 2.72 6.61 5.39 5.31 9.52-2.58 5.2-7.62 8.56-11.65 12.56C69.49 95.96 61.62 85 51.7 76.38c-2.24-2.03-4.93-3.72-6.5-6.37-.08-1.29.3-2.41 1.15-3.37zm-6.8 6.76c1.16-1.1 3.2-1.67 4.5-.47 4.04 3.22 7.56 7.07 11.59 10.32 5.16 4.16 8.78 9.89 14.01 13.97 2.5 2.08 5.31 4 6.95 6.88.39 1.79.01 3.71-1.12 5.16-3.05 4.33-7.53 7.33-11.52 10.72-3.71-3.67-7.61-7.2-12.11-9.9 4.64 7.21 11.48 12.54 17.27 18.76 4.64 5.04 9.7 9.64 14.95 14.04 4.04 3.99 8.58 7.41 13.14 10.78-2.81-3.96-6.45-7.17-9.62-10.79-1.11-2.68 1.25-4.68 2.86-6.44 3.25-3.28 6.42-6.7 10.22-9.37 10.56 9.89 21.67 19.21 31.44 29.91 1.15 1.19 2.36 3.25 1.04 4.74-3.16 3.78-6.7 7.25-10.44 10.45-1.49 1.32-3.53.03-4.68-1.13-3.97-3.59-7.59-8.55-13.44-8.79-3.65 4.85-6.9 10.66-12.57 13.36-1.96-1.18-3.59-2.79-5.32-4.25-3.53-3.17-7.74-5.62-10.56-9.52-2.78-3.83-6.15-7.18-9.85-10.1-5.52-4.44-9.91-10.13-15.63-14.33-5.33-4.33-9.72-9.66-14.68-14.39-2.58-2.63-5.47-5.02-7.53-8.11 1.97-5.96 7.69-9.27 11.39-14 .84-.9.82-2.25.55-3.36-2.53-4.09-7.05-6.45-9.64-10.5-.83-1.17-.5-2.73.26-3.84 2.29-3.69 5.22-7 8.54-9.8zm79.46 34.59c4.92-4.85 8.78-10.88 14.87-14.44 1.84 1.62 3.71 3.21 5.69 4.67 5.25 3.74 9.03 9.09 13.82 13.35 4.8 4.24 9.04 9.04 13.52 13.58-3.64 5.41-8.16 10.2-12.98 14.57-1.41-.21-2.49-1.21-3.6-2.01-7.54-6.07-13.98-13.36-21.27-19.73-3.53-3.14-6.69-6.67-10.05-9.99zm-16.34 17c4.19-4.83 8.28-9.84 13.31-13.81 2.56.05 4.45 1.97 6.27 3.53 5.07 4.92 9.98 10.02 15.17 14.83 3.76 3.63 8.01 6.82 11.14 11.04.96 1.25 1.78 3.21.58 4.58-2.99 4.05-6.65 7.62-10.5 10.85-2.43 1.92-4.9-.57-6.42-2.39-2.97-3.64-6.89-6.26-10.37-9.35-6.31-6.53-13.8-11.87-19.18-19.28z" fill="#dbb722"/></svg>