<svg width="200pt" height="200pt" viewBox="0 0 200 200" xmlns="http://www.w3.org/2000/svg"><path fill="#e50415" d="M87.08 23.77c5.8-.19 11.49-1.74 17.32-1.35 11.04.46 22.33 2.47 32.03 8.03 5.06 2.92 10.44 5.4 15 9.11 6.42 5.66 12.5 11.83 17.12 19.07 1.38 1.85 1.14 4.3.81 6.44-8.77 7.85-20.92 8.97-31.5 13.04-3.53 1.05-7.02 2.94-10.82 2.38-7.59-5.43-12.62-13.96-20.75-18.66-4.37-.79-9.64-1.07-12.79 2.69-7.7 7.94-16.15 15.18-23.12 23.81-2.21 2.73-5.49 4.79-6.84 8.09-.09 3.8-1.03 8.26 1.71 11.39 4.46 6.12 10.66 10.61 15.74 16.19 6.16 5.47 10.92 12.78 18.47 16.5 3.91 2.28 8.52.13 11.83-2.23 4.35-3.5 8.07-8.26 13.72-9.68 3.03-.24 6.11.03 9.09-.69 7.06-1.01 14.25.1 21.33-.61 5.12-1.1 10.18-2.72 14.8-5.2 3.21-2.15 5.98-4.88 9.24-6.95.04 2.43-.28 4.85-1.2 7.11-3.44 8.83-6.5 18.04-12.45 25.59-4.97 6-9.98 12.15-16.51 16.55-10.44 8.2-23.26 12.95-36.3 14.96-9.63.34-19.3.22-28.8-1.41-11.93-3.55-23.58-8.84-33.03-17.09-12.3-10.8-20.24-25.69-24.95-41.2-2.5-12.22-2.53-24.93.23-37.12 5.28-18.79 16.28-36.58 33.12-47.03 8.25-5.77 17.93-8.95 27.5-11.73z"/><path fill="#088046" d="M173.5 74.27c1.14-1.37 2.77-.86 3.79.35 2.21 5.76 2.78 12.1 1.6 18.17-.44 10.1-7.63 19.01-16.46 23.42-9.17 4.03-19.35 1.52-28.99 2.51-5.22.78-10.39 2.25-15.72 1.85-1.21-5.88 1.28-11.75 3.62-17.04 2.95-6.4 7.78-12.31 14.52-14.88 9.63-3.94 20.44-4.3 29.8-9.03 2.83-1.45 5.22-3.59 7.84-5.35z"/></svg>