<svg width="200pt" height="200pt" viewBox="0 0 200 200" xmlns="http://www.w3.org/2000/svg"><path fill="#c40d1a" d="M94.92 22.51c5.67.05 11.36-.26 17.02.12 4.45.86 8.93 1.62 13.34 2.66 4.83 1.06 9.14 3.57 13.56 5.68-3.27 3.36-6.38 6.86-9.44 10.41-8.95 9.38-18.4 18.26-27.4 27.58-4.81 5.24-10.68 9.34-15.5 14.56-3.4 3.78-7.98 6.78-9.98 11.61.16 1.51.69 2.95 1.07 4.41 2.27-.29 5.12.73 6.93-1.07 11.15-11.11 22.16-22.39 33.46-33.36 6.29 4.23 11.08 10.19 16.55 15.36 4.93 5.1 10.38 9.74 14.8 15.31.39 3.02.73 6.35-.31 9.25-6.48 9.96-16.09 17.25-24.15 25.84-6.84 7.49-14.3 14.38-21.78 21.21-2.18 1.47-1.77 4.13-1.74 6.42 5.74-.08 11.75.8 17.24-1.33 3.3-1.16 6.73-1.96 9.98-3.28 8.44-3.8 15.31-10.22 21.49-16.97 4.94-5.39 7.7-12.3 10.23-19.05 2.2-7.5 2.64-15.43 2.03-23.19-1.14-6.15-1.63-12.57-4.4-18.28a56.003 56.003 0 0 0-13.73-18.61c-2.76-2.44-5.3-5.26-6.66-8.73 2.37-3.13 5.73-5.28 8.45-8.07 1.33-1.13 2.74-3.03 4.74-2.3 3.51 1.38 6.34 3.97 8.95 6.61 4.06 4.22 8.1 8.59 10.79 13.84 2.18 4.16 4.31 8.35 6.43 12.55 3.95 8.2 4.05 17.49 5.44 26.31.69 6.09-1.38 11.99-1.96 17.99-2.06 15.44-11.52 28.56-21.51 39.98-10.12 9.73-22.92 16.45-36.51 19.82-6.27 1.66-12.8 3.61-19.33 2.18-4.47-.95-9.15.13-13.57-1.17-3.21-.79-6.44-1.51-9.63-2.37-4.01-1.01-7.24-3.73-10.54-6.06 4.98-4.71 9.46-9.93 14.63-14.44 12.31-12.01 24.33-24.32 36.58-36.4 3.58-3.61 7.52-7.04 10.09-11.49.45-2.31-1.33-4.07-2.41-5.89-12.72 10.69-24.18 22.76-35.83 34.58-1.57-.1-3.16-.13-4.71-.39-2.07-1.44-3.82-3.33-5.28-5.37.72-2.76 2.67-4.99 4.64-6.96 5.6-5.41 10.8-11.26 16.93-16.09 5.03-4.78 9.71-9.99 13.91-15.5-1.65-1.26-3.79-1.14-5.73-.95-4.79 3.69-9.5 7.62-13.27 12.39-3.03 3.97-7.42 6.52-10.81 10.14-3.61 3.76-7.38 7.45-12.02 9.94-4.52-4.14-8.72-8.61-13.27-12.72-2.59-2.81-5.85-6-5.28-10.19-.12-3.02 2.31-5.27 4.02-7.5 13.48-13.54 27.03-27.03 40.6-40.49 3.13-2.44 5.62-5.61 6.9-9.4-4.58-.12-9.19-.43-13.75.15-12.82 2.62-25.19 8.54-34.2 18.2-7.47 7.21-12.06 16.91-14.65 26.85-3.52 10.62-2.01 22.16 1.81 32.48 3.34 12.05 11.94 21.91 21.77 29.29-.23 3.74-3.05 6.38-5.47 8.91-1.6 1.61-3.37 3.18-5.54 3.94-3.19.73-5.58-1.82-7.87-3.59-8.15-7.42-13.94-17.01-18.99-26.71-3.16-7.14-4.43-14.94-6.34-22.47-.63-9.07-.41-18.3 2.36-27.03 2.54-10.99 7.77-21.21 14.56-30.16 6.96-7.59 14.55-14.88 23.72-19.74 9.08-4.22 18.49-8.21 28.54-9.25z"/></svg>