<svg width="200pt" height="200pt" viewBox="0 0 200 200" xmlns="http://www.w3.org/2000/svg"><path fill="#779f2f" d="M89.68 20.14c6.44-1 13.14-1.12 19.57.04 13.45 2.85 25.36 11.9 31.96 23.94 1.66 3.05 2.56 6.47 4.38 9.45 1.1 1.58 3.16 1.96 4.81 2.73 12.31 4.65 22.58 14.59 27.16 26.98 4.5 11.96 4.38 25.85-1.02 37.51-4.1 9.03-10.9 17.07-19.81 21.64-3.54 2.06-7.7 2.89-11.05 5.29-2.08 3.78-3.12 8.07-5.45 11.74-7.9 13.77-23.46 22.4-39.18 22.96-9.61.56-19.12-2.49-27.39-7.21-10.07-6.37-17.76-16.7-20.52-28.31-7-1.72-13.59-5.22-19.07-9.91-10.33-8.89-16.29-22.42-16.53-35.98.16-15.52 7.75-31.04 20.83-39.7 4.28-3.14 9.42-4.67 14.12-6.98 2.08-3.05 2.82-6.83 4.65-10.04 6.69-12.21 18.68-21.72 32.54-24.15m39.06 44.66c-18.91 9.2-42.15 8.69-60.77-.97-3.78-2.11-7.52-4.32-11.51-6.02 1.51 4.65 4.22 8.75 6.58 12.99 7.81 16.45 9.1 36.05 2.72 53.19-1.86 6.85-6.24 12.52-9.42 18.74.22.22.67.66.89.88 5.41-2.06 9.86-6.03 15.34-7.96 18.61-8.08 40.77-7.06 58.68 2.39 3.35 1.99 6.73 4 10.45 5.23-2.91-7.74-7.82-14.6-10.06-22.62-4.82-14.98-3.56-31.56 2.2-46.09 2.26-5.87 6.44-10.78 8.4-16.77-4.93 1.46-8.9 4.86-13.5 7.01z"/></svg>