<svg width="200pt" height="200pt" viewBox="0 0 200 200" xmlns="http://www.w3.org/2000/svg"><g fill="#0780c6"><path d="M18.29 9.29c13.19-.58 26.42-.3 39.61-.17 15.8 10.03 33.66 18.53 45.04 33.92 3.93 3.85 3.94 10.08 1.91 14.83-2.59 6.92-6.94 12.94-11.07 18.99-5.92.32-11.84-.05-17.75.2.07 15.9-.3 31.84.12 47.73l1.07 1.07c12.56.47 25.15-.17 37.71.22 7.28 4.75 11.69 12.6 16.05 19.93 4.81 8.8 5.74 20.36-.05 28.94-5.02 8.93-14.01 14.62-22.99 18.99-14.67.07-29.36.18-44.03-.01 4.86-4.52 12.49-6.57 16.88-12.14 9.98-8.63 12.91-24.77 5.16-35.76-9.61-14.75-26.51-22.14-39.25-33.72-2.92-2.54-5.35-5.64-6.61-9.32 5.35-14.5 18.49-25.16 22.48-40.33 3.07-10.16-2.42-19.86-9.75-26.48-10.91-10.15-24.06-17.55-37.65-23.45-.89-2.1 1.8-2.64 3.12-3.44z"/><path d="M71.75 9.13c16.05-.15 32.11-.31 48.15-.01 6.97 4.24 14.16 8.23 20.4 13.54 6.61 4.72 13.02 10.47 15.65 18.42.91 8.63-2.19 16.86-5.14 24.77-2.73 7.07-6.7 14.24-5.71 22.09 2.44 8.78 9.33 15.17 15.66 21.31 10.97 9.66 23.47 18.83 29.07 32.88 4.64 11 2.92 23.27 3.13 34.88.7 9.18-7.77 17.65-16.95 16.95-15.08.05-30.16.17-45.24-.09 2.73-2.67 5.81-5 8.88-7.26 8.63-7.7 14.15-20.06 10.32-31.62-4.05-14.4-15.4-24.92-25.59-35.18 1.2-14.22.46-28.53.57-42.78-6.34-.18-12.68.16-19.02-.1.64-3.94 4.48-6.36 6.13-9.9 4.78-6.69 8.58-16.28 3.87-23.96C105.5 27.16 87.88 18.1 71.75 9.13z"/><path d="M130.77 9.14c17.06-.25 34.12-.17 51.17-.09 6.41 3.14 11.87 9.36 11.02 16.94.06 32.35.09 64.71-.02 97.06-2.32.33-3.13-2.2-4.42-3.6-9.8-8.66-21.32-15.15-30.81-24.16-5.56-5.01-6.85-13.47-3.42-20 4.83-11.92 11.85-24.79 8.34-38-5.87-13.74-19.99-20.44-31.86-28.15zM8.08 19.9c11.13 5.06 21.66 12.02 30.2 20.83 4.4 5.36 9.58 11.74 8.6 19.2-3.57 13.33-14.1 23.15-19.35 35.72-1.96 4.02-2.38 9.14-.32 13.19 7.48 12.9 21.64 19.65 31.6 30.35 6.77 7.37 13.54 16.91 10.89 27.55-6.47 14.83-22.86 21.92-37.78 25.13-6.43 1.09-14.55 3.46-19.23-2.56-8.82-8.48-3.82-21.75-4.66-32.31 1.19-13.03-2.39-26.06-.09-38.99.22-32.7-.11-65.41.14-98.11z"/></g></svg>