<svg width="200pt" height="200pt" viewBox="0 0 200 200" xmlns="http://www.w3.org/2000/svg"><path fill="#fdfefd" d="M0 0h200v200H0V0m32.07 30.31c8.79 3.74 18.03 6.94 25.39 13.27 6.13 5.31 12.84 11.21 14.74 19.45 1.58 10.35-4.82 19.64-10.8 27.44-3.12 4.23-8.15 8.62-6.73 14.45 1.7 4.13 5.38 6.95 8.9 9.49 6.67 4.63 12.74 10.04 19.26 14.86 5.2 3.84 8.9 9.4 11.32 15.32.76 4.65 1 9.85-1.55 14.03-4.54 8.25-12.47 13.75-20.74 17.8 7.02.73 14.09.16 21.14.33 5.2-.15 10.45.41 15.62-.3 5.72-1.89 10.4-6.03 14.51-10.3 4.25-4.25 7.75-9.91 7.29-16.15-.47-10.62-6.87-19.92-14.15-27.24-2.07-2.35-5.53-1.17-8.26-1.47-8.46-.3-17.03.8-25.41-.61.17-12.76.07-25.53-.04-38.29 4.44-.05 8.92.26 13.34-.2 3.13-2.41 4.94-6.04 6.95-9.35 1.88-3.39 4.1-6.85 4.38-10.81-.65-4.58-3.59-8.34-6.76-11.52-5.56-5.56-11.4-10.95-18.24-14.91-5.18-3.05-9.86-7.19-15.63-9.08-8.15-.51-16.35-.16-24.51-.18-3.79-.2-7.05 1.9-10.02 3.97m46.8-3.87c9.95 5.65 19.54 12 28.18 19.52 4.54 4.59 9.97 10.09 9.37 17.08-1.36 7.11-5.46 13.39-10.39 18.58 5.12 1.17 10.39.67 15.58.72-.08 10.58.04 21.16-.05 31.74-.47 2.63 1.81 4.31 3.46 5.93 7.78 6.97 14.08 15.8 17.39 25.74 2.2 6.31-.12 13.04-3.24 18.59-2.82 5.05-7.69 8.4-12.07 11.98 11.6.96 23.31.15 34.96.42 5.63.31 11.01-3.03 13.79-7.82 2.28-4.28 1.41-9.28 1.6-13.92-.23-7.58 1.18-15.78-2.96-22.62-7.01-13.54-21.24-20.69-30.78-32.08-3.46-4.24-6.04-9.73-5.04-15.32 1.83-10 8.41-18.66 8.78-28.99.46-4.14-2.38-7.6-4.92-10.52a91.222 91.222 0 0 0-25.04-18.79c-12.83-.69-25.76-.32-38.62-.24m47.77.05c3.6 3.13 7.96 5.2 11.62 8.25 4.71 3.9 10.9 6.7 13.34 12.69 3.88 8.83.73 18.77-3.3 26.94-3.18 5.28-5.42 11.93-2.84 17.91 2.73 7.21 10.31 10.13 16.05 14.44 5.45 3.64 9.62 9.1 15.78 11.69.31-23.13-.02-46.27.1-69.41.09-4.48-.13-8.99-1.13-13.36-1.73-5.6-7.51-9.54-13.33-9.35-12.09.17-24.2-.15-36.29.2M28.47 37.01c-.27 41.35-.26 82.7-.3 124.05-.8 8.02 6.42 16.71 14.86 14.93 10.04-1.71 20.17-5.09 27.85-12.04 3.97-3.49 8.26-8.26 7.11-13.99-1-10.72-9.72-18.12-17.12-24.95-6.25-5.73-14.15-10.42-17.67-18.47-2.16-4.9.49-9.99 3.32-13.95 4.13-6.27 8.2-12.62 11.37-19.43 2.61-6.92-.38-14.64-5.42-19.63-7.01-6.78-15.15-12.41-24-16.52z"/><g fill="#2170ad"><path d="M32.07 30.31c2.97-2.07 6.23-4.17 10.02-3.97 8.16.02 16.36-.33 24.51.18 5.77 1.89 10.45 6.03 15.63 9.08 6.84 3.96 12.68 9.35 18.24 14.91 3.17 3.18 6.11 6.94 6.76 11.52-.28 3.96-2.5 7.42-4.38 10.81-2.01 3.31-3.82 6.94-6.95 9.35-4.42.46-8.9.15-13.34.2.11 12.76.21 25.53.04 38.29 8.38 1.41 16.95.31 25.41.61 2.73.3 6.19-.88 8.26 1.47 7.28 7.32 13.68 16.62 14.15 27.24.46 6.24-3.04 11.9-7.29 16.15-4.11 4.27-8.79 8.41-14.51 10.3-5.17.71-10.42.15-15.62.3-7.05-.17-14.12.4-21.14-.33 8.27-4.05 16.2-9.55 20.74-17.8 2.55-4.18 2.31-9.38 1.55-14.03-2.42-5.92-6.12-11.48-11.32-15.32-6.52-4.82-12.59-10.23-19.26-14.86-3.52-2.54-7.2-5.36-8.9-9.49-1.42-5.83 3.61-10.22 6.73-14.45 5.98-7.8 12.38-17.09 10.8-27.44-1.9-8.24-8.61-14.14-14.74-19.45-7.36-6.33-16.6-9.53-25.39-13.27z"/><path d="M78.87 26.44c12.86-.08 25.79-.45 38.62.24a91.222 91.222 0 0 1 25.04 18.79c2.54 2.92 5.38 6.38 4.92 10.52-.37 10.33-6.95 18.99-8.78 28.99-1 5.59 1.58 11.08 5.04 15.32 9.54 11.39 23.77 18.54 30.78 32.08 4.14 6.84 2.73 15.04 2.96 22.62-.19 4.64.68 9.64-1.6 13.92-2.78 4.79-8.16 8.13-13.79 7.82-11.65-.27-23.36.54-34.96-.42 4.38-3.58 9.25-6.93 12.07-11.98 3.12-5.55 5.44-12.28 3.24-18.59-3.31-9.94-9.61-18.77-17.39-25.74-1.65-1.62-3.93-3.3-3.46-5.93.09-10.58-.03-21.16.05-31.74-5.19-.05-10.46.45-15.58-.72 4.93-5.19 9.03-11.47 10.39-18.58.6-6.99-4.83-12.49-9.37-17.08-8.64-7.52-18.23-13.87-28.18-19.52z"/><path d="M126.64 26.49c12.09-.35 24.2-.03 36.29-.2 5.82-.19 11.6 3.75 13.33 9.35 1 4.37 1.22 8.88 1.13 13.36-.12 23.14.21 46.28-.1 69.41-6.16-2.59-10.33-8.05-15.78-11.69-5.74-4.31-13.32-7.23-16.05-14.44-2.58-5.98-.34-12.63 2.84-17.91 4.03-8.17 7.18-18.11 3.3-26.94-2.44-5.99-8.63-8.79-13.34-12.69-3.66-3.05-8.02-5.12-11.62-8.25zM28.47 37.01c8.85 4.11 16.99 9.74 24 16.52 5.04 4.99 8.03 12.71 5.42 19.63-3.17 6.81-7.24 13.16-11.37 19.43-2.83 3.96-5.48 9.05-3.32 13.95 3.52 8.05 11.42 12.74 17.67 18.47 7.4 6.83 16.12 14.23 17.12 24.95 1.15 5.73-3.14 10.5-7.11 13.99-7.68 6.95-17.81 10.33-27.85 12.04-8.44 1.78-15.66-6.91-14.86-14.93.04-41.35.03-82.7.3-124.05z"/></g></svg>