<svg width="200pt" height="200pt" viewBox="0 0 200 200" xmlns="http://www.w3.org/2000/svg"><path fill="#42549c" d="M92.39 22.48c14.91-2.89 29.56 1.76 42.67 8.38 16.95 7.62 30.82 21.93 38.29 38.92.34 4.65 8.68 12.06 1.01 14.54-13.99-.39-28.21-.27-42.28-.39-9.32-8.62-19.04-17.12-27.38-26.77-2.68-1.07-4.8-.68-6.37 1.18a2103.57 2103.57 0 0 1-37.6 37.38c-2.73 2.04-4.92 6.49-1.45 9.01 13.67 13.67 27.62 27 40.92 41 12.64-5.15 19.5-19.35 31.12-26.46 13.96-.57 27.96-.05 41.93-.68 2.25-.17 3.83 1.67 4.42 3.68-9.92 30.54-39.17 56.61-72.58 56.01-43.07 4.6-84.27-34.86-81.16-78.28-1.44-38.73 31.42-71.43 68.46-77.52z"/><path d="M100.33 66.32c4.08-1.98 5.23 3.73 8.28 5.11 2.71 3.51 9.69 5.94 8.18 11.3-3.42 2.92-6.41 6.3-9.84 9.2-4.02 8.58-14.36-1.18-17.48-6.37-3.78-1.68-3.46-5.28-1.24-8.33 4.33-3.31 7.5-7.95 12.1-10.91zM79.32 86.23c6.98-.71 9.96 7.89 15.32 11.13 5.97 9.36-8.08 12.03-10.81 19.43-7.56-1.41-11.49-8.46-16.6-13.19-1.8-8.14 8.96-10.78 12.09-17.37zm40.06.07c8.27-2.23 10.81 8.66 17.13 12.24 1.38 5.65-5.05 9.74-8.63 13.31-2 2.57-4.82 5.99-8.48 4.97-2.63-6.6-15.72-10.79-11.07-19.47 4.82-2.6 6.3-8.48 11.05-11.05zm-19.09 19.97c7.38-.22 10.55 9.42 16.52 13.04 1.34 7.53-8.75 9.69-12.03 15.45-6.02 3.7-9.51-4.65-13.78-7.76-2.43-2.07-4.87-4.31-4.92-7.77 6.35-2.69 6.84-10.9 14.21-12.96z" fill="#bb3e42"/></svg>