<svg width="200pt" height="200pt" viewBox="0 0 200 200" xmlns="http://www.w3.org/2000/svg"><g fill="#de0010"><path d="M52.41 24.41c14.48-8.97 31.63-13.53 48.65-13.1 18.26.08 36.53-.13 54.79.11-.6 10.7-6.47 21.52-16.44 26.13-7.56 3.8-16.22 2.87-24.38 2.96-9.95.27-20.07-.9-29.82 1.59C68.45 46 53.76 57.61 45.95 72.92c-7.56 14.44-8.71 32.03-3.16 47.34 5.32 15.07 17 27.73 31.54 34.33 14.18 6.52 30.97 7.07 45.57 1.54 14.38-5.31 26.44-16.48 32.93-30.36 3.31-6.86 4.97-14.38 5.73-21.93-12.13.02-24.26.01-36.39.01.15-3.98-.28-8.02.41-11.96.9-3.69 5.08-4.78 8.38-4.88 18.79-.14 37.58 0 56.37-.09.56 13.44-.01 27.17-4.14 40.08-5.91 19.05-18.59 35.88-35.19 46.92-21.4 14.45-49.27 18.72-73.99 11.27-31.12-8.91-56.18-36.29-61.79-68.23-.18-10.33.01-20.67-.09-31-.16-4.08 1.14-7.99 2.21-11.86 6.03-20.49 19.9-38.49 38.07-49.69z"/><path d="M53.23 75.29C61.9 59.14 79.6 48.11 98.02 48.15c29.92.06 59.84-.12 89.75.09-1.17 7.16-3.23 14.66-8.63 19.86-6.49 6.57-16.15 8.66-25.09 8.71-23.37.01-46.74.01-70.11 0-4.51-.36-8.71 3.66-8.37 8.21 0 10.31-.05 20.63.02 30.94-.04 3.93 3.47 7.59 7.43 7.55 10.36.05 20.71-.01 31.07.03 2.97.2 5.9-1.5 7.28-4.12 1.36-2.45.82-5.35.84-8.02 9.25 0 18.49-.04 27.74.03-3.34 13.7-11.92 26.14-24.12 33.37-12.44 7.65-28.18 9.67-42.12 5.29-14.95-4.51-27.51-16.15-33.17-30.7-5.67-14.14-4.67-30.76 2.69-44.1z"/></g></svg>