<svg width="200pt" height="200pt" viewBox="0 0 200 200" xmlns="http://www.w3.org/2000/svg"><g fill="#e70012"><path d="M75.1 7.42C94.05 2 114.74 2.99 133.2 9.84c20.99 7.71 39.11 23.12 49.91 42.71-9.35-6.47-20.7-9.8-32.05-9.81-33.36 0-66.72-.02-100.08.01 1.56-14.53 9.46-30.37 24.12-35.33z"/><path d="M11.99 64.03c7.96-20.08 23.13-37.15 41.98-47.65-7.27 9.96-10.29 22.42-10.1 34.64.16 32.55-.27 65.11.23 97.65-9.28-.74-18.24-4.46-25.58-10.14-5.25-4.14-9.13-10.02-10.65-16.56-4.72-19.1-3.29-39.7 4.12-57.94zm144.44 86.96c.06-33.8-.05-67.6.06-101.4 10.12 1.37 20.1 5.3 27.65 12.31 4.46 4.29 7.54 9.97 8.76 16.04 4.29 18.5 2.76 38.28-4.26 55.92-7.89 20.22-23.05 37.43-41.94 48.07 6.09-9.13 9.63-19.94 9.73-30.94z"/><path d="M17.93 145.99c1.92.65 3.58 1.82 5.32 2.8 8.19 4.38 17.5 6.51 26.76 6.49 33.31-.02 66.63.05 99.94-.03-1.61 14.51-9.45 30.33-24.08 35.33-19.5 5.69-40.84 4.36-59.73-2.98-20.24-7.78-37.41-22.85-48.21-41.61z"/></g></svg>