<svg width="200pt" height="199pt" viewBox="0 0 200 199" xmlns="http://www.w3.org/2000/svg"><g fill="#e60315"><path d="M94.71 34.34c7.87-1.95 15.75.6 23.23 2.9 3.29.89 5.92 3.58 7.21 6.67-3.57 4.79-8.26 8.57-12.53 12.71-12.97 12.68-26.21 25.1-38.91 38.05-2.59 2.7-7.33 4.74-7.33 8.95 5.93 7.02 12.47 13.64 19.92 19.05 2.55 3.15 5.94 5.79 7.94 9.3-4.5 6.15-11.1 10.43-15.91 16.35-2.92 2.59-5.55 5.83-9.12 7.49-6.13-4.83-11.37-10.65-17.2-15.83-3.87-3.44-7.25-7.39-11.01-10.94-3.54-3.54-7.41-7.12-9.04-12-3.2-8.55-3.32-18.24-.78-26.96 3.39-9.45 12.28-15 18.72-22.17 8.05-7.62 16.16-15.21 23.68-23.36 6.04-5.12 13.1-9.34 21.13-10.21z"/><path d="M129.96 50.94c1.84-1.68 4.1.31 5.56 1.53 8.65 7.67 16.28 16.4 24.94 24.06 5.9 5.37 10.13 12.71 11.24 20.66 1.25 6.25-.07 12.64-1.9 18.63-1.34 4.47-4.63 7.93-7.59 11.4-11.35 11.98-23.88 22.77-35.44 34.56-6.86 6.5-16.2 10.52-25.74 10.07-8.17.55-16.25-2.28-22.75-7.14-.94-.75-1.71-1.68-2.35-2.69 3.37-4.61 8.03-8.03 12.02-12.07 11.18-10.14 21.36-21.32 32.57-31.43 4.27-4.74 9.42-8.61 13.64-13.38 1.85-2.17-.48-4.72-2.1-6.2-7.63-7.03-14.96-14.38-22.38-21.64-.96-1-1.88-2.06-2.54-3.29.53-1.04 1.26-1.95 2.06-2.79 6.82-6.86 13.95-13.41 20.76-20.28z"/></g><path fill="#deb96c" d="M100.28 80.5c1.11-.18 1.91.83 2.69 1.46 4.87 5.15 10.3 9.74 14.88 15.18 1.66 2.26 5.37 3.6 5.35 6.68-2.84 3.28-6.28 5.99-9.25 9.15-4.28 4.07-8.15 8.68-13.08 11.99-6.72-3.83-11.19-10.8-17.33-15.54-2.06-2.14-5.8-3.84-5.34-7.34-.17-1.9 1.61-2.93 2.8-4.08 6.8-5.42 12.12-12.51 19.28-17.5z"/></svg>