<svg width="196pt" height="200pt" viewBox="0 0 196 200" xmlns="http://www.w3.org/2000/svg"><path fill="#e7cb3d" d="M97.49 22.42c13.45-5.58 18.79 6.76 28.54 12.54 9.68 9.41 18.45 19.62 28.61 28.45 4.29 7.64 15.46 10.39 15.87 20.16 3.5.93 13.54 2.95 7.76 7.71-12.6 2.35-24.97 6.24-37.3 9.65-11.24 11.48-18.49-9.2-28.91-13-28.89-9.53-60.92-2.45-88.8 7.39-2.25 1.96-8.58 2.89-6.97-1.8 5.94-2.01 9.58-7.69 15.52-9.78 14.88-3.57 17.29-21.02 29.74-28.27 13.87-9.05 20.88-25.44 35.94-33.05z"/><path fill="#2a8549" d="M52.61 102.89c15.79-.34 37.65-5.06 49.05 9.47 3.52 5.07.19 16.88 10.28 13.51 13.62-5.13 28.29-6.89 42.17-7.95 7.21 6.7 20.88-8.01 24.85 1.97-22.12 20.18-44.53 40.92-66.82 61.23-4.29 4.01-10.51 11.5-16.83 6.54-26-24.69-52.34-49.05-79.07-72.91-1.57-1.27-2.12-4.64.08-5.53 11.58-4.36 24.16-4.63 36.29-6.33z"/></svg>