<svg width="200pt" height="200pt" viewBox="0 0 200 200" xmlns="http://www.w3.org/2000/svg"><path fill="#0b783e" d="M118.84 17.61c19.72-.36 39.44-.08 59.16-.17 4.88.01 9.76-.11 14.63.21-1.19 4.93-2.1 9.93-3.25 14.87-21.5.13-43-.01-64.5.07-2.32 8.66-3.85 17.5-6.33 26.11-12.56.43-25.16-.6-37.67.7-.23 2.1-.47 4.2-.72 6.29 15.63.11 31.27.09 46.9.02 1.91-8.01 3.55-16.09 5.7-24.04 18.28-.04 36.56-.07 54.84-.01-1.15 5.27-2.32 10.52-3.51 15.78-14.97-.05-29.93-.16-44.9-.12-2.23 9.08-4.41 18.19-6.57 27.29-18.67-.01-37.35.16-56.02-.08-.69 1.99-1.19 4.04-1.53 6.11 12.24 1.34 24.59.29 36.88.73-1.64 14.18-5.68 27.99-7.78 42.1-2 .52-4.04.9-6.12.82-11.13-.07-22.27-.07-33.41.09-.48 2.37-.99 4.73-1.39 7.12 15.65.08 31.3-.03 46.94-.05 4.35-16.52 7.65-33.32 11.59-49.95 18.35-.21 36.7-.12 55.04-.12-.63 5.25-1.94 10.39-3.13 15.54-7.22.93-14.46-.35-21.69-.16-7.36.06-14.72-.16-22.08.03-4.12 16.57-7.71 33.27-11.93 49.82-19.05-.02-38.09.01-57.14-.09-.67 2.93-1.29 5.88-1.55 8.88 21.6.17 43.2.06 64.8.1 4.26-16.75 8.67-33.45 12.96-50.19 11.6.05 23.21-.2 34.8.22-1.11 5.32-2.01 10.7-3.41 15.96-8.51.27-17.03-.1-25.53.17l-.8.44c-2.5 8.12-4.04 16.52-6.33 24.7-2.24 8.17-3.65 16.56-6.34 24.6-28.4-.02-56.8.03-85.2-.01 3.3-15.96 7.73-31.7 10.65-47.73-12.96-.07-25.91.02-38.86-.11 2.78-14.11 6.34-28.07 9.48-42.1 12.63.03 25.27.02 37.9.16 3.52-15.94 6.29-32.05 9.44-48.07 13.17-.22 26.34-.22 39.51-.08 2.86-8.41 4.32-17.24 6.47-25.85m-87.9 90.68c-.8 2.28-1.46 4.62-1.69 7.04 9.79.07 19.58-.02 29.37.04.73-2.33 1.4-4.69 2.06-7.04-9.91-.12-19.82-.03-29.74-.04m40.67.06c-.5 2.32-.98 4.65-1.23 7.01 9.32.12 18.64-.16 27.95.1 1.01-2.24 1.29-4.68 1.48-7.11-9.4-.09-18.8-.15-28.2 0z"/></svg>