<svg width="200pt" height="200pt" viewBox="0 0 200 200" xmlns="http://www.w3.org/2000/svg"><path d="M95.26 19.89c1.53-1.69 3.27.45 4.43 1.44 14.25 14.08 28.2 28.45 42.5 42.46 5.71 4.96 10.51 10.84 16.09 15.93 4.73 4.26 8.93 9.07 13.54 13.45 2.25 2.32 5.01 4.31 6.33 7.36-22.76.07-45.52-.21-68.27.17-.76-1.67-1.78-3.22-3.02-4.58-14.34-14.91-29.44-29.08-43.7-44.07 1.59-2.02 3.16-4.08 5.08-5.82C77.6 37.83 86 28.4 95.26 19.89zM47.35 67.37c3.93-4.4 8.2-8.46 12.64-12.32 4.17 3.11 7.74 6.9 11.47 10.5 9.06 9.27 18.52 18.16 27.4 27.61 2.17 2.38 5.19 4.21 6.13 7.48l-.94-.01c-17.02-.09-34.05-.31-51.06.1-4-7.02-10.87-11.73-16.46-17.37-1.5-1.15-1.59-3.53-.28-4.86 3.15-4.24 7.33-7.5 11.1-11.13zM28.76 85.74c1.37-1.93 4.03-1.83 5.35.11 4.39 5.06 9.95 8.98 14.04 14.3-11.11.47-22.25.3-33.36-.06 4.34-5.08 9.34-9.54 13.97-14.35z" fill="#066391"/><path d="M14.79 100.09c11.11.36 22.25.53 33.36.06-5.65 5.05-10.95 10.47-16.37 15.76-6.6-4.23-10.45-11.5-16.99-15.82zm38.2.64c17.01-.41 34.04-.19 51.06-.1-6.82 9.53-16.83 16.09-24.51 24.84-5.72 6.35-12.84 11.39-17.83 18.39-.63.63-1.06 1.93-2.17 1.49-3.02-3.29-5.5-7.05-8.71-10.17-4.77-4.59-9.67-9.03-14.55-13.5-1.4-1.11-1.63-3.46-.21-4.65 5.27-5.81 11.27-10.89 16.92-16.3zm56.89-.03c22.75-.38 45.51-.1 68.27-.17-8.25 7.26-16.1 14.99-23.55 23.06-4.38 4.63-9.71 8.24-13.91 13.05-6.67 8.3-14.48 15.61-22.52 22.55-2.67 2.66-5.04 5.6-7.77 8.2-4.44 4.18-7.8 9.55-13 12.9-1.8 1.22-3.16-1.34-4.41-2.28-5.13-5.87-10.98-11.02-16.36-16.64-4.11-4.77-9-8.77-13.14-13.51 2.44-4.83 7.35-7.57 10.86-11.51 5.88-6.45 12.6-12.06 18.52-18.48 5.93-5.47 10.86-11.93 17.01-17.17z" fill="#8daecc"/></svg>