<svg width="200pt" height="200pt" viewBox="0 0 200 200" xmlns="http://www.w3.org/2000/svg"><path fill="#ed1c25" d="M89.61 22.16c15.26-2.26 31.42-.51 45.14 6.85 4.31 2.4 8.75 4.57 13.06 6.98 5.92 3.26 10.17 8.62 14.97 13.23 3.98 3.85 7.02 8.5 10.01 13.12 4.06 5.73 6.53 12.62 6.84 19.65.41 6.42-3.17 12.09-5.93 17.61-7.05 13.49-26.83 15.86-38.5 7.17-2.63-2.53-4.22-5.89-6.23-8.89-2.24-3.62-5.19-6.71-8.01-9.86-4.01-4.44-6.34-10.12-10.5-14.44-2.93-2.99-5.95-6.03-9.65-8.06-6.77 2.61-10.36 9.54-13.63 15.58-2.75 5.3-9.04 8.03-10.61 14.04-1.35 4.88-3.97 9.25-7.36 12.99-5.11 5.81-9.2 12.39-12.96 19.13 3.49.04 7.01-.04 10.42-.85 7.84-1.83 16.14-1.43 23.85.81 4.42 1.26 8.91 2.25 13.43 3.14 6.87 1.32 13.56 3.76 20.61 4.06 3.49.2 6.99-.11 10.49.13 2.98.21 5.53 2.06 8.46 2.49 2.41-.7 4.57-2.04 6.8-3.17-2.01-.16-4.01-.31-6.01-.47 3.92-2.39 8.01-4.57 11.44-7.68 2.18-1.79 4.05-4.03 6.58-5.35 2-.12 4 .27 5.98.52 3.91-4.91 9.82-7.34 15.41-9.8 2.35 7.85-1.74 15.39-3.44 22.92-1.05 3.91-3.22 7.37-5.49 10.67-3.17 4.57-4.94 10.09-9.07 13.97-5.79 5.61-11.19 11.75-18.06 16.09-6.39 4.1-12.86 8.74-20.57 9.81-8.67 1.37-17.2 4.06-26.06 3.95-11.26.25-22.31-2.77-32.84-6.47-15.51-7.14-29.06-18.76-38-33.36-3.53-5.7-7.54-11.38-8.9-18.07-1.79-10.72-3.82-21.57-2.58-32.48.82-6.18 1.21-12.46 2.76-18.51 2.65-7.98 7.42-15.01 11.81-22.11 4.11-7.05 10.36-12.48 16.29-17.96 11.87-8.59 25.52-14.96 40.05-17.38z"/></svg>