<svg width="200pt" height="200pt" viewBox="0 0 200 200" xmlns="http://www.w3.org/2000/svg"><g fill="#b5070e"><path d="M70.55 47.56c2.53-5.56 4.13-12.28 9.52-15.86 9.63-.3 19.28-.03 28.92-.13 2.69.04 5.67-.52 7.91 1.37-1.09 1.51-2.17 3.07-3.66 4.23-5.8 4.66-10.5 10.72-13.32 17.62-1.08 2.96-3.42 5.34-4.2 8.42-.92 6.24-2.66 12.41-2.28 18.78-.76 15.06 5.78 29.79 15.91 40.71 1.51 1.9 3.7 3.02 5.69 4.34.78 1.42.8 3.13 1.18 4.69-11.67-.39-23.35-.05-35.02-.24-2.35.16-3.48-2.36-4.78-3.9-5.91-9.66-9.25-20.6-11.75-31.58-.38-5.33.01-10.71-.81-16.02 1.01-5.16.14-10.51 1.55-15.62 1.33-5.7 2.44-11.55 5.14-16.81z"/><path d="M103.59 56.55c10.15-.11 20.31.06 30.46-.05 2.45-.03 5.59.24 6.79 2.76 4.42 7.95 8.11 16.34 10.75 25.05 2.5 9.99 1.97 20.37 1.92 30.57-.06 5.04-1.5 9.92-2.66 14.78-1.57 8.98-6.56 16.77-10.57 24.81-.63 1.83-2.48 2.88-4.38 2.79-10.31.09-20.62.03-30.94-.01-1.73.11-3.31-.66-4.86-1.31 3.78-3.84 7.98-7.25 11.72-11.13 4.18-5.28 7.5-11.24 9.52-17.69 2.29-4.02 2.37-8.67 3.12-13.12.65-11.16.46-23.09-5.38-33-3.58-5.96-6.84-12.3-12.07-17-1.68-1.93-4.06-3.57-4.72-6.14.32-.33.97-.99 1.3-1.31z"/></g></svg>