<svg width="199pt" height="200pt" viewBox="0 0 199 200" xmlns="http://www.w3.org/2000/svg"><path fill="#fefefe" d="M32.48 43.89c1.47-.22 2.95-.4 4.44-.42 38.22.1 76.43-.08 114.64.09-.06 2.16-.06 4.33.02 6.5-1.18.17-2.37.28-3.56.34-32.67-.09-65.34-.04-98.02-.04-3.15-.05-6.31-.02-9.45.25-.04 3.92-.04 7.83-.1 11.75 4.49.72 9.03.32 13.55.39 32.51.04 65.01-.08 97.52.07.08 2.27.11 4.53.13 6.8-32.88.21-65.77.04-98.65.08-4.41.1-8.91-.44-13.23.7-.09 3.02-.09 6.04-.03 9.06 1.36.36 2.71.86 4.14.89 35.94.17 71.9-.19 107.83.17-.1 1.92-.16 3.85-.17 5.78-37.04.17-74.09-.06-111.14.13-.12 3.63-.16 7.27-.03 10.91 37.09.3 74.19.02 111.29.17-.03 2.26-.06 4.53-.1 6.79-37.02-.06-74.03.03-111.05-.01-.34 5.23.02 10.5-.7 15.71-.53 4.68.62 9.31.49 13.99-.01 6.86-.08 13.72.09 20.58 12.71.06 25.41.02 38.12.03.56-6.96.26-15.11 5.8-20.27 4.61-4.89 12-4.42 18.06-3.5 9.69 3.02 13.96 14.05 13.33 23.47 8.85.13 17.7.22 26.55-.03.24-10.56.08-21.12.08-31.69-2.41-.44-4.83-.95-7.29-.87-13.01.14-26.04-.27-39.04.57-12.4-.94-24.84-.51-37.26.12-.25 7.72.08 15.45-.23 23.17-2.4 0-4.8-.01-7.2 0-.96-3.79-.63-7.71-.66-11.58.08-6.44-.4-12.95.98-19.29 33.02.05 66.05.06 99.06-.02.66 1.3 1.01 2.72.93 4.19.03 12.75-.03 25.5.01 38.25.09 1.47-.3 2.9-.96 4.21-14.03.01-28.07.17-42.1-.08-.2-7.06 0-15.19-5.14-20.72-4.45-3.58-12.49-2.75-15.22 2.65-2.9 5.35-1.35 11.62-2.22 17.4-13 .24-26 0-39 .11-4.81.27-9.75 1.45-14.43-.34-.09-38.82-.02-77.64-.08-116.46z"/><path fill="#e91e2b" d="M22.49 31.55c46.2-.22 92.42-.02 138.63-.09 1.52-.34 3.65.53 3.38 2.38-.07 46.95.17 93.9-.11 140.84-47.29.07-94.59.03-141.88.04-.24-47.72-.17-95.45-.02-143.17m9.99 12.34c.06 38.82-.01 77.64.08 116.46 4.68 1.79 9.62.61 14.43.34 13-.11 26 .13 39-.11.87-5.78-.68-12.05 2.22-17.4 2.73-5.4 10.77-6.23 15.22-2.65 5.14 5.53 4.94 13.66 5.14 20.72 14.03.25 28.07.09 42.1.08.66-1.31 1.05-2.74.96-4.21-.04-12.75.02-25.5-.01-38.25.08-1.47-.27-2.89-.93-4.19-33.01.08-66.04.07-99.06.02-1.38 6.34-.9 12.85-.98 19.29.03 3.87-.3 7.79.66 11.58 2.4-.01 4.8 0 7.2 0 .31-7.72-.02-15.45.23-23.17 12.42-.63 24.86-1.06 37.26-.12 13-.84 26.03-.43 39.04-.57 2.46-.08 4.88.43 7.29.87 0 10.57.16 21.13-.08 31.69-8.85.25-17.7.16-26.55.03.63-9.42-3.64-20.45-13.33-23.47-6.06-.92-13.45-1.39-18.06 3.5-5.54 5.16-5.24 13.31-5.8 20.27-12.71-.01-25.41.03-38.12-.03-.17-6.86-.1-13.72-.09-20.58.13-4.68-1.02-9.31-.49-13.99.72-5.21.36-10.48.7-15.71 37.02.04 74.03-.05 111.05.01.04-2.26.07-4.53.1-6.79-37.1-.15-74.2.13-111.29-.17-.13-3.64-.09-7.28.03-10.91 37.05-.19 74.1.04 111.14-.13.01-1.93.07-3.86.17-5.78-35.93-.36-71.89 0-107.83-.17-1.43-.03-2.78-.53-4.14-.89-.06-3.02-.06-6.04.03-9.06 4.32-1.14 8.82-.6 13.23-.7 32.88-.04 65.77.13 98.65-.08-.02-2.27-.05-4.53-.13-6.8-32.51-.15-65.01-.03-97.52-.07-4.52-.07-9.06.33-13.55-.39.06-3.92.06-7.83.1-11.75 3.14-.27 6.3-.3 9.45-.25 32.68 0 65.35-.05 98.02.04 1.19-.06 2.38-.17 3.56-.34-.08-2.17-.08-4.34-.02-6.5-38.21-.17-76.42.01-114.64-.09-1.49.02-2.97.2-4.44.42z"/></svg>