<svg width="199pt" height="200pt" viewBox="0 0 199 200" xmlns="http://www.w3.org/2000/svg"><g fill="#fdfefe"><path d="M98.05 30.01c4.82-3.46 11-5 16.89-4.31 2.33 1.8 1.95 5.14.58 7.41-1.73-1.43-2.76-4.54-5.46-3.97-3.31-.38-4.88 3.04-7.02 4.9-2.15 2.52-5.7 3.49-7.42 6.4-2.16 3.46-2.68 7.58-3.49 11.49-1.07 4.69-1.81 9.45-2.72 14.17-.32 4.48-5.09 6.2-8.29 8.43 1.16-7.18 4.07-13.93 5.64-21.01.73-3.24 1.75-6.4 3.18-9.4 2.22-4.92 3.62-10.68 8.11-14.11zm36.31 16.36c3.02-2.51 5.49-6.92 10.07-6 2.91 4.33 4.39 9.76 2.28 14.78-1.25 5.9-7.78 7.39-12.38 9.86-6.37 3.34-13.15 5.67-19.88 8.12-7.46 3.8-15 7.53-22.01 12.14-2.44 1.65-5.41 3.25-6.19 6.34-.96 2.31-1.23 4.96-2.73 7.01-2.83 3.07-6.97 4.52-11 5.21-.76-1.74-2.11-3.37-2.05-5.35 5.09-4.26 11.13-7.38 15.55-12.46 5.82-5.54 12.23-10.42 18-16.01 5.47-5.91 12.26-10.36 17.97-16.01 3.58-3.41 8.88-4.09 12.37-7.63z"/><path d="M129.54 80.65c3.17 1.94 5.96 4.39 8.36 7.21-1.5 3.65-3.01 7.38-5.46 10.51-2.8 2.98-6.56 4.76-9.88 7.08-5.29 3.59-11.65 4.91-17.47 7.36-5.01 2.1-10.31 3.45-15.24 5.74-2.48 1.11-4.59 3.55-4.31 6.41-.19 4.68 3.72 7.85 7.07 10.43 2.16.87 4.55-.1 6.58-.93 4.47-2.01 9.23-3.37 13.55-5.73 4.54-2.26 8.62-5.32 13.01-7.84 3.28-2.08 7.34-1.4 11.01-1.26 4.52.76 9.13 1.87 13.14 4.2 5.23 3.29 6.66 10.34 5.18 15.98-7.26 8.49-16.9 14.51-26.44 20.14-6.31 2.98-13.39 4.19-20.34 3.57-.02-.26-.05-.76-.06-1.02 5.48.08 11.62-.44 15.76-4.47 3.65-3.59 8.01-6.62 10.66-11.07.97-3.4-2.21-5.83-3.21-8.8-7.56 1.38-14.77 4.21-22.36 5.45-9.28 2.04-18.98 2.25-28.36 1.41-4.41-4.01-5.27-10.42-5.29-16.08-2.77-2.14-4.9-5.05-8.03-6.71-3.21-1.81-6.45-4.57-6.84-8.47.23-4.14 2.91-7.54 5.99-10.08-.49 1.52-.98 3.03-1.45 4.55 1.87 2.15 3.97 4.08 6.06 6.01 5.55 1.25 11.19-.8 16.57-2.09 5.63-1.27 10.67-4.17 16.02-6.23 7.01-2.75 13.88-5.84 20.82-8.75 2.31-.89 4.4-2.75 4.8-5.29.29-3.74-.03-7.49.16-11.23z"/></g><path fill="#c4152a" d="M89.36 5.29c2.74-1.11 5.76-.72 8.64-.81 10.29.11 20.64-.81 30.9.19 9.72 3.5 17.61 11.34 22.26 20.45 5.33 7.3 9.95 15.07 15.22 22.4 1.36 12.51-1.22 25.02-4.41 37.07-1.28 5.07-2.29 10.55-.94 15.7 4.29 9.94 9.87 19.27 15.35 28.59 1.84 3.27 3.88 6.49 4.92 10.13.64 8-.04 16.8-4.74 23.55-7.84 6.33-16.32 11.86-24.75 17.37-7.78 5.18-17.08 7.06-26.04 9.08-7.72.91-15.3 2.68-22.91 4.23-4.43 1.06-8.37-1.88-11.96-4.05-7.29-5.31-14.66-10.58-21.27-16.74-4.32-3.82-5.82-9.58-8.95-14.24-5.75-8.64-13.2-16.25-17.15-25.99-2.4-5.83-7.16-11.48-5.65-18.16 1.11-7.77 2.32-15.78 6.28-22.68 2.68-4.88 7.37-8.44 9.31-13.75 4.34-11.12 5.9-23.07 9.45-34.44 3.33-9.26 9.89-16.81 14.99-25.11 3.31-4.61 5.79-10.61 11.45-12.79m8.69 24.72c-4.49 3.43-5.89 9.19-8.11 14.11-1.43 3-2.45 6.16-3.18 9.4-1.57 7.08-4.48 13.83-5.64 21.01 3.2-2.23 7.97-3.95 8.29-8.43.91-4.72 1.65-9.48 2.72-14.17.81-3.91 1.33-8.03 3.49-11.49 1.72-2.91 5.27-3.88 7.42-6.4 2.14-1.86 3.71-5.28 7.02-4.9 2.7-.57 3.73 2.54 5.46 3.97 1.37-2.27 1.75-5.61-.58-7.41-5.89-.69-12.07.85-16.89 4.31m36.31 16.36c-3.49 3.54-8.79 4.22-12.37 7.63-5.71 5.65-12.5 10.1-17.97 16.01-5.77 5.59-12.18 10.47-18 16.01-4.42 5.08-10.46 8.2-15.55 12.46-.06 1.98 1.29 3.61 2.05 5.35 4.03-.69 8.17-2.14 11-5.21 1.5-2.05 1.77-4.7 2.73-7.01.78-3.09 3.75-4.69 6.19-6.34 7.01-4.61 14.55-8.34 22.01-12.14 6.73-2.45 13.51-4.78 19.88-8.12 4.6-2.47 11.13-3.96 12.38-9.86 2.11-5.02.63-10.45-2.28-14.78-4.58-.92-7.05 3.49-10.07 6m-4.82 34.28c-.19 3.74.13 7.49-.16 11.23-.4 2.54-2.49 4.4-4.8 5.29-6.94 2.91-13.81 6-20.82 8.75-5.35 2.06-10.39 4.96-16.02 6.23-5.38 1.29-11.02 3.34-16.57 2.09-2.09-1.93-4.19-3.86-6.06-6.01.47-1.52.96-3.03 1.45-4.55-3.08 2.54-5.76 5.94-5.99 10.08.39 3.9 3.63 6.66 6.84 8.47 3.13 1.66 5.26 4.57 8.03 6.71.02 5.66.88 12.07 5.29 16.08 9.38.84 19.08.63 28.36-1.41 7.59-1.24 14.8-4.07 22.36-5.45 1 2.97 4.18 5.4 3.21 8.8-2.65 4.45-7.01 7.48-10.66 11.07-4.14 4.03-10.28 4.55-15.76 4.47.01.26.04.76.06 1.02 6.95.62 14.03-.59 20.34-3.57 9.54-5.63 19.18-11.65 26.44-20.14 1.48-5.64.05-12.69-5.18-15.98-4.01-2.33-8.62-3.44-13.14-4.2-3.67-.14-7.73-.82-11.01 1.26-4.39 2.52-8.47 5.58-13.01 7.84-4.32 2.36-9.08 3.72-13.55 5.73-2.03.83-4.42 1.8-6.58.93-3.35-2.58-7.26-5.75-7.07-10.43-.28-2.86 1.83-5.3 4.31-6.41 4.93-2.29 10.23-3.64 15.24-5.74 5.82-2.45 12.18-3.77 17.47-7.36 3.32-2.32 7.08-4.1 9.88-7.08 2.45-3.13 3.96-6.86 5.46-10.51-2.4-2.82-5.19-5.27-8.36-7.21z"/></svg>