<svg width="200pt" height="200pt" viewBox="0 0 200 200" xmlns="http://www.w3.org/2000/svg"><path fill="#df0212" d="M62.69 19.69c14.72-7.8 31.84-9.29 48.22-8.19 22.43 2.53 43.79 13.98 58 31.57 4.25 5.47 8.53 11.1 11.02 17.62-5.35.44-11.91-1.2-16.04 3.2-10.11 10.19-20.16 20.43-30.28 30.61-8.09 7.57-15.43 15.9-23.63 23.34-5.83-5.14-11.32-10.68-16.49-16.47 5.77-5.11 11.11-10.64 16.51-16.13 4.2 3.28 7.21 7.92 11.84 10.66 4.5-3.87 8.73-8.11 12.27-12.88-4.08-5.25-9.27-9.48-13.75-14.37-2.92-2.91-5.6-6.36-9.5-8-2.57-.9-4.67 1.29-6.43 2.81C93.59 74.28 82.86 85.2 72 96c-1.84 2-4.5 4.8-2.8 7.68 2.58 4.32 6.81 7.28 10.22 10.91 6.71 6.97 14.18 13.17 20.64 20.39 2.48 2.55 4.84 5.48 8.17 6.95 2.14.99 4.23-.65 5.83-1.92 3.95-3.48 7.46-7.43 11.19-11.14 14.08-13.79 27.87-27.88 41.91-41.71 2.95-2.75 5.39-6.19 8.98-8.15 3.32-.48 7.25-1.04 10.27.61 2.18 5.14 2.23 10.88 2.38 16.38-.02 6.74.25 13.6-1.51 20.18-1.38 5.3-2.57 10.66-4.52 15.79-8.46 20.45-24.48 37.89-44.73 47.05-8.58 3.73-17.52 7.2-26.96 7.69-16.97 1.79-34.67-.76-49.79-8.93-18.69-9.08-33.51-25.39-41.55-44.48-7.28-17.06-8.77-36.44-4.69-54.49 3.85-14.84 11.03-28.97 21.75-40.02 7.03-8.25 16.4-14.09 25.9-19.1m-3.65 42.37C47.56 72.89 36.82 84.49 25.53 95.52c-1.47 1.51-3.18 2.93-4.05 4.9-.79 2.53.77 4.9 2.52 6.59 11.05 10.94 22.02 21.97 33.01 32.97 1.65 1.75 3.97 3.31 6.48 2.48 2.5-1.42 4.4-3.62 6.45-5.58 3.49-3.58 7.3-6.86 10.33-10.86-3.75-4.38-7.8-8.54-12.23-12.23-1.98 1.51-3.95 3.02-5.96 4.48-3.95-3.14-7.13-7.1-10.82-10.52-1.98-2-4.35-3.82-5.28-6.58 1.96-2.11 4.11-4.03 6.28-5.92 3.47-3.07 6.18-6.89 9.65-9.96 1.75 1.43 3.46 2.9 5.2 4.34 5.31-3.12 9.33-8.11 13.46-12.62-3.8-4.7-8.42-8.63-12.63-12.94-2.26-2.24-6.12-5.22-8.9-2.01z"/></svg>