<svg width="200pt" height="200pt" viewBox="0 0 200 200" xmlns="http://www.w3.org/2000/svg"><path fill="#94424e" d="M84.83 33.79c3.16-3 6.1-6.47 10.23-8.15 4.02-.65 8.21.31 11.76 2.25 4.61 3.81 8.27 8.6 12.52 12.79 5.86 5.58 12.26 11.03 16.03 18.32-7.72 5.52-16.46 9.54-23.75 15.67-1.64.93-3.22 3.5-5.3 2.35-4.97-2.41-9.78-5.13-14.8-7.41-6.61-3.66-13.77-6.19-20.31-9.98 1.26 5.3 4.33 10.04 4.86 15.54.3 3.86.36 7.77-.07 11.61-2.63 12.46-7.19 24.58-14.09 35.31-1.99 3.05-4.39 5.87-5.75 9.29 2.77-1.08 5.24-2.75 7.52-4.63 4.11-3.41 9.01-5.67 13.29-8.83 5.09-3.51 9.88-7.57 15.38-10.43 4.55-1.04 8.06 2.64 11.84 4.48 8.3 4.27 16.36 9 24.61 13.38 1.59.92 3.38 1.35 5.18 1.63-5.34-11.67-7.16-25.18-3.75-37.67 2.59-9.03 5.4-18.06 9.75-26.42 5.63 2.41 9.48 7.27 13.29 11.84 3.94 4.73 9.14 8.17 13.26 12.73 3.38 3.71 7.97 6.62 9.81 11.49 2.25 5.04.22 11.08-3.39 14.96-6.51 6.83-13.48 13.22-19.85 20.2-7.05 8.25-15.33 15.34-22.71 23.29-7.76 6.87-14.3 15.01-22.2 21.72-3.61 3.3-8.91 3.88-13.51 2.76-4.23-1.55-7.44-4.89-10.59-7.97-19.6-19.73-39.4-39.27-59.01-58.99-1.77-1.84-3.63-3.79-4.33-6.32-.8-5.32-.92-11.54 3.36-15.5 8.2-7.78 15.73-16.25 24.26-23.69 8.07-7.63 15.69-15.73 23.78-23.35 4.59-3.71 8.37-8.26 12.68-12.27z"/></svg>