<svg width="200pt" height="200pt" viewBox="0 0 200 200" xmlns="http://www.w3.org/2000/svg"><g fill="#083073"><path d="M57.91 30c8.82-4.43 18.27-8.17 28.25-8.46 9.72-.16 19.65-.72 29.05 2.28 15.28 3.46 28.58 12.52 39.74 23.23 1.7 1.73 3.4 3.55 4.41 5.78-5.1 6.63-11.86 12.86-20.44 14.15-8.69 1.92-17.27-1.67-25.06-5.15-8.43-4.34-16.01-10.31-24.93-13.68-5.62-2.03-11.67-1.85-17.55-1.73-2.91-.07-5.69 1.02-8.14 2.52 1.4 3.19 5.26 2.97 8.12 3.8 7.19 1.35 13.16 5.86 19.05 9.91 9.71 7.94 18.07 17.73 29.18 23.81 5.7 3.3 12.72 4.08 18.99 2.09 6.57-2.08 13.13-4.96 18.1-9.88 3.32-3.22 6.38-6.82 10.37-9.27 2.85.95 3.19 4.17 4.02 6.64 1.01 4.09 2.58 8.03 3.38 12.17.68 2.81-1.66 4.98-3.34 6.88-7.98 8.16-18.55 13.18-29.18 16.93-5.06 1.83-10.51 1.83-15.81 1.57-7.73-.45-14.74-4.35-20.89-8.79-6.66-5-13.37-9.94-19.71-15.34-5.07-4.44-10.93-7.81-16.45-11.63-2.89-1.88-5.87-3.98-9.41-4.28-10.23-.5-20.96-.77-30.41 3.84-4.25 1.37-8.45 5.09-13.08 3.83 1.58-7.76 5.78-14.67 9.62-21.49C33.97 47.54 44.49 36.37 57.91 30z"/><path d="M18.03 112.99c11.38-9.63 24.91-17.51 39.93-19.32 8.41-.37 16.65 2.95 23.37 7.86 10.9 7.71 20.39 17.25 31.6 24.55 13.19 8.9 30.77 11.28 45.67 5.49 4.41-1.51 8.11-5.27 12.96-5.2.5 1.4 1.09 2.9.3 4.33-3.75 10.66-9.68 20.56-17.03 29.12-7.04 7.07-14.45 14.15-23.49 18.59-11.11 5.07-23.14 7.94-35.29 8.93-14.53.7-28.68-4.19-41.38-10.88-6.24-3.16-11.5-7.83-16.67-12.46-2.51-2.38-5.05-4.91-6.5-8.08.28-3.63 3.68-6.03 6.35-8.1 6.13-4.18 13.29-8.55 21.05-7.11 11.27 1.81 20.24 9.4 30.3 14.16 5.93 2.81 11.91 6.1 18.6 6.51 4.79.23 9.63.47 14.4-.2 2.16-.18 3.7-1.77 5.14-3.23-4.14-1.69-8.57-2.34-12.89-3.38-7.66-1.99-13.01-8.17-18.79-13.12-7.51-6.52-14.02-14.51-23.19-18.83-6.43-3.45-14.07-5.55-21.28-3.42-8.42 2.57-16.02 7.58-22.16 13.85-2.16 2.14-4.41 4.27-7.11 5.71-4.91-5-5.74-12.39-7.06-18.95-.94-2.84 1.24-5.08 3.17-6.82z"/></g></svg>