<svg width="200pt" height="200pt" viewBox="0 0 200 200" xmlns="http://www.w3.org/2000/svg"><path fill="#f1f8fc" d="M0 0h200v200H0V0m98.56 29.6c-17.15 2.57-34.86 7.98-47.51 20.44-8.83 7.88-16.13 17.66-20.25 28.81-3.44 9.7-7.05 19.68-6.22 30.15-.71 9.01 3.63 17.09 6.11 25.47 4.11 11.66 11.69 21.8 20.98 29.86 11.78 11.3 27.74 16.42 43.34 19.81 9.08 1.32 18.35.22 26.91-3.09 12.13-2.93 23.55-8.86 32.56-17.54 5.74-5.41 13.14-10.64 14.48-18.96-5.24-.03-10.5-.24-15.74.05-3.02.12-5.18 2.51-7.2 4.47-4.16 4.28-9.05 7.79-14.13 10.9-6.53 3.61-13.84 5.58-21.12 7.06-11.93 1.79-24.1-.96-35.06-5.69-8.5-3.55-14.9-10.45-21.56-16.57-5.62-5.17-6.78-12.99-9.35-19.81-2.06-5.4-3.38-11.15-3.3-16.96.16-9.34 1.33-18.85 5.45-27.35 2.89-7.68 8.88-13.48 14.95-18.73 10.37-9.94 24.76-14.89 38.96-15.4 9.37-.74 18.68 1.78 27.27 5.33 5.05 1.96 9.08 6.7 14.8 6.64 6.18.02 12.37.1 18.54-.31-3.29-5.76-8.95-9.54-13.95-13.71-7.1-4.69-14.66-9.14-23.07-10.98-8.44-2.2-17.04-5.11-25.89-3.89m-7.62 40.35c-4.61 5.09-5.63 12.9-2.92 19.17 3.67 9.02 7.96 17.8 11 27.07 2.31 5.85 3.99 12.08 7.5 17.36 1.33 2.33 4.29 1.84 6.56 1.97 9.25-.21 18.62.77 27.75-1.25-.55-3.48-1.58-6.88-3.17-10.03-3.91-7.83-6.42-16.24-9.67-24.34-2.64-7.17-6.35-13.89-8.9-21.1-1.3-3.19-2.27-6.68-4.63-9.28-2.92-2.46-7.05-1.83-10.59-2.02-4.34.13-9.36-.56-12.93 2.45m49.42-.64c-6.31.75-8.06 8.44-8.58 13.71 1.12 6.51 4.86 12.24 6.53 18.63 4.48 10.18 7.34 21.17 13.45 30.57 1.48 2.47 4.71 2.17 7.19 2.31 6.02-.11 12.06.18 18.08-.16 2.35-.16 6.16-1.26 5.42-4.32-.57-5.03-3.49-9.34-5.19-14.01-1.77-4.83-3.7-9.59-5.86-14.26-4.48-9.74-6.13-20.79-12.57-29.58-1.42-2.34-4.35-2.56-6.8-2.73-3.89-.21-7.79-.45-11.67-.16M79.13 99.98c-5.41 8.49-8.11 18.26-11.5 27.64-.89 2.51-1.23 5.16-1.5 7.8 8.3.25 16.62.35 24.93.24 1.97-.17 4.58.13 5.56-2.05-.58-5.31-3.68-9.89-5.38-14.87-2.39-7.12-6.74-13.46-8.25-20.9-1.32.62-2.98.85-3.86 2.14z"/><path fill="#05043e" d="M98.56 29.6c8.85-1.22 17.45 1.69 25.89 3.89 8.41 1.84 15.97 6.29 23.07 10.98 5 4.17 10.66 7.95 13.95 13.71-6.17.41-12.36.33-18.54.31-5.72.06-9.75-4.68-14.8-6.64-8.59-3.55-17.9-6.07-27.27-5.33-14.2.51-28.59 5.46-38.96 15.4-6.07 5.25-12.06 11.05-14.95 18.73-4.12 8.5-5.29 18.01-5.45 27.35-.08 5.81 1.24 11.56 3.3 16.96 2.57 6.82 3.73 14.64 9.35 19.81 6.66 6.12 13.06 13.02 21.56 16.57 10.96 4.73 23.13 7.48 35.06 5.69 7.28-1.48 14.59-3.45 21.12-7.06 5.08-3.11 9.97-6.62 14.13-10.9 2.02-1.96 4.18-4.35 7.2-4.47 5.24-.29 10.5-.08 15.74-.05-1.34 8.32-8.74 13.55-14.48 18.96-9.01 8.68-20.43 14.61-32.56 17.54-8.56 3.31-17.83 4.41-26.91 3.09-15.6-3.39-31.56-8.51-43.34-19.81-9.29-8.06-16.87-18.2-20.98-29.86-2.48-8.38-6.82-16.46-6.11-25.47-.83-10.47 2.78-20.45 6.22-30.15 4.12-11.15 11.42-20.93 20.25-28.81C63.7 37.58 81.41 32.17 98.56 29.6z"/><path d="M90.94 69.95c3.57-3.01 8.59-2.32 12.93-2.45 3.54.19 7.67-.44 10.59 2.02 2.36 2.6 3.33 6.09 4.63 9.28 2.55 7.21 6.26 13.93 8.9 21.1 3.25 8.1 5.76 16.51 9.67 24.34 1.59 3.15 2.62 6.55 3.17 10.03-9.13 2.02-18.5 1.04-27.75 1.25-2.27-.13-5.23.36-6.56-1.97-3.51-5.28-5.19-11.51-7.5-17.36-3.04-9.27-7.33-18.05-11-27.07-2.71-6.27-1.69-14.08 2.92-19.17zM79.13 99.98c.88-1.29 2.54-1.52 3.86-2.14 1.51 7.44 5.86 13.78 8.25 20.9 1.7 4.98 4.8 9.56 5.38 14.87-.98 2.18-3.59 1.88-5.56 2.05-8.31.11-16.63.01-24.93-.24.27-2.64.61-5.29 1.5-7.8 3.39-9.38 6.09-19.15 11.5-27.64z" fill="#0cbbf5"/><path fill="#7efb0c" d="M140.36 69.31c3.88-.29 7.78-.05 11.67.16 2.45.17 5.38.39 6.8 2.73 6.44 8.79 8.09 19.84 12.57 29.58 2.16 4.67 4.09 9.43 5.86 14.26 1.7 4.67 4.62 8.98 5.19 14.01.74 3.06-3.07 4.16-5.42 4.32-6.02.34-12.06.05-18.08.16-2.48-.14-5.71.16-7.19-2.31-6.11-9.4-8.97-20.39-13.45-30.57-1.67-6.39-5.41-12.12-6.53-18.63.52-5.27 2.27-12.96 8.58-13.71z"/></svg>