<svg width="672" height="672" viewBox="0 0 504 504" xmlns="http://www.w3.org/2000/svg"><path fill="#fefcde" d="M137.97 238c1.5 1.76 8.4-1.94 9.06 1-1.52-1.8-8.39 1.96-9.06-1z"/><g fill="#f7cb16"><path d="M173.32 45.3c32.11-14.05 67.8-16.37 102.68-15.24 13.29 1.97 26.93 2.93 39.32 8.62 17.48 1.47 31.89 12.72 47.67 19.35 13.79 5.62 23.64 17.42 36.61 24.39 3.27 4.72 6.79 9.18 11.91 12.04 3.55 4.79 7.12 9.58 12.32 12.73 2.41 5.92 6.31 10.74 10.66 15.31 4.56 5.19 6.53 12.04 10.41 17.59 10.36 11.18 12.89 26.94 19.65 40.26 4.02 20 10.57 39.67 9.76 60.36 2.26 15.66-1.02 31.27-1.87 46.88-1.79 9.14-6.09 19.02-7.31 27.41-.51-10.67-14.56-9.89-21.91-14.25-20.35-7.95-42.95-.42-63.75-5.33-8.99-5.09-19.33 4.09-27.81-2.08-6.99-6.15-12.05-14.21-17.22-21.9-2.76-7.08 6.23-14.92.25-21.15-6.3-2.75-17.22-3.59-15.58-13.32 2.03-10.2-11.85-13.55-10.52-23.64-1.71-3.66 1.24-11.3 6.36-7.29 15.53 9.83 28.31 23.53 44.3 32.72 12.39 10.74 26.48 19.25 40.8 27.13 13 8.69 29.37 5.95 42.97 12.97 6.75 2.54 23.62 3.57 19.99-8.85-5.2-14.22-22.89-17.84-35.44-23.52-20.46-6.58-40.88-13.6-59.37-24.8-19.4-10.21-39.1-20.1-56.84-33.07-7.77-3.57-2.9-14.3 1.67-18.56 9.44-8.9 16.39-21.37 14.71-34.74-1.99-12.84 1.62-28.96-9.61-38.5-9.65-4.64-19 2.55-23.35 10.95-10.59 10.57-19.3 24.42-17.72 40.03 2.15 1.9 5.43 3.19 8 1.28 4.63-4.11 5.44-11.65 11.95-14.04 7.43-7.16 15.2 3.88 12.97 10.92-1.74 7.85-5.11 19.04-14.09 20.89-4.9-.38-9.38-8.11-14.58-4.57-6.83 9.04-.65 20.72.48 30.57-7.54 19.2-15.76 38.11-23.81 57.07-1.56 6.67-9.23 9.49-15.42 9.6-25.91 1.91-51.35-5.21-75.5-13.66-10.13-6.23-23.21-1.5-33.28-7.63 14.27-1.35 29.5-4.91 43.34.53 14.06 4.58 29.12 5.36 43.77 6.17 7.1-.55 8.91-8.04 4.87-12.74-12.28-3.03-25.49-1.9-37.44-6.43-18.33-1.83-36.98-7.54-55.32-2.71-8.02 1.27-15.92 3.6-24.03 3.95-.35-8.47 10.33-10.2 15.88-14.2 7.16-2.32 13.97-7.01 21.74-6.32 26.25 10.25 55.07 14.9 83.1 11.19 3.25-1.51 9.97-.51 10.81-5.26 1.68-3.6-1.13-7.12-3.86-9.21-16.9-1.12-34.18 2.85-50.79-1.99-11.59-2.32-23.88-4.19-33.59-11.45-9.21-4.96-20.74-3-27.92 4.6-13.44 8.97-28.18 15.88-42.4 23.54-7.04 2.49-18.52 7.73-14.06 17.23 6.07 3.67 14.41-3.63 20.96.02-3.7 6.41-1.03 12.58 3.8 17.19 6.87 11.22-9.97 16.14-18.25 15.27-10.55-2.01-6.51-23.63-20.5-17.73-2.26 11.5 1.16 26.18 10.3 34.98 10.25 4.23 22.06 3.27 30.83-3.75 11.53-5.73 21.51 2.45 27 11.8 3.24 6.94 13.59 10.22 12.05 19.11.92 4.09-4.13 5.29-6.41 7.6-18.6 9.37-38.34 16.6-55.57 28.46-4.78 2.34-11.23 5.91-9.46 12.13-4.42-7.03-8.73-15.8-11.61-24.22-2.74-7.3-8.34-13.67-8.22-21.89-.2-5.45-2.49-10.34-4.6-15.25-7.01-33.35-5.49-68.34 1.26-101.49 5.72-13.23 6.95-28.07 14.24-40.66 8.35-11.35 11.52-25.37 21.35-35.66 26.18-32.2 58.73-61.91 98.27-75.74M137.97 238c.67 2.96 7.54-.8 9.06 1-.66-2.94-7.56.76-9.06-1z"/><path d="M291.36 213.27c9.11-.58 6.29 13.16.41 16.49-8.5 15.16 19.9 8.98 13.29 23.23-5.33 2.65-12.2 5.12-16.05 10.08-2.79 6.58 4.8 11.51 10.97 9.92 11.31-2.51 22.07 4.34 26.98 14.11.52 3.35.61 9.19-3.92 9.98-36.32 14.17-76.57 6.11-114.07.99-7.9-2.39-12.79-10.26-20.96-12.14-5.79-1.88-13.25 2.99-17.17-3.75-9.82-13.25-27.15-15.19-40.84-22.35-.14-4.05 4.46-5.14 7.69-4.59 22.55 2.31 41.14 17.59 64.18 18.07 16.1 0 32.58 5.61 48.46 1.09 6.15-.27 8.7 6.23 13.3 9.02 7.83 2.34 8.06-10.95 10.53-15.35 6.62-17.73 2.38-40.83 17.2-54.8zm-150.04 74.02c7.99.95 15.78 6.83 24.69 4.71 6.89-2.77 17.1 7.97 8.84 12.82-5.81 2.33-13.41 1.75-19.52-.19-5.59-4.71-11.24-9.57-16.29-14.76-.61-1.75.98-2.15 2.28-2.58zm47.04 24.04c6.63-1.46 15.27-.32 16.63 7.69-2.7 6.32-10.51 6.7-16.31 8.65-5.23 1.72-12.36-5.43-8.17-10.11 1.74-3 4.62-5.08 7.85-6.23zm141.49 3.42c7.02-3.53 14.72.48 19.55 5.82 21.76 24.59 48.73 43.9 75.77 62.31 2.12 2.23 4.64-.06 6.74-1.07-9.83 10.33-17.67 23.04-29.15 31.94-19.69 18.02-42.28 31.83-66.87 42.08-16.65 4.91-33.2 12.25-50.8 12.32-2.1.41-3.89 1.68-5.9 2.3-44.39 4.77-88.52-4.7-127.89-24.77-17.76-11.78-38.67-20.74-50.17-39.71-1.09-2.76-6.58.97-6.29-2.7 7.03 2.69 9.23-7.84 15.8-8.64 11.9-10.46 24.5-19.81 38.26-27.68 11.52-5.55 22.71-13.28 35.76-14.38 21.78 8.32 43.48 17.29 66.61 21.29 12.56 3.75 26.16 7.54 39.15 5.68 10.63-1.36 11.84-19.66.56-20.42-24.58-5.04-49.77-7.12-73.87-14.23-3.02-1.77-8.57-3.29-5.77-8.27 11.92-5.73 23.61-15.36 37.63-13.46 15.77 1.41 31.62.85 47.4.1 11.19-2.67 22.07-6.71 33.48-8.51zm52.64 8.76c-2.73-3.02-.6-7.77 3.52-7.53 24.08.68 48.36 7.28 69.03 19.87 2.16-.14 3.17-2.85 4.61-4.26-5.21 11.79-11.33 24.14-18.11 35.5-.49-2.08-.66-4.71-2.89-5.7-10.79-4.5-20.51-11.07-29.5-18.49-8.63-6.96-19.04-11.17-26.66-19.39zm-244.63 9.3c6.3-3.17 15.15-6.7 21.11-.77 3.45 2.08 7.58 7.72 2.54 10.5-24.7 17.14-54.97 24.86-79.34 42.78-.59 1.6.22 3.18.84 4.62-4.38.89-1.19-6.22-3.87-8.07-3.15-2.53-5.79-5.63-8.2-8.85 6.91 4.15 12.3-4.2 16.44-8.66 12.75-15.88 32.04-24.16 50.48-31.55z"/></g><path fill="#8e2933" d="M294.78 107.77c4.35-8.4 13.7-15.59 23.35-10.95 11.23 9.54 7.62 25.66 9.61 38.5 1.68 13.37-5.27 25.84-14.71 34.74-4.57 4.26-9.44 14.99-1.67 18.56 17.74 12.97 37.44 22.86 56.84 33.07 18.49 11.2 38.91 18.22 59.37 24.8 12.55 5.68 30.24 9.3 35.44 23.52 3.63 12.42-13.24 11.39-19.99 8.85-13.6-7.02-29.97-4.28-42.97-12.97-14.32-7.88-28.41-16.39-40.8-27.13-15.99-9.19-28.77-22.89-44.3-32.72-5.12-4.01-8.07 3.63-6.36 7.29-1.33 10.09 12.55 13.44 10.52 23.64-1.64 9.73 9.28 10.57 15.58 13.32 5.98 6.23-3.01 14.07-.25 21.15 5.17 7.69 10.23 15.75 17.22 21.9 8.48 6.17 18.82-3.01 27.81 2.08 20.8 4.91 43.4-2.62 63.75 5.33 7.35 4.36 21.4 3.58 21.91 14.25-.73 5.77-2.67 11.49-5.48 16.59-1.44 1.41-2.45 4.12-4.61 4.26-20.67-12.59-44.95-19.19-69.03-19.87-4.12-.24-6.25 4.51-3.52 7.53 7.62 8.22 18.03 12.43 26.66 19.39 8.99 7.42 18.71 13.99 29.5 18.49 2.23.99 2.4 3.62 2.89 5.7-2.43 5.07-6.6 9.8-9.63 14.72-2.1 1.01-4.62 3.3-6.74 1.07-27.04-18.41-54.01-37.72-75.77-62.31-4.83-5.34-12.53-9.35-19.55-5.82-11.41 1.8-22.29 5.84-33.48 8.51-15.78.75-31.63 1.31-47.4-.1-14.02-1.9-25.71 7.73-37.63 13.46-2.8 4.98 2.75 6.5 5.77 8.27 24.1 7.11 49.29 9.19 73.87 14.23 11.28.76 10.07 19.06-.56 20.42-12.99 1.86-26.59-1.93-39.15-5.68-23.13-4-44.83-12.97-66.61-21.29-13.05 1.1-24.24 8.83-35.76 14.38-13.76 7.87-26.36 17.22-38.26 27.68-6.57.8-8.77 11.33-15.8 8.64-4.47-3.93-8.02-8.78-11.83-13.33-.62-1.44-1.43-3.02-.84-4.62 24.37-17.92 54.64-25.64 79.34-42.78 5.04-2.78.91-8.42-2.54-10.5-5.96-5.93-14.81-2.4-21.11.77-18.44 7.39-37.73 15.67-50.48 31.55-4.14 4.46-9.53 12.81-16.44 8.66-3.66-3.28-5.36-8.71-8.31-12.81-1.77-6.22 4.68-9.79 9.46-12.13 17.23-11.86 36.97-19.09 55.57-28.46 2.28-2.31 7.33-3.51 6.41-7.6 1.54-8.89-8.81-12.17-12.05-19.11-5.49-9.35-15.47-17.53-27-11.8-8.77 7.02-20.58 7.98-30.83 3.75-9.14-8.8-12.56-23.48-10.3-34.98 13.99-5.9 9.95 15.72 20.5 17.73 8.28.87 25.12-4.05 18.25-15.27-4.83-4.61-7.5-10.78-3.8-17.19-6.55-3.65-14.89 3.65-20.96-.02-4.46-9.5 7.02-14.74 14.06-17.23 14.22-7.66 28.96-14.57 42.4-23.54 7.18-7.6 18.71-9.56 27.92-4.6 9.71 7.26 22 9.13 33.59 11.45 16.61 4.84 33.89.87 50.79 1.99 2.73 2.09 5.54 5.61 3.86 9.21-.84 4.75-7.56 3.75-10.81 5.26-28.03 3.71-56.85-.94-83.1-11.19-7.77-.69-14.58 4-21.74 6.32-5.55 4-16.23 5.73-15.88 14.2 8.11-.35 16.01-2.68 24.03-3.95 18.34-4.83 36.99.88 55.32 2.71 11.95 4.53 25.16 3.4 37.44 6.43 4.04 4.7 2.23 12.19-4.87 12.74-14.65-.81-29.71-1.59-43.77-6.17-13.84-5.44-29.07-1.88-43.34-.53 10.07 6.13 23.15 1.4 33.28 7.63 24.15 8.45 49.59 15.57 75.5 13.66 6.19-.11 13.86-2.93 15.42-9.6 8.05-18.96 16.27-37.87 23.81-57.07-1.13-9.85-7.31-21.53-.48-30.57 5.2-3.54 9.68 4.19 14.58 4.57 8.98-1.85 12.35-13.04 14.09-20.89 2.23-7.04-5.54-18.08-12.97-10.92-6.51 2.39-7.32 9.93-11.95 14.04-2.57 1.91-5.85.62-8-1.28-1.58-15.61 7.13-29.46 17.72-40.03m-3.42 105.5c-14.82 13.97-10.58 37.07-17.2 54.8-2.47 4.4-2.7 17.69-10.53 15.35-4.6-2.79-7.15-9.29-13.3-9.02-15.88 4.52-32.36-1.09-48.46-1.09-23.04-.48-41.63-15.76-64.18-18.07-3.23-.55-7.83.54-7.69 4.59 13.69 7.16 31.02 9.1 40.84 22.35 3.92 6.74 11.38 1.87 17.17 3.75 8.17 1.88 13.06 9.75 20.96 12.14 37.5 5.12 77.75 13.18 114.07-.99 4.53-.79 4.44-6.63 3.92-9.98-4.91-9.77-15.67-16.62-26.98-14.11-6.17 1.59-13.76-3.34-10.97-9.92 3.85-4.96 10.72-7.43 16.05-10.08 6.61-14.25-21.79-8.07-13.29-23.23 5.88-3.33 8.7-17.07-.41-16.49m-150.04 74.02c-1.3.43-2.89.83-2.28 2.58 5.05 5.19 10.7 10.05 16.29 14.76 6.11 1.94 13.71 2.52 19.52.19 8.26-4.85-1.95-15.59-8.84-12.82-8.91 2.12-16.7-3.76-24.69-4.71m47.04 24.04c-3.23 1.15-6.11 3.23-7.85 6.23-4.19 4.68 2.94 11.83 8.17 10.11 5.8-1.95 13.61-2.33 16.31-8.65-1.36-8.01-10-9.15-16.63-7.69z"/></svg>