<svg width="264" height="200pt" viewBox="0 0 198 200" xmlns="http://www.w3.org/2000/svg"><path fill="#e37320" d="M0 0h198v200H0V0m110.37 11.41c-4.92.34-7.12 5.24-7.29 9.59-.26 32 .06 64.01-.12 96.01 2.35 7.89-7.38 10.19-12.89 9-.77-11.99 1.19-24.2-1.02-36.04.71-4.74-3.78-5.89-7.06-6.98-12.82.28-24.76 5.71-37.01 8.95-3.79.41-4.67 4.85-6.62 7.43-1.04 14.74.28 29.55-.66 44.3-1.17 5.08-7.4 2.9-10.93 4.97-4.24 2.14-9.29.63-13.52 2.6-4.21 4.78-2.87 12.83.94 17.53 18.32 3.28 35.42 11.49 53.91 14 22.2-1.69 42.81-10.94 64.4-15.49 25.44-5.25 44.8-32.49 38.74-58.4-.9-10.7-8.95-18.13-16.26-24.99 1.47-6.7 7.45-12.44 8.13-19.84 1.42-12.2 1.97-26.6-6.81-36.35-10.7-13.58-29.02-19.61-45.93-16.29M74.4 20.52C63.15 23.68 51.07 26 41.2 32.18c-6.65 11.4-1.8 25.35-3.16 37.83-1.69 7.32 7.11 14.11 13.62 10.62 11.53-4.1 23.62-6.44 35.01-10.94 4.27-6.39 3.26-14.41 3.39-21.69-.45-8.49 1.3-17.63-2.49-25.59-3.36-3.77-8.73-2.48-13.17-1.89z"/><g fill="#f7d3bd"><path d="M110.37 11.41c16.91-3.32 35.23 2.71 45.93 16.29 8.78 9.75 8.23 24.15 6.81 36.35-.68 7.4-6.66 13.14-8.13 19.84 7.31 6.86 15.36 14.29 16.26 24.99 6.06 25.91-13.3 53.15-38.74 58.4-21.59 4.55-42.2 13.8-64.4 15.49-18.49-2.51-35.59-10.72-53.91-14-3.81-4.7-5.15-12.75-.94-17.53 4.23-1.97 9.28-.46 13.52-2.6 3.53-2.07 9.76.11 10.93-4.97.94-14.75-.38-29.56.66-44.3 1.95-2.58 2.83-7.02 6.62-7.43 12.25-3.24 24.19-8.67 37.01-8.95 3.28 1.09 7.77 2.24 7.06 6.98 2.21 11.84.25 24.05 1.02 36.04 5.51 1.19 15.24-1.11 12.89-9 .18-32-.14-64.01.12-96.01.17-4.35 2.37-9.25 7.29-9.59m2.87 7.68c-.26.29-.8.86-1.06 1.15-.52 34.57.06 69.18-.22 103.77-.18 1.81.48 6.87-2.65 7.29-9.08 2.02-17.86 5.53-27.12 6.64-3.38-14.43-.53-30-.31-44.74-11.46-1.92-23.99 4.19-34.72 8-1.1 16.56 1.26 33.51-1.07 49.87-6.39 5.98-17.4 3.75-24.35 8.93 2.06 1.81 4.9 2.59 7.4 3.66 15.27 2.73 29.77 10.89 45.46 9.86 20.57-5.49 41.06-11.23 61.41-17.51 16.39-6.76 30.59-23.39 27.25-42.12-.27-13.23-11.04-22.94-23.1-26.17.58-5.2 6.93-7.92 9.06-12.49 7.69-12.95 9.22-31.44-.95-43.51-8.41-10.08-22.44-13.52-35.03-12.63z"/><path d="M74.4 20.52c4.44-.59 9.81-1.88 13.17 1.89 3.79 7.96 2.04 17.1 2.49 25.59-.13 7.28.88 15.3-3.39 21.69-11.39 4.5-23.48 6.84-35.01 10.94-6.51 3.49-15.31-3.3-13.62-10.62 1.36-12.48-3.49-26.43 3.16-37.83 9.87-6.18 21.95-8.5 33.2-11.66m2.07 8.15c-9.41 4.17-20.68 4.25-29.29 9.54-.57 10.89-.07 21.85-.13 32.76 9.63.95 18.24-4.29 27.43-6.23 2.23-.24 6.97-1.45 6.51-4.73.1-10.68.07-21.37-.07-32.05l-4.45.71z"/></g><g fill="#c50810"><path d="M113.24 19.09c12.59-.89 26.62 2.55 35.03 12.63 10.17 12.07 8.64 30.56.95 43.51-2.13 4.57-8.48 7.29-9.06 12.49 12.06 3.23 22.83 12.94 23.1 26.17 3.34 18.73-10.86 35.36-27.25 42.12-20.35 6.28-40.84 12.02-61.41 17.51-15.69 1.03-30.19-7.13-45.46-9.86-2.5-1.07-5.34-1.85-7.4-3.66 6.95-5.18 17.96-2.95 24.35-8.93 2.33-16.36-.03-33.31 1.07-49.87 10.73-3.81 23.26-9.92 34.72-8-.22 14.74-3.07 30.31.31 44.74 9.26-1.11 18.04-4.62 27.12-6.64 3.13-.42 2.47-5.48 2.65-7.29.28-34.59-.3-69.2.22-103.77.26-.29.8-.86 1.06-1.15z"/><path d="m76.47 28.67 4.45-.71c.14 10.68.17 21.37.07 32.05.46 3.28-4.28 4.49-6.51 4.73-9.19 1.94-17.8 7.18-27.43 6.23.06-10.91-.44-21.87.13-32.76 8.61-5.29 19.88-5.37 29.29-9.54z"/></g></svg>