<svg version="1.1" id="图层_1" xmlns="http://www.w3.org/2000/svg" x="0" y="0" viewBox="0 0 264 200" style="enable-background:new 0 0 264 200" xml:space="preserve"><style>.st1{fill:#f7d3bd}.st2{fill:#c50810}</style><path d="M143.4 11.4c-4.9.3-7.1 5.2-7.3 9.6-.3 32 .1 64-.1 96 2.4 7.9-7.4 10.2-12.9 9-.8-12 1.2-24.2-1-36 .7-4.7-3.8-5.9-7.1-7-12.8.3-24.8 5.7-37 8.9-3.8.4-4.7 4.8-6.6 7.4-1 14.7.3 29.6-.7 44.3-1.2 5.1-7.4 2.9-10.9 5-4.2 2.1-9.3.6-13.5 2.6-4.2 4.8-2.9 12.8.9 17.5 18.3 3.3 35.4 11.5 53.9 14 22.2-1.7 42.8-10.9 64.4-15.5 25.4-5.2 44.8-32.5 38.7-58.4-.9-10.7-8.9-18.1-16.3-25 1.5-6.7 7.4-12.4 8.1-19.8 1.4-12.2 2-26.6-6.8-36.3-10.6-13.6-28.9-19.6-45.8-16.3m-36 9.1C96.2 23.7 84.1 26 74.2 32.2 67.6 43.6 72.4 57.5 71 70c-1.7 7.3 7.1 14.1 13.6 10.6 11.5-4.1 23.6-6.4 35-10.9 4.3-6.4 3.3-14.4 3.4-21.7-.4-8.5 1.3-17.6-2.5-25.6-3.3-3.8-8.7-2.5-13.1-1.9z" style="fill:#e37320"/><path class="st1" d="M143.4 11.4c16.9-3.3 35.2 2.7 45.9 16.3 8.8 9.8 8.2 24.1 6.8 36.4-.7 7.4-6.7 13.1-8.1 19.8 7.3 6.9 15.4 14.3 16.3 25 6.1 25.9-13.3 53.2-38.7 58.4-21.6 4.6-42.2 13.8-64.4 15.5-18.5-2.5-35.6-10.7-53.9-14-3.8-4.7-5.1-12.8-.9-17.5 4.2-2 9.3-.5 13.5-2.6 3.5-2.1 9.8.1 10.9-5 .9-14.8-.4-29.6.7-44.3 1.9-2.6 2.8-7 6.6-7.4 12.2-3.2 24.2-8.7 37-8.9 3.3 1.1 7.8 2.2 7.1 7 2.2 11.8.2 24.1 1 36 5.5 1.2 15.2-1.1 12.9-9 .2-32-.1-64 .1-96 0-4.5 2.2-9.3 7.2-9.7m2.8 7.7c-.3.3-.8.9-1.1 1.1-.5 34.6.1 69.2-.2 103.8-.2 1.8.5 6.9-2.7 7.3-9.1 2-17.9 5.5-27.1 6.6-3.4-14.4-.5-30-.3-44.7-11.5-1.9-24 4.2-34.7 8-1.1 16.6 1.3 33.5-1.1 49.9-6.4 6-17.4 3.8-24.3 8.9 2.1 1.8 4.9 2.6 7.4 3.7 15.3 2.7 29.8 10.9 45.5 9.9 20.6-5.5 41.1-11.2 61.4-17.5 16.4-6.8 30.6-23.4 27.2-42.1-.3-13.2-11-22.9-23.1-26.2.6-5.2 6.9-7.9 9.1-12.5 7.7-13 9.2-31.4-.9-43.5-8.4-10.2-22.5-13.6-35.1-12.7z"/><path class="st1" d="M107.4 20.5c4.4-.6 9.8-1.9 13.2 1.9 3.8 8 2 17.1 2.5 25.6-.1 7.3.9 15.3-3.4 21.7-11.4 4.5-23.5 6.8-35 10.9C78.2 84.1 69.3 77.3 71 70c1.4-12.5-3.5-26.4 3.2-37.8 9.9-6.2 22-8.5 33.2-11.7m2.1 8.2c-9.4 4.2-20.7 4.2-29.3 9.5-.6 10.9-.1 21.8-.1 32.8 9.6.9 18.2-4.3 27.4-6.2 2.2-.2 7-1.5 6.5-4.7.1-10.7.1-21.4-.1-32 0-.1-4.4.6-4.4.6z"/><path class="st2" d="M146.2 19.1c12.6-.9 26.6 2.5 35 12.6 10.2 12.1 8.6 30.6.9 43.5-2.1 4.6-8.5 7.3-9.1 12.5 12.1 3.2 22.8 12.9 23.1 26.2 3.3 18.7-10.9 35.4-27.2 42.1-20.3 6.3-40.8 12-61.4 17.5-15.7 1-30.2-7.1-45.5-9.9-2.5-1.1-5.3-1.9-7.4-3.7 7-5.2 18-2.9 24.4-8.9 2.3-16.4 0-33.3 1.1-49.9 10.7-3.8 23.3-9.9 34.7-8-.2 14.7-3.1 30.3.3 44.7 9.3-1.1 18-4.6 27.1-6.6 3.1-.4 2.5-5.5 2.6-7.3.3-34.6-.3-69.2.2-103.8.4-.2 1-.7 1.2-1z"/><path class="st2" d="m109.5 28.7 4.4-.7c.1 10.7.2 21.4.1 32.1.5 3.3-4.3 4.5-6.5 4.7-9.2 1.9-17.8 7.1-27.5 6.2.1-10.9-.4-21.9.1-32.8 8.7-5.3 20-5.4 29.4-9.5z"/></svg>