<?xml version="1.0" encoding="UTF-8" ?>
<!DOCTYPE svg PUBLIC "-//W3C//DTD SVG 1.1//EN" "http://www.w3.org/Graphics/SVG/1.1/DTD/svg11.dtd">
<svg width="128pt" height="128pt" viewBox="0 0 128 128" version="1.1" xmlns="http://www.w3.org/2000/svg">
<g id="#056536ff">
<path fill="#056536" opacity="1.00" d=" M 20.64 23.51 C 31.72 11.63 47.86 4.61 64.12 4.78 C 64.10 16.07 64.14 27.37 64.12 38.67 C 49.05 36.72 34.35 49.79 34.66 65.01 C 34.03 80.42 48.92 93.97 64.22 91.81 C 63.99 102.24 64.17 112.68 64.12 123.11 C 49.27 123.37 34.54 117.40 23.63 107.39 C 11.75 96.35 4.69 80.28 4.75 64.04 C 4.68 49.17 10.51 34.39 20.64 23.51 Z" />
<path fill="#056536" opacity="1.00" d=" M 46.91 63.95 C 47.29 54.34 54.74 45.71 64.11 43.71 C 64.08 48.06 64.15 52.41 64.06 56.75 C 64.06 56.79 64.06 56.87 64.06 56.91 C 64.30 61.78 64.00 66.66 64.20 71.52 L 64.21 71.59 C 64.05 76.65 64.13 81.73 64.11 86.80 C 53.77 84.74 46.04 74.45 46.91 63.95 Z" />
</g>
<g id="#e7e7e8ff">
<path fill="#e7e7e8" opacity="1.00" d=" M 64.12 4.78 C 81.53 4.68 98.73 12.88 109.70 26.40 C 119.89 38.68 124.74 55.24 122.72 71.07 C 120.86 87.18 111.96 102.31 98.82 111.80 C 88.83 119.07 76.49 123.24 64.12 123.11 C 64.17 112.68 63.99 102.24 64.22 91.81 C 69.62 91.11 75.23 89.00 79.03 85.06 C 74.38 87.13 69.11 88.01 64.11 86.80 C 64.13 81.73 64.05 76.65 64.21 71.59 L 65.58 72.57 C 68.30 71.66 71.07 70.88 73.83 70.10 C 76.34 72.25 77.58 75.78 79.84 78.28 C 80.42 74.99 80.02 71.62 80.30 68.30 C 83.46 67.23 86.67 66.20 89.98 65.68 C 87.50 63.55 83.83 63.27 80.86 61.92 C 80.12 58.68 81.01 55.10 80.88 51.72 C 78.17 53.83 76.88 57.48 74.14 59.48 C 70.79 58.64 67.57 56.15 64.06 56.75 C 64.15 52.41 64.08 48.06 64.11 43.71 C 69.43 42.38 75.00 43.60 79.88 45.87 C 75.45 42.03 70.00 39.28 64.12 38.67 C 64.14 27.37 64.10 16.07 64.12 4.78 Z" />
<path fill="#e7e7e8" opacity="1.00" d=" M 64.06 56.91 L 65.69 57.33 C 66.86 60.06 69.48 62.16 70.30 64.93 C 68.75 67.07 66.90 68.99 65.60 71.31 L 64.20 71.52 C 64.00 66.66 64.30 61.78 64.06 56.91 Z" />
</g>
<g id="#e31f26ff">
<path fill="#e31f26" opacity="1.00" d=" M 34.66 65.01 C 34.35 49.79 49.05 36.72 64.12 38.67 C 70.00 39.28 75.45 42.03 79.88 45.87 C 75.00 43.60 69.43 42.38 64.11 43.71 C 54.74 45.71 47.29 54.34 46.91 63.95 C 46.04 74.45 53.77 84.74 64.11 86.80 C 69.11 88.01 74.38 87.13 79.03 85.06 C 75.23 89.00 69.62 91.11 64.22 91.81 C 48.92 93.97 34.03 80.42 34.66 65.01 Z" />
<path fill="#e31f26" opacity="1.00" d=" M 74.14 59.48 C 76.88 57.48 78.17 53.83 80.88 51.72 C 81.01 55.10 80.12 58.68 80.86 61.92 C 83.83 63.27 87.50 63.55 89.98 65.68 C 86.67 66.20 83.46 67.23 80.30 68.30 C 80.02 71.62 80.42 74.99 79.84 78.28 C 77.58 75.78 76.34 72.25 73.83 70.10 C 71.07 70.88 68.30 71.66 65.58 72.57 L 64.21 71.59 L 64.20 71.52 L 65.60 71.31 C 66.90 68.99 68.75 67.07 70.30 64.93 C 69.48 62.16 66.86 60.06 65.69 57.33 L 64.06 56.91 C 64.06 56.87 64.06 56.79 64.06 56.75 C 67.57 56.15 70.79 58.64 74.14 59.48 Z" />
</g>
</svg>
