<?xml version="1.0" encoding="UTF-8" ?>
<!DOCTYPE svg PUBLIC "-//W3C//DTD SVG 1.1//EN" "http://www.w3.org/Graphics/SVG/1.1/DTD/svg11.dtd">
<svg width="128pt" height="128pt" viewBox="0 0 128 128" version="1.1" xmlns="http://www.w3.org/2000/svg">
<g id="#d72628ff">
<path fill="#d72628" opacity="1.00" d=" M 41.25 9.27 C 55.37 3.34 71.78 3.25 85.97 9.00 C 101.53 15.17 114.49 28.30 119.62 44.28 C 82.46 44.26 45.31 44.21 8.15 44.20 C 13.57 28.56 25.92 15.52 41.25 9.27 Z" />
<path fill="#d72628" opacity="1.00" d=" M 8.08 83.49 C 45.33 83.46 82.57 83.43 119.82 83.43 C 114.44 99.47 101.65 112.76 85.91 118.94 C 71.64 124.71 55.12 124.56 40.96 118.52 C 25.69 112.19 13.41 99.13 8.08 83.49 Z" />
</g>
<g id="#edeeeeff">
<path fill="#edeeee" opacity="1.00" d=" M 8.15 44.20 C 45.31 44.21 82.46 44.26 119.62 44.28 L 119.84 44.29 C 124.19 56.88 124.25 70.84 119.88 83.43 L 119.82 83.43 C 82.57 83.43 45.33 83.46 8.08 83.49 C 3.61 70.89 3.65 56.78 8.15 44.20 Z" />
</g>
</svg>
