<?xml version="1.0" encoding="UTF-8" ?>
<!DOCTYPE svg PUBLIC "-//W3C//DTD SVG 1.1//EN" "http://www.w3.org/Graphics/SVG/1.1/DTD/svg11.dtd">
<svg width="128pt" height="128pt" viewBox="0 0 128 128" version="1.1" xmlns="http://www.w3.org/2000/svg">
<g id="#3eaddfff">
<path fill="#3eaddf" opacity="1.00" d=" M 48.79 6.73 C 61.55 3.27 75.44 4.39 87.55 9.66 C 102.48 16.04 114.45 28.89 119.78 44.23 C 88.90 44.28 58.03 44.23 27.15 44.29 C 22.01 41.57 16.91 38.77 11.77 36.05 C 19.29 21.67 33.10 10.82 48.79 6.73 Z" />
<path fill="#3eaddf" opacity="1.00" d=" M 11.76 91.89 C 17.05 89.05 22.34 86.23 27.66 83.43 C 58.40 83.45 89.14 83.43 119.88 83.43 C 114.50 99.08 102.24 112.18 86.95 118.51 C 73.77 124.11 58.55 124.69 45.00 120.05 C 30.88 115.33 18.72 105.06 11.76 91.89 Z" />
</g>
<g id="#161616ff">
<path fill="#161616" opacity="1.00" d=" M 11.76 91.89 C 2.38 74.86 2.46 53.10 11.77 36.05 C 16.91 38.77 22.01 41.57 27.15 44.29 C 39.41 50.91 51.68 57.53 63.99 64.08 C 51.88 70.53 39.75 76.95 27.66 83.43 C 22.34 86.23 17.05 89.05 11.76 91.89 Z" />
</g>
<g id="#f4ca22ff">
<path fill="#f4ca22" opacity="1.00" d=" M 27.15 44.29 C 58.03 44.23 88.90 44.28 119.78 44.23 C 124.26 56.79 124.29 70.85 119.88 83.43 C 89.14 83.43 58.40 83.45 27.66 83.43 C 39.75 76.95 51.88 70.53 63.99 64.08 C 51.68 57.53 39.41 50.91 27.15 44.29 Z" />
</g>
</svg>
