<?xml version="1.0" encoding="UTF-8" ?>
<!DOCTYPE svg PUBLIC "-//W3C//DTD SVG 1.1//EN" "http://www.w3.org/Graphics/SVG/1.1/DTD/svg11.dtd">
<svg width="128pt" height="128pt" viewBox="0 0 128 128" version="1.1" xmlns="http://www.w3.org/2000/svg">
<g id="#309446ff">
<path fill="#309446" opacity="1.00" d=" M 57.17 5.11 C 70.59 3.53 84.53 6.76 95.88 14.08 C 109.51 22.58 119.13 37.03 122.10 52.77 C 125.06 67.69 121.89 83.73 113.49 96.41 C 104.73 110.12 89.90 119.67 73.88 122.33 C 59.33 124.90 43.84 121.66 31.52 113.50 C 18.41 105.13 9.08 91.21 5.98 76.01 C 2.98 62.04 5.39 46.99 12.52 34.61 C 21.52 18.35 38.74 7.16 57.17 5.11 M 61.27 42.31 C 52.40 43.34 44.66 50.28 42.73 59.00 C 40.56 67.64 44.47 77.30 51.93 82.12 C 58.22 86.38 66.78 86.98 73.56 83.51 C 81.97 79.55 87.08 69.76 85.51 60.59 C 83.98 49.29 72.56 40.65 61.27 42.31 Z" />
</g>
<g id="#ea1d25ff">
<path fill="#ea1d25" opacity="1.00" d=" M 61.27 42.31 C 72.56 40.65 83.98 49.29 85.51 60.59 C 87.08 69.76 81.97 79.55 73.56 83.51 C 66.78 86.98 58.22 86.38 51.93 82.12 C 44.47 77.30 40.56 67.64 42.73 59.00 C 44.66 50.28 52.40 43.34 61.27 42.31 Z" />
</g>
</svg>
