<?xml version="1.0" encoding="UTF-8" ?>
<!DOCTYPE svg PUBLIC "-//W3C//DTD SVG 1.1//EN" "http://www.w3.org/Graphics/SVG/1.1/DTD/svg11.dtd">
<svg width="128pt" height="128pt" viewBox="0 0 128 128" version="1.1" xmlns="http://www.w3.org/2000/svg">
<g id="#fdd52eff">
<path fill="#fdd52e" opacity="1.00" d=" M 44.46 8.10 C 57.02 3.61 71.06 3.73 83.63 8.16 C 83.75 45.33 83.78 82.51 83.61 119.69 L 83.61 119.80 C 71.03 124.14 57.02 124.31 44.46 119.82 C 44.48 82.58 44.48 45.34 44.46 8.10 Z" />
</g>
<g id="#161616ff">
<path fill="#161616" opacity="1.00" d=" M 8.99 42.03 C 15.12 26.25 28.44 13.55 44.46 8.10 C 44.48 45.34 44.48 82.58 44.46 119.82 C 28.48 114.37 15.19 101.72 9.04 86.00 C 3.37 72.06 3.36 55.98 8.99 42.03 Z" />
</g>
<g id="#d22228ff">
<path fill="#d22228" opacity="1.00" d=" M 83.63 8.16 C 99.41 13.59 112.54 26.08 118.74 41.57 C 124.53 55.57 124.60 71.78 118.95 85.83 C 112.80 101.50 99.61 114.34 83.61 119.69 C 83.78 82.51 83.75 45.33 83.63 8.16 Z" />
</g>
</svg>
