<?xml version="1.0" encoding="UTF-8" ?>
<!DOCTYPE svg PUBLIC "-//W3C//DTD SVG 1.1//EN" "http://www.w3.org/Graphics/SVG/1.1/DTD/svg11.dtd">
<svg width="128pt" height="128pt" viewBox="0 0 128 128" version="1.1" xmlns="http://www.w3.org/2000/svg">
<g id="#d72628ff">
<path fill="#d72628" opacity="1.00" d=" M 41.31 9.26 C 55.41 3.33 71.80 3.26 85.98 9.01 C 101.59 15.17 114.39 28.33 119.71 44.29 C 82.52 44.24 45.33 44.22 8.14 44.19 C 13.59 28.54 25.94 15.49 41.31 9.26 Z" />
</g>
<g id="#f5cc27ff">
<path fill="#f5cc27" opacity="1.00" d=" M 8.14 44.19 C 45.33 44.22 82.52 44.24 119.71 44.29 L 119.84 44.29 C 124.20 56.86 124.27 70.84 119.88 83.42 C 82.60 83.43 45.33 83.49 8.05 83.47 C 3.63 70.86 3.65 56.78 8.14 44.19 Z" />
</g>
<g id="#319446ff">
<path fill="#319446" opacity="1.00" d=" M 8.05 83.47 C 45.33 83.49 82.60 83.43 119.88 83.42 C 114.39 99.46 101.67 112.82 85.84 118.96 C 71.94 124.56 55.92 124.57 42.02 118.96 C 26.24 112.81 13.53 99.49 8.05 83.47 Z" />
</g>
</svg>
