<?xml version="1.0" encoding="UTF-8" ?>
<!DOCTYPE svg PUBLIC "-//W3C//DTD SVG 1.1//EN" "http://www.w3.org/Graphics/SVG/1.1/DTD/svg11.dtd">
<svg width="128pt" height="128pt" viewBox="0 0 128 128" version="1.1" xmlns="http://www.w3.org/2000/svg">
<g id="#f0eff0ff">
<path fill="#f0eff0" opacity="1.00" d=" M 49.04 6.69 C 64.77 2.49 82.20 5.28 95.87 14.13 C 112.61 24.67 123.32 44.09 123.10 63.88 C 98.42 63.89 73.75 63.91 49.07 63.96 C 49.01 44.87 49.09 25.78 49.04 6.69 Z" />
<path fill="#f0eff0" opacity="1.00" d=" M 26.83 36.62 C 28.27 33.68 28.60 30.22 30.31 27.44 C 31.13 30.57 32.17 33.64 33.31 36.67 C 36.60 36.68 39.88 36.55 43.16 36.62 C 40.57 38.67 37.83 40.54 35.17 42.50 C 36.11 45.69 37.27 48.82 38.19 52.02 C 35.43 50.19 32.83 48.12 30.10 46.23 C 27.41 48.13 24.78 50.14 22.04 51.98 C 23.04 48.82 24.12 45.68 25.01 42.49 C 22.33 40.55 19.62 38.66 17.00 36.63 C 20.27 36.57 23.55 36.62 26.83 36.62 Z" />
</g>
<g id="#3857a5ff">
<path fill="#3857a5" opacity="1.00" d=" M 20.13 24.08 C 27.82 15.67 37.98 9.48 49.04 6.69 C 49.09 25.78 49.01 44.87 49.07 63.96 C 34.31 64.09 19.56 63.95 4.80 63.96 C 4.63 49.37 10.36 34.88 20.13 24.08 M 26.83 36.62 C 23.55 36.62 20.27 36.57 17.00 36.63 C 19.62 38.66 22.33 40.55 25.01 42.49 C 24.12 45.68 23.04 48.82 22.04 51.98 C 24.78 50.14 27.41 48.13 30.10 46.23 C 32.83 48.12 35.43 50.19 38.19 52.02 C 37.27 48.82 36.11 45.69 35.17 42.50 C 37.83 40.54 40.57 38.67 43.16 36.62 C 39.88 36.55 36.60 36.68 33.31 36.67 C 32.17 33.64 31.13 30.57 30.31 27.44 C 28.60 30.22 28.27 33.68 26.83 36.62 Z" />
</g>
<g id="#dd3a39ff">
<path fill="#dd3a39" opacity="1.00" d=" M 4.80 63.96 C 19.56 63.95 34.31 64.09 49.07 63.96 C 73.75 63.91 98.42 63.89 123.10 63.88 C 123.29 82.04 114.43 100.05 99.91 110.96 C 87.09 120.84 70.09 125.10 54.14 122.32 C 40.70 120.11 28.14 113.05 19.22 102.76 C 10.02 92.08 4.68 78.08 4.80 63.96 Z" />
</g>
</svg>
