<?xml version="1.0" encoding="UTF-8" ?>
<!DOCTYPE svg PUBLIC "-//W3C//DTD SVG 1.1//EN" "http://www.w3.org/Graphics/SVG/1.1/DTD/svg11.dtd">
<svg width="128pt" height="128pt" viewBox="0 0 128 128" version="1.1" xmlns="http://www.w3.org/2000/svg">
<g id="#fad433ff">
<path fill="#fad433" opacity="1.00" d=" M 32.07 14.11 C 46.30 4.87 64.59 2.32 80.82 7.24 C 97.26 12.02 111.27 24.36 118.08 40.06 C 121.10 46.78 122.67 54.07 123.13 61.41 C 83.68 61.39 44.24 61.37 4.80 61.39 C 5.58 42.46 15.98 24.19 32.07 14.11 Z" />
</g>
<g id="#1f4c91ff">
<path fill="#1f4c91" opacity="1.00" d=" M 4.80 61.39 C 44.24 61.37 83.68 61.39 123.13 61.41 C 123.47 72.15 121.08 83.09 115.76 92.47 C 81.23 92.47 46.70 92.53 12.16 92.49 L 12.15 92.49 C 6.85 83.10 4.40 72.15 4.80 61.39 Z" />
</g>
<g id="#ce2039ff">
<path fill="#ce2039" opacity="1.00" d=" M 12.16 92.49 C 46.70 92.53 81.23 92.47 115.76 92.47 C 106.77 109.37 88.93 121.05 69.90 122.82 C 46.90 125.45 22.98 113.00 12.16 92.49 Z" />
</g>
</svg>
