<?xml version="1.0" encoding="UTF-8" ?>
<!DOCTYPE svg PUBLIC "-//W3C//DTD SVG 1.1//EN" "http://www.w3.org/Graphics/SVG/1.1/DTD/svg11.dtd">
<svg width="128pt" height="128pt" viewBox="0 0 128 128" version="1.1" xmlns="http://www.w3.org/2000/svg">
<g id="#f0f0f0ff">
<path fill="#f0f0f0" opacity="1.00" d=" M 48.07 6.94 C 63.18 2.66 79.97 4.79 93.53 12.70 C 111.57 22.90 123.34 43.17 123.12 63.91 C 103.41 63.84 83.70 64.04 63.99 63.90 C 46.55 54.67 29.23 45.25 11.84 35.92 C 19.31 21.87 32.72 11.14 48.07 6.94 Z" />
</g>
<g id="#16477cff">
<path fill="#16477c" opacity="1.00" d=" M 11.71 91.76 C 2.46 74.67 2.48 52.97 11.84 35.92 C 29.23 45.25 46.55 54.67 63.99 63.90 C 46.60 73.26 29.15 82.49 11.71 91.76 Z" />
</g>
<g id="#d62b2aff">
<path fill="#d62b2a" opacity="1.00" d=" M 63.99 63.90 C 83.70 64.04 103.41 63.84 123.12 63.91 C 123.25 79.71 116.58 95.36 105.29 106.37 C 95.68 115.66 82.92 121.67 69.59 122.86 C 46.37 125.40 22.38 112.56 11.71 91.76 C 29.15 82.49 46.60 73.26 63.99 63.90 Z" />
</g>
</svg>
