<?xml version="1.0" encoding="UTF-8" ?>
<!DOCTYPE svg PUBLIC "-//W3C//DTD SVG 1.1//EN" "http://www.w3.org/Graphics/SVG/1.1/DTD/svg11.dtd">
<svg width="128pt" height="128pt" viewBox="0 0 128 128" version="1.1" xmlns="http://www.w3.org/2000/svg">
<g id="#3a8ec8ff">
<path fill="#3a8ec8" opacity="1.00" d=" M 48.89 6.72 C 64.67 2.48 82.18 5.24 95.89 14.14 C 112.67 24.63 123.30 44.15 123.10 63.92 C 103.35 63.85 83.60 64.04 63.86 63.97 C 46.59 54.49 29.18 45.29 11.86 35.91 C 19.39 21.56 33.22 10.77 48.89 6.72 Z" />
</g>
<g id="#f1f0f0ff">
<path fill="#f1f0f0" opacity="1.00" d=" M 11.86 35.91 C 29.18 45.29 46.59 54.49 63.86 63.97 C 46.91 73.17 29.79 82.05 12.84 91.25 C 12.52 91.33 11.89 91.48 11.57 91.56 C 2.51 74.46 2.49 52.89 11.86 35.91 M 25.62 50.26 C 24.65 53.12 23.86 56.04 22.85 58.89 C 19.59 59.23 16.01 58.38 12.97 59.22 C 15.66 61.03 18.23 63.00 20.87 64.89 C 19.96 68.05 18.82 71.15 17.87 74.30 C 20.78 72.76 23.27 70.49 26.00 68.63 C 28.71 70.50 31.22 72.72 34.13 74.26 C 33.19 71.13 32.18 68.01 31.13 64.91 C 33.61 62.85 37.05 61.29 38.83 58.88 C 35.60 58.95 32.38 58.93 29.16 58.80 C 28.31 55.92 27.18 53.13 26.45 50.22 C 26.24 50.23 25.83 50.25 25.62 50.26 Z" />
</g>
<g id="#d22027ff">
<path fill="#d22027" opacity="1.00" d=" M 25.62 50.26 C 25.83 50.25 26.24 50.23 26.45 50.22 C 27.18 53.13 28.31 55.92 29.16 58.80 C 32.38 58.93 35.60 58.95 38.83 58.88 C 37.05 61.29 33.61 62.85 31.13 64.91 C 32.18 68.01 33.19 71.13 34.13 74.26 C 31.22 72.72 28.71 70.50 26.00 68.63 C 23.27 70.49 20.78 72.76 17.87 74.30 C 18.82 71.15 19.96 68.05 20.87 64.89 C 18.23 63.00 15.66 61.03 12.97 59.22 C 16.01 58.38 19.59 59.23 22.85 58.89 C 23.86 56.04 24.65 53.12 25.62 50.26 Z" />
</g>
<g id="#309446ff">
<path fill="#309446" opacity="1.00" d=" M 63.86 63.97 C 83.60 64.04 103.35 63.85 123.10 63.92 C 123.27 78.99 117.15 93.90 106.83 104.83 C 95.80 116.37 79.98 123.23 63.99 123.13 C 42.45 123.37 21.42 110.73 11.57 91.56 C 11.89 91.48 12.52 91.33 12.84 91.25 C 29.79 82.05 46.91 73.17 63.86 63.97 Z" />
</g>
</svg>
