<?xml version="1.0" encoding="UTF-8" ?>
<!DOCTYPE svg PUBLIC "-//W3C//DTD SVG 1.1//EN" "http://www.w3.org/Graphics/SVG/1.1/DTD/svg11.dtd">
<svg width="1000pt" height="1000pt" viewBox="0 0 1000 1000" version="1.1" xmlns="http://www.w3.org/2000/svg">
<g id="#ce1126ff">
<path fill="#ce1126" opacity="1.00" d=" M 486.33 0.00 L 534.56 0.00 C 608.25 3.80 681.09 23.92 746.02 59.04 C 809.60 93.24 865.53 141.50 908.67 199.38 C 939.06 240.06 963.15 285.44 979.84 333.39 C 666.61 333.36 353.39 333.37 40.16 333.39 C 55.54 289.22 77.17 247.24 104.25 209.11 C 150.30 144.07 212.27 90.42 283.24 54.17 C 346.06 21.91 415.82 3.43 486.33 0.00 Z" />
</g>
<g id="#ffffffff">
<path fill="#ffffff" opacity="1.00" d=" M 40.16 333.39 C 353.39 333.37 666.61 333.36 979.84 333.39 C 988.62 358.56 995.30 384.45 1000.00 410.68 L 1000.00 582.83 C 995.12 611.40 987.51 639.50 977.66 666.75 C 665.89 666.75 354.11 666.75 42.34 666.75 C 26.28 622.51 16.53 575.99 13.53 529.03 C 9.23 462.91 18.33 395.95 40.16 333.39 M 489.08 344.17 C 484.73 343.42 480.30 342.50 475.88 343.12 C 469.26 343.41 467.09 352.42 469.82 357.35 C 472.56 356.56 475.42 354.04 478.34 355.68 C 482.42 357.88 485.44 362.16 485.61 366.87 C 486.51 383.89 479.83 400.42 470.08 414.09 C 459.83 413.99 449.54 411.49 440.66 406.29 C 432.16 401.19 422.95 396.69 412.97 395.65 C 407.43 395.07 401.28 396.17 397.27 400.31 C 392.72 404.93 391.54 411.70 391.29 417.94 C 389.22 467.26 387.12 516.59 385.05 565.91 C 384.61 581.15 383.34 596.38 383.45 611.63 C 388.73 607.90 393.17 603.15 398.04 598.93 C 413.67 584.85 429.12 570.56 444.86 556.60 C 440.88 571.17 436.66 585.68 432.63 600.23 C 428.98 599.39 425.24 597.18 421.46 598.62 C 418.21 599.64 414.34 600.24 412.41 603.40 C 409.79 606.80 410.46 611.26 410.67 615.24 C 406.39 616.57 403.70 620.20 400.93 623.46 C 398.68 623.61 396.70 624.33 396.50 626.88 C 397.59 627.32 398.69 627.76 399.79 628.21 C 400.70 632.45 402.19 636.76 405.92 639.36 C 406.32 641.46 406.49 643.66 407.45 645.62 C 408.77 648.04 411.43 649.31 413.99 650.00 C 427.99 653.87 442.48 655.60 456.93 656.78 C 481.24 658.64 505.67 658.81 530.02 657.59 C 547.94 656.58 565.95 655.04 583.40 650.62 C 586.12 649.89 589.12 649.20 591.08 647.00 C 592.99 644.95 593.02 641.98 593.52 639.39 C 597.10 636.90 598.68 632.81 599.60 628.72 C 600.68 627.92 601.85 627.20 602.76 626.20 C 602.74 623.53 599.13 624.12 597.73 622.49 C 595.21 619.59 592.72 616.43 588.86 615.31 C 588.93 611.42 589.73 607.11 587.29 603.72 C 585.32 600.22 581.11 599.60 577.63 598.51 C 573.96 597.28 570.39 599.45 566.88 600.26 C 562.70 585.37 558.46 570.51 554.32 555.61 C 556.79 557.48 559.22 559.43 561.49 561.54 C 576.51 575.50 591.55 589.45 606.57 603.40 C 609.67 606.25 612.59 609.35 616.15 611.65 C 616.30 603.78 615.61 595.93 615.39 588.07 C 612.98 531.08 610.58 474.08 608.17 417.09 C 607.86 411.02 606.51 404.48 602.00 400.07 C 597.85 396.01 591.65 395.03 586.08 395.70 C 576.38 396.83 567.40 401.17 559.12 406.12 C 550.04 411.51 539.47 414.07 528.96 414.08 C 524.08 404.49 521.87 393.72 521.30 383.04 C 521.11 374.69 521.98 366.23 520.11 358.01 C 519.19 353.67 517.46 348.89 513.25 346.77 C 507.29 343.68 500.58 342.16 493.92 341.70 C 491.87 341.33 490.52 343.06 489.08 344.17 Z" />
<path fill="#ffffff" opacity="1.00" d=" M 471.92 348.01 C 475.82 345.36 481.61 345.60 485.21 348.75 C 489.23 352.12 494.18 353.98 498.77 356.39 C 502.27 351.70 508.57 351.22 513.95 351.82 C 515.27 351.92 516.51 352.69 516.82 354.05 C 520.87 364.64 518.54 376.13 519.56 387.13 C 520.70 397.98 523.17 409.06 529.23 418.31 C 525.54 417.30 520.35 417.50 518.56 413.42 C 514.27 404.06 513.31 393.61 512.21 383.50 C 512.28 382.02 511.33 381.03 510.14 380.35 C 510.12 389.05 511.61 397.72 513.66 406.16 C 514.79 411.39 517.74 415.92 519.62 420.88 C 515.58 419.91 511.53 418.47 508.35 415.71 C 506.53 414.46 506.75 412.01 506.42 410.09 C 505.59 399.95 505.46 389.78 505.50 379.61 C 504.97 379.61 503.91 379.62 503.38 379.62 C 503.41 391.38 503.34 403.20 504.90 414.87 C 503.06 416.74 501.24 418.61 499.46 420.53 C 497.72 418.74 496.00 416.94 494.27 415.15 C 498.54 403.22 499.46 390.40 500.17 377.85 C 499.69 378.17 498.73 378.80 498.26 379.11 C 496.80 390.58 496.68 402.49 492.50 413.42 C 489.99 417.28 485.55 419.32 481.81 421.79 C 482.45 417.92 483.87 414.28 486.00 411.01 C 490.83 401.19 492.46 390.19 494.38 379.52 C 493.85 379.39 492.79 379.14 492.26 379.01 C 490.55 389.34 488.74 399.83 484.45 409.45 C 482.00 415.75 474.64 417.25 468.93 419.24 C 475.56 409.98 481.84 400.17 484.82 389.07 C 487.45 380.61 487.95 371.75 487.66 362.97 C 489.83 362.85 491.98 363.06 494.15 363.23 C 490.38 357.25 485.41 350.73 477.94 349.63 C 474.41 349.13 472.56 352.70 470.45 354.79 C 470.87 352.54 470.76 350.05 471.92 348.01 Z" />
<path fill="#ffffff" opacity="1.00" d=" M 496.52 349.46 C 498.78 347.74 501.12 351.42 498.96 352.78 C 496.99 354.47 494.25 350.93 496.52 349.46 Z" />
<path fill="#ffffff" opacity="1.00" d=" M 398.79 401.88 C 402.66 397.87 408.72 397.12 414.00 397.92 C 423.26 399.26 431.81 403.47 439.75 408.26 C 448.46 413.35 458.50 415.81 468.53 416.25 C 467.17 418.00 465.82 419.75 464.51 421.53 C 470.36 421.47 475.85 419.30 480.98 416.66 C 480.25 419.61 479.54 422.56 478.86 425.53 C 483.90 423.18 488.58 420.13 492.89 416.63 C 495.10 418.96 497.31 421.28 499.48 423.65 C 501.60 421.26 503.76 418.91 506.00 416.63 C 510.42 420.13 515.67 422.53 521.33 423.06 C 521.32 421.54 521.29 420.03 521.25 418.52 C 525.29 419.72 529.47 420.47 533.70 420.53 C 532.75 419.01 531.72 417.58 530.65 416.18 C 540.91 415.96 551.16 413.30 560.04 408.10 C 567.73 403.45 576.03 399.42 584.98 397.99 C 590.27 397.13 596.35 397.68 600.39 401.56 C 604.51 405.44 605.52 411.31 606.12 416.68 C 602.26 414.22 598.29 411.86 593.91 410.46 C 596.46 472.25 599.13 534.04 601.69 595.83 C 600.47 594.76 599.27 593.70 598.07 592.64 C 595.23 532.96 592.66 473.26 589.96 413.57 C 586.00 417.16 581.91 420.60 577.87 424.09 C 580.07 476.03 582.32 527.97 584.52 579.92 C 582.77 578.32 581.04 576.72 579.31 575.12 C 577.16 526.14 574.91 477.16 572.74 428.18 C 569.65 430.89 566.46 433.46 563.28 436.06 C 564.99 479.06 566.78 522.06 568.45 565.06 C 566.59 562.87 562.93 561.40 563.21 558.05 C 561.52 518.28 559.84 478.51 558.15 438.74 C 556.06 439.67 554.06 440.84 551.85 441.43 C 541.31 442.52 530.80 440.25 520.73 437.36 C 513.39 435.03 505.64 432.46 500.24 426.68 C 495.56 431.04 489.54 433.50 483.58 435.59 C 472.14 439.46 460.15 442.29 448.00 441.69 C 445.75 440.76 443.53 439.76 441.32 438.76 C 439.57 479.70 437.93 520.64 436.06 561.57 C 434.37 563.06 432.71 564.58 431.05 566.10 C 432.59 522.73 434.55 479.37 436.18 436.01 C 433.00 433.45 429.82 430.89 426.75 428.22 C 424.53 477.48 422.34 526.75 420.10 576.01 C 418.38 577.54 416.66 579.08 414.95 580.63 C 417.12 528.45 419.41 476.27 421.62 424.10 C 417.59 420.63 413.56 417.16 409.55 413.67 C 406.84 472.83 404.24 531.99 401.54 591.14 C 401.69 593.54 399.15 594.70 397.81 596.29 C 400.26 534.33 403.11 472.38 405.53 410.42 C 401.19 411.92 397.22 414.23 393.34 416.61 C 394.04 411.43 394.91 405.75 398.79 401.88 Z" />
<path fill="#ffffff" opacity="1.00" d=" M 477.34 439.54 C 485.34 437.22 493.40 434.46 500.19 429.48 C 506.44 434.84 514.40 437.49 522.18 439.76 C 530.81 442.08 539.70 443.96 548.69 443.55 C 548.95 482.27 530.63 520.81 499.62 544.20 C 488.92 535.67 479.31 525.68 471.80 514.21 C 458.05 493.40 450.64 468.43 450.87 443.49 C 459.86 443.94 468.73 441.91 477.34 439.54 M 474.97 442.95 C 467.98 444.70 460.83 446.18 453.58 445.99 C 453.69 468.97 460.36 491.92 472.80 511.26 C 480.01 522.52 489.26 532.41 499.70 540.74 C 528.60 518.46 545.76 482.49 545.97 446.10 C 537.82 446.07 529.76 444.58 521.93 442.46 C 514.23 440.32 506.52 437.59 500.08 432.73 C 492.50 437.80 483.72 440.65 474.97 442.95 Z" />
<path fill="#ffffff" opacity="1.00" d=" M 482.16 442.50 C 488.39 440.57 494.47 438.11 500.03 434.65 C 505.01 438.10 510.59 440.55 516.34 442.40 C 516.43 468.25 516.34 494.10 516.39 519.95 C 516.51 521.44 516.17 522.92 515.07 524.01 C 510.45 529.40 505.18 534.21 499.73 538.76 C 493.78 533.91 488.16 528.62 483.23 522.73 C 481.92 521.51 482.15 519.63 482.10 518.03 C 482.18 492.85 482.07 467.68 482.16 442.50 Z" />
<path fill="#ffffff" opacity="1.00" d=" M 450.43 467.24 C 451.80 469.20 451.80 471.75 452.48 473.99 C 453.30 477.60 454.65 481.20 454.32 484.98 C 453.61 499.64 453.25 514.32 452.46 528.97 C 451.15 535.57 448.89 541.93 447.26 548.45 C 447.50 530.62 448.85 512.82 449.52 495.00 C 449.78 485.74 450.82 476.50 450.43 467.24 Z" />
<path fill="#ffffff" opacity="1.00" d=" M 545.25 486.99 C 544.48 480.27 547.26 473.93 548.61 467.48 C 550.02 494.68 551.20 521.89 552.52 549.09 C 550.68 542.40 548.38 535.81 547.04 529.00 C 546.23 515.01 545.94 500.99 545.25 486.99 Z" />
<path fill="#ffffff" opacity="1.00" d=" M 462.41 501.86 C 464.20 505.48 466.97 508.83 467.14 513.04 C 467.68 518.14 468.17 523.23 468.75 528.32 C 465.03 531.90 461.32 535.47 457.54 538.97 C 456.45 536.29 455.36 533.62 454.26 530.95 C 456.95 521.25 459.76 511.58 462.41 501.86 Z" />
<path fill="#ffffff" opacity="1.00" d=" M 532.36 512.94 C 532.54 508.82 535.18 505.48 537.01 501.97 C 539.86 511.60 542.48 521.29 545.23 530.95 C 544.11 533.63 543.01 536.31 541.90 538.99 C 538.16 535.43 534.40 531.88 530.72 528.26 C 531.33 523.16 531.80 518.04 532.36 512.94 Z" />
<path fill="#ffffff" opacity="1.00" d=" M 469.33 514.05 C 471.16 516.79 473.24 519.37 474.93 522.21 C 473.68 523.74 472.17 525.04 470.71 526.38 C 470.22 522.27 469.83 518.15 469.33 514.05 Z" />
<path fill="#ffffff" opacity="1.00" d=" M 524.31 522.22 C 526.27 519.55 528.16 516.85 530.08 514.16 C 529.68 518.25 529.23 522.35 528.79 526.45 C 527.29 525.04 525.80 523.62 524.31 522.22 Z" />
<path fill="#ffffff" opacity="1.00" d=" M 470.99 529.17 C 472.83 527.44 474.66 525.71 476.51 523.99 C 478.73 526.74 481.05 529.40 483.42 532.03 C 479.89 536.65 476.40 541.31 472.79 545.87 C 472.14 540.31 471.58 534.73 470.99 529.17 Z" />
<path fill="#ffffff" opacity="1.00" d=" M 516.02 531.99 C 518.40 529.36 520.71 526.68 522.97 523.96 C 524.80 525.69 526.64 527.43 528.49 529.16 C 527.91 534.75 527.31 540.35 526.72 545.94 C 523.11 541.32 519.59 536.63 516.02 531.99 Z" />
<path fill="#ffffff" opacity="1.00" d=" M 530.43 531.05 C 534.50 534.86 538.36 538.89 542.66 542.45 C 543.90 539.85 545.01 537.19 546.21 534.57 C 548.87 543.71 551.43 552.88 553.97 562.06 C 549.95 558.02 546.17 553.74 541.88 549.99 C 540.18 554.69 538.99 559.55 537.64 564.35 C 534.34 560.22 531.50 555.71 527.88 551.84 C 525.90 558.86 525.12 566.13 523.66 573.26 C 520.78 568.53 517.00 564.21 514.80 559.15 C 516.21 552.95 518.32 546.93 520.00 540.79 C 522.58 544.15 525.02 547.66 528.09 550.63 C 529.30 544.16 529.68 537.58 530.43 531.05 Z" />
<path fill="#ffffff" opacity="1.00" d=" M 459.33 540.37 C 462.59 537.31 465.76 534.14 469.03 531.09 C 469.85 537.57 470.12 544.14 471.45 550.56 C 474.55 547.66 476.89 544.09 479.53 540.80 C 481.29 547.06 483.16 553.29 484.91 559.56 C 481.87 564.09 478.94 568.69 475.84 573.18 C 474.25 566.12 473.78 558.78 471.41 551.91 C 467.98 555.84 465.13 560.23 461.86 564.29 C 460.42 559.53 459.43 554.62 457.42 550.05 C 453.31 553.83 449.59 558.01 445.58 561.90 C 448.06 552.71 450.70 543.56 453.29 534.40 C 454.36 536.90 455.28 539.47 456.58 541.87 C 457.75 542.03 458.51 541.01 459.33 540.37 Z" />
<path fill="#ffffff" opacity="1.00" d=" M 481.13 538.54 C 482.41 536.91 483.68 535.28 484.95 533.65 C 486.92 535.54 488.90 537.44 490.90 539.32 C 489.49 545.35 488.45 551.46 486.69 557.40 C 484.64 551.17 482.93 544.84 481.13 538.54 Z" />
<path fill="#ffffff" opacity="1.00" d=" M 508.60 539.20 C 510.61 537.36 512.59 535.48 514.56 533.60 C 515.82 535.30 517.10 537.00 518.36 538.71 C 516.43 544.87 514.99 551.18 512.72 557.23 C 511.04 551.30 509.92 545.22 508.60 539.20 Z" />
<path fill="#ffffff" opacity="1.00" d=" M 444.76 565.96 C 448.71 561.89 452.64 557.79 456.67 553.79 C 458.06 558.74 459.34 563.73 461.00 568.60 C 464.62 564.87 467.40 560.45 470.57 556.36 C 471.52 562.85 473.39 569.25 473.81 575.80 C 471.41 580.30 468.35 584.43 465.60 588.74 C 463.82 583.67 462.46 578.44 460.28 573.53 C 456.68 578.12 454.06 583.36 450.86 588.21 C 448.76 580.81 446.79 573.38 444.76 565.96 Z" />
<path fill="#ffffff" opacity="1.00" d=" M 542.82 553.81 C 546.86 557.78 550.75 561.90 554.73 565.93 C 552.68 573.38 550.73 580.86 548.59 588.28 C 545.53 583.36 542.72 578.29 539.42 573.53 C 536.88 578.32 535.70 583.67 533.88 588.75 C 531.13 584.43 528.06 580.30 525.66 575.78 C 526.23 569.42 527.70 563.12 528.92 556.84 C 532.65 560.18 534.39 565.31 538.52 568.22 C 540.39 563.56 541.34 558.60 542.82 553.81 Z" />
<path fill="#ffffff" opacity="1.00" d=" M 495.63 557.92 C 495.70 570.64 494.37 583.32 493.76 596.02 C 492.72 600.79 497.41 603.75 499.69 607.31 C 501.85 603.99 506.28 601.31 505.77 596.91 C 504.97 583.89 504.22 570.87 503.44 557.86 C 505.75 571.77 507.40 585.78 509.45 599.73 C 511.57 601.30 513.70 602.87 515.83 604.45 C 517.19 603.10 518.56 601.78 519.93 600.44 C 520.41 602.56 520.86 604.67 521.34 606.80 C 518.26 606.71 515.18 606.28 512.10 606.43 C 507.96 608.37 502.80 609.65 500.98 614.38 C 500.36 614.36 499.10 614.34 498.48 614.33 C 496.76 609.73 491.77 608.53 487.85 606.48 C 484.62 606.20 481.39 606.75 478.16 606.84 C 478.61 604.72 479.05 602.60 479.52 600.49 C 480.93 601.79 482.33 603.11 483.74 604.42 C 485.81 602.86 487.90 601.31 490.01 599.80 C 491.91 585.84 494.16 571.93 495.63 557.92 Z" />
<path fill="#ffffff" opacity="1.00" d=" M 476.69 576.23 C 479.44 571.32 482.84 566.80 485.87 562.06 C 483.81 571.59 481.77 581.13 479.57 590.63 C 478.49 585.87 477.01 581.10 476.69 576.23 Z" />
<path fill="#ffffff" opacity="1.00" d=" M 513.82 562.54 C 516.89 567.01 520.07 571.44 522.77 576.16 C 522.55 581.00 521.00 585.72 519.92 590.45 C 517.74 581.18 515.63 571.89 513.82 562.54 Z" />
<path fill="#ffffff" opacity="1.00" d=" M 443.41 569.48 C 445.32 576.32 447.41 583.12 448.94 590.05 C 447.02 594.54 443.36 598.12 440.79 602.28 C 438.72 601.79 436.65 601.32 434.58 600.84 C 437.48 590.37 440.43 579.92 443.41 569.48 Z" />
<path fill="#ffffff" opacity="1.00" d=" M 550.28 590.43 C 552.23 583.50 553.95 576.52 556.07 569.64 C 559.14 579.99 561.97 590.41 564.91 600.80 C 562.86 601.31 560.81 601.81 558.77 602.32 C 555.92 598.37 553.09 594.40 550.28 590.43 Z" />
<path fill="#ffffff" opacity="1.00" d=" M 451.74 591.77 C 453.69 586.83 457.17 582.58 459.75 577.92 C 461.49 582.98 462.93 588.16 465.00 593.11 C 468.70 588.66 471.48 583.56 474.66 578.75 C 475.87 584.52 477.40 590.25 478.22 596.09 C 477.88 599.72 476.80 603.22 476.06 606.78 C 473.46 606.65 470.87 606.52 468.27 606.39 C 466.92 602.48 465.76 598.49 464.06 594.71 C 460.94 598.00 460.14 603.56 455.74 605.45 C 454.44 600.88 452.78 596.41 451.74 591.77 Z" />
<path fill="#ffffff" opacity="1.00" d=" M 539.70 577.91 C 542.50 582.37 545.19 586.90 547.96 591.37 C 546.53 595.90 545.49 600.57 543.71 604.98 C 543.31 605.02 542.51 605.10 542.11 605.15 C 539.69 601.85 537.98 598.10 535.59 594.79 C 533.64 598.43 532.54 602.44 531.29 606.36 C 528.67 606.51 526.05 606.66 523.43 606.80 C 522.65 602.28 520.52 597.73 521.70 593.11 C 522.72 588.34 523.75 583.57 524.77 578.81 C 528.00 583.52 530.84 588.50 534.26 593.09 C 536.70 588.27 537.97 583.00 539.70 577.91 Z" />
<path fill="#ffffff" opacity="1.00" d=" M 443.06 602.82 C 445.29 599.66 447.53 596.50 449.84 593.39 C 450.98 597.14 452.11 600.90 453.24 604.66 C 449.83 604.10 446.44 603.49 443.06 602.82 Z" />
<path fill="#ffffff" opacity="1.00" d=" M 549.64 593.45 C 551.98 596.51 554.20 599.67 556.42 602.83 C 553.04 603.49 549.64 604.10 546.25 604.68 C 547.35 600.93 548.48 597.18 549.64 593.45 Z" />
<path fill="#ffffff" opacity="1.00" d=" M 459.89 605.53 C 461.11 603.40 462.35 601.28 463.59 599.17 C 464.35 601.49 465.09 603.81 465.84 606.14 C 463.85 605.92 461.87 605.73 459.89 605.53 Z" />
<path fill="#ffffff" opacity="1.00" d=" M 423.14 600.13 C 427.50 600.54 431.55 602.42 435.82 603.33 C 452.50 607.36 469.77 609.64 486.95 608.55 C 488.81 608.45 489.73 610.54 491.01 611.58 C 489.43 613.25 487.85 614.92 486.35 616.66 C 477.31 617.74 468.15 617.29 459.13 616.17 C 459.57 614.92 460.09 613.76 460.66 612.59 C 464.36 613.77 468.59 613.93 472.20 612.29 C 467.98 609.82 463.23 611.00 458.88 612.31 C 458.80 609.40 456.10 606.61 453.09 607.66 C 449.89 608.35 448.65 611.60 447.68 614.32 C 438.90 612.56 430.02 611.11 421.49 608.34 C 421.57 605.55 421.00 602.35 423.14 600.13 M 422.54 603.05 C 425.95 604.86 429.65 606.11 433.46 606.74 C 431.23 603.13 426.46 602.08 422.54 603.05 M 437.40 606.44 C 437.12 606.77 436.56 607.44 436.28 607.77 C 440.23 608.84 444.15 610.73 448.34 610.32 C 445.13 607.99 441.20 607.20 437.40 606.44 M 474.38 614.36 C 478.56 614.31 482.96 614.17 486.80 612.32 C 482.69 611.88 477.51 610.94 474.38 614.36 Z" />
<path fill="#ffffff" opacity="1.00" d=" M 535.85 599.75 C 537.36 601.48 538.46 603.51 539.57 605.52 C 537.56 605.73 535.57 605.93 533.57 606.14 C 534.28 603.98 534.98 601.83 535.85 599.75 Z" />
<path fill="#ffffff" opacity="1.00" d=" M 554.92 605.31 C 562.30 604.02 569.37 601.49 576.69 599.93 C 577.84 602.57 578.54 605.53 577.66 608.38 C 569.28 611.31 560.41 612.50 551.75 614.35 C 550.85 611.10 548.83 607.38 544.93 607.47 C 540.58 607.78 540.08 613.03 539.54 616.37 C 530.72 617.16 521.79 617.84 512.98 616.58 C 511.54 614.85 510.01 613.20 508.51 611.55 C 509.82 610.36 510.95 608.30 513.01 608.54 C 527.04 609.57 541.13 607.85 554.92 605.31 M 565.90 606.54 C 569.74 606.27 573.42 604.91 576.83 603.15 C 572.91 601.81 568.56 603.55 565.90 606.54 M 551.40 610.72 C 555.66 610.22 559.83 609.01 563.75 607.25 C 559.48 606.12 554.48 607.61 551.40 610.72 M 527.27 613.07 C 531.44 613.51 535.66 613.52 539.84 613.07 C 536.38 610.07 530.64 609.76 527.27 613.07 M 513.15 611.98 C 513.45 612.34 514.05 613.04 514.35 613.40 C 517.81 613.76 521.26 614.48 524.76 614.37 C 522.29 610.69 516.92 612.26 513.15 611.98 Z" />
<path fill="#ffffff" opacity="1.00" d=" M 414.31 604.45 C 415.57 602.79 417.60 602.07 419.36 601.11 C 419.33 603.38 419.56 605.68 419.21 607.95 C 417.51 610.06 414.53 610.49 412.20 611.63 C 412.64 609.19 412.70 606.48 414.31 604.45 Z" />
<path fill="#ffffff" opacity="1.00" d=" M 580.17 601.19 C 584.90 602.46 587.33 607.03 587.26 611.71 C 584.98 610.69 582.57 609.90 580.54 608.45 C 579.68 606.13 580.26 603.59 580.17 601.19 Z" />
<path fill="#ffffff" opacity="1.00" d=" M 450.30 613.90 C 450.48 611.48 452.65 609.52 455.08 609.51 C 457.10 611.31 458.00 614.28 457.28 616.91 C 456.24 618.57 454.73 619.86 453.37 621.26 C 452.08 618.97 449.57 616.79 450.30 613.90 Z" />
<path fill="#ffffff" opacity="1.00" d=" M 541.97 615.03 C 541.83 612.65 543.41 610.77 544.76 609.02 C 546.58 610.25 549.19 611.38 549.21 613.98 C 549.82 616.85 547.43 619.00 546.07 621.23 C 544.49 619.36 541.70 617.83 541.97 615.03 Z" />
<path fill="#ffffff" opacity="1.00" d=" M 417.70 611.69 C 420.83 609.92 424.30 611.60 427.49 612.28 C 434.13 614.07 440.96 614.97 447.62 616.62 C 450.15 619.57 451.80 623.13 453.36 626.66 C 454.48 623.39 456.69 620.75 459.12 618.37 C 468.19 619.38 477.38 619.83 486.48 618.84 C 489.37 621.33 492.41 623.71 494.56 626.93 C 497.17 624.84 497.61 621.28 498.54 618.29 C 499.35 618.33 500.17 618.37 501.00 618.43 C 501.66 621.64 502.83 624.74 504.89 627.34 C 506.56 623.59 510.07 621.44 513.03 618.85 C 522.11 619.82 531.28 619.41 540.33 618.35 C 542.80 620.76 544.85 623.52 546.28 626.66 C 547.52 623.00 549.58 619.75 551.63 616.51 C 560.14 615.01 568.59 613.17 576.97 611.09 C 580.87 610.01 585.07 612.98 585.22 617.06 C 585.06 620.15 588.50 619.63 590.48 620.64 C 592.57 622.37 594.10 624.66 595.93 626.65 C 595.22 628.98 594.87 631.48 593.60 633.59 C 592.44 634.81 590.98 635.70 589.76 636.87 C 588.88 639.94 589.82 644.65 585.82 645.69 C 569.93 650.42 553.30 651.95 536.83 653.18 C 511.92 654.78 486.92 654.78 462.01 653.14 C 446.50 652.01 430.93 650.40 415.87 646.34 C 413.99 645.75 411.55 645.26 410.79 643.16 C 410.10 641.02 410.11 638.74 409.83 636.54 C 405.60 635.02 404.42 630.67 403.52 626.73 C 405.52 624.44 407.45 622.10 409.63 619.98 C 410.91 619.88 412.19 619.72 413.47 619.52 C 414.59 616.82 414.51 612.95 417.70 611.69 M 422.13 617.99 C 422.00 620.12 421.30 622.16 420.81 624.23 C 421.85 624.35 422.89 624.25 423.91 623.98 C 423.73 623.08 423.38 621.27 423.20 620.36 C 424.44 619.87 425.70 619.39 426.95 618.93 C 426.44 621.20 425.83 623.44 425.16 625.68 C 421.98 626.32 417.94 628.07 418.49 632.03 C 425.20 634.37 432.12 636.23 439.13 637.43 C 441.63 634.86 441.37 630.48 442.39 627.13 C 440.89 627.78 439.41 628.45 437.92 629.11 C 438.10 630.69 438.34 632.31 438.04 633.91 C 436.20 633.88 434.38 633.62 432.57 633.34 C 433.24 630.52 433.93 627.71 434.47 624.87 C 433.08 625.54 431.70 626.23 430.32 626.91 C 430.39 628.71 430.35 630.51 430.24 632.32 C 428.88 632.08 427.54 631.80 426.22 631.48 C 426.91 626.42 429.16 621.75 430.31 616.81 C 427.63 617.53 424.88 617.79 422.13 617.99 M 562.04 619.60 C 562.78 620.51 563.54 621.43 564.31 622.35 C 566.06 621.74 568.38 619.98 569.58 622.38 C 570.94 626.09 571.30 630.09 572.36 633.90 C 570.19 633.07 568.15 631.90 565.90 631.32 C 564.33 632.61 563.09 634.23 561.78 635.76 C 559.87 633.35 557.78 630.99 554.70 630.14 C 554.18 628.52 553.68 626.91 553.05 625.35 C 551.96 626.15 550.91 626.98 549.89 627.86 C 550.37 628.50 551.33 629.76 551.80 630.40 C 549.34 632.63 547.89 635.58 547.05 638.77 C 545.97 637.06 545.10 635.21 544.31 633.37 C 540.60 634.49 537.97 637.70 538.63 641.71 C 540.41 641.87 542.30 641.76 543.99 642.50 C 542.32 643.91 540.43 645.03 538.64 646.27 C 540.58 645.95 543.28 646.62 544.68 644.78 C 546.13 642.89 547.24 640.29 550.10 640.50 C 553.54 639.02 554.91 643.57 557.95 643.89 C 560.76 643.56 561.30 640.35 562.05 638.16 C 563.87 638.64 565.65 639.80 567.60 639.50 C 569.46 638.69 570.74 637.02 572.40 635.90 C 574.43 635.43 576.01 637.10 575.34 639.25 C 576.30 639.27 577.26 639.28 578.24 639.31 C 578.28 638.51 578.33 637.72 578.38 636.94 C 577.83 636.60 576.72 635.92 576.17 635.59 C 578.24 634.29 580.78 633.98 582.93 632.81 C 582.10 631.88 581.26 630.97 580.40 630.10 C 578.87 630.87 577.36 631.64 575.83 632.40 C 573.48 628.89 573.52 624.57 572.28 620.69 C 570.31 616.84 565.18 618.09 562.04 619.60 M 465.44 625.90 C 466.32 629.26 465.81 632.72 465.29 636.10 C 464.84 638.56 464.88 641.33 463.02 643.26 C 462.86 642.30 462.56 640.36 462.41 639.39 C 461.07 638.55 459.75 637.71 458.46 636.83 C 460.12 636.46 461.79 636.10 463.47 635.75 C 461.69 632.82 460.20 629.65 457.97 627.04 C 454.74 628.43 452.18 631.00 449.46 633.17 C 450.67 633.85 451.87 634.59 453.04 635.36 C 453.34 638.05 449.77 637.23 448.20 636.65 C 447.21 634.37 446.81 631.89 445.99 629.56 C 442.60 632.18 445.73 636.44 443.54 639.48 C 441.83 640.41 439.94 640.98 438.16 641.76 C 441.54 643.20 445.06 642.32 447.40 639.51 C 449.34 639.67 451.29 639.90 453.23 640.16 C 454.07 639.48 454.93 638.82 455.78 638.16 C 456.19 639.06 456.60 639.97 457.02 640.89 C 457.62 640.96 458.81 641.11 459.41 641.18 C 459.96 642.66 459.79 644.73 461.37 645.61 C 463.39 646.97 466.38 645.28 466.77 643.00 C 468.33 636.82 468.61 630.40 469.42 624.10 C 468.08 624.68 466.76 625.30 465.44 625.90 M 469.70 642.89 C 470.27 642.88 471.43 642.86 472.00 642.85 C 473.41 637.84 472.36 632.26 475.05 627.60 C 473.96 626.54 472.88 625.48 471.80 624.44 C 471.17 630.59 469.64 636.69 469.70 642.89 M 516.96 627.85 C 518.12 630.31 519.02 633.00 518.77 635.77 C 517.60 636.91 516.20 637.80 515.15 639.06 C 514.48 640.76 514.39 642.61 514.08 644.40 C 519.19 644.16 524.29 643.69 529.38 643.20 C 529.09 639.98 528.83 636.75 528.11 633.60 C 526.91 634.02 525.75 634.55 524.59 635.05 C 525.40 636.81 525.99 638.68 526.45 640.57 C 525.02 640.71 523.59 640.84 522.17 640.96 C 521.40 635.99 521.25 630.96 520.41 626.01 C 519.21 626.53 518.09 627.20 516.96 627.85 M 513.33 628.40 C 510.71 629.96 515.56 632.64 515.92 629.88 C 516.73 628.82 513.78 626.60 513.33 628.40 M 513.31 632.17 C 512.71 633.65 513.14 635.23 514.97 635.34 C 515.90 634.72 516.59 633.84 516.41 632.69 C 515.45 632.06 514.41 631.89 513.31 632.17 M 482.61 634.21 C 483.22 636.66 483.24 639.16 482.48 641.59 C 480.72 639.56 479.53 637.14 478.27 634.81 C 477.44 635.80 476.62 636.80 475.80 637.82 C 476.60 639.83 478.63 642.05 477.27 644.28 C 475.77 646.55 472.69 646.71 470.43 647.88 C 472.57 648.05 474.80 648.66 476.93 648.04 C 478.66 647.10 479.70 645.34 481.18 644.09 C 484.93 643.70 488.76 644.22 492.48 644.75 C 493.88 645.51 494.54 647.23 495.79 648.24 C 497.10 649.72 498.88 647.98 500.37 647.69 C 500.60 646.94 501.05 645.42 501.27 644.66 C 504.45 644.53 507.63 644.50 510.81 644.39 C 510.74 641.43 510.44 638.50 510.06 635.58 C 506.36 636.16 503.30 638.18 501.64 641.59 C 501.31 640.04 500.72 638.55 500.58 636.97 C 496.01 636.65 491.42 636.53 486.85 636.20 C 486.51 635.00 486.18 633.81 485.84 632.62 C 484.75 633.13 483.67 633.66 482.61 634.21 M 530.80 637.32 C 532.10 638.83 534.29 640.28 533.62 642.61 C 532.79 644.81 530.49 645.92 528.91 647.51 C 531.80 647.61 535.31 646.92 536.63 644.00 C 537.74 639.97 535.26 636.25 533.05 633.13 C 532.28 634.51 531.53 635.91 530.80 637.32 M 421.45 635.51 C 419.49 636.09 422.91 639.08 423.60 637.45 C 425.85 636.24 422.56 633.19 421.45 635.51 M 425.43 636.73 C 425.09 638.54 427.03 638.65 428.31 639.15 C 428.34 638.31 428.39 636.63 428.42 635.80 C 427.41 636.08 426.42 636.39 425.43 636.73 M 432.12 638.12 C 432.62 639.25 432.66 640.86 434.12 641.30 C 434.94 640.77 435.63 640.10 436.16 639.28 C 435.03 638.28 433.50 638.31 432.12 638.12 M 517.61 645.78 C 517.61 646.62 517.68 647.45 517.83 648.29 C 519.07 648.37 520.25 648.02 521.48 647.82 C 523.29 648.86 526.36 647.86 524.79 645.46 C 522.39 645.46 519.98 645.48 517.61 645.78 Z" />
<path fill="#ffffff" opacity="1.00" d=" M 488.41 617.85 C 490.24 615.55 492.23 613.39 493.99 611.03 C 496.86 614.51 496.44 619.10 495.00 623.08 C 492.81 621.32 490.58 619.62 488.41 617.85 Z" />
<path fill="#ffffff" opacity="1.00" d=" M 504.40 623.07 C 503.14 619.12 502.46 614.48 505.58 611.18 C 507.33 613.47 509.23 615.64 511.02 617.90 C 508.83 619.65 506.61 621.35 504.40 623.07 Z" />
<path fill="#ffffff" opacity="1.00" d=" M 555.38 634.18 C 556.73 632.85 558.84 635.34 557.61 636.61 C 556.18 637.94 554.16 635.49 555.38 634.18 Z" />
<path fill="#ffffff" opacity="1.00" d=" M 565.65 634.54 C 566.95 633.27 569.57 635.30 567.88 636.62 C 566.56 637.89 564.08 635.87 565.65 634.54 Z" />
<path fill="#ffffff" opacity="1.00" d=" M 551.06 635.08 C 552.46 633.82 554.22 636.32 552.80 637.38 C 551.39 638.58 549.66 636.14 551.06 635.08 Z" />
<path fill="#ffffff" opacity="1.00" d=" M 485.32 640.71 C 489.13 638.09 493.93 639.93 498.20 639.92 C 498.10 641.91 497.97 643.90 497.77 645.91 C 497.07 644.55 496.49 643.14 495.94 641.74 C 492.39 641.52 488.81 641.47 485.32 640.71 Z" />
<path fill="#ffffff" opacity="1.00" d=" M 505.93 639.94 C 507.55 639.35 508.11 639.88 507.62 641.52 C 505.98 642.08 505.42 641.56 505.93 639.94 Z" />
<path fill="#ffffff" opacity="1.00" d=" M 517.31 639.92 C 518.92 639.34 519.49 639.87 519.04 641.50 C 517.41 642.07 516.84 641.54 517.31 639.92 Z" />
</g>
<g id="#c09300ff">
<path fill="#c09300" opacity="1.00" d=" M 489.08 344.17 C 490.52 343.06 491.87 341.33 493.92 341.70 C 500.58 342.16 507.29 343.68 513.25 346.77 C 517.46 348.89 519.19 353.67 520.11 358.01 C 521.98 366.23 521.11 374.69 521.30 383.04 C 521.87 393.72 524.08 404.49 528.96 414.08 C 539.47 414.07 550.04 411.51 559.12 406.12 C 567.40 401.17 576.38 396.83 586.08 395.70 C 591.65 395.03 597.85 396.01 602.00 400.07 C 606.51 404.48 607.86 411.02 608.17 417.09 C 610.58 474.08 612.98 531.08 615.39 588.07 C 615.61 595.93 616.30 603.78 616.15 611.65 C 612.59 609.35 609.67 606.25 606.57 603.40 C 591.55 589.45 576.51 575.50 561.49 561.54 C 559.22 559.43 556.79 557.48 554.32 555.61 C 558.46 570.51 562.70 585.37 566.88 600.26 C 570.39 599.45 573.96 597.28 577.63 598.51 C 581.11 599.60 585.32 600.22 587.29 603.72 C 589.73 607.11 588.93 611.42 588.86 615.31 C 592.72 616.43 595.21 619.59 597.73 622.49 C 599.13 624.12 602.74 623.53 602.76 626.20 C 601.85 627.20 600.68 627.92 599.60 628.72 C 598.68 632.81 597.10 636.90 593.52 639.39 C 593.02 641.98 592.99 644.95 591.08 647.00 C 589.12 649.20 586.12 649.89 583.40 650.62 C 565.95 655.04 547.94 656.58 530.02 657.59 C 505.67 658.81 481.24 658.64 456.93 656.78 C 442.48 655.60 427.99 653.87 413.99 650.00 C 411.43 649.31 408.77 648.04 407.45 645.62 C 406.49 643.66 406.32 641.46 405.92 639.36 C 402.19 636.76 400.70 632.45 399.79 628.21 C 398.69 627.76 397.59 627.32 396.50 626.88 C 396.70 624.33 398.68 623.61 400.93 623.46 C 403.70 620.20 406.39 616.57 410.67 615.24 C 410.46 611.26 409.79 606.80 412.41 603.40 C 414.34 600.24 418.21 599.64 421.46 598.62 C 425.24 597.18 428.98 599.39 432.63 600.23 C 436.66 585.68 440.88 571.17 444.86 556.60 C 429.12 570.56 413.67 584.85 398.04 598.93 C 393.17 603.15 388.73 607.90 383.45 611.63 C 383.34 596.38 384.61 581.15 385.05 565.91 C 387.12 516.59 389.22 467.26 391.29 417.94 C 391.54 411.70 392.72 404.93 397.27 400.31 C 401.28 396.17 407.43 395.07 412.97 395.65 C 422.95 396.69 432.16 401.19 440.66 406.29 C 449.54 411.49 459.83 413.99 470.08 414.09 C 479.83 400.42 486.51 383.89 485.61 366.87 C 485.44 362.16 482.42 357.88 478.34 355.68 C 475.42 354.04 472.56 356.56 469.82 357.35 C 467.09 352.42 469.26 343.41 475.88 343.12 C 480.30 342.50 484.73 343.42 489.08 344.17 M 471.92 348.01 C 470.76 350.05 470.87 352.54 470.45 354.79 C 472.56 352.70 474.41 349.13 477.94 349.63 C 485.41 350.73 490.38 357.25 494.15 363.23 C 491.98 363.06 489.83 362.85 487.66 362.97 C 487.95 371.75 487.45 380.61 484.82 389.07 C 481.84 400.17 475.56 409.98 468.93 419.24 C 474.64 417.25 482.00 415.75 484.45 409.45 C 488.74 399.83 490.55 389.34 492.26 379.01 C 492.79 379.14 493.85 379.39 494.38 379.52 C 492.46 390.19 490.83 401.19 486.00 411.01 C 483.87 414.28 482.45 417.92 481.81 421.79 C 485.55 419.32 489.99 417.28 492.50 413.42 C 496.68 402.49 496.80 390.58 498.26 379.11 C 498.73 378.80 499.69 378.17 500.17 377.85 C 499.46 390.40 498.54 403.22 494.27 415.15 C 496.00 416.94 497.72 418.74 499.46 420.53 C 501.24 418.61 503.06 416.74 504.90 414.87 C 503.34 403.20 503.41 391.38 503.38 379.62 C 503.91 379.62 504.97 379.61 505.50 379.61 C 505.46 389.78 505.59 399.95 506.42 410.09 C 506.75 412.01 506.53 414.46 508.35 415.71 C 511.53 418.47 515.58 419.91 519.62 420.88 C 517.74 415.92 514.79 411.39 513.66 406.16 C 511.61 397.72 510.12 389.05 510.14 380.35 C 511.33 381.03 512.28 382.02 512.21 383.50 C 513.31 393.61 514.27 404.06 518.56 413.42 C 520.35 417.50 525.54 417.30 529.23 418.31 C 523.17 409.06 520.70 397.98 519.56 387.13 C 518.54 376.13 520.87 364.64 516.82 354.05 C 516.51 352.69 515.27 351.92 513.95 351.82 C 508.57 351.22 502.27 351.70 498.77 356.39 C 494.18 353.98 489.23 352.12 485.21 348.75 C 481.61 345.60 475.82 345.36 471.92 348.01 M 496.52 349.46 C 494.25 350.93 496.99 354.47 498.96 352.78 C 501.12 351.42 498.78 347.74 496.52 349.46 M 398.79 401.88 C 394.91 405.75 394.04 411.43 393.34 416.61 C 397.22 414.23 401.19 411.92 405.53 410.42 C 403.11 472.38 400.26 534.33 397.81 596.29 C 399.15 594.70 401.69 593.54 401.54 591.14 C 404.24 531.99 406.84 472.83 409.55 413.67 C 413.56 417.16 417.59 420.63 421.62 424.10 C 419.41 476.27 417.12 528.45 414.95 580.63 C 416.66 579.08 418.38 577.54 420.10 576.01 C 422.34 526.75 424.53 477.48 426.75 428.22 C 429.82 430.89 433.00 433.45 436.18 436.01 C 434.55 479.37 432.59 522.73 431.05 566.10 C 432.71 564.58 434.37 563.06 436.06 561.57 C 437.93 520.64 439.57 479.70 441.32 438.76 C 443.53 439.76 445.75 440.76 448.00 441.69 C 460.15 442.29 472.14 439.46 483.58 435.59 C 489.54 433.50 495.56 431.04 500.24 426.68 C 505.64 432.46 513.39 435.03 520.73 437.36 C 530.80 440.25 541.31 442.52 551.85 441.43 C 554.06 440.84 556.06 439.67 558.15 438.74 C 559.84 478.51 561.52 518.28 563.21 558.05 C 562.93 561.40 566.59 562.87 568.45 565.06 C 566.78 522.06 564.99 479.06 563.28 436.06 C 566.46 433.46 569.65 430.89 572.74 428.18 C 574.91 477.16 577.16 526.14 579.31 575.12 C 581.04 576.72 582.77 578.32 584.52 579.92 C 582.32 527.97 580.07 476.03 577.87 424.09 C 581.91 420.60 586.00 417.16 589.96 413.57 C 592.66 473.26 595.23 532.96 598.07 592.64 C 599.27 593.70 600.47 594.76 601.69 595.83 C 599.13 534.04 596.46 472.25 593.91 410.46 C 598.29 411.86 602.26 414.22 606.12 416.68 C 605.52 411.31 604.51 405.44 600.39 401.56 C 596.35 397.68 590.27 397.13 584.98 397.99 C 576.03 399.42 567.73 403.45 560.04 408.10 C 551.16 413.30 540.91 415.96 530.65 416.18 C 531.72 417.58 532.75 419.01 533.70 420.53 C 529.47 420.47 525.29 419.72 521.25 418.52 C 521.29 420.03 521.32 421.54 521.33 423.06 C 515.67 422.53 510.42 420.13 506.00 416.63 C 503.76 418.91 501.60 421.26 499.48 423.65 C 497.31 421.28 495.10 418.96 492.89 416.63 C 488.58 420.13 483.90 423.18 478.86 425.53 C 479.54 422.56 480.25 419.61 480.98 416.66 C 475.85 419.30 470.36 421.47 464.51 421.53 C 465.82 419.75 467.17 418.00 468.53 416.25 C 458.50 415.81 448.46 413.35 439.75 408.26 C 431.81 403.47 423.26 399.26 414.00 397.92 C 408.72 397.12 402.66 397.87 398.79 401.88 M 477.34 439.54 C 468.73 441.91 459.86 443.94 450.87 443.49 C 450.64 468.43 458.05 493.40 471.80 514.21 C 479.31 525.68 488.92 535.67 499.62 544.20 C 530.63 520.81 548.95 482.27 548.69 443.55 C 539.70 443.96 530.81 442.08 522.18 439.76 C 514.40 437.49 506.44 434.84 500.19 429.48 C 493.40 434.46 485.34 437.22 477.34 439.54 M 450.43 467.24 C 450.82 476.50 449.78 485.74 449.52 495.00 C 448.85 512.82 447.50 530.62 447.26 548.45 C 448.89 541.93 451.15 535.57 452.46 528.97 C 453.25 514.32 453.61 499.64 454.32 484.98 C 454.65 481.20 453.30 477.60 452.48 473.99 C 451.80 471.75 451.80 469.20 450.43 467.24 M 545.25 486.99 C 545.94 500.99 546.23 515.01 547.04 529.00 C 548.38 535.81 550.68 542.40 552.52 549.09 C 551.20 521.89 550.02 494.68 548.61 467.48 C 547.26 473.93 544.48 480.27 545.25 486.99 M 462.41 501.86 C 459.76 511.58 456.95 521.25 454.26 530.95 C 455.36 533.62 456.45 536.29 457.54 538.97 C 461.32 535.47 465.03 531.90 468.75 528.32 C 468.17 523.23 467.68 518.14 467.14 513.04 C 466.97 508.83 464.20 505.48 462.41 501.86 M 532.36 512.94 C 531.80 518.04 531.33 523.16 530.72 528.26 C 534.40 531.88 538.16 535.43 541.90 538.99 C 543.01 536.31 544.11 533.63 545.23 530.95 C 542.48 521.29 539.86 511.60 537.01 501.97 C 535.18 505.48 532.54 508.82 532.36 512.94 M 469.33 514.05 C 469.83 518.15 470.22 522.27 470.71 526.38 C 472.17 525.04 473.68 523.74 474.93 522.21 C 473.24 519.37 471.16 516.79 469.33 514.05 M 524.31 522.22 C 525.80 523.62 527.29 525.04 528.79 526.45 C 529.23 522.35 529.68 518.25 530.08 514.16 C 528.16 516.85 526.27 519.55 524.31 522.22 M 470.99 529.17 C 471.58 534.73 472.14 540.31 472.79 545.87 C 476.40 541.31 479.89 536.65 483.42 532.03 C 481.05 529.40 478.73 526.74 476.51 523.99 C 474.66 525.71 472.83 527.44 470.99 529.17 M 516.02 531.99 C 519.59 536.63 523.11 541.32 526.72 545.94 C 527.31 540.35 527.91 534.75 528.49 529.16 C 526.64 527.43 524.80 525.69 522.97 523.96 C 520.71 526.68 518.40 529.36 516.02 531.99 M 530.43 531.05 C 529.68 537.58 529.30 544.16 528.09 550.63 C 525.02 547.66 522.58 544.15 520.00 540.79 C 518.32 546.93 516.21 552.95 514.80 559.15 C 517.00 564.21 520.78 568.53 523.66 573.26 C 525.12 566.13 525.90 558.86 527.88 551.84 C 531.50 555.71 534.34 560.22 537.64 564.35 C 538.99 559.55 540.18 554.69 541.88 549.99 C 546.17 553.74 549.95 558.02 553.97 562.06 C 551.43 552.88 548.87 543.71 546.21 534.57 C 545.01 537.19 543.90 539.85 542.66 542.45 C 538.36 538.89 534.50 534.86 530.43 531.05 M 459.33 540.37 C 458.51 541.01 457.75 542.03 456.58 541.87 C 455.28 539.47 454.36 536.90 453.29 534.40 C 450.70 543.56 448.06 552.71 445.58 561.90 C 449.59 558.01 453.31 553.83 457.42 550.05 C 459.43 554.62 460.42 559.53 461.86 564.29 C 465.13 560.23 467.98 555.84 471.41 551.91 C 473.78 558.78 474.25 566.12 475.84 573.18 C 478.94 568.69 481.87 564.09 484.91 559.56 C 483.16 553.29 481.29 547.06 479.53 540.80 C 476.89 544.09 474.55 547.66 471.45 550.56 C 470.12 544.14 469.85 537.57 469.03 531.09 C 465.76 534.14 462.59 537.31 459.33 540.37 M 481.13 538.54 C 482.93 544.84 484.64 551.17 486.69 557.40 C 488.45 551.46 489.49 545.35 490.90 539.32 C 488.90 537.44 486.92 535.54 484.95 533.65 C 483.68 535.28 482.41 536.91 481.13 538.54 M 508.60 539.20 C 509.92 545.22 511.04 551.30 512.72 557.23 C 514.99 551.18 516.43 544.87 518.36 538.71 C 517.10 537.00 515.82 535.30 514.56 533.60 C 512.59 535.48 510.61 537.36 508.60 539.20 M 444.76 565.96 C 446.79 573.38 448.76 580.81 450.86 588.21 C 454.06 583.36 456.68 578.12 460.28 573.53 C 462.46 578.44 463.82 583.67 465.60 588.74 C 468.35 584.43 471.41 580.30 473.81 575.80 C 473.39 569.25 471.52 562.85 470.57 556.36 C 467.40 560.45 464.62 564.87 461.00 568.60 C 459.34 563.73 458.06 558.74 456.67 553.79 C 452.64 557.79 448.71 561.89 444.76 565.96 M 542.82 553.81 C 541.34 558.60 540.39 563.56 538.52 568.22 C 534.39 565.31 532.65 560.18 528.92 556.84 C 527.70 563.12 526.23 569.42 525.66 575.78 C 528.06 580.30 531.13 584.43 533.88 588.75 C 535.70 583.67 536.88 578.32 539.42 573.53 C 542.72 578.29 545.53 583.36 548.59 588.28 C 550.73 580.86 552.68 573.38 554.73 565.93 C 550.75 561.90 546.86 557.78 542.82 553.81 M 495.63 557.92 C 494.16 571.93 491.91 585.84 490.01 599.80 C 487.90 601.31 485.81 602.86 483.74 604.42 C 482.33 603.11 480.93 601.79 479.52 600.49 C 479.05 602.60 478.61 604.72 478.16 606.84 C 481.39 606.75 484.62 606.20 487.85 606.48 C 491.77 608.53 496.76 609.73 498.48 614.33 C 499.10 614.34 500.36 614.36 500.98 614.38 C 502.80 609.65 507.96 608.37 512.10 606.43 C 515.18 606.28 518.26 606.71 521.34 606.80 C 520.86 604.67 520.41 602.56 519.93 600.44 C 518.56 601.78 517.19 603.10 515.83 604.45 C 513.70 602.87 511.57 601.30 509.45 599.73 C 507.40 585.78 505.75 571.77 503.44 557.86 C 504.22 570.87 504.97 583.89 505.77 596.91 C 506.28 601.31 501.85 603.99 499.69 607.31 C 497.41 603.75 492.72 600.79 493.76 596.02 C 494.37 583.32 495.70 570.64 495.63 557.92 M 476.69 576.23 C 477.01 581.10 478.49 585.87 479.57 590.63 C 481.77 581.13 483.81 571.59 485.87 562.06 C 482.84 566.80 479.44 571.32 476.69 576.23 M 513.82 562.54 C 515.63 571.89 517.74 581.18 519.92 590.45 C 521.00 585.72 522.55 581.00 522.77 576.16 C 520.07 571.44 516.89 567.01 513.82 562.54 M 443.41 569.48 C 440.43 579.92 437.48 590.37 434.58 600.84 C 436.65 601.32 438.72 601.79 440.79 602.28 C 443.36 598.12 447.02 594.54 448.94 590.05 C 447.41 583.12 445.32 576.32 443.41 569.48 M 550.28 590.43 C 553.09 594.40 555.92 598.37 558.77 602.32 C 560.81 601.81 562.86 601.31 564.91 600.80 C 561.97 590.41 559.14 579.99 556.07 569.64 C 553.95 576.52 552.23 583.50 550.28 590.43 M 451.74 591.77 C 452.78 596.41 454.44 600.88 455.74 605.45 C 460.14 603.56 460.94 598.00 464.06 594.71 C 465.76 598.49 466.92 602.48 468.27 606.39 C 470.87 606.52 473.46 606.65 476.06 606.78 C 476.80 603.22 477.88 599.72 478.22 596.09 C 477.40 590.25 475.87 584.52 474.66 578.75 C 471.48 583.56 468.70 588.66 465.00 593.11 C 462.93 588.16 461.49 582.98 459.75 577.92 C 457.17 582.58 453.69 586.83 451.74 591.77 M 539.70 577.91 C 537.97 583.00 536.70 588.27 534.26 593.09 C 530.84 588.50 528.00 583.52 524.77 578.81 C 523.75 583.57 522.72 588.34 521.70 593.11 C 520.52 597.73 522.65 602.28 523.43 606.80 C 526.05 606.66 528.67 606.51 531.29 606.36 C 532.54 602.44 533.64 598.43 535.59 594.79 C 537.98 598.10 539.69 601.85 542.11 605.15 C 542.51 605.10 543.31 605.02 543.71 604.98 C 545.49 600.57 546.53 595.90 547.96 591.37 C 545.19 586.90 542.50 582.37 539.70 577.91 M 443.06 602.82 C 446.44 603.49 449.83 604.10 453.24 604.66 C 452.11 600.90 450.98 597.14 449.84 593.39 C 447.53 596.50 445.29 599.66 443.06 602.82 M 549.64 593.45 C 548.48 597.18 547.35 600.93 546.25 604.68 C 549.64 604.10 553.04 603.49 556.42 602.83 C 554.20 599.67 551.98 596.51 549.64 593.45 M 459.89 605.53 C 461.87 605.73 463.85 605.92 465.84 606.14 C 465.09 603.81 464.35 601.49 463.59 599.17 C 462.35 601.28 461.11 603.40 459.89 605.53 M 423.14 600.13 C 421.00 602.35 421.57 605.55 421.49 608.34 C 430.02 611.11 438.90 612.56 447.68 614.32 C 448.65 611.60 449.89 608.35 453.09 607.66 C 456.10 606.61 458.80 609.40 458.88 612.31 C 463.23 611.00 467.98 609.82 472.20 612.29 C 468.59 613.93 464.36 613.77 460.66 612.59 C 460.09 613.76 459.57 614.92 459.13 616.17 C 468.15 617.29 477.31 617.74 486.35 616.66 C 487.85 614.92 489.43 613.25 491.01 611.58 C 489.73 610.54 488.81 608.45 486.95 608.55 C 469.77 609.64 452.50 607.36 435.82 603.33 C 431.55 602.42 427.50 600.54 423.14 600.13 M 535.85 599.75 C 534.98 601.83 534.28 603.98 533.57 606.14 C 535.57 605.93 537.56 605.73 539.57 605.52 C 538.46 603.51 537.36 601.48 535.85 599.75 M 554.92 605.31 C 541.13 607.85 527.04 609.57 513.01 608.54 C 510.95 608.30 509.82 610.36 508.51 611.55 C 510.01 613.20 511.54 614.85 512.98 616.58 C 521.79 617.84 530.72 617.16 539.54 616.37 C 540.08 613.03 540.58 607.78 544.93 607.47 C 548.83 607.38 550.85 611.10 551.75 614.35 C 560.41 612.50 569.28 611.31 577.66 608.38 C 578.54 605.53 577.84 602.57 576.69 599.93 C 569.37 601.49 562.30 604.02 554.92 605.31 M 414.31 604.45 C 412.70 606.48 412.64 609.19 412.20 611.63 C 414.53 610.49 417.51 610.06 419.21 607.95 C 419.56 605.68 419.33 603.38 419.36 601.11 C 417.60 602.07 415.57 602.79 414.31 604.45 M 580.17 601.19 C 580.26 603.59 579.68 606.13 580.54 608.45 C 582.57 609.90 584.98 610.69 587.26 611.71 C 587.33 607.03 584.90 602.46 580.17 601.19 M 450.30 613.90 C 449.57 616.79 452.08 618.97 453.37 621.26 C 454.73 619.86 456.24 618.57 457.28 616.91 C 458.00 614.28 457.10 611.31 455.08 609.51 C 452.65 609.52 450.48 611.48 450.30 613.90 M 541.97 615.03 C 541.70 617.83 544.49 619.36 546.07 621.23 C 547.43 619.00 549.82 616.85 549.21 613.98 C 549.19 611.38 546.58 610.25 544.76 609.02 C 543.41 610.77 541.83 612.65 541.97 615.03 M 417.70 611.69 C 414.51 612.95 414.59 616.82 413.47 619.52 C 412.19 619.72 410.91 619.88 409.63 619.98 C 407.45 622.10 405.52 624.44 403.52 626.73 C 404.42 630.67 405.60 635.02 409.83 636.54 C 410.11 638.74 410.10 641.02 410.79 643.16 C 411.55 645.26 413.99 645.75 415.87 646.34 C 430.93 650.40 446.50 652.01 462.01 653.14 C 486.92 654.78 511.92 654.78 536.83 653.18 C 553.30 651.95 569.93 650.42 585.82 645.69 C 589.82 644.65 588.88 639.94 589.76 636.87 C 590.98 635.70 592.44 634.81 593.60 633.59 C 594.87 631.48 595.22 628.98 595.93 626.65 C 594.10 624.66 592.57 622.37 590.48 620.64 C 588.50 619.63 585.06 620.15 585.22 617.06 C 585.07 612.98 580.87 610.01 576.97 611.09 C 568.59 613.17 560.14 615.01 551.63 616.51 C 549.58 619.75 547.52 623.00 546.28 626.66 C 544.85 623.52 542.80 620.76 540.33 618.35 C 531.28 619.41 522.11 619.82 513.03 618.85 C 510.07 621.44 506.56 623.59 504.89 627.34 C 502.83 624.74 501.66 621.64 501.00 618.43 C 500.17 618.37 499.35 618.33 498.54 618.29 C 497.61 621.28 497.17 624.84 494.56 626.93 C 492.41 623.71 489.37 621.33 486.48 618.84 C 477.38 619.83 468.19 619.38 459.12 618.37 C 456.69 620.75 454.48 623.39 453.36 626.66 C 451.80 623.13 450.15 619.57 447.62 616.62 C 440.96 614.97 434.13 614.07 427.49 612.28 C 424.30 611.60 420.83 609.92 417.70 611.69 M 488.41 617.85 C 490.58 619.62 492.81 621.32 495.00 623.08 C 496.44 619.10 496.86 614.51 493.99 611.03 C 492.23 613.39 490.24 615.55 488.41 617.85 M 504.40 623.07 C 506.61 621.35 508.83 619.65 511.02 617.90 C 509.23 615.64 507.33 613.47 505.58 611.18 C 502.46 614.48 503.14 619.12 504.40 623.07 Z" />
<path fill="#c09300" opacity="1.00" d=" M 474.97 442.95 C 483.72 440.65 492.50 437.80 500.08 432.73 C 506.52 437.59 514.23 440.32 521.93 442.46 C 529.76 444.58 537.82 446.07 545.97 446.10 C 545.76 482.49 528.60 518.46 499.70 540.74 C 489.26 532.41 480.01 522.52 472.80 511.26 C 460.36 491.92 453.69 468.97 453.58 445.99 C 460.83 446.18 467.98 444.70 474.97 442.95 M 482.16 442.50 C 482.07 467.68 482.18 492.85 482.10 518.03 C 482.15 519.63 481.92 521.51 483.23 522.73 C 488.16 528.62 493.78 533.91 499.73 538.76 C 505.18 534.21 510.45 529.40 515.07 524.01 C 516.17 522.92 516.51 521.44 516.39 519.95 C 516.34 494.10 516.43 468.25 516.34 442.40 C 510.59 440.55 505.01 438.10 500.03 434.65 C 494.47 438.11 488.39 440.57 482.16 442.50 Z" />
<path fill="#c09300" opacity="1.00" d=" M 422.54 603.05 C 426.46 602.08 431.23 603.13 433.46 606.74 C 429.65 606.11 425.95 604.86 422.54 603.05 Z" />
<path fill="#c09300" opacity="1.00" d=" M 565.90 606.54 C 568.56 603.55 572.91 601.81 576.83 603.15 C 573.42 604.91 569.74 606.27 565.90 606.54 Z" />
<path fill="#c09300" opacity="1.00" d=" M 437.40 606.44 C 441.20 607.20 445.13 607.99 448.34 610.32 C 444.15 610.73 440.23 608.84 436.28 607.77 C 436.56 607.44 437.12 606.77 437.40 606.44 Z" />
<path fill="#c09300" opacity="1.00" d=" M 551.40 610.72 C 554.48 607.61 559.48 606.12 563.75 607.25 C 559.83 609.01 555.66 610.22 551.40 610.72 Z" />
<path fill="#c09300" opacity="1.00" d=" M 527.27 613.07 C 530.64 609.76 536.38 610.07 539.84 613.07 C 535.66 613.52 531.44 613.51 527.27 613.07 Z" />
<path fill="#c09300" opacity="1.00" d=" M 474.38 614.36 C 477.51 610.94 482.69 611.88 486.80 612.32 C 482.96 614.17 478.56 614.31 474.38 614.36 Z" />
<path fill="#c09300" opacity="1.00" d=" M 513.15 611.98 C 516.92 612.26 522.29 610.69 524.76 614.37 C 521.26 614.48 517.81 613.76 514.35 613.40 C 514.05 613.04 513.45 612.34 513.15 611.98 Z" />
<path fill="#c09300" opacity="1.00" d=" M 422.13 617.99 C 424.88 617.79 427.63 617.53 430.31 616.81 C 429.16 621.75 426.91 626.42 426.22 631.48 C 427.54 631.80 428.88 632.08 430.24 632.32 C 430.35 630.51 430.39 628.71 430.32 626.91 C 431.70 626.23 433.08 625.54 434.47 624.87 C 433.93 627.71 433.24 630.52 432.57 633.34 C 434.38 633.62 436.20 633.88 438.04 633.91 C 438.34 632.31 438.10 630.69 437.92 629.11 C 439.41 628.45 440.89 627.78 442.39 627.13 C 441.37 630.48 441.63 634.86 439.13 637.43 C 432.12 636.23 425.20 634.37 418.49 632.03 C 417.94 628.07 421.98 626.32 425.16 625.68 C 425.83 623.44 426.44 621.20 426.95 618.93 C 425.70 619.39 424.44 619.87 423.20 620.36 C 423.38 621.27 423.73 623.08 423.91 623.98 C 422.89 624.25 421.85 624.35 420.81 624.23 C 421.30 622.16 422.00 620.12 422.13 617.99 M 422.41 629.10 C 422.57 632.41 425.40 627.55 422.41 629.10 Z" />
<path fill="#c09300" opacity="1.00" d=" M 562.04 619.60 C 565.18 618.09 570.31 616.84 572.28 620.69 C 573.52 624.57 573.48 628.89 575.83 632.40 C 577.36 631.64 578.87 630.87 580.40 630.10 C 581.26 630.97 582.10 631.88 582.93 632.81 C 580.78 633.98 578.24 634.29 576.17 635.59 C 576.72 635.92 577.83 636.60 578.38 636.94 C 578.33 637.72 578.28 638.51 578.24 639.31 C 577.26 639.28 576.30 639.27 575.34 639.25 C 576.01 637.10 574.43 635.43 572.40 635.90 C 570.74 637.02 569.46 638.69 567.60 639.50 C 565.65 639.80 563.87 638.64 562.05 638.16 C 561.30 640.35 560.76 643.56 557.95 643.89 C 554.91 643.57 553.54 639.02 550.10 640.50 C 547.24 640.29 546.13 642.89 544.68 644.78 C 543.28 646.62 540.58 645.95 538.64 646.27 C 540.43 645.03 542.32 643.91 543.99 642.50 C 542.30 641.76 540.41 641.87 538.63 641.71 C 537.97 637.70 540.60 634.49 544.31 633.37 C 545.10 635.21 545.97 637.06 547.05 638.77 C 547.89 635.58 549.34 632.63 551.80 630.40 C 551.33 629.76 550.37 628.50 549.89 627.86 C 550.91 626.98 551.96 626.15 553.05 625.35 C 553.68 626.91 554.18 628.52 554.70 630.14 C 557.78 630.99 559.87 633.35 561.78 635.76 C 563.09 634.23 564.33 632.61 565.90 631.32 C 568.15 631.90 570.19 633.07 572.36 633.90 C 571.30 630.09 570.94 626.09 569.58 622.38 C 568.38 619.98 566.06 621.74 564.31 622.35 C 563.54 621.43 562.78 620.51 562.04 619.60 M 555.38 634.18 C 554.16 635.49 556.18 637.94 557.61 636.61 C 558.84 635.34 556.73 632.85 555.38 634.18 M 565.65 634.54 C 564.08 635.87 566.56 637.89 567.88 636.62 C 569.57 635.30 566.95 633.27 565.65 634.54 M 551.06 635.08 C 549.66 636.14 551.39 638.58 552.80 637.38 C 554.22 636.32 552.46 633.82 551.06 635.08 M 542.33 637.14 C 541.00 637.83 540.99 638.50 542.31 639.16 C 543.63 638.48 543.64 637.80 542.33 637.14 M 557.11 639.02 C 556.60 640.64 557.16 641.18 558.80 640.64 C 559.30 639.01 558.74 638.47 557.11 639.02 Z" />
<path fill="#c09300" opacity="1.00" d=" M 465.44 625.90 C 466.76 625.30 468.08 624.68 469.42 624.10 C 468.61 630.40 468.33 636.82 466.77 643.00 C 466.38 645.28 463.39 646.97 461.37 645.61 C 459.79 644.73 459.96 642.66 459.41 641.18 C 458.81 641.11 457.62 640.96 457.02 640.89 C 456.60 639.97 456.19 639.06 455.78 638.16 C 454.93 638.82 454.07 639.48 453.23 640.16 C 451.29 639.90 449.34 639.67 447.40 639.51 C 445.06 642.32 441.54 643.20 438.16 641.76 C 439.94 640.98 441.83 640.41 443.54 639.48 C 445.73 636.44 442.60 632.18 445.99 629.56 C 446.81 631.89 447.21 634.37 448.20 636.65 C 449.77 637.23 453.34 638.05 453.04 635.36 C 451.87 634.59 450.67 633.85 449.46 633.17 C 452.18 631.00 454.74 628.43 457.97 627.04 C 460.20 629.65 461.69 632.82 463.47 635.75 C 461.79 636.10 460.12 636.46 458.46 636.83 C 459.75 637.71 461.07 638.55 462.41 639.39 C 462.56 640.36 462.86 642.30 463.02 643.26 C 464.88 641.33 464.84 638.56 465.29 636.10 C 465.81 632.72 466.32 629.26 465.44 625.90 M 456.20 631.95 C 454.49 632.44 455.55 634.95 457.12 634.30 C 458.83 633.88 457.70 631.27 456.20 631.95 Z" />
<path fill="#c09300" opacity="1.00" d=" M 469.70 642.89 C 469.64 636.69 471.17 630.59 471.80 624.44 C 472.88 625.48 473.96 626.54 475.05 627.60 C 472.36 632.26 473.41 637.84 472.00 642.85 C 471.43 642.86 470.27 642.88 469.70 642.89 Z" />
<path fill="#c09300" opacity="1.00" d=" M 516.96 627.85 C 518.09 627.20 519.21 626.53 520.41 626.01 C 521.25 630.96 521.40 635.99 522.17 640.96 C 523.59 640.84 525.02 640.71 526.45 640.57 C 525.99 638.68 525.40 636.81 524.59 635.05 C 525.75 634.55 526.91 634.02 528.11 633.60 C 528.83 636.75 529.09 639.98 529.38 643.20 C 524.29 643.69 519.19 644.16 514.08 644.40 C 514.39 642.61 514.48 640.76 515.15 639.06 C 516.20 637.80 517.60 636.91 518.77 635.77 C 519.02 633.00 518.12 630.31 516.96 627.85 M 517.31 639.92 C 516.84 641.54 517.41 642.07 519.04 641.50 C 519.49 639.87 518.92 639.34 517.31 639.92 Z" />
<path fill="#c09300" opacity="1.00" d=" M 513.33 628.40 C 513.78 626.60 516.73 628.82 515.92 629.88 C 515.56 632.64 510.71 629.96 513.33 628.40 Z" />
<path fill="#c09300" opacity="1.00" d=" M 513.31 632.17 C 514.41 631.89 515.45 632.06 516.41 632.69 C 516.59 633.84 515.90 634.72 514.97 635.34 C 513.14 635.23 512.71 633.65 513.31 632.17 Z" />
<path fill="#c09300" opacity="1.00" d=" M 482.61 634.21 C 483.67 633.66 484.75 633.13 485.84 632.62 C 486.18 633.81 486.51 635.00 486.85 636.20 C 491.42 636.53 496.01 636.65 500.58 636.97 C 500.72 638.55 501.31 640.04 501.64 641.59 C 503.30 638.18 506.36 636.16 510.06 635.58 C 510.44 638.50 510.74 641.43 510.81 644.39 C 507.63 644.50 504.45 644.53 501.27 644.66 C 501.05 645.42 500.60 646.94 500.37 647.69 C 498.88 647.98 497.10 649.72 495.79 648.24 C 494.54 647.23 493.88 645.51 492.48 644.75 C 488.76 644.22 484.93 643.70 481.18 644.09 C 479.70 645.34 478.66 647.10 476.93 648.04 C 474.80 648.66 472.57 648.05 470.43 647.88 C 472.69 646.71 475.77 646.55 477.27 644.28 C 478.63 642.05 476.60 639.83 475.80 637.82 C 476.62 636.80 477.44 635.80 478.27 634.81 C 479.53 637.14 480.72 639.56 482.48 641.59 C 483.24 639.16 483.22 636.66 482.61 634.21 M 485.32 640.71 C 488.81 641.47 492.39 641.52 495.94 641.74 C 496.49 643.14 497.07 644.55 497.77 645.91 C 497.97 643.90 498.10 641.91 498.20 639.92 C 493.93 639.93 489.13 638.09 485.32 640.71 M 505.93 639.94 C 505.42 641.56 505.98 642.08 507.62 641.52 C 508.11 639.88 507.55 639.35 505.93 639.94 Z" />
<path fill="#c09300" opacity="1.00" d=" M 530.80 637.32 C 531.53 635.91 532.28 634.51 533.05 633.13 C 535.26 636.25 537.74 639.97 536.63 644.00 C 535.31 646.92 531.80 647.61 528.91 647.51 C 530.49 645.92 532.79 644.81 533.62 642.61 C 534.29 640.28 532.10 638.83 530.80 637.32 Z" />
<path fill="#c09300" opacity="1.00" d=" M 421.45 635.51 C 422.56 633.19 425.85 636.24 423.60 637.45 C 422.91 639.08 419.49 636.09 421.45 635.51 Z" />
<path fill="#c09300" opacity="1.00" d=" M 425.43 636.73 C 426.42 636.39 427.41 636.08 428.42 635.80 C 428.39 636.63 428.34 638.31 428.31 639.15 C 427.03 638.65 425.09 638.54 425.43 636.73 Z" />
<path fill="#c09300" opacity="1.00" d=" M 432.12 638.12 C 433.50 638.31 435.03 638.28 436.16 639.28 C 435.63 640.10 434.94 640.77 434.12 641.30 C 432.66 640.86 432.62 639.25 432.12 638.12 Z" />
<path fill="#c09300" opacity="1.00" d=" M 517.61 645.78 C 519.98 645.48 522.39 645.46 524.79 645.46 C 526.36 647.86 523.29 648.86 521.48 647.82 C 520.25 648.02 519.07 648.37 517.83 648.29 C 517.68 647.45 517.61 646.62 517.61 645.78 Z" />
</g>
<g id="#e7d69dff">
<path fill="#e7d69d" opacity="1.00" d=" M 422.41 629.10 C 425.40 627.55 422.57 632.41 422.41 629.10 Z" />
</g>
<g id="#f4edd5ff">
<path fill="#f4edd5" opacity="1.00" d=" M 456.20 631.95 C 457.70 631.27 458.83 633.88 457.12 634.30 C 455.55 634.95 454.49 632.44 456.20 631.95 Z" />
</g>
<g id="#efe3beff">
<path fill="#efe3be" opacity="1.00" d=" M 542.33 637.14 C 543.64 637.80 543.63 638.48 542.31 639.16 C 540.99 638.50 541.00 637.83 542.33 637.14 Z" />
</g>
<g id="#dfc87dff">
<path fill="#dfc87d" opacity="1.00" d=" M 557.11 639.02 C 558.74 638.47 559.30 639.01 558.80 640.64 C 557.16 641.18 556.60 640.64 557.11 639.02 Z" />
</g>
<g id="#000000ff">
<path fill="#000000" opacity="1.00" d=" M 42.34 666.75 C 354.11 666.75 665.89 666.75 977.66 666.75 C 961.17 712.20 938.01 755.23 909.13 794.01 C 866.66 851.16 811.73 898.99 749.28 933.19 C 679.27 971.68 599.87 992.90 519.99 994.40 C 448.67 995.90 377.09 981.75 311.69 953.28 C 250.24 926.60 194.27 887.36 148.32 838.61 C 101.73 789.38 65.44 730.47 42.34 666.75 Z" />
</g>
</svg>
