<?xml version="1.0" encoding="UTF-8" ?>
<!DOCTYPE svg PUBLIC "-//W3C//DTD SVG 1.1//EN" "http://www.w3.org/Graphics/SVG/1.1/DTD/svg11.dtd">
<svg width="128pt" height="128pt" viewBox="0 0 128 128" version="1.1" xmlns="http://www.w3.org/2000/svg">
<g id="#3b8fc9ff">
<path fill="#3b8fc9" opacity="1.00" d=" M 41.99 8.97 C 55.27 3.60 70.50 3.35 83.97 8.25 C 100.51 14.05 114.05 27.66 119.77 44.24 C 82.55 44.21 45.34 44.30 8.12 44.30 C 13.58 28.35 26.30 15.13 41.99 8.97 Z" />
</g>
<g id="#131313ff">
<path fill="#131313" opacity="1.00" d=" M 8.12 44.30 C 45.34 44.30 82.55 44.21 119.77 44.24 C 124.27 56.79 124.29 70.86 119.86 83.43 C 82.59 83.47 45.32 83.38 8.05 83.39 C 3.62 70.86 3.65 56.82 8.12 44.30 Z" />
</g>
<g id="#eeeeefff">
<path fill="#eeeeef" opacity="1.00" d=" M 8.05 83.39 C 45.32 83.38 82.59 83.47 119.86 83.43 C 114.12 100.11 100.53 113.84 83.89 119.69 C 68.34 125.33 50.46 124.03 35.94 116.11 C 22.98 109.21 12.79 97.29 8.05 83.39 Z" />
</g>
</svg>
