<?xml version="1.0" encoding="UTF-8" ?>
<!DOCTYPE svg PUBLIC "-//W3C//DTD SVG 1.1//EN" "http://www.w3.org/Graphics/SVG/1.1/DTD/svg11.dtd">
<svg width="128pt" height="128pt" viewBox="0 0 128 128" version="1.1" xmlns="http://www.w3.org/2000/svg">
<g id="#e9293dff">
<path fill="#e9293d" opacity="1.00" d=" M 38.08 10.64 C 44.52 7.63 51.44 5.62 58.53 4.99 C 58.59 20.95 58.53 36.90 58.55 52.86 C 79.67 53.52 100.97 53.02 122.15 53.15 C 123.45 59.91 123.49 66.88 122.36 73.67 C 101.13 73.72 79.91 73.66 58.68 73.74 C 58.37 90.12 58.67 106.52 58.53 122.91 C 51.43 122.31 44.51 120.27 38.06 117.27 C 37.91 102.76 38.11 88.25 37.98 73.75 C 27.18 73.63 16.37 73.73 5.56 73.70 C 4.38 66.91 4.45 59.90 5.77 53.14 C 16.50 53.15 27.24 53.21 37.98 53.11 C 38.14 38.95 37.87 24.79 38.08 10.64 Z" />
</g>
<g id="#3e5ca6fb">
<path fill="#3e5ca6" opacity="1.00" d=" M 58.53 4.99 C 59.13 4.94 60.33 4.85 60.93 4.80 C 60.97 20.00 61.00 35.19 61.00 50.37 C 81.19 50.47 101.39 50.28 121.58 50.38 C 121.83 51.29 122.02 52.22 122.15 53.15 C 100.97 53.02 79.67 53.52 58.55 52.86 C 58.53 36.90 58.59 20.95 58.53 4.99 Z" />
<path fill="#3e5ca6" opacity="1.00" d=" M 35.17 12.24 C 36.12 11.67 37.09 11.14 38.08 10.64 C 37.87 24.79 38.14 38.95 37.98 53.11 C 27.24 53.21 16.50 53.15 5.77 53.14 C 5.89 52.47 6.12 51.13 6.24 50.46 L 6.38 50.45 C 15.95 50.32 25.53 50.47 35.10 50.37 C 35.20 37.66 35.09 24.95 35.17 12.24 Z" />
<path fill="#3e5ca6" opacity="1.00" d=" M 58.68 73.74 C 79.91 73.66 101.13 73.72 122.36 73.67 C 122.25 74.30 122.02 75.57 121.91 76.21 L 121.24 76.23 C 101.16 76.34 81.09 76.11 61.01 76.16 C 60.98 91.82 60.98 107.48 60.94 123.15 C 60.34 123.09 59.13 122.97 58.53 122.91 C 58.67 106.52 58.37 90.12 58.68 73.74 Z" />
<path fill="#3e5ca6" opacity="1.00" d=" M 5.56 73.70 C 16.37 73.73 27.18 73.63 37.98 73.75 C 38.11 88.25 37.91 102.76 38.06 117.27 C 37.08 116.76 36.12 116.23 35.17 115.69 C 35.07 102.51 35.21 89.33 35.10 76.16 C 25.41 76.18 15.72 76.18 6.03 76.14 C 5.91 75.53 5.68 74.31 5.56 73.70 Z" />
</g>
<g id="#ebecedff">
<path fill="#ebeced" opacity="1.00" d=" M 60.93 4.80 C 78.90 3.85 97.11 11.58 108.77 25.31 C 114.99 32.47 119.39 41.16 121.58 50.38 C 101.39 50.28 81.19 50.47 61.00 50.37 C 61.00 35.19 60.97 20.00 60.93 4.80 Z" />
<path fill="#ebeced" opacity="1.00" d=" M 6.38 50.45 C 9.91 34.38 20.77 20.15 35.17 12.24 C 35.09 24.95 35.20 37.66 35.10 50.37 C 25.53 50.47 15.95 50.32 6.38 50.45 Z" />
<path fill="#ebeced" opacity="1.00" d=" M 6.03 76.14 C 15.72 76.18 25.41 76.18 35.10 76.16 C 35.21 89.33 35.07 102.51 35.17 115.69 C 20.33 107.56 9.40 92.71 6.03 76.14 Z" />
<path fill="#ebeced" opacity="1.00" d=" M 61.01 76.16 C 81.09 76.11 101.16 76.34 121.24 76.23 L 121.89 76.30 C 118.08 94.29 105.48 110.15 88.70 117.73 C 80.05 121.74 70.44 123.51 60.94 123.15 C 60.98 107.48 60.98 91.82 61.01 76.16 Z" />
</g>
</svg>
