<?xml version="1.0" encoding="UTF-8" ?>
<!DOCTYPE svg PUBLIC "-//W3C//DTD SVG 1.1//EN" "http://www.w3.org/Graphics/SVG/1.1/DTD/svg11.dtd">
<svg width="128pt" height="128pt" viewBox="0 0 128 128" version="1.1" xmlns="http://www.w3.org/2000/svg">
<g id="#3555a2ff">
<path fill="#3555a2" opacity="1.00" d=" M 35.21 12.22 C 43.00 7.73 51.94 5.33 60.88 4.80 C 60.96 20.00 60.88 35.20 60.94 50.40 C 81.15 50.52 101.35 50.21 121.57 50.35 C 123.58 58.81 123.75 67.71 121.85 76.20 C 101.55 76.40 81.25 76.08 60.95 76.15 C 60.86 91.82 60.95 107.48 60.89 123.14 C 51.94 122.55 43.01 120.20 35.21 115.71 C 35.11 102.52 35.25 89.34 35.14 76.16 C 25.43 76.18 15.73 76.18 6.03 76.13 C 4.13 67.70 4.37 58.88 6.26 50.47 L 6.35 50.47 C 15.95 50.36 25.56 50.49 35.16 50.40 C 35.22 37.67 35.13 24.95 35.21 12.22 Z" />
</g>
<g id="#ebecedff">
<path fill="#ebeced" opacity="1.00" d=" M 60.88 4.80 C 78.87 3.84 97.10 11.56 108.77 25.31 C 114.98 32.46 119.38 41.14 121.57 50.35 C 101.35 50.21 81.15 50.52 60.94 50.40 C 60.88 35.20 60.96 20.00 60.88 4.80 Z" />
<path fill="#ebeced" opacity="1.00" d=" M 6.35 50.47 C 9.94 34.39 20.77 20.12 35.21 12.22 C 35.13 24.95 35.22 37.67 35.16 50.40 C 25.56 50.49 15.95 50.36 6.35 50.47 Z" />
<path fill="#ebeced" opacity="1.00" d=" M 6.03 76.13 C 15.73 76.18 25.43 76.18 35.14 76.16 C 35.25 89.34 35.11 102.52 35.21 115.71 C 20.35 107.60 9.40 92.72 6.03 76.13 Z" />
<path fill="#ebeced" opacity="1.00" d=" M 60.95 76.15 C 81.25 76.08 101.55 76.40 121.85 76.20 C 118.49 92.70 107.61 107.43 92.89 115.59 C 83.22 121.08 71.97 123.59 60.89 123.14 C 60.95 107.48 60.86 91.82 60.95 76.15 Z" />
</g>
</svg>
