<?xml version="1.0" encoding="UTF-8" ?>
<!DOCTYPE svg PUBLIC "-//W3C//DTD SVG 1.1//EN" "http://www.w3.org/Graphics/SVG/1.1/DTD/svg11.dtd">
<svg width="128pt" height="128pt" viewBox="0 0 128 128" version="1.1" xmlns="http://www.w3.org/2000/svg">
<g id="#f1f2f3ff">
<path fill="#f1f2f3" opacity="1.00" d=" M 44.45 8.13 C 57.00 3.59 71.08 3.73 83.63 8.17 C 83.78 45.34 83.79 82.51 83.63 119.68 L 83.62 119.78 C 71.05 124.16 57.05 124.27 44.47 119.85 L 44.47 119.71 C 44.49 82.52 44.52 45.32 44.45 8.13 Z" />
</g>
<g id="#3857a5ff">
<path fill="#3857a5" opacity="1.00" d=" M 7.88 45.06 C 13.50 27.97 27.39 13.87 44.45 8.13 C 44.52 45.32 44.49 82.52 44.47 119.71 C 31.78 115.54 20.69 106.61 13.72 95.22 C 4.40 80.49 2.21 61.54 7.88 45.06 Z" />
</g>
<g id="#e42027ff">
<path fill="#e42027" opacity="1.00" d=" M 83.63 8.17 C 99.17 13.49 112.13 25.70 118.44 40.85 C 124.41 54.77 124.70 70.98 119.23 85.11 C 113.20 101.10 99.86 114.26 83.63 119.68 C 83.79 82.51 83.78 45.34 83.63 8.17 Z" />
</g>
</svg>
