<?xml version="1.0" encoding="UTF-8" ?>
<!DOCTYPE svg PUBLIC "-//W3C//DTD SVG 1.1//EN" "http://www.w3.org/Graphics/SVG/1.1/DTD/svg11.dtd">
<svg width="128pt" height="128pt" viewBox="0 0 128 128" version="1.1" xmlns="http://www.w3.org/2000/svg">
<g id="#131313ff">
<path fill="#131313" opacity="1.00" d=" M 40.61 9.55 C 55.12 3.25 72.14 3.15 86.72 9.30 C 101.90 15.54 114.69 28.53 119.52 44.25 C 82.58 44.23 45.64 44.25 8.70 44.17 L 8.31 43.52 C 13.92 28.44 25.71 15.75 40.61 9.55 Z" />
</g>
<g id="#d72628ff">
<path fill="#d72628" opacity="1.00" d=" M 8.12 44.17 L 8.70 44.17 C 45.64 44.25 82.58 44.23 119.52 44.25 L 119.84 44.26 C 124.18 56.85 124.32 70.86 119.86 83.43 C 82.59 83.50 45.32 83.39 8.04 83.40 C 3.58 70.81 3.71 56.76 8.12 44.17 Z" />
</g>
<g id="#f5cd28ff">
<path fill="#f5cd28" opacity="1.00" d=" M 8.04 83.40 C 45.32 83.39 82.59 83.50 119.86 83.43 C 114.39 99.38 101.75 112.66 86.07 118.87 C 71.61 124.76 54.83 124.58 40.52 118.33 C 25.43 111.92 13.33 98.92 8.04 83.40 Z" />
</g>
</svg>
