<?xml version="1.0" encoding="UTF-8" ?>
<!DOCTYPE svg PUBLIC "-//W3C//DTD SVG 1.1//EN" "http://www.w3.org/Graphics/SVG/1.1/DTD/svg11.dtd">
<svg width="128pt" height="128pt" viewBox="0 0 128 128" version="1.1" xmlns="http://www.w3.org/2000/svg">
<g id="#d25354ff">
<path fill="#d25354" opacity="1.00" d=" M 39.93 9.84 C 49.83 5.49 60.95 3.73 71.68 5.29 C 80.58 16.36 84.87 30.29 86.34 44.25 C 60.27 44.26 34.20 44.30 8.14 44.24 C 13.39 29.03 25.19 16.28 39.93 9.84 Z" />
</g>
<g id="#cd4b46ff">
<path fill="#cd4b46" opacity="1.00" d=" M 71.68 5.29 C 93.36 7.83 112.80 23.56 119.77 44.26 C 108.62 44.30 97.48 44.24 86.34 44.25 C 84.87 30.29 80.58 16.36 71.68 5.29 Z" />
</g>
<g id="#fcb933ff">
<path fill="#fcb933" opacity="1.00" d=" M 8.14 44.24 C 34.20 44.30 60.27 44.26 86.34 44.25 C 87.90 57.25 88.11 70.45 86.26 83.43 C 60.19 83.48 34.12 83.44 8.05 83.45 C 3.63 70.87 3.65 56.80 8.14 44.24 M 64.77 47.77 C 63.49 51.66 62.27 55.57 60.96 59.45 C 56.86 59.53 52.75 59.48 48.64 59.49 C 51.91 61.99 55.32 64.30 58.59 66.79 C 57.30 70.70 56.04 74.60 54.79 78.52 C 58.15 76.14 61.43 73.65 64.81 71.29 C 68.14 73.66 71.42 76.11 74.75 78.49 C 73.63 74.60 72.23 70.79 71.05 66.92 C 74.10 64.21 77.73 62.03 80.98 59.49 C 76.87 59.42 72.74 59.63 68.64 59.39 C 68.59 59.27 68.48 59.03 68.42 58.91 C 67.21 55.20 66.05 51.47 64.77 47.77 Z" />
</g>
<g id="#fcb817ff">
<path fill="#fcb817" opacity="1.00" d=" M 86.34 44.25 C 97.48 44.24 108.62 44.30 119.77 44.26 L 119.80 44.26 C 124.20 56.83 124.39 70.95 119.77 83.47 C 108.60 83.38 97.43 83.47 86.26 83.43 C 88.11 70.45 87.90 57.25 86.34 44.25 Z" />
</g>
<g id="#12090aff">
<path fill="#12090a" opacity="1.00" d=" M 64.77 47.77 C 66.05 51.47 67.21 55.20 68.42 58.91 C 68.48 59.03 68.59 59.27 68.64 59.39 C 72.74 59.63 76.87 59.42 80.98 59.49 C 77.73 62.03 74.10 64.21 71.05 66.92 C 72.23 70.79 73.63 74.60 74.75 78.49 C 71.42 76.11 68.14 73.66 64.81 71.29 C 61.43 73.65 58.15 76.14 54.79 78.52 C 56.04 74.60 57.30 70.70 58.59 66.79 C 55.32 64.30 51.91 61.99 48.64 59.49 C 52.75 59.48 56.86 59.53 60.96 59.45 C 62.27 55.57 63.49 51.66 64.77 47.77 Z" />
</g>
<g id="#eaae1eff">
<path fill="#eaae1e" opacity="1.00" d=" M 68.42 58.91 C 68.48 59.03 68.59 59.27 68.64 59.39 C 68.59 59.27 68.48 59.03 68.42 58.91 Z" />
</g>
<g id="#28643aff">
<path fill="#28643a" opacity="1.00" d=" M 8.05 83.45 C 34.12 83.44 60.19 83.48 86.26 83.43 C 97.43 83.47 108.60 83.38 119.77 83.47 L 120.04 84.29 L 119.34 84.31 C 108.44 84.58 97.49 83.82 86.63 84.58 C 85.02 89.15 84.78 94.05 83.57 98.72 C 82.85 101.82 81.57 104.78 81.12 107.94 C 83.31 111.73 87.21 114.08 90.38 116.98 C 81.92 121.12 72.46 123.36 63.03 123.15 C 38.78 123.13 15.65 106.52 8.05 83.45 Z" />
</g>
<g id="#225f34ff">
<path fill="#225f34" opacity="1.00" d=" M 86.63 84.58 C 97.49 83.82 108.44 84.58 119.34 84.31 C 114.72 98.53 103.69 110.33 90.38 116.98 C 87.21 114.08 83.31 111.73 81.12 107.94 C 81.57 104.78 82.85 101.82 83.57 98.72 C 84.78 94.05 85.02 89.15 86.63 84.58 Z" />
</g>
</svg>
