<?xml version="1.0" encoding="UTF-8" ?>
<!DOCTYPE svg PUBLIC "-//W3C//DTD SVG 1.1//EN" "http://www.w3.org/Graphics/SVG/1.1/DTD/svg11.dtd">
<svg width="128pt" height="128pt" viewBox="0 0 128 128" version="1.1" xmlns="http://www.w3.org/2000/svg">
<g id="#f6cf2eff">
<path fill="#f6cf2e" opacity="1.00" d=" M 44.45 8.08 C 57.06 3.62 71.09 3.76 83.70 8.13 L 83.70 8.31 C 83.68 45.43 83.71 82.55 83.69 119.67 L 83.69 119.79 C 71.08 124.18 57.09 124.24 44.46 119.89 L 44.46 119.75 C 44.49 82.53 44.51 45.30 44.45 8.08 Z" />
</g>
<g id="#d92828ff">
<path fill="#d92828" opacity="1.00" d=" M 7.89 45.02 C 13.51 27.92 27.44 13.92 44.45 8.08 C 44.51 45.30 44.49 82.53 44.46 119.75 C 31.55 115.42 20.31 106.29 13.34 94.59 C 4.32 79.95 2.29 61.28 7.89 45.02 Z" />
</g>
<g id="#528d52ff">
<path fill="#528d52" opacity="1.00" d=" M 83.70 8.31 C 100.21 13.72 113.63 27.27 119.50 43.55 C 124.27 56.37 124.36 70.84 119.74 83.72 C 113.97 100.32 100.38 114.06 83.69 119.67 C 83.71 82.55 83.68 45.43 83.70 8.31 Z" />
</g>
</svg>
