<?xml version="1.0" encoding="UTF-8" ?>
<!DOCTYPE svg PUBLIC "-//W3C//DTD SVG 1.1//EN" "http://www.w3.org/Graphics/SVG/1.1/DTD/svg11.dtd">
<svg width="128pt" height="128pt" viewBox="0 0 128 128" version="1.1" xmlns="http://www.w3.org/2000/svg">
<g id="#0ea250ff">
<path fill="#0ea250" opacity="1.00" d=" M 52.06 5.99 C 67.20 2.78 83.55 5.97 96.46 14.50 C 111.55 24.16 121.47 41.16 122.94 58.97 C 88.46 47.60 53.98 36.21 19.51 24.81 C 27.96 15.26 39.55 8.51 52.06 5.99 Z" />
<path fill="#0ea250" opacity="1.00" d=" M 19.49 103.09 C 53.98 91.72 88.46 80.34 122.94 68.94 C 121.51 86.04 112.34 102.42 98.20 112.22 C 85.58 121.24 69.30 124.99 54.02 122.29 C 40.76 120.10 28.39 113.14 19.49 103.09 Z" />
</g>
<g id="#fad63bff">
<path fill="#fad63b" opacity="1.00" d=" M 9.29 41.22 C 11.78 35.24 15.34 29.75 19.51 24.81 C 53.98 36.21 88.46 47.60 122.94 58.97 C 123.20 62.29 123.20 65.62 122.94 68.94 C 88.46 80.34 53.98 91.72 19.49 103.09 C 15.33 98.14 11.77 92.67 9.29 86.69 C 24.10 79.17 38.92 71.67 53.63 63.97 C 38.93 56.23 24.08 48.77 9.29 41.22 Z" />
</g>
<g id="#cb212aff">
<path fill="#cb212a" opacity="1.00" d=" M 9.29 86.69 C 3.27 72.31 3.27 55.60 9.29 41.22 C 24.08 48.77 38.93 56.23 53.63 63.97 C 38.92 71.67 24.10 79.17 9.29 86.69 Z" />
</g>
</svg>
