<?xml version="1.0" encoding="UTF-8" ?>
<!DOCTYPE svg PUBLIC "-//W3C//DTD SVG 1.1//EN" "http://www.w3.org/Graphics/SVG/1.1/DTD/svg11.dtd">
<svg width="128pt" height="128pt" viewBox="0 0 128 128" version="1.1" xmlns="http://www.w3.org/2000/svg">
<g id="#05854fff">
<path fill="#05854f" opacity="1.00" d=" M 22.03 22.12 C 32.76 11.31 47.81 4.98 63.03 4.77 C 75.02 4.62 87.06 8.13 97.01 14.85 C 110.91 24.00 120.37 39.43 122.56 55.89 C 125.22 73.98 118.71 93.02 105.78 105.90 C 94.76 94.93 83.87 83.82 72.77 72.93 C 71.75 70.31 70.90 67.63 70.05 64.95 C 73.25 62.45 76.66 60.22 79.83 57.67 C 75.77 57.62 71.72 57.67 67.66 57.61 C 66.39 53.74 65.23 49.84 63.80 46.03 C 62.49 49.92 61.40 53.89 59.88 57.70 C 59.28 57.68 58.09 57.64 57.50 57.62 C 45.73 45.74 33.86 33.95 22.03 22.12 Z" />
</g>
<g id="#fcd52cff">
<path fill="#fcd52c" opacity="1.00" d=" M 5.35 72.15 C 2.67 54.06 9.12 35.02 22.03 22.12 C 33.86 33.95 45.73 45.74 57.50 57.62 C 54.33 57.57 51.16 57.63 48.00 57.68 C 51.08 60.27 54.45 62.48 57.65 64.90 C 56.47 68.78 55.04 72.58 53.95 76.49 C 57.34 74.24 60.53 71.73 63.87 69.42 C 67.18 71.62 70.14 74.35 73.71 76.15 C 73.41 75.07 73.10 74.00 72.77 72.93 C 83.87 83.82 94.76 94.93 105.78 105.90 C 96.67 114.81 84.76 120.88 72.09 122.54 C 57.07 124.76 41.28 120.74 29.06 111.76 C 16.21 102.50 7.46 87.83 5.35 72.15 Z" />
</g>
<g id="#cf2229ff">
<path fill="#cf2229" opacity="1.00" d=" M 63.80 46.03 C 65.23 49.84 66.39 53.74 67.66 57.61 C 71.72 57.67 75.77 57.62 79.83 57.67 C 76.66 60.22 73.25 62.45 70.05 64.95 C 70.90 67.63 71.75 70.31 72.77 72.93 C 73.10 74.00 73.41 75.07 73.71 76.15 C 70.14 74.35 67.18 71.62 63.87 69.42 C 60.53 71.73 57.34 74.24 53.95 76.49 C 55.04 72.58 56.47 68.78 57.65 64.90 C 54.45 62.48 51.08 60.27 48.00 57.68 C 51.16 57.63 54.33 57.57 57.50 57.62 C 58.09 57.64 59.28 57.68 59.88 57.70 C 61.40 53.89 62.49 49.92 63.80 46.03 Z" />
</g>
</svg>
