<?xml version="1.0" encoding="UTF-8" ?>
<!DOCTYPE svg PUBLIC "-//W3C//DTD SVG 1.1//EN" "http://www.w3.org/Graphics/SVG/1.1/DTD/svg11.dtd">
<svg width="128pt" height="128pt" viewBox="0 0 128 128" version="1.1" xmlns="http://www.w3.org/2000/svg">
<g id="#3b8fc9ff">
<path fill="#3b8fc9" opacity="1.00" d=" M 40.58 9.54 C 54.87 3.32 71.60 3.15 86.04 9.01 C 101.62 15.19 114.39 28.33 119.71 44.26 C 82.72 44.22 45.73 44.34 8.75 44.12 L 8.21 43.81 C 13.73 28.60 25.64 15.82 40.58 9.54 Z" />
<path fill="#3b8fc9" opacity="1.00" d=" M 33.75 52.22 C 34.46 50.56 34.61 48.62 35.69 47.15 C 36.14 48.85 36.64 50.54 37.21 52.21 C 39.10 52.35 41.01 52.14 42.89 52.41 C 41.34 53.43 39.73 54.42 38.34 55.68 C 38.91 57.49 39.63 59.25 40.09 61.10 C 38.62 60.06 37.28 58.87 35.79 57.87 C 33.87 58.15 32.45 60.16 31.07 61.39 C 31.34 59.42 31.87 57.51 32.65 55.67 C 31.25 54.44 29.68 53.44 28.12 52.43 C 29.98 52.12 31.87 52.35 33.75 52.22 Z" />
<path fill="#3b8fc9" opacity="1.00" d=" M 91.35 47.14 C 92.64 48.32 92.59 50.42 93.32 51.96 C 95.17 52.53 97.19 52.03 99.11 52.21 C 97.62 53.43 95.97 54.44 94.55 55.74 C 95.08 57.53 95.79 59.26 96.33 61.05 C 94.64 60.21 93.31 58.83 91.75 57.79 C 90.04 58.61 88.74 60.02 87.24 61.14 C 87.21 59.21 88.16 57.48 88.72 55.69 C 87.41 54.45 85.73 53.63 84.53 52.26 C 86.29 52.22 88.06 52.27 89.82 52.15 C 90.43 50.51 90.92 48.83 91.35 47.14 Z" />
<path fill="#3b8fc9" opacity="1.00" d=" M 62.08 61.58 C 62.72 59.91 63.18 58.17 63.83 56.50 C 64.47 58.17 64.94 59.90 65.56 61.58 C 67.40 61.72 69.24 61.71 71.09 61.79 C 69.67 62.94 68.12 63.92 66.75 65.11 C 67.28 66.90 67.93 68.66 68.49 70.44 C 66.90 69.46 65.45 68.28 63.92 67.21 C 62.23 68.03 60.94 69.50 59.24 70.30 C 59.68 68.52 60.42 66.84 60.93 65.08 C 59.85 63.80 57.55 63.43 57.14 61.73 C 58.79 61.71 60.44 61.73 62.08 61.58 Z" />
<path fill="#3b8fc9" opacity="1.00" d=" M 33.77 71.29 C 34.36 69.49 34.93 67.68 35.55 65.89 C 36.06 67.70 36.61 69.50 37.19 71.29 C 39.17 71.48 41.16 71.31 43.15 71.28 C 41.52 72.40 39.85 73.46 38.35 74.75 C 38.89 76.55 39.53 78.31 40.07 80.10 C 38.47 79.07 37.09 77.57 35.31 76.89 C 33.82 77.93 32.38 79.04 30.91 80.10 C 31.44 78.30 32.10 76.54 32.63 74.74 C 31.13 73.45 29.46 72.41 27.85 71.29 C 29.82 71.29 31.80 71.48 33.77 71.29 Z" />
<path fill="#3b8fc9" opacity="1.00" d=" M 91.41 65.84 C 92.23 67.50 92.74 69.28 93.31 71.03 C 95.19 71.71 97.36 71.09 99.34 71.27 C 97.72 72.40 96.06 73.49 94.56 74.78 C 95.07 76.56 95.73 78.29 96.21 80.09 C 94.71 79.14 93.34 78.01 91.88 77.01 C 90.02 77.46 88.70 79.22 86.99 80.11 C 87.53 78.31 88.16 76.54 88.69 74.74 C 87.31 73.44 85.56 72.60 84.20 71.27 C 86.07 71.29 87.96 71.43 89.83 71.25 C 90.49 69.48 90.97 67.67 91.41 65.84 Z" />
<path fill="#3b8fc9" opacity="1.00" d=" M 8.09 83.51 C 45.32 83.47 82.56 83.38 119.80 83.48 C 114.47 99.44 101.74 112.66 86.12 118.86 C 72.86 124.27 57.66 124.61 44.18 119.79 C 27.49 113.99 13.74 100.28 8.09 83.51 Z" />
</g>
<g id="#f0efefff">
<path fill="#f0efef" opacity="1.00" d=" M 8.18 44.09 L 8.75 44.12 C 45.73 44.34 82.72 44.22 119.71 44.26 L 119.83 44.26 C 124.23 56.85 124.29 70.89 119.86 83.48 L 119.80 83.48 C 82.56 83.38 45.32 83.47 8.09 83.51 C 3.57 70.88 3.64 56.70 8.18 44.09 M 33.75 52.22 C 31.87 52.35 29.98 52.12 28.12 52.43 C 29.68 53.44 31.25 54.44 32.65 55.67 C 31.87 57.51 31.34 59.42 31.07 61.39 C 32.45 60.16 33.87 58.15 35.79 57.87 C 37.28 58.87 38.62 60.06 40.09 61.10 C 39.63 59.25 38.91 57.49 38.34 55.68 C 39.73 54.42 41.34 53.43 42.89 52.41 C 41.01 52.14 39.10 52.35 37.21 52.21 C 36.64 50.54 36.14 48.85 35.69 47.15 C 34.61 48.62 34.46 50.56 33.75 52.22 M 91.35 47.14 C 90.92 48.83 90.43 50.51 89.82 52.15 C 88.06 52.27 86.29 52.22 84.53 52.26 C 85.73 53.63 87.41 54.45 88.72 55.69 C 88.16 57.48 87.21 59.21 87.24 61.14 C 88.74 60.02 90.04 58.61 91.75 57.79 C 93.31 58.83 94.64 60.21 96.33 61.05 C 95.79 59.26 95.08 57.53 94.55 55.74 C 95.97 54.44 97.62 53.43 99.11 52.21 C 97.19 52.03 95.17 52.53 93.32 51.96 C 92.59 50.42 92.64 48.32 91.35 47.14 M 62.08 61.58 C 60.44 61.73 58.79 61.71 57.14 61.73 C 57.55 63.43 59.85 63.80 60.93 65.08 C 60.42 66.84 59.68 68.52 59.24 70.30 C 60.94 69.50 62.23 68.03 63.92 67.21 C 65.45 68.28 66.90 69.46 68.49 70.44 C 67.93 68.66 67.28 66.90 66.75 65.11 C 68.12 63.92 69.67 62.94 71.09 61.79 C 69.24 61.71 67.40 61.72 65.56 61.58 C 64.94 59.90 64.47 58.17 63.83 56.50 C 63.18 58.17 62.72 59.91 62.08 61.58 M 33.77 71.29 C 31.80 71.48 29.82 71.29 27.85 71.29 C 29.46 72.41 31.13 73.45 32.63 74.74 C 32.10 76.54 31.44 78.30 30.91 80.10 C 32.38 79.04 33.82 77.93 35.31 76.89 C 37.09 77.57 38.47 79.07 40.07 80.10 C 39.53 78.31 38.89 76.55 38.35 74.75 C 39.85 73.46 41.52 72.40 43.15 71.28 C 41.16 71.31 39.17 71.48 37.19 71.29 C 36.61 69.50 36.06 67.70 35.55 65.89 C 34.93 67.68 34.36 69.49 33.77 71.29 M 91.41 65.84 C 90.97 67.67 90.49 69.48 89.83 71.25 C 87.96 71.43 86.07 71.29 84.20 71.27 C 85.56 72.60 87.31 73.44 88.69 74.74 C 88.16 76.54 87.53 78.31 86.99 80.11 C 88.70 79.22 90.02 77.46 91.88 77.01 C 93.34 78.01 94.71 79.14 96.21 80.09 C 95.73 78.29 95.07 76.56 94.56 74.78 C 96.06 73.49 97.72 72.40 99.34 71.27 C 97.36 71.09 95.19 71.71 93.31 71.03 C 92.74 69.28 92.23 67.50 91.41 65.84 Z" />
</g>
</svg>
