<?xml version="1.0" encoding="UTF-8" ?>
<!DOCTYPE svg PUBLIC "-//W3C//DTD SVG 1.1//EN" "http://www.w3.org/Graphics/SVG/1.1/DTD/svg11.dtd">
<svg width="128pt" height="128pt" viewBox="0 0 128 128" version="1.1" xmlns="http://www.w3.org/2000/svg">
<g id="#e53832ff">
<path fill="#e53832" opacity="1.00" d=" M 40.60 9.55 C 54.90 3.34 71.66 3.16 86.09 9.05 C 101.66 15.23 114.37 28.37 119.72 44.26 C 82.53 44.24 45.34 44.25 8.15 44.22 C 13.48 28.79 25.57 15.90 40.60 9.55 Z" />
</g>
<g id="#eeededff">
<path fill="#eeeded" opacity="1.00" d=" M 8.15 44.22 C 45.34 44.25 82.53 44.24 119.72 44.26 L 119.82 44.27 C 124.21 56.83 124.30 70.85 119.86 83.42 C 82.60 83.41 45.34 83.52 8.07 83.49 C 3.62 70.89 3.65 56.80 8.15 44.22 Z" />
</g>
<g id="#10a768ff">
<path fill="#10a768" opacity="1.00" d=" M 8.07 83.49 C 45.34 83.52 82.60 83.41 119.86 83.42 C 113.38 102.49 96.52 117.55 76.80 121.71 C 61.44 125.29 44.71 122.21 31.56 113.52 C 20.65 106.54 12.29 95.72 8.07 83.49 Z" />
</g>
</svg>
