<?xml version="1.0" encoding="UTF-8" ?>
<!DOCTYPE svg PUBLIC "-//W3C//DTD SVG 1.1//EN" "http://www.w3.org/Graphics/SVG/1.1/DTD/svg11.dtd">
<svg width="128pt" height="128pt" viewBox="0 0 128 128" version="1.1" xmlns="http://www.w3.org/2000/svg">
<g id="#e9293dff">
<path fill="#e9293d" opacity="1.00" d=" M 38.02 10.68 C 44.46 7.62 51.41 5.66 58.51 4.97 C 58.55 20.95 58.66 36.93 58.46 52.91 C 79.68 53.48 100.93 52.95 122.17 53.10 C 123.43 59.88 123.50 66.86 122.37 73.66 C 101.12 73.90 79.87 73.57 58.62 73.76 C 58.45 90.15 58.66 106.54 58.50 122.93 C 51.38 122.29 44.44 120.26 37.98 117.23 C 38.06 102.73 37.94 88.22 38.01 73.71 C 27.17 73.70 16.33 73.70 5.49 73.70 C 4.32 66.79 4.68 59.76 5.61 52.84 C 16.38 53.55 27.21 52.99 38.01 53.14 C 37.96 38.99 38.01 24.83 38.02 10.68 Z" />
</g>
<g id="#eceef1ff">
<path fill="#eceef1" opacity="1.00" d=" M 58.51 4.97 C 59.15 4.92 60.43 4.83 61.07 4.78 C 60.86 19.97 60.93 35.17 60.98 50.37 C 81.15 50.22 101.35 50.78 121.51 50.13 C 121.73 51.12 121.95 52.11 122.17 53.10 C 100.93 52.95 79.68 53.48 58.46 52.91 C 58.66 36.93 58.55 20.95 58.51 4.97 Z" />
<path fill="#eceef1" opacity="1.00" d=" M 35.12 12.24 C 36.09 11.72 37.06 11.20 38.02 10.68 C 38.01 24.83 37.96 38.99 38.01 53.14 C 27.21 52.99 16.38 53.55 5.61 52.84 C 5.90 52.28 6.49 51.17 6.79 50.61 C 16.19 50.13 25.63 50.50 35.05 50.42 C 35.29 37.70 35.07 24.97 35.12 12.24 Z" />
<path fill="#eceef1" opacity="1.00" d=" M 58.62 73.76 C 79.87 73.57 101.12 73.90 122.37 73.66 C 122.26 74.29 122.03 75.54 121.92 76.16 C 101.61 76.10 81.30 76.23 61.00 76.18 C 60.89 91.84 60.92 107.49 61.03 123.15 C 60.40 123.09 59.14 122.98 58.50 122.93 C 58.66 106.54 58.45 90.15 58.62 73.76 Z" />
<path fill="#eceef1" opacity="1.00" d=" M 5.49 73.70 C 16.33 73.70 27.17 73.70 38.01 73.71 C 37.94 88.22 38.06 102.73 37.98 117.23 C 37.02 116.70 36.06 116.17 35.10 115.65 C 35.11 102.50 35.25 89.35 35.06 76.19 C 25.39 76.15 15.72 76.26 6.06 76.16 C 5.92 75.54 5.64 74.32 5.49 73.70 Z" />
</g>
<g id="#284697ff">
<path fill="#284697" opacity="1.00" d=" M 61.07 4.78 C 74.25 4.18 87.59 8.05 98.34 15.73 C 109.93 23.85 118.24 36.39 121.51 50.13 C 101.35 50.78 81.15 50.22 60.98 50.37 C 60.93 35.17 60.86 19.97 61.07 4.78 Z" />
<path fill="#284697" opacity="1.00" d=" M 7.83 45.07 C 12.44 31.25 22.30 19.23 35.12 12.24 C 35.07 24.97 35.29 37.70 35.05 50.42 C 25.63 50.50 16.19 50.13 6.79 50.61 C 6.46 48.71 7.28 46.85 7.83 45.07 Z" />
<path fill="#284697" opacity="1.00" d=" M 6.06 76.16 C 15.72 76.26 25.39 76.15 35.06 76.19 C 35.25 89.35 35.11 102.50 35.10 115.65 C 20.27 107.57 9.38 92.71 6.06 76.16 Z" />
<path fill="#284697" opacity="1.00" d=" M 61.00 76.18 C 81.30 76.23 101.61 76.10 121.92 76.16 C 118.74 91.03 109.78 104.69 97.03 113.06 C 86.54 120.22 73.69 123.67 61.03 123.15 C 60.92 107.49 60.89 91.84 61.00 76.18 Z" />
</g>
</svg>
