<?xml version="1.0" encoding="UTF-8" ?>
<!DOCTYPE svg PUBLIC "-//W3C//DTD SVG 1.1//EN" "http://www.w3.org/Graphics/SVG/1.1/DTD/svg11.dtd">
<svg width="128pt" height="128pt" viewBox="0 0 128 128" version="1.1" xmlns="http://www.w3.org/2000/svg">
<g id="#131313ff">
<path fill="#131313" opacity="1.00" d=" M 53.10 5.77 C 64.32 3.58 76.14 4.93 86.69 9.28 C 102.03 15.52 114.45 28.55 119.75 44.26 C 88.86 44.32 57.97 44.11 27.08 44.24 C 21.96 41.52 16.88 38.74 11.77 36.02 C 19.94 20.29 35.69 8.92 53.10 5.77 Z" />
</g>
<g id="#cb212aff">
<path fill="#cb212a" opacity="1.00" d=" M 11.73 91.91 C 2.41 74.81 2.45 53.11 11.77 36.02 C 16.88 38.74 21.96 41.52 27.08 44.24 C 39.35 50.91 51.66 57.52 63.99 64.09 C 51.84 70.52 39.69 76.97 27.58 83.47 C 22.28 86.26 17.01 89.10 11.73 91.91 M 22.21 59.37 C 20.66 58.95 19.11 58.50 17.57 58.04 C 18.34 59.50 19.14 60.94 19.94 62.38 C 18.59 63.23 17.29 64.14 16.03 65.11 C 17.60 65.41 19.17 65.71 20.74 66.01 C 20.64 67.60 20.54 69.18 20.44 70.77 C 21.67 69.73 22.88 68.66 24.09 67.61 C 25.28 68.67 26.48 69.71 27.73 70.70 C 27.64 69.13 27.54 67.57 27.43 66.01 C 29.01 65.71 30.59 65.42 32.17 65.12 C 30.89 64.16 29.59 63.24 28.27 62.33 C 29.04 60.97 29.85 59.63 30.40 58.16 C 28.93 58.55 27.47 58.95 26.01 59.37 C 25.33 57.91 24.71 56.42 24.11 54.93 C 23.46 56.40 22.84 57.88 22.21 59.37 Z" />
</g>
<g id="#eaebebff">
<path fill="#eaebeb" opacity="1.00" d=" M 27.08 44.24 C 57.97 44.11 88.86 44.32 119.75 44.26 L 119.84 44.26 C 124.22 56.85 124.26 70.84 119.90 83.45 L 119.84 83.45 C 89.09 83.38 58.33 83.54 27.58 83.47 C 39.69 76.97 51.84 70.52 63.99 64.09 C 51.66 57.52 39.35 50.91 27.08 44.24 Z" />
<path fill="#eaebeb" opacity="1.00" d=" M 22.21 59.37 C 22.84 57.88 23.46 56.40 24.11 54.93 C 24.71 56.42 25.33 57.91 26.01 59.37 C 27.47 58.95 28.93 58.55 30.40 58.16 C 29.85 59.63 29.04 60.97 28.27 62.33 C 29.59 63.24 30.89 64.16 32.17 65.12 C 30.59 65.42 29.01 65.71 27.43 66.01 C 27.54 67.57 27.64 69.13 27.73 70.70 C 26.48 69.71 25.28 68.67 24.09 67.61 C 22.88 68.66 21.67 69.73 20.44 70.77 C 20.54 69.18 20.64 67.60 20.74 66.01 C 19.17 65.71 17.60 65.41 16.03 65.11 C 17.29 64.14 18.59 63.23 19.94 62.38 C 19.14 60.94 18.34 59.50 17.57 58.04 C 19.11 58.50 20.66 58.95 22.21 59.37 Z" />
</g>
<g id="#0c723bff">
<path fill="#0c723b" opacity="1.00" d=" M 11.73 91.91 C 17.01 89.10 22.28 86.26 27.58 83.47 C 58.33 83.54 89.09 83.38 119.84 83.45 C 115.64 95.66 107.32 106.51 96.41 113.48 C 82.64 122.61 64.93 125.51 48.97 121.24 C 33.18 117.19 19.36 106.32 11.73 91.91 Z" />
</g>
</svg>
