<?xml version="1.0" encoding="UTF-8" ?>
<!DOCTYPE svg PUBLIC "-//W3C//DTD SVG 1.1//EN" "http://www.w3.org/Graphics/SVG/1.1/DTD/svg11.dtd">
<svg width="128pt" height="128pt" viewBox="0 0 128 128" version="1.1" xmlns="http://www.w3.org/2000/svg">
<g id="#fab82cff">
<path fill="#fab82c" opacity="1.00" d=" M 45.06 7.85 C 58.58 3.23 73.77 3.81 86.92 9.39 C 102.09 15.71 114.50 28.67 119.70 44.29 C 82.54 44.20 45.37 44.24 8.20 44.28 C 13.89 27.27 28.06 13.48 45.06 7.85 Z" />
</g>
<g id="#047249ff">
<path fill="#047249" opacity="1.00" d=" M 8.08 44.29 L 8.20 44.28 C 45.37 44.24 82.54 44.20 119.70 44.29 L 119.84 44.30 C 124.22 56.87 124.28 70.84 119.89 83.42 L 119.85 83.42 C 82.58 83.45 45.31 83.44 8.04 83.42 C 3.60 70.86 3.69 56.85 8.08 44.29 Z" />
</g>
<g id="#c43039ff">
<path fill="#c43039" opacity="1.00" d=" M 8.04 83.42 C 45.31 83.44 82.58 83.45 119.85 83.42 C 114.42 99.44 101.69 112.74 85.96 118.91 C 71.79 124.66 55.42 124.58 41.32 118.67 C 25.85 112.39 13.42 99.22 8.04 83.42 Z" />
</g>
</svg>
