<?xml version="1.0" encoding="UTF-8" ?>
<!DOCTYPE svg PUBLIC "-//W3C//DTD SVG 1.1//EN" "http://www.w3.org/Graphics/SVG/1.1/DTD/svg11.dtd">
<svg width="128pt" height="128pt" viewBox="0 0 128 128" version="1.1" xmlns="http://www.w3.org/2000/svg">
<g id="#f6cf2eff">
<path fill="#f6cf2e" opacity="1.00" d=" M 44.45 8.10 C 57.02 3.62 71.05 3.75 83.62 8.15 C 83.74 45.33 83.79 82.51 83.60 119.70 L 83.60 119.82 C 71.01 124.13 57.04 124.29 44.47 119.85 L 44.47 119.77 C 44.48 82.55 44.51 45.32 44.45 8.10 Z" />
</g>
<g id="#2eb04aff">
<path fill="#2eb04a" opacity="1.00" d=" M 8.73 42.70 C 14.77 26.64 28.22 13.64 44.45 8.10 C 44.51 45.32 44.48 82.55 44.47 119.77 C 31.57 115.40 20.31 106.33 13.35 94.62 C 3.88 79.27 2.14 59.49 8.73 42.70 Z" />
</g>
<g id="#cc2128ff">
<path fill="#cc2128" opacity="1.00" d=" M 83.62 8.15 C 96.43 12.64 107.67 21.63 114.60 33.34 C 123.60 48.00 125.62 66.67 120.02 82.93 C 114.38 99.90 100.60 114.03 83.60 119.70 C 83.79 82.51 83.74 45.33 83.62 8.15 Z" />
</g>
</svg>
