<?xml version="1.0" encoding="UTF-8" ?>
<!DOCTYPE svg PUBLIC "-//W3C//DTD SVG 1.1//EN" "http://www.w3.org/Graphics/SVG/1.1/DTD/svg11.dtd">
<svg width="128pt" height="128pt" viewBox="0 0 128 128" version="1.1" xmlns="http://www.w3.org/2000/svg">
<g id="#e8e8e9ff">
<path fill="#e8e8e9" opacity="1.00" d=" M 21.60 22.61 C 32.62 11.22 48.39 4.59 64.25 4.77 C 64.21 44.22 64.22 83.67 64.25 123.11 C 48.90 123.36 33.62 117.10 22.66 106.38 C 13.05 97.06 6.76 84.39 5.19 71.10 C 2.93 53.56 9.18 35.19 21.60 22.61 Z" />
</g>
<g id="#c52f2dff">
<path fill="#c52f2d" opacity="1.00" d=" M 64.25 4.77 C 79.92 4.75 95.45 11.37 106.36 22.59 C 117.28 33.77 123.53 49.40 123.14 65.04 C 122.93 83.25 113.69 101.17 98.86 111.78 C 88.90 119.06 76.60 123.19 64.25 123.11 C 64.22 83.67 64.21 44.22 64.25 4.77 Z" />
</g>
</svg>
