<?xml version="1.0" encoding="UTF-8" ?>
<!DOCTYPE svg PUBLIC "-//W3C//DTD SVG 1.1//EN" "http://www.w3.org/Graphics/SVG/1.1/DTD/svg11.dtd">
<svg width="128pt" height="128pt" viewBox="0 0 128 128" version="1.1" xmlns="http://www.w3.org/2000/svg">
<g id="#45aee1ff">
<path fill="#45aee1" opacity="1.00" d=" M 53.51 5.67 C 68.01 2.99 83.47 6.10 95.86 14.08 C 108.28 21.91 117.48 34.62 121.20 48.82 C 124.58 61.45 123.56 75.16 118.43 87.18 C 112.40 101.47 100.52 113.13 86.10 118.87 C 73.87 123.83 59.96 124.54 47.30 120.79 C 33.73 116.83 21.65 107.88 14.11 95.91 C 4.62 81.33 2.15 62.46 7.55 45.92 C 13.88 25.36 32.30 9.24 53.51 5.67 M 59.75 31.32 C 57.06 31.24 54.37 31.21 51.68 31.24 C 53.82 32.86 55.98 34.47 58.15 36.05 C 57.33 38.53 56.59 41.04 55.87 43.55 C 57.97 42.04 60.07 40.54 62.14 38.99 C 64.40 40.56 66.63 42.16 68.85 43.78 C 67.93 41.22 67.09 38.64 66.35 36.02 C 68.57 34.50 70.72 32.86 72.87 31.24 C 70.22 31.29 67.56 31.30 64.91 31.29 C 63.97 28.78 63.14 26.23 62.36 23.67 C 61.37 26.18 60.50 28.73 59.75 31.32 M 29.74 61.86 C 26.98 62.00 24.21 62.03 21.45 62.03 C 23.63 63.65 25.86 65.22 27.98 66.92 C 27.12 69.36 26.36 71.83 25.64 74.31 C 27.76 72.79 29.88 71.29 31.99 69.77 C 34.19 71.34 36.39 72.90 38.58 74.48 C 37.80 71.89 36.99 69.31 36.12 66.75 C 38.33 65.20 40.52 63.61 42.69 62.01 C 40.04 62.00 37.38 62.05 34.73 62.20 C 33.79 59.79 33.05 57.31 32.29 54.85 C 30.76 56.87 30.53 59.52 29.74 61.86 M 92.87 62.10 C 90.13 62.06 87.39 62.03 84.65 62.02 C 86.69 63.80 89.46 64.83 91.10 66.99 C 90.57 69.47 89.58 71.82 88.86 74.25 C 91.02 72.80 93.14 71.29 95.21 69.71 C 97.39 71.15 99.52 72.65 101.60 74.21 C 100.84 71.74 100.08 69.26 99.32 66.79 C 101.47 65.21 103.61 63.62 105.74 62.02 C 103.09 61.99 100.45 61.99 97.81 62.04 C 96.86 59.62 96.09 57.13 95.43 54.62 C 94.42 57.06 93.56 59.55 92.87 62.10 M 59.82 92.06 C 57.10 92.11 54.39 92.14 51.67 92.14 C 53.85 93.79 56.04 95.41 58.27 96.99 C 57.38 99.51 56.54 102.05 55.71 104.60 C 57.90 103.09 60.08 101.54 62.19 99.92 C 64.38 101.46 66.57 103.01 68.75 104.56 C 67.99 101.98 67.18 99.41 66.33 96.85 C 68.55 95.33 70.73 93.76 72.87 92.15 C 70.16 92.10 67.44 92.12 64.73 92.19 C 63.98 89.63 63.18 87.08 62.33 84.55 C 61.43 87.03 60.57 89.53 59.82 92.06 Z" />
</g>
<g id="#eceeefff">
<path fill="#eceeef" opacity="1.00" d=" M 59.75 31.32 C 60.50 28.73 61.37 26.18 62.36 23.67 C 63.14 26.23 63.97 28.78 64.91 31.29 C 67.56 31.30 70.22 31.29 72.87 31.24 C 70.72 32.86 68.57 34.50 66.35 36.02 C 67.09 38.64 67.93 41.22 68.85 43.78 C 66.63 42.16 64.40 40.56 62.14 38.99 C 60.07 40.54 57.97 42.04 55.87 43.55 C 56.59 41.04 57.33 38.53 58.15 36.05 C 55.98 34.47 53.82 32.86 51.68 31.24 C 54.37 31.21 57.06 31.24 59.75 31.32 Z" />
<path fill="#eceeef" opacity="1.00" d=" M 29.74 61.86 C 30.53 59.52 30.76 56.87 32.29 54.85 C 33.05 57.31 33.79 59.79 34.73 62.20 C 37.38 62.05 40.04 62.00 42.69 62.01 C 40.52 63.61 38.33 65.20 36.12 66.75 C 36.99 69.31 37.80 71.89 38.58 74.48 C 36.39 72.90 34.19 71.34 31.99 69.77 C 29.88 71.29 27.76 72.79 25.64 74.31 C 26.36 71.83 27.12 69.36 27.98 66.92 C 25.86 65.22 23.63 63.65 21.45 62.03 C 24.21 62.03 26.98 62.00 29.74 61.86 Z" />
<path fill="#eceeef" opacity="1.00" d=" M 92.87 62.10 C 93.56 59.55 94.42 57.06 95.43 54.62 C 96.09 57.13 96.86 59.62 97.81 62.04 C 100.45 61.99 103.09 61.99 105.74 62.02 C 103.61 63.62 101.47 65.21 99.32 66.79 C 100.08 69.26 100.84 71.74 101.60 74.21 C 99.52 72.65 97.39 71.15 95.21 69.71 C 93.14 71.29 91.02 72.80 88.86 74.25 C 89.58 71.82 90.57 69.47 91.10 66.99 C 89.46 64.83 86.69 63.80 84.65 62.02 C 87.39 62.03 90.13 62.06 92.87 62.10 Z" />
<path fill="#eceeef" opacity="1.00" d=" M 59.82 92.06 C 60.57 89.53 61.43 87.03 62.33 84.55 C 63.18 87.08 63.98 89.63 64.73 92.19 C 67.44 92.12 70.16 92.10 72.87 92.15 C 70.73 93.76 68.55 95.33 66.33 96.85 C 67.18 99.41 67.99 101.98 68.75 104.56 C 66.57 103.01 64.38 101.46 62.19 99.92 C 60.08 101.54 57.90 103.09 55.71 104.60 C 56.54 102.05 57.38 99.51 58.27 96.99 C 56.04 95.41 53.85 93.79 51.67 92.14 C 54.39 92.14 57.10 92.11 59.82 92.06 Z" />
</g>
</svg>
