<?xml version="1.0" encoding="UTF-8" ?>
<!DOCTYPE svg PUBLIC "-//W3C//DTD SVG 1.1//EN" "http://www.w3.org/Graphics/SVG/1.1/DTD/svg11.dtd">
<svg width="128pt" height="128pt" viewBox="0 0 128 128" version="1.1" xmlns="http://www.w3.org/2000/svg">
<g id="#c6212aff">
<path fill="#c6212a" opacity="1.00" d=" M 16.55 28.50 C 26.03 15.63 41.01 7.06 56.86 5.20 C 76.50 2.68 97.13 10.90 109.62 26.28 C 118.29 36.81 123.23 50.41 123.10 64.06 C 83.67 64.00 44.25 63.98 4.81 63.95 C 4.69 51.27 8.97 38.64 16.55 28.50 Z" />
</g>
<g id="#edeeefff">
<path fill="#edeeef" opacity="1.00" d=" M 4.81 63.95 C 44.25 63.98 83.67 64.00 123.10 64.06 C 123.24 82.64 113.87 100.94 98.79 111.78 C 85.96 121.21 69.21 125.09 53.54 122.22 C 37.95 119.52 23.65 110.19 14.87 97.02 C 8.32 87.34 4.70 75.65 4.81 63.95 Z" />
</g>
</svg>
