<?xml version="1.0" encoding="UTF-8" ?>
<!DOCTYPE svg PUBLIC "-//W3C//DTD SVG 1.1//EN" "http://www.w3.org/Graphics/SVG/1.1/DTD/svg11.dtd">
<svg width="128pt" height="128pt" viewBox="0 0 128 128" version="1.1" xmlns="http://www.w3.org/2000/svg">
<g id="#5c985bfd">
<path fill="#5c985b" opacity="1.00" d=" M 4.94 63.01 C 4.42 33.28 30.21 6.10 59.99 5.05 C 69.49 3.80 82.64 6.68 89.55 10.74 C 62.65 36.30 36.34 62.71 10.69 89.52 C 6.99 83.82 4.71 71.34 4.94 63.01 Z" />
</g>
<g id="#f3cb29ff">
<path fill="#f3cb29" opacity="1.00" d=" M 10.69 89.52 C 36.34 62.71 62.65 36.30 89.55 10.74 C 101.49 16.70 112.34 26.63 117.16 39.22 C 91.15 65.33 65.24 91.54 38.92 117.32 C 26.68 111.80 16.16 101.87 10.69 89.52 Z" />
</g>
<g id="#d92e2dfe">
<path fill="#d92e2d" opacity="1.00" d=" M 117.16 39.22 C 126.26 54.75 124.88 77.89 114.94 93.96 C 100.59 119.48 65.14 131.27 38.92 117.32 C 65.24 91.54 91.15 65.33 117.16 39.22 Z" />
</g>
</svg>
