<?xml version="1.0" encoding="UTF-8" ?>
<!DOCTYPE svg PUBLIC "-//W3C//DTD SVG 1.1//EN" "http://www.w3.org/Graphics/SVG/1.1/DTD/svg11.dtd">
<svg width="128pt" height="128pt" viewBox="0 0 128 128" version="1.1" xmlns="http://www.w3.org/2000/svg">
<g id="#f1c316ff">
<path fill="#f1c316" opacity="1.00" d=" M 44.47 8.12 C 57.01 3.61 71.08 3.72 83.62 8.17 C 83.70 45.35 83.77 82.53 83.59 119.71 L 83.59 119.81 C 71.02 124.13 57.01 124.33 44.47 119.81 C 44.47 82.58 44.47 45.35 44.47 8.12 Z" />
</g>
<g id="#204299ff">
<path fill="#204299" opacity="1.00" d=" M 9.05 41.88 C 15.22 26.19 28.49 13.52 44.47 8.12 C 44.47 45.35 44.47 82.58 44.47 119.81 C 28.73 114.46 15.60 102.09 9.32 86.70 C 3.36 72.55 3.26 56.09 9.05 41.88 Z" />
</g>
<g id="#de1f27ff">
<path fill="#de1f27" opacity="1.00" d=" M 83.62 8.17 C 99.15 13.49 112.11 25.68 118.43 40.81 C 124.41 54.74 124.71 70.96 119.24 85.10 C 113.20 101.11 99.85 114.27 83.59 119.71 C 83.77 82.53 83.70 45.35 83.62 8.17 Z" />
</g>
</svg>
