<?xml version="1.0" encoding="UTF-8" ?>
<!DOCTYPE svg PUBLIC "-//W3C//DTD SVG 1.1//EN" "http://www.w3.org/Graphics/SVG/1.1/DTD/svg11.dtd">
<svg width="128pt" height="128pt" viewBox="0 0 128 128" version="1.1" xmlns="http://www.w3.org/2000/svg">
<g id="#fdda4cff">
<path fill="#fdda4c" opacity="1.00" d=" M 44.45 8.08 C 57.04 3.64 71.06 3.74 83.64 8.13 C 83.75 45.32 83.77 82.51 83.63 119.69 L 83.63 119.83 C 71.03 124.13 57.04 124.30 44.45 119.84 C 44.48 82.59 44.49 45.33 44.45 8.08 M 60.38 60.31 C 56.31 60.25 52.25 60.28 48.18 60.28 C 51.45 62.68 54.71 65.10 58.05 67.40 C 57.02 71.40 55.55 75.26 54.39 79.21 C 57.75 76.89 61.02 74.45 64.32 72.06 C 67.67 74.42 70.95 76.88 74.30 79.26 C 73.10 75.35 71.86 71.47 70.52 67.61 C 73.80 65.11 77.20 62.77 80.49 60.28 C 76.35 60.18 72.20 60.47 68.08 60.13 C 66.91 56.28 65.60 52.48 64.41 48.64 C 62.90 52.47 61.91 56.48 60.38 60.31 Z" />
</g>
<g id="#15b16fff">
<path fill="#15b16f" opacity="1.00" d=" M 8.47 43.37 C 14.40 27.00 28.00 13.74 44.45 8.08 C 44.49 45.33 44.48 82.59 44.45 119.84 C 31.63 115.33 20.32 106.39 13.37 94.65 C 4.01 79.50 2.18 60.03 8.47 43.37 Z" />
<path fill="#15b16f" opacity="1.00" d=" M 60.38 60.31 C 61.91 56.48 62.90 52.47 64.41 48.64 C 65.60 52.48 66.91 56.28 68.08 60.13 C 72.20 60.47 76.35 60.18 80.49 60.28 C 77.20 62.77 73.80 65.11 70.52 67.61 C 71.86 71.47 73.10 75.35 74.30 79.26 C 70.95 76.88 67.67 74.42 64.32 72.06 C 61.02 74.45 57.75 76.89 54.39 79.21 C 55.55 75.26 57.02 71.40 58.05 67.40 C 54.71 65.10 51.45 62.68 48.18 60.28 C 52.25 60.28 56.31 60.25 60.38 60.31 Z" />
</g>
<g id="#d22228ff">
<path fill="#d22228" opacity="1.00" d=" M 83.64 8.13 C 99.15 13.54 112.12 25.67 118.45 40.84 C 124.30 54.54 124.71 70.46 119.49 84.42 C 113.58 100.73 100.10 114.16 83.63 119.69 C 83.77 82.51 83.75 45.32 83.64 8.13 Z" />
</g>
</svg>
