<?xml version="1.0" encoding="UTF-8" ?>
<!DOCTYPE svg PUBLIC "-//W3C//DTD SVG 1.1//EN" "http://www.w3.org/Graphics/SVG/1.1/DTD/svg11.dtd">
<svg width="128pt" height="128pt" viewBox="0 0 128 128" version="1.1" xmlns="http://www.w3.org/2000/svg">
<g id="#2baf4bff">
<path fill="#2baf4b" opacity="1.00" d=" M 41.11 9.34 C 55.30 3.32 71.83 3.22 86.09 9.05 C 101.63 15.22 114.49 28.35 119.65 44.29 C 82.48 44.27 45.32 44.19 8.15 44.21 C 13.54 28.61 25.83 15.59 41.11 9.34 Z" />
</g>
<g id="#edeeeeff">
<path fill="#edeeee" opacity="1.00" d=" M 8.15 44.21 C 45.32 44.19 82.48 44.27 119.65 44.29 L 119.83 44.30 C 124.19 56.87 124.27 70.84 119.87 83.41 C 82.61 83.42 45.36 83.49 8.10 83.51 L 8.09 83.51 C 3.60 70.91 3.65 56.79 8.15 44.21 Z" />
</g>
<g id="#3b8fc9ff">
<path fill="#3b8fc9" opacity="1.00" d=" M 8.10 83.51 C 45.36 83.49 82.61 83.42 119.87 83.41 C 113.85 101.14 98.88 115.46 80.90 120.68 C 64.92 125.56 46.91 123.18 32.77 114.28 C 21.31 107.30 12.44 96.19 8.10 83.51 Z" />
</g>
</svg>
