<?xml version="1.0" encoding="UTF-8" ?>
<!DOCTYPE svg PUBLIC "-//W3C//DTD SVG 1.1//EN" "http://www.w3.org/Graphics/SVG/1.1/DTD/svg11.dtd">
<svg width="128pt" height="128pt" viewBox="0 0 128 128" version="1.1" xmlns="http://www.w3.org/2000/svg">
<g id="#3a8ec9ff">
<path fill="#3a8ec9" opacity="1.00" d=" M 53.49 5.68 C 68.22 2.95 83.94 6.21 96.44 14.47 C 110.01 23.21 119.54 37.84 122.26 53.73 C 124.36 65.23 122.78 77.32 118.07 88.00 C 111.90 102.00 100.11 113.36 85.87 118.95 C 74.14 123.64 60.91 124.48 48.71 121.17 C 34.58 117.43 21.90 108.30 14.11 95.91 C 4.60 81.28 2.15 62.34 7.61 45.77 C 13.97 25.29 32.34 9.24 53.49 5.68 M 63.30 33.67 C 61.27 40.99 58.57 48.12 56.35 55.39 C 48.78 55.16 41.20 55.33 33.63 55.28 C 39.80 59.65 45.86 64.20 52.02 68.61 C 49.81 75.86 47.35 83.03 45.04 90.26 C 51.18 85.84 57.26 81.35 63.40 76.94 C 69.60 81.31 75.67 85.85 81.84 90.27 C 79.53 83.06 77.07 75.91 74.84 68.69 C 80.92 64.19 87.03 59.74 93.14 55.28 C 85.61 55.34 78.08 55.18 70.55 55.37 C 68.10 48.14 65.89 40.84 63.30 33.67 Z" />
</g>
<g id="#f9f8faff">
<path fill="#f9f8fa" opacity="1.00" d=" M 63.30 33.67 C 65.89 40.84 68.10 48.14 70.55 55.37 C 78.08 55.18 85.61 55.34 93.14 55.28 C 87.03 59.74 80.92 64.19 74.84 68.69 C 77.07 75.91 79.53 83.06 81.84 90.27 C 75.67 85.85 69.60 81.31 63.40 76.94 C 57.26 81.35 51.18 85.84 45.04 90.26 C 47.35 83.03 49.81 75.86 52.02 68.61 C 45.86 64.20 39.80 59.65 33.63 55.28 C 41.20 55.33 48.78 55.16 56.35 55.39 C 58.57 48.12 61.27 40.99 63.30 33.67 Z" />
</g>
</svg>
