<?xml version="1.0" encoding="UTF-8" ?>
<!DOCTYPE svg PUBLIC "-//W3C//DTD SVG 1.1//EN" "http://www.w3.org/Graphics/SVG/1.1/DTD/svg11.dtd">
<svg width="128pt" height="128pt" viewBox="0 0 128 128" version="1.1" xmlns="http://www.w3.org/2000/svg">
<g id="#131313ff">
<path fill="#131313" opacity="1.00" d=" M 50.93 6.21 C 66.17 2.67 82.77 5.62 95.91 14.11 C 105.73 20.15 113.33 29.41 118.08 39.85 C 85.06 40.13 52.03 39.73 19.00 39.88 C 16.57 38.62 14.17 37.30 11.76 36.01 C 19.63 20.96 34.38 9.86 50.93 6.21 Z" />
</g>
<g id="#224490ff">
<path fill="#224490" opacity="1.00" d=" M 11.71 91.91 C 2.42 74.80 2.46 53.11 11.76 36.01 C 14.17 37.30 16.57 38.62 19.00 39.88 C 21.69 41.37 24.36 42.88 27.11 44.25 C 39.36 50.93 51.67 57.49 63.96 64.09 C 51.87 70.55 39.73 76.93 27.66 83.45 C 24.86 84.85 22.11 86.37 19.36 87.86 C 16.78 89.16 14.25 90.54 11.71 91.91 M 19.78 50.74 C 19.83 53.98 19.89 57.23 19.88 60.48 C 16.82 61.49 13.77 62.53 10.72 63.57 C 13.79 64.55 16.87 65.50 19.95 66.42 C 20.06 69.68 20.09 72.94 20.14 76.20 C 22.02 73.56 23.87 70.90 25.75 68.26 C 28.87 69.17 31.97 70.12 35.05 71.12 C 33.10 68.53 31.16 65.94 29.24 63.33 C 31.06 60.65 32.97 58.03 34.82 55.38 C 31.76 56.42 28.71 57.51 25.63 58.49 C 23.67 55.91 21.74 53.31 19.78 50.74 Z" />
</g>
<g id="#ecedeeff">
<path fill="#ecedee" opacity="1.00" d=" M 19.00 39.88 C 52.03 39.73 85.06 40.13 118.08 39.85 C 118.64 41.32 119.22 42.79 119.82 44.24 C 88.92 44.21 58.01 44.30 27.11 44.25 C 24.36 42.88 21.69 41.37 19.00 39.88 Z" />
<path fill="#ecedee" opacity="1.00" d=" M 19.36 87.86 C 22.11 86.37 24.86 84.85 27.66 83.45 C 58.41 83.32 89.15 83.52 119.89 83.45 C 119.31 84.89 118.75 86.33 118.20 87.78 C 85.25 87.79 52.30 87.90 19.36 87.86 Z" />
</g>
<g id="#c62129ff">
<path fill="#c62129" opacity="1.00" d=" M 27.11 44.25 C 58.01 44.30 88.92 44.21 119.82 44.24 C 124.26 56.82 124.28 70.85 119.89 83.45 C 89.15 83.52 58.41 83.32 27.66 83.45 C 39.73 76.93 51.87 70.55 63.96 64.09 C 51.67 57.49 39.36 50.93 27.11 44.25 Z" />
</g>
<g id="#f8d12eff">
<path fill="#f8d12e" opacity="1.00" d=" M 19.78 50.74 C 21.74 53.31 23.67 55.91 25.63 58.49 C 28.71 57.51 31.76 56.42 34.82 55.38 C 32.97 58.03 31.06 60.65 29.24 63.33 C 31.16 65.94 33.10 68.53 35.05 71.12 C 31.97 70.12 28.87 69.17 25.75 68.26 C 23.87 70.90 22.02 73.56 20.14 76.20 C 20.09 72.94 20.06 69.68 19.95 66.42 C 16.87 65.50 13.79 64.55 10.72 63.57 C 13.77 62.53 16.82 61.49 19.88 60.48 C 19.89 57.23 19.83 53.98 19.78 50.74 Z" />
</g>
<g id="#1b9046ff">
<path fill="#1b9046" opacity="1.00" d=" M 11.71 91.91 C 14.25 90.54 16.78 89.16 19.36 87.86 C 52.30 87.90 85.25 87.79 118.20 87.78 C 111.92 102.15 99.76 113.78 85.06 119.27 C 72.03 124.28 57.24 124.48 44.10 119.74 C 30.33 114.92 18.60 104.78 11.71 91.91 Z" />
</g>
</svg>
