<?xml version="1.0" encoding="UTF-8" ?>
<!DOCTYPE svg PUBLIC "-//W3C//DTD SVG 1.1//EN" "http://www.w3.org/Graphics/SVG/1.1/DTD/svg11.dtd">
<svg width="128pt" height="128pt" viewBox="0 0 128 128" version="1.1" xmlns="http://www.w3.org/2000/svg">
<g id="#cd212eff">
<path fill="#cd212e" opacity="1.00" d=" M 17.48 27.55 C 26.71 15.04 41.57 7.06 56.92 5.19 C 77.09 2.62 98.22 11.41 110.60 27.53 C 79.56 27.61 48.52 27.47 17.48 27.55 Z" />
<path fill="#cd212e" opacity="1.00" d=" M 17.39 100.47 C 48.44 100.35 79.50 100.34 110.55 100.43 C 100.43 113.52 84.55 121.90 68.05 122.99 C 48.82 124.48 29.14 115.75 17.39 100.47 Z" />
</g>
<g id="#fdcb29ff">
<path fill="#fdcb29" opacity="1.00" d=" M 17.20 27.55 L 17.48 27.55 C 48.52 27.47 79.56 27.61 110.60 27.53 C 120.13 39.72 124.67 55.72 122.69 71.10 C 121.44 81.75 117.14 91.98 110.55 100.43 C 79.50 100.34 48.44 100.35 17.39 100.47 C 7.35 87.76 2.88 70.82 5.49 54.82 C 6.95 44.90 11.22 35.56 17.20 27.55 Z" />
</g>
</svg>
