<?xml version="1.0" encoding="UTF-8" ?>
<!DOCTYPE svg PUBLIC "-//W3C//DTD SVG 1.1//EN" "http://www.w3.org/Graphics/SVG/1.1/DTD/svg11.dtd">
<svg width="128pt" height="128pt" viewBox="0 0 128 128" version="1.1" xmlns="http://www.w3.org/2000/svg">
<g id="#c83231ff">
<path fill="#c83231" opacity="1.00" d=" M 50.89 6.22 C 62.28 3.56 74.42 4.53 85.31 8.74 C 101.19 14.79 114.35 28.05 119.66 44.26 C 88.83 44.37 57.99 44.04 27.16 44.26 C 21.99 41.58 16.89 38.75 11.74 36.02 C 19.65 21.02 34.34 9.86 50.89 6.22 Z" />
</g>
<g id="#0f8b46ff">
<path fill="#0f8b46" opacity="1.00" d=" M 11.73 91.92 C 2.41 74.81 2.46 53.13 11.74 36.02 C 16.89 38.75 21.99 41.58 27.16 44.26 C 39.39 50.96 51.69 57.54 64.00 64.09 C 51.85 70.52 39.68 76.94 27.58 83.50 C 22.28 86.27 17.02 89.12 11.73 91.92 Z" />
</g>
<g id="#eaeaebff">
<path fill="#eaeaeb" opacity="1.00" d=" M 27.16 44.26 C 57.99 44.04 88.83 44.37 119.66 44.26 L 119.86 44.26 C 124.20 56.86 124.25 70.83 119.92 83.44 L 119.83 83.44 C 89.08 83.41 58.33 83.51 27.58 83.50 C 39.68 76.94 51.85 70.52 64.00 64.09 C 51.69 57.54 39.39 50.96 27.16 44.26 Z" />
</g>
<g id="#131313ff">
<path fill="#131313" opacity="1.00" d=" M 11.73 91.92 C 17.02 89.12 22.28 86.27 27.58 83.50 C 58.33 83.51 89.08 83.41 119.83 83.44 C 115.59 95.88 107.03 106.89 95.84 113.84 C 81.91 122.87 64.06 125.54 48.10 121.00 C 32.67 116.80 19.23 106.05 11.73 91.92 Z" />
</g>
</svg>
