<?xml version="1.0" encoding="UTF-8" ?>
<!DOCTYPE svg PUBLIC "-//W3C//DTD SVG 1.1//EN" "http://www.w3.org/Graphics/SVG/1.1/DTD/svg11.dtd">
<svg width="128pt" height="128pt" viewBox="0 0 128 128" version="1.1" xmlns="http://www.w3.org/2000/svg">
<g id="#2a9547ff">
<path fill="#2a9547" opacity="1.00" d=" M 15.16 30.23 C 24.54 16.31 40.28 7.01 56.93 5.11 C 78.22 2.41 100.56 12.47 112.55 30.30 C 80.08 30.29 47.62 30.22 15.16 30.23 Z" />
<path fill="#2a9547" opacity="1.00" d=" M 15.12 97.48 C 47.59 97.49 80.05 97.42 112.51 97.44 C 102.48 112.22 85.37 121.87 67.54 122.87 C 47.23 124.34 26.52 114.37 15.12 97.48 Z" />
</g>
<g id="#eeededff">
<path fill="#eeeded" opacity="1.00" d=" M 15.09 30.23 L 15.16 30.23 C 47.62 30.22 80.08 30.29 112.55 30.30 C 113.96 32.46 115.29 34.68 116.52 36.96 C 81.36 36.96 46.20 37.16 11.03 37.06 C 12.28 34.73 13.64 32.45 15.09 30.23 Z" />
<path fill="#eeeded" opacity="1.00" d=" M 11.00 90.63 C 46.19 90.57 81.38 90.64 116.57 90.68 C 115.30 92.98 113.98 95.26 112.51 97.44 C 80.05 97.42 47.59 97.49 15.12 97.48 C 13.62 95.27 12.29 92.96 11.00 90.63 Z" />
</g>
<g id="#ba203bff">
<path fill="#ba203b" opacity="1.00" d=" M 11.03 37.06 C 46.20 37.16 81.36 36.96 116.52 36.96 C 125.08 53.52 125.08 74.10 116.57 90.68 C 81.38 90.64 46.19 90.57 11.00 90.63 C 2.55 74.07 2.53 53.60 11.03 37.06 M 58.82 58.41 C 53.76 58.32 48.70 58.34 43.63 58.36 C 47.70 61.37 51.82 64.30 55.90 67.30 C 54.46 72.14 52.82 76.92 51.24 81.72 C 55.49 78.91 59.37 75.53 63.75 72.94 C 67.74 75.92 71.78 78.82 75.83 81.72 C 74.34 76.90 72.60 72.16 71.20 67.31 C 75.26 64.29 79.40 61.38 83.46 58.36 C 78.41 58.33 73.35 58.33 68.29 58.42 C 66.69 53.59 65.15 48.73 63.56 43.90 C 61.93 48.72 60.41 53.58 58.82 58.41 Z" />
</g>
<g id="#f0c219ff">
<path fill="#f0c219" opacity="1.00" d=" M 58.82 58.41 C 60.41 53.58 61.93 48.72 63.56 43.90 C 65.15 48.73 66.69 53.59 68.29 58.42 C 73.35 58.33 78.41 58.33 83.46 58.36 C 79.40 61.38 75.26 64.29 71.20 67.31 C 72.60 72.16 74.34 76.90 75.83 81.72 C 71.78 78.82 67.74 75.92 63.75 72.94 C 59.37 75.53 55.49 78.91 51.24 81.72 C 52.82 76.92 54.46 72.14 55.90 67.30 C 51.82 64.30 47.70 61.37 43.63 58.36 C 48.70 58.34 53.76 58.32 58.82 58.41 Z" />
</g>
</svg>
