<?xml version="1.0" encoding="UTF-8" ?>
<!DOCTYPE svg PUBLIC "-//W3C//DTD SVG 1.1//EN" "http://www.w3.org/Graphics/SVG/1.1/DTD/svg11.dtd">
<svg width="128pt" height="128pt" viewBox="0 0 128 128" version="1.1" xmlns="http://www.w3.org/2000/svg">
<g id="#268e44ff">
<path fill="#268e44" opacity="1.00" d=" M 42.00 8.98 C 56.06 3.27 72.28 3.36 86.31 9.11 C 60.59 34.86 34.86 60.59 9.12 86.31 C 3.36 72.27 3.28 56.05 8.98 41.98 C 14.82 27.05 27.06 14.81 42.00 8.98 Z" />
</g>
<g id="#e7c532ff">
<path fill="#e7c532" opacity="1.00" d=" M 86.31 9.11 C 87.74 9.70 89.16 10.34 90.56 11.02 C 64.02 37.51 37.51 64.02 11.02 90.55 C 10.34 89.16 9.71 87.74 9.12 86.31 C 34.86 60.59 60.59 34.86 86.31 9.11 Z" />
<path fill="#e7c532" opacity="1.00" d=" M 37.39 116.90 C 63.90 90.40 90.41 63.90 116.90 37.38 C 117.58 38.76 118.21 40.17 118.79 41.59 C 93.05 67.31 67.32 93.06 41.59 118.79 C 40.17 118.21 38.76 117.58 37.39 116.90 Z" />
</g>
<g id="#0c0c0cff">
<path fill="#0c0c0c" opacity="1.00" d=" M 90.56 11.02 C 101.89 16.70 111.25 26.03 116.90 37.38 C 90.41 63.90 63.90 90.40 37.39 116.90 C 26.04 111.23 16.71 101.88 11.02 90.55 C 37.51 64.02 64.02 37.51 90.56 11.02 Z" />
</g>
<g id="#089ed6ff">
<path fill="#089ed6" opacity="1.00" d=" M 41.59 118.79 C 67.32 93.06 93.05 67.31 118.79 41.59 C 124.55 55.67 124.63 71.95 118.89 86.05 C 113.03 100.86 100.89 113.01 86.08 118.88 C 71.98 124.64 55.68 124.56 41.59 118.79 Z" />
</g>
</svg>
