<?xml version="1.0" encoding="UTF-8" ?>
<!DOCTYPE svg PUBLIC "-//W3C//DTD SVG 1.1//EN" "http://www.w3.org/Graphics/SVG/1.1/DTD/svg11.dtd">
<svg width="128pt" height="128pt" viewBox="0 0 128 128" version="1.1" xmlns="http://www.w3.org/2000/svg">
<g id="#e03533ff">
<path fill="#e03533" opacity="1.00" d=" M 22.73 21.93 C 32.02 13.09 44.22 7.35 56.98 5.99 C 74.13 3.97 91.93 10.07 104.37 22.00 C 77.16 22.03 49.95 22.00 22.73 21.93 Z" />
<path fill="#e03533" opacity="1.00" d=" M 22.63 107.61 C 49.91 107.71 77.18 107.59 104.46 107.57 C 95.07 116.48 82.77 122.29 69.88 123.62 C 52.79 125.63 35.02 119.52 22.63 107.61 Z" />
</g>
<g id="#f0f0f1ff">
<path fill="#f0f0f1" opacity="1.00" d=" M 11.30 36.90 C 14.35 31.38 18.17 26.30 22.73 21.93 C 49.95 22.00 77.16 22.03 104.37 22.00 C 108.91 26.33 112.70 31.40 115.73 36.88 C 80.92 36.86 46.11 36.91 11.30 36.90 Z" />
<path fill="#f0f0f1" opacity="1.00" d=" M 11.33 92.73 C 46.12 92.69 80.91 92.73 115.71 92.76 C 112.72 98.23 108.92 103.23 104.46 107.57 C 77.18 107.59 49.91 107.71 22.63 107.61 C 18.17 103.22 14.29 98.24 11.33 92.73 Z" />
</g>
<g id="#164576ff">
<path fill="#164576" opacity="1.00" d=" M 11.30 36.90 C 46.11 36.91 80.92 36.86 115.73 36.88 C 124.98 54.01 124.98 75.65 115.71 92.76 C 80.91 92.73 46.12 92.69 11.33 92.73 C 2.05 75.63 2.08 54.01 11.30 36.90 Z" />
</g>
</svg>
