<?xml version="1.0" encoding="UTF-8" ?>
<!DOCTYPE svg PUBLIC "-//W3C//DTD SVG 1.1//EN" "http://www.w3.org/Graphics/SVG/1.1/DTD/svg11.dtd">
<svg width="128pt" height="128pt" viewBox="0 0 128 128" version="1.1" xmlns="http://www.w3.org/2000/svg">
<g id="#d12128ff">
<path fill="#d12128" opacity="1.00" d=" M 14.08 32.02 C 24.52 15.32 43.84 4.80 63.50 4.72 C 63.50 12.62 63.53 20.52 63.50 28.42 C 63.54 36.33 63.45 44.24 63.50 52.15 C 63.51 60.01 63.50 67.88 63.50 75.74 C 44.30 75.79 25.11 75.75 5.91 75.76 C 2.86 60.85 5.80 44.81 14.08 32.02 M 32.47 40.72 C 28.46 40.72 24.46 40.69 20.45 40.72 C 23.62 43.16 26.98 45.35 30.12 47.83 C 28.87 51.65 27.70 55.49 26.41 59.30 C 29.63 56.87 32.94 54.59 36.18 52.20 C 39.44 54.57 42.73 56.89 45.97 59.28 C 44.60 55.50 43.50 51.63 42.23 47.81 C 45.42 45.38 48.75 43.13 51.95 40.71 C 47.92 40.71 43.88 40.71 39.84 40.72 C 38.69 36.88 37.38 33.09 36.20 29.27 C 34.88 33.06 33.79 36.93 32.47 40.72 Z" />
</g>
<g id="#299346ff">
<path fill="#299346" opacity="1.00" d=" M 63.50 4.72 C 82.02 4.55 100.43 13.53 111.41 28.50 C 95.44 28.54 79.47 28.48 63.50 28.42 C 63.53 20.52 63.50 12.62 63.50 4.72 Z" />
<path fill="#299346" opacity="1.00" d=" M 63.50 52.15 C 83.00 52.28 102.49 51.83 121.98 52.11 C 123.56 59.90 123.57 67.99 121.98 75.78 C 102.49 75.82 83.00 75.72 63.50 75.74 C 63.50 67.88 63.51 60.01 63.50 52.15 Z" />
<path fill="#299346" opacity="1.00" d=" M 16.67 99.62 C 48.18 99.54 79.70 99.55 111.21 99.54 C 101.77 112.58 86.47 121.03 70.52 122.80 C 50.17 125.29 28.83 116.15 16.67 99.62 Z" />
</g>
<g id="#f0c316ff">
<path fill="#f0c316" opacity="1.00" d=" M 63.50 28.42 C 79.47 28.48 95.44 28.54 111.41 28.50 C 116.55 35.51 120.23 43.59 121.98 52.11 C 102.49 51.83 83.00 52.28 63.50 52.15 C 63.45 44.24 63.54 36.33 63.50 28.42 Z" />
<path fill="#f0c316" opacity="1.00" d=" M 5.91 75.76 C 25.11 75.75 44.30 75.79 63.50 75.74 C 83.00 75.72 102.49 75.82 121.98 75.78 C 120.23 84.37 116.50 92.47 111.34 99.54 L 111.21 99.54 C 79.70 99.55 48.18 99.54 16.67 99.62 C 11.37 92.60 7.68 84.38 5.91 75.76 Z" />
</g>
<g id="#f2f1f1ff">
<path fill="#f2f1f1" opacity="1.00" d=" M 32.47 40.72 C 33.79 36.93 34.88 33.06 36.20 29.27 C 37.38 33.09 38.69 36.88 39.84 40.72 C 43.88 40.71 47.92 40.71 51.95 40.71 C 48.75 43.13 45.42 45.38 42.23 47.81 C 43.50 51.63 44.60 55.50 45.97 59.28 C 42.73 56.89 39.44 54.57 36.18 52.20 C 32.94 54.59 29.63 56.87 26.41 59.30 C 27.70 55.49 28.87 51.65 30.12 47.83 C 26.98 45.35 23.62 43.16 20.45 40.72 C 24.46 40.69 28.46 40.72 32.47 40.72 Z" />
</g>
</svg>
