<?xml version="1.0" encoding="UTF-8" ?>
<!DOCTYPE svg PUBLIC "-//W3C//DTD SVG 1.1//EN" "http://www.w3.org/Graphics/SVG/1.1/DTD/svg11.dtd">
<svg width="128pt" height="128pt" viewBox="0 0 128 128" version="1.1" xmlns="http://www.w3.org/2000/svg">
<g id="#d52528ff">
<path fill="#d52528" opacity="1.00" d=" M 47.18 7.18 C 64.08 2.04 83.17 5.18 97.65 15.25 C 118.35 29.14 128.20 56.96 120.69 80.76 C 96.04 56.38 71.74 31.66 47.18 7.18 Z" />
<path fill="#d52528" opacity="1.00" d=" M 7.66 45.49 L 7.67 45.51 C 20.83 59.25 34.57 72.48 47.94 86.04 C 59.46 97.39 70.67 109.09 82.41 120.20 L 82.50 120.26 C 69.18 124.49 54.43 124.13 41.50 118.74 C 24.83 112.07 11.72 97.34 6.97 80.03 C 3.74 68.78 4.09 56.62 7.66 45.49 Z" />
</g>
<g id="#f8f8f8ff">
<path fill="#f8f8f8" opacity="1.00" d=" M 41.50 9.15 C 43.37 8.43 45.25 7.73 47.18 7.18 C 71.74 31.66 96.04 56.38 120.69 80.76 C 120.14 82.74 119.37 84.65 118.68 86.59 L 118.30 86.25 C 92.72 60.65 67.08 35.10 41.46 9.54 L 41.50 9.15 Z" />
<path fill="#f8f8f8" opacity="1.00" d=" M 7.67 45.51 C 8.32 43.62 9.04 41.75 9.85 39.92 C 35.86 65.99 61.94 92.00 87.93 118.09 C 86.10 118.82 84.27 119.56 82.41 120.20 C 70.67 109.09 59.46 97.39 47.94 86.04 C 34.57 72.48 20.83 59.25 7.67 45.51 Z" />
</g>
<g id="#141414ff">
<path fill="#141414" opacity="1.00" d=" M 9.85 39.92 C 15.83 26.17 27.30 14.99 41.18 9.30 L 41.46 9.54 C 67.08 35.10 92.72 60.65 118.30 86.25 L 118.62 86.75 C 112.89 100.63 101.72 112.12 87.93 118.09 C 61.94 92.00 35.86 65.99 9.85 39.92 Z" />
</g>
</svg>
