<?xml version="1.0" encoding="UTF-8" ?>
<!DOCTYPE svg PUBLIC "-//W3C//DTD SVG 1.1//EN" "http://www.w3.org/Graphics/SVG/1.1/DTD/svg11.dtd">
<svg width="128pt" height="128pt" viewBox="0 0 128 128" version="1.1" xmlns="http://www.w3.org/2000/svg">
<g id="#e01e33ff">
<path fill="#e01e33" opacity="1.00" d=" M 52.43 5.89 C 59.84 4.42 67.49 4.43 74.91 5.80 C 74.84 18.04 74.87 30.27 74.89 42.51 C 83.39 34.14 91.63 25.51 100.14 17.15 C 102.37 18.84 104.45 20.70 106.40 22.71 C 96.05 33.19 85.50 43.46 75.15 53.93 C 90.85 53.88 106.56 53.72 122.26 53.84 C 123.56 61.32 123.39 69.01 121.80 76.44 C 109.76 76.44 97.72 76.51 85.68 76.37 C 93.94 84.29 101.82 92.60 110.07 100.54 C 108.90 103.16 106.51 104.94 104.59 107.00 C 94.58 97.17 84.87 87.07 74.89 77.22 C 74.88 92.18 74.84 107.14 74.91 122.11 C 67.49 123.50 59.84 123.49 52.43 122.03 C 52.42 110.63 52.44 99.23 52.43 87.83 C 44.47 95.69 36.61 103.64 28.68 111.52 C 26.51 109.83 24.36 108.09 22.41 106.15 C 32.35 96.25 42.24 86.29 52.19 76.40 C 36.81 76.29 21.44 76.41 6.07 76.36 C 4.53 68.99 4.34 61.36 5.63 53.94 C 17.41 53.87 29.20 53.96 40.99 53.92 C 32.76 45.58 24.43 37.35 16.17 29.04 C 17.79 26.82 19.56 24.70 21.47 22.73 C 31.80 33.03 42.11 43.34 52.42 53.67 C 52.45 37.74 52.41 21.82 52.43 5.89 Z" />
</g>
<g id="#f6f6f6ff">
<path fill="#f6f6f6" opacity="1.00" d=" M 47.36 7.14 C 49.04 6.69 50.73 6.27 52.43 5.89 C 52.41 21.82 52.45 37.74 52.42 53.67 C 42.11 43.34 31.80 33.03 21.47 22.73 C 23.73 20.46 26.14 18.34 28.68 16.40 C 34.94 22.59 41.08 28.89 47.36 35.05 C 47.41 25.74 47.38 16.44 47.36 7.14 Z" />
<path fill="#f6f6f6" opacity="1.00" d=" M 74.91 5.80 C 76.56 6.18 78.21 6.56 79.86 6.95 C 79.84 16.31 79.97 25.68 80.00 35.04 C 86.38 28.83 92.65 22.51 98.95 16.21 C 99.25 16.45 99.84 16.92 100.14 17.15 C 91.63 25.51 83.39 34.14 74.89 42.51 C 74.87 30.27 74.84 18.04 74.91 5.80 Z" />
<path fill="#f6f6f6" opacity="1.00" d=" M 75.15 53.93 C 85.50 43.46 96.05 33.19 106.40 22.71 C 108.52 25.05 110.57 27.45 112.44 29.99 C 106.17 36.40 99.59 42.52 93.51 49.12 C 98.01 48.67 102.51 49.10 107.02 49.14 C 111.74 48.84 116.47 48.87 121.21 48.92 C 121.55 50.56 121.90 52.20 122.26 53.84 C 106.56 53.72 90.85 53.88 75.15 53.93 Z" />
<path fill="#f6f6f6" opacity="1.00" d=" M 15.18 30.45 C 15.51 29.98 15.84 29.51 16.17 29.04 C 24.43 37.35 32.76 45.58 40.99 53.92 C 29.20 53.96 17.41 53.87 5.63 53.94 C 5.96 52.24 6.32 50.54 6.71 48.85 C 15.67 48.86 24.63 48.85 33.59 48.86 C 27.50 42.68 21.31 36.59 15.18 30.45 Z" />
<path fill="#f6f6f6" opacity="1.00" d=" M 6.07 76.36 C 21.44 76.41 36.81 76.29 52.19 76.40 C 42.24 86.29 32.35 96.25 22.41 106.15 C 20.16 103.88 18.07 101.46 16.18 98.89 C 21.81 93.03 27.89 87.60 33.27 81.50 C 24.85 81.39 16.42 81.38 8.00 81.51 L 7.36 81.53 C 6.92 79.80 6.49 78.08 6.07 76.36 Z" />
<path fill="#f6f6f6" opacity="1.00" d=" M 85.68 76.37 C 97.72 76.51 109.76 76.44 121.80 76.44 C 121.39 78.09 120.95 79.74 120.51 81.39 C 111.56 81.35 102.62 81.35 93.67 81.38 C 99.36 87.51 105.58 93.13 111.28 99.25 L 111.25 100.38 L 110.07 100.54 C 101.82 92.60 93.94 84.29 85.68 76.37 Z" />
<path fill="#f6f6f6" opacity="1.00" d=" M 74.89 77.22 C 84.87 87.07 94.58 97.17 104.59 107.00 C 102.33 109.01 100.00 110.93 97.53 112.68 C 91.72 106.84 85.94 100.98 79.99 95.28 C 79.97 103.84 79.82 112.40 79.87 120.96 C 78.22 121.36 76.56 121.73 74.91 122.11 C 74.84 107.14 74.88 92.18 74.89 77.22 Z" />
<path fill="#f6f6f6" opacity="1.00" d=" M 28.68 111.52 C 36.61 103.64 44.47 95.69 52.43 87.83 C 52.44 99.23 52.42 110.63 52.43 122.03 C 50.74 121.64 49.05 121.23 47.37 120.78 C 47.36 112.27 47.42 103.77 47.36 95.26 C 41.54 100.92 35.93 106.80 30.09 112.45 C 29.74 112.22 29.03 111.75 28.68 111.52 Z" />
</g>
<g id="#283273ff">
<path fill="#283273" opacity="1.00" d=" M 28.68 16.40 C 34.32 12.27 40.65 9.11 47.36 7.14 C 47.38 16.44 47.41 25.74 47.36 35.05 C 41.08 28.89 34.94 22.59 28.68 16.40 Z" />
<path fill="#283273" opacity="1.00" d=" M 79.86 6.95 C 86.71 8.88 93.18 12.03 98.95 16.21 C 92.65 22.51 86.38 28.83 80.00 35.04 C 79.97 25.68 79.84 16.31 79.86 6.95 Z" />
<path fill="#283273" opacity="1.00" d=" M 112.44 29.99 C 116.42 35.75 119.41 42.16 121.21 48.92 C 116.47 48.87 111.74 48.84 107.02 49.14 C 102.51 49.10 98.01 48.67 93.51 49.12 C 99.59 42.52 106.17 36.40 112.44 29.99 Z" />
<path fill="#283273" opacity="1.00" d=" M 6.71 48.85 C 8.49 42.29 11.31 36.03 15.18 30.45 C 21.31 36.59 27.50 42.68 33.59 48.86 C 24.63 48.85 15.67 48.86 6.71 48.85 Z" />
<path fill="#283273" opacity="1.00" d=" M 8.00 81.51 C 16.42 81.38 24.85 81.39 33.27 81.50 C 27.89 87.60 21.81 93.03 16.18 98.89 C 12.35 93.63 9.41 87.78 7.41 81.59 L 8.00 81.51 Z" />
<path fill="#283273" opacity="1.00" d=" M 93.67 81.38 C 102.62 81.35 111.56 81.35 120.51 81.39 C 118.47 87.79 115.56 94.04 111.28 99.25 C 105.58 93.13 99.36 87.51 93.67 81.38 Z" />
<path fill="#283273" opacity="1.00" d=" M 47.36 95.26 C 47.42 103.77 47.36 112.27 47.37 120.78 C 41.21 118.94 35.32 116.19 30.09 112.45 C 35.93 106.80 41.54 100.92 47.36 95.26 Z" />
<path fill="#283273" opacity="1.00" d=" M 79.99 95.28 C 85.94 100.98 91.72 106.84 97.53 112.68 C 92.15 116.40 86.16 119.18 79.87 120.96 C 79.82 112.40 79.97 103.84 79.99 95.28 Z" />
</g>
</svg>
