<?xml version="1.0" encoding="UTF-8" ?>
<!DOCTYPE svg PUBLIC "-//W3C//DTD SVG 1.1//EN" "http://www.w3.org/Graphics/SVG/1.1/DTD/svg11.dtd">
<svg width="1000pt" height="1000pt" viewBox="0 0 1000 1000" version="1.1" xmlns="http://www.w3.org/2000/svg">
<g id="#192f5dff">
<path fill="#192f5d" opacity="1.00" d=" M 358.02 21.16 C 418.94 3.03 483.35 -3.27 546.64 2.65 C 546.60 27.55 546.63 52.46 546.62 77.36 C 546.62 103.03 546.62 128.70 546.62 154.37 C 546.62 179.99 546.62 205.62 546.62 231.24 C 546.62 256.91 546.62 282.58 546.62 308.25 C 546.62 333.83 546.62 359.42 546.62 385.00 C 546.62 410.71 546.62 436.42 546.62 462.13 C 546.65 487.73 546.57 513.33 546.66 538.94 C 365.11 539.09 183.55 538.95 1.99 539.00 C 0.45 519.13 0.11 499.17 0.93 479.26 C 2.65 478.02 4.35 476.77 6.05 475.52 C 4.41 475.50 2.76 475.49 1.11 475.48 C 3.26 431.65 11.26 388.12 24.77 346.36 C 29.85 342.79 34.83 339.08 39.87 335.46 C 45.94 339.84 51.97 344.30 58.07 348.65 C 55.82 341.50 53.44 334.39 51.16 327.25 C 57.21 322.83 63.30 318.45 69.35 314.02 C 61.85 313.97 54.35 314.02 46.85 314.00 C 45.32 309.38 43.87 304.74 42.30 300.14 C 60.82 257.74 85.25 217.92 114.73 182.26 C 116.92 183.90 119.15 185.50 121.40 187.06 C 120.60 184.56 119.80 182.07 119.12 179.55 C 118.67 179.34 117.79 178.94 117.34 178.74 C 118.29 177.57 119.42 176.57 120.42 175.45 C 136.19 157.01 153.33 139.73 171.60 123.74 C 175.99 126.88 180.31 130.14 184.75 133.22 C 183.04 127.80 181.26 122.40 179.48 117.01 C 198.55 101.06 218.80 86.52 240.03 73.58 C 242.70 75.54 245.38 77.48 248.08 79.40 C 246.93 76.54 246.82 73.06 244.63 70.75 C 280.22 49.68 318.35 32.90 358.02 21.16 M 349.63 44.74 C 342.16 44.78 334.70 44.70 327.23 44.78 C 333.14 49.35 339.29 53.58 345.29 58.03 C 343.01 65.06 340.72 72.09 338.44 79.12 C 344.67 75.17 350.50 70.58 356.45 66.22 C 362.67 70.30 368.30 75.27 374.72 79.03 C 372.40 72.04 370.14 65.03 367.87 58.03 C 373.88 53.57 380.02 49.30 385.98 44.78 C 378.49 44.68 370.99 44.82 363.50 44.71 C 361.28 37.69 359.00 30.70 356.69 23.71 C 353.90 30.55 352.02 37.74 349.63 44.74 M 476.21 44.79 C 468.75 44.72 461.30 44.73 453.85 44.78 C 459.82 49.29 465.95 53.58 471.97 58.03 C 469.69 65.09 467.37 72.14 465.10 79.20 C 471.35 75.15 477.18 70.49 483.28 66.22 C 489.32 70.59 495.30 75.05 501.41 79.34 C 499.25 72.19 496.80 65.13 494.55 58.01 C 500.46 53.57 506.69 49.52 512.40 44.82 C 505.01 44.66 497.61 44.80 490.22 44.75 C 487.96 37.67 485.61 30.62 483.38 23.54 C 480.63 30.49 478.78 37.76 476.21 44.79 M 286.31 98.58 C 278.83 98.69 271.35 98.58 263.87 98.63 C 269.80 103.21 276.02 107.40 281.97 111.95 C 279.57 118.97 277.39 126.07 275.02 133.10 C 281.22 129.00 287.12 124.48 293.11 120.09 C 299.28 124.23 305.08 128.90 311.25 133.04 C 309.28 125.91 306.72 118.95 304.53 111.87 C 310.29 107.34 316.76 103.62 322.09 98.62 C 314.76 98.56 307.43 98.75 300.11 98.53 C 297.99 91.36 295.44 84.33 293.32 77.17 C 290.84 84.26 288.60 91.43 286.31 98.58 M 419.68 77.84 C 417.41 84.78 415.22 91.74 412.89 98.65 C 405.53 98.62 398.17 98.57 390.82 98.68 C 396.51 103.39 402.75 107.42 408.63 111.89 C 406.35 118.98 403.94 126.03 401.79 133.16 C 407.92 128.91 413.85 124.36 419.97 120.08 C 425.99 124.50 432.03 128.89 438.10 133.25 C 435.88 126.10 433.50 119.00 431.20 111.88 C 437.15 107.43 443.33 103.26 449.17 98.65 C 441.80 98.64 434.43 98.54 427.07 98.70 C 424.22 91.90 422.98 84.38 419.68 77.84 M 229.76 131.19 C 227.59 138.32 225.16 145.37 222.92 152.49 C 215.56 152.52 208.19 152.48 200.83 152.50 C 206.45 157.29 212.75 161.24 218.61 165.74 C 216.39 172.82 213.79 179.79 211.89 186.97 C 217.93 182.65 223.88 178.21 229.95 173.92 C 235.96 178.39 242.09 182.70 248.09 187.18 C 245.88 180.01 243.50 172.89 241.17 165.76 C 247.08 161.24 253.34 157.17 259.11 152.48 C 251.70 152.52 244.30 152.50 236.89 152.50 C 234.43 145.42 232.49 138.16 229.76 131.19 M 356.46 131.20 C 354.31 138.29 351.79 145.27 349.72 152.38 C 342.43 152.66 335.13 152.41 327.83 152.51 C 333.08 157.57 339.63 161.18 345.30 165.79 C 342.91 172.88 340.69 180.03 338.31 187.13 C 344.49 182.81 350.47 178.20 356.68 173.93 C 362.67 178.42 368.77 182.74 374.81 187.15 C 372.50 180.04 370.26 172.91 367.85 165.84 C 373.77 161.23 380.01 157.03 386.00 152.49 C 378.51 152.51 371.02 152.51 363.54 152.49 C 361.17 145.39 359.14 138.18 356.46 131.20 M 476.27 152.50 C 468.82 152.48 461.37 152.53 453.92 152.47 C 459.69 156.98 465.78 161.09 471.63 165.49 C 472.06 166.69 471.10 167.91 470.91 169.08 C 468.91 175.09 466.95 181.12 465.03 187.16 C 471.05 182.72 477.18 178.43 483.15 173.93 C 489.36 178.16 495.27 182.82 501.48 187.06 C 499.18 179.95 496.86 172.84 494.56 165.73 C 500.34 161.21 506.72 157.41 512.18 152.51 C 504.84 152.42 497.49 152.63 490.15 152.41 C 488.03 145.26 485.50 138.24 483.36 131.10 C 480.76 138.15 478.67 145.38 476.27 152.50 M 286.24 206.27 C 278.74 206.24 271.24 206.25 263.74 206.25 C 269.73 210.73 275.77 215.14 281.90 219.43 C 279.80 226.68 277.17 233.77 275.07 241.02 C 281.04 236.53 287.16 232.25 293.15 227.78 C 299.34 232.03 305.27 236.66 311.46 240.92 C 309.15 233.82 306.89 226.71 304.51 219.64 C 310.51 215.07 316.75 210.83 322.74 206.25 C 315.21 206.23 307.68 206.29 300.15 206.22 C 297.94 199.12 295.53 192.08 293.32 184.98 C 290.72 191.99 288.70 199.20 286.24 206.27 M 419.86 185.00 C 417.55 192.08 415.27 199.17 412.95 206.25 C 405.45 206.26 397.95 206.24 390.46 206.25 C 396.41 210.84 402.63 215.08 408.64 219.61 C 406.44 226.68 403.76 233.61 401.97 240.80 C 407.97 236.47 413.92 232.06 419.95 227.78 C 425.99 232.17 432.02 236.59 438.10 240.93 C 435.91 233.76 433.42 226.68 431.23 219.50 C 437.29 215.11 443.42 210.82 449.35 206.24 C 441.85 206.22 434.35 206.32 426.85 206.20 C 424.51 199.14 422.38 192.00 419.86 185.00 M 166.41 185.13 C 164.24 192.18 161.82 199.14 159.65 206.19 C 152.13 206.33 144.62 206.20 137.11 206.26 C 142.30 210.27 147.69 214.03 153.00 217.89 C 153.90 218.66 155.82 219.37 154.84 220.91 C 152.67 227.59 150.46 234.26 148.33 240.96 C 154.37 236.60 160.45 232.29 166.39 227.79 C 172.66 232.00 178.64 236.64 184.80 241.01 C 182.59 233.77 179.90 226.68 177.96 219.36 C 184.09 215.12 190.08 210.67 196.09 206.25 C 188.62 206.29 181.15 206.15 173.68 206.33 C 170.93 199.38 169.30 192.02 166.41 185.13 M 229.75 239.02 C 227.52 246.07 225.20 253.09 222.91 260.12 C 215.51 260.14 208.11 260.09 200.72 260.15 C 206.41 264.97 212.81 268.89 218.64 273.55 C 216.16 280.60 214.00 287.75 211.63 294.84 C 217.74 290.46 223.80 286.03 229.88 281.61 C 235.94 286.00 242.01 290.38 248.04 294.82 C 245.91 287.63 243.45 280.54 241.17 273.39 C 247.23 268.98 253.36 264.66 259.34 260.13 C 251.84 260.10 244.34 260.15 236.84 260.11 C 234.42 253.10 232.56 245.88 229.75 239.02 M 356.50 238.82 C 354.29 245.91 351.86 252.93 349.69 260.04 C 342.16 260.24 334.64 260.05 327.11 260.14 C 333.11 264.61 339.19 268.98 345.26 273.35 C 343.04 280.53 340.62 287.65 338.35 294.82 C 344.35 290.43 350.47 286.20 356.34 281.64 C 362.68 285.76 368.61 290.49 374.80 294.84 C 372.56 287.66 370.09 280.54 367.90 273.34 C 373.99 268.99 380.03 264.56 386.09 260.17 C 378.59 259.80 370.81 260.68 363.48 259.74 C 361.00 252.82 359.07 245.71 356.50 238.82 M 476.23 260.15 C 468.75 260.11 461.26 260.10 453.78 260.15 C 459.81 264.60 465.89 268.99 471.96 273.38 C 469.75 280.55 467.20 287.62 465.13 294.83 C 471.11 290.35 477.23 286.05 483.24 281.61 C 489.33 285.96 495.33 290.44 501.44 294.77 C 499.44 287.56 496.37 280.48 494.83 273.27 C 500.72 268.77 506.86 264.61 512.76 260.12 C 505.23 260.10 497.71 260.17 490.18 260.08 C 487.99 253.01 485.56 246.01 483.40 238.92 C 480.62 245.85 478.77 253.12 476.23 260.15 M 96.22 260.12 C 88.72 260.14 81.23 260.08 73.73 260.16 C 79.76 264.60 85.83 268.99 91.90 273.37 C 89.68 280.55 87.22 287.66 85.00 294.85 C 91.05 290.42 97.13 286.03 103.19 281.61 C 109.31 285.98 115.35 290.47 121.47 294.84 C 119.10 287.77 116.96 280.62 114.46 273.59 C 120.37 268.90 126.68 264.73 132.68 260.14 C 125.17 260.10 117.67 260.14 110.17 260.12 C 107.97 253.07 105.48 246.11 103.44 239.01 C 100.43 245.80 98.77 253.14 96.22 260.12 M 159.66 313.93 C 152.13 314.09 144.60 313.94 137.08 314.01 C 143.11 318.43 149.13 322.85 155.23 327.18 C 153.06 334.36 150.56 341.44 148.37 348.61 C 154.51 344.29 160.49 339.75 166.64 335.46 C 172.63 339.93 178.71 344.29 184.78 348.67 C 182.49 341.52 180.15 334.39 177.83 327.26 C 183.84 322.83 189.97 318.56 195.91 314.04 C 188.40 313.87 180.88 314.19 173.37 313.86 C 171.30 306.79 168.91 299.82 166.62 292.82 C 164.01 299.76 161.92 306.88 159.66 313.93 M 286.18 314.06 C 278.74 313.97 271.29 313.93 263.85 314.08 C 269.86 318.52 275.95 322.84 281.96 327.28 C 279.71 334.40 277.14 341.42 275.17 348.62 C 281.15 344.19 287.21 339.86 293.21 335.47 C 299.32 339.78 305.26 344.32 311.41 348.57 C 309.14 341.51 306.94 334.43 304.49 327.43 C 310.40 322.76 316.69 318.57 322.70 314.02 C 315.20 313.97 307.70 314.03 300.20 313.98 C 297.96 306.90 295.54 299.88 293.39 292.77 C 290.57 299.72 288.75 307.02 286.18 314.06 M 419.79 292.92 C 417.50 299.95 415.22 306.97 412.94 314.00 C 405.46 314.02 397.97 313.96 390.49 314.03 C 396.48 318.42 402.44 322.87 408.56 327.09 C 406.51 334.33 403.90 341.38 401.74 348.59 C 407.87 344.30 413.85 339.81 419.93 335.45 C 425.93 339.87 432.02 344.17 437.99 348.64 C 436.01 341.44 433.45 334.40 431.19 327.28 C 437.21 322.83 443.32 318.52 449.32 314.05 C 441.84 313.93 434.37 314.03 426.89 314.00 C 424.45 307.00 422.61 299.76 419.79 292.92 M 96.23 367.87 C 88.82 367.99 81.39 367.64 73.98 368.05 C 79.94 372.45 86.00 376.72 91.94 381.16 C 89.60 388.16 87.35 395.19 85.08 402.21 C 91.33 398.25 97.12 393.58 103.16 389.31 C 109.28 393.59 115.20 398.15 121.35 402.39 C 119.18 395.25 116.75 388.20 114.50 381.09 C 120.46 376.69 126.58 372.51 132.41 367.94 C 125.00 367.79 117.59 367.92 110.18 367.87 C 107.94 360.86 105.62 353.87 103.40 346.86 C 100.41 353.61 98.71 360.90 96.23 367.87 M 229.72 346.86 C 227.46 353.87 225.18 360.87 222.90 367.87 C 215.51 367.93 208.11 367.75 200.73 367.97 C 206.55 372.52 212.64 376.70 218.59 381.07 C 216.35 388.21 213.91 395.28 211.73 402.44 C 217.83 398.13 223.83 393.66 229.90 389.30 C 235.96 393.65 241.90 398.16 248.04 402.38 C 245.83 395.30 243.51 388.24 241.18 381.19 C 247.06 376.67 253.21 372.51 259.10 368.01 C 251.70 367.70 244.29 367.96 236.90 367.87 C 234.38 360.92 232.69 353.62 229.72 346.86 M 356.49 346.56 C 354.23 353.67 351.87 360.74 349.61 367.85 C 342.18 367.93 334.75 367.79 327.32 367.93 C 333.20 372.46 339.30 376.69 345.28 381.09 C 342.99 388.25 340.65 395.38 338.32 402.52 C 344.44 398.16 350.49 393.70 356.58 389.29 C 362.65 393.57 368.45 398.23 374.71 402.23 C 372.46 395.18 370.15 388.15 367.86 381.12 C 373.85 376.68 379.97 372.41 385.92 367.91 C 378.44 367.78 370.95 367.99 363.46 367.80 C 361.23 360.69 359.06 353.56 356.49 346.56 M 476.26 367.88 C 468.82 367.92 461.39 367.76 453.96 367.97 C 459.93 372.40 465.98 376.72 471.98 381.11 C 469.71 388.16 467.35 395.18 465.14 402.25 C 471.33 398.20 477.19 393.64 483.19 389.30 C 489.34 393.59 495.28 398.17 501.45 402.43 C 499.22 395.29 496.81 388.21 494.57 381.08 C 500.40 376.63 506.67 372.73 512.22 367.94 C 504.89 367.78 497.57 367.93 490.24 367.85 C 487.96 360.79 485.63 353.74 483.39 346.67 C 480.62 353.59 478.72 360.84 476.26 367.88 M 39.71 400.75 C 37.38 407.74 35.18 414.77 32.84 421.76 C 25.62 421.70 18.40 421.85 11.18 421.66 C 11.34 422.73 12.42 423.20 13.18 423.81 C 18.36 427.45 23.43 431.24 28.57 434.93 C 26.32 442.06 23.89 449.12 21.71 456.26 C 27.83 451.98 33.81 447.49 39.89 443.14 C 45.94 447.53 51.93 452.00 58.06 456.29 C 55.80 449.16 53.46 442.06 51.14 434.95 C 57.05 430.51 63.26 426.45 68.98 421.77 C 61.61 421.72 54.24 421.76 46.87 421.75 C 44.39 414.79 42.66 407.52 39.71 400.75 M 166.36 400.77 C 164.11 407.77 161.81 414.75 159.56 421.75 C 152.16 421.78 144.77 421.69 137.37 421.79 C 143.19 426.37 149.32 430.53 155.26 434.95 C 152.97 441.97 150.75 449.00 148.38 456.00 C 154.75 452.19 160.45 447.32 166.60 443.15 C 172.64 447.50 178.54 452.06 184.74 456.19 C 182.46 449.11 180.12 442.04 177.85 434.96 C 183.75 430.50 189.93 426.42 195.69 421.79 C 188.30 421.68 180.91 421.81 173.52 421.72 C 171.05 414.77 169.40 407.47 166.36 400.77 M 286.22 421.75 C 278.78 421.76 271.33 421.72 263.89 421.77 C 269.86 426.25 275.98 430.52 281.96 434.99 C 279.62 442.08 277.31 449.18 275.03 456.28 C 281.13 452.12 286.94 447.54 293.03 443.38 C 299.38 447.05 305.08 452.12 311.29 456.18 C 309.27 449.04 306.75 442.04 304.52 434.96 C 310.39 430.59 316.44 426.46 322.23 421.97 C 314.91 421.46 307.56 421.89 300.22 421.75 C 297.96 414.73 295.67 407.73 293.41 400.72 C 290.43 407.49 288.74 414.79 286.22 421.75 M 419.70 400.86 C 417.44 407.83 415.20 414.81 412.89 421.76 C 405.52 421.82 398.14 421.57 390.78 421.89 C 396.64 426.35 402.68 430.58 408.62 434.93 C 406.37 442.05 403.95 449.12 401.75 456.26 C 407.89 452.00 413.84 447.49 419.93 443.15 C 426.00 447.51 431.97 452.02 438.12 456.28 C 435.85 449.15 433.48 442.06 431.21 434.93 C 437.14 430.53 443.28 426.40 449.05 421.79 C 441.68 421.70 434.30 421.77 426.93 421.75 C 424.37 414.85 422.85 407.46 419.70 400.86 M 96.23 475.50 C 88.77 475.49 81.32 475.52 73.87 475.47 C 78.99 479.62 84.47 483.32 89.80 487.20 C 90.57 487.90 92.33 488.50 91.56 489.87 C 89.42 496.63 87.18 503.35 84.99 510.09 C 91.30 505.96 97.09 501.07 103.46 497.03 C 109.33 501.47 115.21 505.94 121.39 509.94 C 119.06 502.90 116.78 495.85 114.51 488.80 C 120.31 484.26 126.77 480.49 132.17 475.50 C 124.82 475.47 117.48 475.55 110.13 475.46 C 107.90 468.33 105.51 461.25 103.25 454.13 C 100.80 461.21 98.62 468.39 96.23 475.50 M 476.28 475.51 C 468.82 475.47 461.36 475.55 453.90 475.46 C 459.73 480.22 466.11 484.26 472.01 488.94 C 469.55 495.91 467.45 503.01 465.03 510.00 C 471.27 505.96 477.15 501.38 483.16 497.00 C 489.37 501.22 495.22 505.96 501.51 510.08 C 499.11 503.02 496.89 495.89 494.54 488.81 C 500.31 484.26 506.83 480.55 512.16 475.50 C 504.82 475.45 497.48 475.58 490.15 475.44 C 487.98 468.30 485.52 461.26 483.33 454.13 C 480.83 461.21 478.67 468.39 476.28 475.51 M 229.63 454.83 C 227.43 461.71 225.14 468.57 222.97 475.46 C 215.59 475.56 208.21 475.45 200.83 475.51 C 206.37 480.39 212.74 484.30 218.61 488.79 C 216.36 495.86 213.92 502.88 211.80 509.99 C 217.98 505.86 223.83 501.24 229.94 497.00 C 235.97 501.46 242.08 505.80 248.12 510.26 C 245.85 503.09 243.49 495.95 241.17 488.81 C 247.11 484.31 253.41 480.25 259.14 475.48 C 251.70 475.51 244.27 475.51 236.84 475.49 C 235.09 469.98 233.25 464.50 231.51 458.99 C 230.99 457.55 230.81 455.90 229.63 454.83 M 349.70 475.43 C 342.15 475.59 334.60 475.45 327.05 475.51 C 333.09 479.99 339.24 484.34 345.29 488.83 C 342.96 495.91 340.69 503.01 338.36 510.09 C 344.48 505.88 350.48 501.48 356.42 497.00 C 362.68 501.24 368.65 505.90 374.85 510.23 C 372.47 503.13 370.25 495.98 367.86 488.89 C 373.80 484.27 380.10 480.14 386.01 475.48 C 378.55 475.54 371.09 475.44 363.63 475.54 C 361.18 468.53 359.01 461.43 356.69 454.38 C 354.00 461.26 351.97 468.39 349.70 475.43 Z" />
</g>
<g id="#bd3d44ff">
<path fill="#bd3d44" opacity="1.00" d=" M 546.64 2.65 C 624.17 9.89 700.11 35.33 765.88 77.10 C 749.94 77.73 733.95 77.19 717.99 77.37 C 660.87 77.37 603.75 77.38 546.62 77.36 C 546.63 52.46 546.60 27.55 546.64 2.65 Z" />
<path fill="#bd3d44" opacity="1.00" d=" M 546.62 154.37 C 651.44 154.38 756.26 154.37 861.07 154.37 L 860.74 154.50 C 869.95 163.22 878.04 173.10 886.23 182.78 C 898.91 198.21 910.68 214.40 921.43 231.23 C 796.49 231.26 671.56 231.25 546.62 231.24 C 546.62 205.62 546.62 179.99 546.62 154.37 Z" />
<path fill="#bd3d44" opacity="1.00" d=" M 546.62 308.25 C 684.97 308.25 823.31 308.26 961.66 308.24 C 972.00 333.10 980.33 358.79 986.54 385.00 C 839.90 385.01 693.26 385.00 546.62 385.00 C 546.62 359.42 546.62 333.83 546.62 308.25 Z" />
<path fill="#bd3d44" opacity="1.00" d=" M 546.62 462.13 C 697.27 462.13 847.91 462.14 998.56 462.12 C 999.33 471.82 999.66 481.55 1000.00 491.27 L 1000.00 506.77 C 999.77 517.49 999.36 528.20 998.52 538.88 C 847.90 538.90 697.28 538.79 546.66 538.94 C 546.57 513.33 546.65 487.73 546.62 462.13 Z" />
<path fill="#bd3d44" opacity="1.00" d=" M 14.07 615.99 C 338.19 616.02 662.31 615.99 986.42 616.00 C 980.18 642.20 971.81 667.90 961.45 692.76 C 653.99 692.75 346.52 692.72 39.06 692.78 C 28.68 667.91 20.32 642.20 14.07 615.99 Z" />
<path fill="#bd3d44" opacity="1.00" d=" M 79.40 769.77 C 359.97 769.73 640.55 769.77 921.12 769.75 C 903.48 797.28 883.16 823.11 860.46 846.65 C 620.38 846.61 380.30 846.59 140.22 846.67 L 139.96 846.34 C 117.10 823.12 97.04 797.15 79.40 769.77 Z" />
<path fill="#bd3d44" opacity="1.00" d=" M 235.17 923.82 C 273.10 923.37 311.04 923.75 348.97 923.63 C 487.74 923.70 626.52 923.48 765.29 923.74 C 760.22 927.36 754.71 930.30 749.37 933.49 C 676.78 975.39 593.51 998.32 509.74 1000.00 L 492.30 1000.00 C 401.81 998.51 311.74 972.16 235.17 923.82 Z" />
</g>
<g id="#ffffffff">
<path fill="#ffffff" opacity="1.00" d=" M 349.63 44.74 C 352.02 37.74 353.90 30.55 356.69 23.71 C 359.00 30.70 361.28 37.69 363.50 44.71 C 370.99 44.82 378.49 44.68 385.98 44.78 C 380.02 49.30 373.88 53.57 367.87 58.03 C 370.14 65.03 372.40 72.04 374.72 79.03 C 368.30 75.27 362.67 70.30 356.45 66.22 C 350.50 70.58 344.67 75.17 338.44 79.12 C 340.72 72.09 343.01 65.06 345.29 58.03 C 339.29 53.58 333.14 49.35 327.23 44.78 C 334.70 44.70 342.16 44.78 349.63 44.74 Z" />
<path fill="#ffffff" opacity="1.00" d=" M 476.21 44.79 C 478.78 37.76 480.63 30.49 483.38 23.54 C 485.61 30.62 487.96 37.67 490.22 44.75 C 497.61 44.80 505.01 44.66 512.40 44.82 C 506.69 49.52 500.46 53.57 494.55 58.01 C 496.80 65.13 499.25 72.19 501.41 79.34 C 495.30 75.05 489.32 70.59 483.28 66.22 C 477.18 70.49 471.35 75.15 465.10 79.20 C 467.37 72.14 469.69 65.09 471.97 58.03 C 465.95 53.58 459.82 49.29 453.85 44.78 C 461.30 44.73 468.75 44.72 476.21 44.79 Z" />
<path fill="#ffffff" opacity="1.00" d=" M 240.03 73.58 C 241.56 72.63 243.08 71.67 244.63 70.75 C 246.82 73.06 246.93 76.54 248.08 79.40 C 245.38 77.48 242.70 75.54 240.03 73.58 Z" />
<path fill="#ffffff" opacity="1.00" d=" M 286.31 98.58 C 288.60 91.43 290.84 84.26 293.32 77.17 C 295.44 84.33 297.99 91.36 300.11 98.53 C 307.43 98.75 314.76 98.56 322.09 98.62 C 316.76 103.62 310.29 107.34 304.53 111.87 C 306.72 118.95 309.28 125.91 311.25 133.04 C 305.08 128.90 299.28 124.23 293.11 120.09 C 287.12 124.48 281.22 129.00 275.02 133.10 C 277.39 126.07 279.57 118.97 281.97 111.95 C 276.02 107.40 269.80 103.21 263.87 98.63 C 271.35 98.58 278.83 98.69 286.31 98.58 Z" />
<path fill="#ffffff" opacity="1.00" d=" M 546.62 77.36 C 603.75 77.38 660.87 77.37 717.99 77.37 C 733.95 77.19 749.94 77.73 765.88 77.10 L 766.19 77.07 C 800.79 98.89 832.70 124.92 861.07 154.37 C 756.26 154.37 651.44 154.38 546.62 154.37 C 546.62 128.70 546.62 103.03 546.62 77.36 Z" />
<path fill="#ffffff" opacity="1.00" d=" M 419.68 77.84 C 422.98 84.38 424.22 91.90 427.07 98.70 C 434.43 98.54 441.80 98.64 449.17 98.65 C 443.33 103.26 437.15 107.43 431.20 111.88 C 433.50 119.00 435.88 126.10 438.10 133.25 C 432.03 128.89 425.99 124.50 419.97 120.08 C 413.85 124.36 407.92 128.91 401.79 133.16 C 403.94 126.03 406.35 118.98 408.63 111.89 C 402.75 107.42 396.51 103.39 390.82 98.68 C 398.17 98.57 405.53 98.62 412.89 98.65 C 415.22 91.74 417.41 84.78 419.68 77.84 Z" />
<path fill="#ffffff" opacity="1.00" d=" M 171.60 123.74 C 174.22 121.49 176.83 119.22 179.48 117.01 C 181.26 122.40 183.04 127.80 184.75 133.22 C 180.31 130.14 175.99 126.88 171.60 123.74 Z" />
<path fill="#ffffff" opacity="1.00" d=" M 229.76 131.19 C 232.49 138.16 234.43 145.42 236.89 152.50 C 244.30 152.50 251.70 152.52 259.11 152.48 C 253.34 157.17 247.08 161.24 241.17 165.76 C 243.50 172.89 245.88 180.01 248.09 187.18 C 242.09 182.70 235.96 178.39 229.95 173.92 C 223.88 178.21 217.93 182.65 211.89 186.97 C 213.79 179.79 216.39 172.82 218.61 165.74 C 212.75 161.24 206.45 157.29 200.83 152.50 C 208.19 152.48 215.56 152.52 222.92 152.49 C 225.16 145.37 227.59 138.32 229.76 131.19 Z" />
<path fill="#ffffff" opacity="1.00" d=" M 356.46 131.20 C 359.14 138.18 361.17 145.39 363.54 152.49 C 371.02 152.51 378.51 152.51 386.00 152.49 C 380.01 157.03 373.77 161.23 367.85 165.84 C 370.26 172.91 372.50 180.04 374.81 187.15 C 368.77 182.74 362.67 178.42 356.68 173.93 C 350.47 178.20 344.49 182.81 338.31 187.13 C 340.69 180.03 342.91 172.88 345.30 165.79 C 339.63 161.18 333.08 157.57 327.83 152.51 C 335.13 152.41 342.43 152.66 349.72 152.38 C 351.79 145.27 354.31 138.29 356.46 131.20 Z" />
<path fill="#ffffff" opacity="1.00" d=" M 476.27 152.50 C 478.67 145.38 480.76 138.15 483.36 131.10 C 485.50 138.24 488.03 145.26 490.15 152.41 C 497.49 152.63 504.84 152.42 512.18 152.51 C 506.72 157.41 500.34 161.21 494.56 165.73 C 496.86 172.84 499.18 179.95 501.48 187.06 C 495.27 182.82 489.36 178.16 483.15 173.93 C 477.18 178.43 471.05 182.72 465.03 187.16 C 466.95 181.12 468.91 175.09 470.91 169.08 C 471.10 167.91 472.06 166.69 471.63 165.49 C 465.78 161.09 459.69 156.98 453.92 152.47 C 461.37 152.53 468.82 152.48 476.27 152.50 Z" />
<path fill="#ffffff" opacity="1.00" d=" M 117.34 178.74 C 117.79 178.94 118.67 179.34 119.12 179.55 C 119.80 182.07 120.60 184.56 121.40 187.06 C 119.15 185.50 116.92 183.90 114.73 182.26 C 115.64 181.12 116.47 179.91 117.34 178.74 Z" />
<path fill="#ffffff" opacity="1.00" d=" M 286.24 206.27 C 288.70 199.20 290.72 191.99 293.32 184.98 C 295.53 192.08 297.94 199.12 300.15 206.22 C 307.68 206.29 315.21 206.23 322.74 206.25 C 316.75 210.83 310.51 215.07 304.51 219.64 C 306.89 226.71 309.15 233.82 311.46 240.92 C 305.27 236.66 299.34 232.03 293.15 227.78 C 287.16 232.25 281.04 236.53 275.07 241.02 C 277.17 233.77 279.80 226.68 281.90 219.43 C 275.77 215.14 269.73 210.73 263.74 206.25 C 271.24 206.25 278.74 206.24 286.24 206.27 Z" />
<path fill="#ffffff" opacity="1.00" d=" M 419.86 185.00 C 422.38 192.00 424.51 199.14 426.85 206.20 C 434.35 206.32 441.85 206.22 449.35 206.24 C 443.42 210.82 437.29 215.11 431.23 219.50 C 433.42 226.68 435.91 233.76 438.10 240.93 C 432.02 236.59 425.99 232.17 419.95 227.78 C 413.92 232.06 407.97 236.47 401.97 240.80 C 403.76 233.61 406.44 226.68 408.64 219.61 C 402.63 215.08 396.41 210.84 390.46 206.25 C 397.95 206.24 405.45 206.26 412.95 206.25 C 415.27 199.17 417.55 192.08 419.86 185.00 Z" />
<path fill="#ffffff" opacity="1.00" d=" M 166.41 185.13 C 169.30 192.02 170.93 199.38 173.68 206.33 C 181.15 206.15 188.62 206.29 196.09 206.25 C 190.08 210.67 184.09 215.12 177.96 219.36 C 179.90 226.68 182.59 233.77 184.80 241.01 C 178.64 236.64 172.66 232.00 166.39 227.79 C 160.45 232.29 154.37 236.60 148.33 240.96 C 150.46 234.26 152.67 227.59 154.84 220.91 C 155.82 219.37 153.90 218.66 153.00 217.89 C 147.69 214.03 142.30 210.27 137.11 206.26 C 144.62 206.20 152.13 206.33 159.65 206.19 C 161.82 199.14 164.24 192.18 166.41 185.13 Z" />
<path fill="#ffffff" opacity="1.00" d=" M 546.62 231.24 C 671.56 231.25 796.49 231.26 921.43 231.23 C 937.04 255.67 950.52 281.47 961.66 308.24 C 823.31 308.26 684.97 308.25 546.62 308.25 C 546.62 282.58 546.62 256.91 546.62 231.24 Z" />
<path fill="#ffffff" opacity="1.00" d=" M 229.75 239.02 C 232.56 245.88 234.42 253.10 236.84 260.11 C 244.34 260.15 251.84 260.10 259.34 260.13 C 253.36 264.66 247.23 268.98 241.17 273.39 C 243.45 280.54 245.91 287.63 248.04 294.82 C 242.01 290.38 235.94 286.00 229.88 281.61 C 223.80 286.03 217.74 290.46 211.63 294.84 C 214.00 287.75 216.16 280.60 218.64 273.55 C 212.81 268.89 206.41 264.97 200.72 260.15 C 208.11 260.09 215.51 260.14 222.91 260.12 C 225.20 253.09 227.52 246.07 229.75 239.02 Z" />
<path fill="#ffffff" opacity="1.00" d=" M 356.50 238.82 C 359.07 245.71 361.00 252.82 363.48 259.74 C 370.81 260.68 378.59 259.80 386.09 260.17 C 380.03 264.56 373.99 268.99 367.90 273.34 C 370.09 280.54 372.56 287.66 374.80 294.84 C 368.61 290.49 362.68 285.76 356.34 281.64 C 350.47 286.20 344.35 290.43 338.35 294.82 C 340.62 287.65 343.04 280.53 345.26 273.35 C 339.19 268.98 333.11 264.61 327.11 260.14 C 334.64 260.05 342.16 260.24 349.69 260.04 C 351.86 252.93 354.29 245.91 356.50 238.82 Z" />
<path fill="#ffffff" opacity="1.00" d=" M 476.23 260.15 C 478.77 253.12 480.62 245.85 483.40 238.92 C 485.56 246.01 487.99 253.01 490.18 260.08 C 497.71 260.17 505.23 260.10 512.76 260.12 C 506.86 264.61 500.72 268.77 494.83 273.27 C 496.37 280.48 499.44 287.56 501.44 294.77 C 495.33 290.44 489.33 285.96 483.24 281.61 C 477.23 286.05 471.11 290.35 465.13 294.83 C 467.20 287.62 469.75 280.55 471.96 273.38 C 465.89 268.99 459.81 264.60 453.78 260.15 C 461.26 260.10 468.75 260.11 476.23 260.15 Z" />
<path fill="#ffffff" opacity="1.00" d=" M 96.22 260.12 C 98.77 253.14 100.43 245.80 103.44 239.01 C 105.48 246.11 107.97 253.07 110.17 260.12 C 117.67 260.14 125.17 260.10 132.68 260.14 C 126.68 264.73 120.37 268.90 114.46 273.59 C 116.96 280.62 119.10 287.77 121.47 294.84 C 115.35 290.47 109.31 285.98 103.19 281.61 C 97.13 286.03 91.05 290.42 85.00 294.85 C 87.22 287.66 89.68 280.55 91.90 273.37 C 85.83 268.99 79.76 264.60 73.73 260.16 C 81.23 260.08 88.72 260.14 96.22 260.12 Z" />
<path fill="#ffffff" opacity="1.00" d=" M 159.66 313.93 C 161.92 306.88 164.01 299.76 166.62 292.82 C 168.91 299.82 171.30 306.79 173.37 313.86 C 180.88 314.19 188.40 313.87 195.91 314.04 C 189.97 318.56 183.84 322.83 177.83 327.26 C 180.15 334.39 182.49 341.52 184.78 348.67 C 178.71 344.29 172.63 339.93 166.64 335.46 C 160.49 339.75 154.51 344.29 148.37 348.61 C 150.56 341.44 153.06 334.36 155.23 327.18 C 149.13 322.85 143.11 318.43 137.08 314.01 C 144.60 313.94 152.13 314.09 159.66 313.93 Z" />
<path fill="#ffffff" opacity="1.00" d=" M 286.18 314.06 C 288.75 307.02 290.57 299.72 293.39 292.77 C 295.54 299.88 297.96 306.90 300.20 313.98 C 307.70 314.03 315.20 313.97 322.70 314.02 C 316.69 318.57 310.40 322.76 304.49 327.43 C 306.94 334.43 309.14 341.51 311.41 348.57 C 305.26 344.32 299.32 339.78 293.21 335.47 C 287.21 339.86 281.15 344.19 275.17 348.62 C 277.14 341.42 279.71 334.40 281.96 327.28 C 275.95 322.84 269.86 318.52 263.85 314.08 C 271.29 313.93 278.74 313.97 286.18 314.06 Z" />
<path fill="#ffffff" opacity="1.00" d=" M 419.79 292.92 C 422.61 299.76 424.45 307.00 426.89 314.00 C 434.37 314.03 441.84 313.93 449.32 314.05 C 443.32 318.52 437.21 322.83 431.19 327.28 C 433.45 334.40 436.01 341.44 437.99 348.64 C 432.02 344.17 425.93 339.87 419.93 335.45 C 413.85 339.81 407.87 344.30 401.74 348.59 C 403.90 341.38 406.51 334.33 408.56 327.09 C 402.44 322.87 396.48 318.42 390.49 314.03 C 397.97 313.96 405.46 314.02 412.94 314.00 C 415.22 306.97 417.50 299.95 419.79 292.92 Z" />
<path fill="#ffffff" opacity="1.00" d=" M 24.77 346.36 C 29.86 330.68 35.69 315.24 42.30 300.14 C 43.87 304.74 45.32 309.38 46.85 314.00 C 54.35 314.02 61.85 313.97 69.35 314.02 C 63.30 318.45 57.21 322.83 51.16 327.25 C 53.44 334.39 55.82 341.50 58.07 348.65 C 51.97 344.30 45.94 339.84 39.87 335.46 C 34.83 339.08 29.85 342.79 24.77 346.36 Z" />
<path fill="#ffffff" opacity="1.00" d=" M 96.23 367.87 C 98.71 360.90 100.41 353.61 103.40 346.86 C 105.62 353.87 107.94 360.86 110.18 367.87 C 117.59 367.92 125.00 367.79 132.41 367.94 C 126.58 372.51 120.46 376.69 114.50 381.09 C 116.75 388.20 119.18 395.25 121.35 402.39 C 115.20 398.15 109.28 393.59 103.16 389.31 C 97.12 393.58 91.33 398.25 85.08 402.21 C 87.35 395.19 89.60 388.16 91.94 381.16 C 86.00 376.72 79.94 372.45 73.98 368.05 C 81.39 367.64 88.82 367.99 96.23 367.87 Z" />
<path fill="#ffffff" opacity="1.00" d=" M 229.72 346.86 C 232.69 353.62 234.38 360.92 236.90 367.87 C 244.29 367.96 251.70 367.70 259.10 368.01 C 253.21 372.51 247.06 376.67 241.18 381.19 C 243.51 388.24 245.83 395.30 248.04 402.38 C 241.90 398.16 235.96 393.65 229.90 389.30 C 223.83 393.66 217.83 398.13 211.73 402.44 C 213.91 395.28 216.35 388.21 218.59 381.07 C 212.64 376.70 206.55 372.52 200.73 367.97 C 208.11 367.75 215.51 367.93 222.90 367.87 C 225.18 360.87 227.46 353.87 229.72 346.86 Z" />
<path fill="#ffffff" opacity="1.00" d=" M 356.49 346.56 C 359.06 353.56 361.23 360.69 363.46 367.80 C 370.95 367.99 378.44 367.78 385.92 367.91 C 379.97 372.41 373.85 376.68 367.86 381.12 C 370.15 388.15 372.46 395.18 374.71 402.23 C 368.45 398.23 362.65 393.57 356.58 389.29 C 350.49 393.70 344.44 398.16 338.32 402.52 C 340.65 395.38 342.99 388.25 345.28 381.09 C 339.30 376.69 333.20 372.46 327.32 367.93 C 334.75 367.79 342.18 367.93 349.61 367.85 C 351.87 360.74 354.23 353.67 356.49 346.56 Z" />
<path fill="#ffffff" opacity="1.00" d=" M 476.26 367.88 C 478.72 360.84 480.62 353.59 483.39 346.67 C 485.63 353.74 487.96 360.79 490.24 367.85 C 497.57 367.93 504.89 367.78 512.22 367.94 C 506.67 372.73 500.40 376.63 494.57 381.08 C 496.81 388.21 499.22 395.29 501.45 402.43 C 495.28 398.17 489.34 393.59 483.19 389.30 C 477.19 393.64 471.33 398.20 465.14 402.25 C 467.35 395.18 469.71 388.16 471.98 381.11 C 465.98 376.72 459.93 372.40 453.96 367.97 C 461.39 367.76 468.82 367.92 476.26 367.88 Z" />
<path fill="#ffffff" opacity="1.00" d=" M 546.62 385.00 C 693.26 385.00 839.90 385.01 986.54 385.00 C 992.55 410.34 996.56 436.15 998.56 462.12 C 847.91 462.14 697.27 462.13 546.62 462.13 C 546.62 436.42 546.62 410.71 546.62 385.00 Z" />
<path fill="#ffffff" opacity="1.00" d=" M 39.71 400.75 C 42.66 407.52 44.39 414.79 46.87 421.75 C 54.24 421.76 61.61 421.72 68.98 421.77 C 63.26 426.45 57.05 430.51 51.14 434.95 C 53.46 442.06 55.80 449.16 58.06 456.29 C 51.93 452.00 45.94 447.53 39.89 443.14 C 33.81 447.49 27.83 451.98 21.71 456.26 C 23.89 449.12 26.32 442.06 28.57 434.93 C 23.43 431.24 18.36 427.45 13.18 423.81 C 12.42 423.20 11.34 422.73 11.18 421.66 C 18.40 421.85 25.62 421.70 32.84 421.76 C 35.18 414.77 37.38 407.74 39.71 400.75 Z" />
<path fill="#ffffff" opacity="1.00" d=" M 166.36 400.77 C 169.40 407.47 171.05 414.77 173.52 421.72 C 180.91 421.81 188.30 421.68 195.69 421.79 C 189.93 426.42 183.75 430.50 177.85 434.96 C 180.12 442.04 182.46 449.11 184.74 456.19 C 178.54 452.06 172.64 447.50 166.60 443.15 C 160.45 447.32 154.75 452.19 148.38 456.00 C 150.75 449.00 152.97 441.97 155.26 434.95 C 149.32 430.53 143.19 426.37 137.37 421.79 C 144.77 421.69 152.16 421.78 159.56 421.75 C 161.81 414.75 164.11 407.77 166.36 400.77 Z" />
<path fill="#ffffff" opacity="1.00" d=" M 286.22 421.75 C 288.74 414.79 290.43 407.49 293.41 400.72 C 295.67 407.73 297.96 414.73 300.22 421.75 C 307.56 421.89 314.91 421.46 322.23 421.97 C 316.44 426.46 310.39 430.59 304.52 434.96 C 306.75 442.04 309.27 449.04 311.29 456.18 C 305.08 452.12 299.38 447.05 293.03 443.38 C 286.94 447.54 281.13 452.12 275.03 456.28 C 277.31 449.18 279.62 442.08 281.96 434.99 C 275.98 430.52 269.86 426.25 263.89 421.77 C 271.33 421.72 278.78 421.76 286.22 421.75 Z" />
<path fill="#ffffff" opacity="1.00" d=" M 419.70 400.86 C 422.85 407.46 424.37 414.85 426.93 421.75 C 434.30 421.77 441.68 421.70 449.05 421.79 C 443.28 426.40 437.14 430.53 431.21 434.93 C 433.48 442.06 435.85 449.15 438.12 456.28 C 431.97 452.02 426.00 447.51 419.93 443.15 C 413.84 447.49 407.89 452.00 401.75 456.26 C 403.95 449.12 406.37 442.05 408.62 434.93 C 402.68 430.58 396.64 426.35 390.78 421.89 C 398.14 421.57 405.52 421.82 412.89 421.76 C 415.20 414.81 417.44 407.83 419.70 400.86 Z" />
<path fill="#ffffff" opacity="1.00" d=" M 96.23 475.50 C 98.62 468.39 100.80 461.21 103.25 454.13 C 105.51 461.25 107.90 468.33 110.13 475.46 C 117.48 475.55 124.82 475.47 132.17 475.50 C 126.77 480.49 120.31 484.26 114.51 488.80 C 116.78 495.85 119.06 502.90 121.39 509.94 C 115.21 505.94 109.33 501.47 103.46 497.03 C 97.09 501.07 91.30 505.96 84.99 510.09 C 87.18 503.35 89.42 496.63 91.56 489.87 C 92.33 488.50 90.57 487.90 89.80 487.20 C 84.47 483.32 78.99 479.62 73.87 475.47 C 81.32 475.52 88.77 475.49 96.23 475.50 Z" />
<path fill="#ffffff" opacity="1.00" d=" M 476.28 475.51 C 478.67 468.39 480.83 461.21 483.33 454.13 C 485.52 461.26 487.98 468.30 490.15 475.44 C 497.48 475.58 504.82 475.45 512.16 475.50 C 506.83 480.55 500.31 484.26 494.54 488.81 C 496.89 495.89 499.11 503.02 501.51 510.08 C 495.22 505.96 489.37 501.22 483.16 497.00 C 477.15 501.38 471.27 505.96 465.03 510.00 C 467.45 503.01 469.55 495.91 472.01 488.94 C 466.11 484.26 459.73 480.22 453.90 475.46 C 461.36 475.55 468.82 475.47 476.28 475.51 Z" />
<path fill="#ffffff" opacity="1.00" d=" M 229.63 454.83 C 230.81 455.90 230.99 457.55 231.51 458.99 C 233.25 464.50 235.09 469.98 236.84 475.49 C 244.27 475.51 251.70 475.51 259.14 475.48 C 253.41 480.25 247.11 484.31 241.17 488.81 C 243.49 495.95 245.85 503.09 248.12 510.26 C 242.08 505.80 235.97 501.46 229.94 497.00 C 223.83 501.24 217.98 505.86 211.80 509.99 C 213.92 502.88 216.36 495.86 218.61 488.79 C 212.74 484.30 206.37 480.39 200.83 475.51 C 208.21 475.45 215.59 475.56 222.97 475.46 C 225.14 468.57 227.43 461.71 229.63 454.83 Z" />
<path fill="#ffffff" opacity="1.00" d=" M 349.70 475.43 C 351.97 468.39 354.00 461.26 356.69 454.38 C 359.01 461.43 361.18 468.53 363.63 475.54 C 371.09 475.44 378.55 475.54 386.01 475.48 C 380.10 480.14 373.80 484.27 367.86 488.89 C 370.25 495.98 372.47 503.13 374.85 510.23 C 368.65 505.90 362.68 501.24 356.42 497.00 C 350.48 501.48 344.48 505.88 338.36 510.09 C 340.69 503.01 342.96 495.91 345.29 488.83 C 339.24 484.34 333.09 479.99 327.05 475.51 C 334.60 475.45 342.15 475.59 349.70 475.43 Z" />
<path fill="#ffffff" opacity="1.00" d=" M 1.11 475.48 C 2.76 475.49 4.41 475.50 6.05 475.52 C 4.35 476.77 2.65 478.02 0.93 479.26 C 0.99 477.99 1.05 476.73 1.11 475.48 Z" />
<path fill="#ffffff" opacity="1.00" d=" M 1.99 539.00 C 183.55 538.95 365.11 539.09 546.66 538.94 C 697.28 538.79 847.90 538.90 998.52 538.88 C 996.50 564.85 992.45 590.66 986.42 616.00 C 662.31 615.99 338.19 616.02 14.07 615.99 C 8.06 590.69 4.01 564.93 1.99 539.00 Z" />
<path fill="#ffffff" opacity="1.00" d=" M 39.06 692.78 C 346.52 692.72 653.99 692.75 961.45 692.76 C 950.26 719.52 936.77 745.33 921.12 769.75 C 640.55 769.77 359.97 769.73 79.40 769.77 C 63.74 745.35 50.25 719.54 39.06 692.78 Z" />
<path fill="#ffffff" opacity="1.00" d=" M 140.22 846.67 C 380.30 846.59 620.38 846.61 860.46 846.65 C 832.16 876.15 800.16 902.06 765.56 923.81 L 765.36 922.74 L 765.29 923.74 C 626.52 923.48 487.74 923.70 348.97 923.63 C 311.04 923.75 273.10 923.37 235.17 923.82 C 200.47 902.23 168.36 876.31 140.22 846.67 Z" />
</g>
</svg>
