<svg version="1.1" id="Layer_2" xmlns="http://www.w3.org/2000/svg" x="0" y="0" viewBox="0 0 400 100" style="enable-background:new 0 0 400 100" xml:space="preserve"><style>.st0{fill:#0f2d52}</style><g id="Group"><path id="_5" class="st0" d="M165.6 97.7c-2.2-.1-4-1.8-4.1-4V16.3c.2-3-2.1-5.5-5.1-5.7h-20.1c-1.9 0-3.8-2.1-3.8-4.2s1.7-3.9 3.8-4.1h58c2.2.1 4 1.9 3.9 4.1.1 2.2-1.6 4.1-3.8 4.2h-25v83.1c-.1 2.1-1.7 3.8-3.8 4"/><path id="_4" class="st0" d="M218.3 97.7c-2.2-.1-3.9-1.8-3.9-4V6.4c.1-2.1 1.8-3.8 3.9-3.9h49.8c2.1.1 3.8 1.8 3.9 3.9 0 2.2-1.7 4-3.9 4.2h-39.7c-2.8 0-6 1.7-6 6.4v23.5h40.8c2.3 0 4.1 1.8 4.1 4.1s-1.8 4.1-4.1 4.1h-40.8v45c-.1 2.2-1.9 4-4.1 4"/><path id="_3" class="st0" d="M353.5 91.2 330.7 56c-1.1-1.9-1.6-4-1.5-6.1 0-2.6.7-5.1 2.1-7.3l22.2-34.3c1.1-1.7.7-4-.9-5.3-1.8-1.3-4.4-.9-5.7.9-.1.1-.2.3-.3.4l-24.7 38.2-24.8-38.2c-1-1.9-3.5-2.7-5.4-1.6-.1.1-.3.1-.4.2-1.7 1.3-2.1 3.6-1.1 5.5l26.9 41.4-26.8 41.4c-1.5 1.7-1.3 4.2.4 5.6s4.2 1.3 5.6-.4l.6-.9 25-38.5 25 38.5c1.3 1.8 3.7 2.4 5.6 1.3 2.1-1.3 1.9-4 1-5.6"/><path id="_2" class="st0" d="M124.2 97.7c-1.5 0-2.9-1-3.5-2.4L91.4 25.9c-.7-1.4-2.1-2.3-3.7-2.4-1.7 0-3.3 1.2-4.3 3.3L54.7 95.4s-1.3 3.1-5.2 1.9c-2.4-.7-2.8-3.5-2.2-5L84.1 4.9c.6-1.5 2.1-2.5 3.7-2.5 1.7.1 3.1 1.2 3.7 2.8L128 92.3c.4 1 .4 2 0 3-.4.9-1.1 1.6-2 2-.6.3-1.2.4-1.8.4"/><path id="_1" d="M50.3 67.6c-2.4 0-4.4-2-4.4-4.4 0-2.4 2-4.4 4.4-4.4h55l3.7 8.8H50.3z" style="fill:#f2672a"/></g></svg>