<svg xmlns="http://www.w3.org/2000/svg" viewBox="0 0 850 220" style="enable-background:new 0 0 850 220" xml:space="preserve"><path d="M83.7 36.3c17.5-2.2 35.1-7 49.8-17.1 0 5.4.9 10.9-.2 16.3-12 7.7-26.5 10.7-40.6 11.1-24.5 1-48.8-6.1-70.2-17.5 19.9 5.1 40.5 8.2 61.2 7.2zm445.1 29.9c1.8 0 3.6.1 5.4.1 11.5 24.4 23.4 48.7 34.9 73.2-2 0-4.1.1-6.1.1-3.2-6.8-6.4-13.6-9.6-20.3H509c-3.1 6.8-6.3 13.6-9.5 20.3h-5.8c11.6-24.5 23.2-49 35.1-73.4m-17.3 48.1c13.1.1 26.3 0 39.4 0-6.5-13.9-13.1-27.8-19.6-41.8-6.7 13.9-13.2 27.9-19.8 41.8zM806.7 67c13.1-3.6 27.7-.7 38.2 7.9-1.2 1.4-2.3 2.8-3.5 4.2-4.2-2.9-8.6-5.9-13.6-7.3-10.1-2.8-21.8-1.6-30 5.3-12.9 10.2-15.2 30.1-7.3 44 4.9 8.6 14.5 14 24.2 14.6 9.7 1 19.4-2.3 27.3-7.8v-21.2c-8.4 0-16.8-.1-25.2 0v-5c10.2-.1 20.4 0 30.6-.1v28.2c-7.8 5.9-17 10.4-26.9 10.7-10.4.7-21.4-2.3-29.2-9.5-12-11.2-14.6-30.4-7.5-44.9 4.5-9.1 13.1-16.2 22.9-19.1zm-459.4-.2h58.1v5h-26.2v67.8h-5.7c-.1-22.6 0-45.2 0-67.8-8.7 0-17.4-.1-26.2.1v-5.1zm75 0c10.5 0 20.9-.1 31.4 0 7.5.1 15.5 1.7 21.2 7 7.9 7 8.1 20.6.3 27.7-4.3 4.3-10.4 5.9-16.2 7.2 8.3 10.3 16.6 20.6 24.7 31-2.9-.4-6.8.9-8.7-2-6.9-8.5-13.6-17.1-20.4-25.7-1.1-1.2-2.2-2.8-4-2.6-7.5-.2-15.1.1-22.6-.1.1 10 0 20.1.1 30.1-1.9 0-3.8 0-5.7.1-.1-24.2-.2-48.5-.1-72.7m5.6 5v32.8c8.6-.1 17.2 0 25.8 0 6.2-.1 12.9-1.6 17.4-6.2 5.6-5.6 5.6-16-.4-21.3-4.6-4.1-11-5.1-16.9-5.2-8.7-.2-17.3-.1-25.9-.1zm157.1-5c10.5.2 21-.5 31.5.4 10.5 1.2 20.7 6.3 27 14.9 9.3 12.5 8.9 31.4-1.2 43.4-7.4 9-19.1 13.7-30.6 14-8.9.1-17.8-.1-26.8.1.1-24.3 0-48.5.1-72.8m5.7 5c-.3 20.9-.3 41.9 0 62.8 7.3-.1 14.6.1 21.9-.1 9.6-.4 19.3-4.5 25.3-12.2 7.5-9.5 8.3-23.5 2.5-34-3.7-6.9-10.3-12-17.6-14.4-10.4-3.4-21.4-1.7-32.1-2.1zm79.2-5h5.6v72.8h-5.6c0-24.3-.1-48.5 0-72.8zm28.6 0c1.8 0 3.5-.1 5.3-.1 17.4 20.9 34.3 42.1 51.9 62.9.3-20.9 0-41.9.2-62.8h5.4c-.1 24.4.1 48.8-.1 73.2-2.1-.5-4.6-.6-5.9-2.5-17-20.9-34.2-41.6-51.2-62.5.1 21.5 0 43 0 64.6h-5.6c0-24.3-.1-48.5 0-72.8z" style="fill:#e0c038"/><path d="M5.6 100.7C1.1 78.2.5 54 9.5 32.4c16.2 17.2 38 28.3 60.9 33.1.1 11.7.1 23.5.1 35.2-21.6 0-43.3.2-64.9 0zm79.3-32.6c22.2 2.5 44.9 1.3 66.7-3.7-1.7 12.4-4.9 24.6-9.1 36.4-19.2.1-38.4 0-57.6 0V68.1zm114 3.1c9.8-6.2 22.3-7.1 33.3-3.9 6.2 1.8 11.5 5.7 16.4 9.8l-4.1 4.1c-5.4-4.8-11.7-8.9-19-10.1-10.7-2.1-22.6 1.3-29.8 9.7-11.2 12.4-10.8 33.3.9 45.2 6.8 7.4 17.2 10.7 27.1 9.4 8.3-.6 15.5-5.5 21.5-11 1.3 1.2 2.6 2.5 4 3.7-5.8 5.4-12.6 10.1-20.5 11.8-11.8 2.7-24.9.2-34.2-7.7-12.1-9.9-16.1-27.8-10.7-42.2 2.8-7.7 8-14.5 15.1-18.8zm65.2-4.5h5.4c10 14.3 20.1 28.6 30.2 42.9 10-14.3 20.2-28.4 30-42.8 1.8 0 3.7-.1 5.5-.1-.1 24.3.1 48.7 0 73h-5.9c0-21 .1-41.9 0-62.9-10 14-19.8 28-29.8 41.9-10-13.8-19.7-27.9-29.7-41.7-.1 20.9 0 41.7-.1 62.6H264c0-24.2.2-48.5.1-72.9zM9.5 115.1c20.3-.5 40.7-.2 61-.2.2 23.6.1 47.3.1 70.9-12.4 6.5-25.5 12.2-39.4 14.6-2.8.1-6.9 1.4-8.4-1.8 0-2.5.8-4.9 1.4-7.3 4-16.2 3-33.8-4-49-4.2-8.8-7.9-17.9-10.7-27.2zm75.3-.1c17.2-.4 34.4-.1 51.6-.2-11.2 24.9-28.7 47.2-51.6 62.3-.1-20.7.1-41.4 0-62.1z" style="fill:#0a76bf"/></svg>