<svg xmlns="http://www.w3.org/2000/svg" viewBox="0 0 800 320" style="enable-background:new 0 0 800 320" xml:space="preserve"><path d="M195.1 6.3c11.1-2.5 22.6-2.3 34-1.8 18.8 1.6 37.1 6.7 55.1 12 .8 2.6.4 5.4.5 8-.2 10 .3 20-.3 29.9-11-3.5-22.1-6.5-33.4-9.1-9.5-2.3-19.1-4.4-28.9-4.6-12.2.2-25.2 2.9-34.5 11.4-9.9 8.7-14.5 21.8-16.4 34.5-2 13.6-1.9 27.5.4 41 2.1 10.7 5.7 21.8 13.7 29.7 11 11.9 28.4 14.6 43.8 13.3 14.5-1.4 28.5-5.7 42.5-9.4 4.4-1.1 8.6-3 13.1-3.5v34.8c-.1 1.1.2 2.8-1.2 3.2-22.6 6.3-45.7 13.1-69.4 12.6-16-.8-32.4-4-46.4-12.2-16.4-9.1-28.5-24.8-34.6-42.4-5.2-13.7-7.1-28.5-7.6-43.1-.4-23.8 3.3-48.8 16.6-69.1 11.7-18.5 31.6-31.2 53-35.2zm273.1 3.8c6.7-2.2 13.5-4.2 20.4-5.4.2 63 .1 126 .1 189 .3 6.8-6 12.4-12.6 12-10.6-.2-21.2.4-31.8-.3-.1-54.9 0-109.9 0-164.8-.1-5.5.9-11.2 3.8-16 4.3-7.6 12.2-11.9 20.1-14.5zm103-.4c20.1-7.2 42.1-6.8 62.8-2.8 13 2.2 25.6 6.3 38.3 9.5.6 6.4.2 12.8.3 19.1-.1 6.3.3 12.6-.3 18.9-11.6-4-23.5-7.2-35.5-9.8-15.4-3.9-32.1-6.3-47.4-.7-10.9 3.5-19.8 12.1-24.4 22.5-6.9 14.9-7.7 31.8-7 48 1.1 15.2 4.3 31.6 15.2 43 9.5 10.3 24.2 13.8 37.8 13.4 10.8 0 21.5-2.6 31.9-5.1 9.8-2.7 19.6-5.3 29.3-8.3.6 12.5.3 25.1.3 37.6-17.5 5.4-35.3 10.2-53.5 12.4-17.7 1.5-36 .4-52.7-6.3-16-6.1-29.8-17.8-38.4-32.6-10.4-17.4-13.8-38-14.7-58-.3-19.5 2.2-39.5 10.3-57.4 9.2-20.2 26.7-36.6 47.7-43.4zM314.9 24c10.4 2.5 21.2 4.8 30.6 10.2 6.1 3.5 10.8 9.5 12.4 16.4 1.4 4.9 1.1 10 1.1 15v128c.3 6.4-5.3 12-11.6 11.9-10.9 0-21.9.4-32.8-.2-.1-53.2 0-106.5 0-159.7.1-7.2-.5-14.4.3-21.6zm64.8-.1c7.5 1.4 14.8 3.6 22.1 6.1 7 2.5 13.8 6.6 17.8 13.1 3.3 4.8 4.1 10.8 4.3 16.4v133c.3 4.4-1.8 8.8-5.4 11.2-4.7 2.5-10.2 1.7-15.3 1.8-7.9-.2-15.8.4-23.7-.3-.1-54.6 0-109.2-.1-163.8.1-5.7-.3-11.6.3-17.5zm114.6 225.8c3.5-.3 7-.6 10.5 0 .6 11.4 0 22.9.3 34.3 5.7-6.4 11.3-12.9 17.1-19.2 4.3 0 8.5-.1 12.8.3-4 6.5-10.7 10.8-14.4 17.4 3.7 6.5 7.5 13 11.3 19.5 2.5 4.3 5.4 8.4 7.2 13.1-4 .2-8.2.7-12.2 0-5.4-7.6-9.9-15.8-15-23.5-2.5 2.7-6.1 5-6.5 9-.6 4.9-.1 9.9-.4 14.8-3.5.1-6.9.1-10.4-.1-.6-22-.2-43.8-.3-65.6zm104.3 0c3.7-.5 7.4-.5 11.1 0v15c4.4 0 8.8 0 13.2.1.1 3 .1 5.9 0 8.9h-13.2c0 8.6-.1 17.2 0 25.9 0 2.6.9 5.8 3.7 6.5 4 1 8-.2 11.9-1.2.2 2.9.7 5.8-.1 8.6-7 3.1-16.2 3.3-22.2-1.8-3.7-3.7-4.4-9.1-4.5-14.1v-23.9c-2.3 0-4.6 0-6.9.1-.3-3-.4-5.9-.2-8.9 2.3-.1 4.7-.1 7.1-.1.1-5.1.1-10.1.1-15.1zm-460.9 21.4c4.4-5.5 11.8-7.3 18.5-7.2 5.4.5 10.7 1.7 15.8 3.4-.5 3.2 1.1 7.1-.7 9.8-6.6-1.4-13.2-4.4-20.1-2.6-4.6 1.4-7.1 6.2-7.9 10.7-1.1 4.8-.3 9.9 1.6 14.4 1.6 4 6.1 6.2 10.2 6.2 5.8.2 11.2-2.2 16.8-3.2 0 3.3.1 6.7.1 10-8.5 2.3-17.5 4.9-26.1 1.9-8.6-2.7-13.4-11.6-14.2-20.1-.3-8 0-17.1 6-23.3zm48.5-3.6c6.6-3.1 14.2-3.6 21.4-3.1 3.3.2 6.3 1.8 9 3.5 7.6-3.4 16.5-5.1 24.6-2.4 6.2 2.1 9.9 8.6 9.7 14.9 0 11.5.3 23-.2 34.5-3.6.4-7.3.5-11 .2-.1-10.9 0-21.7 0-32.6 0-2.9-.7-6.6-3.8-7.7-4.6-1.6-9.8-.5-14.2 1.2 1 13 .4 26.1.4 39.2-3.5.1-7 .1-10.5-.2-.5-10.8 0-21.7-.2-32.5-.1-3.1-1.1-6.7-4.2-7.9-4.5-1.2-9.3-.5-13.7.8-.4 13.3.2 26.5-.3 39.8-3.5.1-7 .1-10.4-.1-.6-13.2-.1-26.4-.3-39.6-.5-3.1.5-6.7 3.7-8zm92.7-3c7.1-.7 14.6.3 21.2 3.1 1.2 3 .3 6.3.3 9.4-7.4-1.4-15.2-5.2-22.6-1.9-5.8 3-6.4 10.5-6.2 16.3-.1 5.4 2 12.1 7.7 13.7 7 1.9 14.1-.6 20.7-2.6.7 3.1.7 6.2.7 9.4-8.7 3.6-19 5.3-28 1.9-7.4-2.8-11.7-10.6-12.5-18.2-.8-7.7-.5-16.2 4.3-22.7 3.2-4.8 8.8-7.5 14.4-8.4zm53.4 2.3c9.3-3 20.2-4.2 29 1 8.6-3.3 18.9-5.6 27.5-.8 5.9 3.6 7.1 11.2 6.9 17.5-.2 10.2.4 20.4-.4 30.5-3.5.3-7.1.3-10.6 0-.6-11.2 0-22.4-.3-33.5.1-2.9-1.7-5.8-4.4-7-4.6-1-9.4-.2-13.8 1.4 1.1 5.8.6 11.8.7 17.7-.1 7.2.2 14.3-.2 21.5-3.5.2-6.9.3-10.4.2-1.4-11.7 0-23.6-.8-35.3-.3-2.9-2.4-5.3-5.3-5.6-4.1-.4-8.6-.4-12.3 1.6.1 13.1.4 26.2-.1 39.2-3.5.2-6.9.2-10.4.1-.6-13.5.1-27-.4-40.4-.4-3.7 1.8-7.2 5.3-8.1zm82.2-.7c7.3-2 15.1-2.4 22.5-1.1 4.1 1.2 8.3 3.7 9.7 8 1.7 4 1.3 8.4 1.3 12.6-.1 6.7.1 13.3 0 20 0 4.1-3.3 7.5-7.1 8.6-4.8 1.2-9.8 1.6-14.7 1.6-5.8-.1-12.1-.6-16.9-4.3-7.4-5.4-6.7-18.9 1.5-23.2 8-4.8 17.7-3.1 26.6-3.6-.1-3.5.5-8.3-3.4-10.1-7.1-2.5-14.8-.1-21.8 1.9-.4-3.4-2.2-9.5 2.3-10.4m5.6 27.3c-4.8 1.1-7 7.9-3.1 11.3 4 2.9 9.4 2 14.1 2.1 2.1-.4 5.2.2 6.1-2.2.4-3.9.1-7.9.1-11.8-5.7.2-11.6-.7-17.2.6zm227.6-29c7-.6 14.4-.2 21 2.4.7 3.2.3 6.4.1 9.6-6.6-2-13.6-4.4-20.4-2.6-4.5.8-6.3 8.2-1.6 10 7.8 2.7 17.5.9 24 7.1 6.8 6.5 3.7 19.1-4.8 22.6-10 4-21.4 2.2-31.6-.5-.2-3.2-.2-6.4.3-9.5 7.7 2.6 16.1 4.3 24.2 2.8 4.2-.4 6.5-6.8 2.9-9.4-4.6-3.2-10.5-2-15.7-3.4-3.8-1-7.9-2.2-10.3-5.6-2.8-3-2.8-7.4-2.3-11.3 1.1-6.7 7.7-11.6 14.2-12.2zm-182.6 2.1c5.6-3.1 12.4-2 18.5-2.2.5 3.1.5 6.3.1 9.4-3.9-.4-8-.8-11.7.8-1.7.7-2.4 2.4-2.4 4.1-.7 12.2.6 24.4-.6 36.5-3.6.1-7.1.1-10.7 0-.3-11.9-.1-23.8-.1-35.7-.1-5 2.3-10.5 6.9-12.9zm80.1 7.2c4-6.7 12.3-9.9 19.9-9.5 5.7-.2 11.4 1.8 15.7 5.5 5 4.8 6.7 12 6.8 18.8.3 2.5-1.8 5.3-4.5 5.1-10.5.4-20.9 0-31.4.4.7 4.1 2.4 8.5 6.5 10.5 7.7 3.7 16.6 1.6 24.4-.5.3 3 .3 6.1.2 9.1-7.5 2.5-15.6 3.3-23.5 2.1-7.5-1.3-14.5-6.4-16.8-13.8-2.7-9-2.5-19.6 2.7-27.7m10.9 1.8c-2.7 2.8-3.7 6.6-4.3 10.3 8.2-.2 16.5 0 24.7-.1-.4-3.5-1.1-7.3-3.7-9.9-4.4-4.1-12-4.3-16.7-.3z" style="fill:#00c4e6"/></svg>