<svg xmlns="http://www.w3.org/2000/svg" viewBox="0 0 500 150" style="enable-background:new 0 0 500 150" xml:space="preserve"><linearGradient id="a" gradientUnits="userSpaceOnUse" x1="120.256" y1="-638.509" x2="120.256" y2="-555.621" gradientTransform="matrix(1 0 0 -1 0 -500)"><stop offset="0" style="stop-color:#7cc213"/><stop offset="1" style="stop-color:#68ab07"/></linearGradient><path d="M150.9 124.3c-5.6 8.2-13.1 11.9-21.5 13.4-11.5 2.1-22.5.3-32-7.1-5.5-4.3-8.6-10.2-9-17-.5-11-1-22.1 0-33 1.1-12.8 9.8-20 21.6-23.2 12.8-3.5 24.8-1.8 35.1 7.5 4.9 4.5 7.2 10.2 7.4 16.7.2 5.1-.1 10.1.1 15.2.1 4-1.7 5.4-5.6 5.4-12-.2-24.1-.2-36.2-.2-6.5 0-6.9.5-6.8 6.7.1 10.5 10.6 18.1 21.3 15.1 3.4-.9 6.7-2.8 9.7-4.9 2.1-1.5 3.4-2 5.6-.5 3.2 2 6.6 3.8 10.3 5.9zm-30.7-34.9c4.3 0 8.6-.1 12.8 0 2.7.1 3.8-1 3.9-3.7.3-7.9-4-12.6-13.6-14.1-9.9-1.6-19.1 4.8-19.2 13.4-.1 3 .8 4.6 4.1 4.5 4-.2 8-.1 12-.1z" style="fill:url(#a)"/><linearGradient id="b" gradientUnits="userSpaceOnUse" x1="260.093" y1="-637.943" x2="260.093" y2="-556.168" gradientTransform="matrix(1 0 0 -1 0 -500)"><stop offset="0" style="stop-color:#7cc213"/><stop offset="1" style="stop-color:#68ab07"/></linearGradient><path d="M293.2 96.9c0 3.7-.2 7.4 0 11 .9 15-8.2 24.5-20.8 28.1-12 3.5-23.8 2.5-34.6-4.7-7.2-4.8-10.8-11.4-10.9-20-.1-8.6-.1-17.1-.1-25.7 0-13.1 5.2-21.2 17.5-26.1 13.4-5.4 26.3-4.3 38.4 3.9 7 4.8 10.6 11.6 10.6 20.2-.1 4.5-.1 8.9-.1 13.3zm-15.8.2V87c0-8.3-3.5-12.9-11.7-14.4-3.8-.7-8-.7-11.8.1-5.1 1.1-10.6 3.4-11.1 9.5-.7 9.3-.7 18.7-.1 27.9.2 3 2.7 6.5 5.1 8.6 4.4 3.6 9.9 4.7 15.6 3.7 9.5-1.6 14-6.9 13.9-16.6.1-2.9.1-5.8.1-8.7z" style="fill:url(#b)"/><linearGradient id="c" gradientUnits="userSpaceOnUse" x1="377.791" y1="-637.599" x2="377.791" y2="-556.077" gradientTransform="matrix(1 0 0 -1 0 -500)"><stop offset="0" style="stop-color:#7cc213"/><stop offset="1" style="stop-color:#68ab07"/></linearGradient><path d="M410.9 97.3c0 3.7-.2 7.4 0 11 1.2 15.7-8.5 24.5-20.5 27.6-10.6 2.7-21.7 2.5-31.8-2.8-8.9-4.6-13.7-11.8-13.7-22.1 0-8.6-.3-17.1-.4-25.7-.2-11 4.6-19.3 14.3-24.2 14.6-7.4 28.9-6.7 42.4 2.7 6.5 4.6 9.9 11 9.8 19.2 0 4.8 0 9.5-.1 14.3zm-15.8-.2V86.6c0-8.5-3.3-12.7-11.7-14.1-3.6-.6-7.4-.6-10.9 0-8.3 1.4-12 6.2-12 14.6 0 7 0 14.1-.1 21.1 0 4.5 1.8 7.9 5.5 10.5 5 3.5 10.6 4.7 16.6 3.5 8.8-1.7 12.8-6.6 12.8-15.5-.2-3.1-.2-6.4-.2-9.6z" style="fill:url(#c)"/><linearGradient id="d" gradientUnits="userSpaceOnUse" x1="189.593" y1="-638.309" x2="189.593" y2="-557.316" gradientTransform="matrix(1 0 0 -1 0 -500)"><stop offset="0" style="stop-color:#7cc213"/><stop offset="1" style="stop-color:#68ab07"/></linearGradient><path d="M162.3 75.6c-2.4-4.6-4.6-8.9-7-13.5 22.7-6.3 45.6-6.4 68.5-.1-2.1 4.4-4.1 8.6-6.3 12.7-.3.6-1.8.8-2.7.7-3.9-.6-7.8-1.2-11.7-2-3.8-.8-5.5.1-5.5 4.5.2 18.2-.1 36.5.1 54.7 0 4.4-1.2 5.9-5.7 5.7-11.7-.4-10 1.3-10-10-.1-16.9-.2-33.7 0-50.6 0-4.1-1.5-5.2-5.2-4.5-4.9.9-9.7 1.6-14.5 2.4z" style="fill:url(#d)"/><linearGradient id="e" gradientUnits="userSpaceOnUse" x1="66.671" y1="-590.663" x2="66.671" y2="-511.491" gradientTransform="matrix(1 0 0 -1 0 -500)"><stop offset="0" style="stop-color:#70b317"/><stop offset="1" style="stop-color:#5a9e03"/></linearGradient><path d="M88.3 58.2c-8.9 8.4-11.7 18.2-11 29.2.1 2.3-.8 3.6-3.2 3.2-9.2-1.7-17.8-4.7-24.1-12-6-7-6.4-15.1-2.5-23.1 2.1-4.2 4.8-8.2 7.7-11.9 7.7-10 15.6-19.7 23.6-29.4 1-1.2 2.6-1.8 3.9-2.7l1.2 1.1c-.8 1.9-1.6 3.7-2.3 5.6-2.9 8.2-6.6 16.2-8.6 24.6-2.3 9.5 1.2 13.5 11 15 1 .1 2.1.2 4.3.4z" style="fill:url(#e)"/><linearGradient id="f" gradientUnits="userSpaceOnUse" x1="433.421" y1="-590.413" x2="433.421" y2="-511.591" gradientTransform="matrix(1 0 0 -1 0 -500)"><stop offset="0" style="stop-color:#70b317"/><stop offset="1" style="stop-color:#5a9e03"/></linearGradient><path d="M416.9 11.6c1.2.6 2.7.9 3.4 1.8 10 12.6 20 25.1 29.8 37.9 3.8 5 5.7 10.8 4.5 17.3-2.2 11.7-10.9 16.8-21 20.1-9.1 3-9.5 2.8-10.5-6.5-.9-9-3.8-16.9-11.3-23.7 2.5-.5 4.4-.9 6.3-1.2 7.3-1.4 10.8-5.5 9-12.6-2.4-9.3-6-18.2-9.1-27.3-.5-1.6-1.3-3-1.9-4.6.2-.4.5-.8.8-1.2z" style="fill:url(#f)"/><linearGradient id="g" gradientUnits="userSpaceOnUse" x1="324.392" y1="-638.307" x2="324.392" y2="-556.181" gradientTransform="matrix(1 0 0 -1 0 -500)"><stop offset="0" style="stop-color:#7cc213"/><stop offset="1" style="stop-color:#68ab07"/></linearGradient><path d="M344 56.7c-3.6 5.2-6.8 10.2-10.5 14.9-1 1.3-3.2 1.6-4.9 2.3-5.2 2.3-8.1 5.7-8 11.9.3 15.6 0 31.2.1 46.9 0 4.1-.9 5.8-5.4 5.6-12.3-.4-10.3 1.6-10.4-10.5-.2-13.8-.1-27.6-.2-41.3 0-14.6 5.8-23 19.7-27.9 6.4-2.3 13-3 19.6-1.9z" style="fill:url(#g)"/></svg>