<svg xmlns="http://www.w3.org/2000/svg" viewBox="0 0 800 250" style="enable-background:new 0 0 800 250" xml:space="preserve"><path d="M506.8 44.1c12.1-7.6 26.6-10.2 40.7-10.9 18.5.6 37.5 6.2 51.4 19-6.8 7.4-13.6 14.8-20.3 22.2-12-14.5-34.4-19.5-51.1-10.5-7 3.6-12.1 11-11.8 19.1-.4 6.8 3.2 13.3 8.7 17.1 8.1 5.6 17.9 7.6 27 10.8 10.1 3.5 20.5 6.7 29.3 12.9 10.3 7 18.2 18.4 18.7 31v12.7c-.6 12.4-6.6 24.3-15.6 32.8-9.6 9-22.5 13.7-35.5 15.4-7.9 1.5-16 1.6-23.9 0-18.1-2.4-36.2-9.9-48.2-24 7.4-6.9 14.9-13.8 22.2-20.8 11.8 15.7 34 23.4 52.7 16.9 8-2.8 15.1-9.5 16.6-18 1.1-6.3.5-13.4-3.9-18.4-6.9-8.2-17.6-11.2-27.4-14.5-10.7-3.7-21.8-6.6-31.5-12.6-10.2-6.3-18-16.7-20.1-28.6-1.3-7.4-1.4-15.1.2-22.4 2.8-12.2 11.2-22.7 21.8-29.2zm-306.2-6.3h113.1V65H232v47.6h76.9v26.1H232V212h-31.5c.1-58 0-116.1.1-174.2zm135.5 0h61.4c11.1-.1 22.4.5 32.8 4.5 12 4.4 22.3 14.3 25.8 26.8 2.5 9.6 2.3 20.3-1.9 29.5-5.2 10.9-16 18.1-27.4 21.5 8.5 1.5 17 4.2 23.8 9.7 7.7 5.8 12.7 14.7 13.9 24.2 1.6 12.2-.2 25.4-7.7 35.4-7.2 10.1-18.6 16.3-30.4 19.4-10.1 2.6-20.6 3.5-31 3.4H336c0-58.2 0-116.3.1-174.4m31.1 25.7v45.1h29.3c7.6-.1 15.5-1.4 21.7-6 9.1-6.5 10.8-20.5 5-29.6-5.4-7.3-15.4-8.5-23.8-9.3-10.6-.4-21.5 0-32.2-.2m0 71.8V186c13.4-.2 26.8.6 40.1-.8 8.1-1 16.7-3.8 22-10.5 4.8-5.7 5.3-13.8 4.1-20.9-.9-5.6-4.4-10.8-9.5-13.4-7.5-3.9-16-4.7-24.3-5-10.7-.1-21.6 0-32.4-.1z" style="fill:#5c8926"/></svg>