<svg width="272" height="70pt" viewBox="0 0 204 70" xmlns="http://www.w3.org/2000/svg"><path d="M106.75 60.48c.95-.85 4.26-.38 2.99 1.34-.91 1.13-4.21.28-2.99-1.34zm-14.98 3.75c.42-1.07.83-2.15 1.23-3.23.38 1.07.76 2.14 1.14 3.22-.79-.01-1.58-.01-2.37.01z" fill="#fff"/><path d="M32.25 1.01c3.43-.13 6.86-.12 10.29.03-.08 5.91-.03 11.81-.03 17.72 6-.04 12.01.03 18.01-.04-.04-5.94-.03-11.87 0-17.81 3.41.01 6.82.03 10.23.09.03 15.4-.07 30.8.05 46.2-3.43.07-6.86.06-10.3.05-.01-6.58 0-13.16 0-19.75h-18c0 6.59.01 13.17 0 19.75H32.25V1.01zM78 .98c10.67-.01 21.33-.01 32 0v8.77c-7.26 0-14.51-.01-21.76.01.02 3.49.02 6.98 0 10.47 6.32.02 12.65.06 18.97-.02.04 2.68.05 5.36.04 8.04h-19v19H78V.98zM117.24.7c2.37 2.26 4.67 4.59 6.99 6.9 6.54 6.54 13.05 13.11 19.63 19.6 1.48 1.52 3.18 2.9 4.24 4.77.27 2.03.18 4.09.18 6.14-.03 2.38-.04 4.77-.07 7.15-7.15-6.96-14.12-14.1-21.21-21.12v23.11c-3.22-.01-6.44-.02-9.66.07-.21-15.54-.02-31.08-.1-46.62zM48.07 57.44c2.63.06 5.26.07 7.9.05l.04 2.26c-1.83 0-3.66-.01-5.5 0v2.48c1.77.42 5.45-1.23 4.89 2.01-1.64.01-3.27.01-4.9.02v4.48c-.62 0-1.87.02-2.49.02-.02-3.77-.05-7.55.06-11.32zm78.23-.03c.8.04 2.39.13 3.19.17-1.39 1.6-3.27 2.87-4.28 4.74 1.43 2.2 3.05 4.28 4.57 6.43-1.18 0-2.35-.01-3.52-.01-1.08-1.62-2.16-3.25-3.27-4.85-1.32 1.32-.91 3.24-1.08 4.9-.67-.02-2-.05-2.66-.06 0-3.74 0-7.48-.01-11.22.69-.01 2.07-.01 2.76-.02 0 1.05-.01 3.16-.01 4.21 1.39-1.48 2.84-2.9 4.31-4.29zm8.44.1c2.83-.01 5.66-.01 8.49-.01.02.55.05 1.66.07 2.21-1.93.02-3.86.04-5.79.05-.01.56-.01 1.66-.02 2.21 1.83.03 3.66.05 5.48.13.33 3.09-3.74 1.51-5.65 2.07.06.59.19 1.75.26 2.34 2.02-.01 4.05-.02 6.07.01-.08.55-.25 1.64-.33 2.19-2.85.11-5.71.02-8.56.04-.02-3.75-.01-7.5-.02-11.24zm27.98 3.48c-.07-5.13 8.93-4.93 9.07.14-2.29.76-5.46-3.8-6.45-.2 2.23 1.38 6.19.96 6.71 4.22-.14 5.54-9.3 5.2-10.07.07.66-.06 1.96-.17 2.61-.23.86 1.99 3.37 2.82 4.9 1.01-1.27-2.81-6.65-1.18-6.77-5.01zM32 57.5c.68 0 2.05-.01 2.73-.01.02 1.43.04 2.86.05 4.29 1.41-.02 2.81-.03 4.22-.04v-4.23l2.73-.04c.03 3.76.01 7.51.02 11.26l-2.73.04-.03-4.77h-4.24v4.74c-.68 0-2.05.02-2.73.03-.03-3.76-.02-7.51-.02-11.27zm38.25-.03c.92.01 2.77.04 3.69.06.75 2.47 1.57 4.91 2.43 7.35.77-2.47 1.52-4.94 2.33-7.39.89.01 2.66.01 3.55.02v11.24c-.62 0-1.88-.01-2.5-.01.03-2.02.01-4.05-.04-6.07-.94 1.93-1.64 3.97-2.3 6.01-.56.03-1.67.07-2.23.1-.8-2.27-1.56-4.54-2.42-6.78-.02 2.25-.01 4.49-.01 6.74l-2.49.02c-.01-3.76-.01-7.53-.01-11.29zm21.52.16c.64-.06 1.93-.2 2.57-.26 1.4 3.78 2.81 7.56 4.22 11.33-.69.03-2.07.07-2.76.09l-.93-2.31c-1.23.01-2.46.01-3.68.02-.46 1.97-1.86 2.63-3.77 2.34 1.45-3.74 2.64-7.58 4.35-11.21m0 6.6c.79-.02 1.58-.02 2.37-.01-.38-1.08-.76-2.15-1.14-3.22-.4 1.08-.81 2.16-1.23 3.23zm11.98-6.73c2.98.34 6.98-1.12 9.07 1.73.5 1.41.11 2.9-.68 4.11.56 1.79.94 3.63 1.26 5.48-.9-.04-1.79-.07-2.68-.1-.2-1.23-.44-2.44-.73-3.65-1.01-.85-2.51-.43-3.72-.68-.01 1.45-.02 2.9-.02 4.36h-2.5V57.5m3 2.98c-1.22 1.62 2.08 2.47 2.99 1.34 1.27-1.72-2.04-2.19-2.99-1.34zm41.51-2.98h9.49v2.25c-.87 0-2.62-.01-3.49-.01-.01 3.05 0 6.1-.04 9.15-.59-.06-1.77-.19-2.36-.25-.22-2.96-.1-5.93-.11-8.89-.88 0-2.64-.01-3.52-.01l.03-2.24z"/><path fill="#cd0511" d="M124.25.89c7.93 7.89 15.82 15.82 23.75 23.72 8.01-7.97 15.97-16 23.99-23.96.02 15.53.01 31.07.01 46.6h-9.75c0-7.7.01-15.4 0-23.1-4.67 4.64-9.32 9.3-13.97 13.96 0-2.05.09-4.11-.18-6.14-1.06-1.87-2.76-3.25-4.24-4.77-6.58-6.49-13.09-13.06-19.63-19.6.02-2.24.02-4.48.02-6.71z"/></svg>