<svg xmlns="http://www.w3.org/2000/svg" viewBox="0 0 200 80" style="enable-background:new 0 0 200 80" xml:space="preserve"><radialGradient id="a" cx="1634.252" cy="1232.422" r="43.89" gradientTransform="matrix(-1.0887 -.8098 -1.0342 .821 3160.565 347.05)" gradientUnits="userSpaceOnUse"><stop offset="0" style="stop-color:#e30613"/><stop offset=".163" style="stop-color:#e00713"/><stop offset=".366" style="stop-color:#d50911"/><stop offset=".592" style="stop-color:#c30d0e"/><stop offset=".833" style="stop-color:#aa0f09"/><stop offset=".907" style="stop-color:#a21007"/></radialGradient><path style="fill:url(#a)" d="M62.5 2.5h75v75h-75z"/><path d="M126.8 44.6h-15l-7.5 7.4h14.1c-2.2 5.6-7.7 9.5-14 9.5-8.4 0-15.1-6.8-15.1-15.1 0-8.4 6.8-15.1 15.1-15.1 5.6 0 10.5 3.1 13.1 7.6l5.4-5.4c-4.1-5.9-10.9-9.7-18.5-9.7-12.5 0-22.6 10.1-22.6 22.6S91.9 69 104.4 69 127 58.9 127 46.4c-.1-.6-.1-1.2-.2-1.8zm-56.4-20v35.8c1.8 3.5 4.3 6.5 7.5 8.7V24.6h-7.5z" style="fill:#fff"/></svg>