<svg xmlns="http://www.w3.org/2000/svg" viewBox="0 0 600 150" style="enable-background:new 0 0 600 150" xml:space="preserve"><circle cx="81.9" cy="75" r="70" style="fill:#f70"/><path d="M79.7 47.7c4.8 0 8.8 3.9 8.8 8.8v48.1c0 4.8-3.9 8.8-8.8 8.8-4.8 0-8.8-3.9-8.8-8.8V56.4c.1-4.8 4-8.7 8.8-8.7zM51.3 64.1c4.8 0 8.8 3.9 8.8 8.8v31.7c0 4.8-3.9 8.8-8.8 8.8-4.8 0-8.8-3.9-8.8-8.8V72.8c.1-4.8 4-8.7 8.8-8.7zm56.9-31.8c4.8 0 8.8 3.9 8.8 8.8v63.4c0 4.8-3.9 8.8-8.8 8.8-4.8 0-8.8-3.9-8.8-8.8V41.1c0-4.8 3.9-8.8 8.8-8.8z" style="fill:#fff"/><path d="M188.6 45.4c-1.3 0-2.6-.3-3.7-.7-1.2-.5-2.2-1.2-3.1-2.1-.9-.9-1.6-1.9-2.1-3.1-.5-1.2-.7-2.4-.7-3.8s.2-2.7.8-3.8c.5-1.1 1.2-2.2 2.1-3.1.9-.9 1.9-1.6 3.1-2.1 1.2-.5 2.5-.8 3.7-.8 2.7 0 5 .9 6.9 2.8 1.9 1.9 2.9 4.2 2.9 6.9s-1 5-2.9 6.9-4.3 2.9-7 2.9zm-7.5 64.6V53.6h15.1V110h-15.1zm64.2 1.3v-8.1c-1.4 2.4-3.5 4.4-6.5 6.1-2.9 1.7-6.5 2.5-10.8 2.5-3.6 0-7-.7-10.3-2.2-3.3-1.5-6.2-3.6-8.6-6.2-2.5-2.7-4.5-5.8-5.9-9.5-1.5-3.7-2.2-7.7-2.2-12.1 0-4.4.7-8.4 2.2-12.1 1.5-3.7 3.4-6.9 5.9-9.5 2.4-2.6 5.4-4.7 8.6-6.2 3.2-1.5 6.8-2.3 10.3-2.2 4.3 0 7.9.8 10.8 2.5 2.9 1.7 5.1 3.7 6.5 6.1v-6.8h15.1v81.3h-15.1v-23.6zm-14.2-13.4c2 0 3.9-.4 5.7-1.1 1.8-.7 3.4-1.8 4.8-3.2 1.4-1.4 2.5-3.1 3.3-5.1s1.3-4.3 1.3-6.8-.4-4.8-1.3-6.8c-.8-2-2-3.7-3.3-5.1-1.4-1.4-3-2.4-4.8-3.2-1.8-.7-3.7-1.1-5.7-1.1s-3.9.4-5.7 1.2c-1.8.8-3.4 1.9-4.8 3.2-1.4 1.4-2.5 3.1-3.3 5.1s-1.3 4.2-1.3 6.7.4 4.7 1.3 6.7 2 3.7 3.3 5.1c1.4 1.4 3 2.5 4.8 3.2 1.8.9 3.8 1.3 5.7 1.2zm83.2-46.2c4.4 0 8.4.7 12 2.2 3.6 1.5 6.8 3.6 9.4 6.2 2.6 2.7 4.7 5.8 6.2 9.5s2.2 7.7 2.2 12.1-.8 8.4-2.2 12.1c-1.5 3.7-3.6 6.9-6.2 9.5-2.6 2.7-5.8 4.7-9.4 6.2-3.6 1.5-7.7 2.2-12 2.2-4.4 0-8.4-.7-12-2.2-3.6-1.5-6.8-3.6-9.4-6.2-2.6-2.7-4.7-5.8-6.2-9.5s-2.2-7.7-2.2-12.1c0-4.4.8-8.4 2.2-12.1 1.5-3.7 3.6-6.9 6.2-9.5s5.8-4.7 9.4-6.2c3.6-1.4 7.6-2.2 12-2.2zm0 46.2c1.9 0 3.8-.4 5.6-1.1 1.8-.7 3.4-1.8 4.8-3.2 1.4-1.4 2.5-3.1 3.3-5.1.8-2 1.2-4.3 1.2-6.8s-.4-4.8-1.2-6.8c-.8-2-1.9-3.7-3.3-5.1-1.4-1.4-3-2.4-4.8-3.2-1.8-.7-3.7-1.1-5.6-1.1-2 0-3.9.4-5.6 1.1-1.8.7-3.4 1.8-4.7 3.2-1.4 1.4-2.5 3.1-3.3 5.1-.8 2-1.2 4.3-1.2 6.8s.4 4.8 1.2 6.8c.8 2 1.9 3.7 3.3 5.1 1.3 1.4 3 2.4 4.7 3.2 1.7.8 3.6 1.1 5.6 1.1zm33.3-44.3h15.1v6.8c1.4-2.4 3.5-4.4 6.4-6.1 2.9-1.7 6.5-2.5 10.8-2.5 3.6 0 7 .7 10.3 2.2 3.3 1.5 6.2 3.6 8.6 6.2 2.5 2.7 4.5 5.8 5.9 9.5 1.5 3.7 2.2 7.7 2.2 12.1s-.7 8.4-2.2 12.1c-1.5 3.7-3.4 6.9-5.9 9.5-2.4 2.6-5.4 4.7-8.6 6.2-3.2 1.5-6.8 2.3-10.3 2.2-4.3 0-7.9-.8-10.8-2.5s-5.1-3.7-6.5-6.1v31.7h-15.1l.1-81.3zm29.2 44.3c2 0 3.9-.4 5.7-1.2 1.8-.8 3.4-1.9 4.8-3.2 1.4-1.4 2.5-3.1 3.3-5.1s1.3-4.2 1.3-6.7-.4-4.7-1.3-6.7-2-3.7-3.3-5.1c-1.4-1.4-3-2.5-4.8-3.2-1.8-.8-3.7-1.2-5.7-1.2s-3.9.4-5.7 1.1c-1.8.7-3.4 1.8-4.8 3.2-1.4 1.4-2.5 3.1-3.3 5.1s-1.3 4.3-1.3 6.8.4 4.8 1.3 6.8c.8 2 2 3.7 3.3 5.1 1.4 1.4 3 2.4 4.8 3.2 1.8.8 3.8 1.2 5.7 1.1zm38.5-31.4h-9.9V53.6h9.9V36.3h15.1v17.3h13.8v12.9h-13.8v21.9c0 1.3.1 2.5.4 3.6.3 1.1.8 2.1 1.6 2.8 1.1 1.2 2.6 1.8 4.6 1.8 1.3 0 2.3-.1 3.1-.4.8-.3 1.5-.6 2.2-1.1l4.3 13.2c-1.8.9-3.7 1.5-5.7 1.9-2 .4-4.3.6-6.7.6-2.8 0-5.4-.4-7.7-1.3s-4.2-2.1-5.7-3.6c-3.6-3.5-5.4-8.4-5.4-14.7-.1.1-.1-24.7-.1-24.7zm43.6-21.1c-1.3 0-2.6-.3-3.7-.7-1.2-.5-2.2-1.2-3.1-2.1-.9-.9-1.6-1.9-2.1-3.1-.5-1.2-.8-2.4-.8-3.8s.2-2.7.8-3.8c.5-1.1 1.2-2.2 2.1-3.1.9-.9 1.9-1.6 3.1-2.1 1.2-.5 2.5-.8 3.7-.8 2.7 0 5 .9 6.9 2.8s2.9 4.2 2.9 6.9-1 5-2.9 6.9-4.2 2.9-6.9 2.9zm-7.4 64.6V53.6h15.1V110h-15.1zm49.7-58.3c4.4 0 8.4.7 12 2.2 3.6 1.5 6.8 3.6 9.4 6.2 2.7 2.7 4.7 5.8 6.2 9.5s2.2 7.7 2.2 12.1-.7 8.4-2.2 12.1c-1.5 3.7-3.6 6.9-6.2 9.5-2.6 2.7-5.8 4.7-9.4 6.2-3.6 1.5-7.7 2.2-12 2.2-4.4 0-8.4-.7-12-2.2-3.6-1.5-6.8-3.6-9.4-6.2s-4.7-5.8-6.2-9.5-2.2-7.7-2.2-12.1c0-4.4.7-8.4 2.2-12.1 1.5-3.7 3.6-6.9 6.2-9.5s5.8-4.7 9.4-6.2c3.6-1.4 7.6-2.2 12-2.2zm0 46.2c1.9 0 3.8-.4 5.6-1.1 1.8-.7 3.4-1.8 4.8-3.2 1.4-1.4 2.5-3.1 3.3-5.1.8-2 1.2-4.3 1.2-6.8s-.4-4.8-1.2-6.8c-.8-2-1.9-3.7-3.3-5.1-1.4-1.4-3-2.4-4.8-3.2-1.8-.7-3.7-1.1-5.6-1.1-2 0-3.9.4-5.6 1.1-1.8.7-3.4 1.8-4.7 3.2-1.4 1.4-2.5 3.1-3.3 5.1-.8 2-1.2 4.3-1.2 6.8s.4 4.8 1.2 6.8c.8 2 1.9 3.7 3.3 5.1 1.3 1.4 3 2.4 4.7 3.2 1.7.8 3.6 1.1 5.6 1.1zM548.6 61h.9c1.8-2.8 4.1-5.1 7.1-6.7 3-1.7 6.4-2.5 10.3-2.5 3.5 0 6.6.6 9.3 1.7 2.7 1.2 4.9 2.8 6.6 4.9 1.7 2.1 3 4.6 3.9 7.6.9 3 1.3 6.2 1.3 9.9V110h-15V77.7c0-4.1-.9-7.1-2.7-9-1.8-2-4.4-2.9-7.9-2.9-2.1 0-3.9.4-5.5 1.3s-3 2.1-4 3.6c-1.1 1.5-2 3.3-2.5 5.3-.6 2-.9 4.2-.9 6.5V110h-15.1V53.6h14.2V61z"/></svg>