<svg xmlns="http://www.w3.org/2000/svg" viewBox="0 0 500 200" style="enable-background:new 0 0 500 200" xml:space="preserve"><path d="M451 .3h46.5v46.5C481.9 31.4 466.4 15.9 451 .3zM2.5 33.3h25v116h-25v-116zm260 0h81v22h-56V47c-6.9 6-13.4 12.5-20.3 18.4 6.8 6 13.2 12.5 20.3 18.2v-7.4h34c0-3 0-6 .2-8.9 7.3 6.5 14.6 13.1 21.7 19.8-3.1 2.9-6 6-9.4 8.6-4.3 3.6-7.9 7.9-12.4 11.1-.1-2.9-.1-5.8-.1-8.7h-33v50h-26V33.3zm85.2.1c9.9-.2 19.8 0 29.6-.1 7.6 12 14.6 24.4 22.5 36.3 7.5-12.2 15.3-24.2 23-36.3 9.4.1 18.8-.1 28.2.1-12.1 18.4-24.7 36.5-36.8 54.9 13.2 20 26.7 39.8 39.8 59.9-10.2.2-20.5.1-30.7.1-8.2-13-16.5-26.1-24.7-39.1-8.5 13-16.8 26.1-25.2 39.1-9.6 0-19.2.1-28.8-.1 13.4-19.9 26.3-40.2 39.9-60-9.1-13.3-18.1-26.6-27-39.9-3.2-4.9-6.9-9.7-9.8-14.9zM126.9 62.6c3.8-.8 7.7.3 11.5.7 10.4 1.4 20.5 6.9 26.6 15.6 6.1 8.1 8.1 18.4 8.6 28.4-.6 11.7-4 24-12.7 32.4-7.8 8.1-19.4 11.3-30.4 11.7-13.1-.1-27.1-5.1-35-16.1-6.3-8.2-8.3-18.8-8.9-28.9.7-5.6 1.2-11.4 3.1-16.8 4.1-12.5 15-22.3 27.7-25.4 3.1-.9 6.4-1 9.5-1.6m.1 18.2c-9 .9-14.8 9.6-16 17.9-1.2 9.1-1 19.1 4 27.1 6 9.3 20.8 10.2 28.2 2.2 5.2-5.9 6.7-14.1 6.3-21.7.4-6.9-1.3-14.1-5.6-19.5-4-4.8-10.8-7.1-16.9-6zm-72.5-2.2c4.2-8 12.2-13.8 21.2-15.2 3.4-.3 6.7-.1 10.1-.1.1 7.4.1 14.8 0 22.1-6.7-1.8-14.4-2-20.5 1.7-6.6 3.9-9.5 11.8-9.8 19.1v42.3c-8 .1-16 .1-24 0V65.3h23v13.3zm144.3-2.8c6.3-8 16.3-13.3 26.6-12.8 9-.5 18.7 2.7 24.1 10.3 4.3 5.8 5.2 13.1 5.9 20.1v55.2c-8 .2-16 0-24 .1V99.3c.1-4.7-.7-9.6-3.6-13.5-2.6-2.8-6.7-3.7-10.5-3.5-5.4-.3-11.3 2-14.2 6.8-2.7 4.2-3.3 9.3-3.5 14.2v45.3c-7.8 0-15.6.1-23.3 0V65.3h22.3c.2 3.5.2 7 .2 10.5zM11.9 172.5c3.2-.7 6.5 0 9.6.9v6.1c-2.7-1-5.7-1.3-8.6-1.2-.1.6-.4 1.8-.5 2.5 4.1 2.2 10.1 3.4 11 8.8 1.1 4.6-2.3 9.6-7.1 9.9-3.6.3-8 .5-10.8-2.3-.2-2-.2-4-.4-6 3.3 1.9 7.2 3.5 11 2.5.1-.8.2-2.4.2-3.2-3.6-2-8.3-3-10.1-7.1-2.1-4.4 1.4-9.5 5.7-10.9zm37.9 0c3.9-.8 7.9 0 11.3 2.1 4.8 3.4 7.1 9.9 5.3 15.5-2.6 9.8-16.6 12.8-23.5 5.7-3.9-3.4-5.1-9.3-3.4-14.1 1.3-4.8 5.7-8.1 10.3-9.2m1.2 6.2c-5.2 1.4-6.8 8.6-3.3 12.4 3.2 4.2 10.7 2.6 12.1-2.5 2.3-5.3-3.3-12-8.8-9.9zm65.5-6.4h7v27h-7v-27zm169.1 0h4.1c3.8 8.8 7.2 17.9 10.5 26.9-2.2 0-4.4.1-6.6.1l-2.1-5.7c-2.6 0-5.1 0-7.7-.1-.8 1.9-1.7 3.8-2.5 5.8H275c3.4-9 6.9-18 10.6-27m-.3 16h4.4c-.8-1.9-1.5-3.9-2.2-5.8-.7 2-1.5 3.9-2.2 5.8zm70.2-16h7v27h-7v-27zm68.7 5.8c4.5-6.3 13.7-7.4 20.3-4v6.3c-3.4-1.7-7.7-3.2-11.3-1.3-3.8 1.5-6 6.7-3.7 10.3 1.4 4 6.2 4.9 10 4.3v-3.3c-1.3 0-2.7 0-4 .1v-6c3.6 0 7.2-.1 10.8.2.2 4.1.7 8.3-.1 12.3-3.3 3.1-8.3 3-12.5 2.6-4.4-.4-8.1-3.3-10.2-7-2.4-4.7-1.9-10.3.7-14.5zm-340.7-5c2.3-.1 4.7-.1 7-.1v20.3h10.3c0 2 0 4-.1 6-5.7-.1-11.4.2-17.1-.2-.3-8.6 0-17.3-.1-26zm58-.1c5.7.2 12-1.2 17.1 2.1 3.7 2.3 6.3 6.7 6 11.1.2 5.2-3.6 9.9-8.3 11.8-4.6 2.1-9.8 1-14.7 1.2-.1-8.6-.1-17.4-.1-26.2m7 5.5c0 5-.1 10.1 0 15.1 2.6-.5 5.4-1 7.4-2.8 1.9-2.1 2-5.4 1.1-8-1.5-3.3-5.4-3.6-8.5-4.3zm53.7-5.5c7.4 0 14.9-.1 22.3.1v5.2h-8v21.1c-2.3 0-4.5-.1-6.8-.3-.4-6.9-.1-13.9-.2-20.8h-7.3V173zm37.3.1c4.3 0 8.6-.4 12.8.2 4.1.7 6.6 4.9 6.2 8.8-.5 2.3-2.3 4-3.8 5.7 2.8 3.8 5.6 7.6 8.1 11.5h-7.5c-2.8-3.6-4.8-8-8.6-10.7-.4 3.6-.3 7.2-.3 10.8-2.3 0-4.5-.1-6.8-.3-.3-8.7 0-17.3-.1-26m7.1 4.9c0 1.8-.1 3.6-.1 5.4 1.6-.1 3.1-.1 4.7-.2.1-1.3.3-2.7.4-4-1.7-.5-3.3-.9-5-1.2zm68.9-4.9c4.5 0 9.2-.5 13.7.4 5.2 1.3 9.8 6.3 9.6 11.8.4 5-2.3 10.4-7.2 12.2-4.9 2.5-10.6 1.8-15.9 1.5-.4-8.6-.1-17.2-.2-25.9m7 5.4c0 5-.1 10 0 15.1 3.5-.3 8.1-1.1 9-5.1 1.2-2.6.1-5.5-1.6-7.6-2-1.8-4.9-1.7-7.4-2.4zm58-5.5c1.9.1 3.9-.3 5.6.4 4.5 4 8.4 8.8 12.3 13.4V173c2.3 0 4.7 0 7 .1v26.2h-3.8c-5-5-9.3-10.5-14.2-15.5v15.5h-7c.1-8.8.1-17.5.1-26.3z" style="fill:#ed1c24"/></svg>