<svg version="1.1" id="图层_1" xmlns="http://www.w3.org/2000/svg" x="0" y="0" viewBox="0 0 480 140" style="enable-background:new 0 0 480 140" xml:space="preserve"><style>.st0{fill:#00adbb}</style><g id="_x23_00adbbff"><path class="st0" d="M201.8 20.7c19.2-5.3 41.1.4 54.8 15.1-4.7 4.2-8.5 9.2-13.2 13.4-6.7-7.2-16.3-11.4-26-12.1-8.8-.3-17.9 2.9-24 9.2-13.8 12.2-13.2 36.7.8 48.5 8.9 8 22.1 10 33.3 6.4 8.7-2.9 15.6-9.4 21.4-16.3 6.6-7.8 11.5-16.8 16.9-25.4 4.9-7.7 8.8-16.1 15.1-22.9 7.7-9.1 18.6-15.3 30.4-17.1 12.5-1.6 25.6-.5 37 5.3 5.8 3.1 10.9 7.5 15.3 12.4-4.4 4.5-8.8 9-13.4 13.4-7.4-8-17.9-13.6-29-13.1-10.5-.3-21 5-27 13.6-10 14.2-17.7 29.9-28.5 43.5-6.1 8.2-13.8 15.1-22.6 20.3-8.1 4.6-17.5 6.6-26.8 6.2-11.7.5-23.6-2.9-32.8-10.3-9.7-7.4-16.2-18.7-18-30.7-1.9-13.2-.3-27.4 7.3-38.6 6.6-10.1 17.3-17.6 29-20.8z"/><path class="st0" d="M110.1 21h18.4c.1 26.5-.1 53 .1 79.5 12.7-.2 25.3.1 38-.1 4 7.6 10.6 13.2 17.3 18.4-24.6.4-49.2.1-73.9.2V21h.1zM326 69h44v10.3c-2.5 18.8-16.3 36.3-35.2 40.5-13.7 2.8-28.7 1.6-41-5.5-8.7-5.1-16-12.9-19.8-22.3 3.5-5.5 7.1-11 10.9-16.4 2.3 6.5 5.6 12.9 10.8 17.7 8.7 8.2 21.6 10.9 33.2 9.2 8.7-1.3 16.2-7.4 19.7-15.4-7.5-.3-15-.1-22.5-.1-.1-6-.1-12-.1-18z"/></g></svg>