<svg version="1.1" id="Layer_1" xmlns="http://www.w3.org/2000/svg" x="0" y="0" viewBox="0 0 442 66.9" style="enable-background:new 0 0 442 66.9" xml:space="preserve"><style>.st0{fill:#053c50}.st1{fill:#0ab45b}</style><path class="st0" d="M0 1.5h51V17H17.7v10.8h30.1v14.7H17.7v22.7H0zm136.6 0h30.1c9.7 0 16.5 2.6 20.8 6.9 3.7 3.6 5.6 8.6 5.6 14.8v.2c0 9.7-5.2 16.2-13.1 19.6l15.2 22.2h-20.4L162 45.9h-7.8v19.3h-17.7V1.5zm29.3 30.6c6 0 9.5-2.9 9.5-7.6v-.2c0-5-3.6-7.6-9.6-7.6h-11.6V32h11.7zm36.2-30.6h51.3v15h-33.8v9.7h30.6v13.9h-30.6v10.1h34.2v15h-51.7zm79.4 31.3-21-31.3h20.3l11.3 17.9 11.4-17.9h19.8l-20.9 31.1 21.9 32.6H304L291.8 46l-12.3 19.2h-19.9zm60.1 2.2c0-7.3 5.6-13.4 13.6-13.4 5.2 0 8.7 2.3 10.9 5.7l-6.1 4.5c-1.2-1.7-2.6-2.7-4.7-2.7-2.9 0-5 2.5-5 5.6v.1c0 3.3 2.1 5.8 5.1 5.8 2.1 0 3.5-1 4.9-2.6l6 4.3c-2.4 3.5-5.7 5.8-11.3 5.8-7.8.1-13.4-5.9-13.4-13.1m27 0c0-7.3 5.9-13.4 14.1-13.4 8.1 0 14 6 14 13.2v.1c0 7.2-5.9 13.3-14.1 13.3-8.1 0-14-6-14-13.2m19.4 0c0-3.2-2.3-5.8-5.4-5.8-3.2 0-5.3 2.6-5.3 5.6v.1c0 3.1 2.3 5.7 5.4 5.7 3.3 0 5.3-2.6 5.3-5.6m12.9-12.9h8.9v3.5c1.6-2.1 4-4 7.6-4 3.4 0 6 1.5 7.3 4.1 2.2-2.5 4.8-4.1 8.5-4.1 5.4 0 8.7 3.4 8.7 9.3v16.7H433V33.7c0-2.8-1.4-4.2-3.5-4.2s-3.7 1.5-3.7 4.2v13.8H417V33.7c0-2.8-1.4-4.2-3.5-4.2s-3.6 1.5-3.6 4.2v13.8H401V22.1z"/><path class="st1" d="M56 33.6C56 13.2 68.8 0 88.6 0c20.3 0 32.7 12.8 32.7 33.2 0 20.5-12.9 33.6-32.7 33.6C68.4 66.9 56 54.2 56 33.6m46.5-.2c0-13.5-4-24.2-14.2-24.2C78 9.3 74.8 20 74.8 33.4c0 13.4 4 24.2 14.2 24.2 10.3 0 13.5-10.7 13.5-24.2"/><path class="st1" d="M129.2 37.1H91.6l-2.1 5.8h37.6zm1.6-11.6H93.2l-2 5.8h37.6z"/><path class="st0" d="M329.2 42.8c0-1.3.5-2.3 1.4-3.3.9-.9 2-1.4 3.3-1.4 1.3 0 2.4.5 3.3 1.4.9.9 1.4 2 1.4 3.3 0 1.3-.5 2.4-1.4 3.3-.9.9-2 1.3-3.3 1.3-1.3 0-2.4-.4-3.3-1.3-1-.8-1.4-1.9-1.4-3.3"/></svg>