<svg xmlns="http://www.w3.org/2000/svg" viewBox="0 0 600 140" style="enable-background:new 0 0 600 140" xml:space="preserve"><path d="M232.2 1.2h1.5c1.9.6 4.1 1.2 5.3 2.9 1.5 2 1.3 4.7 1.4 7.1-.1 12.1 0 24.2-.1 36.2 8.4-8.6 19.6-14.5 31.5-16.1 16.3-2.4 33.5 3.2 45.2 14.7 10.5 10.1 16.6 24.5 16.4 39.1 0 14.5-6.2 28.8-16.8 38.7-10.5 10.1-25.2 15.6-39.7 14.9-13.7-.5-27-6.7-36.5-16.6-.2 2.8.2 5.9-1.1 8.5-2.7 4.6-10.4 4.7-13.1.1-1.4-3-.8-6.4-.9-9.6.1-37.7-.1-75.4.1-113-.1-3.8 3.4-6.2 6.8-6.9m41.2 44.7c-14.8 2.2-27.7 13.6-31.7 27.9-2.8 10.4-1.6 22.1 4.2 31.3 7.5 12.6 22.5 20.2 37.1 18.6 13.2-1 25.5-9.4 31.4-21.2 4.8-9.2 5.6-20.4 2.3-30.3-5.6-17.6-24.9-29.5-43.3-26.3zM96 31.3c13.2-2 27.1 1.1 38.2 8.7 12.2 8.2 20.8 21.5 23.1 36.1 2.5 14.6-1.5 30.2-10.6 41.8-9.4 12.2-24.3 20.1-39.8 20.8-11.9.7-24-2.8-33.8-9.6-10.6-7.3-18.3-18.5-21.5-31-3.4-13.6-1.5-28.5 5.7-40.5 8.1-14 22.8-23.9 38.7-26.3m-1.7 15.4c-10.4 2.7-19.6 9.7-24.7 19.2-6.4 11.5-6.5 26.2 0 37.7 6.9 13 21.6 21.3 36.4 20.4 11.7-.4 22.9-6.6 29.8-16 6.6-8.9 9.2-20.8 6.7-31.6-2.6-12.1-11.4-22.7-22.8-27.6-8-3.6-17-4.2-25.4-2.1zm253.3 13c7.7-14.9 22.7-25.7 39.2-28.3 15-2.5 30.9 1.8 42.6 11.4 12.6 10 20.1 25.9 20.1 42H356c.1 12.4 6.3 24.6 16.4 31.8 11.8 8.8 28.7 9.8 41.6 2.7 3.4-1.8 6.4-4.3 9.3-6.8h18.5c-7.1 11.4-18.2 20.4-31.2 24.1-13.7 4.1-28.9 2.4-41.3-4.6-14-7.7-24.2-21.9-27-37.6-2.2-11.8-.3-24.2 5.3-34.7m32.5-11.1c-9.6 4-17.3 12-21.2 21.6 24.4.2 48.7.1 73.1.1-3.5-8.2-9.6-15.4-17.4-19.7-10.4-6-23.5-6.7-34.5-2zm155.6-13.7c1.9-2.4 4.9-4.7 8.1-3.7 3.1.6 5.1 3.5 6.1 6.3v2.4c-1 2.1-2.2 4-3.6 5.8-10.7 13-21.2 26.1-31.8 39.1 8.8 10.8 17.6 21.7 26.3 32.5 3.2 4 6.7 7.7 9.1 12.3v2.3c-.8 3.4-3.3 6.6-7 6.9-3.2.6-5.6-1.9-7.4-4.1-10.2-12.7-20.5-25.3-30.7-37.9 3.2-4 6.4-8 9.7-11.9-3.2-4-6.5-7.9-9.7-11.9 10.3-12.8 20.7-25.4 30.9-38.1zM190.8 51.1c5.5-5.5 13.7-7.3 21.3-6.6 4.2.4 7.1 5.8 4.6 9.4-1.8 3.6-6.3 3.1-9.7 3.5-7.1.3-14 4.1-17.7 10.1-3.6 5.5-4.7 12.2-4.7 18.7v45c.2 2.5-.8 5.1-3.1 6.3-4.3 2.9-12 .6-11.8-5.3-.1-26.3-.1-52.7 0-79-.3-7.1 10.9-9.6 14.1-3.7 1.5 3.7.7 7.9.8 11.8 1.6-3.6 3.3-7.4 6.2-10.2z" style="fill:#3f5364"/><path d="M451.3 42.7c-3.7-4.7 1-12.1 6.7-11.7 2.7.1 4.7 2 6.3 4 13.5 16.7 27.1 33.2 40.6 49.8-14 17.1-27.8 34.3-41.8 51.4-2.6 3.6-8.3 3.2-11-.1-2.5-2.7-2.7-7.2-.1-10 11.1-13.8 22.2-27.7 33.5-41.4-11.4-14-23-27.9-34.2-42z" style="fill:#f6303e"/></svg>