<svg xmlns="http://www.w3.org/2000/svg" viewBox="0 0 350 70" style="enable-background:new 0 0 350 70" xml:space="preserve"><path d="M1.4 3h56v64h-56V3z" style="fill:none"/><path d="M29.4 7c15.5 0 28 12.5 28 28s-12.5 28-28 28-28-12.5-28-28C1.3 19.6 13.7 7.1 29 7h.4zm-14 16.3V28h27.9v-4.6l-27.9-.1zm27.9 23.4v-14H15.4v14H20v-5.3c0-1.5.4-2.3.9-3 1.3-1.4 3.5-1.5 5-.2.1.1.2.1.2.2.5.6.9 1.4.9 3v5.3h4.7v-5.3c0-1.5.4-2.3.9-3 1.3-1.4 3.5-1.5 5-.2.1.1.2.1.2.2.5.6.9 1.4.9 3v5.3h4.6z" style="fill:#fa5b35"/><path d="M75.4 23.1c0 5.1 7.3 6.1 12.7 9.3 3.4 1.9 6.2 5.1 6.2 10.4 0 7.6-6.2 12.4-13.1 12.4-6.9 0-11.9-3.3-13.8-5.4l2.7-5.8h.2c2.7 2.8 6.5 4.3 10.4 4.4 3 0 6.2-1.8 6.2-5.2 0-5.1-7.3-6.2-12.7-9.3C70.8 32 68 28.8 68 23.5 68 15.8 74.3 11 81.3 11c4.8 0 9.5 1.8 13 5.1l-2.7 5.8h-.2c-2.4-2.1-5.3-4.1-9.4-4.1-3.4 0-6.6 1.8-6.6 5.3zm20 7h7.1l4.2 12.3h.2l6-17.1h4.8l6.3 17.3h.2l6.1-17.3h6.8l-10.4 29.1H122L115.5 36h-.2l-6.4 18.3H104l-8.6-24.2zm44.8-17h7.2v7h-7.2v-7zm.1 12.1h7v29.1h-7V25.2zm23.2 30c-4 0-7.9-1.5-10.9-4.2l1.9-5.2h.2c2.2 1.9 5 3.5 8.2 3.5 2.4 0 4-1 4-2.8 0-1.9-2-2.6-4.5-3.4-4-1.3-9.3-3.2-9.3-9.3 0-5.6 4.4-9.4 10.6-9.4 3.5 0 6.9 1.3 9.7 3.5l-1.9 5.3h-.2c-2.1-1.6-4.7-2.7-7-2.7-2.7 0-4.3 1-4.3 2.8 0 1.9 2 2.6 4.5 3.4 4 1.3 9.3 3.2 9.3 9.3 0 5.4-4.4 9.2-10.3 9.2zm24.9 0c-4 0-7.9-1.5-10.9-4.2l1.9-5.2h.2c2.2 1.9 5 3.5 8.2 3.5 2.4 0 4-1 4-2.8 0-1.9-2-2.6-4.5-3.4-4-1.3-9.3-3.2-9.3-9.3 0-5.6 4.4-9.4 10.6-9.4 3.5 0 6.9 1.3 9.7 3.5l-1.9 5.3h-.2c-2.1-1.6-4.7-2.7-7-2.7-2.7 0-4.3 1-4.3 2.8 0 1.9 2 2.6 4.5 3.4 4 1.3 9.3 3.2 9.3 9.3 0 5.4-4.4 9.2-10.3 9.2zm42.3-30V67h-7V52.2c-2.1 1.9-4.8 3-7.7 3-8.2 0-13.5-6.4-13.5-15.1 0-8.2 5.6-15.7 14.2-15.7 2.7 0 5.2 1 7.3 2.7h.2v-1.8h6.5zm-7 7.6c-1.6-1.4-3.7-2.1-5.9-2.1-5 0-8.2 3.9-8.2 9.3 0 4.9 2.8 8.8 7.7 8.8 2.4 0 4.7-1 6.3-2.7.1 0 .1-13.3.1-13.3zm19.8 9.8c0 2.5.4 3.6 1.1 4.5 1.9 2.2 5.3 2.4 7.5.5.2-.2.4-.3.5-.5.7-.9 1.1-2 1.1-4.5V25.2h7v16.6c0 4.7-1.3 7.7-3.4 9.8-2.4 2.3-5.6 3.6-9 3.5-3.2 0-6.2-1.2-8.5-3.4-2.1-2.1-3.3-5.1-3.3-9.9V25.2h7v17.4zm22.1-2.5c0-9.3 6.3-15.7 15.1-15.7s15.1 6.5 15.1 15.1c0 9.3-6.3 15.7-15.1 15.7s-15.1-6.5-15.1-15.1zm15.1-9.4c-4.7 0-8 3.9-8 9.1s3.3 9.1 8 9.1 8-3.9 8-9.1-3.3-9.1-8-9.1zm38.8 17.9V54c-2 .8-4.1 1.2-6.2 1.2-3.1 0-5.4-.9-7-2.5-1.7-1.7-2.5-4.2-2.5-8.6V31.3h-6.7v-6.1h6.7v-9.7h7v9.7h8.8v6.1h-8.8V45c0 1.5.3 2.4.8 2.9.8 1 2.2 1.2 3.8 1.2 1.3 0 2.7-.2 4-.5h.1zm17 6.6c-8.5 0-14.8-6-14.8-15.1 0-8.4 5.1-15.7 14.1-15.7 7.7 0 12.8 6.1 12.8 14.5v2.3H329c.2 4.5 3.3 7.9 7.9 7.9 3 0 5.7-1.2 8.2-3.3h.2l2.6 4.8c-2.7 3-6.8 4.6-11.4 4.6zm5.2-19.5c-.1-3.1-2.6-5.5-5.7-5.4-3.5 0-5.9 2.4-6.6 5.4h12.3z" style="fill:#323232"/></svg>