<svg xmlns="http://www.w3.org/2000/svg" viewBox="0 0 500 100" style="enable-background:new 0 0 500 100" xml:space="preserve"><path d="M432.6 7.9c7.8-3.6 17.9 2.7 17.9 11.3.6 6.9-5.3 13.5-12.2 13.6-6.6.5-12.9-4.9-13.5-11.5-.9-5.5 2.6-11.2 7.8-13.4z" style="fill:#f37621"/><path d="M217.9 13.2c2.2-.3 4.3-.6 6.5-.9v77.1c-8.6 2.4-17.9 3.8-26.7 1.8-9.3-2.2-16.2-10.6-17.5-19.9-1.5-9.5-.2-20.5 6.9-27.7 7.9-8.1 21.4-7.9 30.6-2.4.1-9.4-.3-18.7.2-28m-24.1 33.1c-5.3 3.8-6.8 10.8-7.1 16.9-.2 7.1 1.5 15.1 7.7 19.4 6.8 4.8 15.6 3.5 23.3 2-.2-12.3.4-24.7-.3-36.9-6.7-4.7-16.6-6.3-23.6-1.4zM49.5 20.5h51.8v6.2H79v64.2c-2.3 0-4.7 0-7.1.1V26.8H49.5v-6.3zm241.6 5.1c7.6-8.6 23-7.6 29.8 1.6 5.3 7 4.7 17.9-1.9 23.9 4.4 2.9 8.5 7 9.7 12.3 1.7 7.8-.5 16.6-6.1 22.4-9.6 10.4-28.9 9.3-36.9-2.5-2.8-3.9-3.9-8.6-4.5-13.3H294c.9 2.9 1.5 6.1 3.8 8.2 3.6 3.3 9.4 3.4 13.5 1.2 6.8-4.1 6.6-15.5-.1-19.6-3.2-2.2-7.2-1.8-10.8-1.9v-12c3.1-.3 6.7.2 9.1-2.2 3.7-3.5 2.4-12-3.5-12-4-.7-6.3 3-7.2 6.3h-12.7c.5-4.4 1.6-9.1 5-12.4zm99.1 6.8c4.8-10.2 17.8-15.5 28.2-11.1 1 4.5 2.7 9 6.3 12 2.5 2.5 6.2 2.9 9.1 4.6 1.4 2.9 1.1 6.2 1.1 9.3-.1 8 .1 16.1-.1 24.1-.2 5.7-2.7 11.3-6.8 15.3-9.9 9.8-28.5 8.4-36.3-3.3-5.4-7.5-4.1-17.2-4.2-25.9.4-8.4-1-17.2 2.7-25m16.8.1c-4.3 1.6-6.2 6.3-6.3 10.6-.2 7.4 0 14.8-.1 22.2.1 3.8-.1 7.9 2 11.3 3.8 6.2 14.6 6 17.9-.6 2.5-4.8 1.4-10.5 1.6-15.7-.3-7 .6-14-.6-21-1.2-6.4-8.9-9.3-14.5-6.8zm-69.6 22.4c6.6-11.5 14.4-22.2 21.4-33.4h15.1c-5.1 7.7-10.1 15.5-15.3 23.2 5.4-.2 11.2.7 15.4 4.4 8.9 7.1 10.8 20.5 5.9 30.5-3.1 6.1-8.6 11-15.3 12.7-6.9 1.8-14.6.8-20.5-3.3-10.7-7.3-13.3-23.2-6.7-34.1m17.8 2c-7.4 1.6-10.8 10.8-7.4 17.2 2.4 5.6 9.4 8.6 15 6 7.5-3.1 9.1-14 3.9-19.8-2.8-3.2-7.4-4.3-11.5-3.4zm-251-16.4c8.7-3.6 18.5-4 27.6-1.9-.4 1.8-.8 3.7-1.2 5.6-6.7-1-13.6-1.5-20.1.5v46.1h-6.7V45.2c0-1.5-.2-3.2.4-4.7zm34.1-1.4c7.9-2.1 16.9-3.5 24.5.2 5.9 2.9 8.3 9.7 8.4 15.9.1 11.5 0 23 .1 34.4-7.4 1.5-15 2.7-22.6 2.1-4.5-.4-9.2-1.8-12.3-5.2-3.8-4.1-4.6-10.2-3.4-15.5 1.1-4.8 5-8.4 9.5-10 7.1-2.5 14.8-2.2 22-.5-.1-5.6.2-12.6-5.4-15.8-6.2-3.2-13.6-1.6-19.9.4-.3-1.9-.6-4-.9-6m6.2 27.9c-7.1 3.2-6.7 15.2.8 17.8 6.2 2.1 12.9 1 19.2.4V66.6c-6.5-1.7-13.7-2.5-20 .4zM240 44.6c7.7-9.5 24.1-10.2 32.1-.8 5 6.2 5.5 14.5 5.2 22.2-12.3.1-24.6 0-36.9 0 .5 6.4 2.1 14 8.2 17.4 7.4 3.9 16.4 2.8 23.9-.2.4 2 .8 4 1.1 5.9-8.6 3.2-18.5 4.1-27.1.4-6.2-2.7-10.6-8.7-12-15.2-2.3-10-1.4-21.6 5.5-29.7m7.2 2c-4.1 3.4-6 8.7-6.4 13.8 9.9-.7 19.9-.2 29.9-.4-.5-4.4-1.1-9.1-4.1-12.6-4.8-5.6-14.1-5.7-19.4-.8z" style="fill:#1f2427"/></svg>