<svg version="1.1" id="图层_1" xmlns="http://www.w3.org/2000/svg" x="0" y="0" viewBox="0 0 660 100" style="enable-background:new 0 0 660 100" xml:space="preserve"><style>.st0{fill:#0089cf}</style><g id="_x23_0089cfff"><path class="st0" d="M544.5.6c5.9-2 12.8 3.1 11.7 9.4-.6 7.1-10.4 9.9-15.3 5.2C536 11 538.1 1.9 544.5.6zM363 16c1.8-7 8.3-11.9 15.2-13.5 10.2-2.3 21.4-.9 30.7 4-1.5 4.3-3.1 8.6-4.6 12.9-6.5-2.6-13.8-4.9-20.8-3-3.1.7-5.1 4.5-3.3 7.2 1.9 2.2 4.8 3 7.4 3.9 6.9 2.1 14.1 4.2 19.4 9.4 5.5 5.7 6.1 14.8 3.2 21.9-3.1 7-10.6 11-18 12-10.5 1.4-21.6 0-31-5 1.5-4.4 3.1-8.7 4.6-13.1 6.7 3 14.1 4.9 21.4 4.1 3.1-.4 7.1-2.2 6.9-5.9.2-3.4-3.5-4.8-6.1-5.8-6.9-2.3-14.5-3.9-20.1-9-5.5-4.9-6.6-13.2-4.9-20.1zM.9 25.3c0-11.5 9.6-22.1 21.2-22.6 12.2-.3 24.5 0 36.7-.1C51.1 24.2 43.3 46 35.6 67.7c-11.4-10.6-15.1-28.1-9-42.5-8.6.1-17.2.1-25.7.1zm56.9 0c2.7-7.6 5.4-15.1 8.1-22.8h32.9c.3 11-8.6 21.3-19.6 22.5-7.2.6-14.3.1-21.4.3zm70.8-19.6c3-2.3 6.9-2.9 10.6-2.9h44.4c-.4 5-2.6 10-7 12.6-4.5 3-10.1 2-15.2 2.1V70h-18V17.5h-20.7c.1-4.6 2-9.2 5.9-11.8zm160.7-3.2h16V70h-15c-.1-1.5-.2-3-.3-4.6-7.2 8.9-22.3 7.4-28.8-1.5-5.5-7.2-6.4-17.2-3.9-25.7 2.6-8.5 10.6-15.7 19.7-15.3 4.6-.3 9 1.8 12.3 5V2.5m-10.8 35.1c-4.8 1.3-7.2 6.8-6.3 11.4.5 5.5 6.5 9.5 11.7 7.6 6.6-2 8.1-11.4 3.9-16.4-2.2-2.6-6-3.6-9.3-2.6zm139.8-25.1h16v11.8h15c-.5 3.5-1.5 7.2-4.4 9.6-2.8 2.8-6.9 3.3-10.6 3.3.5 5.8-.9 12 1 17.6 2.7 4.1 8.6 2.1 12.4.8.5 4.5 1.1 9 1.6 13.5-6.8 2.5-14.5 3.4-21.5 1.3-5.3-1.7-8.6-6.9-9.1-12.3-.7-6.9-.1-13.9-.3-20.9h-4.5V24.4h4.5c-.1-4.1-.1-8-.1-11.9zm85 0h16v11.8c4.9 0 9.8 0 14.7.1-.4 4-1.9 8.1-5.4 10.4-2.6 2.1-6.1 2.3-9.4 2.3.1 4.9-.1 9.8.1 14.8.1 2 1 4.2 3.1 4.8 3.4.9 6.8-.1 10-1.2.5 4.5 1.1 8.9 1.6 13.4-7.1 2.7-15.4 3.7-22.6.9-5.5-2.2-8.1-8.2-8.2-13.8-.1-6.3 0-12.6 0-18.9h-4.8V24.4h4.8c.1-4.1.1-8 .1-11.9zM212.1 26.4c8.5-3.6 18.4-4.7 27.2-1.6 6.7 2.4 11 9.1 11.5 16.1.6 9.7.1 19.5.3 29.2h-14.8c0-1 .1-2.9.1-3.9-5.8 6.1-15.9 7.1-23 2.8-8-5.3-7.5-19 .6-24 6.6-4.4 15.1-3.4 22.3-1.3-.9-2.7-1.8-5.9-4.7-7-6.5-2.5-13.7-.4-19.4 3-.1-4.5-.2-8.9-.1-13.3m10.8 27.7c-2 4.2 3 7.7 6.8 6.4 3.8-.7 5.6-4.5 6.4-8-4.2-1.3-10.3-2.7-13.2 1.6zm91.8-21.5c4.2-6.3 11.9-9.8 19.4-9.6 6.8-.3 14 2.2 18.1 7.8 4.4 5.8 5.2 13.5 4.1 20.5-10.1.1-20.2-.1-30.2.1 1.5 3 3.8 5.7 7.1 6.6 7.2 1.9 14.8.6 21.6-2.1v12.8c-8.9 3-18.6 3.8-27.7 1.3-7.6-2.1-14.1-8.2-15.9-16-1.5-7.2-.8-15.3 3.5-21.4m11.2 8.9c5.4 0 10.7.1 16.1-.1-.8-4.1-4.4-8-8.9-7.1-4 .2-6.2 3.8-7.2 7.2zm131.2-15.1c8.5-3.7 18.4-4.7 27.2-1.6 6.7 2.4 11 9.1 11.4 16.1.6 9.7.1 19.5.3 29.2h-14.8c0-1 .1-3 .1-3.9-5.6 6-15.3 7-22.4 3.2-6-3.4-7.6-11.5-5.4-17.6 2-5.6 7.7-9 13.4-9.7 4.8-.8 9.6.4 14.2 1.7-.8-2.8-1.9-5.9-4.8-7.1-6.4-2.5-13.6-.4-19.4 3 .2-4.5.1-8.9.2-13.3m14.4 25.1c-2 .5-4.3 2.1-4 4.5-.3 3.9 4.8 5.7 7.9 4.3 3.5-1 4.8-4.6 5.7-7.7-3.1-1-6.4-1.9-9.6-1.1zm107-27.9c8.6-1.8 18.4-.1 24.7 6.3 9 8.7 9.3 24.7.6 33.8-9.7 10.5-28.5 10.3-38-.4-7.2-8-7.9-20.7-2-29.6 3.3-5.2 8.8-8.7 14.7-10.1m4 14c-6.5 1.8-8.5 10.6-4.8 15.7 2.8 4.3 9.5 5 13.1 1.6 3.4-3.2 4.1-8.7 2-12.8-1.7-3.8-6.4-5.7-10.3-4.5zm47.5-8.2c5-7.6 16.7-8.5 23.6-3.1 5.7 5.2 5.5 13.6 5.4 20.7v23h-16V47c-.1-2.5 0-5.3-1.5-7.5-2.1-3-7.1-3-9.3-.1-1.8 2.1-1.9 5-2 7.6v23.1h-16V24.3H630c.1 1.7 0 3.4 0 5.1z"/><path class="st0" d="M175.3 24.3h15.5l.3 6c2.8-5.6 9.3-7.8 15.2-6.5v15.7c-3.6-.9-7.9-1.9-11.1.6-3.1 2.3-3.8 6.4-3.9 10v20h-16V24.3zm363.8 0h16.2c.1 15.2 0 30.5 0 45.8h-16.2V24.3zM31.2 99.9C39.1 77.6 47.1 55.3 55 33c5.6 4.8 10.1 11 12.2 18.1 3.7 11.9 1.2 25.6-6.9 35.2-7 8.6-18 13.6-29.1 13.6z"/></g></svg>