<svg xmlns="http://www.w3.org/2000/svg" viewBox="0 0 1000 320" style="enable-background:new 0 0 1000 320" xml:space="preserve"><path d="M102.5 10h301.8v300H102.5V10m193.8 86.3c-1.9.3-3.2 1.8-4.5 3-10.6 9.8-22 18.7-33.6 27.2-9.3-5.1-18.7-9.9-28.3-14.5-1.4-.6-2.8-1.5-4.4-1-30.6 6.1-61.1 12.2-91.7 18.3 25.7 6.8 50.8 15.6 74.8 26.9-27.7 14.7-57.4 25.4-87.7 33.5 29.9 6.1 59.9 11.9 89.8 18 1.6.3 3.3.8 4.8-.1 14.9-7 29.5-14.8 43.6-23.3 16.5 10.9 32.2 23 46.7 36.4 1.2 1.2 2.7 2 4.3 2.2 25.4 4.7 50.8 9.7 76.2 14.3-23.5-31.8-52.3-59.4-84.3-82.6 26.8-21.1 51-45.5 71.3-72.9-25.6 4.9-51.3 9.7-77 14.6z" style="fill:#f8313e"/><path d="M648.2 24.4h45.2v42.3h23.3v34.4h-23.2v48.3c0 6-.3 12.1 1.2 17.9.8 3 2.4 5.9 5.2 7.3 5 2.8 10.9 2 16.3 1.9v29.1c-14 3-28.9 5.2-43 1.5-8.7-2.2-16.5-7.9-20.6-15.9-4.7-9.1-5-19.7-4.4-29.7.1-20.1 0-40.2 0-60.3h-18.5V66.8h18.5V24.4zm104.8.1c15.1-.1 30.2 0 45.3-.1v59.4c6.3-9.6 16.2-16.7 27.4-19.4 15.1-3.7 32-1.2 44.5 8.2 14.8 10.8 23 28.4 25.9 46.1 2.8 18.1 1.8 37.1-5.1 54.2-5.2 12.9-14.6 24.4-27.2 30.7-11.7 5.9-25.4 7.1-38.1 4.1-11.4-2.8-21.2-10.5-27.3-20.4.1 6.1 0 12.2 0 18.3h-45.5c.1-60.4.1-120.7.1-181.1m64.6 74.8c-7.6 1.8-13.6 8-16.4 15.1-3.5 8.5-3.8 17.9-3.2 27 .7 8.7 2.7 17.9 8.7 24.6 6.9 7.5 18.8 8.6 27.9 4.7 6.8-3.1 11.2-9.8 13.4-16.7 2.4-7.8 2.9-16.2 2.4-24.3-.7-9.1-3.3-18.6-10-25.1-6-5.8-15-7.4-22.8-5.3zM458.3 66.8H512c6.3 11 12.6 22.1 18.9 33.1 6.4-11.1 12.9-22.1 19.4-33.1h53.2c-15.7 22.1-31.3 44.3-46.9 66.4 16.3 24 32.7 48 49 72.1h-53.2c-7.3-12.6-14.5-25.2-21.7-37.8-7.1 12.6-14.1 25.2-21.2 37.8h-53c16.2-24.1 32.6-48.1 48.8-72.2-15.8-22-31.4-44.1-47-66.3zm83.2 170.4h4.5v50.6h-4.5v-50.6zm16 0h4.5v6.7h-4.5v-6.7zm223.5 0h4.5v50.6H781v-5.6c-4.6 7.4-15.6 8.7-22.3 3.6-4.1-3.2-5.9-8.4-6.3-13.4-.5-6 .5-12.7 4.7-17.4 6.3-6.8 19.3-6.2 24 2.2-.3-6.6-.1-13.3-.1-20m-15.3 17.6c-5.2 1.2-8.2 6.5-8.6 11.5-.5 5.5-.1 11.9 4.2 15.8 5.2 4.7 15 3.6 18-3.1 2.7-5.8 2.7-12.8 0-18.6-2.3-5.1-8.5-7-13.6-5.6zm31-17.5h4.2v6.7h-4.2v-6.7zm-124 14.1V241h4.2v10.5h6.8v3.7h-6.8c.1 9.3-.3 18.6.2 27.9.3 3.5 4.5 1.6 6.6 1.4 0 .9-.1 2.8-.1 3.8-2.8.3-5.9 1.2-8.5 0-2.3-1.1-2.5-3.9-2.4-6.1v-26.9c-1.7 0-3.4-.1-5.1-.1 0-1.2 0-2.5.1-3.7 1.7-.1 3.4-.1 5-.1zm-201-.5c5.7-1.2 12.4-.2 16.6 4.2 4.2 4.6 5 11.2 4.6 17.1-.4 5.9-3 12.3-8.6 14.9-7.2 3.4-17.5 2.1-21.9-5.2-3.4-5.6-3.5-12.7-2.3-19 1.1-5.8 5.6-11 11.6-12m1 4c-4.8 1-7.6 5.8-8.3 10.3-.8 4.9-.6 10.4 2.1 14.8 3.9 6.3 14 6.7 18.6 1.1 2.5-3.1 3.2-7.2 3.3-11 0-4.3-.7-9-3.8-12.1-3-3.4-7.8-4.2-11.9-3.1zm33.5 1.6c4.2-6.6 14-7.9 20.4-3.7 3.1 2 4 5.9 3.9 9.3v25.7H526v-23.6c-.1-2.7-.2-5.7-2.1-7.7-3.1-2.7-7.8-2.6-11.5-1.1-4.1 1.8-6.1 6.4-6.1 10.7-.1 7.3 0 14.5 0 21.8h-4.5v-36.4h4.5c-.1 1.6-.1 3.3-.1 5zm71.1 0c2.4-2.7 5.2-5.4 9-5.8 6.1-1.3 14.6 1.4 15.3 8.6.4 9.5 0 19 .2 28.5h-4.3c-.1-7.9.2-15.7-.1-23.6-.2-3.1-.5-7-3.5-8.7-4.7-2.2-11.1-1.2-14.1 3.2-2 2.7-2.2 6.2-2.3 9.4v19.8h-4.2v-36.4h4.3c-.1 1.6-.2 3.3-.3 5zm35.8 1.6c4.2-8.7 17.2-10.1 24.1-3.9 4.3 4.3 5.2 10.6 5.1 16.4h-27.2c.3 3.4.7 7 2.8 9.8 3.7 5.7 13.2 6 17.4.7 1.2-1.4 1.6-3.2 2.2-4.8 1.5 0 2.9 0 4.4.1-.7 3-1.7 6.1-4 8.4-7 6.5-20.4 5.5-24.8-3.5-3.4-7.2-3.4-16.1 0-23.2m5.7-.4c-2.5 2.4-3.2 5.9-3.8 9.2h22.7c-.5-3.2-1.1-6.6-3.3-9.1-3.9-4.5-11.6-4.5-15.6-.1zm77.5-.8c2-4.4 6.7-6.6 11.4-6.6 0 1.6 0 3.2.1 4.7-5.2-.5-10.4 3-11 8.3-1 8.1-.2 16.3-.5 24.5h-4.5v-36.3h4.5c-.1 1.7 0 3.6 0 5.4zm21.5-2.2c4.4-4.6 11.6-5 17.5-3.5 4.1.9 7.4 4.6 7.5 8.9.5 8 0 16.1.3 24.1 1.3.2 2.6.4 3.9.5v3.3c-2.3.1-4.9.6-6.8-.8-1.3-.9-1.3-2.7-1.8-4-5.1 5.2-13.5 7.3-20.2 3.9-6.4-3.3-6.8-13.9-.4-17.5 6.2-4 14.6-.9 20.7-5.2 0-3.2.1-7.3-3.3-9-4-1.6-9.1-1.6-12.8.8-2.1 1.3-2.6 3.9-3.2 6.1h-4.3c.2-2.7.8-5.6 2.9-7.6m2.3 18.4c-3.7 2.6-3 9 1.2 10.8 5.1 2 11.7.7 15.1-3.8 2.5-3.1 2.1-7.3 1.8-11.1-5.9 1.9-12.9.1-18.1 4.1zm96.3-16c3.8-7.3 14.5-8.7 20.8-4 3.2 2.2 3.8 6.4 3.8 10v24.7h-4.5v-23.7c-.1-3-.4-6.6-3.2-8.4-6.1-3.6-15.4 0-16.2 7.4-.8 8.2-.1 16.5-.3 24.7h-4.5v-36.4h4.2c0 1.9 0 3.8-.1 5.7zm38.5-2.3c6.4-6.6 19-5.8 23.7 2.4-.1-1.9-.1-3.9-.1-5.8h4.5V285c0 5.1-1 11-5.3 14.3-5.2 3.9-12.4 4.2-18.4 2.5-4.7-1.1-8-5.3-8.4-10.1h4.4c.8 2.7 2.3 5.3 5.2 6.1 5.2 1.7 11.9 1.1 15.6-3.3 2.8-3.5 2.5-8.3 2.6-12.6-4.7 8.2-17.3 9-23.8 2.5-3.7-3.8-4.9-9.3-5-14.4-.2-5.3 1-11.2 5-15.2m8.8-.1c-5.4.9-8.7 6.3-9.1 11.4-.5 5.2-.2 11.1 3.4 15.2 4.5 5 13.7 4.8 17.7-.7 2.7-3.5 3.2-8.2 3-12.5-.2-4-1.3-8.3-4.5-11-2.7-2.5-6.9-3.1-10.5-2.4zm-306.2-3.3h4.5v36.4h-4.5v-36.4zm239.2 0h4.2v36.4h-4.2v-36.4z"/></svg>