<svg width="100pt" height="100pt" viewBox="0 0 100 100" xmlns="http://www.w3.org/2000/svg"><path fill="#1a4b9e" d="M17.6 0h65.7c3.64 1.34 7.47 2.6 10.4 5.25 3.07 2.64 5.08 6.31 6.3 10.13v70.99c-2.53 6.16-7.4 11.12-13.58 13.63H15.36C7.41 98.11 1.83 91.15 0 83.43v-66.7c1.54-4.03 3.29-8.2 6.57-11.16C9.61 2.66 13.68 1.26 17.6 0m16.25 16.7c-8.16 3.42-15.54 10.36-16.88 19.44 11.68.42 23.38.15 35.06.13.55 7.93.3 15.89.37 23.83 2.65-.61 4.15-3.01 5.77-4.98 3.43-4.54 7.94-8.09 11.48-12.53 3.44-4.21 7.84-7.75 10.38-12.62-.38-2.45-2.35-4.28-3.93-6.07-10.83-10.8-28.42-13.44-42.25-7.2m-1.32 39.82c-3.6 3.76-6.97 7.75-10.34 11.72-.88 1.27-2.7 2.94-1.17 4.47 9.62 13.82 29.23 17.63 44.41 11.75 8.49-3.26 16.39-10.21 18.03-19.51-11.76-.5-23.53-.19-35.29.03.38-8.24.04-16.5 0-24.74-5.88 4.73-10.51 10.78-15.64 16.28z"/><g fill="#f8f8f8"><path d="M33.85 16.7c13.83-6.24 31.42-3.6 42.25 7.2 1.58 1.79 3.55 3.62 3.93 6.07-2.54 4.87-6.94 8.41-10.38 12.62-3.54 4.44-8.05 7.99-11.48 12.53-1.62 1.97-3.12 4.37-5.77 4.98-.07-7.94.18-15.9-.37-23.83-11.68.02-23.38.29-35.06-.13 1.34-9.08 8.72-16.02 16.88-19.44z"/><path d="M32.53 56.52c5.13-5.5 9.76-11.55 15.64-16.28.04 8.24.38 16.5 0 24.74 11.76-.22 23.53-.53 35.29-.03-1.64 9.3-9.54 16.25-18.03 19.51-15.18 5.88-34.79 2.07-44.41-11.75-1.53-1.53.29-3.2 1.17-4.47 3.37-3.97 6.74-7.96 10.34-11.72z"/></g></svg>