<svg width="100pt" height="100pt" viewBox="0 0 100 100" xmlns="http://www.w3.org/2000/svg"><path fill="#093c83" d="M16.45 0h67.09c7.8 1.91 14 7.94 16.46 15.55v68.87c-2.44 7.61-8.62 13.7-16.45 15.58h-67.1C8.36 98.11 1.91 91.64 0 83.56V16.45C1.88 8.34 8.39 1.95 16.45 0m25.78 17.06c-8.22 1.8-15.67 6.82-20.66 13.56-7.23 9.82-8.25 23.67-2.97 34.59 3.32 7.1 9.58 12.3 16.32 16.03-.12-9.99.83-19.98.16-29.96-2.18 3.64-4.4 7.34-7.71 10.09-3.96-9.32-2.9-21.15 4.46-28.54 6.87-8.28 19.07-8.68 28.51-5.16.01-3.28 0-6.57-.01-9.86-5.91-1.38-12.11-2.13-18.1-.75m20.53 2.07c-.47 9.82-.47 19.67 0 29.49 2.41-3.07 4.73-6.22 7.44-9.04 4.18 3.88 4.73 10 3.83 15.34-1.7 8.79-8.04 16.82-16.76 19.46-6.49 2.33-13.44.82-19.78-1.22.09 3.06.14 6.12.2 9.18 8.83 1.99 18.68 2.6 26.92-1.76 7.47-3.86 13.78-10.32 16.76-18.25 3.2-8.8 3.21-19.02-1.28-27.39-3.51-7.26-10-12.67-17.33-15.81M35.03 50.45c6.1 3.36 10.71 8.68 14.03 14.73 2.79-6.51 8.04-11.41 14.04-14.98-5.92-3.26-10.84-8.08-13.69-14.25-3.58 5.91-8.48 10.89-14.38 14.5z"/><g fill="#f3f3f4"><path d="M42.23 17.06c5.99-1.38 12.19-.63 18.1.75.01 3.29.02 6.58.01 9.86-9.44-3.52-21.64-3.12-28.51 5.16-7.36 7.39-8.42 19.22-4.46 28.54 3.31-2.75 5.53-6.45 7.71-10.09.67 9.98-.28 19.97-.16 29.96-6.74-3.73-13-8.93-16.32-16.03-5.28-10.92-4.26-24.77 2.97-34.59 4.99-6.74 12.44-11.76 20.66-13.56z"/><path d="M62.76 19.13c7.33 3.14 13.82 8.55 17.33 15.81 4.49 8.37 4.48 18.59 1.28 27.39-2.98 7.93-9.29 14.39-16.76 18.25-8.24 4.36-18.09 3.75-26.92 1.76-.06-3.06-.11-6.12-.2-9.18 6.34 2.04 13.29 3.55 19.78 1.22 8.72-2.64 15.06-10.67 16.76-19.46.9-5.34.35-11.46-3.83-15.34-2.71 2.82-5.03 5.97-7.44 9.04-.47-9.82-.47-19.67 0-29.49z"/><path d="M35.03 50.45c5.9-3.61 10.8-8.59 14.38-14.5 2.85 6.17 7.77 10.99 13.69 14.25-6 3.57-11.25 8.47-14.04 14.98-3.32-6.05-7.93-11.37-14.03-14.73z"/></g></svg>