<svg width="100pt" height="100pt" viewBox="0 0 100 100" xmlns="http://www.w3.org/2000/svg"><path fill="#866f47" d="M16.76 0h66.38c4 1.18 8.07 2.77 11.04 5.82 2.88 2.78 4.47 6.54 5.82 10.23v67.24c-1.11 3.99-2.78 7.97-5.82 10.89-2.93 3.06-6.97 4.62-10.94 5.82H18.37C9.09 99.38 1.28 91.7 0 82.57v-64.2C.57 9.23 7.99 1.83 16.76 0m14.22 19.15c10.51.63 21.08-.36 31.55.49 7.86 3.02 13.82 9.97 17.09 17.6 2.41 5.21 2.17 11.06 2.24 16.66-1.56 15.25-15.54 27.91-30.83 28.28-6.57.57-12.75-2.59-19.34-1.92 11.39 6.73 26.44 6.25 37.39-1.14 10.37-6.66 16.32-19 16.31-31.17-.6-14.38-10.91-27.26-24.26-32.16-9.81-3.99-21.36-2.4-30.15 3.36m-10.53 9.19c7.41.34 14.82-.32 22.24-.13.67-1.21 1.34-2.41 2.01-3.62-6.54.03-13.07.46-19.6.15-2.31-.28-3.26 2.26-4.65 3.6m-5.5 10.14c8.88-.48 17.82.51 26.65-.79.04-1.09.09-2.18.13-3.27-7.22-1.06-14.53-.82-21.81-.74-2.87-.36-3.76 2.89-4.97 4.8m-1.35 4.95c0 1 0 2.99.01 3.99 9.26-.14 18.52-.14 27.79 0v-4c-9.27.12-18.54.11-27.8.01m29.45.14c4.68 4.48 9.71 8.57 14.24 13.21-.18-4.45-.06-8.9.22-13.34-4.82.09-9.64 0-14.46.13m-29.45 9c-.01.99-.02 2.97-.02 3.96 9.32-.01 18.65-.08 27.97.05-.02-.99-.07-2.97-.09-3.95-9.29.03-18.58.12-27.86-.06m1.82 9.98c1.26 1.22 2.19 2.95 3.86 3.67 6.25.76 12.47-.7 18.72-.59 6.12.01 12.24.01 18.36.02.01-.81.05-2.44.07-3.25-13.67.21-27.35-.48-41.01.15m5.43 9.13c1.8 1.43 3.55 3.54 6.09 3.33 7.67 0 15.35.04 23.02-.02 2.27.16 3.71-1.87 5.34-3.09-11.48-.25-22.97-.01-34.45-.22z"/><g fill="#f4f4f4"><path d="M30.98 19.15c8.79-5.76 20.34-7.35 30.15-3.36 13.35 4.9 23.66 17.78 24.26 32.16.01 12.17-5.94 24.51-16.31 31.17-10.95 7.39-26 7.87-37.39 1.14 6.59-.67 12.77 2.49 19.34 1.92 15.29-.37 29.27-13.03 30.83-28.28-.07-5.6.17-11.45-2.24-16.66-3.27-7.63-9.23-14.58-17.09-17.6-10.47-.85-21.04.14-31.55-.49z"/><path d="M20.45 28.34c1.39-1.34 2.34-3.88 4.65-3.6 6.53.31 13.06-.12 19.6-.15-.67 1.21-1.34 2.41-2.01 3.62-7.42-.19-14.83.47-22.24.13zm-5.5 10.14c1.21-1.91 2.1-5.16 4.97-4.8 7.28-.08 14.59-.32 21.81.74-.04 1.09-.09 2.18-.13 3.27-8.83 1.3-17.77.31-26.65.79zm-1.35 4.95c9.26.1 18.53.11 27.8-.01v4c-9.27-.14-18.53-.14-27.79 0-.01-1-.01-2.99-.01-3.99zm29.45.14c4.82-.13 9.64-.04 14.46-.13-.28 4.44-.4 8.89-.22 13.34-4.53-4.64-9.56-8.73-14.24-13.21zm-29.45 9c9.28.18 18.57.09 27.86.06.02.98.07 2.96.09 3.95-9.32-.13-18.65-.06-27.97-.05 0-.99.01-2.97.02-3.96zm1.82 9.98c13.66-.63 27.34.06 41.01-.15-.02.81-.06 2.44-.07 3.25-6.12-.01-12.24-.01-18.36-.02-6.25-.11-12.47 1.35-18.72.59-1.67-.72-2.6-2.45-3.86-3.67zm5.43 9.13c11.48.21 22.97-.03 34.45.22-1.63 1.22-3.07 3.25-5.34 3.09-7.67.06-15.35.02-23.02.02-2.54.21-4.29-1.9-6.09-3.33z"/></g></svg>