<svg width="100pt" height="100pt" viewBox="0 0 100 100" xmlns="http://www.w3.org/2000/svg"><g fill="#e8e8e8"><path d="M16.48 0h67.03C91.49 1.54 97.66 7.86 100 15.5v68.97A23.394 23.394 0 0 1 84.49 100H15.53C8.11 97.75 2.27 91.89 0 84.49V16.48C1.65 8.29 8.28 1.64 16.48 0m15.18 24.73c-6.21 1.89-12.65 4.88-16.43 10.39-1.93 3.97-1.49 9.56 2.22 12.39 6.46 5.97 15.43 7.08 23.71 8.56-2.22 1.87-4.75 3.27-7.11 4.91 4.97 3.2 10.25 6.27 15.94 7.96 6.16-2.26 12.24-5.08 17.84-8.51-5.21-2.21-10.51-4.2-15.74-6.35-5.59-2.37-12-.91-17.53-3.47-4.76-1.88-9.35-6.1-9.09-11.62-.39-3.87 2.75-6.86 5.81-8.65 10.57-5.73 23.63-6.68 34.96-2.76 5.53 1.83 9.39 6.51 11.53 11.76 3.71.64 7.52.48 11.27.4-.1-6.85-6.55-11.09-12.24-13.4-14.44-5.04-30.34-5.23-45.14-1.61m18.15 8.12c-5.61 2.23-11 5-16.46 7.57 4.02 2.29 8.55 3.47 12.74 5.4 5.43 2.45 11.56 2.01 17.16 3.8 3.99 1.19 8.19 2.98 10.51 6.63 2.05 3.32 2.59 8.21-.35 11.19-4.49 4.76-11.13 6.7-17.42 7.6-9.34 1.1-19.74.4-27.38-5.67-2.59-1.92-3.55-5.14-5.24-7.75-3.69-.59-7.47-.4-11.18-.19.36 6.99 7.16 11.01 12.92 13.45 14.58 5.49 30.93 5.24 45.81 1.04 6.86-2.06 14.46-5.91 16.57-13.34.85-5.08-3.19-9.42-7.27-11.8-6.09-3.99-13.5-4.18-20.35-5.82 2.12-2 4.93-2.99 7.13-4.89-3.42-2.46-7.44-3.87-11.1-5.91-1.89-.86-3.97-2.37-6.09-1.31z"/><path d="M43.55 40c2.49-1.9 5.99-4.83 9.21-2.89 1.38.77 2.64 1.75 3.75 2.87-1.11 2.03-3.52 3.06-5.67 3.63-2.79-.18-5.2-1.9-7.29-3.61zm.9 20.95c2.15-1.62 4.73-4.48 7.68-3.15 1.78.85 4.19 1.67 4.64 3.84-2.04 1.18-4.16 2.47-6.54 2.73-2.2-.59-4.05-2-5.78-3.42z"/></g><path fill="#279343" d="M31.66 24.73c14.8-3.62 30.7-3.43 45.14 1.61 5.69 2.31 12.14 6.55 12.24 13.4-3.75.08-7.56.24-11.27-.4-2.14-5.25-6-9.93-11.53-11.76-11.33-3.92-24.39-2.97-34.96 2.76-3.06 1.79-6.2 4.78-5.81 8.65-.26 5.52 4.33 9.74 9.09 11.62 5.53 2.56 11.94 1.1 17.53 3.47 5.23 2.15 10.53 4.14 15.74 6.35-5.6 3.43-11.68 6.25-17.84 8.51-5.69-1.69-10.97-4.76-15.94-7.96 2.36-1.64 4.89-3.04 7.11-4.91-8.28-1.48-17.25-2.59-23.71-8.56-3.71-2.83-4.15-8.42-2.22-12.39 3.78-5.51 10.22-8.5 16.43-10.39m12.79 36.22c1.73 1.42 3.58 2.83 5.78 3.42 2.38-.26 4.5-1.55 6.54-2.73-.45-2.17-2.86-2.99-4.64-3.84-2.95-1.33-5.53 1.53-7.68 3.15z"/><path fill="#1d549d" d="M49.81 32.85c2.12-1.06 4.2.45 6.09 1.31 3.66 2.04 7.68 3.45 11.1 5.91-2.2 1.9-5.01 2.89-7.13 4.89 6.85 1.64 14.26 1.83 20.35 5.82 4.08 2.38 8.12 6.72 7.27 11.8-2.11 7.43-9.71 11.28-16.57 13.34-14.88 4.2-31.23 4.45-45.81-1.04-5.76-2.44-12.56-6.46-12.92-13.45 3.71-.21 7.49-.4 11.18.19 1.69 2.61 2.65 5.83 5.24 7.75 7.64 6.07 18.04 6.77 27.38 5.67 6.29-.9 12.93-2.84 17.42-7.6 2.94-2.98 2.4-7.87.35-11.19-2.32-3.65-6.52-5.44-10.51-6.63-5.6-1.79-11.73-1.35-17.16-3.8-4.19-1.93-8.72-3.11-12.74-5.4 5.46-2.57 10.85-5.34 16.46-7.57M43.55 40c2.09 1.71 4.5 3.43 7.29 3.61 2.15-.57 4.56-1.6 5.67-3.63-1.11-1.12-2.37-2.1-3.75-2.87-3.22-1.94-6.72.99-9.21 2.89z"/></svg>