<svg width="100pt" height="100pt" viewBox="0 0 100 100" xmlns="http://www.w3.org/2000/svg"><path fill="#b69b5f" d="M16.45 0h66.99C91.61 1.55 98.31 8.1 100 16.25v67.51C98.29 91.87 91.69 98.4 83.56 100H16.23C8.2 98.3 1.71 91.79 0 83.76V17.07C1.1 8.55 8.13 1.66 16.45 0m32.03 14.63c2.13 9.57.45 19.71-3.27 28.67-6.24 13.21-18.36 22.8-31.51 28.61-.01 2.16-.03 4.32-.07 6.48 21.48-.85 42.99-.11 64.48-.46 4.84-.53 9.67-4.8 8.87-10.01-.72-4-2.98-7.61-5.59-10.66-1.87 1.4-3.81 2.7-5.82 3.88 1.44 2.67 3.24 5.15 4.3 8.01-2.32 2.44-5.81 1.6-8.8 1.73-13.99-.01-27.97-.04-41.96.01 5.5-3.24 10.69-7.07 14.98-11.83C52.83 49.01 57.9 35.67 57.22 22.3c1.5.02 3 .03 4.51.05-.21 11.58 2.36 23.61 9.44 33.03 2.12-1.29 4.23-2.6 6.13-4.19-3.32-5.2-5.79-10.98-6.73-17.09-.5-6.37-1.69-12.68-1.39-19.1-6.9-.08-13.8-.42-20.7-.37z"/><path fill="#f8f8f8" d="M48.48 14.63c6.9-.05 13.8.29 20.7.37-.3 6.42.89 12.73 1.39 19.1.94 6.11 3.41 11.89 6.73 17.09-1.9 1.59-4.01 2.9-6.13 4.19-7.08-9.42-9.65-21.45-9.44-33.03-1.51-.02-3.01-.03-4.51-.05.68 13.37-4.39 26.71-13.13 36.76-4.29 4.76-9.48 8.59-14.98 11.83 13.99-.05 27.97-.02 41.96-.01 2.99-.13 6.48.71 8.8-1.73-1.06-2.86-2.86-5.34-4.3-8.01 2.01-1.18 3.95-2.48 5.82-3.88 2.61 3.05 4.87 6.66 5.59 10.66.8 5.21-4.03 9.48-8.87 10.01-21.49.35-43-.39-64.48.46.04-2.16.06-4.32.07-6.48 13.15-5.81 25.27-15.4 31.51-28.61 3.72-8.96 5.4-19.1 3.27-28.67z"/></svg>