<svg width="100pt" height="100pt" viewBox="0 0 100 100" xmlns="http://www.w3.org/2000/svg"><g fill="#0d2649"><path d="M16.44 0h67.11c3.62 1.2 7.26 2.72 10.09 5.35C96.6 8.1 98.45 11.8 100 15.47v69.04c-1.56 3.68-3.4 7.38-6.36 10.14-2.81 2.65-6.46 4.16-10.08 5.35H16.45C8.35 98.11 1.91 91.65 0 83.56V16.44c1.21-3.86 2.9-7.72 5.84-10.6C8.73 2.92 12.59 1.26 16.44 0M49 15.01c-2.94 4.4-4.38 9.58-6.6 14.34-3.94 8.36-8.05 16.66-11.54 25.22-3.24.04-6.52-.33-9.72.31-2.12.93-1.35 3.43-1.65 5.24 2.63 1.44 5.61 1.28 8.5 1.08-2.76 5.33-5.19 10.84-7.58 16.34-.88 1.7-.65 3.59-.38 5.4 1.77.15 3.93 1.15 5.41-.35 1.6-2.31 2.52-4.99 3.69-7.52 1.95-4.66 4.49-9.06 6.13-13.85 4.59.26 9.18.01 13.76-.3 6.42-.43 12.84.03 19.26-.04 3.09 6.83 6.18 13.68 9.42 20.43.94 2.76 4.07 2.12 6.26 1.66.31-2.07.18-4.19-.83-6.07-9.54-20.22-18.33-40.8-27.91-61-.8-2.65-4.79-3.28-6.22-.89z"/><path d="M50.38 29.28c1.02.05 2.04.1 3.06.14 3.42 6.4 5.88 13.25 9.3 19.65-7.42-.5-15.08.32-21.81 3.68 8.04 1.5 16.24.57 24.34 1.34-8.77 1.03-17.6.24-26.4.37 3.84-8.39 7.11-17.06 11.51-25.18z"/></g><path fill="#f1f1f1" d="M49 15.01c1.43-2.39 5.42-1.76 6.22.89 9.58 20.2 18.37 40.78 27.91 61 1.01 1.88 1.14 4 .83 6.07-2.19.46-5.32 1.1-6.26-1.66-3.24-6.75-6.33-13.6-9.42-20.43-.95-2.29-1.92-4.56-3.01-6.79-.82-1.68-1.68-3.35-2.53-5.02-3.42-6.4-5.88-13.25-9.3-19.65-1.02-.04-2.04-.09-3.06-.14-4.4 8.12-7.67 16.79-11.51 25.18-2.67.05-5.34.13-8.01.11 3.49-8.56 7.6-16.86 11.54-25.22 2.22-4.76 3.66-9.94 6.6-14.34z"/><path fill="#0e2749" d="M40.93 52.75c6.73-3.36 14.39-4.18 21.81-3.68.85 1.67 1.71 3.34 2.53 5.02-8.1-.77-16.3.16-24.34-1.34z"/><path fill="#db8f76" d="M30.86 54.57c2.67.02 5.34-.06 8.01-.11 8.8-.13 17.63.66 26.4-.37 1.09 2.23 2.06 4.5 3.01 6.79-6.42.07-12.84-.39-19.26.04-4.58.31-9.17.56-13.76.3-2.42-.08-4.84-.11-7.27-.02-2.89.2-5.87.36-8.5-1.08.3-1.81-.47-4.31 1.65-5.24 3.2-.64 6.48-.27 9.72-.31z"/><path fill="#fcfcfc" d="M27.99 61.2c2.43-.09 4.85-.06 7.27.02-1.64 4.79-4.18 9.19-6.13 13.85-1.17 2.53-2.09 5.21-3.69 7.52-1.48 1.5-3.64.5-5.41.35-.27-1.81-.5-3.7.38-5.4 2.39-5.5 4.82-11.01 7.58-16.34z"/></svg>