<svg width="100pt" height="100pt" viewBox="0 0 100 100" xmlns="http://www.w3.org/2000/svg"><path fill="#a27a24" d="M16.55 0h66.87c3.88 1.27 7.84 2.84 10.74 5.83 2.78 2.71 4.36 6.32 5.84 9.84v67.78c-1.19 3.91-2.84 7.84-5.83 10.72-2.88 3-6.84 4.57-10.71 5.83H16.55C8.37 98.19 1.84 91.65 0 83.48V16.55c1.18-3.92 2.85-7.83 5.83-10.72 2.89-3 6.84-4.57 10.72-5.83m30.41 9.72c-1.33 3.72-3.32 7.14-5.35 10.51 6.8.37 13.64.3 20.4 1.36-6.69-.21-13.38-.03-20.07.07-3.26-.14-5.75 2.27-8.21 4.05 8.75 1.11 17.63.32 26.32 1.88-14.05-.29-28.06 1.31-42.12.8-.11 1.15-.88 3.51 1.21 3.17 5.95.01 11.87.9 17.82.19 8.01.34 16.02 1.12 24.06.68-2.96.59-5.96.93-8.97.88-11.52.09-22.99.94-34.49 1.41-.22 1.72.46 3.53 2.49 3.37 13.31.75 26.69-.2 40 .46-3.67.15-7.34.08-11 .42-10.35.94-20.76.27-31.12.95-.08.86-.23 2.58-.31 3.44 14.34.3 28.68.29 43.02.19-.01.22-.02.65-.03.87-7.29-.06-14.6.16-21.8 1.45-.03.84-.08 2.51-.11 3.35 7.42.72 14.99-.38 22.31 1.26-7.38.18-14.76.1-22.14.35-.04.86-.11 2.57-.15 3.43 7.79.36 15.59.82 23.31 2.02-7.52.14-15.05-.16-22.57.06-.14 1.44-.27 2.88-.39 4.32 7.66-.08 15.33-.05 22.94.82-7.58.49-15.15 1.08-22.71 1.82l-.16 2.54c7.94.81 15.94.77 23.87 1.68-7.92.28-15.84.74-23.77.93l-.06 3.38c7.91.81 15.89.37 23.83.79-7.87 1.35-15.9.93-23.83 1.72.02 1.07.05 2.15.07 3.22 7.92.73 15.98.36 23.79 1.96-7.95-.11-15.92.12-23.85.62l.03 3.49c7.48.12 14.95.74 22.43.94-.01.21-.05.63-.06.85-7.47-.26-14.89.73-22.34 1.01-.01 1.42-.03 2.84-.03 4.26 9.59.08 19.18.37 28.78.31-.11-13.35.24-26.69-.03-40.02 1.12-13.58-.31-27.16-.25-40.74-6.92-.15-13.83-.82-20.76-.52z"/><path fill="#f7f7f6" d="M46.96 9.72c6.93-.3 13.84.37 20.76.52-.06 13.58 1.37 27.16.25 40.74.27 13.33-.08 26.67.03 40.02-9.6.06-19.19-.23-28.78-.31 0-1.42.02-2.84.03-4.26 7.45-.28 14.87-1.27 22.34-1.01.01-.22.05-.64.06-.85-7.48-.2-14.95-.82-22.43-.94l-.03-3.49c7.93-.5 15.9-.73 23.85-.62-7.81-1.6-15.87-1.23-23.79-1.96-.02-1.07-.05-2.15-.07-3.22 7.93-.79 15.96-.37 23.83-1.72-7.94-.42-15.92.02-23.83-.79l.06-3.38c7.93-.19 15.85-.65 23.77-.93-7.93-.91-15.93-.87-23.87-1.68l.16-2.54c7.56-.74 15.13-1.33 22.71-1.82-7.61-.87-15.28-.9-22.94-.82.12-1.44.25-2.88.39-4.32 7.52-.22 15.05.08 22.57-.06-7.72-1.2-15.52-1.66-23.31-2.02.04-.86.11-2.57.15-3.43 7.38-.25 14.76-.17 22.14-.35-7.32-1.64-14.89-.54-22.31-1.26.03-.84.08-2.51.11-3.35 7.2-1.29 14.51-1.51 21.8-1.45.01-.22.02-.65.03-.87-14.34.1-28.68.11-43.02-.19.08-.86.23-2.58.31-3.44 10.36-.68 20.77-.01 31.12-.95 3.66-.34 7.33-.27 11-.42-13.31-.66-26.69.29-40-.46-2.03.16-2.71-1.65-2.49-3.37 11.5-.47 22.97-1.32 34.49-1.41 3.01.05 6.01-.29 8.97-.88-8.04.44-16.05-.34-24.06-.68-5.95.71-11.87-.18-17.82-.19-2.09.34-1.32-2.02-1.21-3.17 14.06.51 28.07-1.09 42.12-.8-8.69-1.56-17.57-.77-26.32-1.88 2.46-1.78 4.95-4.19 8.21-4.05 6.69-.1 13.38-.28 20.07-.07-6.76-1.06-13.6-.99-20.4-1.36 2.03-3.37 4.02-6.79 5.35-10.51z"/></svg>