<svg width="100pt" height="100pt" viewBox="0 0 100 100" xmlns="http://www.w3.org/2000/svg"><g fill="#0ab45a"><path d="M15.46 0h69.08C91.88 2.26 97.76 8.06 100 15.44v69.11c-2.23 7.37-8.1 13.2-15.45 15.45h-69.1C8.09 97.76 2.25 91.91 0 84.56V15.45C2.24 8.08 8.1 2.25 15.46 0M41.5 23.43c-6.94 2.22-13.52 7.03-16.19 14.03-2.8 7.29-3.52 15.54-.92 23 2.32 8.56 10.24 14.75 18.78 16.27 8.76 1.62 18.77.23 25.44-6.13 3.75-3.33 5.64-8.08 7.46-12.62 1.82-.18 3.64-.35 5.45-.54.48-1.53.97-3.05 1.45-4.57-2.27-.1-4.54-.19-6.81-.3.16-1.27.33-2.53.49-3.8 2.13-.17 4.27-.35 6.4-.55.4-1.64.81-3.29 1.22-4.93-2.64-.2-5.27-.44-7.91-.62-1.76-5.11-3.63-10.54-7.95-14.08-7.33-6.28-17.81-7.26-26.91-5.16z"/><path d="M43.28 33.32c2.41-3.04 6.88-2.36 10.23-1.73 3.99 2.19 5.92 6.7 6.53 11.02-2.27.29-4.53.57-6.8.83l-1.59 5.18c3.12.05 6.24.11 9.37.2l-.15 3.9c-2.9-.03-5.84-.18-8.7.36-.96 1.5-1.24 3.3-1.71 4.99 3.18.16 6.37.23 9.55.29-.47 2.96-1 6.18-3.33 8.33-3.66 4.24-11.16 3.46-14.2-1.13-3.46-5.14-3.26-11.62-3.26-17.55-.04-5.1.53-10.71 4.06-14.69z"/></g><path fill="#f6f6f6" d="M41.5 23.43c9.1-2.1 19.58-1.12 26.91 5.16 4.32 3.54 6.19 8.97 7.95 14.08 2.64.18 5.27.42 7.91.62-.41 1.64-.82 3.29-1.22 4.93-2.13.2-4.27.38-6.4.55-.16 1.27-.33 2.53-.49 3.8 2.27.11 4.54.2 6.81.3-.48 1.52-.97 3.04-1.45 4.57-1.81.19-3.63.36-5.45.54-1.82 4.54-3.71 9.29-7.46 12.62-6.67 6.36-16.68 7.75-25.44 6.13-8.54-1.52-16.46-7.71-18.78-16.27-2.6-7.46-1.88-15.71.92-23 2.67-7 9.25-11.81 16.19-14.03m1.78 9.89c-3.53 3.98-4.1 9.59-4.06 14.69 0 5.93-.2 12.41 3.26 17.55 3.04 4.59 10.54 5.37 14.2 1.13 2.33-2.15 2.86-5.37 3.33-8.33-3.18-.06-6.37-.13-9.55-.29.47-1.69.75-3.49 1.71-4.99 2.86-.54 5.8-.39 8.7-.36l.15-3.9c-3.13-.09-6.25-.15-9.37-.2l1.59-5.18c2.27-.26 4.53-.54 6.8-.83-.61-4.32-2.54-8.83-6.53-11.02-3.35-.63-7.82-1.31-10.23 1.73z"/></svg>