<svg width="100pt" height="100pt" viewBox="0 0 100 100" xmlns="http://www.w3.org/2000/svg"><path fill="#090808" d="M16.49 0H83.5c3.64 1.2 7.31 2.7 10.13 5.36 3.02 2.75 4.77 6.53 6.37 10.21V83.5c-1.25 3.86-2.88 7.77-5.85 10.65-2.88 2.96-6.78 4.59-10.64 5.85H16.5c-3.87-1.25-7.77-2.88-10.65-5.85C2.89 91.27 1.26 87.37 0 83.52V16.5c1.23-3.87 2.88-7.77 5.85-10.64C8.73 2.89 12.63 1.26 16.49 0M39.9 24.58c-7.77 12.58-14.86 25.55-22.03 38.48-.92 1.66-2.21 4.05.13 5.21 5.57.63 11.18-.08 16.73-.58 5.53-7.74 9.66-16.35 14.25-24.64 4.83 8.15 8.77 16.88 14.4 24.53 5.36.75 10.94.63 16.33.1 2.63-.69.4-3.61-.24-5.08-7.55-12.44-12.94-26.15-21.4-38.01-6.05-.09-12.11-.08-18.17-.01z"/><path fill="#1c9cd1" d="M39.9 24.58c6.06-.07 12.12-.08 18.17.01 8.46 11.86 13.85 25.57 21.4 38.01.64 1.47 2.87 4.39.24 5.08-5.39.53-10.97.65-16.33-.1-5.63-7.65-9.57-16.38-14.4-24.53-4.59 8.29-8.72 16.9-14.25 24.64-5.55.5-11.16 1.21-16.73.58-2.34-1.16-1.05-3.55-.13-5.21 7.17-12.93 14.26-25.9 22.03-38.48z"/></svg>