<svg width="100pt" height="100pt" viewBox="0 0 100 100" xmlns="http://www.w3.org/2000/svg"><path fill="#cf9d3f" d="M18.52 0h64.89C91.82 1.96 98.84 8.79 100 17.51v65.92c-1.21 3.91-2.84 7.84-5.84 10.72-2.88 3.02-6.84 4.58-10.71 5.85H16.57C8.38 98.17 1.86 91.64 0 83.47v-66.9C1.95 7.83 9.41.61 18.52 0M36.8 28.78c-5.69 3.14-11.46 6.12-17.08 9.38.76.99 1.71 1.82 2.81 2.42 9.09 5.2 18.16 10.43 27.16 15.76 3.15 1.81 6.61 3.09 9.46 5.4-8.54 5.28-17.41 10.03-25.8 15.55-.04 3.83-.1 7.65-.12 11.48 16.17-9.06 32.44-17.92 48.56-27.05-3.69-2.56-7.77-4.48-11.58-6.86C61.3 49.84 52.91 43.97 43.96 39c8.17-4.96 16.89-8.96 25.01-14.02-.07-4.67-.05-9.33-.12-14-10.96 5.42-21.48 11.67-32.05 17.8z"/><path fill="#f3f3f3" d="M36.8 28.78c10.57-6.13 21.09-12.38 32.05-17.8.07 4.67.05 9.33.12 14-8.12 5.06-16.84 9.06-25.01 14.02 8.95 4.97 17.34 10.84 26.25 15.86 3.81 2.38 7.89 4.3 11.58 6.86-16.12 9.13-32.39 17.99-48.56 27.05.02-3.83.08-7.65.12-11.48 8.39-5.52 17.26-10.27 25.8-15.55-2.85-2.31-6.31-3.59-9.46-5.4-9-5.33-18.07-10.56-27.16-15.76-1.1-.6-2.05-1.43-2.81-2.42 5.62-3.26 11.39-6.24 17.08-9.38z"/></svg>