<svg width="100pt" height="100pt" viewBox="0 0 100 100" xmlns="http://www.w3.org/2000/svg"><path fill="#1d58a0" d="M14.53 0h70.93C92.13 2.53 97.47 7.84 100 14.52v70.94c-2.5 6.7-7.85 12.02-14.53 14.54H14.53C7.85 97.49 2.52 92.16 0 85.47V14.53C2.53 7.85 7.86 2.54 14.53 0m1.18 41.94c-.2 11.68.1 23.38-.12 35.07.14 2.39-.39 5.28 1.55 7.12 3.93.53 7.92.42 11.88.3 1.59-.23 3.86.07 4.54-1.81.7-3.5.25-7.09.36-10.62.12-7 .67-13.99.37-20.99.02-3.89-.52-8.35 2.26-11.51 2.2-2.88 5.83-4.26 9.39-4.14 11.36.08 22.72 0 34.08.09 1.95-.1 4.47.19 5.63-1.8.7-5.04.69-10.24.01-15.28-1.38-2.25-4.44-1.52-6.65-1.78-12.68.21-25.36-.22-38.03.06-13.25.51-24.62 12.13-25.27 25.29m35.59 9.35c-1.09 5.32-.78 10.93.2 16.26 5.54.76 11.56 1.07 16.99-.11 1.64-5.1.85-10.87.4-16.19-2.64-1.63-5.96-.76-8.9-1-2.87.25-6.1-.53-8.69 1.04z"/><g fill="#f5f5f5"><path d="M15.71 41.94c.65-13.16 12.02-24.78 25.27-25.29 12.67-.28 25.35.15 38.03-.06 2.21.26 5.27-.47 6.65 1.78.68 5.04.69 10.24-.01 15.28-1.16 1.99-3.68 1.7-5.63 1.8-11.36-.09-22.72-.01-34.08-.09-3.56-.12-7.19 1.26-9.39 4.14-2.78 3.16-2.24 7.62-2.26 11.51.3 7-.25 13.99-.37 20.99-.11 3.53.34 7.12-.36 10.62-.68 1.88-2.95 1.58-4.54 1.81-3.96.12-7.95.23-11.88-.3-1.94-1.84-1.41-4.73-1.55-7.12.22-11.69-.08-23.39.12-35.07z"/><path d="M51.3 51.29c2.59-1.57 5.82-.79 8.69-1.04 2.94.24 6.26-.63 8.9 1 .45 5.32 1.24 11.09-.4 16.19-5.43 1.18-11.45.87-16.99.11-.98-5.33-1.29-10.94-.2-16.26z"/></g></svg>