<svg width="100pt" height="100pt" viewBox="0 0 100 100" xmlns="http://www.w3.org/2000/svg"><path fill="#0e103b" d="M15.56 0h68.85c3.76 1.47 7.63 3.15 10.41 6.2 2.67 2.84 4.21 6.53 5.18 10.26v67.08c-1.02 3.96-2.71 7.88-5.68 10.77-2.72 2.74-6.34 4.3-9.87 5.69H16.47C8.23 98.43 1.57 91.77 0 83.54V16.47c1.02-3.96 2.72-7.89 5.68-10.79C8.4 2.94 12.02 1.39 15.56 0m31.07 18.63c.04 2.56.04 5.12 0 7.69 2.34-.04 4.68-.01 7.02.08.02-2.6-.01-5.2-.13-7.8-2.3.07-4.59.07-6.89.03M33.02 32.24c1.79 3.86 4.6 7.1 6.89 10.65-4.78.9-9.45 2.34-14.27 2.99-.32 2.8-.38 5.63-.37 8.45 4.75 1.71 9.76 2.51 14.66 3.69-2.31 3.54-4.65 7.07-6.73 10.75 1.74 1.97 3.63 3.81 5.72 5.4 3.75-3.57 7.3-7.35 11.08-10.89 3.8 3.57 7.41 7.34 11.12 11a51.95 51.95 0 0 0 5.68-5.52c-2.1-3.64-4.72-6.96-6.72-10.67 4.79-1.43 9.68-2.49 14.45-3.97.06-2.75.06-5.52-.1-8.27-4.86-.57-9.55-2.05-14.34-2.99 2.31-3.59 5.15-6.84 6.95-10.74-1.93-2.02-3.89-4.02-5.99-5.86-3.73 3.56-7.22 7.36-11.02 10.85-3.79-3.4-7.64-6.73-11.18-10.4-2.01 1.77-3.96 3.62-5.83 5.53m13.95 41.75c.04 2.26.04 4.53.05 6.8 2.11-.03 4.23-.02 6.34.04.14-2.28.17-4.56.12-6.84-2.17.02-4.34.02-6.51 0z"/><g fill="#f6f6f6"><path d="M46.63 18.63c2.3.04 4.59.04 6.89-.03.12 2.6.15 5.2.13 7.8-2.34-.09-4.68-.12-7.02-.08.04-2.57.04-5.13 0-7.69zM33.02 32.24c1.87-1.91 3.82-3.76 5.83-5.53 3.54 3.67 7.39 7 11.18 10.4 3.8-3.49 7.29-7.29 11.02-10.85 2.1 1.84 4.06 3.84 5.99 5.86-1.8 3.9-4.64 7.15-6.95 10.74 4.79.94 9.48 2.42 14.34 2.99.16 2.75.16 5.52.1 8.27-4.77 1.48-9.66 2.54-14.45 3.97 2 3.71 4.62 7.03 6.72 10.67a51.95 51.95 0 0 1-5.68 5.52c-3.71-3.66-7.32-7.43-11.12-11-3.78 3.54-7.33 7.32-11.08 10.89-2.09-1.59-3.98-3.43-5.72-5.4 2.08-3.68 4.42-7.21 6.73-10.75-4.9-1.18-9.91-1.98-14.66-3.69-.01-2.82.05-5.65.37-8.45 4.82-.65 9.49-2.09 14.27-2.99-2.29-3.55-5.1-6.79-6.89-10.65z"/><path d="M46.97 73.99c2.17.02 4.34.02 6.51 0 .05 2.28.02 4.56-.12 6.84-2.11-.06-4.23-.07-6.34-.04-.01-2.27-.01-4.54-.05-6.8z"/></g></svg>