<svg width="100pt" height="100pt" viewBox="0 0 100 100" xmlns="http://www.w3.org/2000/svg"><g fill="#e0dfdf"><path d="M16.7 0h66.49c3.99 1.18 8.02 2.79 10.93 5.87 3.07 2.89 4.66 6.89 5.88 10.83v66.49c-1.18 3.99-2.79 8.02-5.87 10.94-2.9 3.05-6.88 4.66-10.82 5.87h-66.5c-3.99-1.17-8.02-2.79-10.94-5.87C2.82 91.23 1.22 87.24 0 83.3V16.81C1.72 8.47 8.4 1.82 16.7 0m50.46 6.05c-3.67 6.95-5.82 14.56-9.31 21.59-5.75 13.89-12.19 27.47-18.18 41.24 6.03.21 12.08.11 18.12.08 3.65-8.4 7.52-16.71 10.71-25.3 5.29-12.64 11.81-24.74 16.61-37.59-5.98-.11-11.97-.07-17.95-.02M32.25 29.09c-5.89 13.26-11.71 26.56-17.93 39.67 6.08-.36 12.17-.01 18.25.1 4.85-13.58 11.74-26.3 17.32-39.58-5.87-.53-11.77-.69-17.64-.19M10.33 74.33c.12 5.79.09 11.59.02 17.38 1.09-.02 2.17-.03 3.26-.03-.04-2.74-.05-5.48-.06-8.22 3.6.13 7.2.37 10.81.49.01-.84.03-2.52.05-3.36-3.63.29-7.23.85-10.87.99.01-1.69.01-3.39.01-5.08 4.52-.04 9.01.41 13.52.72-.34-.71-1-2.13-1.34-2.84-5.09-.4-10.27.34-15.4-.05M26.8 74c2.64 3.02 5.56 5.77 8.11 8.87-2.93 2.96-5.86 5.92-8.58 9.07 1.85.04 3.7.05 5.55.05 2.11-2.18 4.24-4.35 6.3-6.57 2.4 2.1 4.51 4.52 7.05 6.46 1.7.19 3.42.11 5.14.1-2.71-3.31-5.88-6.19-8.89-9.21 2.75-2.99 5.77-5.71 8.46-8.75-1.85.08-3.77-.27-5.55.3-2.13 1.8-4.01 3.85-6.11 5.69-1.9-1.88-3.68-3.88-5.74-5.58-1.77-.82-3.85-.28-5.74-.43m24.4.15c-.69 1.18-1.64 2.35-1.51 3.81.03 4.54-.5 9.19.8 13.62 4.91.54 10.03.93 14.85-.32 5.81-1.65 6.41-9.74 3.39-14.04-4.46-4.81-11.73-2.91-17.53-3.07m22.08.03c-1.04.69-2.16 1.66-1.98 3.06-.08 3.83-.08 7.68.01 11.51-.19 1.97 1.83 3.52 3.7 3.24 4.09-.05 8.36.49 12.29-.88 6.86-2.65 6.3-14.57-.91-16.45-4.26-1.05-8.76-.75-13.11-.48z"/><path d="M53.89 77.22c3.78.1 8.63-.82 11.34 2.52.66 2.58 1.25 6.44-1.51 8.01-3.03 1.54-6.57 1.04-9.85 1.05-.12-3.86-.13-7.72.02-11.58zm21.72-.13c3.25.22 6.84-.34 9.78 1.34 2.43 1.6 2.04 4.85 1.67 7.33-2.28 4.05-7.61 2.82-11.44 3.33-.22-4-.22-8-.01-12z"/></g><path d="M67.16 6.05c5.98-.05 11.97-.09 17.95.02-4.8 12.85-11.32 24.95-16.61 37.59-3.19 8.59-7.06 16.9-10.71 25.3-6.04.03-12.09.13-18.12-.08 5.99-13.77 12.43-27.35 18.18-41.24 3.49-7.03 5.64-14.64 9.31-21.59zM32.25 29.09c5.87-.5 11.77-.34 17.64.19-5.58 13.28-12.47 26-17.32 39.58-6.08-.11-12.17-.46-18.25-.1 6.22-13.11 12.04-26.41 17.93-39.67z" fill="#e7313b"/><g fill="#261e09"><path d="M10.33 74.33c5.13.39 10.31-.35 15.4.05.34.71 1 2.13 1.34 2.84-4.51-.31-9-.76-13.52-.72 0 1.69 0 3.39-.01 5.08 3.64-.14 7.24-.7 10.87-.99-.02.84-.04 2.52-.05 3.36-3.61-.12-7.21-.36-10.81-.49.01 2.74.02 5.48.06 8.22-1.09 0-2.17.01-3.26.03.07-5.79.1-11.59-.02-17.38z"/><path d="M26.8 74c1.89.15 3.97-.39 5.74.43 2.06 1.7 3.84 3.7 5.74 5.58 2.1-1.84 3.98-3.89 6.11-5.69 1.78-.57 3.7-.22 5.55-.3-2.69 3.04-5.71 5.76-8.46 8.75 3.01 3.02 6.18 5.9 8.89 9.21-1.72.01-3.44.09-5.14-.1-2.54-1.94-4.65-4.36-7.05-6.46-2.06 2.22-4.19 4.39-6.3 6.57-1.85 0-3.7-.01-5.55-.05 2.72-3.15 5.65-6.11 8.58-9.07-2.55-3.1-5.47-5.85-8.11-8.87z"/><path d="M51.2 74.15c5.8.16 13.07-1.74 17.53 3.07 3.02 4.3 2.42 12.39-3.39 14.04-4.82 1.25-9.94.86-14.85.32-1.3-4.43-.77-9.08-.8-13.62-.13-1.46.82-2.63 1.51-3.81m2.69 3.07c-.15 3.86-.14 7.72-.02 11.58 3.28-.01 6.82.49 9.85-1.05 2.76-1.57 2.17-5.43 1.51-8.01-2.71-3.34-7.56-2.42-11.34-2.52z"/><path d="M73.28 74.18c4.35-.27 8.85-.57 13.11.48 7.21 1.88 7.77 13.8.91 16.45-3.93 1.37-8.2.83-12.29.88-1.87.28-3.89-1.27-3.7-3.24-.09-3.83-.09-7.68-.01-11.51-.18-1.4.94-2.37 1.98-3.06m2.33 2.91c-.21 4-.21 8 .01 12 3.83-.51 9.16.72 11.44-3.33.37-2.48.76-5.73-1.67-7.33-2.94-1.68-6.53-1.12-9.78-1.34z"/></g></svg>