<svg width="100pt" height="100pt" viewBox="0 0 100 100" xmlns="http://www.w3.org/2000/svg"><path fill="#d81419" d="M15.53 0h68.92C92.11 2.28 98.49 8.46 100 16.46v68c-2.17 7.47-8.07 13.35-15.53 15.54H15.54C8.08 97.83 2.19 91.93 0 84.48V16.46C1.51 8.47 7.88 2.3 15.53 0m3.13 17.49c.01 21.78-.2 43.56.1 65.34 3.39-.05 6.79-.05 10.18-.03-.13-9.5.63-18.98.35-28.48 4.3.21 8.61.1 12.91.06.08-2.89.16-5.77.08-8.66-4.33-.04-8.67-.16-13 .04.11-6.48.1-12.97 0-19.45 6.68 0 13.35.34 20.03.13.02-1.51.03-3.02.05-4.52 3.27 8.47 6.96 16.77 10.56 25.1.41 1.28 1.51 2.5 1.19 3.92-4.44 10.57-9.18 21.04-13.26 31.76 3.6.06 7.2.03 10.8-.05 2.77-6.31 4.85-12.95 8.13-19.02 3.13 6.19 4.92 13.11 8.53 19.01 3.28.25 6.58.05 9.87.05-3.76-11.1-9.23-21.59-12.98-32.68 4.7-10.58 9.01-21.34 13.26-32.11-3.48-.16-6.96-.13-10.44-.08-2.95 6.31-5.67 12.73-8.56 19.07-2.47-6.58-5.14-13.09-8.23-19.4-13.19.02-26.38-.26-39.57 0z"/><path fill="#f6f6f6" d="M18.66 17.49c13.19-.26 26.38.02 39.57 0 3.09 6.31 5.76 12.82 8.23 19.4 2.89-6.34 5.61-12.76 8.56-19.07 3.48-.05 6.96-.08 10.44.08-4.25 10.77-8.56 21.53-13.26 32.11 3.75 11.09 9.22 21.58 12.98 32.68-3.29 0-6.59.2-9.87-.05-3.61-5.9-5.4-12.82-8.53-19.01-3.28 6.07-5.36 12.71-8.13 19.02-3.6.08-7.2.11-10.8.05 4.08-10.72 8.82-21.19 13.26-31.76.32-1.42-.78-2.64-1.19-3.92-3.6-8.33-7.29-16.63-10.56-25.1-.02 1.5-.03 3.01-.05 4.52-6.68.21-13.35-.13-20.03-.13.1 6.48.11 12.97 0 19.45 4.33-.2 8.67-.08 13-.04.08 2.89 0 5.77-.08 8.66-4.3.04-8.61.15-12.91-.06.28 9.5-.48 18.98-.35 28.48-3.39-.02-6.79-.02-10.18.03-.3-21.78-.09-43.56-.1-65.34z"/></svg>