<svg width="100pt" height="100pt" viewBox="0 0 100 100" xmlns="http://www.w3.org/2000/svg"><path fill="#bd2821" d="M16.46 0h67.08c3.61 1.22 7.28 2.71 10.1 5.36 2.97 2.75 4.77 6.47 6.36 10.12v68.06c-1.24 3.86-2.89 7.74-5.84 10.61-2.88 2.95-6.77 4.57-10.62 5.85H16.46c-3.86-1.24-7.74-2.89-10.62-5.84C2.89 91.28 1.24 87.4 0 83.54V16.46C1.23 12.6 2.89 8.72 5.84 5.85 8.73 2.9 12.62 1.28 16.46 0m1.94 33.52c-4.19 8.05-5.02 17.67-2.5 26.36 2.47 9.02 8.93 16.76 17.04 21.28 1.65 1.23 4.03-.22 4-2.17.29-16.61.67-33.24.19-49.85 13.64-.26 27.34.86 40.97-.13.39-1.47.19-3.08-1.04-4.1-3.46-3.71-7.77-6.59-12.45-8.55-16.64-7.78-38.53.55-46.21 17.16m32.48 8.39c-.49 4.06-.35 8.18.1 12.24 6.15.81 12.38-.54 18.51.49.06 4.17-.92 8.45-2.62 12.24-5.28.45-10.58-.23-15.85.24-.41 4.29-.27 8.61-.23 12.92.17 1.66-.1 3.7 1.33 4.91 1.29 1.05 3.1.79 4.63.62 11.43-1.98 21.76-9.62 26.7-20.16 2.62-6.07 4.56-12.77 3.76-19.43-.14-2.67-2.47-4.71-5.15-4.33-10.39.13-20.81-.33-31.18.26z"/><g fill="#f6f6f6"><path d="M18.4 33.52c7.68-16.61 29.57-24.94 46.21-17.16 4.68 1.96 8.99 4.84 12.45 8.55 1.23 1.02 1.43 2.63 1.04 4.1-13.63.99-27.33-.13-40.97.13.48 16.61.1 33.24-.19 49.85.03 1.95-2.35 3.4-4 2.17-8.11-4.52-14.57-12.26-17.04-21.28-2.52-8.69-1.69-18.31 2.5-26.36z"/><path d="M50.88 41.91c10.37-.59 20.79-.13 31.18-.26 2.68-.38 5.01 1.66 5.15 4.33.8 6.66-1.14 13.36-3.76 19.43-4.94 10.54-15.27 18.18-26.7 20.16-1.53.17-3.34.43-4.63-.62-1.43-1.21-1.16-3.25-1.33-4.91-.04-4.31-.18-8.63.23-12.92 5.27-.47 10.57.21 15.85-.24 1.7-3.79 2.68-8.07 2.62-12.24-6.13-1.03-12.36.32-18.51-.49-.45-4.06-.59-8.18-.1-12.24z"/></g></svg>