<svg width="100pt" height="100pt" viewBox="0 0 100 100" xmlns="http://www.w3.org/2000/svg"><path fill="#221815" d="M16.49 0h66.99c3.64 1.2 7.33 2.68 10.17 5.34 3.02 2.75 4.77 6.54 6.35 10.23v68.81c-1.56 3.72-3.32 7.52-6.35 10.28-2.82 2.68-6.51 4.14-10.15 5.34H16.51C8.36 98.16 1.86 91.64 0 83.51V16.5c1.2-3.89 2.87-7.79 5.84-10.67C8.72 2.86 12.64 1.27 16.49 0m20.78 67.24c-5.75 8.55-11.89 16.85-17.24 25.66C28.21 82.41 35.79 71.45 44 60.98 56.99 43.48 69.22 25.41 81.04 7.1 65.92 26.76 50.79 46.44 37.27 67.24M21.02 81.93c17.38-22.19 34.43-44.76 49.05-68.9-17.82 21.87-33.93 45.1-49.05 68.9m28.4-22.47c-5.5 9.04-12.1 17.38-17.44 26.51 7.29-8.79 13.6-18.37 20.82-27.24 9.68-13.68 19.55-27.27 28.19-41.66-11.15 13.65-21.45 27.97-31.57 42.39M18.27 21.68c2.32 4.21 5.5 7.84 8.29 11.73 3.79 4.89 7.15 10.13 11.27 14.75 3.29-4.19 6.53-8.4 9.79-12.61.47-.83 1.78-2.01.77-2.95-2.97-3.51-5.42-7.41-8.22-11.05-7.3.12-14.6-.06-21.9.13m34.17 45.53c2.1 4.41 5.84 8.04 8.57 12.16 7.27 0 14.54.07 21.81-.04-2.99-5.23-7.2-9.63-10.49-14.67-2.56-4.08-5.94-7.55-8.69-11.49-4.35 4.16-7.47 9.36-11.2 14.04z"/><path d="M37.27 67.24C50.79 46.44 65.92 26.76 81.04 7.1 69.22 25.41 56.99 43.48 44 60.98 35.79 71.45 28.21 82.41 20.03 92.9c5.35-8.81 11.49-17.11 17.24-25.66zM21.02 81.93c15.12-23.8 31.23-47.03 49.05-68.9-14.62 24.14-31.67 46.71-49.05 68.9zm28.4-22.47c10.12-14.42 20.42-28.74 31.57-42.39-8.64 14.39-18.51 27.98-28.19 41.66-7.22 8.87-13.53 18.45-20.82 27.24 5.34-9.13 11.94-17.47 17.44-26.51zM18.27 21.68c7.3-.19 14.6-.01 21.9-.13 2.8 3.64 5.25 7.54 8.22 11.05 1.01.94-.3 2.12-.77 2.95-3.26 4.21-6.5 8.42-9.79 12.61-4.12-4.62-7.48-9.86-11.27-14.75-2.79-3.89-5.97-7.52-8.29-11.73zm34.17 45.53c3.73-4.68 6.85-9.88 11.2-14.04 2.75 3.94 6.13 7.41 8.69 11.49 3.29 5.04 7.5 9.44 10.49 14.67-7.27.11-14.54.04-21.81.04-2.73-4.12-6.47-7.75-8.57-12.16z" fill="#fafafa"/></svg>