<svg width="100pt" height="100pt" viewBox="0 0 100 100" xmlns="http://www.w3.org/2000/svg"><path fill="#004abc" d="M16.47 0h67.04C91.74 1.62 98.42 8.2 100 16.46v67.07c-1.58 8.25-8.25 14.85-16.48 16.47H16.47C8.23 98.42 1.59 91.76 0 83.53V16.47C1.58 8.22 8.24 1.62 16.47 0m21.75 20.13c-5.64 3.13-7.18 9.85-8.64 15.61C25.77 51.1 21.84 66.42 18 81.77c5.18-.31 10.67.91 15.6-1.16 4-1.75 7.29-5.24 8.47-9.49 3.95-14.86 7.85-29.73 11.53-44.67.74-2.85 1.7-5.68 1.8-8.66-5.77-.02-12.11-1.14-17.18 2.34m19.27 9.59c-1.3 6.23-3.41 12.27-4.58 18.53 3.69.26 7.41.33 11.11.09 6.51-.36 12.29-5.71 13.48-12.07 1.38-6.02 2.77-12.04 4.32-18.01-3.88.02-7.78-.22-11.65.09-5.91.89-11.63 5.25-12.68 11.37z"/><path d="M38.22 20.13c5.07-3.48 11.41-2.36 17.18-2.34-.1 2.98-1.06 5.81-1.8 8.66-3.68 14.94-7.58 29.81-11.53 44.67-1.18 4.25-4.47 7.74-8.47 9.49-4.93 2.07-10.42.85-15.6 1.16 3.84-15.35 7.77-30.67 11.58-46.03 1.46-5.76 3-12.48 8.64-15.61zm19.27 9.59c1.05-6.12 6.77-10.48 12.68-11.37 3.87-.31 7.77-.07 11.65-.09-1.55 5.97-2.94 11.99-4.32 18.01-1.19 6.36-6.97 11.71-13.48 12.07-3.7.24-7.42.17-11.11-.09 1.17-6.26 3.28-12.3 4.58-18.53z" fill="#f4f4f4"/></svg>