<svg width="100pt" height="100pt" viewBox="0 0 100 100" xmlns="http://www.w3.org/2000/svg"><path fill="#ab2024" d="M16.45 0h67.1c3.82 1.29 7.72 2.9 10.6 5.85 2.68 2.7 4.36 6.18 5.85 9.63v68.06c-1.23 3.87-2.9 7.73-5.84 10.62-2.89 2.93-6.76 4.58-10.61 5.84H16.46c-3.87-1.22-7.73-2.91-10.62-5.84C2.91 91.27 1.23 87.41 0 83.55V16.46c1.22-3.87 2.9-7.74 5.84-10.62C8.74 2.91 12.61 1.27 16.45 0M46.2 17.05c-7.93 4.39-15.57 9.27-23.52 13.62-3.78 2.04-3.01 6.76-3.07 10.33.26 7.77-.31 15.56.3 23.32 5.45-1.96 10.42-5.25 15.2-8.48.86-4.41-.09-8.93.48-13.36 1.67-2.33 4.49-3.43 6.84-4.94 2.81-1.49 5.42-3.6 8.57-4.27 4.72.94 8.08 5.34 12.9 5.96 4.04-1.89 7.78-4.39 11.66-6.57.87-.76 2.5-1.15 2.55-2.5-4.22-3.03-9.02-5.13-13.44-7.84-4.07-2.3-7.85-5.2-12.27-6.83-2.18-.89-4.3.67-6.2 1.56m24.22 25.23c-1.29.83-2.79 1.48-3.66 2.8-.62 4.46.36 8.99-.36 13.45-1.62 2.38-4.4 3.57-6.75 5.09-2.83 1.55-5.48 3.59-8.65 4.4-4.8-1.11-8.23-5.22-12.87-6.63-3 .95-5.5 2.95-8.24 4.43-2.33 1.48-5.1 2.51-6.79 4.79 8.52 4.4 16.62 9.56 24.98 14.24 2.78 1.92 5.9.14 8.37-1.37 7.67-4.75 15.68-8.94 23.3-13.75 2.71-1.57 2.16-5.07 2.28-7.71-.19-8.71.83-17.43.08-26.13-4.16 1.61-7.8 4.26-11.69 6.39z"/><path d="M46.2 17.05c1.9-.89 4.02-2.45 6.2-1.56 4.42 1.63 8.2 4.53 12.27 6.83 4.42 2.71 9.22 4.81 13.44 7.84-.05 1.35-1.68 1.74-2.55 2.5-3.88 2.18-7.62 4.68-11.66 6.57-4.82-.62-8.18-5.02-12.9-5.96-3.15.67-5.76 2.78-8.57 4.27-2.35 1.51-5.17 2.61-6.84 4.94-.57 4.43.38 8.95-.48 13.36-4.78 3.23-9.75 6.52-15.2 8.48-.61-7.76-.04-15.55-.3-23.32.06-3.57-.71-8.29 3.07-10.33 7.95-4.35 15.59-9.23 23.52-13.62zm24.22 25.23c3.89-2.13 7.53-4.78 11.69-6.39.75 8.7-.27 17.42-.08 26.13-.12 2.64.43 6.14-2.28 7.71-7.62 4.81-15.63 9-23.3 13.75-2.47 1.51-5.59 3.29-8.37 1.37-8.36-4.68-16.46-9.84-24.98-14.24 1.69-2.28 4.46-3.31 6.79-4.79 2.74-1.48 5.24-3.48 8.24-4.43 4.64 1.41 8.07 5.52 12.87 6.63 3.17-.81 5.82-2.85 8.65-4.4 2.35-1.52 5.13-2.71 6.75-5.09.72-4.46-.26-8.99.36-13.45.87-1.32 2.37-1.97 3.66-2.8z" fill="#f8f8f8"/></svg>