<svg width="100pt" height="100pt" viewBox="0 0 100 100" xmlns="http://www.w3.org/2000/svg"><path fill="#0a0909" d="M15.67 0H84.3c7.54 2.09 13.55 8.06 15.7 15.58v68.81c-2.14 7.53-8.12 13.52-15.67 15.61H15.6C8.1 97.87 2.16 91.91 0 84.43V15.61C2.14 8.08 8.13 2.1 15.67 0M34.2 28.27C26.49 41.73 19.81 55.74 12.45 69.4c4.81-.16 9.63.15 14.43-.15 2.11-2.9 3.45-6.25 5.14-9.39 5.65-11.44 12.16-22.45 17.34-34.12 4.57 9.25 9.32 18.4 14.46 27.35 2.33 5.53 5.6 10.57 8.27 15.93 4.64 0 9.29-.03 13.93 0-6.66-12.19-12.35-24.86-19.03-37.04-2.36-4.07-3.8-8.76-6.88-12.34-7.07-.01-14.15-.01-21.23 0-2.45 2.27-3 5.84-4.68 8.63m14.25 22.45c-4.09 5.57-6.09 12.22-9.44 18.18 6.4.06 12.8.07 19.19 0-3.35-6.02-5.03-12.97-9.75-18.18z"/><path fill="#f4f4f4" d="M34.2 28.27c1.68-2.79 2.23-6.36 4.68-8.63 7.08-.01 14.16-.01 21.23 0 3.08 3.58 4.52 8.27 6.88 12.34 6.68 12.18 12.37 24.85 19.03 37.04-4.64-.03-9.29 0-13.93 0-2.67-5.36-5.94-10.4-8.27-15.93-5.14-8.95-9.89-18.1-14.46-27.35-5.18 11.67-11.69 22.68-17.34 34.12-1.69 3.14-3.03 6.49-5.14 9.39-4.8.3-9.62-.01-14.43.15 7.36-13.66 14.04-27.67 21.75-41.13z"/><path fill="#82b451" d="M48.45 50.72c4.72 5.21 6.4 12.16 9.75 18.18-6.39.07-12.79.06-19.19 0 3.35-5.96 5.35-12.61 9.44-18.18z"/></svg>