<svg width="100pt" height="100pt" viewBox="0 0 100 100" xmlns="http://www.w3.org/2000/svg"><g fill="#030000"><path d="M16.5 0h66.98c3.64 1.2 7.32 2.69 10.14 5.38 3.03 2.75 4.77 6.54 6.38 10.23v68.72c-1.6 3.7-3.33 7.53-6.37 10.29-2.82 2.69-6.5 4.17-10.13 5.38H16.52c-3.86-1.27-7.78-2.89-10.66-5.86C2.89 91.26 1.28 87.35 0 83.5V16.52c1.26-3.87 2.89-7.78 5.87-10.66C8.74 2.9 12.65 1.27 16.5 0m5 54.75c-4.15 3.61-9.55 5.88-12.75 10.48 2.43.17 4.87.28 7.3.22 3.54.3 6.04-2.63 8.86-4.26 2.78 2.12 5.72 4.5 9.39 4.61 11.16 1.32 21.04-5.6 29.11-12.46 5.68 3.18 10.46 7.75 16.12 10.95 3.45.35 6.93.1 10.4.23-6.77-5.33-14.22-9.78-20.86-15.27 7.06-4.46 13.59-9.7 19.93-15.12-3.35-.09-6.68-.57-10.03-.51-5.42 3.15-10 7.54-15.11 11.15-4.34-2.82-9.61-2.44-14.52-1.9 2.25 3.02 5.95 4.34 8.72 6.8-4.28 3.19-8.75 6.1-13.05 9.26-4.92 3.32-12.44 4.13-17.18.11 6.2-5.24 13.01-9.74 19.41-14.74 4.38-3.57 9.37-6.4 13.3-10.51-7.54-.61-15.09.1-22.63.03C27.24 32.65 17.3 44.43 21.5 54.75z"/><path d="M27.01 43.01c3.6-3.98 9.34-2.26 14.04-2.67-5.66 4.11-11.28 8.28-16.87 12.48.14-3.43-.04-7.35 2.83-9.81z"/></g><path fill="#fbc824" d="M21.5 54.75c-4.2-10.32 5.74-22.1 16.41-20.93 7.54.07 15.09-.64 22.63-.03-3.93 4.11-8.92 6.94-13.3 10.51-6.4 5-13.21 9.5-19.41 14.74 4.74 4.02 12.26 3.21 17.18-.11 4.3-3.16 8.77-6.07 13.05-9.26-2.77-2.46-6.47-3.78-8.72-6.8 4.91-.54 10.18-.92 14.52 1.9 5.11-3.61 9.69-8 15.11-11.15 3.35-.06 6.68.42 10.03.51-6.34 5.42-12.87 10.66-19.93 15.12 6.64 5.49 14.09 9.94 20.86 15.27-3.47-.13-6.95.12-10.4-.23-5.66-3.2-10.44-7.77-16.12-10.95C55.34 60.2 45.46 67.12 34.3 65.8c-3.67-.11-6.61-2.49-9.39-4.61-2.82 1.63-5.32 4.56-8.86 4.26-2.43.06-4.87-.05-7.3-.22 3.2-4.6 8.6-6.87 12.75-10.48m5.51-11.74c-2.87 2.46-2.69 6.38-2.83 9.81 5.59-4.2 11.21-8.37 16.87-12.48-4.7.41-10.44-1.31-14.04 2.67z"/></svg>