<svg width="100pt" height="100pt" viewBox="0 0 100 100" xmlns="http://www.w3.org/2000/svg"><path fill="#bf2e26" d="M16.46 0h67.08c3.61 1.23 7.27 2.71 10.1 5.35 2.98 2.76 4.77 6.48 6.36 10.14v68.05c-1.23 3.86-2.9 7.74-5.84 10.62-2.89 2.94-6.77 4.57-10.62 5.84H16.46c-3.86-1.23-7.73-2.9-10.62-5.84C2.9 91.27 1.23 87.4 0 83.54V16.46C1.23 12.6 2.9 8.73 5.84 5.84 8.73 2.91 12.61 1.27 16.46 0m8.57 34.97c-2.92 2.11-2.71 5.97-2.2 9.14 4.17-1.9 8.05-4.55 12.62-5.47 7.36-1.58 14.9-2.21 22.41-2.38-11.13 8.39-22.46 16.54-33.6 24.92-3.19 2.62-7.34 4.31-9.59 7.9 6.43.75 12.89-.14 19.34-.08 12.67.03 25.34-.03 38.01.05 2.74-.06 5.92.12 8-2.01 3.65-2.94 3.63-8.78 1.07-12.42-3.24 2.27-6.23 5.01-10.01 6.4-9.78 4.36-20.72 3.83-31.16 4.71 5.86-4.81 12.46-8.63 18.24-13.55 7.52-5.46 15.02-10.95 22.58-16.36.84-.82 2.26-1.46 2.27-2.81-14.98-.82-30.03-.22-45.03-.09-4.34-.02-9.46-1.33-12.95 2.05z"/><path fill="#f4f4f4" d="M25.03 34.97c3.49-3.38 8.61-2.07 12.95-2.05 15-.13 30.05-.73 45.03.09-.01 1.35-1.43 1.99-2.27 2.81-7.56 5.41-15.06 10.9-22.58 16.36-5.78 4.92-12.38 8.74-18.24 13.55 10.44-.88 21.38-.35 31.16-4.71 3.78-1.39 6.77-4.13 10.01-6.4 2.56 3.64 2.58 9.48-1.07 12.42-2.08 2.13-5.26 1.95-8 2.01-12.67-.08-25.34-.02-38.01-.05-6.45-.06-12.91.83-19.34.08 2.25-3.59 6.4-5.28 9.59-7.9 11.14-8.38 22.47-16.53 33.6-24.92-7.51.17-15.05.8-22.41 2.38-4.57.92-8.45 3.57-12.62 5.47-.51-3.17-.72-7.03 2.2-9.14z"/></svg>