<svg width="100pt" height="100pt" viewBox="0 0 100 100" xmlns="http://www.w3.org/2000/svg"><g fill="#5894ee"><path d="M17.35 0h65.27C91.41 1.15 98.84 8.4 100 17.22v65.59c-1.18 8.78-8.55 16.01-17.3 17.19H17.26C8.5 98.86 1.17 91.52 0 82.77V17.2C1.18 8.41 8.57 1.15 17.35 0m6.17 21.67c-2.9.61-5.38 3.17-5.42 6.22-.53 7.13.7 14.26 2.15 21.22 2.14 8.92 5.2 18.25 12.26 24.54 4.8 4.06 11.6 6.42 17.79 4.51 8.94-2.14 15.6-9 21.84-15.3 4.23-6.38 10.61-12.7 9.82-20.97-.61-5.38-5.62-8.67-10.06-10.87-10.56-4.95-22.08-7.48-33.56-9.2-4.9-.55-9.93-1.18-14.82-.15z"/><path d="M29.79 39c1.03-2.36.99-5.76 3.16-7.25 6.98-.18 13.97-.06 20.94.05 7.48.12 13.9 7.62 12.47 15.05-.55 5.75-5.73 10.2-11.3 10.83-3 .18-6.01.04-9.01.09C45.98 61.84 46 65.92 46 70h-7.3c.17-8.94-.31-17.92.32-26.83 2.31.08 4.63.08 6.95.05-.01 2.45.02 4.91.32 7.35 2.68-.35 5.39-.23 8.08-.37 3.37-.1 5.76-4.09 4.52-7.16-.66-2.53-3.23-4.19-5.8-3.99-7.77-.08-15.53.06-23.3-.05z"/></g><path fill="#f6f6f6" d="M23.52 21.67c4.89-1.03 9.92-.4 14.82.15 11.48 1.72 23 4.25 33.56 9.2 4.44 2.2 9.45 5.49 10.06 10.87.79 8.27-5.59 14.59-9.82 20.97-6.24 6.3-12.9 13.16-21.84 15.3-6.19 1.91-12.99-.45-17.79-4.51-7.06-6.29-10.12-15.62-12.26-24.54-1.45-6.96-2.68-14.09-2.15-21.22.04-3.05 2.52-5.61 5.42-6.22M29.79 39c7.77.11 15.53-.03 23.3.05 2.57-.2 5.14 1.46 5.8 3.99 1.24 3.07-1.15 7.06-4.52 7.16-2.69.14-5.4.02-8.08.37-.3-2.44-.33-4.9-.32-7.35-2.32.03-4.64.03-6.95-.05-.63 8.91-.15 17.89-.32 26.83H46c0-4.08-.02-8.16.05-12.23 3-.05 6.01.09 9.01-.09 5.57-.63 10.75-5.08 11.3-10.83 1.43-7.43-4.99-14.93-12.47-15.05-6.97-.11-13.96-.23-20.94-.05-2.17 1.49-2.13 4.89-3.16 7.25z"/></svg>