<svg width="100pt" height="100pt" viewBox="0 0 100 100" xmlns="http://www.w3.org/2000/svg"><path fill="#d95b77" d="M.53 20.02C.57 9.72 9.68.55 20.01.56 40.68.58 61.35.53 82.02.58 90.15.95 97.31 6.77 100 14.36V86.7c-2.13 6.24-7.2 11.26-13.48 13.3H14.55C6.63 97.19.51 89.56.52 81 .49 60.68.47 40.35.53 20.02M34.2 19c-.53 7.7.09 15.45-.27 23.16.16 2.69-3.16 2.67-4.94 1.96-1.66-3.39.11-7.35-1.33-10.79-1.09-2.67-5.98-2.27-6.3.73-.17 9.29-.07 18.6-.06 27.89-.09 3.07 4.61 4.17 6.19 1.72 1.8-3.29-.4-7.43 1.68-10.59 1.75-1.05 4.54-.49 4.72 1.85.43 9.07-.22 18.19.27 27.26.59 3.31 5.22 3.81 6.77.95-.06-17.72.76-35.45.04-53.17-.02-3.96.83-8-.21-11.9-1.04-3.04-6.26-2.22-6.56.93m14.08 2.41c-2.1 1.59-1.16 6.09 1.86 5.93 2.5.75 4.68-2.02 3.76-4.38-.4-2.57-3.86-2.82-5.62-1.55m12.05 4.57c-.23 5.65.16 11.32-.16 16.97.19 2.98-4.52 4.3-5.56 1.45-.82-3.06-.38-6.3-.48-9.44-.15-1.65-1.19-3.55-3.15-3.24-2.57-.64-4.12 2-3.93 4.23-.05 10.35-.02 20.69-.04 31.03-.16 1.79.57 3.66 1.95 4.81 1.96.8 3.83-.11 4.99-1.69.19-5.08-.29-10.26.71-15.27 1.12-1.16 2.82-1.14 4.29-.87 2.85 6.07.58 13.15 1.52 19.62.68 3.23 6.34 2.81 6.48-.46.12-7.73.19-15.44.04-23.17-.24-2.19 1.53-4.89 4-4.14 2.68.82 1.39 4.3 3.16 5.91 1.41 2.52 5.71 1.04 5.77-1.63.05-5.72.17-11.45-.06-17.16-.58-2.39-3.71-2.81-5.53-1.61-1.85 1.83-.62 5.46-3.27 6.62-1.72.55-3.33-.52-3.72-2.21-.41-3.53.42-7.18-.55-10.63-.94-2.96-6.58-2.37-6.46.88M21.25 70.99c-.57 2.85 2.83 4.11 5.09 3.44 1.15-1.25 2.18-2.76 1.55-4.54-.81-3.52-7.13-2.56-6.64 1.1z"/><g fill="#f5f5f5"><path d="M34.2 19c.3-3.15 5.52-3.97 6.56-.93 1.04 3.9.19 7.94.21 11.9.72 17.72-.1 35.45-.04 53.17-1.55 2.86-6.18 2.36-6.77-.95-.49-9.07.16-18.19-.27-27.26-.18-2.34-2.97-2.9-4.72-1.85-2.08 3.16.12 7.3-1.68 10.59-1.58 2.45-6.28 1.35-6.19-1.72-.01-9.29-.11-18.6.06-27.89.32-3 5.21-3.4 6.3-.73 1.44 3.44-.33 7.4 1.33 10.79 1.78.71 5.1.73 4.94-1.96.36-7.71-.26-15.46.27-23.16zm14.08 2.41c1.76-1.27 5.22-1.02 5.62 1.55.92 2.36-1.26 5.13-3.76 4.38-3.02.16-3.96-4.34-1.86-5.93zm12.05 4.57c-.12-3.25 5.52-3.84 6.46-.88.97 3.45.14 7.1.55 10.63.39 1.69 2 2.76 3.72 2.21 2.65-1.16 1.42-4.79 3.27-6.62 1.82-1.2 4.95-.78 5.53 1.61.23 5.71.11 11.44.06 17.16-.06 2.67-4.36 4.15-5.77 1.63-1.77-1.61-.48-5.09-3.16-5.91-2.47-.75-4.24 1.95-4 4.14.15 7.73.08 15.44-.04 23.17-.14 3.27-5.8 3.69-6.48.46-.94-6.47 1.33-13.55-1.52-19.62-1.47-.27-3.17-.29-4.29.87-1 5.01-.52 10.19-.71 15.27-1.16 1.58-3.03 2.49-4.99 1.69-1.38-1.15-2.11-3.02-1.95-4.81.02-10.34-.01-20.68.04-31.03-.19-2.23 1.36-4.87 3.93-4.23 1.96-.31 3 1.59 3.15 3.24.1 3.14-.34 6.38.48 9.44 1.04 2.85 5.75 1.53 5.56-1.45.32-5.65-.07-11.32.16-16.97z"/><path d="M21.25 70.99c-.49-3.66 5.83-4.62 6.64-1.1.63 1.78-.4 3.29-1.55 4.54-2.26.67-5.66-.59-5.09-3.44z"/></g></svg>