<svg width="100pt" height="100pt" viewBox="0 0 100 100" xmlns="http://www.w3.org/2000/svg"><g fill="#b71c22"><path d="M8.4 4.31C11.99 1.58 16.53.36 21.01.49c20.01.07 40.01 0 60.02.03C89.83.42 97.76 7.01 100 15.4v70.21c-1.73 6.72-7.08 11.9-13.44 14.39H14.4C6.93 97.53 1.84 90.88 0 83.4V17.65C1.61 12.61 3.86 7.4 8.4 4.31m71.96 20.12c-5.94 8.92-11.09 18.34-16.18 27.76-3.02 4.79-5.98 9.65-8.29 14.82 1.28 3.42 3.52 6.36 5.27 9.55 6.4-9.3 11.26-19.58 17.43-29.03 4.63-7.6 8.53-15.59 13.14-23.19-3.79.13-7.58.15-11.37.09m-71.08.1c1.74 4.37 4.48 8.22 6.79 12.28 7.52 13.38 15.51 26.48 23.19 39.77 4.27-5.44 6.86-11.99 10.86-17.63 1.02 1.1 2.07 2.18 3.06 3.31 2.49-2.73 4.16-6.05 5.68-9.39-2.46-5.01-5.36-9.78-8.06-14.66-4.78 5.49-7.46 12.45-11.37 18.55-5.82-10.92-12.37-21.45-18.4-32.26-3.91-.19-7.84-.24-11.75.03M50.31 67c-1.85 3.23-3.76 6.43-5.41 9.76 3.72.05 7.44.05 11.15-.01-1.79-3.32-3.53-6.68-5.74-9.75z"/><path d="M81.03 25.81c2.69-.03 5.38-.02 8.07.06-3.26 6.34-7.48 12.12-10.82 18.42C72.97 54.33 66.9 63.94 61.5 73.94c-1.59-2.2-2.93-4.56-4.21-6.95 7.82-13.78 16.43-27.11 23.74-41.18z"/></g><path d="M80.36 24.43c3.79.06 7.58.04 11.37-.09-4.61 7.6-8.51 15.59-13.14 23.19-6.17 9.45-11.03 19.73-17.43 29.03-1.75-3.19-3.99-6.13-5.27-9.55 2.31-5.17 5.27-10.03 8.29-14.82 5.09-9.42 10.24-18.84 16.18-27.76m.67 1.38c-7.31 14.07-15.92 27.4-23.74 41.18 1.28 2.39 2.62 4.75 4.21 6.95 5.4-10 11.47-19.61 16.78-29.65 3.34-6.3 7.56-12.08 10.82-18.42-2.69-.08-5.38-.09-8.07-.06zM9.28 24.53c3.91-.27 7.84-.22 11.75-.03 6.03 10.81 12.58 21.34 18.4 32.26 3.91-6.1 6.59-13.06 11.37-18.55 2.7 4.88 5.6 9.65 8.06 14.66-1.52 3.34-3.19 6.66-5.68 9.39-.99-1.13-2.04-2.21-3.06-3.31-4 5.64-6.59 12.19-10.86 17.63-7.68-13.29-15.67-26.39-23.19-39.77-2.31-4.06-5.05-7.91-6.79-12.28zM50.31 67c2.21 3.07 3.95 6.43 5.74 9.75-3.71.06-7.43.06-11.15.01 1.65-3.33 3.56-6.53 5.41-9.76z" fill="#f4f4f4"/></svg>