<svg width="100pt" height="100pt" viewBox="0 0 100 100" xmlns="http://www.w3.org/2000/svg"><g fill="#f47d45"><path d="M1.03 16.05c1.59-7.32 7.68-13.44 15-15.04 3.28-.72 6.66-.5 9.98-.53 18.34.05 36.67 0 55 .02 8.54-.09 16.36 5.97 18.99 14v72.17c-2.12 6.31-7.26 11.52-13.71 13.33H14.82C6.66 97.48.5 89.58.51 80.96.4 62.31.54 43.65.45 24.99c0-2.99-.06-6.01.58-8.94m37.15 2.71c.19 1.17.37 2.34.54 3.51-1.37-.54-2.24-1.53-2.61-2.98-3.01 3.3-8.26 5.36-8.72 10.35-.8-.22-1.61-.44-2.41-.65-1.78 2.69-5.66 5.33-4.79 8.78.45-.1 1.37-.31 1.83-.42-.27.87-.53 1.75-.77 2.62l-2.12-1c-2.4 3.21-1.34 7.84-1.57 11.66.48-.04 1.43-.12 1.91-.15.07.51.2 1.52.26 2.03-.57-.05-1.71-.17-2.28-.22.07 2.26.15 4.52.22 6.79.78 1.26.35 3.86 2.31 3.95.5-.24 1.49-.72 1.98-.97-.11.64-.32 1.9-.43 2.53l-.52.47-.45.66c1.85 3.9 4.98 7.42 9.55 7.84-.39.75-.79 1.5-1.19 2.26 2.74 2.4 5.69 4.64 9.18 5.82l-.73-2.52c.77.21 2.31.62 3.08.83-.4.54-1.18 1.62-1.57 2.17 4.34 1.12 9.61 2.8 13.23-.9.32.62.96 1.85 1.28 2.47 3.45-.15 6.83-.85 10.15-1.81-.47-.49-1.41-1.48-1.88-1.97 1.09-.45 2.21-.84 3.34-1.16l-.65 2.6c2.65-1.59 5.46-3.11 7.56-5.43 1.12-1.75 1.77-3.76 2.73-5.59l-.25 2.82c3.46-2.44 5.68-6.1 7.62-9.78-.71.04-2.12.13-2.83.17l.81-2.64c.56.29 1.68.88 2.24 1.17.64-2.66 1.41-5.34 1.43-8.1 0-2.87-1.87-5.23-2.9-7.8.83.02 2.48.06 3.31.07-.52-2.95-1.17-5.88-1.72-8.82-1.33.92-2.81 2.08-3.87.11.83-.07 2.49-.21 3.33-.27-2.31-3.82-4.61-9.34-9.7-9.69.22-.41.65-1.22.86-1.62-2.82-2.68-6-5.09-9.73-6.34.14.64.43 1.91.58 2.54-.99-.39-1.97-.78-2.95-1.17l2.04-2.04c-3.94-1.59-8.21-1.52-12.37-1.38-.07.67-.21 2.02-.29 2.7a40.22 40.22 0 0 1-2.16-2.85c-3.36-.09-6.68.5-9.91 1.35z"/><path d="M46.22 19.32c.62.41.62.41 0 0zm6.11-.13c2.94-1.58.14 3.35 0 0zm3.91 3.3c.35-.32 1.06-.96 1.41-1.28.3.34.91 1.01 1.22 1.34-2.28.73-4.64 1.13-7.01 1.42 1.42 3.38 5.25 2.65 8.21 2.78 2.15 2.33 4.8 4.24 8.18 3.92-1.26-2.2-3.96-4.05-3.61-6.87 1.57 2.26 3.29 4.44 5.4 6.24 1.24 2.2 2.89 4.2 5.49 4.77.11.51.33 1.54.44 2.06-2.06-1.3-3.99-2.8-5.71-4.54.11 1.72.2 3.43.26 5.15 1.29.98 2.58 1.94 3.88 2.9.02 1.97.06 3.95.13 5.93.91.92 1.82 1.84 2.72 2.78.19-2.62.46-5.25 1.21-7.78.57 5.51-.37 11.21 1.45 16.54-.42.17-1.25.52-1.67.7-.46-2.2-.93-4.4-1.44-6.59-2.27 2.34-2.17 5.58-2.02 8.61-1.01.76-2.01 1.53-3.02 2.29-.27 1.55-.55 3.08-.83 4.63 1.98-1.51 4.03-2.93 6.26-4.06-.18.5-.54 1.51-.71 2.01-3.47 3.36-7.5 6.23-10.08 10.4-.51.11-1.52.34-2.02.45 1.22-2.18 2.54-4.3 3.85-6.43-3.1.4-5.57 2.24-7.54 4.55-2.94-.2-5.75.5-7.99 2.48 2.3.39 4.6.76 6.9 1.14-.18.4-.55 1.21-.73 1.62-4.9-.98-9.93-.94-14.87-.28-.44-.23-1.32-.68-1.76-.91 2.35-.72 4.73-1.3 7.1-1.92-2.45-1.69-5.34-2.37-8.28-1.84-1.94-2.27-4.47-3.87-7.53-3.99 1.29 1.85 2.63 3.66 3.97 5.47-.46.21-1.36.63-1.82.84-1.83-3.33-4.8-5.78-7.02-8.83-.71-1.22-2.12-1.48-3.35-1.9l.04-2.01c1.82 1.3 3.66 2.58 5.53 3.81.47-2.99-.84-5.65-3.46-7.15-.05-1.32-.1-2.64-.17-3.96-.4-1-.8-2-1.18-3l-2.32-1.76c-.01 2.59-.13 5.23-1.18 7.64-.57-5.64 1.03-11.52-1.07-16.94.46.16 1.37.49 1.83.66.15 1.76.29 3.53.42 5.3.63-.14 1.87-.4 2.5-.53.21-2.2 1.7-4.65.2-6.71 1.29-1.45 2.61-2.88 3.92-4.31.06-1.26.19-3.78.25-5.04-1.74 2.12-3.76 4.16-6.56 4.71 1.35-1.76 3.23-2.93 5.09-4.07l.63-1.78c3.27-1.26 3.74-5.46 7-6.62-.99 2.45-2.31 4.73-3.64 7 2.97-.61 5.47-2.28 7.27-4.69 3.36.25 6.75-.35 9.09-3.01-2.79-.09-5.62-.26-8.27-1.24 5-.35 10.01.03 15.01-.1M32.35 41.45c-2.61 4.8-1.97 10.44-1.68 15.68 3.61 9.3 13.99 15.84 23.98 13.15-4.2-1.98-8.16-4.56-11.01-8.29 3.87 3.12 8.1 6.55 13.33 6.6 4.97.33 8.78-3.59 11.26-7.44 2.92-5.45 3.49-12.07 1.74-17.99-1.59-4.44-5.22-7.66-8.69-10.66-3.13-.09-6.32-.46-9.4.26-4.44 1.39-7.41 5.15-10.33 8.54 2.31-3.9 5.32-7.55 9.55-9.43.23-.41.69-1.22.92-1.62-7.97-.44-16.17 3.94-19.67 11.2zm-2.38-15.2c3.34-.02-1.43 3.03 0 0z"/><path d="M41.98 52.85c-.5-5.18 3.38-11.16 9.05-10.56 6.38-.29 10.77 8.54 6.45 13.34-1.55 2.12-4.17 2.89-6.49 3.86-3.92-.76-7.38-2.88-9.01-6.64zm-22.84-5.52c3.35.14-1.54 2.96 0 0zm62.1 4.96c3.33.21-1.57 2.94 0 0zm-54.9 17.76c1.4-.36 1.93.14 1.6 1.51-1.4.37-1.94-.14-1.6-1.51zm4.97 5.12c.42.63.42.63 0 0zm16.21 6.04c2.96-1.59.22 3.32 0 0z"/></g><g fill="#f5f5f5"><path d="M38.18 18.76c3.23-.85 6.55-1.44 9.91-1.35.68.98 1.4 1.94 2.16 2.85.08-.68.22-2.03.29-2.7 4.16-.14 8.43-.21 12.37 1.38l-2.04 2.04c.98.39 1.96.78 2.95 1.17-.15-.63-.44-1.9-.58-2.54 3.73 1.25 6.91 3.66 9.73 6.34-.21.4-.64 1.21-.86 1.62 5.09.35 7.39 5.87 9.7 9.69-.84.06-2.5.2-3.33.27 1.06 1.97 2.54.81 3.87-.11.55 2.94 1.2 5.87 1.72 8.82-.83-.01-2.48-.05-3.31-.07 1.03 2.57 2.9 4.93 2.9 7.8-.02 2.76-.79 5.44-1.43 8.1-.56-.29-1.68-.88-2.24-1.17l-.81 2.64c.71-.04 2.12-.13 2.83-.17-1.94 3.68-4.16 7.34-7.62 9.78l.25-2.82c-.96 1.83-1.61 3.84-2.73 5.59-2.1 2.32-4.91 3.84-7.56 5.43l.65-2.6c-1.13.32-2.25.71-3.34 1.16.47.49 1.41 1.48 1.88 1.97-3.32.96-6.7 1.66-10.15 1.81-.32-.62-.96-1.85-1.28-2.47-3.62 3.7-8.89 2.02-13.23.9.39-.55 1.17-1.63 1.57-2.17-.77-.21-2.31-.62-3.08-.83l.73 2.52c-3.49-1.18-6.44-3.42-9.18-5.82.4-.76.8-1.51 1.19-2.26-4.57-.42-7.7-3.94-9.55-7.84l.45-.66.52-.47c.11-.63.32-1.89.43-2.53-.49.25-1.48.73-1.98.97-1.96-.09-1.53-2.69-2.31-3.95-.07-2.27-.15-4.53-.22-6.79.57.05 1.71.17 2.28.22-.06-.51-.19-1.52-.26-2.03-.48.03-1.43.11-1.91.15.23-3.82-.83-8.45 1.57-11.66l2.12 1c.24-.87.5-1.75.77-2.62-.46.11-1.38.32-1.83.42-.87-3.45 3.01-6.09 4.79-8.78.8.21 1.61.43 2.41.65.46-4.99 5.71-7.05 8.72-10.35.37 1.45 1.24 2.44 2.61 2.98-.17-1.17-.35-2.34-.54-3.51m8.04.56c.62.41.62.41 0 0m6.11-.13c.14 3.35 2.94-1.58 0 0m3.91 3.3c-5 .13-10.01-.25-15.01.1 2.65.98 5.48 1.15 8.27 1.24-2.34 2.66-5.73 3.26-9.09 3.01-1.8 2.41-4.3 4.08-7.27 4.69 1.33-2.27 2.65-4.55 3.64-7-3.26 1.16-3.73 5.36-7 6.62l-.63 1.78c-1.86 1.14-3.74 2.31-5.09 4.07 2.8-.55 4.82-2.59 6.56-4.71-.06 1.26-.19 3.78-.25 5.04-1.31 1.43-2.63 2.86-3.92 4.31 1.5 2.06.01 4.51-.2 6.71-.63.13-1.87.39-2.5.53-.13-1.77-.27-3.54-.42-5.3-.46-.17-1.37-.5-1.83-.66 2.1 5.42.5 11.3 1.07 16.94 1.05-2.41 1.17-5.05 1.18-7.64l2.32 1.76c.38 1 .78 2 1.18 3 .07 1.32.12 2.64.17 3.96 2.62 1.5 3.93 4.16 3.46 7.15-1.87-1.23-3.71-2.51-5.53-3.81l-.04 2.01c1.23.42 2.64.68 3.35 1.9 2.22 3.05 5.19 5.5 7.02 8.83.46-.21 1.36-.63 1.82-.84-1.34-1.81-2.68-3.62-3.97-5.47 3.06.12 5.59 1.72 7.53 3.99 2.94-.53 5.83.15 8.28 1.84-2.37.62-4.75 1.2-7.1 1.92.44.23 1.32.68 1.76.91 4.94-.66 9.97-.7 14.87.28.18-.41.55-1.22.73-1.62-2.3-.38-4.6-.75-6.9-1.14 2.24-1.98 5.05-2.68 7.99-2.48 1.97-2.31 4.44-4.15 7.54-4.55-1.31 2.13-2.63 4.25-3.85 6.43.5-.11 1.51-.34 2.02-.45 2.58-4.17 6.61-7.04 10.08-10.4.17-.5.53-1.51.71-2.01-2.23 1.13-4.28 2.55-6.26 4.06.28-1.55.56-3.08.83-4.63 1.01-.76 2.01-1.53 3.02-2.29-.15-3.03-.25-6.27 2.02-8.61.51 2.19.98 4.39 1.44 6.59.42-.18 1.25-.53 1.67-.7-1.82-5.33-.88-11.03-1.45-16.54-.75 2.53-1.02 5.16-1.21 7.78-.9-.94-1.81-1.86-2.72-2.78-.07-1.98-.11-3.96-.13-5.93-1.3-.96-2.59-1.92-3.88-2.9-.06-1.72-.15-3.43-.26-5.15 1.72 1.74 3.65 3.24 5.71 4.54-.11-.52-.33-1.55-.44-2.06-2.6-.57-4.25-2.57-5.49-4.77-2.11-1.8-3.83-3.98-5.4-6.24-.35 2.82 2.35 4.67 3.61 6.87-3.38.32-6.03-1.59-8.18-3.92-2.96-.13-6.79.6-8.21-2.78 2.37-.29 4.73-.69 7.01-1.42-.31-.33-.92-1-1.22-1.34-.35.32-1.06.96-1.41 1.28m-26.27 3.76c-1.43 3.03 3.34-.02 0 0M19.14 47.33c-1.54 2.96 3.35.14 0 0m62.1 4.96c-1.57 2.94 3.33.21 0 0m-54.9 17.76c-.34 1.37.2 1.88 1.6 1.51.33-1.37-.2-1.87-1.6-1.51m4.97 5.12c.42.63.42.63 0 0m16.21 6.04c.22 3.32 2.96-1.59 0 0z"/><path d="M32.35 41.45c3.5-7.26 11.7-11.64 19.67-11.2-.23.4-.69 1.21-.92 1.62-4.23 1.88-7.24 5.53-9.55 9.43 2.92-3.39 5.89-7.15 10.33-8.54 3.08-.72 6.27-.35 9.4-.26 3.47 3 7.1 6.22 8.69 10.66 1.75 5.92 1.18 12.54-1.74 17.99-2.48 3.85-6.29 7.77-11.26 7.44-5.23-.05-9.46-3.48-13.33-6.6 2.85 3.73 6.81 6.31 11.01 8.29-9.99 2.69-20.37-3.85-23.98-13.15-.29-5.24-.93-10.88 1.68-15.68m9.63 11.4c1.63 3.76 5.09 5.88 9.01 6.64 2.32-.97 4.94-1.74 6.49-3.86 4.32-4.8-.07-13.63-6.45-13.34-5.67-.6-9.55 5.38-9.05 10.56z"/></g></svg>