<svg width="100pt" height="100pt" viewBox="0 0 100 100" xmlns="http://www.w3.org/2000/svg"><path fill="#2a8ff0" d="M16.47 0H84.5c7.38 2.26 13.24 8.09 15.5 15.47v69.04C97.75 91.9 91.89 97.73 84.51 100H16.47C8.28 98.33 1.68 91.72 0 83.53V16.47C1.67 8.27 8.29 1.69 16.47 0m7.5 27.16c-.78 6.58-.1 13.23-.3 19.84.22 9.64-.53 19.32.46 28.93 4.89-2.1 7.01-7.28 9.14-11.76 3.48-7.57 4.37-15.97 4.93-24.19.3-1.84 0-4.67 2.27-5.32 3.16-.63 6.41-.45 9.61-.4 1.77.11 3.83.08 5.1 1.54 1.9 1.69 1.77 4.49 1.4 6.78-3.58 2.97-8.88 2.52-12.49 5.47-1.96 1.71-1.66 4.6-1.42 6.93 3.89 2.22 8.6 1.16 12.83.81 6.12-.47 12.15-3.83 14.94-9.43 3.4-7.16.41-16.51-6.29-20.63-3.95-2.3-8.65-2.5-13.09-2.91-9.12-.49-19.22-1.17-27.09 4.34m17.89 32.63c-1.75 3.91-3.31 7.92-5.54 11.61-1.09 1.59-1.27 3.69-.05 5.28 4.83 1.32 9.85.13 14.75.13 6.6-.29 13.44 1.14 19.86-.89 6.82-2.24 7.02-13.66.2-16.04-5.47-1.91-11.4-.91-17.08-1.16-4.03.15-8.34-.63-12.14 1.07z"/><g fill="#f7f7f7"><path d="M23.97 27.16c7.87-5.51 17.97-4.83 27.09-4.34 4.44.41 9.14.61 13.09 2.91 6.7 4.12 9.69 13.47 6.29 20.63-2.79 5.6-8.82 8.96-14.94 9.43-4.23.35-8.94 1.41-12.83-.81-.24-2.33-.54-5.22 1.42-6.93 3.61-2.95 8.91-2.5 12.49-5.47.37-2.29.5-5.09-1.4-6.78-1.27-1.46-3.33-1.43-5.1-1.54-3.2-.05-6.45-.23-9.61.4-2.27.65-1.97 3.48-2.27 5.32-.56 8.22-1.45 16.62-4.93 24.19-2.13 4.48-4.25 9.66-9.14 11.76-.99-9.61-.24-19.29-.46-28.93.2-6.61-.48-13.26.3-19.84z"/><path d="M41.86 59.79c3.8-1.7 8.11-.92 12.14-1.07 5.68.25 11.61-.75 17.08 1.16 6.82 2.38 6.62 13.8-.2 16.04-6.42 2.03-13.26.6-19.86.89-4.9 0-9.92 1.19-14.75-.13-1.22-1.59-1.04-3.69.05-5.28 2.23-3.69 3.79-7.7 5.54-11.61z"/></g></svg>