<svg width="100pt" height="100pt" viewBox="0 0 100 100" xmlns="http://www.w3.org/2000/svg"><path fill="#034761" d="M20.02 0h59.02C88.85-.26 97.86 6.75 100 16.3v68.08c-1.49 7.25-7.01 13.43-14.09 15.62H13.95C7.04 97.74 1.66 91.76 0 84.7V16.61C1.8 7.24 10.51.16 20.02 0m-6.04 34.1c-5.52 12.3-4.29 27.4 3.23 38.6 8.63 13.03 25.28 19.74 40.56 16.6 13.51-2.51 25.11-12.84 29.62-25.76 5.67-16.16-.19-36.09-14.91-45.35 9.44 8.09 16.61 20.03 15.34 32.86-.55 12.62-8.42 24.28-19.29 30.43-13.64 8.01-32.25 5.49-43.5-5.53-7.23-6.59-11.57-16.19-11.8-25.96-.44-10.76 4.26-21.51 12.23-28.69 6.8-6.36 16.13-9.69 25.37-9.78-15.46-1.67-30.55 8.75-36.85 22.58m15.29-6.83c.01 3.41.01 6.81.01 10.21 7.84-.03 15.69.02 23.54-.03-7.83 8.92-15.69 17.81-23.51 26.74-.24 3.42-.37 6.84-.32 10.26 14-.02 28.01-.02 42.01 0 .01-3.6 0-7.2-.02-10.8-7.82-.69-15.68-.27-23.52-.35 7.38-8.88 14.76-17.76 22.28-26.52-.02-3.09-.02-6.17-.02-9.26-13.49.21-26.96-.3-40.45-.25z"/><g fill="#f8f8f8"><path d="M13.98 34.1c6.3-13.83 21.39-24.25 36.85-22.58-9.24.09-18.57 3.42-25.37 9.78-7.97 7.18-12.67 17.93-12.23 28.69.23 9.77 4.57 19.37 11.8 25.96 11.25 11.02 29.86 13.54 43.5 5.53 10.87-6.15 18.74-17.81 19.29-30.43 1.27-12.83-5.9-24.77-15.34-32.86 14.72 9.26 20.58 29.19 14.91 45.35-4.51 12.92-16.11 23.25-29.62 25.76-15.28 3.14-31.93-3.57-40.56-16.6-7.52-11.2-8.75-26.3-3.23-38.6z"/><path d="M29.27 27.27c13.49-.05 26.96.46 40.45.25 0 3.09 0 6.17.02 9.26-7.52 8.76-14.9 17.64-22.28 26.52 7.84.08 15.7-.34 23.52.35.02 3.6.03 7.2.02 10.8-14-.02-28.01-.02-42.01 0-.05-3.42.08-6.84.32-10.26 7.82-8.93 15.68-17.82 23.51-26.74-7.85.05-15.7 0-23.54.03 0-3.4 0-6.8-.01-10.21z"/></g></svg>