<svg width="100pt" height="100pt" viewBox="0 0 100 100" xmlns="http://www.w3.org/2000/svg"><path fill="#23a2dd" d="M10.62 2.62C15.32.07 20.84.56 26 .54c16 .05 32 .06 48 0 5.16.02 10.68-.47 15.38 2.09 5.14 2.63 8.48 7.66 10.62 12.87v69.05C98.15 91.49 93.02 97.1 86.51 100H13.5C6.97 97.11 1.85 91.49 0 84.55v-68.1C1.73 10.78 5.22 5.38 10.62 2.62m5.32 38.32c-6.6 7.56-3.1 21.83 6.97 24.34 5.14 1.82 10.76.58 15.4-2.02 1.25-.76 3.02-1.49 2.93-3.26.41-4.03.06-8.08-.13-12.11a97.65 97.65 0 0 0-13.25.05c-.03 2.04-.05 4.08-.05 6.12 2.04.13 4.08.27 6.12.4-.07 1.38-.13 2.76-.2 4.14-3.19.69-7.06 2.04-9.78-.56-5.49-3.54-5.05-13.45 1.47-15.57 3.91-1.48 7.61.98 11.37 1.38 1.45-1.38 2.43-3.15 3.51-4.81-6.82-6.23-18.7-5.49-24.36 1.9m28.94-5.13c-.22 9.72.47 19.44.43 29.17 2.2.19 4.42.28 6.63.29.53-5.79.17-11.61.29-17.41 2.91 2.99 4.64 6.83 7 10.22.39.01 1.18.02 1.57.03 2.48-3.37 4.2-7.28 7.18-10.29.62 5.73-.33 11.49.16 17.23 2.27.14 4.55.21 6.82.21-.18-9.83.72-19.66.21-29.49-2.87.2-7.02-1.41-8.8 1.67-2.04 2.95-3.46 6.32-5.73 9.12l-1.1-.16c-2.46-3.38-4.26-7.19-6.62-10.64-2.67-.15-5.36-.13-8.04.05m35.22.05c-.61 9.7.71 19.4.2 29.12 2.2.18 4.42.28 6.63.3.36-9.84.62-19.69-.02-29.52-2.27-.09-4.55-.06-6.81.1z"/><path d="M15.94 40.94c5.66-7.39 17.54-8.13 24.36-1.9-1.08 1.66-2.06 3.43-3.51 4.81-3.76-.4-7.46-2.86-11.37-1.38-6.52 2.12-6.96 12.03-1.47 15.57 2.72 2.6 6.59 1.25 9.78.56.07-1.38.13-2.76.2-4.14-2.04-.13-4.08-.27-6.12-.4 0-2.04.02-4.08.05-6.12 4.41-.32 8.84-.33 13.25-.05.19 4.03.54 8.08.13 12.11.09 1.77-1.68 2.5-2.93 3.26-4.64 2.6-10.26 3.84-15.4 2.02-10.07-2.51-13.57-16.78-6.97-24.34zm28.94-5.13c2.68-.18 5.37-.2 8.04-.05 2.36 3.45 4.16 7.26 6.62 10.64l1.1.16c2.27-2.8 3.69-6.17 5.73-9.12 1.78-3.08 5.93-1.47 8.8-1.67.51 9.83-.39 19.66-.21 29.49-2.27 0-4.55-.07-6.82-.21-.49-5.74.46-11.5-.16-17.23-2.98 3.01-4.7 6.92-7.18 10.29-.39-.01-1.18-.02-1.57-.03-2.36-3.39-4.09-7.23-7-10.22-.12 5.8.24 11.62-.29 17.41-2.21-.01-4.43-.1-6.63-.29.04-9.73-.65-19.45-.43-29.17zm35.22.05c2.26-.16 4.54-.19 6.81-.1.64 9.83.38 19.68.02 29.52a91.63 91.63 0 0 1-6.63-.3c.51-9.72-.81-19.42-.2-29.12z" fill="#f3f3f3"/></svg>