<svg width="100pt" height="100pt" viewBox="0 0 100 100" xmlns="http://www.w3.org/2000/svg"><path fill="#000850" d="M15.6 0h68.76c7.7 2.24 14.11 8.45 15.64 16.46v67.07c-1.53 8-7.91 14.21-15.6 16.47H16.47C8.28 98.39 1.62 91.72 0 83.53V16.48C1.53 8.47 7.91 2.26 15.6 0m36.43 24.66c-1.81 2.76-3.94 5.3-5.97 7.91 3.02.12 6.05.11 9.08.11-3.04 3.74-6.13 7.44-9.13 11.21-5.79-2.36-11.57-4.77-17.47-6.84-.01 7.71-.24 15.44.13 23.15 3.34-3.27 5.88-7.2 8.59-10.96 3.78 1.02 7.42 2.54 11.03 4.07 4.55-5.24 9.28-10.35 13.18-16.11-.21 3.44-.21 6.89.02 10.32 2.9-2.9 5.69-5.97 7.76-9.53.3-4.46-.01-8.93.14-13.38-5.79.08-11.57.01-17.36.05m19.14 8.98c2.19 2.79 6.57 2.65 8.42 5.78 1.59 7.3-5.03 12.57-10.51 16-.12-4.02.21-8.04.05-12.06-2.84 2.55-5.33 5.52-7.21 8.85-.66 2.41-.56 4.95-.84 7.42-7.73 4.06-16.34 6.3-24.97 7.43.44-3.86.61-7.75.25-11.63-2.48 2.55-4.94 5.16-6.94 8.11-.89 1-1.13 2.14-.72 3.43-4.25-.38-9.99-1.43-11.2-6.24.01-6.1 6.66-8.81 9.09-13.79-5.16 1.53-8.58 6.12-11.26 10.51-1.8 2.75-2.2 6.21-1.41 9.36 1.45 3.47 4.76 6.06 8.4 6.9 10.61 2.7 21.86 1.16 32.14-2.2 11.33-3.74 22.48-9.71 29.6-19.57 2.75-3.75 3.62-9.59.16-13.18-3.31-3.48-8.31-5.24-13.05-5.12m-31.65 5.43c.57.3 1.7.9 2.27 1.2 2.99-.83 6.38-1.57 8.15-4.4-3.65.4-7.1 1.68-10.42 3.2z"/><g fill="#f6f6f6"><path d="M52.03 24.66c5.79-.04 11.57.03 17.36-.05-.15 4.45.16 8.92-.14 13.38-2.07 3.56-4.86 6.63-7.76 9.53-.23-3.43-.23-6.88-.02-10.32-3.9 5.76-8.63 10.87-13.18 16.11-3.61-1.53-7.25-3.05-11.03-4.07-2.71 3.76-5.25 7.69-8.59 10.96-.37-7.71-.14-15.44-.13-23.15 5.9 2.07 11.68 4.48 17.47 6.84 3-3.77 6.09-7.47 9.13-11.21-3.03 0-6.06.01-9.08-.11 2.03-2.61 4.16-5.15 5.97-7.91z"/><path d="M71.17 33.64c4.74-.12 9.74 1.64 13.05 5.12 3.46 3.59 2.59 9.43-.16 13.18-7.12 9.86-18.27 15.83-29.6 19.57-10.28 3.36-21.53 4.9-32.14 2.2-3.64-.84-6.95-3.43-8.4-6.9-.79-3.15-.39-6.61 1.41-9.36 2.68-4.39 6.1-8.98 11.26-10.51-2.43 4.98-9.08 7.69-9.09 13.79 1.21 4.81 6.95 5.86 11.2 6.24 2.45.37 4.95.33 7.41.09 8.63-1.13 17.24-3.37 24.97-7.43 2.67-1.41 5.42-2.65 8-4.21 5.48-3.43 12.1-8.7 10.51-16-1.85-3.13-6.23-2.99-8.42-5.78zm-31.65 5.43c3.32-1.52 6.77-2.8 10.42-3.2-1.77 2.83-5.16 3.57-8.15 4.4-.57-.3-1.7-.9-2.27-1.2z"/></g><path fill="#00ff2b" d="M61.92 52.21c1.88-3.33 4.37-6.3 7.21-8.85.16 4.02-.17 8.04-.05 12.06-2.58 1.56-5.33 2.8-8 4.21.28-2.47.18-5.01.84-7.42z"/><path fill="#f15858" d="M29.42 63.54c2-2.95 4.46-5.56 6.94-8.11.36 3.88.19 7.77-.25 11.63-2.46.24-4.96.28-7.41-.09-.41-1.29-.17-2.43.72-3.43z"/></svg>