<svg width="100pt" height="100pt" viewBox="0 0 100 100" xmlns="http://www.w3.org/2000/svg"><path fill="#f42727" d="M.86 17.02C2.05 9.56 7.96 3.14 15.24 1.21c3.18-.88 6.5-.72 9.77-.74C44.02.58 63.04.39 82.05.56 90.13.77 96.81 6.7 100 13.82v73.36c-2.39 5.79-7.04 10.33-12.76 12.82H14.55C5.88 97.02-.22 88.24.47 79.02.49 62.34.49 45.67.48 29c.04-3.99-.24-8.02.38-11.98m23.43 6.72c1.71 4 4.87 7.08 7.33 10.6 3.99 5.55 8.42 10.77 12.22 16.45-7.55 8.47-14.49 17.45-21.73 26.18 4.52.04 9.04.19 13.55-.13 6.82-9.45 14.91-17.94 21.26-27.71-6.3-8.72-13.29-16.94-19.97-25.35-4.21-.24-8.44.22-12.66-.04m32.87 9.96c2.4 2.99 4.58 6.2 7.58 8.64 4.44-5.97 9.08-11.8 13.08-18.07-4.3.03-8.59-.34-12.88-.66-2.86 3.15-5.65 6.39-7.78 10.09m6.95 22.96c-2.46 2.88-4.6 6.01-6.68 9.16 2.24 3.01 4.4 6.07 6.66 9.06.78.87 1.49 2.31 2.9 2.1 4.04.14 8.09.03 12.14-.02-5.04-6.75-9.83-13.68-15.02-20.3z"/><path d="M24.29 23.74c4.22.26 8.45-.2 12.66.04 6.68 8.41 13.67 16.63 19.97 25.35-6.35 9.77-14.44 18.26-21.26 27.71-4.51.32-9.03.17-13.55.13 7.24-8.73 14.18-17.71 21.73-26.18-3.8-5.68-8.23-10.9-12.22-16.45-2.46-3.52-5.62-6.6-7.33-10.6zm32.87 9.96c2.13-3.7 4.92-6.94 7.78-10.09 4.29.32 8.58.69 12.88.66-4 6.27-8.64 12.1-13.08 18.07-3-2.44-5.18-5.65-7.58-8.64zm6.95 22.96c5.19 6.62 9.98 13.55 15.02 20.3-4.05.05-8.1.16-12.14.02-1.41.21-2.12-1.23-2.9-2.1-2.26-2.99-4.42-6.05-6.66-9.06 2.08-3.15 4.22-6.28 6.68-9.16z" fill="#f8f8f8"/></svg>