<?xml version="1.0" encoding="utf-8"?>
<!-- Generator: Adobe Illustrator 26.0.0, SVG Export Plug-In . SVG Version: 6.00 Build 0)  -->
<svg version="1.1" id="图层_1" xmlns="http://www.w3.org/2000/svg" xmlns:xlink="http://www.w3.org/1999/xlink" x="0px" y="0px"
	 viewBox="0 0 100 100" style="enable-background:new 0 0 100 100;" xml:space="preserve">
<style type="text/css">
	.st0{fill:#030300;}
	.st1{fill:#FF0A11;}
</style>
<g>
	<path class="st0" d="M15.5,0h69c7.4,2.2,13.3,8.1,15.5,15.5v68c-1.6,7.9-7.9,14.1-15.5,16.5h-68C8.3,98.3,1.7,91.7,0,83.5V16.5
		C1.6,8.5,7.9,2.4,15.5,0 M42.5,32.7c-2.8,2-4.7,5-7.3,7.3c-1-2.5-1.3-5.5-3-7.6c-4.2-0.1-8.5-0.1-12.7,0.1
		c2.3,5.2,5.1,10.2,7.6,15.3c2.4-1.8,4.4-4,6.8-6c-5,6.6-10.8,12.6-16,19.1c-1.6,2.2-4.1,3.9-4.8,6.6c4,0.1,8,0,12.1,0
		c2.2-2.7,4.6-5.2,7-7.7c0.7,1.3,1.3,2.7,1.8,4.1l0.6-0.3c0.5,1.2,0.9,2.4,1.4,3.6c7.2-0.2,14.4,0.3,21.6-0.2
		c0.4-4.4,1.2-8.7,1.8-13c0.9,2.3,1.7,4.8,3.4,6.6c2-2.7,3.9-5.4,5.9-8.2c1.3-1.6,0-3.7-0.1-5.5c-1.1-4.6-2.5-9.2-3.6-13.8l-1-1.4
		C56.8,31.6,49.5,31.1,42.5,32.7 M81,35c-3.8,5.6-7.5,11.2-11,17c-2.1,3.5-5,6.6-6.6,10.4c3.2,0.1,6.4,0.2,9.6,0.2
		c2.6-3.6,4-8.4,7.7-11.1c-0.7,5.4-2.2,10.6-2.8,16c3.2,0,6.4,0,9.6,0c1.7-11.7,4.3-23.3,5.5-35.1c-2.9,0.1-5.9,0-8.8,0.1
		C82.6,32.3,81.8,34,81,35 M11.9,33.5c-1.6,9.9-3.3,19.8-5.1,29.7c-0.2,1.5-0.3,3-0.2,4.5c2.7-1.2,4.1-4,5.9-6.1
		c3-3.9,6.4-7.3,9.1-11.4c-2.3-4.3-4.4-8.6-6.6-12.9C14.2,35.8,13.6,34,11.9,33.5z"/>
	<path class="st0" d="M42.4,49.5c2.8-4.3,6.5-8,9.4-12.3C51,41,50.3,45,49.8,48.9c-0.7,4.8-1.7,9.5-2.3,14.2
		c-0.4-0.8-0.8-1.7-1.2-2.5C45.1,56.9,42.1,53.5,42.4,49.5z"/>
</g>
<path class="st1" d="M11.9,33.5c1.7,0.5,2.3,2.3,3.1,3.7c2.2,4.3,4.3,8.7,6.6,12.9c-2.6,4.1-6.1,7.5-9.1,11.4
	c-1.8,2.2-3.2,4.9-5.9,6.1c-0.1-1.5,0-3,0.2-4.5C8.6,53.2,10.2,43.3,11.9,33.5z"/>
</svg>
