<svg width="100pt" height="100pt" viewBox="0 0 100 100" xmlns="http://www.w3.org/2000/svg"><g fill="#f3f3f3"><path d="M0 0h100v13.83C96.29 7.18 90.22.65 82.03.61 62.69.42 43.35.65 24.01.5c-3.95-.02-8.1.01-11.65 1.95C6.17 5.49.95 11.78 1.3 18.97c.05 21.35.01 42.7.02 64.05C1.2 91.01 7.91 96.9 14.62 100H0V0z"/><path d="M69.87 32.1c4.84-.73 10.43-.48 14.47 2.58 3.42 2.78 3.02 7.94.21 10.99 1.69 1.55 3.7 3.11 4.05 5.54 1.26 4.6-2.21 9.78-6.95 10.3-3.96.46-7.95.46-11.92.74 1.26-10.04-.88-20.09.14-30.15m6.45 5.93c-.01 1.98-.01 3.96 0 5.95 1.3-.26 2.61-.46 3.87-.85.75-1.06.48-2.47.49-3.69-1.11-1.21-2.9-1.03-4.36-1.41m-.47 10.92c-.04 2.44-.04 4.88-.02 7.32 2.62-.2 7.18.39 7.44-3.31-.66-3.32-4.8-3.28-7.42-4.01zM13.67 32.43c1.97-.04 3.94-.05 5.92-.04.06 3.2.05 6.41.02 9.62 2.66-2.93 4.79-6.33 7.62-9.12 2.22-1.16 4.96-.3 7.38-.36-2.82 4.71-6.56 8.76-10.16 12.88 3.48 5.82 8.63 10.59 11.32 16.85-2.18-.02-4.45.42-6.56-.23-3.59-4.04-6.32-8.77-9.74-12.96.26 4.42.24 8.85.03 13.26-1.93 0-3.87 0-5.8-.02-.11-9.96-.04-19.92-.03-29.88zm23.29 29.92c3.33-10.24 7.7-20.14 11.78-30.1 2.09.08 4.18.2 6.27.33 3.61 9.77 7.39 19.48 11.18 29.18-1.98.02-3.95.03-5.93.02-.83-1.84-1.73-3.66-2.56-5.5-4.07.05-8.13.04-12.2.04-.83 1.83-1.27 3.99-2.77 5.41-1.9.39-3.84.48-5.77.62M51.5 40.96c-1.18 2.89-2.31 5.8-3.45 8.7 2.52.05 5.04.14 7.57.24-1.46-2.94-2.68-5.99-4.12-8.94zM87.37 100C92.7 97.08 97 92.7 100 87.43V100H87.37z"/></g><g fill="#a8293e"><path d="M12.36 2.45C15.91.51 20.06.48 24.01.5 43.35.65 62.69.42 82.03.61 90.22.65 96.29 7.18 100 13.83v73.6c-3 5.27-7.3 9.65-12.63 12.57H14.62C7.91 96.9 1.2 91.01 1.32 83.02c-.01-21.35.03-42.7-.02-64.05C.95 11.78 6.17 5.49 12.36 2.45M69.87 32.1c-1.02 10.06 1.12 20.11-.14 30.15 3.97-.28 7.96-.28 11.92-.74 4.74-.52 8.21-5.7 6.95-10.3-.35-2.43-2.36-3.99-4.05-5.54 2.81-3.05 3.21-8.21-.21-10.99-4.04-3.06-9.63-3.31-14.47-2.58m-56.2.33c-.01 9.96-.08 19.92.03 29.88 1.93.02 3.87.02 5.8.02.21-4.41.23-8.84-.03-13.26 3.42 4.19 6.15 8.92 9.74 12.96 2.11.65 4.38.21 6.56.23-2.69-6.26-7.84-11.03-11.32-16.85 3.6-4.12 7.34-8.17 10.16-12.88-2.42.06-5.16-.8-7.38.36-2.83 2.79-4.96 6.19-7.62 9.12.03-3.21.04-6.42-.02-9.62-1.98-.01-3.95 0-5.92.04m23.29 29.92c1.93-.14 3.87-.23 5.77-.62 1.5-1.42 1.94-3.58 2.77-5.41 4.07 0 8.13.01 12.2-.04.83 1.84 1.73 3.66 2.56 5.5 1.98.01 3.95 0 5.93-.02-3.79-9.7-7.57-19.41-11.18-29.18-2.09-.13-4.18-.25-6.27-.33-4.08 9.96-8.45 19.86-11.78 30.1z"/><path d="M76.32 38.03c1.46.38 3.25.2 4.36 1.41-.01 1.22.26 2.63-.49 3.69-1.26.39-2.57.59-3.87.85-.01-1.99-.01-3.97 0-5.95zM51.5 40.96c1.44 2.95 2.66 6 4.12 8.94-2.53-.1-5.05-.19-7.57-.24 1.14-2.9 2.27-5.81 3.45-8.7zm24.35 7.99c2.62.73 6.76.69 7.42 4.01-.26 3.7-4.82 3.11-7.44 3.31-.02-2.44-.02-4.88.02-7.32z"/></g></svg>