<svg width="100pt" height="100pt" viewBox="0 0 100 100" xmlns="http://www.w3.org/2000/svg"><path fill="#469ed7" d="M17.54 0h65.51C91.22 1.12 98.16 7.56 100 15.59v68.77c-1.78 8.01-8.68 14.39-16.78 15.64H17.26C7.75 98.68.18 90.04 0 80.45v-61C.21 9.81 7.94 1.15 17.54 0M57.4 38.78c-1.1-1.89-2.37-3.67-3.71-5.39-4.22-.01-8.45-.2-12.65.25 2.94 4.49 6.14 8.8 8.95 13.37-2.61 4.29-5.99 8.01-8.96 12.03-7.19 10.25-14.87 20.15-22.32 30.2 4.64.03 9.27.03 13.91.01C40.15 76.9 47.94 64.7 55.66 52.48c1.85 3.35 4.2 6.38 6.88 9.11 4.06-.04 8.12.1 12.18-.08-3.84-5.5-8.39-10.5-11.72-16.35-2.04.8-3.52 2.45-5.1 3.91 8.13-12.72 16.01-25.59 23.81-38.5-8.25 9.26-16.44 18.61-24.31 28.21z"/><path fill="#f9f9f9" d="M57.4 38.78c7.87-9.6 16.06-18.95 24.31-28.21-7.8 12.91-15.68 25.78-23.81 38.5 1.58-1.46 3.06-3.11 5.1-3.91 3.33 5.85 7.88 10.85 11.72 16.35-4.06.18-8.12.04-12.18.08-2.68-2.73-5.03-5.76-6.88-9.11C47.94 64.7 40.15 76.9 32.62 89.25c-4.64.02-9.27.02-13.91-.01 7.45-10.05 15.13-19.95 22.32-30.2 2.97-4.02 6.35-7.74 8.96-12.03-2.81-4.57-6.01-8.88-8.95-13.37 4.2-.45 8.43-.26 12.65-.25 1.34 1.72 2.61 3.5 3.71 5.39z"/></svg>