<svg width="100pt" height="100pt" viewBox="0 0 100 100" xmlns="http://www.w3.org/2000/svg"><path fill="#20469a" d="M15.47 0h69.05C91.87 2.25 97.79 8.05 100 15.44v69.11c-2.21 7.39-8.1 13.22-15.47 15.45H15.45C8.09 97.78 2.23 91.92 0 84.56V15.45C2.21 8.06 8.1 2.23 15.47 0m17.75 26.2C25.18 34.03 17.1 41.82 9.42 50c7.65 8.21 15.78 15.95 23.9 23.67 3.32 3.02 5.85 6.91 9.65 9.38 1.77-1.47 3.23-3.27 4.72-5.01-8.97-9.38-18.19-18.52-27.36-27.7 5.08-4.94 10.18-9.88 14.78-15.28 2.18-2.47 4.3-5.06 7-6.98 1.39.35 2.28 1.62 3.28 2.56 6.34 7.17 13.32 13.73 20.23 20.33-5.17 4.65-10.53 9.09-15.48 13.99-4.66-5.09-9.51-9.99-14.31-14.96 4.24-4.47 8.86-8.64 12.33-13.78-1.65-1.38-3.28-2.77-4.93-4.14-6.41 6.11-12.81 12.26-18.72 18.87 11.04 10.29 21.73 20.93 32.66 31.32 11.21-10.49 22.25-21.2 33.04-32.12C85 43.93 79.13 38.32 73.47 32.52c-5.32-5.22-10.16-10.89-15.44-16.14a222.58 222.58 0 0 0-6.06 5.41c9.29 9.51 18.73 18.86 28.09 28.28-6.65 7.97-14.09 15.24-21.04 22.95a59.68 59.68 0 0 0-3.27-2.27c6.37-7.17 13.45-13.67 19.86-20.8-4.69-5.48-10.24-10.15-14.86-15.69-5.79-6.08-11.64-12.1-17.75-17.85-3.45 3.08-6.61 6.44-9.78 9.79z"/><path fill="#f6f6f6" d="M33.22 26.2c3.17-3.35 6.33-6.71 9.78-9.79 6.11 5.75 11.96 11.77 17.75 17.85 4.62 5.54 10.17 10.21 14.86 15.69-6.41 7.13-13.49 13.63-19.86 20.8 1.11.72 2.2 1.47 3.27 2.27 6.95-7.71 14.39-14.98 21.04-22.95-9.36-9.42-18.8-18.77-28.09-28.28 1.98-1.84 4.01-3.64 6.06-5.41 5.28 5.25 10.12 10.92 15.44 16.14 5.66 5.8 11.53 11.41 16.74 17.63a1177.623 1177.623 0 0 1-33.04 32.12C46.24 71.88 35.55 61.24 24.51 50.95c5.91-6.61 12.31-12.76 18.72-18.87 1.65 1.37 3.28 2.76 4.93 4.14-3.47 5.14-8.09 9.31-12.33 13.78 4.8 4.97 9.65 9.87 14.31 14.96 4.95-4.9 10.31-9.34 15.48-13.99-6.91-6.6-13.89-13.16-20.23-20.33-1-.94-1.89-2.21-3.28-2.56-2.7 1.92-4.82 4.51-7 6.98-4.6 5.4-9.7 10.34-14.78 15.28 9.17 9.18 18.39 18.32 27.36 27.7-1.49 1.74-2.95 3.54-4.72 5.01-3.8-2.47-6.33-6.36-9.65-9.38C25.2 65.95 17.07 58.21 9.42 50c7.68-8.18 15.76-15.97 23.8-23.8z"/></svg>