<svg width="100pt" height="100pt" viewBox="0 0 100 100" xmlns="http://www.w3.org/2000/svg"><path fill="#e73fcc" d="M.52 20.07C.53 9.75 9.66.51 20.01.52 40.35.47 60.69.51 81.02.5c8.55-.09 16.31 6 18.98 13.99v72.16c-2.11 6.3-7.23 11.46-13.64 13.35H14.83C6.34 97.39.14 88.97.49 80.04.51 60.05.43 40.06.52 20.07m8.13-5.31c1.3 2.16 2.38 4.61 4.45 6.18 5.69 4.67 13.65 5.05 19.32 9.76 3.19 2.49 3.93 6.79 4.4 10.57-.19 2.34-1.69 4.35-2.45 6.54 6.73 1.9 11.73 6.91 16.34 11.89 4.13-5.52 10.01-9.29 16.08-12.37-2.53-4.6-2.07-10.47.77-14.82 5.8-8.7 19.12-7.23 24.09-16.89-7.55 4.43-16.05 6.74-24.66 8-3.81.32-6.28 3.43-8.63 6.08-.02 4.77 2.43 9.2 2.23 13.94-.96 2.99-4.58 3.1-7.16 2.47-.07-1.66-.13-3.33-.19-4.99l2.26.44c.1-.8.3-2.4.41-3.2-2.96.02-5.91.14-8.87.29-.49.69-1.47 2.08-1.96 2.77l3.22-.12c-.64 2.06-.99 5.06-3.72 5.28-3.26.89-4.47-3.07-4.01-5.59.5-4.49 2.32-9.67-.88-13.6-4.01-5.06-10.98-5.21-16.79-6.39-5.21-.84-9.77-3.62-14.25-6.24m24.02 7.14c1.62.6 3.22 1.22 4.84 1.83 8.11-5.2 18.84-4.42 26.94.4.48-1.33.97-2.65 1.46-3.98-9.8-6.97-24.32-6.48-33.24 1.75M8.12 17.21c1.05 4.08 2 8.53 5.1 11.63 2.78 2.95 6.84 4.01 10.67 4.77 3.91.77 7.52 2.46 11.13 4.06-1.25-2.5-2.31-5.3-4.62-7.05-4.43-3.48-10.27-4.18-14.98-7.15-2.78-1.64-4.99-4.05-7.3-6.26m75.17 7.88c-3.66 1.82-7.83 2.5-11.26 4.78-2.84 1.84-4.33 5.01-6.1 7.75 5.19-2.43 10.74-3.77 16.22-5.29 6.17-1.95 9.39-8.15 10.53-14.11-2.92 2.55-5.81 5.26-9.39 6.87m-68.81 6.36c1.28 3.45 2.98 7.21 6.72 8.57 4.22 1.62 9.16 3.45 13.59 1.79.55-2.25-2.55-3.39-4.04-4.57-5.32-2.21-11.05-3.29-16.27-5.79m55.97 5.84c-1.58 1.17-4.25 2.33-4.27 4.54 4.64 1.63 10.01-.09 14.39-2.1 3.33-1.36 4.7-4.83 5.92-7.93-5.22 2.25-10.85 3.24-16.04 5.49m-51.46 2.63c3.25 3.09 7.07 7.52 12.12 6.28 1-.48 3.63-.27 2.65-1.99-4.98-1.23-9.98-2.41-14.77-4.29m46.73 3.84c1.43.94 2.86 1.89 4.28 2.86 5.14.03 9.2-3.12 12.29-6.93-5.26 2.25-10.77 4.17-16.57 4.07m-43.52.59c.64 6.32 2.75 12.6 6.87 17.52 3.18 3.87 7.73 6.21 12.17 8.34.01-1.45.01-2.91.02-4.37-7.13-3.94-12.88-10.58-14.31-18.77-1.58-.9-3.16-1.81-4.75-2.72m51.76 2.41c-.96 8.51-7.19 15.33-14.59 19.11.27.99.82 2.98 1.1 3.97 4.53-2.33 9.12-5.04 12.06-9.34 3.3-4.46 4.72-9.91 6.2-15.17-1.19.36-3.58 1.07-4.77 1.43m-29.73 8.91c.51 3.35 2.41 6.98.65 10.27-2.62 5.31-8.25 7.94-13.23 10.59h8.93c3.07-3.1 5.17-6.97 7.29-10.68-1.03 6.26-4.89 11.64-8.96 16.35 2.53-1.09 5.57-1.71 7.29-4.07 2.1-2.92 2.92-6.63 2.75-10.19-.72-4.37-1.25-9.08-4.72-12.27m8.89 9.52c-.21.37-.62 1.12-.82 1.5.27 4.15-.06 8.85 2.76 12.27 1.94 2.34 5.23 2.43 7.95 3.14-4.79-4-7.49-9.7-9.47-15.48 2.29 3.53 4.75 6.96 7.72 9.95 2.92-.04 5.84-.05 8.76-.05-5.11-2.78-10.65-5.78-13.46-11.13-1.84-3.28-.14-7 .13-10.44-2.89 2.68-4.21 6.35-3.57 10.24m-2.33 4.07c-1.89 5.5-4.2 12.33.08 17.35 3.56-5.28 2.01-11.85-.08-17.35z"/><g fill="#f5f5f5"><path d="M8.65 14.76c4.48 2.62 9.04 5.4 14.25 6.24 5.81 1.18 12.78 1.33 16.79 6.39 3.2 3.93 1.38 9.11.88 13.6-.46 2.52.75 6.48 4.01 5.59 2.73-.22 3.08-3.22 3.72-5.28l-3.22.12c.49-.69 1.47-2.08 1.96-2.77 2.96-.15 5.91-.27 8.87-.29-.11.8-.31 2.4-.41 3.2l-2.26-.44c.06 1.66.12 3.33.19 4.99 2.58.63 6.2.52 7.16-2.47.2-4.74-2.25-9.17-2.23-13.94 2.35-2.65 4.82-5.76 8.63-6.08 8.61-1.26 17.11-3.57 24.66-8-4.97 9.66-18.29 8.19-24.09 16.89-2.84 4.35-3.3 10.22-.77 14.82-6.07 3.08-11.95 6.85-16.08 12.37-4.61-4.98-9.61-9.99-16.34-11.89.76-2.19 2.26-4.2 2.45-6.54-.47-3.78-1.21-8.08-4.4-10.57-5.67-4.71-13.63-5.09-19.32-9.76-2.07-1.57-3.15-4.02-4.45-6.18z"/><path d="M32.67 21.9c8.92-8.23 23.44-8.72 33.24-1.75-.49 1.33-.98 2.65-1.46 3.98-8.1-4.82-18.83-5.6-26.94-.4-1.62-.61-3.22-1.23-4.84-1.83zM8.12 17.21c2.31 2.21 4.52 4.62 7.3 6.26 4.71 2.97 10.55 3.67 14.98 7.15 2.31 1.75 3.37 4.55 4.62 7.05-3.61-1.6-7.22-3.29-11.13-4.06-3.83-.76-7.89-1.82-10.67-4.77-3.1-3.1-4.05-7.55-5.1-11.63zm75.17 7.88c3.58-1.61 6.47-4.32 9.39-6.87-1.14 5.96-4.36 12.16-10.53 14.11-5.48 1.52-11.03 2.86-16.22 5.29 1.77-2.74 3.26-5.91 6.1-7.75 3.43-2.28 7.6-2.96 11.26-4.78zm-68.81 6.36c5.22 2.5 10.95 3.58 16.27 5.79 1.49 1.18 4.59 2.32 4.04 4.57-4.43 1.66-9.37-.17-13.59-1.79-3.74-1.36-5.44-5.12-6.72-8.57zm55.97 5.84c5.19-2.25 10.82-3.24 16.04-5.49-1.22 3.1-2.59 6.57-5.92 7.93-4.38 2.01-9.75 3.73-14.39 2.1.02-2.21 2.69-3.37 4.27-4.54zm-51.46 2.63c4.79 1.88 9.79 3.06 14.77 4.29.98 1.72-1.65 1.51-2.65 1.99-5.05 1.24-8.87-3.19-12.12-6.28z"/><path d="M65.72 43.76c5.8.1 11.31-1.82 16.57-4.07-3.09 3.81-7.15 6.96-12.29 6.93-1.42-.97-2.85-1.92-4.28-2.86zm-43.52.59c1.59.91 3.17 1.82 4.75 2.72 1.43 8.19 7.18 14.83 14.31 18.77-.01 1.46-.01 2.92-.02 4.37-4.44-2.13-8.99-4.47-12.17-8.34-4.12-4.92-6.23-11.2-6.87-17.52zm51.76 2.41c1.19-.36 3.58-1.07 4.77-1.43-1.48 5.26-2.9 10.71-6.2 15.17-2.94 4.3-7.53 7.01-12.06 9.34-.28-.99-.83-2.98-1.1-3.97 7.4-3.78 13.63-10.6 14.59-19.11z"/><path d="M44.23 55.67c3.47 3.19 4 7.9 4.72 12.27.17 3.56-.65 7.27-2.75 10.19-1.72 2.36-4.76 2.98-7.29 4.07 4.07-4.71 7.93-10.09 8.96-16.35-2.12 3.71-4.22 7.58-7.29 10.68h-8.93c4.98-2.65 10.61-5.28 13.23-10.59 1.76-3.29-.14-6.92-.65-10.27zm8.89 9.52c-.64-3.89.68-7.56 3.57-10.24-.27 3.44-1.97 7.16-.13 10.44 2.81 5.35 8.35 8.35 13.46 11.13-2.92 0-5.84.01-8.76.05-2.97-2.99-5.43-6.42-7.72-9.95 1.98 5.78 4.68 11.48 9.47 15.48-2.72-.71-6.01-.8-7.95-3.14-2.82-3.42-2.49-8.12-2.76-12.27.2-.38.61-1.13.82-1.5zm-2.33 4.07c2.09 5.5 3.64 12.07.08 17.35-4.28-5.02-1.97-11.85-.08-17.35z"/></g></svg>