<svg width="100pt" height="100pt" viewBox="0 0 100 100" xmlns="http://www.w3.org/2000/svg"><path fill="#3c605e" d="M9.33 3.31C13.07.88 17.66.51 22 .5c18.67.11 37.33.11 56 0 4.1.02 8.41.33 12.02 2.47 4.82 2.68 7.92 7.52 9.98 12.5v70.05c-2.34 6.42-7.22 11.7-13.47 14.48H13.45C6.95 97.11 1.82 91.5 0 84.56V16.44c1.59-5.22 4.61-10.2 9.33-13.13m.73 26.87c-.77 5.24-.34 10.54-.39 15.82.24 8.26-.56 16.57.39 24.81 5.96.92 11.95-.22 17.93-.18 4.17-.15 8.38.36 12.51-.29 3.3-1.58 5.6-4.62 7.91-7.35-3.43-4.64-8.18-8.03-12.02-12.3 3.44-4.78 8.64-7.93 12.13-12.69-2.91-3.54-6.28-8.19-11.46-7.67-9 .25-18.02-1-27-.15M51.49 38c3.57 4.68 8.34 8.17 12.48 12.29-3.45 4.86-9.08 7.68-12.36 12.73 2.14 2.6 4.33 5.29 7.23 7.08 2.27.82 4.77.48 7.15.56 7.92-.2 15.84.08 23.76-.05.53-13.25.25-26.54.15-39.79-9.3-.6-18.63-.24-27.94-.35-4.82-.26-7.76 4.25-10.47 7.53M40.65 50.76c2.93 3.09 5.95 6.12 9.35 8.71 3.37-2.51 6.3-5.53 9.03-8.7-2.24-3.72-5.6-6.59-9.02-9.19-3.41 2.73-6.95 5.49-9.36 9.18z"/><g fill="#f5f5f5"><path d="M10.06 30.18c8.98-.85 18 .4 27 .15 5.18-.52 8.55 4.13 11.46 7.67-3.49 4.76-8.69 7.91-12.13 12.69 3.84 4.27 8.59 7.66 12.02 12.3-2.31 2.73-4.61 5.77-7.91 7.35-4.13.65-8.34.14-12.51.29-5.98-.04-11.97 1.1-17.93.18-.95-8.24-.15-16.55-.39-24.81.05-5.28-.38-10.58.39-15.82zM51.49 38c2.71-3.28 5.65-7.79 10.47-7.53 9.31.11 18.64-.25 27.94.35.1 13.25.38 26.54-.15 39.79-7.92.13-15.84-.15-23.76.05-2.38-.08-4.88.26-7.15-.56-2.9-1.79-5.09-4.48-7.23-7.08 3.28-5.05 8.91-7.87 12.36-12.73-4.14-4.12-8.91-7.61-12.48-12.29z"/><path d="M40.65 50.76c2.41-3.69 5.95-6.45 9.36-9.18 3.42 2.6 6.78 5.47 9.02 9.19-2.73 3.17-5.66 6.19-9.03 8.7-3.4-2.59-6.42-5.62-9.35-8.71z"/></g></svg>