<svg width="100pt" height="100pt" viewBox="0 0 100 100" xmlns="http://www.w3.org/2000/svg"><g fill="#5e5e5e"><path d="M0 17.47C1.43 8.38 9.52.37 19 .57 40 .6 61.01.52 82.02.61 90.58.9 97.28 7.84 100 15.54v69c-1.78 6.98-6.96 12.65-13.54 15.46H13.51C6.7 97.04 1.13 91.02 0 83.52V17.47m46.09-3.66c-1.43 1.29-1.22 3.37-1.52 5.09-3.27-.38-6.07-3.26-9.49-2.09-2.54 1.16-4.97 2.61-7.16 4.35l.04 1.59c5.06 3.91 11.24 5.75 17.37 7.21-.24 1.88-.3 3.8-.81 5.63-3.3 4-7.41 7.24-10.82 11.14-1.49 1.73-1.54 4.31-.98 6.42 3.47 4.59 8.21 7.99 12.12 12.15.8 2.06.35 4.32.02 6.42-4.51.59-8.87 2.1-12.86 4.28-1.68.94-3.67 1.83-4.26 3.85 2.21 1.27 4.31 2.73 6.61 3.85 3.5 2.44 7.07-1.45 10.73-1.65.15 1.61.24 3.22.3 4.83 3.09.66 6.27.53 9.4.16.1-1.71.22-3.41.35-5.11 2.98.71 5.7 2.47 8.74 2.78 2.85-1.71 6.87-2.65 8.52-5.65-4.48-4.47-11.06-6.21-17.17-7.33-.11-1.84-.39-3.71-.07-5.54 3.3-4.67 8.27-7.85 11.69-12.43 1.53-2.34 1.21-5.8-.89-7.69-3.43-3.57-7.01-7-10.57-10.45-.1-1.99-.05-3.99.16-5.97 6.1-1.27 12.99-2.7 17.21-7.67-2.38-2.51-5.53-4.24-8.82-5.25-2.98-.11-5.58 1.88-8.54 2.18-.13-1.68-.21-3.37-.28-5.05-2.99-.34-6.03-.5-9.02-.05M23.34 25.14c-3.41 3.56-6.02 7.86-7.82 12.45-1.84 5.59-3.68 11.46-2.56 17.4 1.39 4.98 2.78 10.03 5.55 14.45 1.62 2.6 3.14 6.22 6.44 6.86 2.4-1.74 5.19-3.12 7.17-5.36-.47-2.6-3.11-4.32-4.4-6.61-6.41-10.45-4.37-25.23 4.91-33.36-1.42-2.12-3.56-3.58-5.64-4.99-1.05-.53-2.55-2.25-3.65-.84m44.15 5.81c6.22 5.46 9.69 13.76 9.21 22.01-.78 5.71-3.06 11.39-7.28 15.44-1.03.8-1.29 2.05-1.41 3.27 2.56 1.4 4.72 3.41 7.23 4.89.27-.06.81-.18 1.09-.25 5.82-5.33 8.69-13.02 10.55-20.51 1.42-8.87-.75-18.32-6.17-25.53-1.53-1.83-2.59-4.42-4.78-5.46-3.31 1.14-6.42 3.26-8.44 6.14z"/><path d="M49.47 41.42c2.25-.9 3.56 1.88 5.05 3.05 1.73 2.25 4.94 3.67 5.72 6.43-3.28 3.41-6.64 6.83-10.25 9.87-2.51-1.73-4.15-4.43-6.67-6.16-1.33-1.06-3.2-2.29-2.92-4.25 2.87-3.12 5.96-6.06 9.07-8.94z"/></g><g fill="#f6f6f6"><path d="M46.09 13.81c2.99-.45 6.03-.29 9.02.05.07 1.68.15 3.37.28 5.05 2.96-.3 5.56-2.29 8.54-2.18 3.29 1.01 6.44 2.74 8.82 5.25-4.22 4.97-11.11 6.4-17.21 7.67a38.39 38.39 0 0 0-.16 5.97c3.56 3.45 7.14 6.88 10.57 10.45 2.1 1.89 2.42 5.35.89 7.69-3.42 4.58-8.39 7.76-11.69 12.43-.32 1.83-.04 3.7.07 5.54 6.11 1.12 12.69 2.86 17.17 7.33-1.65 3-5.67 3.94-8.52 5.65-3.04-.31-5.76-2.07-8.74-2.78-.13 1.7-.25 3.4-.35 5.11-3.13.37-6.31.5-9.4-.16a86.92 86.92 0 0 0-.3-4.83c-3.66.2-7.23 4.09-10.73 1.65-2.3-1.12-4.4-2.58-6.61-3.85.59-2.02 2.58-2.91 4.26-3.85 3.99-2.18 8.35-3.69 12.86-4.28.33-2.1.78-4.36-.02-6.42-3.91-4.16-8.65-7.56-12.12-12.15-.56-2.11-.51-4.69.98-6.42 3.41-3.9 7.52-7.14 10.82-11.14.51-1.83.57-3.75.81-5.63-6.13-1.46-12.31-3.3-17.37-7.21l-.04-1.59c2.19-1.74 4.62-3.19 7.16-4.35 3.42-1.17 6.22 1.71 9.49 2.09.3-1.72.09-3.8 1.52-5.09m3.38 27.61c-3.11 2.88-6.2 5.82-9.07 8.94-.28 1.96 1.59 3.19 2.92 4.25 2.52 1.73 4.16 4.43 6.67 6.16 3.61-3.04 6.97-6.46 10.25-9.87-.78-2.76-3.99-4.18-5.72-6.43-1.49-1.17-2.8-3.95-5.05-3.05z"/><path d="M23.34 25.14c1.1-1.41 2.6.31 3.65.84 2.08 1.41 4.22 2.87 5.64 4.99-9.28 8.13-11.32 22.91-4.91 33.36 1.29 2.29 3.93 4.01 4.4 6.61-1.98 2.24-4.77 3.62-7.17 5.36-3.3-.64-4.82-4.26-6.44-6.86-2.77-4.42-4.16-9.47-5.55-14.45-1.12-5.94.72-11.81 2.56-17.4 1.8-4.59 4.41-8.89 7.82-12.45zm44.15 5.81c2.02-2.88 5.13-5 8.44-6.14 2.19 1.04 3.25 3.63 4.78 5.46 5.42 7.21 7.59 16.66 6.17 25.53-1.86 7.49-4.73 15.18-10.55 20.51-.28.07-.82.19-1.09.25-2.51-1.48-4.67-3.49-7.23-4.89.12-1.22.38-2.47 1.41-3.27 4.22-4.05 6.5-9.73 7.28-15.44.48-8.25-2.99-16.55-9.21-22.01z"/></g></svg>