<svg width="100pt" height="100pt" viewBox="0 0 100 100" xmlns="http://www.w3.org/2000/svg"><g fill="#ff0013"><path d="M.87 17.02C2.07 9.56 7.98 3.17 15.24 1.21c3.18-.89 6.51-.72 9.77-.74C44.02.58 63.03.39 82.04.55c8.1.18 14.57 6.19 17.96 13.13v73.5c-2.42 5.77-7.05 10.29-12.74 12.82H14.57C6.67 97.18.53 89.59.55 81.03.43 63.02.56 45.01.49 26.99c.01-3.32-.15-6.67.38-9.97m27.94 5.77c-7.42 6.61-11.24 16.43-12.16 26.16-.83 10.96 4 21.98 12.16 29.25 12.99 13.05 35.58 13.93 49.86 2.49 2.11-1.93 4.98-3.67 5.68-6.61-3.51-3.78-7.71-6.87-11.38-10.51-2.97 2.87-5.99 5.92-9.97 7.34-8.62 3.53-19.39.61-24.91-6.93-2.87-4.35-5.09-9.51-4.52-14.84.77-6.33 3.84-12.59 9.08-16.39 4.97-3.4 11.29-3.88 17.12-3.21 5.31.98 9.27 4.93 13.25 8.27 3.69-3.3 7.58-6.42 10.8-10.19 1.19-1.19-.36-2.46-1.1-3.33-8.97-9.37-22.83-13.85-35.57-11.31-6.84 1.56-13.38 4.78-18.34 9.81m8.01 22.19c-4.51 11.33 5.94 24.95 17.95 24.43-.01-.76-.02-2.29-.03-3.06-3.99-.68-8.2-1.96-10.78-5.29-5.62-6.16-5.15-17.28 1.71-22.35 2.93-2.26 6.82-2.56 9.89-4.55.3-2.07-.55-2.94-2.55-2.63-7.48.55-14.09 6.3-16.19 13.45z"/><path d="M31.88 24.86c6.42-5.1 14.33-8.72 22.65-8.64-.05 3.03-.04 6.05-.06 9.08-7.56-.04-14.49 4.3-19.43 9.75-4.7 6.14-6.8 14.59-4.54 22.1 1.61 6.52 6.4 11.94 12.14 15.25 3.66 2.17 7.93 2.81 12.04 3.63.07 3.06.08 6.12.04 9.19-9.93.45-19.52-4.66-25.95-12-4.7-6.09-7.93-13.53-8.19-21.28-.19-10.07 3.97-20.17 11.3-27.08m5.89-1.16c-5.53 4.24-10.82 9.42-12.9 16.29-3.36 10.41-1.78 22.99 5.98 31.12 5.09 6.25 12.66 10.04 20.57 11.15.14-1.01.25-2.03.32-3.05-1.75-1.26-4.03-1.36-6-2.15-10.58-3.43-18.04-14.03-18.4-25.03-.5-8.58 3.36-17.23 9.71-22.93 4.47-4.12 10.98-4.25 15.81-7.7l-1.77-2.97c-4.55 1.45-9.33 2.51-13.32 5.27z"/></g><g fill="#f4f4f4"><path d="M28.81 22.79c4.96-5.03 11.5-8.25 18.34-9.81 12.74-2.54 26.6 1.94 35.57 11.31.74.87 2.29 2.14 1.1 3.33-3.22 3.77-7.11 6.89-10.8 10.19-3.98-3.34-7.94-7.29-13.25-8.27-5.83-.67-12.15-.19-17.12 3.21-5.24 3.8-8.31 10.06-9.08 16.39-.57 5.33 1.65 10.49 4.52 14.84 5.52 7.54 16.29 10.46 24.91 6.93 3.98-1.42 7-4.47 9.97-7.34 3.67 3.64 7.87 6.73 11.38 10.51-.7 2.94-3.57 4.68-5.68 6.61C64.39 92.13 41.8 91.25 28.81 78.2c-8.16-7.27-12.99-18.29-12.16-29.25.92-9.73 4.74-19.55 12.16-26.16m3.07 2.07c-7.33 6.91-11.49 17.01-11.3 27.08.26 7.75 3.49 15.19 8.19 21.28 6.43 7.34 16.02 12.45 25.95 12 .04-3.07.03-6.13-.04-9.19-4.11-.82-8.38-1.46-12.04-3.63-5.74-3.31-10.53-8.73-12.14-15.25-2.26-7.51-.16-15.96 4.54-22.1 4.94-5.45 11.87-9.79 19.43-9.75.02-3.03.01-6.05.06-9.08-8.32-.08-16.23 3.54-22.65 8.64z"/><path d="M37.77 23.7c3.99-2.76 8.77-3.82 13.32-5.27l1.77 2.97c-4.83 3.45-11.34 3.58-15.81 7.7-6.35 5.7-10.21 14.35-9.71 22.93.36 11 7.82 21.6 18.4 25.03 1.97.79 4.25.89 6 2.15a44.38 44.38 0 0 1-.32 3.05c-7.91-1.11-15.48-4.9-20.57-11.15-7.76-8.13-9.34-20.71-5.98-31.12 2.08-6.87 7.37-12.05 12.9-16.29z"/><path d="M36.82 44.98c2.1-7.15 8.71-12.9 16.19-13.45 2-.31 2.85.56 2.55 2.63-3.07 1.99-6.96 2.29-9.89 4.55-6.86 5.07-7.33 16.19-1.71 22.35 2.58 3.33 6.79 4.61 10.78 5.29.01.77.02 2.3.03 3.06-12.01.52-22.46-13.1-17.95-24.43z"/></g></svg>