<svg width="100pt" height="100pt" viewBox="0 0 100 100" xmlns="http://www.w3.org/2000/svg"><path fill="#e77b35" d="M7.09 5.12C10.66 2.08 15.34.49 20.01.61c20.66.1 41.33-.05 61.98.08C90.53 1 97.14 7.83 100 15.44v70.12c-1.41 2.96-2.67 6.09-4.92 8.54-2.35 2.57-5.45 4.26-8.47 5.9H13.38A23.825 23.825 0 0 1 0 84.57V16.43c1.6-4.17 3.5-8.47 7.09-11.31m72.1 16.1c-7.09 6.53-13.76 13.53-20.65 20.27-8.09.67-16.31-.41-24.37.5-4.81 4.63-9.54 9.37-14.18 14.18-.68 2.93-.38 6-.06 8.97l.9-.16c5.67-4.99 10.46-11.08 16.35-15.76 8.12-.35 16.29-.24 24.42-.72 5.9-6.38 12.43-12.18 18.25-18.62.35-2.98.23-5.98.09-8.96l-.75.3m0 14.83c-5.77 5.25-11.01 11.09-16.62 16.51-7.52.3-15.06-.07-22.58.12-1.78-.23-2.86 1.26-3.99 2.35-5.27 5.44-10.79 10.65-16.01 16.14-.67 2.9-.4 5.94-.06 8.87 1.35-.01 2.08-1.35 3.02-2.11 6.15-6.15 12.21-12.41 18.52-18.4 8.09-.68 16.3.38 24.37-.49 4.65-4.78 9.51-9.39 14.16-14.18.69-2.92.39-5.99.08-8.95l-.89.14z"/><g fill="#f2f2f2"><path d="m79.19 21.22.75-.3c.14 2.98.26 5.98-.09 8.96C74.03 36.32 67.5 42.12 61.6 48.5c-8.13.48-16.3.37-24.42.72-5.89 4.68-10.68 10.77-16.35 15.76l-.9.16c-.32-2.97-.62-6.04.06-8.97 4.64-4.81 9.37-9.55 14.18-14.18 8.06-.91 16.28.17 24.37-.5 6.89-6.74 13.56-13.74 20.65-20.27z"/><path d="m79.19 36.05.89-.14c.31 2.96.61 6.03-.08 8.95-4.65 4.79-9.51 9.4-14.16 14.18-8.07.87-16.28-.19-24.37.49-6.31 5.99-12.37 12.25-18.52 18.4-.94.76-1.67 2.1-3.02 2.11-.34-2.93-.61-5.97.06-8.87 5.22-5.49 10.74-10.7 16.01-16.14 1.13-1.09 2.21-2.58 3.99-2.35 7.52-.19 15.06.18 22.58-.12 5.61-5.42 10.85-11.26 16.62-16.51z"/></g></svg>