<svg width="100pt" height="100pt" viewBox="0 0 100 100" xmlns="http://www.w3.org/2000/svg"><path fill="#fd9907" d="M4.53 8.54C8.3 3.38 14.6.4 20.97.53 39.98.49 58.98.62 77.99.48c4.14 0 8.48.23 12.17 2.32 4.42 2.32 7.45 6.47 9.84 10.72v73.97c-2.59 5.48-7.04 9.89-12.5 12.51H14.43c-4.5-1.96-8.73-4.93-11.2-9.26C.9 86.94.51 82.36.49 78c.07-18.33.07-36.66 0-54.99-.06-5.06.78-10.41 4.04-14.47m34.64 13.42c-7.39 1.75-12.47 9.6-11.5 17.06.53 4.12 2.07 8.28 4.97 11.33 3.73 3.53 9.02 5.11 14.08 4.85.6-4.91.5-9.86.53-14.8 5.6 1.93 10.95 4.72 16.84 5.72 6.49.84 13.25-3.39 14.81-9.87-4.11-1.9-8.39-3.5-12.15-6.07-5.11-3.43-10.31-6.98-16.28-8.71-3.7-1.13-7.64-.43-11.3.49m15.57 24.71c-.33 4.72-.14 9.46-.21 14.18-6.83-1.89-13.19-6.21-20.57-5.39-5.36.05-10.1 4.25-11.35 9.37 4.12 2.06 8.48 3.67 12.32 6.25 5.61 3.64 11.33 7.75 18.12 8.74 5.84.55 12.5-.57 16.55-5.2 3.96-4.35 4.68-10.8 3.02-16.28-2.02-7.59-9.89-13.51-17.88-11.67z"/><g fill="#f7f7f7"><path d="M39.17 21.96c3.66-.92 7.6-1.62 11.3-.49 5.97 1.73 11.17 5.28 16.28 8.71 3.76 2.57 8.04 4.17 12.15 6.07-1.56 6.48-8.32 10.71-14.81 9.87-5.89-1-11.24-3.79-16.84-5.72-.03 4.94.07 9.89-.53 14.8-5.06.26-10.35-1.32-14.08-4.85-2.9-3.05-4.44-7.21-4.97-11.33-.97-7.46 4.11-15.31 11.5-17.06z"/><path d="M54.74 46.67c7.99-1.84 15.86 4.08 17.88 11.67 1.66 5.48.94 11.93-3.02 16.28-4.05 4.63-10.71 5.75-16.55 5.2-6.79-.99-12.51-5.1-18.12-8.74-3.84-2.58-8.2-4.19-12.32-6.25 1.25-5.12 5.99-9.32 11.35-9.37 7.38-.82 13.74 3.5 20.57 5.39.07-4.72-.12-9.46.21-14.18z"/></g></svg>