<svg width="100pt" height="100pt" viewBox="0 0 100 100" xmlns="http://www.w3.org/2000/svg"><path fill="#000712" d="M17.67 0h65.65c3.44 1.26 7.04 2.4 9.95 4.71 2.95 2.29 4.98 5.52 6.73 8.77V87.5c-2.67 5.72-7.41 10.4-13.43 12.5H15.4C9.46 98.21 4.27 93.8 2.02 87.96.34 83.85.74 79.33.7 74.99c.06-18 .03-36.01 0-54.02-.08-4.18.96-8.42 3.41-11.85C7.2 4.35 12.5 1.85 17.67 0m-6.12 25.93c-.49 9.01-.09 18.05-.23 27.07.14 4.94-.55 10.2 1.85 14.74 2.23 5.38 8.16 8.47 13.86 8.06 3.91.19 7.26-2.15 10.97-2.83 3.72.71 7.11 2.98 11.02 2.83 5.89.35 11.71-3.32 13.88-8.81 2.91-6.48 1.02-13.62 1.59-20.43-2.98-.46-5.99-.48-8.97-.07-.14 5.53-.05 11.08-.54 16.59-.5 4.69-7.03 5.63-10.28 3.25-3.05-2.52-1.76-6.89-2.04-10.32-.32-10.15.23-20.32-.33-30.47-2.87-.5-5.77-.22-8.62.23-.96 11.95.08 24-.57 35.97-.25 2.72-2.2 5.86-5.23 5.75-2.73.23-6.68-1.31-6.53-4.54-.17-11.63.19-23.28-.15-34.9-1.44-4.01-6.56-4.3-9.68-2.12m43.08 5.01c.2 4.87-.73 9.95 1.12 14.61 2.88-.04 5.76-.04 8.64-.05.54-3.77-1.46-8.61 1.4-11.64 3.91-.99 8.51-.85 12.02 1.41 2.95 1.58 1.73 5.55 1.63 8.26-2.9 3.83-8.32.84-12 3.29.02 2.05.14 4.1.54 6.11 3.9.61 9.12-.34 11.61 3.52 1.36 2.89 1.56 6.88-.77 9.34-3.48 2.68-8.46.45-12.09 2.9-2.25 1.21-3 3.81-3.69 6.08 7.05 1.26 15.01 1.5 21.3-2.41 7.06-5.16 7.46-16.53.96-22.35 1.76-2.24 3.39-4.69 4.02-7.5 1.51-6.01-1.76-12.94-7.58-15.27-7.24-3.04-15.22-1.56-22.82-1.59-2.76-.13-4.63 2.74-4.29 5.29z"/><g fill="#f7f7f7"><path d="M11.55 25.93c3.12-2.18 8.24-1.89 9.68 2.12.34 11.62-.02 23.27.15 34.9-.15 3.23 3.8 4.77 6.53 4.54 3.03.11 4.98-3.03 5.23-5.75.65-11.97-.39-24.02.57-35.97 2.85-.45 5.75-.73 8.62-.23.56 10.15.01 20.32.33 30.47.28 3.43-1.01 7.8 2.04 10.32 3.25 2.38 9.78 1.44 10.28-3.25.49-5.51.4-11.06.54-16.59 2.98-.41 5.99-.39 8.97.07-.57 6.81 1.32 13.95-1.59 20.43-2.17 5.49-7.99 9.16-13.88 8.81-3.91.15-7.3-2.12-11.02-2.83-3.71.68-7.06 3.02-10.97 2.83-5.7.41-11.63-2.68-13.86-8.06-2.4-4.54-1.71-9.8-1.85-14.74.14-9.02-.26-18.06.23-27.07z"/><path d="M54.63 30.94c-.34-2.55 1.53-5.42 4.29-5.29 7.6.03 15.58-1.45 22.82 1.59 5.82 2.33 9.09 9.26 7.58 15.27-.63 2.81-2.26 5.26-4.02 7.5 6.5 5.82 6.1 17.19-.96 22.35-6.29 3.91-14.25 3.67-21.3 2.41.69-2.27 1.44-4.87 3.69-6.08 3.63-2.45 8.61-.22 12.09-2.9 2.33-2.46 2.13-6.45.77-9.34-2.49-3.86-7.71-2.91-11.61-3.52-.4-2.01-.52-4.06-.54-6.11 3.68-2.45 9.1.54 12-3.29.1-2.71 1.32-6.68-1.63-8.26-3.51-2.26-8.11-2.4-12.02-1.41-2.86 3.03-.86 7.87-1.4 11.64-2.88.01-5.76.01-8.64.05-1.85-4.66-.92-9.74-1.12-14.61z"/></g></svg>