<svg width="100pt" height="100pt" viewBox="0 0 100 100" xmlns="http://www.w3.org/2000/svg"><g fill="#f2f2f2"><path d="M72.09 44.99c4.22-3.45 7.82-7.76 12.57-10.49-2.97 4.58-7.24 8.12-10.63 12.38 1.68 1.99 3.32 4.02 4.91 6.1-3.3.43-5.91-1.06-7.84-3.65-2.1 2.01-4.05 4.15-6.04 6.26-1.57-1.3-3.12-2.6-4.73-3.85-1.44 1.85-2.81 3.76-4.47 5.42-1.94.39-3.94.27-5.9.18-3.73-1.94-5.71-5.96-8.57-8.89-6.4 7.01-12.73 14.08-19.56 20.69-2.59 1-5.59.03-8.33.09 7.54-8.8 15.73-17.02 23.31-25.78 2.76.06 5.52-.05 8.28-.13 2.28 2.84 4.78 5.48 7.13 8.25 3.16-3.37 5.93-7.24 9.72-9.92 2.02-.11 4.04-.11 6.05.02 1.72.54 2.75 2.22 4.1 3.32m-10.15 4.99c.98.76 1.96 1.53 2.95 2.29 1.61-1.5 3.17-3.05 4.73-4.6-.87-.89-1.74-1.78-2.62-2.67-1.64 1.71-3.31 3.38-5.06 4.98z"/><path d="M38.54 57.39c2.25-1.41 4.36-3.08 6.83-4.11-1.44 3.28-4.44 5.42-6.68 8.12-1.95-1.01-3.77-2.3-4.83-4.28 1.55-.01 3.14.62 4.68.27z"/></g><path d="M1.39 17.01C2.52 7.34 12.43-.13 22 .5 42.01.59 62.02.43 82.02.58 90.33.66 96.45 7.35 100 14.22v72.9c-3.02 5.57-7.43 10.45-13.4 12.88H14.78c-6.53-2.9-12.89-8.44-13.4-16.01-.02-22.33-.04-44.66.01-66.98m70.7 27.98c-1.35-1.1-2.38-2.78-4.1-3.32-2.01-.13-4.03-.13-6.05-.02-3.79 2.68-6.56 6.55-9.72 9.92-2.35-2.77-4.85-5.41-7.13-8.25-2.76.08-5.52.19-8.28.13-7.58 8.76-15.77 16.98-23.31 25.78 2.74-.06 5.74.91 8.33-.09 6.83-6.61 13.16-13.68 19.56-20.69 2.86 2.93 4.84 6.95 8.57 8.89 1.96.09 3.96.21 5.9-.18 1.66-1.66 3.03-3.57 4.47-5.42 1.61 1.25 3.16 2.55 4.73 3.85 1.99-2.11 3.94-4.25 6.04-6.26 1.93 2.59 4.54 4.08 7.84 3.65-1.59-2.08-3.23-4.11-4.91-6.1 3.39-4.26 7.66-7.8 10.63-12.38-4.75 2.73-8.35 7.04-12.57 10.49m-33.55 12.4c-1.54.35-3.13-.28-4.68-.27 1.06 1.98 2.88 3.27 4.83 4.28 2.24-2.7 5.24-4.84 6.68-8.12-2.47 1.03-4.58 2.7-6.83 4.11z"/><path d="M61.94 49.98c1.75-1.6 3.42-3.27 5.06-4.98.88.89 1.75 1.78 2.62 2.67-1.56 1.55-3.12 3.1-4.73 4.6-.99-.76-1.97-1.53-2.95-2.29z"/></svg>