<svg width="100pt" height="100pt" viewBox="0 0 100 100" xmlns="http://www.w3.org/2000/svg"><g fill="#dc3634"><path d="M15.47 0h69.04C91.88 2.26 97.76 8.08 100 15.46v69.07c-2.24 7.38-8.1 13.22-15.47 15.47H15.47C8.1 97.76 2.25 91.91 0 84.54V15.47C2.24 8.09 8.11 2.25 15.47 0m16.16 20.55c-3.68 2.52-4.43 7.32-4.79 11.43-.54 9.23.22 18.5-.45 27.73-.5 6.5-1.78 12.9-2.34 19.39 1.87-.11 4.61.64 5.41-1.7 2.99-7.16 2.5-15.15 3.39-22.72 1.09-8.46.12-16.99.45-25.47.38-3.62 4.9-3.63 7.67-3.77 7.23.16 14.41-1.64 21.64-.87 2.47.18 4.98 1.94 4.9 4.64.34 7.25-.28 14.53.55 21.77.69 10.06-2.11 21.7 4.98 30.13 1.01-.4 2.02-.79 3.03-1.19-.33-6.25-2.04-12.3-2.59-18.52-1.21-10.71.68-21.52-.59-32.23-.5-3.4-1.51-7.69-5.28-8.77-7.29-2.43-15.08-1.54-22.63-1.75-4.46.09-9.33-.43-13.35 1.9m6.27 6.8c.82 1.93 1.51 4.75 4.16 4.65 5.52.31 11.16 1.89 16.64.85 3.08-.53 2.92-3.65 2.54-6.06-7.74 1.18-15.55 1.4-23.34.56m2.19 8.28c-.39.65-1.17 1.93-1.56 2.58 2.2 2.89 7.31 4.42 7.15 8.51-1.95 4.18-6.93 6.12-8.89 10.36-1.08 3.91 1.33 7.61 3.49 10.66 2.63 3.45 6.09 7.09 10.72 7.29 4.02.38 7.68-1.9 10.46-4.59 5.2-4.68 5.43-13.61.93-18.83-2.03-2.49-5.49-2.59-8.36-3.36 2.34-2.82 5.26-5.2 7.21-8.34.05-1.7-1.21-3.86-3.16-3.51-6.03.26-11.97-1.27-17.99-.77z"/><path d="M48.87 41.44c.95-.48 1.9-.95 2.86-1.41-.04 1.38-.1 2.77-.16 4.16-.94-.87-1.84-1.8-2.7-2.75zm3.67 12.18c2.3-.1 4.59-.13 6.89-.11.15 1.35.28 2.71.38 4.07-2.42.4-4.86.7-7.31.88.02-1.62.03-3.23.04-4.84zM41.88 55.5c1.93-1.3 4.22-1.24 6.43-.96.14 1.13.29 2.26.45 3.39-2.35-.66-4.65-1.45-6.88-2.43zm11.18 6.77c2.39.03 4.78.03 7.17.05-.3 1.46-.06 3.47-1.65 4.26-1.77.61-3.7.29-5.53.35-.01-1.55 0-3.1.01-4.66zm-11.39.57c2.3.16 5.92-1.28 7.08 1.52.59 1.64-.18 3.31-.5 4.92-2.57-1.72-5.36-3.45-6.58-6.44z"/></g><g fill="#f6f6f6"><path d="M31.63 20.55c4.02-2.33 8.89-1.81 13.35-1.9 7.55.21 15.34-.68 22.63 1.75 3.77 1.08 4.78 5.37 5.28 8.77 1.27 10.71-.62 21.52.59 32.23.55 6.22 2.26 12.27 2.59 18.52-1.01.4-2.02.79-3.03 1.19-7.09-8.43-4.29-20.07-4.98-30.13-.83-7.24-.21-14.52-.55-21.77.08-2.7-2.43-4.46-4.9-4.64-7.23-.77-14.41 1.03-21.64.87-2.77.14-7.29.15-7.67 3.77-.33 8.48.64 17.01-.45 25.47-.89 7.57-.4 15.56-3.39 22.72-.8 2.34-3.54 1.59-5.41 1.7.56-6.49 1.84-12.89 2.34-19.39.67-9.23-.09-18.5.45-27.73.36-4.11 1.11-8.91 4.79-11.43z"/><path d="M37.9 27.35c7.79.84 15.6.62 23.34-.56.38 2.41.54 5.53-2.54 6.06-5.48 1.04-11.12-.54-16.64-.85-2.65.1-3.34-2.72-4.16-4.65zm2.19 8.28c6.02-.5 11.96 1.03 17.99.77 1.95-.35 3.21 1.81 3.16 3.51-1.95 3.14-4.87 5.52-7.21 8.34 2.87.77 6.33.87 8.36 3.36 4.5 5.22 4.27 14.15-.93 18.83-2.78 2.69-6.44 4.97-10.46 4.59-4.63-.2-8.09-3.84-10.72-7.29-2.16-3.05-4.57-6.75-3.49-10.66 1.96-4.24 6.94-6.18 8.89-10.36.16-4.09-4.95-5.62-7.15-8.51.39-.65 1.17-1.93 1.56-2.58m8.78 5.81c.86.95 1.76 1.88 2.7 2.75.06-1.39.12-2.78.16-4.16-.96.46-1.91.93-2.86 1.41m3.67 12.18c-.01 1.61-.02 3.22-.04 4.84 2.45-.18 4.89-.48 7.31-.88-.1-1.36-.23-2.72-.38-4.07-2.3-.02-4.59.01-6.89.11M41.88 55.5c2.23.98 4.53 1.77 6.88 2.43-.16-1.13-.31-2.26-.45-3.39-2.21-.28-4.5-.34-6.43.96m11.18 6.77c-.01 1.56-.02 3.11-.01 4.66 1.83-.06 3.76.26 5.53-.35 1.59-.79 1.35-2.8 1.65-4.26-2.39-.02-4.78-.02-7.17-.05m-11.39.57c1.22 2.99 4.01 4.72 6.58 6.44.32-1.61 1.09-3.28.5-4.92-1.16-2.8-4.78-1.36-7.08-1.52z"/></g></svg>