<svg width="100pt" height="100pt" viewBox="0 0 100 100" xmlns="http://www.w3.org/2000/svg"><path fill="#f6f6f6" d="M45.01 16.92c2.2-1.02 4.56-3.68 7.12-2.21 4.17 2.21 8.31 4.51 12.11 7.3.38 16.32-.25 32.62-.23 48.92 2.96-1.59 5.88-3.25 8.64-5.17.21-8.64-.07-17.27-.17-25.91 3.08-2.09 6.22-4.15 9.77-5.38.12 5.5.26 11.01-.06 16.5-.82 6.85-.13 13.75-.53 20.62C72.77 76.73 63.95 82 55.01 87.07c.11-19.95-.46-39.87-.36-59.81-1.22-.64-2.41-1.33-3.68-1.85-1.71.1-3.14 1.24-4.69 1.88.56 19.92-.12 39.85-.11 59.77-3.09-1.55-6.11-3.25-8.96-5.21-.08-6.63.31-13.28-.46-19.88-.29-8.19.07-16.38-.16-24.57-2.29-1.2-4.93-1.45-7.26-.2-.05 8.27.14 16.54-.05 24.8-.67 4.9-.93 9.84-.68 14.77-3.36-1.81-6.91-3.3-9.97-5.62.12-13-.14-26 .14-38.99 8.85-4.9 17.58-10 26.24-15.24z"/><path fill="#0047bb" d="M12.36 2.44C15.9.48 20.06.46 24 .49 43.35.62 62.7.4 82.04.59 90.26.67 96.38 7.22 100 13.97v73.34c-2.93 5.39-7.31 9.82-12.74 12.69H14.65c-4.61-2.29-9.19-5.3-11.58-10.04-2.22-3.59-1.71-7.94-1.75-11.97.05-19.67.04-39.35 0-59.03C.96 11.78 6.18 5.49 12.36 2.44m32.65 14.48c-8.66 5.24-17.39 10.34-26.24 15.24-.28 12.99-.02 25.99-.14 38.99 3.06 2.32 6.61 3.81 9.97 5.62-.25-4.93.01-9.87.68-14.77.19-8.26 0-16.53.05-24.8 2.33-1.25 4.97-1 7.26.2.23 8.19-.13 16.38.16 24.57.77 6.6.38 13.25.46 19.88 2.85 1.96 5.87 3.66 8.96 5.21-.01-19.92.67-39.85.11-59.77 1.55-.64 2.98-1.78 4.69-1.88 1.27.52 2.46 1.21 3.68 1.85-.1 19.94.47 39.86.36 59.81C63.95 82 72.77 76.73 81.66 71.59c.4-6.87-.29-13.77.53-20.62.32-5.49.18-11 .06-16.5-3.55 1.23-6.69 3.29-9.77 5.38.1 8.64.38 17.27.17 25.91-2.76 1.92-5.68 3.58-8.64 5.17-.02-16.3.61-32.6.23-48.92-3.8-2.79-7.94-5.09-12.11-7.3-2.56-1.47-4.92 1.19-7.12 2.21m27.64 9.82a79.3 79.3 0 0 0 0 10.9c3.27-1.43 6.41-3.12 9.45-4.98-2.58-2.77-6.02-4.46-9.45-5.92z"/><path fill="#f1966b" d="M72.65 26.74c3.43 1.46 6.87 3.15 9.45 5.92-3.04 1.86-6.18 3.55-9.45 4.98a79.3 79.3 0 0 1 0-10.9z"/></svg>