<svg width="100pt" height="100pt" viewBox="0 0 100 100" xmlns="http://www.w3.org/2000/svg"><g fill="#f6f6f6"><path d="M0 0h15.57c-3.49 1.46-6.99 3.17-9.68 5.89C3.19 8.6 1.56 12.13 0 15.56V0zm84.5 0H100v15.67C97.49 8.4 91.93 2.34 84.5 0zM31.96 21.93c7.8-4.3 17.24-6.6 26.01-4.11 13.89 3.15 24.53 16.05 25.55 30.15.19 7.93-2 16.18-7.25 22.28-5.13 6.02-12.3 10.27-20.01 12.03-.17-7.53.12-15.06-.18-22.59-.71.06-2.13.17-2.84.23.04 7.56.11 15.12-.03 22.68-2.2.04-4.4.05-6.61.03-.26-7.63.07-15.27-.2-22.9l-2.12-.52c-.97 7.87-.25 15.8-.56 23.7-10.41-2.47-20.06-9.43-24.34-19.42-6.73-14.33-1.44-33.66 12.58-41.56m-2.28 10.7c-5.11 5.78-6.53 13.91-5.72 21.38.7 7.98 6.07 15.59 13.7 18.31.14-5.89-.15-11.78.09-17.67 3.02-.09 6.04-.17 9.06-.16l.3-4.21c-4.27.01-8.54.05-12.81 0 .05 3.34 0 6.68-.13 10.02-2.05-.13-4.09-.31-6.12-.49-.57-5.3-.4-10.64-.18-15.95 3.29-.1 6.58-.18 9.87-.24l-.2-2.02c-1.35-.48-2.7-.97-4.05-1.45.05-1.47.11-2.94.18-4.4 10.91-.07 21.83-.18 32.75-.1-.04 1.77-.07 3.54-.12 5.31-.76.15-2.3.46-3.06.61l-.08 2.36c2.98.3 5.98.41 8.97.42-.11 5.25-.4 10.5-.43 15.75-1.97.08-3.94.14-5.91.19.09-3.35.16-6.7.15-10.05-3.98.03-7.96.03-11.94.01-.07 1.33-.13 2.65-.17 3.97 3.03.12 6.07.19 9.1.18.74 5.92.13 11.88.53 17.82 1.96-.85 3.97-1.72 5.47-3.29 10.99-11.13 9.04-32.07-4.05-40.76-10.63-7.51-27.1-6.12-35.2 4.46m13.71 7.86c-.01 1.37-.02 2.74-.04 4.1 4.43-.04 8.87-.04 13.3 0-.02-1.37-.03-2.73-.04-4.09-4.41.1-8.81.1-13.22-.01z"/><path d="M43.6 27.8c4.29-.13 8.58-.28 12.88-.2.02 1.63.03 3.26.03 4.89-4.31.14-8.62.16-12.93-.06-.01-1.54-.01-3.08.02-4.63zM0 84.32c1.53 3.48 3.15 7.07 5.88 9.79 2.71 2.7 6.25 4.32 9.68 5.89H0V84.32zm93.61 10.29c2.96-2.78 4.72-6.53 6.39-10.17V100H84.43c3.28-1.36 6.57-2.92 9.18-5.39z"/></g><g fill="#b89e4c"><path d="M15.57 0H84.5c7.43 2.34 12.99 8.4 15.5 15.67v68.77c-1.67 3.64-3.43 7.39-6.39 10.17-2.61 2.47-5.9 4.03-9.18 5.39H15.56c-3.43-1.57-6.97-3.19-9.68-5.89C3.15 91.39 1.53 87.8 0 84.32V15.56c1.56-3.43 3.19-6.96 5.89-9.67C8.58 3.17 12.08 1.46 15.57 0m16.39 21.93c-14.02 7.9-19.31 27.23-12.58 41.56 4.28 9.99 13.93 16.95 24.34 19.42.31-7.9-.41-15.83.56-23.7l2.12.52c.27 7.63-.06 15.27.2 22.9 2.21.02 4.41.01 6.61-.03.14-7.56.07-15.12.03-22.68.71-.06 2.13-.17 2.84-.23.3 7.53.01 15.06.18 22.59 7.71-1.76 14.88-6.01 20.01-12.03 5.25-6.1 7.44-14.35 7.25-22.28-1.02-14.1-11.66-27-25.55-30.15-8.77-2.49-18.21-.19-26.01 4.11z"/><path d="M29.68 32.63c8.1-10.58 24.57-11.97 35.2-4.46 13.09 8.69 15.04 29.63 4.05 40.76-1.5 1.57-3.51 2.44-5.47 3.29-.4-5.94.21-11.9-.53-17.82-3.03.01-6.07-.06-9.1-.18.04-1.32.1-2.64.17-3.97 3.98.02 7.96.02 11.94-.01.01 3.35-.06 6.7-.15 10.05 1.97-.05 3.94-.11 5.91-.19.03-5.25.32-10.5.43-15.75-2.99-.01-5.99-.12-8.97-.42l.08-2.36c.76-.15 2.3-.46 3.06-.61.05-1.77.08-3.54.12-5.31-10.92-.08-21.84.03-32.75.1-.07 1.46-.13 2.93-.18 4.4 1.35.48 2.7.97 4.05 1.45l.2 2.02c-3.29.06-6.58.14-9.87.24-.22 5.31-.39 10.65.18 15.95 2.03.18 4.07.36 6.12.49.13-3.34.18-6.68.13-10.02 4.27.05 8.54.01 12.81 0l-.3 4.21c-3.02-.01-6.04.07-9.06.16-.24 5.89.05 11.78-.09 17.67-7.63-2.72-13-10.33-13.7-18.31-.81-7.47.61-15.6 5.72-21.38M43.6 27.8c-.03 1.55-.03 3.09-.02 4.63 4.31.22 8.62.2 12.93.06 0-1.63-.01-3.26-.03-4.89-4.3-.08-8.59.07-12.88.2z"/><path d="M43.39 40.49c4.41.11 8.81.11 13.22.01.01 1.36.02 2.72.04 4.09-4.43-.04-8.87-.04-13.3 0 .02-1.36.03-2.73.04-4.1z"/></g></svg>