<svg width="100pt" height="100pt" viewBox="0 0 100 100" xmlns="http://www.w3.org/2000/svg"><path fill="#2d4f99" d="M16.49 0h67c8.2 1.63 14.96 8.21 16.51 16.46v67.07c-1.55 8.24-8.29 14.86-16.49 16.47H16.47C8.27 98.43 1.57 91.74 0 83.53V16.46C1.56 8.22 8.3 1.61 16.49 0m14.16 21.61c-12.83 8.02-18.9 26.42-11.65 40 .43-3.39.25-6.81.58-10.2 1.27-9.72 6.64-18.52 13.7-25.15 5.97-5.2 13.68-7.26 21.02-9.67-8.15-.97-16.84.16-23.65 5.02m18.83 2.72c-6.54 4.45-12.63 10.28-15.44 17.84-2.09 5.32-2.97 11.12-2.38 16.82.69 5.54 4.56 10.9 10.19 12.14 10.74 2.43 21.94-1.4 30.64-7.71 6.03-4.35 11.98-10.92 11.25-18.89-.1-7.41-5.19-13.4-10.08-18.44-1.22 5.59-2.79 11.42-7.03 15.54-8.02 9-19.89 13.71-31.79 14.25 8.58-4.52 19.05-6.86 25.06-15.07 3.02-4.52 5.79-11.51 1.2-15.95-2.79-3.73-8.24-2.97-11.62-.53m12.87 52.04c-8.67 4-18.41 3.92-27.7 2.88 7.5 5.28 17.56 5.2 26.01 2.44 8.1-2.59 15.92-8.32 18.29-16.85-5.36 4.08-10.21 9.03-16.6 11.53z"/><g fill="#f6f6f6"><path d="M30.65 21.61c6.81-4.86 15.5-5.99 23.65-5.02-7.34 2.41-15.05 4.47-21.02 9.67-7.06 6.63-12.43 15.43-13.7 25.15-.33 3.39-.15 6.81-.58 10.2-7.25-13.58-1.18-31.98 11.65-40z"/><path d="M49.48 24.33c3.38-2.44 8.83-3.2 11.62.53 4.59 4.44 1.82 11.43-1.2 15.95-6.01 8.21-16.48 10.55-25.06 15.07 11.9-.54 23.77-5.25 31.79-14.25 4.24-4.12 5.81-9.95 7.03-15.54 4.89 5.04 9.98 11.03 10.08 18.44.73 7.97-5.22 14.54-11.25 18.89-8.7 6.31-19.9 10.14-30.64 7.71-5.63-1.24-9.5-6.6-10.19-12.14-.59-5.7.29-11.5 2.38-16.82 2.81-7.56 8.9-13.39 15.44-17.84z"/><path d="M62.35 76.37c6.39-2.5 11.24-7.45 16.6-11.53-2.37 8.53-10.19 14.26-18.29 16.85-8.45 2.76-18.51 2.84-26.01-2.44 9.29 1.04 19.03 1.12 27.7-2.88z"/></g></svg>