<svg width="100pt" height="100pt" viewBox="0 0 100 100" xmlns="http://www.w3.org/2000/svg"><path fill="#f6f6f6" d="M22.1 21.79c4.13 4.56 8.36 9.03 12.86 13.21 1.26 1.47 3.3 1.15 5.02 1.22 7.93-.19 15.87.34 23.81-.11.65 9.13-.34 18.38.55 27.45 4.35 4.99 9.68 9.08 13.66 14.4-18.64.04-37.28.12-55.92-.04-.15-18.7-.05-37.42.02-56.13m13.86 15.27c.11 8.91-.28 17.83.38 26.72 8.9.38 17.81-.15 26.71.09-1.07-1.85-2.58-3.36-4.25-4.67-3.33-2.67-5.78-6.22-9.01-8.99-4.84-4.15-8.92-9.08-13.83-13.15z"/><g fill="#007a53"><path d="M15.59 0h67.94c8 1.61 13.98 8.11 16.47 15.66v68.78c-2.57 7.51-8.54 13.94-16.51 15.56H15.55c-3.44-1.56-7.04-3.08-9.72-5.84-2.78-2.69-4.31-6.33-5.83-9.81V15.56c1.56-3.44 3.07-7.05 5.84-9.72C8.53 3.1 12.06 1.41 15.59 0m6.51 21.79c-.07 18.71-.17 37.43-.02 56.13 18.64.16 37.28.08 55.92.04-3.98-5.32-9.31-9.41-13.66-14.4-.89-9.07.1-18.32-.55-27.45-7.94.45-15.88-.08-23.81.11-1.72-.07-3.76.25-5.02-1.22-4.5-4.18-8.73-8.65-12.86-13.21z"/><path d="M35.96 37.06c4.91 4.07 8.99 9 13.83 13.15 3.23 2.77 5.68 6.32 9.01 8.99 1.67 1.31 3.18 2.82 4.25 4.67-8.9-.24-17.81.29-26.71-.09-.66-8.89-.27-17.81-.38-26.72z"/></g></svg>