<svg width="100pt" height="100pt" viewBox="0 0 100 100" xmlns="http://www.w3.org/2000/svg"><path fill="#f5b73d" d="M17.46 0h66.06C91.33 1.39 97.47 7.42 100 14.8v70.29c-2.49 7.42-8.62 13.52-16.47 14.91H17.44C8.2 98.85.65 90.76 0 81.49V18.5C.65 9.23 8.21 1.14 17.46 0m2.29 21.76c-.24 18.71-.26 37.43.01 56.14 8.43.15 16.87.24 25.3-.01 6.65-.05 12.87-5.08 13.94-11.7-3.6.76-7.23 1.98-10.94 1.44-8.35-1.02-15.7-9.05-14.85-17.63-.48-5.5 2.36-10.82 6.78-13.98 5.44-4.46 12.94-2.62 19.3-1.94-1.24-6.74-7.32-12.21-14.21-12.39-8.45-.09-16.89-.03-25.33.07m35.77.03c2.61 3.59 6.67 6.32 7.7 10.86 1.23 3.84-.25 8.6-3.89 10.54-4.14 1.12-8.76.35-12.64 2.39-4.17 2.86-1.72 10.5 3.34 10.55 4.03.38 8.78.92 11.12 4.73 2.03 4.93-1 11.14 2.46 15.61 4.63 2.79 10.42 1.22 15.54 1.4.21-5.6.44-11.24-.03-16.83-.47-3.95-4.35-5.84-7.31-7.8 2.85-1.84 6.33-3.47 7.66-6.82 2.69-6.71 1.02-15.49-5.21-19.68-5.49-3.57-12.2-5.41-18.74-4.95z"/><g fill="#f7f7f7"><path d="M19.75 21.76c8.44-.1 16.88-.16 25.33-.07 6.89.18 12.97 5.65 14.21 12.39-6.36-.68-13.86-2.52-19.3 1.94-4.42 3.16-7.26 8.48-6.78 13.98-.85 8.58 6.5 16.61 14.85 17.63 3.71.54 7.34-.68 10.94-1.44-1.07 6.62-7.29 11.65-13.94 11.7-8.43.25-16.87.16-25.3.01-.27-18.71-.25-37.43-.01-56.14z"/><path d="M55.52 21.79c6.54-.46 13.25 1.38 18.74 4.95 6.23 4.19 7.9 12.97 5.21 19.68-1.33 3.35-4.81 4.98-7.66 6.82 2.96 1.96 6.84 3.85 7.31 7.8.47 5.59.24 11.23.03 16.83-5.12-.18-10.91 1.39-15.54-1.4-3.46-4.47-.43-10.68-2.46-15.61-2.34-3.81-7.09-4.35-11.12-4.73-5.06-.05-7.51-7.69-3.34-10.55 3.88-2.04 8.5-1.27 12.64-2.39 3.64-1.94 5.12-6.7 3.89-10.54-1.03-4.54-5.09-7.27-7.7-10.86z"/></g></svg>