<svg width="100pt" height="100pt" viewBox="0 0 100 100" xmlns="http://www.w3.org/2000/svg"><path d="M50.95 16.69c4.22 5.5 7.08 11.86 10.72 17.73 1.3 2.35 2.97 4.63 3.38 7.35-3.88 3.77-8.62 6.49-13.15 9.4-1.95-11.38-1.09-23-.95-34.48zm-9.89 9.34c2.24-2.43 4.73-4.61 7.49-6.44-3.5 7.71-8.66 14.54-12.62 22.03-2.32-1.11-4.63-2.25-6.92-3.45 3.77-4.29 8.22-7.91 12.05-12.14zm-20.13 7.92c2.57 1.18 5.23 2.3 7.41 4.15-.17 3.41-1.25 6.68-2.08 9.97-1.51 5.48-2.39 11.17-4.89 16.33-1.21-10.09-.56-20.31-.44-30.45zm44.5 7.83c4.72-2.81 9.57-5.42 14.71-7.36.75 10.56-.74 21.1-.39 31.67-4.78-8.1-9.37-16.31-14.32-24.31zM21.85 66.41c4.21-8.5 9.28-16.55 13.96-24.8 5.16 3.23 10.47 6.27 15.08 10.28-3.58 2.21-7.29 4.21-11.09 6.01-5.98 2.84-11.71 6.23-17.95 8.51zm29.91-13.94c9.28 4.11 18.31 8.94 26.84 14.46-8.85 1.99-17.85 3.22-26.82 4.51-.01-6.33-.39-12.65-.02-18.97zM23.54 67.7c9.31.81 18.47 2.82 27.71 4.16-.28 4.15-.7 8.29-1.31 12.41-4.56-2.42-8.88-5.24-13.24-8-4.41-2.82-9.08-5.27-13.16-8.57z" fill="#f5f5f5"/><path fill="#007f39" d="M13.02 2.13C17.41.22 22.32.53 27 .51 45.34.73 63.7.37 82.04.64 90.17.65 96.02 7.1 100 13.47v74.18A38.023 38.023 0 0 1 87.66 100H14.58C7.84 96.9 1.26 91 1.3 83.01 1.13 63.01 1.39 43 1.2 23c.05-3.55-.12-7.27 1.31-10.61 2.01-4.6 5.96-8.23 10.51-10.26m37.93 14.56c-.14 11.48-1 23.1.95 34.48 4.53-2.91 9.27-5.63 13.15-9.4-.41-2.72-2.08-5-3.38-7.35-3.64-5.87-6.5-12.23-10.72-17.73m-9.89 9.34c-3.83 4.23-8.28 7.85-12.05 12.14 2.29 1.2 4.6 2.34 6.92 3.45 3.96-7.49 9.12-14.32 12.62-22.03-2.76 1.83-5.25 4.01-7.49 6.44m-20.13 7.92c-.12 10.14-.77 20.36.44 30.45 2.5-5.16 3.38-10.85 4.89-16.33.83-3.29 1.91-6.56 2.08-9.97-2.18-1.85-4.84-2.97-7.41-4.15m44.5 7.83c4.95 8 9.54 16.21 14.32 24.31-.35-10.57 1.14-21.11.39-31.67-5.14 1.94-9.99 4.55-14.71 7.36M21.85 66.41c6.24-2.28 11.97-5.67 17.95-8.51 3.8-1.8 7.51-3.8 11.09-6.01-4.61-4.01-9.92-7.05-15.08-10.28-4.68 8.25-9.75 16.3-13.96 24.8m29.91-13.94c-.37 6.32.01 12.64.02 18.97 8.97-1.29 17.97-2.52 26.82-4.51-8.53-5.52-17.56-10.35-26.84-14.46M23.54 67.7c4.08 3.3 8.75 5.75 13.16 8.57 4.36 2.76 8.68 5.58 13.24 8 .61-4.12 1.03-8.26 1.31-12.41-9.24-1.34-18.4-3.35-27.71-4.16z"/></svg>