<svg width="100pt" height="100pt" viewBox="0 0 100 100" xmlns="http://www.w3.org/2000/svg"><g fill="#07073a"><path d="M15.48 0H84.5c7.35 2.26 13.25 8.09 15.5 15.45v69.08C97.76 91.9 91.87 97.74 84.52 100H15.46C8.12 97.75 2.26 91.89 0 84.55V15.46C2.25 8.1 8.13 2.26 15.48 0m33.63 8.02C35.38 22.42 20.98 36.12 7 50.27c4.78 6.08 10.64 11.18 16.02 16.71 5.25 4.89 10.17 10.12 15.52 14.9.57-9.44-.37-19.01 1.65-28.32 1.13 9.14.68 18.36.8 27.54-.16 2.42 1.22 4.46 2.43 6.42 1.07-12.99-.62-26.25 1.88-39.08.97 12.5.59 25.07.69 37.6-.14 2.32 1.07 4.34 2.27 6.21 1.22-10.05 0-20.2.75-30.28.56-6.14-.46-12.41 1.18-18.44 1.52 16.16.08 32.47 1.24 48.65 1.13-1.87 2.46-3.79 2.36-6.08.19-8.04-.3-16.09.21-24.13.62-7.79-.54-15.73 1.19-23.42 1.05 8.44.33 16.96.76 25.43.3 7.75-.48 15.55.54 23.26.89-1.66 2.18-3.26 2.24-5.22.32-6.67-.24-13.37.25-20.04.65-9.47-.52-19.09 1.21-28.46 1.05 16.21.62 32.49.82 48.74 10.6-10.38 21.05-20.9 31.49-31.44-7.65-8.44-15.93-16.28-23.92-24.39-2.83-2.74-5.48-5.7-8.63-8.08-7.69 6.21-13.68 14.28-21.4 20.49 4.49-9.11 13.67-14.36 20.21-21.81-.49-.66-1.47-1.99-1.96-2.65-6.49 5.84-12.17 12.46-18.19 18.76.49-2.11 1.02-4.34 2.78-5.78 4.83-4.59 9.55-9.29 14.21-14.05-.69-.52-2.05-1.55-2.74-2.07-4.63 4.71-9.02 9.72-14.26 13.78 3.56-6.08 9.41-10.24 13.69-15.75-.8-.31-2.39-.94-3.18-1.25z"/><path d="M50.57 31.57c3.56-3.51 6.84-7.33 10.79-10.43-2.71 5.15-7.26 8.88-11.28 12.94-3.76 3.69-7.27 7.66-11.46 10.88 3.08-5.21 7.75-9.14 11.95-13.39zm-1.15 7.84c3.92-3.82 7.57-7.96 11.91-11.32-3.21 5.38-8.05 9.43-12.4 13.84-3.38 3.39-6.65 6.9-10.41 9.88 2.7-4.88 7.02-8.49 10.9-12.4z"/></g><path fill="#f5f5f5" d="M49.11 8.02c.79.31 2.38.94 3.18 1.25-4.28 5.51-10.13 9.67-13.69 15.75 5.24-4.06 9.63-9.07 14.26-13.78.69.52 2.05 1.55 2.74 2.07-4.66 4.76-9.38 9.46-14.21 14.05-1.76 1.44-2.29 3.67-2.78 5.78 6.02-6.3 11.7-12.92 18.19-18.76.49.66 1.47 1.99 1.96 2.65-6.54 7.45-15.72 12.7-20.21 21.81 7.72-6.21 13.71-14.28 21.4-20.49 3.15 2.38 5.8 5.34 8.63 8.08 7.99 8.11 16.27 15.95 23.92 24.39-10.44 10.54-20.89 21.06-31.49 31.44-.2-16.25.23-32.53-.82-48.74-1.73 9.37-.56 18.99-1.21 28.46-.49 6.67.07 13.37-.25 20.04-.06 1.96-1.35 3.56-2.24 5.22-1.02-7.71-.24-15.51-.54-23.26-.43-8.47.29-16.99-.76-25.43-1.73 7.69-.57 15.63-1.19 23.42-.51 8.04-.02 16.09-.21 24.13.1 2.29-1.23 4.21-2.36 6.08-1.16-16.18.28-32.49-1.24-48.65-1.64 6.03-.62 12.3-1.18 18.44-.75 10.08.47 20.23-.75 30.28-1.2-1.87-2.41-3.89-2.27-6.21-.1-12.53.28-25.1-.69-37.6-2.5 12.83-.81 26.09-1.88 39.08-1.21-1.96-2.59-4-2.43-6.42-.12-9.18.33-18.4-.8-27.54-2.02 9.31-1.08 18.88-1.65 28.32-5.35-4.78-10.27-10.01-15.52-14.9C17.64 61.45 11.78 56.35 7 50.27 20.98 36.12 35.38 22.42 49.11 8.02m1.46 23.55c-4.2 4.25-8.87 8.18-11.95 13.39 4.19-3.22 7.7-7.19 11.46-10.88 4.02-4.06 8.57-7.79 11.28-12.94-3.95 3.1-7.23 6.92-10.79 10.43m-1.15 7.84c-3.88 3.91-8.2 7.52-10.9 12.4 3.76-2.98 7.03-6.49 10.41-9.88 4.35-4.41 9.19-8.46 12.4-13.84-4.34 3.36-7.99 7.5-11.91 11.32z"/></svg>