<svg width="100pt" height="100pt" viewBox="0 0 100 100" xmlns="http://www.w3.org/2000/svg"><g fill="#b1202c"><path d="M7.96 4.93C11.82 1.64 17 .34 22 .48 42.01.58 62.02.4 82.03.56c8.06.19 14.7 6.05 17.97 13.09v73.72c-2.46 5.65-7.01 10.11-12.61 12.63H14.46c-3.65-1.55-7.18-3.66-9.61-6.86C2.3 89.99 1.19 86.03 0 82.23V18.01c1.77-4.8 3.74-9.87 7.96-13.08m34.33 16.22c-5.1 1.27-9.44 4.43-13.34 7.82-8.59 7.95-11.88 21.36-7.34 32.25 1.67 4.88 4.95 9.01 8.89 12.28 9.21 8 23.3 9.63 34.15 4.1 11-5.3 17.67-17.54 16.85-29.64-.7-10.18-7.15-19.79-16.32-24.3-6.93-3.83-15.29-4.11-22.89-2.51z"/><path d="M45.39 26.6c5.9-.84 12.2-.37 17.44 2.72 8.23 4.23 12.94 13.59 12.89 22.65-.41 7.04-4.17 13.78-9.7 18.11-7.43 5.86-18.27 6.83-26.68 2.56-8.27-4.08-13.99-13.35-13.05-22.65-.8-7.9 4.22-14.9 10.1-19.6 2.64-1.96 5.76-3.25 9-3.79m-8.2 7.76c-1.04 1.4-2.75 2.64-2.64 4.58-.15 5.68-.43 11.38-.05 17.05.84 1.63 2.65 2.56 4.46 2.36 6.08-.04 12.17.17 18.25-.2.05-1.33.08-2.66.07-3.99-5.88-.51-11.8 0-17.66-.78-.25-4.5-.81-9.17.19-13.6 8.87-1.29 18.03.35 26.96-.8-.04-1.55-.06-3.11-.04-4.67-9.78-1.73-19.71.04-29.54.05m6.49 9.33c-.01 1.61-.03 3.22-.03 4.82 5.92.1 11.84-.15 17.76.05 1.45 4.74.47 9.86-.32 14.65-8.86.09-17.73.1-26.57-.59.14 1.66.29 3.32.48 4.97 9.32-.12 18.64-.03 27.96-.03 3.43.41 4.07-4.01 4.26-6.53-.92-5.51-.63-11.09-.63-16.64-7.48-1.62-15.29-.37-22.91-.7z"/></g><g fill="#f6f6f6"><path d="M42.29 21.15c7.6-1.6 15.96-1.32 22.89 2.51 9.17 4.51 15.62 14.12 16.32 24.3.82 12.1-5.85 24.34-16.85 29.64-10.85 5.53-24.94 3.9-34.15-4.1-3.94-3.27-7.22-7.4-8.89-12.28-4.54-10.89-1.25-24.3 7.34-32.25 3.9-3.39 8.24-6.55 13.34-7.82m3.1 5.45c-3.24.54-6.36 1.83-9 3.79-5.88 4.7-10.9 11.7-10.1 19.6-.94 9.3 4.78 18.57 13.05 22.65 8.41 4.27 19.25 3.3 26.68-2.56 5.53-4.33 9.29-11.07 9.7-18.11.05-9.06-4.66-18.42-12.89-22.65-5.24-3.09-11.54-3.56-17.44-2.72z"/><path d="M37.19 34.36c9.83-.01 19.76-1.78 29.54-.05-.02 1.56 0 3.12.04 4.67-8.93 1.15-18.09-.49-26.96.8-1 4.43-.44 9.1-.19 13.6 5.86.78 11.78.27 17.66.78.01 1.33-.02 2.66-.07 3.99-6.08.37-12.17.16-18.25.2-1.81.2-3.62-.73-4.46-2.36-.38-5.67-.1-11.37.05-17.05-.11-1.94 1.6-3.18 2.64-4.58z"/><path d="M43.68 43.69c7.62.33 15.43-.92 22.91.7 0 5.55-.29 11.13.63 16.64-.19 2.52-.83 6.94-4.26 6.53-9.32 0-18.64-.09-27.96.03-.19-1.65-.34-3.31-.48-4.97 8.84.69 17.71.68 26.57.59.79-4.79 1.77-9.91.32-14.65-5.92-.2-11.84.05-17.76-.05 0-1.6.02-3.21.03-4.82z"/></g></svg>