<svg width="100pt" height="100pt" viewBox="0 0 100 100" xmlns="http://www.w3.org/2000/svg"><path fill="#004b9a" d="M16.49 0H83.5c7.98 1.56 14.27 7.84 16.5 15.56v67.97c-1.58 8.23-8.3 14.84-16.49 16.47H16.47C8.27 98.41 1.6 91.73 0 83.53V16.47C1.58 8.24 8.29 1.63 16.49 0m.25 30.84c-2.53 4.71-4.22 10.41-2.29 15.65 1.77 7.3 7.81 13.24 15.09 15.02 4.15 1.67 8.54.29 12.79-.05-2.45 5.87-6.45 11-8.34 17.11 1.33.23 2.67.41 4.01.54 3.15-4.97 5.26-10.56 8.8-15.27 2.46-3.24 7.31-3.49 10.44-1.08 3.96 2.85 8.41 6.42 13.65 5.24 3.74-.69 5.27-4.53 6.4-7.7-2.65 1.28-5.33 2.56-8.23 3.16-3.62.08-6.37-2.43-8.94-4.62-2.5-2.28-6-2.33-9.15-2.86 1.8-4.17 3.63-8.87 7.68-11.35 4.18-1.5 7.58 1.79 10.78 3.88 3.93 2.78 9.12 3.09 13.62 1.7 2.57-1.18 2.89-4.37 3.57-6.77-3.18.82-6.17 2.66-9.58 2.28-4.97.47-7.79-4.58-12.1-6.05-3.87-.79-7.82.36-11.7-.19-4.05-1.05-7.96-2.91-12.22-2.98-5.01-.07-10.25-.51-14.99 1.46l.84 1.11c3.55.85 7.27-.07 10.89.4 3.7.51 7.4 1.4 10.79 2.98 1.8.59 1.09 2.73 1 4.11-2.62 8.66-13.95 12.73-21.75 8.5-5.07-2.65-8.82-8.22-8.5-14.06-.24-6.15 3.87-11.8 9.26-14.44 4.23-2.45 9.45-1.65 13.8.04 3.28 1.23 5.46 4.21 8.63 5.65-.5-4.67-4.44-8.13-8.51-9.93-9.02-4.3-21.1-.36-25.74 8.52z"/><path fill="#f4f4f4" d="M16.74 30.84c4.64-8.88 16.72-12.82 25.74-8.52 4.07 1.8 8.01 5.26 8.51 9.93-3.17-1.44-5.35-4.42-8.63-5.65-4.35-1.69-9.57-2.49-13.8-.04-5.39 2.64-9.5 8.29-9.26 14.44-.32 5.84 3.43 11.41 8.5 14.06 7.8 4.23 19.13.16 21.75-8.5.09-1.38.8-3.52-1-4.11-3.39-1.58-7.09-2.47-10.79-2.98-3.62-.47-7.34.45-10.89-.4l-.84-1.11c4.74-1.97 9.98-1.53 14.99-1.46 4.26.07 8.17 1.93 12.22 2.98 3.88.55 7.83-.6 11.7.19 4.31 1.47 7.13 6.52 12.1 6.05 3.41.38 6.4-1.46 9.58-2.28-.68 2.4-1 5.59-3.57 6.77-4.5 1.39-9.69 1.08-13.62-1.7-3.2-2.09-6.6-5.38-10.78-3.88-4.05 2.48-5.88 7.18-7.68 11.35 3.15.53 6.65.58 9.15 2.86 2.57 2.19 5.32 4.7 8.94 4.62 2.9-.6 5.58-1.88 8.23-3.16-1.13 3.17-2.66 7.01-6.4 7.7-5.24 1.18-9.69-2.39-13.65-5.24-3.13-2.41-7.98-2.16-10.44 1.08-3.54 4.71-5.65 10.3-8.8 15.27-1.34-.13-2.68-.31-4.01-.54 1.89-6.11 5.89-11.24 8.34-17.11-4.25.34-8.64 1.72-12.79.05-7.28-1.78-13.32-7.72-15.09-15.02-1.93-5.24-.24-10.94 2.29-15.65z"/></svg>