<svg width="100pt" height="100pt" viewBox="0 0 100 100" xmlns="http://www.w3.org/2000/svg"><path fill="#edc612" d="M.54 19.98C.59 9.71 9.68.53 19.97.52 40.32.47 60.67.5 81.01.5 89.47.32 96.65 6.36 100 13.77v73.45c-2.43 5.75-7.04 10.26-12.72 12.78H14.54C6.27 97.09.12 88.91.49 80.02.52 60 .42 39.99.54 19.98m38.87 6.39c-5.53 3.39-11.57 5.86-16.93 9.53-.06 3.37-.39 6.75.06 10.1 1.44 1.54 3.42 2.38 5.24 3.38 6.57 3.32 12.88 7.12 19.42 10.49 2.73 1.52 6.58 1.25 8.29-1.64-7.74-4.16-15.52-8.26-23.18-12.56.04-2.11 0-4.23-.08-6.34 5-2.42 10.15-4.51 15.27-6.65 4.53-1.63 8.57 1.61 12.38 3.54 6.14 3.12 12.21 6.37 18.34 9.52 1.97-3.93 1.89-10.28-2.63-12.4-6.55-3.89-13.45-7.15-20.11-10.84-1.74-.78-3.47-2.02-5.45-1.94-3.84 1.33-7.12 3.81-10.62 5.81m6.45 17.32c7.07 3.79 14.46 6.98 21.32 11.17 1.42.96 3.29 2.22 2.68 4.22.22 4.72-5.35 5.46-8.61 7.09-4.37 1.31-8.87 5.42-13.55 2.97-8.49-3.96-16.25-9.46-25.09-12.66-.33 3.15-.32 6.32-.07 9.48 8.81 4.26 17.23 9.28 25.83 13.92 2.41 1.55 4.94-.32 7.1-1.4 6.59-3.81 13.37-7.26 19.97-11.05 4.27-2.33 4.62-8.88 1.35-12.19-2.09-1.68-4.55-2.79-6.88-4.08-5.93-3.07-11.45-6.89-17.49-9.73-2.36-1.44-5.33.02-6.56 2.26z"/><g fill="#f7f7f7"><path d="M39.41 26.37c3.5-2 6.78-4.48 10.62-5.81 1.98-.08 3.71 1.16 5.45 1.94 6.66 3.69 13.56 6.95 20.11 10.84 4.52 2.12 4.6 8.47 2.63 12.4-6.13-3.15-12.2-6.4-18.34-9.52-3.81-1.93-7.85-5.17-12.38-3.54-5.12 2.14-10.27 4.23-15.27 6.65.08 2.11.12 4.23.08 6.34 7.66 4.3 15.44 8.4 23.18 12.56-1.71 2.89-5.56 3.16-8.29 1.64-6.54-3.37-12.85-7.17-19.42-10.49-1.82-1-3.8-1.84-5.24-3.38-.45-3.35-.12-6.73-.06-10.1 5.36-3.67 11.4-6.14 16.93-9.53z"/><path d="M45.86 43.69c1.23-2.24 4.2-3.7 6.56-2.26 6.04 2.84 11.56 6.66 17.49 9.73 2.33 1.29 4.79 2.4 6.88 4.08 3.27 3.31 2.92 9.86-1.35 12.19-6.6 3.79-13.38 7.24-19.97 11.05-2.16 1.08-4.69 2.95-7.1 1.4-8.6-4.64-17.02-9.66-25.83-13.92-.25-3.16-.26-6.33.07-9.48 8.84 3.2 16.6 8.7 25.09 12.66 4.68 2.45 9.18-1.66 13.55-2.97 3.26-1.63 8.83-2.37 8.61-7.09.61-2-1.26-3.26-2.68-4.22-6.86-4.19-14.25-7.38-21.32-11.17z"/></g></svg>