<svg width="100pt" height="100pt" viewBox="0 0 100 100" xmlns="http://www.w3.org/2000/svg"><path fill="#a30405" d="M17.87 0h65.19C90.68 1.72 97.5 6.88 100 14.47v71.21c-1.87 6.99-7.68 12.54-14.66 14.32H15.37C7.06 97.65.3 89.88.45 81.04.52 60.35.42 39.65.5 18.96.62 9.3 8.89 1.91 17.87 0m55.01 23.13c-.57 10.2-1.58 20.8 1.33 30.75 1.24 4.74 5.98 7.03 10.33 8.16.18-1.89.26-3.78.38-5.67-1.9-.71-4.26-.99-5.41-2.88-2.92-4.05-1.95-9.31-2.01-13.97 2.49.03 4.99-.01 7.48-.13-.12-2.01-.17-4.03-.2-6.04-2.24-.36-4.49-.7-6.75-.93-.65-3-.84-6.08-.75-9.14-1.47-.05-2.93-.09-4.4-.15M37.41 37.56c-3.36 7.01-1.73 15.01-2.07 22.49-.31 2.49 2.9 1.55 4.37 1.84.59-6.84-.92-14.05 1.58-20.6 1.06-3.05 4.6-3.23 7.2-4.08-.05-1.98-.14-3.96-.2-5.94-4.04.92-9.12 2.01-10.88 6.29m11.02 8.41c-.15 10.37.01 20.74.12 31.11 1.38.55 2.9.49 4.35.69.06-9.6.43-19.21.27-28.8-.07-4.12.79-9.17 5.03-11.01 3.59-1.43 6.99 1.93 7.71 5.26 1.82 4.43-.93 10.44-5.95 10.93-3.06.48-1.07 4.32-1.32 6.34 2.73-.48 5.82-.83 7.77-3.03 4.24-4.62 5.14-11.5 3.75-17.43-1.39-4.05-4.78-7.84-9.17-8.51-7.63-.72-12.74 7.61-12.56 14.45M16.6 33.82c-.08 1.86-.2 3.73-.12 5.59 3.46.13 6.93.14 10.4.04-3.37 5.21-6.61 10.51-9.62 15.94-1.24 1.79-.92 3.99-.77 6.03 5.32.39 10.66.33 15.99.1.04-1.99.04-3.97-.01-5.96-3.16-.07-6.32-.09-9.49-.06 3.07-5.08 6.38-10.01 9.53-15.04 1.44-1.96.73-4.47.74-6.7-5.55-.19-11.1-.21-16.65.06z"/><path d="M72.88 23.13c1.47.06 2.93.1 4.4.15-.09 3.06.1 6.14.75 9.14 2.26.23 4.51.57 6.75.93.03 2.01.08 4.03.2 6.04-2.49.12-4.99.16-7.48.13.06 4.66-.91 9.92 2.01 13.97 1.15 1.89 3.51 2.17 5.41 2.88-.12 1.89-.2 3.78-.38 5.67-4.35-1.13-9.09-3.42-10.33-8.16-2.91-9.95-1.9-20.55-1.33-30.75zM37.41 37.56c1.76-4.28 6.84-5.37 10.88-6.29.06 1.98.15 3.96.2 5.94-2.6.85-6.14 1.03-7.2 4.08-2.5 6.55-.99 13.76-1.58 20.6-1.47-.29-4.68.65-4.37-1.84.34-7.48-1.29-15.48 2.07-22.49zm11.02 8.41c-.18-6.84 4.93-15.17 12.56-14.45 4.39.67 7.78 4.46 9.17 8.51 1.39 5.93.49 12.81-3.75 17.43-1.95 2.2-5.04 2.55-7.77 3.03.25-2.02-1.74-5.86 1.32-6.34 5.02-.49 7.77-6.5 5.95-10.93-.72-3.33-4.12-6.69-7.71-5.26-4.24 1.84-5.1 6.89-5.03 11.01.16 9.59-.21 19.2-.27 28.8-1.45-.2-2.97-.14-4.35-.69-.11-10.37-.27-20.74-.12-31.11zM16.6 33.82c5.55-.27 11.1-.25 16.65-.06-.01 2.23.7 4.74-.74 6.7-3.15 5.03-6.46 9.96-9.53 15.04 3.17-.03 6.33-.01 9.49.06.05 1.99.05 3.97.01 5.96-5.33.23-10.67.29-15.99-.1-.15-2.04-.47-4.24.77-6.03 3.01-5.43 6.25-10.73 9.62-15.94-3.47.1-6.94.09-10.4-.04-.08-1.86.04-3.73.12-5.59z" fill="#f4f3f3"/></svg>