<svg width="100pt" height="100pt" viewBox="0 0 100 100" xmlns="http://www.w3.org/2000/svg"><g fill="#f7f7f7"><path d="M48.17 29.19c7.2-6.46 15.05-12.1 22.61-18.11.01 2.53.01 5.06 0 7.59-11.87 10.21-24.33 19.7-36.35 29.73-1.31 1-2.67 1.91-4.02 2.85-.05-2.75-.05-5.49.02-8.24 5.94-4.57 11.81-9.23 17.74-13.82zm19.24-4.29c1.18-.71 2.35-1.43 3.52-2.15.66 9.04.58 18.15.04 27.2-.74 5.29.68 10.58-.08 15.86-4.25 3.15-8.35 6.48-12.61 9.61-3.02-1.87-6.06-3.74-9.08-5.62-.31-9.97-.47-19.93-.51-29.91 3.28-2.63 6.07-5.87 9.74-8.02.14 12.91-.15 25.82-.15 38.73 2.95-2.56 6.19-4.8 8.9-7.62.69-12.66-.13-25.39.23-38.08z"/><path d="M31.52 53.5c3.85-3.28 7.84-6.41 11.83-9.53-.02 13.5-.53 26.99-.31 40.5 3.21-3.19 8.25-5.13 9.4-9.89.86.52 1.73 1.05 2.6 1.58-.03 1.18-.06 2.36-.1 3.54-4.19 3.4-8.31 6.88-12.41 10.38-4.06-2.6-8.13-5.2-12.11-7.92.16-8.03-.05-16.06-.1-24.09.17-1.54-.38-3.58 1.2-4.57z"/></g><path fill="#c6a74d" d="M2.84 11.77C5.2 6.73 9.92 3.05 15.14 1.31 19.29.16 23.66.56 27.92.52c15.03.02 30.06.02 45.09 0 4.5.04 9.1-.36 13.5.81 6.41 2.01 11.24 7.49 13.49 13.7v72.34c-3.13 5.45-7.47 10.42-13.53 12.63h-71.8C6.9 96.91.74 89.59.72 80.97.49 63 .75 45.01.61 27.03.6 21.9.51 16.49 2.84 11.77m45.33 17.42c-5.93 4.59-11.8 9.25-17.74 13.82-.07 2.75-.07 5.49-.02 8.24 1.35-.94 2.71-1.85 4.02-2.85 12.02-10.03 24.48-19.52 36.35-29.73.01-2.53.01-5.06 0-7.59-7.56 6.01-15.41 11.65-22.61 18.11m19.24-4.29c-.36 12.69.46 25.42-.23 38.08-2.71 2.82-5.95 5.06-8.9 7.62 0-12.91.29-25.82.15-38.73-3.67 2.15-6.46 5.39-9.74 8.02.04 9.98.2 19.94.51 29.91 3.02 1.88 6.06 3.75 9.08 5.62 4.26-3.13 8.36-6.46 12.61-9.61.76-5.28-.66-10.57.08-15.86.54-9.05.62-18.16-.04-27.2-1.17.72-2.34 1.44-3.52 2.15M31.52 53.5c-1.58.99-1.03 3.03-1.2 4.57.05 8.03.26 16.06.1 24.09 3.98 2.72 8.05 5.32 12.11 7.92 4.1-3.5 8.22-6.98 12.41-10.38.04-1.18.07-2.36.1-3.54-.87-.53-1.74-1.06-2.6-1.58-1.15 4.76-6.19 6.7-9.4 9.89-.22-13.51.29-27 .31-40.5-3.99 3.12-7.98 6.25-11.83 9.53z"/></svg>