<svg width="100pt" height="100pt" viewBox="0 0 100 100" xmlns="http://www.w3.org/2000/svg"><path fill="#f48402" d="M9.12 4.1C13.36.86 18.87.38 24.01.53 43.34.7 62.69.45 82.02.63 90.05.71 96.54 6.64 100 13.48v74.05c-2.6 5.46-7.03 9.85-12.47 12.47H14.41c-3.58-1.64-7.1-3.73-9.54-6.89-2.42-3.15-3.7-6.96-4.87-10.7V17.65C2.01 12.58 4.4 7.22 9.12 4.1M13.51 49c-.59 7.75 2.06 16.31 8.75 20.79 8.38 5.48 19.27 4.78 28.45 1.91.48-4.29.43-8.61.35-12.92-3.46 1.71-6.87 4.46-10.97 3.95-4.36-.42-9.12-2.74-10.6-7.14-1.27-5.28-.1-12.28 5.51-14.54 5.09-1.89 10.67-.36 15.95-1.17.72-4.29.55-8.65.11-12.95-6.98-.34-13.97.38-20.95.49C20.32 29.25 13.2 39.2 13.51 49m42.38-22.08c-.4 4.3-.66 8.66.13 12.93 10.52.44 21.1.54 31.61-.12.21-4.14.21-8.28.05-12.42-10.6.15-21.19-1.21-31.79-.39M36.78 45.79c-.37 3.45-.37 6.92.01 10.37 4.75.39 9.52.39 14.28.04.21-3.47.26-6.95.05-10.42-4.77-.39-9.57-.38-14.34.01m19.06-.01c-.28 9.3-.46 18.65.17 27.94 4.55.09 9.1.1 13.65-.03.3-5.8-.04-11.61.49-17.4 5.7-.14 11.41.32 17.11-.2.38-3.43.37-6.88.01-10.32-10.47-.34-20.97-.36-31.43.01z"/><g fill="#f6f6f6"><path d="M13.51 49c-.31-9.8 6.81-19.75 16.6-21.58 6.98-.11 13.97-.83 20.95-.49.44 4.3.61 8.66-.11 12.95-5.28.81-10.86-.72-15.95 1.17-5.61 2.26-6.78 9.26-5.51 14.54 1.48 4.4 6.24 6.72 10.6 7.14 4.1.51 7.51-2.24 10.97-3.95.08 4.31.13 8.63-.35 12.92-9.18 2.87-20.07 3.57-28.45-1.91-6.69-4.48-9.34-13.04-8.75-20.79zm42.38-22.08c10.6-.82 21.19.54 31.79.39.16 4.14.16 8.28-.05 12.42-10.51.66-21.09.56-31.61.12-.79-4.27-.53-8.63-.13-12.93z"/><path d="M36.78 45.79c4.77-.39 9.57-.4 14.34-.01.21 3.47.16 6.95-.05 10.42-4.76.35-9.53.35-14.28-.04-.38-3.45-.38-6.92-.01-10.37zm19.06-.01c10.46-.37 20.96-.35 31.43-.01.36 3.44.37 6.89-.01 10.32-5.7.52-11.41.06-17.11.2-.53 5.79-.19 11.6-.49 17.4-4.55.13-9.1.12-13.65.03-.63-9.29-.45-18.64-.17-27.94z"/></g></svg>