<svg width="100pt" height="100pt" viewBox="0 0 100 100" xmlns="http://www.w3.org/2000/svg"><path fill="#1e3768" d="M9.1 4.05C12.78 1.28 17.5.54 22 .55c17.33.05 34.66.09 52 0 5.41.01 11.19-.43 16.12 2.22 4.47 2.24 7.54 6.4 9.88 10.69v74.1c-2.56 5.46-7 9.87-12.45 12.44H14.41c-3.38-1.52-6.71-3.43-9.13-6.31C2.55 90.48 1.17 86.41 0 82.42V17.64C1.91 12.51 4.43 7.23 9.1 4.05m46.04 20.2c-1.18 9.8-.02 19.76-.12 29.62a97.2 97.2 0 0 0-3.56 2.08c-.2-9.06.47-18.14-.24-27.18-.79.1-2.36.31-3.15.41-1.27 8.83.06 17.79-.55 26.66-.02 1.68-1.93 2.23-3 3.17-.31-7.73.44-15.47-.32-23.19-.84 0-2.53-.01-3.38-.02-.67 8.23.09 16.48-.33 24.71-1.09.43-2.18.85-3.27 1.29-.16-5.89.48-11.81-.15-17.68.06-2.3-2.47-2.62-4.22-2.37-.89 6.82.1 13.69-.54 20.53-3.14 1.24-6.51 1.75-9.85 1.18-.97-4.41 2.36-7.89 3.9-11.69-4.7 2.63-8.42 7-9.81 12.25 3.23 4.6 9.57 3.51 14.37 2.88 12.33-1.66 22.33-9.62 33.18-14.98-7.71 7.55-17.5 12.32-27.18 16.77 12.21-2.56 24.11-7.87 33.19-16.55 2.04-1.8 3.27-4.7 2.26-7.35-1.71-4.19-5.45-7.26-9.55-8.98-.43 4.87-.07 9.76-.34 14.64-1.05.53-2.1 1.06-3.15 1.6-.08-8.99.44-18.01-.09-26.99.14-2.3-3.64-3.52-4.1-.81m17.75 28.63c-11.31 8.47-24.11 15-37.82 18.56 6.65 6.59 17.45 8.81 25.95 4.63 5.81-2.92 10.88-8.15 12.3-14.65-3.68 1.76-6.42 4.92-10.02 6.79-5.09 2.69-10.69 4.5-16.46 4.77 4.92-2.48 10.22-4.19 14.9-7.15 7.49-4.26 13.59-10.48 19.11-17.01 1.43-1.71 2.41-3.73 3.28-5.76-4.14 2.81-7.28 6.79-11.24 9.82z"/><g fill="#f8f8f8"><path d="M55.14 24.25c.46-2.71 4.24-1.49 4.1.81.53 8.98.01 18 .09 26.99 1.05-.54 2.1-1.07 3.15-1.6.27-4.88-.09-9.77.34-14.64 4.1 1.72 7.84 4.79 9.55 8.98 1.01 2.65-.22 5.55-2.26 7.35-9.08 8.68-20.98 13.99-33.19 16.55 9.68-4.45 19.47-9.22 27.18-16.77-10.85 5.36-20.85 13.32-33.18 14.98-4.8.63-11.14 1.72-14.37-2.88 1.39-5.25 5.11-9.62 9.81-12.25-1.54 3.8-4.87 7.28-3.9 11.69 3.34.57 6.71.06 9.85-1.18.64-6.84-.35-13.71.54-20.53 1.75-.25 4.28.07 4.22 2.37.63 5.87-.01 11.79.15 17.68 1.09-.44 2.18-.86 3.27-1.29.42-8.23-.34-16.48.33-24.71.85.01 2.54.02 3.38.02.76 7.72.01 15.46.32 23.19 1.07-.94 2.98-1.49 3-3.17.61-8.87-.72-17.83.55-26.66.79-.1 2.36-.31 3.15-.41.71 9.04.04 18.12.24 27.18a97.2 97.2 0 0 1 3.56-2.08c.1-9.86-1.06-19.82.12-29.62z"/><path d="M72.89 52.88c3.96-3.03 7.1-7.01 11.24-9.82-.87 2.03-1.85 4.05-3.28 5.76-5.52 6.53-11.62 12.75-19.11 17.01-4.68 2.96-9.98 4.67-14.9 7.15 5.77-.27 11.37-2.08 16.46-4.77 3.6-1.87 6.34-5.03 10.02-6.79-1.42 6.5-6.49 11.73-12.3 14.65-8.5 4.18-19.3 1.96-25.95-4.63 13.71-3.56 26.51-10.09 37.82-18.56z"/></g></svg>