<svg width="100pt" height="100pt" viewBox="0 0 100 100" xmlns="http://www.w3.org/2000/svg"><path d="M23.54 43.35c2.84-10.88 12.78-19.03 23.73-20.75-.09 3.5-.08 6.99.06 10.48.23 3.73-2.07 6.89-3.4 10.2-6.78.43-13.6.26-20.39.07zm31.14-20.41c10.88 1.22 20.53 9.71 22.94 20.42-6.25.27-12.5.13-18.74.11-1.63-2.7-3.47-5.37-4.23-8.47-.38-4.01-.17-8.05.03-12.06zM22.69 48.72c6.1-.09 12.2-.17 18.29.06-2.37 7.4-6.29 14.17-9.48 21.23-6.59-4.69-9.21-13.51-8.81-21.29zm25.43 1.42c.89-2.2 4.74-2.13 5.73-.05 4.28 7.74 7.33 16.07 11.27 23.98-8.25 5.3-19.31 5.34-27.9.78 3.64-8.24 6.87-16.65 10.9-24.71zm13.72-.94c5.52.23 11-.53 16.52-.56.41 7.84-2.34 15.98-8.13 21.39-2.87-6.9-6.45-13.57-8.39-20.83z" fill="#f6f6f6"/><path fill="#0154a4" d="M12.36 2.45C15.9.48 20.06.46 24 .49c19.34.14 38.69-.08 58.03.1 8.19.07 14.3 6.58 17.97 13.27v73.52c-2.94 5.33-7.3 9.73-12.67 12.62H14.61c-4.58-2.32-9.17-5.3-11.55-10.04-2.21-3.59-1.72-7.94-1.76-11.97.05-19.67.04-39.34 0-59.02C.93 11.78 6.17 5.48 12.36 2.45m11.18 40.9c6.79.19 13.61.36 20.39-.07 1.33-3.31 3.63-6.47 3.4-10.2-.14-3.49-.15-6.98-.06-10.48-10.95 1.72-20.89 9.87-23.73 20.75m31.14-20.41c-.2 4.01-.41 8.05-.03 12.06.76 3.1 2.6 5.77 4.23 8.47 6.24.02 12.49.16 18.74-.11-2.41-10.71-12.06-19.2-22.94-20.42M22.69 48.72c-.4 7.78 2.22 16.6 8.81 21.29 3.19-7.06 7.11-13.83 9.48-21.23-6.09-.23-12.19-.15-18.29-.06m25.43 1.42c-4.03 8.06-7.26 16.47-10.9 24.71 8.59 4.56 19.65 4.52 27.9-.78-3.94-7.91-6.99-16.24-11.27-23.98-.99-2.08-4.84-2.15-5.73.05m13.72-.94c1.94 7.26 5.52 13.93 8.39 20.83 5.79-5.41 8.54-13.55 8.13-21.39-5.52.03-11 .79-16.52.56z"/></svg>