<svg width="100pt" height="100pt" viewBox="0 0 100 100" xmlns="http://www.w3.org/2000/svg"><g fill="#231815"><path d="M15.53 0h68.92C92.1 2.3 98.49 8.46 100 16.46v67.07C98.49 91.52 92.13 97.7 84.48 100H16.47C8.27 98.4 1.61 91.73 0 83.54V16.47C1.51 8.47 7.88 2.3 15.53 0m30.01 60.37c2.8 6.2 7.92 11.52 14.52 13.56C64.22 75.42 68.68 74.95 73 75c4.91-.08 9.84.24 14.74-.26.75-16.35-.32-32.73.08-49.09-8.92-.22-17.85-1.3-26.77-.87-14.13 4.49-21.16 22.27-15.51 35.59M11.63 25.64c.02 16.57.02 33.15 0 49.73 14.58-.41 29.16-.35 43.75-.44-.18-.39-.55-1.17-.73-1.56-3.57-2.78-7.25-5.53-9.77-9.37-7.21-.01-14.41-.67-21.62-.26.12-2.49.12-4.99 0-7.48 6.17.19 12.34.07 18.5.08-.55-4.21-.5-8.46-.04-12.67-6.16 0-12.31-.12-18.46.07.12-2.49.12-4.99 0-7.48 7.21.17 14.42.12 21.63.03 2.36-4.43 6.82-6.92 10.11-10.5-7.67-.37-15.35-.08-23.02.2-6.77-.51-13.56-.31-20.35-.35z"/><path d="M59.9 39.9c4.27-3.88 10.41-2.29 15.63-2.44-.24 8.72 1.5 17.43.31 26.13-4.92-.26-10.37 1.22-14.79-1.65-7.08-4.88-7.84-16.5-1.15-22.04z"/></g><g fill="#f6f6f6"><path d="M45.54 60.37c-5.65-13.32 1.38-31.1 15.51-35.59 8.92-.43 17.85.65 26.77.87-.4 16.36.67 32.74-.08 49.09-4.9.5-9.83.18-14.74.26-4.32-.05-8.78.42-12.94-1.07-6.6-2.04-11.72-7.36-14.52-13.56M59.9 39.9c-6.69 5.54-5.93 17.16 1.15 22.04 4.42 2.87 9.87 1.39 14.79 1.65 1.19-8.7-.55-17.41-.31-26.13-5.22.15-11.36-1.44-15.63 2.44z"/><path d="M11.63 25.64c6.79.04 13.58-.16 20.35.35 7.67-.28 15.35-.57 23.02-.2-3.29 3.58-7.75 6.07-10.11 10.5-7.21.09-14.42.14-21.63-.03.12 2.49.12 4.99 0 7.48 6.15-.19 12.3-.07 18.46-.07-.46 4.21-.51 8.46.04 12.67-6.16-.01-12.33.11-18.5-.08.12 2.49.12 4.99 0 7.48 7.21-.41 14.41.25 21.62.26 2.52 3.84 6.2 6.59 9.77 9.37.18.39.55 1.17.73 1.56-14.59.09-29.17.03-43.75.44.02-16.58.02-33.16 0-49.73z"/></g></svg>