<svg width="100pt" height="100pt" viewBox="0 0 100 100" xmlns="http://www.w3.org/2000/svg"><path fill="#ef464b" d="M2.01 12.92C4.91 5.74 12.24.55 20.04.52 40.36.48 60.68.51 81 .5c8.54-.09 16.36 5.96 19 13.99v72.19c-2.13 6.31-7.27 11.53-13.74 13.32H14.78C6.3 97.37.12 88.94.47 80.02.46 62.37.49 44.72.46 27.06c.02-4.73-.37-9.68 1.55-14.14M19.59 42.6c.15 5.3.14 10.6.01 15.9 1.69 0 3.37.01 5.06.02-.04-1.73-.07-3.46-.12-5.18l5.28-.12c-.1 1.75-.17 3.51-.27 5.27 1.7 0 3.39.01 5.09.03-.03-5.29-.02-10.59-.01-15.88-1.68 0-3.37-.01-5.05-.03.07 2 .12 4.01.18 6.02-1.73-.05-3.47-.08-5.21-.11.05-1.96.09-3.92.13-5.88-1.7 0-3.39-.01-5.09-.04m21.16 8.07c-1.69 2.53-3.54 4.98-4.76 7.79 1.75.02 3.5.03 5.26.04 1.55-2.6 3.11-5.21 4.52-7.9-.11-.43-.35-1.3-.46-1.73a48.925 48.925 0 0 1-4.06-6.23c-1.74.01-3.48.01-5.22.02 1.19 2.89 3.1 5.37 4.72 8.01m3.14-8.07c1.54 1.12 2.14 5.07 4.5 4.06 1.34-.92 1.77-2.61 2.47-3.98-2.32-.01-4.65-.02-6.97-.08m5.66 6.21c.43 2.03.47 4.19 1.36 6.09 1.08 1.38 2.5 2.43 3.84 3.54 1.84-.01 3.68 0 5.52.05 1.7-1.08 3.31-2.35 4.19-4.21-1.15-.66-2.3-1.31-3.44-1.96-1.39 1.36-3.74 2.8-5.44 1.07-2.38-1.58-1.26-4.71.77-6.02.88.05 1.76.11 2.64.17 1.53 2.48 4.19.2 6.02-.49-1.43-1.65-3.02-3.14-4.81-4.38-1.51.01-3.01-.02-4.51-.07-2.83 1.15-4.93 3.43-6.14 6.21m15.94-6.25c.4 5.34 1.08 10.65.73 16.02 1.51-.12 3.02-.24 4.53-.37v-8.2c1.04 1.64 2.07 3.28 3.12 4.91.97-1.51 1.94-3.02 2.9-4.54-.01 2.62-.02 5.24-.02 7.87 1.58 0 3.15 0 4.73.01.02-5.22.18-10.43.17-15.65-1.65.02-3.29.04-4.93.04-.79 1.42-1.59 2.84-2.38 4.26-.37-.14-1.1-.41-1.46-.55-.57-1.22-1.19-2.42-1.51-3.73-1.96.01-3.92 0-5.88-.07z"/><path d="M19.59 42.6c1.7.03 3.39.04 5.09.04-.04 1.96-.08 3.92-.13 5.88 1.74.03 3.48.06 5.21.11-.06-2.01-.11-4.02-.18-6.02 1.68.02 3.37.03 5.05.03-.01 5.29-.02 10.59.01 15.88-1.7-.02-3.39-.03-5.09-.03.1-1.76.17-3.52.27-5.27l-5.28.12c.05 1.72.08 3.45.12 5.18-1.69-.01-3.37-.02-5.06-.02.13-5.3.14-10.6-.01-15.9zm21.16 8.07c-1.62-2.64-3.53-5.12-4.72-8.01 1.74-.01 3.48-.01 5.22-.02 1.19 2.18 2.55 4.25 4.06 6.23.11.43.35 1.3.46 1.73-1.41 2.69-2.97 5.3-4.52 7.9-1.76-.01-3.51-.02-5.26-.04 1.22-2.81 3.07-5.26 4.76-7.79zm3.14-8.07c2.32.06 4.65.07 6.97.08-.7 1.37-1.13 3.06-2.47 3.98-2.36 1.01-2.96-2.94-4.5-4.06zm5.66 6.21c1.21-2.78 3.31-5.06 6.14-6.21 1.5.05 3 .08 4.51.07 1.79 1.24 3.38 2.73 4.81 4.38-1.83.69-4.49 2.97-6.02.49-.88-.06-1.76-.12-2.64-.17-2.03 1.31-3.15 4.44-.77 6.02 1.7 1.73 4.05.29 5.44-1.07 1.14.65 2.29 1.3 3.44 1.96-.88 1.86-2.49 3.13-4.19 4.21-1.84-.05-3.68-.06-5.52-.05-1.34-1.11-2.76-2.16-3.84-3.54-.89-1.9-.93-4.06-1.36-6.09zm15.94-6.25c1.96.07 3.92.08 5.88.07.32 1.31.94 2.51 1.51 3.73.36.14 1.09.41 1.46.55.79-1.42 1.59-2.84 2.38-4.26 1.64 0 3.28-.02 4.93-.04.01 5.22-.15 10.43-.17 15.65-1.58-.01-3.15-.01-4.73-.01 0-2.63.01-5.25.02-7.87-.96 1.52-1.93 3.03-2.9 4.54-1.05-1.63-2.08-3.27-3.12-4.91v8.2c-1.51.13-3.02.25-4.53.37.35-5.37-.33-10.68-.73-16.02z" fill="#fff"/></svg>