<svg width="100pt" height="100pt" viewBox="0 0 100 100" xmlns="http://www.w3.org/2000/svg"><path fill="#22b897" d="M17.56 0h66.28l-.83.01C91.65 1.35 98.93 8.5 100 17.24v65.54c-1.11 8.87-8.66 16.29-17.56 17.22H17.02C8.34 98.75 1.05 91.44 0 82.71V17.19C1.14 8.33 8.67.93 17.56 0m26.43 16.64c3.5 6.7 7.46 13.16 11.43 19.6C59.53 30.1 62.9 23.5 66.5 17.05c-7.49-.59-15.01-.32-22.51-.41M31.72 34.78c-.76 1.3-2.07 2.91-1.12 4.46 8.25 14.07 17.36 27.61 25.71 41.62 4.59-6.3 8.75-12.92 13.63-19-1.23-3.73-4.09-6.58-5.83-10.05-6.51-12.2-14.6-23.47-21.09-35.67-3.52 6.35-7.03 12.75-11.3 18.64M32.93 81c7.45 0 14.89.01 22.34 0-3.73-6.37-7.12-12.97-11.32-19.03-3.61 6.38-7.37 12.67-11.02 19.03z"/><path d="M43.99 16.64c7.5.09 15.02-.18 22.51.41-3.6 6.45-6.97 13.05-11.08 19.19-3.97-6.44-7.93-12.9-11.43-19.6zM31.72 34.78c4.27-5.89 7.78-12.29 11.3-18.64 6.49 12.2 14.58 23.47 21.09 35.67 1.74 3.47 4.6 6.32 5.83 10.05-4.88 6.08-9.04 12.7-13.63 19-8.35-14.01-17.46-27.55-25.71-41.62-.95-1.55.36-3.16 1.12-4.46zM32.93 81c3.65-6.36 7.41-12.65 11.02-19.03 4.2 6.06 7.59 12.66 11.32 19.03-7.45.01-14.89 0-22.34 0z" fill="#f7f7f7"/></svg>