<svg width="100pt" height="100pt" viewBox="0 0 100 100" xmlns="http://www.w3.org/2000/svg"><g fill="#19274f"><path d="M15.41 0h69.17c3.44 1.5 7.13 2.83 9.72 5.7 2.87 2.59 4.27 6.23 5.7 9.72v69.16c-1.49 3.72-3.09 7.56-6.21 10.22-2.52 2.6-5.98 3.78-9.21 5.2H15.42c-3.48-1.44-7.12-2.84-9.72-5.7-2.87-2.59-4.26-6.24-5.7-9.72V15.42C1.43 11.94 2.84 8.3 5.7 5.7c2.58-2.88 6.26-4.21 9.71-5.7M43.3 18.19C30.12 20.37 18.56 31.2 16.39 44.53c-1.76 5.77-.4 11.9 1.51 17.46 2.8 8.09 9.46 14.43 17.09 18.04 7.09 3.67 15.37 3.46 22.97 1.73 5.11 2.12 10.74.99 16.11 1.22 3.7.25 7.16-3.22 6.92-6.91.11-7.71-.12-15.42.09-23.12.98-7.01-1.54-14-4.92-20.06-7.07-10.39-20.28-17.2-32.86-14.7z"/><path d="M22.31 51.01C21.22 38.4 31.59 26 44.04 24.34c3.26-.04 6.53-.13 9.78.07 10.82 2.4 20.2 12 20.91 23.25-4.44-.11-8.88-.05-13.32-.04-.61-4.78-4.63-8.72-9.19-9.96-5.69-2.14-12.42 1.08-15.39 6.18-1.94 3-1.23 6.77-1.2 10.14 1.21 6.33 8.13 10.45 14.32 9.7 2.16.13 3.86-1.51 5.96-1.69.02 4.89.22 9.79-.15 14.67-9.02 1.7-18.95-.23-25.65-6.8-4.59-5.11-8.48-11.73-7.8-18.85z"/><path d="M46.4 43.5c5.29-1.65 10.83 3.87 9.19 9.16-1.18 2.91-4.23 5.44-7.53 5.03-2.77.09-5.03-2.1-6.32-4.35-1.63-3.91.75-8.48 4.66-9.84zm15.83 9.8c4.17.07 8.33.09 12.5-.01.94 2.8.4 5.82.53 8.71-.15 5 .32 10.04-.26 15.02-4.3.46-8.73.49-13.02-.02-.8-7.85-.13-15.92.25-23.7z"/></g><path fill="#f7f7f7" d="M43.3 18.19c12.58-2.5 25.79 4.31 32.86 14.7 3.38 6.06 5.9 13.05 4.92 20.06-.21 7.7.02 15.41-.09 23.12.24 3.69-3.22 7.16-6.92 6.91-5.37-.23-11 .9-16.11-1.22-7.6 1.73-15.88 1.94-22.97-1.73-7.63-3.61-14.29-9.95-17.09-18.04-1.91-5.56-3.27-11.69-1.51-17.46C18.56 31.2 30.12 20.37 43.3 18.19M22.31 51.01c-.68 7.12 3.21 13.74 7.8 18.85 6.7 6.57 16.63 8.5 25.65 6.8.37-4.88.17-9.78.15-14.67-2.1.18-3.8 1.82-5.96 1.69-6.19.75-13.11-3.37-14.32-9.7-.03-3.37-.74-7.14 1.2-10.14 2.97-5.1 9.7-8.32 15.39-6.18 4.56 1.24 8.58 5.18 9.19 9.96 4.44-.01 8.88-.07 13.32.04-.71-11.25-10.09-20.85-20.91-23.25-3.25-.2-6.52-.11-9.78-.07C31.59 26 21.22 38.4 22.31 51.01M46.4 43.5c-3.91 1.36-6.29 5.93-4.66 9.84 1.29 2.25 3.55 4.44 6.32 4.35 3.3.41 6.35-2.12 7.53-5.03 1.64-5.29-3.9-10.81-9.19-9.16m15.83 9.8c-.38 7.78-1.05 15.85-.25 23.7 4.29.51 8.72.48 13.02.02.58-4.98.11-10.02.26-15.02-.13-2.89.41-5.91-.53-8.71-4.17.1-8.33.08-12.5.01z"/></svg>