<svg width="100pt" height="100pt" viewBox="0 0 100 100" xmlns="http://www.w3.org/2000/svg"><path fill="#f8f8f9" d="M19.17 0h62.42c9.8.77 18.1 9.33 18.41 19.18v62.43c-.8 9.51-8.83 17.6-18.35 18.39h-63.2C8.62 99.24.28 90.67 0 80.77V19.23C.27 9.12 9.05.3 19.17 0m-4.14 15.96c-.16 3.55-.25 7.11.18 10.65 11.3-.19 22.6.09 33.89.03.44 22.1.35 44.2.3 66.31 3.53-1.34 5.95-4.45 8.01-7.47 4.57-7.3 7.44-15.88 6.99-24.56-.18-11.48.32-22.95.13-34.43 6.83-.12 13.65.4 20.47.1-.01-3.53 0-7.06 0-10.59-23.33.04-46.65-.18-69.97-.04m16.11 15.39c-.61 10.52-.42 21.11.25 31.61-.61 6.03-.54 12.09-.39 18.13 4.3-3.2 8.69-6.37 13.81-8.16-.09-13.9-.04-27.79.06-41.7-4.58-.07-9.16-.05-13.73.12M15.1 42.11c.18 4.55-.24 9.12.25 13.64 4.14 6.57 8.4 13.09 11.39 20.3-.17-6.38-.45-12.75.31-19.1-.36-4.94.04-9.87 0-14.82-3.98.05-7.96.05-11.95-.02z"/><g fill="#ceb770"><path d="M15.03 15.96c23.32-.14 46.64.08 69.97.04 0 3.53-.01 7.06 0 10.59-6.82.3-13.64-.22-20.47-.1.19 11.48-.31 22.95-.13 34.43.45 8.68-2.42 17.26-6.99 24.56-2.06 3.02-4.48 6.13-8.01 7.47.05-22.11.14-44.21-.3-66.31-11.29.06-22.59-.22-33.89-.03-.43-3.54-.34-7.1-.18-10.65z"/><path d="M31.14 31.35c4.57-.17 9.15-.19 13.73-.12-.1 13.91-.15 27.8-.06 41.7-5.12 1.79-9.51 4.96-13.81 8.16-.15-6.04-.22-12.1.39-18.13-.67-10.5-.86-21.09-.25-31.61zM15.1 42.11c3.99.07 7.97.07 11.95.02.04 4.95-.36 9.88 0 14.82-.76 6.35-.48 12.72-.31 19.1-2.99-7.21-7.25-13.73-11.39-20.3-.49-4.52-.07-9.09-.25-13.64z"/></g></svg>