<svg width="100pt" height="100pt" viewBox="0 0 100 100" xmlns="http://www.w3.org/2000/svg"><path d="M18.53 0h62.84c9.9.61 18.47 9.26 18.63 19.24v60.19c-1.3 1.97-2.32 4.35-4.57 5.42.37-2.25.6-4.53.59-6.82-.06-19.36.02-38.72-.04-58.08.29-8.15-6.81-15.71-14.96-15.89-13.27-.25-26.54.17-39.81-.2-9.36-3.43-19.46-.71-29.13-2.18C14.15.85 16.31.26 18.53 0zm61.54 95.98c3.91.18 7.57-1.52 10.55-3.94.41 1.79-.12 3.58-.53 5.32-2.68 1.38-5.6 2.28-8.6 2.64H19.6c-.37-1.34-.74-2.68-1.1-4.02 20.52.03 41.05.04 61.57 0z" fill="#d7c730"/><path d="M0 18.3C.73 11.14 5.36 4.42 12.08 1.68 21.75 3.15 31.85.43 41.21 3.86c-7.42.28-14.84-.01-22.26.21-8.15.19-15.22 7.74-14.93 15.89-.04 20.03-.03 40.07 0 60.1-.27 8.05 6.52 15.29 14.48 15.92.36 1.34.73 2.68 1.1 4.02h-.99C8.94 99.4.67 91.15 0 81.5V18.3zm95.43 66.55c2.25-1.07 3.27-3.45 4.57-5.42v1.96c-.5 6.56-4.33 12.55-9.91 15.97.41-1.74.94-3.53.53-5.32 1.88-2.21 3.3-4.73 4.81-7.19z" fill="#d9d075"/><g fill="#f0f3cf"><path d="M4.02 19.96c-.29-8.15 6.78-15.7 14.93-15.89 7.42-.22 14.84.07 22.26-.21 13.27.37 26.54-.05 39.81.2 8.15.18 15.25 7.74 14.96 15.89.06 19.36-.02 38.72.04 58.08.01 2.29-.22 4.57-.59 6.82-1.51 2.46-2.93 4.98-4.81 7.19-2.98 2.42-6.64 4.12-10.55 3.94-20.52.04-41.05.03-61.57 0-7.96-.63-14.75-7.87-14.48-15.92-.03-20.03-.04-40.07 0-60.1m10.72-8.32c-.6.01-1.78.02-2.38.03.93 1.39 2.11 2.59 3.53 3.48C24.67 21 33.38 26.96 42 33.04c1.63.99 2.53 2.68 3.28 4.36-5.23.33-10.87 1.38-14.98 4.88-2.25 1.79-1.95 4.73-1.83 7.29 3.51 4.58 9.25 6.68 14.86 7.07l1.31 1.11c.15 4.15.29 8.31.37 12.47-4.43-.12-8.88-2.29-10.22-6.79-3.23.05-6.46.04-9.68-.04.42 3.58 2.72 6.87 5.96 8.44 4.23 2.4 9.17 2.88 13.92 3.34v3.9c.62-.07 1.88-.2 2.51-.27 2.09.18 4.21.21 6.29-.14 1.61.18 1.82-2.6.61-3.28 5.93-.5 12.61-1.48 16.88-6.05 2.28-2.39 1.63-5.92-.29-8.29-3.09-4.74-9.32-4.67-14.29-5.68-.35-.25-1.04-.76-1.38-1.01-.31-4.55.06-9.09.03-13.63 2.97 1.37 6.93 2.82 7.38 6.57 3.31-.02 6.62-.03 9.93 0-2.41-7.06-10.7-9.31-17.35-9.89l-.94-1.9-.09-.23c4.61-2.11 8.47-5.47 12.7-8.21 1.3-1.13 3.36-1.82 3.57-3.77l.48-.08.51-.43 1.01-.02.64-.85c.07-.18.21-.56.28-.75 2.96-.36 5.11-2.59 7.54-4.1 2.52-1.82 5.59-3.2 7.12-6.07-.48.1-1.42.31-1.89.42-2-.05-4.02-.2-5.99.23-.54-.15-1.63-.46-2.18-.61-9.62 5.82-18.36 13.1-28.03 18.83-3.6-1.39-6.4-4.22-9.62-6.26-6.2-4.12-12.06-8.76-18.41-12.63-.38.21-1.15.65-1.54.87-1.8-.8-3.84-.41-5.73-.2m3.36 70.47c1.46 2.82 3.68 5.49 3.01 8.9.38-.01 1.14-.02 1.52-.03-.68-3.52 1.74-6.24 3.35-9.08-2.89-.47-2.82 3.28-4.05 5-1.22-1.5-1.1-5.47-3.83-4.79m10.48-.06c-.99 3.05-2.2 6.03-3.25 9.06 1.42.06 2.27-.64 2.54-2.1.8 0 2.4.01 3.19.01.35 1.4 1.11 2.32 2.67 2.08-1.13-2.98-2.29-5.95-3.29-8.98-.47-.02-1.39-.05-1.86-.07m6.07 0c.12 2.56-.36 5.27.63 7.7 1.15 1.41 3.01 1.49 4.66 1.11 3.23-1.67 1.61-5.96 1.99-8.86-.4 0-1.2 0-1.59.01.04 2.44.05 4.9-.31 7.33l-3.24.2c-.64-2.48-.45-5.05-.47-7.58-.42.02-1.25.07-1.67.09m13.8.3c-.22.63-.65 1.89-.86 2.51.84 2.73 4.92 1.39 5.57 4.22-2.25 1.57-4.02-.51-6-1.21.07 4.18 7.55 4.28 7.42.11-.86-2.24-3.54-2.22-5.46-2.96.22-.52.65-1.57.86-2.09 1.72.29 2.64 2.04 4.4 2.19-.32-3.05-3.5-3.63-5.93-2.77m7.88-.34c.01 2.99.01 5.99 0 8.98 2.01-.48 6.27 1.35 6.57-1.5-1.67-.02-3.34-.02-5.01-.03.02-.61.05-1.84.06-2.45 1.46-.01 2.93-.01 4.39-.02l-.01-.98c-1.46-.01-2.92-.01-4.38-.02-.01-.61-.04-1.83-.06-2.45 1.68-.01 3.35-.02 5.03-.04-.34-2.84-4.56-1-6.59-1.49m8.01-.14c-.01 3.04-.01 6.09 0 9.13h1.44c0-2.1.03-4.2.09-6.31.58.97 1.18 1.92 1.81 2.86.87 1.55 1.38 3.82 3.65 3.63.03-3.06.02-6.12.01-9.18h-1.56c.01 1.88.02 3.77.05 5.66-.17-.01-.52-.02-.7-.03-1.49-1.92-1.8-5.8-4.79-5.76m11.04 8.67c1.7 1.43 3.94-.97 5.68.59.15-1.72.16-3.46.14-5.19-1.5.03-3.01.11-4.47.5.86.36 2.59 1.09 3.45 1.45l-2.3 2.1c-4.1-.17-4.05-6.74-.03-6.96 1 .86 1.89 2.08 3.36 2.12-.4-2.57-2.91-3.48-5.21-3.26-3.23 1.63-3.97 6.76-.62 8.65z"/><path d="M55.36 59.3c3.54.3 8.9 2.25 8.23 6.67-.78 3.85-5.56 3.9-8.64 4.42.01-3.7.18-7.4.41-11.09zM29.32 84.36c1.02.41 1.47 2.49 1.11 3.53-.46 0-1.38-.01-1.84-.01-.57-1.12.18-2.52.73-3.52z"/></g><path d="M14.74 11.64c1.89-.21 3.93-.6 5.73.2 10.12 7.02 20.19 14.12 30.26 21.22 9.96-6.97 19.52-14.5 29.52-21.42 1.97-.43 3.99-.28 5.99-.23-4.69 2.95-9.14 6.27-13.34 9.88-.37.25-1.11.76-1.48 1.02-.1.1-.29.3-.39.41l-.36.19c-4.55 2.13-8.38 5.44-12.54 8.21-1.68 1.08-3.11 2.5-4.09 4.26-1.64.11-3.27.3-4.89.61-3.28-2.88-7.24-4.8-10.73-7.4-7.85-5.72-15.68-11.45-23.68-16.95zm33.69 30.32c1.72-.16 3.45-.29 5.16-.52-.37 9.67-.15 19.36-.04 29.04-1.95.07-3.9.04-5.85-.04.81-9.48.73-18.97.73-28.48zm-.83 33.37c2.08.08 4.16.11 6.24.07-.28 1.08-.3 2.17-.05 3.26-2.08.35-4.2.32-6.29.14.03-1.16.07-2.31.1-3.47z" fill="#f8f8f9"/><path fill="#d1d2cf" d="M20.47 11.84c.39-.22 1.16-.66 1.54-.87 6.35 3.87 12.21 8.51 18.41 12.63 3.22 2.04 6.02 4.87 9.62 6.26 9.67-5.73 18.41-13.01 28.03-18.83.55.15 1.64.46 2.18.61-10 6.92-19.56 14.45-29.52 21.42-10.07-7.1-20.14-14.2-30.26-21.22z"/><g fill="#d9dad3"><path d="M86.24 11.41c.47-.11 1.41-.32 1.89-.42-1.53 2.87-4.6 4.25-7.12 6.07-2.43 1.51-4.58 3.74-7.54 4.1l-.57.13c4.2-3.61 8.65-6.93 13.34-9.88z"/><path d="M71.42 22.31c.37-.26 1.11-.77 1.48-1.02l.29.62-.64.85-1.01.02-.12-.47zm-13.29 8.81c4.16-2.77 7.99-6.08 12.54-8.21l-.12.38c-.21 1.95-2.27 2.64-3.57 3.77-4.23 2.74-8.09 6.1-12.7 8.21l-.24.11c.98-1.76 2.41-3.18 4.09-4.26z"/><path d="m71.03 22.72.51.06-.51.43v-.49zM49.15 35.99c1.62-.31 3.25-.5 4.89-.61.09.03.25.09.33.12l.94 1.9c-2.49.02-4.98.01-7.47-.04l1.31-1.37z"/></g><path d="M12.36 11.67c.6-.01 1.78-.02 2.38-.03 8 5.5 15.83 11.23 23.68 16.95 3.49 2.6 7.45 4.52 10.73 7.4l-1.31 1.37-2.56.04c-.75-1.68-1.65-3.37-3.28-4.36C33.38 26.96 24.67 21 15.89 15.15c-1.42-.89-2.6-2.09-3.53-3.48zm60.54 9.62.57-.13c-.07.19-.21.57-.28.75l-.29-.62zm-1.87 1.43c.1-.11.29-.31.39-.41l.12.47-.51-.06zm-.36.19.36-.19v.49l-.48.08.12-.38zM54.04 35.38l.24-.11.09.23c-.08-.03-.24-.09-.33-.12z" fill="#d7d8d4"/><g fill="#e9e034"><path d="M30.3 42.28c4.11-3.5 9.75-4.55 14.98-4.88l2.56-.04c2.49.05 4.98.06 7.47.04 6.65.58 14.94 2.83 17.35 9.89-3.31-.03-6.62-.02-9.93 0-.45-3.75-4.41-5.2-7.38-6.57-3.55-.29-7.16-.38-10.67.32-3.81.52-8.34 1.98-9.59 6.08 2.35 3.14 5.67 5.16 9.67 5.02-.07 1.86-.14 3.73-.12 5.61l-1.31-1.11c-5.61-.39-11.35-2.49-14.86-7.07-.12-2.56-.42-5.5 1.83-7.29z"/><path d="M55.32 54.35c.34.25 1.03.76 1.38 1.01 4.97 1.01 11.2.94 14.29 5.68 1.92 2.37 2.57 5.9.29 8.29-4.27 4.57-10.95 5.55-16.88 6.05l-.56.02c-2.08.04-4.16.01-6.24-.07l-2.61-.16c-4.75-.46-9.69-.94-13.92-3.34-3.24-1.57-5.54-4.86-5.96-8.44 3.22.08 6.45.09 9.68.04 1.34 4.5 5.79 6.67 10.22 6.79.67.06 2.02.17 2.69.22 1.95.08 3.9.11 5.85.04l1.4-.09c3.08-.52 7.86-.57 8.64-4.42.67-4.42-4.69-6.37-8.23-6.67.05-1.65.02-3.31-.04-4.95z"/></g><path fill="#d2d2d3" d="M44.68 41.04c3.51-.7 7.12-.61 10.67-.32l-1.76.72c-1.71.23-3.44.36-5.16.52 0 9.51.08 19-.73 28.48-.67-.05-2.02-.16-2.69-.22-.08-4.16-.22-8.32-.37-12.47-.02-1.88.05-3.75.12-5.61.19-3.7.12-7.41-.08-11.1z"/><path fill="#e8ead5" d="M35.09 47.12c1.25-4.1 5.78-5.56 9.59-6.08.2 3.69.27 7.4.08 11.1-4 .14-7.32-1.88-9.67-5.02z"/><path d="m53.59 41.44 1.76-.72c.03 4.54-.34 9.08-.03 13.63.06 1.64.09 3.3.04 4.95-.23 3.69-.4 7.39-.41 11.09l-1.4.09c-.11-9.68-.33-19.37.04-29.04zm.25 33.96.56-.02c1.21.68 1 3.46-.61 3.28-.25-1.09-.23-2.18.05-3.26z" fill="#d5d6ce"/><path fill="#c3c4bb" d="m44.99 75.17 2.61.16c-.03 1.16-.07 2.31-.1 3.47-.63.07-1.89.2-2.51.27v-3.9z"/><path d="M18.1 82.11c2.73-.68 2.61 3.29 3.83 4.79 1.23-1.72 1.16-5.47 4.05-5-1.61 2.84-4.03 5.56-3.35 9.08-.38.01-1.14.02-1.52.03.67-3.41-1.55-6.08-3.01-8.9zm10.48-.06c.47.02 1.39.05 1.86.07 1 3.03 2.16 6 3.29 8.98-1.56.24-2.32-.68-2.67-2.08-.79 0-2.39-.01-3.19-.01-.27 1.46-1.12 2.16-2.54 2.1 1.05-3.03 2.26-6.01 3.25-9.06m.74 2.31c-.55 1-1.3 2.4-.73 3.52.46 0 1.38.01 1.84.01.36-1.04-.09-3.12-1.11-3.53zm5.33-2.31c.42-.02 1.25-.07 1.67-.09.02 2.53-.17 5.1.47 7.58l3.24-.2c.36-2.43.35-4.89.31-7.33.39-.01 1.19-.01 1.59-.01-.38 2.9 1.24 7.19-1.99 8.86-1.65.38-3.51.3-4.66-1.11-.99-2.43-.51-5.14-.63-7.7zm13.8.3c2.43-.86 5.61-.28 5.93 2.77-1.76-.15-2.68-1.9-4.4-2.19-.21.52-.64 1.57-.86 2.09 1.92.74 4.6.72 5.46 2.96.13 4.17-7.35 4.07-7.42-.11 1.98.7 3.75 2.78 6 1.21-.65-2.83-4.73-1.49-5.57-4.22.21-.62.64-1.88.86-2.51zm7.88-.34c2.03.49 6.25-1.35 6.59 1.49-1.68.02-3.35.03-5.03.04.02.62.05 1.84.06 2.45 1.46.01 2.92.01 4.38.02l.01.98c-1.46.01-2.93.01-4.39.02-.01.61-.04 1.84-.06 2.45 1.67.01 3.34.01 5.01.03-.3 2.85-4.56 1.02-6.57 1.5.01-2.99.01-5.99 0-8.98zm8.01-.14c2.99-.04 3.3 3.84 4.79 5.76l-1.45-.08c-.63-.94-1.23-1.89-1.81-2.86-.06 2.11-.09 4.21-.09 6.31h-1.44c-.01-3.04-.01-6.09 0-9.13zm11.04 8.67c-3.35-1.89-2.61-7.02.62-8.65 2.3-.22 4.81.69 5.21 3.26-1.47-.04-2.36-1.26-3.36-2.12-4.02.22-4.07 6.79.03 6.96l2.3-2.1c-.86-.36-2.59-1.09-3.45-1.45 1.46-.39 2.97-.47 4.47-.5.02 1.73.01 3.47-.14 5.19-1.74-1.56-3.98.84-5.68-.59z" fill="#161713"/><path fill="#1f201b" d="M69.78 82h1.56c.01 3.06.02 6.12-.01 9.18-2.27.19-2.78-2.08-3.65-3.63l1.45.08c.18.01.53.02.7.03-.03-1.89-.04-3.78-.05-5.66z"/></svg>