<svg xmlns:xlink="http://www.w3.org/1999/xlink" xmlns="http://www.w3.org/2000/svg" width="769.986" height="659.984" viewBox="0 0 769.986 659.984" preserveAspectRatio="none"><defs><linearGradient id="a"><stop offset="0" style="stop-color:#6d5656;stop-opacity:1"/><stop offset="1" style="stop-color:#000;stop-opacity:1"/></linearGradient><linearGradient id="c" x1="1" y1=".5" x2="0" y2=".5" gradientUnits="objectBoundingBox" xlink:href="#a"/><linearGradient id="b"><stop offset="0" style="stop-color:#000;stop-opacity:1"/><stop offset="1" style="stop-color:#6d5656;stop-opacity:1"/></linearGradient><linearGradient id="d" x1=".081" y1=".772" x2=".919" y2=".228" gradientUnits="objectBoundingBox" xlink:href="#b"/><linearGradient id="e" x1=".034" y1=".682" x2=".966" y2=".318" gradientUnits="objectBoundingBox" xlink:href="#b"/></defs><g style="fill:#000;fill-opacity:1;stroke:#000;stroke-opacity:1;fill-rule:nonzero;stroke-linecap:square;stroke-linejoin:miter;stroke-width:1;stroke-miterlimit:10"><path style="fill:#1a1a1a;stroke-linecap:butt;stroke-width:1.8;stroke-miterlimit:4" d="m713.99 256.94 55.046 15.995-51.33 15.07 35.12 14.705-36.975 6.914z"/><path style="fill:url(#c);stroke:none" d="M197.682 154.421c-7.397 93.977 105.188 244.65 216.45 256.613 43.475 4.675 107.283-36.398 103.962-79.997-9.265-121.603-196.968-127.713-320.412-176.616z"/><path style="fill:url(#d);stroke:none" d="M0 502.223c121.822 135.785 341.219 196.983 500.78 131.264 133.118-54.828 219.43-231.701 219.473-371.98.03-96.07-96.186-205.335-238.62-160.291-63.98 20.233-112.795 84.505-154.028 142.885C235.477 366.724 153.781 449.103 0 502.223z"/><path style="fill:url(#e);stroke:none" d="M91.64 227.848c7.752 93.948 143.016 224.643 254.757 218.632 43.663-2.35 100.069-53.112 89.807-95.617-28.622-118.548-214.88-94.515-344.563-123.015z"/><path style="fill:#1e90ff;stroke:none" d="M400.551 153.876c38.725 3.46 107.108 15.721 161.069 19.065 44.288 2.744 96.618 1.558 133.117.793 26.435 45.31 28.575 93.617 21.114 135.89-77.83 13.034-135.78 3.424-199.282-16.87-57.77-18.462-115.07-46.279-156.598-92.636 18.519-26.347 24.821-32.038 40.58-46.242z"/><path style="fill:#fff;stroke:none" d="M688.072 264.56c-7.655 20.083-34.392 27.708-59.719 17.032-25.326-10.676-39.65-35.61-31.995-55.694 7.656-20.083 34.393-27.709 59.719-17.033 25.326 10.677 39.651 35.612 31.995 55.695z"/><path style="fill:#1a1a1a;stroke:none" d="M685.448 262.135c-5.778 15.157-24.833 21.386-42.562 13.913-17.728-7.474-27.416-25.819-21.638-40.976 5.778-15.157 24.833-21.386 42.562-13.913 17.728 7.474 27.416 25.82 21.638 40.976z"/><path style="fill:#fff;stroke:none" d="M678.302 242.68c-2.043 5.359-8.538 7.663-14.507 5.147-5.97-2.517-9.153-8.9-7.11-14.26 2.043-5.358 8.538-7.663 14.507-5.146 5.97 2.516 9.153 8.9 7.11 14.259z"/><path style="fill:#1a1a1a;stroke:none" d="M685.29 235.828c-9.738-6.072-17.812-14.404-27.504-20.551-9.333-6.297-18.96-12.37-29.425-16.597-4.587-1.585-9.178-3.162-13.744-4.81-3.122.745.594-2.047 1.243-3.08l9.48-10.579c4.1.54 7.721 2.799 11.714 3.758 10.806 4.425 20.571 10.963 30.336 17.276 9.595 6.475 18.547 13.895 28.218 20.232 2.864.536 2.71 2.528.504 3.736l-10.823 10.615z"/><path style="fill:#1e90ff;stroke:none" d="M408.577 205.785c-18.666-.649-40.394 1.671-54.7-15.59-12.596-13.801-22.845-30.98-29.455-49.705-1.147-13.6-1.16-30.216-13.58-36.678-14.338-9.098-31.277-7.789-46.953-10.308-29.583-1.967-57.768 10.367-85.342 21.278-13.09 5.138-29.183 4.194-38.78-8.918-7.477-8.576-12.021-19.683-16.74-30.315-6.912-6.882-7.327-17.575 2.003-20.428l17.233-11.684c8.826 19.101 15.54 43.645 34.152 52.155 19.107 4.837 36.828-8.149 54.84-13.41 25.534-9.714 52.821-11.177 79.194-6.025 15.185 1.596 33.561 8.18 38.152 27.756 1.343 16.975 4.403 33.509 14.553 46.256 9.604 17.25 23.688 33.692 42.177 34.401 6.12 2.401 26.147-2.503 23.942 3.382l-20.696 17.833z"/><path style="fill:#1e90ff;stroke:none" d="M396.071 196.83c-13.535-8.826-30.093-16.613-35.85-32.86-3.812-10.88-7.729-21.88-9.638-33.263-1.672-15.469.046-31.057-.725-46.561 2.494-9.893-3.922-18.995-13.83-20.821-12.987-3.786-26.725-3.288-40.04-5.122-12.24-.667-26.849 1.996-36.557-7.21-7.363-8.782-10.562-20.147-14.21-30.786-.837-5.557 6.542-5.78 9.75-9.065L272.531 0c1.27 10.352 5.81 20.014 9.868 29.504 5.6 9.97 17.866 10.446 27.985 10.195 15.867 1.01 31.983 1.323 47.522 4.848 9.794 2.288 21.337 9.222 20.307 20.625.66 23.624-3.252 48.122 4.87 70.903 3.356 10.19 6.65 21.19 15.663 27.955 6.758 6.265 15.256 10.381 22.787 15.381-6.17 5.397-14.045 9.463-20.866 14.377l-4.596 3.042z"/><path style="fill:#fff;stroke:#fff" d="m565.615 230.105-21.13 7.216-7.216 21.13-7.216-21.13-21.13-7.216 21.13-7.216 7.216-21.13 7.215 21.13z"/></g></svg>