<svg xmlns="http://www.w3.org/2000/svg" width="64" height="64" viewBox="0 0 64 64" xml:space="preserve"><path fill="#FB6620" d="M61.42 24.988c-1.31-.561-6.923.062-8.484-1.348-1.099-1.015-1.169-2.853-1.601-5.302-.718-4.105-1.018-5.034-1.766-6.651C46.848 5.932 40.32 1 34.391 1H20.647C9.835 1 1 9.824 1 20.596v22.849C1 54.194 9.835 63 20.647 63h22.58c10.812 0 19.586-8.806 19.649-19.556L63 27.619s0-1.957-1.58-2.631zM20.896 17h10.896c2.079 0 3.765 1.439 3.765 3.488 0 2.053-1.686 3.512-3.765 3.512H20.896c-2.079 0-3.763-1.459-3.763-3.512.001-2.049 1.684-3.488 3.763-3.488zM43.04 47H20.896c-2.079 0-3.763-1.971-3.763-3.998 0-2.051 1.684-4.002 3.763-4.002H43.04c2.059 0 3.743 1.951 3.743 4.002 0 2.027-1.684 3.998-3.743 3.998z"/><path fill="#EF5830" d="M61.42 24.988c-1.31-.561-6.923.062-8.484-1.348-.348-.322-.586-.736-.773-1.217-.927 6.579-3.583 12.184-7.912 16.808 1.562.597 2.533 2.246 2.533 3.983 0 2.027-1.685 3.785-3.743 3.785h-9.399c-3.905 2-8.222 2.635-12.765 2.635-7.532 0-14.445-2.699-19.876-7.098v.907C1 54.194 9.835 63 20.647 63h22.58c10.812 0 19.586-8.806 19.649-19.556L63 27.619s0-1.957-1.58-2.631z"/><g fill="#F9A121"><path d="M20.896 27h10.896c2.079 0 3.798-3.523 3.798-5.574 0-.426-.02-.226-.254.305-.633 1.41-1.896 2.27-3.544 2.27H20.896c-1.647 0-2.99-.938-3.541-2.291-.218-.578-.233-.67-.233-.244 0 2.051 1.695 5.534 3.774 5.534z"/><path d="M20.647 3H34.39c5.93 0 12.457 5.143 15.179 10.898.748 1.617 1.048 2.651 1.766 6.757.432 2.449.502 4.34 1.601 5.354 1.562 1.409 7.175.813 8.484 1.374 1.255.535 1.51 1.878 1.563 2.409l.017-2.18s0-1.953-1.58-2.627c-1.31-.561-6.923.062-8.484-1.347-1.099-1.015-1.169-2.852-1.601-5.301-.718-4.105-1.018-5.033-1.766-6.65C46.848 5.932 40.32 1 34.391 1H20.647C9.835 1 1 9.824 1 20.596v2.422C1 12.246 9.835 3 20.647 3zm.249 46H43.04c2.059 0 3.832-3.017 3.832-5.046 0-.428.02-.571-.312.391C45.906 45.75 44.669 47 43.04 47H20.896c-1.646 0-2.818-1.188-3.443-2.5-.312-.876-.361-.908-.361-.482 0 2.029 1.725 4.982 3.804 4.982z"/></g></svg>