<svg xmlns="http://www.w3.org/2000/svg" width="64" height="64" viewBox="0 0 64 64" xml:space="preserve"><path fill="#FA7B7A" d="M31.091 54.363c.31.34.613.665.915.979.298-.313.604-.638.913-.978l-1.828-.001zm-.057-7.305.983.754.95-.798a20.153 20.153 0 0 1-.968-1.262c-.308.427-.629.86-.965 1.306zm4.424 4.539c.22-.284.428-.559.637-.835a43.66 43.66 0 0 1-.692-.761l.055 1.596z"/><path fill="#FA7B7A" d="m58.035 40.324-.04-.092c-.099-.215-.099-.215-.192-.432a698.36 698.36 0 0 0-13.485-28.214c-.119-.234-.214-.423-.426-.837-.003-.01-.003-.01-.009-.019a107.24 107.24 0 0 0-1.586-3.059c-.849-1.541-1.712-2.744-2.755-3.729-1.835-1.781-4.32-2.869-6.899-3.033L31.521.907a10.974 10.974 0 0 0-7.166 3.139c-.988.955-1.816 2.122-2.644 3.624a96.226 96.226 0 0 0-1.575 3.027l-.085.17-.334.657a705.634 705.634 0 0 0-9.188 18.859C8.343 35.066 6.8 38.438 5.313 41.805c-.916 2.089-1.435 3.651-1.664 5.311-.479 3.199.207 6.574 1.903 9.352 1.46 2.407 3.648 4.341 6.196 5.459a13.736 13.736 0 0 0 6.33 1.14c2.723-.147 5.458-1.103 7.991-2.701 2.024-1.267 3.871-2.859 5.936-5.021-.302-.314-.605-.64-.915-.979l1.828.002c-.31.34-.615.664-.913.978 1.867 1.963 3.565 3.459 5.404 4.681 2.505 1.679 5.19 2.731 7.901 2.992a13.705 13.705 0 0 0 9.041-2.246c2.316-1.556 4.147-3.849 5.177-6.479.668-1.703 1-3.537.969-5.364-.019-1.787-.407-3.609-1.109-5.431-.349-.908-.655-1.62-1.353-3.175zm-26.017 7.488-.983-.754c.336-.445.657-.879.966-1.306-.224-.31-.474-.671-.78-1.119l-.105-.154-.065-.091c-1.109-1.658-2.008-3.246-2.711-4.833-.672-1.529-1.092-2.912-1.261-4.248-.144-1.238-.062-2.303.273-3.192a4.351 4.351 0 0 1 1.704-2.148c1.938-1.274 4.702-1.109 6.406.392.816.707 1.352 1.791 1.486 2.976.171 1.517-.114 3.167-.796 5.023-.902 2.413-2.238 4.745-4.151 7.396.361.507.646.877.968 1.262l-.951.796zM54 51.509v.003c0 1.912-1.816 3.589-3.521 4.55a7.63 7.63 0 0 1-5.031.869c-2.062-.326-4.079-1.393-6.192-3.125-1.035-.846-2.029-1.816-3.166-3.044-.209.276-.415.551-.635.835l-.054-1.596c.237.267.466.517.692.761 2.036-2.688 3.554-5.042 4.749-7.487 1.477-3.033 2.31-5.862 2.395-8.673.061-2.112-.354-4.145-1.254-5.893-1.214-2.406-3.396-4.301-5.968-5.222a11.842 11.842 0 0 0-7.312-.232c-2.302.663-4.359 2.069-5.763 3.975-1.225 1.644-1.959 3.685-2.128 5.816-.224 2.664.328 5.434 1.517 8.366 1.291 3.141 3.136 6.153 5.588 9.338.226-.248.45-.499.664-.754l-.022 1.58c-.22-.275-.429-.551-.642-.826a32.303 32.303 0 0 1-2.715 2.666c-2.104 1.814-4.101 2.968-6.15 3.418-1.805.413-3.704.193-5.283-.62-1.885-.955-3.334-2.762-3.879-4.827-.41-1.494-.34-3.15.177-4.701.303-.908.613-1.641 1.334-3.252l.061-.136c.131-.294.217-.485.304-.683a695.959 695.959 0 0 1 13.279-27.804c.101-.196.179-.354.357-.706l.019-.035c.833-1.652 1.22-2.404 1.713-3.31.661-1.196 1.241-1.976 1.945-2.519a4.591 4.591 0 0 1 2.938-1.006 4.622 4.622 0 0 1 3.043 1.112c.752.635 1.328 1.473 2.097 2.934 1.104 2.113 2.064 4.021 3.826 7.562.155.317.155.317.314.634.018.034.018.034.034.07A677.99 677.99 0 0 1 52.643 43.51c.048.112.088.199.179.406l.068.153c.676 1.532.91 2.228 1.15 3.09.396 1.434-.04 2.964-.04 4.35z"/><path fill="#DD4B4B" d="m31.22 44.633-.105-.154-.065-.091c-1.109-1.658-2.008-3.246-2.711-4.833-.672-1.529-1.092-2.912-1.261-4.248-.144-1.238-.062-2.303.273-3.192a4.351 4.351 0 0 1 1.704-2.148c1.938-1.274 4.702-1.109 6.406.392.816.707 1.352 1.791 1.486 2.976.149 1.331-.072 2.774-.582 4.361 3.016-9.388.679-14.093-2.835-14.803a11.859 11.859 0 0 0-4.826.363c-2.302.663-4.359 2.069-5.763 3.975-1.225 1.644-1.959 3.685-2.128 5.816-.224 2.664.328 5.434 1.517 8.366 1.287 3.126 3.122 6.126 5.556 9.293 1.336-1.388 2.704-3.06 4.087-4.99a75.392 75.392 0 0 1-.753-1.083z"/><path fill="#FA7B7A" d="M60.498 48.922v.009zm-31.916 1.074c-.214.255-.438.506-.664.754.213.275.422.551.642.826l.022-1.58z"/><path d="M31.091 54.363c.31.34.613.665.915.979.298-.313.604-.638.913-.978l-1.828-.001zm-.057-7.305.983.754.95-.798a20.153 20.153 0 0 1-.968-1.262c-.308.427-.629.86-.965 1.306zm4.424 4.539c.22-.284.428-.559.637-.835a43.66 43.66 0 0 1-.692-.761l.055 1.596zm25.04-2.675v.009zm-31.916 1.074c-.214.255-.438.506-.664.754.213.275.422.551.642.826l.022-1.58z" fill="#FA7B7A"/><path fill="#BA3A3A" d="M35.854 39.059c.994-2.021 1.61-4.823 1.61-7.919 0-6.171-2.445-7.934-5.463-7.934-3.02 0-5.467 1.763-5.467 7.934 0 2.987.577 5.694 1.512 7.699-.497-1.248-.827-2.41-.97-3.532-.144-1.238-.062-2.303.273-3.192a4.351 4.351 0 0 1 1.704-2.148c1.938-1.274 4.702-1.109 6.406.392.816.707 1.352 1.791 1.486 2.976.171 1.517-.114 3.167-.796 5.023-.087.235-.198.467-.295.701z"/><path fill="#DD4B4B" d="M60.141 52.241c.246-1.088.377-2.2.357-3.315-.019-1.787-.407-3.609-1.109-5.431-.35-.904-.655-1.616-1.354-3.171l-.04-.092c-.099-.215-.099-.215-.192-.432a698.36 698.36 0 0 0-13.485-28.214c-.119-.234-.214-.423-.426-.837-.003-.01-.003-.01-.009-.019a107.24 107.24 0 0 0-1.586-3.059c-.849-1.541-1.712-2.744-2.755-3.729a10.769 10.769 0 0 0-3.146-2.11c-.348.022-1.175-.336-1.569-.185-2.74 1.053-5.526 4.129-8.537 10.711.315-.612.563-1.084.844-1.6.661-1.196 1.241-1.976 1.945-2.519a4.591 4.591 0 0 1 2.938-1.006 4.622 4.622 0 0 1 3.043 1.112c.752.635 1.328 1.473 2.097 2.934 1.104 2.113 2.064 4.021 3.826 7.562.155.317.155.317.314.634.018.034.018.034.034.07a677.99 677.99 0 0 1 11.312 23.963c.048.112.088.199.179.406l.068.153c.676 1.532.91 2.228 1.15 3.09.396 1.436-.04 2.966-.04 4.352v.003c0 1.912-1.816 3.589-3.521 4.55a7.63 7.63 0 0 1-5.031.869 9.719 9.719 0 0 1-1.925-.532c2.566 1.165 5.255 1.633 7.931 1.202 3.434-.552 6.396-2.484 8.687-5.36z"/><path fill="#BA3A3A" d="M44.035 11.029a22.826 22.826 0 0 0-.144-.279c-.003-.01-.003-.01-.009-.019a107.24 107.24 0 0 0-1.586-3.059c-.849-1.541-1.712-2.744-2.755-3.729a10.769 10.769 0 0 0-3.146-2.11c-.348.022-1.175-.336-1.569-.185-2.74 1.053-5.526 4.129-8.537 10.711.315-.612.563-1.084.844-1.6.661-1.196 1.241-1.976 1.945-2.519a4.591 4.591 0 0 1 2.938-1.006 4.622 4.622 0 0 1 3.043 1.112c.752.635 1.328 1.473 2.097 2.934 1.104 2.113 2.064 4.021 3.826 7.562.155.317.155.317.314.634.018.034.018.034.034.07a690.155 690.155 0 0 1 3.357 6.872c.103-1.548.157-3.134.157-4.75a68.076 68.076 0 0 0-.809-10.639z"/><path fill="#DD4B4B" d="M5.313 41.805c-.916 2.089-1.435 3.651-1.664 5.311a13.992 13.992 0 0 0 .218 5.169c3.574 5.577 6.819 5.252 11.146 5.252 1.907 0 3.729-.409 5.43-1.121a10.36 10.36 0 0 1-1.39.419c-1.805.413-3.704.193-5.283-.62-1.885-.955-3.334-2.762-3.879-4.827-.41-1.494-.34-3.15.177-4.701.303-.908.613-1.641 1.334-3.252l.061-.136c.131-.294.217-.485.304-.683a690.174 690.174 0 0 1 10.001-21.22"/><path fill="#BA3A3A" d="M13.77 56.214c-1.885-.955-3.334-2.762-3.879-4.827-.41-1.494-.34-3.15.177-4.701.103-.306.207-.594.326-.899-1.476 2.75-3.311 4.382-5.3 4.382a3.817 3.817 0 0 1-1.566-.351 14.7 14.7 0 0 0 .34 2.467c3.574 5.577 6.414 6.021 10.739 6.021 1.907 0 4.615-.548 5.836-1.891a10.36 10.36 0 0 1-1.39.419c-1.805.413-3.704.193-5.283-.62z"/><path d="M39.267 53.806c-1.027-.841-2.021-1.805-3.148-3.02-.192.237 0 0 0 0-.025.032 0 0 0 0-.396.561-1.849 1.931-2.362 2.5-.656.729-1.198 1.419-1.847 2.073a34.158 34.158 0 0 0 4.324 3.863c.821-.463 1.603-1.031 2.239-1.738.771-.853 1.344-1.854 1.744-2.935a21.482 21.482 0 0 1-.95-.743zm-8.477 2.758a42.612 42.612 0 0 1-2.902 2.525 31.36 31.36 0 0 0 2.902-2.525zm-3.331 2.855c.085-.062.172-.128.258-.193-.089.069-.173.128-.258.193z" fill="#DD4B4B"/><path fill="#BA3A3A" d="m58.035 40.324-.04-.092c-.099-.215-.099-.215-.192-.432a717.162 717.162 0 0 0-4.149-9.012c.342 2.782 3.324 8.649 3.097 13.743-.297 6.696-2.912 9.839-5.776 11.241a6.425 6.425 0 0 1-.453.288c-1.503.855-3.318 1.164-5.052.869a8.909 8.909 0 0 1-1.053-.239c-.101-.015-.197-.03-.288-.046 2.385.978 4.859 1.353 7.331.955 3.434-.552 6.391-2.483 8.682-5.359.246-1.088.377-2.2.357-3.315-.019-1.787-.407-3.609-1.109-5.431-.351-.903-.657-1.615-1.355-3.17z"/></svg>