<svg xmlns="http://www.w3.org/2000/svg" width="64" height="64" viewBox="0 0 64 64" xml:space="preserve"><path fill="#B70E10" d="m53.626 29.233-4.547-1.008c-3.124-.72-4.047-2.014-4.047-4.171 0-2.444 1.916-3.884 5.04-3.884 3.409 0 5.257 1.295 5.54 4.387l7.104-.863c-.568-6.472-4.973-9.132-12.216-9.132-6.392 0-12.642 2.445-12.642 10.283 0 4.888 2.343 7.981 8.237 9.421l4.83 1.149c3.623.862 4.828 2.372 4.828 4.458 0 2.66-2.555 3.739-7.387 3.739-7.173 0-10.153-3.812-11.857-9.061l-2.345-7.189c-2.983-9.348-7.74-12.801-17.185-12.801C6.54 14.562 1 21.251 1 32.612 1 43.54 6.54 49.438 16.483 49.438c8.023 0 11.858-3.812 11.858-3.812L26.07 39.37s-3.693 4.17-9.232 4.17c-4.9 0-8.38-4.312-8.38-11.215 0-8.846 4.4-12.009 8.734-12.009 6.251 0 8.238 4.098 9.943 9.349l2.271 7.188c2.274 6.977 6.535 12.584 18.819 12.584 8.809 0 14.773-2.732 14.773-9.922.002-5.825-3.267-8.845-9.372-10.282z"/><path fill="#CE1721" d="m53.626 29.233-4.547-1.008c-2.53-.582-3.603-1.552-3.925-3.04a4.006 4.006 0 0 0-.122.97c0 2.155.923 3.451 4.047 4.171l4.547 1.006c5.684 1.338 8.905 4.052 9.324 9.119.024-.307.05-.61.05-.936 0-5.825-3.269-8.845-9.374-10.282z"/><path fill="#E51F32" d="M54.175 15.645c6.418 0 6.929 3.113 8.194 8.092l.347-.042c-.568-6.472-4.973-9.132-12.216-9.132-6.392 0-12.642 2.445-12.642 10.283 0 .387.021.758.051 1.121.508-7.056 10.151-10.322 16.266-10.322z"/><path fill="#E51F32" d="M16.979 16.661c10.997-.392 14.202 3.453 17.185 12.801l2.345 7.189c1.704 5.249 4.685 9.062 11.857 9.062 4.832 0 7.387-1.081 7.387-3.741 0-.395-.043-.769-.138-1.121-.586 1.949-3.06 2.762-7.249 2.762-7.173 0-10.153-3.812-11.857-9.061l-2.345-7.189c-2.983-9.348-7.74-12.801-17.185-12.801C6.54 14.562 1 21.251 1 32.612c0 .353.021.687.033 1.028.345-10.701 2.012-16.481 15.946-16.979z"/><path fill="#CE1721" d="M16.838 43.54c-4.647 0-8.011-3.882-8.347-10.169-.015.348-.033.688-.033 1.053 0 6.902 3.479 11.217 8.38 11.217 5.539 0 9.232-4.17 9.232-4.17l1.687 4.645c.384-.294.585-.489.585-.489L26.07 39.37s-3.693 4.17-9.232 4.17z"/><path fill="#6D0915" d="M17.192 20.316c1.522 0 2.789.247 3.864.691-4.355-2.557-13.466.087-19.494 5.815C1.191 28.586 1 30.518 1 32.612 1 43.54 6.54 49.438 16.483 49.438c8.023 0 11.858-3.812 11.858-3.812L26.07 39.37s-3.693 4.17-9.232 4.17c-4.9 0-8.38-4.312-8.38-11.215 0-8.846 4.4-12.009 8.734-12.009zm41.018-4.17c-9.145.111-12.154 3.798-12.849 6.327.67-1.468 2.339-2.302 4.711-2.302 3.409 0 5.257 1.295 5.54 4.387l7.104-.863c-.322-3.678-1.887-6.123-4.506-7.549z"/></svg>