<svg xmlns="http://www.w3.org/2000/svg" width="64" height="64" viewBox="0 0 64 64" xml:space="preserve"><g fill="#7ED1B5"><path d="m29.237 37.287-2.628-7.844 8.151-2.73 2.627 7.843z"/><path d="M23.614 4.054C2.657 10.342-2.236 19.423 4.053 40.384c6.288 20.96 15.373 25.852 36.331 19.562 20.961-6.289 25.852-15.371 19.563-36.33C53.66 2.655 44.576-2.233 23.614 4.054zm25.731 33.169-3.951 1.322 1.368 4.091a3.158 3.158 0 0 1-1.994 4.001 3.177 3.177 0 0 1-1.084.165 3.163 3.163 0 0 1-2.917-2.157l-1.37-4.092-8.151 2.732 1.37 4.088a3.164 3.164 0 0 1-3.078 4.166 3.162 3.162 0 0 1-2.917-2.156l-1.37-4.091-3.953 1.326a3.162 3.162 0 0 1-2.007-6l3.954-1.323-2.629-7.845-3.952 1.324a3.158 3.158 0 0 1-4.002-1.995 3.16 3.16 0 0 1 1.992-4l3.955-1.326-1.37-4.088a3.158 3.158 0 0 1 1.994-4.002 3.162 3.162 0 0 1 4.003 1.992l1.368 4.092 8.153-2.73-1.372-4.09a3.163 3.163 0 0 1 1.994-4.003 3.164 3.164 0 0 1 4.003 1.995l1.368 4.089 3.955-1.324a3.163 3.163 0 0 1 2.006 5.998l-3.952 1.322 2.627 7.848 3.954-1.326a3.162 3.162 0 1 1 2.005 5.997z"/></g><path fill="#9DEACE" d="m29.237 37.287-2.628-7.844 8.151-2.73 2.627 7.843z"/><path fill="#7ED1B5" d="m26.611 29.442 2.627 7.844 8.152-2.728-3.351-5.864z"/><path fill="#5FB2A2" d="m26.611 29.442 2.627 7.844 8.152-2.728-5.733-.861zM31.54 17.1a3.15 3.15 0 0 0-.157 2.387l.51 1.521.862-.29L31.54 17.1zm-14.145 4.737a3.153 3.153 0 0 0-.158 2.389l.508 1.516.862-.288-1.212-3.617zm31.95 15.386-3.951 1.322.86 2.573 3.09-1.036a3.162 3.162 0 0 0 1.996-4.003c-.051-.147-.119-.28-.188-.415a3.136 3.136 0 0 1-1.807 1.559z"/><path fill="#9DEACE" d="M23.614 6.913C44.576.626 53.66 5.515 59.946 26.476c1.474 4.915 2.327 9.172 2.508 12.896.232-4.363-.641-9.533-2.508-15.755C53.66 2.655 44.576-2.233 23.614 4.054 7.571 8.866.951 15.324 1.545 27.486c.548-10.343 7.333-16.153 22.069-20.573z"/><path fill="#5FB2A2" d="m44.709 23.382-3.952 1.322.862 2.57 3.09-1.033a3.162 3.162 0 0 0 1.994-4.003c-.048-.148-.119-.278-.186-.415a3.154 3.154 0 0 1-1.808 1.559zM12.661 33.638a3.157 3.157 0 0 0 4.002 1.996l3.952-1.324 1.767 5.273.862-.288-2.629-7.845-3.952 1.324a3.162 3.162 0 0 1-3.822-1.57 3.145 3.145 0 0 0-.18 2.434zm32.108 12.999a3.177 3.177 0 0 1-1.084.165 3.163 3.163 0 0 1-2.917-2.157l-1.37-4.092-8.151 2.732.862 2.569 7.289-2.442 1.37 4.092a3.163 3.163 0 0 0 2.917 2.157c.359.008.723-.044 1.084-.165a3.16 3.16 0 0 0 1.994-4.001l-.158-.473a3.148 3.148 0 0 1-1.836 1.615zm-14.146 4.741a3.162 3.162 0 0 1-4.001-1.995l-1.37-4.091-3.953 1.326a3.172 3.172 0 0 1-1.086.161 3.172 3.172 0 0 1-2.735-1.733 3.163 3.163 0 0 0 3.821 4.431l3.953-1.325 1.37 4.091a3.162 3.162 0 1 0 5.995-2.01l-.157-.471c-.36.736-1 1.334-1.837 1.616z"/><path fill="#5FB2A2" d="M35.707 53.475c-17.328 0-31.675-12.493-34.166-28.782-.22 4.353.653 9.5 2.511 15.691 6.288 20.96 15.373 25.852 36.331 19.562 13.822-4.146 20.652-9.511 21.901-18.689-6.336 7.463-15.889 12.218-26.577 12.218z"/></svg>