<svg xmlns="http://www.w3.org/2000/svg" width="64" height="64" viewBox="0 0 64 64" xml:space="preserve"><circle fill="#4285B2" cx="32" cy="32.001" r="30.75"/><path fill="#2A5B83" d="M10.256 10.257c12.009-12.01 31.479-12.01 43.487 0 12.009 12.007 12.288 31.163-.539 44.012"/><path fill="#FFFCF3" d="M12 25h39v27H12z"/><path fill="#E5E3DF" d="M51 27.526 47.923 25h-8.644L22.531 41.67 32.642 52H51z"/><path fill="#EDA71D" d="M40 12h11v12H40z"/><path fill="#EF8A1B" d="M43 12h8v12h-8z"/><path fill="#EA6F1C" d="M39 12h11v12"/><path fill="#5AA6D1" d="M43.474 31.948c0 6.338-5.135 11.474-11.474 11.474-6.341 0-11.476-5.136-11.476-11.474S25.659 20.474 32 20.474c6.339 0 11.474 5.136 11.474 11.474z"/><path fill="#4285B2" d="M23.885 23.833c4.482-4.479 11.748-4.48 16.229 0 4.483 4.482 4.483 11.748 0 16.229"/><circle fill="#13D1BA" cx="32" cy="31.948" r="7.895"/><path fill="#0FAAA6" d="M32 24.054a7.897 7.897 0 0 1 0 15.791"/><circle fill="#13D1BA" cx="32" cy="31.949" r="5.069"/><path fill="#0FAAA6" d="M26.932 31.948a5.067 5.067 0 1 1 10.134 0"/><g opacity=".6"><circle fill="#13D1BA" cx="32" cy="31.949" r="5.069"/><path fill="#0FAAA6" d="M28.416 35.533a5.068 5.068 0 1 1 7.167-7.169"/></g><circle fill="#F0FFFD" cx="29.964" cy="29.884" r="1.649"/><circle fill="#F0FFFD" cx="33.402" cy="33.04" r=".245"/><path fill="#F0FFFD" d="M35.474 34.655a.668.668 0 0 1-1.334 0 .666.666 0 0 1 1.334 0z"/><path fill="#4285B2" d="M48.929 10H15.071C12.155 10 10 12.149 10 15.062v33.881C10 51.851 12.155 54 15.071 54h33.857C51.844 54 54 51.851 54 48.942v-33.88C54 12.149 51.844 10 48.929 10zM49 20.613c0 .766-.621 1.387-1.387 1.387h-4.227A1.387 1.387 0 0 1 42 20.613v-4.227c0-.765.621-1.386 1.387-1.386h4.227c.765 0 1.386.621 1.386 1.387v4.226zM32.051 23.53c4.718 0 8.542 3.814 8.542 8.52 0 4.709-3.824 8.523-8.542 8.523-4.717 0-8.54-3.814-8.54-8.523 0-4.705 3.823-8.52 8.54-8.52zM50 48.655c0 .767-.579 1.345-1.345 1.345H15.344A1.315 1.315 0 0 1 14 48.655V28h5.507c-.723 1-.967 2.9-.967 4.132 0 7.436 6.062 13.442 13.511 13.442 7.451 0 13.514-5.986 13.514-13.422 0-1.231-.175-3.152-1.073-4.152H50v20.655z"/><path fill="#124568" d="M54 33.615V22.348l-5-5.551v4.099c0 .766-.966 1.104-1.731 1.104h-4.166c-.086 0-.171.214-.254.197L48.429 28H50v1.452l4 4.163z"/><path fill="#2A5B83" d="M25.533 26.55a8.532 8.532 0 0 1 6.518-3.02c4.718 0 8.542 3.814 8.542 8.52a8.512 8.512 0 0 1-3.042 6.519l3.507 3.505c2.759-2.471 4.507-5.958 4.507-9.941C45.564 30.9 45.39 29 44.491 28H50v20.655c0 .654-.432 1.199-1.037 1.346l4.07 4.099C54.802 53.503 55 51.382 55 48.942v-33.88C55 12.149 51.844 9 48.929 9H15.071c-2.449 0-4.503.184-5.098 1.952l15.56 15.598zM49 20.613c0 .766-.621 1.387-1.387 1.387h-4.007C42.841 22 42 21.379 42 20.613v-4.227c0-.765.841-1.386 1.606-1.386h4.007c.766 0 1.387.621 1.387 1.387v4.226z"/></svg>