<svg xmlns="http://www.w3.org/2000/svg" width="64" height="64" viewBox="0 0 64 64" xml:space="preserve"><path fill="#84BF31" d="M59.482 29.289c-7.094-7.028-14.188-14.053-21.276-21.082-1.035-1.01-2.01-2.16-3.38-2.738-1.356-.639-2.933-.731-4.391-.423-1.277.291-2.431.983-3.353 1.896-7.975 7.901-15.951 15.804-23.93 23.702-.919.907-1.635 2.043-1.928 3.304-.656 2.269.166 4.813 1.846 6.449 5.623 5.571 11.251 11.136 16.873 16.711a6.731 6.731 0 0 0 4.822 1.986c4.601.027 9.197-.004 13.795.015 2.068.132 4.162-.602 5.627-2.07 5.094-5.032 10.174-10.082 15.268-15.117.83-.834 1.729-1.613 2.405-2.581 1.239-1.771 1.446-4.156.722-6.161-.566-1.611-1.926-2.722-3.1-3.891zm-39.823 8.972c-.867 1.021-2.391.751-3.562.57a18.74 18.74 0 0 1-2.812-2.784c-.481-.563.137-1.147.52-1.544 5.246-5.175 10.474-10.372 15.71-15.553.702-.68 1.342-1.435 2.132-2.015.681-.339 1.205.391 1.657.778.965 1.017 2.055 1.919 2.938 3.007.454.54-.045 1.165-.444 1.552-5.385 5.324-10.774 10.648-16.139 15.989zm16.509 12.26c-.837.933-1.712 1.847-2.692 2.627-.902.215-1.863.165-2.776.036-.876-.441-1.47-1.285-2.188-1.936-.513-.493-1.312-1.235-.655-1.946a50.578 50.578 0 0 1 3.533-3.505c.457-.384 1.142-.193 1.512.221a120.15 120.15 0 0 1 3.103 3.08c.396.352.617 1.019.163 1.423zm-.314-13.964c-2.987 2.954-5.985 5.905-8.956 8.88-.833 1.014-2.304.693-3.444.599-1.104-.701-1.959-1.74-2.846-2.688-.59-.553-.036-1.278.417-1.695 2.993-2.951 5.981-5.903 8.956-8.87.541-.522 1.032-1.125 1.689-1.523.659-.28 1.141.384 1.576.757.995 1.055 2.128 1.984 3.035 3.113.401.504-.063 1.069-.427 1.427z"/><path fill="#84BF31" d="M59.482 29.289c-7.094-7.028-14.188-14.053-21.276-21.082-1.035-1.01-2.01-2.16-3.38-2.738-1.356-.639-2.933-.731-4.391-.423-1.277.291-2.431.983-3.353 1.896-7.975 7.901-15.951 15.804-23.93 23.702-.919.907-1.635 2.043-1.928 3.304-.656 2.269.166 4.813 1.846 6.449 5.623 5.571 11.251 11.136 16.873 16.711a6.731 6.731 0 0 0 4.822 1.986c4.601.027 9.197-.004 13.795.015 2.068.132 4.162-.602 5.627-2.07 5.094-5.032 10.174-10.082 15.268-15.117.83-.834 1.729-1.613 2.405-2.581 1.239-1.771 1.446-4.156.722-6.161-.566-1.611-1.926-2.722-3.1-3.891zm-39.823 8.972c-.867 1.021-2.391.751-3.562.57a18.74 18.74 0 0 1-2.812-2.784c-.481-.563.137-1.147.52-1.544 5.246-5.175 10.474-10.372 15.71-15.553.702-.68 1.342-1.435 2.132-2.015.681-.339 1.205.391 1.657.778.965 1.017 2.055 1.919 2.938 3.007.454.54-.045 1.165-.444 1.552-5.385 5.324-10.774 10.648-16.139 15.989zm16.509 12.26c-.837.933-1.712 1.847-2.692 2.627-.902.215-1.863.165-2.776.036-.876-.441-1.47-1.285-2.188-1.936-.513-.493-1.312-1.235-.655-1.946a50.578 50.578 0 0 1 3.533-3.505c.457-.384 1.142-.193 1.512.221a120.15 120.15 0 0 1 3.103 3.08c.396.352.617 1.019.163 1.423zm-.314-13.964c-2.987 2.954-5.985 5.905-8.956 8.88-.833 1.014-2.304.693-3.444.599-1.104-.701-1.959-1.74-2.846-2.688-.59-.553-.036-1.278.417-1.695 2.993-2.951 5.981-5.903 8.956-8.87.541-.522 1.032-1.125 1.689-1.523.659-.28 1.141.384 1.576.757.995 1.055 2.128 1.984 3.035 3.113.401.504-.063 1.069-.427 1.427z"/><path fill="#72AA11" d="M28.512 55.769c.718.651 1.312 1.495 2.188 1.935.913.13 1.874.18 2.776-.034.98-.779 1.855-1.694 2.692-2.628.454-.404.233-1.07-.164-1.421-.474-.49-.967-.959-1.448-1.439-.352.333-.703.667-1.08.967-.902.215-1.863.165-2.776.036-.485-.244-.883-.614-1.265-1.005a49.829 49.829 0 0 0-1.578 1.644c-.658.711.142 1.451.655 1.945z"/><path fill="#A1E03D" d="M3.153 35.167c7.979-7.899 15.955-15.802 23.93-23.704.922-.912 2.075-1.605 3.353-1.895 1.458-.31 3.034-.218 4.391.422 1.37.577 2.345 1.728 3.38 2.738 7.088 7.028 14.183 14.053 21.276 21.081 1.174 1.171 2.533 2.28 3.101 3.892.014.043.023.088.039.134a7.07 7.07 0 0 0-.039-4.655c-.567-1.61-1.927-2.722-3.101-3.891-7.094-7.028-14.188-14.053-21.276-21.082-1.035-1.01-2.01-2.16-3.38-2.738-1.356-.639-2.933-.731-4.391-.423-1.277.291-2.431.983-3.353 1.896-7.975 7.901-15.951 15.804-23.93 23.702-.919.907-1.635 2.043-1.928 3.304-.369 1.281-.256 2.644.203 3.888a7.14 7.14 0 0 1 1.725-2.669z"/><path fill="#72AA11" d="M36.282 39.651c-.521-.651-1.117-1.233-1.72-1.812-2.56 2.527-5.122 5.053-7.664 7.598-.833 1.014-2.304.693-3.444.599-.455-.291-.864-.646-1.256-1.021-.393.387-.781.773-1.173 1.16-.453.416-1.007 1.142-.417 1.696.887.945 1.742 1.984 2.846 2.686 1.141.096 2.611.416 3.444-.599 2.971-2.975 5.969-5.926 8.956-8.88.364-.358.828-.924.428-1.427zm-22.997.916a18.645 18.645 0 0 0 2.812 2.784c1.171.181 2.694.45 3.562-.57 5.365-5.342 10.754-10.665 16.139-15.988.399-.387.898-1.011.444-1.55-.511-.628-1.088-1.194-1.671-1.755-4.976 4.918-9.955 9.836-14.912 14.772-.867 1.021-2.391.751-3.562.57-.386-.306-.745-.646-1.106-.985l-1.187 1.178c-.382.397-1 .983-.519 1.544z"/></svg>