<svg xmlns="http://www.w3.org/2000/svg" width="64" height="64" viewBox="0 0 64 64" xml:space="preserve"><path fill="#6A8DA0" d="M32.105 36h-.211L24.259 7H1v8h2.383C4.363 15 6 16.004 6 16.846v30.473C6 48.16 4.363 49 3.383 49H1v8h19v-8h-5V17h.223L25.94 57h8.406l10.859-40H45v32h-4v8h22v-8h-2.452C59.639 49 58 48.16 58 47.318V16.846C58 16.004 59.639 15 60.548 15H63V7H39.812l-7.707 29z"/><path d="M15 19.802c-3-.577-7-1.321-9-2.202v29.719C6 48.16 4.363 49 3.383 49H1v8h19v-8h-5V19.802zm43 27.516V17.6c-4 1.193-8 2.13-13 2.75V49h-4v8h22v-8h-2.452C59.639 49 58 48.16 58 47.318zM36.103 21.195 32.105 36h-.211l-3.96-14.805c-4.192-.157-8.076-.34-11.842-.948L25.94 57h8.406l9.837-36.251c-2.642.317-5.255.339-8.08.446z" fill="#45687F"/><path d="M15 29.889c-3-.812-7-1.857-9-3.099v20.528C6 48.16 4.363 49 3.383 49H1v8h19v-8h-5V29.889zm18.196 2.026L32.105 36h-.211l-1.08-4.085c-4.145-.063-8.047-.171-11.823-.852L25.94 57h8.406l6.927-25.527c-2.629.326-5.293.4-8.077.442zM58 47.318V26.789c-3 1.678-8 2.997-13 3.869V49h-4v8h22v-8h-2.452C59.639 49 58 48.16 58 47.318z"/></svg>