<svg xmlns="http://www.w3.org/2000/svg" width="64" height="64" viewBox="0 0 64 64" xml:space="preserve"><path fill="#002F83" d="M22.091 37.551C22.306 36.21 23.465 35 24.833 35h5.701c11.206 0 19.976-4.294 22.538-17.353l.2-1.02c.728-4.831-.006-8.043-2.637-11.017C47.737 2.335 42.503 1 35.804 1H16.367c-1.371 0-2.536.976-2.752 2.315L5.521 54.164C5.36 55.169 6.145 56 7.171 56h12.001l3.013-19.004-.094.555z"/><path d="M50.635 5.652c-.827-.936-1.863-1.701-3.053-2.342L7.193 43.7l-1.504 9.471L51.741 7.12a12.736 12.736 0 0 0-1.106-1.468zM30.091 1h-9.903l-7.376 7.36-1.87 11.783zM14.144 56h5.028l.95-5.977zm21.479-21.336c8.956-1.17 15.169-5.413 17.368-16.617.042-.22.146-.692.189-.94L35.623 34.664z" fill="#0B479E"/><path fill="#1558BA" d="M13.615 6.149C13.831 4.809 14.996 4 16.367 4h19.437c6.699 0 11.934 1.224 14.831 4.499 1.738 1.967 2.634 3.989 2.842 6.583.31-3.903-.437-6.741-2.911-9.527C47.662 2.285 42.503 1 35.804 1H16.367c-1.371 0-2.536.976-2.752 2.315l-8.094 50.92c-.066.417.059.755.266 1.08l7.828-49.166z"/><path d="M48.555 33.114a20.748 20.748 0 0 1-2.477 1.843l6.332 6.332a15.382 15.382 0 0 0 2.069-2.252l-5.924-5.923zM27.173 39h-1.754l-.351 2.153 8.989 8.956.253-1.604.123-.67c.07-.441.259-.78.53-1.105L27.173 39zm6.639-.21c-1.063.087-2.148.21-3.278.21h-.896l6.941 6.981c.085-.008.168.019.256.019h1.515c.827 0 1.633-.113 2.428-.172l-6.966-7.038zm20.504-13.485a24.359 24.359 0 0 1-1.5 2.821l4.665 4.664a26.8 26.8 0 0 0 .584-2.372c.079-.398.134-.785.192-1.173l-3.941-3.94zM23.809 49.08l-.589 3.731 8.859 8.859c.104-.212.187-.437.226-.68l.099-.513.385-2.419-8.98-8.978zm31.234-25.515 3.441 3.442c.078-1.826-.136-3.487-.651-4.972l-1.786-1.786a31.264 31.264 0 0 1-1.004 3.316zm-3.213 6.039a20.996 20.996 0 0 1-2.001 2.321l5.634 5.632c.526-.888.991-1.865 1.399-2.922l-5.032-5.031zm-7.328 6.243a23.75 23.75 0 0 1-3.02 1.299l6.8 6.8a16.368 16.368 0 0 0 2.762-1.559l-6.542-6.54zM21.958 60.773 21.607 63h2.58zm.925-5.834-.588 3.718L26.65 63h3.25c.315 0 .618-.05.896-.16l-7.913-7.901zm1.85-11.72-.588 3.731 8.982 8.982.593-3.727zm14.874-5.482c-1.141.312-2.333.56-3.577.742l6.962 6.963a22.46 22.46 0 0 0 3.501-.82l-6.886-6.885z" fill="#8F9FB5"/></svg>