<svg xmlns="http://www.w3.org/2000/svg" width="64" height="64" viewBox="0 0 64 64" xml:space="preserve"><path fill="#C6232C" d="M32.001 1.084c-17.07 0-30.918 13.84-30.918 30.918 0 12.654 7.615 23.533 18.512 28.314-.088-2.154-.016-4.752.533-7.102.598-2.508 3.979-16.842 3.979-16.842s-.988-1.977-.988-4.895c0-4.582 2.66-8.002 5.965-8.002 2.811 0 4.17 2.109 4.17 4.643 0 2.824-1.805 7.053-2.73 10.967-.773 3.285 1.645 5.957 4.881 5.957 5.857 0 9.801-7.523 9.801-16.436 0-6.775-4.562-11.846-12.863-11.846-9.377 0-15.219 6.99-15.219 14.799 0 2.699.791 4.596 2.035 6.064.574.68.652.949.443 1.727-.145.566-.488 1.939-.629 2.48-.207.781-.84 1.066-1.545.775-4.322-1.764-6.332-6.492-6.332-11.812 0-8.781 7.404-19.316 22.094-19.316 11.805 0 19.574 8.547 19.574 17.713 0 12.129-6.742 21.189-16.686 21.189-3.334 0-6.473-1.805-7.551-3.85 0 0-1.797 7.121-2.174 8.496-.654 2.381-1.938 4.766-3.111 6.621a30.84 30.84 0 0 0 8.76 1.268c17.074 0 30.916-13.842 30.916-30.914-.001-17.076-13.843-30.916-30.917-30.916z"/><path fill="#890A1C" d="M24.106 36.373s-.988-1.977-.988-4.895c0-4.582 2.66-8.002 5.965-8.002 2.811 0 4.17 2.109 4.17 4.643 0 2.824-1.805 7.053-2.73 10.967-.773 3.285 1.645 5.957 4.881 5.957 5.857 0 9.801-7.523 9.801-16.436 0-6.775-4.562-11.846-12.863-11.846-9.377 0-15.219 6.99-15.219 14.799 0 2.699.791 4.596 2.035 6.064.574.68.652.949.443 1.727-.145.566-.488 1.939-.629 2.48-.207.781-.84 1.066-1.545.775a8.765 8.765 0 0 1-1.895-1.074l5.951 5.952c1.17-4.949 2.623-11.111 2.623-11.111z"/><path fill="#700318" d="M48.253 17.605c-.251-.047-1.074-1.062-1.328-1.116 3.706 3.315 5.838 7.917 5.838 12.702 0 12.129-6.742 21.189-16.686 21.189-3.334 0-6.473-1.805-7.551-3.85 0 0-.957 3.793-1.621 6.377l9.67 9.669c14.904-2.21 26.342-15.058 26.342-30.575 0-.044-.003-.086-.004-.131l-14.66-14.265z"/><path fill="#680719" d="m31.533 24.215-.101-.101-.025.024c.041.028.087.049.126.077z"/><path fill="#700318" d="M44.003 36.686 32.329 25.01c.611.829.924 1.918.924 3.109 0 2.824-1.805 7.053-2.73 10.967-.773 3.285 1.645 5.957 4.881 5.957 3.941 0 7.009-3.414 8.599-8.357z"/><path fill="#890A1C" d="M42.864 60.949 30.649 48.732c-.855-.572-1.533-1.252-1.971-1.971l-.168-.168c-.159.631-1.8 7.125-2.158 8.434-.654 2.381-1.938 4.766-3.111 6.621a30.84 30.84 0 0 0 8.76 1.268c3.824 0 7.482-.699 10.863-1.967z"/><path fill="#E2102E" d="M3.208 34.127c0-17.078 13.848-30.918 30.918-30.918a30.8 30.8 0 0 1 20.771 8.018C49.241 4.996 41.079 1.084 32.001 1.084c-17.07 0-30.918 13.84-30.918 30.918 0 9.008 3.871 17.103 10.025 22.752a30.776 30.776 0 0 1-7.9-20.627z"/></svg>