<svg xmlns="http://www.w3.org/2000/svg" width="64" height="64" viewBox="0 0 64 64" xml:space="preserve"><circle fill="#2364CE" cx="32" cy="31.999" r="30"/><circle fill="#2364CE" cx="32" cy="31.999" r="30"/><path fill="#074AAA" d="M53.214 10.787c11.717 11.716 11.715 30.709 0 42.425-11.717 11.717-30.711 11.718-42.427.001"/><path fill="#3981EA" d="M4.334 34.332c0-16.568 13.432-29.999 30-29.999 7.688 0 14.7 2.896 20.009 7.651C48.851 5.857 40.877 2 32 2 15.432 2 2 15.431 2 31.999c0 8.88 3.86 16.856 9.991 22.349a29.889 29.889 0 0 1-7.657-20.016z"/><path fill="#C8D8E8" d="M23.803 16.229c-2.595 0-5.313.053-6.993.132-.21 0-.81.132-.81.316v27.886c0 .237.132.437.342.437h4.294c.236 0 .364-.288.364-.499v-9.624c1 0 1.102.054 2.098.054 5.922 0 10.769-2.876 10.769-9.575-.001-5.119-2.805-9.127-10.064-9.127zm-.615 14.507c-1.05 0-1.188 0-2.188-.053v-10.18c1-.027 1.534-.081 2.581-.081 3.485 0 5.556 1.688 5.556 5.04 0 4.193-2.883 5.274-5.949 5.274z"/><path fill="#FFF" d="M44.138 32.53c-2.779-1.451-3.248-2.11-3.248-3.061 0-.869.705-1.925 2.776-1.925 1.702 0 3.596.447 4.75 1.187.262.081.584-.052.584-.262v-3.614c0-.185-.244-.396-.455-.527-.863-.396-2.529-.738-4.783-.738-4.586 0-7.28 2.822-7.28 6.225 0 3.034 1.522 4.854 5.243 6.646 2.646 1.371 3.236 2.217 3.236 3.165 0 1.188-.869 2.059-2.939 2.059-1.73 0-3.837-.476-5.487-1.557-.184-.133-.535-.054-.535.209v3.879c0 .211.241.342.425.421 1.128.661 3.202 1.135 5.482 1.135 4.321 0 7.573-2.269 7.573-6.488 0-2.824-1.228-4.749-5.342-6.754z"/><path fill="#FFF" d="M44.138 32.53c-2.779-1.451-3.248-2.11-3.248-3.061 0-.869.705-1.925 2.776-1.925 1.702 0 3.596.447 4.75 1.187.262.081.584-.052.584-.262v-3.614c0-.185-.244-.396-.455-.527-.863-.396-2.529-.738-4.783-.738-4.586 0-7.28 2.822-7.28 6.225 0 3.034 1.522 4.854 5.243 6.646 2.646 1.371 3.236 2.217 3.236 3.165 0 1.188-.869 2.059-2.939 2.059-1.73 0-3.837-.476-5.487-1.557-.184-.133-.535-.054-.535.209v3.879c0 .211.241.342.425.421 1.128.661 3.202 1.135 5.482 1.135 4.321 0 7.573-2.269 7.573-6.488 0-2.824-1.228-4.749-5.342-6.754zM16.81 17.693c1.68-.079 4.282-.132 6.877-.132 6.898 0 9.849 3.623 10.12 8.375.01-.194.056-.38.056-.581 0-5.118-2.815-9.127-10.074-9.127-2.595 0-5.306.053-6.985.132-.211 0-.803.132-.803.316v1.333c-.001-.185.599-.316.809-.316zm6.378 14.376c3.065 0 5.98-1.081 5.98-5.274 0-.185-.015-.344-.026-.52-.355 3.52-3.106 4.461-5.962 4.461-1.05 0-1.181 0-2.181-.053v1.333c1.001.053 1.14.053 2.189.053z"/><path d="M44.138 32.53c-2.057-1.073-2.846-1.714-3.117-2.359-.195-.597-.153-.572-.153-.367 0 .95.491 2.608 3.271 4.06 3.771 1.838 5.098 3.744 5.304 6.201.018-.213.039-.559.039-.781-.002-2.824-1.23-4.749-5.344-6.754zm-7.607 8.93c1.65 1.081 3.646 1.557 5.376 1.557 2.07 0 2.987-.871 2.987-2.059 0-.221.012-.368-.071-.584-.37.783-1.174 1.31-2.821 1.31-1.73 0-3.827-.476-5.478-1.557-.183-.132-.524-.053-.524.21v1.333c0-.264.348-.342.531-.21zm7.135-16.538c2.254 0 4.016.342 4.879.738.211.131.455.343.455.528v-1.333c0-.185-.244-.396-.455-.527-.863-.396-2.529-.738-4.783-.738-4.586 0-7.28 2.822-7.28 6.225 0 .22.003.418.019.624.343-3.078 2.902-5.517 7.165-5.517z" fill="#C8D8E8"/></svg>