<svg xmlns="http://www.w3.org/2000/svg" width="64" height="64" viewBox="0 0 64 64" xml:space="preserve"><path fill="#044982" d="M28 50c0 2.211-1.789 4-4 4H12c-2.21 0-4-1.789-4-4V14a4 4 0 0 1 4-4h12c2.211 0 4 1.791 4 4v36zm28-16c0 2.211-1.789 4-4 4H40c-2.21 0-4-1.789-4-4V14a4 4 0 0 1 4-4h12c2.211 0 4 1.791 4 4v20z"/><path fill="#2490C6" d="M56 15.34V14c0-2.209-1.789-4-4-4H40a4 4 0 0 0-4 4v20c0 1.578.921 2.929 2.247 3.58C47.892 32.234 54.308 23.775 56 15.34z"/><path fill="#0E6BA5" d="M56 15.34V14c0-2.209-1.789-2-4-2H40c-2.21 0-4-.209-4 2v20c0 1.578.921 2.929 2.247 3.58C47.892 32.234 54.308 23.775 56 15.34z"/><path fill="#2490C6" d="M28 41.604V14c0-2.209-1.789-4-4-4H12a4 4 0 0 0-4 4v26.438c5.688 2.458 12.779 2.917 20 1.166z"/><path fill="#0E6BA5" d="M28 41.604V14c0-2.209-1.789-2-4-2H12c-2.21 0-4-.209-4 2v26.438c5.688 2.458 12.779 2.917 20 1.166z"/></svg>