<svg xmlns="http://www.w3.org/2000/svg" width="64" height="64" viewBox="0 0 64 64" xml:space="preserve"><path fill="#FFEB5A" d="M61.542 45.872c-8.221-1.352-11.924-9.775-12.076-10.132l-.035-.071c-.42-.85-.516-1.553-.289-2.089.449-1.054 2.172-1.599 3.309-1.96.332-.104.643-.202.902-.303 1.121-.442 1.924-.922 2.453-1.467.633-.648.754-1.271.746-1.677-.02-.984-.773-1.859-1.975-2.288a3.522 3.522 0 0 0-1.338-.255c-.32 0-.795.044-1.244.253-.963.449-1.826.693-2.564.729a2.37 2.37 0 0 1-.848-.187c.021-.385.047-.778.074-1.189l.01-.176c.264-4.162.592-9.342-.785-12.418-.941-2.105-2.205-3.916-3.76-5.386-1.305-1.231-2.818-2.137-4.502-2.875C36.69 3.101 33.958 3 32.591 3h-.152c-.379 0-1.167-.11-1.222-.11-1.365 0-3.934.177-6.868 1.469-1.676.737-3.186 1.713-4.484 2.943-1.547 1.465-2.974 3.26-3.912 5.358-1.375 3.075-.953 8.239-.953 12.4v.006c0 .444.224.91.251 1.363-.203.092-.445.189-.927.189-.775 0-1.656-.247-2.699-.734a2.357 2.357 0 0 0-1.022-.213c-.619 0-1.263.182-1.832.514-.715.419-1.171 1.009-1.296 1.664-.082.433-.075 1.291.878 2.158.525.477 1.298.917 2.292 1.311.262.101.571.2.901.303 1.137.361 2.861.906 3.311 1.962.229.534.131 1.237-.289 2.088a1.444 1.444 0 0 0-.033.07c-.105.244-1.084 2.458-3.096 4.793-1.141 1.326-2.398 2.437-3.736 3.296a13.733 13.733 0 0 1-5.248 2.044 1.435 1.435 0 0 0-1.203 1.498c.01.21.062.421.146.625l.002.005c.295.684.977 1.266 2.082 1.78 1.355.626 3.377 1.153 6.016 1.567.133.251.271.887.367 1.321.1.462.205.937.354 1.441.16.547.578 1.2 1.648 1.2.406 0 .875-.09 1.414-.195.791-.155 1.875-.367 3.227-.367.748 0 1.527.066 2.309.196 1.508.249 2.805 1.165 4.309 2.225 2.201 1.552 4.689 3.306 8.496 3.306.104 0 .207-.002.311-.011.125.006.281.011.445.011 3.807 0 6.297-1.756 8.494-3.306l.004-.003c1.502-1.059 2.801-1.973 4.307-2.222.781-.13 1.559-.196 2.309-.196 1.291 0 2.312.032 3.227.209.594.118 1.057.042 1.413.042h.07c.783 0 1.359-.296 1.58-1.047.145-.494.25-.893.352-1.362.09-.406.232-1.025.365-1.282 2.641-.413 4.662-.922 6.018-1.55 1.104-.511 1.783-1.084 2.078-1.766.09-.204.141-.412.152-.627a1.43 1.43 0 0 0-1.205-1.494z"/><path fill="#FCDF31" d="M15 25v.065c0 .444.224.91.251 1.363-.203.092-.445.189-.927.189-.775 0-1.656-.247-2.699-.734a2.357 2.357 0 0 0-1.022-.213c-.619 0-1.263.182-1.832.514-.715.419-1.171 1.009-1.296 1.664-.082.433-.075 1.291.878 2.158.525.477 1.298.917 2.292 1.311.262.101.571.2.901.303 1.137.361 2.861.906 3.311 1.962.229.534.131 1.237-.289 2.088a1.444 1.444 0 0 0-.033.07c-.105.244-1.084 2.458-3.096 4.793-1.141 1.326-2.398 2.437-3.736 3.296a13.733 13.733 0 0 1-5.248 2.044 1.435 1.435 0 0 0-1.203 1.498c.01.21.062.421.146.625l.002.005c.295.684.977 1.266 2.082 1.78 1.355.626 3.377 1.153 6.016 1.567.133.251.271.887.367 1.321.1.462.205.937.354 1.441.16.547.578 1.2 1.648 1.2.406 0 .875-.09 1.414-.195.791-.155 1.875-.367 3.227-.367.748 0 1.527.066 2.309.196 1.508.249 2.805 1.165 4.309 2.225 2.201 1.552 4.689 3.306 8.496 3.306.104 0 .207-.002.311-.011.125.006.281.011.445.011 3.807 0 6.297-1.756 8.494-3.306l.004-.003c1.502-1.059 2.801-1.973 4.307-2.222.781-.13 1.559-.196 2.309-.196 1.291 0 2.312.032 3.227.209.594.119 1.057.043 1.413.043h.07c.783 0 1.359-.296 1.58-1.047.145-.494.25-.893.352-1.362.09-.406.232-1.025.365-1.282 2.641-.413 4.662-.922 6.018-1.55 1.104-.511 1.783-1.084 2.078-1.766.09-.204.141-.412.152-.627a1.433 1.433 0 0 0-1.205-1.495c-8.221-1.352-11.924-9.774-12.076-10.131l-.035-.071c-.42-.85-.516-1.553-.289-2.089.449-1.054 2.172-1.598 3.309-1.959.332-.104.643-.202.902-.303 1.121-.442 1.924-.922 2.453-1.467.633-.648.754-1.271.746-1.677-.02-.984-.773-1.859-1.975-2.288a3.522 3.522 0 0 0-1.338-.255c-.32 0-.795.044-1.244.253-.963.449-1.826.693-2.564.729a2.37 2.37 0 0 1-.848-.187c.021-.385.047-.778.074-1.189l.01-.176c.264-4.162.592-9.342-.785-12.418-.941-2.105-2.205-3.916-3.76-5.386-1.305-1.231-2.818-2.137-4.502-2.875C36.69 3.101 33.958 3 32.591 3h-.152c-.379 0-1.167-.11-1.222-.11"/><path fill="#F4C811" d="M61.542 45.872c-8.221-1.352-11.924-9.775-12.076-10.132l-.035-.071c-.42-.85-.516-1.553-.289-2.089.449-1.054 2.172-1.599 3.309-1.96.332-.104.643-.202.902-.303 1.121-.442 1.924-.922 2.453-1.467.633-.648.754-1.271.746-1.677-.02-.984-.773-1.859-1.975-2.288a3.522 3.522 0 0 0-1.338-.255c-.32 0-.795.044-1.244.253-.963.449-1.826.693-2.564.729a2.37 2.37 0 0 1-.848-.187c.021-.385.047-.778.074-1.189l.01-.176c.264-4.162.592-9.342-.785-12.418-.941-2.105-2.205-3.916-3.76-5.386-1.305-1.231-2.818-2.137-4.502-2.875C36.69 3.101 33.958 3 32.591 3h-.152c-.379 0-1.191-.08-1.246-.08L31 3.188v57.274c0 .002.349.014.433.014.104 0 .301-.002.405-.011.125.006.329.011.493.011 3.807 0 6.321-1.756 8.518-3.306l.016-.003c1.502-1.059 2.807-1.973 4.312-2.222.781-.13 1.562-.196 2.312-.196 1.291 0 2.314.032 3.228.209.595.118 1.059.042 1.415.042h.07c.783 0 1.359-.296 1.58-1.047.145-.494.25-.893.352-1.362.09-.406.232-1.025.365-1.282 2.641-.413 4.662-.922 6.018-1.55 1.104-.511 1.783-1.084 2.078-1.766.09-.204.141-.412.152-.627a1.43 1.43 0 0 0-1.205-1.494z"/><path fill="#F4C811" d="M61.542 45.872c-8.221-1.352-11.924-9.775-12.076-10.132l-.035-.071c-.42-.85-.516-1.553-.289-2.089.449-1.054 2.172-1.599 3.309-1.96.332-.104.643-.202.902-.303 1.121-.442 1.924-.922 2.453-1.467.633-.648.754-1.271.746-1.677-.02-.984-.773-1.859-1.975-2.288a3.522 3.522 0 0 0-1.338-.255c-.32 0-.795.044-1.244.253-.963.449-1.826.693-2.564.729a2.37 2.37 0 0 1-.848-.187c.021-.385.047-.778.074-1.189l.01-.176c.264-4.162.592-9.342-.785-12.418-.941-2.105-2.205-3.916-3.76-5.386-1.305-1.231-2.818-2.137-4.502-2.875-2.93-1.281-5.784-1.462-7.151-1.462L32.354 3C32.3 3 33 2.912 32 2.912c0 0 1 .008 0 .008l-1-.03v57.572c0 .002.349.014.433.014.104 0 .301-.002.405-.011.125.006.329.011.493.011 3.807 0 6.321-1.756 8.518-3.306l.016-.003c1.502-1.059 2.807-1.973 4.312-2.222.781-.13 1.562-.196 2.312-.196 1.291 0 2.314.032 3.228.209.595.118 1.059.042 1.415.042h.07c.783 0 1.359-.296 1.58-1.047.145-.494.25-.893.352-1.362.09-.406.232-1.025.365-1.282 2.641-.413 4.662-.922 6.018-1.55 1.104-.511 1.783-1.084 2.078-1.766.09-.204.141-.412.152-.627a1.43 1.43 0 0 0-1.205-1.494z"/><circle fill="#FCDF31" cx="16.473" cy="59.597" r="1.583"/><circle fill="#EFAB00" cx="10.889" cy="58.681" r=".833"/><circle fill="#FCDF31" cx="7.472" cy="52.765" r=".75"/><circle fill="#FCDF31" cx="6.64" cy="57.765" r=".75"/><circle fill="#F4C811" cx="45.306" cy="59.431" r="1.25"/><circle fill="#F4C811" cx="47.723" cy="56.681" r=".333"/><circle fill="#F4C811" cx="50.89" cy="58.681" r=".5"/><circle fill="#EFAB00" cx="55.139" cy="57.931" r=".917"/><circle fill="#F4C811" cx="56.722" cy="53.181" r=".5"/><circle fill="#F4C811" cx="61.306" cy="54.597" r=".584"/><circle fill="#F4C811" cx="19.722" cy="56.849" r=".5"/><circle fill="#F4C811" cx="23.223" cy="60.015" r=".833"/><path d="M54.978 42.867c-3.667-2.94-5.408-6.886-5.512-7.127l-.035-.071c-.42-.85-.516-1.553-.289-2.089.307-.721 1.209-1.2 2.113-1.548-7.068 2.586-2.406 7.842 2.633 10.316.381.186.732.35 1.09.519zm-7.319-26.645c-.58 7.158-1.571 9.59 1.062 10.252-.044-.017-.103-.031-.139-.047.021-.385.047-.778.074-1.189l.01-.176c.264-4.162.592-9.342-.785-12.418a17.807 17.807 0 0 0-1.59-2.835c.105 1.602 1.743 1.788 1.368 6.413zm-1.062 36.75c-2.385-.928-2.886 1.631-6.114 4.471.13-.092.263-.183.39-.272l.004-.003c1.502-1.059 2.801-1.973 4.307-2.222.781-.13 1.559-.196 2.309-.196 1.291 0 2.312.032 3.227.209.593.117 1.056.041 1.412.041h.07c.077 0 .143.109.215.101-1.385-.832-3.422-1.197-5.82-2.129zm7.902-1.63c2.641-.413 4.662-.938 6.018-1.566 1.104-.511 1.783-1.093 2.078-1.774.09-.204.141-.416.152-.632.005-.085-.021-.163-.031-.245a.76.76 0 0 0-.119.098c-1.812 1.75-3.7-.062-5.875-.062-2.144 0-2.307 2.326-2.312 4.408.03-.09.06-.171.089-.227z" fill="#EFAB00"/><path fill="#FFEB5A" d="M9.05 42.867c3.667-2.94 5.408-6.886 5.512-7.127l.035-.071c.42-.85.516-1.553.289-2.089-.307-.721-1.209-1.2-2.113-1.548 7.067 2.586 2.408 7.842-2.633 10.316-.381.186-.733.35-1.09.519z"/><path fill="#F4C811" d="M17.431 52.972c2.385-.928 2.886 1.631 6.114 4.471-.13-.092-.263-.183-.39-.272l-.004-.003c-1.502-1.059-2.801-1.973-4.307-2.222a14.125 14.125 0 0 0-2.309-.196c-1.291 0-2.312.032-3.227.209-.594.117-1.057.041-1.412.041h-.071c-.077 0-.143.109-.215.101 1.385-.832 3.422-1.197 5.821-2.129zm-7.903-1.63c-2.641-.413-4.662-.938-6.018-1.566-1.104-.511-1.783-1.093-2.078-1.774a1.784 1.784 0 0 1-.152-.632c-.006-.085.021-.163.031-.245a.679.679 0 0 1 .119.098c1.812 1.75 3.7-.062 5.875-.062 2.144 0 2.307 2.326 2.312 4.408a1.584 1.584 0 0 0-.089-.227z"/></svg>