<svg xmlns="http://www.w3.org/2000/svg" width="64" height="64" viewBox="0 0 64 64" xml:space="preserve"><path fill="#F7441C" d="M53.222 31.798a9.352 9.352 0 0 0-3.753.762c-.247-2.926-1.155-5.604-2.726-8.032a17.038 17.038 0 0 0-6.158-5.749c-2.539-1.402-5.281-2.105-8.223-2.105-1.271 0-2.364.156-3.653.467-.596.194-.709.799-.709 1.813v31.833c0 .116-.143.255-.055.409.088.155.124.264.299.322l25.052.029c2.674 0 4.944-.967 6.857-2.896 1.917-1.932 2.858-4.263 2.858-6.994 0-2.711-.959-5.03-2.876-6.963-1.912-1.93-4.223-2.896-6.913-2.896z"/><path fill="#F7441C" d="M53.222 31.798a9.352 9.352 0 0 0-3.753.762c-.247-2.926-1.155-5.604-2.726-8.032a17.038 17.038 0 0 0-6.158-5.749c-2.539-1.402-5.281-2.105-8.223-2.105-1.271 0-2.364.156-3.653.467-.596.194-.709.799-.709 1.813v31.833c0 .116-.143.255-.055.409.088.155.124.264.299.322l25.052.029c2.674 0 4.944-.967 6.857-2.896 1.917-1.932 2.858-4.263 2.858-6.994 0-2.711-.959-5.03-2.876-6.963-1.912-1.93-4.223-2.896-6.913-2.896z"/><path fill="#FF7639" d="M60.13 34.694c-1.913-1.931-4.218-2.896-6.908-2.896a9.352 9.352 0 0 0-3.753.762c-.247-2.926-1.155-5.604-2.726-8.032a17.038 17.038 0 0 0-6.158-5.749c-2.539-1.402-5.281-2.105-8.223-2.105-1.271 0-2.363.156-3.653.467-.463.153-.25.476-.354 1.128.758-.109.834-.081 1.585-.081 2.941 0 5.684.703 8.223 2.105a17.038 17.038 0 0 1 6.158 5.749c1.57 2.429 2.479 5.106 2.726 8.032a9.352 9.352 0 0 1 3.753-.762c2.69 0 4.995.966 6.908 2.896 1.917 1.933 2.87 4.252 2.87 6.963 0 2.731-.953 5.062-2.87 6.994-.224.227-.456.438-.691.637 1.131-.482 2.169-1.197 3.113-2.15C62.047 46.72 63 44.389 63 41.657c0-2.711-.953-5.03-2.87-6.963z"/><path fill="#F7441C" d="M4.107 34.636c-.576 0-1.071.211-1.485.63A2.107 2.107 0 0 0 2 36.802v8.485c0 .78.104 1.59.661 1.989.559.4 1.331.32 1.967.203.596-.116.892-.33 1.134-.643C6 46.524 6 46.009 6 45.287v-8.485c0-.604-.086-1.117-.5-1.536-.412-.419-.796-.63-1.393-.63z"/><path fill="#F4921E" d="M9.744 27.001c-.578 0-.893.209-1.305.629-.413.418-.439.922-.439 1.506v19.779c0 .564.016.988.411 1.272.392.282.809.425 1.424.425.635 0 1.165-.143 1.557-.425.397-.284.608-.708.608-1.272V29.136c0-.584-.268-1.088-.68-1.506-.416-.42-.98-.629-1.576-.629z"/><path fill="#F7441C" d="M16.409 29.605c-.599 0-1.229.214-1.651.643s-.758.945-.758 1.55V50s.165.703.569.984c.404.283 1.174.6 1.81.6.613 0 1.377-.16 1.771-.443.395-.282.85-.724.85-1.291V31.798c0-.604-.449-1.121-.863-1.55s-1.153-.643-1.728-.643z"/><path fill="#F4921E" d="M23.604 17.901c-.635-.157-1.163.028-1.778.557-.615.525-.826 1.268-.826 2.223v29.258c0 1.072.576 1.608 2 1.608s2-.536 2-1.608V20.681c0-1.639-.416-2.566-1.396-2.78z"/><path fill="#FF7639" d="M5.5 35.266c-.412-.419-.856-.63-1.453-.63-.576 0-1.041.211-1.455.63-.413.419-.592.931-.592 1.536v3.391c0-.604.209-1.117.622-1.536.414-.419.909-.63 1.485-.63.597 0 .98.211 1.393.63.414.418.5.931.5 1.535v-3.391c0-.604-.086-1.116-.5-1.535z"/><path fill="#FFB91D" d="M11.32 27.63a2.118 2.118 0 0 0-1.546-.629c-.578 0-.907.209-1.319.629-.413.418-.455.922-.455 1.506v3.391c0-.584.026-1.088.439-1.506.412-.42.817-.629 1.396-.629a2.08 2.08 0 0 1 1.53.629c.413.417.635.921.635 1.505v-3.391c0-.583-.268-1.087-.68-1.505z"/><path d="M14.244 49.85h-.001l.001.01zm3.893-19.602c-.414-.429-1.031-.643-1.606-.643-.599 0-1.289.214-1.712.643s-.819.945-.819 1.55v3.391c0-.604.335-1.121.758-1.55s.992-.643 1.59-.643c.576 0 1.345.214 1.758.643.414.428.894.945.894 1.549v-3.391c0-.604-.449-1.12-.863-1.549z" fill="#FF7639"/><path fill="#FFB91D" d="M23.604 17.901c-.635-.157-1.163.028-1.778.557-.615.525-.826 1.268-.826 2.223v3.391c0-.955.248-1.697.863-2.223.615-.528 1.136-.714 1.77-.557.981.214 1.367 1.141 1.367 2.779V20.68c0-1.638-.416-2.565-1.396-2.779z"/><path fill="#F4921E" d="m49.509 32.545-.04.015c-.247-2.926-1.155-5.604-2.726-8.032a17.038 17.038 0 0 0-6.158-5.749c-2.539-1.402-5.281-2.105-8.223-2.105-1.271 0-2.364.156-3.653.467-.596.194-.709.799-.709 1.813v31.833c0 .116-.143.255-.055.409.088.155.124.264.299.322l2.415.003c8.875-1.592 16.66-9.276 18.85-18.976z"/><path fill="#FFB91D" d="M28.709 19.319c1.289-.311 2.476-.467 3.746-.467 2.941 0 5.637.703 8.176 2.105 2.538 1.404 4.568 3.322 6.136 5.749a17.162 17.162 0 0 1 2.538 6.649c.071-.271.147-.539.21-.812-.013.005-.029.009-.043.015-.247-2.926-1.157-5.604-2.728-8.032a17.03 17.03 0 0 0-6.158-5.749c-2.539-1.402-5.282-2.105-8.224-2.105-1.271 0-2.363.156-3.653.467-.596.196-.709.801-.709 1.815v2.18c0-1.014.113-1.619.709-1.815z"/><circle fill="#F4921E" cx="52.619" cy="15.54" r="2.24"/><circle fill="#F4921E" cx="43.113" cy="15.116" r=".605"/><circle fill="#F4921E" cx="46.807" cy="18.567" r=".908"/><circle fill="#F7441C" cx="48.018" cy="13.239" r=".787"/><circle fill="#F7441C" cx="50.258" cy="21.292" r=".484"/><circle fill="#F7441C" cx="54.072" cy="20.747" r=".424"/><circle fill="#F7441C" cx="53.648" cy="27.226" r="2.422"/><circle fill="#FFB91D" cx="57.523" cy="17.901" r=".605"/><circle fill="#FFB91D" cx="57.887" cy="21.776" r=".605"/><circle fill="#FFB91D" cx="59.279" cy="25.833" r=".424"/><circle fill="#FFB91D" cx="60.611" cy="19.294" r=".787"/></svg>