<svg xmlns="http://www.w3.org/2000/svg" width="64" height="64" viewBox="0 0 64 64" xml:space="preserve"><path fill="#6D8599" d="M46.571 50.59c-1.133.551-3.196 1.033-4.813 1.074-4.873.133-5.758-3.5-5.758-6.133V26h12v-9H36V1h-9.077c-.148 0-.654.075-.69.409C25.711 6.261 24 14.719 14 18.123V26h7v20.49c0 6.961 4.857 16.852 18.123 16.617 4.477-.078 9.362-1.992 10.461-3.645l-3.013-8.872z"/><path fill="#32455C" d="M46.571 50.59c-1.133.551-3.196 1.033-4.813 1.074-4.873.133-5.758-3.5-5.758-6.133V26h12v-9H36V1h-9.077c-.148 0-.654.075-.69.409C25.489 8.309 27 15.533 14 18.123V26h8.222L21 46.179c0 6.961 4.689 17.123 17.954 16.889 4.477-.078 9.447-1.972 10.546-3.625l-2.929-8.853z"/><path fill="#1B2B3A" d="m49.5 59.463-2.929-8.873c-1.133.551-3.196 1.033-4.813 1.074-4.873.133-5.758-3.5-5.758-6.133V26h-.16l.115.028L21 41.234v5.256c0 3.334.99 7.339 3.648 10.584l2.137 2.22c2.882 2.35 6.854 3.908 12.211 3.813 4.477-.078 9.405-1.992 10.504-3.644z"/></svg>