<svg xmlns="http://www.w3.org/2000/svg" width="64" height="64" viewBox="0 0 64 64" xml:space="preserve"><path fill="#9165B7" d="M62.077 54.095c-.746 1.922-3.647 5.525-5.674 7.064-1.836 1.39-3.134 1.923-4.849 2.004-1.411.069-1.996-.051-3.8-.796-14.152-5.827-25.451-14.522-34.424-26.47-4.685-6.239-8.253-12.71-10.691-19.423-1.422-3.916-1.492-5.616-.324-7.62.505-.844 2.653-2.937 4.212-4.104 2.603-1.933 3.801-2.648 4.759-2.848.655-.142 1.795-.032 2.521.23.353.121.896.404 1.209.604 1.916 1.269 7.247 8.083 8.99 11.483.997 1.943 1.331 3.382 1.019 4.449-.321 1.147-.856 1.75-3.245 3.673-.958.774-1.855 1.57-1.996 1.781-.364.523-.657 1.549-.657 2.274.013 1.682 1.102 4.73 2.532 7.076 1.108 1.821 3.095 4.156 5.061 5.949 2.308 2.112 4.344 3.551 6.642 4.689 2.954 1.469 4.758 1.841 6.078 1.227.333-.15.686-.352.797-.442.102-.091.877-1.037 1.725-2.084 1.633-2.053 2.004-2.385 3.123-2.768 1.421-.482 2.871-.352 4.334.393 1.11.574 3.529 2.073 5.091 3.16 2.055 1.439 6.453 5.022 7.046 5.736 1.047 1.29 1.225 2.942.521 4.763z"/><path fill="#7B509C" d="M61.554 49.333c-.593-.714-4.991-4.296-7.046-5.736-1.562-1.087-3.98-2.586-5.091-3.16-1.463-.745-2.913-.875-4.334-.393-1.119.383-1.49.715-3.123 2.768-.848 1.047-1.623 1.993-1.725 2.084-.111.09-.464.292-.797.442-1.32.614-3.124.242-6.078-1.227-2.298-1.138-4.334-2.577-6.642-4.689-1.966-1.793-3.952-4.128-5.061-5.949-1.431-2.346-2.52-5.395-2.532-7.076 0-.725.293-1.75.657-2.274.057-.086.239-.269.499-.504-3.558 2.134-7.83 3.38-12.427 3.38-.118 0-.235-.008-.354-.01a81.37 81.37 0 0 0 5.829 8.909c8.973 11.948 20.271 20.643 34.424 26.47 1.804.745 2.389.866 3.8.796 1.715-.082 3.013-.615 4.849-2.004 2.026-1.539 4.928-5.142 5.674-7.064.705-1.822.527-3.474-.522-4.763z"/><path fill="#9165B7" d="M31.597 1.276c.475-.432.807-.493 2.45-.441.855.03 2.116.13 2.803.21 3.466.433 6.268 1.268 9.342 2.768 3.025 1.479 4.96 2.878 7.521 5.425 2.399 2.404 3.728 4.228 5.14 7.056 1.966 3.944 3.086 8.634 3.276 13.798.069 1.761.021 2.154-.383 2.657-.767.976-2.447.814-3.022-.282-.183-.362-.233-.674-.293-2.084-.103-2.163-.253-3.562-.554-5.233-1.189-6.552-4.335-11.786-9.354-15.54-4.184-3.14-8.508-4.67-14.172-5.002-1.915-.11-2.25-.181-2.682-.513-.808-.635-.848-2.124-.072-2.819z"/><path fill="#7B509C" d="M43.611 14.24c-2.026-1.208-5.021-2.105-7.751-2.326-.988-.08-1.532-.282-1.905-.715-.573-.654-.635-1.54-.149-2.274.522-.815 1.328-.947 3.738-.584 6.117.896 10.856 3.734 13.961 8.344 1.744 2.596 2.831 5.646 3.206 8.917.13 1.198.13 3.382-.011 3.744-.133.342-.556.806-.919.997-.392.201-1.229.182-1.691-.061-.776-.392-1.008-1.016-1.008-2.707 0-2.607-.676-5.355-1.845-7.488a15.293 15.293 0 0 0-5.626-5.847z"/><path fill="#5F3882" d="M47.02 27.655c-.596.544-1.693.564-2.36.05-.481-.362-.635-.745-.745-1.781-.133-1.379-.373-2.345-.787-3.24-.888-1.903-2.448-2.889-5.088-3.212-1.241-.15-1.613-.291-2.018-.764-.735-.876-.452-2.295.565-2.818.383-.19.544-.212 1.39-.161.525.03 1.301.121 1.715.211 1.986.423 3.506 1.177 4.807 2.396 1.674 1.581 2.592 3.493 2.994 6.24.271 1.791.159 2.496-.473 3.079zm14.534 21.678c-.593-.714-4.991-4.296-7.046-5.736-1.562-1.087-3.98-2.586-5.091-3.16-1.463-.745-2.913-.875-4.334-.393-1.119.383-1.49.715-3.123 2.768-.848 1.047-1.623 1.993-1.725 2.084-.105.086-.432.271-.751.419a37.015 37.015 0 0 1-8.747 7.696c5.154 3.692 10.811 6.8 17.018 9.355 1.804.745 2.389.866 3.8.796 1.715-.082 3.013-.615 4.849-2.004 2.026-1.539 4.928-5.142 5.674-7.064.703-1.82.525-3.472-.524-4.761z"/></svg>