<svg xmlns="http://www.w3.org/2000/svg" width="64" height="64" viewBox="0 0 64 64" xml:space="preserve"><path fill="#1CB1E6" d="M53.947 5.532c-8.618-.278-14.452 4.492-17.513 14.304 1.57-.649 3.103-.959 4.586-.959 3.148 0 4.537 1.731 4.166 5.216-.189 2.115-1.572 5.183-4.166 9.22-2.596 4.031-4.543 6.045-5.837 6.045-1.671 0-3.194-3.109-4.587-9.346-.463-1.834-1.302-6.509-2.493-14.034-1.118-6.967-4.085-10.227-8.898-9.763-2.04.191-5.099 2.021-9.167 5.506A858.283 858.283 0 0 1 1 19.692l2.917 3.72c2.785-1.93 4.399-2.895 4.863-2.895 2.128 0 4.119 3.303 5.979 9.911 1.669 6.039 3.332 12.098 5.005 18.156 2.498 6.604 5.555 9.896 9.165 9.896 5.835 0 12.978-5.409 21.405-16.235 8.144-10.352 12.367-18.511 12.635-24.48.375-7.973-2.64-12.056-9.022-12.233z"/><path d="M36.835 38.565c-1.228 1.095-1.873.833-1.391.833 1.294 0 3.431 0 8.644-6.086 3.123-3.644 3.977-7.104 4.167-9.22.371-3.485-1.018-5.216-4.167-5.216-.561 0-1.132.06-1.707.149 2.169.467 3.116 2.14 2.805 5.067-.189 2.115-1.572 5.183-4.166 9.22-1.66 2.583-3.055 4.327-4.185 5.253zM54.807 5.59c-.282-.024-.563-.051-.859-.059-8.618-.278-14.452 4.492-17.513 14.304a12.5 12.5 0 0 1 3.37-.886C42.652 10.585 47.649 6.13 54.807 5.59zM4.068 19.692a857.094 857.094 0 0 0 9.039-7.971c3.666-3.141 6.505-4.924 8.524-5.388a7.975 7.975 0 0 0-2.425-.118c-2.04.191-5.099 2.021-9.167 5.506A868.627 868.627 0 0 1 1 19.692l2.917 3.72m18.915 25.172c-1.674-6.059-3.337-12.117-5.004-18.156-1.86-6.607-6.673-9.95-8.801-9.95-.219 0 .303.061 1.371.701 1.528 1.263 2.981 4.343 4.362 9.25 1.669 6.039 3.332 12.098 5.005 18.156 2.498 6.604 5.555 9.896 9.165 9.896.556 0 1.129-.065 1.709-.164-3.025-.736-5.63-3.974-7.807-9.733z" fill="#1CDDF7"/></svg>