<svg width="36" height="36" xmlns="http://www.w3.org/2000/svg"><g fill="none"><circle fill="#000" cx="18" cy="18" r="18"/><path fill="#FFF" d="m10.667 20.519.74-5.566-6.425-4.46 5.871 1.988 1.387-2.127 5.062-3.141 11.16 6.148.578 9.38-4.972 6.909-3.93.602 2.033-3.72v-3.581l-1.478-2.797-1.501-.994-2.31 2.38v2.52l-1.802 1.688-2.29.277-1.014.574-1.664-.53-.693-2.496 1.248-1.755z"/><path d="M20.927 10.445c-1.224-.254-2.563-.186-2.563-.186s-.44 2.032-3.165 2.567c.02 0 3.6 1.224 5.728-2.381zm1.109 18.44c1.477-1.157 2.587-2.75 3.098-4.552.023-.067.23-.186.368-.277.23-.139.464-.253.507-.44.091-.53.139-1.085.139-1.64 0-.206-.21-.415-.416-.621-.163-.14-.325-.302-.325-.416a8.783 8.783 0 0 0-2.75-5.499l-.162.163c1.502 1.41 2.472 3.327 2.682 5.36.024.186.206.368.392.554.163.139.349.349.349.44a9.4 9.4 0 0 1-.139 1.592c-.023.091-.23.186-.392.277-.23.115-.44.23-.483.416a8.542 8.542 0 0 1-3.514 4.786c.301-.646 1.248-2.75 1.755-3.815l-.091-3.419-2.935-2.84-1.664.23-1.826 2.959s.855 1.085-.349 2.357c-1.176 1.248-2.103 1.525-2.103 1.525l-.856-.464c.253-.324.764-.808 1.157-1.132.67-.555 1.339-.603 1.339-1.2.027-1.253-1.316-.908-1.316-.908l-.487.464-.206 1.71-1.014 1.272-.115-.023-1.664-.369s1.019-.53 1.18-1.133c.163-.578-.324-2.495-.348-2.61.024.024.488.416.694 1.061.368-1.018.855-1.988.994-2.08.139-.09 2.008-1.085 2.008-1.085l-.622 1.64.464-.253 1.109-2.726s1.085-.53 1.893-.53c1.454-.024 3.605-1.803 2.635-4.992.277.115 5.082 2.52 5.914 7.234.622 3.624-1.434 7.02-4.9 8.984z" fill="#94A6C3"/><path d="M16.538 10.952c.53-.626.324-1.549.324-1.549l-1.548 2.29c-.024 0 .55.024 1.224-.74zm-5.202 12.502.187-.923s-.765 1.339-.832 1.525c-.072.21.047.579.344.555.301-.024.67-.464.67-.785 0-.416-.369-.372-.369-.372z" fill="#1B314F"/><path d="M25.062 8.757s1.157.048 2.357.187c-2.705-2.128-5.268-2.75-7.348-2.75-2.864 0-4.805 1.181-4.924 1.248l.903-1.434s-3.604-.348-4.876 3.466c-.325-.808-.622-1.988-.622-1.988s-1.874 1.644-.994 4.37c-2.151-.785-5.221-1.874-5.34-1.894-.163-.024-.21.047-.21.047s-.048.068.091.186c.257.202 5.11 3.787 6.176 4.48-.23.833-.23 1.225 0 1.617.325.53.344.808.3 1.2-.047.392-.463 3.791-.554 4.207-.09.416-1.061 1.894-1.018 2.333.048.44.646 2.31 1.18 2.52.393.138 1.363.44 2.009.44.23 0 .44-.048.53-.14.393-.344.508-.415.785-.415h.067c.115 0 .254.024.416.024.369 0 .856-.072 1.2-.392.508-.508 1.387-1.2 1.664-1.526a2.14 2.14 0 0 0 .44-1.64c-.071-.554.23-1.041.579-1.525.44-.578 1.247-1.616 1.247-1.616 1.597 1.196 2.591 3.023 2.591 5.055 0 3.605-3.141 6.516-7.023 6.516a7.435 7.435 0 0 1-1.755-.206c1.778.622 3.28.832 4.508.832 2.61 0 3.997-.947 3.997-.947s-.484.626-1.272 1.34h.024c4.322-.603 6.425-4.16 6.425-4.16s-.162 1.156-.368 1.94c5.748-4.321 4.777-9.728 4.753-9.91.048.067.626.76.923 1.133.927-9.524-6.86-12.598-6.86-12.598zm-8.85 15.208c-.09.115-.483.464-.76.717-.277.254-.578.507-.808.74-.091.092-.277.14-.555.14h-.692c.348-.464 1.362-1.526 1.71-1.755.416-.278.626-.555.369-1.038-.254-.488-.923-.369-.923-.369s.392-.162.74-.162c-.439-.115-.994 0-1.247.253-.277.254-.23 1.157-.345 1.732-.115.602-.507.903-1.109 1.457-.325.301-.555.392-.74.392a7.893 7.893 0 0 1-1.181-.3c-.23-.302-.579-1.296-.67-1.712.068-.23.345-.717.484-.994.277-.531.44-.832.487-1.11.091-.392.392-2.82.507-3.834.301.392.717 1.042.622 1.458.67-.947.186-1.874-.048-2.242-.206-.369-.483-1.11-.253-1.894.23-.784 1.061-2.959 1.061-2.959s.278.487.67.392c.392-.09 3.557-4.852 3.557-4.852s.856 1.87-.047 3.236c-.923 1.363-1.827 1.616-1.827 1.616s1.272.23 2.449-.626c.483 1.133.946 2.31.97 2.472-.071.163-.994 2.381-1.085 2.52-.048.047-.369.138-.602.186-.393.115-.622.186-.717.253-.163.139-.904 2.171-1.248 3.165a1.918 1.918 0 0 0-1.133.809c.162-.115.67-.187 1.042-.23.324-.024 1.315.507 1.572 1.501v.048a1.42 1.42 0 0 1-.25.99zm-2.17.277c.21-.3.186-.808.21-.97.024-.163.067-.464.253-.507.187-.048.626.024.626.344 0 .301-.325.369-.554.579a16.9 16.9 0 0 0-.535.554zm9.218-4.417a11.09 11.09 0 0 0 .186-3.026 8.49 8.49 0 0 1 1.616 4.16c.024.186.206.368.393.554.162.139.348.325.348.44 0 .53-.047 1.061-.139 1.596-.023.067-.23.186-.392.277-.23.115-.44.23-.483.416a8.612 8.612 0 0 1-3.05 4.46c2.147-2.241 3.185-5.941 1.52-8.877zm-1.454 9.084c1.501-1.157 2.658-2.773 3.165-4.6.024-.067.23-.186.369-.277.23-.115.463-.253.507-.44.09-.53.138-1.085.138-1.64 0-.205-.21-.415-.416-.621-.114-.139-.3-.301-.3-.416a9.061 9.061 0 0 0-1.894-4.6c-.464-2.772-2.31-3.628-2.357-3.652.047.072 1.248 1.803.416 3.835-.856 2.056-3.05 1.735-3.237 1.755-.186 0-.899.923-1.802 2.634-.115-.047-.602-.162-1.157-.067.416-1.157 1.042-2.797 1.157-2.936.047-.047.392-.138.626-.206.44-.114.646-.186.717-.277.047-.071.277-.602.507-1.157.21 0 .74-.047.784-.07.048-.048.487-1.177.487-1.316 0-.115-.903-2.357-1.247-3.213.162-.186.324-.416.483-.67 4.738.512 8.438 4.533 8.438 9.405 0 3.743-2.195 7.004-5.384 8.529z" fill="#1B314F"/><path d="M15.658 16.43c.44-.506.21-1.453-.602-1.616.21-.483.507-1.453.507-1.453S13.206 17.056 13 17.128c-.21.071-.416-.741-.416-.741-.44 1.688.74 1.917.88 1.386.645-.166 1.754-.86 2.194-1.342z" fill="#1B314F"/><path d="m13.646 17.33 1.2-2.056s.693.348.345.903c-.436.646-1.545 1.153-1.545 1.153z" fill="#FFD923"/><path d="M28.505 26.853c-.349.463-.741.947-1.2 1.41 2.978-5.732.138-10.977.023-11.183.21.21.416.44.602.646 2.286 2.54 2.563 6.354.575 9.127zm2.773-7.373c-1.042-2.796-2.52-5.177-5.776-7.324-3.141-2.08-6.516-1.917-6.703-1.893h-.047c.115-.048.23-.072.345-.091.717-.23 1.64-.416 2.567-.531 2.452-.353 4.923.48 6.611 2.262l.048.047c1.917 2.032 2.911 4.572 2.955 7.53zM24.761 8.04c-3.442-.645-5.66-.324-7.257.278-.047-.186-.21-.555-.348-.856a37.19 37.19 0 0 0-1.312 1.711c-.88.603-1.247 1.18-1.247 1.18.507-1.734 1.988-3.026 3.79-3.35a9.418 9.418 0 0 1 1.664-.139c1.593.024 3.185.416 4.71 1.176zM12.03 12.477c-2.702-.09-1.803-3.236-1.755-3.418 0 .023.182 2.471 1.755 3.418zm2.658-5.661c-2.08 1.248-1.664 4.227-1.664 4.227-1.989-3.022 1.501-4.155 1.664-4.227z" fill="#D82122"/><path d="M11.269 13.31c.139.114.277.324.115.625-.091.162-.23.139-.44.047-.277-.138-1.94-1.109-3.442-2.103 1.711.602 3.442 1.248 3.72 1.386 0 0 .023.024.047.044z" fill="#FFF"/></g></svg>