<svg width="36" height="36" viewBox="0 0 36 36" xmlns="http://www.w3.org/2000/svg"><g fill="none" fill-rule="evenodd"><path d="M18 .5C27.665.5 35.5 8.335 35.5 18S27.665 35.5 18 35.5.5 27.665.5 18 8.335.5 18 .5z" fill="#FFF"/><path d="M18 0c9.941 0 18 8.059 18 18s-8.059 18-18 18S0 27.941 0 18 8.059 0 18 0zm.263 9.325h-.539c-.673 0-1.18.372-1.525 1.133l-2.649 6.41h-2.004a1.097 1.097 0 0 0-1.084.97l-.008.133c.005.6.492 1.086 1.092 1.088h1.077l-2.528 6.112a1.29 1.29 0 0 0-.074.418 1.15 1.15 0 0 0 .299.82c.211.215.506.33.808.313.225-.003.445-.076.628-.21.191-.14.341-.331.434-.55l2.782-6.903h1.93a1.097 1.097 0 0 0 1.092-1.088v-.03a1.097 1.097 0 0 0-1.092-1.088H15.87l2.124-5.292 5.79 14.4c.092.22.241.41.433.551.183.133.402.206.628.209a1.05 1.05 0 0 0 .808-.313 1.15 1.15 0 0 0 .3-.82.986.986 0 0 0-.076-.417l-6.088-14.713c-.345-.76-.853-1.133-1.526-1.133z" fill="#B6509E" fill-rule="nonzero"/></g></svg>