<svg xmlns="http://www.w3.org/2000/svg" width="36" height="36" viewBox="0 0 36 36"><g fill="none" fill-rule="evenodd"><circle cx="18" cy="18" r="17" fill="#FFF"/><path fill="#1B5477" fill-rule="nonzero" d="M18 36C8.065 36 0 27.931 0 17.998 0 8.064 8.06 0 18 0s18 8.069 18 18.002C36 27.936 27.935 36 18 36zm.73-29.587a.745.745 0 0 0-.704-.785.747.747 0 0 0-.79.7.746.746 0 0 0 .705.786.747.747 0 0 0 .79-.701zm9.764 6.43a.742.742 0 0 0 .331-1 .75.75 0 0 0-1.005-.33.741.741 0 0 0-.332 1 .751.751 0 0 0 1.006.33zm-.722 11.616a.752.752 0 0 0 1.037-.214.741.741 0 0 0-.216-1.03.751.751 0 0 0-1.036.214.74.74 0 0 0 .215 1.03zm-10.561 5.187a.745.745 0 0 0 .705.786.747.747 0 0 0 .79-.701.746.746 0 0 0-.705-.785.747.747 0 0 0-.79.7zm-9.686-6.429a.742.742 0 0 0-.331 1 .75.75 0 0 0 1.005.329.742.742 0 0 0 .331-1 .75.75 0 0 0-1.005-.329zm.722-11.616a.751.751 0 0 0-1.037.214.74.74 0 0 0 .216 1.03.75.75 0 0 0 1.036-.215.74.74 0 0 0-.215-1.03zm10.814-.808a1.065 1.065 0 0 0-1.007-1.122 1.067 1.067 0 0 0-1.128 1.001 1.065 1.065 0 0 0 1.007 1.121 1.067 1.067 0 0 0 1.128-1zm5.781 4.523a1.06 1.06 0 0 0 .474-1.427 1.073 1.073 0 0 0-1.436-.47c-.528.263-.74.902-.474 1.426.266.525.908.735 1.436.471zm-1.052 7.237a1.074 1.074 0 0 0 1.481-.306 1.058 1.058 0 0 0-.308-1.471 1.074 1.074 0 0 0-1.48.306c-.324.49-.186 1.15.307 1.471zm-6.91 2.714a1.065 1.065 0 0 0 1.008 1.121 1.066 1.066 0 0 0 1.128-1 1.065 1.065 0 0 0-1.007-1.121 1.067 1.067 0 0 0-1.128 1zm-5.703-4.523a1.06 1.06 0 0 0-.474 1.427c.266.524.908.735 1.436.47a1.06 1.06 0 0 0 .474-1.427 1.072 1.072 0 0 0-1.436-.47zm1.051-7.237a1.073 1.073 0 0 0-1.48.305 1.058 1.058 0 0 0 .307 1.471 1.072 1.072 0 0 0 1.48-.305 1.057 1.057 0 0 0-.307-1.471zm12.708-6.29a.583.583 0 0 0-.17-.808.59.59 0 0 0-.814.168.583.583 0 0 0 .17.81.59.59 0 0 0 .814-.17zm5.959 11.368a.585.585 0 0 0 .067-1.167.585.585 0 0 0-.067 1.167zm-6.927 10.813a.59.59 0 0 0 .79.258.583.583 0 0 0 .26-.785.59.59 0 0 0-.79-.258.583.583 0 0 0-.26.785zm-12.885-.556a.582.582 0 0 0 .169.81.59.59 0 0 0 .814-.169.582.582 0 0 0-.169-.809.59.59 0 0 0-.814.168zm-5.96-11.367a.587.587 0 0 0-.62.55.587.587 0 1 0 1.174.066.586.586 0 0 0-.553-.616zm6.928-10.812a.59.59 0 0 0-.79-.26.582.582 0 0 0-.26.785.59.59 0 0 0 .789.26.583.583 0 0 0 .26-.785zm11.465 3.65a.9.9 0 0 0-.262-1.25.912.912 0 0 0-1.258.26.9.9 0 0 0 .261 1.25.912.912 0 0 0 1.259-.26zm3.971 8.598a.907.907 0 0 0 .96-.85.906.906 0 0 0-.857-.954.907.907 0 0 0-.959.851.905.905 0 0 0 .856.953zm-5.506 7.716a.912.912 0 0 0 1.22.4.9.9 0 0 0 .403-1.213.911.911 0 0 0-1.221-.4.9.9 0 0 0-.402 1.213zm-9.478-.88a.9.9 0 0 0 .262 1.25.912.912 0 0 0 1.258-.26.9.9 0 0 0-.262-1.25.912.912 0 0 0-1.258.26zm-3.972-8.598a.907.907 0 0 0-.959.85.906.906 0 0 0 .856.954.907.907 0 0 0 .96-.85.905.905 0 0 0-.857-.954zm5.507-7.716a.912.912 0 0 0-1.22-.4.901.901 0 0 0-.403 1.213.911.911 0 0 0 1.22.4.9.9 0 0 0 .403-1.213zm6.105 6.71c.617 0 1.186-.305 1.523-.816a1.803 1.803 0 0 0-.524-2.503 1.818 1.818 0 0 0-.996-.297c-.616 0-1.185.306-1.522.817a1.803 1.803 0 0 0 .523 2.503c.298.194.642.296.996.296zm2.155 3.685c.963 0 1.76-.749 1.815-1.704a1.788 1.788 0 0 0-.46-1.307 1.807 1.807 0 0 0-1.253-.601 1.815 1.815 0 0 0-1.92 1.702 1.814 1.814 0 0 0 1.818 1.91zm-2.136 3.695c.282 0 .565-.067.818-.193a1.804 1.804 0 0 0 .806-2.428 1.813 1.813 0 0 0-1.626-.995c-.282 0-.564.067-.817.193-.434.218-.757.59-.91 1.05a1.812 1.812 0 0 0 1.728 2.374zm-4.29.01c.617 0 1.186-.306 1.523-.817.267-.404.36-.887.26-1.36a1.82 1.82 0 0 0-1.78-1.44 1.82 1.82 0 0 0-1.523.818 1.786 1.786 0 0 0-.26 1.359 1.82 1.82 0 0 0 1.78 1.44zm-2.149-3.685c.963 0 1.76-.75 1.815-1.706a1.814 1.814 0 0 0-1.713-1.908 1.815 1.815 0 0 0-1.92 1.703 1.815 1.815 0 0 0 1.818 1.91zm2.136-3.695c.281 0 .564-.067.817-.194a1.805 1.805 0 0 0 .806-2.428 1.812 1.812 0 0 0-1.626-.994 1.84 1.84 0 0 0-.817.193 1.805 1.805 0 0 0-.806 2.428c.311.614.934.995 1.626.995z"/></g></svg>