<svg width="36" height="36" fill="none" xmlns="http://www.w3.org/2000/svg"><circle cx="18" cy="18" r="18" fill="#050921"/><path d="M5.746 22.111a.67.67 0 0 1-.278-.047c-.068-.032-.102-.07-.102-.115 0-.082.043-.138.13-.17a7.53 7.53 0 0 1 .169-.061c.352-.072.624-.179.814-.319.19-.14.284-.36.284-.658v-6.294c0-.217-.022-.378-.067-.482a.438.438 0 0 0-.245-.23 2.345 2.345 0 0 0-.515-.13c-.298-.053-.448-.144-.448-.27 0-.055.037-.093.109-.116a.98.98 0 0 1 .285-.034c.244 0 .44.005.59.014a15.83 15.83 0 0 0 1.512.02c.163-.004.33-.011.502-.02.172-.01.38-.014.624-.014a.98.98 0 0 1 .285.034c.072.023.109.061.109.116 0 .063-.037.117-.109.162a.99.99 0 0 1-.339.109c-.335.063-.62.138-.855.224s-.352.26-.352.522v6.39c0 .28.063.488.19.623.126.136.411.204.854.204h1.682a1.672 1.672 0 0 0 1.058-.353c.181-.154.315-.292.4-.414.087-.122.188-.305.306-.55a1.72 1.72 0 0 1 .115-.243c.059-.109.12-.163.183-.163.054 0 .095.027.122.081a.367.367 0 0 1 .041.163c0 .01-.002.02-.007.034a.113.113 0 0 0-.007.034l-.17.637c-.049.19-.09.371-.121.543a6.274 6.274 0 0 0-.075.543.533.533 0 0 1-.047.163c-.023.045-.07.067-.143.067-.452 0-.886-.004-1.302-.013-.416-.01-.816-.016-1.2-.02a80.19 80.19 0 0 1-1.106-.02c-.353-.01-.701-.014-1.045-.014a24.382 24.382 0 0 0-1.512.047l-.319.02zm10.35.122a2.69 2.69 0 0 1-1.37-.352 2.626 2.626 0 0 1-.97-.97c-.24-.412-.36-.88-.36-1.404 0-.38.075-.75.225-1.113.149-.361.36-.691.63-.99.272-.298.588-.536.95-.712.362-.176.75-.265 1.167-.265.524 0 .997.127 1.417.38.42.254.755.586 1.004.997.249.412.373.862.373 1.35 0 .525-.115 1.022-.346 1.492a2.84 2.84 0 0 1-1.024 1.147c-.452.294-1.017.44-1.696.44zm.285-.407c.308 0 .584-.058.828-.176.244-.117.434-.307.57-.57.108-.208.18-.46.216-.76.037-.298.055-.578.055-.84 0-.434-.08-.853-.238-1.255a2.586 2.586 0 0 0-.664-.99 1.457 1.457 0 0 0-1.011-.387c-.244 0-.463.039-.658.115a1.3 1.3 0 0 0-.536.428c-.18.226-.298.502-.352.827a5.928 5.928 0 0 0-.082.977c0 .443.082.866.244 1.268.163.403.385.73.665.984.28.253.602.38.963.38zm6.43.407a2.69 2.69 0 0 1-1.37-.352 2.627 2.627 0 0 1-.97-.97c-.24-.412-.36-.88-.36-1.404 0-.38.075-.75.224-1.113.15-.361.36-.691.631-.99.272-.298.588-.536.95-.712a2.63 2.63 0 0 1 1.166-.265c.525 0 .997.127 1.418.38.42.254.755.586 1.004.997.248.412.373.862.373 1.35 0 .525-.115 1.022-.346 1.492a2.84 2.84 0 0 1-1.024 1.147c-.452.294-1.018.44-1.696.44zm.285-.407c.308 0 .583-.058.828-.176.244-.117.434-.307.57-.57.108-.208.18-.46.216-.76.036-.298.055-.578.055-.84 0-.434-.08-.853-.238-1.255a2.585 2.585 0 0 0-.665-.99 1.456 1.456 0 0 0-1.01-.387c-.244 0-.464.039-.658.115a1.3 1.3 0 0 0-.536.428c-.18.226-.298.502-.353.827a5.928 5.928 0 0 0-.081.977c0 .443.081.866.244 1.268.163.403.384.73.665.984.28.253.601.38.963.38zm5.82.407c-.444 0-.79-.135-1.038-.407-.249-.27-.373-.673-.373-1.207v-3.147c0-.072-.027-.124-.082-.156-.054-.032-.171-.047-.352-.047h-.082c-.045 0-.083-.03-.115-.089a.382.382 0 0 1-.048-.183c0-.018.014-.045.041-.081a.833.833 0 0 1 .054-.068 6.724 6.724 0 0 0 .902-.753c.123-.122.224-.233.306-.332l.115-.115a.157.157 0 0 1 .115-.048c.045 0 .088.01.13.027.04.018.056.059.047.122l-.068.61c-.01.1.013.168.068.204.054.036.14.054.257.054h1.547c.036 0 .068.03.095.089.027.058.04.128.04.21a.71.71 0 0 1-.04.237c-.027.077-.059.116-.095.116h-1.343c-.226 0-.373.018-.441.054-.068.036-.102.145-.102.325v2.673c0 .361.077.646.23.854.155.208.376.312.666.312.262 0 .465-.02.61-.06a1.29 1.29 0 0 0 .393-.184c.018-.018.037-.027.055-.027.036 0 .06.02.074.061.014.04.02.084.02.129s-.074.136-.223.271c-.15.136-.344.262-.584.38s-.5.176-.78.176z" fill="#fff"/></svg>