<svg width="36" height="36" xmlns="http://www.w3.org/2000/svg"><g fill="none" fill-rule="evenodd"><circle fill="#DBC2C6" fill-rule="nonzero" cx="18" cy="18" r="18"/><path d="m11.4 12.3-.1.5c-.8-.3-2-.5-2.7-.4h-.7c-.3 0-.5.1-.7.3l-.2.1c-.2.3 0 .3 0 .2h.1v-.1c1.3-.7 3.3-.3 5.4 1h.1v.1h.1v-.4c-.7-4 0-6.4 2.3-6.9a6 6 0 0 1 2.3 0C19 6.8 20 8 20.4 9.8l.1 2c0 .2.2.1.2 0h.1l.2-.1v-.1h.1v-.1c.5-.4 1-.6 1.6-.8h.4l.3-.2c.6-.1 1.3-.2 2.3 0 1.6.1 3.4 1.8 3.7 3.5v.3l.6.6 1-.7V14h-.1v-.2h-.1v-.2h-.1v-.1h-.1v-.2h-.1v-.1h-.1V13h-.1l-.1-.2-.2-.2v-.1l-.1-.1-.2-.1v-.1l-.2-.2-.1-.1C27 9.7 24.2 9 22 9.8l-.3-.3a6.7 6.7 0 0 0-3.2-3C18 6 17 6 16.3 6c-2.8.3-4.8 3-4.9 6.3zM5.1 19H5l.1.2a6 6 0 0 0 2.5 2.4h.2c.1.2.3.2.5.3l.2.1h.1l.1.1H9l.1.1.2.1h.2l.2.1h.1l.7.3.3-.5v-.3h-.4c-2.5 0-4-1.2-4.5-3.2L5 19z" fill="#ECDFE0"/><path d="M12.7 13.8c.1.3.1.3-.2.1-2.1-1.4-4.3-1.7-5.5-1-1 .7-1.4 2-1.4 3.8 0 3.4 1.5 5.1 4.7 5.2h.5l-.1.3c-1.5 2.5-1.4 5 .3 6.5 1.5 1.3 3 1.6 4.8 1a8 8 0 0 0 4-4.6l.2.3c3 2.9 6.8 3.4 8.5 1 1.6-2.5 1-5.6-1.5-7.5-.3-.2-.3-.2 0-.3 1.6-1.2 2.6-2.9 2.4-4.3a5.2 5.2 0 0 0-2.6-3.4c-1.7-.8-4.1-.4-6 .9l-.3.2v-.4c0-3-1-4.6-3.3-5h-1.7c-2.7.3-3.6 2.8-2.8 7.2zm5 1.3c2.7.5 3.8 3.9 1.8 5.9-1.6 1.6-4.1 1.1-5.3-1.1-1.3-2.4.9-5.2 3.5-4.8z" fill="#EB8393"/><path d="M14.1 20c1 1.8 2.9 2.6 4.6 1.7 3-1.5 2.5-6-.7-6.6a3 3 0 0 0-1.6 0 3.3 3.3 0 0 0-2.3 4.8z" fill="#FCEBAC"/></g></svg>