<svg width="36" height="36" xmlns="http://www.w3.org/2000/svg"><g fill="none" fill-rule="evenodd"><circle fill="#245AE5" fill-rule="nonzero" cx="18" cy="18" r="18"/><path d="m19.66 5.38 8.36 4.28A3.64 3.64 0 0 1 30 12.91v1.98h-3.07v-1.98c0-.19-.12-.38-.31-.5l-8.37-4.28c-.12-.07-.32-.07-.5 0L9.37 12.4c-.19.07-.32.26-.32.51v1.98H6v-1.98c0-1.34.77-2.61 1.98-3.25l8.36-4.28a3.8 3.8 0 0 1 3.32 0zm.96 12.26a2.63 2.63 0 0 0-4.48-1.86A2.63 2.63 0 0 0 18 20.26c1.4 0 2.62-1.15 2.62-2.62zm5.93 5.49c.2-.07.32-.26.32-.51v-1.98h3.07v1.98c0 1.34-.77 2.61-1.98 3.25l-8.36 4.28a3.72 3.72 0 0 1-3.32 0l-8.3-4.28A3.64 3.64 0 0 1 6 22.62v-1.98h3.06v1.98c0 .19.13.38.32.5l7.09 3.58v-3.57a5.69 5.69 0 0 1-4.15-5.5 5.76 5.76 0 0 1 5.74-5.74 5.76 5.76 0 0 1 5.75 5.75 5.7 5.7 0 0 1-4.15 5.49v3.57l6.9-3.57z" fill="#FFF"/></g></svg>