<svg width="36" height="36" viewBox="0 0 36 36" xmlns="http://www.w3.org/2000/svg"><g fill="none" fill-rule="evenodd"><path d="M18 .5C27.665.5 35.5 8.335 35.5 18S27.665 35.5 18 35.5.5 27.665.5 18 8.335.5 18 .5z" fill="#FFF"/><path d="M18 0c9.941 0 18 8.059 18 18s-8.059 18-18 18S0 27.941 0 18 8.059 0 18 0zm-3.293 6.717-.396.005-.363.015-.169.01-.312.028-.142.016 1.46 1.476-.142.01C8.324 8.792 3.29 13.92 3.29 20.227 3.29 27.62 9.883 33.73 18 33.73a15.874 15.874 0 0 0 13.78-8.229c-3.512.79-7.638-.633-7.719-3.679.028-.107.055-.22.08-.337l.053-.221c.472-1.789 1.714-2.201 2.455-2.201l.032-.016c.463-.018.918.142 1.27.451.465.457.507 1.194.095 1.7 1.211-.202 3.097-1.365 3.235-4.324l.006-.25c-.007-2.31-1.666-3.863-3.533-4.94l-.478-.24c.052-.322.052-.65 0-.972A25.012 25.012 0 0 0 16.84 6.84l-.52-.05a21.127 21.127 0 0 0-.252-.02l-.482-.03-.455-.017-.425-.005zm6.719 3.41c1.73.012 3.43.462 4.941 1.312a9.796 9.796 0 0 0-1.509-.345c-.24.254-.52.468-.828.632-1.132-.242-1.89-.662-2.358-1.01l-.183-.144-.148-.13-.116-.114-.085-.091-.085-.105z" fill="#00B3EC" fill-rule="nonzero"/></g></svg>