<svg height="36" viewBox="0 0 36 36" width="36" xmlns="http://www.w3.org/2000/svg"><g fill="none" fill-rule="evenodd"><circle cx="18" cy="18" fill="#fff" r="17"/><g fill="#222326" fill-rule="nonzero"><path d="M18 0C8.059 0 0 8.059 0 18s8.059 18 18 18 18-8.059 18-18S27.941 0 18 0zm0 2.338c8.65 0 15.662 7.012 15.662 15.662 0 8.65-7.012 15.662-15.662 15.662C9.35 33.662 2.338 26.65 2.338 18 2.338 9.35 9.35 2.338 18 2.338z"/><path d="M21.206 24.068c-.115-.114-.115-.343-.23-.572 0-.23-.114-.458-.114-.687-.229.229-.458.343-.687.572s-.572.344-.801.458c-.344.115-.573.23-1.03.344-.344.114-.802.114-1.145.114-.687 0-1.26-.114-1.832-.343-.573-.23-1.03-.458-1.489-.802-.458-.343-.687-.801-.916-1.26s-.343-1.03-.343-1.602c0-1.374.572-2.519 1.603-3.206 1.03-.801 2.633-1.145 4.694-1.145h1.946v-.801c0-.687-.229-1.145-.572-1.489-.458-.343-1.03-.572-1.832-.572-.687 0-1.145.114-1.488.458-.344.343-.458.687-.458 1.145h-3.435c0-.573.114-1.145.343-1.603s.573-.916 1.145-1.374c.458-.344 1.03-.687 1.718-.916s1.488-.344 2.404-.344c.801 0 1.488.115 2.175.344s1.26.458 1.832.916a3.72 3.72 0 0 1 1.145 1.488c.23.573.458 1.26.458 2.061v5.725c0 .687 0 1.26.115 1.717.114.458.229.916.343 1.145v.23zm-3.32-2.404c.343 0 .686 0 .915-.115.344-.114.573-.229.802-.343.229-.115.458-.23.572-.458l.458-.458V18h-1.717c-.573 0-1.03 0-1.374.114-.343.115-.687.23-.916.458s-.458.344-.572.687c-.115.23-.115.573-.115.802 0 .458.115.801.458 1.145.344.343.916.458 1.489.458z"/></g></g></svg>