<svg width="36" height="36" fill="none" xmlns="http://www.w3.org/2000/svg"><circle cx="18" cy="18" r="18" fill="#F2F4F7"/><path d="M16.87 5.133a.851.851 0 0 1 .203.265c.013.024.028.048.042.07l.263.46.197.34.18.315.367.633.266.466.119.204.048.082.851 1.478.026.04 1.432 2.49.119.205.048.083.851 1.478.025.04c.479.829.956 1.658 1.433 2.488l.119.206.048.082.852 1.479.023.04c.479.829.957 1.658 1.434 2.488l.119.206.048.082.852 1.478.023.04 1.434 2.49.119.205.048.082.663 1.15.369.64c.113.198.177.377.118.607a.666.666 0 0 1-.314.385.655.655 0 0 1-.303.068H26.92c-1.337 0-2.674-.001-4.012 0a9706.161 9706.161 0 0 1-11.395-.009c-.203 0-.38-.04-.531-.181a.654.654 0 0 1-.182-.49c.008-.18.095-.318.183-.47l.02-.035.25-.432.026-.04.047-.083.118-.206.048-.082.094-.165.025-.041.65-1.125.142-.245.37-.641.16-.277.026-.04.293-.512a.772.772 0 0 1 .455-.392c.043-.007.084-.006.129-.006h.619l1.17-.003h1.296l2.508-.003c.215 0 .4-.024.565-.176a.65.65 0 0 0 .177-.479c-.02-.224-.172-.43-.285-.619l-.149-.26-.189-.328-.19-.328-.266-.466-.119-.204-.048-.082-.851-1.478-.026-.04-.983-1.712-.02-.037c-.107-.183-.23-.313-.44-.371a.683.683 0 0 0-.502.095.718.718 0 0 0-.193.237l-.022.036a19.33 19.33 0 0 0-.113.197l-.119.208-.119.206-.394.682-.375.646-.37.642-.233.4-.118.206-.048.083-.094.164-.025.041-.577.998-.026.042c-.065.113-.13.228-.192.343a.76.76 0 0 1-.43.377.808.808 0 0 1-.243.026h-1.097c-.838-.001-1.675-.003-2.513-.006H8.76c-.357-.002-.714-.003-1.072-.003a.693.693 0 0 1-.509-.175.637.637 0 0 1-.178-.45L7 20.902c-.001-.16.068-.288.15-.423l.095-.164.058-.101.089-.15.208-.362.119-.206.048-.082.095-.164.022-.041.65-1.125.144-.245.37-.642.232-.4.119-.206.048-.082.095-.164.022-.042.65-1.124.12-.205.048-.082.094-.164.023-.042.65-1.124.144-.245.37-.642.232-.4.119-.206.048-.082.093-.165.026-.041.649-1.125.143-.245.37-.641.232-.4.119-.207.048-.082.093-.164.026-.042.649-1.124.119-.205.048-.082.093-.164.025-.042.912-1.579c.335-.586.335-.586.595-.66a.7.7 0 0 1 .569.115z" fill="#7E1AC6"/><path d="M16.87 5.133a.851.851 0 0 1 .203.265c.013.024.028.048.042.07l.263.46.197.34.18.315.367.633.266.466.119.204.048.082.851 1.478.026.04 1.432 2.49.119.205.048.083.851 1.478.025.04c.479.829.956 1.658 1.433 2.488l.119.206.048.082.852 1.479.023.04c.567.98 1.133 1.962 1.698 2.944l.025.043.156.266.017.03.033.053a.359.359 0 0 1 .043.099c-.013.046-.043.073-.077.104l-.021.02a3.415 3.415 0 0 1-.14.127 1.59 1.59 0 0 1-.212.19c-.031.026-.063.051-.093.08-.194.165-.4.316-.618.45l-.083.054-.026.017-.064.036c-.048-.016-.052-.03-.076-.074l-.022-.04-.026-.042a37.698 37.698 0 0 0-.077-.14l-.124-.214-.179-.31-.02-.035-.018-.03-.015-.028c-.011-.021-.011-.021-.011-.047l-.022.012c-.426.21-.897.391-1.377.395h-.031c-.527.006-1.017-.098-1.476-.369l-.024-.012a3.793 3.793 0 0 1-.582-.43l-.032-.028-.095-.086-.021-.02a2.843 2.843 0 0 1-.253-.25l-.084-.093a3.924 3.924 0 0 1-.242-.282 11.03 11.03 0 0 1-.107-.138l-.019-.024a11.4 11.4 0 0 1-1.018-1.643c-.013-.022-.013-.022-.023-.044a8.131 8.131 0 0 1-.244-.493 3.772 3.772 0 0 0-.098-.205 6.679 6.679 0 0 1-.16-.343l-.203-.473-.012-.029a5.957 5.957 0 0 1-.14-.351l-.071-.182a16.43 16.43 0 0 1-.16-.41 34.685 34.685 0 0 0-.775-1.873 9.304 9.304 0 0 0-.184-.396c-.027-.05-.051-.105-.076-.157a12.377 12.377 0 0 0-.52-.988 11.981 11.981 0 0 0-.507-.832 16.371 16.371 0 0 0-.84-1.175l-.086-.109-.105-.132a7.295 7.295 0 0 0-.21-.258l-.088-.107a9.442 9.442 0 0 0-.305-.358l-.094-.111a7.54 7.54 0 0 0-.232-.26l-.103-.115a.946.946 0 0 0-.063-.068l-.02-.02c-.02-.039-.012-.071 0-.112.024-.047.051-.092.078-.136l.05-.082.024-.042.12-.206c.208-.362.417-.723.627-1.084l.119-.206.048-.082.093-.164.025-.042.578-.998.025-.041.347-.607.02-.033a.67.67 0 0 1 .396-.32.7.7 0 0 1 .57.115z" fill="#AE23D4"/><path d="m14.032 22.516.134-.004c.282-.012.282-.012.357.03.043.04.065.091.088.146.021.05.054.097.085.145l.037.06c.08.126.163.25.247.373.185.283.384.556.597.818l.076.093c.105.129.215.254.329.375l.062.068c.152.165.152.165.318.319l.092.084c.095.091.194.177.298.257.407.339.855.625 1.333.854.21.107.426.2.648.278l.11.044c.161.065.326.119.495.162l.134.038c.175.052.353.096.533.13.091.02.183.037.274.055.056.013.11.022.167.025a.34.34 0 0 1 .1.02l.056.006.035.003.036.004.038.004.2.022c.17.018.17.018.342.032.027.004.027.004.064.017.04.004.081.005.122.006l.04.001c.22.008.44.008.66.01h.036c.29 0 .583 0 .874-.029l.036-.002c.148-.014.294-.035.442-.058l.107-.017c.259-.033.514-.086.764-.158.205-.05.408-.106.608-.17l.038-.013c.116-.038.231-.076.344-.125a2.81 2.81 0 0 0 .315-.123 2.24 2.24 0 0 1 .176-.072c.05-.02.096-.045.143-.067a2.79 2.79 0 0 1 .126-.061c.175-.08.346-.169.51-.268a7.23 7.23 0 0 0 .97-.614c.138-.097.271-.199.401-.306l.027-.022.053-.044a.341.341 0 0 1 .131-.079l.022.038c.068.126.139.249.21.372l.172.295c.089.157.177.312.268.468l.118.204.142.246.023.04.17.293c.318.545.318.545.246.826a.665.665 0 0 1-.316.385.655.655 0 0 1-.303.068H26.92l-4.012-.002c-2.917 0-5.834-.002-8.751-.005h-.047c-.866-.002-1.732-.002-2.597-.002-.203 0-.38-.041-.531-.183a.653.653 0 0 1-.182-.489c.008-.18.095-.318.183-.47l.02-.035c.084-.144.167-.287.252-.43l.023-.042.048-.084.118-.204.048-.082.095-.165.023-.041.65-1.125.143-.246.371-.64.161-.277.023-.04.294-.512c.111-.192.24-.326.457-.39.104-.023.216-.016.322-.018z" fill="#290E8C"/><path d="M10.82 14.14c.496.03.985.303 1.364.606l.022.016c.108.087.206.183.304.282l.02.018c.084.084.16.171.235.265l.06.07c.393.473.705 1.021.995 1.562l.054.101c.104.187.203.378.3.568a56.843 56.843 0 0 0 .385.747l.02.04.02.037a.121.121 0 0 1-.002.096l-.033.06-.021.036-.023.038-.29.498a95.17 95.17 0 0 1-.531.918l-.119.206-.048.082-.093.164-.025.042-.307.533-.02.032c-.117.202-.242.337-.473.398-.06.01-.116.014-.177.014h-1.121c-.838-.001-1.675-.003-2.513-.006H8.76c-.357-.002-.714-.003-1.072-.003a.693.693 0 0 1-.509-.175.637.637 0 0 1-.178-.45L7 20.902c-.001-.16.068-.288.15-.423l.095-.164.058-.101.089-.15.208-.362.119-.206.048-.082.093-.164.026-.041.649-1.125.143-.245.37-.642.232-.4.119-.206.048-.082.095-.164.022-.042.65-1.124.12-.205.048-.082.094-.164.27-.474.025-.038.02-.038c.016-.025.016-.025.029-.038z" fill="#851BC9"/><path d="M16.87 5.133a.851.851 0 0 1 .203.265c.013.024.028.048.042.07l.263.46.197.34.18.315.367.633.266.466.119.204.048.082.851 1.478.026.04 1.432 2.49.119.205.048.083.851 1.478.025.04c.479.829.956 1.658 1.433 2.488l.119.206.048.082.852 1.479.023.04.561.971.023.036c.015.032.015.032.012.059-.017.04-.044.072-.072.106l-.019.024a3.677 3.677 0 0 1-.197.223l-.02.021a2.47 2.47 0 0 1-.572.447 2.144 2.144 0 0 1-1.588.216c-.69-.186-1.2-.715-1.546-1.316a4.178 4.178 0 0 1-.366-.922l-.013-.043c-.05-.173-.096-.348-.14-.522a2.652 2.652 0 0 0-.05-.19c-.026-.097-.05-.195-.075-.293l-.089-.347-.054-.204c-.032-.127-.066-.25-.099-.377a8.674 8.674 0 0 1-.09-.359c-.017-.075-.039-.147-.06-.22l-.06-.228-.065-.243a11.91 11.91 0 0 0-.133-.47 4.857 4.857 0 0 1-.07-.233c-.057-.21-.12-.42-.189-.627l-.038-.121c-.345-1.233-.823-2.457-1.479-3.86l-.012-.03a15.797 15.797 0 0 0-.645-1.24 13.11 13.11 0 0 0-.604-.97l-.063-.093a8.758 8.758 0 0 0-.773-.986 1.981 1.981 0 0 0-.151-.168l-.02-.022-.037-.039c-.018-.019-.018-.019-.045-.054a.291.291 0 0 1 .05-.13l.023-.038.025-.043.155-.268.025-.044.046-.083a.735.735 0 0 1 .447-.378.677.677 0 0 1 .556.114z" fill="#D500D4"/><path d="M14.496 22.527c.481-.006.963-.01 1.444-.012a41.376 41.376 0 0 1 .882-.007c.193-.005.193-.005.257.056a.77.77 0 0 1 .095.128l.04.047.033.038c.124.143.253.281.387.415l.029.027c.05.051.102.1.158.147l.096.088c.07.064.143.125.217.185l.02.015c.81.652 1.774 1.122 2.803 1.294l.089.015c.114.02.227.035.344.048l.041.005c.211.02.423.03.636.029h.045c.246 0 .489-.013.734-.042l.038-.004c.473-.056.938-.16 1.39-.312l.042-.014a6.877 6.877 0 0 0 1.423-.639l.116-.065c.07-.038.139-.08.206-.123l.037-.024a7.24 7.24 0 0 0 .862-.65c.095-.08.095-.08.184-.166.035-.035.035-.035.06-.035l.013.021c.085.152.172.303.26.455l.17.293.189.328.391.682a1.466 1.466 0 0 1-.135.124l-.026.023-.03.023a7.12 7.12 0 0 1-.289.222l-.025.02a9.803 9.803 0 0 1-1.408.864c-.121.057-.24.116-.36.177-.056.03-.115.05-.174.072-.036.015-.072.03-.108.047-.081.038-.164.068-.249.099l-.072.027a7.805 7.805 0 0 1-.961.295l-.109.029a6.577 6.577 0 0 1-1.02.18l-.026.002-.234.024c-.27.025-.539.025-.81.024h-.143c-.412 0-.412 0-.61-.008l-.037-.003a.39.39 0 0 1-.121-.017l-.114-.012-.033-.003-.109-.01c-.446-.04-.446-.04-.515-.064l-.068-.007a1.935 1.935 0 0 1-.282-.05 4.105 4.105 0 0 0-.18-.037 4.585 4.585 0 0 1-.316-.07l-.034-.009a4.214 4.214 0 0 1-.433-.126 3.477 3.477 0 0 0-.188-.054 1.99 1.99 0 0 1-.19-.069 3.313 3.313 0 0 1-.256-.104 3.2 3.2 0 0 1-.377-.165 7.3 7.3 0 0 1-.973-.56l-.028-.018a6.352 6.352 0 0 1-.364-.272l-.025-.02a5.105 5.105 0 0 1-.351-.3c-.054-.046-.106-.095-.16-.145l-.027-.026a3.719 3.719 0 0 1-.27-.276 1.921 1.921 0 0 0-.085-.092 3.688 3.688 0 0 1-.19-.217l-.079-.095a5.075 5.075 0 0 1-.25-.316 16.02 16.02 0 0 1-.824-1.216l-.025-.038-.02-.038c-.018-.025-.018-.025-.018-.038z" fill="#801AC6"/><path d="M9.874 18.33H10c.228 0 .446.02.67.067l.03.006c.175.038.346.09.513.155.467.176.908.457 1.256.816.021.023.021.023.051.046.038.03.066.064.098.1.02.024.043.046.065.068.05.052.096.108.143.164l.054.068c.17.208.329.426.473.653l.025.038c.03.05.03.05.033.084-.011.027-.011.027-.03.058l-.018.034-.023.038-.021.037-.12.205c-.284.493-.284.493-.546.578a.826.826 0 0 1-.24.025h-1.095c-.838 0-1.676-.002-2.514-.005H8.76c-.357-.003-.714-.004-1.071-.004a.696.696 0 0 1-.51-.174.642.642 0 0 1-.177-.451L7 20.903c-.001-.162.068-.29.15-.425l.095-.164.058-.101.088-.15.21-.362.118-.206.047-.082.095-.164.025-.04.206-.364.036-.064.022-.04.02-.034a.297.297 0 0 1 .188-.134l.03-.009c.107-.034.214-.06.321-.087l.032-.007a4.9 4.9 0 0 1 1.132-.14z" fill="#2A0E8F"/><path d="M12.298 11.575a7.266 7.266 0 0 1 1.006.878l.053.052.024.025a8.723 8.723 0 0 1 .676.816c.09.121.176.244.26.368l.015.022c.11.16.215.325.316.492l.02.033c.144.24.283.48.417.725l.017.033a24.759 24.759 0 0 1 .648 1.29l.02.038.016.036a.13.13 0 0 1-.003.112l-.02.036-.023.038-.024.043-.025.043a8.65 8.65 0 0 1-.164.282l-.124.215-.025.042-.373.645-.164.285c-.072.126-.145.25-.219.373a.29.29 0 0 1-.07-.096l-.017-.036-.019-.038-.02-.042-.148-.297-.02-.041a14.56 14.56 0 0 0-.24-.464l-.038-.076c-.102-.2-.208-.4-.318-.596a10.022 10.022 0 0 0-.828-1.295l-.017-.024a3.538 3.538 0 0 0-.276-.326 2.905 2.905 0 0 0-.492-.46 2.728 2.728 0 0 0-1.235-.548c-.026-.006-.026-.006-.051-.019.02-.078.063-.142.103-.212l.288-.495c.176-.307.353-.613.532-.918l.119-.206.423-.733z" fill="#5311B7"/><path d="m19.827 22.551.038.023.04.025c.758.463 1.6.733 2.493.728h.038c.555-.003 1.149-.08 1.662-.307l.088-.032c.265-.098.52-.221.762-.366.033-.02.033-.02.058-.02l.015.028.424.736.025.042.246.428.023.038.02.035a.77.77 0 0 1 .043.095 2.37 2.37 0 0 1-.313.18l-.028.014a7.844 7.844 0 0 1-1.718.652l-.037.01a6.747 6.747 0 0 1-.884.158l-.028.003-.19.019-.042.004c-.143.012-.286.011-.428.011h-.13c-.257 0-.513-.013-.767-.052l-.042-.006a12.779 12.779 0 0 1-.186-.028 4.05 4.05 0 0 1-.425-.087l-.033-.008a6.176 6.176 0 0 1-2.442-1.249l-.023-.018a6.157 6.157 0 0 1-.328-.29 6.732 6.732 0 0 1-.247-.238l-.032-.031a3.229 3.229 0 0 1-.179-.194l-.055-.06a1.746 1.746 0 0 1-.21-.268h.04l2.454-.01h.03c.21-.003.21-.003.268.035z" fill="#6010BD"/><path d="M16.846 22.54c.174-.022.174-.022.237.026.028.037.053.074.079.113l.058.066.098.11c.099.113.201.22.307.328l.03.029c.053.054.108.105.165.154.1.096.204.188.314.273l.022.015c.808.652 1.772 1.122 2.802 1.294l.088.015c.114.02.227.035.344.048l.041.005c.211.02.423.03.636.029h.045c.246 0 .489-.013.734-.042l.038-.004c.473-.056.938-.16 1.39-.312l.042-.014a6.877 6.877 0 0 0 1.423-.639l.116-.065c.07-.038.139-.08.206-.123l.037-.024a7.24 7.24 0 0 0 .862-.65c.095-.08.095-.08.184-.166.035-.037.035-.037.06-.037l.013.022c.085.151.172.303.26.455l.17.294.189.33.023.038c.064.111.13.222.197.333l.022.04.02.035a.142.142 0 0 1 .016.096c-.018.021-.018.021-.042.039l-.028.021-.03.023-.032.023c-.121.091-.245.18-.371.265-.796.563-.796.563-.925.563l-.015-.027c-.124-.225-.124-.225-.252-.446l-.14-.24-.023-.042-.2-.346a8.716 8.716 0 0 0-.126-.212c-.014-.026-.014-.026-.014-.05l-.027.014c-.2.111-.4.223-.605.326l-.04.02c-.22.11-.448.21-.68.296l-.044.016a7.062 7.062 0 0 1-1.522.388l-.026.004a6.243 6.243 0 0 1-.898.05h-.249a4.06 4.06 0 0 1-.688-.069l-.133-.021a3.024 3.024 0 0 1-.41-.089.96.96 0 0 0-.144-.031.92.92 0 0 1-.101-.036c-.05-.017-.101-.031-.152-.047a2.067 2.067 0 0 1-.245-.085 1.529 1.529 0 0 0-.126-.05c-.152-.054-.296-.126-.441-.194l-.03-.013a5.958 5.958 0 0 1-1.177-.754 3.055 3.055 0 0 1-.233-.197.641.641 0 0 0-.065-.054c-.116-.093-.218-.198-.323-.302a40.478 40.478 0 0 0-.16-.16l-.03-.03c-.05-.053-.1-.106-.149-.162l-.08-.088a2.922 2.922 0 0 1-.14-.168l-.106-.129a.4.4 0 0 1-.046-.078z" fill="#A121D4"/><path d="m28.24 24.763.022.038c.068.126.139.249.21.372l.172.298.268.466.119.204.048.083.095.164.022.041.17.29c.317.547.317.547.245.827a.665.665 0 0 1-.315.387.675.675 0 0 1-.318.067h-.536l-.34-.003-.014-.025c-.117-.207-.117-.207-.237-.413l-.192-.331c-.19-.335-.383-.67-.577-1.002l-.024-.042-.118-.202-.024-.038-.043-.073-.02-.033-.016-.029c-.013-.023-.013-.023-.013-.048l-.025-.012.036-.02a5 5 0 0 0 .351-.214l.094-.062c.146-.096.289-.195.43-.298l.021-.017c.121-.088.24-.182.356-.275l.026-.02.046-.038c.053-.042.053-.042.081-.042z" fill="#3A16B4"/><path d="m13.84 8.91.02.027c.027.033.055.064.083.094.04.044.078.088.116.136.04.05.083.099.128.147.053.057.104.116.152.177l.106.126a18.745 18.745 0 0 1 .474.582l.06.076c.31.397.31.397.45.595.068.1.137.198.208.296.121.171.236.346.35.523l.022.036c.19.293.368.592.536.897l.088.152c.073.127.141.257.205.389.03.063.063.124.095.184.08.153.155.307.227.464.16.34.31.683.455 1.03.179.425.35.853.513 1.284l.015.04.1.263c.025.069.053.134.08.2.127.3.127.3.177.433.018.046.038.091.059.135.025.053.048.108.07.16.066.152.137.299.206.448l.032.068.017.04.045.097c.027.063.058.126.088.187l.02.036.056.115.02.04c.089.177.18.354.282.525l.07.13c.04.075.083.148.128.22.02.031.02.031.02.057h.024l.026.049.014.028c.01.024.01.024.01.049l.039.013.025.088.038.013.013.05.038.025.017.043a.268.268 0 0 0 .071.096v.038h.025v.038l.038.013c.05.067.05.067.05.114l.038.012c.018.02.018.02.035.043l.016.023c.013.023.013.023.013.06l.038.013v.038l.037.013v.037l.038.013.067.082.018.026.038.046c.03.04.06.078.09.115.015.022.015.022.015.047l.022.008c.032.02.043.04.064.072.025.034.058.059.09.087a.597.597 0 0 1 .068.07c.08.095.171.184.267.263.02.018.02.018.032.056l.024.005c.035.01.043.029.064.058l.064.038v.025l.022.004c.048.015.086.048.127.077l.025.02.025.018.024.018.017.015v.025h.037v.025l.027.004a.3.3 0 0 1 .11.054 2.496 2.496 0 0 0 1.809.346l.106-.029c.03-.007.06-.015.09-.02a.624.624 0 0 0 .115-.036l.141-.057c.145-.056.284-.114.42-.19.037-.021.037-.021.063-.021l.012-.026.089.152c.067-.023.067-.023.127-.053l.03-.016.03-.018.031-.019c.236-.139.461-.296.679-.462l.02-.017c.092-.07.182-.144.27-.22.054-.046.11-.091.166-.135.026-.02.026-.02.049-.058l.24.417.025.042.154.265.018.029.033.053a.36.36 0 0 1 .043.099c-.013.046-.043.073-.077.104l-.022.02c-.044.044-.09.085-.139.127a1.59 1.59 0 0 1-.212.19c-.031.026-.063.051-.093.08a5.132 5.132 0 0 1-.618.45l-.084.054-.025.017-.064.036c-.048-.016-.052-.03-.076-.074l-.023-.04-.025-.042a37.698 37.698 0 0 0-.077-.14l-.124-.214-.18-.31-.02-.035-.017-.03-.015-.028c-.012-.021-.012-.021-.012-.047l-.021.012c-.426.21-.897.391-1.377.395h-.032c-.526.006-1.017-.098-1.475-.369l-.024-.012a3.793 3.793 0 0 1-.582-.43l-.032-.028-.095-.086-.021-.02a2.715 2.715 0 0 1-.253-.25l-.085-.093a3.9 3.9 0 0 1-.24-.282 9.758 9.758 0 0 1-.127-.162 11.392 11.392 0 0 1-1.017-1.643l-.023-.044a8.131 8.131 0 0 1-.244-.493 3.772 3.772 0 0 0-.098-.205 7.53 7.53 0 0 1-.147-.316l-.012-.027c-.07-.157-.137-.315-.204-.473l-.012-.029a5.957 5.957 0 0 1-.14-.351l-.071-.182a16.43 16.43 0 0 1-.16-.41 34.685 34.685 0 0 0-.775-1.873 9.304 9.304 0 0 0-.184-.396c-.027-.05-.051-.105-.076-.157a12.377 12.377 0 0 0-.52-.988 11.981 11.981 0 0 0-.507-.832 16.371 16.371 0 0 0-.84-1.175l-.086-.109-.105-.132a7.395 7.395 0 0 0-.209-.26l-.088-.107c-.099-.121-.2-.24-.304-.357l-.096-.11a7.54 7.54 0 0 0-.232-.26l-.103-.115c-.013-.017-.027-.03-.042-.046-.035-.036-.052-.054-.057-.106.017-.072.066-.136.105-.2z" fill="#911ECE"/><path d="M15.532 5.979c.05.05.097.1.143.151l.094.103c.066.07.13.142.19.216.025.033.052.063.078.095.07.08.134.163.198.247l.054.07c.152.202.298.41.437.621.11.164.215.33.316.5a20.531 20.531 0 0 1 1.462 2.987l.034.088c.315.798.601 1.607.86 2.425.049.16.095.32.142.48.028.098.057.194.089.291.037.117.069.239.1.359l.066.24.013.04.044.16c.07.25.134.5.196.754.03.12.06.243.096.363.025.089.047.18.07.27.03.125.063.25.096.373l.054.213c.027.107.056.213.086.32.019.066.036.134.053.201.04.168.087.334.139.498.107.386.276.753.5 1.086l.016.026a2.453 2.453 0 0 0 1.56 1.057 2.15 2.15 0 0 0 1.547-.361c.123-.09.24-.188.35-.293l.02-.02a2.53 2.53 0 0 0 .268-.301l.078-.096a.136.136 0 0 1 .05.07c0 .064-.027.091-.065.138l-.086.108-.02.024c-.416.511-.992.865-1.654.942a2.249 2.249 0 0 1-1.66-.513c-.703-.591-1.004-1.432-1.225-2.299l-.038-.14a188.49 188.49 0 0 1-.197-.77l-.006-.025a65.883 65.883 0 0 0-.822-2.942l-.01-.033a16.654 16.654 0 0 0-.129-.396l-.034-.101c-.07-.215-.142-.429-.214-.642-.08-.24-.167-.476-.262-.71a26.495 26.495 0 0 0-1.094-2.54 11.47 11.47 0 0 0-.242-.464l-.082-.155c-.067-.13-.14-.253-.213-.38l-.1-.174a9.73 9.73 0 0 0-.33-.54 14.375 14.375 0 0 0-.473-.699l-.02-.029a10.395 10.395 0 0 0-.339-.45l-.016-.021a5.058 5.058 0 0 0-.096-.119l-.022-.025-.04-.05c-.038-.045-.06-.077-.06-.14.012-.034.03-.058.05-.088z" fill="#B826DB"/><path d="M26.345 21.504a.883.883 0 0 1 .118.177l.012.024.053.095.19.328.116.202.025.043.248.427.023.04.019.035c.016.03.03.062.043.094a2.53 2.53 0 0 1-.244.225 1.816 1.816 0 0 0-.093.081c-.08.075-.168.139-.255.205l-.075.057a7.97 7.97 0 0 1-.594.405l-.032.019-.027.018-.026.016c-.019.01-.019.01-.044.01l-.035-.06-.023-.04-.572-.995-.023-.04-.024-.04-.022-.039-.044-.073-.021-.033-.02-.03c-.012-.027-.012-.027-.012-.053.018-.034.04-.046.072-.065l.038-.022.04-.026c.137-.082.266-.169.393-.265l.03-.021a6.52 6.52 0 0 0 .505-.426l.074-.068.056-.05.025-.026a.397.397 0 0 0 .106-.129z" fill="#8412CE"/><path d="M25.031 19.23a.377.377 0 0 1 .08.109l.025.043.013.022.068.122.013.025.13.222.215.373c.041.074.084.147.127.22l.025.043.047.078.022.034.019.032a.146.146 0 0 1 .012.092c-.015.02-.015.02-.036.038l-.024.02-.05.043-.08.063-.037.032-.12.097a6.95 6.95 0 0 1-.929.633l-.025.015c-.057.033-.057.033-.092.025a.3.3 0 0 1-.066-.09l-.025-.049-.017-.026a81.95 81.95 0 0 1-.623-1.083c-.012-.024-.012-.024-.037-.046l.025-.01c.57-.228.99-.572 1.34-1.077z" fill="#AB21D5"/><path d="M16.846 22.54c.174-.022.174-.022.237.026.028.037.053.074.079.113l.058.066.098.11c.099.113.201.22.307.328l.03.029c.053.054.108.105.165.154.1.096.204.188.314.273l.022.015c.808.652 1.772 1.122 2.802 1.294l.088.015c.114.02.227.035.344.048l.041.005c.211.02.423.03.636.029h.045c.246 0 .489-.013.734-.042l.038-.004c.473-.056.938-.16 1.39-.312l.042-.014a6.749 6.749 0 0 0 1.412-.631c.059-.037.059-.037.087-.037l.1.177a14.46 14.46 0 0 1-.63.341l-.04.02c-.222.11-.45.21-.681.296l-.044.016a7.062 7.062 0 0 1-1.522.388l-.026.004a6.243 6.243 0 0 1-.898.05h-.249a4.06 4.06 0 0 1-.688-.069l-.133-.021a3.024 3.024 0 0 1-.41-.089.96.96 0 0 0-.144-.031.92.92 0 0 1-.101-.036c-.05-.017-.101-.031-.152-.047a2.067 2.067 0 0 1-.245-.085 1.529 1.529 0 0 0-.126-.05c-.152-.054-.296-.126-.441-.194l-.03-.013a5.958 5.958 0 0 1-1.177-.754 3.055 3.055 0 0 1-.233-.197.641.641 0 0 0-.065-.054c-.116-.093-.218-.198-.323-.302a40.478 40.478 0 0 0-.16-.16l-.03-.03c-.05-.053-.1-.106-.149-.162l-.08-.088a2.922 2.922 0 0 1-.14-.168l-.106-.129a.4.4 0 0 1-.046-.078z" fill="#981FD1"/><path d="M25.827 20.607a.884.884 0 0 1 .094.135l.024.043.012.023.053.093.196.341.022.038.063.108.021.033.02.029a.14.14 0 0 1 .013.092.785.785 0 0 1-.07.074l-.02.02c-.045.044-.092.085-.14.127a1.696 1.696 0 0 1-.212.19c-.031.025-.063.05-.093.078a5.026 5.026 0 0 1-.618.45l-.084.055-.025.016-.064.037c-.048-.016-.052-.03-.076-.074l-.023-.04-.025-.043a30.936 30.936 0 0 0-.077-.138l-.123-.213c-.087-.148-.173-.3-.257-.45a.846.846 0 0 1 .106-.07l.033-.02.034-.018c.252-.144.492-.308.724-.486l.02-.017a5.64 5.64 0 0 0 .27-.22c.055-.046.11-.092.167-.135.025-.02.025-.02.035-.058z" fill="#9C1FD3"/><path d="M15.532 5.979c.05.05.097.1.143.151l.094.103c.066.07.13.142.19.216.025.033.052.063.078.095.07.08.134.163.198.247l.054.07c.152.202.298.41.437.621.11.164.215.33.316.5a20.531 20.531 0 0 1 1.462 2.987l.034.088c.315.8.601 1.611.86 2.432.126.408.126.408.126.46l-.165.09a3.198 3.198 0 0 1-.075-.22l-.01-.033-.045-.14c-.046-.15-.046-.15-.098-.299a1.918 1.918 0 0 1-.053-.165 7.5 7.5 0 0 0-.152-.465 7.251 7.251 0 0 0-.132-.361 1.89 1.89 0 0 1-.057-.17 28.465 28.465 0 0 0-1.221-2.873 11.47 11.47 0 0 0-.243-.464l-.082-.155c-.067-.13-.14-.253-.213-.38l-.1-.174a9.73 9.73 0 0 0-.33-.54 14.375 14.375 0 0 0-.473-.699l-.02-.029a10.395 10.395 0 0 0-.339-.45l-.016-.021a5.058 5.058 0 0 0-.096-.119l-.022-.025-.04-.05c-.038-.045-.06-.077-.06-.14.012-.034.03-.058.05-.088z" fill="#BF29DC"/><path d="m11.306 18.381.074.033c.335.146.647.34.924.579.138.114.269.237.392.366.103.101.199.21.287.325.165.202.319.413.46.631l.025.036c.018.029.018.029.018.054l.025.013-.043.075-.025.043-.02.033h-.026a5.907 5.907 0 0 0-.581-.808l-.018-.022a3.482 3.482 0 0 0-.247-.269l-.099-.098a2.503 2.503 0 0 0-.255-.23l-.025-.02a3.578 3.578 0 0 0-.885-.523l-.031-.013a3.095 3.095 0 0 0-.515-.163c-.132-.033-.268-.048-.401-.064l-.047-.007c-.063-.009-.129-.009-.193-.01h-.04a5.02 5.02 0 0 0-.895.055l-.043.006c-.164.03-.328.065-.49.107l-.048.013c-.1.025-.196.055-.29.09-.038.01-.038.01-.064-.002l.144-.252.023-.042a.305.305 0 0 1 .06-.072v.025l.025-.006c.31-.076.628-.135.947-.158l.03-.003c.61-.045 1.288.01 1.847.278z" fill="#7218B8"/><path d="m19.793 22.531.033.02.037.023.04.025c.759.463 1.6.733 2.493.728h.038c.556-.003 1.15-.078 1.663-.307l.088-.032c.265-.098.52-.221.762-.366.034-.019.034-.019.06-.019l.1.177c-.017.05-.046.06-.09.083l-.026.013-.08.042-.03.015a5.762 5.762 0 0 1-2.073.606l-.028.001a4.437 4.437 0 0 1-1.55-.141l-.035-.009a4.851 4.851 0 0 1-.922-.347 4.633 4.633 0 0 1-.67-.398l-.038-.026-.031-.021c-.025-.021-.025-.021-.038-.06h.025c.052-.006.101-.01.152-.026.052-.012.074-.006.12.019z" fill="#650FBA"/><path d="M10.82 14.14c.507.056.97.292 1.364.606l.022.016c.108.087.206.183.304.282l.02.018c.084.084.16.171.235.265l.06.07c.393.473.705 1.021.995 1.562l.054.101c.104.187.203.378.3.568a56.843 56.843 0 0 0 .385.747l.02.04.02.037a.127.127 0 0 1-.002.096c-.015.028-.015.028-.033.054l-.016.027-.014.02c-.042-.012-.05-.026-.075-.064a3.215 3.215 0 0 1-.05-.106l-.013-.03-.063-.123a18.366 18.366 0 0 0-.265-.527l-.076-.144a5.557 5.557 0 0 0-.129-.244l-.148-.278a6.636 6.636 0 0 0-.214-.391 7.541 7.541 0 0 0-.811-1.213l-.03-.038a4.095 4.095 0 0 0-.262-.282l-.034-.035a2.777 2.777 0 0 0-.243-.213l-.028-.022a2.792 2.792 0 0 0-1.24-.538l-.042-.008-.038-.006c-.029-.008-.029-.008-.054-.033a.308.308 0 0 1 .058-.143l.024-.041.019-.03z" fill="#9F20D4"/><path d="M12.298 11.575a7.266 7.266 0 0 1 1.006.878l.053.052.024.025a8.723 8.723 0 0 1 .676.816c.09.121.176.244.26.368l.015.022c.11.16.215.325.316.492l.02.033c.144.24.283.48.417.725l.017.033a24.759 24.759 0 0 1 .648 1.29l.02.038.016.036c.011.03.011.03.011.08-.016.036-.016.036-.038.074l-.021.038-.017.028h-.025l-.016-.036c-.357-.763-.357-.763-.747-1.508l-.067-.121c-.117-.215-.24-.426-.37-.634l-.024-.038a11.31 11.31 0 0 0-.333-.506 8.7 8.7 0 0 0-.507-.656 4.084 4.084 0 0 1-.086-.105c-.072-.089-.149-.168-.227-.25l-.105-.113a2.772 2.772 0 0 0-.228-.226l-.094-.086a4.039 4.039 0 0 0-.296-.252 3.525 3.525 0 0 0-.208-.163l-.032-.022-.062-.04c-.067-.048-.067-.048-.088-.089a.242.242 0 0 1 .046-.111l.026-.042.02-.03z" fill="#5710AF"/><path d="M15.532 5.979c.05.05.097.1.143.151l.094.103c.066.07.13.142.19.216.025.033.052.063.078.095.07.08.134.163.198.247l.054.07c.152.202.298.41.437.621.11.164.215.33.316.5.32.537.617 1.09.887 1.655a.18.18 0 0 1 .026.097c-.02.037-.056.046-.094.062l-.045.02-.035.014a1.88 1.88 0 0 1-.136-.247l-.058-.123-.012-.025a11.54 11.54 0 0 0-.301-.587c-.03-.05-.056-.103-.084-.156-.066-.129-.138-.252-.212-.379l-.1-.174a14.344 14.344 0 0 0-.802-1.238l-.021-.029a10.395 10.395 0 0 0-.339-.45l-.016-.021a5.058 5.058 0 0 0-.096-.119l-.022-.025-.04-.05c-.038-.045-.06-.077-.06-.14.012-.034.03-.058.05-.088z" fill="#C52BDE"/><path d="M28.114 24.574c.05.056.08.121.113.19a9.433 9.433 0 0 1-1.277.913l-.029.018-.025.017-.023.014c-.023.01-.023.01-.073.01l-.101-.19.042-.022c.45-.254.88-.54 1.288-.857l.028-.02.025-.018c.023-.017.023-.017.032-.055z" fill="#921DC0"/><path d="M25.688 20.367c.04.035.065.08.091.125l.014.023a.414.414 0 0 1 .043.1c-.014.05-.054.076-.095.108l-.103.086-.038.032-.12.097a6.95 6.95 0 0 1-.929.633l-.025.015c-.057.033-.057.033-.093.025-.043-.038-.061-.093-.085-.145l.021-.01c.095-.047.185-.1.27-.16l.024-.016a5.32 5.32 0 0 0 .507-.382l.02-.017c.153-.128.3-.262.441-.403l.035-.031c.027-.03.027-.03.022-.08z" fill="#A523D7"/><path d="m27.204 22.97.05.082c.016.037.02.055.013.094a.694.694 0 0 1-.073.073l-.023.02c-.055.05-.113.097-.17.143-.034.027-.066.055-.099.083-.303.265-.64.498-.986.704a.428.428 0 0 1-.101-.139c.013-.044.035-.06.074-.083l.03-.018.033-.017c.132-.076.257-.16.38-.248l.03-.02a6.66 6.66 0 0 0 .379-.29l.096-.078a4.23 4.23 0 0 0 .16-.141l.086-.076c.025-.021.05-.044.076-.07.02-.02.02-.02.045-.02z" fill="#B427DD"/><path d="M24.98 19.142a.136.136 0 0 1 .051.07c0 .064-.027.091-.065.138l-.02.027a5.043 5.043 0 0 1-.066.08l-.02.025a2.696 2.696 0 0 1-1.032.787l-.027.012c-.05.02-.085.03-.134.01-.02-.021-.02-.021-.037-.049l-.016-.025c-.01-.027-.01-.027.003-.065.035-.014.035-.014.083-.029.345-.114.658-.307.915-.564l.02-.02a2.53 2.53 0 0 0 .268-.301l.078-.096z" fill="#BF2ADF"/></svg>