<svg xmlns="http://www.w3.org/2000/svg" width="36" height="36" viewBox="0 0 36 36"><g fill="none" fill-rule="evenodd"><circle cx="18" cy="18" r="17" fill="#FFF"/><path fill="#4CC947" fill-rule="nonzero" d="M18 0C8.06 0 0 8.059 0 18s8.059 18 18 18 18-8.059 18-18S27.941 0 18 0zm8.849 22.864c-1.051 1.248-2.39 1.779-2.98 2.022-.292.12-.797.301-1.343.482l.934 3.483-2.145.575-.918-3.427-1.633.438.918 3.426-2.144.575-.918-3.427-4.218 1.13-.25-2.693 1.283-.344c.431-.115.6-.203.735-.422.135-.219.105-.49.049-.7l-2.378-8.873c-.148-.555-.234-.694-.566-.91-.332-.218-.943-.095-1.281-.004l-1.24.332-.596-2.226 4.218-1.13-.921-3.437 2.144-.574.92 3.436 1.634-.437-.921-3.437 2.144-.574.932 3.477c1.625-.329 2.896-.343 4.14.146 1.61.632 2 2.374 2.08 2.793.08.419.113 1.259-.112 1.866-.223.608-.968 1.355-.968 1.355s1.101-.059 1.98.296c.88.356 1.681 1.182 2.032 2.613s.44 2.922-.611 4.17zm-5.075-4.31c-.454-.094-1.419-.125-2.5.09-1.08.214-2.424.649-2.424.649l1.232 4.599s1.431-.351 2.364-.677c.933-.325 1.85-.828 2.27-1.23.417-.403.896-.982.614-2.034-.282-1.052-1.101-1.304-1.556-1.397zm-3.712-1.873c.773-.24 1.557-.643 2.069-1.134.512-.492.713-1.104.484-1.88-.23-.777-.927-1.298-1.882-1.333-.954-.034-1.55.104-2.224.274-.674.17-1.34.413-1.34.413l1.11 4.138s1.01-.239 1.783-.478z"/></g></svg>