<svg xmlns="http://www.w3.org/2000/svg" width="36" height="36" viewBox="0 0 36 36"><g fill="none" fill-rule="evenodd"><circle cx="18" cy="18" r="17" fill="#FFF"/><path fill="#E83355" d="M18 36C8.059 36 0 27.941 0 18S8.059 0 18 0s18 8.059 18 18-8.059 18-18 18zm2.114-8.811c4.035 0 6.746-2.461 6.73-6.098 0-1.333-.42-2.555-1.168-3.433l.016-.016c.747-.878 1.168-2.1 1.168-3.417 0-3.652-2.71-6.113-6.746-6.113h-5.671l-1.122 6.41H9.224l-.39 2.18h4.098l-.327 1.896H8.507l-.39 2.18h4.098l-1.122 6.395 9.021.016zm-6.434-2.21.747-4.202h2.43c4.145 0 6.233-.172 7.588-1.003.156.376.234.83.234 1.301 0 2.414-1.745 3.919-4.565 3.919l-6.434-.016zm1.121-6.396.343-1.881h1.714c4.596 0 5.811.282 6.777.94-.732.721-2.321.94-6.777.94H14.8zm.717-4.076.748-4.232h3.848c2.851 0 4.565 1.458 4.565 3.919 0 .501-.078.972-.25 1.363-1.448-.815-3.271-1.05-7.571-1.05h-1.34z"/></g></svg>