<svg width="36" height="36" viewBox="0 0 36 36" fill="none" xmlns="http://www.w3.org/2000/svg"><circle cx="18" cy="18" r="18" fill="#050921"/><path d="m26.775 24.68-3.52 1.887-8.23-.886.7-1.165-1.166-.7c-.583-.35-.373-3.403-.373-3.403-3.917-5.502-1.795-9.046-1.795-9.046-.91 4.243 5.082 6.202 5.082 6.202-1.189-2.705.443-4.127.443-4.127 1.305 3.17 2.844 3.288 2.844 3.288l1.515.116 1.982-2.005c-1.655-2.588.326-4.592.326-4.592.956 3.753 2.961 3.753 2.961 3.753l2.96.093L21.39 4.98a3.404 3.404 0 0 0-4.78 0L5.98 15.61a3.404 3.404 0 0 0 0 4.78l10.63 10.63a3.404 3.404 0 0 0 4.78 0l5.828-5.828-.443-.513z" fill="url(#a)"/><defs><linearGradient id="a" x1="15.03" y1="9.283" x2="21.651" y2="26.633" gradientUnits="userSpaceOnUse"><stop stop-color="#EB5F41"/><stop offset="1" stop-color="#E72A58"/></linearGradient></defs></svg>