<svg xmlns="http://www.w3.org/2000/svg" width="36" height="36" viewBox="0 0 36 36"><g fill="none" fill-rule="evenodd"><circle cx="18" cy="18" r="17" fill="#FFF"/><path fill="#F7931A" fill-rule="nonzero" d="M18 0C8.06 0 0 8.059 0 18s8.059 18 18 18 18-8.059 18-18S27.941 0 18 0zm5.305 26.397c-1.534.555-2.96.345-3.592.261a22.73 22.73 0 0 1-1.403-.254l-.934 3.483-2.144-.574.918-3.427-1.633-.437-.918 3.426-2.144-.574.918-3.427-4.218-1.13 1.13-2.457 1.283.343c.431.116.622.124.848.002.226-.122.336-.372.392-.582l2.377-8.872c.15-.556.144-.719-.035-1.073-.178-.354-.77-.553-1.108-.643l-1.24-.332.597-2.227 4.218 1.13.921-3.436 2.144.574-.92 3.437 1.632.438.921-3.437 2.144.575-.931 3.477c1.572.528 2.68 1.151 3.513 2.197 1.077 1.352.545 3.056.405 3.459s-.533 1.146-1.03 1.56c-.498.414-1.517.69-1.517.69s.983.499 1.567 1.246c.583.747.865 1.864.453 3.278-.41 1.415-1.08 2.75-2.614 3.306zm-2.24-6.27c-.347-.308-1.166-.818-2.209-1.172-1.043-.355-2.425-.65-2.425-.65L15.2 22.903s1.415.412 2.386.597c.97.185 2.016.208 2.58.068.563-.139 1.267-.401 1.549-1.453.282-1.052-.302-1.68-.649-1.988zm-2.279-3.479c.79.18 1.67.222 2.36.053.69-.17 1.17-.6 1.36-1.386.188-.787-.155-1.588-.964-2.095-.81-.507-1.395-.685-2.064-.875-.669-.19-1.366-.312-1.366-.312l-1.109 4.138s.994.298 1.783.477z"/></g></svg>