<svg width="36" height="36" viewBox="0 0 36 36" xmlns="http://www.w3.org/2000/svg"><g fill="none" fill-rule="evenodd"><path d="M18 .5C27.665.5 35.5 8.335 35.5 18S27.665 35.5 18 35.5.5 27.665.5 18 8.335.5 18 .5z" fill="#FFF"/><path d="M18 0c9.941 0 18 8.059 18 18s-8.059 18-18 18S0 27.941 0 18 8.059 0 18 0zm-.014 4c-.948 0-1.881.115-2.8.301-.905.187-1.78.46-2.628.818-.833.345-1.623.79-2.384 1.292A13.91 13.91 0 0 0 8.107 8.12a13.907 13.907 0 0 0-1.71 2.067 14.67 14.67 0 0 0-1.291 2.382 13.926 13.926 0 0 0 0 10.878c.344.833.79 1.622 1.292 2.383a13.907 13.907 0 0 0 1.709 2.066 13.91 13.91 0 0 0 2.067 1.708c.747.503 1.551.933 2.384 1.292a13.943 13.943 0 0 0 8.256.818c.905-.187 1.78-.46 2.628-.818.833-.345 1.623-.79 2.384-1.292a13.91 13.91 0 0 0 2.067-1.708 13.907 13.907 0 0 0 1.71-2.066 14.67 14.67 0 0 0 1.291-2.383A13.926 13.926 0 0 0 32 18.007a15.352 15.352 0 0 0-.302-2.827 13.857 13.857 0 0 0-.818-2.626 14.182 14.182 0 0 0-1.292-2.383 13.907 13.907 0 0 0-1.709-2.066 13.91 13.91 0 0 0-2.068-1.708 14.682 14.682 0 0 0-2.383-1.292A13.943 13.943 0 0 0 17.986 4zM18 5.765c6.749 0 12.234 5.483 12.234 12.228 0 6.76-5.47 12.227-12.234 12.227-6.763 0-12.234-5.482-12.234-12.227S11.251 5.765 18 5.765zm.69 3.617h-.374l-.365.013a10.373 10.373 0 0 0-3.857.948c-.675.316-1.306.704-1.895 1.149-.603.459-1.163.99-1.651 1.578a9.767 9.767 0 0 0-1.192 1.765c-.33.603-.589 1.25-.79 1.91a11.03 11.03 0 0 0-.343 1.59l-.045.404-.043.632v.373l.014.364c.031.606.113 1.202.245 1.788.158.718.402 1.407.703 2.067.36.79 1.006 1.952 1.968 2.827a11.105 11.105 0 0 0 6.522 2.377l.37.006h.646l.058-.005.057-.01.119-.004.053-.01h.086l.043-.004.044-.01h.043l.143-.015h.029l.226-.018.104-.025h.029l.13-.014h.028l.158-.029c.076-.01.153-.025.225-.043l.105-.029h.029l.143-.028h.015l.33-.086c-.98.03-1.83-.055-2.492-.164l-.24-.042-.324-.064-.146-.032c-1.58-.344-3.087-.961-4.365-2.023a8.84 8.84 0 0 1-3.188-6.875 8.35 8.35 0 0 1 1.967-5.339c1.569-1.856 3.77-2.87 6.05-3.001l.297-.012h.33V9.38zm-.03 2.454a8.06 8.06 0 0 0-2.541.416 7.986 7.986 0 0 0-2.829 1.636 8.271 8.271 0 0 0-1.077 1.163 7.918 7.918 0 0 0-.818 1.334c-.23.474-.417.962-.546 1.464a8.15 8.15 0 0 0 .172 4.78 7.934 7.934 0 0 0 1.724 2.855c.703.761 1.522 1.335 2.512 1.866 1.034.545 2.312.832 3.648 1.019.352.047.753.08 1.149.102l.393.018.732.02.41.004.167-.062.51-.193.472-.19c.182-.086.364-.173.546-.267l.342-.19.221-.132.485-.315.082-.058.033-.029-.252.045-.448.075-.384.056-.336.04-.154.014-.293.019-.213.007-.214.003-.298-.003-.51-.012a14.611 14.611 0 0 1-2.11-.23c-2.958-.53-5.5-2.339-6.433-5.065-1.134-3.316.603-6.903 3.906-7.994a6.112 6.112 0 0 1 1.953-.316 6.57 6.57 0 0 1 2.175.376l.294.112.804-1.708-.244-.096-.488-.177a8.462 8.462 0 0 0-2.541-.387zm.158 2.397a5.826 5.826 0 0 0-5.83 5.826c0 .79.173 1.58.503 2.325a7.01 7.01 0 0 0 1.25 1.852c.933 1.004 2.21 1.808 3.575 2.267 1.22.402 2.977.566 4.723.482l.542-.033a7.61 7.61 0 0 0 .427-.043l.216-.03.35-.062.404-.084a10.983 10.983 0 0 0 1.465-1.397l.259-.31-1.412.137-.412.034-.695.042-.635.024-.465.006c-1.278 0-2.843-.115-4.178-.56-2.068-.688-4.02-2.454-4.02-4.635a3.93 3.93 0 0 1 3.933-3.933 3.94 3.94 0 0 1 3.32 1.825l.112.185 1.709-.847-.12-.213a5.415 5.415 0 0 0-.9-1.15 5.826 5.826 0 0 0-4.121-1.708z" fill="#000" fill-rule="nonzero"/></g></svg>