<svg width="36" height="36" fill="none" xmlns="http://www.w3.org/2000/svg"><circle cx="18" cy="18" r="18" fill="#D9B432"/><path d="M8.49 22.677c0 1.541 1.28 2.798 2.85 2.798s2.85-1.257 2.85-2.798h2.618c0 2.897-2.326 5.25-5.248 5.363l-.22.004c-3.024 0-5.467-2.398-5.467-5.367H8.49zm16.17-7.139c3.49 0 6.34 2.798 6.34 6.282 0 3.426-2.85 6.225-6.34 6.225-3.49 0-6.398-2.8-6.398-6.226 0-3.483 2.85-6.28 6.398-6.28zm0 2.512c-2.094 0-3.781 1.656-3.781 3.713 0 1.999 1.687 3.654 3.78 3.654 2.095 0 3.78-1.598 3.78-3.654 0-2-1.685-3.655-3.78-3.713zM11.34 8c3.49 0 6.398 2.798 6.398 6.281-.056 3.35-2.783 6.1-6.166 6.221l-.233.004C7.85 20.506 5 17.708 5 14.281 5 10.855 7.85 8 11.34 8zm-.058 2.57c-2.095 0-3.781 1.655-3.781 3.711 0 2.057 1.686 3.713 3.781 3.713 2.026 0 3.67-1.551 3.775-3.515l.005-.198-.005-.197c-.1-1.964-1.693-3.515-3.775-3.515zM24.66 8c3.024 0 5.467 2.398 5.467 5.368 0 .913-.233 1.77-.64 2.57-.698-.514-1.453-.971-2.268-1.257.232-.4.35-.856.35-1.313 0-1.542-1.28-2.798-2.851-2.798s-2.85 1.256-2.85 2.798c0 .457.116.913.349 1.313-.815.286-1.63.686-2.269 1.256-.419-.72-.602-1.485-.635-2.297l-.005-.273C19.192 10.397 21.635 8 24.66 8z" fill="#fff"/></svg>