<svg height="36" viewBox="0 0 36 36" width="36" xmlns="http://www.w3.org/2000/svg"><g fill="none" fill-rule="evenodd"><circle cx="18" cy="18" fill="#1fc7d4" fill-rule="nonzero" r="18"/><path d="M9.675 9.1c-.41-2.132 1.23-4.1 3.363-4.1 1.886 0 3.445 1.558 3.445 3.445v4.265c.492 0 .984-.082 1.476-.082s.902 0 1.394.082V8.445C19.353 6.558 20.912 5 22.798 5c2.133 0 3.773 1.968 3.445 4.1l-.902 5.004C28.539 15.498 31 17.96 31 20.994v1.886c0 2.543-1.64 4.675-4.019 6.07-2.378 1.476-5.495 2.296-9.022 2.296s-6.644-.82-9.022-2.296C6.64 27.555 5 25.423 5 22.88v-1.886c0-3.035 2.379-5.496 5.577-6.89zm14.435 5.66 1.067-5.905c.246-1.476-.82-2.87-2.379-2.87a2.38 2.38 0 0 0-2.378 2.378v5.413c-.329-.082-.739-.082-1.067-.082-.492 0-.902-.082-1.394-.082-.492 0-.984 0-1.476.082-.328 0-.739.082-1.067.082V8.445a2.38 2.38 0 0 0-2.378-2.379c-1.476 0-2.625 1.395-2.297 2.87l1.067 5.906c-3.445 1.313-5.742 3.61-5.742 6.234v1.886c0 4.02 5.331 7.3 11.893 7.3s11.893-3.28 11.893-7.3v-1.886c.082-2.707-2.215-5.003-5.742-6.316z" fill="#633001"/><path d="M29.934 22.88c0 4.02-5.331 7.3-11.893 7.3S6.148 26.9 6.148 22.88v-1.886h23.868v1.886z" fill="#fedc90" fill-rule="nonzero"/><path d="M10.741 8.937c-.328-1.476.82-2.87 2.297-2.87a2.38 2.38 0 0 1 2.378 2.378v5.413c.82-.082 1.64-.164 2.543-.164.82 0 1.64.082 2.46.164V8.445a2.38 2.38 0 0 1 2.38-2.379c1.475 0 2.624 1.395 2.378 2.87l-1.067 5.906c3.445 1.313 5.824 3.61 5.824 6.234 0 4.019-5.331 7.3-11.893 7.3s-11.893-3.281-11.893-7.3c0-2.625 2.297-4.921 5.742-6.234z" fill="#d1884f"/><path d="M14.678 20.502c0 1.066-.574 1.968-1.312 1.968s-1.312-.902-1.312-1.968c0-1.067.574-1.969 1.312-1.969s1.312.902 1.312 1.969zm9.104 0c0 1.066-.574 1.968-1.312 1.968-.738 0-1.312-.902-1.312-1.968 0-1.067.574-1.969 1.312-1.969.738 0 1.312.902 1.312 1.969z" fill="#633001" fill-rule="nonzero"/></g></svg>