<svg height="36" viewBox="0 0 36 36" width="36" xmlns="http://www.w3.org/2000/svg"><g fill="none"><circle cx="18" cy="18" fill="#fbcc5c" r="18"/><g fill="#fff"><path d="M15.474 27.474c3.837 0 6.947-3.11 6.947-6.948s-3.11-6.947-6.947-6.947a6.947 6.947 0 1 0 0 13.895zm0 2.526a9.474 9.474 0 1 1 0-18.948 9.474 9.474 0 0 1 0 18.948z"/><path d="M20.526 22.421a6.947 6.947 0 0 0 6.948-6.947c0-3.838-3.11-6.948-6.948-6.948s-6.947 3.11-6.947 6.948a6.947 6.947 0 0 0 6.947 6.947zm0 2.526a9.474 9.474 0 1 1 0-18.947 9.474 9.474 0 0 1 0 18.947z"/><path d="M20.84 24.947a6.916 6.916 0 0 0 1.376-2.73c1-.25 1.933-.72 2.731-1.377a9.404 9.404 0 0 1-.737 3.372 9.43 9.43 0 0 1-3.37.735zm-7.056-11.163c-1 .25-1.933.72-2.731 1.376a9.379 9.379 0 0 1 .737-3.37 9.499 9.499 0 0 1 3.37-.737 6.916 6.916 0 0 0-1.376 2.73z"/></g></g></svg>