<svg width="36" height="36" fill="none" xmlns="http://www.w3.org/2000/svg"><circle cx="18" cy="18" r="18" fill="#fff"/><path d="M29.354 16.294h-1.445v5.011h1.445v-2.373c0-.528.173-.844.49-1.055.336-.216.748-.31 1.156-.264v-1.398c-.838 0-1.387.317-1.646.976v-.896zM6.1 20.383c.751.712 1.704 1.055 2.86 1.055.693 0 1.329-.132 1.935-.448a3.163 3.163 0 0 0 1.358-1.187l-1.3-.712a1.92 1.92 0 0 1-.809.739c-.362.183-.77.274-1.184.263-.751 0-1.358-.21-1.82-.633a2.269 2.269 0 0 1-.515-.77 2.113 2.113 0 0 1-.15-.891 2.255 2.255 0 0 1 .665-1.662c.24-.214.524-.381.837-.49a2.62 2.62 0 0 1 .983-.143c.924 0 1.589.317 1.993 1.003l1.3-.739a3.351 3.351 0 0 0-1.358-1.187c-.577-.316-1.242-.448-1.935-.448-1.156 0-2.109.343-2.889 1.055a3.62 3.62 0 0 0-.819 1.208 3.355 3.355 0 0 0-.25 1.403c0 1.055.347 1.899 1.127 2.584H6.1zm12.219-1.055.058-.527c0-.739-.29-1.371-.78-1.873a2.606 2.606 0 0 0-.915-.6 2.818 2.818 0 0 0-1.107-.19c-.838 0-1.531.263-2.051.79a2.598 2.598 0 0 0-.61.863 2.41 2.41 0 0 0-.199 1.01c0 .765.26 1.398.809 1.899.549.501 1.27.738 2.195.738 1.04 0 1.849-.343 2.369-1.055l-1.127-.606c-.15.165-.341.296-.556.383-.216.087-.45.127-.686.118-.837 0-1.357-.317-1.53-.95h4.13zm-4.16-1.002c.174-.66.665-1.002 1.445-1.002.75 0 1.184.343 1.357 1.002H14.16zm6.442 2.98V14h-1.415v7.305h1.444-.029zm6.47-1.977.058-.528c0-.739-.289-1.371-.809-1.873-.52-.527-1.155-.79-1.993-.79-.866 0-1.53.263-2.08.79a2.6 2.6 0 0 0-.61.863 2.41 2.41 0 0 0-.198 1.01c0 .765.289 1.398.837 1.899.55.501 1.271.738 2.167.738 1.069 0 1.877-.343 2.397-1.055l-1.155-.606a1.433 1.433 0 0 1-.54.386 1.564 1.564 0 0 1-.673.115c-.867 0-1.358-.317-1.56-.95h4.16zm-4.16-1.003c.174-.66.665-1.002 1.445-1.002.722 0 1.156.343 1.358 1.002h-2.802z" fill="#000"/></svg>