<svg width="36" height="36" xmlns="http://www.w3.org/2000/svg"><defs><linearGradient x1="89%" y1="153.4%" x2="64.7%" y2="-39.2%" id="a"><stop stop-color="#194AAD" offset="10%"/><stop stop-color="#248FCB" offset="50%"/><stop stop-color="#2BBFDF" offset="80%"/></linearGradient><linearGradient x1="46.8%" y1="-77%" x2="14.4%" y2="179.1%" id="b"><stop stop-color="#194AAD" offset="10%"/><stop stop-color="#248FCB" offset="50%"/><stop stop-color="#2BBFDF" offset="80%"/></linearGradient></defs><g fill="none"><circle fill="#0E142B" cx="18" cy="18" r="18"/><path d="M18 0a18 18 0 1 1 0 36 18 18 0 0 1 0-36z" fill="#00467A"/><path d="M7.8 15.7c-.3 0-.5.1-.5.4v8.3c0 .4.2.5.5.5 4 0 8.9-3.5 12.9-6.3V9.1c-4 2.7-9 6.6-12.9 6.6z" fill="url(#a)"/><path d="M28.8 19.4c.3 0 .5-.2.5-.5v-8.3c0-.3-.2-.4-.5-.4-4 0-8.9 3.4-12.9 6.2V26c4-2.7 9-6.6 12.9-6.5z" fill="url(#b)"/><path d="M20.7 18.6v-5.4c-1.7 1-3.3 2.1-4.8 3.2v5.4c1.7-1 3.3-2.1 4.8-3.2z" fill="#194AAD"/></g></svg>