<svg width="36" height="36" fill="none" xmlns="http://www.w3.org/2000/svg"><circle cx="18" cy="18" r="18" fill="#F2F4F7"/><path d="M27.616 25.294c-.658 0-1.215.458-1.355 1.095l-5.228-.249c.02-.1.03-.199.03-.299 0-.179-.03-.358-.08-.537l1.902-1.096a1.415 1.415 0 0 0 1.922.26 1.402 1.402 0 0 0 .359-1.903 1.413 1.413 0 0 0-1.882-.458 1.404 1.404 0 0 0-.558 1.852l-1.842 1.066a1.923 1.923 0 0 0-2.47-.956 1.929 1.929 0 0 0-1.085 2.42l-3.426.826a1.905 1.905 0 0 0-.548-1.245l.618-.856a1.395 1.395 0 0 0 1.045-2.58 1.396 1.396 0 0 0-1.822.598 1.404 1.404 0 0 0 .498 1.853l-.568.786a1.957 1.957 0 0 0-1.404-.368l-.587-3.356a1.916 1.916 0 0 0 1.464-1.464 1.915 1.915 0 0 0-.717-1.942 1.915 1.915 0 0 0-2.062-.17l-1.484-2.897c.32-.16.578-.408.767-.707l1.235.329c-.01.07-.02.13-.02.199 0 .717.548 1.324 1.265 1.394a1.39 1.39 0 0 0 1.503-1.135 1.384 1.384 0 0 0-.995-1.594 1.392 1.392 0 0 0-1.683.847l-1.165-.309c.159-.378.189-.796.09-1.195l3.435-1.583a1.932 1.932 0 0 0 2.629.368 1.912 1.912 0 0 0 .498-2.599l2.19-2.14c.27.168.578.278.887.298v.946a1.388 1.388 0 0 0 .15 2.768c.736 0 1.344-.577 1.384-1.314a1.383 1.383 0 0 0-1.235-1.454v-.946a1.9 1.9 0 0 0 .776-.23l2.4 2.74a1.936 1.936 0 0 0 .09 2.45 1.933 1.933 0 0 0 3.256-1.942l.747-.419a1.384 1.384 0 0 0 1.892.21 1.38 1.38 0 0 0-1.534-2.29 1.39 1.39 0 0 0-.517 1.831l-.707.398a1.92 1.92 0 0 0-3.017-.458l-2.35-2.679c.228-.179.418-.418.547-.677l2.061.339a1.37 1.37 0 0 0 1.574 1.055 1.379 1.379 0 0 0 1.145-1.513 1.387 1.387 0 0 0-1.444-1.235 1.386 1.386 0 0 0-1.315 1.374l-1.912-.318a1.939 1.939 0 0 0-1.035-2.3 1.92 1.92 0 0 0-2.42.686 1.924 1.924 0 0 0 .329 2.5L15.706 9.45a1.927 1.927 0 0 0-1.295-.657V7.339a1.39 1.39 0 0 0 1.235-1.454 1.37 1.37 0 0 0-1.374-1.304c-.737 0-1.345.577-1.385 1.314a1.383 1.383 0 0 0 1.235 1.454v1.444a1.934 1.934 0 0 0-1.553 1.016 1.933 1.933 0 0 0 .03 1.862l-3.346 1.533a1.91 1.91 0 0 0-.548-.737l1.304-2.35c.12.03.23.05.349.05.707 0 1.295-.528 1.384-1.225a1.387 1.387 0 0 0-1.045-1.513 1.387 1.387 0 0 0-.976 2.579l-1.265 2.29a1.925 1.925 0 0 0-2.619 2.669 1.93 1.93 0 0 0 2.23.827l1.504 2.937a1.905 1.905 0 0 0-.737 1.155l-1.095-.318c.03-.11.04-.23.04-.339a1.38 1.38 0 0 0-1.225-1.374A1.394 1.394 0 0 0 5.04 18.91c-.169.688.21 1.385.877 1.624a1.39 1.39 0 0 0 1.712-.677l1.166.338v.09c0 .657.328 1.264.886 1.613l-.747.976a1.379 1.379 0 0 0-1.902.07 1.378 1.378 0 0 0-.04 1.902 1.38 1.38 0 0 0 1.902.14 1.387 1.387 0 0 0 .25-1.893l.806-1.056c.239.11.508.16.776.16.04 0 .08 0 .12-.01l.597 3.376a1.951 1.951 0 0 0-1.384 1.792 1.924 1.924 0 0 0 1.285 1.862 1.92 1.92 0 0 0 2.17-.647l2.79 1.245c-.02.1-.04.209-.04.308a1.39 1.39 0 0 0 1.234 1.385 1.389 1.389 0 0 0 1.514-1.066 1.395 1.395 0 0 0-.896-1.623 1.386 1.386 0 0 0-1.713.707l-2.719-1.215c.12-.219.2-.458.22-.707l3.544-.866c.27.498.747.846 1.305.966.558.11 1.135-.03 1.573-.379l1.325 1.146a1.386 1.386 0 0 0 .617 1.812c.657.348 1.464.12 1.842-.518a1.4 1.4 0 0 0-.408-1.872 1.392 1.392 0 0 0-1.892.309l-1.265-1.086c.19-.199.329-.448.418-.707l5.268.259c.01.767.628 1.374 1.395 1.374.766 0 1.384-.627 1.374-1.384 0-.747-.617-1.364-1.384-1.364z" fill="#FF473E"/></svg>