<svg xmlns="http://www.w3.org/2000/svg" width="36" height="36" fill="none"><circle cx="18" cy="18" r="18" fill="#000"/><path fill="#fff" fill-rule="evenodd" d="M18.8 5c.2 0 .3.2.4.3l3.2 8.5a.5.5 0 0 1-.5.7H11a.5.5 0 0 1-.4-.9l7.7-8.4c.1-.2.3-.2.5-.2zm-6.6 8.4h9l-2.7-6.9-6.3 7zM14 22c.3-.1.6 0 .7.3l2.8 7.6 4-4.3a.5.5 0 1 1 .7.7l-4.5 5a.5.5 0 0 1-.9-.2l-3.1-8.5c-.1-.2 0-.5.3-.6z" clip-rule="evenodd"/><path fill="#fff" fill-rule="evenodd" d="m21.3 25.6 3.3-3.6.8.8-3.3 3.5-.8-.7z" clip-rule="evenodd"/><path fill="#fff" fill-rule="evenodd" d="m5 13.7.5-.3h11c.2 0 .4.2.4.4l3 8h9.8L27 14.6h-5a.5.5 0 0 1 0-1h5.4c.2 0 .4 0 .5.3l3.2 8.4a.5.5 0 0 1-.5.7h-11a.5.5 0 0 1-.5-.3l-3-8.1H6.3L9 21.9h5a.5.5 0 1 1 0 1H8.7a.5.5 0 0 1-.5-.3L5 14.2v-.5z" clip-rule="evenodd"/><path fill="#fff" fill-rule="evenodd" d="m13.7 22 7.7-8.4.8.7-7.7 8.5-.8-.8z" clip-rule="evenodd"/></svg>