<svg xmlns="http://www.w3.org/2000/svg" width="36" height="36" viewBox="0 0 36 36"><g fill="none" fill-rule="evenodd"><circle cx="18" cy="18" r="17" fill="#FFF"/><path fill="#008CE3" fill-rule="nonzero" d="M18 0c9.941 0 18 8.059 18 18s-8.059 18-18 18S0 27.941 0 18 8.059 0 18 0zm2.742 10.118H13.67l-.58 3.269 6.377.012c3.142 0 4.07 1.135 4.046 3.025-.012.973-.429 2.608-.614 3.14-.487 1.415-1.473 3.037-5.206 3.026H11.49l-.591 3.28h7.049c2.481 0 3.548-.29 4.66-.811 2.482-1.148 3.966-3.593 4.557-6.792.893-4.764-.208-8.149-6.423-8.149zm-2.875 6.236h-7.235c-1.855 0-2.122 1.206-2.296 1.936-.232.95-.301 1.344-.301 1.344h7.235c1.855 0 2.121-1.205 2.295-1.935.232-.95.302-1.345.302-1.345z"/></g></svg>