<svg width="36" height="36" fill="none" xmlns="http://www.w3.org/2000/svg"><circle cx="18" cy="18" r="18" fill="#FFE804"/><path fill-rule="evenodd" clip-rule="evenodd" d="M18.248 5.76c.792 0 1.512 1.224 1.512 2.664v.072c.432-.504.936-.792 1.368-.648.432.144.576.72.504 1.44 0 .36-.072.72-.216 1.08-.072.216-.216.432-.288.576 5.76 1.44 9.864 6.408 9.792 14.976h-3.528c.072-7.272-4.032-10.872-9.36-10.944C12.2 14.832 8.96 18.864 8.6 25.92H5c.432-8.64 4.032-13.824 10.368-14.904-.072-.144-.288-.432-.36-.648-.504-1.08-.432-2.16.144-2.448.432-.216 1.152.144 1.584.792v-.288c.072-1.44.72-2.664 1.512-2.664zm-3.24 13.392c.432 0 .792.432.792.864v2.16c0 .504-.36.864-.792.864-.432 0-.792-.432-.792-.864v-2.16c.072-.504.36-.864.792-.864zm6.192 0c.432 0 .792.432.792.864v2.16c0 .504-.36.864-.792.864-.432 0-.792-.432-.792-.864v-2.16c.072-.504.36-.864.792-.864z" fill="#000"/></svg>