<svg xmlns="http://www.w3.org/2000/svg" width="36" height="36" viewBox="0 0 36 36"><g fill="none" fill-rule="evenodd"><circle cx="18" cy="18" r="17" fill="#FFF"/><path fill="#B29830" d="M18 36C8.059 36 0 27.941 0 18S8.059 0 18 0s18 8.059 18 18-8.059 18-18 18zm-6.828-12.576H8.859a.422.422 0 0 0-.421.422v4c0 .233.188.422.421.422h11.59c3.736 0 8.253-3.14 8.253-9.462v-1.47c0-6.321-4.517-9.461-8.253-9.461H8.859a.422.422 0 0 0-.421.422v4c0 .233.188.422.421.422h2.313v10.705zm5.748 0v-10.8l1.336-.001c.905 0 1.348 0 1.376.005.127.02.337.119.513.24.52.361 1.008.956 1.369 1.672.41.811.655 1.765.727 2.824.02.298.026.807.012 1.09-.053 1.113-.276 2.066-.677 2.887-.41.842-.998 1.491-1.66 1.834-.23.12-.444.19-.69.231-.08.013-.09.013-1.192.015l-1.114.003z"/></g></svg>