<svg width="36" height="36" xmlns="http://www.w3.org/2000/svg"><g fill="none" fill-rule="evenodd"><circle fill="#0D022B" fill-rule="nonzero" cx="18" cy="18" r="18"/><path d="m22.225 24.91 2.686 2.705c-2.066 1.577-4.357 2.403-6.892 2.422-2.427.018-4.65-.71-6.653-2.183l-.314-.24 2.704-2.685c1.277.902 2.704 1.315 4.263 1.315a7.512 7.512 0 0 0 3.93-1.155l.276-.178zm-13.878.846c1.033 0 1.878.845 1.878 1.896 0 1.033-.845 1.897-1.878 1.897a1.887 1.887 0 0 1-1.878-1.897c0-1.051.846-1.896 1.878-1.896zm19.343 0c1.033 0 1.897.845 1.897 1.896a1.903 1.903 0 0 1-1.897 1.897 1.903 1.903 0 0 1-1.897-1.897c0-1.051.845-1.896 1.897-1.896zm-16.92-.545a.412.412 0 0 1 .131.32.49.49 0 0 1-.131.319.453.453 0 0 1-.243.124l-.076.007c-.094.019-.207-.038-.32-.131a.412.412 0 0 1-.131-.32.49.49 0 0 1 .131-.319.465.465 0 0 1 .639 0zm14.479 0c.169-.169.469-.169.657 0 .094.094.15.188.15.32 0 .13-.056.225-.15.319-.113.093-.226.15-.32.131a.585.585 0 0 1-.337-.131c-.094-.094-.15-.188-.15-.32 0-.131.056-.225.15-.319zM8.366 11.127l2.686 2.685c-.864 1.277-1.277 2.686-1.277 4.207a7.43 7.43 0 0 0 1.098 3.923l.179.283-2.667 2.742C6.789 22.864 6 20.554 6 18.037c0-2.426.712-4.615 2.135-6.599l.231-.311zm19.211-.094C29.211 13.117 30.018 15.446 30 18c0 2.39-.746 4.578-2.19 6.561l-.233.312-2.704-2.685c.826-1.259 1.258-2.63 1.277-4.132.035-1.437-.355-2.776-1.11-4.017l-.167-.264 2.704-2.742zm-3.568 12.92a.465.465 0 0 1 .639 0 .49.49 0 0 1 .131.32.42.42 0 0 1-.082.269l-.05.05c-.074.093-.187.13-.319.13a.453.453 0 0 1-.319-.13.453.453 0 0 1-.131-.32c0-.131.037-.225.131-.32zm-11.98 0c.093.094.15.188.15.32a.401.401 0 0 1-.15.318.585.585 0 0 1-.339.132.42.42 0 0 1-.27-.082l-.05-.05a.401.401 0 0 1-.15-.319c0-.131.057-.225.15-.32.189-.168.49-.168.658 0zm1.276-1.258a.49.49 0 0 1 .132.319.453.453 0 0 1-.132.32.412.412 0 0 1-.32.13.452.452 0 0 1-.267-.081l-.051-.05c-.094-.075-.132-.188-.132-.32a.49.49 0 0 1 .132-.318.465.465 0 0 1 .638 0zm9.37 0a.465.465 0 0 1 .64 0 .49.49 0 0 1 .13.319.42.42 0 0 1-.08.27l-.05.05c-.076.093-.207.13-.32.13a.412.412 0 0 1-.32-.13.453.453 0 0 1-.13-.32.49.49 0 0 1 .13-.32zm-8.112-1.259a.453.453 0 0 1 .132.32.49.49 0 0 1-.132.319.412.412 0 0 1-.319.131c-.131 0-.207-.056-.32-.131a.453.453 0 0 1 0-.639.465.465 0 0 1 .64 0zm6.93 0a.465.465 0 0 1 .638 0 .453.453 0 0 1 0 .639.49.49 0 0 1-.319.131.412.412 0 0 1-.32-.131.49.49 0 0 1-.13-.32.46.46 0 0 1 .13-.319zM15.84 20.16c.094.094.15.188.15.32 0 .131-.056.225-.15.319a.482.482 0 0 1-.338.131.392.392 0 0 1-.298-.08l-.059-.051a.401.401 0 0 1-.15-.32c0-.13.057-.225.15-.319a.54.54 0 0 1 .695 0zm4.395 0a.465.465 0 0 1 .638 0 .49.49 0 0 1 .131.32.453.453 0 0 1-.131.319.452.452 0 0 1-.259.134l-.06-.003a.412.412 0 0 1-.32-.131.49.49 0 0 1-.13-.32.49.49 0 0 1 .13-.319zm-3.155-1.258a.412.412 0 0 1 .131.32.49.49 0 0 1-.131.319.355.355 0 0 1-.243.127l-.077.004c-.112.019-.225-.019-.319-.131a.453.453 0 0 1-.131-.32.49.49 0 0 1 .131-.319.465.465 0 0 1 .639 0zm1.859 0c.169-.169.47-.169.657 0 .094.094.15.188.15.32a.404.404 0 0 1-.098.27l-.052.049a.365.365 0 0 1-.259.136l-.06-.005a.482.482 0 0 1-.338-.131c-.094-.094-.15-.188-.15-.32 0-.131.056-.225.15-.319zm-1.24-1.183a.465.465 0 0 1 .639 0 .49.49 0 0 1 .131.32.412.412 0 0 1-.131.319.453.453 0 0 1-.639 0 .49.49 0 0 1-.131-.32c0-.131.037-.225.131-.319zm-1.258-1.277a.465.465 0 0 1 .639 0 .49.49 0 0 1 .131.32c0 .13-.037.244-.131.319a.49.49 0 0 1-.32.131.453.453 0 0 1-.319-.131.49.49 0 0 1-.131-.32c0-.131.037-.225.131-.319zm3.118 0a.412.412 0 0 1 .131.32.49.49 0 0 1-.131.319.453.453 0 0 1-.32.131.49.49 0 0 1-.319-.131c-.094-.075-.131-.188-.131-.32a.49.49 0 0 1 .131-.319.465.465 0 0 1 .639 0zm1.314-1.258c.094.075.131.188.131.32a.453.453 0 0 1-.131.318.355.355 0 0 1-.243.127l-.076.005a.318.318 0 0 1-.32-.132c-.093-.075-.13-.187-.13-.319a.49.49 0 0 1 .13-.319.465.465 0 0 1 .639 0zm-5.728 0a.49.49 0 0 1 .658 0c.094.094.15.188.15.32a.401.401 0 0 1-.15.318.31.31 0 0 1-.25.136l-.07-.004a.482.482 0 0 1-.338-.132.401.401 0 0 1-.15-.319c0-.131.057-.244.15-.319zm6.986-1.258a.4.4 0 0 1 .15.319.401.401 0 0 1-.15.32.482.482 0 0 1-.338.13c-.131 0-.244-.018-.357-.13a.401.401 0 0 1-.15-.32c0-.131.057-.225.15-.32a.54.54 0 0 1 .695 0zm-8.206 0a.465.465 0 0 1 .638 0 .49.49 0 0 1 .132.319.453.453 0 0 1-.132.32c-.094.112-.206.13-.319.13a.412.412 0 0 1-.32-.13.453.453 0 0 1 0-.64zm9.408-1.258a.453.453 0 0 1 .132.319.49.49 0 0 1-.132.32.412.412 0 0 1-.32.13.453.453 0 0 1-.318-.13.453.453 0 0 1-.132-.32.49.49 0 0 1 .132-.32.465.465 0 0 1 .638 0zm-10.666 0a.465.465 0 0 1 .638 0 .49.49 0 0 1 .132.319.453.453 0 0 1-.132.32.533.533 0 0 1-.32.13.412.412 0 0 1-.318-.13.49.49 0 0 1-.132-.32c0-.132.056-.244.132-.32zm11.98-1.24a.49.49 0 0 1 .132.32.49.49 0 0 1-.131.319.49.49 0 0 1-.32.131.49.49 0 0 1-.319-.131.49.49 0 0 1-.131-.32.49.49 0 0 1 .131-.319.465.465 0 0 1 .639 0zm-13.314 0a.54.54 0 0 1 .695 0c.094.094.15.188.15.32 0 .13-.056.225-.15.319a.744.744 0 0 1-.357.131.585.585 0 0 1-.338-.131c-.094-.094-.15-.188-.15-.32 0-.131.056-.225.15-.319zM18 6c2.408 0 4.596.729 6.629 2.186l.32.237-2.705 2.704C20.929 10.282 19.52 9.868 18 9.868c-1.447.018-2.765.36-3.969 1.084l-.275.175-2.686-2.704C13.136 6.808 15.465 6 18 6zm7.906 4.131c.094.094.15.188.15.32 0 .131-.056.225-.15.319a.585.585 0 0 1-.338.131.379.379 0 0 1-.357-.131c-.094-.094-.15-.188-.15-.32 0-.13.056-.225.15-.319a.54.54 0 0 1 .695 0zm-15.775 0a.465.465 0 0 1 .639 0 .49.49 0 0 1 .131.32.49.49 0 0 1-.131.319c-.075.113-.188.15-.32.131a.453.453 0 0 1-.319-.131.49.49 0 0 1-.131-.32c0-.13.038-.225.131-.319zm17.596-3.718c1.033 0 1.878.845 1.878 1.897a1.887 1.887 0 0 1-1.878 1.897A1.887 1.887 0 0 1 25.85 8.31c0-1.052.845-1.897 1.877-1.897zm-19.417 0c1.033 0 1.897.845 1.897 1.878a1.887 1.887 0 0 1-1.897 1.878c-1.033 0-1.897-.845-1.897-1.878s.845-1.878 1.897-1.878z" fill="#FFF"/></g></svg>