<svg height="36" viewBox="0 0 36 36" width="36" xmlns="http://www.w3.org/2000/svg"><g fill="none"><circle cx="18" cy="18" fill="#7866d5" r="18"/><g fill="#fff"><path d="M25.286 9.241c.61.076 1.244.127 1.854.229 1.193.228 1.6.837 1.396 2.056-.05.457-.406.813-.863.889a3.3 3.3 0 0 1-.863.05c-3.96 0-7.896.026-11.857.026a10.5 10.5 0 0 0-1.777.152c-1.955.305-2.716 1.117-2.869 3.097-.076.914-.076.914.864.914h16.197c.254 0 .482.077.711.204.71.457.533 1.193.508 1.853-.026.533-.356.838-.914.94-.229.05-.457.05-.711.05H10.815c-.584 0-.584 0-.533.584a8.62 8.62 0 0 0 .203 1.6c.254.964.838 1.573 1.828 1.853 1.066.304 2.183.355 3.275.38H27.14c.482 0 .939.051 1.244.508.482.762.228 1.752-.534 2.234a.787.787 0 0 1-.33.153c-.837.279-1.7.33-2.59.355-3.63.076-7.235.076-10.84 0a18.289 18.289 0 0 1-3.326-.38c-2.564-.534-3.858-1.854-4.29-4.444-.102-.583-.152-1.193-.229-1.802V16.02l.153-1.397c.33-2.92 1.65-4.366 4.519-5.026 1.015-.229 2.082-.28 3.097-.381z"/><path d="M19.498 27.876c-1.828 0-3.63-.026-5.433-.05a17.064 17.064 0 0 1-3.402-.407c-2.767-.584-4.19-2.057-4.646-4.798a11.502 11.502 0 0 1-.152-1.27 30.915 30.915 0 0 1-.077-.558v-4.824l.051-.457c.026-.33.076-.635.102-.94.355-3.122 1.828-4.722 4.9-5.407.812-.178 1.6-.254 2.386-.33l.762-.076h11.373c.178.025.381.05.559.05.432.051.863.077 1.32.178 1.447.28 2.006 1.092 1.752 2.564-.076.635-.584 1.168-1.27 1.27a5.63 5.63 0 0 1-.939.076c-3.935.025-7.895.05-11.83.05a9.63 9.63 0 0 0-1.702.153c-1.751.28-2.335.914-2.488 2.691 0 .153-.025.305-.025.432h16.629c.33 0 .66.101.94.254.863.558.786 1.396.736 2.005 0 .077-.026.178-.026.254-.05.711-.482 1.193-1.27 1.346-.278.05-.532.05-.786.05H10.739v.103a7.84 7.84 0 0 0 .203 1.549c.203.787.686 1.27 1.498 1.498 1.092.304 2.209.355 3.174.355 2.995.025 6.042.025 9.012.025h2.539c.38 0 1.168 0 1.625.737.304.482.38 1.04.254 1.574a2.1 2.1 0 0 1-1.371 1.498c-.94.304-1.904.355-2.717.38-1.802 0-3.63.026-5.458.026zm-12.796-7.16c.026.178.051.356.051.534l.153 1.218c.406 2.387 1.548 3.555 3.935 4.062 1.066.229 2.158.356 3.25.381 3.579.076 7.235.076 10.84 0 .736-.025 1.625-.076 2.437-.33.076-.025.152-.076.229-.101.253-.178.457-.432.533-.737a1.11 1.11 0 0 0-.153-.888c-.152-.229-.355-.305-.837-.305H24.6c-2.944 0-6.016 0-9.012-.025-1.015 0-2.209-.051-3.402-.407-1.142-.304-1.853-1.04-2.132-2.183a7.784 7.784 0 0 1-.204-1.7v-.026c-.025-.356-.05-.61.153-.838.203-.229.482-.229.838-.229h16.146c.203 0 .432 0 .635-.05.406-.076.508-.254.533-.508 0-.102.026-.178.026-.28.05-.634.05-.939-.305-1.167a.95.95 0 0 0-.457-.127H11.17c-.559 0-.889 0-1.143-.254s-.203-.61-.178-1.142c.178-2.184 1.092-3.174 3.25-3.504.61-.102 1.219-.152 1.853-.178 3.961 0 7.896-.025 11.857-.025.279 0 .533 0 .787-.05a.54.54 0 0 0 .482-.483c.178-1.016-.076-1.346-1.04-1.549a9.988 9.988 0 0 0-1.22-.152 4.151 4.151 0 0 0-.558-.051H14.039l-.761.076c-.787.076-1.523.127-2.285.305-2.666.66-3.834 1.955-4.138 4.697-.026.304-.076.609-.102.939l-.05.432z"/></g></g></svg>