<svg xmlns="http://www.w3.org/2000/svg" width="36" height="36" fill="none"><circle cx="18" cy="18" r="18" fill="url(#a)"/><path fill="#fff" d="M6.16 17.24A11.9 11.9 0 0 1 17.2 6.16c3.1-.2 5.98.8 8.2 2.58.22.18.53.17.74-.02l.87-.77a.57.57 0 0 0-.02-.86 14.1 14.1 0 0 0-9.6-3.23A14.2 14.2 0 0 0 3.86 17.23c-.17 3.13.69 6.06 2.27 8.48.18.29.59.34.85.11l.87-.78c.2-.18.25-.49.1-.72a11.8 11.8 0 0 1-1.8-7.08z"/><path fill="#fff" d="m11.61 18.83-.65.88c-.15.3.07.66.41.66h2.13c.68 2.8 2.62 4.7 5.23 4.66 1.85 0 3.24-.92 4.17-2.75a.46.46 0 0 0-.22-.63l-1.02-.45a.46.46 0 0 0-.6.2c-.48.98-1.28 1.6-2.33 1.6-.96 0-1.72-.46-2.31-1.4a5.17 5.17 0 0 1-.55-1.23h2.73c.17 0 .33-.1.41-.25l.65-.88a.46.46 0 0 0-.4-.67h-3.7a10.37 10.37 0 0 1 0-1.16h3.04c.17 0 .33-.1.41-.25l.65-.88a.46.46 0 0 0-.4-.67h-3.4c.5-1.61 1.53-2.67 2.87-2.65 1.01 0 1.8.55 2.3 1.46.12.2.37.29.59.2l1.02-.46c.24-.1.35-.4.22-.64-.95-1.7-2.32-2.56-4.13-2.56-1.66 0-2.98.65-3.98 1.96-.59.77-1 1.67-1.24 2.7h-1.49a.44.44 0 0 0-.4.24l-.66.88c-.15.31.07.67.41.67h1.9a12.09 12.09 0 0 0-.01 1.16h-1.24c-.17 0-.33.1-.4.26z"/><path fill="#fff" d="M29.01 10.18a.57.57 0 0 1 .85.1 14.09 14.09 0 0 1 2.27 8.49 14.2 14.2 0 0 1-13.52 13.37A14.1 14.1 0 0 1 9 28.91a.57.57 0 0 1-.02-.86l.87-.78a.57.57 0 0 1 .74-.01 11.81 11.81 0 0 0 8.2 2.58 11.9 11.9 0 0 0 9.25-18.16.56.56 0 0 1 .1-.72l.87-.78z"/><defs><linearGradient id="a" x1="40.2" x2="14.75" y1="40.2" y2="14.75" gradientUnits="userSpaceOnUse"><stop stop-color="#8656EF"/><stop offset=".97" stop-color="#1AA3FF"/></linearGradient></defs></svg>