<svg width="36" height="36" fill="none" xmlns="http://www.w3.org/2000/svg"><circle cx="18" cy="18" r="18" fill="#202944"/><path d="M13.9 9h2.3v2.4h-2.3V9zM8.1 9h2.4v2.4H8.1V9zm2.3 5.8v2.4H8v-2.4h2.4zM9.8 28h-1v-.9h.9v.9h.1zm.7-4.8H8.1v-2.3h2.4v2.3zm5.1 4.8h-.9v-.9h.9v.9zm0-5.6h-.9v-.9h.9v.9zm.7-5.1h-2.4v-2.4h2.4v2.4zM21.4 28h-.9v-.9h.9v.9zm0-5.6h-.9v-.9h.9v.9zm0-5.9h-.9v-.9h.9v.9zm.8-5.1h-2.4V9h2.4v2.4zM27.3 28h-.9v-.9h.9v.9zm0-5.6h-.9v-.9h.9v.9zm0-5.9h-.9v-.9h.9v.9zm0-5.8h-.9v-.9h.9v.9z" fill="#fff"/></svg>