<svg height="36" viewBox="0 0 36 36" width="36" xmlns="http://www.w3.org/2000/svg"><g fill="none"><circle cx="18" cy="18" fill="#62d1e5" r="18"/><path d="M13.437 9.502h15.062v4.853H13.437c-.002-1.618-.002-3.235 0-4.853zM7.506 16.18c1.62-.008 3.24-.008 4.86 0 .009 1.615.009 3.23 0 4.846-1.62.008-3.24.008-4.86 0a465.85 465.85 0 0 1 0-4.845zm5.934 0c3.624-.007 7.248-.007 10.87 0 .008 1.615.008 3.23 0 4.846-3.623.007-7.246.007-10.87 0a517.52 517.52 0 0 1 0-4.845zm.005 6.68a230.62 230.62 0 0 1 4.85 0c.017 1.611.017 3.223 0 4.835-1.616.016-3.233.016-4.85 0a243.519 243.519 0 0 1 0-4.835z" fill="#fff"/></g></svg>