<svg width="36" height="36" fill="none" xmlns="http://www.w3.org/2000/svg"><circle cx="18" cy="18" r="18" fill="#060606"/><path fill-rule="evenodd" clip-rule="evenodd" d="m6 24.2 1 .7.4.2h.1l.1.1h.1l3.8 2.4.2.1 3.4 2.1h.1L17 31l.1.1v-13l-.5-.3h-.1l-.4-.3-1.7-1H14l-.5-.4-.8-.4v2l2.1 1.3h.2l.2.1v8.7l-1.2-.7-1-.5-1.1-.8h-.1l-.8-.5-.3-.2-1-.6-.2-.1-1.4-.9-.4-.3V12.8a4.2 4.2 0 0 0-.5-.3l-1-.6c-.2 0-.2-.1-.3-.2v12.5zm12.1-6.1v5l.7-.4.8-.5.2-.1v-3h.4l.7-.5 1-.5.2-.2.4-.2.2-.1.5-.4h.3V17l1.6-1c.3 0 .6-.3 1-.5l.4-.2.5-.3.2-.1.3-.2v8.5h-.2l-.4.3h-.2l-.1.2h-.1l-.5.3-1.1.7-1.2.7-.1.1-1.6 1-.3.2-1.5.9H20l-1.3.9-.6.3V31l.3-.2.4-.2 1-.6.2-.1.9-.6h.1l4.7-3h.1l3.2-2h.1V11.7H29l-.2.1-1 .6-1 .6-2.8 1.6-.4.2-.5.3-1.2.7-.2.1-1 .7h-.2l-.3.2-.6.4h-.1l-.4.2c-.2.1-.8.6-1 .6zM6.7 11h.2l.6.4 2 1L12 14l.2.1.2.1 1 .6 1.5 1 1.5.8h.2l.9.6.7-.5.3-.1.3-.2.2-.1.5-.3.3-.2.8-.4h.1l.1-.1.6-.3.2-.2-1.7-1-2 1-.1.2-.3.1-1-.5-1-.6-.3-.2-2-1.1-.1-.1H13L10.4 11l.1-.2h.2L13 9.4h.1l.1-.1.3-.2 2.8-1.5h.1l1.2-.7 1.1.6.1.1h.2l3 2 1.4.7 1 .6 1.9 1h.1c.3.2.3 0 .6-.1l.7-.4.7-.4-.2-.1-.7-.4-1-.5-.6-.4-.7-.4-3.4-1.8h-.2l-1.4-.8-.1-.1H20l-1.8-1-.7-.4-.5.3-4 2-.1.2L10.1 9l-.1.1-.3.2-.2.1-.6.3H9l-.8.5-.4.2-.2.1-.8.4v.1z" fill="#fff"/></svg>