<svg width="36" height="36" xmlns="http://www.w3.org/2000/svg"><g fill="none" fill-rule="evenodd"><circle fill="#6747ED" fill-rule="nonzero" cx="18" cy="18" r="18"/><path d="M17.738 20.325a4.785 4.785 0 0 1-4.8-4.8c0-2.662 2.137-4.8 4.8-4.8 2.662 0 4.8 2.138 4.8 4.8s-2.138 4.8-4.8 4.8m0-12c3.974 0 7.2 3.225 7.2 7.2s-3.226 7.2-7.2 7.2a7.202 7.202 0 0 1-7.2-7.2c0-3.975 3.224-7.2 7.2-7.2zM24.6 23.1c.487.487.487 1.237 0 1.688l-4.8 4.8c-.488.487-1.238.487-1.688 0-.487-.488-.487-1.238 0-1.688l4.8-4.8a1.156 1.156 0 0 1 1.688 0zm2.775-13.575c0 .675-.525 1.2-1.2 1.2-.675 0-1.2-.525-1.2-1.2 0-.675.525-1.2 1.2-1.2.637 0 1.2.525 1.2 1.2z" fill="#FFF"/></g></svg>