<svg width="36" height="36" fill="none" xmlns="http://www.w3.org/2000/svg"><circle cx="18" cy="18" r="18" fill="#fff"/><path d="m30.812 11.345-8.447 4.411v5.163l2.91-1.502v3.004l-8.167 4.693-6.57-3.755c-1.033-.563-1.596-1.596-1.596-2.816V12.94l6.852-3.942c.845-.47 1.878-.47 2.816 0l6.758 3.942 4.13-2.346-10.512-6.101c-1.127-.657-2.44-.657-3.473 0L5 10.593V22.89c0 1.126.657 2.253 1.596 2.816l10.7 6.195 10.7-6.195c1.033-.563 1.596-1.69 1.596-2.816v-5.726l1.408-.75v-5.07h-.188z" fill="#C85553"/></svg>