<svg width="36" height="36" fill="none" xmlns="http://www.w3.org/2000/svg"><circle cx="18" cy="18" r="18" fill="#38A2FF"/><path d="M22.794 9.364a2.705 2.705 0 0 1 3.805 0 2.705 2.705 0 0 1-2.276 4.57h-.13a1.398 1.398 0 0 0-1.492.895c-.131.336-.112.709.037 1.045a5.167 5.167 0 0 1-6.846 6.845 1.305 1.305 0 0 0-1.063-.037c-.336.13-.616.373-.765.709a1.472 1.472 0 0 0-.13.69v.13c.149.858-.15 1.735-.746 2.35a2.705 2.705 0 0 1-3.806 0 2.705 2.705 0 0 1 2.276-4.57h.037l.28.038c.205 0 .392-.037.578-.13a1.342 1.342 0 0 0 .71-.765 1.37 1.37 0 0 0-.038-1.082 5.166 5.166 0 0 1 6.845-6.846 1.306 1.306 0 0 0 1.064.037c.335-.13.615-.373.783-.708.13-.261.15-.56.112-.84-.13-.839.15-1.716.765-2.331zm-2.668 10.744a2.984 2.984 0 0 0 0-4.216 2.985 2.985 0 0 0-4.215 0 2.985 2.985 0 0 0 0 4.216 2.985 2.985 0 0 0 4.215 0zm7.462-5.932a4.104 4.104 0 0 0 0-5.764 4.104 4.104 0 0 0-6.883 2.07 7.946 7.946 0 0 0-8.394 1.81 7.946 7.946 0 0 0-1.79 8.413 4.103 4.103 0 0 0-2.09 6.883 4.104 4.104 0 0 0 6.883-2.108 7.853 7.853 0 0 0 8.375-1.81 7.947 7.947 0 0 0 1.828-8.356 4.558 4.558 0 0 0 2.07-1.138z" fill="#fff"/></svg>