<svg width="36" height="36" xmlns="http://www.w3.org/2000/svg"><defs><linearGradient x1="26.031%" y1="22.331%" x2="93.176%" y2="78.932%" id="a"><stop stop-color="#F15A24" offset="21%"/><stop stop-color="#FBB03B" offset="68.41%"/></linearGradient><linearGradient x1="73.914%" y1="77.639%" x2="6.769%" y2="21.038%" id="b"><stop stop-color="#ED1E79" offset="21%"/><stop stop-color="#522785" offset="89.29%"/></linearGradient></defs><g fill="none" fill-rule="evenodd"><circle fill="#292A2E" fill-rule="nonzero" cx="18" cy="18" r="18"/><path d="M25.199 11.5c-1.565 0-3.27.834-5.072 2.477a21.55 21.55 0 0 0-2.145 2.275s.877.989 1.837 2.049c.521-.644 1.268-1.513 2.133-2.299 1.6-1.465 2.642-1.763 3.247-1.763 2.25 0 4.076 1.846 4.076 4.133 0 2.263-1.825 4.11-4.076 4.133-.107 0-.238-.012-.392-.048.652.298 1.363.512 2.027.512 4.123 0 4.929-2.787 4.976-2.989.119-.512.19-1.048.19-1.596-.012-3.8-3.057-6.884-6.801-6.884z" fill="url(#a)" fill-rule="nonzero"/><path d="M10.801 25.232c1.565 0 3.27-.833 5.072-2.477a21.55 21.55 0 0 0 2.145-2.275s-.877-.988-1.837-2.048c-.521.643-1.268 1.512-2.133 2.298-1.6 1.453-2.654 1.763-3.247 1.763-2.25 0-4.076-1.846-4.076-4.133 0-2.263 1.825-4.109 4.076-4.133.107 0 .237.012.391.048-.651-.298-1.362-.512-2.026-.512-4.123 0-4.929 2.787-4.976 2.99A7.087 7.087 0 0 0 4 18.347c0 3.8 3.045 6.884 6.801 6.884z" fill="url(#b)" fill-rule="nonzero"/><path d="M13.936 16.062c-.45-.43-2.654-2.18-4.763-2.24-3.759-.092-4.864 2.584-4.959 2.929.72-3 3.404-5.24 6.594-5.251 2.601 0 5.23 2.497 7.171 4.751l.01-.01s.876.988 1.836 2.048c0 0 1.09 1.262 2.251 2.37.45.429 2.643 2.156 4.752 2.215 3.863.107 4.93-2.715 4.988-2.93-.71 3.013-3.4 5.264-6.6 5.276-2.601 0-5.23-2.499-7.18-4.753l-.012.013s-.877-.988-1.836-2.048c0 0-1.09-1.263-2.252-2.37z" fill="#29ABE2"/></g></svg>