<svg width="36" height="36" fill="none" xmlns="http://www.w3.org/2000/svg"><circle cx="18" cy="18" r="18" fill="#34B8BB"/><path d="M27.654 6.002a2.378 2.378 0 0 1 2.339 2.415v.032a2.399 2.399 0 0 1-4.797-.067 2.37 2.37 0 0 1 2.458-2.38zm-1.976 6.165a9.645 9.645 0 0 1-13.51 13.513l2.609-2.608a6.01 6.01 0 0 0 8.295-8.295l2.606-2.61zm-1.954-1.928-2.615 2.616a6.013 6.013 0 0 0-8.255 8.255l-2.617 2.617a9.645 9.645 0 0 1 13.487-13.488zM8.42 25.205A2.397 2.397 0 1 1 6 27.58v-.014a2.366 2.366 0 0 1 2.372-2.36h.049z" fill="#fff"/></svg>