<svg width="36" height="36" fill="none" xmlns="http://www.w3.org/2000/svg"><circle cx="18" cy="18" r="18" fill="url(#a)"/><path d="M18.015 7.482a215.604 215.604 0 0 0 0 13.612 243.37 243.37 0 0 0 0-13.612zm-4.9 23.367.009.035c.043-.021.087-.04.129-.063.875-.482 1.804-.836 2.75-1.144a6.252 6.252 0 0 1 3.654-.099 15 15 0 0 1 3.046 1.207c.06.032.111.095.2.077a.197.197 0 0 0-.032-.045l-4.57-3.51c-.215-.165-.388-.148-.598.015-1.528 1.18-3.058 2.355-4.589 3.527zm-.906-16.747c-.1.128-.053.224.044.326.367.388.587.856.74 1.36.186.622.258 1.26.287 1.906.046.99.032 1.982.013 2.973a147.187 147.187 0 0 0-.02 3.965c.012 1.458-.19 2.878-.655 4.262-.182.54-.363 1.08-.618 1.651a.81.81 0 0 0 .12-.05c1.329-1.069 2.653-2.146 4.038-3.144.178-.129.18-.29.07-.456a5.122 5.122 0 0 0-.355-.477c-.369-.44-.515-.953-.524-1.515-.011-.735-.026-1.47-.034-2.204-.032-2.709-.012-5.417-.045-8.128-.042-3.476-.042-6.953-.06-10.43v-.14h-.05c-.153 1.381-.31 2.758-.574 4.12-.414 2.142-1.033 4.205-2.377 5.981zm8.558-3.798c-.043 3.112-.005 6.225-.055 9.338-.026 1.618-.02 3.237-.016 4.857.002.82-.167 1.572-.753 2.189a1.482 1.482 0 0 0-.147.198c-.13.192-.1.344.096.484 1.33.96 2.606 1.99 3.882 3.02.059.05.11.121.226.107-.425-.953-.714-1.933-.958-2.929-.095-.385-.189-.77-.222-1.167-.082-.971-.059-1.947-.078-2.92-.032-1.668-.016-3.336-.023-5.006-.006-.57.029-1.14.104-1.704.106-.759.287-1.494.76-2.122.31-.41.315-.41.012-.842-1.051-1.507-1.623-3.205-2.016-4.976-.353-1.594-.545-3.21-.708-4.831h-.063c-.021 2.103-.013 4.203-.041 6.304z" fill="#fff"/><defs><linearGradient id="a" x1="18.006" y1="-.178" x2="18.006" y2="36.133" gradientUnits="userSpaceOnUse"><stop stop-color="#5B2771"/><stop offset="1" stop-color="#242554"/></linearGradient></defs></svg>