<svg width="36" height="36" fill="none" xmlns="http://www.w3.org/2000/svg"><circle cx="18" cy="18" r="18" fill="#F2F4F7"/><path d="m11.712 25.19-7.34.826 4.31-9.946-4.413-6.016 10.73-1.222 2.915-6.704L24.3 10.81l7.34-.826-4.29 9.898 4.38 5.974-10.675 1.216-2.96 6.8-6.384-8.682zm3.05-.659a5.245 5.245 0 0 1-.893.34l-.282.076 4.138 5.626 1.469-3.38-.266-.035a5.29 5.29 0 0 1-3.61-2.134l-.412-.57-.144.077zm-1.44-5.1 3.337 4.617a3.632 3.632 0 0 0 3.335 1.475l8.71-.992-3.469-4.733a3.687 3.687 0 0 0-.592-.63l-.205-.17-2.483 5.61-4.32-5.718-4.313.54zm.144-5.623a3.626 3.626 0 0 0-2.938 2.163L7.03 24.045l5.812-.653c.288-.032.57-.1.841-.198l.25-.093-3.597-4.967 7.091-.899 1.687-4.029-5.648.602zm5.488 4.074 2.627 3.478 1.603-3.62.704-1.593a3.647 3.647 0 0 0-.397-3.635l-5.206-7.085-2.343 5.383a3.726 3.726 0 0 0-.25.832l-.044.262 6.077-.643-2.771 6.62zm6.384-5.517.102.246a5.347 5.347 0 0 1-.038 4.211l-.285.64.137.093c.263.176.51.381.736.608l.208.205 2.781-6.416-3.641.413zm-18.042-.986L9.51 14.4l.164-.211a5.306 5.306 0 0 1 3.619-2.035l.694-.074.013-.17c.022-.348.083-.697.176-1.036l.08-.288-6.96.793z" fill="url(#a)"/><path d="M16.451 34a15.897 15.897 0 0 1-11.459-6.64l1.856-.208a14.288 14.288 0 0 0 8.262 5.027L16.451 34z" fill="url(#b)"/><path d="M20.317 32.282a14.24 14.24 0 0 0 8.448-4.672l2.25-.256A15.884 15.884 0 0 1 19.57 34l.746-1.718z" fill="url(#c)"/><path d="M31.472 23.13c.616-1.64.93-3.378.928-5.13 0-1.562-.246-3.098-.73-4.563l.903-2.08A15.974 15.974 0 0 1 34 18c0 2.317-.48 4.547-1.424 6.637l-1.104-1.507z" fill="url(#d)"/><path d="M3.434 24.66A16.003 16.003 0 0 1 2 18c0-2.34.486-4.589 1.45-6.691l1.1 1.504A14.483 14.483 0 0 0 3.6 18c0 1.568.246 3.107.733 4.58l-.9 2.08z" fill="url(#e)"/><path d="M5.06 8.547A15.898 15.898 0 0 1 16.441 2l-.746 1.715a14.24 14.24 0 0 0-8.368 4.573l-2.269.26z" fill="url(#f)"/><path d="M29.155 8.848a14.281 14.281 0 0 0-8.253-5.024L19.562 2a15.892 15.892 0 0 1 11.446 6.64l-1.853.208z" fill="url(#g)"/><defs><linearGradient id="a" x1="2.94" y1="30.984" x2="27.839" y2="2.202" gradientUnits="userSpaceOnUse"><stop stop-color="#009DDE"/><stop offset=".5" stop-color="#694D9F"/><stop offset="1" stop-color="#ED3554"/></linearGradient><linearGradient id="b" x1="9.837" y1="32.146" x2="112.556" y2="-29.239" gradientUnits="userSpaceOnUse"><stop stop-color="#009DDE"/><stop offset=".5" stop-color="#694D9F"/><stop offset="1" stop-color="#ED3554"/></linearGradient><linearGradient id="c" x1="-11.011" y1="66.37" x2="93.366" y2="5.753" gradientUnits="userSpaceOnUse"><stop stop-color="#009DDE"/><stop offset=".5" stop-color="#694D9F"/><stop offset="1" stop-color="#ED3554"/></linearGradient><linearGradient id="d" x1="-239.616" y1="66.655" x2="-217.518" y2="-49.427" gradientUnits="userSpaceOnUse"><stop stop-color="#009DDE"/><stop offset=".5" stop-color="#694D9F"/><stop offset="1" stop-color="#ED3554"/></linearGradient><linearGradient id="e" x1="-50.556" y1="31.5" x2="-28.502" y2="-83.942" gradientUnits="userSpaceOnUse"><stop stop-color="#009DDE"/><stop offset=".5" stop-color="#694D9F"/><stop offset="1" stop-color="#ED3554"/></linearGradient><linearGradient id="f" x1="-25.493" y1="95.279" x2="79.96" y2="34.621" gradientUnits="userSpaceOnUse"><stop stop-color="#009DDE"/><stop offset=".5" stop-color="#694D9F"/><stop offset="1" stop-color="#ED3554"/></linearGradient><linearGradient id="g" x1="2.4" y1="28.205" x2="27.36" y2="3.245" gradientUnits="userSpaceOnUse"><stop stop-color="#009DDE"/><stop offset=".5" stop-color="#694D9F"/><stop offset="1" stop-color="#ED3554"/></linearGradient></defs></svg>