<svg width="36" height="36" fill="none" xmlns="http://www.w3.org/2000/svg"><circle cx="18" cy="18" r="18" fill="#fff"/><path d="M17.44 14.8 27.8 8.88l.04 6.64L17.52 19l-.08-4.2z" fill="#DA5B54"/><path d="m7.36 12.8 1.52.88.96.56.76.44 2.4 1.4.2.12.04 3.28.56.68.52.64.36.44.52.64.36.44 1.04 1.28.36.44.52.64.12.12.68-.4 4.16-2.4.96-.56 1.12-.64.96-.56 2.08-1.2.28-.16.2.04.52.32.04.48v.92l-.36.48-.32.44-.04 2.68-.6.36-.56.28-.96.56-.52.32-.44.24-.92.52-.64.36-.6.36-.96.56-.84.48-.76.44-.84.48-1.04.6-.52.32-.16-.04-.92-.52-.96-.56-.76-.44-.16.04-1 .56-.4.24-.44.28-.96.56-.4.24-.24-.04-3.12-1.8-.16-.12-.04-2.36L7 25.6v-1.64l.32-.2h.08l-.12-3.52.08-7.44z" fill="#886A58"/><path d="m17.6 3 3.28 1.84 1.08.64 1.12.64L25 7.24l1.04.6.96.56.8.48-.16.16-.92.52-.96.56-7.28 4.2-.84.48-.24-.04-2.08-1.2-1.08-.64-1.12-.64-1.92-1.12-1.04-.6-1.92-1.12-.88-.52 4.24-2.48 2.08-1.2.96-.56 1.12-.64.96-.56.88-.48z" fill="#F17069"/><path d="m27.6 24.36-.2.12-.12.12.52.32v2.96l-4.04 2.36-.4-.24-.2-.08v.68L18.92 33l-5.96-3.4.36-.24.64-.36.8-.48.2.04 1.08.64.92.52.6.36.12.04.68-.44.96-.56.84-.48.96-.56 1-.56 1.2-.72.72-.4.84-.48.68-.4 1.04-.6.56-.32.44-.24z" fill="#3D1A26"/><path d="M7.36 8.92 17.56 3l-.2.16-.72.4-.96.56-1.12.64-.96.56-6.24 3.6 1.04.56.88.52 1.04.6 1.92 1.12 1.04.6 1.92 1.12 1.04.6 1.08.64.24.16v9.92l-.24-.2-.44-.56-.44-.52-.44-.56-.56-.68-.36-.44-.52-.64-.36-.44-.52-.64-.48-.6V16.2l-.2-.08-.84-.48-.4-.24-1.04-.6-1.92-1.12-1.04-.6-.4-.24-.08 7.4.16.08-.04 3.44-.12.04.08-14.88z" fill="#A24741"/><path d="m7.4 20.32.24.08 1.04.6.96.56.2.12.08.2-.84.48-.2.12.04.2.08.08 1-.56.32-.16.2.04.16.08v.72l.24.08.96.56.88.52 1.12.68.92.56.84.52.8.48 1.12.68.56-.32.2-.04 1.44.2.52.08.12.04.08-.24.08-.08.4.04.76.2.08-.24.24-.48.4.12 1 .4.08-.2.72-1.08.44-.72.12-.08.24.24h.12l.48-.68.28-.4.28-.4.24.04.36-.44.52-.68.4-.52.16-.16v2.68l-.6.36-.56.28-.96.56-.52.32-.44.24-.92.52-.64.36-.6.36-.96.56-.84.48-.76.44-.84.48-1.04.6-.52.32-.16-.04-.92-.52-.96-.56-.76-.44-.16.04-1 .56-.4.24-.44.28-.96.56-.4.24-.24-.04-3.12-1.8-.16-.12-.04-2.36L7 25.6v-1.64l.32-.2h.08v-3.44z" fill="#BC4449"/><path d="m11.92 15.52.16.04.8.44.32.2.04 3.28.56.68.52.64.36.44.52.64.36.44 1.04 1.28.36.44.52.64.12.12.68-.4 4.16-2.4.96-.56 1.12-.64.96-.56 2.08-1.2.28-.16.2.04.52.32.04.48v.92l-.36.48-.32.44-.2.2-.6.8-.48.6-.2.24-.24-.08-.08.16-.44.64-.52.72-.16-.04-.24-.2-.44.68-.52.8-.36.56-.4-.12-1-.4-.08.24-.24.48-.4-.08-.56-.12h-.2l-.16.28-2.08-.28-.2.04-.16.12-.4.2-.04-1.4-.68-.4-.32-.4-.52-.64-.36-.44-.52-.64-.36-.44-1.04-1.28-.36-.44-.52-.64-.36-.44v-3.28l-.24-.08-.68-.4-.24-.16.16-.16.44-.24z" fill="#D5D5D5"/><path d="M27.8 16.52h.04v2.4l-1.12.64-5.2 3-.96.56-1.12.64-.96.56-.88.52-.08-.08.04-6 .88-.52 1.04-.6.28-.16.2.04 1.04.6.56.32.68.4.32.2-.16.12-.68.4-.36.2-.04 1.56.84-.48.48-.28h.08v-1.4l.2.08.2.12.2-.04.28-.28.56-.44.4-.32.68-.48.12-.04.04 1.2.92-.52.32-.2h.08v-1.28l.8-.36.28-.08z" fill="#BD967F"/><path d="m7.4 20.32.24.08 1.04.6.96.56.2.12.08.2-.84.48-.2.12.04.2.08.08.28-.16.08.04-.04.12.36.6.64 1.08.36.6v.08l-.68.32h-.08l.16.32.56.32v.08l-.24.12.08.28.4-.16.24-.04.48.28.6 1.08v.08l-.68.32h-.08v2.36l-.24-.08-.68-.4-2.08-1.2-.44-.28-.04-2.36L7 25.6v-1.64l.32-.2h.08v-3.44z" fill="#C84F63"/><path d="m11.28 15.88.56.32.64.36.04 3.28.48.56.44.56.44.52.44.56.56.68.36.44.52.64.36.44.52.64.24.32.68.4v1.36l-.2-.08-.92-.56-1.12-.68-.6-.36-.72-.44-.92-.56-1-.6-1.04-.6-.36-.2V21.4l.28-1.12.28-1.04.04-3.36z" fill="#898989"/><path d="m25.24 12.68.44.24.88.52.12.04 1.04-.6h.08l.04 1.32.84.48-.04.08-.68.2-.6.24-.52.2-.84.4-.96.6-.68.52-.36.28-.52.44-.24.2-.16-.04-1.12-.64-.96-.56-1.04-.6-.12-.08.08-.16.4-.36.56-.44.64-.48.68-.44.68-.4.96-.44 1.16-.44.24-.08z" fill="#F17069"/><path d="m10.32 22.04.2.04.16.08v.72l.24.08.96.56.88.52 1.12.68.64.4.36.56-.04.12-.64.36h-.08l.12.2v.12l-.2.08h-.12l-.12-.16-1.04.6-.2.04-.4-.68-.2-.36v-.08l-.24.12h-.08l.56 1 .32.56.36-.16 1.12-.52.52-.24 1.2-.56h.12v.36l-1.16.56.08.32h.08v1.16l-1.04.6-.68.4-.44.28-1.04.6-.2.08v-2.36l.68-.32h.08l-.48-.88-.16-.28-.44-.24-.24.04-.24.12h-.16l-.12-.2.04-.12.24-.08-.12-.12-.48-.28-.12-.2v-.12l.68-.32h.08l-.6-1.04-.48-.8-.32-.52.08-.2.64-.36.32-.16z" fill="#DB8472"/><path d="m13.2 16.24.2.08.92.52.96.56 1.16.68 1.04.6.08.04v6.04l-.24-.2-.44-.56-.44-.52-.44-.56-.56-.68-.36-.44-.52-.64-.36-.44-.52-.64-.48-.6v-3.24z" fill="#886B59"/><path d="M28.64 14.72h.04v1.56l-.32.12-.84.24-.72.32h-.08v1.28l-1.04.6-.32.16-.04-1.2-.48.32-.48.36-.64.52-.4.36-.2.04-.4-.24v1.4l-1 .56-.32.2h-.08v-1.56l.68-.4.52-.32-.92-.52-.36-.24-.44-.24-.92-.52-.04-.04v-1.56l.2.08 2.08 1.2 1 .6.2-.04.32-.32.44-.36.64-.48.56-.4.88-.52.68-.32.68-.28.92-.32.2-.04z" fill="#DA5B54"/><path d="m11.92 15.52.16.04.8.44.32.2.04 3.28.56.68.52.64.36.44.52.64.36.44 1.04 1.28.36.44.52.64.12.12.68-.4 4.16-2.4.96-.56 1.12-.64.96-.56 2.08-1.2.28-.16.2.04.52.32-.12.12-.88.52-.44.24-2.08 1.2-.56.32-.96.56-.56.32-.96.56-1.12.64-.96.56-2.08 1.2-.2.12-.2-.04-.6-.36-.32-.4-.52-.64-.36-.44-.52-.64-.36-.44-1.04-1.28-.36-.44-.52-.64-.36-.44v-3.28l-.24-.08-.68-.4-.24-.16.16-.16.44-.24z" fill="#FBFBFB"/><path d="m27.24 24.56.56.36v2.96l-4.04 2.36-.04-2.76-.72-.44.16-.16.68-.36.68-.4.56-.32.76-.44.96-.56.44-.24z" fill="#3D1A27"/><path d="m14.76 28.52.2.04 1.04.6.96.56.6.36.16-.04.36-.2.24.04.6.36V33l-.56-.28-.88-.52-1.04-.6-1.92-1.12-1.04-.6-.48-.28.12-.12.56-.32.96-.56.12-.08z" fill="#29121A"/><path d="m8 26.16.2.08.96.56.24-.08.56-.28h.12l.12.2v.12l-.52.24H9.6v.08l.2.08 1.12.64.52.32v2.36l-.24-.08-.68-.4-2.08-1.2-.44-.28v-2.36z" fill="#886A59"/><path d="m14.56 25.16.44.24.84.52.6.36 1.12.68.04.04v1.08l-.56.28-1.12.52-.28.12-.8-.48v-1.16h-.08l-.12-.24.04-.12 1.08-.52h.08v-.36l-1.32.6-.6.28-1.04.48-.36.16-.24-.4-.6-1.08-.04-.12.24-.12h.08l.48.88.12.2.2-.04 1.04-.6.12.12v.08l.2-.08h.12l-.12-.24v-.08l.72-.4-.08-.2-.2-.32v-.08z" fill="#9E4155"/><path d="m19.84 15.92.2.08 2.08 1.2 1.08.64v1.56l-.2-.08-.28-.16v1.4l-1 .56-.32.2h-.08v-1.56l.68-.4.52-.32-.92-.52-.36-.24-.44-.24-.92-.52-.04-.04v-1.56z" fill="#A24741"/><path d="m7.8 24.48.2.08.56.32-.04.2.24.44v.08l.56-.24h.12v-.08l.2-.08h.12l.12.28-.12.04v.08l.2.08.68.4v.08l-.24.12.08.28.4-.16.24-.04.48.28.6 1.08v.08l-.68.32-.2-.04-1.04-.6-.68-.4V27l.52-.24h.08l-.12-.24v-.08l-.84.4-.2-.08-.96-.56-.48-.24-.6-.36v-1.08l.12.12.24.44.48-.2.08-.04-.12-.36z" fill="#9C4351"/><path d="M27.84 21.56h.04v2.68l-.6.36-.56.28-.96.56-.52.32-.44.24-.64.36-.16-.16-.12-.2.04-.16.64-1 .2-.28.28.24h.12l.48-.68.28-.4.28-.4.24.04.36-.44.52-.68.4-.52.12-.16z" fill="#D95A53"/><path d="m12.72 24.12.24.04.92.56.64.4.36.56-.04.12-.64.36h-.08l.12.2v.12l-.2.08h-.12l-.12-.16-1.04.6-.2.04-.4-.68-.2-.36v-.08l-.24.12h-.12l-.12-.2.04-.12.16-.08-.04-.16-.36-.64.16-.12 1.28-.6z" fill="#DB8572"/><path d="M15.72 26.12h.12v.36l-1.16.56.08.32h.08v1.16l-1.04.6-.68.4-.44.28-1.04.6-.2.08v-2.32l.24.08.68.4.16.04.4-.24 1.04-.6.48-.28-.08-.24-.2-.36v-.12l.36-.16 1.2-.56z" fill="#BC957E"/><path d="m21.12 18.28.24.04 1.2.72-.16.12-.68.4-.36.2-.04 1.6-1.04.6-.32.16v-3.16l1.12-.64.04-.04z" fill="#FEFEFD"/><path d="m23.84 25.96.16.16.12.24-.36.24-.72.4-1 .6-1 .56-.68.4-.96.56h-.08l-.56-1.04-.04-.16.76-.36.6-.28.24-.08.44.76.32-.08-.48-.8.04-.08.52-.24h.28l.28.08.08-.24.24-.48.4.12 1 .4.08-.2.32-.48z" fill="#AE3B54"/><path d="m10.32 22.04.2.04.16.08v.72l.24.08.96.56.88.52.04.08-1.44.68v.12l.36.6-.04.16-.24.08-.56-.96-.68-1.16-.4-.64-.24-.4h-.2l.12-.12.64-.32.2-.12z" fill="#AF3B55"/><path d="m14.56 25.16.44.24.84.52.6.36.24.16-.04.12-1.36.64-.44.2-.12-.12-.08-.24 1.12-.56h.08v-.36l-1.32.6-.6.28-1.04.48-.36.16-.24-.4-.6-1.08-.04-.12.24-.12h.08l.48.88.12.2.2-.04 1.04-.6.12.12v.08l.2-.08h.12l-.12-.24v-.08l.72-.4-.08-.2-.2-.32v-.08z" fill="#C3514C"/><path d="m8.56 23.32.12.04.68 1.16.32.56v.08l.84-.36.16.24v.08l-.68.32h-.08l.08.28-.24-.12v-.08l.08-.08-.08-.24-.2.08h-.12v.08l-.56.24h-.12l-.28-.52.04-.2-.72-.4.16.28-.04.12-.52.24-.12-.12-.28-.48V24l.28-.04 1.28-.64z" fill="#A03B62"/><path d="m11.6 26.68.24.08.32.2.36.64.36-.16 1.12-.52.16-.04.32.6-.04.12-1.12.64-.76.44-.16.04-.52-.32-.44-.24.08-.08.6-.28h.08l-.48-.88-.12-.24z" fill="#CA7E6C"/><path d="m7.4 20.32.24.08 1.04.6.96.56.2.12.08.2-.84.48-.2.12.04.2.08.08.28-.16.08.04-.68.4L8.6 23l.04-.16-.4-.76-.68-1.36-.16-.28v-.12z" fill="#91324B"/><path d="m22.48 19.08.2.04v1.44l-.52.32-.64.36-.2.08v-1.56l.68-.4.48-.28z" fill="#4B343B"/><path d="M17.52 28.48h.08l.32.64.04.16.72-.32.16-.04.12.2v.12l-.68.32h-.12l.04.16.08.04-.6.36-.16-.04-.92-.52-.56-.32.12-.12 1.16-.56.2-.08z" fill="#9F4155"/><path d="M27.84 21.56h.04v1.76l-1.24.56-.88.4-.24.08.08-.2.32-.44.28-.4.24.04.36-.44.52-.68.4-.52.12-.16z" fill="#AF3B55"/><path d="m16.68 26.48.2.08.68.4.04.04v1.08l-.56.28-1.12.52-.28.12-.32-.2.16-.12 1.32-.64h.12L16.36 27l-.12-.2.04-.12.4-.2z" fill="#903149"/><path d="m10.96 26.36.24.04.4.24.6 1.08v.08l-.68.32-.2-.04-.6-.36-.32-.64-.16-.28.04-.12.68-.32z" fill="#A14641"/><path d="m22.92 27.04.2.04.6.36.04.04v2.76l-.44-.24-.16-.08-.04-2.12-.72-.4.16-.16.36-.2z" fill="#29121A"/><path d="m20.56 26.6.4.04.36.08-.16.08-.52.24.32.56.12.2v.08l-.32.12-.4-.68-.04-.08-.24.08-.6.28-.68.32h-.08l.28.56.12.2v.12l-.16.08h-.16l-.4-.72-.2.04-.52.24h-.08l.04-.4 1.08-.52 1.12-.52.16-.12.16-.04.24.08.08-.24.08-.08z" fill="#DB8573"/><path d="M13.16 25.32h.08l.48.84.08.12v.12l-1.04.6-.2.04-.4-.68-.2-.36v-.12l1.12-.52.08-.04z" fill="#DA5B54"/><path d="M9.48 25.64h.16l.4.72.28-.04-.24-.52.24.08.32.2v.08l-.24.12.08.28.08.04-.28.12.08.24.36.64v.08l-.24-.08-.88-.52V27l.52-.24h.08l-.12-.24v-.08l-.84.4-.2-.08-.76-.44.04-.12 1.16-.56z" fill="#9E4255"/><path d="M27.8 23.32h.08v.92l-.6.36-.52.24-.28-.4v-.08l-.4.16-.88.4-.12-.04.24-.32.16-.24.24-.04.56-.28 1.32-.6.2-.08z" fill="#DB8573"/><path d="M26.64 17h.08v1.24l-1.04.6-.32.16v-1.28l.88-.52.4-.2z" fill="#4A3239"/><path d="M25.32 17.76h.04v1.28l-1 .56-.28.16H24v-1.04l.56-.44.68-.48.08-.04z" fill="#FDFCFB"/><path d="m12.44 24.24.16.04.4.64v.12l-1.16.56h-.08l.16.32-.2.12h-.12l-.12-.2.04-.12.16-.08-.04-.16-.36-.64.16-.12 1-.48zm7.8 2.96.12.04.4.72-.12.12-1.12.52-.16-.08-.36-.68.12-.12.76-.36.36-.16z" fill="#DA5A54"/><path d="m23.84 25.96.16.16.12.24-.36.24-.64.36-.44.16-.4.2-.12-.04-.28-.48v-.08l-.12.04.08-.24.2-.4.4.12 1 .4.08-.2.32-.48z" fill="#C85366"/><path d="m11.92 15.52.16.04.8.44.32.2v3.24h-.04v-3.2l-.56.32h-.08v3.28h-.04v-3.28l-.24-.08-.68-.4-.24-.16.16-.16.44-.24z" fill="#D5D2D1"/><path d="m9.08 21.28.2.08.56.32.08.2-.84.48-.2.12.04.2.08.08.28-.16.08.04-.68.4L8.6 23l.04-.16-.08-.2.2-.12-.08-.24-.28-.52.04-.12.64-.36z" fill="#A14741"/><path d="M8.44 23.76h.12l.52.92.32.56v.08l-.2-.04-1.12-.64-.6-.36.04-.08.92-.44z" fill="#B74867"/><path d="m18.28 28.12.16.04.36.64v.08l.36-.12.16.28v.12l-.96.56h-.16l-.04-.16.72-.32h.08l-.12-.28-.24.08-.52.24h-.12l-.36-.68v-.16l.68-.32z" fill="#DA5A54"/><path d="m7.4 20.44.12.12.32.64.8 1.6.04.16-.08.16-.32.08-.44.28-.16-.04-.08-.24.52-.32.12-.12-.48-.96-.32-.68-.04-.04v-.64z" fill="#B17764"/><path d="m24.6 24.76.16.2.44.72v.08l-.68.4-.4.2-.28-.4.08-.12.64-1 .04-.08z" fill="#D95B54"/><path d="m11.64 23.4.6.32.56.36-.16.12-.12.04-.12-.24-.24.04-1 .48h-.08l-.36-.6.16-.12.68-.32h.08v-.08z" fill="#C65164"/><path d="m7.4 21.08.08.04.44.92.36.76-.36.24-.4.24H7.4v-2.2z" fill="#A04541"/><path d="m14.04 24.92.24.04.28.2.32.52-.04.12-.64.36h-.12l-.56-.92v-.08l.52-.24z" fill="#DA5B54"/><path d="m9.24 22.68.16.2.16.28-.04.12-.68.32-.16-.16-.04-.08-.24.08-1.2.6L7 24l.12-.12.2-.12h.08v-.48l.2-.04.12.2.16-.04.48-.28h.24v-.08l.64-.36z" fill="#AF3B55"/><path d="M9.64 25.2h.12l.12.28-.12.04v.08l.2.08.16.16.2.36v.12l-.16.08-.16-.04-.36-.64v-.08l-.4.16-.92.44-.12.04-.32-.16L8 26l1.12-.56.2-.08h.12v-.08l.2-.08z" fill="#933058"/><path d="m9.44 22.56.16.04.96 1.6.4.68-.04.12-.24.08-.4-.64-.68-1.16-.32-.52.08-.16.08-.04z" fill="#CD787B"/><path d="m12.92 24.16.44.24.72.44.08.08-.56.24h-.08l.72 1.2v.12l-.2.08h-.12l-.56-.96-.12-.2.04-.12.16-.08-.04-.16-.4-.68-.08-.2z" fill="#DB8572"/><path d="m11.6 26.68.24.08.32.2.36.64-.12.12-.16.04.12.24v.08l.12-.04.08.32.08.16v.12l-.12.08-.16-.04-.84-.48-.08-.08.68-.32h.08l-.48-.88-.12-.24z" fill="#B17764"/><path d="m14.24 27.2.12.04.12.24-.04.12-1.12.64-.28.16h-.12l-.2-.36v-.12l1.16-.56.36-.16z" fill="#C3534C"/><path d="M21.16 26.76h.28l.16.08.24.48.04.16-.64.32-.16.04-.24-.36-.24-.44.56-.28z" fill="#DA5B54"/><path d="M15.8 26.08h.08l.16.28.28-.04v-.08l.16.08.2.12-.04.12-1.36.64-.44.2-.12-.12-.08-.24 1.12-.56h.08l-.04-.4z" fill="#A45962"/><path d="m10.32 22.04.2.04.16.08v.72l.24.08.4.24-.12.12-.44.2-.24.08-.36-.6.12-.12.32-.16v-.32l-.52.24-.16-.04-.12-.24.12-.12.4-.2z" fill="#C65063"/><path d="M27.72 12.88h.12v1.32l-.2-.08-.96-.56v-.08l1.04-.6z" fill="#BD957E"/><path d="m10.44 26.6.12.04.64 1.16.2-.04.6-.28h.08l.12.24v.08l-.68.32-.2-.04-.6-.36-.32-.64-.16-.28.04-.12.16-.08z" fill="#91314A"/><path d="m16.68 26.48.2.08.68.4.04.04v.68l-.28.16-.16-.04-.56-1.04-.08-.16.16-.12z" fill="#A14741"/><path d="m17.64 28.68.12.16.2.36v.08l.72-.32.16-.04.12.2v.12l-.68.32h-.12l.04.16.08.04-.56.32h-.08l-.04-.16v-.64l.04-.6z" fill="#AF3B55"/><path d="m15.12 25.6.12.04.12.2v.08l.16-.08h.2l.6.36v.12l-.16.08-.16-.04-.12-.2v-.08l-1 .48-.36.16h-.12l-.12-.2.04-.12.68-.32h.08l-.16-.28.04-.12.16-.08z" fill="#9B304E"/><path d="M10.6 25.12h.12l.44.76-.08.08-.36.16-.2-.08-.48-.28-.12-.2v-.12l.68-.32z" fill="#DA5A54"/><path d="M17.52 28.08h.12v.28l-.04.12-1.44.68-.16.04-.32-.2.16-.12 1.08-.52.52-.24.08-.04z" fill="#AE6D70"/><path d="m13.88 26.6.16.08.08.2-.64.32-.92.44-.16-.16-.2-.36.04-.12.16.08h.2l.16.04 1.12-.52z" fill="#AA3C42"/><path d="m26.88 22.8.16.16.16.28-.76.36.08.2-.04.16-.72.32-.24.08.08-.2.32-.44.28-.4.24.04.36-.44.08-.12z" fill="#DA665D"/><path d="M27.84 21.56h.04v1.36l-.28.16-.16-.04-.24-.36v-.08l-.2.12.08-.16.52-.68.24-.32z" fill="#C85064"/><path d="m8.76 21.08.32.16v.08l-.64.36.08.2.28.56-.04.12-.24.08L8 21.6l.04-.12.32-.16.4-.24z" fill="#91314B"/><path d="M27.8 23.68h.08v.56l-.6.36-.24.08-.28-.44v-.08l1.04-.48z" fill="#DA5B54"/><path d="m23.84 25.96.16.16.12.24-.36.24-.64.36-.28.04-.36-.64.16-.04.8.32.08-.2.32-.48z" fill="#C65266"/><path d="M21.8 26.72h.08l.32.56.24-.08.52-.24.08.04-1 .6-.84.48-.12-.16v-.08l.76-.36-.04-.16-.24-.48h.16v-.08l.08-.04z" fill="#AD3B54"/><path d="m9.84 21.72.24.08.28.2-.16.16-.64.32-.56.32-.12-.12-.04-.2.52-.32.52-.28-.04-.16z" fill="#B37C68"/><path d="M19.44 26.8h.32l.32.08-.16.12-1.04.48-.36.16-.16-.32.6-.28.48-.24z" fill="#BB4349"/><path d="m7 24.52.12.12.56 1.04.16.28v.08l-.24-.08-.6-.36v-1.08z" fill="#90344A"/><path d="M15.72 26.12h.12v.36l-1.16.56-.08.04-.12-.24.04-.16 1.2-.56z" fill="#CA7E6C"/><path d="m8.04 25.16.16.04.28.48v.12l-.56.28h-.08l-.28-.56v-.12l.48-.24z" fill="#9C3D63"/><path d="m11.6 26.04.16.2.36.64-.08.04-.92-.52-.24.04-.24.12h-.16l-.12-.2.04-.12.24-.12.2.08.16.08.36-.08.24-.16z" fill="#D97B6B"/><path d="M15.52 27.04h.08l.64 1.2v.12l-.28.12-.48-.88-.2-.36v-.08l.24-.12z" fill="#9D4741"/><path d="m8.92 25.92.16.16.32.6v.08l-.24.08-.88-.52.04-.12.6-.28z" fill="#9D4841"/><path d="m12.28 23.96.16.04.08.24-1.16.56-.16-.08-.08-.2.64-.32.52-.24z" fill="#AF3B55"/><path d="M27.8 23.32h.08v.36l-1.04.48-.16-.04-.08-.2-.08-.04.72-.32.56-.24z" fill="#DB8472"/><path d="m12.72 24.12.2.04.56.92-.04.16-.24.08-.2-.28-.24-.44-.2-.32v-.08l.16-.08z" fill="#DB8573"/><path d="m12.92 24.16.44.24.72.44.08.08-.68.28-.24-.44-.32-.52v-.08z" fill="#DA8573"/><path d="m7.4 20.44.12.12.32.64.32.68-.2.08-.08.08-.48-.96v-.64z" fill="#AE6D71"/><path d="M11.88 25.92h.08l.48.88.12.2v.12l-.24-.04-.16-.04-.48-.88-.04-.12.24-.12z" fill="#BB4348"/><path d="m8.36 23.12.08.04-.12.08v.24l-1.12.56L7 24l.12-.12.2-.12h.08v-.48l.2-.04.12.2.16-.04.48-.28z" fill="#B64C53"/><path d="m24.6 24.76.16.2.44.72v.08l-.2.12h-.12l-.36-.6-.24.04.2-.36.12-.2z" fill="#DB8573"/><path d="m18.48 27.64.16.16.04.16-1 .48h-.08l.04-.4.84-.4z" fill="#DB8572"/><path d="m11.6 26.68.24.08.32.2.36.64-.12.12-.2.04-.56-.96-.04-.12z" fill="#B17764"/><path d="m11.24 23.24.2.04.2.12v.08l-.84.4-.16-.08-.08-.2.36-.2.32-.16z" fill="#BB524B"/><path d="m10.48 24.8.16.16.04.16-.68.32h-.08l.08.28-.24-.12v-.08l.08-.08-.12-.28.76-.36z" fill="#AF3B55"/><path d="m18.36 26.64.56.04.56.08-.12.12-.6.28-.16-.04-.24-.4v-.08z" fill="#DA5B55"/><path d="M12 27.48h.08l.12.24v.08l-.68.32-.2-.04-.08-.24.76-.36z" fill="#91353A"/><path d="m18.96 27.8.12.12.36.64v.08l-.24.12h-.08l-.4-.72v-.12l.24-.12z" fill="#BB4248"/><path d="M15 26.08h.12l.12.2-.04.12-.68.32h-.12l-.12-.2.04-.12.68-.32z" fill="#AA3C42"/><path d="m27.12 23.24.16.08.08.2-.64.32-.2.04-.12-.2.04-.12.68-.32z" fill="#BB4348"/><path d="m7.8 20.52.4.2.52.32.04.08-.44.24H8.2l-.4-.76v-.08z" fill="#9E4254"/><path d="m10.32 22.04.2.04.16.08v.2l-.6.28-.16-.04-.12-.24.12-.12.4-.2z" fill="#D75A54"/><path d="m16.48 28.96.16.04.36.68-.04.08-.92-.52.12-.12.32-.16z" fill="#9B4544"/><path d="M11.16 24.84h.16l.4.68-.04.16-.24.08-.48-.8.12-.08.08-.04z" fill="#BB4349"/><path d="m12.48 27.64.16.16.12.24.16.28v.08l.08.04-.36.16-.16-.32-.04-.2h-.08l-.12-.2v-.12l.24-.12z" fill="#CA7F6D"/><path d="M15.36 26.68h.12l.12.24-.76.44h-.08l-.12-.24.04-.12.68-.32z" fill="#C3524C"/><path d="m7.4 21.08.08.04.4.84-.16.16-.2.12H7.4v-1.16z" fill="#91314B"/><path d="M9.88 23.88H10l.12.2v.12l-.68.32h-.12l-.12-.2v-.12l.64-.28.04-.04z" fill="#BB514B"/><path d="m8.52 24.92.2.04.56.32h.16v.08l-.56.24h-.12l-.28-.52.04-.16z" fill="#9D3E63"/><path d="M9.96 26.44h.12l.12.2v.12l-.6.28-.2-.08-.16-.08v-.08l.72-.36z" fill="#AB696C"/><path d="m19.12 28.76.12.16.08.12v.12l-.96.56h-.16l-.04-.16.72-.32h.08l-.12-.36.28-.12z" fill="#B75F6D"/><path d="m20.56 26.6.4.04.36.08-.16.08-.76.36-.16-.04-.08-.24.24.04.08-.24.08-.08z" fill="#DA8574"/><path d="m13.8 26.36.16.2-.16.12-1.04.48-.16-.04-.04-.08.56-.28.68-.4z" fill="#C3514B"/><path d="m8.24 22.8.12.12.04.16.2-.04v.08l-.32.08-.44.28-.16-.04-.08-.24.52-.32.12-.08z" fill="#B17764"/><path d="m8.32 21.72.12.04.36.68-.04.12-.24.08-.4-.8.12-.08.08-.04z" fill="#91363B"/><path d="m9.64 25.56.24.08.2.12.24.44v.12l-.16.08-.16-.04-.4-.72.04-.08z" fill="#91314B"/><path d="M11.4 25.76h.08l.12.2-.04.16-.2.12-.36.08-.28-.16v-.08l.68-.32z" fill="#DB8572"/><path d="m12.28 28.12.16.04.2.36v.12l-.12.08-.16-.04-.52-.32.16-.12.28-.12z" fill="#A94B45"/><path d="M25.04 24.96h.12l.32.52.08.08-.36.2-.32-.56v-.16l.16-.08z" fill="#BA4348"/><path d="M14.36 26.76h.12l.28.52v.12l-.28.16-.32-.6v-.12l.2-.08z" fill="#CA806D"/><path d="M21.8 26.72h.08l.32.56-.08.12-.24.08-.24-.44-.08-.2h.16v-.08l.08-.04z" fill="#AF3C55"/><path d="m9.28 24.56.16.08.28.56-.16.08-.2-.04-.28-.56.2-.12z" fill="#A6375F"/><path d="m8.32 23.44.12.12.08.2-.56.28h-.08l-.12-.24v-.08l.56-.28z" fill="#A83861"/><path d="m22.48 26.32.24.04.28.12.2.4-.08.08-.28.04-.36-.64v-.04z" fill="#BA524D"/><path d="m18.04 26.72.08.16.2.36-.04.16-.24.08-.32-.56.32-.2z" fill="#DB8573"/><path d="m9.24 22.68.16.2v.08l-.68.32H8.6l-.08-.16h.08v-.08l.64-.36z" fill="#D85A54"/><path d="m9.04 24.68.12.12.24.44v.08l-.2-.04-.6-.36.12-.08.32-.16z" fill="#BA476D"/><path d="M17.64 26.92h.12l.28.56-.36.2h-.08v-.72l.04-.04z" fill="#D85B54"/><path d="M15.96 26.44h.12l.12.2v.12l-1.32.64-.04-.08.76-.44.2-.12h.08v-.24l.08-.08z" fill="#AB676B"/><path d="m12.92 24.16.44.24.36.24v.08l-.4.16-.4-.64v-.08z" fill="#D95D56"/><path d="m17.68 29.44.12.16.04.08.32-.08.04.12.08.04-.56.32h-.08l-.04-.16v-.44l.08-.04z" fill="#AA3B63"/><path d="m9.44 22.56.16.04.28.48-.12.08-.2.04-.28-.44.08-.16.08-.04z" fill="#B96571"/><path d="M18 27.48h.08l.12.24v.08l-.6.28v-.4l.4-.2z" fill="#BA4348"/><path d="m26.72 24.16.16.2.16.24-.04.12-.24.12-.28-.4v-.08l-.08-.04.32-.16z" fill="#DB8572"/><path d="m7.88 24.04.12.12.24.44v.08L8 24.6l-.52-.32.04-.08.36-.16z" fill="#B24B5A"/><path d="M17.56 29.48h.04l.08.64-.16-.04-.48-.28v-.08l.52-.24z" fill="#903257"/><path d="m25.92 23.76.2.04.12.24-.64.32h-.08l.08-.2.32-.4z" fill="#BC464B"/><path d="m14.56 25.16.44.24.64.4-.12.08-.16.04-.16-.28-.24.08-.08.04-.32-.52v-.08z" fill="#B04158"/><path d="m8.64 26.04.12.16.24.44-.04.08-.68-.4.04-.12.32-.16z" fill="#9E4255"/><path d="M15.72 26.12h.12v.36l-.32.16h-.12l-.08-.24-.12-.04.52-.24z" fill="#B66971"/><path d="m12.96 27.8.12.12.16.28-.04.12-.16.08h-.12l-.2-.36v-.12l.24-.12z" fill="#AA3D43"/><path d="M17.52 28.08h.12v.28l-.04.12-.36.12-.12-.2v-.12l.4-.2z" fill="#A86667"/><path d="m10.64 26.12.2.08.2.12-.16.12-.24.12h-.16l-.12-.2.04-.12.24-.12z" fill="#B17664"/><path d="m12.2 27 .24.12.04.12.2-.04.12.24v.08l-.28.12-.24-.4-.08-.12V27z" fill="#952F3B"/><path d="M7.48 25.44h.08l.28.52v.08l-.24-.08-.28-.16-.08-.24.24-.12z" fill="#903057"/><path d="m14.84 27.92.16.2.28.56-.04.08-.4-.24v-.6z" fill="#8F304A"/><path d="m7 24.52.12.12.24.44v.08l-.28.12-.08-.12v-.64z" fill="#903057"/><path d="M27.8 23.32h.08v.36l-.24.12-.12-.04-.12-.24.4-.2z" fill="#BD6973"/><path d="m8.8 22.48.08.12.12.16.28-.16.08.04-.68.4L8.6 23l.04-.16-.08-.2.24-.16z" fill="#A35954"/><path d="m7.4 21.08.08.04.28.6-.36.16v-.8z" fill="#9F4255"/><path d="m18.96 29.16.08.16-.68.4h-.16l-.04-.16.72-.32h.08v-.08z" fill="#C34D61"/><path d="M17.52 28.48h.08v.76l-.12-.16-.2-.36.04-.16.2-.08z" fill="#91314B"/><path d="m7.4 20.32.24.08.2.2.08.16-.2.12h-.08l-.24-.44v-.12z" fill="#903741"/><path d="m23.84 25.96.16.16.12.24-.32.2-.12-.24.04-.16.12-.2z" fill="#AF3D56"/><path d="m24.76 24.56.28.24.08.16-.24.12h-.08l-.16-.24.04-.2.08-.08z" fill="#B66D6B"/><path d="M19.36 28.64h.12l.12.24V29l-.2.12h-.08l-.16-.28.04-.12.16-.08z" fill="#9E2F4F"/><path d="m22.96 26.96.08.04-1 .6h-.08l-.04-.16 1.04-.48z" fill="#9B3257"/><path d="M27.84 21.56h.04v.76l-.2-.2-.08-.12.04-.16.2-.28z" fill="#BC5450"/><path d="m9.76 22.32.08.04.16.32-.32.12-.12-.2h-.2l.12-.12.28-.16z" fill="#B84649"/><path d="m26.28 23.64.16.04.08.12-.04.16-.24.08-.16-.24-.16-.08.12-.04.24-.04z" fill="#C06762"/><path d="m15.12 25.6.12.04.12.2-.04.12-.24.08-.16-.24.04-.12.16-.08z" fill="#A33651"/><path d="m18.32 27.28.12.16.08.2-.2.12-.16-.04-.08-.16v-.12l.2-.08.04-.08z" fill="#BE6661"/><path d="m14.24 26.44.16.2v.08l.08.04-.36.12-.16-.24v-.08l.28-.12z" fill="#B2625D"/><path d="m16.36 28.64.12.04.08.16v.12l-.28.12-.12-.2v-.08l-.08-.04.28-.12z" fill="#AB7060"/><path d="M11.4 25.76h.08l.12.2-.04.16-.24.08-.16-.24v-.08l.24-.12z" fill="#DBA589"/><path d="M13.28 24.88h.08l.12.2-.04.16-.24.08-.16-.24V25l.24-.12z" fill="#DCA589"/><path d="M26.48 23.92h.12l.12.2-.04.12-.16.08h-.12l-.16-.28.24-.12z" fill="#DBA589"/><path d="M8.2 23.28h.08l.04.2-.48.24-.16-.04.04-.12.48-.28z" fill="#C64E63"/><path d="M27.4 23.12h.16l.12.2v.08l-.24.12h-.08l-.16-.24v-.08l.2-.08z" fill="#9E2D4D"/><path d="m18.48 27.64.16.16.04.16-.24.12h-.08l-.12-.2v-.12l.24-.12z" fill="#DBA589"/><path d="m12.48 27.64.16.16.04.16-.24.12h-.08l-.12-.2v-.12l.24-.12z" fill="#C59D81"/><path d="m12.72 27.52.16.04.08.16v.12l-.24.08-.04.08-.16-.36.2-.12z" fill="#B46662"/><path d="m12.32 27.32.16.2.04.12-.2.12-.16-.04-.08-.16v-.12l.24-.12z" fill="#A05D58"/><path d="m18.72 27.52.16.04.08.16v.12l-.28.12-.16-.32.2-.12z" fill="#C06B66"/><path d="M14.36 26.76h.12l.12.28-.2.12-.16-.04-.08-.16v-.12l.2-.08z" fill="#CFA085"/><path d="m10.08 25.8.24.08.32.2v.08l-.24.12h-.08l-.24-.48z" fill="#A34742"/><path d="M18.6 27.2h.08l.12.2v.12l-.28.12-.16-.32.24-.12z" fill="#A4313F"/><path d="m10.32 26.28.16.2v.08l.08.04-.36.12-.12-.2v-.12l.24-.12z" fill="#9D5563"/><path d="m10.24 23.72.16.2.04.12-.24.12h-.08l-.16-.32.28-.12z" fill="#C17768"/><path d="M8.72 25.64h.12l.12.28-.2.12h-.12l-.12-.2.04-.12.16-.08z" fill="#913749"/><path d="m8.16 24.72.2.04.08.24-.24.12h-.08l-.12-.2v-.12l.16-.08z" fill="#9B4643"/><path d="M17.56 27.68h.04v.4l-.2.08-.16-.24v-.08l.32-.16z" fill="#91343A"/><path d="m10.72 24.68.16.04.08.24-.2.12-.12-.04-.12-.24.2-.12z" fill="#B96571"/><path d="m9.16 24.24.16.2.04.12-.24.12h-.08l-.12-.2v-.12l.24-.12z" fill="#A03A50"/><path d="m9.88 22.68.16.04.12.24-.2.12h-.12l-.12-.2v-.12l.16-.08z" fill="#9E2D4D"/><path d="m11.68 25.64.12.04.12.24-.2.12h-.12l-.12-.2.04-.12.16-.08z" fill="#BE6762"/><path d="m17.92 29.32.12.04.12.24-.24.12-.12-.04-.08-.16v-.12l.2-.08z" fill="#972C56"/><path d="m10.48 23.6.12.04.12.2v.08l-.2.08h-.12l-.12-.2.04-.12.16-.08z" fill="#A64044"/><path d="m8.56 23.32.12.04.12.2v.08l-.2.08h-.12l-.12-.28.2-.12z" fill="#972C56"/><path d="m11.08 24.52.12.12.08.2-.2.08-.16-.04-.08-.24.24-.12z" fill="#9D2D4D"/><path d="m7.68 23.76.12.04.08.16v.12l-.28.08-.12-.2.04-.12.16-.08z" fill="#A13D4F"/><path d="m15.88 25.96.44.24v.12l-.16.08-.16-.04-.12-.2v-.2z" fill="#91344D"/><path d="m8.44 22.68.16.04.08.12-.04.16-.12.08H8.4l-.12-.28.16-.12z" fill="#BC9A7E"/><path d="m7.96 21.52.12.16.08.2-.2.08-.08.08-.12-.24.04-.16.16-.12z" fill="#A25D68"/><path d="m7.04 24.08.2.04.2.12-.16.12-.28.12v-.36l.04-.04z" fill="#92315A"/><path d="m7.52 23.24.12.04.12.24-.36.2v-.44l.12-.04z" fill="#9E5663"/><path d="M8.2 21.4h.08l.12.24v.08l-.16.08-.16-.04-.08-.24.2-.12z" fill="#872645"/><path d="m7.44 23.88.12.16.08.16-.24.04-.2-.12H7l.04-.12.24-.04.16-.08z" fill="#A63860"/><path d="m9.44 22.56.16.04.08.2-.2.12-.16-.08-.04-.16.16-.12z" fill="#DA8472"/><path d="m20.44 26.76.12.16.04.12-.2.12-.16-.04-.08-.24.24.04.04-.16z" fill="#DBA78B"/><path d="m14.08 26.2.16.16v.12l-.2.08h-.12l-.08-.2.24-.16z" fill="#CA7E6C"/><path d="m24.6 24.76.16.2.04.16-.2.08-.16-.04v-.12l.16-.28z" fill="#DAA68B"/><path d="m15.68 26.52.12.04.04.2-.2.12-.12-.04-.08-.2.24-.12z" fill="#A33751"/><path d="M27.8 23.68h.08v.56l-.16-.2-.12-.16.04-.12.16-.08z" fill="#B03C55"/><path d="m7.4 20.44.12.12.16.36-.28.12v-.6z" fill="#AA6D62"/><path d="m7 25.16.16.2.16.32-.04.08L7 25.6v-.44z" fill="#9C4547"/><path d="m21 27.88.16.08-.04.16-.12.08-.16-.04-.04-.2.2-.08z" fill="#B15A6A"/></svg>