<svg xmlns="http://www.w3.org/2000/svg" width="36" height="36" viewBox="0 0 36 36"><g fill="none" fill-rule="evenodd"><circle cx="18" cy="18" r="17" fill="#FFF"/><path fill="#016681" fill-rule="nonzero" d="M18 0c9.941 0 18 8.059 18 18s-8.059 18-18 18S0 27.941 0 18 8.059 0 18 0zm0 5C10.832 5 5 10.832 5 18s5.832 13 13 13c7.152 0 12.973-5.805 13-12.95v-.1a13.066 13.066 0 0 0-.356-2.97 1.394 1.394 0 1 0-2.713.645c.187.782.28 1.581.28 2.375 0 5.63-4.58 10.212-10.211 10.212-5.63 0-10.212-4.581-10.212-10.212C7.788 12.37 12.37 7.788 18 7.788c.792 0 1.59.094 2.37.28a1.394 1.394 0 1 0 .644-2.713A13.058 13.058 0 0 0 18 5zm8.038 2.883a2.07 2.07 0 0 0-1.468.608c-.018.018-.03.04-.048.058-.325.35-.512.783-.55 1.23 0 .075-.003.148-.007.222-.003.05-.011.1-.016.15a3.713 3.713 0 0 1-4.82 3.172 4.788 4.788 0 0 0-4.386 1.145c-.049.045-.1.082-.148.129a4.785 4.785 0 0 0-1.253 2.205 4.805 4.805 0 0 0 1.253 4.6 4.807 4.807 0 0 0 5.107 1.092 4.79 4.79 0 0 0 1.697-1.094c.204-.204.379-.427.539-.657a4.807 4.807 0 0 0 .735-3.866 3.466 3.466 0 0 1-.071-.262l-.01-.039a3.716 3.716 0 0 1 3.307-4.536l.082-.009a3.4 3.4 0 0 1 .235-.008h.019a2.059 2.059 0 0 0 1.27-.598c.083-.084.154-.176.22-.27a2.07 2.07 0 0 0-1.687-3.272z"/></g></svg>