<svg width="36" height="36" viewBox="0 0 36 36" xmlns="http://www.w3.org/2000/svg"><g fill="none" fill-rule="evenodd"><path d="M18 .5C27.665.5 35.5 8.335 35.5 18S27.665 35.5 18 35.5.5 27.665.5 18 8.335.5 18 .5z" fill="#FFF"/><path d="M18 0c9.941 0 18 8.059 18 18s-8.059 18-18 18S0 27.941 0 18 8.059 0 18 0zm-1.631 19.738 2.42 10.86.027.082a.524.524 0 0 0 .304.289c.138.05.29.04.417-.031l.074-.05 6.636-4.875.066-.055a.496.496 0 0 0-.048-.744l-.072-.046-9.824-5.43zm.171-14.244a.5.5 0 0 0-.484-.036l-.075.043-6.457 4.952-.106.09c-.233.221-.38.519-.411.839L9 11.52v12.566l.005.14c.03.324.176.627.412.85l.107.092 6.426 4.937.075.043a.5.5 0 0 0 .71-.465l-.01-.086-2.49-11.798 2.522-11.79.01-.086a.5.5 0 0 0-.227-.43zm10.43 6.938a.508.508 0 0 0-.436-.03l-.082.041-9.695 5.558 9.696 5.553.082.04a.512.512 0 0 0 .685-.39l.008-.091V12.88l-.007-.091a.508.508 0 0 0-.251-.358zm-7.44-7.378a.527.527 0 0 0-.711.253l-.03.081-2.42 10.86 9.82-5.43.071-.045a.489.489 0 0 0 .052-.734l-.065-.055L19.62 5.11l-.088-.055z" fill="#31CB9E"/></g></svg>