<svg height="36" viewBox="0 0 36 36" width="36" xmlns="http://www.w3.org/2000/svg"><g fill="none"><circle cx="18" cy="18" fill="#000" r="18"/><path d="M28.665 10.82c-.378-.298-.829-.705-1.65-.807-.771-.102-1.557.415-2.088.756s-1.534 1.346-1.949 1.651c-.414.306-1.476.59-3.185 1.615-1.71 1.025-8.415 5.33-8.415 5.33l1.746.023-7.782 4.007h.778l-1.12.85s.99.263 1.818-.261v.24s9.266-3.65 11.055-2.705l-1.091.32c.094 0 1.854.116 1.854.116a2.497 2.497 0 0 0 1.12 1.804c1.062.698 1.084 1.083 1.084 1.083s-.553.226-.553.51c0 0 .815-.248 1.571-.226.48.018.956.094 1.418.225 0 0-.058-.305-.792-.509-.735-.203-1.462-1.003-1.819-1.44a2.036 2.036 0 0 1-.298-1.993c.255-.661 1.142-1.025 2.975-1.97 2.16-1.12 2.654-1.95 2.96-2.597.305-.647.756-1.934 1.01-2.538.32-.778.713-1.193 1.04-1.44.328-.247 1.783-.793 1.783-.793s-1.113-.967-1.47-1.25z" fill="#fff"/></g></svg>