<svg width="36" height="36" fill="none" xmlns="http://www.w3.org/2000/svg"><circle cx="18" cy="18" r="18" fill="#fff"/><path d="M16.04 32.96c-1.223-.96-1.83-1.957-1.827-2.99a3.579 3.579 0 0 1 .973-2.56l13.861-13.86c.954.814 1.518 1.738 1.701 2.78a3.126 3.126 0 0 1-.884 2.806L16.04 32.96zm-4.94-4.94c-1.226-.963-1.833-1.96-1.827-2.99a3.579 3.579 0 0 1 .973-2.559L24.107 8.61c.952.811 1.519 1.738 1.702 2.78a3.125 3.125 0 0 1-.887 2.803L11.1 28.021zm-4.943-4.942c-1.226-.963-1.832-1.96-1.826-2.991a3.58 3.58 0 0 1 .972-2.558L19.165 3.667c.954.814 1.518 1.738 1.701 2.781a3.127 3.127 0 0 1-.884 2.805L6.157 23.078z" fill="url(#a)"/><defs><linearGradient id="a" x1="12.669" y1="13.405" x2="24.132" y2="24.868" gradientUnits="userSpaceOnUse"><stop stop-color="#7EB5FF"/><stop offset="1" stop-color="#1A38F8"/></linearGradient></defs></svg>