<svg width="36" height="36" fill="none" xmlns="http://www.w3.org/2000/svg"><circle cx="18" cy="18" r="18" fill="#050921"/><path d="M10.864 12.682c3.941-3.918 10.331-3.918 14.272 0l3.405 3.386-3.405 3.385c-3.941 3.919-10.33 3.919-14.272 0l-3.405-3.385 3.405-3.386z" fill="#000"/><path fill-rule="evenodd" clip-rule="evenodd" d="m5 16.073 7.73-7.735h10.54L31 16.073 18 29.068 5 16.073zm18.973-2.816c-3.284-3.299-8.662-3.299-11.946 0l-2.81 2.81 2.81 2.811c3.284 3.3 8.662 3.3 11.946 0l2.81-2.81-2.81-2.811z" fill="#0CE466"/><path d="M18 18.527a2.46 2.46 0 1 1 0-4.919 2.46 2.46 0 0 1 0 4.92z" fill="#000"/><path fill-rule="evenodd" clip-rule="evenodd" d="M13.96 16.067a4.04 4.04 0 1 0 8.08 0 4.04 4.04 0 0 0-8.08 0zm2.283 0a1.757 1.757 0 1 0 3.514 0 1.757 1.757 0 0 0-3.514 0z" fill="#fff"/></svg>