<svg width="36" height="36" fill="none" xmlns="http://www.w3.org/2000/svg"><circle cx="18" cy="18" r="18" fill="#fff"/><path d="M24.732 29.02 6.964 16.547a4.603 4.603 0 0 1 0-7.54L11.268 6l17.768 12.475a4.604 4.604 0 0 1 0 7.54l-4.304 3.005zM11.266 8.006 7.91 10.353a2.96 2.96 0 0 0 0 4.85l16.826 11.812 3.355-2.346a2.96 2.96 0 0 0 0-4.85L11.266 8.006z" fill="#4BC0C8"/><path d="M11.25 27.003 7.9 24.651a2.96 2.96 0 0 1 0-4.85l8.671-6.063-1.43-1-8.179 5.717a4.602 4.602 0 0 0 0 7.54l4.293 3.014 5.31-3.716-1.43-1.004-3.885 2.714zM29.044 9.025 24.75 6.01l-5.315 3.72 1.43 1.004 3.884-2.711 3.351 2.352a2.962 2.962 0 0 1 0 4.85l-8.673 6.057 1.43 1.005 8.18-5.723a4.602 4.602 0 0 0 0-7.54h.007z" fill="#02819B"/><path d="m14.742 13.008-6.757 4.727.942 1.347 6.757-4.728-.942-1.346zm12.484 2.817-3.292 2.305.941 1.346 3.414-2.39c-.358-.414-.71-.836-1.063-1.26z" fill="#02819B"/></svg>