<svg xmlns="http://www.w3.org/2000/svg" width="36" height="36" viewBox="0 0 36 36"><g fill="none" fill-rule="evenodd"><circle cx="18" cy="18" r="17" fill="#FFF"/><path fill="#06244E" fill-rule="nonzero" d="M18 0c9.941 0 18 8.059 18 18s-8.059 18-18 18S0 27.941 0 18 8.059 0 18 0zm-2.288 29.145 3.157-3.547c.053-.053.018-.142-.071-.142h-3.476a.134.134 0 0 1-.07-.035l-2.945-3.299c-.017-.035-.035-.07-.017-.106l4.93-8.46c.017-.035.017-.07 0-.088l-2.04-3.511c-.035-.053-.124-.053-.16 0l-7.288 12.52a.113.113 0 0 0 0 .106l5.852 6.58c.018.017.036.035.071.035h1.986c.018-.018.054-.035.071-.053zm2.164-24.083-2.057 3.511c-.018.036-.018.071 0 .09l2.128 3.652 5.64 9.683c.017.036.017.071-.019.106l-2.979 3.334-3.174 3.583c-.053.053-.018.142.07.142h4.753a.134.134 0 0 0 .071-.036l5.853-6.58c.017-.035.035-.07.017-.106L18.018 5.062c-.018-.07-.107-.07-.142 0z"/></g></svg>