<svg xmlns="http://www.w3.org/2000/svg" width="36" height="36" viewBox="0 0 36 36"><g fill="none" fill-rule="evenodd"><circle cx="18" cy="18" r="17" fill="#FFF"/><path fill="#345D9D" fill-rule="nonzero" d="M18 0c9.941 0 18 8.059 18 18 0 9.942-8.059 18-18 18S0 27.942 0 18C0 8.06 8.059 0 18 0zm3.269 6.314h-3.637a.614.614 0 0 0-.613.45l-3.391 11.522-2.697.817-.613 1.88 2.697-.817-2.41 8.212h14.382a.614.614 0 0 0 .613-.45l.817-2.818v-.123a.472.472 0 0 0-.49-.49h-9.398l1.757-5.925 2.738-.776.572-1.962-2.697.818 2.86-9.725v-.123a.472.472 0 0 0-.49-.49z"/></g></svg>