<svg width="36" height="36" fill="none" xmlns="http://www.w3.org/2000/svg"><circle cx="18" cy="18" r="18" fill="#F2F4F7"/><path d="M17.426 30.924c6.825 0 12.358-5.517 12.358-12.322 0-6.806-5.533-12.323-12.358-12.323S5.068 11.796 5.068 18.602c0 6.805 5.533 12.322 12.358 12.322z" fill="#F2E373"/><path fill-rule="evenodd" clip-rule="evenodd" d="M22.447 17.325 5.562 22.34c.77 2.445 2.343 4.7 4.725 6.367 5.88 4.106 13.215 2.36 17.812-2.544.099-.106 0-.28-.133-.22a4.521 4.521 0 0 1-2.772.343 4.437 4.437 0 0 1-2.3-1.211 4.408 4.408 0 0 1-1.22-2.288 4.465 4.465 0 0 1 .567-3.193 4.496 4.496 0 0 1 2.581-1.975l-2.375-.294z" fill="url(#a)"/><path fill-rule="evenodd" clip-rule="evenodd" d="M20.497 16.347a7.76 7.76 0 0 0 .968-.477 7.678 7.678 0 0 1 9.501 1.52.136.136 0 0 1 .013.156.135.135 0 0 1-.146.063c-2.105-.442-4.374-.529-6.102.034-2.083.68-3.612 2.157-4.67 3.99-1.55 2.685-2.188 3.445-4.692 4.418-4.364 1.696-8.435.16-9.806-3.704a12.377 12.377 0 0 1 .393-8.475 12.444 12.444 0 0 1 5.763-6.248c1.511-.797 3.344-1.47 4.88-1.912 1.48-.42 3.997-1.032 4.647-2.619a.147.147 0 0 1 .24-.044.146.146 0 0 1 .041.084c.26 1.875-.172 2.73-1.252 3.742-1.171 1.099-2.617 1.599-3.915 2.392-1.978 1.307-2.605 3.694-1.293 5.664.78 1.171 2.108 1.793 3.503 1.793a5.349 5.349 0 0 0 1.27-.157c.224-.058.444-.132.657-.22z" fill="url(#b)"/><defs><linearGradient id="a" x1="15.993" y1="8.184" x2="29.195" y2="25.753" gradientUnits="userSpaceOnUse"><stop stop-color="#F7D45C"/><stop offset="1" stop-color="#DE3633"/></linearGradient><linearGradient id="b" x1="9.367" y1="8.432" x2="20.633" y2="21.143" gradientUnits="userSpaceOnUse"><stop stop-color="#F7D45C"/><stop offset="1" stop-color="#DE3633"/></linearGradient></defs></svg>