<svg height="36" viewBox="0 0 36 36" width="36" xmlns="http://www.w3.org/2000/svg"><linearGradient id="a" x1="85.355%" x2="14.645%" y1="14.645%" y2="85.355%"><stop offset="0" stop-color="#ff2d55"/><stop offset="1" stop-color="#ffbc5b"/></linearGradient><linearGradient id="b" x1="49.966%" x2="49.966%" y1="0%" y2="100%"><stop offset="0" stop-color="#a524b3"/><stop offset="1" stop-color="#ff2d55"/></linearGradient><g fill="none"><circle cx="18" cy="18" fill="#4f473b" r="18"/><circle cx="18" cy="18" fill="url(#a)" r="18"/><path d="M12.753 11.7v13.5h11.25z" fill="url(#b)"/><path d="M1.503 25.2h11.25V11.7z" fill="#fff"/><path d="M3.6 28.8a18.435 18.435 0 0 0 3.6 3.6h21.6a18.435 18.435 0 0 0 3.6-3.6z" fill="#fc9965"/><path d="M7.2 32.4C10.206 34.659 13.95 36 18 36s7.794-1.341 10.8-3.6z" fill="#ff2d55"/><path d="M24.147 18.9v9.9H32.4z" fill="url(#b)"/><path d="M24.147 25.2H1.503A17.923 17.923 0 0 0 3.6 28.8h20.556v-3.6z" fill="#ffbc5b"/><path d="M15.903 28.8h8.244v-9.9z" fill="#fff"/><g fill="#ffc95b"><circle cx="24.147" cy="11.7" r="4.5"/><circle cx="12.753" cy="6.75" r="2.25"/></g></g></svg>