<svg width="36" height="36" fill="none" xmlns="http://www.w3.org/2000/svg"><circle cx="18" cy="18" r="18" fill="#5B449B"/><path d="M29 10.858v14.94a19.43 19.43 0 0 1-1.342-.192l-.192-.034-.621-.114-.218-.04c-1.094-.2-2.186-.409-3.278-.624a198.705 198.705 0 0 0-3.176-.595c-1.14-.205-2.28-.421-3.416-.647-.898-.175-1.796-.343-2.696-.505v-9.439c2.115-.41 4.233-.809 6.353-1.194.832-.153 1.663-.313 2.492-.478 1.354-.267 2.712-.514 4.07-.758.296-.052.591-.107.886-.163l.605-.117c.236-.04.236-.04.533-.04z" fill="#fff"/><path d="M7 9c1.363.17 1.363.17 1.857.272l.173.035.364.073a146.136 146.136 0 0 0 3.478.66c1.15.208 2.298.425 3.444.652 1.004.198 2.01.38 3.022.538-.2.2-.353.198-.632.245l-.64.108c-.231.038-.461.079-.691.118l-.178.03c-.405.07-.808.144-1.21.222l-.164.031-1.293.252c-.545.075-1.03.015-1.565-.085a9.68 9.68 0 0 0-.207-.038l-.433-.08a161.992 161.992 0 0 0-1.262-.233c-.689-.129-1.371-.277-2.056-.422v13.899l2.155-.446c.426-.085.851-.17 1.278-.251l.147-.03.436-.083.25-.048c.597-.076 1.152-.028 1.741.086l.206.037.643.122 1.051.196c.369.07.738.137 1.107.2l.23.04.436.074.197.035.174.03.131.038.075.149-1.587.296c-.832.154-1.664.309-2.497.46a531.754 531.754 0 0 0-7.574 1.437c-.234.036-.234.036-.606.036V9z" fill="#fff"/></svg>