<svg width="36" height="36" viewBox="0 0 36 36" xmlns="http://www.w3.org/2000/svg"><g fill="none" fill-rule="evenodd"><circle fill="#FFF" cx="18" cy="18" r="17"/><path d="M18 0c9.941 0 18 8.059 18 18s-8.059 18-18 18S0 27.941 0 18 8.059 0 18 0zM8.03 12.706a.96.96 0 0 0-.53.854v9.84h1.64v-8.472l6.425 4.835V23.4h1.64v-3.978c0-.3-.142-.582-.381-.762l-7.792-5.866a.96.96 0 0 0-1.001-.088zm19.987.002a.96.96 0 0 0-.887.016l-.113.072-7.792 5.864a.956.956 0 0 0-.372.635l-.009.127V23.4h1.64v-3.637l6.425-4.835V23.4h1.64v-9.84a.96.96 0 0 0-.532-.852z" fill="#4FA89B" fill-rule="nonzero"/></g></svg>