<svg height="36" viewBox="0 0 36 36" width="36" xmlns="http://www.w3.org/2000/svg"><g fill="none"><circle cx="18" cy="18" fill="#000" r="18"/><path d="m24.335 8.553-4.387 6.51c-.303.444.28.98.7.607l4.317-3.757c.117-.093.28-.023.28.14V23.79c0 .163-.21.233-.303.117L11.875 8.273a2.159 2.159 0 0 0-1.703-.793h-.467c-1.213 0-2.217 1.003-2.217 2.24v16.52a2.24 2.24 0 0 0 4.154 1.167l4.386-6.51c.304-.444-.28-.98-.7-.607l-4.316 3.733c-.117.094-.28.024-.28-.14V12.17c0-.163.21-.233.303-.117l13.067 15.634c.42.513 1.05.793 1.703.793h.467a2.24 2.24 0 0 0 2.24-2.24V9.72a2.24 2.24 0 0 0-2.24-2.24 2.26 2.26 0 0 0-1.937 1.073z" fill="#fff"/></g></svg>