<svg width="36" height="36" viewBox="0 0 36 36" xmlns="http://www.w3.org/2000/svg"><g fill="none" fill-rule="evenodd"><path d="M18 .5C27.665.5 35.5 8.335 35.5 18S27.665 35.5 18 35.5.5 27.665.5 18 8.335.5 18 .5z" fill="#FFF"/><path d="M18 0c9.941 0 18 8.059 18 18s-8.059 18-18 18S0 27.941 0 18 8.059 0 18 0zm-.008 30.23a.49.49 0 1 0-.001.979.49.49 0 0 0 0-.979zm-5.574-2.786a.49.49 0 1 0 0 .978.49.49 0 0 0 0-.978zm11.072 0a.489.489 0 1 0-.002.977.489.489 0 0 0 .002-.977zm-5.498-.98a.942.942 0 1 0 0 1.884.942.942 0 0 0 0-1.884zM6.921 24.657a.49.49 0 1 0-.001.978.49.49 0 0 0 0-.978zm22.142 0a.489.489 0 1 0-.001.978.489.489 0 0 0 0-.978zm-16.644-.98a.942.942 0 1 0 0 1.884.942.942 0 0 0 0-1.883zm11.071 0a.942.942 0 1 0 0 1.884.942.942 0 0 0 0-1.883zm-5.498-1.957a1.393 1.393 0 1 0 0 2.786 1.393 1.393 0 0 0 0-2.786zM6.92 20.89a.942.942 0 1 0 0 1.883.942.942 0 0 0 0-1.883zm22.142 0a.941.941 0 1 0 0 1.883.941.941 0 0 0 0-1.883zm-16.645-1.883a1.393 1.393 0 1 0 0 2.786 1.393 1.393 0 0 0 0-2.786zm11.072 0a1.393 1.393 0 1 0-.001 2.786 1.393 1.393 0 0 0 0-2.786zm-5.536-2.937a1.883 1.883 0 1 0 0 3.766 1.883 1.883 0 0 0 0-3.766zm-11.033.15a1.393 1.393 0 1 0 0 2.787 1.393 1.393 0 0 0 0-2.786zm22.142 0a1.393 1.393 0 1 0 0 2.787 1.393 1.393 0 0 0 0-2.786zm-16.607-2.936a1.883 1.883 0 1 0 0 3.765 1.883 1.883 0 0 0 0-3.765zm11.071 0a1.883 1.883 0 1 0 0 3.765 1.883 1.883 0 0 0 0-3.765zm-5.573-2.712a1.883 1.883 0 1 0 0 3.767 1.883 1.883 0 0 0 0-3.767zm11.071 0a1.883 1.883 0 1 0 0 3.766 1.883 1.883 0 0 0 0-3.766zm-22.142 0a1.883 1.883 0 1 0 0 3.766 1.883 1.883 0 0 0 0-3.766zm5.573-2.786a1.882 1.882 0 1 0 0 3.764 1.882 1.882 0 0 0 0-3.764zm11.071 0a1.882 1.882 0 1 0 0 3.764 1.882 1.882 0 0 0 0-3.764zM17.954 5a1.883 1.883 0 1 0 0 3.766 1.883 1.883 0 0 0 0-3.766z" fill="#141414" fill-rule="nonzero"/></g></svg>