<svg xmlns="http://www.w3.org/2000/svg" width="36" height="36" fill="none"><circle cx="18" cy="18" r="17" fill="#000"/><path fill="#fff" d="M8 8.6c0-.33.27-.6.6-.6h5.52c.33 0 .6.27.6.6v5.52a.6.6 0 0 1-.6.6H8.59a.6.6 0 0 1-.59-.6V8.59zm0 13.41a.6.6 0 0 1 .6-.59h5.52c.33 0 .6.27.6.6v5.52a.6.6 0 0 1-.6.6H8.59a.6.6 0 0 1-.59-.6V22zm6.71-6.71a.6.6 0 0 1 .6-.59h5.52c.33 0 .6.27.6.6v5.52a.6.6 0 0 1-.6.6H15.3a.6.6 0 0 1-.59-.6V15.3zm6.58 6.71c0-.32.26-.59.6-.59h5.52a.6.6 0 0 1 .59.6v5.52a.6.6 0 0 1-.6.6h-5.52a.6.6 0 0 1-.59-.6V22zm0-13.41c0-.33.26-.6.6-.6h5.52a.6.6 0 0 1 .59.6v5.52a.6.6 0 0 1-.6.6h-5.52a.6.6 0 0 1-.59-.6V8.59z"/></svg>