<svg height="36" viewBox="0 0 36 36" width="36" xmlns="http://www.w3.org/2000/svg"><linearGradient id="a" x1="6.333%" x2="93.333%" y1="92.317%" y2="5.791%"><stop offset="0" stop-color="#00aee9"/><stop offset="1" stop-color="#69fabd"/></linearGradient><g fill="none"><circle cx="18" cy="18" fill="#525865" r="18"/><path d="M16.47 0a4.528 4.528 0 0 0-4.531 4.516v5.008c-.467.031-.944.05-1.439.05s-.97.02-1.438.049V4.516a4.531 4.531 0 0 0-9.062 0v11.968a4.531 4.531 0 0 0 9.062 0v-5.007c.466-.032.943-.052 1.438-.052s.97-.02 1.439-.048v5.107a4.531 4.531 0 0 0 9.061 0V4.516A4.528 4.528 0 0 0 16.47 0zM4.53 1.85a2.673 2.673 0 0 1 2.674 2.666V9.82c-1.325.192-2.62.558-3.85 1.088a7 7 0 0 0-1.493.892V4.516A2.673 2.673 0 0 1 4.53 1.85zm2.674 14.634a2.674 2.674 0 0 1-5.348 0v-1.2c0-1.061.84-2.066 2.248-2.691a13.183 13.183 0 0 1 3.1-.906zm9.266 2.666a2.673 2.673 0 0 1-2.674-2.666V11.18a15.241 15.241 0 0 0 3.85-1.088 7 7 0 0 0 1.493-.891v7.282a2.673 2.673 0 0 1-2.67 2.666zm.426-10.75c-.993.428-2.034.733-3.1.907v-4.79a2.674 2.674 0 0 1 5.348 0v1.2c0 1.056-.84 2.06-2.248 2.683z" fill="url(#a)" transform="translate(7.5 7.529)"/></g></svg>