<svg width="36" height="36" fill="none" xmlns="http://www.w3.org/2000/svg"><circle cx="18" cy="18" r="18" fill="#fff"/><path d="M10.774 22.618a.384.384 0 0 1-.69.2l-5.512-5.135a.414.414 0 0 1 .137-.751l7.719-3.078c.358-.143.574.045.478.421l-2.132 8.343z" fill="#404A72"/><path d="M6.213 27.497c-.293.25-.589.148-.657-.233l-1.503-8.345c-.07-.381.105-.476.388-.213l5.238 4.886a.618.618 0 0 1-.018.94l-3.448 2.965zm6.315-15.304a.471.471 0 0 1-.196.794l-7.67 3.07c-.361.143-.544-.035-.409-.398l3.153-8.473a.38.38 0 0 1 .704-.128l4.418 5.135zM4.489 26.078c.07.381-.048.426-.25.103L1.25 21.583a1.088 1.088 0 0 1 .04-1.156l1.328-1.781c.233-.311.479-.251.547.127l1.323 7.305zm-.937-10.941c-.136.364-.346.361-.469 0l-1.015-3.06a1.178 1.178 0 0 1 .298-1.14l3.626-3.285c.286-.25.411-.175.276.188l-2.716 7.297zm-.958 1.178a1.504 1.504 0 0 1-.198 1.225l-1.04 1.401c-.233.311-.388.25-.35-.135l.496-4.844c.037-.386.173-.401.293-.033l.8 2.386zM6.687 5.407c.13.148 0 .483-.289.752L4.76 7.629c-.289.251-.334.219-.103-.092L6.012 5.7c.251-.31.547-.439.675-.293zm10.292 25.781a.413.413 0 0 1-.752.028l-4.26-6.205a.383.383 0 0 1 .3-.652l8.568-.884c.384-.04.539.2.343.536l-4.2 7.177zm-1.787.005c.22.32.1.479-.268.356l-8.02-2.732c-.365-.125-.425-.433-.132-.686l3.43-2.962a.619.619 0 0 1 .933.12l4.057 5.904z" fill="#556195"/><path d="M21.008 22.034c.25.293.143.564-.25.604l-8.696.897a.458.458 0 0 1-.524-.61l2.175-8.464c.098-.374.384-.441.634-.148l6.661 7.72z" fill="#6ECCE0"/><path d="M27.255 29.286a.38.38 0 0 1-.23.68l-8.846 1.858c-.378.08-.529-.127-.333-.463l4.172-7.135a.474.474 0 0 1 .814-.075l4.423 5.135zM13.03 34.047a1.09 1.09 0 0 1-1.149-.133l-4.114-3.626c-.289-.25-.226-.363.14-.25l7.017 2.388c.368.125.388.378.047.561l-1.942 1.06zm9.537.346a1.176 1.176 0 0 1-1.17.125l-2.855-1.456c-.346-.178-.318-.386.06-.466l7.621-1.604c.378-.08.444.056.145.301l-3.801 3.1zm-7.982.187c-.388-.017-.423-.182-.082-.365l1.533-.832a1.503 1.503 0 0 1 1.253-.015l2.24 1.14c.346.176.311.303-.075.286l-4.869-.213zm14.094-3.64c.128.148-.045.42-.386.604l-2.02 1.077c-.343.183-.378.13-.078-.115l1.704-1.393c.301-.246.652-.324.78-.173z" fill="#556195"/><path d="M23.574 21.943c-.36.143-.576-.045-.478-.42l2.142-8.34a.386.386 0 0 1 .692-.203l5.513 5.137a.411.411 0 0 1-.138.752l-7.73 3.074z" fill="#404A72"/><path d="M31.954 16.879c.068.38-.105.479-.388.213l-5.24-4.887a.62.62 0 0 1 .02-.94l3.44-2.964c.294-.25.592-.148.66.233l1.508 8.345zm-3.358 11.735a.383.383 0 0 1-.707.126l-4.42-5.135a.471.471 0 0 1 .193-.802l7.678-3.07c.358-.143.544.035.409.399l-3.153 8.482zm6.15-14.399a1.093 1.093 0 0 1-.038 1.155l-1.33 1.782c-.231.31-.477.25-.547-.128l-1.32-7.304c-.068-.381.047-.426.25-.103l2.985 4.598zm-.812 9.505a1.178 1.178 0 0 1-.298 1.14l-3.627 3.286c-.288.25-.41.175-.275-.186l2.716-7.3c.133-.363.344-.36.466 0l1.018 3.06zm.561-1.884c-.04.386-.173.398-.296.032l-.794-2.385a1.504 1.504 0 0 1 .198-1.23l1.042-1.397c.231-.31.389-.25.349.136l-.499 4.844zm-4.525 8.262c-.234.313-.527.443-.657.293-.13-.15 0-.484.288-.752l1.631-1.478c.286-.25.334-.218.103.092l-1.366 1.845z" fill="#556195"/><path d="M24.04 10.787a.384.384 0 0 1-.3.651l-8.568.885c-.386.04-.542-.2-.346-.534l4.197-7.18a.413.413 0 0 1 .752-.027l4.265 6.205z" fill="#404A72"/><path d="M25.81 10.629a.618.618 0 0 1-.933-.12l-4.08-5.904c-.217-.321-.097-.479.269-.354l8.019 2.727c.366.125.426.433.133.687l-3.409 2.964zm-3.534 10.708c-.095.376-.38.441-.634.148l-6.648-7.718c-.25-.294-.146-.567.25-.607l8.694-.897a.46.46 0 0 1 .526.609l-2.188 8.465zm-8.295-9.766a.471.471 0 0 1-.814.075l-4.42-5.132a.38.38 0 0 1 .228-.679l8.845-1.862c.381-.08.532.128.336.464l-4.175 7.134zm7.082-8.209c-.366-.126-.386-.376-.045-.562l1.96-1.047a1.09 1.09 0 0 1 1.147.133l4.105 3.626c.29.25.228.363-.138.25l-7.029-2.4zM9.789 4.805c-.378.08-.444-.045-.143-.296l3.787-3.104a1.18 1.18 0 0 1 1.172-.126l2.867 1.459c.346.175.318.383-.06.463L9.789 4.805zm10.177-2.39a1.503 1.503 0 0 1-1.253.015l-2.256-1.14c-.326-.176-.293-.304.095-.289l4.864.226c.384.025.424.183.083.366l-1.533.822zM8.102 4.685c-.3.25-.651.323-.779.175-.128-.147.045-.423.386-.604l2.02-1.08c.34-.183.376-.13.077.116L8.102 4.685zM5.511 29.213c.148-.13.484 0 .752.286l1.479 1.631c.25.288.218.334-.093.103l-1.84-1.366c-.32-.23-.45-.526-.298-.654zM31.04 7.221c.15-.13.423.045.603.386l1.08 2.02c.18.343.13.376-.115.077L31.215 8c-.246-.3-.323-.651-.176-.779zM30.2 5.93c.31.231.444.527.293.655-.15.127-.483 0-.752-.286l-1.478-1.631c-.25-.289-.218-.334.092-.103L30.2 5.93zM4.787 27.797c.25.301.323.652.173.78-.15.128-.421-.045-.604-.386L3.28 26.17c-.183-.343-.13-.376.115-.078l1.393 1.704z" fill="#556195"/></svg>