<svg width="36" height="36" xmlns="http://www.w3.org/2000/svg"><g fill="none"><circle fill="#5F45BA" cx="18" cy="18" r="18"/><path d="M12.88 9.88a1.24 1.24 0 1 1-2.14-1.27 1.24 1.24 0 1 1 2.14 1.27zm-4.25-.55a.88.88 0 1 1-1.54-.84.88.88 0 0 1 1.54.84zm11.83 18a9.68 9.68 0 1 0-2.41-19.2c-.81.07-1.61.27-2.37.58-.87.43-1.44 1.15-1.44 2.11a2.26 2.26 0 0 0 2.26 2.26c.2 0 .93-.23 1.1-.29a5.22 5.22 0 1 1-2.64 7.8c-1.05-1.36-.8-3.54-.8-3.57a2.26 2.26 0 0 0-4.45-.5 9.68 9.68 0 0 0 10.74 10.82zm-8.87-14a1.61 1.61 0 1 1-2.8-1.6 1.61 1.61 0 0 1 2.8 1.6" fill="#FFF"/></g></svg>