<svg xmlns="http://www.w3.org/2000/svg" width="36" height="36" viewBox="0 0 36 36"><g fill="none" fill-rule="evenodd"><circle cx="18" cy="18" r="17" fill="#FFF"/><path fill="#262553" fill-rule="nonzero" d="M18 0c9.941 0 18 8.059 18 18s-8.059 18-18 18S0 27.941 0 18 8.059 0 18 0zm-4.903 21.585-.019 5.945h2.908v-5.88h3.516c1.183 0 2.27-.16 3.26-.512.991-.352 1.822-.799 2.493-1.406a6.401 6.401 0 0 0 1.598-2.174c.384-.863.576-1.821.576-2.876a7.727 7.727 0 0 0-.544-2.909c-.383-.895-.927-1.598-1.598-2.205s-1.502-1.055-2.46-1.374c-.992-.32-2.078-.48-3.26-.48h-6.425l-.036 11.187H9.85l-1.28 2.684h4.526zm6.405-2.684H16.05v-8.502h3.42c1.63 0 2.877.384 3.74 1.119.863.735 1.278 1.79 1.278 3.132s-.415 2.397-1.246 3.132c-.863.735-2.11 1.119-3.74 1.119z"/></g></svg>