<svg xmlns="http://www.w3.org/2000/svg" width="36" height="36" fill="none"><circle cx="18" cy="18" r="18" fill="#3CEAAA"/><path fill="#000" fill-opacity=".6" fill-rule="evenodd" d="M13.58 9.54a2.8 2.8 0 0 1 3.93 0l2.94 2.9.5-.49a2.8 2.8 0 0 1 3.92 0l2.9 2.85a2.8 2.8 0 0 1 0 4l-7.8 7.65a2.8 2.8 0 0 1-3.93 0L8.22 18.8a2.8 2.8 0 0 1 0-4l5.36-5.25v-.01zm4.87 4.86-2.9-2.84-5.36 5.24 2.9 2.84 5.36-5.25v.01zm-3.36 7.2L18 24.45l2.9-2.84-2.9-2.85-2.9 2.84h-.01zm4.92-4.8 2.9 2.84 2.9-2.84-2.9-2.85L20 16.8z" clip-rule="evenodd"/></svg>