<svg width="36" height="36" fill="none" xmlns="http://www.w3.org/2000/svg"><circle cx="18" cy="18" r="18" fill="#37DAB2"/><path d="M9.35 10.961h.172l.198.198c.301.301.654.499 1.015.714l1.11.688c.747.481 3.241 2.003 3.353 2.098.069.456.086.843.086 1.307v.404c.007.748.007 1.497 0 2.245.002 1.473-.007 2.946-.026 4.42.004 1.49 0 2.98-.009 4.471 0 .56-.051.998-.206 1.53-.19.414-.19.414-.55.878-.413.396-.413.396-.809.653a4.247 4.247 0 0 1-1.066.345c-.413.034-.714 0-1.118-.104a4.202 4.202 0 0 1-1.118-.584 3.613 3.613 0 0 1-.834-.99 3.835 3.835 0 0 1-.258-1.34l.009-.947v-.533c-.005-.963-.005-1.926 0-2.89 0-1.788.005-3.576.017-5.365-.003-1.863-.003-3.726 0-5.59l.009-.49v-.842l.025-.276zm4.3-5.417a38.71 38.71 0 0 1 2.244 1.376 4124.61 4124.61 0 0 1 5.022 3.147l2.27 1.41c1.04.649 2.081 1.297 3.122 1.944l.318.189c.242.161.475.336.697.524-.258.12-.258.12-.688.258-.731.344-1.393.74-2.064 1.187l-1.54.972-.257.172-1.135.688c-.43-.086-.43-.086-.809-.301l-.447-.284-1.797-1.135-.404-.258-1.746-1.083c-1.377-.85-2.75-1.708-4.119-2.572l-.903-.559c-.524-.326-.989-.645-1.444-1.074-.972-.723-1.35-2.795-.49-4.016 1.625-1.978 3.688-.8 4.17-.585zm16.94 10.92a3.19 3.19 0 0 1-.163 3.389c-.516.602-1.152.98-1.832 1.393l-.602.361-.3.19c-.525.317-1.05.653-1.566.98l-.894.559c-.502.31-1 .625-1.496.946l-2.159 1.332c-.747.454-1.49.916-2.227 1.385l-.258.172c-.601.38-1.203.758-1.806 1.135l-.447.292-.404.258-.292.164-.086-.172c.043-.172.086-.766.086-.972a135.185 135.185 0 0 1-.06-3.113c-.06-2.08-.06-1.909.146-2.709.103-.129 2.08-1.453 2.347-1.625l2.167-1.35 2.27-1.419.809-.499.266-.172 1.66-1.049a8.176 8.176 0 0 1 1.428-.774c.464-.086 2.433-.378 3.413 1.299z" fill="#fff"/></svg>