<svg width="36" height="36" fill="none" xmlns="http://www.w3.org/2000/svg"><circle cx="18" cy="18" r="18" fill="#fff"/><path d="m6.08 19.778 1.213.202.073-.57-1.285.368z" fill="#0000AB"/><path d="m7.366 19.41 1.047-.936-1.12 1.506.073-.57z" fill="#0000E3"/><path d="m8.413 18.474-1.047.937.9-1.69.147.753z" fill="#0000CF"/><path d="m8.413 18.474-.147-.753 1.873 1.102-1.726-.349z" fill="#0000E3"/><path d="m8.266 17.721 1.854-.037.019 1.139-1.873-1.102z" fill="#0000AB"/><path d="m18.77 21.798.348-1.708 1.322-.073-1.67 1.78z" fill="#0000CF"/><path d="m18.77 21.798 1.67-1.781-.569 1.028-1.102.753z" fill="#0000AB"/><path d="m19.871 21.045.57-1.028 1.266.238-1.836.79z" fill="#0000CF"/><path d="m20.44 20.017.441-1.984.826 2.222-1.267-.238z" fill="#0014BF"/><path d="m20.881 18.033 2.295-.018-1.469 2.24-.826-2.222z" fill="#0000CF"/><path d="m20.881 18.033 2.35-1.102-.055 1.084-2.295.018z" fill="#0000E3"/><path d="m8.229 25.801 1.377-.275-.183-.9L8.229 25.8z" fill="#0000CF"/><path d="m8.762 24.938-.533.863 1.194-1.175-.661.312z" fill="#0000E3"/><path d="m9.257 22.771.166 1.855-.661.312.495-2.167z" fill="#0000AB"/><path d="m10.598 22.22-1.175 2.406-.166-1.855 1.34-.55z" fill="#0000CF"/><path d="m11.718 20.108 1.102 1.23-3.563 1.433 2.461-2.663z" fill="#0000E3"/><path d="m10.139 20.42 1.579-.312-2.46 2.663.88-2.35z" fill="#0000AB"/><path d="m10.12 17.684 1.598 2.424-1.58.313-.018-2.737z" fill="#0014BF"/><path d="m11.149 16.601.569 3.507-1.598-2.424 1.029-1.083z" fill="#001CD1"/><path d="m12.82 21.339-1.102-1.23 1.965-.203-.863 1.433z" fill="#0000AB"/><path d="m11.149 16.601 2.479-.826-1.91 4.333-.57-3.507z" fill="#0000CF"/><path d="m11.718 20.108 1.91-4.333.055 4.131-1.965.202z" fill="#0000E3"/><path d="m13.628 15.775 1.505 3.066-1.45 1.065-.055-4.131z" fill="#0000AB"/><path d="m15.133 18.841 2.883-.495.056.991-2.939-.496z" fill="#001CD1"/><path d="m13.628 15.775 4.388 2.57-2.883.496-1.505-3.066z" fill="#0000CF"/><path d="m13.628 15.775 4.866-.698-.478 3.269-4.388-2.571zm4.444 3.562-.056-.991 2.865-.313-2.81 1.304z" fill="#0000AB"/><path d="m18.016 18.346 5.215-1.415-2.35 1.102-2.865.313z" fill="#0014BF"/><path d="m23.231 16.931-5.215 1.415.478-3.27 4.737 1.855zm-4.37-5.509-.367 3.655-4.866.698 5.233-4.353z" fill="#0000CF"/><path d="m23.231 16.931-4.737-1.854.367-3.655 4.37 5.51z" fill="#0000E3"/><path d="m18.861 11.422 4.37 5.51-2.717-5.84-1.653.33z" fill="#0000CF"/><path d="m20.495 11.092 2.736 5.84.46-2.002-3.196-3.838z" fill="#0014BF"/><path d="m20.495 11.092 3.195 3.838-.348-2.369-2.847-1.47z" fill="#0000AB"/><path d="m26.371 14.691-2.68.239-.35-2.369 3.03 2.13z" fill="#0000E3"/><path d="m23.69 14.93.331 2.81-.79-.808.46-2.002z" fill="#0000AB"/><path d="m24.021 17.74-.33-2.81 2.68-.239-2.35 3.048z" fill="#0000CF"/><path d="m26.243 19.135.128-4.444-2.35 3.048 2.222 1.396z" fill="#0000E3"/><path d="m27.455 15.554-.35-1.083-.734.22 1.084.863z" fill="#0000AB"/><path d="m26.243 19.135.128-4.444 1.084.863-1.212 3.581z" fill="#0014BF"/><path d="m27.583 18.53-1.34.605 1.212-3.58.128 2.974z" fill="#0000AB"/><path d="m26.371 14.691-.991-.698h3.36l-2.369.698z" fill="#0000BF"/><path d="m25.38 13.993 2.901-.385.46.385H25.38z" fill="#00009E"/><path d="m28.281 13.608 1.322-1.157-.863 1.542-.459-.385z" fill="#0014BF"/><path d="m28.74 13.993 1.139-1.414-.276-.128-.863 1.542z" fill="#0000E3"/><path d="m29.603 12.45.276.13-.037-.79-.239.66z" fill="#000F91"/><path d="m23.342 12.561 2.001.165.973.716-2.974-.881z" fill="#0000AB"/><path d="m23.342 12.561 2.974.881-.936.551-2.038-1.432z" fill="#0000CF"/><path d="m26.316 13.442.423.368-1.36.183.937-.55z" fill="#0000AB"/><path d="m26.316 13.442-.973-.716 2.295-1.157-1.322 1.873z" fill="#0000CF"/><path d="m25.343 12.726 2.185-1.524.11.367-2.295 1.157z" fill="#0014BF"/><path d="m27.528 11.202.11.367 1.671-.459-1.78.092z" fill="#0000BF"/></svg>