<svg width="36" height="36" fill="none" xmlns="http://www.w3.org/2000/svg"><circle cx="18" cy="18" r="18" fill="#1B2632"/><path d="M14.66 5.7c.1.33-.12.47-.45.39a.21.21 0 0 0-.02 0 .87.87 0 0 0 .11.14c.43.53-.05 1.05-.34 1.48-.21.29-.4.34-.66.16a.72.72 0 0 0-.05-.03c-.17.08-.27.08-.35-.1l-.03-.04c-.03.02-.09.05-.11.08a.17.17 0 0 1-.17.24c-.2-.06-.15-.24-.08-.29a2 2 0 0 0 .1-.08v-.03l-.01-.06c0-.16.1-.25.26-.27-.1-.09-.09-.2-.1-.22-.1-.02-.14-.09-.19-.16-.2 0-.22-.21-.13-.3.1-.1.29-.03.27.14.04.02.1.04.24-.02h.02c.32-.04.2.52.62.22.09-.07.8-.36.27-.63a1.48 1.48 0 0 1-.44-.33c-.34-.27-.65-1.05.05-.92-.16-.28-.19-.52.18-.53l.23.02c.16.02.29.05.44.1.16.06.42.13 1.07.25.34.03.44-.07.73-.13a1.62 1.62 0 0 1 .34-.03c.2 0 .37.02.56.07.12.04.24.07.55.07.12 0 .27-.16.4-.07.22.16.97.04 1.4-.18V4.6c-.02-.08.11-.15.16-.03.02.04.06.2.1.21h.01c.03-.07-.15-.27-.04-.4.14-.18.24.06.48-.04.35-.12.47.17.73.3.16.08.25 0 .47.2a.89.89 0 0 1 .24.22l.06.03c.15.07 0 .32-.04.4a1.67 1.67 0 0 1-.33.4l-.02.01c-.23.11-.01.32.1.43l.14.15c.3.25.63.06 1 .47.17.26.09.6.05.87a.79.79 0 0 0-.01.2c.01.08.1 0 .12-.03a.77.77 0 0 0-.04-.44c-.09-.23-.06-.35.14-.45.04-.02.09-.03.09-.09 0-.31.16-.28.24-.39a.17.17 0 0 1-.03-.12c.05-.2.3-.16.33 0a.18.18 0 0 1-.1.18v.01c-.03.05-.04.08-.03.14v.01c0 .14.08.26 0 .4a.16.16 0 0 0-.01.03l.06.02c.14.03.2.12.3.2l.1.02c.04-.13.24-.14.3 0 .06.12-.1.32-.25.2-.12.02-.23.08-.36.1-.11.04-.15.15-.15.26.08.95-1.5.97-1.43-.01l.01-.25c0-.05-.02-.1-.13-.14l-.41-.17c-.33-.14-.7-.37-.83-.96-.1-.43-.01-.66.1-.81.01-.03.15-.17.14-.21-.16-.13-.21.05-.48-.36v-.02h.02a.04.04 0 0 1 0-.02c.14.21.06.63-.34.47-.04-.01-.12-.06-.17-.06-.05 0-.65.2-.79.04l-.02-.04a.07.07 0 0 0-.03 0c-.06 0-.09.03-.12.08l-.02.02c-.14.15-.32.12-.5.06a.86.86 0 0 0-.23.02 1.7 1.7 0 0 1-.54.04l-.95-.06c-.24-.01-.45.06-.68.11-.23.05-.52.08-.98-.05a.75.75 0 0 1-.14-.05z" fill="#D60019"/><path fill-rule="evenodd" clip-rule="evenodd" d="M17.18 3.89c-1.99.4-1.7-.97-2.62-.96.5.36.26.58.59.85-.63-.05-.64-1-2.01-.7 1 .03.87.5 1.31.75-.8-.17-.92-.86-1.95-.4 1.02-.16.86.54 1.9.67-.4.12-.54 0-.97-.1.64.5 1.34.25 1.56.32.1.03.1.22-.37.2.65.41.9-.36 2.61-.46.17-.01-.19.32.06.13.2-.15.55-.28.55-.28l-.66-.18v.16z" fill="#B57017"/><path d="M19.88 5.84a5.25 5.25 0 0 1 1.44-.5c.14-.02.18.02.22.23.04.2.06 1.43-.02 2.13a4.7 4.7 0 0 1-.53 1.84c.2-.53-.19-1-.6-1.19.15-.41-.1-.73-.22-.78 0-.11-.04-.17-.1-.2v.2c.11.2.16.42.15.65.08.12.08.15.11.33.14.24.17.44.2.72.08.2.07.44.07.44h-4.08l-.08.09-1.46-.12-.05-.1h-.04c-1.14-2.03-.65-2.53-.4-2.61a.65.65 0 0 1 .41 0c.12-.47.35-.9.71-1.33.16-.19.78-.04 1.77.43a2.49 2.49 0 0 1 .66-.3l.12-.11c.01-.02.4-.71.4-1 0-.3-.35-.67-.35-.67l-.1.1c-.11.15-.25.17-.43.17-.19 0-.26-.01-.43.07-.14.07-.15.1-.3.12.03.02.05.05.08.1-.12-.02-.22-.03-.28-.12-.1-.02-.12-.05-.18-.12a.58.58 0 0 0 .26-.12l.19-.16a.42.42 0 0 1 .3-.12l-.46-.06c-.08.02-.23.02-.23.02l-.02.06s-.08.01-.12-.06a1.07 1.07 0 0 1-.16-.03c.04-.24.24-.4.36-.4.07-.05.23-.16.34-.2.11-.17.12-.2.4-.36.1-.23.35-.5.65-.67.06.1.02.25-.05.38.52-.23.74-.28 1.25-.3-.08.16-.32.4-.51.54.32.03.62.25.7.36.08.1.03.08-.22.1.4.23.6.55.72.87.04.09 0 .11-.24.04.3.4.35.78.34 1.04 0 .18-.05.13-.2 0 .03.14.04.38 0 .6z" fill="#00290C"/><path d="M19.88 5.84a5.25 5.25 0 0 1 1.44-.5c.14-.02.18.02.22.23.04.2.06 1.43-.02 2.13a4.7 4.7 0 0 1-.53 1.84c.2-.53-.19-1-.6-1.19.15-.41-.1-.73-.22-.78 0-.11-.04-.17-.1-.2v.2c.11.2.16.42.15.65.08.12.08.15.11.33.14.24.17.44.2.72.08.2.07.44.07.44h-4.08l-.08.09-1.46-.12-.05-.1h-.04c-1.14-2.03-.65-2.53-.4-2.61a.65.65 0 0 1 .41 0c.12-.47.35-.9.71-1.33.16-.19.78-.04 1.77.43a2.49 2.49 0 0 1 .66-.3l.12-.11c.01-.02.4-.71.4-1 0-.3-.35-.67-.35-.67l-.1.1c-.11.15-.25.17-.43.17-.19 0-.26-.01-.43.07-.14.07-.15.1-.3.12.03.02.05.05.08.1-.12-.02-.22-.03-.28-.12-.1-.02-.12-.05-.18-.12a.58.58 0 0 0 .26-.12l.19-.16a.42.42 0 0 1 .3-.12l-.46-.06c-.08.02-.23.02-.23.02l-.02.06s-.08.01-.12-.06a1.07 1.07 0 0 1-.16-.03c.04-.24.24-.4.36-.4.07-.05.23-.16.34-.2.11-.17.12-.2.4-.36.1-.23.35-.5.65-.67.06.1.02.25-.05.38.52-.23.74-.28 1.25-.3-.08.16-.32.4-.51.54.32.03.62.25.7.36.08.1.03.08-.22.1.4.23.6.55.72.87.04.09 0 .11-.24.04.3.4.35.78.34 1.04 0 .18-.05.13-.2 0 .03.14.04.38 0 .6z" fill="#00290C"/><path d="M17.87 10.53c-6.4 0-11.61 5.22-11.61 11.62 0 6.4 5.22 11.62 11.61 11.62 6.4 0 11.62-5.22 11.62-11.62 0-6.4-5.22-11.62-11.62-11.62z" fill="url(#a)"/><path d="M18.83 32.42c0-.17-.38-.38-.97-.38-.58 0-.96.2-.96.38 0 .17.38.37.96.37s.97-.2.97-.37zm4.33.13c-1.64.35-2.7.69-4.37.14-.2.13-.52.22-.87.22v.85h-.12v-.85c-.34 0-.67-.09-.86-.22-1.7.57-2.7.21-4.36-.14l-.29-.18c1.62.34 2.9.75 4.55.22a.28.28 0 0 1-.06-.2c-7.76-.98-9.16-8.02-9.15-11.93a10.92 10.92 0 0 1 2.88-7.4l.12.05a10.91 10.91 0 0 0-2.88 7.35c0 3.9 1.39 10.86 9.08 11.8a.51.51 0 0 1 .16-.14c-1.87-1-3.44-4.36-3.43-10.41 0-5.77 2-11.24 4.3-11.24 2.4 0 4.3 5.46 4.3 11.24 0 5.98-1.5 9.38-3.44 10.4a.53.53 0 0 1 .19.16c7.67-.97 9.07-7.88 9.07-11.8v-.2l-.55-.36c-.02 0-.04.02-.07.01a.13.13 0 0 1-.1-.03.13.13 0 0 1-.04-.1c0-.05.05-.11.13-.12.08 0 .13.06.14.13l.48.33a12.43 12.43 0 0 0-.04-.72l-.58-.39-.07.02a.13.13 0 0 1-.13-.13c0-.06.05-.12.13-.12s.13.06.14.13l.5.34-.1-.77-.62-.42-.07.02a.13.13 0 0 1-.14-.13c0-.06.05-.12.14-.12.07 0 .13.05.13.12l.53.36c-.04-.25-.1-.5-.16-.74l-.66-.45-.07.02a.13.13 0 0 1-.12-.08.13.13 0 0 1-.01-.05c0-.05.05-.12.13-.12.07 0 .13.06.13.13l.56.37a9.94 9.94 0 0 0-2.48-4.3l.08-.11a10.17 10.17 0 0 1 2.55 4.51l.47.31.07-.01c.07 0 .13.06.13.12 0 .09-.07.13-.14.13a.13.13 0 0 1-.13-.13l-.36-.24c.06.24.11.48.15.73l.5.34c.01-.02.04-.02.07-.02.08 0 .14.06.13.12 0 .09-.06.13-.13.13a.13.13 0 0 1-.13-.13l-.41-.27c.04.25.07.5.09.76l.54.36.07-.01c.07 0 .13.06.13.12 0 .09-.07.13-.14.13a.13.13 0 0 1-.13-.13l-.46-.3.04.7.56.38c0-.02.04-.02.07-.02.07 0 .13.06.13.13 0 .08-.07.12-.14.12a.13.13 0 0 1-.13-.12l-.5-.34v.1c0 3.93-1.4 10.93-9.14 11.92a.28.28 0 0 1-.06.21c1.61.52 2.9.13 4.48-.21l-.21.17zm-5.3-21.96c-2.16 0-4.18 5.3-4.18 11.12 0 6.13 1.6 9.43 3.45 10.34a2 2 0 0 1 .73-.13c.26 0 .52.04.72.12 1.9-.92 3.47-4.26 3.47-10.33 0-5.82-1.94-11.12-4.19-11.12z" fill="#fff"/><path d="M18.08 24.7v.16l.12-.1a1.42 1.42 0 0 0-.12-.07zm.4.25-.16.37c.13.17.2.38.2.6v.04l.34.2a1.32 1.32 0 0 0-.38-1.2zm.27 1.55-.4-.04a.98.98 0 0 1-.53.4l-.08.36a1.32 1.32 0 0 0 1-.72zm-1.36.72-.08-.36a.97.97 0 0 1-.57-.4l-.36.03a1.32 1.32 0 0 0 1.01.73zm-1.12-1.05.3-.19v-.06a1 1 0 0 1 .23-.63l-.15-.34a1.32 1.32 0 0 0-.38 1.21zm.65-1.42.12.11v-.17a1.29 1.29 0 0 0-.12.06zm5.25-2.07c.04-.01.24-.08.37-.01 0 0-.15-.15 0-.36l.2-.27c0-.01 0 .03.02.05 0 0 0-.17.1-.32a.57.57 0 0 1 .12.17s0-.29.1-.43c0-.01-.04-.06-.04-.24l-.02-.2c0-.02.07 0 .1.04.01 0-.08-.21-.05-.33.01-.01-.03.06-.13.08 0 0 .08.02.1.06 0 0-.05 0-.16.14a.18.18 0 0 0 .08-.01s-.26.25-.37.25l.17.03s-.03 0-.15.16c0 0-.1.27-.5.24a1.73 1.73 0 0 0-.02.12.93.93 0 0 1 .4-.08s-.08.05-.14.18c0 0-.1.15-.2.15 0 0 .2 0 .3-.1.01-.01.04.53-.35.63a.7.7 0 0 0 .07.05zm-9.22 0a.66.66 0 0 0 .07-.05c-.38-.1-.35-.64-.35-.64.11.11.31.11.31.11-.1 0-.2-.15-.2-.15-.06-.13-.15-.18-.15-.18a.93.93 0 0 1 .4.08 1.75 1.75 0 0 0-.02-.12c-.4.03-.5-.24-.5-.24-.11-.15-.14-.16-.14-.16l.17-.03c-.12 0-.38-.25-.37-.25.03.01.08 0 .07 0-.1-.13-.16-.12-.16-.13.02-.04.11-.06.1-.06-.09-.02-.13-.09-.13-.08.04.11-.06.34-.05.33.04-.04.1-.06.1-.04l-.01.2c0 .19-.05.23-.04.24.09.14.1.43.1.42a.54.54 0 0 1 .12-.16c.1.15.1.33.1.32l.02-.05c.03.07.18.25.2.27.15.21 0 .36 0 .36.12-.07.33 0 .36.01zm2.03-.38c.14.04.07.44.03.63h.13c.1-.01.16 0 .2.03.07 0 .12-.02.16-.07l-.16-.1c-.12-.08-.21-.07-.2-.07.21-.33.53-.02.58.03l.17-.04a1.12 1.12 0 0 1-.17-.2c.02.03.21 0 .22 0 .26-.06.39.04.39.04l-.03-.07c-.05-.11-.14-.12-.13-.13.2-.1.36-.03.36-.04-.03-.07-.05-.26-.03-.26.2.04.25.13.26.14.1.1.15.48.16.57l.2.05a.47.47 0 0 1 .45-.6c0-.2-.46-.7-1.08-.7h-2.2c-.5 0-1-.5-1-1V11.8h2.96c-1.06-.1-1.77-.28-1.88-.49l-1.38-2.24s.35.34.6.27c.24-.08.28-.26.26-.57-.01-.29.4.45.89.34.44-.1.21-.71.48-.44.26.28.57.23.68.1.1-.13.26-.33.32-.51.06-.2.04-.27.27.05.24.32.52.58.8.32.27-.25.25-.48.35-.25.1.24.37.42.55.32.23-.12.43-.3.57-.52.2-.3.1.21.48.57s.71-.07.77-.12c.07-.06.07-.13.09.06.02.19.14.47.49.43.35-.04.62-.34.68-.41.06-.08.01.24.01.24s-.01.51.45.36l.11-.04a3.21 3.21 0 0 0 .28-.2l-1.38 2.24c-.1.2-.83.4-1.9.49h3v8.72c0 .5-.5 1-1 1h-2.2c-.63 0-1.07.5-1.06.7a.47.47 0 0 1 .44.6l.19-.05c0-.1.05-.47.15-.57.01-.01.07-.1.27-.14.01 0 0 .2-.03.26 0 .01.15-.06.35.04.01 0-.07.02-.12.13l-.03.07s.13-.1.38-.05c.01 0 .2.04.23 0-.02.03-.1.15-.18.2l.17.05c.06-.05.38-.36.6-.03 0 0-.1-.02-.22.08l-.16.09c.04.05.1.07.16.07a.35.35 0 0 1 .2-.03h.12c-.04-.19-.11-.6.03-.63l.6-.15c.05 0 .1.04.15.12l.36-.1.05-.16.33-.08c.12-.03.22.25.25.33l-.19.05.02.05.2-.04.05.2c.02-.01.04-.01.06.01a2.19 2.19 0 0 1-.01-.58c-.05-.02-.19-.06-.25-.23 0 0-.01-.21-.05-.27-.01-.01.23.07.28.18 0 0-.07-.29.14-.54l.1.23c-.02-.05-.05-.16.03-.39a6.52 6.52 0 0 1 .12-.25s0 .08.07.2l.06.16a.41.41 0 0 1 .38-.38s0-.06.06-.14c-.2 0-.5-.05-.5-.17v-.61c0-.06.05-.1.13-.12v-.37l-.14-.1v-.34c0-.13.3-.15.39-.16v.2l.05-.02v-.19h.52v.2h.06v-.2c.08.02.38.04.38.17v.34l-.15.1v.36c.09.03.15.07.15.13v.6c0 .17-.49.19-.65.2 0 .06 0 .14-.05.18 0 .01.02.05.07.08 0 0 .22.1.22.32 0 .02.13-.09.2-.08.01 0-.03.08-.02.2 0 .02.13.34-.33.46-.01 0 0 .17-.06.27.01-.02.15-.27.52-.21.01 0-.04 0-.1.13-.01 0-.1.38-.47.2-.02 0-.08.18-.09.19 0 0 .34-.16.56.07 0 .02-.05-.02-.16.07 0 .01-.14.14-.36.08-.01 0 .18.07.24.11 0 .01-.1 0-.24.11-.01 0-.18.2-.45.04l.1.1a.26.26 0 0 0 .1.06s-.37.16-.63-.12a.65.65 0 0 1-.1-.06l.01.05c.02.05-.06.07-.07.02l-.04-.14a.81.81 0 0 1-.06-.06l.05.2-.19.06v.05l.2-.05c0 .08.05.38-.07.41l-.33.08-.13-.1-.35.09c-.01.08-.04.14-.1.15l-.58.15c-.14.04-.26-.33-.32-.52a.34.34 0 0 1-.13.05c-.01 0-.08.05-.1.18 0 .01-.03.17-.17.22-.02 0 .18.08.26.15 0 .01-.2.03-.36.12-.02 0-.24.02-.35-.09a.33.33 0 0 0 .17.17s-.4.17-.67-.16h-.1c.04.05.14.24.15.27 0 0-.58-.01-.58-.34a.24.24 0 0 0-.03-.05l-.06-.04a.59.59 0 0 1 .03.17c0 .01.02.17.05.2 0 0-.51-.24-.29-.57a.95.95 0 0 1-.14-.28c-.01-.05.06-.07.07-.02l.06.13.03.05a.45.45 0 0 1 .58.02s-.05-.01-.23.1c-.02 0-.13.07-.24.03l.14.12.12-.06s.11-.22.52-.22c0 0-.07.1-.08.15 0 0-.03.1-.08.13l.07.06c0 .02 0-.3.47-.4.01 0-.03.01-.06.18 0 0 .07-.17.3-.17.01 0 .11-.04.12-.07a1.22 1.22 0 0 1-.04.15s.2-.14.33-.14c.02 0-.13-.04-.17-.08 0 0-.43.17-.57-.31h-.04c-.03 0-.07.02-.1 0-.01 0 .09.09.14.2a.83.83 0 0 0 .13.18s-.31-.03-.42-.14l.03.13s-.17-.12-.3-.13c-.02 0-.24 0-.32-.2-.16.03-.26.07-.27.07a.7.7 0 0 1-.32.23.15.15 0 0 1-.04.05l.14.82v-.14c.06 0 .28.03.28.12v.25l-.1.07c.16.06.33.14.48.23l.23-.2a.14.14 0 0 1 .03-.21.14.14 0 0 1 .08-.03c.07 0 .14.07.14.15a.15.15 0 0 1-.14.14.13.13 0 0 1-.06-.01l-.12.28a1.65 1.65 0 0 1 .54 1.7l.29.16a.14.14 0 0 1 .12-.06c.07 0 .14.06.14.14a.15.15 0 0 1-.14.14.14.14 0 0 1-.15-.14l-.33-.04a1.65 1.65 0 0 1-1.42 1.02l-.08.34c.07.01.12.07.12.14a.15.15 0 0 1-.14.14.15.15 0 0 1-.15-.14c0-.07.05-.13.11-.14l-.07-.34a1.65 1.65 0 0 1-1.43-1.03l-.33.03c0 .1-.06.16-.14.16a.15.15 0 0 1-.14-.14.14.14 0 0 1 .26-.08l.29-.16a1.66 1.66 0 0 1 .54-1.7l-.14-.32a.14.14 0 0 1-.07.02.15.15 0 0 1-.15-.14.14.14 0 1 1 .29 0 .14.14 0 0 1-.03.1l.26.22a1.66 1.66 0 0 1 .47-.2l-.1-.1v-.25c0-.1.23-.11.29-.12V24l.15-.83c-.17-.08-.28-.17-.33-.29a.04.04 0 0 1-.05.02s-.1-.04-.26-.07c-.08.2-.3.2-.32.2-.14 0-.3.14-.3.13 0-.07.04-.14.03-.13-.11.11-.43.14-.42.14a.9.9 0 0 0 .13-.17c.05-.12.15-.2.14-.2-.03 0-.07 0-.1-.02h-.05c-.13.5-.56.31-.57.32-.04.04-.18.08-.16.08.12 0 .33.14.33.14a1.3 1.3 0 0 1-.05-.15c.02.03.12.07.13.07.23 0 .3.18.3.17-.03-.17-.08-.18-.06-.18.46.1.47.42.47.4 0-.01.07-.06.06-.07-.05-.02-.08-.11-.08-.12 0-.05-.08-.15-.07-.15.4 0 .51.21.52.22l.12.06a.83.83 0 0 0 .14-.12c-.11.04-.23-.03-.24-.04-.19-.1-.24-.08-.23-.09a.45.45 0 0 1 .58-.02l.03-.05a.78.78 0 0 0 .05-.13c.02-.05.1-.03.08.02a.93.93 0 0 1-.15.28c.23.33-.28.58-.28.57.03-.03.05-.19.05-.2a.63.63 0 0 1 .03-.17l-.06.04a.23.23 0 0 0-.04.05c0 .33-.57.34-.57.34.04-.1.09-.18.14-.27h-.1c-.26.33-.66.16-.66.16a.33.33 0 0 0 .16-.17c-.1.11-.33.1-.34.09-.16-.09-.36-.1-.36-.12.08-.07.28-.15.26-.15-.14-.05-.17-.21-.17-.22-.03-.13-.09-.18-.1-.18a.35.35 0 0 1-.15-.06c-.05.19-.18.57-.32.53l-.6-.15c-.04-.01-.07-.07-.08-.15l-.35-.09-.13.1-.33-.08c-.12-.03-.08-.33-.07-.4l.19.04v-.05l-.18-.05.04-.18-.07.17c-.02.05-.1.03-.07-.02v-.04a.72.72 0 0 1-.1.05c-.26.28-.63.12-.63.12a.26.26 0 0 0 .11-.05c.04-.06.1-.12.1-.11-.27.17-.44-.03-.45-.04-.14-.11-.25-.1-.24-.1.06-.05.25-.12.24-.12a.4.4 0 0 1-.37-.08c-.1-.09-.16-.05-.15-.07.21-.23.55-.08.55-.08l-.08-.18c-.38.18-.46-.2-.47-.2-.07-.12-.12-.13-.1-.13.36-.06.5.19.51.2-.05-.1-.04-.26-.05-.27-.47-.1-.33-.43-.33-.45 0-.12-.04-.2-.03-.2.08 0 .2.1.2.08 0-.23.22-.32.23-.32.05-.03.07-.07.07-.08-.05-.04-.06-.12-.05-.19-.15 0-.66-.02-.66-.18v-.61c0-.06.05-.1.13-.12v-.37l-.14-.1v-.34c0-.12.3-.15.38-.16v.2l.06-.02v-.19h.52v.2h.06v-.2c.08.02.38.05.38.17v.34l-.15.1v.36c.09.03.15.07.15.13v.6c0 .13-.29.17-.5.18.06.08.06.14.07.14a.41.41 0 0 1 .37.38 2.46 2.46 0 0 1 .07-.16c.06-.12.06-.2.06-.2l.12.25c.09.23.06.34.03.39l.1-.22c.22.24.15.53.15.53.04-.1.29-.2.28-.18-.04.06-.05.26-.06.27-.06.17-.2.21-.24.23.02.2.02.4-.01.58.06-.08.07-.15.1-.22l.18.05.02-.05-.19-.05c.04-.08.13-.36.26-.33l.33.08.05.17.36.09c.04-.08.1-.13.16-.11l.59.14zm8.25-3.94c.08-.05.15-.1.21-.16l-.17-.23c0-.02-.1-.1.05-.38.01-.01-.02.1.15.2 0 0 .16.1.07.3a.9.9 0 0 0 .1-.18c-.06-.05-.22-.17-.26-.42 0-.01-.02-.14.05-.23 0 0 .22.1.28.36v-.27c-.06.01-.22 0-.32-.33l-.03-.23-.04-.07-.04-.08a.46.46 0 0 1-.23-.16c-.1.26-.29.28-.32.28a2.58 2.58 0 0 0-.03.23.6.6 0 0 1 .28-.29c-.08.13-.02.32-.02.33.02.29-.24.37-.25.38l.01.05.03.07c.07-.26.28-.3.27-.3-.06.06-.03.26-.02.27.05.22-.1.3-.17.32l.11.22c-.05-.22.14-.45.14-.45l.1.27c.1.26-.05.34-.1.36l.15.14zm.6-2.47c0 .11-.26.16-.46.17a.23.23 0 0 1 .04.2s.2.06.2.14c0 .01.11-.26.22-.3.01 0-.02.07 0 .17 0 0 .2.3-.14.55l-.01.06.03.12c.02-.06.06-.2.1-.23 0 0 .09-.1.18-.16.01 0 .07.3 0 .39l.19-.1s-.1.13-.1.3c0 .02.01.28-.3.23v.14a.77.77 0 0 1 .42-.16c.01 0-.13.08-.16.27 0 .02-.03.17-.1.2-.01.01.1-.04.26.15.01 0-.1 0-.26.13-.02.01-.2.17-.34-.05a1.03 1.03 0 0 1-.32.3.72.72 0 0 0 .08.04l-.03.05-.1-.07a.78.78 0 0 1-.14.06l-.02-.06.1-.04a1.44 1.44 0 0 1-.17-.17c-.25.15-.34-.02-.34-.03-.03-.05-.22-.3-.2-.3.14-.05.29.04.4.12a1.48 1.48 0 0 1-.1-.17c-.37-.07-.39-.54-.37-.55l.17.06a.33.33 0 0 1-.15-.25c0-.16-.06-.21-.06-.22.16-.03.25.07.3.13 0-.12.01-.23.04-.35-.18-.1-.1-.58-.1-.58.22.15.2.4.2.35.01-.04.15-.13.16-.14.08-.04.11-.15.12-.14.02.04.02.11.03.17h.08s-.12-.1-.12-.25c-.19 0-.62-.03-.62-.18v-.61c0-.06.05-.1.13-.12v-.37l-.14-.1v-.34c0-.12.3-.15.39-.16v.2l.05-.01v-.2h.52v.2h.06v-.2c.08.02.38.05.38.18v.33l-.15.1v.36c.09.03.15.07.15.13v.6zm-.61-1.93a.98.98 0 0 0 .21-.16l-.17-.23c0-.02-.1-.1.05-.38.01-.01-.02.1.15.2 0 0 .16.1.07.3a.9.9 0 0 0 .1-.18c-.06-.05-.22-.17-.26-.42 0-.01-.02-.14.05-.22 0-.01.22.1.28.35v-.27c-.06.01-.22.01-.32-.33a3.03 3.03 0 0 1-.03-.22s-.03-.05-.04-.08c0-.02-.02-.08-.04-.08a.46.46 0 0 1-.23-.16c-.1.26-.29.28-.32.28a2.38 2.38 0 0 0-.03.23.6.6 0 0 1 .28-.29c-.08.13-.02.32-.02.33.02.29-.24.37-.24.38v.05l.03.07c.07-.26.28-.3.27-.3-.06.06-.02.26-.02.28.05.21-.1.3-.17.31l.11.22c-.04-.22.14-.45.14-.45l.1.27c.1.26-.05.34-.1.36l.15.14zm.5-3.24c.13.12-.31.57-.36.62a3 3 0 0 1-.14.13c0 .05.03.1.07.12.01.01.15.11.1.26 0 .01.22.07.22.15 0 .01.1-.26.21-.3 0 0-.02.07 0 .17 0 0 .2.3-.14.55l-.01.06.03.12c.02-.06.06-.2.1-.23 0 0 .09-.1.18-.16.01 0 .07.3 0 .39l.19-.1s-.1.13-.1.3c0 .02.01.29-.3.23v.14a.77.77 0 0 1 .42-.16c.01 0-.13.08-.16.27 0 .02-.03.17-.1.2-.01.01.1-.04.26.15.01 0-.1 0-.26.13-.02.01-.2.17-.34-.05a1.03 1.03 0 0 1-.32.3l.08.04c.03.02 0 .07-.03.05l-.1-.07a.78.78 0 0 1-.14.06c-.04.01-.06-.05-.02-.06 0 0 .04 0 .1-.04a1.45 1.45 0 0 1-.17-.16c-.25.14-.34-.03-.34-.04-.04-.05-.22-.3-.2-.3.14-.05.29.04.4.12a1.48 1.48 0 0 1-.1-.17c-.37-.07-.39-.54-.37-.55l.17.06a.33.33 0 0 1-.15-.24c0-.17-.06-.22-.05-.22.15-.04.24.06.28.12 0-.12.03-.23.05-.35-.18-.1-.1-.58-.1-.58.22.15.2.4.2.36.02-.05.15-.14.16-.15.08-.03.11-.15.12-.14.02.04.02.11.03.17h.08s-.16-.14-.12-.31c-.12.09-.25.15-.31.09l-.43-.43c-.04-.04-.03-.1 0-.18l-.25-.26-.17.02-.24-.23c-.09-.1.1-.33.15-.4l.14.15-.1-.18c.11-.13.23-.26.36-.37l.14.14.05-.04-.14-.14c.07-.05.3-.24.39-.15l.24.24-.04.17.26.26c.08-.04.15-.06.2-.01l.42.43zM11.9 18.36l.14-.14c-.04-.02-.2-.1-.1-.37l.1-.26s.2.23.14.45a1.41 1.41 0 0 0 .12-.22c-.07-.02-.22-.1-.17-.32 0-.01.03-.21-.03-.27 0 0 .2.04.28.3l.02-.07.01-.05c0-.01-.27-.1-.24-.38 0 0 .05-.2-.03-.33a.61.61 0 0 1 .28.3 2.48 2.48 0 0 0-.03-.24c-.03 0-.2-.02-.3-.28a.46.46 0 0 1-.25.16l-.04.08c0 .03-.03.07-.03.07l-.03.23c-.1.34-.26.34-.33.33v.27c.07-.26.28-.37.29-.36.07.09.05.21.05.23-.04.25-.2.37-.26.42l.1.17c-.1-.2.06-.28.07-.29.16-.1.14-.21.14-.2.16.28.06.36.06.38l-.17.23.2.16zm.78-2.47c0 .14-.42.17-.61.18 0 .14-.13.24-.13.24l.09.01c.01-.06 0-.13.03-.17 0 0 .04.1.12.14.01 0 .14.1.15.14 0 .05-.01-.2.2-.35.02 0 .09.49-.1.58.03.11.05.23.05.35.05-.06.14-.17.29-.13.01 0-.05.06-.05.22 0 .02-.02.14-.16.24 0 .01.15-.06.18-.05.01 0 0 .48-.38.55a1.3 1.3 0 0 1-.09.17c.1-.08.26-.17.4-.13l-.2.31s-.1.18-.35.03l-.16.17.1.04-.02.06-.14-.06-.1.07-.03-.05.08-.05a1.04 1.04 0 0 1-.32-.3c-.14.23-.33.07-.34.06-.17-.13-.28-.12-.27-.13.16-.19.28-.14.26-.15-.07-.03-.1-.18-.1-.2-.02-.19-.17-.27-.16-.27.2 0 .37.12.43.16a1.51 1.51 0 0 1 0-.14c-.32.05-.31-.21-.31-.23 0-.18-.1-.3-.09-.3l.18.1c-.07-.1 0-.4 0-.39.1.05.18.16.19.16.04.04.08.17.1.22l.03-.12c-.02-.04 0-.04-.01-.05-.34-.25-.14-.54-.14-.55.02-.1-.01-.17 0-.16.1.03.2.3.2.3 0-.1.22-.15.22-.16a.23.23 0 0 1 .03-.19c-.2-.01-.46-.05-.46-.17v-.61c0-.06.05-.1.13-.12v-.37l-.14-.1v-.34c0-.12.3-.15.38-.16v.2l.06-.01v-.2h.52v.2h.06v-.2c.08.02.38.05.38.17v.34l-.15.1v.36c.09.03.15.07.15.13v.6zm-.77-1.93.14-.14c-.04-.02-.2-.1-.1-.36l.1-.27s.2.23.15.45c.04-.07.08-.14.1-.22a.24.24 0 0 1-.16-.31c0-.02.03-.22-.03-.28 0 0 .2.04.28.3l.02-.07.01-.05c0-.01-.27-.1-.24-.38 0 0 .05-.2-.03-.33a.61.61 0 0 1 .28.3 2.42 2.42 0 0 0-.03-.24c-.03 0-.2-.02-.3-.28a.46.46 0 0 1-.25.16l-.04.08c0 .03-.03.07-.03.07l-.03.23c-.1.34-.26.34-.33.33v.27c.07-.26.28-.36.29-.35.07.08.05.2.05.22-.04.25-.2.37-.26.42a.85.85 0 0 0 .1.17c-.1-.19.06-.28.07-.29.16-.1.14-.21.14-.2.16.28.06.36.06.38 0 .01-.14.17-.17.23l.2.16zm.5-2.25c-.06.06-.2-.02-.34-.12.05.19-.12.32-.12.32l.09.01c.01-.06 0-.13.03-.17 0 0 .04.1.12.14 0 0 .14.1.15.14 0 .05-.01-.2.2-.35.01 0 .09.49-.1.58.03.12.05.23.05.35.05-.06.14-.16.29-.13.01 0-.06.06-.06.22 0 .02 0 .14-.15.25l.18-.06c.01 0 0 .48-.38.55a1.52 1.52 0 0 1-.09.17c.1-.08.26-.17.4-.13l-.2.31c0 .01-.1.18-.35.04-.05.05-.1.11-.17.16l.1.04c.04.01.03.07-.01.06 0 0-.06-.01-.14-.06a.89.89 0 0 1-.1.07c-.04.02-.07-.03-.03-.05l.07-.05a1.04 1.04 0 0 1-.31-.3c-.14.23-.33.07-.34.06-.17-.13-.28-.12-.27-.13.16-.19.28-.14.26-.15-.07-.03-.1-.18-.1-.2-.02-.19-.17-.27-.16-.27.2 0 .37.12.43.16a1.48 1.48 0 0 1 0-.14c-.32.06-.31-.21-.31-.23 0-.17-.1-.3-.09-.3l.18.1c-.07-.1 0-.4 0-.39.1.05.18.16.19.16.04.04.08.17.1.22l.03-.11c-.02-.05 0-.05-.01-.06-.34-.25-.14-.54-.14-.55.02-.1-.01-.16 0-.16.1.04.2.3.2.3 0-.1.22-.15.22-.16-.04-.15.1-.25.1-.26a.19.19 0 0 0 .08-.13 3.11 3.11 0 0 1-.12-.12c-.05-.05-.5-.49-.36-.62l.43-.43c.04-.04.1-.03.18 0l.25-.25-.02-.17.24-.23c.09-.1.32.1.39.15l-.14.14.18-.1c.13.1.25.23.37.36l-.14.14.04.04.14-.14c.05.07.24.3.15.4l-.24.23-.17-.04-.26.26c.04.08.05.15.01.2l-.43.43z" fill="#003C71"/><path d="M19.88 5.84a5.25 5.25 0 0 1 1.44-.5c.14-.02.18.02.22.23.04.2.06 1.43-.02 2.13a4.7 4.7 0 0 1-.53 1.84c.2-.53-.19-1-.6-1.19.15-.41-.1-.73-.22-.78 0-.11-.04-.17-.1-.2v.2c.11.2.16.42.15.65.08.12.08.15.11.33.14.24.17.44.2.72.08.2.07.44.07.44h-4.08l-.08.09-1.46-.12-.05-.1h-.04c-1.14-2.03-.65-2.53-.4-2.61a.65.65 0 0 1 .41 0c.12-.47.35-.9.71-1.33.16-.19.78-.04 1.77.43a2.49 2.49 0 0 1 .66-.3l.12-.11c.01-.02.4-.71.4-1 0-.3-.35-.67-.35-.67l-.1.1c-.11.15-.25.17-.43.17-.19 0-.26-.01-.43.07-.14.07-.15.1-.3.12.03.02.05.05.08.1-.12-.02-.22-.03-.28-.12-.1-.02-.12-.05-.18-.12a.58.58 0 0 0 .26-.12l.19-.16a.42.42 0 0 1 .3-.12l-.46-.06c-.08.02-.23.02-.23.02l-.02.06s-.08.01-.12-.06a1.07 1.07 0 0 1-.16-.03c.04-.24.24-.4.36-.4.07-.05.23-.16.34-.2.11-.17.12-.2.4-.36.1-.23.35-.5.65-.67.06.1.02.25-.05.38.52-.23.74-.28 1.25-.3-.08.16-.32.4-.51.54.32.03.62.25.7.36.08.1.03.08-.22.1.4.23.6.55.72.87.04.09 0 .11-.24.04.3.4.35.78.34 1.04 0 .18-.05.13-.2 0 .03.14.04.38 0 .6z" fill="#00290C"/><path fill-rule="evenodd" clip-rule="evenodd" d="M17.73 2.78c.56-.24.9-.35 1.4-.4a5.44 5.44 0 0 1-.6.48c.36.03.52.13.81.32a1.44 1.44 0 0 0-.37.06c.25.13.74.51.87.86-.1 0-.2-.03-.32-.03.2.29.44.56.43 1.05l-.2-.07c.07.32.07.57-.05 1.03.22.63.27.86.26 1.52.06.19.17.36.15.67.07.08.12.16.12.32.06.13.21.58.2.72.08.19.06.37.06.4h-2.74c.35-.12.64-.25.9-.6.51-.43.8-.97.9-1.72a3.23 3.23 0 0 1-.98 1.64c-.3.4-.73.59-1.06.66h-.23s.23-.52.25-.85a.73.73 0 0 0 .16-.52c.41-.35.52-.58.55-.9-.18.45-.27.5-.63.84a.9.9 0 0 1-.19.56 3.83 3.83 0 0 1-.28.89h-.64c.03-.46.07-.68.2-.97.01-.3.1-.59.25-.84 0-.31.2-1.18.72-1.66.3-.4.53-.53.68-.62.15-.3.34-.78.35-.89a1.3 1.3 0 0 0-.4-.84c.1-.19.08-.23.06-.4-.02.15-.04.18-.06.24-.03.05-.29.28-.36.33a.47.47 0 0 1-.28.07c-.1 0-.21 0-.4.09-.13.06-.33.19-.52.1.1-.01.16-.07.25-.15.09-.08.06-.12.52-.27-.16-.1-.48-.12-.58-.14-.1-.02-.26.03-.47.02.02-.08.12-.24.27-.25a.74.74 0 0 1 .33-.17c.24-.3.16-.3.54-.52l-.1.02c.08-.16.32-.41.54-.57a.67.67 0 0 1-.15.4.93.93 0 0 0-.16.1zm-2.75 6.9-.05-.1.07-.01c-.4-.75-1.13-2.36-.48-2.54a.63.63 0 0 1 .36.01 5.4 5.4 0 0 0 .24 2.61c0-.13.28-1 .82-1.24a5.45 5.45 0 0 1-.25-.6c.1-.29.25-.42.6-.38.13-.39.28-.63.53-.78-.26.1-.44.3-.57.58a5.6 5.6 0 0 1-.38-.87 4 4 0 0 0 .28.92c-.23.02-.4.1-.52.34a3.65 3.65 0 0 1 .02-1.87c-.32 1-.22 1.77.15 2.62-.31.2-.52.42-.68.93-.35-1.68-.3-2.5.53-3.58.21-.27 1.36.26 1.72.5.14-.09.3-.16.46-.22-.06.07-.1.15-.15.22-.45.3-.86 1.1-.86 1.67-.18.25-.23.5-.23.85-.12.26-.19.6-.18.98h.11l-.08.08-1.46-.12zm4.87-3.71a5.4 5.4 0 0 1 1.4-.52c.17-.04.19.01.2.13a11.21 11.21 0 0 1-.32 3.57c.08-.58.03-.91-.32-1.15a7.9 7.9 0 0 0 .59-2.38 9.77 9.77 0 0 1-.69 2.4c.37.28.45.55.38.98a1.1 1.1 0 0 0-.56-.7c0-.26.02-.55-.26-.8-.04-.15-.1-.23-.2-.26a3.34 3.34 0 0 0 0-.3c.19-.3.31-.48.58-.84l-.6.71a3.17 3.17 0 0 0-.23-.76l.03-.08z" fill="url(#b)"/><path fill-rule="evenodd" clip-rule="evenodd" d="M11.2 3.39c.68.36.92-.27 1.25-.28-.67-.06-.46.3-1.24.28zm1.98-1.08c.72-.25.85.4 1.18.46-.68-.04-.4-.37-1.18-.46zm-1.14 1.53c.62-.22.9.35 1.18.4-.58-.03-.51-.32-1.18-.4z" fill="#B57017"/><path fill-rule="evenodd" clip-rule="evenodd" d="M17.33 3.33c.47-.25.57-.22 1.1-.2-.56.07-.75.07-1.1.2z" fill="#00290C"/><path fill-rule="evenodd" clip-rule="evenodd" d="M17.73 3.19c.03.01.06.1.12.1s.26-.13.27-.14l-.39.04zm1.11 5.62c-.1.1-.53.23-1.02.13.32.2.78.15.9.03a.27.27 0 0 1 .12-.16zm.48-.68c.04.16.06.18.15.27-.01.2 0 .34.13.49.02.32.17.66.34.87h-.18s-.26-.44-.27-.76a.7.7 0 0 1-.14-.53c-.1-.13-.1-.18-.1-.2l.07-.14z" fill="#00290C"/><path d="M17.88 27.3a1.65 1.65 0 1 1 0-3.31 1.65 1.65 0 0 1 0 3.3zm0-.34a1.32 1.32 0 1 0 0-2.64 1.32 1.32 0 0 0 0 2.64z" fill="#009634"/><path fill-rule="evenodd" clip-rule="evenodd" d="m11.8 29.64.8-.43-.89-1.5 1.3-.73-.4-.7-1.3.75-.5-.86 1.39-.8-.4-.72-2.17 1.28c.7 1.25 1.43 2.49 2.17 3.72zM18.63 31a1.82 1.82 0 0 1-.67.11c-.64 0-1.13-.43-1.13-1.1 0-.66.47-1.11 1.13-1.12.23 0 .46.04.68.12l.17-.61a2.1 2.1 0 0 0-.89-.16c-1.05.02-1.94.7-1.93 1.81 0 1.06.86 1.66 1.86 1.68.3 0 .62-.03.9-.15l-.12-.58zm3.13-1.96.87.33.61-1.4c.09.05.19.1.29.13.45.17.95.24 1.42.05.35-.15.58-.46.73-.8.13-.34.16-.73-.02-1.07-.2-.4-.62-.62-1.03-.79a7.6 7.6 0 0 0-1.22-.4 191.66 191.66 0 0 1-1.65 3.95zM24 26.1c.13.01.26.06.38.11.36.15.58.46.43.85-.2.42-.61.5-1.02.36-.1-.04-.19-.08-.28-.14l.5-1.18z" fill="#fff"/><path fill-rule="evenodd" clip-rule="evenodd" d="M17.59 22.39c0 .12.07.22.18.27a.16.16 0 0 1 .23 0 .3.3 0 1 0-.41-.27zm.38.5.14.83v-.14c.06 0 .28.03.28.12v.25l-.1.07v.28c.06.02.1.05.1.1v.45c0 .13-.46.13-.52.13-.05 0-.51 0-.51-.13v-.46c0-.04.04-.07.1-.09v-.27l-.1-.08v-.25c0-.1.22-.11.28-.12v.14l.15-.83a.15.15 0 0 1-.04-.04.47.47 0 1 1 .26 0 .17.17 0 0 1-.04.05z" fill="#B57017"/><path d="M23.96 10.56c.13.12-.31.57-.36.62-.05.05-.5.49-.62.36l-.43-.43c-.04-.04-.03-.1 0-.18l-.25-.26-.17.03-.24-.24c-.1-.1.1-.33.15-.39l.14.14.03-.05-.13-.13c.11-.13.23-.25.36-.37l.14.14.05-.04-.14-.14c.07-.05.3-.24.39-.15l.23.24-.03.17.25.26c.09-.04.16-.06.2-.01l.43.43z" fill="#B57017"/><path d="m22.75 10.83.23-.27c.07-.06.36-.33.48-.35l.34.35a.73.73 0 0 0-.1.06 1.91 1.91 0 0 0-.19.13l-.16-.16c-.1-.1-.24-.05-.31.03-.08.07-.13.21-.02.31l.16.16-.07.09-.36-.35zm-.52-.5.13-.17-.13-.14a2.91 2.91 0 0 1 .2-.2l.14.13.23-.18-.14-.13a.52.52 0 0 1 .14-.08l.15.15a2.9 2.9 0 0 0-.7.64l-.02-.02zm.16.02a2.8 2.8 0 0 1 .47-.46l.04-.02.34.33c-.15.1-.3.25-.34.29l-.18.2-.33-.34z" fill="#E9B245"/><path fill-rule="evenodd" clip-rule="evenodd" d="M22.63 10.2a.12.12 0 0 1 .13-.04.12.12 0 0 1 .03.2.12.12 0 0 1-.19-.09.12.12 0 0 1 .03-.08z" fill="#B57017"/><path d="M12.61 11.51c-.13.13-.57-.31-.62-.36-.05-.05-.5-.5-.36-.62l.43-.43c.04-.04.1-.03.18 0l.25-.25-.02-.17.24-.24c.09-.09.32.1.39.15l-.14.14.04.04.14-.14c.13.11.25.24.37.37l-.14.13.04.05.14-.14c.04.07.23.3.14.39l-.23.24-.17-.04-.26.26c.04.08.05.15.01.2l-.43.42z" fill="#B57017"/><path d="m12.34 10.3.26.24c.07.06.34.35.35.47l-.34.34a.75.75 0 0 0-.06-.1 1.9 1.9 0 0 0-.14-.19l.16-.15c.1-.1.05-.24-.02-.32-.07-.07-.21-.13-.32-.02l-.15.16a1.86 1.86 0 0 0-.09-.07l.35-.35zm.5-.52.17.14.13-.14.21.21-.13.14.18.22.13-.13c.03.04.07.1.08.14l-.15.15a2.13 2.13 0 0 0-.36-.47 2.94 2.94 0 0 0-.28-.24l.02-.02zm-.02.16a3.37 3.37 0 0 1 .48.52l-.33.33a2.67 2.67 0 0 0-.29-.33 2.92 2.92 0 0 0-.2-.18l.34-.34z" fill="#E9B245"/><path d="M12.9 10.38a.12.12 0 1 0 0-.23.12.12 0 0 0 0 .23z" fill="#B57017"/><path d="M13.6 11.52h8.55v8.72c0 .5-.5 1-1 1h-2.2c-.63 0-1.07.5-1.06.7 0-.2-.47-.7-1.09-.7h-2.2c-.5 0-1-.5-1-1v-8.72z" fill="#fff"/><path d="M16.6 23.79c.09 0 .15.06.15.14a.14.14 0 0 1-.03.1l.8.7a.97.97 0 0 1 .7.01l.78-.69a.14.14 0 0 1 .03-.21.14.14 0 0 1 .08-.03c.07 0 .14.07.14.15a.15.15 0 0 1-.14.14.14.14 0 0 1-.06-.01l-.42.96a.97.97 0 0 1 .2.64l.93.54a.14.14 0 0 1 .12-.06c.07 0 .14.06.14.14a.15.15 0 0 1-.14.14.14.14 0 0 1-.14-.1.14.14 0 0 1 0-.06l-1.07-.1a.97.97 0 0 1-.54.4l-.22 1.04a.14.14 0 0 1 .1.14.14.14 0 0 1-.13.14.15.15 0 0 1-.15-.14c0-.07.05-.13.12-.14l-.23-1.04a.98.98 0 0 1-.57-.4l-1.04.1v.02a.15.15 0 0 1-.14.14.15.15 0 0 1-.14-.14.14.14 0 0 1 .26-.07l.9-.53a.97.97 0 0 1 .22-.69l-.43-.97a.14.14 0 0 1-.07.02.15.15 0 0 1-.15-.14c0-.08.07-.14.15-.14z" fill="#B57017"/><path d="M13.26 22.41a.73.73 0 0 0 .07-.05v-.03c-.38-.07-.35-.61-.35-.6.11.1.31.1.31.1-.1 0-.2-.15-.2-.15-.06-.13-.15-.18-.15-.18a.9.9 0 0 1 .4.08 1.56 1.56 0 0 0-.02-.12c-.4.03-.49-.24-.5-.24-.11-.15-.14-.16-.14-.16l.17-.03c-.12 0-.37-.25-.37-.25h.08c-.1-.13-.17-.12-.16-.13.02-.04.1-.06.1-.06-.1-.02-.14-.1-.14-.08.04.11-.05.34-.05.33.04-.04.1-.06.1-.04v.2c0 .18-.06.23-.05.24.09.14.1.43.1.43a.56.56 0 0 1 .12-.17c.1.15.1.33.1.32l.02-.05c.03.07.18.25.2.27.15.21 0 .36 0 .36.12-.07.33 0 .36.01zm.24-.11a.82.82 0 0 1-.1.1l-.03.15c-.01.04-.09.02-.07-.03v-.04a.65.65 0 0 1-.1.05c-.26.28-.63.12-.63.12a.26.26 0 0 0 .12-.05c.03-.06.1-.12.09-.11-.27.17-.44-.03-.45-.04-.14-.11-.25-.1-.24-.1.06-.05.25-.12.24-.12a.4.4 0 0 1-.37-.07c-.1-.1-.16-.06-.15-.07.21-.24.56-.09.56-.08 0 0-.08-.2-.1-.18-.37.17-.45-.2-.46-.21-.06-.12-.11-.13-.1-.13.36-.06.5.19.52.2-.05-.1-.05-.26-.06-.27-.46-.1-.33-.43-.33-.45 0-.12-.03-.2-.03-.2.08 0 .21.1.21.08 0-.23.21-.32.22-.32a.12.12 0 0 0 .07-.08c-.12-.11 0-.41 0-.4a.63.63 0 0 0 .13.14c.1.1.1.2.12.2a.41.41 0 0 1 .37.39l.03.01a.46.46 0 0 1 .04-.18c.06-.12.06-.2.07-.2l.11.25c.09.23.06.34.03.39l.02.03c.02-.1.08-.27.09-.26.2.25.14.54.14.54.04-.1.29-.2.28-.18-.04.06-.05.27-.06.27-.06.17-.2.21-.24.23.02.2.02.4-.01.58.04-.05.1 0 .07.04z" fill="#009634"/><path d="M17.99 11.98h3.69v4.32h-3.7v-4.32z" fill="#00428C"/><path d="M17.87 11.92h3.86v3.45h-3.86v-3.45z" fill="url(#c)"/><path d="m12.22 13.7.14-.15c-.04-.02-.2-.1-.1-.36l.1-.26s.2.22.15.44l.11-.21c-.07-.03-.22-.1-.17-.32 0-.02.04-.22-.03-.28 0 0 .2.04.28.3l.02-.07.01-.05c0-.01-.27-.1-.24-.37 0-.02.05-.2-.03-.34a.6.6 0 0 1 .28.3 2.38 2.38 0 0 0-.03-.24c-.03 0-.2-.02-.3-.28l-.01-.01a.42.42 0 0 1-.24.17l-.04.08c0 .03-.03.07-.03.07l-.03.23c-.1.34-.26.34-.33.33v.27c.07-.26.28-.36.29-.35.07.08.05.2.05.22-.04.25-.2.37-.26.42l.1.18c-.1-.2.06-.3.07-.3.16-.1.14-.21.14-.2.16.28.06.36.06.38l-.17.23.2.16zm-.13.08.08-.05a1.04 1.04 0 0 1-.32-.3c-.14.23-.33.07-.34.06-.16-.13-.28-.12-.27-.13.16-.19.28-.14.26-.15-.07-.03-.1-.18-.1-.2-.02-.19-.17-.27-.16-.27.2 0 .37.12.43.16a1.48 1.48 0 0 1 0-.14c-.32.06-.3-.21-.3-.23 0-.17-.11-.3-.1-.3l.18.1c-.06-.1 0-.39 0-.39.1.05.18.16.19.16.04.04.08.17.1.22l.03-.11c-.02-.05 0-.05-.01-.06-.34-.25-.14-.54-.14-.55.02-.1-.01-.16 0-.16.1.03.2.3.2.3 0-.1.22-.15.22-.16-.04-.15.1-.25.1-.26.14-.1.05-.24.06-.23.39.29.06.55.06.55l.1.02c0-.07 0-.14.02-.18 0 0 .04.1.12.14.01.01.14.1.15.15 0 .04-.01-.21.2-.36.02 0 .09.49-.1.58.03.12.05.23.06.35.04-.06.13-.16.28-.13.01 0-.05.06-.05.22 0 .02-.01.14-.16.25l.18-.06c.01 0 0 .48-.38.55l-.08.17c.1-.08.25-.17.4-.13l-.21.31c0 .01-.1.18-.35.04l-.16.16.1.04c.04.01.02.07-.02.06l-.14-.06a.84.84 0 0 1-.1.07c-.04.02-.07-.03-.03-.05z" fill="#009634"/><path fill-rule="evenodd" clip-rule="evenodd" d="m21.05 11.03 1.38-2.24s-.24.19-.29.2c0 0 .35-.12-.1.03-.46.16-.44-.35-.44-.35s.04-.32-.02-.24c-.06.07-.33.37-.68.41-.35.04-.47-.24-.5-.43 0-.19 0-.12-.08-.06-.05.05-.38.49-.77.13-.38-.36-.28-.88-.48-.58a1.48 1.48 0 0 1-.57.52c-.18.1-.45-.08-.55-.32-.1-.23-.08 0-.36.25-.27.26-.55 0-.79-.32-.23-.32-.22-.24-.27-.05a1.7 1.7 0 0 1-.32.51c-.1.13-.41.18-.68-.1-.27-.27-.04.34-.48.44-.5.1-.9-.63-.89-.34.02.31-.03.5-.27.57-.24.07-.59-.27-.59-.27l1.38 2.24c.15.28 1.43.54 3.19.54s3.03-.27 3.18-.54z" fill="#B57017"/><path fill-rule="evenodd" clip-rule="evenodd" d="M15.65 8.12c.06.04.28.11.3.11.5 0 .32-.63.28-.7-.3-.48-.55-.07-.56-.03-.11.18-.12.05-.09 0 .15-.3.03-.42-.04-.45-.3-.12-.69.1-.73.14-.26.29.19.51.19.53 0 .15-.34-.32-.55.04-.24.4.05.68.32.8.27.1.5-.44.5-.44s.17.11.25-.07c0-.01.12.05.13.07zm-1.59.42c.02.43-.5.38-.49.12 0-.26-.13-.3-.22-.36-.09-.07-.18.07-.18.07h-.04c-.03.01-.02-.11-.02-.11.04-.13 0-.42-.07-.3-.17.27-.6.17-.45-.08.17-.3.24-.17.27-.22.06-.1.34-.07.49.04.14.1.18.46.18.46h.03s.07-.15.15-.16c.13-.01.34.1.35.54zm7.62.02c-.01.43.5.38.5.12s.13-.3.22-.36.18.07.18.07h.03c.03.01.02-.11.02-.11-.03-.13 0-.42.08-.3.16.27.6.17.44-.09-.17-.3-.23-.16-.26-.21-.06-.1-.34-.07-.5.04-.14.1-.17.46-.17.46h-.03s-.07-.16-.15-.16c-.14-.01-.34.1-.36.54zm-3.54-.7c.05.07.24.2.27.2.47.12.47-.54.45-.61-.16-.54-.51-.2-.54-.18-.15.15-.13.03-.08-.02.22-.24.13-.4.07-.44-.26-.2-.7-.08-.73-.06-.33.21.04.55.04.56-.03.15-.25-.4-.54-.1-.34.33-.14.67.1.85.23.17.59-.3.59-.3s.14.16.26 0l.11.1zm2.48.37c.03.07.19.24.2.25.43.25.6-.4.6-.47-.01-.56-.44-.33-.48-.31-.18.1-.12 0-.07-.04.28-.18.24-.34.19-.4-.2-.27-.65-.27-.7-.25-.37.11-.1.53-.1.55-.07.13-.14-.45-.5-.24-.4.23-.3.62-.12.85.18.22.65-.13.65-.13s.09.18.25.06l.08.13z" fill="#B57017"/><path d="M17.87 11.4c1.6 0 2.9-.19 2.9-.42 0-.23-1.3-.42-2.9-.42-1.6 0-2.9.19-2.9.42 0 .24 1.3.42 2.9.42z" fill="#7A4314"/><path d="M17.76 21.08a1.8 1.8 0 0 0-.96-.3h-2.2c-.24 0-.53-.3-.53-.54v-3.71h3.7v4.55z" fill="#00428C"/><path d="M13.96 16.49h3.86v3.44h-3.86V16.5z" fill="url(#d)"/><path d="M14.07 11.98h3.7v4.32h-3.7v-4.32zm7.61 4.54v3.72c0 .25-.3.54-.54.54h-2.19c-.34 0-.69.12-.96.3v-4.56h3.69z" fill="#D60019"/><path d="M21.17 18.58h.07v-.05a.04.04 0 0 0-.07 0v.05zm-.2.36v-.26h.05l.02-.3h-.08v-.18h.1v.1h.08v-.1h.12v.1h.1v-.1h.09v.18h-.08l.02.3h.06v.26h-.17v-.1a.07.07 0 0 0-.07-.08.07.07 0 0 0-.08.08v.1h-.17zm-1.23-1.9h.07v-.06a.04.04 0 0 0-.07 0v.05zm-.2.35v-.26h.05l.02-.3h-.08v-.18h.1v.1h.08v-.1h.12v.1h.1v-.1h.09v.18h-.08l.02.3h.06v.26h-.17v-.1a.07.07 0 0 0-.07-.07.07.07 0 0 0-.08.07v.1h-.17zm1.63-.36h.07v-.05a.04.04 0 0 0-.07 0v.05zm-.2.36v-.26h.05l.02-.3h-.08v-.18h.1v.1h.08v-.1h.12v.1h.1v-.1h.09v.18h-.08l.02.3h.06v.26h-.17v-.1a.07.07 0 0 0-.07-.07.07.07 0 0 0-.08.07v.1h-.17zm-2.54-.36h.07v-.05a.04.04 0 0 0-.07 0v.05zm-.2.36v-.26h.05l.02-.3h-.08v-.18h.09v.1h.1v-.1h.11v.1h.1v-.1h.09v.18h-.08l.02.3h.06v.26h-.17v-.1a.07.07 0 0 0-.15 0v.1h-.17zm.2 1.2h.07v-.06a.04.04 0 0 0-.07 0v.05zm-.2.35v-.26h.05l.02-.3h-.08v-.18h.09v.1h.1v-.1h.11v.1h.1v-.1h.09v.18h-.08l.02.3h.06v.26h-.17v-.1a.07.07 0 0 0-.12-.05.07.07 0 0 0-.03.05v.1h-.17zm.2 1.35h.07v-.05a.04.04 0 0 0-.07 0v.05zm-.2.36v-.26h.05l.02-.3h-.08v-.17h.09v.1h.1v-.1h.11v.1h.1v-.1h.09v.17h-.08l.02.3h.06v.26h-.17v-.1a.07.07 0 0 0-.15 0v.1h-.17zm2.94-.36h.07v-.05a.04.04 0 0 0-.07 0v.05zm-.2.36v-.26h.05l.02-.3h-.08v-.17h.1v.1h.08v-.1h.12v.1h.1v-.1h.09v.17h-.08l.02.3h.06v.26h-.17v-.1a.07.07 0 0 0-.15 0v.1h-.17z" fill="#E9B245"/><path fill-rule="evenodd" clip-rule="evenodd" d="M18.94 17.46h1.79v2.37h-1.8v-2.37z" fill="#fff"/><path fill-rule="evenodd" clip-rule="evenodd" d="M20.32 18.63a.06.06 0 0 1 0-.05.06.06 0 0 1 .06-.02.06.06 0 0 1 .05.04.06.06 0 0 1-.06.08.06.06 0 0 1-.05-.05zm.1-.14a.06.06 0 0 1 .01-.04.06.06 0 0 1 .07-.02.06.06 0 0 1 .03.04v.02a.06.06 0 0 1-.11 0zm0 .27a.06.06 0 0 1 .01-.04.06.06 0 0 1 .07-.02.06.06 0 0 1 .03.04v.02a.06.06 0 0 1-.11 0zm-.2-.27a.06.06 0 0 1 0-.04.06.06 0 0 1 .08-.02.06.06 0 0 1 .03.06.06.06 0 0 1-.1.04.06.06 0 0 1-.02-.04zm0 .27a.06.06 0 0 1 0-.04.06.06 0 0 1 .08-.02.06.06 0 0 1 .03.06.06.06 0 0 1-.06.05.06.06 0 0 1-.06-.05zm-.05-.4h.41v.45a.09.09 0 0 1-.08.09h-.1c-.02 0-.02.02-.02.04 0-.02-.01-.03-.04-.04h-.09a.09.09 0 0 1-.08-.09v-.46zm-.94.27a.06.06 0 1 1 .12 0 .06.06 0 0 1-.12 0zm.1-.14a.06.06 0 0 1 .06-.06.06.06 0 1 1-.06.06zm0 .27a.06.06 0 1 1 .1.04.06.06 0 0 1-.1-.04zm-.2-.27a.06.06 0 0 1 .06-.05.06.06 0 0 1 .06.05.06.06 0 0 1-.12 0zm0 .27a.06.06 0 0 1 .04-.06.06.06 0 0 1 .06.02l.02.02v.02a.06.06 0 0 1-.1.04.06.06 0 0 1-.02-.04zm-.05-.4h.42v.45a.09.09 0 0 1-.09.09h-.08c-.03 0-.04.02-.04.04 0-.02 0-.03-.03-.04h-.09a.09.09 0 0 1-.09-.09v-.46zm.7.27a.06.06 0 0 1 0-.05.06.06 0 0 1 .1 0 .06.06 0 0 1 .01.05.06.06 0 0 1-.06.05.06.06 0 0 1-.04-.02.06.06 0 0 1-.01-.03zm.1-.14a.06.06 0 0 1 .01-.05.06.06 0 0 1 .09 0l.01.02a.06.06 0 0 1-.02.07.06.06 0 0 1-.1-.04zm0 .27a.06.06 0 0 1 .01-.05.06.06 0 0 1 .09 0 .06.06 0 0 1 .01.05.06.06 0 0 1-.11 0zm-.2-.27a.06.06 0 0 1 0-.05.06.06 0 0 1 .1.02.06.06 0 0 1 0 .07.06.06 0 0 1-.1-.04zm0 .27a.06.06 0 0 1 0-.05.06.06 0 0 1 .1.03.06.06 0 0 1 0 .06.06.06 0 0 1-.1-.04zm-.05-.4h.41v.45a.09.09 0 0 1-.08.09h-.1c-.02 0-.03.02-.03.04 0-.02 0-.03-.03-.04h-.09a.09.09 0 0 1-.08-.09v-.46zm.14 1a.06.06 0 0 1 .02-.05.06.06 0 0 1 .04-.02.06.06 0 0 1 .06.05v.02a.06.06 0 0 1-.12 0zm.1-.14a.06.06 0 0 1 .1-.05.06.06 0 0 1 0 .1.06.06 0 0 1-.1-.05zm0 .27a.06.06 0 0 1 .02-.04.06.06 0 0 1 .09 0 .06.06 0 0 1 .01.04.06.06 0 0 1-.05.06.06.06 0 0 1-.06-.05zm-.2-.27a.06.06 0 0 1 .07-.05.06.06 0 0 1 .05.04.06.06 0 0 1-.06.07.06.06 0 0 1-.06-.06zm0 .27a.06.06 0 0 1 .02-.04.06.06 0 0 1 .1.02.06.06 0 0 1 0 .02.06.06 0 0 1-.06.06.06.06 0 0 1-.06-.06zm-.04-.4h.41v.46a.09.09 0 0 1-.08.08h-.1c-.02.01-.03.02-.03.04 0-.02 0-.03-.03-.03h-.09a.09.09 0 0 1-.08-.06.09.09 0 0 1 0-.03v-.46zm.14-1.2a.06.06 0 0 1 .1-.05.06.06 0 0 1-.02.11.06.06 0 0 1-.07-.02.06.06 0 0 1 0-.04zm.1-.13a.06.06 0 0 1 .02-.05.06.06 0 0 1 .09 0 .06.06 0 0 1 .01.05.06.06 0 0 1-.11 0zm0 .27a.06.06 0 0 1 .02-.05.06.06 0 0 1 .05-.02.06.06 0 0 1 .05.04.06.06 0 0 1-.02.06.06.06 0 0 1-.1-.03zm-.2-.27a.06.06 0 0 1 .02-.05.06.06 0 0 1 .1.02.06.06 0 0 1-.02.06.06.06 0 0 1-.1-.03zm0 .27a.06.06 0 0 1 .02-.05.06.06 0 0 1 .04-.02.06.06 0 0 1 .06.04.06.06 0 0 1-.02.06.06.06 0 0 1-.1-.03zm-.04-.41h.41v.46a.09.09 0 0 1-.08.08l-.1.01c-.02 0-.03.02-.03.03 0-.01 0-.03-.03-.03a.87.87 0 0 0-.09 0 .09.09 0 0 1-.08-.1v-.45z" fill="#00428C"/><path d="M17.25 14.07h.07v-.05a.04.04 0 0 0-.07 0v.05zm-.2.36v-.26h.05l.02-.3h-.08v-.18h.1v.1h.08v-.1h.12v.1h.1v-.1h.09v.18h-.08l.02.3h.06v.26h-.17v-.1a.07.07 0 0 0-.07-.07.07.07 0 0 0-.08.07v.1h-.17zm-1.23-1.9h.07v-.06a.04.04 0 0 0-.07 0v.05zm-.2.35v-.26h.05l.02-.3h-.08v-.18h.1v.1h.08v-.1h.13v.1H16v-.1h.09v.18h-.08l.02.3h.06v.26h-.17v-.1a.07.07 0 0 0-.14 0v.1h-.17zm1.63-.36h.07v-.05a.04.04 0 0 0-.07 0v.05zm-.2.36v-.26h.05l.02-.3h-.08v-.18h.1v.1h.08v-.1h.12v.1h.1v-.1h.09v.18h-.08l.02.3h.06v.26h-.17v-.1a.07.07 0 0 0-.07-.07.07.07 0 0 0-.08.07v.1h-.17zm-2.54-.36h.07v-.05a.04.04 0 0 0-.07 0v.05zm-.2.36v-.26h.05l.02-.3h-.08v-.18h.09v.1h.1v-.1h.11v.1h.1v-.1h.09v.18h-.08l.02.3h.06v.26h-.17v-.1a.07.07 0 0 0-.12-.05.07.07 0 0 0-.03.05v.1h-.17zm.2 1.2h.07v-.06a.04.04 0 0 0-.07 0v.05zm-.2.35v-.26h.05l.02-.3h-.08v-.18h.09v.1h.1v-.1h.11v.1h.1v-.1h.09v.18h-.08l.02.3h.06v.26h-.17v-.1a.07.07 0 0 0-.12-.05.07.07 0 0 0-.03.05v.1h-.17zm.2 1.35h.07v-.05a.04.04 0 0 0-.07 0v.05zm-.2.36v-.26h.05l.02-.3h-.08v-.18h.09v.1h.1v-.1h.11v.1h.1v-.1h.09v.18h-.08l.02.3h.06v.26h-.17v-.1a.07.07 0 0 0-.15 0v.1h-.17zm2.94-.36h.07v-.05a.04.04 0 0 0-.07 0v.05zm-.2.36v-.26h.05l.02-.3h-.08v-.18h.1v.1h.08v-.1h.12v.1h.1v-.1h.09v.18h-.08l.02.3h.06v.26h-.17v-.1a.07.07 0 0 0-.07-.07.07.07 0 0 0-.08.07v.1h-.17z" fill="#E9B245"/><path fill-rule="evenodd" clip-rule="evenodd" d="M15.02 12.95h1.79v2.37h-1.79v-2.37z" fill="#fff"/><path fill-rule="evenodd" clip-rule="evenodd" d="M16.4 14.11a.06.06 0 0 1 .01-.04.06.06 0 0 1 .1.02.06.06 0 0 1-.02.06.06.06 0 0 1-.1-.04zm.1-.13c0-.03.03-.06.06-.06a.06.06 0 1 1-.04.1.06.06 0 0 1-.02-.04zm0 .27a.06.06 0 0 1 .01-.05.06.06 0 0 1 .1 0 .06.06 0 0 1-.05.1.06.06 0 0 1-.06-.05zm-.2-.27a.06.06 0 0 1 .11 0 .06.06 0 0 1-.01.05.06.06 0 0 1-.07.01.06.06 0 0 1-.03-.06zm0 .27a.06.06 0 0 1 0-.05.06.06 0 0 1 .1 0 .06.06 0 0 1-.05.1.06.06 0 0 1-.06-.05zm-.05-.4h.41v.45a.09.09 0 0 1-.08.09h-.09c-.03 0-.03.02-.03.04 0-.02-.01-.03-.04-.04h-.09a.09.09 0 0 1-.06-.03.09.09 0 0 1-.02-.06v-.46zm-.94.26a.06.06 0 1 1 .12 0 .06.06 0 0 1-.12 0zm.1-.13a.06.06 0 0 1 .02-.05.06.06 0 0 1 .05-.02.06.06 0 0 1 .06.07.06.06 0 0 1-.1.04.06.06 0 0 1-.02-.04zm0 .27a.06.06 0 0 1 .02-.05.06.06 0 0 1 .1.03.06.06 0 0 1-.01.06.06.06 0 0 1-.1-.04zm-.2-.27a.06.06 0 0 1 .06-.06.06.06 0 0 1 .06.06.06.06 0 0 1-.01.05.06.06 0 0 1-.05.02.06.06 0 0 1-.06-.07zm0 .27a.06.06 0 0 1 .04-.06.06.06 0 1 1-.04.06zm-.04-.4h.41v.45a.09.09 0 0 1-.08.09h-.1c-.02 0-.03.02-.03.04 0-.02 0-.03-.03-.04h-.09a.09.09 0 0 1-.06-.03.09.09 0 0 1-.02-.06v-.46zm.69.26a.06.06 0 0 1 .01-.04.06.06 0 0 1 .09 0 .06.06 0 0 1 .01.05.06.06 0 0 1-.06.05.06.06 0 0 1-.04-.02.06.06 0 0 1-.01-.04zm.1-.13c0-.03.02-.06.06-.06a.06.06 0 0 1 .04.02.06.06 0 0 1-.02.1h-.02a.06.06 0 0 1-.06-.06zm0 .27a.06.06 0 0 1 .01-.05.06.06 0 0 1 .05-.02.06.06 0 0 1 .05.05v.02a.06.06 0 0 1-.11 0zm-.2-.27c0-.03.02-.06.05-.06a.06.06 0 1 1-.06.06zm0 .27a.06.06 0 0 1 .03-.06.06.06 0 0 1 .08.06.06.06 0 0 1-.12 0zm-.05-.4h.41v.45a.09.09 0 0 1-.08.09h-.1c-.02 0-.02.02-.02.04 0-.02-.01-.03-.04-.04h-.09a.09.09 0 0 1-.08-.09v-.46zm.15 1a.06.06 0 0 1 .06-.06.06.06 0 1 1-.06.06zm.1-.14a.06.06 0 0 1 .01-.04.06.06 0 0 1 .05-.02.06.06 0 0 1 .05.04v.02a.06.06 0 0 1-.11 0zm0 .27a.06.06 0 0 1 .03-.06.06.06 0 0 1 .07.02.06.06 0 0 1 .02.04.06.06 0 0 1-.12 0zm-.2-.27a.06.06 0 0 1 0-.04.06.06 0 0 1 .05-.02.06.06 0 0 1 .06.04v.02a.06.06 0 0 1-.12 0zm0 .27a.06.06 0 0 1 .03-.06.06.06 0 0 1 .07.02.06.06 0 0 1 .01.04.06.06 0 0 1-.12 0zm-.05-.4h.41v.46a.09.09 0 0 1-.08.08h-.1c-.02 0-.02.02-.02.04 0-.02-.01-.03-.04-.03h-.09a.09.09 0 0 1-.08-.1v-.45zm.15-1.2a.06.06 0 1 1 .12 0 .06.06 0 0 1-.12 0zm.1-.13c0-.04.02-.06.06-.06a.06.06 0 0 1 .07.06.06.06 0 0 1-.02.04.06.06 0 0 1-.03.01.06.06 0 0 1-.02 0 .06.06 0 0 1-.06-.06zm0 .27a.06.06 0 0 1 .01-.05.06.06 0 0 1 .05-.02.06.06 0 0 1 .05.04v.03a.06.06 0 0 1-.11 0zm-.2-.27c0-.04.02-.06.05-.06a.06.06 0 1 1-.04.1.06.06 0 0 1-.02-.04zm0 .27a.06.06 0 0 1 0-.05.06.06 0 0 1 .05-.02.06.06 0 1 1 0 .12.06.06 0 0 1-.06-.05zm-.05-.41h.41v.46a.09.09 0 0 1-.08.08h-.1c-.02.01-.02.03-.02.04 0-.02-.01-.03-.04-.03h-.09a.08.08 0 0 1-.06-.03.09.09 0 0 1-.02-.06v-.46z" fill="#00428C"/><path fill-rule="evenodd" clip-rule="evenodd" d="M20.27 13.73c-.02-.02-.03-.07-.03-.07s-.03.06 0 .11c.02.05-.03 0 .03-.04zm-.39-1.03h.03v.02h.01v.02h-.02v.04h-.02v-.04h-.02v-.02h.02v-.02zm.32 1.1h-.02a.1.1 0 0 0-.04.02l-.05.04-.02-.03-.03-.08v-.1s-.02.02-.03.07l.02.09-.03.01c0 .02.03 0 .05.02l.05.04.04-.04a.33.33 0 0 1 .06-.03z" fill="#E2001A"/><path d="M19.46 14.42c-.1-.11-.1-.31-.1-.34a.87.87 0 0 1 .09-.32c.02-.01.03-.1.03-.1s0-.18.06-.28c.07-.1.06-.05.07-.07 0-.02.06-.03.06-.04.01 0 .05-.04.04-.13-.02-.08.06-.15.07-.15a.53.53 0 0 0-.09-.07s-.02-.05.01-.08c.04-.02.07 0 .07 0 0-.01 0-.05.04-.06.06-.02.07.02.09.02 0 0 .02-.05.07-.03.05.02.04.05.04.05s.03-.01.07.02c.04.04.02.1 0 .1a.2.2 0 0 0-.06.05c.11.08.02.26.03.37.01-.02.02-.04.09-.04.07 0 .09.08.09.12l-.03.12c.08.04.13.1.12.17l-.02.07v.05a.5.5 0 0 1 0 .09l-.03.1-.06.1-.03.05v.09a.52.52 0 0 1 0 .16.23.23 0 0 0-.02.08l.02.08v.09a.14.14 0 0 1-.06.1l-.02.02a.18.18 0 0 1-.04.05.56.56 0 0 0 0 .14.5.5 0 0 0 0 .12c0 .02 0 .1-.02.11a.2.2 0 0 0-.02.07l.03.09.02.08.03.1c0 .01.03.13.01.14a.2.2 0 0 1-.06.01h-.33s-.13.01-.14 0h-.2a.77.77 0 0 1 .01-.15l.04-.18.05-.15.05-.14c.01-.01.04-.14.02-.14-.01-.02-.08-.03-.12-.13-.04-.1 0-.25 0-.26 0-.02.06-.13.03-.15z" fill="url(#e)"/><path d="M21.5 12.55c-.12-.05-.2-.11-.35-.11 0 0 .23.1.23.3-.17-.23-.45-.28-.73-.28-.3 0-.63.07-.86.09-.27 0-.53-.08-.8-.08-.29 0-.6.05-.78.26 0-.18.23-.29.23-.3-.14 0-.23.07-.35.12.26-.25.57-.3.9-.3.26 0 .52.08.8.08.27 0 .6-.08.86-.09.29 0 .59.06.85.3z" fill="#fff"/><path d="M18.58 13.12a.5.5 0 0 1-.07-.16c-.04-.18.06-.2.18-.18.04 0 .06.03.07.04l.01.03h.01a.22.22 0 0 1 .12.08v.02a.06.06 0 0 0 .02.01.06.06 0 0 0 .04 0 .16.16 0 0 1 .03-.03l.04-.02a.05.05 0 0 0 .03-.05c0-.02-.01-.06 0-.07l-.5-.53v-.03c-.01 0 0 0 0 0h.02l.5.51v.01h.05l.02.02a.01.01 0 0 1 0 .01l.02.03v.01l.01.02c.04.05.02.07-.02.04a.05.05 0 0 1-.03.02c-.03.08-.1.2-.18.21h-.01a.44.44 0 0 1-.05-.02.19.19 0 0 0-.03-.02v.01a.08.08 0 0 1 0 .02.12.12 0 0 0-.01.05l.03.09v.05l.03.07h-.37v-.09a.27.27 0 0 1 0-.04l.02-.04a.31.31 0 0 0 .02-.07zm1.89-.31v-.02a.03.03 0 0 1 .02-.02l.02-.01.02-.01-.02-.02c-.03 0-.04-.02-.04-.03l.03-.03c.02 0 .03.01.03.03l.03.04.5-.5.02-.02v.04l-.49.5.03.03c.03 0 .04.01.04.03a.03.03 0 0 1-.03.03c-.02 0-.03-.02-.03-.03l-.02-.02a.14.14 0 0 1 0 .06c0 .02 0 .03.03.05l.04.03a.2.2 0 0 1 .03.03l.04-.01v-.01l.02-.01a.22.22 0 0 1 .12-.08v-.01l.02-.03c0-.01.02-.03.07-.04.12-.02.22 0 .18.18a.58.58 0 0 1-.07.16.15.15 0 0 0 .02.07l.01.04a.19.19 0 0 1 .01.04l.02.13-.38-.03v-.01a.42.42 0 0 0 0-.07l.01-.05a.18.18 0 0 1 .04-.1.1.1 0 0 0 0-.04l-.01-.02a.04.04 0 0 1 0-.01l-.03.02a.44.44 0 0 1-.05.02.02.02 0 0 1-.01 0c-.09 0-.15-.13-.19-.21a.05.05 0 0 1-.02-.02c-.04.03-.06 0-.02-.03v-.04z" fill="#00428C"/><path d="M20.02 13.96v.06a.03.03 0 0 1-.01.01l.04.1c0 .02-.02.03-.03.01l-.04-.1a.1.1 0 0 1-.03 0c-.03-.02-.01-.03-.07-.02-.05.01-.14.03-.31 0 0-.08.11-.13.11-.13l.14.06.08-.01.01-.03v.01c-.03 0-.03-.03-.02-.06a11.83 11.83 0 0 0-.17-.36.04.04 0 1 1 .03 0l.16.33c.02-.02.06-.03.08-.02 0-.03-.02-.02-.03-.05v-.1c0-.06.06-.08.1-.08.02 0 .05.03.07-.01-.05 0-.08-.04-.08-.1 0-.05.03-.09.08-.09.06 0 .08.05.07.08 0 .03 0 .08-.03.1l.05.03.05.03.03.08v.05l-.03.06-.05.01s-.06.03-.07.07c-.01.03-.08.04-.08.04s-.07.01-.05.03z" fill="#fff"/><path fill-rule="evenodd" clip-rule="evenodd" d="M19.76 13.26c.03.08.05.1.12.12-.05.04-.08.03-.12.03 0 .04.04.07.08.07.05 0 .1-.04.08-.09a.45.45 0 0 0 .12-.2c.03-.13-.12-.17-.2-.06-.06.06-.06.08-.08.13zm.03-.32c.1-.05.22 0 .22 0l.04-.02c.01 0 .04-.03 0-.06-.02-.02-.04-.01-.07 0 0-.04 0-.05-.02-.06-.02 0-.03 0-.06.03-.03-.02-.05-.03-.07-.02-.03 0-.03.05-.03.05s-.05-.02-.07.01c-.03.03.02.04.02.04s.04-.04.12-.04a.18.18 0 0 0-.08.07z" fill="#fff"/><path d="m21.14 13.5.05.53a.23.23 0 0 1 .07.04v.15a.02.02 0 0 1 0 .01l-.05.04.1 1.22v.01a.03.03 0 0 1 0 .01.03.03 0 0 1-.02.01h-.76a.02.02 0 0 1 0-.02l.1-1.22-.06-.05v-.15a.17.17 0 0 1 .08-.06l.05-.5-.04-.04v-.12a.16.16 0 0 1 .08-.05l.01.01v.05l.04-.01v-.05h.01l.09-.01v.05h.04v-.04l.01-.01h.09v.07h.04v-.04h.01c.03 0 .06 0 .09.03v.11a.02.02 0 0 1 0 .01l-.03.03z" fill="#00428C"/><path d="m21.08 13.53.04.55h-.05V14h-.12v.07h-.07V14h-.06v-.48a.6.6 0 0 1 .23 0 .12.12 0 0 1 .03.01zm-.3 1.54.03-.84a.81.81 0 0 1 .33.03l.1 1.2h-.16v-.31a.15.15 0 0 0-.15-.15h-.02a.15.15 0 0 0-.13.07z" fill="#E9B245"/><path fill-rule="evenodd" clip-rule="evenodd" d="M20.92 14.48a.06.06 0 1 1 0 .13.06.06 0 0 1 0-.13zm0-.82a.06.06 0 1 1 0 .13.06.06 0 0 1 0-.13z" fill="#00428C"/><path d="m18.93 13.5.04.53.07.04v.15a.02.02 0 0 1 0 .01l-.05.04.11 1.22v.01a.02.02 0 0 1-.01.02.02.02 0 0 1-.01 0h-.76a.02.02 0 0 1-.02-.03l.11-1.2-.06-.06v-.15a.18.18 0 0 1 .08-.06l.05-.5-.04-.04v-.12a.15.15 0 0 1 .09-.05v.06a.43.43 0 0 1 .05-.01v-.05l.09-.01h.01v.05h.04v-.05h.09v.07h.05v-.04a.19.19 0 0 1 .1.03v.11a.02.02 0 0 1 0 .01l-.03.03z" fill="#00428C"/><path d="m18.86 13.53.05.55h-.06V14h-.12v.07h-.06V14h-.07v-.48a.6.6 0 0 1 .23 0 .12.12 0 0 1 .03.01zm-.3 1.54.03-.84a.81.81 0 0 1 .33.03l.1 1.2h-.16v-.31a.15.15 0 0 0-.15-.15h-.01a.15.15 0 0 0-.13.07z" fill="#E9B245"/><path d="M18.7 14.61a.06.06 0 1 0 0-.13.06.06 0 0 0 0 .13zm0-.82a.06.06 0 1 0 0-.13.06.06 0 0 0 0 .13z" fill="#00428C"/><path fill-rule="evenodd" clip-rule="evenodd" d="M16.33 18.31c-.02-.02-.02-.08-.02-.08s-.03.07 0 .12c.01.05-.04 0 .02-.04zm-.38-1.03h.02v.02H16v.02h-.02v.04h-.02v-.04h-.02v-.02h.02v-.02zm.31 1.1h-.01a.09.09 0 0 0-.05.01l-.05.04-.02-.02-.02-.09v-.1l-.03.08c-.01.04.02.09.02.09h-.03c0 .03.03.02.04.03l.05.04c.01 0 .02-.03.05-.04a.27.27 0 0 1 .05-.03z" fill="#E2001A"/><path d="M15.53 19c-.11-.11-.1-.31-.11-.34a.92.92 0 0 1 .1-.32c.02-.01.02-.1.02-.1s0-.18.07-.28c.07-.1.05-.05.06-.07.01-.02.06-.04.07-.04 0-.01.05-.04.03-.13-.02-.08.07-.15.07-.15a.5.5 0 0 0-.08-.07c-.01 0-.03-.05 0-.08.04-.02.07 0 .07-.01.01 0 0-.04.04-.06.06-.02.08.03.09.02 0 0 .02-.04.07-.02.05.01.04.05.04.05s.04-.02.07.02c.05.04.02.09 0 .1a.19.19 0 0 0-.06.05c.11.08.03.26.04.37 0-.02.01-.04.08-.04.08 0 .1.08.1.11 0 .05-.02.09-.03.12.08.05.12.1.11.18 0 .06-.02.06-.02.07l.01.05a.5.5 0 0 1 0 .08l-.03.11c-.02 0-.05.08-.06.09l-.03.06s-.02.08-.01.09a.53.53 0 0 1 0 .16l-.01.08.01.07v.1a.14.14 0 0 1-.05.1c-.02 0-.02 0-.02.02l-.05.05v.13s.02.1 0 .12l-.01.12-.02.07a.48.48 0 0 0 .02.09l.03.08.02.1c0 .01.03.12.02.14a.2.2 0 0 1-.06.01h-.48l-.19-.01a.7.7 0 0 1 .01-.14c0-.02.02-.15.04-.18l.04-.15.06-.14c0-.01.03-.14.02-.15-.02 0-.09-.02-.13-.12-.04-.1 0-.25 0-.26 0-.02.06-.13.04-.15z" fill="url(#f)"/><path d="M17.56 17.13c-.12-.05-.2-.11-.35-.11 0 0 .23.1.23.3-.17-.23-.45-.28-.73-.28-.3 0-.62.07-.85.09-.28 0-.54-.08-.8-.09-.3 0-.61.05-.79.27 0-.19.24-.29.24-.3-.15 0-.23.07-.36.11.26-.25.57-.3.9-.3.27 0 .53.09.8.09s.6-.08.86-.09c.29 0 .6.06.85.3z" fill="#fff"/><path d="M14.64 17.7a.52.52 0 0 1-.07-.17c-.03-.17.07-.2.18-.18.05.02.07.03.08.05v.03h.02a.21.21 0 0 1 .11.08l.01.02H15a.05.05 0 0 0 .03.02.19.19 0 0 1 .03-.04l.04-.02c.02-.02.04-.03.04-.05-.01-.02-.02-.06 0-.07l-.5-.53-.01-.03s0-.01 0 0h.03l.5.51h.03l.01.01.02.02a.03.03 0 0 1 .01 0 .01.01 0 0 1 0 .02s.02 0 .02.02v.03c.04.05.03.07-.01.04a.05.05 0 0 1-.03.02c-.04.08-.1.2-.18.2H15a.37.37 0 0 1-.04-.02l-.03-.01-.01.03v.05l.03.09v.05l.02.07h-.37v-.1a.2.2 0 0 1 .01-.03l.02-.04a.27.27 0 0 0 .02-.07zm1.9-.31v-.04a.03.03 0 0 1 .02 0l.01-.01a.09.09 0 0 1 .02-.01l-.02-.02c-.02 0-.03-.02-.03-.03s.01-.03.03-.03a.03.03 0 0 1 .03.03l.03.03.49-.5h.03v.03l-.5.5.04.03c.02 0 .03.01.03.03a.03.03 0 0 1-.03.03l-.03-.03-.01-.02a.13.13 0 0 1-.01.06c0 .02.01.03.04.05l.07.06a.05.05 0 0 0 .03-.01.06.06 0 0 0 .01-.01l.02-.02a.21.21 0 0 1 .11-.07l.01-.01.01-.03c.01-.01.03-.03.07-.04.12-.02.22 0 .18.17a.58.58 0 0 1-.06.17.15.15 0 0 0 .01.07l.02.04a.2.2 0 0 1 0 .04l.02.13-.38-.03v-.01a.41.41 0 0 0 .01-.07l.01-.05a.18.18 0 0 1 .04-.1l-.01-.04v-.02a.06.06 0 0 1 0-.01l-.04.01a.38.38 0 0 1-.05.03c-.1-.01-.16-.13-.2-.21a.05.05 0 0 1-.02-.02c-.04.03-.05 0-.02-.03v-.04h.01z" fill="#00428C"/><path d="M16.08 18.54v.06a.03.03 0 0 1-.01.01l.05.1c0 .01-.02.03-.03.01l-.05-.1h-.02c-.03-.02-.02-.03-.07-.02a.6.6 0 0 1-.32-.01c.01-.07.12-.12.12-.12l.13.06.09-.01v-.03.01c-.03 0-.02-.04-.01-.07a15.37 15.37 0 0 0-.17-.35.04.04 0 0 1-.05-.03v-.03a.04.04 0 0 1 .06-.03.04.04 0 0 1 .01.08l.16.34a.13.13 0 0 1 .08-.03c0-.02-.02-.01-.03-.05v-.1c0-.05.07-.07.1-.07.02 0 .06.03.08-.02-.06 0-.08-.04-.09-.09 0-.05.03-.1.09-.1s.07.06.07.09 0 .08-.03.1l.04.02.05.04.04.08v.05l-.04.06-.04.01s-.07.03-.08.06c0 .04-.08.04-.08.04s-.06.02-.05.04z" fill="#fff"/><path fill-rule="evenodd" clip-rule="evenodd" d="M15.83 17.84c.03.08.04.1.12.12-.06.03-.09.03-.13.03.01.04.04.07.09.07.04 0 .09-.04.08-.08a.45.45 0 0 0 .12-.2c.02-.14-.12-.18-.21-.07-.06.06-.06.07-.07.13zm.03-.32c.1-.05.22 0 .22 0l.03-.02c.02 0 .04-.04 0-.06-.01-.02-.03-.01-.06 0 0-.04 0-.05-.03-.06-.02 0-.03 0-.06.03-.03-.03-.04-.03-.07-.02-.02 0-.03.05-.03.05s-.04-.02-.07 0c-.02.04.03.05.03.05s.03-.04.11-.04a.18.18 0 0 0-.07.07z" fill="#fff"/><path d="m17.2 18.09.05.51a.22.22 0 0 1 .07.05v.15l-.05.04.11 1.22v.01a.02.02 0 0 1-.01.02.02.02 0 0 1-.01 0h-.75a.02.02 0 0 1-.02-.03l.1-1.2-.05-.06v-.16a.17.17 0 0 1 .08-.05l.04-.5-.04-.04v-.11a.15.15 0 0 1 .09-.05v.05a.28.28 0 0 1 .05 0v-.05l.1-.01v.05H17v-.05h.1v.06h.04v-.05a.19.19 0 0 1 .1.04v.12l-.03.04z" fill="#00428C"/><path d="m17.14 18.11.05.55h-.05v-.07l-.01-.01H17v.06h-.06v-.06h-.06v-.49a.6.6 0 0 1 .22.01.16.16 0 0 1 .03.01zm-.3 1.54.04-.84a.81.81 0 0 1 .1 0c.09 0 .18 0 .22.03l.11 1.2h-.17v-.31a.15.15 0 0 0-.1-.14.15.15 0 0 0-.05-.02h-.01a.15.15 0 0 0-.13.08z" fill="#E9B245"/><path d="M16.98 19.2a.06.06 0 1 0 0-.14.06.06 0 0 0 0 .13zm0-.83a.06.06 0 1 0 0-.13.06.06 0 0 0 0 .13zM15 18.09l.05.51a.22.22 0 0 1 .06.05v.15l-.04.04.1 1.22a.02.02 0 0 1 0 .02.02.02 0 0 1-.02 0h-.75a.02.02 0 0 1-.02 0 .02.02 0 0 1 0-.02l.1-1.2-.05-.06v-.16a.18.18 0 0 1 .08-.05l.04-.5-.04-.04v-.11a.15.15 0 0 1 .1-.05v.05a.27.27 0 0 1 .04 0v-.05l.1-.01v.05h.04v-.05h.09l.01.01v.05h.04v-.04l.01-.01c.03 0 .06.02.09.04v.12l-.03.04z" fill="#00428C"/><path d="m14.93 18.11.04.55h-.05v-.08h-.13v.06h-.06v-.06h-.06v-.49a.6.6 0 0 1 .23.01.16.16 0 0 1 .02.01zm-.3 1.54.03-.84a.8.8 0 0 1 .1 0c.1 0 .18 0 .23.03l.1 1.2h-.16v-.31a.15.15 0 0 0-.15-.16h-.02a.15.15 0 0 0-.13.08z" fill="#E9B245"/><path d="M14.77 19.2a.06.06 0 1 0 0-.14.06.06 0 0 0 0 .13zm0-.83a.06.06 0 1 0 0-.13.06.06 0 0 0 0 .13z" fill="#00428C"/><path d="M17.25 15.7h1.25v1.27c0 .08-.08.15-.15.15h-.32c-.1 0-.16.07-.16.1 0-.03-.07-.1-.15-.1h-.33c-.07 0-.15-.07-.15-.15V15.7z" fill="#E9B245"/><path fill-rule="evenodd" clip-rule="evenodd" d="M17.87 16.1a.27.27 0 0 1 .25-.1.4.4 0 0 1 .13.06c.07.06.08.12.1.2v.16a.6.6 0 0 1-.16.28.5.5 0 0 1-.12.1.94.94 0 0 1-.27.13 3.18 3.18 0 0 0-.15-.18l-.08-.1a.63.63 0 0 1-.1-.16.42.42 0 0 1-.05-.18.3.3 0 0 1 .03-.17.23.23 0 0 1 .12-.12.22.22 0 0 1 .15-.01.24.24 0 0 1 .15.08z" fill="#D60019"/><path d="M12.96 15.65c0 .18-.63.18-.7.18-.07 0-.69 0-.69-.18v-.61c0-.06.06-.1.13-.12v-.37l-.13-.1v-.34c0-.13.3-.15.38-.16v.19h.06v-.2h.51v.2h.06v-.2c.09.02.38.05.38.17v.34l-.14.1v.36c.08.03.14.07.14.13v.6z" fill="#B57017"/><path d="m11.92 14.98.35-.02c.1 0 .49.01.58.09v.48a.74.74 0 0 0-.12-.03 1.8 1.8 0 0 0-.22-.03v-.23c0-.14-.14-.2-.24-.2-.1 0-.24.06-.24.2v.23a3.8 3.8 0 0 0-.11 0v-.49zm-.02-.72.22-.03v-.18h.3v.19l.28.03v-.2l.15.05v.21a2.84 2.84 0 0 0-.95-.05v-.02zm.1.13a3.11 3.11 0 0 1 .27-.02c.14 0 .29.02.43.04v.47c-.18-.03-.39-.03-.43-.03l-.27.01v-.47z" fill="#E9B245"/><path fill-rule="evenodd" clip-rule="evenodd" d="M12.28 14.45a.12.12 0 1 1 0 .23.12.12 0 0 1 0-.23z" fill="#B57017"/><path d="M12.96 20.1c0 .18-.63.19-.7.19-.07 0-.69 0-.69-.19v-.6c0-.06.06-.1.13-.13v-.36l-.13-.1v-.34c0-.13.3-.15.38-.17v.2h.06v-.2h.51v.2h.06v-.2c.09.02.38.04.38.17v.34l-.14.1v.36c.08.03.14.07.14.13v.6z" fill="#B57017"/><path d="m13.47 22.34-.1.1a1.78 1.78 0 0 1-.03.14c-.02.05-.1.03-.08-.02l.02-.05a.66.66 0 0 1-.1.06c-.27.28-.65.12-.64.12a.26.26 0 0 0 .11-.06l.1-.1c-.27.16-.45-.04-.45-.04-.14-.12-.25-.1-.24-.11a.67.67 0 0 1 .24-.11.4.4 0 0 1-.37-.08c-.1-.1-.17-.06-.15-.07.21-.24.55-.08.55-.08s-.07-.19-.08-.18c-.38.17-.46-.2-.47-.2-.07-.12-.12-.13-.11-.13.37-.07.51.18.52.2-.05-.1-.04-.27-.05-.27-.47-.11-.33-.44-.33-.46 0-.12-.04-.19-.03-.19.08-.01.2.1.2.08 0-.23.22-.32.22-.32.06-.03.08-.07.07-.08-.11-.12 0-.41.01-.4a.63.63 0 0 0 .12.14c.12.1.12.2.13.2a.41.41 0 0 1 .37.38l.02.02a.46.46 0 0 1 .05-.18c.06-.12.06-.2.06-.2l.12.25c.08.23.06.33.03.39l.02.03a.75.75 0 0 1 .09-.26c.2.25.14.54.14.53.04-.1.29-.19.28-.18a1 1 0 0 0-.06.28c-.06.16-.2.21-.24.23.02.2.02.39-.01.58v-.01c.03-.04.1 0 .07.05z" fill="#009634"/><path d="m11.92 19.44.35-.02c.1 0 .49.01.58.09v.48a.77.77 0 0 0-.12-.03 1.95 1.95 0 0 0-.22-.03v-.23c0-.14-.14-.2-.24-.2-.1 0-.24.06-.24.2v.23a1.63 1.63 0 0 0-.11 0v-.49zm-.02-.72.22-.03v-.18h.3v.19l.28.03v-.2l.15.05v.21a3 3 0 0 0-.95-.05v-.02zm.1.13a2.81 2.81 0 0 1 .7.02v.47c-.18-.03-.39-.03-.43-.03H12v-.46z" fill="#E9B245"/><path fill-rule="evenodd" clip-rule="evenodd" d="M12.28 18.9a.12.12 0 1 1 0 .23.12.12 0 0 1 0-.23z" fill="#B57017"/><path d="M15.2 22.1c.18.05.03.66.01.73-.01.07-.17.67-.34.63l-.6-.15c-.05-.02-.07-.08-.08-.16l-.35-.08-.13.1-.33-.08c-.13-.03-.08-.33-.07-.41l.19.05v-.06l-.18-.05a4.23 4.23 0 0 1 .12-.5l.2.05.01-.06-.19-.05c.03-.07.13-.35.26-.32l.32.08.06.16.35.1c.05-.08.1-.13.16-.12l.6.15z" fill="#B57017"/><path d="m14.31 22.96.06-.34c.02-.1.13-.47.23-.55l.47.12a.79.79 0 0 0-.06.1l-.09.22-.22-.06c-.14-.03-.23.08-.25.19-.03.1 0 .24.14.28l.22.05a2.76 2.76 0 0 0-.02.11l-.48-.12zm-.71-.15.03-.22-.18-.05.07-.28.18.04.1-.27-.18-.04.08-.14.2.05c-.09.13-.17.4-.2.55a2.83 2.83 0 0 0-.07.36h-.03zm.15-.07a3.89 3.89 0 0 1 .17-.64l.02-.04.46.12a2.64 2.64 0 0 0-.14.41l-.05.26-.46-.11z" fill="#E9B245"/><path d="M13.98 22.63a.12.12 0 1 0 0-.23.12.12 0 0 0 0 .23zm6.4-.52c-.18.04-.03.65-.01.72.01.07.17.67.34.63l.6-.15c.05-.02.07-.08.08-.16l.35-.08.13.1.33-.08c.13-.03.08-.33.07-.41l-.19.05v-.06l.18-.05a4.3 4.3 0 0 0-.12-.5l-.2.05-.01-.06.19-.05c-.03-.07-.13-.35-.26-.32l-.32.08-.06.16-.35.1c-.05-.08-.1-.13-.16-.12l-.6.15z" fill="#B57017"/><path d="M21.27 22.96a3.2 3.2 0 0 0-.06-.34c-.02-.1-.13-.47-.23-.55l-.47.12a1.99 1.99 0 0 1 .14.32l.23-.06c.14-.03.23.08.25.19.03.1 0 .24-.14.28l-.22.05.02.11.48-.12zm.7-.15-.02-.22.18-.05-.07-.28-.18.04-.1-.27.18-.04a.5.5 0 0 0-.08-.14l-.2.05a2.87 2.87 0 0 1 .28.91h.02zm-.14-.07a3.5 3.5 0 0 0-.05-.26 2.87 2.87 0 0 0-.14-.42l-.46.12a2.57 2.57 0 0 1 .2.67l.45-.11z" fill="#E9B245"/><path fill-rule="evenodd" clip-rule="evenodd" d="M21.7 22.48a.12.12 0 0 0-.04-.07.12.12 0 0 0-.14 0 .12.12 0 0 0-.04.08.12.12 0 0 0 .06.11.12.12 0 0 0 .17-.12z" fill="#B57017"/><path d="M12.2 18.09c.06-.04.1-.09.15-.14-.04-.02-.2-.1-.1-.36l.1-.27s.2.23.15.45l.11-.22c-.07-.02-.22-.1-.17-.32 0-.01.04-.21-.03-.27 0 0 .2.04.28.3l.02-.07.01-.05c0-.01-.27-.1-.24-.38 0 0 .06-.2-.03-.33a.61.61 0 0 1 .28.3 2.46 2.46 0 0 0-.02-.24c-.04 0-.22-.02-.32-.28v-.01a.42.42 0 0 1-.24.17l-.04.08c0 .03-.03.07-.03.07l-.03.23c-.1.34-.26.34-.33.33v.27c.07-.26.28-.37.29-.36.07.09.06.22.05.23-.04.25-.2.37-.26.42a.88.88 0 0 0 .1.17c-.1-.19.06-.28.07-.29.16-.1.14-.21.14-.2.16.28.06.36.06.38l-.17.23a1 1 0 0 0 .2.16zm-.12.09.08-.05a1.04 1.04 0 0 1-.32-.3c-.14.23-.33.07-.34.06-.16-.13-.28-.12-.27-.13.16-.19.28-.14.26-.15-.07-.03-.1-.18-.1-.2a.36.36 0 0 0-.16-.27c.2 0 .37.12.43.16a1.48 1.48 0 0 1 0-.14c-.32.05-.3-.21-.3-.23 0-.17-.11-.3-.1-.3l.18.1c-.06-.1 0-.39 0-.39.1.05.18.16.19.16.04.04.08.17.1.22l.03-.11c-.02-.05 0-.05-.01-.06-.34-.25-.14-.54-.14-.55.02-.1-.01-.17 0-.16.1.03.2.3.2.3 0-.1.22-.15.22-.16-.04-.15.1-.25.1-.26.14-.1.05-.24.06-.23.39.29.06.55.06.55l.1.01a.35.35 0 0 1 .02-.17s.04.1.12.14c.01 0 .14.1.15.14 0 .05-.01-.2.2-.35.02 0 .09.49-.1.58.03.11.05.23.06.35.04-.06.13-.16.28-.13.01 0-.05.06-.05.22 0 .02-.01.14-.16.25l.18-.06c.01 0 0 .48-.38.55a1.58 1.58 0 0 1-.08.17c.1-.08.25-.17.4-.13l-.21.31s-.1.18-.35.03a1.42 1.42 0 0 1-.16.17l.1.04-.02.06-.14-.06a.83.83 0 0 1-.1.07l-.03-.05zm6.25 4.44s.11-.04.27-.07c.08.2.3.2.32.2.13 0 .3.13.3.12 0-.06-.04-.13-.03-.12.11.11.43.14.42.14a.95.95 0 0 1-.13-.17c-.05-.12-.15-.2-.14-.2.03 0 .07 0 .1-.02l.05.01c.13.48.55.3.56.31.04.04.19.08.17.08-.12 0-.33.14-.33.14l.05-.15c-.02.03-.12.07-.13.07-.23 0-.3.18-.3.17.03-.17.08-.19.06-.18-.47.1-.47.42-.47.4 0 0-.07-.06-.06-.07.05-.02.07-.11.08-.12 0-.05.08-.15.07-.15-.4 0-.51.21-.52.22l-.12.06a.77.77 0 0 1-.14-.12c.1.04.22-.03.24-.04.19-.1.24-.08.23-.1a.45.45 0 0 0-.58 0l-.03-.06a.74.74 0 0 1-.05-.13c-.02-.05-.1-.03-.08.02 0 0 .04.13.15.28-.23.33.28.58.28.57a.62.62 0 0 1-.05-.2.65.65 0 0 0-.03-.17.76.76 0 0 0 .06.04l.04.05c0 .33.57.34.57.33a3.95 3.95 0 0 0-.14-.26h.1c.26.33.66.16.66.16a.33.33 0 0 1-.17-.17c.1.11.33.1.35.09.16-.09.36-.1.36-.12-.08-.07-.28-.15-.26-.15.14-.05.16-.21.17-.22.02-.13.09-.18.1-.18.2-.03.35-.26.35-.26-.02.02-.37 0-.38 0a.36.36 0 0 0-.2.04c-.07 0-.13-.02-.17-.07v-.02a.25.25 0 0 0-.03-.03.4.4 0 0 0 .2-.04c.12-.1.2-.08.2-.08-.21-.33-.53-.02-.59.03a1.2 1.2 0 0 0-.16-.04c.07-.06.16-.18.17-.2-.03.03-.22 0-.22 0-.26-.06-.4.04-.4.04l.04-.07c.05-.11.13-.12.12-.13-.2-.1-.36-.03-.35-.04.03-.07.05-.26.03-.26-.2.04-.26.13-.26.14-.1.1-.15.48-.16.57l-.2.05c-.06.02-.03.1.02.08zm4.16-.2a.63.63 0 0 1-.07-.06l-.01-.03c.39-.07.36-.61.36-.6-.12.1-.32.1-.32.1.11 0 .2-.15.2-.15.07-.13.16-.18.15-.18a.9.9 0 0 0-.4.08l.03-.12c.4.03.49-.24.5-.24.11-.15.14-.16.14-.16l-.17-.03c.11 0 .37-.25.37-.25a.16.16 0 0 1-.08 0c.1-.13.17-.12.16-.13-.02-.04-.1-.06-.1-.06.1-.02.14-.1.14-.08-.04.11.05.34.05.33-.04-.04-.11-.06-.1-.04v.2c0 .18.06.23.05.24-.1.14-.1.43-.1.43a.54.54 0 0 0-.12-.17c-.1.15-.1.33-.1.32l-.02-.05-.2.27c-.15.21 0 .36 0 .36-.13-.07-.33 0-.37.01zm-.24-.12.1.1.03.15c.01.04.09.02.07-.03l-.01-.04.1.05c.27.28.64.12.64.12a.26.26 0 0 1-.12-.05c-.04-.06-.1-.12-.1-.11.28.17.45-.03.46-.04.14-.11.25-.1.24-.1-.06-.05-.25-.12-.24-.12.22.06.36-.07.37-.07.1-.1.16-.06.15-.07-.22-.24-.56-.09-.56-.08 0 0 .08-.2.09-.18.38.17.46-.2.47-.21.06-.12.11-.13.1-.13-.37-.06-.5.19-.52.2.05-.1.05-.26.06-.27.46-.1.33-.43.33-.45-.01-.12.03-.2.03-.2-.08 0-.21.1-.21.08a.35.35 0 0 0-.22-.32c-.05-.02-.08-.07-.07-.08.12-.11 0-.41 0-.4a.63.63 0 0 1-.13.14c-.11.1-.11.2-.12.2a.41.41 0 0 0-.38.39l-.02.01a.46.46 0 0 0-.04-.18c-.06-.12-.06-.2-.07-.2l-.11.25c-.09.23-.06.34-.03.39l-.03.03a.7.7 0 0 0-.08-.26c-.21.25-.14.54-.14.54-.04-.1-.29-.2-.28-.18.04.06.05.27.06.27.06.17.2.21.24.23-.03.2-.02.39.01.58-.04-.05-.1 0-.07.04zm1.28-8.6a1.4 1.4 0 0 1-.14-.15c.04-.02.2-.1.1-.36l-.1-.26s-.2.22-.15.44a1.39 1.39 0 0 1-.11-.21c.07-.03.22-.1.17-.32 0-.02-.04-.22.02-.28 0 0-.2.04-.27.3l-.03-.07v-.05c0-.01.27-.1.24-.37 0-.02-.06-.2.02-.34a.61.61 0 0 0-.28.3l.03-.24c.03 0 .22-.02.32-.28v-.01a.42.42 0 0 0 .23.17c.02 0 .04.06.05.08 0 .03.03.07.03.07l.03.23c.1.34.26.34.32.33v.27c-.06-.26-.27-.36-.28-.35a.26.26 0 0 0-.05.22c.04.25.2.37.26.42a.93.93 0 0 1-.1.18c.09-.2-.07-.3-.07-.3-.17-.1-.14-.21-.15-.2-.16.28-.05.36-.05.38l.17.23a1.1 1.1 0 0 1-.2.16zm.13.08-.08-.05a.91.91 0 0 0 .32-.3c.14.23.33.07.34.06.16-.13.28-.12.27-.13-.16-.19-.28-.14-.26-.15.06-.03.1-.18.1-.2.02-.19.16-.27.15-.27-.2 0-.36.12-.42.16a1.32 1.32 0 0 0 0-.14c.31.06.3-.21.3-.23 0-.17.11-.3.1-.3l-.19.1c.07-.1.01-.39 0-.39-.1.05-.17.16-.18.16-.04.04-.08.17-.1.22a2.52 2.52 0 0 0-.03-.11c.02-.05 0-.05 0-.06.35-.25.15-.54.15-.55-.02-.1.01-.16 0-.16-.1.03-.2.3-.2.3 0-.1-.22-.15-.22-.16.04-.15-.1-.25-.1-.26-.14-.1-.05-.24-.06-.23-.39.29-.06.55-.06.55l-.09.01h-.02a.35.35 0 0 0-.01-.17s-.04.1-.12.14c-.01.01-.14.1-.15.15 0 .04 0-.21-.21-.36 0 0-.08.49.1.58l-.05.35c-.04-.06-.13-.16-.28-.13-.01 0 .05.06.05.22 0 .02.01.14.16.25l-.18-.06c-.01 0 0 .48.38.55l.08.17c-.1-.08-.25-.17-.4-.13l.21.31c0 .01.1.18.35.04l.16.16-.1.04c-.04.01-.02.07.02.06l.13-.06.11.07c.04.02.07-.03.03-.05zm-6.25 8.84s-.1-.04-.26-.07c-.08.2-.3.2-.32.2-.14 0-.3.13-.3.12 0-.06.04-.13.03-.12-.11.11-.43.14-.42.14a.92.92 0 0 0 .13-.17c.05-.12.15-.2.14-.2-.03 0-.07 0-.1-.02l-.05.01c-.13.48-.56.3-.57.31-.04.04-.18.08-.16.08.12 0 .33.14.33.14a1.18 1.18 0 0 1-.05-.15c.02.03.12.07.13.07.23 0 .3.18.3.17-.03-.17-.08-.19-.06-.18.46.1.47.42.47.4 0 0 .07-.06.06-.07-.05-.02-.08-.11-.08-.12 0-.05-.08-.15-.07-.15.4 0 .51.21.52.22l.12.06a.74.74 0 0 0 .14-.12c-.1.04-.23-.03-.24-.04-.19-.1-.24-.08-.23-.1a.45.45 0 0 1 .58 0l.02-.06a.74.74 0 0 0 .06-.13c.02-.05.1-.03.08.02a.93.93 0 0 1-.15.28c.23.33-.28.58-.28.57.03-.03.05-.19.05-.2a.63.63 0 0 1 .03-.17.8.8 0 0 1-.06.04.22.22 0 0 0-.04.05c0 .33-.57.34-.57.33l.14-.26h-.1c-.26.33-.66.16-.66.16a.33.33 0 0 0 .17-.17c-.11.11-.34.1-.35.09-.16-.09-.36-.1-.36-.12.08-.07.28-.15.26-.15-.14-.05-.17-.21-.17-.22-.03-.13-.09-.18-.1-.18-.2-.03-.35-.26-.35-.26.02.02.37 0 .38 0 .07 0 .14 0 .2.04.07 0 .13-.02.16-.07l.02-.02a.33.33 0 0 1 .02-.03.4.4 0 0 1-.2-.04c-.12-.1-.21-.08-.2-.08.21-.33.53-.02.58.03l.17-.04a1.12 1.12 0 0 1-.17-.2c.03.03.21 0 .22 0 .26-.06.4.04.4.04l-.04-.07c-.05-.11-.13-.12-.12-.13.2-.1.35-.03.35-.04-.03-.07-.05-.26-.03-.26.2.04.26.13.26.14.1.1.15.48.16.57l.2.05c.06.02.03.1-.02.08z" fill="#009634"/><path d="M24.12 15.65c0 .18-.63.18-.7.18-.07 0-.7 0-.7-.18v-.61c0-.06.06-.1.13-.12v-.37l-.13-.1v-.34c0-.13.3-.15.38-.16v.19h.06v-.2h.52v.2h.06v-.2c.08.02.38.05.38.17v.34l-.15.1v.36c.08.03.15.07.15.13v.6z" fill="#B57017"/><path d="m23.07 14.98.35-.02c.1 0 .49.01.58.09v.48a.72.72 0 0 0-.12-.03 1.82 1.82 0 0 0-.22-.03v-.23c0-.14-.13-.2-.24-.2-.1 0-.24.06-.24.2v.23h-.1v-.49zm-.02-.72.22-.03v-.18h.3v.19l.28.03v-.2l.15.05v.21a2.86 2.86 0 0 0-.95-.05v-.02zm.1.13a2.86 2.86 0 0 1 .66.01h.05v.48c-.18-.03-.4-.03-.44-.03l-.27.01v-.47z" fill="#E9B245"/><path fill-rule="evenodd" clip-rule="evenodd" d="M23.43 14.45a.12.12 0 1 1 0 .23.12.12 0 0 1 0-.23z" fill="#B57017"/><path d="M24.12 20.1c0 .18-.63.19-.7.19-.07 0-.7 0-.7-.19v-.6c0-.06.06-.1.13-.13v-.36l-.13-.1v-.34c0-.13.3-.15.38-.17v.2h.06v-.2h.52v.2h.06v-.2c.08.02.38.04.38.17v.34l-.15.1v.36c.08.03.15.07.15.13v.6z" fill="#B57017"/><path d="m22.22 22.34.1.1.03.14c.01.05.09.03.07-.02l-.01-.05a.69.69 0 0 0 .1.06c.27.28.64.12.64.12a.25.25 0 0 1-.12-.06l-.1-.1c.28.16.45-.04.46-.04.14-.12.25-.1.24-.11a.86.86 0 0 0-.24-.11.4.4 0 0 0 .37-.08c.1-.1.16-.06.15-.07-.22-.24-.56-.08-.56-.08s.08-.19.09-.18c.38.17.46-.2.47-.2.06-.12.11-.13.1-.13-.37-.07-.5.18-.52.2.05-.1.05-.27.06-.27.46-.11.33-.44.33-.46-.01-.12.03-.19.03-.19-.08-.01-.21.1-.21.08a.35.35 0 0 0-.22-.32c-.05-.03-.08-.07-.07-.08.12-.12 0-.41 0-.4a.61.61 0 0 1-.13.14c-.11.1-.11.2-.12.2a.41.41 0 0 0-.38.38l-.02.02a.47.47 0 0 0-.04-.18c-.06-.12-.06-.2-.07-.2l-.11.25c-.09.23-.06.33-.03.39l-.03.03a.76.76 0 0 0-.08-.26c-.21.25-.14.54-.14.53-.04-.1-.29-.19-.28-.18.04.07.05.27.06.28.06.16.2.21.24.23-.03.2-.02.39.01.58l-.01-.01c-.03-.04-.1 0-.06.05z" fill="#009634"/><path d="M23.07 19.44a3.1 3.1 0 0 1 .35-.02c.1 0 .49.01.58.09v.48a.74.74 0 0 0-.12-.03 1.97 1.97 0 0 0-.22-.03v-.23c0-.14-.13-.2-.24-.2-.1 0-.24.06-.24.2v.23a1.6 1.6 0 0 0-.1 0v-.49zm-.02-.72.22-.03v-.18h.3v.19l.28.03v-.2l.15.05v.21a3.03 3.03 0 0 0-.95-.05v-.02zm.1.13c.24-.03.47-.02.7.02v.47c-.17-.03-.39-.03-.43-.03h-.27v-.46z" fill="#E9B245"/><path fill-rule="evenodd" clip-rule="evenodd" d="M23.43 18.9a.12.12 0 1 1 0 .23.12.12 0 0 1 0-.23z" fill="#B57017"/><path d="M23.54 18.09a1.38 1.38 0 0 1-.14-.14c.04-.02.2-.1.1-.36l-.1-.27s-.2.23-.15.45a1.44 1.44 0 0 1-.11-.22c.07-.02.22-.1.17-.32 0-.01-.04-.21.02-.27 0 0-.2.04-.27.3l-.03-.07v-.05c0-.01.26-.1.24-.38 0 0-.06-.2.02-.33a.61.61 0 0 0-.28.3l.03-.24c.03 0 .21-.02.32-.28v-.01a.42.42 0 0 0 .23.17c.02 0 .04.06.05.08 0 .03.03.07.03.07l.03.23c.1.34.26.34.32.33v.27c-.06-.26-.27-.37-.28-.36-.07.09-.06.22-.05.23.04.25.2.37.26.42a.92.92 0 0 1-.1.17c.09-.19-.07-.28-.07-.29-.16-.1-.14-.21-.15-.2-.16.28-.05.36-.05.38l.17.23a1 1 0 0 1-.2.16zm.13.09-.08-.05a1 1 0 0 0 .32-.3c.14.23.33.07.34.06.16-.13.28-.12.27-.13-.16-.19-.28-.14-.26-.15.06-.03.1-.18.1-.2.02-.19.16-.27.15-.27-.2 0-.36.12-.42.16v-.14c.31.05.3-.21.3-.23 0-.17.11-.3.1-.3l-.18.1c.06-.1 0-.39 0-.39-.1.05-.18.16-.19.16-.04.04-.08.17-.1.22l-.03-.11c.02-.05 0-.05 0-.06.35-.25.15-.54.15-.55-.02-.1.01-.17 0-.16-.1.03-.2.3-.2.3 0-.1-.22-.15-.22-.16.04-.15-.1-.25-.1-.26-.14-.1-.05-.24-.06-.23-.4.29-.06.55-.06.55l-.09.01h-.02a.34.34 0 0 0-.01-.17s-.04.1-.12.14c-.01 0-.14.1-.15.14 0 .05 0-.2-.21-.35 0 0-.08.49.1.58l-.05.35c-.04-.06-.13-.16-.28-.13-.01 0 .05.06.05.22 0 .02.01.14.16.25l-.18-.06c-.01 0 0 .48.38.55l.08.17c-.1-.08-.25-.17-.4-.13l.21.31s.1.18.34.03l.17.17-.1.04.02.06.13-.06.11.07.03-.05z" fill="#009634"/><path d="M21.35 10a2.42 2.42 0 0 0-.1-.03 4.76 4.76 0 0 0-.93-.23c-.64-.1-1.5-.14-2.47-.13a13.81 13.81 0 0 0-2.45.26l-.5.13.2.44.46-.1c.6-.1 1.4-.16 2.3-.16.9 0 1.72.07 2.31.17a3.76 3.76 0 0 1 .88.25l.3-.6zm.37-.76a.46.46 0 0 1-.26-.24.7.7 0 0 1-.05-.14 1.09 1.09 0 0 1-.49.19.6.6 0 0 1-.65-.37.79.79 0 0 1-.12.07c-.2.1-.47.12-.74-.13a1.22 1.22 0 0 1-.3-.43 1.69 1.69 0 0 1-.51.41c-.28.16-.57-.03-.73-.24l-.14.14a.53.53 0 0 1-.65.09c-.16-.1-.3-.25-.42-.4a2.26 2.26 0 0 1-.3.43c-.17.22-.54.25-.85.03a.56.56 0 0 1-.42.38c-.3.07-.57-.1-.74-.22l.37.78c.22-.07.45-.12.69-.16.63-.1 1.5-.17 2.46-.17s1.83.06 2.46.17a4.79 4.79 0 0 1 1.13.34l.26-.53z" fill="url(#g)"/><path d="M16.87 9.92a.22.22 0 1 1 .45 0 .22.22 0 0 1-.45 0zm-1.2.36a.22.22 0 1 0 0-.44.22.22 0 0 0 0 .44zm2.98-.13a.22.22 0 1 0 0-.45.22.22 0 0 0 0 .45zm1.21-.09a.22.22 0 0 1 .3-.2.22.22 0 0 1 .08.36.22.22 0 0 1-.38-.16z" fill="#B57017"/><path d="M17.58 24.4c.1-.02.21-.02.26-.02.07 0 .36 0 .43.06v.36a.57.57 0 0 0-.09-.02 1.42 1.42 0 0 0-.16-.02v-.17c0-.11-.1-.16-.18-.16-.08 0-.18.05-.18.16v.17h-.08v-.36zm-.02-.54.17-.02v-.14a2 2 0 0 1 .21 0v.14l.22.02v-.14a.38.38 0 0 1 .11.03v.16a2.2 2.2 0 0 0-.71-.04v-.02zm.08.09a2.13 2.13 0 0 1 .52.02v.35c-.13-.03-.29-.03-.32-.03l-.2.01v-.35z" fill="#E9B245"/><path fill-rule="evenodd" clip-rule="evenodd" d="M17.84 24a.09.09 0 0 1 .1.04.09.09 0 0 1 0 .07.09.09 0 0 1-.1.05.09.09 0 0 1-.05-.14.09.09 0 0 1 .05-.03z" fill="#B57017"/><path d="M17.87 26.3a.65.65 0 1 0 0-1.3.65.65 0 0 0 0 1.3z" fill="#fff"/><path fill-rule="evenodd" clip-rule="evenodd" d="M21.68 8.56c-.01.43.5.38.5.12s.13-.3.22-.36.18.07.18.07h.03c.03.01.02-.11.02-.11-.03-.13 0-.42.08-.3.16.27.6.17.44-.09-.17-.3-.23-.16-.26-.21-.06-.1-.34-.07-.5.04-.14.1-.17.46-.17.46h-.03s-.07-.16-.15-.16c-.14-.01-.34.1-.36.54z" fill="#B57017"/><path d="M14.66 5.7c.1.33-.12.47-.45.39.05.09.07.12.1.14.42.52-.06 1.05-.35 1.48-.21.29-.4.34-.66.16l-.05-.03c-.17.08-.27.08-.35-.1l-.03-.04c-.03.02-.09.05-.11.08a.17.17 0 0 1-.17.24c-.2-.06-.15-.24-.08-.29a2 2 0 0 0 .1-.08l-.01-.09c0-.16.1-.25.26-.27-.1-.09-.09-.2-.1-.22-.1-.02-.14-.09-.19-.16-.2 0-.22-.21-.13-.3.1-.1.29-.03.27.14.04.02.1.04.24-.02.34-.04.23.52.64.22.09-.07.8-.36.27-.63a1.48 1.48 0 0 1-.44-.33c-.34-.27-.65-1.05.05-.92-.16-.28-.19-.52.18-.53l.23.02c.16.01.29.05.44.1.16.06.42.13 1.07.25.34.03.44-.07.73-.13a1.92 1.92 0 0 1 .9.04c.12.04.24.07.55.07.12 0 .27-.16.4-.08.22.16.97.04 1.4-.17-.02-.11.1-.18.16-.06.02.04.06.2.1.21.04-.07-.14-.27-.03-.4.14-.18.24.06.48-.04a.4.4 0 0 1 .34.02v1.08c-.05-.02-.1-.06-.19-.17.04.2-.07.45-.4.32-.04-.01-.12-.06-.17-.06-.05 0-.65.2-.79.04-.02-.04-.03-.04-.05-.04-.06 0-.08.03-.12.08-.16.17-.33.14-.51.08a.86.86 0 0 0-.24.02 1.65 1.65 0 0 1-.54.04l-.95-.06c-.24-.01-.45.06-.68.11-.23.05-.52.08-.98-.05a.68.68 0 0 1-.14-.05z" fill="#D60019"/><path d="M17.66 5.46v-.09h.09a.66.66 0 0 1-.05-.1l-.03-.06v-.16l.04-.01.13.25.15.28-.12.01-.07-.12h-.13zm0-.4v.15-.03l-.04.1a.17.17 0 0 0-.03.1h.08v.08h-.1l-.03.12-.13-.02.07-.24.1-.26h.09zm-2.11.62v-.17l.05.17h-.05zm0-.5.13.2.18.26.12-.03c0-.1 0-.2.02-.29l.04-.29-.12.03-.03.2v.22a6.17 6.17 0 0 1-.14-.19l-.12-.2h-.08v.09zm.67.37-.07-.27-.05-.26.11-.02.05.26.07.26a.9.9 0 0 0-.1.03zm.55-.25.12.04a.17.17 0 0 1-.06.13c-.03.03-.08.04-.14.04a.36.36 0 0 1-.21-.07.37.37 0 0 1-.08-.08.26.26 0 0 1-.04-.11.32.32 0 0 1 0-.12.22.22 0 0 1 .03-.1.24.24 0 0 1 .2-.09.3.3 0 0 1 .19.07c.03.03.06.06.07.1l-.12.02a.13.13 0 0 0-.05-.07.16.16 0 0 0-.09-.02.13.13 0 0 0-.1.05c-.02.03-.03.08-.01.14a.27.27 0 0 0 .03.08.18.18 0 0 0 .15.1c.04 0 .06 0 .08-.02a.13.13 0 0 0 .03-.09zm.4.24-.05-.23a2.3 2.3 0 0 1-.03-.21 4.2 4.2 0 0 0-.18-.04l-.01-.09.5.1v.08a3.39 3.39 0 0 1-.18-.03c0 .07 0 .14.02.21l.04.22-.12-.01zm-2.2-.08c0 .04.03.09.04.13a.2.2 0 0 1-.04-.01v-.12zm.58-.36v.08l-.06-.09h.06zm0 .4-.04-.11-.08-.3a1.37 1.37 0 0 1-.12-.01l.06.2.06.2-.18-.22-.2-.24-.08-.02v.13l.05.18.11.32.12.03-.07-.21a18.5 18.5 0 0 0-.07-.2l.2.22.18.21h.06v-.17zm-.67.05-.12-.32-.1-.31.13.03.1.32.07.19v.12l-.08-.03zm.08-.55-.04-.01.05.14V5z" fill="#fff"/><path fill-rule="evenodd" clip-rule="evenodd" d="M16.62 3.7c-.03-.07.04-.1.09-.11.06 0 .08.03.08.03s-.1.07-.1.01c-.04 0-.07.08-.07.08z" fill="#00290C"/><defs><linearGradient id="b" x1="17.88" y1="2.21" x2="17.88" y2="33.76" gradientUnits="userSpaceOnUse"><stop stop-color="#009634"/><stop offset=".17" stop-color="#009533"/><stop offset=".28" stop-color="#009133"/><stop offset=".38" stop-color="#008B31"/><stop offset=".46" stop-color="#00822F"/><stop offset=".55" stop-color="#00762C"/><stop offset=".62" stop-color="#006627"/><stop offset=".7" stop-color="#00521F"/><stop offset=".76" stop-color="#003B15"/><stop offset=".8" stop-color="#00290C"/></linearGradient><linearGradient id="c" x1="17.88" y1="33.77" x2="17.88" y2="2.21" gradientUnits="userSpaceOnUse"><stop stop-color="#fff"/><stop offset=".21" stop-color="#FDFEFF"/><stop offset=".35" stop-color="#F6FAFD"/><stop offset=".48" stop-color="#E9F3FA"/><stop offset=".58" stop-color="#D7E9F6"/><stop offset=".69" stop-color="#BDDCF1"/><stop offset=".78" stop-color="#9BCBEA"/><stop offset=".87" stop-color="#69B8E2"/><stop offset=".96" stop-color="#00A3DA"/><stop offset="1" stop-color="#0099D6"/></linearGradient><linearGradient id="d" x1="17.88" y1="33.77" x2="17.88" y2="2.21" gradientUnits="userSpaceOnUse"><stop stop-color="#fff"/><stop offset=".21" stop-color="#FDFEFF"/><stop offset=".35" stop-color="#F6FAFD"/><stop offset=".48" stop-color="#E9F3FA"/><stop offset=".58" stop-color="#D7E9F6"/><stop offset=".69" stop-color="#BDDCF1"/><stop offset=".78" stop-color="#9BCBEA"/><stop offset=".87" stop-color="#69B8E2"/><stop offset=".96" stop-color="#00A3DA"/><stop offset="1" stop-color="#0099D6"/></linearGradient><linearGradient id="e" x1="17.87" y1="33.77" x2="17.87" y2="2.21" gradientUnits="userSpaceOnUse"><stop offset=".11" stop-color="#00428C"/><stop offset=".21" stop-color="#00428B"/><stop offset=".28" stop-color="#044287"/><stop offset=".34" stop-color="#2D4181"/><stop offset=".39" stop-color="#484077"/><stop offset=".44" stop-color="#623E6B"/><stop offset=".48" stop-color="#7D3A5C"/><stop offset=".53" stop-color="#9A334A"/><stop offset=".57" stop-color="#B72635"/><stop offset=".61" stop-color="#D60019"/></linearGradient><linearGradient id="f" x1="17.88" y1="33.77" x2="17.88" y2="2.22" gradientUnits="userSpaceOnUse"><stop offset=".11" stop-color="#00428C"/><stop offset=".21" stop-color="#00428B"/><stop offset=".28" stop-color="#044287"/><stop offset=".34" stop-color="#2D4181"/><stop offset=".39" stop-color="#484077"/><stop offset=".44" stop-color="#623E6B"/><stop offset=".48" stop-color="#7D3A5C"/><stop offset=".53" stop-color="#9A334A"/><stop offset=".57" stop-color="#B72635"/><stop offset=".61" stop-color="#D60019"/></linearGradient><linearGradient id="g" x1="6.26" y1="17.98" x2="29.49" y2="17.98" gradientUnits="userSpaceOnUse"><stop stop-color="#B57017"/><stop offset=".14" stop-color="#B77218"/><stop offset=".24" stop-color="#BE7A1E"/><stop offset=".32" stop-color="#C98927"/><stop offset=".4" stop-color="#DA9F36"/><stop offset=".44" stop-color="#E9B245"/></linearGradient><radialGradient id="a" cx="0" cy="0" r="1" gradientUnits="userSpaceOnUse" gradientTransform="matrix(11.6174 0 0 15.7769 17.87 17.99)"><stop offset=".41" stop-color="#0080C6"/><stop offset=".55" stop-color="#007EC4"/><stop offset=".65" stop-color="#0078BD"/><stop offset=".74" stop-color="#006FB1"/><stop offset=".81" stop-color="#0062A1"/><stop offset=".88" stop-color="#00518C"/><stop offset=".95" stop-color="#003C71"/></radialGradient></defs></svg>