<svg width="36" height="36" fill="none" xmlns="http://www.w3.org/2000/svg"><circle cx="18" cy="18" r="18" fill="#004170"/><path d="M17.975 1.955a16.051 16.051 0 1 1 0 32.102 16.051 16.051 0 0 1 0-32.102zm0-.662a16.713 16.713 0 1 0 11.822 4.894 16.605 16.605 0 0 0-11.822-4.894z" fill="#fff"/><path d="m22.497 8.166 1.59-3.82c-.26-.118-.525-.227-.793-.328l-1.588 3.818c.27.1.533.21.791.33zm-4.576-1.01v-1.25h1.047l.91 1.429c.354.064.706.146 1.053.245l-1.082-1.726c.62-.167 1.126-.714 1.126-1.363 0-.78-.738-1.415-1.517-1.415H17.09V7.19c.275-.022.553-.035.835-.035l-.005.002zm0-3.347h1.537a.683.683 0 0 1 0 1.365H17.92V3.81zm-7.476 6.316-.937-.854 1.16-1.278c.52-.575.52-1.503-.05-2.028a1.468 1.468 0 0 0-2.04.124L6.855 7.985l3.001 2.728c.188-.206.39-.402.589-.595v.007zM7.959 7.853l1.127-1.236a.683.683 0 1 1 1.01.92l-1.128 1.24-1.009-.924zm18.158-1.194c.62-.145 1.756.985 1.974 1.75.18-.138.583-.434.583-.434-.48-1.368-2.395-2.737-3.304-1.881-.54.51-.234 1.299.237 1.79l.458.48c.466.492.874.982.498 1.29-.398.33-1.515-.497-2.187-1.918l-.602.453c.215.51.521.974.903 1.373.493.52 1.03.858 1.511.953.378.074.755.018 1.003-.213.62-.575.39-1.414-.58-2.439l-.403-.425c-.449-.472-.26-.741-.091-.779zM13.41 3.763c-.293.095-.583.198-.87.31l-.31 4.687a9.19 9.19 0 0 1 .857-.473l.044-1.093c.57-.251 1.159-.457 1.762-.616l.72.827c.317-.073.64-.127.963-.164L13.41 3.763zm-.248 2.676.07-1.768 1.17 1.336c-.42.122-.832.267-1.236.432" fill="#fff"/><path d="M17.987 20.99c-2.149 0-3.884 1.657-3.884 3.698 0 .696.206 1.376.59 1.956a9.185 9.185 0 0 0 6.599 0c.385-.58.59-1.26.59-1.956 0-2.04-1.741-3.695-3.889-3.695" fill="#004170"/><path d="M21.385 18.245h-6.802a18.55 18.55 0 0 1-4.287 4.858 9.25 9.25 0 0 0 2.848 2.776 4.345 4.345 0 0 1-.065-.746c0-2.533 2.197-4.588 4.907-4.588s4.906 2.054 4.906 4.588c0 .25-.022.5-.065.746a9.242 9.242 0 0 0 2.845-2.772 18.546 18.546 0 0 1-4.287-4.86v-.002zm-.211-.358c-1.438-2.522-2.288-5.499-2.352-8.982a9.342 9.342 0 0 0-.835-.04c-.282 0-.564.015-.842.04-.063 3.482-.91 6.46-2.351 8.98l6.38.002z" fill="#E30613"/><path d="M17.987 8.205a9.856 9.856 0 1 0 9.857 9.857 9.873 9.873 0 0 0-9.857-9.857zm0 .662c.283 0 .56.015.837.04.062 3.482.909 6.46 2.35 8.981h-6.38c1.438-2.521 2.289-5.499 2.351-8.98.277-.025.559-.04.842-.04zm-9.195 9.195a9.196 9.196 0 0 1 7.899-9.102c-.404 5.908-2.866 10.192-6.92 13.232a9.156 9.156 0 0 1-.98-4.13h.001zm12.493 8.582a9.19 9.19 0 0 1-6.598 0 3.54 3.54 0 0 1-.584-1.956c0-2.04 1.742-3.695 3.89-3.695 2.147 0 3.89 1.654 3.89 3.695a3.54 3.54 0 0 1-.591 1.956h-.007zm1.549-.765c.043-.246.065-.496.065-.746 0-2.533-2.197-4.588-4.907-4.588s-4.906 2.054-4.906 4.588c0 .25.022.5.066.746a9.235 9.235 0 0 1-2.848-2.776c1.703-1.356 3.154-3 4.287-4.858h6.802a18.548 18.548 0 0 0 4.287 4.86 9.233 9.233 0 0 1-2.845 2.773h-.001zm-3.55-16.92a9.194 9.194 0 0 1 6.917 13.232c-4.044-3.039-6.512-7.323-6.916-13.231z" fill="#fff"/><path d="M18.313 25.784a.477.477 0 0 1-.218-.296.112.112 0 0 0-.109-.081.113.113 0 0 0-.108.08.48.48 0 0 1-.218.297c-.02.012-.021.02-.013.036.075.153.18.289.31.4.02.015.026.015.03.015s.012 0 .03-.016c.13-.11.235-.246.31-.399.008-.015 0-.023-.013-.036zm.315-2.067c0-.375-.492-1.547-.641-1.547a.06.06 0 0 0-.036.017c-.18.144-.604 1.182-.604 1.531 0 .281.566 1.019.566 1.42a.075.075 0 1 0 .15 0c0-.401.566-1.138.566-1.417l-.002-.004zm-.96 1.388c-.26-.7-.724-1.084-1.2-1.084a.65.65 0 0 0 0 1.3.39.39 0 0 0 .274-.114.244.244 0 0 0 .067-.232.032.032 0 0 0-.018-.02.035.035 0 0 0-.013-.002c-.005 0-.01 0-.013.002h-.04a.218.218 0 1 1 0-.435c.214 0 .593.205.796.65a.08.08 0 0 0 .072.044.079.079 0 0 0 .058-.024.08.08 0 0 0 .015-.092l.001.007zm1.817-1.082c-.477 0-.934.39-1.2 1.083a.08.08 0 0 0 .071.116.084.084 0 0 0 .074-.045c.203-.439.58-.65.795-.65a.218.218 0 1 1 0 .437h-.039a.035.035 0 0 0-.044.02.25.25 0 0 0 .066.234.39.39 0 0 0 .274.113.65.65 0 1 0 0-1.3" fill="#CEAB5D"/><path d="m9.774 29.017-.197-.148.167-.55-.52-.446-.519.248-.188-.162 1.54-.728.188.16-.47 1.626zm.199-1.499-.531.252.369.313.162-.565zm1.324.65-.864 1.31-.186-.122.864-1.309.186.12zm.677.431.266 1.463.004.001.545-1.037.197.103-.718 1.367-.193-.089-.269-1.48-.004-.002-.553 1.054-.191-.112.72-1.372.196.104zm2.665 1.14-.072.209-.511-.177-.44 1.257-.208-.072.438-1.26-.511-.176.073-.21 1.231.428zm3.388 1.151.707.012v.41c0 .276-.312.457-.699.45a.804.804 0 1 1 .031-1.607.874.874 0 0 1 .65.29l-.156.156a.598.598 0 0 0-.47-.223c-.41-.007-.65.26-.65.578a.585.585 0 0 0 .62.584c.267 0 .46-.117.462-.248v-.173l-.484-.007-.01-.221zm2.403-.932.03.22-1.03.148.059.4.518-.074.032.22-.52.075.069.465 1.067-.154.031.22-1.287.184-.22-1.526 1.25-.178zm1.4-.388c.235-.072.498-.02.588.282.098.32-.087.485-.209.533l.482.52-.234.083-.478-.52-.548.166.184.62-.211.059-.445-1.476.87-.267zm-.594.41.13.435.661-.202a.227.227 0 0 0 .182-.302c-.05-.167-.191-.17-.313-.13l-.66.2zm5.374-1.298-.193.155-.477-.292-.561.398.109.559-.198.13-.326-1.659.202-.142 1.444.851zm-1.39-.557.113.578.39-.28-.503-.298zm.908-1.067 1.054 1.133-.166.147-1.05-1.129.162-.15zm.612-.604 1.485.103.001-.003-.87-.784.148-.165 1.147 1.031-.134.165-1.499-.102-.004.003.882.794-.155.159-1.149-1.036.148-.165zm-2.611 2.072-.197.102-.034 1.092-.904-.616-.198.103.673 1.386.201-.09-.467-.985.004-.003.896.608.035-1.08.004-.003.525.958.19-.109-.728-1.363zM9.192 26.54c-.13-.47-.603-.931-.964-.931a.35.35 0 0 0-.301.162.313.313 0 0 0-.043.12.65.65 0 0 0 .15.463l.163.22c.13.17.25.348.224.488a.197.197 0 0 1-.095.13.176.176 0 0 1-.099.028c-.223 0-.6-.398-.78-.967v-.01l-.162.152c.062.213.162.413.296.59.135.2.327.356.55.446a.57.57 0 0 0 .173.029.35.35 0 0 0 .308-.167.37.37 0 0 0 .053-.14c.027-.182-.069-.422-.287-.713l-.146-.195c-.115-.154-.111-.26-.087-.313a.153.153 0 0 1 .121-.09h.026c.26 0 .64.438.737.779v.008h.007l.159-.091-.003.002zm6.776 4.414-.55-.12.051-.223.549.125-.05.218z" fill="#fff"/></svg>