<svg width="36" height="36" fill="none" xmlns="http://www.w3.org/2000/svg"><path d="M18 36c9.941 0 18-8.059 18-18S27.941 0 18 0 0 8.059 0 18s8.059 18 18 18z" fill="#181818"/><path d="m18.814 15.833 7.16-7.161 1.465 1.464-7.16 7.161-1.465-1.464zM8.559 26.087l7.162-7.161 1.464 1.464-7.161 7.162-1.465-1.465zm10.255-5.697 1.464-1.464 7.161 7.161-1.464 1.465-7.161-7.162zM8.559 10.136l1.465-1.464 7.161 7.16-1.464 1.465-7.162-7.16zm7.975 7.968L18 16.639l1.464 1.465L18 19.568l-1.465-1.464z" fill="#F6D30C"/></svg>