<svg width="36" height="36" fill="none" xmlns="http://www.w3.org/2000/svg"><circle cx="18" cy="18" r="18" fill="#000"/><path d="m11.446 6.542 6.605 7.738 4.433-2.607s-5.349-7.153-6.775-6.647c-1.341.51-4.263 1.516-4.263 1.516zm11.203 5.13s1.006-1.766 1.506-4.124c0 0 5.018 2.017 3.092 7.068l-4.598-2.944z" fill="#fff"/><path d="m27.247 14.62.42 5.301 1.921-.25s.5-.17.42-1.09l-.25-3.114s.086-.506-1.085-.67c-1.426-.261-1.426-.176-1.426-.176zm.415 5.301-3.848 3.114 1.756 3.448s.42 1.346 1.671-.17c1.171-1.517 1.672-1.767 1.586-2.693-.074-.926-.33-3.113-1.165-3.699zm-3.928 3.108-5.268-2.357-4.598 9.34s-.335.67.835.755c1.171.17 3.092.59 4.098-.42 1.006-.92 4.933-7.318 4.933-7.318zm-5.268-2.437-.5-6.227-11.373.761s-.67.085-.586 1.347c.086 1.681.25 3.534.25 3.534s-.085.755 1.422.84c1.506.08 10.622.08 10.787-.255z" fill="#fff"/></svg>