<svg width="36" height="36" fill="none" xmlns="http://www.w3.org/2000/svg"><circle cx="18" cy="18" r="18" fill="#fff"/><path d="M30.538 14.133v11.273L18 32.643 5.455 25.406V10.923L18 3.678l9.636 5.567 1.455-.84L18 2 4 10.084v16.16l14 8.085 14-8.084V13.294l-1.462.839z" fill="url(#a)"/><path d="M14.49 25.413h-2.098v-7.035h6.993a2.517 2.517 0 0 0 2.303-3.464 2.396 2.396 0 0 0-.548-.802 2.425 2.425 0 0 0-1.755-.734h-6.993v-2.14h7a4.658 4.658 0 0 1 4.629 4.63 4.495 4.495 0 0 1-.818 2.621 4.558 4.558 0 0 1-2.014 1.65 8.074 8.074 0 0 1-2.504.378H14.49v4.896z" fill="url(#b)"/><path d="M23.972 25.238h-2.448l-1.888-3.294a7.975 7.975 0 0 0 2.19-.447l2.146 3.74z" fill="url(#c)"/><path d="m29.077 11.79 1.447.805 1.448-.805v-1.699l-1.448-.84-1.447.84v1.7z" fill="url(#d)"/><defs><linearGradient id="a" x1="31.975" y1="10.093" x2="2.288" y2="21.965" gradientUnits="userSpaceOnUse"><stop stop-color="#C200FB"/><stop offset=".49" stop-color="#3772FF"/><stop offset=".49" stop-color="#3773FE"/><stop offset="1" stop-color="#5AC4BE"/></linearGradient><linearGradient id="b" x1="51.151" y1="-.611" x2="-19.217" y2="29.095" gradientUnits="userSpaceOnUse"><stop stop-color="#C200FB"/><stop offset=".49" stop-color="#3772FF"/><stop offset=".49" stop-color="#3773FE"/><stop offset="1" stop-color="#5AC4BE"/></linearGradient><linearGradient id="c" x1="83.685" y1="-96.542" x2="-120.465" y2="-35.528" gradientUnits="userSpaceOnUse"><stop stop-color="#C200FB"/><stop offset=".49" stop-color="#3772FF"/><stop offset=".49" stop-color="#3773FE"/><stop offset="1" stop-color="#5AC4BE"/></linearGradient><linearGradient id="d" x1="31.975" y1="10.093" x2="2.288" y2="21.965" gradientUnits="userSpaceOnUse"><stop stop-color="#C200FB"/><stop offset=".49" stop-color="#3772FF"/><stop offset=".49" stop-color="#3773FE"/><stop offset="1" stop-color="#5AC4BE"/></linearGradient></defs></svg>