<svg width="36" height="36" viewBox="0 0 36 36" xmlns="http://www.w3.org/2000/svg"><g fill="none" fill-rule="evenodd"><path d="M18 .5C27.665.5 35.5 8.335 35.5 18S27.665 35.5 18 35.5.5 27.665.5 18 8.335.5 18 .5z" fill="#FFF"/><path d="M18 0c9.941 0 18 8.059 18 18s-8.059 18-18 18S0 27.941 0 18 8.059 0 18 0zm10.547 22.95-11.732 6.777.238.136 1.724-1.002.237.414 1.755-1.019.238.414 7.54-4.351V22.95zm0-1.918-13.391 7.733.237.136 1.73-.996.232.412 3.414-1.976.238.414 7.54-4.355v-1.368zm0-1.914-15.05 8.691.237.136 1.724-.996.238.408 5.074-2.928.238.408 7.54-4.355v-1.364zm0-1.918-16.714 9.648.242.14 1.724-1 .238.412 6.733-3.888.237.411 7.54-4.353V17.2zm0-1.914L10.18 25.89l.235.138 1.725-.996.238.412 8.392-4.846.237.412 7.54-4.353v-1.37zm0-1.918L8.52 24.933l.232.136 1.7-.979.235.408 10.083-5.82.237.413 7.54-4.353v-1.37zm-.592-1.575L7.453 23.634v.272l3.03-1.748.235.408 10.1-5.828.237.408 7.492-4.322v-.684l-.592-.347zm-1.66-.958L7.454 21.716v.272l3.03-1.747.235.408 10.1-5.829.237.414 6.427-3.713-1.186-.686zm-1.659-.956L7.453 19.802v.272l3.03-1.751.235.414 8.44-4.873.238.408 6.426-3.71-1.186-.683zm-1.659-.958L7.453 17.884v.278l3.03-1.751.235.411 6.734-3.89.237.409L24.164 9.6l-.476-.266-.473-.278-.238-.135zm-1.659-.956L7.453 15.97v.272l3.03-1.751.235.414 5.074-2.932.238.412 6.474-3.736-.473-.276-.713-.408zm-1.658-.962-12.207 7.05v.271l3.03-1.745.235.408 3.416-1.972.242.414 6.468-3.74-.948-.544-.236-.142zm-1.659-.956L7.453 12.14v.272l3.03-1.751.235.408 1.757-1.01.236.408 6.474-3.736-1.184-.684z" fill="#0E3158" fill-rule="nonzero"/></g></svg>