<svg width="36" height="36" fill="none" xmlns="http://www.w3.org/2000/svg"><circle cx="18" cy="18" r="18" fill="#0B251C"/><path d="m21.663 19.355 5.5-5.5a2.182 2.182 0 0 0 .639-1.558v-4.44a.888.888 0 0 0-.234-.623L16.974 17.797a2.18 2.18 0 0 0 0 3.116l7.478 7.447a2.2 2.2 0 0 0 3.748-1.563 2.198 2.198 0 0 0-.647-1.553l-5.89-5.889z" fill="#008C62"/><path d="M26.96 7H10.338C8.997 7 8 8.013 8 9.4v17.355a2.212 2.212 0 0 0 2.243 2.213 2.196 2.196 0 0 0 2.228-2.228V11.285h11.062l4.05-4.036A.857.857 0 0 0 26.962 7z" fill="#00E6A0"/></svg>