<svg width="36" height="36" xmlns="http://www.w3.org/2000/svg"><g fill="none"><circle fill="#0E142B" cx="18" cy="18" r="18"/><path d="m17 27-7 5 4.5-20.7 2.6 15.6zm.2-.1h4.4l-7-15.5 2.6 15.5zm4.8-.4 3.3-12.2-1.3-1.6-2 13.8zM20.4 7.3 14.9 11l8-2.6-2.5-1.1zm-.7 0-3.4.1-.5 1.4 3.9-1.5z" fill="#384182"/><path d="M23.8 12.3 15 11l7.8-2.5.9 3.7zm-2-4.6.4-1.3-2.5-1.1 2 2.4zm.6-1.5.6 2 3.4-.8-4-1.2z" fill="#F79534"/><path d="m21.7 26.8-7-15.6 9.2 1.3-2.2 14.3zM20.1 7.3 15.8 9l-1 1.9L20 7.3zM17.4 6l-1 1.2h3.5L17.4 6zm2-.9-1.8.8 3.9 1.7-2.2-2.5zm1.9-.1h-1.9l2.9 1.1-1-1.1zm1 1.5L22 7.8l.9.4-.5-1.7z" fill="#F0513A"/></g></svg>