<svg width="36" height="36" fill="none" xmlns="http://www.w3.org/2000/svg"><circle cx="18" cy="18" r="18" fill="#000"/><path fill-rule="evenodd" clip-rule="evenodd" d="m6.977 11.704 3.849-4.145.24.136.378.208c1.804.936 3.986 1.407 6.56 1.413 2.57-.006 4.75-.477 6.543-1.41l.633-.343 3.845 4.141-.316.232c-1.815 1.336-1.749 3.488.304 6.594 1.366 2.068 1.686 4.25.956 6.514-.924 2.85-3.156 4.397-6.631 4.62l-.35.027c-1.85.183-3.428.873-4.749 2.073l-.235.214-.235-.213c-1.409-1.277-3.104-1.975-5.105-2.102l-.322-.024c-3.291-.296-5.414-1.833-6.309-4.595-.735-2.262-.412-4.444.962-6.514l.17-.264c1.88-2.965 1.89-5.032.128-6.33l-.316-.232zm21.524-.05L25.108 8l-.395.214c-.231.12-.469.233-.712.339-1.706.738-3.704 1.108-5.997 1.113-1.594-.004-3.045-.183-4.354-.538a11.888 11.888 0 0 1-2.367-.914L10.894 8l-3.393 3.655.157.12c.23.185.428.383.596.593 1.175 1.475.853 3.593-.967 6.355l-.166.259c-.147.238-.28.477-.397.718-.826 1.684-.945 3.43-.358 5.236.11.338.239.657.387.956 1.036 2.096 3.012 3.235 5.934 3.422l.363.03c.12.011.24.025.357.041 1.77.24 3.3.946 4.597 2.12 1.463-1.33 3.234-2.06 5.312-2.191l.319-.025c3.154-.284 5.152-1.734 6.001-4.353.696-2.159.395-4.23-.915-6.213l-.17-.261c-1.976-3.11-1.991-5.379-.05-6.807z" fill="#fff"/><path d="M12.528 10.111c-.043 0-.082 0-.126.005.83.908 1.176 1.913 1.05 3.013l.014.005a.03.03 0 0 1 .013.006c.506-.797.451-1.765-.181-2.892 0-.005 0-.01-.005-.016a2.47 2.47 0 0 0-.764-.121zm.874 3.183c-.033-.006-.066-.006-.093-.006a.69.69 0 0 0-.203.05.586.586 0 0 0-.253.17h-.006c0 .005-.005.01-.005.01-.039.05-.044.089-.028.127.022.039.06.06.121.072.011 0 .022 0 .033.005.083 0 .17-.016.264-.05a.59.59 0 0 0 .192-.11.262.262 0 0 0 .055-.06.188.188 0 0 0 .055-.093.055.055 0 0 0 .002-.028.067.067 0 0 1-.002-.01v-.006c-.01-.016-.021-.027-.032-.038a.263.263 0 0 0-.1-.033z" fill="#fff"/><path d="M13.045 13.184a.668.668 0 0 1 .138-.044c.143-1.1-.215-2.095-1.094-2.99a2.274 2.274 0 0 0-1.15.582c-.01 1.523.6 2.391 1.837 2.611a.764.764 0 0 1 .27-.16zm1.76-1.086c.01-.038.021-.075.032-.107a2.236 2.236 0 0 0-.649-1.187 2.325 2.325 0 0 0-.533-.407c.556 1.116.567 2.083.028 2.891.517-.11.89-.506 1.121-1.187v-.003zm-.617 2.031.017-.016c-.253-.033-.511-.154-.764-.358a.225.225 0 0 1-.05.028c.044.373-.01.681-.175.94.362-.11.687-.308.973-.594z" fill="#fff"/><path d="m13.637 13.571-.01.014c.265.203.528.297.792.286.286-.38.445-.814.462-1.303-.28.577-.687.902-1.226.973a.108.108 0 0 1-.018.03zm-.913.259a.113.113 0 0 0-.025-.014c-.786.203-1.556.077-2.32-.38.116.253.275.479.49.693.005.005.01.011.021.017.825.148 1.446.043 1.858-.303a.232.232 0 0 1-.024-.014z" fill="#fff"/><path d="M13.062 13.882v.005c-.385.44-.979.632-1.781.577.368.237.786.352 1.247.358l.292-.017c.258-.23.368-.544.33-.934a.48.48 0 0 1-.088.01zm-2.886-1.418c0 .208.022.4.071.588.78.555 1.578.725 2.392.522-1.243-.248-1.891-1.105-1.946-2.578a2.248 2.248 0 0 0-.517 1.468z" fill="#fff"/><path fill-rule="evenodd" clip-rule="evenodd" d="M10.983 8.533c.038.022.076.043.114.06 1.91.995 4.21 1.493 6.902 1.499 1.84-.006 3.498-.235 4.965-.7L7.293 19.524c.103-.192.224-.389.35-.58 2.172-3.289 2.331-5.734.481-7.327l2.858-3.085zm3.381 2.095c.506.505.764 1.121.764 1.841a2.53 2.53 0 0 1-.764 1.841 2.533 2.533 0 0 1-1.841.764 2.478 2.478 0 0 1-1.742-.676c-.017-.013-.033-.028-.05-.043-.016-.016-.033-.03-.05-.045a2.512 2.512 0 0 1-.763-1.841c0-.72.253-1.336.764-1.841.51-.511 1.121-.77 1.841-.764a2.49 2.49 0 0 1 1.841.764z" fill="#fff"/><path d="M23.914 10.08c-.06-.148-.192-.181-.39-.088l-2.91 1.92c-.176.186-.264.373-.275.565v3.242c.06.406.253.515.583.34l2.552-1.613a1.33 1.33 0 0 0 .44-.8v-1.498l-1.292.784v.95l-.715.476c-.083.044-.143.039-.176-.016-.028-.044-.039-.126-.044-.258l-.028-1.656a.37.37 0 0 1 .1-.226l.758-.559c.165-.132.253-.126.264.011v.176l1.133-.752v-.998zm1.864 3.701-2.244 1.436V28.88a8.921 8.921 0 0 0 2.239-.477l.005-14.623zm-6.656 4.327 2.206-1.436v12.554a8.507 8.507 0 0 0-2.206.948V18.108zm-4.45 2.85 2.206-1.433-.005 10.611a8.735 8.735 0 0 0-2.201-.941v-8.237zm-2.244 1.457-2.206 1.435v4.56c.652.241 1.385.394 2.206.471v-6.466zM7.18 25.787l.798-.52v1.674a5.401 5.401 0 0 1-.799-1.154zm20.842-7.404c.11.18.229.373.354.559 1.23 1.87 1.52 3.819.866 5.854-.278.843-.686 1.56-1.22 2.145v-8.558zm-9.812-3.859-.798.521-.234-.115-.895.598v.86l.72-.416v-.307l.617-.428v1.694l-.671.45v-.549l-.65.422v1.02l.66-.428v.784l-2.488 1.58-.01-.768.507-.346v-2.702l-.524.318v-.817l3.765-2.456v1.085zm-4.565 6.189v-1.036l-1.065.68v1.07l1.065-.714zm4.869-3.09v-1.068l1.064-.682v1.04l-1.064.71zm-6.756.226c-.082-.044-.203-.05-.374-.006L8.7 19.505c-.28.181-.407.368-.374.565l.006 1.41c.022.214.099.33.23.34.138.017.335-.071.6-.258l1.12-.713c.214-.082.345-.077.39.017v.916l-.901.603c-.149.082-.209.022-.187-.176v-.51l-1.258.78v.954c-.005.4.165.52.511.356l2.719-1.75c.236-.126.346-.394.34-.795l-.016-1.31c-.193-.28-.49-.335-.884-.155l-1.192.73c-.116.044-.182-.006-.204-.132v-.411c-.01-.06 0-.12.039-.175a.764.764 0 0 1 .214-.187l.582-.373c.138-.077.225-.06.253.06v.302l1.208-.746v-.779c-.033-.11-.077-.18-.137-.22zm13.982-5.893v1.042l-1.065.707v-1.07l1.065-.68z" fill="#fff"/><path fill-rule="evenodd" clip-rule="evenodd" d="M22.89 5.298h.75l.274-.802.28.802h.796l-.639.498.296.774-.733-.472-.644.472.264-.85-.644-.422zm-11.79 0h.75l.274-.802.28.802h.796l-.639.498.296.774-.733-.472-.644.472.264-.85-.644-.422z" fill="#FCF417"/></svg>