<svg width="36" height="36" fill="none" xmlns="http://www.w3.org/2000/svg"><circle cx="18" cy="18" r="18" fill="#F2F4F7"/><path d="M22.201 18v4.2h-4.2a4.2 4.2 0 1 1 4.2-4.2zm-4.146-7.003a7.003 7.003 0 1 0-.416 13.999c.121 0 .242.004.364 0h7v-6.912c0-3.86-3.087-7.059-6.946-7.088" fill="#20EE82"/><path d="M27.9 8.1c-4.79-4.79-12.187-5.383-17.623-1.78.157.174.292.368.402.575 5.16-3.405 12.188-2.838 16.726 1.7 5.185 5.185 5.185 13.623 0 18.809-5.185 5.185-13.623 5.185-18.808 0-4.538-4.538-5.105-11.567-1.701-16.726-.208-.11-.4-.245-.575-.403-3.605 5.436-3.01 12.834 1.78 17.624 5.467 5.467 14.331 5.467 19.798 0 5.468-5.468 5.468-14.332.001-19.799z" fill="#7F8C8D"/><path d="M7.211 7.21a1.4 1.4 0 1 1 1.98 1.98 1.4 1.4 0 0 1-1.98-1.98z" fill="#20EE82"/></svg>