<svg width="36" height="36" fill="none" xmlns="http://www.w3.org/2000/svg"><circle cx="18" cy="18" r="18" fill="#F2F4F7"/><path d="M18 35.41c9.615 0 17.41-7.795 17.41-17.41S27.615.59 18 .59.59 8.385.59 18 8.385 35.41 18 35.41z" fill="#1B1B1B"/><path fill-rule="evenodd" clip-rule="evenodd" d="M18 1.18C8.71 1.18 1.18 8.71 1.18 18S8.71 34.82 18 34.82 34.82 27.29 34.82 18 27.29 1.18 18 1.18zM0 18C0 8.059 8.059 0 18 0s18 8.059 18 18-8.059 18-18 18S0 27.941 0 18z" fill="#fff"/><path fill-rule="evenodd" clip-rule="evenodd" d="M23.571 13.438c.236.236.62.207.797-.06a.51.51 0 0 0-.06-.707c-1.947-1.86-3.688-2.804-6.58-2.656-3.039.147-5.724 1.741-5.547 5.105.148 2.98 3.04 4.072 5.577 5.046 1.948.738 3.659 1.387 3.748 2.774.088 1.534-1.476 2.449-2.833 2.537-2.567.148-4.072-.767-5.754-2.39a.546.546 0 0 0-.738-.03c-.236.207-.236.561-.03.797 1.889 1.889 3.837 2.833 6.67 2.686 2.832-.207 6.314-1.8 6.137-5.164-.148-2.922-2.921-4.014-5.43-4.958-2.065-.796-3.983-1.534-4.072-3.216-.059-1.21 1.387-2.095 2.42-2.154 2.508-.118 4.072.767 5.695 2.39zm.325 7.997c0 1.298-.709 2.42-1.77 3.069l-.06-.03c.384-.531.443-1.21.443-1.859 0-1.918-2.095-2.656-4.308-3.452-2.45-.886-5.017-1.8-5.017-4.397 0-1.18.531-2.45 1.564-3.04l.03.06a4.202 4.202 0 0 0-.384 1.8c0 2.124 2.331 2.98 4.692 3.865 2.42.885 4.81 1.77 4.81 3.984z" fill="#fff"/><path fill-rule="evenodd" clip-rule="evenodd" d="M4 18c0-7.722 6.278-14 14-14s14 6.278 14 14-6.278 14-14 14S4 25.722 4 18zM18 4.577c-7.403 0-13.423 6.02-13.423 13.423 0 7.404 6.02 13.423 13.423 13.423 7.404 0 13.423-6.02 13.423-13.423 0-7.403-6.02-13.423-13.423-13.423z" fill="#fff"/></svg>