<svg width="36" height="36" fill="none" xmlns="http://www.w3.org/2000/svg"><circle cx="18" cy="18" r="18" fill="#101014"/><path d="M9 9v18h16.665v-2.018h-14.67V11.018h14.67V9H9z" fill="#fff"/><path d="M27.32 15.917c0-.427-.165-.8-.496-1.115-.331-.316-.791-.475-1.389-.475-.506 0-.901.103-1.195.316-.295.214-.442.493-.442.847 0 .186.037.353.11.502.074.148.194.279.368.4.175.12.405.223.7.316a9.22 9.22 0 0 0 1.094.26c1.113.204 1.959.549 2.547 1.023.589.483.883 1.19.883 2.129v.186a3.4 3.4 0 0 1-.267 1.357c-.174.4-.432.744-.763 1.032-.331.288-.736.502-1.214.66a5.383 5.383 0 0 1-1.61.233c-.698 0-1.305-.103-1.839-.298a3.548 3.548 0 0 1-1.324-.827 3.445 3.445 0 0 1-.8-1.237 4.27 4.27 0 0 1-.276-1.552v-.093h1.996c0 .641.184 1.152.551 1.543.368.381.938.576 1.72.576.607 0 1.058-.13 1.352-.4.294-.27.442-.585.442-.948 0-.176-.028-.335-.092-.502a1.072 1.072 0 0 0-.322-.428c-.147-.13-.359-.241-.626-.344a5.76 5.76 0 0 0-1.002-.26 10.338 10.338 0 0 1-1.472-.363 4.253 4.253 0 0 1-1.158-.585 2.465 2.465 0 0 1-.764-.92c-.184-.373-.276-.819-.276-1.349v-.093c0-.437.092-.846.267-1.218.175-.372.423-.697.745-.976a3.305 3.305 0 0 1 1.15-.642 4.76 4.76 0 0 1 1.508-.232 4.85 4.85 0 0 1 1.665.27c.487.176.892.418 1.223.725.33.307.552.67.745 1.06.239.474.248 1.44.248 1.44l-1.986-.018z" fill="#fff"/></svg>