<svg height="36" viewBox="0 0 36 36" width="36" xmlns="http://www.w3.org/2000/svg" xmlns:xlink="http://www.w3.org/1999/xlink"><linearGradient id="a"><stop offset="0" stop-color="#05aac5"/><stop offset="1" stop-color="#71e0ec"/></linearGradient><linearGradient id="b" x1="50%" x2="50%" xlink:href="#a" y1="99.994%" y2="-.006%"/><linearGradient id="c" x1="50%" x2="50%" xlink:href="#a" y1="99.995%" y2="-.005%"/><linearGradient id="d" x1="50%" x2="50%" xlink:href="#a" y1="99.996%" y2="-.004%"/><g fill="none"><circle cx="18" cy="18" fill="#212734" r="18"/><path d="M11.052 20.597a6.881 6.881 0 0 1-6.878-6.878c0-3.69 6.226-10.206 6.49-10.48l.326-.343.335.335c.273.273 6.605 6.79 6.605 10.48a6.884 6.884 0 0 1-6.878 6.886zm-.053-16.371c-.546.59-1.69 1.867-2.827 3.364-2.016 2.66-3.082 4.773-3.082 6.12a5.972 5.972 0 0 0 5.962 5.962 5.972 5.972 0 0 0 5.962-5.962c0-1.347-1.083-3.46-3.135-6.12a48.946 48.946 0 0 0-2.88-3.364z" fill="url(#b)" transform="translate(6.948 5.5)"/><path d="M11.052 22.798c-5.01 0-9.08-4.077-9.08-9.079 0-4.896 6.834-11.73 7.125-12.012a.468.468 0 0 1 .652 0 .468.468 0 0 1 0 .652c-.07.07-6.852 6.851-6.852 11.36 0 4.5 3.664 8.164 8.164 8.164s8.163-3.664 8.163-8.164c0-1.85-1.198-4.403-3.47-7.406-1.743-2.298-3.496-4.042-3.513-4.06a.452.452 0 0 1 0-.651.452.452 0 0 1 .651 0c.3.29 7.257 7.212 7.257 12.117-.018 5.002-4.086 9.08-9.097 9.08z" fill="url(#c)" transform="translate(6.948 5.5)"/><path d="M11.052 25C4.958 25 0 20.042 0 13.948 0 11.43 1.268 8.33 3.76 4.746 5.6 2.104 7.406.219 7.485.14a.46.46 0 1 1 .66.643c-.017.017-1.84 1.92-3.636 4.5C2.158 8.656.916 11.65.916 13.948c0 5.583 4.544 10.136 10.136 10.136s10.136-4.544 10.136-10.136c0-2.298-1.25-5.292-3.62-8.665a41.304 41.304 0 0 0-3.672-4.5.46.46 0 1 1 .66-.643c.309.317 7.548 7.837 7.548 13.808C22.104 20.042 17.146 25 11.052 25z" fill="url(#d)" transform="translate(6.948 5.5)"/></g></svg>