<svg width="36" height="36" fill="none" xmlns="http://www.w3.org/2000/svg"><circle cx="18" cy="18" r="18" fill="#7112FF"/><path d="M16.394 27c-3 .733-4.734 1.133-6 2.933-.267-.8-.734-3.133 0-4.6.533-1.066 1.866-2 4-2.733 1.733-.6 3.933-1.067 6.2-1.4l.8-.067-.8-.2c-3.667-.733-6.134-1.533-8.667-3.6-1.133-1-1.667-2.6-1.333-4.066.2-1.2 1.133-3.267 4.866-4.334a39.167 39.167 0 0 1 4.4-1.133v-.067h.067C22.994 7 24.994 6.533 25.994 5c0 .8-.067 2.533-1.334 4.267C22.994 11.6 19.86 13 15.394 13.6l-.8.067.733.2c3.667.733 6.133 1.6 8.667 3.666 1.133.934 1.733 2.534 1.4 4.067-.267 1.133-1.2 3.2-4.934 4.333-1.6.467-2.866.8-4.066 1.067zm7.333-11.067c-1.133-.8-2.4-1.466-4.267-2.133 2.534-.733 4.467-1.933 5.734-3.467.133 1.534.066 3.867-1.467 5.6z" fill="#fff"/></svg>