<svg width="36" height="36" fill="none" xmlns="http://www.w3.org/2000/svg"><circle cx="18" cy="18" r="18" fill="#fff"/><path d="M12.458 15.005h-.14c-.332 0-.595.014-.886.191l-.064.055-.064.054c-.208.251-.247.469-.248.787v.252c0 .134 0 .269.002.404l.001.451.002.758c.002.326.003.652.003.98l.003 1.029.002.835.001.138c0 .071.002.143.006.214a.452.452 0 0 0 .042.075c.016.02.036.037.082.074.17.076.26.056.44.013a.398.398 0 0 0 .137-.262v-.116l.002-.132v-.145l.002-.483c0-.144 0-.288.002-.432l.003-.819.008-2 .001-.33.001-.153v-.277a1.41 1.41 0 0 1 .046-.378h4.841a.75.75 0 0 1 .047.244v.089l.003.1.005.696.003.234v.112l.002.108v.102a.5.5 0 0 1 0 .088.557.557 0 0 1-.02.083c-.082.109-.13.155-.265.182h-.119l-.135.002-.146-.001-.464.003-.481.002-.306.002h-.145l-.135.001c-.152 0-.255.009-.385.09a.533.533 0 0 0-.134.347c.015.16.05.248.153.37l.07.068.077.077.081.08.033.032c.114.115.229.23.352.336.194.166.377.342.558.524l.655.66.305.308.144.145.083.085.105.105c.111.117.24.216.382.293a.531.531 0 0 0 .404-.103.712.712 0 0 0 .038-.106.58.58 0 0 0 .01-.072c.004-.175 0-.273-.12-.401l-.092-.092a4.917 4.917 0 0 0-.268-.253 9.255 9.255 0 0 1-.524-.49l-.097-.097-1.166-1.17.57-.012.575-.013.108-.002h.022c.185-.004.331-.006.5-.096l.093-.055a.985.985 0 0 0 .086-.052c.026-.02.05-.042.103-.092a1.29 1.29 0 0 0 .227-.77l-.003-.134v-.285a42.34 42.34 0 0 1-.006-.74l-.002-.274-.002-.126a.852.852 0 0 0-.148-.499l-.066-.08-.063-.079c-.252-.203-.538-.259-.855-.262l-.132.001h-.841c-.224 0-.446 0-.669.002l-.775.001H12.46z" fill="#95D8DE"/><path fill-rule="evenodd" clip-rule="evenodd" d="M20.423 15.05h-.127c-.406 0-.71.032-1.023.32-.276.288-.389.627-.392 1.022l.002.115a31.688 31.688 0 0 0 .002.667v.146l.001.435c.002.251.004.503.004.753l.002.871.003.527v.223c.005.305.118.598.32.825.275.254.563.378.937.381l.12-.002h.502l.193-.002.604-.001c.261-.002.523-.003.785-.003l.906-.003.548-.003h.233c.29-.002.54-.092.756-.288.266-.285.369-.542.37-.93v-.536l-.002-.295v-.617l-.003-.801v-.626l-.002-.728-.001-.131v-.238a1.071 1.071 0 0 0-.276-.704 1.38 1.38 0 0 0-.982-.386l-.118.001h-.4l-.284.001-.597.001h-.002c-.258.002-.514.003-.772.003h-.894l-.413.002zm-.815 1.465c-.002-.202-.002-.357.084-.543.194-.206.39-.238.66-.241h1.257c.231.001.463.002.695 0h1.29c.25 0 .495 0 .714.137.151.188.18.337.182.575l-.002.112v.377l-.002.269v.14c0 .14 0 .28-.002.42l-.003.73-.002.841-.002.391-.001.12v.215a.592.592 0 0 1-.168.45 1.113 1.113 0 0 1-.566.137h-3.28c-.254.001-.45-.006-.672-.137-.16-.17-.18-.311-.184-.534l.001-.113v-3.346z" fill="#95D8DE"/><path d="M27.132 15.102c.104.035.147.059.205.152a.738.738 0 0 1 .047.302l.001.128v.137l.004.288.003.454c0 .146.002.292.004.438v.137l.001.128v.112c.021.129.06.203.138.306a.569.569 0 0 0 .34.091l.108.001h.241l.69.002h.593l.76.001h.584l.28.001h.391l.117.001c.197-.002.337-.005.494-.137.09-.133.091-.173.092-.328l.001-.127v-.139l.004-.288.003-.455a80 80 0 0 1 .004-.439v-.137l.001-.129v-.113a.625.625 0 0 1 .138-.306c.141-.094.196-.1.363-.08.108.072.183.124.242.242.004.07.006.142.007.214l.002.136.003.618a61.29 61.29 0 0 1 .005.795l.002.146c-.001.384-.085.687-.35.973-.282.244-.577.293-.94.284h-.128l-.32-.006-.082-.001-.274-.003a53.112 53.112 0 0 1-.668-.01l.001.102a186.488 186.488 0 0 1 .011 1.434c.002.157.003.313.003.47l.002.18.001.25.001.145c-.023.147-.064.194-.18.283a.882.882 0 0 1-.09.019.77.77 0 0 1-.092.002h-.092c-.126-.03-.17-.08-.25-.182a1.555 1.555 0 0 1-.017-.117 1.72 1.72 0 0 1-.002-.15v-.08l.002-.259v-.001l.001-.181c0-.159.002-.317.004-.476l.002-.364.001-.122.008-.953-.077.001c-.268.004-.535.006-.802.008l-.298.003a17.39 17.39 0 0 1-.323.003l-.107.001-.134.002c-.357 0-.619-.086-.881-.34-.27-.353-.295-.707-.295-1.138v-.435l-.001-.337-.001-.112v-.286l-.001-.136v-.236a.62.62 0 0 1 .136-.306c.141-.094.198-.094.364-.08zM3.66 15.015h-.161c-.259.001-.343.027-.491.249-.012.127-.017.207.04.322.111.11.177.158.333.181l.151-.001.262-.001.187-.002.49-.003.381-.003.128-.001c.329-.002.658-.004.988-.008h.106l-.004 3.851v.455l-.001.434v.45c0 .072 0 .144.005.215.04.081.04.081.123.149.17.076.26.056.441.013a.39.39 0 0 0 .136-.266v-.41c0-.168 0-.336-.002-.504v-.451l-.003-.853a841.18 841.18 0 0 0-.009-3v-.083l2.008.003.463.001h.084c.09 0 .18 0 .268-.004.118-.06.17-.133.242-.242.013-.128.018-.208-.04-.323-.108-.105-.175-.157-.325-.181h-.572l-.496.001-.528.002c-.295 0-.589 0-.884.002l-1.143.002-.99.002c-.275 0-.55.001-.824.003H3.66z" fill="#95D8DE"/></svg>