<svg width="36" height="36" fill="none" xmlns="http://www.w3.org/2000/svg"><circle cx="18" cy="18" r="18" fill="#fff"/><path fill-rule="evenodd" clip-rule="evenodd" d="m5 23.967 4.486 2.579L16.04 15.17h4.325V10h-5.81c-.93 0-1.782.498-2.24 1.3L5 23.966zm17.9-12.668A2.598 2.598 0 0 1 25.154 10H31v5.17h-4.352l-5.844 10.082a2.6 2.6 0 0 1-2.25 1.294h-5.872v-5.171h4.364L22.9 11.299zM5.59 10v5.318A5.317 5.317 0 0 0 10.91 10H5.59zM31 20.932a2.66 2.66 0 1 1-5.318 0 2.66 2.66 0 0 1 5.318 0z" fill="#1A5AFF"/></svg>