<svg width="36" height="36" fill="none" xmlns="http://www.w3.org/2000/svg"><circle cx="18" cy="18" r="18" fill="#fff"/><path fill-rule="evenodd" clip-rule="evenodd" d="m27.99 3.026-8.946 14.212a.5.5 0 0 0 .423.767h8.903a.5.5 0 0 1 .43.755L18.567 36c9.678-.3 17.431-8.242 17.431-17.996 0-6.246-3.18-11.75-8.008-14.978zM18.556.008l-10.784 17.8a.5.5 0 0 0 .427.76h8.36a.5.5 0 0 1 .43.754L8.652 33.394C3.464 30.234 0 24.524 0 18.004 0 8.061 8.058 0 17.999 0c.186 0 .372.003.557.008z" fill="url(#a)"/><defs><linearGradient id="a" x1="17.999" y1="0" x2="29.817" y2="36.007" gradientUnits="userSpaceOnUse"><stop stop-color="#00FFD5"/><stop offset="1" stop-color="#0000D5"/></linearGradient></defs></svg>