<svg width="36" height="36" fill="none" xmlns="http://www.w3.org/2000/svg"><circle cx="18" cy="18" r="18" fill="#3375BB"/><path fill-rule="evenodd" clip-rule="evenodd" d="M27.713 8.86a1.3 1.3 0 0 1 .916.384c.24.247.377.581.37.921-.061 3.687-.203 6.507-.47 8.74-.259 2.232-.649 3.89-1.236 5.232a8.28 8.28 0 0 1-1.46 2.27c-.773.835-1.657 1.441-2.622 2.016-.413.247-.842.49-1.291.746-.96.545-2.016 1.145-3.212 1.945a1.28 1.28 0 0 1-1.428 0c-1.215-.81-2.284-1.417-3.253-1.966l-.632-.36c-1.131-.655-2.152-1.28-3.043-2.183a7.76 7.76 0 0 1-1.515-2.177c-.557-1.15-.934-2.542-1.212-4.342-.371-2.406-.557-5.554-.625-9.92-.006-.34.124-.675.365-.922.241-.241.575-.384.922-.384h.532c1.638.007 5.257-.154 8.386-2.59a1.29 1.29 0 0 1 1.577 0c3.13 2.436 6.748 2.597 8.393 2.59h.538zm-2.876 14.455c.402-.83.736-1.973.99-3.619.303-1.966.489-4.638.575-8.275-1.93-.056-5.245-.427-8.405-2.554-3.16 2.121-6.476 2.492-8.4 2.554.069 3.006.205 5.344.421 7.18.248 2.091.6 3.508 1.04 4.503.29.662.612 1.138.995 1.559.514.563 1.163 1.027 2.047 1.558.367.22.772.45 1.212.699.785.444 1.683.952 2.685 1.59.984-.628 1.869-1.13 2.644-1.571.234-.133.458-.26.671-.384 1.088-.624 1.893-1.144 2.492-1.75a5.47 5.47 0 0 0 1.033-1.49z" fill="#fff"/></svg>