<svg width="36" height="36" viewBox="0 0 36 36" xmlns="http://www.w3.org/2000/svg"><g fill="none" fill-rule="evenodd"><path d="M18 .5C27.665.5 35.5 8.335 35.5 18S27.665 35.5 18 35.5.5 27.665.5 18 8.335.5 18 .5z" fill="#FFF"/><path d="M18 0c9.941 0 18 8.059 18 18s-8.059 18-18 18S0 27.941 0 18 8.059 0 18 0zm-4.196 14.28a.482.482 0 0 0-.475.395l-.008.087v6.476c0 .237.171.434.396.474l.087.008h1.157c.237 0 .434-.17.475-.395l.008-.087v-3.392l2.305 1.555a.482.482 0 0 0 .454.046l.086-.046 2.267-1.53v3.367c0 .237.17.434.396.474l.087.008h1.157c.237 0 .434-.17.475-.395l.007-.087v-6.45a.482.482 0 0 0-.675-.442l-.077.042-3.638 2.453a.482.482 0 0 1-.454.046l-.085-.046-3.675-2.479a.482.482 0 0 0-.27-.082zm18.714.013H24.51a.482.482 0 0 0-.474.395l-.008.087v6.463c0 .237.17.434.396.474l.086.008h1.158a.48.48 0 0 0 .474-.395l.008-.087v-4.34a.48.48 0 0 1 .396-.475l.086-.008h3.762c.237 0 .434.17.475.395l.008.087v4.34c0 .238.17.435.395.475l.087.008h1.158c.236 0 .433-.17.474-.395l.008-.087v-6.463a.482.482 0 0 0-.396-.475l-.086-.007zm-27.878 0H3.482a.482.482 0 0 0-.474.395L3 14.775v6.366c0 .237.17.434.396.475l.086.008h8.103c.237 0 .434-.17.475-.396l.008-.087v-6.366a.482.482 0 0 0-.396-.475l-.087-.007h-1.157a.482.482 0 0 0-.475.395l-.008.087v4.727H5.122v-4.727a.482.482 0 0 0-.395-.475l-.087-.007zm24.501 3.569h-1.157a.482.482 0 0 0-.475.395l-.007.087v1.158c0 .236.17.433.395.474l.087.008h1.157c.237 0 .434-.17.475-.396l.008-.086v-1.158a.482.482 0 0 0-.396-.475l-.087-.007z" fill="#FF4A4A"/></g></svg>