<svg xmlns="http://www.w3.org/2000/svg" width="36" height="36" viewBox="0 0 36 36"><g fill="none" fill-rule="evenodd"><circle cx="18" cy="18" r="17" fill="#FFF"/><path fill="#2775CA" fill-rule="nonzero" d="M18 0c9.941 0 18 8.059 18 18s-8.059 18-18 18S0 27.941 0 18 8.059 0 18 0zm-3.375 5.85c0-.422-.323-.66-.731-.534C8.437 7.059 4.5 12.164 4.5 18.183c0 6.033 3.938 11.123 9.394 12.867.393.127.731-.113.731-.534v-1.07c0-.28-.21-.604-.478-.702-4.317-1.575-7.397-5.71-7.397-10.561 0-4.838 3.08-8.986 7.397-10.575.267-.099.478-.422.478-.703zm7.481-.506c-.394-.127-.731.112-.731.534v1.055c0 .281.21.604.478.703 4.317 1.575 7.397 5.71 7.397 10.56 0 4.838-3.094 8.987-7.397 10.562-.295.098-.478.394-.478.703v1.055c0 .422.323.66.731.534 5.456-1.744 9.394-6.834 9.394-12.867a13.449 13.449 0 0 0-9.394-12.84zm-3.544 3.839h-1.125a.564.564 0 0 0-.562.562v1.744c-2.222.31-3.67 1.8-3.67 3.698 0 2.461 1.49 3.418 4.64 3.84 2.138.351 2.742.815 2.742 2.025 0 1.209-1.04 2.025-2.489 2.025-1.968 0-2.615-.858-2.854-1.97a.57.57 0 0 0-.549-.45h-1.28a.519.519 0 0 0-.52.605c.324 1.885 1.52 3.249 3.98 3.586v1.772c0 .31.253.563.563.563h1.125a.564.564 0 0 0 .562-.563h.014v-1.8c2.32-.365 3.811-1.983 3.811-3.98 0-2.63-1.603-3.515-4.697-3.937-2.292-.323-2.728-.858-2.728-1.926 0-1.013.773-1.73 2.264-1.73 1.35 0 2.123.478 2.447 1.56.07.24.281.409.534.409h1.182c.337 0 .59-.296.52-.62-.38-1.715-1.533-2.741-3.347-3.065V9.745a.564.564 0 0 0-.563-.562z"/></g></svg>