<svg xmlns="http://www.w3.org/2000/svg" width="36" height="36" viewBox="0 0 36 36"><g fill="none" fill-rule="evenodd"><circle cx="18" cy="18" r="17" fill="#FFF"/><path fill="#14B9F9" d="M18 0c9.941 0 18 8.059 18 18s-8.059 18-18 18S0 27.941 0 18 8.059 0 18 0zm-6.595 10h-2.98a.426.426 0 0 0-.409.54l.028.07 8.603 17.535c.538 1.095 2.053 1.138 2.669.13l.072-.13 8.693-17.715a.288.288 0 0 0-.19-.412l-.07-.008h-.37a.431.431 0 0 0-.339.165l-.041.065-6.262 12.71c-.538 1.096-2.053 1.14-2.67.132l-.071-.132-6.282-12.72a.425.425 0 0 0-.302-.223L11.405 10z"/></g></svg>