<svg width="36" height="36" fill="none" xmlns="http://www.w3.org/2000/svg"><circle cx="18" cy="18" r="18" fill="#0028BA"/><path d="m18.07 32.796 1.697-1.003a14.65 14.65 0 0 0 7.205-12.622c0-.012-.003-1.279-.034-1.732l-.111-1.646-1.713-1.132a25.248 25.248 0 0 0-5.997-2.91l-1.046-.346v21.391z" fill="#D0D7E2"/><path d="m18.07 11.405-1.046.346a25.241 25.241 0 0 0-5.998 2.91l-1.712 1.131-.112 1.646c-.03.446-.034 1.72-.034 1.732a14.65 14.65 0 0 0 7.205 12.622l1.698 1.004v-21.39z" fill="#fff"/><path d="M18.07 28.988v.043l-2.204-4.375.694-14.451 1.508-.503h.003l1.51.502.695 14.451-2.204 4.376-.002-.043z" fill="#0028BA"/><path d="M18.077 3a1.348 1.348 0 0 1 .809 2.425l.456 3.317a26.242 26.242 0 0 1 4.607 2.072l-.543.872A25.522 25.522 0 0 0 18.909 9.7l-.837-.277V3l.005.001z" fill="#EDB726"/><path d="m16.8 8.742.463-3.318A1.348 1.348 0 0 1 18.07 3v6.424l-.837.277a25.515 25.515 0 0 0-4.497 1.986l-.544-.872a26.271 26.271 0 0 1 4.607-2.073z" fill="#FFC731"/></svg>