<svg width="36" height="36" fill="none" xmlns="http://www.w3.org/2000/svg"><circle cx="18" cy="18" r="18" fill="#F89022"/><path fill-rule="evenodd" clip-rule="evenodd" d="M31 21h-2.561l-1.817-1.555-1.81 1.549h-2.165l-1.034-1.257h-3.566l.902-1.114h1.754l-1.336-1.634-4.664 5.678H12.54l1.35-1.65h-2.255l-1.218-3.416-1.21 3.39H6.922L5 15.67h1.755l1.291 3.625 1.287-3.608H11.5l1.284 3.6 1.282-3.601h1.76l-1.936 5.333.431-.527 3.956-4.815h2.178l3.292 4.017 1.584-1.362L20.318 14h2.573L31 21zm-2.54-3.22-1.208-1.035 1.205-1.027 2.438.002-2.435 2.06z" fill="#fff"/></svg>