<svg width="36" height="36" xmlns="http://www.w3.org/2000/svg"><defs><linearGradient x1="0%" y1="100%" x2="100%" y2="0%" id="a"><stop stop-color="#44004E" offset="0%"/><stop stop-color="#5200C6" offset="100%"/></linearGradient><linearGradient x1="58.249%" y1="93.479%" x2="33.059%" y2="3.65%" id="b"><stop stop-color="#FFF" offset="0%"/><stop stop-color="#FFFAFF" offset="4.93%"/><stop stop-color="#FFEAFF" offset="11.12%"/><stop stop-color="#FFD0FF" offset="18%"/><stop stop-color="#FFACFF" offset="25.36%"/><stop stop-color="#FF7EFF" offset="33.12%"/><stop stop-color="#FF46FF" offset="41.21%"/><stop stop-color="#FF05FF" offset="49.43%"/><stop stop-color="#F0F" offset="50%"/></linearGradient><linearGradient x1="73.717%" y1="24.661%" x2="23.449%" y2="101.628%" id="c"><stop stop-color="#FFF" offset="0%"/><stop stop-color="#FFFAFF" offset="4.93%"/><stop stop-color="#FFEAFF" offset="11.12%"/><stop stop-color="#FFD0FF" offset="18%"/><stop stop-color="#FFACFF" offset="25.36%"/><stop stop-color="#FF7EFF" offset="33.12%"/><stop stop-color="#FF46FF" offset="41.21%"/><stop stop-color="#FF05FF" offset="49.43%"/><stop stop-color="#F0F" offset="50%"/></linearGradient><linearGradient x1="6.958%" y1="51.573%" x2="116.688%" y2="46.802%" id="d"><stop stop-color="#FFF" offset="0%"/><stop stop-color="#FFFAFF" offset="4.93%"/><stop stop-color="#FFEAFF" offset="11.12%"/><stop stop-color="#FFD0FF" offset="18%"/><stop stop-color="#FFACFF" offset="25.36%"/><stop stop-color="#FF7EFF" offset="33.12%"/><stop stop-color="#FF46FF" offset="41.21%"/><stop stop-color="#FF05FF" offset="49.43%"/><stop stop-color="#F0F" offset="50%"/></linearGradient></defs><g fill="none" fill-rule="evenodd"><path d="M18 .5C27.665.5 35.5 8.335 35.5 18S27.665 35.5 18 35.5.5 27.665.5 18 8.335.5 18 .5z" fill="url(#a)"/><path fill="url(#b)" fill-rule="nonzero" d="M15.01 19.311v10.628l6.405.09V19.31l-3.38-4.316z"/><path fill="url(#c)" fill-rule="nonzero" d="m21.197 19.174 9.205-5.313-3.093-5.756-9.27 5.35-2.047 5.086z"/><path fill="url(#d)" fill-rule="nonzero" d="M18 13.724 8.798 8.41l-3.422 5.548 9.274 5.357 5.432-.776z"/><path d="M30.978 13.175c-.143-.566-.454-1.524-1.1-2.648-.514-.886-1.093-1.629-1.612-2.255a.743.743 0 0 0-1.282.247c-1.292 4.05-5.2 7.043-8.946 4.937l-.006-.003L8.83 8.14a.74.74 0 0 0-.889.108c-.42.405-1.094 1.154-1.745 2.279-.513.885-.865 1.762-1.148 2.523a.744.744 0 0 0 .856.987c4.155-.906 8.695.976 8.746 5.274v10.631c0 .33.218.623.537.716.563.16 1.548.37 2.845.37 1.026 0 1.96-.132 2.76-.266a.743.743 0 0 0 .426-1.235c-2.846-3.126-3.493-7.961.134-10.171l.066-.039.003-.003 9.202-5.312a.745.745 0 0 0 .355-.827z" fill="#FFF" fill-rule="nonzero"/></g></svg>