<svg width="36" height="36" fill="none" xmlns="http://www.w3.org/2000/svg"><circle cx="18" cy="18" r="18" fill="#000"/><path d="m28.545 10.444-2.115 3.29a9.444 9.444 0 0 1-12.686 12.693l-3.288 2.133a12.968 12.968 0 0 0 18.089-18.116z" fill="url(#a)"/><path d="M18.003 24.496a6.517 6.517 0 0 0 6.408-5.332 14.907 14.907 0 0 0-11.816 2.455 6.512 6.512 0 0 0 5.408 2.877z" fill="url(#b)"/><path d="M21.215 17.645c1.112 0 2.22.12 3.306.356a6.52 6.52 0 0 0-13.037 0c0 .291.02.583.062.871A14.29 14.29 0 0 0 9.1 21.14 9.443 9.443 0 0 1 22.25 9.568l3.29-2.127A12.967 12.967 0 0 0 7.562 25.705a15.712 15.712 0 0 1 2.22-3.06s1.279-1.337 2.26-2.007a15.523 15.523 0 0 1 9.173-2.993z" fill="#fff"/><defs><radialGradient id="a" cx="0" cy="0" r="1" gradientUnits="userSpaceOnUse" gradientTransform="matrix(27.6344 0 0 27.6162 27.905 4.982)"><stop offset=".1" stop-color="#26DB8D"/><stop offset=".26" stop-color="#23D29A"/><stop offset=".56" stop-color="#1ABBBB"/><stop offset=".89" stop-color="#0E9DE5"/></radialGradient><radialGradient id="b" cx="0" cy="0" r="1" gradientUnits="userSpaceOnUse" gradientTransform="matrix(48.0449 0 0 100.214 40.117 -33.557)"><stop offset=".1" stop-color="#26DB8D"/><stop offset=".26" stop-color="#23D29A"/><stop offset=".56" stop-color="#1ABBBB"/><stop offset=".89" stop-color="#0E9DE5"/></radialGradient></defs></svg>