<svg class="icon" viewBox="0 0 1024 1024" xmlns="http://www.w3.org/2000/svg" width="128" height="128"><path d="M997.55 634.173C908.063 515.813 774.352 394.732 737.4 364.79c-25.935-21.002-51.624-31.53-77.063-31.133-25.437.266-50.04 10.782-71.848 29.733-4.314 3.765-10.605 9.363-18.319 16.258-53.156 44.745-217.371 195.738-221.102 199.182-12.49 11.704-28.413 19.323-46.326 18.735-15.78-.645-33.089-7.697-50.814-24.17-12.24-11.321-68.338-55.37-133.892-129.05-40.314-45.285-73.615-85.757-73.615-85.757s-7.43 15.302-11.571 25.883c-3.461 8.834-.475 14.404 1.201 16.804 21.883 31.45 121.935 151.153 259.854 270.015 25.245 21.722 51.623 31.481 77.042 31.133 25.457-.334 50.03-10.83 71.814-29.819a1440.59 1440.59 0 0 0 18.377-16.237c53.118-44.76 152.63-135.99 199.816-179.709 10.07-9.137 17.555-16.015 21.266-19.541 12.475-11.64 28.412-19.289 46.295-18.691 15.824.686 32.46 8.495 50.875 24.163 29.457 25.2 77.268 69.44 133.871 129.078 41.602 43.83 73.346 84.856 73.708 85.282 0 0 7.751-15.759 11.864-26.562 3.352-8.848.475-13.848-1.283-16.214z" fill="#8EC31F"/><path d="M466.196 199.134c-46.168 33.74-236.277 210.33-273.595 252.546 0 0 26.774 29.539 66.915 62.77 10.387 8.916 23.023 7.118 33.867-3.918C366.572 436.913 516 305.213 536.112 289.133c56.316-47.862 121.938-52.097 182.033-7.038C864.03 391.38 993.062 563.367 1015.313 595.449c0 0 3.253-15.79 5.28-30.02.093-.792 2.813-13.582-4.505-24.32-136.847-197.632-282.464-319.584-338.37-349.99-64.007-34.88-137.862-45.759-211.522 8.015z" fill="#0085D0"/><path d="M312.245 96.014C218.36 171.892 97.423 283.563 66.73 317.198c0 0 22.88 28.457 58.832 63.648 6.898 5.912 14.233 4.338 20.302-2.1 92.89-89.695 193.557-181.193 251.918-226.399 98.56-76.161 214.077-83.575 326.735 6.452 41.96 33.566 79.179 66.754 133.57 122.753C927.62 357.349 973 420.656 1022.678 492.012c0 0-.253-19.119-5.741-44.442-.922-4.304-2.813-11.23-5.912-17.49-9.943-19.954-53.849-95.276-117.51-169.588-126.22-147.453-205.917-192.32-257.021-219.14C568.777 5.735 436.77-4.621 312.245 96.015zM565.46 836.87c46.182-33.726 236.291-210.288 273.589-252.531 0 0-26.75-29.536-66.915-62.771-10.374-8.95-23.034-7.087-33.871 3.86-73.202 73.673-222.604 205.33-242.695 221.508-56.316 47.78-121.934 52.05-182.012 6.974-145.92-109.3-274.951-281.232-297.169-313.293 0 0-3.304 15.746-5.297 29.962-.092.836-2.813 13.626 4.444 24.344C152.41 692.545 298.028 814.48 353.935 844.855c64.038 34.921 137.875 45.786 211.525-7.984z" fill="#0085D0"/><path d="M719.39 940.001c93.905-75.844 214.836-187.532 245.546-221.18 0 0-22.89-28.515-58.805-63.649-6.936-5.946-14.271-4.365-20.364 2.086-92.87 89.709-193.502 181.241-251.914 226.375-98.499 76.213-214.081 83.549-326.749-6.43-41.898-33.54-79.148-66.741-133.556-122.744C104.032 678.646 58.655 615.311 9.01 543.983c0 0-.365 18.47 5.69 44.445.997 4.284 2.844 11.27 5.912 17.39 9.994 20.099 53.87 95.386 117.508 169.702 126.266 147.452 205.953 192.327 257.054 219.122 67.7 35.625 199.718 45.998 324.216-54.64z" fill="#0085D0"/></svg>