<svg version="1.1" id="图层_1" xmlns="http://www.w3.org/2000/svg" x="0" y="0" viewBox="0 0 1667 564" style="enable-background:new 0 0 1667 564" xml:space="preserve"><style>.st0{fill:#e1251b}</style><path class="st0" d="M371.7 33.8c50.5-8 102.7-9.3 152.8 2 16.4 4 33.1 8.9 47.1 18.8 12.5 9.7 24.2 22.1 28.4 37.8 4.1 15.4 2.1 31.4.7 47-4.1 37.7-18.2 73.7-36.5 106.7-18 32.1-41.5 61.2-70 84.6-23.5 19.2-50.7 34.3-80.3 41.6-.1 56 0 112 0 167.9h-26.6c-2.3-17.2-5-34.4-10.4-50.9-2-4.9-3.6-10.7-8.1-14-2.4-.1-4 2-5.5 3.7-4.1 5.2-6.8 11.4-9.3 17.5-5.6 14.1-9.3 28.8-12.1 43.6l-.5.4h-24.5c.4-18.4.9-36.8 1.3-55.2-5 3.4-9.1 7.9-12.9 12.5-10.6 13.7-20.2 28.2-30.1 42.4h-30.4c12.9-24.4 26-48.7 38.9-73.1-7.3-2.6-14.2-7.2-17.8-14.3-5.1-9.4-4.3-20.6-1.9-30.7.1.2.4.6.6.9 1.4 8.3 3.4 17.3 9.6 23.3 5.1 4 12.2 5.5 18.5 4 13.6-25.5 27.1-51 40.7-76.5-7.6-1.9-15.5-3.3-23.1-5.5-27.6-7.6-54-18.9-79-32.7-27.1-15.1-52.9-33.1-75.2-54.8-14-13.9-26.5-29.3-36.8-46.1.4 12.9-.3 26-4.2 38.3-5 13.9-13.8 26.6-25.6 35.6-7.4 5.7-15.7 10.3-24.3 14.2-9.7 4.8-19.5 10.3-30.5 11-11.3.6-21.5-6.7-27.3-15.9-6.6-10.8-5.5-24.2-2.5-36 4.4-15.5 11.3-30.3 18.6-44.7 4.7-8.4 7.9-17.5 11.1-26.5 6.5-17.9 10.4-36.7 15.5-55 1.8-4 2.9-8.3 5.4-12 4.9-7.6 14-12.9 23.3-11.4 9.2 1.6 17.4 6.4 25.2 11.4 7 4.1 13.8 8.5 20.6 12.8 8.9-13.1 20.6-24.3 33-34.1 31.6-24.6 68-42.3 104.9-57.4 35.1-14.7 71.8-25.3 109.2-31.2M266.9 76.7c-35 14.3-69.5 31-99.9 53.7-11.7 8.9-22.9 18.9-31.6 30.9-3 3.8-4.9 8.3-6.6 12.7-.3-.1-.8-.3-1.1-.4-11.5-7.1-22.7-14.6-34.2-21.6-5.2-3.1-10.6-6-16.5-7.2-4.5-.9-9.1 1.3-11.8 4.8-2.6 2.8-3.3 6.6-4.8 9.9-4.8 18.3-9.2 36.8-15.2 54.8-3.1 10.6-7.4 20.9-12.6 30.7-5.3 10.3-10.1 20.9-14 31.7-3.1 8.4-5.5 17.5-4.3 26.5.9 6.7 5.6 12.3 11.2 15.7 4.2 2.5 9.3 2.5 13.9 1.3 9-2.4 17.1-7.3 25.6-11 9.5-4.8 18.8-10.5 26-18.5 8-9.1 14.3-20.2 15.8-32.3 1.8-12.7 1.5-25.7.4-38.5-.7-9.9-3.6-19.4-5.2-29.1 4.5 3.2 9.2 6.4 13.7 9.6 3.5 10.6 8.8 20.5 14.8 29.9 9.5 14.8 20.8 28.5 33.3 41 22 21.4 47.4 39.1 74.3 53.9 24.3 13.3 50.1 24.2 77 31.3 20.3 5.6 41.5 8.1 62.6 7.7 17.3-.7 34.5-3.8 50.8-9.7 18.7-6.7 36.2-16.6 52.1-28.6 24.4-18.4 45.3-41.3 62.2-66.7 4.2-6.8 9-13.3 12.5-20.5l.2-.1c4.7-7.4 7.8-15.6 11.6-23.4l.2-1.4c2.1-3.2 3.2-7 4.8-10.5 9.7-23.6 16.6-48.5 18.4-74 .9-12.2 2.1-24.9-2.1-36.6-3.4-9.4-10.3-16.9-17.7-23.4-2.2-1.7-4.3-3.5-6.7-4.9-16.7-9.5-35.6-14.8-54.3-18.6-.5-1.1-2.5.3-3.4-.6-16.4-2.5-32.9-4-49.5-4.4-64.9-1.3-129.9 11.2-189.9 35.9m75.3 304.9c-25.6 48.3-51.4 96.5-77 144.8h4.6c7.3-10.3 14.6-20.8 22-31 6.9-9.7 14.7-19.3 25.4-25 3.9-2.3 9-2.4 13.1-1.4-.4 19.3-.9 38.5-1.4 57.8h4c3.4-15.3 7.5-30.5 14.2-44.7 3.1-6.3 6.7-12.6 12.2-17 3.5-2.8 8.3-4.3 12.7-2.9 4.5 1.5 7.6 5.3 10 9.2 3.8 6.3 6.1 13.4 8.1 20.5 3.2 11.5 5.6 23.1 7 34.9 1.7.1 3.3.2 5 .3 0-48.8.1-97.5 0-146.3-19.2 7-40.2 4.4-59.9.8zm951-288.2h66c-3.2 10.5-6.9 20.8-10 31.3 105.4 0 210.8-.1 316.1 0-.1 13.6.1 27.3-.1 40.9-90.6-.1-181.2 0-271.8 0-19.6.2-39.3-.4-58.9.3-14.4 44.1-29.3 88-43.7 132.1 35.8-.1 71.6 0 107.5-.1 0-21.3-.1-42.6 0-63.9h66c.3 21.3-.3 42.8.3 64 60.8-.2 121.6-.1 182.4-.1v40.9h-182.6V436c-.3 21-3.6 42.7-14.5 60.9-8.7 14.6-22.6 25.6-38.3 31.8-18 7.3-37.6 9.8-56.9 10.5v-39.1c11.3-.6 23.5-2.5 32.1-10.6 5.1-4.5 7.9-10.9 9.2-17.5 2.6-12.9 1.7-26.2 1.9-39.3v-94.4c-64-.1-128 .2-192-.1 20.7-57.7 41.4-115.4 61.9-173.1h-53.6c-8.2-.2-16.6.5-24.7-.3.2-13.3 0-26.5.1-39.8l.3-.7c30.6.1 61.3 0 91.9 0 4.3-9.9 7.4-20.6 11.4-30.9zm-424.4.4h66.1c0 10.2.1 20.4-.1 30.6 8.1.8 16.5.1 24.7.3 59.6.1 119.3-.1 178.9.1-.3 13.6.3 27.3-.3 40.9-157.6-.2-315.1 0-472.7-.1v-40.8h203.3c.1-10.3.1-20.7.1-31zm-187.4 99.5h441v145.6H937.6c-.7.1-2.1.2-2.8.3.2 32.7 0 65.3.1 98-.3 19.2-3.3 38.9-12.3 56.1-7.3 14-19.2 25.3-33.3 32.3-19.8 9.9-42.2 13-64.2 13.7.2-13.1-.3-26.3.3-39.3 13-.1 27.7-3.5 35.7-14.7 6.6-10 6.9-22.6 7.3-34.2.1-36 0-71.9 0-107.9-.2-1.6.3-3.3-.3-4.9-57.7.2-115.4 0-173.1.1-4.6-.1-9.2.2-13.7-.1.1-48.3 0-96.7.1-145m64 40.9c.1 21.3-.2 42.6.1 63.9 104.4-.1 208.8-.1 313.2 0 .2-21.3 0-42.6.1-63.9-104.5-.1-208.9 0-313.4 0z"/><path class="st0" d="M721.5 380.7c22.1 0 44.2.1 66.4-.1-.1 1.6-1.3 2.9-1.9 4.4-27.6 51.5-55.3 102.9-82.7 154.5-12.5.6-25.2.1-37.8.3 15.6-44.8 31.4-89.4 47.1-134.2 3-8.2 5.5-16.7 8.9-24.9zm294 .3c22.3-.4 44.7-.1 67-.2l48.9 139.2c2.1 6.6 5 13.2 6.7 19.8-12.5-.2-25 .1-37.4-.1-28.4-52.9-56.7-105.9-85.2-158.7zm230.5-.2c22.2 0 44.4.1 66.6 0-8.3 16.6-17.5 32.7-26.1 49.1-19.5 36.5-39.2 73-58.7 109.6-12.5.8-25.2.1-37.8.3 16-45.9 32.2-91.7 48.3-137.6 2.6-7.1 4.8-14.4 7.7-21.4zm297.2 0c22.1.1 44.2 0 66.3 0 18.7 52.9 37.1 105.9 55.9 158.7-12.5.6-25.2.3-37.8.1-28.1-52.8-56.5-105.5-84.7-158.2l.3-.6z"/><path d="M477.2 56.4c8.1-6 18.2-8.7 28-10.6 1.4-.5 2.9.1 4.3-.1 18.7 3.9 37.5 9.2 54.3 18.6 2.4 1.4 4.5 3.3 6.7 4.9-2.1 4.6-6.2 7.9-10.4 10.5-10.8 6.3-23.4 8.6-35.7 9.5-15.2.6-31.1-.4-44.8-7.7-4.5-2.6-9.2-6.3-9.8-11.8-.7-5.5 3.2-10.3 7.4-13.3zM330 92.5c4.8-1.1 10.2-.2 14.2 2.8 4.6 3.4 7.7 9 7.2 14.8.5 7.4-5.1 14.1-12 16.3-5.8 2-12.7.6-17.1-3.7-3.6-3.8-6.1-9.1-5.5-14.4.6-7.4 6.1-14.1 13.2-15.8zm-8.3 74c3.1-1.5 7.4-.6 9.3 2.5 11.3 17.7 27.6 31.7 45.4 42.4 17.9 10.7 37.6 18.2 57.9 22.6 29.4 6.5 60 5 89.2-1.8 15.4-3.7 30.6-9 43.5-18.4l-.2 1.4c-3.8 7.8-7 16-11.6 23.4l-.2.1c-13.2 5.9-27.3 9.8-41.6 12.4-16.9 3.1-34.2 4.2-51.4 3.1-27.6-1.4-55.1-8-80.1-20-25-12-47.7-29.9-62.8-53.4-3.4-4.3-2.5-11.7 2.6-14.3z"/></svg>