<svg version="1.1" id="图层_1" xmlns="http://www.w3.org/2000/svg" x="0" y="0" viewBox="0 0 448 180" style="enable-background:new 0 0 448 180" xml:space="preserve"><style>.st0{fill:#231815}.st1{fill:#ff0036}</style><path class="st0" d="M120.5 136.4c.2-.1.3-.1.5-.2.1 0 .3-.1.5-.1.3 0 .6.1.9.2m-86.9.1c-.7.4-1.3 1.1-1.9 2.2-.6 1.1-1.1 2.5-1.5 4.1-.4 1.6-.8 3.5-1 5.5-.2 2.1-.4 4.3-.4 6.6 0 1.5.1 2.9.2 4.3s.3 2.7.5 4h10.1c.5-2.5.7-5.3.7-8.3 0-2.3-.1-4.5-.4-6.6-.2-2.1-.6-3.9-1-5.5s-.9-3-1.5-4.1-1.2-1.8-1.9-2.2m93.5 0c-.7.4-1.3 1.1-1.8 2.2-.6 1.1-1.1 2.5-1.5 4.1s-.8 3.5-1 5.5c-.2 2.1-.3 4.3-.3 6.6 0 1.5 0 2.9.2 4.3s.2 2.7.4 4H137c.2-1.3.3-2.6.5-4s.2-2.8.2-4.3c0-2.3-.1-4.5-.4-6.6-.2-2.1-.6-3.9-1-5.5s-.9-3-1.5-4.1c-.5-1.1-1.2-1.8-1.8-2.2"/><path class="st0" d="M37.4 136.4c2.3.1 4.4.7 6.4 1.7s3.8 2.3 5.2 4c1.5 1.7 2.6 3.6 3.5 5.8.8 2.2 1.3 4.5 1.3 6.9 0 3-.7 5.8-2 8.4h64.6c-1.3-2.6-1.9-5.4-1.9-8.4 0-2.5.4-4.8 1.3-6.9.8-2.2 2-4.1 3.5-5.8s3.2-3 5.2-4 4.1-1.6 6.4-1.7H37.4zm51.7 16.8-1.8 2.7c-.4.5-.8 1.1-1.2 1.7-.4.5-.7 1-.9 1.4l-.3.3c-.1.1-.4.2-.8.2s-.6-.1-.7-.2l-.3-.3c-.3-.4-.6-.9-1-1.4l-1.1-1.7-1.8-2.7c-.5-.6-.5-1.2-.2-1.7.4-.5 1-.7 1.9-.7h6.4c1 0 1.6.2 2 .7s.3 1.1-.2 1.7z"/><path class="st0" d="M132.8 136.4c2.3.1 4.4.7 6.4 1.7s3.7 2.3 5.2 4 2.7 3.6 3.5 5.8 1.3 4.5 1.3 6.9c0 1.5-.2 2.9-.5 4.4-.3 1.4-.8 2.7-1.5 4h15.3v-20.4h-.1v-13.3c0-1.8-.2-3.7-.3-5.9-.2-2.1-.5-4.2-1-6.2s-1.2-3.9-2.1-5.5c-.9-1.7-2-2.9-3.4-3.8-1.6-1-3.1-1.4-4.6-1.1-1.5.2-2.8.7-4.1 1.5-1.2.7-2.2 1.5-3.1 2.4-.8.9-1.4 1.5-1.7 1.9-2.1 2.5-4.2 5.1-6.4 7.7s-4.7 5-7.3 7.2c-2.7 2.2-5.6 4-8.8 5.4-3.2 1.4-6.9 2.1-10.9 2.1H59.6c-4.1 0-7.8-.7-11-2.1-3.2-1.4-6.1-3.2-8.8-5.4-2.7-2.2-5.1-4.6-7.3-7.2-2.2-2.6-4.4-5.2-6.5-7.7-.2-.2-.5-.6-.9-1.1l-1.6-1.6c-.6-.6-1.4-1.1-2.2-1.6-.8-.5-1.7-.9-2.6-1.2-.9-.3-1.9-.3-2.9-.2-1 .1-2.1.5-3.1 1.1-1.4.8-2.5 2.1-3.4 3.8-.8 1.7-1.5 3.5-2 5.5s-.8 4.1-1 6.2c-.2 2.1-.3 4.1-.3 5.9 0 .1-.1.2-.1.5v33.2h15.3c-.6-1.3-1.1-2.6-1.4-4s-.5-2.8-.5-4.4c0-2.5.4-4.8 1.3-6.9.8-2.2 2-4.1 3.5-5.8s3.2-3 5.2-4 4.1-1.6 6.4-1.7"/><path class="st0" d="M35.5 136.4c.2-.1.4-.1.5-.2.2 0 .3-.1.5-.1s.3 0 .5.1c.1 0 .3.1.4.2"/><path class="st1" d="M157.4 101.2c-3.1 0-5.6-2.5-5.6-5.6v-62c0-3.1-2.6-5.7-5.6-5.7h-124c-3.1 0-5.6 2.5-5.6 5.7v62c0 3.1-2.5 5.6-5.6 5.6s-5.7-2.5-5.7-5.6v-62c0-9.3 7.6-16.9 16.9-16.9h123.9c9.3 0 16.9 7.6 16.9 16.9v62c.1 3.1-2.4 5.6-5.6 5.6z"/><path class="st1" d="M84.2 84.3c-21.7 0-39.4-17.7-39.4-39.4 0-3.1 2.5-5.6 5.6-5.6s5.6 2.5 5.6 5.6c0 15.5 12.6 28.2 28.2 28.2s28.1-12.7 28.1-28.2c0-3.1 2.5-5.6 5.6-5.6s5.6 2.5 5.6 5.6c.1 21.7-17.6 39.4-39.3 39.4zM422.6 74h-59.1v55.3c0 12.5 6.5 20.5 20.5 20.5h58.6V93.6c0-12.2-5.7-19.6-20-19.6zm-14 11.3h8.2c10.5 0 14.2 0 14.2 13.5v7.6h-22.4V85.3zM397.5 139h-6.8c-10.5 0-15.7-1.1-15.7-13.4v-8.4h22.5V139zm0-32.6H375V85.3h22.5v21.1zm11.1 32.6v-21.8H431v21.7l-22.4.1zM322.5 29.9v11.8c11.7.3 19.1 5.7 20.8 15.1l.2 1.2-21 12.2v12.2s15.3-9.2 21.2-12.3v21.8-2l-21.2 12.3v12.2s15.4-9.2 21.3-12.3v7.2c0 26.9-21.3 28.5-21.3 28.5v12c8.8-.3 33.2-4 33.2-41.7V59.9c-.9-19.3-12.6-29.8-33.2-30zm107.8 0h-11.6v13h-31.2v-13h-11.6v13h-12.4v11.7h12.4v10.8h11.6V54.7h31.2v10.8h11.6V54.7h12.4V42.9h-12.4v-13zM251.8 41.6h47.6V29.9h-105v11.7h45.4V72H189v11.6h49.3c-1.3 6.3-10.5 41.3-49.3 54.5v11.8c23.8-4.8 45.8-25 56.6-48.7 12.3 26.6 37.3 44.2 59 48.7v-12c-39.5-13.4-50.5-49.3-51.8-54.3h51.9V71.9h-53V41.6z"/></svg>