<svg width="400pt" height="400pt" viewBox="0 0 400 400" xmlns="http://www.w3.org/2000/svg"><g fill="#fff"><path d="M0 0h400v400H0V0m174.05 16.16c5.86 1.44 11.36 4.05 17 5.97-1.63.74-3.39-.21-5.05-.33-9.85-1.97-20.14-2.07-29.88.56-2.96.88-6.19 1.53-8.5 3.78 6.15-.77 12.16-2.72 18.4-2.72 2.37.02 4.9.68 7.06-.66.62.25 1.24.5 1.87.74-1.37-.34-2.65.03-3.88.63-5.76-.05-11.55 1-16.9 3.15.5.88 1.74.9 2.54 1.42l-2.68-.4c-1.56 1.9-4.04 2.31-6.2 3.18-14.84 6.6-28.21 16.86-37.57 30.22 1.85-6 6.84-10.18 10.41-15.1 6.26-4.46 12.19-9.51 19.25-12.74 3.9-2.02 8.34-2.68 12.21-4.76 1.36-.39.56-1.85.08-2.6l-1.03 1.21c-14.85 4.43-28.58 13.06-38.1 25.38-6.22 7.82-8.9 17.58-13.77 26.16-1.43 2.44-2.02 6.09-5.27 6.73l.85 1.73c-.66.27-1.32.55-1.97.83.53-1.04 1.08-2.17.49-3.31-1.94 2.99-4.35 5.62-7.02 7.97.44 1.33-.17 2.55-.85 3.7 3.27-1.31 5.36-4.26 8.34-5.98-2.65 5.93-5.62 11.75-7.46 18.02-2.15 8.08-4.1 16.25-5.42 24.52l-.2-.16c-.46 4.57-1.15 9.12-1.72 13.68l.93.19-.98.55c-1.35 9.67-2.6 19.77-7.76 28.28-3.45 6-8.29 10.99-13.05 15.95 6.99-3.96 12.14-10.53 16.1-17.39 4.24-8.4 5.91-17.88 6.71-27.19l.89.19c-.08-4.24.37-8.45.89-12.65.06-.75.2-2.24.27-2.99.16.36.49 1.06.66 1.42-.22 4.73.06 9.47-.4 14.19-1.86 8.77-2.9 17.96-6.19 26.46-3.74 13.21-12.64 24.43-15.27 38.01-.55 5.34-.53 10.81 1.1 15.98l-1.1-2.03c-2.88 4.45 2.1 8.69 3.07 12.98 3.54 7.81 6.05 16.49 4.33 25.11 3.16-3.68 2.41-8.79 1.81-13.2-.58-5.28-3.39-9.9-5.04-14.86 2.98 6.08 5.38 12.45 7.27 18.95 2.12 9.39-6.22 16.19-13.07 20.9 7.14-3.08 11.91-9.54 16.18-15.76 1.73-4.34 1.14-9.21 1.05-13.79-.08-8.58-4.49-16.55-3.79-25.2-.16-4.78 1.92-9.16 2.37-13.82.12.36.35 1.09.46 1.46l1.4-.47c-1.56 1.29-1.55 3.81.48 4.66.72 8.93 3.43 17.77 8.43 25.25 3.18 5.13 7.83 9.36 9.96 15.12 1.89 4.79 1.78 9.85 1.8 14.92-1.44 6.49-3.5 13.17-8.51 17.84 4.88-2.16 6.89-7.72 8.3-12.49.91-4.17 2.69-8.48 1.85-12.79.12-.31.36-.92.47-1.23.75-2.9.09-5.87-.9-8.61-3.27-8.53-9.5-15.47-13.16-23.8-1.65-3.56-2.07-7.51-3.35-11.2-.01 4.22 1.48 8.21 2.88 12.12 3.63 9.45 11.41 16.97 13.39 27.11-.32.31-.96.94-1.28 1.25-.39-1.59.2-3.8-1.7-4.59-1-4.27-3.82-7.78-6.19-11.38-5.58-8.49-9.35-18.28-10.11-28.46.01-1.38.05-2.76.11-4.13 2.24 3.69 4.01 7.7 6.93 10.95l-.25-.02c4.57 6.28 11.48 10.27 16.18 16.41a4.5 4.5 0 0 0 2.23 1.53c-.29 1.31.04 2.31.98 3.01 1.35 6.22 1.55 13.02-2.3 18.46 2.42-.82 3.38-3.29 4.66-5.27 3.85-6.07 3.19-13.9.81-20.4-3.09-7.65-9.4-13.28-14.03-19.95-.95-1.23-1.53-2.87-3.09-3.49 2.06 5.51 6.99 9.3 9.27 14.66-5.71-5.67-10.82-12.08-13.64-19.7 1.77 1.55 3.37 3.28 5.06 4.91-.38-3.15-3.36-4.96-4.23-7.89-.82-2.19-.52-4.57-.58-6.85l-1.56-.82c.52.08 1.56.23 2.08.31.64-2.49 1.28-5.02 2.46-7.33l1.54-.24c-.98 3.36-3.39 6.32-3.36 9.93-.38 7.36 7.45 13.26 14.44 12.22-5.64-1.12-12.42-4.7-12.39-11.3-.47-2.85 1.48-5.18 3.58-6.78.67-.42 1.36-.79 2.07-1.13 1.75.94 3.75.79 5.65.78l1.72-1.76c-1.59 16.38 2.64 33 11.12 47.02 4.28 6.18 8.63 12.35 13.77 17.86.25 7.03-.37 14.08-1.26 21.05-1.23 7.46-1.95 15.41-6.4 21.8-2.97 3.99-6.44 7.61-10.17 10.89-7.52 5.93-16.4 9.69-24.78 14.18-2.64-.13-4.31-3.44-6.92-3.14-3.92 3.31-5.47 8.34-8.7 12.12l-.56-.32c-2.63.85-5.2 1.9-7.74 2.99-1.98.57-3.92 1.26-5.9 1.85.07.43.22 1.3.29 1.74 3.05 1.17 4.63 4.27 7.13 6.22 1.01.22 1.89.72 2.62 1.5.12 2.39 2.58 3.32 4.08 4.78 3.54 2.74 6.18 6.8 10.58 8.27 1.51 2.73 4.71 3.54 7.15 5.17 21.71 14.77 46.36 25.17 72.09 30.42 18.37 3.63 37.33 5.25 55.98 3 2.34-.35 5.19.54 7.11-1.15 1.95.21 3.93.22 5.86-.23 8.13-1.64 16.41-2.8 24.19-5.82.7-.21 2.1-.63 2.8-.85 2.98-.06 6.6-.92 8.63-3.22 1.56.43 2.98-.52 4.4-1.01 11.31-4.58 22.3-10.04 32.76-16.32 9.12-5.97 18.43-11.94 26.07-19.76 1.27-.35 2.36-1.09 3.24-2.06 3.74-3.82 7.5-7.61 11.33-11.32l.01-.31c2.4-1.9 3.92-4.61 5.56-7.13l1.48-.09c-.23-1.95 1.35-3.19 2.24-4.7 2.96-.05 3.85-3.79 5.45-5.78 2.04-2.75 4.11-5.44 5.35-8.7.48-.24 1.45-.73 1.93-.97l-.08-1.92c2.94-.88 3.73-4.21 4.73-6.74 2.01-3.41 3.54-7.08 5.65-10.44l-.7-1.01 1.17.57c1.98-3.72 4.02-7.46 5.08-11.56-1.45-1.72-3.62-2.57-5.52-3.64-4.38-1.96-8.84-4.47-13.82-3.96-5.76-.16-11.43.94-16.99 2.29-4.58-4.9-9.75-9.51-16.06-11.99-7.1-2.1-14.61-2.11-21.92-1.52-10.11-.12-20.13 1.25-30.21 1.6-2.16.04-4.32.04-6.47-.04 2.19-6.63 2.18-14 .22-20.68.35 6.01 0 12.09-1.5 17.94-.48 1.38-.68 3.32-2.57 3.54.04-7.01 2.12-14.03 1.38-21.01 1.29-3.45.64-7.23.49-10.82 4.76-1.34 9.78-1.78 14.64-2.77 8.92-1.66 18.03-1.39 27.06-1.4 5.76.1 10.77 3.11 15.85 5.48 7.26 3.54 15.08 5.83 22.96 7.54 7.33 1.82 14.88.21 22.31.88 7.39.34 14.46 3.1 21.84 3.38-.16-.41-.5-1.24-.67-1.65 2.41-3.69 1.73-8.29 2.79-12.39 2.07-11.8 2.07-23.81 1.8-35.75-.21-1.21-.57-2.37-1.09-3.49l.86.25c-1.22-3.09-3.57-5.47-5.36-8.2-2.69-4.63-7.69-7.02-11.87-10.05-6.85-4.7-15.33-5.6-23.41-5.89-2.27-2.7-3.95-6.12-7.11-7.9-3.21-.8-6.57.13-9.38 1.72-2.67-2.37-4.76-6.15-8.5-6.74-5.8.87-12.17 2.67-15.65 7.8-2.83 3.72-2.41 8.63-4.17 12.77-.81.02-2.42.04-3.22.06l-.66-.61c-.58-.22-1.72-.65-2.29-.87-9.15-7.05-18.56-13.76-27.85-20.6-.54-7.44-.09-14.9-.46-22.34 2.35 1.64 1.94 5.93 5.1 6.95-2.78-5.88-3.83-12.32-3.86-18.78l-1.63.37c.5-.23 1.49-.69 1.98-.92-.88-6.86.05-13.93-1.75-20.67-.07 5.83.17 11.66.23 17.5l-1.54-.74c-1.45-8.25-1.87-17.07-3.67-25 .1-1.85-.23-3.69-.77-5.45-1.12-6.02-4.33-11.28-7.46-16.44l-.65-.46c-.1-1.41-.57-2.75-2.13-3.04.3-1.59-.62-2.75-1.81-3.66l-.12-.22c-.91-2.5-2.98-4.59-4.97-6.23-8.67-10.22-20.38-17.88-33.27-21.6.23-.12.69-.35.93-.47 1.13.68 2.54.62 3.8.95 8.17 1.5 15.56 5.49 22.64 9.68-4.08-4.41-9.71-6.81-15-9.41-3.7-1.55-7.56-3.04-11.62-3.17-4.07-1.69-8.6-.54-12.85-.48 3.55-2.88 8.26-3.21 12.63-3.54-7.39-2.45-15.21 1.34-20.67 6.24-1.71-2.6-4.04-4.68-6.76-6.18-3.03-1.63-6.14-3.13-9.44-4.12-3.26-.69-6.68-1.89-10-.85M93.77 84.51l-1.52.76c1.08-.07 2.16-.12 3.24-.17 4.79-12.08 7.17-25.46 15.42-35.89-9.12 9.83-11.13 23.71-17.14 35.3m-34.6 121.62c-1.51 6.01-.87 12.42.49 18.41l-.48 1.76c.85-.36 1.7-.72 2.54-1.1-3.86-11.43-2.16-24.22 2.99-34.97-2.78 4.88-5.29 10.21-5.54 15.9m16.8 5.84c-.28 4.37-.99 8.77-.52 13.17.52 5.65 2.47 11.01 4.33 16.33 1.43 3.62.95 7.58 1.26 11.38.44-4.33.6-8.8-.91-12.96-2.7-8.22-3.85-16.96-2.56-25.56-.53-.79-1.06-1.58-1.6-2.36z"/><path d="M108.57 159.74c.14-.13.41-.4.54-.54.63 3.52 1.62 6.97 2.19 10.5-1.19 7.92-.61 15.99-.24 23.96.07 3.06.16 6.13.53 9.18.24 2.72.48 5.47 1.4 8.06 3.93 11.97 8.06 24.2 15.84 34.3 4.28 6.1 9.88 11.08 14.44 16.95l-1.34.22c-6.46-5.02-11.14-11.82-16.5-17.92-4.77-6.4-9.67-12.85-12.55-20.38-5.69-12.19-6.89-25.96-6.01-39.23.14-1.4.24-2.79.29-4.18.23-7 1.72-13.9 1.41-20.92zm162.91 7.72c.44-.67.9-1.34 1.36-2 2.25 3.02 5.57 4.89 8.32 7.4 3.5 3.15 7.08 6.23 10.47 9.52 2.66 2.54 4.65 5.72 7.62 7.95-1 2.19-1.93 4.53-3.76 6.19-3.93 3.9-9.71 4.73-14.15 7.87-.58 0-1.15.02-1.71.06-3.8.47-7.41 1.79-11.13 2.63.05-2.31.09-4.62.1-6.93 1.89 1.91 4.23 3.24 7 3.11-1.5-1.94-2.92-3.94-4.04-6.13.75-5.54 3.1-10.64 4.28-16.04.13-2.62.32-7.89-3.41-7.64-.06-2.03-.25-4.07-.95-5.99z"/></g><g fill="#1f0a07"><path d="M174.05 16.16c3.32-1.04 6.74.16 10 .85 3.3.99 6.41 2.49 9.44 4.12l-2.44 1c-5.64-1.92-11.14-4.53-17-5.97zm34.87 9.39c4.06-.41 8.14-.43 12.22-.46 4.06.13 7.92 1.62 11.62 3.17 5.29 2.6 10.92 5 15 9.41-7.08-4.19-14.47-8.18-22.64-9.68-1.26-.33-2.67-.27-3.8-.95-3.7-2.36-8.29-.99-12.4-1.49zm33.71 19.47c.43-.53.86-1.07 1.3-1.61 4.14 3.92 8.48 7.64 12.27 11.92 1.98 2.47 3.8 5.17 6.49 6.93l.65.46c3.13 5.16 6.34 10.42 7.46 16.44.54 1.76.87 3.6.77 5.45l-1.68.42c-.57-7.23-3.34-14.25-7.7-20.03a95.984 95.984 0 0 0-19.56-19.98zm-97.82 28.93 2.79 2.25c-1.35 1.45-2.9 2.68-4.58 3.72-.32-.57-.98-1.7-1.3-2.27 1.3-.98 2.33-2.26 3.09-3.7zm4.24 2.16c.79.98 1.57 1.96 2.36 2.95-1.01.87-2.06 1.7-3.16 2.45-.9-.24-2.69-.71-3.58-.94 1.86-1.03 3.56-2.43 4.38-4.46zm116.07 64.76 1.64.08c1.73 1.51 3.39 3.09 5.21 4.51.21-1.82.42-3.62.65-5.43.26.56.79 1.67 1.05 2.23-.66 2.15.15 3.99 2.15 4.99.33.25 1.01.74 1.35.99 9.29 6.84 18.7 13.55 27.85 20.6-3.93-1.45-7.42-3.8-10.81-6.2-10.33-6.34-20.54-13.11-29.09-21.77zm-186.09 6.85.98-.55 1.02.2c-.8 9.31-2.47 18.79-6.71 27.19-3.96 6.86-9.11 13.43-16.1 17.39 4.76-4.96 9.6-9.95 13.05-15.95 5.16-8.51 6.41-18.61 7.76-28.28zm93.03 14.31c.51-2.26 1.01-4.53 1.76-6.73.69 2.37.6 4.85.49 7.29 5.62-.15 11.17 1.37 15.91 4.39 1.35-1.64 2-3.76 3.44-5.33 2.23-2 5.26-2.78 8.17-3 .51-.03 1.54-.08 2.05-.1-2.04.46-4.13.87-5.98 1.9-.73.43-2.19 1.29-2.92 1.71.92 1.02 1.85 2.04 2.84 3.01-.2.49-.59 1.46-.78 1.95-.74-1.48-1.43-2.99-2.14-4.48-4.25 6.89-2.62 15.49-1.19 22.99.3 2.45.74 4.89.91 7.36 0 .53.02 1.6.02 2.13-3.11-6.25-4.05-13.26-4.8-20.13-.29-1.83.13-3.64.52-5.41-4.53-3.95-10.7-5.15-16.53-5.35-2.31 5.77-6 10.85-10.25 15.34-1.98 2.04-3.9 4.27-6.53 5.5 1.17-1.72 2.35-3.43 3.56-5.11 2.95-3.88 6.2-7.55 8.75-11.73 1.25-1.89 2.19-3.99 2.7-6.2z"/><path d="M175.84 160.37c2-1.91 5.16-.91 7.59-.56 2.28.84 5.92 1.23 6.01 4.35-4.5-1.39-8.95-2.96-13.6-3.79zM59.17 206.13c.25-5.69 2.76-11.02 5.54-15.9-5.15 10.75-6.85 23.54-2.99 34.97-.84.38-1.69.74-2.54 1.1l.48-1.76c-1.36-5.99-2-12.4-.49-18.41zm141.97-9.08c2.32 1.04 4.64 2.07 6.89 3.25 2.86 1.56 5.75 3.09 8.86 4.13 4.95 2 10.27 2.93 15.6 2.91.13.25.39.73.53.98-7.82 1.13-15.6-.99-22.39-4.83-3.21-2.03-7.33-3.09-9.49-6.44zM78.4 212.91l1.88-.94c.76 10.18 4.53 19.97 10.11 28.46 2.37 3.6 5.19 7.11 6.19 11.38.06.37.16 1.11.21 1.47-2.13-5.76-6.78-9.99-9.96-15.12-5-7.48-7.71-16.32-8.43-25.25zm143.88 17.96c3.81-.48 7.67-.29 11.46-.84-.21.91-.42 1.81-.62 2.73l-.18-.91c-3.2 1.84-2.26 5.82-3.38 8.79-1.33 3.8-3.89 6.99-5.88 10.44-.64.12-1.91.38-2.54.51 2.88-4.43 6.49-8.61 7.81-13.85-4.08 4.56-7.24 9.95-12.07 13.82-.33-.36-.99-1.09-1.32-1.45 1.84-1.57 3.46-3.38 4.92-5.3 3.73-4.08 6.79-8.72 9.7-13.4-2.64-.05-5.29-.04-7.9-.54zM74.94 258.68c3.29-3.18-.15-8.71 2.54-12.4.09 4.58.68 9.45-1.05 13.79-4.27 6.22-9.04 12.68-16.18 15.76 6.85-4.71 15.19-11.51 13.07-20.9.3-.14.91-.42 1.21-.56.12 1.43.26 2.87.41 4.31z"/></g><path d="M200.25 27.31c5.46-4.9 13.28-8.69 20.67-6.24-4.37.33-9.08.66-12.63 3.54 4.25-.06 8.78-1.21 12.85.48-4.08.03-8.16.05-12.22.46 4.11.5 8.7-.87 12.4 1.49-.24.12-.7.35-.93.47 12.89 3.72 24.6 11.38 33.27 21.6l-1.9.05c-4.88-5.08-10.8-8.97-16.82-12.55 2.42 1.85 4.91 3.64 7.36 5.46.05 1.15.11 2.3.18 3.44 6.91 5.12 12.19 12.07 17.04 19.08 4.24 7.59 8.58 15.46 10.45 24l.35-.12c-.15-1.15-.3-2.3-.43-3.44l1.68-.42c1.8 7.93 2.22 16.75 3.67 25l1.54.74c-.06-5.84-.3-11.67-.23-17.5 1.8 6.74.87 13.81 1.75 20.67-.49.23-1.48.69-1.98.92l1.63-.37c.03 6.46 1.08 12.9 3.86 18.78-3.16-1.02-2.75-5.31-5.1-6.95.37 7.44-.08 14.9.46 22.34-.34-.25-1.02-.74-1.35-.99-1.41-9.48-.74-19.05-1.28-28.57-1.21 7.83.85 15.84-.87 23.58-.26-.56-.79-1.67-1.05-2.23-.23 1.81-.44 3.61-.65 5.43-1.82-1.42-3.48-3-5.21-4.51l-1.64-.08c-4.21-3.14-8.16-6.58-12.09-10.04-2.48-1.93-5.26-4.11-8.61-3.56-.77-2.39-1.31-4.84-1.67-7.32-1.43 5.01-1.26 10.19-.08 15.23l.1.48c-.45.39-1.36 1.18-1.82 1.57-.3 1.72.43 3.36.94 4.96 2.09 5.92 2.68 12.34 5.67 17.93-.09-1.51-.19-3.03-.3-4.54.97-3.94-.31-8.2 1.58-11.93 5.4 5.49 11.79 9.86 17.43 15.1 2.19 2.04 4.41 4.08 6.89 5.79-.99.26-1.98.52-2.96.79.32.53.96 1.6 1.28 2.13.7 1.92.89 3.96.95 5.99 3.73-.25 3.54 5.02 3.41 7.64-1.18 5.4-3.53 10.5-4.28 16.04 1.12 2.19 2.54 4.19 4.04 6.13-2.77.13-5.11-1.2-7-3.11-.01 2.31-.05 4.62-.1 6.93 3.72-.84 7.33-2.16 11.13-2.63-.98.84-1.97 1.65-3 2.42-8.74 3.1-17.78 5.26-26.86 7.07-.96 0-1.9.01-2.85.01.92-.85 1.8-1.75 2.63-2.69-1.31.28-2.62.59-3.92.92l.54-.83a16.63 16.63 0 0 0 1.93-3.95c.56.77 1.13 1.53 1.7 2.3 1.15-2.13 2.1-4.35 2.98-6.6-.91.72-1.47 2.22-2.61 2.45-1.17-2.61 3.96-4.86 1.47-7.06-.37-.38-1.13-1.14-1.5-1.52-1.24-1.26-2.42.99-3.3 1.68-.13.42-.4 1.25-.53 1.67l-.95-1.85c2.29-3.12 4.65-6.28 6.12-9.89.53-2.84-.17-5.73-.48-8.57-1.64 2.46-3.28 4.93-5.1 7.26l-.8-.18c1.17-2.49 2.36-5 2.99-7.69.08-.34.24-1.02.32-1.37.14-1.21.23-2.42.34-3.63l-2.51-2.21c-2.37-2.26-5.09-4.14-8.13-5.37.42 1.56.35 3.73 2.47 3.86-.24.32-.73.95-.97 1.27l.3.8c.06.76.17 2.27.23 3.03-.52-.4-1.57-1.21-2.09-1.62-1.17.43-2.33.86-3.49 1.3 1.53 1.95 3.87 2.81 6.05 3.82l.66.53c-.82.14-2.47.41-3.29.55 1.21 1.09 2.42 2.18 3.65 3.25.51.43 1.52 1.3 2.02 1.73-2.76.02-5.56-.37-8.3.07-2.91.97-5.71 2.62-8.89 2.12 2.18-1.28 4.39-2.59 6.17-4.42.22-.31.67-.92.89-1.23-1.52-3.56-3.76-6.85-6.88-9.2-.65-.52-1.31-1.03-1.97-1.53 3.11 5.98-1 13.78-7.41 15.26-.5.52-.99 1.04-1.47 1.59l-2.47-.72c-.73.65-1.43 1.32-2.12 2l2.7.08c-.79.18-1.57.37-2.34.59l-.36.17c-1.02.55-2.04 1.11-3.06 1.67.81-1.3 1.75-2.52 3.1-3.3-.02-.5-.07-1.49-.09-1.99-1.85-.79-3.67-1.64-5.53-2.4-1-.97-1.96-1.97-2.94-2.95 1.26.63 2.53 1.26 3.81 1.86-2.97-4.22-2.79-9.91.13-14.09-3.46 2.29-6.55 5.06-9.64 7.81 1.97 1.1 3.75 2.48 5.33 4.1-2.28-.91-4.56-1.81-6.85-2.67-.15-.51-.44-1.53-.58-2.04 2.15-2.12 4.36-4.2 6.71-6.1-1.59-.85-3.18-1.72-4.55-2.9.19-.49.58-1.46.78-1.95 1.64.72 3.29 2.72 5.19 1.93-.87-2.11-2.11-4.04-3.37-5.93.41.18 1.24.53 1.65.71.94 1.38 1.77 2.86 3 4.01 1.11-.06 2.2-.27 3.3-.46 8.35-2.08 17.59-.48 24.57 4.61 1.06-.29 2.13-.57 3.19-.86-.79-2.56-2.63-4.48-4.38-6.41-2.42-3.86-3.67-9.59-8.8-10.57 1.72 4.35 4.91 7.7 8.3 10.81l-2.28-.55c-2.5-.87-4.91-1.96-7.2-3.28-3.1-3.03-5.7-6.58-9.06-9.32 1.07 4.37 5.32 6.57 8.13 9.7-2.47-.89-4.81-2.11-6.83-3.78-1.7-1.67-3.22-3.51-4.76-5.32-.32-.37-.98-1.1-1.3-1.47l-1.96 1.04c-.62-.45-1.24-.89-1.86-1.33.13-.34.38-1.02.51-1.36.33.49.79.81 1.36.97l.56.16c.56.18 1.7.53 2.26.71l-.69-3.03c.76-1.75.36-3.64-.33-5.34l1.04.7c.71 2.06 1.47 4.1 2.23 6.15.3-.15.9-.46 1.2-.61-1.25-2.49-2.17-5.14-2.79-7.85-.16-.7-.34-1.38-.53-2.07-2.29-5.48-1.39-11.46-2.3-17.19-.87 4.4-.89 8.9-.48 13.35l-1.84-.03c-.8-9.78 2.23-19.38.87-29.16-.15.68-.47 2.05-.63 2.73l-1.69-1.09c1.38-7.8.26-15.96-3.65-22.89.13 5.17-.47 10.39-2.34 15.24-.73 2-1.53 3.97-2.33 5.95-.75.08-2.25.26-3 .34l-.77.11c-.14-1.35-.37-2.68-.68-3.99 3.17-7.76 3.35-16.76.24-24.57.32 13.93-3.1 28.22-11.46 39.54-2.22 2.64-4.9 4.84-7.1 7.5-.97.29-2.92.87-3.89 1.15 6.62-5.77 12.99-12.44 15.75-20.99-5.59 8.15-11.83 16.18-20.32 21.5-1.75 1.26-4.43 2-4.46 4.6-1.77.96-4.19 1.19-5.43 2.84 2.08 1.02 4.28 1.8 6.44 2.67.74.32 1.48.66 2.21 1.04.49.31 1.47.93 1.95 1.24.48.43 1.43 1.28 1.9 1.71-.31.35-.95 1.06-1.26 1.41l-1.39-.48-3.09-1.16c-.06 2.2-.11 4.42-.22 6.63-.71-2.29-.77-4.69-.67-7.07-2.53-.76-5.05-1.59-7.65-2.1-1.56-.22-3.12-.39-4.67-.6.48.3 1.45.9 1.93 1.2-1.17 1.17-2.33 2.35-3.48 3.54 2.87 1.01 5.74 2.03 8.55 3.2-3.93-1.57-8.14-1.76-12.3-2.11 1.52-1.86 3.09-3.69 4.25-5.81l-1.16.08c-2.27-.07-4.54-.3-6.77-.76.4-.41 1.21-1.24 1.61-1.66-2.51 1.18-4.98 2.47-7.18 4.17-.14.64-.4 1.92-.54 2.56-.21.3-.63.88-.84 1.18-.29-1.41-3.63-.69-3.27.42-.13 1.68 1.83 1.3 2.9 1.58-.89.72-1.77 1.45-2.65 2.19 1.74.8 3.47 1.63 5.25 2.35-.35-1.24-.71-2.46-1.09-3.68 1.02 1.01 1.81 2.82 3.55 2.51 6.68-.35 13.71 1.02 19.14 5.11-.34.64-1.03 1.9-1.37 2.54.62 2.17 1.41 4.31 1.78 6.55-.69 3.89-3.19 6.92-6.18 9.33l2.18.6c-4.39.74-8.85.28-13.16-.71-2.4-1.17-4.56-2.77-6.51-4.58-3.11.07-6.24.31-9.18 1.39-.22-.07-.67-.22-.89-.29 1.1-.71 2.21-1.42 3.31-2.14l5.27.48c-1.86-2.15-3.47-4.52-5.55-6.46-2.57-1.5-5.37-2.64-7.62-4.64 1.03.11 3.1.34 4.14.45-.45-.74-1.34-2.22-1.79-2.96-1.12-1.75-2.26-3.49-3.31-5.28 2.6 2.1 5.06 4.63 8.6 4.97-.47-1.31-.95-2.61-1.44-3.91.76.79 1.52 1.57 2.28 2.35.8-.38 2.41-1.13 3.21-1.51-1.09-2.28-2.12-4.6-2.99-6.98-4.1.93-8.26 1.96-11.73 4.46-2.21 1.96-2.73 5.09-2.61 7.91.28 5.99 1.76 11.84 2.22 17.82-.37-.28-1.1-.84-1.47-1.12-.57-3.53-1.56-6.98-2.19-10.5-.13.14-.4.41-.54.54-.35.36-1.06 1.07-1.41 1.43-.37 4.96-.93 9.91-1.33 14.87-.3 1.7.61 3.17 1.33 4.62-.05 1.39-.15 2.78-.29 4.18-.55.09-1.66.28-2.21.37.08-1.4.15-2.81.2-4.21-1.64 1.89-3.3 3.77-5.05 5.57h-.15c.53.2 1.58.61 2.11.82-1.52.52-3.04 1.04-4.52 1.67-.71.34-1.4.71-2.07 1.13-.76-1.68-1.1-3.48-1.39-5.28 5.79-4.96 3.37-13.31 4.27-19.95-2.62 2.18-4.65 4.87-5.26 8.29-.34-.26-1.01-.78-1.34-1.05-1.21 3.48-2.18 7.03-2.99 10.62-.51 1.95-1.05 3.88-1.63 5.81-.42 1.4-2.18 4.05-.01 4.75l1.56.82c.06 2.28-.24 4.66.58 6.85.87 2.93 3.85 4.74 4.23 7.89-1.69-1.63-3.29-3.36-5.06-4.91 2.82 7.62 7.93 14.03 13.64 19.7-2.28-5.36-7.21-9.15-9.27-14.66 1.56.62 2.14 2.26 3.09 3.49 4.63 6.67 10.94 12.3 14.03 19.95 2.38 6.5 3.04 14.33-.81 20.4-1.28 1.98-2.24 4.45-4.66 5.27 3.85-5.44 3.65-12.24 2.3-18.46-.94-.7-1.27-1.7-.98-3.01a4.5 4.5 0 0 1-2.23-1.53c.8.37 2.4 1.12 3.2 1.5-1.23-5.18-5.6-8.51-9.35-11.87-3.66-2.86-6.7-6.4-9.68-9.94.59 1.36 1.17 2.73 1.75 4.1l-1.85-.18c-2.92-3.25-4.69-7.26-6.93-10.95-.06 1.37-.1 2.75-.11 4.13l-1.88.94c-2.03-.85-2.04-3.37-.48-4.66l-1.4.47c-.11-.37-.34-1.1-.46-1.46-.45 4.66-2.53 9.04-2.37 13.82-.7 8.65 3.71 16.62 3.79 25.2-2.69 3.69.75 9.22-2.54 12.4-.15-1.44-.29-2.88-.41-4.31-.3.14-.91.42-1.21.56-1.89-6.5-4.29-12.87-7.27-18.95 1.65 4.96 4.46 9.58 5.04 14.86.6 4.41 1.35 9.52-1.81 13.2 1.72-8.62-.79-17.3-4.33-25.11-.97-4.29-5.95-8.53-3.07-12.98l1.1 2.03c-1.63-5.17-1.65-10.64-1.1-15.98 2.63-13.58 11.53-24.8 15.27-38.01 3.29-8.5 4.33-17.69 6.19-26.46l1.37-.96c.29-4.37 1.3-9.22-.97-13.23-.17-.36-.5-1.06-.66-1.42-.07.75-.21 2.24-.27 2.99L81 133.46c1.32-8.27 3.27-16.44 5.42-24.52 1.84-6.27 4.81-12.09 7.46-18.02-2.98 1.72-5.07 4.67-8.34 5.98.68-1.15 1.29-2.37.85-3.7 2.67-2.35 5.08-4.98 7.02-7.97.59 1.14.04 2.27-.49 3.31.65-.28 1.31-.56 1.97-.83l-.85-1.73c3.25-.64 3.84-4.29 5.27-6.73 4.87-8.58 7.55-18.34 13.77-26.16 9.52-12.32 23.25-20.95 38.1-25.38l1.03-1.21c.48.75 1.28 2.21-.08 2.6-3.87 2.08-8.31 2.74-12.21 4.76-7.06 3.23-12.99 8.28-19.25 12.74-3.57 4.92-8.56 9.1-10.41 15.1 9.36-13.36 22.73-23.62 37.57-30.22 2.16-.87 4.64-1.28 6.2-3.18l2.68.4c-.8-.52-2.04-.54-2.54-1.42 5.35-2.15 11.14-3.2 16.9-3.15 1.23-.6 2.51-.97 3.88-.63-.63-.24-1.25-.49-1.87-.74-2.16 1.34-4.69.68-7.06.66-6.24 0-12.25 1.95-18.4 2.72 2.31-2.25 5.54-2.9 8.5-3.78 9.74-2.63 20.03-2.53 29.88-.56 1.66.12 3.42 1.07 5.05.33l2.44-1c2.72 1.5 5.05 3.58 6.76 6.18m29.85 7.81c-.48 1.6.1 2.16 1.74 1.67.48-1.61-.1-2.17-1.74-1.67m-74.46 35.21c-.98 3.08-1.99 6.31-4.23 8.73-.79-.99-1.57-1.97-2.36-2.95l-.01-1.34c-.36.36-1.08 1.07-1.44 1.43l-2.79-2.25.32-.56c-2.06.78-3.93 2.41-4.03 4.76l.62-.5c.32.57.98 1.7 1.3 2.27.49.39 1.04.61 1.65.65.89.23 2.68.7 3.58.94-1.02.45-2.05.87-3.09 1.25.92.34 1.9 1.08 2.84.34 5.07-2.15 7.82-7.45 8.66-12.65l-1.02-.12m59.51 8.51c2.54 2.82 2.75 7.27 5.79 9.5-1.2-3.31-1.87-8.4-5.79-9.5m10.08 1.26c.49 1.9 1.32 3.7 2.76 5.07-.02-1.9-.61-4.57-2.76-5.07m-4.06 1.86c-.79 1.44 1.21 3.83 2.75 3.06.68-1.4-1.26-3.73-2.75-3.06m-58.6 14.49c-2.32 5.73-5.91 10.82-8.42 16.45 5.46-8.73 10.95-17.76 13.54-27.8-2.33 3.48-3.37 7.59-5.12 11.35m-44.39-7.2c-.5 1.4-.03 1.84 1.4 1.31.5-1.4.03-1.83-1.4-1.31m42.66 3.41c-5.66 7.33-11.93 14.21-18.74 20.48l-.02-1.21-1.37-.48c1.11-1.03 2.24-2.04 3.36-3.06-7.8 5.83-16.12 11.17-23 18.1 1.11-.8 2.23-1.57 3.39-2.3l1.97 1.38c-.31.36-.93 1.07-1.23 1.43l.56-.36.25 1.34 1.23.45c-1.75 1.06-3.54 2.07-5.28 3.15.25.08.75.22 1 .3.01.47.02 1.43.03 1.9-2.75-.22-4.12 2.1-5.14 4.24-.28.61-.83 1.84-1.11 2.45 3.2-1.01 6.51-1.68 9.86-1.98 1.73-1.84 4.16-3.02 5.69-4.96l.19.19c.27-.56.81-1.7 1.08-2.27 1.74-.84 5.6.44 5.29-2.38 3.37-3.37 7.36-6.32 9.53-10.68 3.21-5.7 6.59-11.32 9.5-17.18-.68.7-1.37 1.4-2.01 2.14l-2.06-.67c3.05-3.88 6.12-7.75 8.98-11.77-.74.49-1.39 1.07-1.95 1.75m30.35 9.35c-.05 3.32 3.08-1.35 0 0m-77.85 34.33c-1.33.77-2.45 2.71-2.05 4.24 1.56.22 3.81-3.43 2.05-4.24m109.41 12.48c-.84-3.66-2.34-7.12-3.23-10.76.29 3.54-.84 9.08 3.23 10.76m16.07-6.78c-.1 3.73.7 7.42 1.35 11.08.23 2.46 2.67 3.64 4.44 4.93-3.1-4.85-4.32-10.52-5.79-16.01m-5.77 4.6c-.14 1.86.02 3.75.92 5.42l1.93.72c-.67-2.17-1.33-4.39-2.85-6.14m-106.76 4.25c1.52.82 3.33-.91 4.25-1.9-1.34-.88-5.1-.23-4.25 1.9m-5.03 1.16c.31 3.26 3-1.52 0 0m6.05 4.55.72 3.32.14-.2c.89 1.51 1.79 3.03 2.58 4.61 2 1.34 4.05 2.61 6.18 3.74-2.46-2.99-4.09-6.74-3.26-10.67 1.01-1.99 2.17-3.9 3.47-5.72-3.68.69-7.04 2.44-9.83 4.92m-30.21 4.25c3-1.57 4.01-4.56 4.34-7.73-1.79 2.37-2.91 5.14-4.34 7.73m40.37-3.4c1.58.94 3.41.26 5.11.2-1.14-1.14-4.98-2.6-5.11-.2m98.64-.59c.74 2.76 1.26 5.75 2.99 8.08 2.9 1.81 6.08 3.28 8.57 5.68l-.11 1.31c1.32-.32 2.65-.51 3.83.36-.21-1.66-1.46-1.98-2.89-1.98-.35-3.65-1.21-8.17-5.33-9.24.81 1.73 1.78 3.38 2.68 5.07-4.61-1.52-5.06-7.91-9.74-9.28M99.48 162.6c-.12 6.05.78 12.11.08 18.16 3.16-5.81 2.14-12.61 1.01-18.82-.27.17-.81.5-1.09.66m134.97 7.52c-.58 1.57-.02 2.12 1.67 1.68.56-1.61 0-2.17-1.67-1.68m-25.28 3.59c1.4.82 3.89 1.3 5.06-.14-1.44.07-4.71-2.28-5.06.14m63.28-.19c.68 5.41-1.81 10.38-2.24 15.68-.17.38-.52 1.13-.69 1.5 2.39-3.1 3.47-7.07 4.73-10.73-.26-2.1 1.48-6.38-1.8-6.45M76.54 199.45c-2.57 3.73-4.86 7.87-5.45 12.43-.58 3.94-2.18 8-.77 11.96.16 1.54.3 3.1.42 4.66.14 0 .41.02.55.02-.39-5.89-.12-11.86 1.7-17.53.82-4.38 4.16-7.76 4.99-12.1l-1.44.56M63.19 229.4c-.64 1.39.25 4.08 1.87 4.24.55-1.38-.4-3.97-1.87-4.24m8.09 1.79c-1.25.43-1.58 2.26-.94 3.3 1.78.95 3.02-3.12.94-3.3zm162.46-1.16c10.29-1.84 20.6-3.61 30.91-5.33.95.57 1.91 1.14 2.87 1.72-.33 3.68-.96 7.48.28 11.07.74 6.98-1.34 14-1.38 21.01 1.89-.22 2.09-2.16 2.57-3.54 1.5-5.85 1.85-11.93 1.5-17.94 1.96 6.68 1.97 14.05-.22 20.68 2.15.08 4.31.08 6.47.04.33.68.99 2.05 1.33 2.74-2.85.02-5.69 0-8.54.04-2.15 4.31-4.28 8.79-7.85 12.12-2.64 2.49-5.32 4.93-7.89 7.5-1.13 1.22-3.37 2.54-2.13 4.45 2.58 6.5 3.3 13.51 4.42 20.37.9 12.08 1.82 24.21 1.01 36.33-.65 4.9-.83 9.86-2.04 14.67-.46-4.16-.49-8.35-.77-12.52.57-7.85-.96-15.65-.76-23.51-1.04-11.23-1.19-22.77-4.75-33.56-3.21-.44-3.53 4.13-4.1 6.39-.36 2.74-.29 5.51-.22 8.27l-1-.86c-.54-2.86-.36-5.79-.28-8.68-.54.13-1.64.38-2.18.51-.4 2.87-.34 5.8-.87 8.66-3.26-4.97-2.3-10.97-3.34-16.52 1.6-3.04 4.64-6.04 3.66-9.76-1.23-3.86-3.73-7.12-5.73-10.59-.95-1.46-1.76-3.27-3.62-3.7-2.65-.87-5.28-2.47-8.08-2.38-.3.53-.88 1.59-1.17 2.12-1.13 3.33-1.92 6.78-2.2 10.3-.71-1.18-1.47-2.33-2.12-3.53 1.53-3.43.91-7.32 1.87-10.9-2.36-.31-4.74-.51-7.13-.55l-.16-2.32c1.15-.92 2.32-1.8 3.46-2.72.33.36.99 1.09 1.32 1.45 1.92 1.05 4.35.05 6.22 1.39 3.54-6.63 8.96-12.48 10.02-20.19.2-.92.41-1.82.62-2.73m3.59.95c-.35 1.85-.69 3.7-1.01 5.55 1.18-1.62 2.31-3.27 3.72-4.7-1.59 4.2-3.92 8.37-3.74 13-.97.19-1.94.38-2.9.58 1.52-2.26 2.16-4.95 2.41-7.62-1.55 2.23-1.98 5.03-3.6 7.22-2.02 3.21-5.17 5.68-6.94 8.99 2.16 1.33 4.4 2.53 6.52 3.93-.55-3.36.35-6.71.91-10l1.07-.84-.71-1.07 2.88-.52c-.29 3.5-1.39 7.48.42 10.76-.03-9.19 3.22-17.88 7.28-25.98-2.1.22-4.21.45-6.31.7m11.86 3.33c-3.98 6.92-6.33 14.84-6.4 22.85 3.17.28 6.35.48 9.53.51.72-5.83 1.42-11.72.86-17.58-.48-2.96-.92-5.92-1.12-8.91-1.54.34-2.07 1.98-2.87 3.13m6.17 2.62c.36 6.95.71 13.95-.5 20.84.56-.04 1.68-.11 2.25-.14 1.08-6.9.05-14-1.75-20.7m-22.22 13.12c.28 3.31-.79 7.29 1.61 10.01.39-1.41-.14-2.66-.92-3.81-.01-2.06-.03-4.11.01-6.17l-.7-.03m6.67 4.9c.14 2.77.33 5.55.77 8.3 1.38-2.56.36-5.57.37-8.32l-1.14.02m3.43 4.2c.03 2.47.2 4.99 1.57 7.14 1.26 1.83-.42 4.53 1.9 5.79 2.42-3.67 5.13-7.74 4.71-12.34-2.73-.17-5.46-.38-8.18-.59m11.44 1.34c-1.26 5.9-3.92 11.64-8.41 15.76-1.52 1.27-1.87 3.25-2.28 5.08-.45-.24-1.36-.7-1.81-.94-2.58 2.58-4.28 6-3.99 9.72 3.03-4.24 5.92-8.65 9.93-12.06 3.61-3.09 4.97-7.76 7.32-11.72 1.22-1.81 1.17-4.02 1.29-6.1-.51.07-1.54.2-2.05.26m11.48-.27c-1.24.09-1.88 2.51-.39 2.68 1.19-.14 1.83-2.47.39-2.68m-30.93 1.06c-.78.99.47 2.95 1.7 2.44.74-.98-.49-2.96-1.7-2.44m3.92 5.96c-.44 1.66 1.29 3.17 2.27 4.36 1.51-.92-.45-4.83-2.27-4.36z" fill="#49312d"/><path fill="#694d48" d="M230.1 35.12c1.64-.5 2.22.06 1.74 1.67-1.64.49-2.22-.07-1.74-1.67z"/><path d="M242.3 42.07c-2.45-1.82-4.94-3.61-7.36-5.46 6.02 3.58 11.94 7.47 16.82 12.55 2.07 2.16 4.15 4.32 6.14 6.56l-1.7-.39c-3.79-4.28-8.13-8-12.27-11.92-.44.54-.87 1.08-1.3 1.61A95.984 95.984 0 0 1 262.19 65c4.36 5.78 7.13 12.8 7.7 20.03.13 1.14.28 2.29.43 3.44l-.35.12c-1.87-8.54-6.21-16.41-10.45-24-4.85-7.01-10.13-13.96-17.04-19.08-.07-1.14-.13-2.29-.18-3.44zm-86.66 28.26 1.02.12c-.84 5.2-3.59 10.5-8.66 12.65-.94.74-1.92 0-2.84-.34 1.04-.38 2.07-.8 3.09-1.25 1.1-.75 2.15-1.58 3.16-2.45 2.24-2.42 3.25-5.65 4.23-8.73zm59.51 8.51c3.92 1.1 4.59 6.19 5.79 9.5-3.04-2.23-3.25-6.68-5.79-9.5zm6.02 3.12c1.49-.67 3.43 1.66 2.75 3.06-1.54.77-3.54-1.62-2.75-3.06zm-12 91.75c.35-2.42 3.62-.07 5.06-.14-1.17 1.44-3.66.96-5.06.14zm63.28-.19c3.28.07 1.54 4.35 1.8 6.45-1.26 3.66-2.34 7.63-4.73 10.73.17-.37.52-1.12.69-1.5.43-5.3 2.92-10.27 2.24-15.68zm-183.98 9.3c3.69 2.31-.42 6.68-1.55 9.48l-.08-3.67c.58-1.93 1.12-3.86 1.63-5.81zm141.09 57.82c1.12-2.97.18-6.95 3.38-8.79l.18.91c-1.06 7.71-6.48 13.56-10.02 20.19-1.87-1.34-4.3-.34-6.22-1.39 4.83-3.87 7.99-9.26 12.07-13.82-1.32 5.24-4.93 9.42-7.81 13.85.63-.13 1.9-.39 2.54-.51 1.99-3.45 4.55-6.64 5.88-10.44zm19.63-6.33c.8-1.15 1.33-2.79 2.87-3.13.2 2.99.64 5.95 1.12 8.91.56 5.86-.14 11.75-.86 17.58-3.18-.03-6.36-.23-9.53-.51.07-8.01 2.42-15.93 6.4-22.85zm6.17 2.62c1.8 6.7 2.83 13.8 1.75 20.7-.57.03-1.69.1-2.25.14 1.21-6.89.86-13.89.5-20.84z" fill="#fffffe"/><path d="M93.77 84.51c6.01-11.59 8.02-25.47 17.14-35.3-8.25 10.43-10.63 23.81-15.42 35.89-1.08.05-2.16.1-3.24.17l1.52-.76zm182.97 173.23c10.08-.35 20.1-1.72 30.21-1.6 7.31-.59 14.82-.58 21.92 1.52 6.31 2.48 11.48 7.09 16.06 11.99 5.56-1.35 11.23-2.45 16.99-2.29 4.98-.51 9.44 2 13.82 3.96 1.9 1.07 4.07 1.92 5.52 3.64-4.29-1.31-8.28-3.59-12.76-4.2-6.9-.67-13.89-.01-20.59 1.74 2.72 3.4 5.98 6.43 8.04 10.32-8.12-6.8-15.83-14.14-24.61-20.1-2.44-1.67-5.34-2.43-8.22-2.89-9.99-.97-20.06-.07-30.09-.29-5.02-.26-9.96.8-14.96.94-.34-.69-1-2.06-1.33-2.74z" fill="#3b2723"/><path d="m251.76 49.16 1.9-.05c1.99 1.64 4.06 3.73 4.97 6.23.01.03.03.11.04.14l.08.08c1.19.91 2.11 2.07 1.81 3.66 1.56.29 2.03 1.63 2.13 3.04-2.69-1.76-4.51-4.46-6.49-6.93l1.7.39c-1.99-2.24-4.07-4.4-6.14-6.56zM80.8 133.3l.2.16 1.81 1.45c-.52 4.2-.97 8.41-.89 12.65l-.89-.19-1.02-.2-.93-.19c.57-4.56 1.26-9.11 1.72-13.68zm84.36 5.43c.47-.96.94-1.91 1.41-2.86.13 1.05.39 3.17.51 4.22.42-.85 1.26-2.54 1.67-3.39 1.11 1.52.39 3.39.23 5.08-.89-.12-2.65-.34-3.54-.45.39 2.67.37 5.74 2.32 7.85 2.12 1.94 4.58 3.59 6.06 6.12-.75 2.2-1.25 4.47-1.76 6.73.56-2.86.65-6.22-1.48-8.5-2.24-2.48-4.76-4.81-6.07-7.97-.07-.24-.2-.72-.26-.96-.01-1.49.28-3.06-.35-4.46.31-.35.95-1.06 1.26-1.41zm-15.52 33.26c.71.5 2.13 1.51 2.84 2.01.83-.47 1.64-.97 2.44-1.49 1.73-.07 3.47-.18 5.2-.27-1.22.35-2.4.8-3.58 1.27-2.46.28-6.19 2.09-6.9-1.52zm92.39 40.27c1.38-.29 2.77-.57 4.14-.91l-.54.83c1.3-.33 2.61-.64 3.92-.92-.83.94-1.71 1.84-2.63 2.69.95 0 1.89-.01 2.85-.01-2.42.56-4.84 1.08-7.26 1.56l-.56-2.82.08-.42zm-158.74 3.66c1.28 3.69 1.7 7.64 3.35 11.2 3.66 8.33 9.89 15.27 13.16 23.8.99 2.74 1.65 5.71.9 8.61-.38-1.47-.76-2.92-1.14-4.38-1.98-10.14-9.76-17.66-13.39-27.11-1.4-3.91-2.89-7.9-2.88-12.12z" fill="#695d5c"/><path d="M258.67 55.48c-.01-.03-.03-.11-.04-.14l.12.22-.08-.08zm96.9 241.58c-.1 1.56-.23 3.12-.34 4.68-.48 6.64-1.4 13.22-2.55 19.77-.89 1.51-2.47 2.75-2.24 4.7l-1.48.09c.5-2.47.92-4.94 1.49-7.39-.2-.48-.59-1.43-.79-1.91.58-.66 1.16-1.32 1.73-1.98 1.62-5.95 1.2-12.36 4.18-17.96z" fill="#2e344e"/><path d="M141.1 78.15c.1-2.35 1.97-3.98 4.03-4.76l-.32.56c-.76 1.44-1.79 2.72-3.09 3.7l-.62.5zm55.01 19.94 1.76.51c-2.42 8.54-8 15.79-15.05 21.06 3.26-5.46 9.06-9.26 10.96-15.62.8-1.98 1.6-3.95 2.33-5.95zm-1.13 64.07c.73-.42 2.19-1.28 2.92-1.71.44.18 1.3.54 1.74.72 1.26 1.89 2.5 3.82 3.37 5.93-1.9.79-3.55-1.21-5.19-1.93-.99-.97-1.92-1.99-2.84-3.01zm-1.27 23.47c-1.43-7.5-3.06-16.1 1.19-22.99.71 1.49 1.4 3 2.14 4.48 1.37 1.18 2.96 2.05 4.55 2.9-2.35 1.9-4.56 3.98-6.71 6.1.14.51.43 1.53.58 2.04 2.29.86 4.57 1.76 6.85 2.67.09.08.28.24.37.32.98.98 1.94 1.98 2.94 2.95-3.71-.34-6.59-2.88-10-4.09-.28 1.98-.55 4.04-1.91 5.62z" fill="#ffe2d8"/><path d="M147.6 76.2c.36-.36 1.08-1.07 1.44-1.43l.01 1.34c-.82 2.03-2.52 3.43-4.38 4.46-.61-.04-1.16-.26-1.65-.65 1.68-1.04 3.23-2.27 4.58-3.72zm126.07 66.06c1.72-7.74-.34-15.75.87-23.58.54 9.52-.13 19.09 1.28 28.57-2-1-2.81-2.84-2.15-4.99zM129.21 158.2c1.44-.51 2.95-.71 4.46-.8-.83 3.93.8 7.68 3.26 10.67-2.13-1.13-4.18-2.4-6.18-3.74-.79-1.58-1.69-3.1-2.58-4.61l1.04-1.52zm67.77 18.53c3.09-2.75 6.18-5.52 9.64-7.81-2.92 4.18-3.1 9.87-.13 14.09-1.28-.6-2.55-1.23-3.81-1.86-.09-.08-.28-.24-.37-.32-1.58-1.62-3.36-3-5.33-4.1z" fill="#fff8f3"/><path d="M189.57 75.93c3.11 7.81 2.93 16.81-.24 24.57-2.82 5.31-5.68 11.21-10.6 14.8l-.62.17c8.36-11.32 11.78-25.61 11.46-39.54zm55.13 103.03c-.31-2.4-.01-4.82 1.54-6.77l2.51 2.21c-.11 1.21-.2 2.42-.34 3.63-1.23.34-2.47.64-3.71.93z" fill="#feb8a3"/><path d="M225.23 80.1c2.15.5 2.74 3.17 2.76 5.07-1.44-1.37-2.27-3.17-2.76-5.07zm-63.92 55.68c4.76-5.93 11.37-9.93 17.89-13.65-4.43 4.33-10.06 7.47-13.42 12.82-.36-.11-1.07-.33-1.42-.44.25 1.05.5 2.1.74 3.15l-1.84-.64c-.48-.31-1.46-.93-1.95-1.24zm-6.79 24.74c1.94 2.27 2.83 5.85 6.05 6.64.23.51.71 1.55.95 2.07-2.14.03-4.27.17-6.37.58-1.54.25-3.08.47-4.63.64l-2.18-.6c2.99-2.41 5.49-5.44 6.18-9.33zM251 180.01c.31 2.84 1.01 5.73.48 8.57-1.47 3.61-3.83 6.77-6.12 9.89-.91 1.09-1.84 2.14-2.72 3.25l-.55-1.04c1.44-2 3.02-3.91 4.29-6.03 1.91-3.01 3.18-6.42 3.51-9.98-.81.93-1.45 1.99-1.81 3.18-.55-.15-1.63-.43-2.18-.58 1.82-2.33 3.46-4.8 5.1-7.26z" fill="#fff5f1"/><path fill="#fdb09f" d="M198.45 82.85c3.91 6.93 5.03 15.09 3.65 22.89-.58 3.01-1.35 6-2.54 8.83-.46-.63-1.37-1.88-1.82-2.5.44-4.87 3.28-10.07.99-14.8.36-1.73.67-3.48 1.02-5.21-.57 2.19-1.15 4.39-1.88 6.54l-1.76-.51c1.87-4.85 2.47-10.07 2.34-15.24z"/><path d="M162.57 96.45c1.75-3.76 2.79-7.87 5.12-11.35-2.59 10.04-8.08 19.07-13.54 27.8 2.51-5.63 6.1-10.72 8.42-16.45zm-.02 28.18c8.49-5.32 14.73-13.35 20.32-21.5-2.76 8.55-9.13 15.22-15.75 20.99.97-.28 2.92-.86 3.89-1.15l-.79 1.6c-2.44 2.78-5.34 5.13-7.52 8.13-.95 1.01-1.87 2.98-3.6 2.04-2.16-.87-4.36-1.65-6.44-2.67 1.24-1.65 3.66-1.88 5.43-2.84.03-2.6 2.71-3.34 4.46-4.6zm-41.48 1.86c6.88-6.93 15.2-12.27 23-18.1-1.12 1.02-2.25 2.03-3.36 3.06-4.92 4.85-10.56 8.88-16.25 12.74-1.16.73-2.28 1.5-3.39 2.3zm73.66 1.84c1.21-3.44 2.98-6.62 4.87-9.72.46.97.91 1.94 1.34 2.93-1.07 1.58-2.16 3.15-3.2 4.74.04-.28.13-.84.17-1.12-.31.52-.94 1.56-1.25 2.09l-1.93 1.08zm-15.53-6.2c.08-1.42 1.44-2.53 2.85-2.38.02 1.45-1.45 2.63-2.85 2.38zm60.71 50.62a122.9 122.9 0 0 0 1.7 3.46c-.33 1.02-.67 2.05-1 3.07-2.18-1.01-4.52-1.87-6.05-3.82 1.16-.44 2.32-.87 3.49-1.3.52.41 1.57 1.22 2.09 1.62-.06-.76-.17-2.27-.23-3.03m-1.48 3.48c.58.57.58.57 0 0zM96.58 251.81c1.9.79 1.31 3 1.7 4.59.32-.31.96-.94 1.28-1.25.38 1.46.76 2.91 1.14 4.38-.11.31-.35.92-.47 1.23-.72 2.44-1.04 4.97-1.64 7.44-.02-5.07.09-10.13-1.8-14.92-.05-.36-.15-1.1-.21-1.47z" fill="#ca9b90"/><path fill="#69504b" d="M118.18 89.25c1.43-.52 1.9-.09 1.4 1.31-1.43.53-1.9.09-1.4-1.31z"/><path d="M160.84 92.66c.56-.68 1.21-1.26 1.95-1.75-2.86 4.02-5.93 7.89-8.98 11.77-8.02 9.4-17.21 17.9-28.05 23.96l-.56.36c.3-.36.92-1.07 1.23-1.43 5.23-4.13 10.79-7.86 15.67-12.43 6.81-6.27 13.08-13.15 18.74-20.48zm-24.43 77.64.95-.56c4.31.99 8.77 1.45 13.16.71 1.55-.17 3.09-.39 4.63-.64l-.07.67-.16 2.03c-.8.52-1.61 1.02-2.44 1.49-.71-.5-2.13-1.51-2.84-2.01.71 3.61 4.44 1.8 6.9 1.52 1.18-.47 2.36-.92 3.58-1.27.53.2 1.6.61 2.13.81-.98 3-4.23 4.47-6.41 6.55 1.59.1 3.18.22 4.77.36a232.18 232.18 0 0 0-3.56 5.11c-.62 0-1.87.01-2.49.01-.04-.48-.11-1.43-.15-1.91-2.25.17-4.51.37-6.76.51-4.27-.15-8.56-.08-12.8-.63a303 303 0 0 1 1.36-1.87c.66-.14 1.99-.4 2.65-.54-.53-1.24-.64-2.78-1.65-3.74-2.29-.92-4.66-1.67-6.84-2.83 1.33-1.5 2.95-2.68 4.94-3.12.28-.17.83-.49 1.1-.65m.9 1.03c-1.29.78-.26 3.54 1.2 2.3 1.27-.8.28-3.41-1.2-2.3m3.51.46c1.14 1.89 1.93 4.2 3.9 5.41.12-1.42.22-2.84.3-4.26-1.39-.41-2.79-.79-4.2-1.15m5.34.76c-.88 1.31 1.21 3.02 2.43 2.16.64-1.2-1.31-2.81-2.43-2.16z" fill="#fecabf"/><g fill="#3f160e"><path d="M199.75 92.06c-.35 1.73-.66 3.48-1.02 5.21-1.18 5.39-3 10.76-6.53 15.09-7.08 9.38-18.58 14.12-25.63 23.51-.47.95-.94 1.9-1.41 2.86-.47-.43-1.42-1.28-1.9-1.71l1.84.64c-.24-1.05-.49-2.1-.74-3.15.35.11 1.06.33 1.42.44 3.36-5.35 8.99-8.49 13.42-12.82 1.4.25 2.87-.93 2.85-2.38l.39.24.38-.33c7.05-5.27 12.63-12.52 15.05-21.06.73-2.15 1.31-4.35 1.88-6.54zm-73.99 34.58c10.84-6.06 20.03-14.56 28.05-23.96l2.06.67c-7.97 9.95-17.41 18.89-28.63 25.08l-1.23-.45-.25-1.34zm76.34-20.9 1.69 1.09c-.73 4.13-2 8.18-4.19 11.78-1.89 3.1-3.66 6.28-4.87 9.72l1.93-1.08c.31-.53.94-1.57 1.25-2.09-.04.28-.13.84-.17 1.12-.36 1.41-.73 2.81-1.1 4.22-.15-.72-.47-2.15-.62-2.86-3.58 3.49-2.75 9.15-3.56 13.69-.38-3.38-.41-6.83.15-10.19 1.32-5.9 4.47-11.12 6.95-16.57 1.19-2.83 1.96-5.82 2.54-8.83z"/><path d="M124.46 124.19c5.69-3.86 11.33-7.89 16.25-12.74l1.37.48.02 1.21c-4.88 4.57-10.44 8.3-15.67 12.43l-1.97-1.38zm116.49 13.04c.46-.39 1.37-1.18 1.82-1.57 1.49 3.03 3.73 5.59 6.07 7.99-1.89 3.73-.61 7.99-1.58 11.93-1-3.74-.63-7.66-1.45-11.41-1.53-2.38-4.24-4.03-4.86-6.94zM115.2 176.06c1.56 1.17 3.18 2.32 5.11 2.78 4.43 2.59 9.44 3.86 14.54 4.21 4.24.55 8.53.48 12.8.63 1.17.27 2.33.59 3.49.91-5.79 1.21-11.74.8-17.6.75-2.14-.56-4.31-.99-6.45-1.51-4.65-1.37-8.51-4.41-11.89-7.77zm46.14 27.41c2.66-.59 6.31 1.06 6.23 4.12-1.62-1.28-3.4-2.34-5.15-3.41l-1.08-.71zm-19.8 15.61c.63.1 1.91.28 2.54.38l.38.21c.39.21 1.17.62 1.56.83 3.05 1.2 6.38.92 9.58 1.06 1.17.1 2.34.25 3.5.45-1.44.35-2.84.79-4.27 1.17-2.1.25-4.21.44-6.32.54-2.79-.58-6.05-1.58-6.97-4.64z"/></g><g fill="#fedcd2"><path d="M198.73 97.27c2.29 4.73-.55 9.93-.99 14.8.45.62 1.36 1.87 1.82 2.5-2.48 5.45-5.63 10.67-6.95 16.57-.56 3.36-.53 6.81-.15 10.19.81-4.54-.02-10.2 3.56-13.69.15.71.47 2.14.62 2.86.37-1.41.74-2.81 1.1-4.22 1.04-1.59 2.13-3.16 3.2-4.74.35 4.06.39 8.21 2.13 11.98.34 4.58 3 9.39.79 13.82-.13.34-.38 1.02-.51 1.36.62.44 1.24.88 1.86 1.33l1.96-1.04c.32.37.98 1.1 1.3 1.47-2.55 2.42-5.54 4.68-6.64 8.19-2.91.22-5.94 1-8.17 3-1.44 1.57-2.09 3.69-3.44 5.33a28.217 28.217 0 0 0-15.91-4.39c.11-2.44.2-4.92-.49-7.29-1.48-2.53-3.94-4.18-6.06-6.12-1.95-2.11-1.93-5.18-2.32-7.85.89.11 2.65.33 3.54.45.16-1.69.88-3.56-.23-5.08-.41.85-1.25 2.54-1.67 3.39-.12-1.05-.38-3.17-.51-4.22 7.05-9.39 18.55-14.13 25.63-23.51 3.53-4.33 5.35-9.7 6.53-15.09m-3.53 32.77c-1.22 3.91-1.76 7.97-2.11 12.04l2.32-.22c-.24-2.29-.21-4.6.26-6.86.12-1.62 1.17-3.76-.47-4.96m-2.05 12.33c1.58 3.4 2.85 7.13 5.78 9.66-1.52-3.09-3.02-6.23-3.54-9.67-.56.01-1.68.01-2.24.01m-17.31 18c4.65.83 9.1 2.4 13.6 3.79-.09-3.12-3.73-3.51-6.01-4.35-2.43-.35-5.59-1.35-7.59.56z"/><path d="M165.3 153.45c-1.3-2.45-.98-5.23-.79-7.89 1.31 3.16 3.83 5.49 6.07 7.97 2.13 2.28 2.04 5.64 1.48 8.5-.51 2.21-1.45 4.31-2.7 6.2l-.05-1.46c-1.88 1.14-3.7 2.37-5.64 3.39-.95-3.21-2.03-6.38-3.31-9.47 2.04-.04 4.09-.06 6.14-.17 1.56-.84 2.7-2.23 3.81-3.58-2.85.91-5.79 1.52-8.79 1.62-.15-.3-.46-.91-.61-1.21 1.2-1.32 5.17-1.71 4.39-3.9z"/></g><path d="M155.87 103.35c.64-.74 1.33-1.44 2.01-2.14-2.91 5.86-6.29 11.48-9.5 17.18-2.17 4.36-6.16 7.31-9.53 10.68l-.61.19v-3.68c-2.24.86-4.51 1.67-6.61 2.85l-.9 1.31c-2.57.79-5.16 1.5-7.77 2.14-.25-.08-.75-.22-1-.3 1.74-1.08 3.53-2.09 5.28-3.15 11.22-6.19 20.66-15.13 28.63-25.08zm45.96 55.3c1.1-3.51 4.09-5.77 6.64-8.19 1.54 1.81 3.06 3.65 4.76 5.32-3.66 2.63-8.27 3.43-11.94 6.1-.41-.18-1.24-.53-1.65-.71-.44-.18-1.3-.54-1.74-.72 1.85-1.03 3.94-1.44 5.98-1.9-.51.02-1.54.07-2.05.1zm-40.49 44.82c-2.89-1.91.98-4.82 3.23-3.93 4.02 1.49 8.15 2.68 12.43 3.18 1.7.49 4.28.32 4.89 2.43.61 1.72-1.02 2.97-1.83 4.26l-.57-1.18c-.01-.55-.01-1.11 0-1.66-1.65.21-3.3.41-4.92.78-.28.4-.83 1.22-1.11 1.63-2.13 1.53-4.42.45-5.89-1.39.08-3.06-3.57-4.71-6.23-4.12z" fill="#fda899"/><path d="M189.33 100.5c.31 1.31.54 2.64.68 3.99-3.08 5.44-7.29 10.03-11.28 14.79-.14.16-.43.48-.57.65-.62.68-.62.68 0 0 .14-.17.43-.49.57-.65 5.87-3.24 8.4-9.67 12.05-14.9.75-.08 2.25-.26 3-.34-1.9 6.36-7.7 10.16-10.96 15.62l-.44-.33-.33.42c-1.41-.15-2.77.96-2.85 2.38-6.52 3.72-13.13 7.72-17.89 13.65-.73-.38-1.47-.72-2.21-1.04 1.73.94 2.65-1.03 3.6-2.04 2.18-3 5.08-5.35 7.52-8.13l.79-1.6c2.2-2.66 4.88-4.86 7.1-7.5l.62-.17c4.92-3.59 7.78-9.49 10.6-14.8zm157.5 78.97c1.63.12 3.28.23 4.91.46 4.56 2.61 7.39 7.32 8.96 12.21 1.54-.77 3.08-1.53 4.6-2.34-.01 2.55-2 3.84-4.09 4.73.05 1.39.11 2.78.19 4.18 5.96.52 10.78 4.8 14.54 9.14-.35-.16-1.04-.46-1.38-.62-4.3-2.49-8.53-5.16-13.26-6.8-.38 7.15 3.15 13.42 5.36 19.96-4.61-6.15-8.38-13.5-7.92-21.4.29-5.14-.99-10.32-3.78-14.67-1.8-2.97-4.84-4.31-8.13-4.85z" fill="#42241d"/><path fill="#80645d" d="M191.19 102.01c3.08-1.35-.05 3.32 0 0z"/><path d="M178.73 119.28c3.99-4.76 8.2-9.35 11.28-14.79l.77-.11c-3.65 5.23-6.18 11.66-12.05 14.9zm-51.42 37.32c2.79-2.48 6.15-4.23 9.83-4.92-1.3 1.82-2.46 3.73-3.47 5.72-1.51.09-3.02.29-4.46.8l-1.04 1.52-.14.2-.72-3.32zm99.4 21.59c-.93-1.69-.12-3.7-.07-5.51 3.12 2.35 5.36 5.64 6.88 9.2-.22.31-.67.92-.89 1.23-2.03-1.55-4.33-2.88-5.92-4.92z" fill="#e1c5be"/><path fill="#febaa7" d="M204.42 104.1c1.36 9.78-1.67 19.38-.87 29.16l1.84.03c-.41-4.45-.39-8.95.48-13.35.91 5.73.01 11.71 2.3 17.19-.06.58-.17 1.72-.23 2.29-.68-1.9-1.24-3.84-1.69-5.81-.79-.02-2.39-.07-3.18-.09-1.74-3.77-1.78-7.92-2.13-11.98-.43-.99-.88-1.96-1.34-2.93 2.19-3.6 3.46-7.65 4.19-11.78.16-.68.48-2.05.63-2.73z"/><path fill="#b69289" d="M178.16 119.93c.14-.17.43-.49.57-.65-.14.16-.43.48-.57.65z"/><path fill="#eec8bf" d="m182.38 119.33.44.33-.38.33-.39-.24.33-.42z"/><path fill="#ac8880" d="M178.16 119.93c-.62.68-.62.68 0 0z"/><g fill="#feddd3"><path d="M242.67 135.18c-1.18-5.04-1.35-10.22.08-15.23.36 2.48.9 4.93 1.67 7.32 3.35-.55 6.13 1.63 8.61 3.56 3.93 3.46 7.88 6.9 12.09 10.04 8.55 8.66 18.76 15.43 29.09 21.77 3.39 2.4 6.88 4.75 10.81 6.2.57.22 1.71.65 2.29.87l.66.61c1.3 1.38 3.84 3.2 5.24.88 3.82-3.81.46-9.93 3.86-13.91 3.03-3.9 8.43-4.36 13-4.57 1.97-.24 3.26 1.51 4.55 2.69 6.72 7.46 14.05 14.39 20.31 22.28-1.07.74-2.14 1.49-3.19 2.24-1.63-.23-3.28-.34-4.91-.46 3.29.54 6.33 1.88 8.13 4.85-3.58 1.93-6.38-3.2-10.25-1.92-.75 1.32-1.5 2.65-2.22 3.99.03-1.39.07-2.76.1-4.14-.36.34-1.08 1.01-1.44 1.35-4.84-6.36-10.86-11.83-17.32-16.5-.42-1.41-1.45-2.39-2.59-3.22-.67 1.47-1.32 2.94-1.98 4.42-1.71 1.19-5.1 1.96-4.12 4.73.75 2.39 3.47 3.29 5.41 4.52 7.04 3.33 11.28 10.14 16.98 15.14-5.71.09-11.96-.28-16.95 2.96.86 2.31 3.38 2.41 5.45 2.71 3.97.38 7.53 2.3 11.34 3.35 1.24-1.76 1.91-3.81 2.33-5.91-.17 3.61.12 7.37-1.2 10.8-4.34 4.99-11.5 6.05-17.77 5.87l.37.66c.9 1.77 1.95 3.45 3.13 5.05-3.33 1.28-7.04 2.81-10.6 1.42-12.09-4.24-25.41-4.26-37.71-.9-18.2 3.18-36.17 10.13-54.9 8.33-.16-.52-.49-1.56-.65-2.08.65-1.38 1.36-2.73 2.05-4.09 2.22-.56 4.41-1.3 6.51-2.25 4-1.61 8.3-2.11 12.48-3.05.13-.72.41-2.16.54-2.88l.56 2.82c2.42-.48 4.84-1 7.26-1.56 9.08-1.81 18.12-3.97 26.86-7.07 6.14 1.91 12.55 0 18.35-2.15 7-2.38 9.98-12.1 5.76-18.12-.02-.34-.07-1.03-.09-1.37.73-3.38-1.39-7.39-5.05-7.65-2.87-.26-4.41-3.05-6.42-4.76-4.55-4.85-10.25-8.34-15.33-12.55-6.56-6.2-14.23-11.1-20.58-17.52-2.88-2.73-5.99-5.22-8.68-8.16-.48.15-1.44.44-1.92.59zm100.11 22.44c2.5-.33 5.48-1.07 7.34 1.19 4.51 4.56 9.58 8.77 12.77 14.43 3.38 5.71 7.67 10.81 12.19 15.63-.42.23-1.26.68-1.68.9-3.82-3.61-7.2-7.64-10.44-11.76-3.98-4.38-8.41-8.35-12.09-13.01-2.24-2.91-4.89-5.54-8.09-7.38z"/><path d="M353.47 195.52c.09-2.68-.06-5.47 1.18-7.93 3.36 12.33 1.35 25.27-1.37 37.51-.62 1.6-.89 4.5-3.29 4.07-4.16-.79-8.11-2.47-12.01-4.06-3.52-1.52-4.49-6.21-1.77-8.97-.37-.08-1.1-.24-1.47-.31.3-.37.91-1.11 1.22-1.48.24.27.73.82.97 1.1 4.2-5.95 6.21-13.26 5.54-20.52 3.56 1.17 7.33 1.45 11 .59z"/></g><path fill="#fed5c8" d="M131.63 128.43c2.1-1.18 4.37-1.99 6.61-2.85v3.68c-2.5.21-5.01.26-7.51.48l.9-1.31z"/><path fill="#3c1d16" d="M130.73 129.74c2.5-.22 5.01-.27 7.51-.48l.61-.19c.31 2.82-3.55 1.54-5.29 2.38-.27.57-.81 1.71-1.08 2.27l-.19-.19-.2-.47c-2.27-.53-4.67.37-6.98.48l-2.12.24c-.01-.47-.02-1.43-.03-1.9 2.61-.64 5.2-1.35 7.77-2.14z"/><path fill="#8e6e67" d="M195.2 130.04c1.64 1.2.59 3.34.47 4.96-.47 2.26-.5 4.57-.26 6.86l-2.32.22c.35-4.07.89-8.13 2.11-12.04z"/><path fill="#feded5" d="M125.11 133.54c2.31-.11 4.71-1.01 6.98-.48l.2.47c-1.53 1.94-3.96 3.12-5.69 4.96-3.35.3-6.66.97-9.86 1.98.28-.61.83-1.84 1.11-2.45a90.89 90.89 0 0 0 6.3-1.62c.24-.72.72-2.14.96-2.86z"/><path d="M131.66 137.21c2.2-1.7 4.67-2.99 7.18-4.17-.4.42-1.21 1.25-1.61 1.66-1.7 1.46-3.55 2.71-5.3 4.1l-.81.97c.14-.64.4-1.92.54-2.56zm63.96 42.8c3.41 1.21 6.29 3.75 10 4.09 1.86.76 3.68 1.61 5.53 2.4.02.5.07 1.49.09 1.99-1.35.78-2.29 2-3.1 3.3 1.02-.56 2.04-1.12 3.06-1.67 1.18 2.92-2.44 4.13-4.23 5.56-1.43-.48-2.88-.92-4.34-1.31 1.57 1.97 4.05 2.7 6.26 3.68-.21.56-.64 1.69-.86 2.25-2.25-1.18-4.57-2.21-6.89-3.25-.94-1.35-1.93-2.65-2.98-3.91-.63.48-1.26.96-1.88 1.45-.41-.4-1.25-1.2-1.66-1.6-.17-2.47-.61-4.91-.91-7.36 1.36-1.58 1.63-3.64 1.91-5.62m7.7 5.14c.14 3.26 3.07-1.54 0 0zm48.32 13.34c2.49 2.2-2.64 4.45-1.47 7.06 1.14-.23 1.7-1.73 2.61-2.45-.88 2.25-1.83 4.47-2.98 6.6-.57-.77-1.14-1.53-1.7-2.3a16.63 16.63 0 0 1-1.93 3.95c-1.37.34-2.76.62-4.14.91 1.21-5.92 7.97-8 9.61-13.77z" fill="#fecac1"/><path fill="#321f1c" d="M83.74 133.34c2.27 4.01 1.26 8.86.97 13.23l-1.37.96c.46-4.72.18-9.46.4-14.19z"/><path fill="#f3c0b5" d="M117.85 138.02c1.02-2.14 2.39-4.46 5.14-4.24l2.12-.24c-.24.72-.72 2.14-.96 2.86a90.89 90.89 0 0 1-6.3 1.62z"/><path fill="#864b3f" d="M203.07 133.52c.79.02 2.39.07 3.18.09.45 1.97 1.01 3.91 1.69 5.81.06-.57.17-1.71.23-2.29.19.69.37 1.37.53 2.07-.16.57-.48 1.73-.64 2.31l-1.04-.7c-.22-.14-.67-.42-.9-.56-.68 2.07.05 4.18 1.23 5.9l.69 3.03c-.56-.18-1.7-.53-2.26-.71l-.09-.63-.5-.07.03.54c-.57-.16-1.03-.48-1.36-.97 2.21-4.43-.45-9.24-.79-13.82z"/><path d="M242.67 135.18c.48-.15 1.44-.44 1.92-.59 2.69 2.94 5.8 5.43 8.68 8.16 6.35 6.42 14.02 11.32 20.58 17.52 5.08 4.21 10.78 7.7 15.33 12.55 2.01 1.71 3.55 4.5 6.42 4.76 3.66.26 5.78 4.27 5.05 7.65-.8-1.17-1.63-2.31-2.45-3.45.45 2.07.85 4.16 1.15 6.26-7.02-9.5-16.66-16.68-26.19-23.5-2.48-1.71-4.7-3.75-6.89-5.79-5.64-5.24-12.03-9.61-17.43-15.1-2.34-2.4-4.58-4.96-6.07-7.99l-.1-.48zm-19.92 13.64c-4.07-1.68-2.94-7.22-3.23-10.76.89 3.64 2.39 7.1 3.23 10.76zM99.81 186.57c1.75-1.8 3.41-3.68 5.05-5.57-.05 1.4-.12 2.81-.2 4.21-.09.43-.26 1.29-.35 1.71-1.5-.14-3-.26-4.5-.35z" fill="#febbac"/><path fill="#492921" d="M131.93 138.8c1.75-1.39 3.6-2.64 5.3-4.1 2.23.46 4.5.69 6.77.76-2.22 1.09-4.43 2.19-6.73 3.09 1.6-.2 2.62.42 3.04 1.86-3.4-.24-7.21-.88-9.63 2.19l-.4-1.65c.21-.3.63-.88.84-1.18l.81-.97z"/><path d="m144 135.46 1.16-.08c-1.16 2.12-2.73 3.95-4.25 5.81 4.16.35 8.37.54 12.3 2.11-2.81-1.17-5.68-2.19-8.55-3.2 1.15-1.19 2.31-2.37 3.48-3.54-.48-.3-1.45-.9-1.93-1.2 1.55.21 3.11.38 4.67.6-.12.46-.37 1.37-.49 1.83 2.42 2.15 4.82 4.37 6.9 6.87 2.55 3 3.59 6.9 5.71 10.19-.98.54-1.97 1.04-2.96 1.55-1.95-1.68-3.9-3.37-5.93-4.97-5.43-4.09-12.46-5.46-19.14-5.11-1.74.31-2.53-1.5-3.55-2.51.38 1.22.74 2.44 1.09 3.68-1.78-.72-3.51-1.55-5.25-2.35.88-.74 1.76-1.47 2.65-2.19-1.07-.28-3.03.1-2.9-1.58-.36-1.11 2.98-1.83 3.27-.42l.4 1.65c2.42-3.07 6.23-2.43 9.63-2.19-.42-1.44-1.44-2.06-3.04-1.86 2.3-.9 4.51-2 6.73-3.09zm67.93 14.4c3.36 2.74 5.96 6.29 9.06 9.32 2.29 1.32 4.7 2.41 7.2 3.28.67.77 1.3 1.58 1.93 2.39-4.46-.57-8.62-2.76-13.18-2.58-3.36-.08-7.22.15-9.35 3.16-1.1.19-2.19.4-3.3.46-1.23-1.15-2.06-2.63-3-4.01 3.67-2.67 8.28-3.47 11.94-6.1 2.02 1.67 4.36 2.89 6.83 3.78-2.81-3.13-7.06-5.33-8.13-9.7z" fill="#feddd2"/><path fill="#745954" d="M113.34 136.34c1.76.81-.49 4.46-2.05 4.24-.4-1.53.72-3.47 2.05-4.24z"/><path d="M150.88 135.96c2.6.51 5.12 1.34 7.65 2.1-.1 2.38-.04 4.78.67 7.07.11-2.21.16-4.43.22-6.63l3.09 1.16c-.85 1.87.18 3.83 1.74 4.94.06.24.19.72.26.96-.19 2.66-.51 5.44.79 7.89-.57.35-1.73 1.05-2.3 1.4-2.12-3.29-3.16-7.19-5.71-10.19-2.08-2.5-4.48-4.72-6.9-6.87.12-.46.37-1.37.49-1.83zm93.99 44.99c1.07-.51 2.15-1.03 3.22-1.55-.63 2.69-1.82 5.2-2.99 7.69l.8.18c.55.15 1.63.43 2.18.58a52.81 52.81 0 0 0-1.7 6.8c-1.27 2.12-2.85 4.03-4.29 6.03l.55 1.04c.25 4.13-2.01 7.83-3.53 11.52-.68 2.37-3.29 2.51-5.24 3.21.46-2.75 1.08-5.75-.85-8.13-.14-.25-.4-.73-.53-.98-5.33.02-10.65-.91-15.6-2.91.58.01 1.73.05 2.31.06-.4-1.96-1.31-4-.8-6.02 1.11-1.38 2.51-2.5 3.83-3.67l1 1.56c.02-1.41-.09-2.81-.32-4.19-.74-1.74-2.94-1.72-4.42-2.39-.9-.6-1.8-1.2-2.7-1.78.48-.55.97-1.07 1.47-1.59 2.31 2.59 6.18.84 9.2 1.12 3.18.5 5.98-1.15 8.89-2.12 2.74-.44 5.54-.05 8.3-.07-.5-.43-1.51-1.3-2.02-1.73-.24-1.42 1.65-1.58 2.49-2.27l.75-.39m-10.66 7.16c-.28 1.59 2.04 3.42 3.49 3.38.22-1.67-1.75-3.96-3.49-3.38m-6.43 1.09c3.06.95 5.19 3.27 7.06 5.74-.57-1.89-1.48-3.65-2.47-5.34-1.54-.13-3.06-.28-4.59-.4m-3.53.98a44.95 44.95 0 0 1 3.45 4.55c-.41-1.9-1.06-4.49-3.45-4.55z" fill="#fdb2a7"/><path fill="#feb8aa" d="M241.89 142.19c-.51-1.6-1.24-3.24-.94-4.96.62 2.91 3.33 4.56 4.86 6.94.82 3.75.45 7.67 1.45 11.41.11 1.51.21 3.03.3 4.54-2.99-5.59-3.58-12.01-5.67-17.93z"/><path fill="#feded3" d="m162.51 139.66 1.39.48c.63 1.4.34 2.97.35 4.46-1.56-1.11-2.59-3.07-1.74-4.94z"/><path fill="#bb8b80" d="M206.12 140.25c.23.14.68.42.9.56.69 1.7 1.09 3.59.33 5.34-1.18-1.72-1.91-3.83-1.23-5.9z"/><path d="M208.06 141.51c.16-.58.48-1.74.64-2.31.62 2.71 1.54 5.36 2.79 7.85-.3.15-.9.46-1.2.61-.76-2.05-1.52-4.09-2.23-6.15zm-30.79 25.62c2.76.59 5.44 1.52 8.03 2.65 1.93 4.78 3.62 9.94 2.29 15.13-.25-.64-.75-1.93-1-2.58-3.85-.01-7.27-1.72-10.76-3.07-2.58-.04-5.03-.66-6.53-2.92 2.94-2.82 5.33-6.12 7.97-9.21zm-66.21 26.53c.46 1.69.97 3.37 1.46 5.06.86-.73 1.72-1.46 2.58-2.18 1.54.76 3.09 1.77 4.89 1.51 4.12-.34 8.31-.25 12.36-1.19 3.88.61 7.96 1.08 11.72-.36 3.11 2.12 6.87-.65 9.89 1.5 1.23.88 1.81 2.37 2.66 3.58.71-.03 1.42-.05 2.12-.08.16 1.42.33 2.83.49 4.25 1.06-.53 2.12-1.05 3.19-1.57 1.75 1.07 3.53 2.13 5.15 3.41 1.47 1.84 3.76 2.92 5.89 1.39 2-.37 4.02-.56 6.03-.75l.57 1.18c.42.77.85 1.54 1.29 2.3 2.46-1.71 5.32-2.63 8.27-3.1 3.39-.54 6.79-2.88 10.26-1.35 2.7 1.09 5.57 1.65 8.3 2.62 1.78 1.91 3.28 4.23 5.92 5.05 3.33 1.09 5.13 5.28 9.04 4.6l-.35.61c-2.02 1.88-4.02 3.8-5.45 6.17l-.28-.98c-1.6.58-3.17 1.24-4.74 1.9.47-.74.95-1.48 1.42-2.22l-3.58.54c-1.91-2.01-3.69-4.23-6.12-5.63-2.05-1.3-4.52-.55-6.77-.56-2.58.15-4.95-1.84-7.54-1.04-2.09.73-4.03 1.93-6.28 2.15.64 1.64 1.19 3.34 2.22 4.79 1.26.33 2.57.42 3.87.55.63 1.6.93 3.29.92 5.02-1.19-.28-2.37-.6-3.54-.96-.65-1.18-1-2.68-2.35-3.27-3.74-2.1-7.11-5.24-11.54-5.74-3.44-.53-6.81-1.39-10.13-2.42-5.72-1.74-11.26 1.4-16.88 2.06-.39-.21-1.17-.62-1.56-.83.84-.8 1.68-1.58 2.53-2.37 3.43.18 6.75-.84 10.01-1.77-2.48-2.29-5.25-4.27-7.59-6.73-4.34-.95-8.69-2.08-13.14-2.35-1.66-.15-2.8 1.3-4.07 2.12-.12-.55-.35-1.65-.47-2.2-.24.18-.73.54-.98.72-5.5-.62-11.08-.5-16.62-.6-.86-1.21-1.72-2.42-2.54-3.65-.37-3.05-.46-6.12-.53-9.18zm135.78 4.99c.88-.69 2.06-2.94 3.3-1.68-1.56 2.12-2.99 4.33-4.55 6.45.24-1.04.48-2.07.72-3.1.13-.42.4-1.25.53-1.67z" fill="#ffcec7"/><path fill="#fedbd0" d="M113.16 145.09c3.47-2.5 7.63-3.53 11.73-4.46.87 2.38 1.9 4.7 2.99 6.98-.8.38-2.41 1.13-3.21 1.51-.76-.78-1.52-1.56-2.28-2.35.49 1.3.97 2.6 1.44 3.91-3.54-.34-6-2.87-8.6-4.97 1.05 1.79 2.19 3.53 3.31 5.28-1.26.51-2.52 1.02-3.78 1.54-.3 1.29-.66 2.56-1.24 3.75-.35-3.72-.23-7.46-.36-11.19z"/><path d="M193.15 142.37c.56 0 1.68 0 2.24-.01.52 3.44 2.02 6.58 3.54 9.67-2.93-2.53-4.2-6.26-5.78-9.66zm-40.41 11.6c.34-.64 1.03-1.9 1.37-2.54 2.03 1.6 3.98 3.29 5.93 4.97.99-.51 1.98-1.01 2.96-1.55.57-.35 1.73-1.05 2.3-1.4.78 2.19-3.19 2.58-4.39 3.9.15.3.46.91.61 1.21 1.58.84 3.28 1.4 4.98 1.96-2.05.11-4.1.13-6.14.17 1.28 3.09 2.36 6.26 3.31 9.47-.48.21-1.43.62-1.91.83-2.22-.19-4.45-.43-6.68-.51l.07-.67c2.1-.41 4.23-.55 6.37-.58-.24-.52-.72-1.56-.95-2.07-1.42-5.01-3.61-9.92-7.83-13.19z" fill="#51312d"/><path d="M238.82 142.04c1.47 5.49 2.69 11.16 5.79 16.01-1.77-1.29-4.21-2.47-4.44-4.93-.65-3.66-1.45-7.35-1.35-11.08zM110.55 153c-.12-2.82.4-5.95 2.61-7.91.13 3.73.01 7.47.36 11.19.58-1.19.94-2.46 1.24-3.75 1.26-.52 2.52-1.03 3.78-1.54.45.74 1.34 2.22 1.79 2.96-1.04-.11-3.11-.34-4.14-.45 2.25 2 5.05 3.14 7.62 4.64 2.08 1.94 3.69 4.31 5.55 6.46l-5.27-.48c-1.1.72-2.21 1.43-3.31 2.14-.51-.26-1.54-.8-2.06-1.06-1.56.81-3.11 1.65-4.64 2.51.76 1.24 1.51 2.49 2.22 3.76.17 2.95 2.55 5.01 4.01 7.37-1.93-.46-3.55-1.61-5.11-2.78 3.38 3.36 7.24 6.4 11.89 7.77-.8.69-1.58 1.38-2.37 2.07 8.21 3.85 18.07 4.39 26.62 1.31-5.89-.96-12.29.89-17.8-1.87 5.86.05 11.81.46 17.6-.75-1.16-.32-2.32-.64-3.49-.91 2.25-.14 4.51-.34 6.76-.51.04.48.11 1.43.15 1.91.62 0 1.87-.01 2.49-.01 2.63-1.23 4.55-3.46 6.53-5.5 4.25-4.49 7.94-9.57 10.25-15.34 5.83.2 12 1.4 16.53 5.35-.39 1.77-.81 3.58-.52 5.41.75 6.87 1.69 13.88 4.8 20.13 0-.53-.02-1.6-.02-2.13.41.4 1.25 1.2 1.66 1.6.62-.49 1.25-.97 1.88-1.45 1.05 1.26 2.04 2.56 2.98 3.91 2.16 3.35 6.28 4.41 9.49 6.44 6.79 3.84 14.57 5.96 22.39 4.83 1.93 2.38 1.31 5.38.85 8.13-1.7.59-3.32 1.4-4.94 2.16-2.1.95-4.29 1.69-6.51 2.25l.37-.72.35-.61c-3.91.68-5.71-3.51-9.04-4.6-2.64-.82-4.14-3.14-5.92-5.05-2.73-.97-5.6-1.53-8.3-2.62-3.47-1.53-6.87.81-10.26 1.35-2.95.47-5.81 1.39-8.27 3.1-.44-.76-.87-1.53-1.29-2.3.81-1.29 2.44-2.54 1.83-4.26-.61-2.11-3.19-1.94-4.89-2.43-4.28-.5-8.41-1.69-12.43-3.18-2.25-.89-6.12 2.02-3.23 3.93l1.08.71c-1.07.52-2.13 1.04-3.19 1.57-.16-1.42-.33-2.83-.49-4.25-.7.03-1.41.05-2.12.08-.85-1.21-1.43-2.7-2.66-3.58-3.02-2.15-6.78.62-9.89-1.5-3.76 1.44-7.84.97-11.72.36-4.05.94-8.24.85-12.36 1.19-1.8.26-3.35-.75-4.89-1.51-.86.72-1.72 1.45-2.58 2.18-.49-1.69-1-3.37-1.46-5.06-.37-7.97-.95-16.04.24-23.96.37.28 1.1.84 1.47 1.12-.46-5.98-1.94-11.83-2.22-17.82m8.47 10.57c1.96-.69 5.05-.39 5.74-2.83-2.26-.12-4.97.37-5.74 2.83m58.25 3.56c-2.64 3.09-5.03 6.39-7.97 9.21 1.5 2.26 3.95 2.88 6.53 2.92 3.49 1.35 6.91 3.06 10.76 3.07.25.65.75 1.94 1 2.58 1.33-5.19-.36-10.35-2.29-15.13-2.59-1.13-5.27-2.06-8.03-2.65m-5.89 31.37c-1.27 1.43 1.2 3.48 2.51 2.2 1.26-1.42-1.26-3.38-2.51-2.2zM97.1 160.85c1.43-2.59 2.55-5.36 4.34-7.73-.33 3.17-1.34 6.16-4.34 7.73z" fill="#ffc3b5"/><path d="m205.19 147.77.5.07.09.63-.56-.16-.03-.54zm-50.67 12.75c-.37-2.24-1.16-4.38-1.78-6.55 4.22 3.27 6.41 8.18 7.83 13.19-3.22-.79-4.11-4.37-6.05-6.64zm83.59 6.3c3.04 1.23 5.76 3.11 8.13 5.37-1.55 1.95-1.85 4.37-1.54 6.77-1.36.12-2.73.23-4.09.32.33-1.02.67-2.05 1-3.07-.58-1.15-1.16-2.3-1.7-3.46l-.3-.8c.24-.32.73-.95.97-1.27-2.12-.13-2.05-2.3-2.47-3.86z" fill="#fed6ce"/><path fill="#92716a" d="M233.05 146.64c1.52 1.75 2.18 3.97 2.85 6.14l-1.93-.72c-.9-1.67-1.06-3.56-.92-5.42z"/><path d="M126.29 150.89c-.85-2.13 2.91-2.78 4.25-1.9-.92.99-2.73 2.72-4.25 1.9zm174.45 35.71c4.22 6.02 1.24 15.74-5.76 18.12-5.8 2.15-12.21 4.06-18.35 2.15 1.03-.77 2.02-1.58 3-2.42.56-.04 1.13-.06 1.71-.06 6.89.84 14.26-2.33 17.68-8.5 1.76-2.77 1.61-6.15 1.72-9.29z" fill="#f9bbaa"/><path fill="#3b241d" d="M315.36 157.49c3.48-5.13 9.85-6.93 15.65-7.8 3.74.59 5.83 4.37 8.5 6.74 2.81-1.59 6.17-2.52 9.38-1.72 3.16 1.78 4.84 5.2 7.11 7.9 8.08.29 16.56 1.19 23.41 5.89 4.18 3.03 9.18 5.42 11.87 10.05 1.79 2.73 4.14 5.11 5.36 8.2l-.86-.25c-3.05-.64-4.66-3.65-6.58-5.8-3.64-5.04-9.19-8.13-14.26-11.51-5.68-2.93-11.95-4.48-18.16-5.83 2.64 5.02 6.63 9.13 9.85 13.76 2.96 4.32 7.03 7.66 10.87 11.16-1.52 1.91-2.88 4.41-5.48 4.94-2.04.61-3.76-.75-5.44-1.65 2.28-.53 4.74-.61 6.82-1.8.42-.22 1.26-.67 1.68-.9-4.52-4.82-8.81-9.92-12.19-15.63-3.19-5.66-8.26-9.87-12.77-14.43-1.86-2.26-4.84-1.52-7.34-1.19l-2.51.36c3.8 5.36 8.18 10.3 12.84 14.92 4.67 4.48 7.62 10.45 12.65 14.6-.06.34-.19 1.03-.25 1.38-5.07-2.09-7.19-7.31-10.58-11.19-6.26-7.89-13.59-14.82-20.31-22.28-1.29-1.18-2.58-2.93-4.55-2.69-4.57.21-9.97.67-13 4.57-3.4 3.98-.04 10.1-3.86 13.91-1.4 2.32-3.94.5-5.24-.88.8-.02 2.41-.04 3.22-.06 1.76-4.14 1.34-9.05 4.17-12.77z"/><path fill="#a57b72" d="M121.26 152.05c3-1.52.31 3.26 0 0z"/><path fill="#fdbba9" d="M222.17 152.2c5.13.98 6.38 6.71 8.8 10.57 1.75 1.93 3.59 3.85 4.38 6.41-1.06.29-2.13.57-3.19.86-6.98-5.09-16.22-6.69-24.57-4.61 2.13-3.01 5.99-3.24 9.35-3.16 4.56-.18 8.72 2.01 13.18 2.58-.63-.81-1.26-1.62-1.93-2.39l2.28.55c-3.39-3.11-6.58-6.46-8.3-10.81z"/><path d="M137.47 157.45c.13-2.4 3.97-.94 5.11.2-1.7.06-3.53.74-5.11-.2zm87.2 13.7c.66.5 1.32 1.01 1.97 1.53-.05 1.81-.86 3.82.07 5.51 1.59 2.04 3.89 3.37 5.92 4.92-1.78 1.83-3.99 3.14-6.17 4.42-3.02-.28-6.89 1.47-9.2-1.12 6.41-1.48 10.52-9.28 7.41-15.26zm8.47 78.9.7.03c-.04 2.06-.02 4.11-.01 6.17.78 1.15 1.31 2.4.92 3.81-2.4-2.72-1.33-6.7-1.61-10.01z" fill="#fcf5f3"/><path fill="#95746d" d="M161.52 158.56c3-.1 5.94-.71 8.79-1.62-1.11 1.35-2.25 2.74-3.81 3.58-1.7-.56-3.4-1.12-4.98-1.96z"/><path fill="#fdc0b2" d="M236.11 156.86c4.68 1.37 5.13 7.76 9.74 9.28-.9-1.69-1.87-3.34-2.68-5.07 4.12 1.07 4.98 5.59 5.33 9.24 1.43 0 2.68.32 2.89 1.98-1.18-.87-2.51-.68-3.83-.36l.11-1.31c-2.49-2.4-5.67-3.87-8.57-5.68-1.73-2.33-2.25-5.32-2.99-8.08z"/><path d="m340.27 157.98 2.51-.36c3.2 1.84 5.85 4.47 8.09 7.38 3.68 4.66 8.11 8.63 12.09 13.01 3.24 4.12 6.62 8.15 10.44 11.76-2.08 1.19-4.54 1.27-6.82 1.8 1.68.9 3.4 2.26 5.44 1.65 2.6-.53 3.96-3.03 5.48-4.94-3.84-3.5-7.91-6.84-10.87-11.16-3.22-4.63-7.21-8.74-9.85-13.76 6.21 1.35 12.48 2.9 18.16 5.83 5.24 8.85 7.23 19.95 4.07 29.85-1.93 3.97-2.76 8.29-2.82 12.68 2.67 2.69 5.3 5.44 8.11 8 3.08 2.87 7.65 3.17 10.77 6.02-1.06 4.1-.38 8.7-2.79 12.39-5.62-1.81-11.48-2.66-17.24-3.87-8.63-1.8-17.52.44-26.13-1.47-8.01-1.72-16.03-3.6-23.57-6.89-3.58-1.61-7.39-2.56-11.05-3.93-5.14-2.16-10.83-1.48-16.25-2.12-11.32-.12-22.23 3.45-33.39 4.85-10.31 1.72-20.62 3.49-30.91 5.33-3.79.55-7.65.36-11.46.84-1.1-.16-2.18-.34-3.27-.53.47-.07 1.41-.23 1.88-.3-.52-.98-1.04-1.95-1.56-2.93l1.04-2.16c.16.52.49 1.56.65 2.08 18.73 1.8 36.7-5.15 54.9-8.33 12.3-3.36 25.62-3.34 37.71.9 3.56 1.39 7.27-.14 10.6-1.42-1.18-1.6-2.23-3.28-3.13-5.05 5.3 1.25 11.03.82 15.77-2.01-.21.73-.62 2.21-.83 2.95l-.08.28c-.31.37-.92 1.11-1.22 1.48.37.07 1.1.23 1.47.31-2.72 2.76-1.75 7.45 1.77 8.97 3.9 1.59 7.85 3.27 12.01 4.06 2.4.43 2.67-2.47 3.29-4.07 2.72-12.24 4.73-25.18 1.37-37.51-1.24 2.46-1.09 5.25-1.18 7.93-3.67.86-7.44.58-11-.59-.05-2.85-.12-5.7.02-8.54.72-1.34 1.47-2.67 2.22-3.99 3.87-1.28 6.67 3.85 10.25 1.92 2.79 4.35 4.07 9.53 3.78 14.67-.46 7.9 3.31 15.25 7.92 21.4.38.57.76 1.14 1.14 1.72.49-.33 1.47-1.01 1.96-1.34.13-4.63-.99-9.16-.93-13.78 1.65.87 3.29 1.78 4.93 2.69l.8-2.45c.34.16 1.03.46 1.38.62-3.76-4.34-8.58-8.62-14.54-9.14-.08-1.4-.14-2.79-.19-4.18 2.09-.89 4.08-2.18 4.09-4.73l.21-.92c.06-.35.19-1.04.25-1.38-5.03-4.15-7.98-10.12-12.65-14.6-4.66-4.62-9.04-9.56-12.84-14.92zM131.24 268.27c.15-4.33.22-8.65.2-12.97 2.93 3.46 6.02 6.83 9.6 9.63 3.26 2.23 6.93 3.78 10.51 5.44-.47.18-1.4.53-1.87.7-2.69-.99-5.28-2.27-8.01-3.18 4.85 5.53 11.56 8.8 17.5 12.94 4.13 2.88 8.93 4.5 13.48 6.55 10.12 4.35 21.24 5.69 32.17 5.92.29 7.59-1.26 15.05-2 22.56 1.05-.48 2.1-.97 3.15-1.44-.5 1.38-.96 2.79-1.41 4.2-.55.2-1.65.6-2.19.8-4 6.82-11.14 10.87-17.38 15.38-3.86 2.7-7.99 5.73-12.89 5.9-10.23.5-20.47-.48-30.66-1.34-11.82-2.12-23.27-5.96-34.41-10.39l-.96-2.08c-3.47-1.46-6.97-2.88-10.45-4.32 2.14-1.72 4.42-4.09 7.35-3.97 3.77 1.93 6.54 5.46 10.64 6.85 7.56 2.88 15.19 6.16 23.35 6.72 11.48.48 23.07.49 34.36-1.83 4.57-1.24 8.66-3.73 12.71-6.11-3.97-3.56-8.78-5.95-12.95-9.24-2.81-2.15-5.68-4.21-8.71-6.03.27 4.74 1.01 9.43 1.29 14.17-3.14-1.33-4.94-4.33-6.58-7.14-3.53-6.19-5.83-12.97-8.17-19.67-2.05-5.81-6.59-10.17-9.76-15.33-3.36-6.17-7.66-12.5-6.5-19.92-.31 2.43-.82 4.82-1.41 7.2z" fill="#ffbaaa"/><path d="M107.16 161.17c.35-.36 1.06-1.07 1.41-1.43.31 7.02-1.18 13.92-1.41 20.92-.72-1.45-1.63-2.92-1.33-4.62.4-4.96.96-9.91 1.33-14.87zM68.28 332.36c1.21-.47 2.42-.94 3.62-1.4-2.02 1.11-3.87 2.57-4.52 4.89.14-.75.4-2.24.53-2.98-2.67.75-5.29 1.7-7.69 3.08l.09 1.58c3.55 2.4 7.33 4.46 11.18 6.34 2.31 1.07 4.6 2.2 6.77 3.54-3.94-.15-7.48-2.27-11.14-3.57a4.977 4.977 0 0 0-2.62-1.5c-2.5-1.95-4.08-5.05-7.13-6.22-.07-.44-.22-1.31-.29-1.74 1.98-.59 3.92-1.28 5.9-1.85 1.75-.24 3.53-.22 5.3-.17z" fill="#35201c"/><path fill="#b88277" d="M119.02 163.57c.77-2.46 3.48-2.95 5.74-2.83-.69 2.44-3.78 2.14-5.74 2.83z"/><path d="M99.48 162.6c.28-.16.82-.49 1.09-.66 1.13 6.21 2.15 13.01-1.01 18.82.7-6.05-.2-12.11-.08-18.16zm111.72 26.68c.69-.68 1.39-1.35 2.12-2l2.47.72c.9.58 1.8 1.18 2.7 1.78 1.44 1.52 2.66 3.23 3.74 5.02-1.32 1.17-2.72 2.29-3.83 3.67-.51 2.02.4 4.06.8 6.02-.58-.01-1.73-.05-2.31-.06-3.11-1.04-6-2.57-8.86-4.13.22-.56.65-1.69.86-2.25-2.21-.98-4.69-1.71-6.26-3.68 1.46.39 2.91.83 4.34 1.31 1.79-1.43 5.41-2.64 4.23-5.56l.36-.17c.77-.22 1.55-.41 2.34-.59l-2.7-.08m5.18.81c-1.3.17-1.98 2.66-.35 2.85 1.5.05 2.16-2.9.35-2.85z" fill="#febeb5"/><path fill="#3c201c" d="M273.16 164.54c9.53 6.82 19.17 14 26.19 23.5-.3-2.1-.7-4.19-1.15-6.26.82 1.14 1.65 2.28 2.45 3.45.02.34.07 1.03.09 1.37-.11 3.14.04 6.52-1.72 9.29-3.42 6.17-10.79 9.34-17.68 8.5 4.44-3.14 10.22-3.97 14.15-7.87 1.83-1.66 2.76-4 3.76-6.19-2.97-2.23-4.96-5.41-7.62-7.95-3.39-3.29-6.97-6.37-10.47-9.52-2.75-2.51-6.07-4.38-8.32-7.4-.46.66-.92 1.33-1.36 2-.32-.53-.96-1.6-1.28-2.13.98-.27 1.97-.53 2.96-.79z"/><path fill="#fdb8a7" d="M321.24 163.88c1.14.83 2.17 1.81 2.59 3.22.06.11.17.34.23.45 1.05 1.15 2.11 2.29 2.97 3.6-3.82.31-7.65.08-11.47.26 3.89 2.35 8.97 2.46 13.13.71 3.92 4.09 7.36 8.85 12.22 11.91-.37 2.86-.64 5.74-.82 8.63-.64.01-1.92.03-2.56.03-5.7-5-9.94-11.81-16.98-15.14-1.94-1.23-4.66-2.13-5.41-4.52-.98-2.77 2.41-3.54 4.12-4.73.66-1.48 1.31-2.95 1.98-4.42z"/><path fill="#feb2a3" d="M92.8 173.25c.61-3.42 2.64-6.11 5.26-8.29-.9 6.64 1.52 14.99-4.27 19.95-1.69-4.11 1.93-8.04 1.05-12.31-1.03 3.08-1.94 6.21-3.21 9.21-2.84-2.3 1.04-5.76 1.17-8.56z"/><path fill="#febaac" d="M114.08 167.71c1.53-.86 3.08-1.7 4.64-2.51.52.26 1.55.8 2.06 1.06.22.07.67.22.89.29 2.94-1.08 6.07-1.32 9.18-1.39 1.95 1.81 4.11 3.41 6.51 4.58l-.95.56c-1.44.02-2.87.02-4.3 0-.74 1.18-1.53 2.37-1.74 3.77 2.18 1.16 4.55 1.91 6.84 2.83 1.01.96 1.12 2.5 1.65 3.74-.66.14-1.99.4-2.65.54-7.81.3-15.42-3.26-19.91-9.71-.71-1.27-1.46-2.52-2.22-3.76m13.2 2.73c1.44-.32 3.38-1.19 4.05-2.64-1.17-1.92-4.31.93-4.05 2.64z"/><path fill="#ad7065" d="M127.28 170.44c-.26-1.71 2.88-4.56 4.05-2.64-.67 1.45-2.61 2.32-4.05 2.64z"/><path fill="#fff8f1" d="M163.67 170.16c1.94-1.02 3.76-2.25 5.64-3.39l.05 1.46c-2.55 4.18-5.8 7.85-8.75 11.73-1.59-.14-3.18-.26-4.77-.36 2.18-2.08 5.43-3.55 6.41-6.55-.53-.2-1.6-.61-2.13-.81-1.73.09-3.47.2-5.2.27l.16-2.03c2.23.08 4.46.32 6.68.51.48-.21 1.43-.62 1.91-.83z"/><path fill="#3c1e16" d="M324.06 167.55c-.06-.11-.17-.34-.23-.45 6.46 4.67 12.48 10.14 17.32 16.5.36-.34 1.08-1.01 1.44-1.35-.03 1.38-.07 2.75-.1 4.14-.14 2.84-.07 5.69-.02 8.54.67 7.26-1.34 14.57-5.54 20.52-.24-.28-.73-.83-.97-1.1l.08-.28c.21-.74.62-2.22.83-2.95-4.74 2.83-10.47 3.26-15.77 2.01l-.37-.66c6.27.18 13.43-.88 17.77-5.87 1.32-3.43 1.03-7.19 1.2-10.8-6.37-.31-12.76-.61-19.12-.15 4.99-3.24 11.24-2.87 16.95-2.96.64 0 1.92-.02 2.56-.03.18-2.89.45-5.77.82-8.63-4.86-3.06-8.3-7.82-12.22-11.91-4.16 1.75-9.24 1.64-13.13-.71 3.82-.18 7.65.05 11.47-.26-.86-1.31-1.92-2.45-2.97-3.6z"/><path d="M132.11 170.3c1.43.02 2.86.02 4.3 0-.27.16-.82.48-1.1.65-1.99.44-3.61 1.62-4.94 3.12.21-1.4 1-2.59 1.74-3.77zm115.97 17.55c.36-1.19 1-2.25 1.81-3.18-.33 3.56-1.6 6.97-3.51 9.98.42-2.3.98-4.58 1.7-6.8zm-20.3 1.35c1.53.12 3.05.27 4.59.4.99 1.69 1.9 3.45 2.47 5.34-1.87-2.47-4-4.79-7.06-5.74zm-3.53.98c2.39.06 3.04 2.65 3.45 4.55a44.95 44.95 0 0 0-3.45-4.55zm-49.68 17.17c1.62-.37 3.27-.57 4.92-.78-.01.55-.01 1.11 0 1.66-2.01.19-4.03.38-6.03.75.28-.41.83-1.23 1.11-1.63zm-13.17 15.9c3.02 2.34 6.91 2.39 10.56 2.32 3.32-.15 6.34 1.39 9.42 2.39 1.83.67 3.67 1.32 5.54 1.91 1.17.36 2.35.68 3.54.96 1.32-.04 2.64-.13 3.96-.21l-.04 1.86c-.32.16-.95.48-1.26.63-1.84.18-3.69-.01-5.48-.41-1.53-.63-3.04-1.31-4.55-1.97-2.92-1.18-5.65-2.77-8.16-4.67-4.91 1.04-10.04.9-14.5-1.59.24-.3.73-.91.97-1.22z" fill="#4f241d"/><path fill="#f0bfb2" d="M234.45 170.12c1.67-.49 2.23.07 1.67 1.68-1.69.44-2.25-.11-1.67-1.68z"/><path d="M374.94 169.19c5.07 3.38 10.62 6.47 14.26 11.51 1.92 2.15 3.53 5.16 6.58 5.8.52 1.12.88 2.28 1.09 3.49.27 11.94.27 23.95-1.8 35.75-3.12-2.85-7.69-3.15-10.77-6.02-2.81-2.56-5.44-5.31-8.11-8 .06-4.39.89-8.71 2.82-12.68 3.16-9.9 1.17-21-4.07-29.85zm-243.7 99.08c.59-2.38 1.1-4.77 1.41-7.2-1.16 7.42 3.14 13.75 6.5 19.92 3.17 5.16 7.71 9.52 9.76 15.33 2.34 6.7 4.64 13.48 8.17 19.67 1.64 2.81 3.44 5.81 6.58 7.14-.28-4.74-1.02-9.43-1.29-14.17 3.03 1.82 5.9 3.88 8.71 6.03 4.17 3.29 8.98 5.68 12.95 9.24-4.05 2.38-8.14 4.87-12.71 6.11-11.29 2.32-22.88 2.31-34.36 1.83-8.16-.56-15.79-3.84-23.35-6.72-4.1-1.39-6.87-4.92-10.64-6.85-2.93-.12-5.21 2.25-7.35 3.97 3.48 1.44 6.98 2.86 10.45 4.32l.96 2.08c-5.26-2.54-10.61-4.88-16.34-6.15 8.58-4.39 17-9.39 23.76-16.36 3.99-4.05 8.95-7.41 11.5-12.65 3.59-8.03 4.28-16.91 5.29-25.54z" fill="#fedcd3"/><path fill="#cd867a" d="M137.31 171.33c1.48-1.11 2.47 1.5 1.2 2.3-1.46 1.24-2.49-1.52-1.2-2.3z"/><path fill="#36201c" d="M91.46 172.2c.33.27 1 .79 1.34 1.05-.13 2.8-4.01 6.26-1.17 8.56 1.27-3 2.18-6.13 3.21-9.21.88 4.27-2.74 8.2-1.05 12.31.29 1.8.63 3.6 1.39 5.28-2.1 1.6-4.05 3.93-3.58 6.78-.03 6.6 6.75 10.18 12.39 11.3-6.99 1.04-14.82-4.86-14.44-12.22-.03-3.61 2.38-6.57 3.36-9.93l-1.54.24c-1.18 2.31-1.82 4.84-2.46 7.33-.52-.08-1.56-.23-2.08-.31-2.17-.7-.41-3.35.01-4.75l.08 3.67c1.13-2.8 5.24-7.17 1.55-9.48.81-3.59 1.78-7.14 2.99-10.62z"/><path d="M120.31 178.84c-1.46-2.36-3.84-4.42-4.01-7.37 4.49 6.45 12.1 10.01 19.91 9.71a303 303 0 0 0-1.36 1.87c-5.1-.35-10.11-1.62-14.54-4.21zm117.02 52.14c2.1-.25 4.21-.48 6.31-.7-4.06 8.1-7.31 16.79-7.28 25.98-1.81-3.28-.71-7.26-.42-10.76l-2.88.52.71 1.07-1.07.84c-.56 3.29-1.46 6.64-.91 10-2.12-1.4-4.36-2.6-6.52-3.93 1.77-3.31 4.92-5.78 6.94-8.99 1.62-2.19 2.05-4.99 3.6-7.22-.25 2.67-.89 5.36-2.41 7.62.96-.2 1.93-.39 2.9-.58-.18-4.63 2.15-8.8 3.74-13-1.41 1.43-2.54 3.08-3.72 4.7.32-1.85.66-3.7 1.01-5.55z" fill="#fcfffe"/><path fill="#bf887d" d="M140.82 171.79c1.41.36 2.81.74 4.2 1.15-.08 1.42-.18 2.84-.3 4.26-1.97-1.21-2.76-3.52-3.9-5.41z"/><path fill="#dba69a" d="M146.16 172.55c1.12-.65 3.07.96 2.43 2.16-1.22.86-3.31-.85-2.43-2.16z"/><path fill="#3f130a" d="M238.43 176.23c.58.57.58.57 0 0z"/><path fill="#926359" d="M244.7 178.96c1.24-.29 2.48-.59 3.71-.93-.08.35-.24 1.03-.32 1.37-1.07.52-2.15 1.04-3.22 1.55-.06-1.34-3.04-1.67-2.59-.07.46.11 1.38.34 1.84.46-.84.69-2.73.85-2.49 2.27-1.23-1.07-2.44-2.16-3.65-3.25.82-.14 2.47-.41 3.29-.55l-.66-.53c1.36-.09 2.73-.2 4.09-.32z"/><path fill="#ffe7de" d="M351.74 179.93c1.05-.75 2.12-1.5 3.19-2.24 3.39 3.88 5.51 9.1 10.58 11.19l-.21.92c-1.52.81-3.06 1.57-4.6 2.34-1.57-4.89-4.4-9.6-8.96-12.21z"/><path fill="#421c14" d="M242.28 180.88c-.45-1.6 2.53-1.27 2.59.07l-.75.39c-.46-.12-1.38-.35-1.84-.46z"/><path fill="#feb2a7" d="M127.09 183.83c2.14.52 4.31.95 6.45 1.51 5.51 2.76 11.91.91 17.8 1.87-8.55 3.08-18.41 2.54-26.62-1.31.79-.69 1.57-1.38 2.37-2.07z"/><g fill="#422d2a"><path d="M104.66 185.21c.55-.09 1.66-.28 2.21-.37-.88 13.27.32 27.04 6.01 39.23 2.88 7.53 7.78 13.98 12.55 20.38 5.36 6.1 10.04 12.9 16.5 17.92 5.38 3.61 11.41 6.34 17.8 7.53 10.08 2.33 20.97 1.71 30.35-2.84 8.15-3.4 15.16-8.8 22.02-14.23l.16 2.32c-.23.26-.71.78-.94 1.03-5.99 5.46-12.98 9.6-20.41 12.79-11.93 7.01-26.67 5.13-39.36 1.4-3.58-1.66-7.25-3.21-10.51-5.44-3.58-2.8-6.67-6.17-9.6-9.63.02 4.32-.05 8.64-.2 12.97-1.01 8.63-1.7 17.51-5.29 25.54-2.55 5.24-7.51 8.6-11.5 12.65-6.76 6.97-15.18 11.97-23.76 16.36 5.73 1.27 11.08 3.61 16.34 6.15 11.14 4.43 22.59 8.27 34.41 10.39 10.19.86 20.43 1.84 30.66 1.34 4.9-.17 9.03-3.2 12.89-5.9 6.24-4.51 13.38-8.56 17.38-15.38.54-.2 1.64-.6 2.19-.8.45-1.41.91-2.82 1.41-4.2 3.2-9.04 8.44-17.13 12.42-25.82 1.78-3.61.59-7.69.09-11.46-.77-6.33-4.01-11.96-5.27-18.16l.11-1.51c1.65 2.92 2.76 6.1 4.2 9.13.65 1.2 1.41 2.35 2.12 3.53 3.6 5.39 3.16 12.26 2.64 18.4-2.28 5.61-5.53 10.79-8.42 16.11-5.56 8.77-9.68 18.57-16.97 26.11-4.51 3.16-9.08 6.24-13.57 9.43-7.59 3.5-16.24 2.12-24.33 2.19-11.23-.67-22.6-.98-33.5-4.04-7.8-2.27-15.92-3.82-23.18-7.61-6.22-3.08-13.43-3.83-19.18-7.87-3.19-2.12-4.48 2.91-6.3 4.64-1.28 1.16-2.64 2.22-4.04 3.23-.38-.21-1.14-.64-1.51-.86 3.23-3.78 4.78-8.81 8.7-12.12 2.61-.3 4.28 3.01 6.92 3.14 8.38-4.49 17.26-8.25 24.78-14.18 3.73-3.28 7.2-6.9 10.17-10.89 4.45-6.39 5.17-14.34 6.4-21.8.89-6.97 1.51-14.02 1.26-21.05-5.14-5.51-9.49-11.68-13.77-17.86-8.48-14.02-12.71-30.64-11.12-47.02l-1.72 1.76c-1.9.01-3.9.16-5.65-.78 1.48-.63 3-1.15 4.52-1.67-.53-.21-1.58-.62-2.11-.82h.15c1.5.09 3 .21 4.5.35.09-.42.26-1.28.35-1.71z"/><path d="M98.59 268.2c.6-2.47.92-5 1.64-7.44.84 4.31-.94 8.62-1.85 12.79-1.41 4.77-3.42 10.33-8.3 12.49 5.01-4.67 7.07-11.35 8.51-17.84z"/></g><path fill="#89584e" d="M203.32 185.15c3.07-1.54.14 3.26 0 0z"/><path fill="#af7166" d="M234.21 188.11c1.74-.58 3.71 1.71 3.49 3.38-1.45.04-3.77-1.79-3.49-3.38z"/><path fill="#ca8c80" d="M216.38 190.09c1.81-.05 1.15 2.9-.35 2.85-1.63-.19-.95-2.68.35-2.85z"/><path fill="#93584c" d="M218.49 189.78c1.48.67 3.68.65 4.42 2.39.23 1.38.34 2.78.32 4.19l-1-1.56c-1.08-1.79-2.3-3.5-3.74-5.02z"/><path fill="#fda592" d="M320.58 195.65c6.36-.46 12.75-.16 19.12.15-.42 2.1-1.09 4.15-2.33 5.91-3.81-1.05-7.37-2.97-11.34-3.35-2.07-.3-4.59-.4-5.45-2.71z"/><path fill="#52372f" d="M250.14 196.97c.37.38 1.13 1.14 1.5 1.52-1.64 5.77-8.4 7.85-9.61 13.77l-.08.42c-.13.72-.41 2.16-.54 2.88-4.18.94-8.48 1.44-12.48 3.05 1.62-.76 3.24-1.57 4.94-2.16 1.95-.7 4.56-.84 5.24-3.21 1.52-3.69 3.78-7.39 3.53-11.52.88-1.11 1.81-2.16 2.72-3.25l.95 1.85c-.24 1.03-.48 2.06-.72 3.1 1.56-2.12 2.99-4.33 4.55-6.45z"/><path fill="#fdeae2" d="M171.38 198.5c1.25-1.18 3.77.78 2.51 2.2-1.31 1.28-3.78-.77-2.51-2.2z"/><path fill="#f4e1da" d="m76.54 199.45 1.44-.56c-.83 4.34-4.17 7.72-4.99 12.1-1.82 5.67-2.09 11.64-1.7 17.53-.14 0-.41-.02-.55-.02-.12-1.56-.26-3.12-.42-4.66-1.41-3.96.19-8.02.77-11.96.59-4.56 2.88-8.7 5.45-12.43z"/><path fill="#f9a592" d="M361.3 200.43c4.73 1.64 8.96 4.31 13.26 6.8l-.8 2.45c-1.64-.91-3.28-1.82-4.93-2.69-.06 4.62 1.06 9.15.93 13.78-.49.33-1.47 1.01-1.96 1.34-.38-.58-.76-1.15-1.14-1.72-2.21-6.54-5.74-12.81-5.36-19.96z"/><path fill="#fedad0" d="M111.59 202.84c.82 1.23 1.68 2.44 2.54 3.65 5.54.1 11.12-.02 16.62.6.25-.18.74-.54.98-.72.12.55.35 1.65.47 2.2 1.27-.82 2.41-2.27 4.07-2.12 4.45.27 8.8 1.4 13.14 2.35 2.34 2.46 5.11 4.44 7.59 6.73-3.26.93-6.58 1.95-10.01 1.77-.85.79-1.69 1.57-2.53 2.37l-.38-.21c-.21-.5-.63-1.5-.85-2-.99-.07-1.98-.12-2.97-.15-.32 1.38-.97 2.75-.8 4.2 4.91 3.35 8.68 8.09 13.68 11.33 2.24 1.25 3.23 4.27 5.97 4.65 3.46.69 6.64 2.29 10.05 3.13 1.71.63 2.57-1.18 3.65-2.1 2.98-.29 5.97-.44 8.94-.86 4.09-.61 7.72-2.73 11.37-4.55.31-.15.94-.47 1.26-.63l.04-1.86c-1.32.08-2.64.17-3.96.21.01-1.73-.29-3.42-.92-5.02-1.3-.13-2.61-.22-3.87-.55-1.03-1.45-1.58-3.15-2.22-4.79 2.25-.22 4.19-1.42 6.28-2.15 2.59-.8 4.96 1.19 7.54 1.04 2.25.01 4.72-.74 6.77.56 2.43 1.4 4.21 3.62 6.12 5.63l3.58-.54c-.47.74-.95 1.48-1.42 2.22 1.57-.66 3.14-1.32 4.74-1.9l.28.98c.32 1.43.88 2.79 1.67 4.03 1.09.19 2.17.37 3.27.53 2.61.5 5.26.49 7.9.54-2.91 4.68-5.97 9.32-9.7 13.4.56-4.77 5-7.73 6.83-12-1.45-.09-2.91-.17-4.36-.24-4.07 5.65-7.89 11.63-13.33 16.09-5.16 4-11.19 6.66-16.41 10.58-5.21 3.98-11.5 6.11-17.68 8.08-4.89.71-9.88-.08-14.77.83 1 .55 2.01 1.11 3.02 1.68-1.35.03-2.7.06-4.05.07-6.39-1.19-12.42-3.92-17.8-7.53l1.34-.22c-4.56-5.87-10.16-10.85-14.44-16.95-7.78-10.1-11.91-22.33-15.84-34.3-.92-2.59-1.16-5.34-1.4-8.06z"/><path d="M75.97 211.97c.54.78 1.07 1.57 1.6 2.36-1.29 8.6-.14 17.34 2.56 25.56 1.51 4.16 1.35 8.63.91 12.96-.31-3.8.17-7.76-1.26-11.38-1.86-5.32-3.81-10.68-4.33-16.33-.47-4.4.24-8.8.52-13.17zm141.37 14.34c1.43-2.37 3.43-4.29 5.45-6.17l-.37.72c-.69 1.36-1.4 2.71-2.05 4.09l-1.04 2.16c.52.98 1.04 1.95 1.56 2.93-.47.07-1.41.23-1.88.3-.79-1.24-1.35-2.6-1.67-4.03zm47.31-1.61c11.16-1.4 22.07-4.97 33.39-4.85 5.42.64 11.11-.04 16.25 2.12 3.66 1.37 7.47 2.32 11.05 3.93 7.54 3.29 15.56 5.17 23.57 6.89 8.61 1.91 17.5-.33 26.13 1.47 5.76 1.21 11.62 2.06 17.24 3.87.17.41.51 1.24.67 1.65-7.38-.28-14.45-3.04-21.84-3.38-7.43-.67-14.98.94-22.31-.88-7.88-1.71-15.7-4-22.96-7.54-5.08-2.37-10.09-5.38-15.85-5.48-9.03.01-18.14-.26-27.06 1.4-4.86.99-9.88 1.43-14.64 2.77.15 3.59.8 7.37-.49 10.82-1.24-3.59-.61-7.39-.28-11.07-.96-.58-1.92-1.15-2.87-1.72z" fill="#361a16"/><path fill="#918684" d="M87.42 214.87c2.98 3.54 6.02 7.08 9.68 9.94 3.75 3.36 8.12 6.69 9.35 11.87-.8-.38-2.4-1.13-3.2-1.5-4.7-6.14-11.61-10.13-16.18-16.41l.25.02 1.85.18c-.58-1.37-1.16-2.74-1.75-4.1z"/><path fill="#f5a899" d="M140.26 217.31c.99.03 1.98.08 2.97.15.22.5.64 1.5.85 2-.63-.1-1.91-.28-2.54-.38.92 3.06 4.18 4.06 6.97 4.64.84 2.31 2.51 4.11 4.77 5.1 7.05 3.66 14.93 5.23 22.72 6.38 3.99.3 8.6.62 11.64-2.5 1.79.4 3.64.59 5.48.41-3.65 1.82-7.28 3.94-11.37 4.55-2.97.42-5.96.57-8.94.86-1.08.92-1.94 2.73-3.65 2.1-3.41-.84-6.59-2.44-10.05-3.13-2.74-.38-3.73-3.4-5.97-4.65-5-3.24-8.77-7.98-13.68-11.33-.17-1.45.48-2.82.8-4.2z"/><path fill="#efab9f" d="M146.02 220.5c5.62-.66 11.16-3.8 16.88-2.06 3.32 1.03 6.69 1.89 10.13 2.42 4.43.5 7.8 3.64 11.54 5.74 1.35.59 1.7 2.09 2.35 3.27-1.87-.59-3.71-1.24-5.54-1.91-2.12-4.61-7.78-5.54-12.31-5.9-4.45-.43-9.55-4.53-13.47-.5-3.2-.14-6.53.14-9.58-1.06z"/><path fill="#e38075" d="M155.6 221.56c3.92-4.03 9.02.07 13.47.5 4.53.36 10.19 1.29 12.31 5.9-3.08-1-6.1-2.54-9.42-2.39-3.65.07-7.54.02-10.56-2.32-.57-.31-1.72-.93-2.3-1.24-1.16-.2-2.33-.35-3.5-.45z"/><path fill="#d05d53" d="M159.1 222.01c.58.31 1.73.93 2.3 1.24-.24.31-.73.92-.97 1.22 4.46 2.49 9.59 2.63 14.5 1.59 2.51 1.9 5.24 3.49 8.16 4.67l-1.38 1.78c-5.39-.14-10.51-1.73-15.57-3.43l-.75-.23c-1.96-.74-3.93-1.57-6.06-1.59-.36-.5-1.08-1.48-1.45-1.98-.32.24-.97.71-1.29.95-.79.07-1.58.11-2.37.16.44-.79.86-1.59 1.28-2.39l-.67-.82c1.43-.38 2.83-.82 4.27-1.17z"/><path fill="#db7065" d="M148.51 223.72c2.11-.1 4.22-.29 6.32-.54l.67.82c-.42.8-.84 1.6-1.28 2.39.79-.05 1.58-.09 2.37-.16-.37 1.8 1.79 2.36 2.74 1.03 2.13.02 4.1.85 6.06 1.59-1.78 1.81 1.76 2.67.75.23 5.06 1.7 10.18 3.29 15.57 3.43l1.38-1.78c1.51.66 3.02 1.34 4.55 1.97-3.04 3.12-7.65 2.8-11.64 2.5-7.79-1.15-15.67-2.72-22.72-6.38-2.26-.99-3.93-2.79-4.77-5.1z"/><path fill="#edb1a5" d="M156.59 226.23c.32-.24.97-.71 1.29-.95.37.5 1.09 1.48 1.45 1.98-.95 1.33-3.11.77-2.74-1.03z"/><path fill="#8c7b77" d="M63.19 229.4c1.47.27 2.42 2.86 1.87 4.24-1.62-.16-2.51-2.85-1.87-4.24z"/><path fill="#fab19f" d="m165.39 228.85.75.23c1.01 2.44-2.53 1.58-.75-.23z"/><path fill="#7e6964" d="M71.28 231.19c2.08.18.84 4.25-.94 3.3-.64-1.04-.31-2.87.94-3.3z"/><path fill="#febaaa" d="M209.62 248.66c5.44-4.46 9.26-10.44 13.33-16.09 1.45.07 2.91.15 4.36.24-1.83 4.27-6.27 7.23-6.83 12-1.46 1.92-3.08 3.73-4.92 5.3-1.14.92-2.31 1.8-3.46 2.72-6.86 5.43-13.87 10.83-22.02 14.23-9.38 4.55-20.27 5.17-30.35 2.84 1.35-.01 2.7-.04 4.05-.07-1.01-.57-2.02-1.13-3.02-1.68 4.89-.91 9.88-.12 14.77-.83 6.18-1.97 12.47-4.1 17.68-8.08 5.22-3.92 11.25-6.58 16.41-10.58z"/><path fill="#526cb0" d="M212.26 255.15c2.39.04 4.77.24 7.13.55-.96 3.58-.34 7.47-1.87 10.9-1.44-3.03-2.55-6.21-4.2-9.13l-.11 1.51c-.62-.95-1.25-1.88-1.89-2.8.23-.25.71-.77.94-1.03z"/><path fill="#604e4b" d="m239.81 254.95 1.14-.02c-.01 2.75 1.01 5.76-.37 8.32-.44-2.75-.63-5.53-.77-8.3z"/><path fill="#fea290" d="M190.91 268.97c7.43-3.19 14.42-7.33 20.41-12.79.64.92 1.27 1.85 1.89 2.8 1.26 6.2 4.5 11.83 5.27 18.16.5 3.77 1.69 7.85-.09 11.46-3.98 8.69-9.22 16.78-12.42 25.82-1.05.47-2.1.96-3.15 1.44.74-7.51 2.29-14.97 2-22.56-10.93-.23-22.05-1.57-32.17-5.92-4.55-2.05-9.35-3.67-13.48-6.55-5.94-4.14-12.65-7.41-17.5-12.94 2.73.91 5.32 2.19 8.01 3.18.47-.17 1.4-.52 1.87-.7 12.69 3.73 27.43 5.61 39.36-1.4z"/><path fill="#3f70b4" d="M223.01 257.71c2.8-.09 5.43 1.51 8.08 2.38 1.86.43 2.67 2.24 3.62 3.7-2.14.61-4.36 1.47-6.61.96-2.84-.39-4.45-3-6.26-4.92.29-.53.87-1.59 1.17-2.12z"/><path fill="#4671b4" d="M243.24 259.15c2.72.21 5.45.42 8.18.59.42 4.6-2.29 8.67-4.71 12.34-2.32-1.26-.64-3.96-1.9-5.79-1.37-2.15-1.54-4.67-1.57-7.14z"/><path fill="#576bb5" d="M278.07 260.48c5-.14 9.94-1.2 14.96-.94 10.03.22 20.1-.68 30.09.29-4.53.4-8.72 2.28-13.07 3.46-4.13 1.17-7.53 4.53-12.02 4.43-2.31-.13-4.4.84-6.3 2.03-4.13 2.63-9.22 2.52-13.68 4.3-3.44 1.34-7.2 1.19-10.7 2.29-1.94.64-4 .34-6 .53-2.53 1.06-4.9 2.5-7.56 3.27 2.57-2.57 5.25-5.01 7.89-7.5 3.57-3.33 5.7-7.81 7.85-12.12 2.85-.04 5.69-.02 8.54-.04z"/><path d="M221.84 259.83c1.81 1.92 3.42 4.53 6.26 4.92 2.25.51 4.47-.35 6.61-.96 2 3.47 4.5 6.73 5.73 10.59.98 3.72-2.06 6.72-3.66 9.76 1.04 5.55.08 11.55 3.34 16.52l.07.13c-.54.09-1.62.26-2.15.35l-.5.28c-1.23 1.99-2.51 3.97-4.17 5.65-2.06 1.8-3.96 4.33-7.02 4.08 6.09-14.28 6.15-31.65-2.08-45.11 8.22 15.25 5.92 34.13-2.18 48.93l-1.71-.36c-1.78 1.1-5.33 5.1-6.43 1.4 1.31-3.74 2.1-7.62 1.77-11.59-.46.05-1.39.17-1.86.22 2.89-5.32 6.14-10.5 8.42-16.11.52-6.14.96-13.01-2.64-18.4.28-3.52 1.07-6.97 2.2-10.3zm130.84 61.68c1.15-6.55 2.07-13.13 2.55-19.77.9 1.56 2.2 2.8 3.67 3.83-.2 3.38-.2 6.8-.77 10.16-1.6 1.99-2.49 5.73-5.45 5.78z" fill="#576ab5"/><path fill="#4e74ae" d="M254.68 260.49c.51-.06 1.54-.19 2.05-.26-.12 2.08-.07 4.29-1.29 6.1-2.35 3.96-3.71 8.63-7.32 11.72-4.01 3.41-6.9 7.82-9.93 12.06-.29-3.72 1.41-7.14 3.99-9.72.45.24 1.36.7 1.81.94.41-1.83.76-3.81 2.28-5.08 4.49-4.12 7.15-9.86 8.41-15.76z"/><path fill="#5d4f4e" d="M266.16 260.22c1.44.21.8 2.54-.39 2.68-1.49-.17-.85-2.59.39-2.68z"/><path fill="#3f70b3" d="M310.05 263.29c4.35-1.18 8.54-3.06 13.07-3.46 2.88.46 5.78 1.22 8.22 2.89 8.78 5.96 16.49 13.3 24.61 20.1-2.06-3.89-5.32-6.92-8.04-10.32 6.7-1.75 13.69-2.41 20.59-1.74 4.48.61 8.47 2.89 12.76 4.2-1.06 4.1-3.1 7.84-5.08 11.56l-1.17-.57c-3.75-2.18-8.19-2.2-12.39-2.55 2.18 4.8 4.52 9.59 7.44 14-1 2.53-1.79 5.86-4.73 6.74-.92-2.25-1.39-5.78-4.24-6.23-1.32 2.34-1.74 5.04-2.19 7.66-1.47-1.03-2.77-2.27-3.67-3.83.11-1.56.24-3.12.34-4.68-2.98 5.6-2.56 12.01-4.18 17.96-.74-6.45.46-12.92.01-19.34-2.38-4.14-6.28-7.1-9.31-10.74-5.32-6.21-11.32-12.28-19.01-15.44-9.79 1.11-18.67 5.87-28.36 7.36-12.45 5.65-26.05 8.84-37.64 16.31-.76 2.48.39 5.19.52 7.75 2.07 13.38 1.72 27.04-.51 40.37.81-12.12-.11-24.25-1.01-36.33-1.12-6.86-1.84-13.87-4.42-20.37-1.24-1.91 1-3.23 2.13-4.45 2.66-.77 5.03-2.21 7.56-3.27 2-.19 4.06.11 6-.53 3.5-1.1 7.26-.95 10.7-2.29 4.46-1.78 9.55-1.67 13.68-4.3 1.9-1.19 3.99-2.16 6.3-2.03 4.49.1 7.89-3.26 12.02-4.43z"/><path fill="#675a58" d="M235.23 261.28c1.21-.52 2.44 1.46 1.7 2.44-1.23.51-2.48-1.45-1.7-2.44z"/><path d="M224.27 266.04c8.23 13.46 8.17 30.83 2.08 45.11-5.44 12.33-14.03 23.1-23.9 32.18-2.59 2.42-5.39 4.68-8.8 5.81 3.29-3.17 6.72-6.21 9.82-9.58.22-.23.65-.69.87-.92 3.42-3.46 6.36-7.34 9.4-11.12 3.26-3.85 6.01-8.1 8.35-12.55 8.1-14.8 10.4-33.68 2.18-48.93zm-32.19 84.3 2.07-.08c-5.14 3.54-10.98 5.89-16.79 8.07-8.76 3.24-18.2 3.08-27.37 3.92-6.38.58-12.69-.79-19.06-.94-7.62-1.08-15.11-2.96-22.72-4.18-3.35-.56-6.78-.75-10.04-1.78l1.2-.09c2.49.33 4.99.65 7.48 1.05 1.17.18 2.34.37 3.51.59.55.09 1.66.29 2.21.38 7.84.47 15.51 2.47 23.39 2.38 9.34.85 18.77.23 28.07-.81l1.98-.24c5.24-.71 10.41-1.95 15.36-3.83 1.21-.46 2.41-.92 3.63-1.37 2.42-.86 4.8-1.86 7.08-3.07z" fill="#302724"/><path fill="#685c5a" d="M239.15 267.24c1.82-.47 3.78 3.44 2.27 4.36-.98-1.19-2.71-2.7-2.27-4.36z"/><path fill="#7096c3" d="M294.72 276.86c9.69-1.49 18.57-6.25 28.36-7.36 7.69 3.16 13.69 9.23 19.01 15.44 3.03 3.64 6.93 6.6 9.31 10.74.45 6.42-.75 12.89-.01 19.34-.57.66-1.15 1.32-1.73 1.98.2.48.59 1.43.79 1.91-.57 2.45-.99 4.92-1.49 7.39-1.64 2.52-3.16 5.23-5.56 7.13-.05-9.45 2.18-19.26-.81-28.45-3.14 6.43-3.42 13.73-6.15 20.29-2.33 7.35-4.4 14.82-7.62 21.85-7.64 7.82-16.95 13.79-26.07 19.76a235.286 235.286 0 0 1-32.76 16.32c-1.42.49-2.84 1.44-4.4 1.01 2.57-6.67 4.82-13.46 7.75-19.99 3.71-9.19 4.98-19.08 7.88-28.5.69-4.22.99-8.49 1.67-12.7 1.72-12.44.84-25.2-2.38-37.32-.54 1.06-1.22 2.09-1.43 3.29-1.62 8.08-.9 16.54-3.37 24.46-.61 1.99-.53 4.09-.44 6.15-1.2 5.37-2.26 10.78-2.8 16.27-.32-.56-.64-1.12-.95-1.68.21 7.59-2.11 15.02-4.76 22.05-.41-5.87 1-11.82-.26-17.63-.13-1.41-1.24-2.27-2.34-2.98-.28 12.92-5.94 24.76-11.42 36.17-3.59 5.62-9.58 8.99-14.51 13.29-4.28 3.73-9.85 5.51-14.12 9.24-1.92 1.69-4.77.8-7.11 1.15-18.65 2.25-37.61.63-55.98-3-25.73-5.25-50.38-15.65-72.09-30.42-2.44-1.63-5.64-2.44-7.15-5.17 18.15 4.4 36.5 8.96 55.28 9.3 17.66 0 35.38-2.82 51.97-8.94 10.41-3.4 19.69-10.11 26.38-18.76 3.2-5.11 7.23-9.65 10.21-14.91 3.3-5.15 5.23-10.97 7.75-16.51 1.66-1.68 2.94-3.66 4.17-5.65l.5-.28c1.74 4.86 4.69 10.13 10.41 10.71.14 1.4.26 2.79.4 4.2.39.26 1.18.78 1.57 1.03-1.52 2.85-.24 6.17-.19 9.2-3.02-4.63-4.9-9.91-8.09-14.43-.65-1.17-1.98-1.52-3.1-2.04 2.32 10.22 3.25 20.73 2.7 31.21-.39 6.03-.67 12.08-.64 18.13 3.59-.96 4.93-4.76 6.39-7.76 3.58-7.71 2.55-16.41 2.82-24.64 1.39 5.55 1.65 11.39 3.97 16.69.28 4.17.31 8.36.77 12.52 1.21-4.81 1.39-9.77 2.04-14.67 2.23-13.33 2.58-26.99.51-40.37-.13-2.56-1.28-5.27-.52-7.75 11.59-7.47 25.19-10.66 37.64-16.31z"/><path d="M362.62 283.4c4.2.35 8.64.37 12.39 2.55l.7 1.01c-2.11 3.36-3.64 7.03-5.65 10.44-2.92-4.41-5.26-9.2-7.44-14zm-118.17 17.63c-.07-2.76-.14-5.53.22-8.27 1.11 3.41 1.97 6.91 2.29 10.5-.82-.78-1.66-1.51-2.51-2.23z" fill="#7198c4"/><path d="M244.67 292.76c.57-2.26.89-6.83 4.1-6.39 3.56 10.79 3.71 22.33 4.75 33.56-.2 7.86 1.33 15.66.76 23.51-2.32-5.3-2.58-11.14-3.97-16.69l-.08-.47c-.05-3.03-1.33-6.35.19-9.2-.39-.25-1.18-.77-1.57-1.03-.14-1.41-.26-2.8-.4-4.2-5.72-.58-8.67-5.85-10.41-10.71.53-.09 1.61-.26 2.15-.35 1.53 1.74 3.27 3.28 5.23 4.51.33 2.02.98 4.01 2.84 5.14-.29-1.93-.63-3.83-1.01-5.73-.08-.36-.22-1.09-.29-1.45-.32-3.59-1.18-7.09-2.29-10.5zm34.41-3.77c.21-1.2.89-2.23 1.43-3.29 3.22 12.12 4.1 24.88 2.38 37.32-.68 4.21-.98 8.48-1.67 12.7-2.9 9.42-4.17 19.31-7.88 28.5-2.93 6.53-5.18 13.32-7.75 19.99-2.03 2.3-5.65 3.16-8.63 3.22 5.3-11.1 9.8-22.59 13.35-34.37 2.67-10.92 6.13-22.12 4.96-33.46-.09-2.06-.17-4.16.44-6.15 2.47-7.92 1.75-16.38 3.37-24.46z" fill="#3f70b2"/><path fill="#475171" d="M240.99 292c.54-.13 1.64-.38 2.18-.51-.08 2.89-.26 5.82.28 8.68l1 .86c.85.72 1.69 1.45 2.51 2.23.07.36.21 1.09.29 1.45l-1.83.59c-1.96-1.23-3.7-2.77-5.23-4.51l-.07-.13c.53-2.86.47-5.79.87-8.66z"/><path fill="#3f4f77" d="M361.09 297.91c2.85.45 3.32 3.98 4.24 6.23l.08 1.92c-.48.24-1.45.73-1.93.97-1.24 3.26-3.31 5.95-5.35 8.7.57-3.36.57-6.78.77-10.16.45-2.62.87-5.32 2.19-7.66z"/><path fill="#3f70b1" d="M213.86 304.64c.47-.05 1.4-.17 1.86-.22.33 3.97-.46 7.85-1.77 11.59 1.1 3.7 4.65-.3 6.43-1.4l1.71.36c-2.34 4.45-5.09 8.7-8.35 12.55-4.3-.58-7.16 3.92-10.66 5.78.42 1.78.83 3.55 1.26 5.34-.22.23-.65.69-.87.92-1.09-1.16-2.21-2.29-3.34-3.4-3.95 2.75-8.51 4.34-12.91 6.17.55 2.24.89 4.52 1.07 6.82-1.13-.73-2.25-1.47-3.32-2.28-.7-1.13-1.35-2.3-2.03-3.43-3.09-.42-6.17.21-9.21.62-.53 4.15-.81 8.33-1.63 12.44-4.62-2.32-4.1-8.17-4.92-12.51-2.87.05-6.01-.76-8.72.38-2.09 4.69-2.61 9.93-4.83 14.57l-.66.28c-1.2.27-2.31 0-3.34-.79-.28-2.83.02-5.69.34-8.51l.23-.86c.28-.92.56-1.83.85-2.74 1.04.12 2.08.24 3.12.35.03-1.54-.93-2.96-2.54-3.11-4.41-.66-8.88-.33-13.32-.27-2.72 5.09-3.96 10.95-7.45 15.62-1.72.25-1.84-1.66-1.94-2.85-.22-4.52 1.09-8.89 2.16-13.22-3.18-.94-6.48-2.08-9.84-1.59-1.34.68-1.92 2.18-2.66 3.39-2.13 4.15-4.42 8.24-6.01 12.64-.55-.09-1.66-.29-2.21-.38.61-3.38 1.6-6.66 2.95-9.81.95-2.32 1.9-4.64 2.8-6.97-2.2-.72-4.39-2.13-6.78-1.76-4.59 4.25-7.11 10.45-12.47 13.93.1-5.69 3.32-10.53 5.72-15.46a209.47 209.47 0 0 0-7.62-3.1c-5.73 3.76-9.64 9.47-14.69 13.98 3.37 1.62 6.56 3.69 10.12 4.9 3.04.71 6.29.86 8.98 2.65l-1.2.09c3.26 1.03 6.69 1.22 10.04 1.78 7.61 1.22 15.1 3.1 22.72 4.18 6.37.15 12.68 1.52 19.06.94 9.17-.84 18.61-.68 27.37-3.92 5.81-2.18 11.65-4.53 16.79-8.07l-2.07.08c.39-.3 1.17-.9 1.57-1.2 3.41-1.13 6.21-3.39 8.8-5.81 9.87-9.08 18.46-19.85 23.9-32.18 3.06.25 4.96-2.28 7.02-4.08-2.52 5.54-4.45 11.36-7.75 16.51-2.98 5.26-7.01 9.8-10.21 14.91-6.69 8.65-15.97 15.36-26.38 18.76-16.59 6.12-34.31 8.94-51.97 8.94-18.78-.34-37.13-4.9-55.28-9.3-4.4-1.47-7.04-5.53-10.58-8.27-1.5-1.46-3.96-2.39-4.08-4.78 3.66 1.3 7.2 3.42 11.14 3.57 2.73-5.77 6.86-10.68 9.88-16.25-1.66.04-3.56-.21-4.77 1.19-4 3.79-8.61 7.03-11.88 11.52-3.85-1.88-7.63-3.94-11.18-6.34 1.81-.4 3.63-.79 5.44-1.19-.18.83-.36 1.67-.54 2.51 1.31.93 2.63 1.87 3.95 2.82 3.56-4.39 6.8-9.17 11.68-12.23-1.34-.65-2.67-1.3-4.01-1.95 1.82-1.73 3.11-6.76 6.3-4.64 5.75 4.04 12.96 4.79 19.18 7.87 7.26 3.79 15.38 5.34 23.18 7.61 10.9 3.06 22.27 3.37 33.5 4.04 8.09-.07 16.74 1.31 24.33-2.19 4.49-3.19 9.06-6.27 13.57-9.43 7.29-7.54 11.41-17.34 16.97-26.11z"/><path fill="#6d95c3" d="m245.42 305.3 1.83-.59c.38 1.9.72 3.8 1.01 5.73-1.86-1.13-2.51-3.12-2.84-5.14z"/><path d="M342.59 304.98c2.99 9.19.76 19 .81 28.45l-.01.31c-3.83 3.71-7.59 7.5-11.33 11.32-.88.97-1.97 1.71-3.24 2.06 3.22-7.03 5.29-14.5 7.62-21.85 2.73-6.56 3.01-13.86 6.15-20.29zm-103.55 4.83c1.12.52 2.45.87 3.1 2.04 3.19 4.52 5.07 9.8 8.09 14.43l.08.47c-.27 8.23.76 16.93-2.82 24.64-1.46 3-2.8 6.8-6.39 7.76-.03-6.05.25-12.1.64-18.13.55-10.48-.38-20.99-2.7-31.21zm25.12 25.82c1.1.71 2.21 1.57 2.34 2.98 1.26 5.81-.15 11.76.26 17.63-2.72 11.17-7.54 21.75-12.6 32.04-7.78 3.02-16.06 4.18-24.19 5.82-1.93.45-3.91.44-5.86.23 4.27-3.73 9.84-5.51 14.12-9.24 4.93-4.3 10.92-7.67 14.51-13.29 5.48-11.41 11.14-23.25 11.42-36.17zm-99.84 10.06c3.16 3.6 2.16 8.6 1.69 12.92l-1.98.24c-2.57-3.89-3.39-9.68.29-13.16z" fill="#76b0cc"/><path fill="#324063" d="M275.27 319.6c1.17 11.34-2.29 22.54-4.96 33.46-3.55 11.78-8.05 23.27-13.35 34.37-.7.22-2.1.64-2.8.85 5.06-10.29 9.88-20.87 12.6-32.04 2.65-7.03 4.97-14.46 4.76-22.05.31.56.63 1.12.95 1.68.54-5.49 1.6-10.9 2.8-16.27z"/><path fill="#749acb" d="M203.08 333.3c3.5-1.86 6.36-6.36 10.66-5.78-3.04 3.78-5.98 7.66-9.4 11.12-.43-1.79-.84-3.56-1.26-5.34z"/><path fill="#6e97c2" d="M72.79 330.72c1.4-1.01 2.76-2.07 4.04-3.23 1.34.65 2.67 1.3 4.01 1.95-4.88 3.06-8.12 7.84-11.68 12.23-1.32-.95-2.64-1.89-3.95-2.82.18-.84.36-1.68.54-2.51-1.81.4-3.63.79-5.44 1.19l-.09-1.58c2.4-1.38 5.02-2.33 7.69-3.08-.13.74-.39 2.23-.53 2.98.65-2.32 2.5-3.78 4.52-4.89-1.2.46-2.41.93-3.62 1.4-1.77-.05-3.55-.07-5.3.17 2.54-1.09 5.11-2.14 7.74-2.99l.56.32c.37.22 1.13.65 1.51.86z"/><path fill="#75a5c9" d="M83.37 332.35c1.21-1.4 3.11-1.15 4.77-1.19-3.02 5.57-7.15 10.48-9.88 16.25-2.17-1.34-4.46-2.47-6.77-3.54 3.27-4.49 7.88-7.73 11.88-11.52z"/><path fill="#6f97c2" d="M80.27 347.71c5.05-4.51 8.96-10.22 14.69-13.98 2.56.99 5.1 2.01 7.62 3.1-2.4 4.93-5.62 9.77-5.72 15.46 5.36-3.48 7.88-9.68 12.47-13.93 2.39-.37 4.58 1.04 6.78 1.76-.9 2.33-1.85 4.65-2.8 6.97.09-1.85-1.36-2.78-2.92-1.75-3.88 2.13-4.63 7.03-3.54 10.97-2.49-.4-4.99-.72-7.48-1.05-2.69-1.79-5.94-1.94-8.98-2.65-3.56-1.21-6.75-3.28-10.12-4.9z"/><path fill="#7097c4" d="M187.22 342.33c4.4-1.83 8.96-3.42 12.91-6.17 1.13 1.11 2.25 2.24 3.34 3.4-3.1 3.37-6.53 6.41-9.82 9.58-.4.3-1.18.9-1.57 1.2-2.28 1.21-4.66 2.21-7.08 3.07-.06-2.18-.07-4.36-.03-6.54 1.07.81 2.19 1.55 3.32 2.28-.18-2.3-.52-4.58-1.07-6.82z"/><path fill="#7097c3" d="M121.24 341.25c3.36-.49 6.66.65 9.84 1.59-1.07 4.33-2.38 8.7-2.16 13.22.1 1.19.22 3.1 1.94 2.85 3.49-4.67 4.73-10.53 7.45-15.62 4.44-.06 8.91-.39 13.32.27 1.61.15 2.57 1.57 2.54 3.11-1.04-.11-2.08-.23-3.12-.35-.29.91-.57 1.82-.85 2.74-.23-1.59-.61-3.16-1.05-4.7-3.65 3.07-6.45 8.05-3.99 12.73 2.5-1.69 4.01-4.31 4.81-7.17-.32 2.82-.62 5.68-.34 8.51 1.03.79 2.14 1.06 3.34.79l.66-.28c2.22-4.64 2.74-9.88 4.83-14.57 2.71-1.14 5.85-.33 8.72-.38.82 4.34.3 10.19 4.92 12.51.82-4.11 1.1-8.29 1.63-12.44 3.04-.41 6.12-1.04 9.21-.62-1 1.17-2.07 2.3-2.87 3.62-.62 2.63.68 5.21 1.3 7.72-4.95 1.88-10.12 3.12-15.36 3.83.47-4.32 1.47-9.32-1.69-12.92-3.68 3.48-2.86 9.27-.29 13.16-9.3 1.04-18.73 1.66-28.07.81-7.88.09-15.55-1.91-23.39-2.38 1.59-4.4 3.88-8.49 6.01-12.64.74-1.21 1.32-2.71 2.66-3.39m4.17 3.15c-2.24 3.07-1.67 7.13-1.23 10.67 2.89-.35 3.19-3.75 3.85-6 .41-1.8.05-5.61-2.62-4.67z"/><path d="M125.41 344.4c2.67-.94 3.03 2.87 2.62 4.67-.66 2.25-.96 5.65-3.85 6-.44-3.54-1.01-7.6 1.23-10.67zm54.66 2.66c.8-1.32 1.87-2.45 2.87-3.62.68 1.13 1.33 2.3 2.03 3.43-.04 2.18-.03 4.36.03 6.54-1.22.45-2.42.91-3.63 1.37-.62-2.51-1.92-5.09-1.3-7.72z" fill="#7bafd1"/><path d="M110.39 345.34c1.56-1.03 3.01-.1 2.92 1.75a45.287 45.287 0 0 0-2.95 9.81c-1.17-.22-2.34-.41-3.51-.59-1.09-3.94-.34-8.84 3.54-10.97zm34.77 11.75c-2.46-4.68.34-9.66 3.99-12.73.44 1.54.82 3.11 1.05 4.7l-.23.86c-.8 2.86-2.31 5.48-4.81 7.17z" fill="#79afcd"/></svg>