<svg width="400pt" height="400pt" viewBox="0 0 400 400" xmlns="http://www.w3.org/2000/svg"><g fill="#fff"><path d="M0 0h400v400H0V0m177 7.07c-22 2.86-43.7 9.09-63.38 19.47C99.8 32.96 87.46 42.07 75.73 51.7c-5.48 5.21-11.75 9.64-16.26 15.8-27.38 29.33-44.94 67.63-49.44 107.49.05 4.72-1.69 9.28-1.23 14.02.31 5.64.21 11.28-.04 16.92-.34 5.05 1.26 9.95 1.35 14.99 4.54 37.66 20.54 73.92 45.6 102.43 3.14 3.18 5.76 6.84 8.95 9.98 3 3.01 6.47 5.51 9.5 8.5 19.35 17.22 42.42 30.06 66.97 38.2 1.22.28 2.66 1.07 3.76.04.5.07 1.5.22 2 .3l.89-.69c-.19 2.1 2.43 2.02 3.75 2.72a201.35 201.35 0 0 0 60.27 6.18c.35-.4 1.05-1.2 1.39-1.6 1.24.34 2.45.54 3.69-.05.09.2.28.6.37.8l.06-.43c1.11-.75 1.72-1.93 2.38-3.04.16 1.32.36 2.64.57 3.96.23-.43.67-1.3.89-1.73l.87 1.15a8.53 8.53 0 0 1 3.87-1.62c1.19.29 2.38.6 3.58.87l.37-.7c5.23-.51 10.32-1.86 15.49-2.76l.12-.37c18.39-3.66 35.78-11.51 51.97-20.82 1.34-.85 2.69-1.68 4.06-2.49l1.56-2.72.57.67c1.15-.58 2.31-1.15 3.48-1.71.25-1.28.61-2.54.7-3.84.95-.03 2.84-.1 3.79-.14.13.3.39.89.52 1.18 7.6-4.5 13.9-10.79 20.57-16.51 5.85-4.84 10.29-11.06 15.42-16.6 24.89-29.64 40.17-67.12 43.46-105.65 1.32-5.75.32-11.62.43-17.44-.06-5.23.75-10.51-.36-15.68-3.39-42.07-21.2-82.94-50.08-113.76-4.8-6.51-11.49-11.16-17.27-16.71-10.91-8.75-22.2-17.25-34.89-23.27-21.97-11.76-46.4-18.87-71.21-20.98-7.97-1.76-16.13.03-24.19-.72-5.72-.74-11.28 1.1-16.98 1.2m133.21 346.17c.55.49.55.49 0 0z"/><path d="M78.16 256.7c1.02.34 2.04.69 3.06 1.04.69 2.89 1.59 5.74 2.76 8.47 5.15 12.11 14.44 23.46 27.19 27.82.17.58.52 1.73.69 2.3-1.99 0-3.98.04-5.96-.07-4.56-1.78-9.02-4.14-12.43-7.72-8.77-8.4-13.21-20.11-15.31-31.84z"/></g><path fill="#f8f8f8" d="M177 7.07c5.7-.1 11.26-1.94 16.98-1.2 8.06.75 16.22-1.04 24.19.72 24.81 2.11 49.24 9.22 71.21 20.98 12.69 6.02 23.98 14.52 34.89 23.27 5.78 5.55 12.47 10.2 17.27 16.71 28.88 30.82 46.69 71.69 50.08 113.76 1.11 5.17.3 10.45.36 15.68-.11 5.82.89 11.69-.43 17.44-3.29 38.53-18.57 76.01-43.46 105.65-5.13 5.54-9.57 11.76-15.42 16.6-6.67 5.72-12.97 12.01-20.57 16.51-.13-.29-.39-.88-.52-1.18-2.48-4.34-3.04-10.47-7.78-13.05-1.46-2.53-2.84-5.1-4.32-7.6-6.55-13.34-14.13-26.13-21.18-39.18-.27-.66-.8-1.99-1.06-2.65 5.58-1.9 11.54-.78 16.93 1.19 2.26 1.08 4.63.35 6.86-.39.42-.41 1.26-1.24 1.69-1.65 3.58-3.22 6.21-7.45 7.61-12.05 2.22.03 4.46-.28 6.7-.4 2.23-1.6 4.33-3.47 5.81-5.81 3.16-3.72 3.2-8.82 3.45-13.44.22-9.67-.93-19.62-4.69-28.59-8.8-31.88-28.46-59.45-37.46-91.25-2.54-8.04-4.57-16.23-7.11-24.26-1.93-6.16-2.21-12.67-3.76-18.91-1.9-6.07-3.85-12.14-6.29-18.02-6.17-11.88-13.83-23.1-23.49-32.42-10.37-9.84-23.86-15.93-37.79-18.67-4.89-.62-9.85-.12-14.73-.86-5.76-.93-11.5.36-17.23.83-8.17.64-16.79.26-24.19 4.39-11.44 4.15-22.52 9.61-32.26 16.96-2.6 1.86-5.84 2.69-8.2 4.9-6.13 5.65-12.11 11.48-17.54 17.82-5.62 6.63-10.91 13.54-15.93 20.63-9.95 14.7-19.92 29.91-24.58 47.23-1.57 5.58-.25 13.04 5.54 15.63 2.7 1.59 5.83.72 8.69.15 2.83 3.22 6.72 5.66 11.2 5.02-.58-2.84-3.34-3.18-5.66-3.68 1.28-.19 2.56-.39 3.84-.58 1.58-.08 3.45-1.02 4.71.4-.06 2.37-.4 4.71-.7 7.06-.86 5.1-2.04 10.13-2.94 15.23-1.93 12.43-4.31 24.79-5.49 37.33-2.06 13.79-3.35 27.71-2.94 41.67a83.464 83.464 0 0 0 5.29 31.4c1.34 6.55 5.33 12.34 10.36 16.64 5.71 4.85 14.25 7.03 21.27 3.86 4.46-2.74 7.7-6.98 11.43-10.57 2.86.82 5.81 1.23 8.78 1.27 7 1.2 14.25 1.03 21.09-.94 2.63-.8 4.94-2.41 7.56-3.23 3.29-.78 6.75-.67 9.97-1.79 2.32-.01 4.64.06 6.96.17 3.45.8 7.41 1.89 10.52-.47l1.73-.97c.93.83 1.86 1.67 2.76 2.53.32.32.96.96 1.28 1.27-.26.56-.79 1.66-1.06 2.22l-3.47-.21c.27-.79.82-2.36 1.1-3.15-4.55 1.27-7.02 5.52-9.62 9.07-1.67 2.08-1.8 4.76-1.94 7.31l1.29.29-.84.59c-.76 1.02-1.5 2.05-2.16 3.14-2.32 3.97-3.66 8.4-5.51 12.58-4.22 10.13-9.58 19.91-11.88 30.73-2.99 7.6-4.85 15.57-7.31 23.34-1.1 1.03-2.54.24-3.76-.04-24.55-8.14-47.62-20.98-66.97-38.2-3.03-2.99-6.5-5.49-9.5-8.5-3.19-3.14-5.81-6.8-8.95-9.98-25.06-28.51-41.06-64.77-45.6-102.43-.09-5.04-1.69-9.94-1.35-14.99.25-5.64.35-11.28.04-16.92-.46-4.74 1.28-9.3 1.23-14.02 4.5-39.86 22.06-78.16 49.44-107.49 4.51-6.16 10.78-10.59 16.26-15.8 11.73-9.63 24.07-18.74 37.89-25.16C133.3 16.16 155 9.93 177 7.07z"/><path d="M173.74 24.83c5.73-.47 11.47-1.76 17.23-.83 4.88.74 9.84.24 14.73.86 13.93 2.74 27.42 8.83 37.79 18.67 9.66 9.32 17.32 20.54 23.49 32.42-.27 1.19-.52 2.38-.74 3.58-5.34-10.38-11.63-20.53-20.22-28.55-9.73-10.19-21.93-18.1-35.47-22.13-11.87-1.42-23.84-1.88-35.8-1.43-.25-.64-.76-1.94-1.01-2.59zm-24.19 4.39c5.71-.98 11.34-2.97 17.21-2.48-1.53.8-3.12 1.5-4.82 1.87-6.75 1.55-13.26 3.97-19.59 6.74-11.33 4.11-21.01 11.54-30.75 18.44-6.06 5.26-11.39 11.31-17.73 16.26-.58-.29-1.74-.86-2.32-1.15 5.43-6.34 11.41-12.17 17.54-17.82 2.36-2.21 5.6-3.04 8.2-4.9 9.74-7.35 20.82-12.81 32.26-16.96zM315.7 231.91c1.52-.22 3.05-.49 4.58-.71.75 1.31 1.51 2.63 2.23 3.97 2.77 11.51 3.4 23.72.33 35.25-1.48 2.34-3.58 4.21-5.81 5.81-2.24.12-4.48.43-6.7.4.12-1.23.2-2.45.3-3.68-.03.68-.09 2.05-.11 2.73 1.47-.08 2.96-.15 4.44-.21 2.56-2.39 4.84-5.06 6.62-8.08-.19-1.35-.39-2.69-.58-4.03-.16.68-.47 2.03-.63 2.7-2.81 2.89-6.09 5.2-9.74 6.89.07-2.08.53-4.11 1.34-6.02.21.86.64 2.59.85 3.45 2.42-2.52 4.54-5.29 6.46-8.2 3.06-10.15.61-20.83-3.58-30.27zm-231.72 34.3c.2-1.73.62-3.43 1.17-5.08 2.22 6.44 6.01 12.2 10.14 17.56 7.65 8.89 18.82 14.35 30.43 15.59 7.56.64 15.28.65 22.65-1.36l.6.08.03-3.56c3.53.3 7.07.23 10.6.34 3.31 1.42 6.95 1.24 10.4 2.02-2.32-.11-4.64-.18-6.96-.17-3.22 1.12-6.68 1.01-9.97 1.79-2.62.82-4.93 2.43-7.56 3.23-6.84 1.97-14.09 2.14-21.09.94-4.36-1.37-8.85-2.31-13.25-3.56-12.75-4.36-22.04-15.71-27.19-27.82z" fill="#483d37"/><path fill="#ae9b94" d="M149.55 29.22c7.4-4.13 16.02-3.75 24.19-4.39.25.65.76 1.95 1.01 2.59 11.96-.45 23.93.01 35.8 1.43 13.54 4.03 25.74 11.94 35.47 22.13 8.59 8.02 14.88 18.17 20.22 28.55 3.41 9.54 4.14 19.78 6.37 29.62 2.02 8.77 4.4 17.47 7.33 25.99 1.82 5.18 1.67 10.76 3.03 16.05 2.47 10.06 5.94 19.83 9.44 29.56 2.43 8.5 4.35 17.16 6.97 25.61 4 13.61 6.83 27.58 8.89 41.61.63 9.83 1.4 20.08-2.01 29.52-1.27 3.75-3.77 6.88-6.27 9.88-2.13-.38-5.65 1.78-6.42-1.04 3.14-4.05 4.4-9.05 5.64-13.92 1.34-4.21 3.01-8.3 4.46-12.46.88-4.26.14-8.65-.04-12.94-.37-3.88.18-7.88-1.12-11.62-1.4-4.3-1.86-8.87-3.66-13.04-1.95-4.66-3.45-9.48-4.78-14.34-.61-2.77-2.43-4.97-4.14-7.13-.46.77-.92 1.54-1.38 2.32-1.56.23-3.11.49-4.66.77.45 1.51.9 3.01 1.33 4.53.4 2.8-.56 5.5-1.35 8.13-1.32-2.14-3.29-3.59-5.85-3.8.66 3.92 1.57 7.84 3.46 11.38-.34 2.61-1.11 5.14-2 7.61-.12-.44-.37-1.33-.49-1.77-.47-6.99-3.63-13.33-5.06-20.1-1.33-5.92-3.07-11.73-4.7-17.57-.43.1-1.29.29-1.72.38 1.95 9.5 3.87 19.02 6.36 28.4 2.88 9.81 5.02 19.83 6.97 29.86 1.65 10.28 3.04 21.35-1.66 31.08-2.25 1.37-4.35 2.97-6.55 4.43-.27-.23-.81-.69-1.09-.92 1.76-7.53 1.71-15.5-.36-22.96-2.08-7.59-4.26-15.34-8.76-21.9.18 5.47 3.5 10.07 4.74 15.28 2.79 9.39 4.13 19.38 2.04 29.05-1.09.51-2.17 1.02-3.25 1.53-5.9-.89-10.65-4.74-15.01-8.54-3.95-3.51-6.92-7.99-9.29-12.68.22-1.73.44-3.44.65-5.16 1.25 4.35 3.85 8.08 6.85 11.41l1.2-4.22c.54.42 1.08.83 1.62 1.25.27-.83.53-1.65.8-2.47-.39-.61-.77-1.22-1.15-1.82.39-.18 1.18-.53 1.58-.7.06-2.07-.23-4.44 1.67-5.82.57 1.64 1.35 3.22 2.69 4.37-.03-4.3-.02-8.82-2.09-12.73-2.34-4.65-2.4-9.96-3.86-14.87-1.31-5.24-4.29-9.93-5.14-15.3-1.42-5.77-2.1-11.8-4.34-17.32-2.34-1.47-4.88-2.61-7.24-4.04 10.86-6.88 19.5-19.45 17.48-32.79-.49-4.63-3.87-8.06-7.14-11.02l-.86-.24c.24-.63.72-1.91.96-2.54 1.2.13 2.4.27 3.6.41.41-3.93 1.11-7.84 1.36-11.78.3-3.56-2.5-6.53-2.2-10.09-.13-2.36 1.93-3.83 3.3-5.42-.73-2.08-1.58-4.11-2.65-6.04-2.19 2.13-1.63 5.09-1.22 7.81-1.27-1.67-2.47-3.42-4.04-4.83-1.31-.42-2.73.06-4.08.09.14-1.14.29-2.29.43-3.43-1.36-.67-2.71-1.37-4.06-2.04-.36-1.68-.74-3.36-1.1-5.04-1.53 1.04-3.16 1.98-4.42 3.35-1.06 3.81.02 7.84-.48 11.75-.62 6.41-1.24 12.85-.92 19.3-.62.38-1.23.77-1.84 1.17-9.98-10.18-19.52-20.97-26.93-33.21-5.22-9.24-10.83-18.33-14.43-28.37-1.02 1.19-2.75 2.37-1.49 4.05 4.13 9.29 8.38 18.67 14.26 27.01 4.88 6.35 8.75 13.44 14.14 19.41 2.69 2.94 5.32 5.96 7.58 9.25-15.4-2.59-30.42-9.17-41.65-20.23-16.48-16.03-25.56-38.44-28.51-60.97.02-1.71-.56-5.96-2.62-3.21-.44 3.15.51 6.41.04 9.61.49.33 1.48 1 1.98 1.33-.24 5.86 2.01 11.38 3.21 17.03-3.52-4.2-4.6-9.54-4.85-14.87-3.51 5.62-2.25 12.54-2.88 18.83-.33-3.57-.61-7.15-1.16-10.7-.74 4.86-1.07 9.77-1.1 14.68-.05-2.92-.42-5.84-1.26-8.65-1.16 6.39-.97 12.96-.38 19.4.11 2.02 1.24 3.73 2.18 5.46-2.02 4.47.77 9.19.86 13.8-5.14-11.34-4.58-24.16-3.93-36.31.98-8.73 2.69-17.4 5.68-25.68l-1.9.36c-6.83 16.57-7.28 34.77-6.18 52.4-3.86-8.1-.8-17.2-2.76-25.66.28-2.93.5-5.89.11-8.82-2.89 4.02-3.96 8.94-4.89 13.71-1.48 8.57-2.4 17.83 1.47 25.95 1.6 3.22 4.14 5.81 6.49 8.48-.06.29-.17.88-.22 1.17-.79-.19-1.57-.4-2.35-.64-5.24-3.56-7.77-9.62-9.63-15.43-5.3-15.92-1.16-32.88 3.65-48.36 1.48-4.74 5.86-7.75 7.59-12.38-3.66-.52-5.04 2.9-6.92 5.22-2.58 3.35-5.92 6.01-8.69 9.19-4.25 4.86-7.55 10.43-11.14 15.77-4.48 6.38-8.67 12.96-12.78 19.58-3.87 6.3-6.28 13.38-10.35 19.56-.62-2.39-1.43-4.72-2.42-6.98-1.4 6.54 1.07 13.43-1.54 19.77-2.75 7.64-.56 16.35-4.63 23.62.3-2.35.64-4.69.7-7.06-1.26-1.42-3.13-.48-4.71-.4.84-.85 1.69-1.69 2.53-2.52-1.24-2.77-3.07-5.6-2.43-8.77 1.14-8.08 4.12-15.88 8.02-23.02 2.96-5.08 5.2-10.56 8.31-15.56 3.16-5.8 6.8-11.43 8.93-17.72-3.57 2.31-5.09 6.43-7.35 9.83-4.41 7.59-9.58 14.79-13.05 22.89-3.8 8.1-8.23 16.41-8.05 25.62.42 2.4 1.55 4.58 2.51 6.79-1.17-.13-2.34-.25-3.51-.37-.98-1.67-1.97-3.34-2.83-5.08.83-5.78.58-11.66 1.67-17.41.57-3.1.69-6.28.43-9.42-3.55 5.17-4.39 11.69-4.69 17.81-.82 4.67-.63 9.44.54 14.04-3.46-.04-7.92.5-10.14-2.79-3.33-5.43-1.44-12.12.41-17.72 5.54-13.89 13.66-26.57 22.03-38.89 4.67-7.44 10.3-14.21 15.89-20.96 6.34-4.95 11.67-11 17.73-16.26 9.74-6.9 19.42-14.33 30.75-18.44 6.33-2.77 12.84-5.19 19.59-6.74 1.7-.37 3.29-1.07 4.82-1.87-5.87-.49-11.5 1.5-17.21 2.48m22.32.56c-8.06.41-14.15 6.09-19.76 11.25-1.17 1.55-3.23 3.3-2.36 5.45 4.01-1.65 6.25-5.65 9.71-8.08 4.12-3.72 9.33-5.78 14.6-7.26-.73-.59-.99-1.94-2.19-1.36M77.94 150.69c.68 0 2.04.02 2.72.03-.35-2.49-.81-4.96-1.49-7.37-.59 2.41-.93 4.87-1.23 7.34z"/><path fill="#6f5c52" d="M171.87 29.78c1.2-.58 1.46.77 2.19 1.36-5.27 1.48-10.48 3.54-14.6 7.26-3.46 2.43-5.7 6.43-9.71 8.08-.87-2.15 1.19-3.9 2.36-5.45 5.61-5.16 11.7-10.84 19.76-11.25z"/><g fill="#554035"><path d="M130.21 60.25c1.88-2.32 3.26-5.74 6.92-5.22-1.73 4.63-6.11 7.64-7.59 12.38-4.81 15.48-8.95 32.44-3.65 48.36 1.86 5.81 4.39 11.87 9.63 15.43-.93.5-1.87 1-2.8 1.5-7.06-5.45-10.16-14.29-11.79-22.74-.95-7.01-.68-14.14-.15-21.18.72-2.39 1.38-4.8 1.92-7.23.1-.42.32-1.26.43-1.67-.66-.86-1.32-1.7-1.98-2.55 1.5-1.97 2.84-4.09 3.67-6.43-4.3 3.14-6.49 8.16-9.36 12.49-5.59 10.05-11.24 20.84-11.02 32.66-.06 4.81 1.8 9.37 4.44 13.3.61.03 1.83.07 2.44.09.55.63 1.11 1.27 1.66 1.91.51.61 1.54 1.82 2.05 2.43-5.02.64-9.9-2.57-11.52-7.33-4.2-8.09-1.15-17.13-1.06-25.67-4.69 6.89-7.94 14.7-10.73 22.53-1.02 2.29-1.91 4.63-2.78 6.97l-.57.45c-.39 6.68.9 13.26 1.89 19.83.28 1.85.51 3.71.87 5.56.48 7.12 1.8 14.15 3.03 21.17 1.08 7.96 1.83 15.96 3.34 23.85.88 5.61.78 11.66 3.93 16.63 3.01 4.85 5.84 9.86 9.46 14.3 9.69 12.14 22.34 21.78 36.36 28.38 5.31 1.84 11.04 3.83 16.7 2.47 5-1.18 10.42-2.24 14.24-5.97 5.95-1.95 11.28-5.29 16.59-8.53 3.61-1.28 6.2-4.07 8.65-6.87 1.33-.92 2.71-1.76 4.1-2.59.02-2.95.11-5.97-.89-8.78-.47-1.66-1.23-3.29-1.02-5.06 1.24-4.87 1.58-9.91 1.92-14.91 1.04-11.97 4.88-23.53 7.32-35.15 2.24-6.81 3.6-13.88 5.58-20.79.72-1.24 1.49-2.44 2.3-3.63-.34 3.93-1.5 7.7-2.56 11.48-1.65 11.09-5.12 21.81-6.88 32.89-.79 4-2.29 8.05-1.08 12.15-1.33 4.82-2.37 9.77-2.02 14.8-.17 8.85.65 18.08 5 25.96 2.47 4.58 6.51 7.96 10.21 11.5.61-.55 1.22-1.11 1.84-1.66-3.84-9.08-4.14-19.08-4.47-28.78.66-8.66.44-17.36 1.21-26.01 1.74-15.96 3-31.98 4.5-47.96.55-2.67-1.54-4.51-3.15-6.25-4.91-.69-9.64-2.23-14.51-3.09-6.32-1.41-12.17-4.27-18.06-6.82-4.48-.4-9.04-.48-13.29-2.17-4.25-1.92-8.8-3.24-13.48-3.39-3.94-.35-8.16.65-11.79-1.37 8.54-2.5 17.46-.56 25.73 2 2.05.71 4.22.72 6.36.79-10.2-6.95-18.79-16.31-24.75-27.13-3.77-6.04-6.1-12.8-8.96-19.29-1.2-5.65-3.45-11.17-3.21-17.03.1-2.59.39-5.16.6-7.73 2.95 22.53 12.03 44.94 28.51 60.97 11.23 11.06 26.25 17.64 41.65 20.23-2.26-3.29-4.89-6.31-7.58-9.25-5.39-5.97-9.26-13.06-14.14-19.41.41-.67 1.24-2.02 1.66-2.69 7.41 12.24 16.95 23.03 26.93 33.21.61-.4 1.22-.79 1.84-1.17.7-.35 2.1-1.07 2.8-1.43-1.32 5.24-1.02 10.64-1.12 15.99-1.04 17.6-2.81 35.15-4.08 52.73-1.24 8.82-1.37 17.85-.35 26.7 2.4-4.35 1.86-9.57 2.67-14.33 1.47-10.19 2.55-20.47 2.51-30.77.85-11.43 3.05-22.69 4.28-34.07.55.04 1.64.11 2.19.15-1.07 8.92-2.3 17.82-3.32 26.74-.05 2.27-.78 5.16 1.41 6.72 1.56-1.12 2.96-2.44 4.27-3.83 6.54-7.16 12.13-17.46 8.36-27.26-1.14-1.9-2.29-3.97-4.31-5.06-1.09-.64-2.22-1.24-3.34-1.83 1.3-.95 2.88-1.32 4.41-1.71 3.27 2.96 6.65 6.39 7.14 11.02 2.02 13.34-6.62 25.91-17.48 32.79-.85 8.48-2 16.96-2.21 25.48.3 4.2.32 8.4-.09 12.6-.53 3.36 3.31 5.5 2.87 8.88-.3 5.24.81 10.37 2.45 15.31-1.16.49-2.32.98-3.47 1.47.72 1.95 1.43 3.92 1.97 5.94.23 1.13.43 2.27.65 3.42-.33 3.81-1.75 7.51-.97 11.39-1.08-.4-2.18-.56-3.3-.49-.27-.4-.83-1.19-1.11-1.59-1.87-5.02-3.24-10.19-4.37-15.41-.16-2.35-2.66-2.96-4.27-4.1-4.11-2.29-7.36-5.84-10.02-9.66-1.76-3.23-3.09-6.68-4.66-10-2.15 2.23-4.48 4.27-6.72 6.42-.02.22-.08.68-.11.91-2.73.25-5.2 1.31-6.99 3.42-4.01 2.84-8.35 5.18-12.48 7.84 1.13 5.86 4.47 10.85 7.2 16.04 2.49 5.22 5.19 10.39 6.78 15.98 5.29-1.42 10.07-4.19 14.67-7.08.69-.04 2.08-.13 2.77-.18-4.71 1.38-7.63 5.64-11.97 7.7-3.43 1.7-6.99 3.12-10.51 4.64-.6 1.08-1.19 2.18-1.79 3.27-3.13-.57-2.68-3.63-2.92-6.01-.32-.31-.96-.95-1.28-1.27-1.37-10.45-3.53-20.81-7.49-30.61-.83.28-1.65.55-2.48.83.9 2.48 1.87 4.94 2.84 7.39-.38 1.56-.76 3.13-1.06 4.71-.27-4.04-2.1-7.69-4.31-10.99-3.61.86-7.2 1.8-10.82 2.64-3.19.9-6.42-.28-9.53-.94-5.71-1.74-10.55-5.44-16.26-7.13-6.54-4.57-13.47-8.79-18.8-14.83-4.89-5.51-10.33-10.66-14.07-17.07-1.4-2.33-3.12-4.44-4.89-6.48-8.49-16.86-8.88-36.04-11.33-54.37-.37-3.88-.28-7.78-.38-11.67l-3.63.21c-1.84 9.62-3.11 19.36-5.24 28.92-.78-2.46-1.55-4.94-1.84-7.51.9-5.1 2.08-10.13 2.94-15.23 4.07-7.27 1.88-15.98 4.63-23.62 2.61-6.34.14-13.23 1.54-19.77.99 2.26 1.8 4.59 2.42 6.98 4.07-6.18 6.48-13.26 10.35-19.56 4.11-6.62 8.3-13.2 12.78-19.58 3.59-5.34 6.89-10.91 11.14-15.77 2.77-3.18 6.11-5.84 8.69-9.19m-46.25 85.33c-.19 1.88-.33 3.77-.46 5.65.69.19 2.08.57 2.78.76.81-2.49.23-5.24-2.32-6.41m146.97 92.23c-.62 6.54-2.62 13.32-.21 19.76 3.29 1.19 2.85-2.69 2.33-4.57-1.24-4.99-1.44-10.13-2.12-15.19m.27 27.48c.23 3.48.48 7.15 2.27 10.24.53.05 1.59.15 2.11.21-1.13-3.34-.97-6.93-2.15-10.25l-2.23-.2m-42.64 19.01c.08 3.09.49 6.17 1.14 9.2.99-.04 1.98-.07 2.97-.11-.18-3-1.68-5.66-2.71-8.42-.35-.17-1.05-.5-1.4-.67z"/><path d="M118.12 80.72c.05-2.03 3.28-3.92 3.79-.97-2.17 5.71-4.88 11.21-7.04 16.94-3.78 9.28-4.65 19.79-2.18 29.53 1.38.41 2.75.82 4.12 1.24l-.64 1.97c-1.36.02-2.71.02-4.06 0l-.8-1.04c-2.66-3.56-4.08-7.93-3.92-12.37-.42-12.68 6.39-23.83 10.73-35.3z"/></g><path fill="#928077" d="M147.36 60.32c2.06-2.75 2.64 1.5 2.62 3.21-.21 2.57-.5 5.14-.6 7.73-.5-.33-1.49-1-1.98-1.33.47-3.2-.48-6.46-.04-9.61z"/><path fill="#4c392e" d="m143.85 64.61 1.9-.36c-2.99 8.28-4.7 16.95-5.68 25.68-.65 12.15-1.21 24.97 3.93 36.31.16.39.5 1.18.66 1.58.45 1.53.83 3.07 1.22 4.62-1.76-.3-3.53-.59-5.29-.87.56-1.22 1.14-2.43 1.59-3.69-.5-1.19-1.5-2.06-2.31-3.04-.63-2.64-1.38-5.25-2.2-7.83-1.1-17.63-.65-35.83 6.18-52.4z"/><path d="M75.62 89.53c5.02-7.09 10.31-14 15.93-20.63.58.29 1.74.86 2.32 1.15-5.59 6.75-11.22 13.52-15.89 20.96-8.37 12.32-16.49 25-22.03 38.89-1.85 5.6-3.74 12.29-.41 17.72 2.22 3.29 6.68 2.75 10.14 2.79a33.42 33.42 0 0 1-.54-14.04c.49-1.8 1.04-3.58 1.57-5.37-.15 4.8-.44 9.73 1.02 14.39.86 1.74 1.85 3.41 2.83 5.08 1.17.12 2.34.24 3.51.37-.96-2.21-2.09-4.39-2.51-6.79-.18-9.21 4.25-17.52 8.05-25.62 1.05.19 2.11.37 3.16.56-3.9 7.14-6.88 14.94-8.02 23.02-.64 3.17 1.19 6 2.43 8.77-.84.83-1.69 1.67-2.53 2.52-1.28.19-2.56.39-3.84.58 2.32.5 5.08.84 5.66 3.68-4.48.64-8.37-1.8-11.2-5.02-2.86.57-5.99 1.44-8.69-.15-5.79-2.59-7.11-10.05-5.54-15.63 4.66-17.32 14.63-32.53 24.58-47.23zm191.36-13.58c2.44 5.88 4.39 11.95 6.29 18.02 1.55 6.24 1.83 12.75 3.76 18.91 2.54 8.03 4.57 16.22 7.11 24.26 9 31.8 28.66 59.37 37.46 91.25.28 2.26.53 4.53.91 6.78-.72-1.34-1.48-2.66-2.23-3.97-1.53.22-3.06.49-4.58.71-2.68-6.88-6.05-13.45-8.82-20.29-1.27-3.28-3.22-6.22-4.89-9.28-.09.16-.27.47-.36.62-.56.85-1.69 2.55-2.25 3.4-2.62-8.45-4.54-17.11-6.97-25.61-3.5-9.73-6.97-19.5-9.44-29.56-1.36-5.29-1.21-10.87-3.03-16.05-2.93-8.52-5.31-17.22-7.33-25.99-2.23-9.84-2.96-20.08-6.37-29.62.22-1.2.47-2.39.74-3.58m25.26 93.18c2.22 7.09 4.42 14.26 7.97 20.82 1.88 3.33 2.15 7.52 4.93 10.32 2.73 6.76 6 13.29 8.91 19.98 1.5 2.39 2.77 4.92 3.17 7.76.1-1.55.2-3.1.33-4.65l-1.11.41c-.19-1.23-.33-2.45-.43-3.68-3.91-9.74-7.64-19.61-12.4-28.96.07-1.3-.72-2.41-1.25-3.53-3.49-6.11-5.61-12.96-10.12-18.47z" fill="#55433b"/><path d="M115.46 83.39c2.87-4.33 5.06-9.35 9.36-12.49-.83 2.34-2.17 4.46-3.67 6.43.66.85 1.32 1.69 1.98 2.55-.11.41-.33 1.25-.43 1.67-.2-.45-.59-1.35-.79-1.8-.51-2.95-3.74-1.06-3.79.97-4.34 11.47-11.15 22.62-10.73 35.3-.16 4.44 1.26 8.81 3.92 12.37l-2.43.96c-2.64-3.93-4.5-8.49-4.44-13.3-.22-11.82 5.43-22.61 11.02-32.66zm95.37 62.28c4.87.86 9.6 2.4 14.51 3.09 1.61 1.74 3.7 3.58 3.15 6.25-1.5 15.98-2.76 32-4.5 47.96-.77 8.65-.55 17.35-1.21 26.01.33 9.7.63 19.7 4.47 28.78-.62.55-1.23 1.11-1.84 1.66-3.7-3.54-7.74-6.92-10.21-11.5-4.35-7.88-5.17-17.11-5-25.96-.35-5.03.69-9.98 2.02-14.8-1.21-4.1.29-8.15 1.08-12.15 1.76-11.08 5.23-21.8 6.88-32.89 1.06-3.78 2.22-7.55 2.56-11.48-.81 1.19-1.58 2.39-2.3 3.63-.05-1.69-.17-3.37-.28-5.05-3.27-.74-6.45-1.84-9.33-3.55z" fill="#b09e93"/><path d="M144.86 92.25c.63-6.29-.63-13.21 2.88-18.83.25 5.33 1.33 10.67 4.85 14.87 2.86 6.49 5.19 13.25 8.96 19.29 5.96 10.82 14.55 20.18 24.75 27.13-2.14-.07-4.31-.08-6.36-.79-8.27-2.56-17.19-4.5-25.73-2-2.06-.02-4.12.01-6.17.17-.82-1.65-1.97-3.09-3.38-4.27-.16-.4-.5-1.19-.66-1.58-.09-4.61-2.88-9.33-.86-13.8-.94-1.73-2.07-3.44-2.18-5.46-.59-6.44-.78-13.01.38-19.4.84 2.81 1.21 5.73 1.26 8.65.23 8 3.51 16.31 10.27 20.97 3.66 2.81 8.02 4.45 12.45 5.54.09-.64.26-1.92.35-2.56-3.43-1.46-6.93-2.77-10.4-4.14-7.94-5.05-9.64-15.15-10.41-23.79zm-53.14 31.06c3.49-5.08 4.96-11.25 8.76-16.13-.19 4.49-1.51 9.13-.05 13.55 1.4 4.74 2.95 10 7.32 12.87-3.01 1.44-5.72 3.44-8.76 4.8-1.41.19-2.39-1.07-3.58-1.59-.54 2.27-1.66 4.31-4.11 4.86-.08-4.42-.1-8.85.51-13.24-.96.61-1.92 1.22-2.87 1.85.87-2.34 1.76-4.68 2.78-6.97z" fill="#fae7d9"/><path fill="#fff3e6" d="M121.91 79.75c.2.45.59 1.35.79 1.8-.54 2.43-1.2 4.84-1.92 7.23-2.99 6.65-1.3 13.99-2.64 20.91-2.26-3.97-2.65-8.58-3.27-13 2.16-5.73 4.87-11.23 7.04-16.94z"/><path d="M143.7 81.55c.55 3.55.83 7.13 1.16 10.7.77 8.64 2.47 18.74 10.41 23.79l.45 1.79c-.71-.16-2.14-.47-2.85-.63-6.76-4.66-10.04-12.97-10.27-20.97.03-4.91.36-9.82 1.1-14.68zM92.66 95.54c2.26-3.4 3.78-7.52 7.35-9.83-2.13 6.29-5.77 11.92-8.93 17.72-3.11 5-5.35 10.48-8.31 15.56-1.05-.19-2.11-.37-3.16-.56 3.47-8.1 8.64-15.3 13.05-22.89zm137.11 30.58c.44.11 1.31.34 1.74.46.05 5.64.01 11.29.22 16.94l-.08.47c-.7.36-2.1 1.08-2.8 1.43-.32-6.45.3-12.89.92-19.3zm37.74 66.64c.43-.09 1.29-.28 1.72-.38 1.63 5.84 3.37 11.65 4.7 17.57 1.43 6.77 4.59 13.11 5.06 20.1-2.18-4.45-3.51-9.23-4.59-14.05-.2 1.72-.4 3.43-.53 5.16-2.49-9.38-4.41-18.9-6.36-28.4z" fill="#726057"/><path d="M130.13 96.24c.93-4.77 2-9.69 4.89-13.71.39 2.93.17 5.89-.11 8.82-.91 3-1.95 5.97-2.78 9-.13-2.07-.37-4.12-.62-6.17-.47.68-.93 1.36-1.38 2.06zM78.63 204.7c.71-3.78.29-8.21 3.38-11.05.43 2.25.74 4.58.35 6.87-1.22 8-3.2 16.05-2.31 24.21-1.03 1.85-2.06 3.7-3.1 5.54-.24-3.84-.42-7.68-.3-11.52.28-4.73 1.17-9.39 1.98-14.05zm121.88 36.51c.8-4.62 2.44-9.02 3.62-13.54l1.22 1.43c-.14 1.24-.33 2.47-.55 3.7-.56 2.9-1.13 5.8-1.37 8.75-2.45 2.8-5.04 5.59-8.65 6.87 2.24-2.08 5.52-3.79 5.73-7.21z" fill="#88756a"/><path fill="#827269" d="M184.16 89.06c-1.26-1.68.47-2.86 1.49-4.05 3.6 10.04 9.21 19.13 14.43 28.37-.42.67-1.25 2.02-1.66 2.69-5.88-8.34-10.13-17.72-14.26-27.01z"/><path fill="#fce4d5" d="M118.14 109.69c1.34-6.92-.35-14.26 2.64-20.91-.53 7.04-.8 14.17.15 21.18 1.63 8.45 4.73 17.29 11.79 22.74 3.3 3.15 7.63 1.28 11.41.35.49.55 1.48 1.65 1.97 2.2.42.32 1.25.95 1.67 1.26 5.83-2.57 12.42-3.21 18.68-2.06 4.33.83 8.66 1.63 13.03 2.23 4.25 1.69 8.81 1.77 13.29 2.17 5.89 2.55 11.74 5.41 18.06 6.82 2.88 1.71 6.06 2.81 9.33 3.55.11 1.68.23 3.36.28 5.05-1.98 6.91-3.34 13.98-5.58 20.79-2.44 11.62-6.28 23.18-7.32 35.15-.16-1.67-.41-3.34-.63-5-.9-4.64 1.22-9.26.08-13.9-1.09 1.67-1.9 3.49-2.49 5.39.03-2.42-.67-4.69-2.19-6.58-2.67 1.09-5.56 1.6-8.28.34-1.97.95-3.9 1.96-5.9 2.83-2.52.68-5.08 1.24-7.62 1.85-1.13 3.89-2.62 7.75-2.73 11.84-.15 5.99 1.63 11.8 3.43 17.44 3.08.82 5.89 2.32 8.81 3.58 4.69.91 9.23-1.14 13.4-3.06.23.91.47 1.82.71 2.73-1.18 4.52-2.82 8.92-3.62 13.54-.21 3.42-3.49 5.13-5.73 7.21-5.31 3.24-10.64 6.58-16.59 8.53-3.82 3.73-9.24 4.79-14.24 5.97-5.66 1.36-11.39-.63-16.7-2.47-14.02-6.6-26.67-16.24-36.36-28.38 2.73-.26 5.6.07 8.22-.87 5.37-3.55 7.46-10.7 6.49-16.83-1.31-4.78-4.4-8.77-6.99-12.9-1.47-.24-2.95-.47-4.42-.7.49-.76.99-1.52 1.49-2.28-1.29.21-2.58.41-3.88.53-1-1.33-1.26-3.05-1.83-4.57-1.11.17-2.21.37-3.31.54-1.56-.14-3.29-.89-4.75.01-1.5 2.03-2.3 4.57-4.41 6.14-1.51-7.89-2.26-15.89-3.34-23.85-1.23-7.02-2.55-14.05-3.03-21.17-.36-1.85-.59-3.71-.87-5.56 4.2 2.54 2.72 7.73 3.32 11.8 2.48-4.71.44-9.91-.82-14.65 4.42-4.7 10.9-5.97 16.87-7.58 1.63-.3 3.27-.55 4.91-.8l.2-2.03c-1.32-.01-2.65 0-3.97.03.76-.75 1.53-1.49 2.3-2.22 2.68-.52 5.53-1.65 5.97-4.75-2.03.3-4.05.63-6.06.99-.55-.64-1.11-1.28-1.66-1.91-.61-.02-1.83-.06-2.44-.09l2.43-.96.8 1.04c1.35.02 2.7.02 4.06 0l.64-1.97c-1.37-.42-2.74-.83-4.12-1.24-2.47-9.74-1.6-20.25 2.18-29.53.62 4.42 1.01 9.03 3.27 13m39.23 48.99c.05 1.36.11 2.72.19 4.09 1.55-.52 3.05-1.19 4.42-2.08 4.16-.63 8.3.11 12.37.96-.41.89-.76 1.8-1.05 2.74-1.3 1.68-3.06 3.29-2.92 5.61-.27 5.77-1.33 12.74 3.51 17.03 3.3 3.94 8.71 3.97 13.41 3.69 5.86-4.91 5.13-13.68 2.09-19.94-2.25-5.68-7.38-9.99-13.14-11.74l.92-.02c-6.24-2.51-13.47-2.63-19.8-.34m-58.88 6.75c-2.1.55-2.41 2.37-2.04 4.31 2.8-.91 5.53-2.45 8.56-2.32 1.47.21 3.93-.58 4.45 1.39-5.6 10.09.68 23.26 10.65 27.82 3.73 2.18 8.73.38 10.54-3.45.61-7.03-2.88-13.5-6.31-19.37-2.15-3.96-6.25-6.2-10.14-8.14-5.05-1.45-10.73-2.48-15.71-.24m45.89 23.62c-.49 4.83-3.14 9.15-3.23 14.04l.93-1.23c.91.96 1.82 1.92 2.71 2.9 2.1 1.32 4.25 3.65 6.96 3.01 3.43-3.57 5.15-9.23 2.12-13.59-2.29-1.85-5.17-2.91-7.09-5.23-.6.03-1.8.08-2.4.1m4.81 42.4.33 2.01c5.02.31 10.09.15 15.05 1.22v-3.04c-5.11-.52-10.25-.59-15.38-.19z"/><path d="M134.91 91.35c1.96 8.46-1.1 17.56 2.76 25.66.82 2.58 1.57 5.19 2.2 7.83-.4 1-.82 1.98-1.27 2.95-1.82-2.53-3.51-5.18-4.63-8.1-2.14-6.19-2.83-12.86-1.84-19.34.83-3.03 1.87-6 2.78-9zm20.36 24.69c3.47 1.37 6.97 2.68 10.4 4.14-.09.64-.26 1.92-.35 2.56-4.43-1.09-8.79-2.73-12.45-5.54.71.16 2.14.47 2.85.63l-.45-1.79z" fill="#bba9a0"/><path fill="#6b584e" d="M130.13 96.24c.45-.7.91-1.38 1.38-2.06.25 2.05.49 4.1.62 6.17-.99 6.48-.3 13.15 1.84 19.34-.41-.06-1.21-.18-1.61-.24-.19.69-.57 2.06-.76 2.74-3.87-8.12-2.95-17.38-1.47-25.95z"/><path fill="#a49185" d="M91.72 123.31c2.79-7.83 6.04-15.64 10.73-22.53-.09 8.54-3.14 17.58 1.06 25.67 1.62 4.76 6.5 7.97 11.52 7.33-.51-.61-1.54-1.82-2.05-2.43 2.01-.36 4.03-.69 6.06-.99-.44 3.1-3.29 4.23-5.97 4.75-1.8-.4-3.58-.89-5.32-1.51-4.37-2.87-5.92-8.13-7.32-12.87-1.46-4.42-.14-9.06.05-13.55-3.8 4.88-5.27 11.05-8.76 16.13z"/><path d="M230.25 114.37c1.26-1.37 2.89-2.31 4.42-3.35.36 1.68.74 3.36 1.1 5.04 1.35.67 2.7 1.37 4.06 2.04-.14 1.14-.29 2.29-.43 3.43 1.35-.03 2.77-.51 4.08-.09 1.57 1.41 2.77 3.16 4.04 4.83-.41-2.72-.97-5.68 1.22-7.81 1.07 1.93 1.92 3.96 2.65 6.04-1.37 1.59-3.43 3.06-3.3 5.42-.3 3.56 2.5 6.53 2.2 10.09-.25 3.94-.95 7.85-1.36 11.78-1.2-.14-2.4-.28-3.6-.41-.24.63-.72 1.91-.96 2.54-1.68-.36-3.39-.59-5.08-.85 1.96-9.73 3.15-19.61 4.07-29.48-1.14 1.35-2.6 2.64-2.77 4.52-1.32 9.12-2.77 18.23-4.63 27.26.64-6.31-.97-12.49-2.69-18.49-.95 4.46.11 8.93.85 13.33-.43.15-1.29.46-1.72.61-.25 2.81-.53 5.62-.89 8.42-1.83-5.25.85-10.43.22-15.72-.21-5.65-.17-11.3-.22-16.94-.43-.12-1.3-.35-1.74-.46.5-3.91-.58-7.94.48-11.75zm58.3 88.83c.46-.78.92-1.55 1.38-2.32 1.71 2.16 3.53 4.36 4.14 7.13 1.33 4.86 2.83 9.68 4.78 14.34 1.8 4.17 2.26 8.74 3.66 13.04 1.3 3.74.75 7.74 1.12 11.62.18 4.29.92 8.68.04 12.94-1.45 4.16-3.12 8.25-4.46 12.46.78-14.94-2.06-29.69-5.37-44.18-1.37-8.08-3.16-16.27-7.26-23.46-.11.68-.32 2.03-.43 2.7l-.93 1.03c-.43-1.52-.88-3.02-1.33-4.53 1.55-.28 3.1-.54 4.66-.77z" fill="#9d8f84"/><path fill="#85746b" d="M65.14 136.37c.3-6.12 1.14-12.64 4.69-17.81.26 3.14.14 6.32-.43 9.42-1.09 5.75-.84 11.63-1.67 17.41-1.46-4.66-1.17-9.59-1.02-14.39-.53 1.79-1.08 3.57-1.57 5.37z"/><path d="M132.36 119.45c.4.06 1.2.18 1.61.24 1.12 2.92 2.81 5.57 4.63 8.1 0 .99-.51 1.89-.51 2.88-2.35-2.67-4.89-5.26-6.49-8.48.19-.68.57-2.05.76-2.74zm-33.87 45.98c4.98-2.24 10.66-1.21 15.71.24 3.89 1.94 7.99 4.18 10.14 8.14 3.43 5.87 6.92 12.34 6.31 19.37-1.81 3.83-6.81 5.63-10.54 3.45-9.97-4.56-16.25-17.73-10.65-27.82-.52-1.97-2.98-1.18-4.45-1.39-3.03-.13-5.76 1.41-8.56 2.32-.37-1.94-.06-3.76 2.04-4.31z" fill="#5d4741"/><path fill="#6f5c55" d="M240.59 128.11c.17-1.88 1.63-3.17 2.77-4.52-.92 9.87-2.11 19.75-4.07 29.48 1.69.26 3.4.49 5.08.85l.86.24c-1.53.39-3.11.76-4.41 1.71-1.76 1.21-3.58 2.35-5.39 3.48.13-1 .4-2.99.53-3.98 1.86-9.03 3.31-18.14 4.63-27.26z"/><path fill="#776358" d="M139.87 124.84c.81.98 1.81 1.85 2.31 3.04-.45 1.26-1.03 2.47-1.59 3.69 1.76.28 3.53.57 5.29.87-.39-1.55-.77-3.09-1.22-4.62 1.41 1.18 2.56 2.62 3.38 4.27l-1.57.52c.85.61 2.54 1.81 3.39 2.41-.94.06-2.82.18-3.76.23-.49-.55-1.48-1.65-1.97-2.2-3.78.93-8.11 2.8-11.41-.35.93-.5 1.87-1 2.8-1.5.78.24 1.56.45 2.35.64.05-.29.16-.88.22-1.17 0-.99.51-1.89.51-2.88.45-.97.87-1.95 1.27-2.95z"/><path fill="#fff8ea" d="M88.94 130.28c.95-.63 1.91-1.24 2.87-1.85-.61 4.39-.59 8.82-.51 13.24 2.45-.55 3.57-2.59 4.11-4.86 1.19.52 2.17 1.78 3.58 1.59 3.04-1.36 5.75-3.36 8.76-4.8 1.74.62 3.52 1.11 5.32 1.51-.77.73-1.54 1.47-2.3 2.22-2.01.2-3.99.63-5.94 1.15-4.52 1.13-8.8 3.11-12.49 5.96.13 1.09.25 2.18.42 3.27 1.26 4.74 3.3 9.94.82 14.65-.6-4.07.88-9.26-3.32-11.8-.99-6.57-2.28-13.15-1.89-19.83l.57-.45z"/><path fill="#b6a297" d="m146.47 132.61 1.57-.52c2.05-.16 4.11-.19 6.17-.17 3.63 2.02 7.85 1.02 11.79 1.37 4.68.15 9.23 1.47 13.48 3.39-4.37-.6-8.7-1.4-13.03-2.23-6.26-1.15-12.85-.51-18.68 2.06-.42-.31-1.25-.94-1.67-1.26.94-.05 2.82-.17 3.76-.23-.85-.6-2.54-1.8-3.39-2.41z"/><path fill="#8e7b71" d="M104.83 138.48c1.95-.52 3.93-.95 5.94-1.15 1.32-.03 2.65-.04 3.97-.03l-.2 2.03c-1.64.25-3.28.5-4.91.8-1.58-.61-3.17-1.19-4.8-1.65z"/><path fill="#b6a29a" d="M234.12 150.21c-.74-4.4-1.8-8.87-.85-13.33 1.72 6 3.33 12.18 2.69 18.49-.13.99-.4 2.98-.53 3.98 1.81-1.13 3.63-2.27 5.39-3.48 1.12.59 2.25 1.19 3.34 1.83-1.42-.12-2.84-.14-4.25-.07-.94 1.17-1.01 2.71-1.19 4.14-.62 10-3.2 19.81-3.22 29.86 1.54-.51 3.09-1.03 4.61-1.61-1.31 1.39-2.71 2.71-4.27 3.83-2.19-1.56-1.46-4.45-1.41-6.72 1.02-8.92 2.25-17.82 3.32-26.74-.55-.04-1.64-.11-2.19-.15-1.23 11.38-3.43 22.64-4.28 34.07-2.21 3.86-.96 8.4-1.53 12.6-.77 6.5-1.18 13.04-2.18 19.51-1.47-4.42-.81-9.14-1.12-13.71 1.27-17.58 3.04-35.13 4.08-52.73.1-5.35-.2-10.75 1.12-15.99l.08-.47c.63 5.29-2.05 10.47-.22 15.72.36-2.8.64-5.61.89-8.42.43-.15 1.29-.46 1.72-.61z"/><path fill="#635046" d="M92.34 144.44c3.69-2.85 7.97-4.83 12.49-5.96 1.63.46 3.22 1.04 4.8 1.65-5.97 1.61-12.45 2.88-16.87 7.58-.17-1.09-.29-2.18-.42-3.27z"/><path fill="#fef8f2" d="M77.94 150.69c.3-2.47.64-4.93 1.23-7.34.68 2.41 1.14 4.88 1.49 7.37-.68-.01-2.04-.03-2.72-.03z"/><path fill="#7c6a60" d="M83.96 145.58c2.55 1.17 3.13 3.92 2.32 6.41-.7-.19-2.09-.57-2.78-.76.13-1.88.27-3.77.46-5.65z"/><path fill="#ae9c94" d="m82.8 154.58 3.63-.21c.1 3.89.01 7.79.38 11.67 2.45 18.33 2.84 37.51 11.33 54.37.75 2.08 1.64 4.12 2.64 6.11-1.97-.32-3.93-.62-5.9-.9-1.26 9.68 1.2 19.45 4.96 28.32 1.59 5.2 2.82 10.66 5.92 15.24 3.48 4.89 5.57 10.8 10.33 14.72 4.74 5.54 12.12 6.92 18.51 9.56-2.94.47-5.91.77-8.88.82-11.61-1.24-22.78-6.7-30.43-15.59-4.13-5.36-7.92-11.12-10.14-17.56-1.6-5.48-2.73-11.07-3.58-16.71.31-6.62-.7-13.16-1.52-19.69-.89-8.16 1.09-16.21 2.31-24.21.39-2.29.08-4.62-.35-6.87-3.09 2.84-2.67 7.27-3.38 11.05-.81 4.66-1.7 9.32-1.98 14.05-1.33 9.04-1.75 18.17-2.5 27.27-.27 2.84.29 5.66.91 8.43 1.08 8.37 3.14 16.73 7.13 24.22 4.38 6.49 8.74 13.65 15.98 17.3 3.26 1.5 6.32 3.52 9.83 4.43 1.96.47 3.36-1.69 4.96-2.47-2.37-.47-4.77-.87-7.06-1.67 1.98.11 3.97.07 5.96.07-.17-.57-.52-1.72-.69-2.3 4.4 1.25 8.89 2.19 13.25 3.56-2.97-.04-5.92-.45-8.78-1.27-3.73 3.59-6.97 7.83-11.43 10.57-7.02 3.17-15.56.99-21.27-3.86-5.03-4.3-9.02-10.09-10.36-16.64 3.62 6.73 7.28 14.05 14.22 17.93 6 3.71 15.44 4.89 20.3-1.22-.09-.21-.28-.62-.37-.82-1.87-.19-3.39 1.48-5.14 1.98-6.95 1.36-14.26-1.66-18.92-6.84-3.53-4.17-5.69-9.26-7.58-14.32-5.11-15.5-3.76-32.01-3.67-48.07 1.25-17.26 3.49-34.43 6.14-51.53 2.13-9.56 3.4-19.3 5.24-28.92z"/><path fill="#503d33" d="M157.37 158.68c6.33-2.29 13.56-2.17 19.8.34l-.92.02c-.18 0-.52-.01-.69-.01 0 .46.01 1.39.01 1.85-.31.19-.92.57-1.22.77-4.07-.85-8.21-1.59-12.37-.96-1.37.89-2.87 1.56-4.42 2.08-.08-1.37-.14-2.73-.19-4.09z"/><path d="M239.91 157.63c1.41-.07 2.83-.05 4.25.07 2.02 1.09 3.17 3.16 4.31 5.06-.41 1.14-.83 2.28-1.24 3.43-1.08-.74-2.16-1.47-3.24-2.2-.82 1.01-1.63 2.01-2.44 3.02-.25-1.88-.51-3.76-.77-5.64l-2.06.4c.18-1.43.25-2.97 1.19-4.14zM77.33 245.31c.15-2.8.47-5.58.85-8.35.22 3.2.68 6.38 1.28 9.53.37 3.78.9 7.55 1.76 11.25-1.02-.35-2.04-.7-3.06-1.04-.86-3.73-.97-7.58-.83-11.39z" fill="#edd9cb"/><path fill="#5d473d" d="M175.56 159.03c.17 0 .51.01.69.01 5.76 1.75 10.89 6.06 13.14 11.74 3.04 6.26 3.77 15.03-2.09 19.94-4.7.28-10.11.25-13.41-3.69-4.84-4.29-3.78-11.26-3.51-17.03-.14-2.32 1.62-3.93 2.92-5.61.29-.94.64-1.85 1.05-2.74.3-.2.91-.58 1.22-.77 0-.46-.01-1.39-.01-1.85z"/><path fill="#fde9dc" d="m238.72 161.77 2.06-.4c.26 1.88.52 3.76.77 5.64.81-1.01 1.62-2.01 2.44-3.02 1.08.73 2.16 1.46 3.24 2.2.41-1.15.83-2.29 1.24-3.43 3.77 9.8-1.82 20.1-8.36 27.26-1.52.58-3.07 1.1-4.61 1.61.02-10.05 2.6-19.86 3.22-29.86z"/><path fill="#b4a29a" d="M292.24 169.13c4.51 5.51 6.63 12.36 10.12 18.47.53 1.12 1.32 2.23 1.25 3.53-.26 3.13.34 6.23 1.53 9.14-2.78-2.8-3.05-6.99-4.93-10.32-3.55-6.56-5.75-13.73-7.97-20.82z"/><path fill="#423732" d="M70.23 213.32c1.18-12.54 3.56-24.9 5.49-37.33.29 2.57 1.06 5.05 1.84 7.51-2.65 17.1-4.89 34.27-6.14 51.53-.09 16.06-1.44 32.57 3.67 48.07 1.89 5.06 4.05 10.15 7.58 14.32 4.66 5.18 11.97 8.2 18.92 6.84 1.75-.5 3.27-2.17 5.14-1.98.09.2.28.61.37.82-4.86 6.11-14.3 4.93-20.3 1.22-6.94-3.88-10.6-11.2-14.22-17.93a83.464 83.464 0 0 1-5.29-31.4c-.41-13.96.88-27.88 2.94-41.67z"/><path fill="#f6d4bd" d="M144.38 189.05c.6-.02 1.8-.07 2.4-.1 1.92 2.32 4.8 3.38 7.09 5.23 3.03 4.36 1.31 10.02-2.12 13.59-2.71.64-4.86-1.69-6.96-3.01l4.2-.33c-1.49-1.92-3.51-3.26-5.8-4.08-.38.5-.75 1-1.11 1.51l-.93 1.23c.09-4.89 2.74-9.21 3.23-14.04z"/><path fill="#fcccaf" d="M194.03 190.46c2.72 1.26 5.61.75 8.28-.34 1.52 1.89 2.22 4.16 2.19 6.58.59-1.9 1.4-3.72 2.49-5.39 1.14 4.64-.98 9.26-.08 13.9.22 1.66.47 3.33.63 5-.34 5-.68 10.04-1.92 14.91.12-6.49 1-13.01-.1-19.47-2.81 5.08-.79 11.33-3.36 16.5-1.51 2.34-4.73 4.18-7.49 3.04-3.48-3.63-5.99-8.09-8.58-12.37-1.53-2.28-.55-5.05-.58-7.57.01-4.17 2.76-7.74 2.62-11.96 2-.87 3.93-1.88 5.9-2.83z"/><path fill="#faf3ef" d="M305.14 200.27c-1.19-2.91-1.79-6.01-1.53-9.14 4.76 9.35 8.49 19.22 12.4 28.96.1 1.23.24 2.45.43 3.68l1.11-.41c-.13 1.55-.23 3.1-.33 4.65-.4-2.84-1.67-5.37-3.17-7.76-2.91-6.69-6.18-13.22-8.91-19.98z"/><path fill="#fcd4b8" d="M101.91 195c1.46-.9 3.19-.15 4.75-.01 1.1-.17 2.2-.37 3.31-.54.57 1.52.83 3.24 1.83 4.57 1.3-.12 2.59-.32 3.88-.53-.5.76-1 1.52-1.49 2.28 1.47.23 2.95.46 4.42.7 2.59 4.13 5.68 8.12 6.99 12.9.97 6.13-1.12 13.28-6.49 16.83-2.62.94-5.49.61-8.22.87-3.62-4.44-6.45-9.45-9.46-14.3-3.15-4.97-3.05-11.02-3.93-16.63 2.11-1.57 2.91-4.11 4.41-6.14z"/><path fill="#fcd8be" d="M180.51 195.14c2.54-.61 5.1-1.17 7.62-1.85.14 4.22-2.61 7.79-2.62 11.96.03 2.52-.95 5.29.58 7.57 2.59 4.28 5.1 8.74 8.58 12.37 2.76 1.14 5.98-.7 7.49-3.04 2.57-5.17.55-11.42 3.36-16.5 1.1 6.46.22 12.98.1 19.47-.21 1.77.55 3.4 1.02 5.06.21 1.36.39 2.72.55 4.09-.6-.36-1.79-1.1-2.39-1.47.22-1.23.41-2.46.55-3.7l-1.22-1.43c-.24-.91-.48-1.82-.71-2.73-4.17 1.92-8.71 3.97-13.4 3.06-2.92-1.26-5.73-2.76-8.81-3.58-1.8-5.64-3.58-11.45-3.43-17.44.11-4.09 1.6-7.95 2.73-11.84z"/><path d="M229.75 206.91c.57-4.2-.68-8.74 1.53-12.6.04 10.3-1.04 20.58-2.51 30.77-.81 4.76-.27 9.98-2.67 14.33-1.02-8.85-.89-17.88.35-26.7.31 4.57-.35 9.29 1.12 13.71 1-6.47 1.41-13.01 2.18-19.51zm-155.6 39.11c.75-9.1 1.17-18.23 2.5-27.27-.12 3.84.06 7.68.3 11.52 1.04-1.84 2.07-3.69 3.1-5.54.82 6.53 1.83 13.07 1.52 19.69-.35-1.81-.75-3.6-1.11-5.41-.25 2.5-.62 4.99-1 7.48-.6-3.15-1.06-6.33-1.28-9.53-.38 2.77-.7 5.55-.85 8.35-.71-1.15-1.43-2.29-2.15-3.43-.28 4.18-.38 8.38-.12 12.57-.62-2.77-1.18-5.59-.91-8.43z" fill="#917f75"/><path fill="#9f938a" d="M232.68 223.45c.21-8.52 1.36-17 2.21-25.48 2.36 1.43 4.9 2.57 7.24 4.04 2.24 5.52 2.92 11.55 4.34 17.32.85 5.37 3.83 10.06 5.14 15.3 1.46 4.91 1.52 10.22 3.86 14.87 2.07 3.91 2.06 8.43 2.09 12.73-1.34-1.15-2.12-2.73-2.69-4.37-1.9 1.38-1.61 3.75-1.67 5.82-.4.17-1.19.52-1.58.7.38.6.76 1.21 1.15 1.82-.27.82-.53 1.64-.8 2.47-.54-.42-1.08-.83-1.62-1.25l-1.2 4.22c-3-3.33-5.6-7.06-6.85-11.41-.21 1.72-.43 3.43-.65 5.16-.17-.36-.52-1.08-.69-1.44-.76-3.57-2.12-6.95-3.56-10.28-1.47-3.28-.69-6.92-.18-10.31.84-4.83 1.37-9.72 2.64-14.46.53-2.29 1.44-4.79.1-6.98-2.7 2.28-2.94 6.28-4.57 9.3-.83-2.62-1.78-5.19-2.71-7.77z"/><path fill="#82694e" d="M143.19 200.35c2.29.82 4.31 2.16 5.8 4.08l-4.2.33c-.89-.98-1.8-1.94-2.71-2.9.36-.51.73-1.01 1.11-1.51z"/><path fill="#ded5d1" d="M301.63 202.96c.09-.15.27-.46.36-.62 1.67 3.06 3.62 6 4.89 9.28-1.3 8.34 4.07 15.85 3.31 24.15-2.2-5.57-2.69-11.6-4.33-17.32-1.46-5.15-2.72-10.36-4.23-15.49z"/><path fill="#4c3932" d="M299.38 206.36c.56-.85 1.69-2.55 2.25-3.4 1.51 5.13 2.77 10.34 4.23 15.49 1.64 5.72 2.13 11.75 4.33 17.32 1.9 9.97 3.46 20.13 2.08 30.29l-.3.87c-.81 1.91-1.27 3.94-1.34 6.02-.1 1.23-.18 2.45-.3 3.68-1.4 4.6-4.03 8.83-7.61 12.05-.69-.33-2.05-.99-2.73-1.31 2.5-3 5-6.13 6.27-9.88 3.41-9.44 2.64-19.69 2.01-29.52-2.06-14.03-4.89-28-8.89-41.61z"/><path fill="#736660" d="M286.58 204.77c4.1 7.19 5.89 15.38 7.26 23.46-.46-.75-.93-1.5-1.41-2.23-.13 2.38-.24 4.77-.23 7.16-2.79-8.38-3.79-17.18-6.05-25.69.11-.67.32-2.02.43-2.7z"/><path fill="#a3938a" d="m285.22 208.5.93-1.03c2.26 8.51 3.26 17.31 6.05 25.69 2.59 13.34 5.51 27.11 3.04 40.69-.62 4.64-1.56 10-5.97 12.59-3.11-.18-6.2-.6-9.21-1.42 4.36-3.64 4.66-9.77 5.19-14.99.57-12.98-2.69-25.71-5.77-38.21.89-2.47 1.66-5 2-7.61-1.89-3.54-2.8-7.46-3.46-11.38 2.56.21 4.53 1.66 5.85 3.8.79-2.63 1.75-5.33 1.35-8.13z"/><path d="M306.88 211.62c2.77 6.84 6.14 13.41 8.82 20.29 4.19 9.44 6.64 20.12 3.58 30.27-1.92 2.91-4.04 5.68-6.46 8.2-.21-.86-.64-2.59-.85-3.45l.3-.87c1.38-10.16-.18-20.32-2.08-30.29.76-8.3-4.61-15.81-3.31-24.15zm13.49 54.44c.16-.67.47-2.02.63-2.7.19 1.34.39 2.68.58 4.03-1.78 3.02-4.06 5.69-6.62 8.08-1.48.06-2.97.13-4.44.21.02-.68.08-2.05.11-2.73 3.65-1.69 6.93-4 9.74-6.89z" fill="#fffbf6"/><path fill="#504035" d="M274.4 216c1.08 4.82 2.41 9.6 4.59 14.05.12.44.37 1.33.49 1.77 3.08 12.5 6.34 25.23 5.77 38.21-.53 5.22-.83 11.35-5.19 14.99-1.99 1.12-3.76 2.55-4.83 4.61-1.01-.81-2.03-1.63-3.1-2.35 3.16-.18 5.86-2.3 7.05-5.18 4.7-9.73 3.31-20.8 1.66-31.08-1.95-10.03-4.09-20.05-6.97-29.86.13-1.73.33-3.44.53-5.16z"/><path fill="#988980" d="M98.14 220.41c1.77 2.04 3.49 4.15 4.89 6.48 3.74 6.41 9.18 11.56 14.07 17.07 5.33 6.04 12.26 10.26 18.8 14.83 2.56 1.93 5.44 3.42 7.94 5.43 1.2 1.5 1.94 3.31 2.88 4.98 1.83 3.43 3.81 6.78 6.09 9.93 2.62 3.84 6.79 6.19 9.68 9.8-.72.22-2.17.64-2.89.85-3.53-.11-7.07-.04-10.6-.34-11.33-4.7-21.33-13.81-25.14-25.66-.41-.17-1.21-.51-1.62-.68.24 1.61.34 3.26.84 4.83 3.32 7.99 9.16 14.72 15.93 20.01 3.01 1.85 6.45 2.92 9.36 4.98-7.37 2.01-15.09 2-22.65 1.36 2.97-.05 5.94-.35 8.88-.82-6.39-2.64-13.77-4.02-18.51-9.56-4.76-3.92-6.85-9.83-10.33-14.72-3.1-4.58-4.33-10.04-5.92-15.24-3.76-8.87-6.22-18.64-4.96-28.32 1.97.28 3.93.58 5.9.9-1-1.99-1.89-4.03-2.64-6.11z"/><path fill="#816e64" d="M235.39 231.22c1.63-3.02 1.87-7.02 4.57-9.3 1.34 2.19.43 4.69-.1 6.98-1.27 4.74-1.8 9.63-2.64 14.46-.51 3.39-1.29 7.03.18 10.31 1.44 3.33 2.8 6.71 3.56 10.28l-2.29-.64-.32 3.04c-.49.33-1.46.98-1.94 1.3-.54-2.02-1.25-3.99-1.97-5.94 1.15-.49 2.31-.98 3.47-1.47-1.64-4.94-2.75-10.07-2.45-15.31.44-3.38-3.4-5.52-2.87-8.88.41-4.2.39-8.4.09-12.6.93 2.58 1.88 5.15 2.71 7.77z"/><path d="M292.43 226c.48.73.95 1.48 1.41 2.23 3.31 14.49 6.15 29.24 5.37 44.18-1.24 4.87-2.5 9.87-5.64 13.92-1.93 1.3-4.28 1.42-6.53 1.54.74-.47 1.49-.95 2.23-1.43 4.41-2.59 5.35-7.95 5.97-12.59 2.47-13.58-.45-27.35-3.04-40.69-.01-2.39.1-4.78.23-7.16zm-124.9 42.68c1.2-.14 2.44-.25 3.62.12 1.81 4.04 2.59 8.53 5.21 12.21.15-1.94.3-3.87.46-5.8.3-1.58.68-3.15 1.06-4.71 2.48 6.63 2.3 13.86 2.64 20.83-3.11 2.36-7.07 1.27-10.52.47-3.45-.78-7.09-.6-10.4-2.02.72-.21 2.17-.63 2.89-.85-2.89-3.61-7.06-5.96-9.68-9.8-2.28-3.15-4.26-6.5-6.09-9.93 3.39.6 5.13 3.82 7.13 6.26 2.54 3.61 5.32 7.18 8.95 9.76 4.1 2.5 8.69 4.09 13.19 5.72-.49-3.03-1.93-5.73-3.75-8.17-2.16-2.75-1.17-6.56-2.72-9.56-.69-1.5-1.71-2.88-1.99-4.53z" fill="#56433b"/><path fill="#b0a59f" d="M321.6 228.39c3.76 8.97 4.91 18.92 4.69 28.59-.25 4.62-.29 9.72-3.45 13.44 3.07-11.53 2.44-23.74-.33-35.25-.38-2.25-.63-4.52-.91-6.78z"/><path fill="#ffecde" d="M206.64 230.18c1 2.81.91 5.83.89 8.78-1.39.83-2.77 1.67-4.1 2.59.24-2.95.81-5.85 1.37-8.75.6.37 1.79 1.11 2.39 1.47-.16-1.37-.34-2.73-.55-4.09z"/><path d="M149.19 231.45c5.13-.4 10.27-.33 15.38.19v3.04c-4.96-1.07-10.03-.91-15.05-1.22l-.33-2.01zm-4.3 148.62c2.46-7.77 4.32-15.74 7.31-23.34-.58 3.51-.55 7.07-.44 10.61-1.13 4.17-2.7 8.21-3.98 12.34l-.89.69c-.5-.08-1.5-.23-2-.3z" fill="#5c4430"/><path fill="#c8b4a6" d="M230.93 237.81c.68 5.06.88 10.2 2.12 15.19.52 1.88.96 5.76-2.33 4.57-2.41-6.44-.41-13.22.21-19.76z"/><path fill="#5a4f49" d="M80.46 239.01c.36 1.81.76 3.6 1.11 5.41.85 5.64 1.98 11.23 3.58 16.71-.55 1.65-.97 3.35-1.17 5.08-1.17-2.73-2.07-5.58-2.76-8.47-.86-3.7-1.39-7.47-1.76-11.25.38-2.49.75-4.98 1-7.48z"/><path fill="#f6ccb3" d="M201.64 247.63c2.24-2.15 4.57-4.19 6.72-6.42 1.57 3.32 2.9 6.77 4.66 10-1.08 4.88-3.19 9.45-6.66 13.1-4.87-3.63-4.54-10.34-4.83-15.77.03-.23.09-.69.11-.91z"/><path fill="#67584f" d="M267.16 256.03c-1.24-5.21-4.56-9.81-4.74-15.28 4.5 6.56 6.68 14.31 8.76 21.9 2.07 7.46 2.12 15.43.36 22.96.28.23.82.69 1.09.92 2.2-1.46 4.3-3.06 6.55-4.43-1.19 2.88-3.89 5-7.05 5.18-2.06-.26-4.13-.41-6.18-.67 1.08-.51 2.16-1.02 3.25-1.53 2.09-9.67.75-19.66-2.04-29.05z"/><path fill="#5f4f46" d="M75.18 241.88c.72 1.14 1.44 2.28 2.15 3.43-.14 3.81-.03 7.66.83 11.39 2.1 11.73 6.54 23.44 15.31 31.84 3.41 3.58 7.87 5.94 12.43 7.72 2.29.8 4.69 1.2 7.06 1.67-1.6.78-3 2.94-4.96 2.47-3.51-.91-6.57-2.93-9.83-4.43-7.24-3.65-11.6-10.81-15.98-17.3-3.99-7.49-6.05-15.85-7.13-24.22-.26-4.19-.16-8.39.12-12.57z"/><path fill="#7d604c" d="M194.54 251.96c1.79-2.11 4.26-3.17 6.99-3.42.29 5.43-.04 12.14 4.83 15.77 4.02.84 8.02-.19 11.96-.87-3.59 3.49-8.93 5.01-13.65 2.86-6.12-2.8-5.55-10.57-5.4-16.18-1.59.59-3.17 1.19-4.73 1.84z"/><path fill="#f6ccaf" d="M194.54 251.96c1.56-.65 3.14-1.25 4.73-1.84-.15 5.61-.72 13.38 5.4 16.18-2.9 1.54-4.35 4.55-6.51 6.85-2 1.31-4.4 1.75-6.64 2.49-.22.65-.68 1.96-.9 2.61-.46-.81-.91-1.61-1.36-2.41-2.73-5.19-6.07-10.18-7.2-16.04 4.13-2.66 8.47-5 12.48-7.84z"/><path fill="#fce6d7" d="M206.36 264.31c3.47-3.65 5.58-8.22 6.66-13.1 2.66 3.82 5.91 7.37 10.02 9.66 1.61 1.14 4.11 1.75 4.27 4.1 1.13 5.22 2.5 10.39 4.37 15.41l-1.46-.33c-3.32-.6-7.05-2.03-10.17-.04-2.36 1.33-4.95 2.12-7.6 2.6-.43.53-1.3 1.6-1.74 2.13-4.6 2.89-9.38 5.66-14.67 7.08-1.59-5.59-4.29-10.76-6.78-15.98.45.8.9 1.6 1.36 2.41.22-.65.68-1.96.9-2.61 2.24-.74 4.64-1.18 6.64-2.49 2.16-2.3 3.61-5.31 6.51-6.85 4.72 2.15 10.06.63 13.65-2.86-3.94.68-7.94 1.71-11.96.87z"/><path fill="#7f6c62" d="M135.9 258.79c5.71 1.69 10.55 5.39 16.26 7.13-1.45.15-2.89.34-4.34.55 2.95 2.29 5.6 5.1 6.03 8.99-2-2.44-3.74-5.66-7.13-6.26-.94-1.67-1.68-3.48-2.88-4.98-2.5-2.01-5.38-3.5-7.94-5.43z"/><path fill="#9b8980" d="M175.04 263.11c.83-.28 1.65-.55 2.48-.83 3.96 9.8 6.12 20.16 7.49 30.61-.9-.86-1.83-1.7-2.76-2.53l-1.73.97c-.34-6.97-.16-14.2-2.64-20.83-.97-2.45-1.94-4.91-2.84-7.39z"/><path fill="#5e4a3d" d="M122.24 263.1c.41.17 1.21.51 1.62.68 3.81 11.85 13.81 20.96 25.14 25.66l-.03 3.56-.6-.08c-2.91-2.06-6.35-3.13-9.36-4.98-6.77-5.29-12.61-12.02-15.93-20.01-.5-1.57-.6-3.22-.84-4.83z"/><path d="m238.35 266.35.32-3.04 2.29.64c.17.36.52 1.08.69 1.44 2.37 4.69 5.34 9.17 9.29 12.68 4.36 3.8 9.11 7.65 15.01 8.54 2.05.26 4.12.41 6.18.67 1.07.72 2.09 1.54 3.1 2.35 1.01.86 2.03 1.7 3.07 2.55 7.05 13.05 14.63 25.84 21.18 39.18.67 3.46 1.82 6.8 3.38 9.97-.75.06-1.5.11-2.24.17-.53-.52-1.08-1.02-1.64-1.49-.22-2.05-.1-4.29-1.45-6-1.62-2.24-3.37-4.39-4.8-6.76-.63-1.67-1.3-3.33-2.07-4.93-5.55-11.04-11.51-21.86-17.54-32.64-3.99-.07-8.15.29-11.94-1.21-6.77-2.52-12.1-7.62-16.72-13.01-1.21-2.13-3.36-.53-4.86.24-.6-.71-1.2-1.42-1.77-2.14l4.18.04c-.67-2.67-1.86-5.16-3.66-7.25zm9.99 83.85c2.49-2.21 5.29-4.08 7.6-6.49.75.23 2.25.68 2.99.91-.14.39-.43 1.17-.57 1.56-4.01 3.43-8.53 6.24-12.31 9.93-8.37 8.74-14.52 19.28-20.16 29.91a8.53 8.53 0 0 0-3.87 1.62l-.87-1.15c4.45-9.48 9.94-18.6 17.29-26.13 3.32-3.37 6.29-7.08 9.9-10.16z" fill="#4d371f"/><path fill="#98887f" d="M161.69 266.86c3.62-.84 7.21-1.78 10.82-2.64 2.21 3.3 4.04 6.95 4.31 10.99-.16 1.93-.31 3.86-.46 5.8-2.62-3.68-3.4-8.17-5.21-12.21-1.18-.37-2.42-.26-3.62-.12.28 1.65 1.3 3.03 1.99 4.53 1.55 3 .56 6.81 2.72 9.56 1.82 2.44 3.26 5.14 3.75 8.17-4.5-1.63-9.09-3.22-13.19-5.72-3.63-2.58-6.41-6.15-8.95-9.76-.43-3.89-3.08-6.7-6.03-8.99 1.45-.21 2.89-.4 4.34-.55 3.11.66 6.34 1.84 9.53.94z"/><path fill="#ddc9bb" d="m231.2 265.29 2.23.2c1.18 3.32 1.02 6.91 2.15 10.25-.52-.06-1.58-.16-2.11-.21-1.79-3.09-2.04-6.76-2.27-10.24z"/><path fill="#f6d9cb" d="M236.41 267.65c.48-.32 1.45-.97 1.94-1.3 1.8 2.09 2.99 4.58 3.66 7.25l-4.18-.04c-.19-.63-.58-1.87-.77-2.49-.22-1.15-.42-2.29-.65-3.42z"/><path fill="#613f0f" d="M237.06 271.07c.19.62.58 1.86.77 2.49.57.72 1.17 1.43 1.77 2.14-.1 1.17-.15 2.36-.22 3.55 2.46 2.53 3.33 6.11 5.65 8.74a25.17 25.17 0 0 0 6.78 5.54c2.34.53 4.7.92 7.04 1.48-6.32 3.39-12.83-1.65-16.96-6.18-1.61-2.4-3.24-4.9-5.8-6.37-.78-3.88.64-7.58.97-11.39z"/><path fill="#f1ca91" d="M239.6 275.7c1.5-.77 3.65-2.37 4.86-.24 4.62 5.39 9.95 10.49 16.72 13.01 3.79 1.5 7.95 1.14 11.94 1.21 6.03 10.78 11.99 21.6 17.54 32.64l-2.52.12c-.6.51-1.21 1.02-1.81 1.53-1.32-.93-2.63-1.87-3.97-2.77.91-5.43-3.41-9.63-4.54-14.66-1.06-4.57-3.29-9.05-7.08-11.95-3.76-1-8.47 1.32-11.16-2.59-2.59.53-5.17 1.06-7.77 1.53a25.17 25.17 0 0 1-6.78-5.54c-2.32-2.63-3.19-6.21-5.65-8.74.07-1.19.12-2.38.22-3.55z"/><path d="M220.05 280.01c3.12-1.99 6.85-.56 10.17.04-6.89 5.03-14.19 9.45-21.63 13.61-7.92 4.63-16.11 8.93-24.79 11.96-3.12.8-6.47 2.62-9.63 1.02 2.02-3.85 4.44-7.46 7.59-10.47l3.47.21c.27-.56.8-1.66 1.06-2.22.24 2.38-.21 5.44 2.92 6.01.6-1.09 1.19-2.19 1.79-3.27 3.52-1.52 7.08-2.94 10.51-4.64 4.34-2.06 7.26-6.32 11.97-7.7-.69.05-2.08.14-2.77.18.44-.53 1.31-1.6 1.74-2.13 2.65-.48 5.24-1.27 7.6-2.6zm-50.46 33.41c.66-1.09 1.4-2.12 2.16-3.14 2.2 1.26 4.63 2.06 7.17 2.22-1.3.15-2.61.3-3.88.61-1.14 1.64-1.9 3.51-2.7 5.34-1.95 4.31-3.5 8.83-3.75 13.59-.26 4.63-4.29 7.77-5.49 12.1-1.21 4.75-3.58 9.1-4.72 13.87-1.65 8.32-6.11 15.84-6.85 24.39-1.32-.7-3.94-.62-3.75-2.72 1.28-4.13 2.85-8.17 3.98-12.34 4.91-14.78 9.74-29.62 16.34-43.76 1.67-3.24 2.85-6.7 3.75-10.23-.57.02-1.7.06-2.26.07zm54.08 42.14c3.32-4.47 4.08-10.66 8.98-13.91.54.65 1.6 1.94 2.13 2.59-2.88 3.04-5.03 6.65-7.06 10.28-3.85 6.87-7.38 13.95-9.91 21.42-.59-.53-1.78-1.59-2.37-2.12.85-3.35 1.26-6.81 2.43-10.07 1.59-2.96 3.97-5.39 5.8-8.19z" fill="#fbdea9"/><path fill="#54370f" d="m230.22 280.05 1.46.33c.28.4.84 1.19 1.11 1.59-3.22 2.51-6.63 4.75-9.97 7.07-10.26 6.76-21.06 12.71-32.34 17.58-5.69 2.08-11.75 5.36-17.89 3.07l-1.29-.29c.14-2.55.27-5.23 1.94-7.31 2.6-3.55 5.07-7.8 9.62-9.07-.28.79-.83 2.36-1.1 3.15-3.15 3.01-5.57 6.62-7.59 10.47 3.16 1.6 6.51-.22 9.63-1.02 8.68-3.03 16.87-7.33 24.79-11.96 7.44-4.16 14.74-8.58 21.63-13.61z"/><path fill="#f3d199" d="M232.79 281.97c1.12-.07 2.22.09 3.3.49 2.56 1.47 4.19 3.97 5.8 6.37-.63.19-1.87.59-2.5.78-1.82-1.7-3.75-3.28-5.8-4.7-.83 1.73-1.65 3.47-2.48 5.22 1.51.56 3.03 1.12 4.55 1.68-.01 1.22-.01 2.46-.01 3.69-.53.14-1.59.41-2.13.54.4-.71.79-1.42 1.19-2.13-1.27-.09-2.55-.16-3.82-.24-.64-1.99-2.48-2.54-4.35-2.75-1.27-.59-2.51-1.21-3.72-1.88 3.34-2.32 6.75-4.56 9.97-7.07z"/><path fill="#e8d4c6" d="M188.56 284.3c.35.17 1.05.5 1.4.67 1.03 2.76 2.53 5.42 2.71 8.42-.99.04-1.98.07-2.97.11-.65-3.03-1.06-6.11-1.14-9.2z"/><path fill="#f3c77a" d="M233.59 284.91c2.05 1.42 3.98 3 5.8 4.7.63-.19 1.87-.59 2.5-.78 4.13 4.53 10.64 9.57 16.96 6.18-2.34-.56-4.7-.95-7.04-1.48 2.6-.47 5.18-1 7.77-1.53 2.69 3.91 7.4 1.59 11.16 2.59 3.79 2.9 6.02 7.38 7.08 11.95 1.13 5.03 5.45 9.23 4.54 14.66-3.4-2.01-6.42-4.59-9.84-6.54-1.92-.37-3.92.46-5.81-.24-4.33-1.33-7.78-4.49-12.02-6.04-6.83-2.98-14.13-5.24-20.15-9.76-1.79-1.16-2.69-3.13-3.65-4.95 1.27.08 2.55.15 3.82.24-.4.71-.79 1.42-1.19 2.13.54-.13 1.6-.4 2.13-.54 0-1.23 0-2.47.01-3.69-1.52-.56-3.04-1.12-4.55-1.68.83-1.75 1.65-3.49 2.48-5.22z"/><path fill="#887e78" d="M275.23 289.63c1.07-2.06 2.84-3.49 4.83-4.61 3.01.82 6.1 1.24 9.21 1.42-.74.48-1.49.96-2.23 1.43 2.25-.12 4.6-.24 6.53-1.54.77 2.82 4.29.66 6.42 1.04.68.32 2.04.98 2.73 1.31-.43.41-1.27 1.24-1.69 1.65-2.23.74-4.6 1.47-6.86.39-5.39-1.97-11.35-3.09-16.93-1.19.26.66.79 1.99 1.06 2.65-1.04-.85-2.06-1.69-3.07-2.55z"/><path fill="#f1c983" d="M190.48 306.62c11.28-4.87 22.08-10.82 32.34-17.58 1.21.67 2.45 1.29 3.72 1.88-2.44 5-7.61 7.47-11.38 11.27-2.04 2.37-5.48 2.18-7.86 4.03-2.9 2.14-5.56 4.73-8.98 6.05-3.79 1.5-7.65 2.8-11.36 4.5l-.81 2.58c-3.7-.12-7.45-.04-11.02 1.08l-2.79-1.98c.8-1.83 1.56-3.7 2.7-5.34 1.27-.31 2.58-.46 3.88-.61-2.54-.16-4.97-.96-7.17-2.22l.84-.59c6.14 2.29 12.2-.99 17.89-3.07z"/><path d="M226.54 290.92c1.87.21 3.71.76 4.35 2.75.96 1.82 1.86 3.79 3.65 4.95 6.02 4.52 13.32 6.78 20.15 9.76 4.24 1.55 7.69 4.71 12.02 6.04 1.89.7 3.89-.13 5.81.24 3.42 1.95 6.44 4.53 9.84 6.54 1.34.9 2.65 1.84 3.97 2.77l-.59.44c-5.54-1.58-13.66 2.52-16.81-4.13-.45 4.15-4.86 4.54-8.1 5.61-5.18 1.47-9.85 4.22-14.89 6.08-3.84 1.46-7.79 3.42-10.13 6.94-.98 1.27-.06 2.87.01 4.26-.36.35-.7.7-1.04 1.07-.53-.65-1.59-1.94-2.13-2.59-4.9 3.25-5.66 9.44-8.98 13.91-1.83 2.8-4.21 5.23-5.8 8.19-1.17 3.26-1.58 6.72-2.43 10.07.59.53 1.78 1.59 2.37 2.12-1.47 3.7-2.64 7.56-4.62 11.04-.34.4-1.04 1.2-1.39 1.6-20.26 1-40.63-1.1-60.27-6.18.74-8.55 5.2-16.07 6.85-24.39 1.14-4.77 3.51-9.12 4.72-13.87 1.2-4.33 5.23-7.47 5.49-12.1.25-4.76 1.8-9.28 3.75-13.59l2.79 1.98c3.57-1.12 7.32-1.2 11.02-1.08l.81-2.58c3.71-1.7 7.57-3 11.36-4.5 3.42-1.32 6.08-3.91 8.98-6.05 2.38-1.85 5.82-1.66 7.86-4.03 3.77-3.8 8.94-6.27 11.38-11.27zm43.25 55.46c2.04-.13 4.09-.25 6.14-.18 3.81.03 7.16 2.16 10.88 2.71 1.53.46 3.67.12 4.4 1.91 1.81 3.31 3.52 6.73 6.29 9.39l-.08 2.03c-16.19 9.31-33.58 17.16-51.97 20.82.79-3.8 3.29-6.81 5.99-9.46.04-4.05-.26-8.22 1.25-12.07.42-1.87 2.17-4.3-.01-5.71 2.69-2.69 5.03-5.84 8.29-7.89 2.76-1.21 5.87-1.19 8.82-1.55z" fill="#fed186"/><path fill="#7f6038" d="M169.59 313.42c.56-.01 1.69-.05 2.26-.07-.9 3.53-2.08 6.99-3.75 10.23-1.62.26-2.98 1.19-4.02 2.42 1.85-4.18 3.19-8.61 5.51-12.58z"/><path fill="#f8d49f" d="M268.93 320.28c3.15 6.65 11.27 2.55 16.81 4.13l.59-.44c.6-.51 1.21-1.02 1.81-1.53l2.52-.12c.77 1.6 1.44 3.26 2.07 4.93.11.31.33.95.44 1.26-.99-.37-1.96-.75-2.94-1.12-.01.82-.04 2.47-.06 3.29-9.09-4.66-19.91-4.35-29.4-1.13-9.01 3-18.07 6.88-24.95 13.62-.07-1.39-.99-2.99-.01-4.26 2.34-3.52 6.29-5.48 10.13-6.94 5.04-1.86 9.71-4.61 14.89-6.08 3.24-1.07 7.65-1.46 8.1-5.61z"/><path fill="#583c21" d="M164.08 326c1.04-1.23 2.4-2.16 4.02-2.42-6.6 14.14-11.43 28.98-16.34 43.76-.11-3.54-.14-7.1.44-10.61 2.3-10.82 7.66-20.6 11.88-30.73z"/><path fill="#54371b" d="M260.77 329.55c9.49-3.22 20.31-3.53 29.4 1.13 1.26 1.07 2.54 2.12 3.8 3.2.07.57.22 1.71.3 2.27-.64-.08-1.91-.25-2.54-.33-3.39-1.83-6.8-3.92-10.69-4.39-7.44-.66-15.2-.35-22.09 2.55-10.3 3.31-20.44 9.11-26.29 18.56-6.19 9.84-10.97 20.51-14.84 31.45-.12.83-.38 2.48-.51 3.31l-.06.43c-.09-.2-.28-.6-.37-.8-1.24.59-2.45.39-3.69.05 1.98-3.48 3.15-7.34 4.62-11.04 2.53-7.47 6.06-14.55 9.91-21.42 2.03-3.63 4.18-7.24 7.06-10.28.34-.37.68-.72 1.04-1.07 6.88-6.74 15.94-10.62 24.95-13.62z"/><path fill="#efd4b9" d="M290.23 327.39c.98.37 1.95.75 2.94 1.12-.11-.31-.33-.95-.44-1.26 1.43 2.37 3.18 4.52 4.8 6.76-.27.49-.81 1.46-1.09 1.95-.61-.52-1.85-1.56-2.47-2.08-1.26-1.08-2.54-2.13-3.8-3.2.02-.82.05-2.47.06-3.29z"/><path fill="#f9e8de" d="M258.95 333.98c6.89-2.9 14.65-3.21 22.09-2.55 3.89.47 7.3 2.56 10.69 4.39 2.39 1.44 4.81 2.83 7.25 4.19.56.47 1.11.97 1.64 1.49 1.04 1.65 2.01 3.34 2.99 5.03.66 0 1.99-.01 2.66-.02.53 1.87 1.1 3.73 1.52 5.64-.09 1.3-.45 2.56-.7 3.84-1.17.56-2.33 1.13-3.48 1.71l-.57-.67c-4.48-5.16-7.91-11.33-13.52-15.42-.59-.16-1.77-.47-2.36-.63l-.79-.24c-4.67-1.66-9.75-1.19-14.55-.45-4.85 1.23-10.1-.21-14.67 2.21-.3.31-.91.91-1.21 1.21-2.31 2.41-5.11 4.28-7.6 6.49-3.61 3.08-6.58 6.79-9.9 10.16-7.35 7.53-12.84 16.65-17.29 26.13-.22.43-.66 1.3-.89 1.73-.21-1.32-.41-2.64-.57-3.96-.66 1.11-1.27 2.29-2.38 3.04.13-.83.39-2.48.51-3.31 3.87-10.94 8.65-21.61 14.84-31.45 5.85-9.45 15.99-15.25 26.29-18.56z"/><path fill="#796d68" d="M299.48 331.36c1.48 2.5 2.86 5.07 4.32 7.6 4.74 2.58 5.3 8.71 7.78 13.05-.95.04-2.84.11-3.79.14-.42-1.91-.99-3.77-1.52-5.64-.67.01-2 .02-2.66.02-.98-1.69-1.95-3.38-2.99-5.03.74-.06 1.49-.11 2.24-.17-1.56-3.17-2.71-6.51-3.38-9.97z"/><path fill="#675449" d="M293.97 333.88c.62.52 1.86 1.56 2.47 2.08.28-.49.82-1.46 1.09-1.95 1.35 1.71 1.23 3.95 1.45 6-2.44-1.36-4.86-2.75-7.25-4.19.63.08 1.9.25 2.54.33-.08-.56-.23-1.7-.3-2.27z"/><path fill="#a38664" d="M271.82 340.29c4.8-.74 9.88-1.21 14.55.45-3.96.48-7.95.52-11.92.77 4.14 1.1 8.44 1.08 12.69 1.09.41.28 1.23.86 1.63 1.15-5.77.12-11.53-.43-17.31-.45.12-1.01.23-2.02.36-3.01z"/><path fill="#fcdb9f" d="M257.15 342.5c4.57-2.42 9.82-.98 14.67-2.21-.13.99-.24 2-.36 3.01 5.78.02 11.54.57 17.31.45 5.14 4.57 8.26 10.84 12.71 16-1.37.81-2.72 1.64-4.06 2.49l.08-2.03c-2.77-2.66-4.48-6.08-6.29-9.39-.73-1.79-2.87-1.45-4.4-1.91-3.72-.55-7.07-2.68-10.88-2.71-2.05-.07-4.1.05-6.14.18-2.9-4.11-8.36-2.88-12.64-3.88z"/><path fill="#54370d" d="M274.45 341.51c3.97-.25 7.96-.29 11.92-.77l.79.24c.59.16 1.77.47 2.36.63 5.61 4.09 9.04 10.26 13.52 15.42l-1.56 2.72c-4.45-5.16-7.57-11.43-12.71-16-.4-.29-1.22-.87-1.63-1.15-4.25-.01-8.55.01-12.69-1.09z"/><path fill="#f1d197" d="M255.94 343.71c.3-.3.91-.9 1.21-1.21 4.28 1 9.74-.23 12.64 3.88-2.95.36-6.06.34-8.82 1.55-3.26 2.05-5.6 5.2-8.29 7.89-2.09 2.03-4.5 3.69-7 5.18.77 2.31 1.82 5.27-.46 7.13-1.54 2.85-5.32.71-7.1 3.05-1.78 2.41-2.24 5.52-3.93 8-1.52 2.29-3.14 4.53-4.35 7.01l-.37.7c-1.2-.27-2.39-.58-3.58-.87 5.64-10.63 11.79-21.17 20.16-29.91 3.78-3.69 8.3-6.5 12.31-9.93.14-.39.43-1.17.57-1.56-.74-.23-2.24-.68-2.99-.91z"/><path fill="#b6ada0" d="M310.21 353.24c.55.49.55.49 0 0z"/><path fill="#f5c97e" d="M252.68 355.82c2.18 1.41.43 3.84.01 5.71-1.51 3.85-1.21 8.02-1.25 12.07-2.7 2.65-5.2 5.66-5.99 9.46l-.12.37c-5.17.9-10.26 2.25-15.49 2.76 1.21-2.48 2.83-4.72 4.35-7.01 1.69-2.48 2.15-5.59 3.93-8 1.78-2.34 5.56-.2 7.1-3.05 2.28-1.86 1.23-4.82.46-7.13 2.5-1.49 4.91-3.15 7-5.18z"/></svg>