<svg width="400pt" height="400pt" viewBox="0 0 400 400" xmlns="http://www.w3.org/2000/svg"><path fill="#fff" d="M0 0h400v400H0V0m122.99 20.84c-4.67 2.45-9.85 3.87-14.28 6.79-11.96 6.68-23.59 14.1-34.08 22.93-7.34 5.6-13.38 12.66-20.04 19.02-17.68 20.39-32.34 43.83-40.42 69.71-5.52 15.84-8.92 32.49-9.76 49.22-1.77 11.09-.07 22.29.65 33.37 1.75 13.52 4.49 26.98 9.12 39.84 7.11 22.95 19.55 43.92 34.48 62.64 6.27 7.98 13.82 14.81 20.97 22.01 4.73 3.45 8.68 8.02 14.02 10.61.36-1.1 1.05-1.52 2.1-1.27-.38.91-1.14 2.75-1.52 3.67.85.69 1.72 1.38 2.6 2.05.64.42 1.28.84 1.92 1.28 2.26 1.5 4.53 2.97 6.85 4.37 3.16 2.2 6.52 4.11 10.06 5.64.64.44 1.92 1.34 2.56 1.79 1.42.65 2.84 1.33 4.24 2.05 6.2 3.08 12.58 5.81 19.08 8.2l-.02.1c.48.13 1.44.4 1.92.53 1.69.62 3.39 1.21 5.11 1.73.42.08 1.26.25 1.68.33l.04.31c2.66.83 5.31 1.68 8.03 2.31 2.29.66 4.61 1.22 6.94 1.77 1.55.37 3.11.74 4.68 1.05 1.13.17 2.26.37 3.38.58 1.99.45 4.02.74 6.06.93l-.22.28c.67.05 2 .15 2.66.21 15.81 2.42 31.93 2.71 47.83 1.02 1.3-.13 2.59-.26 3.89-.38l-.04-.16c.75-.09 2.26-.26 3.01-.35 3.89-.56 7.78-1.15 11.63-1.96.52-.14 1.56-.4 2.08-.54 3.71-.55 7.32-1.6 10.96-2.49 1.01-.33 2.02-.64 3.04-.93 2.71-.79 5.43-1.75 8.16-2.37 2.24-1.52 4.96-1.94 7.44-2.91 5.15-1.75 10.07-4.07 15-6.34 3.95-1.53 7.43-4.3 11.29-5.89.74-.41 2.21-1.24 2.95-1.65.34-8.3-.5-16.64-.51-24.96-.92-18.69-.78-37.43-2.05-56.11 1.85 1.06 4.29 1.49 5.71 3.14 2.64 14.52 2.88 29.34 3.96 44.03.22 9.57 1.34 19.1 1.14 28.68 1.05-.7 2.11-1.39 3.17-2.09 3.4-2.84 7.42-4.91 10.5-8.14 3.02-1.81 5.62-4.33 8.33-6.6 2.65-2.36 5.27-4.75 7.7-7.33l.39.23.02-.73c1.57-1.22 2.92-2.69 4.3-4.11.38-.47 1.16-1.4 1.54-1.87l-.67-1c27.04-28.79 44.7-66.07 50.5-105.12 1.25-6.95 1.22-13.99 2.15-20.97.72-30.64-5.83-61.44-18.89-89.2-1.17-3.32-2.86-6.41-4.73-9.37-5.3-9.76-11.46-19.04-18.17-27.87-6.45-8.79-14.36-16.29-22.04-23.99-12.93-11.85-27.69-21.55-43-30.06-20.7-10.15-42.99-17.43-65.95-20.17-4.76-1.02-9.68-.35-14.44-1.42-29.05-1.19-58.24 4.62-85.01 15.93m176.93 296.23c3 .75 2.06-2.34 2.19-4.19-2.84-.47-1.99 2.4-2.19 4.19m1.4 8.33c-.64 1.75-1.1 5.05.34 6.25.55-1.75 1.18-5.16-.34-6.25z"/><path fill="#dbd8c9" d="M122.99 20.84C149.76 9.53 178.95 3.72 208 4.91c4.76 1.07 9.68.4 14.44 1.42 22.96 2.74 45.25 10.02 65.95 20.17 15.31 8.51 30.07 18.21 43 30.06 7.68 7.7 15.59 15.2 22.04 23.99 6.71 8.83 12.87 18.11 18.17 27.87 1.87 2.96 3.56 6.05 4.73 9.37 13.06 27.76 19.61 58.56 18.89 89.2-.93 6.98-.9 14.02-2.15 20.97-5.8 39.05-23.46 76.33-50.5 105.12-6.42-8.18-11.76-17.11-18.01-25.4.11-2.29-1.57-3.95-2.89-5.6-2.38-2.75-4.64-5.94-8.33-6.95-2.57-1.99-5.53-3.31-8.65-4.16-3.8-1.87-7.67-3.73-10.99-6.38-4.16.51-7.78-2.33-11.62-3.54 1.07-1.69 2.03-3.44 2.91-5.23 2.62 3.38 6.01 6 9.3 8.69.63-.23 1.88-.68 2.51-.91l-2.11.99c4.89 1.41 9.07 5.15 14.37 5.02 4.32.14 8.73-1.89 11.06-5.6-.28-.07-.85-.21-1.14-.29-.52-.14-1.57-.41-2.09-.55-1.19.36-2.34.79-3.5 1.22-.14-.54-.42-1.61-.56-2.14 4.28-2.1 6.53-6.44 9.74-9.74 2.06-2.15 2.93-5.06 3.83-7.82.31.3.92.91 1.23 1.22 1.32-7.45.37-15.16-1.73-22.37-.39.04-1.18.13-1.58.18-3.65-8.45-9.84-15.41-16-22.1-1.66-2.6-2.12-5.79-3.66-8.48 6.86-2.4 11.5-8.56 14.8-14.75 1.82-3.23 2-7.01 2.83-10.55.37.26 1.11.78 1.47 1.04.18-7.1.6-14.63-3.01-21.06-.38-.04-1.14-.14-1.53-.18-2.65-6.5-7.73-11.42-12.6-16.28-4.7-5.26-10.38-9.6-14.55-15.33-4.36-5.99-8.97-11.83-12.55-18.33-.38-1.91-.83-3.82-1.81-5.52-3.24-5.85-5.22-12.27-7.7-18.45-.3-.76-.87-1.21-1.71-1.36-3.51-8.17-7.2-16.68-12.97-23.68-6.44-9.33-13.37-19.19-23.94-24.14-8.34-3.31-16.88-6.26-25.76-7.71.29-.43.87-1.28 1.16-1.7-10.33-.64-20.66.91-30.9 2.13.55.37 1.64 1.1 2.19 1.46-10.5 1.2-19.51 7.03-29.44 10.09-6.34 2.11-11.8 6.04-17.55 9.33-6.49 3.69-9.55 10.93-12.47 17.42-3.69 8.62-5.1 18.1-9.69 26.35-3.41 6.15-7.06 12.17-10.96 18.02-2.35 3.49-4.23 7.76-8.37 9.47-9.67 4.73-18.68 11.65-23.77 21.34-3.08 5.86-4.99 12.59-4.09 19.24.48 4.18 3.27 7.51 5.11 11.15-1.06 3.59.69 7.36-.69 10.92-2.31 6.78-2.02 13.95-1.88 21 .06 2.48.87 4.87 1.94 7.09.42.07 1.26.22 1.68.3 1.77 2.69 3.52 5.53 6.21 7.41 2.93 2.24 6.74 2.52 10.27 3.04.23 2.46.6 4.9 1.12 7.32-4.67 7.13-8.64 14.73-11.94 22.57-2.59 6.78-5.19 14.49-2.83 21.67 3.09 7.2 11.74 8.86 18.44 11.06 1.16 8.24-5.27 15.53-12.39 18.66-.88-.79-1.77-1.58-2.66-2.35.7 2.04 1.76 4.18 3.91 4.99 5.27.83 10.01-2.52 13.28-6.32 1.55 3.57 3.44 7.32 6.97 9.3 2.81 1.89 6.26 2.03 9.54 2.01-2.67 2.33-5.52 4.53-7.59 7.43-6.14 8.76-10.52 18.58-14.48 28.47-1.05-.25-1.74.17-2.1 1.27-5.34-2.59-9.29-7.16-14.02-10.61-7.15-7.2-14.7-14.03-20.97-22.01-14.93-18.72-27.37-39.69-34.48-62.64-4.63-12.86-7.37-26.32-9.12-39.84-.72-11.08-2.42-22.28-.65-33.37.84-16.73 4.24-33.38 9.76-49.22 8.08-25.88 22.74-49.32 40.42-69.71 6.66-6.36 12.7-13.42 20.04-19.02 10.49-8.83 22.12-16.25 34.08-22.93 4.43-2.92 9.61-4.34 14.28-6.79z"/><path fill="#f0e5dd" d="M175.89 37.27c10.24-1.22 20.57-2.77 30.9-2.13-.29.42-.87 1.27-1.16 1.7-9.23-.57-18.37 1.18-27.55 1.89-.55-.36-1.64-1.09-2.19-1.46z"/><path fill="#1a0101" d="M178.08 38.73c9.18-.71 18.32-2.46 27.55-1.89 8.88 1.45 17.42 4.4 25.76 7.71 10.57 4.95 17.5 14.81 23.94 24.14 5.77 7 9.46 15.51 12.97 23.68 3.42 8.58 5.97 17.62 11.22 25.33 3.58 6.5 8.19 12.34 12.55 18.33 4.17 5.73 9.85 10.07 14.55 15.33 4.87 4.86 9.95 9.78 12.6 16.28 3.15 6.2 4.2 13.34 3.07 20.2-.83 3.54-1.01 7.32-2.83 10.55-3.3 6.19-7.94 12.35-14.8 14.75 1.54 2.69 2 5.88 3.66 8.48 6.16 6.69 12.35 13.65 16 22.1 2.62 6.66 2.62 13.93 2.08 20.97-.9 2.76-1.77 5.67-3.83 7.82-3.21 3.3-5.46 7.64-9.74 9.74-1.62.3-2.9-.65-4.12-1.54 1.05.08 2.1.17 3.15.28 1.28-.74 2.56-1.49 3.83-2.24-.09-.44-.27-1.31-.36-1.74 2.77-1.29 4.4-3.98 5.18-6.85 2.88-10.82 2.25-22.69-2.8-32.79-1.71-5.34-5.57-9.55-9.53-13.36.08 4.33-1.8 9.12.96 12.96 4.56 7.92 6.32 18.86.54 26.63-3.56 4.97-9.63 7-15.31 8.42 1.05 3.17 2.41 6.26 4.39 8.97 1.47 1.69 3.01 3.6 5.24 4.28 2.82.78 5.47-.73 8.11-1.48-.97 1.21-1.97 2.4-2.96 3.59 3.5-.54 6.88-1.65 9.83-3.66.29.08.86.22 1.14.29-2.33 3.71-6.74 5.74-11.06 5.6-5.3.13-9.48-3.61-14.37-5.02l2.11-.99c-.63.23-1.88.68-2.51.91-3.29-2.69-6.68-5.31-9.3-8.69-.88 1.79-1.84 3.54-2.91 5.23 3.84 1.21 7.46 4.05 11.62 3.54 3.32 2.65 7.19 4.51 10.99 6.38 3.12.85 6.08 2.17 8.65 4.16 4.13 3.82 7.83 8.07 11.22 12.55 6.25 8.29 11.59 17.22 18.01 25.4l.67 1c-.38.47-1.16 1.4-1.54 1.87-3.91-5.65-8.15-11.07-11.68-16.97-2.79-4.65-6.07-8.99-9.88-12.85-.59-.68-1.2-1.34-1.82-1.97-3.38-3.62-6.85-7.19-10.85-10.14-.29 5.69 1.16 11.31.68 16.99-.42 6.02-.58 12.08.09 18.08.12 1.56.2 3.14.25 4.72.42 7.27 1 14.53 1.5 21.79.23 2.34.38 4.68.47 7.03-1.06.7-2.12 1.39-3.17 2.09.2-9.58-.92-19.11-1.14-28.68-1.08-14.69-1.32-29.51-3.96-44.03-1.42-1.65-3.86-2.08-5.71-3.14 1.27 18.68 1.13 37.42 2.05 56.11.01 8.32.85 16.66.51 24.96-.74.41-2.21 1.24-2.95 1.65-.99-8.48-.45-17.08-.91-25.61-.88-11.41-.52-22.89-1.53-34.3-.08-1.79-.15-3.56-.23-5.34-.04-.75-.11-2.26-.15-3.01-.27-4.4-.6-8.79-1-13.18-.12-.72-.35-2.15-.46-2.87-.23-.1-.7-.29-.93-.38-3.42-1.33-6.81-2.78-9.85-4.86-1.51 1.34-3.06 2.65-4.84 3.63-1.04.35-2.07.68-3.11 1.01.33 1.78.69 3.55 1.15 5.3.78 2.98 1.35 6.01 1.75 9.07.43 5.09 1.39 10.09 2.79 15 .6 1.24-1.08 1.84-1.64 2.69-.97.43-1.95.85-2.93 1.26 1.64-1.62 1.59-3.64.7-5.59-2.47-8.31-2.9-17.07-5.43-25.36-1.52 1.1-3.04 2.22-4.64 3.2-3.13.51-6.4 1.03-9.54.35-1.64-.93-3.09-2.14-4.67-3.16-1 2.16 1.39 3.23 2.74 4.25 3.14 2.22 6.89 3.23 10.62 3.93-.15.19-.44.59-.59.78-.36.07-1.08.2-1.43.27-1.48-.29-2.94-.61-4.39-1-4.22-1.03-7.57-3.87-10.65-6.78-1.91-.31-3.67-1.09-5.17-2.29-3.17 14.81-7.91 29.23-11.49 43.94-3.9 13.36-7.79 26.74-10.65 40.37.71 1.17 1.42 2.35 2.14 3.53 3.53-8.07 8.5-15.41 14.54-21.81.85-.91 1.7-1.82 2.55-2.72.85-.95 1.64-1.94 2.41-2.95l1.52-2.12c1.52-2.15 3-4.32 4.39-6.56-2.73-2.57-5.39-5.23-7.8-8.11-.9-1.08-1.78-2.17-2.66-3.26 8.62-3.99 18.37-3.85 27.44-6.28 1.58-.34 3.15-.7 4.71-1.12.54-.15 1.6-.44 2.13-.59.67-.04 2-.13 2.66-.18-1.69 4.09-6.85 3.2-10.37 4.24-4.02.67-8.02 1.52-11.98 2.48-3.72.53-7.45 1.06-11.09 2 2.85 2.53 5.78 5.01 8.36 7.83.74.98 1.44 1.99 2.14 3-1.92 1.74-2.93 4.15-4.15 6.38-.24.39-.74 1.16-.99 1.54-.58.9-1.17 1.8-1.78 2.7-.23.31-.68.94-.91 1.25-5.51 7.1-11.6 13.83-15.8 21.85-1.11 1.87-2.23 3.74-3.22 5.69-2.18 2.88-2.21 6.37-1.46 9.76.19 1.99.6 3.96 1.09 5.91l.04.16c-1.3.12-2.59.25-3.89.38-.25-4.35-.65-8.7-1.37-13-.06-.37-.2-1.13-.26-1.51-.57-3.57-.93-7.22-2.33-10.59-2.73-7.45-8.1-13.44-12.73-19.74-5.7-7.79-11.2-15.71-16.74-23.6l-1-1.48c-2.96-4.19-5.77-8.47-8.3-12.93-1.75-.78-4.1-.73-5.37-2.3-.16-1.53.09-3.1.09-4.62-2.18 0-4.35-.05-6.52-.05-3.24.17-6 2.11-9.04 3.01-1.62.82-2.3 2.6-2.42 4.33-.43 3.95-1.04 7.89-2.07 11.75-.09.33-.27 1-.36 1.34-.23.89-.46 1.78-.68 2.68-.62-.3-1.87-.92-2.5-1.23l.29-1.16c.48-2.12.97-4.24 1.49-6.34.1-.44.31-1.31.41-1.74.38-2.06.53-4.15.72-6.22-6.81.64-13.51-1.86-18.77-6.11-1.14 3.01-2.87 5.81-5.5 7.74-.45.16-1.33.49-1.78.65-2.5 1.06-5.24 1.03-7.9 1.01-4.18 3.53-8.38 7.04-12.48 10.66-4.67 5.41-7.96 11.88-10.97 18.33-2.61 5.38-4.97 10.9-6.71 16.64-.88-.67-1.75-1.36-2.6-2.05.38-.92 1.14-2.76 1.52-3.67 3.96-9.89 8.34-19.71 14.48-28.47 2.07-2.9 4.92-5.1 7.59-7.43-3.28.02-6.73-.12-9.54-2.01-3.53-1.98-5.42-5.73-6.97-9.3-3.27 3.8-8.01 7.15-13.28 6.32-2.15-.81-3.21-2.95-3.91-4.99.89.77 1.78 1.56 2.66 2.35 7.12-3.13 13.55-10.42 12.39-18.66-6.7-2.2-15.35-3.86-18.44-11.06-2.36-7.18.24-14.89 2.83-21.67 3.3-7.84 7.27-15.44 11.94-22.57-.52-2.42-.89-4.86-1.12-7.32-3.53-.52-7.34-.8-10.27-3.04-2.69-1.88-4.44-4.72-6.21-7.41-2.92-5.68-2.94-12.27-2.42-18.47.75-6.91 4.78-14.02 1.37-20.84-1.84-3.64-4.63-6.97-5.11-11.15-.9-6.65 1.01-13.38 4.09-19.24 5.09-9.69 14.1-16.61 23.77-21.34 4.14-1.71 6.02-5.98 8.37-9.47 3.9-5.85 7.55-11.87 10.96-18.02 4.59-8.25 6-17.73 9.69-26.35 2.92-6.49 5.98-13.73 12.47-17.42 5.75-3.29 11.21-7.22 17.55-9.33 9.93-3.06 18.94-8.89 29.44-10.09m2.87 3.21c-10.79.88-19.97 7.04-30.22 9.86-7.34 1.96-13.82 6-20.58 9.32-4.33 2.57-5.99 7.62-8.04 11.93-2.76 7.2-4.97 14.63-6.53 22.19l.17.22-.55.49c-3.5 8.83-8.6 16.92-13.95 24.74a80.225 80.225 0 0 1-3.71 5.12c4.09-.85 8.27-1.38 12.45-1.06 3.36.36 6.57-.9 9.88-1.16 4.91-.15 9.88.38 14.75-.56 2.94-.37 6.01.07 8.93-.55 5.22-1.84 10.26-4.16 15.38-6.24 11.15-4.28 23.33-3.47 35.03-3.24 11.28.25 21.73 5.77 33.07 5.37 12.79-.41 25.48-8.65 38.27-3.64 2.33 1.28 4.72 2.53 6.75 4.28 6.28 5.72 8.7 14.87 15.99 19.57-5.94-8.28-12.36-16.35-16.79-25.61-3.05-5.42-5.03-11.31-6.99-17.17-4.36-8.7-7.56-18.03-13.01-26.16-3.69-6.88-8.49-13.46-14.75-18.19-2.2-1.82-4.59-3.48-7.24-4.57-8.15-2.86-16.3-6.16-24.97-6.97-7.84-.29-15.56 1.41-23.34 2.03m-12.02 76.52c6.91 10.18 12.25 22.61 23.44 28.83-7.02-7.56-12.4-16.46-17.15-25.58-.9-1.27-.95-2.78-.94-4.27-1.78.32-3.57.66-5.35 1.02m8.28-1.21c.59 3.83 1.17 7.84 3.35 11.15 3.37 5.34 6.67 10.79 10.95 15.47.38-.22 1.12-.68 1.49-.91-.35.42-1.05 1.26-1.4 1.67 1.2.58 2.37 1.18 3.54 1.81 1.91 2.36 6.16 3.95 8.7 1.93.25.13.74.38.99.5-1.62 2.19-4.49 1.85-6.88 2.01-5.75.45-10.43-3.59-14.28-7.33-6.3-6.42-10.36-14.5-15.38-21.87a4.874 4.874 0 0 0-1.77-1.89c.14 2.34.3 4.67.71 6.98.8 6.64 2.63 13.57 7.23 18.63 1.78 2.5 4.87 2.88 7.67 3.23-2.69-.22-5.8.3-7.91-1.8-7.19-5.87-8.46-15.61-10.09-24.16 0-.81-.01-2.43-.01-3.24-5.26 1.6-10.29 3.86-15.6 5.3-2.43 7.66-2.67 16.08-.88 23.89.56-.06 1.69-.17 2.26-.23 1.77.03 3.57-.03 5.31.38-2.36-.23-4.73.04-7.08.29-.09 2.01 2.13 2.27 3.51 3.06-.13.57-.4 1.7-.54 2.27-2.1.29-3.91-.98-5.93-1.16-.82-1.79-1.8-3.5-3.02-5.04l-.14-.24c-1.15-2.82-1.55-5.83-1.96-8.82-.4-4.2.26-8.4.61-12.57-1.78.08-3.55.28-5.27.72-.66 7.01-1.83 14.05-1.31 21.11l.83-.04c-.41 1.46-.32 2.94.28 4.43l.49.05c.82 2.51 3.74 2.8 5.19 4.71-3.47.33-6.18-2.33-7.82-5.08-2.08-.05-4.16.11-6.19.63l1.64-1.56c1.32.12 2.65.26 3.97.41.31-3.69-1-7.32-.36-10.98.62-4.55.68-9.17 1.68-13.66-.76.04-2.3.13-3.06.18-1.76 6.21.81 12.52-.68 18.76-1.04-5-1.79-10.25-1-15.35.74-1.83.38-3.15-1.08-3.94-4.31 8.12-6.37 17.19-8.15 26.15-.36 3.03-.2 6.35 1.66 8.92-.56.06-1.69.19-2.26.25l-.39.9.58-.16c2.87 14.5 6.87 28.77 11.88 42.67 2.32 6.4 3.66 13.83 8.83 18.61 4.44 6.31 10.3 11.51 16.33 16.24 5.99 3.09 12.21 5.83 18.48 8.31 7.49 1.8 15.26 4.49 23.01 2.75 6.22-.86 10.98-5.34 15.99-8.71 8.5-6.85 15.94-15.05 21.51-24.46 2.05-3.9 3.37-8.12 5.26-12.09l.2-.08c1.02-2.01 1.81-4.12 2.48-6.26l-.11-.35c1.1-5.22 1.11-10.56 1.48-15.85.37 3.39.63 6.79.84 10.19.24-3.58.24-7.17.41-10.75.93.61 1.86 1.23 2.79 1.85 1.61-1.58 2.88-3.46 4.13-5.32-.84-1.27-1.72-2.51-2.49-3.81.64-2.16 3.12-1.25 4.69-1.13 1.26-3.04 2.48-6.13 2.76-9.43l.32-.27c.57-4.92.17-10.01-2.02-14.52-.4-.25-1.19-.76-1.59-1.01-.63-1.97-2.12-3.34-3.87-4.35-.51.55-1.53 1.63-2.04 2.17-1.18-.54-2.36-1.07-3.54-1.61-2.9-.75-5.81-1.52-8.79-1.82-9.33-2.92-19.74-.07-28.62-4.7-.79-.45-2.43-1-2.84-1.4-5.98-2.92-11.21-7.15-15.87-11.85-3.02-2.35-5.78-5.01-8.08-8.08-.79-1.3-2.52-.53-3.73-.7m7.32-.26c2.72 4.03 5.45 8.19 9.39 11.16 6.56 5.19 13.85 9.95 22.15 11.72-9.7-4.28-17.8-11.29-25.31-18.62-1.9-1.65-3.47-4.12-6.23-4.26m4.82.11c3.04 3.32 6.62 6.1 9.91 9.16 5.58 4.86 11.85 9.04 18.78 11.72 6.89 2.71 14.41 2.75 21.53 4.52 1.94.56 3.8 1.39 5.83 1.64-.36-2.44-2.68-3.67-4.3-5.25-4.5-3.66-8.4-8.15-13.59-10.9-1.79-1.37-3.4-2.96-4.76-4.76-11.34-1.02-21.89-6.38-33.4-6.13m56.26 1.45c-6.5 3.01-13.54 4.87-20.74 4.67 2.32 2.24 5.4 4.1 8.39 5.14 5.5 5.91 12.66 9.98 19.77 13.6-3.15-4.89-6.74-9.48-10.25-14.11l-.61.09c-.48-1.32-.92-2.65-1.28-4 2.09 1.47 3.64 3.54 5.33 5.45 2.84 3.97 5.78 7.89 8.42 12.01 2.08 3.74 6.89 4.4 9.52 7.65l-3.29.2c5.54 8.81 8.74 19.32 7.73 29.77-2.76-3.77-.17-9.89-3.66-12.98-.21 3-.25 6.01-.43 9.02-.41-3.36.02-6.72.13-10.07-.25-4.43-2.1-8.62-4.56-12.25 1.04 7.87.89 16.02-2.32 23.42 5.88 5.7 7.28 14.85 4.73 22.43-1.42 4.17-4.72 8.47-9.48 8.66-3.17.16-5.49-2.3-7.71-4.2-1.55 5.24-3.36 10.39-5.45 15.43-2.55 4.76-5.76 9.11-8.9 13.49-2.88 3.13-6.13 5.91-8.97 9.09.07 2.1.19 4.21.41 6.31 1.87-4.15 2.33-10.43 7.79-11.39.17 2.03-1.65 2.68-2.87 3.7-4.38 10.53-4.86 23.05-.74 33.74 2.02 5.74 7.72 8.75 13.39 9.71l.09 1.16c-8.28 1.98-16.94-4.58-18.3-12.78-1.41-3.69-.33-7.94-2-11.45-.21-.4-.65-1.19-.87-1.59-1.82-4.25-1.72-8.96-1.35-13.47-5.31 3.97-10.53 8.65-17.17 10.18l-.19.21c-6.69 1.25-13.41-.23-19.89-1.84-1.1-.5-2.2-.98-3.31-1.41 3.55 6.87 6.28 14.13 7.36 21.82.08 3.39.56 6.79.12 10.17.05 1-.41 1.64-1.39 1.93-.45-1.33 0-3.18-1.23-4.11-.42 2.01-1 3.99-1.8 5.89 1.52 2.27 3.16 4.94 6.01 5.62 2.26.69 4.58.16 6.8-.36-.32.36-.96 1.08-1.28 1.45-4.92.68-10.15-.74-13.47-4.57-4.14 1.55-7.04 4.73-9.89 7.96 1.9 4.02 6.43 6.01 10.73 5.51 3.69.02 6.55-2.37 9.46-4.27-1.81 5.4-8.47 7.15-13.58 6.33 6.19 10.1 12.59 20.07 19.27 29.87 4 5.77 7.89 11.63 12.2 17.19 3.76 4.47 7.03 9.3 10.15 14.22 1.74-7.07 3.73-14.09 6.4-20.86 1.6-3.95 2.93-8 3.71-12.19 2.96-12.44 6.76-24.64 10.19-36.95l-.38-.79.41.75c.49-1.76.95-3.54 1.14-5.36.49-2.27 1.24-4.45 2.04-6.61.47-.14 1.39-.43 1.85-.57.5 2.08 1.41 4.83 4.1 4.7-1.2-6.17-8.09-7.61-11.21-12.47-7.73-10.44-7.95-24.33-6.63-36.73l1.21.1c-1.03 14.41 1.12 31.36 13.64 40.56-.2-2.28-.24-4.58-.61-6.83.28-6 .82-12 2.09-17.88l1.35-.65c-1.49 8.86-2.46 17.99-.78 26.9 3.1 2.21 6.67 3.54 10.25 4.74 7.74-5.06 9.48-15.09 8.87-23.67-.43-12.86-7.96-23.75-13.05-35.12 1.17.12 1.93.74 2.3 1.85 2.91 6.36 6.59 12.36 9.05 18.93 3.33 8.3 4.4 17.62 2.6 26.41-1.26 6.18-5.28 11.89-11.22 14.33.26 2.01 2.64 1.98 4.22 2 3.59-.17 7.55-.73 10.2-3.41-2.03-.5-4.65-.4-5.37-2.82 1.73.36 3.45.95 5.24.85 1.99-1.5 3.97-3.4 4.14-6.06 2.16-11.76-.55-23.96-5.69-34.61.31-.07.93-.2 1.24-.27 4.97 12.48 8.78 26.57 4.55 39.8 5.52-2.41 10.96-7.32 10.6-13.86-2-4.97-2.98-10.23-3.53-15.54-2.46-7.01-5.28-13.9-8.08-20.79-1.5-4.19-3.41-8.43-3.02-12.99 1.53 6.77 4.2 13.22 7.93 19.07 1.46 1.9 1.08 5.28 3.36 6.37-.27-13.07 3.24-25.98 2.01-39.06-.21-1.12-.53-2.21-.95-3.26.9.92 1.94 1.92 1.85 3.34 1.31 14.94-2.18 29.82-1.02 44.77 1.26 4.4 3.49 8.56 3.91 13.2-.06 6.5 4.87 12.05 10.17 15.23-1.65-2.84-2.43-6.03-3.6-9.04-1.73-1.04-4.04-1.82-4.41-4.13 1.31.82 2.61 1.67 3.9 2.54l.21-.89c-.88-12.29-.22-24.66 1.03-36.9.17.17.5.52.67.69.31 5.23-.74 10.47-.36 15.72 5.53-1.16 9.04-6.34 11-11.27.38-1.45 1.62-3.16.62-4.61-3.37-5.56-7.2-10.82-10.84-16.2-1.01-1.14-.87-2.67-.98-4.07.67-.89 1.27-1.81 1.8-2.76 1.25-6.36.11-12.84-.84-19.15l-.19.26c-1.5-7.44-3.34-15.02-6.69-21.83-1.01-3.35-2.63-6.5-3.33-9.94-.46 6.09.75 12.13 1.13 18.19.05 3.54 3.07 5.94 4.71 8.82.55 1.07 1.12 2.14 2.11 2.9-.32.39-.97 1.17-1.29 1.56l-.15-.77c-1.34-1.7-2.33-3.72-4.08-5.06.89 5.09 2.91 9.92 5.12 14.57.87 1.61.77 3.47.84 5.24-4.67-6.07-7.02-13.7-8.38-21.16-.35-4.28-2.99-7.86-5.35-11.29 1.41 12 6.24 23.29 12.29 33.65 1.26 1.57.66 3.6.6 5.43-2.85-2.36-3.76-6.25-5.7-9.3-5.8-10.35-8.9-21.98-10.04-33.74-1.62-12.24-.53-24.66-2.19-36.88 0-.61.01-1.83.01-2.45.49.81 1.06 1.55 1.72 2.23 1.49 11.38 1.2 22.91 2.57 34.29 1.36 3.52 2.43 7.6 5.36 10.15-.99-5.81-1.65-12.06-.3-17.76-2.52-5.47-2.98-11.52-4.49-17.3-.8-2.81-.55-6.09-2.23-8.54-.16-4.21-3.47-7.41-6.22-10.27-6.26-6.03-16.11-7.39-23.93-3.72m-103.22 7.79c-.74 4.23-.02 8.55-.01 12.82.96-4.53.91-9.2 1.98-13.71-.5.22-1.48.66-1.97.89m-29.32 1.13c-2.59.44-6.02-.61-7.61 2.12-1.67 4.2-3 8.7-2.94 13.26l-.52.04c-2.06 13.39-3.45 26.86-4.66 40.35-.41 5.26.39 10.59-.67 15.82-.95 3.67.98 7.25.36 10.92-.37 5.56-1.83 10.96-3.65 16.21.41.35 1.22 1.06 1.63 1.41-.47-.31-1.4-.94-1.87-1.26-1.72 4.23-3.61 8.42-4.95 12.78 2.92 10.17 9.06 18.95 15.18 27.43 3.98 6.51 8.22 14.8 4.58 22.37-1.61 2.64-2.92 6.18-6.08 7.25 2.1-4.23 5.61-8.16 5.42-13.16-.41-8.4-5.71-15.35-10.57-21.8-4.15-5.63-7.6-11.81-9.89-18.43-1.44.84-3.14 1.54-3.81 3.21-1.56 3.07-3.5 5.99-4.72 9.23-3.4 7.4-6.44 15.4-5.84 23.69.29 4.49 4.19 9 8.84 9.03 1.21 1.71 3.56 1.92 5.33 2.81l.04 1.7.82.1 1.64.41c-.01-2.02.1-4.02.07-6.02-1.48-9.32-10.95-15.8-10.44-25.66.39-1.06.69-2.14.91-3.23.65-1.49 1.37-2.94 2.13-4.36-.26 5.37-1.83 11.26 1.38 16.11 2.14 3.14 3.51 6.97 6.4 9.51.56-2.06-1.05-5.55 1.34-6.56.24 3.44-.26 6.88-.1 10.32.96 5.05 2.26 10.29 1 15.42-.24 1.64-.86 3.86.86 4.94.87-2.74 2.02-5.5 2.01-8.42-.66-3.66-1.61-7.27-2.02-10.98.2-.51.62-1.53.83-2.05.68 2.22-.69 6.5 2.69 6.36-.87 5.66 2.06 10.81 5.18 15.27 3.4 4.41 7.81 8.67 13.58 9.48 4.25 1.06 8.54-.83 12.02-3.16 2.33-2.37 3.77-6.64.88-9.19.58-.88 1.17-1.74 1.77-2.6-.56-16.82-9.45-32.07-20.7-44.08-1.21-1.23-2.37-2.52-3.22-4.03 2.72 1.22 4.52 3.74 6.62 5.76 4.02 4.68 8 9.46 10.99 14.88 4.94 9.01 9.26 18.82 9.28 29.29-.53 3.18 2.43 5.15 4.79 6.56 4.35 2.51 9.62 4.54 14.67 3.22-.5-.79-1.21-1.3-2.12-1.53-7.73-2.42-12.2-9.93-15.44-16.85-5.84-12.97-4.62-27.48-5.11-41.31.19 2.53.48 5.06.66 7.6.02 14.65 2.33 30.54 12.26 41.99 3.96 4.9 10.29 7.82 16.63 6.96-.34-2.07-3.03-2.04-4.36-3.29-9.71-7.4-15.4-19.41-16.07-31.49 2.19-.23 1.62 2.36 2.18 3.66 1.66 10 7.22 19.41 15.53 25.29 3.4 2.31 8.13 3.4 11.88 1.27-8.65-8.53-15.32-19.09-19.24-30.59-1.45-4.16-2.27-8.51-3.77-12.65a3.56 3.56 0 0 1 1.52 2.37c2.76 12.48 8.62 24.53 17.37 33.89-1.38-3.65-3.05-7.22-3.77-11.07-2.68-10.09-1.7-20.63-.8-30.89.29.02.86.07 1.15.09-1.77 14.75-.5 30.48 6.73 43.74 3.77-3.08 6.07-7.56 7.66-12.07-.33-2.66-1.28-5.19-1.76-7.82-1.15-7.54-1.48-15.18-1.59-22.79-2.34-4.56-7.1-6.84-11.68-8.54-3.18-1.67-6.3-3.46-9.33-5.41-5.92-3.26-9.77-9.04-13.76-14.3-1.11 3.29-3.84 6.67-7.63 6.5-5.18-.58-9.05-4.89-11.47-9.19-3.29-6.17-1.46-13.48 1.12-19.55-5.52-8.85-10.13-19.02-9.08-29.73.06-3.44 2.07-7.19-.34-10.26-2.79-7.77 1.89-15.37 4.89-22.31l.12.4c1.75-3.55 3.55-7.26 6.44-10.03-.17.87-.35 1.74-.54 2.6-5.32 8.52-9.93 18.27-8.82 28.59.84-1.04 1.68-2.09 2.52-3.13.6-.08 1.8-.25 2.4-.33.94-7.62 2.08-15.35 4.9-22.53 1.21-3.43 2.65-6.76 4.19-10.05-4.16-.62-8.32-.09-12.45.49M87.2 135.4l-.19-.02c-1.49.8-3.05 1.82-4.37 2.72-10.05 6.49-18.19 17.61-17.74 29.98.2 6.08 5.63 10.17 6.53 16.04 1.59 8.75-3.93 17.04-2.41 25.84.29 6.66 3.73 13.07 9.17 16.93 1.83 1.4 4.17.2 6.21.22.29-8.95 2.28-18.03 7.09-25.69 1.21-2.44 3.12-4.65 3.59-7.4.71-16.53.74-33.19 3.61-49.53 1.15-5.39 2.52-10.73 3.9-16.06-5.54 1.27-10.59 4-15.39 6.97m195.1 3.78c.25 3.31.66 6.61 1.14 9.89.48 2.82-.29 5.86 1.2 8.47 5.43 11.2 9.63 23.08 11.38 35.44.01 6.02 5.13 10.1 7.09 15.5 2.81-1.09 4.95-3.25 7.21-5.17 4.91-4.01 6.75-10.4 8.61-16.21 1.86-10.49-3.02-21.27-10.23-28.73-3.49-3.87-6.88-8.16-11.83-10.24-5.23-2.33-10.45-4.88-14.57-8.95m-169.92 31.37c-1.14 10.62 2.45 21.01 8.15 29.83 2.98-2.68 4.14 1.9 3.08 4.09 1.17 1.3 2.46 2.49 3.81 3.6-5.2-12.6-6.66-26.24-9.22-39.52-.36-2.5-.84-4.99-1.62-7.39-3.91 1.41-2.42 6.44-4.2 9.39m140.65 6.12c3.93 5.07 4.38 12.05 2.49 18.01-.78 2.25-3.49 4.11-5.74 2.59-1.1-.49-1.72-2.62-3.08-2.01-.27 2.51-.76 5.23.59 7.54l-.05.18.35.04c2.78 3.66 8.23 3.48 11-.09 2.45-4.06 4.33-8.82 3.69-13.64-.2-5.34-3.63-11.55-9.25-12.62m-3.79 11.69c-1.61 2.61-.34 8.36 3.55 7.68 2.88-3.36 2.27-8.19 1.83-12.26-1.84 1.47-3.54 3.11-5.38 4.58M86.68 227.2c.87.01 2.61.01 3.49.02 3.72-8.44 3.89-17.99 4.36-27.07-5.77 7.64-7.62 17.65-7.85 27.05m210.1-26.16c-.08 2.35-.23 4.7-.17 7.05.78 1.99 2.5 3.38 3.99 4.85.53-.95 1.08-1.88 1.62-2.82-1.79-3.04-3.16-6.36-5.44-9.08m-179.14 13.99c-.6 5.48 2.72 10.4 6.55 13.96 1.98 1.09 4.31 2.72 6.64 1.83 2.76-.73 4.48-3.63 4.59-6.35-.68-1.61-1.59-3.1-2.39-4.64-1.61 1.25-3.55 3.34-5.67 1.69-5.42-3.78-4.84-11.3-5.29-17.13.03-.62.1-1.86.13-2.49-3.78 3.21-3.98 8.57-4.56 13.13m6.22-5.99c.23 2.29.45 4.64 1.41 6.78.93 2.05 1.94 5.09 4.82 4.39 1.22-3.1.18-6.09-1.41-8.8-1.6-.8-3.2-1.6-4.82-2.37m171.18 1.85c-1.46 2.32.56 4.31 1.81 6.12 3.28 4.4 5.75 9.35 9.14 13.67.05-2.82.55-5.75-.16-8.52-1.43-2.17-3.54-3.77-5.19-5.75-1.83-1.87-3.2-4.3-5.6-5.52m7.98 4.23c-.76 1.02.57 2.96 1.79 2.44.64-1.01-.57-2.96-1.79-2.44M86.53 231.03c.21 1.43.41 2.87.6 4.32.41-1.35.9-2.67 1.44-3.97-.51-.09-1.53-.26-2.04-.35m206.41 19.62c.13 6.5-.26 13.09 1.16 19.48 6.17-1.44 12.77-4.42 15.53-10.53 3.36-7.35.92-15.69-2.69-22.45-2.74 5.93-6.62 12.98-14 13.5m27.93-10.02c3.16 9.8 3.44 20.5.99 30.49 2.26-.92 2.45-3.98 3.39-6.01.68-8.21 1.09-17.79-4.38-24.48m-151.3 8.96c2.45 1.9 3.38 5.06 5.83 6.9-.18-2.38-1.39-4.43-2.59-6.41-.81-.13-2.43-.37-3.24-.49m3.9 9.42c1.14 6 1.23 12.19 2.86 18.09 1.07-5.05-.17-10.16-.97-15.14l1.59.66c.95 5.38 1.88 10.94.89 16.39-.47 2.34-.1 5.38 1.93 6.88.7-3.23 2.06-6.57 1.26-9.92-1.09-4.83-2.25-9.64-3.76-14.36l-2.12.09c-.47-.95-.68-2.13-1.68-2.69M247 286.05c.21.58.64 1.74.85 2.32 1.43.16 2.84-.17 4.2-.58-1.68-.6-3.36-1.17-5.05-1.74m-71.31 4.23c1.39-.17 2.15-2.81.47-3.06-1.2.23-2.14 2.92-.47 3.06m-80.17 8.34c-.56 2.56-1.41 5.05-2.56 7.41 1.9 5.1 5.5 10.25 11.14 11.44 3.09.43 7.27.97 9.31-1.96-7.39-1.91-13.02-7.98-16.18-14.71-.36-.91-.93-1.63-1.71-2.18m-7.22 7.74c-2.03 3.42-6.05 4.66-8.78 7.34 4.54-.82 8.3-3.64 11.21-7.1-.11-.55-.33-1.65-.44-2.21-1.16-.53-1.28 1.43-1.99 1.97z"/><path fill="#e9ddd7" d="M180.95 41.94c7.78-.62 15.5-2.32 23.34-2.03 8.67.81 16.82 4.11 24.97 6.97 2.65 1.09 5.04 2.75 7.24 4.57-3.17-.12-5.5-2.52-8.49-3.2-4.74-1.21-9.14-3.41-13.74-5-8.02-1.68-16.4-2.75-24.51-1.03-5.38 1.28-11.07.78-16.3 2.74-7.42 1.82-14.05 5.8-21.37 7.93-2.67 1-6.23 1.24-7.27 4.38-2.37 0-4.81.11-6.91 1.36-3.45 1.88-7.32 3.35-10.02 6.31-4.73 7.22-7.34 15.53-9.34 23.86-.81 2.23-.78 5.09-2.8 6.66l-.17-.22c1.56-7.56 3.77-14.99 6.53-22.19 2.05-4.31 3.71-9.36 8.04-11.93 6.76-3.32 13.24-7.36 20.58-9.32 10.25-2.82 19.43-8.98 30.22-9.86z"/><path d="M189.76 42.22c8.11-1.72 16.49-.65 24.51 1.03 4.6 1.59 9 3.79 13.74 5 2.99.68 5.32 3.08 8.49 3.2 6.26 4.73 11.06 11.31 14.75 18.19 5.45 8.13 8.65 17.46 13.01 26.16 1.96 5.86 3.94 11.75 6.99 17.17-1.77 1.16-3.81 1.87-5.95 1.76-12.79-5.01-25.48 3.23-38.27 3.64-11.34.4-21.79-5.12-33.07-5.37-11.7-.23-23.88-1.04-35.03 3.24-5.12 2.08-10.16 4.4-15.38 6.24-2.92.62-5.99.18-8.93.55-10.58-3.28-21.61 1.17-32.42-.01-.23-.58-.71-1.75-.95-2.33 5.35-7.82 10.45-15.91 13.95-24.74l.55-.49c2.02-1.57 1.99-4.43 2.8-6.66 2-8.33 4.61-16.64 9.34-23.86 2.7-2.96 6.57-4.43 10.02-6.31 2.1-1.25 4.54-1.36 6.91-1.36 1.04-3.14 4.6-3.38 7.27-4.38 7.32-2.13 13.95-6.11 21.37-7.93 5.23-1.96 10.92-1.46 16.3-2.74m31.32 16.71c2.29 3.51 4.58 7.65 8.77 9.13.18-2.19-.17-4.49-1.88-6.04-1.84-1.76-4.06-4.8-6.89-3.09m-84.79 12.12c-.17 2.23-.82 5.79 2.37 5.9.13-2.23.48-4.5 0-6.7-.54-1.7-2.57-.66-2.37.8m-8.05-.86c-.94 2.75-1.15 5.65-1.01 8.53 1.16-.02 2.33-.03 3.5-.04 1.12-2.58 1.99-5.31 1.84-8.15-1.44-.11-2.89-.23-4.33-.34zM87.2 135.4c4.8-2.97 9.85-5.7 15.39-6.97-1.38 5.33-2.75 10.67-3.9 16.06-2.87 16.34-2.9 33-3.61 49.53-.47 2.75-2.38 4.96-3.59 7.4-4.81 7.66-6.8 16.74-7.09 25.69-2.04-.02-4.38 1.18-6.21-.22-5.44-3.86-8.88-10.27-9.17-16.93-1.52-8.8 4-17.09 2.41-25.84-.9-5.87-6.33-9.96-6.53-16.04-.45-12.37 7.69-23.49 17.74-29.98-.07 1.34-.57 2.58-1.07 3.8 3.22-.05 6.41-2.22 9.56-.96-1.13 7-3.55 14.04-2.42 21.2 1.02 6.14-.93 12.28-.36 18.45.58 5.65.01 11.85 3.66 16.62 2.31-8.21 1.56-16.83 1.81-25.25.48-8.14 1.6-16.23 2.61-24.32.69-5.66 2.77-11.03 3.48-16.68-4.46.88-8.01 5.23-12.71 4.44zm195.1 3.78c4.12 4.07 9.34 6.62 14.57 8.95 4.95 2.08 8.34 6.37 11.83 10.24 7.21 7.46 12.09 18.24 10.23 28.73-1.86 5.81-3.7 12.2-8.61 16.21-2.26 1.92-4.4 4.08-7.21 5.17-1.96-5.4-7.08-9.48-7.09-15.5-1.75-12.36-5.95-24.24-11.38-35.44-1.49-2.61-.72-5.65-1.2-8.47-.48-3.28-.89-6.58-1.14-9.89z" fill="#f5eddd"/><path d="M221.08 58.93c2.83-1.71 5.05 1.33 6.89 3.09 1.71 1.55 2.06 3.85 1.88 6.04-4.19-1.48-6.48-5.62-8.77-9.13zm-84.79 12.12c-.2-1.46 1.83-2.5 2.37-.8.48 2.2.13 4.47 0 6.7-3.19-.11-2.54-3.67-2.37-5.9zm-8.05-.86c1.44.11 2.89.23 4.33.34.15 2.84-.72 5.57-1.84 8.15-1.17.01-2.34.02-3.5.04-.14-2.88.07-5.78 1.01-8.53zM268.3 92.37c.84.15 1.41.6 1.71 1.36 2.48 6.18 4.46 12.6 7.7 18.45.98 1.7 1.43 3.61 1.81 5.52-5.25-7.71-7.8-16.75-11.22-25.33zm-3 22.36c2.14.11 4.18-.6 5.95-1.76 4.43 9.26 10.85 17.33 16.79 25.61-7.29-4.7-9.71-13.85-15.99-19.57-2.03-1.75-4.42-3-6.75-4.28zm-164.05 5.96c.24.58.72 1.75.95 2.33 10.81 1.18 21.84-3.27 32.42.01-4.87.94-9.84.41-14.75.56-3.31.26-6.52 1.52-9.88 1.16-4.18-.32-8.36.21-12.45 1.06 1.3-1.66 2.55-3.37 3.71-5.12zm26.27 18.33c-.08-2.79.9-5.45 1.53-8.13-.79 5.1-.04 10.35 1 15.35.23.75.44 1.51.63 2.28-.66.07-1.97.23-2.62.3-.43-.34-.84-.68-1.26-1.02 1.2-2.79.64-5.85.72-8.78zm74.56 21.28c4.53-2.59 9.7-3.66 14.83-4.3-.56 1.75-2.42 2.43-3.75 3.47-3.88-1.57-6.88 2.53-8.05 5.72l-.96-.35c.45-1.42.9-2.85 1.36-4.27-1.81.42-3.61.84-5.43 1.21l2-1.48zm111.26 134.83c3.69 1.01 5.95 4.2 8.33 6.95 1.32 1.65 3 3.31 2.89 5.6-3.39-4.48-7.09-8.73-11.22-12.55z" fill="#fffffe"/><path fill="#685251" d="M168.93 118.46c1.78-.36 3.57-.7 5.35-1.02-.01 1.49.04 3 .94 4.27 4.75 9.12 10.13 18.02 17.15 25.58-11.19-6.22-16.53-18.65-23.44-28.83z"/><path fill="#f6d9cc" d="M177.21 117.25c1.21.17 2.94-.6 3.73.7 2.3 3.07 5.06 5.73 8.08 8.08 4.66 4.7 9.89 8.93 15.87 11.85-3.76 2.15-8.54 2.06-11.89 5.08-.37.23-1.11.69-1.49.91-4.28-4.68-7.58-10.13-10.95-15.47-2.18-3.31-2.76-7.32-3.35-11.15z"/><path d="M184.53 116.99c2.76.14 4.33 2.61 6.23 4.26 7.51 7.33 15.61 14.34 25.31 18.62-8.3-1.77-15.59-6.53-22.15-11.72-3.94-2.97-6.67-7.13-9.39-11.16zM78.3 255.22c.34.7 1.03 2.12 1.37 2.83-.22 1.09-.52 2.17-.91 3.23-3.19 8.61-3.09 19.03 2.54 26.66-4.65-.03-8.55-4.54-8.84-9.03-.6-8.29 2.44-16.29 5.84-23.69z" fill="#6d605a"/><path fill="#584846" d="M189.35 117.1c11.51-.25 22.06 5.11 33.4 6.13 1.36 1.8 2.97 3.39 4.76 4.76-3.39 1.19-7 .94-10.43.05-5.82-1.46-11.83-2.02-17.82-1.78-3.29-3.06-6.87-5.84-9.91-9.16z"/><path d="M245.61 118.55c7.82-3.67 17.67-2.31 23.93 3.72 2.75 2.86 6.06 6.06 6.22 10.27l-.91-.84c-.66-.68-1.23-1.42-1.72-2.23 0 .62-.01 1.84-.01 2.45-.61.54-1.22 1.08-1.83 1.6-7.9-2.97-16.57-6.09-25.07-4.13-1.69-1.91-3.24-3.98-5.33-5.45.36 1.35.8 2.68 1.28 4-2.95.46-5.95.13-8.91.42-2.99-1.04-6.07-2.9-8.39-5.14 7.2.2 14.24-1.66 20.74-4.67zm-132.54 8.92c4.13-.58 8.29-1.11 12.45-.49-1.54 3.29-2.98 6.62-4.19 10.05l-1-2.6c.19-.86.37-1.73.54-2.6-2.89 2.77-4.69 6.48-6.44 10.03l-.12-.4c-.09-.31-.28-.91-.37-1.21-3.72 1.23-7.46 2.56-11.42 2.6-.06-4.56 1.27-9.06 2.94-13.26 1.59-2.73 5.02-1.68 7.61-2.12zm117.88 104.5c3.14-4.38 6.35-8.73 8.9-13.49.15.63.43 1.88.58 2.5-1.01 7.54-5.15 14.68-3.94 22.42.85 10.2 1.64 20.65 5.8 30.14.37 2.25.41 4.55.61 6.83-12.52-9.2-14.67-26.15-13.64-40.56l-1.21-.1-.74-.03c1.22-1.02 3.04-1.67 2.87-3.7-5.46.96-5.92 7.24-7.79 11.39-.22-2.1-.34-4.21-.41-6.31 2.84-3.18 6.09-5.96 8.97-9.09zm-71.04 13.74c4.58 1.7 9.34 3.98 11.68 8.54.11 7.61.44 15.25 1.59 22.79-.72.68-1.45 1.36-2.17 2.04-1.26-5.07-1.74-10.39-3.98-15.18-1.45-3.63-3.93-6.89-4.51-10.84-.31-2.64-2.1-4.76-2.61-7.35z" fill="#534846"/><path fill="#efcdbb" d="M148.52 124.73c5.31-1.44 10.34-3.7 15.6-5.3 0 .81.01 2.43.01 3.24-3.42 2.62-7.48 4.14-11.72 4.81-1.07 5.44-1.17 11-.46 16.49.55 1.87-.92 3.18-2.05 4.42-.57.06-1.7.17-2.26.23-1.79-7.81-1.55-16.23.88-23.89z"/><path d="M166.52 119.79c.76.47 1.35 1.1 1.77 1.89 5.02 7.37 9.08 15.45 15.38 21.87-.47.31-1.4.91-1.86 1.21-5.67-5.23-11.2-10.97-14.58-17.99-.41-2.31-.57-4.64-.71-6.98zm32.58 36.61c5.65-5.07 13.58-6.83 20.97-7.22 2.55.19 6.91-.31 7.12 3.25-8.84-.49-18.36-.01-25.87 5.24-.55-.32-1.66-.95-2.22-1.27z" fill="#f6c6b2"/><path d="M152.41 127.48c4.24-.67 8.3-2.19 11.72-4.81 1.63 8.55 2.9 18.29 10.09 24.16 2.11 2.1 5.22 1.58 7.91 1.8-2.8-.35-5.89-.73-7.67-3.23-4.6-5.06-6.43-11.99-7.23-18.63 3.38 7.02 8.91 12.76 14.58 17.99.46-.3 1.39-.9 1.86-1.21 3.85 3.74 8.53 7.78 14.28 7.33 2.39-.16 5.26.18 6.88-2.01-.25-.12-.74-.37-.99-.5-1.3-.67-2.59-1.34-3.89-2.01 4.91-1.33 9.99-1.74 15.04-2.2 6.84-.49 14.04 2.84 20.6-.24l.76.06c2.98.3 5.89 1.07 8.79 1.82.16 12.67.5 25.34-.39 37.99-.37 5.29-.38 10.63-1.48 15.85-1.5-5.45.01-11.25-.96-16.83-4.81-3.87-11.33-4.74-17.31-4.44-3.6-.04-6.19 2.75-8.54 5.1-3.54 3.62-6.79 8.22-6.04 13.57-.64 4.31 2.87 7.28 5.03 10.53 2.74 3.85 7.48 5.24 11.83 6.37 2.99 1.05 6.13-.28 8.73-1.75 1.66-1.46 2.12-3.79 3.15-5.68.39-.04 1.16-.13 1.54-.18-1.89 3.97-3.21 8.19-5.26 12.09-5.57 9.41-13.01 17.61-21.51 24.46-5.01 3.37-9.77 7.85-15.99 8.71-7.75 1.74-15.52-.95-23.01-2.75-6.27-2.48-12.49-5.22-18.48-8.31-6.03-4.73-11.89-9.93-16.33-16.24 2.14.45 3.59 2.17 5.46 3.15 4.71.74 9.82-.18 13.7-3.05 9.27-6.72 8.29-23.55-2.35-28.42-5.11-1.78-10.66-3.33-16.1-2.38-5.6 1.22-9.45 6.45-9.54 12.09-5.01-13.9-9.01-28.17-11.88-42.67.53-.15 1.59-.44 2.12-.59 1.35-2.39 1.81-5.11 2.15-7.79 1.23-.19 2.48-.4 3.18-1.54 2.03-.52 4.11-.68 6.19-.63 1.64 2.75 4.35 5.41 7.82 5.08-1.45-1.91-4.37-2.2-5.19-4.71 3.15.42 6.32.43 9.49.4 2.02.18 3.83 1.45 5.93 1.16 1.72.04 3.44.09 5.16.16.41-.3 1.24-.9 1.65-1.19 1.68-.09 3.35-.19 5.03-.31-1.54-2.83-4.81-3.67-7.73-4.28-1.74-.41-3.54-.35-5.31-.38 1.13-1.24 2.6-2.55 2.05-4.42-.71-5.49-.61-11.05.46-16.49m46.69 28.92c.56.32 1.67.95 2.22 1.27-.42.58-1.27 1.76-1.7 2.34.61.08 1.84.22 2.46.29l-2 1.48c1.82-.37 3.62-.79 5.43-1.21-.46 1.42-.91 2.85-1.36 4.27l.96.35c-1.35 5.12-1.32 11.18 2.45 15.31 2.36 3.12 7.64 3.27 9.88-.06 4.58-6.36 3.84-17.81-4.28-20.97 1.33-1.04 3.19-1.72 3.75-3.47 5.31-.84 10.88-1.05 16.1-1.21-.67-2.42-3.84-2.07-5.82-2.36-.21-3.56-4.57-3.06-7.12-3.25-7.39.39-15.32 2.15-20.97 7.22m-66.55 7.99c-.67 1.11-.52 2 .47 2.67 9.26-.52 18.69-1.52 27.95-.13 1.66-2.47-3.29-3.22-5.04-3.64.52-.41 1.56-1.24 2.08-1.66-5.57-4.57-13.38-2.91-19.93-2.23-2.28.76-6.64 1.85-5.53 4.99m18.49 3.5c-3.48 3.63-3.23 9.48-1.87 13.98 1.28 4.07 3.61 8.41 7.9 9.87 3.11 1.23 7.15-.13 8.42-3.34 1.94-4.78.13-10.24-2.77-14.24-1.62-2.24-2.91-5.13-5.74-6.05-1.89-.97-3.96-.41-5.94-.22m33.21 16.17c-.84 3.95-4.36 9.05-.62 12.43 1.73.99 5.44 5.47 6.32 1.54-.53-3.92-1.19-7.85-2.4-11.62-.51-1.44-1.96-1.98-3.3-2.35m19.99 31.45c-5.39-1.07-11-2.55-16.4-.75-3.93.63-6.46 4.14-10.24 5.06-.55-.1-1.64-.29-2.19-.39l.28 1.95c.83.04 1.67.06 2.5.06 1.58 3.86 5.1 6.62 8.85 8.21 2.68.23 5.4.15 8.07-.21 4.61-2.54 9.25-6.54 9.61-12.19l-1.15-.6c.42-.01 1.26-.04 1.69-.05 1.1-1.34 3.19-1.29 2.64-3.73-1.46.52-2.52 1.65-3.66 2.64zm12.14 52.87c2.5-2.02 2.59-5.45 3.37-8.32 1.67 3.51.59 7.76 2 11.45 1.36 8.2 10.02 14.76 18.3 12.78l-.11.49c-.8 2.16-1.55 4.34-2.04 6.61-.33-1.65-.78-3.27-1.21-4.88-2.77-.81-5.51-1.69-8.27-2.49.95 2.12 2.51 3.84 4.16 5.45 1.84 1.79 2.55 4.34 3.77 6.53l.38.79c-3.43 12.31-7.23 24.51-10.19 36.95-.57-.03-1.71-.1-2.27-.13-2.79 6.96-4.27 14.5-8.05 21.02-2.4-2.84-4.61-5.92-7.67-8.11-5.13-3.49-8.94-8.48-12.85-13.21-.4.52-1.21 1.55-1.62 2.07-6.68-9.8-13.08-19.77-19.27-29.87 5.11.82 11.77-.93 13.58-6.33-2.91 1.9-5.77 4.29-9.46 4.27-4.3.5-8.83-1.49-10.73-5.51 2.85-3.23 5.75-6.41 9.89-7.96 3.32 3.83 8.55 5.25 13.47 4.57.32-.37.96-1.09 1.28-1.45-2.22.52-4.54 1.05-6.8.36-2.85-.68-4.49-3.35-6.01-5.62.8-1.9 1.38-3.88 1.8-5.89 1.23.93.78 2.78 1.23 4.11.98-.29 1.44-.93 1.39-1.93.44-3.38-.04-6.78-.12-10.17.15-.34.47-1.03.63-1.38 1.26.94 2.42 2.17 4 2.57 9.46 2.3 20.51.54 27.42-6.77z" fill="#ffe4d3"/><path d="M142.39 126.34c.49-.23 1.47-.67 1.97-.89-1.07 4.51-1.02 9.18-1.98 13.71-.01-4.27-.73-8.59.01-12.82zm132.46 5.36.91.84c1.68 2.45 1.43 5.73 2.23 8.54 1.51 5.78 1.97 11.83 4.49 17.3-1.35 5.7-.69 11.95.3 17.76-2.93-2.55-4-6.63-5.36-10.15-1.37-11.38-1.08-22.91-2.57-34.29z" fill="#6b5855"/><path fill="#625751" d="M199.26 126.26c5.99-.24 12 .32 17.82 1.78 3.43.89 7.04 1.14 10.43-.05 5.19 2.75 9.09 7.24 13.59 10.9 1.62 1.58 3.94 2.81 4.3 5.25-2.03-.25-3.89-1.08-5.83-1.64-7.12-1.77-14.64-1.81-21.53-4.52-6.93-2.68-13.2-6.86-18.78-11.72z"/><path fill="#fdd8c3" d="M135.39 127.28c1.72-.44 3.49-.64 5.27-.72-.35 4.17-1.01 8.37-.61 12.57-.38-2.13-.87-4.24-1.39-6.33-1.37 3.83-.58 7.86.02 11.76-1.4 1-2.78 2-4.15 3.03 2.48.18 4.98.29 7.48.36l.14.24c-2.42.02-4.83.03-7.24.16l-.83.04c-.52-7.06.65-14.1 1.31-21.11z"/><path fill="#fcd2c3" d="M119.82 153.1c1.78-8.96 3.84-18.03 8.15-26.15 1.46.79 1.82 2.11 1.08 3.94-.63 2.68-1.61 5.34-1.53 8.13-.08 2.93.48 5.99-.72 8.78.42.34.83.68 1.26 1.02-2.39.28-4.73.94-6.86 2.09.54.51 1.61 1.52 2.14 2.03l3.52.15c-.7 1.14-1.95 1.35-3.18 1.54-.34 2.68-.8 5.4-2.15 7.79-.53.15-1.59.44-2.12.59l-.58.16.39-.9c.57-.06 1.7-.19 2.26-.25-1.86-2.57-2.02-5.89-1.66-8.92z"/><path fill="#655451" d="M130.73 127.48c.76-.05 2.3-.14 3.06-.18-1 4.49-1.06 9.11-1.68 13.66-.64 3.66.67 7.29.36 10.98-.39-.36-1.17-1.09-1.56-1.45-.06-.49-.17-1.48-.23-1.97-.19-.77-.4-1.53-.63-2.28 1.49-6.24-1.08-12.55.68-18.76z"/><path d="M233.26 128.36c2.96-.29 5.96.04 8.91-.42l.61-.09c3.51 4.63 7.1 9.22 10.25 14.11-7.11-3.62-14.27-7.69-19.77-13.6zM95.52 298.62c.78.55 1.35 1.27 1.71 2.18 3.16 6.73 8.79 12.8 16.18 14.71-2.04 2.93-6.22 2.39-9.31 1.96-5.64-1.19-9.24-6.34-11.14-11.44 1.15-2.36 2-4.85 2.56-7.41z" fill="#655751"/><path fill="#62584f" d="M246.22 129.39c8.5-1.96 17.17 1.16 25.07 4.13.61-.52 1.22-1.06 1.83-1.6 1.66 12.22.57 24.64 2.19 36.88 1.14 11.76 4.24 23.39 10.04 33.74 1.94 3.05 2.85 6.94 5.7 9.3.06-1.83.66-3.86-.6-5.43-6.05-10.36-10.88-21.65-12.29-33.65 2.36 3.43 5 7.01 5.35 11.29 1.36 7.46 3.71 15.09 8.38 21.16-.07-1.77.03-3.63-.84-5.24-2.21-4.65-4.23-9.48-5.12-14.57 1.75 1.34 2.74 3.36 4.08 5.06l.15.77-.21.62c.79.06 2.37.18 3.16.23l.41-.55.19-.26c.95 6.31 2.09 12.79.84 19.15-.53.95-1.13 1.87-1.8 2.76.11 1.4-.03 2.93.98 4.07 3.64 5.38 7.47 10.64 10.84 16.2 1 1.45-.24 3.16-.62 4.61-1.96 4.93-5.47 10.11-11 11.27-.38-5.25.67-10.49.36-15.72-.17-.17-.5-.52-.67-.69-1.25 12.24-1.91 24.61-1.03 36.9l-.21.89c-1.29-.87-2.59-1.72-3.9-2.54.37 2.31 2.68 3.09 4.41 4.13 1.17 3.01 1.95 6.2 3.6 9.04-5.3-3.18-10.23-8.73-10.17-15.23-.42-4.64-2.65-8.8-3.91-13.2-1.16-14.95 2.33-29.83 1.02-44.77.09-1.42-.95-2.42-1.85-3.34.42 1.05.74 2.14.95 3.26 1.23 13.08-2.28 25.99-2.01 39.06-2.28-1.09-1.9-4.47-3.36-6.37-3.73-5.85-6.4-12.3-7.93-19.07-.39 4.56 1.52 8.8 3.02 12.99 2.8 6.89 5.62 13.78 8.08 20.79.55 5.31 1.53 10.57 3.53 15.54.36 6.54-5.08 11.45-10.6 13.86 4.23-13.23.42-27.32-4.55-39.8-.31.07-.93.2-1.24.27 5.14 10.65 7.85 22.85 5.69 34.61-.17 2.66-2.15 4.56-4.14 6.06-1.79.1-3.51-.49-5.24-.85.72 2.42 3.34 2.32 5.37 2.82-2.65 2.68-6.61 3.24-10.2 3.41-1.58-.02-3.96.01-4.22-2 5.94-2.44 9.96-8.15 11.22-14.33 1.8-8.79.73-18.11-2.6-26.41-2.46-6.57-6.14-12.57-9.05-18.93-.37-1.11-1.13-1.73-2.3-1.85 5.09 11.37 12.62 22.26 13.05 35.12.61 8.58-1.13 18.61-8.87 23.67-3.58-1.2-7.15-2.53-10.25-4.74-1.68-8.91-.71-18.04.78-26.9l-1.35.65c-1.27 5.88-1.81 11.88-2.09 17.88-4.16-9.49-4.95-19.94-5.8-30.14-1.21-7.74 2.93-14.88 3.94-22.42-.15-.62-.43-1.87-.58-2.5 2.09-5.04 3.9-10.19 5.45-15.43 2.22 1.9 4.54 4.36 7.71 4.2 4.76-.19 8.06-4.49 9.48-8.66 2.55-7.58 1.15-16.73-4.73-22.43 3.21-7.4 3.36-15.55 2.32-23.42 2.46 3.63 4.31 7.82 4.56 12.25-.11 3.35-.54 6.71-.13 10.07.18-3.01.22-6.02.43-9.02 3.49 3.09.9 9.21 3.66 12.98 1.01-10.45-2.19-20.96-7.73-29.77l3.29-.2c-2.63-3.25-7.44-3.91-9.52-7.65-2.64-4.12-5.58-8.04-8.42-12.01z"/><path fill="#ebdecc" d="M87.2 135.4c4.7.79 8.25-3.56 12.71-4.44-.71 5.65-2.79 11.02-3.48 16.68-1.01 8.09-2.13 16.18-2.61 24.32-.25 8.42.5 17.04-1.81 25.25-3.65-4.77-3.08-10.97-3.66-16.62-.57-6.17 1.38-12.31.36-18.45-1.13-7.16 1.29-14.2 2.42-21.2-3.15-1.26-6.34.91-9.56.96.5-1.22 1-2.46 1.07-3.8 1.32-.9 2.88-1.92 4.37-2.72l.19.02z"/><path d="M138.68 144.56c-.6-3.9-1.39-7.93-.02-11.76.52 2.09 1.01 4.2 1.39 6.33.41 2.99.81 6 1.96 8.82-2.5-.07-5-.18-7.48-.36 1.37-1.03 2.75-2.03 4.15-3.03zm56.46 1.88c6.66-2.33 13.63-3.68 20.64-4.23 6.58.86 13.23.86 19.81 1.71-6.56 3.08-13.76-.25-20.6.24-5.05.46-10.13.87-15.04 2.2 1.3.67 2.59 1.34 3.89 2.01-2.54 2.02-6.79.43-8.7-1.93zm124.08 21.2c.39.04 1.15.14 1.53.18 3.61 6.43 3.19 13.96 3.01 21.06-.36-.26-1.1-.78-1.47-1.04 1.13-6.86.08-14-3.07-20.2zM66.16 192.06c1.38-3.56-.37-7.33.69-10.92 3.41 6.82-.62 13.93-1.37 20.84-.52 6.2-.5 12.79 2.42 18.47-.42-.08-1.26-.23-1.68-.3-1.07-2.22-1.88-4.61-1.94-7.09-.14-7.05-.43-14.22 1.88-21zm20.52 35.14c.23-9.4 2.08-19.41 7.85-27.05-.47 9.08-.64 18.63-4.36 27.07-.88-.01-2.62-.01-3.49-.02zm237.64 16.52c.4-.05 1.19-.14 1.58-.18 2.1 7.21 3.05 14.92 1.73 22.37-.31-.31-.92-.92-1.23-1.22.54-7.04.54-14.31-2.08-20.97z" fill="#fef1ea"/><path d="m120.33 134.43 1 2.6c-2.82 7.18-3.96 14.91-4.9 22.53-.6.08-1.8.25-2.4.33-.84 1.04-1.68 2.09-2.52 3.13-1.11-10.32 3.5-20.07 8.82-28.59zm128.91 53.93c1.84-1.47 3.54-3.11 5.38-4.58.44 4.07 1.05 8.9-1.83 12.26-3.89.68-5.16-5.07-3.55-7.68zm45.8 22.53c2.4 1.22 3.77 3.65 5.6 5.52 1.65 1.98 3.76 3.58 5.19 5.75.71 2.77.21 5.7.16 8.52-3.39-4.32-5.86-9.27-9.14-13.67-1.25-1.81-3.27-3.8-1.81-6.12zm14.1 26.08c-2.76-3.84-.88-8.63-.96-12.96 3.96 3.81 7.82 8.02 9.53 13.36-.15.61-.44 1.81-.59 2.42-1.64-3.2-2.28-7.2-5.49-9.29 1.86 4.73 4.21 9.36 4.85 14.48.87 7.37.89 15.23-2.49 22.02-1.94 4.7-5.81 8.1-9.18 11.74 1.62-.68 3.24-1.39 4.86-2.1-1.05 3.28-4.6 5.08-7.92 4.76.6-.67 1.79-2 2.39-2.66-1.78.78-3.58 1.52-5.38 2.25-1.98-2.71-3.34-5.8-4.39-8.97 5.68-1.42 11.75-3.45 15.31-8.42 5.78-7.77 4.02-18.71-.54-26.63z" fill="#685853"/><path d="M204.89 137.88c.41.4 2.05.95 2.84 1.4 8.88 4.63 19.29 1.78 28.62 4.7l-.76-.06c-6.58-.85-13.23-.85-19.81-1.71-7.01.55-13.98 1.9-20.64 4.23-1.17-.63-2.34-1.23-3.54-1.81.35-.41 1.05-1.25 1.4-1.67 3.35-3.02 8.13-2.93 11.89-5.08zm-69.98 10.47c2.41-.13 4.82-.14 7.24-.16 1.22 1.54 2.2 3.25 3.02 5.04-3.17.03-6.34.02-9.49-.4l-.49-.05c-.6-1.49-.69-2.97-.28-4.43zm13.22.71c2.35-.25 4.72-.52 7.08-.29 2.92.61 6.19 1.45 7.73 4.28-1.68.12-3.35.22-5.03.31-.41.29-1.24.89-1.65 1.19-1.72-.07-3.44-.12-5.16-.16.14-.57.41-1.7.54-2.27-1.38-.79-3.6-1.05-3.51-3.06z" fill="#524540"/><path fill="#62574f" d="M102.52 142.85c3.96-.04 7.7-1.37 11.42-2.6.09.3.28.9.37 1.21-3 6.94-7.68 14.54-4.89 22.31 2.41 3.07.4 6.82.34 10.26-1.05 10.71 3.56 20.88 9.08 29.73-2.58 6.07-4.41 13.38-1.12 19.55 2.42 4.3 6.29 8.61 11.47 9.19 3.79.17 6.52-3.21 7.63-6.5 3.99 5.26 7.84 11.04 13.76 14.3 3.03 1.95 6.15 3.74 9.33 5.41.51 2.59 2.3 4.71 2.61 7.35.58 3.95 3.06 7.21 4.51 10.84 2.24 4.79 2.72 10.11 3.98 15.18.72-.68 1.45-1.36 2.17-2.04.48 2.63 1.43 5.16 1.76 7.82-1.59 4.51-3.89 8.99-7.66 12.07-7.23-13.26-8.5-28.99-6.73-43.74-.29-.02-.86-.07-1.15-.09-.9 10.26-1.88 20.8.8 30.89.72 3.85 2.39 7.42 3.77 11.07-8.75-9.36-14.61-21.41-17.37-33.89-.18-1-.69-1.79-1.52-2.37 1.5 4.14 2.32 8.49 3.77 12.65 3.92 11.5 10.59 22.06 19.24 30.59-3.75 2.13-8.48 1.04-11.88-1.27-8.31-5.88-13.87-15.29-15.53-25.29-.56-1.3.01-3.89-2.18-3.66.67 12.08 6.36 24.09 16.07 31.49 1.33 1.25 4.02 1.22 4.36 3.29-6.34.86-12.67-2.06-16.63-6.96-9.93-11.45-12.24-27.34-12.26-41.99-.18-2.54-.47-5.07-.66-7.6.49 13.83-.73 28.34 5.11 41.31 3.24 6.92 7.71 14.43 15.44 16.85.91.23 1.62.74 2.12 1.53-5.05 1.32-10.32-.71-14.67-3.22-2.36-1.41-5.32-3.38-4.79-6.56-.02-10.47-4.34-20.28-9.28-29.29-2.99-5.42-6.97-10.2-10.99-14.88-2.1-2.02-3.9-4.54-6.62-5.76.85 1.51 2.01 2.8 3.22 4.03 11.25 12.01 20.14 27.26 20.7 44.08-.6.86-1.19 1.72-1.77 2.6 2.89 2.55 1.45 6.82-.88 9.19-3.48 2.33-7.77 4.22-12.02 3.16-5.77-.81-10.18-5.07-13.58-9.48-3.12-4.46-6.05-9.61-5.18-15.27.21-4.59-.47-9.17-2.09-13.46-.65-2.98-.61-6.03-.33-9.04-.42.72-1.24 2.15-1.66 2.87-1.79-4-3.14-8.2-5.12-12.12.81 6.38 5.66 11.55 5.8 18.08-.43 3.1-.65 6.25-.12 9.36.41 3.71 1.36 7.32 2.02 10.98.01 2.92-1.14 5.68-2.01 8.42-1.72-1.08-1.1-3.3-.86-4.94 1.26-5.13-.04-10.37-1-15.42-.16-3.44.34-6.88.1-10.32-2.39 1.01-.78 4.5-1.34 6.56-2.89-2.54-4.26-6.37-6.4-9.51-3.21-4.85-1.64-10.74-1.38-16.11-.76 1.42-1.48 2.87-2.13 4.36-.34-.71-1.03-2.13-1.37-2.83 1.22-3.24 3.16-6.16 4.72-9.23.67-1.67 2.37-2.37 3.81-3.21 2.29 6.62 5.74 12.8 9.89 18.43 4.86 6.45 10.16 13.4 10.57 21.8.19 5-3.32 8.93-5.42 13.16 3.16-1.07 4.47-4.61 6.08-7.25 3.64-7.57-.6-15.86-4.58-22.37-6.12-8.48-12.26-17.26-15.18-27.43 1.34-4.36 3.23-8.55 4.95-12.78.47.32 1.4.95 1.87 1.26-.41-.35-1.22-1.06-1.63-1.41 1.82-5.25 3.28-10.65 3.65-16.21.62-3.67-1.31-7.25-.36-10.92 1.06-5.23.26-10.56.67-15.82 1.21-13.49 2.6-26.96 4.66-40.35l.52-.04m.86 5.37c-1.16.72-.52 3.8 1 2.39 1.18-.75.57-3.7-1-2.39m-.07 90.84c.04 2.42.06 4.84.24 7.26 1.02-2.56.61-5.37.68-8.05-.23.2-.69.59-.92.79m4.66.68c-.26 2.02.56 3.85 1.82 5.37.04-1.9 1.08-5.24-1.82-5.37z"/><path d="M245.14 145.8c1.18.54 2.36 1.07 3.54 1.61.24 3.61.43 7.24.22 10.86-.09 1.38-.15 2.76-.2 4.14-.39 7.56.12 15.12.09 22.67-.93-.62-1.86-1.24-2.79-1.85-.17 3.58-.17 7.17-.41 10.75-.21-3.4-.47-6.8-.84-10.19.89-12.65.55-25.32.39-37.99zm66.49 84.7c3.21 2.09 3.85 6.09 5.49 9.29 2.76 8.31 3.03 17.64-.4 25.8-1.81 3.97-3.3 8.44-7.05 11.05-1.62.71-3.24 1.42-4.86 2.1 3.37-3.64 7.24-7.04 9.18-11.74 3.38-6.79 3.36-14.65 2.49-22.02-.64-5.12-2.99-9.75-4.85-14.48zM106.3 361.98c-.11-.99.26-1.7 1.13-2.13.31 2.59.61 5.2.96 7.8.28 2.19.51 4.4.66 6.62l-.83.24c-.64-.45-1.92-1.35-2.56-1.79 1.03-3.51.41-7.16.64-10.74z" fill="#070000"/><path fill="#f7d1c2" d="M248.68 147.41c.51-.54 1.53-1.62 2.04-2.17 1.75 1.01 3.24 2.38 3.87 4.35.4.25 1.19.76 1.59 1.01-1 1.85-2.15 3.68-4.24 4.4-.54-.95-1.07-1.91-1.6-2.86-.5 2.04-1.03 4.07-1.44 6.13.21-3.62.02-7.25-.22-10.86z"/><path fill="#95847f" d="M103.38 148.22c1.57-1.31 2.18 1.64 1 2.39-1.52 1.41-2.16-1.67-1-2.39z"/><path fill="#563f3e" d="M121.2 150.91c2.13-1.15 4.47-1.81 6.86-2.09.65-.07 1.96-.23 2.62-.3.06.49.17 1.48.23 1.97.39.36 1.17 1.09 1.56 1.45-1.32-.15-2.65-.29-3.97-.41l-1.64 1.56-3.52-.15c-.53-.51-1.6-1.52-2.14-2.03z"/><path d="M251.94 155c2.09-.72 3.24-2.55 4.24-4.4 2.19 4.51 2.59 9.6 2.02 14.52l-.32.27c-2.38 1.47-2.84 4.38-3.8 6.78-1.28.51-2.55 1.03-3.83 1.54-.28-3.75 1.36-8.26-1.55-11.3.05-1.38.11-2.76.2-4.14.41-2.06.94-4.09 1.44-6.13.53.95 1.06 1.91 1.6 2.86zm5.91 44.39c1.36-3.42 2.67-6.87 4.43-10.1.64 4.82-1.24 9.58-3.69 13.64-.24-1.15-1.28-2.34-.74-3.54zm-140.21 15.64c.58-4.56.78-9.92 4.56-13.13-.03.63-.1 1.87-.13 2.49-3.13 4.4-4.59 10.61-2.18 15.65.93 2.54 2.62 4.67 4.33 6.72 0 .55-.02 1.67-.03 2.23-3.83-3.56-7.15-8.48-6.55-13.96z" fill="#ffe4d1"/><path d="M201.32 157.67c7.51-5.25 17.03-5.73 25.87-5.24 1.98.29 5.15-.06 5.82 2.36-5.22.16-10.79.37-16.1 1.21-5.13.64-10.3 1.71-14.83 4.3-.62-.07-1.85-.21-2.46-.29.43-.58 1.28-1.76 1.7-2.34zM86.99 256.59c1.98 3.92 3.33 8.12 5.12 12.12.42-.72 1.24-2.15 1.66-2.87-.28 3.01-.32 6.06.33 9.04.04.55.11 1.65.15 2.21l-1.21.02c-.07-.61-.19-1.83-.25-2.44-.14-6.53-4.99-11.7-5.8-18.08z" fill="#170101"/><path fill="#f4c5b1" d="M132.55 164.39c-1.11-3.14 3.25-4.23 5.53-4.99 6.55-.68 14.36-2.34 19.93 2.23-.52.42-1.56 1.25-2.08 1.66-1.02-.22-2.05-.43-3.08-.61.59-.36 1.75-1.09 2.33-1.45-4.87.04-10.23-1.43-14.69 1.2-2.7.39-5.41.9-7.94 1.96z"/><path d="M205.11 165.19c1.17-3.19 4.17-7.29 8.05-5.72 8.12 3.16 8.86 14.61 4.28 20.97-2.24 3.33-7.52 3.18-9.88.06-3.77-4.13-3.8-10.19-2.45-15.31zm-54.07 2.7c1.98-.19 4.05-.75 5.94.22 2.83.92 4.12 3.81 5.74 6.05 2.9 4 4.71 9.46 2.77 14.24-1.27 3.21-5.31 4.57-8.42 3.34-4.29-1.46-6.62-5.8-7.9-9.87-1.36-4.5-1.61-10.35 1.87-13.98zm24.37 51.54c.55.1 1.64.29 2.19.39 2.67 1.3 5.76.95 8.64 1.36-1.95-.04-3.91.07-5.86.18l-2.19.08c-.83 0-1.67-.02-2.5-.06l-.28-1.95z" fill="#200103"/><path fill="#faf0e3" d="M284.63 177.95c-.38-6.06-1.59-12.1-1.13-18.19.7 3.44 2.32 6.59 3.33 9.94 1.69 6.15 3.2 12.35 4.24 18.66l-1.73-1.59c-1.64-2.88-4.66-5.28-4.71-8.82z"/><path fill="#fccbba" d="M112.38 170.55c1.78-2.95.29-7.98 4.2-9.39.78 2.4 1.26 4.89 1.62 7.39-.47 2-1.2 3.93-1.94 5.85-1.29-1.29-2.59-2.57-3.88-3.85z"/><path fill="#fed9ca" d="M140.49 162.43c4.46-2.63 9.82-1.16 14.69-1.2-.58.36-1.74 1.09-2.33 1.45-4.1-.44-8.24-.18-12.36-.25z"/><path fill="#1b0101" d="M132.55 164.39c2.53-1.06 5.24-1.57 7.94-1.96 4.12.07 8.26-.19 12.36.25 1.03.18 2.06.39 3.08.61 1.75.42 6.7 1.17 5.04 3.64-9.26-1.39-18.69-.39-27.95.13-.99-.67-1.14-1.56-.47-2.67z"/><path fill="#f8eadf" d="M248.7 162.41c2.91 3.04 1.27 7.55 1.55 11.3 1.28-.51 2.55-1.03 3.83-1.54.96-2.4 1.42-5.31 3.8-6.78-.28 3.3-1.5 6.39-2.76 9.43-1.57-.12-4.05-1.03-4.69 1.13.77 1.3 1.65 2.54 2.49 3.81-1.25 1.86-2.52 3.74-4.13 5.32.03-7.55-.48-15.11-.09-22.67z"/><path fill="#fce5d6" d="M116.26 174.4c.74-1.92 1.47-3.85 1.94-5.85 2.56 13.28 4.02 26.92 9.22 39.52-1.35-1.11-2.64-2.3-3.81-3.6 1.06-2.19-.1-6.77-3.08-4.09-5.7-8.82-9.29-19.21-8.15-29.83 1.29 1.28 2.59 2.56 3.88 3.85z"/><path fill="#816f6c" d="M286.83 169.7c3.35 6.81 5.19 14.39 6.69 21.83l-.41.55c-.79-.05-2.37-.17-3.16-.23l.21-.62c.32-.39.97-1.17 1.29-1.56-.99-.76-1.56-1.83-2.11-2.9l1.73 1.59c-1.04-6.31-2.55-12.51-4.24-18.66z"/><path fill="#f8cf7a" d="M253.03 176.67c5.62 1.07 9.05 7.28 9.25 12.62-1.76 3.23-3.07 6.68-4.43 10.1-.54 1.2.5 2.39.74 3.54-2.77 3.57-8.22 3.75-11 .09 2.46.23 4.91.46 7.38.64.56-3.72-3.88-4.03-6.36-5.2-.45 1.44-.88 2.89-1.32 4.34-1.35-2.31-.86-5.03-.59-7.54 1.36-.61 1.98 1.52 3.08 2.01 2.25 1.52 4.96-.34 5.74-2.59 1.89-5.96 1.44-12.94-2.49-18.01z"/><path d="M216.46 183.47c2.35-2.35 4.94-5.14 8.54-5.1 5.98-.3 12.5.57 17.31 4.44-.47.98-.93 1.96-1.39 2.94-4-3.12-9-6.19-14.28-5.16-3.8.57-6.22 3.77-8.81 6.26-3 2.81-3.74 7.58-2.03 11.27 1.34 2.93 2.76 5.84 4.52 8.54 3.09 1.22 6.39 1.96 9.68 2.46 3.32.38 6.24-1.35 9.16-2.61-1.03 1.89-1.49 4.22-3.15 5.68-2.6 1.47-5.74 2.8-8.73 1.75-4.35-1.13-9.09-2.52-11.83-6.37-2.16-3.25-5.67-6.22-5.03-10.53-.75-5.35 2.5-9.95 6.04-13.57zm-16.1 71.71c6.64-1.53 11.86-6.21 17.17-10.18-.37 4.51-.47 9.22 1.35 13.47-.53.81-1.09 1.62-1.65 2.41-.51-3.68-1.13-7.34-1.68-11.02-5.5.62-9.31 8.02-15.19 5.32z" fill="#fcb598"/><path fill="#fea782" d="M226.64 180.59c5.28-1.03 10.28 2.04 14.28 5.16.46-.98.92-1.96 1.39-2.94.97 5.58-.54 11.38.96 16.83l.11.35c-.67 2.14-1.46 4.25-2.48 6.26l-.2.08c-.38.05-1.15.14-1.54.18-2.92 1.26-5.84 2.99-9.16 2.61-3.29-.5-6.59-1.24-9.68-2.46-1.76-2.7-3.18-5.61-4.52-8.54-1.71-3.69-.97-8.46 2.03-11.27 2.59-2.49 5.01-5.69 8.81-6.26z"/><path fill="#fcc4ad" d="M184.25 184.06c1.34.37 2.79.91 3.3 2.35 1.21 3.77 1.87 7.7 2.4 11.62-1.33-2.15-3.77-2.89-5.99-3.71-.08.54-.25 1.63-.33 2.17-3.74-3.38-.22-8.48.62-12.43z"/><path fill="#feb494" d="M140.83 193.59c5.44-.95 10.99.6 16.1 2.38 10.64 4.87 11.62 21.7 2.35 28.42-3.88 2.87-8.99 3.79-13.7 3.05-1.87-.98-3.32-2.7-5.46-3.15-5.17-4.78-6.51-12.21-8.83-18.61.09-5.64 3.94-10.87 9.54-12.09m-7.28 10.07c-.1 4.17 2.47 7.8 3.23 11.83.91 2.38 2.13 6.61 5.42 5.96 3.13-.85 6.3-2.19 8.53-4.63.79-.99 2.29-1.91 1.72-3.37-.68-3.41-.72-6.88-.65-10.33l-2.51-2.6c.36-.29 1.07-.87 1.42-1.16-1.69-1.71-3.66-3.1-5.75-4.28-4.89.66-10.16 3.46-11.41 8.58z"/><path fill="#d67c58" d="M183.96 194.32c2.22.82 4.66 1.56 5.99 3.71-.88 3.93-4.59-.55-6.32-1.54.08-.54.25-1.63.33-2.17z"/><path fill="#fea57e" d="M133.55 203.66c1.25-5.12 6.52-7.92 11.41-8.58 2.09 1.18 4.06 2.57 5.75 4.28-.35.29-1.06.87-1.42 1.16l2.51 2.6c-.07 3.45-.03 6.92.65 10.33.57 1.46-.93 2.38-1.72 3.37-2.23 2.44-5.4 3.78-8.53 4.63-3.29.65-4.51-3.58-5.42-5.96-.76-4.03-3.33-7.66-3.23-11.83z"/><path d="M248.61 198.46c2.48 1.17 6.92 1.48 6.36 5.2-2.47-.18-4.92-.41-7.38-.64l-.35-.04.05-.18c.44-1.45.87-2.9 1.32-4.34zM125.94 226c2.12-.27 4.23-.66 6.12-1.71.83 1.22.46 2.69.31 4.04-2.45.84-5.89.86-6.43-2.33z" fill="#f7ca65"/><path fill="#6b5b56" d="M296.78 201.04c2.28 2.72 3.65 6.04 5.44 9.08-.54.94-1.09 1.87-1.62 2.82-1.49-1.47-3.21-2.86-3.99-4.85-.06-2.35.09-4.7.17-7.05z"/><path fill="#f7cc7a" d="M119.89 220.04c-2.41-5.04-.95-11.25 2.18-15.65.45 5.83-.13 13.35 5.29 17.13 2.12 1.65 4.06-.44 5.67-1.69.8 1.54 1.71 3.03 2.39 4.64-.11 2.72-1.83 5.62-4.59 6.35-2.33.89-4.66-.74-6.64-1.83.01-.56.03-1.68.03-2.23-1.71-2.05-3.4-4.18-4.33-6.72m6.05 5.96c.54 3.19 3.98 3.17 6.43 2.33.15-1.35.52-2.82-.31-4.04-1.89 1.05-4 1.44-6.12 1.71z"/><path fill="#635651" d="M123.86 209.04c1.62.77 3.22 1.57 4.82 2.37 1.59 2.71 2.63 5.7 1.41 8.8-2.88.7-3.89-2.34-4.82-4.39-.96-2.14-1.18-4.49-1.41-6.78z"/><path d="M204.24 215.51c1.14-.99 2.2-2.12 3.66-2.64.55 2.44-1.54 2.39-2.64 3.73-.43.01-1.27.04-1.69.05l-1.71.04c.81-.36 1.6-.76 2.38-1.18zm-56.21 112.46c.63.31 1.88.93 2.5 1.23-.16.72-.5 2.15-.67 2.87-.4 1.7-.74 3.42-1.14 5.13-.84 1.63-1.8 3.2-2.73 4.79.63 1.84.67 3.77.65 5.7l.5.65c6.94.64 13.97 1.44 20.93.54 2.84-.34 5.7-.38 8.55-.46 1.29-.14 2.6-.38 3.72-1.09.48-.33 1.45-.98 1.93-1.31.1.44.32 1.32.42 1.76-1.12 5.26-1.94 10.68-4.44 15.53 8.74 3.99 17.58 7.78 26.06 12.31 4.35 2.42 9.11 3.88 13.69 5.78.06.38.2 1.14.26 1.51-5.52-1.64-10.97-3.56-16.16-6.06-8.89-4.3-18.39-7.2-27.17-11.73l1.33-1.94c2.25-3.5 2.31-7.8 3.03-11.77-3.73-.04-7.45.28-11.11.98-7.08.38-14.19.6-21.27.15-2.19-.13-5.42-1.89-4.28-4.49 1.73-6.51 3.81-12.93 5.26-19.52l.14-.56z" fill="#280101"/><path d="M187.84 214.76c5.4-1.8 11.01-.32 16.4.75-.78.42-1.57.82-2.38 1.18-5.14 1.69-9.94 5.28-15.62 4.49-2.88-.41-5.97-.06-8.64-1.36 3.78-.92 6.31-4.43 10.24-5.06zm-4.39 8.58c5.51.2 11.04-1.23 16.03-3.49.34 3.66-2.62 6.51-5.73 7.87-3.88.02-7.83-1.24-10.3-4.38z" fill="#f36c39"/><path fill="#55403e" d="M303.02 215.12c1.22-.52 2.43 1.43 1.79 2.44-1.22.52-2.55-1.42-1.79-2.44z"/><path fill="#d04f24" d="M186.24 221.18c5.68.79 10.48-2.8 15.62-4.49l1.71-.04 1.15.6c-1.75.86-3.49 1.75-5.24 2.6-4.99 2.26-10.52 3.69-16.03 3.49-1.01-.69-2.03-1.35-3.07-1.98 1.95-.11 3.91-.22 5.86-.18z"/><path fill="#ec7a50" d="M199.48 219.85c1.75-.85 3.49-1.74 5.24-2.6-.36 5.65-5 9.65-9.61 12.19-2.67.36-5.39.44-8.07.21-3.75-1.59-7.27-4.35-8.85-8.21l2.19-.08c1.04.63 2.06 1.29 3.07 1.98 2.47 3.14 6.42 4.4 10.3 4.38 3.11-1.36 6.07-4.21 5.73-7.87z"/><path d="M86.53 231.03c.51.09 1.53.26 2.04.35-.54 1.3-1.03 2.62-1.44 3.97-.19-1.45-.39-2.89-.6-4.32zm-5.23 56.91c-5.63-7.63-5.73-18.05-2.54-26.66-.51 9.86 8.96 16.34 10.44 25.66.03 2-.08 4-.07 6.02l-1.64-.41c-.22-.45-.65-1.35-.86-1.8-1.77-.89-4.12-1.1-5.33-2.81z" fill="#ded7cc"/><path d="M103.31 239.06c.23-.2.69-.59.92-.79-.07 2.68.34 5.49-.68 8.05-.18-2.42-.2-4.84-.24-7.26zm73.66 13.08c1.11.43 2.21.91 3.31 1.41.43 3.23 2.38 5.96 3.18 9.1.87 3.05 1.75 6.81 5.17 7.96 6.77 2.46 13.69-.64 20.15-2.61 2.55-.45 3.32-3.12 4.37-5.1 1.38-.62 2.75-1.29 4.08-2.02.56-.79 1.12-1.6 1.65-2.41.22.4.66 1.19.87 1.59-.78 2.87-.87 6.3-3.37 8.32-6.91 7.31-17.96 9.07-27.42 6.77-1.58-.4-2.74-1.63-4-2.57-.16.35-.48 1.04-.63 1.38-1.08-7.69-3.81-14.95-7.36-21.82z" fill="#eeccc4"/><path fill="#635851" d="M292.94 250.65c7.38-.52 11.26-7.57 14-13.5 3.61 6.76 6.05 15.1 2.69 22.45-2.76 6.11-9.36 9.09-15.53 10.53-1.42-6.39-1.03-12.98-1.16-19.48z"/><path fill="#e5dad2" d="M317.12 239.79c.15-.61.44-1.81.59-2.42 5.05 10.1 5.68 21.97 2.8 32.79-.78 2.87-2.41 5.56-5.18 6.85.09.43.27 1.3.36 1.74-1.27.75-2.55 1.5-3.83 2.24-1.05-.11-2.1-.2-3.15-.28 1.22.89 2.5 1.84 4.12 1.54.14.53.42 1.6.56 2.14 1.16-.43 2.31-.86 3.5-1.22.52.14 1.57.41 2.09.55-2.95 2.01-6.33 3.12-9.83 3.66.99-1.19 1.99-2.38 2.96-3.59-2.64.75-5.29 2.26-8.11 1.48-2.23-.68-3.77-2.59-5.24-4.28 1.8-.73 3.6-1.47 5.38-2.25-.6.66-1.79 1.99-2.39 2.66 3.32.32 6.87-1.48 7.92-4.76 3.75-2.61 5.24-7.08 7.05-11.05 3.43-8.16 3.16-17.49.4-25.8z"/><path fill="#887773" d="M107.97 239.74c2.9.13 1.86 3.47 1.82 5.37-1.26-1.52-2.08-3.35-1.82-5.37z"/><path fill="#5e4b48" d="m227.31 239.68.74.03c-1.32 12.4-1.1 26.29 6.63 36.73 3.12 4.86 10.01 6.3 11.21 12.47-2.69.13-3.6-2.62-4.1-4.7-.46.14-1.38.43-1.85.57l.11-.49-.09-1.16c-5.67-.96-11.37-3.97-13.39-9.71-4.12-10.69-3.64-23.21.74-33.74z"/><path fill="#766561" d="M320.87 240.63c5.47 6.69 5.06 16.27 4.38 24.48-.94 2.03-1.13 5.09-3.39 6.01 2.45-9.99 2.17-20.69-.99-30.49z"/><path fill="#4e3938" d="M169.57 249.59c.81.12 2.43.36 3.24.49 1.2 1.98 2.41 4.03 2.59 6.41-2.45-1.84-3.38-5-5.83-6.9z"/><path fill="#fa9f75" d="M200.36 255.18c5.88 2.7 9.69-4.7 15.19-5.32.55 3.68 1.17 7.34 1.68 11.02-1.33.73-2.7 1.4-4.08 2.02-5.55 1.16-10.56-2.7-15.57-4.5.86-1.01 1.72-2.01 2.59-3.01l.19-.21z"/><path fill="#fdc2a7" d="M180.28 253.55c6.48 1.61 13.2 3.09 19.89 1.84-.87 1-1.73 2-2.59 3.01 5.01 1.8 10.02 5.66 15.57 4.5-1.05 1.98-1.82 4.65-4.37 5.1-6.46 1.97-13.38 5.07-20.15 2.61-3.42-1.15-4.3-4.91-5.17-7.96-.8-3.14-2.75-5.87-3.18-9.1z"/><path fill="#634f4c" d="M173.47 259.01c1 .56 1.21 1.74 1.68 2.69l2.12-.09c1.51 4.72 2.67 9.53 3.76 14.36.8 3.35-.56 6.69-1.26 9.92-2.03-1.5-2.4-4.54-1.93-6.88.99-5.45.06-11.01-.89-16.39l-1.59-.66c.8 4.98 2.04 10.09.97 15.14-1.63-5.9-1.72-12.09-2.86-18.09z"/><path fill="#352120" d="M92.67 284.03c-.53-3.11-.31-6.26.12-9.36.06.61.18 1.83.25 2.44l1.21-.02c-.04-.56-.11-1.66-.15-2.21 1.62 4.29 2.3 8.87 2.09 13.46-3.38.14-2.01-4.14-2.69-6.36-.21.52-.63 1.54-.83 2.05z"/><path fill="#666e84" d="M276.19 285.67c1.78-.98 3.33-2.29 4.84-3.63 3.04 2.08 6.43 3.53 9.85 4.86-3.37 2.53-7.78 2.97-11.8 2.01-1.6-.32-2.02-2.13-2.89-3.24z"/><path fill="#fcc6b2" d="M228.42 284.02c2.76.8 5.5 1.68 8.27 2.49.43 1.61.88 3.23 1.21 4.88-.19 1.82-.65 3.6-1.14 5.36l-.41-.75c-1.22-2.19-1.93-4.74-3.77-6.53-1.65-1.61-3.21-3.33-4.16-5.45z"/><path d="M247 286.05c1.69.57 3.37 1.14 5.05 1.74-1.36.41-2.77.74-4.2.58-.21-.58-.64-1.74-.85-2.32zM88.3 306.36c.71-.54.83-2.5 1.99-1.97.11.56.33 1.66.44 2.21-2.91 3.46-6.67 6.28-11.21 7.1 2.73-2.68 6.75-3.92 8.78-7.34zm156.27 63.25c.73-.41 1.48-.82 2.22-1.23.8.86 1.61 1.72 2.38 2.62 2.13 3.68 4.26 7.42 7.19 10.55.84-.16 1.69-.3 2.54-.42 2.37-.18 4.72.32 6.96 1.08-1.52.55-3.01 1.15-4.5 1.75-.02-.42-.07-1.27-.09-1.7-1.78.46-3.56.94-5.33 1.43-.58 1.8-1.16 3.6-1.74 5.41-1.02.29-2.03.6-3.04.93.7-1.49 2.03-2.97 1.58-4.71-1.67-5.77-6.29-10.07-8.17-15.71z" fill="#806673"/><path fill="#83615c" d="M273.08 286.68c1.04-.33 2.07-.66 3.11-1.01.87 1.11 1.29 2.92 2.89 3.24 4.02.96 8.43.52 11.8-2.01.23.09.7.28.93.38.11.72.34 2.15.46 2.87-4.09.71-8.24.67-12.37.48 1.61 3.53 5.44 4.94 7.82 7.8 1.6 1.9 3.48 3.53 5.55 4.9.04.75.11 2.26.15 3.01-5.05-4.2-9.35-9.26-14.77-13.02-1.27-.96-2.95-.96-4.42-1.34-.46-1.75-.82-3.52-1.15-5.3z"/><path fill="#634a4b" d="M175.69 290.28c-1.67-.14-.73-2.83.47-3.06 1.68.25.92 2.89-.47 3.06z"/><g fill="#bb5444"><path d="M230.26 332.54c3.58-14.71 8.32-29.13 11.49-43.94 1.5 1.2 3.26 1.98 5.17 2.29 3.08 2.91 6.43 5.75 10.65 6.78-.13 1.35.58 3.15-.9 3.99-4.39 3.17-9.18 6.17-11.8 11.13-.93 1.93-4.02 4.8-1.24 6.57 3.1 1.23 6.43-.23 9.36-1.32 4.67-1.69 8.19-5.33 12.18-8.14.38 4.27.02 8.57-1.03 12.73-9.07 2.43-18.82 2.29-27.44 6.28.88 1.09 1.76 2.18 2.66 3.26-2.96 1.02-6.09 1.57-9.1.37zm79.14-21.24c1.05.08 2.1.17 3.16.26-.47 2.2-.88 4.54.12 6.67 1.55 3.84 2.55 7.93 4.73 11.49.79 1.28 1.2 2.74 1.58 4.19-3.4-2.64-6.61-5.54-10.12-8.04-.3-4.87.13-9.73.53-14.57zm-23.82 5.02c1.71-2.82 4.83-4.37 8.07-4.64 1.01 11.41.65 22.89 1.53 34.3.46 8.53-.08 17.13.91 25.61-3.86 1.59-7.34 4.36-11.29 5.89-3.5.18-6.75 1.58-10.16 2.23-4.76-1.22-9.6-.02-14.41-.01-.33.36-1 1.07-1.33 1.43-.85.12-1.7.26-2.54.42-2.93-3.13-5.06-6.87-7.19-10.55-.66-1.7-1.25-3.41-1.85-5.12 10.39 2.88 21.22 3.4 31.67 6.01 3.36 1.06 7.27.43 9.9-1.98 1.72-2.47-.73-5.55-2.98-6.66-14.15-3.73-28.04-8.37-42.13-12.34.61-.9 1.2-1.8 1.78-2.7 10.81 3.51 22.25 3.35 33.47 3.18 1.6-.1 3.16-.44 4.74-.74-.25-1.43.53-3.43-1.09-4.24-9.01-5.87-19.11-10.29-29.9-11.41.17-.67.5-2.02.67-2.69 4.82-2.93 10.5-3.69 15.63-5.87-1.93-.53-3.86-1.03-5.81-1.46 3.52-1.04 8.68-.15 10.37-4.24.2-.23.39-.48.56-.74.98-.41 1.96-.83 2.93-1.26.33.51 1 1.52 1.34 2.03 2.58-1.1 5.75-1.69 7.11-4.45m3.52 9.76c.11 3.24 3.1-1.45 0 0m-2.98 7.14c-1.13.9.06 3.42 1.44 2.28 1.24-.89-.06-3.41-1.44-2.28zm-173.32-4.35c3.62-4.78 10.07-5.48 14.61-9.09 1.56 1.34 4.75 3.07 2.81 5.47-2.62 1.74-6.28 2.43-7.19 5.9.91.84 1.87 1.63 2.86 2.38 5.1-.32 10.15-1.52 14.81-3.66 2.24-1.09 4.73-1.3 7.19-1.34-1.45 6.59-3.53 13.01-5.26 19.52-1.14 2.6 2.09 4.36 4.28 4.49 7.08.45 14.19.23 21.27-.15 1.12 2.29 3.57 2.94 5.77 3.71.83 2.34 1.58 4.7 2.31 7.08l-1.33 1.94c8.78 4.53 18.28 7.43 27.17 11.73 5.19 2.5 10.64 4.42 16.16 6.06.72 4.3 1.12 8.65 1.37 13-15.9 1.69-32.02 1.4-47.83-1.02 2.35-4.49 5.74-8.25 9.15-11.93 2.58-2.44 1.65-6.23 1.35-9.34-1.99-.2-4.5-1.2-6.09.53-2.9 2.81-5.82 5.61-8.69 8.45-2.64 3.34-5 6.9-7.6 10.29-1.57-.31-3.13-.68-4.68-1.05.81-3.92 1.32-7.88 1.43-11.88.79-5.92 1.37-11.94.64-17.9-.47-1.83-2.4-1.58-3.86-1.83-2.74 9.73-4.54 19.74-5.15 29.84-2.72-.63-5.37-1.48-8.03-2.31l-.04-.31c-.61-5-1.06-10.11-2.96-14.83-1.25-.1-2.51-.2-3.76-.29-1.28 4.03-1.35 8.28-1.97 12.43-6.5-2.39-12.88-5.12-19.08-8.2 1.91-3.05 3.25-6.44 3.44-10.06-2.58-.38-5.14.11-7.51 1.15-.35-2.6-.65-5.21-.96-7.8-.87.43-1.24 1.14-1.13 2.13-.23 3.58.39 7.23-.64 10.74-3.54-1.53-6.9-3.44-10.06-5.64-.18-2.61.36-6.4-2.58-7.67-1.97.16-3.05 1.99-4.27 3.3-.64-.44-1.28-.86-1.92-1.28 1.74-5.74 4.1-11.26 6.71-16.64.93.56 1.86 1.15 2.8 1.72 3.1-7.84 11.14-11.63 16.46-17.64m-8.05 18.23c.81-1.93 1.58-3.98 1.22-6.11-1.72 1.29-3.18 4.46-1.22 6.11m19.61-2.76c-.77 1.28-1.06 3.07-.7 4.52 1.85.33 2.28-4.27.7-4.52z"/><path d="M186.2 327.47c5.54 7.89 11.04 15.81 16.74 23.6 4.63 6.3 10 12.29 12.73 19.74 1.4 3.37 1.76 7.02 2.33 10.59-4.58-1.9-9.34-3.36-13.69-5.78-8.48-4.53-17.32-8.32-26.06-12.31 2.5-4.85 3.32-10.27 4.44-15.53-.1-.44-.32-1.32-.42-1.76.56-4.35 1.31-8.68 1.5-13.06-.11-2.16 1.26-3.84 2.43-5.49zm56.1 41.71c.75.14 1.51.28 2.27.43 1.88 5.64 6.5 9.94 8.17 15.71.45 1.74-.88 3.22-1.58 4.71-3.64.89-7.25 1.94-10.96 2.49 1.08-7.75 1.59-15.53 2.1-23.34z"/></g><path fill="#fff8f5" d="M86.63 290.75c.21.45.64 1.35.86 1.8l-.82-.1-.04-1.7z"/><path fill="#af5950" d="M250.62 289.44c1.58 1.02 3.03 2.23 4.67 3.16 3.14.68 6.41.16 9.54-.35-.23 1.79-.45 3.59-.85 5.37-3.73-.7-7.48-1.71-10.62-3.93-1.35-1.02-3.74-2.09-2.74-4.25z"/><path d="M264.83 292.25c1.6-.98 3.12-2.1 4.64-3.2 2.53 8.29 2.96 17.05 5.43 25.36-3.65-.16-3.68 3.86-3.92 6.51-.53.15-1.59.44-2.13.59-2.97-4.23-1.92-9.29-1.39-14.05-3.88-.59-5.81 3.53-8.79 5.22-4.07 2.48-8.45 5.67-13.48 4.83.01-3.24 2.55-5.58 4.43-7.93 3.52-4.35 10.01-5.47 12.34-10.91.35-.07 1.07-.2 1.43-.27.15-.19.44-.59.59-.78.4-1.78.62-3.58.85-5.37zm-25.47 39.92c2.41 2.88 5.07 5.54 7.8 8.11-1.39 2.24-2.87 4.41-4.39 6.56-3.66-2.38-8.39-2.93-12.49-1.42-.99 4.41 2.73 7.19 6.01 9.21-6.04 6.4-11.01 13.74-14.54 21.81-.72-1.18-1.43-2.36-2.14-3.53 2.86-13.63 6.75-27.01 10.65-40.37 3.01 1.2 6.14.65 9.1-.37zm9.2 5.12c6.23-2.09 12.41 1.02 18.22 2.98 4.94 1.84 10.79 3.41 13.26 8.6-5.31 1.16-10.73.4-16.09.4-5.89-.07-11.68-1.28-17.4-2.6 1.22-2.23 2.23-4.64 4.15-6.38-.7-1.01-1.4-2.02-2.14-3zm-5.69 14.87c1.61.9 3.25 1.84 5.12 2.14 5.07.93 9.99 2.51 14.93 3.94 4.56 1.33 8.54 4.18 13.23 5.11 2.97.77 6.28.9 8.83 2.77 1.66.98.44 3.53-1.28 3.53-4.59.29-9.03-1.37-13.56-1.84-7.95-1.47-16.17-1.53-23.89-4.09-.7.86-1.4 1.73-2.1 2.61-1.18-.08-2.37-.16-3.55-.23-.4 9.01.41 18.22-2.48 26.96-3.85.81-7.74 1.4-11.63 1.96-.79-7.06 4.16-14.32.58-21.01 4.2-8.02 10.29-14.75 15.8-21.85z" fill="#62708d"/><path fill="#ad4b41" d="M279.9 290.63c4.13.19 8.28.23 12.37-.48.4 4.39.73 8.78 1 13.18-2.07-1.37-3.95-3-5.55-4.9-2.38-2.86-6.21-4.27-7.82-7.8z"/><path fill="#60708d" d="M274.23 291.98c1.47.38 3.15.38 4.42 1.34 5.42 3.76 9.72 8.82 14.77 13.02.08 1.78.15 3.55.23 5.34-7.11-1.16-12.12-6.58-17.67-10.63-.4-3.06-.97-6.09-1.75-9.07z"/><path fill="#9e5e62" d="M308.15 311.01c.48-5.68-.97-11.3-.68-16.99 4 2.95 7.47 6.52 10.85 10.14-3.51-1.34-5.74-4.46-8.55-6.78-1.76 4.46.52 9.28-.37 13.92-.4 4.84-.83 9.7-.53 14.57 3.51 2.5 6.72 5.4 10.12 8.04-.38-1.45-.79-2.91-1.58-4.19-2.18-3.56-3.18-7.65-4.73-11.49-1-2.13-.59-4.47-.12-6.67.83.06 2.51.19 3.35.26 3.43 3.47 6.92 6.9 10.03 10.66 2.47 3.37 4.95 6.74 7.76 9.84 1.98 2.14 3.22 4.87 3.7 7.74l-.02.73-.39-.23c-1.41-.84-2.8-1.69-4.2-2.53.13-.98.27-1.95.41-2.92-2.32-4.26-5.62-7.84-8.57-11.65-2.81-3.83-6.94-6.38-9.77-10.19-2.76 2.21-.22 5.59.55 8.2 2.39 6.62 6.12 12.61 10.67 17.96-.78.94-1.73 1.22-2.86.82-5.39-3.16-8.32-10.26-14.98-11.16-.67-6-.51-12.06-.09-18.08z"/><path fill="#916268" d="M257.57 297.67c1.45.39 2.91.71 4.39 1-2.33 5.44-8.82 6.56-12.34 10.91-1.88 2.35-4.42 4.69-4.43 7.93 5.03.84 9.41-2.35 13.48-4.83 2.98-1.69 4.91-5.81 8.79-5.22-.53 4.76-1.58 9.82 1.39 14.05-1.56.42-3.13.78-4.71 1.12a38.18 38.18 0 0 0 1.03-12.73c-3.99 2.81-7.51 6.45-12.18 8.14-2.93 1.09-6.26 2.55-9.36 1.32-2.78-1.77.31-4.64 1.24-6.57 2.62-4.96 7.41-7.96 11.8-11.13 1.48-.84.77-2.64.9-3.99z"/><path fill="#ad493b" d="M309.4 311.3c.89-4.64-1.39-9.46.37-13.92 2.81 2.32 5.04 5.44 8.55 6.78.62.63 1.23 1.29 1.82 1.97.11 3.93 4.08 5.95 5.25 9.47 1.13 2.14.99 4.58.55 6.88-3.11-3.76-6.6-7.19-10.03-10.66-.84-.07-2.52-.2-3.35-.26-1.06-.09-2.11-.18-3.16-.26z"/><path d="M275.98 301.05c5.55 4.05 10.56 9.47 17.67 10.63-3.24.27-6.36 1.82-8.07 4.64-1.36 2.76-4.53 3.35-7.11 4.45-.34-.51-1.01-1.52-1.34-2.03.56-.85 2.24-1.45 1.64-2.69-1.4-4.91-2.36-9.91-2.79-15zM116.99 315.8c2.66.02 5.4.05 7.9-1.01 1.46 1.32 2.42 2.99 2.52 4.99-4.54 3.61-10.99 4.31-14.61 9.09-5.32 6.01-13.36 9.8-16.46 17.64-.94-.57-1.87-1.16-2.8-1.72 3.01-6.45 6.3-12.92 10.97-18.33 4.1-3.62 8.3-7.13 12.48-10.66z" fill="#a6493b"/><path fill="#9d4b41" d="M156.06 309.1c3.04-.9 5.8-2.84 9.04-3.01-.4 2.11-.57 4.27-.48 6.42-3.33.44-6.63-.53-8.56-3.41z"/><path fill="#a64b41" d="M126.67 314.14c2.63-1.93 4.36-4.73 5.5-7.74 5.26 4.25 11.96 6.75 18.77 6.11-.19 2.07-.34 4.16-.72 6.22-7.81-1.68-15.58-3.79-23.55-4.59z"/><path fill="#63708c" d="M164.62 312.51c-.09-2.15.08-4.31.48-6.42 2.17 0 4.34.05 6.52.05 0 1.52-.25 3.09-.09 4.62 1.27 1.57 3.62 1.52 5.37 2.3 2.53 4.46 5.34 8.74 8.3 12.93-1.4 1.75-2.96 3.54-3.27 5.85-.94 5.11-1.5 10.3-1.59 15.49-1.12.71-2.43.95-3.72 1.09-1.46-7.71-.98-15.54-1.05-23.33-10.27 1.7-13.48 13.67-22.41 17.71.42.19 1.24.57 1.66.76-2.52-.19-5.06.03-7.31 1.26-.12 1.17-.25 2.34-.37 3.52l-.5-.65c.02-1.93-.02-3.86-.65-5.7.93-1.59 1.89-3.16 2.73-4.79 3.97-2.41 6.74-6.25 10.46-8.98 1.74-1.15 2.48-3.06 2.81-5.02-3.53.3-7.01 1-10.42 1.98 1.03-3.86 1.64-7.8 2.07-11.75.12-1.73.8-3.51 2.42-4.33 1.93 2.88 5.23 3.85 8.56 3.41z"/><path fill="#b95644" d="M320.14 306.13c3.81 3.86 7.09 8.2 9.88 12.85 3.53 5.9 7.77 11.32 11.68 16.97-1.38 1.42-2.73 2.89-4.3 4.11-.48-2.87-1.72-5.6-3.7-7.74-2.81-3.1-5.29-6.47-7.76-9.84.44-2.3.58-4.74-.55-6.88-1.17-3.52-5.14-5.54-5.25-9.47z"/><path fill="#efe5dc" d="M299.92 317.07c.2-1.79-.65-4.66 2.19-4.19-.13 1.85.81 4.94-2.19 4.19z"/><path fill="#85636e" d="M124.89 314.79c.45-.16 1.33-.49 1.78-.65 7.97.8 15.74 2.91 23.55 4.59-.1.43-.31 1.3-.41 1.74-4.94-1.1-9.85-2.33-14.79-3.4-2.45-.59-5.07-.51-7.26.82 2.17 1.7 5.13 2.64 6.54 5.12-.81 4.53-8.92 3.99-8.51 8.86 6.03-.61 11.73-2.72 17.39-4.75 1.63-.74 3.42-.51 5.14-.31l-.29 1.16-.14.56c-2.46.04-4.95.25-7.19 1.34-4.66 2.14-9.71 3.34-14.81 3.66-.99-.75-1.95-1.54-2.86-2.38.91-3.47 4.57-4.16 7.19-5.9 1.94-2.4-1.25-4.13-2.81-5.47-.1-2-1.06-3.67-2.52-4.99z"/><path fill="#8d646f" d="M270.98 320.92c.24-2.65.27-6.67 3.92-6.51.89 1.95.94 3.97-.7 5.59-.17.26-.36.51-.56.74-.66.05-1.99.14-2.66.18z"/><path fill="#636e8c" d="M315.41 321.47c-.77-2.61-3.31-5.99-.55-8.2 2.83 3.81 6.96 6.36 9.77 10.19 2.95 3.81 6.25 7.39 8.57 11.65-.14.97-.28 1.94-.41 2.92 1.4.84 2.79 1.69 4.2 2.53-2.43 2.58-5.05 4.97-7.7 7.33-5.31-4.27-12.12-6.38-16.84-11.39-1.11-1.18-2.55-1.95-3.96-2.69-.05-1.58-.13-3.16-.25-4.72 6.66.9 9.59 8 14.98 11.16 1.13.4 2.08.12 2.86-.82-4.55-5.35-8.28-11.34-10.67-17.96z"/><path d="M127.76 317.89c2.19-1.33 4.81-1.41 7.26-.82 4.94 1.07 9.85 2.3 14.79 3.4-.52 2.1-1.01 4.22-1.49 6.34-1.72-.2-3.51-.43-5.14.31-5.66 2.03-11.36 4.14-17.39 4.75-.41-4.87 7.7-4.33 8.51-8.86-1.41-2.48-4.37-3.42-6.54-5.12zm48.21 60.14c1.26-1.23 2.9-1.94 4.47-2.67.12 1.71-.02 3.48-.95 4.98-2.62 5.2-6.62 9.47-10.13 14.06-2.04-.19-4.07-.48-6.06-.93 2.13-6.64 7.95-10.73 12.67-15.44z" fill="#607092"/><path fill="#8e626d" d="M151.57 325.18c3.41-.98 6.89-1.68 10.42-1.98-.33 1.96-1.07 3.87-2.81 5.02-3.72 2.73-6.49 6.57-10.46 8.98.4-1.71.74-3.43 1.14-5.13 3.01.01 5.35-1.91 6.21-4.74-1.62-.27-3.24-.55-4.86-.81.09-.34.27-1.01.36-1.34z"/><path fill="#ba5644" d="M153.16 342.8c8.93-4.04 12.14-16.01 22.41-17.71.07 7.79-.41 15.62 1.05 23.33-2.85.08-5.71.12-8.55.46-6.96.9-13.99.1-20.93-.54.12-1.18.25-2.35.37-3.52 2.25-1.23 4.79-1.45 7.31-1.26-.42-.19-1.24-.57-1.66-.76z"/><path fill="#eee4db" d="M301.32 325.4c1.52 1.09.89 4.5.34 6.25-1.44-1.2-.98-4.5-.34-6.25z"/><path fill="#a64939" d="M251.29 327.46c3.96-.96 7.96-1.81 11.98-2.48 1.95.43 3.88.93 5.81 1.46-5.13 2.18-10.81 2.94-15.63 5.87-.17.67-.5 2.02-.67 2.69-3.35-.71-7.66-1.18-9-4.92 2.6-.54 5.13-1.41 7.51-2.62z"/><path fill="#e69d83" d="M289.1 326.08c3.1-1.45.11 3.24 0 0z"/><path fill="#bb5650" d="M150.53 329.2c.22-.9.45-1.79.68-2.68 1.62.26 3.24.54 4.86.81-.86 2.83-3.2 4.75-6.21 4.74.17-.72.51-2.15.67-2.87z"/><path fill="#88656f" d="M181.93 331.84c.31-2.31 1.87-4.1 3.27-5.85l1 1.48c-1.17 1.65-2.54 3.33-2.43 5.49-.19 4.38-.94 8.71-1.5 13.06-.48.33-1.45.98-1.93 1.31.09-5.19.65-10.38 1.59-15.49z"/><path fill="#816668" d="M240.2 329.46c3.64-.94 7.37-1.47 11.09-2a30.041 30.041 0 0 1-7.51 2.62c1.34 3.74 5.65 4.21 9 4.92 10.79 1.12 20.89 5.54 29.9 11.41 1.62.81.84 2.81 1.09 4.24-1.58.3-3.14.64-4.74.74-11.22.17-22.66.33-33.47-3.18.25-.38.75-1.15.99-1.54 5.72 1.32 11.51 2.53 17.4 2.6 5.36 0 10.78.76 16.09-.4-2.47-5.19-8.32-6.76-13.26-8.6-5.81-1.96-11.99-5.07-18.22-2.98-2.58-2.82-5.51-5.3-8.36-7.83z"/><path fill="#f6c4ad" d="M195.7 333.31c3.91 4.73 7.72 9.72 12.85 13.21 3.06 2.19 5.27 5.27 7.67 8.11 3.78-6.52 5.26-14.06 8.05-21.02.56.03 1.7.1 2.27.13-.78 4.19-2.11 8.24-3.71 12.19-2.67 6.77-4.66 13.79-6.4 20.86-3.12-4.92-6.39-9.75-10.15-14.22-4.31-5.56-8.2-11.42-12.2-17.19.41-.52 1.22-1.55 1.62-2.07z"/><path fill="#dc977d" d="M286.12 333.22c1.38-1.13 2.68 1.39 1.44 2.28-1.38 1.14-2.57-1.38-1.44-2.28z"/><path fill="#b85444" d="M308.49 333.81c1.41.74 2.85 1.51 3.96 2.69 4.72 5.01 11.53 7.12 16.84 11.39-2.71 2.27-5.31 4.79-8.33 6.6-3.71-.27-7.34.54-10.97 1.11-.5-7.26-1.08-14.52-1.5-21.79z"/><path fill="#cb725a" d="M104.75 347.1c-1.96-1.65-.5-4.82 1.22-6.11.36 2.13-.41 4.18-1.22 6.11z"/><path fill="#e0a28b" d="M124.36 344.34c1.58.25 1.15 4.85-.7 4.52-.36-1.45-.07-3.24.7-4.52z"/><path fill="#8e666d" d="M230.28 345.42c4.1-1.51 8.83-.96 12.49 1.42l-1.52 2.12c-2.38-1.49-5.04-2.88-7.95-2.62-1.77 1.11-.72 3.66.69 4.63 1.56.53 3.22.68 4.85.94-.85.9-1.7 1.81-2.55 2.72-3.28-2.02-7-4.8-6.01-9.21z"/><path fill="#be5342" d="M233.3 346.34c2.91-.26 5.57 1.13 7.95 2.62-.77 1.01-1.56 2-2.41 2.95-1.63-.26-3.29-.41-4.85-.94-1.41-.97-2.46-3.52-.69-4.63z"/><path d="M242.87 352.16c.23-.31.68-.94.91-1.25 14.09 3.97 27.98 8.61 42.13 12.34 2.25 1.11 4.7 4.19 2.98 6.66-2.63 2.41-6.54 3.04-9.9 1.98-10.45-2.61-21.28-3.13-31.67-6.01.6 1.71 1.19 3.42 1.85 5.12-.77-.9-1.58-1.76-2.38-2.62-.74.41-1.49.82-2.22 1.23-.76-.15-1.52-.29-2.27-.43-.51 7.81-1.02 15.59-2.1 23.34-.52.14-1.56.4-2.08.54 2.89-8.74 2.08-17.95 2.48-26.96 1.18.07 2.37.15 3.55.23.7-.88 1.4-1.75 2.1-2.61 7.72 2.56 15.94 2.62 23.89 4.09 4.53.47 8.97 2.13 13.56 1.84 1.72 0 2.94-2.55 1.28-3.53-2.55-1.87-5.86-2-8.83-2.77-4.69-.93-8.67-3.78-13.23-5.11-4.94-1.43-9.86-3.01-14.93-3.94-1.87-.3-3.51-1.24-5.12-2.14zm-109.36 20.17c1.25.09 2.51.19 3.76.29 1.9 4.72 2.35 9.83 2.96 14.83-.42-.08-1.26-.25-1.68-.33-.49-3.96.1-8.43-2.57-11.73-2.22 2.85-2.07 6.6-2.54 10-.48-.13-1.44-.4-1.92-.53l.02-.1c.62-4.15.69-8.4 1.97-12.43z" fill="#8d626d"/><path fill="#a64e42" d="M168.18 352.39c3.66-.7 7.38-1.02 11.11-.98-.72 3.97-.78 8.27-3.03 11.77-.73-2.38-1.48-4.74-2.31-7.08-2.2-.77-4.65-1.42-5.77-3.71z"/><path fill="#6d6d88" d="M309.99 355.6c3.63-.57 7.26-1.38 10.97-1.11-3.08 3.23-7.1 5.3-10.5 8.14-.09-2.35-.24-4.69-.47-7.03z"/><path fill="#8d6472" d="M88.75 362.71c1.22-1.31 2.3-3.14 4.27-3.3 2.94 1.27 2.4 5.06 2.58 7.67-2.32-1.4-4.59-2.87-6.85-4.37z"/><path fill="#676d8a" d="M153.45 360.23c1.46.25 3.39 0 3.86 1.83.73 5.96.15 11.98-.64 17.9-.11 4-.62 7.96-1.43 11.88-2.33-.55-4.65-1.11-6.94-1.77.61-10.1 2.41-20.11 5.15-29.84z"/><path fill="#676d8d" d="M108.39 367.65c2.37-1.04 4.93-1.53 7.51-1.15-.19 3.62-1.53 7.01-3.44 10.06-1.4-.72-2.82-1.4-4.24-2.05l.83-.24c-.15-2.22-.38-4.43-.66-6.62z"/><path fill="#966068" d="M176.21 374.15c1.59-1.73 4.1-.73 6.09-.53.3 3.11 1.23 6.9-1.35 9.34-3.41 3.68-6.8 7.44-9.15 11.93-.66-.06-1.99-.16-2.66-.21l.22-.28c3.51-4.59 7.51-8.86 10.13-14.06.93-1.5 1.07-3.27.95-4.98-1.57.73-3.21 1.44-4.47 2.67-4.72 4.71-10.54 8.8-12.67 15.44-1.12-.21-2.25-.41-3.38-.58 2.6-3.39 4.96-6.95 7.6-10.29 2.87-2.84 5.79-5.64 8.69-8.45z"/><path fill="#a75950" d="M223.85 379.7c.99-1.95 2.11-3.82 3.22-5.69 3.58 6.69-1.37 13.95-.58 21.01-.75.09-2.26.26-3.01.35-.49-1.95-.9-3.92-1.09-5.91 1.31-3.1 1.56-6.44 1.46-9.76z"/><path fill="#667092" d="M133.44 385.39c.47-3.4.32-7.15 2.54-10 2.67 3.3 2.08 7.77 2.57 11.73-1.72-.52-3.42-1.11-5.11-1.73z"/><path fill="#0d0000" d="M274.64 379.71c3.41-.65 6.66-2.05 10.16-2.23-4.93 2.27-9.85 4.59-15 6.34-2.48.97-5.2 1.39-7.44 2.91-.35-.92-.66-1.85-1-2.77 1.49-.6 2.98-1.2 4.5-1.75 2.9-.92 5.84-1.72 8.78-2.5z"/><path fill="#a4605d" d="M260.23 379.7c4.81-.01 9.65-1.21 14.41.01-2.94.78-5.88 1.58-8.78 2.5-2.24-.76-4.59-1.26-6.96-1.08.33-.36 1-1.07 1.33-1.43z"/><path fill="#825e5f" d="M222.39 389.46c-.75-3.39-.72-6.88 1.46-9.76.1 3.32-.15 6.66-1.46 9.76z"/><path fill="#5a7197" d="M255.94 383.69c1.77-.49 3.55-.97 5.33-1.43.02.43.07 1.28.09 1.7.34.92.65 1.85 1 2.77-2.73.62-5.45 1.58-8.16 2.37.58-1.81 1.16-3.61 1.74-5.41z"/></svg>