<svg width="400pt" height="400pt" viewBox="0 0 400 400" xmlns="http://www.w3.org/2000/svg"><g fill="#fff"><path d="M0 0h400v400H0V0m155.58 6.47-.18.18C100.29 18.89 51.8 57.04 26.17 107.25c-15.59 29.96-23.21 64.07-21.72 97.81 1.97 52.85 26.64 104.4 66.61 139.03 25.88 22.91 58.07 38.55 91.98 45.1 35.81 7.1 73.52 3.5 107.54-9.65 3.42-1.66 6.84-3.37 10.47-4.56 1.05-.52 2.45-.57 3.17-1.6 18.62-8.33 35.4-20.44 50.31-34.28 20.37-19.35 36.57-43.08 47.03-69.17 9.99-24.63 14.76-51.34 14.16-77.9-.83-27.69-7.38-55.24-19.57-80.15-14-29.09-35.38-54.58-61.56-73.46-26.89-19.45-58.78-31.98-91.76-35.79-3.53-.5-7.09-.91-10.66-.73-4.02-.63-8.14-.68-12.21-.78-14.92.29-29.86 1.82-44.38 5.35z"/><path d="M257.6 91.68c.53-.13 1.59-.4 2.12-.53 2.29.31 4.5 1.02 6.72 1.67-.01.73-.02 2.18-.03 2.91l2.13-.4c.01 1.82.02 3.65.06 5.47l-1.45-.18c-.26 3.64-3.39 5.81-6.82 5.97 3.3-3.3 2.49-8.39-.1-11.82-.99-.41-1.98-.82-2.96-1.24.08-.46.25-1.38.33-1.85zm-9.72 11.47a41.43 41.43 0 0 1 3.48-3.14c.28 1.4.42 2.82.09 4.21-.49.07-1.46.19-1.95.25l.09-1.03c-.43-.07-1.28-.22-1.71-.29zm-41.28 27.92c3.22.14 6.11 1.58 8.97 2.93-1.39.67-2.78 1.34-4.16 2.01.88.14 2.66.42 3.55.56l-.84 1.39c-1.32 1.71-2.86 3.25-4.74 4.34.05-1.65.11-3.31.2-4.96l-1.06.02-.04-1.63c-.44-.5-1.31-1.49-1.74-1.99-.04-.66-.1-2-.14-2.67zm-11.79 5.99c.2.4.59 1.2.79 1.6.44-.07 1.32-.21 1.76-.29.02 1.02.05 2.04.09 3.06-1.06.05-2.11.09-3.16.14.09-1.51.28-3.01.52-4.51z"/></g><g fill="#020101"><path d="M155.58 6.47c14.52-3.53 29.46-5.06 44.38-5.35 4.07.1 8.19.15 12.21.78 3.52 2.19 7.53 3.25 11.34 4.77 8.24 4.06 16.52 8.27 23.69 14.09 3.88 3.2 8.36 5.59 12.16 8.9 5.12 4.86 10.89 9.08 15.22 14.73 8.27 8.8 12.07 20.54 15.33 31.89 1.49 5.4.61 11.41 3.5 16.39 3.17 5.39 5.54 11.18 8.18 16.83 2.24 4.55 1.35 9.78 2.58 14.57 2.07 7.94 3.99 15.9 5.96 23.85.99 2.9 1.57 5.91 1.46 8.98-2.74-5.72-5.63-11.66-10.65-15.76-2.3-2.11-5.18-3.58-8.32-3.84-1.03-11.63-6.62-22.2-11.41-32.65-1.2-3.39-4.8-4.98-6.16-8.21l-2.31.06c-.14 1.61-.28 3.22-.44 4.83.71.36 2.12 1.07 2.83 1.43-1.14-.13-3.4-.37-4.53-.5-.66 1.75-1.88 2.93-3.67 3.55.41-1.26 1.25-3.76 1.67-5.01 1.32-2.89.99-6.09.74-9.16-3.1-1.06-6.46-1.66-9.62-.49-.53.13-1.59.4-2.12.53-.08.47-.25 1.39-.33 1.85.98.42 1.97.83 2.96 1.24 2.59 3.43 3.4 8.52.1 11.82-1.04 1.23-2.06 2.47-3.11 3.69-1.57.15-3.13.29-4.69.44-.3-.45-.89-1.34-1.18-1.79-1.25-.62-2.5-1.24-3.74-1.87-.56.91-1.7 2.73-2.27 3.64-.12-3.66-.18-7.32.07-10.97 1.52-1.56 3.02-3.13 4.52-4.69-1.18-3.55-3.22-6.7-5.99-9.21l-.32 1.16a36.963 36.963 0 0 0-5.99 5.17c-1.13-2.03-2.18-4.1-3.16-6.21.69-1.13 1.41-2.24 2.13-3.34 1.02-1.57 2.13-3.08 3.15-4.65-6.78-8.3-14.57-15.65-22.21-23.15-4.44-4.57-9.22-9.75-15.69-11.15-5.04-2.65-10.22-5.07-15.74-6.55l.6 1.93c6.19 4.95 10.89 11.41 15.34 17.89 4.54 8.07 9.3 16.2 11.57 25.26 4.22 13.26 5.1 27.53 2.84 41.24-.4.43-1.18 1.29-1.57 1.72 1.61 1.42 3.41 2.64 5.5 3.24-2.11.31-4.2.75-6.27 1.25-.27.62-.82 1.86-1.1 2.47l-1.72-2.84c-1.95.34-4.07.3-5.76 1.46-.65 1.25.5 2.14 1.2 3.01.43.5 1.3 1.49 1.74 1.99l.04 1.63c-.04 2.31-.19 4.62-.3 6.92-3.21 1.24-6.28 2.83-9.07 4.85-3.43-1.9-7.17-3.17-10.56-5.15-2.3.07-.39 2.25.48 2.98 1.5 1.37 3.33 2.29 5.02 3.39-4.05.29-8.06-1.58-12.02.14.31 2.58.9 5.11 1.6 7.62 2.39 10.82 2.07 22.17 5.72 32.72.77 2.51 2.31 4.65 3.86 6.74.74-.07 1.48-.14 2.23-.2 3.62 3.51 7.9 6.45 12.83 7.73-1.91 2.44-4.47.61-6.68-.14 1.06 1.47 2.08 2.96 3.13 4.44l-1.48 1.4c-1.49-1.74-2.99-3.48-4.39-5.31-.95-.09-1.9-.15-2.85-.18 3.46 10.67 11.68 18.88 19.89 26.13.46.43.93.87 1.45 1.25 2.62 2.03 5.65 3.41 8.69 4.7 1.96.02 3.9.29 5.79.81 3.52.99 7.21.35 10.81.51-1.82 2.18-4.61 2.56-7.26 2.85l-.79.16c-.6 1.19-1.15 2.41-1.69 3.63-4 .13-8.11.56-11.99-.65-2.66-.8-5.42-1.1-8.18-1.11 2.91.81 5.75 1.88 8.67 2.65 3.67.6 7.41.78 11.02 1.73-2.6.67-5.24 1.17-7.9 1.54-.28.48-.86 1.45-1.15 1.93-6.63.48-13.24-.24-19.65-1.96 3.92 2.06 7.94 4.21 12.43 4.6-3.73.9-6.59 4.17-10.7 3.73-.45 1-.89 2.01-1.3 3.03-.27.74-.81 2.2-1.08 2.94-3.85.14-6.86-2.52-10.34-3.72 3.18 3.5 6.85 7.19 11.75 7.93.04.92.12 2.75.17 3.66-2.31-.9-4.79-1.14-7.24-1.25-.01.86-.04 2.58-.05 3.44-1.29-.73-2.57-1.46-3.85-2.18-.03.62-.09 1.87-.11 2.49-1.13.65-2.26 1.31-3.39 1.95-3.56.08-6.37 2.12-9.32 3.78-5.23.05-10.46.43-15.69.74.79.81 1.58 1.63 2.36 2.47 1.86 2.13 3.84 4.15 5.8 6.19 1.1 4 3.89 7.18 5.96 10.71 3.66 5.33 7.36 10.64 11.13 15.9 3.83 5.36 8.79 9.8 12.66 15.12 3.3 4.37 6.68 8.69 10.59 12.53 5.73 5.57 10.38 12.23 16.84 17.04 11.46 9.54 24.67 18.82 40.21 18.96-34.02 13.15-71.73 16.75-107.54 9.65-33.91-6.55-66.1-22.19-91.98-45.1 3.45-8.35 4.53-17.51 8.57-25.63 1.22-2.51 2.31-5.08 3.24-7.7 2.68-7.7 7.16-14.58 11.59-21.37 2.62-4.5 7.93-6.59 10.17-11.4-1.93-4.22-6.45-5.9-9.65-8.91-3.6-3.16-6.14-7.27-8.98-11.08-3.29-4.29-3.96-9.83-6.09-14.69-1.72-3.89-1.24-8.21-1.79-12.32-1.12-7.61-.33-15.32-.57-22.97-.29-11.81 2.84-23.34 3.2-35.1 1-6.93.46-13.97 1.7-20.88 1.2-7.31.76-14.76 1.96-22.07.23-4.56-.17-9.19 1.23-13.61 2.54-9.31 1.26-19.25 4.42-28.43 1.92-5.26 3.37-10.76 6.36-15.56 2.88-4.76 5.43-9.73 8.68-14.25 2.71-3.97 8.03-5.76 9.38-10.69 1.66-5.21 3.65-10.45 7.52-14.46 2.18-2.92 5.64-4.29 8.41-6.5 2.59-3.06 4.74-6.72 8.49-8.56 5.96-2.99 11.68-6.62 16.5-11.26l.18-.18m21.98 36.44c.05.54.17 1.61.22 2.15l1.85 1.45c.16 1.76-.65 3.93.8 5.34.26 4.47.97 9.07 2.94 13.12.03 1.17.04 2.33.06 3.5h1.16c-.55 13.12 2.41 26.07 2.19 39.19 1.82-.57 3.65-1.11 5.45-1.76 5.52-2.54 11.65-3.02 17.51-4.37.5-.31 1.49-.91 1.99-1.22-2.67-9.17-5.65-18.4-10.72-26.57-1.05-1.38-1.45-3.87-3.75-3.58.61 1.68 1.24 3.36 1.64 5.11-1.84-1.62-2.26-4.13-2.65-6.42-3.67-5.38-7-10.98-10.81-16.27-1.75-3.93-5.68-6.06-7.88-9.67m39.43 1.37c2.29 2.61 5.42 4.28 7.76 6.84 3.09 3.38 6.35 6.6 9.34 10.07 1.66.63 3.48.73 5.17 1.28-.83-.05-2.48-.17-3.3-.23 1.28 3.95 4.81 6.56 6.66 10.23 1.38 3.02 5.43.09 5.11-2.4-6.68-8.14-13.95-16.14-23.2-21.42-2.62-1.33-4.31-4.51-7.54-4.37M139.98 83.6c-.97 5.06.22 10.27-.93 15.31-1.2 5.26.31 10.71-.98 15.96-1.36 5.39-.03 10.9.37 16.31.54-4.79 1.13-9.58 1.21-14.41.62.3 1.85.89 2.47 1.19 1.02 5.64.56 11.86 3.18 17.17-.11-7.38.1-14.76.09-22.13-.7-3.55-1.39-7.13-.68-10.75-.63.66-1.26 1.32-1.89 1.99-.73-1.3-1.48-2.66-1.32-4.22.15-8.67-.25-17.34 0-26.02-.78 3.16-.95 6.41-1.52 9.6m108.16-2.99c.89 3.39 1.03 7.11 2.96 10.11 1.1-2.01 2.02-4.14 2.47-6.4.5.15 1.5.44 2 .58.07-1.81.15-3.62.24-5.43l-1.37-.09c.03-.6.11-1.81.14-2.42-2.43.66-4.43 2.21-6.44 3.65m-.26 22.54c.43.07 1.28.22 1.71.29l-.09 1.03c.49-.06 1.46-.18 1.95-.25.33-1.39.19-2.81-.09-4.21a41.43 41.43 0 0 0-3.48 3.14m-43.87 10.37c-6.3-.7-11.77 3.12-17.38 5.37.22 5.48-1.78 10.73-1.32 16.2.89-.65 1.78-1.3 2.68-1.94 1.41 2.44 3.76 1.12 5.64.14 2.7-2.31 5.77-4.99 9.53-4.94.61-1.12 1.23-2.27 2.41-2.89 2.25.24 4.51.24 6.77.13.21-4.06.16-8.13.09-12.19l-1.52.08c-1.91-2.57-4.53.66-6.9.04m-74.37 22.8c-.54 7.63.49 15.18 1.58 22.71.29-5.37.18-10.75.18-16.12-.04-2.98 1.47-5.87.65-8.85-.81.74-1.62 1.5-2.41 2.26m57.13.09c-.63 1.75-1.41 3.47-2.92 4.63-.05 2.27-.37 4.53-1.38 6.59.83-.18 1.66-.36 2.49-.53.3-4.03 2.94-7.23 4.09-10.99-.57.08-1.71.23-2.28.3m8.04.65c-.24 1.5-.43 3-.52 4.51 1.05-.05 2.1-.09 3.16-.14-.04-1.02-.07-2.04-.09-3.06-.44.08-1.32.22-1.76.29-.2-.4-.59-1.2-.79-1.6M86.43 195.84c-.03 1.69.04 3.39-.12 5.08-1.27 7.96-.71 16.06-.81 24.1.92 9.23 2.01 18.76 6.54 27.02 1.57 7.35 7.89 12.16 13.95 15.87 3.78 2.31 8.09 6.34 12.78 3.82-3.16-2.36-5.58-5.53-9.02-7.53-5.25-7.16-9.57-14.96-13.04-23.11a50.07 50.07 0 0 0-3.38-12.84c-1.55-3.41-.61-7.2-1.18-10.77-.92-4.12-2.5-8.05-3.76-12.06-1.06-3.11-.61-6.55-1.96-9.58m114.5 41.53c3.61 1.26 5.74 4.91 9.72 5.55-.04-.53-.11-1.58-.14-2.1-3.07-1.48-6.21-2.87-9.58-3.45z"/><path d="M292.51 139.22c6.7 1.18 11.42 7.09 14.49 12.78 1.99 4.98 4.51 9.82 5.67 15.09.38 6.81.14 13.81-1.99 20.35-1.06 4.12-4.24 7.17-6.62 10.56-3.82 4.2-7.82 8.5-13.02 10.99-5.64 2.72-11.67 5.32-18.06 5.1-3.54-.41-7.11-.58-10.66-.86 2.64-2.51 6.4-1.29 9.6-2.28 6.22-.81 12.42-3.63 16.13-8.86 3.81-5.77 4.12-12.89 5.34-19.5.71-6.16 1.28-12.34 1.12-18.55-.11-8.28.73-16.86-2-24.82z"/><path d="M314.88 180.78c4.16 7.77 1.79 16.88 2.65 25.27.66 5.44.86 10.93 1.23 16.38 2.97 4.86 7.92 8.15 10.83 13.08-2.1-.1-4.15-.61-6.22-.91-.88.76-1.64 1.65-2.44 2.49-6.02 1.86-11.09 5.76-16.84 8.19-4.63.45-9.28.05-13.91.29-4.37-.3-6.27 4.76-10.1 5.94-2.88.17-5.7-.62-8.49-1.23-.1 1.54-.08 3.09-.19 4.64-2.38-.7-4.69-1.65-7.14-2.05-4.67.15-9.37.97-13.68 2.82-2.18-5.25-.78-11.12-.96-16.64.97-1.51 1.77-3.12 2.18-4.87 1.04-3.29 1.49-6.72 2.23-10.08.67-3.19 2.52-6.2 2.07-9.56-2.8.84-5.84.77-7.83-1.69 3.18-.1 6.36.03 9.53-.19 6.78 3.69 14.73 3.5 22.18 2.67 9.33-1.85 18.01-6.81 24.31-13.94 4.69-6.16 9.88-12.58 10.59-20.61zm-45.53 112c5.04.14 10.08 1.14 14.64 3.36 4.94 2.62 10.77 1.81 15.94 3.75 7.86 2.9 16.53 5.31 22.08 12.06 7.71 6.88 10.87 17.26 12.52 27.15-14.91 13.84-31.69 25.95-50.31 34.28 1.98-2.77 4.88-5.25 5.02-8.89.74-9.73.57-19.58-1.38-29.16-.92-7.03-3.71-13.59-5.71-20.33-.74-2.72-1.67-5.39-3.01-7.88-2.8-5.03-5.55-10.36-9.79-14.34z"/></g><g fill="#600505"><path d="M212.17 1.9c3.57-.18 7.13.23 10.66.73 32.98 3.81 64.87 16.34 91.76 35.79 26.18 18.88 47.56 44.37 61.56 73.46 12.19 24.91 18.74 52.46 19.57 80.15.6 26.56-4.17 53.27-14.16 77.9-10.46 26.09-26.66 49.82-47.03 69.17-1.65-9.89-4.81-20.27-12.52-27.15-5.55-6.75-14.22-9.16-22.08-12.06-5.17-1.94-11-1.13-15.94-3.75-4.56-2.22-9.6-3.22-14.64-3.36-4.77-.21-9.41-1.65-13.72-3.61-3-1.74-5.96-3.56-9.18-4.85-.37-7.5.2-14.98 1.36-22.4 1.32-7.57.29-15.32 1.81-22.87.18 5.52-1.22 11.39.96 16.64 4.31-1.85 9.01-2.67 13.68-2.82 2.45.4 4.76 1.35 7.14 2.05.11-1.55.09-3.1.19-4.64 2.79.61 5.61 1.4 8.49 1.23 3.83-1.18 5.73-6.24 10.1-5.94 4.63-.24 9.28.16 13.91-.29 5.75-2.43 10.82-6.33 16.84-8.19.8-.84 1.56-1.73 2.44-2.49 2.07.3 4.12.81 6.22.91-2.91-4.93-7.86-8.22-10.83-13.08-.37-5.45-.57-10.94-1.23-16.38-.86-8.39 1.51-17.5-2.65-25.27.22-3.82.89-7.66.34-11.48-.67-4.28-2.18-8.34-3.63-12.4.11-3.07-.47-6.08-1.46-8.98-1.97-7.95-3.89-15.91-5.96-23.85-1.23-4.79-.34-10.02-2.58-14.57-2.64-5.65-5.01-11.44-8.18-16.83-2.89-4.98-2.01-10.99-3.5-16.39-3.26-11.35-7.06-23.09-15.33-31.89-4.33-5.65-10.1-9.87-15.22-14.73-3.8-3.31-8.28-5.7-12.16-8.9-7.17-5.82-15.45-10.03-23.69-14.09-3.81-1.52-7.82-2.58-11.34-4.77zm-186 105.35C51.8 57.04 100.29 18.89 155.4 6.65c-4.82 4.64-10.54 8.27-16.5 11.26-3.75 1.84-5.9 5.5-8.49 8.56-2.77 2.21-6.23 3.58-8.41 6.5-3.87 4.01-5.86 9.25-7.52 14.46-1.35 4.93-6.67 6.72-9.38 10.69-3.25 4.52-5.8 9.49-8.68 14.25-2.99 4.8-4.44 10.3-6.36 15.56-3.16 9.18-1.88 19.12-4.42 28.43-1.4 4.42-1 9.05-1.23 13.61-1.2 7.31-.76 14.76-1.96 22.07-1.24 6.91-.7 13.95-1.7 20.88-.36 11.76-3.49 23.29-3.2 35.1.24 7.65-.55 15.36.57 22.97.55 4.11.07 8.43 1.79 12.32 2.13 4.86 2.8 10.4 6.09 14.69 2.84 3.81 5.38 7.92 8.98 11.08 3.2 3.01 7.72 4.69 9.65 8.91-2.24 4.81-7.55 6.9-10.17 11.4-4.43 6.79-8.91 13.67-11.59 21.37-.93 2.62-2.02 5.19-3.24 7.7-4.04 8.12-5.12 17.28-8.57 25.63-39.97-34.63-64.64-86.18-66.61-139.03-1.49-33.74 6.13-67.85 21.72-97.81zm175.68-63.59c6.47 1.4 11.25 6.58 15.69 11.15l-1.4-.66c.74 1.56 1.47 3.11 2.19 4.68-3.2-2.64-5.25-6.4-8.6-8.86-2.67-2.04-5.29-4.16-7.88-6.31z"/><path d="M219.23 59.78c7.39 5.73 10.76 14.99 15.74 22.63l1.63.2c-.72 1.1-1.44 2.21-2.13 3.34.98 2.11 2.03 4.18 3.16 6.21 1.8-1.93 3.81-3.66 5.99-5.17-.05 2.25-1.96 3.52-3.21 5.12-.33 2.82.91 5.59 1.39 8.35-1.41-.92-2.84-1.79-4.37-2.48.53 2.2 1 4.44.98 6.73-2.46-2.09-1.85-5.43-2.12-8.27.47-.32 1.43-.96 1.9-1.27-.97-.96-2.3-1.69-2.83-3-.6-1.24-.7-3.07-2.48-3.02.93-1.93 1.49-4.02 1.91-6.11-4.95-7.92-9.56-16.07-15.56-23.26zM139.98 83.6c.57-3.19.74-6.44 1.52-9.6-.25 8.68.15 17.35 0 26.02-.16 1.56.59 2.92 1.32 4.22.63-.67 1.26-1.33 1.89-1.99-.71 3.62-.02 7.2.68 10.75.01 7.37-.2 14.75-.09 22.13-2.62-5.31-2.16-11.53-3.18-17.17-.62-.3-1.85-.89-2.47-1.19-.08 4.83-.67 9.62-1.21 14.41-.4-5.41-1.73-10.92-.37-16.31 1.29-5.25-.22-10.7.98-15.96 1.15-5.04-.04-10.25.93-15.31zm119.74 7.55c3.16-1.17 6.52-.57 9.62.49.25 3.07.58 6.27-.74 9.16-.04-1.82-.05-3.65-.06-5.47l-2.13.4c.01-.73.02-2.18.03-2.91-2.22-.65-4.43-1.36-6.72-1.67zm-11.6 32.26 2.28.28 1.69 1.99c1.41 4.16 6.37 5.23 9.38 7.98 4.41 2.7 4.9 8.57 4 13.16-1.3 2.54-2.23 5.23-2.32 8.12-.97-1.1-1.64-3.15-3.54-2.61-.33 1.15-.38 2.36-.49 3.55-1.17-1.24-2.61-2.41-2.78-4.23 2.6-.06 6.26.77 7.2-2.52.68-2.56-3.17-2.12-4.5-3.17 1.46-.21 2.91-.41 4.38-.53 2.74-4.81-1.28-9.32-4.59-12.53-2.5-1.99-5.18-3.79-7.22-6.29-1.42-.76-2.63-1.85-3.49-3.2zm-118.48 12.91c.79-.76 1.6-1.52 2.41-2.26.82 2.98-.69 5.87-.65 8.85 0 5.37.11 10.75-.18 16.12-1.09-7.53-2.12-15.08-1.58-22.71zm90.93-1.45c1.43.89.94 2.79.21 3.99-1.23 1.94-2.23 4.48-4.67 5.13.67-1.76 1.35-3.52 1.79-5.36h2.75l-.08-3.76zm-33.8 1.54c.57-.07 1.71-.22 2.28-.3-1.15 3.76-3.79 6.96-4.09 10.99-.83.17-1.66.35-2.49.53 1.01-2.06 1.33-4.32 1.38-6.59 1.51-1.16 2.29-2.88 2.92-4.63z"/><path d="M214.12 137.96c.97-.68 1.99-1.31 3.01-1.91-.75 3.38-5.21 6.04-2.74 9.62-.55-.47-1.08-.95-1.63-1.39-1.24-.22-2.47-.41-3.7-.58-.82 1.66-1.59 3.35-2.4 5.02-.9-.15-2.7-.43-3.61-.57.16.84.49 2.53.65 3.37-1.52-.03-3.04-.05-4.55-.04-1.23 1.34-2.72 2.37-4.29 3.27-.1-.66-.31-1.98-.41-2.64-3.73 1.85-8.4 2.13-11.31-1.41.17 2.46.3 4.94.53 7.41-.7-2.51-1.29-5.04-1.6-7.62 3.96-1.72 7.97.15 12.02-.14-1.69-1.1-3.52-2.02-5.02-3.39-.87-.73-2.78-2.91-.48-2.98 3.39 1.98 7.13 3.25 10.56 5.15 2.79-2.02 5.86-3.61 9.07-4.85.11-2.3.26-4.61.3-6.92l1.06-.02c-.09 1.65-.15 3.31-.2 4.96 1.88-1.09 3.42-2.63 4.74-4.34zm42.37 10.54c.33-.32 1.01-.96 1.34-1.28-.41.96-.12 2.52-1.4 2.86-2.53.72-3.58 3.2-5.14 5.05.21-1.64-.1-3.49.73-4.98 1.2-1.1 2.98-1.16 4.47-1.65zm11.79 9.49c2.84.93 5.62 2.06 8.46 2.99 1-1.15 2.25-2.25 3.84-1.33-.78.88-1.53 1.78-2.25 2.71-.27 2.4 1.37 4.68.91 7.1-.7 2.59-2.16 4.94-2.54 7.62-.39 1.77-.21 3.88-1.67 5.22-2.03 2.4-5.63 2.68-7.39 5.38.05-.59.14-1.78.19-2.38-7.58-.35-15.34 1.1-22.74-.92-1.52.25-3.01.61-4.48 1.08l-.6-2.31c.85.09 2.56.28 3.42.37 2.7-2.41 4.54-5.55 5.51-9.02 2.75-3.68 4.75-8.03 8.28-11.07 1.72-1.58 4.21-.7 6.28-.76.49-1.26.99-2.52 1.47-3.79 1.1-.29 2.2-.6 3.31-.89zM86.43 195.84c1.35 3.03.9 6.47 1.96 9.58 1.26 4.01 2.84 7.94 3.76 12.06.57 3.57-.37 7.36 1.18 10.77a50.07 50.07 0 0 1 3.38 12.84c3.47 8.15 7.79 15.95 13.04 23.11 3.44 2 5.86 5.17 9.02 7.53-4.69 2.52-9-1.51-12.78-3.82-6.06-3.71-12.38-8.52-13.95-15.87-4.53-8.26-5.62-17.79-6.54-27.02.1-8.04-.46-16.14.81-24.1.16-1.69.09-3.39.12-5.08zm115.2 9.12c2.21.75 4.77 2.58 6.68.14 13.21 4.04 27.01 5.26 40.68 6.67 2.92.34 6-.15 8.81.89-3.17.22-6.35.09-9.53.19 1.99 2.46 5.03 2.53 7.83 1.69.45 3.36-1.4 6.37-2.07 9.56-.74 3.36-1.19 6.79-2.23 10.08-.22-.53-.67-1.58-.9-2.11-.66-.21-1.99-.61-2.65-.81.1 1.65.23 3.3.34 4.96-1.24-1.17-2.49-2.34-3.73-3.5-2.26-.13-4.38-.85-6.33-1.97.77-.05 2.3-.16 3.06-.21.03-1.89.07-3.77.1-5.66-3.07-.75-5.59-2.61-7.55-5.05-4.42-.39-8.2-3.03-12.57-3.61-.77-.93-1.52-1.88-2.27-2.82l-2.34-.08c-1.92-3.31-5.51-4.82-8.9-6.19.17 2.55 2.49 3.83 4.11 5.39-1.11-.04-3.33-.13-4.44-.17 2.16 4.67 4.67 9.17 7.6 13.41.53.2 1.59.61 2.12.81.51 1.06 1.02 2.12 1.53 3.19-.54.97-1.07 1.95-1.6 2.93-.52-.38-.99-.82-1.45-1.25 2.08-2.85-2.43-3.6-3.35-5.9-2.58-5.22-6.11-9.88-9.3-14.74l1.48-1.4c-1.05-1.48-2.07-2.97-3.13-4.44m44.4 22.28c.05 2.91 3.5 2.63 5.36 3.71 1.2-.8.17-2.52.16-3.62-1.84-.03-3.68-.07-5.52-.09zm-11.41 14.48.79-.16c-.06.24-.16.73-.22.97 1.87.49 3.74.98 5.6 1.52-2.55.81-5.2 1.2-7.86 1.3.54-1.22 1.09-2.44 1.69-3.63zm-29.14 16.09c4.11.44 6.97-2.83 10.7-3.73.65.07 1.94.22 2.58.29-.06.46-.17 1.39-.23 1.86-1.81-.01-3.63-.01-5.44.03-1.53 1.24-3.3 2.09-5.17 2.67-.72 1.51-2.27 1.71-3.74 1.91.41-1.02.85-2.03 1.3-3.03zm-24.76 22.07c2.95-1.66 5.76-3.7 9.32-3.78-2.42 2.61-5.31 4.91-9.14 4.24-1.01.79-2.01 1.6-3.01 2.41-3.67-.29-7.29-.94-10.89-1.68l.39 2.02c-.78-.84-1.57-1.66-2.36-2.47 5.23-.31 10.46-.69 15.69-.74zm98.42 27.24c1.34 2.49 2.27 5.16 3.01 7.88-.24-.71-.71-2.13-.95-2.84-3.99.43-7.69 2.04-11.45 3.31-5.07 1.13-7 6.74-11.74 8.57 1.61-1.45 3.29-2.82 4.97-4.2.67-1.78 1.15-3.91 3.08-4.74 4.32-2.34 9.44-2.07 14.1-3.33-.32-1.56-.66-3.11-1.02-4.65z"/></g><g fill="#b5795c"><path d="M186.11 37.11c5.52 1.48 10.7 3.9 15.74 6.55 2.59 2.15 5.21 4.27 7.88 6.31 3.35 2.46 5.4 6.22 8.6 8.86-.72-1.57-1.45-3.12-2.19-4.68l1.4.66c7.64 7.5 15.43 14.85 22.21 23.15-1.02 1.57-2.13 3.08-3.15 4.65l-1.63-.2c-4.98-7.64-8.35-16.9-15.74-22.63 6 7.19 10.61 15.34 15.56 23.26-.42 2.09-.98 4.18-1.91 6.11 1.78-.05 1.88 1.78 2.48 3.02.53 1.31 1.86 2.04 2.83 3-.47.31-1.43.95-1.9 1.27.27 2.84-.34 6.18 2.12 8.27.02-2.29-.45-4.53-.98-6.73 1.53.69 2.96 1.56 4.37 2.48-.48-2.76-1.72-5.53-1.39-8.35 1.25-1.6 3.16-2.87 3.21-5.12l.32-1.16c2.77 2.51 4.81 5.66 5.99 9.21-1.5 1.56-3 3.13-4.52 4.69-.25 3.65-.19 7.31-.07 10.97.57-.91 1.71-2.73 2.27-3.64 1.24.63 2.49 1.25 3.74 1.87.29.45.88 1.34 1.18 1.79 1.56-.15 3.12-.29 4.69-.44 1.05-1.22 2.07-2.46 3.11-3.69 3.43-.16 6.56-2.33 6.82-5.97l1.45.18c-.42 1.25-1.26 3.75-1.67 5.01 1.79-.62 3.01-1.8 3.67-3.55 1.13.13 3.39.37 4.53.5-.71-.36-2.12-1.07-2.83-1.43.16-1.61.3-3.22.44-4.83l2.31-.06c1.36 3.23 4.96 4.82 6.16 8.21 4.79 10.45 10.38 21.02 11.41 32.65 3.14.26 6.02 1.73 8.32 3.84 5.02 4.1 7.91 10.04 10.65 15.76 1.45 4.06 2.96 8.12 3.63 12.4.55 3.82-.12 7.66-.34 11.48-.71 8.03-5.9 14.45-10.59 20.61-6.3 7.13-14.98 12.09-24.31 13.94-7.45.83-15.4 1.02-22.18-2.67-2.81-1.04-5.89-.55-8.81-.89-13.67-1.41-27.47-2.63-40.68-6.67-4.93-1.28-9.21-4.22-12.83-7.73-.75.06-1.49.13-2.23.2-1.55-2.09-3.09-4.23-3.86-6.74-3.65-10.55-3.33-21.9-5.72-32.72-.23-2.47-.36-4.95-.53-7.41 2.91 3.54 7.58 3.26 11.31 1.41.1.66.31 1.98.41 2.64 1.57-.9 3.06-1.93 4.29-3.27 1.51-.01 3.03.01 4.55.04-.16-.84-.49-2.53-.65-3.37.91.14 2.71.42 3.61.57.81-1.67 1.58-3.36 2.4-5.02 1.23.17 2.46.36 3.7.58.55.44 1.08.92 1.63 1.39-2.47-3.58 1.99-6.24 2.74-9.62-1.02.6-2.04 1.23-3.01 1.91l.84-1.39c-.89-.14-2.67-.42-3.55-.56 1.38-.67 2.77-1.34 4.16-2.01-2.86-1.35-5.75-2.79-8.97-2.93.04.67.1 2.01.14 2.67-.7-.87-1.85-1.76-1.2-3.01 1.69-1.16 3.81-1.12 5.76-1.46l1.72 2.84c.28-.61.83-1.85 1.1-2.47 2.07-.5 4.16-.94 6.27-1.25-2.09-.6-3.89-1.82-5.5-3.24.39-.43 1.17-1.29 1.57-1.72 2.26-13.71 1.38-27.98-2.84-41.24-2.27-9.06-7.03-17.19-11.57-25.26-4.45-6.48-9.15-12.94-15.34-17.89l-.6-1.93m62.01 86.3c.86 1.35 2.07 2.44 3.49 3.2 2.04 2.5 4.72 4.3 7.22 6.29 3.31 3.21 7.33 7.72 4.59 12.53-1.47.12-2.92.32-4.38.53 1.33 1.05 5.18.61 4.5 3.17-.94 3.29-4.6 2.46-7.2 2.52.17 1.82 1.61 2.99 2.78 4.23.11-1.19.16-2.4.49-3.55 1.9-.54 2.57 1.51 3.54 2.61.09-2.89 1.02-5.58 2.32-8.12.9-4.59.41-10.46-4-13.16-3.01-2.75-7.97-3.82-9.38-7.98l-1.69-1.99-2.28-.28m-27.55 11.46.08 3.76h-2.75c-.44 1.84-1.12 3.6-1.79 5.36 2.44-.65 3.44-3.19 4.67-5.13.73-1.2 1.22-3.1-.21-3.99m71.94 4.35c2.73 7.96 1.89 16.54 2 24.82.16 6.21-.41 12.39-1.12 18.55-1.22 6.61-1.53 13.73-5.34 19.5-3.71 5.23-9.91 8.05-16.13 8.86-3.2.99-6.96-.23-9.6 2.28 3.55.28 7.12.45 10.66.86 6.39.22 12.42-2.38 18.06-5.1 5.2-2.49 9.2-6.79 13.02-10.99 2.38-3.39 5.56-6.44 6.62-10.56 2.13-6.54 2.37-13.54 1.99-20.35-1.16-5.27-3.68-10.11-5.67-15.09-3.07-5.69-7.79-11.6-14.49-12.78m-36.02 9.28c-1.49.49-3.27.55-4.47 1.65-.83 1.49-.52 3.34-.73 4.98 1.56-1.85 2.61-4.33 5.14-5.05 1.28-.34.99-1.9 1.4-2.86-.33.32-1.01.96-1.34 1.28m11.79 9.49c-1.11.29-2.21.6-3.31.89-.48 1.27-.98 2.53-1.47 3.79-2.07.06-4.56-.82-6.28.76-3.53 3.04-5.53 7.39-8.28 11.07-.97 3.47-2.81 6.61-5.51 9.02-.86-.09-2.57-.28-3.42-.37l.6 2.31c1.47-.47 2.96-.83 4.48-1.08 7.4 2.02 15.16.57 22.74.92-.05.6-.14 1.79-.19 2.38 1.76-2.7 5.36-2.98 7.39-5.38 1.46-1.34 1.28-3.45 1.67-5.22.38-2.68 1.84-5.03 2.54-7.62.46-2.42-1.18-4.7-.91-7.1.72-.93 1.47-1.83 2.25-2.71-1.59-.92-2.84.18-3.84 1.33-2.84-.93-5.62-2.06-8.46-2.99z"/><path d="M177.56 42.91c2.2 3.61 6.13 5.74 7.88 9.67 3.81 5.29 7.14 10.89 10.81 16.27.39 2.29.81 4.8 2.65 6.42-.4-1.75-1.03-3.43-1.64-5.11 2.3-.29 2.7 2.2 3.75 3.58 5.07 8.17 8.05 17.4 10.72 26.57-.5.31-1.49.91-1.99 1.22-5.86 1.35-11.99 1.83-17.51 4.37-1.8.65-3.63 1.19-5.45 1.76.22-13.12-2.74-26.07-2.19-39.19h-1.16c-.02-1.17-.03-2.33-.06-3.5-1.97-4.05-2.68-8.65-2.94-13.12-1.45-1.41-.64-3.58-.8-5.34l-1.85-1.45c-.05-.54-.17-1.61-.22-2.15zm39.43 1.37c3.23-.14 4.92 3.04 7.54 4.37 9.25 5.28 16.52 13.28 23.2 21.42.32 2.49-3.73 5.42-5.11 2.4-1.85-3.67-5.38-6.28-6.66-10.23.82.06 2.47.18 3.3.23-1.69-.55-3.51-.65-5.17-1.28-2.99-3.47-6.25-6.69-9.34-10.07-2.34-2.56-5.47-4.23-7.76-6.84zm31.15 36.33c2.01-1.44 4.01-2.99 6.44-3.65-.03.61-.11 1.82-.14 2.42l1.37.09c-.09 1.81-.17 3.62-.24 5.43-.5-.14-1.5-.43-2-.58-.45 2.26-1.37 4.39-2.47 6.4-1.93-3-2.07-6.72-2.96-10.11zm-44.13 32.91c2.37.62 4.99-2.61 6.9-.04l1.52-.08c.07 4.06.12 8.13-.09 12.19-2.26.11-4.52.11-6.77-.13-1.18.62-1.8 1.77-2.41 2.89-3.76-.05-6.83 2.63-9.53 4.94-1.88.98-4.23 2.3-5.64-.14-.9.64-1.79 1.29-2.68 1.94-.46-5.47 1.54-10.72 1.32-16.2 5.61-2.25 11.08-6.07 17.38-5.37zm-7.97 91.79c.95.03 1.9.09 2.85.18 1.4 1.83 2.9 3.57 4.39 5.31 3.19 4.86 6.72 9.52 9.3 14.74.92 2.3 5.43 3.05 3.35 5.9-8.21-7.25-16.43-15.46-19.89-26.13z"/><path d="M208.06 207.13c3.39 1.37 6.98 2.88 8.9 6.19l2.34.08c.75.94 1.5 1.89 2.27 2.82 4.37.58 8.15 3.22 12.57 3.61 1.96 2.44 4.48 4.3 7.55 5.05-.03 1.89-.07 3.77-.1 5.66-.76.05-2.29.16-3.06.21 1.95 1.12 4.07 1.84 6.33 1.97 1.24 1.16 2.49 2.33 3.73 3.5-.11-1.66-.24-3.31-.34-4.96.66.2 1.99.6 2.65.81.23.53.68 1.58.9 2.11-.41 1.75-1.21 3.36-2.18 4.87-1.52 7.55-.49 15.3-1.81 22.87-1.16 7.42-1.73 14.9-1.36 22.4 3.22 1.29 6.18 3.11 9.18 4.85 4.31 1.96 8.95 3.4 13.72 3.61 4.24 3.98 6.99 9.31 9.79 14.34.36 1.54.7 3.09 1.02 4.65-4.66 1.26-9.78.99-14.1 3.33-1.93.83-2.41 2.96-3.08 4.74-1.68 1.38-3.36 2.75-4.97 4.2 4.74-1.83 6.67-7.44 11.74-8.57 3.76-1.27 7.46-2.88 11.45-3.31.24.71.71 2.13.95 2.84 2 6.74 4.79 13.3 5.71 20.33 1.95 9.58 2.12 19.43 1.38 29.16-.14 3.64-3.04 6.12-5.02 8.89-.72 1.03-2.12 1.08-3.17 1.6-3.63 1.19-7.05 2.9-10.47 4.56-15.54-.14-28.75-9.42-40.21-18.96-6.46-4.81-11.11-11.47-16.84-17.04-3.91-3.84-7.29-8.16-10.59-12.53-3.87-5.32-8.83-9.76-12.66-15.12-3.77-5.26-7.47-10.57-11.13-15.9-2.07-3.53-4.86-6.71-5.96-10.71-1.96-2.04-3.94-4.06-5.8-6.19l-.39-2.02c3.6.74 7.22 1.39 10.89 1.68 1-.81 2-1.62 3.01-2.41 3.83.67 6.72-1.63 9.14-4.24 1.13-.64 2.26-1.3 3.39-1.95.02-.62.08-1.87.11-2.49 1.28.72 2.56 1.45 3.85 2.18.01-.86.04-2.58.05-3.44 2.45.11 4.93.35 7.24 1.25-.05-.91-.13-2.74-.17-3.66-4.9-.74-8.57-4.43-11.75-7.93 3.48 1.2 6.49 3.86 10.34 3.72.27-.74.81-2.2 1.08-2.94 1.47-.2 3.02-.4 3.74-1.91 1.87-.58 3.64-1.43 5.17-2.67 1.81-.04 3.63-.04 5.44-.03.06-.47.17-1.4.23-1.86-.64-.07-1.93-.22-2.58-.29-4.49-.39-8.51-2.54-12.43-4.6 6.41 1.72 13.02 2.44 19.65 1.96.29-.48.87-1.45 1.15-1.93 2.66-.37 5.3-.87 7.9-1.54-3.61-.95-7.35-1.13-11.02-1.73-2.92-.77-5.76-1.84-8.67-2.65 2.76.01 5.52.31 8.18 1.11 3.88 1.21 7.99.78 11.99.65 2.66-.1 5.31-.49 7.86-1.3-1.86-.54-3.73-1.03-5.6-1.52.06-.24.16-.73.22-.97 2.65-.29 5.44-.67 7.26-2.85-3.6-.16-7.29.48-10.81-.51-1.89-.52-3.83-.79-5.79-.81-3.04-1.29-6.07-2.67-8.69-4.7.53-.98 1.06-1.96 1.6-2.93-.51-1.07-1.02-2.13-1.53-3.19-.53-.2-1.59-.61-2.12-.81-2.93-4.24-5.44-8.74-7.6-13.41 1.11.04 3.33.13 4.44.17-1.62-1.56-3.94-2.84-4.11-5.39z"/><path d="M246.03 227.24c1.84.02 3.68.06 5.52.09.01 1.1 1.04 2.82-.16 3.62-1.86-1.08-5.31-.8-5.36-3.71zm-45.1 10.13c3.37.58 6.51 1.97 9.58 3.45.03.52.1 1.57.14 2.1-3.98-.64-6.11-4.29-9.72-5.55z"/></g></svg>