<svg width="400pt" height="400pt" viewBox="0 0 400 400" xmlns="http://www.w3.org/2000/svg"><g fill="#fff"><path d="M0 0h194.17c-2.49.07-4.98.42-7.44.78-2.72.4-5.48.44-8.22.55-2.62.2-5.21.58-7.8.99-7.57 1.31-15.18 2.6-22.54 4.89-37.16 10.05-71.13 31.58-96.14 60.85-23.53 27.35-39.11 61.42-44.48 97.09-7.28 46.26 3.54 94.85 28.96 134.1l.72 1.12c1.24 1.82 2.52 3.61 3.73 5.46.97 1.48 2 2.92 3.07 4.34.59.76 1.17 1.52 1.76 2.3a194.832 194.832 0 0 0 33.46 33.9c1.62 1.16 3.29 2.26 4.93 3.39l1.01.93c34.8 25.7 78.62 38.84 121.8 37.03 46.19-1.87 91.47-20.91 124.98-52.78 12.96-12.47 24.5-26.54 33.53-42.12 2.33-4.27 4.77-8.47 6.98-12.79.34-.71.68-1.42 1.01-2.13 13.3-27.94 20.1-59.01 19.08-89.97-1.19-35.86-12.47-71.37-32.47-101.18-21-31.64-51.55-56.84-86.62-71.41C251.4 6.07 227.59 1.23 203.72 0H400v400H0V0z"/><path d="M185.88 154.18c3.08-5.85 8.52-9.95 14.62-12.27.29 1.52.59 3.05.89 4.57 2.23-.18 4.4.18 6.09 1.76-.05.53-.15 1.58-.21 2.1-.32.51-.97 1.52-1.29 2.03l-3.73.09c1.11 2.24 1.87 4.75 3.59 6.63 1.89 1.5 4.29 2.2 6.65 2.6-2.77 1.68-6.14.97-9.17.73-3.7-.58-7.45-.73-11.17-.44-1.63-.66-3.32-1.12-5.03-1.5-.92-1.96-2.16-4.09-1.24-6.3zm44.48-8.84c1.49.96 3.01 1.89 4.65 2.6-1.78 4.48-5.23 8.07-9.09 10.84l.54-1.09c2.79-3.51 3.93-7.92 3.9-12.35zm-126.61 6.63c4.25-2.31 8.54-5.73 13.72-4.61l-.88 3.09c2.29-.38 5.67-.34 6 2.63.69 2.66-2.74 2.43-4.43 2.7 1.33 3.49 3.29 6.69 5.79 9.46 1.08.34 2.17.67 3.26 1-6.55 1.15-13.21-1.19-18.56-4.89-2.4-2.63-3.38-6.21-4.9-9.38zm39.64 1.31c.2.87.34 1.74.42 2.64-.06 1.73.81 3.88-.65 5.26-1.16 1.1-2.76 1.55-4.16 2.26 3.22-2.41 1.62-6.85 4.07-9.63.08-.13.24-.4.32-.53zm127.35 46.17c1.02-.43 2.04-.86 3.07-1.29-2.17 3.89-4.17 7.88-5.57 12.12.23-2.09.44-4.17.65-6.25.56-1.55 1.21-3.06 1.85-4.58zm-110.8 24.61c4-1.75 8.62-.06 12.63 1.02l.57.48c-.28.72-.57 1.44-.89 2.15-6.31 1.29-12.9 2.39-19-.49 1.65-.89 3.42-1.51 5.19-2.13.37-.26 1.12-.77 1.5-1.03z"/></g><g fill="#e16f53"><path d="M194.17 0h9.55c23.87 1.23 47.68 6.07 69.76 15.34 35.07 14.57 65.62 39.77 86.62 71.41 20 29.81 31.28 65.32 32.47 101.18 1.02 30.96-5.78 62.03-19.08 89.97-5.16-6.02-9.61-12.61-14.86-18.57-1.63-1.69-2.53-3.95-2.07-6.31 1.75-14.34 1.32-29-2.03-43.09-1.65-9.21-4.02-18.29-7.47-27-2.48-5.87-4.03-12.15-7.33-17.66-4.14-7.01-7.83-14.27-11.66-21.45-4.07-7.48-6.53-15.74-11.15-22.94-4.67-10.66-6.6-22.31-11.18-33.02-3.43-13.34-10.67-25.21-17.85-36.8-4.84-9.07-11.24-17.22-18.11-24.83-6.5-5.75-14.24-9.93-21.69-14.32-12.86-6.24-28.22-8.86-42.04-4.42-5.02-3.59-11.17-4.48-17.12-5.22-.55-.37-1.65-1.12-2.2-1.49 2.46-.36 4.95-.71 7.44-.78zm-23.46 2.32c2.59-.41 5.18-.79 7.8-.99.62.54 1.86 1.61 2.49 2.15-10.14 1.14-20.42 2.52-29.83 6.67-4.59 1.98-8.6 5.14-13.41 6.62 8.3-8.74 20.53-12.7 32.3-13.7.16-.19.49-.56.65-.75z"/><path d="M52.03 68.06c25.01-29.27 58.98-50.8 96.14-60.85-8.27 4.17-15.16 10.6-21.48 17.28-7.03 7.36-15 13.85-21.22 21.96-5.05 5.7-10.01 11.62-13.08 18.68-3.86 6.89-4.82 15.15-9.73 21.49-1.7 2.34-3.03 4.93-4.25 7.54-7.81 16.44-12.49 34.63-12.04 52.9.3 18.96 6.3 37.18 8.05 55.97.26 2.37-.23 4.75-1.1 6.96-2.05 5.31-4.12 10.62-6.15 15.95-2.44 6.43-5.89 12.42-8.36 18.84-3.37 9.71-8.86 18.6-11.34 28.63-1.54 5.4-2.27 11-3.59 16.45-1.76 3.61-5.13 6.1-7.37 9.39C11.09 260 .27 211.41 7.55 165.15c5.37-35.67 20.95-69.74 44.48-97.09z"/><path d="M154.99 44.43c4.06.14 8.1-1.13 12.11.14 4.94-.97 10.73-2.13 14.81 1.75-6.82-.07-14.34-2.8-20.64.9-4.1 2.11-8.35 3.9-12.68 5.47-7.13 2.5-13.27 7.17-18.62 12.41-4.51 4.46-10.33 7.67-13.61 13.28-5.36 9.41-12.34 18.02-15.6 28.5-.89 3.6-1.78 7.21-3.21 10.64.6-.11 1.79-.35 2.38-.46-1.42 1.52-2.99 2.89-4.65 4.14 3.24-11.92 6.37-24.03 12.16-35.03 7.23-12.18 15.23-24.28 26.23-33.41 6.31-4.3 13.39-8.64 21.32-8.33zm32.08 2.53c4.23.89 6.97 4.37 10.35 6.74 12.95 10.65 22.1 24.94 30.8 39.06 2.46 4.27 5.77 8.07 7.54 12.7-4.03-5.07-7.22-10.77-11.61-15.57-5.19-5.83-8.62-13.04-14.18-18.54l-.53 1.6c-3.72-4.84-5.85-10.79-10.4-15.02-3.37-4.31-7.37-8.01-11.97-10.97zM80.72 92c.94-1.86.72-5.09 3.52-5.02.32 3.1-1.02 6.21-1.22 9.34-.61 5.62-1.24 11.23-2.45 16.76-1.72 8.19-.23 16.6-1.48 24.84-2.52 20.31-.44 40.9-2.76 61.21-1.78-5.93-2.01-12.16-3.32-18.19-.87-3.95-1.6-7.94-2.07-11.96-1.24-6.92-2.64-13.89-2.56-20.95-.11-4.14-1.26-8.31.07-12.37C70.27 120.6 74.4 105.8 80.72 92zm235.82 30.88c4.52 4.47 4.73 11.56 7.95 16.91 3.97 6.28 6.3 13.4 10.11 19.76 11.81 19.91 17.35 42.79 20.71 65.49.47 9.39.67 18.82-.77 28.14-4.25-5.13-7.75-10.87-11.26-16.53-.32-.2-.96-.61-1.29-.82 2.53 6.7 7.05 12.37 10.94 18.3 2.72 3.93 1.19 8.96 1.23 13.39-3-2.12-3.4-6.22-5.17-9.24-3.08-9.5-8.88-18.2-9.67-28.34-.88-3.01-2.63-5.68-3.62-8.65-1.8-5.32-2.62-10.9-4.28-16.25-2.41-8.18-2.95-16.73-4.52-25.08-1.35-7.01-2.65-14.03-4.31-20.97-1.61-10.02-2.74-20.15-5.46-29.95-.58-2-.7-4.09-.59-6.16zm-180.16 2.61c2.25 1.48 4.82 2.26 7.51 2.38 4.46 7.95 7.13 17.19 5.29 26.31-1.32.21-2.65.24-3.97.31-.35.36-1.05 1.07-1.4 1.43-.08-.9-.22-1.77-.42-2.64-1.89-3.78-4.51-7.15-7.24-10.37-3.67-4.44-9.41-6.17-14.55-8.29 1.43-1.01 2.78-2.22 4.45-2.84 5.29.19 10.29 2.31 14.78 5l-.04-2.21-1.99-.21c-.59-3.01-1.44-5.97-2.42-8.87zm85.11 5.03c5.08-2.88 10.54.37 14.36 3.74 1.73 2.14.52 4.7-1.39 6.19-2.58-2.55-6.11-3.54-9.47-4.56l-.58-.78.82-.5c.69-.38 2.06-1.14 2.74-1.52-2.13-.93-4.28-1.83-6.48-2.57zM248 128.4c3.84 3.78 9.05 6.66 10.76 12.11 3.86 8.38 4.46 17.63 4.79 26.71.9-2.07.41-5.06 2.67-6.24 1.56 10.95 1.21 22.11.1 33.09-.16 1.42.02 3.01-.98 4.19.32-11.43.69-22.88.18-34.32-.32 12.42-1.29 24.94-4.29 37.03-.44-2.52 1.79-6.76-1.31-7.86 1.43-11.67 3.77-23.53 1.58-35.27-1.82-7.32-5.55-14.08-10.15-20.03-1.73-2.83-4.59-5.82-3.35-9.41zm-154.3 3.02.7-.1c.02 3.91-.61 7.78-.93 11.67-.42 5.06.87 10.03 1.38 15.04.56 4.69.36 9.45 1.11 14.12 2.33 11.18 1.24 22.84 4.28 33.9 1.31 5.86 3.61 11.43 5.63 17.08 2.87 7.82 7.81 14.64 12.81 21.22 9.33 12.46 22.46 21.54 36.41 28.16 9.62 4.68 21 3.83 30.95.66 13.12-3.22 24.65-10.53 36.32-17.04 14.01-8.12 25.13-20.33 33.94-33.76.03 2.74-.04 5.79-1.83 8.04-2.06 2.92-5.32 5.6-4.91 9.54.19 3.69-1.43 7.07-3.16 10.21l-.2-2.18c-1.59.8-3.18 1.61-4.76 2.43-1.91 3.07-3.32 6.49-5.63 9.3-2.59 2.47-5.64 4.42-8.15 6.98-2.44 4.42-7.66 5.63-11.53 8.38-3.71 2.23-5.61 6.44-9.29 8.69-9.21 6.19-18.04 12.99-27.9 18.15-5.86 3.76-11.65 7.67-17.39 11.63-.79-.04-1.58-.06-2.37-.09.01 4.08.46 8.27-.71 12.24-1.91 5.23-6.36 9.62-11.89 10.81.32-1.23.66-2.45.99-3.67 5.18-1.76 8.74-7.41 7.75-12.85-.88-6.9-.1-13.9-1.25-20.77-1.11-8.43-.92-17.03-2.86-25.33-6.63-3.17-12.74-7.31-18.77-11.47-5.49-3.68-9.83-8.7-14.45-13.36-5.36-7.32-10.93-14.58-15.06-22.7-.52-1.13-.96-2.29-1.39-3.45-1.11-3.22-2.4-6.36-3.53-9.56-1.11-3.16-1.47-6.6-3.19-9.52l-.11-.15c-1.28-1.7-2.58-3.41-3.39-5.4-5.22-9.58-4.1-20.81-3.72-31.29.17-4.39 4.34-7.49 3.97-11.95-.07-7.92 1.02-15.79 2.13-23.61m-3.07 39.6c-.19 5.95-.85 12.13 1.06 17.89.5 1.81.82 3.67 1.1 5.53l1.71.44c-1.7-2.61-.86-5.96-1.51-8.9-.98-4.95-.75-10.15-2.36-14.96zm191.5-28.85c5.19-1.92 11.21-3.59 16.45-.89 6.53 4.27 11.41 11.67 11.09 19.68.43 6.17-1.02 12.22-2.68 18.11-4.19 8.83-10.87 16.53-19.06 21.88-5.45 2.69-11.41 4.25-17.01 6.55.93-1.76 1.69-4.02 3.83-4.61 3.61-1.36 7.39-2.36 10.73-4.38 6.9-3.83 11.9-10.19 16.24-16.62 4.3-7.74 5.86-17.01 4.61-25.76-1.38-5.29-4.92-10.12-9.61-12.95-4.42-1.91-9.96-1.15-13.67 1.96-3.66 2.95-7.22 6.53-8.77 11.08-.43 1.17.72 4 1.83 1.95 3.6-4.16 7.96-8.39 13.83-8.57 2.9-.55 4.9 2.02 6.18 4.23 2.01 3.78 1.82 8.34 1.05 12.44-2.16 8.16-6.83 15.37-11.68 22.17-3.15 4.15-8.78 4.13-13.45 4.85.82-5.78 2.74-11.43 2.5-17.33-.2-7.71-.94-15.43-2.13-23.06 2.77-3.95 5.77-7.89 9.72-10.73z"/><path d="M226.6 175.58c3.45.23 6.74-1.74 10.17-.61.16.6.49 1.82.66 2.43 4.48.3 7.08 5.11 7.41 9.18-2.13 2.18-3.01 5.13-4.62 7.64-2.49 2.81-6.27 3.85-9.48 5.59-5.01 2.57-11.95 2.77-16.11-1.52-2.62-2.39-3.34-5.99-3.41-9.38 1.09-4.28 3.44-8.01 6.74-10.94 2.95-.6 5.53-2.57 8.64-2.39zm-81.84 12.16c2.05-3.24 3.26-7.02 5.91-9.87-.91 5.24-2.76 10.45-2.38 15.82.46 3.3 5.7 2.05 6.25 5.36-2.84 1.82-6.99-.17-9.36-2.24-2.88-2.18-2.08-6.38-.42-9.07zm21.43 7.55c2.91-.79 8.82-1.46 8.94 2.8-2.9.17-5.76-.3-8.62-.67-.08-.53-.24-1.59-.32-2.13zM260.61 211c1.08-3.54 2.17-7.1 3.96-10.36-.66 6.5-2.94 12.65-4.37 18.98-.17.02-.49.07-.66.09.14-3.94-.05-7.9.26-11.84l.27 1c.14.54.41 1.6.54 2.13zm-105.21 3.62c4.54-1.88 9.65-1.33 14.43-.99 6.69 1.73 12.6 5.5 18.39 9.15 1.85 1.17 3.2 2.93 4.82 4.39 1.88.33 3.8.22 5.7.24 0 .53 0 1.59-.01 2.12-1.93.75-3.85 1.52-5.75 2.33-.49 5.48-5.66 8.42-8.6 12.56-5.65 4.49-13.39 4.89-20.31 5.07-6.7.37-13.43-2.86-17.1-8.51-2.09-2.2-2.82-5.11-2.79-8.08-2.84.14-5.79.34-8.43-.92 1.07-2.55 4.01-2.38 6.31-2.8 2.15-6.53 7.47-11.34 13.34-14.56m4.54 9.44c-.5.26-1.49.78-1.99 1.04-.8-.1-2.42-.31-3.23-.41-.54.85-1.08 1.71-1.6 2.58-.15.22-.45.65-.59.87 1.79.02 3.61.02 5.34.57 5.93 2.5 11.87-1.35 17.95-1.19-.83-.68-1.6-1.42-2.35-2.17l-.33.21-.57-.48c-4.01-1.08-8.63-2.77-12.63-1.02zM72.7 213.35l2.09-1c.53 8.02-.97 15.97-2.7 23.77-4.61 14.4-8.6 29.58-18.31 41.55-2.09 2.37-3.71 5.08-5.53 7.64-.49.1-1.45.3-1.93.4 2.74-10.81 5.65-21.67 10.58-31.72 1.98-5 4.47-9.81 5.9-15.01 4.94-7.84 7.32-16.85 9.9-25.63zm178.36 34.77c2.82 16.87 6.38 33.74 12.96 49.6 2.38 6.72 6.39 13.28 12.65 16.99-.31 1.31-.64 2.61-.96 3.93l-.3-.25c-3.37-2.84-6.87-5.66-9.29-9.41-3.79-5.06-5.48-11.25-7.7-17.08-2.38-8.65-5.93-17.03-7-26-.55-4.34-1.61-8.58-2.33-12.88.6-1.66 1.31-3.27 1.97-4.9zm105.47 11.56c3.54 3.15 5.85 7.33 8.87 10.93 2.52 3.01 4.87 6.17 7.08 9.42-2.21 4.32-4.65 8.52-6.98 12.79-3.11-5.17-5.49-10.73-8.26-16.08-2.84-5.34-.82-11.39-.71-17.06zM44.37 299.16c-.21-7.7 5.32-13.82 10.19-19.14-.87 4.12-3.38 7.59-5.28 11.27-1.54 2.67-2.56 5.75-4.91 7.87zm-7.14 1.21c1.74-1.6 3.51-3.17 5.33-4.67.13 3.45-.25 6.93-1.6 10.13-1.21-1.85-2.49-3.64-3.73-5.46zm6.8 9.8c2.04-3.28 4.18-6.5 6.93-9.22-1.37 3.99-3.26 7.77-5.17 11.52-.59-.78-1.17-1.54-1.76-2.3zm35.22 36.2c2.64.35 5.02-.88 7.34-1.95-.5 2.08-.97 4.17-1.4 6.27l-1.01-.93c-1.64-1.13-3.31-2.23-4.93-3.39z"/></g><g fill="#201a1c"><path d="M178.51 1.33c2.74-.11 5.5-.15 8.22-.55.55.37 1.65 1.12 2.2 1.49 5.95.74 12.1 1.63 17.12 5.22 13.82-4.44 29.18-1.82 42.04 4.42 7.45 4.39 15.19 8.57 21.69 14.32 6.87 7.61 13.27 15.76 18.11 24.83 7.18 11.59 14.42 23.46 17.85 36.8 4.58 10.71 6.51 22.36 11.18 33.02 4.62 7.2 7.08 15.46 11.15 22.94 3.83 7.18 7.52 14.44 11.66 21.45 3.3 5.51 4.85 11.79 7.33 17.66 3.45 8.71 5.82 17.79 7.47 27 3.35 14.09 3.78 28.75 2.03 43.09-.46 2.36.44 4.62 2.07 6.31 5.25 5.96 9.7 12.55 14.86 18.57-.33.71-.67 1.42-1.01 2.13-2.21-3.25-4.56-6.41-7.08-9.42-3.02-3.6-5.33-7.78-8.87-10.93-.11 5.67-2.13 11.72.71 17.06 2.77 5.35 5.15 10.91 8.26 16.08-9.03 15.58-20.57 29.65-33.53 42.12-33.51 31.87-78.79 50.91-124.98 52.78-43.18 1.81-87-11.33-121.8-37.03.43-2.1.9-4.19 1.4-6.27-2.32 1.07-4.7 2.3-7.34 1.95a194.832 194.832 0 0 1-33.46-33.9c1.91-3.75 3.8-7.53 5.17-11.52-2.75 2.72-4.89 5.94-6.93 9.22-1.07-1.42-2.1-2.86-3.07-4.34 1.35-3.2 1.73-6.68 1.6-10.13-1.82 1.5-3.59 3.07-5.33 4.67l-.72-1.12c2.24-3.29 5.61-5.78 7.37-9.39 1.32-5.45 2.05-11.05 3.59-16.45 2.48-10.03 7.97-18.92 11.34-28.63 2.47-6.42 5.92-12.41 8.36-18.84 2.03-5.33 4.1-10.64 6.15-15.95.87-2.21 1.36-4.59 1.1-6.96-1.75-18.79-7.75-37.01-8.05-55.97-.45-18.27 4.23-36.46 12.04-52.9 1.22-2.61 2.55-5.2 4.25-7.54 4.91-6.34 5.87-14.6 9.73-21.49 3.07-7.06 8.03-12.98 13.08-18.68 6.22-8.11 14.19-14.6 21.22-21.96 6.32-6.68 13.21-13.11 21.48-17.28 7.36-2.29 14.97-3.58 22.54-4.89-.16.19-.49.56-.65.75-11.77 1-24 4.96-32.3 13.7 4.81-1.48 8.82-4.64 13.41-6.62C160.58 6 170.86 4.62 181 3.48c-.63-.54-1.87-1.61-2.49-2.15m-23.52 43.1c-7.93-.31-15.01 4.03-21.32 8.33-11 9.13-19 21.23-26.23 33.41-5.79 11-8.92 23.11-12.16 35.03 1.66-1.25 3.23-2.62 4.65-4.14 3.34-1.27 5.72-4.23 9.05-5.49 3.59-1.47 7.37.02 11.02.34 4.09.72 8.95 1.06 12 4.15.78 2 1.61 3.98 2.57 5.9l-.44-2.17c-.71-.76-1.01-1.62-.92-2.59 1.51-1.34 2.93.55 4.2 1.3 3.24 2.26 4.85 5.93 6.48 9.37-2.69-.12-5.26-.9-7.51-2.38l-.2-.63c-9.06-5.35-19.64-8.73-30.24-7.23-3.09 1.64-6.07 3.49-9.15 5.18-3.15 1.53-2.03 5.71-2.39 8.51l-.7.1c-1.11 7.82-2.2 15.69-2.13 23.61.37 4.46-3.8 7.56-3.97 11.95-.38 10.48-1.5 21.71 3.72 31.29.02.59.05 1.77.06 2.36-2.34 2.86-3.98 6.29-4.55 9.95-.74 5.89-1.26 12.67 3.09 17.39 1.92 2.82 5.52 2.73 8.54 2.54 1.48-1.4 2.97-2.78 4.47-4.16 4.13 8.12 9.7 15.38 15.06 22.7 4.62 4.66 8.96 9.68 14.45 13.36 6.03 4.16 12.14 8.3 18.77 11.47 1.94 8.3 1.75 16.9 2.86 25.33 1.15 6.87.37 13.87 1.25 20.77.99 5.44-2.57 11.09-7.75 12.85-.33 1.22-.67 2.44-.99 3.67.7 4.15 1.82 8.23 3.81 11.97 3.38 8.2 8.42 16.2 16.08 21 4.58 3.02 10.09 3.97 15.36 5.02 13.81 1.37 28.42 1.91 41.25-4.26 9.43-3.41 17.81-9.24 24.85-16.32 11.07-10.16 21.47-21.58 27.48-35.52l.3.25c.32-1.32.65-2.62.96-3.93-6.26-3.71-10.27-10.27-12.65-16.99-6.58-15.86-10.14-32.73-12.96-49.6-.66 1.63-1.37 3.24-1.97 4.9l-.1-.66c-1.71 5.23-3.11 10.57-4.81 15.81-2.81 8.7-3.95 17.82-4.63 26.91-.16 6.98-.6 14.11 1.43 20.9 1.24 6.35 5.97 11.05 9.01 16.54-6.01-2.46-9.31-8.48-11.7-14.17-2.35-8.55-3.56-17.52-2.07-26.35.56-14.49 5.87-28.17 10.18-41.84 1.73-3.14 3.35-6.52 3.16-10.21-.41-3.94 2.85-6.62 4.91-9.54 1.79-2.25 1.86-5.3 1.83-8.04 1.18-9.75 2.08-19.55 3.62-29.26 3.1 1.1.87 5.34 1.31 7.86-.67 2.58-.98 5.24-1.16 7.9l-.27-1c-.31 3.94-.12 7.9-.26 11.84.17-.02.49-.07.66-.09 1.43-6.33 3.71-12.48 4.37-18.98.2-.37.59-1.12.79-1.5l-.02-.88c1-1.18.82-2.77.98-4.19 1.11-10.98 1.46-22.14-.1-33.09-2.26 1.18-1.77 4.17-2.67 6.24-.33-9.08-.93-18.33-4.79-26.71-1.71-5.45-6.92-8.33-10.76-12.11-11.78-11.73-20.68-25.81-30.13-39.36-5.26-6.01-8.78-13.2-13.3-19.73-5.59-9.25-12.63-18.32-22.66-22.99-4.08-3.88-9.87-2.72-14.81-1.75-4.01-1.27-8.05 0-12.11-.14m32.08 2.53c4.6 2.96 8.6 6.66 11.97 10.97 4.55 4.23 6.68 10.18 10.4 15.02 6.48 10.59 14.66 20.02 20.93 30.74 5.58 7.28 11.01 14.77 17.6 21.18-3.6-6.74-7.85-13.14-12.21-19.41-1.77-4.63-5.08-8.43-7.54-12.7-8.7-14.12-17.85-28.41-30.8-39.06-3.38-2.37-6.12-5.85-10.35-6.74M80.72 92c-6.32 13.8-10.45 28.6-12.27 43.66-1.33 4.06-.18 8.23-.07 12.37-.08 7.06 1.32 14.03 2.56 20.95.47 4.02 1.2 8.01 2.07 11.96 1.31 6.03 1.54 12.26 3.32 18.19 2.32-20.31.24-40.9 2.76-61.21 1.25-8.24-.24-16.65 1.48-24.84 1.21-5.53 1.84-11.14 2.45-16.76.2-3.13 1.54-6.24 1.22-9.34-2.8-.07-2.58 3.16-3.52 5.02m235.82 30.88c-.11 2.07.01 4.16.59 6.16 2.72 9.8 3.85 19.93 5.46 29.95 1.66 6.94 2.96 13.96 4.31 20.97 1.57 8.35 2.11 16.9 4.52 25.08 1.66 5.35 2.48 10.93 4.28 16.25.99 2.97 2.74 5.64 3.62 8.65.79 10.14 6.59 18.84 9.67 28.34 1.77 3.02 2.17 7.12 5.17 9.24-.04-4.43 1.49-9.46-1.23-13.39-3.89-5.93-8.41-11.6-10.94-18.3.33.21.97.62 1.29.82 3.51 5.66 7.01 11.4 11.26 16.53 1.44-9.32 1.24-18.75.77-28.14-3.36-22.7-8.9-45.58-20.71-65.49-3.81-6.36-6.14-13.48-10.11-19.76-3.22-5.35-3.43-12.44-7.95-16.91m-34.41 19.29c-3.95 2.84-6.95 6.78-9.72 10.73 1.19 7.63 1.93 15.35 2.13 23.06.24 5.9-1.68 11.55-2.5 17.33l-.36.04c-.25 2.05-.57 4.09-.94 6.12-.64 1.52-1.29 3.03-1.85 4.58l.07-1.07c-3.18 5.09-2.81 11.36-2.52 17.1.13 4 3.22 6.96 5.94 9.54 2.6-.14 5.8.79 7.71-1.55 4.76-3.82 4.87-10.42 4.44-15.99-.33-2.91-.52-7.23-4.45-7.1 2.61 6.39 3.92 14.49-.98 20.15-1.86 2.45-5.03 1.43-7.21.08-.52-1.78-1.28-3.48-2.22-5.07-.29-4.24-.64-8.66 1.25-12.62 5.6-2.3 11.56-3.86 17.01-6.55 8.19-5.35 14.87-13.05 19.06-21.88 1.66-5.89 3.11-11.94 2.68-18.11.32-8.01-4.56-15.41-11.09-19.68-5.24-2.7-11.26-1.03-16.45.89M72.7 213.35c-2.58 8.78-4.96 17.79-9.9 25.63-1.43 5.2-3.92 10.01-5.9 15.01-4.93 10.05-7.84 20.91-10.58 31.72.48-.1 1.44-.3 1.93-.4 1.82-2.56 3.44-5.27 5.53-7.64 9.71-11.97 13.7-27.15 18.31-41.55 1.73-7.8 3.23-15.75 2.7-23.77l-2.09 1m-28.33 85.81c2.35-2.12 3.37-5.2 4.91-7.87 1.9-3.68 4.41-7.15 5.28-11.27-4.87 5.32-10.4 11.44-10.19 19.14z"/><path d="M186.05 115.02c6.7-2.42 13.65-5.03 20.9-4.65 6.92.07 14.07.51 20.46 3.41 4.51 2 9.36 3.76 12.74 7.52-3.01.91-5.71-1.13-8.51-1.85-5.64-2.17-11.71-2.27-17.62-3.03-13.16.54-26.11 4.27-37.78 10.28.23-5.62 4.76-9.91 9.81-11.68zm.41 21.35c3.84-3.61 8.49-6.33 13.57-7.75 7.18-.77 14.57-.39 21.46 1.9 2.2.74 4.35 1.64 6.48 2.57-.68.38-2.05 1.14-2.74 1.52-9.97-3.68-21.89-5.33-31.63-.14-2.24 1.09-3.98 2.9-5.58 4.76l-1.49.2c-.03-1.02-.05-2.04-.07-3.06zm-86.16 3.59c5.91-4.71 13.88-6.34 21.3-5.34 5.14 2.12 10.88 3.85 14.55 8.29 2.73 3.22 5.35 6.59 7.24 10.37-.08.13-.24.4-.32.53-2.45 2.78-.85 7.22-4.07 9.63-3.7 1.72-7.58 3.64-11.79 2.8-1.09-.33-2.18-.66-3.26-1-2.5-2.77-4.46-5.97-5.79-9.46 1.69-.27 5.12-.04 4.43-2.7-.33-2.97-3.71-3.01-6-2.63l.88-3.09c-5.18-1.12-9.47 2.3-13.72 4.61-3.03 1.95-5.44-1.88-6.86-4.1 4.87-1.87 8.73-5.78 13.85-7.06 5.9-1.95 12.24-1.45 18.23-.22-3.15-1.48-6.35-3.18-9.94-3.19-6.62-.56-12.84 2.28-18.56 5.27-.04-.68-.12-2.03-.17-2.71z"/><path d="M194.59 137.61c9.32-4.89 20.5-4.75 30.4-1.72 3.36 1.02 6.89 2.01 9.47 4.56l.87.75c1.76.1 3.53.15 5.3.19.05.59.16 1.77.21 2.36-1.88 1.48-3.67 3.12-5.83 4.19-1.64-.71-3.16-1.64-4.65-2.6.03 4.43-1.11 8.84-3.9 12.35-2.12 1.89-4.74 2.92-7.48 3.48-.13 1.5 1.44 1.91 2.4 2.66.13.57.37 1.7.5 2.27-1.05-.45-2.1-.92-3.13-1.4-.22-.64-.68-1.91-.9-2.55-1.6-1.21-3.56-.49-5.36-.46-2.36-.4-4.76-1.1-6.65-2.6-1.72-1.88-2.48-4.39-3.59-6.63l3.73-.09c.32-.51.97-1.52 1.29-2.03.06-.52.16-1.57.21-2.1-1.69-1.58-3.86-1.94-6.09-1.76-.3-1.52-.6-3.05-.89-4.57-6.1 2.32-11.54 6.42-14.62 12.27l-2.24 1.84c.47-7.43 4.36-14.7 10.95-18.41zm-94.41 28.79c1.75-2.5 3.54-6.08 7.2-5 .03.41.09 1.23.13 1.65-1.6.85-2.94 2.06-4.1 3.43-1.08-.02-2.15-.05-3.23-.08zm89.07-3.86 2.9-.56c-.49 3.02-2.65 6.39-6.15 5.77.93-1.83 2.05-3.55 3.25-5.21zm10.16 1.02c.77-.26 2.3-.77 3.06-1.03.03 2.73-.59 5.4-1.11 8.07-.47-.07-1.41-.23-1.88-.3-.2-2.25-.2-4.5-.07-6.74zm9.05-.23 3.03.96c-.01 1.54-.02 3.08-.04 4.62-3.09-.13-3.35-3.13-2.99-5.58zm-96.58 1.99c.92.4 2.46.27 2.72 1.52-1.06 1.92-2.22 3.78-3.12 5.78-.57-.01-1.7-.02-2.26-.03.04-2.69 1.15-5.1 2.66-7.27zm12.26 7.51c-1.79-.99-2.34-3.33-1.31-5.06l3 .36c-.42 1.61-1.1 3.14-1.69 4.7zm-32.63 52.53c-2.03-7.14-2.04-15.89 3.2-21.69l.11.15c1.72 2.92 2.08 6.36 3.19 9.52 1.13 3.2 2.42 6.34 3.53 9.56-1.38 1.64-2.55 3.58-4.48 4.64-2.15.4-3.81-1.24-5.55-2.18zm66.44-.26c.5-.26 1.49-.78 1.99-1.04-.38.26-1.13.77-1.5 1.03-1.77.62-3.54 1.24-5.19 2.13 6.1 2.88 12.69 1.78 19 .49.32-.71.61-1.43.89-2.15l.33-.21c.75.75 1.52 1.49 2.35 2.17-6.08-.16-12.02 3.69-17.95 1.19-1.73-.55-3.55-.55-5.34-.57.14-.22.44-.65.59-.87.52-.87 1.06-1.73 1.6-2.58.81.1 2.43.31 3.23.41z"/></g><path d="M161.27 47.22c6.3-3.7 13.82-.97 20.64-.9 10.03 4.67 17.07 13.74 22.66 22.99 4.52 6.53 8.04 13.72 13.3 19.73 9.45 13.55 18.35 27.63 30.13 39.36-1.24 3.59 1.62 6.58 3.35 9.41 4.6 5.95 8.33 12.71 10.15 20.03 2.19 11.74-.15 23.6-1.58 35.27-1.54 9.71-2.44 19.51-3.62 29.26-8.81 13.43-19.93 25.64-33.94 33.76-11.67 6.51-23.2 13.82-36.32 17.04-9.95 3.17-21.33 4.02-30.95-.66-13.95-6.62-27.08-15.7-36.41-28.16-5-6.58-9.94-13.4-12.81-21.22-2.02-5.65-4.32-11.22-5.63-17.08-3.04-11.06-1.95-22.72-4.28-33.9-.75-4.67-.55-9.43-1.11-14.12-.51-5.01-1.8-9.98-1.38-15.04.32-3.89.95-7.76.93-11.67.36-2.8-.76-6.98 2.39-8.51 3.08-1.69 6.06-3.54 9.15-5.18 10.6-1.5 21.18 1.88 30.24 7.23l.2.63c.98 2.9 1.83 5.86 2.42 8.87l1.99.21.04 2.21c-4.49-2.69-9.49-4.81-14.78-5-1.67.62-3.02 1.83-4.45 2.84-7.42-1-15.39.63-21.3 5.34.05.68.13 2.03.17 2.71 5.72-2.99 11.94-5.83 18.56-5.27 3.59.01 6.79 1.71 9.94 3.19-5.99-1.23-12.33-1.73-18.23.22-5.12 1.28-8.98 5.19-13.85 7.06 1.42 2.22 3.83 6.05 6.86 4.1 1.52 3.17 2.5 6.75 4.9 9.38 5.35 3.7 12.01 6.04 18.56 4.89 4.21.84 8.09-1.08 11.79-2.8 1.4-.71 3-1.16 4.16-2.26 1.46-1.38.59-3.53.65-5.26.35-.36 1.05-1.07 1.4-1.43 1.32-.07 2.65-.1 3.97-.31 1.84-9.12-.83-18.36-5.29-26.31-1.63-3.44-3.24-7.11-6.48-9.37-1.27-.75-2.69-2.64-4.2-1.3-.09.97.21 1.83.92 2.59l.44 2.17c-.96-1.92-1.79-3.9-2.57-5.9-3.05-3.09-7.91-3.43-12-4.15-3.65-.32-7.43-1.81-11.02-.34-3.33 1.26-5.71 4.22-9.05 5.49-.59.11-1.78.35-2.38.46 1.43-3.43 2.32-7.04 3.21-10.64 3.26-10.48 10.24-19.09 15.6-28.5 3.28-5.61 9.1-8.82 13.61-13.28 5.35-5.24 11.49-9.91 18.62-12.41 4.33-1.57 8.58-3.36 12.68-5.47m24.78 67.8c-5.05 1.77-9.58 6.06-9.81 11.68 11.67-6.01 24.62-9.74 37.78-10.28 5.91.76 11.98.86 17.62 3.03 2.8.72 5.5 2.76 8.51 1.85-3.38-3.76-8.23-5.52-12.74-7.52-6.39-2.9-13.54-3.34-20.46-3.41-7.25-.38-14.2 2.23-20.9 4.65m.41 21.35c.02 1.02.04 2.04.07 3.06l1.49-.2c1.6-1.86 3.34-3.67 5.58-4.76 9.74-5.19 21.66-3.54 31.63.14l-.82.5.58.78c-9.9-3.03-21.08-3.17-30.4 1.72-6.59 3.71-10.48 10.98-10.95 18.41l2.24-1.84c-.92 2.21.32 4.34 1.24 6.3 1.71.38 3.4.84 5.03 1.5 3.72-.29 7.47-.14 11.17.44 3.03.24 6.4.95 9.17-.73 1.8-.03 3.76-.75 5.36.46.22.64.68 1.91.9 2.55 1.03.48 2.08.95 3.13 1.4-.13-.57-.37-1.7-.5-2.27-.96-.75-2.53-1.16-2.4-2.66 2.74-.56 5.36-1.59 7.48-3.48l-.54 1.09c3.86-2.77 7.31-6.36 9.09-10.84 2.16-1.07 3.95-2.71 5.83-4.19-.05-.59-.16-1.77-.21-2.36-1.77-.04-3.54-.09-5.3-.19l-.87-.75c1.91-1.49 3.12-4.05 1.39-6.19-3.82-3.37-9.28-6.62-14.36-3.74-6.89-2.29-14.28-2.67-21.46-1.9-5.08 1.42-9.73 4.14-13.57 7.75m-86.28 30.03c1.08.03 2.15.06 3.23.08 1.16-1.37 2.5-2.58 4.1-3.43-.04-.42-.1-1.24-.13-1.65-3.66-1.08-5.45 2.5-7.2 5m89.07-3.86c-1.2 1.66-2.32 3.38-3.25 5.21 3.5.62 5.66-2.75 6.15-5.77l-2.9.56m10.16 1.02c-.13 2.24-.13 4.49.07 6.74.47.07 1.41.23 1.88.3.52-2.67 1.14-5.34 1.11-8.07-.76.26-2.29.77-3.06 1.03m9.05-.23c-.36 2.45-.1 5.45 2.99 5.58.02-1.54.03-3.08.04-4.62l-3.03-.96m-96.58 1.99c-1.51 2.17-2.62 4.58-2.66 7.27.56.01 1.69.02 2.26.03.9-2 2.06-3.86 3.12-5.78-.26-1.25-1.8-1.12-2.72-1.52m12.26 7.51c.59-1.56 1.27-3.09 1.69-4.7l-3-.36c-1.03 1.73-.48 4.07 1.31 5.06m102.46 2.75c-3.11-.18-5.69 1.79-8.64 2.39-3.3 2.93-5.65 6.66-6.74 10.94.07 3.39.79 6.99 3.41 9.38 4.16 4.29 11.1 4.09 16.11 1.52 3.21-1.74 6.99-2.78 9.48-5.59 1.61-2.51 2.49-5.46 4.62-7.64-.33-4.07-2.93-8.88-7.41-9.18-.17-.61-.5-1.83-.66-2.43-3.43-1.13-6.72.84-10.17.61m-81.84 12.16c-1.66 2.69-2.46 6.89.42 9.07 2.37 2.07 6.52 4.06 9.36 2.24-.55-3.31-5.79-2.06-6.25-5.36-.38-5.37 1.47-10.58 2.38-15.82-2.65 2.85-3.86 6.63-5.91 9.87m21.43 7.55c.08.54.24 1.6.32 2.13 2.86.37 5.72.84 8.62.67-.12-4.26-6.03-3.59-8.94-2.8m-10.79 19.33c-5.87 3.22-11.19 8.03-13.34 14.56-2.3.42-5.24.25-6.31 2.8 2.64 1.26 5.59 1.06 8.43.92-.03 2.97.7 5.88 2.79 8.08 3.67 5.65 10.4 8.88 17.1 8.51 6.92-.18 14.66-.58 20.31-5.07 2.94-4.14 8.11-7.08 8.6-12.56 1.9-.81 3.82-1.58 5.75-2.33.01-.53.01-1.59.01-2.12-1.9-.02-3.82.09-5.7-.24-1.62-1.46-2.97-3.22-4.82-4.39-5.79-3.65-11.7-7.42-18.39-9.15-4.78-.34-9.89-.89-14.43.99zm54.57-143.27c5.56 5.5 8.99 12.71 14.18 18.54 4.39 4.8 7.58 10.5 11.61 15.57 4.36 6.27 8.61 12.67 12.21 19.41-6.59-6.41-12.02-13.9-17.6-21.18-6.27-10.72-14.45-20.15-20.93-30.74l.53-1.6zm73.08 73.79c3.71-3.11 9.25-3.87 13.67-1.96 4.69 2.83 8.23 7.66 9.61 12.95 1.25 8.75-.31 18.02-4.61 25.76-4.34 6.43-9.34 12.79-16.24 16.62-3.34 2.02-7.12 3.02-10.73 4.38-2.14.59-2.9 2.85-3.83 4.61-1.89 3.96-1.54 8.38-1.25 12.62.94 1.59 1.7 3.29 2.22 5.07 2.18 1.35 5.35 2.37 7.21-.08 4.9-5.66 3.59-13.76.98-20.15 3.93-.13 4.12 4.19 4.45 7.1.43 5.57.32 12.17-4.44 15.99-1.91 2.34-5.11 1.41-7.71 1.55-2.72-2.58-5.81-5.54-5.94-9.54-.29-5.74-.66-12.01 2.52-17.1l-.07 1.07c-.21 2.08-.42 4.16-.65 6.25 1.4-4.24 3.4-8.23 5.57-12.12-1.03.43-2.05.86-3.07 1.29.37-2.03.69-4.07.94-6.12l.36-.04c4.67-.72 10.3-.7 13.45-4.85 4.85-6.8 9.52-14.01 11.68-22.17.77-4.1.96-8.66-1.05-12.44-1.28-2.21-3.28-4.78-6.18-4.23-5.87.18-10.23 4.41-13.83 8.57-1.11 2.05-2.26-.78-1.83-1.95 1.55-4.55 5.11-8.13 8.77-11.08zm-21.82 55.83c3-12.09 3.97-24.61 4.29-37.03.51 11.44.14 22.89-.18 34.32l.02.88c-.2.38-.59 1.13-.79 1.5-1.79 3.26-2.88 6.82-3.96 10.36-.13-.53-.4-1.59-.54-2.13.18-2.66.49-5.32 1.16-7.9zm-170.6-29.95c1.61 4.81 1.38 10.01 2.36 14.96.65 2.94-.19 6.29 1.51 8.9l-1.71-.44c-.28-1.86-.6-3.72-1.1-5.53-1.91-5.76-1.25-11.94-1.06-17.89zm.69 27.25c.81 1.99 2.11 3.7 3.39 5.4-5.24 5.8-5.23 14.55-3.2 21.69 1.74.94 3.4 2.58 5.55 2.18 1.93-1.06 3.1-3 4.48-4.64.43 1.16.87 2.32 1.39 3.45-1.5 1.38-2.99 2.76-4.47 4.16-3.02.19-6.62.28-8.54-2.54-4.35-4.72-3.83-11.5-3.09-17.39.57-3.66 2.21-7.09 4.55-9.95-.01-.59-.04-1.77-.06-2.36zm150.12 52.14c1.58-.82 3.17-1.63 4.76-2.43l.2 2.18c-4.31 13.67-9.62 27.35-10.18 41.84-1.49 8.83-.28 17.8 2.07 26.35 2.39 5.69 5.69 11.71 11.7 14.17-3.04-5.49-7.77-10.19-9.01-16.54-2.03-6.79-1.59-13.92-1.43-20.9.68-9.09 1.82-18.21 4.63-26.91 1.7-5.24 3.1-10.58 4.81-15.81l.1.66c.72 4.3 1.78 8.54 2.33 12.88 1.07 8.97 4.62 17.35 7 26 2.22 5.83 3.91 12.02 7.7 17.08 2.42 3.75 5.92 6.57 9.29 9.41-6.01 13.94-16.41 25.36-27.48 35.52-7.04 7.08-15.42 12.91-24.85 16.32-12.83 6.17-27.44 5.63-41.25 4.26-5.27-1.05-10.78-2-15.36-5.02-7.66-4.8-12.7-12.8-16.08-21-1.99-3.74-3.11-7.82-3.81-11.97 5.53-1.19 9.98-5.58 11.89-10.81 1.17-3.97.72-8.16.71-12.24.79.03 1.58.05 2.37.09 5.74-3.96 11.53-7.87 17.39-11.63 9.86-5.16 18.69-11.96 27.9-18.15 3.68-2.25 5.58-6.46 9.29-8.69 3.87-2.75 9.09-3.96 11.53-8.38 2.51-2.56 5.56-4.51 8.15-6.98 2.31-2.81 3.72-6.23 5.63-9.3z" fill="#e5a58b"/></svg>