<svg width="400pt" height="400pt" viewBox="0 0 400 400" xmlns="http://www.w3.org/2000/svg"><g fill="#fff"><path d="M0 0h185.06c2.96 1.82 6.32.77 9.42 0h15.88c3.13.78 6.57 1.89 9.55 0H400v400H0V0m189.09 8.3c-1.61-.42-3.23-.79-4.86-1.14-13.64-1.76-28.01.34-40.2 6.86-12.06 5.46-22.85 13.44-32.29 22.67-9.45 10.13-17.67 21.37-24.65 33.32-3.53 7.97-6.84 16.05-9.95 24.2-5.31 13.85-7.44 28.63-11.96 42.72-3.78 14.37-8.16 28.58-11.36 43.09-1.51 6.33-3.42 12.57-4.11 19.06-1.32 12.02-4.9 23.74-4.97 35.89-.08 7.69-1.16 15.32-1.26 23.01-.14 7.48 2.29 14.69 4.97 21.57 2.11 5.58 7.89 8.26 11.28 12.88 3.47 4.5 8.24 7.73 12.79 11.03 3.43 2.55 7.6 3.62 11.49 5.24 3.1.91 6.56.1 9.41 1.84 1.67.84 3.43 1.51 5.21 2.09l-.32-1.48c-3.11-1.35-6.08-3.12-8.28-5.73 3.46 2.95 7.64 4.89 11.9 6.4 8.18 2.77 16.97 1.95 25.41 2.64-.2 7.24.24 14.47.17 21.7l-.2-.12c-.13.62-.41 1.84-.54 2.46-2.5-1.05-6.68-2.27-8.07.97-1.5 5.19-1.91 10.62-3.22 15.86-5.21-.01-9.6 3.01-14.41 4.42-3.87-1.3-6.33-4.93-9.89-6.8-3.33-1.75-6.39-4-9.85-5.5-1.57-2.51-4.71-3.13-6.59-5.34 2.03 2.68 4.85 4.73 7.62 6.62.95.74 1.9 1.51 3.02 2 3.3 2.44 7.15 4.09 9.95 7.19a48.67 48.67 0 0 0 7.32 4.2c9.28 6.02 19.35 10.72 29.65 14.69 14.82 5.82 30.34 9.91 46.15 11.81 2.98.77 6.07.85 9.05.01 1.18.59 2.51.78 3.78 1.11l.38.76c.94 0 1.89 0 2.84.01.67-.15 2.03-.45 2.71-.59l-.16.89c9.53.94 19.05-.37 28.55-1.05l-.02-.18 1.41-.71c3.93.05 7.86-.44 11.67-1.4.25-.45.75-1.36 1-1.81 1.27.34 2.56.56 3.89.66l-.97-1.22c.71-.03 2.12-.1 2.83-.13 1.39-1.09 3.21-.95 4.86-1.2l-.42-1 1.88.69-.61.39c5.15-1.63 10.75-2.29 15.38-5.23l.56.68c.05-.88.16-2.65.22-3.54 1.86 1.17 4.1 1.05 6.18.81 1.7-.31 3.29-.98 4.65-2.06-4.58-.81-9.53-.68-13.71-2.99-4.84-3.13-6.88-9.03-11.62-12.29-3.84-3.1-9.27-3.48-13.74-1.53-2.28-2.88-5.85-2.29-9.05-1.91-1.38-1.9-.68-4.61-.8-6.83.61-6.64.66-13.3.59-19.96.5-1.86.33-4.07 1.6-5.61 5.65-3.67 12.49-.1 18.65-1.83 5.75 2.89 12.2 2.68 18.43 2.24 5.13 1.71 10.45.28 15.25-1.7 2.96-1.65 5.48-3.93 8.06-6.1-2.38 2.68-5.16 4.99-7.2 7.96 2.21-.32 4.41-.72 6.6-1.15l-.19-.37c8.26-.6 15.83-5.02 21.88-10.55-1.6 2.75-4.22 4.65-6.01 7.23 3.5-.62 6.44-2.67 9.16-4.82.04.59.13 1.77.18 2.37 3.47-1.83 6.99-3.57 10.73-4.78 7.75-3 12.83-9.95 17.44-16.49 3.69-5.71 6.1-12.13 8.67-18.37 6.18-9 8.33-20.37 6.63-31.08-1.88-13.9-8.13-26.63-12.29-39.9-3.88-10.93-5.8-22.38-8.69-33.58-3.53-15.23-7.44-30.37-11.07-45.58-3.42-10.81-6.09-21.87-10.11-32.48a486.25 486.25 0 0 1-6.41-15.51c-3.6-9.05-8.48-17.5-13.35-25.92-7.63-14.28-19.26-26.26-32.66-35.22-7.84-6.29-17.25-10.45-26.91-13.06-6.21-1.72-12.71-1.46-19.1-1.58-10.2-.24-20.44 1.57-29.98 5.18z"/><path d="M134.62 177.61c1.85-.38 3.92-.16 4.35 2.03-.81.57-1.62 1.15-2.43 1.72-.49-.02-1.48-.08-1.97-.1-.02-1.22 0-2.44.05-3.65zm18.2.67c.69.24 2.05.71 2.74.94.02 1.17-.09 2.34-.17 3.52 4.26 1.02 8.31 2.72 12.22 4.67-3.03.69-6.01 1.56-8.88 2.73-2.95 1.05-5.95 1.96-9.01 2.6l.85-1.43c2.79-3.69 2.92-8.63 2.25-13.03zm198.91 49.92c-.85-4.51-2.89-8.73-3.34-13.32 3.81 9.71 6.78 19.8 8.79 30.04 1.08 9.41 1.48 19.89-3.91 28.15 1.79-10.19 3.16-20.67 1.49-30.98-.62-4.71-2.15-9.23-3.03-13.89zm-33.72 84.25c6.74-6.83 11.51-15.36 14.82-24.33-3.05 9.62-7.72 18.93-14.67 26.33-.53-.44-1.04-.88-1.55-1.32l1.4-.68zm-197.7 28.84c2.71 1.63 1.53 4.87 1.15 7.37-.78-.27-1.56-.54-2.33-.8.32-2.21.68-4.4 1.18-6.57z"/></g><path d="M185.06 0h9.42c-3.1.77-6.46 1.82-9.42 0zm25.3 0h9.55c-2.98 1.89-6.42.78-9.55 0z" fill="#d3c8c8"/><path fill="#5b3a39" d="M189.09 8.3c9.54-3.61 19.78-5.42 29.98-5.18 6.39.12 12.89-.14 19.1 1.58 9.66 2.61 19.07 6.77 26.91 13.06 13.4 8.96 25.03 20.94 32.66 35.22 4.87 8.42 9.75 16.87 13.35 25.92a486.25 486.25 0 0 0 6.41 15.51c4.02 10.61 6.69 21.67 10.11 32.48 3.63 15.21 7.54 30.35 11.07 45.58 2.89 11.2 4.81 22.65 8.69 33.58 4.16 13.27 10.41 26 12.29 39.9 1.7 10.71-.45 22.08-6.63 31.08-2.57 6.24-4.98 12.66-8.67 18.37-4.61 6.54-9.69 13.49-17.44 16.49-3.74 1.21-7.26 2.95-10.73 4.78-.05-.6-.14-1.78-.18-2.37-2.72 2.15-5.66 4.2-9.16 4.82 1.79-2.58 4.41-4.48 6.01-7.23-6.05 5.53-13.62 9.95-21.88 10.55l-.7-1.34c2.78-.9 6.22-1.03 8.16-3.51 5.54-6.58 9.78-14.16 13.39-21.94 2.5-6.02 5.09-12.06 6.64-18.41.45-1.93.95-3.88 2.05-5.56-.19 5.05-1.64 9.93-3.21 14.7-4.16 11.24-9.12 22.52-17.2 31.55 4.16-1.38 7.74-4.05 10.67-7.27 8.69-8.81 13.7-20.56 16.48-32.47 1.17-4.15 1.66-8.43 2.26-12.69.28-.09.86-.28 1.15-.37-.02 6.26-1.1 12.41-2.57 18.48-1.87 5.58-3.6 11.22-5.82 16.68-2.23 4.07-4.77 7.97-7.07 12 9.06-8.18 14.33-19.75 18.15-31.16 2.03-8.06 4.47-16.27 3.83-24.67-.04-3.92-.55-7.82-.6-11.74 2.33 3.76 1.85 8.48 2.61 12.7.85 8.76-.57 17.55-2.95 25.97-1 3.29-1.97 6.58-2.98 9.87-1.66 3.2-3.06 6.53-4.33 9.91-1.51 1.9-2.78 3.97-3.81 6.17 1.27-.97 2.53-1.97 3.68-3.09 4.47-5.55 8.86-11.38 11.18-18.21 3.13-9.6 4.77-19.69 4.8-29.78l.63-.87c1.2 13.65-1.53 27.38-7.21 39.79-2.12 3.03-4.58 5.79-6.55 8.92 3.66-2.2 6.06-5.79 8.63-9.09 4.63-5.79 7.64-12.76 9.9-19.77 2-10.12 3.81-20.55 2.67-30.88-.26-3.87-.83-7.7-1.87-11.42-1.74-6.52-2.9-13.21-5.25-19.55-2.18-5.21-3.28-10.74-3.72-16.35-2.47-11.32-5.12-22.6-8.02-33.81-1.29-7.72-3.72-15.19-5.36-22.83-2.04-9.51-4.8-18.84-7.95-28.03-1.12-6.44-3.53-12.55-5.5-18.75-6.39-17.25-14.6-33.86-24.29-49.5-7.06-9.52-15.21-18.45-25.17-24.99-10.34-8.06-22.58-14.2-35.69-15.77-10.58.07-21.44-1.14-31.71 2.09-4.04 1.04-8.02 4.01-12.3 2.26-1.33-.36-2.66-.72-3.98-1.09.72-.49 1.45-.98 2.18-1.46 1.63.35 3.25.72 4.86 1.14m162.64 219.9c.88 4.66 2.41 9.18 3.03 13.89 1.67 10.31.3 20.79-1.49 30.98 5.39-8.26 4.99-18.74 3.91-28.15-2.01-10.24-4.98-20.33-8.79-30.04.45 4.59 2.49 8.81 3.34 13.32m-33.72 84.25-1.4.68c.51.44 1.02.88 1.55 1.32 6.95-7.4 11.62-16.71 14.67-26.33-3.31 8.97-8.08 17.5-14.82 24.33z"/><path fill="#886564" d="M198.33 7.45c10.27-3.23 21.13-2.02 31.71-2.09 13.11 1.57 25.35 7.71 35.69 15.77 9.96 6.54 18.11 15.47 25.17 24.99 9.69 15.64 17.9 32.25 24.29 49.5-.45.36-1.34 1.09-1.78 1.46 2.06 5.19.09 10.92 2.13 16.17-.84.12-1.68.23-2.52.35.05 4.1.6 8.2.21 12.3l.88 1.28c.05.73.1 1.46.16 2.18-.55.76-1.08 1.53-1.6 2.3-.06 3.23-.59 6.42-1.54 9.5-1.42 1.52-3.63 2.86-3.61 5.19-.14 4.62.87 9.18 1.15 13.77.3 1.25-.62 2.17-1.27 3.09-.33-1.72-.62-3.44-.91-5.16-2.39 9.22-1.45 18.94-3 28.29-.77-.66-1.54-1.32-2.3-1.98-.36 6.95.87 14.05-.83 20.88-.57-4.8-.55-9.69-2.06-14.32-.17 2.84-.02 5.68.05 8.53-2.13-2.61-1.31-6.32-1.81-9.44-.21 3.12-.58 6.22-.9 9.33-.66-5.87-.69-11.79-1.25-17.67-.4 2.42-.59 4.87-.53 7.32.32 16.31.45 32.63-.47 48.92-.82 7.43-1.23 14.89-2.12 22.31-.08-3.49.73-7.51-1.75-10.39-1.15 6.5-3.4 12.77-6.09 18.77-.19-.74-.57-2.23-.76-2.98.5-5.71 1.22-11.4 1.74-17.11.46-1.48-.78-2.48-1.62-3.46.67-9.64 2.58-19.2 2.22-28.89-.6.17-1.78.51-2.38.68.01-16.17.13-32.34.04-48.5 2.26-10.98 1.17-22.22 1.34-33.34-.65-12.08-2.38-24.09-4.01-36.07-1.54-4.99-2.67-10.1-3.84-15.16-4.73-6.47-7.85-13.92-10.85-21.3-1.49-2.34-4.2-3.69-5.48-6.22-2.09-4.05-5.34-7.41-9.16-9.86-.85.22-1.66.56-2.47.86-.28-.31-.85-.92-1.14-1.23-2-.53-3.54-1.82-4.41-3.7 1.46.51 2.92 1.04 4.39 1.55-3.14-3.5-7.41-6.48-12.2-6.89-.36.83-.72 1.67-1.08 2.5-.65-1.2-1.28-2.42-1.9-3.64-4.92-1.74-10.18-1.29-15.29-1.62-.43.91-.86 1.82-1.29 2.72-2.58-1.36-5.14-3.91-8.31-3.03-2.55.39-4.96 1.33-7.37 2.18-.02.48-.07 1.44-.1 1.92-1.45-.99-2.85-2.11-4.5-2.77-2.33.84-4.57 1.95-6.97 2.59-.46.59-.91 1.18-1.36 1.78-.6-.49-1.19-.97-1.78-1.46-.46.82-.91 1.65-1.36 2.47-1.09.29-2.19.57-3.28.86 1.06.97 2.12 1.93 3.18 2.91-1.09 1.15-2.34.97-3.57.18-1.45 1.17-2.74 3.07-4.86 2.71-3.09.48-3.67-3.02-4.17-5.26-.66 1.46-1.33 2.91-2 4.35-.18-1.55-.03-3.21-.69-4.67-3.89.91-7.87.93-11.83 1.17-.62-.89-1.24-1.79-1.86-2.69-4.09 3.04-6.8 7.99-11.58 9.96 1.68-4.2 5.95-6.46 8.18-10.31-2.82 1.05-4.89 3.26-7.16 5.13-.95 1.23-2.36.14-3.53-.05.06-.95.13-1.89.19-2.83-2.21-.57-4.41-1.14-6.61-1.73 2.12-3.07 5-5.51 7.11-8.58-3.96 1.93-6.91 5.29-10.43 7.85-2.76-.76-5.43-1.9-8.27-2.32-2.73.58-5.19 2.29-8.08 2.13 6.09-4.96 11.35-10.96 18.09-15.09 9.76-6.02 20.16-11.54 31.64-13.27 7.27-1.18 14.68-1.22 22.03-1.36 4.28 1.75 8.26-1.22 12.3-2.26z"/><path fill="#674645" d="M144.03 14.02c12.19-6.52 26.56-8.62 40.2-6.86-.73.48-1.46.97-2.18 1.46 1.32.37 2.65.73 3.98 1.09-7.35.14-14.76.18-22.03 1.36-11.48 1.73-21.88 7.25-31.64 13.27-6.74 4.13-12 10.13-18.09 15.09-5.59 4.35-9.8 10.11-14.01 15.73-9.84 12.15-15.43 26.94-20.55 41.52-1.55 5.22-2.74 10.54-4.4 15.73-1.12 4-3.05 7.85-3.04 12.09-3.43 12.52-7.94 24.75-10.43 37.51-1.6 8.45-3.6 16.82-4.85 25.34-1.74 7.61-3.09 15.32-4.22 23.05-1.45 8.7-3.1 17.36-3.92 26.15-.57 3.58-.85 7.23-.23 10.82-.18 7.02.48 14.04 1.79 20.93-.33.36-1 1.06-1.34 1.41-1.01-3.73-1.64-7.54-1.79-11.4l-.7-.04c.14 8.31.75 17.78 7.15 23.89-1.45-3.62-3.2-7.12-4.22-10.9.26-.42.79-1.26 1.05-1.68 3.69 8.53 6.45 17.91 13.19 24.66 3.89 3.7 8.24 6.92 12.86 9.64-4.08-4.46-7.02-9.82-9.03-15.5-.44-1.24-.43-2.5.05-3.77 3.77 8.67 8.31 18.37 17.55 22.3-.29.45-.88 1.34-1.17 1.79-3.89-1.62-8.06-2.69-11.49-5.24-4.55-3.3-9.32-6.53-12.79-11.03-3.39-4.62-9.17-7.3-11.28-12.88-2.68-6.88-5.11-14.09-4.97-21.57.1-7.69 1.18-15.32 1.26-23.01.07-12.15 3.65-23.87 4.97-35.89.69-6.49 2.6-12.73 4.11-19.06 3.2-14.51 7.58-28.72 11.36-43.09 4.52-14.09 6.65-28.87 11.96-42.72 3.11-8.15 6.42-16.23 9.95-24.2 6.98-11.95 15.2-23.19 24.65-33.32 9.44-9.23 20.23-17.21 32.29-22.67z"/><path fill="#775554" d="M130.62 39.62c3.52-2.56 6.47-5.92 10.43-7.85-2.11 3.07-4.99 5.51-7.11 8.58 2.2.59 4.4 1.16 6.61 1.73-.06.94-.13 1.88-.19 2.83 1.17.19 2.58 1.28 3.53.05 2.27-1.87 4.34-4.08 7.16-5.13-2.23 3.85-6.5 6.11-8.18 10.31 4.78-1.97 7.49-6.92 11.58-9.96.62.9 1.24 1.8 1.86 2.69 3.96-.24 7.94-.26 11.83-1.17.66 1.46.51 3.12.69 4.67.67-1.44 1.34-2.89 2-4.35.5 2.24 1.08 5.74 4.17 5.26 2.12.36 3.41-1.54 4.86-2.71 1.23.79 2.48.97 3.57-.18-1.06-.98-2.12-1.94-3.18-2.91 1.09-.29 2.19-.57 3.28-.86.45-.82.9-1.65 1.36-2.47.59.49 1.18.97 1.78 1.46.45-.6.9-1.19 1.36-1.78 2.4-.64 4.64-1.75 6.97-2.59 1.65.66 3.05 1.78 4.5 2.77.03-.48.08-1.44.1-1.92 2.41-.85 4.82-1.79 7.37-2.18 3.17-.88 5.73 1.67 8.31 3.03.43-.9.86-1.81 1.29-2.72 5.11.33 10.37-.12 15.29 1.62.62 1.22 1.25 2.44 1.9 3.64.36-.83.72-1.67 1.08-2.5 4.79.41 9.06 3.39 12.2 6.89-1.47-.51-2.93-1.04-4.39-1.55.87 1.88 2.41 3.17 4.41 3.7.29.31.86.92 1.14 1.23.81-.3 1.62-.64 2.47-.86 3.82 2.45 7.07 5.81 9.16 9.86 1.28 2.53 3.99 3.88 5.48 6.22 3 7.38 6.12 14.83 10.85 21.3 1.17 5.06 2.3 10.17 3.84 15.16 1.63 11.98 3.36 23.99 4.01 36.07-.17 11.12.92 22.36-1.34 33.34-2-21.17-4.49-42.3-7.7-63.33-.39-2.86-1.15-5.65-2.2-8.32-1.25 4.02-.29 8.23.15 12.3 1.2 10.52 2.54 21.05 2.52 31.66.62 7.75 1.13 15.54 2.47 23.21-2-2.58-4.34-5.04-5.46-8.17.18-2.91 1.38-5.69 1.22-8.63-.5-11.46-2.89-22.7-4.47-34.03-1.22-6.42-1.94-12.96-3.85-19.22-1.1 6.53 1.93 13.02.49 19.59-1.58-2.42-1.69-5.45-3.3-7.88-.75-.02-1.5-.05-2.25-.07-.43-.82-.85-1.64-1.27-2.45l-1.8-.68c.48 2.31.79 4.66.83 7.03-.88-.96-1.79-1.97-2.03-3.29-2.21-7.73-3.24-15.88-6.73-23.2.68 11.53 3.83 22.72 5.4 34.12.4 2.24-.59 4.36-1.29 6.42-1.63-5.79-2.99-11.68-5.19-17.29l-.06.2c-.84 2.14-1.43 4.36-1.71 6.65-.58-2.38-1.26-4.73-2.02-7.06-.25.85-.74 2.54-.99 3.39-.91-4.05-1.95-8.07-2.97-12.09-.22 1.72-.45 3.45-.61 5.18-1.16-3.66-2.23-7.35-3.06-11.1-.58.54-1.15 1.08-1.71 1.63-1.23-1.51-2.13-3.46-3.87-4.43-1.73-.01-3.2 1.05-4.71 1.74-.51-.29-1.01-.58-1.51-.86-.76 1.34-1.51 2.68-2.27 4.02-.48-.28-1.46-.82-1.95-1.1l-1.03-.32c-.41 8.4 2.56 16.54 2.05 24.95-.66-2.39-1.56-4.79-3.75-6.17-.74 4.24 1.45 8.08 2.06 12.16.42 2.5.85 5 1.51 7.44.82 2.94 1.23 5.99 1 9.04-2.75-3.53-2.73-8.32-4.44-12.33-1.33-1.04-2.9-1.99-3.31-3.75-2.33-6.8-4.27-13.75-7.05-20.39-.35.25-1.05.77-1.39 1.02-1.2-3.32-2.56-6.58-3.91-9.84.09.82.19 1.64.29 2.47-.23.48-.69 1.45-.92 1.94-1.94-5.5-2.98-11.3-5.49-16.58.84 5.58 2.65 10.96 3.54 16.53-.6 1.76-1.1 3.64-2.29 5.11-1.52.51-3.12-.36-4.65-.52l-1.71 1.62c-1.22-6.23-1.73-12.57-2.97-18.8-1.07-4.97-1-10.21-3.09-14.92.21 5.38 1.59 10.65 1.69 16.04.17 6 .17 12.01-.08 18l-6.39-.99c0 .42.01 1.26.01 1.68-2.15.52-4.29 1.05-6.43 1.56-.86 5.8 1.38 11.98-1.1 17.48-.59-3.19-1.18-6.39-1.62-9.61-.57 7.41.54 14.88-.64 22.26-.65 4.16.76 8.29.24 12.46-.1.45-.3 1.35-.39 1.8-.83-1.53-1.79-3.02-2.26-4.7-2.67-10.1-3.77-20.51-5.43-30.8-.69-3.88-.28-8.21-2.68-11.56-.73 5.16-.79 10.41-.3 15.59-2.7-.45-5.43-1.15-7.6-2.9.15-3.39.72-7.15-1.56-10-.15-.95-.28-1.89-.41-2.83-.17-.02-.49-.05-.66-.07-.26 2.37-.49 4.75-.92 7.1-.31.15-.92.45-1.22.61l-1.27.59c-1.59 4.28-1.83 8.87-2.53 13.34-.59 4.09-2.51 7.87-2.8 12.02-.49 3.29-.23 6.92-2.01 9.87-.5.08-1.51.23-2.01.3-.13-5.01.55-10.02-.16-15.02-.5 1.04-1.02 2.08-1.53 3.12-.36-5.46-.12-10.94.44-16.37.24-2.86.98-5.98-.88-8.49 1.38-9.92 3.6-19.78 6.79-29.28-1.4 2.99-2.77 6-3.84 9.12l-1.45-1.21c-.85 2.83-1.6 5.75-3.18 8.28-5.11 8.06-8.62 17.01-11.39 26.11-1.42 5.86-.65 12.41-4.02 17.68-.78-2.01-1.5-4.05-2.19-6.09-.96 7.92-.09 15.92-.95 23.83-.29-.3-.87-.9-1.17-1.2-1.38-7.53-.2-15.24-.7-22.85-.41.99-.82 1.98-1.23 2.98-.23-.26-.68-.78-.91-1.04-.5-5.28.19-10.53.78-15.76.39-2.02-.61-3.78-1.85-5.26-.4 1.75-.79 3.51-1.18 5.26-.29-8.29 2.99-16.21 2.78-24.45-3.16 5.97-3.44 12.89-5.42 19.26-4.01 13.7-5.49 28.01-5.27 42.24.6 4.93-.38 10.32 2.35 14.76-1.28 3.14-2.73 6.2-4.21 9.25-.38-5.49-1.4-10.91-1.85-16.4.06-3.36.48-6.7 1.06-10.01 1.4-8.16-.01-16.48 1.31-24.65.3-8.1 2.59-15.93 3.07-24.01.43-6.26 2.01-12.35 3.71-18.37 1.26-4.68 3.57-9.04 4.29-13.87-4.76 6.32-6.06 14.3-8.73 21.56-2.41 6.53-4.05 13.29-6.05 19.94-.18-.58-.55-1.75-.74-2.34-1.76 4.08-2.63 8.44-3.76 12.72-.63-.47-1.25-.94-1.87-1.41-1.22 3.67-2.15 7.44-3.69 11-.18-1.96-.34-3.92-.49-5.88-.64.37-1.28.74-1.91 1.11-.88-.43-1.75-.87-2.62-1.3-.41.33-1.23.99-1.63 1.32-.63-.43-1.26-.85-1.89-1.27.4 2.69.57 5.45-.13 8.11-.39-1.39-.76-2.77-1.11-4.16-.24.29-.72.89-.96 1.19-.02 1.02-.05 2.05-.08 3.08-5.09-3.35.03-10.17-2.12-14.91-.01-4.24 1.92-8.09 3.04-12.09 1.66-5.19 2.85-10.51 4.4-15.73 5.12-14.58 10.71-29.37 20.55-41.52 4.21-5.62 8.42-11.38 14.01-15.73 2.89.16 5.35-1.55 8.08-2.13 2.84.42 5.51 1.56 8.27 2.32z"/><path d="M185.22 70.94c2.09 4.71 2.02 9.95 3.09 14.92 1.24 6.23 1.75 12.57 2.97 18.8l1.71-1.62c1.53.16 3.13 1.03 4.65.52 1.19-1.47 1.69-3.35 2.29-5.11 1.56 5.95 2.86 11.96 4 18.01-1.55 3.01-.43 6.39-.12 9.55-1.81-.22-3.62-.47-5.44-.58-.32.51-.97 1.53-1.29 2.04-.21-1.12-.43-2.24-.66-3.35.21 3.04.38 6.08.65 9.12-2.59 3.92-1.88 8.6-1.45 12.97.37 1.59-1.22 2.3-2.24 3.1-1.52-6.14-.67-12.68-3.07-18.63-.51 4.03-.65 8.1-.6 12.17-.82-3.41-1.92-6.75-3.26-9.99-.19 1.06-.39 2.12-.58 3.18l-.99 1.16c-.2 1.27-.31 2.56-.43 3.84-.22-1.36-.42-2.72-.62-4.08-1.33-9.62-.74-19.35-1.98-28.96-.11.34-.34 1.03-.46 1.37-.7 1.45-1.63 2.89-1.62 4.57-.3 5.55-.03 11.12-.03 16.68-.72-.13-1.44-.25-2.16-.37-.52 1.54-1.05 3.08-1.59 4.62-.44.45-1.33 1.35-1.78 1.8-.77-3.93-1.79-7.92-1.29-11.96 2.48-5.5.24-11.68 1.1-17.48 2.14-.51 4.28-1.04 6.43-1.56 0-.42-.01-1.26-.01-1.68l6.39.99c.25-5.99.25-12 .08-18-.1-5.39-1.48-10.66-1.69-16.04zm-49 19.11 1.45 1.21c-2.96 9.15-5.13 18.54-6.06 28.12l-1.92-.89c-.13-.06-.38-.19-.5-.25-1.99 11.07-4.39 22.12-5.01 33.38-.11 2.3-.13 4.6-.21 6.89-.23 1.44-.69 2.84-1.4 4.11-1.24-3.69-1.29-7.58-.3-11.33.57-5.8 1.16-11.62 1.28-17.45-1.04 6.72-2.46 13.43-2.37 20.27-.25 3.11-.88 6.68-3.18 8.92-2.39 1.13-3.44-1.21-3.51-3.17.86-7.91-.01-15.91.95-23.83.69 2.04 1.41 4.08 2.19 6.09 3.37-5.27 2.6-11.82 4.02-17.68 2.77-9.1 6.28-18.05 11.39-26.11 1.58-2.53 2.33-5.45 3.18-8.28zm-30.63 26.75c1.98-6.37 2.26-13.29 5.42-19.26.21 8.24-3.07 16.16-2.78 24.45.39-1.75.78-3.51 1.18-5.26 1.24 1.48 2.24 3.24 1.85 5.26-.59 5.23-1.28 10.48-.78 15.76.23.26.68.78.91 1.04.41-1 .82-1.99 1.23-2.98.5 7.61-.68 15.32.7 22.85.01.61.04 1.81.05 2.41-2.01 2.61-4.18 5.12-5.67 8.09-1.31 2.13-2.86 4.1-4.25 6.18l-.78-1.54c-2.73-4.44-1.75-9.83-2.35-14.76-.22-14.23 1.26-28.54 5.27-42.24zm138.83-10.9c.76 2.33 1.44 4.68 2.02 7.06.28-2.29.87-4.51 1.71-6.65 3.44 14.14 5.2 28.59 6.53 43.05-.06 1.57-.22 3.13-.37 4.69-.89-.64-1.77-1.27-2.65-1.9-.21 1.2-.41 2.4-.62 3.59-1.02-.71-2.04-1.42-3.06-2.12-2.25.23-4.5.48-6.75.58.32-1.38.65-2.76.95-4.15.62.63 1.25 1.26 1.87 1.9 2.58-6.01 1.31-12.66 1.63-18.98-.39-7.91-.88-15.87-2.25-23.68.25-.85.74-2.54.99-3.39z" fill="#6c4847"/><g fill="#694847"><path d="M101.32 97.3c2.67-7.26 3.97-15.24 8.73-21.56-.72 4.83-3.03 9.19-4.29 13.87-1.7 6.02-3.28 12.11-3.71 18.37-.48 8.08-2.77 15.91-3.07 24.01-1.32 8.17.09 16.49-1.31 24.65-.58 3.31-1 6.65-1.06 10.01l-1.34 1.36c-.18-1.74-.42-3.48-.65-5.21-.35.25-1.04.77-1.39 1.02-.38.53-1.15 1.59-1.53 2.11-.1.39-.28 1.18-.37 1.57-1.11 6.38-1.87 12.81-2.95 19.2-.44 4.85-.26 9.72-.01 14.58.19 4.46-.29 9.06 1.14 13.37 2.6 6.93 6.58 13.83 13.35 17.41l-.04-2.27c4.18 5.14 3.73 12.28 5.86 18.31.21-1.04.41-2.08.6-3.12.91 3.41 1.92 6.8 3.29 10.06 2.41 5.65 4.26 11.6 7.63 16.78 4.05 6.24 9.05 11.76 13.94 17.34.51.62 1.03 1.23 1.55 1.85-1.04-.81-2.12-1.56-3.19-2.31.59 1.38 1.17 2.79 1.85 4.15-3.14.51-3.85 3.73-3.78 6.45.02 1.73.11 3.47.11 5.21-.81 10.98-.94 21.99-1.31 32.99-.7 4.59.53 9.07 1.7 13.46l-1.56.38c-.27-1.34-.58-2.67-.94-3.98-.52-1.34-1.11-2.63-1.69-3.93-.42.17-1.26.53-1.67.7-.65-1.57-1.41-3.09-2.25-4.56 1.22-.13 2.44-.3 3.66-.51l.15-.56c.13-.62.41-1.84.54-2.46l.2.12c.37.23 1.11.68 1.48.91.29-6.96.88-14.03-.15-20.95-.37-.41-1.13-1.24-1.5-1.66-8.44-.69-17.23.13-25.41-2.64-4.26-1.51-8.44-3.45-11.9-6.4 2.2 2.61 5.17 4.38 8.28 5.73l.32 1.48c-1.78-.58-3.54-1.25-5.21-2.09-2.85-1.74-6.31-.93-9.41-1.84.29-.45.88-1.34 1.17-1.79l2.11.8a97.34 97.34 0 0 0-2.32-1.82l.15-1.4c.49-1.32-.76-2.25-1.35-3.23-3.75-4.54-6.62-9.75-8.86-15.18-2.34-5.73-3.08-11.91-4.19-17.96-.03-1.93.16-3.86.75-5.7 1.49 7.89 2.07 16.28 6.63 23.18 1.08 1.97 2.17 3.94 3.35 5.86 5.2 8.05 14.14 13 23.06 15.89-3.4-3.92-7.59-7.12-10.65-11.34-5.05-6.75-8.05-14.7-11.08-22.49-2.97-9.26-4.38-18.89-4.83-28.59-.62-13.04-.19-26.1-.36-39.15.07-.58.22-1.74.29-2.32 2.43 4.48.66 9.69 1.01 14.51.35 7.78.19 15.57.86 23.33.44 10.95 1.62 22.03 5.59 32.33 3.65 9.53 7.75 19.46 15.67 26.27-2.58-4.92-5.82-9.43-8.98-13.98-4.89-6.84-6.14-15.39-7.65-23.45-1.48-7.66-2.03-15.44-2.83-23.18.46-8.77-.2-17.53.07-26.3.24-18.61 3.54-36.99 5.74-55.43.66-13.75 4.61-27.03 7.91-40.32 2-6.65 3.64-13.41 6.05-19.94m-16.6 133.69c-.06 6.08-.47 12.29 1.05 18.24 1.28 10.68 2.74 21.54 6.8 31.59 1.29 2.71 2.32 5.68 4.62 7.75.93 2.82 3.37 4.75 5.19 6.98 3.6 4.2 8.03 7.72 13.22 9.72l.16.41c3.63 1.13 7.33 2.03 11.13 2.26.05-3.28 1.3-6.85.32-9.98-7.06-3.7-12.1-10.16-16.84-16.39-7.08-9.03-11.29-20.3-12.1-31.72.46 1.11.9 2.23 1.22 3.39 2.69 11.2 7.31 22.48 15.78 30.56 2.88 3.43 5.7 6.96 9.44 9.52.82.41 1.68 1.74 2.7 1.06.37-1.69.6-3.7-.58-5.14-2.97-4.28-6.9-7.84-9.61-12.31-5.69-8.23-8.64-17.91-11.67-27.34-1.26-3.62-1.18-7.56-2.58-11.13-.38-.02-1.13-.04-1.51-.06-.2-.53-.6-1.58-.8-2.1-.71-.52-1.41-1.03-2.12-1.53.01-.39.03-1.17.03-1.56-1.83-1.35-3.65-2.72-5.45-4.11-.13.64-.38 1.91-.51 2.55-.77-.5-1.55-1-2.32-1.49-.19.37-.58 1.12-.78 1.49-2.55-3.12-3.82-6.8-4-10.82-1.11 3.27-.63 6.77-.79 10.16zM249.29 82.86c3.49 7.32 4.52 15.47 6.73 23.2.24 1.32 1.15 2.33 2.03 3.29-.04-2.37-.35-4.72-.83-7.03l1.8.68c.42.81.84 1.63 1.27 2.45.75.02 1.5.05 2.25.07 1.61 2.43 1.72 5.46 3.3 7.88 1.44-6.57-1.59-13.06-.49-19.59 1.91 6.26 2.63 12.8 3.85 19.22 1.58 11.33 3.97 22.57 4.47 34.03.16 2.94-1.04 5.72-1.22 8.63 1.12 3.13 3.46 5.59 5.46 8.17-1.34-7.67-1.85-15.46-2.47-23.21.02-10.61-1.32-21.14-2.52-31.66-.44-4.07-1.4-8.28-.15-12.3 1.05 2.67 1.81 5.46 2.2 8.32 3.21 21.03 5.7 42.16 7.7 63.33.09 16.16-.03 32.33-.04 48.5-.5 10.56-.78 21.19-2.94 31.58-1.32 7.89-3.02 15.7-4.86 23.49-.98 4.34-2.42 8.56-3.89 12.76-2.42 4.11-3.8 8.75-6.43 12.74-4.33 6.47-8.65 12.96-13.87 18.76 2.79-.72 5.58-1.7 7.79-3.62 6.34-4.54 9.79-11.78 13.56-18.37 4-6.01 6.58-12.79 9.76-19.23.12.56.37 1.69.5 2.26-.42 1.48-.89 2.95-1.34 4.42-4.51 11.38-9.3 23.06-17.94 32.01-2.28 1.81-4.71 3.41-7.09 5.08 2.72.41 5.45.79 8.2.96 1.33.07 2.68-.08 4-.3 4.33-1.16 7.17-5.09 9.87-8.4 4.06-6.71 6.76-14.24 8.38-21.89 1.89-9.58 3.99-19.14 4.94-28.87.89-7.42 1.3-14.88 2.12-22.31.92-16.29.79-32.61.47-48.92-.06-2.45.13-4.9.53-7.32.56 5.88.59 11.8 1.25 17.67.37 9.55.67 19.1.08 28.65-.19 10.72-2.4 21.3-2.17 32.04.17 6.11-.2 12.22-.36 18.33-.96 10.09-4.4 19.65-8.67 28.77 4.41-4.5 6.03-10.76 8.01-16.54 1.93-5.64 3-11.52 3.9-17.41.71-3.54.97-7.15 1.12-10.75l1.11-.24c.02 8.51-1.23 16.99-3.4 25.21-3.88 13.5-10.34 27.82-23.55 34.47 2.28-.03 4.57-.04 6.85-.11-3.05 1.78-6.71 1.56-10.1 2.04-6.23.44-12.68.65-18.43-2.24-6.16 1.73-13-1.84-18.65 1.83-1.27 1.54-1.1 3.75-1.6 5.61-.49-.35-1.47-1.04-1.96-1.38.13-5.22.39-10.43.9-15.62-.81-.9-1.69-1.75-2.53-2.6 15.29-10.91 26.06-26.67 35.92-42.36 3.58-5.73 6.72-11.7 9.09-18.03 2.1-4.89 4.01-9.91 5.22-15.1 1.32-8.9 1.09-17.93 1.69-26.89.49-7.59.38-15.2.41-22.8-.92.13-2.75.4-3.67.54.75-.46 1.51-.93 2.25-1.4-2.28-.16-4.57-.27-6.86-.36.36-.88.75-1.76 1.07-2.66.76.86 1.57 1.68 2.37 2.51 1.62-.33 3.24-.68 4.87-1.03-.05-4.06-.11-8.12-.18-12.19-1.08-1.25-2.16-2.51-3.23-3.76-2.13-3.34-4.17-6.75-6.57-9.91-1.05-1.05-2.19-2.02-3.3-3-.09.69-.28 2.08-.37 2.78-1.62-.88-3.25-1.74-4.89-2.56.56 1.08 1.13 2.16 1.73 3.24-1.22.04-2.44-.2-2.76-1.54-1.45-3.12-1.3-6.66-1.71-10.01-.89-7.21-2.36-14.36-3.87-21.47.7-2.06 1.69-4.18 1.29-6.42-1.57-11.4-4.72-22.59-5.4-34.12m17.97 182.42c-2.11 3.82-4.79 7.29-6.92 11.09-2.89 5.24-7.34 9.37-10.7 14.29-2.63 3.98-5.56 7.75-8.47 11.53-2.01 2.61-5 4.57-5.99 7.85-1.15 2.78-1.2 5.81-1.04 8.77 5 1.53 9.26-1.9 13.03-4.67 6.83-5.97 11.4-13.97 16.29-21.49 3.32-9.2 6.92-18.4 8.93-28 .42-5.28 2.06-10.37 2.38-15.66-2.78 5.3-4.44 11.13-7.51 16.29m23.35 11.24c-1.28 5.48-2.49 11-3.29 16.57 2.59-3.06 2.8-7.24 3.57-11.01.15-1.84.98-3.93-.28-5.56z"/><path d="M312.4 241.04c.32 2.09.66 4.19.9 6.3.15 1.69.35 3.37.58 5.06-.34 9.37-2.01 18.62-2.71 27.96-1.68 5.94-1.36 12.77-5.31 17.83-.17 1.8-.33 3.68-1.37 5.23-3.3 5.36-7.43 10.16-11.59 14.87-.99.79-1.96 1.6-2.92 2.41l.3.4.7 1.34.19.37c-2.19.43-4.39.83-6.6 1.15 2.04-2.97 4.82-5.28 7.2-7.96-2.58 2.17-5.1 4.45-8.06 6.1-.71-.39-2.15-1.18-2.87-1.58.75-.44 1.51-.89 2.26-1.33 7.22-4.12 12.06-11.18 15.82-18.39 2.12-3.43 4.07-6.98 5.48-10.77 2.72-7.75 5-15.69 6.03-23.86 1.6-7.1 1.69-14.44 1.62-21.68.11-1.16.23-2.3.35-3.45z"/></g><path fill="#f8c3b3" d="M141.51 82.14c-3.19 9.5-5.41 19.36-6.79 29.28-1.52 12.99-2.67 26.1-1.67 39.18-.91-1.38-1.9-2.81-1.93-4.53-.47-5.13-.33-10.29-.48-15.43.42-3.74.74-7.5.97-11.26.93-9.58 3.1-18.97 6.06-28.12 1.07-3.12 2.44-6.13 3.84-9.12z"/><path d="M196.39 81.92c2.51 5.28 3.55 11.08 5.49 16.58 2.37 8.28 3.7 16.83 6.41 25.02-.86.9-1.71 1.8-2.56 2.7-.45-3.28-1.05-6.54-1.8-9.76-1.14-6.05-2.44-12.06-4-18.01-.89-5.57-2.7-10.95-3.54-16.53zm78.44 189.99c.61.31 1.83.94 2.45 1.26-.7 2.18-1.37 4.37-1.98 6.58-1.36 4.75-2.39 9.58-3.31 14.43-3.77 6.59-7.22 13.83-13.56 18.37 1.6-3.55 4.56-6.23 6.42-9.62 3.45-5.52 4.81-11.97 6.09-18.26 1.47-4.2 2.91-8.42 3.89-12.76z" fill="#d09d93"/><path fill="#714e4d" d="M231.21 88.48c1.74.97 2.64 2.92 3.87 4.43.56-.55 1.13-1.09 1.71-1.63.83 3.75 1.9 7.44 3.06 11.1 2.03 8.13 3.41 16.53 2.99 24.93-1.6-6.84-3.15-13.72-5.59-20.32.01 5.79.9 11.54 1.37 17.3.92 6.21.34 12.49.72 18.72.25 3.66-.41 7.29-1.37 10.81l-.94-.17c-.13-1.72-.11-3.44.01-5.15 2.19-6.79-.54-13.9-1.26-20.75-.38.39-1.15 1.17-1.53 1.56-1.29-6.87-2.2-13.89-4.89-20.4l.08 1.47c-2.6-2.8-4.03-6.37-4.92-10.03l-1.26 1.5c-.91-3.17-1.69-6.37-2.49-9.57.49.28 1.47.82 1.95 1.1.76-1.34 1.51-2.68 2.27-4.02.5.28 1 .57 1.51.86 1.51-.69 2.98-1.75 4.71-1.74z"/><path fill="#674343" d="m219.74 91.96 1.03.32c.8 3.2 1.58 6.4 2.49 9.57l1.26-1.5c.89 3.66 2.32 7.23 4.92 10.03.37 4.93 1.54 9.76 2.03 14.68 1 7.25 1.17 14.58 2 21.85.06 2.03.01 4.05-.03 6.08-1.42.63-2.83 1.27-4.23 1.93-.38-2.81-.65-5.65-.58-8.49.18-6.2-1.3-12.28-2.02-18.41l-1.16 3c-1.27-1.5-2.34-3.15-3.24-4.89-.21 1.4-.41 2.8-.6 4.21-.66-2.44-1.09-4.94-1.51-7.44-.61-4.08-2.8-7.92-2.06-12.16 2.19 1.38 3.09 3.78 3.75 6.17.51-8.41-2.46-16.55-2.05-24.95z"/><path fill="#f9c6b5" d="M202.51 94.09c1.35 3.26 2.71 6.52 3.91 9.84 5.08 14.04 9.52 28.39 12.22 43.09-.51 1.41-1.02 2.82-1.55 4.23-1.86-3.45-2.38-7.38-2.77-11.23-.49-.08-1.46-.25-1.94-.33 1.53 5.75 1.51 11.91 3.99 17.39.18-1.09.53-3.26.71-4.35 1.76 1.16 3.38 2.52 4.89 3.99 1.93-.36 3.86-.73 5.79-1.13 9.79-.35 19.57.77 29.26 2.02 2.75.19 5.26 1.35 7.51 2.88.37-.16 1.11-.46 1.49-.62.63.81 1.27 1.63 1.89 2.46.22-2.13.45-4.25.66-6.37 2.4 3.16 4.44 6.57 6.57 9.91l-1.27-.3c.33 1.37.67 2.74 1.02 4.11-.95-.52-1.9-1.05-2.84-1.57-5.07 1.06-10.25.94-15.36.26l-.76.08c-.73 1.1-1.41 2.22-2.1 3.35-1.34-.67-2.68-1.33-4.01-2-1.52.29-3.05.57-4.57.85l.04-2.78c-.33.98-.64 1.96-.94 2.95-2.2-.12-4.4-.23-6.6-.36-.12 1.14-.23 2.29-.35 3.44-1.79 1.05-3.37 2.4-4.82 3.87-.14-1.68-.28-3.37-.41-5.05-.21 6.18-6.33 8.84-9.56 13.33-.96 1.17-1.77 2.46-2.38 3.85-1.12-.21-2.25-.39-3.37-.57 1.18-4.93 3.02-9.67 4.93-14.35-.39-.56-.77-1.11-1.15-1.66a22.78 22.78 0 0 0 1.43-6.02c-4.52-1.31-9.06-2.64-13.29-4.74-.14-.3-.41-.91-.55-1.21-.74.03-1.48.07-2.22.1.55-.66 1.11-1.33 1.67-1.99l-1-.75c1.27-.82 2.55-1.63 3.82-2.46.98-.75 1.94-1.52 2.91-2.28-.41-.12-1.24-.37-1.66-.49 2.03-4.9-.57-10.21-.79-15.25a9.873 9.873 0 0 0-1.62 4.41c-.22-.14-.66-.43-.87-.58-.29-3.11-.6-6.22-1.37-9.25.96 2.1 1.94 4.2 3.17 6.16.08-2.88-.03-5.75-.31-8.61.84 3.06 1.72 6.12 2.11 9.28.43-.64.87-1.28 1.31-1.92-3.69-13.68-6.92-27.48-10.58-41.16-.1-.83-.2-1.65-.29-2.47m21.02 86.45c3.4-.11 4.78-3.68 6.63-5.97-3.21.55-5.51 3.03-6.63 5.97z"/><path fill="#9b6e6b" d="M313.41 97.08c.44-.37 1.33-1.1 1.78-1.46 1.97 6.2 4.38 12.31 5.5 18.75-.82 4.63.69 9.23 1.69 13.72-.93 1.18-1.88 2.36-2.81 3.54.27.28.81.83 1.08 1.11-.67.61-1.37 1.19-2.02 1.81.71 2.04 1.14 4.16 1.41 6.31-.84 1.16-1.65 2.34-2.45 3.53.46.54.93 1.09 1.4 1.63-2.1 4.7-.63 9.78-1.23 14.7-.19 2.24.98 4.4.53 6.65-.56 3.29-1.15 6.64-.5 9.97 3.34 15.85 4.93 32 7.01 48.04.19 2.73.31 5.46.48 8.18-.63 1.17-1.29 2.32-1.94 3.47-.72-9.03-1.45-18.06-2.88-27.01-.39 2.31-.94 4.59-1.56 6.84-1.28 3.92 1 8.26-1.2 11.99-1.75 3.07-2.9 6.46-2.09 10.02-1.19 2.69-2.07 5.52-2.31 8.47-.24-2.11-.58-4.21-.9-6.3-.12 1.15-.24 2.29-.35 3.45-1.37 4.42-2.28 8.97-3.59 13.42-.48-4.99-.5-10-.84-14.99-3.3 5.48-2.75 12.11-4.01 18.17-.9 1.7-1.86 3.36-2.77 5.05-.35-1.38-.71-2.76-1.09-4.13l-1.09.18-1.11.24c-.15 3.6-.41 7.21-1.12 10.75-.26-.27-.77-.82-1.02-1.09-.72 2.1-1.48 4.18-2.22 6.27.16-6.11.53-12.22.36-18.33-.23-10.74 1.98-21.32 2.17-32.04.59-9.55.29-19.1-.08-28.65.32-3.11.69-6.21.9-9.33.5 3.12-.32 6.83 1.81 9.44-.07-2.85-.22-5.69-.05-8.53 1.51 4.63 1.49 9.52 2.06 14.32 1.7-6.83.47-13.93.83-20.88.76.66 1.53 1.32 2.3 1.98 1.55-9.35.61-19.07 3-28.29.29 1.72.58 3.44.91 5.16.65-.92 1.57-1.84 1.27-3.09-.28-4.59-1.29-9.15-1.15-13.77-.02-2.33 2.19-3.67 3.61-5.19.95-3.08 1.48-6.27 1.54-9.5.52-.77 1.05-1.54 1.6-2.3-.06-.72-.11-1.45-.16-2.18l-.88-1.28c.39-4.1-.16-8.2-.21-12.3.84-.12 1.68-.23 2.52-.35-2.04-5.25-.07-10.98-2.13-16.17z"/><path d="M201.88 98.5c.23-.49.69-1.46.92-1.94 3.66 13.68 6.89 27.48 10.58 41.16-.44.64-.88 1.28-1.31 1.92-.39-3.16-1.27-6.22-2.11-9.28-.42-2.31-.95-4.6-1.67-6.84-2.71-8.19-4.04-16.74-6.41-25.02zm-65.26 65.45c.32.88.64 1.76.98 2.64.17.33.53.97.7 1.3.85 1.1 1.76 2.16 2.68 3.21.2-.51.6-1.52.79-2.02 1.26.67 2.52 1.35 3.79 2l.32-2.25c2.82 3.31 7.51 3.22 11.21 4.96 6.09 2.8 11.47 7.1 15.45 12.51.02.91.04 1.81.08 2.73-.39-.39-1.15-1.16-1.53-1.54-5.15-4.84-11.3-9.06-18.39-10.26l.12 1.05c.67 4.4.54 9.34-2.25 13.03-2.34 2.24-5.23 4.07-8.6 3.98-4.14.58-7.73-1.89-11.23-3.68.05-.35.17-1.07.23-1.43-1.51-2.59-2.1-5.99-4.81-7.67-.1.82-.28 2.46-.38 3.28-1.67-1.86-4.29-3.03-6.64-1.61-1.23.69-2.44 1.43-3.69 2.1-.36.12-1.1.35-1.46.46.73-.57 1.47-1.14 2.22-1.68 1.53-1.12 3.11-2.16 4.71-3.18-2.53-1.12-5.03-2.36-7.19-4.1-.69-.77-1.35-1.56-2.01-2.34 2.88 1.35 6.02 3.54 9.32 2.59-.97-1.04-2.07-1.96-3.16-2.86 2.18.62 4.39 1.21 6.61 1.7-2.31-1.83-4-4.22-5.43-6.76.9.83 1.79 1.65 2.73 2.44 1.47 1.2 3.15 2.11 4.83 2.97-.85-1.62-1.74-3.22-2.63-4.82 1.61 1.14 3.21 2.29 4.82 3.43.89-.68 1.79-1.36 2.69-2.03-.6-1.32-1.18-2.65-1.82-3.95.38.16 1.15.49 1.54.65 1.8-.6 3.55-1.33 5.32-2.01l.08-2.84m-4.24 7.18c1.81 1.04 3.69-.01 5.44-.61-.19-.74-.58-2.22-.77-2.96-1.95-.33-6.04.83-4.67 3.57m2.24 6.48c-.05 1.21-.07 2.43-.05 3.65.49.02 1.48.08 1.97.1.81-.57 1.62-1.15 2.43-1.72-.43-2.19-2.5-2.41-4.35-2.03m10.67 6.01.28 1.38c-.85.63-1.7 1.27-2.54 1.92-1.22.49-2.47.68-3.77.6-1.88-2.6-5.62-1.53-8.41-2.08.62 2.31 1.47 4.72 3.77 5.85 3.62.99 7.5 2.23 11.24 1.21 3.42-1.49 5.08-5.36 4.79-8.94-1.79.01-3.57.04-5.36.06zm99.06-12.8c.3-.99.61-1.97.94-2.95l-.04 2.78c-.33 1.42-.79 2.8-1.18 4.21 2.61-.01 4.29-1.91 5.84-3.71-.61 1.14-1.22 2.29-1.81 3.44l3.7.33c1.16-1.02 2.36-2.05 3.87-2.52-.37.83-1.11 2.48-1.48 3.31.83-.3 2.49-.88 3.33-1.18.31.08.94.25 1.26.33-.34.98-.67 1.96-1 2.95 1.46-.6 2.92-1.2 4.37-1.81-.26 3.47 3.6 2.86 5.52 1.43 1.18-1.06 2.31-2.16 3.48-3.23-1.39 1.91-2.86 3.74-4.35 5.57 1.59-.2 3.18-.41 4.78-.62l-.27 1.19c-.32.9-.71 1.78-1.07 2.66 2.29.09 4.58.2 6.86.36-.74.47-1.5.94-2.25 1.4-1.53.28-3.07.54-4.6.8l.44 2.98c-2.29.62-4.6 1.13-6.9 1.7.81.04 2.43.11 3.24.14-.56 1.75-1.96 2.93-3.3 4.07-2.78 1.28-4.89 4.55-8.25 4.06 1.6-.58 3.1-1.4 4.58-2.25-.61-.63-1.83-1.9-2.44-2.53 1.03-1.09 2.02-2.22 2.98-3.38 1.07-1.52 1.79-3.25 2.43-4.99-4.11-2.61-8.83-3.9-13.47-5.17.18.66.56 1.98.75 2.64 1.12 5.11-.77 10.48-5.15 13.45 1.48.91 3.11 1.46 4.88 1.4-1.56.12-3.12.17-4.67.17-1.95-.29-3.91-.4-5.86-.49.84-.67 1.69-1.33 2.56-1.96 1.52-1.09 3.01-2.23 4.39-3.5.77-1.25 1.14-2.69 1.55-4.08-2.28-.93-4.55-1.91-6.83-2.84-.17 1.42-.33 2.85-.49 4.29-1.8.54-3.59 1.23-5.5 1.31-.31-.75-.95-2.23-1.27-2.98-1.91-.04-3.82-.07-5.73-.09.66 2.68 2.1 5.04 3.78 7.19-.78.17-2.34.53-3.12.7-2.09-1.27-4.36-2.71-4.97-5.27-.45-1.35-.86-2.72-1.27-4.08 3.23-4.49 9.35-7.15 9.56-13.33.13 1.68.27 3.37.41 5.05 1.45-1.47 3.03-2.82 4.82-3.87.12-1.15.23-2.3.35-3.44 2.2.13 4.4.24 6.6.36m-3.32 1.19c-.56 1.48-.13 1.9 1.3 1.28.55-1.48.12-1.9-1.3-1.28m-11.01 11.38c.56 2.22 3.55 3.11 4.39.49-.61-2.31-3.06-1.8-4.39-.49zm-57.75 93.19c4.92-.18 9.93-1.01 14.34-3.28l2.24 1.16c-1.17.2-2.33.43-3.49.65 6.82 2.01 14.12-1.45 20.54 2.24-7.2 1.87-14.77 1.03-22.02-.07-3.25-.76-6.6-1.12-9.91-.53-3.1.64-6.25.3-9.22-.73 1.14-.32 2.29-.61 3.44-.9l-.48 1.34c1.52.08 3.04.14 4.56.12zm-105.34 2.54c.13-.38.39-1.14.53-1.52 3.34 10.34 9.31 19.86 17.66 26.89l-.15 1.4c-5.86-3.77-10.13-9.47-13.42-15.51-1.91-3.58-3.92-7.22-4.62-11.26zm211.63 42.64c.77-.39 1.53-.81 2.28-1.24.72.4 2.16 1.19 2.87 1.58-4.8 1.98-10.12 3.41-15.25 1.7 3.39-.48 7.05-.26 10.1-2.04z" fill="#3b1b1d"/><path fill="#84615f" d="M239.85 102.38c.16-1.73.39-3.46.61-5.18 1.02 4.02 2.06 8.04 2.97 12.09 1.37 7.81 1.86 15.77 2.25 23.68-.32 6.32.95 12.97-1.63 18.98-.62-.64-1.25-1.27-1.87-1.9 1.65-7.46 1.35-15.18.66-22.74.42-8.4-.96-16.8-2.99-24.93z"/><path fill="#643d3d" d="M206.42 103.93c.34-.25 1.04-.77 1.39-1.02 2.78 6.64 4.72 13.59 7.05 20.39.41 1.76 1.98 2.71 3.31 3.75 1.71 4.01 1.69 8.8 4.44 12.33.23-3.05-.18-6.1-1-9.04.19-1.41.39-2.81.6-4.21.9 1.74 1.97 3.39 3.24 4.89l1.16-3c.72 6.13 2.2 12.21 2.02 18.41-.07 2.84.2 5.68.58 8.49-.36.17-1.09.5-1.45.67-1.93.4-3.86.77-5.79 1.13-1.51-1.47-3.13-2.83-4.89-3.99-.18 1.09-.53 3.26-.71 4.35-2.48-5.48-2.46-11.64-3.99-17.39.48.08 1.45.25 1.94.33.39 3.85.91 7.78 2.77 11.23.53-1.41 1.04-2.82 1.55-4.23-2.7-14.7-7.14-29.05-12.22-43.09z"/><path fill="#c19085" d="M149.61 104.35c.17.02.49.05.66.07.13.94.26 1.88.41 2.83.15 3.48.29 6.96.22 10.45-.35 1.15-.7 2.31-1.04 3.47-.51-1.46-1.14-2.87-1.86-4.23-.24-.43-.71-1.29-.95-1.72.13-1.06.27-2.11.42-3.16.3-.16.91-.46 1.22-.61.43-2.35.66-4.73.92-7.1z"/><path fill="#623d3d" d="M160.14 104.56c2.4 3.35 1.99 7.68 2.68 11.56 1.66 10.29 2.76 20.7 5.43 30.8.47 1.68 1.43 3.17 2.26 4.7 1.2 2.76 1.94 5.69 2.47 8.66-1.32-.07-2.64-.13-3.96-.2-.3-.52-.89-1.56-1.19-2.08-.13.7-.41 2.1-.54 2.8-1.24-1.32-2.44-2.7-3.35-4.27-1.32-2.37-2.68-4.71-4.24-6.93-.32-2.4-1.15-4.71-2.34-6.81.03 2.23.25 4.46.73 6.65.41 3.72.69 7.45 1.36 11.13-.78-.73-1.55-1.48-2.31-2.22l-.51-1.06c-.24-3.38-.51-6.77-1.31-10.06-1.72-4.44-2.93-9.07-2.83-13.87.36-1.11.72-2.21 1.07-3.31.26 2.3.53 4.6.82 6.91.33-.29.99-.87 1.32-1.17l.69-3.58c1.54.44 3.08.88 4.62 1.33.2-4.5-.26-8.99-1.17-13.39-.49-5.18-.43-10.43.3-15.59z"/><path d="M248.21 106.11c2.2 5.61 3.56 11.5 5.19 17.29 1.51 7.11 2.98 14.26 3.87 21.47-.02 1.6-.1 3.2-.18 4.8-.6-.08-1.8-.23-2.41-.31-1.33-14.46-3.09-28.91-6.53-43.05l.06-.2zM93.23 163.82c.35-.25 1.04-.77 1.39-1.02.23 1.73.47 3.47.65 5.21.27 9.02 2.23 17.89 2.91 26.88-.21 1.71-.48 3.41-.74 5.11-1.03-.94-2.06-1.87-3.07-2.82.32 3.22-.11 6.44-.06 9.66 1.08 2.67 2.81 5.06 3.55 7.88-.1.47-.3 1.42-.4 1.9-2.14-2.41-3.69-5.29-4.81-8.3-1-2.63-.09-5.53-.77-8.22-.75-1.6-1.9-2.97-2.95-4.39-.22 1.85-.43 3.71-.56 5.57-.25-4.86-.43-9.73.01-14.58-.4 4.02.79 8.01 4.32 10.27.9-7.98 3.58-15.93 2.27-24.02-.27-2.32-1.99-3.99-3.64-5.45.09-.39.27-1.18.37-1.57 1.59 2.25 3.94-1.11 1.53-2.11z" fill="#e0ac9f"/><path fill="#5f3d3d" d="M238.62 124.29c-.47-5.76-1.36-11.51-1.37-17.3 2.44 6.6 3.99 13.48 5.59 20.32.69 7.56.99 15.28-.66 22.74-.3 1.39-.63 2.77-.95 4.15-.82-.1-2.44-.29-3.26-.38.96-3.52 1.62-7.15 1.37-10.81-.38-6.23.2-12.51-.72-18.72z"/><path fill="#573636" d="M150.68 107.25c2.28 2.85 1.71 6.61 1.56 10-.27 1.76-.66 3.51-1.09 5.24a128 128 0 0 1-.25-4.79c.07-3.49-.07-6.97-.22-10.45z"/><path d="M181.85 108c1.24 9.61.65 19.34 1.98 28.96l-1.2 1.84c-.98-9.78-1.54-19.6-1.24-29.43.12-.34.35-1.03.46-1.37zm3.54 34.24c1.07 2.81 1.52 5.82 1.46 8.82-1.34-2.73-2.24-5.77-1.46-8.82zm30.93 177.07c4.18-2.36 7.6-6.23 12.4-7.31-.51 5.19-.77 10.4-.9 15.62-.03.43-.08 1.29-.11 1.72-.22-.93-.66-2.8-.89-3.74-.21.28-.64.83-.86 1.11-.96 1.19-1.9 2.4-2.83 3.63-1.71.58-4.53.25-4.67 2.68-.93 4.05-3.25 7.71-3.56 11.91-.4 3.32-.46 6.67-.54 10-1.82 3.36-2.69 7.07-3.23 10.81-1.79 8.01-3.25 16.1-4.51 24.21-2.19.21-4.41.75-6.6.32-1.16-.79-1.49-2.27-2.21-3.41 1-3.22 2.6-6.31 2.86-9.72-.06-11.38 1.51-22.69 1.69-34.07-.22-4.49 2.94-7.99 4.81-11.79 2.52-4.33 4.57-9.39 9.15-11.97z" fill="#fcd6c5"/><path fill="#ffdac7" d="m229.44 110.38-.08-1.47c2.69 6.51 3.6 13.53 4.89 20.4.57 4.5 1.14 9.01 1.93 13.48-.23 1.6-.52 3.19-.79 4.79-.64-.22-1.28-.45-1.92-.67-.83-7.27-1-14.6-2-21.85-.49-4.92-1.66-9.75-2.03-14.68z"/><path fill="#623a39" d="M179.77 113.94c-.01-1.68.92-3.12 1.62-4.57-.3 9.83.26 19.65 1.24 29.43.29 7.21 2.64 14.08 4.78 20.9-1.93.07-4.09.7-5.91-.15-1.83-4.24-2.03-9.12-4.86-12.92-.16 2.19-.25 4.41-.2 6.61-1.26-2.93-.24-6.03.15-9.03.44-3.13-.29-6.24-.6-9.34.54-1.54 1.07-3.08 1.59-4.62.72.12 1.44.24 2.16.37 0-5.56-.27-11.13.03-16.68z"/><path d="M134.72 111.42c1.86 2.51 1.12 5.63.88 8.49-.56 5.43-.8 10.91-.44 16.37.51-1.04 1.03-2.08 1.53-3.12.71 5 .03 10.01.16 15.02.5-.07 1.51-.22 2.01-.3 1.78-2.95 1.52-6.58 2.01-9.87.29-4.15 2.21-7.93 2.8-12.02.7-4.47.94-9.06 2.53-13.34l1.27-.59c-.15 1.05-.29 2.1-.42 3.16l-.2 1.46c-1.92 7.33-1.26 14.9-1.75 22.38-.86 7.25 1.49 14.39.94 21.65-4.23-6.87-1.28-15.27-2.53-22.82-1.2 7.61.96 15.35-.87 22.85-2.57.08-5.14.14-7.71.2-.37-1.19-.73-2.39-1.06-3.58-.33-2.25-.62-4.5-.82-6.76-1-13.08.15-26.19 1.67-39.18zm35.94 25.94c1.18-7.38.07-14.85.64-22.26.44 3.22 1.03 6.42 1.62 9.61-.5 4.04.52 8.03 1.29 11.96.45-.45 1.34-1.35 1.78-1.8.31 3.1 1.04 6.21.6 9.34-.39 3-1.41 6.1-.15 9.03l.23.86c.06.44.2 1.32.26 1.76.43 1.52.78 3.07 1.11 4.62-4.01-1.92-5.54-6.79-7.14-10.66.52-4.17-.89-8.3-.24-12.46z" fill="#654040"/><path fill="#835f5e" d="M90.77 127.62c1.13-4.28 2-8.64 3.76-12.72.19.59.56 1.76.74 2.34-3.3 13.29-7.25 26.57-7.91 40.32-2.2 18.44-5.5 36.82-5.74 55.43-.27 8.77.39 17.53-.07 26.3-.89-5.08-.84-10.24-1.14-15.36-.48 5.78.19 11.61-.66 17.37-.67-7.76-.51-15.55-.86-23.33-.35-4.82 1.42-10.03-1.01-14.51.31-3.05.69-6.08 1.08-9.11 1.64-9.13 3.34-18.27 4.39-27.49.57-7.73 2.51-15.27 3.3-22.97-2.94 5.65-3.81 12.11-5.03 18.29-.5 7.3-2.6 14.33-3.64 21.55-.9 8.15-2.36 16.23-3.73 24.32-.56-.31-1.68-.92-2.24-1.23-.79.74-1.58 1.48-2.37 2.23.28-6.76.79-13.6-.15-20.32-.48 3.27-.58 7.18-3.93 8.92-1.88 1.91-4.38.4-6.34-.47.52-.77 1.05-1.54 1.57-2.3-1.11-.14-2.23-.27-3.34-.4.43-2.4.9-4.93-.46-7.13 1.25-8.52 3.25-16.89 4.85-25.34 2.49-12.76 7-24.99 10.43-37.51 2.15 4.74-2.97 11.56 2.12 14.91.03-1.03.06-2.06.08-3.08.24-.3.72-.9.96-1.19.35 1.39.72 2.77 1.11 4.16.7-2.66.53-5.42.13-8.11.63.42 1.26.84 1.89 1.27.4-.33 1.22-.99 1.63-1.32.87.43 1.74.87 2.62 1.3.63-.37 1.27-.74 1.91-1.11.15 1.96.31 3.92.49 5.88 1.54-3.56 2.47-7.33 3.69-11 .62.47 1.24.94 1.87 1.41z"/><path d="M322.38 128.09c-1-4.49-2.51-9.09-1.69-13.72 3.15 9.19 5.91 18.52 7.95 28.03 1.64 7.64 4.07 15.11 5.36 22.83-1.79 3.15-.71 6.72.09 9.97-.13 1.26-.27 2.51-.41 3.76-.55.77-1.1 1.54-1.64 2.31.86.73 1.72 1.45 2.59 2.18-.84.64-1.68 1.27-2.52 1.91.77.72 1.54 1.43 2.31 2.15-1.27 1.37-2.7 2.63-3.61 4.28-1.36 3.82 1.11 8.53-2.04 11.78-.65 4.01-1.85 7.99-1.31 12.11-2.44 2.65-2.48 6.32-2.66 9.7-2.08-16.04-3.67-32.19-7.01-48.04-.65-3.33-.06-6.68.5-9.97.45-2.25-.72-4.41-.53-6.65.6-4.92-.87-10 1.23-14.7-.47-.54-.94-1.09-1.4-1.63.8-1.19 1.61-2.37 2.45-3.53-.27-2.15-.7-4.27-1.41-6.31.65-.62 1.35-1.2 2.02-1.81-.27-.28-.81-.83-1.08-1.11.93-1.18 1.88-2.36 2.81-3.54zM182.63 138.8l1.2-1.84c.2 1.36.4 2.72.62 4.08.12-1.28.23-2.57.43-3.84l.99-1.16c1.45 7.71 3.42 15.32 6.65 22.48-.79 0-1.59-.05-2.37-.09-.24.5-.71 1.5-.94 2l.02-1.12c-.45.1-1.37.29-1.82.39-2.14-6.82-4.49-13.69-4.78-20.9m2.76 3.44c-.78 3.05.12 6.09 1.46 8.82.06-3-.39-6.01-1.46-8.82z" fill="#a27875"/><path d="M147.05 115.22c.24.43.71 1.29.95 1.72.19 10.59.89 21.16 1.43 31.74l-3.42.18c-.46-10.73-.37-21.5.84-32.18l.2-1.46zM91.33 167.5c1.65 1.46 3.37 3.13 3.64 5.45 1.31 8.09-1.37 16.04-2.27 24.02-3.53-2.26-4.72-6.25-4.32-10.27 1.08-6.39 1.84-12.82 2.95-19.2z" fill="#fbc1b1"/><path d="M145.1 139.06c.49-7.48-.17-15.05 1.75-22.38-1.21 10.68-1.3 21.45-.84 32.18l3.42-.18c-.54-10.58-1.24-21.15-1.43-31.74.72 1.36 1.35 2.77 1.86 4.23.14 7.76.52 15.52.92 23.28-1.11 4.39-1.51 9.48 1.34 13.33.02-3-.31-5.97-.66-8.93 1.5-4.61.62-9.48.6-14.22l.43-1.27c-.1 4.8 1.11 9.43 2.83 13.87-.69.62-1.41 1.19-2.14 1.77-.09 1.87-.69 3.85.05 5.66.83 1.2 2.28 1.73 3.4 2.63l.51 1.06c-1.33-.32-2.66-.59-3.98-.86-.04.41-.1 1.23-.14 1.64-1.82-1.21-3.87-1.85-6.07-1.75-.23.83-.68 2.5-.91 3.33.55-7.26-1.8-14.4-.94-21.65zm12.99 10.38c.45.3 1.34.89 1.78 1.18l-.17-1.02c1.56 2.22 2.92 4.56 4.24 6.93-1.33-.02-2.65-.03-3.98-.04-.16 1.36-.33 2.72-.51 4.08-.67-3.68-.95-7.41-1.36-11.13z" fill="#9f6263"/><path fill="#6a4242" d="M152.24 117.25c2.17 1.75 4.9 2.45 7.6 2.9.91 4.4 1.37 8.89 1.17 13.39-1.54-.45-3.08-.89-4.62-1.33l-.69 3.58c-.33.3-.99.88-1.32 1.17-.29-2.31-.56-4.61-.82-6.91-.35 1.1-.71 2.2-1.07 3.31l-.43 1.27c-.51-4.03-.66-8.09-.91-12.14.43-1.73.82-3.48 1.09-5.24z"/><path fill="#653d3d" d="M203.81 126.01c-.31-3.16-1.43-6.54.12-9.55.75 3.22 1.35 6.48 1.8 9.76.34 2.22.77 4.42 1.37 6.59.77 3.03 1.08 6.14 1.37 9.25.41 4.76 1.31 9.46 2.03 14.19-1.27.83-2.55 1.64-3.82 2.46-2.62-2.49-2.32-6.21-2.89-9.47-.06 3 .35 6.01.12 9.01-2.22.9-2.22-2.12-2.75-3.47-1.76-9.03-2.8-18.2-4.08-27.31.32-.51.97-1.53 1.29-2.04 1.82.11 3.63.36 5.44.58z"/><path fill="#ffd5c5" d="M129.19 118.24c.12.06.37.19.5.25-.86 10.98-2.21 21.97-1.8 33.02-1.23.03-2.47.07-3.71.11.62-11.26 3.02-22.31 5.01-33.38z"/><g fill="#f9c3b3"><path d="M149.86 121.17c.34-1.16.69-2.32 1.04-3.47a128 128 0 0 0 .25 4.79c.25 4.05.4 8.11.91 12.14.02 4.74.9 9.61-.6 14.22l-.68-4.4c-.4-7.76-.78-15.52-.92-23.28z"/><path d="M143.51 137.89c1.25 7.55-1.7 15.95 2.53 22.82.23-.83.68-2.5.91-3.33 2.2-.1 4.25.54 6.07 1.75.04-.41.1-1.23.14-1.64 1.32.27 2.65.54 3.98.86.76.74 1.53 1.49 2.31 2.22.18-1.36.35-2.72.51-4.08 1.33.01 2.65.02 3.98.04.91 1.57 2.11 2.95 3.35 4.27.13-.7.41-2.1.54-2.8.3.52.89 1.56 1.19 2.08 1.32.07 2.64.13 3.96.2-.53-2.97-1.27-5.9-2.47-8.66.09-.45.29-1.35.39-1.8 1.6 3.87 3.13 8.74 7.14 10.66-.33-1.55-.68-3.1-1.11-4.62 1.46-.58 1.38-1.16-.26-1.76l-.23-.86c-.05-2.2.04-4.42.2-6.61 2.83 3.8 3.03 8.68 4.86 12.92 1.82.85 3.98.22 5.91.15.45-.1 1.37-.29 1.82-.39l-.02 1.12c-1.58 4.57-4.9 8.38-5.83 13.2-.36 2.82-3.3 3.88-5.03 5.73-.73-.58-1.45-1.16-2.16-1.73-.39.47-1.17 1.42-1.56 1.89-.88-.87-1.74-1.73-2.61-2.6.46 3.1 1.09 6.25.52 9.38-3.98-5.41-9.36-9.71-15.45-12.51-.09-.74-.28-2.23-.37-2.97.58-.12 1.72-.38 2.3-.5-6.25-4.01-14.18-6.36-21.42-3.73-.34-.88-.66-1.76-.98-2.64l-.08 2.84c-1.77.68-3.52 1.41-5.32 2.01-.39-.16-1.16-.49-1.54-.65l-.51-.49c1.72-1.64 2.47-3.9 3.12-6.12l.87-.66c.28-1.16.52-2.34.71-3.52.33 1.19.69 2.39 1.06 3.58 2.57-.06 5.14-.12 7.71-.2 1.83-7.5-.33-15.24.87-22.85m17.07 33.74c1.53 2.31 3.82 4.28 6.69 4.5-1.69-2.2-4.08-3.66-6.69-4.5z"/></g><path d="m129.69 118.49 1.92.89c-.23 3.76-.55 7.52-.97 11.26-.79 4.82-1.92 9.61-1.8 14.52a31.4 31.4 0 0 0 .23 5.65c.23 2.21.5 4.43.72 6.65-.02.86-.05 2.58-.06 3.44-.46-.82-.89-1.65-1.3-2.5-.26-2.29-.4-4.59-.54-6.89-.41-11.05.94-22.04 1.8-33.02zm-34.42 49.52 1.34-1.36c.45 5.49 1.47 10.91 1.85 16.4 1.48-3.05 2.93-6.11 4.21-9.25l.78 1.54c-1.26 3.82-3.68 7.49-3.25 11.65.35 4.54 1.39 8.99 1.59 13.54.2 6.22 1.5 12.3 2.5 18.42.71 8.83 2.95 17.44 4.99 26.03-.19 1.04-.39 2.08-.6 3.12-2.13-6.03-1.68-13.17-5.86-18.31-.39-3.62-1.05-7.21-1.69-10.79-1.28-.7-2.66-1.3-3.67-2.38.1-.48.3-1.43.4-1.9.45 1.59 1.4 2.78 2.84 3.56-.05-7.87-2.17-15.54-2.52-23.39-.68-8.99-2.64-17.86-2.91-26.88zm154.77 29.67c2.78-.73 5.41-2.05 7.58-3.95.61.63 1.83 1.9 2.44 2.53-1.48.85-2.98 1.67-4.58 2.25-.3 0-.92 0-1.23-.01.96 1.7 1.88 3.42 2.77 5.17-1.68-2.28-3.57-4.59-6.58-5.04.34 1.06 1.02 3.17 1.36 4.22-1.14-1.75-2.64-3.21-4.65-3.91.48 2.37 1.08 4.71 1.71 7.04-.55-1.08-1.11-2.17-1.63-3.26-.24-.51-.71-1.54-.94-2.05-.32-.94-.62-1.88-.92-2.82 1.55 0 3.11-.05 4.67-.17zM233.7 369.49l-.12-1.7c5.3 6.34 13.23 9.43 19.2 15.03l-1.05.64-1.88-.69c-4.94-4.97-11.36-8.14-16.15-13.28z" fill="#553232"/><path d="M197.07 133.24c-.27-3.04-.44-6.08-.65-9.12.23 1.11.45 2.23.66 3.35 1.28 9.11 2.32 18.28 4.08 27.31.53 1.35.53 4.37 2.75 3.47.23-3-.18-6.01-.12-9.01.57 3.26.27 6.98 2.89 9.47l1 .75c-.56.66-1.12 1.33-1.67 1.99.74-.03 1.48-.07 2.22-.1.14.3.41.91.55 1.21 4.23 2.1 8.77 3.43 13.29 4.74-.2 2.06-.68 4.08-1.43 6.02.38.55.76 1.1 1.15 1.66-1.91 4.68-3.75 9.42-4.93 14.35 1.12.18 2.25.36 3.37.57.07.44.23 1.31.31 1.75l2.06-.32c-.32 1.21-.63 2.43-.92 3.65-4.2-.66-8.38-1.79-12.66-1.47-.36-.26-1.08-.79-1.44-1.05-.68 2.29-1.45 4.54-2.42 6.73-.59-9.97 3.19-19.57 3.54-29.45-4.26-1.14-7.92-5.87-12.65-3.76-3.26 2.27-6.02 5.99-5.65 10.17.22 6.02-1.59 11.93-.7 17.95-.62 4.03-1.53 8.07-3.14 11.84l-1.2-2.32c-1.65-.94-3.29-1.88-4.93-2.83-.58-2.43-.65-6.98-4.29-6.4-4.35.59-9.9-.2-12.68 3.98-2.47 3.19-6.13 5.01-9.56 6.96.78 2.07 1.74 4.06 2.88 5.95-.28 2.87-.07 5.8 1.56 8.28-.67.87-1.34 1.74-2 2.61.45 1.18.9 2.36 1.35 3.55-.75-.06-1.51-.11-2.26-.16.14 7.11-6.19 11.65-10.8 16.07-5.25 2.38-10.47 7.44-8.98 13.75-.41.09-1.24.27-1.66.36.52 1.1 1.04 2.19 1.57 3.29-.69 2.1-1.41 4.19-2.15 6.27-.71.11-1.4.23-2.1.34-.49 1.62-.97 3.23-1.46 4.84l-1.74.12c-2.37 1.54-5.24 1.15-7.91 1.22-3.37-5.18-5.22-11.13-7.63-16.78 2-3.03-.03-6.38.05-9.63 1.72 2.11 3.26 4.35 4.8 6.6 2.58-2.02 3.07-5.27 3.41-8.33 3.74-.76 6.98-2.76 9.93-5.1.7-.08 1.41-.16 2.11-.23 5.25-5.22 10.35-11.65 10.7-19.35-.36-3.46-2.76-6.24-4.69-9-1.29-.55-2.57-1.12-3.85-1.7-.72-1.55-1.61-3.02-2.59-4.42 6.24.65 12.65 3.41 18.79.69.93-2.79 3.12-4.58 5.83-5.54-.07-.48-.2-1.44-.26-1.92-.06-.66-.17-1.96-.23-2.61 4.49-.16 10.13-.39 12.89-4.54.55-.82 1.09-1.65 1.63-2.47.38.38 1.14 1.15 1.53 1.54-.04-.92-.06-1.82-.08-2.73.57-3.13-.06-6.28-.52-9.38.87.87 1.73 1.73 2.61 2.6.39-.47 1.17-1.42 1.56-1.89.71.57 1.43 1.15 2.16 1.73 1.73-1.85 4.67-2.91 5.03-5.73.93-4.82 4.25-8.63 5.83-13.2.23-.5.7-1.5.94-2 .78.04 1.58.09 2.37.09.41-.34 1.21-1.03 1.61-1.37.65.79 1.3 1.58 1.96 2.37 1.3-.16 2.6-.31 3.91-.45-.89-8.62-2.2-17.19-2.93-25.83zm-89.37 35.92c3.75.7 8.45-2.37 11.36.95 1.43 2.54 3.12 4.93 5.43 6.76-2.22-.49-4.43-1.08-6.61-1.7 1.09.9 2.19 1.82 3.16 2.86-3.3.95-6.44-1.24-9.32-2.59.66.78 1.32 1.57 2.01 2.34-2.08 2.79.78 5.25 2.48 7.28-.75.54-1.49 1.11-2.22 1.68.36-.11 1.1-.34 1.46-.46 1.7 1.8.03 3.67-.72 5.4.56-.02 1.7-.07 2.26-.09.62 1.64 2.89 3.45 1.81 5.18-5.01-.17-9.88-2.5-15.02-1.58-.48 1.84-1.06 3.67-1.99 5.34-.2-4.55-1.24-9-1.59-13.54-.43-4.16 1.99-7.83 3.25-11.65 1.39-2.08 2.94-4.05 4.25-6.18z" fill="#fddbcb"/><path fill="#b7857f" d="M205.73 126.22c.85-.9 1.7-1.8 2.56-2.7.72 2.24 1.25 4.53 1.67 6.84.28 2.86.39 5.73.31 8.61-1.23-1.96-2.21-4.06-3.17-6.16-.6-2.17-1.03-4.37-1.37-6.59z"/><path fill="#623d3c" d="M234.25 129.31c.38-.39 1.15-1.17 1.53-1.56.72 6.85 3.45 13.96 1.26 20.75a90.29 90.29 0 0 0-.86-5.71c-.79-4.47-1.36-8.98-1.93-13.48z"/><path fill="#9e6d6b" d="M130.64 130.64c.15 5.14.01 10.3.48 15.43.03 1.72 1.02 3.15 1.93 4.53.2 2.26.49 4.51.82 6.76-.19 1.18-.43 2.36-.71 3.52l-.87.66c-.54-1.53-1.45-2.87-2.5-4.08-.22-2.22-.49-4.44-.72-6.65 1.67-1.53 1.92-4.42-.23-5.65-.12-4.91 1.01-9.7 1.8-14.52m.58 22.82c-.85 1-.61 3.01.63 3.61 1.44-.4.77-3.64-.63-3.61z"/><path fill="#5b3838" d="M190.31 130.68c2.4 5.95 1.55 12.49 3.07 18.63 1.02-.8 2.61-1.51 2.24-3.1-.43-4.37-1.14-9.05 1.45-12.97.73 8.64 2.04 17.21 2.93 25.83-1.31.14-2.61.29-3.91.45-.66-.79-1.31-1.58-1.96-2.37-.4.34-1.2 1.03-1.61 1.37-3.23-7.16-5.2-14.77-6.65-22.48.19-1.06.39-2.12.58-3.18 1.34 3.24 2.44 6.58 3.26 9.99-.05-4.07.09-8.14.6-12.17z"/><path d="M123.55 133.84c-.12 5.83-.71 11.65-1.28 17.45-.99 3.75-.94 7.64.3 11.33.71-1.27 1.17-2.67 1.4-4.11 1.48-.03 2.97-.07 4.46-.11.41.85.84 1.68 1.3 2.5.01-.86.04-2.58.06-3.44 1.05 1.21 1.96 2.55 2.5 4.08-.65 2.22-1.4 4.48-3.12 6.12-1.56.87-3.15 1.67-4.73 2.48-.79-.66-1.57-1.33-2.36-1.99.35 1.33.7 2.66 1.02 4.01l-1.31.39c-.94-.79-1.83-1.61-2.73-2.44-2.91-3.32-7.61-.25-11.36-.95 1.49-2.97 3.66-5.48 5.67-8.09-.01-.6-.04-1.8-.05-2.41.3.3.88.9 1.17 1.2.07 1.96 1.12 4.3 3.51 3.17 2.3-2.24 2.93-5.81 3.18-8.92-.09-6.84 1.33-13.55 2.37-20.27zm7.02 165.46c3.06 2.28 7.04 1.41 10.05-.46 3.9 2.93 7.26 6.54 11.36 9.22 1.27 1.06 4.02 2.36 2.34 4.29-8.08 13.58-14.53 28.06-22.43 41.75-.2-.79-.61-2.35-.82-3.14-1.17-4.39-2.4-8.87-1.7-13.46 2.12-3.43 3.45-7.24 5.2-10.85 2.14-4.64 4.65-9.26 5.22-14.42-.83.1-1.67.21-2.5.32.07-.73.15-1.45.22-2.17-.98-.31-1.97-.62-2.95-.93-1.19-1.72-2.47-3.39-3.88-4.94 0-1.74-.09-3.48-.11-5.21z" fill="#facdbd"/><path fill="#976865" d="M209.34 142.64c.18-1.59.73-3.08 1.62-4.41.22 5.04 2.82 10.35.79 15.25.42.12 1.25.37 1.66.49-.97.76-1.93 1.53-2.91 2.28-.72-4.73-1.62-9.43-2.03-14.19.21.15.65.44.87.58m.7 4.76c-.88 1.28-.67 2.03.62 2.25.87-1.28.66-2.03-.62-2.25z"/><path d="M157.36 142.79c1.19 2.1 2.02 4.41 2.34 6.81l.17 1.02c-.44-.29-1.33-.88-1.78-1.18-.48-2.19-.7-4.42-.73-6.65zm6.26 130.84c1.66-1.39 3.27.62 4.57 1.49-1.15.29-2.3.58-3.44.9 2.97 1.03 6.12 1.37 9.22.73 1.06 1.41 2.12 2.82 3.19 4.23 2.04.98 4.07 2.01 6.16 2.89l-2.96.12c.72 2.59 6.01 4.92 6.04.8h.02c.79 4.17 5.49 2.39 8.47 2.89.22-.56.67-1.67.89-2.23-1.99-.27-3.98-.56-5.97-.74 7.52.02 15.95-.37 21.69-5.92 2.9.14 5.79.38 8.69.49-2.48 2.43-3.73 5.78-6.11 8.29-1.65 1.37-3.39 2.63-5.11 3.91-4.35.48-8.08 2.89-12.14 4.3.02-.45.04-1.35.06-1.8-5.64 1.45-11.44.76-16.76-1.46-1.07-3.78-5.61-3.87-7.35-7.1l.5.9c-1.78-2.58-3.17-5.4-4.36-8.29-1.56.23-3.12.54-4.7.62-1.33-1.29-1.37-3.43-.6-5.02m40.53 11.65c-1.22 1.46 1.5 2.46 2.3 1.2 1.2-1.45-1.5-2.45-2.3-1.2m-5.9.96c-1.2 1.56 1.66 2.7 2.6 1.45 1.25-1.56-1.67-2.77-2.6-1.45z" fill="#fec9bf"/><path fill="#a06e6b" d="M236.18 142.79c.34 1.89.64 3.79.86 5.71-.12 1.71-.14 3.43-.01 5.15l.94.17c.82.09 2.44.28 3.26.38 2.25-.1 4.5-.35 6.75-.58 1.02.7 2.04 1.41 3.06 2.12.21-1.19.41-2.39.62-3.59.88.63 1.76 1.26 2.65 1.9.15-1.56.31-3.12.37-4.69.61.08 1.81.23 2.41.31.08-1.6.16-3.2.18-4.8.41 3.35.26 6.89 1.71 10.01.32 1.34 1.54 1.58 2.76 1.54.34.54.7 1.09 1.07 1.63.79.27 1.58.55 2.37.86l.84.96c-.38.16-1.12.46-1.49.62-2.25-1.53-4.76-2.69-7.51-2.88-9.69-1.25-19.47-2.37-29.26-2.02.36-.17 1.09-.5 1.45-.67 1.4-.66 2.81-1.3 4.23-1.93.04-2.03.09-4.05.03-6.08.64.22 1.28.45 1.92.67.27-1.6.56-3.19.79-4.79z"/><path d="M81.62 162.18c1.22-6.18 2.09-12.64 5.03-18.29-.79 7.7-2.73 15.24-3.3 22.97-1.05 9.22-2.75 18.36-4.39 27.49-.14-3.03-.06-6.06.44-9.05-.36-.4-1.07-1.18-1.42-1.57 1.04-7.22 3.14-14.25 3.64-21.55zm201.01 54.66c.6-.17 1.78-.51 2.38-.68.36 9.69-1.55 19.25-2.22 28.89-3.27 9.06-1.94 19.08-5.51 28.12-.62-.32-1.84-.95-2.45-1.26 1.84-7.79 3.54-15.6 4.86-23.49 2.16-10.39 2.44-21.02 2.94-31.58zm-52.03 148.9c1.02.62 2.16 1.14 2.98 2.05l.12 1.7c4.79 5.14 11.21 8.31 16.15 13.28l.42 1c-1.65.25-3.47.11-4.86 1.2-.71.03-2.12.1-2.83.13-6.75-4.19-11.19-11.46-11.98-19.36z" fill="#a2837d"/><path fill="#cc9b90" d="M128.84 145.16c2.15 1.23 1.9 4.12.23 5.65a31.4 31.4 0 0 1-.23-5.65z"/><path d="M152.12 157.78c-2.85-3.85-2.45-8.94-1.34-13.33l.68 4.4c.35 2.96.68 5.93.66 8.93zm-20.9-4.32c1.4-.03 2.07 3.21.63 3.61-1.24-.6-1.48-2.61-.63-3.61z" fill="#774a4a"/><path fill="#7f4f4f" d="M155.32 147.23c.8 3.29 1.07 6.68 1.31 10.06-1.12-.9-2.57-1.43-3.4-2.63-.74-1.81-.14-3.79-.05-5.66.73-.58 1.45-1.15 2.14-1.77z"/><path fill="#c08e85" d="M210.04 147.4c1.28.22 1.49.97.62 2.25-1.29-.22-1.5-.97-.62-2.25z"/><path fill="#955b5b" d="M124.18 151.62c1.24-.04 2.48-.08 3.71-.11.14 2.3.28 4.6.54 6.89-1.49.04-2.98.08-4.46.11.08-2.29.1-4.59.21-6.89z"/><path fill="#86605f" d="M260.01 153.18c1.64.82 3.27 1.68 4.89 2.56.09-.7.28-2.09.37-2.78 1.11.98 2.25 1.95 3.3 3-.21 2.12-.44 4.24-.66 6.37-.62-.83-1.26-1.65-1.89-2.46l-.84-.96c-.79-.31-1.58-.59-2.37-.86-.37-.54-.73-1.09-1.07-1.63-.6-1.08-1.17-2.16-1.73-3.24z"/><path d="M176.67 154.1c1.64.6 1.72 1.18.26 1.76-.06-.44-.2-1.32-.26-1.76zm157.42 21.1c-.8-3.25-1.88-6.82-.09-9.97 2.9 11.21 5.55 22.49 8.02 33.81.44 5.61 1.54 11.14 3.72 16.35-1.5 3.64-.15 7.56-.02 11.33-.97-.55-1.95-1.1-2.91-1.64-.28 4.14 2.28 8.59-.06 12.41-.72-3.83-1.46-7.65-2.34-11.45.35 3.94 1 7.83 1.65 11.73-1.8.54-3.83.69-5.38 1.85-1.58 2.58-2.12 5.64-3.47 8.34-2.97.87-5.19 3.08-7.37 5.16-.61-6.53 1.03-13.12-.56-19.56-.17-2.72-.29-5.45-.48-8.18.18-3.38.22-7.05 2.66-9.7-.54-4.12.66-8.1 1.31-12.11 3.15-3.25.68-7.96 2.04-11.78.91-1.65 2.34-2.91 3.61-4.28-.77-.72-1.54-1.43-2.31-2.15.84-.64 1.68-1.27 2.52-1.91-.87-.73-1.73-1.45-2.59-2.18.54-.77 1.09-1.54 1.64-2.31.14-1.25.28-2.5.41-3.76z" fill="#b7817e"/><path fill="#fcd7c7" d="M93.23 163.82c2.41 1 .06 4.36-1.53 2.11.38-.52 1.15-1.58 1.53-2.11z"/><path d="M196.05 165.98c4.73-2.11 8.39 2.62 12.65 3.76-.35 9.88-4.13 19.48-3.54 29.45.97-2.19 1.74-4.44 2.42-6.73.36.26 1.08.79 1.44 1.05 4.28-.32 8.46.81 12.66 1.47.29-1.22.6-2.44.92-3.65l1.28-1.2c.61 2.56 2.88 4 4.97 5.27l.32.15c-.35.6-1.05 1.81-1.4 2.42 1.85.66 3.71 1.32 5.57 1.99.08 1.15.17 2.31.26 3.47-.29-.14-.87-.41-1.16-.55.18 1.09 1.24 2.28.76 3.35-5.12 6.4-4.8 15.91-1.48 23.05-.01.75-.03 1.51-.04 2.27 1.34 3 3.77 5.12 6.94 5.99 2.11 6.05 8.55 7.99 13.01 11.82 2.86 3.13.31 7.2-.65 10.55-.64 1.68.04 3.9-1.43 5.16-5.05 3.71-5.86 10.49-10.19 14.89-4.03 5.52-7.78 11.35-12.76 16.09-2.89 2.99-4.76 6.97-8.29 9.33-5.55 2.49-11.59 4.21-16.5 7.9l.1-1.35c2.64-4.05 5.18-8.17 7.67-12.31 1.57-2.48 1.09-5.47-.52-7.79 1.74-1.34 3.48-2.69 5.02-4.26 2.38-2.51 3.63-5.86 6.11-8.29l.58-.62c.86-.94 1.56-1.99 2.26-3.04-2.42-.29-5.25.34-7.22-1.44-5.15-3.95-10.45-8.69-17.14-9.5-2.84-2.81-7.55-2.04-10.87-.57-8.14-.04-13.24 7.09-19.61 11.01-1.3-.87-2.91-2.88-4.57-1.49-.77 1.59-.73 3.73.6 5.02 1.58-.08 3.14-.39 4.7-.62 1.19 2.89 2.58 5.71 4.36 8.29.48.76.95 1.52 1.44 2.29-5.68 2.72-10.33 7.21-13.64 12.52-.32-.41-.96-1.22-1.28-1.63-4.75 2.79-9.76-.9-13.41-3.88-2.86-2.96-7.43-4.12-8.91-8.32-1.11.62-2.23 1.24-3.34 1.86-4.89-5.58-9.89-11.1-13.94-17.34 2.67-.07 5.54.32 7.91-1.22l1.74-.12c.49-1.61.97-3.22 1.46-4.84.7-.11 1.39-.23 2.1-.34.74-2.08 1.46-4.17 2.15-6.27-.53-1.1-1.05-2.19-1.57-3.29.42-.09 1.25-.27 1.66-.36-1.49-6.31 3.73-11.37 8.98-13.75 4.61-4.42 10.94-8.96 10.8-16.07.75.05 1.51.1 2.26.16-.45-1.19-.9-2.37-1.35-3.55.66-.87 1.33-1.74 2-2.61-1.63-2.48-1.84-5.41-1.56-8.28-1.14-1.89-2.1-3.88-2.88-5.95 3.43-1.95 7.09-3.77 9.56-6.96 2.78-4.18 8.33-3.39 12.68-3.98 3.64-.58 3.71 3.97 4.29 6.4 1.64.95 3.28 1.89 4.93 2.83l1.2 2.32c1.61-3.77 2.52-7.81 3.14-11.84-.89-6.02.92-11.93.7-17.95-.37-4.18 2.39-7.9 5.65-10.17m.89 82.23c-3.2.51-6.17-1.94-9.25-1.58-2.46-1.21-5.32-2.03-7.93-.76-.64.93-1.25 1.88-1.83 2.85 3.6-.16 7.51-.59 10.4 2.04 6.37 4.5 13.74.15 20.29-1.36.02-.26.05-.78.07-1.04-.67-.45-2.02-1.35-2.7-1.8-.4-.22-1.2-.64-1.6-.85l.08-1.75c-2.39 1.59-4.61 3.74-7.53 4.25zm136.33 45.05c1.01-3.29 1.98-6.58 2.98-9.87.27 3.55-.81 7.05-2.98 9.87z" fill="#ffebdc"/><path fill="#b87071" d="M137.6 166.59c7.24-2.63 15.17-.28 21.42 3.73-.58.12-1.72.38-2.3.5.09.74.28 2.23.37 2.97-3.7-1.74-8.39-1.65-11.21-4.96-.25-.26-.76-.77-1.02-1.03-.93.19-1.86.41-2.78.64-1.28-.08-2.53-.26-3.78-.55-.17-.33-.53-.97-.7-1.3m10.14 2.27c.33 1.17 1.96 2.35 3.14 1.67 1.51-1.91-2.47-3.9-3.14-1.67m5.31.72c-1.22 1.38 1.28 3.26 2.4 1.88 1.18-1.36-1.3-2.84-2.4-1.88z"/><path fill="#fdd9ca" d="m273.87 165.57 1.27.3c1.07 1.25 2.15 2.51 3.23 3.76.07 4.07.13 8.13.18 12.19-1.63.35-3.25.7-4.87 1.03-.8-.83-1.61-1.65-2.37-2.51l.27-1.19c-1.6.21-3.19.42-4.78.62 1.49-1.83 2.96-3.66 4.35-5.57-1.17 1.07-2.3 2.17-3.48 3.23-3.42-2.8-7.37-4.8-11.67-5.83.23-1.08.46-2.16.69-3.23 5.11.68 10.29.8 15.36-.26.94.52 1.89 1.05 2.84 1.57-.35-1.37-.69-2.74-1.02-4.11z"/><path fill="#d87b7c" d="M122.08 168.15c.79.66 1.57 1.33 2.36 1.99 1.58-.81 3.17-1.61 4.73-2.48l.51.49c.64 1.3 1.22 2.63 1.82 3.95-.9.67-1.8 1.35-2.69 2.03-1.61-1.14-3.21-2.29-4.82-3.43.89 1.6 1.78 3.2 2.63 4.82-1.68-.86-3.36-1.77-4.83-2.97l1.31-.39c-.32-1.35-.67-2.68-1.02-4.01z"/><path d="M132.38 171.13c-1.37-2.74 2.72-3.9 4.67-3.57.19.74.58 2.22.77 2.96-1.75.6-3.63 1.65-5.44.61zm170.83 101.15c.55-.95 1.15-1.88 1.83-2.74-.57 5.1-1.36 10.18-2.75 15.12-1.07 4.06-2.62 7.97-3.75 12-.56 1.39.06 2.79.38 4.14-3.76 7.21-8.6 14.27-15.82 18.39l-2.49-.28c2.75-4.62 7.45-7.57 10.35-12.05 2.75-4.26 4.79-8.95 6.4-13.75 2.24-6.84 4.83-13.68 5.85-20.83zm-23.17 22.96c.61-.74 1.23-1.48 1.86-2.2-1.12 8.67-5.22 17.02-11.51 23.1l-.48-3.06c2.34-3.11 4.54-6.34 6.36-9.79 1.48-2.57 2.76-5.26 3.77-8.05zm30.22.04c.39.09 1.18.27 1.57.37-3.61 7.78-7.85 15.36-13.39 21.94-1.94 2.48-5.38 2.61-8.16 3.51l-.3-.4c.96-.81 1.93-1.62 2.92-2.41 2.12-.88 4.25-1.89 5.75-3.69 5.13-5.59 8.09-12.7 11.61-19.32zm14.87 14.06c1.03-2.2 2.3-4.27 3.81-6.17-.03.77-.1 2.31-.13 3.08-1.15 1.12-2.41 2.12-3.68 3.09z" fill="#fe9c9a"/><path d="M138.3 167.89c1.25.29 2.5.47 3.78.55.92-.23 1.85-.45 2.78-.64.26.26.77.77 1.02 1.03l-.32 2.25c-1.27-.65-2.53-1.33-3.79-2-.19.5-.59 1.51-.79 2.02-.92-1.05-1.83-2.11-2.68-3.21zm29.89 107.23c6.37-3.92 11.47-11.05 19.61-11.01 3.46 1.54 7.25 1.62 10.87.57 6.69.81 11.99 5.55 17.14 9.5 1.97 1.78 4.8 1.15 7.22 1.44-.7 1.05-1.4 2.1-2.26 3.04l.2-.52c1.35-1.94-1.93-2.83-2.48-.87-2.34 0-4.68-.05-7.01-.15-7.61-4.05-16.33-7.97-25.12-5.84-4.85 1.27-9.84 2.53-14.09 5.3-1.52.02-3.04-.04-4.56-.12l.48-1.34zm14.61 106.17c.72-2.46 1.71-4.82 2.77-7.14-.4 2.48-.14 5.81-2.77 7.14z" fill="#faaea8"/><path fill="#f3ada2" d="M147.74 168.86c.67-2.23 4.65-.24 3.14 1.67-1.18.68-2.81-.5-3.14-1.67z"/><path fill="#b6656a" d="m255.93 168.45.76-.08c-.23 1.07-.46 2.15-.69 3.23 4.3 1.03 8.25 3.03 11.67 5.83-1.92 1.43-5.78 2.04-5.52-1.43-1.45.61-2.91 1.21-4.37 1.81.33-.99.66-1.97 1-2.95-.32-.08-.95-.25-1.26-.33-.84.3-2.5.88-3.33 1.18.37-.83 1.11-2.48 1.48-3.31-1.51.47-2.71 1.5-3.87 2.52l-3.7-.33c.59-1.15 1.2-2.3 1.81-3.44-1.55 1.8-3.23 3.7-5.84 3.71.39-1.41.85-2.79 1.18-4.21 1.52-.28 3.05-.56 4.57-.85 1.33.67 2.67 1.33 4.01 2 .69-1.13 1.37-2.25 2.1-3.35z"/><path fill="#f5b4a7" d="M153.05 169.58c1.1-.96 3.58.52 2.4 1.88-1.12 1.38-3.62-.5-2.4-1.88z"/><path fill="#eea69c" d="M160.58 171.63c2.61.84 5 2.3 6.69 4.5-2.87-.22-5.16-2.19-6.69-4.5z"/><path fill="#e4b0a2" d="M241.03 172.01c1.42-.62 1.85-.2 1.3 1.28-1.43.62-1.86.2-1.3-1.28z"/><path fill="#d28b89" d="M223.53 180.54c1.12-2.94 3.42-5.42 6.63-5.97-1.85 2.29-3.23 5.86-6.63 5.97z"/><path fill="#f9ab9f" d="M113.73 177.78c2.16 1.74 4.66 2.98 7.19 4.1-1.6 1.02-3.18 2.06-4.71 3.18-1.7-2.03-4.56-4.49-2.48-7.28z"/><path fill="#b2a0a0" d="M152.7 177.23c7.09 1.2 13.24 5.42 18.39 10.26-.54.82-1.08 1.65-1.63 2.47-2.33-.13-4.67-.14-7 .02-1.25.06-2.49.11-3.73.16 2.87-1.17 5.85-2.04 8.88-2.73-3.91-1.95-7.96-3.65-12.22-4.67.08-1.18.19-2.35.17-3.52-.69-.23-2.05-.7-2.74-.94l-.12-1.05z"/><path fill="#b19e9e" d="M249.56 180.19c4.64 1.27 9.36 2.56 13.47 5.17-.64 1.74-1.36 3.47-2.43 4.99-.5-1.5-.98-2.99-1.47-4.49-2.99-.86-5.98-1.75-8.82-3.03-.19-.66-.57-1.98-.75-2.64z"/><path d="M230.02 183.39c1.33-1.31 3.78-1.82 4.39.49-.84 2.62-3.83 1.73-4.39-.49zm20.29-.56c2.84 1.28 5.83 2.17 8.82 3.03.49 1.5.97 2.99 1.47 4.49-.96 1.16-1.95 2.29-2.98 3.38-2.17 1.9-4.8 3.22-7.58 3.95-1.77.06-3.4-.49-4.88-1.4 4.38-2.97 6.27-8.34 5.15-13.45zM46.58 258.27l.7.04c.15 3.86.78 7.67 1.79 11.4.34-.35 1.01-1.05 1.34-1.41.04.32.11.96.15 1.28-.26.42-.79 1.26-1.05 1.68 1.02 3.78 2.77 7.28 4.22 10.9-6.4-6.11-7.01-15.58-7.15-23.89zm21.05 26.34c-.33-1.81-1.2-3.63-.7-5.49.7 4.04 2.71 7.68 4.62 11.26 3.29 6.04 7.56 11.74 13.42 15.51.78.59 1.55 1.2 2.32 1.82l-2.11-.8c-9.24-3.93-13.78-13.63-17.55-22.3zm135.26 10.29c1.22-.52 2.45-1.04 3.67-1.57 1.56 3.97-3.37 6.42-5.91 8.6-.05-2.54 1.09-4.84 2.24-7.03zm135.32 2.28c.56-.47 1.68-1.43 2.24-1.9l-.16 1.73c-2.57 3.3-4.97 6.89-8.63 9.09 1.97-3.13 4.43-5.89 6.55-8.92z" fill="#fefcfa"/><path fill="#532d2d" d="M126.16 182.51c2.71 1.68 3.3 5.08 4.81 7.67-.06.36-.18 1.08-.23 1.43 3.5 1.79 7.09 4.26 11.23 3.68 3.37.09 6.26-1.74 8.6-3.98l-.85 1.43c3.06-.64 6.06-1.55 9.01-2.6 1.24-.05 2.48-.1 3.73-.16-1.47.45-2.6 1.34-3.39 2.64-.86-.56-1.72-1.12-2.57-1.67.02.88.05 2.66.07 3.55.06.65.17 1.95.23 2.61-.88-2.48-3.08-3.17-5.29-1.7l-2.43-.21-1.53 1.53c-.47-.57-.93-1.13-1.38-1.68-.3.49-.88 1.47-1.17 1.96a37.74 37.74 0 0 0-1.3 3.24c-.19-1.14-.36-2.29-.5-3.44-.51.32-1.53.95-2.04 1.27.08-.53.24-1.6.33-2.13-.6.21-1.78.62-2.37.83-3.64-1.7-7.6-2.87-10.76-5.42l-2.67 1.38c.44-.91 1.3-2.74 1.74-3.66-1.45.62-2.88 1.26-4.32 1.89l2.79-3.66c-1.7.54-3.39 1.09-5.08 1.66-.17-.22-.51-.67-.68-.9 1.37-1.12 2.73-2.25 4.07-3.41-1.39.2-2.78.42-4.17.65-.22-.28-.67-.85-.9-1.13 2.35-1.42 4.97-.25 6.64 1.61.1-.82.28-2.46.38-3.28z"/><path d="M145.29 183.62c1.79-.02 3.57-.05 5.36-.06.29 3.58-1.37 7.45-4.79 8.94-3.74 1.02-7.62-.22-11.24-1.21.38-1.31.75-2.62 1.12-3.92 1.17.05 2.35.11 3.52.15 1.3.08 2.55-.11 3.77-.6-1.99 1.37.14 3.24 1.8 2.11 3.28.1 4.35-2.69 4.85-5.42-.72.95-1.44 1.92-2.14 2.89-.67-.49-1.33-.99-1.97-1.5l-.28-1.38zm-67.31.11c.35.39 1.06 1.17 1.42 1.57-.5 2.99-.58 6.02-.44 9.05-.39 3.03-.77 6.06-1.08 9.11-.07.58-.22 1.74-.29 2.32-2.25 10.32-3.13 20.91-2.81 31.47-.56-1.2-1.17-2.37-1.73-3.57.16-3.97-.01-7.95-.22-11.91.55-4.57.68-9.18 1.42-13.72 1.37-8.09 2.83-16.17 3.73-24.32z" fill="#b79790"/><path fill="#b08f88" d="M147.54 186.5c.7-.97 1.42-1.94 2.14-2.89-.5 2.73-1.57 5.52-4.85 5.42.22-1.41-.38-2.12-1.8-2.11.84-.65 1.69-1.29 2.54-1.92.64.51 1.3 1.01 1.97 1.5z"/><path fill="#f9c9b8" d="M115.45 186.28c1.25-.67 2.46-1.41 3.69-2.1.23.28.68.85.9 1.13 1.39-.23 2.78-.45 4.17-.65-1.34 1.16-2.7 2.29-4.07 3.41.17.23.51.68.68.9.97 1.29 1.94 2.6 2.89 3.91-.13 1.03-.25 2.08-.37 3.12 1-.83 1.99-1.66 2.99-2.49.91.72 1.83 1.44 2.75 2.16-.22.71-.44 1.42-.65 2.13 2.78-.85 5.71-1.48 8.57-.55.53-.12 1.59-.35 2.12-.47.59-.21 1.77-.62 2.37-.83-.09.53-.25 1.6-.33 2.13.51-.32 1.53-.95 2.04-1.27.14 1.15.31 2.3.5 3.44l.4 1.96c1.67.32 3.02-.58 4.05-1.81.29-.3.87-.92 1.16-1.23.49.48 1 .96 1.5 1.44l2.26-3.01c1.33.48 2.65.96 3.99 1.43-2.71.96-4.9 2.75-5.83 5.54-6.14 2.72-12.55-.04-18.79-.69.98 1.4 1.87 2.87 2.59 4.42 1.28.58 2.56 1.15 3.85 1.7 1.93 2.76 4.33 5.54 4.69 9-.35 7.7-5.45 14.13-10.7 19.35-.7.07-1.41.15-2.11.23-2.95 2.34-6.19 4.34-9.93 5.1-.34 3.06-.83 6.31-3.41 8.33-1.54-2.25-3.08-4.49-4.8-6.6-.08 3.25 1.95 6.6-.05 9.63-1.37-3.26-2.38-6.65-3.29-10.06-2.04-8.59-4.28-17.2-4.99-26.03-1-6.12-2.3-12.2-2.5-18.42.93-1.67 1.51-3.5 1.99-5.34 5.14-.92 10.01 1.41 15.02 1.58 1.08-1.73-1.19-3.54-1.81-5.18-.56.02-1.7.07-2.26.09.75-1.73 2.42-3.6.72-5.4z"/><path fill="#67473e" d="M130.85 185.44c2.79.55 6.53-.52 8.41 2.08-1.17-.04-2.35-.1-3.52-.15-.37 1.3-.74 2.61-1.12 3.92-2.3-1.13-3.15-3.54-3.77-5.85z"/><path fill="#7f615f" d="M241.18 184.98c2.28.93 4.55 1.91 6.83 2.84-.41 1.39-.78 2.83-1.55 4.08l-.31-1.13c-.67-.03-2.02-.08-2.7-.1.08-.47.25-1.4.34-1.86.97-2.2-2.99-2.05-1.74.1l-1.36.36c.16-1.44.32-2.87.49-4.29z"/><path fill="#f9c7b7" d="M270.25 185.56c1.53-.26 3.07-.52 4.6-.8.92-.14 2.75-.41 3.67-.54-.03 7.6.08 15.21-.41 22.8-.6 8.96-.37 17.99-1.69 26.89-1.21 5.19-3.12 10.21-5.22 15.1-.9-1.69-1.48-3.5-1.93-5.35-8.23-2.25-16.11-9.33-15.97-18.42.17-4.57-.21-10.02 3.43-13.41.76-.93 3-2.43.99-3.31-3.77-.44-7.66.27-11.34-.91-4.28-1.37-8.9-1.77-12.78-4.18-.09-1.16-.18-2.32-.26-3.47-1.86-.67-3.72-1.33-5.57-1.99.35-.61 1.05-1.82 1.4-2.42 2.78.81 5.64 1.26 8.45 1.96l.56.92c.65 1.15 1.24 2.31 1.85 3.48.3-.39.9-1.16 1.2-1.55 1.4.09 2.79.18 4.19.26-2.43 1.3.06 3.5 1.81 2.1.52 1.09 1.08 2.18 1.63 3.26-.63-2.33-1.23-4.67-1.71-7.04 2.01.7 3.51 2.16 4.65 3.91-.34-1.05-1.02-3.16-1.36-4.22 3.01.45 4.9 2.76 6.58 5.04-.89-1.75-1.81-3.47-2.77-5.17.31.01.93.01 1.23.01 3.36.49 5.47-2.78 8.25-4.06 1.34-1.14 2.74-2.32 3.3-4.07-.81-.03-2.43-.1-3.24-.14 2.3-.57 4.61-1.08 6.9-1.7l-.44-2.98z"/><path fill="#916a69" d="M220.23 189.9c.61-1.39 1.42-2.68 2.38-3.85.41 1.36.82 2.73 1.27 4.08l-1.28 1.2-2.06.32c-.08-.44-.24-1.31-.31-1.75z"/><path fill="#f9f0ea" d="M143.03 186.92c1.42-.01 2.02.7 1.8 2.11-1.66 1.13-3.79-.74-1.8-2.11z"/><path fill="#e9c6ba" d="M242.05 188.91c-1.25-2.15 2.71-2.3 1.74-.1-.44.02-1.3.07-1.74.1z"/><path fill="#966463" d="M56.99 187.35c1.36 2.2.89 4.73.46 7.13 1.11.13 2.23.26 3.34.4-.52.76-1.05 1.53-1.57 2.3 1.96.87 4.46 2.38 6.34.47 3.35-1.74 3.45-5.65 3.93-8.92.94 6.72.43 13.56.15 20.32.79-.75 1.58-1.49 2.37-2.23.56.31 1.68.92 2.24 1.23-.74 4.54-.87 9.15-1.42 13.72-1.22 6.38-.86 12.89-1.3 19.33-.72-3.22-.96-6.56-2.09-9.68-1.7-4.2-1.24-8.83-1.55-13.25l-2.38 2.68c-.22-1.83-.43-3.67-.65-5.5-.31.28-.95.84-1.27 1.12-.27-.26-.82-.78-1.1-1.04-.19.27-.58.8-.77 1.06-1.15-.93-2.29-1.86-3.44-2.78l-1.59 1.87c-1.08-1.89-2.37-3.64-3.92-5.18 1.13-7.73 2.48-15.44 4.22-23.05z"/><path fill="#ed8487" d="M120.82 188.97c1.69-.57 3.38-1.12 5.08-1.66l-2.79 3.66c1.44-.63 2.87-1.27 4.32-1.89-.44.92-1.3 2.75-1.74 3.66l2.67-1.38c3.16 2.55 7.12 3.72 10.76 5.42-.53.12-1.59.35-2.12.47-2.86-.93-5.79-.3-8.57.55.21-.71.43-1.42.65-2.13-.92-.72-1.84-1.44-2.75-2.16-1 .83-1.99 1.66-2.99 2.49.12-1.04.24-2.09.37-3.12-.95-1.31-1.92-2.62-2.89-3.91z"/><path fill="#5d3930" d="M228.19 187.51c1.91.02 3.82.05 5.73.09.32.75.96 2.23 1.27 2.98-.84-.06-2.53-.17-3.38-.22 3.14 2.13 6.23 5.01 10.26 5.04-.87.63-1.72 1.29-2.56 1.96-.33.27-.99.8-1.33 1.07l-.56-.92c-2.81-.7-5.67-1.15-8.45-1.96l-.32-.15c.78-.17 2.34-.53 3.12-.7-1.68-2.15-3.12-4.51-3.78-7.19z"/><path fill="#c5a89c" d="M235.19 190.58c1.91-.08 3.7-.77 5.5-1.31l1.36-.36c.44-.03 1.3-.08 1.74-.1-.09.46-.26 1.39-.34 1.86.68.02 2.03.07 2.7.1l.31 1.13c-1.38 1.27-2.87 2.41-4.39 3.5-4.03-.03-7.12-2.91-10.26-5.04.85.05 2.54.16 3.38.22m5.33-.47c-.44 1.36.05 1.86 1.48 1.49.44-1.37-.06-1.86-1.48-1.49z"/><path fill="#f4a69e" d="M162.46 189.98c2.33-.16 4.67-.15 7-.02-2.76 4.15-8.4 4.38-12.89 4.54-.02-.89-.05-2.67-.07-3.55.85.55 1.71 1.11 2.57 1.67.79-1.3 1.92-2.19 3.39-2.64z"/><path fill="#f0e3e0" d="M240.52 190.11c1.42-.37 1.92.12 1.48 1.49-1.43.37-1.92-.13-1.48-1.49z"/><path fill="#fec1b1" d="M98.18 194.89c.35 7.85 2.47 15.52 2.52 23.39-1.44-.78-2.39-1.97-2.84-3.56-.74-2.82-2.47-5.21-3.55-7.88-.05-3.22.38-6.44.06-9.66 1.01.95 2.04 1.88 3.07 2.82.26-1.7.53-3.4.74-5.11z"/><path fill="#ed9d91" d="M146.17 195.05c.45.55.91 1.11 1.38 1.68l1.53-1.53 2.43.21c2.21-1.47 4.41-.78 5.29 1.7.06.48.19 1.44.26 1.92-1.34-.47-2.66-.95-3.99-1.43l-2.26 3.01c-.5-.48-1.01-.96-1.5-1.44-.29.31-.87.93-1.16 1.23-1.3-.89-2.25-2.13-3.15-3.39.29-.49.87-1.47 1.17-1.96z"/><path fill="#ffdaca" d="M88.93 195.71c1.05 1.42 2.2 2.79 2.95 4.39.68 2.69-.23 5.59.77 8.22 1.12 3.01 2.67 5.89 4.81 8.3 1.01 1.08 2.39 1.68 3.67 2.38.64 3.58 1.3 7.17 1.69 10.79l.04 2.27c-6.77-3.58-10.75-10.48-13.35-17.41-1.43-4.31-.95-8.91-1.14-13.37.13-1.86.34-3.72.56-5.57z"/><path fill="#f6e6dd" d="M145 197.01c.9 1.26 1.85 2.5 3.15 3.39-1.03 1.23-2.38 2.13-4.05 1.81l-.4-1.96c.38-1.1.82-2.18 1.3-3.24z"/><path d="M238.18 198.43c.34-.27 1-.8 1.33-1.07 1.95.09 3.91.2 5.86.49.3.94.6 1.88.92 2.82l-.87-.05c-1.4-.08-2.79-.17-4.19-.26-.3.39-.9 1.16-1.2 1.55-.61-1.17-1.2-2.33-1.85-3.48zm75.7 53.97c1.28 3.31 1.39 6.88 1.43 10.38.27-.34.81-1.04 1.08-1.38.39.37.79.76 1.19 1.14.84-3.15 1.74-6.42 3.98-8.9.18 3.76 1.14 7.52.55 11.3-.93 4.97.71 10.06-.93 14.96 1.42-3.5 2.51-7.15 2.59-10.96 1.63-1.57 3.48-2.97 5.75-3.44-.6 4.26-1.09 8.54-2.26 12.69-.12-.79-.35-2.37-.47-3.17-1.79 4.04-4.71 7.47-6.18 11.66-1.46 3.22-2.04 6.93-4.39 9.68.28-3.34 2.26-6.63 1.09-9.98 1.57-4.77 3.02-9.65 3.21-14.7-1.1 1.68-1.6 3.63-2.05 5.56-.21-.66-.62-2-.83-2.67-1.57 4.94-3.62 9.71-5.34 14.59.05-2.98-.3-5.94-1.13-8.8.7-9.34 2.37-18.59 2.71-27.96zm-58 66.32c2.38-1.67 4.81-3.27 7.09-5.08-.72 1.57-1.36 3.19-2 4.8 1.03.42 2.06.85 3.11 1.24-2.75-.17-5.48-.55-8.2-.96z" fill="#dc7a7e"/><path fill="#f4e6df" d="m245.42 200.62.87.05c.23.51.7 1.54.94 2.05-1.75 1.4-4.24-.8-1.81-2.1z"/><path fill="#feddcb" d="M232.44 202.88c.29.14.87.41 1.16.55 3.88 2.41 8.5 2.81 12.78 4.18 3.68 1.18 7.57.47 11.34.91 2.01.88-.23 2.38-.99 3.31-3.64 3.39-3.26 8.84-3.43 13.41-.14 9.09 7.74 16.17 15.97 18.42.45 1.85 1.03 3.66 1.93 5.35-2.37 6.33-5.51 12.3-9.09 18.03-9.86 15.69-20.63 31.45-35.92 42.36-4.26 3.31-8.47 6.72-13.07 9.55-1.65-1.87-3.45-5.08-6.36-3.27-5.3 1.54-6.82 8.39-12.19 9.37.43.45.86.9 1.29 1.36-7.64 9.91-11.85 22.01-20.03 31.54-3.32 3.76-6.06 7.98-9.26 11.83-.03-1.73.53-3.33 1.47-4.74 5.93-9.4 11.51-19.01 17.81-28.17 2.48-3.41 4.09-7.49 7.37-10.26.01-.56.02-1.66.02-2.21 3.07-4.03 5.54-8.48 8.67-12.47l-.1 1.35c4.91-3.69 10.95-5.41 16.5-7.9 3.53-2.36 5.4-6.34 8.29-9.33 4.98-4.74 8.73-10.57 12.76-16.09 4.33-4.4 5.14-11.18 10.19-14.89 1.47-1.26.79-3.48 1.43-5.16.96-3.35 3.51-7.42.65-10.55-4.46-3.83-10.9-5.77-13.01-11.82-3.17-.87-5.6-2.99-6.94-5.99.01-.76.03-1.52.04-2.27-3.32-7.14-3.64-16.65 1.48-23.05.48-1.07-.58-2.26-.76-3.35z"/><path fill="#9f6569" d="M74.78 237.25c-.32-10.56.56-21.15 2.81-31.47.17 13.05-.26 26.11.36 39.15-.42-.16-1.26-.47-1.68-.63.25 3.03-.24 6.03-.84 9-.4-5.35-.41-10.71-.65-16.05z"/><path fill="#b27775" d="M320.46 210.02c1.43 8.95 2.16 17.98 2.88 27.01.65-1.15 1.31-2.3 1.94-3.47 1.59 6.44-.05 13.03.56 19.56-.33 5.32-1.8 10.49-2.07 15.82-.08 3.81-1.17 7.46-2.59 10.96 1.64-4.9 0-9.99.93-14.96.59-3.78-.37-7.54-.55-11.3-2.24 2.48-3.14 5.75-3.98 8.9-.4-.38-.8-.77-1.19-1.14-.27.34-.81 1.04-1.08 1.38-.04-3.5-.15-7.07-1.43-10.38-.23-1.69-.43-3.37-.58-5.06.24-2.95 1.12-5.78 2.31-8.47-.81-3.56.34-6.95 2.09-10.02 2.2-3.73-.08-8.07 1.2-11.99.62-2.25 1.17-4.53 1.56-6.84z"/><path fill="#a66569" d="M48.85 236.55c.82-8.79 2.47-17.45 3.92-26.15 1.55 1.54 2.84 3.29 3.92 5.18l1.59-1.87c1.15.92 2.29 1.85 3.44 2.78.19-.26.58-.79.77-1.06.28.26.83.78 1.1 1.04.32-.28.96-.84 1.27-1.12.22 1.83.43 3.67.65 5.5l2.38-2.68c.31 4.42-.15 9.05 1.55 13.25 1.13 3.12 1.37 6.46 2.09 9.68.44-6.44.08-12.95 1.3-19.33.21 3.96.38 7.94.22 11.91-.73 8.93-.68 17.99.84 26.84-.82.61-1.63 1.25-2.42 1.9-.59 1.84-.78 3.77-.75 5.7-.41-2.74-.63-5.5-.55-8.27 1.98-4.24.14-9.18-.59-13.54-1.97-4.29-7.14-4.39-11.18-3.78-.61 1.89-1.22 3.78-1.89 5.65-.56-2.61-1-5.25-1.2-7.91-1.61.01-3.21.04-4.82.08-.55-1.27-1.09-2.54-1.64-3.8z"/><path fill="#cf8988" d="M345.72 226.72c-.13-3.77-1.48-7.69.02-11.33 2.35 6.34 3.51 13.03 5.25 19.55 1.04 3.72 1.61 7.55 1.87 11.42-.44-1.9-1.01-3.77-1.58-5.63-.96 2.85-.85 5.87-.45 8.81-.38 0-1.12.01-1.49.01l-.78 2.97c-1.3 1.45-2.29 3.13-3.14 4.87l-.63.87c-.25-6.96-1.17-13.87-2.04-20.77 2.34-3.82-.22-8.27.06-12.41.96.54 1.94 1.09 2.91 1.64z"/><path fill="#875153" d="M84.72 230.99c.16-3.39-.32-6.89.79-10.16.18 4.02 1.45 7.7 4 10.82.2-.37.59-1.12.78-1.49.77.49 1.55.99 2.32 1.49.13-.64.38-1.91.51-2.55 1.8 1.39 3.62 2.76 5.45 4.11 0 .39-.02 1.17-.03 1.56.71.5 1.41 1.01 2.12 1.53.2.52.6 1.57.8 2.1.38.02 1.13.04 1.51.06 1.4 3.57 1.32 7.51 2.58 11.13 3.03 9.43 5.98 19.11 11.67 27.34 2.71 4.47 6.64 8.03 9.61 12.31 1.18 1.44.95 3.45.58 5.14-1.02.68-1.88-.65-2.7-1.06-3.74-2.56-6.56-6.09-9.44-9.52-8.47-8.08-13.09-19.36-15.78-30.56-.32-1.16-.76-2.28-1.22-3.39.81 11.42 5.02 22.69 12.1 31.72 4.74 6.23 9.78 12.69 16.84 16.39.98 3.13-.27 6.7-.32 9.98-3.8-.23-7.5-1.13-11.13-2.26l-.16-.41c-1.23-3.42-4.77-5.22-6.58-8.28-7.81-12.24-13.77-25.65-17.33-39.73-.9-5.14-5.04-9.02-5.35-14.33-.18 2.1-.41 4.19-.57 6.3-1.52-5.95-1.11-12.16-1.05-18.24z"/><path d="M79.75 241.3c.85-5.76.18-11.59.66-17.37.3 5.12.25 10.28 1.14 15.36.8 7.74 1.35 15.52 2.83 23.18 1.51 8.06 2.76 16.61 7.65 23.45 3.16 4.55 6.4 9.06 8.98 13.98-7.92-6.81-12.02-16.74-15.67-26.27-3.97-10.3-5.15-21.38-5.59-32.33zm-3.48 3c.42.16 1.26.47 1.68.63.45 9.7 1.86 19.33 4.83 28.59-.3 1.79-.69 3.55-1.07 5.33-.68-.65-1.35-1.29-2.02-1.95-2.09-6.54-3.43-13.3-4.37-20.1.04-1.17.07-2.34.11-3.5.6-2.97 1.09-5.97.84-9z" fill="#ab5d62"/><path d="M342.06 237.77c-.65-3.9-1.3-7.79-1.65-11.73.88 3.8 1.62 7.62 2.34 11.45.87 6.9 1.79 13.81 2.04 20.77-.03 10.09-1.67 20.18-4.8 29.78-2.32 6.83-6.71 12.66-11.18 18.21.03-.77.1-2.31.13-3.08 3.81-2.45 5.46-6.86 7.63-10.63 3.4-6.04 5.04-12.89 5.69-19.74.39-6.93 1.39-13.86.78-20.8-.46-4.74-.31-9.52-.98-14.23zm-159.85 91.46c2.93-3.32 4.55-7.79 8.38-10.25.15.66.46 1.98.62 2.64.96-1.05 1.93-2.09 2.93-3.11l.02 1.63c-3.53 6.62-8.05 12.66-12.24 18.87-3.69 6.01-7.68 11.85-11.15 17.99-1.88 3.6-3.97 7.08-6.27 10.42-1.74-1.11-3.56-2.1-5.37-3.08 2.19-4.43 5.36-8.26 7.81-12.54 1.57-2.84 4.58-4.43 7.76-4.6 2.03-3.14 4.15-6.24 5.97-9.52 1.66-2.59-.79-6.11 1.54-8.45z" fill="#ffefe1"/><path fill="#c68484" d="M73.05 233.68c.56 1.2 1.17 2.37 1.73 3.57.24 5.34.25 10.7.65 16.05-.04 1.16-.07 2.33-.11 3.5-.33 1.87-.77 3.73-1.14 5.6l-.29-1.88c-1.52-8.85-1.57-17.91-.84-26.84z"/><path fill="#ba666c" d="M48.85 236.55c.55 1.26 1.09 2.53 1.64 3.8 1.61-.04 3.21-.07 4.82-.08.2 2.66.64 5.3 1.2 7.91.67-1.87 1.28-3.76 1.89-5.65 4.04-.61 9.21-.51 11.18 3.78.73 4.36 2.57 9.3.59 13.54l-.57 1.13c-.65 2.11-1.12 4.3-2.13 6.28-2.1-5.13-2.31-10.71-2.73-16.16-.33.3-1.01.88-1.34 1.17.01-2.81.11-5.68-.71-8.4-.64 5.44-.66 10.92-.84 16.38-.43-2.36-.87-4.73-1.24-7.1-.68 1.91-1.61 3.77-1.89 5.8.03 3.14.58 6.3-.03 9.43-2.03-3.19-1.24-7.19-1.94-10.74-1.22-.34-2.43-.67-3.64-1.01-.11 1.19-.23 2.39-.35 3.59-4.66-2.86-1.42-8.87-4.14-12.85-.62-3.59-.34-7.24.23-10.82z"/><path fill="#cf8183" d="M336.68 239.62c1.55-1.16 3.58-1.31 5.38-1.85.67 4.71.52 9.49.98 14.23.61 6.94-.39 13.87-.78 20.8-.49.48-1.46 1.45-1.95 1.94.76-5.32 1.88-10.94.5-16.2-.41-.28-1.21-.84-1.61-1.12-.76-4.22-.28-8.94-2.61-12.7.05 3.92.56 7.82.6 11.74-2.08 6.73-2.69 13.81-4.85 20.52-.02-4.1-.05-8.2-.32-12.29l-1.35.44c-.29.09-.87.28-1.15.37-2.27.47-4.12 1.87-5.75 3.44.27-5.33 1.74-10.5 2.07-15.82 2.18-2.08 4.4-4.29 7.37-5.16 1.35-2.7 1.89-5.76 3.47-8.34z"/><path fill="#ed8e8f" d="M350.83 249.54c-.4-2.94-.51-5.96.45-8.81.57 1.86 1.14 3.73 1.58 5.63 1.14 10.33-.67 20.76-2.67 30.88-2.26 7.01-5.27 13.98-9.9 19.77l.16-1.73c-.56.47-1.68 1.43-2.24 1.9 5.68-12.41 8.41-26.14 7.21-39.79.85-1.74 1.84-3.42 3.14-4.87l.78-2.97c.37 0 1.11-.01 1.49-.01z"/><path fill="#9d5558" d="M86.34 242.93c.31 5.31 4.45 9.19 5.35 14.33 3.56 14.08 9.52 27.49 17.33 39.73 1.81 3.06 5.35 4.86 6.58 8.28-5.19-2-9.62-5.52-13.22-9.72-1.82-2.23-4.26-4.16-5.19-6.98-.84-3.3-2.2-6.42-3.75-9.43-.22.42-.65 1.26-.87 1.68-4.06-10.05-5.52-20.91-6.8-31.59.16-2.11.39-4.2.57-6.3z"/><path fill="#c17879" d="M303.61 261.09c1.26-6.06.71-12.69 4.01-18.17.34 4.99.36 10 .84 14.99 1.31-4.45 2.22-9 3.59-13.42.07 7.24-.02 14.58-1.62 21.68-.16-.76-.47-2.29-.62-3.06-1.08 2.49-2.46 4.88-4.77 6.43-.68.86-1.28 1.79-1.83 2.74.07-3.73.33-7.46.4-11.19z"/><path fill="#5c4442" d="M62.69 243.87c.82 2.72.72 5.59.71 8.4-.07 8.61 1.81 17.06 4.06 25.33-.14.38-.4 1.14-.53 1.52-.5 1.86.37 3.68.7 5.49-1.84.41-1.87-1.61-2.35-2.71-1.89-7.08-2.68-14.38-3.43-21.65.18-5.46.2-10.94.84-16.38z"/><path fill="#f9c9b9" d="M196.94 248.21c2.92-.51 5.14-2.66 7.53-4.25l-.08 1.75c.4.21 1.2.63 1.6.85-1.83.33-3.6.9-5.32 1.61 2.65.47 5.35.5 8.02.19-.02.26-.05.78-.07 1.04-6.55 1.51-13.92 5.86-20.29 1.36-2.89-2.63-6.8-2.2-10.4-2.04.58-.97 1.19-1.92 1.83-2.85 0 .44.01 1.31.02 1.74 2.15-.18 4.32-.2 6.48-.32.36-.17 1.07-.5 1.43-.66 3.08-.36 6.05 2.09 9.25 1.58z"/><path fill="#dfaca2" d="M179.76 245.87c2.61-1.27 5.47-.45 7.93.76-.36.16-1.07.49-1.43.66-2.16.12-4.33.14-6.48.32-.01-.43-.02-1.3-.02-1.74z"/><path fill="#79494a" d="M277.28 273.17c3.57-9.04 2.24-19.06 5.51-28.12.84.98 2.08 1.98 1.62 3.46-.52 5.71-1.24 11.4-1.74 17.11-1.94 5.8-4.26 11.46-6.27 17.24-.27-.78-.83-2.33-1.1-3.11.61-2.21 1.28-4.4 1.98-6.58z"/><path fill="#dfac9f" d="M200.67 248.17c1.72-.71 3.49-1.28 5.32-1.61.68.45 2.03 1.35 2.7 1.8-2.67.31-5.37.28-8.02-.19z"/><path fill="#d06b70" d="M48.62 247.37c2.72 3.98-.52 9.99 4.14 12.85.12-1.2.24-2.4.35-3.59 1.21.34 2.42.67 3.64 1.01.7 3.55-.09 7.55 1.94 10.74.61-3.13.06-6.29.03-9.43.28-2.03 1.21-3.89 1.89-5.8.37 2.37.81 4.74 1.24 7.1.75 7.27 1.54 14.57 3.43 21.65.48 1.1.51 3.12 2.35 2.71-.48 1.27-.49 2.53-.05 3.77 2.01 5.68 4.95 11.04 9.03 15.5-4.62-2.72-8.97-5.94-12.86-9.64-6.74-6.75-9.5-16.13-13.19-24.66-.04-.32-.11-.96-.15-1.28-1.31-6.89-1.97-13.91-1.79-20.93z"/><path fill="#854c4e" d="M267.26 265.28c3.07-5.16 4.73-10.99 7.51-16.29-.32 5.29-1.96 10.38-2.38 15.66-2.01 9.6-5.61 18.8-8.93 28-4.89 7.52-9.46 15.52-16.29 21.49-3.77 2.77-8.03 6.2-13.03 4.67-.16-2.96-.11-5.99 1.04-8.77.99-3.28 3.98-5.24 5.99-7.85 2.91-3.78 5.84-7.55 8.47-11.53 3.36-4.92 7.81-9.05 10.7-14.29 2.13-3.8 4.81-7.27 6.92-11.09z"/><path fill="#af7371" d="M289.52 249.83c2.48 2.88 1.67 6.9 1.75 10.39-.95 9.73-3.05 19.29-4.94 28.87-.91-4.06-1.36-8.19-1.65-12.32-2.05 6.01-3.77 12.17-4.64 18.47-1.01 2.79-2.29 5.48-3.77 8.05.69-7.42 4.79-14.12 4.64-21.66.45-1.47.92-2.94 1.34-4.42.87-2.78 1.33-5.69 1.18-8.61 2.69-6 4.94-12.27 6.09-18.77z"/><path fill="#c86970" d="M63.4 252.27c.33-.29 1.01-.87 1.34-1.17.42 5.45.63 11.03 2.73 16.16 1.01-1.98 1.48-4.17 2.13-6.28l.57-1.13c-.08 2.77.14 5.53.55 8.27 1.11 6.05 1.85 12.23 4.19 17.96 2.24 5.43 5.11 10.64 8.86 15.18.59.98 1.84 1.91 1.35 3.23-8.35-7.03-14.32-16.55-17.66-26.89-2.25-8.27-4.13-16.72-4.06-25.33z"/><path d="M75.32 256.8c.94 6.8 2.28 13.56 4.37 20.1.86 3.76 2.22 7.39 3.04 11.15-.28 1.18-.82 2.28-1.28 3.41-1.18-1.92-2.27-3.89-3.35-5.86 1.05-3.51-.62-6.9-1.49-10.24-1.28-4.22-2.25-8.55-2.43-12.96.37-1.87.81-3.73 1.14-5.6zm204.72 38.44c.87-6.3 2.59-12.46 4.64-18.47.29 4.13.74 8.26 1.65 12.32-1.62 7.65-4.32 15.18-8.38 21.89-2.7 3.31-5.54 7.24-9.87 8.4l-3.07-.24c1.63-2.02 3.31-4.01 4.9-6.06l.48 3.06c6.29-6.08 10.39-14.43 11.51-23.1-.63.72-1.25 1.46-1.86 2.2z" fill="#ce787c"/><path d="M332.34 276.98c2.16-6.71 2.77-13.79 4.85-20.52.64 8.4-1.8 16.61-3.83 24.67-3.82 11.41-9.09 22.98-18.15 31.16 2.3-4.03 4.84-7.93 7.07-12 3.64-4.74 5.68-10.72 5.82-16.68 1.47-6.07 2.55-12.22 2.57-18.48l1.35-.44c.27 4.09.3 8.19.32 12.29zm6.86-19.56c.4.28 1.2.84 1.61 1.12 1.38 5.26.26 10.88-.5 16.2.49-.49 1.46-1.46 1.95-1.94-.65 6.85-2.29 13.7-5.69 19.74-2.17 3.77-3.82 8.18-7.63 10.63 1.27-3.38 2.67-6.71 4.33-9.91 2.17-2.82 3.25-6.32 2.98-9.87 2.38-8.42 3.8-17.21 2.95-25.97z" fill="#ed8b90"/><path fill="#ba5c63" d="M71.47 262.42c.79-.65 1.6-1.29 2.42-1.9l.29 1.88c.18 4.41 1.15 8.74 2.43 12.96.87 3.34 2.54 6.73 1.49 10.24-4.56-6.9-5.14-15.29-6.63-23.18z"/><path fill="#be6b70" d="m298.66 262.19 1.09-.18c.38 1.37.74 2.75 1.09 4.13.91-1.69 1.87-3.35 2.77-5.05-.07 3.73-.33 7.46-.4 11.19-1.02 7.15-3.61 13.99-5.85 20.83-.44-.01-1.31-.04-1.75-.06.28-1.9.36-3.83-.35-5.65 2.17-8.22 3.42-16.7 3.4-25.21z"/><path fill="#fefcf9" d="M187.8 264.11c3.32-1.47 8.03-2.24 10.87.57-3.62 1.05-7.41.97-10.87-.57z"/><path d="M305.04 269.54c2.31-1.55 3.69-3.94 4.77-6.43.15.77.46 2.3.62 3.06-1.03 8.17-3.31 16.11-6.03 23.86-.7-1.79-1.41-3.58-2.11-5.37 1.39-4.94 2.18-10.02 2.75-15.12zm-9.63 2.55c.25.27.76.82 1.02 1.09-.9 5.89-1.97 11.77-3.9 17.41-1.98 5.78-3.6 12.04-8.01 16.54 4.27-9.12 7.71-18.68 8.67-28.77.74-2.09 1.5-4.17 2.22-6.27z" fill="#d37075"/><path fill="#945557" d="M276.4 282.86c2.01-5.78 4.33-11.44 6.27-17.24.19.75.57 2.24.76 2.98.15 2.92-.31 5.83-1.18 8.61-.13-.57-.38-1.7-.5-2.26-3.18 6.44-5.76 13.22-9.76 19.23.92-4.85 1.95-9.68 3.31-14.43.27.78.83 2.33 1.1 3.11z"/><path fill="#fb6869" d="M186.36 271.28c8.79-2.13 17.51 1.79 25.12 5.84-1.86.01-3.72.11-5.58.23-6.42-3.69-13.72-.23-20.54-2.24 1.16-.22 2.32-.45 3.49-.65l-2.24-1.16c-4.41 2.27-9.42 3.1-14.34 3.28 4.25-2.77 9.24-4.03 14.09-5.3z"/><path d="M81.71 278.85c.38-1.78.77-3.54 1.07-5.33 3.03 7.79 6.03 15.74 11.08 22.49 3.06 4.22 7.25 7.42 10.65 11.34-8.92-2.89-17.86-7.84-23.06-15.89.46-1.13 1-2.23 1.28-3.41-.82-3.76-2.18-7.39-3.04-11.15.67.66 1.34 1.3 2.02 1.95zm102.17-1.57c7.25 1.1 14.82 1.94 22.02.07 1.86-.12 3.72-.22 5.58-.23 2.33.1 4.67.15 7.01.15.62.22 1.86.65 2.48.87l-.2.52-.58.62c-2.9-.11-5.79-.35-8.69-.49-9.17-1.17-19.12 3.72-27.62-1.51zm79.09 36.36c8.64-8.95 13.43-20.63 17.94-32.01.15 7.54-3.95 14.24-4.64 21.66-1.82 3.45-4.02 6.68-6.36 9.79-1.59 2.05-3.27 4.04-4.9 6.06l3.07.24c-1.32.22-2.67.37-4 .3-1.05-.39-2.08-.82-3.11-1.24.64-1.61 1.28-3.23 2-4.8z" fill="#ba5860"/><path fill="#ed7e83" d="M312.3 289.16c1.72-4.88 3.77-9.65 5.34-14.59.21.67.62 2.01.83 2.67-1.55 6.35-4.14 12.39-6.64 18.41-.39-.1-1.18-.28-1.57-.37-3.52 6.62-6.48 13.73-11.61 19.32-1.5 1.8-3.63 2.81-5.75 3.69 4.16-4.71 8.29-9.51 11.59-14.87 1.04-1.55 1.2-3.43 1.37-5.23 3.95-5.06 3.63-11.89 5.31-17.83.83 2.86 1.18 5.82 1.13 8.8z"/><path d="M320.61 286.68c1.47-4.19 4.39-7.62 6.18-11.66.12.8.35 2.38.47 3.17-2.78 11.91-7.79 23.66-16.48 32.47-2.93 3.22-6.51 5.89-10.67 7.27 8.08-9.03 13.04-20.31 17.2-31.55 1.17 3.35-.81 6.64-1.09 9.98 2.35-2.75 2.93-6.46 4.39-9.68zm-146.64-9.93c3.31-.59 6.66-.23 9.91.53 8.5 5.23 18.45.34 27.62 1.51-5.74 5.55-14.17 5.94-21.69 5.92l-3.39.08h-.02c-1.03-.31-2.05-.62-3.08-.92-2.09-.88-4.12-1.91-6.16-2.89-1.07-1.41-2.13-2.82-3.19-4.23z" fill="#fc8083"/><path fill="#8a4d4f" d="M218.49 277.27c.55-1.96 3.83-1.07 2.48.87-.62-.22-1.86-.65-2.48-.87z"/><path fill="#9d5e60" d="M290.61 276.52c1.26 1.63.43 3.72.28 5.56-.77 3.77-.98 7.95-3.57 11.01.8-5.57 2.01-11.09 3.29-16.57z"/><path fill="#b67475" d="M92.57 280.82c.22-.42.65-1.26.87-1.68 1.55 3.01 2.91 6.13 3.75 9.43-2.3-2.07-3.33-5.04-4.62-7.75z"/><path fill="#feefe8" d="m180.36 283.99 2.96-.12c1.03.3 2.05.61 3.08.92-.03 4.12-5.32 1.79-6.04-.8z"/><path d="M322.28 300.29c2.22-5.46 3.95-11.1 5.82-16.68-.14 5.96-2.18 11.94-5.82 16.68zm-99.15 30.05c.93-1.23 1.87-2.44 2.83-3.63.56 7.6-1.53 15.57 1.14 22.88-.04 5.58-.71 11.19.16 16.74-3.1 7.28-2.5 15.55-1.68 23.25l.02.18c-9.5.68-19.02 1.99-28.55 1.05l.16-.89c.18-1.03.39-2.05.6-3.06.72 1.14 1.05 2.62 2.21 3.41 2.19.43 4.41-.11 6.6-.32 1.26-8.11 2.72-16.2 4.51-24.21.54-3.74 1.41-7.45 3.23-10.81.08-3.33.14-6.68.54-10 .31-4.2 2.63-7.86 3.56-11.91.14-2.43 2.96-2.1 4.67-2.68z" fill="#ffe6d9"/><path fill="#573838" d="M172.78 285.42c1.74 3.23 6.28 3.32 7.35 7.1 5.32 2.22 11.12 2.91 16.76 1.46-.02.45-.04 1.35-.06 1.8 4.06-1.41 7.79-3.82 12.14-4.3 1.72-1.28 3.46-2.54 5.11-3.91-1.54 1.57-3.28 2.92-5.02 4.26 1.61 2.32 2.09 5.31.52 7.79-2.49 4.14-5.03 8.26-7.67 12.31-3.13 3.99-5.6 8.44-8.67 12.47 0 .55-.01 1.65-.02 2.21-3.28 2.77-4.89 6.85-7.37 10.26-6.3 9.16-11.88 18.77-17.81 28.17-.94 1.41-1.5 3.01-1.47 4.74 3.2-3.85 5.94-8.07 9.26-11.83 8.18-9.53 12.39-21.63 20.03-31.54-.43-.46-.86-.91-1.29-1.36 5.37-.98 6.89-7.83 12.19-9.37 2.91-1.81 4.71 1.4 6.36 3.27 4.6-2.83 8.81-6.24 13.07-9.55.84.85 1.72 1.7 2.53 2.6-4.8 1.08-8.22 4.95-12.4 7.31-4.58 2.58-6.63 7.64-9.15 11.97-1.87 3.8-5.03 7.3-4.81 11.79-.18 11.38-1.75 22.69-1.69 34.07-.26 3.41-1.86 6.5-2.86 9.72-.21 1.01-.42 2.03-.6 3.06-.68.14-2.04.44-2.71.59.88-3.82 2.3-7.48 3.6-11.16l.4-1.24c.07-11.68.89-23.35 2.14-34.97-3.9 9.11-7.62 18.33-12.35 27.05-1.24 4.28-1.16 8.91-3.14 13.01 2.19 2 4.92 3.69 6.13 6.54-1.27-.33-2.6-.52-3.78-1.11-9.21-7.99-19.4-15-30.59-19.89-11.09-4.16-22.08-9.09-33.92-10.68-6.95-.53-14.39.08-20.34 4.06a48.67 48.67 0 0 1-7.32-4.2c-2.8-3.1-6.65-4.75-9.95-7.19-1.12-.49-2.07-1.26-3.02-2-2.77-1.89-5.59-3.94-7.62-6.62 1.88 2.21 5.02 2.83 6.59 5.34 3.46 1.5 6.52 3.75 9.85 5.5 3.56 1.87 6.02 5.5 9.89 6.8 4.81-1.41 9.2-4.43 14.41-4.42 1.31-5.24 1.72-10.67 3.22-15.86 1.39-3.24 5.57-2.02 8.07-.97l-.15.56c-1.22.21-2.44.38-3.66.51-.58.03-1.73.08-2.31.1-.08.41-.25 1.22-.34 1.62-.5 2.17-.86 4.36-1.18 6.57-.32 2.09-.56 4.2-.73 6.32-.02.34-.08 1-.11 1.34 3.9.36 7.72 1.18 11.51 2.16-.05-2.12-.09-4.23-.29-6.34l1.56-.38c.21.79.62 2.35.82 3.14 7.9-13.69 14.35-28.17 22.43-41.75 1.68-1.93-1.07-3.23-2.34-4.29-4.1-2.68-7.46-6.29-11.36-9.22-2.3-1.76-4.48-3.7-6.27-5.99-.68-1.36-1.26-2.77-1.85-4.15 1.07.75 2.15 1.5 3.19 2.31 4.85 5.85 11.32 10 17.03 14.94 1.14.94 2.26 1.9 3.39 2.86 1.32-2.01 2.62-4.02 3.9-6.04.27-.41.81-1.23 1.07-1.64 3.31-5.31 7.96-9.8 13.64-12.52-.49-.77-.96-1.53-1.44-2.29l-.5-.9m-4.87 16.37-1.03-.48c-.23-1.91.53-3.75.82-5.59-3.9 3.76-6.4 8.64-9.5 13.02-6.71 10.93-12.12 22.58-18.22 33.83-2.75 4.69-5.26 9.55-7.6 14.45.46 1.78 2.61 1.83 4.04 2.36 3.23.74 6.29 2.14 9.58 2.66 2.05-2.09 3.38-4.87 4.14-7.68 2.53-5.38 4.47-11 6.78-16.47 4.56-11.59 10.6-22.51 16.63-33.38l-.64-.31c1.95-3.24 3.79-6.58 5.03-10.15.56-1.52-.38-2.94-.87-4.3-5.33.92-10.71 6.48-9.16 12.04m11.96-9.19c-2.34 7.8-6.44 14.88-9.83 22.2l-1.67 2.34c2.45 1.5 5 2.8 7.6 4.01.83-1.15 1.65-2.31 2.45-3.48 5.77-7.19 10.7-15.42 18.29-20.86-5.33-2.27-11.57-1.49-16.84-4.21m26.69.73c-1.22.53-2.45 1.05-3.67 1.57-1.77 1.25-3.52 2.52-5.21 3.87-.68 1.62-1.59 3.15-2.92 4.33.8-1.45 1.56-2.92 2.29-4.41-4.1 3-7.06 7.21-10.24 11.1-10.53 12.56-18.38 27.02-27.43 40.61-3.24 4.52-6.56 8.98-9.71 13.57 5.01 1.59 9.86 3.63 14.69 5.7.03-.56.11-1.69.14-2.25 2.3-3.34 4.39-6.82 6.27-10.42 3.47-6.14 7.46-11.98 11.15-17.99 4.19-6.21 8.71-12.25 12.24-18.87 2.8-3.44 4.87-7.4 7.72-10.8-.79-.02-2.36-.07-3.14-.09 1.02-.32 2.03-.67 3.03-1.06 2.09-3.59 5.41-6.41 6.91-10.35.76-1.67.03-3.4-.84-4.85-.32.09-.96.26-1.28.34m-.84 25.3-.72.3c-2.55 2.48-6.39 5.21-5.62 9.26l-1.03-1.87c-5.71 7.89-10.5 16.4-15.01 25.03-4.64 7.27-10.77 13.42-15.73 20.47 4.66 2.39 8.98 5.34 13.29 8.3 1.49-4.04 3.47-7.87 5.78-11.5 6.86-12.55 11.53-26.2 19.3-38.27l-3.51.4c2.35-1.24 4.77-2.66 5.99-5.14 1.32-2.38 3.78-5.8 1.25-8.22-1.48-.68-2.77.61-3.99 1.24m-37.72.23c-7.3 12.75-11.87 26.81-17.8 40.21 3.03-2.69 4.86-6.36 7.21-9.59 5.89-9.07 11.94-18.04 17.68-27.2-2.33-1.22-4.7-2.35-7.09-3.42m14.8 62.43c2.63-1.33 2.37-4.66 2.77-7.14-1.06 2.32-2.05 4.68-2.77 7.14z"/><path fill="#fef3ed" d="m186.42 284.79 3.39-.08c1.99.18 3.98.47 5.97.74-.22.56-.67 1.67-.89 2.23-2.98-.5-7.68 1.28-8.47-2.89z"/><path fill="#fdfbf7" d="M204.15 285.28c.8-1.25 3.5-.25 2.3 1.2-.8 1.26-3.52.26-2.3-1.2z"/><path fill="#a14e51" d="M264.51 297.41c2.63-3.99 4.01-8.63 6.43-12.74-1.28 6.29-2.64 12.74-6.09 18.26-1.86 3.39-4.82 6.07-6.42 9.62-2.21 1.92-5 2.9-7.79 3.62 5.22-5.8 9.54-12.29 13.87-18.76z"/><path fill="#eb7679" d="M298.54 296.66c1.13-4.03 2.68-7.94 3.75-12 .7 1.79 1.41 3.58 2.11 5.37-1.41 3.79-3.36 7.34-5.48 10.77-.32-1.35-.94-2.75-.38-4.14z"/><path fill="#fef7ef" d="M198.25 286.24c.93-1.32 3.85-.11 2.6 1.45-.94 1.25-3.8.11-2.6-1.45z"/><path fill="#fed9ca" d="M134.14 289.16c1.11-.62 2.23-1.24 3.34-1.86 1.48 4.2 6.05 5.36 8.91 8.32 3.65 2.98 8.66 6.67 13.41 3.88.32.41.96 1.22 1.28 1.63-.26.41-.8 1.23-1.07 1.64-2.68.41-5.24 1.36-7.29 3.18-5.71-4.94-12.18-9.09-17.03-14.94-.52-.62-1.04-1.23-1.55-1.85z"/><path fill="#eb7078" d="M295.26 287.4c.71 1.82.63 3.75.35 5.65.44.02 1.31.05 1.75.06-1.61 4.8-3.65 9.49-6.4 13.75-2.9 4.48-7.6 7.43-10.35 12.05l2.49.28c-.75.44-1.51.89-2.26 1.33-.75.43-1.51.85-2.28 1.24-2.28.07-4.57.08-6.85.11 13.21-6.65 19.67-20.97 23.55-34.47z"/><path d="M167.91 301.79c-1.55-5.56 3.83-11.12 9.16-12.04.49 1.36 1.43 2.78.87 4.3-1.24 3.57-3.08 6.91-5.03 10.15-1.66-.82-3.34-1.61-5-2.41m3.4-4.54c.36.17 1.08.52 1.44.7 1.79-2.21 3.14-4.73 4.15-7.38-3.01.91-4.32 4.11-5.59 6.68zm35.25-3.92c.32-.08.96-.25 1.28-.34.87 1.45 1.6 3.18.84 4.85-1.5 3.94-4.82 6.76-6.91 10.35-1 .39-2.01.74-3.03 1.06-.42-.33-1.25-.99-1.67-1.32 1.42-1.97 4.96-4.25 1.91-6.61-.64 1.78-1.23 3.59-1.8 5.4-1.3-.55-2.6-1.11-3.9-1.66l1.48-1.96c1.33-1.18 2.24-2.71 2.92-4.33 1.69-1.35 3.44-2.62 5.21-3.87-1.15 2.19-2.29 4.49-2.24 7.03 2.54-2.18 7.47-4.63 5.91-8.6zm-.84 25.3c1.22-.63 2.51-1.92 3.99-1.24 2.53 2.42.07 5.84-1.25 8.22-1.22 2.48-3.64 3.9-5.99 5.14-1.09-.77-2.37-1.41-3.09-2.56-.77-4.05 3.07-6.78 5.62-9.26-.56 1.45-.21 2.49 1.06 3.12 1.95-.26 1.06-3-.34-3.42m-4.66 9.66c2.42-.85 3.09-3.45 4-5.55-2.91-.32-4.46 3.07-4 5.55z" fill="#fd8083"/><path fill="#fdeae8" d="M171.31 297.25c1.27-2.57 2.58-5.77 5.59-6.68-1.01 2.65-2.36 5.17-4.15 7.38-.36-.18-1.08-.53-1.44-.7z"/><path fill="#fab6a9" d="M130.57 299.3c-.07-2.72.64-5.94 3.78-6.45 1.79 2.29 3.97 4.23 6.27 5.99-3.01 1.87-6.99 2.74-10.05.46z"/><path fill="#fee6d9" d="M179.87 292.6c5.27 2.72 11.51 1.94 16.84 4.21-7.59 5.44-12.52 13.67-18.29 20.86-.13-1.46-.12-2.93-.04-4.39-1.59-.57-3.19-1.13-4.78-1.68-1.12 1.59-2.26 3.17-3.44 4.71l-.12-1.51c3.39-7.32 7.49-14.4 9.83-22.2z"/><path d="M158.2 308.74c3.1-4.38 5.6-9.26 9.5-13.02-.29 1.84-1.05 3.68-.82 5.59-.05 2.31.79 4.92-.57 7.02-1.3 2.15-3.08 3.95-4.74 5.83-1.53-1.53-2.59-3.42-3.37-5.42zm-25.82 48.28c2.34-4.9 4.85-9.76 7.6-14.45.15 1.51.37 3.02.67 4.51 2.59 2.54 2.25 6.48 2.91 9.79 2.7.57 3.96-1.64 5.12-3.64.37.28 1.09.85 1.46 1.13-.76 2.81-2.09 5.59-4.14 7.68-3.29-.52-6.35-1.92-9.58-2.66-1.43-.53-3.58-.58-4.04-2.36z" fill="#fcd7c8"/><path d="M186.81 309.79c3.18-3.89 6.14-8.1 10.24-11.1-.73 1.49-1.49 2.96-2.29 4.41l-1.48 1.96c1.3.55 2.6 1.11 3.9 1.66.57-1.81 1.16-3.62 1.8-5.4 3.05 2.36-.49 4.64-1.91 6.61.42.33 1.25.99 1.67 1.32.78.02 2.35.07 3.14.09-2.85 3.4-4.92 7.36-7.72 10.8l-.02-1.63c-1 1.02-1.97 2.06-2.93 3.11-.16-.66-.47-1.98-.62-2.64-3.83 2.46-5.45 6.93-8.38 10.25-2.33 2.34.12 5.86-1.54 8.45-1.82 3.28-3.94 6.38-5.97 9.52-3.18.17-6.19 1.76-7.76 4.6-2.45 4.28-5.62 8.11-7.81 12.54 1.81.98 3.63 1.97 5.37 3.08-.03.56-.11 1.69-.14 2.25-4.83-2.07-9.68-4.11-14.69-5.7 3.15-4.59 6.47-9.05 9.71-13.57 9.05-13.59 16.9-28.05 27.43-40.61zm-3.47 41.56c4.51-8.63 9.3-17.14 15.01-25.03l1.03 1.87c.72 1.15 2 1.79 3.09 2.56l3.51-.4c-7.77 12.07-12.44 25.72-19.3 38.27-2.31 3.63-4.29 7.46-5.78 11.5-4.31-2.96-8.63-5.91-13.29-8.3 4.96-7.05 11.09-13.2 15.73-20.47m3.4 7.01c3.82-.72 4.78-5.33 4.28-8.61-3.17 1.6-4.59 5.19-4.28 8.61z" fill="#fee2d4"/><path fill="#ffe8db" d="m166.88 301.31 1.03.48c1.66.8 3.34 1.59 5 2.41l.64.31c-6.03 10.87-12.07 21.79-16.63 33.38-2.31 5.47-4.25 11.09-6.78 16.47-.37-.28-1.09-.85-1.46-1.13-1.16 2-2.42 4.21-5.12 3.64-.66-3.31-.32-7.25-2.91-9.79-.3-1.49-.52-3-.67-4.51 6.1-11.25 11.51-22.9 18.22-33.83.78 2 1.84 3.89 3.37 5.42 1.66-1.88 3.44-3.68 4.74-5.83 1.36-2.1.52-4.71.57-7.02z"/><path fill="#febcb0" d="M152.72 305.95c2.05-1.82 4.61-2.77 7.29-3.18-1.28 2.02-2.58 4.03-3.9 6.04-1.13-.96-2.25-1.92-3.39-2.86z"/><path fill="#fedbcb" d="M130.68 304.51c1.41 1.55 2.69 3.22 3.88 4.94.98.31 1.97.62 2.95.93-.07.72-.15 1.44-.22 2.17.83-.11 1.67-.22 2.5-.32-.57 5.16-3.08 9.78-5.22 14.42-1.75 3.61-3.08 7.42-5.2 10.85.37-11 .5-22.01 1.31-32.99z"/><path fill="#fbd0c0" d="M173.6 311.6c1.59.55 3.19 1.11 4.78 1.68-.08 1.46-.09 2.93.04 4.39-.8 1.17-1.62 2.33-2.45 3.48-2.6-1.21-5.15-2.51-7.6-4.01l1.67-2.34.12 1.51c1.18-1.54 2.32-3.12 3.44-4.71z"/><path fill="#401f21" d="M127.34 314.46c.37.42 1.13 1.25 1.5 1.66 1.03 6.92.44 13.99.15 20.95-.37-.23-1.11-.68-1.48-.91.07-7.23-.37-14.46-.17-21.7z"/><path fill="#f8c7b7" d="M168 318.86c2.39 1.07 4.76 2.2 7.09 3.42-5.74 9.16-11.79 18.13-17.68 27.2-2.35 3.23-4.18 6.9-7.21 9.59 5.93-13.4 10.5-27.46 17.8-40.21z"/><path fill="#fdcac4" d="m205 318.93.72-.3c1.4.42 2.29 3.16.34 3.42-1.27-.63-1.62-1.67-1.06-3.12z"/><path fill="#fde8e7" d="M201.06 328.29c-.46-2.48 1.09-5.87 4-5.55-.91 2.1-1.58 4.7-4 5.55z"/><path fill="#fffcef" d="M225.96 326.71c.22-.28.65-.83.86-1.11.23.94.67 2.81.89 3.74-.33 6.75-.03 13.51-.61 20.25-2.67-7.31-.58-15.28-1.14-22.88z"/><path fill="#573434" d="M227.82 327.62c.49.34 1.47 1.03 1.96 1.38.07 6.66.02 13.32-.59 19.96.12 2.22-.58 4.93.8 6.83 3.2-.38 6.77-.97 9.05 1.91 4.47-1.95 9.9-1.57 13.74 1.53 4.74 3.26 6.78 9.16 11.62 12.29 4.18 2.31 9.13 2.18 13.71 2.99-1.36 1.08-2.95 1.75-4.65 2.06-2.08.24-4.32.36-6.18-.81-.06.89-.17 2.66-.22 3.54l-.56-.68c-3.39-4.31-6.69-8.69-10.34-12.77-2.41-2.63-4.56-5.96-8.18-6.96-2.37-.8-4.85-.07-7.24.19 2.52 2.57 5.2 5.01 7.47 7.83-3.94-2.72-7.39-6.14-11.6-8.44-2.26-1.5-4.93-.28-7.32.1.42 2.39.86 4.78 1.31 7.17.79 7.9 5.23 15.17 11.98 19.36l.97 1.22c-1.33-.1-2.62-.32-3.89-.66-5.83-4.23-9.69-10.57-11.77-17.37-.16-.49-.47-1.47-.63-1.96-.87-5.55-.2-11.16-.16-16.74.58-6.74.28-13.5.61-20.25.03-.43.08-1.29.11-1.72z"/><path fill="#fd9497" d="M120.65 339.67c.58-.02 1.73-.07 2.31-.1.84 1.47 1.6 2.99 2.25 4.56.25 1.92.36 3.86.52 5.8-.34-1.53-.69-3.05-1.06-4.57-1.61 3.03-1.2 6.53-1.05 9.82-1.75-.24-3.49-.62-5.22-1 .17-2.12.41-4.23.73-6.32.77.26 1.55.53 2.33.8.38-2.5 1.56-5.74-1.15-7.37.09-.4.26-1.21.34-1.62z"/><path fill="#fc7679" d="M125.21 344.13c.41-.17 1.25-.53 1.67-.7.58 1.3 1.17 2.59 1.69 3.93-.3 2.58-.55 5.17-.78 7.77-1.39.04-2.78.06-4.17.05-.15-3.29-.56-6.79 1.05-9.82.37 1.52.72 3.04 1.06 4.57-.16-1.94-.27-3.88-.52-5.8z"/><path fill="#ffe9dc" d="M188.29 370.19c4.73-8.72 8.45-17.94 12.35-27.05-1.25 11.62-2.07 23.29-2.14 34.97-.22-3.18-1.07-6.26-2.12-9.25-2.1 3.93-2.38 8.41-1.24 12.69.96-.77 1.94-1.51 2.96-2.2-1.3 3.68-2.72 7.34-3.6 11.16-.95-.01-1.9-.01-2.84-.01l-.38-.76c-1.21-2.85-3.94-4.54-6.13-6.54 1.98-4.1 1.9-8.73 3.14-13.01z"/><path d="M127.79 355.13c.23-2.6.48-5.19.78-7.77.36 1.31.67 2.64.94 3.98.2 2.11.24 4.22.29 6.34-3.79-.98-7.61-1.8-11.51-2.16.03-.34.09-1 .11-1.34 1.73.38 3.47.76 5.22 1 1.39.01 2.78-.01 4.17-.05zm99.2 33.74c-.05-6.85-.81-13.86.9-20.58 2.08 6.8 5.94 13.14 11.77 17.37-.25.45-.75 1.36-1 1.81-3.81.96-7.74 1.45-11.67 1.4z" fill="#fdddce"/><path fill="#fffdf4" d="M186.74 358.36c-.31-3.42 1.11-7.01 4.28-8.61.5 3.28-.46 7.89-4.28 8.61z"/><path fill="#c7aba0" d="M102.65 362.12c5.95-3.98 13.39-4.59 20.34-4.06 11.84 1.59 22.83 6.52 33.92 10.68 11.19 4.89 21.38 11.9 30.59 19.89-2.98.84-6.07.76-9.05-.01-15.81-1.9-31.33-5.99-46.15-11.81-10.3-3.97-20.37-8.67-29.65-14.69z"/><path fill="#cbb0a5" d="M229.29 358.57c2.39-.38 5.06-1.6 7.32-.1 4.21 2.3 7.66 5.72 11.6 8.44-2.27-2.82-4.95-5.26-7.47-7.83 2.39-.26 4.87-.99 7.24-.19 3.62 1 5.77 4.33 8.18 6.96 3.65 4.08 6.95 8.46 10.34 12.77-4.63 2.94-10.23 3.6-15.38 5.23l.61-.39 1.05-.64c-5.97-5.6-13.9-8.69-19.2-15.03-.82-.91-1.96-1.43-2.98-2.05-.45-2.39-.89-4.78-1.31-7.17z"/><path fill="#d2b5ab" d="M225.58 389.58c-.82-7.7-1.42-15.97 1.68-23.25.16.49.47 1.47.63 1.96-1.71 6.72-.95 13.73-.9 20.58l-1.41.71z"/><path fill="#ffc9bd" d="M195.14 381.55c-1.14-4.28-.86-8.76 1.24-12.69 1.05 2.99 1.9 6.07 2.12 9.25l-.4 1.24c-1.02.69-2 1.43-2.96 2.2z"/></svg>