<svg width="400pt" height="400pt" viewBox="0 0 400 400" xmlns="http://www.w3.org/2000/svg"><path d="M0 0h190.45c-12.4 2.26-25.14 2.69-37.31 6.17-3.92 1.19-7.94 1.98-11.86 3.14-5.53 1.6-10.65 4.32-16.21 5.84-4.91 1.89-9.72 4.09-14.29 6.7-8.77 4.32-17.48 8.97-25.15 15.09-2.18 1.37-4.49 2.57-6.32 4.41-4.7 4.68-10.98 7.58-14.91 13.05-17.9 15.84-32.09 35.61-43.07 56.78-5.81 11.32-9.61 23.47-13.69 35.47-2.43 9.67-4.27 19.48-5.74 29.34-.45 4.48-.49 9.04-1.9 13.37V0zm213.45 0H400v187.26c-1.94-5.09-1.34-10.67-2.56-15.93-3.71-24.89-12.09-49.12-24.99-70.74-5.64-11.2-13.62-20.96-21.33-30.77-2.76-3.17-6.43-5.49-8.73-9.07-2.02-3.06-5.54-4.54-7.96-7.2-3.75-4-7.32-8.4-12.39-10.78-4.85-4.56-10.85-7.58-16.04-11.72-8.09-4.98-16.51-9.45-25.32-13.04-5.1-3.12-10.81-4.86-16.49-6.57-13.18-5.12-27.18-7.54-41.09-9.67-3.19-.63-6.94.39-9.65-1.77zM0 206.63c1.5 11.56 2.81 23.18 5.03 34.64.39-.08 1.18-.25 1.57-.34-1.81 2.44-.16 5.32.35 7.92 2.14 8.45 5.15 16.64 7.92 24.9.15.75.43 1.46.83 2.12l.72 1c.17.67.51 2 .69 2.67.09.4.28 1.19.37 1.59 3.35.08 6.44-1.5 9.69-2.05-3 1.87-7.65 2.39-8.61 6.36.71-.24 2.14-.73 2.86-.97 1.26 5.68 4.02 11.18 8.12 15.34-.46.66-.92 1.32-1.36 1.99l.83.81c1.95 1.95 4.14 3.63 6.47 5.1-.79.85-1.57 1.71-2.34 2.58.37.03 1.11.1 1.48.14 3.21 3.15 4.59 8.04 9.01 9.9.29 1.86-.11 4.01 1.29 5.53 2.99 3.94 6.54 7.41 9.75 11.17.87.9 1.78 1.75 2.74 2.56 2.08 1.51 3.85 3.37 5.35 5.45l.67.81c.48.06 1.46.18 1.94.23 4.58 5.12 10.14 9.29 15.79 13.16-.08 1.06.38 1.75 1.36 2.08 2.91.79 5.21 2.66 6.64 5.31 3.01.5 5.97 1.62 7.93 4.09l.64.91c2.1.58 4.16 1.37 5.64 3.06 2.33 1.73 4.99 2.92 7.58 4.22C137.1 392 166.17 399.02 195.36 400H0V206.63zm397.09 22.28c1.27-6.07 1.01-12.38 2.91-18.32V400H214.89l-.27-.72c2.08-.61 4.22-.98 6.39-1.07 5.06-.18 10.07-1.08 15.02-2.13 5.19-1.14 10.65-1.61 15.39-4.21l.89 1.17c1.28-.31 2.51-.85 3.19-2.04 6-.73 11.48-3.43 17.21-5.14.92-.41 1.85-.81 2.76-1.27 3.96-2.01 8.16-3.45 12.24-5.2 3.2-1.7 6.24-3.67 9.47-5.32 1.34-.86 3.32-1.54 3.27-3.46.99 1.71 2.51-.06 3.7-.53 10.35-6.57 20.38-13.8 29.27-22.25 1.12-.68 2.24-1.37 3.2-2.27 3.47-3.18 6.34-6.96 9.81-10.13.71-.61 1.41-1.24 2.1-1.87 5.81-6.2 10.98-12.95 15.93-19.85 1.69-2.11 1.89-4.81 2.16-7.37l2.68.96c-.44-.62-1.3-1.87-1.73-2.49 1.6-1.47 3.39-2.91 4.2-5 2-4.86 5.32-9.09 6.78-14.19 1.44 1.4 2.74.57 1.48-1.18 1.06-2.93 2.17-5.87 2.52-8.99 1.35-1.31 2.74-2.58 4.12-3.85.08-.88-.31-1.59-1-2.1 2.57-2.58 3.38-6.2 4.4-9.56 2.97-10.19 5.69-20.49 7.02-31.03z" fill="#fff"/><path fill="#e7b6b1" d="M190.45 0h23c2.71 2.16 6.46 1.14 9.65 1.77 13.91 2.13 27.91 4.55 41.09 9.67 5.68 1.71 11.39 3.45 16.49 6.57 8.81 3.59 17.23 8.06 25.32 13.04 5.19 4.14 11.19 7.16 16.04 11.72 5.07 2.38 8.64 6.78 12.39 10.78 2.42 2.66 5.94 4.14 7.96 7.2 2.3 3.58 5.97 5.9 8.73 9.07 7.71 9.81 15.69 19.57 21.33 30.77 12.9 21.62 21.28 45.85 24.99 70.74 1.22 5.26.62 10.84 2.56 15.93v23.33c-1.9 5.94-1.64 12.25-2.91 18.32-1.33 10.54-4.05 20.84-7.02 31.03-1.02 3.36-1.83 6.98-4.4 9.56-7.8-4.39-13.05-11.98-20.64-16.63-3.45-2.19-6.76-4.59-10.38-6.49-5.75-3.06-12.6-3.33-18.17-6.79-3.24-2.17-6.44-4.77-8.04-8.43-5.73-12.96-10.09-26.56-12.46-40.54-.73-4.08-.98-8.23-1.95-12.26-.07-.34-.21-1-.28-1.33-.48-5.28-1.11-10.57-.96-15.88.04-2.02-.01-4.04-.14-6.05-.45-5.37-1.31-10.69-1.84-16.06-1.65-11.74-1.61-24.66-9.05-34.57 4.2.14 9.09.65 12.62-2.08 2.14-2.23 3.66-4.99 5.96-7.1-.69.34-2.07 1.01-2.76 1.34l-.4-2.5c-.18.6-.55 1.81-.74 2.42-5.2 2.28-12.2.7-14.75-4.7 3.34-1.24 6.08 1.47 9.29 1.69 5.78-.88 11.61-5.25 12.05-11.48.87-2.06-.79-3.6-1.95-5.06-1.48 2.79-2.83 5.72-5.08 7.99-2 2.3-4.94 3.41-7.14 5.47 3.8.54 6.69-2.01 9.49-4.12.5-1.12 1.02-2.24 1.54-3.35-.26 3.9-4.03 6-7.19 7.47-1.34-.04-4.82 1.17-4.48-1.06 4.61-4.96 9.26-10.45 10.44-17.35.48-4.65-.99-9.21-2.16-13.66-1.21-4.87-5.24-8.1-8.52-11.59-1.34-1.29-2.62-2.8-4.43-3.42-5.7-2.66-12.32-2.29-18.06-.01-.46.3-.91.6-1.35.92-2.45 1.89-5.19 3.36-8.09 4.42-2.79.86-5.09 2.7-7.15 4.69a325.9 325.9 0 0 0-4.52-2.36c-10.18-5.79-21.69-9.39-33.44-9.61l-2.32-.64c-5.89-2.47-12.31-3.13-18.57-3.98-6.36-.88-12.7.5-19.05.58-4.67.03-9.09 1.67-13.6 2.62-.61.14-1.82.44-2.42.58-3.02.88-6 1.87-8.99 2.83-5.51 1.77-10.32 5.06-15.37 7.78-.44-1.06-.87-2.12-1.35-3.17-1.7-2.97-3.97-6.51-7.77-6.72-1.94-2.34-4.69-4.23-7.89-3.35-2.3-2.15-4.8-4.1-7.52-5.69-1.44-.74-3.13-.41-4.68-.44-7.43-.63-14.01 4.16-17.61 10.35-2.56 4.02-7.78 6.53-7.85 11.84-.66 5.07-1.99 10.31-.54 15.36.99 3.36 2.82 6.49 5.21 9.05 3.25 3.15 8 3.3 12.23 3.71-2.8 3.48-7.81 3.28-11.77 4.41 2.11 4.15 7.81 1.52 10.77-.34-3.45 2.74-8.16 4.6-12.35 2.31.28-.87.85-2.6 1.13-3.47-2.1 1.34-4.28-.58-6.36-1.05.85 2.24 3.17 3.45 4.42 5.43 1.58 2.32 4.49 3.57 7.26 3.13 2.59-.18 4.48-2.14 6.44-3.61-5.5 9.96-10.26 20.33-14.43 30.92-2.45 5.99-3.29 12.47-5.56 18.52-2.49 6.58-2.15 13.73-2.14 20.64-.02 3.45 1.67 6.55 3 9.63 1.44 3.2 2.46 6.85 5.54 8.91 1.45.99 2.22 2.49 2.37 4.23.34 9.78-.27 19.63-2.23 29.24-1.83 10.45-3.56 21.98-11.8 29.55-5.9-1.95-12.71-2.76-18.46.11-5.96 2.8-11.91 5.7-17.27 9.55-3.79 2.77-8.36 4.22-12.09 7.09-2.51 2.26-6.19 2.16-8.8 4.26-5.36 3.86-10.5 8.02-15.65 12.15-2.77-8.26-5.78-16.45-7.92-24.9-.51-2.6-2.16-5.48-.35-7.92-.39.09-1.18.26-1.57.34C2.81 229.81 1.5 218.19 0 206.63v-17.27c1.41-4.33 1.45-8.89 1.9-13.37 1.47-9.86 3.31-19.67 5.74-29.34 4.08-12 7.88-24.15 13.69-35.47C32.31 90.01 46.5 70.24 64.4 54.4c3.93-5.47 10.21-8.37 14.91-13.05 1.83-1.84 4.14-3.04 6.32-4.41 7.67-6.12 16.38-10.77 25.15-15.09 4.57-2.61 9.38-4.81 14.29-6.7 5.56-1.52 10.68-4.24 16.21-5.84 3.92-1.16 7.94-1.95 11.86-3.14 12.17-3.48 24.91-3.91 37.31-6.17z"/><path d="M103.8 42.18c3.6-6.19 10.18-10.98 17.61-10.35-3.16 1.37-6.48 2.41-9.48 4.14-3.36 1.97-5.52 5.32-8.03 8.19-.03-.49-.08-1.48-.1-1.98zm32.34 116.74c.32-.42.96-1.25 1.28-1.67 2.33 3.56 7.08 3.57 10 6.37 2.1 1.9 4.13 3.88 6.23 5.78-1.77 4.37.08 9.58-2.68 13.61-1.08 1.78-3.28 2.1-5.06 2.83-2.36-.04-4.72-.21-7.08-.41-1.05.56-2.11 1.13-3.16 1.71.17-1.77-.74-2.79-2.38-3.15l-2.2 1.28c-.37-.07-1.11-.2-1.48-.26.56-.52 1.67-1.56 2.23-2.08-.53-1.01-1.05-2.02-1.61-3.01 3.32 1.76 6.49 4.21 10.47 4.11-2.48-3.11-5.3-6.23-6.16-10.22-.62-3.57 1.72-6.64 3.36-9.56-1.17.12-3.51.37-4.68.49 1.41-.91 2.72-2.51 4.57-2.24 2.25.4 4.39 1.26 6.58 1.91-3.38-2.98-7.96-3.33-12.26-3.39.16-.58.47-1.75.62-2.33.85.06 2.56.17 3.41.23m3.9 7.24c-1.28.8-1.93 2.21-2.74 3.43.06 1.54.09 3.08.1 4.63-.11 2.48 1.65 4.18 3.3 5.78 1.04.82 2.08 1.65 3.12 2.49 1.71.1 3.43.21 5.14.32.8-1.92 1.62-3.84 2.47-5.75-1.28-5.5-5.81-9.9-11.39-10.9zm9.22 26.42c1.53-.67 3.03-1.39 4.5-2.17.53.31 1.59.92 2.12 1.23-3.44 1.79-6.98 3.4-10.7 4.49.14-.54.41-1.62.55-2.16 1.19-.45 2.37-.9 3.53-1.39z" fill="#4a312d"/><path fill="#756775" d="M121.41 31.83c1.55.03 3.24-.3 4.68.44 2.07 3.74 4.2 7.62 4.6 11.96.48 4.81 1.57 9.76.18 14.52-.63 3.05-2.31 5.71-3.88 8.34 3.53-1.08 4.94-4.94 5.92-8.14 1.58-7.36-1.23-14.66-2.52-21.84 2.96 2.42 4.37 6.09 6.54 9.14 2.06 2.96 2.77 6.55 3.18 10.07.59-1.44 1.2-2.87 1.83-4.3 1.79.86 1.3 2.94 1.66 4.49 1.83-1.08 3.67-2.15 5.49-3.26-1.58.58-3.15 1.18-4.71 1.78.38-4.32-.57-8.53-1.88-12.61 3.19 1.74 4.05 5.54 5.92 8.4.22-.7.64-2.09.85-2.79.48 1.05.91 2.11 1.35 3.17.13.32.39.97.53 1.3 2.77-1.29 5.51-2.64 8.2-4.1 5.53-3.03 11.62-4.78 17.58-6.76-.66-.35-1.31-.7-1.95-1.05.6-.14 1.81-.44 2.42-.58 1.86 1.03 3.92.86 5.87.19 5.24-1.53 10.73-2.21 16.18-1.96 5.32.37 10.8-.52 15.92 1.36 4.33.66 8.89 2.18 13.25 1.19l2.32.64c-1.94 2.65-5.43 1.55-8.22 2.19 5.61.98 11.4-.64 16.93.29.24.41.73 1.23.97 1.65.12-.42.37-1.25.49-1.66 3.43-.39 6.02 2.18 9.13 3.11 4.11 1.34 8.13 2.96 11.89 5.12 1.81 1.02 3.51 2.21 5.18 3.45-1.36 3.05-3.23 6.65-1.62 9.96 2.17 4.37 1.5 9.57 3.94 13.85 1.82 3.38 3.57 7.1 6.92 9.26 2.57 1.66 4.92 3.62 7.45 5.33 2.62 1.61 5.74-.22 8.49.51 2.61 2.07 4.55 5.01 7.63 6.49 2.49 1.28 5.35 1.26 8.07 1.59-2.52.14-5.16.73-7.59-.23-3.01-1.14-5.47-3.3-8.21-4.91 1.28 3.98 5.39 6.47 9.37 7.04 7.44 9.91 7.4 22.83 9.05 34.57-.51-.75-1.03-1.5-1.56-2.24-.54 7.21 1.82 14.12 2.25 21.25.39-.98.79-1.96 1.15-2.95.13 2.01.18 4.03.14 6.05-.47-.66-.93-1.32-1.39-1.97.33 5.71-.01 11.43.18 17.15.54.17 1.63.53 2.17.7.07.33.21.99.28 1.33-2.02 3.13-.77 6.96-.42 10.38 1.46 7.01 3.1 13.98 4.34 21.03 2.91 6.19 5.31 12.62 7.73 19.03-7.18-3.05-11.14-10.29-14.68-16.83-2.25-3.97-2.69-8.58-3.96-12.89-2.24 6.63 1.88 13.26 5 18.89 4.16 7.62 12.01 12 17.17 18.79 2.6 3.03 6.38 4.64 9.88 6.4 4.4 1.95 7.94 5.35 12.28 7.42 3.18 1.85 6.82 3.06 9.55 5.58 2.28 3.08 4.94 5.89 6.99 9.13 1.71 5.75 1.77 11.85 2.38 17.78.58 3.81-1.33 7.33-2.35 10.88-1.7 4.9-2.39 10.05-3.74 15.04-.29 1.56-1.21 3.44.26 4.72-4.95 6.9-10.12 13.65-15.93 19.85-3.52-3.05-7.18-5.94-10.61-9.09.85-.15 2.55-.46 3.4-.61-1.39-4.9-4.66-8.83-7.64-12.82l2.76-.4c-4.93-3.81-8.19-9.08-11.9-13.96-5.21-.02-9.87-2.7-14.54-4.69-6.23-2.58-7.91-10.05-13.44-13.47-2.33-.71-4.86-.16-7.17-.9-1.11-2.17-1.4-4.91-3.56-6.37.27 2.41.87 4.78 1.73 7.06-7.66 1.4-15.62 2.58-22.42 6.63-1.87 1-3.7 2.18-4.72 4.12.5-.09 1.5-.27 1.99-.36 6.07 2.05 12.28 3.7 18.14 6.33-2.11 1.38-3.93 3.27-6.27 4.27-2.06.1-4.27-.63-6.07.76-.87-.24-1.72-.47-2.57-.71-1.13-3.32-4.86-2.83-7.61-3.58-5.42-.95-10.23-3.77-15.44-5.36-1.47-1.5-2.81-3.11-4.17-4.69.94-4.2-2.11-7.84-2.85-11.84 2.45 1.13 5.68 3.43 8.03.83 2.19-4.05-.78-8.4-.37-12.65.5-8.32.16-16.66.95-24.97 1.48-1.5 3.29-2.81 4.24-4.74.44-1.64-.24-3.34-.4-4.97 8.04-2.93 14.87-9.2 18.24-17.08 2.51-7.69.06-15.79-2.52-23.1-1.49-2.93-3.27-6.09-6.41-7.48-5-2.38-8.85-6.59-11.92-11.1 4.72 2.09 8.93 5.15 13.68 7.17 6.79 2.87 13.09 7.16 20.49 8.39.14-11.39-2.75-22.51-4.98-33.6-.49-2.6-1.68-4.99-3.42-6.97-5.19 3.22-9.44 7.65-14.41 11.17-4.73 3.44-8.49 7.97-12.98 11.69-4.71-5.81-6.26-13.74-11.61-19.01 3.86 10.23 9.61 19.58 14.52 29.3-4.28-1.95-7.19-5.78-10.12-9.3-4.98-6.56-9.93-13.14-14.47-20.01 1.45.24 2.9.46 4.36.65-2.01-3.12-6.69-2.82-8.32-6.28-3.68-6.6-7.28-13.41-8.63-20.93-.14 2.66-.57 5.48.54 8 2.2 4.99 4.17 10.1 6.76 14.91-5.31-.49-10.69-.02-15.63 2.11-8.37-7.48-16.21-16-21-26.26-3.42-8.95-3.43-18.72-5.3-28-1.33 6.43.25 12.93.98 19.33.78 6.8 2.64 13.4 4.04 20.09 1.26 6.86 3.94 13.35 5.5 20.14 1.09 4.83 3.83 9.11 4.65 14.01l-.11 1.27c-1.65.21-3.47.69-4.91-.43-7.39-4.57-12.82-12.94-12.56-21.78-.28 0-.85.01-1.13.01.03 5.43 1.6 10.67 3.52 15.7.66.13 1.32.26 1.98.41l.28.31c.04.55.12 1.64.15 2.19-.99.24-1.98.49-2.97.73-3.14-4.31-6.86-8.34-8.68-13.44-3.34-8.76-6.6-17.78-6.95-27.24-.22-3.61-.55-7.2-.86-10.8-.44-4.5 1.36-8.81 1.42-13.28.09-8.46 1.6-16.92 4.55-24.85-1.14 1.1-2.67 2.03-2.94 3.73-1.67 5.99-3.3 12.04-3.52 18.29-1.66 17.87-11.88 33.26-21.73 47.68-1.24 1.08-3.09.86-4.6 1.28.62.94 1.28 1.86 1.8 2.86-1.6 2.26-3.52 4.26-5.19 6.47.59-.05 1.75-.16 2.34-.21-2.04 2.63-5.37 2.81-8.42 2.64 5.7-8.35 9.87-17.7 12.6-27.42 1.23-4.73 3.13-9.53 2.13-14.5-.97 6.54-2.92 12.85-4.97 19.12-2.64 7.03-7.52 12.9-10.73 19.65-2.98 5.54-4.55 11.66-7.21 17.34.17-14.06-.06-28.22 2.34-42.12-2.93 3.03-1.93 7.38-2.57 11.15-1.24 7.93-1.46 15.95-1.8 23.96-.09 5.58-.57 11.32 1.05 16.75.48 1.93 2.15 3.13 3.53 4.41-1.98-4.19-3-8.81-2.43-13.45 4.41 8.35 7.59 17.76 6.41 27.31 3.64 6.23 3.56 13.77 7 20.09 2.9 6.71 8.27 11.75 12.84 17.3 2.66 2.98 5.98 5.28 8.87 8.04 7.4 6.34 15.56 12.85 25.44 14.49 1.8-.17 2.49 1.6 2.18 3.13-.51 4.66-1.38 9.29-2.33 13.89-.35 1.97-1.91 3.38-3.46 4.49-7 4.98-15.86 6.35-24.23 6.93.19.38.56 1.14.75 1.52-.65.06-1.95.17-2.59.23-.39-.35-1.16-1.04-1.54-1.39-2.17.44-4.38.52-6.52-.09-.79.39-1.59.79-2.38 1.18.84-1.87 1.69-3.75 2.75-5.52.11.26.33.76.44 1.01 8.15-.66 16.37-1.57 24.06-4.53-.75-.15-2.24-.44-2.99-.58-1.02-.99-2.04-1.98-3.1-2.92.52-.06 1.58-.17 2.1-.23-3.67-2.91-7.7-5.35-12.03-7.15-5.16 3.08-10.33 6.38-16.22 7.87 0-1.42.01-2.83.02-4.23-1.46 1.74-2.32 4.66-5.01 4.69-7.27.75-14.61.56-21.91.74-9.91 1.26-19.29 5.42-27.45 11.09-.69-.87-1.37-1.74-2.05-2.6.37 6.35-7.67 6.11-10.11 10.49 1.2 3.86 3.97 7.1 4.77 11.09-1.91 4.46-4.89 8.44-8.26 11.91-3.16 3.32-7.44 5.24-10.62 8.52 4.24-.74 7.59-3.6 10.66-6.42 3.82-3.55 6.95-7.74 9.87-12.03-.02 1.09-.04 2.18-.05 3.28.36.38.72.77 1.08 1.16l-.66.37c-.56.28-1.67.83-2.23 1.1-.87 4.52-3.86 8.11-5.59 12.28-1.48 3.46-4.06 6.26-6.71 8.87-3.21-3.76-6.76-7.23-9.75-11.17 1.68-5.68.08-12.12-3.87-16.49l-.26 1.67c-.73-1.45-1.47-2.9-2.2-4.34-1.34 1.22-2.63 2.5-3.97 3.73-.37-.04-1.11-.11-1.48-.14.77-.87 1.55-1.73 2.34-2.58.83-.93 1.69-1.84 2.41-2.86-.08-1.54-.69-2.97-1-4.45-.42-7.46 3.4-14.02 7.8-19.71-.49-.3-1.45-.9-1.94-1.2 4.25-6.74 9.28-13.31 16.23-17.46 4.12-2.48 7.53-5.96 11.69-8.4 5.35-3.2 10.48-6.83 14.99-11.16 1.64.88 2.95-.82 4.18-1.65 3.12-2.41 4.67-6.16 6.48-9.55 2.64-5.05 4.37-10.6 4.85-16.29.69-8.7 2.09-17.32 2.32-26.04-.1-2.56 1.68-6.85-2.32-7.14-.15-1.74-.92-3.24-2.37-4.23.46-3.15-1.99-5.55-3.17-8.24-4.76-8.98-3.99-19.73-1.32-29.22 1.72-5.62 2.51-11.67 5.71-16.71-.18-1.03-.49-2.05-.47-3.09 3.43-8.02 7.53-15.72 11.24-23.6 2.71-5.67 6.8-10.54 9.32-16.31-2.6.28-5.23.59-7.84.31l-1.48-1.56c2.53-.08 5.05-.25 7.53-.7-4.29-1.16-9.44-1.38-11.71-5.89 3.82 1.94 7.96 3.98 12.38 3.19.82-.63 1.52-1.38 2.25-2.1-4.82.92-10.02.07-13.88-3.1-.19.44-.57 1.31-.76 1.74-2.51-3-3.75-6.71-4.02-10.58 4.14 2.46 9.08 3.99 13.68 1.72-2.38-1.22-5.15-.09-7.58-1.08-2.26-.89-4.63-2.21-5.7-4.51-.89-2.31-1.11-4.87-2.37-7.05-1.16 6.62-2 13.86 1.37 20 1.4 3.28 4.28 5.42 6.8 7.76.02.37.04 1.1.05 1.46-5.31-1.42-9.92-5.44-11.09-10.95-2.26-5.89.66-11.89.57-17.87-.82.92-1.61 1.86-2.36 2.83.07-5.31 5.29-7.82 7.85-11.84.02.5.07 1.49.1 1.98 2.51-2.87 4.67-6.22 8.03-8.19 3-1.73 6.32-2.77 9.48-4.14m.93 1.23c.2 3.33 2.95-1.62 0 0m-6.26 3.11c-2.05 2.21-5.87 1.57-7.29 4.49-2.34 4.1-3.89 8.76-4.1 13.49.6.39 1.82 1.16 2.43 1.55l.08-3.29c5.19 2.63 10.76-1.16 13.61-5.47-.92 7.94-3.61 15.5-5.91 23.1 2.66-1.27 3.28-4.36 4.3-6.85 2.37-6.88 3.52-14.13 3.95-21.38.27-1.63-.29-3.2-1.35-4.44-.49 2.5-.11 5.14-.96 7.57-3.44 2.94-7.03 6.16-11.75 6.61-.53-1.4-.77-2.87-.95-4.34.63.86 1.27 1.73 1.91 2.6 1.86-5.09 4.36-10.31 9.07-13.35 1.03.31 2.06.61 3.1.91.18-.62.54-1.88.71-2.5-2.41-.77-5.01-.66-6.85 1.3m11.75 34.04c3.4-1.06 5.16-4.46 7.97-6.42 2.14-1.95 5.41-2.94 6.41-5.89-5.92 2.39-10.52 7.38-14.38 12.31m-29.01 89.22c-.1 4.26.03 8.58.79 12.78 1.52 3.4 3.19 6.78 5.48 9.75 2.5 3.96 7.45 6.05 12.05 5.66-2.09-1.7-5.07-1.69-7.06-3.57-4.75-3.28-6.83-8.91-8.73-14.09-1.11-3.38.73-8.19-2.53-10.53m1.37 16.7c.54.53.54.53 0 0m252.65 101.54c.61 4.53-1.6 8.8-1.74 13.31-1.63 9.68.78 20.58 8.84 26.84-1.15-2.03-2.53-3.91-3.96-5.75-2.34-2.78-2.52-6.61-3.25-10.02-.97-8.62.24-17.33 1.66-25.8-.18-.56-.53-1.7-.71-2.27-.29 1.23-.57 2.45-.84 3.69M48.72 293.48c-2.23 5.89-2.27 12.29-3.09 18.47-.32 2.51.39 4.97 1.17 7.33.81-4.71 0-9.55 1.19-14.2.9-3.17-.17-6.97 2.23-9.57-1.21-1.69.54-3.12 1.01-4.71.71-2.51 2.47-4.46 3.76-6.66-3.4 2.05-4.74 5.9-6.27 9.34m272.61-5.53c-.12 2.68-.28 5.56 1.65 7.71 1.15-2.12 1.06-7.08-1.65-7.71m15.51 23.87c2.08 2.55 4.93 4.69 8.28 5.06-2.3-2.32-5.19-4.02-8.28-5.06m8.83 5.09c2.2 3.57 6.77 4.18 10.6 4.08-3.41-1.62-6.77-3.68-10.6-4.08z"/><path fill="#574344" d="M122.34 33.06c2.95-1.62.2 3.33 0 0z"/><path fill="#3c242c" d="M126.09 32.27c2.72 1.59 5.22 3.54 7.52 5.69 3.76 4.08 6.39 8.99 8.05 14.26 1.77-3.74-.82-7.41-1.67-11.03l1.51.12c3.8.21 6.07 3.75 7.77 6.72-.21.7-.63 2.09-.85 2.79-1.87-2.86-2.73-6.66-5.92-8.4 1.31 4.08 2.26 8.29 1.88 12.61 1.56-.6 3.13-1.2 4.71-1.78-1.82 1.11-3.66 2.18-5.49 3.26-.36-1.55.13-3.63-1.66-4.49-.63 1.43-1.24 2.86-1.83 4.3-.41-3.52-1.12-7.11-3.18-10.07-2.17-3.05-3.58-6.72-6.54-9.14 1.29 7.18 4.1 14.48 2.52 21.84-.98 3.2-2.39 7.06-5.92 8.14 1.57-2.63 3.25-5.29 3.88-8.34 1.39-4.76.3-9.71-.18-14.52-.4-4.34-2.53-8.22-4.6-11.96z"/><path d="M116.08 36.17c1.84-1.96 4.44-2.07 6.85-1.3-.17.62-.53 1.88-.71 2.5-1.04-.3-2.07-.6-3.1-.91-4.71 3.04-7.21 8.26-9.07 13.35-.64-.87-1.28-1.74-1.91-2.6.18 1.47.42 2.94.95 4.34 4.72-.45 8.31-3.67 11.75-6.61.85-2.43.47-5.07.96-7.57 1.06 1.24 1.62 2.81 1.35 4.44-.43 7.25-1.58 14.5-3.95 21.38-1.02 2.49-1.64 5.58-4.3 6.85 2.3-7.6 4.99-15.16 5.91-23.1-2.85 4.31-8.42 8.1-13.61 5.47l-.08 3.29c-.61-.39-1.83-1.16-2.43-1.55.21-4.73 1.76-9.39 4.1-13.49 1.42-2.92 5.24-2.28 7.29-4.49zm229.59 280.74c3.83.4 7.19 2.46 10.6 4.08-3.83.1-8.4-.51-10.6-4.08z" fill="#594a55"/><path d="M191 37.39c6.35-.08 12.69-1.46 19.05-.58 6.26.85 12.68 1.51 18.57 3.98-4.36.99-8.92-.53-13.25-1.19-5.12-1.88-10.6-.99-15.92-1.36-5.45-.25-10.94.43-16.18 1.96-1.95.67-4.01.84-5.87-.19 4.51-.95 8.93-2.59 13.6-2.62zm39.94 4.04c11.75.22 23.26 3.82 33.44 9.61-.56.28-1.69.82-2.25 1.09-3.76-2.16-7.78-3.78-11.89-5.12-3.11-.93-5.7-3.5-9.13-3.11-.12.41-.37 1.24-.49 1.66-.24-.42-.73-1.24-.97-1.65-5.53-.93-11.32.69-16.93-.29 2.79-.64 6.28.46 8.22-2.19zm-110 129.63c1.07-.37 2.15-.71 3.2-1.11.84 2.55 1.85 5.05 2.98 7.49-.52-.08-1.57-.25-2.09-.33-2.36-1.19-3.21-3.75-4.09-6.05z" fill="#5e403d"/><path fill="#7c6567" d="M133.61 37.96c3.2-.88 5.95 1.01 7.89 3.35l-1.51-.12c.85 3.62 3.44 7.29 1.67 11.03-1.66-5.27-4.29-10.18-8.05-14.26z"/><path d="M165.99 43.42c2.99-.96 5.97-1.95 8.99-2.83.64.35 1.29.7 1.95 1.05-5.96 1.98-12.05 3.73-17.58 6.76-2.69 1.46-5.43 2.81-8.2 4.1-.14-.33-.4-.98-.53-1.3 5.05-2.72 9.86-6.01 15.37-7.78zm119.5-.05c5.74-2.28 12.36-2.65 18.06.01-6.02-.13-12.06.58-18.06-.01zM127.71 158.95c-.53-3.1 3.03-1.48 3.45.37-1.01 1.07-2.74 1.05-3.45-.37zm94.27 143.78c6.94-.11 13.76-1.59 20.5-3.16l1.67 1.94c-8 1.46-15.99 3.16-24.16 3.12-5.89.39-13.14-.38-17.24 4.82.37-2.35 2.2-4.06 4.38-4.79 4.79-1.63 9.92-1.07 14.85-1.93z" fill="#422421"/><path fill="#736673" d="M284.14 44.29c.44-.32.89-.62 1.35-.92 6 .59 12.04-.12 18.06.01 1.81.62 3.09 2.13 4.43 3.42l-1.17.12c4.58 6.88 6.72 15.31 5.58 23.53 2.03-.92 3.12-2.9 4.39-4.6 1 3.84-.22 7.69-1.6 11.26-1.28 4.01-4.74 6.66-7.57 9.55-3 3.03-7.43 4.61-11.63 3.52-3.23 1.13-6.5 2.13-9.82 2.93-4.13-2.85-8.97-5.21-11.6-9.67-2.29-3.88-4.48-7.95-5.16-12.45-.33-2.48-1.4-4.74-2.28-7.05.06-2.93 1.56-5.55 2.81-8.12 1.22-1.89 2.23-4.35 4.69-4.79-1.62 7.2-1.15 15.09 2.1 21.78.61 1.82 2.38 2.61 4.08 3.15-.99-2.45-3.52-4.8-2.28-7.63 1.32 2.9 3.29 5.57 6.29 6.88-2.75-3.16-4.95-6.83-5.38-11.09 4.07 3.18 7.69 7.21 12.81 8.72 4.8 2.26 10.21 1.69 15.22.53-3.93-2.39-9.06.24-13.28-1.73-6.2-1.4-10.49-6.17-15.55-9.6-.36-5.22-1.98-12.84 4.26-15.18 3.68 5.27 5.09 11.87 9.79 16.47 3.16 4.18 8.73 4.72 13.56 4.33-4.3-1.32-9.19-1.95-12.34-5.53-4.64-4.08-5.71-10.49-9.47-15.2-.1-.88-.2-1.76-.29-2.64m18.01 1.85c1.45 1.47 2.97 3.01 3.55 5.06 1.88 6.59 2.24 13.55 1.45 20.34 1.27-.47 2.17-1.51 2.29-2.89 1.53-7.67-1.25-15.49-4.48-22.37-.7-.03-2.11-.1-2.81-.14z"/><path d="M276.05 48.71c2.9-1.06 5.64-2.53 8.09-4.42.09.88.19 1.76.29 2.64 3.76 4.71 4.83 11.12 9.47 15.2 3.15 3.58 8.04 4.21 12.34 5.53-4.83.39-10.4-.15-13.56-4.33-4.7-4.6-6.11-11.2-9.79-16.47-6.24 2.34-4.62 9.96-4.26 15.18 5.06 3.43 9.35 8.2 15.55 9.6 4.22 1.97 9.35-.66 13.28 1.73-5.01 1.16-10.42 1.73-15.22-.53-5.12-1.51-8.74-5.54-12.81-8.72.43 4.26 2.63 7.93 5.38 11.09-3-1.31-4.97-3.98-6.29-6.88-.37-4.56-2.32-8.95-1.77-13.57.08-2.02.67-4.29-.7-6.05zm26.1-2.57c.7.04 2.11.11 2.81.14 3.23 6.88 6.01 14.7 4.48 22.37-.12 1.38-1.02 2.42-2.29 2.89.79-6.79.43-13.75-1.45-20.34-.58-2.05-2.1-3.59-3.55-5.06zm50.69 231.53c.27-1.24.55-2.46.84-3.69.18.57.53 1.71.71 2.27-1.42 8.47-2.63 17.18-1.66 25.8.73 3.41.91 7.24 3.25 10.02 1.43 1.84 2.81 3.72 3.96 5.75-8.06-6.26-10.47-17.16-8.84-26.84.14-4.51 2.35-8.78 1.74-13.31zM48.72 293.48c1.53-3.44 2.87-7.29 6.27-9.34-1.29 2.2-3.05 4.15-3.76 6.66-.47 1.59-2.22 3.02-1.01 4.71-2.4 2.6-1.33 6.4-2.23 9.57-1.19 4.65-.38 9.49-1.19 14.2-.78-2.36-1.49-4.82-1.17-7.33.82-6.18.86-12.58 3.09-18.47z" fill="#33232c"/><path d="m306.81 46.92 1.17-.12c3.28 3.49 7.31 6.72 8.52 11.59 1.17 4.45 2.64 9.01 2.16 13.66-1.18 6.9-5.83 12.39-10.44 17.35-.34 2.23 3.14 1.02 4.48 1.06 3.16-1.47 6.93-3.57 7.19-7.47-.52 1.11-1.04 2.23-1.54 3.35-2.8 2.11-5.69 4.66-9.49 4.12 2.2-2.06 5.14-3.17 7.14-5.47 2.25-2.27 3.6-5.2 5.08-7.99 1.16 1.46 2.82 3 1.95 5.06-.44 6.23-6.27 10.6-12.05 11.48-3.21-.22-5.95-2.93-9.29-1.69 2.55 5.4 9.55 6.98 14.75 4.7.19-.61.56-1.82.74-2.42l.4 2.5c.69-.33 2.07-1 2.76-1.34-2.3 2.11-3.82 4.87-5.96 7.1-3.53 2.73-8.42 2.22-12.62 2.08-3.98-.57-8.09-3.06-9.37-7.04 2.74 1.61 5.2 3.77 8.21 4.91 2.43.96 5.07.37 7.59.23-2.72-.33-5.58-.31-8.07-1.59-3.08-1.48-5.02-4.42-7.63-6.49-2.75-.73-5.87 1.1-8.49-.51-2.53-1.71-4.88-3.67-7.45-5.33-3.35-2.16-5.1-5.88-6.92-9.26-2.44-4.28-1.77-9.48-3.94-13.85-1.61-3.31.26-6.91 1.62-9.96.81-.9 1.8-1.61 2.83-2.26-.06.62-.16 1.87-.21 2.5-1.25 2.57-2.75 5.19-2.81 8.12.88 2.31 1.95 4.57 2.28 7.05.68 4.5 2.87 8.57 5.16 12.45 2.63 4.46 7.47 6.82 11.6 9.67 3.32-.8 6.59-1.8 9.82-2.93 4.2 1.09 8.63-.49 11.63-3.52 2.83-2.89 6.29-5.54 7.57-9.55 1.38-3.57 2.6-7.42 1.6-11.26-1.27 1.7-2.36 3.68-4.39 4.6 1.14-8.22-1-16.65-5.58-23.53M294.1 92.05c2.21 6.02 8.95 8.58 14.96 7.78-5.44-1.91-8.8-7.74-14.96-7.78zm-32.2 262.51c2.1 1.98 4.05 4.12 5.91 6.34-3.18-.33-5.53-3.3-5.91-6.34zm-171.62 7.72c5.02-3.53 11.67 5.33 7.45 9.35l-.64-.91c1.22-3.1-.72-7.31-4.17-7.63-2.06-.37-2.7 2.02-3.85 3.17-.4-1.49-.32-3.18 1.21-3.98z" fill="#574243"/><path fill="#594a50" d="M268.9 53.4c2.06-1.99 4.36-3.83 7.15-4.69 1.37 1.76.78 4.03.7 6.05-.55 4.62 1.4 9.01 1.77 13.57-1.24 2.83 1.29 5.18 2.28 7.63-1.7-.54-3.47-1.33-4.08-3.15-3.25-6.69-3.72-14.58-2.1-21.78-2.46.44-3.47 2.9-4.69 4.79.05-.63.15-1.88.21-2.5-1.03.65-2.02 1.36-2.83 2.26-1.67-1.24-3.37-2.43-5.18-3.45.56-.27 1.69-.81 2.25-1.09 1.51.77 3.01 1.56 4.52 2.36z"/><path d="M100.61 50.79c1.26 2.18 1.48 4.74 2.37 7.05 1.07 2.3 3.44 3.62 5.7 4.51 2.43.99 5.2-.14 7.58 1.08-4.6 2.27-9.54.74-13.68-1.72.27 3.87 1.51 7.58 4.02 10.58.19-.43.57-1.3.76-1.74 3.86 3.17 9.06 4.02 13.88 3.1-.73.72-1.43 1.47-2.25 2.1-4.42.79-8.56-1.25-12.38-3.19 2.27 4.51 7.42 4.73 11.71 5.89-2.48.45-5 .62-7.53.7l1.48 1.56c-.43-.04-1.29-.12-1.72-.17a66.22 66.22 0 0 0-1.77-1.99c-2.52-2.34-5.4-4.48-6.8-7.76-3.37-6.14-2.53-13.38-1.37-20zM41.05 309.37c3.95 4.37 5.55 10.81 3.87 16.49-1.4-1.52-1-3.67-1.29-5.53-.09-3.31-1.35-6.39-2.84-9.29l.26-1.67zm295.79 2.45c3.09 1.04 5.98 2.74 8.28 5.06-3.35-.37-6.2-2.51-8.28-5.06z" fill="#483943"/><path d="M95.95 54.02c.75-.97 1.54-1.91 2.36-2.83.09 5.98-2.83 11.98-.57 17.87 1.17 5.51 5.78 9.53 11.09 10.95-.01-.36-.03-1.09-.05-1.46.61.65 1.19 1.32 1.77 1.99.43.05 1.29.13 1.72.17 2.61.28 5.24-.03 7.84-.31-2.52 5.77-6.61 10.64-9.32 16.31-3.71 7.88-7.81 15.58-11.24 23.6-.02 1.04.29 2.06.47 3.09-3.2 5.04-3.99 11.09-5.71 16.71-2.67 9.49-3.44 20.24 1.32 29.22 1.18 2.69 3.63 5.09 3.17 8.24-3.08-2.06-4.1-5.71-5.54-8.91-1.33-3.08-3.02-6.18-3-9.63-.01-6.91-.35-14.06 2.14-20.64 2.27-6.05 3.11-12.53 5.56-18.52 4.17-10.59 8.93-20.96 14.43-30.92-1.96 1.47-3.85 3.43-6.44 3.61-2.77.44-5.68-.81-7.26-3.13-1.25-1.98-3.57-3.19-4.42-5.43 2.08.47 4.26 2.39 6.36 1.05-.28.87-.85 2.6-1.13 3.47 4.19 2.29 8.9.43 12.35-2.31-2.96 1.86-8.66 4.49-10.77.34 3.96-1.13 8.97-.93 11.77-4.41-4.23-.41-8.98-.56-12.23-3.71-2.39-2.56-4.22-5.69-5.21-9.05-1.45-5.05-.12-10.29.54-15.36m18.51 29.17c-.91.76-1.8 2.16-1.32 3.36 1.96.84 4.4-4.41 1.32-3.36zm14.46 193.53c5.89-1.49 11.06-4.79 16.22-7.87 4.33 1.8 8.36 4.24 12.03 7.15-.52.06-1.58.17-2.1.23-3.18-1.86-6.51-3.47-9.98-4.72-4.54 2.83-9.43 5.11-14.49 6.82-8.1 1.62-16.4 1.39-24.62 1.56-3.68-.01-7.34 1.53-10.98.33-5.55 3.09-11.6 5.22-16.95 8.67-4.69 2.58-8.95 5.89-13.78 8.22 2.64 4.71 5.27 9.45 6.98 14.6 2.57 7.97 8.94 13.76 13.41 20.62.93 1.35.62 3.09.67 4.64-.3 5.27-.84 10.53-1.27 15.8 2.77.02 5.49.61 8.01 1.78-2.68.08-5.37.1-8.06.13-.48 2.22-.98 4.43-1.49 6.64-.98-.33-1.44-1.02-1.36-2.08 2.74-7.03.28-14.45-1.82-21.28-4.17 3.46-9.01 5.98-13.97 8.12-.48-.05-1.46-.17-1.94-.23l-.67-.81c5.61-2.15 11.28-4.39 16.22-7.86-.88-3.3-1.9-6.57-3.44-9.62-2.32-4.24-2.13-9.55-5.68-13.15-.36-.39-.72-.78-1.08-1.16.01-1.1.03-2.19.05-3.28-2.92 4.29-6.05 8.48-9.87 12.03-3.07 2.82-6.42 5.68-10.66 6.42 3.18-3.28 7.46-5.2 10.62-8.52 3.37-3.47 6.35-7.45 8.26-11.91-.8-3.99-3.57-7.23-4.77-11.09 2.44-4.38 10.48-4.14 10.11-10.49.68.86 1.36 1.73 2.05 2.6 8.16-5.67 17.54-9.83 27.45-11.09 7.3-.18 14.64.01 21.91-.74 2.69-.03 3.55-2.95 5.01-4.69-.01 1.4-.02 2.81-.02 4.23m-52.93 46.95c1.94 6.21 4.89 12.1 6.46 18.46.24-.16.71-.48.94-.64.08-3.22 1.27-7.06-1.16-9.71-2.06-2.72-3.91-5.61-6.24-8.11zm245.72 14.09c4.26-2.03 8.17-6.09 13.27-5.19 3.2.25 7.06 1.24 7.94 4.84-3.4-2.1-7.39-4.1-11.49-2.83-4.84 1.7-9.03 4.78-13.45 7.33-7.44 5.16-14.96 10.28-21.38 16.73-3.31 3.47-7.68 5.86-10.41 9.87 7.04-3.43 12.98-8.85 20.26-11.89 5.01-1.91 9.66-4.67 14.76-6.36 5.14-1.59 9.79-5.11 15.41-4.7-.96.9-2.08 1.59-3.2 2.27-6.43 1.5-12.35 4.62-18.55 6.86-10.16 3.82-19.64 9.33-28.16 16.03-4.24 4.1-10.25 7.56-11.24 13.87-.91.46-1.84.86-2.76 1.27 1.47-3.38 3.29-6.61 5.67-9.43 3.78-4.57 6.54-10.05 11.35-13.69 5.55-4.42 10.15-9.92 15.89-14.1 5.44-3.53 10.21-8.05 16.09-10.88z" fill="#5c4545"/><path fill="#5e505a" d="M127.83 70.21c3.86-4.93 8.46-9.92 14.38-12.31-1 2.95-4.27 3.94-6.41 5.89-2.81 1.96-4.57 5.36-7.97 6.42z"/><path d="M160.85 77.75c.27-1.7 1.8-2.63 2.94-3.73-2.95 7.93-4.46 16.39-4.55 24.85-.06 4.47-1.86 8.78-1.42 13.28.31 3.6.64 7.19.86 10.8.35 9.46 3.61 18.48 6.95 27.24 1.82 5.1 5.54 9.13 8.68 13.44.99-.24 1.98-.49 2.97-.73 1.46 2.73 3.9 4.71 5.93 6.98-10.95-2.31-17.11-12.85-20.83-22.5-4.78-11.61-6.26-24.18-6.93-36.61-3.09 12.65-10.56 23.55-18.25 33.82 6.29 1.12 12.65 3.28 16.97 8.24-3.14-.86-5.51-3.27-8.49-4.46-2.76-1.07-5.66-1.95-8.63-2.07-2.51 2.47-4.45 5.48-7.1 7.82-.59.05-1.75.16-2.34.21 1.67-2.21 3.59-4.21 5.19-6.47-.52-1-1.18-1.92-1.8-2.86 1.51-.42 3.36-.2 4.6-1.28 9.85-14.42 20.07-29.81 21.73-47.68.22-6.25 1.85-12.3 3.52-18.29zM89.41 305.5c.22-.04.64-.13.85-.18 1.58 5.76 3.62 11.43 6.19 16.84 1.54 4.13 3.43 8.4 3.14 12.9-.26 4.24.65 8.42.88 12.64-.53.02-1.59.07-2.12.09.17-5.93.35-11.89.06-17.82-1.05-4.83-3.61-9.16-5.24-13.79-1.22-3.58-2.56-7.1-3.76-10.68zm158.41 39.73c3.29-.63 5.85 1.78 7.65 4.21-2.61-1.17-5.6-2.17-7.65-4.21z" fill="#624b4b"/><path fill="#897474" d="M114.46 83.19c3.08-1.05.64 4.2-1.32 3.36-.48-1.2.41-2.6 1.32-3.36z"/><path d="M174.89 91.65c1.87 9.28 1.88 19.05 5.3 28 4.79 10.26 12.63 18.78 21 26.26 4.94-2.13 10.32-2.6 15.63-2.11-2.59-4.81-4.56-9.92-6.76-14.91-1.11-2.52-.68-5.34-.54-8 1.35 7.52 4.95 14.33 8.63 20.93 1.63 3.46 6.31 3.16 8.32 6.28-1.46-.19-2.91-.41-4.36-.65 4.54 6.87 9.49 13.45 14.47 20.01 2.93 3.52 5.84 7.35 10.12 9.3-4.91-9.72-10.66-19.07-14.52-29.3 5.35 5.27 6.9 13.2 11.61 19.01 4.49-3.72 8.25-8.25 12.98-11.69 4.97-3.52 9.22-7.95 14.41-11.17 1.74 1.98 2.93 4.37 3.42 6.97 2.23 11.09 5.12 22.21 4.98 33.6-7.4-1.23-13.7-5.52-20.49-8.39-4.75-2.02-8.96-5.08-13.68-7.17 3.07 4.51 6.92 8.72 11.92 11.1 3.14 1.39 4.92 4.55 6.41 7.48 2.58 7.31 5.03 15.41 2.52 23.1-3.37 7.88-10.2 14.15-18.24 17.08.16 1.63.84 3.33.4 4.97-.95 1.93-2.76 3.24-4.24 4.74-.79 8.31-.45 16.65-.95 24.97-.41 4.25 2.56 8.6.37 12.65-2.35 2.6-5.58.3-8.03-.83.74 4 3.79 7.64 2.85 11.84-2.06-2.7-2.85-6.05-4.47-8.97-1.42-.68-2.84.59-4.21.88-6.06 2.28-12.34 3.92-18.66 5.28-5.88 1.37-11.95.71-17.92.74l.03 3.92c3.59-.09 7.44 1.97 8.4 5.57.02 2.03.53 4.63-1.25 6.11-3.46 3.43-8 5.39-12.19 7.73-4.24-3.11-8.36-6.87-10.06-12-1.12-3.3 1.16-6.76 3.94-8.41 2.56-.08 4.85 1.2 7.11 2.23.49-.04 1.47-.13 1.96-.18.28-1.19.56-2.38.85-3.56-.6-.37-1.8-1.11-2.39-1.48-2.22-.46-4.47-.7-6.71-.94-1.24-.14-2.48-.23-3.72-.36l.06-1.95c7.51 1.65 15.22 1.27 22.84 1.35 4.62.06 9.11-1.19 13.59-2.15 5.72-1.51 11.53-2.9 16.96-5.33-.59-3.88-1.07-7.83-.45-11.74-9.29 2.03-18.44 5.66-28.09 5.26-8.8.67-17.84 1.36-26.51-.75l.2-1.75c2.1 1.5 4.8 1.17 7.23 1.3 6.33.15 12.62-.71 18.93-1.01 9.47.1 19.02-2 27.59-6 0-9.49-1.23-19.06.27-28.47.01-1.77 2.02-2.34 3.06-3.39.03.65.09 1.95.11 2.6-.21-.09-.64-.27-.86-.36-1.09 5.73-.84 11.59-.79 17.39-.12 8.8.68 17.65 2.34 26.27 1.09-3.98.8-8.16 1.65-12.18.57-.38 1.7-1.16 2.27-1.55-.21 1.96-.25 3.94-.29 5.92.57-.02 1.7-.05 2.27-.07-.25-1.58-.51-3.16-.74-4.74.76-2.41 1.53-5.18-.31-7.3-.18 1.9-.28 3.81-.57 5.7-.43-.19-1.31-.57-1.74-.76-.42-7.47.15-14.97.21-22.45-.98-.93-1.95-1.86-2.91-2.79.5-.66 1-1.31 1.52-1.95.84 3.31 3.99 3.85 6.9 3.64 1.01-1.32 2.03-2.63 3.05-3.94-.43-1.19-.85-2.38-1.28-3.56-.41 1.89-.82 3.77-1.25 5.66-.65.34-1.96 1.03-2.61 1.38-1.46-1.04-2.78-2.26-3.98-3.57.24-3.74 3.26-5.88 5.59-8.41.22-.24.66-.71.88-.95.19 1.39.4 2.78.61 4.17 5.82-.57 10.33-4.78 14.23-8.77 2.81-3.02 5.35-6.75 5.45-11.02.15-6.62.53-13.68-2.73-19.7-1.14-2.11-3.32-3.21-5.29-4.38-2.08-1.28-3.77-3.77-6.49-3.42-3.2.35-6.16-.93-8.77-2.65 1.49 2.15 1.87 4.72 2.11 7.27-3-4.52-5.75-9.48-9.17-13.53-.67.33-2.01 1-2.68 1.33.22-.39.66-1.18.88-1.57l.84-.43c-.41-3.12-3.6-5.64-5.18-8.49-2.25.38-4.5.75-6.71 1.3-.56.13-1.69.38-2.25.51.21-.52.64-1.56.86-2.08-2.21-.57-4.39-1.24-6.51-2.07-.5-.01-1.5-.04-2-.05l.05 1.28c-6.46 0-13.67.49-18.77 4.93-.17.39-.51 1.15-.68 1.53-.68-.18-1.34-.37-2.01-.57-.82-4.9-3.56-9.18-4.65-14.01-1.56-6.79-4.24-13.28-5.5-20.14-1.4-6.69-3.26-13.29-4.04-20.09-.73-6.4-2.31-12.9-.98-19.33m5.69 33.41c1.33 3 1.26 6.37 2.12 9.5l.08-.01c2.6 7.87 4.26 16.07 7.74 23.64.36 1.12 1.27 1.85 2.14 2.57l-1.63-.4c.17.92.49 2.78.66 3.71 4.12-4.7 10.47-5.95 16.39-6.53 1.44.3 2.44-.78 3.5-1.49-4.53-1.46-8.22-4.61-11.56-7.88-3.65 1.44-7.47 2.93-10.21 5.86 1.26-3.85 5.76-4.9 8.77-7.04-3.97-4.37-7.83-8.85-11.92-13.11-2.15-2.86-3.85-6.02-6.08-8.82m22.06 22.18c6.48 5.85 14.12 11.79 23.21 12.29 1.96-1.03-.11-2.57-1.05-3.43-2.99-2.5-3.85-6.59-6.32-9.42-4.95-2.36-10.7-.26-15.84.56m53.93 10.35c-3.76 2.77-6.81 6.35-10.58 9.1 4.77 2.75 9.6 5.48 14.71 7.57 5.4 2.95 10.93 5.8 16.86 7.5-.46-8.74-2.51-17.31-3.94-25.92-.91-3.4-.98-7.3-3.5-10-4.19 4.28-8.81 8.11-13.55 11.75m-13.66 74.34c1.12-1.61.02-2.88-1.07-4.05-2.73.97-1.71 4.36 1.07 4.05m-2.64 5.5c.31 3.49-.23 6.96.1 10.44.06 1.67-1.28 4.67 1.16 5.15.06-5.39-.5-10.79.39-16.16-.41.14-1.24.43-1.65.57m-.79 29.71c-.68 1.85-1 3.79-1.12 5.75 1.13.29 2.67 1.36 3.46-.09 1.06-1.98.55-5.83-2.34-5.66m-58.34 22.03c-1.06 1.7-1.91 3.79-1.51 5.83 1.98 3.94 5.12 7.11 8.37 10.02 3.85-2.05 8.04-3.78 11.12-6.95 2.08-3.34.14-8.52-4.11-8.59-2.55-.47-4.25 1.79-6.07 3.13-1.26-1.1-2.03-2.57-2.71-4.06-1.68-.26-3.74-.71-5.09.62zm-138.39-9.68c.49.3 1.45.9 1.94 1.2-4.4 5.69-8.22 12.25-7.8 19.71-.5-2.08-.4-4.23-.43-6.33-3.04 2.31-5.98 4.91-7.45 8.54l-.83-.81c.44-.67.9-1.33 1.36-1.99 2.49-3.58 6.54-5.99 8.13-10.19 1.49-3.48 3.16-6.87 5.08-10.13z" fill="#513e3d"/><path d="M294.1 92.05c6.16.04 9.52 5.87 14.96 7.78-6.01.8-12.75-1.76-14.96-7.78zm-40.17 74.69c4.3-4.42 9.35-8.05 14.23-11.81 2.17 6.79 3.13 13.89 5.18 20.71-2.45.49-4.29-1.56-6.37-2.45-4.39-2.07-8.8-4.08-13.04-6.45z" fill="#756773"/><path d="M155.45 110.77c.67 12.43 2.15 25 6.93 36.61 3.72 9.65 9.88 20.19 20.83 22.5-2.03-2.27-4.47-4.25-5.93-6.98-.03-.55-.11-1.64-.15-2.19 2.54 2.93 5.26 5.79 8.72 7.63.96.26 1.93.51 2.9.74l-.28 1.92c.66.76 1.32 1.53 1.98 2.3-.54.82-1.02 1.67-1.49 2.53 1.03-.85 2.05-1.7 3.08-2.55 1.26 3.88 3.52 7.31 6.36 10.21 2.6 1.49 5.44 2.45 8.18 3.65-1.21 2.2-3.82 1.26-5.8 1.28-.28-.53-.84-1.57-1.12-2.1-.31.61-.63 1.22-.94 1.83-1.07.73-2.14 1.45-3.2 2.18.3.39.89 1.18 1.19 1.57a556.9 556.9 0 0 0-2.03 3.15l.6 2.88c-6.86-1.75-13.44-4.49-19.92-7.31-4.38-1.26-8.5-3.97-13.23-3.3-3.1.02-5.77 1.6-8.37 3.09-1.47.78-2.97 1.5-4.5 2.17-.66-.7-1.33-1.41-1.99-2.1 1.75-.78 3.49-1.6 5.17-2.55-3.15-.88-6.38-.06-9.56.07 1-.74 1.99-1.48 3.03-2.16 1.78-.73 3.98-1.05 5.06-2.83 2.76-4.03.91-9.24 2.68-13.61-2.1-1.9-4.13-3.88-6.23-5.78-2.92-2.8-7.67-2.81-10-6.37-.32.42-.96 1.25-1.28 1.67-.85-.06-2.56-.17-3.41-.23-.39.16-1.18.47-1.57.63-.42-1.85-3.98-3.47-3.45-.37-2.64.61-6.96-.11-7.31 3.61 1.61-.31 3.22-.63 4.82-.97.17.16.52.5.69.67-2.46 2.48-5.39 4.52-8.89 5.13.75-3.82 2.17-7.49 4.51-10.63 3.05.17 6.38-.01 8.42-2.64 2.65-2.34 4.59-5.35 7.1-7.82 2.97.12 5.87 1 8.63 2.07 2.98 1.19 5.35 3.6 8.49 4.46-4.32-4.96-10.68-7.12-16.97-8.24 7.69-10.27 15.16-21.17 18.25-33.82m-23.71 44.98c3.12.04 6.49-.65 9.35.94 3.98 2.33 8.3 4.32 11.45 7.79.78 1.19 2.03 1.48 3.28.79-.93-1.1-1.84-2.2-2.85-3.22-3.61-3.84-9.22-4.52-13.03-8.1-2.78-.6-6.37-.89-8.2 1.8zm94.5 76.55c2.24-2.43 4.75-5.82 8.57-4.65-1.04 1.05-3.05 1.62-3.06 3.39-1.5 9.41-.27 18.98-.27 28.47-8.57 4-18.12 6.1-27.59 6-6.31.3-12.6 1.16-18.93 1.01-2.43-.13-5.13.2-7.23-1.3-.02-2.49-.24-4.97-.59-7.44 8.66-2.93 16.95-6.83 25.61-9.76 4.5-1.55 8.81-3.71 12.8-6.31 3.83-2.81 7.57-5.8 10.69-9.41z" fill="#e5b5ac"/><path d="M136.26 114.84c1 4.97-.9 9.77-2.13 14.5-2.73 9.72-6.9 19.07-12.6 27.42-2.34 3.14-3.76 6.81-4.51 10.63 3.5-.61 6.43-2.65 8.89-5.13.29.28.86.86 1.14 1.15.18.35.53 1.05.71 1.4 1.41-.57 2.82-1.14 4.24-1.71.1.47.32 1.43.42 1.91-2.67.5-4.72 2.25-6.52 4.17-.44.19-1.32.58-1.76.77-1.05.4-2.13.74-3.2 1.11-.25-.62-.77-1.87-1.02-2.49-.74.01-2.2.04-2.94.05.25 2.61.68 5.22 1.57 7.71 2.07 6.05 2.91 12.43 4.89 18.51 2.01 1.74 4.31 3.1 6.59 4.45 4.27-.58 8.61-1.35 12.22-3.87l.72 2.16c-5.03 1.99-11.33 5.85-16.34 1.87-1.31-.86-2.59-1.75-3.89-2.62.56 6.62 3.38 12.7 5.19 19.02 2.29 7.85 8.33 13.63 13.56 19.6 4.97 5.1 10.74 9.33 16.27 13.79 3.96 3.05 8.31 5.83 13.29 6.84-3.82-5.04-7.21-10.41-9.95-16.12-1.51-3.61-2.6-7.38-4-11.03-2.9-7.28-3.06-15.3-2.33-23 .57-6.8 4.29-12.71 7.36-18.61 4.73-.67 8.85 2.04 13.23 3.3 6.48 2.82 13.06 5.56 19.92 7.31.94.24 1.89.49 2.83.75.15.52.45 1.57.61 2.1-8.93-2.53-17.61-5.84-26.5-8.47-2.42-2.03-5.12-3.62-8.38-3.72-7 9.07-9.06 21.23-7.14 32.38 2.01 7.1 3.59 14.46 7.36 20.9 2.37 5.2 5.06 10.68 10.04 13.86 7.29-.96 13.85-4.55 20.77-6.79 2.46-.64 5.78-3.71 7.88-.92-8.66 2.93-16.95 6.83-25.61 9.76.35 2.47.57 4.95.59 7.44l-.2 1.75c-.21.95-.43 1.89-.64 2.84-.82 3.63-1.17 7.57-3.86 10.41-1.56 1.7-3.34 3.25-5.5 4.13a54.46 54.46 0 0 1-20.59 4.49c-.19-.38-.56-1.14-.75-1.52 8.37-.58 17.23-1.95 24.23-6.93 1.55-1.11 3.11-2.52 3.46-4.49.95-4.6 1.82-9.23 2.33-13.89.31-1.53-.38-3.3-2.18-3.13-9.88-1.64-18.04-8.15-25.44-14.49-2.89-2.76-6.21-5.06-8.87-8.04-4.57-5.55-9.94-10.59-12.84-17.3-3.44-6.32-3.36-13.86-7-20.09 1.18-9.55-2-18.96-6.41-27.31-.57 4.64.45 9.26 2.43 13.45-1.38-1.28-3.05-2.48-3.53-4.41-1.62-5.43-1.14-11.17-1.05-16.75.34-8.01.56-16.03 1.8-23.96.64-3.77-.36-8.12 2.57-11.15-2.4 13.9-2.17 28.06-2.34 42.12 2.66-5.68 4.23-11.8 7.21-17.34 3.21-6.75 8.09-12.62 10.73-19.65 2.05-6.27 4-12.58 4.97-19.12zm35.09 29.45c.28 0 .85-.01 1.13-.01-.26 8.84 5.17 17.21 12.56 21.78 1.44 1.12 3.26.64 4.91.43l-.24 1.26c-1.28.22-2.57.41-3.86.59-3.46-1.84-6.18-4.7-8.72-7.63l-.28-.31c-.66-.15-1.32-.28-1.98-.41-1.92-5.03-3.49-10.27-3.52-15.7z" fill="#46312f"/><path fill="#e6cac8" d="M180.58 125.06c2.23 2.8 3.93 5.96 6.08 8.82-1.3.22-2.59.44-3.88.67l-.08.01c-.86-3.13-.79-6.5-2.12-9.5z"/><path fill="#e4b5ae" d="M182.78 134.55c1.29-.23 2.58-.45 3.88-.67 4.09 4.26 7.95 8.74 11.92 13.11-3.01 2.14-7.51 3.19-8.77 7.04 2.74-2.93 6.56-4.42 10.21-5.86 3.34 3.27 7.03 6.42 11.56 7.88-1.06.71-2.06 1.79-3.5 1.49-5.92.58-12.27 1.83-16.39 6.53-.17-.93-.49-2.79-.66-3.71l1.63.4c-.87-.72-1.78-1.45-2.14-2.57-3.48-7.57-5.14-15.77-7.74-23.64z"/><path d="M309.25 136.8c.53.74 1.05 1.49 1.56 2.24.53 5.37 1.39 10.69 1.84 16.06-.36.99-.76 1.97-1.15 2.95-.43-7.13-2.79-14.04-2.25-21.25zm-64.07 47.47c2.48-.08 4.86-.78 7.15-1.67l-.25 1.34c-4.47 3.97-9.74 7.09-13.51 11.79-2.02-2.33 1.14-4.25 2.43-5.9-7.19 3.84-14.24 7.94-21.19 12.17-5.37 4.2-13.33 2.58-18.61-.92.74-.17 2.23-.5 2.97-.66 3.43 1.01 7.02 1.64 10.6 1.25 2.4-.72 4.28-2.49 6.44-3.69 7.82-3.95 15.53-8.21 22.78-13.13.3-.15.89-.43 1.19-.58z" fill="#654643"/><path fill="#756876" d="M202.64 147.24c5.14-.82 10.89-2.92 15.84-.56 2.47 2.83 3.33 6.92 6.32 9.42.94.86 3.01 2.4 1.05 3.43-9.09-.5-16.73-6.44-23.21-12.29z"/><path fill="#b5a097" d="M256.57 157.59c4.74-3.64 9.36-7.47 13.55-11.75 2.52 2.7 2.59 6.6 3.5 10 1.43 8.61 3.48 17.18 3.94 25.92-5.93-1.7-11.46-4.55-16.86-7.5-5.11-2.09-9.94-4.82-14.71-7.57 3.77-2.75 6.82-6.33 10.58-9.1m-5.28 9.26c3.09 1.93 6.31 3.7 9.77 4.91 5.01 1.63 9.03 6.06 14.61 5.86-1.96-7.51-3.94-15.01-5.9-22.52-.26-1.05-.71-2-1.36-2.86-5.45 5.17-11.97 9.13-17.12 14.61z"/><path d="M131.74 155.75c1.83-2.69 5.42-2.4 8.2-1.8 3.81 3.58 9.42 4.26 13.03 8.1 1.01 1.02 1.92 2.12 2.85 3.22-1.25.69-2.5.4-3.28-.79-3.15-3.47-7.47-5.46-11.45-7.79-2.86-1.59-6.23-.9-9.35-.94zm70.86 6.51c3.71-1.13 7.81-.08 11.32-1.95l.76 1.95c1.47-.01 2.95-.01 4.44-.01-5.47.77-11.03.34-16.52.01z" fill="#704942"/><path d="M251.29 166.85c5.15-5.48 11.67-9.44 17.12-14.61.65.86 1.1 1.81 1.36 2.86 1.96 7.51 3.94 15.01 5.9 22.52-5.58.2-9.6-4.23-14.61-5.86-3.46-1.21-6.68-2.98-9.77-4.91m2.64-.11c4.24 2.37 8.65 4.38 13.04 6.45 2.08.89 3.92 2.94 6.37 2.45-2.05-6.82-3.01-13.92-5.18-20.71-4.88 3.76-9.93 7.39-14.23 11.81zm-26.55 50.37c.06-5.37 1.49-10.75 4.41-15.28.11.58.34 1.73.45 2.31-1.65 3.41-2.69 7.08-3.41 10.79-.19 4.38 1.6 9.43 6.29 10.65 1.63-1.43 3.12-3.06 5-4.17 1.38-.12 2.77.08 4.15.22-.22.24-.66.71-.88.95l-2.54-.2c-2.87 1.61-3.92 4.73-4.47 7.78-.31.16-.94.48-1.26.64l-.2-.55c-.02-.65-.08-1.95-.11-2.6-3.82-1.17-6.33 2.22-8.57 4.65-3.12 3.61-6.86 6.6-10.69 9.41-.46-2.62 2.53-3.5 3.99-5.04 4.15-2.98 6.72-7.8 11.39-10.08-1.15-2.25-2.52-4.38-4.04-6.39.65-.98 1.3-1.95 1.95-2.92-1.59.43-3.16.87-4.74 1.31 1.09-.49 2.18-.99 3.28-1.48zM110.13 350.43c2.59.55 5.23.97 7.69 1.99 7.39 3.47 14.61 7.31 22.02 10.74l-1.15.78c-10.27-2.11-18.08-11.09-28.93-11.36.09-.54.28-1.62.37-2.15zm81.02 11.34c5.97-.71 11.62-3.19 17.65-3.48 2.29.12 4.57.43 6.85.71-.15.43-.44 1.3-.59 1.73-4.54-1.42-9.34-.32-13.86.59-6.12 1.61-12.46 2.3-18.42 4.51a73.445 73.445 0 0 1-11.73 3.28c-2.99.74-6.46.73-8.71 3.16-.32-.3-.98-.88-1.31-1.18-3.5.1-7.27 1.13-10.55-.58-2.93-1.44-5.83-2.98-8.57-4.78.24-.34.71-1.01.94-1.34 4.44 1.62 8.09 5.76 13.14 5.17 6.8.03 13.22-2.42 19.85-3.55 5.17-1.17 10-3.62 15.31-4.24z" fill="#30191a"/><path d="M211.47 158.05c.5.01 1.5.04 2 .05 2.12.83 4.3 1.5 6.51 2.07-.22.52-.65 1.56-.86 2.08-1.49 0-2.97 0-4.44.01l-.76-1.95c-3.51 1.87-7.61.82-11.32 1.95-3.2.65-6.07 2.27-8.81 3.97l-1.72-.44c.17-.38.51-1.14.68-1.53 5.1-4.44 12.31-4.93 18.77-4.93l-.05-1.28zm9.9 3.69c2.21-.55 4.46-.92 6.71-1.3 1.58 2.85 4.77 5.37 5.18 8.49l-.84.43c-1.81-.77-3.75-1.04-5.62-1.57 1.15-.54 2.3-1.09 3.45-1.64-2.09-1.25-4.37-2.21-6.83-2.32-.57-.06-1.7-.19-2.26-.25.05-.46.16-1.38.21-1.84z" fill="#e6c1c0"/><path fill="#775b57" d="M120.4 162.56c.35-3.72 4.67-3 7.31-3.61.71 1.42 2.44 1.44 3.45.37.39-.16 1.18-.47 1.57-.63-.15.58-.46 1.75-.62 2.33 4.3.06 8.88.41 12.26 3.39-2.19-.65-4.33-1.51-6.58-1.91-1.85-.27-3.16 1.33-4.57 2.24-.2.07-.6.2-.8.27-.1-.48-.32-1.44-.42-1.91-1.42.57-2.83 1.14-4.24 1.71-.18-.35-.53-1.05-.71-1.4a61.807 61.807 0 0 0-1.83-1.82c-1.6.34-3.21.66-4.82.97z"/><path d="M311.4 159.18c.46.65.92 1.31 1.39 1.97-.15 5.31.48 10.6.96 15.88-.54-.17-1.63-.53-2.17-.7-.19-5.72.15-11.44-.18-17.15zM139.16 278.17c2.59-2.74 6.67-1.84 9.98-1.4-2.31.49-4.75.32-6.99 1.11-2.23 1.32-3.97 3.31-5.49 5.37-1.06 1.77-1.91 3.65-2.75 5.52.79-.39 1.59-.79 2.38-1.18 2.14.61 4.35.53 6.52.09.38.35 1.15 1.04 1.54 1.39-4 .77-8.2.89-12.03 2.26-4.24 5.18-6.62 11.57-9.73 17.45-3.85 7.19-4.72 15.44-7.5 23.03-2.23 6.03-3.83 12.29-4.96 18.62-.09.53-.28 1.61-.37 2.15 10.85.27 18.66 9.25 28.93 11.36l1.15-.78c1 .41 2.02.79 3.01 1.23-.23.33-.7 1-.94 1.34 2.74 1.8 5.64 3.34 8.57 4.78 3.28 1.71 7.05.68 10.55.58.33.3.99.88 1.31 1.18 2.25-2.43 5.72-2.42 8.71-3.16 3.99-.76 7.92-1.87 11.73-3.28 5.96-2.21 12.3-2.9 18.42-4.51 4.52-.91 9.32-2.01 13.86-.59-.85 2.1-.99 4.36-.8 6.6-2.84 10.54-4.71 21.29-6.81 32-.31.17-.94.5-1.25.67h-10.84c-29.19-.98-58.26-8-84.41-21.09-2.59-1.3-5.25-2.49-7.58-4.22.1-3.35.6-6.67 1.35-9.93-.49-.52-1.45-1.55-1.93-2.07.62-.03 1.86-.09 2.48-.13.92-4.28 2.6-8.33 3.78-12.54 2.86-8.85 4.54-18.02 7.13-26.96 1.68-8.65 5.72-16.53 9.62-24.35 4.15-7.02 7.34-14.83 13.36-20.54zm235.32 2.9c1.82 1.16 3.65 2.31 5.55 3.37 1.26 1.75-.04 2.58-1.48 1.18-1.63-1.26-2.95-2.84-4.07-4.55z" fill="#4a3532"/><path fill="#514048" d="M98.82 159.43c3.26 2.34 1.42 7.15 2.53 10.53 1.9 5.18 3.98 10.81 8.73 14.09 1.99 1.88 4.97 1.87 7.06 3.57-4.6.39-9.55-1.7-12.05-5.66-2.29-2.97-3.96-6.35-5.48-9.75-.76-4.2-.89-8.52-.79-12.78z"/><path d="M193.79 166.23c2.74-1.7 5.61-3.32 8.81-3.97 5.49.33 11.05.76 16.52-.01.56-.13 1.69-.38 2.25-.51-.05.46-.16 1.38-.21 1.84.56.06 1.69.19 2.26.25.53 1.5 1.1 3 1.7 4.48-2.34-1.02-5.22-1.51-6.79 1.03-.38-.46-1.13-1.37-1.51-1.82.04.93.12 2.81.17 3.75-2.81-3.38-7.41-2.77-11.13-1.56-2.35 3.89-2.57 9.16.77 12.57l.4.56-.21 1.66c-2.02-2.43-4.35-5-4.39-8.35-.53-3.58 2.24-6.38 4.7-8.53 4-2.45 8.88-.33 13.25-1-4.94-2.9-10.9-2.4-16.39-2.13-3.04.4-6.77.41-8.7 3.2 2.86-.43 5.77-1.56 8.67-.67-4.4 1.16-8.55 3.17-11.92 6.26-1.03.85-2.05 1.7-3.08 2.55.47-.86.95-1.71 1.49-2.53 1.14-1.36 2.26-2.75 3.1-4.32-.75-.11-2.23-.32-2.98-.43 1.07-.78 2.13-1.58 3.22-2.32zm48.8 124.18c5.21 1.59 10.02 4.41 15.44 5.36 2.75.75 6.48.26 7.61 3.58-8.03-1.71-16.91-2.98-23.05-8.94z" fill="#462b29"/><path d="M195.29 167.69c1.93-2.79 5.66-2.8 8.7-3.2 5.49-.27 11.45-.77 16.39 2.13-4.37.67-9.25-1.45-13.25 1-1.06-.2-2.12-.42-3.17-.6-2.9-.89-5.81.24-8.67.67zm-22.26 112.53c2.69-2.84 3.04-6.78 3.86-10.41-.37 3.2-.61 6.42-1.08 9.61 1.12.31 2.25.61 3.38.91l-.06 1.95c-2.11-.44-4.12-1.23-6.1-2.06zm-56.32 12.34c2.2-2.21 3.81-5.03 6.48-6.74-.49 2.03-1.93 3.57-3.27 5.09-3.84 4.14-7.21 8.7-11.36 12.57-2.59 2.68-4.71 7.5-9.16 6.86-2.22-2.56-2.66-6.28-3.78-9.42-1.47-3.99-2.49-8.12-3.23-12.3.27-.17.81-.53 1.08-.7 1.47 7.38 4.05 14.49 6.22 21.66.61.03 1.84.1 2.45.14 4.01-6.41 9.79-11.37 14.57-17.16zm168.76 83.82c.46.06 1.38.17 1.84.23l.6 2.4c-.58-.13-1.73-.38-2.31-.51-.03-.53-.1-1.59-.13-2.12z" fill="#776462"/><path fill="#674945" d="M223.42 163.83c2.46.11 4.74 1.07 6.83 2.32-1.15.55-2.3 1.1-3.45 1.64 1.87.53 3.81.8 5.62 1.57-.22.39-.66 1.18-.88 1.57-.7.79-1.43 1.55-2.12 2.36-.7-1.09-1.4-2.18-2.09-3.27-.24.65-.48 1.3-.71 1.95-.02 1.76-.15 3.52-.37 5.28.42-.12 1.25-.34 1.67-.45-.59.81-1.26 1.54-2.01 2.2-.5.14-1.48.42-1.98.56.59-2.09 2.44-4.23 1.35-6.46-1.39-1.82-3.36-3.07-5.1-4.51 1.66 4.81 2.11 10.37-.98 14.72.55.12 1.65.36 2.21.47a24.836 24.836 0 0 1-5.07 4.64c-2.16.46-4.33-.07-6.44-.48-.52.47-1.55 1.43-2.07 1.91-.42-.91-.84-1.81-1.25-2.71-2.74-1.2-5.58-2.16-8.18-3.65.33-.24.98-.74 1.3-.99 2.43.68 4.68 1.88 7.04 2.77l.08-.77.21-1.66c.79.95 1.59 1.89 2.38 2.84 1.66-.55 3.32-1.09 4.96-1.71 4.71-2.59 4.21-8.36 2.62-12.7-.05-.94-.13-2.82-.17-3.75.38.45 1.13 1.36 1.51 1.82 1.57-2.54 4.45-2.05 6.79-1.03-.6-1.48-1.17-2.98-1.7-4.48z"/><path fill="#c2aeac" d="M125.9 169.18c1.8-1.92 3.85-3.67 6.52-4.17.2-.07.6-.2.8-.27 1.17-.12 3.51-.37 4.68-.49-1.64 2.92-3.98 5.99-3.36 9.56.86 3.99 3.68 7.11 6.16 10.22-3.98.1-7.15-2.35-10.47-4.11-1.72-.97-3.54-1.74-5.2-2.81.52.08 1.57.25 2.09.33a69.902 69.902 0 0 1-2.98-7.49c.44-.19 1.32-.58 1.76-.77z"/><path fill="#a7837e" d="M190.06 165.22c.67.2 1.33.39 2.01.57l1.72.44c-1.09.74-2.15 1.54-3.22 2.32.75.11 2.23.32 2.98.43-.84 1.57-1.96 2.96-3.1 4.32-.66-.77-1.32-1.54-1.98-2.3l.28-1.92c-.97-.23-1.94-.48-2.9-.74 1.29-.18 2.58-.37 3.86-.59l.24-1.26.11-1.27z"/><path fill="#8c7676" d="M140.04 166.16c5.58 1 10.11 5.4 11.39 10.9-.85 1.91-1.67 3.83-2.47 5.75-1.71-.11-3.43-.22-5.14-.32l4.51-1.41c-.64-2.55-2.21-4.41-5.02-4.18-.87 1.04-1.74 2.07-2.61 3.1-1.65-1.6-3.41-3.3-3.3-5.78 1.21.2 2.42.41 3.63.63.38-.28 1.13-.85 1.51-1.13-.31 1.53 2.16 3.65 2.86 1.46-.06-1.37-.82-2.02-2.27-1.95.16-1.08.32-2.15.47-3.23-1.15.27-2.3.55-3.44.83-.71-.31-2.14-.93-2.86-1.24.81-1.22 1.46-2.63 2.74-3.43z"/><path fill="#c2aea8" d="M203.96 167.02c1.05.18 2.11.4 3.17.6-2.46 2.15-5.23 4.95-4.7 8.53.04 3.35 2.37 5.92 4.39 8.35l-.08.77c-2.36-.89-4.61-2.09-7.04-2.77-.32.25-.97.75-1.3.99-2.84-2.9-5.1-6.33-6.36-10.21 3.37-3.09 7.52-5.1 11.92-6.26z"/><path fill="#e9bbb4" d="M116.98 168.62c.74-.01 2.2-.04 2.94-.05.25.62.77 1.87 1.02 2.49.88 2.3 1.73 4.86 4.09 6.05 1.66 1.07 3.48 1.84 5.2 2.81.56.99 1.08 2 1.61 3.01-.56.52-1.67 1.56-2.23 2.08-3.62-1.26-4.82-5.54-7.61-7.92-.17.47-.5 1.43-.67 1.91 2.76 4.76 4.14 10.51 2.11 15.84-1.98-6.08-2.82-12.46-4.89-18.51-.89-2.49-1.32-5.1-1.57-7.71z"/><path fill="#867276" d="M205.86 169.71c3.72-1.21 8.32-1.82 11.13 1.56 1.59 4.34 2.09 10.11-2.62 12.7-.76-1.77-1.55-3.52-2.27-5.31-.01-.38-.04-1.15-.06-1.54.65-1.07 1.33-2.1 2.02-3.14-.49-.2-1.48-.59-1.97-.79-.87.58-1.74 1.15-2.6 1.73-1.2-.8-2.4-1.6-3.61-2.37-.97 2.2.68 3.91 2.08 5.39l1.12 1.36c-.79 1.01-1.63 1.99-2.45 2.98-3.34-3.41-3.12-8.68-.77-12.57z"/><path fill="#d9c9c5" d="M137.3 169.59c.72.31 2.15.93 2.86 1.24 1.14-.28 2.29-.56 3.44-.83-.15 1.08-.31 2.15-.47 3.23l-.59.49c-.38.28-1.13.85-1.51 1.13-1.21-.22-2.42-.43-3.63-.63-.01-1.55-.04-3.09-.1-4.63z"/><path fill="#d2bebc" d="M220.18 168.59c1.74 1.44 3.71 2.69 5.1 4.51 1.09 2.23-.76 4.37-1.35 6.46.5-.14 1.48-.42 1.98-.56-1.68 1.42-3.1 3.1-4.5 4.78-.56-.11-1.66-.35-2.21-.47 3.09-4.35 2.64-9.91.98-14.72z"/><path fill="#4a2c29" d="M226.62 171.97c.23-.65.47-1.3.71-1.95.69 1.09 1.39 2.18 2.09 3.27-.51 1.16-.95 2.36-1.5 3.51-.42.11-1.25.33-1.67.45.22-1.76.35-3.52.37-5.28z"/><path fill="#e5b3a8" d="M231.54 170.93c.67-.33 2.01-1 2.68-1.33 3.42 4.05 6.17 9.01 9.17 13.53l.6 1.72c-7.25 4.92-14.96 9.18-22.78 13.13.49-1.65 1-3.3 1.51-4.95l-2.43.33c-.36-.67-.71-1.33-1.07-1.99l3.35.45c-.74-3.01-3.55-3.51-6.23-3.4 1.9-1.31 3.6-2.86 5.07-4.64 1.4-1.68 2.82-3.36 4.5-4.78.75-.66 1.42-1.39 2.01-2.2.55-1.15.99-2.35 1.5-3.51.69-.81 1.42-1.57 2.12-2.36z"/><path fill="#4e3837" d="M143.13 173.23c1.45-.07 2.21.58 2.27 1.95-.7 2.19-3.17.07-2.86-1.46l.59-.49z"/><path d="M205.88 172.55c1.21.77 2.41 1.57 3.61 2.37.86-.58 1.73-1.15 2.6-1.73.49.2 1.48.59 1.97.79-.69 1.04-1.37 2.07-2.02 3.14-.58.31-1.76.93-2.35 1.23-.43-.1-1.3-.31-1.73-.41-1.4-1.48-3.05-3.19-2.08-5.39zm-24.74 116.62c1.35-1.33 3.41-.88 5.09-.62.68 1.49 1.45 2.96 2.71 4.06 1.82-1.34 3.52-3.6 6.07-3.13 4.25.07 6.19 5.25 4.11 8.59-3.08 3.17-7.27 4.9-11.12 6.95-3.25-2.91-6.39-6.08-8.37-10.02-.4-2.04.45-4.13 1.51-5.83z" fill="#dfcdca"/><path fill="#c4aea8" d="M100.19 176.13c.54.53.54.53 0 0z"/><path fill="#7b6872" d="M241.28 175.86c2.61 1.72 5.57 3 8.77 2.65 2.72-.35 4.41 2.14 6.49 3.42-1.49.67-2.99 1.31-4.46 2.01l.25-1.34c-2.29.89-4.67 1.59-7.15 1.67-.3.15-.89.43-1.19.58l-.6-1.72c-.24-2.55-.62-5.12-2.11-7.27z"/><path d="M122 177.09c2.79 2.38 3.99 6.66 7.61 7.92.37.06 1.11.19 1.48.26l2.2-1.28c1.64.36 2.55 1.38 2.38 3.15 1.05-.58 2.11-1.15 3.16-1.71 2.36.2 4.72.37 7.08.41-1.04.68-2.03 1.42-3.03 2.16 3.18-.13 6.41-.95 9.56-.07-1.68.95-3.42 1.77-5.17 2.55.66.69 1.33 1.4 1.99 2.1-1.16.49-2.34.94-3.53 1.39-1.18.44-2.35.89-3.48 1.45-3.61 2.52-7.95 3.29-12.22 3.87-2.28-1.35-4.58-2.71-6.59-4.45 2.03-5.33.65-11.08-2.11-15.84.17-.48.5-1.44.67-1.91zm76.72 11.06c.31-.61.63-1.22.94-1.83.28.53.84 1.57 1.12 2.1 1.98-.02 4.59.92 5.8-1.28.41.9.83 1.8 1.25 2.71.52-.48 1.55-1.44 2.07-1.91 2.11.41 4.28.94 6.44.48 2.68-.11 5.49.39 6.23 3.4l-3.35-.45c.36.66.71 1.32 1.07 1.99l2.43-.33c-.51 1.65-1.02 3.3-1.51 4.95-2.16 1.2-4.04 2.97-6.44 3.69-3.58.39-7.17-.24-10.6-1.25-2.01-.61-4.03-1.21-6.06-1.74-.94-.26-1.89-.51-2.83-.75l-.6-2.88c.67-1.05 1.35-2.1 2.03-3.15-.3-.39-.89-1.18-1.19-1.57 1.06-.73 2.13-1.45 3.2-2.18z" fill="#e79f93"/><path fill="#baa6a5" d="M143.31 176.9c2.81-.23 4.38 1.63 5.02 4.18l-4.51 1.41c-1.04-.84-2.08-1.67-3.12-2.49.87-1.03 1.74-2.06 2.61-3.1z"/><path fill="#5d4846" d="M209.69 178.35c.59-.3 1.77-.92 2.35-1.23.02.39.05 1.16.06 1.54-.6-.07-1.81-.23-2.41-.31z"/><path fill="#b7a3a2" d="M207.96 177.94c.43.1 1.3.31 1.73.41.6.08 1.81.24 2.41.31.72 1.79 1.51 3.54 2.27 5.31-1.64.62-3.3 1.16-4.96 1.71-.79-.95-1.59-1.89-2.38-2.84l-.4-.56c.82-.99 1.66-1.97 2.45-2.98l-1.12-1.36z"/><path fill="#5e4549" d="M313.61 188.74c-.35-3.42-1.6-7.25.42-10.38.97 4.03 1.22 8.18 1.95 12.26 2.37 13.98 6.73 27.58 12.46 40.54 1.6 3.66 4.8 6.26 8.04 8.43 5.57 3.46 12.42 3.73 18.17 6.79 3.62 1.9 6.93 4.3 10.38 6.49 7.59 4.65 12.84 12.24 20.64 16.63.69.51 1.08 1.22 1 2.1-5.58-4.22-11.85-7.49-16.91-12.37-6.6-5.12-13.72-9.88-21.57-12.78 5.62 3.42 11.89 6.03 16.39 11.03 5.43 4.96 7.13 12.54 7.73 19.57.29 4.98.71 10.22-1.34 14.92-1.38 4.18-3.74 8.31-3.4 12.84.43.62 1.29 1.87 1.73 2.49l-2.68-.96c-.27 2.56-.47 5.26-2.16 7.37-1.47-1.28-.55-3.16-.26-4.72 1.35-4.99 2.04-10.14 3.74-15.04 1.02-3.55 2.93-7.07 2.35-10.88-.61-5.93-.67-12.03-2.38-17.78-2.05-3.24-4.71-6.05-6.99-9.13-2.73-2.52-6.37-3.73-9.55-5.58-4.34-2.07-7.88-5.47-12.28-7.42-3.5-1.76-7.28-3.37-9.88-6.4-5.16-6.79-13.01-11.17-17.17-18.79-3.12-5.63-7.24-12.26-5-18.89 1.27 4.31 1.71 8.92 3.96 12.89 3.54 6.54 7.5 13.78 14.68 16.83-2.42-6.41-4.82-12.84-7.73-19.03-1.24-7.05-2.88-14.02-4.34-21.03z"/><path fill="#745552" d="M101.17 181.8c4 .29 2.22 4.58 2.32 7.14-.23 8.72-1.63 17.34-2.32 26.04-.48 5.69-2.21 11.24-4.85 16.29-1.81 3.39-3.36 7.14-6.48 9.55-1.23.83-2.54 2.53-4.18 1.65-5.13-2.05-11.11-2.03-16.16.23-6.25 2.74-12.21 6.13-17.85 9.97-4.09 2.85-8.88 4.41-13.06 7.1-2.32 1.56-5.35 1.51-7.58 3.24-3.45 2.52-6.52 5.51-10.06 7.92-2.04 1.32-3.79 3-5.25 4.94-.4-.66-.68-1.37-.83-2.12 5.15-4.13 10.29-8.29 15.65-12.15 2.61-2.1 6.29-2 8.8-4.26 3.73-2.87 8.3-4.32 12.09-7.09 5.36-3.85 11.31-6.75 17.27-9.55 5.75-2.87 12.56-2.06 18.46-.11 8.24-7.57 9.97-19.1 11.8-29.55 1.96-9.61 2.57-19.46 2.23-29.24z"/><path fill="#e4b2ab" d="M256.54 181.93c1.97 1.17 4.15 2.27 5.29 4.38 3.26 6.02 2.88 13.08 2.73 19.7-.1 4.27-2.64 8-5.45 11.02-3.9 3.99-8.41 8.2-14.23 8.77-.21-1.39-.42-2.78-.61-4.17-1.38-.14-2.77-.34-4.15-.22-1.88 1.11-3.37 2.74-5 4.17-4.69-1.22-6.48-6.27-6.29-10.65.72-3.71 1.76-7.38 3.41-10.79 2.05-2.85 4.17-5.64 6.33-8.41 3.77-4.7 9.04-7.82 13.51-11.79 1.47-.7 2.97-1.34 4.46-2.01m-4.58 8.94c-3.34 1.81-6.52 4.23-8.65 7.4-2.16 3.28 2.06 6.11 1.41 9.45-1.76 3.85-6.66 4.52-8.75 7.99l1.92-.08c4.92-2.48 8.4-7.87 14.33-8.24.34 2.29.81 4.65-.03 6.89-3.57.36-6.84 1.93-10.33 2.68-3.39.62-6.99 2.18-7.95 5.82 2.62.77 2.72-2.49 4.54-3.39 3.63-1.79 7.48-3.22 11.49-3.81 1.94-.18 3.49-1.45 5.09-2.43-.24-2.66-.17-5.78-2.58-7.54-2.43-.43-4.34 1.72-6.65 2.09.37-2.47-.94-4.54-1.52-6.8.32-3.26 3.4-5.24 5.96-6.79.25 1.73-.66 4.4 1.53 5.21 2.73.82 5.45-.54 8.12-.99l-.32-2.02c-2.6.1-5.5 2.83-7.82.81-.23-1.72-.76-4.23 1.4-4.93 1.92-1.4 4.24-.4 6.11.53-1.18-2.86-4.86-3.2-7.3-1.85z"/><path d="M153.76 190.41c2.6-1.49 5.27-3.07 8.37-3.09-3.07 5.9-6.79 11.81-7.36 18.61-.73 7.7-.57 15.72 2.33 23 1.4 3.65 2.49 7.42 4 11.03 2.74 5.71 6.13 11.08 9.95 16.12-4.98-1.01-9.33-3.79-13.29-6.84-5.53-4.46-11.3-8.69-16.27-13.79-5.23-5.97-11.27-11.75-13.56-19.6-1.81-6.32-4.63-12.4-5.19-19.02 1.3.87 2.58 1.76 3.89 2.62 5.01 3.98 11.31.12 16.34-1.87l-.72-2.16c1.13-.56 2.3-1.01 3.48-1.45-.14.54-.41 1.62-.55 2.16 3.72-1.09 7.26-2.7 10.7-4.49-.53-.31-1.59-.92-2.12-1.23zm152.59 111.04c4.28-.56 8.71-.42 12.94.32.19.17.55.51.73.69-5.09.34-10.35-.62-15.25 1.19-4.66 1.64-9.54 2.51-14.25 3.9-3.58 3.27-7.72 6.1-12.43 7.43-4.81 1.56-8.49 5.48-13.24 7.01 1.3-2.42 4.02-3.47 6.24-4.86 5.39-2.69 11.27-4.4 16.33-7.74 1.68-1.19 2.93-3.06 5.01-3.61 4.65-1.4 9.22-3.1 13.92-4.33zM96.81 356.1c3.18-.38 5.63 2.14 7.14 4.64-2.72-.92-5.24-2.47-7.14-4.64z" fill="#695555"/><path fill="#695552" d="M156.7 220.97c-1.92-11.15.14-23.31 7.14-32.38 3.26.1 5.96 1.69 8.38 3.72 8.89 2.63 17.57 5.94 26.5 8.47-.16-.53-.46-1.58-.61-2.1 2.03.53 4.05 1.13 6.06 1.74-.74.16-2.23.49-2.97.66 5.28 3.5 13.24 5.12 18.61.92 6.95-4.23 14-8.33 21.19-12.17-1.29 1.65-4.45 3.57-2.43 5.9-2.16 2.77-4.28 5.56-6.33 8.41-.11-.58-.34-1.73-.45-2.31-2.92 4.53-4.35 9.91-4.41 15.28-1.1.49-2.19.99-3.28 1.48 1.58-.44 3.15-.88 4.74-1.31-.65.97-1.3 1.94-1.95 2.92 1.52 2.01 2.89 4.14 4.04 6.39-4.67 2.28-7.24 7.1-11.39 10.08-1.46 1.54-4.45 2.42-3.99 5.04-3.99 2.6-8.3 4.76-12.8 6.31-2.1-2.79-5.42.28-7.88.92-6.92 2.24-13.48 5.83-20.77 6.79-4.98-3.18-7.67-8.66-10.04-13.86-3.77-6.44-5.35-13.8-7.36-20.9z"/><path d="M251.96 190.87c2.44-1.35 6.12-1.01 7.3 1.85-1.87-.93-4.19-1.93-6.11-.53-2.16.7-1.63 3.21-1.4 4.93 2.32 2.02 5.22-.71 7.82-.81l.32 2.02c-2.67.45-5.39 1.81-8.12.99-2.19-.81-1.28-3.48-1.53-5.21-2.56 1.55-5.64 3.53-5.96 6.79.58 2.26 1.89 4.33 1.52 6.8 2.31-.37 4.22-2.52 6.65-2.09 2.41 1.76 2.34 4.88 2.58 7.54-1.6.98-3.15 2.25-5.09 2.43-4.01.59-7.86 2.02-11.49 3.81-1.82.9-1.92 4.16-4.54 3.39.96-3.64 4.56-5.2 7.95-5.82 3.49-.75 6.76-2.32 10.33-2.68.84-2.24.37-4.6.03-6.89-5.93.37-9.41 5.76-14.33 8.24l-1.92.08c2.09-3.47 6.99-4.14 8.75-7.99.65-3.34-3.57-6.17-1.41-9.45 2.13-3.17 5.31-5.59 8.65-7.4zM146.55 291.11c9.5 5.16 22.06 6.24 28.28 16.13-1.95 1.32-2.82-1.03-4.01-2.09-4.75-5.29-11.88-6.9-18.05-9.86-2.29-1.03-5-1.74-6.22-4.18z" fill="#593732"/><path d="M236.38 230.16c.55-3.05 1.6-6.17 4.47-7.78l2.54.2c-2.33 2.53-5.35 4.67-5.59 8.41 1.2 1.31 2.52 2.53 3.98 3.57.65-.35 1.96-1.04 2.61-1.38.43-1.89.84-3.77 1.25-5.66.43 1.18.85 2.37 1.28 3.56-1.02 1.31-2.04 2.62-3.05 3.94-2.91.21-6.06-.33-6.9-3.64-.52.64-1.02 1.29-1.52 1.95l-.33-2.53c.32-.16.95-.48 1.26-.64zm3.89 7.27c.41-.14 1.24-.43 1.65-.57-.89 5.37-.33 10.77-.39 16.16-2.44-.48-1.1-3.48-1.16-5.15-.33-3.48.21-6.95-.1-10.44zM75.99 323.67c2.33 2.5 4.18 5.39 6.24 8.11 2.43 2.65 1.24 6.49 1.16 9.71-.23.16-.7.48-.94.64-1.57-6.36-4.52-12.25-6.46-18.46z" fill="#cebab9"/><path fill="#786467" d="M242.91 231.93c-2.78.31-3.8-3.08-1.07-4.05 1.09 1.17 2.19 2.44 1.07 4.05z"/><path fill="#756873" d="M234.06 229.89c.22.09.65.27.86.36l.2.55.33 2.53c.96.93 1.93 1.86 2.91 2.79-.06 7.48-.63 14.98-.21 22.45.43.19 1.31.57 1.74.76-.09.12-.27.36-.36.49-.57.39-1.7 1.17-2.27 1.55-.85 4.02-.56 8.2-1.65 12.18-1.66-8.62-2.46-17.47-2.34-26.27-.05-5.8-.3-11.66.79-17.39z"/><path fill="#e6d2d0" d="M69.5 242.7c5.05-2.26 11.03-2.28 16.16-.23-4.51 4.33-9.64 7.96-14.99 11.16-4.16 2.44-7.57 5.92-11.69 8.4-6.95 4.15-11.98 10.72-16.23 17.46-1.92 3.26-3.59 6.65-5.08 10.13-1.59 4.2-5.64 6.61-8.13 10.19-4.1-4.16-6.86-9.66-8.12-15.34 4.19-2.58 8.22-5.51 12.79-7.41 4.14-1.8 8.59-3.01 12.33-5.62-2.68-.18-5.47-.16-7.87 1.23-4 2.11-8.62 2.47-12.72 4.32-2.82 1.26-5.82 1.98-8.84 2.55-.18-.67-.52-2-.69-2.67l-.72-1c1.46-1.94 3.21-3.62 5.25-4.94 3.54-2.41 6.61-5.4 10.06-7.92 2.23-1.73 5.26-1.68 7.58-3.24 4.18-2.69 8.97-4.25 13.06-7.1 5.64-3.84 11.6-7.23 17.85-9.97z"/><path fill="#e9d7d4" d="M348.19 246.45c7.85 2.9 14.97 7.66 21.57 12.78 5.06 4.88 11.33 8.15 16.91 12.37-1.38 1.27-2.77 2.54-4.12 3.85-.35 3.12-1.46 6.06-2.52 8.99-1.9-1.06-3.73-2.21-5.55-3.37 1.12 1.71 2.44 3.29 4.07 4.55-1.46 5.1-4.78 9.33-6.78 14.19-.81 2.09-2.6 3.53-4.2 5-.34-4.53 2.02-8.66 3.4-12.84 2.05-4.7 1.63-9.94 1.34-14.92-.6-7.03-2.3-14.61-7.73-19.57-4.5-5-10.77-7.61-16.39-11.03z"/><path d="M240.46 253.63c1.84 2.12 1.07 4.89.31 7.3.23 1.58.49 3.16.74 4.74-.57.02-1.7.05-2.27.07.04-1.98.08-3.96.29-5.92.09-.13.27-.37.36-.49.29-1.89.39-3.8.57-5.7zm-.98 13.51c2.89-.17 3.4 3.68 2.34 5.66-.79 1.45-2.33.38-3.46.09.12-1.96.44-3.9 1.12-5.75z" fill="#ccb8b6"/><path fill="#e1d2cd" d="M204.04 267.72c9.65.4 18.8-3.23 28.09-5.26-.62 3.91-.14 7.86.45 11.74-5.43 2.43-11.24 3.82-16.96 5.33-4.48.96-8.97 2.21-13.59 2.15-7.62-.08-15.33.3-22.84-1.35-1.13-.3-2.26-.6-3.38-.91.47-3.19.71-6.41 1.08-9.61.21-.95.43-1.89.64-2.84 8.67 2.11 17.71 1.42 26.51.75z"/><path fill="#5c4543" d="M38.67 272.67c2.4-1.39 5.19-1.41 7.87-1.23-3.74 2.61-8.19 3.82-12.33 5.62-4.57 1.9-8.6 4.83-12.79 7.41-.72.24-2.15.73-2.86.97.96-3.97 5.61-4.49 8.61-6.36-3.25.55-6.34 2.13-9.69 2.05-.09-.4-.28-1.19-.37-1.59 3.02-.57 6.02-1.29 8.84-2.55 4.1-1.85 8.72-2.21 12.72-4.32z"/><g fill="#c1adac"><path d="M130.6 278.33c5.06-1.71 9.95-3.99 14.49-6.82 3.47 1.25 6.8 2.86 9.98 4.72 1.06.94 2.08 1.93 3.1 2.92.75.14 2.24.43 2.99.58-7.69 2.96-15.91 3.87-24.06 4.53-.11-.25-.33-.75-.44-1.01 1.52-2.06 3.26-4.05 5.49-5.37 2.24-.79 4.68-.62 6.99-1.11-3.31-.44-7.39-1.34-9.98 1.4-6.02 5.71-9.21 13.52-13.36 20.54-3.9 7.82-7.94 15.7-9.62 24.35-2.59 8.94-4.27 18.11-7.13 26.96-1.18 4.21-2.86 8.26-3.78 12.54-.62.04-1.86.1-2.48.13.48.52 1.44 1.55 1.93 2.07-.75 3.26-1.25 6.58-1.35 9.93-1.48-1.69-3.54-2.48-5.64-3.06 4.22-4.02-2.43-12.88-7.45-9.35-1.53.8-1.61 2.49-1.21 3.98 1.15-1.15 1.79-3.54 3.85-3.17 3.45.32 5.39 4.53 4.17 7.63-1.96-2.47-4.92-3.59-7.93-4.09-1.43-2.65-3.73-4.52-6.64-5.31.51-2.21 1.01-4.42 1.49-6.64 2.69-.03 5.38-.05 8.06-.13a19.29 19.29 0 0 0-8.01-1.78c.43-5.27.97-10.53 1.27-15.8-.05-1.55.26-3.29-.67-4.64-4.47-6.86-10.84-12.65-13.41-20.62-1.71-5.15-4.34-9.89-6.98-14.6 4.83-2.33 9.09-5.64 13.78-8.22 5.35-3.45 11.4-5.58 16.95-8.67 3.64 1.2 7.3-.34 10.98-.33 8.22-.17 16.52.06 24.62-1.56m-13.89 14.23c-4.78 5.79-10.56 10.75-14.57 17.16-.61-.04-1.84-.11-2.45-.14-2.17-7.17-4.75-14.28-6.22-21.66-.27.17-.81.53-1.08.7.74 4.18 1.76 8.31 3.23 12.3 1.12 3.14 1.56 6.86 3.78 9.42 4.45.64 6.57-4.18 9.16-6.86 4.15-3.87 7.52-8.43 11.36-12.57 1.34-1.52 2.78-3.06 3.27-5.09-2.67 1.71-4.28 4.53-6.48 6.74m-27.3 12.94c1.2 3.58 2.54 7.1 3.76 10.68 1.63 4.63 4.19 8.96 5.24 13.79.29 5.93.11 11.89-.06 17.82.53-.02 1.59-.07 2.12-.09-.23-4.22-1.14-8.4-.88-12.64.29-4.5-1.6-8.77-3.14-12.9-2.57-5.41-4.61-11.08-6.19-16.84-.21.05-.63.14-.85.18m7.4 50.6c1.9 2.17 4.42 3.72 7.14 4.64-1.51-2.5-3.96-5.02-7.14-4.64zm190.39-75.82c3.25-.51 6.9-1.11 9.88.7 3.04 3.33 4.89 7.64 8.11 10.83 5.95 3.85 12.96 5.63 19.31 8.64 2.18 2.34 3.26 5.41 4.79 8.17 2.37 4.87 6.89 8.32 8.93 13.4-8.65 1.03-17.72-2.54-26.03 1.09-5.77 3.36-10.62 8.07-15.48 12.6-3.5 3.16-7.19 6.11-10.47 9.5-2.65 2.69-4.18 6.3-7.24 8.6 2.33-10.45 5.21-20.83 8.77-30.92-1.35 2.23-2.53 4.6-3.18 7.14-2.2 8.12-4.88 16.12-6.51 24.38-1.1 5.28-5.38 8.95-7.95 13.49-.77-1.06-1.54-2.11-2.31-3.15.52 1.47 1.07 2.94 1.64 4.4-4.37 7.91-11.07 14.08-16.07 21.53-4.3-4.05-8.9-7.78-12.74-12.3-3.79-4.48-8.61-7.92-13.05-11.71-3.89-.17-7.5-1.68-11.33-2.14-.28-3.94 2.12-7.32 3.33-10.92 1.79-5.07 5.74-8.9 9.48-12.58 4.13 1.42 8.52 1.28 12.82 1.1-3.74-2.11-8.09-1.39-12.18-1.41 1.46-1.54 2.94-3.07 4.55-4.44 14.72-12.7 29.18-25.76 45.09-36.98 4.2-2.89 7.92-6.41 12.12-9.29-.59-1.87-1.21-3.73-1.89-5.56l-2.44-.44c.76 1.32 1.93 2.49 2.16 4.05-2.03 3.24-5.72 4.85-8.76 6.97-5.86-2.63-12.07-4.28-18.14-6.33 4.43-1.42 7.94-4.83 12.52-5.86 4.05-1.01 8.16-1.81 12.27-2.56m19.15 21.17c-4.7 1.23-9.27 2.93-13.92 4.33-2.08.55-3.33 2.42-5.01 3.61-5.06 3.34-10.94 5.05-16.33 7.74-2.22 1.39-4.94 2.44-6.24 4.86 4.75-1.53 8.43-5.45 13.24-7.01 4.71-1.33 8.85-4.16 12.43-7.43 4.71-1.39 9.59-2.26 14.25-3.9 4.9-1.81 10.16-.85 15.25-1.19-.18-.18-.54-.52-.73-.69-4.23-.74-8.66-.88-12.94-.32m-58.53 43.78c2.05 2.04 5.04 3.04 7.65 4.21-1.8-2.43-4.36-4.84-7.65-4.21m14.08 9.33c.38 3.04 2.73 6.01 5.91 6.34-1.86-2.22-3.81-4.36-5.91-6.34m-13.89 11.42c-1.76 1.96-4.28 3.87-3.91 6.83 1.48-.27 3.3-.04 4.27-1.47 2.6-2.99 6.23-6.25 5.68-10.59-2.56 1.02-4.18 3.33-6.04 5.23z"/><path d="m69.2 314.78.66-.37c3.55 3.6 3.36 8.91 5.68 13.15 1.54 3.05 2.56 6.32 3.44 9.62-4.94 3.47-10.61 5.71-16.22 7.86-1.5-2.08-3.27-3.94-5.35-5.45 4.26-8.1 8.56-16.24 11.79-24.81zm245.27 9.62c6.23-1.73 12.97-1.02 19.24.06 4.84 2.76 9.49 6.37 12.72 10.97-3.47 3.17-6.34 6.95-9.81 10.13-5.62-.41-10.27 3.11-15.41 4.7-5.1 1.69-9.75 4.45-14.76 6.36-7.28 3.04-13.22 8.46-20.26 11.89 2.73-4.01 7.1-6.4 10.41-9.87 6.42-6.45 13.94-11.57 21.38-16.73 4.42-2.55 8.61-5.63 13.45-7.33 4.1-1.27 8.09.73 11.49 2.83-.88-3.6-4.74-4.59-7.94-4.84-5.1-.9-9.01 3.16-13.27 5.19-5.88 2.83-10.65 7.35-16.09 10.88-5.74 4.18-10.34 9.68-15.89 14.1-4.81 3.64-7.57 9.12-11.35 13.69-2.38 2.82-4.2 6.05-5.67 9.43-5.73 1.71-11.21 4.41-17.21 5.14 3.55-6.64 9.74-11.35 13.53-17.85 3.78-6.7 8.66-12.67 13.7-18.46-.06-.66-.18-1.99-.23-2.66 5.1-7.72 13.28-12.34 19.52-18.98 3.79-3.31 7.82-6.59 12.45-8.65zm-249.1 21.68c4.96-2.14 9.8-4.66 13.97-8.12 2.1 6.83 4.56 14.25 1.82 21.28-5.65-3.87-11.21-8.04-15.79-13.16z"/><path d="M314.87 354.69c6.2-2.24 12.12-5.36 18.55-6.86-8.89 8.45-18.92 15.68-29.27 22.25-1.19.47-2.71 2.24-3.7.53.05 1.92-1.93 2.6-3.27 3.46-3.23 1.65-6.27 3.62-9.47 5.32-4.08 1.75-8.28 3.19-12.24 5.2.99-6.31 7-9.77 11.24-13.87 8.52-6.7 18-12.21 28.16-16.03m-29.4 21.69c.03.53.1 1.59.13 2.12.58.13 1.73.38 2.31.51l-.6-2.4c-.46-.06-1.38-.17-1.84-.23zm-70.39-11.34c5.9 5.92 7.42 14.48 12.12 21.19-4.1 4.25-8.3 8.43-12.83 12.24.07.2.19.6.25.81l.27.72h-8.69c.31-.17.94-.5 1.25-.67 2.1-10.71 3.97-21.46 6.81-32 .2-.57.62-1.72.82-2.29z"/></g><path d="M285.83 271.25c2.16 1.46 2.45 4.2 3.56 6.37 2.31.74 4.84.19 7.17.9 5.53 3.42 7.21 10.89 13.44 13.47 4.67 1.99 9.33 4.67 14.54 4.69 3.71 4.88 6.97 10.15 11.9 13.96l-2.76.4c2.98 3.99 6.25 7.92 7.64 12.82-.85.15-2.55.46-3.4.61 3.43 3.15 7.09 6.04 10.61 9.09-.69.63-1.39 1.26-2.1 1.87-3.23-4.6-7.88-8.21-12.72-10.97-6.27-1.08-13.01-1.79-19.24-.06-4.63 2.06-8.66 5.34-12.45 8.65-6.24 6.64-14.42 11.26-19.52 18.98.05.67.17 2 .23 2.66-5.04 5.79-9.92 11.76-13.7 18.46-3.79 6.5-9.98 11.21-13.53 17.85-.68 1.19-1.91 1.73-3.19 2.04l-.89-1.17c-1.24-1.83-2.93-3.25-4.63-4.62-5.32-4.34-8.92-10.43-14.38-14.62-1.96-1.48-3.69-3.23-5.6-4.76-2.48-.58-5.08-.17-7.6-.2 3.93 5.76 6.37 12.31 9.53 18.48-3.51 4.19-7.63 7.83-11.14 12.03.85.01 2.56.03 3.41.03-2.17.09-4.31.46-6.39 1.07-.06-.21-.18-.61-.25-.81 4.53-3.81 8.73-7.99 12.83-12.24-4.7-6.71-6.22-15.27-12.12-21.19-.2.57-.62 1.72-.82 2.29-.19-2.24-.05-4.5.8-6.6.15-.43.44-1.3.59-1.73-2.28-.28-4.56-.59-6.85-.71 2.17-.03 4.34.06 6.51.18 1.48-2.38 2.48-5 3.87-7.42 1.45-1.9 3.27-3.49 4.71-5.4 6.96-8.9 15.64-16.23 24.08-23.65 7.59-7.54 16.19-13.93 24.38-20.78-1.39-.39-2.77-.77-4.14-1.16 1.8-1.39 4.01-.66 6.07-.76 2.34-1 4.16-2.89 6.27-4.27 3.04-2.12 6.73-3.73 8.76-6.97-.23-1.56-1.4-2.73-2.16-4.05l2.44.44c.68 1.83 1.3 3.69 1.89 5.56-4.2 2.88-7.92 6.4-12.12 9.29-15.91 11.22-30.37 24.28-45.09 36.98-1.61 1.37-3.09 2.9-4.55 4.44 4.09.02 8.44-.7 12.18 1.41-4.3.18-8.69.32-12.82-1.1-3.74 3.68-7.69 7.51-9.48 12.58-1.21 3.6-3.61 6.98-3.33 10.92 3.83.46 7.44 1.97 11.33 2.14 4.44 3.79 9.26 7.23 13.05 11.71 3.84 4.52 8.44 8.25 12.74 12.3 5-7.45 11.7-13.62 16.07-21.53-.57-1.46-1.12-2.93-1.64-4.4.77 1.04 1.54 2.09 2.31 3.15 2.57-4.54 6.85-8.21 7.95-13.49 1.63-8.26 4.31-16.26 6.51-24.38.65-2.54 1.83-4.91 3.18-7.14-3.56 10.09-6.44 20.47-8.77 30.92 3.06-2.3 4.59-5.91 7.24-8.6 3.28-3.39 6.97-6.34 10.47-9.5 4.86-4.53 9.71-9.24 15.48-12.6 8.31-3.63 17.38-.06 26.03-1.09-2.04-5.08-6.56-8.53-8.93-13.4-1.53-2.76-2.61-5.83-4.79-8.17-6.35-3.01-13.36-4.79-19.31-8.64-3.22-3.19-5.07-7.5-8.11-10.83-2.98-1.81-6.63-1.21-9.88-.7-4.11.75-8.22 1.55-12.27 2.56-4.58 1.03-8.09 4.44-12.52 5.86-.49.09-1.49.27-1.99.36 1.02-1.94 2.85-3.12 4.72-4.12 6.8-4.05 14.76-5.23 22.42-6.63-.86-2.28-1.46-4.65-1.73-7.06zM66.97 315.88c.56-.27 1.67-.82 2.23-1.1-3.23 8.57-7.53 16.71-11.79 24.81a36.87 36.87 0 0 1-2.74-2.56c2.65-2.61 5.23-5.41 6.71-8.87 1.73-4.17 4.72-7.76 5.59-12.28z" fill="#574545"/><path fill="#e5b5ab" d="M229.74 277.63c1.37-.29 2.79-1.56 4.21-.88 1.62 2.92 2.41 6.27 4.47 8.97 1.36 1.58 2.7 3.19 4.17 4.69 6.14 5.96 15.02 7.23 23.05 8.94.85.24 1.7.47 2.57.71 1.37.39 2.75.77 4.14 1.16-8.19 6.85-16.79 13.24-24.38 20.78-8.44 7.42-17.12 14.75-24.08 23.65-1.44 1.91-3.26 3.5-4.71 5.4-1.39 2.42-2.39 5.04-3.87 7.42-2.17-.12-4.34-.21-6.51-.18-6.03.29-11.68 2.77-17.65 3.48-5.31.62-10.14 3.07-15.31 4.24-6.63 1.13-13.05 3.58-19.85 3.55-5.05.59-8.7-3.55-13.14-5.17-.99-.44-2.01-.82-3.01-1.23-7.41-3.43-14.63-7.27-22.02-10.74-2.46-1.02-5.1-1.44-7.69-1.99 1.13-6.33 2.73-12.59 4.96-18.62 2.78-7.59 3.65-15.84 7.5-23.03 3.11-5.88 5.49-12.27 9.73-17.45 3.83-1.37 8.03-1.49 12.03-2.26.64-.06 1.94-.17 2.59-.23a54.46 54.46 0 0 0 20.59-4.49c2.16-.88 3.94-2.43 5.5-4.13 1.98.83 3.99 1.62 6.1 2.06 1.24.13 2.48.22 3.72.36 1.98.45 4.13 1.07 4.17 3.53-1.67.12-3.33.23-4.99.4-2.78 1.65-5.06 5.11-3.94 8.41 1.7 5.13 5.82 8.89 10.06 12 4.19-2.34 8.73-4.3 12.19-7.73 1.78-1.48 1.27-4.08 1.25-6.11-.96-3.6-4.81-5.66-8.4-5.57l-.03-3.92c5.97-.03 12.04.63 17.92-.74 6.32-1.36 12.6-3 18.66-5.28m-83.19 13.48c1.22 2.44 3.93 3.15 6.22 4.18 6.17 2.96 13.3 4.57 18.05 9.86 1.19 1.06 2.06 3.41 4.01 2.09-6.22-9.89-18.78-10.97-28.28-16.13m75.43 11.62c-4.93.86-10.06.3-14.85 1.93-2.18.73-4.01 2.44-4.38 4.79 4.1-5.2 11.35-4.43 17.24-4.82 8.17.04 16.16-1.66 24.16-3.12l-1.67-1.94c-6.74 1.57-13.56 3.05-20.5 3.16z"/><path fill="#a58684" d="M182.85 282.64c2.24.24 4.49.48 6.71.94-.8 1.86-1.41 5.09 1.54 5.04-.49.05-1.47.14-1.96.18-2.26-1.03-4.55-2.31-7.11-2.23 1.66-.17 3.32-.28 4.99-.4-.04-2.46-2.19-3.08-4.17-3.53z"/><path fill="#d9c5c2" d="M191.1 288.62c-2.95.05-2.34-3.18-1.54-5.04.59.37 1.79 1.11 2.39 1.48-.29 1.18-.57 2.37-.85 3.56z"/><path fill="#665863" d="M321.33 287.95c2.71.63 2.8 5.59 1.65 7.71-1.93-2.15-1.77-5.03-1.65-7.71z"/><path fill="#e6d1d0" d="M29.01 302.61c1.47-3.63 4.41-6.23 7.45-8.54.03 2.1-.07 4.25.43 6.33.31 1.48.92 2.91 1 4.45-.72 1.02-1.58 1.93-2.41 2.86-2.33-1.47-4.52-3.15-6.47-5.1z"/><path fill="#eedad8" d="M34.62 310.43c1.34-1.23 2.63-2.51 3.97-3.73.73 1.44 1.47 2.89 2.2 4.34 1.49 2.9 2.75 5.98 2.84 9.29-4.42-1.86-5.8-6.75-9.01-9.9z"/><path fill="#927b7a" d="M248.01 365.98c1.86-1.9 3.48-4.21 6.04-5.23.55 4.34-3.08 7.6-5.68 10.59-.97 1.43-2.79 1.2-4.27 1.47-.37-2.96 2.15-4.87 3.91-6.83z"/><path fill="#bfabaa" d="M219.21 367.67c2.52.03 5.12-.38 7.6.2 1.91 1.53 3.64 3.28 5.6 4.76 5.46 4.19 9.06 10.28 14.38 14.62 1.7 1.37 3.39 2.79 4.63 4.62-4.74 2.6-10.2 3.07-15.39 4.21-4.95 1.05-9.96 1.95-15.02 2.13-.85 0-2.56-.02-3.41-.03 3.51-4.2 7.63-7.84 11.14-12.03-3.16-6.17-5.6-12.72-9.53-18.48z"/></svg>