<svg height="1025" viewBox="0 0 1024 1025" width="1024" xmlns="http://www.w3.org/2000/svg"><path d="M0 0h1024v1024H0z" fill="#ffe0e0"/><path d="m426 758.3-13.7-179.8h201.6v179.8l.5 5 1.7 9 1.5 4.3 1.9 4 2.5 3.8 4.6 5.2 6.6 5 5 2.8 6.1 2.7 7.4 2.7 7.6 2.1 9.1 2.1 10.8 2 23.6 2.9 14.7 1.2-.8 11.8.6 37.5-.4 10.9-.6 7.2-1 7.3-1.5 7.2-3.2 10.5-2.2 5.2-2.6 5.2-2.9 4.9-3.5 4.8-4 4.8-4.6 4.7-4.8 4.3-5.5 4.2-6.4 4.1-7.2 4-7.2 3.4-8.2 3.3-9.2 3.2-10.4 3-10.1 2.5-11.3 2.2-12.7 2-14 1.7-13.6 1.3-15 .9-16.5.6-18.2.2-18.2-.3-16.6-.7-15.1-1.1-13.8-1.4-14.2-1.9-12.9-2.2-11.6-2.4-10.5-2.7-10.8-3.3-9.6-3.4-8.6-3.6-7.6-3.7-7.7-4.2-6.8-4.4-6-4.4-5.4-4.5-5.1-5-4.4-5-4-5-3.4-5.1-5.7-10.7-4.1-10.8-2-7.4-1.5-7.2-1.1-7.2-.9-10.8-.3-10.2.5-27.9-.2-7.5 9.9.2 9.3-.2 8.9-.6 17-2.3 8-1.7 7.4-2 6.8-2.2 6.9-2.7 6.3-2.8 5.6-3.1 5.1-3.2 4.9-3.7 4.2-3.8 3.5-3.9 3-3.9 2.6-4.4 1.9-4.4 1.2-4.4.6-4.6z" fill="#f6b88a" fill-rule="evenodd"/><path d="m613.9 634.1-7.6 7.2-13.8 11.3-9.5 7-14.2 9.5-17 9.8-9.3 4.7-10 4.6-10.3 4.3-10.8 3.9-11.5 3.5-17.8 4.4-9.3 1.6-9.7 1.4-9.7.9-9.9.4h-10.3l-10.6-.4-2.7-37.5-7.6-90.5h201.6v53.9z" fill="#ea9e66" fill-rule="evenodd"/><path d="m369.2 458.9-8.1-6.4-4-2.4-7.9-3.8-7-1.7-3.6-.3-3.6.3-3.7.8-2.6.9-5.2 3.3-2.7 2.5-3 4.3-1.2 2.7-1 3.3-.8 4.5-.4 5 .1 5.7.5 5.7.9 6 1.5 6.5 1.9 6.3 2.4 6.5 3 6.6 6.6 10.1 3.9 5 4.3 4.8 4.7 4.5 5.1 4.2 2.4 1.4 4.8 1.9 3.8.7 4 .2 18.1-1-13.2-88.1zm292.3 0 8.1-6.4 4-2.4 7.9-3.8 7-1.7 3.6-.3 3.6.3 3.7.8 2.6.9 5.2 3.3 2.7 2.5 3 4.3 1.2 2.7.9 3.3.9 4.5.4 5-.1 5.7-.5 5.7-.9 6-1.5 6.5-1.9 6.3-2.5 6.5-2.9 6.6-6.6 10.1-3.9 5-4.3 4.8-4.7 4.5-5.1 4.2-2.4 1.4-4.8 1.9-3.8.7-4.1.2-18-1 13.2-88.1z" fill="#f6b88a" fill-rule="evenodd"/><path d="m511 208.7-10 .3-9.5.7-9.1 1.1-8.6 1.6-8.2 2-7.8 2.3-7.9 2.9-7.5 3.2-7.2 3.6-6.8 3.9-6.5 4.3-6.1 4.6-7.1 6.1-6.6 6.5-6.3 6.9-5.8 7.4-5.4 8-4.8 8.1-4.5 8.6-4.1 9-3.8 9.5-3.3 9.9-2.8 9.9-2.4 10.2-2.1 10.6-1.6 11-1.3 11.4-1 14.1-.3 14.5.2 15 4.4 71.1 1.3 14.7 2.1 15.7 3.2 18.2 4.8 22.4 2.6 7.8 2.5 5.6 6.1 11.4 8.6 13.4 10.5 14.2 5.8 7.1 13.2 14.1 7.1 6.8 7.5 6.4 7.9 6.1 6.2 4.3 12.7 7.6 6.7 3.3 5.6 2.3 5.7 1.7 11.3 2.1 11.8.9 35 .3 8.1-.3 7.9-.9 5.2-.9 5-1.5 5-1.9 12.4-6.7 11.8-8.2 7.5-6.1 7.1-6.5 6.8-6.8 12.4-14.3 5.5-7.2 9.9-14.6 4.1-6.8 5.6-10.2 4.2-8.6 2.3-5.7 2.6-8.2 4.7-22 3.5-18 2.5-15.6 1.9-14.9 1.6-15.7 4-52.8.4-12-.5-23.3-.8-11.2-1.3-11.3-1.6-11-2.1-10.6-2.4-10.2-2.8-9.9-3.3-10-3.8-9.4-4.1-9-4.5-8.6-4.8-8.2-5.5-7.9-5.8-7.5-6.2-7-6.6-6.5-7.1-6-6.2-4.7-6.5-4.3-6.8-3.9-7.2-3.6-7.5-3.3-7.9-2.9-7.8-2.3-8.2-2-8.6-1.6-9.1-1.1-9.5-.7-17.9-.3z" fill="#ffcca6" fill-rule="evenodd"/><path d="m631.6 407.2-21.5-3.6-16.6-1.7-17.7-.6-8.5.4-5.6.6-9.6 2-2.4 1.5-1.6 1.5-.9 1.5-.5 1.7.1 1.5.6 1.6 1 1.4 1.4 1.3 4.2 2.1 5.7.9h3.1l3.5-.6 15.1-3.9 13.3-2.5 13.4-2.1 23.5-3zm-238 0 21.6-3.6 16.6-1.7 17.7-.6 8.4.4 5.6.6 9.6 2 2.5 1.5 1.5 1.5 1 1.5.4 1.7v1.5l-.6 1.6-1 1.4-1.5 1.3-4.2 2.1-5.7.9h-3.1l-3.4-.6-15.2-3.9-13.2-2.5-13.4-2.1-23.6-3z" fill="#654840" fill-rule="evenodd" stroke="#654840" stroke-linecap="round" stroke-width="7.062"/><path d="m647 314.7 2.3 10.6 1.6 10.6 1.3 10.4 1.3 18.9.1 23.6 11.1 16.4 11.3 56.1 2.9-14.4 2.6-16.9 3.9-33 1.5-19-.2-13-.9-12.5-1.3-12.1-1.9-11.6-2.3-11.2-2.5-9.4-2.8-9.1-3.2-8.7-3.5-8.3-3.9-8-4.1-7.6-4.7-7.5-5-7.1-5.3-6.8-5.7-6.3-6.1-6.1-6.4-5.6-6.8-5.2-7-4.9-7.5-4.4-7.9-4-8.3-3.6-8.8-3.3-8.7-2.6-9.1-2.2-9.6-1.8-10.1-1.3-10.6-.8-11.2-.3-13 .3-12.3.8-11.5 1.2-10.9 1.7-10.2 2.1-9.6 2.5-9.9 3.2-9.3 3.5-8.7 3.9-8.2 4.3-7.6 4.7-7.2 5-7 5.5-6.5 6-6 6.2-5.6 6.6-5.3 7.1-4.8 7.4-4.3 7.6-4 7.9-3.6 8.3-3.2 8.7-2.8 9.2-2.5 9.5-2.3 11.3-1.9 11.8-1.3 12.4-.8 12.9-.3 13.6.2 8.9 1.2 17 1.6 12.2 1.9 10.9 4.1 18.7 4.9 17 6.7-57.4 8.8-14.2 1.3-2.6.6-2.9 3.5-42.1 2.9-19.1 2.2-9.8 266.2.2" fill="#85521d" fill-rule="evenodd"/><path d="m343.6 313.4-1.1 6.9-1.3 13.2-.1 6.5.8 11.3 1 5.3 1.3 4.3 1.6 3.5 1.5 2.5 1.7 1.7 1.9 1.2 2 .8 2.1.1 2.3-.4 2.8-1.1 3.2-2 6-5.3 7.8-9.8 4.9-7.4 5.7-9.7 6.6-12.3 5.3 6.8 9.5 9.8 6.9 6.1 7.2 5.8 7.6 5.5 7.9 5.1 7.6 4.2 5.2 2.5 4.8 1.9 7.9 2.1 5.9.3 2.6-.4 2.4-.8 2-1.2 1.8-1.7 1.5-2.2 1.1-2.4.7-3 .4-3.9-.1-4.7-.5-4.5-2.5-11.7-2.2-7.5 8 6.7 7.9 6.1 7.6 5.4 8 5 7.4 4.2 6.9 3.5 7.1 3 6.3 2.1 5.3 1.3 4.3.6h3.5l2.9-.5 2.3-.8 1.7-1.1 1.4-1.4 1-1.7.6-2.1.4-2.6-.2-3.1-.8-3.9-1.6-4.9-2.6-6 6.9 6.8 6.9 5.9 6.9 5.3 7.3 4.8 6.9 4.1 6.7 3.3 6.9 2.9 6.3 2.2 5.8 1.5 8.6 1.1 6.8-.3 3.3-.8 2.6-1.1 2.2-1.4 1.8-1.7 1.3-2 .9-2.4.4-2.8-.1-3.4-.7-3.2-1.2-3.7-2-4.4-2.9-5.1 15.6 13 6 4.4 6.3 4.1 5.1 2.9 4.1 1.8 4.3 1.5 3.3.5 2.6-.1 1.9-.4 2.9-1.7 2.2-3.3.8-2.4.6-2.9.2-4.4-.3-5-.7-5.1-2.1-9.9-4.1-13.5 5.9 2.6 5.5 1.4 2.9.2 2.9-.3 1.7-.6 1.6-1 1.5-1.5 1.2-1.7.9-2.3.7-3.1.2-7.2-.6-5.2-1.2-6.1-1.9-6.1-2.4-6-6-11.7-3.6-5.6-5.8-8.1-6.2-7.6-12.5-13.4-11.1-10.4-11.2-9.2 3.4-1.8 1.9-1.5 1.7-1.9 1.2-2.3.5-1.6v-1.9l-.5-2.1-.9-2-1.7-2.4-2.8-2.8-3-2.5-4.3-2.8-5.8-3.4-6.1-2.8-6.3-2.5-13.1-3.6-13.2-2.3-9.8-.9-8.9-.5-15.8.2-15 1.2 6.6-1.9 4.9-2.5 2.5-2.3.8-1.3.3-1.4-.2-1.5-.7-1.8-1.2-1.7-2.1-1.9-3.3-2.4-3.7-1.9-4.5-1.7-5.7-1.4-5.7-.9-6.5-.5-7.2-.1-7.3.4-7.7.8-8.1 1.5-8.1 1.9-8.3 2.5-8.4 3.2-12.3 5.8-6 3.5-6.1 3.9-5.7 4.2-5.6 4.6-5.4 5.1-5.3 5.6-17.9.4-13.7 1.4-7.5 1.2-7.3 1.6-7.2 2-4.7 1.7-8.2 4-3.7 2.5-3.2 2.7-2.6 3.1-1.9 3-1.2 2.7-.6 2.4-.1 2.5.2 2.2.7 2.1 1.6 2.8 2 2.5 4.7 3.8 5.9 3.1-10.5 7.7-4.6 3.9-10.1 9.8-4.8 5.7-5.4 8-2.1 4.1-1.3 3.5-.7 3.1v2.6l.3 2.7.8 2.4 1.1 2.1 2.1 2.9 2.6 2.5 2.8 2 2.7 1.6 6.4 2.7" fill="#b07436" fill-rule="evenodd"/><path d="m501.5 529.3-3-.8-2.1-2.1-.6-1.4-.3-1.6.2-1.6.5-1.4 2.1-2.2 1.4-.6 1.6-.3 18.2-.6-1.7-72.9 10-20.3.9-1.3 1.1-1 2.9-1.1 1.5.1 1.6.5 1.3.9 1.1 1.1 1 2.9-.1 1.5-.5 1.6-8.9 17.7 1.9 76-.2 1.6-1.4 2.7-1.2.9-1.4.7-1.6.2-24.3.8z" fill="#dd936f" fill-rule="evenodd"/><path d="m455.3 449.1-4.1-3.5-2.5-1.4-2.9-1.2-3.2-.6-3.7-.1-3.9.4-3.2.9-2.8 1.2-4.4 3.1-3.6 4.3-2.7 5.3-2 1.8-2.6.6-1.4-.2-2.3-1.5-1.3-2.4.1-2.8 5.1 1.6-5-1.6 1.4-3.4 1.9-3.2 2.8-3.8 2.4-2.5 3.1-2.5 3.5-2.2 4.2-1.8 3-.9 7.2-1 7.3.4 6.2 1.9 5.1 2.7 3.3 2.6 4.5 4.6 3.5 5.3 1.3 2.4.4 1.1-4.9 1.9 4.9-1.9.3 2.8-1.1 2.4-2.2 1.7-1.4.3-2.7-.4-2-1.7-3.4-5.9-2.2-2.8zm4.9 7.4zm0 0zm148.7-7.4-4.1-3.5-2.5-1.4-2.9-1.2-3.2-.6-3.7-.1-3.9.4-3.2.9-2.8 1.2-4.4 3.1-3.6 4.3-2.7 5.3-2 1.8-2.6.6-1.4-.2-2.3-1.5-1.3-2.4.1-2.8 5.1 1.6-5.1-1.6 1.5-3.4 1.9-3.2 2.8-3.8 2.4-2.5 3.1-2.5 3.5-2.2 4.2-1.8 3-.9 7.2-1 7.3.4 6.2 1.9 5.1 2.7 3.3 2.6 4.5 4.6 3.5 5.3 1.3 2.4.4 1.1-4.9 1.9 4.9-1.9.3 2.8-1.1 2.4-2.2 1.7-1.4.3-2.7-.4-2-1.7-3.4-5.9-2.2-2.8zm4.9 7.4zm0 0h-.1z" fill="#654840" fill-rule="evenodd"/><path d="M470.4 568.5 498 567l15.6-.3 26.3 1 22.3 1.7-4 3.5-3.5 2.4-4 2.4-9 4.1-9.1 2.6-4.9.9-11.4.9-6-.3-5.4-.6-4.9-1-9.1-2.8-9-4.3-4-2.5-3.5-2.5-4-3.7z" fill="#fff" fill-rule="evenodd"/><path d="m470.4 568.5-3.9 3.6 3.4 3.2 4 3.1 5.6 3.5 4.4 2.3 5.3 2.3 5.7 1.9 6.6 1.6 9.4 1.3 5.4.1 5.3-.1 9.5-1.2 6.6-1.5 5.7-1.8 5.2-2.2 4.4-2.2 5.5-3.3 4.1-3 3.4-3.1-3.8-3.6 3.8 3.6.9-1.2.6-2.8-.3-1.5-.8-1.3-1-1-1.2-.7-1.5-.4-.5 5.3.5-5.3-26.8-2-22.3-.7-15.8.3-27.8 1.5.4 5.3zm14.6 4.4 8.2 3.8 4.8 1.6 9.5 2 8.8.6 6.6-.3 5.9-.8 5.5-1.3 4.8-1.5 8.2-3.5-22.9-1.3-10.8-.2-28.6.9zm-14.6-4.4-.4-5.3-1.5.3-1.3.7-1 1-.7 1.3-.4 1.5.1 1.4.4 1.4.9 1.2 3.9-3.5z" fill="#c14e45" fill-rule="evenodd"/><path d="m600.2 414.9-7.4.3-7 .9-6.6 1.5-6.5 2-5.9 2.4-5.6 2.9-5.2 3.4-4.7 3.7-4.1 4.1-5.3 6.7-3.8 7.2-1.4 3.8-1 3.9-.6 4-.3 4.1.3 4.1.6 4 1 3.9 1.4 3.8 3.8 7.3 2.5 3.4 2.8 3.3 4.1 4 4.7 3.7 5.2 3.4 5.6 2.9 5.9 2.5 6.5 2 6.6 1.4 7 .9 7.4.4 7.3-.4 7-.9 6.6-1.4 6.5-2 6-2.5 5.5-2.9 5.2-3.4 4.7-3.7 4.1-4 5.3-6.7 3.8-7.3 1.4-3.8 1-3.9.7-4 .2-4.1-.2-4.1-.7-4-1-3.9-1.4-3.8-3.8-7.2-2.5-3.4-2.8-3.3-4.1-4.1-4.7-3.7-5.2-3.4-5.5-2.9-6-2.4-6.5-2-6.6-1.5-7-.9-7.3-.3zm-72.4 50.9.2-4.9.7-4.7 1.2-4.6 1.6-4.4 2.1-4.2 2.4-4.1 2.8-3.9 6.6-7.2 7.9-6.2 4.5-2.8 6.1-3.2 6.6-2.7 7.1-2.2 5.4-1.2 11.3-1.5h11.8l5.7.6 10.9 2.1 7.1 2.2 6.6 2.7 6.2 3.2 4.4 2.8 4.1 3 7.2 6.7 3.2 3.7 2.8 3.9 2.4 4.1 2.1 4.2 1.6 4.4 1.2 4.6.7 4.7.2 4.9-.2 4.9-.7 4.8-1.2 4.5-1.6 4.4-2.1 4.3-2.4 4.1-2.8 3.9-6.6 7.1-7.9 6.3-4.4 2.7-6.2 3.2-6.6 2.7-7.1 2.2-5.4 1.3-11.2 1.4h-11.8l-5.8-.5-10.9-2.2-7.1-2.2-6.6-2.7-6.1-3.2-8.6-5.7-7.2-6.7-3.2-3.7-2.8-3.9-2.4-4.1-2.1-4.3-1.6-4.4-1.2-4.5-.7-4.8-.2-4.9zm-97.1-50.9-7.4.3-7 .9-6.6 1.5-6.5 2-5.9 2.4-5.6 2.9-5.2 3.4-4.7 3.7-4.1 4.1-5.3 6.7-3.8 7.2-1.4 3.8-1 3.9-.6 4-.3 4.1.3 4.1.6 4 1 3.9 1.4 3.8 3.8 7.3 2.5 3.4 2.8 3.3 4.1 4 4.7 3.7 5.2 3.4 5.6 2.9 5.9 2.5 6.5 2 6.6 1.4 7 .9 7.4.4 7.3-.4 7-.9 6.6-1.4 6.5-2 6-2.5 5.5-2.9 5.2-3.4 4.7-3.7 4.1-4 5.3-6.7 3.8-7.3 1.4-3.8 1.1-3.9.6-4 .2-4.1-.2-4.1-.6-4-1.1-3.9-1.4-3.8-3.8-7.2-2.5-3.4-2.8-3.3-4.1-4.1-4.7-3.7-5.2-3.4-5.5-2.9-6-2.4-6.5-2-6.6-1.5-7-.9-7.3-.3zm-72.4 50.9.2-4.9.8-4.7 1.1-4.6 1.6-4.4 2.1-4.2 2.4-4.1 2.8-3.9 6.7-7.2 7.8-6.2 4.5-2.8 6.1-3.2 6.6-2.7 7.1-2.2 5.4-1.2 11.3-1.5h11.8l5.7.6 10.9 2.1 7.1 2.2 6.6 2.7 6.2 3.2 4.4 2.8 4.1 3 7.3 6.7 3.1 3.7 2.8 3.9 2.5 4.1 2 4.2 1.6 4.4 1.2 4.6.7 4.7.3 4.9-.3 4.9-.7 4.8-1.2 4.5-1.6 4.4-2 4.3-2.5 4.1-2.8 3.9-6.6 7.1-7.9 6.3-4.4 2.7-6.2 3.2-6.6 2.7-7.1 2.2-5.4 1.3-11.2 1.4h-11.8l-5.8-.5-10.9-2.2-7.1-2.2-6.6-2.7-6.1-3.2-8.6-5.7-7.2-6.7-3.2-3.7-2.8-3.9-2.4-4.1-2.1-4.3-1.6-4.4-1.1-4.5-.8-4.8-.2-4.9z" fill="#835c54" fill-rule="evenodd"/><path d="m500.6 456.2-2.2-6.7 6.3-1.8 5.7-1.3 5.9-.6 5.6.6 9.1 2.6 1.6.6-2.6 6.5-4.9-1.6-4.5-1.2-4.3-.4-4.6.5-11.1 2.8z" fill="#835c54" fill-rule="evenodd"/><path d="m612.1 796.2 15.8-17 3.8 3 4.8 3.1 12.3 6.2 15 6 12.2 4.1 27.1 7.6 28.2 6.5 13.7 2.8 25.8 4.3 29.1 3.5 7.9 1.3 16.8 3.8 8.6 2.6 8.8 3.1 8.7 3.5 8.5 4.1 8.5 4.6 6.2 3.8 11.7 8.7 5.6 4.8 5.3 5.2 4.9 5.5 4.7 5.9 4.3 6.3 3.8 6.5 3.4 7 2.9 7.5 2.5 8 18.7 105.6H98.3l11.1-91.5 1.8-9.6 2.2-8.8 2.6-8.1 3.1-8 3.5-7.4 3.8-6.7 4-6.2 4.6-5.9 4.8-5.4 5.1-5.1 5.3-4.5 11.4-8.2 12.4-6.9 8.5-3.9 8.9-3.4 18.4-5.8 18.8-4.6 14.3-2.9 29.9-5.5 73.5-8 12.3-2.3 11.5-2.7 7.6-2 13.2-4.8 8.8-4.5 7.1-5.1 3.2 5.6 3.9 5.8 4.5 6 5 5.6 5.6 5.6 6.3 5.6 4.9 3.8 11 7.2 6.2 3.4 6.3 2.9 6.6 2.7 7.1 2.4 7.6 2.1 7.6 1.7 8 1.2 8.5.9 9.1.4 13.2-.6 11.6-1.9 7.4-2.1 6.9-2.6 6.4-3.1 6.1-3.5 5.9-4 5.6-4.3 8-7 7.8-7.6 15-16.3z" fill="#3760e4"/></svg>