<svg xmlns="http://www.w3.org/2000/svg" fill="none" viewBox="0 0 1024 1024" height="1024" width="1024"><path fill="#E0F4FF" d="M0 0h1024v1024H0z"/><path fill="#FFD1AA" d="m426.675 788.309 4.851-177.792 173.275-5.292 10.023 183.084c2.012 29.903 36.832 40.035 103.731 45.719-7.077 56.478 41.582 168.672-197.289 168.172-238.87-.5-205.252-112.576-207.906-160.23 74.847-16.272 100.485-21.563 113.315-53.661z" clip-rule="evenodd" fill-rule="evenodd"/><path fill="#FFC18D" d="M614.824 660.672s-74.476 81.252-186.834 73.309c0-9.707 6.188-127.874 6.188-127.874l180.646.746v53.819z" clip-rule="evenodd" fill-rule="evenodd"/><path fill="#FFD1AA" d="M369.702 485.674s-28.432-27.65-48.445-6.829c-9.432 9.806-8.772 37.155 3.922 63.089 5.849 9.956 13.955 20.722 24.627 28.492 9.187 6.689 19.961 3.449 33.148 3.273l-13.252-88.025zm292.8 0s28.432-27.65 48.445-6.829c9.432 9.806 8.773 37.155-3.921 63.089-5.85 9.956-13.956 20.722-24.628 28.492-9.187 6.689-19.96 3.449-33.148 3.273l13.252-88.025z" clip-rule="evenodd" fill-rule="evenodd"/><path fill="#FFE1C7" d="M511.745 235.712c-117.957 0-166.969 100.014-157.518 222.374 4.809 35.139 10.114 66.887 14.534 130.824 4.632 20.283 44.161 79.045 97.888 103.718 16.823 7.725 33.325 5.195 52.402 5.195 16.465 0 33.873 3.274 48.341-3.399 51.255-23.638 91.9-84.271 96.644-105.514 2.652-14.551 2.652-79.811 13.165-130.824 9.708-121.7-39.571-222.374-157.528-222.374h-7.928z" clip-rule="evenodd" fill-rule="evenodd"/><path fill="#654840" d="M398.317 440.973a5.991 5.991 0 0 1-2.916-11.229c32.15-17.82 81.184-5.596 83.248-5.069a5.986 5.986 0 0 1 4.332 7.286 5.976 5.976 0 0 1-7.308 4.326c-.456-.119-46.502-11.576-74.44 3.931a5.95 5.95 0 0 1-2.916.755zm224.867-.001a5.94 5.94 0 0 1-2.916-.755c-27.853-15.459-71.271-4.062-71.727-3.954-3.157.863-6.493-1.031-7.345-4.219a5.982 5.982 0 0 1 4.224-7.346c1.969-.527 48.495-12.798 80.68 5.046a5.99 5.99 0 0 1 2.328 8.149 6.003 6.003 0 0 1-5.244 3.079z" clip-rule="evenodd" fill-rule="evenodd"/><path fill="#86665D" d="m650.174 441.069 10.835 14.723 11.014 50.295c5.798-22.607 10.574-68.625 10.574-74.661 0-96.108-54.271-166.081-160.741-166.081-123.313 0-175.471 66.25-175.471 165.956 0 39.92 13.538 75.92 13.538 75.92l6.458-51.429s9.242-13.071 9.873-15.089c2.353-7.536-2.055-61.879 5.885-91.12 0 0 84.051-32.678 153.592-2.518 0 0 44.639-25.973 101.964 1.259 8.161 31.527 12.479 92.745 12.479 92.745z" clip-rule="evenodd" fill-rule="evenodd"/><path fill="#654840" d="M348.077 451.434s-21.983-73.582-16.373-111.546c3.269-22.073 38.684-64.342 56.122-80.623 20.418-19.067 35.444-31.112 71.078-46.873 63.585-28.116 101.003 22.503 101.003 22.503s61.721-46.874 138.41 93.737c10.871 19.936-.937 69.366-18.475 127.726 0 0-25.948-17.579-48.399-72.413-32.614-79.704-91.177-16.88-91.177-16.88s-68.298-33.319-104.281-13.124c-70.141 39.373-14.967 57.181-87.908 97.493" clip-rule="evenodd" fill-rule="evenodd"/><path fill="#452E28" d="M425.335 318.573c-23.241 21.174-26.532 33.752-31.281 77.42 29.577-58.762 83.862-54.731 145.655-29.131 0 0-46.768-94.879-114.374-48.289zm209.712 71.241s-34.428-114.758-95.338-22.951c54.731-29.132 95.338 22.951 95.338 22.951z" clip-rule="evenodd" fill-rule="evenodd"/><path fill="#DD936F" d="M535.963 456.252c.004.001.008.003-1.55 5.065l1.558-5.062a5.296 5.296 0 0 1-3.086 10.134 5.934 5.934 0 0 0-.357-.074 7.89 7.89 0 0 0-1.448-.116c-1.195.017-2.327.312-3.228 1.096-.853.745-2.243 2.578-2.691 7.195-.455 4.688.115 11.85 2.902 22.57l.02.078c2.207 9.049 4.032 17.099 5.004 23.896.952 6.66 1.204 12.83-.285 17.792-.775 2.586-2.065 4.993-4.09 6.939-2.037 1.956-4.545 3.183-7.337 3.816-5.344 1.211-12.049.316-19.932-1.909a5.297 5.297 0 0 1 2.878-10.195c7.462 2.106 12.04 2.378 14.713 1.773 1.216-.276 1.901-.703 2.339-1.124.45-.433.918-1.126 1.283-2.343.792-2.642.855-6.88-.056-13.25-.889-6.225-2.597-13.816-4.799-22.847-2.942-11.329-3.804-19.824-3.184-26.219.628-6.472 2.825-11.149 6.274-14.156 3.404-2.967 7.292-3.666 10.041-3.704 1.39-.019 2.582.125 3.439.277a15.792 15.792 0 0 1 1.4.312l.118.034.045.013.02.006.009.003z" clip-rule="evenodd" fill-rule="evenodd"/><path fill="#3B4453" d="M439.075 505.455c10.241 0 18.538-9.217 18.538-22.952 0-13.734-8.297-22.951-18.538-22.951s-18.538 9.217-18.538 22.951c0 13.735 8.297 22.952 18.538 22.952zm144.766 0c10.237 0 18.544-9.217 18.544-22.952 0-13.734-8.307-22.951-18.544-22.951-10.224 0-18.531 9.217-18.531 22.951 0 13.735 8.307 22.952 18.531 22.952z" clip-rule="evenodd" fill-rule="evenodd"/><circle fill="#FFD2B9" r="34.428" cy="551.248" cx="411.417" opacity=".605" style="mix-blend-mode:multiply"/><circle fill="#FFD2B9" r="34.428" cy="551.248" cx="619.748" opacity=".605" style="mix-blend-mode:multiply"/><path fill="#fff" d="M470.855 595.496s22.069-1.765 43.255-1.765c21.186 0 48.552 2.648 48.552 2.648s-15.89 16.773-45.904 16.773c-30.013 0-45.903-17.656-45.903-17.656z" clip-rule="evenodd" fill-rule="evenodd"/><path fill="#C14E45" d="M470.855 595.496c-3.937 3.544-3.935 3.545-3.934 3.547l.004.005.009.009.022.024.062.068.195.207c.162.17.388.4.678.684a46.41 46.41 0 0 0 2.497 2.26c2.168 1.833 5.355 4.234 9.535 6.623 8.376 4.786 20.749 9.525 36.835 9.525 16.03 0 28.368-4.486 36.734-9.028 4.176-2.267 7.363-4.547 9.534-6.29a45.455 45.455 0 0 0 2.501-2.152c.291-.27.518-.49.681-.652.082-.081.147-.148.197-.199l.063-.065.022-.023.009-.009.004-.004c.002-.002.004-.004-3.841-3.647l3.845 3.643a5.297 5.297 0 0 0-3.335-8.915l-.51 5.272.51-5.272-.325-.031-.919-.085c-.799-.073-1.961-.178-3.421-.303-2.918-.25-7.03-.583-11.808-.917-9.532-.665-21.813-1.337-32.589-1.337-10.725 0-21.643.447-29.858.891a676.64 676.64 0 0 0-9.982.611c-1.211.084-2.167.154-2.821.203l-.751.057-.265.021.422 5.279zm14.578 4.374c7.072 3.994 17.564 7.985 31.325 7.985 13.552 0 23.939-3.663 31.013-7.388-.591-.043-1.194-.085-1.809-.128-9.447-.659-21.442-1.312-31.852-1.312-10.201 0-20.639.415-28.677.843zm-14.578-4.374-.422-5.279a5.296 5.296 0 0 0-3.515 8.823l3.937-3.544z" clip-rule="evenodd" fill-rule="evenodd"/><path fill="#20293A" d="M399.53 791.835c-10.26 3.142-29.149 10.593-29.149 10.593l2.972 15.288 10.278 149.788s-8.562 25.291-16.401 56.496h342.055c1.761-30.312 1.176-56.496 1.176-56.496l-26.5-165.959s-26.347-7.325-35.333-12.359c-13.522-7.574-19.433-11.475-24.733-16.772-2.344 1.405-6.512 4.054-11.844 7.442-24.812 15.766-74.83 47.547-83.555 44.641-13.25 1.765-95.399-41.49-109.532-49.435-1.218-.203-5.828 4.244-10.44 8.692-3.484 3.361-6.969 6.722-8.994 8.081z"/><path fill="#353E4D" d="M638.578 1024h328.153L960 944.949C944 844.5 892.025 832.723 824.345 820.575 766.729 810.233 709 805.52 652.163 790.069c0 0-4.81 126.627-13.585 233.931zm-215.262 0H103.531l7.731-79.051C122.5 839.5 174.237 832.723 241.917 820.575c51.94-9.323 103.197-12.467 154.082-28.74 0 0 11.607 124.805 27.317 232.165z"/><path fill="#20293A" d="M675.599 798.285a5.297 5.297 0 0 1 7.384 1.261l55.649 77.565a5.296 5.296 0 0 1-1.312 7.42l-52.622 36.348 33.389 16.329a5.295 5.295 0 0 1 1.874 7.984l-58.299 75.918a5.289 5.289 0 0 1-7.427.97 5.288 5.288 0 0 1-.975-7.42l54.354-70.782-35.697-17.458a5.298 5.298 0 0 1-.683-9.116l55.656-38.443-52.551-73.193a5.296 5.296 0 0 1 1.26-7.383zm-300.39 3a5.296 5.296 0 0 0-7.383 1.261l-55.65 74.565a5.295 5.295 0 0 0 1.312 7.42l52.623 36.348-33.39 16.329a5.296 5.296 0 0 0-1.874 7.984l58.3 75.918a5.289 5.289 0 0 0 7.427.97 5.289 5.289 0 0 0 .975-7.42l-54.354-70.782 35.696-17.458a5.297 5.297 0 0 0 .684-9.116l-55.657-38.443 52.552-70.193a5.296 5.296 0 0 0-1.261-7.383z" clip-rule="evenodd" fill-rule="evenodd"/><path fill="#353E4D" d="M642.687 799.521a3.531 3.531 0 0 1 .902 4.911l-45.05 65.325a3.53 3.53 0 0 1-4.411 1.189l-60.261-28.39-60.286 30.985a3.531 3.531 0 0 1-4.128-.661l-60.95-61.793a3.531 3.531 0 0 1 5.028-4.959l59.128 59.946 59.527-30.594a3.529 3.529 0 0 1 3.119-.053l59.122 27.854 43.348-62.858a3.532 3.532 0 0 1 4.912-.902z" clip-rule="evenodd" fill-rule="evenodd"/><path fill="#353E4D" d="M547.928 886.29c0 6.825-5.536 12.358-12.366 12.358s-12.367-5.533-12.367-12.358c0-6.826 5.537-12.359 12.367-12.359 6.83 0 12.366 5.533 12.366 12.359zm0 100.635c0 6.825-5.536 12.358-12.366 12.358s-12.367-5.533-12.367-12.358c0-6.826 5.537-12.359 12.367-12.359 6.83 0 12.366 5.533 12.366 12.359z"/></svg>