<svg xmlns="http://www.w3.org/2000/svg" fill="none" viewBox="0 0 1024 1025" height="1025" width="1024"><path fill="#E0E6FF" d="M0 0h1024v1024H0z"/><path fill="#F6B88A" d="m425.198 768.318-13.79-179.87H613.07v179.87c2.01 29.931 14.942 39.58 103.58 45.763-7.067 56.534 41.52 172.371-197 171.869-238.52-.501-204.951-117.985-207.601-165.685 65.075 2.65 111.068-20.948 113.149-51.947z" clip-rule="evenodd" fill-rule="evenodd"/><path fill="#EA9E66" d="M613.068 642.32s-79.086 82.032-191.278 74.082c0-9.717-10.384-127.954-10.384-127.954h201.662v53.872z" clip-rule="evenodd" fill-rule="evenodd"/><path fill="#F6B88A" d="M368.308 468.919s-28.39-27.677-48.374-6.836c-17.281 18.012-.637 107.037 61.92 106.198l-13.546-99.362zm292.188 0s28.39-27.677 48.373-6.836c17.282 18.012.637 107.037-61.92 106.198l13.547-99.362z" clip-rule="evenodd" fill-rule="evenodd"/><path fill="#FFCCA6" d="M510.141 218.712c-117.784 0-181.438 108.046-160.82 227.892 10.132 58.903 13.283 61.276 26.659 119.906 6.073 26.661 56.8 115.072 143.206 113.305 77.024-.883 128.842-84.514 134.916-111.78 12.791-57.45 17.03-62.286 24.786-121.431 15.813-120.583-43.047-227.892-160.831-227.892h-7.916z" clip-rule="evenodd" fill-rule="evenodd"/><path fill="#3E2A25" d="M397.007 423.973a5.991 5.991 0 0 1-2.916-11.229c32.15-17.82 81.184-5.596 83.248-5.069a5.986 5.986 0 0 1 4.332 7.286 5.976 5.976 0 0 1-7.308 4.326c-.456-.119-46.502-11.576-74.439 3.931a5.954 5.954 0 0 1-2.917.755m224.866-.001a5.94 5.94 0 0 1-2.916-.755c-27.853-15.459-71.271-4.062-71.727-3.954-3.156.862-6.493-1.031-7.345-4.219a5.982 5.982 0 0 1 4.225-7.346c1.968-.527 48.494-12.798 80.679 5.045a5.991 5.991 0 0 1-2.916 11.229" clip-rule="evenodd" fill-rule="evenodd"/><path fill="#916B5B" d="m651.684 405.587 11.059 14.724 14.048 50.546c5.918-22.608 9.912-69.882 9.912-75.918 0-96.107-32.439-188.027-168.506-190.676-136.066-2.648-178.418 88.322-178.418 188.028 0 39.92 12.616 74.152 12.616 74.152l9.598-46.132s9.435-13.072 10.078-15.09c2.402-7.536 4.16-37.982 12.266-67.223 0 0 87.904-36.631 152.784-17.21 0 0 49.566-11.281 108.082 15.951 8.331 31.527 6.481 68.848 6.481 68.848z" clip-rule="evenodd" fill-rule="evenodd"/><path fill="#BB6957" d="M518.978 428.427a5.298 5.298 0 0 1 5.297 5.297v.001c0 .858 0 17.563.879 43.071.534 15.48 3.949 30.24 6.581 41.621l.349 1.509a5.296 5.296 0 0 1-2.792 5.928l-.004.002c-5.275 2.638-12.283 6.142-23.688 12.283a5.297 5.297 0 1 1-5.022-9.327c9.046-4.871 15.373-8.11 20.246-10.563-2.545-11.054-5.725-25.687-6.256-41.088-.886-25.677-.886-42.513-.886-43.437a5.297 5.297 0 0 1 5.296-5.297z" clip-rule="evenodd" fill-rule="evenodd"/><path fill="#3E2A25" d="M437.764 488.455c10.241 0 18.538-9.217 18.538-22.952 0-13.734-8.297-22.951-18.538-22.951-10.24 0-18.537 9.217-18.537 22.951 0 13.735 8.297 22.952 18.537 22.952zm144.767 0c10.238 0 18.545-9.217 18.545-22.952 0-13.734-8.307-22.951-18.545-22.951-10.224 0-18.531 9.217-18.531 22.951 0 13.735 8.307 22.952 18.531 22.952z" clip-rule="evenodd" fill-rule="evenodd"/><path fill="#C14E45" d="M467.91 561.257a5.296 5.296 0 0 1 7.398-1.169l.021.015.073.053.296.213a137.4 137.4 0 0 0 4.69 3.211c1.385.906 2.815 1.798 4.072 2.5.627.35 1.167.629 1.605.83.278.128.461.2.562.236.076.008.202.021.389.035.465.034 1.111.067 1.939.096 1.649.058 3.863.095 6.48.116 5.225.041 11.922.014 18.646-.041 8.406-.069 16.92-.183 22.513-.257 2.901-.039 5.016-.067 5.923-.073l.086-.03c.29-.104.72-.295 1.291-.597 1.143-.605 2.493-1.466 3.85-2.405a87.305 87.305 0 0 0 4.872-3.648l.069-.056.015-.012.001-.001a5.297 5.297 0 1 1 6.708 8.198l-3.354-4.099c3.354 4.099 3.354 4.1 3.353 4.1l-.001.001-.037.031-.095.076a75.387 75.387 0 0 1-1.557 1.227 95.886 95.886 0 0 1-3.944 2.892c-1.513 1.047-3.252 2.173-4.923 3.058-.836.442-1.744.872-2.66 1.202-.851.306-2.052.655-3.377.655-.643 0-2.83.029-6.01.072-5.517.074-14.022.188-22.636.258-6.739.056-13.504.083-18.816.042a263.352 263.352 0 0 1-6.769-.122 62.121 62.121 0 0 1-2.355-.12c-.53-.039-1.36-.109-2.078-.289-1.633-.408-3.445-1.339-4.858-2.128-1.557-.871-3.216-1.91-4.701-2.88a151.791 151.791 0 0 1-5.055-3.462l-.332-.238-.09-.065-.035-.026 3.114-4.284-3.114 4.284a5.296 5.296 0 0 1-1.169-7.399z" clip-rule="evenodd" fill-rule="evenodd"/><path fill="#C14E45" d="m498.123 601.436.128-.01.378-.027 1.4-.099a503.66 503.66 0 0 1 4.649-.301c3.682-.221 7.975-.434 10.77-.434s7.088.213 10.77.434a503.66 503.66 0 0 1 6.427.427l.128.01a4.414 4.414 0 1 0 .66-8.803l-.33 4.401.33-4.401-.139-.01-.389-.029-1.428-.101a526.006 526.006 0 0 0-4.73-.306c-3.674-.22-8.209-.449-11.299-.449s-7.624.229-11.299.449c-1.856.111-3.525.223-4.73.306l-1.428.101-.389.029-.138.01.329 4.401-.329-4.401a4.415 4.415 0 0 0 .659 8.803z" clip-rule="evenodd" fill-rule="evenodd" opacity=".2"/><path fill="#5D887E" d="M612.149 796.218c5.108-5.662 10.294-11.411 15.759-17.041C653.006 801.563 748.5 821.5 792.5 825.5c44 4 113.086 28.53 130.543 92.982l18.655 105.648H98.283l9.759-80.947c9.958-97.683 83.342-112.734 148.95-124.61 5.102-.923 10.361-1.875 15.78-2.904l73.55-7.936c24.704-4.496 47.62-10.018 60.445-21.463 15.191 28.516 51.389 61.976 111.411 62.944 45.499.734 68.794-25.088 93.971-52.996z"/><path fill="#324E47" d="M526.123 850.979c-9.288 18.576-136.95-3.03-162.428-30.897-15.536-16.993-10.91-26.313-4.409-33.571l.716-.784.725-.769 1.459-1.501 1.08-1.098 1.048-1.082.672-.715.644-.711c2.728-3.077 4.537-6.103 3.495-9.672l-.133-.414c-6.179-17.655 10.46-40.193 37.959-36.193 10.05 1.462 14.463 5.999 17.401 12.611l.392.914.376.94.362.964.351.989.511 1.526.333 1.046.495 1.61 1.523 5.109.546 1.79.58 1.83.408 1.242.429 1.258.452 1.273c.232.641.473 1.287.725 1.939l.519 1.311a77.085 77.085 0 0 0 3.845 8.139c11.83 21.603 32.925 36.519 51.743 47.359l2.44 1.391c.405.228.808.455 1.209.679l2.391 1.324 2.351 1.281 3.44 1.844 10.473 5.525 1.869 1 1.781.968 1.687.936c7.642 4.303 12.023 7.643 10.54 10.609z" clip-rule="evenodd" fill-rule="evenodd"/><path fill="#324E47" d="M508.41 849.213c9.288 18.576 136.95-3.03 162.427-30.896 14.69-16.066 11.355-25.274 5.454-32.365l-.692-.809-.352-.398-.716-.784-.726-.769-1.82-1.869-.718-.73-1.048-1.082-.672-.714c-3.187-3.445-5.416-6.77-4.006-10.797 6.179-17.656-10.46-40.193-37.959-36.194-10.736 1.562-15.039 6.632-17.983 13.993l-.369.952-.356.976-.346 1-.339 1.023-.498 1.578-.495 1.626-1.358 4.562-.547 1.79-.382 1.215-.399 1.233-.418 1.25-.44 1.266-.464 1.281c-.159.43-.322.862-.49 1.297l-.519 1.311a77.272 77.272 0 0 1-3.845 8.138c-12.345 22.542-34.777 37.803-54.183 48.751l-2.409 1.346-1.191.657-2.352 1.281-3.439 1.844-10.473 5.524-1.869 1-1.781.968-1.687.937c-7.642 4.302-12.023 7.642-10.54 10.608z" clip-rule="evenodd" fill-rule="evenodd"/><path fill="#324E47" d="M492.579 844.809a4.413 4.413 0 1 0-8.827.056l.644 100.978c-5.515 1.923-9.472 7.169-9.472 13.34 0 6.234 4.038 11.525 9.642 13.398l.069 10.791a4.414 4.414 0 1 0 8.827-.056l-.068-10.69c5.674-1.833 9.778-7.159 9.778-13.443 0-6.347-4.187-11.717-9.95-13.497l-.643-100.877zm48.313 101.034c-5.515 1.923-9.472 7.169-9.472 13.34 0 6.234 4.039 11.525 9.642 13.398l.069 10.791a4.414 4.414 0 1 0 8.827-.056l-.068-10.69c5.674-1.833 9.778-7.159 9.778-13.443 0-6.347-4.187-11.717-9.95-13.497l-.642-100.877a4.414 4.414 0 0 0-8.828.056l.644 100.978z"/></svg>