<svg xmlns="http://www.w3.org/2000/svg" fill="none" viewBox="0 0 1024 1024" height="1024" width="1024"><path fill="#FFE1BE" d="M0 0h1024v1024H0z"/><path fill="#232E36" d="M462.035 935.857c91.341 5.16 166.486 9.504 197.433-9.055 8.764-5.271 186.776 7.768 189.943 6.346 9.616-4.311 29.798 10.836 28.895-62.305-.903-73.141-3.234-74.112-74.947-158.021-24.856-29.083 18.446-78.826-26.186-129.125-44.633-50.298-43.343-35.216-39.731-135.446 3.612-100.23-48.857-120.556-69.529-156.214-72.238-124.61-172.468-66.82-172.468-66.82S343.746 192.71 293.179 336.283c-23.94 45.183-53.275 27.992-54.178 164.341 7.224 70.432-61.402 46.051-46.955 145.379 9.586 65.903-47.857 94.812-46.051 181.497 7.224 108.357 102.444 118.967 142.351 130.906 97.521 47.854 121.998-25.467 173.689-22.549z" clip-rule="evenodd" fill-rule="evenodd"/><path fill="#FBBFB1" d="m404.851 786.527-14.095-183.868h206.128v183.868c2.055 30.597 15.273 71.48 105.874 77.801-7.224 57.79 42.44 145.182-201.363 144.672-243.803-.52-209.49-89.591-212.199-138.351 66.517 2.708 113.528-52.434 115.655-84.122z" clip-rule="evenodd" fill-rule="evenodd"/><path fill="#E99885" d="M596.882 657.728s-80.837 83.856-195.515 75.729c0-9.933-10.613-130.798-10.613-130.798h206.128v55.069z" clip-rule="evenodd" fill-rule="evenodd"/><path fill="#FBBFB1" d="M346.701 480.472s-29.019-28.291-49.445-6.987c-17.664 18.412-.651 109.416 63.291 108.558l-13.846-101.571zm298.659 0s29.019-28.291 49.445-6.987c17.665 18.412.651 109.416-63.291 108.558l13.846-101.571z" clip-rule="evenodd" fill-rule="evenodd"/><path fill="#FFD0C5" d="M491.672 224.704c-120.392 0-185.456 110.447-164.381 232.957 10.357 60.213 13.577 62.638 27.249 122.572 6.208 27.253 58.058 117.629 146.378 115.823 78.73-.903 131.696-86.393 137.904-114.265 13.075-58.727 17.407-63.67 25.335-124.13 16.163-123.263-44-232.957-164.393-232.957h-8.092z" clip-rule="evenodd" fill-rule="evenodd"/><path fill="#654840" d="M369.935 415.646a5.418 5.418 0 0 1 5.515-5.319l-.099 5.417c.099-5.417.1-5.417.101-5.417l.044.001.117.002.442.011c.385.01.948.026 1.672.05 1.448.049 3.542.131 6.146.267 5.207.272 12.47.758 20.709 1.616 16.357 1.704 37.03 4.919 53.069 11.051a5.419 5.419 0 0 1-3.87 10.121c-14.662-5.606-34.171-8.712-50.321-10.394a395.953 395.953 0 0 0-20.151-1.573 318.209 318.209 0 0 0-7.531-.306l-.401-.009-.098-.003h-.026a5.418 5.418 0 0 1-5.318-5.515zm248.314 0a5.418 5.418 0 0 0-5.515-5.319l.098 5.417c-.098-5.417-.099-5.417-.1-5.417l-.044.001-.117.002-.442.011c-.385.01-.948.026-1.673.05-1.448.049-3.541.131-6.146.267-5.206.272-12.469.758-20.709 1.616-16.356 1.704-37.029 4.919-53.068 11.051a5.418 5.418 0 0 0 3.869 10.121c14.663-5.606 34.172-8.712 50.322-10.394a395.953 395.953 0 0 1 20.151-1.573 317.841 317.841 0 0 1 7.53-.306l.402-.009.097-.003h.027a5.419 5.419 0 0 0 5.318-5.515z" clip-rule="evenodd" fill-rule="evenodd"/><path fill="#232E36" d="m375.574 358.188-18.348 21.733 8.025 1.146s-30.27 22.385-25.115 97.885c1.038 15.237-9.081 30.831-17.107 19.398-73.465-191.335 36.207-308.373 177.066-308.349 165.081.024 199.534 174.308 187.685 331.391-113.774 33.41-101.398-115.991-110.162-167.953-12.642-74.947-102.939-27.992-102.939-27.992l-42.332-8.382 1.148 12.592s-24.096-5.502-39.573-1.211c-26.048 15.919-30.955 30.887-30.955 30.887 2.822-1.572 12.607-1.145 12.607-1.145z" clip-rule="evenodd" fill-rule="evenodd"/><path fill="#DD936F" d="M516.898 450.294c.004.001.008.003-1.556 5.087l1.564-5.084a5.417 5.417 0 0 1-3.123 10.375l-.034-.008a5.065 5.065 0 0 0-.364-.076 8.04 8.04 0 0 0-1.481-.119c-1.223.017-2.382.319-3.302 1.122-.874.761-2.295 2.636-2.753 7.359-.466 4.795.118 12.121 2.969 23.087l.01.041.01.038c2.257 9.257 4.124 17.491 5.118 24.443.974 6.813 1.231 13.124-.291 18.2-.793 2.645-2.113 5.107-4.184 7.098-2.084 2.001-4.649 3.256-7.505 3.903-5.467 1.239-12.325.323-20.388-1.953a5.417 5.417 0 1 1 2.943-10.428c7.633 2.155 12.317 2.433 15.05 1.814 1.244-.282 1.944-.72 2.393-1.15.46-.442.939-1.152 1.312-2.397.81-2.702.875-7.037-.057-13.553-.91-6.368-2.656-14.133-4.909-23.37-3.01-11.589-3.891-20.278-3.256-26.819.642-6.621 2.889-11.405 6.417-14.481 3.481-3.035 7.459-3.749 10.271-3.789 1.421-.019 2.64.129 3.517.284a16.531 16.531 0 0 1 1.432.319c.047.013.087.024.121.035l.047.013.02.006.009.003z" clip-rule="evenodd" fill-rule="evenodd"/><path fill="#654840" d="M417.791 509.654c10.475 0 18.962-12.33 18.962-30.701 0-18.372-8.487-30.702-18.962-30.702-10.476 0-18.963 12.33-18.963 30.702 0 18.371 8.487 30.701 18.963 30.701zm148.081 0c10.471 0 18.969-12.33 18.969-30.701 0-18.372-8.498-30.702-18.969-30.702-10.459 0-18.956 12.33-18.956 30.702 0 18.371 8.497 30.701 18.956 30.701z" clip-rule="evenodd" fill-rule="evenodd"/><circle fill="#FFD2B9" r="35.216" cy="547.466" cx="389.499" opacity=".605" style="mix-blend-mode:multiply"/><circle fill="#FFD2B9" r="35.216" cy="547.466" cx="602.599" opacity=".605" style="mix-blend-mode:multiply"/><ellipse fill="#fff" ry="18.962" rx="9.03" cy="577.376" cx="662.497"/><ellipse fill="#fff" ry="18.962" rx="9.03" cy="577.376" cx="328.397"/><path fill="#C14E45" d="M470.507 593.429c-3.511-.783-5.543-4.467-3.492-7.342 2.052-2.875 2.645-3.78 6.416-3.092l.033.01.175.046c.164.043.421.109.765.193.689.167 1.725.404 3.06.671 2.673.534 6.532 1.18 11.195 1.611 9.366.867 21.764.845 34.265-2.543a5.417 5.417 0 0 1 6.646 3.812 5.417 5.417 0 0 1-3.812 6.646c-14.153 3.836-27.941 3.814-38.097 2.875a120.027 120.027 0 0 1-12.318-1.775 87.126 87.126 0 0 1-3.496-.768c-.411-.1-.732-.182-.958-.241l-.267-.071-.078-.022-.025-.006-.012-.004z"/><path fill="#F3DCDA" d="M512.505 606.037a5.419 5.419 0 0 1-2.979 7.06c-5.591 2.273-10.983 2.238-14.845 1.702a32.022 32.022 0 0 1-4.728-1.023 24.864 24.864 0 0 1-1.811-.617 8.74 8.74 0 0 1-.134-.054l-.048-.02-.019-.008-.008-.003-.004-.002c-.002-.001-.004-.001 2.1-4.994l-2.104 4.993a5.419 5.419 0 0 1 4.177-9.999l.01.004c.023.009.076.03.157.059.161.059.43.152.792.26.728.218 1.804.49 3.109.671 2.645.367 5.982.332 9.276-1.007a5.417 5.417 0 0 1 7.059 2.978zm-20.379-2.955c0 .001 0 0 0 0zm.003.001z" clip-rule="evenodd" fill-rule="evenodd" style="mix-blend-mode:multiply"/><path fill="#5D887E" d="M607.793 764.518s-.917 45.517 15.371 60.06c27.551 24.575 101.455 33.276 131.496 36.183.446.22.888.444 1.324.673l29.685 3.203c5.95 1.13 11.722 2.175 17.323 3.189 72.021 13.037 115.089 40.298 138.912 156.174H75.918c0-112.11 68.053-143.137 140.074-156.174 5.6-1.014 11.373-2.059 17.322-3.189l80.738-8.711c27.119-4.936 52.276-10.997 66.356-23.561 16.288-14.543 15.709-68.508 15.709-68.508l211.676.661z"/><path fill="#324E47" d="M579.274 844.453a4.845 4.845 0 0 1-4.46 5.202c-29.561 2.271-68.159 8.029-99.467 13.242a2464.137 2464.137 0 0 0-39.275 6.872 2088.545 2088.545 0 0 0-14.729 2.757l-1.076.208-.925-4.756a1590.39 1590.39 0 0 1-.924-4.757l.28-.054.817-.157a2044.208 2044.208 0 0 1 14.809-2.772 2467.266 2467.266 0 0 1 39.432-6.9c31.349-5.22 70.302-11.039 100.316-13.345a4.845 4.845 0 0 1 5.202 4.46zm-164.689 24.45a4.848 4.848 0 0 1 3.833-5.682l.924 4.757.925 4.756a4.847 4.847 0 0 1-5.682-3.831z" clip-rule="evenodd" fill-rule="evenodd"/></svg>