<svg width="400pt" height="400pt" viewBox="0 0 400 400" xmlns="http://www.w3.org/2000/svg"><path fill="#fff" d="M0 0h400v400H0V0m179.05 14.78C139.68 19.04 101.53 35.51 72 61.99 65.72 67.02 60 72.74 54.95 79c-39.51 44.27-57.1 107.81-43.94 165.89 5.63 25.59 16 50.41 31.7 71.47l-.66.61c6.24 9.51 13.86 18.1 21.92 26.12 16.48 15.92 35.64 29.2 56.71 38.29 20.42 8.62 42.14 14.48 64.33 15.8 27.13 2.32 54.6-2.24 80.19-11.33l.13-.22c1.09.04 2.18.05 3.28.05l-.43-.97c7.07-2.43 13.79-5.75 20.43-9.17 18.15-9.85 35.13-22.2 49.15-37.43-.43-.76-1.29-2.26-1.72-3.01.87.55 2.61 1.67 3.48 2.22-.29-.46-.87-1.39-1.16-1.86 4.62-4.16 8.6-8.95 12.3-13.94 18.27-23.51 30.47-51.53 36.17-80.7 6.3-31 3.93-63.51-5.92-93.52-9.45-30.48-27.36-57.96-49.99-80.3-10.57-9.19-21.33-18.33-33.52-25.34-12.15-7.67-25.42-13.36-38.95-18.13-25.51-8.16-52.7-11.98-79.4-8.75z"/><g fill="#fbd8b8"><path d="M179.05 14.78c26.7-3.23 53.89.59 79.4 8.75 13.53 4.77 26.8 10.46 38.95 18.13 12.19 7.01 22.95 16.15 33.52 25.34 22.63 22.34 40.54 49.82 49.99 80.3 9.85 30.01 12.22 62.52 5.92 93.52-5.7 29.17-17.9 57.19-36.17 80.7-3.7 4.99-7.68 9.78-12.3 13.94-5.03-6.52-10.89-12.82-13.27-20.9-7.26-25.52-5.54-52.29-6.86-78.49-.03-15.66 1.87-31.39-.29-46.99-1.62-13.17-5.59-25.98-11.17-37.99-10.47-19.99-19.52-40.86-32.6-59.36-5.59-8.18-12.39-15.54-20.31-21.5-4.16-4.05-8.59-7.81-13.79-10.47-.54.38-1.06.76-1.58 1.15l2.09 1.39c-7.64-2.45-15.39-6.12-23.62-4.92-6.7.72-12.33 4.65-18.13 7.72 6.05-6.82 15.07-10.9 24.13-11.39 5.25.75 9.89 3.58 14.59 5.86-.24-.46-.71-1.38-.94-1.84-4.83-1.8-9.34-4.7-14.57-5.18-5.92-.66-11.58 1.99-16.51 4.98-4.95 3.01-8.83 7.35-12.78 11.51-3.69-3.12-8.67-3.27-13.02-4.92-10.94-3.95-22.95-.45-32.71 5.02-6.24 3.35-11.56 8.06-17.26 12.18 6.95-7.72 15.21-14.47 24.52-19.14 5.77-3.08 12.58-3.59 18.92-2.36 5.18 1.39 9.47 4.88 14.69 6.19-7.71-5.8-17.49-10.24-27.34-8.24-9.41 2.07-17.29 8.19-24.29 14.52-3.74 3.19-7.53 6.4-10.28 10.52-1.44 1.64-2.86 3.29-4.3 4.92-.12.49-.35 1.47-.47 1.97-6.71 7.03-11.48 15.55-17.35 23.23-5.19 5.76-8.67 12.95-11.73 19.99-3.06 6.71-5.9 13.56-7.91 20.68-3.8 15.85-.87 32.19 1.55 48.01 1.18 6.47-.12 13.01-.88 19.45-1.61 12.69-4.19 25.23-6.84 37.73-2.73 9.44-5.81 18.98-11.01 27.38-8.14 10.03-14.54 21.58-24.33 30.19-15.7-21.06-26.07-45.88-31.7-71.47C-2.15 186.81 15.44 123.27 54.95 79 60 72.74 65.72 67.02 72 61.99c29.53-26.48 67.68-42.95 107.05-47.21m133.08 143.24c6.63 13.31 11.16 27.98 10.65 42.98.26 5.82-1.63 11.4-2.24 17.14.49-1.02 1.17-1.95 1.44-3.07 1.38-7.77 1.7-15.71 1.24-23.59-1.9-11.61-4.87-23.35-11.09-33.46z"/><path d="M127.14 115.79c1.12-.52 2.13-1.6 3.48-1.42 2.81 2.28 4.45 5.6 6.53 8.5 2.44 3.44 4.99 6.81 7.38 10.29-.33.63-.99 1.9-1.32 2.53-6.89.34-13.15-2.87-19.29-5.53-2.37-1.15-5.05-2.13-6.69-4.28-.57-1.87 1.48-2.58 2.8-3.14 8.05 2.18 14.79 7.28 22.15 10.99-5.09-5.91-11.13-11.09-15.04-17.94zm127.68 17.08c3.89-7.08 9.07-13.34 14.27-19.49 1.26.36 2.53.74 3.8 1.11-3.81 6.93-9.4 12.76-14.75 18.53 4.51-1.89 8.48-4.79 12.81-7.04 4.01-2.07 7.74-5.01 12.32-5.68.02 1.66 1.44 4.19-.76 5.06-8.74 5.15-18 9.61-28.11 11.23.06-1.24-.26-2.59.42-3.72zm-162.1 2.61c2.04-3.73 3.88-7.62 6.67-10.88-4.13 10.3-8.28 20.67-10.58 31.56-1.87 10.79-2.73 21.76-2.29 32.71l-1.11-.03c-1.2-8.66-1.42-17.43-.89-26.14.7-9.56 4.33-18.56 8.2-27.22zm213.47 17.48c7.77 16.23 10.8 34.38 10.79 52.22-2.22-13.5-3.9-27.16-7.86-40.3-1.07-3.94-2.69-7.79-2.93-11.92zm-66.98 32.08c6.02.16 12.87.72 16.92 5.82 2.38 2.16 1.8 5.48 1.49 8.31-3.11 2.17-6.32 4.33-10 5.43-4.34 1.41-8.97 1-13.44.63l-1.61-.98 1.73-1.19c.93-.33 1.87-.66 2.81-.99l-2.98-3.18 2.23-1.05c-.93-.04-1.8.11-2.64.44-.05.55-.14 1.66-.19 2.22-.85.06-2.55.19-3.39.26.33-1.5-.31-4.34 1.98-4.4.61.3 1.83.89 2.44 1.19 1.4-.73 2.78-1.48 4.17-2.22.05-2.47.1-4.93.17-7.39.25 2.88.39 5.78.71 8.67 5-2.12 1.69-8.39-.4-11.57zm-77.58 2.09c7.83.39 15.26 4.57 19.2 11.42-.13-1.02-.27-2.04-.44-3.05 1 .65 1.99 1.31 2.99 1.97-.03 1.24-.05 2.47-.07 3.71-1.56 1-3.17 1.95-4.75 2.88l-1.29.04c-4.44 1.18-8.72 3.04-13.36 3.35-7.52 1.05-16.02-.49-21.33-6.3-.47-2.11-.31-4.28-.4-6.41 1.07 3.05 1.77 6.64 4.7 8.52 3.11 2.52 7.49 3.12 11.14 1.42.46-.15 1.39-.47 1.85-.63-.35-1.84-1.96-3.92-.45-5.62 1.68-1.03 3.74-.95 5.63-1.22-.13-2.44-.31-4.88-.62-7.31-.95-.91-1.88-1.83-2.8-2.77z"/><path d="M151.31 201.45c.62-1.72 2.26-5.12 4.09-2.31-.17.55-.52 1.64-.69 2.19-1.14.03-2.27.07-3.4.12zm46.46 24.12c1.13-1.31 1.94-3.74 4.12-3.17 2.1-.15 3.38 1.48 4.27 3.13-2.8.13-5.59.13-8.39.04zm66.84 18.35c.74-1.19 1.48-2.38 2.26-3.55-1.3 7.51-5.25 14.18-8.63 20.91-2.45 4.34-4.29 9.06-7.24 13.1-1.15.63-2.32 1.25-3.53 1.76l-1.06-.08c6.19-11.21 14.52-21.21 19.52-33.05l-1.32.91z"/></g><g fill="#372821"><path d="M205.53 57.53c4.93-2.99 10.59-5.64 16.51-4.98 5.23.48 9.74 3.38 14.57 5.18.23.46.7 1.38.94 1.84-4.7-2.28-9.34-5.11-14.59-5.86-9.06.49-18.08 4.57-24.13 11.39 5.8-3.07 11.43-7 18.13-7.72 8.23-1.2 15.98 2.47 23.62 4.92l-2.09-1.39c.52-.39 1.04-.77 1.58-1.15 5.2 2.66 9.63 6.42 13.79 10.47 7.92 5.96 14.72 13.32 20.31 21.5 13.08 18.5 22.13 39.37 32.6 59.36 5.58 12.01 9.55 24.82 11.17 37.99 2.16 15.6.26 31.33.29 46.99 1.32 26.2-.4 52.97 6.86 78.49 2.38 8.08 8.24 14.38 13.27 20.9.29.47.87 1.4 1.16 1.86-.87-.55-2.61-1.67-3.48-2.22.43.75 1.29 2.25 1.72 3.01-14.02 15.23-31 27.58-49.15 37.43-6.64 3.42-13.36 6.74-20.43 9.17l.43.97c-1.1 0-2.19-.01-3.28-.05.44-.73.9-1.45 1.36-2.16-.38-7.29-2.7-14.28-3.37-21.54-.09-3.99-4.77-4.87-7.38-6.92-8.07-4.54-13.38-12.45-17.38-20.57-3.42-8.28-5.16-17.18-6.05-26.07-.36-6.23.31-12.53-.87-18.67 4.34-2.35 8.47-5.19 11.38-9.25h2.59c1.83-1.99 3.7-3.95 5.39-6.07 2.95-4.04 4.79-8.76 7.24-13.1 3.38-6.73 7.33-13.4 8.63-20.91 2.77-3.84 3.41-8.61 4.44-13.1 3.28-15.96 2.45-32.44.24-48.48-6.14-4.03-12.81-7.37-20.01-8.98-6.94-1.25-13.91.46-20.64 2.07-3.64.77-7.24 1.77-10.71 3.13 1.38-1.53 2.28-3.39 3.06-5.28-.47-.15-1.4-.45-1.86-.61 8.17-4.76 17.04-9.2 26.62-9.83 8.94-.78 15.81 5.85 22.49 10.74-.53-1.05-1.06-2.1-1.57-3.15-.67-.58-1.33-1.14-1.99-1.7-5.55-13.58-10.15-28.76-22.34-38.04-6.98-6.75-15.84-10.94-23.26-17.11 5.53 1.37 9.54 5.55 14.1 8.65 4.43 3.04 8.49 6.58 12.93 9.6-5.47-8.06-13.24-14.67-22.48-17.96-9.05-1.89-18.12-3.74-27.29-4.98-1.45-3.78-2.41-7.71-3.07-11.69-.68 3.56-.84 7.3-2.31 10.66-3.25 1.79-6.91 2.76-10.04 4.8-4.94 3.07-9.72 6.4-14.84 9.18-6.96 4.25-14.45 7.87-20.35 13.62-4.34 4.78-8.59 9.77-11.5 15.58-4.98 9.59-8.14 20-11.01 30.38 2.96-3.12 5.78-6.39 9-9.24 3.67-3.32 8.65-4.93 13.54-5.05 8.65.27 17.2 2.21 25.16 5.61.12 1.34.23 2.69.35 4.04.92.5 1.83 1.01 2.75 1.52-4.94-1.65-10.19-1.12-15.3-1.39-6.53-.1-13.49-.83-19.48 2.34-6.36 3.26-12.18 7.52-17.81 11.88-2.37 10.6-1.63 21.76.29 32.4.77 4.4 2.03 8.82 4.63 12.53 7.4 11.04 14.91 22.42 18.28 35.44.81 2.69 1.18 5.94 3.96 7.36 5.48 3.5 11.14 6.71 16.67 10.14.97 5.91 1.29 11.95.41 17.89-1.23 8.83-1.98 18.13-6.59 25.99-4.45 9.29-11.59 16.92-19.45 23.43-10.18 6.8-15.05 18.53-21.21 28.62-21.07-9.09-40.23-22.37-56.71-38.29-8.06-8.02-15.68-16.61-21.92-26.12l.66-.61c9.79-8.61 16.19-20.16 24.33-30.19 5.2-8.4 8.28-17.94 11.01-27.38 2.65-12.5 5.23-25.04 6.84-37.73.76-6.44 2.06-12.98.88-19.45-2.42-15.82-5.35-32.16-1.55-48.01 2.01-7.12 4.85-13.97 7.91-20.68.15.64.44 1.92.59 2.56-3.87 8.66-7.5 17.66-8.2 27.22-.53 8.71-.31 17.48.89 26.14l1.11.03c-.44-10.95.42-21.92 2.29-32.71 2.3-10.89 6.45-21.26 10.58-31.56 1.88-3.73 2.97-7.79 4.47-11.67 5.87-7.68 10.64-16.2 17.35-23.23.12-.5.35-1.48.47-1.97 1.44-1.63 2.86-3.28 4.3-4.92 2.75-4.12 6.54-7.33 10.28-10.52 7-6.33 14.88-12.45 24.29-14.52 9.85-2 19.63 2.44 27.34 8.24-5.22-1.31-9.51-4.8-14.69-6.19-6.34-1.23-13.15-.72-18.92 2.36-9.31 4.67-17.57 11.42-24.52 19.14 5.7-4.12 11.02-8.83 17.26-12.18 9.76-5.47 21.77-8.97 32.71-5.02 4.35 1.65 9.33 1.8 13.02 4.92 3.95-4.16 7.83-8.5 12.78-11.51m-49.68 66.26c2.94-.71 5.18-2.81 7.73-4.3 4.26-2.71 9.06-4.65 12.73-8.21-7.74 2.3-14.7 6.92-20.46 12.51m-28.71-8c3.91 6.85 9.95 12.03 15.04 17.94-7.36-3.71-14.1-8.81-22.15-10.99-1.32.56-3.37 1.27-2.8 3.14 1.64 2.15 4.32 3.13 6.69 4.28 6.14 2.66 12.4 5.87 19.29 5.53.33-.63.99-1.9 1.32-2.53-2.39-3.48-4.94-6.85-7.38-10.29-2.08-2.9-3.72-6.22-6.53-8.5-1.35-.18-2.36.9-3.48 1.42m127.68 17.08c-.68 1.13-.36 2.48-.42 3.72 10.11-1.62 19.37-6.08 28.11-11.23 2.2-.87.78-3.4.76-5.06-4.58.67-8.31 3.61-12.32 5.68-4.33 2.25-8.3 5.15-12.81 7.04 5.35-5.77 10.94-11.6 14.75-18.53-1.27-.37-2.54-.75-3.8-1.11-5.2 6.15-10.38 12.41-14.27 19.49m51.37 20.09c.24 4.13 1.86 7.98 2.93 11.92 3.96 13.14 5.64 26.8 7.86 40.3.01-17.84-3.02-35.99-10.79-52.22m-176.28 83.46c2.25 9.1 7.57 17.08 10.55 25.95 1.02 3.52 2.89 6.7 5.23 9.51-1.37-13.13-9.01-24.5-15.78-35.46z"/><path d="M312.13 158.02c6.22 10.11 9.19 21.85 11.09 33.46.46 7.88.14 15.82-1.24 23.59-.27 1.12-.95 2.05-1.44 3.07.61-5.74 2.5-11.32 2.24-17.14.51-15-4.02-29.67-10.65-42.98zm-83.87 26.94c7.43-3.41 15.89-4.15 23.81-2.11 3.52 3.91 9.33 5.55 14.46 4.49l-.36 1.74c1.54-.73 3.1-1.4 4.7-1.98-2.1 5.45-6.9 9.27-11.99 11.81-1.71.66-2.47 2.32-3.14 3.89 2.25 1.33 4.52 2.84 5.64 5.3-2.45-1.51-4.41-4.4-7.42-4.59-2.06.73-5.71 1.47-4.14 4.44-1.93-2.89-5.16-.91-7.85-.71-2.74.11-5.44-.5-8.14-.85l-1.68 1.16c-.68-.82-1.46-1.53-2.1-2.37 1.38.01 2.75.02 4.13.05 4.47.37 9.1.78 13.44-.63 3.68-1.1 6.89-3.26 10-5.43.31-2.83.89-6.15-1.49-8.31-4.05-5.1-10.9-5.66-16.92-5.82 2.09 3.18 5.4 9.45.4 11.57-.32-2.89-.46-5.79-.71-8.67-.07 2.46-.12 4.92-.17 7.39-1.39.74-2.77 1.49-4.17 2.22-.61-.3-1.83-.89-2.44-1.19-2.29.06-1.65 2.9-1.98 4.4.84-.07 2.54-.2 3.39-.26.05-.56.14-1.67.19-2.22.84-.33 1.71-.48 2.64-.44l-2.23 1.05 2.98 3.18c-.94.33-1.88.66-2.81.99-1.54.37-3.21.49-4.47 1.57-4.53-2.15-8.57-5.59-9.54-10.76 1.82-3.59 4.48-6.83 7.97-8.91zm-93.88 4.48c5.36 1.24 10.61-1.01 14.59-4.52 8.28-1.51 17.36-1.3 24.77 3.09 2.68 2 5.15 4.47 6.65 7.49.17 1.01.31 2.03.44 3.05-3.94-6.85-11.37-11.03-19.2-11.42.92.94 1.85 1.86 2.8 2.77.31 2.43.49 4.87.62 7.31-1.73-.53-3.44-1.13-5.14-1.75-.98 1.66-1.95 3.31-2.92 4.97-.4-.32-1.19-.97-1.59-1.29-1.83-2.81-3.47.59-4.09 2.31-.52.02-1.57.07-2.09.09.18.47.53 1.39.7 1.85 3.09.15 6.18.2 9.28.22l-1.18 1.07c-3.65 1.7-8.03 1.1-11.14-1.42-2.93-1.88-3.63-5.47-4.7-8.52.09 2.13-.07 4.3.4 6.41 5.31 5.81 13.81 7.35 21.33 6.3 4.64-.31 8.92-2.17 13.36-3.35-4.31 2.65-9.13 4.69-14.25 4.98-3.43.44-6.8-.64-10.21-.71-1.74-.19-2.57 1.7-3.78 2.61.48-1.14.96-2.28 1.44-3.41-1.46-.72-2.89-1.56-4.47-1.98-3.35.49-5.59 3.37-8.2 5.26 1.58-2.89 4.07-5.11 7.29-6-4.37-5.86-13.84-7.45-15.09-15.73 1.63.8 3.23 1.63 4.84 2.47-.12-.54-.35-1.62-.46-2.15zm76.25 41.08c.51-.02 1.52-.07 2.03-.09-.1 1.03-.2 2.07-.29 3.1-1.48.03-2.97.06-4.45.08.9-1.03 1.8-2.06 2.71-3.09zm-20.2.81c2.7-.05 5.23.89 6.87 3.11-2.19-.03-4.38-.08-6.57-.17l-.3-2.94zm74.18 12.59 1.32-.91c-5 11.84-13.33 21.84-19.52 33.05l-1.54-.13c5.06-11.57 13.22-21.29 19.74-32.01zm-35.38 11.7c3.52-1.72 6.55-4.27 9.83-6.38-.26.43-.8 1.3-1.07 1.73-2.85 1.48-5.61 3.13-8.33 4.84-.72 1.46-1.41 2.92-2.13 4.38.52-1.41.93-2.84 1.45-4.24-3.69.41-7.3 1.17-10.93 1.93-4.94 1.13-10.05.21-15.02 1.02-8.73 1.49-17.45-.53-26.12-1.38 2.4-.26 4.78-.58 7.15-1.05 2.43-2.38 6.04-2.64 9.05-3.93 3.82-1.87 7.89.66 11.86 0 3.88-.55 7.9-1.83 11.8-.68 4.01 1.63 8.06 3.59 12.46 3.76m-43.77.19c-.09.43-.27 1.27-.37 1.7 1.46.17 2.56.26 3.78.98 1.69.02 3.48.13 4.96-.84.3.15.89.44 1.19.58 6.58-1.35 13.32-.51 19.98-.72 2.79-.39 5.56-.99 8.38-1.21-1.29-2.35-4.36-2.18-6.31-3.74-5.83-1.08-11.5 1.89-17.29.65-1.58-.25-3.16-.48-4.72-.75-3.03 1.62-6.3 2.54-9.6 3.35z"/></g><g fill="#f3976d"><path d="M193.22 104.31c1.47-3.36 1.63-7.1 2.31-10.66.66 3.98 1.62 7.91 3.07 11.69 9.17 1.24 18.24 3.09 27.29 4.98 9.24 3.29 17.01 9.9 22.48 17.96-4.44-3.02-8.5-6.56-12.93-9.6-4.56-3.1-8.57-7.28-14.1-8.65 7.42 6.17 16.28 10.36 23.26 17.11 12.19 9.28 16.79 24.46 22.34 38.04.66.56 1.32 1.12 1.99 1.7.51 1.05 1.04 2.1 1.57 3.15-6.68-4.89-13.55-11.52-22.49-10.74-9.58.63-18.45 5.07-26.62 9.83.46.16 1.39.46 1.86.61-.78 1.89-1.68 3.75-3.06 5.28 3.47-1.36 7.07-2.36 10.71-3.13 6.73-1.61 13.7-3.32 20.64-2.07 7.2 1.61 13.87 4.95 20.01 8.98 2.21 16.04 3.04 32.52-.24 48.48-1.03 4.49-1.67 9.26-4.44 13.1-.78 1.17-1.52 2.36-2.26 3.55-6.52 10.72-14.68 20.44-19.74 32.01l1.54.13 1.06.08c1.21-.51 2.38-1.13 3.53-1.76-1.69 2.12-3.56 4.08-5.39 6.07h-2.59c-2.91 4.06-7.04 6.9-11.38 9.25 1.18 6.14.51 12.44.87 18.67.89 8.89 2.63 17.79 6.05 26.07 4 8.12 9.31 16.03 17.38 20.57 2.61 2.05 7.29 2.93 7.38 6.92.67 7.26 2.99 14.25 3.37 21.54-.46.71-.92 1.43-1.36 2.16l-.13.22c-25.59 9.09-53.06 13.65-80.19 11.33-22.19-1.32-43.91-7.18-64.33-15.8 6.16-10.09 11.03-21.82 21.21-28.62 7.86-6.51 15-14.14 19.45-23.43 4.61-7.86 5.36-17.16 6.59-25.99.88-5.94.56-11.98-.41-17.89-5.53-3.43-11.19-6.64-16.67-10.14-2.78-1.42-3.15-4.67-3.96-7.36-3.37-13.02-10.88-24.4-18.28-35.44-2.6-3.71-3.86-8.13-4.63-12.53-1.92-10.64-2.66-21.8-.29-32.4 5.63-4.36 11.45-8.62 17.81-11.88 5.99-3.17 12.95-2.44 19.48-2.34 5.11.27 10.36-.26 15.3 1.39-.92-.51-1.83-1.02-2.75-1.52-.12-1.35-.23-2.7-.35-4.04-7.96-3.4-16.51-5.34-25.16-5.61-4.89.12-9.87 1.73-13.54 5.05-3.22 2.85-6.04 6.12-9 9.24 2.87-10.38 6.03-20.79 11.01-30.38 2.91-5.81 7.16-10.8 11.5-15.58 5.9-5.75 13.39-9.37 20.35-13.62 5.12-2.78 9.9-6.11 14.84-9.18 3.13-2.04 6.79-3.01 10.04-4.8m35.04 80.65c-3.49 2.08-6.15 5.32-7.97 8.91.97 5.17 5.01 8.61 9.54 10.76 1.26-1.08 2.93-1.2 4.47-1.57l-1.73 1.19 1.61.98c-1.38-.03-2.75-.04-4.13-.05.64.84 1.42 1.55 2.1 2.37l1.68-1.16c2.7.35 5.4.96 8.14.85 2.69-.2 5.92-2.18 7.85.71-1.57-2.97 2.08-3.71 4.14-4.44 3.01.19 4.97 3.08 7.42 4.59-1.12-2.46-3.39-3.97-5.64-5.3.67-1.57 1.43-3.23 3.14-3.89 5.09-2.54 9.89-6.36 11.99-11.81-1.6.58-3.16 1.25-4.7 1.98l.36-1.74c-5.13 1.06-10.94-.58-14.46-4.49-7.92-2.04-16.38-1.3-23.81 2.11m-93.88 4.48c.11.53.34 1.61.46 2.15-1.61-.84-3.21-1.67-4.84-2.47 1.25 8.28 10.72 9.87 15.09 15.73-3.22.89-5.71 3.11-7.29 6 2.61-1.89 4.85-4.77 8.2-5.26 1.58.42 3.01 1.26 4.47 1.98-.48 1.13-.96 2.27-1.44 3.41 1.21-.91 2.04-2.8 3.78-2.61 3.41.07 6.78 1.15 10.21.71 5.12-.29 9.94-2.33 14.25-4.98l1.29-.04c1.58-.93 3.19-1.88 4.75-2.88.02-1.24.04-2.47.07-3.71-1-.66-1.99-1.32-2.99-1.97-1.5-3.02-3.97-5.49-6.65-7.49-7.41-4.39-16.49-4.6-24.77-3.09-3.98 3.51-9.23 5.76-14.59 4.52m63.39 36.13c2.8.09 5.59.09 8.39-.04-.89-1.65-2.17-3.28-4.27-3.13-2.18-.57-2.99 1.86-4.12 3.17m12.86 4.95c-.91 1.03-1.81 2.06-2.71 3.09 1.48-.02 2.97-.05 4.45-.08.09-1.03.19-2.07.29-3.1-.51.02-1.52.07-2.03.09m-20.2.81.3 2.94c2.19.09 4.38.14 6.57.17-1.64-2.22-4.17-3.16-6.87-3.11m38.8 24.29c-4.4-.17-8.45-2.13-12.46-3.76-3.9-1.15-7.92.13-11.8.68-3.97.66-8.04-1.87-11.86 0-3.01 1.29-6.62 1.55-9.05 3.93-2.37.47-4.75.79-7.15 1.05 8.67.85 17.39 2.87 26.12 1.38 4.97-.81 10.08.11 15.02-1.02 3.63-.76 7.24-1.52 10.93-1.93-.52 1.4-.93 2.83-1.45 4.24.72-1.46 1.41-2.92 2.13-4.38 2.72-1.71 5.48-3.36 8.33-4.84.27-.43.81-1.3 1.07-1.73-3.28 2.11-6.31 4.66-9.83 6.38z"/><path d="M155.85 123.79c5.76-5.59 12.72-10.21 20.46-12.51-3.67 3.56-8.47 5.5-12.73 8.21-2.55 1.49-4.79 3.59-7.73 4.3zm-63.72 9.13c3.06-7.04 6.54-14.23 11.73-19.99-1.5 3.88-2.59 7.94-4.47 11.67-2.79 3.26-4.63 7.15-6.67 10.88-.15-.64-.44-1.92-.59-2.56zm67.78 62.54c1.7.62 3.41 1.22 5.14 1.75-1.89.27-3.95.19-5.63 1.22-1.51 1.7.1 3.78.45 5.62-.46.16-1.39.48-1.85.63l1.18-1.07c-3.1-.02-6.19-.07-9.28-.22-.17-.46-.52-1.38-.7-1.85.52-.02 1.57-.07 2.09-.09 1.13-.05 2.26-.09 3.4-.12.17-.55.52-1.64.69-2.19.4.32 1.19.97 1.59 1.29.97-1.66 1.94-3.31 2.92-4.97zm-30 40.96c6.77 10.96 14.41 22.33 15.78 35.46-2.34-2.81-4.21-5.99-5.23-9.51-2.98-8.87-8.3-16.85-10.55-25.95zm55.55 19.39c3.3-.81 6.57-1.73 9.6-3.35 1.56.27 3.14.5 4.72.75 5.79 1.24 11.46-1.73 17.29-.65 1.95 1.56 5.02 1.39 6.31 3.74-2.82.22-5.59.82-8.38 1.21-6.66.21-13.4-.63-19.98.72-.3-.14-.89-.43-1.19-.58-1.48.97-3.27.86-4.96.84-1.22-.72-2.32-.81-3.78-.98.1-.43.28-1.27.37-1.7z"/></g></svg>