<svg width="400pt" height="400pt" viewBox="0 0 400 400" xmlns="http://www.w3.org/2000/svg"><path fill="#fff" d="M0 0h400v400H0V0m54.17 69.12c-26.99 30.64-43.97 70-47.45 110.69-1.31 8.34-.28 16.79-.7 25.18 1.52 43.26 18.09 85.85 46.29 118.72 2.41 2.68 4.45 5.8 7.59 7.72.54-.18 1.6-.55 2.14-.74-.18.55-.54 1.65-.71 2.2 3.93 3.06 7.03 7.03 10.93 10.14 11.84 10.01 24.37 19.58 38.48 26.14 1.39-.15 2.57.3 3.56 1.36l-.37.5c7.48 3.91 15.27 7.21 23.31 9.77 1.99-.11 3.09 1.69 4.78 2.33l-.15-.53c1.12 1.21 2.72 1.7 4.34 1.29.46 1.67 1.38 1.87 2.78.58l.79.21-.06 1.08c2.6.63 5.26 1.24 7.97.95l.52.07c.29 1.73 1.19 2.03 2.71.9l1.41.1c-.36 1.79 2.7 2.13 3.53.89l1.12.69 1.28-.33c-.16 1.72 2.81 1.67 3.6.57l1.13.64 1.35-.27c.44 1.92 4.07 1.63 5.45.62l2.81.56c4.2 1.26 8.65 1 12.95.59.47.1 1.4.3 1.86.4l.23-1.04 3.32.24c11.59.63 23.26-.83 34.6-3.18l-.37-1.53c.59.22 1.77.67 2.36.89 4.28.02 8.38-1.38 12.49-2.39 5.59-1.54 11.24-2.96 16.57-5.28 3.42-1.14 6.77-2.48 10.03-4.01 10.91-4.54 21.41-10.11 31.19-16.75 15.74-10.65 30.18-23.36 42.19-38.11-.01-.76-.02-2.28-.03-3.04l2.05.06c.19.2.57.59.76.78 23.51-29.51 38.26-65.98 41.48-103.6 1.32-8.66.28-17.43.7-26.14-1.61-36.93-13.9-73.38-35.29-103.57-31.97-46.01-84.83-76.79-140.67-81.66-8.31-1.37-16.72-.42-25.08-.78-53.05 1.4-104.98 26.03-139.77 66.09z"/><path fill="#bdb2ae" d="M54.17 69.12C88.96 29.06 140.89 4.43 193.94 3.03c8.36.36 16.77-.59 25.08.78 55.84 4.87 108.7 35.65 140.67 81.66 21.39 30.19 33.68 66.64 35.29 103.57-.42 8.71.62 17.48-.7 26.14-3.22 37.62-17.97 74.09-41.48 103.6-.19-.19-.57-.58-.76-.78-5.8-5.9-13.19-9.84-20.15-14.16-1.17-1.68 1.82-2.92 2.58-4.31 1.59.43 3.2.83 4.81 1.19 1 .95 1.99 1.9 3 2.85.05-.73.14-2.19.19-2.92 1.42-1.1 2.63-2.45 3.49-4.05-4.28-.28-9.03 1.03-12.92-1.33-2.1-1.16-3.95-2.7-5.88-4.11-.04-3.52 3.5-5.11 5.34-7.62 3.31-3.67 4.56-8.66 4.17-13.51.26-11.64-5.31-22.34-11.38-31.9 4.19 1.48 8.65 1.58 13.04 1.15l.36-3.83c-4.19 1.45-8.9 1.01-12.52-1.65-5.18-3.17-9.41-8.01-11.41-13.75 1.9-19.87-1.86-39.75-6.49-59.01-2.59-8.21-5.33-16.4-7.26-24.8-3.12-12.6-3.79-25.65-7-38.22-1.37-7.34-1.91-14.9-4.81-21.87-3.27-13.89-11.75-25.81-21.28-36.14-4.77-5.96-10.72-11.07-17.88-13.91-5.3-1.99-9.27-6.27-14.43-8.52-5.19-2.52-10.9-3.6-16.53-4.64-12.51-1.53-25.14.51-37.7-.22-6.53.17-13.36-1.35-19.62 1.14-4.41 1.67-8.88 3.42-12.75 6.17-8.62 6.47-18.15 11.65-26.47 18.54-9.12 7.5-18.57 14.64-26.87 23.08-5.36 5.66-10.68 11.37-15.42 17.57-4.35 5.61-8.84 11.58-10.13 18.74-.76 3.33.68 6.66.39 10.02-3.28 5.06-5.35 10.93-5.76 16.96-.27 4.36 2.89 8.15 6.69 9.88 3.66 2.11 8 1.91 12.09 1.94 1.56 2.56 3.07 5.45 5.96 6.75 3.21 1.92 7.01.52 10.45.27-.13.55-.4 1.63-.53 2.18-1.43 4.97-2.75 9.97-4.07 14.98-1.12 4.52-4.05 8.23-6.33 12.19-4.31 7.35-10.11 13.78-13.62 21.6-5.05 9.64-9.53 20.18-8.79 31.31.46 7.35 3.6 14.44 8.39 20 2.33 2.76 5.83 4.01 8.93 5.65-2.17 8.14-4.61 16.3-8.63 23.73-1.6 3.12-4.1 5.62-6.76 7.86-.05.59-.15 1.76-.19 2.35-1.09-.44-2.17-.88-3.26-1.31.15.76.44 2.27.58 3.02 3.56.89 6.52-1.42 9.35-3.16-5.64 10.73-12.57 20.94-16.19 32.62-1.11 3.47.49 6.9 1.64 10.13-.18 1.5-.36 3-.56 4.5-3.14-1.92-5.18-5.04-7.59-7.72-28.2-32.87-44.77-75.46-46.29-118.72.42-8.39-.61-16.84.7-25.18 3.48-40.69 20.46-80.05 47.45-110.69z"/><path d="M161.76 13.86c6.26-2.49 13.09-.97 19.62-1.14 2.26.88 6.43.4 6.58 3.53-5.42.58-10.56-2.11-15.99-1.8-7.55-.35-13.85 4.18-20.29 7.36-8.61 4.68-15.76 11.56-24.22 16.49-2.27 1.29-4.2 3.06-5.94 4.99-6.7 6.68-13.27 13.49-19.97 20.17-6.41 6.89-11.71 14.74-16.5 22.82-1.13 1.71-1.49 3.74-1.59 5.76-1.19-.8-2.37-1.59-3.56-2.38 4.42-6.89 8.97-13.68 13.58-20.44-6.51 7.61-13.44 15.06-18.29 23.91-1.52 2.7-2.15 5.77-2.84 8.76l1.76-.64a67.834 67.834 0 0 1-3.6 6.73c.29-3.36-1.15-6.69-.39-10.02 1.29-7.16 5.78-13.13 10.13-18.74 4.74-6.2 10.06-11.91 15.42-17.57 8.3-8.44 17.75-15.58 26.87-23.08 8.32-6.89 17.85-12.07 26.47-18.54 3.87-2.75 8.34-4.5 12.75-6.17zM95.34 160.94c1.32-5.01 2.64-10.01 4.07-14.98l1.5.61c1.53 6.75-1.95 12.82-4.12 18.93-1.43 6.33-3.69 12.4-5.54 18.61-2.83 6.76-6.34 13.22-9.1 20.01-2.33 5.42-2.87 11.9-.36 17.35 1.79 4.09 3.76 8.14 4.64 12.55 1.36 5.58.6 11.39 1.57 17.02 0 .06.02.17.03.23-2.06 3.41-3.34 7.2-4.31 11.04-1.09 4.36-3.3 8.33-4.48 12.66 2.54-5.45 4.29-11.26 7.92-16.15.3.6.89 1.81 1.19 2.41-2.16 6.18-6.04 11.62-7.87 17.92-2.59 9.8-5.53 19.73-5.05 29.98-.02 4.91.23 10.7 4.28 14.12 2.55 2.23 5.78.45 8.45-.49.18.51.53 1.53.7 2.04-2.81 1.75-6.23 2.58-9.47 1.58-2.11-1.12-3.58-3.11-5.23-4.77-2.23 1.05-4.51 2-6.69 3.16-2.41 1.32-3.82 3.8-5.43 5.92-.54.19-1.6.56-2.14.74.2-1.5.38-3 .56-4.5-1.15-3.23-2.75-6.66-1.64-10.13 3.62-11.68 10.55-21.89 16.19-32.62-2.83 1.74-5.79 4.05-9.35 3.16-.14-.75-.43-2.26-.58-3.02 1.09.43 2.17.87 3.26 1.31.04-.59.14-1.76.19-2.35 2.66-2.24 5.16-4.74 6.76-7.86 4.02-7.43 6.46-15.59 8.63-23.73-3.1-1.64-6.6-2.89-8.93-5.65-4.79-5.56-7.93-12.65-8.39-20-.74-11.13 3.74-21.67 8.79-31.31 3.51-7.82 9.31-14.25 13.62-21.6 2.28-3.96 5.21-7.67 6.33-12.19m-11.13 24.3c-5.17 7-8.48 15.13-11.84 23.1-3.43 9.24-4.29 20.02.09 29.1 2.41 5.04 6.39 10.24 12.07 11.57-.01-3.63.17-7.28-.17-10.9-.99-6.4-3.5-12.44-6.4-18.19-2.2-4.15-1.07-9.06-.1-13.4 4.01-11.05 10.88-20.96 13.68-32.47-2.61 3.62-4.69 7.58-7.33 11.19M75.02 289.5c-4.07 7.66-8.41 15.23-11.44 23.39-.02 3.34-.06 6.68.03 10.01 3.64-1.08 6.38-3.97 9.76-5.63-2.55-9.26.09-18.77 2.08-27.86-.11.02-.32.07-.43.09z" fill="#180100"/><path fill="#7b513b" d="M181.38 12.72c12.56.73 25.19-1.31 37.7.22-5.7-.56-11.4.22-17.1.32-4.2.09-8.45.34-12.42 1.82 4.35 1.51 8.93.23 13.4.37 12.29-.24 25.5.57 36.02 7.64 4.8 3.19 9.61 6.34 14.51 9.35 7.72 5.57 13.43 13.36 19.4 20.66 3.87 4.51 5.47 10.38 8.67 15.32 3.4 5.25 4.74 11.45 6.74 17.3 4.65 13.2 4.37 27.42 7.02 41.05l-1.43 2.19c-1.52 4.35 1.19 8.59 2.37 12.68a31.6 31.6 0 0 0-1.97 2.39c.87 3.44 2.84 6.49 3.61 9.96 1.24 5.51-.07 11.21.96 16.75 1.38 6.99.22 14.26 2.25 21.16 1.43 7.69 5.15 14.71 6.64 22.38-8.39-10.69-14.24-23.63-15.57-37.25-.82-5.7-.1-11.5-1.02-17.19-2.13 2.97-1.85 6.66-1.83 10.11-.15 17.17 6.27 33.81 16.09 47.7 2.73 3.11-.38 6.83-1.41 10 .56-.06 1.69-.17 2.25-.23 1.23-1.39 2.02-3.5 3.95-4.02 1.7 3.74-1.55 6.88-3.77 9.47 3.54 1.43 5.19-2.66 6.96-4.86 5.58 4.02 8.32 10.41 11.09 16.45 6.01 9.32 9.78 20.61 7.72 31.75-1.11 4.02-4.42 6.83-7.31 9.61-2.95-6.74-3.52-14.16-4.6-21.35-.96-5.92-.01-12.06-1.79-17.84-1.9 4.9-1.02 10.25-1.12 15.37 0 8.94 1.83 17.74 4.13 26.34-3.76-4.28-4.93-10.01-6.4-15.34-2.87-11.12-2.74-22.68-4.03-34.01-1.88 3.39-1.45 7.34-1.4 11.06.42 12.86 1.89 26.04 7.43 37.82 1.99 4.72 5.69 8.41 7.94 12.98 1.7 3.46 4.51 6.13 7.12 8.88-7.45.96-14.54-2.03-20.25-6.61-1.4-1.73-2.83-3.68-2.54-6.05.39-10.49-2.06-20.88-5.75-30.64-5.01-11.91-10.25-23.74-15.84-35.39-1.01-2.22-2.41-4.25-4.17-5.94.36 4.51 2.91 8.32 4.7 12.36-.49 3.1-.46 6.29.94 9.16.93 1.96 1.5 5.47-1.15 6.29-.77-1.88-1.26-3.84-1.78-5.79-.22 1.38-.43 2.77-.65 4.16-1.72-.49-3.83-.41-5.05-1.91-.96-1.25-1.17-2.87-1.64-4.32-1.4-.33-2.8-.65-4.18-.99-.51-.13-1.51-.39-2.02-.52 5.27 11.5 12.14 22.56 14.5 35.15.76 7.22 1.51 15.29-3.01 21.53-1.63 3.55-6.26 5.33-9.68 3.14-7.94-4.64-12.53-13.18-15.15-21.72-4.87-12.74-1.94-26.49-1.74-39.69-.77.35-1.54.7-2.3 1.06-.65-1.32-1.35-2.62-2.03-3.92-.18 3.41-.65 6.78-1.31 10.13.21-5.81.66-11.63.28-17.44-2.86 2.55-2.17 6.61-2.65 10.02-1.06 10.71-1.71 21.48-1.21 32.25-6.19-.13-10.31-5.31-14.13-9.5-4.67-6.43-8.94-14.32-7.39-22.54.72-5.57 2.64-10.92 5.15-15.93 2.08-4.22 5.89-7.56 6.8-12.33-2.26 2.1-4.37 4.36-6.66 6.43.68-4.69 4.15-8.05 6.12-12.15-.3-.54-.9-1.61-1.19-2.15.54-1.02 1.05-2.04 1.6-3.05-.12.61-.35 1.85-.47 2.47.57.05 1.7.14 2.27.18-.36 3.04-2.13 7.71 1.58 9.32 2.28 1.5 4.74-.91 5.72-2.89 1.49-3.95.57-8.29-.36-12.26 7.29-3.5 15.29-7.84 18.51-15.73 2.45-5.46 7.93-9.54 8.23-15.9.13-6.01-.97-12.03-2.45-17.84-1.05-4.12-5.16-6.18-7.35-9.56-.2-6.61.6-13.39-1.46-19.82-1.48-4.37-2.54-9.67-6.93-12.08 4.15 8.77 6.94 18.51 6.01 28.29-.12 3.96-5.04 3.6-7.81 4.8-.46-4.48 1.58-9.77-1.4-13.62-.42 3.94-.28 7.93-.96 11.84-.47 2.78-1.1 5.68-.09 8.44-.41.48-.8.97-1.19 1.46-.5 1.46-.99 2.92-1.48 4.38.41-3.68.51-7.38.55-11.08l-2.02.09c-.35 3.59-.81 7.17-1.34 10.74.62-5.58-.2-11.26.48-16.79 3.98-7.67 3.88-16.9 1.85-25.14-.99-4.43-1.23-9.04-2.96-13.28 1.27 10.98 2.28 22.07 1.69 33.13-3.39-.03-4.99-3.29-6.73-5.68-2.59-4.07-5.62-7.9-7.64-12.3-2.22-5.38-3.71-11.03-5.52-16.55-.44-1.5-1.52-2.66-2.49-3.83.52 5.35 2.33 10.46 4.24 15.45-.26.92-.51 1.85-.76 2.77 3.67 6.21 7.49 12.33 11.44 18.36-4.53.39-8.18-2.91-11.87-5.02.92-.73 1.84-1.46 2.76-2.18-3.21-1.56-7.6-1.88-9.43-5.36-4-5.92-6.22-12.77-8.02-19.61-.49-8.75-.4-17.54-.96-26.29-4.93 6.57-4.26 15.32-3.19 22.99 2 7.4 2.81 15.03 4.11 22.57-2.5.07-5.01.13-7.51.19-4.04-10.36-5.52-21.5-6.22-32.53-.44-5.79.79-11.56.29-17.35-4.16 7.76-7.33 16.02-11.74 23.66-2.57 4.32-4.16 9.11-5.95 13.78.47-11.38 8.92-20.22 11.21-31.06.04-3.64-.12-8.57-3.97-10.31-2.86-.85-5.75.47-8.49 1.21-.54-1.8-1.09-3.6-1.64-5.41-.49-.05-1.48-.17-1.97-.23.91 4.01 1.48 8.1 2.08 12.17-.72.37-2.15 1.1-2.86 1.47.03-3.76.7-7.85-1.3-11.26-1.21-2.27-3.18-5-6.15-4.36-2.31.04-3.1 2.52-4.23 4.08-1.19.44-2.42.75-3.66.98l.2-2.68c-2.61 2-4.71 4.55-6.31 7.41-2.69 4.96-8.08 7.59-10.97 12.4-1.36.13-2.72.27-4.08.41.07-1.86.16-3.73.24-5.59-.43-.41-1.28-1.23-1.7-1.64 1.05-2.53 2.17-5.03 3.15-7.59-6.51 6.98-9.84 16.15-14.25 24.44-3.73 4.1-3.88 9.88-6.31 14.65-1.86 3.9-4.49 7.68-4.07 12.24-2.72.19-5.43.38-8.14.59-.38-.11-1.13-.32-1.51-.42-.2-1.21-.37-2.42-.5-3.64 1.97-5.91 5.14-11.33 8.06-16.81 3.69-6.87 8.55-13.06 11.87-20.12.77-1.4.55-3.01.54-4.53-3.05 4.68-5.44 9.75-8.62 14.35-4.37 6.46-8.44 13.14-11.68 20.25-3.4 7.41-8.75 14.51-8.7 23 .8 3.93 2.34 7.73 1.98 11.83-3.08-1.05-6.58-1.89-8.64-4.64-3.14-4.02-4.04-9.31-4.07-14.28.92-14.74 4.84-29.33 11.79-42.39 2.56-5.27 6.32-9.89 8.21-15.48.81-2.78 2.94-4.77 5.01-6.64.61.4 1.82 1.19 2.42 1.58 1.03-2.79 1.2-6.17 3.58-8.23 1.07-1.02 2.22-1.95 3.36-2.9-.2-1.53-.39-3.07-.59-4.61 1.74-1.93 3.67-3.7 5.94-4.99 8.46-4.93 15.61-11.81 24.22-16.49 6.44-3.18 12.74-7.71 20.29-7.36 5.43-.31 10.57 2.38 15.99 1.8-.15-3.13-4.32-2.65-6.58-3.53m10.4 14.98c-4.36 3.15-7.25 8.16-8.35 13.37l1.45 1.81c1.19-3.26 2.14-6.74 4.35-9.49 1.6-2.13 3.85-3.61 5.65-5.55.49-2.79-1.93-.9-3.1-.14m12.9 23.16c3.46-.26 6.89-1.53 10.38-1.09 5.21 1.46 8.7 6.36 10.11 11.37.63 1.84.85 4.02 2.6 5.22.7-7.79-4.44-15.96-11.78-18.63-3.69-.29-9.64-1.1-11.31 3.13m-78.64 3.13c-2.97 2.76-7.55 5.24-7.02 9.94 6.38-.55 10.97-5.55 15.73-9.29 0-.6-.01-1.81-.01-2.41-2.94.17-6.38-.53-8.7 1.76m8.3 3.37c-.53 1.08-2.21 3-.26 3.63 2.45-1.1 4.12-3.49 3.92-6.24-1.33.68-2.93 1.19-3.66 2.61m123.63 2.46c1.91 4.23 4.8 7.94 7.88 11.36 1.5 1.34 3.35-.25 3.13-2.04-1.18-2.73-3.07-5.09-4.8-7.49-1.45-1.87-3.98-2.57-6.21-1.83m-11.79 1.27c-.09 6.19 2.98 12.22 7.24 16.55 2.59-.24 6.85-1.23 6.34-4.65-.79-3.56-2.81-6.85-5.02-9.73-2.03-2.7-5.6-2.28-8.56-2.17z"/><path fill="#1e0100" d="M201.98 13.26c5.7-.1 11.4-.88 17.1-.32 5.63 1.04 11.34 2.12 16.53 4.64 5.16 2.25 9.13 6.53 14.43 8.52 7.16 2.84 13.11 7.95 17.88 13.91 9.53 10.33 18.01 22.25 21.28 36.14 2.9 6.97 3.44 14.53 4.81 21.87 3.21 12.57 3.88 25.62 7 38.22 1.93 8.4 4.67 16.59 7.26 24.8 4.63 19.26 8.39 39.14 6.49 59.01 2 5.74 6.23 10.58 11.41 13.75 3.62 2.66 8.33 3.1 12.52 1.65l-.36 3.83c-4.39.43-8.85.33-13.04-1.15 6.07 9.56 11.64 20.26 11.38 31.9.39 4.85-.86 9.84-4.17 13.51-1.84 2.51-5.38 4.1-5.34 7.62 1.93 1.41 3.78 2.95 5.88 4.11 3.89 2.36 8.64 1.05 12.92 1.33-.86 1.6-2.07 2.95-3.49 4.05-.05.73-.14 2.19-.19 2.92-1.01-.95-2-1.9-3-2.85-1.61-.36-3.22-.76-4.81-1.19-.76 1.39-3.75 2.63-2.58 4.31 6.96 4.32 14.35 8.26 20.15 14.16l-2.05-.06c.01.76.02 2.28.03 3.04-4.27-2.12-7.9-5.33-12.14-7.44-4.61-.46-9.3.68-13.86-.42-4.1-.97-8.07-2.83-11.17-5.72-.96-1.45-1.83-2.96-2.68-4.47.44.05 1.32.14 1.76.19 5.71 4.58 12.8 7.57 20.25 6.61-2.61-2.75-5.42-5.42-7.12-8.88-2.25-4.57-5.95-8.26-7.94-12.98-5.54-11.78-7.01-24.96-7.43-37.82-.05-3.72-.48-7.67 1.4-11.06 1.29 11.33 1.16 22.89 4.03 34.01 1.47 5.33 2.64 11.06 6.4 15.34-2.3-8.6-4.13-17.4-4.13-26.34.1-5.12-.78-10.47 1.12-15.37 1.78 5.78.83 11.92 1.79 17.84 1.08 7.19 1.65 14.61 4.6 21.35 2.89-2.78 6.2-5.59 7.31-9.61 2.06-11.14-1.71-22.43-7.72-31.75-2.77-6.04-5.51-12.43-11.09-16.45-1.77 2.2-3.42 6.29-6.96 4.86 2.22-2.59 5.47-5.73 3.77-9.47-1.93.52-2.72 2.63-3.95 4.02-.56.06-1.69.17-2.25.23 1.03-3.17 4.14-6.89 1.41-10-9.82-13.89-16.24-30.53-16.09-47.7-.02-3.45-.3-7.14 1.83-10.11.92 5.69.2 11.49 1.02 17.19 1.33 13.62 7.18 26.56 15.57 37.25-1.49-7.67-5.21-14.69-6.64-22.38-2.03-6.9-.87-14.17-2.25-21.16-1.03-5.54.28-11.24-.96-16.75-.77-3.47-2.74-6.52-3.61-9.96a31.6 31.6 0 0 1 1.97-2.39c-1.18-4.09-3.89-8.33-2.37-12.68 1.52 4.3 2.85 8.68 3.71 13.17 1.59 8.26 5.19 15.97 7.03 24.17 2.9 12.38 5.51 24.93 5.74 37.69.09 4.99.11 9.97-.01 14.96l2.06-.28c.19-10.19.55-20.47-1.17-30.56-1.35-8.5-3.12-16.93-5.11-25.3-1.35-6.19-4.52-11.76-6.16-17.86-1.66-6.03-3.3-12.07-4.66-18.18-2.65-13.63-2.37-27.85-7.02-41.05-2-5.85-3.34-12.05-6.74-17.3-3.2-4.94-4.8-10.81-8.67-15.32-5.97-7.3-11.68-15.09-19.4-20.66-4.9-3.01-9.71-6.16-14.51-9.35-10.52-7.07-23.73-7.88-36.02-7.64-4.47-.14-9.05 1.14-13.4-.37 3.97-1.48 8.22-1.73 12.42-1.82m105.46 189.61c-.93-11.68-1.76-23.55-5.39-34.76-1.34 11.8.9 23.83 5.39 34.76z"/><path d="M191.78 27.7c1.17-.76 3.59-2.65 3.1.14-1.8 1.94-4.05 3.42-5.65 5.55-2.21 2.75-3.16 6.23-4.35 9.49l-1.45-1.81c1.1-5.21 3.99-10.22 8.35-13.37zm12.9 23.16c1.67-4.23 7.62-3.42 11.31-3.13 7.34 2.67 12.48 10.84 11.78 18.63-1.75-1.2-1.97-3.38-2.6-5.22-1.41-5.01-4.9-9.91-10.11-11.37-3.49-.44-6.92.83-10.38 1.09zM163.1 293.1c.93-.43 1.78-1.34 2.89-1.13 7.38.69 14.71 1.81 21.92 3.53 1.24.29 2.14 1.28 3.13 2.03-5.42-.07-10.65-1.74-16.03-2.17-3.99-.63-8.18-.55-11.91-2.26z" fill="#2f0802"/><path fill="#775144" d="M101.55 63.46c6.7-6.68 13.27-13.49 19.97-20.17.2 1.54.39 3.08.59 4.61-1.14.95-2.29 1.88-3.36 2.9-2.38 2.06-2.55 5.44-3.58 8.23-.6-.39-1.81-1.18-2.42-1.58-.57-.38-1.15-.75-1.72-1.13-8.79 13.66-18.13 27.35-22.58 43.16l-3.54 1.32c-1.07 5.23-1.58 10.57-2.85 15.75-.59 2.24-3.14.47-4.46-.04-2.92-1.32-2.38-4.92-2.13-7.52.43-5.9 5.38-9.81 7.78-14.88.06-.52.16-1.55.21-2.07.1-2.02.46-4.05 1.59-5.76 4.79-8.08 10.09-15.93 16.5-22.82z"/><path d="M126.04 53.99c2.32-2.29 5.76-1.59 8.7-1.76 0 .6.01 1.81.01 2.41-4.76 3.74-9.35 8.74-15.73 9.29-.53-4.7 4.05-7.18 7.02-9.94zm131.93 5.83c2.23-.74 4.76-.04 6.21 1.83 1.73 2.4 3.62 4.76 4.8 7.49.22 1.79-1.63 3.38-3.13 2.04-3.08-3.42-5.97-7.13-7.88-11.36zm-11.79 1.27c2.96-.11 6.53-.53 8.56 2.17 2.21 2.88 4.23 6.17 5.02 9.73.51 3.42-3.75 4.41-6.34 4.65-4.26-4.33-7.33-10.36-7.24-16.55zm-82.25 119.77c2.28 2.31 4.62 4.6 6.43 7.31-1.03.56-2.08 1.08-3.15 1.56-1.28-2.89-2.27-5.89-3.28-8.87z" fill="#916751"/><path fill="#8a5f4a" d="M134.34 57.36c.73-1.42 2.33-1.93 3.66-2.61.2 2.75-1.47 5.14-3.92 6.24-1.95-.63-.27-2.55.26-3.63z"/><g fill="#220200"><path d="M111.03 56.32c.57.38 1.15.75 1.72 1.13-2.07 1.87-4.2 3.86-5.01 6.64-1.89 5.59-5.65 10.21-8.21 15.48-6.95 13.06-10.87 27.65-11.79 42.39.03 4.97.93 10.26 4.07 14.28 2.06 2.75 5.56 3.59 8.64 4.64.36-4.1-1.18-7.9-1.98-11.83-.05-8.49 5.3-15.59 8.7-23 3.24-7.11 7.31-13.79 11.68-20.25 3.18-4.6 5.57-9.67 8.62-14.35.01 1.52.23 3.13-.54 4.53-3.32 7.06-8.18 13.25-11.87 20.12-2.92 5.48-6.09 10.9-8.06 16.81-2.39 5.24-7.37 10.01-6.02 16.29 1.27-3.58 1.95-7.42 4.13-10.61.91 5.94-1.14 11.73-1.12 17.66 3.88-4.96 8.13-9.85 10.73-15.63-3.15-.19-6.62.62-9.29-1.55a64.36 64.36 0 0 1 3.58-2.1c2.71-.21 5.42-.4 8.14-.59-.42-4.56 2.21-8.34 4.07-12.24 2.43-4.77 2.58-10.55 6.31-14.65 4.41-8.29 7.74-17.46 14.25-24.44-.98 2.56-2.1 5.06-3.15 7.59-1.96 5.32-2.65 11.01-4.94 16.23-2.81 9.84-4.57 20.68-1.29 30.62 3.52 1.1 7.13 1.94 10.55 3.32 2.58.97 4.06 3.46 5.82 5.42-2.04-.01-4.07-.02-6.1-.16-3.54-1.01-6.97-2.76-10.74-2.52-1.56.2-2.83-.73-4.12-1.43-2.45-1.41-5.19-2.2-7.72-3.45-.32-.09-.95-.26-1.27-.35-3.34 5.54-6.11 11.45-10.15 16.54-.71 15.84 3.47 31.37 3.86 47.17 1.36 9.74 3.31 19.59 7.79 28.44 2.99 6.37 6.28 12.85 11.69 17.54 6.57 7.12 14.32 12.96 21.69 19.2 2.81 2.2 5.65 4.89 9.37 5.26 6.07.61 12.48 1.82 18.39-.34 7.73-3.84 15.26-8.11 22.13-13.39 5.77-4.36 12.67-7.27 17.52-12.78 6.06-6.83 10.98-14.55 16.09-22.08.29.54.89 1.61 1.19 2.15-1.97 4.1-5.44 7.46-6.12 12.15 2.29-2.07 4.4-4.33 6.66-6.43-.91 4.77-4.72 8.11-6.8 12.33-2.51 5.01-4.43 10.36-5.15 15.93-1.55 8.22 2.72 16.11 7.39 22.54 3.82 4.19 7.94 9.37 14.13 9.5-.5-10.77.15-21.54 1.21-32.25.48-3.41-.21-7.47 2.65-10.02.38 5.81-.07 11.63-.28 17.44-.98 8.45-.85 17.03.04 25.49.6-.02 1.81-.04 2.41-.06-.14-8.19-.4-16.43.58-24.59.25-2.34.42-4.7.31-7.05.76-.36 1.53-.71 2.3-1.06-.2 13.2-3.13 26.95 1.74 39.69 2.62 8.54 7.21 17.08 15.15 21.72 3.42 2.19 8.05.41 9.68-3.14 4.52-6.24 3.77-14.31 3.01-21.53-2.36-12.59-9.23-23.65-14.5-35.15.51.13 1.51.39 2.02.52 5.67 9.48 10.63 19.5 13.88 30.08 2.12 9.12 3.21 19.85-3.01 27.69 1.38-.5 2.76-.99 4.14-1.47-.7 3.67-3.11 7.26-6.95 8.1-3.82.47-7.65-.3-11.44-.7-3.86-1.72-7.51-3.84-11.18-5.9 3.28 6.9 6.02 14.03 8.66 21.2 2.96 8.64 3.14 17.93 2.64 26.95-.11 3.06-3.39 4.43-5.59 5.92-10.15 5.65-19.8 12.35-30.74 16.48 1.89 4.81 2.51 9.97 2.32 15.11-.59-.22-1.77-.67-2.36-.89-1.37-4.51-3.23-8.95-3.6-13.68.46-2.78 3.12-4.05 5.4-5.09 10.48-4.66 19.93-11.25 29.72-17.15 2.6-1.21 1.65-4.4 1.9-6.68.76-13.17-4.28-25.65-8.91-37.71-.95-2.21-1.35-4.58-1.47-6.97-4.74-6.03-7.15-13.4-9.08-20.71-1.42-.12-2.84-.23-4.26-.34-1.4 5.33-4.44 10.01-6.34 15.16-1.4 4-4.38 7.11-6.37 10.78-2.18 4.72-3.42 9.8-5.24 14.66-1.73 4.76-4.9 8.86-6.4 13.72-4.13 12.54-9.55 24.6-13.44 37.23-2.12 7.14-4.84 14.12-6.14 21.49l-3.32-.24c.36-1.62.73-3.23 1.06-4.84 4.19-13.62 8.23-27.34 13.96-40.42 2.66-7.18 4.92-14.53 8.29-21.44 2.91-5.94 5.01-12.23 7.54-18.33 2.09-7.19 6.14-13.57 8.51-20.65-2.71-.32-5.4-.71-8.11-.99l-.92-.04c-2.53 1.33-5 3.16-8.01 3.04-3.75-.05-6.91 2.2-10.16 3.75l-4.39.44c5.68-5.07 13.46-6.87 20.48-9.42-3.28-6.06-4.17-13.05-2.58-19.75-1.41-1.14-2.83-2.26-4.23-3.39-8.25 2.58-16.15 7.45-25.08 6.69-5.35-.25-10.68.9-16.02.22-2.25-.29-4.5 0-6.73.38-3.01.11-6.07.16-9.05-.37-3.1-.85-6-2.55-9.27-2.69-1.2 2.39-2.18 4.91-2.55 7.56-.69 3.74-1.2 7.9.79 11.34.6.19 1.79.56 2.38.75.03.49.07 1.46.09 1.95 1.72 1.82 3.35 3.79 4.33 6.13-2.37-.99-4.78-1.87-7.19-2.75-.24 3.56-.32 7.13-.3 10.7-.09 10.43-2.96 20.6-3.11 31.02-.24 6.92-1.82 13.68-2.86 20.5-.09.48-.26 1.45-.34 1.93-2.24 7.42-2.7 15.22-2.81 22.92-.35 1.98-.76 3.94-1.13 5.92.35.2 1.07.59 1.43.78l.21.56.15.53c-1.69-.64-2.79-2.44-4.78-2.33 1.65-9.58 2.48-19.27 4.24-28.82 2.55-17.55 6.49-34.99 6.38-52.82-4.91 9.1-15.84 13.05-25.72 12.1-.19 1.73 1.72 1.62 2.9 1.93 4.86.94 9.48-1.32 13.83-3.17-.15 2.04-.73 4.07-2.7 5.04-6.24 3.78-11.76 9.92-19.58 9.89-.71-.13-2.13-.38-2.84-.51.71-.82.83-2.49 2.18-2.48 4.04-.45 7.86-1.83 11.08-4.34-5.14-.62-10.31-3.04-12.82-7.78-3.74-7.54-5.52-16.24-4.05-24.61 1.66-13.26 4.46-26.33 7.51-39.33.95-3.57.95-7.66 3.51-10.58-.06 6.66-2.22 13.01-3.43 19.5-.83 2.73 1.63 5.36.27 8.02-3.09 7.98-3.78 16.62-3.86 25.1.12 6.7 2.07 14.07 7.35 18.56 6.16 3.21 13.84 1.25 19.13-2.83 3.92-2.96 5.12-8.01 6.57-12.44-3.1 1.32-6.67 3.25-9.57.5 4.31-.64 9.27-2.03 10.81-6.67.2-7.34-.47-14.91 1.96-21.99.7-2.79 4.07-2.75 6.24-3.59-.33-5.52-6.18-7.02-9.36-10.58-11.12-11-24.07-20.79-31.37-34.97-3.67-8.88-3.98-18.64-6.09-27.92-1.9-8.58-1.99-17.39-3.27-26.05-.46-3.54.17-7.1-.04-10.64-1.64-1.32-3.69-1.94-5.59-2.75l-1.5-.61c.13-.55.4-1.63.53-2.18-3.44.25-7.24 1.65-10.45-.27-2.89-1.3-4.4-4.19-5.96-6.75-4.09-.03-8.43.17-12.09-1.94-3.8-1.73-6.96-5.52-6.69-9.88.41-6.03 2.48-11.9 5.76-16.96 1.33-2.17 2.52-4.42 3.6-6.73 1.9-3.87 3.52-7.9 5.79-11.59 1.19.79 2.37 1.58 3.56 2.38-.05.52-.15 1.55-.21 2.07-2.4 5.07-7.35 8.98-7.78 14.88-.25 2.6-.79 6.2 2.13 7.52 1.32.51 3.87 2.28 4.46.04 1.27-5.18 1.78-10.52 2.85-15.75l3.54-1.32c4.45-15.81 13.79-29.5 22.58-43.16m14.43 60.45c.22 2.23 2.92 1.87 4.5 2.28-3.82-9.79-.59-20.26.77-30.17-3.93 8.68-5.99 18.36-5.27 27.89m-7.25-.33c1.52.11 3.03.21 4.55.34-.14-2.92-.27-5.83-.41-8.75a38.668 38.668 0 0 1-4.14 8.41m-49.64 11.2c2.2 5.46 8.87 6.23 13.99 6.92-1.07-4.83-1.11-9.77-1.11-14.69-2.84.01-5.41-1.12-7.77-2.59-.53-1.41-1.06-2.82-1.6-4.22-1.94 4.58-4.41 9.47-3.51 14.58m18.53 6.75c-.57-3.6-1.38-7.16-2.46-10.64-1.46 3.31-1.52 9.13 2.46 10.64m-.84 1.34c1.58 3.64 4.55 6.95 8.83 6.93-2.19-2.62-5.97-3.61-7.04-7.15-.45.05-1.35.16-1.79.22m18.13 5.55c-1.14 1.44-.14 3.48.7 4.84 3.36-.03 1.3-7.02-.7-4.84m119.83 86.1c-1.51.92-.08 3.63 1.46 2.4 1.5-.91.07-3.62-1.46-2.4m-4.22 4.55c-4.52 3.61-9.5 6.58-14.3 9.8-4.55 3.09-8.72 6.78-13.66 9.27-5.42 2.59-10.31 6.19-16.03 8.13-5.71.8-11.62.82-16.77-2.1.14 1.83.28 3.67.41 5.51 5.33 1.64 11.08 1.74 16.57.88 3.39.12 6.78.12 10.18-.02 1.73.04 3.47.08 5.22.11 4.52.01 9.07-.34 13.36-1.88 4.23-1.52 8.87-2.06 12.68-4.58-.01-3.57-.22-7.14-.12-10.71l.75-.27c.37-5.53 2.95-10.58 5.11-15.59-1.24.19-2.46.57-3.4 1.45m1.33 24.04c-.19 2.86 3.43 3.23 5.33 4.26-1.75-5.97-3.6-12.01-3.21-18.32-1.23 4.58-1.72 9.34-2.12 14.06m3.9 6.17c.19 5.95-1.14 12.75 2.87 17.78 2.85 3.53 8.22 3.06 11.47.37l-.12-4.31-.32.71c-1.87-5.15-7.68-7.62-9.43-12.94-.98-1.57-2.84-1.51-4.47-1.61m27.82 15.19c.3 4.53 2.42 8.6 4.03 12.76 1.38 3.79 4.55 6.45 6.68 9.78-.1-.54-.31-1.63-.41-2.18-4.04-6.15-6.3-13.26-8-20.37-.58.01-1.72.01-2.3.01m-140.93 19.41c.21 3.98 2.55 7.35 4.16 10.86.77 2 2.7 2.97 4.79 2.47-3.54-4.08-5.67-9.09-8.95-13.33z"/><path d="M164.91 61.35c1.13-1.56 1.92-4.04 4.23-4.08 2.97-.64 4.94 2.09 6.15 4.36 2 3.41 1.33 7.5 1.3 11.26.71-.37 2.14-1.1 2.86-1.47-.6-4.07-1.17-8.16-2.08-12.17.49.06 1.48.18 1.97.23.55 1.81 1.1 3.61 1.64 5.41 2.74-.74 5.63-2.06 8.49-1.21 3.85 1.74 4.01 6.67 3.97 10.31-2.29 10.84-10.74 19.68-11.21 31.06 1.79-4.67 3.38-9.46 5.95-13.78 4.41-7.64 7.58-15.9 11.74-23.66.5 5.79-.73 11.56-.29 17.35.7 11.03 2.18 22.17 6.22 32.53 2.5-.06 5.01-.12 7.51-.19-1.3-7.54-2.11-15.17-4.11-22.57-1.07-7.67-1.74-16.42 3.19-22.99.56 8.75.47 17.54.96 26.29 1.8 6.84 4.02 13.69 8.02 19.61 1.83 3.48 6.22 3.8 9.43 5.36-.92.72-1.84 1.45-2.76 2.18 3.69 2.11 7.34 5.41 11.87 5.02-3.95-6.03-7.77-12.15-11.44-18.36.25-.92.5-1.85.76-2.77-1.91-4.99-3.72-10.1-4.24-15.45.97 1.17 2.05 2.33 2.49 3.83 1.81 5.52 3.3 11.17 5.52 16.55 2.02 4.4 5.05 8.23 7.64 12.3 1.74 2.39 3.34 5.65 6.73 5.68.59-11.06-.42-22.15-1.69-33.13 1.73 4.24 1.97 8.85 2.96 13.28 2.03 8.24 2.13 17.47-1.85 25.14-.68 5.53.14 11.21-.48 16.79.53-3.57.99-7.15 1.34-10.74l2.02-.09c-.04 3.7-.14 7.4-.55 11.08l-.2.62c-1.02 3.21-2.41 6.28-3.79 9.34l-4.16.76c2.75-9.85 4.66-20.47 2.73-30.64-3.27-.22-6.77.76-9.84-.75-4.96-2.01-8.99-5.77-11.95-10.17-.87-.02-1.74-.05-2.61-.06 1.23 2.45 2.07 5.18 4.05 7.18 2.97 3.31 7.25 4.94 11.35 6.34l-.04 1.82c-4.14.05-8.38.09-12.33-1.32-4.36-1.24-7.93-4.16-12.06-5.89-2.95-1.22-5.3-3.41-7.54-5.61-.13-.57-.4-1.71-.53-2.28-4.61-.72-8.59 2.17-13.14 2.11-.84-1.53-2.25-2.5-3.78-3.23.57-.96 1.15-1.92 1.72-2.88 4.03-.19 7.98-1.02 12-1.35-.76-3.14-1.79-6.21-2.55-9.34-2-7.28-1.89-14.85-3.15-22.24-1.86 3.76-3.74 7.51-5.45 11.34-3.06 6.67-5.08 14.36-2.19 21.47-.63-.03-1.87-.08-2.5-.11-3.01-3.02-5.22-7.07-4.53-11.47.99-8.52 4.33-16.61 8.48-24.06 1-1.92 1.89-3.91 2.44-6.01-2.24-1.95-4.84-3.58-7.66-4.51-2.39-.01-4.61 1.06-6.79 1.91-3.4-2.2-7.56-1.48-11.39-1.71-6.64 4.91-7.64 13.78-9.67 21.2-1.86 5.91-.01 12.63 4.86 16.54 2.92.65 6.01.97 8.48 2.83-4.14.96-8.3 1.84-12.5 2.51-5.94-2.73-7.66-9.44-8.32-15.35-1.64-5.51-.49-11.16.99-16.54-1.34 1.36-2.65 2.77-4.05 4.07-.35.31-1.06.92-1.41 1.23-2.89 6.64-6.05 14.37-3.42 21.58l.37.87c1.11 2.82 3.31 4.97 5.68 6.77.35.26 1.05.79 1.4 1.05 2.45 1.92 5.76 1.58 8.64 2.17-3.05 1.29-6.71 2.66-9.8.7-5.31-3.22-9.51-8.88-10.26-15.12.16-10.2 3.81-20.16 9.42-28.62 2.89-4.81 8.28-7.44 10.97-12.4 1.6-2.86 3.7-5.41 6.31-7.41l-.2 2.68c-4.74 5.41-7.8 12.05-10.15 18.79-1.58 5.57-3.69 11.35-2.56 17.22.71 3.65 1.13 7.4 2.34 10.93.96 2.71 3.59 4.16 5.84 5.67.2-.3.62-.89.82-1.19-2.04-1.71-4.16-3.44-5.54-5.76-2.3-3.6-.93-8.06-.85-12.03.11-6.22 3.4-11.66 5.47-17.35 2.21-6.04 7.41-10.45 13.14-13.04-1.1-1.05-2.19-2.12-3.25-3.2 4.06-.16 6.23 3.53 8.91 5.9-.74-3.12-1.68-6.44-4.18-8.63-2.19-.89-4.27 1.19-6.33 1.71m16.52 7.01c-.08.51-.25 1.54-.33 2.05 1.59-.39 3.19-.72 4.81-1 1.66 1.27 3.52 2.44 5.72 2.19-.79-2.2-1.08-5.08-3.59-6.05-2.62-.61-4.64 1.46-6.61 2.81m-15.19 1.83c.58 2.8 4.84 1.26 6.98 1.73-1.43-2.37-4.61-3.16-6.98-1.73m29.37 16.76c.77 6.3 1.45 12.62 2.13 18.93.75 4.09 1.09 8.81 4.63 11.58-3.42-12.59-4.9-25.66-4.8-38.7-2.46 1.97-2.32 5.36-1.96 8.19m19.89 26.88c-.04 1.22-.06 2.44-.07 3.67.64.01 1.92.03 2.56.05-.7-1.33-1.5-2.59-2.49-3.72m1.69 5.3c-.51 1.59.06 2.12 1.73 1.6.51-1.6-.07-2.13-1.73-1.6m-12.15 4.32c-1.24.97.33 3.2 1.65 2.29 1.21-.97-.35-3.18-1.65-2.29m3.96 1.21c1.99 2.46 3.8 5.24 6.57 6.92 1.94.85 4.12.76 6.18 1.11-3.01-1.84-4.63-5.01-6.62-7.78-1.33-2.18-4.35-1.33-6.13-.25zm-80.93 125.31c.15-1.48 1.14-2.58 2.24-3.49.07 5.55-2.06 10.95-1.31 16.55-.06 6.88 2.55 13.66 6.82 19.01 2.5 3.46 7.29 1.86 10.61 3.89-2.34 2.07-5.61 1.86-8.48 1.35-4.45-1.66-6.87-6.22-8.66-10.33-3.83-8.46-3.15-18.13-1.22-26.98z"/></g><path fill="#7a5448" d="M164.91 61.35c2.06-.52 4.14-2.6 6.33-1.71 2.5 2.19 3.44 5.51 4.18 8.63-2.68-2.37-4.85-6.06-8.91-5.9 1.06 1.08 2.15 2.15 3.25 3.2-5.73 2.59-10.93 7-13.14 13.04-2.07 5.69-5.36 11.13-5.47 17.35-.08 3.97-1.45 8.43.85 12.03 1.38 2.32 3.5 4.05 5.54 5.76-.2.3-.62.89-.82 1.19-2.25-1.51-4.88-2.96-5.84-5.67-1.21-3.53-1.63-7.28-2.34-10.93-1.13-5.87.98-11.65 2.56-17.22 2.35-6.74 5.41-13.38 10.15-18.79 1.24-.23 2.47-.54 3.66-.98z"/><path fill="#7b574d" d="M181.43 68.36c1.97-1.35 3.99-3.42 6.61-2.81 2.51.97 2.8 3.85 3.59 6.05-2.2.25-4.06-.92-5.72-2.19-1.62.28-3.22.61-4.81 1 .08-.51.25-1.54.33-2.05z"/><path d="M75.19 93.13c4.85-8.85 11.78-16.3 18.29-23.91-4.61 6.76-9.16 13.55-13.58 20.44-2.27 3.69-3.89 7.72-5.79 11.59l-1.76.64c.69-2.99 1.32-6.06 2.84-8.76zm-.17 196.37c.11-.02.32-.07.43-.09-1.99 9.09-4.63 18.6-2.08 27.86-3.38 1.66-6.12 4.55-9.76 5.63-.09-3.33-.05-6.67-.03-10.01 3.03-8.16 7.37-15.73 11.44-23.39z" fill="#c4b5af"/><path fill="#4e302a" d="M166.24 70.19c2.37-1.43 5.55-.64 6.98 1.73-2.14-.47-6.4 1.07-6.98-1.73z"/><path fill="#795446" d="M133.69 88.87c2.29-5.22 2.98-10.91 4.94-16.23.42.41 1.27 1.23 1.7 1.64-.08 1.86-.17 3.73-.24 5.59 1.36-.14 2.72-.28 4.08-.41-5.61 8.46-9.26 18.42-9.42 28.62.75 6.24 4.95 11.9 10.26 15.12 3.09 1.96 6.75.59 9.8-.7-2.88-.59-6.19-.25-8.64-2.17 3.43.59 7.37.03 10.08 2.69-2.75 1.06-5.59 1.84-8.42 2.63l2.16 3.24c-2.46 0-4.97 0-7.32-.82 2.03.14 4.06.15 6.1.16-1.76-1.96-3.24-4.45-5.82-5.42-3.42-1.38-7.03-2.22-10.55-3.32-3.28-9.94-1.52-20.78 1.29-30.62z"/><path fill="#fdd5c4" d="M175.15 75.28c2.18-.85 4.4-1.92 6.79-1.91 2.82.93 5.42 2.56 7.66 4.51-.55 2.1-1.44 4.09-2.44 6.01-4.45-3.77-10.42-3.51-15.86-4.29-1.85.28-3.7.5-5.55.7-1.88 6.49-4.65 13.33-2.95 20.14.29 2.61.54 5.25 1.44 7.74a236.66 236.66 0 0 1-5.29 3.13c-4.87-3.91-6.72-10.63-4.86-16.54 2.03-7.42 3.03-16.29 9.67-21.2 3.83.23 7.99-.49 11.39 1.71z"/><path fill="#ffe7d4" d="M165.75 80.3c1.85-.2 3.7-.42 5.55-.7 5.44.78 11.41.52 15.86 4.29-4.15 7.45-7.49 15.54-8.48 24.06-.69 4.4 1.52 8.45 4.53 11.47.74 1.01 1.42 2.07 2.12 3.11 1.53.73 2.94 1.7 3.78 3.23 4.55.06 8.53-2.83 13.14-2.11.13.57.4 1.71.53 2.28 2.24 2.2 4.59 4.39 7.54 5.61 4.13 1.73 7.7 4.65 12.06 5.89 3.95 1.41 8.19 1.37 12.33 1.32l.04-1.82c-4.1-1.4-8.38-3.03-11.35-6.34-1.98-2-2.82-4.73-4.05-7.18.87.01 1.74.04 2.61.06 2.96 4.4 6.99 8.16 11.95 10.17 3.07 1.51 6.57.53 9.84.75.01 10.63-.53 21.51-4.07 31.64 1.32.41 2.64.95 4.04 1.11.53-.93 1.02-1.89 1.46-2.87 1.38-3.06 2.77-6.13 3.79-9.34.53.96 1.07 1.93 1.61 2.9.23-.51.71-1.54.94-2.05 3.48-2 6.1-5.47 10.1-6.47 2-.59 4.01-1.11 6-1.7 2.82 4.25 3.13 9.46 2.91 14.4.5 8.3-3.31 16.09-7.79 22.81-5.45 6.04-12 12.2-20.6 12.68-1.22 1.71-2.4 3.44-3.34 5.33-.55 1.01-1.06 2.03-1.6 3.05-5.11 7.53-10.03 15.25-16.09 22.08-4.85 5.51-11.75 8.42-17.52 12.78-6.87 5.28-14.4 9.55-22.13 13.39-5.91 2.16-12.32.95-18.39.34-3.72-.37-6.56-3.06-9.37-5.26-7.37-6.24-15.12-12.08-21.69-19.2-5.41-4.69-8.7-11.17-11.69-17.54-4.48-8.85-6.43-18.7-7.79-28.44-.39-15.8-4.57-31.33-3.86-47.17 4.04-5.09 6.81-11 10.15-16.54.32.09.95.26 1.27.35 2.53 1.25 5.27 2.04 7.72 3.45 1.29.7 2.56 1.63 4.12 1.43 3.77-.24 7.2 1.51 10.74 2.52 2.35.82 4.86.82 7.32.82l-2.16-3.24c2.83-.79 5.67-1.57 8.42-2.63-2.71-2.66-6.65-2.1-10.08-2.69-.35-.26-1.05-.79-1.4-1.05-2.37-1.8-4.57-3.95-5.68-6.77.23-.44.7-1.32.94-1.76 1.23-.04 2.46-.04 3.69-.03-.84-7.3.66-14.61-.17-21.89 1.4-1.3 2.71-2.71 4.05-4.07-1.48 5.38-2.63 11.03-.99 16.54.66 5.91 2.38 12.62 8.32 15.35 4.2-.67 8.36-1.55 12.5-2.51-2.47-1.86-5.56-2.18-8.48-2.83 1.77-1.02 3.54-2.06 5.29-3.13-.9-2.49-1.15-5.13-1.44-7.74-1.7-6.81 1.07-13.65 2.95-20.14m20.8 56.13c-.23.47-.7 1.41-.93 1.88-.67.25-1.33.5-2 .75 1.55.74 3.11 1.48 4.66 2.21-1.02.46-2.05.92-3.06 1.4.08 1.01.16 2.02.25 3.03 6.77-.46 14.04-3.87 20.69-1-1.8.94-3.29 2.31-4.49 3.94-.57 2.45-1.13 4.92-1.91 7.32-.65 4.57.85 9.13 3.49 12.84 2.34 2.89 6.22 3.18 9.64 2.47 1.07-1.17 2.2-2.31 3.35-3.41.96-5.35 2.22-10.73 1.41-16.2.61-.08 1.82-.25 2.42-.33-.2-.81-.62-2.43-.83-3.24.59-3.23 5-3.7 4.76-7.18-1 .56-2 1.14-2.99 1.73-3.38-.88-4.94-4.15-7.32-6.35a19.93 19.93 0 0 0-6.42-3.52c-7.13-1.1-14.23.75-20.72 3.66m-71.99 3.32c-1.01.77-3.19 1.84-1.79 3.42 3.65 1.54 7.49-.41 11.22-.52 3.43-.38 6.63 1.02 9.8 2.08-3.1 3.61-3.46 8.75-3.04 13.29.55 5.23 2.89 11.35 8.36 13.09 3.59 1.35 8.04 1.02 10.33-2.39.19-3.33.14-6.66-.18-9.97-1.07-1.9-1.68-3.99-2-6.13-3.09-5.2-6.9-10.4-12.57-12.97-6.45-2.25-13.79-3-20.13.1m145.8 11.68c-3.66 3.02-5.76 7.35-7.94 11.45-2.54 4.85-5.06 9.82-6.14 15.23l1.75-.9c2.11-4.42 3.75-9.08 6.43-13.22-.36 4.37-.71 8.98-3 12.84-.95 1.74-3.91 2.42-3.02 4.9 2.79-.81 5.4-2.6 6.46-5.4 3.76-5.87 1.92-13.14 3.75-19.58.8-1.6 2.23-2.71 3.59-3.81.06-.34.16-1.03.21-1.37-.52-.04-1.57-.11-2.09-.14M124.4 169.46c-.34.35-1.03 1.04-1.38 1.39-1.01-.29-2.02-.57-3.03-.85-2.38 1.85-5.81 3.64-5.63 7.15.71 3.36.95 6.87 2.25 10.09.61 4.03 1.43 8.12 3.26 11.8 2.97 1.56 5.56 3.66 8.12 5.82 3.04-.13 6.96.9 8.66-2.41.18.3.55.9.74 1.21l2.1-1.98c-.06-.82-.11-1.64-.16-2.45 3.48-2.31 7.68-3.44 10.83-6.25.59-2.02-1.37-3.08-2.53-4.31-.2-3.06-.44-6.12-.8-9.16-4.09-1.59-7.18-5.12-11.6-5.91-.34-1-.67-2-1-3-2.79-1.03-5.76-1.34-8.56-.15-.42-.33-.85-.66-1.27-.99m90.6 3.73c-4.87.73-7.72 5.97-12.74 6.25-.93.28-2.32-.11-2.86.88-1.54 5.2-.21 10.62-.91 15.9 1.23 1.32 2.27 2.79 3.11 4.39 3.31 1.95 6.44 4.61 10.29 5.33 1.25-.6 2.42-1.37 3.61-2.1v-1.69c4.17.45 8.45.97 12.55-.21 2-4.04 5.36-7.17 8.25-10.56.56-2.73-.35-5.59-.28-8.37.23-4.15-2.87-7.25-4.7-10.67.51-.72 1.01-1.45 1.52-2.17-6.21-.91-11.88 1.91-17.84 3.02m-51.07 7.67c1.01 2.98 2 5.98 3.28 8.87 1.12-.04 2.62 1.17 3.47-.02 2.85-2.02 2.18-5.76 1.79-8.72-.35-1.93-.58-4.31-2.4-5.46-3.29-.69-4.38 3.33-6.14 5.33m80.72 3.52c-.76 1.22-1.64 2.38-2.21 3.7-.28 2.04 1.8 3.05 2.96 4.36 1.29-.05 2.58-.1 3.88-.13 1-1.77 1.34-3.76 1.38-5.76-1.52-1.86-3.69-2.44-6.01-2.17m-90.25 27.11c-1.98-.51-3.96-1.05-6.02-1.08-.29 1.78.69 3.06 2.04 4.09 1.13-.12 2.25-.27 3.38-.44 4.69 4.91 11.13 9.09 18.2 8.49 5.51.14 10.58-2.85 14.23-6.79.48-.83.94-1.67 1.39-2.51.74 0 2.22.01 2.96.02.59-.62 1.19-1.23 1.78-1.85l-.16-1.74c-1.53-.08-3.06-.14-4.58-.19-.08.16-.23.49-.3.66-.18.14-.55.42-.73.56-5.37-.46-10.19-3.09-15.44-4.02-5.93-.38-11.39 2.65-16.75 4.8z"/><path d="M195.61 86.95c-.36-2.83-.5-6.22 1.96-8.19-.1 13.04 1.38 26.11 4.8 38.7-3.54-2.77-3.88-7.49-4.63-11.58-.68-6.31-1.36-12.63-2.13-18.93zm-70.15 29.82c-.72-9.53 1.34-19.21 5.27-27.89-1.36 9.91-4.59 20.38-.77 30.17-1.58-.41-4.28-.05-4.5-2.28zm169.86 10c1.36 6.11 3 12.15 4.66 18.18 1.64 6.1 4.81 11.67 6.16 17.86 1.99 8.37 3.76 16.8 5.11 25.3 1.72 10.09 1.36 20.37 1.17 30.56l-2.06.28c.12-4.99.1-9.97.01-14.96-.23-12.76-2.84-25.31-5.74-37.69-1.84-8.2-5.44-15.91-7.03-24.17-.86-4.49-2.19-8.87-3.71-13.17l1.43-2.19zm-73.99 129.2c.4-4.72.89-9.48 2.12-14.06-.39 6.31 1.46 12.35 3.21 18.32-1.9-1.03-5.52-1.4-5.33-4.26zm31.72 21.36c.58 0 1.72 0 2.3-.01 1.7 7.11 3.96 14.22 8 20.37.1.55.31 1.64.41 2.18-2.13-3.33-5.3-5.99-6.68-9.78-1.61-4.16-3.73-8.23-4.03-12.76z" fill="#795a54"/><path fill="#f7d2c4" d="M193.35 86.72c1.26 7.39 1.15 14.96 3.15 22.24-.76.62-1.52 1.26-2.27 1.89-2.72-3.95-4.53-8.38-6.33-12.79 1.71-3.83 3.59-7.58 5.45-11.34z"/><path fill="#fdd6c4" d="M142.14 90.06c.35-.31 1.06-.92 1.41-1.23.83 7.28-.67 14.59.17 21.89-1.23-.01-2.46-.01-3.69.03-.24.44-.71 1.32-.94 1.76l-.37-.87c-2.63-7.21.53-14.94 3.42-21.58z"/><path fill="#fee7d5" d="M187.9 98.06c1.8 4.41 3.61 8.84 6.33 12.79.75-.63 1.51-1.27 2.27-1.89.76 3.13 1.79 6.2 2.55 9.34-4.02.33-7.97 1.16-12 1.35-.57.96-1.15 1.92-1.72 2.88-.7-1.04-1.38-2.1-2.12-3.11.63.03 1.87.08 2.5.11-2.89-7.11-.87-14.8 2.19-21.47z"/><path fill="#fee7de" d="M118.21 116.44c1.72-2.62 3.1-5.45 4.14-8.41.14 2.92.27 5.83.41 8.75-1.52-.13-3.03-.23-4.55-.34z"/><path fill="#1f0100" d="M256.09 108.72c4.39 2.41 5.45 7.71 6.93 12.08 2.06 6.43 1.26 13.21 1.46 19.82 2.19 3.38 6.3 5.44 7.35 9.56 1.48 5.81 2.58 11.83 2.45 17.84-.3 6.36-5.78 10.44-8.23 15.9-3.22 7.89-11.22 12.23-18.51 15.73.93 3.97 1.85 8.31.36 12.26-.98 1.98-3.44 4.39-5.72 2.89-3.71-1.61-1.94-6.28-1.58-9.32-.57-.04-1.7-.13-2.27-.18.12-.62.35-1.86.47-2.47.94-1.89 2.12-3.62 3.34-5.33 8.6-.48 15.15-6.64 20.6-12.68 4.48-6.72 8.29-14.51 7.79-22.81.22-4.94-.09-10.15-2.91-14.4-1.16-1.23-2.38-2.39-3.58-3.57-.45.33-1.34.99-1.78 1.31-2.59-.06-5.18-.05-7.76.08-.89 1-1.78 2.02-2.66 3.04-1.01-2.76-.38-5.66.09-8.44.68-3.91.54-7.9.96-11.84 2.98 3.85.94 9.14 1.4 13.62 2.77-1.2 7.69-.84 7.81-4.8.93-9.78-1.86-19.52-6.01-28.29m-12.34 92.71c-.65 3.71-1.56 7.41-1.33 11.22.96-.13 1.92-.26 2.88-.38.46-3.58.43-7.2.06-10.78-.4-.02-1.21-.04-1.61-.06z"/><path fill="#c0b3ac" d="M68.57 127.64c-.9-5.11 1.57-10 3.51-14.58.54 1.4 1.07 2.81 1.6 4.22 2.36 1.47 4.93 2.6 7.77 2.59 0 4.92.04 9.86 1.11 14.69-5.12-.69-11.79-1.46-13.99-6.92z"/><path fill="#775448" d="M100.98 129.2c-1.35-6.28 3.63-11.05 6.02-16.29.13 1.22.3 2.43.5 3.64.38.1 1.13.31 1.51.42a64.36 64.36 0 0 0-3.58 2.1c2.67 2.17 6.14 1.36 9.29 1.55-2.6 5.78-6.85 10.67-10.73 15.63-.02-5.93 2.03-11.72 1.12-17.66-2.18 3.19-2.86 7.03-4.13 10.61z"/><path d="M215.5 113.83c.99 1.13 1.79 2.39 2.49 3.72-.64-.02-1.92-.04-2.56-.05.01-1.23.03-2.45.07-3.67zm28.25 20.56c1.93 10.17.02 20.79-2.73 30.64l4.16-.76c-.44.98-.93 1.94-1.46 2.87-1.4-.16-2.72-.7-4.04-1.11 3.54-10.13 4.08-21.01 4.07-31.64z" fill="#97837b"/><path fill="#62443e" d="M217.19 119.13c1.66-.53 2.24 0 1.73 1.6-1.67.52-2.24-.01-1.73-1.6z"/><path fill="#3f241d" d="M205.04 123.45c1.3-.89 2.86 1.32 1.65 2.29-1.32.91-2.89-1.32-1.65-2.29z"/><path fill="#503c35" d="M87.1 134.39c-3.98-1.51-3.92-7.33-2.46-10.64 1.08 3.48 1.89 7.04 2.46 10.64z"/><path d="M209 124.66c1.78-1.08 4.8-1.93 6.13.25 1.99 2.77 3.61 5.94 6.62 7.78-2.06-.35-4.24-.26-6.18-1.11-2.77-1.68-4.58-4.46-6.57-6.92zM83.72 262.31c.97-3.84 2.25-7.63 4.31-11.04.53 2.55.03 5.14-.87 7.55-3.63 4.89-5.38 10.7-7.92 16.15 1.18-4.33 3.39-8.3 4.48-12.66z" fill="#72554f"/><path fill="#f8dac8" d="M186.55 136.43c6.49-2.91 13.59-4.76 20.72-3.66 2.33.76 4.53 1.97 6.42 3.52 2.38 2.2 3.94 5.47 7.32 6.35.99-.59 1.99-1.17 2.99-1.73.24 3.48-4.17 3.95-4.76 7.18-.28-.88-.56-1.77-.84-2.65-4.18-3.33-8.85-6.53-14.34-6.95-5.37-.23-10.86.53-15.78 2.78-1.55-.73-3.11-1.47-4.66-2.21.67-.25 1.33-.5 2-.75.23-.47.7-1.41.93-1.88z"/><path d="M86.26 135.73c.44-.06 1.34-.17 1.79-.22 1.07 3.54 4.85 4.53 7.04 7.15-4.28.02-7.25-3.29-8.83-6.93zm-2.05 49.51c2.64-3.61 4.72-7.57 7.33-11.19-2.8 11.51-9.67 21.42-13.68 32.47-.97 4.34-2.1 9.25.1 13.4 2.9 5.75 5.41 11.79 6.4 18.19.34 3.62.16 7.27.17 10.9-5.68-1.33-9.66-6.53-12.07-11.57-4.38-9.08-3.52-19.86-.09-29.1 3.36-7.97 6.67-16.1 11.84-23.1z" fill="#bfb5ab"/><path d="M114.56 139.75c6.34-3.1 13.68-2.35 20.13-.1 5.67 2.57 9.48 7.77 12.57 12.97.32 2.14.93 4.23 2 6.13.32 3.31.37 6.64.18 9.97-2.29 3.41-6.74 3.74-10.33 2.39-5.47-1.74-7.81-7.86-8.36-13.09-.42-4.54-.06-9.68 3.04-13.29-3.17-1.06-6.37-2.46-9.8-2.08-3.73.11-7.57 2.06-11.22.52-1.4-1.58.78-2.65 1.79-3.42zm73.72 1.52c4.92-2.25 10.41-3.01 15.78-2.78 5.49.42 10.16 3.62 14.34 6.95.28.88.56 1.77.84 2.65.21.81.63 2.43.83 3.24-.6.08-1.81.25-2.42.33.81 5.47-.45 10.85-1.41 16.2-1.15 1.1-2.28 2.24-3.35 3.41-3.42.71-7.3.42-9.64-2.47-2.64-3.71-4.14-8.27-3.49-12.84.78-2.4 1.34-4.87 1.91-7.32 1.2-1.63 2.69-3 4.49-3.94-6.65-2.87-13.92.54-20.69 1-.09-1.01-.17-2.02-.25-3.03 1.01-.48 2.04-.94 3.06-1.4z" fill="#1c0100"/><path fill="#523c36" d="M104.39 141.28c2-2.18 4.06 4.81.7 4.84-.84-1.36-1.84-3.4-.7-4.84z"/><path fill="#f6d0c4" d="M262.26 145.35c.44-.32 1.33-.98 1.78-1.31 1.2 1.18 2.42 2.34 3.58 3.57-1.99.59-4 1.11-6 1.7-4 1-6.62 4.47-10.1 6.47-.23.51-.71 1.54-.94 2.05-.54-.97-1.08-1.94-1.61-2.9l.2-.62c.49-1.46.98-2.92 1.48-4.38.39-.49.78-.98 1.19-1.46.88-1.02 1.77-2.04 2.66-3.04 2.58-.13 5.17-.14 7.76-.08z"/><path fill="#7b513d" d="M100.91 146.57c1.9.81 3.95 1.43 5.59 2.75.21 3.54-.42 7.1.04 10.64 1.28 8.66 1.37 17.47 3.27 26.05 2.11 9.28 2.42 19.04 6.09 27.92 7.3 14.18 20.25 23.97 31.37 34.97 3.18 3.56 9.03 5.06 9.36 10.58-2.17.84-5.54.8-6.24 3.59-2.43 7.08-1.76 14.65-1.96 21.99-1.54 4.64-6.5 6.03-10.81 6.67 2.9 2.75 6.47.82 9.57-.5-1.45 4.43-2.65 9.48-6.57 12.44-5.29 4.08-12.97 6.04-19.13 2.83-5.28-4.49-7.23-11.86-7.35-18.56.08-8.48.77-17.12 3.86-25.1 1.36-2.66-1.1-5.29-.27-8.02 1.21-6.49 3.37-12.84 3.43-19.5-2.56 2.92-2.56 7.01-3.51 10.58-3.05 13-5.85 26.07-7.51 39.33-1.47 8.37.31 17.07 4.05 24.61 2.51 4.74 7.68 7.16 12.82 7.78-3.22 2.51-7.04 3.89-11.08 4.34-1.35-.01-1.47 1.66-2.18 2.48.71.13 2.13.38 2.84.51-2.15.55-4.31 1.22-6.56 1.18-3.53-.63-7.44-1.35-9.83-4.3-5.55-5.8-4.64-14.47-4.84-21.84-.5-14.04 2.96-27.76 4.81-41.57-3.08 3.07-3.37 7.57-4.12 11.61-1.68 10.59-3.89 21.19-3.64 31.97-.25 5.13.97 10.15 1.24 15.26-5.43-2.35-9.05-7.64-10.12-13.36-1.26-7.2-1.02-14.68.63-21.79.62-2.93 2.53-5.8 1.62-8.87 2.12-1.81 3.47-4.22 3.38-7.07.03-5.04 2.93-9.26 5.16-13.57l2.39-.2v-1.79c-1.53-.18-3.05-.37-4.58-.56 1.03-8.72 1.18-17.56.03-26.27-.32-2.24-1.39-4.24-2.46-6.19l-.24 3.3-3.62.45c-.37.64-.73 1.28-1.1 1.92-3.08-6.29-3.34-14.62 1.53-20.1 1.58-1.79 1.71-4.29 2.31-6.5 3.18-3.41 3.93-8.13 2.67-12.55 1.85-6.21 4.11-12.28 5.54-18.61 2.17-6.11 5.65-12.18 4.12-18.93m27.16 103.4c-1.93 8.85-2.61 18.52 1.22 26.98 1.79 4.11 4.21 8.67 8.66 10.33 2.87.51 6.14.72 8.48-1.35-3.32-2.03-8.11-.43-10.61-3.89-4.27-5.35-6.88-12.13-6.82-19.01-.75-5.6 1.38-11 1.31-16.55-1.1.91-2.09 2.01-2.24 3.49z"/><path fill="#331610" d="M260.36 151.43c.52.03 1.57.1 2.09.14-.05.34-.15 1.03-.21 1.37-1.36 1.1-2.79 2.21-3.59 3.81-1.54 2.44-1.79 5.35-1.86 8.17-.08 3.87-.8 7.7-1.89 11.41-1.06 2.8-3.67 4.59-6.46 5.4-.89-2.48 2.07-3.16 3.02-4.9 2.29-3.86 2.64-8.47 3-12.84-2.68 4.14-4.32 8.8-6.43 13.22l-1.75.9c1.08-5.41 3.6-10.38 6.14-15.23 2.18-4.1 4.28-8.43 7.94-11.45z"/><path fill="#8a756e" d="M256.79 164.92c.07-2.82.32-5.73 1.86-8.17-1.83 6.44.01 13.71-3.75 19.58 1.09-3.71 1.81-7.54 1.89-11.41z"/><path fill="#b5a098" d="M307.44 202.87c-4.49-10.93-6.73-22.96-5.39-34.76 3.63 11.21 4.46 23.08 5.39 34.76z"/><path fill="#fedbc4" d="M124.4 169.46c.42.33.85.66 1.27.99 2.8-1.19 5.77-.88 8.56.15.33 1 .66 2 1 3 4.42.79 7.51 4.32 11.6 5.91.36 3.04.6 6.1.8 9.16 1.16 1.23 3.12 2.29 2.53 4.31-3.15 2.81-7.35 3.94-10.83 6.25.05.81.1 1.63.16 2.45l-2.1 1.98c-.19-.31-.56-.91-.74-1.21-1.7 3.31-5.62 2.28-8.66 2.41-2.56-2.16-5.15-4.26-8.12-5.82-1.83-3.68-2.65-7.77-3.26-11.8-1.3-3.22-1.54-6.73-2.25-10.09-.18-3.51 3.25-5.3 5.63-7.15 1.01.28 2.02.56 3.03.85.35-.35 1.04-1.04 1.38-1.39z"/><path fill="#fed9bf" d="M215 173.19c5.96-1.11 11.63-3.93 17.84-3.02-.51.72-1.01 1.45-1.52 2.17 1.83 3.42 4.93 6.52 4.7 10.67-.07 2.78.84 5.64.28 8.37-2.89 3.39-6.25 6.52-8.25 10.56-4.1 1.18-8.38.66-12.55.21v1.69c-1.19.73-2.36 1.5-3.61 2.1-3.85-.72-6.98-3.38-10.29-5.33-.84-1.6-1.88-3.07-3.11-4.39.7-5.28-.63-10.7.91-15.9.54-.99 1.93-.6 2.86-.88 5.02-.28 7.87-5.52 12.74-6.25z"/><path fill="#f3b6a5" d="M163.93 180.86c1.76-2 2.85-6.02 6.14-5.33 1.82 1.15 2.05 3.53 2.4 5.46.39 2.96 1.06 6.7-1.79 8.72-.85 1.19-2.35-.02-3.47.02 1.07-.48 2.12-1 3.15-1.56-1.81-2.71-4.15-5-6.43-7.31z"/><path d="M244.65 184.38c2.32-.27 4.49.31 6.01 2.17-.04 2-.38 3.99-1.38 5.76-1.3.03-2.59.08-3.88.13-1.16-1.31-3.24-2.32-2.96-4.36.57-1.32 1.45-2.48 2.21-3.7m1.27 1.44c-1.46 1.72-1.52 3.89-.29 5.76.64 0 1.91-.01 2.55-.02.35-.34 1.05-1.02 1.39-1.36l-.2-3.36-3.45-1.02zm-97.54 24.59c2.06.03 4.04.57 6.02 1.08.73.15 2.19.44 2.91.59-.75.59-1.51 1.17-2.28 1.74l-1.23.24c-1.13.17-2.25.32-3.38.44-1.35-1.03-2.33-2.31-2.04-4.09z" fill="#220e09"/><path d="M82.15 204.12c2.76-6.79 6.27-13.25 9.1-20.01 1.26 4.42.51 9.14-2.67 12.55-.6 2.21-.73 4.71-2.31 6.5-4.87 5.48-4.61 13.81-1.53 20.1.37-.64.73-1.28 1.1-1.92l3.62-.45c1.61 8.2 1.52 16.61 1.03 24.92.01 2.06-1.2 3.74-2.49 5.23-.97-5.63-.21-11.44-1.57-17.02-.88-4.41-2.85-8.46-4.64-12.55-2.51-5.45-1.97-11.93.36-17.35zm171.24 34.97c.68 1.3 1.38 2.6 2.03 3.92.11 2.35-.06 4.71-.31 7.05-.98 8.16-.72 16.4-.58 24.59-.6.02-1.81.04-2.41.06-.89-8.46-1.02-17.04-.04-25.49.66-3.35 1.13-6.72 1.31-10.13z" fill="#77544a"/><path fill="#fff6eb" d="m245.92 185.82 3.45 1.02.2 3.36c-.34.34-1.04 1.02-1.39 1.36-.64.01-1.91.02-2.55.02-1.23-1.87-1.17-4.04.29-5.76z"/><path fill="#ffefe3" d="M243.75 201.43c.4.02 1.21.04 1.61.06.37 3.58.4 7.2-.06 10.78-.96.12-1.92.25-2.88.38-.23-3.81.68-7.51 1.33-11.22z"/><path fill="#93493a" d="M154.4 211.49c5.36-2.15 10.82-5.18 16.75-4.8 5.25.93 10.07 3.56 15.44 4.02-2.45 2.67-6.1 2.75-9.45 2.78.03.35.1 1.04.14 1.38 3.38-.55 6.78-1.06 10.19-1.43l-1.24 2.32c-3.65 3.94-8.72 6.93-14.23 6.79-7.07.6-13.51-3.58-18.2-8.49l1.23-.24c6.05.2 11.93 2.11 17.99 2.06 1.35.11 2.67-.52 3.17-1.83-5.89-2.74-12.68-.37-18.88-1.97-.72-.15-2.18-.44-2.91-.59z"/><path fill="#290c07" d="M187.62 209.49c1.52.05 3.05.11 4.58.19l.16 1.74c-.59.62-1.19 1.23-1.78 1.85-.74-.01-2.22-.02-2.96-.02-.45.84-.91 1.68-1.39 2.51l1.24-2.32c-3.41.37-6.81.88-10.19 1.43-.04-.34-.11-1.03-.14-1.38 3.35-.03 7-.11 9.45-2.78.18-.14.55-.42.73-.56.07-.17.22-.5.3-.66z"/><path fill="#3f1309" d="M157.31 212.08c6.2 1.6 12.99-.77 18.88 1.97-.5 1.31-1.82 1.94-3.17 1.83-6.06.05-11.94-1.86-17.99-2.06.77-.57 1.53-1.15 2.28-1.74z"/><path fill="#350c04" d="M89.7 217.59c1.07 1.95 2.14 3.95 2.46 6.19 1.15 8.71 1 17.55-.03 26.27 1.53.19 3.05.38 4.58.56v1.79l-2.39.2c-4.7-.28-4.28 5.6-5.97 8.63-.3-.6-.89-1.81-1.19-2.41.9-2.41 1.4-5 .87-7.55-.01-.06-.03-.17-.03-.23 1.29-1.49 2.5-3.17 2.49-5.23.49-8.31.58-16.72-1.03-24.92l.24-3.3z"/><path d="M283.63 225.1c1.76 1.69 3.16 3.72 4.17 5.94 5.59 11.65 10.83 23.48 15.84 35.39 3.69 9.76 6.14 20.15 5.75 30.64-.29 2.37 1.14 4.32 2.54 6.05-.44-.05-1.32-.14-1.76-.19.85 1.51 1.72 3.02 2.68 4.47-1.59-1.42-3.15-2.9-4.95-4.04-2.77 2.18-5.07 5.14-8.6 6.14-3.28 1.02-6.29 2.65-9.12 4.58-3.51 1.95-7.66.37-9.9-2.72 2.03.26 4.04.66 6.04 1.11 1.84-1.11 3.97-2.07 5.05-4.05 6.64-11.55 6.12-25.64 3.19-38.23-1.08-5.44-4.51-10.06-5.47-15.53 3.71 2.78 5.08 7.39 6.73 11.5 4.45 13.23 5.3 28.03.39 41.26 4.01-1.52 7.55-4.16 9.39-8.14-.44-1.35-.85-2.69-1.26-4.03 2.68-4.38 1.52-9.59.73-14.33-3.27-15.28-10.65-29.2-16.74-43.46-1.79-4.04-4.34-7.85-4.7-12.36zM96.05 270.03c.75-4.04 1.04-8.54 4.12-11.61-1.85 13.81-5.31 27.53-4.81 41.57.2 7.37-.71 16.04 4.84 21.84 2.39 2.95 6.3 3.67 9.83 4.3-2.87 3-5.53 6.19-8.35 9.23 7.63 5.4 16.09 9.57 24.62 13.31.89 1.34-.07 2.72-.7 3.92-3.62 6.07-7.07 12.26-11.3 17.94-.99-1.06-2.17-1.51-3.56-1.36 3.74-4.84 7.26-9.89 10.33-15.18 1.6-2.19-.96-4.31-2.39-5.77-6.06-4.47-14-6.09-19.35-11.56-1.2-4.01 4-5.98 4.47-9.34-1.89-1.57-4.02-2.82-5.8-4.52-2.3-2.98-6.31-2.73-9.36-4.42-6.22-4.26-8.5-12.16-8.42-19.36-.03-8.75.17-18.46 5.56-25.78.91 3.07-1 5.94-1.62 8.87-1.65 7.11-1.89 14.59-.63 21.79 1.07 5.72 4.69 11.01 10.12 13.36-.27-5.11-1.49-10.13-1.24-15.26-.25-10.78 1.96-21.38 3.64-31.97z" fill="#260200"/><path fill="#3f2a23" d="M224.22 227.38c1.53-1.22 2.96 1.49 1.46 2.4-1.54 1.23-2.97-1.48-1.46-2.4z"/><path fill="#fdd2c1" d="M220 231.93c.94-.88 2.16-1.26 3.4-1.45-2.16 5.01-4.74 10.06-5.11 15.59l-.75.27c-5.14 1.34-7.67 6.58-12.23 8.92-4.71 2.51-9.03 5.67-13.69 8.25-1.75-.03-3.49-.07-5.22-.11 4.41-3.6 9.51-6.4 12.9-11.13.79.04 1.58.09 2.38.14-.05-.69-.1-1.37-.14-2.05 1.9-1.97 3.63-4.1 5.17-6.36-.25-.57-.76-1.7-1.01-2.27 4.8-3.22 9.78-6.19 14.3-9.8z"/><path fill="#795344" d="M288.33 237.46c6.09 14.26 13.47 28.18 16.74 43.46.79 4.74 1.95 9.95-.73 14.33.41 1.34.82 2.68 1.26 4.03-1.84 3.98-5.38 6.62-9.39 8.14 4.91-13.23 4.06-28.03-.39-41.26-1.65-4.11-3.02-8.72-6.73-11.5.96 5.47 4.39 10.09 5.47 15.53 2.93 12.59 3.45 26.68-3.19 38.23-1.08 1.98-3.21 2.94-5.05 4.05-2-.45-4.01-.85-6.04-1.11-2.95-1.2-5.98-2.2-8.84-3.6 3.79.4 7.62 1.17 11.44.7 3.84-.84 6.25-4.43 6.95-8.1-1.38.48-2.76.97-4.14 1.47 6.22-7.84 5.13-18.57 3.01-27.69-3.25-10.58-8.21-20.6-13.88-30.08 1.38.34 2.78.66 4.18.99.47 1.45.68 3.07 1.64 4.32 1.22 1.5 3.33 1.42 5.05 1.91.22-1.39.43-2.78.65-4.16.52 1.95 1.01 3.91 1.78 5.79 2.65-.82 2.08-4.33 1.15-6.29-1.4-2.87-1.43-6.06-.94-9.16z"/><path fill="#f5b5a0" d="M192.04 251c4.94-2.49 9.11-6.18 13.66-9.27.25.57.76 1.7 1.01 2.27a48.527 48.527 0 0 1-5.17 6.36c.04.68.09 1.36.14 2.05-.8-.05-1.59-.1-2.38-.14-3.39 4.73-8.49 7.53-12.9 11.13-3.4.14-6.79.14-10.18.02-1-.99-2-1.98-2.99-2.97.92-.45 1.85-.89 2.78-1.32 5.72-1.94 10.61-5.54 16.03-8.13z"/><path fill="#fee7d2" d="M205.31 255.26c4.56-2.34 7.09-7.58 12.23-8.92-.1 3.57.11 7.14.12 10.71-3.81 2.52-8.45 3.06-12.68 4.58-4.29 1.54-8.84 1.89-13.36 1.88 4.66-2.58 8.98-5.74 13.69-8.25z"/><path fill="#795447" d="M88.35 261.23c1.69-3.03 1.27-8.91 5.97-8.63-2.23 4.31-5.13 8.53-5.16 13.57.09 2.85-1.26 5.26-3.38 7.07-5.39 7.32-5.59 17.03-5.56 25.78-.08 7.2 2.2 15.1 8.42 19.36 3.05 1.69 7.06 1.44 9.36 4.42-3.12.23-6.39.33-9.14 2-.17-.51-.52-1.53-.7-2.04-2.67.94-5.9 2.72-8.45.49-4.05-3.42-4.3-9.21-4.28-14.12-.48-10.25 2.46-20.18 5.05-29.98 1.83-6.3 5.71-11.74 7.87-17.92z"/><path fill="#e7c0b0" d="M159.24 257.03c5.15 2.92 11.06 2.9 16.77 2.1-.93.43-1.86.87-2.78 1.32.99.99 1.99 1.98 2.99 2.97-5.49.86-11.24.76-16.57-.88-.13-1.84-.27-3.68-.41-5.51z"/><path fill="#f8d2a5" d="M194 265.75c8.93.76 16.83-4.11 25.08-6.69 1.4 1.13 2.82 2.25 4.23 3.39-1.59 6.7-.7 13.69 2.58 19.75-7.02 2.55-14.8 4.35-20.48 9.42l4.39-.44c-.1.41-.29 1.23-.39 1.64.25.52.5 1.05.76 1.58 6.31-2.46 12.78-4.5 19.49-5.54-.48-.61-.96-1.23-1.44-1.83.16-.65.5-1.95.67-2.6 2.71.28 5.4.67 8.11.99-1.67.79-3.33 1.6-4.98 2.43-1.77 5.08-4.49 9.76-6.29 14.83l2.76 3.39c-2.53 6.1-4.63 12.39-7.54 18.33-3.37 6.91-5.63 14.26-8.29 21.44-5.73 13.08-9.77 26.8-13.96 40.42-.67-3.71-.27-7.45-.08-11.18.4-2.17-2.24-1.89-3.63-2.27-3.84-.54-7.38 1.47-11.12 1.91-5.28.6-10.6.23-15.89.31-6.99.09-13.9-1.56-20.9-.96.13 1.31.26 2.62.4 3.93l-1.41.93c-.47-2.06-.92-4.13-1.24-6.22.45-2.34.68-4.72.56-7.09-.63-9.1 3.41-17.88 2.08-27 .22-3.59 1.6-6.92 2.75-10.27.8-3.56.41-7.29 1.33-10.84 1.87-7.47 2.34-15.18 2.82-22.84 2.71.97 5.32 2.24 8.11 2.97.53-3.02-2.77-4.7-4.51-6.62-.98-2.34-2.61-4.31-4.33-6.13-.02-.49-.06-1.46-.09-1.95-.59-.19-1.78-.56-2.38-.75-1.99-3.44-1.48-7.6-.79-11.34.61 1.87 1.34 3.71 2.09 5.53 1.33-2.98 2.44-6.05 3.56-9.11 5.96 1.24 12.09 4.17 18.22 2.21 4.83-.65 9.74-.58 14.6-1.02 3.56-.36 7.6 1.17 10.66-1.31-9.39-1.12-18.87.44-28.26-.8 2.23-.38 4.48-.67 6.73-.38 5.34.68 10.67-.47 16.02-.22m-30.9 27.35c3.73 1.71 7.92 1.63 11.91 2.26 5.38.43 10.61 2.1 16.03 2.17-.99-.75-1.89-1.74-3.13-2.03-7.21-1.72-14.54-2.84-21.92-3.53-1.11-.21-1.96.7-2.89 1.13m42.01 7.02c-5.61 2.78-11.83 3.68-17.76 5.46-5.98 2.06-12.65 1.87-18.58-.28-1.56-.4-2.41 2.15-.98 2.85 4.61 3.23 10.43 2.77 15.78 2.89l-.36 3.05c8.77 1.64 17.43-1.53 25.51-4.57.11-.63.34-1.89.45-2.51-3.51.63-6.77 2.13-10.24 2.87 3.97-3.49 8.62-6.08 13.13-8.79 2.05-1.3 4.68-1.95 6.09-4.05l-1.12-1.24c-4.37-.14-7.93 2.97-11.92 4.32z"/><path d="M225.23 262.14c1.63.1 3.49.04 4.47 1.61-.93.45-1.87.9-2.8 1.36.15 3.43-.05 7.18 1.97 10.16 1.58 1.97 3.96 3.04 6.04 4.39 1.24-.63 2.5-1.23 3.72-1.9.12-.27.38-.8.5-1.07l.32-.71.12 4.31c-3.25 2.69-8.62 3.16-11.47-.37-4.01-5.03-2.68-11.83-2.87-17.78zm-5.27 25.29c3.01.12 5.48-1.71 8.01-3.04l.92.04c-.17.65-.51 1.95-.67 2.6.48.6.96 1.22 1.44 1.83-6.71 1.04-13.18 3.08-19.49 5.54-.26-.53-.51-1.06-.76-1.58.1-.41.29-1.23.39-1.64 3.25-1.55 6.41-3.8 10.16-3.75z" fill="#f7d2bb"/><path fill="#f8d5bc" d="M152.93 263.29c3.27.14 6.17 1.84 9.27 2.69 2.98.53 6.04.48 9.05.37 9.39 1.24 18.87-.32 28.26.8-3.06 2.48-7.1.95-10.66 1.31-4.86.44-9.77.37-14.6 1.02-6.13 1.96-12.26-.97-18.22-2.21-1.03-1.34-2.06-2.66-3.1-3.98z"/><path fill="#e2bfa1" d="M152.93 263.29c1.04 1.32 2.07 2.64 3.1 3.98-1.12 3.06-2.23 6.13-3.56 9.11-.75-1.82-1.48-3.66-2.09-5.53.37-2.65 1.35-5.17 2.55-7.56z"/><path fill="#e2bfa0" d="M226.9 265.11c.93-.46 1.87-.91 2.8-1.36 1.75 5.32 7.56 7.79 9.43 12.94-.12.27-.38.8-.5 1.07-1.22.67-2.48 1.27-3.72 1.9-2.08-1.35-4.46-2.42-6.04-4.39-2.02-2.98-1.82-6.73-1.97-10.16z"/><path fill="#8c4d41" d="M244.89 278.3c1.42.11 2.84.22 4.26.34 1.93 7.31 4.34 14.68 9.08 20.71.12 2.39.52 4.76 1.47 6.97 4.63 12.06 9.67 24.54 8.91 37.71-.25 2.28.7 5.47-1.9 6.68-9.79 5.9-19.24 12.49-29.72 17.15-2.28 1.04-4.94 2.31-5.4 5.09.37 4.73 2.23 9.17 3.6 13.68l.37 1.53c-11.34 2.35-23.01 3.81-34.6 3.18 1.3-7.37 4.02-14.35 6.14-21.49 3.89-12.63 9.31-24.69 13.44-37.23 1.5-4.86 4.67-8.96 6.4-13.72 1.82-4.86 3.06-9.94 5.24-14.66 1.99-3.67 4.97-6.78 6.37-10.78 1.9-5.15 4.94-9.83 6.34-15.16z"/><path fill="#e8c3a1" d="M232.02 287.85c1.65-.83 3.31-1.64 4.98-2.43-2.37 7.08-6.42 13.46-8.51 20.65l-2.76-3.39c1.8-5.07 4.52-9.75 6.29-14.83z"/><path fill="#e2bfa6" d="M150.78 288.27c2.41.88 4.82 1.76 7.19 2.75 1.74 1.92 5.04 3.6 4.51 6.62-2.79-.73-5.4-2-8.11-2.97-.48 7.66-.95 15.37-2.82 22.84-.92 3.55-.53 7.28-1.33 10.84-1.15 3.35-2.53 6.68-2.75 10.27-.49 4.06-1.49 8.05-2.96 11.87 1.04-6.82 2.62-13.58 2.86-20.5.15-10.42 3.02-20.59 3.11-31.02-.02-3.57.06-7.14.3-10.7z"/><path fill="#e2be91" d="M205.11 300.12c3.99-1.35 7.55-4.46 11.92-4.32l1.12 1.24c-1.41 2.1-4.04 2.75-6.09 4.05-4.51 2.71-9.16 5.3-13.13 8.79 3.47-.74 6.73-2.24 10.24-2.87-.11.62-.34 1.88-.45 2.51-8.08 3.04-16.74 6.21-25.51 4.57l.36-3.05c-5.35-.12-11.17.34-15.78-2.89-1.43-.7-.58-3.25.98-2.85 5.93 2.15 12.6 2.34 18.58.28 5.93-1.78 12.15-2.68 17.76-5.46z"/><path fill="#482b25" d="M112.12 296.74c3.28 4.24 5.41 9.25 8.95 13.33-2.09.5-4.02-.47-4.79-2.47-1.61-3.51-3.95-6.88-4.16-10.86z"/><path fill="#8c4c3e" d="M122.14 311.26c9.88.95 20.81-3 25.72-12.1.11 17.83-3.83 35.27-6.38 52.82-1.76 9.55-2.59 19.24-4.24 28.82-8.04-2.56-15.83-5.86-23.31-9.77l.37-.5c4.23-5.68 7.68-11.87 11.3-17.94.63-1.2 1.59-2.58.7-3.92-8.53-3.74-16.99-7.91-24.62-13.31 2.82-3.04 5.48-6.23 8.35-9.23 2.25.04 4.41-.63 6.56-1.18 7.82.03 13.34-6.11 19.58-9.89 1.97-.97 2.55-3 2.7-5.04-4.35 1.85-8.97 4.11-13.83 3.17-1.18-.31-3.09-.2-2.9-1.93z"/><path fill="#8e4c41" d="M260.26 301.86c3.67 2.06 7.32 4.18 11.18 5.9 2.86 1.4 5.89 2.4 8.84 3.6 2.24 3.09 6.39 4.67 9.9 2.72 2.83-1.93 5.84-3.56 9.12-4.58 3.53-1 5.83-3.96 8.6-6.14 1.8 1.14 3.36 2.62 4.95 4.04 3.1 2.89 7.07 4.75 11.17 5.72 4.56 1.1 9.25-.04 13.86.42 4.24 2.11 7.87 5.32 12.14 7.44-12.01 14.75-26.45 27.46-42.19 38.11-9.78 6.64-20.28 12.21-31.19 16.75a92.347 92.347 0 0 1-10.03 4.01c-5.33 2.32-10.98 3.74-16.57 5.28-4.11 1.01-8.21 2.41-12.49 2.39.19-5.14-.43-10.3-2.32-15.11 10.94-4.13 20.59-10.83 30.74-16.48 2.2-1.49 5.48-2.86 5.59-5.92.5-9.02.32-18.31-2.64-26.95-2.64-7.17-5.38-14.3-8.66-21.2z"/><path fill="#8c4d3f" d="M67.47 324.77c2.18-1.16 4.46-2.11 6.69-3.16 1.65 1.66 3.12 3.65 5.23 4.77 3.24 1 6.66.17 9.47-1.58 2.75-1.67 6.02-1.77 9.14-2 1.78 1.7 3.91 2.95 5.8 4.52-.47 3.36-5.67 5.33-4.47 9.34 5.35 5.47 13.29 7.09 19.35 11.56 1.43 1.46 3.99 3.58 2.39 5.77-3.07 5.29-6.59 10.34-10.33 15.18-14.11-6.56-26.64-16.13-38.48-26.14-3.9-3.11-7-7.08-10.93-10.14.17-.55.53-1.65.71-2.2 1.61-2.12 3.02-4.6 5.43-5.92z"/><path fill="#f8d8c3" d="M147.47 338.62c1.33 9.12-2.71 17.9-2.08 27 .12 2.37-.11 4.75-.56 7.09-1.01 3.13-2.18 6.2-3.17 9.33-.36-.19-1.08-.58-1.43-.78.37-1.98.78-3.94 1.13-5.92 1.55-7.55 2-15.27 2.81-22.92.08-.48.25-1.45.34-1.93 1.47-3.82 2.47-7.81 2.96-11.87z"/><path fill="#866357" d="M141.36 375.34c.11-7.7.57-15.5 2.81-22.92-.81 7.65-1.26 15.37-2.81 22.92z"/><path fill="#efcca1" d="M183.87 374.72c3.74-.44 7.28-2.45 11.12-1.91 1.39.38 4.03.1 3.63 2.27-.19 3.73-.59 7.47.08 11.18-.33 1.61-.7 3.22-1.06 4.84l-.23 1.04c-.46-.1-1.39-.3-1.86-.4-4.23-1.13-8.63-.97-12.95-.59l-2.81-.56c-1.74-.61-3.62-1.17-5.45-.62l-1.35.27-1.13-.64c-1.04-.72-2.4-1.07-3.6-.57l-1.28.33-1.12-.69c-1-.81-2.31-.93-3.53-.89l-1.41-.1c-.8-.65-1.7-.95-2.71-.9l-.52-.07c-2.62-.75-5.25-1.45-7.91-2.03l-.79-.21c-.86-.57-1.78-.77-2.78-.58-1.62.41-3.22-.08-4.34-1.29l-.21-.56c.99-3.13 2.16-6.2 3.17-9.33.32 2.09.77 4.16 1.24 6.22l1.41-.93c-.14-1.31-.27-2.62-.4-3.93 7-.6 13.91 1.05 20.9.96 5.29-.08 10.61.29 15.89-.31z"/><path fill="#c4b1a7" d="M146.21 383.89c1-.19 1.92.01 2.78.58-1.4 1.29-2.32 1.09-2.78-.58z"/><path fill="#cbbaad" d="M149.78 384.68c2.66.58 5.29 1.28 7.91 2.03-2.71.29-5.37-.32-7.97-.95l.06-1.08z"/><path fill="#c1bbb8" d="M158.21 386.78c1.01-.05 1.91.25 2.71.9-1.52 1.13-2.42.83-2.71-.9z"/><path fill="#c4bfbb" d="M162.33 387.78c1.22-.04 2.53.08 3.53.89-.83 1.24-3.89.9-3.53-.89z"/><path fill="#c1bbb9" d="M168.26 389.03c1.2-.5 2.56-.15 3.6.57-.79 1.1-3.76 1.15-3.6-.57z"/><path fill="#c5b8b2" d="M174.34 389.97c1.83-.55 3.71.01 5.45.62-1.38 1.01-5.01 1.3-5.45-.62z"/><path fill="#c4b5ae" d="M182.6 391.15c4.32-.38 8.72-.54 12.95.59-4.3.41-8.75.67-12.95-.59z"/></svg>