<svg width="400pt" height="400pt" viewBox="0 0 400 400" xmlns="http://www.w3.org/2000/svg"><path fill="#fff" d="M0 0h183.56l-1.18 1-1.48.36c-2.22-.7-4.73-1.1-6.75.35l-1.13.56c-1.61-.38-3.56-1.03-5 .12-.29.2-.88.6-1.17.8-1.36-.73-2.64-.69-3.85.1-.28.2-.83.61-1.1.82-1.37-.58-2.7-.48-4.01.32-.27.1-.81.32-1.09.42l-2.8.44c-.17.1-.52.29-.69.38-3.69.62-7.3 1.61-10.76 3.03-.06.02-.2.04-.26.06-3.06.52-5.98 1.6-8.76 2.94l-.18.07c-10.32 3.09-19.87 8.22-29.37 13.23-2.31 1.18-4.47 2.64-6.49 4.26l-.71.51c-7 4.31-13.75 9.06-20.03 14.37-.18.14-.54.43-.72.58-10.12 8.01-19.26 17.21-27.32 27.29-.16.19-.46.57-.62.76-2.24 2.63-4.32 5.4-6.33 8.21-.15.2-.45.6-.6.81-2.63 3.36-4.84 7.02-7.27 10.53-.18.27-.53.8-.7 1.07-5.51 8.04-9.91 16.88-13.49 25.93-.02.04-.05.11-.06.15-1.63 3.22-2.89 6.61-4.02 10.03-.08.14-.23.4-.31.53-.13.44-.39 1.31-.52 1.74-.09.29-.27.86-.36 1.14-1.1 1.42-1.6 3.16-1.46 4.95-.11.29-.33.89-.44 1.18-1.07 1.71-1.68 3.64-1.67 5.66-.04.18-.12.52-.16.7-.92 2.54-1.57 5.17-1.94 7.86-.02.07-.05.21-.06.27-1.08 3.14-1.61 6.4-1.87 9.7-.09.21-.28.62-.37.83-.9 1.5-.93 3.37-.16 4.92l-.63 1.12c-1.46 2-.88 4.52-.46 6.76-.27.87-.52 1.75-.75 2.64-1 4.58-.35 9.27-.29 13.9-.29 2.73-.32 5.49-.08 8.23-.03 4.29-.54 8.64.4 12.89.24.86.49 1.72.76 2.58-.48 2.23-.99 4.75.46 6.76l.61 1.12c-.61 1.55-.98 3.51.11 4.96.19.3.58.9.77 1.2-.71 1.36-.67 2.65.13 3.87.2.28.61.84.81 1.12-.62 1.32-.55 2.6.23 3.83.1.17.29.51.38.69.41 2.71 1.04 5.38 1.96 7.97.04.17.11.52.15.69.02 2 .54 3.94 1.61 5.64.06.13.18.4.24.53.67 3.09 1.51 6.17 2.96 9.01.02.03.05.1.07.14 2.07 7.03 5.24 13.66 8.47 20.21 2.4 4.71 4.66 9.52 7.77 13.82.06.2.19.61.26.81l.3.26c4.92 8.95 11.27 17.02 17.75 24.89 5.09 5.64 9.74 11.76 15.66 16.58.97.76 1.96 1.49 2.95 2.23 1.65 1.85 4.01 2.83 6.06 4.15 1.06.62 2.08 1.3 3.07 2.04.21.42.63 1.27.84 1.69.95.45 1.91.91 2.86 1.36l2.07 1.43c.22.14.66.43.89.58 1.1.72 2.24 1.42 3.36 2.13 1.19 1.07 2.46 2.04 3.82 2.9 8.6 7.03 18.85 11.66 28.78 16.47 3.57 1.38 7.03 3 10.58 4.42 1.09.36 2.2.67 3.31 1 1.68.48 3.34 1.02 4.98 1.64 6.21 2.4 12.64 4.23 19.18 5.48.62.15 1.87.45 2.49.59 3.08.84 6.24 1.29 9.41 1.68.65.09 1.94.27 2.59.35 2.25.34 4.49.69 6.75.9.64.07 1.9.23 2.53.31 2.12.57 4.28 1.11 6.5 1.09 13.04.13 26.21.6 39.11-1.7 1.13-.26 2.09-.94 3.08-1.5l1.06-.04c1.08-.06 2.16-.11 3.23-.24 1.35-.37 2.7-.75 4.09-.91 7.06-.79 13.82-3.15 20.67-4.92 6.46-1.92 12.72-4.47 18.95-7.01 2.15-1.03 4.8-1.7 5.97-3.99.68-.05 2.02-.13 2.7-.17l.12-.45c2.13-1.03 4.29-1.98 6.43-2.99 5.2-2.67 10.24-5.72 14.85-9.34 1.27-.9 2.64-1.63 4-2.39 1.55-.83 2.78-2.11 3.98-3.37 1.76-.7 3.56-1.35 5.12-2.46 20.49-15.76 37.43-35.92 50.28-58.31 3.74-5.98 6.2-12.62 9.39-18.88.06-.1.16-.3.21-.4 1.8-3.13 3.08-6.52 4.07-9.99.02-.04.06-.13.08-.18 1.38-2.73 2.25-5.66 2.84-8.65l.16-.43c1.87-4.71 3.19-9.64 3.87-14.66.01-.05.04-.15.05-.19 1.06-3.15 1.61-6.43 1.91-9.73.09-.21.27-.61.36-.81.9-1.5.86-3.38.1-4.92l.64-1.13c1.46-1.99.94-4.52.5-6.75.27-.86.52-1.72.76-2.59.87-4.26.38-8.6.32-12.9.34-3.09.32-6.19-.05-9.27.12-4.29.67-8.64-.27-12.88-.25-.88-.51-1.74-.79-2.6.47-2.23 1.03-4.76-.44-6.75l-.64-1.13c.73-1.57.78-3.45-.14-4.95-.09-.22-.29-.64-.39-.85-.24-3.27-.76-6.52-1.85-9.62l-.08-.35c-.62-5.1-2.08-10.05-4.02-14.79l-.08-.67c.05-1.77-.51-3.45-1.54-4.86-.09-.3-.26-.89-.35-1.19-.14-.43-.43-1.28-.58-1.71-.08-.13-.24-.4-.33-.53-3.99-11.98-9.51-23.51-16.28-34.17-.15-.24-.45-.73-.6-.98-7.35-13.34-17.46-24.88-27.61-36.13-14.13-13.6-29.71-25.88-47.13-35-8.46-4.39-17.02-8.76-26.19-11.49l-.42-.25c-1.39-1.14-3.13-1.58-4.9-1.55-.3-.16-.9-.5-1.2-.67-.44-.12-1.31-.37-1.75-.5-.33-.12-.99-.37-1.31-.5-.43-.08-1.29-.25-1.71-.34l-.62-.03c-3.81-1.62-7.82-2.65-11.92-3.12l-.31-.08c-3.09-1.05-6.32-1.55-9.57-1.82-.22-.11-.67-.31-.9-.41-1.5-.92-3.39-.9-4.94-.11l-1.1-.62c-2.01-1.52-4.57-.96-6.78-.33-.37-.1-1.1-.29-1.47-.39l-1.23-1H400v400H0V0z"/><path d="M183.56 0h13.68c-4.96.2-9.91.69-14.86 1l1.18-1zm21.18 0h13.64l1.23 1c-4.96-.31-9.91-.8-14.87-1zm74.05 311.38 2.31 1.39c3.33 5.2 3.15 12.17 7.52 16.73.38 2.37.64 4.76.81 7.16-.29 6.09.41 12.21-.44 18.27-.79 5.9-.89 11.85-1.04 17.78l-.12.45c-.68.04-2.02.12-2.7.17.13-4.11.34-8.22.89-12.3.94-6.65.51-13.38.76-20.07.34-5.41-1.9-10.43-3.2-15.56-1.16-4.83-3.66-9.19-4.79-14.02z" fill="#554137"/><path fill="#fef2ec" d="M197.24 0h7.5c4.96.2 9.91.69 14.87 1 .37.1 1.1.29 1.47.39 2.12 1.04 4.57 1.34 6.78.33l1.1.62c1.43 1.13 3.51 1.38 4.94.11.23.1.68.3.9.41 2.9 1.76 6.24 2.3 9.57 1.82l.31.08c3.49 2.38 7.77 3.04 11.92 3.12l.62.03c.29 1.62.86 1.73 1.71.34.32.13.98.38 1.31.5.37 1.63.95 1.8 1.75.5.3.17.9.51 1.2.67.9 1.98 3.03 2.91 4.9 1.55l.42.25c3.64 3.47 8.87 4.13 13.16 6.5C313.4 32.46 341.1 55.4 361.15 83.8c2.78 3.5 4.5 7.93 8.29 10.54.15.25.45.74.6.98.52 2.21 1.15 4.42 2.32 6.39 3.24 5.84 6.19 11.83 8.9 17.93 1.53 3.36 2.3 7.2 5.06 9.85.09.13.25.4.33.53-1.27.81-1.07 1.38.58 1.71.09.3.26.89.35 1.19-1.35 1.85-.54 4.05 1.54 4.86l.08.67c.13 5.13 1.52 10.3 4.02 14.79l.08.35c-.43 3.34.09 6.71 1.85 9.62.1.21.3.63.39.85-1.32 1.42-.99 3.52.14 4.95l.64 1.13c-.98 2.2-.84 4.7.44 6.75.28.86.54 1.72.79 2.6-1.07 4.25-.77 8.65.27 12.88.37 3.08.39 6.18.05 9.27-1.11 4.22-1.36 8.63-.32 12.9-.24.87-.49 1.73-.76 2.59-1.31 2.03-1.49 4.54-.5 6.75l-.64 1.13c-1.14 1.42-1.42 3.51-.1 4.92-.09.2-.27.6-.36.81-1.79 2.94-2.33 6.33-1.91 9.73-.01.04-.04.14-.05.19-2.3 4.47-4.1 9.59-3.87 14.66l-.16.43c-1.98 2.41-3.39 5.47-2.84 8.65-.02.05-.06.14-.08.18-2.61 2.64-4.07 6.28-4.07 9.99-.05.1-.15.3-.21.4-2.53 3.44-3.13 8.2-6.33 11.06-1.92 2.82-2.47 6.27-4.13 9.22-12.65 21.61-29.15 41.09-48.99 56.42-1.01.62-1.93 1.77-3.24 1.5-3.42-6.46-6.77-12.97-10.56-19.23-.56-3.79 1.92-7.13 1.85-10.9.36-9.57-2.46-18.88-4.81-28.05-2.55-7.34-4.42-14.98-8.18-21.84-4.38-7.48-8.64-15.05-13.31-22.36.33-5.31.36-10.63.26-15.95 2.64 1.8 4.63 4.3 6.78 6.62 3.88 3.08 9.15 2.56 13.75 2.06 2.27-.13 3.46-2.32 4.6-3.98-2.91-.16-6.28 1.6-8.81-.48-4.07-2.88-6.19-8.23-5.28-13.13.9-6.75 1.83-13.52 1.83-20.34 2.6 2.45 4.52 5.88 8.06 7.09 1.97.76 5.06 1.7 6.25-.78-.96-.16-2.89-.49-3.85-.65.94-.82 1.87-1.65 2.82-2.48-1.26-.23-2.52-.44-3.77-.64-7.04-4.89-6.68-14.5-6.67-22.12-.27-8.44 2.53-16.62 1.92-25.05 2.55-2.39 5.24-5.2 5.12-8.97.2-11.73-3.13-23.19-7.16-34.09-2.7-8.71-7.69-16.44-11.53-24.66 2.98-7.98 2.25-16.83.6-25.02-2.88-10.59-9.11-19.96-16.18-28.22-4.87-4.79-9.41-10.59-16.14-12.79.62 1.93 1.9 3.49 3.56 4.61l-.56 1.29c-.18-.29-.55-.86-.74-1.15-2.43-3.3-4.87-6.59-7.22-9.95-2.34-3.37-5.73-5.74-8.68-8.53-5.07-4.9-12.32-7.12-19.28-7.06-7.63-.21-15.07 2.01-22.16 4.62-5.5 1.94-10.42 5.2-14.81 8.98-1.16.9-2 2.14-2.39 3.57.05.39.17 1.18.22 1.57-2.59 1.91-4.97 4.08-7.24 6.35-3.22 3.26-7.57 5.04-10.87 8.21-5.02 4.65-9.44 10.01-12.85 15.96-2.07 3.49-2.47 7.61-2.41 11.58C140 69.6 130.89 78.03 124.5 87.45c-3.19 3.53-4.16 8.33-7 12.07-2.88 4.16-5.48 8.57-6.91 13.46-1.29 4.47-3.41 8.62-5.8 12.6-3.6 5.53-6.33 11.81-6.85 18.44-.71 5.53-.24 11.17-1.56 16.62-4.03-6.07-2.66-13.68-.77-20.24 1.64-6.57 4.72-12.7 8.53-18.27 1.34-2.09 3.1-4.12 3.29-6.7-4.5 4.03-7.32 9.52-10.23 14.72-3.36 7.48-6.15 15.58-5.68 23.89-.03 3.66 2.36 6.65 4.29 9.54 2.01 1.52 4.4 2.38 6.78 3.17-1.98 4.66-4.58 9.22-5.05 14.35-.17 2.16 1.2 4.13 1.05 6.28-2.95 14.25-8.17 28.03-9.6 42.58-.69 7.04.13 14.13-.64 21.16-3.33 9.09-6.69 18.3-7.75 27.98-.5 4.27-.32 8.65-1.49 12.83-1.23 2.54-2.43 5.14-3.06 7.91-.8 5.11-1.3 10.27-2.93 15.22-2.05 9.83-4.14 20.37-.65 30.13-1.19-.6-2.38-1.19-3.57-1.76-.99-.74-1.98-1.47-2.95-2.23l1.67.15c-1.2-1.44-2.43-2.84-3.75-4.16-9.12-8.7-17.11-18.54-24.34-28.85-2.18-2.98-3.65-6.68-6.99-8.61l-.3-.26c-.07-.2-.2-.61-.26-.81-.81-4.7-3.77-8.55-5.77-12.76-2.66-5.44-5.45-10.83-7.48-16.54-.57-1.82-1.65-3.4-2.99-4.73-.02-.04-.05-.11-.07-.14.56-3.32-.99-6.45-2.96-9.01-.06-.13-.18-.4-.24-.53 1.4-2.07.56-4.55-1.61-5.64-.04-.17-.11-.52-.15-.69.42-2.86-.21-5.66-1.96-7.97-.09-.18-.28-.52-.38-.69 1.62-.85.88-2.9-.23-3.83-.2-.28-.61-.84-.81-1.12 1.63-.8.82-2.86-.13-3.87-.19-.3-.58-.9-.77-1.2 1.31-1.43.97-3.52-.11-4.96l-.61-1.12c1.01-2.21.8-4.71-.46-6.76-.27-.86-.52-1.72-.76-2.58 1.02-4.27.7-8.68-.4-12.89-.24-2.74-.21-5.5.08-8.23.98-4.57 1.47-9.32.29-13.9.23-.89.48-1.77.75-2.64 1.3-2.04 1.47-4.56.46-6.76l.63-1.12c1.14-1.41 1.46-3.49.16-4.92.09-.21.28-.62.37-.83 1.73-2.95 2.35-6.32 1.87-9.7.01-.06.04-.2.06-.27 1.73-2.29 2.36-5.04 1.94-7.86.04-.18.12-.52.16-.7 2.3-1.01 2.85-3.55 1.67-5.66.11-.29.33-.89.44-1.18 1.91-.98 2.83-3.1 1.46-4.95.09-.28.27-.85.36-1.14 1.64-.39 1.81-.97.52-1.74.08-.13.23-.39.31-.53 2.6-2.65 4.23-6.28 4.02-10.03.01-.04.04-.11.06-.15 3.5-3.09 4.54-7.83 6.79-11.75 2.17-4.76 5.59-8.98 6.7-14.18.17-.27.52-.8.7-1.07l.41.32c2.36-3.58 4.74-7.13 6.86-10.85.15-.21.45-.61.6-.81 2.47-2.45 4.55-5.24 6.33-8.21.16-.19.46-.57.62-.76 4.68-4.45 8.55-9.66 13.23-14.13 4.45-4.65 9.63-8.53 14.09-13.16.18-.15.54-.44.72-.58 6.5-4.59 12.98-9.23 19.44-13.87l.59-.5.71-.51c1.65-.54 3.35-.97 4.89-1.81 8.71-4.85 17.6-9.46 26.93-13.01 1.56-.53 2.81-1.62 4.04-2.67l.18-.07c3.18.24 6.47-.62 8.76-2.94.06-.02.2-.04.26-.06 3.83.24 7.64-.77 10.76-3.03.17-.09.52-.28.69-.38.34 1.74 2.55.91 2.8-.44.28-.1.82-.32 1.09-.42 1.17 1.25 3.03 1.05 4.01-.32.27-.21.82-.62 1.1-.82.82 1.57 2.86.94 3.85-.1.29-.2.88-.6 1.17-.8 1.42 1.43 3.53.96 5-.12l1.13-.56c2.19 1.01 4.64.72 6.75-.35l1.48-.36c4.95-.31 9.9-.8 14.86-1z"/><path d="M174.15 1.71c2.02-1.45 4.53-1.05 6.75-.35-2.11 1.07-4.56 1.36-6.75.35zm46.93-.32c2.21-.63 4.77-1.19 6.78.33-2.21 1.01-4.66.71-6.78-.33zM5.21 176.86c-.42-2.24-1-4.76.46-6.76 1.01 2.2.84 4.72-.46 6.76zm391.11-6.72c1.47 1.99.91 4.52.44 6.75-1.28-2.05-1.42-4.55-.44-6.75zM5.25 217.1c1.26 2.05 1.47 4.55.46 6.76-1.45-2.01-.94-4.53-.46-6.76zm391.04 6.78c-.99-2.21-.81-4.72.5-6.75.44 2.23.96 4.76-.5 6.75z" fill="#d4d1ce"/><path d="M168.02 2.39c1.44-1.15 3.39-.5 5-.12-1.47 1.08-3.58 1.55-5 .12zm60.94-.05c1.55-.79 3.44-.81 4.94.11-1.43 1.27-3.51 1.02-4.94-.11zM6.46 164.06c1.3 1.43.98 3.51-.16 4.92-.77-1.55-.74-3.42.16-4.92zm389.22 4.95c-1.13-1.43-1.46-3.53-.14-4.95.92 1.5.87 3.38.14 4.95zM6.32 224.98c1.08 1.44 1.42 3.53.11 4.96-1.09-1.45-.72-3.41-.11-4.96zm389.23 4.95c-1.32-1.41-1.04-3.5.1-4.92.76 1.54.8 3.42-.1 4.92z" fill="#d2cecb"/><path d="M163 3.29c1.21-.79 2.49-.83 3.85-.1-.99 1.04-3.03 1.67-3.85.1zm-5.11 1.14c1.31-.8 2.64-.9 4.01-.32-.98 1.37-2.84 1.57-4.01.32zM7.2 231.14c.95 1.01 1.76 3.07.13 3.87-.8-1.22-.84-2.51-.13-3.87zm.94 4.99c1.11.93 1.85 2.98.23 3.83-.78-1.23-.85-2.51-.23-3.83z" fill="#d2cdcb"/><path d="M234.8 2.86c3.25.27 6.48.77 9.57 1.82-3.33.48-6.67-.06-9.57-1.82zM12.53 139.04c1.18 2.11.63 4.65-1.67 5.66-.01-2.02.6-3.95 1.67-5.66zm-1.83 6.36c.42 2.82-.21 5.57-1.94 7.86.37-2.69 1.02-5.32 1.94-7.86zm-2 8.13c.48 3.38-.14 6.75-1.87 9.7.26-3.3.79-6.56 1.87-9.7zm386.45 9.68c-1.76-2.91-2.28-6.28-1.85-9.62 1.09 3.1 1.61 6.35 1.85 9.62zm-1.87 77.26c-.42-3.4.12-6.79 1.91-9.73-.3 3.3-.85 6.58-1.91 9.73zm-384.53.18c1.75 2.31 2.38 5.11 1.96 7.97-.92-2.59-1.55-5.26-1.96-7.97z" fill="#d8d3d0"/><path fill="#cfcac8" d="m154 5.29 2.8-.44c-.25 1.35-2.46 2.18-2.8.44z"/><path d="M244.68 4.76c4.1.47 8.11 1.5 11.92 3.12-4.15-.08-8.43-.74-11.92-3.12zM142.55 8.7c3.46-1.42 7.07-2.41 10.76-3.03-3.12 2.26-6.93 3.27-10.76 3.03zm246.81 246.62c-.23-5.07 1.57-10.19 3.87-14.66-.68 5.02-2 9.95-3.87 14.66z" fill="#dad5d3"/><g fill="#928278"><path d="M201.82 11.04c7.09-2.61 14.53-4.83 22.16-4.62 6.96-.06 14.21 2.16 19.28 7.06-1.9.45-3.81.9-5.67 1.52 3.32 1.38 7.25 1.73 9.82 4.5 6.27 6.67 10.35 15.06 16.42 21.87l.48-1.27c1.88 4.47 3.96 8.85 6.58 12.94-.02-.63-.05-1.89-.06-2.52 2.94 7.5 3.66 15.67 5.49 23.49 2.35 9.84 3.8 19.89 4.15 30.01 1.5 13.67 7.39 26.28 12.59 38.85 2.95 7.1 2.91 14.9 3.63 22.42-1.42 2.05-3.68 2.65-6.06 2.46-2.44-8.06-.89-16.5-1.35-24.73l-1.26-.35c-1.4 4.99-.76 10.24-.92 15.35-.31 10.15 1.9 20.13 3.93 30.01.83 4.45 3.3 8.44 3.84 12.95.58 4.24-1.87 7.98-2.63 12.02-1.5 6.17-.59 12.53-.76 18.8-.25 1.81-.6 3.61-.93 5.41-2.16-3.61-4.09-7.49-4.82-11.67-.01-3.17.43-6.34.04-9.51-.64-5.76.31-11.64-1.2-17.3-4.25 10.95-4.45 22.93-2.85 34.43-1.33-1.87-2.91-3.78-3.03-6.17-.63-8.65.86-17.29 2.66-25.72.72-3.75 2.59-7.4 1.91-11.3-4.26 5.47-3.85 12.89-5.95 19.25-1.57-13.16-1.91-26.87-7.67-39.09 1.35-1.28 4.19-1.85 3.95-4.14-.01-8.04 1.82-16 1.11-24.05-.49-5.99-.24-12.09-1.59-17.98-.37-2.07-1.84-3.63-3.08-5.22-1.34-8.04-4.99-15.52-9.75-22.07-2.04-2.77-3.75-5.89-3.74-9.43-2.21-1.78-4.49-3.48-6.75-5.19 3.42-.35 6.89-.34 10.26-1.12 2.28-.56 3.49-2.8 4.98-4.41l.6-.72c.41-4.63-4.57-6.9-7.3-9.81 3.31-2.73 7.05-4.83 10.57-7.25.26-4-3.48-6.81-7.01-7.6-3.29-.65-6.54-1.44-9.78-2.3-.47.15-1.42.45-1.89.59-2.74-.41-5.48-.97-8.26-.87-1.77-.02-3.53-.06-5.3-.08-.33-.51-1-1.54-1.33-2.06-4.39-1.12-8.92-1.09-13.41-.97-2.45.13-4.49-1.45-6.82-1.9-2.22-.34-4.47-.3-6.7-.38 2.48-7.94 8.18-14.2 11.83-21.5-3.3 1.5-5.13 4.73-6.95 7.68-2.75 4.68-6.18 9.21-6.84 14.77-1.49-.52-2.98-1.05-4.47-1.55.14.34.43 1.01.58 1.35-3.09-1.54-8.03-1.53-8.93-5.58-1.18-5.8.68-11.87 3.91-16.71 1.99-3.31 5.32-5.41 7.93-8.16-5.76.92-9.52 6.13-11.86 11.07-2.7 5.3-2.91 11.65-.72 17.17-1.27-.04-2.53-.09-3.79-.15-1.62-5.37-1.43-11.39.95-16.5 1.02-2.55 4.89-3.1 4.78-6.17-3.66 1.53-6.86 3.87-9.98 6.27-.05-.39-.17-1.18-.22-1.57 5.09-2.29 8.85-6.74 14.02-8.94 7.82-4.12 16.93-3.18 25.45-3.13-1-.63-1.97-1.3-3.05-1.78-6.42-.84-12.92-.03-19.22 1.3m4.96 15.03c.05-1.38.07-2.75.04-4.13-3.1-1.66-3.49 5.07-.04 4.13m16.04 4.32c1.72-1.33 3.6-2.63 4.63-4.62-2.46-1.56-6.11 2.04-4.63 4.62m4.12 3.52c2.61.44 5.32-1.5 5.39-4.23-2.22.79-4.31 2.05-5.39 4.23z"/><path d="M158.28 53.36c1.63-2.64 3.57-5.07 5.57-7.44-1.84 5.61-4.18 13.08 1.2 17.53 1.3 1.32 2.56 2.68 4.01 3.84 2.49.41 5.03.14 7.54 0 3.2-.18 6.36-.79 9.44-1.67 3.31 3.15 7.74 4.75 12.1 5.81 2.46.62 4.97.08 7.13-1.16 1.25.04 2.51.1 3.77.16 4.8 5.37 7.31 12.43 7.22 19.62-.17 4.06-2.13 7.72-3.84 11.3-1.89 3.61-3.96 7.49-7.56 9.64-1.42-.05-2.75-.62-4.1-.99 1.08 6.59 1.09 13.27 1.76 19.9.46 9.04 2.47 17.92 4.9 26.61.41 2 1.83 3.4 3.81 3.91.03-.65.1-1.96.13-2.61.31.43.93 1.3 1.24 1.73 4.91-.39 9.91-.32 14.68 1.03-4.74.2-9.57.04-14.21 1.17-3.7.88-7.4 1.9-11.22 2.07.59-.5 1.78-1.5 2.37-1.99-.05-.37-.15-1.1-.19-1.47 1.17.83 2.49 1.19 3.85.51-1.64-4.45-3.92-8.66-5.22-13.24-2.8-8.25-3.37-17.01-3.27-25.66.23-5.14-2.3-9.82-4.82-14.13 3.21-8.04 6.99-16.12 7.56-24.89.02-1.07-.5-1.82-1.56-2.24-.86 8.93-4.24 17.25-7.55 25.49-2.6-.4-5.38-1.19-7.91-.01-3.78 1.24-5.72 4.93-8.42 7.54-2.67.02-3.81-3.04-5.45-4.67-2.49.86-1.6 3.04-.92 4.95-2.07 2.92-3.19 6.34-4.76 9.51-6.93 11.77-10.18 27.04-4.51 39.94-4.29-2.02-5.43-7.21-5.59-11.51-.12-7.45.46-15.11 3.35-22.06 1.42-3.59 3.99-6.54 5.8-9.93-.7.21-2.1.62-2.8.83-.16.05-.48.14-.64.19l-2.15-.37c-1.96 1.82-3.4 4.31-5.92 5.44-4.57 2.2-8.78 5.21-12 9.15-1.87-.64-4.28 1.47-2.34 3.05-7.91 8.03-14.77 17.1-20.59 26.73 1.82-5.91 5.13-11.16 8.52-16.27 2.17-3.33 5.53-5.64 7.71-8.95-1.41.36-2.96.58-4.05 1.63-5.26 4.5-8.29 10.87-11.92 16.62-.2-.24-.6-.73-.8-.97.92-3.15 3.01-5.8 4.06-8.91-2.35 1.23-4.06 3.27-5.93 5.09 3-6.86 9.04-11.74 13.62-17.52 1.36-.25 2.89-.25 3.96-1.26 2.66-1.9 2.8-5.75 5.63-7.5 5.14-3.85 10.02-8.14 15.67-11.25 2.5-1.55 6.3-1.01 7.89-3.82-6.37-1.18-11.8 2.7-16.72 6.1 2.06-8.94 6.96-17.16 12.94-24.05.1 1.39-1.48 3.74.3 4.46 2.72-3.7 4.54-8.04 7.51-11.61-.6.06-1.8.17-2.39.23 5.89-6.53 13.47-11.11 21.1-15.29-1.97-.96-3.88.04-5.68.82-4.53 2.23-10 .96-14.39 3.62-14.75 6.66-24.14 21.21-28.89 36.18-.68 2.86-1.35 6.87 1.7 8.62-.81-7.93 2.59-15.29 6.77-21.78.91.27 1.82.55 2.73.82.79-3.02 1.83-6.1 4.09-8.37 1.21-1.64 3.53-2.97 3-5.33 5.09-4.93 11.47-8.83 18.49-10.21-9.15 6.85-16.74 15.64-22.64 25.4-3.15 5.73-6.5 11.6-7.08 18.25-8.62 6.46-16.71 13.68-23.56 22.02-5.02 5.97-8.85 12.83-13.91 18.76.11-4.49.33-8.98.54-13.46 1.37 1.57 2.82 3.18 4.92 3.76-2.08-3.28-4.05-6.72-3.88-10.75-1.35-6.15.41-12.46 3.29-17.91.41 3.14.11 6.53 1.66 9.4 1.87 3.47 4.66 7.08 8.91 7.45-2.05-3.32-5.96-5.3-7.05-9.24-2.32-7.22 1.01-14.75 4.28-21.11 8.24-11.61 20.22-20.47 33.48-25.55 1.72-.65 3.49-1.44 4.35-3.19-9.03 1.85-17.06 6.79-24.64 11.84 3.16-4.23 7.77-6.89 11.91-10.04 7.4-5.73 16.07-9.44 24.34-13.73-1.35-.81-2.69-1.63-4.04-2.45-1.3.21-2.61.41-3.92.61-1.44.16-2.87.31-4.31.45-.24-4.57 1.21-8.92 2.54-13.22m14.91 51.93 1.83.28c2.56-2.73 5.8-4.75 8.27-7.57-4.4.31-7.66 3.94-10.1 7.29z"/><path d="M226.36 69.21c.78 1.68 1.94 3.14 3.44 4.24-.21.14-.64.43-.85.58-.87.17-2.61.5-3.48.67 2.2 1.78 5.34 1.48 7.55 3.23 5.95 4.52 8.87 12.04 9.57 19.28-1.38 1.96-1.32 4.42-1.76 6.68-.4 2.59-1.28 5.14-1.06 7.8-2.29 6.31-7.71 10.69-13.41 13.85-4.81 2.38-10.47 1.34-15-1.19.7 1.96.84 4.31 2.46 5.81 5.95 6.31 13.87 10.11 20.47 15.63-5.6-.14-12.39-.03-16.24-4.85-3.63-4.4-7.58-8.76-9.97-13.98-.91-1.53.01-4.83-2.36-4.8-.22.71-.65 2.13-.86 2.84.77 3.95 3.46 7.16 5.23 10.71 1.83 3.68 5.02 6.35 7.76 9.32-4.3-1.63-7.31-5.17-10.29-8.5.03-.78.06-1.55.1-2.32-5.33-5.49-2.37-13.56-4.15-20.26 3.47-1.39 6.55-3.72 8.4-7.02 2.86-4.96 6.37-9.96 6.79-15.85.7-7.34-2.17-14.57-6.42-20.44 3.5-1.89 7.47.43 11.21-.46.99 1.19 3 .76 2.87-.97m5.79 26.58c-.31 3.96-.99 7.91-2.94 11.42.67.16 1.99.47 2.65.63 1.87-3.76 3.02-7.96 2.22-12.18-.49.04-1.45.1-1.93.13z"/></g><path fill="#cbc8c7" d="M257.22 7.91c.42.09 1.28.26 1.71.34-.85 1.39-1.42 1.28-1.71-.34z"/><path d="M133.53 11.7c2.78-1.34 5.7-2.42 8.76-2.94-2.29 2.32-5.58 3.18-8.76 2.94zM12.71 255.48c1.97 2.56 3.52 5.69 2.96 9.01-1.45-2.84-2.29-5.92-2.96-9.01zm373.65 8.92c-.55-3.18.86-6.24 2.84-8.65-.59 2.99-1.46 5.92-2.84 8.65z" fill="#d9d5d2"/><path fill="#ccc8c6" d="M260.24 8.75c.44.13 1.31.38 1.75.5-.8 1.3-1.38 1.13-1.75-.5z"/><path d="M201.82 11.04c6.3-1.33 12.8-2.14 19.22-1.3 1.08.48 2.05 1.15 3.05 1.78-8.52-.05-17.63-.99-25.45 3.13-5.17 2.2-8.93 6.65-14.02 8.94a6.757 6.757 0 0 1 2.39-3.57c4.39-3.78 9.31-7.04 14.81-8.98zM237.59 15c1.86-.62 3.77-1.07 5.67-1.52 2.95 2.79 6.34 5.16 8.68 8.53 2.35 3.36 4.79 6.65 7.22 9.95.19.29.56.86.74 1.15.15.24.45.73.6.97 1.23 2.03 2.68 3.93 3.81 6.02l-.48 1.27c-6.07-6.81-10.15-15.2-16.42-21.87-2.57-2.77-6.5-3.12-9.82-4.5zm-64.4 90.29c2.44-3.35 5.7-6.98 10.1-7.29-2.47 2.82-5.71 4.84-8.27 7.57l-1.83-.28zm36.67 81.31c6.63-1.78 13.86-.7 19.72 2.85 2.01 1.65 4.6 3.59 4.28 6.53l-1.04.54c-6.41-7.42-17.3-8.77-26.3-6.06-2.19-2.57 1.34-3.61 3.34-3.86z" fill="#41291f"/><path fill="#d6d2cf" d="M263.19 9.92c1.77-.03 3.51.41 4.9 1.55-1.87 1.36-4 .43-4.9-1.55z"/><path d="M103.98 25c9.5-5.01 19.05-10.14 29.37-13.23-1.23 1.05-2.48 2.14-4.04 2.67-9.33 3.55-18.22 8.16-26.93 13.01-1.54.84-3.24 1.27-4.89 1.81 2.02-1.62 4.18-3.08 6.49-4.26zm164.53-13.28c9.17 2.73 17.73 7.1 26.19 11.49 17.42 9.12 33 21.4 47.13 35 10.15 11.25 20.26 22.79 27.61 36.13-3.79-2.61-5.51-7.04-8.29-10.54-20.05-28.4-47.75-51.34-79.48-65.58-4.29-2.37-9.52-3.03-13.16-6.5zM19.7 119.32c3.58-9.05 7.98-17.89 13.49-25.93-1.11 5.2-4.53 9.42-6.7 14.18-2.25 3.92-3.29 8.66-6.79 11.75zm350.34-24c6.77 10.66 12.29 22.19 16.28 34.17-2.76-2.65-3.53-6.49-5.06-9.85-2.71-6.1-5.66-12.09-8.9-17.93-1.17-1.97-1.8-4.18-2.32-6.39zM15.74 264.63c1.34 1.33 2.42 2.91 2.99 4.73 2.03 5.71 4.82 11.1 7.48 16.54 2 4.21 4.96 8.06 5.77 12.76-3.11-4.3-5.37-9.11-7.77-13.82-3.23-6.55-6.4-13.18-8.47-20.21z" fill="#ddd7d4"/><path d="M193.6 24.54c2.34-4.94 6.1-10.15 11.86-11.07-2.61 2.75-5.94 4.85-7.93 8.16-3.23 4.84-5.09 10.91-3.91 16.71.9 4.05 5.84 4.04 8.93 5.58 1.19.41 2.39.81 3.61 1.18-1.43 2.32-4.05.34-5.95-.09-4.37-1.92-9.21-1.23-13.83-1.29.27-.57.82-1.72 1.09-2.29l1.62.13c1.26.06 2.52.11 3.79.15-2.19-5.52-1.98-11.87.72-17.17zM97.2 130.15c2.91-5.2 5.73-10.69 10.23-14.72-.19 2.58-1.95 4.61-3.29 6.7-3.81 5.57-6.89 11.7-8.53 18.27-1.89 6.56-3.26 14.17.77 20.24.2.39.61 1.16.81 1.55-.35.35-1.03 1.04-1.38 1.39-1.93-2.89-4.32-5.88-4.29-9.54-.47-8.31 2.32-16.41 5.68-23.89zm83.5 113.41c1.93-.05 3.86-.08 5.79-.1 3.66 2.63 4.62 7.23 4.38 11.5-.24 1.63.53 3.92-1 5.07-2.92 2.39-6.85 1.82-10.09.47-.33-1.02-.67-2.03-1.02-3.04-2.5-.98-3.01-3.88-2.91-6.25.73-3.02 2.79-5.44 4.85-7.65m-2.11 5.97c-.07 2.53-.05 5.07.18 7.6 2.03 1.03 4.17 1.8 6.36 2.41 5.34-3.04 3.91-11.52-1.14-14.18-2.05 1.03-3.86 2.46-5.4 4.17zm-88.64 18.65c1.15-3.14-.29-6.9 1.75-9.68 2.38 11.02-2.98 21.61-8.58 30.73.12-1.76.23-3.52.49-5.26 2.6-5.04 5.19-10.18 6.34-15.79z" fill="#3d2316"/><path fill="#463228" d="M184.84 25.16c3.12-2.4 6.32-4.74 9.98-6.27.11 3.07-3.76 3.62-4.78 6.17-2.38 5.11-2.57 11.13-.95 16.5l-1.62-.13c-2.8-4.78-1.21-10.34-.6-15.45-3.24 3.34-6 7.33-10.25 9.48-8.41 4.68-15.35 14.72-12.32 24.59l.56-2.6c1.43 1.84.84 4 .19 6-5.38-4.45-3.04-11.92-1.2-17.53-2 2.37-3.94 4.8-5.57 7.44-2.9 3.92-4.6 8.62-4.51 13.53 2.1-.22 4.2-.45 6.28-.76 1.31-.2 2.62-.4 3.92-.61 1.35.82 2.69 1.64 4.04 2.45-8.27 4.29-16.94 8-24.34 13.73-4.14 3.15-8.75 5.81-11.91 10.04 7.58-5.05 15.61-9.99 24.64-11.84-.86 1.75-2.63 2.54-4.35 3.19-13.26 5.08-25.24 13.94-33.48 25.55-3.27 6.36-6.6 13.89-4.28 21.11 1.09 3.94 5 5.92 7.05 9.24-4.25-.37-7.04-3.98-8.91-7.45-1.55-2.87-1.25-6.26-1.66-9.4-2.88 5.45-4.64 11.76-3.29 17.91-.17 4.03 1.8 7.47 3.88 10.75-2.1-.58-3.55-2.19-4.92-3.76-.21 4.48-.43 8.97-.54 13.46 5.06-5.93 8.89-12.79 13.91-18.76 6.85-8.34 14.94-15.56 23.56-22.02.58-6.65 3.93-12.52 7.08-18.25 5.9-9.76 13.49-18.55 22.64-25.4-7.02 1.38-13.4 5.28-18.49 10.21-4.03 3.67-7.1 8.19-9.82 12.88-4.18 6.49-7.58 13.85-6.77 21.78-3.05-1.75-2.38-5.76-1.7-8.62 4.75-14.97 14.14-29.52 28.89-36.18 4.39-2.66 9.86-1.39 14.39-3.62 1.8-.78 3.71-1.78 5.68-.82-7.63 4.18-15.21 8.76-21.1 15.29-2 2.15-3.65 4.58-5.42 6.92-5.98 6.89-10.88 15.11-12.94 24.05 4.92-3.4 10.35-7.28 16.72-6.1-1.59 2.81-5.39 2.27-7.89 3.82-5.65 3.11-10.53 7.4-15.67 11.25-2.83 1.75-2.97 5.6-5.63 7.5-1.07 1.01-2.6 1.01-3.96 1.26-4.58 5.78-10.62 10.66-13.62 17.52 1.87-1.82 3.58-3.86 5.93-5.09-1.05 3.11-3.14 5.76-4.06 8.91.2.24.6.73.8.97 3.63-5.75 6.66-12.12 11.92-16.62 1.09-1.05 2.64-1.27 4.05-1.63-2.18 3.31-5.54 5.62-7.71 8.95-3.39 5.11-6.7 10.36-8.52 16.27 5.82-9.63 12.68-18.7 20.59-26.73.96-.87 1.65-1.97 2.34-3.05 3.22-3.94 7.43-6.95 12-9.15 2.52-1.13 3.96-3.62 5.92-5.44l2.15.37c-5.79 7.2-10.83 15.01-14.97 23.28-2.44 4.7-3.53 10.03-2.76 15.31v1.66c-1.36-.7-2.26-1.77-2.7-3.21-.76-11.29 6.62-20.6 12.2-29.69-8.33 4.65-14.06 12.45-19.91 19.74-2.7 4.55-7.32 7.6-9.64 12.4-1.89 3.83-4.09 7.53-5.58 11.54.13.73.39 2.18.53 2.91.25 1.34.46 2.69.67 4.04 1.18-.5 2.37-1 3.56-1.49-1.21 2.72-3.31 5.44-2.71 8.59 1.21 7.98 2.24 15.99 3.21 24 .27 3.98 2.71 7.3 5.08 10.33 7.41 7.97 20.22 9.5 29.7 4.45 5.66-2.24 10.78-6.27 13.21-11.98 3.11-7.64 4.17-16.26 2.03-24.3.98.91 1.93 1.86 2.89 2.81 3.27-2.56 7.51-3.04 11.44-1.87 1.35-2.72 2.85-6.92 6.68-6.18-5.86 5.21-5.1 13.71-4.49 20.76 1.58 6.94 3.95 14.08 8.89 19.4 2.89 2.88 6.59 5.12 10.73 5.55 3.99.3 8.13.1 11.87-1.45 0-.35-.01-1.06-.01-1.41l-.6-1.67 1.53.28c.22.33.66 1.01.89 1.35l.54.58c5.67-1.84 10.43-5.72 13.85-10.55 3.67-4.67 5.83-10.28 7.46-15.93l2.29.12c-1.47 5.58-3.33 11.16-6.69 15.92a52.896 52.896 0 0 1-6.38 7.71c-1.19.9-2.42 1.76-3.7 2.54-2.42 1.42-5.02 2.5-7.64 3.51-.11.3-.34.92-.46 1.22-4.19-.03-8.36.57-12.55.55-6.03-.18-10.98-4.38-14.83-8.63-6.51-8.98-9.85-20.71-7.54-31.7-3.77-1.73-7.77-.29-10.98 1.9.6 7.59.01 15.51-3.24 22.5-3.07 5.97-8.88 9.97-14.93 12.52-1.46.57-2.92 1.1-4.4 1.58-5.83 1.56-12.03.89-17.72-.92-4.69-1.58-8.3-5.06-11.39-8.79.46 3.25.74 6.56 1.58 9.75 1.69 6.16 2.53 12.55 4.91 18.51 4.14 9.91 12.26 17.41 20.92 23.42 5 2.89 9.33 6.83 14.58 9.3.28 1.14.57 2.29.93 3.42 2.41 6.38 2.42 13.28 2.16 20-1.18 5.52-4.53 10.28-9.09 13.55-.03 1.45-.08 2.92-.05 4.38.92 2.97 3.12 5.25 5.28 7.37-1.66.49-3.31.98-4.99 1.42l-.75-.1c-.43 3.77-1.01 8.52 2.72 10.9 5.01 5.28 12.65 5.25 19.17 7.24 1.89.12 2.72 3.39.06 2.68-7.09-.65-15.14-.72-20.55-6.09 2.11 3.29 2.67 7.34 5.05 10.47 2.92 4.03 6.47 7.61 8.95 11.95 3.17 5.53 5.04 11.7 6.31 17.92.37 2.05.55 4.13.68 6.21-.63-.08-1.89-.24-2.53-.31-1.01-7.1-2.46-14.27-5.9-20.63-3.62-6.34-8.69-11.67-12.73-17.72.05 11.81-.31 23.61-.12 35.42-.62-.14-1.87-.44-2.49-.59 0-10.6.73-21.19.37-31.79-.04-3.98.9-8.05-.48-11.91-.17 1.83-.32 3.67-.51 5.52-2.02-1.97-2.21-4.83-2.55-7.46-1.33-8.17-.19-16.49-1.36-24.69.53-5.16-.5-10.27-.86-15.4-.61-7.53-1.54-15.11-3.89-22.31-1.32-3.63-2.8-7.56-6.09-9.87-4.22-2.77-6.71-7.26-10.14-10.83-3.64-4.22-7.04-8.91-8.43-14.39-.68-3.1-1.2-6.25-2.17-9.28-1.73 3.62-1.63 7.72-2.19 11.62-.95 7.21-.93 14.68 1.03 21.73.91 3.37 4.38 5.29 5.11 8.73-4.58-1.83-7.09-6.39-8.05-11-2.63-11.84.57-23.81 1.94-35.58.33-2.33.1-4.67-.57-6.91-1.51 13.1-5.34 25.9-5.73 39.12-.3 3.16 1.76 5.69 3.16 8.31-4.47-1.06-5.69-6.28-5.57-10.25 1.07-12.32 4.12-24.37 5.3-36.67.63-1.65 1.35-3.26 2.05-4.88l-1.4.34c-2.16-1.02-5.18-1.83-4.68-4.86.2-.57.61-1.71.81-2.28 1.44 1.35 2.99 2.59 5.01 2.94-.3-4.22-1.16-8.37-1.88-12.53-1.12-7.06-.48-14.3-1.92-21.31-.61-.91-1.04-3.47-2.5-2.29-2.1 5.65-5.41 11.19-4.9 17.44-.15 5.23 2.11 10.05 5.22 14.11-.75 1.19-1.49 2.38-2.19 3.61-3.09-3.21-5.33-7.24-5.76-11.73-1.04-8.18-.15-16.82 4.06-24.04-1.22-.26-2.66-.11-3.6-1.09.04-2.88 1.09-6.1-1.31-8.38-1.01 17.4-2.47 34.8-5.44 51.99-1.1 5.79-1.27 11.84-3.5 17.35l-.99-.7c1.44-12.45 3.99-24.75 5.33-37.21-.78 2.71-1.31 5.48-1.85 8.26-2.21 10.59-6.03 20.96-6.2 31.88-.09 3.27-1.91 6.1-3.03 9.09.77-7.03-.05-14.12.64-21.16 1.43-14.55 6.65-28.33 9.6-42.58.15-2.15-1.22-4.12-1.05-6.28.47-5.13 3.07-9.69 5.05-14.35-2.38-.79-4.77-1.65-6.78-3.17.35-.35 1.03-1.04 1.38-1.39 1.64.73 3.3 1.43 4.95 2.14l.31-1c2.87-5.69.25-11.78-.75-17.55.07-6.87 1.34-13.59 3.09-20.2 2.39-3.98 4.51-8.13 5.8-12.6 1.43-4.89 4.03-9.3 6.91-13.46 2.84-3.74 3.81-8.54 7-12.07 6.39-9.42 15.5-17.85 26.97-20.19-.06-3.97.34-8.09 2.41-11.58 3.41-5.95 7.83-11.31 12.85-15.96 3.3-3.17 7.65-4.95 10.87-8.21 2.27-2.27 4.65-4.44 7.24-6.35m-31.05 44.4c-3.26-.9-6.49.53-9.38 1.91-6.14 3.25-11.81 7.64-15.84 13.35-2.47 3.05-5.55 6.22-6.19 10.24 4.81-3.35 7.82-8.87 13.26-11.39 3.38-1.45 6.3-3.68 9.17-5.93 2.32-1.87 5.33-2.82 7.28-5.14 2.01-.59 3.87-1.59 5.78-2.43-.94-1.47-2.96-2.68-4.08-.61m-49.54 76.77c1.91-3.21.72-7.06.38-10.51-1.51 3.34-1.18 7.03-.38 10.51m3.81 16.87c.51 1.27 1.02 2.54 1.54 3.82 1.42-3.18 2.82-6.38 3.82-9.73-2.57 1.09-3.65 3.89-5.36 5.91m5.73 1.92c-1.12 3.65-2.63 7.34-2.14 11.24 3.77-2.14 2.77-7.63 2.14-11.24m-7.61 1.04c-1.15.86-.09 3.57 1.32 2.33 1.14-.86.1-3.56-1.32-2.33m-7.92 31.81c.42-.23 1.24-.69 1.66-.92.85-2.95.7-6.06.75-9.09-1.09 3.26-1.96 6.6-2.41 10.01m-2.59 8.99c-1.28 5.07-3.4 10.08-3.24 15.39 1.83-4.93 3.34-10.08 3.24-15.39m54.39 69.09c4.48 12.3 5.94 25.49 6.4 38.49.39.17 1.16.52 1.54.69.58-6.06.13-12.15.27-18.23.01-5.41.44-10.9-.92-16.2-2.45-1.55-4.85-3.17-7.29-4.75m10.06 5.85c.99 9.73.5 19.52.81 29.28.36 1.57 1.73-.61 2.07-1.13 3.83-5.38 1.86-12.12 1.59-18.17-.44-3.61-.07-8.81-4.47-9.98z"/><path fill="#c3b7af" d="M206.78 26.07c-3.45.94-3.06-5.79.04-4.13.03 1.38.01 2.75-.04 4.13z"/><path fill="#4a2d1d" d="M213.28 29.35c1.82-2.95 3.65-6.18 6.95-7.68-3.65 7.3-9.35 13.56-11.83 21.5 2.23.08 4.48.04 6.7.38 2.33.45 4.37 2.03 6.82 1.9 4.49-.12 9.02-.15 13.41.97.33.52 1 1.55 1.33 2.06 1.77.02 3.53.06 5.3.08-3.85 2.32-8.43 2.93-12.26 5.31 2.36 2.64 6.22 1 9.27 1.75 4.27 1.71 8.17 4.23 11.68 7.18.8.65 1.59 1.31 2.38 1.97 1.47-.73 2.95-1.45 4.37-2.29 3.19-1.96 6.28-4.08 9.1-6.55-4.32-4.66-11.5-2.61-16.28-6.5.47-.14 1.42-.44 1.89-.59 3.24.86 6.49 1.65 9.78 2.3 3.53.79 7.27 3.6 7.01 7.6-3.52 2.42-7.26 4.52-10.57 7.25 2.73 2.91 7.71 5.18 7.3 9.81-2.5-2.05-5.08-4.03-7.97-5.5-8.35-3.94-14.59-12.29-24.41-12.83.08 1.52.15 3.05.23 4.58-1.27 1.78-2.51 3.58-3.72 5.39-.65.01-1.97.04-2.63.05 1.59 1.45 3.13 2.94 4.67 4.44l-2 1.52c-1.5-1.1-2.66-2.56-3.44-4.24l-.36-.67-2.25.72c-2.86-1.31-5.95-2-8.83-3.24-5.7-3.39-12.14 1.13-18.21-.47-6.68-1.56-14.19-2.63-20.11 1.74-2.51.14-5.05.41-7.54 0-1.45-1.16-2.71-2.52-4.01-3.84.65-2 1.24-4.16-.19-6 1.57-9.72 11.2-18.2 21.23-17.12-.08 3.37-3.36 2.56-5.75 2.63l-.41.55c-.29.42-.88 1.25-1.17 1.67-1.72.4-3.91-.16-5.13 1.43-3.36 3.66-5.76 8.41-6.04 13.42-.02 2.38 1.76 4.14 3.22 5.8l1.28-2.56c5.73 1.72 11.17-1.6 16.91-1.08 4.82.17 9.55 2.23 14.39 1.29 3.89-.65 8.12-1.59 11.83.33 2.85 1.39 5.88 2.49 9.08 2.69 1.33-3.46 1.34-7.2.61-10.79-.71 1.73-.91 3.98-2.94 4.7-.18-3.51-.02-7.13-1.23-10.49-.26-.3-.78-.92-1.04-1.22-.53-.2-1.59-.59-2.12-.78-2.7-3.33-7.63-1.84-11.14-3.8.66-5.56 4.09-10.09 6.84-14.77m8.7 18.13c.95.54 1.9 1.07 2.86 1.61.94 1.17 1.89 2.33 2.85 3.49 2.48-1.49 5.13-2.68 7.65-4.1-4.36-1.14-8.88-1.29-13.36-1m5.38 8.45c.25 3.02.26 6.05.03 9.07 1.48-1.7 2.96-3.39 4.4-5.13a9.804 9.804 0 0 0-3.45-1.32c-.34-.87-.66-1.74-.98-2.62z"/><path fill="#d2bdaf" d="M222.82 30.39c-1.48-2.58 2.17-6.18 4.63-4.62-1.03 1.99-2.91 3.29-4.63 4.62z"/><path fill="#948378" d="M176.62 35.46c4.25-2.15 7.01-6.14 10.25-9.48-.61 5.11-2.2 10.67.6 15.45-.27.57-.82 1.72-1.09 2.29-2.15-.02-4.3-.13-6.45-.21l.41-.55c2.39-.07 5.67.74 5.75-2.63-10.03-1.08-19.66 7.4-21.23 17.12l-.56 2.6c-3.03-9.87 3.91-19.91 12.32-24.59m4.45-.28c-.54 1.6.03 2.14 1.69 1.63.53-1.59-.03-2.14-1.69-1.63z"/><path fill="#46322a" d="M256.9 27.21c6.73 2.2 11.27 8 16.14 12.79 7.07 8.26 13.3 17.63 16.18 28.22 1.65 8.19 2.38 17.04-.6 25.02 3.84 8.22 8.83 15.95 11.53 24.66 4.03 10.9 7.36 22.36 7.16 34.09.12 3.77-2.57 6.58-5.12 8.97.61 8.43-2.19 16.61-1.92 25.05-.01 7.62-.37 17.23 6.67 22.12 1.25.2 2.51.41 3.77.64-.95.83-1.88 1.66-2.82 2.48.96.16 2.89.49 3.85.65-1.19 2.48-4.28 1.54-6.25.78-3.54-1.21-5.46-4.64-8.06-7.09 0 6.82-.93 13.59-1.83 20.34-.91 4.9 1.21 10.25 5.28 13.13 2.53 2.08 5.9.32 8.81.48-1.14 1.66-2.33 3.85-4.6 3.98-4.6.5-9.87 1.02-13.75-2.06.37-.46 1.1-1.37 1.47-1.82 2.11.6 4.17 1.37 6.24 2.13-1.52-1.81-3.04-3.62-4.54-5.44.1-.65.31-1.94.41-2.58-.86-.1-1.72-.2-2.58-.31-.21-.41-.65-1.23-.86-1.64.17-6.27-.74-12.63.76-18.8.76-4.04 3.21-7.78 2.63-12.02-.54-4.51-3.01-8.5-3.84-12.95-2.03-9.88-4.24-19.86-3.93-30.01.16-5.11-.48-10.36.92-15.35l1.26.35c.46 8.23-1.09 16.67 1.35 24.73 2.38.19 4.64-.41 6.06-2.46-.72-7.52-.68-15.32-3.63-22.42-5.2-12.57-11.09-25.18-12.59-38.85-.35-10.12-1.8-20.17-4.15-30.01-1.83-7.82-2.55-15.99-5.49-23.49-.76-1.72-1.68-3.35-2.5-5.04.66-.25 1.97-.76 2.63-1.01 4.78 9.03 6.9 19.04 8.77 28.98 1 1.37 1.9 2.84 2.3 4.52 1.22 4.37 3.3 8.42 5.15 12.54 2.21-5.93 1.24-12.4.37-18.5-2.2-12.54-10.2-22.99-18.11-32.56-2.56-3.01-5.81-5.32-8.98-7.63-1.66-1.12-2.94-2.68-3.56-4.61m25.36 58.69c-.21 2.37-.22 4.76-.06 7.13-1.1 1.15.3 4.07 1.91 2.96.65-.92 2.04-1.56 1.86-2.87-.77-2.61-2.21-4.96-3.71-7.22m3.48 11.88c-1.89 1.15.29 4.31 1.73 5.15l-.12.57c.28.63.84 1.9 1.12 2.53l.23-.25c.42.6 1.26 1.79 1.68 2.39l-.11.59c6.56 14.53 11.86 30.12 11.28 46.27.08.83.24 2.49.33 3.32 4.98-3.72 3.19-10.44 2.96-15.71-.98-5.84-2.44-11.64-4.35-17.24-3.91-9.58-7.72-19.23-12.47-28.43-.46-1.57-2.4-.47-2.28.81m-2.52.99c.25 17.59 9.56 33.15 15.35 49.31-.29-4.07.05-8.23-1.07-12.2-2.68-13.08-7.93-25.42-14.28-37.11m14.97 70.4c2.46-.09 1.48-2.93 1.9-4.51-2.56.16-1.7 2.79-1.9 4.51m-6.66.66c1.91 7.67 3.82 15.36 4.93 23.2.46 2.67-.18 5.86 1.98 7.93-3.12-10.26-1.85-21.12-1.87-31.67-1.64.48-3.33.75-5.04.54z"/><path d="M76.75 44.14c6.28-5.31 13.03-10.06 20.03-14.37l-.59.5c-6.46 4.64-12.94 9.28-19.44 13.87zM48.71 72.01c8.06-10.08 17.2-19.28 27.32-27.29-4.46 4.63-9.64 8.51-14.09 13.16-4.68 4.47-8.55 9.68-13.23 14.13zM33.89 92.32c2.43-3.51 4.64-7.17 7.27-10.53-2.12 3.72-4.5 7.27-6.86 10.85l-.41-.32zm44.14 257.3c1.21-4.29 2.11-8.66 3.6-12.86.26 5.3.09 10.6.1 15.91-.95-.45-1.91-.91-2.86-1.36-.21-.42-.63-1.27-.84-1.69z" fill="#9a897f"/><path fill="#c9bab0" d="M226.94 33.91c1.08-2.18 3.17-3.44 5.39-4.23-.07 2.73-2.78 4.67-5.39 4.23z"/><path fill="#928379" d="m259.9 33.11.56-1.29c3.17 2.31 6.42 4.62 8.98 7.63.22 1.75.79 3.42 1.52 5.02-.66.25-1.97.76-2.63 1.01-2.19-3.99-3.42-9.24-7.83-11.4-.15-.24-.45-.73-.6-.97z"/><path d="M260.5 34.08c4.41 2.16 5.64 7.41 7.83 11.4.82 1.69 1.74 3.32 2.5 5.04.01.63.04 1.89.06 2.52-2.62-4.09-4.7-8.47-6.58-12.94-1.13-2.09-2.58-3.99-3.81-6.02zM153.77 66.89c-.09-4.91 1.61-9.61 4.51-13.53-1.33 4.3-2.78 8.65-2.54 13.22 1.44-.14 2.87-.29 4.31-.45-2.08.31-4.18.54-6.28.76zM73.72 329.04c.5-4.9 1.03-9.86 2.55-14.56.34 1.41.74 2.83 1.06 4.26.29 4.28 3.2 7.97 2.99 12.28-1.84 4.34-3.46 8.78-4.56 13.37-2.61-4.67-2.27-10.2-2.04-15.35z" fill="#fcf2eb"/><path d="M181.07 35.18c1.66-.51 2.22.04 1.69 1.63-1.66.51-2.23-.03-1.69-1.63zm66.44 119.94c1.28-.94 3 1.19 2.23 2.39-1.2.6-2.91-1.21-2.23-2.39z" fill="#705d53"/><path fill="#fcf5ed" d="M270.96 44.47c-.73-1.6-1.3-3.27-1.52-5.02 7.91 9.57 15.91 20.02 18.11 32.56.87 6.1 1.84 12.57-.37 18.5-1.85-4.12-3.93-8.17-5.15-12.54-.4-1.68-1.3-3.15-2.3-4.52-1.87-9.94-3.99-19.95-8.77-28.98z"/><path fill="#fcd482" d="M201.97 42.57c1.49.5 2.98 1.03 4.47 1.55 3.51 1.96 8.44.47 11.14 3.8.53.19 1.59.58 2.12.78.26.3.78.92 1.04 1.22-2.91 1.08-6.05 2.38-7.79 5.1-1.23 3.17.49 6.24 2.27 8.79-3.71-1.92-7.94-.98-11.83-.33-4.84.94-9.57-1.12-14.39-1.29-5.74-.52-11.18 2.8-16.91 1.08l-1.28 2.56c-1.46-1.66-3.24-3.42-3.22-5.8.28-5.01 2.68-9.76 6.04-13.42 1.22-1.59 3.41-1.03 5.13-1.43.29-.42.88-1.25 1.17-1.67 2.15.08 4.3.19 6.45.21 4.62.06 9.46-.63 13.83 1.29 1.9.43 4.52 2.41 5.95.09-1.22-.37-2.42-.77-3.61-1.18-.15-.34-.44-1.01-.58-1.35m-32.34 12.47c-.05 1.98.08 3.95.35 5.9 3.37 1.2 7.06 2.32 10.5.66 4.77-2.07 10-1.11 14.95-.42-1.69-2.68-5.4-2.07-7.46-4.33-2.22-2.11-5.38-2.9-8.08-1.18-1.16-.63-2.58-.96-3.45-2.01-.35-2.26.85-4.41.83-6.66-4.65-.54-4.72 5.72-7.64 8.04m17.3-1.51c2.16.13 1.44-2.68 1.68-4.03-.74-.76-1.49-1.52-2.23-2.29-1.04 1.81-2.37 5.75.55 6.32m-9.82-1.32c.3.49.88 1.48 1.17 1.97 1.59-.75 2.96-1.86 4.17-3.12-.53-1.03-1.06-2.05-1.59-3.08-1.69.99-2.91 2.48-3.75 4.23z"/><path fill="#fac154" d="M169.63 55.04c2.92-2.32 2.99-8.58 7.64-8.04.02 2.25-1.18 4.4-.83 6.66.87 1.05 2.29 1.38 3.45 2.01 2.7-1.72 5.86-.93 8.08 1.18 2.06 2.26 5.77 1.65 7.46 4.33-4.95-.69-10.18-1.65-14.95.42-3.44 1.66-7.13.54-10.5-.66-.27-1.95-.4-3.92-.35-5.9z"/><path fill="#fef5c2" d="M186.93 53.53c-2.92-.57-1.59-4.51-.55-6.32.74.77 1.49 1.53 2.23 2.29-.24 1.35.48 4.16-1.68 4.03z"/><path d="M221.98 47.48c4.48-.29 9-.14 13.36 1-2.52 1.42-5.17 2.61-7.65 4.1-.96-1.16-1.91-2.32-2.85-3.49-.96-.54-1.91-1.07-2.86-1.61zM95.67 206.96c.1 5.31-1.41 10.46-3.24 15.39-.16-5.31 1.96-10.32 3.24-15.39z" fill="#97857c"/><path fill="#fef0c5" d="M177.11 52.21c.84-1.75 2.06-3.24 3.75-4.23.53 1.03 1.06 2.05 1.59 3.08-1.21 1.26-2.58 2.37-4.17 3.12-.29-.49-.87-1.48-1.17-1.97z"/><path fill="#f6d397" d="M241.96 48.56c2.78-.1 5.52.46 8.26.87 4.78 3.89 11.96 1.84 16.28 6.5-2.82 2.47-5.91 4.59-9.1 6.55l-.16-2.3c2.06-1.5 4.44-2.61 6.09-4.61-4.21-1.22-8.54-1.94-12.89-2.37-.17.47-.5 1.42-.66 1.9-1.29.1-2.57.19-3.85.26l-2.34-3.15c-3.7-.16-7.36.52-10.69 2.17 2.03.39 4.07.73 6.07 1.24-3.05-.75-6.91.89-9.27-1.75 3.83-2.38 8.41-2.99 12.26-5.31z"/><path fill="#fac254" d="M212.95 55.02c1.74-2.72 4.88-4.02 7.79-5.1 1.21 3.36 1.05 6.98 1.23 10.49 2.03-.72 2.23-2.97 2.94-4.7.73 3.59.72 7.33-.61 10.79-3.2-.2-6.23-1.3-9.08-2.69-1.78-2.55-3.5-5.62-2.27-8.79z"/><path fill="#f2c158" d="M232.9 54.38c3.33-1.65 6.99-2.33 10.69-2.17l2.34 3.15c1.28-.07 2.56-.16 3.85-.26.09.62.29 1.85.39 2.47 2.19.76 4.3 1.78 6.17 3.17a11.051 11.051 0 0 1-5.69 2.06c-3.51-2.95-7.41-5.47-11.68-7.18-2-.51-4.04-.85-6.07-1.24z"/><path d="M250.44 53.2c4.35.43 8.68 1.15 12.89 2.37-1.65 2-4.03 3.11-6.09 4.61l.16 2.3c-1.42.84-2.9 1.56-4.37 2.29-.79-.66-1.58-1.32-2.38-1.97 2.06-.15 4.01-.85 5.69-2.06-1.87-1.39-3.98-2.41-6.17-3.17-.1-.62-.3-1.85-.39-2.47.16-.48.49-1.43.66-1.9zm-17.19 4.27c9.82.54 16.06 8.89 24.41 12.83 2.89 1.47 5.47 3.45 7.97 5.5l-.6.72c-1.28.99-2.59 1.95-3.89 2.91-4-.15-7.99.34-11.99.32-6.41-.64-12.54-3.56-17.35-7.82-1.54-1.5-3.08-2.99-4.67-4.44.66-.01 1.98-.04 2.63-.05 1.21-1.81 2.45-3.61 3.72-5.39-.08-1.53-.15-3.06-.23-4.58m1.86 4.59c-1.52 1.76-2.32 3.93-2.98 6.12 5.36.65 10.81.38 16.07 1.87-2.56-4.97-8.74-5.3-13.09-7.99z" fill="#fbd37b"/><path fill="#f3d397" d="M227.36 55.93c.32.88.64 1.75.98 2.62 1.23.22 2.38.66 3.45 1.32-1.44 1.74-2.92 3.43-4.4 5.13.23-3.02.22-6.05-.03-9.07z"/><path fill="#fac04c" d="M235.11 62.06c4.35 2.69 10.53 3.02 13.09 7.99-5.26-1.49-10.71-1.22-16.07-1.87.66-2.19 1.46-4.36 2.98-6.12z"/><path fill="#463126" d="M176.6 67.29c5.92-4.37 13.43-3.3 20.11-1.74 6.07 1.6 12.51-2.92 18.21.47 2.88 1.24 5.97 1.93 8.83 3.24l-.26.92c-3.74.89-7.71-1.43-11.21.46 4.25 5.87 7.12 13.1 6.42 20.44-.42 5.89-3.93 10.89-6.79 15.85-1.85 3.3-4.93 5.63-8.4 7.02 1.78 6.7-1.18 14.77 4.15 20.26-.04.77-.07 1.54-.1 2.32 2.98 3.33 5.99 6.87 10.29 8.5-2.74-2.97-5.93-5.64-7.76-9.32-1.77-3.55-4.46-6.76-5.23-10.71.21-.71.64-2.13.86-2.84 2.37-.03 1.45 3.27 2.36 4.8 2.39 5.22 6.34 9.58 9.97 13.98 3.85 4.82 10.64 4.71 16.24 4.85-6.6-5.52-14.52-9.32-20.47-15.63-1.62-1.5-1.76-3.85-2.46-5.81 4.53 2.53 10.19 3.57 15 1.19 5.7-3.16 11.12-7.54 13.41-13.85 2.85-4.3 3.63-9.43 2.82-14.48-.7-7.24-3.62-14.76-9.57-19.28-2.21-1.75-5.35-1.45-7.55-3.23.87-.17 2.61-.5 3.48-.67.21-.15.64-.44.85-.58l2-1.52c4.81 4.26 10.94 7.18 17.35 7.82 4 .02 7.99-.47 11.99-.32 1.3-.96 2.61-1.92 3.89-2.91-1.49 1.61-2.7 3.85-4.98 4.41-3.37.78-6.84.77-10.26 1.12 2.26 1.71 4.54 3.41 6.75 5.19-.01 3.54 1.7 6.66 3.74 9.43 4.76 6.55 8.41 14.03 9.75 22.07 1.31 10.02.54 20.15-.5 30.15-.46 4.18-2.49 7.96-3.26 12.05.7 3.2 2.21 6.14 3.37 9.19 5.76 12.22 6.1 25.93 7.67 39.09 2.1-6.36 1.69-13.78 5.95-19.25.68 3.9-1.19 7.55-1.91 11.3-1.8 8.43-3.29 17.07-2.66 25.72.12 2.39 1.7 4.3 3.03 6.17-1.6-11.5-1.4-23.48 2.85-34.43 1.51 5.66.56 11.54 1.2 17.3.39 3.17-.05 6.34-.04 9.51.73 4.18 2.66 8.06 4.82 11.67.33-1.8.68-3.6.93-5.41.21.41.65 1.23.86 1.64.86.11 1.72.21 2.58.31-.1.64-.31 1.93-.41 2.58-.32-.4-.98-1.2-1.31-1.6-.32 1.09-.64 2.18-.95 3.28l.56 1.63c-.37.45-1.1 1.36-1.47 1.82-2.15-2.32-4.14-4.82-6.78-6.62.1 5.32.07 10.64-.26 15.95.16 3.43.97 6.79 2.05 10.04l-2.24.29c-.8-2.47-1.6-4.96-2.54-7.38-.1 6.89 3.79 12.99 5.38 19.55 4.24 13.01 4.86 26.96 10.09 39.67 2.21 5.19 4.56 10.34 7.43 15.2-.07-2.22-.25-4.44-.48-6.66.45-.55 1.34-1.67 1.79-2.23.1.79.31 2.36.41 3.15.19 3.05.27 6.12.31 9.18.75.77 1.52 1.54 2.25 2.34 3.79 6.26 7.14 12.77 10.56 19.23 1.31.27 2.23-.88 3.24-1.5 19.84-15.33 36.34-34.81 48.99-56.42 1.66-2.95 2.21-6.4 4.13-9.22 3.2-2.86 3.8-7.62 6.33-11.06-3.19 6.26-5.65 12.9-9.39 18.88-12.85 22.39-29.79 42.55-50.28 58.31-1.56 1.11-3.36 1.76-5.12 2.46-1.32-2.28-2.61-4.58-3.96-6.83-.16 3.4-.15 6.8-.02 10.2-1.36.76-2.73 1.49-4 2.39-1.17-5.66.02-11.5-1.33-17.13-1.55-8.66-7.55-15.51-10.4-23.7-5.26-10.51-7.43-22.14-9.45-33.61-2.04-11.34-7.61-21.67-9.6-33-3.79-17.75-1.11-36.29-5.72-53.89-.88-7.86-2.99-15.5-4.55-23.24-.9-4.03-2.19-7.96-3.35-11.91-2.12 3.24-6.55 5.13-7.17 9.13 1.52 2.24 3.5 4.14 5.1 6.33 2.07 5.31 2.35 11.11 1.83 16.74-.21 4.56-2.64 8.57-3.66 12.95-.33.26-.98.77-1.3 1.03-.97-1.47-2.05-2.85-3.13-4.23 5.09-4.09 5.26-11.67 5.12-17.7-.92-4.3-1.88-9.59-6.52-11.37-.52 4.97-.8 9.98-.86 14.99-.93 6.27-2.35 12.62-1.38 18.98.83-.95 1.65-1.91 2.49-2.86.73.8 1.47 1.62 2.19 2.44-.98 1.63-2.2 3.09-3.61 4.35-.66-.31-1.98-.95-2.64-1.27.86 2.11 2.15 4 3.84 5.53 3.82 11.55 4.6 24.1 1.59 35.92-.39 1.98-1.91 3.33-3.4 4.54 1.24-9.09 1.6-18.36-.23-27.4-1.08-4.76-1.16-9.79-3.19-14.3-1.07 2.78-1.95 5.63-2.76 8.5-3.28 8.84-4.68 18.73-10.99 26.11-3.05 3.77-4.74 8.39-7.61 12.28-5.38 7.74-6.45 17.4-8.68 26.34-1.25 4.36.76 8.83-.32 13.2-1.27 5.26-.9 10.71-1.96 16-3.21 15.7-5.36 32.04-2.11 47.92 1.72 7.46 6.18 14.34 13.1 17.91-.3.41-.88 1.23-1.18 1.64 1.14-.04 2.27-.07 3.41-.09.22-.68.66-2.02.89-2.7-10.41-8.03-12.46-22.1-11.69-34.41.36-6.59 3.08-12.67 4.27-19.09.81-4.36 2.07-8.61 3.3-12.87.94-3.12 1.26-6.77 4.01-8.93.02.93.05 2.81.07 3.75-1.97 5.45-3.95 10.91-5.03 16.63-.97 5.03-2.69 9.97-2.86 15.13 2.63 9.89 9.43 18.47 10.16 28.93.26 5.47.58 11.32-1.7 16.45l-1.06.04c-5.77.22-11.29-3.1-13.73-8.34-6.05-11.48-7.55-24.82-6.71-37.62-3.46 2.62-6.66 6-11.1 6.87-4.1.93-8.46 3.12-12.54.89l.76-1.24c4.88-1 9.92-1.65 14.51-3.66 3.17-2.06 6.14-4.5 8.74-7.24.97-2.89 1.03-6.03 1.72-9-2.62 2.8-6.26 5.86-10.33 4.1 1.98-3.33 5.6-5.18 8.32-7.85 5.01-2.73 3.65-9.04 4-13.76-.68-.28-2.03-.85-2.7-1.13-.11-.05-.34-.15-.45-.2-1.19-4.03-4.23-7.25-5.1-11.39-1.54-6.19-.31-12.54.02-18.79-4.14 3.13-9.17 4.62-13.82 6.78-7.63 2.17-15.26-1.06-22.74-2.22-.84-.65-1.67-1.31-2.49-1.99-.36-1.13-.65-2.28-.93-3.42 8.53 4.3 18.65 4.88 27.67 1.85 8.39-3.23 15.38-9.02 22.48-14.37 4.91-3.77 8.23-9.08 12.32-13.64 1.69-1.82 2.77-4.07 3.79-6.32 1.93-3.46 4.32-6.72 5.45-10.58 1.94-6.32 4.22-12.53 6.07-18.87 1.23-6.79 3.2-13.51 3.23-20.46l-.55 1.5-2.29-.12c1.42-4.98.89-10.19 1.18-15.29 2.02 2.36 1.77 5.54 2.21 8.42.34-3.45.91-6.89 1.01-10.36-.14-3.57-.64-7.15-.28-10.72.16-1.82.34-3.64.5-5.46-4.99-3.69-9.07-8.38-13.27-12.9-7.21-.48-13.23-4.52-19.68-7.29-4.12-2.03-7.07-5.66-10.41-8.7.35 2.48.78 4.95 1.26 7.41.44 4.42 2.1 8.54 4.08 12.48-.03.65-.1 1.96-.13 2.61-1.98-.51-3.4-1.91-3.81-3.91-2.43-8.69-4.44-17.57-4.9-26.61-.67-6.63-.68-13.31-1.76-19.9 1.35.37 2.68.94 4.1.99 3.6-2.15 5.67-6.03 7.56-9.64 1.71-3.58 3.67-7.24 3.84-11.3.09-7.19-2.42-14.25-7.22-19.62-1.26-.06-2.52-.12-3.77-.16-2.16 1.24-4.67 1.78-7.13 1.16-4.36-1.06-8.79-2.66-12.1-5.81-3.08.88-6.24 1.49-9.44 1.67m59.36 9.84c2.5 3.49 5.52 6.75 6.83 10.93.96 2.11.91 5.22 3.73 5.75-.06-2.65-.22-5.29-.32-7.94 3.97 2.41 1.59 7.43 2.8 11.05 2.46 5.45 6.02 10.81 5.71 17.05-.17 7.03-1.14 14.56-5.56 20.31-.96 1.06-1.2 2.6-.13 3.68 3.4 4.17 3.94 9.66 5.02 14.73 3.2-4.02 8.23-6.22 10.92-10.68.26-3.34-.37-6.67-.41-10.01-.79 4.1-.62 8.9-3.8 12.05-.72-1.61.12-3.24.5-4.8 1.65-5.25 1.18-10.8 1.09-16.21-.05-8.25-1.5-16.47-3.97-24.32-2.39-4.7-6-8.69-9.31-12.78-2.15-2.81-5.43-4.25-8.71-5.27-.86-1.87-2.2-3.32-4.39-3.54m8.49 18.23c-.92.99-.57 3.06.82 3.42 2.13-.19 1.21-4.68-.82-3.42m1.63 8.63c-1.71 4.71-.13 11.77-5.54 14.29-.14-2.04 1.24-3.68 2.04-5.44-2.58 3.02-3.97 6.92-7.1 9.51 3.58 3.79 7.61 7.16 10.74 11.37 4.54-4.67 5.1-11.53 5.9-17.66.98-5.59-1.62-10.81-3.73-15.79-1.79-.19-1.62 2.54-2.31 3.72m17.2 1.89c.62 8.16 1.8 16.31 1.18 24.53.66.07 1.98.22 2.64.3-.54 2.77-.02 5.56.48 8.3.26-4-.39-7.98-.49-11.96 1.21-7.25-.74-14.62-3.81-21.17m-39.27 23c-3.28.98-6.63-.12-9.88-.65 6.15 5.47 12.7 10.58 19.86 14.68 1.7 1.06 3.67 1.5 5.64 1.7.35.35 1.05 1.04 1.4 1.38 1.99.62 3.96 1.31 5.92 2.02-.37-2.71-.97-5.38-1.57-8.05 3.05 2.1 2.65 6.5 5.07 9.16.76-4.04-1.9-7.33-3.99-10.46-.51-.24-1.52-.71-2.03-.94-1.63-2.74-3.14-5.58-5.18-8.04-1.83-1.86-3.91-3.47-5.67-5.41-3.11 1.69-6.05 3.85-9.57 4.61m.93 18.53c1.9 1 3.85 2.09 6.07 2.08-1.36-2.08-3.82-2.14-6.07-2.08m9.64.27c1.47 4.16 5.9 6.4 9.64 8.26-.5-2.38-2.55-3.64-4.49-4.76-1.85-.99-2.99-3.08-5.15-3.5m22.68 18.47c.05-.82.14-2.47.19-3.29 3.11-3.33 4.93-7.52 6.27-11.81-1.54.19-2.82.86-3.58 2.25-2.24.21-4.2 1.24-5.9 2.65.55 3.76-.08 7.71 1.39 11.3 1.31-.33 2.62-.64 3.94-.93 4.34-5.29 6.2-11.95 7.86-18.44-3.31 5.99-3.77 14.34-10.17 18.27m-10.99-15.97c-.33 1.38.2 1.87 1.6 1.45.34-1.39-.2-1.87-1.6-1.45m3.87 1.16c-1.35.86-.04 3.4 1.34 2.17 1.29-.87.05-3.37-1.34-2.17m-2.63 3.78c-.68 1.18 1.03 2.99 2.23 2.39.77-1.2-.95-3.33-2.23-2.39m-3.35 2.74c1.48 2.13 3.11 4.4 5.75 5.13-1.62-2.01-3.51-3.82-5.75-5.13m10.92 13.47c-.91 1.23-.7 1.96.62 2.19.9-1.24.69-1.96-.62-2.19m-1.02 52.35c-.03 4.29.09 8.95 1.85 12.87l.71-.66c.12-4.17-.62-8.49-2.56-12.21m26.71 12.27c-.27 3.46.4 6.95 1.59 10.21.9-2.96.75-6.11.37-9.15.05-1.2-1.26-2.98-1.96-1.06m-.56 11.56c-.83 1.16-.77 3.58.66 4.24 1.4-.79.78-3.93-.66-4.24M211.14 282c.06 6.96.41 14 2.08 20.79.48 1.79.55 3.87 2.07 5.17.1-.75.29-2.26.38-3.01.06-12.72 4.12-24.97 7.45-37.09-4.36 4.27-11.56 7.26-11.98 14.14m11.34 69.94c.01 10.02.59 22.08 8.98 28.92.62-10.35-4.26-20.04-8.98-28.92z"/><path fill="#fffaf3" d="M153.79 69.56c1.12-2.07 3.14-.86 4.08.61-1.91.84-3.77 1.84-5.78 2.43-6.16 1.1-11.89 3.9-16.94 7.55-2.12 1.65-4.21 3.36-6.58 4.67 4.03-5.71 9.7-10.1 15.84-13.35 2.89-1.38 6.12-2.81 9.38-1.91z"/><path fill="#ad9688" d="m223.75 69.26 2.25-.72.36.67c.13 1.73-1.88 2.16-2.87.97l.26-.92z"/><path d="M41.76 80.98c2.01-2.81 4.09-5.58 6.33-8.21-1.78 2.97-3.86 5.76-6.33 8.21zm221.52 24.9c3.07 6.55 5.02 13.92 3.81 21.17.1 3.98.75 7.96.49 11.96-.5-2.74-1.02-5.53-.48-8.3-.66-.08-1.98-.23-2.64-.3.62-8.22-.56-16.37-1.18-24.53zM108.06 163.2c1.71-2.02 2.79-4.82 5.36-5.91-1 3.35-2.4 6.55-3.82 9.73-.52-1.28-1.03-2.55-1.54-3.82zm5.73 1.92c.63 3.61 1.63 9.1-2.14 11.24-.49-3.9 1.02-7.59 2.14-11.24zm179.41 69.61c.33.4.99 1.2 1.31 1.6 1.5 1.82 3.02 3.63 4.54 5.44-2.07-.76-4.13-1.53-6.24-2.13l-.56-1.63c.31-1.1.63-2.19.95-3.28z" fill="#9b897f"/><path fill="#908177" d="M135.15 80.15c5.05-3.65 10.78-6.45 16.94-7.55-1.95 2.32-4.96 3.27-7.28 5.14-2.87 2.25-5.79 4.48-9.17 5.93-5.44 2.52-8.45 8.04-13.26 11.39.64-4.02 3.72-7.19 6.19-10.24 2.37-1.31 4.46-3.02 6.58-4.67z"/><g fill="#938278"><path d="M235.96 77.13c2.19.22 3.53 1.67 4.39 3.54 3.28 1.02 6.56 2.46 8.71 5.27 3.31 4.09 6.92 8.08 9.31 12.78 2.47 7.85 3.92 16.07 3.97 24.32.09 5.41.56 10.96-1.09 16.21-.38 1.56-1.22 3.19-.5 4.8 3.18-3.15 3.01-7.95 3.8-12.05.04 3.34.67 6.67.41 10.01-2.69 4.46-7.72 6.66-10.92 10.68-1.08-5.07-1.62-10.56-5.02-14.73-1.07-1.08-.83-2.62.13-3.68 4.42-5.75 5.39-13.28 5.56-20.31.31-6.24-3.25-11.6-5.71-17.05-1.21-3.62 1.17-8.64-2.8-11.05.1 2.65.26 5.29.32 7.94-2.82-.53-2.77-3.64-3.73-5.75-1.31-4.18-4.33-7.44-6.83-10.93z"/><path d="M246.08 103.99c.69-1.18.52-3.91 2.31-3.72 2.11 4.98 4.71 10.2 3.73 15.79-.8 6.13-1.36 12.99-5.9 17.66-3.13-4.21-7.16-7.58-10.74-11.37 3.13-2.59 4.52-6.49 7.1-9.51-.8 1.76-2.18 3.4-2.04 5.44 5.41-2.52 3.83-9.58 5.54-14.29zm-22.07 24.89c3.52-.76 6.46-2.92 9.57-4.61 1.76 1.94 3.84 3.55 5.67 5.41 2.04 2.46 3.55 5.3 5.18 8.04.51.23 1.52.7 2.03.94 2.09 3.13 4.75 6.42 3.99 10.46-2.42-2.66-2.02-7.06-5.07-9.16.6 2.67 1.2 5.34 1.57 8.05-1.96-.71-3.93-1.4-5.92-2.02-.35-.34-1.05-1.03-1.4-1.38-1.97-.2-3.94-.64-5.64-1.7-7.16-4.1-13.71-9.21-19.86-14.68 3.25.53 6.6 1.63 9.88.65z"/></g><path d="M200.57 80.7c1.06.42 1.58 1.17 1.56 2.24-.57 8.77-4.35 16.85-7.56 24.89 2.52 4.31 5.05 8.99 4.82 14.13-.1 8.65.47 17.41 3.27 25.66 1.3 4.58 3.58 8.79 5.22 13.24-1.36.68-2.68.32-3.85-.51-3.46-6.6-5.6-13.89-6.4-21.29-.53-3.75.38-7.78-1.38-11.28-1.29 8.65-2.12 17.43-1.55 26.18.1 3.72 2.46 6.67 4.18 9.78-4.56-1.6-7.79-5.93-8.4-10.66-.36-2.86-.26-5.74-.13-8.6.53-7.69 3.42-15.29 2.14-23.01-1.21-1.3-2.76-2.36-4.48-2.82-2.76-.34-5.27 1.14-7.81 1.96-1.33-.07-2.65-.2-3.95-.39-1.45-.32-2.88-.69-4.31-1.05-2.95 4.4-2.34 9.97-2.17 14.99.42 2.3 1.26 4.5 1.89 6.75-.64-.17-1.92-.51-2.55-.68-2.6-3.7-2.62-8.3-2.84-12.63-5.42 9-6.67 20.47-2.24 30.14a63.252 63.252 0 0 1-3.89-3.6c.94 2.88 1.63 5.86 3.02 8.57 1.4 3.74 4.81 5.95 7.12 9.02-.64-.06-1.92-.17-2.56-.23-.31-.5-.91-1.5-1.21-2-1.75-1.17-3.32-2.58-4.8-4.07-3.32.45-6.5-.7-9.75-1.08-7.29.09-14.63.1-21.81 1.5-.33-.18-1-.54-1.33-.72.12-.35.37-1.04.49-1.39 8-2.94 16.57-2.63 24.94-2.19.46.23 1.4.69 1.86.92-4.83-7.89-2.83-17.65-1.45-26.25 1.31-5.56 3.22-11.15 7.15-15.44.7-.21 2.1-.62 2.8-.83-1.81 3.39-4.38 6.34-5.8 9.93-2.89 6.95-3.47 14.61-3.35 22.06.16 4.3 1.3 9.49 5.59 11.51-5.67-12.9-2.42-28.17 4.51-39.94 1.57-3.17 2.69-6.59 4.76-9.51-.68-1.91-1.57-4.09.92-4.95 1.64 1.63 2.78 4.69 5.45 4.67 2.7-2.61 4.64-6.3 8.42-7.54 2.53-1.18 5.31-.39 7.91.01 3.31-8.24 6.69-16.56 7.55-25.49m-12.87 27.45c1.83 1.76 3.62 3.58 5.53 5.26l1.01-.26c-.58-2.77-3.28-6.22-6.54-5M179.06 119c3.88-2.7 8.63-2.75 13.16-2.24-1.34-2.66-3.39-5.04-6.18-6.25-4.95-.61-4.88 5.5-6.98 8.49zm-50.5 174.95c.42.43 1.25 1.28 1.66 1.71 5.06 16.37 7.51 33.56 7.34 50.7-.39 12.33 1.87 24.55 1.96 36.88-1.64-.62-3.3-1.16-4.98-1.64-.11-12.18.68-24.36-.07-36.52 1.11-8.68.37-17.45-.83-26.08-1.15-8.46-3.94-16.6-5.08-25.05z" fill="#442e26"/><path fill="#8b776d" d="M282.26 85.9c1.5 2.26 2.94 4.61 3.71 7.22.18 1.31-1.21 1.95-1.86 2.87.58-1.29-.24-3.42-1.91-2.96-.16-2.37-.15-4.76.06-7.13z"/><path d="M144.78 99.16c2.72-4.69 5.79-9.21 9.82-12.88.53 2.36-1.79 3.69-3 5.33-2.26 2.27-3.3 5.35-4.09 8.37-.91-.27-1.82-.55-2.73-.82zm96.05 4.73c.44-2.26.38-4.72 1.76-6.68.81 5.05.03 10.18-2.82 14.48-.22-2.66.66-5.21 1.06-7.8zm-87.68 31.03c.37.32 1.13.97 1.51 1.3-1.38 8.6-3.38 18.36 1.45 26.25-.46-.23-1.4-.69-1.86-.92-3.23-2.17-7.38-.52-10.7-2.32.15-.36.44-1.1.59-1.46.61-.32 1.24-.63 1.86-.93 3.31-6.97 5.94-14.28 7.15-21.92zm71.79 12.49c2.25-.06 4.71 0 6.07 2.08-2.22.01-4.17-1.08-6.07-2.08zm19.22 10.45c2.24 1.31 4.13 3.12 5.75 5.13-2.64-.73-4.27-3-5.75-5.13zm22.2 136.21 1.2.44c1.28 2.74 2.78 5.47 3.27 8.5-2.44-2.39-4.06-5.54-4.47-8.94zm-6.77 13.24c-1.82-3.4-1.59-8.2.76-11.29-.21 3.77-.66 7.51-.76 11.29z" fill="#fae5d2"/><path fill="#d8c2b4" d="M164.17 86.99c.59-.06 1.79-.17 2.39-.23-2.97 3.57-4.79 7.91-7.51 11.61-1.78-.72-.2-3.07-.3-4.46 1.77-2.34 3.42-4.77 5.42-6.92z"/><path fill="#c4b1a6" d="M282.2 93.03c1.67-.46 2.49 1.67 1.91 2.96-1.61 1.11-3.01-1.81-1.91-2.96z"/><path fill="#665147" d="M244.45 95.36c2.03-1.26 2.95 3.23.82 3.42-1.39-.36-1.74-2.43-.82-3.42z"/><path fill="#d9c3b6" d="M232.15 95.79c.48-.03 1.44-.09 1.93-.13.8 4.22-.35 8.42-2.22 12.18-.66-.16-1.98-.47-2.65-.63 1.95-3.51 2.63-7.46 2.94-11.42z"/><path fill="#978379" d="M285.74 97.78c-.12-1.28 1.82-2.38 2.28-.81 4.75 9.2 8.56 18.85 12.47 28.43 1.91 5.6 3.37 11.4 4.35 17.24-1.32 4.07-3.34 8.01-3.29 12.39.58-16.15-4.72-31.74-11.28-46.27l.11-.59c1.48-1.32-.12-4.57-1.68-2.39l-.23.25c-.28-.63-.84-1.9-1.12-2.53l.12-.57c.68-1.94-.83-3.6-1.73-5.15z"/><path fill="#c1b4ac" d="M287.47 102.93c-1.44-.84-3.62-4-1.73-5.15.9 1.55 2.41 3.21 1.73 5.15z"/><path fill="#fcf5ee" d="M283.22 98.77c6.35 11.69 11.6 24.03 14.28 37.11 1.12 3.97.78 8.13 1.07 12.2-5.79-16.16-15.1-31.72-15.35-49.31z"/><path fill="#b0a299" d="M288.7 105.78c1.56-2.18 3.16 1.07 1.68 2.39-.42-.6-1.26-1.79-1.68-2.39z"/><path fill="#857167" d="M187.7 108.15c3.26-1.22 5.96 2.23 6.54 5l-1.01.26c-1.91-1.68-3.7-3.5-5.53-5.26z"/><path fill="#93837a" d="M179.06 119c2.1-2.99 2.03-9.1 6.98-8.49 2.79 1.21 4.84 3.59 6.18 6.25-4.53-.51-9.28-.46-13.16 2.24z"/><path fill="#fabf9f" d="M180.2 120.61c2.54-.82 5.05-2.3 7.81-1.96 1.72.46 3.27 1.52 4.48 2.82 1.28 7.72-1.61 15.32-2.14 23.01-4.42-4.7-.58-11.59-2.66-17.06-1.9-2.84-5.33-4.17-7.49-6.81z"/><path d="M270.03 118.74c1.24 1.59 2.71 3.15 3.08 5.22 1.35 5.89 1.1 11.99 1.59 17.98.71 8.05-1.12 16.01-1.11 24.05.24 2.29-2.6 2.86-3.95 4.14-1.16-3.05-2.67-5.99-3.37-9.19.77-4.09 2.8-7.87 3.26-12.05 1.04-10 1.81-20.13.5-30.15zM150.06 276.05c2.44 1.58 4.84 3.2 7.29 4.75 1.36 5.3.93 10.79.92 16.2-.14 6.08.31 12.17-.27 18.23-.38-.17-1.15-.52-1.54-.69-.46-13-1.92-26.19-6.4-38.49z" fill="#7e6a60"/><path d="M19.64 119.47c.21 3.75-1.42 7.38-4.02 10.03 1.13-3.42 2.39-6.81 4.02-10.03zm362.57 155.1c0-3.71 1.46-7.35 4.07-9.99-.99 3.47-2.27 6.86-4.07 9.99z" fill="#dbd5d2"/><path d="M169.77 134.16c-.17-5.02-.78-10.59 2.17-14.99 1.43.36 2.86.73 4.31 1.05-.73 5.25-4.45 9.22-6.48 13.94zm-16.83-5.84c-5.58 9.09-12.96 18.4-12.2 29.69-.29-.76-.58-1.53-.86-2.29-1.05-.62-2.1-1.25-3.14-1.87-3.58 2.27-6.15 5.86-7.43 9.89-.12.35-.37 1.04-.49 1.39l-1.76-1.04c-2.1 4-3.36 10.21-8.72 10.82-.14-.73-.4-2.18-.53-2.91 1.49-4.01 3.69-7.71 5.58-11.54 2.32-4.8 6.94-7.85 9.64-12.4 5.85-7.29 11.58-15.09 19.91-19.74zm11.09 29.42c-4.43-9.67-3.18-21.14 2.24-30.14.22 4.33.24 8.93 2.84 12.63-1.59 8.01-1.37 16.17-2.37 24.24-1.2-.58-2.39-1.16-3.58-1.76-1.39-2.71-2.08-5.69-3.02-8.57 1.24 1.25 2.54 2.45 3.89 3.6zm41.99-19.82c3.34 3.04 6.29 6.67 10.41 8.7 6.45 2.77 12.47 6.81 19.68 7.29 4.2 4.52 8.28 9.21 13.27 12.9-.16 1.82-.34 3.64-.5 5.46-1.59.01-3.45.76-4.8-.43-2.75-2.07-5.8-4.03-7.46-7.16-.13-.19-.39-.58-.53-.77-.54-.42-1.09-.83-1.64-1.23-2.36-4.89-8.36-4.76-11.97-8.17-2.93-2.97-7.54-2.75-10.73-5.29-1.52-1.35-2.26-3.31-3.25-5.03-.31.28-.92.85-1.22 1.14-.48-2.46-.91-4.93-1.26-7.41z" fill="#f8c9b1"/><path d="M161.17 120.97c.16-.05.48-.14.64-.19-3.93 4.29-5.84 9.88-7.15 15.44-.38-.33-1.14-.98-1.51-1.3-1.21 7.64-3.84 14.95-7.15 21.92-.62.3-1.25.61-1.86.93-.15.36-.44 1.1-.59 1.46l-.11.33c-.77-5.28.32-10.61 2.76-15.31 4.14-8.27 9.18-16.08 14.97-23.28zm93.93 55.81c4.64 1.78 5.6 7.07 6.52 11.37-1.55.9-3.22 1.56-4.98 1.9-.29-.76-.86-2.27-1.15-3.02-.41 1.58-.8 3.17-1.25 4.74.06-5.01.34-10.02.86-14.99z" fill="#f6c9b1"/><g fill="#fde5d1"><path d="M169.77 134.16c2.03-4.72 5.75-8.69 6.48-13.94 1.3.19 2.62.32 3.95.39 2.16 2.64 5.59 3.97 7.49 6.81 2.08 5.47-1.76 12.36 2.66 17.06-.13 2.86-.23 5.74.13 8.6.61 4.73 3.84 9.06 8.4 10.66-1.72-3.11-4.08-6.06-4.18-9.78-.57-8.75.26-17.53 1.55-26.18 1.76 3.5.85 7.53 1.38 11.28.8 7.4 2.94 14.69 6.4 21.29.04.37.14 1.1.19 1.47-.59.49-1.78 1.49-2.37 1.99-.83.55-1.68 1.06-2.52 1.59 0 1.14.02 2.29.03 3.44 2.26-1.69 4.77-2.99 7.49-3.75 3.61 5.78 9.87 8.73 16.23 10.39-3.59-3.46-6.59-7.48-8.78-11.98 7.4-1.52 15.11-1.05 22.32 1.18 1.66 3.13 4.71 5.09 7.46 7.16 1.35 1.19 3.21.44 4.8.43-.36 3.57.14 7.15.28 10.72-.1 3.47-.67 6.91-1.01 10.36-.44-2.88-.19-6.06-2.21-8.42-.29 5.1.24 10.31-1.18 15.29-1.63 5.65-3.79 11.26-7.46 15.93-1.97-4.16-6.83-3.91-10.76-3.67-8.62.77-15.73 8.21-17.31 16.54-4.14-.43-7.84-2.67-10.73-5.55-4.94-5.32-7.31-12.46-8.89-19.4-.61-7.05-1.37-15.55 4.49-20.76-3.83-.74-5.33 3.46-6.68 6.18-3.93-1.17-8.17-.69-11.44 1.87-.96-.95-1.91-1.9-2.89-2.81 2.14 8.04 1.08 16.66-2.03 24.3-2.43 5.71-7.55 9.74-13.21 11.98-.21-5.1-5.93-6.58-9.98-7.76-6.61-1.94-14.36-1.37-19.72 3.31-2.37-3.03-4.81-6.35-5.08-10.33-.97-8.01-2-16.02-3.21-24-.6-3.15 1.5-5.87 2.71-8.59-1.19.49-2.38.99-3.56 1.49-.21-1.35-.42-2.7-.67-4.04 5.36-.61 6.62-6.82 8.72-10.82l1.76 1.04c.33.18 1 .54 1.33.72 7.18-1.4 14.52-1.41 21.81-1.5 3.25.38 6.43 1.53 9.75 1.08 1.48 1.49 3.05 2.9 4.8 4.07.3.5.9 1.5 1.21 2 .64.06 1.92.17 2.56.23-2.31-3.07-5.72-5.28-7.12-9.02 1.19.6 2.38 1.18 3.58 1.76 1-8.07.78-16.23 2.37-24.24.63.17 1.91.51 2.55.68-.63-2.25-1.47-4.45-1.89-6.75m-39.62 54.78c.49.55 1.46 1.65 1.94 2.2 6.47-3.07 13.97-5.72 21.12-3.5.45.29 1.34.85 1.79 1.14 1.12-.12 2.24-.15 3.37-.08.08-1.42-.45-2.71-.98-3.99-.57-.1-1.71-.31-2.27-.42-.39-.42-1.15-1.26-1.53-1.68-1.57-.25-3.13-.51-4.7-.76-2 .93-4.02-.7-6 .34-4.55 1.44-9.68 2.83-12.74 6.75m79.71-2.34c-2 .25-5.53 1.29-3.34 3.86 9-2.71 19.89-1.36 26.3 6.06l1.04-.54c.32-2.94-2.27-4.88-4.28-6.53-5.86-3.55-13.09-4.63-19.72-2.85m-62.04 9.2c-.23 6.27.29 13.61 5.64 17.8 1.72 1.81 4.39 1.29 6.17-.13 2.99-6.21 4.13-14.02-.04-19.98-1.67-1.61-3.69-2.81-5.54-4.2-2.9 1.28-5.52 3.25-6.23 6.51m55.58 12.17c1.34 4.01 5.27 7.17 9.61 6.76 5.42-3.59 5.55-10.94 5.2-16.76-.1-4.76-4.8-8.33-9.43-7.49-5.6 3.97-5.78 11.29-5.38 17.49z"/><path d="M176.28 193.36c3.21-2.19 7.21-3.63 10.98-1.9-2.31 10.99 1.03 22.72 7.54 31.7 3.85 4.25 8.8 8.45 14.83 8.63-.47 6.96 4.36 13.38 10.62 16.03 3.8 2.52 8.39 1.43 12.6.93-1.02 2.25-2.1 4.5-3.79 6.32-4.09 4.56-7.41 9.87-12.32 13.64-7.1 5.35-14.09 11.14-22.48 14.37-9.02 3.03-19.14 2.45-27.67-1.85-5.25-2.47-9.58-6.41-14.58-9.3-8.66-6.01-16.78-13.51-20.92-23.42 4.09.62 7.62 3.72 11.92 2.9 8.51-.69 14.06-8.7 16-16.35.7-2.27-.27-4.53-.9-6.68 6.05-2.55 11.86-6.55 14.93-12.52 3.25-6.99 3.84-14.91 3.24-22.5m6.91 19.8c-1.19 2.61-2.2 5.3-3.04 8.04-.84 2.32.11 4.45 1.57 6.22 1.17.32 2.33.65 3.5.99 2.86-4.53 1.69-10.34.52-15.25h-2.55m-2.49 30.4c-2.06 2.21-4.12 4.63-4.85 7.65-.1 2.37.41 5.27 2.91 6.25.35 1.01.69 2.02 1.02 3.04-.4-.13-1.2-.39-1.59-.53.87 2.26 1.95 4.91 4.68 5.33 2.68 1.26 4.84-1.06 6.77-2.55.06-.68.17-2.04.23-2.72 1.53-1.15.76-3.44 1-5.07.24-4.27-.72-8.87-4.38-11.5-1.93.02-3.86.05-5.79.1z"/></g><path fill="#8e7e72" d="M97.94 144.02c.52-6.63 3.25-12.91 6.85-18.44-1.75 6.61-3.02 13.33-3.09 20.2-.97 2.59-2.52 5.13-2.36 7.99.07 3.43 1.66 6.54 3.11 9.56l-.31 1c-1.65-.71-3.31-1.41-4.95-2.14-.2-.39-.61-1.16-.81-1.55 1.32-5.45.85-11.09 1.56-16.62z"/><path d="M15.31 130.03c1.29.77 1.12 1.35-.52 1.74.13-.43.39-1.3.52-1.74zm371.92 1.7c-1.65-.33-1.85-.9-.58-1.71.15.43.44 1.28.58 1.71z" fill="#cac7c5"/><path d="M14.43 132.91c1.37 1.85.45 3.97-1.46 4.95-.14-1.79.36-3.53 1.46-4.95zm374.69 4.87c-2.08-.81-2.89-3.01-1.54-4.86 1.03 1.41 1.59 3.09 1.54 4.86z" fill="#d8d3d1"/><path fill="#af9e93" d="M138.76 138.24c-1.94-1.58.47-3.69 2.34-3.05-.69 1.08-1.38 2.18-2.34 3.05z"/><path fill="#816d63" d="M104.25 146.33c-.8-3.48-1.13-7.17.38-10.51.34 3.45 1.53 7.3-.38 10.51z"/><path fill="#dbd6d3" d="M393.22 153.24c-2.5-4.49-3.89-9.66-4.02-14.79 1.94 4.74 3.4 9.69 4.02 14.79z"/><path fill="#f6f0e8" d="M301.55 155.03c-.05-4.38 1.97-8.32 3.29-12.39.23 5.27 2.02 11.99-2.96 15.71-.09-.83-.25-2.49-.33-3.32z"/><path d="M207.28 145.33c.3-.29.91-.86 1.22-1.14.99 1.72 1.73 3.68 3.25 5.03 3.19 2.54 7.8 2.32 10.73 5.29 3.61 3.41 9.61 3.28 11.97 8.17l-1.47-.5c-1.87-.65-3.76-1.22-5.7-1.61-4.77-1.35-9.77-1.42-14.68-1.03-.31-.43-.93-1.3-1.24-1.73-1.98-3.94-3.64-8.06-4.08-12.48zm46.96 46.44c.45-1.57.84-3.16 1.25-4.74.29.75.86 2.26 1.15 3.02 1.76-.34 3.43-1 4.98-1.9.14 6.03-.03 13.61-5.12 17.7 1.08 1.38 2.16 2.76 3.13 4.23.03 1.92.25 3.93-.38 5.79-.9 1.55-2.69 2.16-4.12 3.07-1.69-1.53-2.98-3.42-3.84-5.53.66.32 1.98.96 2.64 1.27.78.69 1.64 1.78 2.84 1.15 1.49-1.45.75-3.67.77-5.5-.72-.82-1.46-1.64-2.19-2.44-.84.95-1.66 1.91-2.49 2.86-.97-6.36.45-12.71 1.38-18.98z" fill="#fde5d2"/><path fill="#837166" d="M99.34 153.77c-.16-2.86 1.39-5.4 2.36-7.99 1 5.77 3.62 11.86.75 17.55-1.45-3.02-3.04-6.13-3.11-9.56z"/><path fill="#7c695e" d="M234.58 147.68c2.16.42 3.3 2.51 5.15 3.5 1.94 1.12 3.99 2.38 4.49 4.76-3.74-1.86-8.17-4.1-9.64-8.26z"/><path d="M257.26 166.15c6.4-3.93 6.86-12.28 10.17-18.27-1.66 6.49-3.52 13.15-7.86 18.44-1.32.29-2.63.6-3.94.93-1.47-3.59-.84-7.54-1.39-11.3 1.7-1.41 3.66-2.44 5.9-2.65.76-1.39 2.04-2.06 3.58-2.25-1.34 4.29-3.16 8.48-6.27 11.81-.05.82-.14 2.47-.19 3.29zm-39.77 197.57c1.71-4.23-1.06-9.86 2.51-13.32-.77 12.31 1.28 26.38 11.69 34.41-.23.68-.67 2.02-.89 2.7-1.14.02-2.27.05-3.41.09.3-.41.88-1.23 1.18-1.64-6.92-3.57-11.38-10.45-13.1-17.91.64-1.46 1.41-2.86 2.02-4.33z" fill="#948379"/><path fill="#6b584e" d="M246.27 150.18c1.4-.42 1.94.06 1.6 1.45-1.4.42-1.93-.07-1.6-1.45z"/><path fill="#79665b" d="M250.14 151.34c1.39-1.2 2.63 1.3 1.34 2.17-1.38 1.23-2.69-1.31-1.34-2.17z"/><path fill="#fae7d1" d="M129.31 163.74c1.28-4.03 3.85-7.62 7.43-9.89 1.04.62 2.09 1.25 3.14 1.87.28.76.57 1.53.86 2.29.44 1.44 1.34 2.51 2.7 3.21v-1.66l.11-.33c3.32 1.8 7.47.15 10.7 2.32-8.37-.44-16.94-.75-24.94 2.19z"/><path fill="#483126" d="M213.07 161.74c4.64-1.13 9.47-.97 14.21-1.17 1.94.39 3.83.96 5.7 1.61l1.47.5c.55.4 1.1.81 1.64 1.23.14.19.4.58.53.77-7.21-2.23-14.92-2.7-22.32-1.18 2.19 4.5 5.19 8.52 8.78 11.98-6.36-1.66-12.62-4.61-16.23-10.39-2.72.76-5.23 2.06-7.49 3.75-.01-1.15-.03-2.3-.03-3.44.84-.53 1.69-1.04 2.52-1.59 3.82-.17 7.52-1.19 11.22-2.07z"/><path d="M257.66 173.03c.62-4 5.05-5.89 7.17-9.13 1.16 3.95 2.45 7.88 3.35 11.91-1.8 1.19-3.61 2.37-5.42 3.55-1.6-2.19-3.58-4.09-5.1-6.33zm-124.47 86.95c3.43 3.57 5.92 8.06 10.14 10.83 3.29 2.31 4.77 6.24 6.09 9.87 2.35 7.2 3.28 14.78 3.89 22.31.36 5.13 1.39 10.24.86 15.4-.91 2.44-1.24 5.09-2.33 7.46-.89.77-2.05 1.63-2.93.35.97-1.3 2.07-2.5 3.15-3.7-1.31.02-2.62.05-3.92.08-.49 1.87-1.01 3.73-1.56 5.58-2.89-7.22-3.28-15.07-5.43-22.49-1.77-5.95-1.92-12.24-3.67-18.2-1.6-5.47-3.16-11-5.94-16.01-1.71-2.77-1.53-6.09-1.41-9.21 1.02-.76 2.04-1.51 3.06-2.27zm86.67 30.95c2.23-8.94 3.3-18.6 8.68-26.34 3.76 1.51 4.7 5.85 5.43 9.4 1.54 8.48-1.83 16.91-.5 25.38.15 3.75-.92 7.59.65 11.2.81 1.63-1.59 1.98-2.47 2.69-.02-.94-.05-2.82-.07-3.75-2.75 2.16-3.07 5.81-4.01 8.93-1.23 4.26-2.49 8.51-3.3 12.87-1.19 6.42-3.91 12.5-4.27 19.09-3.57 3.46-.8 9.09-2.51 13.32-.61 1.47-1.38 2.87-2.02 4.33-3.25-15.88-1.1-32.22 2.11-47.92 1.06-5.29.69-10.74 1.96-16 1.08-4.37-.93-8.84.32-13.2z" fill="#806d63"/><path fill="#69564c" d="M298.19 169.17c.2-1.72-.66-4.35 1.9-4.51-.42 1.58.56 4.42-1.9 4.51z"/><path fill="#635148" d="M106.18 166.16c1.42-1.23 2.46 1.47 1.32 2.33-1.41 1.24-2.47-1.47-1.32-2.33z"/><path fill="#99877d" d="M291.53 169.83c1.71.21 3.4-.06 5.04-.54.02 10.55-1.25 21.41 1.87 31.67-2.16-2.07-1.52-5.26-1.98-7.93-1.11-7.84-3.02-15.53-4.93-23.2z"/><path d="M104.03 170.46c2.4 2.28 1.35 5.5 1.31 8.38.94.98 2.38.83 3.6 1.09-4.21 7.22-5.1 15.86-4.06 24.04.43 4.49 2.67 8.52 5.76 11.73-.27 2.56-1.24 5.7.71 7.85 1.32 1.76 3.75 1.45 5.67 1.86-1.18 12.3-4.23 24.35-5.3 36.67-.12 3.97 1.1 9.19 5.57 10.25-1.4-2.62-3.46-5.15-3.16-8.31.39-13.22 4.22-26.02 5.73-39.12.67 2.24.9 4.58.57 6.91-1.37 11.77-4.57 23.74-1.94 35.58.96 4.61 3.47 9.17 8.05 11-.73-3.44-4.2-5.36-5.11-8.73-1.96-7.05-1.98-14.52-1.03-21.73.56-3.9.46-8 2.19-11.62.97 3.03 1.49 6.18 2.17 9.28 1.39 5.48 4.79 10.17 8.43 14.39-1.02.76-2.04 1.51-3.06 2.27-.12 3.12-.3 6.44 1.41 9.21 2.78 5.01 4.34 10.54 5.94 16.01 1.75 5.96 1.9 12.25 3.67 18.2-.5 3.64-2.04 7.33-.98 11.01.69 2.7.8 5.48.7 8.25-.14 5.99.95 12.01.02 17.97-.91 1.33-2.18 2.35-3.33 3.46.17-17.14-2.28-34.33-7.34-50.7-.41-.43-1.24-1.28-1.66-1.71 1.14 8.45 3.93 16.59 5.08 25.05 1.2 8.63 1.94 17.4.83 26.08.75 12.16-.04 24.34.07 36.52-1.11-.33-2.22-.64-3.31-1-1.48-8.53-4.74-16.89-3.8-25.69.65-4.75-.02-9.51.06-14.26-1.86-.49-4.99-1.28-5.07 1.61-1.48 11.23-1.45 22.61-1.77 33.92-9.93-4.81-20.18-9.44-28.78-16.47-.97-7.43-2.58-15.33 1.19-22.29-1.03-1.07-1.84-2.33-2.52-3.64-4.33 5.99-5.42 13.7-5.85 20.9-.23-.15-.67-.44-.89-.58.01-8.7.16-17.42 1.19-26.06.36-.31 1.08-.94 1.44-1.25-.44-4.06 3.01-6.95 3.56-10.81 2.09-9.66 5.54-19.07 6.44-28.97.57-13.47.16-27.19-4.21-40.08-1.21 3.68-2.44 7.35-3.49 11.08-2.87 8.34-5.69 17.04-5.12 25.96-.26 1.74-.37 3.5-.49 5.26 5.6-9.12 10.96-19.71 8.58-30.73-2.04 2.78-.6 6.54-1.75 9.68.16-2.7.12-5.4.07-8.09.13-2.48.45-4.94.81-7.38 3.15 5.89 3.03 12.83 3.44 19.32.97 13.03-3.16 25.62-5.94 38.18-.61 4.35-3.44 7.87-4.84 11.96-5.13-6.12-6.56-14.61-4.62-22.25.75-2.8 1.33-5.64 1.62-8.52l-1.38.53c1.17-4.18.99-8.56 1.49-12.83 1.06-9.68 4.42-18.89 7.75-27.98 1.12-2.99 2.94-5.82 3.03-9.09.17-10.92 3.99-21.29 6.2-31.88.54-2.78 1.07-5.55 1.85-8.26-1.34 12.46-3.89 24.76-5.33 37.21l.99.7c2.23-5.51 2.4-11.56 3.5-17.35 2.97-17.19 4.43-34.59 5.44-51.99m6.16 146.17c-.92 2.7-.18 7.77 3.28 7.91-1.11-2.62-1.2-5.8-3.28-7.91m-7.03 9.25c-.7 3.22-3.17 7.95-.22 10.44.41-3.18 1.24-6.31 1.51-9.5-.32-.24-.97-.7-1.29-.94zm159.6-146.52c1.81-1.18 3.62-2.36 5.42-3.55 1.56 7.74 3.67 15.38 4.55 23.24 4.61 17.6 1.93 36.14 5.72 53.89 1.99 11.33 7.56 21.66 9.6 33 2.02 11.47 4.19 23.1 9.45 33.61 2.85 8.19 8.85 15.04 10.4 23.7 1.35 5.63.16 11.47 1.33 17.13-4.61 3.62-9.65 6.67-14.85 9.34-.46-.33-1.36-.98-1.81-1.31.41-2.81 1.2-5.63.67-8.47-1.39-7.77-.09-16.02-3.81-23.28-.17-2.4-.43-4.79-.81-7.16-4.37-4.56-4.19-11.53-7.52-16.73l-2.31-1.39c1.13 4.83 3.63 9.19 4.79 14.02 1.3 5.13 3.54 10.15 3.2 15.56-.25 6.69.18 13.42-.76 20.07-.55 4.08-.76 8.19-.89 12.3-1.17 2.29-3.82 2.96-5.97 3.99-6.23 2.54-12.49 5.09-18.95 7.01-.64-6.4-4.45-11.85-5.4-18.17-1.18-6.6-2.39-13.4-1.62-20.11 1.82-8.87 1.93-18.1.4-27.02-.63 4.02-1.63 8.03-4.12 11.34-.66 3.21-.5 6.56-1.34 9.75-1.66-1.02-3.31-2.05-4.97-3.06-.12-4.31-.17-8.63-.31-12.94-1.01 1.45-2.01 2.91-3.03 4.36-3.91-4.36.08-10.88-3.24-15.61.61-1.91 1.28-3.85 1.28-5.89-.13-7.28.78-14.53.89-21.82-.09-5.38 1.82-10.49 2.62-15.76 1.45-5.97 2.28-12.12 4.55-17.85-1.77-.72-3.55-1.42-5.33-2.1-1.26 1.27-2.25 3.48-4.44 2.86 6.31-7.38 7.71-17.27 10.99-26.11 1.89 1.47 2.18 3.85 2.18 6.09-.09 15.05-.59 30.16-3.21 45.01 2.49-.31 3.88-2.38 4.53-4.61 1.6-4.26 2.12-8.81 2.68-13.29 1.49-1.21 3.01-2.56 3.4-4.54 3.01-11.82 2.23-24.37-1.59-35.92 1.43-.91 3.22-1.52 4.12-3.07.63-1.86.41-3.87.38-5.79.32-.26.97-.77 1.3-1.03 1.02-4.38 3.45-8.39 3.66-12.95.52-5.63.24-11.43-1.83-16.74m3.6 114.71c.41 3.4 2.03 6.55 4.47 8.94-.49-3.03-1.99-5.76-3.27-8.5l-1.2-.44m-6.77 13.24c.1-3.78.55-7.52.76-11.29-2.35 3.09-2.58 7.89-.76 11.29m20.74 44.02c-1.09.64-1.49 2.39-.75 3.43 1.88.96 2.72-3.36.75-3.43z" fill="#918278"/><path fill="#79665c" d="M255.08 171.33c1.31.23 1.52.95.62 2.19-1.32-.23-1.53-.96-.62-2.19z"/><path fill="#d4cfcc" d="M4.46 179.5c1.18 4.58.69 9.33-.29 13.9-.06-4.63-.71-9.32.29-13.9z"/><path fill="#fce5d2" d="M112.51 180.54c1.46-1.18 1.89 1.38 2.5 2.29 1.44 7.01.8 14.25 1.92 21.31.72 4.16 1.58 8.31 1.88 12.53-2.02-.35-3.57-1.59-5.01-2.94-.2.57-.61 1.71-.81 2.28-.32 1.9-.38 3.83-.5 5.76 1.89 1.19 3.65.52 5.18-.9l1.4-.34c-.7 1.62-1.42 3.23-2.05 4.88-1.92-.41-4.35-.1-5.67-1.86-1.95-2.15-.98-5.29-.71-7.85.7-1.23 1.44-2.42 2.19-3.61-3.11-4.06-5.37-8.88-5.22-14.11-.51-6.25 2.8-11.79 4.9-17.44z"/><path d="M397.82 192.37c-1.04-4.23-1.34-8.63-.27-12.88.94 4.24.39 8.59.27 12.88zM4.09 201.63c1.1 4.21 1.42 8.62.4 12.89-.94-4.25-.43-8.6-.4-12.89zm393.46 12.91c-1.04-4.27-.79-8.68.32-12.9.06 4.3.55 8.64-.32 12.9z" fill="#d2cdca"/><path fill="#442e25" d="M130.15 188.94c3.06-3.92 8.19-5.31 12.74-6.75 1.98-1.04 4 .59 6-.34 1.57.25 3.13.51 4.7.76.38.42 1.14 1.26 1.53 1.68.56.11 1.7.32 2.27.42.53 1.28 1.06 2.57.98 3.99-1.13-.07-2.25-.04-3.37.08-.45-.29-1.34-.85-1.79-1.14-7.15-2.22-14.65.43-21.12 3.5-.48-.55-1.45-1.65-1.94-2.2z"/><path d="M98.26 197.97c.45-3.41 1.32-6.75 2.41-10.01-.05 3.03.1 6.14-.75 9.09-.42.23-1.24.69-1.66.92zm124.22 153.97c4.72 8.88 9.6 18.57 8.98 28.92-8.39-6.84-8.97-18.9-8.98-28.92z" fill="#8e7c72"/><path d="M147.82 195.8c.71-3.26 3.33-5.23 6.23-6.51 1.85 1.39 3.87 2.59 5.54 4.2 4.17 5.96 3.03 13.77.04 19.98-1.78 1.42-4.45 1.94-6.17.13-5.35-4.19-5.87-11.53-5.64-17.8zm55.58 12.17c-.4-6.2-.22-13.52 5.38-17.49 4.63-.84 9.33 2.73 9.43 7.49.35 5.82.22 13.17-5.2 16.76-4.34.41-8.27-2.75-9.61-6.76z" fill="#4a322b"/><path fill="#ffecdb" d="m247.05 200.34.55-1.5c-.03 6.95-2 13.67-3.23 20.46-1.34-1.02-2.68-2.03-4.01-3.04 3.36-4.76 5.22-10.34 6.69-15.92z"/><path fill="#9d8f85" d="M257.54 210.33c-.02 1.83.72 4.05-.77 5.5-1.2.63-2.06-.46-2.84-1.15 1.41-1.26 2.63-2.72 3.61-4.35z"/><path d="M226.54 212.48c3.93-.24 8.79-.49 10.76 3.67-3.42 4.83-8.18 8.71-13.85 10.55l-.54-.58c-.23-.34-.67-1.02-.89-1.35l-1.53-.28.6 1.67c0 .35.01 1.06.01 1.41-3.74 1.55-7.88 1.75-11.87 1.45 1.58-8.33 8.69-15.77 17.31-16.54zm-98.39 7.9c5.36-4.68 13.11-5.25 19.72-3.31 4.05 1.18 9.77 2.66 9.98 7.76-9.48 5.05-22.29 3.52-29.7-4.45z" fill="#fbbdac"/><path fill="#f6bcac" d="M183.19 213.16h2.55c1.17 4.91 2.34 10.72-.52 15.25-1.17-.34-2.33-.67-3.5-.99.97-.11 2.92-.32 3.89-.42-1.16-2.5-2.99-4.54-5.46-5.8.84-2.74 1.85-5.43 3.04-8.04z"/><path d="M112.49 221.77c.12-1.93.18-3.86.5-5.76-.5 3.03 2.52 3.84 4.68 4.86-1.53 1.42-3.29 2.09-5.18.9zm171.81 29.02c4.67 7.31 8.93 14.88 13.31 22.36 3.76 6.86 5.63 14.5 8.18 21.84 2.35 9.17 5.17 18.48 4.81 28.05.07 3.77-2.41 7.11-1.85 10.9-.73-.8-1.5-1.57-2.25-2.34-.04-3.06-.12-6.13-.31-9.18.28-3.47.62-6.99-.11-10.42-2.09-10.48-5.17-20.73-8.54-30.87-1.49-4.43-3.79-8.51-6.1-12.55-1.57-2.66-2.61-5.77-5.09-7.75-1.08-3.25-1.89-6.61-2.05-10.04z" fill="#8b7e74"/><path d="M233.98 223.97c2.36-2.36 4.51-4.95 6.38-7.71 1.33 1.01 2.67 2.02 4.01 3.04-1.85 6.34-4.13 12.55-6.07 18.87-1.13 3.86-3.52 7.12-5.45 10.58-4.21.5-8.8 1.59-12.6-.93-6.26-2.65-11.09-9.07-10.62-16.03 4.19.02 8.36-.58 12.55-.55.12-.3.35-.92.46-1.22 2.62-1.01 5.22-2.09 7.64-3.51-.28 2.57-.4 5.15-.32 7.74 4.34-1.41 3.69-6.67 4.02-10.28zm-109.38-3.72c3.09 3.73 6.7 7.21 11.39 8.79.3 2.82 1.02 5.58 2.32 8.12 2.85-1.09 2.29-4.05 1.87-6.47 1.58.3 3.16.6 4.74.91.89 1.38 1.8 2.75 2.74 4.1 1.1-2.79 2.9-5.24 6.05-5.74 1.48-.48 2.94-1.01 4.4-1.58.63 2.15 1.6 4.41.9 6.68-1.94 7.65-7.49 15.66-16 16.35-4.3.82-7.83-2.28-11.92-2.9-2.38-5.96-3.22-12.35-4.91-18.51-.84-3.19-1.12-6.5-1.58-9.75z" fill="#fcbdac"/><path fill="#817164" d="M249.9 217.7c2.03 4.51 2.11 9.54 3.19 14.3 1.83 9.04 1.47 18.31.23 27.4-.56 4.48-1.08 9.03-2.68 13.29-.65 2.23-2.04 4.3-4.53 4.61 2.62-14.85 3.12-29.96 3.21-45.01 0-2.24-.29-4.62-2.18-6.09.81-2.87 1.69-5.72 2.76-8.5z"/><path fill="#e39e8b" d="M180.15 221.2c2.47 1.26 4.3 3.3 5.46 5.8-.97.1-2.92.31-3.89.42-1.46-1.77-2.41-3.9-1.57-6.22z"/><path d="M230.28 226.51c1.28-.78 2.51-1.64 3.7-2.54-.33 3.61.32 8.87-4.02 10.28-.08-2.59.04-5.17.32-7.74zm-94.29 2.53c5.69 1.81 11.89 2.48 17.72.92-3.15.5-4.95 2.95-6.05 5.74-.94-1.35-1.85-2.72-2.74-4.1-1.58-.31-3.16-.61-4.74-.91.42 2.42.98 5.38-1.87 6.47-1.3-2.54-2.02-5.3-2.32-8.12z" fill="#e2927f"/><path fill="#604c42" d="M254.06 223.68c1.94 3.72 2.68 8.04 2.56 12.21l-.71.66c-1.76-3.92-1.88-8.58-1.85-12.87z"/><path fill="#806c61" d="M280.77 235.95c.7-1.92 2.01-.14 1.96 1.06.38 3.04.53 6.19-.37 9.15-1.19-3.26-1.86-6.75-1.59-10.21z"/><path fill="#fce6d1" d="M178.59 249.53c1.54-1.71 3.35-3.14 5.4-4.17 5.05 2.66 6.48 11.14 1.14 14.18-2.19-.61-4.33-1.38-6.36-2.41-.23-2.53-.25-5.07-.18-7.6z"/><path fill="#443126" d="M92.22 246.93c4.37 12.89 4.78 26.61 4.21 40.08-.9 9.9-4.35 19.31-6.44 28.97-.55 3.86-4 6.75-3.56 10.81-.36.31-1.08.94-1.44 1.25-1.03 8.64-1.18 17.36-1.19 26.06l-2.07-1.43c-.01-5.31.16-10.61-.1-15.91-1.49 4.2-2.39 8.57-3.6 12.86a32.68 32.68 0 0 0-3.07-2.04c.27-1.07.53-2.13.8-3.19 1.1-4.59 2.72-9.03 4.56-13.37.79-1.97 1.76-3.86 2.29-5.91-1.07-2.61-3.25-4.52-5.28-6.37-.32-1.43-.72-2.85-1.06-4.26-.95-4.82-.7-9.78-.22-14.64.63-2.77 1.83-5.37 3.06-7.91l1.38-.53c-.29 2.88-.87 5.72-1.62 8.52-1.94 7.64-.51 16.13 4.62 22.25 1.4-4.09 4.23-7.61 4.84-11.96 2.78-12.56 6.91-25.15 5.94-38.18-.41-6.49-.29-13.43-3.44-19.32-.36 2.44-.68 4.9-.81 7.38-.32-.52-.97-1.56-1.29-2.08 1.05-3.73 2.28-7.4 3.49-11.08z"/><path fill="#675449" d="M280.21 247.51c1.44.31 2.06 3.45.66 4.24-1.43-.66-1.49-3.08-.66-4.24z"/><path fill="#d8d2d0" d="M10.86 249.31c2.17 1.09 3.01 3.57 1.61 5.64-1.07-1.7-1.59-3.64-1.61-5.64z"/><path fill="#857769" d="M240.59 249.45c1.78.68 3.56 1.38 5.33 2.1-2.27 5.73-3.1 11.88-4.55 17.85-.8 5.27-2.71 10.38-2.62 15.76-.11 7.29-1.02 14.54-.89 21.82 0 2.04-.67 3.98-1.28 5.89 3.32 4.73-.67 11.25 3.24 15.61 1.02-1.45 2.02-2.91 3.03-4.36.14 4.31.19 8.63.31 12.94 1.66 1.01 3.31 2.04 4.97 3.06.84-3.19.68-6.54 1.34-9.75 2.49-3.31 3.49-7.32 4.12-11.34 1.53 8.92 1.42 18.15-.4 27.02-.77 6.71.44 13.51 1.62 20.11.95 6.32 4.76 11.77 5.4 18.17-6.85 1.77-13.61 4.13-20.67 4.92-.09-9.66 2.25-19.05 3.72-28.53-.92.33-1.84.66-2.76 1.01-.18-4.92-.68-9.84-1.65-14.66-.18-1.41-1.12-2.51-1.91-3.6-.17 10.71 3.38 21.57.65 32.19-1.64 4.67-1.59 9.64-2.14 14.5-1.07.13-2.15.18-3.23.24 2.28-5.13 1.96-10.98 1.7-16.45-.73-10.46-7.53-19.04-10.16-28.93.17-5.16 1.89-10.1 2.86-15.13 1.08-5.72 3.06-11.18 5.03-16.63.88-.71 3.28-1.06 2.47-2.69-1.57-3.61-.5-7.45-.65-11.2-1.33-8.47 2.04-16.9.5-25.38-.73-3.55-1.67-7.89-5.43-9.4 2.87-3.89 4.56-8.51 7.61-12.28 2.19.62 3.18-1.59 4.44-2.86z"/><path fill="#948279" d="M286.95 273.29c-1.59-6.56-5.48-12.66-5.38-19.55.94 2.42 1.74 4.91 2.54 7.38 3.15 11.75 8.05 22.94 13.14 33.95 3.62 8.42 4.85 17.54 6.74 26.43.23 2.22.41 4.44.48 6.66-2.87-4.86-5.22-10.01-7.43-15.2-5.23-12.71-5.85-26.66-10.09-39.67z"/><path fill="#fff7f0" d="M83.61 283.97c-.57-8.92 2.25-17.62 5.12-25.96.32.52.97 1.56 1.29 2.08.05 2.69.09 5.39-.07 8.09-1.15 5.61-3.74 10.75-6.34 15.79z"/><path fill="#f5c3b4" d="M178.19 259.97c.39.14 1.19.4 1.59.53 3.24 1.35 7.17 1.92 10.09-.47-.06.68-.17 2.04-.23 2.72-1.93 1.49-4.09 3.81-6.77 2.55-2.73-.42-3.81-3.07-4.68-5.33z"/><path fill="#39261d" d="m284.11 261.12 2.24-.29c2.6 5.98 3.9 12.42 6.45 18.42 2.84 6.46 6.3 12.67 8.35 19.46 2.1 6.7 3.75 13.58 4.63 20.56-.45.56-1.34 1.68-1.79 2.23-1.89-8.89-3.12-18.01-6.74-26.43-5.09-11.01-9.99-22.2-13.14-33.95z"/><path fill="#fbf5ed" d="M286.35 260.83c2.48 1.98 3.52 5.09 5.09 7.75 2.31 4.04 4.61 8.12 6.1 12.55 3.37 10.14 6.45 20.39 8.54 30.87.73 3.43.39 6.95.11 10.42-.1-.79-.31-2.36-.41-3.15-.88-6.98-2.53-13.86-4.63-20.56-2.05-6.79-5.51-13-8.35-19.46-2.55-6-3.85-12.44-6.45-18.42z"/><path fill="#7d6a5d" d="M211.14 282c.42-6.88 7.62-9.87 11.98-14.14-3.33 12.12-7.39 24.37-7.45 37.09-.09.75-.28 2.26-.38 3.01-1.52-1.3-1.59-3.38-2.07-5.17-1.67-6.79-2.02-13.83-2.08-20.79z"/><path fill="#7c6d62" d="M160.12 281.9c4.4 1.17 4.03 6.37 4.47 9.98.27 6.05 2.24 12.79-1.59 18.17-.34.52-1.71 2.7-2.07 1.13-.31-9.76.18-19.55-.81-29.28z"/><path fill="#fab89a" d="M192.75 288.86c4.65-2.16 9.68-3.65 13.82-6.78-.33 6.25-1.56 12.6-.02 18.79.87 4.14 3.91 7.36 5.1 11.39-5.34-2.11-8.56-7.71-8.52-13.33-.24-3-3.47-.32-4.62.64-6.74 6.65-16.73 9.22-25.96 7.73-.96-.89-1.92-1.77-2.87-2.65.26-6.72.25-13.62-2.16-20 .82.68 1.65 1.34 2.49 1.99 7.48 1.16 15.11 4.39 22.74 2.22z"/><path fill="#fde6d1" d="M198.51 299.57c1.15-.96 4.38-3.64 4.62-.64-.04 5.62 3.18 11.22 8.52 13.33.11.05.34.15.45.2-.29 4.98-.94 9.92-1.3 14.89-2.72 2.67-6.34 4.52-8.32 7.85.04.36.13 1.07.17 1.43l-.87-.87c-3.76-1.47-7.06 1.7-10.76 1.87-3.79.17-7.57-.23-11.36-.17-1.47-2.85-4.46-4.34-6.9-6.23-4.12-2.84-7.46-6.81-12.22-8.65-.03-1.46.02-2.93.05-4.38 4.56-3.27 7.91-8.03 9.09-13.55.95.88 1.91 1.76 2.87 2.65 9.23 1.49 19.22-1.08 25.96-7.73z"/><path fill="#dcd7d4" d="M32.54 299.73c3.34 1.93 4.81 5.63 6.99 8.61 7.23 10.31 15.22 20.15 24.34 28.85 1.32 1.32 2.55 2.72 3.75 4.16l-1.67-.15c-5.92-4.82-10.57-10.94-15.66-16.58-6.48-7.87-12.83-15.94-17.75-24.89z"/><path fill="#84786c" d="M73.12 315.06c1.63-4.95 2.13-10.11 2.93-15.22-.48 4.86-.73 9.82.22 14.64-1.52 4.7-2.05 9.66-2.55 14.56-.23 5.15-.57 10.68 2.04 15.35-.27 1.06-.53 2.12-.8 3.19-2.05-1.32-4.41-2.3-6.06-4.15 1.19.57 2.38 1.16 3.57 1.76-3.49-9.76-1.4-20.3.65-30.13z"/><path fill="#88786c" d="M141.15 305.67c2.15 7.42 2.54 15.27 5.43 22.49.55-1.85 1.07-3.71 1.56-5.58 1.3-.03 2.61-.06 3.92-.08-1.08 1.2-2.18 2.4-3.15 3.7.88 1.28 2.04.42 2.93-.35 1.09-2.37 1.42-5.02 2.33-7.46 1.17 8.2.03 16.52 1.36 24.69.34 2.63.53 5.49 2.55 7.46.19-1.85.34-3.69.51-5.52 1.38 3.86.44 7.93.48 11.91.36 10.6-.37 21.19-.37 31.79-6.54-1.25-12.97-3.08-19.18-5.48-.09-12.33-2.35-24.55-1.96-36.88 1.15-1.11 2.42-2.13 3.33-3.46.93-5.96-.16-11.98-.02-17.97.1-2.77-.01-5.55-.7-8.25-1.06-3.68.48-7.37.98-11.01z"/><path fill="#edc4b2" d="M212.1 312.46c.67.28 2.02.85 2.7 1.13-.35 4.72 1.01 11.03-4 13.76.36-4.97 1.01-9.91 1.3-14.89z"/><path fill="#d1bcaf" d="M110.19 316.63c2.08 2.11 2.17 5.29 3.28 7.91-3.46-.14-4.2-5.21-3.28-7.91z"/><path fill="#8d8075" d="M77.33 318.74c2.03 1.85 4.21 3.76 5.28 6.37-.53 2.05-1.5 3.94-2.29 5.91.21-4.31-2.7-8-2.99-12.28z"/><path fill="#edbfa9" d="M160.54 322.58c4.76 1.84 8.1 5.81 12.22 8.65 2.44 1.89 5.43 3.38 6.9 6.23-5.32-.85-9.75-4.23-13.84-7.51-2.16-2.12-4.36-4.4-5.28-7.37z"/><path fill="#cbbdb5" d="M103.16 325.88c.32.24.97.7 1.29.94-.27 3.19-1.1 6.32-1.51 9.5-2.95-2.49-.48-7.22.22-10.44z"/><path fill="#512b1c" d="M165.82 329.95c4.09 3.28 8.52 6.66 13.84 7.51 3.79-.06 7.57.34 11.36.17 3.7-.17 7-3.34 10.76-1.87-2.9 4.1-8.11 5.41-12.77 6.35-10.13-.45-20.83-3.37-28.18-10.74 1.68-.44 3.33-.93 4.99-1.42z"/><path fill="#db5c4c" d="m160.08 331.27.75.1c7.35 7.37 18.05 10.29 28.18 10.74 4.66-.94 9.87-2.25 12.77-6.35l.87.87c-.04-.36-.13-1.07-.17-1.43 4.07 1.76 7.71-1.3 10.33-4.1-.69 2.97-.75 6.11-1.72 9-2.6 2.74-5.57 5.18-8.74 7.24-4.59 2.01-9.63 2.66-14.51 3.66.29-.5.87-1.49 1.16-1.99-2.23 1.16-4.7 1.42-7.03.4-6.52-1.99-14.16-1.96-19.17-7.24-3.73-2.38-3.15-7.13-2.72-10.9z"/><path fill="#4a372c" d="M84.69 354.68c.43-7.2 1.52-14.91 5.85-20.9.68 1.31 1.49 2.57 2.52 3.64-3.77 6.96-2.16 14.86-1.19 22.29-1.36-.86-2.63-1.83-3.82-2.9-1.12-.71-2.26-1.41-3.36-2.13z"/><path fill="#7d6a60" d="M289.43 336.66c3.72 7.26 2.42 15.51 3.81 23.28.53 2.84-.26 5.66-.67 8.47.45.33 1.35.98 1.81 1.31-2.14 1.01-4.3 1.96-6.43 2.99.15-5.93.25-11.88 1.04-17.78.85-6.06.15-12.18.44-18.27z"/><path fill="#7e7164" d="M122.42 342.26c.08-2.89 3.21-2.1 5.07-1.61-.08 4.75.59 9.51-.06 14.26-.94 8.8 2.32 17.16 3.8 25.69-3.55-1.42-7.01-3.04-10.58-4.42.32-11.31.29-22.69 1.77-33.92z"/><path fill="#453128" d="M236.94 343.47c.79 1.09 1.73 2.19 1.91 3.6.97 4.82 1.47 9.74 1.65 14.66.92-.35 1.84-.68 2.76-1.01-1.47 9.48-3.81 18.87-3.72 28.53-1.39.16-2.74.54-4.09.91.55-4.86.5-9.83 2.14-14.5 2.73-10.62-.82-21.48-.65-32.19z"/><path fill="#fcab9f" d="M199.62 351.35c4.44-.87 7.64-4.25 11.1-6.87-.84 12.8.66 26.14 6.71 37.62-10.81 6.25-23.72 4.47-35.64 4.24-1.27-6.22-3.14-12.39-6.31-17.92-2.48-4.34-6.03-7.92-8.95-11.95-2.38-3.13-2.94-7.18-5.05-10.47 5.41 5.37 13.46 5.44 20.55 6.09 2.66.71 1.83-2.56-.06-2.68 2.33 1.02 4.8.76 7.03-.4-.29.5-.87 1.49-1.16 1.99l-.76 1.24c4.08 2.23 8.44.04 12.54-.89m-8.23 12.02c-1.05 2.46 0 5.3 1.65 7.24 1.22-1.63 1.63-3.69 1.07-5.66-.28-.96-1.77-2.67-2.72-1.58m-6.16 1.96c-.94 2.23-2.52 6.28.53 7.45 1.72-2.11 1.87-4.91 1.98-7.5-.63.01-1.88.04-2.51.05z"/><path fill="#8a766c" d="M313.25 347.79c1.35 2.25 2.64 4.55 3.96 6.83-1.2 1.26-2.43 2.54-3.98 3.37-.13-3.4-.14-6.8.02-10.2z"/><path fill="#c6b5aa" d="M280.33 351.33c1.97.07 1.13 4.39-.75 3.43-.74-1.04-.34-2.79.75-3.43z"/><path fill="#87756a" d="M161.31 353.89c4.04 6.05 9.11 11.38 12.73 17.72-.18.21-.54.64-.72.86-.86 1.07-2.03 2.07-2.18 3.54-1 4.93-.65 9.99-.54 14.98-3.17-.39-6.33-.84-9.41-1.68-.19-11.81.17-23.61.12-35.42z"/><path fill="#fac7b8" d="M191.39 363.37c.95-1.09 2.44.62 2.72 1.58.56 1.97.15 4.03-1.07 5.66-1.65-1.94-2.7-4.78-1.65-7.24z"/><path fill="#fddfca" d="M185.23 365.33c.63-.01 1.88-.04 2.51-.05-.11 2.59-.26 5.39-1.98 7.5-3.05-1.17-1.47-5.22-.53-7.45z"/><path fill="#7e6d62" d="M174.04 371.61c3.44 6.36 4.89 13.53 5.9 20.63-2.26-.21-4.5-.56-6.75-.9-.65-6.29.28-12.58.13-18.87.18-.22.54-.65.72-.86z"/><path fill="#4a352b" d="M171.14 376.01c.15-1.47 1.32-2.47 2.18-3.54.15 6.29-.78 12.58-.13 18.87-.65-.08-1.94-.26-2.59-.35-.11-4.99-.46-10.05.54-14.98z"/><path fill="#87acc5" d="M217.43 382.1c2.44 5.24 7.96 8.56 13.73 8.34-.99.56-1.95 1.24-3.08 1.5-12.9 2.3-26.07 1.83-39.11 1.7-2.22.02-4.38-.52-6.5-1.09-.13-2.08-.31-4.16-.68-6.21 11.92.23 24.83 2.01 35.64-4.24z"/></svg>