<svg xmlns="http://www.w3.org/2000/svg" viewBox="0 0 448.82 623.8"><defs><style>.c{fill:#2d3a39}.d{fill:#2e3a3a}.h{fill:#5c340f}.j{fill:#a77040}.o{fill:#ab8b70}.v{fill:#a67245}.ad{fill:#be392e}.af{fill:#322827}.aj{fill:#401d15}.ar{fill:#784215}.au{fill:#2d3a3a}.ax{fill:#354242}.bh{fill:#1b5d79}.bq{fill:#f6ae76}.bs{fill:#f8b483}.bw{fill:#612f06}.bz{fill:#6c3404}.cn{fill:#f4b076}.cp{fill:#eff0f0}.ct{fill:#905013}.dj{fill:#763d10}.eh{fill:#6a3609}.ev{fill:#a66835}.ey{fill:#af6c3a}.fc{fill:#703605}.fj{fill:#7a3c0d}.ga{fill:#a5927a}.ge{fill:#884d1b}.gg{fill:#98482a}.hg{fill:#9a5d28}</style></defs><path d="M815 576.21c-5 19.57-14.06 36.67-29.7 49.89-6.67-3-12.64.8-18 3.13-7.8 3.38-13.79 3.7-20.59-2.09-6.61-5.63-14.74-9.18-22.6-12.94-1.83-.88-4.54-1.22-4.45-3.88.11-2.9 2.8-3.33 5-4.21.75-.31 3.39 1.19 2.21-1.65-.48-1.15-.36-3-2.46-2.82-.71.06-1.4.22-2.11.27-3.67.22-7.4.39-7.83-4.69-.34-4 2-5.69 8.29-6.2-1.64-3.39-2.31-7.68-8.06-5.61-1.82.66-2.35-1.55-2.29-3.43.25-8.08 1.48-9.67 9.34-11.56a9.24 9.24 0 0 0 3.85-1.43c-2.82-2.31-5.31-5-.17-8.39-2.82 1.22-3.93 3.91-6.66 3.38-2.91-3.33-.84-6.05 1-8.86 2.18-3.29 5.84-5.63 6.45-9.94a9.12 9.12 0 0 1 2.42-4.13c2-3.1 3.58-6.59 7-8.52 4-4 6.64-9.06 10-13.51a43.6 43.6 0 0 0 4-8.44 16.67 16.67 0 0 1 1.62-3.6c1.65-2.76.31-6.37 2.59-9a6.39 6.39 0 0 1 2-1c2.67-.66 5.4-.33 8.09-.54 3.38 0 6.77.1 10.15.1 7-.32 14.15-1.35 21 1.23 2.58.26 4.11 1.95 5.38 4 1.41 2.44 1.91 5.43 4.49 7.14 1.9 4.94.79 6.24-7.15 8.41-2.13-1.08-4.19-1.79-6.67-.69-11.44 5.07-22.42 11.18-35.24 14.74 3.24 1.84 6.55.07 8.62 2.6 2 3.71.27 6.82-1.61 9.9-3.91 6.44-9.31 11.91-12.25 19-3.69 7.6-1.8 15.17.12 22.73 2.41 5.62 4.39 6 12.11 2.33 5-2.82 9.79-5.7 16.12-5 3.32.35 6.61-1.86 8.87-4.76a16.13 16.13 0 0 1 1.35-1.39c5-6 4.93-6.23-2.58-11.15a6.33 6.33 0 0 1-1.65-2.71c-3.32-9.41-3.78-19.41-6.12-29 .19-2.48-2.44-4.44-1.35-7.1 2.72-3.57 6.14-6 10.78-6.26 3.16 1.59 2.65 4.2 1.51 6.62-2.24 4.74-1.6 9.71-1.18 14.55.48 5.56 3.51 7.51 8.87 7.13 8-.57 14.46 2.64 19.44 8.89.55 6.25-1.41 12.25-1.95 18.46z" transform="translate(-421.75 -86.94)" style="fill:#2e3b3a"/><path d="M718.62 563.64c2.16-1.79 4.24-3.71 6.54-5.32 1-.72 2.55-1.78 3.76-.21 1.34 1.73-.15 2.45-1.4 3.16-4.09 2.32-7.74 4.42.62 5.6 2.18.31 2.06 2.27.24 3.56a6.24 6.24 0 0 1-2 .69c-3.59 1-7.83 1.11-10.61 3.19-2.42 1.81 2 6.94-4 9 5.31 2.11 7.69-2.69 12-1.31-4.35 5.5-.13 7.75 4.89 10.14-2.76 1.63-4.37 1.21-6.06.51-2.56-1.07-4.69-.12-6.23 1.87a4 4 0 0 0-.06 4.69c1.45 2 3.85 1.29 5.9 1.13 1.14-.09 2.22-.85 3.36-1 1.7-.2 4.25-1.12 2.54 2.49-2 4.19 3.67 1.77 3.66 5.18-3.06 1.72-8.21-1-11.32 3.47 11.67 5.77 23.38 11.27 33.36 19.62 2.12 1.78 4.36 1.06 6.56-.16 6.2-3.45 13.2-4.57 19.88-6.62 2.24-.69 5.4-1.79 5 2.8-8.09 5.15-8.18 12.83-7.72 21.38.61 11.16 2.51 21.31 11.72 28.82 2.53 2.06 3.24 4.59.31 7.09a8.43 8.43 0 0 1-6.09 1.2c-8.93-9.21-16-19.27-13.33-33 1.06-5.39-1.93-10.09-1.57-15.33.2-2.85-2.27-1.93-3.52-1-8.16 5.8-14.9 3.22-21.38-3.06a30.71 30.71 0 0 0-9.9-6.38c-1.67 8.55.62 16.9-2.86 26.23a106 106 0 0 0 20.51-7.47c3.39-1.65 6.57-3.69 9.9-5.46 1.67-.89 3.68-1.8 5.24-.19s.2 3.44-.66 5.13c-4 7.78-10.29 12.5-18.53 15.21-8.46 2.78-10.19 8-5.68 15.71 2.55 4.36 6.47 8.36 3.57 14.1-8.72 2.27-12.47 1-17.4-6-4-7.11-9.6-12.94-14.93-19-1-1.34-2.29-2.57-2.11-4.47 1-2.85 3.62-3.63 6.07-4.33 6.13-1.72 8.57-6.34 9.47-12 1.12-7.14-.08-14.09-2.42-20.88-1.51-4.36-3.9-4.07-6.87-1.49a40.63 40.63 0 0 0-8.66 11.1c-3.06 4.88-6.62 9.27-11.72 12.19-12.17 2.36-23.93-.32-35.58-3.28-4.78-1.22-9.7-1.92-14.36-3.71-4.33-1.66-6.92.5-7.81 4.57s-4.43 8.73 2.46 11.14c2.67.94 5.33 1.89 8 2.89 2.19.84 4.88 1.75 4.39 4.7a4.49 4.49 0 0 1-5.4 3.56c-7.22-1.6-6.26 2.81-5.93 7.19a65.44 65.44 0 0 1-.06 9.9c-.24 2.91-1 5.53-4.93 6.55 3.79-.78 7.1-2 10.2.27a1.9 1.9 0 0 1 .19 2.08c-6.74 1.7-13.46 5-20.3.31a62.36 62.36 0 0 0 4.12-22.07c0-6.2-2.72-10.34-9-11.74-.69-.16-1.38-.33-2.05-.53-3.62-1.08-7.09-2.83-6.21-7.18s4.85-4.49 8.52-4.39c2.79.08 6.4 2.79 7.92-1.6 1.45-4.19 0-8.51-3.62-10.61-11.81-6.77-24.45-11.16-38.36-9.82-5 .49-6.88 4.25-3.88 9.47 3.52 6.11 6.24 12.55 9.51 18.74 4.5 8.53 9.77 16.69 10.4 26.75.19 3.07 1.67 5.87 3.08 8.6s1.31 5-1.23 6.86c-9.53 4.89-9.72 4.79-11.81-5.06-1.56-7.36-3.39-14.68-4.76-22.08-1.84-9.93-5.4-18.28-13.47-25.44-10.46-9.26-14.84-22.62-18.66-35.85-.84-2.9-1-6.13-3.8-8.11-3.9-3.52-1.51-8.13-2.15-12.22 1.63-2.54 4.5-2.5 7-3.32 5.5-.55 8.5-6.19 13.93-6.91a16.44 16.44 0 0 1 3.25-.59c4.82.1 9.93-1.25 14 2.79 1.33 1.56 4.1 1.91 4 4.69-1 1.5-2.52 2.69-4 2.49-9.34-1.16-17 5-25.9 5.67-1.6.12-3.53.07-3.83 2.28-.25 1.85 1 3.08 2.37 4.06a31.4 31.4 0 0 0 9.41 4.76c16.41 4.61 30.5 14.83 47 19.09 1.62.58 3.26 1.08 4.91 1.56 7.29 2.26 14.58 4.55 22 6.32 13.39 3.38 26.38 8.2 40.08 10.6 6.26 1.1 10.27-.41 13.65-5.65 3.16-4.9 5.11-10.6 10-14.5-2.09-1-3 .38-4.15.88-2.32 1-4.77 3-7 .46-2.06-2.36 1-4.1 1.69-6.16-2-1.14-4.46-.16-6.13-1.77-1.6-5.24 2.09-6.4 5.81-7.58 1.81-.56 5-.09 3.69-3.51-1-2.62-3.39-3.59-5.71-1.75-4.81 3.81-8.28.53-12-1.8-1-.63-2.42-1.57-2-2.63 1.56-3.6 5.11-5.92 6-10.18.37-1.7 3.7-1.46 5.83-1.16 3.24.46 6.62 1.54 8.92-2a3 3 0 0 0-.34-3.9c-2.88-3-6.09-1.14-9.23-.48-6.2 1.31-7.25.42-6.49-6.12.23-1.93-.54-3.07-1.46-4.43-1.31-2-.56-3.54 1.22-4.79 4.77-.57 8.64 3.13 13.36 2.74 2.47.24 3.63-1.88 5.35-3 4.5-1.27 7.04 3.78 11.28 3.37z" transform="translate(-421.75 -86.94)" style="fill:#1a2626"/><path class="c" d="M267.14 473.9c-.32 1.24-2.07 3-.27 3.65 4.2 1.51 4.84 3.34 1.54 6.37-1 .92-1.41 2-.66 3.1a2.78 2.78 0 0 0 3.21.82c2.26-.63 4.49-1.38 6.69-2.19 3.23-1.18 5.3.51 7.42 2.61 2 1.93 1.49 3.69.32 5.68-1.54 2.63-3.6 4.41-6.85 3.94-1.84-.27-3.62-1-5.47-1.22-1.61-.24-3.54-.47-4.58 1-1.69 2.47 2 2.62 2.19 4.68-1.69 2.21-5.51.76-7.26 4.11 4.53 2.22 8.34 7.73 14.14 1.59 2-2.14 3.32.18 4.58 1.38 1.85 1.78 4.07 3.5 3.05 6.58-.69 2.08-2.61 1.74-4.18 1.7-4.17-.1-7.54.8-8.21 5.69-.29.38-.64.8-1.08.85-9.17 1-9.58-8.28-14.29-12.49-3.12-2.79-.5-6 2.11-8.33s2.72-5.13 2-8.38c-1-4.28 1.19-4.87 4.38-3.67a36 36 0 0 1-7.55-16.62c-.73-4.65-2.89-7.81-7.52-9.09-8.72-2.26-14.32-9.58-22-13.56-2.81-3.56-6.74-.57-9.92-1.71-4.86-1.73-9.91-2.79-14.67-4.85-4.38-1.88-7.22-.31-7.93 4.68-.37 2.59 0 5.14-.06 7.7-.21 14.63 2.1 29.33-2 43.86-1.53 5.49-1.42 11 5.17 14.39 4.73 2.46 5.51 6.9 1.93 11.25-1.52 1.85-2.06 4.21-3.69 5.94-9.8-1.08-18.44-5.8-26.77-10.27-8.67-4.66-18.37-6.31-26.89-11.06-2.47-1.38-4.94-2.55-7-4.61s-.82-3.86-.23-5.83 2-2 3.84-1.8a18.38 18.38 0 0 0 13.16-3.24c5.6-3.93 12.57.14 18.37-2.9.75-2.1 2.49-3.34 4.12-4.64 9.34-7.48 13.48-17.07 11.93-29-1.13-2.32-2.33-4.61-3.41-7-.83-2.49-3.09-4.31-5.11-4.19-5.79.36-9.19-3.59-13.37-6.23a8.42 8.42 0 0 1-2.32-1.84c-2.5-2.61-3.17-6.44-5.9-8.91-7.38-7.18-16.47-10.71-26.4-12.45-1.33-.13.41-2.9-2.31-2.33a9 9 0 0 1-7.14-1.3 1.5 1.5 0 0 1 .25-1.74l15.66-11.19a1.81 1.81 0 0 1 1.88.06c10.16 9.89 22.36 14.42 36.47 15.65 8.78.76 17.48 3.16 26.26 4.44 3 .43 2.88 5 6.36 3.61a3.32 3.32 0 0 1 2.71.05c2 1.76 2.19 4.62 3.93 6.54 4.16 3.44 7.8 7.5 12.59 10.16 8.2 5.54 17 10.14 25.35 15.36a34.47 34.47 0 0 0 13.85 5c4.38 1 8.63 2.57 13.11 3.22a15.3 15.3 0 0 1 4.87 2.11 3.87 3.87 0 0 1 1 1.88 3.66 3.66 0 0 1-1 3c-.13 2.7-1.53 4.14-4.26 4.24-2.76-4.15-7.07-5.77-11.58-7-2.63-.78-3.45.21-2.56 2.75z"/><path class="d" d="M190.47 614.24c-.45-1-.89-2-1.33-3 .71-3.36 1.94-7.12-4.08-5.38.31-.89 1.13-2 .84-2.63-6-12.84-6.61-27.56-15-39.78a101 101 0 0 1-10.49-20c-2.53-6.44.13-9.6 6.93-10.18 13.71-1.16 25.91 3.86 38 9.13 5.25 2.3 7 7.64 6.29 13.11-.53 3.9-2.25 7.56-7.59 4.48a9.35 9.35 0 0 0-4.73-1c-2.36.06-5.16.56-5.47 3.37-.3 2.63 1.91 4.09 4.32 4.86 13.14 4.19 16 9.17 13.13 22.58a51.68 51.68 0 0 0-1.62 9.63c0 2.73-1.45 3.13-3.44 3.41a10.54 10.54 0 0 1-5.81 3.6c-4.69 1.02-7.62 3.96-9.95 7.8z"/><path d="M534.25 103.17c13.67-8.13 29.16-11.31 44.35-13.4 51.13-7 101-1 148.83 18.83 33.69 14 53.48 41.18 67.93 73.33 4.25 9.47 6.25 19.64 10.53 29.08 1.54 3.41 4.54 5.77 5.43 9.66.7 3.05 3.95 2.29 6.44 1.82 1.1 4.91-2.44 5.32-5.75 5.95-5.35-3.5-8.25-8.79-10.54-14.51-5.3-13.26-8.89-27.2-15.71-39.86-2.63-4.49-4.82-9.25-7.8-13.56a17.19 17.19 0 0 1-1.06-1.61 24.62 24.62 0 0 1-1.81-3.4c-1.72-4-4.63-7.08-7.34-10.35a110.25 110.25 0 0 0-23.47-20c-9.61-6-18.82-12.45-29.77-15.82-18.61-5.72-37.08-11.65-56.58-14.11-20.39-2.57-40.82-2.7-61.23-2.47-15.6.18-30.78 4.11-45.56 9.17-2.67.92-5.36 1.76-8 2.77a10.62 10.62 0 0 1-5.39.91 4.89 4.89 0 0 1-3.5-2.43z" transform="translate(-421.75 -86.94)" style="fill:#af8d6f"/><path d="M817.38 699.9c0 3.87-2.4 5.31-5.72 5.94a139.44 139.44 0 0 1-40.78 1.5 14.91 14.91 0 0 1-6.09-1.69c-3.82-2.36-7.2-3.1-11.69-1.14-2.4 1-7.47 2.77-7.63-3.49 1.61-2.31.26-5 .87-7.4 2.65-10.47 2.92-8.36 10-4.72 6.46.59 12.9.94 19-1.95 2.59-1.49 4.29-5.5 8.31-3a10.35 10.35 0 0 1 5.68-1.35c1.85 1.58 1.24 5.72 5.25 5.07 8.31 2.8 16.68 5.41 22.8 12.23z" transform="translate(-421.75 -86.94)" style="fill:#221f14"/><path d="M446.72 396.45c-15.78-24.08-22.67-50.87-24.12-79.3a20.31 20.31 0 0 1 .22-2.8 4.59 4.59 0 0 0 1.07-1.6c.19-1.18.12-2.36.23-3.53.2-2 .61-4 3.15-3.79 2.18.13 3.15 1.78 3.52 3.79a9.45 9.45 0 0 1 0 2.81c-2 17.3 2.5 33.5 8.33 49.47.79 4.6 2 9 5.29 12.6 1.61 4.34 3.41 8.58 6.76 11.94 2.8 4.77 5.36 9.7 11.11 11.75 2 .72 3.06 2.71 4.08 4.53 1 2 2.89 3.51 3.53 5.76-.51 3.68-3.19 5.61-6 7.44-4 .91-4.4-2.73-6-4.86a13.21 13.21 0 0 0-1.26-1.33l-1.46-1.5c-3.5-3.3-5.7-7.55-8.45-11.38z" transform="translate(-421.75 -86.94)" style="fill:#7b4e1d"/><path class="h" d="M407.31 373.26c-2.78 6-9.23 10.65-7.11 18.56 1.08 1.69 3 3.09 1.72 5.53-1.66 1.85-4 2.67-5.95 4.17-6 4-12.21 7.48-19.8 7-6.45-.9-12.9-1.95-19.14 1-1.91-.46-3.9-1.1-3.54-3.53a4.9 4.9 0 0 1 4.43-4c6.64-1 12.65-5.5 19.85-3.63a3.56 3.56 0 0 0 3.19-1.2c.6-.64 1.26-1.22 1.9-1.78-3.18-6.17-8.9-9.63-14.12-13.67-2.45-1.91-6.09-4.53.11-6.62a8 8 0 0 1 3.71 1.41c6.32 3.89 10.65 10.13 16.93 14.48a6.34 6.34 0 0 1-1.89-3.85c-.09-1.71.44-4.39 1.75-4.06 8.13 2 8.19-5.68 11.62-9.22 1.11-1.15 1.61-2.85 2.69-4.08s2.6-2 4.19-.47a4.41 4.41 0 0 1-.54 3.96z"/><path d="M457.85 409.43c3.24.24 2.09 5.09 5.46 5.18 1.71 3.68-1.82 5.07-3.21 7.39-4.12 5-7.1 10.54-7.2 17.26-.15 9 4.47 14.59 13.51 14.6 7.13 0 13.89.2 20.37 3.7a17.79 17.79 0 0 0 8.92 1.95c9.44-.37 18 1.55 26 7 5.06 3.41 11.49 1.48 17.34 1.45 2.82.52 4.52 2.34 5.64 4.85a2 2 0 0 1-.55 2c-4.51-3.14-9.56-1.1-14.35-1.42-6.16-.41-11.9-.91-16.86-5.59-3.46-3.28-8.64-3.18-13.34-3.12-7.62.1-15-.84-21.7-4.77-2.7-1.58-5.45-.82-8.23-.67-16.37.9-25.72-10.27-21.56-26.08a40 40 0 0 1 6.94-14.37c2.16-2.79 1.97-6.22 2.82-9.36z" transform="translate(-421.75 -86.94)" style="fill:#b19273"/><path class="j" d="M428.74 241.89a1.85 1.85 0 0 1-.22 1.06c-1.76.65-2.8-.33-3.68-1.65-1.37-3-.58-6.43-1.73-9.49-.59-8.7-2.71-16.75-9.82-22.61-1.95-2.9-4.06-1.05-6.1-.17-5.48 2.33-11 4-16.9 1.45a17.66 17.66 0 0 1-3.2-6.08c6.06-3.91 12.32-7.53 18.31-11.58a4.74 4.74 0 0 1 3.54 1.77c.14 5.27-4.41 6.68-7.14 9.2 3.74-1.29 6.83-3.68 7.59-8.32a5.18 5.18 0 0 1 .35-2 2.38 2.38 0 0 1 1.86-.56 4.34 4.34 0 0 1 2.22 2c.82 1.7.7 3.69 1.59 5.36 1.83 3.43 4 5.36 7.45 1.62a15.47 15.47 0 0 1 6.65-3.79 11.28 11.28 0 0 1 2-.51c2.81.06 6.09-.62 6.1 3.85-4.12 2.88-10 3.84-10.34 10.7a31.09 31.09 0 0 0 1.25 8.88 47.11 47.11 0 0 1 2 13.7c.73 2.74-.75 4.9-1.78 7.17z"/><path d="M823.07 484.07q-.57-2.65-1.12-5.31a25.48 25.48 0 0 0 9.37 2.72c11.57 1.55 19.58 8 22.76 19.19 3 10.76 4.15 21.7-2.28 31.92-1.79-.49-2.45 1.91-4.17 1.62a3.64 3.64 0 0 1-1.27-1.48c-.55-6.61-1.59-13-5-19-4.81-8.45-13.56-12.08-21.93-8.8a7 7 0 0 1-7.12-1.47 1.91 1.91 0 0 1-.5-1.95c7.42-6.64 18.58-6.79 27.13-.26a33.06 33.06 0 0 1 12.49 18.79c-.23-3.87 0-6.94-.25-10-1.14-14.1-8.49-21.91-22.47-23.89a19 19 0 0 1-4.16-.72 3.46 3.46 0 0 1-1.48-1.36z" transform="translate(-421.75 -86.94)" style="fill:#a5a6a5"/><path d="M794.59 687.72c-3.88.51-6.4-.38-5.25-5.07 2.84-5.69-3.26-7.65-5.48-9.62a20.33 20.33 0 0 1-6.77-13.33c-1.06-9.1-2.36-18.31-.15-27.58 1.17-4.92 6-3.54 8.38-6.06-.31.85-.4 1.92-1 2.51-4.63 4.71-7.17 9.62-2.69 15.95a7.46 7.46 0 0 1 1 4.77c-1.38 12.75 6.52 20.52 15.12 27.61 4 3.33 2.78 4.48-.94 6.12-1.93.83-6.12.98-2.22 4.7z" transform="translate(-421.75 -86.94)" style="fill:#353e3c"/><path d="m847.54 328.38 2.73 1.51c1.34 28.32-2.17 56.16-8.68 83.65a49.85 49.85 0 0 1-4.77 12.46 37.5 37.5 0 0 0-5.06 20.18 1.56 1.56 0 0 1-2-.65 35.9 35.9 0 0 1-1.27-15.28c6.72-10.87 9.38-23 11.31-35.42 2.59-16.78 4.84-33.58 5.7-50.54a19.88 19.88 0 0 1 0-3.7c.56-4.09-1.25-8.59 2.04-12.21z" transform="translate(-421.75 -86.94)" style="fill:#b39172"/><path d="M423.85 270.38c1.42-26.41 9.39-51.08 19.88-75.09 4.93.73 2.46 5.27 4 7.74-.37 4.53 3.49 8.78 1 13.48a4.61 4.61 0 0 1-1.74.69c-6.18 3.39-6.76 10-9.07 15.65-.91 2.21-.64 4.58-1 6.87a16.55 16.55 0 0 1-4.14 8.56c-6.3 3.75-3.34 10.66-5.37 15.87-.88 2.27.72 5.9-3.56 6.23z" transform="translate(-421.75 -86.94)" style="fill:#7f5027"/><path class="o" d="M411.53 193.43c-.39 0-.77-.09-1.15-.15-1.5-1.05-3.42-.5-5-1.27a7.37 7.37 0 0 1-1.45-4.55c.42-2 2-2.56 3.68-2.92 1.59 3.1 3.79 3.49 6.9 2 5.31-2.49 11.08-2.05 16.68-1.62 13.14 1 20.45 13.2 16.63 27.77-3.09 11.8-10.81 20.69-19.07 29.17-.22-2 1.11-4.1-.15-6.11a86.74 86.74 0 0 1 8-11.49 33.93 33.93 0 0 0 7-17.33c0-11.81-8.48-18.74-20.6-16.94-3.99.62-7.56 2.59-11.47 3.44z"/><path d="M531.64 583.52c-13.62-6.32-21-27.93-15-42.45 4.33-10.52 12.3-18.19 19.14-26.78 1.78-1.29 3.15-.27 4.5.81 1 3.5-2.1 4.85-3.69 7-1.9 2.57-5.51 3.82-5.8 7.6.06 1-.1 2.1.77 2.92.47.3.92.62 1.39.92 1 .72 2.11 1.32 1.81 2.84-1 1.6-2.67 1.58-4.22 2-2.55.73-5.78-2.63-7.62.81a26 26 0 0 0-3.4 12c0 2.11.71 4.12 1 6.18 1 9.79 6.67 17 13 23.93.02 1.28-1.19 1.54-1.88 2.22z" transform="translate(-421.75 -86.94)" style="fill:#a8aaa9"/><path d="M534.25 103.17c1.2.18 2.43.28 3.07 1.55-.08.33-.15.66-.23 1-4.47 4.84-10.67 6.93-16.43 9.18-10.13 4-18.56 10.09-26.25 17.48-4.76 4.58-9.32 9.35-14 14-1.82 1.79-3.46 3.94-6.33 4.2a2.69 2.69 0 0 1-2.11-2 123.43 123.43 0 0 1 46.24-38.16c5.26-2.6 10.68-4.87 16.04-7.25z" transform="translate(-421.75 -86.94)" style="fill:#a58064"/><path d="M423.85 270.38c2.43-5.25 2.26-11 3.14-16.52.47-3-.23-7.54 5.44-6.12 1.74 3.73.29 7.3-.79 10.77-1.33 4.27-1.19 8.7-1.95 13-1 4.68-4.52 9-1.19 14.29 1.19 1.91.33 5.05 0 7.62-.33 2.81-4.55 3.39-3.15 7.95 1.13 3.68-.37 8.64-1.28 12.95h-1.28a156.49 156.49 0 0 1 1.06-43.94z" transform="translate(-421.75 -86.94)" style="fill:#6a4926"/><path d="m471.93 148.49 1.84 1.78c1.6 3.42-1.28 5.15-2.86 7.28a210.63 210.63 0 0 0-20.35 33.68c-2 4.09-.91 8.93-3.94 12.55-3-2.15.46-6.47-2.89-8.49 5.79-17.77 15.96-32.91 28.2-46.8z" transform="translate(-421.75 -86.94)" style="fill:#97744e"/><path class="o" d="M397.46 145.2a8.3 8.3 0 0 1 2.54 7.07c-.61 10.48.49 20.59 6 29.83-1.53.85-2.84.16-4.14-.59-5.43-4.73-6.28-11.05-6.33-17.75 0-4.32 1-8.95-2.67-12.54-1.24-3 .33-4.79 2.6-6.31a1.82 1.82 0 0 1 2 .29z"/><path d="M815 576.21c-1.14-6.66 2.35-13.06 1.08-19.72-1.58-2.13-2.92-4.35-2.8-7.15a10.39 10.39 0 0 1 3-1.83c1.77-1.06 5.32.69 4.52-4.58-.42-2.78 5.57-4.9 9.64-5.57a2.66 2.66 0 0 1 2.18 1.84c.19 2.86-1.72 5-2.5 7.56s-3.25 3.08-5.17 4.27c-5.61-.53-7.71 1.85-7.29 7.58a38.41 38.41 0 0 1-2.66 17.6z" transform="translate(-421.75 -86.94)" style="fill:#8a6f52"/><path class="j" d="m402.97 180.81 3 1.29 1.6 2.44c-1 1.07-2.06 2.15-3.1 3.22-3 8.21-9.3 11.33-19.86 9.87a3.51 3.51 0 0 1-.54-4.11 28.69 28.69 0 0 0 18.9-12.71z"/><path d="m824.89 551 4.11-4.42c5.81-3.1 11.57-6.29 15.61-11.75a3.23 3.23 0 0 1 2.57-1.19l.47.35a4 4 0 0 1 1.41 2.85C843 545 835.53 550.72 824.89 551z" transform="translate(-421.75 -86.94)" style="fill:#a6a6a4"/><path class="v" d="m122.41 387.86.29-1.84.83-.56c9.37 3.12 16 9.77 22.17 17.09-1.81 2.67-4 .87-6 .46l-1.53-.18c-3.44-6.9-10.92-9.56-15.76-14.97z"/><path d="m531.64 583.52 1.73-1.76c6.71-1.08 13.36-1.58 19.65 1.81-.35 4.3-.86 8.62 1.29 12.67-2.63 0-3.19-1.87-2.92-3.79.89-6.31-2.83-7-7.56-6.4-4.37.52-8.2-1.34-12.19-2.53z" transform="translate(-421.75 -86.94)" style="fill:#9a9d9f"/><path d="M819.21 232.14a2.48 2.48 0 0 0-1.23.23c-2.7.86-4.25-1-6-2.51a1.83 1.83 0 0 1 0-1.84c1.59-2.17 5.44-2 5.7-5.53l6.4-3.28c.92 5.71-4.87 8.24-4.87 12.93z" transform="translate(-421.75 -86.94)" style="fill:#4c3c2e"/><path d="m540 515.3-4.26-1c-3.33-8.37 4.63-9.55 8.5-13.33l.15 1.77c-1.62 3-2.71 5.9.42 8.64-.26 2.94-2 4.08-4.81 3.92z" transform="translate(-421.75 -86.94)" style="fill:#3c4140"/><path d="M830.51 446a4.36 4.36 0 0 0 1.25.13c3.22 5.47 1.71 10-2.7 14v-4.22a8.19 8.19 0 0 1-4.21-5.92 14.36 14.36 0 0 1 .33-7.1c4.69-4.09 2.93 3.18 5.33 3.11z" transform="translate(-421.75 -86.94)" style="fill:#7f4f2e"/><path d="M849.06 536.87a2.48 2.48 0 0 1-1.41-2.85c1.58-.84.59-3.9 3.14-3.72.39 0 .67 1.49 1 2.29z" transform="translate(-421.75 -86.94)" style="fill:#818382"/><path d="M830.31 537.91 821 543.4c.93 2.83 3.09 0 4.39 1.68-3.06 3.89-7.7 3.51-11.86 4.35-1.2.53-1.82-.21-2.37-1.09a7.25 7.25 0 0 1-.49-2 14.88 14.88 0 0 1 .72-4.73c-1 1.26-1.74 3-3.81 2.82a2.64 2.64 0 0 1-2-2c-.21-3 .64-5.87.95-8.71-1.43 2.83-.42 6.63-3.12 9.14a3.07 3.07 0 0 1-3.63-1.21c-2.87-4.92-2.2-9.63.65-13.89-5.22 5.11-.13 12.55-3.39 18.4-5.91 2.5-6.84-2.18-7.71-5.84-1.63-6.91.56-13.48 2.87-19.94a9 9 0 0 1 5.64-3.8c2.19-1.17 4.41-2.28 6.54-3.53 2.81-1.64.05-2.37-.64-3.42-2.37-3-2.84-5.25 2.16-4.86 2.58.2 5.17.16 7.75.4 4.75.75 9.66-.2 14.21 2.62 8.68 5.37 12.47 15.92 8.45 24.78-1.21 2.73-2.93 4.78-6 5.34z" transform="translate(-421.75 -86.94)" style="fill:#efb077"/><path d="M763.87 498.35h-8.55c-2.18-3.35-5.68-3.76-9.33-4.21-.59-.52-.65 1.12-.21.28.17-.32.33-.2.7.06s1 .3 1.2.68c1.37 3.57-1.84 3.36-3.63 4.34a6.19 6.19 0 0 1-4-.26c-4.56-3.54-8.94-7.67-15.46-4.5-3.61-1.7-3.52-5-3.43-8.19.73-5.25 3.81-4.19 7.63-2.32-1.25-2.84-4.28-5.31-1.92-8 2.79-3.15 5.38.52 8.38 1.14-3.14-3.54-5.11-7.31-4.74-12a2.2 2.2 0 0 1 1.32-1.36c5 1.17 3.59 8.15 8.13 9.16-3.34-2.42-5.4-5.79-3.94-10.56a2.91 2.91 0 0 1 2.33-1.69c1.05-1.08 3.13 5.88 3.67-.53.15-1.79 2.2-3.73 4-3.06 3.29 1.19.76 4.57 2.14 7.54.11-6.88.2-13.14 4.7-18.09a3.38 3.38 0 0 1 2.58-1.43c4.22 2.13 1.59 5.23.92 7.84-1 3.85-2.66 7.57-.11 11.41a16.63 16.63 0 0 1 1.41 2.63c1 3.24.48 6.28-2.38 8.1-2.33 1.48-2.13 3.28-1.87 5.37a5.55 5.55 0 0 1-.75 1.85c-3.29 3.48-7 5.64-12 3.8 5.38 1.87 11.41 1.71 16.53 4.66 3.22 1.68 6.3 3.3 6.68 7.34z" transform="translate(-421.75 -86.94)" style="fill:#5e2e05"/><path class="ad" d="m364.75 476.91 1.42 1.23c6.52 6.09 6.54 6.21 1.43 12.69-5 5.22-6.68 4.92-11.4-1.37-3.18-4.24-3.88-9.4-5.25-14.32a37 37 0 0 0-4-9.67 6.9 6.9 0 0 1-.14-4.42c2.77-4.86 1.48-11 5-15.65 4.52.08 5.43 3.47 6.49 6.88 2.62 8.1 1.95 17.04 6.45 24.63z"/><path d="M737 533.82c-4.08 1.4-5.18 5.25-7 8.51-2-1.29-3.53-4.42-6.61-1.78-3.73 3.36-7.37 1.54-11-.19-.08-3.07-2.94-4.52-4.07-7a2.84 2.84 0 0 1 1.93-2c2.46-.72 4.55.1 6.67 1.33 3.6 2.08 6.86.24 9.89-1.44 1.56-.86 1.67-3 1.13-4.5-.85-2.42-2.2-.29-3.22.06-2 .69-2.38-.75-2.93-2a9.91 9.91 0 0 0-1.25-2.3c-.46 1.53 1.38 2.23 1.27 3.61-3.77 4-7 1.94-8.94-1.58-2.11-3.79-.23-7.15 3.09-9.71 1.52-1.18 4.58.15 4.84-3-1.59-3.15-4.36-2.18-6.75-1.78-9.4 1.6-9.39 1.66-7-6.9 2.39-2.74 5.28-1 8-.93 4 .39 8.42-.7 11.13 3.59a28 28 0 0 0 6.48 9.49 32.79 32.79 0 0 1 4.34 18.52z" transform="translate(-421.75 -86.94)" style="fill:#27556b"/><path class="af" d="M347.81 465.34c4.7 2.4 4.25 7.36 5.35 11.38.94 3.41 1.6 6.93 3.28 10 2.44 4.52 5.56 8 11.19 4.07-3 6.09-7.45 8.21-14.39 6.76-4-.84-7.16 3.49-11.08 4.62a4.15 4.15 0 0 1-1.14-4 4.69 4.69 0 0 1 2.65-3c4.23-2.19.76-4.74.31-7.16a11.25 11.25 0 0 1-.58-2.06 79.66 79.66 0 0 1 0-14.65c.95-2.34.75-5.56 4.41-5.96z"/><path d="m806.24 542.51 1.56 1.49c2.57.06 3.4 2 4.27 3.93l1.44 1.55a6.07 6.07 0 0 1 2.55 7.06c-5.26.45-7.62-5.78-13-5.58-1.28.05-2.63-1.49-4.48-1-7.43 2.13-12-1.18-12-9 .05-5.42-1.53-11.17 2.45-16.13.8-1 .25-2.74-1.1-3.69 1.18-4 3.49-2.93 5.91-1.28-2.59 6.8-4.24 13.79-2.62 21 .51 2.23.24 7 5.26 4.25 1.33-1.33.39-4.95 4-4a2.2 2.2 0 0 0 2.95 1.07 1.83 1.83 0 0 1 2.81.33z" transform="translate(-421.75 -86.94)" style="fill:#2f2c20"/><path d="M793.93 519.87c-2 .06-4.3-.81-5.91 1.28q-4.95 2.85-9.88 5.72c-3.77 2.81-10 2.06-11.57 8.26-.27 1.07-1.9-.28-2.6-1.19-1.87 0-3.83-.26-5.59.2-2.23.59-4.4 1.31-4.78-1.79-.32-2.56 1.83-3.64 4-4 11.73-1.69 21.2-8.91 32-12.95 3-1.12 6.3-4.73 8.29 1.17a5.47 5.47 0 0 1-3.96 3.3z" transform="translate(-421.75 -86.94)" style="fill:#1b1f1b"/><path d="M737 533.82c-3-5.74-2.34-12.64-5.68-18.28-2.48-6.21-1.33-7.38 6.86-7 5 2 10.92 3.37 8.65 11.08z" transform="translate(-421.75 -86.94)" style="fill:#e4eceb"/><path class="aj" d="m342.25 447 2 .3c.9-7.65 6.56-7.47 12.16-7.38-.3 2.45 3.08 3.17 2.66 5.67-2.91 2.72-4.81-1-7.26-1.13-2.85.64-3.41 2.93-3.75 5.31a27.69 27.69 0 0 1-4.77 11.6c-3.44 5.6-8.51 10-11.55 15.9-1.1 1.23-1.77 3.32-4.11 2.09a3.53 3.53 0 0 1 .34-4c1.31-8.22 8.49-12.93 12-19.91a17.06 17.06 0 0 0 2.28-8.45z"/><path class="h" d="M342.12 411.41c-2.7-1.39-3.74-4.9-7-5.53.32-4.43-6.48-6.19-4.23-11.33 1.36-1.32 2.91-1.23 4.51-.55 1.29.55 2.31 1.8 3.59 2.1 7.12 1.69 13.4 4.26 15 12.51a2.5 2.5 0 0 1-.49 2.88z"/><path d="m752.39 508.33-1.3 2.86c-.46.81-.94 1.74-1.89 1.92-2 .37-15.49-7.81-16.18-9.69-1-2.71 1-3.28 2.86-3.6 2.72-.48 5.57.36 8.27-.71 9.26-1.4 10.32-.21 8.24 9.22z" transform="translate(-421.75 -86.94)" style="fill:#e8eae8"/><path d="m707.28 560.82.12-3c5-.54 8.59-3.12 11.52-7.11 1.63-2.22 3.26-4.6 5.82-6a2.79 2.79 0 0 1 1.92.27c3.26 3.71-1.06 5.14-2.41 7.22-2.34 3.62-6.6 6.19-5.63 11.43-4.97 3.84-7.41-2.49-11.34-2.81z" transform="translate(-421.75 -86.94)" style="fill:#173843"/><path d="M752.39 508.33c1-9.31.79-9.44-9.72-8.42-5 1.37-11.38-.74-14.11 5.94-.75.78-1.55 1.44-2.74 1-2.87-3.84-7.07-2.49-10.85-2.78-2.57-3.14.28-3.75 2.24-4.49 3.72-1.42 7.78-1.47 11.58-2.63 3.86-.68 7.67-.95 11.16 1.35l4-.15c3.36 0 6.83-2.73 10.06.43-.42 3.3 1.44 6.95-1.62 9.75z" transform="translate(-421.75 -86.94)" style="fill:#4c4a3f"/><path d="M798.08 494.51c7-1.17 13.23-4.24 19.35-7.63 2 3 1.93 3.4-1.89 6-4.62 3.14-9.79 5.56-13.21 10.26a2.68 2.68 0 0 1-3-.39l-4.33-4.07c-1.41 0-2.16-.77-1.82-2 .73-2.56 2.89-2.31 4.9-2.17z" transform="translate(-421.75 -86.94)" style="fill:#c6bcb1"/><path d="M727 505.47c3.28-7.28 9.75-5.61 15.63-5.56-2.41 2.87-5.83.63-10.55 2.44 7.93 1.91 10.79 10.11 19 8.84-.65 3.21-2.63 5.75-4.25 8.46.48-6.18-4.85-7.27-8.57-9.77-3.56-1.88-7.53-2.8-11.26-4.41z" transform="translate(-421.75 -86.94)" style="fill:#969493"/><path d="M773.73 529.74c2.35.92 4.11 3.36 7.06 2.79 2.21 8.51 2 17.52 5.41 25.8.67 1.6.23 3.67.3 5.52-5.64-5.29-5.57-12.74-6.54-19.45a20.31 20.31 0 0 0-6-12.17 1.6 1.6 0 0 1-.23-2.49z" transform="translate(-421.75 -86.94)" style="fill:#682623"/><path d="M798.08 494.51c-.45 1.81-5.81 0-3.06 4.17-.13.45-.26.9-.38 1.34-6.23-3.54-12.87-2-19.42-1.58v-2.74a2 2 0 0 1 2.76-.19c6.53-3.92 13.25-3.8 20.1-1z" transform="translate(-421.75 -86.94)" style="fill:#322418"/><path class="aj" d="M342.25 497.94c0 1.41 0 2.83-.05 4.25a13.94 13.94 0 0 1-8.88 3c-4.49.12-5.73-1.87-5.33-5.81-1.15-2-.46-4.22-.65-6.34 2.83-.7 2.83-.7 4.18 4.31.28.54.55 1.08.87 1.6 2.32 2.5 4.27.35 6.31-.51 1.09-.56 2.2-1.29 3.55-.5z"/><path class="ar" d="m332.3 411.69-10.05-.43 3.34-1.89c-2-1.33-4.85.16-6.57-2.62a18.26 18.26 0 0 1 13 .43c2.09.88 3 2.16 1.53 4.28-.4.06-.83.14-1.25.23z"/><path d="m799.34 502.76 2.68-.26c3.51-2.39 6.81-.45 10.15.51l7.2.91a1.1 1.1 0 0 1 1.51.82c-1.76 3.25-5.29.29-7.45 2.12a34.87 34.87 0 0 1-8.39-.53c-4.91-.94-.34 2.39-1.29 3.34-3.48-1.02-2.9-4.67-4.41-6.91z" transform="translate(-421.75 -86.94)" style="fill:#735f52"/><path class="af" d="M328.06 492.06q0 3.65-.11 7.28c-3-8-5.46-16 0-24.07l.06 4.26c2.75 4.21 2.8 8.38.05 12.53z"/><path d="m726.66 545-.39-.2h-.44c-2.85-.51-4.08-2.2-3.71-5.07.85-2 2-3.57 4.57-2.66a4.65 4.65 0 0 1 3.34 5.23z" transform="translate(-421.75 -86.94)" style="fill:#c3dee2"/><path class="af" d="M367.6 490.83c3.24-4.65 1.84-8.77-1.43-12.69 3.63.37 6.34 2.69 6.73 5.85s-1.73 5.94-5.3 6.84z"/><path class="au" d="M251.53 463.96c5.41 1.77 8.06 5.16 8.72 11.15a23.11 23.11 0 0 0 7.19 14.6c1.31 1.2 5 1.17 2.55 4.21-1.74 2.14-3.74 1.14-5.25-.86a3.61 3.61 0 0 0-2-1.79c3.79 7.19 1.56 11.89-4.34 15.5a3.09 3.09 0 0 0-.89 2.43c.15 2.74 12.39 14 15.29 14.21a33.32 33.32 0 0 1 4.24 0c1.76.22 3.91-2.28 5.1 0 1.34 2.51-1.2 3.6-3 4.74-1 .66-2.12 1.7-1.36 2.82 1 1.45 2.47.8 3.7-.07.39-.28.71-.71 1.13-.85 2.89-1 6.09-5.35 8.48-2.24 1.94 2.51-3.11 4.33-4.63 6.77-2.7 4.35-5.47 8.66-8.07 13.07-2.91 4.94-6.81 6.08-12.49 5.09-14.1-2.48-27.56-7.22-41.31-10.88a70.38 70.38 0 0 0-22.67-7c-1.55-.05-3.21.24-4.25-1.38-.41-2.6-1.76-4.91 2-7 4-2.21 3.26-5.8-.3-8.46-8.41-6.28-9.68-10.34-5.67-20.31a15.59 15.59 0 0 0 1.13-8.26c-1.78-11.56 1.07-23.12-.94-34.84s3.08-14.13 14.51-9.53c5 2 10.11 5.47 16.34 2.93 2.26-.92 4.41 1 5.55 3.29-2.79 2.94-6.19 3-9.79 2.11-2.51-.65-5-1.4-7.54-1.83-7.05-1.19-7.75-.47-5.06 6.27 2.26 5.67 1.76 10.63-2.79 14.82-4.32 4-5.85 8.86-5.55 14.61.22 4.22.11 8.44-1.47 12.52a7.61 7.61 0 0 0 2.86 9.44c12 8.17 23.33 17.56 38.8 18.69 8 .58 10-1.49 7.63-9.13-2.91-9.5-3.32-19.09.48-28.34 3-7.34 5.5-14.49 2.87-22.46a3.89 3.89 0 0 1 .8-4.04z"/><path class="d" d="M240.19 597.12c-.77 4.21-3.61 1.86-5.82 2-3 .17-7-2.9-8.62 2.3h-12c4.5-1.7 5.69-4.89 5.24-9.33-.35-3.5.45-7.16-.23-10.56-1.19-5.92-2.14-10.44 6.32-5.91 1.88 1 4.92 0 5.52-1.94.93-2.91-2.3-2.71-4.06-3.39a44.35 44.35 0 0 0-6-2c-6.38-1.48-9-3.63-6.28-11.35 3.6-10.44 3.29-10.61 14.36-7.56 15.28 4.2 30.74 8.21 46.9 6.68.38 3.19-2.54 3.53-4.26 4.85-3.39 2.59-2 5.27 1 5.3 8.53.1 17.47 1.19 25.19-3.8 4.25-2.75 4.82-15 1.18-18.61-2.19-2.21-4.69-3-7.62-1.17-1.72 1.05-3.15 3-5.63 2.09 1.74-6.2 6.53-10.1 10.9-14.25 2.46-2.34 5.1-1.12 6.75 1 5.35 6.74 4.61 28-.75 34.89-3.28 4.22-9.43 2.7-12.68 6.77-7.56 3.19-15.6 4.2-23.65 4.67-7.89.45-15.83.09-23.72.12-2.57 0-4.49.14-3.89 3.83.78 4.79 2.32 9.51 1.93 14.46z"/><path d="M783.66 684c-3.76-.89-4.4 3.29-7 4.3-7 1.48-14.25.54-21.14 2.71-6.82-4.84-6.92-4.78-8.48 3.45-.41 2.2.77 4.82-1.58 6.56-1.78-4.23 2.07-8.43 0-12.66a32.42 32.42 0 0 0-5.41-12.68c-5.75-8.31-3.21-15.51 6.31-18.11 9.78-2.67 15.74-9 19.75-18-2.79-.82-4.37 1.18-6.25 2.36-8.41 5.28-17.67 8.54-27 11.6-2.35.77-5.28.69-3.86-2.32 3.87-8.21 1.72-16.7 2.3-25.05.23-3.3.58-5.51 4.27-2.33 4.08 3.52 8.93 6 12.84 9.83s8.85 4.29 13.8 1c2.08-1.38 4-3.47 6.94-3 1.41.23 3.25.3 2.55 2.3-2.74 7.87 1.11 15.65-.21 23.84-1.39 8.62 5.49 16 10.17 23.29.67.99 1.34 1.91 2 2.91z" transform="translate(-421.75 -86.94)" style="fill:#2d3939"/><path d="M612.22 701.18c.26-10.67 10-8.29 15.74-11.41 6.8 3 13.51-1.21 20.28-.26a142.45 142.45 0 0 1 30.36 9c1.76.72 4.43 1.69 4.09 4.25-.28 2.16-2.87 2.24-4.54 2.73-17.59 5.21-35.28 7.83-53.26 1.78-.32-1.11-1.16-1.52-2.09-1-5.88 3.11-8.46-.49-10.58-5.09z" transform="translate(-421.75 -86.94)" style="fill:#211e11"/><path class="ax" d="M285.48 544.69a42.2 42.2 0 0 0 3.8-3.08c2-2 4.21-3.6 6.8-2 2.8 1.74 6 2.87 6.57 7.4 1.9 16.77-2.8 20-18.49 20.4-3.23.08-6.44.92-9.67 1.34a7.11 7.11 0 0 1-7.89-4.66c-1.43-3.9 3-3.79 5-5.33 1.27-1 2.65-1.84 4-2.75z"/><path d="M530.2 533.9c-5.53-1.33.39-3.06-.15-4.57 2.92-6.1 8.72-8.37 14.45-7.82 9 .86 18.26 0 26.93 4.3 5.9 2.92 6.79 1.81 9.73-7.4 3.42 1.78 3.21 5.88 5.41 8.45-2 4.95-5.47 7.56-10.9 7.37a12.45 12.45 0 0 1-4.14-.69c-9.09-4.58-11.36-4.27-19.07 2.69-6.77 6.11-8.52 14.9-4.62 24.64 3.77-3.53 9.46-4.66 10.54-10.9.23-1.35 1.87-.66 2.64.46 1.37 3.9.92 7.86.48 11.83-1 3.66-2.2 7.24-5.94 9.15 4.93 3.75 10.68 2.2 16.15 2.49a3.14 3.14 0 0 1 1.49 1.3c-5.51.11-7.37 7.37-13.25 6.77-5.38-4.06-12.23-6.27-15.74-12.67-8.15-13.58-7.19-27.6 2.53-37.52.86-.67 1.92-1 2.88-1.72-2.1-.3-3.39 1.22-5 2-3.3 1.24-6 4.24-10 3.34-1.16-.08-2.32-.19-2.91-1.45 1.62-3.28 5-4 7.9-5.47-3.53 1.14-6.49 3.25-9.41 5.42z" transform="translate(-421.75 -86.94)" style="fill:#959897"/><path d="M545.93 569.16c4 4.73 8.34 8.63 14.67 10.19 2.66.66-.89 1.58-.65 2.62-2 1.79-4.49 1.63-6.93 1.6-6.53-.79-13.27.66-19.65-1.81-9.16-5.3-12.91-13.87-14.35-23.83 3-1.77 4 1.16 5.67 2.48 6.24 4.96 12.53 9.77 21.24 8.75z" transform="translate(-421.75 -86.94)" style="fill:#d5d8d9"/><path d="m571.26 532.38 4.23.13c2 3.18-1 4.18-2.69 5.31-8.66 5.71-8.8 14.27-7.72 23.09.54 4.42 4.11 5.88 8.1 6.38 3.43.43 7-.43 10.32 1.24 2 2.1 0 2.84-1.36 3.56-2 1.1-4.5 1.34-6.42 2.8l-2.52.31-1-.59c-5.51-2.09-12.54-2.47-12.32-11l-.18-14.22c-1.61-8.82 3.12-15.81 11.56-17.01z" transform="translate(-421.75 -86.94)" style="fill:#9e876e"/><path d="M610.85 546.61c.79.4 2.28.87 2.25 1.2-1.16 14-5.69 26-19.15 32.83l-4.39-2.83c.18-.27.35-.54.52-.82a42.15 42.15 0 0 0 11.23-10.15c1.51-1.63 3.31-3 4.39-5 .77-3.89-.73-7.93.71-11.76.76-2.03.82-5.08 4.44-3.47z" transform="translate(-421.75 -86.94)" style="fill:#3c3020"/><path class="au" d="M267.14 473.9c-2.14-.37-4.55-.84-3.48-3.77.77-2.09 3-2.26 4.73-1.22 4.57 2.67 12.82.26 12.88 9.21-5.22.32-9.64-2.06-14.13-4.22z"/><path class="ax" d="M292.47 576.18c-7.19-2.52-14.13 0-21.15 1-9.89 1.67-19.84.46-29.76.66-1 0-1.48-.92-1.32-2 16.59 1 33-1 49.46-2.79z"/><path d="M575.72 574.89c1.11-4.57 5.72-3.57 8.55-5.4a4 4 0 0 1 4.69-2.18c2 1 2.29 2.85 2.48 4.78s-.06 3.8-1.39 5.37l-.49.35c-3.77-4.96-9.21-2-13.84-2.92z" transform="translate(-421.75 -86.94)" style="fill:#3a2912"/><path class="c" d="M201.95 534.79a29.43 29.43 0 0 1 22.67 7c-7.75-1.73-15.37-3.73-22.67-7z"/><path d="M673.28 550.9c3 9 2.83 17.47-1.56 26.37-4.65 9.41-4 19.63-.19 29.45 1 2.66 2.59 5-.08 7.7a9.19 9.19 0 0 1-8.19 2.87c-16.15-1.42-28.77-10.41-41.37-19.25-4.38-3.08-7-7.39-3.41-13.3 2.31-3.76 1-8.34.88-12.5-.17-5.34 1.18-9.78 5.39-13.14 5.62-4.49 6.17-9.7 2.17-15.44-1.45-2.09-2.53-4.15-1-6.46s3.92-1.54 6.34-1.26c6.59.77 12.81 5 19.79 2.24 7.77 3.06 12.63 11.02 21.23 12.72z" transform="translate(-421.75 -86.94)" style="fill:#364443"/><path d="M588.23 567.77c-1.25.72-2.27 2-4 1.72-1.16-.09-2.33-.29-3.49-.27-6.69.1-14.5 1.89-17.62-6.28a22.68 22.68 0 0 1 9.88-27.46c1.37-.77 2.34-1.39 2.45-3 5.49 1.65 7.23-4.06 11.08-5.65l1.28 1.62c3.2 1.51 3 4.18 2.42 7-.34 2.57 1.23 3.16 3.36 3.38 4.35.46 10.56-.59 11.8 4.13 1.38 5.18 2.1 11.45-1.47 16.74-3.84.58-5.44-4.46-9.5-3.64 3.17 1 6.68 1.57 7 5.81-1.25 2.1-3.56 2.59-5.51 3.63a32 32 0 0 0-7.68 2.27z" transform="translate(-421.75 -86.94)" style="fill:#f1af75"/><path d="M581.16 518.41c2.31 4 .52 7.43-2 10.09s-5.8 0-8.47-.9c-12.42-4.11-24.79-6.91-37.37-.83a19.09 19.09 0 0 0-3.24 2.56c-3.56-.51-1.08-1.91-.34-2.83 3.18-4 7.68-6.71 10.3-11.2 1.18-1.71 4-1.61 4.54-4 1.36-4.05 4.49-5.39 8.42-5.53 11.54-.63 20.6 4.32 28.16 12.64z" transform="translate(-421.75 -86.94)" style="fill:#ededee"/><path d="M688.26 552c-13-2.5-23-11.09-34.19-17.23-1.74-1-3.33-2.22-5-3.34-3.59-3.93-1.71-5.79 2.54-6.76 8.51 1.14 16.18 5 24 8 4.65 1.8 6.37.39 7.82-3.54 1.85-5 2.48-10.57 6.14-14.86a12 12 0 0 1 5.23-1.93c4.87-.86 7.5.34 5.54 5.89a47.75 47.75 0 0 1-5.1 8.34c-4.5 5.76-4.68 12.53-4.49 19.38-.22 2.24.16 4.77-2.49 6.05z" transform="translate(-421.75 -86.94)" style="fill:#e8efee"/><path class="bh" d="m266.51 465.06.78-6.51c.87-4.09.68-8.3 1.91-12.38 1.78-5.9 2-6.07 6.94-1.92 2.78 4.18 3.29 10.42 10 11.11.38 0 .61.67 1.14.37a1.58 1.58 0 0 1-.58-1.79c1.31-1.26 2.66-2.28 4.53-1.1 3-1.53 6.09 2.4 9.15 0 .35 2.34 2.24 3.55 3.71 5.07-4 4.14-6.63 9.39-11.53 12.77-2.52 1.74-4.54 2-6.9.21 0-.51-.09-1-.14-1.52-1.55-.83 0-3.6-2.13-3.77-1.12-.09-1.29 1.71-2.06 2.52-5.34.84-9.9-1.99-14.82-3.06z"/><path d="M561.44 490c1.95-2.88 3.62.52 5.46.25a5.87 5.87 0 0 1 4.12.56c15.73 8.34 33.09 10.55 50.27 13.42a13.53 13.53 0 0 1 8.58 5.88c.77 1.18 1.54 2.36 1 3.88-.61.87-.75 3.59-1.08 2.71-2.1-5.61-7.45-5.33-11.3-5.93-6.84-1.07-13.74-3.78-20.4-3.37-12 .73-20.94-6.73-31.46-9.73-1.18-.38-5.45-3.82-5.19-7.67z" transform="translate(-421.75 -86.94)" style="fill:#2b261b"/><path d="m630.83 513.94-1.77-2.71c-.78-3.05 1-3.78 3.48-3.69 18.53.66 37.06.25 55.6 0 2.27 1.6 2.08 3.43.49 5.38-16 5.41-32.32 6.06-48.88 3.53a9 9 0 0 1-6.25-2.3z" transform="translate(-421.75 -86.94)" style="fill:#d6d8da"/><path d="M687.36 512.55c1.61-.92 1.33-2.49 1.37-4 1.73-.91 3.41-1.24 5 .34.87 3.31-2.27 4.37-3.61 6.44-2 5.53-3.8 11.1-5.88 16.58-1.34 3.53-3.16 5.06-7.51 3.09-8.06-3.64-16.52-6.38-24.81-9.5-5.51-.19-10-4-15.51-4.28a7.3 7.3 0 0 1-2.89-7.08c2.2-.75 3.91.8 5.86 1.22 11.27 1.89 21.15 7.5 31.55 11.71 8.47 3.44 8.84 3.24 12.16-5.33 1.2-3.1.41-7.26 4.27-9.19z" transform="translate(-421.75 -86.94)" style="fill:#989c9b"/><path d="M603.88 559.4c2.43-4.64-1.37-9.66 1-14.51 1-2-1.82-3.22-3.52-3.49-2.95-.46-5.88-1.21-9-.65-3.61.64-5.39-1-4.16-4.86a16.93 16.93 0 0 1 19.82 4c1 2.23 3.31 3.91 2.8 6.76-5.24 2-2.88 6.66-3.2 10.1-.21 2.38 1 4.88-1 7-3.06-.07-3.35-1.92-2.74-4.35z" transform="translate(-421.75 -86.94)" style="fill:#dab58b"/><path d="m553 505.78-8.42 5.53c-7.52-2.73-4.36-5.65-.15-8.58 3.06.34 7.57-3.26 8.57 3.05z" transform="translate(-421.75 -86.94)" style="fill:#1c2424"/><path d="M636.39 521.26c.36-1 .29-2.7 2-1.88 4.46 2.18 9.67 2.71 13.54 6.16-3 1-4.55 2.61-2.82 5.85a53.35 53.35 0 0 1-12.72-10.13z" transform="translate(-421.75 -86.94)" style="fill:#cdd8d6"/><path d="M608.05 539.85c-5.82-5.25-12.93-4.08-19.82-4a7.67 7.67 0 0 0-.38-7.41c6 2.44 12.12 4.85 18.14 7.35 1.7.75 2.2 2.29 2.06 4.06z" transform="translate(-421.75 -86.94)" style="fill:#504229"/><path d="M703.07 555c-.9-1.95-1.77-3.88.85-5.28a3.06 3.06 0 0 1 3.83.22c2.57 2.31-1.17 4.14-.49 6.31-1.56.19-3.2.59-4.19-1.25z" transform="translate(-421.75 -86.94)" style="fill:#b8d4e0"/><path class="bq" d="M390.31 141.06c-.08.45-.19.89-.31 1.33-1.09 4.83-5 7.12-8.79 9.26a83.85 83.85 0 0 1-21.5 7.89 5.1 5.1 0 0 1-1.4.11c-14.39-1.82-15.71.71-14.94 14.08a7.36 7.36 0 0 1-4.52 5.09c-7.82 3-13.36 8.49-17.57 15.53-11.09 6.7-23.75 8.22-36.08 10.79-1.91.4-3.57-1-5.35-1.5a14.72 14.72 0 0 1-4.59-2.72 14.49 14.49 0 0 0-5.93-4.84c-13.83-6.59-27.56-13.28-43.28-14.44-4.45-.33-8.7-.36-12.24 2.07-6.87 4.71-15.12 6.31-22.17 10.49-3.48 2.91-6.19 6.29-6.76 11-2.57 9.3-5.7 18.31-13.6 24.94 4.22-.31 7.4-3.82 11.69-3.23a4.21 4.21 0 0 1 2 3.68c-3.44 13.8-3.61 27.44 2.07 40.78-1 3.78-4.53 3.52-7.27 4.26-6.62 1.76-10.28 6.81-13.75 12.06-.75 1.12.37 1.47 1.41 1.39 7.09-3.21 13.38-8.49 21.76-8.17a7.3 7.3 0 0 1 3.94 1.09c1.41 5.28-3.45 6-6.16 7.81-7.42 4.84-12.64 11-14.68 20.18-.32.35 1.38.08.66-.53-.05 0 .1-.22.39-.59a9.13 9.13 0 0 1 1.48-1.5c5.38-4.4 10.15-9.44 15.24-14.13 1.6-1.47 4.37-5.37 5.64.56-1.46 4.7-4 9-5.59 14.29 2.84-6.16 4.89-12 8.26-17.22 2.17-2.44 5.13-3.37 7.46-1.21 8.7 8 19.33 8.45 30.17 8.41a8.28 8.28 0 0 1 1.38.23c4.84 1.52 9.84.43 14.74.91 2.6.26 5.36.46 6.09 3.69s-.93 5.43-3.39 7.18a10.41 10.41 0 0 1-5.18 2.11c-11.23.76-22.52 2.25-33.58-1.22-9.64-3-22.94 3-26.66 12.16-1.19 2.94-.78 5.9 1.67 7.72 5.07 3.78 10.21 7.71 17 7.86 13.87.3 27.71.84 41-4.64 6.44-2.65 12.26-5.93 16.86-11.14 5.14-5.82 6.17-6 12.77-1.26 1.68 2.58.76 5.12-.12 7.65-2.62 7.51-1.62 14.74 1.75 21.77 3.2 7.28 9.15 3.4 14.12 3.46 4.22.24 8.31.53 12.6-.5 6.09-1.46 8.49 2.16 8.46 8.4 0 7.89-4.22 13.18-8.87 18.53-3.42 1.9-5.37 5.05-7.08 8.4-.66 8.51-5.63 12.67-13.2 16.4-21.26 10.51-43.45 14.37-66.46 10.1-21.74-4-43.27-9.41-62.92-20.43-7-3.92-11.46-10.46-17.69-15.12-3.19-2.38-6.2-5.06-9.42-7.43-2-2.12-2.23-5.05-3.26-7.6-3.25-8.07-9.08-13.27-17.19-16.07a21.39 21.39 0 0 1-8.33-5.25c-4.76-2.07-10.35-2.56-13.72-7.25-3.31-4.52-.9-10.33-3.46-15-1.86-3.48-3.77-7-1.31-11 3.14-2.1 5.69-1 8.17 1.36 8.18 7.81 16.6 15.36 24.56 23.41 5.53 5.6 9.5 4.83 11.59-2.83a81.92 81.92 0 0 0 0-44c-.43-1.59-1.39-3.15-1.32-4.75.7-16.49-8.73-29-16.46-42.17-11.27-19.16-21.59-38.73-27.65-60.29a124.12 124.12 0 0 1-4-27.22c-.94-18.58-2.23-37.34.74-55.81a151.37 151.37 0 0 1 21.2-56.56 273.92 273.92 0 0 1 16.29-24l-.06-.18 4.34-1.27c8.71.06 9.91 1.91 6.68 10.18-1 2.65-2.07 5.35-4.43 7.12-11 8.29-17 20.54-21.59 32.59-3.69 9.79-3 21.33-3.07 32.16-.07 8 .46 16-.34 24.05-.42 4.16 1 7.91 3.15 11.36 7.51 12.22 17.44 22.24 28.75 30.93 5 3.82 10.84 2.57 16.4 2 14.52-1.38 29.06-2.52 43.59-3.82 11.54-1 22.64-4.51 33.63-7.87 9.86-3 19.08-1.89 28.42 1.17a9.85 9.85 0 0 1 6.42 6.14c-.28 1.49-1.86 2.5.5 4.41 14.67 11.91 31.28 13.54 47.19 3.84 5.37-3.28 9.94-7.38 8.08-14.8a5.35 5.35 0 0 1 3.72-3.94c13-4.88 21.82-15.15 29.81-25.35 7.57-9.66 13.27-21.28 9.92-34.75a13.16 13.16 0 0 1-.39-2.08c-.26-2.92-.23-5.83 2.88-7.31s3.47 2.45 5.5 3.2c7.06 9.54 9.67 21.08 13.44 31.94a89.08 89.08 0 0 0 12.05 23.47z"/><path d="M679 250.52c-8.05-8.68-18.8-10.37-29-7.62-20.2 5.45-40.33 9.86-61.34 11-7.56.39-15.41.1-23 2.24-11.21 3.15-18.36-4.49-25.89-10.85s-13.28-14.55-19-22.54c-3.1-4.33-4.15-9.41-3.6-15.25.91-9.54.13-19.23.41-28.84.23-7.72.32-15.72 1.84-23 1.59-7.63 6.5-14.76 10.83-21.56 3.68-5.79 7.14-11.83 13.54-15.79 2.71-1.68 4-6.75 4.59-10.5.72-4.85-5.18-1.59-6.69-4.28 16.49-7 33.84-12 51.53-12.41 19.16-.49 38.43-1.41 57.74 1.71 12.91 2.08 26.3 2.67 38.64 6.72 13.06 4.29 26.63 7.08 39.15 13.47 7.86 4 14.94 9.29 22.09 14s15.39 9.78 18.8 18.84a38.33 38.33 0 0 0 6.94 9.93c.53 1 1.06 1.9 1.58 2.85-.8 1-2.42 1.13-2.94 2.79 1.9-.31 1.77-2.18 2.92-2.81 3.91 4.08 6 9.24 8.37 14.23-2.19.47-3.05-3.57-5.45-1.79s-1.72 4.26-1.14 6.51c4.12 16-2.85 28.78-12.4 40.37-8.77 10.64-19.06 19.74-31.91 25.45a4.73 4.73 0 0 1-1.76 4.17c-14.57 8.43-30.12 10-46.35 6.47a24.56 24.56 0 0 0-5.59-.56c-1.53-.47-3.34-.6-2.91-2.95z" transform="translate(-421.75 -86.94)" style="fill:#f6b37f"/><path class="bs" d="M354.8 68.73c-4.55-1.74-7.13-4.87-6.94-9.93a16.42 16.42 0 0 1 6.94 9.93z"/><path d="M755.53 691c.12-.45.17-1.26.37-1.3 6.86-1.37 13.67-3.59 20.77-1.41-6.67 3.92-13.95 2.89-21.14 2.71z" transform="translate(-421.75 -86.94)" style="fill:#4a5650"/><path d="M424.1 314.33v-21c2.07-.05.75 2.11 2.23 2.51 2.73-7.82-4-16.46 1.91-24 2.07.36 4.34.31 5.45 2.65 2.71 10.14 8.41 18.37 16.3 25.09 3.67 3.13 1.51 5.72-.17 8.53-2.6 2.68-5.53 5.15-5.31 9.45.07 1.48-.23 3-2.17 2.89-1.71-.06-2.41-1.43-2.59-2.86-.57-4.67.93-9.24 1.05-13.41-2.51 10.24-1.2 20.66 2.61 31 .15-7.24-.75-14.49 2.55-21.21 10 4.23 11.62 7.86 8.61 18.75-.51.79 1.37.37.44.18-.32-.06-.2-.24 0-.69.64-1.63 1.45-3.23 3.5-2.67 2.34.62 2.51 2.82 2.13 4.63-1.19 5.78-.24 11.79-2.12 17.51-.95 2.91-1.08 5.49 3.36 5.93 3.93.39 3.49 4 3.39 6.68-.16 4.2-1 8.4.66 12.52 5.81-4.15 5.79-4.14 9.86 1.89 2.62 3.9 5.69 7.53 7.34 12-.94-2.82-2.52-5.39-3.2-8.28-.43-1.87-.68-4 1.66-4.76 2-.66 3 .91 3.86 2.34 1.43 2.37 1.85 5.45 4.9 6.62 3 2.93 10.16 1.36 9.12 8.55-2 1.91-4.7 1.52-7 2.43-6 1.29-11.1 4.59-16.28 7.7-2.09 1.25-3.92 3.49-6.86 2.47a9 9 0 0 1-4.23-4.21c-1.2-6-2.26-12.18-9.48-14.13-2.21-.6-2.47-5.24-6.05-2.88-2.5-3.47-6.38-6.24-5.73-11.31-3.16-6.29-.25-9.07 5.79-10.05a4.51 4.51 0 0 0 1.29-3.68 5.29 5.29 0 0 1-1.94 4.28c-3.52.41-3.69-2.3-3.92-4.53a31.86 31.86 0 0 0-3.19-10.27c-1.28 4-.5 8.45-3.71 11.5-4.67-7.25-5.74-15.47-7.29-23.76-1.81-9.63-4.13-19-1.45-28.79.4-1.47-.46-3.51-1.78-3.29-3.83.65-1.54 4-2.17 6.16-.12.43 0 1-.23 1.32s-.75.16-1.14.2z" transform="translate(-421.75 -86.94)" style="fill:#733e0f"/><path d="M469.31 407.83c7.27-4.37 13.78-10.24 22.67-11.36 4.33-.22 9-3.06 12.74 1.51a12.38 12.38 0 0 0 2.85 9.94c-7.16 11.18-14.25 22.43-27.75 27.13-3.25.81-6.53.48-9.8.24-9-.68-12.26-5.23-10.62-14.73.75-2.34 3.65-3.28 3.91-5.95z" transform="translate(-421.75 -86.94)" style="fill:#f8bd92"/><path class="bw" d="M27.76 278.4c-.13.68-.23 1.93-.42 1.94-5.28.4-4.72 4.57-5.27 8a13.56 13.56 0 0 1-5.68-12.75c.49-4.17 1-8.35 1.48-12.52.18-1.49-.57-3.75 1.89-3.77 1.53 0 2.1 1.64 2.29 3.14.56 4.53 4.15 8.32 3.05 13.32-.35 1.61 1.12 2.4 2.67 2.63z"/><path d="M449.55 386.61c2-.95.66-3.54 2.56-4.85 2.49 1.66 1 7.88 7.26 6 2.5-.75 6.83 11.61 5.71 15.86-.9-1.36-1.56-3.62-2.74-3.93-6.96-1.87-9.61-7.69-12.79-13.08z" transform="translate(-421.75 -86.94)" style="fill:#622a04"/><path d="M826.29 441.89v8.46c-1.11 2.28-.9 5.4-4.07 6.36a4.4 4.4 0 0 1-2-.31c-2.06-.88-4.33-2.88-6.33-.81s.53 4.26.76 6.45.66 4.36-1.56 5.55-3.87-.56-5.53-1.79c-2.36-1.74-3.8-4.77-7.14-5.08-2.51.87-2.69 5.83-6.78 3.89l-2.8-1.61c-2.72-1.11-4.59-.48-3.24 2.64 2.55 5.93-.45 7.11-5.38 7.11a4.71 4.71 0 0 1-1.71-1c-1.8-8-8.87-12.31-13.17-18.57-2.37-3.46-2.38-5.2.73-7.43.76-.55-.2-.2.62-.29 3.57-.36 4.63-6.57 8.68-4.39 3.66 2 1 6 1.26 9.16a6.91 6.91 0 0 0 3 5.66c-3.74-5.57-.54-10.25-.35-15 .08-1.83 1.58-2.88 3.5-2.78a3.93 3.93 0 0 1 3.94 3.43c.44 2.77.35 5.65 1.75 7.69 5.71-2.63 6.28-6.35 3.07-11.83-2.17-3.7 1.14-7.78 5.16-6.13 5.45 2.22 6.88-.64 8.7-4.22 3.44 1.5 3.44 1.5 5.81 4.34-.45-2.05-3.2-4.27-1.13-6 2.28-1.94 4.44.63 5.72 2.31 3.36 4.38 8.38 7.85 8.49 14.19z" transform="translate(-421.75 -86.94)" style="fill:#b26320"/><path class="ar" d="m356.25 408.57-2.76.19c-2.46-.46-6.75.6-3.64-4.45.79-1.29.81-3.66-.45-3.45-7.45 1.26-12-5.39-18.56-6.3-.45-2.53-3.4-5.32 1.68-7 2.91-.95 2.69-4.41 2.56-7.19 5.92.63 12.3.09 16 6.33a11 11 0 0 1-2.57 5.67 6.53 6.53 0 0 1-6.76-.22c4.43 3.26 4.43 3.26 8.19-1.06a57.79 57.79 0 0 0 26 4.5c2.08-.11 4.3-.06 5.85 1.81 1.43 3.25-1 3.28-2.75 2.75-7.64-2.32-14 3.07-21.26 3.29-2.53.09-4.95 2.26-1.53 5.13z"/><path class="bz" d="M349.25 391.72c-1.12-2-.84-3.43 1.42-4.26 2.46-2.21 4.22.56 6.19.9-2.23-1.41-5.56-3.26-3.37-6.09 2.52-3.27 4.1.63 5.76 2.24.42.09.84.17 1.27.24 5.65 3.07 11.22 6.29 17.82 7a5.2 5.2 0 0 1 4.89 4.2l-1.45 1.44-26.06-.65c-3.4-.08-2.34-5.89-6.46-5z"/><path d="M822.06 456.15c2-1.48 1.1-5.11 4.22-5.8L829 456c-4.79 4.16-7.18 10-10.78 15-1.58 2.19-1.93 5.51-4.9 1.08-1.08-1.62-1.55-1.3-2.77 2.35-4.33-5.25-11.35-8.72-11.17-16.94 3.71 1.25 6.28 4 8.93 6.69 1.08 1.11 2 3.21 3.86 2.5 2.3-.89.9-3.28 1.23-5-1-1.94-.55-3.36 1.73-3.07 2.87.39 4.87-1.04 6.93-2.46z" transform="translate(-421.75 -86.94)" style="fill:#783c0c"/><path d="M383.25 395.98c-4-4.23-10-2.44-14.78-5-3.14-1.69-6-3.25-7.93-6.24 3.81-.21 6.84-.94 4.32-5.87-.6-1.16-1.8-2.66-.14-3.68a3.17 3.17 0 0 1 4.39.86c-2.9.66-3.16 1.89-.53 3.29 6.37 3.38 10.5 9.43 16.27 13.51 1.16.82 3.13 1.91 1.57 3.79-.34.42-2.09-.41-3.17-.66zm-5.61-25.4c1.68 7 9.74 9.78 11.17 16.94l4.05 7.15-1 .94-20-17.95c4.39-.37 3.22-5.23 5.78-7.08z" style="fill:#8c5118"/><path d="M812.17 503c-3.5 2.25-6.72-1.24-10.15-.5.81-6.94 8.2-6.6 11.72-10.57 1.41-1.59 5.19-1.35 3.69-5.06a5.31 5.31 0 0 1 5.64-2.81l.86.59c3.34 2.89 1.12 4.87-1.24 6.57s-5.23 3-7.48 5c-1.78 1.57-4.49 2.82-3.35 6.07.14.23.21.47.31.71z" transform="translate(-421.75 -86.94)" style="fill:#a39a95"/><path d="M459.4 420.56c3.91 14.26 4.59 14.67 21.14 12.73-.6 5.42-5.82 3.94-8.81 6.44 7.37-5.11 12.55-2.38 17.06 4 2.48 3.55 6.22 6.08 10.66 5.94a91.84 91.84 0 0 0 26.2-4.48c-.77-3.69-2.58-7.74 3.18-9.12 3 .11 5.75.73 7.43 3.58-2.07 3.62-4 7.15-3.11 11.71.58 3-.65 6-3.36 8.41 5.62.28 10.52 1.3 14.76 4.44.39 3.19-1.17 4.63-4.24 4.71-8.67 2-17 2.69-24.54-3.74-3.71-3.17-8.42-3.7-13.29-3.64-8.4.11-16.81-.15-23.78-5.94-1.36-1.13-2.66.16-4 .18-4 .07-8.09.6-11.95-.1-9.27-1.67-14-10.71-11.33-21.45 1.3-5.23 3.51-10.16 7.98-13.67z" transform="translate(-421.75 -86.94)" style="fill:#f2b078"/><path class="v" d="M114.17 353.47c-1.81-2.17-4.34-2.64-6.94-3-1.07-.48-2.22-1.29-1.5-2.42 1-1.56 2.68-1 4.17-.48 11.71 3.92 18.4 12 20 24.24 2 6.85-3 10.21-7 14l-.15.14a6.87 6.87 0 0 1-4.14-4l4.35-4.32c2.62-10.03-1.55-17.65-8.79-24.16z"/><path d="M847.23 341.14v3a22.41 22.41 0 0 1-3 4.75c-6.28 7.64-6 7.33-13.49.78-4.58-4-9.44-7.69-14.08-11.64-2.75-2.34-6.18-1.79-9.41-2.21-2.5-.32-6.34.29-4.82-4.52 2.41-3 5.22-5.51 9.24-6.08.47-.72 1.37 3 1.5-.12 0-.78-.56-1.67-.6-2.58.27-2.75 1.84-5 2.62-7.61.92-6.46 4.31-10.68 10.9-11.94 2.81-.54 4.5-1.85 4.89-5 .33-2.58 1.37-5.11 5-3.41 7.52 6.16 10.75 14.16 10.23 23.78 1.54 7.58-.39 15.27 1.02 22.8z" transform="translate(-421.75 -86.94)" style="fill:#f9b583"/><path d="M867.06 294.4c-1.55 11.81-8.1 20.68-16.72 28.32q-.76-7.68-1.54-15.36c5.88-4.81 5.41-13 10-18.55-.77-5-4.63-2-7-2.73.72-4.1 4-3.39 6.29-2.65 3.37 1.07 7.24 2 8.38 6.25.36 1.54-.25 3.23.59 4.72z" transform="translate(-421.75 -86.94)" style="fill:#efb178"/><path d="M867.06 294.4c-3.27-9.15-7.47-11.43-15.31-8.32-6.65 2.42-12.65 2.29-17-4.33l-1.49-1.36c5.9-5.62 17.6-7.7 24.8-3.53 6.47 3.72 10.64 9.32 9 17.54z" transform="translate(-421.75 -86.94)" style="fill:#f1bd96"/><path d="M835.94 294.62c-2.94.3-4.23 1.57-3.13 4.69 1 2.84-.34 4.87-3.18 5-7.68.24-11.85 4.21-13.28 11.51-3.17-5.37-1.16-12.11-4.62-17.4l.37-1c7.07-.54 14.23-.44 20.33-5.2 1.25-1.05 3.02.55 3.51 2.4z" transform="translate(-421.75 -86.94)" style="fill:#e1a470"/><path d="M858.79 288.81c-.45 1.33-1.34 2.68-1.27 4 .35 6.87-2.95 11.43-8.72 14.57-4.17-12.38-1.03-18.26 9.99-18.57z" transform="translate(-421.75 -86.94)" style="fill:#de9b68"/><path d="M806.39 284.58c7.76-1 15-3.08 19.86-9.88 1.72 1 1.33 2.68 1.45 4.21a.78.78 0 0 1-.26 1.31 33.86 33.86 0 0 1-18.29 11.32 1.39 1.39 0 0 1-1.71.14 7.73 7.73 0 0 1-1.65-6.34z" transform="translate(-421.75 -86.94)" style="fill:#da9e6e"/><path d="M834.77 281.73c.54-.81 1.36-1.67 2-.4 3.4 6.8 9.72 4.07 15 4.73a38 38 0 0 1-5.29 3.15c-2.43 1-2.14 6.44-5.93 4.24-3.35-1.93-6.48-4.83-5.74-9.62a11.37 11.37 0 0 0-.04-2.1z" transform="translate(-421.75 -86.94)" style="fill:#eeae7b"/><path d="M831.9 281.79c-.11 8.13-3.95 11.31-13.73 10.75 4.42-3.76 9.57-6 12.38-10.71a.78.78 0 0 1 1.35-.04z" transform="translate(-421.75 -86.94)" style="fill:#ddab7b"/><path d="M807.93 291.45a5 5 0 0 0 1.22.09c3.62.6 2.76 3.47 3 5.81h-.05a4.84 4.84 0 0 1-3.18 1.5c-3.41-.1-5.44-1.44-4.74-5.24.72-1.61 1.82-2.61 3.75-2.16z" transform="translate(-421.75 -86.94)" style="fill:#64422b"/><path class="cn" d="M425.48 254.2c-2.4-7.48-.7-15.16-1.06-22.74 2.34 3.07.78 6.67 1.37 10q-.15 6.36-.31 12.74z"/><path d="M831.9 281.79h-1.35c-1.24-.15-2.44-.36-3.11-1.61.1-.44.18-.87.26-1.31 1.21-.47 1.43-2.6 3.07-2.1s1.1 2.19 1.36 3.41c-.07.57-.13 1.09-.23 1.61z" transform="translate(-421.75 -86.94)" style="fill:#7b5123"/><path class="cp" d="M390.11 415.33c-4.65-.61-2.23-2.89-.9-4.49a26.35 26.35 0 0 1 10.11-7.15c2.87-1.24 3.85-3 2.86-6 22.74-2.47 33.72 18.08 27.44 39.48-9.29-24.46-22.03-31.51-39.51-21.84z"/><path d="M820.56 504.2a3.76 3.76 0 0 0-1.18-.28c6.74-4.58 17.85-1.16 22.89 7.7 3.81 6.71 7 13.87 4.92 22l-1.2 1.61c-1.59 1.12-3.83.15-5.38 2.34a3.09 3.09 0 0 1-5.29-.7 4.63 4.63 0 0 1 .17-2.75c5.18-13.62 1.16-22.8-12.53-28.57a7 7 0 0 1-2.4-1.35z" transform="translate(-421.75 -86.94)" style="fill:#f1ede9"/><path class="cn" d="M381.83 244.61c-1.37 4.46 2.37 2.65 3.64 2.51 5.84-.62 10.53.95 14.11 5.76 3.81 5.13 11.51 6 14 12.91.8 2.26 3.65 1.24 4.36-.64 1.42-3.85 4.86-5.46 7.56-7.91-.33 18-3.2 35.76-5.92 53.54-1.34 8.82-3.28 17.39-6.82 25.55-1.23 2.84-1.57 6.62-5.71 7.29-4.73-1.56-7.29-6.34-13.08-7.17-5.39-.77-10.47-1.39-15.77-.38-2.23-.61-4.44 0-6.66.12a3.83 3.83 0 0 1-3.39-2.13 6.4 6.4 0 0 1-.54-2.06 8.45 8.45 0 0 1 1.85-5.94c2.47-3 5.93-4.5 9.28-6.19 2.51-1.28 5.1-2.49 6.1-5.46a31 31 0 0 1 12.15-10.21c7.88-4 9-8 3.47-14.88-1-1.28-2.42-2.19-3.48-3.43-1.71-3.09-2-6.92-4.8-9.44-7.1-4.66-11.06-13.26-19.86-15.79-3.49-2-7-3.86-10.32-6.12-1.89-1.29-3.4-4.24-.7-4.95 6.8-1.75 12.95-6.32 20.53-4.98z"/><path d="M799.52 421.8c12.88-3.64 23.79-.37 29.25 8.76 2.64 4.93 1.28 10.31 1.74 15.48-4 1.2-2-3.64-4.22-4.15-4.18-5.61-7.17-12.23-15-17.55l6.64 11.3c-6-.65-6.46-6.19-10-8.12-2.62-.9-5.64-.33-8-1.92-1.47-.93-3.86-2.24-.41-3.8z" transform="translate(-421.75 -86.94)" style="fill:#793f0f"/><path d="M504.72 398c-4.11-1.66-8.43-1.54-12.74-1.51 2-2.18 4.78-1 7.13-1.64a6.1 6.1 0 0 1 5.07-1 26.78 26.78 0 0 0 14 .22c5.39-1.46 7-4.92 5.39-10.2a23.41 23.41 0 0 0-7.44-11 44.58 44.58 0 0 1-10.6-13.1c-1.4-2.07-3.57-3.29-5.48-4.78a28.89 28.89 0 0 0-5.87-4 13.65 13.65 0 0 1-2.13-1.73 44.24 44.24 0 0 1-5.73-6 9 9 0 0 1-3.52-7.21c-.06-4-1.62-7.72-3.61-11.2-3.67-4.35-2.56-11.14-7.61-14.77-.86-3.57.09-7 1.26-10.24 1.28-3.52.59-6.21-2.76-7.41-5-1.78-8.39-4.48-9.16-10.07-.25-1.78-2.41-2.76-3.36-4.38-1.55-3 0-5.8.6-8.69.52-2.54 2.24-5.35-1-7.42-1.22-.52-2.32-1.15-2.45-2.66 0-3.48.68-7-.32-10.39-.4-1.34 2.24-5.19-2.79-3.88-1.67.44-1.84-2.31-1.63-3.91.33-2.6.33-5.09-1.09-7.41-.36-.57-.68-1.16-1-1.75-3.67-4.79-5.25-9.71-.93-15 3.58-4.42-1.87-8.63-.3-13-.9-11.89 6.06-20.91 11.5-30.31 4.67-8.05 10.39-15.49 15.65-23.2 11.27-9.79 20.44-21.77 33-30.26 7.68-5.18 16.83-6.87 24.35-12.07a44.77 44.77 0 0 1 6.22-3C534.94 114.24 528 121 523.31 129c-13 22.13-22.3 45.32-22.76 71.32-.36 20.68-.85 41.43 2.94 61.88 1.39 7.48 4 14.81 6.81 21.92 8.15 20.84 19.94 39.8 31.15 59.05 4.3 7.4 8.1 14.9 7.2 23.83-.33 3.23 1.43 5.86 2.21 8.78 3.8 14.26 3.06 28.64.44 43a17.27 17.27 0 0 1-1.91 4.54c-3.61 7-6.95 7.75-12.2 1.95-8.32-9.19-18.59-16.36-26.47-26-1.53-1.86-3.92-1.18-6-1.27z" transform="translate(-421.75 -86.94)" style="fill:#e59c65"/><path class="ct" d="M25.17 129.85c-1.44 5.53-.89 10.71 2.7 15.35-7.35 3.32-3.15 8.89-1.78 15.53-.49-6.48-4.81-12.08 1.76-15.57 4.15 3.35 2.52 7.48 1.22 11.55 3.13 1.17 3.38-3.19 6.53-2.37-3.6 5.73 1.64 12.18-1.88 18l-.83-.49c-1.2-2.31-5.35-2.23-5.13-6 1 8.14-3.32 16.21 1 24.39 3 5.59 2.41 5.88 6.81.56l.89-.43c.61.36 1.54.56 1.79 1.09 3.22 6.8 8.61 11.39 14.82 15.35 2.29 1.46.43 3.78-.11 5.77-.93 3.39-1.53 6.87-2.27 10.31-.12.3-.24.61-.35.92-6.07 10.22-5.56 18.22 2 25 2.15-3.39 3.15-7.29 5.28-10.55a3.53 3.53 0 0 1 1.53-1.25c1.71 4.49 4.47 8.76 3.7 13.82-.42 2.82 2.82 2.87 3.09 5a1.12 1.12 0 0 1 .48 1.08c-.06.4-.15.6-.26.6-5.95 8-8.67 15.81-2.38 25.51 3.21 5 7.84 11 3.55 18-5.35-.72-2.86-7.68-7.75-9.49-.53 5 1.89 8.64 4.22 12.13 1.28 1.91 2 3.35-.26 4.51-2.6 1.31-2.57-1.56-3-2.67-2.62-6.59-8-11.36-10.94-17.6-4.08.32-2.78 7.92-6.11 5.86-3.14-2-2.41-7.69-2.36-11.74 0-2.45.83-5.05.73-7.63-.05-1.51-.35-2.58-2.46-2.38-4.81.47-6.78-2.3-4.68-7.31 2.87-6.86.29-14 3.79-21.6-5.23 1.55-4.42 4.81-6.95 8.76 1.57-10.54 2.07-19.1-6.63-24.46-2.22-3.62.45-5.29 2.81-7.08 1.13-4.39 1.13-4.39-2.79-5.4-.22-.06-.64 0-.66-.09-2.64-10.4-14.7-16.32-13.54-28.51 3.28-7.41 2.47-15.92 7.49-24.21-2.16 1.82-2.79 3.61-4.32 2.79-2-1.07-1.54-3.09-1.35-5 .25-2.53 4.06-4.56 1-7.52.33-2.42-1-5.16 1.42-7.17 3 .22 2.35-2.23 2.82-3.83 1.33-4.54 2.58-9.11 6.92-11.9z"/><path d="M435.37 239.36c2.64 0 5.27 0 2.64 3.75-1.59 2.29-3.14 4.65-2.16 8.44l4.07-6.34c1.61 2.74 1.12 4.8.33 6.93-2 5.25-4.48 10.38-3.51 16.27.56 3.34-3 3.08-4.23 4.87-2 1.13-3.44.82-4.27-1.43-.9-8.44 2.34-16.15 4.19-24.11z" transform="translate(-421.75 -86.94)" style="fill:#673607"/><path d="M446.53 216.46c-2.7 4.81-6 9.39-5.58 15.36.1 1.54.09 3.65-2.2 3.59-1.71 0-1.8-1.83-2-3.22.67-6.26 4-11.32 7.43-16.3 1.1-1.51 2.17-1.99 2.35.57z" transform="translate(-421.75 -86.94)" style="fill:#743804"/><path class="cp" d="M124.18 482.22c-.58 3.75-2.75 2.55-5.21 2-8.75-2-15.2-7.61-21.7-13.22-3.79-7.43.08-13.89 2.63-20.5.72-1.85 1.25-2.85 3.91-1.28a7.55 7.55 0 0 0 9-.76l9.64-4.5c1.76-.56 3.74-1.78 4.22 1.43-8.76 8.12-11.03 24.34-2.49 36.83z"/><path d="M530.2 533.9c2.94-5.34 8.07-6.63 13.85-6.79l-12.36 6.83z" transform="translate(-421.75 -86.94)" style="fill:#bdbdbe"/><path d="M824.72 267.75c-3 9.56-7.15 12.45-18.46 12.85-3.53-.08-3.92-2.8-4.53-5.34-.53-4.92-3.5-9.23-3.61-14.26.7-3.84 3.1-6.74 5.71-9.35a26.28 26.28 0 0 0 6.84-11.12c.82-1.62 1.83-3 3.9-3 6.19-.55 4.36 4.28 4.44 7.21.24 8.15-.87 16.5 5.71 23.01z" transform="translate(-421.75 -86.94)" style="fill:#f3ae76"/><path d="m814.57 237.55-2.58 3a22.13 22.13 0 0 1-10.63 7.45 19.43 19.43 0 0 0-14.07 9c-1.85 1.62-3.84 2.92-6.42 3a3.33 3.33 0 0 1-1.78-.92c-.61-6.31 4.47-7.81 8-10.37-2.37.42-5 2-7.86 2.5-3.06.5-5.28 0-4.72-3.89 1.38-3 4.66-.58 6.48-2.31 11.41-2.94 22.46-6.61 30.79-15.63 2.69-.27 4.11 2.1 6.23 3-1.16 1.72-2.3 3.44-3.44 5.17z" transform="translate(-421.75 -86.94)" style="fill:#6b3b11"/><path d="M820.56 504.2c16 1.22 23.19 16.35 15.47 32.42-.69 1.78-1.48 3.46-3.84 3.31l-1.87-2c5.2-5.48 7.65-11.65 4.64-19.1-3.94-9.77-11.9-12.39-21.53-11.95 1.8-2.45 5.37-.13 7.13-2.68z" transform="translate(-421.75 -86.94)" style="fill:#a6896c"/><path d="m832.19 539.93 3.85-3.31c3.7 2.44 6.28-3.54 10-1.34-4.32 5.79-9.07 10.93-17 11.33-.25-2.83 1.26-4.85 3.15-6.68z" transform="translate(-421.75 -86.94)" style="fill:#dbd6d3"/><path d="M803.44 274.84c.3 2.23.73 4.4 2.82 5.76 0 1.33.09 2.65.13 4a4.45 4.45 0 0 1-2.66 1.3c-5.19-.07-9.86 1.92-14.72 3.39-5.22 1.59-7.25 4.22-5.27 9.47a4.63 4.63 0 0 1-1 2.79c-10.18-.08-10.36-.22-9.33-7.82-2.34.15-4.39 2.66-6.79 1a2.82 2.82 0 0 1-.29-2c9.11-8.71 20.55-12.6 32.36-15.76 1.87-.06 2.51-2.87 4.75-2.13z" transform="translate(-421.75 -86.94)" style="fill:#595647"/><path d="M544.6 472.82c1.31-5.19 6.94-8.22 7-14 7.95 2.12 12.62 8.81 18.18 13.93 3.65 3.36 7.18 6.54 11.55 8.82 16.52 8.61 34.31 12.95 52.32 17.43 19.38 4.82 37.48 3 56.53-1.05 8.89-1.91 15.08-7.9 23.42-10 3.3-.82 5.45-4.29 5-8.45-.16-1.77-.57-3.87 1.65-5 2.92 3.43.49 7.94 2.33 11.59.09 3.06-.11 6.21 2.66 8.42 1.59.84 3.79 1.18 3.16 3.84-3.14 2.38-7.06 2-10.58 3-1.5.42-3.57.11-2.9 2.76-2.6.56-5.06-2.68-7.72-.27-2.36 2.83-5.62 2.32-8.72 2.38-17 2.19-34.12 2.37-51.25 2.24a126.18 126.18 0 0 1-25.07-2.8c-19.31-2-38.41-4.82-55.31-15.47a99.18 99.18 0 0 0-22.25-17.37z" transform="translate(-421.75 -86.94)" style="fill:#e19d67"/><path d="M378.82 454.21c-2.31.35-2.24 3.09-4 4 .56-6.33-1.91-13.11 2.82-18.84.74-.9 1.34-1.88 3.35-1.66-1.95 5.35-4.36 10.72-2.17 16.5zm5.67 1.36-2.72-.29c-.36-4 .88-7.82 1.9-11.61a2.12 2.12 0 0 1 2.57-1.79 1.55 1.55 0 0 1 .91 2.25c-1.77 3.62-.33 7.93-2.66 11.44zm5.83 5.37-4.27-3.88c2.67-1.68 2.13-6.32 6.67-7.19-.14 4.12-3.36 7.19-2.4 11.07z" style="fill:#a97546"/><path d="M818.72 530.62c-1.47 0-2.21-.37-2.23-1.5a3.21 3.21 0 0 1 2.67-3.41c1.25-.31 2.64.24 2.21 1.55s-1.85 2.41-2.65 3.36z" transform="translate(-421.75 -86.94)" style="fill:#c48247"/><path d="M808.15 523.88c.43-3.47 1.75-4.74 4.54-5.11.52 3.23-1.33 4.23-4.54 5.11z" transform="translate(-421.75 -86.94)" style="fill:#c28554"/><path d="M727 467.37c2.17-2.27 2.27-6.27 6.17-7.16.85-.19 2.89-15.59 2.18-16.09-1.7-1.22-3.88-3.08-5.7-1.86-4.73 3.16-9.44 1.14-14.19.82a2.84 2.84 0 0 1 1.61-2.91c9.1-3.67 16.41-11 26.33-13 1.91-.78 3.61-2.07 5.69-2.45 6.74-.36 12.83-3.18 19.16-5.08 2.12-.63 4.19-2.43 6.12.28.77 3.71-2 6.83-1.72 10.46-2.06 9.22-9.12 13-17.13 15.78l-1.47 1.45c-4.26 5.78-9.83 10.06-15.78 13.92l-1.42 1.27c-1.27 2.42-3.79.76-5.52 1.69-1 .94-.58 2.1-.57 3.21s-.24 2.52-1.66 2.47c-1.54-.03-2.36-1.12-2.1-2.8z" transform="translate(-421.75 -86.94)" style="fill:#e09d65"/><path d="M799.52 421.8c-1.68 3.1 1.08 2.85 2.52 3 2.39.18 4.58.37 5.83 2.76-2 1.35-.3 2.91-.32 4.39 0 3.33-1.37 5.11-4.76 2.68-1.48-1.06-2.45-2.52-4.84-2.18-3.28.48-5.07 1.19-3 4.77 1.38 2.42 3 4.62 3.37 7.63.3 2.48 1.36 4.22-2.58 3.17s-2.82 1.6-2.28 3.7c.24.95 0 2.1-1.06 2.18-.74.05-2.14-.68-2.21-1.19-.46-3.38-4.72-5.54-2.86-9.72 1-2.29-.65-3.72-2.82-3.66s-2.05 2.08-2 3.75c.14 4.48-3.71 9.48 1.77 13.33.24.17-.21 1.85-.74 2.48-.82 1-1.63 0-2.34-.51-3.36-2.66-5.39-5.87-4.38-10.39.48-2.14 2.34-4.33-.42-6.76-2.54 1.83-2.85 6.71-7.53 5.88-.53-.09-3.15 1.41-.65 4.94 4.44 6.27 13.66 9.73 12.81 19.44-1.8-.14-2.61-2.91-5.11-1.75 0 4.61 5.81 4.3 7 8.39-4.37 1-6.56-4.11-10.47-3.69-3.59-5.91-11.18-3-15.59-7.07l-1.43-1.41c.83-3.44.83-3.44 6.2-3.36-2.69-11.47.95-21 11-26.49 14.82-8.05 18.34-8.45 26.92-8-2.54-1.55-7.47-.59-5.85-5.91 1.87-1.07 3.7-2.93 5.82-.4z" transform="translate(-421.75 -86.94)" style="fill:#9a5313"/><path d="M793.68 422.17c1.1 4.32 4.82 3.68 8 4.23 1.44.25 2.85.89 2.62 2.66a1.85 1.85 0 0 1-2.78 1.23c-4.73-2.43-9.19.18-13.73.62-1.92.19-3.61 1-5-1-.48-.71-1.57-1.89-1.59-.1-.09 6.56-4.75 6.51-9.4 8.2-6.68 2.43-11.09 15.85-8.84 22.84.46 1.43 2.89 2.56 1.34 4.22s-3.5.79-5.08-.42c-2-1.5-3.39-1.77-3.8 1.25-3.33-2.93-2.85-6.25-1.67-10.12.94-3.07 3.68-6 1.82-9.62.64-1.85 1.84-3.54 3.69-3.77 7.16-.9 9.43-6.39 11.75-11.93 3.34-9.64 11.79-13.86 19.69-9.81z" transform="translate(-421.75 -86.94)" style="fill:#733b0b"/><path class="dj" d="M305.25 380.43c5.7 5.49 1.55-3.94 4.33-2.86 1 4.8 1.93 9.6 6.3 12.76.91.65 1.89 1.67 1 2.93-.76 1.09-1.91 1.13-3.07.41-2.54-1.57-5-6.28-7.85-3.23-2.24 2.37 3.13 4.51 3.76 7.47.09.45.2.9.33 1.43-2.45 2-3.66-.63-5.31-1.47s-3.52-1.87-3.9 1.31c-3.68-3.27-2-7.63-2.33-11.58 2.74-1.97 1.89-7.26 6.74-7.17z"/><path d="M738.3 461.55c1.44-2.62.91-6.17 6.41-5.95 3 .12 6.24-5.14 9.37-8-3.69 6.41-5.85 13-2.73 20.38-6.3-2.27-6.3-2.27-5-9.83-3.22 1.55-4 3.77-3.3 6.77.39 1.61 2.28 3.93-.6 4.42-2.29.38-2.49-2.24-2.59-4.12-.12-1.4-.19-2.79-1.56-3.67z" transform="translate(-421.75 -86.94)" style="fill:#7d4919"/><path class="ar" d="M330.85 394.55c-.26 4.4 7.16 5.93 4.23 11.33-5.13-3.64-12.44-1.66-18-7.07a17.22 17.22 0 0 0 13.77-4.26z"/><path d="m728.45 498.39-3.16-3.84c.92-2.76 1.64-5.3 5.58-2.85 3.21 2 7.54 2.37 9.08 6.65z" transform="translate(-421.75 -86.94)" style="fill:#76451c"/><path class="dj" d="M309.61 377.57c1.29-2.37 3.74-.93 5.52-1.69-.89 6.4 3.92 9.56 7.56 13.58-7.26-.83-8.92-7.76-13.08-11.89z"/><path d="m764 584.88-2.81 1.47c-2.84 1-5.68 2.15-8.51-.05-1.27-7.57-2.57-15.14-.12-22.73 2-6.46 7.42-10.45 11.31-15.55 2-1.88 4-4.64 5.85.07l-.09 4.22-2.83 5.69a22.51 22.51 0 0 0-.13 17c1.14 2.73 2.31 5.45 0 8.15z" transform="translate(-421.75 -86.94)" style="fill:#ea4336"/><path d="M769.65 548.06c-1.92-2.62-3.9-.58-5.85-.07 1.81-4.72 4.85-9 4.59-14.44-.16-3.39 2.4-4.15 5.34-3.81l.27 2.49c-1.43 5.28.34 11.44-4.35 15.83z" transform="translate(-421.75 -86.94)" style="fill:#c03c3c"/><path d="m699 504.39 8.28-.54c8.25 4.13-2.17 3.24-1.28 5.8 5.18 1.06 10.08-4 15.64-1.29 3.06 1.5 2.73 2.05-.12 2.92-10.68 2.59-14 9.12-10.54 19.42.2.59-.39 1.29-.93 1.75l-1.3 1.57a23.73 23.73 0 0 1 0 7l2.69 1.91c-9.71.77-9.71.77-14.32-11 1.69-3.27-2-4.28-2.74-6.54l4.45-7.11c5.71-5-2.07-7.31-2.23-11.15a3 3 0 0 1 2.4-2.74z" transform="translate(-421.75 -86.94)" style="fill:#174657"/><path class="bh" d="M288.25 445.51c-1.68-4.33-.61-9.29-3.06-13.46-1-1.76-.54-2.68 1.41-3.69a32.51 32.51 0 0 1 13.12-4c.53 1.56 3.1 1.37 3 3.88-3.54 1.27-9.26-1.74-10.55 4.92-.46 2.39-.56 4.12 1.45 5.5s4.22 2.28 5.91-.6c.17-.9.44-1.62 1.56-1 1.78 4.29 2.28.32 3.08-.55s1.43-2 2.77-1.55 1.31 1.91 1.16 3c-.38 2.87 1.52 7.89-1.49 8.13-4.22.35-8.57 6.84-13.08.53-1.22-1.7-3.46-.9-5.28-1.11z"/><path d="M727 505.47c5.23-2.32 7.88 1.93 11.23 4.41-3.72.16-9-1.6-6.94 5.66-2.49-2.47-6.05-4.25-5.51-8.64z" transform="translate(-421.75 -86.94)" style="fill:#cad2de"/><path d="M708.73 541.06a5.91 5.91 0 0 1 0-7c3.6.29 5.31 2 4.26 5.72z" transform="translate(-421.75 -86.94)" style="fill:#bbd6e1"/><path d="m722.86 524-1.56 1c-2.63-.21-4.66-1.12-4.13-4.26a2.23 2.23 0 0 1 2.55-1.9c2.9.5 3.66 2.5 3.14 5.16z" transform="translate(-421.75 -86.94)" style="fill:#afccde"/><path class="ad" d="M344.92 488.06c-4-4-3.93-13.33.13-17q-.06 8.51-.13 17zm-.01 8.21v-8.15c4.26 5.58 4.26 5.65 0 8.15z"/><path d="m330.74 476.6.12 22.73c-2.61-1.76-.4-5.38-2.8-7.23l-.06-12.53zm.15 22.76 8.51.05c-2.84 1.65-5.71 5.85-8.51-.05z" style="fill:#af3d38"/><path d="M571.26 532.38c-7.27 3.35-10.75 9.27-11.5 17-3.18 1.75 2.17 7.84-4.07 8-4.59.12-5.17 4.83-8 6.93-9.78-14.82-1.1-30.12 14.56-36 2.39-.89 6.92.62 9.01 4.07z" transform="translate(-421.75 -86.94)" style="fill:#f0eff1"/><path d="M559.93 563.62c1.35 6.76 8.41 7.11 12.33 11-6.83 2.08-13.33 1.89-19.85-3.15 4.37-1.11 5.88-4.53 7.52-7.85z" transform="translate(-421.75 -86.94)" style="fill:#d9d6d1"/><path d="M548.46 532.32c-1-1.64-2.77-1.08-4.22-1.43 2.26-3.55 6.15-2.26 9.77-4.07-.7 4.07-3.32 4.57-5.55 5.5z" transform="translate(-421.75 -86.94)" style="fill:#cccdcf"/><path d="M555.78 564.24c-.2 1.42-.61 2.74-2.35 2.72a1.61 1.61 0 0 1-1.52-1.87c.06-1.41.63-2.94 2-3.19 1.09-.21 1.81 1.1 1.87 2.34z" transform="translate(-421.75 -86.94)" style="fill:#dee1e4"/><path d="M595.39 565.08c1-2.53 3.13-3 5.54-2.84 2.79 1.19 2.91 3 1.36 5.35-3 4.63-5.93 9.34-12.24 9.87a7.3 7.3 0 0 1-.28-5.3c.77-3.23 2.97-5.34 5.62-7.08z" transform="translate(-421.75 -86.94)" style="fill:#e2ae8a"/><path d="M602.29 567.59a8.49 8.49 0 0 0-1.36-5.35 7.3 7.3 0 0 0-7.24-4.43c-1.58.05-3.8.18-3.64-2.08.2-2.73 2.72-2 4.42-1.88 4 .28 6.44 3.41 9.41 5.55.93 1.45 1.86 2.89 2.78 4.34q-2.19 1.92-4.37 3.85z" transform="translate(-421.75 -86.94)" style="fill:#ac7745"/><path d="M595.39 565.08c-.23 3.66-4.1 4.44-5.62 7.08-.2-1.57.2-3.36-1.54-4.39 1.77-2.5 3.4-5.45 7.16-2.69z" transform="translate(-421.75 -86.94)" style="fill:#a06d3e"/><path d="M694.36 525.47c1.4 2 4.28-1.42 5.28 1.31.87 2.36-1.39 3.61-2.54 5.23-2.49-2.5-4.21-3.76-5.43 1.28-1 4 0 8.52-2.63 12.16-.45-7.25-.42-14.37 5.32-19.98z" transform="translate(-421.75 -86.94)" style="fill:#b3ccd7"/><path d="M697.26 507.57c3.85 3.12 8.21 6.16 1.55 10.79.89-5.64.22-5.86-8.7-3 1-2.27 2.11-4.53 3.17-6.8.98-1.71 1.89-3.72 3.98-.99z" transform="translate(-421.75 -86.94)" style="fill:#c5ced0"/><path d="M697.26 507.57a3.92 3.92 0 0 0-4 1 5.06 5.06 0 0 1-4.55 0c-17.92 2.22-35.88 1.55-53.85 1-2-.06-4.76-2-5.81 1.63-2.17-2-3.73-4.76-6.86-5.57 16.78 1 33.58 1.35 50.41 1.41 9 0 17.43-3.22 26.34-2.69z" transform="translate(-421.75 -86.94)" style="fill:#977a65"/><path d="M687.36 512.55c-1.74 5.35-3.43 10.7-5.23 16-1 2.88-2.49 4.09-5.85 2.6-12.24-5.42-24.6-10.54-36.92-15.78 3.83-2.56 7.71.06 11.39.36 12.19 1 23.86-1.07 35.52-4 .28-.02.73.55 1.09.82z" transform="translate(-421.75 -86.94)" style="fill:#edefef"/><path d="M699.87 409.23c-4.73-2.71-7.93-3.5-11.51 2.84-2.78 4.9-9 7.92-14.77 10a93.17 93.17 0 0 1-35.08 5.81c-9-.25-17-1.38-24.62-6.43-6.62-4.38-7.56-10.29-1.92-15.76s10.52-11.48 19.4-11.12c1.32.05 2.68-.79 4 0 10.58 6.16 22.15 2.33 33.25 3.16 2.19.17 4.61-.9 6.72-1.86s3.88-2.88 3.33-5.62c-.61-3-3.21-2-5.17-2.29-4.8-.61-9.85 1.41-14.44-1.35 2.07-3.26 5.63-4 8.9-5.07 13.85-4.64 22.28-13.92 24.67-28.47.33-2.05.36-4.27 2.65-5.36 9.87 3.85 15.85 11.57 19.68 20.93a27 27 0 0 1 1.94 9.46c-1.6 9.92-9.68 16.52-13.08 25.52-1.46 1.77-1.75 4.38-3.95 5.61z" transform="translate(-421.75 -86.94)" style="fill:#f8b37e"/><path d="M612.3 280.57c1.5-3.5 5.79-4.46 8.05-4.94 5.09-1.08 8.92-3.66 13-6.3 7.47-4.87 15.51-2.44 23.25-1.32 14.14 2.05 26.24 9.71 39.18 15.07 2.28.94 2.63 2.43 1.7 4.49 2.62 2.43 3.51 5.28 2.12 8.69-7 8.41-15.06 9.61-26.49 4-5.7-3.78-10.45-8.72-15.52-13.24-8.73-7.79-18.69-9.08-29.6-6.83a81.79 81.79 0 0 0-11.43 2.7c-1.87.02-3.89.36-4.26-2.32z" transform="translate(-421.75 -86.94)" style="fill:#f6b785"/><path d="M698.64 295.81c.9-2.94-.88-5.48-1.19-8.24l4.19 1.29c4.23 6.4 11.87 9.09 16.45 15.14 1.49 2 3.27.92 5.09.26 7.19-2.62 14.27-2.55 21.11 1.27a5.53 5.53 0 0 1 1.49 1.52c.43 1.66-.37 2.78-1.61 3.71a6.18 6.18 0 0 1-4.12.44c-3.12-.81-6.07-2.4-9.46-1.91s-6 2.41-9.13 3.4c-4.46 2.7-4.64 7.39-5.06 11.71-.79 8.3 0 16.43 3.39 24.23 1.38 3.19 3 6.47 2.42 10.17-1.34 2.35-2.84.94-4 0-4.33-3.61-8.16-7.45-10.78-12.78-3.68-7.51-7.72-15.29-17.42-16.85a3.33 3.33 0 0 1-1.81-.68 20 20 0 0 1-2.66-4c-4-6.77-4-7.09 2.14-11.76a17.05 17.05 0 0 0 4.46-4.3 39.89 39.89 0 0 0 7.45-10.92c.77-1.69-.59-1.21-.95-1.7z" transform="translate(-421.75 -86.94)" style="fill:#b8703f"/><path class="eh" d="M322.31 342.06c-10.48 2.76-19.17 9.14-28.57 14.08-5.67 1-11.87 4.16-15.2-3.91.81-17.59 11.64-26.75 27-32.13a13.76 13.76 0 0 1 3.81-1.55c7.23-1.17 7.26-1.16 5.44 5.56-.6 2.2-.68 4.53-1.65 6.63-.88 1.75-2.13 3.56-4.11 3.45-6.62-.36-5.93 3.33-4.5 7.47-.31 1 1.31-.25.4 0-.64-5.39 3.69-4.13 6.49-4.93 1.43-5 3.41-9.76 5.16-14.61.56-1.56 1.25-3.3 3.33-3s2.36 2.12 2.64 3.75c.64 3.7.06 7.54 1.28 11.18a9.74 9.74 0 0 1-1.52 8.01z"/><path d="M743.87 307.11c-7.55-3.37-15-5.16-22.41.53-1.82 1.41-3.46 1.32-4.28-1.25-1.25-3.88-4.62-6.5-7.67-7.88-4.63-2.09-6.66-5.29-7.87-9.65 5.32 3.2 10.75.36 15.72-.58a102.65 102.65 0 0 0 25.1-7.94 3.57 3.57 0 0 1 1.23 3.21c-.64 4.44-.72 8.69 1.28 13 1.55 3.45 2.03 7.35-1.1 10.56z" transform="translate(-421.75 -86.94)" style="fill:#e59d64"/><path d="M616.46 281.61a17.09 17.09 0 0 1 11.5-2.67 35.92 35.92 0 0 1 16.37.27c-5.39 5-13 2.17-18.81 7.37 4.26.05 6.51-1.93 9.14-2.55 3.25-.77 7.35-2.06 8.63 1.91s-3.2 4.22-5.86 5.32c-5.57 1.24-10.08 4.33-14.11 8.23-4.34 3.79-7.77 8.62-13 11.35-2.17 1.11-4.11 2.62-6.37 3.57a29.44 29.44 0 0 1-16.46 5.33c10.34-7.59 14.53-17.54 18-27.94a23.46 23.46 0 0 1 10.97-10.19z" transform="translate(-421.75 -86.94)" style="fill:#4f2b0a"/><path d="M531.65 434.55c-1.5.4-4.61-.67-2.67 2.9-6.53 2.72-.93 5.88-.32 8.86-8 .4-15.68 2-23.44 3.77s-16.92-3.57-20.64-10.73c-1.54-3-1.25-5.36 1.55-7.38 5.95-4.28 11.46-9 15.47-15.29 2.11-3.31 3.76-1.82 4.69 1.05a21.89 21.89 0 0 1 1.13 6.22c-.13 2.52-1.82 4.26-3.09 6.23-2.5 3.84-2.83 7.48 1.32 10.5s7.69 2.49 11.2-1.29c2.92-3.15 4.35-7.31 7.55-10.2 1.6 2.94 4.33 4.26 7.25 5.36z" transform="translate(-421.75 -86.94)" style="fill:#dc9d6b"/><path d="M688.9 328.48h1.16c5.8 3.82 8.42 13 5.59 19.58-1.9 11.76-5.28 22.7-15.91 29.87-6.33 4.27-13.64 6.1-20.63 8.72-11.51.3-23 .83-32-8.6-2.4-2.53-4.63-1.15-6.25 1.43-1.26.51-1.81-.28-2.26-1.24-.68-2.55 1.11-4.43 1.79-6.62a11.41 11.41 0 0 1 1.13-2.81 2.79 2.79 0 0 1 3.6-1c16.89 18.45 41.69 18.07 58.49-.92 7.2-8.69 7.25-18.64 5.13-29-.52-3.08-3.68-5.67-1.76-9.21a1.33 1.33 0 0 1 1.92-.2z" transform="translate(-421.75 -86.94)" style="fill:#936e47"/><path d="m742.52 283.39-.06-3.05c2.44-7.81 8.48-12.14 15.4-15.32 2.46-1.13 4.59-2.25 6-4.58 1.25-.9.67-3.43 3-3.38 4.95 2.38-.19 5.67.9 8.89 5-.4 6.28-7.62 11.8-6.86l1.63.06c-.76 8.71-8.3 11.67-13.82 16.34-5.47 3.61-10.13 8.27-15.52 12-3.76.74-4.65 6.09-9.12 5.68a16.93 16.93 0 0 1-.21-9.78z" transform="translate(-421.75 -86.94)" style="fill:#472d0f"/><path d="m506.5 424.89-2.5-9.56c-4.15 7.7-10.16 12.88-16.69 17.47-3.67 2.58-2.45 4.94-.26 7.62 7.1 8.69 15.33 10.71 28 5.9a17.43 17.43 0 0 1 13.63 0c0 2.16-1.33 2.89-3.25 2.63-6.7-.88-12.94 1.12-19.36 2.56-9.37 2.11-16.77-2.15-21.6-9.73-2.68-4.21-5-3.89-8.56-2.38-3.18 1.36-6.27 3.33-10.71 1.48 4.62-4.31 11.63-2.85 15.36-7.58 8.34-4.46 15.41-10.25 20.19-18.63 1.6-2.81 3.65-5.42 6.84-6.74 2.9 4.79-.37 10.75 2.92 15.46a3.26 3.26 0 0 1-4.01 1.5z" transform="translate(-421.75 -86.94)" style="fill:#a66937"/><path d="M728.69 407.86c-.35.3-.66.77-1.07.88-15.5 4.41-23.52 15.53-27.33 30.43-3.2-7.44-5-15-1.79-22.93 2.63 1.78 2.47-.57 2.73-1.95.71-3.61.69-7.43 3.35-10.41a4.5 4.5 0 0 1 1.78-.94c4.38.3 8.71 1.25 13.14 1.08 3.07 1.26 7.65-1.08 9.19 3.84z" transform="translate(-421.75 -86.94)" style="fill:#dd9c65"/><path d="M622.29 369.63c-.06 1.06-.12 2.11-.19 3.16-1.3.5-2.59 1.09-4.05.69-2.13-.35-2-2.61-3.15-3.77l-3.92-.14c-.7-3.14 4-2.6 3.68-5.48 0-1 .06-2 .07-3-.9-10 1.19-19.61 4.1-29.08 3.26-8.51 8.22-15.45 17.31-18.51a3.87 3.87 0 0 1 3.5 2.28 3.14 3.14 0 0 1-1.45 2.71c-13.77 11.34-18.05 26-15 43.17a7.9 7.9 0 0 1 .15 1.94c.32 2.1-3.87 3.47-1.05 6.03z" transform="translate(-421.75 -86.94)" style="fill:#835b38"/><path d="m679 250.52 2.61 1.74c1.8.4 3.64.51 5.22 1.76 15.34 12.12 35 7.73 45.91-6.17a17.35 17.35 0 0 1 1.51-1.46c.46-1 .91-2.08 1.36-3.12 4.26 2.24 2.09 5 .58 7.64-7.1 12.37-27.44 18.71-42 13a63.81 63.81 0 0 1-17-10.07c-.84-.7-2.33-1.47-1.52-2.63.5-.7 2.17-.5 3.33-.69z" transform="translate(-421.75 -86.94)" style="fill:#ab6b34"/><path d="m506.5 424.89 4-1.51c3.69 4.21 9.19 4.07 13.91 5.81a21.12 21.12 0 0 1-9.91 14.4c-4.12 2.6-8.12.48-11.48-2.58s-3.75-6.45-1.35-10.1a77.24 77.24 0 0 1 4.83-6.02z" transform="translate(-421.75 -86.94)" style="fill:#904f1e"/><path d="M588.56 377.93c-1.24.4-2.53 1.6-3.69-.07-1-1.51.16-2.51.88-3.68 5.25-8.49 12.08-14.46 22.7-14.55 4.16.29 6.27 2.78 7.12 6.62-1.77 2.07-4.39 1.53-6.54 1.72-8.17.72-14.71 4.47-20.47 9.96z" transform="translate(-421.75 -86.94)" style="fill:#e29f68"/><path d="m615.14 365.39-6.69-5.76c-8.57-13.58-7.57-27.85-3-42.37 3-2.29 3.12-2.22 4.33 2.66a14.29 14.29 0 0 1-.23 3.33c-3.75 14.17-1.77 27.31 7 39.24v2.89c-.46.62-.94.62-1.41.01z" transform="translate(-421.75 -86.94)" style="fill:#924e1d"/><path d="m618 372.49 4.07.3c-.92 1.71-2.78 2.91-2.76 5.12-.94.92.24 3.93-2.77 2.82-1.59-4.38-3.08-.29-3.47.38-3.07 5.36-9.72 7.19-12.45 12.87-.66 1.39-2.45 1.06-3.84 1.11-2-3.26-.28-6 1.58-8.38 5.2-6.57 11.23-12.1 19.64-14.22z" transform="translate(-421.75 -86.94)" style="fill:#e3a272"/><path class="ev" d="M196.25 285.55c-4.9 4.25-11.2 6.5-15.54 11.66-2.78 3.33-5.18 6.56-5.68 10.94-1.26 1.89-.92 4.62-3.1 6.2-2.28-7.35 1.72-16.45 9.52-22.85 3.77-3.09 8.78-4.5 11.67-8.73z"/><path d="m766.79 257.75-3 2.69c-1.39-10.65.58-15.72 6.9-16.35 3.35-.33 6.82.56 10.24.89l-5.84 2.66c-.67 5.08-5.16 7.04-8.3 10.11z" transform="translate(-421.75 -86.94)" style="fill:#9f7046"/><path class="ev" d="M193.39 278.45h1.42c.12 4-4.43 1.84-5.58 4.19-8.72-.56-14.86 5.83-22.42 8.36 3.74-8.39 11.3-10.2 19.31-11.27 2.44-.34 5.2 1.16 7.27-1.28z"/><path d="m616.57 380.73 2.77-2.82c.51.53 1 1 1.52 1.58-2.18 5.83-6 11-7.08 17.27-.26 1.58-1.17 2.78-2.83 2.15s-1.23-2.26-.75-3.59c1.8-5 2.8-10.32 6.37-14.59z" transform="translate(-421.75 -86.94)" style="fill:#b16f3e"/><path class="ey" d="M284.08 316.63c-3.16 5.47-2.06 12.2-5 17.84-3.39-.85-1.63-3.53-2.37-5.17.62-2.3 1.91-4.48 1.38-7 .9-1.93-.72-5.17 2.93-5.69a2.22 2.22 0 0 1 3.06.02z"/><path d="M616.46 281.61a42.31 42.31 0 0 1-11 10.19c-.5-5.45 2.66-8.67 6.87-11.23 1.03 1.65 2.67 1.17 4.13 1.04z" transform="translate(-421.75 -86.94)" style="fill:#a4754c"/><path d="M608.31 320.13c-.47-1.43.85-4.64-2.85-2.87-.16-1.14-.34-2.26-1.53-2.85a8.25 8.25 0 0 1 5.48-4.47c2.59 3.71 3.59 7.26-1.1 10.19z" transform="translate(-421.75 -86.94)" style="fill:#a67344"/><path class="bs" d="M281.25 29.11c6.73-.76 12.57.66 17 6.28a10.35 10.35 0 0 0 4.67 3c14.29 4.88 26.52 12.3 33.68 26.29.31.61.77 1.45 1.31 1.59 15.16 4 15.56 17.6 19 29.21 1.59 5.35.46 9.87-2.64 14.62-4.67 7.18-7.1 15.72-13.63 21.85-2.82 2.64-5.6 5.11-9.41 5.83-3.33.64-6.2 2.68-7.16 5.26-2.17 5.89-7 6.71-11.91 8.11-5.19 1.5-10.29 3.32-15.51 4.69-6.35 1.67-12.35 2.38-19.1-.38a51.33 51.33 0 0 0-22-3.28c-5.11.28-10.26.5-15.45-.86-3.52-.92-7.87-1.25-11.17 0a63.84 63.84 0 0 1-26.32 3.9c-1.11-.06-2.68.12-3.31.83-8.14 9.22-19.26 7.41-29.48 7.4-10.62 0-21.09 1.73-31.67 1.61-6.89-.08-10.67-4.09-15.14-9.27-6.5-7.54-10-17.57-18.71-23.15-4.25-2.73-6.1-6.39-5.81-11.26 1-16.52 2-32.84 5.67-49.28 2-9.05 2.44-18.68 9.37-24.28 8.9-7.2 15.16-16.59 23.63-24 14.24-12.49 32.13-10.79 48.9-12.81 6.79-.82 13.45-3.46 20.75-2 4.53.92 9.08 1.59 13.64 2.68 7.79 1.87 16 2.16 24 3 11.56 1.19 22.38 4.93 33.52 7.52 3.85.9 3.13 4.14 3.24 6.9-5.7 3.84-11.51 1.61-15.84-1.59-10.86-8-23.48-7.77-35.77-9.2a188.77 188.77 0 0 0-44.38-.12 21.45 21.45 0 0 1-4.24 0c-10-.82-19.9-1.08-24.54 10.24-7.42 18.08-5.23 32.49 6.08 42.33 2.74 2.38 4.33 5.27 6 8.44 4.89 9 7.25 20.13 18.39 24.61 1.74.69 2.91 2.42 3.75 4.13 5.57 11.28 13.91 19.28 26.24 22.84 4 1.16 6.68 4.36 9.08 7.61 3.23 4.39 7.28 5.8 12.37 3.72 3.22-1.31 6.36-.86 9.7-.29 9.91 1.72 19.77 4.35 29.58 5.58 14.47 1.81 28.23-3.11 40-12.37 2.21-1.75 4-4.13 6.49-5.44 18.61-9.81 17.43-29.53 12.42-44.61-1.47-4.46-3.55-8.71-4.94-13.24-2.12-6.92-8.15-10.12-13.82-13.44-4.68-2.73-11.34-3.28-10.75-11.16.11-1.39-1.57-1.31-2.74-1.5-10.39-1.59-16.69-9.1-23.04-16.54z"/><path d="M734.22 246.39c-3.55 9.56-18.44 17.77-28.9 16.6-9.2-1-17.17-4.17-23.74-10.73 1.32-.37 2.81-1.37 3.91-1 16 4.74 31.23 3 46-4.59.72-.44 1.8-.22 2.73-.28z" transform="translate(-421.75 -86.94)" style="fill:#e3a068"/><path class="bq" d="M356.36 71.56c-.32 2.14.95 5.21-1.88 6-2.21.64-3-2.17-3.2-3.71-1.07-6.49 3.47-1.3 5.1-2.3z"/><path class="fc" d="M67.36 301.06c-.14-8.76-4.32-16-8.31-23.47-3.2-6 1.58-18.57 6.84-20.24 2.15 2.37 1.3 4.77.11 7.19-1.45 2.91-3 5.8-2.75 8.4 2.36-3.54 1.51-9.88 8.15-11.32l1.52 1.46c1.08 3.07-1 5.37-1.95 7.94a29.73 29.73 0 0 0-2 13.9c-.09-4.06-.47-8.63 2.82-12.44 4.52 3.67 3.59 9 4.14 13.85.46 4-1.58 8.36.86 11.23.14-9.36-3.25-19.34-1.67-29.71a2.64 2.64 0 0 1 3.88-.92c1.79 1.49 4.5 1.79 5.52 4.27 1.46 3 .81 6-.32 8.85-3.11 7.89-1.95 15.15 2.86 22 1.2 1.71 2.84 3.76 1.55 5.74s-3.7 1.21-5.7.45l-5.52-.32c-1-5.76-7.61-3.26-10.03-6.86z"/><path d="M449.5 307.28c-1.33 2.2-3.45 4.09-2.81 7.08-3 5.52-.78 11.46-1.36 17.19-.27 2.7 0 5.46 0 8.8-8.84-11.28-10.11-32.16-2.68-42.65 1.09 7.45-2.19 14.42-.52 21.53 2.93-3.87.37-10.82 7.37-11.95z" transform="translate(-421.75 -86.94)" style="fill:#5d2b04"/><path class="bw" d="M27.77 278.41a6.35 6.35 0 0 1 0-2.09c.78-2.26-3.12-4.89.47-6.79 1-.52 1.89.61 1.93 1.45.1 2.73 2.23 6.23-2.43 7.42z"/><path d="M822.06 456.15c-1.19 3.62-2.51 6.78-7.29 3.77-1-.61-1.16 1-1.36 1.8-1.16-2.46-4.16-5-1.33-7.68 3.92-3.73 7.01-.39 9.98 2.11z" transform="translate(-421.75 -86.94)" style="fill:#984b0f"/><path d="M805.61 448.16c-2.86-1.53-4.88-3.49-4.42-8.09a10.43 10.43 0 0 1 4.42 8.09z" transform="translate(-421.75 -86.94)" style="fill:#944403"/><path class="bz" d="M349.25 391.72c-.42 1.75 2.19 3.61.18 5.09s-4 .15-5.82-.9a23.22 23.22 0 0 1-3.81-3c-1.26-1.15-4.19-1.91-2.8-4 1.68-2.59 3.14.25 4.29 1.27 2.42 2.15 5.25 1.34 8 1.54z"/><path d="M535.92 440.41c10.52 5.31 14 15 8.74 24.22-5.87-.86-11.27-4.05-19.15-2.8 5.64-4.57 7.17-8.86 5.55-14.47-1.06-3.55.84-6.31 4.86-6.95z" transform="translate(-421.75 -86.94)" style="fill:#f6bc92"/><path d="M803.58 331.55c-6.87 1.88-13.19 5.6-21.76 5.76 4.4 4.88 9.86 5.93 13.66 9.32a3 3 0 0 1-2 2.24c-10.7-3.68-20.92-8.35-30.16-15-4.12-4.47-8.94-8.3-12.38-13.39-1.27-1.88-3.32-3.45-2.85-6.16a3.86 3.86 0 0 1 2.65-1.17c4.86.31 7.85-3.87 12.09-5.06a4.62 4.62 0 0 1 4.28 2.18c-.37 3.1-3.19 3.82-5.23 5.16-3.19 2.09-3 4.09-.79 6.85 6.58 8.19 14.5 12.18 25.18 9.23 3.36-.93 6.87-1.34 10.07-2.85 15.45-6.35 18.68-14 12.4-29.49a2.21 2.21 0 0 1 .55-1.87h2.79c5 5.3 4.39 11.94 4.3 18.44l-2.85 7.1c-.77.67-.33 2.08-1.53 2.48z" transform="translate(-421.75 -86.94)" style="fill:#956b4b"/><path class="cn" d="m390.25 238.42 1.53-2.48c.3 1.86 3.72 2.8 1.61 5.31a2.25 2.25 0 0 1-1.88.66c-1.91-.53-.89-2.3-1.26-3.49z"/><path class="j" d="m381.67 197.78 3-.13c.52 2.29 1 4.58 1.55 6.87l-2.46 1.73a2.72 2.72 0 0 1-1.69-1.29c-1.09-2.34-2.32-4.69-.4-7.18z"/><path d="M804.82 291.45c.22.58.43 1.17.65 1.75-.79 3.26.93 4.21 3.79 4.1 0 .4.07.8.1 1.2-9.52 4.77-19.43 8.15-30.22 8.29-3.28-4.06 1.22-3.73 2.85-5l.43-3.07a29.8 29.8 0 0 0 22.4-7.27z" transform="translate(-421.75 -86.94)" style="fill:#958c80"/><path class="fj" d="M397.45 285.23c5.23 2.34 7.75 6.52 8.36 12.09.46 4.24-1.35 6.89-5.43 7.71-6.36 1.29-10.17 6.06-14.52 10.14a4.24 4.24 0 0 1-3 1.25c-4.61-1-9.43-.15-14-1.59-3.17-2.92-3.59-7.46-6.27-10.72-1-1.19 3.57-8.77 4.6-8.11 4.4 2.83 9.38-.52 13.72 1.65 1.15 0 1.83 1 2.78 1.42a3.48 3.48 0 0 0-4-1.73 3.51 3.51 0 0 1-1.25-.59c-1.73-1.38-4.81-2.53-3.56-5.13s4.09-.71 6.24-.36c.91.14 1.81.36 2.71.57 3.69 1.15 4.52 4.76 6.41 7.28-.82-2.67-3.91-4.79-2.78-8.29a3.91 3.91 0 0 1 2.79-.76 6.71 6.71 0 0 1 2.9 1.54c-1.33-2.33-3.68-1.65-5.61-2.13-3.23-1.73-8.46 1.35-10.08-4.21 2.94-2.44 6.71-1.26 10-2.33 3.5-.05 6.95.25 9.99 2.3z"/><path d="M809.32 371.16c-3.07 2.44-6.6 1-9.94 1.18-2-2.15-4.39 2.12-6.34-.44-.74-5.19 3.79-9.57 2.25-14.87-.36-2.86-2.55-5.36-1.73-8.46l1.92-1.94c3.73.36 6.79 1.89 8.54 5.32 2.46 4.84 8.54 5.84 11.06 10.58.24 1.53-.93 2.43-1.92 2-4.68-2.28-6.63.44-8.26 4.17 1.03 1.51 3.57.56 4.42 2.46z" transform="translate(-421.75 -86.94)" style="fill:#a1583b"/><path d="m804.8 402.29 2.81-.18c.12 4.44-3.9 4.51-6.48 6.09-3 1.8-5.94 3.52-8.91 5.28-2.57 1.37-4.74 2.86-1.63 5.82a1.72 1.72 0 0 1 .09 1.37c-8.85-1.32-15.23 2.32-19.69 9.81-.85-3.8 1.43-6.74 2.76-9.94 3.15-7 9.63-9.84 16.13-12.41 4.96-1.96 10.02-3.68 14.92-5.84z" transform="translate(-421.75 -86.94)" style="fill:#984d2b"/><path d="M809.32 371.16h-7.71c1.7-3.29 3.41-5.93 4.44-8.82.94-2.65 2-2.78 4-1.22 1.44 1.1 2.5 4.09 5 1.41 3.52 2.3 4.23 5.8 4.13 9.64-3.4.9-6.59-.45-9.86-1.01z" transform="translate(-421.75 -86.94)" style="fill:#de9c6f"/><path d="M790.59 419.3c-1.88-.56-4.94-.88-4.52-3 .51-2.59 3.63-2.8 6.15-2.8-.54 1.92-1.09 3.86-1.63 5.8z" transform="translate(-421.75 -86.94)" style="fill:#b27148"/><path d="M504.63 395.15c2.24-.44 7.44.75 3.51-4-7-8.49-7.4-17.27-3.34-26.92a36.48 36.48 0 0 0 1.44-6.13c3.59 6.31 9 11.05 14 16.14 7.19 7.32 8.24 17.4 2 20.29-5.55 2.56-11.64 4.03-17.61.62z" transform="translate(-421.75 -86.94)" style="fill:#814412"/><path d="M493.42 359.67c0 5.69-3.07 11.28.48 17.82-7-5.06-6.48-12.71.77-27.49 2.43.64 4.66 1.59 6.05 3.85-1.19.24-2.46.33-3.13 1.6-1.06 1.73-1.96 3.62-4.17 4.22z" transform="translate(-421.75 -86.94)" style="fill:#8b501d"/><path d="M493.15 348.54c-4.73 3.58-4.56 10-8.71 14.7a11.35 11.35 0 0 1 .88-11.15c1.61-2.46 2.82-4.83 2.32-7.82 0-.49.05-1 .08-1.49z" transform="translate(-421.75 -86.94)" style="fill:#8e4f1c"/><path class="ct" d="M36.05 173.3c4-1.95 2.79 1.31 3 3 .67 5-3 9.14-2.61 14.05l-.41.39c-1.57 1.27-3 3.81-5.24 2.48s-1.38-4.12-1-6.42c.84-4.78 4.81-8 6.09-12.55zm14.65 49.61c3.44 1.89 6.27 4.13 5.63 8.71-.33 2.41 1.86 3.64 2.85 5.43l-.45.48c-1 1-1.67 2.25-2.86 3s-2.39 1.77-3.81.94c-1.65-1-1.5-2.7-1.41-4.35.17-3 2.83-5.35 2.34-8.71-.09 3.21-1.41 5.84-4.59 4.79-2.63-.86-.7-3.6-.15-5.44a11.33 11.33 0 0 1 2-4.42z"/><path class="ct" d="M33.72 172.37c.44 1.15 1.43.94 2.33.93l.31.51a3 3 0 0 1-.32 2c-1.7 2.14-3.09 4.81-6.34 4.79-1.09 0-1.5-1.23-1.44-2.11.21-3.23 1.33-5.88 5-6.44z"/><path d="m455.05 259-4.54 6.59 1.19 1.06 6.41-5.93c2.69 2.46.35 4-1 5.72a21 21 0 0 0-4.65 12.86l5.4-1.6c-.47 3.12-1.15 6.66-5 6.57-4-.1-2.17-4.83-3.7-6.47-6.45-6.91.64-14.74-2-21.89-.55-1.48.74-4.58 2.66-6.26.71-.61 1.47-1.41 2.43-.79.49.31 1 1.53.9 1.67-3.24 3.21-1.47 4.31 1.89 5.09.26.07.02 2.22.01 3.38z" transform="translate(-421.75 -86.94)" style="fill:#753808"/><path d="M472 310.3c.95 3.16-1 5.81-1.73 9.09 2.81-.26 2.68-4 5.54-3.89 2.27 4.26-3.51 7.41-1.78 11.74 2.74.55 3.61-3.61 6.46-2.78-.54 5.27-3.66 9.46-5.52 14-8.51-3.74-9.44-10.76-8.43-18.53.46-3.93.75-8.06 5.46-9.63z" transform="translate(-421.75 -86.94)" style="fill:#723a03"/><path d="M462.75 319.38c-3.19-9.49.73-17.69 11.6-24.46-3.76 9.08-11.68 14.94-11.6 24.46z" transform="translate(-421.75 -86.94)" style="fill:#743704"/><path d="M449.6 232.1c-.77 3.47-4.5 6.47-.59 10.69 1.22 1.3-1.21 4.61-3.26 6.61 2.12-5.05-4.39-8.6-1.9-13.86 1.3-2.73 1.91-5.5 5.77-3.4z" transform="translate(-421.75 -86.94)" style="fill:#743805"/><path d="M474.88 372.84c-.81-6.6-2.86-13.37 1.89-19.44-1.38 6.44.31 13.07-1.89 19.44z" transform="translate(-421.75 -86.94)" style="fill:#723202"/><path d="M803.44 274.84c-1.63.83-.66 3.45-2.73 4-2.42-3-2.61-6.93-4.18-10.31a33.18 33.18 0 0 0-10-12.33c2.51-6.52 8.13-8.5 14.24-9.76 1 4.86-1.56 9.36-1.47 14.13q2.06 7.12 4.14 14.27z" transform="translate(-421.75 -86.94)" style="fill:#a06f45"/><path d="M799.29 260.55c-2-5-.78-9.61 1.47-14.14q5.63-2.92 11.23-5.87c-.44 9.07-9.5 12.68-12.7 20.01z" transform="translate(-421.75 -86.94)" style="fill:#dd9964"/><path d="M786.52 256.18c7.92 2.07 14.15 12 14.19 22.64-12.76 1.37-23.27 8.07-34 14.28-5.22-1-8.38-9.39-5.13-13.79 1.39-1.88 3.37-3.21 5-4.83 5.06-4.91 11.29-8.68 14.51-15.33z" transform="translate(-421.75 -86.94)" style="fill:#c9b79e"/><path d="M766.79 257.75c.48-5.27 6.59-5.89 8.33-10.11.29 2.68 1.69 2.8 3.91 1.94 2.81-1.1 5.75-1.88 9-2.91-.34 6-8.34 6.64-8.52 12.42-2.91 2.65-5.84 5.29-8.74 8-1.65 1.51-3.39 2.75-5.48.91s0-3.18.7-4.78 3.21-3.3.8-5.47z" transform="translate(-421.75 -86.94)" style="fill:#714c23"/><path class="ga" d="M344.89 187.54c-5.63 7.76-5.61 13.34.08 18.62 0 .39-.1.78-.16 1.16-.62 3.2-3.68 4.06-5.67 6-3.32 2-5.53 5.08-8 7.95-1.08 1.25-2.41 2.42-4.26 2-2.31-.5-2.76-2.61-2.85-4.41-.37-7.15-.16-14.21 5.58-19.66 5.05-3.96 9.38-8.84 15.28-11.66z"/><path d="M804.82 291.45c-2.78 6.85-17.58 11.64-22.4 7.25-4.8-7.14-.35-9.27 5.69-10.79 5.06-1.27 9.61-4.93 15.31-3.19.47 2.28.94 4.49 1.4 6.73z" transform="translate(-421.75 -86.94)" style="fill:#f7f5f3"/><path d="m760.82 298.5 5.74-4.24c1.81.43 3-.79 4.41-1.53 1.7-.88 3.59-3.4 5.43-1.54 2.15 2.17-1.67 2.5-2.13 4.12-.88 3.11-.38 5.49 3.28 4.77 2.25-.44 3.4-.07 4.44 1.69 0 2.69-3.09 2.25-4 4-1.45 2.52-4.1 3.2-6.51 4.24-1.58.42-3.14 1.16-4.81.36l-4-1.54c-1.18.49-1.85-.21-2.46-1.05-1.69-3.23-3.6-6.47.61-9.28z" transform="translate(-421.75 -86.94)" style="fill:#1a1210"/><path d="M804.8 402.29c-1.2 3-3.81 4-6.61 4.73a55.34 55.34 0 0 0-24.44 13.52c-5.23-.62-9.57 2.69-14.3 3.94a48.76 48.76 0 0 1-11.2 1.65c.31-3.64 4-2.29 5.72-4a28.19 28.19 0 0 1 2.36-1.55c3.25-1.71 7-2.59 9.34-5.8 4.35-9.92 13.56-12 22.76-14.16l1 .13c5.07 1.11 10.47-1.32 15.37 1.54z" transform="translate(-421.75 -86.94)" style="fill:#d77e66"/><path class="ge" d="M333.53 336.41c-1.46 3.17-5.3.29-7 2.78l-4.22 2.87q0-4.19.08-8.38c1.44-3.71 0-8 2.46-11.53 4-1.57 4.85 1.56 5.91 4.1 1.35 3.26 1.67 6.81 2.77 10.16z"/><path d="M695.65 348.07c-.23-7-1.49-13.69-5.59-19.57.35-1.78.88-2 2.77-1.17A28.15 28.15 0 0 1 707.3 342c3.18 7.37 8.29 12.73 14 17.83 5.63 5.89 3.32 13.73-5.44 18.49-1.86-13.38-10.08-22.45-20.21-30.25z" transform="translate(-421.75 -86.94)" style="fill:#e39b69"/><path class="gg" d="M294.14 291.34c4.52-5.37 9.65-10.56 5.44-18.49-2.73-11.28-8.65-21.81-7.17-34.11a67.19 67.19 0 0 1 3.34-12.85c.6-1.87 1.94-3.51 4.11-1.23-.87 10.11-2.29 20.25 1 30.22 1.14 6.25 3.07 12.33 4.15 18.6.24 1.39.33 3.19 1.47 3.88 6.67 4.05 3 6.73-1 9.73a27.62 27.62 0 0 0-9.6 12.81c-2.93 8.26.32 13.42 9.06 14 2.08.14 4.26-.4 6.08 1.14 1.34 2.08.5 3.43-1.45 4.41l-2.62 1.48c-2.8-3.28-7.35.3-10.24-2.62-.93-1.56-3.32-.57-4.09-2.18-3.31-6.94-5.86-2.51-8.52.5h-3a11.7 11.7 0 0 1 3-7.62c4.27-5.36 7.08-11.56 10.04-17.67z"/><path d="M636.52 290.36c.9-2.87 7.23-.18 5.57-4.24-1.45-3.52-5.43-.62-8.19.1a20.38 20.38 0 0 0-5 2.49c-1.84 1.11-3.65 2.77-5.08-.37-1.15-2.52-.83-4.59 2.18-5.49 5.13-1.55 10.34-2.69 15.76-3.91H628c10.34-3.34 20-2.24 28.46 4.88 5.78 4.84 11.38 9.89 17.06 14.84-4.65 5.18-8.77 2.23-12.75-.94-2.67-2.12-4.6-5.48-8.79-4.81-5.13-1.21-10.72.67-15.46-2.55z" transform="translate(-421.75 -86.94)" style="fill:#6f4117"/><path d="M653.25 292c4-3.09 5.11 1.34 6.79 3 3.94 3.82 7.84 6.48 13.44 3.7 11.52 5.31 17 4.69 25.16-2.85 1 .1 3-1.32 2.29 1.47a19.6 19.6 0 0 1-7.76 11.68c-3.62 2.54-7.75 1.41-11.69 1.64-7.15-.83-14-2.62-19.65-7.37-2.78-3.84-7.9-5.87-8.58-11.27z" transform="translate(-421.75 -86.94)" style="fill:#553209"/><path d="M721.26 342.81c-3.75-10.45-4.72-20.87.35-31.21a21.29 21.29 0 0 1 8.36-4.19c6.77 14.29 16.91 25.95 28.6 36.32 3.66 3.24 4.65 6.77 3.33 11.32-1.23 4.23-3.62 9.08 1.07 12.32s10.39 2.56 15.47.1a123.71 123.71 0 0 0 18.14-10.67c2.63 5.87-2 10.45-2.79 15.71.49 3.41-2 5.18-4.15 6.86-8.81 6.85-18.64 10.87-30 10.5-4.19-.14-7.86-.72-10.17-4.9-2.4-4.34-5.55-1.92-8.46-.46-1.48.61-3.1 1.79-4.38-.11-1-1.54-.49-3.21.47-4.64 2.12-3.12 4.82-5.77 6.77-9.05 2.36-4 1.67-6.23-2.69-8.17-9.07-4.02-16.4-10.02-19.92-19.73z" transform="translate(-421.75 -86.94)" style="fill:#ed8072"/><path d="M796.58 356.8c-7.86 9.9-18.06 14.9-30.73 14.14-6.31-.38-9.54-5.75-6.74-12.52s1.58-11-4-15.64a106.28 106.28 0 0 1-22.31-26.18c-1.79-2.9-3.25-5.7-2.81-9.19a14.12 14.12 0 0 1 10 2.53 37.35 37.35 0 0 1 8 8.59c4 6.12 10 10.29 16 14.21 9 6.93 20.34 9.43 29.61 15.83 1.63 2.5 3.23 5.02 2.98 8.23z" transform="translate(-421.75 -86.94)" style="fill:#f4a197"/><path d="m680.24 308.85 12.93.1c-.06 2.92-2.43 3.93-4.45 4.89-5.09 2.42-5.75 5.3-1.88 9.53 1.16 1.27 1.4 3.38 2.06 5.11l-1.58.09a1.81 1.81 0 0 1-2.07-.12C674.56 314 659.84 313 643.89 316.16c-1.59.32-3.17 1-4.6-.39l-3-1.48c1.21-6 6.47-5.45 10.49-5.81a93.52 93.52 0 0 1 32.59 2.44c.41.11 1.56 1.5 1.6-.27.03-.45-.75-1.06-.73-1.8z" transform="translate(-421.75 -86.94)" style="fill:#8d6644"/><path d="M760.82 298.5c-3.08 3 .87 5.72.32 8.61-4.78.34-6.42 5-9.83 7.17l-3.09.25c-3 .05-4.47-1.3-4.23-4.35l1.47-3c-1.62-4.6.29-9.51-1.26-14.11 1.16-3.59 3.41-6.05 7.18-6.95-2.38 5.6-4.22 11.35-4.47 17.48-.08 2-.71 4.74 1.73 5.56 2.13.72 2.88-1.82 4-3.22 2.36-2.89 4.52-5.94 8.18-7.44z" transform="translate(-421.75 -86.94)" style="fill:#5b463a"/><path d="m744 310.18 4.23 4.35L764 332.74c-12.23-3.14-17.75-13.37-24-22.8z" transform="translate(-421.75 -86.94)" style="fill:#df8a81"/><path class="ga" d="M322.45 206.14c2.72.37 2.14 1.93 1.83 3.95a97.9 97.9 0 0 0-.57 10.16l-1.59-.08a24.94 24.94 0 0 0-2.2-13.87 9.8 9.8 0 0 1 .85-9.85c1.05 3.15-1.9 6.99 1.68 9.69z"/><path d="M739.69 383.74c6.39-5.54 7.53-5.39 11.65 1.89 1.3 2.3 3.45 2.16 5.53 2.25 14.69.62 27.27-3.86 36.92-15.37 1.92 1.59 3.49-8.19 5.59-.17 3.18 3.24 8 0 11.3 2.94.72.79 2.35 1.19 1.23 2.79h-2.63c-1.15 1.25-3 .23-4.22 1.39-2.62 1.68-4.68-.95-8-.91a11.53 11.53 0 0 0 5 5.23.82.82 0 0 1 .37.82c-.07.3-.14.45-.23.45-.68 2.61-8.09-5.53-4.41 4l-9.79-5.74c-.85 3.1 2.21 3.81 2.32 6-2 1.51-3.49-1.45-5.69-.67 1.64 4 6.68 6.82 4.76 12.11-1.1.81-2.29.85-3.11-.19-2.7-3.41-4.76-3.58-6.67.76-1.19 2.7-3.39 3.87-6.15 1.95-1-.72-2-1.55-3-.39-4 4.63-6.25.38-8.95-1.67-1.82-.7-3.89-1.19-4-3.69-.91.73-.29 2.14-.35 3.34-.19 3.95-1.11 7.06-6.16 6.22-1.86-.3-3 .86-4 2.26-1.22 3.69 2.76 8.7-2.89 11.25-3.44-3.89.27-9.17-3.1-14.35-.94 7.6-6.88 12.56-5.7 19.9 0 .08-.34.31-.53.32s-.42-.18-.64-.27c-2.34-2.81-1.72-5.62 0-8.43.16-3.82-.82-7.9 2.69-10.84-1.9-2.46-3.94 1.69-5.54-.57.44-1.44.89-2.87 1.34-4.3l.49-.84c2-1.87 4.64-2.75 6.24-4.6-1.88.95-4 4.25-6-.43 1.05-4.68 3.57-8.62 6.33-12.44z" transform="translate(-421.75 -86.94)" style="fill:#5e2a0b"/><path d="M734.16 417.79v8.43c-5.55-2.16-8.06-.24-6.87 6.42-2.22-1.9-1.74-4-3.22-5.31-2.43-2.19-.79-4.73.35-7 1.34-2.65 2.8-2 5-.55 1.84 1.31 2.99-1.59 4.74-1.99z" transform="translate(-421.75 -86.94)" style="fill:#804c1e"/><path d="M680.24 308.85c1.61 1.8 4.08.51 6.66 2.09-6.74 3.84-12.94.32-18.91-.19-9.11-.77-18.1-1.56-27.11.68a6.84 6.84 0 0 0-4.57 2.86c-7.33 3.69-12.35 9.51-15.6 17a7.53 7.53 0 0 1-1.48 2.37c-1.58 1.46-.67 5.33-4.07 4.82-2.8-.42-4-3-5-5.41a30 30 0 0 1-1.88-10.23l.06-2.68c2.32-3.18.9-6.77 1.1-10.19 5-2.93 8.18-7.87 12.56-11.49 14-6.87 27.4-6.73 40.09 3.07a41.14 41.14 0 0 0 18.15 7.3z" transform="translate(-421.75 -86.94)" style="fill:#e29c69"/><path d="M662.06 301.52c-7.93-1.44-14.66-7.54-23.49-5.61-5.46 1.19-11.06 1.72-16.6 2.54 4-4.27 8.46-7.63 14.55-8.09 5.63-.05 11.36-1 16.73 1.62z" transform="translate(-421.75 -86.94)" style="fill:#b47348"/><path d="M690.2 337c3.09 11.28 2.81 22-5.63 31.14-11.72 7.35-34.44 1.15-40.57-11-2.4-4.73 2.19-5.91 3.94-8.56 3.83-3.07 7.75-6 12.89-6.41 7.15-1 13.69-4.29 20.78-5.55 2.93-.46 5.81-2.02 8.59.38z" transform="translate(-421.75 -86.94)" style="fill:#c9b79f"/><path d="M649.14 349.6c-.24 3-5.78 3.06-4.49 5.38a30 30 0 0 0 10.94 10.69c9.26 5.62 19.13 3.91 29 2.49-9.65 12.34-30.69 18.77-45.16 13.36-6.5-2.43-11.82-6.66-14.52-13.46-.62-1.45-.48-3-.67-4.54a3.1 3.1 0 0 1 1.76-3.1c5.21-2.57 9-7.14 14.25-9.72 2.98-.1 5.67-2.79 8.89-1.1z" transform="translate(-421.75 -86.94)" style="fill:#b19d84"/><path d="M690.2 337a102.4 102.4 0 0 0-22.36 5.64c-2.45 1-4.81 1.89-7.49 1.32-.89-2.4-.09-4.79.06-7.18a5.13 5.13 0 0 1 1.28-2.74c4.75 2.23 9.52 4.07 14.44.64-1.23-1.26-5.09.11-4.18-3.77 2.27-1.79 5.16-1.14 7.67-2 2.17-.49 4.42-.09 6.6-.56a10.07 10.07 0 0 0 1.1.17c-.66 3.42 2.85 5.37 2.88 8.48z" transform="translate(-421.75 -86.94)" style="fill:#9d9782"/><path d="M625.31 363.83c1.55 1.58.5 2.9-.42 4.23l-2.6 1.57c-1.72.14-3.43-.27-3.75-2.08-.48-2.74 3.8-1 3.78-3.59a2.15 2.15 0 0 1 2.99-.13z" transform="translate(-421.75 -86.94)" style="fill:#37250f"/><path class="ey" d="M284.09 316.62c0-2.2 1.2-3.95 2.37-5.63 1.76-2.54 3.62-2.91 4.83.44 1.06 2.94 3.57 4.62 5.42 6.87-4.46 1.3-8.57-.01-12.62-1.68z"/><path d="M686.22 328.4c-1 4.41-4.37.2-6.15 1.72-3.54 1.09-7.13.18-10.33-.78-11.12-3.3-20.83-.72-29.88 5.85a6.83 6.83 0 0 1-3.91 1.46c-5.55-1.63-4.38-6-3.44-9.66a20.69 20.69 0 0 1 5.46-9.58l1.32-1.64c10.94-5.19 22.27-3.21 33.18-.72 6.46 1.48 10.53 7.44 13.75 13.35z" transform="translate(-421.75 -86.94)" style="fill:#c7b89c"/><path d="M636.29 335.5c13.3-12.28 28.34-10.52 43.78-5.39-2.38 2.79-5.7.36-8.38 1.52-2.76 2.78-7.1-.06-9.85 2.79.06.84.11 1.69.17 2.53-4.92 3.11-5.65 2.7-6.88-4-6.89 2.69-14.75 4.16-15.36 13.81-2.45-2.07-3.67-.77-5.37 1.37-3.2 4-3.71 9.62-8 12.91l-1.13 2.82-3 .13v-1.56c1.73-10.53 4.47-20.5 14.02-26.93z" transform="translate(-421.75 -86.94)" style="fill:#4e4e43"/><path d="M636.29 335.5c-7.1 7.7-9.78 17.71-14 26.9-4.85-10.63-1.52-20.62 2.89-30.24 2.76-6 5-12.89 12.8-14.75a19.07 19.07 0 0 1-2.84 8.34c-1.98 3.38-3.42 7.01 1.15 9.75z" transform="translate(-421.75 -86.94)" style="fill:#ada183"/><path d="M608.25 322.81c3.51 4.34 1.53 11.41 7.58 14.9 1.17-2.54 2.31-5.1 4.89-6.45-2.66 10.24-5.07 20.51-4.13 31.23-9.47-6.89-11.43-16.74-10.26-27.47.45-4.02-.7-8.47 1.92-12.21z" transform="translate(-421.75 -86.94)" style="fill:#b97342"/><path d="M510.36 427.6c1.86 3.53 8.84 1 8.47 5.79-.26 3.42-3.33 8.07-8.65 7.43-3.65-.44-7.08-2.13-6.63-6.58.35-3.48 2.94-5.59 6.81-6.64z" transform="translate(-421.75 -86.94)" style="fill:#b47346"/><path d="M703 116.05c6 2.53 9.62 8 14.85 11.56 3.25 2.21 5.83 4.13 10.14 2.85 2.61-.77 6.74-.66 3.08 4.22-2.45 3.28.22 4.43 2.48 5.87 3.77 2.39 8.22 3.13 12 5.82 11.89 8.48 13.33 21.89 16.73 34.28a33.54 33.54 0 0 1 1.42 11c-.81 12.48-6.83 21-17.56 26.89-4.26 2.36-7.29 6.47-11.38 9.35-8.45 5.95-18.72 5.73-27.82 9.41-4.36 1.76-10.47.11-14.86-2.4-4.21-2.42-8.29-2.86-12.78-2.76-2.81.06-5.58.11-8.34-1-3.7-1.49-7.06-2.12-11.29.22-4.61 2.55-9.78 1.12-12.77-4-3.34-5.7-8-9.16-14.71-9.39a6.45 6.45 0 0 1-4.78-2.68c-5.64-6.65-14.69-10.47-16.73-20.22a5.66 5.66 0 0 0-3.32-3.42c-12.71-4.13-14-16.56-19-26.18-1.11-2.17-2.08-4-4.06-5.42-10.19-7.29-14-17.4-11.55-29.42 1.49-7.37 1.12-15.67 7.06-21.49 4.15-4.07 8.48-7 15.42-6.25a91.48 91.48 0 0 0 24.58-.65c12.36-1.92 24.79 1 37.19 1.7a81.79 81.79 0 0 1 10.48.84c6.42 1.18 12.64 2.46 18.13 6.9 4.75 3.84 11 5.1 17.35 4.32z" transform="translate(-421.75 -86.94)" style="fill:#f9ba8c"/><path d="M493.42 359.67a9.08 9.08 0 0 1 4.17-4.22c.88 11.56.24 23.35 5.64 34.57-6.21-2.23-8.3-5.8-7.42-11.3a31.94 31.94 0 0 0-2.39-19.05z" transform="translate(-421.75 -86.94)" style="fill:#844d1d"/><path d="M771 308.68a13.84 13.84 0 0 1 7-2.92c10.92-.46 20.66-6 31.4-7.26 9.37 12.6 3.77 26.4-12.78 31.54-5.29 1.56-9.68 0-13.25-4-3-3.34-6.77-5.8-9.69-9.19-2.07-2.38-4.02-4.74-2.68-8.17z" transform="translate(-421.75 -86.94)" style="fill:#c7b79d"/><path d="M771 308.68c5.88 10.29 12.94 19.16 25.58 21.36-16.76 7.51-26.35 5.52-37.53-7.28-3.17-3.63-3.75-6 1.1-8.31a58.83 58.83 0 0 0 6.49-4.09c1.41-.67 2.56-2.02 4.36-1.68z" transform="translate(-421.75 -86.94)" style="fill:#ae9b81"/><path d="M751.31 314.28c.05-3.93 3.67-5.49 5.52-8.22s2.83.78 4.31 1.05l1.48 1.71c-3.26 2.88-6.16 6.51-11.31 5.46z" transform="translate(-421.75 -86.94)" style="fill:#d7ccc5"/><path class="hg" d="M383.31 292.51c.23-4.05 2.45-2.05 4.22-1.39 2.12 3 3.85 6.12 4 10.2-3.93-2.09-4.8-6.66-8.22-8.81z"/><path d="M802.28 385c0-.43-.08-.85-.14-1.27 5.51-1.59 4.56 3.77 8 6.48-5.35.3-5.14-4.41-7.86-5.21z" transform="translate(-421.75 -86.94)" style="fill:#a6652f"/><path class="hg" d="m390.16 291.13-1.23-2.79c5.58-.18 6.68 3.13 6.54 8.09-3.16-.92-2.39-4.9-5.31-5.3z"/><path class="fc" d="M88.62 298.64c2 2.08 3.92 4.13 5.84 6.24.83.91 1.34 2.08-.05 2.84a2.26 2.26 0 0 1-3.07-.79c-1.37-2.47-2.49-5.09-3.72-7.64z"/><path class="eh" d="M325.25 322.43c0-1.83.13-5.24 1.64-4.62 9.52 3.86 5.85-4.85 7.84-7.94.94-1.47.73-3.73 3.41-4 2.28 1.56-4.91 7.29 2.63 6.62a34.4 34.4 0 0 1 2.84 14.84c-.54 1.88-1.54 3.69-3.66 3.41-1.9-.25-1.83-2.39-2.17-3.93-.39-1.75-1-3.46-1-4 .58 3.35 2.74 8.2-1.76 12.16l-1.5 1.48c-4.43-1-2.71-5.23-3.92-7.87-1.08-2.44-.63-5.66-4.35-6.15z"/><path class="fj" d="M342.18 328c.05-5.23-2.38-10.24-1.39-15.55 3.49-.4 1.91 3.67 4.14 4.77 1.54-1.45 3-2.9 4.55-4.28.62-.55 1.61-1.67 2.2-.46.92 1.9.57 5.38 4.18 2.83 2.84-2-1.56-4-.23-6.18 4.77-.4 9.35-.25 12.07 4.71-5.36 4.37-13.26 3.27-18.3 9.18-1.75 2.05-2.39 4.7-4.43 6.37-1.62.92-2.1-.45-2.79-1.39z"/><path class="ge" d="m342.18 328 2.79 1.39a19.26 19.26 0 0 1-9.94 5.54c3.28-5.09-1.22-10.49.62-16.11 3.37 2.19 3.66 5.3 3.69 8.59.04 4.24 1.45 2.49 2.84.59z"/><path d="M739.69 383.74c-1.19 4.55-2.56 9-5.67 12.71-.64 1.83.8 4.15-1.35 5.61-1.86.26-3.7.57-5.56.77-8.76 1-14.58-6.71-11.93-15 2.76-8.69 9.06-14.28 16.41-20-4.69.67-5.83-1-6.27-5.09-.72-6.72-2.63-13.3-4-19.93 4.88 4.47 7.58 10.87 13.69 14.42a73.5 73.5 0 0 0 9.28 4.71c3.64 1.48 5.11 3.43 2.45 7.5a73 73 0 0 1-8.4 11.15c-1.24 1.23-3.2 3.94 1.35 3.15z" transform="translate(-421.75 -86.94)" style="fill:#d06359"/><path class="gg" d="M310.92 315.12c.27-1.91-.77-4.14 1.35-5.61 4.39 3 5.75-3.52 10-2.87-3.18 4.05-6.48 7.25-11.35 8.48z"/><path d="M639.13 347.12c-.17-9.48 5.15-14.15 17.94-15.73-.15 3.45-2.92 9.24 4.94 5.56a6.69 6.69 0 0 1-1.66 7c-4.43.5-7.78 3.14-11.21 5.62-2.82.16-5.07 3.63-8.29 1.4-2.03-.61-2.85-1.82-1.72-3.85z" transform="translate(-421.75 -86.94)" style="fill:#0d0c09"/><path d="M639.13 347.12c.57 1.3 1.14 2.59 1.72 3.88-4.52 3.76-8.32 8.54-14.41 10 1.48-5.53 4.33-10.37 7.46-15.09 2.97-4.48 3.98-1.3 5.23 1.21z" transform="translate(-421.75 -86.94)" style="fill:#d9d4c9"/><path d="M661.84 334.42c-1.51-1.61-1.68-2.8 1-2.85 2.95-.05 5.9 0 8.84.06 2.54 2.26 6.47.2 9 2.79-11.75 5.93-14.4 5.92-18.84 0z" transform="translate(-421.75 -86.94)" style="fill:#f2f0e8"/><path d="M627.17 106.26c17.35-1.91 34.3 4.17 51.5 10 7.23 2.44 14.86 3.39 21.67 7.49 4.25 2.56 8.73 5 12.11 8.4 6.7 6.81 13.78 12.82 22.75 16.36a4.86 4.86 0 0 1 2.34 1.52c9.06 14.31 23.19 26.4 19.47 46.28-.85 4.5-1.93 8.78-5.79 10.7-8 4-13.49 11-20 16.64-5.06 4.38-10.4 5.81-15.46 3.8-10-4-19.47-1.07-29.09.18-8.92 1.16-16.83-2.12-24.12-6-4.07-2.15-7.83-5-12.36-6.34-4.88-1.45-8.65-4.48-12.47-7.74-9.09-7.76-18.5-15.16-27.75-22.74a6.2 6.2 0 0 1-1.76-2.16c-5.61-13-15.23-23.13-23.31-34.41-6-8.44-8.09-19.17-2.32-28 3.91-6 8.88-13 18.76-13 8.15-.07 16.37-1.31 25.83-.98z" transform="translate(-421.75 -86.94)" style="fill:#f7bc94"/><path d="M740 180.1c-.34 6.27-1.23 10.9-5.83 12.93s-9.33 3-14.31-1.09c-11.71-9.74-20.89-21.37-28.67-34.32-8.68-14.44-20.46-25.43-36.43-31.5-2.12-.8-5.59-1-5.06-3.82.65-3.52 4.44-2.25 6.58-1.82 10.43 2.07 20.12 6.24 29.68 10.87 15.26 7.39 30.41 14.92 42.06 27.6 5.89 6.39 9.26 14.47 11.98 21.15z" transform="translate(-421.75 -86.94)" style="fill:#fdcba8"/></svg>