<svg xmlns="http://www.w3.org/2000/svg" viewBox="0 0 401.17 700"><defs><style>.e{fill:#523913}.f{fill:#5f4013}.i{fill:#364615}.r{fill:#374613}.v{fill:#485a20}.ad{fill:#b6892b}.ak{fill:#d09873}.av{fill:#a43c1d}.bc{fill:#feb27f}.bg{fill:#7d2a0b}.bl{fill:#485820}.bq{fill:#95a079}.bz{fill:#364611}.cr{fill:#3e3509}.cw{fill:#532c16}.cx{fill:#733419}.dj{fill:#512d0a}.dk{fill:#212904}.do{fill:#d3946d}.ea{fill:#edb38c}.el{fill:#f7b384}.eo{fill:#771f0d}.fa{fill:#344512}.fr{fill:#7a5546}.ft{fill:#b33609}.gf{fill:#be3f10}.gy{fill:#b9b915}.hg{fill:#b6b41c}.hm{fill:#c3b3ab}</style></defs><path d="m897.41 599.94-3.69 2.91c-5-1.93-3.36-5-1.41-8.14 1.05-1.19 1.67 3.21 3 .2 2-4.66 2-9.39 1.22-14.3-1-6.32-3.89-12.29-3.39-18.86.88-10.64-4-17.87-11.83-25-10.36-9.4-21.68-15.56-35.29-17.95-4.83-.84-9.6-1.23-14.37.23-3 .92-5.78 1.31-6.43-2.94 1.66-3.58 5.26-3.17 8.24-4 20.52-.33 38.71 5.38 53.19 20.57 3.43-8.88 3.16-16.15-1.11-29.27a41.53 41.53 0 0 0-4.06-11.18c-.84-1.56-1.55-3.65.32-4.75s3.09.9 4.24 2.15 1.71 3.05 2.82 4.9c3.43-9.06 3-17.73-.17-26.45-.93-2.54-2.93-5.27.05-7.87a1.78 1.78 0 0 1 1.74.54c6.57 12.93 6.76 26.21 2.4 39.84-1.29 4-.6 8 .45 12.24 1.89 7.57-.5 15.34-.55 23.05 0 3.15-.15 5.92 2.1 8.62s2.17 6.59 2.57 10.11c.48 4.13-.55 8.42 1.36 12.38a24.06 24.06 0 0 0 1 7.71c2.72 8.66 3.11 17.32-2.4 25.26z" transform="translate(-500.57 -39.62)" style="fill:#252c0a"/><path d="m557.3 689.47-1.3-4.32a52.27 52.27 0 0 1-5.1-7.88c-2.63-5-6.35-9.36-8.21-14.78 0-9.17-4-18.33-.06-27.51 2.25-7.74 8.54-11.91 14.55-16.31 1.21-.89 2.59-2.13 4.12-1s1.24 2.73.9 4.26c-1 4.28-1.45 8.7-3 12.8-2.06 5.31-1.81 10.32 1.21 15.12a35.33 35.33 0 0 1 4.57 12.27c.65 3.08-1.38 6.36.7 9.34 3.29 3.75 3.92 8.53 5.12 13.09 1.46 5.25 2.36 10.54 1.23 16a3.3 3.3 0 0 1-2 2.21c-1.44-.3-1.19-1.52-1.36-2.51-.07 1 .19 2.08-.25 3a1.65 1.65 0 0 1-1.63.79c-2.92-3.67-3.59-8.52-6.36-12.27a3.28 3.28 0 0 1-.7-2.61c1.12-1.41 2.21-2.83 1-4.88-.52 1.08.56 2 .07 3a10.72 10.72 0 0 1-1.8 2.12 1.8 1.8 0 0 1-1.7.07z" transform="translate(-500.57 -39.62)" style="fill:#68513b"/><path d="M535 631.82c-5-1.83-9.21-4.89-13.62-7.68-6.4-5.88-11.81-12.66-17.55-19.15-1-1.18-.74-2.39-1-3.59-1.19-2.06-3.71-3.87-1.22-6.61l2.61-11.88c2.4-5.52 2.77-11.53 4.08-17.31q1.23-2.18 2.44-4.37a3 3 0 0 1 1.93-.4 2.07 2.07 0 0 1 1.45 1.23c-.52 6.17-2.76 12-4.72 17.71-4.32 12.62-3.86 23.64 6.85 32.83a5.14 5.14 0 0 1 1.63.5c2.66 2.62 6.32 4.2 8.05 7.79 3.62 6.22 10.4 4.63 15.83 6.38 1.34 1 3.23 1.6 2.1 3.89-2.81 1.78-5.66 3.34-8.86.66z" transform="translate(-500.57 -39.62)" style="fill:#735a48"/><path d="M745.9 689.09c5.53-1.48 5.47-7.83 9.36-10.74 1.5-.24 3-.71 4.49 0a8 8 0 0 0 4.53.65 85 85 0 0 1 38.85 2.73c-1.6-7-6-9.92-12.7-10.29-5.06-.28-10-1.81-15.12-1.78-5.64 0-9.83-2-12.44-7.13a2.68 2.68 0 0 1 .43-2c1.19-1.24 2.79-1.94 4.12-.85 6.31 5.2 13.78 3.47 20.88 3.61 6.26.13 12.39.2 16.69 5.78 2.73 3.95 4.54 9.15 11 8.09a5.25 5.25 0 0 1 1.72.86 2.11 2.11 0 0 1 .41 1.78c-1 1.32-2.58 1.7-4.07 2.16-1.58 2.23-1 3.79 1.4 5.19 1.87 1.06 4.51-.75 5.91 1.74.83 2.7 1.34 5.33-1.52 7.25-8.25-3.39-15.88-8.47-25.09-9.24a14.3 14.3 0 0 1-6-1.53c-7.43-2-14.93-1.11-22.41-.55-.89.37-1.77.79-2.66 1.14-6.6 1.53-12.46 4.43-16.86 9.15-1.28.34.15 1.13-.27.34 0-.09.17-.15.58-.33a7 7 0 0 1 3.23-.56c1.31.24 2.44.68 2.72 2.18-.57 2.24-2.57 2.77-4.3 3.62-6.13 3-9 7.88-8.35 14.76.72 2.83 2.82 5 3.6 7.84-.24 1.83 2.44 3.65 0 5.49-4.07 1.23-5.73-1.57-7.5-4.36-.71 4.81 2.54 6.24 6.28 6.89 7.11 1.23 14.24 2.41 21.36 3.67 4.52 1 9.09.37 13.64.5h2.27c3.76 1.08 8.85-2.4 11.24 3.3a114.38 114.38 0 0 1-24.33.05c-9.32.18-18.32-1.93-27.3-4-7-1.62-10.35-7.64-7.14-14 3.34-6.65 3.07-14.26 7.09-20.85 2.07-3.47 3.56-7.4 6.26-10.56z" transform="translate(-500.57 -39.62)" style="fill:#4c2f12"/><path class="e" d="M178.85 644.12c-1.9 2 .24 3.57.43 5.35 0 4.38 2 8.67.46 13.12-.54 1.57.47 2.14 1.76 2.93 5.92 3.64 5.73 9.44-.49 12.89-5.07 2.8-10.69 4.29-16.32 5.41-31.21 6.24-62.1 2.82-92.88-3.31-2.52-.5-3.72-3.25-5.29-4.09-9.45-5.06-4.06-15.22-8.28-21.86-.13-1.56-.27-3.12-.4-4.67.54-.58 1.07-1.16 1.61-1.73.36.22.51.47.43.75s-.18.43-.29.43l.93 1.52c1.57 4.69 3.51 9.25 4.3 14.21.15.91.65-.93 1.37-.82 1.46-1 .88-2.74 2-4.73l.81 3.64c.92.64 1.39 2.08 2.92 1.62 1.28-.77 1.84-2.89 3.94-2 2.36 3.37 6.94 3.53 9.54 6.56.88 1.74 1.53 3.51.93 5.5-2.9 2.23-4.74 0-6.69-1.63s-4.14-3.31-6.86-1.23c-2.12 3.45.56 3.89 2.86 4.55 21.17 3.65 42.38 6.67 64 5.76a142.42 142.42 0 0 0 33.24-5.58 11.9 11.9 0 0 0 5.79-3.09c2.08-2.25.9-3.48-1.52-4.16a6.68 6.68 0 0 1-1.77-.73c-2.1-4.18 1.29-8 .8-12.18-.38-3.19-.59-5.9-4.89-5a2.12 2.12 0 0 1-1.91-1.72c2-4.77 8.2-8 5.34-14.55-.39-1.53-1.89-1.92-2.92-2.81-.87-1-1.45-2.06-.77-3.41 2.4-2.21 4.51-1 6.61.53 3.84 4.54 3.63 9.44 1.21 14.53z"/><path class="f" d="M290.75 698.82c-3.79-2.89-8.27-.61-12.31-1.63 1.77-4.24 5.6-2.77 8.56-2.72 10.86.17 20.85-3 30.62-7.22 2.55-1.1 5.23-2.25 6.9-6.15-5.51 2.38-9.94 9.14-15.39 1.92-.56-2.09 1-2.78 2.34-3.66a24 24 0 0 0 10.96-6.33c2.69-.51 4.18 1.12 5.48 3.08 2.53 7.08-.31 11.4-6.81 14.43-9.67 4.5-19.67 7.7-30.35 8.28z"/><path class="f" d="m266.43 698.84 24.33-.05a63.23 63.23 0 0 1-24.33.05z"/><path d="M721.92 47.5c29.84 7.78 42.64 29.63 47.9 57.83a278.25 278.25 0 0 1 4.94 58c-.06 2.68-.14 5.28 1.86 7.41-.16 3.64-1.19 7.15-1.53 10.77a3.91 3.91 0 0 1-3.15 2.74c-2.13-1-2.19-3-2.5-4.88-.54-20.2.93-40.46-2.62-60.56-1.53-8.68-3.85-17.16-5.69-25.74-4.07-8.2-5.84-17.53-12.53-24.47a47.5 47.5 0 0 0-16.06-11.26c-19.3-8.85-40-10.79-60.76-11.95-6.95-.39-14 1.33-21.13 1-2.94-.45-6.43.48-8.1-3.18l17.13-2.8c8.41-.67 16.82-1.32 25.23.06a40 40 0 0 0 14.36 1.47z" transform="translate(-500.57 -39.62)" style="fill:#41240f"/><path d="M893.51 594.77c-1.94 2.75-2.08 5.45.21 8.08-2.9 2.35-1.81 6.58-4.3 9.13-1.35.16-1.84-.72-2.18-1.78-.1-5.75 1.09-11.35 2.3-16.9a17.19 17.19 0 0 0-.22-8.41 32.32 32.32 0 0 0-11.43-19.34c-7.6-6.4-14.81-13.06-24.19-16.84-7.93-3.2-15.74-4-23.46.52-5.78 2.15-10.45 6.61-16.6 8a4.58 4.58 0 0 1-3.9-.8c-.43-1.17.15-2 .9-2.79 6.08-3.95 11.81-8.69 18.75-10.95 12.89-4.19 25.19-2.3 36.63 5 9.52 6 17.21 14 24.62 22.28 1.57 3.61 3.42 7.13 4.61 10.85 1.54 4.82 2.87 9.82-1.74 13.95z" transform="translate(-500.57 -39.62)" style="fill:#3a2a09"/><path class="i" d="M357.12 601.67c2.23 5.39 1.31 9.31-5 10.69a2.06 2.06 0 0 0-1.9 2.21c.16 6.59-3.76 9.32-9.63 10.57-3.77.8-7.42 2.16-11.13 3.26-5.38-1.15-2.44-5.77-3.63-8.66a4.88 4.88 0 0 1 .23-2c3.55-3.47 8.65-3.69 12.88-5.84 5.25-2.66 10.32-5.24 14.63-9.28a3.2 3.2 0 0 1 3.55-.95z"/><path d="m887.92 610.3 1.5 1.68c-1.15 3.6-5 4.89-6.82 7.88-6.86 3.52-12.12 9.57-19.44 12.37-1.75-.19-3.12-.81-3.22-2.85 2.41-3.86 7.81-3.76 10.18-7.68 3-3.75 5.22-8 8.21-11.73 1.5-1.85 3.15-3.73 4.25.33 0 1.91-.86 3.5-2.58 5.68 2.9-2.67 4.52-5.43 7.92-5.68z" transform="translate(-500.57 -39.62)" style="fill:#563d25"/><path d="M887 429.77c2.35 6.31 1.27 12.85 1.12 19.3-.09 3.92-.26 7.76 1.47 11.41-2.57 2-.59 4 .24 5.85 4.84 10.61 3.74 21.12-.16 32.41-3.56-3.32-3.32-8.58-8-11.13 1.14 5.77 5.69 9.9 5.12 15.56 2.64 8.85 1.72 17.88 1.39 26.88-.06 1.74.24 3.59-1.35 4.92-8.6-8.29-18-15.22-29.84-18.3a90.26 90.26 0 0 0-23.28-3c-.34-3.9 6.72-2.8 5.09-7.11-1.09-2.88-4.68-3.82-6.65-6.23-2.92-3.57-5.54-7.36-8.29-11.06-3.72-5-6.14-5.12-10.64-.94-1.54 1.42-2.64 4.53-5.65 2-1.62-3.81-.22-8-1.44-11.83-1.44-7.1 3.57-11.46 7.19-16.26 5-6.65 5.18-6.68-1.93-11.08-1.17-.72-2.24-1.42-2.5-2.86-2.23-12.28-11.8-20.16-18.36-29.75-4.13-6-10.12-6.38-17.18-3.33-2.64 1.13-5.43 1.82-8 3-7.5-1.83-3.24-6.63-2.64-10.52.52-2 1.9-3.87 1.38-6.3-1.86-.14-2.74 3.56-5.1 1.47.22-7.84 5-12.63 11.07-16.56 10-2.37 19.15-6.81 28.13-11.63a148.3 148.3 0 0 1 25.16-10.28c8.21-3.1 16.59-5 25.44-3.76a7.42 7.42 0 0 1 5 3.35c-1.85 3.32 1.21 5.65 1.73 8.49a11 11 0 0 1-.92 2.5c3.06 8.25 9.12 14.7 13.32 22.26a97.84 97.84 0 0 0 7 10.38c3.91 5.31 6.56 10.16 3.2 17.41-2.05 4.43-.2 10.36.19 15.62 3.39-.7 4.49-3.9 6.81-5.64 2.32 4.57.64 9.32.89 13.68.3-4.49.68-9.31-.24-14.12-.37-1.82-.37-3.49 1.23-4.8z" transform="translate(-500.57 -39.62)" style="fill:#344611"/><path d="M889.52 569.51c-6-5.32-11.9-10.7-17.95-15.94a62.79 62.79 0 0 0-6-4.09c5.44-10.09 2.38-16.32-9.1-18.48-2.61-.49-5.4-.75-7.69-2-9.86-5.36-20.11-5.58-30.7-2.92a4.12 4.12 0 0 1-2.21-3.28c1.65-4.61 4.14-8 9.82-6.5.76 1.45 1.67 2.74 3.58 2.11 16.8-5.61 30.92 1.51 44.56 9.8 4.63 2.81 8.18 7.36 12.47 10.8 7.36 5.88 8.93 13.78 8.49 22.52-1.9 1.46-1 3.64-1.43 5.49-.43 2.06-1.04 3.98-3.84 2.49z" transform="translate(-500.57 -39.62)" style="fill:#354515"/><path d="M825.73 516.31a12.2 12.2 0 0 0-9.16 6.83c-1 3.77-1.77 9.22-6.11 8.73-3.76-.43-3.37-6-3.73-9.65-.84-8.7-4.06-17.28-1.38-26.17.6-2-.08-4.66 3.09-5a1.85 1.85 0 0 0 .6-.28c9.78-10.62 9.67-10.54 18.89 1.57 3.28 4.31 6.16 9 11.38 11.7 4 2 2.94 4.89-.38 7-1.65 1-3.48 1.77-5.22 2.64-2.65.87-5.71.69-7.98 2.63z" transform="translate(-500.57 -39.62)" style="fill:#495920"/><path d="M889.52 569.51c3.62-.5 2.53-3.35 2.65-5.5.1-1.81-.16-3.72 2.66-2.47-.69 6.71 2.61 12.68 3.56 19.1.78 5.27.89 10.42-1.7 15.24-.5.92-1.24 2.69-2.84 1.39-.47-.38-.25-1.64-.34-2.5 2.08-6.19 1.77-12-1.88-17.7-1.34-2.07-1.44-5.02-2.11-7.56z" transform="translate(-500.57 -39.62)" style="fill:#43442a"/><path d="M886.83 535c-1.24-10.05 1.55-20.24-1.05-30.25-.1-.4.66-1 1-1.55 7.1 10.33 2.69 21.63 2.49 32.52-.02 2.04-1.69 0-2.44-.72z" transform="translate(-500.57 -39.62)" style="fill:#49502a"/><path d="M561.47 626.94a67.21 67.21 0 0 1-1.67 8.43c-2 6-.53 11.35 2.51 16.49 2 3.36 3.36 6.76 1.61 10.66a112.38 112.38 0 0 0-6.57-14.87 13.43 13.43 0 0 1-.3-12.1c2.32-5.5 2.35-11.45 4.57-18.18-7.32 5.48-14 9.73-17.47 17.24a2.53 2.53 0 0 1-.27-3.72l-2.35-2.65c2.05-4 6.46-5.18 9.56-7.93a37.59 37.59 0 0 0 5.29-5.33c-6-.7-10.27.75-13.87 5.79-4.36 6.11-10.79 5.94-17 .61-2.38-3-6.83-3.86-8-8-.39-1.27.35-1.61 1.41-1.68a12.84 12.84 0 0 1 3.86 2.57c11 7.27 17 4.89 19.81-7.87a45.93 45.93 0 0 0 1.2-11.2c-.06-2-.6-4.34.44-5.9 4.59-6.85-.46-10.34-4.57-14.23a20.42 20.42 0 0 0-12.49-1.91 2.55 2.55 0 0 1-2-2 3.6 3.6 0 0 1 1.06-1.81c11.73-4.34 17.47-2.22 24.27 8.92 2.52 4.78 4.55 9.63 1.56 15-2.55 3.18-2.29 7-2.47 10.74-.25 5.32 1 6 6.14 4.12 4.34-1.63 6.33-5.28 8.43-8.93 1.43-2.48 3.15-4.8 4.21-7.51 1-1.6.67-4.74 3-4.53 2.7.23 2.3 3.22 2.43 5.3.64 10.21-.15 20.17-5.45 29.27-1.93 2.27-5.53 2.27-6.88 5.21z" transform="translate(-500.57 -39.62)" style="fill:#4b2812"/><path d="M45.43 600.32a206.92 206.92 0 0 1 11.89 37.93c-12.41-11.46-11.24-24.98-11.89-37.93zm20.76 63.93c0 1.32 0 2.66-.12 4-.09 1.08-.23 2.33-1.84 2.06a1.63 1.63 0 0 1-1.41-1.92c1.49-6.15-2.92-11.5-2.3-17.51 3.16 3.9 5.39 8.22 5.67 13.37zm-6.6-14.87c0-.39-.1-.79-.14-1.18-.41-1.68-.83-3.36-1.28-5.18 5.67 1.11 4.95 3.43 1.42 6.36z" style="fill:#826b57"/><path class="r" d="M11.19 521.74c3.74-34.32 5.12-68.77 5.55-103.27-.94-2.41 1-4 1.68-5.95 2.26-3.78 4.25-7.73 6.86-11.28 1.13-1.53 2.57-3.89 4.63-2.63 2.38 1.46.88 3.9 0 5.88a20 20 0 0 1-1.35 2.27 41.14 41.14 0 0 0-6.4 17.22c-2.15 17.3-2.42 34.69-2 52.1a3.06 3.06 0 0 0 1.32 2.81c4.67-1.29 10.35.3 14-2.77 4.07-3.39 1.41-9.26 2.45-13.91 2.08-9.26 5.37-18.25 5.26-27.95 0-3.53 0-7.08-.21-10.61A40.36 40.36 0 0 1 49.43 399c6.53-10.15 7.39-20.63 2-31.5-1.46-3-1.67-6.34-2.82-9.1-3.51-.33-4.16 7.36-8.64 2.35-.09-5.27 3.67-8.05 7.13-11a10.5 10.5 0 0 0 3.19-4c.9-1.73 2.44-2.91 3.62-4.39.41-2.54-1.69-3.08-3.19-4.12-1.12-.78-2.92-1.28-1.65-3.29a4.93 4.93 0 0 1 2.76-.79c6.38 1.17 10.24 4.93 11.54 11.3 0 .86 0 2-.65 2.41-1.33.75-2.42 1-1.52 3.09 1.79 4.19 5.09 7 8.21 10 1.12 1 2.41 1.94 2.67 3.62-2.51 3.92-3.93 8-1.59 12.55-6.11 8.61-8.65 18.76-12.34 28.42-.72 1.89-1.36 4-.77 5.85 3.7 11.5-1.53 22.09-3.1 33-1.51 10.57-.56 21.11-.32 31.71.31 13.73 5.92 25.62 10.26 38-.37 3-2.57 2.8-4.45 2.14-6.66-2.29-13.31-4.7-18.3-10.06a31.47 31.47 0 0 1-1.33-10.81c.73-8.43-3.14-11.78-11.43-10.1-3.13.63-6.54.84-9 3.41-2.76 9.34-4.49 18.8-3.65 28.59a6.61 6.61 0 0 1 1.14 1.54c.06 2.77-1.22 4.28-4.08 4.26z"/><path d="m513.71 561.67 3.83-4.09a15.37 15.37 0 0 1 9.84-10.79c3.53-.13 7.57-3.19 10.44.58s-.65 6.88-1.76 10.32c-1.89 5.87-6.72 9-10.72 12.94l.22.35c-.2.39-.28.92-.58 1.18-11.42 10-9.36 23.08-8.28 35.94.14 1.74.66 3.51-.38 5.16-9.23-5.84-13.21-13.46-10.88-23.24 2.27-9.56 3.74-19.42 8.27-28.35z" transform="translate(-500.57 -39.62)" style="fill:#edae8d"/><path d="M525.47 621.38c11 4 12.21 3.71 18.55-5.47 1.07-1.56 2-3 4.07-2.53 3.78.86 7.31-.5 11-1.54-1.52 6-6.88 10.86-17.6 16.4a24.8 24.8 0 0 1-16.53-4.7c-1.3-.99-1.88-1.92.51-2.16z" transform="translate(-500.57 -39.62)" style="fill:#c29678"/><path d="M516.32 613.26c-2.55-8.25-2.53-16.91-2.67-25.32-.12-7.62 6.68-12.14 11.91-17l1.37 1.36c.43 2.24-1.2 3.48-2.35 5-3.67 4.29-7.77 8.38-6.63 14.82.1 5.08-.13 10.17 1.33 15.13.48 1.66.92 3.49-.75 4.9l-1 1.2a7.46 7.46 0 0 1-1.21-.09z" transform="translate(-500.57 -39.62)" style="fill:#6c4124"/><path class="v" d="M15.8 418.15c-1.08-8.21 1.77-15.41 5.34-22.59 6.09-12.23 11.76-24.68 19.62-35.94.25 1.56.83 2.72 2.35 1.05 1.32-1.46 2.28-3.23 3.57-4.72.81-.93 1.6-2.44 3.12-1.93s1.06 1.94 1 3.31c-.22 3.8 1.12 7.26 2.77 10.65 5 10.33 4.59 20.68-1.63 30.15a42.47 42.47 0 0 0-7.09 27.54 85.91 85.91 0 0 1-4.65 34.26c-1.21 3.61-.51 7.85-.71 11.8-.26 5-1.68 8.67-7.87 7.66-3.88-.63-7.41.61-10.68 2.66-1.29-1.29-.9-2.86-.71-4.38 2.43-19.3 1.62-39 5.84-58 2.08-9.38 6.61-18.14 10.81-26.85 1.78-3.67 3.33-6.35-.2-10.47-3.72-4.34.25-9 2.43-13.25.25-.83-1.24-.29-.36-.19.34 0 .39.22.23.59-6.2 13.67-13.76 26.72-18.85 40.91-.44 1.24-1.09 2.43-.58 3.81l-2.79 4.27a2 2 0 0 0-.96-.34z"/><path d="M590.7 60.46c3.67-.69 5.74-4.19 9.18-5.29a293.61 293.61 0 0 1 36.26-11.85l6.41-.15c2.46 1.68 5.32 1 8 1.37-.95 3.58-4 2.58-6.45 3-17 2.86-33.49 7.23-48.5 16.18a64.79 64.79 0 0 0-18 16.28c-2.12 2.71-3.53 6.21-7.25 7.37-1.13-.3-1.9-.83-1.41-2.18 3.16-7.09 8.64-12.44 13.59-18.19a31.29 31.29 0 0 0 8.17-6.54z" transform="translate(-500.57 -39.62)" style="fill:#4b371d"/><path d="M755.2 675.85c.66-2-.26-3.69-1.22-5.34-1.19-1.37-.93-2.72-.18-4.25 3.16-6.46 3.12-6.46-4-8.33a31.34 31.34 0 0 1-20.16-15.81c-3.57-6.43-2-12.88 0-19.16.74-2.32 2.83-4.7 6.19-3 2.06 4.81-2.25 9-1.28 13.7-.54 5.85 3.32 9.42 6.83 13.16 3.39 2.4 6.83 2.16 10.63.83 3.46-1.2 4.66.42 3.4 3.39 5.6-1.36 8.27-6.94 12.87-10.15a5.86 5.86 0 0 1 3.41 3.07c-.09 3.77-3 5.7-5.49 7.61-3.46 2.66-4.36 5.71-2.89 9.66v.92c-2 5.19-4.26 10.3-5.07 15.88-.85 1.53-1.81 2-3 .28z" transform="translate(-500.57 -39.62)" style="fill:#42320a"/><path class="i" d="M262.71 621.65c-4.7-3-3.51-6.29-.12-9.14 3-2.5 6-4.89 8.09-8.2-1.91-2.45-1.57-5.39-1.78-8.22-.9-12-5.9-21.69-16.23-28.37-8.66-5.6-8.83-22.86-.37-30.14a3.14 3.14 0 0 1 2 .16c9.6 2.69 18.72-.83 28-2.34a62.81 62.81 0 0 0 12.18-3c3.91-1.49 5.32.49 5.65 4a13 13 0 0 1-2.69 9.32c-1.45 2-3.22 3.64-4.7 5.56-6.1 7.89-5.93 10.89 1.57 17.81 2.83 2.62 2.94 5.07 0 7.09-4.55 3.16-5.68 7.42-4.06 12.14s6.23 6.83 10.88 7.43c4.2.55 7.39 2.18 8.65 6s4 6.06 7.53 7.63c1.93 2.63 1.87 6.1 3.7 8.78 3.2 13.1-4.43 16.33-16.92 12.76a16.59 16.59 0 0 0-13.57-5.38c-4.39.29-8.81 0-13.22.05-4 .06-8 0-10.6-3.84-1.27-1.92-2.63-.61-3.99-.1z"/><path d="M816.18 701.31A24.19 24.19 0 0 1 823 713c-1.42 5.48-5.8 6.34-10.48 6.72-3.62.34-5-1.14-3.57-4.62a33.12 33.12 0 0 0 1.39-5.13c-2.26 10.57-8.16 13.84-19.41 10-1.88-4.27 2.17-8.41.25-11.82a18.12 18.12 0 0 1-1.57 10.08c-2.61 4.69-6.88 6.83-11.95 6.9-3.84.06-7.67-.84-7.15-6.23 1.93-4-.4-8.71 1.83-12.67-1.62 3.22-.69 6.79-1.16 10.17-3.83 10.25-20.43 14.52-27.38 7.05-1.47-2.57-4.47-4.19-4.61-7.56 1.59-4.58 5.82-6.63 9.13-9.57 3.32-1.21 6.76.48 10.09-.42.09 0 .13-.2.2-.31a1.74 1.74 0 0 1-.87-.92c.59-1.43 2.19-2.64 0-4.29-1.56-1.2-2.44-3-.78-5 12.34-3.5 24.88-3.53 37.41-1.84a109.78 109.78 0 0 1 14.87 3.29c2.76.73 5.59 1.49 6.94 4.48z" transform="translate(-500.57 -39.62)" style="fill:#d1956b"/><path d="M758.23 678.07c-2.08-6.5.5-11.51 5.06-15.88 7.89 8.59 19 5.78 28.63 7.51 5.8 1 9.69 2.3 11.57 8.08.65 2 2.15 3.77 3.9 6.71-4.11-1-7.2-1.55-10.22-2.41a66.19 66.19 0 0 0-33.36-.94c-2.99.69-5.16.57-5.58-3.07z" transform="translate(-500.57 -39.62)" style="fill:#ce926b"/><path d="M809.81 722.32c2.6-1 3.24 2.77 5 2.37 2-.46 3.94-1.91 5.72-3.19s3.09-3.19 5.74-3.54c1.79 4.33-.06 6.78-3.92 8.7-10.82 5.4-22.08 8.91-34.26 9.18-3 .07-6.22-.66-9.12 1h-.42l-.41.08c-4.88-1.42-10 .33-14.85-1-7.75-1.31-15.52-2.58-23.26-3.94-3.29-.58-5.85-2.06-5.9-5.9 0-2.14-.48-5.15 2.05-5.54 2-.32 3.18 2 3.41 4.45.3 3.11 2.87 2.73 5.07 2.71 9.71-.71 19.42-1.45 29.07.48 2.9 1.22 6.13.7 9.09 1.64.8.25 2 .3 1.54 1.57-.36 1.09-1.28 1.61-.95 1.66 6.7.26 14.17-3.75 22.27-4.23-5.62-.15-11.3-1.92-16.72 1-2.64 1.39-5.19-.15-7.78-.39-2.45-.65-5.36.28-7.38-2.26 2.24-3.29 6.06-2.31 8.93-2.72 8.98-1.4 17.92-3.53 27.08-2.13z" transform="translate(-500.57 -39.62)" style="fill:#b48c2e"/><path d="M809.81 722.32c-11.27 2.93-23 2.39-34.37 4.78 1.92 1.38 4.92-.52 6.56 1.91-2.13 1.17-4.36.64-6.58.37-7.68-.11-15.36-.2-23-.36-2.62 0-5.3 0-7.68-1.41.06-1.47-3.47-2.13-1-4.17 11.25 4.22 23.15.81 26.39-7.55 2.55-.2 1.61 1.43 1.4 2.68-.88 4.94 2.78 4.48 5.7 4.65a12 12 0 0 0 11.5-5.93c2.39-1.18 1.22 2.15 2.7 2.13 13.32 2 18.11-1.91 18.19-14.9 2.76 3.3 2.33 6.81.58 10s-.31 4.3 2.26 5.28z" transform="translate(-500.57 -39.62)" style="fill:#3c1705"/><path d="M789.6 684c1.61 1.75 3.74.89 5.64 1.14 1.29 5.56-2.93 5.57-6.24 5.72-7.42.35-14.74 1.52-22.11 2.13a56.31 56.31 0 0 1-14.53 2.21c-2.63-3.53.83-4.69 2.64-6.24 2.27-2 5.77-1.64 8-3.9l1.46-1.36c8.38-.64 16.77-1.18 25.14.3z" transform="translate(-500.57 -39.62)" style="fill:#e8ad27"/><path class="ad" d="M265.34 652.1c7.59-2 15.35-2.41 23.14-2.57 3-.06 5.9 0 6.19-4 8.76 2 17.43 4.12 24.26 10.55-.93 1.15 1.76 4-1.79 3.89-3.52.69-6.28-1.65-9.34-2.6-11.24-3.47-22.67-4.32-34.33-3.9-2.71.06-5.73.97-8.13-1.37z"/><path d="M765.91 691.72c14.18.06 28.48-1.53 42.22 3.8 3.24 1.26 6.58 2.24 9.59 4l-1.54 1.76c-19.38-7.86-39.27-8.88-59.56-4.32a2.57 2.57 0 0 1-4 0c-.69-1.09-1.83-1.2-2.95-1.35.15-1.14.68-1.75 1.91-1.42z" transform="translate(-500.57 -39.62)" style="fill:#613107"/><path d="M752.65 697h4c.5 2.72 8.34 4.19 1.41 8.18-2.72 4.24-6 1-9.09.71-.13 0-.37.12-.39.21a1.88 1.88 0 0 0 .07.62c-1.74 4.53-6.18 6.26-9.48 9.17-2.1-7.3 1.13-15.08 13.48-18.89z" transform="translate(-500.57 -39.62)" style="fill:#e6ac89"/><path d="m751.61 694.22-1.91 1.42-7.29 2.3c5.72-8 12.1-12.12 20.57-12.91.2.34.57 1 .55 1a13.86 13.86 0 0 1-3.28 1.92c-3.67 1.05-6.25 3.44-8.64 6.27z" transform="translate(-500.57 -39.62)" style="fill:#d6b870"/><path d="M820.22 687.71c-5.14 3-7.22 1.71-11.23-7.16 1.79-1.12 3.18 1.05 4.86.62 3.27-1 3.73 2.71 5.93 3.51 1 .66 1.58 1.44.64 2.59z" transform="translate(-500.57 -39.62)" style="fill:#7e6c4b"/><path class="ad" d="m289.03 644.38-25.16-.3c8.42-2.07 16.81-2.3 25.16.3z"/><path class="f" d="M262.76 696.21c5 .12 10-.84 14.85 1-4.95-.25-10.04 1.42-14.85-1z"/><path d="M735.66 620.13c-5.39 2.76-8.33 11-5.91 17.8 4 11.15 12.36 17.18 23.79 19 1.94.31 4.06-.65 4.36 2.28.23 2.26 1.7 4.85-1.25 6.47a4.53 4.53 0 0 0-2.67 4.81 104.23 104.23 0 0 1-37.78-3.81c-2.16-.64-4-1-5.51-3-4.57-6-10.33-5.55-13.64 1-1.15 2.29-3.26 1.78-5.09 2.27-5 1.33-10.49-.95-15.24 2.1-1.87-.27-3.77-1.08-5.54.32a3 3 0 0 1-1.89-.08c-1.2-.64-2.34-1.33-1.8-3 3.79-5 2.84-10.38.77-15.66-1.53-3.9-3.41-7.69-3.7-11.92-.4-5.73-3.19-8.26-9-7.74-5.65.51-10.5-1-13.29-6.52-1.13-2.23-1.78-4.51-.47-6.92 2.52-2.19 4.14.2 6.05 1.15 3.78-1 4.85-4.6 1.95-8.49-4.26-5.71-5.31-12.82-8.75-18.87a5.43 5.43 0 0 1 .12-6.23c2.07-1.62 4.54-1.65 7-1.62 21.18.28 42.11-2.45 63-5.39 4.55-.64 8.83-2.81 13.54-2.71 6.4 0 10 5.23 12.6 9.28 3 4.57-2.84 4-5.53 4.86-1.15 4.48-3.17 7.19-8.61 5.79-2.42-.62-3.39 1.47-2.13 3.87.4.54.77 1.1 1.21 1.6 2.3 2.6.23 7.17 3.36 9 3.42 2 5.8-2.61 9.06-2.6 4.63 0 7.16 2.47 7.36 7.18-1.15 2.21-2.38 4.36-4.56 5.78a2 2 0 0 1-1.81 0z" transform="translate(-500.57 -39.62)" style="fill:#334514"/><path d="M677.22 708c2.52-2.28 4.79-1.18 5.9 1.21s-.19 4.78-2.59 6.12c-5.27 3-11.1 4.41-16.92 5.55-29.56 5.78-58.84 2.25-88.05-3-.37-.06-.68-.52-1-.8-2.88-1.48-2.64-4.12-2.5-6.72 3.83-3.55 7-.9 9.75 1.45 1.49 1.26 2.31 3.27 4.77 2.52 2.92-1.86 6.08-.69 9.08-.51 16.53 1 33.15-1.34 49.64 1.31a11 11 0 0 0 5.22-.68c9-1.74 18.28-2.32 26.7-6.45z" transform="translate(-500.57 -39.62)" style="fill:#b7901e"/><path class="ak" d="M84.61 669.38c-3.37-1.8-8.52-1-9.42-6.4-1.69-6.15.57-11.47 6.71-15.22a41.78 41.78 0 0 1 15.82-6 15.83 15.83 0 0 1 3.2-.52c2.45.1 5.12-.39 6.68 2.29 0 .67 0 1.53-.46 1.87-8.9 6.18-8.25 14.76-6.06 23.74-2.18 3.19-5.35 3.67-8.49 2.22-2.61-1.24-5.37-1.15-7.98-1.98z"/><path d="M585.18 709c1.86-.78 3.26-3.72 5.84-1 3 3.21 6.49 2.56 10 .85a3.81 3.81 0 0 1 3.51-2c11 2.15 22.06 4.14 32.28-2.86 3-2.42 5-2.21 6.12 1.85.58 2.07.55 4.42 2.26 6.07 1.33.81 2.87.8 4.32 1.13 1.19.48 2.57.81 2.14 2.61-.79.37-1.62 1.13-2.36 1-20.84-2.29-41.92 1.51-62.7-2.45a8.5 8.5 0 0 1-1.41-5.2z" transform="translate(-500.57 -39.62)" style="fill:#341107"/><path d="m651.63 715.69-2.58-1.41c-.24-1.81 1.2-2.1 2.38-2.6 6.78-2.84 7.43-3.77 5.69-10.83-2-7.94-3.86-16-11.52-20.88-3.92-4-10.23-3.61-14.16-7.6.37-1.46 1.55-2 2.79-2.56a9.49 9.49 0 0 1 4.76.28 22.34 22.34 0 0 1 14.72 9.26c3.17 4.63 5.79 3.68 9.69 1.11 3.71-2.45 5.63-6.78 9.79-8.58 1.35.08 2.88-.32 3.55 1.42-3 5.23-7.3 9.27-12 13-1.37 1.08-3.08 1.86-3.54 3.73a2.62 2.62 0 0 0 .82 3c.87.57 1.58-.26 2.29-.75 1.85-1.29 3-4.07 6-2.93l1.32 1.17c.71 3.3-2 4.5-3.85 6.18-1.44 1.31-3.29 2.28-3.85 4.3a7.48 7.48 0 0 0 .72 6.3c1.39 2.08 3.47 1.18 5.36.71 1.64-.42 3.24-1.46 5-.39l2.18.42c-2.6 3.79-6.47 4.83-10.77 5.34-4.94.53-9.85 1.5-14.79 2.31z" transform="translate(-500.57 -39.62)" style="fill:#77450c"/><path d="M673.19 671.88a21.72 21.72 0 0 1-6.13 7.73c-7.74 6.82-8.46 6.77-15.47-.65a24.51 24.51 0 0 0-13-7.46c0-1.54 1.12-2 2.25-2.39a190.36 190.36 0 0 1 29.44.14 1.66 1.66 0 0 0 .9.21z" transform="translate(-500.57 -39.62)" style="fill:#cc966e"/><path d="M675 707.56a41.85 41.85 0 0 1-4.19 1.83c-2.78.87-7 2.88-7.88-.57s-4-8.5 1.47-11.76a23.11 23.11 0 0 0 7.22-6.6c4.09-3.75 5.92-2.06 6.32 2.71.46 5.06.6 10.11-2.94 14.39z" transform="translate(-500.57 -39.62)" style="fill:#cc9570"/><path d="m670.34 689.29-8.78 7.09c-3.56-4.83-3.64-8.44 2.27-11.44 5.25-2.67 7.73-8.71 12.91-11.64 2.51 7.19-.62 12.12-6.4 15.99z" transform="translate(-500.57 -39.62)" style="fill:#b98f24"/><path d="M598.61 682.55c-4.43 1.73-8.89 3.4-13.29 5.21-6.58 2.73-10.08 7.51-9.56 14.85-1.55.82-.45 3.22-2.31 3.86q-.23-4.05-.43-8.1c2.13-8 8.71-12.68 13.52-18.68 7.52-2.69 14.59-6.71 22.68-7.72 1 .55 2.62.09 2.92 1.8-4.78 5.12-11.79 4.17-17.6 6.49-.57.23-1.26.06-1.82.42a5.91 5.91 0 0 1 1.84-.16 5.13 5.13 0 0 1 4.05 2.03z" transform="translate(-500.57 -39.62)" style="fill:#795b3b"/><path d="M572.05 710.32c2.15 1.75.77 4.81 2.5 6.72-6.39-.18-4.78-3.32-2.5-6.72z" transform="translate(-500.57 -39.62)" style="fill:#cbac5a"/><path d="M843.33 342a2.71 2.71 0 0 1 .93 3c-.52 4.14-2 5-5.82 2.52-8.44-5.51-16.49-11.84-26.59-14.28-20.6-6.84-37.84.51-53.5 13.18-11 8.89-21.54 18.38-32.86 26.88-3.81 2.86-7.56 6.18-12.77 6.4-1.26-6.05 2.1-11 4.16-16.18 1.58-3.95 5.48-.93 9.23-1.28-3.89-8 .6-12.77 6.27-17.25 5.37-4.24 10.08-9.27 15.77-13.13 5-4 10.39-7 14.75-12.31 4.18-5.07 12.11-6.78 19.33-7.15 3-.15 5.95 0 8.2 0-7.81-.77-15.78.95-23.72 4.29-6 2.53-7.31 9.72-13.44 11.78-1.68.57-2.69 3.15-5.07 1.59 1.91-7.77-.84-16.43 4.36-23.55 1.58-2.15-.46-3.09-1-4.55-1.57-4-3.89-7.91-1.08-12.29 3.69-1.29 7.26-1.68 10.42 1.27-.35 2.54-2.9.67-3.65 1.63 7.93-.71 15.68 1.1 23.23 4 2 .76 4.12 1.67 4.42 4.29-1.87 2.87-5.55.39-7.77 2.61-.72.28.37 1.07-.09.31-.15-.25 0-.34.35-.57 1.56-1.17 3.36-.61 5.06-.78 7.25-1 14.28-.52 20.84 3.09 18.71 6.19 31.44 19.02 40.04 36.48z" transform="translate(-500.57 -39.62)" style="fill:#928861"/><path d="M750.1 290.27c1.19 5.23 1 11 6.37 14.49 1.77 1.15 1 3.08-1.07 3-4.09-.1-4 2.34-3.78 5.16.56 6-.85 11.63-2.67 17.23a2.74 2.74 0 0 1-2 .73 2.23 2.23 0 0 1-1.66-1.27c3.05-10.66.56-21.54.88-32.3.25-7.94-2.47-16-1.95-24.15.23-5.48-.47-10.92-.25-16.43a35.22 35.22 0 0 1 5.45-18 26.49 26.49 0 0 1 3.87-4.51 95.92 95.92 0 0 1 13.1-8.36 13.86 13.86 0 0 1 1.63-.83 20.13 20.13 0 0 1 6.91-1.54c0-2.33-3.47-5.39 1.52-6.29 3.69 2 6.41 4.52 4.35 9.25-1.51 1.28-3.1.82-4.75.4.9 1.07 3.69-.44 3.47 2.27-1.06 1.37-2.63 1.5-4.16 1.69-13 1.57-20.29 9.61-24.13 21.49-1.8 9.72-.06 19.29 1.18 28.87.36 2.63 2.37 4.43 3.39 6.73-.87 3.32-4.17.71-5.7 2.37z" transform="translate(-500.57 -39.62)" style="fill:#68230c"/><path d="M779.18 229.36c-.63-1.83-2.72-1-4.29-2.54l5.89-.35c9.18 4.12 10.92 12.08 10.19 20.84-1.68 19.92-17.26 37.59-34.1 39.16-.54.47-.83 1.27-1.7 1.31-2.37-1.08-4.34-2.43-3.8-5.51 21-3.87 34.64-19.37 34.15-38.78-.06-2.66-.19-5.28-1.72-7.59-1.06-2.52-4.53-3.34-4.62-6.54z" transform="translate(-500.57 -39.62)" style="fill:#462715"/><path class="av" d="M275.86 177.6c-.63 1.41-3.77 3 .29 4 1.42.35 2.63.74 2.14 2.47s-2 1.58-3.24 1.45c-2.93-.31-5.56.79-8.3 1.42.48-12.67-.07-25.72 11.61-34.57 2-1.49.31-4.54 2.84-5.54 1.53-.67 1.9-3.61 4.45-2.31 0 1.07-.31 2.26.07 3.16 1.73 4.08 2 6.61-2.9 9.59-7.19 4.43-8.32 12.28-6.96 20.33z"/><path d="M887 429.77v26.54c-3.67-2.72-2.59-5.24-2.15-7.7.81-4.49 1.8-9-.51-13.4-1.95-1.58-1.87-3.95-2.1-6.07-2.22-20.33-13.62-35.86-26.4-50.66-1.13-1.32-2.88-2.17-2.18-4.34l1.57-1.49a5.34 5.34 0 0 1 4.15-1.71c.94.32 1.75.72 1 1.92-2.38 2.57-.37 3.83 1.3 5.71 13.12 14.72 23.32 30.96 25.32 51.2z" transform="translate(-500.57 -39.62)" style="fill:#29300c"/><path d="m860.37 372.86-1.35-1.4c-2.16-1.91-1.88-5.1-3.76-7.16-6.27-7.37-15-11.61-22.44-17.45-4.24-4.16-10-5.51-15-8.29-2.82-1.56-6.47-1.85-8.29-5.06.27-1.72 2.17-.91 2.92-1.89 10.31 2.52 18.8 8.58 27 14.81 3.57 2.72 3.54-.1 4.85-1.49-.19 3.91 1.7 6.35 5 8.4 4.82 3 9.5 6.34 11.43 12.16.78 2.51 1.77 5-.36 7.37z" transform="translate(-500.57 -39.62)" style="fill:#505030"/><path d="m755.17 287.78 1.7-1.31c10.85 3.57 22.2 5.49 32.67 10.28 2.56 1.17 5.36 1.81 7.33 4-4.28 4.39-10 .82-14.74 2.67-2 .19-3.93.56-6.14-.63 2.49-2.87 5.85-1.36 8.61-2.07 1.38-2.49-1.1-2.1-2.09-2.65-6.75-3.74-14.86-3.09-21.68-6.64-3.42-1.83-7.12-1.07-10.73-1.19 1.01-2.18 4-.37 5.07-2.46z" transform="translate(-500.57 -39.62)" style="fill:#5b5435"/><path d="m843.33 342-1.13.54c-7.57-17.31-21.3-28.15-37.85-36 .11-.84.91-.9 1.42-1.28 17.98 6.6 31.48 17.85 37.56 36.74z" transform="translate(-500.57 -39.62)" style="fill:#55502e"/><path d="M786.22 184.18c-2.16.36-1.28 3.07-2.93 3.82a5.17 5.17 0 0 1-1.73-3.48c-.64-5.35-3.13-6.41-7.48-3.3.09-3.7-1.33-7.75 2.54-10.53 3.85 1.55 6 5.39 10.11 7 3.44 1.31.27 4.31-.51 6.49z" transform="translate(-500.57 -39.62)" style="fill:#6d3b25"/><path d="m805.77 305.19-1.42 1.28a73.63 73.63 0 0 0-22.22-3c4.62-2.52 10.19.21 14.74-2.67z" transform="translate(-500.57 -39.62)" style="fill:#372f11"/><path class="bc" d="M233.61 16.82c14.41 5.81 21.88 17.49 26.61 31.48a31.65 31.65 0 0 0 1.32 2.91c.06 2.46-1.44 1.56-2.55 1.11-15.92-6.46-27.68-.72-32.36 15.9a120.14 120.14 0 0 0-4.43 22.77 434.56 434.56 0 0 0-1.45 45.07c.06 2.41 1.27 5.56-2.5 6.64-3.4.32-5.73-2-8.4-3.45-15.65-8.41-32.61-6-44.06 7 10-3 20.19-2.23 30.35-2.33 6.49-.06 12.68 1.48 18.87 3.09 2.59.67 5 1.86 6.12 4.61 3 17.52 3 35.21 2 52.82a84.31 84.31 0 0 1-9.33 33.58c-1.37 2.77-3.11 5.11-6.49 5.53a3.71 3.71 0 0 1-3.7-3c-.2-.77.57-1.4.4-2.19-7.39 3.55-16 1.85-23.36 5.46-15.08 2.77-30 6.87-45.53 6.26-4.62-.19-9.27.07-13.69-1.63-1.69-.65-3.44-1.67-3.43-3.62 0-1.76 2-2.09 3.31-2.82 1.85-1 4.48-.71 5.47-3.12-4.92-.89-9.9-.24-14.78-1.28-7.86-1.67-12.24-5.93-11.16-11.34 1.18-5.9 8.2-9.57 16.28-8.06-3.11-1.84-3.3-4.25-2.77-6.93a30.48 30.48 0 0 0 .34-8.53c0-.17-.15-.44-.28-.47a1.61 1.61 0 0 0-.67.13c-5.8-.27-8-3.64-8.26-9-.27-5 .47-9.94-1.31-15-5.25-14.8-18.24-17.6-30-16.21-2.54.3-3.64 2.2-4.88 4-1.48 2.77-2.46 5.91-5.41 7.64-2.33 1.11-4.76 3.15-7.26.84a5.69 5.69 0 0 1-1-6.83c4.15-7.06 1.49-14.73 2.47-22 .36-2.62.36-5.28 1.32-7.79 2.93-5.17 8.09-5.62 13.15-5.93 12.73-.8 24 3.8 35.15 10.21a160.14 160.14 0 0 0-18.15-15c-7.85-5.63-16-6.92-24.81-2.73-4.94 1.2-6.39-1.66-7.73-5.78-2-6-.35-11.56.64-17.31.45-2.59.05-5.29.06-7.94-.9-6.9 4.1-11.69 7.11-16.68a57 57 0 0 1 18-18c16-10.46 33.49-12.09 51.87-12.31 14.07-.18 28.26-.63 42.24-2.68 7.21-1.06 14.3-3.22 19.41-9.1 7.07-8.14 15.74-12.58 26.74-12.07 4.58.25 7.56-2.92 10.52-5.92z"/><path d="M712.75 278.42c1.26-6.63 4.53-12.57 6.12-19.19 1.8-7.53 3.27-14.91 3.26-22.62 0-13.63.5-27.29-1.68-40.81-.3-1.87.35-3.46.34-5.19 2.24-4.07-3.64-5.49-2.95-9.05 2.93-.34 1.67-2.37 1.66-4-.13-21.09-.48-42.22 4-63 1.82-8.46 3.76-16.86 11.45-22.69 8.47-6.43 17.31-6.94 26-.52.16.11.73-.34 1.11-.53 6.21 18.31 8.66 37.25 9.1 56.46.24 10.8-.07 21.61-.13 32.42.63 6.51-2.73 10.44-8.32 12.93-1.49 1.06-4.09 0-4.76 2.6 1.52 3.7.19 6.38-2.84 8.61-8.92 6.57-11.89 15.79-10.34 26.24.88 6-1.83 10.33-4.54 14.73a15.1 15.1 0 0 0-1.47 13.84c2.81 8 4.4 15.91-3 22.67-1.22 1.13-1.05 2.78-.78 4.38 1.56 9.55.36 17.84-9.17 23.24-2.74 1.55-4 5.22-5.71 8-6.09 10-14.41 17.83-23.68 24.69-7.42 5.49-7.56 5.29-14.67-.65-1-2.5-.24-4.67 1.25-6.7 8.56 2 8.56 2 9-8.25.17-4.54 2.94-6.52 7.07-7.16 6.92-2 12.85-10.4 13.25-19.08.38-7.08.55-14.23.43-21.37z" transform="translate(-500.57 -39.62)" style="fill:#d39568"/><path d="M734.18 56.44c.26 6.49-4.9 8-9.17 7.69-12-.87-20.62 4.26-28.11 12.79-5.39 6.14-13 7.92-20.58 8.63-19.71 1.83-39.53 2-59.26 3.18a61.82 61.82 0 0 0-28.9 9.17c-7.11 4.35-13.54 9.25-18.34 15.32-4.51 5.71-9.8 12-9.81 20.31-2.08.26-2.35-1.34-2.83-2.73.12-14.1 4.59-27.09 10.2-39.78a8.43 8.43 0 0 1 3.32-4c14.75-25.5 39.54-34.36 66.27-40 4.51-.95 9.06-1.67 13.58-2.5 21.06-1.5 42-1.11 62.59 4.16 7.26 1.87 14.52 3.86 21.04 7.76z" transform="translate(-500.57 -39.62)" style="fill:#fdc8a8"/><path d="M774.08 181.22c2.1-1.06.22-5.48 4.09-5 3.33.44 3.67 3.58 4.57 5.88.69 1.75.4 3.9.55 5.87-6.5 9.17-16.15 17-13.33 30.2.74 3.5-1.89 5.57-2.64 8.4-6.55-.81-10.29 3-13.29 8.06.16 2-1.91 2.5-2.7 3.87-6.09.72-5.38-4-5.23-7.29.5-11.14 6.42-19.74 12.92-28.43 4.48-6 10.3-11 13.57-17.87 0-.32 0-.63-.05-.95z" transform="translate(-500.57 -39.62)" style="fill:#ab3107"/><path class="bg" d="M261.22 152.18c4.66-2.83 8.91-6 9.29-12.09.45 1.43-.09 3.21 1.47 4.26l.31.08c-.59 4.76-5.25 9.78-9.34 9.89a1.61 1.61 0 0 1-1.73-2.14z"/><path d="m827.12 657.21-6.58.14c-3.67-1.71-2.56-5.12-2.83-8l.88-.3c6 4.54 17.67 3.44 23.29-3.23a17.07 17.07 0 0 1 7.5-5.19 38.29 38.29 0 0 0-9.59 3.49c-12.21 6-14.51 5.33-20.18-6.08a10.45 10.45 0 0 1-2.15-1.77 4.28 4.28 0 0 1-.51-1.81c.26-2 1.07-3.68 3.11-4.47a18 18 0 0 1 3.74 0c6.34-1.63 12.31-4.5 18.81-5.58a3 3 0 0 1 2.16 1.54c.68 2.26 2.18 1.52 3.59.93 4.66-2 8.84-4.51 11.84-8.76 1.46-2.06 2.43-4.71 5.38-5.29a2.3 2.3 0 0 1 2 1.69c.16 4.24-3.26 6.59-5.14 9.76-1.14 1.5-3.58 2.43-2.16 5l2.83 3-.3 3.67a1.84 1.84 0 0 1-1.79-.32c-1.35-.9-2.74-3.24-4.31-1.59-1.76 1.85 1.18 2.7 1.91 4.06a2.26 2.26 0 0 1 .36 1.81c-.45.48-.9.95-1.34 1.43-8.54 8.34-18.56 13.96-30.52 15.87z" transform="translate(-500.57 -39.62)" style="fill:#401d08"/><path d="M859 639.86c-.14-.16-.28-.33-.43-.49-1.66-1.74-5.32-1.66-4.84-5.34.19-1.4.82-2.71 2.25-2.84 3.47-.31 5.44 1.86 6.85 4.71-.32 2.22-1.33 3.79-3.83 3.96z" transform="translate(-500.57 -39.62)" style="fill:#691f1b"/><path d="m842.9 625.23-19.47 6.32c-3.85-6.62-3-19.23 1.63-24 4.93 1.12 10.38 4.79 14.41-1.07 5.58-8.11 12.3-16.24 7.82-27.23-2.74-6.76-5.67-13.37-6.26-20.8-.28-3.65-2.91-5.78-6.28-7-2-.71-4.46-.84-5.22-3.47a18.46 18.46 0 0 1 16.37-3.18c19.94 5.12 35.15 16.55 44.17 35.44a15.85 15.85 0 0 1 .77 3.84c.6 8.29-3.87 15.44-5.3 23.28-.36 2-1.36 3.79-4 3.35-.32-.69-.06-2.74-1.54-.61-2.94 4.21-5.94 8.4-8.91 12.59-3.28.12-6.09 4.25-9.74 1.13l5.67-9.12c.79-4.11 3-7.61 4.77-11.18-2.38 2.94-2.58 7.45-6.31 9.61-5 7.58-10.34 14.61-20.19 16.09-1 .15-2.24 1.06-2.72-.32-.38-1.09.87-1.77 1.75-2.34 7.19-6.56 13.86-13.51 17.37-22.89.53-.69-1-.37-.1-.19.15 0 .13.24-.09.63-3.44 6.11-6.34 12.56-11.87 17.3-2.04 1.79-4.04 3.33-6.73 3.82z" transform="translate(-500.57 -39.62)" style="fill:#d59569"/><path d="M829.53 548a12.2 12.2 0 0 0 5.64 1.65c3.69.39 7.05 3.37 7.16 6.06.4 9.29 4.51 17.28 7.47 25.68 1.6 4.55.88 8.71-1.13 12.76-2.23 4.5-3.92 9.65-7.29 13.12-6.07 6.23-9.81 6.88-15.67.71-.58-1.38.08-2.52.68-3.67 4.62-6.27 7.35-13 4.68-20.88-.7-3.09-2.61-5.58-4.14-8.25-3.61-4.21-6.16-2.14-7.92 1.62-2.72 5.78-5.35 11.6-8.42 17.21-2.34 4.29-5.45 7.61-10.25 8.73s-8.84.33-10.37-5.24c.4-4.56 3.64-6.94 7-9.21a7.86 7.86 0 0 0 5.65-6.68c.9-7.09 3.72-12.93 9.4-17.53 2.3-1.85 4.56-4.53 1.8-7.92z" transform="translate(-500.57 -39.62)" style="fill:#f2ab82"/><path class="bl" d="M317.28 486.05c8.46-3.15 16.63-5.69 25.57-.35 4.73 2.83 10.61 3.85 16.36 4.37 6 .55 11.75 8.7 11.2 14.74-.34 3.62-3.71 3.26-5.37 5.05-16.75-10.67-33-9.35-48.87 2-1.78 1.27-3.76 2.24-5.65 3.35-2.88-2.06-2.91-5.09-2.71-8.14.14-2.12.85-4.25-.54-6.23 1.16-6.46 5.4-10.73 10.01-14.79z"/><path d="M813.86 556.18c2.88.37 6.74 0 2.76 4.63-6 7-12.68 13.49-13.2 23.71-.14 2.72-2.63 5.06-6.16 4.76 4-8.72 2.9-18.91 7.86-27.34a43.78 43.78 0 0 1 2.36-4.09 2.63 2.63 0 0 1 2.36-1.19z" transform="translate(-500.57 -39.62)" style="fill:#edb89d"/><path d="M881.55 610.75c4-7 5.41-14.92 7.88-22.46.45-1.39-.14-3.13 1.41-4.17 2.14 9.07-1.2 17.54-2.92 26.18-3.16 2.34-5.28 6-10.16 8 1.56-3.1 2.68-5.3 3.79-7.55z" transform="translate(-500.57 -39.62)" style="fill:#e1ac8c"/><path d="m809.84 556.66-1.17.9c-4.71-3.55-4.81-12.15-.2-17.32 2.4.24 3 1.67 2.13 3.67-1.61 3.74-.28 7.29.49 10.89z" transform="translate(-500.57 -39.62)" style="fill:#67714a"/><path d="M861.36 623.86c3.46 1.46 6.11-4.11 9.74-1.13-2.22 4.43-6.8 5-10.77 6.51-1.29-.24-3.27-.51-3.14-1.75.21-2.06 2.81-2.35 4.17-3.63z" transform="translate(-500.57 -39.62)" style="fill:#daad92"/><path class="bq" d="M258.81 363.67c2.7-1 2.73-4.28 4.92-6.29 3.47 4.53 2.09 8.07-1.27 11.4a5.89 5.89 0 0 1-2.28 2.56c-4.07 2.16 1.69 2.73.72 4.39.11 2.32 1.14 5.15-2.2 5.95-2.44.58-4.08-1.24-5.31-3.08a22.58 22.58 0 0 1-2.42-4.62 141.29 141.29 0 0 0-6-19.4c1.94 4.7 4.13 12.83 6.49 20.92 1.21 2.11 2.24 4.36 4.38 5.75 3.95 2.55 2 4.32-.93 5.49-3.48 1.4-7.16 2.29-10.67 3.67-7 2-13.61 5-20.69 6.63-11.37 3.11-23.18 3.83-34.62 6.54a9.6 9.6 0 0 1-5.18-.17c-5.12-3.57-8.54-8.86-13.06-13.08s-9.27-6.68-15.46-6.29c-5.09.32-10.16-.41-15.26-.41-6 0-10.59-3.17-13.82-7.95-3.39-5-8-8.09-13.41-10.39a25.92 25.92 0 0 1-14-13 2 2 0 0 1 2.17-1.16c7.53 2.19 16 1.95 22.46 6.79a32.31 32.31 0 0 0 10.16 5.27 3.85 3.85 0 0 1 .72 1.08c2.58 7 2.58 7 10.41 5.31a4.3 4.3 0 0 1 2 .1c2.18 1.91 3.88 3.64 6.23-.35a27.65 27.65 0 0 1 10.48-10.3c2.91-.39 3.58 2.06 4.83 3.79 2.15 2.47 3.09 5.8 5.82 8.24 2.59-2.19 3.83-5.4 6.31-7.55 2.19-1.89 4.2-4.06 7.51-2.56a3 3 0 0 0 3.59-.76c4.57-4.73 10.68-7.81 14.31-13.53 2-3.1 5.26-4.43 8.3-6.17 6.81-3.91 13-8.75 19.18-13.58 2.17-1.7 4.28-3.8 7.42-3.67 3.69 2.14 3.63 6.25 4.87 9.6 1.59 4.28 3.28 8.52 4.91 12.79 3 6.26 3.15 13.62 7.28 19.48.5.72-.21.21.49.35 1.41.29.07-.73.31-1.1z"/><path class="bq" d="M308.9 293.57c8.16 4.28 17.67 5.95 24.5 12.77 2.86 5 8.13 7 12.28 10.46 1.68 1.39 5.44 2.06 3.39 5.81-9.14-.82-17.89 1.13-26.56 3.69-6.28-3.66-12.24-1.65-18.3.81-10.53 4.28-21.21 4.69-31.91.49a24.37 24.37 0 0 0-3.08-1.17c-2.37-.59-5-1.45-6.74.88s.48 4.16 1.74 5.83c3.33 4.39 2.44 10.27 5.36 14.77-5.15 4.19-9.34 9-10.77 15.76-3.74.36-3.94-2.78-4.71-5.05-1.59-4.74-2.52-9.68-4.57-14.27-2.41-7.84-7-15-7.77-23.35 13-14.11 27.82-25.46 46.92-29.79 6.75-1.51 13.8-1.29 20.22 2.36z"/><path d="M764.62 418c8.61-9.18 23.44-7.72 29.91 2.37 4.34 6.75 8.18 13.94 14 19.64.32.31.89.65.88.95-.22 6.41 4.09 9 8.77 12.18 2.78 1.92.28 5.76-2.06 8.53-4 4.75-9.18 9-9 16.19a44 44 0 0 1-1.38 15.52c-.33 1.3-.4 2.83-2 3.09s-2.5-.82-3.22-1.94c-2.53-3.95-4.58-8.07-4-13 3.28-4 2.25-9 3.69-14.37-3 3.72.16 7.57-2.1 10.55-1.78-2.12-4.28-.3-6.17-1.06a9.55 9.55 0 0 1-5.49-6.07 8.74 8.74 0 0 0-.28-2c-4.67-9.9-11.17-18.71-18.17-27.17-2.3-5.32-3.12-11.06-4.68-16.58-.63-2.34-.65-4.83 1.3-6.83z" transform="translate(-500.57 -39.62)" style="fill:#485a1f"/><path d="M764.62 418c-.24 8.43 3.32 16 5.21 24a211.27 211.27 0 0 0 17.28 28c2.59 2.4 3.9 7 9 5.21.19-.07 1 1.73 1.59 2.66.94.69.84 1.51.3 2.39-.55 6 2.32 10.62 5.79 16.7l3.37-19.16c2.67 4.18.68 8.81 1.26 13.2-1.2 6.52-3.46 12.79-1.69 19.75 1.69 6.67 2.21 13.63 3.39 21.39l6.43-9c1.06.53 1.18 1.53 1.27 2.54l-9.37 14.57c-1.78 5.79-2.6 11.57.19 17.32-.27 1.44-.36 3-1.7 3.94a4 4 0 0 1-4.8.58c1.7-8.63-1.79-17.67 2.59-26.23 2.06-4-.53-8.64-.67-13-.23-6.84-2.16-13.41-3.31-19.89-2.47-1.42-3.9 3.4-5.95.67s-.22-5.51.15-8.55c-1.9 2.63-3.16 6-7.28 4.63-2.35-4.82 2.21-7.47 3.47-11.16 3.09-5 .07-8-3.64-10.75a41.84 41.84 0 0 1-8.2-8.45 50.82 50.82 0 0 0-4.27-5.92c-8.28-7.74-10.65-18.35-13.77-28.56-2.16-7.05-2-7.16-8.72-4.14-2.29 1-4.45 2.05-6.86.43-.8-.66-1.41-1.4-1-2.53 3.84-2.77 8.76-2.57 13.42-4.83-2.63-2.71-6-4.64-6.86-8.42-.7-1.4-1.07-2.63 1.25-2.52.34 1 .59 2.06 1 3 1.11 2.46 2.79 5.11 5.63 4.34 3.08-.83.71-4.06 1.36-6.11a3.78 3.78 0 0 1-.16-4.34l2.67-1.35c1.24 3.07-3.19 7.08 1.63 9.59z" transform="translate(-500.57 -39.62)" style="fill:#1f2a05"/><path d="M770.15 387.53a3.65 3.65 0 0 1-3.59-3.33c-.16-5.57-2.66-9.91-5.82-14.3-2.43-3.38 0-6.17 4.91-6.47 4.68-.28 8.11 3.29 12.39 3.91 10.36 1.51 20.59 1.53 30.19-3.72 4.57-2.5 9.35-1.76 14.09-.22 1.67.54 1.09 1.51.76 2.52-11.34 3.66-22 8.94-32.46 14.47a71 71 0 0 1-20.47 7.14z" transform="translate(-500.57 -39.62)" style="fill:#b3bc99"/><path d="M853.63 374.14c5 5.45 10.26 10.73 14.54 16.86 9.31 13.31 15.76 27.65 16.14 44.21-1.76 1.53 3.89 8.13-3.9 5.77-.17-.05.39 3-1.38 4.37a6.6 6.6 0 0 1-2.61-6.09c.86-6.5-3.38-13.5 2-19.61 1.15-1.29.38-3.34-.77-4.89-6.73-9.11-12.18-19.08-19.12-28.08-2.42-3.14-3.38-7.35-6.68-10.2-1.41-1.25.36-2.13 1.78-2.34z" transform="translate(-500.57 -39.62)" style="fill:#485428"/><path d="M832.17 472.78c.06-3.13.12-5.64 4.5-5.73s5.47 1.87 5 5.61a7.84 7.84 0 0 0 3.13 7.57c5.11 4 6.47 10.2 9 15.71a2.73 2.73 0 0 1-.77 3.53c-1.43 1.15-2.65-.07-3.28-1.1-4.7-7.75-11-14.21-16.69-21.16-.81-1.03-.6-2.93-.89-4.43z" transform="translate(-500.57 -39.62)" style="fill:#445720"/><path d="M849.64 362.23c-1.29-4.64-6.22-5.13-9.08-8-2.51-2.5-6.91-3.52-6.59-8.29 7.7 5.54 16.44 9.73 22.48 17.41 0 2.48-1.33 2.25-2.94 1.51z" transform="translate(-500.57 -39.62)" style="fill:#b3b795"/><path d="M853.51 364.88c1.11-.24 2.31-.32 2.94-1.51 2.53 2.16 2.35 5.19 2.57 8.09-.91 1.58-2.39 1.32-3.82 1.19a19.83 19.83 0 0 0-3-3.4c-4.2-2.98.57-3.02 1.31-4.37z" transform="translate(-500.57 -39.62)" style="fill:#929775"/><path d="M561.47 626.94c-.63-4.06.89-5.71 5-4.4.88.76.8 2 1.71 3.36 1.79-3.54 3.53-6.71 3-10.61a2.5 2.5 0 0 1 0-1.3c5.94-13.35.51-26.69 0-40-.12-2.92.11-5.68 1.64-8.24 2.58-1.65 4.4.34 6.44 1.34a50.18 50.18 0 0 1 6.62 5.09c4.37 4.17 9.65 7 14.79 10 6.36 3.71 9.31 8.92 9.18 16.36-.26 15.25 2.13 30.44 1.3 45.73-.15 2.69.75 5.24 1.15 7.86-.61 6.09-4.8 7.41-9.75 6.61-3.7-.6-8.91-.23-8.22-6.64a174.83 174.83 0 0 0-.16-41.34c-4.09 5.38-3.08 11.5-2.71 17.49.14 2.42.85 4.79.87 7.23.06 8.8-2.92 13.23-11 16.3-5.23-1.65-8.94-5.42-12.71-9.11-1.31-1.28-2.71-2.73-1.89-4.59 2.53-5.82-1.66-8.3-5.26-11.14z" transform="translate(-500.57 -39.62)" style="fill:#475a1e"/><path class="bz" d="M111.65 612.52c-3.52-.49-3.17-3.19-3-5.58.92-16.82-1.66-33.54-1.33-50.34.1-5.46-2.57-8.87-7-11.75-5.85-3.77-12.71-6.24-16.94-12.27a2.68 2.68 0 0 1 3.08-.5c10 5.21 20.93 6.82 31.75 9 1.84.38 4 .54 5.45 2.16.4 5.19-4.63 8.48-4.24 14.16s1.9 11.22 2.93 16.8a14 14 0 0 1 .06 2.14 28.86 28.86 0 0 1-.42 4.25c-1.08 4.06-2.62 8-2.18 12.38-.17 6 1.28 11.74 2.11 17.59.63 4.42-.4 5.4-4 4.4-1.74-1.73-3.49-3.26-6.27-2.44z"/><path d="M581.28 651.79c9.18-5.66 10.08-13.71 8.27-23.64-1.37-7.55-1.6-15.82 5-22.29 3.61 4.79 2.57 10.26 2.42 15.22-.32 10.37 2.71 21.1-2.72 31-4.25-.75-8.68 1.37-12.97-.29z" transform="translate(-500.57 -39.62)" style="fill:#36480e"/><path d="M618.47 654.6c4.88 1.3 2.49-2.51 2.3-3.8-.94-6.23-2.64-12.36-2.23-18.75 2.72-3.7 4.33-2.06 5.27 1.24.85 3 .33 6.16.62 9.24.72 7.77 2 9.8 9.61 11.27 7.36 1.43 11.16 7.45 16.59 11.35.7.5.45 1.64.2 2.51-6.22 3.45-12.36.49-18.48-.37-3.24-.45-6.26-2-9.48-2.78-.67-.08-1.34-.15-2-.18-2.8-2.75-.93-6.65-2.4-9.73z" transform="translate(-500.57 -39.62)" style="fill:#687b38"/><path d="m639.94 670.37-1.35 1.13-4.39-.71a33.28 33.28 0 0 1-9 1.45c-3.19-.09-5.43-1.22-6.59-4.25a2.57 2.57 0 0 1 .19-1.23c1.53-.09 2.32-.82 2.07-2.43a1.58 1.58 0 0 1 .38-.6 92.23 92.23 0 0 0 15.51 4.17c1.51.28 3.09.39 3.18 2.47z" transform="translate(-500.57 -39.62)" style="fill:#9f8467"/><path d="M525.34 570.63c-.38-2.72 1.62-3.84 3.43-5.13 4.73-3.4 5.58-9.23 8.31-13.86 1.5-2.55 0-5.4-4-4.32a15.21 15.21 0 0 1-6.51.79c3.95-4.73 8.61-5.48 15-2.15 8.77 4.58 17.54 9.13 26.57 13.18a6.7 6.7 0 0 1 3.26 2.86c-1.67 7.89-1.2 15.86-.82 23.82-1.32 2.42.13 5.3-1.27 7.7-4.21 5.63-5.47 13.45-13.4 16.34-7.28 2.65-9 1.83-8.11-5.6.48-3.75-1.14-8.1 2.74-11a5.72 5.72 0 0 1 2.06 1.56c1.55 1.65 3.21 3.38 5.44 1.1a4.07 4.07 0 0 0 0-5.93c-2.73-2.91-3.46-6.36-4-10.1-.7-5.09-2.8-3.24-4.85-.75-7.08-10.74-11.58-12.34-23.85-8.51z" transform="translate(-500.57 -39.62)" style="fill:#d2976b"/><path d="m524.11 576.14 2.82-3.8c4.6-2.29 8.88-1.27 13 1.27 2.26 5 .73 10-1.61 14-2.48 4.17-2.08 7.55-1.19 11.76 2.26 10.67-5 17.62-15.73 15.41l-2.87-2.6a60 60 0 0 1-2.29-21.49c.82-1.44.89-3.6 3.32-3.49 5.6.24 4.43-5.36 6.7-8 .65-.77-1.55-1.89-2.15-3.06z" transform="translate(-500.57 -39.62)" style="fill:#917050"/><path d="M521.41 614.75c14-2.5 16.58-6.34 12.85-19.41-.91-3.17-.94-4.85 2.31-7.76 2.93-2.63 2.38-9.16 3.37-14 6.15 2 6.31 8.36 9.25 12.69a2.19 2.19 0 0 1 0 1.26c-6.15.46-3.67 5.18-3.71 8.18a59.35 59.35 0 0 1-1.5 11.77c-1.15 5.3-2.82 10.68-8.55 12.42-5.57 1.72-10.15-1.2-14.02-5.15z" transform="translate(-500.57 -39.62)" style="fill:#6f5239"/><path d="M569.31 593.47c0-2.68 0-5.37.05-8.05 1.78-4.51-.74-9 0-13.52.41-2.65-.27-6 3.89-6.28-1 10.21.33 20.23 2.38 30.23.85 4.13.77 8.32-1.6 12.14a9.08 9.08 0 0 0-1 8.09c1.58 5.15-3.66 8.66-3.77 13.82-4.47-1.57-4.18-4.27-2.73-7.36 5.26-10.77 6.38-22.2 5.15-34.39-1.68 1.58-.31 4.32-2.37 5.32z" transform="translate(-500.57 -39.62)" style="fill:#696f3c"/><path d="M549.17 579.07c.36-2.09.71-4.18 1.07-6.27a3.62 3.62 0 0 1 4 2.8c1.83 5.67 3.21 11.37 6.63 16.56 2 3-1.3 6.51-4.08 7.07-3.66.72-5.52-2.58-6.27-6 2.83-5.06.83-9.62-1.35-14.16z" transform="translate(-500.57 -39.62)" style="fill:#ecab8b"/><path d="M564.17 618.23c.32-12.48.32-12.48 5.36-18.24.17 8.81-1.14 13.57-5.36 18.24z" transform="translate(-500.57 -39.62)" style="fill:#ac886d"/><path d="M618.6 668c4.72 3.62 10.38 2 15.61 2.8l-2.66 1.28c-3.95 2.72-8.75 1.14-13 2.6-2.29.21-4.61.5-6.59-1.15l-2.74-1.53z" transform="translate(-500.57 -39.62)" style="fill:#502d10"/><path d="M520.1 453.82c-2.4-4.81.28-9.16 2.15-12.95 5.82-11.78 10.77-24.06 18.54-35.62 1.63 4.48-2.31 6.67-2.76 9.9-.5 3.62-1.89 7.22 3.49 8.15 3 .52 2.11 2.26 1.09 3.81-4.4 6.62-6.21 14.48-9.63 21.34-9.26 18.55-7 38.3-8.92 57.65-.51 5.22-1.69 10.38-2.57 15.57-2.4-.06-2.81-1.63-2.77-3.6.31-19-.53-38 2.54-56.87a43.19 43.19 0 0 1 6-15.25c1.27-2.14 3.36-4 3.55-8.19-5.16 5.38-7.58 10.96-10.71 16.06z" transform="translate(-500.57 -39.62)" style="fill:#6d7c3a"/><path class="bl" d="M18.3 486.11c4.3-3 9.29-3.52 14.3-4.11 6.09-.71 8.59 3.22 9.34 8s.21 9.77.23 14.67c-2.89 2.43-5.75-.32-8.71-.12-7.19.5-11.59 5-16 9.79-4.91-2.53-2.21-6.51-1.55-9.78 1.21-6.12 4.02-11.97 2.39-18.45z"/><path d="M570.07 561.72a2.12 2.12 0 0 1-2.29-1c-3.19-1.4-3.35-4.37-3.74-7.22-14.52-27.94-15.52-57-7.14-86.83.85-3 1.33-5.55 0-8.8-2.4-5.95-1.53-12.53 1.08-18 4.21-8.82 5.66-19 12.75-26.43a2.94 2.94 0 0 1 2.9 1.89 3.07 3.07 0 0 1-1 2.45 15.09 15.09 0 0 0-5 8.26c-2.86 6.51-4.18 13.51-6.48 20.2-1.28 3.73-.41 7.43.51 11.11.22 1.38.71 2.7.89 4.09C561 471.67 557.7 481.56 557 492c-1.39 20.93 1.59 41 11 59.85a48.1 48.1 0 0 0 3.51 4.87c1.45 1.79 3.41 3.26 3.76 5.77-2.63 5.87-3.49-.34-5.2-.77z" transform="translate(-500.57 -39.62)" style="fill:#202d04"/><path d="M569.25 400.78c-2.92-3-6.48-5.41-8.35-9.31-1.35-2.79-1.92-5.47 2-6.76 5.3-1 8.51-5 12.11-8.49 2-1.94 3.63-4.43 6.58-5.22 4.17 2.12 8.51 4.14 5.76 10.18-3.54 5.29-6.92 10.69-10.69 15.82-1.75 2.37-3.5 5.38-7.41 3.78z" transform="translate(-500.57 -39.62)" style="fill:#969c79"/><path d="m573.23 415.6-2.48-2.17c-3.71-.62-5.72-2.11-2.8-5.85 1.2-1.53 2.6-2.91 3.91-4.35 2.84-5.38 7.27-9.65 10.39-14.83a2.25 2.25 0 0 1 3.33-.94c1.54 2.31.34 4.69.14 7a48.14 48.14 0 0 0 1.56 15.61c.64 2.64 5 6.51-1.62 8.19-1.15.3.74 2 1.08 3.07.64 2 3.36 4.39-1 5.54-5.95-1.75-9.22-6.52-12.51-11.27z" transform="translate(-500.57 -39.62)" style="fill:#d9dcc6"/><path d="M581.33 371.35c-3.79 4-7.46 8.12-11.4 12-1.88 1.84-4.2 3.43-7 1.4-1.48-5.77-4.75-9.72-10.89-10.77-.15-1.44.88-2.25 1.92-2 7.94 1.94 13.2-2.9 18.68-7.19a7.24 7.24 0 0 1 3.45-1.78c3.68 1.53 5.66 4.18 5.24 8.34z" transform="translate(-500.57 -39.62)" style="fill:#b6b89c"/><path d="M549.05 389.85c-1.44-4.69-2.24-9.49-5.77-13.47-3.88-4.38-2.67-7.36 3.05-9 6.53-1.92 13.14-3.57 19.65-5.56 1.93-.59 4.6-.71 4.77-3.75 3.87-1.67 4.83-1 5.61 4-1.89 1.06-4.07 1.39-6 2.51-5.06 3-10.06 6-16.44 5.27a7.59 7.59 0 0 0-6.1 2c-2.5 2.56 1.28 1.56 1.66 2.56 3.25.57 5.3 2.89 7.44 5.1 1.74 1.79-.25 1.86-1.12 2.45-2.71 0-5.15.26-3.91 4.07-.89 1.25-.89 3.24-2.84 3.82z" transform="translate(-500.57 -39.62)" style="fill:#727057"/><path d="M549.5 374.35c-1.69.73-3.5 3.21-4.86-.4-.76-2-.59-3.42 1.79-4 9.41-2.24 19.28-3 27.68-8.61.25-.17 1.11.57 1.68.88.33.16.49.38.47.65s-.07.44-.15.44c-2.45 2.06-4.46 4.51-7.12 6.47-5.25 3.86-11 4.29-17 4.15z" transform="translate(-500.57 -39.62)" style="fill:#dcdbc7"/><path class="cr" d="M63.43 513.88c2.46 1.77 1.82 5.16 3.74 7.22-8.39-4.16-16.93-8.06-25.14-12.57-5.56-3-10.68-3-16 0-4.5 1.73-5.29 7-9.06 9.47h-1.31c-1.49-1.94-.55-3.12 1.26-4 5.5-11 15-11.33 25.25-9.26 6.7 3.92 12.92 9.02 21.26 9.14z"/><path d="m517.49 553.54-1.26 4c-1.89 0-3.14-1-2.63-2.87 2.62-9.5 1.5-19.68 5.27-29 1.13.27 2.82-1.07 2.69 1.91-.29 6.49-2.49 12.41-4.45 18.41-.88 2.75-1.11 5.12.38 7.55z" transform="translate(-500.57 -39.62)" style="fill:#697343"/><path d="M585.15 386.85c-5 5-7.51 12-13.29 16.38l-2.61-2.45c3.83-.32 5.11-3.52 7.06-6.07 3.53-4.63 5.81-10.15 10.22-14.14a2.55 2.55 0 0 1 1.81 1.65 5 5 0 0 1-3.19 4.63z" transform="translate(-500.57 -39.62)" style="fill:#5b6042"/><path d="M551.91 386c-1.67-.92-3.33-2.47-2-4.11s3.91-1.51 5.87 0z" transform="translate(-500.57 -39.62)" style="fill:#939677"/><path d="M524.11 576.14c2.07-.11 4.1.07 5 2.32s-1.14 3.18-2.56 4c-3.44 1.93-.68 5.21-1.77 8-3-.93-6-4-8.49.2-1.51-7.05 3.96-10.35 7.82-14.52z" transform="translate(-500.57 -39.62)" style="fill:#ae8c6e"/><path class="cw" d="M63.54 172.38c2.8-1.27 2.76-4.24 3.92-6.5 9.22-7.16 22.65-5 32 3.91 7.93 7.59 10.61 36.93 2.48 45.27-4.6 4.73-9.08 8.93-15.93 9.57-5.79-.46-12 1.55-17.13-2.86-1.46-1.06-3-2.08-3.34-4.05a2.24 2.24 0 0 1 1.81-2.17c5.74 1.21 10.7 6.25 17.24 3.48 10.49-3.2 17.74-13.75 16.91-24.38-.25-3.27-2.24-4.51-5-5.23-2.41-1-5.35-1-6.81-3.69a2.32 2.32 0 0 1 1.49-2.4 9.65 9.65 0 0 1 4.88-.45c2 .34 3.61.27 2.59-2.58a17.27 17.27 0 0 0-12.4-11.37c-14-.84-20.8 4.39-23.74 18.19a26.27 26.27 0 0 1-.39 2.94c-2 6.1 1 11.83 1.29 17.75-.11 1.36-.43 2.61-1.76 3.32-2.59-.11-2.81-3.09-4.79-3.95a7.43 7.43 0 0 1-2.13-1.8c-1.33-2.06-1.6-4.52-2.57-6.71-.44-1-1.11-2.06-2.43-1.66a2.55 2.55 0 0 0-1.57 2.62c-.13 2.51 1.28 4.59 1.95 6.88 1.62 5.58 5.85 10.38 5 16.7a2.42 2.42 0 0 1-1.33 1.26c-3.13-6.77-6.59-13.41-9.28-20.35-2.19-5.63-1.76-11 5.13-13.49 2.91-.94 3.06-3 2.85-5.71-.51-6.56-2.08-13.06-1.29-19.7 1.81-2.51 1.61-5.37 1.61-8.26 0-14.37.12-28.73.19-43.1 4.27 1.28 2.86 4.95 3 7.69.44 13.8-.46 27.62.53 41.41-1.81 7.1 1.71 13.93 1.68 21.08-.35-4.81 1.81-8.6 5.34-11.66z"/><path class="cx" d="m87.09 342.38-1.13-1.39c2.27-5.34-3.64-6.06-5.2-9.23l-5.22-8a1.77 1.77 0 0 0-.32-1.09c-.82-2.44-1.31-5.26-5-4.2-7.23-16.47-15.59-32.51-19.74-50.2-.5-2.13-1.54-4.53-1-6.45 1.56-5.63.13-11.23.32-16.81s2.22-10.63 4.23-15.63a4.65 4.65 0 0 1 2.28 3.16 60.09 60.09 0 0 0-.63 16.13 11.47 11.47 0 0 1-1.34 6.31c-.49 1-2.92 2.47.48 2.89 2 14.13 9.38 26.72 11.73 40.76a5.1 5.1 0 0 0 1.25 3c7.9 6.66 9.91 17.06 15.88 24.91 6 5.05 9.56 12.63 16.88 16.32a12.32 12.32 0 0 1 2.26 1.6c3.73 4.51 8.66 6.22 14.36 6.18a9.48 9.48 0 0 1 1.78.72 49.27 49.27 0 0 0 10.25 4.42c3.6 1.08 6.49 3 5.2 7.59a1.07 1.07 0 0 1-1.67.34c-3.27.59-6.16.9-8.22-2.88a9 9 0 0 0-7.24-4.21c-6.43-.28-11.87-3.89-18.09-4.58-5.03-2-6.07-8.97-12.1-9.66z"/><path d="M555.94 204c-2.05-2-1.24-4.59-1.26-6.93-.12-12.38-.09-24.77-.19-37.15 0-2.14.73-4.46-1-6.36.33-23.87 3.11-47.19 15.47-68.34L570.7 87c-6.14 13.94-11.72 28-12.23 43.55-1.91 21.56 0 43.14-.5 64.71-.06 3.04.54 6.25-2.03 8.74z" transform="translate(-500.57 -39.62)" style="fill:#6f563a"/><path class="cw" d="M55.43 232.18c-1.13-.62-1.25-1.75-1.43-2.85l-.3-4.82.34-.3c1.45-1.65 1.43-3.63 1.21-5.65.23-2.63-1.21-6.16 3.46-6.36a5.57 5.57 0 0 1 2.36 4.53c.5 11.21 2.63 22.27 2.91 33.49-.15.87.14-.22 0 .64-.38 1.83 0 4.57-2.23 4.85-2.83.36-2.45-2.85-3.42-4.55-.63-6.37-2.24-12.6-2.9-18.98z"/><path d="M551.71 204.88c2.61 7.71 3 15.69 3 23.74 0 5-3.73-.77-4.54 1.67-5.2-6.24-1.79-13-1.06-19.54a8.67 8.67 0 0 1 2.6-5.87z" transform="translate(-500.57 -39.62)" style="fill:#874c30"/><path d="M801.82 561.51H807a29.14 29.14 0 0 0-4.23 12.15 29.84 29.84 0 0 1-5.47 15.63c-2.42 2.38-5.18 4.5-6.17 8 .76 6.78 5.72 10.29 12.17 8.62 2.56-.66 4.73-2.41 7.44-2.62 2.1.13 3.36 1.5 4.49 3.06a3.09 3.09 0 0 1 .33 1.77c-1.13 2.27-3.51 3.15-5.25 4.75a29.45 29.45 0 0 1-3.49 2.72c-4.68 1.29-10.12 1-13 6.15-1.83 5.2 1.29 7.81 5.28 9.72a15.28 15.28 0 0 0 7 1.43c.91-.08 1.82-.19 2.74-.2a4.37 4.37 0 0 1 1.77.52 7.52 7.52 0 0 1 3.26 5.42c-.22 3.63 2.32 5.75 4.45 8.09a2.29 2.29 0 0 1-.5 2.53l-.13.1c-4.25.22-6.94-1.14-8.17-5.8-1-3.79-3.46-6.12-8.41-6.55s-10.55-2.76-12.13-8.62c-1.44-5.36-1-10.59 4.83-13.69 1.89-1 3.41-2 .69-4.3-9.69-8.11-9.91-12.92-.91-22.53 3.29-3.51 6.15-6.89 5.58-12.11-.27-2.54-.51-3.21-3.58-2.22a140.53 140.53 0 0 1-35.41 6.61c-2.07.11-4.48.83-6.14-1.36 1.88-2.16 4.36-2.73 7.09-3 11.9-1.27 23.43-4.31 34.87-7.85a103 103 0 0 1-32.62 3.41c-4.88-.24-5.51 5.58-9.64 6.18-7.17 7.83-6.67 16.44-2.53 25.39a5.61 5.61 0 0 0 1.83 2.55c15.31 8.5 18.9 22.49 18.19 38.52-1.83 0-2.61-1.11-2.72-2.82-1.64-1.53-1.44-3.58-1.52-5.52-.38-10.14-5.45-17.78-12.76-24.26-1.55-1.38-3.22-2.49-5.33-1.5-3.57 1.68-5.72 1.12-4.77-3.26.61-2.84-2.26-2-2.88-3.4-1.31-3.81-3.19-7.14-6.7-9.47-1.77-1.17-3.59-2.66-3.22-5.3 1.15-1.93 2.75.16 4.09-.47 1.66-.77 2.91-2.29.81-3.09-4.53-1.74-5.9-6.82-10.12-8.67-.26-3 2.85-3.56 4-5.58 8.61-3.75 16.87-7.34 27-6.26a94.18 94.18 0 0 0 35.36-3c3.24-.99 6.29-2.53 9.35.13z" transform="translate(-500.57 -39.62)" style="fill:#442a08"/><path d="M741.71 602.71c2.13 2.37 1.49-3.63 3.49-1.19s0 5.47.2 9.12c4-5.35 7-3.55 10.57-.15 8.85 8.4 14 18.11 12.56 30.62a21 21 0 0 1-15.7 12c-.46-1.9 3.24-2.45 1.29-4.85-4.39 2.6-9.06 3.67-13.5-.23a4.06 4.06 0 0 1 2-1.66c9.46-4.27 9.9-5.08 8.1-15.29a8.09 8.09 0 0 1-.13-3.25c2-9.05 1.09-10.36-8.24-12.3a3 3 0 0 1-1.69-.91c-1.83-6.38-4-7.55-8.79-4.79-7.9 4.54-9.07 4.06-9.73-4.83-.17-2.34-1.37-3.52-2.69-4.93 8.1-5.07 15.49-3.82 22.26 2.64z" transform="translate(-500.57 -39.62)" style="fill:#915e12"/><path d="M740.63 614.65c6.93-1.52 12.33 1.5 13.92 7.79.11.42.55 1.11.45 1.19-5.61 4.42-.7 10-1.53 14.9-1.28 7.56-6.67 8.93-12.85 9.53-4.12-3.56-7.85-7.36-7.83-13.36 3.59-1.57 3.53 1.76 4.67 3.34 0 1 1.21-.35.45.09-.2.12-.37-.06-.32-.53.65-5.85-1.09-11.61-.59-17.45z" transform="translate(-500.57 -39.62)" style="fill:#bb7f23"/><path d="M737 620.15c2.74 6.68 3.67 13.37.81 20.32-3.54-1-1.09-5.87-5-5.77-1.43-5.33 2-9.7 2.87-14.57z" transform="translate(-500.57 -39.62)" style="fill:#ce9546"/><path d="M753.76 577.47c2.66-7.66 8.5-8.72 15.62-8 10.88 1.06 21.19-2.71 32.27-5-1.33 4.82-4.86 5.44-8.15 6.39-12.93 3.72-26.14 6-39.44 7.85a7.2 7.2 0 0 0-.3-1.24z" transform="translate(-500.57 -39.62)" style="fill:#99501c"/><path d="m791.44 719.42-2.7-2.13c2.32-4.6 1-9.33-.23-15.06 6.87 5.66 2.99 11.69 2.93 17.19z" transform="translate(-500.57 -39.62)" style="fill:#8e5936"/><path d="M771.54 718.57c-.46-.9-.93-1.79-1.4-2.68.08-3.62-.55-7.34 2.06-11.46.8 5.3 1.68 9.75-.66 14.14z" transform="translate(-500.57 -39.62)" style="fill:#804828"/><path d="M748.62 706.71c-.4-.17-1-.23-1.18-.54-.94-1.59.57-1 1.1-1.06 3.16-.09 6.3 2.33 9.49.06 2.44.26 2.83 1.43.56 2.35-3.32 1.36-6.72.48-9.97-.81z" transform="translate(-500.57 -39.62)" style="fill:#78411f"/><path d="M775.42 729.38 782 729c7.33-.54 14.26-4.12 21.87-2.71 2 .39 4.24.06 7.08.06-6.27 6.6-24.79 9.87-35.23 6.64 2.27-2.26 5.22-.61 7.58-1.83-2.44-1.93-5.68.35-7.88-1.78z" transform="translate(-500.57 -39.62)" style="fill:#c0910c"/><path class="v" d="M149.65 628.12c0-.22 0-.58-.05-.63-6-3-8.67-10.63-16.5-11.32-7.67-.67-10.61-4.37-11.18-12.8-.21-3.06 0-6.14-.09-9.22 0-3.33-1.81-2.87-3.86-1.72-.63-4.33.88-8.21 2.58-12a89.4 89.4 0 0 0 7.33-5.37c1.58-.92 2.3-2.55 3.25-4 2.32-3.51 5-4.64 8.54-1.56 1.12 2.63 4 4.81 2.16 8.21.55 8.9 3.62 12 12.05 12 10.5 0 10.64 0 11.82 10.38.76 6.61 5.57 11.77 5.67 18.83.06 4.44-1.09 7-4.34 9.31a23.56 23.56 0 0 1-17.38-.11z"/><path class="dj" d="M128.49 576.38c-2.5 1.62-4 5.22-7.94 4 0-1.37 0-2.73.07-4.1 3.33-.51 3.16-2.6 3-5.36-.4-5.67-3.85-10.88-2.47-17.14-1.46 4.64 1 8.44 1.45 12.47.33 3.1 2.89 6.92-2 9 .86-4.57-2.89-8-2.94-12.57-.08-7.21.65-13.78 5.48-19.42a6.31 6.31 0 0 1 3.14-3.57 5.79 5.79 0 0 1 4.75.11c2.56 3.19 7 4 9.45 7.31 4 7.6 5.54 16.24 10.93 23.29 2.27 3 1.91 7.24-.39 10.57-1.2 1.74-3.13 3.22-3.91-.55l.12-.92c1.87-3.09.88-5.84-.86-8.61-3.52-5.57-6.12-11.66-9.62-17-.85 4.57 3.93 8.21 2.86 13.07a2.7 2.7 0 0 1-1.56 1c-3.38-.33-4.76-2.72-5.76-5.56-.87-2.44-1.58-5-3.83-7.7a17 17 0 0 0 .42 11.82c1.35 3.27 2.02 6.65-.39 9.86z"/><path class="dk" d="M140.49 547.08c-3.45-1.66-8.25-1.43-9.26-6.55 6.54-1.4 13.18-.74 19.75-.6 24.17.51 48.08-1 71.49-7.6 2.28-.64 4.72-1.46 7 .23.32 2.9-3 2.21-3.9 4-11.69 3.89-23.87 5.18-36 6.6-15.32 1.8-30.68 3.08-46.13 2.74-1.01-.03-2.01.76-2.95 1.18z"/><path d="M741.71 602.71c-.58.28-1.58.91-1.68.79-5.91-7.12-13.4-4.4-20.61-3.4-2.77-7-1.55-7.8 10-6.2-3.36-3.35-3.61-5.55 1.93-5.5 1.82 3.08 5.14 4.47 7.59 6.83 2.06 2 3.45 4.4 2.77 7.48z" transform="translate(-500.57 -39.62)" style="fill:#a67435"/><path class="e" d="m149.65 628.12 17.38.1a2.77 2.77 0 0 1 2.68 1.41c-10 2.61-20.21 1.33-30.34 1.13a24.84 24.84 0 0 0-10.56-2.71 10.21 10.21 0 0 1-8.14-3.94c2.61-2.73 4.94.1 7.1.71 7.19 2.03 14.35 3.78 21.88 3.3z"/><path class="dj" d="M141.83 577.7c-.09-2.91-3.42-4.71-2.72-7.9a1.84 1.84 0 0 1 0-2.63l.35-.28c5.67 2.62 8.34 7 7.84 13.3l-.16.2z"/><path d="M598.61 682.55c-1.37-.25-3 .29-4-1.14 4.5-4 10.29-3.73 15.69-4.72 9.21-.17 18.11 1.08 26.3 5.63a39.59 39.59 0 0 1 9.37 9.3c1.57 2.27 3.43 4.93-2.22 5.43-3.11.28-1 5.57-.66 6.15 3.27 5.31 3.49 5.18.9 10.94-2.71-2.39-1.91-5.93-2.78-8.9-1-3.56-2 .13-2.87-.24-2.45-3.5-2.25-7.82-3.48-11.7-1.3-4.11-3.37-6.94-7.65-7.93a15.51 15.51 0 0 1-2-.65c-7.89-2.35-16-2.53-24.11-2.27z" transform="translate(-500.57 -39.62)" style="fill:#6d3b13"/><path d="m604 707.61-3 1.3c-5.31-10.75-3.44-17.67 6.82-25.13 1.42-1 2.4-.55 3 1-.25 1.68-1.52 2.58-2.73 3.5-4.74 3.6-6.37 8.13-4.22 13.83.41 1.8 1.47 3.63.13 5.5z" transform="translate(-500.57 -39.62)" style="fill:#6e3719"/><path class="do" d="M110.04 645.58c-.5-1.33-1.68-1.3-2.79-1.42-1.89-2.17-4.46-.92-6.69-1.33 8.63-1.55 17.23-2.43 25.62 1.22-4 3.39-9.23-.87-13.26 2.24a3.31 3.31 0 0 1-2.88-.71z"/><path class="do" d="m103.43 667.99-1.56-5.14c-.72-7.51 4.6-10 10.19-12.32 4.32-1 7.78 3.19 12.16 2 .85-.22-.2.07.6-.27.25-.11-.11-.76-.65-.95a3.56 3.56 0 0 1-1.45-2.84c.58-2.35 3-2.73 4.45-4.12 7.47 2.44 11.11 9.68 10.57 21-8.06 6.89-25.19 8.19-34.31 2.64z"/><path d="M644 714.14c3-7.87-4.06-13.94-4.17-21.32 3.07-.27 3.35 3.65 6.57 3.41-1-5.86-6.49-8.1-9.41-12.21a14.83 14.83 0 0 1 9.33-5.39c7.26 4.17 14.88 21.43 13.28 29.64-.58 3-2.77 3.7-5 4.48-1.79.62-4-.26-5.5 1.53z" transform="translate(-500.57 -39.62)" style="fill:#bb9111"/><path d="M646.3 678.63c-2.77 2.38-5.63 4.63-9.33 5.39-8.34-4-17.22-5.69-26.41-5.92.77-4.77 6.05-2.31 8.08-5.06 4.18-1.95 8.61-.63 12.91-1 5.1 1.81 10.77 2.29 14.75 6.59z" transform="translate(-500.57 -39.62)" style="fill:#e2a91d"/><path d="M618.64 673c-.92 4.53-6.14 2.17-8.08 5.06a80.56 80.56 0 0 0-16 3.31l-6.81 1.17c8.13-5.42 16.7-5.8 24.21-9.06z" transform="translate(-500.57 -39.62)" style="fill:#d8b264"/><path d="M809.47 333.19c-21.83-5.29-38.88 4.47-54.81 17.55-3.9 3.2-7.52 6.72-11.27 10.1-.79 1-1.44 2.1-2.81 2.36-9.49 6.86-18.38 14.54-28.7 20.24-1.68.93-3 2.55-4.48 3.85-1.27.4-1.67-.4-1.94-1.39a7.26 7.26 0 0 1 3.07-5.73 7.67 7.67 0 0 1 4.52-1c16-9.15 29.15-21.89 43.26-33.44 16.45-13.46 34.43-21.3 56.12-14.12-.59 1.28-1.84 1.3-2.96 1.58z" transform="translate(-500.57 -39.62)" style="fill:#3c3617"/><path d="M713.05 379.17c-.94 1.63-2.55 1.61-4.13 1.66-2-2.66 1-4.41 1.22-6.67a53.25 53.25 0 0 0 3.65-20.52c-.06-1.71 0-4.05 1.87-4.51 2.5-.6 2.75 2.09 3.65 3.66.8 1.94 1 4.25 3.68 5.48.35-3.38 0-6.59.13-9.77a15.58 15.58 0 0 1 2.22-7.39c3.95-1.95 9-2.67 9-8.85 0-1.3 1.24-2.8 2.69-1.9 3.12 2 5.91-.44 8.84-.21l1.44.08c.83.73 2.22 1.16 1.49 2.74-7.09 6.07-14.26 12-21.24 18.24-2.31 2.05-1.22 4.77-.55 7.39.44 1.72 2.17 3.8.08 5.42-1.57 1.21-3.42.34-4.94-.55-3.13-1.84-4.26-.2-5 2.57-1.34 4.4-2.75 8.76-4.1 13.13z" transform="translate(-500.57 -39.62)" style="fill:#61250e"/><path d="m748.77 333-1.49-2.74 1.67-.06c5.39-4.73 10.28-10.29 16.3-14 8.87-5.46 16.4-5.85 28.65-3.52a56.25 56.25 0 0 0-25.9 5.03c-5.4 2.5-7.09 8.76-12.64 10.92-2.42.93-4.42 2.87-6.59 4.37z" transform="translate(-500.57 -39.62)" style="fill:#685a34"/><path d="M769.61 327.13c7.2-5 14.26-10.11 23.45-10.17 1.54 0 3.6-.06 3.76 1.81.18 2-1.87 2-3.39 2.13-8.3.59-16.09 3.16-23.82 6.23z" transform="translate(-500.57 -39.62)" style="fill:#b6ab7f"/><path d="M760.83 291.46c9.81 1.64 19.39 4 28.82 8.43-2 1.51-3.56.95-5 .86-8.39-6-18.69-5.52-28.05-8.28 1.12-1.39 2.85-.47 4.23-1.01z" transform="translate(-500.57 -39.62)" style="fill:#a9a382"/><path d="M784.65 234.43c4 4.79 3.23 10.49 2.1 15.73-2.88 13.4-9.52 24.42-22.11 31-4.26 2.23-8.66 3-13.27 1.09-2-10.09-4.87-20.13-1.46-30.47A65.38 65.38 0 0 1 773.37 234c4.1-1.82 7.54.08 11.28.43z" transform="translate(-500.57 -39.62)" style="fill:#d1956e"/><path d="M745.84 330.15c-5.74 4.16-5.74 4.16-9.73 1.24-1.38 8.46-3 10-10 9.51-1.49-1.29-1.59-3-1.55-4.78.46-5.5 6.53-6.95 8.27-11.52 1.16-4.44 1.28-9.11 3.78-13.24 2.15-3.54-1-5.6-3-7.84 1.37-6.94-.07-14.6 5.39-20.45 1.33-2.62 5.65-3.53 4.23-7.84-.29-.87 1-2.34 2.66-2.1-.18 7.92 2.8 16 2.11 23.35-1 11.22 4.12 22.9-2.16 33.67z" transform="translate(-500.57 -39.62)" style="fill:#a93209"/><path class="av" d="M245.34 233.51c-2.4 3.17-1.92 7.76-5.19 10.5-3.87-.7-4.83-1.72-2.9-4.39 5-6.91 3-13.77.61-20.68-1.71-4.87-2-8.93 1.89-13.34 3.51-4 4.29-9.4 3.72-14.9-1.15-11 2-20.27 11.23-27.11 5.75-4.26 5.6-4.51.24-9.92 1.77-1.86 4.19-1 6.28-1.49 6.76 1.8 8.45-3.64 11.07-7.75 4.54 2.79.6 5.13-1 6.37-7.67 6.13-11.91 14.93-18 22.29-4.53 5.52-5.49 12.4-6.45 19.14-.4 2.86.09 5.87 3.84 6.66-7.34 10.66-5.47 22.78-5.34 34.62z"/><path d="m784.65 234.43-.9 3c-8-7.76-13.22 1.56-19.5 3.44-5.89 1.75-7.79 9.53-14.33 11 1.54-12 16.93-25.56 29.26-22.44 2.03 1.4 4.32 2.57 5.47 5z" transform="translate(-500.57 -39.62)" style="fill:#efb28c"/><path class="av" d="M253.43 195.02a6.08 6.08 0 0 1 .18-1.29c2.3-6.26 5.07-11.64 13.11-6.77-4.29 2.82-8.35 6.14-13.29 8.06z"/><path class="ea" d="M62.3 250.25q-2.05-19.06-4.12-38.13c-1.93-2.15-1.86-4.29 0-6.42l2.73 5c2.91 1.4 4.17 4 5.07 6.9l3.07 2.62a4.43 4.43 0 0 0 4.89 3.33c4.08-.26 8.2.53 12.25-.46 10.07-2.27 16.08-8.85 18.49-18.54 3.14-12.64 1.63-24.58-7.52-34.59-7.44-8.13-16.7-9.26-29.75-4.06 3.5-5.38 15.17-7.43 22.16-4.62 13.8 5.56 18.72 16 17.63 30.11-.47 5.95 1.33 9.86 7.9 10.22 1.52 9.41-.9 14.67-8.8 18.25-4.7 2.12-6.6 5.48-5.73 10.47.27 1.51.91 3 .3 4.51-3.14 2-5.3.53-5.47-2.52-.33-5.66-3.14-4.92-6.7-3.29-3.4.06-6.91-.6-10 1.47-3.78 1-7.91-4.51-10.85-.54-2.13 2.87 1 7 1.5 10.64.9 7.29 4 14.36 1.55 21.9-1.5 1.82-1.7 4.53-4 5.85-4.23-3.1-4-7.81-4.31-12.26-.05-1.97.39-3.94-.29-5.84zm68.69-13.09c-2 5.75-7.55 5.92-12.76 7.77a17.8 17.8 0 0 0 9.5 3.2c15 1.28 29.53-1.3 44.05-4.24a46.17 46.17 0 0 1 9.76-1.18c.06.37.13.75.19 1.12-8.35 6.1-18.33 7-28 8.61-16.8 2.83-33.38 1.34-49.7-3.29-2.63-.75-5.27-.21-7.89-.5-2.37-1.35-1.57-3.36.06-3.91 4.56-1.56 4.69-5.7 6.13-9.12 3.25-1 5.92 1.09 8.74 1.9 6.74 1.95 13.28-.38 19.92-.36z"/><path d="M644.78 227.61c6.74-22.08 30.45-32.52 52.76-23.2-.75 2.17-2.9-.37-3.9 1.85 12.82 9.08 17.46 21.74 13.59 37.42-1.65.3-2-1-2.5-2.06-.89-2.85-3.45-3.79-5.76-5-1.36-.89-2.71-1.79-2.69-3.68a2.7 2.7 0 0 1 1.91-2c5 .57 6.13-1.36 4.43-6.08-3.78-10.47-16.52-21.11-30.6-17.22A29.73 29.73 0 0 0 651.74 224a13 13 0 0 0-1.61 5.08 13.28 13.28 0 0 1-.48 1.88c-.69 1.84-.54 5.5-3 4.59-3.23-1.2-2.41-4.96-1.87-7.94z" transform="translate(-500.57 -39.62)" style="fill:#4d1d0c"/><path d="M555.94 204c-.06-15.06-.25-30.11-.13-45.16.08-9.47.26-19 2.66-28.23.29 1.1.34 2.33 1.54 3-.45 5.31.29 10.51-2 16-1.37 3.32 1.14 8.42 2.4 12.57.75 2.48 3 .62 4.54.63 1.67 2.66-.93 3.83-2 5.4-2.11 3-3.49 6-1.59 9.61-.78 7.11-2.38 14.21-.51 21.36.66 2.52-.37 4.38-1.94 6a6.56 6.56 0 0 0-1 8c1.78 2.86 4-.92 6.22-1-2 4.75-4 9.5-6.65 15.73-.59-9.08-1.06-16.51-1.54-23.91z" transform="translate(-500.57 -39.62)" style="fill:#e8ac8a"/><path d="M712.75 278.42c3.52 13 3 25.66-5 37-1.52 2.15-3.59 6.88-8.35 4.14a2.12 2.12 0 0 1-.21-1.8 16.38 16.38 0 0 1 2.27-3.17c8.55-11.24 7.06-21.33-4.4-29.69-4.41-3.83-10 .25-14.6-2.19l-.39-.34c.41-2.19 1.94-2.74 3.89-2.59 6.44.51 12.38-1.67 18.35-3.56 2-.63 3.12.2 3.44 1.86.55 2.85-2.84-.21-3 1.83-.72 2.69 2.49 3.17 2.52 4.4a2.3 2.3 0 0 1 .15-1.88c2.27-.74 3.77-2.43 5.33-4.01z" transform="translate(-500.57 -39.62)" style="fill:#e4ac89"/><path d="M717.84 181.56c1.76 1.87 3.59 3.68 5.25 5.64 3.07 3.64.56 3.68-2.3 3.41-17.12-7.28-34.71-6.75-52.48-3.11-1.72.35-3.41.8-5.14 1.1-.3.06-.7-.4-1-.63 11.12-17.97 34.66-20.69 55.67-6.41z" transform="translate(-500.57 -39.62)" style="fill:#673112"/><path d="M561.38 177.7c-4.5-.46-2.72-3.65-2.32-5.88.68-3.79 3.85-6.15 5.94-9.13 8.77-4.49 16.92-3.13 24.91 2.23a144.38 144.38 0 0 1 23.6 19.7c-3.75 1.71-5.54-.84-7.57-2-10.15-5.63-20.63-10.06-32.56-9.46-4.38.25-8.8.92-12 4.54z" transform="translate(-500.57 -39.62)" style="fill:#7b421e"/><path d="M706 240.85c.43.94.85 1.89 1.28 2.83-5.33 18-21.39 26-41 20.36-4.82-1.4-9.72-2.89-13.28-6.85-.47-2.35.92-3.06 2.88-3.28 4 .76 7 3.6 10.85 4.8 5.8 1.83 11.61 2.61 17.57.88 8.33-.69 13.53-5.57 17.23-12.65 1.13-2.21 1.22-5.33 4.47-6.09z" transform="translate(-500.57 -39.62)" style="fill:#593727"/><path d="M631.56 276.78c-9.82 3.86-19.47 3-29-1-1.19.3-1.65-.24-1.58-1.38-3.44-9.4-1.58-13.58 7.72-17.19 7.74-3 5.55-10.32 7.05-16 1.9 2.68 2.47 4.27 1.14 8.7s-1.69 7.44 4.69 7.69c-4.47 1.46-8.68.41-12.45 2.33-3.53 1.8-6.78 4-6.61 8.18.16 4 3.65 5.68 7.18 6.71a37.26 37.26 0 0 0 15 1.45c2.24-.27 4.69-1.39 6.86.51z" transform="translate(-500.57 -39.62)" style="fill:#693012"/><path d="M655.67 254.45a4.61 4.61 0 0 0-2.69 2.74c-6.3-3.09-4-10-6.21-14.85-2-4.34-5.71-9.28-2-14.73.38 2.35-.08 4.93 2.05 6.94 1.7-1.33-.32-4.39 2.3-5.24a5.91 5.91 0 0 1 1.59 4.78 27.36 27.36 0 0 0 4.11 15.46c.93 1.45 1.66 3.09.85 4.9z" transform="translate(-500.57 -39.62)" style="fill:#704e3b"/><path d="M707.45 282.39c.88 2.16 3 3.88 2.23 8-2.58-3.86-4.59-6.88-6.61-9.89l1.71-.62z" transform="translate(-500.57 -39.62)" style="fill:#aa714c"/><path d="m699.75 262.93 9-6.17c-2.23 5.34-2.23 5.34-9 6.17z" transform="translate(-500.57 -39.62)" style="fill:#a96b47"/><path class="el" d="M67.35 268.16c.35-2.09-.91-5 2.7-5.47 9.65.84 10.64 8.66 12.65 15.68.88 3.06 1.62 6.26 5.6 8.45-.08-4.38-2.21-8-.47-11.51a2.08 2.08 0 0 1 1.53-1 3.48 3.48 0 0 1 2.9 2.43c1.54 6.28 6.14 7.35 11.62 7.08 9.3 3.25 18.27 7.77 28.48 7.62h23.46c7.52-.36 14.73-2.44 22.06-3.89 6-1.17 7.17.6 5.26 6.93-.46 2.33-.92 4.65-1.37 7-4.09 5.93-16.35 9.55-22.08 6.26a14 14 0 0 0-6.84-2c-10.6-.35-21.23.9-31.8-1-2.18-.38-4.47.49-6.4 1.47-5.49 2.8-10.68 1.87-15.9-.65-13.61-6.56-25.3-15.08-30.86-30-.91-2.4-2.63-4.75-.54-7.4z"/><path class="bg" d="M67.35 268.16c2.35 10.46 8.73 18.59 15.37 26.56.89 1.07 1.76 2.73 3.57.63s2.61 0 3.38 1.23c3.46 5.45 9.09 7.43 14.77 9.27 1.44.46 3.43 1.15 4.5.55 11.11-6.28 22.86-1.42 34.26-2.16 4-.26 7.93-.21 11.89-.3 1.32 0 3.25-.66 3.87 0 8.76 9.06 15.35-.62 22.81-2.5.66-.06 1.72-.41 1.92-.14 4.58 6.29 8.34 1.69 12-1 11.27-8.17 19.86-18.73 26.91-30.65 1.13-1.92 1.17-4.11 5.35-3.91 3.54.17 4-6.45 5-10 .83-3.09 2-7.33-1-10.67-1.45-1.58 0-3 1.25-3.81 7.2-4.74 7-11.67 4.43-18.29-3.53-8.93-2.27-16.46 3.78-23.59 1.92-2.27 1.16-5.14.92-7.69-1.13-12.05 1.52-22.65 12.35-29.35 5.42-3.35-.88-5.86.29-8.66 3.27-.82 4.34 1.27 5.54 3.77 1.47 3.06-.8 4.13-2.5 5.18-10.43 6.5-14.3 16-13.87 28 .24 6.68 1 13.61-5.38 18.67-2.24 1.77-1.27 4.84-.3 7.43 3 7.94 5.65 15.86-.24 23.79-1.39 1.89-.47 3.33 2 3.52-6.3 5.28-4.4 13.31-6.67 19.94.45 2.54.29 5.34-2.07 6.48-8.06 3.89-10.9 12.42-16.67 18.33-3.83 3.92-7.83 7.64-11.74 11.47-2.64 2.36-5.74 4.15-8.3 6.62s-5.5 3.42-8.55 2.47c-4.59-1.44-8.63-.19-12.89 1.11-6.42 1.95-12.55 1.75-19.4 0-9.5-2.41-19.65-2.7-29.62-2-3.09.23-4.76 2-5.46 4.92-.37 1.51-.39 3.07-.67 4.6-.37 2-.89 4.4-3.24 4.38-2.62 0-2.78-2.77-2.53-4.53.8-5.74-2.56-5.94-7-7.47-10.23-3.5-20.75-6.79-28.27-15.83a92 92 0 0 1-19.25-38.81c0-1.91.08-3.78 1.8-5.07 1.31 1 1 2.68 2 5.59.36-3 .54-4.52.72-6 2.15 5.82 1.85 12.35 4.94 17.92z"/><path d="M683.71 334.06c.8-5.14-.58-7.28-6.22-5.27a68.16 68.16 0 0 1-20.55 4c-3-1.65-6.54.54-9.5-1.36.74-3.21 3.5-2.92 5.73-3a74.74 74.74 0 0 0 19.76-3.43c2.12-.55 4.26-1 6.4-1.5 6-1.28 7.85 0 10 6.54-2.19-7.22 1.22-11.6 7.14-14.7 2.25-.35 2.84 1.06 3 2.88a5.18 5.18 0 0 1-.08 1.24c-4.85 2.12-7 5.32-5.34 10.89.86 2.89.82 6.33-3.1 7.65s-5.56-1.23-7.24-3.94z" transform="translate(-500.57 -39.62)" style="fill:#613f2d"/><path d="M817.84 649.22v-2.63c2.53-3.08.85-7.16 2.5-10.46.79 1 1.93 1.9 2.33 3 2.67 7.54 6.89 9.78 13.26 5.19 3.75-2.71 9-2.13 11.77-6.39.66-1 2.53-.88 3.67-.06s1 2.36.88 3.67c-.23 2-1.73 2.61-3.34 2.15-2.81-.81-4.58-.89-4.61 2.91s-4.26 1.23-4.78 2.26c-2.92 5.86-8.93 3-13.11 5.13-4.91 2.54-6.3-2.11-8.57-4.77z" transform="translate(-500.57 -39.62)" style="fill:#6d2113"/><path class="eo" d="M314.49 568.38c0-.37-.06-.73-.08-1.1l.53-.72c5.28-1.9 5.28-1.9 2-6.9 5.72-2.76 7.85-1.39 9.5 6.11-.44.87-.88 1.75-1.31 2.62-.7.78-2.11 1.71-2 2.31 1.53 7.13-3.56 14.15-.3 21.25l-3.12-1a4.37 4.37 0 0 1-.93-.89c-1.63-2.11-2.42-5.63-6.11-4.65s-2.34 4.53-2.76 7.11a2.26 2.26 0 0 1-.61 1.12l-2.55 1.36c-3.38-2.42-3.3-5.75-2.41-9.29.51-2.06 1.75-4 1.16-6.25a4.61 4.61 0 0 1 .82-3.75c.19-1.73.8-3.09 2.79-3.31.91.72 1 1.85 1.47 2.81 1.16 2.43 3.14 4 5.66 2.61 3-1.68 1.27-4-.05-6-.68-1.13-1.6-2.08-1.7-3.44z"/><path d="M850.05 631.91c-4.71 4.5-10.25 6.09-14.19 10.28-2.37 2.52-5.35 2.07-8 1.46-3.29-.75-2.14-4.37-3.09-6.64a2.55 2.55 0 0 1 2.3-3.37c7.65-.7 15.32-1.17 22.98-1.73z" transform="translate(-500.57 -39.62)" style="fill:#3c4119"/><path d="M809.9 633.21c-.34-2.54-2.37-4.93-.68-7.65 1.27-2 3.11-3.29 5.54-2.82 4.19.82 5.38 4 5.55 7.78l-2.69 3.93c-3 2.29-5.29 0-7.74-1.23z" transform="translate(-500.57 -39.62)" style="fill:#bf2e20"/><path d="M842.9 625.23c9.87-6.22 14.72-16.41 20.41-27.21.65 9.45-9.55 24-19 28.58z" transform="translate(-500.57 -39.62)" style="fill:#68361c"/><path d="M820.3 636.13c0 3.69 4.08 8.35-2.5 10.46-4.53-.78-5.95-3.64-5.27-7.9 1.07-2.28 3-2.88 5.29-2.69z" transform="translate(-500.57 -39.62)" style="fill:#a92f15"/><path d="M865.49 613.17c2.49-4.71 4.46-9.76 8.73-13.37-2.13 5.13-3.73 10.47-7.19 14.94l-1.54-1.57z" transform="translate(-500.57 -39.62)" style="fill:#995e37"/><path class="eo" d="m317.25 596.38-5.29 2.69c.15-2.32-2-3.54-2.65-5.46l7.74 1.22c.07.55.14 1.04.2 1.55z"/><path d="M811 603.87c-3.37 2.15-6.8 4.15-10.94 4.33-6.56.3-10.32-4.29-9-10.94 4.49 6.63 13.2 5.4 17.42-2.71a198.77 198.77 0 0 0 9.12-19.45c1.22-3.12 3.11-4 5.85-4.2s4.78.74 4.94 3.91c-1.82 3.42 3 5.39 1.89 8.64-3.65 3.16-7.3 6.3-8.76 11.18-.79 2.61-3.42 3.25-5.24 4.75s-2.82 3.79-5.28 4.49z" transform="translate(-500.57 -39.62)" style="fill:#d1966f"/><path d="M815 598.48c2.58-1.15 4.95-2.54 5.66-5.58 1.17-5 4.49-8.16 9-10.19a2 2 0 0 1 2.77 0c3.41 8.79.81 16.13-5.42 22.61-2.9-2.15-2.75-9.5-9.29-5.45a2.09 2.09 0 0 1-1.68.68c-.94-.35-1.64-.89-1.04-2.07z" transform="translate(-500.57 -39.62)" style="fill:#5d1809"/><path d="M832.44 582.76h-2.77c-.55-2.61-6.14-4.43-1.25-7.9 1.65 2.45 3.78 4.7 4.02 7.9z" transform="translate(-500.57 -39.62)" style="fill:#a66945"/><path class="r" d="m72.66 375.98 12.15 10.27c5.29 1.55 9.7 4.94 14.83 6.94 14.6 5.71 30 6.59 45.3 8.47 10.72 1.32 21.46 2.3 32.21.1a10.83 10.83 0 0 1 5.87.52l41.18-6.83a1.35 1.35 0 0 1-.82 2c.57.26.94-.23 1.4-.37 7-2 13.23-6.2 20.68-6.77 4.55 2.77 6.91-2.41 10.63-3.07 3.48-.62 4.82-1 5.54 3.33a59.67 59.67 0 0 0 5.92 18.35c2.63 5 4.1 10.59 8.47 14.61-1 3.43 1.87 4.07 3.89 5.32a32.24 32.24 0 0 0 8.07 8c2.11 3.71-.54 9 4 11.9l-5.31 10.63c-4 8.7-8.94 16.34-19.59 17.65-2.36-2.23-.35-3.92.78-5.63 1.3-2 3-3.73 3.05-7.09-2.87 2.21-5 4.58-7.44 6.41-1.5 1.1-2.89 3.84-5.34 1.24-.41-3.4 2.07-5.25 4.1-7.15 5.49-5.13 9.68-11.39 16.36-17.48-11.67-.68-11.7-7.54-10.76-15.52.71-5.93-3.37-9.52-9.54-8.78-7.07.84-14.71-.44-20.74 5-1.1 1-2.9 1-4.45 1-8.17.16-16.35.42-24.5-.14-3.18-.21-6.72-.33-8.84-3.55a4.2 4.2 0 0 1 2.35-4.92c2.61.4 3.13-1.95 4.39-3.34 1.78-1.94 3.14-4.35 5.71-5.43 1.67-.7 3.44-1.11 5 .34 1.34 1.29 1.07 2.75.27 4.24-1.12 2.1-1.87 4.54 1 5.52 2.44.83 3.19-1.8 4.12-3.45s2.21-3.3 3.31-4.95c3.59-5.38 2.76-7.52-3.34-9.2-1.91-.53-3.67-1.52-5.55-2.16a104.46 104.46 0 0 0-26.09 3.76c-5.17 1.44-8.54 6.07-10.88 11 .11 3.24 2.95 2.8 4.81 3.38 4.38 1.36 9 2 13.31 3.58a2.75 2.75 0 0 1 1.2 1.4 6.19 6.19 0 0 1-6 3.9c-9.38-5.42-18.85-6.14-28.43-.54a102.45 102.45 0 0 0-30.51 17.08c-8.2 5.58-15.05 12.77-22.68 19a156.26 156.26 0 0 1-15.86 11.55c-2.41-.3-3-1.62-1.93-3.69a8.4 8.4 0 0 1 2.71-2.88c14.15-9.88 25.12-23.55 39.7-33a201.75 201.75 0 0 1 18.33-10.31c-12.55-1.06-24.06-.22-35.36-2.28-3-.55-6.33-.62-9-2.08-7.5-4.09-15.25-3.65-23.23-2.29a23.63 23.63 0 0 1-11.18-.37c-1.88-.6-4-1.51-3.5-4.05.46-2.19 2.6-2.3 4.33-2.08 4.91.63 9.71-.4 14.54-.74 6.47-.46 7.91-3.74 4.64-9.42a21.91 21.91 0 0 0-7.83-7.94c-5.55-3.35-10-8-14.4-12.66-1.35-1.41-2.88-2.86-2.32-5.18z"/><path d="M683.59 441.9a50.73 50.73 0 0 1-20.08 2.5c-20.83-1.32-41.73-2.47-61.81-9-6.11-2-11.82-4.76-16.32-9.54 2.15-.16 1.7-1 .88-2.45-1.57-2.76-4.38-4.9-4.52-8.55 2.68-1.31 3.41 2.46 6.4 1.91-4.78-9.67-5.08-19.71-3-29.92l2.51-4.89c2.28-2.31 3.82-.6 5.39 1a37.81 37.81 0 0 1 6.71 8.69c5.27 4.68 9.23 11 16.77 12.84 3.2.8 6.81 2.54 8.17 5.35 5.5 11.35 15.41 13.15 26 11.95 16.59-1.89 24.91 8.58 32.9 20.11z" transform="translate(-500.57 -39.62)" style="fill:#b5bd9c"/><path d="M633.31 403.31h1.12c10.62 3.26 11.88 2.61 16.94-9.11 1.24-2.89 2.57-5.08 5.47-1.62 1.8 2.14 3.36 1.06 5.21.18 5.72-2.71 7.29-8.55 10.27-13.34a3.35 3.35 0 0 1 1.73-1c4.37.16 4.73 2.89 2.82 5.64-2.85 4.12-3.25 8.81-4.23 13.4a20.69 20.69 0 0 1-5.13 6c-1.65-.88-.64-4.44-3.82-3.78a1.49 1.49 0 0 1 .4-2.22c-.72-.14-1 .5-1.24.89-2.65 3.5-6.19 6.2-8.76 9.78-1.64 2.27-3.57 4.05-6.55 1.88a23.7 23.7 0 0 0-3.07.92c-8 3.55-8.75 3.17-10.47-5.16-.18-.77-.46-1.63-.69-2.46z" transform="translate(-500.57 -39.62)" style="fill:#803018"/><path d="M166.94 363.88c-.38-3.06 1.5-4.45 4-5.4 2.29 1.59 1.63 4.77 3.6 6.65 2-.48 2.53-2.72 4.15-3.67 1.2-.95 2.47-2.7 3.75-2.48 8.79 1.46 12.6-5.68 18-10 1.47-1.18 2.72-3 5-2.56l1.32 1.26c-4 6.26-10.56 9.86-15.69 14.95-.56.56-1.85 1.24-2.22 1-8.16-5.44-9.1 3.31-11.45 6.66-3.33 4.72-4.55 4.36-6.75-.29a60.59 60.59 0 0 0-3.71-6.12zm-19.97 6.55c3.25.3 5-1.59 6.89-4 3.64-4.67 7.2-9.61 13.35-11.72.81 3.9-3.44 3.11-4.09 5.39-3.45 4.69-8.82 7.77-11.14 13.43-.37.89-1 2.29-2.33 1.76-2.07-.84-2.31-2.91-2.68-4.86z" style="fill:#603016"/><path class="fa" d="M245.43 390.38c-7.88 3.21-15.43 7.41-24.28 8.55 0-2.64 2.85-1.65 3-3.43l19.93-6.46z"/><path d="M752.51 412.84c-1.33.38-1 1.59-1.25 2.52-4-8.06-4.46-17.15-7.56-25.49 4.11 7.24 7.63 14.67 8.81 22.97z" transform="translate(-500.57 -39.62)" style="fill:#606746"/><path d="M751.19 383.6c1.41 4.73 2.77 9.47 4.24 14.19.69 2.23 1.25 4.65 3.91 5.53.15 1.87 4.17.28 2.91 2.77-1.14 2.25-3.34 1.34-5 0-2.52-2.09-3-5.17-3.88-8.08Q751.66 392 750 386.1c-.81-1.41-1.12-2.59 1.19-2.5z" transform="translate(-500.57 -39.62)" style="fill:#4e5536"/><path d="M751.19 383.6c-1.07.51-1.07 1.54-1.22 2.5-4.65-7-5.1-15.74-9.39-22.9l2.81-2.36c.4 8.34 6.05 14.88 7.8 22.76z" transform="translate(-500.57 -39.62)" style="fill:#6d7550"/><path d="M760.36 409.76c.06 1.45.11 2.89.16 4.34l-4.68.9c.06-3.26 2.01-4.47 4.52-5.24z" transform="translate(-500.57 -39.62)" style="fill:#5c5f3f"/><path d="M787.11 470a53.36 53.36 0 0 1-17.28-28c1.76-1.57 2.28.18 2.74 1.2 3.65 7.94 10 14.1 14.1 21.75.82 1.51 2.92 3.17.44 5.05z" transform="translate(-500.57 -39.62)" style="fill:#667542"/><path d="m798 480.29-.3-2.39c.42-4.71-3.27-10.44 4.29-14.25-.84 6.16.29 11.91-3.99 16.64z" transform="translate(-500.57 -39.62)" style="fill:#65753e"/><path class="fa" d="m193.43 428.78 5.52-3.69a1 1 0 0 1 1.25-.5c3.31 2.59 7.21 2.93 11.18 2.94 6.64 0 13.29-.08 19.93 0a11.93 11.93 0 0 0 8.49-2.73c7.15-5.88 16-3.19 23.91-3 4.68.11 6.9 5.36 6 10.7-.39 2.34-1 4.61-.57 7.16.54 3.42 1.75 5.28 5.44 5.17 2.13-.07 4.89-.76 6 1.73 1.33 3.05-2.33 3.09-3.51 4.68-5.65 7.54-13.75 13-18.27 21.47.82 2.8-1.52 3.84-3 5.31-9.45 9.33-19.51 17.86-31.51 23.81a8.09 8.09 0 0 0-3.3 2.44c7.13-3.23 14.06-6 20.67-9.46s12.6-7.15 17.33-13c1.91-2.37 3.7-5.73 7.79-5.13 9.16-2.86 14.14-10.54 20-17.28 6.58.92 4.81-7.22 9.8-8.73 1.47 4.55-2.54 8.6-1.58 12.95a2 2 0 0 0 2.18-1.53c.49-1.28-.26-3.61 2.11-3.36 1.66.18 2.43 2 2.72 3.49 2.15 10.75 5.7 21.88 4 32.43a160.9 160.9 0 0 0-2 22.88c0 2.13-1.72 2.94-2.69 4.33-10.29 1.55-20.25 4.75-30.91 4.57-6-.11-12.11 2-18.06-.8a2.8 2.8 0 0 0-1.89-.14c-7 2.29-14.31 3.61-20.92 7-30.42 9.61-61.76 10-93.2 9.23-1.69 0-3.36-.82-5-1.26h-5.4c-7.73 2.16-14.72-.1-21.5-3.61 6.76-4.08 14.17-1.88 21.11-1.48 20.49 1.16 40-2 58.49-10.86a6.68 6.68 0 0 0 3.66-3.51c-3.22-.57-6.06.71-8.85 1.24-16 3-31.64.65-47.33-2.33-9.8-1.86-19.2-5.09-28.81-7.57-3.62-.93-7.25-2.33-8.36-6.66a8.67 8.67 0 0 1 1.34-5.11c3.2-3.37 5.41-8 10.85-8.51 2.14 1.22 1.5 2.81.68 4.52-2.46 5.1-.56 10 5 10.89 16.26 2.66 32.52 3.32 48.25-3a56.12 56.12 0 0 1 11.43-3.56c-4.2-3.7-1.62-6.38.84-9 2.13-2.3 4.26-4.68 4.41-7.94.31-6.49 4-11 8.22-15.37 6.78-6.94 7.21-13 1.8-21.3-1.43-2.18-3.56-4-3.6-6.93.23-2 1.62-3.47 2.22-5.29 1.81-2.87 3.42-6.16 7.64-6.3z"/><path class="fa" d="M291.98 448.8c-4.62-.64-6.42-2.81-4.41-7.48.55-1.29.29-2.94.41-4.42 3.67 3.18 8.66 5.92 4 11.9zm-12.07-19.93c-2-.38-4.55 1.05-5.79-1.11-.88-1.54.55-3.1 1.9-4.21z"/><path class="dk" d="M104.6 536.53a87.78 87.78 0 0 0 21.23 4c0 1.81-1 2.54-2.68 2.7-12.65-1.69-25.36-3.15-36.79-9.58a17.92 17.92 0 0 0-3-1.07l-5.32-4c-.45-2.06 1.06-2.12 2.4-2.37a9.25 9.25 0 0 1 3.82 1.24c4.77 2 9.6 3.8 14.54 5.33 2.21.72 4.5 1.5 5.8 3.75z"/><path class="cr" d="M80.59 527.26c-1.06.07-2.06.24-2.59 1.34l-5.36-2.6c-3.48 1.51-2.29 4.66-2.62 7.31-.51 4.16 1.51 8.56-1.23 12.49a54.48 54.48 0 0 1 .71-23.7c1.44-1.05 2.94 4.88 4.35 0l.65-.58a2.93 2.93 0 0 1 1.67.28c1.54 1.74 4.86 2.1 4.42 5.46z"/><path d="M571.65 629.64c.13 5.74 1.3 10.22 4.27 14.47-7.51-2.37-7.75-3.11-4.27-14.47z" transform="translate(-500.57 -39.62)" style="fill:#657443"/><path d="M621.18 614.84c2.79-4.59.38-9-.75-13.31-1.35-5.14-.12-9.26 3.84-13-3.79 8 .92 15.19 1.72 22.72.36 3.33 1.19 7.67-4.8 4.62.01-.32 0-.67-.01-1.03z" transform="translate(-500.57 -39.62)" style="fill:#9f663a"/><path d="M571.92 416.76c5.65 6.15 11 12.6 18.52 16.7 4.6 2.49 7.28 7 9.54 11.55 2 4.12-1.26 8.78-6.51 8.73-6.49-.06-12.84 2.16-19.5 1.37 12.94 5.93 27.2-1.8 40.75 5.09 12.62 6.42 28.09 1.9 42.26 4.49a5.78 5.78 0 0 1-3.66 4.21c-17.15 7.75-30.81 20.06-44 33.12-3.88 3.85-8.65 6.8-13 10.12-2.1 1.59-1.5 2.39.72 2.82 1.22 1.28.75 2.31-.47 3.23-10.18 7.95-19 16.74-21.86 30.17-.66 3.19.76 7.8-4.1 9.32a4.44 4.44 0 0 1-2.69-4c-1.87-10.38-4.7-20.76.76-31 1.26-2.37.14-4.81-1.17-6.9-9.71-15.4-6.57-32.36-5.91-49 .08-2.12 1.47-4.19-.13-6.27a2.67 2.67 0 0 1-1.37-2.71c1.82-1.88 2.72-4.45 4.76-6.18 1-.87 1.89-2.19 1.35-3.47-3.16-7.41-1-14.48 1.1-21.6a2.65 2.65 0 0 0-.5-1.85 8.89 8.89 0 0 1 5.11-7.94z" transform="translate(-500.57 -39.62)" style="fill:#485b1e"/><path d="M60.87 420.91c1.7 1 2.64 2.24 2.22 4.33-2.1 10.53-.74 21.17-.95 31.76-.13 6.61 3.11 12.29 6.26 17.89 2.07 3.69 3.51 6.77.54 11.41a18.66 18.66 0 0 0-2 15.26c1.15 4 3 8.27.38 12.51-4.65-2.86-5-8.11-6.5-12.51-8.52-25.7-9.18-51.53-.46-77.38a18.57 18.57 0 0 0 .51-3.27zm5.34-35.81c2 .1 3.06 1.48 2.07 3-2.65 4.19-1.94 8.88-2.6 13.37-.12.84-.7 2.13-.35 2.47 7.8 7.42-3.14 9.69-4 14.7l-1.86-.47c-3.78-12.23 2.96-22.34 6.74-33.07z" style="fill:#6a7e3c"/><path class="cr" d="M70.01 518.06c3.13-6.66 3-14.21 6.49-20.94 4.18-8.06 12-12.62 16.86-19.86.41-.63 1.57.17 2.06 1 .34 3.57-2.31 5.42-4.32 7.7-6.2 7.05-13.49 13.47-14.25 23.78-1.3 3.94-.08 8.43-2.67 12.07l-.33.28z"/><path d="M562.86 247.56c-1.26-5.95-4-11.8-1.37-18.05 6.57-6.36 20.6-8.37 29-4.15l6.76 2.38c5.92 6 1.87 12.53.3 18.47a19.88 19.88 0 0 1-12.21 13.72c-6.89 3.28-12-.22-17-4.4-3.5-1.53-4.85-4.48-5.48-7.97z" transform="translate(-500.57 -39.62)" style="fill:#fbf9f8"/><path d="M561.46 226.28c2.87-14.84 9.75-19.94 26.36-19.49 4.7 4.78 9.47 9.54 9.29 17l-5-.18c-1.42-.51-2.74.37-4.13.26-4.58.07-9.16 0-13.74 0-4.36.07-8.07 3.94-12.78 2.41z" transform="translate(-500.57 -39.62)" style="fill:#c7905a"/><path d="M585.36 259.93c10.06-8.48 14.74-19 11.91-32.19 5.26-.13 6.57 2.64 6.32 7.52-.71 13.86-6.97 22.57-18.23 24.67z" transform="translate(-500.57 -39.62)" style="fill:#c3c0bc"/><path d="M557.16 260.06c-.09 1.76-1.33 2.75-2.52 3.77.6-6.55-3.89-11.46-5.59-17.27-1.14-3.88-4-7.64-.66-11.74.88-1.06 2.18-1.89 3.46-1 3.67 2.61 3.15 7 4.07 10.69a4.64 4.64 0 0 1 .11.65c3.09 4.78-1.03 10.08 1.13 14.9z" transform="translate(-500.57 -39.62)" style="fill:#c59275"/><path d="M597.11 223.78q-4.65-8.49-9.29-17a20.29 20.29 0 0 1 13.35 14c.37 1.27 2 2.91.14 4.07-1.48.97-2.84-.49-4.2-1.07z" transform="translate(-500.57 -39.62)" style="fill:#9d724e"/><path d="M561.46 226.28c4-1.05 7.64-3.36 11.9-3.63a45 45 0 0 0 15.75.07l3 .88c-.54.59-1.09 1.17-1.64 1.76a51.69 51.69 0 0 0-29 4.15z" transform="translate(-500.57 -39.62)" style="fill:#664c35"/><path class="fr" d="M86.24 223.05c-5.92 2.28-11.87 1.82-17.64-.3-2.59-.95-2.51-2.25.5-2.57 5.13 4.42 11.4 2.08 17.14 2.87z"/><path class="cx" d="M56.59 220.44c-1.7-4.86-1.17-9.88-1.13-14.87l2.77.13v6.42c-2.63 2.38-.8 5.6-1.64 8.32z"/><path class="fr" d="m62.29 207.94 5.51 8-1.77 1.65c-2.56-1.66-3.92-4.21-5.07-6.9 1.24-.55.99-1.8 1.33-2.75z"/><path d="M560 295.74c3.82 15.7 11.56 29.3 22.14 41.37 1.44 1.64 2.84 3.74 5.27 3.64 3.91-.16 6.65 2 9.53 4 3.9 2.72 8.13 4.56 13 4 4.1-.46 5.48.86 4.61 5-.48 2.29-.08 4.76-.08 7.56 3.83-1.65 2.45-4.44 2.63-6.59.47-5.59 2.6-8.6 9-8.81 9.29-.3 19.33-.84 27.44 1.91 10.18 3.47 18.11 1 26.86-2 .41-.15 1-.57 1.21-.42 10.37 6.81 14.89-4.15 22-7.21a37.42 37.42 0 0 0 9-6.62c2.37-2.22 5-4 7.77-.38a5.93 5.93 0 0 1-1 5.77 6.79 6.79 0 0 1-1.37 1.36c-7.63 5.27-7.64 5.27-3.23 13.58 1.54 6.82-2.37 12.28-4.59 18.14-.54 1.43-1.56 2.95-3.37 2.58s-1.82-2.26-2.1-3.73c-.24-1.3-.16-2.65-.46-3.94-.62-2.61-1.36-5.87-4.34-5.92-3.41-.06-2.41 3.58-2.84 5.71-1.58 7.94-6.27 13.34-13.24 17.05-1.31.69-2.44 2.35-4.07 1.37s-1.32-2.64-1-4.2 1-2.93.37-4.71c-3.79-.34-4 3.51-6.13 5.07-.93 1.05-.47 3.41-2.7 3.19-1.88-.19-2.33-1.83-2.61-3.39-.57-3.27 0-6.6-.68-10-.44 4 .12 8.44-4.41 10.47-3.5 1.57-4.86-2.22-7.35-3.37-2.91 0-1.5 5.05-4.81 4.25-1.93-.46-2.63-2.18-2.62-4.23-.19 6.43-1 12.3-7.1 16.45-3.52 2.39-5.42 2.1-7.6-1-2.54-3.62-2.82-7.78-3-12-.21-3.84-1.35-7.11-6.29-6.56-1.24.14-2.86-.5-3.54 1s.48 2.5 1.23 3.57a50.69 50.69 0 0 0 3.8 4.6 8.46 8.46 0 0 1 .94 9.9c-1.64 2.65-5.07.15-7.61-.93-4.8-3.45-9.4-7.39-16-6.58l-1.41-1.32c.91-4.92-1.67-9.49-1.42-14.35 0-.36.27-1.47-.23-1.1-5.4 3.94-5-2.93-7.79-4.08-2.69.62-3.09 6.78-7.62 3.47-5-2.65-6.2-7.86-7.9-12.49-1.1-3-2.71-6-4.8-7.63-6.26-4.93-7.24-11.83-8.84-18.74-1.36-5.85-1.55-11.95-6.2-16.93-3.73-4-.95-9.74-1.62-14.66.09-3.64.74-3.79 5.17-1.12z" transform="translate(-500.57 -39.62)" style="fill:#cf430d"/><path class="ft" d="m117.92 351.74 6.51.64c1.55-5.51-1.36-9.46-5.1-13.28-1.65-1.68-3.41-3.88-2.29-6.48 1.46-3.41 4 .13 5.36-.39 9.27-3.47 8.13 4 8.59 8.49.42 4 .82 7.85 3 11.32.72 1.15 2.68 2.59 2.93 1.76 1.47-4.75 9.19-4.86 8.1-11.4-.64-3.82.75-7.47 1.65-11.76 3.29 2.91.19 7.14 3.15 9.29 1.47-.09 1.11-1.16 1.24-1.91.29-1.63-.67-3.86 1.66-4.53 2-.58 3.16 1.15 4.3 2.48s1.57 4.22 4.27 3.1c2.51-1.05 3-3.44 3.19-6.05.26-2.81-1.77-7.87 2-7.83 3.44 0 1.46 5.17 1.87 8 .28 1.95-.07 4 .09 6 .43 5.47 2.43 1.37 3.88.59-1 8.1-5.91 13.26-12.88 16.74-4 2-4.29-2-5.31-5.33-6.78 18.15-14 20.58-20.27 12.53 0-4.12-1.91-6.08-6.13-6.74-3.69-.6-7.3-1.98-9.81-5.24zm-34.44-23.97c2.71.41 4.07-1.14 4.86-3.43.49-1.42.44-3.6 2.28-3.59s2.78 1.87 3.34 3.64c.51 1.61.71 3.47 2.83 4.14 2.09-1.17.36-3.9 3.48-6.27-1.29 8 4.27 14.38.27 21.57-1.26-.26-3-.09-3.7-.86-4.57-4.95-8.93-10.11-13.36-15.2z"/><path d="M560 295.74c-1.64 1-4.31-2.56-5.34 1.2-.93-.29-2.85 1.88-2.2.72 4.64-8.28-1-17.78 3.54-25.86 3.17 5.77 4.16 12 4.16 18.49-.02 1.82-.07 3.63-.16 5.45z" transform="translate(-500.57 -39.62)" style="fill:#b4461f"/><path class="ft" d="M101.95 345.15c8.1-4.55 11.91 1.31 16 6.58-6.59.8-12.3-.43-16-6.58z"/><path d="M807.18 618.69c1.39 1.14 1.88 2.64.74 4-3.13 3.87-2 7.82-.57 11.84-5.41-.33-10.93-.46-14.32-5.75-1.54-2.42-2.68-5-.73-7.79 3 3.84 6 3.68 9.34.34 1.45-1.4 2.81-3.59 5.54-2.64z" transform="translate(-500.57 -39.62)" style="fill:#ca936e"/><path d="M807.18 618.69c-2.09 1.84-4.11 3.77-6.29 5.49-5 3.9-7.07 3.09-8.59-3.15 3.15-6.28 8.67-6.58 14.62-5.75.08 1.14.17 2.27.26 3.41z" transform="translate(-500.57 -39.62)" style="fill:#eda989"/><path d="M815.06 608c.71.51 1.44 1 2.13 1.53 2.63 2.07 4.37 4.75 2.77 8a5 5 0 0 1-6.33 2.18c-3.5-1.28-5.24-3.8-3.92-7.7 1.07-2.32 3.61-2.63 5.35-4.01z" transform="translate(-500.57 -39.62)" style="fill:#b12f1f"/><path d="M743.39 577.5c.16-6.78 3.22-10 8.63-9 2.8.5 4.27 2.11 1.86 4.4-2.85 2.71-4.77 8.28-10.52 4.62z" transform="translate(-500.57 -39.62)" style="fill:#964f24"/><path d="M743.36 577.47c-2.91 3.48-9.82 3.23-11.22-.42a2.22 2.22 0 0 1 2.09-3.26c2.55.22 5.36-3.66 7.58.28.6 1.07.19 2.67 1.58 3.43z" transform="translate(-500.57 -39.62)" style="fill:#934925"/><path d="M744.28 597.07c-1.16-.43-1.44-.44-1.52-.58a15.25 15.25 0 0 1-1.45-12.55c.28-1 1.86-1.09 2.19-.5 2.38 4.26 1.11 8.72.78 13.63z" transform="translate(-500.57 -39.62)" style="fill:#88542b"/><path class="eo" d="m314.43 558.86 1.5 1.62c1.07 2.46.28 4.57-1.25 6.53l-.24.25c-2 0-2.54-2.14-4-3 1.3-1.82 1.55-4.41 3.99-5.4z"/><path class="bz" d="M139.09 567.17v2.63c-3.28-1.53-5.57-.6-7.17 2.64-.77 1.58-.7 4.05-3.45 4 1.46-6.65-4.12-12.28-2.67-19 .49-2.25-.45-5.37 2.77-5.83 3.63-.53 1.68 3.4 3 4.6 3.33 3.17.77 10.27 7.52 10.96z"/><path d="M647.85 619.81a38.52 38.52 0 0 0-7.85-13.3c-2-5.57-6.41-10.75-3-17.49 4.22 7.57 8.32 14.9 12.39 22.24 1.77 3.24 3.61 6.52-1.54 8.55z" transform="translate(-500.57 -39.62)" style="fill:#af6d3e"/><path class="ak" d="M127.19 644.38c-.14 2.52-2.34 2.88-4 3.83-3.8.11-7.47-.3-10.64-2.69 4-5.16 9.14-.37 13.61-1.45a1.24 1.24 0 0 1 1.03.31z"/><path d="M613.14 685.12c3.79-.08 7.52.11 10.64 2.69l1.27 2.42c-3.87 3.65-7.48.56-11.18-.42-.85-.23.29.12-.59.08-.45 0-.53.44-.22.93-4.18 3.29-9.56 5.49-10.6 11.65-2.8-8.81-1.23-12.14 8.15-17.27z" transform="translate(-500.57 -39.62)" style="fill:#e2a782"/><path d="M613.06 690.82c-1.08-.52-3.17 0-3.08-1.6.1-1.87 1.9-1.23 3-.84 3.91 1.32 7.77 2.81 12 1.85l5.16.67c-6.31 5.92-11.67 1.72-17.08-.08z" transform="translate(-500.57 -39.62)" style="fill:#905b2f"/><path d="M706.08 386c-3.62 3.45-7.29 6.84-10.83 10.36-2.42 2.41-4.83 4.4-8.58 3-3-1.11-4.46 2.27-7 2.69-2.41-3.14 0-4.75 2.09-6.37 3.15-2.45 6.14-5 7.81-8.77.62-1.4 1.89-3.32 3.37-2.57 6.87 3.45 8.12-3.13 11-6.19 2.24-2.39 3.72-5 7.43-2.83l-2.46 5.46z" transform="translate(-500.57 -39.62)" style="fill:#8e2e16"/><path class="ft" d="M210.81 335.75c-6 .11-6.62 6.39-10.33 9.19-2.42 1.84-3.56 7.28-7.37 1.34-.89-1.39-2.08-.1-2.35.87-1.55 5.49-5.76 8.5-10.24 11.27-1.63 1-1.46 2.52-1.4 4.06l-4.29 5.9c-3-2.82-3.73-6.24-3.91-9.87 0-5.3.14-10.4 4-14.79 3-3.32.05-3.81-2.64-3.95-1.15-5.92 3.6-6.63 7.29-8.27 2.67 3.69.72 7.26-1.45 11.46 10.7-5 17-11.59 17-22.82a4.1 4.1 0 0 1 2.32-3.79c2.07-.87 3.19.85 4.51 2 4.27 3.63 3.5 8.74 4.37 13.74 2.13-6.87 8.49-12 7.16-20.12-2.62-4.36-4.59-8.55 1.93-11.46 1.12-.5 1.28-2.17 2.06-3.18a9.1 9.1 0 0 0 1.36-5.33c1.62-2.92 4.92-4.61 5.25-8.6.38-4.52 2.78-4.32 5.29-1.19 1.12 1.41 2.76 2 4.06 3.16-.09 5.5-7.18 5.72-8 10.65-3.85 2.18-1.6 6-2.36 9-.65 2.57 0 5.29-.46 7.93-1 2.53-2.69 3.13-5 1.69l-2.76-5.68c.48 10.34-.13 18.88-4.04 26.79z"/><path class="gf" d="M221.54 311.89v-14.88c0-4.96 2-2.83 3.91-1.05 0 1.77.05 3.54.08 5.32-.52 2.64-1 5.28-1.55 7.93-.91.79.17 3.43-2.44 2.68z"/><path d="M722.11 351.51c.82-.89 1.64-1.79 2.47-2.68v12.14c-4-.75-6.06-2.86-6.39-6.75 1.87-.07 3.81-.04 3.92-2.71z" transform="translate(-500.57 -39.62)" style="fill:#99391d"/><path d="M771.29 247.83c-2.78 2.45-5.92 4.56-7.55 8.13 2 2.59 4.59-1.24 7 1.14-4.06 1.55-8 3.27-10.28 6.91-3.16 5 6.7 4.27 3.83 9.46-1.18-.91-2.33-2.57-3.62-2.67-8.77-.71-5.62-5.89-3.78-10.16 2.51-5.8 6.85-10.25 11.85-14 1.59-1.23 2.53-.98 2.55 1.19z" transform="translate(-500.57 -39.62)" style="fill:#511d0d"/><path d="M771.29 247.83c-.51-1.14-1.56-1.16-2.58-1.23 2.93-3.24 6.83-4.17 12.21-5.22a20.83 20.83 0 0 1-9.63 6.45z" transform="translate(-500.57 -39.62)" style="fill:#995933"/><path class="gf" d="M233.5 285.31c-4 .65-4 .65-7.29-5.15-.76 5.52-1 10.87-7.31 11.78-4.12-3.15-5.81 1.17-8 2.9-2.42 1.89-4.32 4.42-7.88 3.77a183.93 183.93 0 0 0 21.76-25.47c2.23-3.17 7.68-4.21 8.74-9.19 5-.12 6.81 3.36 4.85 6.81-2.68 4.67-2.94 9.81-4.87 14.55z"/><path class="bc" d="M88.66 274.67c0 3.5-.29 7 1.72 10.19.69 1.1 1.31 2.49.16 3.61-1.42 1.39-2.83.21-4.19-.38-2.73-1.17-3.55-3.68-4.36-6.21-1.4-4.35-2.65-8.76-4.29-13-.63-1.66-1-4.19-3.58-4.12-2.2.07-.63 3.35-3.07 3.94-1.71-1.7-.71-4-1-6 .56-10.41-1.58-20.36-4.9-30.14-.64-1.88-1.19-4.45.66-5.54 2.5-1.48 5.6-.41 8.23.29 1.73.46 3 2.54 5.26 2.17a6.89 6.89 0 0 1 6-.95c2 .95 4.14 1.4 6 2.61 8 5.18 8.35 9.76.8 15.42a25.76 25.76 0 0 0-7.43 9.07c-2.53 4.83-2.75 9.14 1.21 13.29 1.55 1.57 2.99 3.28 2.78 5.75z"/><path class="el" d="M88.66 274.67c-.56-.67-1.13-1.33-1.67-2-8.27-10.42-7.15-18.85 3.6-27.14 7.62-5.86 7.37-8.59-1.22-13.68-1.13-.68-2.24-1.38-3.37-2.07.32-1.44 1.95-.63 2.59-1.52 6.71-4.69 7.43-4.51 8 2.68.2 2.69 1.06 4 3.81 3.87l1.58 1.38c2.47 4.82 1.34 8.07-4.15 9.22a2.72 2.72 0 0 0-2.5 2.55 4.22 4.22 0 0 1-1.31 1.35c-6.83 5.08-8.2 9.47-5.44 17.44.91 2.62 2.53 5.25.1 7.92z"/><path d="m589.16 267.87-2.59 1.52-6.7-.3c2.52-4.83 6.06-1.83 9.29-1.22z" transform="translate(-500.57 -39.62)" style="fill:#c38758"/><path d="M594.83 287.81a1.29 1.29 0 0 0 1-.24 15.29 15.29 0 0 1 10.28-.38c26 7.37 51.39 5.27 76.36-4.52 5.28-.52 10.71-3.33 15.66 1.06a5.12 5.12 0 0 1-2.82 2.25c-2.58.67-5.32.8-7.73 2.16a9.76 9.76 0 0 1-3.76-.38c-11.75 2-22.77 7.07-34.73 8.09C638 296.61 627 297 616 294.61c-5.83-1.34-11.39-4-17.59-3.57-2.88-1.64-3.84 4.07-6.88 1.81-1.1-3.13 1.27-3.97 3.3-5.04z" transform="translate(-500.57 -39.62)" style="fill:#694730"/><path class="bc" d="M113.36 241.53c1.75.06 2.87.46 2.53 1.85s-1.64 1.94-3 1.95c-1.1 0-2.45-.07-2.32-1.52.14-1.87 1.79-2.14 2.79-2.28z"/><path d="M655.67 254.45c-5.23-7.59-7.72-15.88-6.54-25.14 7.18-4.73 15.28-3.25 23-3.1a70.42 70.42 0 0 1 18.73 3.36c2.34.69 4.6 1.58 5.73 4l3 2.07c3.13 10.27-2.84 20.57-14.75 25.42-10.84 2.75-20.5.33-29.17-6.61z" transform="translate(-500.57 -39.62)" style="fill:#fafaf9"/><path d="M650.36 223.85c4-9.48 10.94-15.4 21.15-17.3 14.29-1.23 26.52 6.65 28.21 18.4.32 2.24 1.92 5.44-2.27 6.27-11.81-2.6-23.51-5.87-35.82-4.71a77.76 77.76 0 0 0-7.89.68c-2.31.45-4.86.39-3.38-3.34z" transform="translate(-500.57 -39.62)" style="fill:#c89055"/><path d="M698 230.75c.72-9.95-7.33-20.91-16.82-22.75-3.2-.62-6.44-1-9.67-1.45 14.9-5.52 32.57 7.21 33.93 23.75.51 6.19-4.59 1.13-7.09 1.41-.49-.07-.7-.23-.64-.5s.17-.46.29-.46z" transform="translate(-500.57 -39.62)" style="fill:#a1734f"/><path d="M698 230.75a6.48 6.48 0 0 0 .35 1l-1.74 1.89c-15.4-6.25-31.31-6.84-47.51-4.29.06-1.91-.65-4 1.26-5.46 0 2.1.95 2.31 3 2 15.24-2.1 30.22-1.03 44.64 4.86z" transform="translate(-500.57 -39.62)" style="fill:#674b37"/><path d="M684.9 261.09c10.31-5.34 14.07-14.49 14.75-25.42 2.52 1.22 6.27.94 6.3 5.18-3.8 10.09-8.71 19.03-21.05 20.24z" transform="translate(-500.57 -39.62)" style="fill:#cbc0b6"/><path d="M591.64 292.83c2.32.28 2.73-4.23 5.71-2.29 3 2.83 2.59 9.61 9.37 7.92a11.3 11.3 0 0 1 1.92.31c5.07 1.84 10.41 1.78 15.68 2.17a15.56 15.56 0 0 1 2 .42c16.52.52 32.85.7 49.42-2 10.05-1.62 16.51-4.4 19.53-14 .52-1.31 1.71-1.46 2.87-1.65 13.27 8.19 13.89 24 1.36 34.55l-2.71-2.65c-4.51 1-9.92-2.78-13.58 2.6-1.41 2.31-2.94 4.49-5.75 5.26-3.5.86-7.21.27-10.65 1.55a151.09 151.09 0 0 1-48-3.58 11 11 0 0 1-3.88-2.38c-5.76-5.57-7.1-5.77-14.08-2.11-1.37.89-2.61 2.19-4.5 1.46-6.27-4.7-8.07-11.53-8.49-18.79-.08-2.62.37-5.72 3.78-6.79z" transform="translate(-500.57 -39.62)" style="fill:#240f05"/><path d="M716.52 185.75c-16.39-4.31-32.18-5.11-49.15-.26 14.5-14.34 37.63-14.06 49.15.26z" transform="translate(-500.57 -39.62)" style="fill:#a7704d"/><path d="M561.5 172.85c5-14.36 18.91-13.21 37.47 2.81-11.97-4.94-24.03-7.85-37.47-2.81z" transform="translate(-500.57 -39.62)" style="fill:#a46f4f"/><path class="ea" d="M91.07 253.21c-5.06 10-.76 17.93 5.63 25.39 2.85 1.62 6.37 2.52 7 6.55-6.67 1-11.86-.16-12.77-8.23-.1-.82-1.45-1.51-2.22-2.26.65-3.71-1.61-6.65-2.64-9.91-2.29-7.17 1.68-15.15 8.24-16.56-1.08 1.69-3.13 2.74-3.24 5.02z"/><path d="M604.22 324.77c-2-2.49-5.58-3.36-7-6.55l2.76-2.49c2.22 1.63 4.05 3.79 6.76 4.72 9.09 4.6 18.47 8.07 28.87 8.12 2.18 0 5.1-.43 5.61 3.06-3 1.47-6.37-.26-9.4 1.07-9.95.1-18.76-3.97-27.6-7.93z" transform="translate(-500.57 -39.62)" style="fill:#5c392c"/><path d="M631.87 332.7c2.93-2.1 6.45 0 9.49-1.36a4.52 4.52 0 0 1 6 0c3 1.43 6.65-.88 9.55 1.47a132.89 132.89 0 0 1-25.04-.11z" transform="translate(-500.57 -39.62)" style="fill:#260903"/><path d="M647.39 331.34h-6c-10.57-1.72-21.56-1.66-31.23-7.29-1.7-1-3.44-1.9-5.17-2.85-.29-4.84 1.37-6.44 5.44-5 2.41.82 4.22 2.91 6.82 3.38 16.58 3.52 33.37 4.41 50.26 3.94 6.16-1 6.45-.92 6.79 2.75-8.55 3.98-17.95 3.36-26.91 5.07z" transform="translate(-500.57 -39.62)" style="fill:#f7f4f0"/><path d="M674.27 326.23c-.86-4.39-4.71-1.4-6.79-2.75 3.36-1.82 7.06-1 10.61-1.4a8.39 8.39 0 0 1 2.46-.62c3.06-.63 3.1-2.33 1.63-4.57 4.46-5.37 9.51-3.76 14.64-1.26.15 1.91-1.18 2.64-2.61 3.32-3.91 1.87-4.45 5.12-3.48 8.85.5 1.91 1.37 3.79.44 5.72a3.49 3.49 0 0 1-1.88 1.62 1.34 1.34 0 0 1-1.75-1.38c1.46-13.02-6.82-8.63-13.27-7.53z" transform="translate(-500.57 -39.62)" style="fill:#cdbcb3"/><path d="M815.22 606.63a8.43 8.43 0 0 1 1.25-6.53 5.32 5.32 0 0 0 1.26-.18c2.38.76 5.89 1 5.09 4.44-.99 4.21-4.96 1.71-7.6 2.27z" transform="translate(-500.57 -39.62)" style="fill:#aa292a"/><path class="gy" d="M133.71 444.45c8.72-8.28 19.35-13.15 30.48-17.13 9.54-.94 13.92 1.65 17.12 10.1-.26 3.08-2.82 3.87-5 4.6-21.08 7-38.32 19.74-53.59 35.49a11.44 11.44 0 0 1-5 3.21 8.34 8.34 0 0 0-6.88 4.49c-1.55 2.8-4 4.1-7.25 3.19a3 3 0 0 1-2.47-2.77c-.2-3.25 1.64-5.39 4.14-7.07a7.66 7.66 0 0 1 3.11-1.12c2.78-.43 3.34-1.77 2.89-4.59-.92-5.71 2-9.31 7.42-10.87 2.42-.71 4.8-1.17 5.26-4.2-.01-6.85 7.03-8.51 9.77-13.33z"/><path d="m700.75 464.21-1.25.5a2.32 2.32 0 0 1 .07-.69c-6.84-2.79-14.68-2.81-20.84-7.49 3.18-7.08 7.64-12.57 16-13.76 6.7-.95 13.36-2.26 20-3.35 1.28-.21 2.66-.29 3.48 1.13-3.06 8.07-8.69 14.26-14.69 20.18z" transform="translate(-500.57 -39.62)" style="fill:#969315"/><path d="M767.29 516.33c-9.25 9.52-19 18.35-31.66 23.21-4.94 1.89-9.68 4.31-14.5 6.52-1.33.61-2.66.88-3.36-.69-.61-1.38.79-1.79 1.62-2.44 5.57-4.29 12-7.2 17.85-11.11 8.34-5.57 14.72-13 22.08-19.47 3.25-2.94 6.51-5.86 9.74-8.81 1.22-1.11 2.15-3.56 4.1-2.17 1.61 1.15.11 3.2 0 4.89-.42 4.36-5.59 5.74-5.87 10.07z" transform="translate(-500.57 -39.62)" style="fill:#43551e"/><path d="M634.28 484.07c.29 3.15-2.09 4.42-4.12 6-2.43 1.91-4.38 4.16-3.73 7.63a12.37 12.37 0 0 1-7.17 4.13c-4.93.85-7.14 5.43-9.84 9-1.91 2.53 3 2.9 2.09 6.12-6.56-.62-11.28 3.11-15.28 8.08-1.46 3-4.16 5-6.15 7.6-1.3 1.81-.17 2.59 1.34 3.29 2.23 1 4.93 1.5 5.84 4.33-.46 1.35-.91 2.7-1.37 4-1.11 3.75-1.32 8.07-6 9.62a2 2 0 0 1-1.47-1c-.77-1.75-.21-3.4.3-5.09.84-2.85-1.14-5-3-6-2.37-1.34-3.75 1.25-4.95 3s-1.28 5.11-4.89 3.41c.85-10.16 7.8-16.69 14.21-23.44a44.66 44.66 0 0 0 5.85-7 3.12 3.12 0 0 0 1-2.9c12.54-10.13 24.12-21.45 37.34-30.78z" transform="translate(-500.57 -39.62)" style="fill:#a9ae2c"/><path class="fa" d="M202.99 421.11q7.35-10.08 14.69-20.18c3.72.14 6.92 5.15 11 .62 3.72 9.83-3.7 15.33-7.38 22.05a2.6 2.6 0 0 1-4.49.21c-1.39-2.14-4.42-4.34-1.67-7.5.91-1.05 3.3-1.73 1.25-3.47-1.55-1.31-3.93-.3-4.69.89-1.75 2.73-5.49 4.09-5.61 7.82-.05 1.46-.38 2.24-1.78 1.63-.66-.26-.88-1.35-1.32-2.07z"/><path d="M681 477.92c-2.74-7.61-9-10-16.23-11 8.57-5.44 17.39-5.81 26.55-1.51 1.45.68 3 .89 2.67 3l-6.59 6.38c-1.53 2.29-3.4 3.88-6.4 3.13z" transform="translate(-500.57 -39.62)" style="fill:#938f1c"/><path d="M678.73 456.53c6 1.75 12 3.58 18.11 5.2 1.42.38 2.42.8 2.73 2.3-7.28 1.18-13.59-2.7-20.39-4-1.39-.32-.71-2.26-.45-3.5z" transform="translate(-500.57 -39.62)" style="fill:#b0a93f"/><path class="fa" d="M242.76 403.17c-.09 2.39-.84 4-3 4.16-2.28.17-3-1.78-3.16-3.48a3.53 3.53 0 0 1 3.13-3.7c2.35-.38 2.78 1.62 3.03 3.02zm4.83 15.29c-.1-1.53-.38-2.25-.14-2.68 1.11-2-.12-5 2.69-6.19a1.29 1.29 0 0 1 1.77 1.28c.22 3.21-1.04 5.51-4.32 7.59z"/><path d="M684.85 479.16c.6 3.74 3.84 5.8 5.63 8.8 4.14 7 3.5 14.69-2.22 20.36-4.75 4.7-9.28 9.2-9 16.87.17 4.18-4 6.62-6.72 9.49-1.49 1.58-3.44 3.47 1 3.38 1.49 0 2.16.77 1.81 2-.27.93-1.15 2.24-1.94 2.39-11.83 2.28-22.77 8-35.07 8.54-8.23.36-16.23-2.05-24.4-1.46-6.47.47-7.09-6.66-11.66-8.69-.59-.27 1.42-1.92 2-3 1-1.75 5-2.46 2-5.62A20.61 20.61 0 0 1 617 520.81c2.23.12 3.69-1.17 5-2.71 7.18-8.43 16.31-14.63 24.73-21.62 10.84-9 24.65-12 37-17.91.32-.15.79.27 1.12.59z" transform="translate(-500.57 -39.62)" style="fill:#475a1f"/><path d="M589.43 553.73c3.24-2.39 4-6.47 6.46-9.4.23 4.1 3.82 4.92 6.51 5.65 20.45 5.52 40.81 11.95 62.33 11.44a85 85 0 0 0 23.39-3.42c1.4-.44 3.21-1.19 4 .72.64 1.46-.91 2.3-1.75 3.25-6 6.84-15 8.14-22.86 11-11.52 4.15-24.13 4.78-36.34 4.27-8.67-.35-17.39-.1-26.05-1.06l-21.34-7.77c1.73-4.99.65-11 5.65-14.68z" transform="translate(-500.57 -39.62)" style="fill:#47581e"/><path class="hg" d="m116.43 481.92-10.73 10.61-9 8.14c-2.75-1.17-5.59-2.19-8.24-3.56-2.82-1.45-3.82-3.15.2-4.46 2.89 1.49 5.38 2.44 7.7-1.35s.17-5-2.33-6.6c4.55-4.27 7.25-12 17-7.88-7-1.6-6.66-3.67-3-7.77a36.24 36.24 0 0 1 17.84-10.95c-.42 3.34-2.41 4.76-5.66 5.38-6.62 1.26-9.18 5.06-6.93 11.28 1.07 3 .41 2.91-2 3.61s-5 .24-6.6 2.46c-1.07 1.54-3.16 2.8-2.3 5.12a3 3 0 0 0 2 1.28 3.87 3.87 0 0 0 4.78-2.51c1.61-3.94 4.36-6 8.76-5.32.51 1.43-.16 2.15-1.49 2.52z"/><path d="M617 521.54c.51-.84 1-1.68 1.52-2.52 4.91-4.44 10-8.69 14.68-13.37 13.51-13.52 30.63-20.65 47.8-27.73l6.4-3.14a3.84 3.84 0 0 1-2.54 4.38c-24.29 8.74-45.81 21.7-63.14 41.16-1.09 1.21-2.33 3.9-4.72 1.22z" transform="translate(-500.57 -39.62)" style="fill:#464805"/><path d="M589.43 553.73c-1.15 4.09-3.38 7.89-3 12.36.12 1.63-1.19 2.08-2.55 2.29l-2.67-1.5c-1.58-2-4.65-2.56-5.57-5.31 3.26-2 7-3.21 9.12-6.88.81-1.41 2.51-2.53 4.46-1.2z" transform="translate(-500.57 -39.62)" style="fill:#afae41"/><path class="hg" d="M88.6 513.87a4.42 4.42 0 0 0-4 3c-1.44 5.43-5.4 5.3-9.6 5.05-.28 0-.56-.1-.84-.16.25-4.39-.25-8.85 1.18-13.14a3.41 3.41 0 0 0 3-2.19c4.22-8.3 4.92-8.33 10.88-2.33 1.77 1.78 2.58 2.87.51 4.74-1.49 1.41-.92 3.32-1.13 5.03z"/><path d="M589 242.74c-2.67-.48-4.5-1.82-4.53-4.72 0-2.7 1-4.83 4-5.06s4.31 1.82 4.53 4.49c.3 2.85-1.38 4.43-4 5.29z" transform="translate(-500.57 -39.62)" style="fill:#2a2727"/><path class="cw" d="M88.54 183.1a24.15 24.15 0 0 1-15.75-.07 77.48 77.48 0 0 1 15.75.07z"/><path class="gf" d="M217.54 297.27c-.81 2.21 2.39 6.82-3.73 5.92-1.68-.25-1.58 1.76-1.39 3 .28 1.92.74 3.81 1.13 5.71-7.82-6.52-7.12-9.03 3.99-14.63z"/><path d="M695.3 285.38a24 24 0 0 1-2.46 9.53c-1.72 3.83-2.87 8.65-9.12 5-1.53-.89-4.36 0-6.42.56-16.89 4.93-34.11 3.07-51.25 2.71-.36 0-.71-.47-1.06-.72 2.24-2.51 5.28-1.9 8.08-2 9.5-.21 19 .24 29-.32-3.8-3.13-9.37-1.7-12-6 10.73-1.58 21-5.05 31.33-8 1.25-.36 2.43-1.23 3.53.21.67 1.18 0 2.44.24 3.65 1.11-.51.82-2.13 2-2.55 1.83-4.52 5.33-1.87 8.13-2.07z" transform="translate(-500.57 -39.62)" style="fill:#c8c0bb"/><path d="M650.13 294.16c5.36 2.22 11.85 1.37 17 6.57-14.35 3.21-28.34.63-42.13 1.73v.05c-5.72-1.41-11.69-1.11-17.38-2.65h-.58l-.53-.21c-1-1.45-4.68.43-3.94-3a5.43 5.43 0 0 1 5-4.51 21.14 21.14 0 0 1 7.11.58c11.77 1.87 23.6 1.87 35.45 1.44z" transform="translate(-500.57 -39.62)" style="fill:#f8f5f4"/><path class="hm" d="M114.12 253.16c-2.65.82-5.61-.78-8.13 1-2.78 1.91-4.09 3.92-.06 5.95-6.52 1.3-7.83 0-9.15-9.14 6.3-3.32 11.65.96 17.34 2.19z"/><path d="M687.26 287.45v5.8c-4.23-1.38-3.92-3.93-2.27-6.9z" transform="translate(-500.57 -39.62)" style="fill:#887f74"/><path d="M678.75 242.65c-3-.56-4.45-2.35-4.4-5.05.06-3 1.65-5.15 4.83-4.88 2.88.24 3.81 2.49 3.78 5.2-.04 2.97-1.87 4.16-4.21 4.73z" transform="translate(-500.57 -39.62)" style="fill:#363636"/><path d="M617.22 319.54c-2.46.6-4.46-.19-6.57-1.57-3.6-2.36-5.58-1-5.69 3.23-2.52-1-5-2.08-4.93-5.47 7.78-5.35 10.67-4.73 17.19 3.81z" transform="translate(-500.57 -39.62)" style="fill:#c1bab4"/><path d="M682.18 316.89c1.48 3 3.94.07 7.08 1.48a12.87 12.87 0 0 1-11.17 3.71c2.82-.59 2.74-3.45 4.09-5.19z" transform="translate(-500.57 -39.62)" style="fill:#887a73"/><path class="hm" d="M107.04 260.24c5.91.07 11.78.51 17.38 2.65a36.39 36.39 0 0 1-17.38-2.65z"/><path class="gy" d="M94.02 484.7c2.07.22 5.62-.75 5.55 1.88-.09 3.57-1.76 7.61-5.11 9.45-2.51 1.38-5.08-.14-5.81-3.38.38-3.6 4.94-4.38 5.37-7.95z"/></svg>