<svg width="400pt" height="400" viewBox="0 0 400 300" xmlns="http://www.w3.org/2000/svg"><path fill="#b51938" d="M189.65 47.04c12.54-3.16 26.37-.94 37.18 6.2 11.28 7.22 19.29 19.45 21.15 32.74 2.14 13.47-2.08 27.74-11.05 37.99-7.22 8.61-17.92 13.89-28.93 15.54-7 .25-14.27.8-20.96-1.7-12.08-3.52-22.36-12.3-27.97-23.52-6.44-12.47-6.78-27.81-1.05-40.6 5.73-13.11 17.71-23.26 31.63-26.65m-22.37 31.49c-5.05 11.69-3.39 25.94 4.22 36.15 5.61 7.97 14.65 13.03 24.12 14.88.29-5.68.03-11.37.2-17.05-3.47-.24-7.19.48-10.43-1.14-4-1.69-6.69-5.89-6.71-10.22-.16-5.4-.07-10.8-.07-16.21-.18-4.25 2.54-8.26 6.27-10.15 3.34-1.6 7.13-1.18 10.71-1.26.05-5.69.12-11.39-.03-17.08-12.38 1.96-23.49 10.45-28.28 22.08m39.42-22.05c.01 5.69 0 11.38.01 17.06 3.79.18 7.97-.63 11.36 1.52 3.53 1.91 5.8 5.87 5.66 9.88 0 5.72.07 11.43-.04 17.15-.09 3.72-2.69 6.92-5.74 8.81-3.39 1.95-7.41 1.37-11.13 1.46-.01 5.5.01 11.01-.02 16.51 4.7.09 9.12-1.85 13.11-4.15 9.23-5.43 15.91-15.02 17.65-25.6 1.85-10.88-1.4-22.64-8.97-30.75-5.61-6.39-13.53-10.54-21.89-11.89m-17.52 27.66c-.47 5.88-.43 11.8.01 17.69 8.04-.02 16.08.09 24.11-.06.19-5.85.19-11.72 0-17.57-8.03-.59-16.08.08-24.12-.06z"/><g fill="#020202"><path d="M111.2 163.36c.59.06 1.77.19 2.37.26 2.94 2.98 6.76 5.77 7.31 10.26 3.76-1.8 7.95-1.75 12.02-1.55-.55 6.31-5.71 10.59-8.73 15.76.57.11 1.71.33 2.29.43-.77 1.56-1.53 3.13-2.27 4.7l-2.34.4c-1.5 8.01-4.75 15.72-4.35 24-1.85 1.37-3.83 2.58-5.59 4.1-.73-1.19-1.74-2.28-1.88-3.72-.62-5-1.76-9.92-2.08-14.96-.36-1.74.1-3.86-1.28-5.23l-.48 3.08c-4.73-.05-9.07-3.11-10.86-7.46-1.68-3.87-4.01-8.26-2.05-12.47 2.47 1.4 3.98 3.9 5.88 5.92 3.35-1.69 6.3-4.06 9.28-6.31.94-4.75 1-9.62 1.2-14.44.41-.98 1.02-1.86 1.56-2.77m12.36 13.07c-.98.84-1.98 1.66-3.06 2.37-.92 2.42-.08 5 .15 7.46 2.89-2.96 5.6-6.19 7.38-9.96-1.49.01-2.98.05-4.47.13m-20.44 13.64c.11 2.21 1.74 3.86 2.84 5.66.6-.55 1.21-1.1 1.83-1.64.19-2.6.24-5.21-.09-7.8-1.51 1.28-3.29 2.28-4.58 3.78m11.3 27.08c.42-3.5.46-7.05.09-10.56-.75 3.38-2 7.37-.09 10.56zm49.68-52.92c1.54-.78 3.31-.75 4.98-1.03 2-1.11 4.16-.31 6.12.44 6.62 6.25 7.68 15.85 8.19 24.44-.26 6.64-.03 13.37-1.24 19.93-2.29 2.91-5.42 5.03-8.12 7.53-3.15-3.08-7.39-4.75-11.6-5.78-4.1-.5-8.33-.1-12.33-1.34.12.61.36 1.85.48 2.47.44.84.89 1.67 1.23 2.56-2.16 1.1-5.31.04-5.69-2.52-1.1-7.07-1.78-14.29-.96-21.44.5-5.06 1.04-10.4 3.98-14.72 1.21 3.06-.65 6.16-.7 9.26-.28 5.83-1.46 11.8.1 17.55l.93-.27c.05 1.77.13 3.52.2 5.29 2.43-.74 5.31-.75 7.11-2.81 2.87-2.82 5.55-5.83 8.22-8.84-3.76 2.36-7.43 4.91-11.59 6.55-.51-5.11 3.64-8.85 6.43-12.62-1.05.7-2.09 1.4-3.12 2.1-.35-2.85 1.11-5.32 2.84-7.43-.16-.76-.33-1.52-.49-2.28-.97.1-2.92.31-3.89.41.66-1.31 1.41-2.57 2.26-3.78-.34-2.03-.91-4.07-.69-6.15 1.32 1.04 1.88 2.61 2.39 4.14 2.15-.58 4.27-1.32 6.52-1.46-.06 2.11-.85 4.08-1.51 6.06-.69-.46-1.37-.92-2.05-1.37l.2-1.57c-1.27 1.48-1.07 3.43.26 4.76 1.53 3.17 6.03 4.79 5.01 8.84-.6.93-1.16 1.89-1.68 2.87 3.25-2.86 4.28-7.45 7.65-10.16 1.46 5.19-3.97 8.35-6.4 12.21 1.15 1.17 2.44 2.21 4.01 2.78 2.04-2.32 2.66-5.31 3.4-8.2.73 3.71-.3 7.4-2.3 10.54.87.05 2.62.14 3.49.19-.26 1.76-.88 3.43-1.58 5.07-3.43.28-7.43-.89-10.31 1.51 4.22-.86 8.24.92 12.35 1.56 1.2-1.41 3.15-2.53 3.31-4.56 1.53-9.04 1.36-18.33-.35-27.33-.64-4.68-2.41-9.86-6.96-12.06-5.47-.48-11.78.64-15.48 5.05a85.8 85.8 0 0 1-.99 3.1v3.01c-1.01-.08-2-.17-3-.26-1.52-5.71 4.64-9.83 9.25-11.74.53-.12 1.59-.37 2.12-.5m-.18 25.04c-1.51 2.93 3.39.21 0 0m-6.74 6.48c2.88-.46 8.13-2.61 5.08-6.17-1.88 1.89-3.66 3.9-5.08 6.17m-.36 9.78c4.92-.72 9.69-2.1 14.42-3.6-1.75-1.65-3.54-3.27-5.24-4.96-2.98 2.95-6.5 5.31-9.18 8.56zm121.38-40.36c.59-.83 1.18-1.66 1.76-2.49l3.57-.28c1.7 2.62 3.14 5.47 3.5 8.62.86 3.08-1.53 5.66-2.85 8.21-3.56.46-6.63 2.48-9.44 4.58-.78.51-1.06 1.38-1.33 2.21 3.1-.09 5.75 1.39 7.46 3.96-2.64 3.2-5.08 6.64-8.5 9.09 5.66 2.42 7.52 9.51 4.3 14.62-2.47-.61-5.83-2.63-5.37-5.64.09-2.25.54-4.45.98-6.64-2.53 1.26-5.75 2.26-6.37 5.42-2.25.13-5.34-.12-6.14-2.67-.06-.81-.17-2.42-.22-3.22 3.24-4 7.58-7.22 10.17-11.64-1.59-.58-3.28-.82-4.94-1.12-.57-.28-1.71-.83-2.29-1.11 0-1.06.01-2.11.04-3.16 6.06-5.51 10.85-12.17 15.67-18.74zm-65.93 1.98c.46-1.33 2.5-2.54 3.55-1.06 1.25 1.28 3.94 3.58 1.85 5.24-1.22.57-2.5.96-3.84 1.18-4.96 4.86-7.59 11.48-10.53 17.64-1.54 3.72-3.92 7.19-4.32 11.29l-2.35-.03c-.3-1.53-.37-3.07-.12-4.6 1.03-.37 1.82-1 2.39-1.9 5.05-8.97 7.81-19.06 13.37-27.76z"/><path d="M228.95 173.01c2.64-2.51 5.66-4.55 8.5-6.8 1.12 4.2-1.71 7.97-2.25 12.06-.59 4.06-2.55 7.68-3.84 11.53-2.52-1.29-2.9 1.03-3.22 2.93 1.8-.79 3.41-1.94 4.48-3.61.55 1.27.97 2.59 1.27 3.95-2.99 1.27-5.74 3.03-8.78 4.17-.7-3.83 2.49-6.44 2.88-10.01-4.03 2.17-2.84 7.7-4.37 11.38 1.94-1.62 4.23-.33 6.41-.52 2.76-.32 5.76-.14 8.21-1.66 1.7-1.23 3.18-2.74 4.83-4.04.49.38 1.47 1.15 1.96 1.54-.58.45-1.74 1.36-2.32 1.81-1.71 1.25-3.21 2.8-3.8 4.91-.46-.52-.92-1.03-1.38-1.54l-3.54 1.71c5.54 3.05 11.99 3.8 17.65 6.54-.03.34-.08 1.01-.11 1.35-2.39.96-5.03 1.17-7.58 1.45-3.56.26-6.48-1.93-9.63-3.18-2.39 3.12-5.52 5.75-9.12 7.36-2 .14-4.49-.39-5.33-2.44-.73-1.84-.43-3.89-.56-5.81-3.58 4.84-8.97 7.52-14.56 9.36l-.52-3.59c.92-.99 1.84-1.97 2.76-2.94-.23-.55-.69-1.63-.91-2.17.54-.1 1.63-.29 2.17-.39.07-.53.2-1.59.27-2.11-.43.07-1.29.21-1.71.28-.49.9-.98 1.79-1.48 2.68-1.66.72-2.83 3.25-4.86 2.42-.14-.64-.41-1.91-.55-2.55 2.4-1.46 4.51-3.35 6.59-5.23-1.15-1.42-1.66-3.19-2.24-4.89 1.07-1.74 2.2-3.45 3.49-5.04-.37-.8-1.11-2.39-1.47-3.18 1.66-1.56 3.38-3.35 5.8-3.53.93 1.52 1.87 3.08 1.86 4.94-.52.11-1.57.34-2.09.46-.26.53-.8 1.59-1.06 2.13 0 .51.01 1.53.02 2.05 1.09-.7 2.17-1.41 3.28-2.09.91 2.2.65 4.85-2.04 5.52 1.32-.18 1.85 1.23 2.7 1.93-1.49.28-2.92.76-4.28 1.42l.21 3.33c1.27-1.49 2.59-2.97 4.22-4.08-.15-.74-.47-2.21-.63-2.95.96.24 2.88.71 3.84.95 1.16 1.51-1.02 2.5-1.67 3.63-2.89 2.77-5.65 5.65-8.35 8.6 4.45-2.17 8.51-5.26 11.39-9.32 1.51-9.14 1.42-18.95 6.28-27.16 1.12-.39 2.37-.6 3.18-1.56m-1.57 10.94c1.95-1.56 4.09-2.98 5.58-5 1.13-2.56 1.71-5.33 1.89-8.12-4.76 2.59-7.81 7.65-7.47 13.12m-3.79 26.71c3.79.16 6.62-2.85 9.55-4.8-2.87-2.28-6.37-3.36-9.73-4.65-.72 3.14-.65 6.34.18 9.45zm-57.56-37.41c2.88-.43 5.45.82 7.68 2.5-.35 1.87-1.35 3.49-2.5 4.98-1.26-.08-2.51-.14-3.75-.2-1.25-2.24-1.41-4.79-1.43-7.28z"/><path d="M214.28 174.29c1.34 0 2.69.03 4.04.07.69 1.46 1.41 2.96 1.14 4.63-1.73.17-3.37.71-4.87 1.61-.24.28-.74.83-.99 1.11.85-2.39.94-4.91.68-7.42zm81.69 3.47c2.84-1.03 5.85-1.52 8.87-1.67-.44 1.13-1.05 2.14-1.82 3.04-2.55.63-5.19.76-7.77 1.23-.32.21-.94.62-1.25.82-2.18 1.39-4.33 2.82-6.2 4.61-1.56-1.78-2.1-4.62-.19-6.34 2.67 2.06 5.68-.98 8.36-1.69zm-2.19 10.93c5.34-1.77 10.72-4.05 16.45-3.96-.74 1.36-1.69 2.59-2.7 3.75-4.08-.3-7.89 1.33-11.73 2.45 1.06 1.49 2.21 3.06 1.53 4.99-1.05 6.45 2.41 12.66 1.35 19.09-1.54 1.55-3.41 4.16-5.91 3.28-1.85-1.34-1.91-4.12-3.97-5.26-2.61-1.75-5.44-3.23-7.61-5.56.4-.03 1.21-.1 1.61-.14 2.94 1.69 6.18 2.62 9.49 3.26.43-1.16 1.22-2.27 1.12-3.56-.03-5.01.02-10.01.04-15.02-4.11 1.49-7.44 4.82-11.81 5.55-.1-.7-.29-2.11-.38-2.81 4.25-1.86 8.42-3.88 12.52-6.06zm-182.52 61.7c2.22-5.13 4.43-10.28 6.79-15.35 2.73 5.76 5.3 11.61 7.85 17.45 1.71.62 3.32.1 4.8-.82-.05-4.64.33-9.31-.34-13.92-.68-.38-2.04-1.15-2.72-1.53 1.69-.6 3.51-.46 5.27-.43 3.77 4.2 7.47 8.47 11.47 12.46.04-3.42.03-6.83-.02-10.25-1.16-.72-2.32-1.42-3.47-2.16 2.34-.08 4.69-.11 7.03-.17-.75.72-1.52 1.44-2.2 2.23-.47 5.38.17 10.78-.03 16.16-4.82-4.38-8.94-9.47-13.51-14.12.09 4.01-.41 8.08.53 12.02 1.09.44 2.18.91 3.25 1.41-5.44.34-10.9.05-16.35.21 2.93-1.23 1.89-4.01.63-6.16-2.16 0-4.33.03-6.49.18-.3 1.46-.59 2.93-.86 4.4 1.06.49 2.12 1 3.17 1.53-2.5.08-5 .08-7.49.21 1-1.03 2.16-1.97 2.69-3.35m3.29-4.18c1.76-.1 3.52-.23 5.29-.37-.9-1.92-1.82-3.84-2.76-5.73-.85 2.03-1.7 4.06-2.53 6.1zm35.22-10.5c2.78-.03 5.58-.05 8.36.12-.6.27-1.8.82-2.4 1.1-.36 4.39.91 8.7.08 13.08-.38 1.66 1.37 2.39 2.37 3.33-2.47-.02-4.93.07-7.4.2.61-.77 1.22-1.53 1.85-2.28 0-4.5.15-9-.13-13.49-.97-.6-1.96-1.21-2.73-2.06z"/><path d="M160.86 235.77c2.38-.19 4.77-.21 7.15-.06-3.21 2-5.95 4.63-8.64 7.27 2.88 3.53 4.86 8.07 9.02 10.33-1.87-.44-4.59 1.04-5.87-.95-2.19-2.67-3.95-5.65-6-8.42 2-2.11 5.78-4.03 5.9-6.99-.39-.3-1.17-.89-1.56-1.18zm22.56-.11c3.45-.99 7.67-.15 9.9 2.83 2.7 4.16 2.04 10.67-2.23 13.57-3.99 2.47-10.23 2.07-12.84-2.2-2.69-4.98-.82-12.72 5.17-14.2m-.3 1.26c-3.42 2.09-3.21 6.67-2.51 10.11.58 3.29 3.87 6.52 7.38 5.05 4.1-1.3 4.16-6.56 3.48-10.05-.55-3.75-4.65-6.87-8.35-5.11zm13.57-1.34c4.58-.11 9.16-.08 13.74-.03 0 1.46-.01 2.92-.02 4.39-1.19-3.19-4.87-4.18-7.76-2.55.13 1.97.2 3.94.3 5.92 2.4.34 4.36-.79 5.7-2.71.07 2.37.14 4.75.07 7.13a62.21 62.21 0 0 1-1.62-3c-1.43-.08-2.86-.14-4.29-.17 0 3.13-.91 7.65 3.27 8.48-2.68.32-5.38.27-8.08.29.73-1.05 1.91-1.94 1.79-3.35.23-4.15-.07-8.3-.28-12.44-.95-.65-1.89-1.29-2.82-1.96zm26.88 15.74c-4.77-4.56-2.81-13.75 3.49-15.81 3.28-1.12 6.44.74 9.69.92.06 1.85.21 3.7.37 5.55-2.09-2.57-4.2-6.23-8.07-5.74-7.38 1.37-6.14 14.22.92 15.17 3.14.62 5.31-2.04 7.88-3.29-2.28 5.31-9.99 7.08-14.28 3.2zm15.53-15.78c2.93-.25 5.87-.19 8.81-.19L245.6 237c-.04 1.97-.04 3.94.01 5.9 2.92.2 5.84.12 8.75-.14 0-1.94-.01-3.88-.04-5.82-1.04-.52-2.07-1.06-3.1-1.61 2.89-.15 5.78-.12 8.68 0-.57.35-1.69 1.06-2.26 1.42.03 4.79-.03 9.59.08 14.39 1.02.54 2.04 1.09 3.06 1.65-2.88.29-5.77.3-8.63-.09.6-.36 1.79-1.08 2.39-1.44.05-2.27 0-4.53-.11-6.79-2.95-.04-5.89-.05-8.83.02-.05 2.19.04 4.39.22 6.58 1.11.63 2.21 1.27 3.31 1.92-3.05.11-6.09.12-9.14.12l2.45-2.05c.12-4.7.25-9.42-.11-14.12-1.09-.45-2.17-.91-3.23-1.4zm22.7-.16c2.84-.19 5.7-.17 8.55-.14l-2.05 1.61c-.05 4.81-.06 9.63.02 14.45.79.34 2.36 1.04 3.14 1.38-2.83.28-5.68.24-8.53.29.76-.94 2.4-1.47 2.31-2.9.12-4.38-.57-8.74-.46-13.12-1.01-.51-2-1.02-2.98-1.57zm10.62-.11c1.74 0 3.52-.21 5.27.07 3.97 3.9 7.32 8.41 11.55 12.06.1-3.17.25-6.35 0-9.51-.92-1.17-2.28-1.82-3.47-2.66 2.42-.05 4.85-.03 7.27.11-.61.37-1.85 1.1-2.46 1.47-.07 5.4-.08 10.81-.02 16.21-.39-.17-1.18-.53-1.58-.7-3.96-4.29-7.72-8.85-12.12-12.68-.22 3.83.27 7.65.52 11.48 1.1.57 2.2 1.15 3.29 1.76-2.6.01-5.21.01-7.8-.05.83-.63 1.68-1.25 2.53-1.85.13-4.39.43-8.82-.1-13.19-.83-.99-1.9-1.71-2.88-2.52zm20.57 17.63c4.29-5.13 5.46-12.06 8.87-17.71l.77-.03c2.5 5.33 4.74 10.78 7.19 16.13.79.47 1.57.94 2.36 1.43-2.9.07-5.79.06-8.69.08.62-.43 1.85-1.29 2.46-1.72-.46-1.49-.98-2.95-1.54-4.41-1.88.01-3.77-.04-5.65.1-1.87.68-1.4 3.05-1.71 4.6.77.29 2.31.86 3.08 1.14-2.38.29-4.76.33-7.14.39m8.18-12.75c-1.27 1.41-1.69 3.43-2.53 5.12 1.73.01 3.46.02 5.2.01-.97-1.59-1.02-4.15-2.67-5.13zm-209.51-4.11c4.35.46 9.24-1.4 13.17 1.12 2.54 1.65 1.69 5.15-.54 6.67 4.62 1.1 4.37 7.94.15 9.41-4.07.84-8.29.4-12.41.33.83-.55 1.66-1.09 2.5-1.63.12-4.65.09-9.3-.17-13.94-.91-.65-1.81-1.3-2.7-1.96m6.04 1.37c.01 2.04.01 4.08.02 6.12 1.93-.14 4.63.88 5.68-1.35.35-1.66-.55-3.12-1.24-4.53-1.47-.36-2.97-.49-4.46-.24m-.09 8.01c.08 1.89.04 3.79.27 5.68.74 2.29 3.39 1.22 5.14 1.17.35-.55 1.05-1.65 1.39-2.2.99-3.87-3.66-6.35-6.8-4.65z"/></g></svg>