<svg width="400pt" height="400" viewBox="0 0 400 300" xmlns="http://www.w3.org/2000/svg"><g fill="#b51f2e"><path d="M188.67 41.92c10.11-2.41 21.01-1.55 30.51 2.71 13.21 5.62 23.62 17.43 27.46 31.27 4.28 14.19 1.27 30.25-7.56 42.11-9.06 12.57-24.54 20.3-40.05 19.79-11.79-.05-23.42-4.82-32.05-12.81-9.97-9.09-15.85-22.53-15.66-36.02-.02-12.03 4.76-23.96 12.93-32.78 6.52-7 15.12-12.04 24.42-14.27m8.04 6.15c-16.94.95-32.35 13.57-36.72 29.94-3.61 12.18-.84 25.89 6.84 35.96 7.67 10.27 20.41 16.41 33.19 16.31 8.8-.22 17.6-3.16 24.57-8.58 9.78-7.4 15.89-19.45 16.03-31.72.37-10.99-4.09-21.99-11.86-29.75-8.21-8.5-20.28-13.01-32.05-12.16z"/><path d="M173.72 63.22c8.04.02 16.08.02 24.12.01-.02 2.47-.02 4.94-.01 7.41-5.52.01-11.04-.02-16.56.03 0 2.38-.01 4.77-.04 7.15 5.01.25 10.11-.55 15.05.5-.23 7.31-.05 14.64-.1 21.95-4.97.08-9.94.05-14.91.04.01 2.47.01 4.94.01 7.4 5.51.05 11.02.04 16.52.04.02 2.51.02 5.03.02 7.54h-24.13c.02-7.51-.03-15.03.03-22.54 4.94.02 9.88.07 14.82-.05-.05-2.39-.07-4.79-.08-7.18-4.94-.04-9.87-.03-14.8-.02.06-7.43-.04-14.85.06-22.28zm27.81.02c8.07-.01 16.13-.02 24.2.01-.02 7.42-.02 14.83 0 22.25-4.96 0-9.92-.05-14.87.06 0 2.38-.01 4.76 0 7.14 4.91.1 9.82.11 14.73 0 .14 7.6.35 15.23-.1 22.83-8-.53-16.02-.11-24.02-.24 0-2.52.01-5.03.02-7.55 5.64-.11 11.31.3 16.93-.27-.13-2.37-.17-4.75-.19-7.13-4.96-.03-9.92-.02-14.87-.02.08-7.4-.16-14.81.1-22.21 4.81-.7 9.9-.07 14.83-.3 0-2.39.01-4.77.03-7.16-5.59-.01-11.18-.01-16.77 0-.01-2.47-.01-4.94-.02-7.41zm-126.49 130c83.32.07 166.63.04 249.94.02 0 .58.01 1.73.02 2.31-83.33-.01-166.65-.01-249.98 0 .01-.58.02-1.74.02-2.33z"/></g><g fill="#010101"><path d="M169.9 155.07c3.73-3.39 9.35-3.24 13.91-1.97 4.04 1.2 6.48 5.12 6.85 9.17-2.28.01-4.56.01-6.84.01-.09-4.29-5.44-7.29-8.84-4.31-3.16 3.51-2.93 8.73-2.48 13.13.42 2.93 1.96 6.82 5.5 6.71 3.2.34 5.59-2.4 5.78-5.43 2.28 0 4.57-.01 6.85.01-.45 3.05-1.58 6.35-4.52 7.85-4.66 2.35-10.65 2.72-15.24-.01-4.06-2.6-5.46-7.74-5.52-12.3-.02-4.58.94-9.71 4.55-12.86zm25.29-2.28c5.56.29 11.25-.62 16.71.77 3.89.97 6.74 5.68 4.74 9.43-.85 2.02-3.03 2.86-4.82 3.83 3.55.51 6.87 3.46 6.74 7.25.11 3.69-3.39 6.32-6.72 7-5.48 1.18-11.14.47-16.7.65.04-9.64-.05-19.29.05-28.93m6.34 4.93v6.76c2.88-.31 6.38.87 8.71-1.35.71-1.39.21-2.95.14-4.42-2.8-1.24-5.87-1-8.85-.99m-.01 11.61c.01 2.49.01 4.98-.01 7.48 2.77-.06 5.61.29 8.35-.31 2.28-.8 2.06-3.65 1.49-5.54-2.41-2.88-6.6-1.25-9.83-1.63zm24.34-13.44c3.85-4.38 10.64-4.32 15.72-2.38 3.67 1.36 5.21 5.21 5.9 8.76-2.28.01-4.56.01-6.84.01-.19-4.16-5.29-7.22-8.75-4.42-3.27 3.69-3.4 9.2-2.5 13.82.46 2.83 2.2 6.46 5.61 6.13 3.18.22 5.33-2.53 5.63-5.45 2.3.01 4.6.01 6.9.09-.81 9.64-13.46 12.11-20.42 7.46-3.31-2.55-4.74-6.85-4.88-10.9-.21-4.56.42-9.61 3.63-13.12zm-71.62-3.08h6.32c.05 9.64 0 19.29.03 28.93-2.14-.02-4.27-.02-6.41-.02.07-9.64-.02-19.28.06-28.91zm62.87 58.93c2.05-.08 4.09-.16 6.14-.2.08.76.25 2.29.33 3.06 4.43-.04 8.86 0 13.29-.07-.01 1-.02 2.99-.02 3.99-2.94-.05-5.88-.04-8.82-.02.45.32 1.33.97 1.78 1.3-.88.9-1.75 1.79-2.61 2.7 2.42.05 4.85.05 7.28.05-.13 7.86.18 15.73-.17 23.58-2.09 1.18-4.45 1.59-6.81 1.77-.49-1.46-.99-2.92-1.49-4.38.84-.09 2.53-.26 3.37-.35.13-3.75.03-7.5.09-11.25-.84.85-1.68 1.78-3.03 1.5.1 2.99.1 5.98.1 8.97-2.98.15-5.78-.99-8.73-1.07-.54 2.16-2.96 1.26-4.57 1.53-.01-3.01.01-6.02-.02-9.03-1.89-.69-1.52-2.66-1.58-4.27 1.76-.54 2.99-1.91 4.22-3.19-1.75-.05-3.5-.06-5.25-.07-.26 6.99.16 14-.04 21-1.63-.19-3.24-.38-4.86-.58.15-8.08.05-16.16.04-24.24 2.43-.05 4.87-.05 7.31-.01-1.79-1.48-.04-2.82.81-4.14-3.56.23-7.12.18-10.68.19-.01-1.32-.01-2.64 0-3.96 4.74.04 9.49 0 14.23.04-.07-.72-.23-2.14-.31-2.85m-1.79 7.65c1.45.58 2.52 1.76 3.41 3.01 1.24.03 2.48.05 3.73.07.68-1.3 1.34-2.62 2-3.94-3.08-.15-6.2-.23-9.14.86m1.6 6.9c.73.89 1.47 1.76 2.11 2.72-.96.84-2 1.58-3.03 2.33 3.07.03 6.14.06 9.2-.08-1.31-.75-2.62-1.5-3.93-2.24.59-.91 1.17-1.83 1.75-2.75-2.04.02-4.07.04-6.1.02m7.19.08c1.82 1.09 3.61 2.23 5.33 3.47.01-1.19.02-2.38.04-3.57-1.79.03-3.58.06-5.37.1m-6.77 8.37c.02 1.11.06 2.23.1 3.35h4.24c.05-1.12.09-2.23.13-3.35h-4.47zm77.98-23.65c1.85.79 3.65 1.68 5.44 2.61-3.91 3.05-6.8 7.2-10.74 10.21-1.63-.18-2.57-1.88-3.85-2.74 3.63-2.79 6.74-6.2 9.15-10.08zm-203.89.53c2.02.01 4.04.01 6.06.01-.29 2.53-.34 5.08-.27 7.63 4.37-.06 8.73-.05 13.09-.01-.01 5.83-.02 11.65.01 17.49-1.91.01-3.82.02-5.72.04.01-.57.02-1.71.02-2.28-2.48.01-4.95.01-7.43-.01 0 4.39-.01 8.79.02 13.18-1.88.02-3.75.05-5.62.07.02-4.41-.01-8.81.03-13.22-2.48 0-4.95-.01-7.43-.02l.08 2.76c-1.7.01-3.4.03-5.1.06-.01-6.03.02-12.06-.02-18.09 4.07 0 8.14-.03 12.21.03.11-2.54.11-5.09.07-7.64m-7.22 11.93c.02 2.25.02 4.5.02 6.76 2.45-.02 4.91-.02 7.36-.02 0-2.25.01-4.51.02-6.76-2.47.01-4.93.01-7.4.02m12.95-.02c.02 2.26.03 4.51.04 6.78 2.46-.01 4.93-.02 7.39-.01 0-2.26.01-4.51.02-6.76-2.48 0-4.97 0-7.45-.01zm23.39-11.05c10.58.06 21.16-.06 31.74.06-.07 11.59-.03 23.18-.02 34.77-1.67 0-3.32.01-4.98.03-.02-.43-.07-1.3-.09-1.73-7.24-.02-14.48.02-21.72-.02 0 .51-.01 1.53-.01 2.03-1.64-.02-3.29-.04-4.93-.05.04-11.7.02-23.39.01-35.09m4.92 29.11c7.25-.02 14.5-.02 21.75-.01.03-8.28-.03-16.57 0-24.85-7.23 0-14.47.02-21.71-.01-.07 8.29-.04 16.58-.04 24.87zm118.55-14.91c2.46-4.88 3.8-10.17 5.52-15.33 1.59.47 3.19.93 4.79 1.38-.29.85-.86 2.55-1.15 3.4 1.94-.14 3.9-.32 5.86-.2.03.87.11 2.6.14 3.47-2.22 1.48-5.26.37-7.84.69-.27.81-.82 2.42-1.1 3.23 2.94-.01 5.88-.01 8.81 0-.07 1.33-.14 2.67-.19 4.01-1.47-.02-2.93-.04-4.38-.05 0 1.04.01 2.09.02 3.14 1.59-.01 3.17-.02 4.77-.02.01 1.03.01 3.08.02 4.11h-4.82l.06 4.41c1.29-.98 2.57-1.97 3.88-2.92.22 1.31.45 2.62.67 3.94-3.1 2.21-5.73 4.99-8.8 7.24-.71-1.47-1.41-2.94-2.1-4.41 2.01-2.33 1.76-5.4 1.7-8.26-1.77 0-3.55.01-5.32.02v-4.15c1.78.01 3.56.03 5.35.04-.08-1.24-.16-2.48-.25-3.71-.83.73-1.64 1.47-2.44 2.23-1.07-.76-2.14-1.52-3.2-2.26z"/><path d="M260.29 213.2c5.61.05 11.22-.02 16.83.06-.4 6.08.76 12.33-.76 18.29.85.91 1.7 1.83 2.55 2.75-1.64 1.26-3.32 2.47-4.96 3.73 1.79 1.53 3.71 2.92 5.81 4.01-1.2 1.32-2.37 2.68-3.47 4.09-2.94-1.28-5-3.82-6.95-6.26 0 .66.01 1.96.02 2.61-2.9 1.53-5.73 3.19-8.39 5.09-.74-1.75-1.47-3.49-2.21-5.24.39-.51 1.18-1.55 1.58-2.06-.04-9.03.01-18.05-.05-27.07m4.51 4.2c.01.92.03 1.84.06 2.77 2.27-.01 4.56.09 6.83-.12.09-.66.26-2 .35-2.67-2.42-.03-4.83-.03-7.24.02m.61 6.41c-.28.93-.55 1.87-.82 2.8 2.47.07 4.95.07 7.43.06l-.39-2.84c-2.07.27-4.16.36-6.22-.02m-.61 7.84c.03 2.74.03 5.49.01 8.24 1.26-.54 2.5-1.09 3.76-1.64-1.24-2.57-1.99-5.32-2.56-8.09l-1.21 1.49m5.63-.99c.45 1.38.91 2.75 1.39 4.13 1.01-1.35 2.05-2.69 3.04-4.05-1.48-.04-2.95-.06-4.43-.08zm32.19-16.94c5.37-.01 10.74.06 16.11-.06.19 1.33.37 2.65.56 3.98-5.56.23-11.13.06-16.69.14 0-1.36.01-2.71.02-4.06zm-139.09 1.64c9.69-.08 19.37-.01 29.06-.03-.02 1.62-.03 3.25-.04 4.87-3.96-.02-7.91-.04-11.86.03.06 6.34.03 12.69.02 19.03 4.86.02 9.71-.04 14.57.05-.02 1.49-.02 2.98-.02 4.47-11.36.03-22.71 0-34.07.02v-4.55c4.7.02 9.41.01 14.12.01-.01-6.35-.03-12.7.01-19.05-3.91-.04-7.83-.03-11.74-.02-.01-1.61-.03-3.22-.05-4.83zm-36.92 3.75c6.36-.13 12.74-.13 19.11-.25l.12 3.98c-2.45.01-4.91.01-7.36.01-.02.86-.04 2.58-.05 3.44 2.28 0 4.57 0 6.85.01.01 1.12.03 2.25.05 3.38-.48.23-1.43.7-1.9.93.71.92 1.41 1.84 2.07 2.8-.68.71-1.39 1.39-2.12 2.05.71-.06 2.14-.19 2.86-.25-.01 1.01-.01 3.05-.01 4.07-6.59.01-13.19-.03-19.78.02-.01-1.02-.02-3.05-.03-4.06 2.36 0 4.72.01 7.09.03.01-1.69.01-3.39.03-5.08-2.04.01-4.07.01-6.1.02-.01-.98-.04-2.94-.05-3.92 2.05 0 4.11.01 6.17.02-.03-1.16-.06-2.32-.08-3.48-2.26.02-4.52.02-6.78.01-.03-.93-.07-2.8-.09-3.73m11.79 11.16.06 5c1.04-.01 2.08-.02 3.12-.02-.79-1.14-1.58-2.28-2.38-3.41.5-.45 1.49-1.33 1.99-1.78-.7.05-2.09.16-2.79.21zm147.08 2.07c4.14-3.49 7.76-7.59 10.53-12.26 1.6.86 3.19 1.76 4.76 2.69a94.83 94.83 0 0 0-4.48 5.12c.04 6.32-.01 12.65.02 18.98-1.62-.01-3.24-.02-4.86-.02 0-4.73.02-9.45-.02-14.17-.64.68-1.92 2.04-2.55 2.72-1.14-1.03-2.27-2.05-3.4-3.06z"/><path d="M300.44 223.65c7 .04 14 .02 20.99.01-.02 1.54-.04 3.09-.05 4.64-1.61-.19-3.2-.4-4.79-.62-.2.27-.6.8-.8 1.07-.53 5.56.37 11.22-.4 16.75-1.56 1.93-4.56 1.72-6.83 2.04-.46-1.71-.99-3.39-1.61-5.05l3.64-.16c.09-4.85.1-9.69-.01-14.54-3.36.27-6.73.39-10.1.38-.02-1.51-.03-3.01-.04-4.52z"/></g></svg>