<svg width="400pt" height="400" viewBox="0 0 400 300" xmlns="http://www.w3.org/2000/svg"><path fill="#fff" d="M221.59 186.52c-.53-1.61.02-2.19 1.63-1.74.54 1.58 0 2.16-1.63 1.74z"/><g fill="#c7132c"><path d="M190.95 47.93c10.16-1.68 20.93-.6 30.21 4.05 12.52 5.91 22.1 17.41 25.94 30.69-7.07.14-14.14.07-21.21.04-4.02-9.92-7.66-20.02-12.12-29.74-4.85 11-8.89 22.35-13.67 33.38-4.78-11.13-9.24-22.4-14.01-33.53-8.52 21.17-17.08 42.32-25.75 63.42 3.41 5.11 7.05 10.06 10.61 15.07 19.4.05 38.79-.01 58.19.03 3.45-5.07 6.8-10.2 10.24-15.28-.45-1.11-.88-2.23-1.3-3.34 2.65 0 5.3 0 7.96.01-5.41 16.19-20.19 28.7-36.94 31.75-12.63 2.57-26.21-.33-36.85-7.58-10.62-7.08-18.16-18.55-20.6-31.07-2.67-12.83.22-26.71 7.73-37.44 7.28-10.62 18.85-18.26 31.57-20.46z"/><path d="M167.85 116.48c4.26-11.68 9.27-23.09 14.02-34.59 4.44 11.26 8.89 22.53 13.84 33.58 4.57-11.16 8.99-22.38 13.73-33.46 4.89 11.41 9.34 23.01 14.15 34.46-18.58.05-37.16.02-55.74.01zm59.23-31.43c6.9.03 13.8-.06 20.7.06.02.59.05 1.78.06 2.37-6.69-.02-13.39-.01-20.09-.01-.17-.61-.5-1.82-.67-2.42zm2 4.41c6.37.15 12.76-.25 19.11.17.21.55.61 1.65.82 2.2-6.56.13-13.11.1-19.66.01-.07-.59-.2-1.79-.27-2.38zm1.61 4.84c6.03-.02 12.05 0 18.07-.01.02.61.07 1.83.09 2.44-5.79.01-11.57.03-17.36-.02l-.8-2.41zm1.71 4.8c5.3.02 10.61-.16 15.91.04.21.55.64 1.65.85 2.21-5.16.15-10.32.03-15.47.1-.32-.59-.97-1.76-1.29-2.35zm1.55 4.57c4.98-.27 9.97-.23 14.95-.04-.29.5-.85 1.5-1.13 2-4.07.42-8.25.48-12.32 0-.38-.49-1.13-1.47-1.5-1.96zm2.4 4.52c3.85.03 7.71-.04 11.56.18-.43.74-.89 1.46-1.36 2.17-3.25.44-6.53.14-9.79.04-.1-.6-.31-1.8-.41-2.39z"/></g><g fill="#231816"><path d="M85.54 161.13c2.71.86 5.45 1.65 8.23 2.24-.05 3.8-.24 7.6-.12 11.41 1.06-.06 3.17-.19 4.22-.25-.33-2.8-1.06-5.52-1.56-8.29 5.6.3 11.13 1.84 16.74 1.57 4.21-.9 8.77-2.25 12.87-.15-1.35 5.66-3.29 11.16-4.85 16.76-.93 3.18-3.23 5.77-6.06 7.44.13.43.38 1.29.51 1.72 2.35-.05 4.69-.33 7.01-.74-1.57 6.6-1.29 13.49-.36 20.16.21 1.58-.34 3.12-.57 4.67-3.17-.73-6.39-.88-9.62-.53-4.67-.41-9.38-.67-14.01.21-.33-.51-.98-1.53-1.31-2.04-.05-5.45-.06-10.9-.03-16.35.35-2.33-2.21-3.32-3.7-4.49-1.74 7.28.89 14.68-.42 22.02-4.24-.18-9.5 1.67-12.41-2.5 1.34-2.04 3.09-3.78 5.41-4.67-.06-3.08.28-6.28-.84-9.23-2.56 1.38-4.99 2.99-7.32 4.74-1.35-3.82-3.4-7.42-3.94-11.49 4-1.49 9.3.06 12.16-3.78 1.76-1.46.25-3.53-.14-5.26-2.07.39-4.18.55-6.27.21-.53-3.18-1.64-6.2-2.56-9.28 3.26-.09 6.62.13 9.76-.9 1.06-4.39-1.83-8.72-.82-13.2m13.24 15.06c-.77 2.37-1.51 4.75-2.51 7.03-.9.16-2.71.47-3.61.63 1.46 1.42 2.59 3.44 4.61 4.08 1.29-3.05 3.24-5.78 4.5-8.84.69-2.01-1.62-2.5-2.99-2.9m10.87 1.06c.1 3.18-1.35 5.95-2.69 8.73.85 1.61 2.97 1.04 3.72-.33 1.85-2.76 3.12-5.87 4.37-8.93-1.81.12-3.6.31-5.4.53m-4.6 10.78c-1.03 1.76-2 3.57-2.85 5.43 2.51.24 5.04.19 7.56.09-.02-.37-.05-1.12-.07-1.49-1.88-.94-3.4-2.36-4.64-4.03m-.65 14.15c-.03 1.83-.09 3.67.11 5.5 2.91.47 5.86.5 8.8.67.06-2.15.09-4.3.09-6.46-3-.09-6.02-.17-9 .29zm55.73-39.56c4.64-.4 9.55-1.6 13.74 1.13-1.46 2.26-3.07 4.43-4.37 6.79 5.46.54 11.04.47 16.41-.74 1.54-.45 3.08.21 4.59.48.57 3.35-.39 6.57-1.48 9.7-4.04-.53-8.11-.08-12.16-.34-.15.95-.43 2.85-.57 3.79 2.64-.29 5.32-.43 7.93.2.33 3.18.68 6.39.3 9.58-.65 8.16 1.8 16.43-.41 24.46-5.16.01-10.47.18-15.36-1.72.67-1.15 1.33-2.31 1.99-3.46-3.4-1.04-6.96-.74-10.45-.88-.23-3.95.04-7.95-.67-11.85-.46-.32-1.39-.97-1.86-1.29-.34 5.5.49 11.04-.23 16.53-1.17.4-2.33.81-3.49 1.24-1.26-.38-2.52-.75-3.77-1.11-.69-6.35-.26-12.74-.38-19.11.05-4.28-.57-8.56.06-12.81 3 0 6 .33 9 .41l-1.37-3.34c-3.93.52-7.86.97-11.79 1.45-1.67-3.8-3.32-7.81-2.31-12.04 6.61 2.83 14.08 1.92 21.07 1.64-2.48-2.33-3.86-5.38-4.42-8.71m3.98 18.34c1.17 1.55 2.54 2.98 4.63 3.05.39-1.6.72-3.22 1-4.84-2.07-.12-4.08.37-5.63 1.79m8.61 9.51c-.05.86-.09 1.72-.12 2.58.9.56 1.81 1.13 2.72 1.7.75-1.26 1.47-2.53 2.17-3.82-1.59-.18-3.18-.34-4.77-.46m-15.17.75c-.47 1.48-1 2.94-1.31 4.48 2.93.7 5.06-1.64 4.49-4.5-1.06 0-2.12 0-3.18.02m8.67-.08c.22 2.15.4 4.3.26 6.46 1.11.01 2.22.02 3.34.04-.29-2.17-.48-4.35-.63-6.53l-2.97.03m8.38 7.11c-.1 4.27-.22 8.53-.31 12.8l1.93-.4c.1-4.17.46-8.34.45-12.52l-2.07.12m-9.44 4.38c.02 1.44.05 2.88.09 4.33 1.22.07 2.71 1.14 3.71.01 1.49-1.04.53-3.08.73-4.58-1.52.07-3.03.16-4.53.24zm58.75-41.09c3.02 3.28 7.55 6.78 6.8 11.75l2.86.42c.2-2.3.43-4.59.74-6.87 1.83 1.07 3.52 2.38 5.42 3.34 2.76.17 5.54.23 8.3.17 2.19-.63 4.31-1.49 6.52-2.06.69 4.6-.27 9.14-1.19 13.62-.32 4.54-.42 9.09-1.09 13.6 1.13-1.01 2.2-2.08 3.27-3.16.48.23 1.45.7 1.94.93-.05 2.21-.07 4.41.07 6.62-.81.52-1.61 1.05-2.41 1.57-2.16-.12-4.33-.2-6.48-.02 2.71 3.36 7.5 3.65 11.46 4.31-.56 4.32-3.28 7.66-6.42 10.45-3.49-1.76-6.12-4.57-7.99-7.97-2.84 2.41-4.66 6.31-8.57 7.17-1.97.69-4 1.23-6.06 1.51-.98-2.04-1.27-4.48-3.07-6.01-.53.5-1.59 1.51-2.12 2.02-2.02.88-3.96 1.92-5.89 2.96-1.37-1.72-2.77-3.4-4.28-4.99-.54-1.52-1.08-3.05-1.61-4.58 3.04.2 5.93-.77 8.63-2.09-.26-.89-.53-1.77-.8-2.64-1.58 1.11-3.19 2.18-4.88 3.11-.32-2.43-.62-4.87-.93-7.3 2.5-.23 6.2 1.04 6.74-2.51-1.07.1-3.2.32-4.27.43-.46-.61-1.37-1.83-1.83-2.44-1.18 2.41-2.44 4.79-3.72 7.16-1.81-1.14-3.64-2.26-5.56-3.19-.14-1.09-.29-2.17-.42-3.25 2.03-.81 4.24-1.28 6.05-2.55 6.41-8.56 8.84-19.2 10.79-29.51m2.31 17.09c.93.46 1.9.83 2.86 1.22l.92-2.8c-.8-.61-1.61-1.22-2.41-1.82-.52 1.1-1.13 2.19-1.37 3.4m14.67.22c-.06.43-.16 1.31-.22 1.75 2.8.39 5.88.68 7.11-2.48-2.32.06-4.61.37-6.89.73m-9.24 5.72c-1.58.12-3.13.48-4.32 1.59a86.4 86.4 0 0 0 5.55 1.64c.26 1.7.48 3.44.05 5.15-.84 3.67-.05 7.45-.26 11.17a51.89 51.89 0 0 1-2.81-2.74c-1.22.18-2.55.29-2.99 1.66 1.19.62 2.43 1.12 3.66 1.64l.15-1.18c.67.46 1.33.92 2 1.38-.85 1.37-1.46 2.86-1.6 4.48.53.04 1.6.13 2.14.17.69-2.1 1.71-4.17 1.68-6.44.1-7.59 0-15.19-.74-22.75-.97 1.33-1.79 2.75-2.51 4.23m-10.06 1.95c1.63.42 2.17-.16 1.63-1.74-1.61-.45-2.16.13-1.63 1.74m19.14 1.15c0 .55 0 1.66.01 2.21 2.06-.07 4.13-.25 6.18-.56-.17-.93-.38-1.85-.63-2.75-1.89.14-3.72.7-5.56 1.1m-12.94 6.75-.04 2.57c1.52-.32 2.63-1.31 3.51-2.54-1.16-.03-2.32-.04-3.47-.03m14.96 1.28c.66 1.3 1.33 2.59 2.03 3.87 2.09-1.31 4.24-2.54 6.32-3.86-2.74-.82-5.58-.4-8.35-.01m-2.17 2.69c-.37 2.63-.49 5.29-.21 7.94 1.15-1.01 2.26-2.06 3.34-3.15-1.03-1.61-2.05-3.22-3.13-4.79zm52.95-32.68c2.27-1.7 4.25.92 4.99 2.84-1.7 3.86-.07 8.12-1 12.14-1.37.67-4.11.78-2.8 2.95 1.56 1.45 3.14 2.89 4.64 4.41.12-.83.34-2.48.45-3.3 6.43-.12 12.87-.18 19.29-.64 2.36-.14 4.65-.86 6.64-2.16-.18 3.56-.12 7.12-.17 10.68-3.32.48-7.09-.75-10.12.6-.54 8.32.91 16.65.2 24.96-3.74-.41-7.52-.27-11.22-.87-1.78-.28-3.1-1.72-3.65-3.36-.27-2.56 2.62-1.34 4.16-1.76.96-.82 1.93-1.81 1.98-3.16.9-5.23.51-10.58.56-15.86-3.01.2-6.03.42-9.04.19-.03-.87-.08-2.61-.11-3.47-1.21 1.02-2.46 1.99-3.52 3.16 1.26 5.98.02 12.06.37 18.1-.31 2.71-1.45 5.72-4.32 6.57-2.88-.31-5.34-2.03-7.95-3.14 1.18-1.13 2.96-1.96 3.36-3.68 1.01-4.28.37-8.72.28-13.06-2.2 1.34-3.64 4.77-6.59 3.96-2.29-.31-3.47-2.62-4.98-4.07 4.64-2.76 10.66-4.93 12.59-10.47-.22-.52-.66-1.56-.87-2.08-1.63 1.14-3.24 2.28-4.88 3.39-3.13-1.28-3.9-4.37-3.49-7.48 3.2-1.51 6.8-2.7 9.09-5.56 2.68-2.87 3.34-7.04 6.11-9.83z"/><path d="M311.95 171.76c3.91.59 7.09-2.24 10.75-3.05.06 4.02.4 8.25-1.08 12.06-7.08-.34-14.14.43-21.21.68-.19-3.41-.58-6.81-1.12-10.18 4.21.46 8.45.09 12.66.49zM77.57 230.61c2.78-2.22 6.51-.86 9.73-.98-.02.93-.05 2.78-.07 3.71-1.65-1.82-3.53-3.99-6.29-3.11-2.37 2.05-1.92 5.91-1.06 8.59 1.81 3.23 5.42.33 7.88-.39-2.21 3.04-6.69 3.89-9.77 1.69-3.32-1.96-3.48-7.26-.42-9.51zm11.7-1.13c1.43-.01 2.86-.04 4.3-.08-.27 1.69-.49 3.4-.71 5.1l5.04-.04c-.17-1.68-.36-3.36-.6-5.02 1.45.01 2.89.01 4.34-.01-.52 3.88-.43 7.81-.05 11.7h-4.21c.21-1.86.35-3.72.48-5.58-1.7 0-3.4.01-5.11.04.26 1.85.52 3.69.83 5.54-1.07 0-3.22 0-4.29-.01.28-3.87.3-7.76-.02-11.64zm15-.07c3.43.17 6.86.14 10.3.09 2.24 2.25 4.47 4.5 6.71 6.76l.06-5.47c-.77-.45-1.54-.89-2.3-1.33 1.64.03 3.29.06 4.93.11-.4.29-1.21.87-1.62 1.16.32 3.02-.82 6.42.74 9.16.33.13 1 .39 1.33.53 1.37-1.95 2.32-4.15 3.28-6.31.98-1.81 2-3.58 3.08-5.33 2.36 4.14 4.41 8.48 7.17 12.39-1.81-.16-3.62-.29-5.43-.35-.31-1.15-.64-2.28-.99-3.41-2.01.09-4.02.15-5.65 1.52.52.44 1.56 1.34 2.08 1.79-2.28 0-4.57-.04-6.85.08-2.82-2.95-5.77-5.76-8.69-8.59.48 2.77-1.08 6.43 1.38 8.55-1.16.14-2.32.29-3.47.45 1.68-3.36.9-7.19 1-10.79-1.03-.11-2.05-.2-3.07-.29-.1 3.58-.16 7.17.23 10.74-1.04.07-3.14.22-4.18.3.25-3.92.28-7.85-.04-11.76m23.38 7.51c.88-.04 2.63-.11 3.51-.15-.7-1.17-1.4-2.34-2.09-3.5-.46 1.22-.94 2.43-1.42 3.65zm15.2-7.41c1.74-.01 3.48 0 5.23.02 1.01 2.34 2.03 4.67 3.06 7.01 1.18-2.33 2.3-4.7 3.4-7.08 5.62.28 11.26-.07 16.89.03.02 1.12.05 2.25.09 3.38-1.44-2.26-3.75-2.99-6.37-2.68.24.91.7 2.73.94 3.64 1.21.22 2.07-.37 2.57-1.78.01 1.94.06 3.88.2 5.81-.79-.88-1.51-1.92-2.78-2.09l-.76.08c.02 1.15.05 3.44.07 4.59 2.86.01 5.36-1.16 7.18-3.33-.34 1.2-.67 2.41-1.09 3.59-6.06.3-12.12-.01-18.18.14 2.67-2.18.91-6.14 1.3-9.06-1.64 2.98-2.85 6.17-4.43 9.18-2.59-2.09-2.88-6.12-4.63-8.93.14 2.98-1.74 7.46 1.62 9.18-1.36-.06-2.72-.08-4.08-.09.4-.64.8-1.27 1.2-1.9-.02-2.76-.01-5.52.02-8.28-.36-.36-1.09-1.07-1.45-1.43m15.5.46c-.18 3.5-.16 7-.04 10.5l3.32-.16c.02-3.33.22-6.67-.11-9.98l-3.17-.36zm16.02-.56c3.55.44 7.79-.94 10.75 1.65.96 2.15-1.14 3.35-2.42 4.66 1.33 1.83 2.69 3.63 4.12 5.38-1.36.01-2.71.04-4.06.1-1.61-1.93-3.06-3.99-4.56-6 .33 1.93-.59 4.64 1.69 5.68-2.31-.11-4.63-.1-6.95.06 1.31-.57 1.89-1.53 1.77-2.9.13-2.88.02-5.77-.34-8.63m4.07.43c-.08 1.83-.1 3.67-.06 5.51 1.33-.71 3.91-1.21 3.08-3.34.21-1.72-2.03-1.47-3.02-2.17zm11.18.76c2.8-2.17 6.51-.86 9.73-.98l-.12 3.7c-1.6-2.09-3.77-3.57-6.52-3.32-1.59 3.03-2.41 7.52.31 10.15 2.4.76 4.47-1.04 6.67-1.69-2.28 3.32-7.31 3.84-10.29 1.18-2.77-2.2-2.6-6.96.22-9.04zm32.39-1.66c2.88 3.48 4.13 7.99 7 11.48.58-.03 1.76-.08 2.34-.1.39-3.13.21-6.28.24-9.42-.43-.34-1.29-1.01-1.72-1.34 1.62-.04 3.24-.06 4.87-.08 2.23 2.21 4.44 4.44 6.65 6.68.05-1.81.09-3.61.13-5.4-.53-.28-1.59-.85-2.13-1.13l3.63-.24c-.79 4.02-.4 8.13-.54 12.19-3.42-3.01-6.54-6.32-9.82-9.46-.03 2.4-.04 4.81-.06 7.22.36.38 1.07 1.12 1.42 1.5-3.47-.04-6.94-.03-10.41.04-.03-1.11-.09-2.22-.15-3.32-2.16.31-6.02-1.07-5.43 2.5.49.28 1.46.84 1.94 1.12-4.04-.43-8.09.66-12.16-.31.45-.13 1.34-.4 1.79-.53.03-1.2.09-3.61.13-4.81-1.18.01-3.55.01-4.73.02.14 1.86.3 3.73.51 5.6-1.4-.02-2.81-.04-4.21-.04.28-3.88.34-7.78-.05-11.64 1.07-.02 3.21-.05 4.28-.06-.22 1.69-.38 3.39-.52 5.09 1.6-.01 3.19-.01 4.79-.02-.13-1.69-.27-3.38-.46-5.05h4.29c-.37 3.27-.42 6.57-.48 9.87.2.23.6.68.8.91.46.06 1.38.2 1.84.26 2.62-3.52 3.9-7.82 6.22-11.53m-2.56 7.31c.95 1.21 1.87 1.17 2.76-.1.54-2.42-3.46-2.29-2.76.1zm24.19-6.76c4.02.02 8.03 0 12.05-.02l.36 3.17c-1.24-1.19-2.69-2.12-4.21-2.9-.09 3.39-.38 6.81.1 10.19.5.29 1.49.87 1.98 1.16-2.74-.35-5.51-.22-8.26-.08.64-.21 1.91-.63 2.55-.85.05-3.45.06-6.9-.06-10.35-1.65.72-3.22 1.63-4.31 3.11l-.2-3.43zm12.85 2.36c1.28-3.41 5.2-2.34 8-2.49.02 1.22.05 2.45.09 3.67-1.54-2.21-3.77-3.85-6.5-2.19 2.11 2.95 8.51 3.34 7.1 8.04-1.73 3.28-5.64 2.3-8.63 2.26.03-1.45.07-2.9.14-4.34.74 1.21 1.48 2.42 2.22 3.64l3.93-.12c.36-4.47-7.08-3.71-6.35-8.47zm14.12-2.45c3.59.56 7.85-1.02 10.93 1.43.74 1.81-.48 2.98-1.8 3.99.88 1.04 3.41 1.4 2.7 3.22-.19 3.08-4.37 2.56-6.4 3.16 3.05-.5 4.02-6.36.11-5.46-1.53.93-.12 3.71-.43 5.35l-4.22.08c.04-3.82 1.74-8.55-.89-11.77m5.39 4.75c3.02 1.06 2.36-4.4-.26-4.43.29 1.35-1.23 3.45.26 4.43zm7.17 6.8c2.75-3.7 3.89-8.41 6.82-11.93 2.44 3.98 4.36 8.27 7.01 12.13-1.79-.03-3.59-.04-5.38-.03-.15-.85-.46-2.54-.62-3.39-1.67.31-5.08-1.2-5.35 1.23.22.47.64 1.41.85 1.88-.83.03-2.49.08-3.33.11m4.17-4.27c.57.01 1.7.02 2.27.02 1.43-2.93-3.74-2.99-2.27-.02zm10.71-7.3c1.5.07 3.01.13 4.52.19 2.24 2.22 4.46 4.46 6.7 6.68.02-1.19.07-3.57.09-4.76l-1.62-2.04c3.29.2 6.59.14 9.88-.07-.27 1.79-.45 3.6-.61 5.41 1.67-1.33 3.32-2.66 4.98-3.99l-1.75-1.27c1.85-.02 3.71-.04 5.58-.07-1.97 1.29-4.66 2.28-5.64 4.5 1.54 2.54 3.58 4.72 5.63 6.85-1.69.01-3.39.04-5.07.08-.99-1.89-2.23-3.63-3.62-5.24.07 1.85.2 3.7.44 5.54-1.86-.22-3.72-.42-5.57-.61.4-.25 1.2-.76 1.61-1.01-.05-3.17-.03-6.33-.12-9.48-1.2.24-3.88-.38-3.23 1.83-.11 3.17-.03 6.34-.11 9.5-3.53-2.79-6.62-6.08-9.78-9.26-.01 2.98-.01 5.98.31 8.96l-2.25.08c1.07-3.76 1.86-8.34-.37-11.82z"/></g></svg>