<svg width="400pt" height="400" viewBox="0 0 400 300" xmlns="http://www.w3.org/2000/svg"><path fill="#fff" d="M123.09 214.22c.6-2.04 1.26-4.06 1.91-6.08.68 2.02 1.39 4.03 2.03 6.07-1.32 0-2.63 0-3.94.01z"/><path fill="#039858" d="M170.24 89.45c13.52-7.38 29.51-8.07 44.53-6.63 9.93 1.62 20.48 4.34 27.81 11.68 2.72 2.53 4.08 6.13 4.33 9.79-4.8.01-9.6-.02-14.39.04-1.09-5.38-4.8-9.81-9.75-12.1-10.64-5.3-23.41-5.74-34.63-2.03-5.37 1.92-11.11 4.98-13.33 10.58-1.5 4.25.77 8.74 4.07 11.44 6.74 5.77 15.92 7.1 24.47 7.65 7.13 2.77 13.97 6.27 20.98 9.34-7.04 3.28-14.03 6.92-21.37 9.43-6.88-2.46-13.31-6.04-20.12-8.67-.16-.26-.47-.77-.62-1.03 2.97-1.33 5.93-2.7 8.94-3.97.21-.26.65-.78.86-1.04-8.9-1.14-17.95-3.52-25.42-8.67-3.96-2.79-7.62-7.1-7.17-12.25.4-6.27 5.75-10.65 10.81-13.56m24.87 39.57c.2.24.61.72.81.96 2.37.93 4.62 2.21 7.13 2.75 2.58-.47 4.87-1.88 7.31-2.78.11-.27.32-.82.43-1.09-2.61-1.07-5.18-2.2-7.73-3.38-2.63 1.24-5.28 2.43-7.95 3.54z"/><g fill="#056dba"><path d="M181.76 103.95c7.01-3.34 14.05-6.72 21.27-9.54 7.35 2.66 14.34 6.34 21.49 9.51-3.81 1.66-7.54 3.49-11.33 5.16 9.65 1.02 19.55 3.62 27.43 9.52 3.83 2.89 6.93 7.48 5.98 12.5-1.01 6.31-6.69 10.51-12.01 13.3-12.74 6.5-27.5 7.09-41.5 6.06-9.06-1.13-18.25-3.48-25.88-8.68-4.35-2.95-7.89-7.56-7.95-13.01 4.93-.03 9.86-.02 14.79-.03.51 6.73 6.3 11.21 12.15 13.45 11.69 4.49 25.31 4.19 36.61-1.31 4.16-2.21 8.61-5.76 8.94-10.83.53-4.5-2.79-8.3-6.28-10.64-6.55-4.46-14.58-5.71-22.33-6.12-7.33-2.58-14.17-6.41-21.38-9.34m13 0c2.81 1.13 5.58 2.35 8.3 3.69 2.77-1.27 5.56-2.52 8.37-3.72-2.77-1.27-5.43-2.92-8.42-3.58-2.92.76-5.53 2.35-8.25 3.61zM73.42 159.6c1.68.05 3.36.09 5.04.13.14 1.61.26 3.22.37 4.84 6.21.02 12.42-.01 18.63.04-.4 7.64.88 15.44-.9 22.94-5.85 1.26-11.87.49-17.8.74-.02 2.78-.05 5.56-.18 8.34-1.74.06-3.49.11-5.23.16-.01-2.84-.01-5.68.03-8.52-5.92-.26-11.98.72-17.76-.97-.89-7.54-.32-15.14-.47-22.71 6.07-.01 12.14-.01 18.2 0 .02-1.67.05-3.33.07-4.99m-12.96 9.94c0 4.57-.05 9.14.05 13.71h12.82c.06-4.56.03-9.13.02-13.69-4.3-.04-8.59-.04-12.89-.02m18.31-.01c0 4.58-.27 9.18.35 13.74 4.23-.02 8.46-.03 12.69 0 .45-4.57.47-9.18.02-13.75-4.35.04-8.7.04-13.06.01zm180.98-9.76c1.35-.02 2.71-.03 4.07-.04-.12 1.21-.26 2.43-.4 3.64 2.64-.01 5.29-.01 7.93.01-.01 1.44-.01 2.88-.01 4.33-3.42 0-6.85-.01-10.27.02-.88.96-1.76 1.93-2.64 2.88 4.29 0 8.59.04 12.89.03l.03 4.65c-2.24-.02-4.48-.02-6.71-.02v3.37c2.24-.01 4.47 0 6.71 0l-.03 4.64c-2.22 0-4.44 0-6.66.01-.01 2.47-.01 4.94-.01 7.41 2.11-.74 4.23-1.47 6.37-2.15-.52 1.84.25 4.49-1.59 5.73-2.72 1.51-5.81 2.21-8.88 2.61-1.46-4.31-.82-8.91-.88-13.37-1.71-.25-3.4-.55-5.09-.84l.06-4.07c1.66.01 3.32.03 4.98.05 0-.95.01-1.9.02-2.85-1.88-.52-2.97-1.91-3.39-3.77a33.618 33.618 0 0 1-5.16-3.69c3.41-2.29 6.25-5.27 8.66-8.58zm-35.19-.26c1.66.26 3.33.53 4.99.83.01 1.69.03 3.38.04 5.08 5.42 0 10.85-.03 16.27.03-.11 1.66-.23 3.32-.36 4.98-5.31.12-10.62.06-15.93.1.01 2.4 0 4.81-.01 7.23 5.28-.02 10.56-.05 15.84.03a754.6 754.6 0 0 1-.11 4.7c-5.22.4-10.46.21-15.69.23-.04 2.85-.04 5.69-.01 8.54 6.78.04 13.55.02 20.33-.06-.72 2.01-.82 5.4-3.82 5.04-11.33.14-22.68-.04-34.02.07-2.58.06-5.16-.11-7.69-.64-.04-1.48-.06-2.95-.08-4.42 6.71.01 13.42-.01 20.14.04.02-2.86.03-5.72.01-8.57-5.03-.01-10.06.09-15.09-.11-.09-1.63-.17-3.26-.24-4.89 5.13.03 10.25.06 15.38.01-.02-2.42-.03-4.83-.04-7.24-3.93.02-7.86.02-11.79 0-1.64 1.24-3.18 3.53-5.54 2.9-1.74-.49-2.97-1.98-4.36-3.04 3.45-2.27 6.36-5.23 8.62-8.68 1.5.01 3 .03 4.5.05-.21 1.24-.42 2.48-.64 3.73 3.06-.04 6.12-.05 9.19-.03.02-1.97.06-3.94.11-5.91zm-119.19 37.1c.01-11.95-.13-23.9.05-35.85 14.03.06 28.07.08 42.1 0 .03 10.41-.08 20.83-.06 31.24.33 2.17-1.11 4.74-3.54 4.56-12.85.14-25.7.01-38.55.05m5.04-30.42c-.02 8.46-.01 16.92 0 25.39 10.69.05 21.38.01 32.08.03.03-8.47-.02-16.93.04-25.4-10.71-.04-21.41-.02-32.12-.02zm46.25-5.45c12.56.32 25.16-.37 37.71.4-.06 4.44.41 8.99-1.02 13.29-4.48.86-9.06.82-13.61.83.54.87 1.6 2.6 2.14 3.46 5.23.09 10.47.05 15.7.03-.01 1.63-.04 3.26-.08 4.9-2.18.13-4.35.15-6.53.21-2.04-.02-4.08-.05-6.11-.02 2.32 6.2 9.34 7.5 15.17 7.9-1.3 1.65-2.59 3.31-3.87 4.98-2.93.11-6.02.07-8.57-1.59-4.31-2.25-6.17-6.98-8.45-10.97-5.83-.55-11.72-.46-17.56-.09 0 2.36.01 4.72.03 7.09 3.75-.79 7.43-1.85 11.1-2.91-.37 2.1.45 5.29-2.17 6.17a71.846 71.846 0 0 1-12.99 3.35c-.71-2.19-1.07-4.47-.98-6.77.09-10.08-.03-20.17.09-30.26m4.95 5.47-.08 3.56c9.27-.29 18.53.68 27.78.16 0-1.25-.01-2.49 0-3.73-9.24.03-18.47-.03-27.7.01m-.01 8.99c-.01.88-.04 2.64-.06 3.52 4.88.08 9.75.08 14.63-.01l-1.86-3.48c-4.24-.01-8.47-.03-12.71-.03zm112.03-13.36c.47-.29 1.41-.87 1.87-1.17 7.97 0 15.93.02 23.9-.01-.14 5.47.12 10.95-.12 16.42.03 1.71-1.45 3.48-3.25 3.34-3.16.18-6.32.04-9.47.12 1.11 1.44 2.15 2.97 3.46 4.24 3.44-.63 6.6-2.2 9.85-3.44-.14 1.87-.29 3.74-.49 5.61-1.66.62-3.31 1.25-4.95 1.91 2.75 2.05 5.98 3.23 9.28 4.06-1.76 1.69-3.57 3.32-5.52 4.78-7.61-3.06-12.66-10.01-16.17-17.12l-3.5-.12c-.02 3.4-.03 6.81.03 10.22 2.03-.75 4.1-1.38 6.14-2.11-.26 1.94-.57 3.88-.99 5.8-2.93.92-5.86 2.43-9.01 2.16-1.69-1.34-1.13-3.67-1.29-5.53.17-9.72-.24-19.45.23-29.16m4.84 3.44c.02.84.05 2.54.07 3.38 5.31.04 10.62.03 15.93 0-.01-1.13-.03-2.26-.03-3.39-5.33 0-10.65-.03-15.97.01m-.02 7.98c.05.98.11 1.96.17 2.95 5.24-.01 10.48.01 15.72-.01.05-.97.11-1.94.17-2.91-5.36-.04-10.71-.04-16.06-.03zm27.16-5.33c4.26-1.83 8.34-4.19 11.43-7.73 1.73.01 3.45.04 5.19.08-2.47 4.23-5.57 8.72-10.35 10.48-2.59.82-4.43-1.5-6.27-2.83zm19.92-5.68c7.95-.69 15.98-.67 23.94-.03l-.24 4.35c-7.11 1.2-14.34.41-21.51.69-.49-.28-1.48-.83-1.98-1.1l-.21-3.91z"/><path d="M113.57 168.68c8.57.09 17.15.06 25.72.03-.02.97-.04 2.9-.06 3.87-3.23.15-6.46.17-9.69.16-.02.97-.06 2.91-.07 3.88h8.89l-.12 3.85c-2.92.12-5.84.14-8.76.13.02 1.59.04 3.18.07 4.78.84 0 2.53-.01 3.37-.01-.15-.95-.3-1.9-.44-2.85 1.34-.01 2.69 0 4.04 0 .48.95.92 1.92 1.35 2.9.69-.09 2.09-.26 2.78-.35-.14 1.19-.28 2.38-.41 3.58-9.22.97-18.56.67-27.81.21-.03-1.17-.07-2.34-.1-3.51 4.05-.03 8.1-.02 12.15-.01-.01-1.57-.03-3.15-.04-4.72-3.25-.01-6.49-.04-9.74-.14-.04-1.29-.07-2.58-.11-3.87 3.31 0 6.61-.01 9.92-.02-.03-.96-.08-2.88-.11-3.84-3.59-.01-7.18 0-10.77-.13-.02-.99-.04-2.96-.06-3.94zm193.07 8.5c4.3-1.39 7.86-4.24 10.96-7.46l4.46.16c-1.03 2.37-2.74 4.49-3.24 7.06-.31 6.55.17 13.12-.24 19.68-1.64.05-3.28.09-4.91.13.01-5.39-.02-10.78.06-16.17-2.78.65-5.49.01-7.69-1.77l.6-1.63zm15.86-5.45c9.76.14 19.52.11 29.28-.02-.23 1.57-.46 3.15-.68 4.72-2.18.36-4.36.68-6.54.99-.36 6.34 1.15 12.99-1.05 19.09-3.95.66-7.98.84-11.93.16-.51-1.67-1-3.34-1.47-5.01 3.17.1 6.34.13 9.52.13-.02-4.87-.02-9.74 0-14.61-5.33.02-10.66-.02-15.99.02-.4-1.82-.79-3.64-1.14-5.47zM57.36 206.34c3.11-2.84 7.6-1.95 11.43-1.91l.12 3.26c-3.13.03-7.14-1.17-9.36 1.77-.46 1.79-.96 4.11.4 5.64 2.01 2.54 5.65 1.28 8.42 1.86 1.41.67.34 2.21.32 3.35-3.78.08-7.94.38-11.18-1.96-3.77-2.82-3.84-9.09-.15-12.01zm14.38-1.86c1.34-.02 2.68-.05 4.02-.06.02 2.05.03 4.1.03 6.16 2.51 0 5.02.01 7.52.01 0-2.05 0-4.1-.01-6.14 1.33 0 2.67.01 4 .02-.01 5.11-.02 10.21-.01 15.32-1.33 0-2.66.01-3.99.02.01-2.04.01-4.09.02-6.12h-7.54c0 2.06 0 4.12-.01 6.19l-4.04-.15c.08-5.08.07-10.17.01-15.25zm84.28.08c1.23-.06 2.47-.11 3.71-.16.01 5.14.03 10.29.01 15.43-1.33-.03-2.66-.04-3.99-.06 0-3.11-.03-6.22-.13-9.32-1.33 1.74-2.68 3.46-4.06 5.16-1.5-1.66-2.93-3.37-4.32-5.12-.01 3.03-.04 6.06-.04 9.09-1.27.28-2.54.56-3.8.86-.26-5.32-.16-10.65-.17-15.97 1.18-.02 2.37 0 3.56.07 1.57 1.84 3.16 3.66 4.8 5.44 1.47-1.81 2.96-3.6 4.43-5.42zm7.62-.08c1.35-.02 2.69-.03 4.04-.05-.01 5.11-.02 10.22 0 15.33-1.34.03-2.67.05-4 .07-.01-5.11.01-10.23-.04-15.35zm7.9-.05c1.27.01 2.54.03 3.82.05 2.53 3.08 5.11 6.12 7.87 9 .04-3.03.06-6.05.09-9.08.98.02 2.94.07 3.92.1 0 5.1 0 10.2-.01 15.31-1.23-.02-2.45-.06-3.68-.09-2.65-3.2-5.35-6.34-8.04-9.5 0 3.19 0 6.39-.02 9.58l-3.97-.03c.04-5.12.03-10.23.02-15.34zm21.39.38c2.73-.96 5.7-.28 8.52-.15.13 1.03.26 2.07.4 3.1-2.62-.26-5.24-.44-7.86-.19 1.88 3.31 6.86 2.77 8.29 6.43.86 2.24-.39 4.67-2.6 5.46-2.97 1.49-6.24.39-9.29-.13l-.15-3.45c2.72.87 5.57 1.12 8.41.87-1.62-3.37-6.29-3.07-8.05-6.28-.71-2.19.07-4.77 2.33-5.66zm24.31-.48c1.32.09 2.65.18 3.98.28-.24 5.02.22 10.06-.3 15.07-1.36.1-2.73.09-4.1.1l.03-6.09c-2.43 0-4.85-.01-7.27-.03-.04 2.04-.07 4.08-.1 6.13-1.29 0-2.58.01-3.87.03 0-5.12 0-10.23-.04-15.35.98 0 2.95-.01 3.93-.01.01 2.04.02 4.08.01 6.13 2.41-.02 4.82-.02 7.24 0 .15-2.09.32-4.17.49-6.26zm7.09.11c3.77 0 7.54.01 11.31.03-.04 1.01-.07 2.02-.11 3.04-2.41-.03-4.82-.06-7.23-.07 0 .77-.01 2.33-.01 3.11 2.34-.02 4.69-.03 7.03-.04.01.74.01 2.21.01 2.94-2.35.02-4.7.02-7.04.03-.01 1.1-.01 2.21-.01 3.31 2.45.01 4.9.01 7.35 0 .01 1.13 0 2.27-.03 3.41-3.73-.07-7.46-.07-11.18.01-.1-5.26-.09-10.51-.09-15.77zm14.88-.09c1.24.06 2.49.12 3.73.19 2.55 3.06 5.21 6.04 7.7 9.16.04-3.08.05-6.16.03-9.23 1.32-.02 2.65-.03 3.97-.05-.01 5.26.08 10.52-.05 15.78-1.39-.46-3.18-.23-4.19-1.48-2.56-2.67-4.86-5.57-7.19-8.43-.04 3.12-.05 6.24-.04 9.36l-3.96.24c-.05-5.18-.03-10.36 0-15.54zm44.56.17c3.52.28 7.55-.97 10.69 1.07 2.11 1.27 1.1 4.05.42 5.86 2.13 1.8 2.14 4.42 1.77 6.97-3.82 2.09-8.23 1.84-12.44 1.8-.67-5.21-.35-10.47-.44-15.7m4.02 3.02c-.01 1.04-.02 2.08-.02 3.13l3.78-.21c.02-.95 0-1.9-.06-2.84-1.24-.03-2.47-.06-3.7-.08m.01 6.08c0 1.07-.01 2.15-.01 3.23 1.63-.05 3.27-.11 4.91-.19-.07-1.02-.18-2.03-.32-3.03-1.53-.02-3.06-.02-4.58-.01zm16.59-9.19c1.53.03 3.07.07 4.61.1 2.16 5.24 4.69 10.32 6.7 15.63-1.32.02-2.63.05-3.94.08-.51-1.02-1-2.04-1.49-3.05-2.28 0-4.56.01-6.84.02-.42.99-.83 1.99-1.24 2.99-1 .01-2.99.02-3.99.02 1.92-5.32 4.09-10.54 6.19-15.79m2.21 4.19c-.61 1.89-1.18 3.8-1.72 5.72 1.38-.03 2.76-.05 4.14-.08-.79-1.89-1.59-3.78-2.42-5.64zm10.85-4.17 3.76.06c2.6 3.17 5.36 6.21 7.99 9.36.01-3.15.02-6.29.01-9.43 1.34.03 2.69.06 4.04.1-.04 5.23 0 10.45 0 15.68-1.11-.01-2.21-.02-3.32-.02-2.89-3.21-5.69-6.5-8.44-9.83-.05 3.14-.07 6.28-.09 9.43l-3.97.06c-.02-5.14-.01-10.27.02-15.41zm19.24.06 4.02-.06.03 7.01c1.57-2.36 3.2-4.67 4.79-7.01 1.47.02 2.94.05 4.41.09-1.69 2.43-3.35 4.88-4.96 7.35 2.26 2.73 4.53 5.46 6.71 8.26-1.61.03-3.22.05-4.82.08-2.12-2.42-4.23-4.87-6.15-7.45-.02 2.54-.04 5.09-.11 7.64-1.31-.25-2.62-.51-3.92-.76.05-5.05.03-10.1 0-15.15zM91.4 220.17c-.23-5.26-.18-10.53-.09-15.8l3.92.16c-.08 5.24.3 10.52-.51 15.73-1.11-.04-2.21-.07-3.32-.09zm7.41-15.67c1.34-.02 2.68-.02 4.02 0 2.59 3.05 5.22 6.08 7.76 9.17.03-3.07.04-6.13.03-9.2 1.01-.01 3.03-.04 4.04-.05-.03 5.15-.01 10.31-.05 15.47-.88-.05-2.63-.14-3.51-.19-2.61-3.14-5.42-6.11-7.91-9.35-.01 3.13-.02 6.26-.01 9.39-1.46-.01-2.91-.02-4.37-.04.04-5.07.05-10.14 0-15.2zm17.59 15.34c2.1-5.12 4.07-10.29 6.18-15.4 1.57 0 3.14.01 4.72.02 2.16 5.11 4.43 10.18 6.69 15.26-1.39.04-2.79.08-4.18.13-.5-1.02-.99-2.04-1.5-3.05-2.19 0-4.38-.02-6.56-.01-.3.97-.59 1.94-.89 2.92-1.49.04-2.98.09-4.46.13m6.69-5.62c1.31-.01 2.62-.01 3.94-.01-.64-2.04-1.35-4.05-2.03-6.07-.65 2.02-1.31 4.04-1.91 6.08zm136.97-8.14c3.62-2.69 8.47-1.93 12.5-.76-.04 1.14-.09 2.28-.13 3.42-3.07-.63-6.84-2.33-9.53.09-2.5 1.84-2.14 6.3.83 7.47 1.55.37 3.15.36 4.73.49.11-.55.32-1.64.43-2.18h-2.25c-.02-.76-.07-2.27-.1-3.02 2.06-.01 4.12-.02 6.18-.04.02 2.34.03 4.69.02 7.03-3.66 1.46-7.94 1.96-11.64.42-4.71-2.35-5.37-9.9-1.04-12.92z"/></g></svg>