<svg version="1.1" id="图层_1" xmlns="http://www.w3.org/2000/svg" x="0" y="0" viewBox="0 0 100 60" style="enable-background:new 0 0 100 60" xml:space="preserve"><style>.st1{fill:#fff}</style><path d="M100 55c0 2.8-2.3 5-5 5H5c-2.8 0-5-2.3-5-5V5c0-2.8 2.3-5 5-5h90c2.8 0 5 2.3 5 5v50z" style="fill:#009a78"/><path class="st1" d="M33.1 37.7H31l4.4-11.8h2.4l4.5 11.8h-2.4l-1-2.8h-4.7l-1.1 2.8zm1.7-4.6h3.3l-1.7-4.5-1.6 4.5zM48 37.7v-2.3c-.3 1.5-1.1 2.4-2.7 2.4s-3.2-1.3-3.2-4.1 1.6-4 3.2-4 2.4.9 2.7 2.4v-6.2h2v11.8h-2zm-1.8-1.3c1 0 1.7-.9 1.7-2.7 0-1.7-.7-2.6-1.7-2.6s-1.8.9-1.8 2.6c0 1.8.8 2.7 1.8 2.7zm9.4 1.3h-1.4l-3.4-7.9h2.3l2 5.1 2-5.1h2l-3.5 7.9zm7.5-8c1.6 0 3.2 1 3.5 2.7l-1.9.6c-.3-1.4-.9-2-1.8-2-1.1 0-1.7 1-1.7 2.8 0 1.9.8 2.8 1.8 2.8s1.5-.7 1.8-2.2l1.9.7c-.3 1.7-1.9 2.9-3.5 2.9-2.3 0-4.2-1.7-4.2-4.1-.1-2.5 1.8-4.2 4.1-4.2zm14.4 2.2c0 .4.4.6 1.7.9 2 .4 2.7 1.2 2.7 2.5 0 1.4-.9 2.6-3.1 2.6-1.6 0-2.8-.6-3.4-1.9l1.4-.8c.4.8 1.1 1.1 2 1.1.8 0 1.2-.3 1.2-.7 0-.5-.4-.7-1.7-1-1.8-.4-2.7-1.1-2.7-2.5 0-1.6 1.3-2.4 2.9-2.4 1.3 0 2.6.5 3.2 1.9l-1.4.7c-.4-.8-1-1-1.7-1-.7-.1-1.1.2-1.1.6zm7.5 5.8h-2V25.9h2v6.5c.3-1.7 1.1-2.7 2.7-2.7 1.2 0 2.4.8 2.4 2.5v5.6h-2V33c0-.4-.1-.7-.3-1-.2-.3-.5-.5-1-.5-1.3 0-1.7 1.3-1.7 1.9l-.1 4.3zm-15.7-4.9-1.9-.7c.1-.4.3-.8.5-1.1.2-.3.5-.6.8-.8.3-.2.7-.3 1.1-.4.4-.1.9-.1 1.3-.1 1.2 0 2 .2 2.6.6.5.4.8 1 .8 1.9v5.5h-2.1v-1.6l-.7.8c-.3.4-.7.7-1.2.8h-.1c-.3.1-.6.1-.9.1-.7 0-1.2-.2-1.6-.6s-.6-.9-.6-1.5.1-1 .4-1.3c.3-.3.6-.5 1.1-.7.5-.2 1-.3 1.6-.4.6-.1 1.3-.3 2-.6v-.3c0-.4-.1-.7-.3-.9-.2-.2-.6-.3-1-.3-.6 0-1 .1-1.2.4-.2.2-.4.6-.6 1.2zm.3 2.6c0 .3.1.5.3.7.2.2.4.3.8.3.1 0 .3 0 .5-.1s.4-.2.5-.3c.2-.1.3-.3.5-.5.1-.2.3-.4.3-.7v-1.3c-1.1.3-1.9.5-2.3.8-.4.3-.6.7-.6 1.1zm-46.4-6.1H26l.2-.7h-3.3l-.2-.7h3.8l.2-.6h-4.3l-.3-.7H27l.2-.7h-5.3l-1.5-3.8h-3.6l-1.4 3.8H10l.3.7h8.1l.2-.7 1.3 3.4.6 1.7h-3.8l.7-1.7.2-.7H11l.3.7h2.8l-.7 1.7H10l.3.7h10.5l.2.6H10.5l.3.7h10.5l.2.7H11l.3.7h.8l-1.3 3.3h3.4l1.3-3.3h6.3l1.3 3.3h3.3l-1.3-3.3h.9l.2-.7h-1.3l-.3-.7h1.9l.2-.7h-2.4l-.2-.6H27l.2-.7h-3.4z"/><path class="st1" d="M18.1 27.3h-7.6l.3.6h7.1z"/></svg>