<svg version="1.1" id="图层_1" xmlns="http://www.w3.org/2000/svg" x="0" y="0" viewBox="0 0 100 60" style="enable-background:new 0 0 100 60" xml:space="preserve"><style>.st1{fill:#fff}</style><g id="Page-1"><path d="M100 55c0 2.8-2.3 5-5 5H5c-2.8 0-5-2.3-5-5V5c0-2.8 2.3-5 5-5h90c2.8 0 5 2.3 5 5v50z" style="fill:#323232"/><g id="astropay-logo-white"><path id="Shape" class="st1" d="m20.4 20.7-4.5 14.7h2.6l1.3-4.3h3.7l1.3 4.3h2.7L23 20.7h-2.6zm2.5 8h-2.4l1-3.2c.1-.2.1-.4.2-.7.1.2.1.4.2.7l1 3.2z"/><path id="Path" class="st1" d="M32.1 28.7c-1.2-.5-1.3-.8-1.3-1.2 0-.5.4-.8 1-.8.7 0 1.3.3 1.5.5l.5.4.7-2.3-.3-.3c-.6-.4-1.5-.7-2.4-.7-2 0-3.5 1.4-3.5 3.4 0 1.8 1.4 2.8 2.7 3.3 1.2.5 1.3.8 1.3 1.3 0 .8-.8.9-1.2.9-.7 0-1.5-.3-1.9-.6l-.5-.3-.7 2.4.3.2c.7.5 1.7.8 2.7.8 2.2 0 3.7-1.4 3.7-3.5 0-2.2-1.5-3.1-2.6-3.5z"/><path id="Path_1_" class="st1" d="m38.8 21.8-2.5.9v1.7h-1.4v2.5h1.4v4.9c0 1.4.2 2.3.8 3 .5.6 1.2.9 2.1.9.8 0 1.3-.2 1.6-.3l.3-.1-.1-2.5-.7.2c-.2.1-.4.1-.8.1-.3 0-.7 0-.7-1.4v-4.8h2.3v-2.5h-2.3v-2.6z"/><path id="Path_2_" class="st1" d="m47.5 24.4-.5-.1h-.5c-.8 0-1.6.4-2.2 1v-.8h-2.4v.6c0 .8.1 1.8.1 3v7.3h2.6v-5.8c0-.3 0-.5.1-.7.2-1.1.8-1.8 1.7-1.8h.5l.6.1v-2.8z"/><path id="Shape_1_" class="st1" d="M52.1 24.3c-2.9 0-5 2.4-5 5.8 0 3.3 2 5.6 4.8 5.6 2.4 0 5-1.8 5-5.8 0-3.3-2-5.6-4.8-5.6zm2.1 5.6c0 1.9-.9 3.3-2.3 3.3-1.3 0-2.2-1.4-2.2-3.2 0-1.2.5-3.3 2.3-3.3 1.8 0 2.2 2.1 2.2 3.2z"/><path id="Shape_2_" class="st1" d="M65.3 21.8c-.8-.9-2.1-1.3-3.8-1.3-1.1 0-2.2.1-3.1.3l-.4.1v14.6h2.6V30h.8c1.7 0 3.2-.6 4.1-1.7.7-.8 1.1-1.9 1.1-3.3-.1-1.3-.5-2.4-1.3-3.2zm-1.4 3.3c0 2.1-1.6 2.4-2.6 2.4-.3 0-.6 0-.8-.1V23c.3 0 .6-.1 1-.1 1.1.1 2.4.5 2.4 2.2z"/><path id="Shape_3_" class="st1" d="M74.3 32.5v-3.7c0-2.9-1.4-4.5-3.9-4.5-1.2 0-2.4.4-3.2.9l-.3.2.7 2.3.5-.4c.5-.4 1.3-.6 2.1-.6.5 0 .9.1 1.2.4.2.2.3.6.4 1-2 .1-3.5.6-4.4 1.6-.6.7-.9 1.6-.9 2.6 0 1.7 1.1 3.4 3.2 3.4.9 0 1.8-.3 2.4-.9l.1.6h2.5l-.1-.6c-.3-.6-.3-1.4-.3-2.3zm-4.4.7c-.4 0-1-.1-1-1.2 0-.4.1-.7.3-.9.3-.3 1-.7 2.5-.7V32c-.2.5-.8 1.2-1.8 1.2z"/><path id="Path_3_" class="st1" d="m81.3 24.5-1.9 6.1c-.1.1-.1.3-.1.5 0-.1-.1-.3-.2-.4l-2-6.1h-2.8l3.5 9.7c.1.1.1.2.1.2 0 .1-.1.2-.1.2-.3.7-.8 1.4-1.2 1.8-.5.5-1.1.7-1.3.8l-.5.2.7 2.4.4-.1c.3-.1 1.2-.3 2.2-1.3 1.3-1.2 2.1-3.2 3.2-6.3l2.7-7.7h-2.7z"/><path id="Path_4_" d="M25.5 24.5c1.7-1.8 4.5-2.9 7.5-2.9 1.2 0 2.3.2 3.4.5h.1l2-.6-.9-.4c-1.6-.7-3.6-1-5.6-1-2.9 0-5.5.8-7.5 2.1l-.2.1.8 2.6.4-.4z" style="fill:red"/></g></g></svg>