<svg version="1.1" id="图层_1" xmlns="http://www.w3.org/2000/svg" x="0" y="0" viewBox="0 0 100 60" style="enable-background:new 0 0 100 60" xml:space="preserve"><style>.st1{fill-rule:evenodd;clip-rule:evenodd;fill:#fffffe}</style><path d="M100 55c0 2.8-2.3 5-5 5H5c-2.8 0-5-2.3-5-5V5c0-2.8 2.3-5 5-5h90c2.8 0 5 2.3 5 5v50z" style="fill-rule:evenodd;clip-rule:evenodd;fill:#18347b"/><path id="Fill-1" class="st1" d="M78 24.8h-2.9L73.4 32l-.2 1c-.2 0-.3.1-.5.1-.3.1-.6.1-.9.1-.4 0-.7-.1-.9-.2-.2-.1-.4-.3-.5-.5-.1-.2-.1-.4-.1-.7 0-.3.1-.6.2-.9l.9-3.7.6-2.5h-3l-1.3 5.7c-.2.7-.3 1.3-.3 2 0 .6.1 1.2.3 1.7.2.5.6.9 1.1 1.1.5.3 1.2.4 2.1.4.6 0 1.2-.1 1.7-.2h.1c-.1.6-.4 1.1-.8 1.4-.4.4-1.1.6-1.9.6-.4 0-.7 0-1-.1l-.6 2.4c.4.1.8.1 1.3.1.9 0 1.7-.1 2.3-.3.7-.2 1.2-.5 1.7-.9s.9-.9 1.2-1.6c.3-.6.6-1.4.8-2.2l2-8.5.3-1.5"/><path id="Fill-2" class="st1" d="M63.7 27.3c-1.4 0-1.6 0-2.2.3-.4.2-.7.5-1 .9-.3.4-.5.8-.7 1.3-.2.5-.2 1-.2 1.5 0 .6.1 1.1.3 1.5.2.4.6.6 1.2.6.3 0 .6-.1.8-.2.2-.1.5-.3.8-.6 0-.3.1-.7.1-1 .1-.4.1-.7.2-1l.7-3.3m2.1 3.7c-.2.8-.2 1.5-.2 2.3.1.8.4 1.9.6 2.5h-2.8c-.3-.6-.3-.9-.4-1-.4.3-.8.6-1.2.8-.4.2-.9.3-1.5.3-.7 0-1.2-.1-1.7-.3-.5-.2-.8-.5-1.1-.9-.3-.4-.5-.8-.6-1.4-.1-.5-.2-1.1-.2-1.7 0-.9.2-1.8.5-2.6s.8-1.5 1.3-2.1c.6-.6 1.9-1.9 4.2-1.9h4.5l-1.4 6"/><path id="Fill-3" class="st1" d="M48.8 33.2c.2.1.5.1.8.1.5 0 1-.1 1.4-.3.4-.2.8-.5 1.1-.8.3-.3.5-.8.7-1.2.2-.5.2-1 .2-1.6 0-.6-.1-1.1-.4-1.5-.2-.4-.7-.6-1.3-.6h-1.1l-1.4 5.9zm7.1-4.1c0 1-.2 1.9-.5 2.7-.3.8-.8 1.5-1.3 2.1-.6.6-1.2 1-2 1.4-.8.3-1.6.5-2.5.5-.4 0-.9 0-1.3-.1l-.9 3.6h-2.9l3.4-14.4h3.9c.7 0 1.4.1 1.9.3.5.2 1 .5 1.3.9.3.4.6.8.8 1.4 0 .5.1 1 .1 1.6z"/><path id="Fill-4" class="st1" d="M42.7 33.2c-.4 0-.7-.1-.9-.2-.2-.1-.4-.3-.5-.5-.1-.2-.1-.4-.1-.7 0-.3.1-.6.2-.9l.9-3.7h3.3l.6-2.5h-3.3l.8-3.1-3.1.5-2 8.4c-.2.7-.3 1.3-.3 2 0 .6.1 1.2.3 1.7.2.5.6.9 1.1 1.1.5.3 1.2.4 2.1.4.6 0 1.2-.1 1.7-.2h.2l.6-2.6c-.2.1-.4.1-.6.2-.4.1-.7.1-1 .1"/><path id="Fill-5" class="st1" d="m35.3 24.8-2.6 10.9h2.9l2.6-10.9h-2.9"/><path id="Fill-6" class="st1" d="m38.5 23.6.4-1.9H36l-.4 1.9h2.9"/><path id="Fill-7" class="st1" d="M26.3 33.3c.5 0 .9-.1 1.3-.3.4-.2.8-.5 1-.9.3-.4.5-.8.7-1.3.2-.5.3-1 .3-1.5 0-.6-.1-1.1-.3-1.5-.2-.4-.6-.5-1.2-.5-.2 0-.4 0-.7.1-.3.1-.5.2-.8.4l-1.3 5.4c.4.1.5.1.6.1h.4zm2.5-8.5c.6 0 1.2.1 1.6.3.5.2.8.5 1.1.9.3.4.5.8.7 1.3.1.5.2 1.1.2 1.7 0 .9-.2 1.8-.5 2.6s-.8 1.5-1.4 2.1c-.6.6-1.3 1.1-2 1.4-.8.3-1.6.5-2.5.5h-.6c-.3 0-.6 0-1-.1s-.8-.1-1.2-.2c-.4-.1-.8-.3-1.2-.4l3.4-14.4 3-.5-1.2 5.1c.3-.1.5-.2.8-.3.2.1.5 0 .8 0z"/></svg>