<svg version="1.1" id="Layer_1" xmlns="http://www.w3.org/2000/svg" x="0" y="0" viewBox="0 0 100 60" style="enable-background:new 0 0 100 60" xml:space="preserve"><style>.st0{fill:#002c6a}</style><path class="st0" d="M100 55c0 2.8-2.3 5-5 5H5c-2.8 0-5-2.3-5-5V5c0-2.8 2.3-5 5-5h90c2.8 0 5 2.3 5 5v50z"/><path class="st0" d="M78.6 16.3H21.4c-.6 0-1.1.5-1.1 1.1v25.1c0 .6.5 1.1 1.1 1.1h57.2c.6 0 1.1-.5 1.1-1.1v-25c0-.7-.5-1.2-1.1-1.2z"/><path d="M59.7 23.3c-.2-.4-.3-.6-1-.6H57c-.7 0-.8.2-1 .6-.2.4-5 13.5-5 13.5s-.3.6.4.6h1.2c.3 0 .7-.1.9-.6.2-.5.9-2.5.9-2.5h6.8s.7 2 .9 2.5c.2.5.6.6.9.6h1.2c.7 0 .4-.6.4-.6s-4.8-13.2-4.9-13.5zm-4.3 8.6 2.4-6.8 2.6 6.8h-5zm-8.3-9.3h-5.4c-.5 0-.5.4-.5.6v13.6c0 .6.5.5.6.5h1.4c.2 0 .5-.2.5-.4V32h3.5c2.6 0 4.7-2.1 4.7-4.7s-2.2-4.7-4.8-4.7zm-.1 7.1h-3.4V25H47c1.3 0 2.3 1 2.3 2.3.1 1.4-1 2.4-2.3 2.4zm31.9-13.6H21.1c-.6 0-1.1.5-1.1 1.1v25.6c0 .6.5 1.1 1.1 1.1h57.8c.6 0 1.1-.5 1.1-1.1V17.2c0-.6-.5-1.1-1.1-1.1zm-50.4 8.4h3.8c1 0 1.8.8 1.8 1.8s-.8 1.8-1.8 1.8h-.7c-.4 0-.5.2-.5.5V31c0 .4.2.5.6.5h1.6c1.1 0 2 .9 2 2 0 1-.8 1.8-1.8 1.9h-4.4c-.3 0-.5-.2-.6-.6V24.5zm-6.9-6.3c0-.3.2-.5.5-.5h3v3.5h-3.5v-3zm56.8 23.6c0 .3-.1.6-.6.6H22.1c-.3 0-.5-.2-.5-.5V24.7h5.8l-2.4.9v12.9c0 .4.2.5.5.6h7.9c2.7-.1 4.9-2.3 4.9-5 0-1.8-.9-3.4-2.3-4.3.9-.8 1.5-2 1.5-3.3 0-3.3-2.4-5.2-5.7-5.2h-3.3v-3.5h49.3c.4 0 .6.3.6.6v23.4zm-3.9-19.2h-1.4c-.3 0-.7.1-.9.6l-.7 1.2-2.7 4.7-2.7-4.7-.7-1.2c-.2-.5-.6-.6-.9-.6h-1.4c-.7 0-.4.6-.4.6s2.7 4.8 4.9 8.7v4.9c0 .3.2.5.5.5h1.3c.2 0 .6 0 .6-.5v-5c2.2-3.9 4.9-8.7 4.9-8.7s.3-.5-.4-.5z" style="fill:#fff"/></svg>