<svg xmlns="http://www.w3.org/2000/svg" viewBox="0 0 100 60" style="enable-background:new 0 0 100 60" xml:space="preserve"><path d="M100 55c0 2.8-2.3 5-5 5H5c-2.8 0-5-2.3-5-5V5c0-2.8 2.3-5 5-5h90c2.8 0 5 2.3 5 5v50z" style="fill:#00aeef"/><path d="M81.5 22.8c.7-.1 1.3-.1 2-.1.3 0 .6 0 .8.2.5.3.7.9.6 1.5-.2 2.9-.3 5.7-.5 8.6 0 .8-.5 1.7-1.4 1.9-.7.1-1.4.3-2.1.4-.6.2-1.3.2-1.9.3-.3 0-.5.1-.8.1.6-.3 1.2-.6 1.8-1 .8-.5 1.6-1.1 2.2-1.9.6-.8.9-1.7 1-2.7 0-1-.2-2-.5-3-.3-1.5-.8-2.9-1.2-4.3z" style="fill:#fec524"/><path d="m72.2 23.2 6.3-.3c.6 1.9 1.2 3.7 1.7 5.6.2.7.5 1.5.3 2.3-.2.7-.6 1.3-1.2 1.6-.5.4-1.1.7-1.7.8-.6.1-1.2-.1-1.6-.5-.3-.3-.4-.6-.6-.9-.3-.7-.6-1.4-.8-2.1-.7-2.1-1.6-4.3-2.4-6.5z" style="fill:#e63c2e"/><path d="M19.9 23.6c2-.4 4.2-.1 6.1.8-.3.9-.6 1.8-1 2.7-.9-.5-1.8-.8-2.8-.9-.9-.1-1.9.1-2.6.7-.7.6-1.2 1.5-1.3 2.5-.1 1.1 0 2.3.6 3.2.4.7 1.2 1.1 2 1.3 1.5.3 3-.1 4.3-.9.2.9.4 1.9.7 2.8-.8.4-1.7.6-2.6.8-1.2.2-2.4.2-3.6-.1-1.4-.3-2.6-1.1-3.4-2.2-.8-1.1-1.2-2.5-1.2-3.9v-.5c0-1.4.4-2.8 1.3-4 .7-1.2 2.1-2 3.5-2.3zm48-.1c.3-.1.5-.1.8-.1 1.2 2.8 2.3 5.7 3.4 8.5.4.9.8 1.8 1.4 2.7.5.8 1.3 1.3 2.2 1.4h.2c-2.2.4-4.5.8-6.8 1.2-.3.1-.6.1-.9 0-.8-.1-1.3-.9-1.2-1.6-.1-3.4-.3-6.7-.4-10.1-.1-.8.4-1.7 1.3-2zm-25.2.4c.9-.4 1.9-.4 2.9-.4 1.5 0 3 .4 4.2 1.1-.2.9-.4 1.8-.6 2.6-1.1-.6-2.4-1-3.7-1.1-.5 0-1.1 0-1.6.2-.4.2-.5.7-.4 1.1.1.3.4.5.6.6.5.3 1.1.4 1.6.6 1 .3 2.1.6 2.9 1.2.7.5 1.2 1.2 1.3 2 .2 1 0 2.1-.6 2.9-.5.8-1.4 1.3-2.3 1.6-1.2.4-2.5.3-3.8.2-1.1-.2-2.3-.5-3.3-1l.6-2.7c1.4.7 2.9 1.2 4.4 1.2.5 0 1.1-.1 1.5-.4.4-.3.5-1 .1-1.4-.3-.3-.7-.5-1.1-.6-1.3-.4-2.6-.7-3.8-1.4-.8-.5-1.4-1.3-1.5-2.2-.1-.9 0-1.8.4-2.5.7-.8 1.4-1.3 2.2-1.6zm-11.6-.2h4c1.5 4.2 2.9 8.4 4.4 12.6h-3.2l-.9-2.7h-4.7l-.9 2.7h-3.2l4.5-12.6m.3 7.4h3.3c-.5-1.6-1.1-3.3-1.6-4.9-.6 1.7-1.2 3.3-1.7 4.9zm20.8-7.4h3.2v4.9h5.1v-4.9h3.2v12.6h-3.2v-5h-5.1v5h-3.2V23.7z" style="fill:#fff"/></svg>