<svg version="1.1" id="图层_1" xmlns="http://www.w3.org/2000/svg" x="0" y="0" viewBox="0 0 100 60" style="enable-background:new 0 0 100 60" xml:space="preserve"><style>.st1{fill:#fff}</style><path d="M100 55c0 2.8-2.3 5-5 5H5c-2.8 0-5-2.3-5-5V5c0-2.8 2.3-5 5-5h90c2.8 0 5 2.3 5 5v50z" style="fill:#c2a633"/><path class="st1" d="M50.5 23.2h-2.9v5.6h4.5v2.4h-4.5v5.6h3c.8 0 6.3.1 6.3-6.6 0-6.6-5.4-7-6.4-7z"/><path class="st1" d="M50 10c-11 0-20 9-20 20s9 20 20 20 20-9 20-20-9-20-20-20zm.8 30.8h-7.2v-9.6H41v-2.4h2.6v-9.6h6.2c1.5 0 11.2-.3 11.2 11 0 11.5-10.2 10.6-10.2 10.6z"/></svg>