<svg version="1.1" id="图层_1" xmlns="http://www.w3.org/2000/svg" x="0" y="0" viewBox="0 0 100 60" style="enable-background:new 0 0 100 60" xml:space="preserve"><style>.st1{fill:#fff}</style><path d="M100 55c0 2.8-2.3 5-5 5H5c-2.8 0-5-2.3-5-5V5c0-2.8 2.3-5 5-5h90c2.8 0 5 2.3 5 5v50z" style="fill:#00479d"/><path class="st1" d="M56.4 21.6c1.3-.5 2.6-.8 4-.8 1.3 0 2.5 0 3.8.3.7.1 1.5.5 1.9 1.2.5.7.6 1.6.4 2.4-.6 2.6-1.1 5.3-1.7 7.9 0 .1-.1.1-.2.2-2.3 1.2-4.9 1.6-7.5 1.3-.9-.1-1.9-.3-2.8-.7-.7-.4-1.3-1-1.5-1.7-.2-.5-.1-1-.1-1.5.1-.8.4-1.6.9-2.2.6-.7 1.4-1.2 2.3-1.6 1.2-.6 2.6-.9 3.9-1.1.7-.1 1.4-.1 2.1-.1 0-.4.1-.7.1-1.1 0-.2-.1-.4-.2-.5-.2-.2-.5-.2-.8-.2-1.4 0-2.8.2-4.2.6-.8.2-1.7.5-2.5.9.2-.6.3-1.2.5-1.7.5-.8 1-1.3 1.6-1.6m2.9 6c-.7.2-1.3.6-1.6 1.2-.3.4-.4 1-.3 1.5.1.6.5 1.1 1 1.4.4.2.9.1 1.4 0 .5-.2 1-.4 1.3-.9.2-1.1.4-2.3.6-3.4-.9-.1-1.6-.1-2.4.2zm-20.4-6.5c.3-.2.6-.2 1-.2h7c.8 0 1.7.1 2.5.4 1 .4 1.8 1.1 2.3 2 .5.9.7 2.1.6 3.1-.1.9-.4 1.8-.7 2.6-.7 1.5-1.9 2.7-3.4 3.4-1.2.6-2.6.8-4 .9h-1.7c-.5 0-.9-.1-1.4.1-.3.1-.4.4-.5.7-.2.8-.4 1.6-.6 2.5-.1.4-.2.7-.5 1-.4.3-1 .3-1.5.3h-2.9c.3-1.6.6-3.1 1-4.6.8-3.5 1.5-6.9 2.2-10.4.1-.4.1-.8.3-1.2-.1-.2 0-.5.3-.6m4.1 2.5c-.2.1-.3.2-.3.3-.4 2.1-.9 4.2-1.3 6.4 1.7.5 3.7.3 5.1-.9.8-.6 1.4-1.5 1.5-2.5.1-.8-.1-1.7-.7-2.3-.6-.6-1.4-1-2.3-1.1-.7-.1-1.4-.1-2 .1zm25.1-2.4c.3-.2.6-.2.9-.2h2.5c.4 2.8.8 5.6 1.3 8.4 1.4-2.4 2.7-4.7 4.1-7.1.3-.4.5-.9 1-1.2.5-.2 1.1-.2 1.6-.2h3c-2.4 4-4.9 8-7.3 12.1-.7 1.1-1.4 2.3-2.3 3.3-.9 1.1-2 2.1-3.2 2.8-.3-.2-.5-.6-.8-.9-.4-.4-.7-.9-1.1-1.3-.2-.2-.3-.4-.3-.6 0-.3.1-.6.3-.8.7-.5 1.4-1.1 1.8-1.9.1-.3.2-.7.1-1-.5-3.6-1.1-7.1-1.7-10.7 0-.3 0-.5.1-.7z" id="_x23_00479dff"/><path class="st1" d="M22.6 21.1c.8-.2 1.6-.2 2.5-.2H36c-.1.6-.2 1.3-.5 1.8s-.9.5-1.4.5h-7.4c-.5 0-.9.3-1.2.7-.1.2-.2.5-.2.8 0 .4.3.8.7 1 .4.3.9.3 1.4.3h7.5l-.3 1.5c-.1.3-.2.6-.5.8-.3.1-.6.1-.9.1h-7.4c-.4 0-.9.2-1.1.5-.3.3-.4.8-.3 1.2.2.4.6.7 1.1.8.5.1 1.1.1 1.7.1h6.7c-.1.4-.2.9-.3 1.3-.1.3-.1.5-.3.7-.2.2-.5.3-.8.3H21.3c-.6 0-1.1-.2-1.5-.6-.6-.4-.8-1.1-.8-1.7-.1-.9.2-1.7.3-2.5-.6-.8-1.3-1.6-1.9-2.4h2.4c.1-.8.3-1.7.6-2.5.2-.6.4-1.2.8-1.7.4-.4.9-.6 1.4-.8z" id="_x23_8ec31fff"/></svg>