<svg version="1.1" id="图层_1" xmlns="http://www.w3.org/2000/svg" x="0" y="0" viewBox="0 0 100 60" style="enable-background:new 0 0 100 60" xml:space="preserve"><style>.st1{fill:#fff}</style><path d="M100 55c0 2.8-2.3 5-5 5H5c-2.8 0-5-2.3-5-5V5c0-2.8 2.3-5 5-5h90c2.8 0 5 2.3 5 5v50z" style="fill:#f29420"/><g id="_x23_f29420ff"><path class="st1" d="M12.1 21.4c5.3 0 10.5-.1 15.8-.2 1.1 0 2.1.1 3.3.2-.6.8-1.1 1.6-1.7 2.3-.6-.1-1.1-.1-1.7 0-.4.1-.8.3-1 .7-.2.2-.3.6-.4.8h1.9c-.4.9-1 1.8-1.5 2.7h-1.9c-1.2 2.4-2.5 4.7-3.8 7.1l-12-.9h-.3.3c2.8 0 5.7 0 8.6-.1.7-1.2 1.4-2.5 2-3.8-4.1-.4-8.2-.9-12.4-1.4-.7-.1-1.5-.1-2.1-.2h.4c4.9 0 9.9-.1 14.9-.1.1-.2.2-.3.3-.6-3-.4-6.2-1-9.2-1.6 2.8 0 5.7 0 8.5-.1.2-.3.4-.8.6-1.1h1.6c.1-.1.1-.2.2-.3-4.7-.4-9.6-1-14.3-1.5 5.2 0 10.2-.1 15.4-.1.1-.2.3-.3.4-.6-4-.3-8-.7-11.9-1.2zm42.5 3.8c1.6-.3 3.3-.5 4.8-.3.6 0 1.1.1 1.7.2.6.2 1 .6 1.1 1.1s-.1 1.2-.3 1.8c-.3.8-.7 1.6-1.1 2.5-.8 1.6-1.6 3-2.4 4.6-1.9.1-3.8.2-5.7.2-1.1 0-2.1 0-3.3-.1-.6-.1-1.1-.2-1.5-.6-.3-.3-.5-.8-.3-1.2.1-.5.3-.9.6-1.4.5-.7 1-1.4 1.7-1.7.8-.5 1.6-.7 2.5-.9 1.2-.2 2.5-.3 3.6-.3s2.1-.1 3.3-.2c.3-.3.6-.7.7-1 .1-.2.1-.5 0-.7-.2-.2-.6-.3-.9-.3-.8-.1-1.5 0-2.3 0-.7.1-1.4.2-1.9.3-.3.1-.6.2-.8.4-.2.3-.3.7-.6 1-.1.1-.3.2-.6.2-.5.1-1 0-1.5-.1-.1-.1-.3-.1-.3-.3.1-.3.2-.7.3-.9.2-.5.6-.9.9-1.2.8-.7 1.6-1 2.3-1.1m-.2 5c-.2.2-.5.6-.6.9 0 .2 0 .3.1.6-.6.9-1 1.8-1.6 2.8h2.6c.1-.9.2-1.8.5-2.7.3-.2.6-.4.7-.8.1-.2.1-.4 0-.7-.1-.2-.4-.3-.6-.3-.4-.2-.8 0-1.1.2zm-12.5-4.6c1.2-.6 2.7-.7 4-.8.8 0 1.6 0 2.4.1.6.1 1.1.3 1.3.8.2.5.3 1 .2 1.6-1.4.1-2.7.2-4 .3 0-.2 0-.6-.1-.7-.3-.2-.7-.2-1.1-.2-.5 0-1 .1-1.3.6-.1.1-.3.3-.2.6 0 .2.2.2.3.3.5.1.9.2 1.2.2.7.1 1.5.2 2.1.3.5.1 1 .3 1.4.7.3.5.3 1 .2 1.6-.2.8-.8 1.4-1.4 1.9-1.1 1.1-2.6 1.7-4.2 1.9-1.1.2-2.4.2-3.5.1-.7 0-1.4-.1-2-.5-.5-.2-.8-.6-.9-1.1-.1-.5-.1-.9.1-1.3 1.5-.1 2.8-.2 4.3-.3 0 .3-.1.6.1.9.2.2.5.3.8.3.8.1 1.6-.1 2.1-.6.2-.2.5-.5.5-.7s-.3-.3-.6-.4c-1-.2-2-.3-3-.6-.5-.1-.8-.2-1.2-.5-.5-.3-.7-.9-.6-1.5.1-.6.3-1 .8-1.5.5-.6 1.4-1.2 2.3-1.5z"/><path class="st1" d="M33.3 24.9c.9 0 1.8 0 2.8.1.6.1 1.1.1 1.6.4.3.2.7.6.7.9.1.5 0 .9-.1 1.4-.1.6-.5 1-.8 1.6-.7 1.4-1.5 2.6-2.1 3.9-.3.6-.5 1.1-.5 1.7h-3.8c-.1-.5 0-.8.2-1.2-.8.5-1.7.9-2.6 1.1-1 .2-2 .3-3 .2-.6 0-1.1-.1-1.5-.5-.3-.2-.6-.7-.5-1.1 0-.5.2-.9.5-1.2.4-.8 1.1-1.5 2-1.9 1-.6 2.1-.8 3.3-.9 1.6-.2 3-.6 4.5-1 .1-.2.2-.6.2-.8 0-.1-.1-.2-.2-.3-.2-.1-.5-.1-.8-.1-.6 0-1.1.1-1.7.3-.5.2-.8.6-1.1.9-1.2-.1-2.5-.2-3.7-.3.4-.7 1.1-1.2 1.8-1.7.6-.3 1.1-.7 1.7-.8 1.1-.4 2.1-.6 3.1-.7m-1.2 5.7c-.9.2-1.8.3-2.7.7-.4.2-1 .6-1.1 1.1-.1.2 0 .5.1.6.2.2.6.1.9.1.8-.1 1.6-.5 2.3-.9.7-.4 1-1.2 1.4-1.9-.3.1-.5.1-.9.3z"/></g><g id="_x23_4873adff"><path class="st1" d="M74.2 25c.9-.2 1.8-.3 2.7-.3.9 0 1.7 0 2.6.1s1.7.2 2.4.8c.7.5 1 1.2 1.1 1.9.1.4.1 1 .1 1.5v2.9c0 .6 0 1 .1 1.6.1.5.2.9.5 1.2h-3.8c-.1-.2-.2-.3-.3-.6s-.1-.5-.1-.7c-.6.6-1.2 1-2 1.1-1 .3-2.1.3-3.3.2-.8-.1-1.6-.5-2.1-1.1-.8-.9-.8-2.4-.1-3.3.3-.4.9-.8 1.5-1 .6-.2 1.2-.3 1.8-.5 1.3-.2 2.7-.4 3.9-1 0-.3 0-.7-.3-1-.2-.2-.7-.2-1-.2-.6 0-1 0-1.5.2-.3.2-.6.6-.7.9l-3.9-.3c.1-.6.3-1.1.7-1.6.2-.2.9-.5 1.7-.8m2.6 5.7c-.4.1-.9.2-1.1.6s-.2.8 0 1.1c.2.2.5.3.8.3.6.1 1.2-.1 1.8-.4.3-.2.6-.5.7-.8.2-.4.1-1 .1-1.6-.8.4-1.5.5-2.3.8zm-12.7-5.1c.6-.4 1.3-.7 2-.8.9-.1 1.9 0 2.8.6.7.4 1.2 1.1 1.6 1.8.4.9.7 1.9.6 2.9 0 .9-.1 1.8-.6 2.6s-1.1 1.5-1.9 1.9c-.9.5-1.9.5-2.8.3-.8-.1-1.6-.5-2.3-1.1-.3 1.6-.8 3.3-1.1 4.8h-4.7c.3-1.2.7-2.5.9-3.8.8-1.6 1.6-3 2.4-4.6.3-.8.8-1.6 1.1-2.5.2-.6.3-1.1.3-1.8-.1-.6-.7-.9-1.1-1.1h2v1.5c.2-.1.4-.5.8-.7m.7 2c-.6.1-1 .6-1.1 1-.2.5-.2 1-.2 1.6s.2 1.1.6 1.6c.6.6 1.7.7 2.4.1.5-.3.6-.9.6-1.5s0-1.1-.1-1.7c-.1-.4-.5-.8-.9-1-.5-.2-.9-.2-1.3-.1z"/><path class="st1" d="M91 24.8h4c-1.2 3-2.4 6.2-3.6 9.2-.3.9-.7 1.8-1.1 2.7-.3.6-.8 1-1.3 1.4-1 .4-2 .6-3 .6-5.5 0-11 .1-16.7.1h-6.4c.2-.8.3-1.7.6-2.5 7.2-.1 14.4-.1 21.6-.2.4 0 .9-.1 1.2-.3.3-.2.6-.7.7-1-1.6-3.3-3-6.5-4.6-9.8h4.3c.8 2.1 1.5 4.3 2.3 6.5.6-2.4 1.3-4.5 2-6.7z"/></g></svg>