<svg xmlns="http://www.w3.org/2000/svg" viewBox="0 0 100 60" style="enable-background:new 0 0 100 60" xml:space="preserve"><path d="M100 55c0 2.8-2.3 5-5 5H5c-2.8 0-5-2.3-5-5V5c0-2.8 2.3-5 5-5h90c2.8 0 5 2.3 5 5v50z" style="fill:#00578e"/><path d="m35.8 33.1-.2.4c0 .1 0 .2.1.2h1.1c.1 0 .2.1.2.2v.1l-.8 1.3c0 .1-.1.1-.2.1h-1.5c-.1 0-.1 0-.2.1l-1.4 2.3c-.3.5-.7.9-1.1 1.2-.4.3-.9.5-1.4.5h-2c-.1 0-.2-.1-.2-.2l.4-1.5c0-.1.1-.1.2-.1h1c.3 0 .5-.2.6-.4l.9-1.6c0-.1 0-.2-.1-.2h-5.8c-.1 0-.1 0-.2.1l-.6 1c0 .1-.1.1-.2.1h-2.2c-.1 0-.1 0-.2.1l-1.6 2.8c0 .1-.1.1-.2.1h-2.3c-.1 0-.2-.1-.2-.2v-.1l1.4-2.4c0-.1 0-.2-.1-.2h-1.8c-.1 0-.2 0-.2-.1v-.2l.9-1.6c0-.1.1-.1.2-.1h2.1c.1 0 .1 0 .2-.1l.5-.9h-.6c-.5 0-.8-.2-.9-.5-.1-.4 0-.9.3-1.3l3-5.2c.2-.4.5-.7.9-1 .4-.3.8-.5 1.3-.5h.8c.1 0 .1 0 .2-.1l.4-.8c0-.1 0-.2-.1-.2h-1.8c-.1 0-.2-.1-.2-.2v-.1l.9-1.6c0-.1.1-.1.2-.1h2.1c.1 0 .1 0 .2-.1l1-1.6c0-.1.1-.1.2-.1h2.3c.1 0 .2.1.2.2v.1l-.7 1.3c0 .1 0 .2.1.2h2.1c.1 0 .1 0 .2-.1l.3-.6c0-.1.1-.1.2-.1h3.7c.1 0 .1 0 .2-.1l.5-.9c0-.1.1-.1.2-.1h2.4c.1 0 .2.1.2.2v.1l-.3.6c0 .1 0 .2.1.2h3.3c.1 0 .2.1.2.2v.1l-.8 1.4c0 .1-.1.1-.2.1h-3.7s-.1 0-.1.1l-.2.4c0 .1 0 .2.1.2h1.5c.3 0 .7.1.9.4.2.3.1.7-.2 1.3l-1.6 2.7c-.2.3-.4.6-.7.8-.3.3-.7.5-1.1.7h.4c.1 0 .2.1.2.2v.1c-.3.9-.5 1.8-.7 2.8 0 .1-.1.2-.2.1H36c-.1 0-.1.1-.2.1zm-12.5-2.9H23c-.1 0-.1 0-.2.1l-.7 1.2c-.1.1 0 .3.1.3h.3c.1 0 .1 0 .2-.1l.7-1.3c.1 0 0-.1-.1-.2zm12.4 2.2c-2.9.2-5.4.3-8.2.4-.1 0-.2-.1-.2-.2v-.1l.8-1.4c0-.1.1-.1.1-.1 1.1 0 2.5 0 3.6-.1.1 0 .1 0 .1-.1l.3-.6c0-.1 0-.2-.1-.2h-1.5c-.6 0-1-.2-1.1-.5-.1-.5 0-.9.3-1.3l1.6-2.7c.3-.5.7-.9 1.1-1.1.4-.3.9-.4 1.5-.5h2c.1 0 .1 0 .2-.1l.2-.4c0-.1 0-.2-.1-.2h-3.5c-.1 0-.1 0-.2.1l-.4.8c0 .1-.1.1-.2.1h-2.3c-.1 0-.1 0-.2.1l-.6 1h.7c.4 0 .8.2.9.5.1.4 0 .8-.2 1.1l-3.1 5.3c-.2.4-.6.7-.9 1-.4.3-.8.5-1.3.5h-.7c-.1 0-.1 0-.2.1l-.4.7c0 .1 0 .2.1.2h2c.1 0 .1 0 .2-.1l.4-.7c0-.1.1-.1.2-.1h6.1c.1 0 .1 0 .2-.1l.4-.7c0-.1.1-.1.2-.1h2.2c.1 0 .2-.1.2-.1-.3-.2-.3-.3-.2-.4zm-10.6-5.3c-.2 0-.4.1-.6.3l-.5.9c0 .1 0 .2.1.2h.4c.1 0 .1 0 .2-.1l.7-1.1c.1-.1 0-.2-.1-.2-.1-.1-.2-.1-.2 0zm1.2 3.1H26c-.1 0-.1 0-.2.1l-.8 1.5h.4c.2 0 .4-.1.5-.3l.6-1c0-.1 0-.2-.2-.3.1 0 0 0 0 0zm-1.1 8.4c.1-.8.3-1.6.5-2.4 0-.1.1-.1.2-.1h2.5c.1 0 .2.1.2.2-.2.8-.4 1.6-.5 2.3 0 .1-.1.2-.2.2h-2.5c-.2 0-.2-.1-.2-.2zm3.1-11.3c.1-.1 0-.3-.1-.3h-.3c-.1 0-.1 0-.2.1l-.7 1.2c0 .1 0 .2.1.2h.4c.1 0 .1 0 .2-.1l.6-1.1zm5.3.4h-.8c-.1 0-.1 0-.2.1l-.3.4c-.1.1 0 .3.1.3h.8c.1 0 .1 0 .2-.1l.3-.5c.1-.1 0-.2 0-.2 0-.1 0-.1-.1 0zm1.4-1.9c0-.1 0-.2-.1-.2h-.6c-.2 0-.4.1-.5.3l-.3.5h1.1c.1 0 .1 0 .2-.1l.2-.5zm1.1 4.2h-.7c-.1 0-.1 0-.2.1l-.2.4c0 .1 0 .2.1.2h.1l.8-.1c.1 0 .1-.1.1-.1l.1-.3c.1 0 .1-.1-.1-.2.1 0 .1 0 0 0zm1.9-2.4h-1.1c-.1 0-.1 0-.2.1l-.3.5c0 .1 0 .2.1.2h.7c.2 0 .4-.2.5-.3l.3-.5zm1-1.8c.1-.2.1-.3-.1-.3h-.8c-.1 0-.1 0-.2.1l-.2.4c0 .1 0 .2.1.2h.9c.1 0 .1 0 .2-.1l.1-.3zm12.4 13.6v-1.1c0-.1-.1-.2-.2-.2s-.1 0-.1.1c-.6.5-1.2 1-1.7 1.4h-3.1l.4-.4h-4.1l-.3-.3c-.1-.1-.2-.1-.3-.1-.3.2-1 .4-1.4.6h-3.3c-.1 0-.2-.1-.2-.2s.1-.2.1-.2c.9-.3 1.9-.7 2.8-1.2.1-.1.1-.2.1-.3l-.6-.6c-.2-.2-.1-.5 0-.8.1-.2.3-.4.5-.6.1-.1.1-.2 0-.3 0 0-.1-.1-.2-.1H39c-.1 0-.2-.1-.2-.2v-.1l.7-1.2c0-.1.1-.1.2-.1h2.7c.2-.2.4-.4.7-.6.1-.1.1-.2 0-.3 0-.1-.1-.1-.2-.1H42c-.3 0-.5-.1-.7-.3-.1-.3-.1-.7.1-1l.7-1.3c.2-.4.5-.7.9-1 .3-.2.7-.3 1.1-.3h2.2c.1 0 .2 0 .2-.1l.2-.4c.1-.1 0-.2-.1-.3h-1.4c-.4 0-.7-.1-1-.4-.2-.2-.1-.6.2-1.2l.2-.4c.1-.1 0-.2-.1-.3h-.2c-.1 0-.2-.1-.2-.2v-.1l.7-1.2c0-.1.1-.1.2-.1h.6c.1 0 .2 0 .2-.1l.5-.8c.2-.4.6-.7 1-1 .3-.2.7-.3 1.1-.3h2c.1 0 .2 0 .2-.1l.6-1c0-.1.1-.1.2-.1h2.1c.1 0 .2.1.2.2v.1l-.3.6c-.1.1 0 .2.1.3h1.7c.5 0 .8.2.9.5.1.4 0 .8-.3 1.1l-.2.4c-.1.1 0 .2.1.3h.1c.1 0 .2.1.2.2v.1l-.7 1.2c0 .1-.1.1-.2.1h-.5c-.1 0-.2 0-.2.1l-.4.8c-.2.3-.4.6-.7.9-.4.3-.9.5-1.4.5h-2c-.1 0-.2 0-.2.1l-.2.4c-.1.1 0 .2.1.3h2c.5 0 .8.1.9.4.1.4 0 .7-.2 1l-.6 1c-.2.4-.5.8-.9 1.1-.4.3-.9.4-1.4.4h-2.6c-.1 0-.1 0-.1.1l-.6.6c-.1 0-.2.2-.1.3s.2.2.3.1h4.3c.1 0 .2.1.2.2v.1l-.9 1c0 .1-.1.1-.2.1h-1.4c-.1 0-.1 0-.2.1-.8.9-1.7 1.6-2.8 2.2-.1.1-.1.2-.1.3l.1.1c.5.4 1.1.7 1.7 1h.2c1.5-1.2 2.9-2.5 4.3-3.9 0 0 0-.1.1-.1.4-2 1-3.9 1.6-5.8 0-.1.1-.2.2-.1h2.1c.1 0 .2.1.2.2v.1l-.3.9c0 .1 0 .2.1.3.1 0 .2 0 .3-.1 1-1.2 2-2.8 2.9-4.1.1-.1 0-.2-.1-.3h-.3c-.1 0-.1 0-.2.1-.4.6-1.2 1.4-1.7 2.1 0 0-.1.1-.2.1h-2.1c-.1 0-.2-.1-.2-.2s0-.1.1-.1c1.9-2.2 3.7-4.7 5.5-7.2 0-.1.1-.1.2-.1h2.2c.1 0 .2.1.2.2v.1c-.7.9-1.4 2-2 2.7-.1.1-.1.2 0 .3H63c.1 0 .2.1.2.2v.1l-.9 1.5c0 .1-.1.1-.2.1h-.4c-.1 0-.1 0-.2.1-2.1 3.2-4.4 6.2-7 9l-.1.1c-.2 1.5-.2 3 0 4.5 0 .1-.1.2-.2.2h-2.6c-.1 0-.2-.1-.2-.3zm-7.8-4.3c-.1 0-.1 0-.1.1-.1.1-.3.3-.5.4s-.1.2-.1.3c.2.2.3.3.5.4h.2c.4-.2.8-.5 1.2-.7.1-.1.1-.2.1-.3 0-.1-.1-.1-.2-.1l-1.1-.1zm2.1-4.7c.1-.1 0-.2-.1-.3H45c-.2 0-.3.1-.4.3l-.3.5c-.1.1 0 .2.1.2h.7c.1 0 .2 0 .2-.1l.4-.6zm2.4-4.9h-.5c-.1 0-.2 0-.2.1l-.2.4c-.1.2-.1.4.1.4h.6c.1 0 .2 0 .2-.1l.2-.4c.1-.1.1-.2 0-.3-.1-.1-.1-.1-.2-.1zm1.5 4.8c0-.1 0-.2-.1-.2h-.9c-.1 0-.2 0-.2.1l-.3.6c-.1.1 0 .2.1.3h.6c.2 0 .3-.1.4-.2l.4-.6zm.1-6.9c.1-.1 0-.2-.1-.3h-.5c-.2 0-.3.1-.4.3l-.3.5h.9c.1 0 .2 0 .2-.1l.2-.4zm2.5 2.1h-1c-.1 0-.2 0-.2.1l-.2.4c-.1.1 0 .2.1.3h.6c.2 0 .4-.1.5-.3l.2-.5zm1.3-2.1c.1-.1 0-.3-.1-.3h-.7c-.1 0-.2 0-.2.1l-.2.3c-.1.1 0 .2.1.3h.7c.1 0 .2 0 .2-.1l.2-.3zM59 39.1l10.8-18.6c0-.1.1-.1.2-.1h2.2c.2 0 .3.1.3.3v.1L61.8 39.4c0 .1-.1.1-.2.1h-2.2c-.2 0-.3-.1-.3-.3-.1 0-.1-.1-.1-.1zm4-8.6h-.9c-.2 0-.3-.1-.3-.3V30c1.2-1.8 2.4-3.7 3.6-5.5 0-.1.1-.1.2-.1h1c.2 0 .3.1.3.3v.1c-1.1 1.9-2.3 3.7-3.6 5.6-.1.1-.2.1-.3.1zm8.5 8.8c-.2-1.4-.2-2.7 0-4.1 0-.1-.1-.3-.2-.3s-.2 0-.2.1c-1.6 1.6-3.2 3.1-4.9 4.5 0 0-.1.1-.2.1h-2.7c-.2 0-.3-.1-.3-.3 0-.1 0-.2.1-.2 2.7-2 5.2-4.3 7.4-6.9.1-.1.1-.3 0-.4 0 0-.1-.1-.2-.1H68c-.2 0-.3-.1-.3-.3v-.1l.9-1.5c0-.1.1-.1.2-.1h3.3c.1 0 .2 0 .2-.1.7-1 1.6-2.6 2.3-3.8.1-.1 0-.3-.1-.4h-2.1c-.2 0-.3-.1-.3-.3V25l.9-1.5c0-.1.1-.1.2-.1h2.5c.1 0 .2-.1.2-.1l1.5-2.6c0-.1.1-.1.2-.1h2.3c.2 0 .3.1.3.3v.1L79 23c-.1.1 0 .3.1.4h2c.6 0 1 .2 1.1.6.1.4 0 .9-.3 1.3l-2.4 4.1c-.1.1 0 .3.1.4h.1c.2 0 .3.1.3.3v.1l-.9 1.5c0 .1-.1.1-.2.1h-5.3c-.1 0-.2 0-.2.1l-.5.6c-.1.1-.1.3.1.4 0 0 .1.1.2.1h1.4c.2 0 .3.1.3.3v.1c-.4 2-.4 4 0 6 0 .1 0 .3-.2.3h-3.1c.1-.2 0-.3-.1-.4zm-2.8-10.7c.6-1.3 1.3-2.7 2-4 0-.1.1-.2.2-.1h.7c.2 0 .3.1.3.3v.1c-.7 1.3-1.3 2.6-1.9 4 0 .1-.1.2-.2.2H69c-.2 0-.3-.1-.3-.3v-.2zm10.5-3c.1-.1.1-.2 0-.3 0 0-.1-.1-.2 0h-1c-.1 0-.2.1-.2.1-.7 1.2-1.6 2.7-2.3 3.8-.1.1 0 .3.1.4h1.1c.1 0 .2-.1.2-.1l2.3-3.9z" style="fill:#fff"/></svg>