<svg version="1.1" id="图层_1" xmlns="http://www.w3.org/2000/svg" x="0" y="0" viewBox="0 0 100 60" style="enable-background:new 0 0 100 60" xml:space="preserve"><style>.st0,.st1{fill-rule:evenodd;clip-rule:evenodd;fill:#000268}.st1{fill:#fff}</style><path class="st0" d="M100 55c0 2.8-2.3 5-5 5H5c-2.8 0-5-2.3-5-5V5c0-2.8 2.3-5 5-5h90c2.8 0 5 2.3 5 5v50z"/><path id="_92653320" class="st1" d="M24.7 17h50.6c2.6 0 4.6 2.1 4.6 4.7v16.6c0 2.6-2.1 4.7-4.6 4.7H24.7c-2.6 0-4.6-2.1-4.6-4.7V21.7c-.1-2.6 2-4.7 4.6-4.7z"/><path id="_92186184" class="st0" d="M21.9 21.8v16.3c0 1.6 1.3 2.9 2.9 2.9h26.5V18.9H24.9c-1.7 0-3 1.3-3 2.9z"/><path id="_92186184-path" class="st0" d="M55.5 35.9h-2.2v-9.1h2.1V28c.4-.9 1.4-1.3 2.4-1.3 1.8 0 2.8 1.7 2.8 3.3 0 1.9-1 3.5-3 3.5-.8 0-1.6-.3-2.1-1.1v3.5zm1.4-4.2c.8 0 1.4-.7 1.4-1.8 0-.9-.5-1.6-1.4-1.6-.8 0-1.4.7-1.4 1.7s.6 1.7 1.4 1.7z"/><path id="_92186184-path_1_" class="st0" d="M68 31.7c0 .5 0 1 .1 1.5H66c0-.4-.1-.7-.1-1-.5.8-1.1 1.2-2.1 1.2-1.3 0-2.4-.6-2.4-2.1 0-2 2.2-2.2 3.3-2.2.4 0 .8 0 1 .1 0-.9-.7-1.1-1.5-1.1-.7 0-1.4.1-2.1.5v-1.5c.8-.3 1.6-.5 2.6-.5 1.7 0 3.1.7 3.1 2.7v2.4zm-3-1.4c-.8 0-1.4.2-1.4.9 0 .5.4.7.9.7.8 0 1.4-.8 1.4-1.5-.3-.1-.6-.1-.9-.1z"/><path id="_92186184-path_2_" class="st0" d="M69.1 35.9c.5.1.9.1 1.4.1 2.1 0 2.5-1.6 3.2-3.2l2.4-6.1h-2.2L72.5 31l-1.4-4.3h-2.4l2.6 6.7c-.2.6-.6.9-1.1.9-.3 0-.6 0-.9-.1l-.2 1.7z"/><path id="_47303032-copy" class="st1" d="M30.2 27.9v-1.2h2v5.8c0 2.7-1.3 3.5-3.9 3.5-1.1 0-2-.2-2.5-.4l.1-1.8c.7.3 1.3.5 2.2.5 1.3 0 2-.6 2-1.9V32c-.5.8-1.3 1.1-2.2 1.1-1.8 0-2.9-1.4-2.9-3.3s.9-3.4 2.9-3.4c1.1.2 1.8.7 2.3 1.5zm-1.5.4c-.8 0-1.3.7-1.3 1.6 0 1 .6 1.6 1.3 1.6.8 0 1.4-.7 1.4-1.7 0-.7-.4-1.5-1.4-1.5z"/><path id="_47303032-path" class="st1" d="M36.1 24h-2.2v1.7h2.2V24z"/><path id="_47303032-path_1_" class="st1" d="M33.8 33.2H36v-6.5h-2.2v6.5z"/><path id="_47303032-path_2_" class="st1" d="M42.3 26.7c-.2 0-.5-.1-.8-.1-1 0-1.5.5-1.9 1.4v-1.2h-2v6.5h2.2v-2.8c0-1.3.6-2 1.6-2 .3 0 .5 0 .8.1l.1-1.9z"/><path id="_47303032-path_3_" class="st1" d="M49.9 30c0 2.2-1.6 3.4-3.8 3.4-2.1 0-3.8-1.2-3.8-3.4s1.6-3.4 3.8-3.4c2.2 0 3.8 1.2 3.8 3.4zm-5.2 0c0 1 .4 1.8 1.5 1.8 1 0 1.5-.9 1.5-1.8 0-1-.4-1.8-1.5-1.8s-1.5.8-1.5 1.8z"/></svg>