<svg xmlns="http://www.w3.org/2000/svg" viewBox="0 0 100 60" style="enable-background:new 0 0 100 60" xml:space="preserve"><path d="M100 55c0 2.8-2.3 5-5 5H5c-2.8 0-5-2.3-5-5V5c0-2.8 2.3-5 5-5h90c2.8 0 5 2.3 5 5v50z" style="fill:#12438c"/><path d="M28.9 12c-3.3 0-5.8 2.8-5.8 7.7v10.8h3.2c.2 1.8 1.6 3.2 3.2 3.2 1.7 0 2.9-1.6 2.9-3.7v-7H37v7c0 3.9-3.8 5.9-6.5 5.9-3 0-5.7-2.4-6.2-5.4L23.1 26v22h10.6c2.6 0 5.5-3.2 5.5-7.5V12H28.9zM70 28.2h-3.2v-4.1H70c.8 0 1.5.9 1.5 2s-.7 2.1-1.5 2.1zM66.5 12c-3.3 0-5.8 2.8-5.8 7.6v28.1h10.5c2.5 0 5.6-3.2 5.6-7.4v-8.4h-1.4c0 1.6-1.1 3.2-2.4 3.2H63V22.8h9.9c1.2 0 2.2 1.4 2.2 3s-.8 3.2-2 3.2c1.4 0 2.4 1.3 2.4 2.9H77V12H66.5zm3.6 17.8h-3.2v4.1h3.2c.8 0 1.5-1 1.5-2 0-1.1-.7-2.1-1.5-2.1zM47.7 12c-3.3 0-5.8 2.8-5.8 7.6v28.2h10.6c2.5 0 5.5-3.2 5.5-7.4V12H47.7zM56 25.1c-1.8-.5-3.6-.9-4.5-.9-1.9 0-3.5 2.2-3.5 4.8s1.5 4.9 3.5 4.9c.9 0 2.7-.2 4.5-.8v2.2h-7.7c-2.4 0-4.4-2.8-4.4-6.2s2-6.2 4.4-6.2H56v2.2z" style="fill:#fff"/></svg>