<svg version="1.1" id="图层_1" xmlns="http://www.w3.org/2000/svg" x="0" y="0" viewBox="0 0 100 60" style="enable-background:new 0 0 100 60" xml:space="preserve"><style>.st1{fill-rule:evenodd;clip-rule:evenodd;fill:#fff}</style><path d="M100 55c0 2.8-2.3 5-5 5H5c-2.8 0-5-2.3-5-5V5c0-2.8 2.3-5 5-5h90c2.8 0 5 2.3 5 5v50z" style="fill-rule:evenodd;clip-rule:evenodd;fill:#feb2c6"/><path id="Path" class="st1" d="M69.2 30.3v7.4c0 .6-.1.6-.7.6h-2.1c-.5 0-.6-.1-.6-.6v-7.2c0-.4-.1-.8-.1-1.2-.1-.6-.5-.9-1-1-1-.2-1.9.2-2.7.7-.1.1-.2.3-.2.5v8.4c0 .3-.1.5-.5.5H59c-.4 0-.6-.1-.6-.6V26.3c0-.4.1-.5.5-.5H61c.4 0 .5.1.5.5v.6c.2-.1.4-.2.5-.3 1.3-.9 2.8-1.1 4.4-.9 1.4.2 2.2 1.2 2.5 2.6.2.6.3 1.3.3 2z"/><path id="Path_1_" class="st1" d="M48.4 37.8c0-2.8 0-5.6-.1-8.4 0-1.9-1.1-3.1-2.9-3.6-2-.5-4-.2-5.9.2-.2 0-.3.2-.3.5v1.3c0 .6.1.7.7.6 1.3-.1 2.5-.1 3.8-.1.8 0 1.2.4 1.3 1.1v.6c0 .9 0 .9-.8.8-1.2 0-2.3 0-3.5.4-1.2.4-2 1-2.3 2.3-.2.8-.1 1.6 0 2.4.3 1.1.9 1.9 2.1 2.2 1.2.4 2.5.3 3.6-.3.3-.2.7-.4 1-.6v.2c0 .6.1.6.7.6h2c.4.3.6.2.6-.2zm-3.3-3.3v.6c0 .3-.1.5-.4.6-.7.3-1.4.4-2.2.3-.5-.1-.8-.4-.9-.9 0-.4 0-.9.1-1.3.1-.5.4-.8.9-.9.8-.1 1.5-.1 2.3-.1.1 0 .2.2.2.3v1.4z"/><path id="Path_2_" class="st1" d="M80.9 36.8v-6.7c0-.4 0-.8-.1-1.1-.2-1.5-1-2.5-2.4-3-.6-.2-1.2-.3-1.9-.4-1.5-.1-3 .1-4.4.4-.3.1-.5.2-.5.6v1.2c0 .7.1.7.7.7 1.3-.1 2.5-.1 3.8-.1.8 0 1.3.4 1.4 1.2v1.1c0 .2-.1.3-.3.3h-1.6c-.9.1-1.8.2-2.7.5-1.1.3-1.9 1.1-2.1 2.3-.1.5-.1 1 0 1.5.1 2.1 1.7 3.4 3.7 3.3 1-.1 2-.3 2.9-1 .1 0 .1-.1.2-.1 0 .1.1.1.1.1v.2c0 .5.1.6.6.6h1.9c.5 0 .6-.1.6-.6.1-.3.1-.7.1-1zm-3.3-2.2v.6c0 .2-.1.4-.3.4-.7.3-1.5.5-2.3.4-.6-.1-.9-.5-.9-1.3 0-1.3.3-1.8 1.8-2h1.3c.3 0 .3.1.3.4v1.1c.1.2.1.3.1.4z"/><path id="Path_3_" class="st1" d="M36 21.4h-2.1c-.5 0-.6.1-.6.6v15.8c0 .4.1.5.5.5h2.1c.7 0 .7-.1.7-.7V22c0-.5-.1-.6-.6-.6z"/><path id="Path_4_" class="st1" d="M56.7 25.6c-1 0-1.8.3-2.6.9-.1.1-.2.1-.4.3v-.4c0-.5-.1-.6-.6-.6h-2c-.6 0-.7.1-.7.7v11.2c0 .5.1.7.6.7h2.1c.6 0 .7-.1.7-.7v-8.2c0-.3.1-.4.3-.5.8-.4 1.6-.7 2.6-.6.3 0 .5-.1.5-.5v-1.8c-.1-.4-.2-.5-.5-.5z"/><path id="Path_5_" class="st1" d="M22.1 21.4h-1.9c-.7 0-1.1.4-1.1 1.1v15.3c0 .4.1.5.5.5h2c.7 0 1-.4 1-1V22c.1-.5 0-.6-.5-.6z"/><path id="Path_6_" class="st1" d="M29.4 33a8.01 8.01 0 0 0-5-2.5c-.6 0-.6 0-.6.5 0 .2 0 .3.1.5.3 2.3 1.4 4.1 3.3 5.4 1.2.9 2.6 1.3 4 1.5.4 0 .5 0 .5-.4-.3-2-1-3.7-2.3-5z"/><path id="Path_7_" class="st1" d="M31.1 21.5h-.5c-1.9.3-3.6 1.2-4.9 2.6-1.2 1.3-1.8 2.9-2 4.7 0 .5 0 .5.5.5.7-.2 1.4-.3 2-.5 3.2-1.2 4.9-3.6 5.3-7 .1-.3.1-.4-.4-.3z"/></svg>