<svg version="1.1" id="图层_1" xmlns="http://www.w3.org/2000/svg" x="0" y="0" viewBox="0 0 100 60" style="enable-background:new 0 0 100 60" xml:space="preserve"><style>.st0,.st3{fill-rule:evenodd;clip-rule:evenodd;fill:#006}.st3{fill:#fff}</style><path class="st0" d="M100 55c0 2.8-2.3 5-5 5H5c-2.8 0-5-2.3-5-5V5c0-2.8 2.3-5 5-5h90c2.8 0 5 2.3 5 5v50z"/><path id="Fill-356" d="M83.7 30c0 11.1-8.9 20-19.9 20-11 0-19.9-9-19.9-20 0-11.1 8.9-20 19.9-20 10.9 0 19.9 8.9 19.9 20" style="fill-rule:evenodd;clip-rule:evenodd;fill:#c00"/><path id="Fill-357" d="M48.3 42.7c-.6-.7-1.1-1.4-1.5-2.1h7.1c.4-.7.8-1.4 1.1-2.1h-9.4c-.3-.7-.6-1.4-.8-2.1h11.1c.7-2 1-4.1 1-6.4 0-1.5-.2-2.9-.4-4.2H44.2c.2-.7.3-1.4.6-2.1h11c-.2-.7-.5-1.4-.8-2.1h-9.4c.3-.7.7-1.4 1.1-2.1h7.1l-1.5-2.1h-4c.6-.8 1.3-1.5 2-2.1-3.5-3.2-8.2-5.2-13.4-5.2-11 0-19.9 9-19.9 20 0 11.1 8.9 20 19.9 20 5.2 0 9.8-2 13.4-5.2.7-.7 1.4-1.4 2-2.1h-4" style="fill-rule:evenodd;clip-rule:evenodd;fill:#06c"/><path id="Fill-359" class="st0" d="M50 35.4c-.9.2-1.7.3-2.5.3-2.8 0-4.2-1.3-4.2-3.7 0-2.8 1.8-4.9 4.3-4.9 2 0 3.4 1.2 3.4 3 0 .6-.1 1.2-.3 2h-4.9c-.2 1.2.7 1.7 2.2 1.7.9 0 1.7-.2 2.6-.5l-.6 2.1zm-1.3-4.9c0-.2.3-1.5-1.2-1.5-.8 0-1.4.5-1.6 1.5h2.8z"/><path id="Fill-360" class="st0" d="M51.7 29.9c0 1 .6 1.8 1.9 2.3 1 .4 1.2.5 1.2.9 0 .5-.5.8-1.5.8-.8 0-1.4-.1-2.3-.3l-.4 1.9c.7.2 1.7.2 2.6.2 2.7 0 3.9-.9 3.9-2.8 0-1.1-.5-1.8-1.8-2.3-1.1-.4-1.2-.5-1.2-.9 0-.5.4-.7 1.2-.7.5 0 1.2 0 1.8.1l.4-1.9c-.7-.1-1.7-.2-2.2-.2-2.6.1-3.6 1.4-3.6 2.9"/><path id="Fill-361" class="st0" d="M41.9 35.6h-2.1v-.9c-.6.7-1.5 1-2.6 1-1.4 0-2.3-.9-2.3-2.3 0-2 1.6-3.2 4.4-3.2.3 0 .6 0 1 .1.1-.3.1-.4.1-.5 0-.6-.4-.8-1.6-.8-1.1 0-1.9.2-2.6.4l.4-1.9c1.2-.3 2.1-.4 3-.4 2.1 0 3.3.8 3.3 2.4 0 .4-.1 1.3-.2 1.6-.1.6-.7 3.8-.8 4.5zm-1.8-3.7h-.6c-1.4 0-2.1.4-2.1 1.3 0 .5.3.9.9.9 1-.1 1.8-1 1.8-2.2z"/><path id="Fill-362" class="st0" d="M61.7 35.5c-.7.2-1.2.3-1.8.3-1.3 0-2-.7-2-1.8 0-.3.3-1.8.3-2.2.1-.4 1.2-6.4 1.2-6.4h2.5l-.4 2h1.3l-.3 2h-1.3s-.7 3.5-.7 3.8c0 .4.3.6.8.6.3 0 .5 0 .7-.1l-.3 1.8"/><path id="Fill-363" class="st0" d="M72.7 27.1c-1.8 0-3.2.7-4 2l.7-1.9c-1.3-.5-2.2.2-2.9 1.2 0 0-.1.2-.3.3v-1.5h-2.3c-.3 2.6-.9 5.2-1.3 7.7l-.1.6H65c.2-1.3.4-2.4.6-3.2.5-2.3 1.4-3 2.8-2.7-.3.7-.5 1.4-.5 2.3 0 2.1 1.1 3.8 3.9 3.8s4.8-1.5 4.8-4.9c0-2.1-1.4-3.7-3.9-3.7zm-.7 6.6c-.9 0-1.4-.7-1.4-1.8 0-1.3.8-2.8 2-2.8 1 0 1.4.8 1.4 1.7-.1 1.8-.8 2.9-2 2.9z"/><path id="Fill-364" class="st0" d="M33.8 35.6h-2.5l1.5-7.8-3.4 7.8h-2.3l-.4-7.8-1.5 7.8H23l1.9-10.1h3.9l.3 5.7 2.5-5.7h4.2l-2 10.1"/><path id="Fill-366" class="st3" d="M50.7 34.8c-.9.2-1.7.3-2.5.3-2.8 0-4.2-1.3-4.2-3.7 0-2.8 1.8-4.9 4.3-4.9 2 0 3.4 1.2 3.4 3 0 .6-.1 1.2-.3 2h-4.9c-.2 1.2.7 1.7 2.2 1.7.9 0 1.7-.2 2.6-.5l-.6 2.1zm-1.4-5c0-.2.3-1.5-1.2-1.5-.8 0-1.4.5-1.6 1.5h2.8z"/><path id="Fill-367" class="st3" d="M52.3 29.3c0 1 .6 1.8 1.9 2.3 1 .4 1.2.5 1.2.9 0 .5-.5.8-1.5.8-.8 0-1.4-.1-2.3-.3l-.4 1.9c.7.2 1.7.2 2.6.2 2.7 0 3.9-.9 3.9-2.8 0-1.1-.5-1.8-1.8-2.3-1.1-.4-1.2-.5-1.2-.9 0-.5.4-.7 1.2-.7.5 0 1.2 0 1.8.1l.4-1.9c-.7-.1-1.7-.2-2.2-.2-2.6.1-3.6 1.4-3.6 2.9"/><path id="Fill-368" class="st3" d="M42.5 35h-2.1l.1-.9c-.6.7-1.5 1-2.6 1-1.4 0-2.3-.9-2.3-2.3 0-2 1.6-3.2 4.4-3.2.3 0 .6 0 1 .1.1-.3.1-.4.1-.5 0-.6-.4-.8-1.6-.8-1.1 0-1.9.2-2.6.4l.4-1.9c1.2-.3 2.1-.4 3-.4 2.1 0 3.3.8 3.3 2.4 0 .4-.1 1.3-.2 1.6-.2.6-.8 3.7-.9 4.5zm-1.8-3.7h-.6c-1.4 0-2.1.4-2.1 1.3 0 .5.4.9.9.9 1-.2 1.8-1 1.8-2.2z"/><path id="Fill-369" class="st3" d="M62.3 34.8c-.7.2-1.2.3-1.8.3-1.3 0-2-.7-2-1.8 0-.3.3-1.8.3-2.2.1-.4 1.2-6.4 1.2-6.4h2.5l-.4 2h1.3l-.3 2h-1.3s-.7 3.5-.7 3.8c0 .4.3.6.8.6.3 0 .5 0 .7-.1l-.3 1.8"/><path id="Fill-370" class="st3" d="M74.6 30.1c0 1.9-.8 3-2 3-.9 0-1.4-.7-1.4-1.8 0-1.3.8-2.8 2-2.8 1 0 1.4.8 1.4 1.6zm2.6.1c0-2.1-1.4-3.7-3.9-3.7-2.9 0-4.8 2-4.8 4.9 0 2.1 1.1 3.8 3.9 3.8 2.8-.1 4.8-1.6 4.8-5z"/><path id="Fill-371" class="st3" d="M64.5 26.7c-.3 2.6-.9 5.2-1.3 7.7l-.1.6h2.5c.9-5 1.2-6.4 3.1-5.9l.9-2.4c-1.3-.5-2.2.2-2.9 1.2.1-.4.2-.9.2-1.3h-2.4"/><path id="Fill-372" class="st3" d="M34.5 35H32l1.5-7.8-3.4 7.8h-2.3l-.4-7.8-1.5 7.8h-2.3l1.9-10.1h3.9l.2 6.3 2.7-6.3h4L34.5 35"/></svg>