<svg version="1.1" id="图层_1" xmlns="http://www.w3.org/2000/svg" x="0" y="0" viewBox="0 0 100 60" style="enable-background:new 0 0 100 60" xml:space="preserve"><style>.st0,.st3{fill-rule:evenodd;clip-rule:evenodd;fill:#006}.st3{fill:#fff}</style><path class="st0" d="M100 55c0 2.8-2.3 5-5 5H5c-2.8 0-5-2.3-5-5V5c0-2.8 2.3-5 5-5h90c2.8 0 5 2.3 5 5v50z"/><path id="Fill-333" d="M56.1 30.5c0 10.8-8.7 19.5-19.5 19.5s-19.5-8.7-19.5-19.5S25.8 11 36.6 11s19.5 8.7 19.5 19.5" style="fill-rule:evenodd;clip-rule:evenodd;fill:#c00"/><path id="Fill-334" d="M62.8 11c-5 0-9.6 1.9-13.1 5.1-.7.6-1.4 1.3-2 2.1h3.9c.5.7 1 1.3 1.5 2.1h-6.9c-.4.7-.8 1.4-1.1 2.1h9.2c.3.7.6 1.4.8 2.1H44.3l-.6 2.1h12c.3 1.3.4 2.7.4 4.1 0 2.2-.4 4.3-1 6.2H44.3c.2.7.5 1.4.8 2.1h9.2c-.3.7-.7 1.4-1.1 2.1h-6.9c.5.7.9 1.4 1.5 2.1h3.9c-.6.7-1.3 1.4-2 2.1 3.5 3.1 8.1 5 13.1 5 10.8 0 19.5-8.7 19.5-19.5 0-11.1-8.7-19.8-19.5-19.8" style="fill-rule:evenodd;clip-rule:evenodd;fill:#f90"/><path id="Fill-336" class="st0" d="M32.1 32.6h-.5c-1.2 0-1.8.4-1.8 1.2 0 .5.3.8.8.8.8 0 1.4-.8 1.5-2zm1.5 3.6h-1.8v-.8c-.5.7-1.2 1-2.2 1-1.1 0-1.9-.9-1.9-2.2 0-2 1.4-3.1 3.7-3.1.2 0 .5 0 .9.1.1-.3.1-.4.1-.5 0-.5-.4-.7-1.4-.7-1 0-1.9.2-2.2.4 0-.1.3-1.8.3-1.8 1.1-.3 1.8-.4 2.5-.4 1.8 0 2.8.8 2.8 2.4 0 .4-.1.9-.2 1.6-.2.9-.5 3.4-.6 4z"/><path id="Fill-337" class="st0" d="M26.8 36.2h-2.1l1.2-7.6-2.7 7.6h-1.4l-.2-7.6-1.3 7.6h-2l1.7-9.9h3l.2 5.5 1.9-5.5h3.4l-1.7 9.9"/><path id="Fill-338" class="st0" d="M65.4 32.6h-.5c-1.2 0-1.8.4-1.8 1.2 0 .5.3.8.8.8.9 0 1.5-.8 1.5-2zm1.6 3.6h-1.8v-.8c-.5.7-1.2 1-2.2 1-1.1 0-1.9-.9-1.9-2.2 0-2 1.4-3.1 3.7-3.1.2 0 .5 0 .9.1.1-.3.1-.4.1-.5 0-.5-.4-.7-1.4-.7-1 0-1.9.2-2.2.4 0-.1.3-1.8.3-1.8 1.1-.3 1.8-.4 2.5-.4 1.8 0 2.8.8 2.8 2.4 0 .4-.1.9-.2 1.6-.2.9-.6 3.4-.6 4z"/><path id="Fill-339" class="st0" d="M43 36.1c-.6.2-1 .3-1.5.3-1.1 0-1.7-.6-1.7-1.8 0-.4.2-1.3.3-2.1.1-.8.9-5.5.9-5.5h2.1l-.2 1.2h1.3l-.3 1.9h-1.3c-.2 1.5-.6 3.4-.6 3.7 0 .4.2.6.7.6.2 0 .4 0 .6-.1l-.3 1.8"/><path id="Fill-340" class="st0" d="M49.5 36c-.7.2-1.4.3-2.2.3-2.4 0-3.6-1.2-3.6-3.6 0-2.8 1.6-4.8 3.7-4.8 1.7 0 2.8 1.1 2.8 2.9 0 .6-.1 1.2-.3 2h-4.2c-.1 1.2.6 1.7 1.8 1.7.8 0 1.4-.2 2.2-.5l-.2 2zm-1.2-4.8c0-.2.2-1.4-1-1.4-.7 0-1.1.5-1.3 1.4h2.3z"/><path id="Fill-341" class="st0" d="M34.9 30.7c0 1 .5 1.7 1.6 2.2.9.4 1 .5 1 .9 0 .5-.4.7-1.2.7-.6 0-1.2-.1-1.9-.3 0 0-.3 1.8-.3 1.9.5.1.9.2 2.2.2 2.2 0 3.3-.9 3.3-2.7 0-1.1-.4-1.8-1.5-2.2-.9-.4-1-.5-1-.9s.4-.7 1-.7c.4 0 1 0 1.5.1l.3-1.9h-1.8c-2.4 0-3.2 1.2-3.2 2.7"/><path id="Fill-342" class="st0" d="M59.8 28.2c.6 0 1.1.2 1.9.5l.3-2.1c-.3-.1-1.4-.8-2.3-.8-1.4 0-2.6.7-3.5 1.9-1.2-.4-1.7.4-2.4 1.2l-.5.1c0-.3.1-.5.1-.8h-1.9c-.3 2.5-.7 5-1.1 7.5l-.1.5h2.1c.4-2.3.5-3.8.7-4.8l.8-.4c.1-.4.5-.6 1.2-.6-.1.5-.2 1.1-.2 1.6 0 2.6 1.4 4.3 3.7 4.3.6 0 1.1-.1 1.9-.3l.4-2.3c-.7.3-1.3.5-1.8.5-1.2 0-2-.9-2-2.4 0-2.1 1.1-3.6 2.7-3.6"/><path id="Fill-343" class="st0" d="m77.7 26.3-.5 2.9c-.6-.8-1.2-1.3-2-1.3-1.1 0-2 .8-2.7 2-.9-.2-1.8-.5-1.8-.5.1-.7.1-1.1.1-1.2h-1.9c-.3 2.5-.7 5-1.1 7.5l-.1.5h2.1c.3-1.9.5-3.4.7-4.6.7-.7 1.1-1.2 1.8-1.2-.3.8-.5 1.7-.5 2.6 0 2 1 3.3 2.6 3.3.8 0 1.4-.3 2-.9l-.1.7h2l1.6-9.9h-2.2v.1zm-2.6 8c-.7 0-1.1-.5-1.1-1.6 0-1.6.7-2.7 1.6-2.7.7 0 1.1.6 1.1 1.6 0 1.6-.7 2.7-1.6 2.7z"/><path id="Fill-344" class="st3" d="M27.4 35.6h-2.1l1.2-7.6-2.7 7.6h-1.4l-.2-7.6-1.3 7.6h-2l1.7-9.9h3l.1 6.1 2.1-6.1h3.3l-1.7 9.9"/><path id="Fill-345" class="st3" d="M32.7 32h-.5c-1.2 0-1.8.4-1.8 1.2 0 .5.3.8.8.8.8 0 1.4-.8 1.5-2zm1.5 3.6h-1.8v-.8c-.5.7-1.2 1-2.2 1-1.1 0-1.9-.9-1.9-2.2 0-2 1.4-3.1 3.7-3.1.2 0 .5 0 .9.1.1-.3.1-.5.1-.6 0-.5-.4-.7-1.4-.7-1 0-1.9.2-2.2.4 0-.1.3-1.8.3-1.8 1.1-.3 1.8-.4 2.5-.4 1.8 0 2.8.8 2.8 2.4 0 .4-.1.9-.2 1.6-.1 1-.5 3.5-.6 4.1z"/><path id="Fill-346" class="st3" d="m62.6 26-.3 2.1c-.8-.4-1.3-.5-1.9-.5-1.6 0-2.7 1.5-2.7 3.7 0 1.5.7 2.4 2 2.4.5 0 1.1-.2 1.8-.5l-.4 2.3c-.8.2-1.3.3-1.9.3-2.3 0-3.7-1.6-3.7-4.3 0-3.5 2-6 4.8-6 .9 0 2 .4 2.3.5"/><path id="Fill-347" class="st3" d="M66 32h-.5c-1.2 0-1.8.4-1.8 1.2 0 .5.3.8.8.8.9 0 1.5-.8 1.5-2zm1.6 3.6h-1.8v-.8c-.5.7-1.3 1-2.2 1-1.1 0-1.9-.9-1.9-2.2 0-2 1.4-3.1 3.7-3.1.2 0 .5 0 .9.1.1-.3.1-.4.1-.5 0-.5-.4-.7-1.4-.7-1 0-1.9.2-2.2.4 0-.1.3-1.8.3-1.8 1.1-.3 1.8-.4 2.5-.4 1.8 0 2.8.8 2.8 2.4 0 .4-.1.9-.2 1.6-.2.9-.6 3.4-.6 4z"/><path id="Fill-348" class="st3" d="M43.6 35.5c-.6.2-1 .3-1.5.3-1.1 0-1.7-.6-1.7-1.8 0-.4.2-1.3.3-2.1.1-.8.9-5.5.9-5.5h2.1l-.2 1.2h1.1l-.3 1.9h-1.1c-.2 1.5-.6 3.4-.6 3.7 0 .4.2.6.7.6.2 0 .4 0 .6-.1l-.3 1.8"/><path id="Fill-349" class="st3" d="M50.1 35.4c-.7.2-1.4.3-2.2.3-2.4 0-3.6-1.2-3.6-3.6 0-2.8 1.6-4.8 3.7-4.8 1.7 0 2.8 1.1 2.8 2.9 0 .6-.1 1.2-.3 2h-4.2c-.1 1.2.6 1.7 1.8 1.7.8 0 1.4-.2 2.2-.5l-.2 2zm-1.2-4.7c0-.2.2-1.4-1-1.4-.7 0-1.2.5-1.3 1.4h2.3z"/><path id="Fill-350" class="st3" d="M35.5 30.1c0 1 .5 1.7 1.6 2.2.9.4 1 .5 1 .9 0 .5-.4.7-1.2.7-.6 0-1.2-.1-1.9-.3 0 0-.3 1.8-.3 1.9.5.1.9.2 2.2.2 2.2 0 3.3-.9 3.3-2.7 0-1.1-.4-1.8-1.5-2.2-.9-.4-1-.5-1-.9s.4-.7 1-.7c.4 0 1 0 1.5.1l.3-1.9c-.5-.1-1.4-.2-1.9-.2-2.3.2-3.1 1.4-3.1 2.9"/><path id="Fill-351" class="st3" d="M78.8 35.6h-2l.1-.7c-.6.6-1.2.9-2 .9-1.5 0-2.6-1.3-2.6-3.3 0-2.7 1.6-4.9 3.4-4.9.8 0 1.4.3 2 1.1l.5-2.9h2.1l-1.5 9.8zm-3.1-1.8c1 0 1.7-1.1 1.7-2.7 0-1-.4-1.6-1.1-1.6-1 0-1.6 1.1-1.6 2.7-.1 1 .3 1.6 1 1.6z"/><path id="Fill-352" class="st3" d="M69.5 27.6c-.3 2.5-.7 5-1.1 7.5l-.1.5h2.1c.8-4.9.9-5.9 2.1-5.8.2-1 .5-1.9.8-2.3-.9-.2-1.4.3-2 1.3.1-.4.1-.8.1-1.2h-1.9"/><path id="Fill-353" class="st3" d="M52.1 27.6c-.3 2.5-.7 5-1.1 7.5l-.1.5H53c.8-4.9.9-5.9 2.1-5.8.2-1 .5-1.9.8-2.3-.9-.2-1.4.3-2 1.3.1-.4.1-.8.1-1.2h-1.9"/></svg>