<svg xmlns="http://www.w3.org/2000/svg" viewBox="0 0 100 60" style="enable-background:new 0 0 100 60" xml:space="preserve"><path d="M100 55c0 2.8-2.3 5-5 5H5c-2.8 0-5-2.3-5-5V5c0-2.8 2.3-5 5-5h90c2.8 0 5 2.3 5 5v50z" style="fill:#3476ad"/><path d="M17 19h4.2c.8 0 1.4.1 1.8.3.4.2.7.5.9.8.2.4.3.9.3 1.3 0 .7-.2 1.3-.6 1.9-.4.5-.8.9-1.4 1.2-.6.2-1.4.4-2.4.4h-1.3l-.7 3.4H15l2-9.3zm2 4h1c.4 0 .8-.1 1.1-.4.3-.2.4-.6.4-1 0-.5-.3-.8-.9-.8h-1.1L19 23zm6 .3c.1-.6.5-1.1 1.1-1.5.5-.4 1.4-.5 2.6-.5 1.3 0 2.2.2 2.7.5s.7.9.7 1.4c0 .7-.2 1.4-.4 2.1-.2.6-.3 1.3-.3 1.9 0 .3.1.6.2.9h-2.5c-.1-.3-.1-.5-.1-.8-.6.6-1.4.9-2.2.9-.8 0-1.5-.2-1.8-.6-.4-.4-.6-.9-.6-1.4 0-.6.2-1.1.5-1.4.4-.3.8-.5 1.2-.6.7-.1 1.3-.2 2-.3.5 0 1-.1 1.5-.2 0-.2.1-.3.1-.4 0-.2-.1-.3-.3-.4-.2-.1-.4-.2-.7-.2-.3 0-.5 0-.7.1-.2.1-.4.4-.5.6l-2.5-.1zm4.1 1.9c-1.2.2-1.9.4-2.1.5-.2.1-.3.3-.3.5s.1.4.2.5c.2.1.4.2.6.2.4 0 .7-.2 1-.4.3-.2.5-.6.6-1.3zm11.8-3.7L36.7 29c-.4.7-.8 1.2-1.2 1.5-.4.3-.9.4-1.4.4-.6 0-1.3-.1-1.9-.3l.2-1.7c.3.1.5.2.8.2.5 0 .9-.3 1.2-.9l-1.3-6.7h2.5l.4 4.7 2.3-4.7h2.6zm7.5 1c.4-.4.8-.7 1.3-.9.4-.2.8-.2 1.3-.2.6 0 1.1.2 1.4.5.3.3.5.7.4 1.2 0 .3 0 .5-.1.8l-1 4.4h-2.6l.6-2.8c.2-.7.2-1.2.3-1.3v-.3c0-.4-.2-.5-.5-.5-.4 0-.7.2-1 .5-.3.3-.4.8-.6 1.5l-.6 3h-2.6l.6-2.8c.2-.8.3-1.2.3-1.3V24c0-.3-.1-.5-.4-.5h-.1c-.3 0-.6.2-.8.4-.3.3-.5.7-.6 1.4l-.7 2.9h-2.6l1.4-6.7h2.4l-.2 1c.7-.8 1.6-1.1 2.5-1.1.4 0 .8.1 1.1.3.4.2.7.5.8.8zm12.8 4c-.3.6-.8 1.1-1.5 1.4-.7.3-1.5.5-2.3.4-1.3 0-2.3-.3-2.8-.9-.5-.6-.9-1.4-.8-2.2 0-.6.1-1.2.4-1.7.5-1 1.3-1.7 2.4-2 .5-.1 1-.2 1.5-.2 1.2 0 2.1.3 2.7.8.5.5.8 1.2.8 2 0 .4-.1.9-.2 1.3h-5.1c.1.9.5 1.3 1.2 1.3.5 0 .9-.2 1.2-.6l2.5.4zM59 24.3c0-.1.1-.3 0-.4 0-.3-.1-.6-.3-.8-.2-.2-.5-.3-.8-.3-.3 0-.6.1-.9.4-.3.3-.5.7-.6 1.1H59zm6.7-1.8c.6-.8 1.6-1.2 2.6-1.2.6 0 1.1.2 1.4.5.3.3.5.7.4 1.1 0 .5-.1 1.1-.3 1.6l-.8 3.7h-2.6l.7-3.1c.1-.4.2-.9.2-1.3s-.2-.5-.5-.5c-.4 0-.8.2-1 .5-.3.4-.5 1-.6 1.5l-.6 2.9H62l1.4-6.7h2.4l-.1 1zm10.6-1-.3 1.8h-1.3l-.5 2.4c0 .1-.1.2-.1.3 0 .3.2.4.6.4.3 0 .5-.1.8-.1l-.4 1.8c-.6.1-1.1.1-1.7.2-.7 0-1.2-.2-1.5-.5-.3-.3-.4-.7-.4-1.1 0-.4.1-.7.2-1.1l.5-2.3h-.9l.4-1.8h.9l.2-1.1 2.9-1.4-.7 2.5h1.3z" style="fill:#fff"/><path d="M63.9 40.8h-2.8l-.1-1.5h-3l-.7 1.5h-3.1l5.2-9.2h3l1.5 9.2zm-3.1-3.4-.3-3.4-1.6 3.4h1.9zm11.5-1.6-2.4.2c-.1-.4-.4-.6-.9-.6-.3 0-.5 0-.7.2-.2.1-.3.2-.3.4s.1.3.2.4c.1.1.5.2 1.1.3 1 .2 1.6.4 2 .7.3.3.5.7.5 1.2 0 .7-.3 1.3-1 1.8-.6.4-1.5.6-2.8.6-1.1 0-1.9-.2-2.3-.5s-.8-.8-.9-1.5l2.5-.2c.1.5.5.8 1.1.8.3 0 .5-.1.7-.2.2-.1.3-.3.3-.5s-.1-.4-.2-.4c-.3-.1-.6-.2-.9-.2-1-.2-1.7-.4-2-.7-.4-.3-.5-.7-.5-1.2 0-.4.1-.8.4-1.1.3-.4.7-.7 1.2-.9.6-.2 1.3-.4 2-.3.9 0 1.6.1 2.1.4.4.1.7.6.8 1.3zm4.5-1.6-1.4 6.7h-2.6l1.4-6.7h2.6zm.5-2.6-.3 1.8h-2.6l.4-1.8h2.5zM78 36c.1-.6.5-1.1 1.1-1.5.5-.4 1.4-.5 2.6-.5 1.3 0 2.2.2 2.7.5s.7.9.7 1.4c0 .7-.2 1.4-.4 2.1-.2.6-.3 1.3-.3 1.9 0 .3.1.6.2.9H82c-.1-.3-.1-.5-.1-.8-.6.6-1.4.9-2.3.9-.8 0-1.5-.2-1.8-.6-.4-.4-.6-.9-.5-1.4 0-.6.2-1.1.5-1.4.4-.3.8-.5 1.2-.6.7-.1 1.3-.2 2-.3.5 0 1-.1 1.5-.2 0-.2.1-.3.1-.4 0-.2-.1-.3-.3-.4-.2-.1-.4-.2-.7-.2-.3 0-.5 0-.7.1-.2.1-.4.4-.5.6L78 36zm4.2 1.9c-1.2.2-1.9.4-2.1.5-.2.1-.3.3-.3.5s.1.4.2.5c.2.1.4.2.6.2.4 0 .7-.2 1-.4.3-.2.5-.7.6-1.3z" style="fill:#e53b91"/></svg>