<svg version="1.1" id="图层_1" xmlns="http://www.w3.org/2000/svg" x="0" y="0" viewBox="0 0 100 60" style="enable-background:new 0 0 100 60" xml:space="preserve"><style>.st1{fill:#fff}</style><path d="M100 55c0 2.8-2.3 5-5 5H5c-2.8 0-5-2.3-5-5V5c0-2.8 2.3-5 5-5h90c2.8 0 5 2.3 5 5v50z" style="fill-rule:evenodd;clip-rule:evenodd;fill:#0b41be"/><path class="st1" d="M72.8 26.9c0-.4.1-.8.1-1.2 0-.6 0-1.2-.2-1.8-.2-.7-.5-1.2-.9-1.7-.6-.6-1.3-1-2.1-1.1-.7-.1-1.4-.1-2.1.2-.9.3-1.6.8-2.2 1.4-1 1.1-1.6 2.5-2 3.9-.1.5-.2 1-.2 1.5v1.1c.1.9.4 1.6 1 2.3.7.8 1.5 1.1 2.5 1.1.9 0 1.7-.3 2.5-.8.6-.3 1.1-.8 1.6-1.2.9-.8 1.7-1.7 2.5-2.6.4-.4.7-.8 1.1-1.2.6-.7 1.2-1.3 1.8-2 .7-.9 1.6-1.5 2.7-1.8.4-.1.8-.2 1.3-.2.6 0 1.1 0 1.7.2 1.2.4 2 1.1 2.4 2.2.3.7.4 1.4.5 2.1v.8c0 1.4-.3 2.7-.9 3.9-.5 1-1.2 1.9-2.1 2.5-.7.5-1.5.9-2.5 1-.7.1-1.4.1-2-.1-.6-.2-1.2-.5-1.7-.9l-.4-.4c-.4 2.1-.9 4.1-1.3 6.1h-3.4c.1-.4.2-.7.2-1.1.2-1 .4-2.1.6-3.1 0-.2.1-.3.2-.5.7-.8 1.4-1.5 2.1-2.3.7-.7 1.3-1.5 2-2.2 0 .1.1.1.1.2.2.5.5 1 1 1.4.7.5 1.5.6 2.3.2.7-.3 1.2-.8 1.5-1.5.5-.9.7-1.8.9-2.8.1-.6.1-1.2-.1-1.8-.1-.4-.6-.8-1-.8-.5 0-1 .1-1.4.4-.5.3-1 .7-1.4 1.1-.8.7-1.4 1.5-2.1 2.3-.7.9-1.4 1.8-2.1 2.6-.5.6-1.1 1.2-1.7 1.8-.4.3-.8.6-1.3.8-.8.3-1.7.5-2.6.6-.5 0-.9.1-1.4 0-1.6-.1-3-.5-4.3-1.6-1-.8-1.6-1.9-1.9-3.1-.2-.8-.4-1.7-.3-2.6 0-.9.2-1.7.4-2.6.2-.9.5-1.8 1-2.7.5-1 1.2-2 2.1-2.8 1.2-1.1 2.5-1.8 4.1-2.1.5-.1 1-.1 1.5-.2s1.1 0 1.6 0c1.4.1 2.6.6 3.7 1.5s1.7 2 2.1 3.3c0 .1 0 .2-.1.3-.5.6-1.1 1.2-1.6 1.8-.5.5-.9 1-1.4 1.5-.3.6-.3.7-.4.7z"/><path d="M20 18.2h-.3c-.9 4.4-1.8 8.8-2.8 13.2l-.9 4.2v.1h3.5l.6-3c.3-1.2.5-2.4.8-3.7h4.2c.7 0 1.4-.1 2.2-.2.8-.2 1.6-.4 2.3-.9.8-.6 1.4-1.4 1.8-2.3.6-1.2.8-2.5.6-3.8-.3-1.7-1.4-3-3.1-3.3-.8-.2-1.6-.2-2.4-.2h-4.7c-.6-.1-1.2-.1-1.8-.1zm1.9 8h-.4c.1-.6.3-1.3.4-1.9.2-1.1.4-2.1.7-3.2h2.9c.5 0 1 0 1.5.1 1.1.1 1.6.9 1.5 2-.2 1.5-1.3 2.6-2.7 2.8-.6.1-1.1.1-1.7.2h-2.2zM34.2 25c-.3.4-.5.9-.7 1.4 1 .1 1.9.2 2.8.2h.3c0-.1.1-.1.1-.2.2-.5.6-.9 1.2-1 .4-.1.9-.1 1.3-.1.2 0 .5.1.7.2.3.2.5.5.6.9 0 .3-.1.6-.1 1 0 .1-.1.2-.2.2s-.3.1-.4.1c-.2 0-.5.1-.7.1-.6.1-1.1.1-1.7.2-.3 0-.6.1-.8.1-.6.1-1.3.2-1.9.4-1.1.4-1.9 1.2-2.2 2.3-.2.6-.2 1.3-.1 1.9.2 1.1.7 1.9 1.7 2.4.8.5 1.7.5 2.6.3.9-.2 1.7-.6 2.4-1.3l.1-.1.1-.1c0 .1 0 .3.1.4 0 .3.1.7.2 1 .4.1 3 0 3.1 0v-.2c-.2-.9-.3-1.7-.1-2.6.1-.5.2-1 .3-1.6l.3-1.2c.1-.3.1-.6.2-.9.2-.8.3-1.6.4-2.4 0-.6-.1-1.2-.4-1.7-.5-.8-1.2-1.3-2.1-1.6-.6-.2-1.3-.2-1.9-.2-.7 0-1.4 0-2 .2-1.5.3-2.5.9-3.2 1.9zm5.2 4.8c.1 0 .2 0 .3-.1v.4c0 .1-.1.3-.1.4-.1.3-.2.7-.3 1-.3 1-1.1 1.5-2.1 1.7-.3.1-.6.1-.9 0-.5-.1-.9-.5-1-1-.1-.6 0-1.1.5-1.5.3-.2.7-.4 1.1-.5.7-.2 1.3-.3 2-.4h.1c.2.1.3 0 .4 0z" style="fill-rule:evenodd;clip-rule:evenodd;fill:#fff"/><path class="st1" d="m15.2 39.1-.6 2.7 30.2-1.3 1.5-2.7-31.1 1.3z"/><path class="st1" d="M58.8 22.9h-3c-.2 0-.3.1-.4.2-.8 1.6-1.7 3.1-2.5 4.7-.8 1.4-1.5 2.9-2 4.5 0 0 0 .1-.1.1-.1-1.6-.3-3.2-.5-4.7-.2-1.6-.4-3.1-.6-4.7h-3.3v.1l.6 3.3c.2 1 .3 2 .5 3 .2 1.1.4 2.2.6 3.4.1.8.4 2.5.4 2.5l-2.9 5.2H49s4.8-7.9 6-10.1c1.3-2.4 2.7-4.8 4-7.2 0-.1.1-.1.1-.2-.1-.1-.2-.1-.3-.1z"/></svg>