<svg version="1.1" id="图层_1" xmlns="http://www.w3.org/2000/svg" x="0" y="0" viewBox="0 0 100 60" style="enable-background:new 0 0 100 60" xml:space="preserve"><style>.st1{fill-rule:evenodd;clip-rule:evenodd;fill:#fff}</style><g transform="matrix(1 0 0 -1 0 60)"><path d="M100 5c0-2.8-2.3-5-5-5H5C2.3 0 0 2.3 0 5v50c0 2.8 2.3 5 5 5h90c2.8 0 5-2.3 5-5V5z" style="fill-rule:evenodd;clip-rule:evenodd;fill:#1696d0"/><path id="Shape" class="st1" d="m78.4 38-2-12.8c0-.2.2-.5.4-.5h2c.3 0 .6.2.7.6l2 12.6c0 .2-.2.5-.4.5h-2.3c-.2 0-.3-.2-.4-.4"/><path id="Shape_1_" class="st1" d="M53.1 33.8h-2.4c-.2 0-.4-.1-.6-.3l-3.3-4.8-1.4 4.6c-.1.3-.4.5-.7.5h-2.3c-.3 0-.5-.3-.4-.5l2.6-7.6-2.4-3.5c-.2-.3 0-.6.3-.6H45c.2 0 .4.1.6.3l7.9 11.4c.2.1 0 .5-.4.5"/><path id="Shape_2_" class="st1" d="M72.4 29.2c-.2-1.3-1.3-2.2-2.7-2.2-.7 0-1.2.2-1.6.6-.3.4-.5 1-.4 1.7.2 1.3 1.3 2.3 2.6 2.3.7 0 1.2-.2 1.6-.6.4-.5.6-1.1.5-1.8m3.3 4.6h-2.4c-.2 0-.4-.1-.4-.3l-.1-.7-.2.2c-.5.7-1.6 1-2.8 1-2.6 0-4.8-2-5.3-4.7-.2-1.4.1-2.7.9-3.6.7-.8 1.7-1.2 3-1.2 2.1 0 3.3 1.3 3.3 1.3l-.1-.7c0-.2.2-.5.4-.5h2.1c.3 0 .6.2.7.6l1.3 8.1c0 .3-.2.5-.4.5"/><path id="Shape_3_" class="st1" d="M37.3 29.2c-.2-1.3-1.3-2.2-2.6-2.2-.7 0-1.2.2-1.6.6-.3.4-.5 1-.4 1.7.2 1.3 1.3 2.3 2.6 2.3.7 0 1.2-.2 1.6-.6.4-.5.5-1.1.4-1.8m3.3 4.6h-2.4c-.2 0-.4-.1-.4-.3l-.1-.7-.1.2c-.5.7-1.6 1-2.8 1-2.6 0-4.8-2-5.3-4.7-.2-1.4.1-2.7.9-3.6.7-.8 1.7-1.2 3-1.2 2.1 0 3.3 1.3 3.3 1.3l-.1-.7c0-.2.2-.5.4-.5h2.1c.3 0 .6.2.7.6l1.3 8.1c-.1.3-.2.5-.5.5"/><path id="Shape_4_" class="st1" d="M26.5 33.8c-.3-1.8-1.6-1.8-2.9-1.8h-.7l.5 3.3c0 .2.2.3.4.3h.3c.9 0 1.7 0 2.2-.5.2-.3.3-.7.2-1.3m-.6 4.6H21c-.3 0-.6-.2-.7-.6l-2-12.6c0-.2.2-.5.4-.5H21c.3 0 .6.2.7.6l.5 3.4c.1.3.3.6.7.6h1.6c3.2 0 5.1 1.6 5.6 4.7.2 1.4 0 2.4-.6 3.2-.7.7-1.9 1.2-3.6 1.2"/><path id="Shape_5_" class="st1" d="M61.5 33.8c-.2-1.8-1.6-1.8-2.9-1.8h-.7l.5 3.3c0 .2.2.3.4.3h.3c.9 0 1.7 0 2.2-.5.3-.3.3-.7.2-1.3m-.5 4.6h-5c-.3 0-.6-.2-.7-.6l-2-12.6c0-.2.2-.5.4-.5h2.5c.2 0 .4.2.5.4l.6 3.6c.1.3.3.6.7.6h1.6c3.2 0 5.1 1.6 5.6 4.7.2 1.4 0 2.4-.6 3.2-.8.7-2 1.2-3.6 1.2"/></g></svg>