<svg version="1.1" id="图层_1" xmlns="http://www.w3.org/2000/svg" xmlns:xlink="http://www.w3.org/1999/xlink" x="0" y="0" viewBox="0 0 100 60" style="enable-background:new 0 0 100 60" xml:space="preserve"><style>.st3{fill:#fff}</style><path d="M100 55c0 2.8-2.3 5-5 5H5c-2.8 0-5-2.3-5-5V5c0-2.8 2.3-5 5-5h90c2.8 0 5 2.3 5 5v50z" style="fill:#0c002d"/><path d="M100 55c0 2.8-2.3 5-5 5H5c-2.8 0-5-2.3-5-5V5c0-2.8 2.3-5 5-5h90c2.8 0 5 2.3 5 5v50z" style="fill:none;stroke:#000;stroke-miterlimit:10"/><defs><path id="SVGID_1_" d="M7.9 18.3h85v28.3h-85z"/></defs><clipPath id="SVGID_2_"><use xlink:href="#SVGID_1_" style="overflow:visible"/></clipPath><g style="clip-path:url(#SVGID_2_)"><path class="st3" d="M35.6 24.8v6.7h-1.2v-1.2c-.3.4-.7.8-1.1 1-.4.2-.9.3-1.4.3-.5 0-.9-.1-1.3-.3-.4-.2-.8-.4-1.1-.8-.3-.3-.6-.7-.7-1.1s-.2-.9-.2-1.3c0-.5.1-.9.2-1.3.2-.4.4-.8.7-1.1.3-.3.7-.6 1.1-.8.4-.2.9-.3 1.3-.3.5 0 1 .1 1.4.3.4.2.8.6 1.1 1v-1.2l1.2.1zm-1.1 3.4c0-.5-.1-.9-.4-1.3-.3-.4-.6-.7-1.1-.9-.4-.2-.9-.2-1.4-.1-.5.1-.9.3-1.2.7-.3.3-.6.8-.6 1.2-.1.5 0 .9.1 1.4.2.4.5.8.9 1.1.4.3.9.4 1.3.4.3 0 .6-.1.9-.2.3-.1.6-.3.8-.5s.4-.5.5-.8c.1-.4.2-.7.2-1zm8.6-3.4L40.3 32c-.6 1.5-1.6 2.4-3 2.3v-1.1c.9.1 1.5-.5 1.8-1.4l.1-.3-2.9-6.7h1.3l2.3 5.3 1.9-5.3h1.3zm11.7 5.8c.4 0 .8-.1 1.1-.2.3-.2.6-.4.8-.7l1 .6c-.3.5-.8.9-1.3 1.1-.5.3-1.1.4-1.7.4-2.2 0-3.6-1.5-3.6-3.5 0-.5.1-.9.2-1.4.2-.4.4-.8.8-1.2.3-.3.7-.6 1.2-.8.4-.2.9-.3 1.4-.2 2 0 3.4 1.7 3.4 3.6v.5h-5.6c.1 1.1 1.1 1.8 2.3 1.8zm-2.4-2.9h4.5c0-.5-.3-1-.7-1.4s-.9-.6-1.5-.5c-.6 0-1.1.2-1.5.5-.5.3-.7.8-.8 1.4zm13.5-5.6v9.4h-1.2v-1.2c-.3.4-.6.8-1.1 1-.4.2-.9.3-1.4.3s-.9-.1-1.3-.3c-.4-.2-.8-.4-1.1-.8-.3-.3-.6-.7-.7-1.1-.2-.4-.2-.9-.2-1.3 0-.5.1-.9.2-1.3.2-.4.4-.8.7-1.1.3-.3.7-.6 1.1-.8.4-.2.9-.3 1.3-.3.5 0 1 .1 1.4.3.4.2.8.6 1.1 1v-3.8h1.2zm-1.1 6.1c0-.5-.1-.9-.4-1.3s-.6-.7-1.1-.9c-.4-.2-.9-.2-1.4-.1s-.9.3-1.2.7c-.3.3-.6.8-.6 1.2-.1.5 0 .9.1 1.4s.5.8.9 1.1c.4.3.9.4 1.3.4.3 0 .6-.1.9-.2.3-.1.6-.3.8-.5.2-.2.4-.5.5-.8.1-.4.2-.7.2-1zm5.9 2.4c.4 0 .8-.1 1.1-.2.3-.2.6-.4.8-.7l1 .6c-.3.5-.8.9-1.3 1.1-.5.3-1.1.4-1.7.4-2.2 0-3.6-1.5-3.6-3.5 0-.5.1-.9.2-1.4s.4-.8.8-1.2c.3-.3.7-.6 1.2-.8.4-.2.9-.3 1.4-.2 2 0 3.3 1.7 3.3 3.6v.5h-5.6c.2 1.1 1.2 1.8 2.4 1.8zm-2.4-2.9h4.5c0-.5-.3-1-.7-1.4-.4-.4-.9-.6-1.5-.5-.6 0-1.1.2-1.5.5-.5.3-.7.8-.8 1.4zm10 2.9c.4 0 .8-.1 1.1-.2.3-.2.6-.4.8-.7l1 .6c-.3.5-.8.9-1.3 1.1-.5.3-1.1.4-1.7.4-2.2 0-3.6-1.5-3.6-3.5 0-.5.1-.9.2-1.4.2-.4.4-.8.8-1.2.3-.3.7-.6 1.2-.8.4-.2.9-.3 1.4-.2 2 0 3.4 1.7 3.4 3.6v.5H76c.1 1.1 1.1 1.8 2.3 1.8zm-2.4-2.9h4.5c0-.5-.3-1-.7-1.4-.4-.4-.9-.6-1.5-.5-.6 0-1.1.2-1.5.5s-.7.8-.8 1.4zm16.6-.3v4.2h-1.2v-4.1c0-1.1-.6-1.6-1.5-1.6s-1.7.6-1.7 2v3.7H87v-4.1c0-1.1-.6-1.6-1.4-1.6-.9 0-1.7.6-1.7 2v3.7h-1.2v-6.7h1.2v.9c.2-.3.5-.6.9-.8.4-.2.7-.3 1.1-.3s.8.1 1.2.3c.4.2.6.5.8.9.2-.4.5-.7.9-.9.4-.2.8-.3 1.2-.3 1.5-.1 2.5 1 2.5 2.7zm-43.9.4c.7-.2 1.2-.7 1.5-1.3.3-.6.5-1.3.4-2s-.5-1.3-1-1.7c-.5-.4-1.2-.7-1.9-.7h-3.8v9.4h1.3v-8.2h2.5c.5 0 .9.2 1.2.5s.5.8.5 1.2c0 .5-.2.9-.5 1.2-.3.3-.7.5-1.2.5h-1.8v1.1h1.5l2.1 3.6h1.4l-2.2-3.6zm-23.5-5.7h-3.4v9.4H23v-8.2h2.2c.2 0 .5 0 .7.1s.4.2.6.4c.2.2.3.4.4.6s.1.5.1.7 0 .5-.1.7-.2.4-.4.6c-.2.2-.4.3-.6.4-.3.2-.6.2-.8.2h-1.4v1.2h1.4c.4 0 .8-.1 1.2-.2.4-.1.7-.4 1-.7.3-.3.5-.6.7-1s.2-.8.2-1.2c0-.4-.1-.8-.2-1.2-.2-.4-.4-.7-.7-1-.3-.3-.6-.5-1-.7-.4 0-.8-.1-1.2-.1zm-8.2 9.5v6.3l6.3 6.3v-6.3l-6.3-6.3z"/><radialGradient id="SVGID_3_" cx="-446.185" cy="6.162" r=".692" gradientTransform="translate(14525.401 -159.257) scale(32.5379)" gradientUnits="userSpaceOnUse"><stop offset="0" style="stop-color:#ec38bc"/><stop offset=".5" style="stop-color:#7303c0"/><stop offset="1" style="stop-color:#0c002d"/></radialGradient><path d="m13.8 28.4-6.3 6.3V41l9.4-9.4-3.1-3.2z" style="fill:url(#SVGID_3_)"/><path class="st3" d="m7.5 15.8 9.4 9.4v6.3l-9.4-9.4v-6.3z"/></g></svg>