<svg xmlns="http://www.w3.org/2000/svg" viewBox="0 0 100 60" style="enable-background:new 0 0 100 60" xml:space="preserve"><path d="M100 55c0 2.8-2.3 5-5 5H5c-2.8 0-5-2.3-5-5V5c0-2.8 2.3-5 5-5h90c2.8 0 5 2.3 5 5v50z" style="fill:#001ba9"/><path d="M37.3 25.6v3.2h-2.1v-9.9h4.1c1.2 0 2.1.3 2.8.9.7.6 1 1.4 1 2.4s-.3 1.8-1 2.5c-.7.6-1.6.9-2.8.9h-2zm0-5.1v3.4H39c1.3 0 1.9-.7 1.9-1.7s-.6-1.7-1.9-1.7h-1.7zm11.6 8.3v-1.1c-.6.9-1.4 1.3-2.4 1.3-.9 0-1.7-.3-2.3-1-.6-.7-1-1.6-1-2.6s.3-1.9 1-2.5c.6-.7 1.4-1 2.3-1 1 0 1.8.4 2.4 1.3V22h1.9v6.8h-1.9zm-3.2-2c.3.4.8.5 1.3.5.8 0 1.6-.5 1.9-1.1v-1.5c-.4-.6-1.1-1.1-1.9-1.1-.5 0-.9.2-1.3.5-.3.4-.5.8-.5 1.3 0 .6.1 1 .5 1.4zm10.7 2.9c-.3 1.2-1 1.7-2.3 1.7h-1.3l-.3-1.4H54c.4 0 .7-.2.8-.6l.2-.7h-1.9L51.5 22h2l1.1 5.3h.7l1.1-5.3h2l-2 7.7zM40.9 41l-1.5-3.5h-2.2V41h-2.1v-9.9h4.4c1.1 0 2.1.3 2.7.9.6.6 1 1.4 1 2.4 0 1.3-.6 2.3-1.7 2.8l1.7 3.9h-2.3zm-3.6-8.2V36h1.9c1.2 0 1.8-.7 1.8-1.6 0-.9-.6-1.6-1.8-1.6h-1.9zm13.6 5.9c-.2.8-.6 1.4-1.2 1.9s-1.4.7-2.3.7c-1.1 0-2-.3-2.7-1-.7-.7-1.1-1.6-1.1-2.6s.4-1.8 1.1-2.5c.7-.7 1.6-1 2.6-1 1.1 0 2 .4 2.7 1.1.6.8 1 1.7 1 2.7h-5.6c.1 1.1.9 1.8 2 1.8.8 0 1.5-.4 1.8-1h1.7zm-5.4-1.9h3.6c-.2-.8-.9-1.3-1.7-1.3-.9.1-1.7.5-1.9 1.3zm10.2-1.1h-1.2V41h-2v-5.3h-1.2v-1.5h1.2v-1.9h2v1.9h1.2v1.5zm5.9 5.3v-1.1c-.6.9-1.4 1.3-2.4 1.3-.9 0-1.7-.3-2.3-1-.6-.7-1-1.6-1-2.6s.3-1.9 1-2.5c.6-.7 1.4-1 2.3-1 1 0 1.8.4 2.4 1.3v-1.1h1.9V41h-1.9zm-3.2-2c.3.4.8.5 1.3.5.8 0 1.6-.5 1.9-1.1v-1.5c-.4-.6-1.1-1.1-1.9-1.1-.5 0-.9.2-1.3.5-.3.4-.5.8-.5 1.3 0 .6.1 1 .5 1.4zm8.4-6h-2v-1.9h2V33zm0 8h-2v-6.8h2V41zm3.2 0h-2v-9.9h2V41zm8.3-2.3c-.2.8-.6 1.4-1.2 1.9s-1.4.7-2.3.7c-1.1 0-2-.3-2.7-1-.7-.7-1.1-1.6-1.1-2.6s.4-1.8 1.1-2.5c.7-.7 1.6-1 2.6-1 1.1 0 2 .4 2.7 1.1.6.8 1 1.7 1 2.7h-5.6c.1 1.1.9 1.8 2 1.8.8 0 1.5-.4 1.8-1h1.7zm-5.5-1.9h3.6c-.2-.8-.9-1.3-1.7-1.3-.9.1-1.6.5-1.9 1.3zm10.8-.7c-.9 0-1.8.3-2.3.7V41h-2v-6.8h2v1.1c.6-.9 1.4-1.3 2.3-1.3v2.1zm.6 4.9v-1.5h3c.7 0 1-.2 1-.7 0-.5-.3-.7-1-.7h-.9c-1.4 0-2.2-.8-2.2-1.9 0-.6.2-1 .6-1.4.4-.4 1-.6 1.6-.6h3.3v1.5h-3.1c-.4 0-.6.2-.6.5s.2.5.6.5h1c1.6 0 2.5.9 2.5 2.1 0 1.3-.9 2.2-2.5 2.2h-3.3zM18.8 18.8H10V41h3.5V22h5.3c5.8 0 5.8 8.9 0 8.9h-1.1l-2.4 3.3h3.5c10.5-.1 10.5-15.4 0-15.4z" style="fill:#fff"/><path d="m27.5 41-9.8-10.1-2.9 2.9L22 41h5.5z" style="fill:#f9c32f"/></svg>