<svg version="1.1" id="图层_1" xmlns="http://www.w3.org/2000/svg" x="0" y="0" viewBox="0 0 100 60" style="enable-background:new 0 0 100 60" xml:space="preserve"><style>.st1{fill:#fff}</style><path d="M100 55c0 2.8-2.3 5-5 5H5c-2.8 0-5-2.3-5-5V5c0-2.8 2.3-5 5-5h90c2.8 0 5 2.3 5 5v50z" style="fill:#eca42a"/><path class="st1" d="M72.2 21.3h1.6c0 1.3.1 2.6.1 3.9h3.7v2.3h-3.8v3.3c0 .6.4 1.3.9 1.6.9.4 1.9.5 2.8.3v1.6c-.9.1-1.9.1-2.8 0-.5 0-1-.2-1.4-.5-.7-.5-1.1-1.4-1.1-2.3v-4.1c-2.1 0-4.3-.1-6.4-.1-.2 0-.4.1-.4.2-.2.3-.2.7-.1.9.1.2.3.3.5.3h2.8c1 0 1.9.7 2.2 1.6.2.7.2 1.5 0 2.2-.2.8-.6 1.5-1.3 1.9-.2.1-.5.2-.8.2h-7.2v-1.3c-.8 1-2.1 1.6-3.4 1.6-.9.1-1.8-.3-2.4-.9-.7-.6-1.3-1.4-1.5-2.3-.1-.6-.1-1.2-.1-1.8 0-.3.2-.5.3-.8.5-.7 1.2-1.3 1.9-1.9v2.7c0 .3 0 .7.1 1 .1.6.5 1.1 1 1.4s1.1.2 1.6-.1c.4-.3.7-.7.9-1.1.1-.3.1-.5.1-.8v-5.2h2.1v7.4h6.2c.4 0 .8-.3.8-.7 0-.4-.4-.7-.8-.8h-1.5c-.5 0-1 0-1.5-.1-.7-.2-1.4-.6-1.8-1.3-.5-.7-.5-1.7-.3-2.5s.9-1.5 1.6-1.9c.3-.1.5-.2.8-.2H72c.1-1.1.2-2.4.2-3.7zm6.8.7c.4-.4.9-.5 1.4-.5.6 0 1.2.1 1.6.5.5.5.5 1.5 0 2-.2.2-.4.2-.6.4.4.1.7.3 1 .6.3.4.4 1.1.1 1.6-.2.5-.8.9-1.3 1s-1 .1-1.5-.1-.9-.5-1.1-1c-.2-.6-.1-1.2.4-1.7.2-.2.5-.3.8-.4-.3-.1-.6-.3-.8-.6-.5-.5-.5-1.3 0-1.8m1.1.2-.6.3c-.3.4-.3 1.1.2 1.4.4.3 1 .3 1.5 0s.5-1 .2-1.4c-.3-.4-.8-.4-1.3-.3m.1 2.5c-.3 0-.6.2-.8.4-.4.4-.4 1.1 0 1.4.3.3.7.4 1 .4.4 0 .8-.1 1.1-.4.4-.4.4-1.1 0-1.5-.3-.3-.9-.3-1.3-.3zm3.7-2.6c.3-.4.8-.5 1.3-.6.6 0 1.2.1 1.6.5.5.4.6 1.2.3 1.7-.2.3-.5.5-.8.7.4.1.8.3 1 .6.4.6.3 1.4-.1 1.9-.3.4-.8.6-1.3.6-.5.1-1 0-1.5-.2-.4-.2-.8-.5-.9-.9-.2-.6-.1-1.3.4-1.8.2-.2.5-.3.7-.4-.3-.1-.7-.3-.8-.6-.4-.4-.3-1.1.1-1.5m1 .1c-.2.1-.4.2-.5.4-.2.4-.2 1 .2 1.3.4.3 1.1.3 1.5 0 .5-.3.5-1.1.1-1.5-.3-.3-.8-.3-1.3-.2m.1 2.6c-.4.1-.7.3-.8.7-.1.4-.1.8.2 1.1.3.3.7.4 1.1.4s.8-.1 1.1-.4c.4-.4.4-1.1-.1-1.5-.5-.4-1-.4-1.5-.3zm-72.5-2.7h6c.3 0 .7.1 1 .2 1.2.7 2.2 1.9 2.5 3.3.2 1 .2 2-.1 2.9-.3 1.2-1.1 2.3-2.2 3-.3.2-.7.3-1.1.3-1.2 0-2.4 0-3.6.1v2.8h-2.5V22.1m2.4 2.2v5.3h3.3c.3 0 .6-.1.8-.3.7-.7 1.2-1.7 1.1-2.7 0-.7-.4-1.4-.9-1.9-.3-.3-.8-.5-1.2-.5-1 .1-2.1.1-3.1.1zm23.4-2.2h19.8c-1.8.3-3.6 1-5.1 2.1-2.4 0-4.8.1-7.3.1v9.8h-2.3v-9.9h-5.2c.1-.6.1-1.3.1-2.1z"/><path class="st1" d="M55.2 24.4c2.4-1.1 5.1-1.7 7.7-1.8-2.2.6-4.4 1.5-6.3 2.9-2.5 1.7-4.6 4.2-5.9 6.9-.4.9-.8 1.8-1 2.7-.1-2.2-1-4.3-2-6.2-.4-.8-1-1.5-1.5-2.2 1.5.1 2.9.9 3.8 2.2 1.2-2.1 3.1-3.5 5.2-4.5zm-30.1 1.3c1-.6 2.3-.7 3.5-.4.8.2 1.5.8 2.2 1.3v-.7h.8v8.3h-.8v-.9c-.2 0-.4.1-.5.2-.8.7-1.8 1.1-2.9 1.1-1.1-.1-2.2-.4-3-1.1-.8-.6-1.3-1.5-1.5-2.5-.2-1.2 0-2.5.6-3.5.3-.8.9-1.4 1.6-1.8m1.5 1.4c-1 .2-1.7 1-1.9 2-.1.7-.1 1.5.3 2.2.3.6.9 1 1.5 1.2.9.3 1.9 0 2.5-.7.4-.5.6-1.3.6-2 0-.6 0-1.2-.4-1.7-.5-.9-1.6-1.2-2.6-1zm6.4-2h1.5v5.8c0 .6.3 1.2.9 1.5.8.4 2 .2 2.5-.6.2-.3.3-.7.3-1.1v-5.6h2.1c0 2.7 0 5.3.1 8 0 1.2-.4 2.5-1.2 3.4-1 1.3-2.5 2.1-4.1 2.1 0-1 0-1.9.1-2.9.8.1 1.7.1 2.4-.4.5-.4.7-1.1.5-1.7-.7.3-1.4.4-2.1.5-.3 0-.7 0-1-.1-.6-.2-1.2-.5-1.6-1-.3-.3-.5-.7-.5-1.1.1-2.2.1-4.5.1-6.8z"/></svg>