<svg version="1.1" id="图层_1" xmlns="http://www.w3.org/2000/svg" x="0" y="0" viewBox="0 0 100 60" style="enable-background:new 0 0 100 60" xml:space="preserve"><style>.st1{fill:#fff}</style><path d="M100 55c0 2.8-2.3 5-5 5H5c-2.8 0-5-2.3-5-5V5c0-2.8 2.3-5 5-5h90c2.8 0 5 2.3 5 5v50z" style="fill:#f01010"/><path class="st1" d="M42.7 10.7c.5-.4 1.2-.6 1.8-.7.7-.1 1.5 0 2.2.4.3.2.6.5.6.9 0 .3-.2.7-.5.8-.2.1-.5.1-.7 0-.2-.1-.3-.3-.5-.4-.4-.4-.9-.8-1.5-.8-.8-.1-1.4.5-1.7 1.2-.6 1.6-.5 3.3-.5 5 0 .1.1.2.2.2h2.8c.2.2.1.5 0 .7-.1.1-.2.2-.3.2h-2.5c-.2 0-.2.2-.2.4v5.6c0 .4 0 .8.2 1.1.1.1.2.2.3.2.4.1.8.1 1.2.1.2.1.1.4 0 .6-.6 0-1.2-.1-1.8-.1h-1.5c-.5 0-.9.1-1.4.1-.1-.2-.2-.4 0-.6.3-.1.6-.1.9-.1.2-.1.3-.2.4-.4.2-.5.1-1.1.1-1.6v-5.1c0-.1-.1-.2-.2-.2h-1c-.1-.1-.1-.3-.1-.4.3-.2.6-.3 1-.5.2-.1.3-.2.3-.4 0-.3 0-.7.1-1 .1-1.1.3-2.2.7-3.2.3-.7.9-1.5 1.6-2zm-29.7.6c1.3-.1 2.6-.1 3.9-.1 1.1 0 2.1 0 3.2.2.8.2 1.5.4 2.1 1 1 .9 1.6 2.3 1.4 3.7-.1.5-.2 1-.5 1.5-.2.4-.5.7-.9 1-.6.4-1.3.8-2 1.1-.5.2-1 .3-1.6.4-1.3.2-2.5.2-3.8.1-1.6-.1-3.2-.5-4.8-.8 1.6.2 3.2.3 4.8.3 1.2 0 2.4 0 3.6-.2.8-.2 1.6-.5 2.1-1.2.6-.7.9-1.7.8-2.6 0-1-.3-2-1-2.7s-1.7-.9-2.7-.9c-.3 0-.6 0-.9.1-.2.1-.3.3-.3.5v6.5h-1.8v-4.4c0-.6 0-1.2-.1-1.8-.1-.3-.3-.6-.6-.7-.4-.1-.8-.1-1.1-.2-.1-.4 0-.8.2-.8zm18.9 18c.4 0 .8.1 1.1.1.8 0 1.7 0 2.6-.1-.1 1 .4 2 .8 2.9.4 1 .9 1.8 1.3 2.7.5 1.1 1.1 2.1 1.6 3.2s1 2.2 1.6 3.3c.7-1 1.1-2.1 1.6-3.2 1-2 1.9-3.9 2.9-5.8.5-1 1.1-2 1.1-3.2 1.3.1 2.5.1 3.7 0 .1.2.1.4 0 .5-.5 0-.9.1-1.4.2-.4.1-.6.5-.6.8-.1.6-.1 1.3-.1 1.9v3.1c.1 2 .1 4.1.2 6.1 0 .4 0 .7.1 1 .1.4.3.6.7.7.4.1.7.1 1.1.1.1.2.1.4-.1.6-.5 0-1.1-.1-1.6-.1h-2.4c-.5 0-1 .1-1.5.1-.1-.2-.1-.4-.1-.6.5-.1 1 0 1.4-.3.4-.2.4-.8.4-1.2 0-3.3-.1-6.7-.1-10.1-.5.8-.9 1.6-1.3 2.5-.9 2.1-2 4.1-3 6.1-.5.8-.8 1.8-1.2 2.6-.1.3-.3.6-.4.9-.1.2-.4.2-.5 0-.3-1-.8-2-1.3-2.9-1.1-2.4-2.2-4.7-3.3-7.1-.3-.7-.5-1.4-1-2.1-.1.5-.1 1.1-.1 1.7 0 1-.1 1.9-.2 2.9-.1 1.4-.1 2.9-.1 4.3 0 .6-.1 1.2.1 1.8.1.3.1.6.4.7.4.2.9.1 1.4.2.1.2.1.4 0 .6-.6-.1-1.2-.1-1.8-.1-.8 0-1.6 0-2.4.1-.2 0-.4 0-.6.1-.1-.1-.1-.3-.1-.5 0-.1.2-.1.2-.1.4-.1.9-.1 1.3-.4.4-.4.4-.9.5-1.4.3-3.5.5-7.1.7-10.6 0-.4 0-.8-.3-1.1-.2-.2-.5-.3-.8-.4-.3-.1-.6-.1-.9-.1.3-.1.3-.3.4-.4zm32.9-13.7c.2 0 .4 0 .5.1.1.5-.1 1 .1 1.4.1.1.3.1.4.1h2.5c.2.2.2.7 0 1h-2.8c-.1 0-.2.1-.2.2-.1.2 0 .5-.1.7v4c0 .5.1 1 .2 1.5s.5.8 1 .9c.3.1.6.1.9.1.2-.1.5-.2.7-.3-.1-.2 0-.3 0-.3s.2.2.1.3c-.1.2-.4.4-.6.6-.7.5-1.6.6-2.4.5-.4-.1-.9-.2-1.2-.6-.4-.5-.6-1.2-.5-1.8v-5.3c0-.2 0-.5-.2-.5-.3-.1-.6 0-.9 0-.2-.1-.1-.3-.1-.5.7-.2 1.4-.5 1.8-1.1.4-.3.6-.6.8-1zm-30.5 1c.1-.1.2 0 .2.1.1.5 0 1.1.1 1.6.5-.4 1-.8 1.6-1.2.4-.2.9-.3 1.3-.1.2.1.5.3.6.5.1.4 0 .8-.2 1.1-.2.2-.6.3-.9.2-.4-.2-.8-.5-1.2-.5-.3 0-.7.2-.8.4-.1.2-.2.5-.3.7-.1.7-.1 1.4-.1 2.2v2.9c0 .3 0 .7.4.9.4.2.9.1 1.4.2.2.2.1.4 0 .6-.6 0-1.2-.1-1.8-.1h-1.7c-.4 0-.7.1-1.1.1-.1-.2-.2-.4 0-.6.3-.1.7-.1 1-.2.2-.1.3-.3.3-.5.1-.5 0-1.1 0-1.6v-4.1c0-.2 0-.4-.2-.6-.2-.2-.5-.3-.7-.6-.1-.1-.1-.3.1-.3.5-.3 1.3-.7 2-1.1zm28.5 18.3c.1-.1.3-.2.4-.2.1.1.1.1.1.2v1c0 .1.1.2.2.2.7-.4 1.4-.8 2.2-1 .4-.1.8-.2 1.3-.1s1 .2 1.4.5c.5.4.8 1 .9 1.6.1.4.1.8.1 1.3V43c0 .2.1.5.3.6.3.2.7.2 1.1.2.2.2.1.4 0 .6-.5-.1-1-.1-1.5-.1-.9 0-1.8 0-2.7.1-.1-.1-.2-.3-.1-.5 0-.1.1-.1.2-.1.3-.1.7-.1.9-.3.2-.3.2-.6.2-1v-4.1c0-.5-.1-1.1-.5-1.6-.3-.4-.7-.5-1.1-.6-.6-.1-1.3-.1-1.8.2-.3.2-.7.4-.8.7-.2.4-.2 1-.2 1.4v4c0 .3 0 .7.2 1 .3.2.7.2 1 .3.1.2.1.4-.1.6-1-.1-1.9-.1-2.8-.1-.5 0-.9.1-1.4.1-.1-.2-.2-.4 0-.6.3-.1.7 0 1-.2.2-.1.2-.2.3-.4.1-.6.1-1.3.1-1.9v-3.9c0-.2 0-.5-.2-.7-.2-.2-.4-.3-.6-.5-.1-.1-.1-.3 0-.4.6-.2 1.3-.5 1.9-.9zM25.3 17.7c.7-.5 1.6-.8 2.5-.8.7.1 1.5.2 2.1.7.5.4 1 1 1.1 1.7 0 .3.1.7-.1 1-.3.1-.6.1-1 .1H25c-.2 0-.3.1-.3.3 0 1 .1 1.9.6 2.7.5.9 1.4 1.6 2.4 1.8.4.1.7.1 1.1.1.7-.1 1.4-.5 1.8-1.1h.3c.1.1.1.2.1.2-.3.5-.7 1-1.2 1.4-.7.5-1.5.8-2.4.8-.9 0-1.8-.2-2.5-.7-.6-.4-1-.9-1.3-1.5-.5-1.1-.6-2.4-.3-3.6.2-1.3 1-2.4 2-3.1m.9.3c-.6.4-1.2.9-1.3 1.7.2.1.5 0 .7 0 1 0 2 0 3.1-.1.2 0 .4 0 .4-.2.1-.5.1-1-.3-1.3-.7-.6-1.9-.6-2.6-.1z"/><path class="st1" d="M48.7 17c.8-.2 1.7-.1 2.4.3.5.3 1 .7 1.3 1.2.3.5.4 1 .3 1.6 0 .1 0 .2-.1.3-.3.1-.5.1-.8.1h-5.1c-.1 0-.2.2-.2.3 0 .9.1 1.9.6 2.7.5.9 1.3 1.6 2.3 1.7.4.1.8.1 1.2.1.7-.1 1.3-.5 1.7-1.1.1 0 .2 0 .3.1.1.1.1.2.1.2-.2.4-.5.7-.8 1-.3.3-.6.5-1 .7-.6.2-1.2.4-1.8.4-.8 0-1.7-.2-2.4-.7-.5-.3-1-.8-1.3-1.4-.5-1-.7-2.1-.5-3.2.1-1 .4-1.9 1-2.6.8-.9 1.8-1.5 2.8-1.7m-1.1 1.3c-.4.4-.8.8-.8 1.4.3.1.6 0 .8 0 1 0 2.1 0 3.1-.1.3 0 .4-.4.4-.6 0-.3-.1-.7-.4-.9-.5-.4-1.1-.5-1.7-.4-.5 0-1 .3-1.4.6zm8.3-.7c.8-.5 1.8-.7 2.8-.7.7 0 1.4.1 2.1.4.2.1.3.2.4.4.1.4.1.9-.2 1.2-.1.1-.2.1-.4.1-.2-.1-.3-.3-.4-.4-.6-.6-1.4-1-2.2-.9-1.1.1-2 .7-2.5 1.7-.2.5-.4 1.1-.4 1.7-.1.8.1 1.6.5 2.3.4.8 1.1 1.4 2 1.7.7.2 1.4.2 2 .1.7-.2 1.3-.7 1.6-1.3.2 0 .4.1.4.3-.2.6-.7 1.2-1.3 1.5-.4.3-.9.5-1.4.7-1 .2-2 .2-3-.2-.8-.3-1.5-.9-2-1.7-.5-.9-.7-2-.6-3.1.1-.9.4-1.8 1-2.5.6-.5 1.1-1 1.6-1.3zm-1.2 17.5c.7-.1 1.4 0 2.1.2.8.2 1.5.8 2 1.4.8 1.1 1.1 2.6.9 3.9-.2 1.1-.7 2.1-1.5 2.8-.7.6-1.5 1-2.4 1.1-1 .2-2 0-2.9-.3-.9-.4-1.6-1.1-2.1-1.9-.5-.9-.7-2-.5-3.1.1-.9.4-1.8 1-2.5 1-.9 2.2-1.5 3.4-1.6m-.1.7c-.4.1-.8.2-1 .5-.6.6-.9 1.4-1.1 2.2-.2 1.3-.1 2.6.5 3.8.4.7.9 1.4 1.7 1.6.6.1 1.3.1 1.8-.2.3-.2.6-.5.8-.8.3-.4.4-1 .5-1.5.1-.6.1-1.2.1-1.8-.1-.9-.3-1.8-.8-2.6-.3-.4-.6-.8-1.1-1-.4-.3-.9-.3-1.4-.2zm20.6-.7c.6-.1 1.2 0 1.7.1.8.2 1.4.8 1.8 1.4.2.4.4 1 .2 1.5-.1.2-.3.3-.5.3H73c-.1 0-.2 0-.3.1-.1.2-.1.4-.1.5 0 .9.2 1.8.7 2.6.5.8 1.4 1.4 2.4 1.5.5.1 1.1.1 1.6-.1s.8-.5 1.1-1h.2c.1 0 .1.2.2.3-.3.5-.6.9-1.1 1.3-.7.5-1.6.8-2.5.8-.8 0-1.7-.2-2.4-.7-.8-.5-1.4-1.4-1.7-2.4-.5-1.8-.1-3.9 1.3-5.2.9-.4 1.8-.9 2.8-1m-.2.7c-.6.1-1.2.5-1.6 1-.3.3-.5.6-.5 1 .6.1 1.2 0 1.8 0 .7 0 1.4 0 2.1-.1.1 0 .3-.1.4-.2.1-.4.1-.7-.2-1-.2-.3-.5-.4-.8-.5-.3-.3-.8-.3-1.2-.2zm7.6-.4c.4 0 .8-.1 1.3-.1.2.1.2.4.1.5-.3.1-.7.1-1 .3-.1.1 0 .3 0 .5.3 1 .7 2 1 3 .3.8.5 1.7 1 2.5.2-.3.3-.6.4-.9l1.2-2.7c.2-.6.5-1.2.7-1.8.1-.2.1-.4-.1-.5-.3-.2-.7-.2-1-.2-.2 0-.2-.3-.2-.5.1-.1.2-.1.3-.1.8.1 1.7.1 2.5.1.4 0 .7-.1 1-.1.2.1.2.4.1.5-.4 0-.8.1-1 .4-.5.4-.7 1-1 1.5-.7 1.4-1.4 2.9-2.1 4.3-.5 1.1-1.1 2.3-1.6 3.4-.4.9-.8 1.8-1.3 2.7-.2.4-.4.9-.7 1.2-.4.5-1.2.6-1.7.3-.5-.4-.5-1.4.2-1.6.4-.2.8 0 1.3-.2.3-.2.4-.4.6-.7.3-.5.6-1.1.8-1.6.2-.4.4-.9.4-1.4.1-.5-.1-1-.2-1.4L81.8 38c-.2-.4-.3-.9-.5-1.3-.1-.2-.2-.5-.5-.6-.4-.1-.8-.1-1.2-.2-.1-.1-.1-.3 0-.4.1-.2.2-.1.4-.1h2.6zM14.8 20.6c.6.1 1.2.1 1.8.1v2.1c0 .7 0 1.3.1 2 .1.4.3.7.7.8.4.2.9.1 1.4.2.1.2.1.4-.1.6-.5 0-1.1-.1-1.7-.1h-2.3c-.6 0-1.2.1-1.8.1-.1-.2-.2-.4 0-.6.4-.1.8-.1 1.1-.2.3-.1.5-.4.6-.7.1-.7.1-1.5.1-2.3.1-.7.1-1.4.1-2z"/></svg>