<svg xmlns="http://www.w3.org/2000/svg" viewBox="0 0 100 60" style="enable-background:new 0 0 100 60" xml:space="preserve"><path d="M193-1066c0 10.4-8.5 18.9-18.9 18.9h-340.2c-10.4 0-18.9-8.5-18.9-18.9v-189c0-10.4 8.5-18.9 18.9-18.9h340.2c10.4 0 18.9 8.5 18.9 18.9v189z" style="fill:#ff8c00" transform="translate(48.944 337.05) scale(.26458)"/><path d="M46-1184.4v47.9c0 .7-.6 1.3-1.3 1.3h-9.9c-.7 0-1.3-.6-1.3-1.3v-48c0-.7.6-1.3 1.3-1.3h9.9c.7 0 1.3.6 1.3 1.4 0-.1 0 0 0 0zm76.2-1.3c.4 0 .9.2 1.3.6.3.3.3.8.2 1.1l-16.1 48c-.2.5-.7.8-1.2.9h-8.7c-.6 0-1-.3-1.2-.9l-9.4-28-9.4 28c-.2.5-.7.8-1.2.9h-8.7c-.6 0-1-.3-1.2-.9l-16.1-48c-.1-.4-.1-.8.2-1.1.2-.4.7-.6 1-.6h10.9c.6 0 1 .4 1.2.9l8.6 28.4 9.5-28.4c.2-.5.7-.8 1.2-.9h7.7c.6 0 1 .3 1.2.9l9.5 28.4 8.6-28.4c.2-.6.7-.9 1.2-.9h10.9zm16.5 0c.7 0 1.2.6 1.3 1.3v47.9c0 .7-.6 1.3-1.3 1.3H129c-.7 0-1.3-.6-1.3-1.3v-48c0-.7.6-1.3 1.3-1.3h9.7zm-110.8 48.8c.6.7.1 1.6-.8 1.6h-12c-.5 0-.9-.2-1.2-.6l-2-2.5c-4.2 2.7-9.1 4.3-14.3 4.3-14.6 0-26.5-11.9-26.5-26.5S-17-1187-2.4-1187s26.5 11.9 26.5 26.5c0 5.2-1.5 10.1-4.2 14.3l8 9.3zm-86.8-11.3c1.6.6 2.2 3 2.3 4.1.2 1.9-.3 2.6-.9 2.6s-1.5-.7-2.4-2.2c-.9-1.5-1.3-3.1-.8-4 .3-.5 1-.8 1.8-.5zm-9.3 7c1 0 2.1.4 3.1 1.3 1.9 1.6 2.5 3.4 1.5 4.8-.6.7-1.5 1.1-2.5 1.1s-2.2-.4-2.9-1c-1.7-1.5-2.2-3.9-1.1-5.3.3-.6 1-.9 1.9-.9zm-21.6 17.7c-23.4 0-42.3-18.9-42.3-42.3s18.9-42.3 42.3-42.3 42.3 18.9 42.3 42.3c0 7.9-2.2 15.4-6 21.7-.1.2-.4.1-.5-.1-1.5-10.4-7.8-16.1-17-17.8-.8-.1-.9-.6.1-.7 2.8-.2 6.8-.2 8.9.2.1-1 .2-2.2.2-3.3 0-15.4-12.5-28-28-28-15.4 0-28 12.5-28 28 0 15.4 12.5 28 28 28h1.3c-.4-2.5-.6-5-.6-7.6.1-1.7.4-2 1.2-.6 3.9 6.7 9.4 12.7 20.2 15.1 8.9 2 17.7 4.2 27.2 16.4.9 1-.4 2.2-1.4 1.3-9.7-8.6-18.6-11.4-26.6-11.4-8.9 0-15.1 1.1-21.3 1.1zm93.9-24-5.2-6.4c-.6-.7-.1-1.7.8-1.7h11c.6-1.5.9-3.2.9-4.9 0-7.9-5.9-14.7-13.9-14.7-8.1 0-13.9 6.8-13.9 14.7s5.9 14.6 13.9 14.6c2.2.1 4.4-.6 6.4-1.6z" style="fill:#fff" transform="translate(48.944 337.05) scale(.26458)"/></svg>