<svg version="1.1" id="svg107" xmlns="http://www.w3.org/2000/svg" xmlns:xlink="http://www.w3.org/1999/xlink" x="0" y="0" viewBox="0 0 100 60" style="enable-background:new 0 0 100 60" xml:space="preserve"><style>.st11,.st4{fill-rule:evenodd;clip-rule:evenodd;fill:#fff}</style><path d="M100 55c0 2.8-2.3 5-5 5H5c-2.8 0-5-2.3-5-5V5c0-2.8 2.3-5 5-5h90c2.8 0 5 2.3 5 5v50z" style="fill:#3fae2a"/><defs><path id="SVGID_1_" d="M12.5 19.8h75v20.3h-75z"/></defs><clipPath id="SVGID_2_"><use xlink:href="#SVGID_1_" style="overflow:visible"/></clipPath><g id="g105" style="clip-path:url(#SVGID_2_)"><path id="path67" d="M18.2 25v9c0 .1 0 .1.1.1H20c.1 0 .1 0 .1-.1v-3.2c0-.1 0-.1.1-.1h1.6c.1 0 .3.1.4.2l4.3 6.5.5.6c.6-.4 1.2-.9 1.7-1.4 2.1-2.1 2.1-4.4 2.1-6.9v-5.6l-.1-.2c-.8-1.3-2-2.3-3.6-3-1.7-.7-3.6-1.1-5.5-1-1.9 0-3.7.3-5.5 1-1.5.7-2.8 1.7-3.6 3l-.1.2v5.6c0 2.6 0 4.9 2.1 6.9.9.9 1.9 1.6 3.1 2.2 1.2.6 2.5 1.1 3.8 1.3h.4c1.3-.3 2.5-.7 3.7-1.2 0-.1-.1-.2-.1-.2l-1-1.4c-.9.4-1.8.7-2.8.9-1.1-.2-2.2-.6-3.2-1.1-.9-.5-1.8-1.1-2.6-1.8-1.5-1.5-1.5-3.4-1.5-5.5v-5.1c.6-.8 1.4-1.5 2.5-1.9 1.4-.6 3-.9 4.7-.9 1.7 0 3.3.3 4.7.9 1.1.5 2 1.1 2.5 1.9v5.1c0 2.1 0 4-1.4 5.5L24 30.4c1-.5 1.2-1.4 1.2-2.5v-.3c0-.8-.2-1.4-.6-1.8-.2-.2-.4-.4-.7-.5-.2-.1-.5-.1-.7-.1h-5c.1-.4 0-.3 0-.2m4.7 1.5c.2 0 .4.2.5.5 0 .1.1.2.1.3v.3c0 .2 0 .4-.1.7-.1.2-.2.3-.3.5-.1.1-.3.2-.4.2h-2.4c-.1 0-.1 0-.1-.1v-2.1c0-.1 0-.1.1-.1l2.6-.2z" style="fill:#fff"/><defs><path id="SVGID_3_" d="M12.5 19.8h75v20.3h-75z"/></defs><clipPath id="SVGID_4_"><use xlink:href="#SVGID_3_" style="overflow:visible"/></clipPath><g id="g71" style="clip-path:url(#SVGID_4_)"><path id="path69" class="st4" d="m41.2 34.7-2.5-3.5c.2 0 .3 0 .5-.1.3-.1.5-.2.8-.3.2-.1.4-.4.6-.6.1-.3.2-.5.2-.8v-1.5c0-.3-.1-.7-.2-1-.1-.3-.4-.5-.6-.6-.3-.1-.7-.2-1-.3-.5-.1-.9-.1-1.4-.1h-3.2v9.2H36v-3.7h.9l2.4 3.6.1.1h2.1l-.3-.4zm-3-4.8c-.2 0-.5.1-.8 0H36v-2.8h1.6c.5 0 .9.1 1.1.2.2.1.3.3.3.5V29c0 .1 0 .3-.1.4 0 .1-.1.2-.2.2-.2.3-.4.3-.5.3"/></g><defs><path id="SVGID_5_" d="M12.5 19.8h75v20.3h-75z"/></defs><clipPath id="SVGID_6_"><use xlink:href="#SVGID_5_" style="overflow:visible"/></clipPath><g id="g75" style="clip-path:url(#SVGID_6_)"><path id="path73" class="st4" d="M47.6 29.1c-.1-.3-.2-.5-.4-.7-.4-.3-1.1-.4-2.2-.4h-1.1c-.4 0-.8 0-1.3.1h-.2v1.4h.3c.7-.1 1.4-.2 2.2-.2h.7c.1 0 .3 0 .4.1.1 0 .1.1.1.2s.1.2.1.4v.8h-1.7c-.4 0-.8 0-1.2.1-.3.1-.6.2-.8.4-.2.2-.4.4-.4.7-.1.3-.1.7-.1 1 0 .4 0 .8.1 1.1s.2.5.5.7c.2.2.5.3.8.4.4.1.8.1 1.2.1.5 0 1-.1 1.5-.2.1 0 .2-.1.2-.1v.2h1.6v-4.8c-.2-.6-.2-.9-.3-1.3M46 33.5c0 .1 0 .2-.1.2-.1.1-.2.1-.3.1h-1.3c-.2 0-.3 0-.5-.1-.1 0-.2-.1-.2-.1-.1-.1-.1-.2-.1-.3 0-.2-.1-.4 0-.5v-.6c0-.2.1-.3.3-.3.2 0 .4-.1.6 0H46v1.6z"/></g><defs><path id="SVGID_7_" d="M12.5 19.8h75v20.3h-75z"/></defs><clipPath id="SVGID_8_"><use xlink:href="#SVGID_7_" style="overflow:visible"/></clipPath><g id="g79" style="clip-path:url(#SVGID_8_)"><path id="path77" class="st4" d="M55.3 29.2c-.1-.3-.3-.5-.5-.7s-.5-.4-.9-.5-.8-.2-1.2-.1c-.6 0-1.1.1-1.6.2-.1 0-.2.1-.3.2V28h-1.6v9.8h1.7v-2.9c.1.1.2.1.3.1.2 0 .4.1.5.1h1.5c.1 0 .3 0 .4-.1.1 0 .3-.1.4-.1.1 0 .3-.1.4-.2.1-.1.2-.1.3-.2l.3-.3c.1-.1.2-.3.2-.4.1-.2.1-.3.1-.5s.1-.4 0-.6V30c.2-.3.2-.5 0-.8m-1.5 3.6c0 .2 0 .4-.1.6 0 .1-.1.2-.2.3-.2.1-.6.2-1.2.2s-1-.1-1.2-.2c-.1-.1-.1-.2-.1-.3-.1-.2-.1-.4-.1-.6v-2.4c0-.2 0-.5.1-.7 0-.1.1-.2.2-.3.1-.1.3-.1.4-.1.3 0 .5-.1.8-.1s.5 0 .8.1c.2 0 .3.1.4.2.1.1.2.2.2.3.1.2.1.4.1.7l-.1 2.3z"/></g><defs><path id="SVGID_9_" d="M12.5 19.8h75v20.3h-75z"/></defs><clipPath id="SVGID_10_"><use xlink:href="#SVGID_9_" style="overflow:visible"/></clipPath><g id="g83" style="clip-path:url(#SVGID_10_)"><path id="path81" class="st4" d="M58.2 27.4h-1.4v-1.7h1.7v1.7h-.3z"/></g><defs><path id="SVGID_11_" d="M12.5 19.8h75v20.3h-75z"/></defs><clipPath id="SVGID_12_"><use xlink:href="#SVGID_11_" style="overflow:visible"/></clipPath><g id="g87" style="clip-path:url(#SVGID_12_)"><path id="path85" class="st4" d="M58.2 35h-1.4v-7h1.7v7h-.3z"/></g><defs><path id="SVGID_13_" d="M12.5 19.8h75v20.3h-75z"/></defs><clipPath id="SVGID_14_"><use xlink:href="#SVGID_13_" style="overflow:visible"/></clipPath><g id="g91" style="clip-path:url(#SVGID_14_)"><path id="path89" class="st4" d="M64.4 25.2v3.2c-.1-.1-.2-.1-.4-.2s-.5-.1-.7-.2c-.3 0-.5-.1-.8 0-.4 0-.8 0-1.2.1-.3.1-.6.2-.9.4-.2.2-.4.4-.5.7-.1.3-.2.6-.2.9V33c0 .9.2 1.5.7 1.8.3.2.6.3.9.4.7.1 1.4.2 2.2 0 .3 0 .5-.1.7-.2.1 0 .2-.1.3-.1v.3H66v-9.9h-1.6v-.1zm0 7.9c0 .1 0 .2-.1.3s-.1.2-.2.2c-.2.1-.3.1-.5.1-.3 0-.5.1-.8 0h-.7c-.1 0-.3-.1-.4-.1-.1 0-.1-.1-.2-.2s-.1-.2-.1-.4v-3.2c0-.1 0-.2.1-.4 0-.1.1-.1.1-.1.2-.1.6-.1 1.3-.1 1 0 1.5.2 1.5.6v3.3z"/></g><defs><path id="SVGID_15_" d="M12.5 19.8h75v20.3h-75z"/></defs><clipPath id="SVGID_16_"><use xlink:href="#SVGID_15_" style="overflow:visible"/></clipPath><g id="g95" style="clip-path:url(#SVGID_16_)"><path id="path93" class="st11" d="M73.8 27.3c0-.1-.1-.3-.2-.4s-.1-.2-.2-.3l-.3-.3c-.1-.1-.2-.1-.3-.2-.1-.1-.3-.1-.4-.1s-.3-.1-.4-.1h-4.3v9.2h1.7v-3.2h1.1c.5 0 1 0 1.4-.1s.7-.2 1.1-.4c.6-.4 1-.9 1-1.8v-1.8c-.2-.1-.2-.3-.2-.5m-1.7 2.3c0 .2 0 .3-.1.5l-.3.3c-.4.2-.8.3-1.2.3h-1.2v-3.5h1.9c.1 0 .2 0 .3.1.1 0 .2.1.2.1.1 0 .1.1.2.1 0 .1.1.1.1.2v.3l.1 1.6z"/></g><defs><path id="SVGID_17_" d="M12.5 19.8h75v20.3h-75z"/></defs><clipPath id="SVGID_18_"><use xlink:href="#SVGID_17_" style="overflow:visible"/></clipPath><g id="g99" style="clip-path:url(#SVGID_18_)"><path id="path97" class="st11" d="M80.3 29.1c-.1-.3-.2-.5-.4-.7-.4-.3-1.1-.4-2.2-.4h-1.1c-.4 0-.8 0-1.2.1h-.2v1.4h.3c.7-.1 1.4-.2 2.2-.2h.7c.1 0 .3 0 .4.1.1 0 .1.1.1.2s.1.2.1.4v.8h-1.7c-.4 0-.8 0-1.2.1-.3.1-.6.2-.8.4-.2.2-.4.4-.4.7-.1.3-.1.7-.1 1 0 .4 0 .8.1 1.1s.2.5.5.7c.2.2.5.3.8.4.4.1.8.1 1.2.1.5 0 1 0 1.4-.2.1 0 .2-.1.2-.1v.2h1.6v-4.8c-.2-.6-.2-.9-.3-1.3m-1.5 4.4c0 .1 0 .2-.1.2-.1.1-.2.1-.3.1h-1.3c-.2 0-.3 0-.5-.1-.1 0-.2-.1-.2-.1-.1-.1-.1-.2-.1-.3 0-.2-.1-.4 0-.5v-.6c0-.2.1-.3.3-.3.2 0 .4-.1.6 0h1.6v1.6z"/></g><defs><path id="SVGID_19_" d="M12.5 19.8h75v20.3h-75z"/></defs><clipPath id="SVGID_20_"><use xlink:href="#SVGID_19_" style="overflow:visible"/></clipPath><g id="g103" style="clip-path:url(#SVGID_20_)"><path id="path101" class="st11" d="m87.4 28.4-3.2 9.3v.2h-1.7l.1-.3 1-2.6-2.6-6.6-.1-.3h1.8v.2l1.6 4.7 1.4-4.7v-.2h1.7v.3z"/></g></g></svg>