<svg version="1.1" id="图层_1" xmlns="http://www.w3.org/2000/svg" x="0" y="0" viewBox="0 0 100 60" style="enable-background:new 0 0 100 60" xml:space="preserve"><style>.st1{fill:#fff}</style><path d="M100 55c0 2.8-2.3 5-5 5H5c-2.8 0-5-2.3-5-5V5c0-2.8 2.3-5 5-5h90c2.8 0 5 2.3 5 5v50z" style="fill:#1ca0cb"/><g id="_x23_335b9dff"><path class="st1" d="M38.6 22.2h1.6v3.3h2.1v1.3h-2.1v4.4c0 .6.2 1.2.8 1.6.4.3 1 .3 1.5.3v1.4c-1 .1-2.2 0-3-.7-.7-.6-.9-1.6-.9-2.5v-4.4h-1.1v-1.3h1.2c-.1-1.2-.1-2.3-.1-3.4zm16.2 0h.8c.6.2 1.2.3 1.7.5 2.6.9 4.6 3.3 5 6.1.1.4.1.8.1 1.3h-2.2c0-1.9-1-3.8-2.6-4.8-.8-.6-1.9-.8-2.9-.9.2-.8.1-1.5.1-2.2zm-29.6.8c.8-.7 2-.9 3-.7v1.4c-.6-.1-1.3 0-1.7.4-.4.4-.5.9-.5 1.4h2.1v1.3H26v7.7h-1.7v-7.7h-1.1v-1.3h1.1c0-.9.3-1.9.9-2.5zM8.5 26.3c.9-.8 2.2-.9 3.3-.7.7.1 1.4.4 1.9.9-.2.4-.4.8-.7 1.2-.7-.5-1.6-.9-2.5-.7-.4.1-.9.3-1 .8-.1.4.1.8.5 1 1 .6 2.3.8 3.2 1.6.6.6.9 1.5.6 2.3-.2.9-1.1 1.5-1.9 1.7-1.5.4-3.2-.1-4.4-1.1.3-.4.5-.8.8-1.2.7.6 1.6 1 2.6 1 .5 0 1.1-.3 1.3-.8.1-.4-.1-.8-.5-1-1.1-.7-2.4-.8-3.3-1.7-.8-1-.8-2.6.1-3.3zm6.8.2c1-.7 2.2-1.1 3.4-1 .9 0 1.8.3 2.4.9.6.5.8 1.3.9 2.1v6h-1.6c0-.6 0-1.1.1-1.7-.3.3-.5.8-.8 1-1.2 1-3.1.9-4.2-.2-.7-.7-.9-1.9-.5-2.8.3-.7.9-1.1 1.5-1.4 1.2-.5 2.5-.5 3.8-.6 0-.5-.1-1.1-.5-1.5-.4-.4-1-.5-1.6-.5-.8.1-1.6.4-2.2.8-.2-.3-.5-.7-.7-1.1m2.4 3.9c-.5.1-1 .4-1.2.9-.3.7.2 1.6.9 1.8.8.3 1.7-.1 2.2-.7.5-.6.7-1.4.7-2.2-.9-.1-1.8-.1-2.6.2zm11.7-3.5c1.1-1.4 3.2-1.8 4.8-1.2 1 .4 1.7 1.3 2 2.3.2.7.2 1.4.2 2.2h-6.3c.1.7.3 1.3.7 1.9.5.6 1.4.9 2.2 1 1 0 1.9-.4 2.6-1 .2.4.5.8.7 1.2-.9.7-1.9 1.1-3 1.2-1.3.1-2.6-.3-3.5-1.2-.7-.7-1.2-1.7-1.3-2.7-.2-1.3.1-2.7.9-3.7m1.9.3c-.6.4-1 1.1-1.1 1.8h4.6c-.1-.6-.2-1.3-.7-1.7-.9-.7-2-.7-2.8-.1z"/><path class="st1" d="M42.4 25.4h1.8c.1.1.1.2.2.4.7 1.9 1.4 3.7 2.1 5.5.1.3.2.6.4.9.1-.6.3-1.2.5-1.8.6-1.7 1.2-3.4 1.9-5.1h1.8c-1.2 3.1-2.5 6.3-3.7 9.4-.3.6-.5 1.3-.9 1.9-.5.7-1.4 1.1-2.3 1.1-.6 0-1.2-.2-1.7-.5.2-.4.4-.8.6-1.3.4.2.8.4 1.3.3.6-.1 1.1-.7 1.3-1.3.1-.3.3-.6.4-1-.6-1.4-1.2-2.9-1.9-4.3-.5-1.2-1.2-2.7-1.8-4.2zM53 26.8c1.4 1 2.7 2.2 4.2 3.2h-4.1c-.1-1.1 0-2.2-.1-3.2z"/></g><path class="st1" d="M67.1 25.5c.5-.1 1 0 1.5 0-.1.5-.2 1.1-.4 1.6.4-.4.7-.8 1.2-1.1 1-.6 2.4-.7 3.5-.2.8.4 1.4 1.3 1.5 2.2.2 1.6-.1 3.2-1 4.5-.7.9-1.7 1.6-2.9 1.9-.8.1-1.7 0-2.4-.4-.4-.2-.6-.7-.9-1 0 .6-.2 1.2-.3 1.8-.2 1-.4 2.1-.6 3.1h-1.6c.8-4.2 1.5-8.3 2.4-12.4m3.1 1.5c-.6.2-1.1.5-1.4.9-.7.8-1.1 1.9-1.1 3 0 .5.1.9.4 1.3.4.7 1.3.9 2 .7.6-.2 1.2-.5 1.6-1 .8-.9 1.2-2.3 1-3.5-.1-.5-.3-1-.7-1.3-.5-.2-1.2-.2-1.8-.1zm6.2-.7c1.3-.7 2.7-1.1 4.2-.8.7.1 1.5.5 1.8 1.2.3.6.3 1.3.2 1.9-.4 1.9-.8 3.9-1.1 5.8h-1.6c.2-.6.2-1.2.5-1.8-.3.3-.5.7-.8.9-.6.5-1.4.9-2.3.9-.9 0-1.8-.4-2.3-1.2-.4-.7-.3-1.6.1-2.3.4-.8 1.1-1.3 1.9-1.6 1.2-.5 2.6-.6 3.9-.6 0-.5.1-1.1-.2-1.5-.3-.4-.8-.5-1.3-.5-.9 0-1.8.4-2.6.8 0-.3-.2-.7-.4-1.2m1.7 4.1c-.4.1-.9.3-1.2.7-.4.4-.5 1.2-.1 1.6.4.5 1.2.5 1.8.3 1.2-.5 1.9-1.7 2.2-2.9-1 0-1.9 0-2.7.3zm5.7-4.9h1.7c.2 1.2.5 2.4.7 3.6.2 1.1.5 2.3.6 3.5.5-1 1.1-2 1.6-3 .8-1.4 1.5-2.7 2.3-4.1h1.8c-2.1 3.5-4.1 6.9-6.1 10.4-.5.9-1.3 1.6-2.3 1.9-.5.1-.9 0-1.4 0-.3-.1-.7-.3-1-.5.3-.4.5-.8.8-1.2.5.3 1.1.4 1.6.2.9-.4 1.2-1.4 1.8-2.1-.8-2.9-1.4-5.8-2.1-8.7zM53 30h4.1c-1.3 1.1-2.7 2.1-4 3.2H53c.1-1.1 0-2.2 0-3.2zm7.3 0h2.2c0 2.2-1 4.4-2.7 5.9-1.3 1.1-3 1.8-4.7 2h-.3v-2.1c.6-.1 1.1-.1 1.7-.4 2.2-.8 3.9-3 3.8-5.4z" id="_x23_5a9fcbff"/></svg>