<svg xmlns="http://www.w3.org/2000/svg" viewBox="0 0 100 60" style="enable-background:new 0 0 100 60" xml:space="preserve"><path d="M100 55c0 2.8-2.3 5-5 5H5c-2.8 0-5-2.3-5-5V5c0-2.8 2.3-5 5-5h90c2.8 0 5 2.3 5 5v50z" style="fill-rule:evenodd;clip-rule:evenodd;fill:#862165"/><path d="M62.8 24.8c1.3 0 2.4-1.1 2.4-2.4 0-1.3-1.1-2.4-2.4-2.4-1.3 0-2.4 1.1-2.4 2.4 0 1.3 1.1 2.4 2.4 2.4zm-18.4 1.3c-.1.3-.9 2.5-2.8 4.8v-9.8l-5 1v17.7h5v-5.5c1.5 2.2 2.2 5.5 2.2 5.5h6c-.6-2.5-3.2-7.1-3.2-7.1 2.3-3 3.4-6.1 3.5-6.7h-5.7v.1zm13.2-.2c-4.5.1-6.8 2.2-6.8 6.2v7.7h4.9v-6.3c0-2.4.3-3.4 3.2-3.5v-4c-.5-.1-1.3-.1-1.3-.1zM28.1 28c-.6 0-2-.1-2-1.4 0-1.6 2.1-1.6 2.8-1.6 1.4 0 3.1.4 4.4.8 0 0 .7.2 1.3.5h.1V22h-.1c-1.5-.5-3.2-1-6.4-1-5.5 0-7.5 3.2-7.5 6 0 1.6.7 5.3 7 5.7.5 0 2 .1 2 1.4 0 1.1-1.2 1.7-3.1 1.7-2.1 0-4.2-.5-5.5-1.1v4.4c1.9.5 4 .7 6.5.7 5.4 0 7.8-3 7.8-6-.1-3.2-2.8-5.4-7.3-5.8zm32.3 11.8h4.9V26.1h-4.9v13.7zm14.1-17.9v17.9h4.9V21.1l-4.9.8zm-7.2 0 4.9-.9v18.7h-4.9V21.9z" style="fill-rule:evenodd;clip-rule:evenodd;fill:#fff"/></svg>