<svg version="1.1" id="Layer_1" xmlns="http://www.w3.org/2000/svg" x="0" y="0" viewBox="0 0 100 60" style="enable-background:new 0 0 100 60" xml:space="preserve"><style>.st1{fill:#fff}</style><path d="M100 55c0 2.8-2.3 5-5 5H5c-2.8 0-5-2.3-5-5V5c0-2.8 2.3-5 5-5h90c2.8 0 5 2.3 5 5v50z" style="fill:#f48120"/><g id="XMLID_79_"><path id="XMLID_77_" class="st1" d="M33.2 23.4h-7.6c-1.2 0-2.4 0-3.4.5s-2 1.6-2.7 3.7c-.1.5-.2.8-.2 1.2 0 .3 0 .6.2.9.2.3.4.6.7.8.3.2.7.4 1.1.6 0 0 .2.1.5.1.3.1.6.2.8.2.1 0 .2.1.4.1l.3.3c0 .1.1.2.1.3 0 .1 0 .2-.1.3-.1.3-.2.5-.5.6-.3.1-.7.1-1.3.2h-7.8l-1.2 3.4h8.3c.8 0 2.2 0 3.6-.6s2.7-1.8 3.3-4.1c.2-.9.1-1.6-.2-2.2-.3-.6-1-1-1.9-1.2 0 0-.2-.1-.4-.1-.2-.1-.5-.1-.7-.2-.2-.1-.4-.2-.5-.4s-.1-.4-.1-.6c.1-.2.2-.4.4-.5.2-.1.5-.2.8-.2H30s.1-.1.1-.2c.9-1.2 2-2.2 3.1-2.9"/><path id="XMLID_76_" class="st1" d="M33.2 23.4h-7.6c-1.2 0-2.4 0-3.4.5s-2 1.6-2.7 3.7c-.2.5-.2.8-.2 1.2 0 .3 0 .6.2.9.2.3.4.6.7.8.3.2.7.4 1.1.6 0 0 .2.1.5.1.3.1.6.2.8.2.1 0 .2.1.4.1s.2.2.3.3c0 .1.1.2.1.3 0 .1 0 .2-.1.3-.1.3-.2.5-.5.6-.3.1-.7.1-1.3.2h-7.8l-1.2 3.4h8.3c.8 0 2.2 0 3.6-.6s2.7-1.8 3.3-4.1c.2-.9.1-1.6-.2-2.2-.3-.6-1-1-1.9-1.2 0 0-.2-.1-.4-.1-.2-.1-.5-.1-.7-.2-.2-.1-.4-.2-.5-.4-.1-.2-.1-.4-.1-.6.1-.2.2-.4.4-.5.2-.1.5-.2.8-.2H30s.1-.1.1-.2c.9-1.2 2-2.2 3.1-2.9"/><path id="XMLID_17_" class="st1" d="M74.4 23.4c.3.2.5.4.7.7.5.7.7 1.5.5 2.4H78l-3.7 10.1H78l3.7-10.1h4.7l1.1-3.1H74.4z"/><path id="XMLID_99_" class="st1" d="M74.2 24.7c-.6-.9-1.8-1.3-3.7-1.3H66l-4.8 13.2h4.1L67 32c.1.2 1.1 4.6 1.1 4.6h4.3s-.8-3.3-1.4-4.6c-.1-.3-.3-.7-.5-1 1.2-.5 3-1.4 3.7-3.4.5-1.2.5-2.2 0-2.9m-3.6 2.9c-.4 1.1-1.1 1.7-2.4 1.7h-.7l1.2-3.2h.7c1.2 0 1.7.4 1.2 1.5"/><path id="XMLID_96_" class="st1" d="M40.7 24.6c-.7-.9-1.8-1.4-3.4-1.4-1 0-2 .2-3 .7-1.3.6-2.5 1.7-3.5 3.1-.6.9-1.2 2-1.6 3.1-.8 2.2-.8 4 0 5.2.5.7 1.4 1.5 3.4 1.5 3.6 0 6.3-2.4 8-7.1.5-1.2 1.2-3.5.1-5.1m-3.9 5.3c-1.1 3.1-1.9 3.9-3.2 3.9-1.2 0-1.6-.8-.5-3.8.8-2.3 1.9-3.8 3.2-3.8 1.3 0 1.6.7.5 3.7"/><path id="XMLID_12_" class="st1" d="M55.1 23.4h-7.7c-2.2 0-3.8 1.1-4.5 3.1l-3.7 10h4l1.9-5.2h3.5l1-2.8h-3.5l.6-1.6c.1-.3.4-.5.8-.5h4.2s.1-.1.1-.2c.9-1.1 2.2-2.1 3.3-2.8"/><path id="XMLID_92_" class="st1" d="M62.5 24.6c-.7-.9-1.8-1.4-3.4-1.4-1 0-2 .2-3 .7-1.3.6-2.5 1.7-3.5 3.1-.6.9-1.2 2-1.6 3.1-.8 2.2-.8 4 0 5.2.5.7 1.4 1.5 3.4 1.5 3.6 0 6.3-2.4 8-7.1.6-1.2 1.2-3.5.1-5.1m-3.9 5.3c-1.1 3.1-1.9 3.9-3.2 3.9-1.2 0-1.6-.8-.5-3.8.8-2.3 1.9-3.8 3.2-3.8 1.3 0 1.6.7.5 3.7"/><path id="XMLID_9_" class="st1" d="M74.4 23.4c.3.2.5.4.7.7.5.7.7 1.5.5 2.4H78l-3.7 10.1H78l3.7-10.1h4.7l1.1-3.1H74.4z"/><path id="XMLID_88_" class="st1" d="M74.2 24.7c-.6-.9-1.8-1.3-3.7-1.3H66l-4.8 13.2h4.1L67 32c.1.2 1.1 4.6 1.1 4.6h4.3s-.8-3.3-1.4-4.6c-.1-.3-.3-.7-.5-1 1.2-.5 3-1.4 3.7-3.4.5-1.2.5-2.2 0-2.9m-3.6 2.9c-.4 1.1-1.1 1.7-2.4 1.7h-.7l1.2-3.2h.7c1.2 0 1.7.4 1.2 1.5"/><path id="XMLID_85_" class="st1" d="M40.7 24.6c-.7-.9-1.8-1.4-3.4-1.4-1 0-2 .2-3 .7-1.3.6-2.5 1.7-3.5 3.1-.6.9-1.2 2-1.6 3.1-.8 2.2-.8 4 0 5.2.5.7 1.4 1.5 3.4 1.5 3.6 0 6.3-2.4 8-7.1.6-1.2 1.2-3.5.1-5.1m-3.9 5.3c-1.1 3.1-1.9 3.9-3.2 3.9-1.2 0-1.6-.8-.5-3.8.8-2.3 1.9-3.8 3.2-3.8 1.3 0 1.6.7.5 3.7"/><path id="XMLID_4_" class="st1" d="M55.1 23.4h-7.7c-2.2 0-3.8 1.1-4.5 3.1l-3.7 10h4l1.9-5.2h3.5l1-2.8h-3.5l.6-1.6c.1-.3.4-.5.8-.5h4.2s.1-.1.1-.2c.9-1.1 2.2-2.1 3.3-2.8"/><path id="XMLID_81_" class="st1" d="M62.5 24.6c-.7-.9-1.8-1.4-3.4-1.4-1 0-2 .2-3 .7-1.3.6-2.5 1.7-3.5 3.1-.6.9-1.2 2-1.6 3.1-.8 2.2-.8 4 0 5.2.5.7 1.4 1.5 3.4 1.5 3.6 0 6.3-2.4 8-7.1.6-1.2 1.2-3.5.1-5.1m-3.9 5.3c-1.1 3.1-1.9 3.9-3.2 3.9-1.2 0-1.6-.8-.5-3.8.8-2.3 1.9-3.8 3.2-3.8 1.3 0 1.6.7.5 3.7"/></g></svg>