<svg version="1.1" id="图层_1" xmlns="http://www.w3.org/2000/svg" x="0" y="0" viewBox="0 0 100 60" style="enable-background:new 0 0 100 60" xml:space="preserve"><style>.st0{fill:#26a17b}.st1{fill:#fff}</style><path class="st0" d="M100 55c0 2.8-2.3 5-5 5H5c-2.8 0-5-2.3-5-5V5c0-2.8 2.3-5 5-5h90c2.8 0 5 2.3 5 5v50z"/><circle class="st1" cx="26.3" cy="30" r="8.8"/><path class="st0" d="M27.3 30.8h-2.2c-2.2-.1-3.8-.5-3.8-.9s1.6-.8 3.8-.9v1.5h2.2V29c2.2.1 3.8.5 3.8.9s-1.7.8-3.8.9m0-2v-1.3h3v-2h-8.2v2h3v1.3c-2.4.1-4.3.6-4.3 1.2s1.8 1.1 4.3 1.2v4.2h2.2v-4.2c2.4-.1 4.3-.6 4.3-1.2-.1-.6-1.9-1.1-4.3-1.2"/><path class="st1" d="M42.7 26v2.1h2.1v1.6h-2.1V33c0 .7.4 1.1 1 1.1.3 0 .6-.1.9-.2l.5 1.6c-.5.2-1 .3-1.5.3-1.6.1-2.7-.9-2.7-2.7v-3.2h-1.4v-1.6h1.4v-1.9l1.8-.4zm35.6 2.1.1.9c.6-.9 1.4-1.1 2.1-1.1.8 0 1.5.3 1.9.7l-.8 1.6c-.4-.3-.7-.5-1.3-.5-1 0-1.9.5-1.9 1.9v4h-1.8v-7.5h1.7zM73.7 31c-.1-1-.9-1.5-1.9-1.5-1 0-1.8.5-2.1 1.5h4zm-4 1.5c.1.9.9 1.6 2.2 1.6.7 0 1.6-.3 2-.7l1.2 1.2c-.8.8-2.1 1.2-3.2 1.2-2.6 0-4.1-1.6-4.1-4 0-2.3 1.6-3.9 4-3.9 2.5 0 4.1 1.6 3.8 4.6h-5.9zm-8.2-7.6v4.2c.7-.9 1.5-1.1 2.3-1.1 2.1 0 3.1 1.4 3.1 3.6v4h-1.8v-3.9c0-1.4-.7-1.9-1.7-1.9-1.1 0-1.8.9-1.8 2v3.8h-1.8V24.9h1.7zM56.6 26v2.1h2.1v1.6h-2.1v3.2c0 .7.4 1.1 1 1.1.3 0 .6-.1.9-.2l.5 1.6c-.5.2-1 .3-1.5.3-1.6.1-2.7-.9-2.7-2.7v-3.2h-1.4v-1.6h1.4v-1.9l1.8-.3zm-5.1 5c-.1-1-.9-1.5-1.9-1.5-1 0-1.8.5-2.1 1.5h4zm-4.1 1.5c.1.9.9 1.6 2.2 1.6.7 0 1.6-.3 2-.7l1.2 1.2c-.8.8-2.1 1.2-3.2 1.2-2.6 0-4.1-1.6-4.1-4 0-2.3 1.6-3.9 4-3.9 2.5 0 4.1 1.6 3.8 4.6h-5.9z"/></svg>