<svg version="1.1" id="图层_1" xmlns="http://www.w3.org/2000/svg" x="0" y="0" viewBox="0 0 100 60" style="enable-background:new 0 0 100 60" xml:space="preserve"><style>.st0{fill:#3c3}.st1{fill:#fff}</style><path class="st0" d="M100 55c0 2.8-2.3 5-5 5H5c-2.8 0-5-2.3-5-5V5c0-2.8 2.3-5 5-5h90c2.8 0 5 2.3 5 5v50z"/><path class="st1" d="M30.5 25.8H28v-1.6c0-3.1-2.6-5.6-5.7-5.6s-5.7 2.5-5.7 5.6v1.5h-2.5c-.8 0-1.7.4-1.5 1.3l1.9 8.2c.2.7.7 1.2 1.5 1.2h12.6c.8 0 1.4-.5 1.5-1.2L32 27c.2-.8-.6-1.2-1.5-1.2z"/><path class="st0" d="M26 25.8h-7.3v-1.7c0-2 1.6-3.6 3.7-3.6s3.7 1.6 3.7 3.6v1.7H26zm-1.3 3.5c0 .1 0 .2-.2.2h-1.2c-.1 0-.2 0-.2.1v3.9c0 .2-.1.3-.4.3h-1.1c-.3 0-.4 0-.4-.3v-3.9c0-.1-.1-.1-.2-.1h-1c-.2 0-.2-.1-.2-.2v-1c0-.2.1-.2.4-.2h4.2c.2 0 .4 0 .4.2-.1 0-.1 1-.1 1z"/><path class="st1" d="M20.7 39.2c0 1.2-1 2.2-2.3 2.2-1.2 0-2.3-1-2.3-2.2s1-2.2 2.3-2.2c1.3 0 2.3 1 2.3 2.2"/><path class="st1" d="M17 20.3c0 1.2-1 2.2-2.3 2.2-1.2 0-2.3-1-2.3-2.2 0-1.2 1-2.2 2.3-2.2 1.3 0 2.3 1 2.3 2.2" transform="translate(11.38 18.886)"/><path class="st1" d="M43.1 28.4h-2.2c-.2 0-.3 0-.3.3v7.4c0 .4-.2.5-.8.5h-2.2c-.6 0-.8-.1-.8-.5v-7.4c0-.2-.1-.3-.3-.3h-2c-.4 0-.4-.2-.4-.4v-1.8c0-.4.3-.4.7-.4h8c.4 0 .7 0 .7.4V28c0 .3 0 .4-.4.4m6.5.3c.1 0 .3 0 .3.2v1.7c0 .2-.1.3-.3.3-.4 0-1.1 0-1.4.1-.6.3-.9.6-.9 1.2v3.5c0 .4 0 .8-.5.8h-2c-.6 0-.7-.3-.7-.7v-5.5c0-.9.4-1.7 2.3-1.7-.1.1 3.2.1 3.2.1zm3.5 7.9c-1 0-2.2-.5-2.2-2.3v-4.8c0-.4.2-.8.6-.8h2.1c.4 0 .7.3.7.6v3.8c0 .4.1.7.6.7s.6-.4.6-.7v-3.7c0-.4 0-.8.5-.8h2c.6 0 .7.3.7.7v4.8c0 2.1-1.3 2.4-1.9 2.4l-3.7.1zm10.4.2c-1.6 0-3-.3-3.3-.5-.1-.1-.3-2.2.2-2 .3.1.9.3 2.1.3.7 0 1-.1 1-.4 0-.2-.4-.4-.8-.5-1-.4-2.5-1-2.5-2.7 0-1.8 2-2.5 4-2.5 1.6 0 2 .2 2.3.3.3.1 0 2-.4 1.9-.3 0-1.2-.2-1.7-.2s-.7.1-.7.3c0 .1.3.3.7.5 1 .5 2.6 1.2 2.6 3 0 2.2-2.1 2.5-3.5 2.5m9.3-5.9h-.9V34c0 .3.2.4.6.4h.2c.2 0 .4 2 .3 2.1-.2.1-1.1.3-1.9.3-2 0-2.5-1.2-2.5-2.1v-3.8h-.5c-.4 0-.4-.2-.4-.6v-1c0-.4.1-.6.6-.6h.6v-1c0-.4.4-.6.7-.6l1.7-.3c.6-.1.6.1.6.5v1.4h.9c.4 0 .5.4.5.7v.8c-.1.5-.1.7-.5.7m4.4 5.7H75c-.5 0-.6-.1-.6-.5v-10c0-.2.1-.4.4-.4H77c.6 0 .7.2.7.5v9.7c0 .4 0 .7-.5.7"/><path class="st1" d="M15.8 28.6c-.1.3-.4.6-.7.6h-1.7c-.5 0-.6-.2-.5-.5l1.1-2.6-3-7.2c-.1-.3 0-.5.5-.5H14c.3 0 .6.3.7.6l1.1 3 1.2-3c.1-.3.4-.6.7-.6h1.8c.5 0 .6.2.5.5l-4.2 9.7z" transform="translate(67.517 10.333)"/></svg>