<svg version="1.1" id="图层_1" xmlns="http://www.w3.org/2000/svg" x="0" y="0" viewBox="0 0 100 60" style="enable-background:new 0 0 100 60" xml:space="preserve"><style>.st4{fill-rule:evenodd;clip-rule:evenodd;fill:#fff}</style><path d="M96 0H4C1.8 0 0 1.8 0 4v52c0 2.2 1.8 4 4 4h92c2.2 0 4-1.8 4-4V4c0-2.2-1.8-4-4-4z" style="fill:#fff"/><path d="M68.6 0c-3.2.1-7 2.6-7.7 5.8L50.1 54.2c-.7 3.2 1.2 5.8 4.3 5.8H96c2.2 0 4-1.8 4-4V4c0-2.2-1.8-4-4-4" style="fill-rule:evenodd;clip-rule:evenodd;fill:#01798a"/><path d="M0 4c0-2.2 1.8-4 4-4h41v60H4c-2.2 0-4-1.8-4-4V4z" style="fill-rule:evenodd;clip-rule:evenodd;fill:#dd0228"/><path d="M61.1 5.8c.7-3.1 4.6-5.7 7.7-5.8H38.6c-3.1.1-7 2.6-7.7 5.8L20.1 54.2c-.7 3.2 1.2 5.8 4.3 5.8h30.2c-3.1 0-5-2.6-4.3-5.8L61.1 5.8z" style="fill-rule:evenodd;clip-rule:evenodd;fill:#024381"/><path class="st4" d="M44 35.2h.4c.4 0 .6-.1.7-.4l1-1.6h2.7l-.6 1h3.3l-.4 1.6h-3.9c-.4.7-1 1-1.7 1h-2l.5-1.6zm-.5 2.2h7.2l-.5 1.7h-2.9l-.4 1.6h2.8l-.5 1.7h-2.8l-.7 2.4c-.2.4.1.6.6.5h2.3l-.3 1.7h-4.4c-.8 0-1.1-.5-.9-1.5l.8-3.1H42l.5-1.7h1.8l.4-1.6H43l.5-1.7zM55 33.2l-.1 1s1.4-1 2.6-1H62l-1.7 6.4c-.1.7-.8 1.1-1.9 1.1h-5.2L52 45.2c-.1.2 0 .4.3.4h1l-.3 1.3h-2.6c-1 0-1.4-.3-1.2-.9l3.4-12.8H55zm3.8 1.9h-4.1l-.5 1.7s.7-.5 1.8-.5h2.4l.4-1.2zm-1.4 4c.3 0 .5-.1.5-.4l.2-.9H54l-.3 1.3h3.7zm-2.8 2H57v1h.6c.3 0 .5-.1.5-.3l.2-.7h1.9l-.3 1c-.2.8-.8 1.2-1.7 1.3H57v1.8c0 .3.2.4.7.4h1.2l-.5 1.4h-2.8c-.8 0-1.2-.3-1.2-1.2l.2-4.7zM26.2 24.7c-.3 1.6-1.1 2.8-2.2 3.7-1.1.8-2.6 1.3-4.4 1.3-1.7 0-2.9-.4-3.7-1.3-.5-.6-.8-1.4-.8-2.4 0-.4 0-.8.1-1.3l1.9-9.3H20l-1.9 9.2c-.1.3-.1.5-.1.7 0 .5.1.9.3 1.2.3.4.9.7 1.7.7.9 0 1.6-.2 2.2-.7.6-.4.9-1.1 1.1-1.9l1.9-9.2h2.9l-1.9 9.3zm12.1-3.6h2.3l-1.8 8.3h-2.2l1.7-8.3zM39 18h2.3l-.4 2h-2.3l.4-2zm3.6 10.8c-.6-.6-.9-1.3-.9-2.3v-.6c0-.2 0-.4.1-.6.3-1.4.8-2.4 1.7-3.2.9-.8 1.9-1.2 3.2-1.2 1 0 1.8.3 2.4.9.6.6.9 1.4.9 2.4v.6c0 .2-.1.4-.1.6-.3 1.3-.8 2.4-1.7 3.2-.9.8-1.9 1.2-3.2 1.2-1-.2-1.8-.5-2.4-1zm4.3-1.7c.4-.4.7-1.1.9-2 0-.1 0-.3.1-.4v-.4c0-.5-.1-.9-.4-1.2-.3-.3-.6-.4-1.1-.4-.6 0-1.1.2-1.5.7-.4.4-.7 1.1-.9 2 0 .1 0 .3-.1.4v.4c0 .5.1.9.4 1.2.3.3.6.4 1.1.4.6 0 1.1-.3 1.5-.7z"/><path d="M68.8.2h-9 9c-.1 0 0 0 0 0" style="fill-rule:evenodd;clip-rule:evenodd;fill:#e02f41"/><path d="M59.7.2H43.5h16.2" style="fill-rule:evenodd;clip-rule:evenodd;fill:#2e4f7d"/><path class="st4" d="m64.6 35.2.5-1.9h2.7l-.1.7s1.4-.7 2.4-.7h3.4l-.5 1.9h-.5l-2.6 9.2h.5l-.5 1.8h-.5l-.2.8h-2.7l.2-.8h-5.2l.5-1.8h.5l2.6-9.2h-.5zm2.9 0-.7 2.5s1.2-.5 2.2-.6c.2-.9.5-1.9.5-1.9h-2zm-1 3.7-.7 2.6s1.3-.7 2.2-.7c.3-1 .5-1.9.5-1.9h-2zm.5 5.5.5-1.9h-2l-.5 1.9h2zm6.7-11.2h2.6l.1 1c0 .2.1.4.4.4h.5l-.5 1.6h-1.9c-.7 0-1.1-.2-1.1-.9l-.1-2.1zm-.8 3.5h8.4l-.5 1.8h-2.7l-.5 1.6h2.7l-.5 1.8h-3l-.7 1h1.4l.3 2.1c0 .2.2.3.5.3h.7l-.5 1.7h-1.6c-.8 0-1.3-.2-1.3-.8l-.4-1.9-1.3 2c-.3.6-.8.8-1.4.8H70l.5-1.7h.8c.3 0 .6-.1.8-.4l2.1-3h-2.7l.5-1.8h2.9l.5-1.6h-2.9l.4-1.9zm-44-15.6h2l-.2 1.2.3-.3c.7-.7 1.5-1.1 2.4-1.1.9 0 1.5.3 1.9.8.4.5.5 1.2.3 2.1l-1.1 5.7h-2.1l1-5.1c.1-.5.1-.9-.1-1.2-.2-.3-.5-.4-.9-.4-.5 0-1 .2-1.4.5-.4.3-.6.8-.7 1.4l-.9 4.8h-2.1l1.6-8.4zm23.3 0h2l-.2 1.2.3-.3c.7-.7 1.5-1.1 2.4-1.1.9 0 1.5.3 1.9.8.4.5.5 1.2.3 2.1l-1.1 5.7h-2.1l1-5.1c.1-.5.1-.9-.1-1.2-.2-.3-.5-.4-.9-.4-.5 0-1 .2-1.4.5-.4.3-.6.8-.7 1.4l-.9 4.8h-2.1l1.6-8.4zm10-5.2h5.9c1.1 0 2 .3 2.6.8.6.5.9 1.3.9 2.2v.6c0 .2-.1.4-.1.7-.3 1.3-.9 2.3-1.8 3.1-.9.8-2 1.2-3.3 1.2h-3.2l-1 4.9h-2.7l2.7-13.5zm1.5 6.3h2.6c.7 0 1.2-.2 1.6-.5.4-.3.7-.8.8-1.5 0-.1 0-.2.1-.3v-.3c0-.5-.2-.8-.5-1-.3-.2-.9-.3-1.6-.3h-2.2l-.8 3.9zM83.9 31c-.9 1.9-1.7 3-2.2 3.5-.4.5-1.4 1.6-3.7 1.5l.2-1.4c1.9-.6 3-3.4 3.6-4.6l-.7-9h2.8l.1 5.6 2.4-5.6h2.4l-4.9 10zm-6.7-9.3-1 .7c-1-.8-1.9-1.3-3.7-.5-2.4 1.1-4.4 9.8 2.2 6.9l.4.5 2.6.1 1.7-7.9-2.2.2zM75.7 26c-.4 1.2-1.3 2.1-2.1 1.8-.7-.2-1-1.4-.6-2.7.4-1.2 1.4-2.1 2.1-1.8.8.3 1.1 1.5.6 2.7z"/></svg>