<svg version="1.1" id="图层_1" xmlns="http://www.w3.org/2000/svg" x="0" y="0" viewBox="0 0 100 60" style="enable-background:new 0 0 100 60" xml:space="preserve"><style>.st1{fill:#fff}</style><path d="M100 55c0 2.8-2.3 5-5 5H5c-2.8 0-5-2.3-5-5V5c0-2.8 2.3-5 5-5h90c2.8 0 5 2.3 5 5v50z" style="fill:#d5c351"/><path class="st1" d="m22.5 22.6 5.3 10.6c.2.4.6.5 1 .3.1-.1.3-.2.3-.3l2.3-4.6-8.9-6z"/><path class="st1" d="M37.5 18.1c-.6 0-1.1.3-1.3.8l-1.8 3.6-2.3 4.5-.7 1.5-2.3 4.6c-.2.4-.6.5-1 .3-.1-.1-.3-.2-.3-.3l.7 1.3 3.7 7.4 9.6-19.3L44 18h-6.5zm34 6H67v8.1l3 .7V27h1.5c1.6 0 3 1.3 3 3 0 1.6-1.3 3-3 3h-4.8l-3.3-8.9h-3.7l.3.9-2.7 6.1c.6-3.2-1.5-6.3-4.8-6.9-2.5-.5-5 .7-6.2 2.9h5.1c1.6 0 3 1.3 3 3 0 1.6-1.3 3-3 3-1.6 0-3-1.3-3-3 0-.8.3-1.6 1-2.2l-3.1-.8c-1.1 1.8-1 4.1 0 5.9h-3v-8.9h-1.5l-1.5 3V36h7.4v-1.3c2.6 2 6.3 1.6 8.4-.9 0 0 .1-.1.1-.2l-1 2.4h3l1.3-3H63l1.1 3h8.1c.9-.1 1.7-.4 2.5-.9.1 0 .1-.1.2-.1s.1-.1.2-.1.1-.1.2-.1c0 0 .1-.1.2-.1l.1-.1s.1-.1.1-.2c0 0 .1-.1.1-.2.2-.2.3-.4.4-.6l.1-.1v-.1s0-.1.1-.1c0 0 0-.1.1-.1 0 0 0-.1.1-.1 0 0 0-.1.1-.1v-2.2c.8-4.1-1.9-6.7-5.2-6.7zm-11 6.4-1.4-.3h1.6l.7-1.6.9 2.3-1.8-.4z"/></svg>