<svg version="1.1" id="图层_1" xmlns="http://www.w3.org/2000/svg" x="0" y="0" viewBox="0 0 100 60" style="enable-background:new 0 0 100 60" xml:space="preserve"><style>.st1{fill-rule:evenodd;clip-rule:evenodd;fill:#fff}</style><path d="M100 55c0 2.8-2.3 5-5 5H5c-2.8 0-5-2.3-5-5V5c0-2.8 2.3-5 5-5h90c2.8 0 5 2.3 5 5v50z" style="fill-rule:evenodd;clip-rule:evenodd;fill:#0068a3"/><path id="Fill-1" class="st1" d="M79.9 20.1c1.6 0 3.1.4 4.4 1l.6.3-.9.8-1.4-1.4-2.3 2.1-1.4-1.5-4.3 3.9 2.8 3-1.1 1 2.7 3-1.1 1 3.9 4.3 2.3-2.1 2 2.3c-.4.3-.8.6-1.3.9-1.5.8-3.1 1.3-4.9 1.3-5.5 0-10-4.5-10-9.9 0-5.6 4.5-10 10-10"/><path id="Fill-2" class="st1" d="m78.1 29.4 2.4-2.1 2.1 2.4-2.4 2.1-2.1-2.4"/><path id="Fill-3" class="st1" d="m79.7 33.4 2.4-2.1 2.1 2.4-2.4 2.1-2.1-2.4"/><path id="Fill-4" class="st1" d="m76.4 25.3 2.4-2.1 2.1 2.4-2.4 2.1-2.1-2.4"/><path id="Fill-5" class="st1" d="m80.7 24.2 1.8-1.6 1.6 1.8-1.8 1.6-1.6-1.8"/><path id="Fill-6" class="st1" d="m83.9 31.5 1.8-1.6 1.6 1.8-1.8 1.6-1.6-1.8"/><path id="Fill-7" class="st1" d="m85.4 35.1 1.8-1.6 1.6 1.8-1.8 1.5-1.6-1.7"/><path id="Fill-8" class="st1" d="m86.2 26.9 1.2-1.1 1.1 1.2-1.2 1.1-1.1-1.2"/><path id="Fill-9" class="st1" d="m84.6 23.4 1.2-1.1 1.1 1.2-1.2 1.1-1.1-1.2"/><path id="Fill-10" class="st1" d="m87.7 30.4 1.2-1.1 1.1 1.2-1.2 1.1-1.1-1.2"/><path id="Fill-11" class="st1" d="m82.4 27.8 1.8-1.6 1.6 1.8-1.8 1.5-1.6-1.7"/><path id="Fill-12" class="st1" d="m14.7 28.3-1.6 5.6h-1.2l-1.8-8h1.3l1.3 6h.1l1.5-6h1l1.6 6h.1l1.2-6h1.3l-1.8 8h-1.2l-1.8-5.6"/><path id="Fill-13" class="st1" d="M24.4 32.7v.9c-.5.3-1.2.5-2 .5-1.9 0-2.7-1.2-2.7-3 0-1.7.9-3 2.6-3 1.4 0 2.3.9 2.3 2.8v.4h-3.7c0 1.4.6 2 1.7 2 .6 0 1.2-.2 1.8-.6zm-3.5-2.1h2.6c-.1-1.2-.6-1.7-1.3-1.7-.7 0-1.2.5-1.3 1.7z"/><path id="Fill-14" class="st1" d="M26.8 28.6c.3-.2.9-.4 1.5-.4 1.4 0 2.2 1 2.2 2.8 0 2.1-1 3.1-2.7 3.1-.6 0-1.5-.2-2.2-.6v-7.9l1.2-.3v3.3zm0 4.5c.4.2.8.2 1 .2.8 0 1.5-.5 1.5-2.4 0-1.4-.5-1.9-1.3-1.9-.5 0-.8.1-1.2.4v3.7z"/><path id="Fill-15" class="st1" d="m35.7 32.2 2.5-6.3h1.4v8h-1.2v-5.8h-.1L36 33.9h-.7L33 28.2h-.1v5.7h-1v-8h1.4l2.4 6.3"/><path id="Fill-16" class="st1" d="M40.9 31.1c0-2 1.1-3 2.6-3s2.6 1 2.6 3c0 1.9-1 3-2.6 3s-2.6-1.1-2.6-3zm3.9 0c0-1.5-.6-2.2-1.4-2.2-.8 0-1.4.6-1.4 2.2 0 1.5.6 2.2 1.4 2.2.9 0 1.4-.6 1.4-2.2z"/><path id="Fill-17" class="st1" d="M47.1 29c.5-.3 1.6-.8 2.9-.8 1.4 0 1.9.5 1.9 1.7V34h-1.2v-3.8c0-.9-.4-1.1-1-1.1-.5 0-1 .2-1.4.4V34h-1.2v-5"/><path id="Fill-18" class="st1" d="M57.7 32.7v.9c-.5.3-1.2.5-2 .5-1.9 0-2.7-1.2-2.7-3 0-1.7.9-3 2.6-3 1.4 0 2.3.9 2.3 2.8v.4h-3.7c0 1.4.6 2 1.7 2 .6 0 1.2-.2 1.8-.6zm-3.5-2.1h2.6c-.1-1.2-.6-1.7-1.3-1.7-.7 0-1.2.5-1.3 1.7z"/><path id="Fill-19" class="st1" d="M62.3 28.3h1.2L61.4 34c-.6 1.6-1.3 2.4-2.6 2.4v-.9c.8 0 1.3-.6 1.5-1.4l-2.2-5.7h1.3l1.5 4.2h.1l1.3-4.3"/></svg>