<svg xmlns="http://www.w3.org/2000/svg" fill="none" aria-hidden="true" viewBox="0 0 28 20"><path fill="#55B88D" d="M0 0h28v19.997H0z"/><path d="M11.096 3v1.676H9.5v10.897h1.596v1.677h1.596v-1.677h1.595v1.677h1.596v-1.755c.212-.03.443-.043.649-.079.48-.167.872-.35 1.271-.602.318-.252.633-.576.873-.995.24-.42.324-.855.324-1.441 0-.671-.256-1.251-.573-1.755-.4-.505-.88-.829-1.596-.996.558-.252.957-.583 1.197-.917.24-.334.399-.776.399-1.362 0-.504-.066-.923-.225-1.257-.159-.334-.405-.671-.723-.838-.318-.167-.642-.334-1.122-.42l-.474-.078V3h-1.596v1.676h-1.595V3h-1.596zm.798 3.353h2.319c.24 0 .464-.007.623.079.24 0 .415.098.573.183.16.085.318.147.4.314.08.167.149.35.149.603 0 .504-.081.828-.399.995-.318.252-.642.34-1.122.34h-2.543V6.354zm0 4.191h2.792c.558 0 1.048.167 1.447.42.399.251.548.75.548 1.335 0 .252-.069.593-.15.76a1.4 1.4 0 0 1-.498.498 4.823 4.823 0 0 1-.624.261c-.24.086-.558.08-.798.08h-2.717v-3.354z" fill="#fff"/></svg>