<svg xmlns="http://www.w3.org/2000/svg" fill="none" aria-hidden="true" viewBox="0 0 28 20"><path fill="#fff" d="M0 0h28v20H0V0z"/><path fill="#E7832C" fill-rule="evenodd" d="M20 3.333c.363-.181.732.236.506.574l-.439.659a.607.607 0 01-.168.168l-1.844 1.23a.667.667 0 00-.102.083l-.148.148a.667.667 0 000 .943l.39.39c.26.26.26.683 0 .943l-.522.523a.667.667 0 01-.77.124l-.307-.153a.667.667 0 00-.894.298l-.245.49a.666.666 0 01-.386.334l-1.635.545a.667.667 0 01-.21.035h-.814a.666.666 0 00-.596.368l-.184.369a.668.668 0 01-.895.298l-1.974-.987a.667.667 0 01-.173-.125L7.53 9.53a.667.667 0 01-.196-.472v-.586c0-.26.211-.471.472-.471.125 0 .245-.05.333-.138l1-1a.667.667 0 01.471-.195h.577a.667.667 0 00.633-.456l.328-.986a.667.667 0 01.763-.443l2.61.522c.097.02.196.017.292-.007l2.45-.613a.668.668 0 00.137-.05L18.667 4 20 3.333z" clip-rule="evenodd"/><path fill="#445128" fill-rule="evenodd" d="M14 16a.667.667 0 10.052-1.333A.667.667 0 0014 16z" clip-rule="evenodd"/><path stroke="#445128" stroke-linecap="round" stroke-width="1.333" d="M12 14.667s-2-.667-2.667-2m6.667 2s2-.667 2.667-2l-2.667 2z" opacity=".75"/></svg>