<svg xmlns="http://www.w3.org/2000/svg" fill="none" aria-hidden="true" viewBox="0 0 28 20"><path fill="#000" d="M0 0h28v19.997H0z"/><g clip-path="url(#a)" fill="#fff"><path d="M19.368 4h2.095l-4.36 4.315a4.072 4.072 0 0 1-5.716 0L7.027 4h2.096l3.312 3.278c1 .99 2.62.99 3.62 0L19.368 4zM9.096 16H7l4.387-4.342a4.072 4.072 0 0 1 5.716 0L21.491 16h-2.096l-3.34-3.305c-1-.99-2.62-.99-3.62 0L9.095 16z"/></g><defs><clipPath id="a"><path fill="#fff" transform="translate(7 4)" d="M0 0h14.491v12H0z"/></clipPath></defs></svg>