<svg width="52pt" height="64pt" viewBox="0 0 52 64" xmlns="http://www.w3.org/2000/svg"><g fill="#e1b97c"><path d="M15.88 7.04c3.74-1.16 6.97-3.45 10.07-5.78 3.07 2.33 6.25 4.65 9.97 5.81 4.78 1.43 9.82 1.38 14.76 1.41.18 8.85.02 17.71.1 26.57.1 5.16-.82 10.54-4 14.74-4.82 7.03-13 10.22-20.17 14.21h-1.15c-7.06-3.79-15.03-6.86-19.94-13.56-3.48-4.32-4.63-9.96-4.51-15.4.09-8.86-.14-17.72.19-26.58 4.91-.02 9.93.02 14.68-1.42m7.58 8.37c-1.4 1.14-1.77 3.07-2.49 4.66-2.78 8.05-6.01 15.93-8.86 23.95 1.57-.05 3.14-.09 4.72-.13.89-2.2 1.8-4.39 2.63-6.62 4.05-.62 8.16-.61 12.22-.08.81 2.22 1.7 4.41 2.54 6.63 1.58.05 3.16.12 4.74.18-2.42-7.39-5.55-14.52-8.04-21.88-.94-2.31-1.53-4.94-3.34-6.75-1.36-.24-2.77-.24-4.12.04z"/><path d="M25.44 21.02c1.96 3.78 3.37 7.81 4.53 11.89-2.94.11-5.89.13-8.84.08 1.29-4.04 2.68-8.06 4.31-11.97z"/></g><path fill="#fff" d="M23.46 15.41c1.35-.28 2.76-.28 4.12-.04 1.81 1.81 2.4 4.44 3.34 6.75 2.49 7.36 5.62 14.49 8.04 21.88-1.58-.06-3.16-.13-4.74-.18-.84-2.22-1.73-4.41-2.54-6.63-4.06-.53-8.17-.54-12.22.08-.83 2.23-1.74 4.42-2.63 6.62-1.58.04-3.15.08-4.72.13 2.85-8.02 6.08-15.9 8.86-23.95.72-1.59 1.09-3.52 2.49-4.66m1.98 5.61c-1.63 3.91-3.02 7.93-4.31 11.97 2.95.05 5.9.03 8.84-.08-1.16-4.08-2.57-8.11-4.53-11.89z"/></svg>