<svg xmlns="http://www.w3.org/2000/svg" viewBox="0 0 512 512" style="enable-background:new 0 0 512 512" xml:space="preserve"><path style="fill:#0052b4" d="M0 85.331h512v341.337H0z"/><path style="fill:#ffda44" d="m256 159.994 5.107 15.715h16.523l-13.368 9.713 5.106 15.715L256 191.425l-13.368 9.712 5.106-15.715-13.368-9.713h16.523zm-67.882 28.118 14.723 7.501 11.684-11.683-2.586 16.32 14.723 7.502-16.32 2.585-2.585 16.321-7.502-14.723-16.319 2.584 11.684-11.684zM160 255.994l15.715-5.106.001-16.523 9.711 13.368 15.716-5.106-9.713 13.367 9.713 13.368-15.716-5.105-9.711 13.367v-16.523zm28.118 67.883 7.5-14.724-11.682-11.683 16.321 2.585 7.5-14.723 2.585 16.321 16.32 2.584-14.722 7.502 2.585 16.319-11.684-11.683zM256 351.994l-5.107-15.715H234.37l13.369-9.712-5.107-15.715L256 320.564l13.368-9.712-5.106 15.715 13.368 9.712h-16.524zm67.882-28.117-14.723-7.501-11.684 11.684 2.586-16.322-14.723-7.501 16.319-2.584 2.586-16.321 7.502 14.723 16.319-2.585-11.684 11.684zM352 255.994l-15.715 5.107v16.523l-9.712-13.369-15.716 5.107 9.713-13.368-9.713-13.367 15.716 5.105 9.711-13.367.001 16.524zm-28.118-67.882-7.501 14.723 11.684 11.684-16.322-2.586-7.5 14.724-2.586-16.32-16.319-2.585 14.723-7.502-2.586-16.32 11.684 11.684z"/></svg>