<svg xmlns="http://www.w3.org/2000/svg" width="640" height="480" xmlns:xlink="http://www.w3.org/1999/xlink" viewBox="-5 -5 12.8 9.6"><defs><clipPath id="a"><path d="M-5-15.4h26.67v20H-5z"/></clipPath><path id="b" fill="#ffde00" d="M-.6.8 0-1 .6.8-.96-.3h1.9z"/></defs><g transform="matrix(.48 0 0 .48 -2.6 2.392)" clip-path="url(#a)"><path fill="#de2910" d="M-5-15.4h30v20H-5z"/><use width="30" height="20" transform="matrix(3 0 0 3 0 -10.4)" xlink:href="#b"/><use width="30" height="20" transform="matrix(-.514 -.857 .857 -.514 5 -13.4)" xlink:href="#b"/><use width="30" height="20" transform="rotate(-98.1 -1.446 -8.737)" xlink:href="#b"/><use width="30" height="20" transform="matrix(.275 -.962 .962 .275 7 -8.4)" xlink:href="#b"/><use width="30" height="20" transform="matrix(.625 -.781 .781 .625 5 -6.4)" xlink:href="#b"/></g></svg>