<svg width="128" height="128" viewBox="0 0 128 128" fill="none" xmlns="http://www.w3.org/2000/svg"><path fill="#fff" d="M0 0h128v128H0z"/><path fill="url(#a)" d="M0 0h128v128H0z"/><path d="M16.702 95.39a913.04 913.04 0 0 0-4.51-1.58C7.88 92.347 5.258 90.225 7.24 83.297c1.665-5.825 4.112-10.937 6.102-15.096.865-1.807 1.643-3.434 2.234-4.861.035-.085.092-.177.155-.281.297-.487.745-1.224-.155-2.52-.943-1.358-3.15-4.166-3.576-4.686-1.996-2.436-2.183-6.155-.568-7.747 3.781-3.727 12.838-8.497 18.808-11.573.084-.044.182-.085.286-.13.756-.322 1.864-.794.903-3.257-1.875-4.802-.456-9.795 4.982-9.795 2.17 0 6.32 0 10.751.002l13.803.002c.101-.314.197-.654.296-1.005.633-2.24 1.403-4.966 4.592-4.715 5.014.396 22.956 7.933 26.968 9.618.456.191.731.307.789.328.822.31 1.889.559 2.177-.43.508-1.746 4.05-3.177 6.928-.39 1.53 1.482 5.489 6.329 9.382 11.095 3.957 4.846 7.847 9.608 9.049 10.669-6.926-2.98-11.327-7.067-14.833-10.323-.96-.891-1.853-1.72-2.712-2.447-.137-.116-.29-.255-.459-.406-1.352-1.221-3.654-3.298-5.867-1.286-.605.55-2.528 2.557-5.236 5.383-8.423 8.79-24.442 25.509-32.056 31.006C73.665 55.83 89.602 34.446 91.475 31.798c.476-.673 1.038-1.6-.293-1.875-1.392-.288-15.915-4.191-17.575-4.656l-.214-.06c-1.45-.421-5.462-1.584-6.75 1.94-.393 1.072-1.352 4.33-2.672 8.814-3.419 11.615-9.257 31.45-13.922 42.773 5.055-21.092 9.1-42.137 10.072-49.765-3.9 0-8.89.06-12.562.103-2.137.025-3.826.045-4.594.045-1.712 0-5.266.313-4.712 4.485.142 1.074.971 4.543 2.101 9.268 2.997 12.536 8.107 33.91 8.107 42.833-2.91-12.91-13.233-43.088-14.424-44.13-3.797.623-10.573 4.245-14.405 7.341-.744.601-3.168 2.722-1.175 5.451 2.475 3.389 5.812 7.473 9.446 11.92 7.611 9.316 16.522 20.221 21.526 29.65-3.938-3.982-9.835-10.123-15.252-15.763-6.056-6.307-11.512-11.989-12.956-13.328-2.022 1.69-6.296 12.448-6.857 14.312a6.529 6.529 0 0 1-.32.77c-.82 1.785-2.259 4.912 3.88 8.108 1.68.874 5.68 2.633 10.581 4.788 10.95 4.816 26.391 11.606 30.462 14.91-2.213-.277-30.88-10.345-42.265-14.343z" fill="#fff"/><path d="m95.467 56.349 18.418 30.088s2.482 3.948 2.482 6.42a9.544 9.544 0 0 1-9.544 9.544c-3.523 0-6.626-1.648-8.28-4.487-1.213 7.205 3.398 10.84 5.154 12.224l.177.14H87.052c1.42-1.015 7.124-6.349 5.548-12.364a9.544 9.544 0 0 1-16.23-10.052l19.097-31.513z" fill="#fff"/><defs><linearGradient id="a" x1="7.593" y1="0" x2="120.261" y2="128" gradientUnits="userSpaceOnUse"><stop stop-color="#FF2614"/><stop offset="1" stop-color="#DE1011"/></linearGradient></defs></svg>