<svg width="100pt" height="100pt" viewBox="0 0 100 100" xmlns="http://www.w3.org/2000/svg"><g fill="#599d25"><path d="M38.61 0h20.1c13.62 3.13 26.34 11.44 33.42 23.66.07 2.18.51 4.67-.99 6.49-2.51 3.4-7.39 3.89-11.11 2.43-4.91-1.95-8.07-6.42-12.02-9.7-7.67-6.54-16.79-12.33-27.1-12.99-12.66-1.12-25.54 4.57-33.69 14.22C13.36 11.83 25.27 2.94 38.61 0z"/><path d="M42.57 25.4c3.96-4.82 13.02-3.14 15.23 2.64.32 3.77-.03 7.57-.09 11.35 5.01.76 11.65-2.13 15.19 2.72 3.39 3.66 2.97 11.2-2 13.24-4.47.55-9.01-.07-13.51.17-.07 4.45.59 8.93.1 13.36-2.2 7.15-15.07 5.54-15.62-1.92-.45-3.81-.28-7.65-.45-11.48-3.83-.1-7.75.49-11.53-.31-5.27-2.21-6.05-9.4-3.39-13.85 1.95-2.73 5.62-1.62 8.45-1.77 2.41-.15 5.08.67 7.3-.41-.04-4.52-1.44-9.36.32-13.74z"/><path d="M7.85 70.15c2.1-4.26 7.8-4.65 11.82-3.33 4.84 1.96 7.84 6.49 11.77 9.71 9.17 8.01 21.05 14.11 33.55 12.8 10.47-.57 19.17-7.21 26.91-13.66C84.78 89.52 70.17 98.75 54.73 100h-8.96C30.55 97.88 15.45 89.46 7.83 75.79c-.33-1.85-1.11-3.9.02-5.64z"/></g><path fill="#fbc603" d="M7.22 24.11c8.15-9.65 21.03-15.34 33.69-14.22 10.31.66 19.43 6.45 27.1 12.99 3.95 3.28 7.11 7.75 12.02 9.7 3.72 1.46 8.6.97 11.11-2.43 1.5-1.82 1.06-4.31.99-6.49 9.5 15.67 9.27 36.4-.23 52.01-7.74 6.45-16.44 13.09-26.91 13.66-12.5 1.31-24.38-4.79-33.55-12.8-3.93-3.22-6.93-7.75-11.77-9.71-4.02-1.32-9.72-.93-11.82 3.33-1.13 1.74-.35 3.79-.02 5.64-9.26-15.57-9.72-35.95-.61-51.68m35.35 1.29c-1.76 4.38-.36 9.22-.32 13.74-2.22 1.08-4.89.26-7.3.41-2.83.15-6.5-.96-8.45 1.77-2.66 4.45-1.88 11.64 3.39 13.85 3.78.8 7.7.21 11.53.31.17 3.83 0 7.67.45 11.48.55 7.46 13.42 9.07 15.62 1.92.49-4.43-.17-8.91-.1-13.36 4.5-.24 9.04.38 13.51-.17 4.97-2.04 5.39-9.58 2-13.24-3.54-4.85-10.18-1.96-15.19-2.72.06-3.78.41-7.58.09-11.35-2.21-5.78-11.27-7.46-15.23-2.64z"/></svg>