<svg width="80pt" height="80pt" viewBox="0 0 80 80" xmlns="http://www.w3.org/2000/svg"><path fill="#fe9900" d="M8.68 4.72c2.78-1.79 5.92-3.44 9.31-3.39 14.01-.02 28.03.04 42.04-.02 7.58-.54 15.12 4.6 17.44 11.83 1.49 3.18 1.09 6.75 1.04 10.15-1.38-6.31-6.65-12.08-13.45-12.05-16.69-.08-33.4-.08-50.1 0-6.8-.04-12.07 5.72-13.47 12.03-.91-6.85 1.4-14.43 7.19-18.55z"/><path fill="#e52e04" d="M1.49 23.27c1.4-6.31 6.67-12.07 13.47-12.03 16.7-.08 33.41-.08 50.1 0 6.8-.03 12.07 5.74 13.45 12.05.09 12.89.03 25.79.02 38.68-.58 8.63-8.15 15.68-16.51 16.65-14.7 0-29.41.01-44.11 0C9.6 77.58 2.13 70.66 1.47 62.1c-.02-12.94-.07-25.89.02-38.83m18.64-.12c-1.08 5.26 1.46 10.86 4.94 14.79 5.4 6.11 14.66 8.36 22.24 5.3 7.43-2.81 12.8-10.27 13-18.23.57-1.86-1.79-3.39-3.16-1.9-.66 2.96-.67 6.14-2.22 8.84-3.24 6.46-10.95 10.35-18.06 8.79-7.4-1.27-13.24-8.09-13.56-15.57.25-1.86-1.52-3.68-3.18-2.02z"/><path fill="#fff" d="M20.13 23.15c1.66-1.66 3.43.16 3.18 2.02.32 7.48 6.16 14.3 13.56 15.57 7.11 1.56 14.82-2.33 18.06-8.79 1.55-2.7 1.56-5.88 2.22-8.84 1.37-1.49 3.73.04 3.16 1.9-.2 7.96-5.57 15.42-13 18.23-7.58 3.06-16.84.81-22.24-5.3-3.48-3.93-6.02-9.53-4.94-14.79z"/></svg>