<svg width="100pt" height="100pt" viewBox="0 0 100 100" xmlns="http://www.w3.org/2000/svg"><path fill="#ffae04" d="M10.76 11.45c-.05-3.19 1.58-7.11 5.25-7.27 22.66-.07 45.34-.07 68 .01 3.65.17 5.26 4.07 5.22 7.25-26.16.06-52.31.09-78.47.01z"/><path fill="#f03911" d="M4.25 16.97c-.27-3.43 3.25-6.12 6.51-5.52 26.16.08 52.31.05 78.47-.01 3.28-.59 6.86 2.14 6.51 5.61.01 24.33 0 48.66-.02 72.99.4 3.17-2.55 6.11-5.73 5.67-26.66 0-53.32.02-79.98.02-3.24.45-6.17-2.54-5.76-5.75-.01-24.34-.01-48.68 0-73.01m23.34 11.4c-1.49.54-2.23 2.04-1.84 3.55.4 8.17 5.23 15.95 12.41 19.87 7.18 4.12 16.49 4.14 23.69.05 7.17-3.93 12.01-11.66 12.51-19.81.45-1.65-.58-3.8-2.49-3.66-2.15.85-1.51 3.46-2.04 5.27-1.39 11.37-13.88 19.63-24.9 16.34-7.72-1.99-13.9-8.96-14.75-16.92-.29-1.74-.14-4.69-2.59-4.69z"/><path fill="#fff" d="M27.59 28.37c2.45 0 2.3 2.95 2.59 4.69.85 7.96 7.03 14.93 14.75 16.92 11.02 3.29 23.51-4.97 24.9-16.34.53-1.81-.11-4.42 2.04-5.27 1.91-.14 2.94 2.01 2.49 3.66-.5 8.15-5.34 15.88-12.51 19.81-7.2 4.09-16.51 4.07-23.69-.05-7.18-3.92-12.01-11.7-12.41-19.87-.39-1.51.35-3.01 1.84-3.55z"/></svg>