<svg width="100pt" height="100pt" viewBox="0 0 100 100" xmlns="http://www.w3.org/2000/svg"><g fill="#1476ff"><path d="M1.78 18.05C1.65 9.6 9.43 1.69 17.95 2.08c21.02.02 42.03.01 63.05 0 6.19-.31 11.82 3.93 14.52 9.28 1.99 3.89 1.56 8.37 1.58 12.59.01 14.42-.02 28.85.02 43.27-10.75-3.5-21.54-6.88-32.3-10.35 3.77-6.29 6.27-13.23 8.22-20.27-6.35-.05-12.71-.05-19.06 0-.06-2.31-.1-4.61-.09-6.91 7.76.01 15.53-.13 23.3.09 0-1.31.03-2.61.08-3.92-7.79.03-15.58.08-23.36-.01-.02-3.75-.03-7.49.13-11.24-3.68 0-7.37-.16-11.04.15-.35 3.71-.17 7.43-.19 11.15-7.85-.01-15.69-.01-23.54-.01-.03 1.26-.07 2.52-.12 3.78 7.9-.01 15.79-.03 23.69 0-.01 2.3-.05 4.61-.01 6.91-6.5-.06-13 .01-19.49-.05.02 1.28.03 2.56.03 3.84 12.55-.12 25.1.04 37.65-.09-1.05 4.74-3.25 9.15-5.45 13.44-7.97-2.75-16.18-5.05-24.6-5.88-6.1-.64-12.62.72-17.47 4.62-5.85 4.67-7.83 13.6-4.15 20.19 3.62 6.52 11.38 9.63 18.58 9.54 12.41.09 23.55-7.5 31.1-16.87 12.52 6.04 25.37 11.37 38.16 16.8-.78 8.07-7.9 15.33-16.2 15.15-20.98-.03-41.96-.03-62.94 0-8.65.32-16.54-7.7-16.28-16.32.03-20.97.02-41.94.01-62.91z"/><path d="M11.45 61.35c2.07-4.87 7.52-6.95 12.47-7.33 9.5-.98 18.4 3.24 26.75 7.2-4.91 6.69-11.8 12.4-20.07 14.15-5.38.95-11.39.35-15.87-3.01-3.28-2.45-5.1-7.13-3.28-11.01z"/></g></svg>