<svg width="100pt" height="100pt" viewBox="0 0 100 100" xmlns="http://www.w3.org/2000/svg"><path fill="#ff6a00" d="M46.92 0h6.59c13.27 1.28 26.17 7.37 34.78 17.69 6.47 7.53 10.56 17.02 11.71 26.87v10.98C97.96 78.37 78.36 97.96 55.53 100h-10.8C29.81 98.42 15.85 89.73 7.89 77 3.29 70.05 1.07 61.86 0 53.67v-6.72c1.06-9.4 4.02-18.71 9.77-26.32C18.35 8.67 32.35 1.33 46.92 0m-31.1 40.04c-.09 6.66-.07 13.32-.01 19.98.09 5.78 5.61 10.32 11.16 10.49 6.11.05 12.22-.03 18.33.03-.57-2.1-1.15-4.2-1.73-6.3-5.72-1.92-12.24-1.46-17.55-4.37-.9-4.55-.12-9.3-.4-13.93.16-2.12-.73-5.31 1.81-6.33a190.51 190.51 0 0 1 15.89-3.29c.81-2.14 1.42-4.34 1.95-6.56-6.09.11-12.18-.04-18.28.07-5.55 0-11.04 4.47-11.17 10.21M55.05 29.8c.64 2.1.75 4.42 1.85 6.34 5.22 1.23 10.56 2.02 15.76 3.4 1.51.35 2.21 2 2.06 3.43-.05 4.99.01 9.98-.02 14.97.07 1.57-1.24 2.91-2.75 3.12-5.12 1.29-10.41 1.86-15.45 3.45-.43 2.02-.94 4.02-1.51 6 6.04.14 12.09.06 18.13.07 5.76.11 11.35-4.65 11.55-10.53.07-6.38.01-12.77.03-19.15.03-5.75-5.02-10.76-10.7-11.03-6.31-.19-12.64-.01-18.95-.07M43.81 48.63c0 .79.01 2.37.02 3.16h12.56c.02-.79.05-2.37.06-3.17-4.21-.01-8.43-.01-12.64.01z"/><g fill="#fff"><path d="M15.82 40.04c.13-5.74 5.62-10.21 11.17-10.21 6.1-.11 12.19.04 18.28-.07-.53 2.22-1.14 4.42-1.95 6.56-5.34.87-10.65 1.97-15.89 3.29-2.54 1.02-1.65 4.21-1.81 6.33.28 4.63-.5 9.38.4 13.93 5.31 2.91 11.83 2.45 17.55 4.37.58 2.1 1.16 4.2 1.73 6.3-6.11-.06-12.22.02-18.33-.03-5.55-.17-11.07-4.71-11.16-10.49-.06-6.66-.08-13.32.01-19.98zM55.05 29.8c6.31.06 12.64-.12 18.95.07 5.68.27 10.73 5.28 10.7 11.03-.02 6.38.04 12.77-.03 19.15-.2 5.88-5.79 10.64-11.55 10.53-6.04-.01-12.09.07-18.13-.07.57-1.98 1.08-3.98 1.51-6 5.04-1.59 10.33-2.16 15.45-3.45 1.51-.21 2.82-1.55 2.75-3.12.03-4.99-.03-9.98.02-14.97.15-1.43-.55-3.08-2.06-3.43-5.2-1.38-10.54-2.17-15.76-3.4-1.1-1.92-1.21-4.24-1.85-6.34z"/><path d="M43.81 48.63c4.21-.02 8.43-.02 12.64-.01-.01.8-.04 2.38-.06 3.17H43.83c-.01-.79-.02-2.37-.02-3.16z"/></g></svg>