<svg width="100pt" height="100pt" viewBox="0 0 100 100" xmlns="http://www.w3.org/2000/svg"><g fill="#2834e2"><path d="M36.66 7.65c6.15-.07 10.67 6.5 10.27 12.37.17 4-.37 8.43-3.31 11.42-3.55 3.55-9.85 2.9-13.12-.7-6.56-6.99-3.52-20.65 6.16-23.09zm24.25-.05c.72-.03 1.44-.05 2.17-.08 8.69 2.8 12.09 14.21 7.23 21.66-2.67 4.42-9.27 6.21-13.5 2.99-4.59-3.84-5.03-10.73-3.7-16.17.83-4.07 4.17-6.82 7.8-8.4zm17.61 21.25c5.82-1.28 10.6 4.03 11.67 9.31 1.24 4.87-.47 10.42-4.41 13.58-4.23 3.4-11.55 2.24-13.87-2.9-3.45-6.79-1.19-17.43 6.61-19.99zm-61.46.14c4.3-1.43 8.63 1.64 10.35 5.48 3.03 5.97 2.58 15.58-4.33 18.59-6.49 2.67-13.4-2.92-13.76-9.53l-.83-.09c0-.97.01-2.92.01-3.9l.81-.07c.45-4.52 3.15-9.2 7.75-10.48zm29.41 11.64c3.75-.87 7.88-.25 11.06 1.98 4.68 3 6.51 8.61 10.54 12.27 4.39 4.71 10.27 7.81 14.23 12.92 4.09 5.18 4.23 12.78 1.01 18.42-2.49 4.36-7.35 7.11-12.33 7.35-5.4.31-10.7-.91-15.96-1.92-10.57-2.31-21.19 4.71-31.6.77-9.22-3.52-12.18-16.27-6.6-24.04 3.64-5.11 9.33-8.15 13.67-12.59 5.62-4.77 7.95-13.53 15.98-15.16m-5.82 13.95c-.01 3.08 0 6.17.02 9.25-4.39-.14-9.54-.41-12.81 3.1-5.25 5.05-3.65 15.27 3.3 17.95 5.01 1.56 10.37.47 15.53.85-.02-10.41.11-20.82-.07-31.23-1.99.04-3.98.06-5.97.08M51.33 79c-.19 3 1.95 6.14 5.05 6.49 4.79.46 9.62.03 14.42.24.06-7.36 0-14.72.04-22.08h-5.68c.03 5.43.02 10.85.02 16.27-2.44-.02-4.88-.02-7.31.04-1.51-5.25-.32-10.86-.67-16.26-1.92-.05-3.84-.1-5.75-.17-.23 5.15-.12 10.31-.12 15.47z"/><path d="M31.95 78.18c-2.32-2.54-1.25-7.46 2.21-8.37 2.16-.35 4.35-.19 6.52-.21-.03 3.48-.02 6.96-.11 10.44-2.85-.39-6.57.77-8.62-1.86z"/></g><path d="M40.65 54.58c1.99-.02 3.98-.04 5.97-.08.18 10.41.05 20.82.07 31.23-5.16-.38-10.52.71-15.53-.85-6.95-2.68-8.55-12.9-3.3-17.95 3.27-3.51 8.42-3.24 12.81-3.1-.02-3.08-.03-6.17-.02-9.25m-8.7 23.6c2.05 2.63 5.77 1.47 8.62 1.86.09-3.48.08-6.96.11-10.44-2.17.02-4.36-.14-6.52.21-3.46.91-4.53 5.83-2.21 8.37zm19.38.82c0-5.16-.11-10.32.12-15.47 1.91.07 3.83.12 5.75.17.35 5.4-.84 11.01.67 16.26 2.43-.06 4.87-.06 7.31-.04 0-5.42.01-10.84-.02-16.27h5.68c-.04 7.36.02 14.72-.04 22.08-4.8-.21-9.63.22-14.42-.24-3.1-.35-5.24-3.49-5.05-6.49z" fill="#fffffd"/></svg>