<svg width="100pt" height="100pt" viewBox="0 0 100 100" xmlns="http://www.w3.org/2000/svg"><path fill="#3475d1" d="M0 0h100v100H0V0m13.57 31.18c7.12-.06 14.25-.01 21.37-.03-.02-7.13-.1-14.27.03-21.41-7.15-.05-14.29-.01-21.44-.03.09 7.16 0 14.32.04 21.47m27.5-21.44c.13 7.14.06 14.28.04 21.42 7.11.01 14.21-.04 21.32.03.06-7.16-.03-14.32.06-21.47-7.14.01-14.28-.03-21.42.02m27.57-.02c.04 7.14.01 14.29.02 21.44 7.15-.01 14.31-.01 21.46 0 .02-7.14 0-14.29.01-21.44-7.16-.01-14.33 0-21.49 0m-55.1 27.63c.04 7.11.04 14.22-.01 21.33 7.15.02 14.29.05 21.43-.02-.1-7.1-.06-14.2-.02-21.31-7.13-.01-14.27.01-21.4 0m27.56.02c.09 7.11-.03 14.23.06 21.34 7.11-.04 14.22.02 21.32-.04-.04-7.1-.05-14.2.01-21.3-7.13-.04-14.26-.02-21.39 0m27.52.02c.03 7.07.12 14.13-.05 21.2 7.14.28 14.29-.01 21.44.15.19-7.14.21-14.29-.01-21.43-7.13.11-14.25-.04-21.38.08M13.53 65.07c.06 7.09.06 14.17-.01 21.25 7.15-.03 14.31.01 21.46-.02-.18-7.12.03-14.25-.12-21.38-7.11.31-14.22.03-21.33.15m27.56.02c.05 7.07.13 14.13-.04 21.19 7.14.07 14.28 0 21.43.05-.04-7.08-.05-14.16.01-21.24-7.14-.05-14.27-.05-21.4 0m27.57-.04c.01 7.08.05 14.16-.02 21.24 7.16 0 14.32-.01 21.48.01-.02-7.08-.03-14.16.01-21.23-7.16-.04-14.31.03-21.47-.02z"/><path d="M13.57 31.18c-.04-7.15.05-14.31-.04-21.47 7.15.02 14.29-.02 21.44.03-.13 7.14-.05 14.28-.03 21.41-7.12.02-14.25-.03-21.37.03zm27.5-21.44c7.14-.05 14.28-.01 21.42-.02-.09 7.15 0 14.31-.06 21.47-7.11-.07-14.21-.02-21.32-.03.02-7.14.09-14.28-.04-21.42zm27.57-.02c7.16 0 14.33-.01 21.49 0-.01 7.15.01 14.3-.01 21.44-7.15-.01-14.31-.01-21.46 0-.01-7.15.02-14.3-.02-21.44zm-55.1 27.63c7.13.01 14.27-.01 21.4 0-.04 7.11-.08 14.21.02 21.31-7.14.07-14.28.04-21.43.02.05-7.11.05-14.22.01-21.33zm27.56.02c7.13-.02 14.26-.04 21.39 0-.06 7.1-.05 14.2-.01 21.3-7.1.06-14.21 0-21.32.04-.09-7.11.03-14.23-.06-21.34zm27.52.02c7.13-.12 14.25.03 21.38-.08.22 7.14.2 14.29.01 21.43-7.15-.16-14.3.13-21.44-.15.17-7.07.08-14.13.05-21.2zM13.53 65.07c7.11-.12 14.22.16 21.33-.15.15 7.13-.06 14.26.12 21.38-7.15.03-14.31-.01-21.46.02.07-7.08.07-14.16.01-21.25zm27.56.02c7.13-.05 14.26-.05 21.4 0-.06 7.08-.05 14.16-.01 21.24-7.15-.05-14.29.02-21.43-.05.17-7.06.09-14.12.04-21.19zm27.57-.04c7.16.05 14.31-.02 21.47.02-.04 7.07-.03 14.15-.01 21.23-7.16-.02-14.32-.01-21.48-.01.07-7.08.03-14.16.02-21.24z" fill="#fff"/></svg>