<svg width="256" height="256" viewBox="0 0 192 192" xmlns="http://www.w3.org/2000/svg"><path fill="#148abf" d="M25.26 0h20.96c.17 40.89-.1 81.79.13 122.67 5.88.33 11.78.09 17.67.16 5.71.04 11.65-.28 16.83-2.93 8.89-4.36 15.33-13.85 14.97-23.9.14-9.25-5.49-17.97-13.4-22.51-3.53-1.99-7.55-2.76-11.42-3.81-.8-7-.5-14.07-.18-21.09 20.75-.31 40.23 15.22 45.44 35.16 1.88 6.93 1.85 14.28.84 21.34-3.05 17.44-16.76 32.36-33.75 37.18-9.84 3-20.23 1.73-30.35 1.97-9.21-.21-18.44.49-27.63-.34-.15-47.96.07-95.93-.11-143.9z"/><path fill="#e4412d" d="M70.85.76c1.71-.11 3.41-.24 5.13-.23 36.04 1.82 69.78 25.87 83.4 59.27 6.87 15.97 8.44 33.86 6.09 50.98-5.29 31.53-25.71 61.47-55.74 73.96-8.68 3.93-18.13 5.46-27.42 7.26H25.27c.2-7.91-.14-15.82.1-23.72 18.93-1.21 38.05 2.27 56.85-1.09 16.49-2.88 31.93-11.48 42.98-24.06 10.18-11.7 16.95-26.6 18.01-42.15 1.55-16.66-3.19-33.72-12.76-47.4-10.43-15.26-26.87-26.13-44.84-30.23-4.86-1.08-9.86-1.31-14.73-2.37-.53-6.72-.47-13.49-.03-20.22z"/></svg>