<svg xmlns="http://www.w3.org/2000/svg" xmlns:xlink="http://www.w3.org/1999/xlink" width="30" height="30" viewBox="0 0 30 30" fill="none"><defs><path id="a" d="M0 0h30v30H0z"/></defs><mask id="b" fill="#fff"><use xlink:href="#a"/></mask><g mask="url(#b)"><path style="fill:#fff" d="M0 30h30V0H0v30z"/><path style="fill:#0e73ff" transform="translate(5.849 6.429)" d="M2.72.29.01 16.73c-.04.21.12.41.32.41h6.48l.51-.17h3.01l.42.17h4.99c.16 0 .3-.12.33-.29L18.3 3.33 14.8 0H3.05c-.16 0-.3.12-.33.29z"/><path style="fill:#85b2f1" transform="translate(13 13.335)" d="M4 3.33.49 0 .01 2.91c-.04.22.12.42.32.42H4z"/><path style="fill:#fff" transform="translate(7.69 6.783)" d="M4.34 16.43h3.94l1.53-9.22h4.65l.16-.01L7.06 0 6.4 3.98 0 4l2.78 3.21h3.09l-1.53 9.22z"/></g></svg>