<svg width="100pt" height="100pt" viewBox="0 0 100 100" xmlns="http://www.w3.org/2000/svg"><path fill="#0073ec" d="M49.19 9.34c11.41-1.24 23.2 3.11 31.03 11.5C91.8 32.69 94.3 52.45 85.61 66.62c-15.57 9.36-37.53 4.48-48.33-9.98-9.5-11.89-10.7-29.95-2.3-42.72 4.24-2.7 9.27-4 14.21-4.58z"/><path fill="#1f3244" d="M8.88 52.04C6.98 35.2 16.17 17.93 31.01 9.83c-5.65 9.43-8.23 20.87-5.82 31.71C28.17 56.8 40.07 69.78 54.9 74.33c11.6 3.79 24.61 2.15 35.17-3.85-5.9 9.34-15.28 16.52-26.03 19.28-12.75 3.53-27.01.82-37.61-7.06-9.84-7.13-16.35-18.58-17.55-30.66z"/></svg>