<svg width="16pt" height="16pt" viewBox="0 0 16 16" xmlns="http://www.w3.org/2000/svg"><path fill="#0f0f0f" opacity=".93" d="M6.43 0h2.96c1.26.91 3.1 2.27 2.59 4.04l-.87-.27C10.49.25 5.54.24 4.89 3.75l-.9.28C3.56 2.28 5.33 1.06 6.43 0z"/><path fill="#e53238" d="M1.01 4.02c.75 0 2.24.01 2.98.01.03 3.99-.01 7.98.02 11.97H2.17c-.27-.3-.8-.9-1.06-1.2-.24-3.58-.07-7.19-.1-10.78z"/><path fill="#0064d2" d="m3.99 4.03.9-.28c.78.07 2.33.22 3.11.3V16H4.01c-.03-3.99.01-7.98-.02-11.97z"/><path fill="#f5af02" d="m8 4.05 3.11-.28.87.27.06.02c-.06 3.98-.05 7.96-.02 11.94H8V4.05z"/><path fill="#86b817" d="m12.04 4.06 2.95-.04c-.5 3.93 1.15 8.48-.97 11.98h-2c-.03-3.98-.04-7.96.02-11.94z"/></svg>