<svg width="50pt" height="50pt" viewBox="0 0 50 50" xmlns="http://www.w3.org/2000/svg"><path d="M11.92 14.78c.78-5.85 6.12-10.7 12.1-10.4 5.8-.02 10.69 4.82 11.54 10.42 2.59-.01 5.18-.02 7.77-.04-.01 1.64-.01 3.29-.01 4.93-3.22-.03-6.44-.07-9.67-.06-3.32.02-6.65 0-9.97.01-3.28.02-6.56.02-9.84-.01-3.22-.03-6.43-.04-9.65.01-.01-1.62-.02-3.24-.05-4.86 2.59.01 5.19 0 7.78 0m2.81-.07c5.96.16 11.93.03 17.9.09-.95-4.35-5.06-7.94-9.63-7.47-4.09.24-7.13 3.66-8.27 7.38zM4.2 36.84c3.2.05 6.4.09 9.6.05 3.29-.03 6.59-.04 9.89-.03 3.31.01 6.63-.02 9.95 0 3.23.03 6.45-.02 9.68-.06-.02 2.46-.02 4.91 0 7.37-13.05-.02-26.1-.01-39.15-.01.01-2.44.01-4.88.03-7.32z" fill="#010101"/><path fill="#fd0102" d="M4.19 19.64c3.22-.05 6.43-.04 9.65-.01-.03 5.75.02 11.51-.04 17.26-3.2.04-6.4 0-9.6-.05-.07-5.73-.03-11.47-.01-17.2z"/><path fill="#0366de" d="M13.84 19.63c3.28.03 6.56.03 9.84.01.01 5.74.01 11.48.01 17.22-3.3-.01-6.6 0-9.89.03.06-5.75.01-11.51.04-17.26z"/><path fill="#fecc02" d="M23.68 19.64c3.32-.01 6.65.01 9.97-.01-.29 5.74-.28 11.49-.01 17.23-3.32-.02-6.64.01-9.95 0 0-5.74 0-11.48-.01-17.22z"/><path fill="#99ce02" d="M33.65 19.63c3.23-.01 6.45.03 9.67.06.02 5.7.04 11.41 0 17.11-3.23.04-6.45.09-9.68.06-.27-5.74-.28-11.49.01-17.23z"/></svg>