<svg xmlns="http://www.w3.org/2000/svg" width="4509" height="4509" viewBox="0 0 4509 4509" fill="none" version="1.2" baseProfile="tiny-ps"><path fill="#131213" d="M0 0h4509v4509H0z"/><path d="M3104.95 2231.89 4038.04 1526h-463.53l-701.32 537.21-185.56-121.86h-440.49l400.32 296.45-310 261.83c-158.09 134.05-379.5 321.22-707.62 321.22-129.37 0-312.83-29.21-415.1-142.07L2727.18 1526H1812.2c-559.88 0-845.735 323.56-845.735 723.88 0 82.8 17.989 186.54 39.055 234.1L378 2948.99h480.531l290.539-219.69c105.34 130.97 329.59 252.83 566.78 254.06 391.32 3.33 744.45-257.02 870-356.33l284.38-225.73 741.99 547.69h518.97l-1026.24-717.1zm-2031.66 201.7c-8.99-22.55-18.11-106.83-18.11-156.48 0-267.87 188.14-499.63 681.74-499.63h258.74s-58.4 25.5-186.66 120.38c-128.27 94.87-735.71 535.73-735.71 535.73z" fill="#FFD800"/></svg>