<svg width="100pt" height="100pt" viewBox="0 0 100 100" xmlns="http://www.w3.org/2000/svg"><g fill="#0ab45b"><path d="M3.53 3.53c30.98.08 61.96.08 92.94 0 .12 31.02-.02 62.04.08 93.05-31.03.07-62.07.07-93.1 0 .1-31.01-.04-62.03.08-93.05M28.4 28.4c-7.02 8.2-8.21 20.02-5.8 30.23 1.94 8.37 8.25 15.64 16.52 18.23 9.71 3.02 21.27 2.23 29.44-4.27 5.05-3.89 7.93-9.82 9.51-15.86 1.9-.07 3.8-.13 5.7-.18a93.97 93.97 0 0 1 2.06-5.11c-2.39-.04-4.79-.05-7.18-.08.03-.88.07-2.64.1-3.52 2.26-.06 4.52-.12 6.78-.3.43-1.64.94-3.26 1.51-4.86-2.89-.03-5.78-.12-8.67-.07-1.39-7.78-5.37-15.57-12.56-19.43-11.72-6.42-28.32-5.16-37.41 5.22z"/><path d="M42.1 31.12c3.36-4.56 10.72-4.77 14.68-.89 3.33 3.23 4.44 7.93 5.14 12.35-2.63.02-5.27.07-7.91.08-.56 1.7-1.08 3.42-1.45 5.18 3.22-.16 6.44-.06 9.66-.06 0 .89.01 2.68.01 3.58-3.24-.04-6.48.11-9.71.15-.47 1.72-1 3.43-1.55 5.13 3.57-.09 7.15-.02 10.73-.02-.52 4.07-1.59 8.44-4.74 11.32-3.87 3.59-10.58 3.13-14.03-.84-4.33-4.89-4.77-11.84-4.99-18.06.16-6.11.37-12.8 4.16-17.92z"/></g><path fill="#fff" d="M28.4 28.4c9.09-10.38 25.69-11.64 37.41-5.22C73 27.04 76.98 34.83 78.37 42.61c2.89-.05 5.78.04 8.67.07-.57 1.6-1.08 3.22-1.51 4.86-2.26.18-4.52.24-6.78.3-.03.88-.07 2.64-.1 3.52 2.39.03 4.79.04 7.18.08a93.97 93.97 0 0 0-2.06 5.11c-1.9.05-3.8.11-5.7.18-1.58 6.04-4.46 11.97-9.51 15.86-8.17 6.5-19.73 7.29-29.44 4.27C30.85 74.27 24.54 67 22.6 58.63c-2.41-10.21-1.22-22.03 5.8-30.23m13.7 2.72c-3.79 5.12-4 11.81-4.16 17.92.22 6.22.66 13.17 4.99 18.06 3.45 3.97 10.16 4.43 14.03.84 3.15-2.88 4.22-7.25 4.74-11.32-3.58 0-7.16-.07-10.73.02.55-1.7 1.08-3.41 1.55-5.13 3.23-.04 6.47-.19 9.71-.15 0-.9-.01-2.69-.01-3.58-3.22 0-6.44-.1-9.66.06.37-1.76.89-3.48 1.45-5.18 2.64-.01 5.28-.06 7.91-.08-.7-4.42-1.81-9.12-5.14-12.35-3.96-3.88-11.32-3.67-14.68.89z"/></svg>