<svg width="100pt" height="100pt" viewBox="0 0 100 100" xmlns="http://www.w3.org/2000/svg"><path d="M18.09 13.61c4.68-.18 9.38-.21 14.06.03.07 9.47 0 18.94.04 28.41-4.9 3.03-9.34 6.72-14.23 9.75.31-12.72.07-25.46.13-38.19zm49.98 0c4.68-.16 9.38-.25 14.06.07.11 12.74.01 25.49.05 38.23-4.88-3.04-9.31-6.72-14.18-9.78.2-9.51.08-19.01.07-28.52zM17.99 71.44c4.73.51 9.49.33 14.2-.35-.02 5.09.02 10.18-.04 15.26-4.68.26-9.38.21-14.06.04-.02-4.98.1-9.97-.1-14.95zm50.06-.32c4.69.67 9.44.84 14.14.28-.03 4.97.03 9.95-.05 14.92-4.69.33-9.39.22-14.07.07.04-5.09.06-10.18-.02-15.27z" fill="#182c3a"/><path fill="#a5be00" d="M11.98 58.41c10.64-2.68 17.48-12.72 28.03-15.58 3.37-.71 7.18-.68 9.99 1.58 3.58-2.78 8.59-2.32 12.58-.74 8.81 3.6 15.16 11.54 24.32 14.45 3.61 1.2 7.47.69 10.99-.57-4.69 6.1-12.04 10.1-19.76 10.49-9.95.53-19.54-3.23-28.13-7.93-9.57 5.24-20.6 9.45-31.67 7.47-6.54-1.06-12.11-5.12-16.42-9.99 3.27.91 6.7 1.76 10.07.82z"/></svg>