<svg width="100pt" height="100pt" viewBox="0 0 100 100" xmlns="http://www.w3.org/2000/svg"><path fill="#efb448" d="M48.34 0h3.21c15.43.38 30.42 8.49 39.2 21.18 6.55 9.13 9.73 20.54 9.01 31.74-.74 15.22-9.12 29.74-21.71 38.25-10.66 7.43-24.31 10.19-37.06 7.89C27.55 96.7 15.3 88.46 7.96 76.97 3.26 69.9.72 61.55 0 53.13V47.1c.63-9.02 3.49-17.94 8.71-25.36C17.43 8.7 32.68.37 48.34 0M32.07 8.25C18.81 13.83 8.64 26.08 5.63 40.15c-2.96 12.56.21 26.03 7.53 36.52 8.44 11.69 22.55 18.82 36.96 18.82 2.4-.99 4.69-2.28 7.21-2.96 2.75-.34 5.52-.06 8.27.07 1.58-3.65 1.63-7.82.51-11.6-.43-1-.63-2.89-2.13-2.74-4-.4-7.8 1.16-11.65 1.93 2.34-3.09 6.37-3.52 9.8-4.68-7.51-5.06-15.03-10.76-19.6-18.75 8.41 4.99 15.73 12.45 25.54 14.62.34 1.46.44 3.02 1.16 4.36-.96 1.46-.86 2.89.3 4.29-.39 2.96.12 5.98-.1 8.97-.2.56-.59 1.69-.78 2.25 7.02-3.03 13.22-8.03 17.68-14.24 8.57-11.56 11.39-27.25 6.77-40.94-3.89-12.38-13.4-22.79-25.35-27.82-11.22-4.94-24.45-4.92-35.68 0z"/><g fill="#fff"><path d="M32.07 8.25c11.23-4.92 24.46-4.94 35.68 0C79.7 13.28 89.21 23.69 93.1 36.07c4.62 13.69 1.8 29.38-6.77 40.94-.54-4.02-3.84-6.69-6.26-9.63 1.84-6.23-4.31-10.15-8.5-13.41l-1.15-.98v-.01c2.24-.31 4.51-.4 6.76-.59.47 1.66.95 3.32 1.44 4.98 2.42-1.32 2.96-4.07 3.63-6.5 2.85-2.16 3.45-5.87 2.31-9.13-1.65-3.07-5.26-4.7-8.65-3.82-1.78-1.17-3.57-2.32-5.36-3.48.01-4.7.21-10.17-3.26-13.83-1.64-1.85-3.72-.22-5.33.71-2.71-1.2-5.57-2.03-8.5-2.55-2.03-3.09-5-7.46-9.34-5.81-5.74 2.65-6.94 9.65-8.94 15.02-5.14 2.68-10.16 5.67-14.53 9.51 2.11 2.08 4.54 3.8 7.01 5.42-.88.69-1.76 1.38-2.63 2.08-2.54 2.32-5.87 4.47-6.76 7.98 1.93 2.33 5.34 2.35 8.02 3.33l.03.86c-1.48 1.17-3.02 2.26-4.51 3.41-1.32.97-2.47 2.15-3.47 3.45.49.52 1.45 1.58 1.94 2.1-2.65 3.33-5.09 6.81-7.12 10.55C5.84 66.18 2.67 52.71 5.63 40.15c3.01-14.07 13.18-26.32 26.44-31.9z"/><path d="M28.25 75.28c.87-.53 1.75-1.06 2.63-1.59.99 2.11 2.02 4.2 3.1 6.26.61 1.68.95 3.43 1.32 5.17-2.43-3.23-4.25-6.89-7.05-9.84z"/></g><path d="M35.18 27.98c2-5.37 3.2-12.37 8.94-15.02 4.34-1.65 7.31 2.72 9.34 5.81 2.93.52 5.79 1.35 8.5 2.55 1.61-.93 3.69-2.56 5.33-.71 3.47 3.66 3.27 9.13 3.26 13.83 1.79 1.16 3.58 2.31 5.36 3.48-.67.37-2.02 1.11-2.69 1.48-3.58-1.65-8.34-2.7-11.58.2-2 1.65-1.86 4.41-2.13 6.74-3.88-1.31-8.36-2.38-10.71-6.08-3.05-4.03-6.06-9.74-11.84-9.77-4.52-.36-7.24 4.55-7.31 8.5.52 5.39 4.26 9.75 8.1 13.27 1.43 1.3 2.94 2.7 3.26 4.72 1.46 5.54 4.68 10.39 6.43 15.82 2.65 7.23 3.72 15.03 2.68 22.69-14.41 0-28.52-7.13-36.96-18.82 2.03-3.74 4.47-7.22 7.12-10.55a79.6 79.6 0 0 0 3.26-5.01c-.43-.13-1.3-.41-1.73-.54 1.49-1.15 3.03-2.24 4.51-3.41l-.03-.86c-.32-3.78-.85-7.54-1.26-11.31.87-.7 1.75-1.39 2.63-2.08-2.47-1.62-4.9-3.34-7.01-5.42 4.37-3.84 9.39-6.83 14.53-9.51m6.34 3.46c3.66.21 7.29.67 10.93 1.13-1.64-4.72-4.04-9.19-7.87-12.5-.37 3.94-1.46 7.76-3.06 11.37m22.31-4.01c.33.24.99.74 1.32.99-1.39-.06-2.42.67-3.11 2.2-.3.88-.61 1.77-.91 2.66 2.19.15 4.38.31 6.57.48-.37-2.83-.62-5.67-.8-8.51-1.03.71-2.05 1.44-3.07 2.18M30.88 73.69c-.88.53-1.76 1.06-2.63 1.59 2.8 2.95 4.62 6.61 7.05 9.84-.37-1.74-.71-3.49-1.32-5.17l.75.83c1.33-4.68 2.58-9.39 3.51-14.17-2.45 2.36-4.87 4.76-7.36 7.08zm45.82-4.65c1.15-.5 2.27-1.05 3.37-1.66 2.42 2.94 5.72 5.61 6.26 9.63-4.46 6.21-10.66 11.21-17.68 14.24.19-.56.58-1.69.78-2.25 1.46-4.7 4.65-8.49 7.83-12.12-.91-2.53-1.3-5.21-.56-7.84z" fill="#4c8ac9"/><path d="M41.52 31.44c1.6-3.61 2.69-7.43 3.06-11.37 3.83 3.31 6.23 7.78 7.87 12.5-3.64-.46-7.27-.92-10.93-1.13m5.3-.78c2.95-1.56 1.57-5.1-.58-6.62-2.44 1.51-3.17 6.44.58 6.62zm17.01-3.23c1.02-.74 2.04-1.47 3.07-2.18.18 2.84.43 5.68.8 8.51-2.19-.17-4.38-.33-6.57-.48.3-.89.61-1.78.91-2.66.55.6 1.64 1.8 2.18 2.4 1.02-1.1 1.83-2.38 1.81-3.93l-.88-.67c-.33-.25-.99-.75-1.32-.99z" fill="#fcfcfa"/><path fill="#4174a8" d="M46.82 30.66c-3.75-.18-3.02-5.11-.58-6.62 2.15 1.52 3.53 5.06.58 6.62z"/><path d="M62.04 30.62c.69-1.53 1.72-2.26 3.11-2.2l.88.67c.02 1.55-.79 2.83-1.81 3.93-.54-.6-1.63-1.8-2.18-2.4zM30.88 73.69c2.49-2.32 4.91-4.72 7.36-7.08-.93 4.78-2.18 9.49-3.51 14.17l-.75-.83c-1.08-2.06-2.11-4.15-3.1-6.26zm37.19-2.31c2.92-.57 5.8-1.38 8.63-2.34-.74 2.63-.35 5.31.56 7.84-3.18 3.63-6.37 7.42-7.83 12.12.22-2.99-.29-6.01.1-8.97.68-.98 1.61-1.92 1.69-3.18-.5-.27-1.49-.83-1.99-1.11-.72-1.34-.82-2.9-1.16-4.36z" fill="#4173a8"/><path fill="#fdd539" d="M29.65 38.99c.07-3.95 2.79-8.86 7.31-8.5 5.78.03 8.79 5.74 11.84 9.77 2.35 3.7 6.83 4.77 10.71 6.08.27-2.33.13-5.09 2.13-6.74 3.24-2.9 8-1.85 11.58-.2.67-.37 2.02-1.11 2.69-1.48 3.39-.88 7 .75 8.65 3.82.92 4.45-2.17 7.95-5.63 10.19-.43.12-1.31.34-1.75.46-2.25.19-4.52.28-6.76.59-.26.05-.79.14-1.05.19-1.76.34-3.54.63-5.33.77-5.34-1.46-10.25-4.16-14.64-7.49-3.12-2.35-5.88-5.14-8.41-8.11.21-.75.61-2.23.81-2.98-1.79.04-4.03-.46-5.25 1.26-1.03 1.57-1.19 3.52-1.68 5.29.99-.67 1.96-1.36 2.94-2.05 1.14 2.58 2.3 5.17 3.84 7.54 5.83 7.66 14.07 13.18 22.72 17.2 3.87 1.93 8.34 1.38 12.17-.32.65-.94 1.71-1.87 1.38-3.14-1.62-2.78-4.06-4.95-6.35-7.17 4.19 3.26 10.34 7.18 8.5 13.41-1.1.61-2.22 1.16-3.37 1.66-2.83.96-5.71 1.77-8.63 2.34-9.81-2.17-17.13-9.63-25.54-14.62 4.57 7.99 12.09 13.69 19.6 18.75-3.43 1.16-7.46 1.59-9.8 4.68 3.85-.77 7.65-2.33 11.65-1.93 1.5-.15 1.7 1.74 2.13 2.74 1.12 3.78 1.07 7.95-.51 11.6-2.75-.13-5.52-.41-8.27-.07-2.52.68-4.81 1.97-7.21 2.96 1.04-7.66-.03-15.46-2.68-22.69-1.75-5.43-4.97-10.28-6.43-15.82-.32-2.02-1.83-3.42-3.26-4.72-3.84-3.52-7.58-7.88-8.1-13.27z"/><path d="M36.55 36.62c1.22-1.72 3.46-1.22 5.25-1.26-.2.75-.6 2.23-.81 2.98 2.53 2.97 5.29 5.76 8.41 8.11-2.58.32-5.17.63-7.75.95-1.54-2.37-2.7-4.96-3.84-7.54-.98.69-1.95 1.38-2.94 2.05.49-1.77.65-3.72 1.68-5.29zm48.01 5.12c1.14 3.26.54 6.97-2.31 9.13-1.1.38-2.2.73-3.32 1.06 3.46-2.24 6.55-5.74 5.63-10.19z" fill="#f3883a"/><path fill="#4a88c8" d="M18.27 52.97c.89-3.51 4.22-5.66 6.76-7.98.41 3.77.94 7.53 1.26 11.31-2.68-.98-6.09-1-8.02-3.33z"/><path fill="#f89954" d="M49.4 46.45c4.39 3.33 9.3 6.03 14.64 7.49.31 1.83.62 3.66.97 5.49 2.32-1.38 3.47-3.82 4.36-6.26.26-.05.79-.14 1.05-.19v.01l.52 1.68c2.25 2.97 4.38 6.05 5.6 9.61-3.83 1.7-8.3 2.25-12.17.32-8.65-4.02-16.89-9.54-22.72-17.2 2.58-.32 5.17-.63 7.75-.95z"/><path fill="#e7e9ec" d="M78.93 51.93c1.12-.33 2.22-.68 3.32-1.06-.67 2.43-1.21 5.18-3.63 6.5-.49-1.66-.97-3.32-1.44-4.98.44-.12 1.32-.34 1.75-.46z"/><path fill="#e4f4ff" d="M64.04 53.94c1.79-.14 3.57-.43 5.33-.77-.89 2.44-2.04 4.88-4.36 6.26-.35-1.83-.66-3.66-.97-5.49z"/><path fill="#f38333" d="m70.94 54.67-.52-1.68 1.15.98c2.29 2.22 4.73 4.39 6.35 7.17.33 1.27-.73 2.2-1.38 3.14-1.22-3.56-3.35-6.64-5.6-9.61z"/><path fill="#4485c7" d="M18.34 64.02c1-1.3 2.15-2.48 3.47-3.45.43.13 1.3.41 1.73.54a79.6 79.6 0 0 1-3.26 5.01c-.49-.52-1.45-1.58-1.94-2.1z"/><path fill="#e8eef4" d="M69.23 75.74c.5.28 1.49.84 1.99 1.11-.08 1.26-1.01 2.2-1.69 3.18-1.16-1.4-1.26-2.83-.3-4.29z"/></svg>