<svg width="100pt" height="100pt" viewBox="0 0 100 100" xmlns="http://www.w3.org/2000/svg"><path fill="#6746c8" d="M0 0h100v100H0V0m16.13 11.6c.05 12.18-.02 24.36.04 36.54 20.81.06 41.62-.07 62.43.07-5.65-3.39-11.6-6.22-17.35-9.43-1.88-1.23-4.16-.95-6.28-.95-6.46.16-12.94-.19-19.39.44-.55-5.45-.14-10.95-.19-16.42-6.37-3.52-12.93-6.67-19.26-10.25m49.03.61c.04 7.65.19 15.3-.09 22.94 6.16 3.96 12.58 7.51 18.78 11.41-.01-8.45.04-16.9-.02-25.35-6.26-2.92-12.41-6.09-18.67-9M20.38 52.52c5.99 3.33 12.03 6.59 18.04 9.89 1.09.65 2.27.92 3.54.81 7.57-.18 15.14-.03 22.72-.08-.05 5.37.01 10.74-.07 16.1 6.35 3.55 12.91 6.71 19.27 10.25-.03-12.1-.06-24.21.03-36.32-21.16-.61-42.36-.29-63.53-.65m-4.25 3.01c.03 8.12.03 16.24 0 24.36 6.28 2.93 12.43 6.11 18.75 8.95-.19-7.52-.03-15.04-.09-22.56-6.23-3.57-12.5-7.06-18.66-10.75z"/><path d="M16.13 11.6c6.33 3.58 12.89 6.73 19.26 10.25.05 5.47-.36 10.97.19 16.42 6.45-.63 12.93-.28 19.39-.44 2.12 0 4.4-.28 6.28.95 5.75 3.21 11.7 6.04 17.35 9.43-20.81-.14-41.62-.01-62.43-.07-.06-12.18.01-24.36-.04-36.54zm49.03.61c6.26 2.91 12.41 6.08 18.67 9 .06 8.45.01 16.9.02 25.35-6.2-3.9-12.62-7.45-18.78-11.41.28-7.64.13-15.29.09-22.94zM20.38 52.52c21.17.36 42.37.04 63.53.65-.09 12.11-.06 24.22-.03 36.32-6.36-3.54-12.92-6.7-19.27-10.25.08-5.36.02-10.73.07-16.1-7.58.05-15.15-.1-22.72.08-1.27.11-2.45-.16-3.54-.81-6.01-3.3-12.05-6.56-18.04-9.89zm-4.25 3.01c6.16 3.69 12.43 7.18 18.66 10.75.06 7.52-.1 15.04.09 22.56-6.32-2.84-12.47-6.02-18.75-8.95.03-8.12.03-16.24 0-24.36z" fill="#fffffe"/></svg>