<svg width="100pt" height="100pt" viewBox="0 0 100 100" xmlns="http://www.w3.org/2000/svg"><path d="M4.67 28.19c4.32 0 8.65.01 12.98.06-.11 5.59-.1 11.17.14 16.76 5.81.48 11.65.44 17.47.06.24-5.6.25-11.21.13-16.81 4.3-.06 8.6-.07 12.9-.07.06 15.13.28 30.26-.12 45.38-4.24 0-8.47-.01-12.71-.06.02-5.54.05-11.08-.23-16.61-5.8-.4-11.62-.42-17.42.03-.25 5.52-.25 11.05-.23 16.58-4.26.06-8.52.06-12.78.05-.52-15.11-.27-30.25-.13-45.37zm48.24.15c4.62-.19 9.24-.18 13.86-.07 4.77 7.49 9.42 15.07 13.86 22.77-4.89 7.45-9.52 15.07-14.45 22.5-4.22.02-8.44.03-12.65-.16 3.78-7.82 8.95-14.84 13.2-22.4-4.18-7.8-9.38-14.99-13.82-22.64zm26.11-.02c5.6-.18 11.21-.13 16.82-.03-3.19 4.07-5.9 8.47-8.82 12.74-2.8-4.15-5.47-8.39-8-12.71z" fill="#f9444a"/></svg>