<svg width="100pt" height="100pt" viewBox="0 0 100 100" xmlns="http://www.w3.org/2000/svg"><path fill="#f70" d="M46.56 0h6.88C67.7 1.32 81.47 8.38 90.02 20c5.38 6.85 8.23 15.22 9.98 23.64v9.85c-.94 14.81-8.88 28.94-21.05 37.43-6.88 5.04-15.15 7.78-23.51 9.08h-8.92C31.25 98.94 16.7 90.48 8.37 77.63 3.45 70.48 1.06 61.97 0 53.45v-6.88C1.2 36.16 4.9 25.88 11.85 17.9 20.42 7.52 33.26 1.32 46.56 0m19.72 20.21c-2.63 1.12-4 4.01-3.75 6.78.05 14.67-.04 29.35.04 44.02-.15 3.45 2.98 6.58 6.43 6.47 3.31-.06 6.28-3.05 6-6.42.05-15.04.05-30.08 0-45.12.39-4.36-4.88-7.83-8.72-5.73M45.45 31.38c-2.36 1.29-3.38 4-3.19 6.59.05 11-.03 22.01.04 33.01-.21 3.57 3.13 6.8 6.69 6.48 3.24-.21 5.96-3.21 5.72-6.48.03-11.32.03-22.64 0-33.96.46-4.67-5.32-8.23-9.26-5.64M26.44 42.52c-2.77.77-4.63 3.58-4.39 6.43 0 7.37-.12 14.74-.01 22.11-.27 3.7 3.33 6.95 6.98 6.35 3.14-.34 5.62-3.32 5.5-6.45 0-7.59.1-15.18-.04-22.76-.1-3.86-4.36-6.89-8.04-5.68z"/><path d="M66.28 20.21c3.84-2.1 9.11 1.37 8.72 5.73.05 15.04.05 30.08 0 45.12.28 3.37-2.69 6.36-6 6.42-3.45.11-6.58-3.02-6.43-6.47-.08-14.67.01-29.35-.04-44.02-.25-2.77 1.12-5.66 3.75-6.78zM45.45 31.38c3.94-2.59 9.72.97 9.26 5.64.03 11.32.03 22.64 0 33.96.24 3.27-2.48 6.27-5.72 6.48-3.56.32-6.9-2.91-6.69-6.48-.07-11 .01-22.01-.04-33.01-.19-2.59.83-5.3 3.19-6.59zM26.44 42.52c3.68-1.21 7.94 1.82 8.04 5.68.14 7.58.04 15.17.04 22.76.12 3.13-2.36 6.11-5.5 6.45-3.65.6-7.25-2.65-6.98-6.35-.11-7.37.01-14.74.01-22.11-.24-2.85 1.62-5.66 4.39-6.43z" fill="#fff"/></svg>