<svg width="100pt" height="100pt" viewBox="0 0 100 100" xmlns="http://www.w3.org/2000/svg"><path fill="#ff301a" d="M0 0h100v100H69.92c-1.29-2.99-2.08-6.25-4-8.93-1.72-2.49-4.27-4.2-6.69-5.93-7.07.75-14.2.92-21.28.36-2.5-.15-5.3-.65-7.4 1.09-4.92 2.89-7.54 8.16-9.18 13.41H0V63.95c3.49-2.34 6.91-4.9 9.06-8.6 1.85 11.76 11.16 21.51 22.36 25.02 8.21 2.46 17.07 2.75 25.47 1.14 9.73-1.91 17.6-9.22 21.81-17.99 3.89.49 8.18 1.01 11.67-1.2 2.55-1.33 4.59-4.34 3.5-7.27-1.24-3.49-3.49-6.49-5.13-9.79-2.47-4.46-4.13-9.29-6.12-13.97-1.27-3.02-4.05-6.02-7.61-5.66-2.06.6-3.83 1.83-5.65 2.93-15.63-7.84-35.53-7.16-50.4 2.14-2.7-2.05-5.18-5.5-8.93-5.22-4.78.88-7.56 5.37-10.03 9.13V0z"/><path d="M18.96 30.7c14.87-9.3 34.77-9.98 50.4-2.14 1.82-1.1 3.59-2.33 5.65-2.93 3.56-.36 6.34 2.64 7.61 5.66 1.99 4.68 3.65 9.51 6.12 13.97 1.64 3.3 3.89 6.3 5.13 9.79 1.09 2.93-.95 5.94-3.5 7.27-3.49 2.21-7.78 1.69-11.67 1.2-4.21 8.77-12.08 16.08-21.81 17.99-8.4 1.61-17.26 1.32-25.47-1.14-11.2-3.51-20.51-13.26-22.36-25.02-2.15 3.7-5.57 6.26-9.06 8.6V34.61c2.47-3.76 5.25-8.25 10.03-9.13 3.75-.28 6.23 3.17 8.93 5.22m17.4 4.59c-2.89 1.92-4.89 7.34-1.34 9.56 3.73-.58 5.82-5.29 4.6-8.62-.35-1.37-2.26-1.85-3.26-.94m33.55.77c-1.16 3.71 1.51 7.23 4.26 9.44 2.39-2.93 1.43-7.12-1.09-9.63-.79-1.24-2.73-1.47-3.17.19M49.7 45.05c.51 1.98 2.54 3 4.37 3.47 4.41.95 9.85.65 12.58-3.49-3.22-4.03-8.98-4.42-13.58-2.96-1.42.53-2.86 1.47-3.37 2.98m-15.84 5.48c3.34 11.02 16.7 15.53 27.13 12.98 6.46-1.37 13.73-6.03 14.09-13.23-.36.46-1.08 1.39-1.45 1.85-5.73 11.86-23.02 13.3-32.81 5.82-2.93-1.91-3.92-5.67-6.96-7.42zm-3.31 36.06c2.1-1.74 4.9-1.24 7.4-1.09 7.08.56 14.21.39 21.28-.36 2.42 1.73 4.97 3.44 6.69 5.93 1.92 2.68 2.71 5.94 4 8.93H21.37c1.64-5.25 4.26-10.52 9.18-13.41z" fill="#fff"/><path d="M36.36 35.29c1-.91 2.91-.43 3.26.94 1.22 3.33-.87 8.04-4.6 8.62-3.55-2.22-1.55-7.64 1.34-9.56zm33.55.77c.44-1.66 2.38-1.43 3.17-.19 2.52 2.51 3.48 6.7 1.09 9.63-2.75-2.21-5.42-5.73-4.26-9.44zM49.7 45.05c.51-1.51 1.95-2.45 3.37-2.98 4.6-1.46 10.36-1.07 13.58 2.96-2.73 4.14-8.17 4.44-12.58 3.49-1.83-.47-3.86-1.49-4.37-3.47zm-15.84 5.48c3.04 1.75 4.03 5.51 6.96 7.42 9.79 7.48 27.08 6.04 32.81-5.82.37-.46 1.09-1.39 1.45-1.85-.36 7.2-7.63 11.86-14.09 13.23-10.43 2.55-23.79-1.96-27.13-12.98z" fill="#22211f"/></svg>