<svg width="100pt" height="100pt" viewBox="0 0 100 100" xmlns="http://www.w3.org/2000/svg"><path fill="#e1251b" d="M44.93 31.89c6.02-5.64 13.65-10.16 22.08-10.5 8.94-.22 18.12 3.78 23.34 11.19 5.44 7.03 7.04 16.68 4.4 25.15-3.53 11.82-15.54 19.99-27.71 19.85-13.27-1.01-24.71-10.94-29.21-23.24 2.07-2.06 4.05-4.2 6-6.37 1.99 6.83 6.09 13.11 11.74 17.47 5.69 4.37 13.72 5.57 20.33 2.65C83.68 64.97 89.29 56.44 88.1 48c.03-2.14-2.19-2.74-3.84-3.24-7.03-2.19-15.2-.13-20.28 5.23-3.42 3.62-6.17 7.79-8.98 11.87a57.468 57.468 0 0 1-5.42-6.45c4.55-5.36 8.32-11.71 14.58-15.29 6.02-3.64 13.32-4.51 20.19-3.4-4.14-4.59-10.06-7.82-16.36-7.65-7.32-.2-13.59 4.38-18.64 9.21-5.03 4.7-8.81 10.53-13.89 15.18-5.96 6.02-13.74 10-21.89 12.09 7.46 6.97 19.42 4.23 26.68-1.62 1.6 2.24 3.44 4.3 5.49 6.13-6.78 4.96-15.26 7.92-23.7 7.51-7.78-1.06-15.25-6.01-18.25-13.46-4.05-8.99-.74-20.4 7.34-25.99 7.3-5.38 17.67-5.12 25.12-.18-1.71 1.97-3.41 3.94-5.09 5.93-5.57-3.5-13.49-2.58-17.81 2.48-3.09 3.2-4.06 7.82-3.55 12.13 7.11-1.4 13.87-4.59 19.25-9.47 5.98-5.05 10.08-11.87 15.88-17.12z"/></svg>