<svg width="100pt" height="100pt" viewBox="0 0 100 100" xmlns="http://www.w3.org/2000/svg"><g fill="#fff"><path d="M12.22 11.22c2.08-2.01 4.33-4.94 7.61-4.36 1.68.55 2.8 2.06 4.14 3.14-6.68 3.11-10.23 10.23-10.14 17.42-2.39.04-5.01.25-7.11-1.13-2.21-1.22-3.2-4.25-1.92-6.48 1.74-3.41 4.94-5.75 7.42-8.59z"/><path d="M16.66 19.66c2.32-6.76 9.73-9.89 16.3-10.8 10.97-1.31 22.28 1.01 32.12 5.94 3.83 1.8 6.75 4.9 10.03 7.46 3.32-.65 6.03-3.95 9.57-3.19 2.74 2.28 3.67 5.9 5.48 8.85 1.74 3.45 4.61 6.2 6.21 9.72 1.15 2.45-1.42 4.82-3.7 5.19-7.05 1.14-14.8-5.23-13.37-12.66-1.84 3.06-2.03 6.91-4.43 9.72-10.09 13.35-30.54 17.87-45.08 9.29-2.59-1.63-5.89-3.53-5.9-6.99.19-2.5-2.81-1.88-4.33-2.77-3.59-5.78-5.58-13.21-2.9-19.76m2.56.19c3.09-.39 5.18-2.97 5.89-5.84-2.93.64-5.33 2.82-5.89 5.84m7.23 2.12c.89 1.61 2.03 3.18 3.86 3.78 4.76 1.86 10.53 2.93 15.19.23-3.14-4.15-8.69-4.98-13.53-5.39-1.97-.28-3.76.68-5.52 1.38m32.5 3.17c2.67.02 5.32.35 7.98.67-1.24-1.04-2.6-1.9-4-2.68l4.17.28c-2.39-3.3-6.57-1.11-8.15 1.73m-42.13-1.92c-.58 6.04 4.58 10.7 9.27 13.6 9.63 5.22 21.79 6.85 31.99 2.31 3.29-1.67 7.28-3.4 8.45-7.23-1.79 1.12-3.4 2.5-4.96 3.93-.81-1.92-2.09-4.15-4.54-3.8-4.02.24-4.39 5.18-6.21 7.88-9.61 1.13-20.15-.72-27.75-7.01-3.18-2.43-4.32-6.37-6.25-9.68z"/><path d="M16.42 42.32c1.93-1.07 4.24-.53 6.34-.75 0 .82.01 2.46.01 3.28 3.33 4.86 9.05 6.84 14.11 9.31 4.36 2.41 9.82 3.03 14.48 1.13 1.7-.52 3.49-2.02 5.32-1.19 2.94 2.09 5.64 5.17 5.98 8.9-.08 2.53-1.82 4.47-3.12 6.47-.3 1.37.3 3.14-1.03 4.09-2.83 2.53-8.42.46-8.24-3.58.28-2.99 2.7-5.06 3.82-7.7-1.06-.92-2.21-1.74-3.36-2.54.43 1.15.88 2.3 1.35 3.43-1.87 2.66-4.25 6.03-2.62 9.36 1.16 2.59 4.02 3.4 6.6 3.72.04 3.63 1.29 7.02 2.25 10.48-4.37 2.19-9.74 2.24-14.2.28-.32-3.48-.56-6.98-.91-10.46-2.12-.56-4.22-1.17-6.36-1.61 1.29 1.64 3.24 2.31 5.13 2.98.14 2.66.52 5.32.28 7.98-2.57 1.99-6.15 1.58-9.19 1.35-1.51-.11-3.94-1.21-3.04-3.1 2.71-6.42-3.01-13-.19-19.36.91-2.81 2.81-5.16 3.75-7.95-1.45.98-2.49 2.42-3.62 3.72-5.11-2.4-10.78-4.57-14.18-9.35-2.02-2.62-1.84-6.63.64-8.89z"/></g><g fill="#010101"><path d="M11.26 10.28c2.14-2.2 4.49-4.72 7.73-5.02 2.69.17 4.37 2.51 6.14 4.23 10.25-3.95 21.7-2.65 31.96.53 6.87 2.07 13.24 5.72 18.27 10.86 3.39-1.26 7.45-5.3 10.93-2.22 3.36 3.89 4.65 9.13 7.94 13.11 1.64 2.62 4.83 5.42 3.46 8.81-1.96 4.21-7.48 4.46-11.27 2.86-3.5-1.17-6-4.06-7.9-7.09-4 8.34-12.09 14.02-20.71 16.82 2.68 2.42 5.59 5.17 6.14 8.93.66 3.68-2.81 6.22-3.09 9.73-.18 1.99-2.11 2.98-3.38 4.24-.01 3.42 1.05 6.59 2.28 9.71-.95 2.44-3.44 3.73-5.94 3.95-3.74.36-8.03.36-10.9-2.46-3.41 1.9-7.59 2.13-11.3 1.09-1.7-.55-3.8-2.11-3.2-4.14 1.52-4.01.64-8.37-.5-12.36-.96-3.43.33-6.91 1.57-10.08-6.09-2.74-13.28-5.59-16.06-12.2-1.54-3.95.88-8.28 4.75-9.67-1.97-3.44-3.33-7.17-4.11-11.05-3.27.24-6.97.03-9.4-2.47-2.29-2.07-2.29-5.89-.49-8.27 2.03-2.89 4.68-5.27 7.08-7.84m.96.94c-2.48 2.84-5.68 5.18-7.42 8.59-1.28 2.23-.29 5.26 1.92 6.48 2.1 1.38 4.72 1.17 7.11 1.13-.09-7.19 3.46-14.31 10.14-17.42-1.34-1.08-2.46-2.59-4.14-3.14-3.28-.58-5.53 2.35-7.61 4.36m4.44 8.44c-2.68 6.55-.69 13.98 2.9 19.76 1.52.89 4.52.27 4.33 2.77.01 3.46 3.31 5.36 5.9 6.99 14.54 8.58 34.99 4.06 45.08-9.29 2.4-2.81 2.59-6.66 4.43-9.72-1.43 7.43 6.32 13.8 13.37 12.66 2.28-.37 4.85-2.74 3.7-5.19-1.6-3.52-4.47-6.27-6.21-9.72-1.81-2.95-2.74-6.57-5.48-8.85-3.54-.76-6.25 2.54-9.57 3.19-3.28-2.56-6.2-5.66-10.03-7.46-9.84-4.93-21.15-7.25-32.12-5.94-6.57.91-13.98 4.04-16.3 10.8m-.24 22.66c-2.48 2.26-2.66 6.27-.64 8.89 3.4 4.78 9.07 6.95 14.18 9.35 1.13-1.3 2.17-2.74 3.62-3.72-.94 2.79-2.84 5.14-3.75 7.95-2.82 6.36 2.9 12.94.19 19.36-.9 1.89 1.53 2.99 3.04 3.1 3.04.23 6.62.64 9.19-1.35.24-2.66-.14-5.32-.28-7.98-1.89-.67-3.84-1.34-5.13-2.98 2.14.44 4.24 1.05 6.36 1.61.35 3.48.59 6.98.91 10.46 4.46 1.96 9.83 1.91 14.2-.28-.96-3.46-2.21-6.85-2.25-10.48-2.58-.32-5.44-1.13-6.6-3.72-1.63-3.33.75-6.7 2.62-9.36-.47-1.13-.92-2.28-1.35-3.43 1.15.8 2.3 1.62 3.36 2.54-1.12 2.64-3.54 4.71-3.82 7.7-.18 4.04 5.41 6.11 8.24 3.58 1.33-.95.73-2.72 1.03-4.09 1.3-2 3.04-3.94 3.12-6.47-.34-3.73-3.04-6.81-5.98-8.9-1.83-.83-3.62.67-5.32 1.19-4.83-.34-9.66-.63-14.48-1.13-5.06-2.47-10.78-4.45-14.11-9.31 0-.82-.01-2.46-.01-3.28-2.1.22-4.41-.32-6.34.75z"/><path d="M19.22 19.85c.56-3.02 2.96-5.2 5.89-5.84-.71 2.87-2.8 5.45-5.89 5.84zm7.23 2.12c1.76-.7 3.55-1.66 5.52-1.38 4.84.41 10.39 1.24 13.53 5.39-4.66 2.7-10.43 1.63-15.19-.23-1.83-.6-2.97-2.17-3.86-3.78zm32.5 3.17c1.58-2.84 5.76-5.03 8.15-1.73l-4.17-.28c1.4.78 2.76 1.64 4 2.68-2.66-.32-5.31-.65-7.98-.67z"/><path d="M16.82 23.22c1.93 3.31 3.07 7.25 6.25 9.68 7.6 6.29 18.14 8.14 27.75 7.01 1.82-2.7 2.19-7.64 6.21-7.88 2.45-.35 3.73 1.88 4.54 3.8 1.56-1.43 3.17-2.81 4.96-3.93-1.17 3.83-5.16 5.56-8.45 7.23-10.2 4.54-22.36 2.91-31.99-2.31-4.69-2.9-9.85-7.56-9.27-13.6m36.15 16.09c2.46-.73 5.27-1.21 7-3.3-.53-1.3-1.25-2.68-2.91-2.39-2.76.24-2.93 3.75-4.09 5.69z"/></g><path d="M52.97 39.31c1.16-1.94 1.33-5.45 4.09-5.69 1.66-.29 2.38 1.09 2.91 2.39-1.73 2.09-4.54 2.57-7 3.3zM36.88 54.16c4.82.5 9.65.79 14.48 1.13-4.66 1.9-10.12 1.28-14.48-1.13z" fill="#d71612"/></svg>