<svg width="100pt" height="100pt" viewBox="0 0 100 100" xmlns="http://www.w3.org/2000/svg"><g fill="#029bdb"><path d="M33.27 27.74c5.76-8.93 11.61-17.81 17.46-26.68C56.31 10 62.25 18.71 67.87 27.64c-.9.12-2.71.38-3.61.5-4.49-6.96-9.18-13.8-13.47-20.88-4.64 7-9.26 14.01-13.82 21.06-1.23-.21-2.46-.4-3.7-.58zm34.77 6.23c1.2-.2 2.41-.38 3.62-.57 2.34 3.48 4.51 7.07 6.79 10.59a243.7 243.7 0 0 0-6.13-3.38c-1.39-2.23-2.83-4.44-4.28-6.64zm-38.79-.36 3.97.42c-1.22 1.87-2.41 3.76-3.6 5.65-2.06 1.07-4.08 2.22-6.09 3.39 1.76-3.24 3.94-6.24 5.72-9.46zM17.46 55.3c1.51-1.29 3.1-2.47 4.83-3.44C16.3 65.72 21.73 83.52 35.02 91c13.33 8.22 32.36 3.91 41.08-9.03 5.98-8.35 7.23-19.59 3.5-29.13 1.73 1.29 4.31 2.22 4.72 4.6 1.54 8.34.34 17.3-4.17 24.57-8.78 15.05-29.72 21.18-45.14 12.94-14.17-6.99-21.68-24.48-17.55-39.65z"/><path d="M34.5 73.92c6.7 4.04 14.84 6.13 22.57 4.06 3.58-.64 6.55-2.86 9.94-3.99-3.89 4.82-9.64 8.66-16.04 8.52-6.49.28-12.93-3.18-16.47-8.59z"/></g><path d="M36.97 28.32c4.56-7.05 9.18-14.06 13.82-21.06 4.29 7.08 8.98 13.92 13.47 20.88-4.8.79-9.48 2.14-14.13 3.53-4.36-1.21-8.7-2.54-13.16-3.35zm-3.75 5.71c2.02.52 4.07.93 6.11 1.39-3.28 1.31-6.56 2.64-9.71 4.26 1.19-1.89 2.38-3.78 3.6-5.65zm27.82 1.46c2.32-.57 4.65-1.09 7-1.52 1.45 2.2 2.89 4.41 4.28 6.64-3.67-1.89-7.45-3.58-11.28-5.12zM22.43 51.46c8.53-5.72 18-9.79 27.74-12.97 10.31 3.49 20.43 7.82 29.36 14.12l.07.23c3.73 9.54 2.48 20.78-3.5 29.13C67.38 94.91 48.35 99.22 35.02 91 21.73 83.52 16.3 65.72 22.29 51.86l.14-.4M34.5 73.92c3.54 5.41 9.98 8.87 16.47 8.59 6.4.14 12.15-3.7 16.04-8.52-3.39 1.13-6.36 3.35-9.94 3.99-7.73 2.07-15.87-.02-22.57-4.06z" fill="#fdfdfd"/><g fill="#4d4d4f"><path d="M27.44 16.47c2.62-1.44 5.24 3.09 2.51 4.59-3.03 2.5-6.24-3.39-2.51-4.59zM14.55 29.55c5.4-3.8 12.57-2.71 18.72-1.81 1.24.18 2.47.37 3.7.58 4.46.81 8.8 2.14 13.16 3.35 4.65-1.39 9.33-2.74 14.13-3.53.9-.12 2.71-.38 3.61-.5 4.97-.74 10.15-1.25 15.02.34 2.32.68 4.54 2.54 4.79 5.07.51 3.97-1.79 7.46-3.61 10.77-.93-.64-1.86-1.27-2.79-1.91 1.39-2.5 3.08-5 3.36-7.92-.36-2.38-3.05-3.17-5.09-3.47-8.01-.85-16.02.86-23.7 3.01 1.72.66 3.46 1.29 5.19 1.96 3.83 1.54 7.61 3.23 11.28 5.12 2.06 1.1 4.1 2.22 6.13 3.38 8.78 5.63 17.56 12.88 20.67 23.26l.88-1.01v7.2l-.58-1.29c-1.2 2.43-2.12 5.18-4.32 6.93-3.27 2.88-7.72 3.68-11.91 4.15.9-1.23 1.06-3.45 2.87-3.71 3.17-.91 6.77-1.89 8.5-5.01 2.61-4.18.63-9.36-1.86-13.09-5.89-8.57-14.95-14.29-24.09-18.88-12.22-5.74-25.2-10.2-38.62-11.95-4.46-.15-9.72-1.17-13.5 1.79-1.66 3.32 1.21 6.62 2.68 9.48-.64.51-1.91 1.54-2.55 2.06-2.86-3.92-6.34-10.24-2.07-14.37z"/><path d="M39.33 35.42c1.88.4 3.76.79 5.63 1.21-.23.2-.69.59-.92.79-11.35 3.74-22.16 9.52-31.01 17.62 1.24 3.3.73 7.85-3.01 9.22-4.46 2.4-10.15-2.58-8.58-7.32.91-4.12 5.67-5.57 9.29-4.15 3.76-3.85 8.22-6.92 12.8-9.72 2.01-1.17 4.03-2.32 6.09-3.39 3.15-1.62 6.43-2.95 9.71-4.26m-33 19.95c-2.52.76-2.96 4.72-.61 5.95 1.81 1.57 5.03-.08 5.07-2.38.49-2.36-2.29-4.69-4.46-3.57zm86.78-12.2c3.09-1.31 5.01 4.02 1.75 5.15-3.18 1.2-5.07-4.13-1.75-5.15zM1.56 66.18c.72.36 2.18 1.09 2.91 1.45.26 2.48-.15 5.26 1.59 7.31 2.33 3.27 6.51 4.58 10.37 4.68.64 1.19 1.27 2.38 1.89 3.58-5.07-.29-10.66-1.29-14.17-5.31-2.9-3.13-3.23-7.68-2.59-11.71z"/></g></svg>