<svg width="128" height="128" viewBox="0 0 128 128" xmlns="http://www.w3.org/2000/svg"><defs><linearGradient x1="50%" y1="0%" x2="50%" y2="58.147%" id="a"><stop stop-color="#28D1CB" offset="0%"/><stop stop-color="#12BE73" offset="100%"/></linearGradient></defs><g fill="none" fill-rule="evenodd"><path fill="#FFF" d="M0 0h128v128H0z"/><path d="M64 14a49.781 49.781 0 0 1 23.386 5.795l3.994-5.403 1.488 8.779C105.654 32.228 114 47.139 114 64c0 27.614-22.386 50-50 50S14 91.614 14 64s22.386-50 50-50z" fill="#FFDC00"/><path d="M91.38 14.392c-5.125 14.029-14.274 24.22-27.447 30.573L84.606 80.3C86.758 83.267 88 86.761 88 90.5c0 10.77-10.297 19.5-23 19.5s-23-8.73-23-19.5S52.297 71 65 71c2.265 0 4.453.277 6.52.795L46.938 29.78a3.48 3.48 0 0 1 1.246-4.761l.009-.005.026-.015a3.492 3.492 0 0 1 2.912-.271c11.027 1.364 24.444-2.081 40.249-10.337z" fill="url(#a)"/></g></svg>