<svg width="128" height="128" viewBox="0 0 128 128" xmlns="http://www.w3.org/2000/svg"><g fill="none" fill-rule="evenodd"><path fill="#FF0605" d="M0 0h128v128H0z"/><path d="M81 19c5.376 0 9.896 3.767 12.39 7.476.072.107.143.213.213.32a4.14 4.14 0 1 1-6.975 4.463C84.806 28.33 83.158 28 81 28c-2.604 0-5.683 1.597-4.978 4.532.47 1.957 1.055 4.141 1.756 6.552C93.39 39.773 106 50.264 106 69.5c0 3.08-.982 7.407-2.945 12.98C96.893 98.014 81.73 109 64 109c-23.196 0-42-18.804-42-42 0-18.885 12.464-34.858 29.614-40.144a4.501 4.501 0 0 1 2.658 8.601l-.035.01C40.778 39.63 31 52.174 31 67c0 18.225 14.775 33 33 33 13.812 0 25.642-8.485 30.561-20.527l.21-.43A21.412 21.412 0 0 0 97 69.5c0-10.22-6.852-19.364-16.688-20.96L83.464 60c.35 1.443.536 2.95.536 4.501 0 10.493-8.507 19-19 19s-19-8.507-19-19c0-1.776.615-4.403 1.846-7.882 3.62-7.969 10.552-13.584 20.798-16.845C68.087 37.885 67.539 35.627 67 33c-1.549-7.552 6.268-14 14-14zM55.379 65.041c0 5.523 4.098 9.459 9.621 9.459 5.523 0 10-4.477 10-10 0-2.726-1.34-8.067-4.022-16.024-6.978 0-15.6 7.379-15.6 16.565z" fill="#FFF" fill-rule="nonzero"/></g></svg>