<svg width="512pt" height="512pt" viewBox="0 0 512 512" xmlns="http://www.w3.org/2000/svg"><path fill="#7cb442" d="M252.44 0h5.03c27.69.27 55.37 4.79 81.53 13.93 50.63 17.36 95.35 51.22 126.11 94.99 30.07 42.24 46.54 93.83 46.89 145.65v2.92c-.3 43.34-11.71 86.57-33.25 124.2-18.66 32.93-44.69 61.65-75.63 83.44-42.2 30.08-93.78 46.6-145.6 46.87h-7.48c-41.33-1.15-82.39-12.21-118.44-32.52-50.02-27.9-90.27-72.93-112.18-125.88C7.33 324.73.92 293.59 0 262.32V250c.77-24.3 4.67-48.53 12.16-71.68C29.71 123.24 66.65 74.7 114.81 42.78 155.32 15.67 203.72.67 252.44 0m74.05 96.76c-17.92 2.61-35.05 9.32-50.91 17.93-10.94 5.84-20.53 13.88-29.26 22.62-14.88 15.01-26.96 32.62-36.66 51.35-18.78 36.78-29.49 77.98-29.21 119.37-.03 2.4-.77 5.57-3.48 6.21-3.52.31-5.74-2.96-7.93-5.18-10.93-12.23-14.94-29.01-15.63-45.03-.94-23.3 3.79-46.39 9.87-68.76.85-3.59 1.49-7.42.46-11.04-.59-2.15-2.38-4.12-4.73-4.16-3.64-.03-6.7 2.38-9.19 4.79-15.15 15.87-28.01 34.56-34.1 55.84-7.44 25.72-5.12 53.32 1.78 78.89 8.04 29.38 26.29 56.22 52.07 72.79 28.05 18.4 62.47 24.84 95.59 23.34 15.13-.75 30.41-2.45 44.76-7.56 17.55-6.06 33.42-16.59 46.28-29.93 14.9-15.39 26-34.11 34.15-53.83 4.72-11.06 6.89-22.99 8.4-34.85 2.61-22.12 2.46-44.5.66-66.67-1.84-20.78-4.87-41.57-10.99-61.57-4.55-15.13-9.88-30.19-17.91-43.86-4.18-6.82-9.09-13.68-16.25-17.62-8.52-4.35-18.5-4.25-27.77-3.07z"/><path fill="#fff" d="M326.49 96.76c9.27-1.18 19.25-1.28 27.77 3.07 7.16 3.94 12.07 10.8 16.25 17.62 8.03 13.67 13.36 28.73 17.91 43.86 6.12 20 9.15 40.79 10.99 61.57 1.8 22.17 1.95 44.55-.66 66.67-1.51 11.86-3.68 23.79-8.4 34.85-8.15 19.72-19.25 38.44-34.15 53.83-12.86 13.34-28.73 23.87-46.28 29.93-14.35 5.11-29.63 6.81-44.76 7.56-33.12 1.5-67.54-4.94-95.59-23.34-25.78-16.57-44.03-43.41-52.07-72.79-6.9-25.57-9.22-53.17-1.78-78.89 6.09-21.28 18.95-39.97 34.1-55.84 2.49-2.41 5.55-4.82 9.19-4.79 2.35.04 4.14 2.01 4.73 4.16 1.03 3.62.39 7.45-.46 11.04-6.08 22.37-10.81 45.46-9.87 68.76.69 16.02 4.7 32.8 15.63 45.03 2.19 2.22 4.41 5.49 7.93 5.18 2.71-.64 3.45-3.81 3.48-6.21-.28-41.39 10.43-82.59 29.21-119.37 9.7-18.73 21.78-36.34 36.66-51.35 8.73-8.74 18.32-16.78 29.26-22.62 15.86-8.61 32.99-15.32 50.91-17.93z"/></svg>