<svg xmlns="http://www.w3.org/2000/svg" xmlns:xlink="http://www.w3.org/1999/xlink" width="30" height="30" viewBox="0 0 30 30" fill="none"><defs><path id="a" d="M0 0h30v30H0z"/></defs><mask id="b" fill="#fff"><use xlink:href="#a"/></mask><g mask="url(#b)"><path style="fill:#02a7e0" d="M0 30h30V0H0v30z"/><g mask="url(#b)" transform="translate(3 3)"><path style="fill:#fff" transform="translate(0 4)" d="M13.35 14.1h-2.39c-.4 0-.8-.3-.8-.7l-1.39-5c.99.3 2.09.4 3.28.4 5.58 0 10.26-3.4 11.96-8.4-.1 0-.1-.2-.1-.3-.1-.1-.2-.1-.3-.1-.3.1-3.89 6.1-11.66 5.9-1.29 0-2.69-.1-3.98-.5l-.6-2.1s-.1-.5-.6-.8c-.39-.2-.59-.2-.69-.1v.1l.3 2.4C2.49 3.2.5.1.3 0 .2 0 .1 0 0 .1v.3c1.1 3.3 3.49 5.9 6.57 7.3l.9 5.7c.1 1.6 1.2 2.6 2.59 2.6h4.28c1.4 0 2.49-1 2.59-2.6l.8-4.7v-.1s-.4 0-1.19.5c-.8.6-1 1.4-1 1.4s-.8 2-1 2.8c-.2.9-1.19.8-1.19.8z"/></g></g></svg>