<svg xmlns="http://www.w3.org/2000/svg" xmlns:xlink="http://www.w3.org/1999/xlink" width="30" height="30" viewBox="0 0 30 30" fill="none"><defs><path id="a" d="M0 0h30v30H0z"/></defs><mask id="b" fill="#fff"><use xlink:href="#a"/></mask><g mask="url(#b)"><path style="fill:#fff" d="M0 30h30V0H0v30z"/><g mask="url(#b)" transform="translate(3.04 3)"><path style="fill:#ffcd00" transform="translate(1.5 2)" d="M10.83.19A.365.365 0 0 0 10.5 0c-.13 0-.26.06-.33.19L7.04 6.02c-.05.1-.15.18-.26.2L.29 7.43c-.28.05-.39.4-.19.61l4.72 4.94a.4.4 0 0 1 .1.33l-1.07 6.61c-.05.28.24.5.49.38l6-2.9c.05-.02.1-.03.16-.03s.11.01.16.03l6 2.9c.25.12.54-.1.49-.38l-1.09-6.73 4.84-5.15c.2-.21.09-.56-.19-.61l-6.49-1.21a.377.377 0 0 1-.26-.2L10.83.19z"/><path style="fill:#f1a308" transform="translate(6.5 10.667)" d="M12.653 4.333c-1.65.7-5.66 1.87-10.59 1.7-.6-.02-1.19-.09-1.52-.15a.502.502 0 0 1-.13-.05c-.25.29.05.51 1.11.72 3.09.63 6.7.91 9.73.72l-.21-1.27c1.03-.74 1.53-1.38 1.59-1.47.06-.11.02-.2.02-.2zM6.61.903c-.1-.09-2.6-.95-6.42-.38-.07.02-.14 0-.19-.04-.01.09.09.17.21.17 2.7.19 4.21 1.29 4.68 1.68.95-.68 1.68-1.19 1.71-1.21.09-.06.09-.16.01-.22M9.79.2c-.98.82-3.75 2.74-4.72 3.48-.12.09-.08.22.05.27.4.15.85.28 1.32.38L10.18.77c.3-.31.13-.69-.24-.77a.46.46 0 0 1-.15.2"/><path style="fill:#fff" transform="translate(6.5 9.333)" d="M6.76 2.12c.08.06.07.16-.01.22C6.68 2.4 2.08 5.7.7 6.87c-.22.18-.16.57.19.63.34.06.93.13 1.52.15 4.93.17 8.94-.99 10.59-1.68 0 0-.05-.16-.31-.14-1.25.12-5.06.09-7.31-.78-.12-.04-.16-.17-.05-.26.94-.72 3.63-2.59 4.57-3.4.19-.16.24-.36.01-.53C9.48.54 7.96.01 6.21 0 3.69-.02 1.22.69.13 1.27c-.26.13-.1.5.16.46 3.85-.6 6.37.29 6.47.39z"/></g></g></svg>