<svg width="100pt" height="100pt" viewBox="0 0 100 100" xmlns="http://www.w3.org/2000/svg"><path fill="#fab319" d="M44.87 15.79c1.64-1.91 4.58-4.63 7.12-2.66 1.42.77 2.71 1.85 3.53 3.26 2.79 5.27 5.1 10.84 8.16 15.95 4.06 2.44 9.05 1.43 13.39 2.92 3.35-.48 6.3.94 9.16 2.48 1.03 2.07.39 4.69.4 6.96-4.79 4.81-9.5 9.72-14.42 14.4.61 2.71.23 5.57 1.43 8.14.01 2.05.1 4.09 1.02 5.97.1 2.81.17 5.64-.07 8.44-1.46 1.91-3.54 4.04-6.17 2.83-6.11-3.29-12.75-5.73-18.42-9.73-4.56 3.4-10.04 5.31-15 8.08-2.29 1.41-5.13.89-7.67.77a9.54 9.54 0 0 1-1.93-1.93c-.22-2.81-.17-5.64-.06-8.45.91-1.88 1.01-3.92 1.03-5.98 1.16-2.57.82-5.43 1.43-8.14-4.94-4.67-9.62-9.6-14.43-14.4-.19-2.11-.18-4.25 0-6.37.75-1.25 2.49-1.34 3.64-2.14 2.81-1.72 6.35-.15 9.22-1.84 3.44.07 7.07-.4 10.08-2.03 3.22-5.28 5.5-11.13 8.56-16.53z"/></svg>