<svg width="100pt" height="100pt" viewBox="0 0 100 100" xmlns="http://www.w3.org/2000/svg"><g fill="#fe7316"><path d="M43.93 5.8c4.67-.8 9.48-.49 14.01.85 16.48 3 30.59 15.79 35.5 31.76 3.18 9.65 2.84 20.28-.77 29.76-1.17 2.79-2.06 5.97-4.4 8.02-3.1 2.17-7.45-1.64-5.87-5.04 2.87-5.61 4.93-11.78 4.93-18.14.37-11.56-4.98-23.1-13.95-30.38-9.15-7.57-21.94-10.55-33.46-7.51-14.8 3.53-26.66 16.7-28.57 31.81-2.24 14.7 5.2 30.24 17.98 37.81 10.75 6.7 24.9 7.49 36.26 1.83 1.84-.91 4.08-2.34 6.07-.94 2.62 1.4 2.68 5.65-.01 7.03-10.4 5.88-23.21 7.58-34.72 4.19C22.5 92.94 10.35 81.58 5.44 67.46c-1.57-5.32-3.29-10.77-3.02-16.38.95-11.91 5.63-23.87 14.47-32.17C24.12 11.6 33.92 7.52 43.93 5.8z"/><path d="M37.49 28.81c10.27-2.27 21.1-1.3 31.11 1.74 2.6.73 5.7 2.39 5.57 5.53-.34 2.91-3.55 4.64-6.25 3.69-7.19-1.75-14.67-3.8-22.1-2.33-1.64.37-3.7.91-4.3 2.69-.39 2.22 2.11 3.02 3.71 3.71 7.96 2.51 16.48 3.72 23.77 8.03 3.59 2.12 6.86 5.73 6.81 10.15.15 4.91-3.44 9.09-7.67 11.14-8.11 3.96-17.45 3.88-26.24 3.14-5.7-.85-11.57-1.8-16.76-4.43-2.84-1.3-3.2-5.61-.59-7.31 1.65-1.25 3.76-.7 5.57-.22 6.44 1.79 13.13 3.15 19.85 2.84 2.94-.34 6.99-.74 7.91-4.17-.74-2.56-3.63-3.25-5.85-3.99-7.86-2.05-16.13-3.48-23.13-7.86-4.43-2.86-6.89-8.87-4.5-13.81 2.4-5 8.05-7.2 13.09-8.54zm48.85 50.58c3.29-1.91 7.59 2.3 5.45 5.53-2.51 3.67-5.84 6.74-9.28 9.53-2.49 2.41-7.04-.12-6.46-3.48-.15-2.2 2.09-3.28 3.39-4.65 2.57-2.04 4.41-4.83 6.9-6.93z"/></g></svg>