<svg xmlns="http://www.w3.org/2000/svg" width="64" height="64" viewBox="0 0 64 64" xml:space="preserve"><path fill="#37D660" d="M32 1C14.951 1 1 14.95 1 32c0 17.049 13.951 31 31 31 17.05 0 31-13.951 31-31C63 14.95 49.206 1 32 1zm14.259 44.794c-.617.931-1.703 1.241-2.634.62-7.285-4.495-16.431-5.424-27.278-2.943-1.088.308-2.016-.467-2.326-1.396-.311-1.085.465-2.016 1.395-2.325 11.779-2.635 22.01-1.55 30.07 3.41 1.083.465 1.24 1.705.773 2.634zm3.721-8.524c-.774 1.085-2.171 1.549-3.255.774-8.37-5.114-21.08-6.665-30.846-3.564-1.238.31-2.635-.311-2.945-1.55-.31-1.24.311-2.636 1.551-2.946C25.8 26.575 39.75 28.278 49.36 34.169c.93.465 1.395 2.016.62 3.101zm4.339-9.456c-.773 1.084-2.635 1.551-4.029.773-9.92-5.888-26.504-6.508-35.959-3.564-1.552.467-3.101-.464-3.564-1.859-.467-1.549.464-3.1 1.858-3.564 11.005-3.254 29.142-2.637 40.61 4.186 1.395.774 1.862 2.633 1.084 4.028z"/><path fill="#37D660" d="M32 1C14.951 1 1 14.95 1 32c0 17.049 13.951 31 31 31 17.05 0 31-13.951 31-31C63 14.95 49.206 1 32 1zm14.259 44.794c-.617.931-1.703 1.241-2.634.62-7.285-4.495-16.431-5.424-27.278-2.943-1.088.308-2.016-.467-2.326-1.396-.311-1.085.465-2.016 1.395-2.325 11.779-2.635 22.01-1.55 30.07 3.41 1.083.465 1.24 1.705.773 2.634zm3.721-8.524c-.774 1.085-2.171 1.549-3.255.774-8.37-5.114-21.08-6.665-30.846-3.564-1.238.31-2.635-.311-2.945-1.55-.31-1.24.311-2.636 1.551-2.946C25.8 26.575 39.75 28.278 49.36 34.169c.93.465 1.395 2.016.62 3.101zm4.339-9.456c-.773 1.084-2.635 1.551-4.029.773-9.92-5.888-26.504-6.508-35.959-3.564-1.552.467-3.101-.464-3.564-1.859-.467-1.549.464-3.1 1.858-3.564 11.005-3.254 29.142-2.637 40.61 4.186 1.395.774 1.862 2.633 1.084 4.028z"/><path fill="#2CC64D" d="M28.46 25.412c-11.869 0-22.145 4.447-27.146 10.931C3.442 51.354 16.423 63 32 63c11.252 0 21.151-6.078 26.583-15.109.174-.857.271-1.73.271-2.619 0-10.969-13.607-19.86-30.394-19.86zm17.799 20.382c-.617.931-1.703 1.241-2.634.62-7.285-4.495-16.431-5.424-27.278-2.943-1.088.308-2.016-.467-2.326-1.396-.311-1.085.465-2.016 1.395-2.325 11.779-2.635 22.01-1.55 30.07 3.41 1.083.465 1.24 1.705.773 2.634zm3.721-8.524c-.774 1.085-2.171 1.549-3.255.774-8.37-5.114-21.08-6.665-30.846-3.564-1.238.31-2.635-.311-2.945-1.55-.31-1.24.311-2.636 1.551-2.946C25.8 26.575 39.75 28.278 49.36 34.169c.93.465 1.395 2.016.62 3.101z"/><path fill="#5AF27A" d="M32 5.602c16.423 0 29.726 12.71 30.906 28.692.056-.758.094-1.523.094-2.294C63 14.95 49.206 1 32 1 14.951 1 1 14.95 1 32c0 .773.038 1.541.095 2.301C2.284 18.314 15.726 5.602 32 5.602z"/><path fill="#1DAA59" d="M41.774 61.402c1.811-4.17 4.086-10.406 4.484-11.007.467-.929.311-2.169-.773-2.634-8.061-4.96-18.291-6.045-30.07-3.41-.93.31-1.705 1.24-1.395 2.325.156.47.814 6.136 1.566 11.579a30.722 30.722 0 0 0 26.188 3.147z"/></svg>