<svg class="icon" viewBox="0 0 1024 1024" xmlns="http://www.w3.org/2000/svg" width="16" height="16"><path d="M274.837 85.333h474.326a85.333 85.333 0 0 1 80.96 58.347l23.21 69.653H170.667l23.21-69.653a85.333 85.333 0 0 1 80.96-58.347z" fill="#FFE7BF"/><path d="m806.997 213.333 74.176-107.349a21.333 21.333 0 0 1 36.587 2.496l11.2 22.123a106.667 106.667 0 0 1 5.781 82.56L888.79 347.989l-81.792-134.656z" fill="#FCD3B0"/><path d="m216.875 213.333-74.198-107.349a21.333 21.333 0 0 0-36.586 2.496l-11.158 22.123a106.667 106.667 0 0 0-5.781 82.56l45.952 134.826 81.77-134.656z" fill="#FFE5AC"/><path d="M298.667 149.333h426.666Q896 149.333 896 320v426.667q0 170.666-170.667 170.666H298.667Q128 917.333 128 746.667V320q0-170.667 170.667-170.667z" fill="#FF5C00"/><path d="m289.877 448-31.53 44.63 58.432 33.322s38.869 18.283 20.416 52.459c-17.536 32.426-102.528 103.317-102.528 103.317l76.288 43.605c52.608-104.81 49.28-90.816 62.57-128.512 13.568-38.485 16.448-67.818-6.57-88.96-29.718-27.349-32.918-29.866-77.078-59.861zm187.734-76.608c10.538-19.84 15.637-32.725 15.637-32.725L431.723 320s-24.811 87.53-69.056 128.363c0 0 42.794 26.709 42.304 25.92a453.035 453.035 0 0 0 32.917-39.851 1200.853 1200.853 0 0 1 28.501-13.056c-11.328 22.144-29.76 55.339-48.149 76.245l25.92 24.534s17.643-18.347 36.95-40.491h22.015v40.832H417.28v32.661h85.845v78.315c-1.088-.043-2.176-.043-3.242-.128-9.472-.512-24.235-2.219-29.995-12.01-7.04-11.99-1.877-34.027-1.536-47.489h-59.093l-2.198 1.174s-21.589 105.024 62.614 102.677C548.5 680 593.707 653.995 615.38 635.946L624 670.72l48.64-21.824-32.853-87.168-39.531 13.29 7.424 29.867a120.021 120.021 0 0 1-34.41 18.795v-68.523h83.711v-32.661H573.27v-40.832h84.054v-32.683H507.989c10.731-14.122 19.2-27.093 21.44-35.37l-25.984-7.616c111.595-43.2 173.824-35.798 173.227 35.008v186.73s6.677 64.214-61.312 59.52l-36.693-8.533-8.619 37.717s158.635 49.003 171.584-82.901c12.97-131.861-3.221-215.893-3.221-215.893s-14.336-121.707-260.8-46.251z" fill="#FFF"/><path d="M330.667 325.333a48.021 48.021 0 0 1 0 96 48 48 0 0 1 0-96z" fill="#FFE500"/></svg>