<svg width="100pt" height="100pt" viewBox="0 0 100 100" xmlns="http://www.w3.org/2000/svg"><path fill="#ffd900" d="M49.69 0h7.35c-.43.36-1.3 1.07-1.73 1.43-9.66 1.43-19.02 5.94-25.35 13.51-8.8 10.32-11.37 24.67-10.01 37.86.32 4.19 1.32 9.02-1.56 12.58-3.94 5.35-13.41 4.27-15.87-1.97-5.85-16.77-.42-36.42 12.17-48.7C23.81 5.35 36.76.48 49.69 0z"/><path fill="#23ac38" d="M55.36 3.32c3.24-1.91 7.22-1.28 10.66-.25 14.7 4.51 26.67 16.73 31.29 31.36 3.64 10.95 3.18 23.17-1.05 33.89-1.71 4.22-3.64 8.48-6.96 11.7 2.99-8.67 4.67-18.17 2.06-27.17-3.61-13.44-14.68-23.59-26.99-29.28-3.89-2.05-8.54-3.11-11.54-6.51-3.6-4.07-2.2-11.17 2.53-13.74z"/><path fill="#2e98d5" d="M43.14 29.9c6.72-2.77 16.14-1.97 20.31 4.68 2.44 3.46 2.36 7.81 3.11 11.8 1.82 4 4.03 7.93 4.22 12.45-1.86-.49-3.6-1.3-5.26-2.26-.78 1.52-1.6 3.02-2.43 4.52 1.5 1.14 2.87 2.43 4.19 3.78-4.07 3.21-9.59 3.5-14.4 1.98-2.95-1.22-5.82.76-8.78.85-3.2.1-7.04-.03-9.3-2.64-.4-2.06 2.28-2.76 3.43-4.01-.85-1.47-1.68-2.96-2.47-4.46-1.7.87-3.46 1.58-5.23 2.25.54-4.48 2.11-8.76 4.52-12.57-.14-6.26 1.88-13.6 8.09-16.37z"/><path fill="#e60012" d="M76.19 69.11c5.9-1.88 12.09 3.89 11.48 9.83-.09 3.56-2.88 6.14-5.27 8.42-11.66 10.82-28.88 14.89-44.24 11.04C22.93 94.93 9.72 83.73 3.94 69.2c5.23 5.23 10.5 10.75 17.54 13.51 13.67 6 29.69 2.44 41.82-5.46 4.39-2.56 8.01-6.48 12.89-8.14z"/></svg>