<svg width="100pt" height="100pt" viewBox="0 0 100 100" xmlns="http://www.w3.org/2000/svg"><path fill="#006fff" d="M21.25 38.33c1.97-14.21 15.72-24.83 29.73-24.89 11.54 1.2 23.2 8.79 26.4 20.36-2.87.12-5.72.44-8.56.87-4.12-8.17-13.59-13.74-22.78-11.65-7.96 1.46-14.26 8-16.21 15.75-2.84-.36-5.71-.48-8.58-.44z"/><path fill="#01c6d7" d="M21.25 38.33c2.87-.04 5.74.08 8.58.44 7.01 1.86 12.35 7.24 17.38 12.18-2.06 2-4.11 4.02-6.21 5.98-5.29-4.63-10.93-11.52-18.86-9.63-8.92 1.5-13.44 13.21-7.87 20.33 3.47 5.28 10.3 5.75 16.02 5.63a77.553 77.553 0 0 1-8.34 8.47c-5.6-.88-10.86-3.8-14.3-8.34-5.75-7.16-6.09-18.07-.82-25.57 3.25-4.97 8.7-8.22 14.42-9.49z"/><path fill="#00a3ff" d="M58.07 46.08c4.75-4.66 11.04-8.38 17.92-7.89C87.23 38.5 97.2 48.66 96.78 60c.43 11.27-9.46 21.67-20.74 21.74-18.03.14-36.06.12-54.09-.01 3-2.61 5.78-5.44 8.34-8.47 9.07-9.24 18.55-18.08 27.78-27.18m4.62 7.61c-6.56 6.53-13.37 12.82-19.83 19.46 9.04.13 18.09 0 27.14.06 3.84.01 7.92.09 11.41-1.76 4.76-2.56 7.52-8.22 6.49-13.55-.75-6.55-7.42-11.59-13.92-10.84-4.64.16-8.06 3.72-11.29 6.63z"/></svg>