<svg width="100pt" height="100pt" viewBox="0 0 100 100" xmlns="http://www.w3.org/2000/svg"><g fill="#e80d08"><path d="M23.89 1.81c16.02-.33 32.06-.06 48.09-.14 6.1.48 12.81 1.37 17.38 5.89 4.75 4.06 6.69 10.4 7.06 16.45.12 16.3-.01 32.6.02 48.9-.19 6.84-2.49 14.1-8.21 18.31-6.79 5.82-16.3 4.17-24.53 4.41-2.11-1.77-4.31-3.44-6.46-5.17 6.57-.12 13.15.09 19.73-.03 4.02.25 7.46-3.54 7.44-7.43.14-5.65-.05-11.3.06-16.95-.08-2.72.15-5.7-1.42-8.08-1.43-2.15-4.45-2.96-6.76-1.77-3.95 1.98-5.56 6.58-9.2 8.95-2.27.81-4.76.4-7.13.49-9.13-.23-18.3.3-27.41-.22-4.59-1.81-5.9-7.85-10.66-9.5-3.27-1.15-6.86 1.41-7.16 4.79-.72 5.73-.11 11.53-.33 17.28.14 3.07-.61 6.54 1.32 9.2 1.3 2.14 3.76 3.35 6.24 3.25 6.54.09 13.09-.05 19.64.01-2.16 1.71-4.33 3.38-6.4 5.19-8.29-.25-17.83 1.41-24.72-4.38-5.73-4.16-8.01-11.39-8-18.22-.01-16.37-.17-32.74.05-49.1.02-6.66 2.57-13.43 8.07-17.46 3.67-3.33 8.72-3.6 13.29-4.67M15.1 19.72c-.01 1.28 0 2.56.05 3.84 4.44-.07 8.88-.04 13.32-.05-.05 2.67-.04 5.35-.01 8.03-4.98.01-9.97-.01-14.95-.01v3.87c4.86-.03 9.71-.03 14.57-.04-2.11 7.24-8.47 11.99-14.79 15.47l2.1 3.18c5.82-3.4 11.8-7.5 14.68-13.83 3.51 6.08 9.13 10.41 15.09 13.9l2.04-3.24c-6.26-3.52-12.44-8.26-14.82-15.34 4.89-.32 9.79-.02 14.68-.15.01-.93.04-2.78.05-3.71-5-.28-10.02.06-15.03-.18.16-2.61.16-5.22.02-7.82 4.46-.24 8.93-.07 13.39-.09 0-1.28-.01-2.56-.03-3.84-10.12.08-20.24.04-30.36.01m35.37-.15-.08 3.82c2.67-.17 6.43.23 6.26 3.81-2.1 1.33-4.24 2.59-6.41 3.82.68 1.03 1.35 2.07 2.02 3.11 1.37-.75 2.74-1.49 4.1-2.25 0 1.05-.01 3.17-.01 4.22-2.09 1.21-4.16 2.46-6.21 3.73.82 1.02 1.65 2.03 2.5 3.03 1.25-.86 2.5-1.7 3.77-2.52 1.01 4.79-2.38 8.45-6.25 10.61.73 1.03 1.46 2.07 2.19 3.11 3.85-2.46 7.99-6.01 7.78-11.02-.09-6 .27-12.01-.1-17.99-.54-4.59-5.73-5.72-9.56-5.48m15.38.02c-.03.64-.11 1.9-.14 2.54-1.15-.02-2.29-.03-3.44-.05-.04 1.24-.06 2.48-.06 3.72.89-.01 2.67-.04 3.56-.05l-.04 3.06c1.32.05 2.64.08 3.96.08-.02-.78-.06-2.34-.07-3.12 2.72 0 5.45.01 8.17.01 0 1.04-.01 2.08-.02 3.12 1.27 0 2.54-.01 3.82-.04 0-.77-.01-2.31-.02-3.08 1.25 0 2.5.01 3.75.01-.02-1.3-.04-2.59-.07-3.89-.88.09-2.65.26-3.53.35-.05-.67-.16-2.02-.21-2.69-.91.01-2.75.02-3.67.02-.04.64-.13 1.9-.17 2.53-2.65-.01-5.29-.02-7.94.02-.03-.64-.08-1.91-.11-2.55-.94 0-2.82.01-3.77.01m-3.6 11.85c.06 5.83-.04 11.66.03 17.49-.02 2.91 2.83 5.35 5.65 5.28 3.68.05 7.37.02 11.05.02 2.95.25 6.22-2.07 6.25-5.18.15-5.84-.07-11.69.11-17.54-7.7-.08-15.39.05-23.09-.07z"/><path d="m65.99 35.28 5.84-.03c.06 1.88-.02 3.76.01 5.63-1.94.01-3.88-.01-5.82-.01-.06-1.87-.06-3.73-.03-5.59zm9.6-.02c1.97 0 3.94.01 5.92.01-.01 1.87-.01 3.74 0 5.61-1.99.01-3.97.01-5.94.01 0-1.88.02-3.76.02-5.63zm-9.69 9.5c1.96-.03 3.92-.08 5.89-.15.06 1.95.05 3.9.08 5.85-1.48-.03-2.97.03-4.44-.15-2.32-.79-1.25-3.73-1.53-5.55zm9.68-.06c1.98 0 3.96 0 5.95-.01-.16 1.76.35 3.7-.55 5.33-1.72.67-3.61.3-5.4.41V44.7z"/></g><path d="M15.1 19.72c10.12.03 20.24.07 30.36-.01.02 1.28.03 2.56.03 3.84-4.46.02-8.93-.15-13.39.09.14 2.6.14 5.21-.02 7.82 5.01.24 10.03-.1 15.03.18-.01.93-.04 2.78-.05 3.71-4.89.13-9.79-.17-14.68.15 2.38 7.08 8.56 11.82 14.82 15.34l-2.04 3.24c-5.96-3.49-11.58-7.82-15.09-13.9-2.88 6.33-8.86 10.43-14.68 13.83l-2.1-3.18c6.32-3.48 12.68-8.23 14.79-15.47-4.86.01-9.71.01-14.57.04v-3.87c4.98 0 9.97.02 14.95.01-.03-2.68-.04-5.36.01-8.03-4.44.01-8.88-.02-13.32.05-.05-1.28-.06-2.56-.05-3.84zm35.37-.15c3.83-.24 9.02.89 9.56 5.48.37 5.98.01 11.99.1 17.99.21 5.01-3.93 8.56-7.78 11.02-.73-1.04-1.46-2.08-2.19-3.11 3.87-2.16 7.26-5.82 6.25-10.61-1.27.82-2.52 1.66-3.77 2.52-.85-1-1.68-2.01-2.5-3.03 2.05-1.27 4.12-2.52 6.21-3.73 0-1.05.01-3.17.01-4.22-1.36.76-2.73 1.5-4.1 2.25-.67-1.04-1.34-2.08-2.02-3.11 2.17-1.23 4.31-2.49 6.41-3.82.17-3.58-3.59-3.98-6.26-3.81l.08-3.82zm15.38.02c.95 0 2.83-.01 3.77-.01.03.64.08 1.91.11 2.55 2.65-.04 5.29-.03 7.94-.02.04-.63.13-1.89.17-2.53.92 0 2.76-.01 3.67-.02.05.67.16 2.02.21 2.69.88-.09 2.65-.26 3.53-.35.03 1.3.05 2.59.07 3.89-1.25 0-2.5-.01-3.75-.01.01.77.02 2.31.02 3.08-1.28.03-2.55.04-3.82.04.01-1.04.02-2.08.02-3.12-2.72 0-5.45-.01-8.17-.01.01.78.05 2.34.07 3.12-1.32 0-2.64-.03-3.96-.08l.04-3.06c-.89.01-2.67.04-3.56.05 0-1.24.02-2.48.06-3.72 1.15.02 2.29.03 3.44.05.03-.64.11-1.9.14-2.54zm-3.6 11.85c7.7.12 15.39-.01 23.09.07-.18 5.85.04 11.7-.11 17.54-.03 3.11-3.3 5.43-6.25 5.18-3.68 0-7.37.03-11.05-.02-2.82.07-5.67-2.37-5.65-5.28-.07-5.83.03-11.66-.03-17.49m3.74 3.84c-.03 1.86-.03 3.72.03 5.59 1.94 0 3.88.02 5.82.01-.03-1.87.05-3.75-.01-5.63l-5.84.03m9.6-.02c0 1.87-.02 3.75-.02 5.63 1.97 0 3.95 0 5.94-.01-.01-1.87-.01-3.74 0-5.61-1.98 0-3.95-.01-5.92-.01m-9.69 9.5c.28 1.82-.79 4.76 1.53 5.55 1.47.18 2.96.12 4.44.15-.03-1.95-.02-3.9-.08-5.85-1.97.07-3.93.12-5.89.15m9.68-.06v5.73c1.79-.11 3.68.26 5.4-.41.9-1.63.39-3.57.55-5.33-1.99.01-3.97.01-5.95.01zM26.52 68.79c5.11-2.35 11.68 1.58 12.11 7.15.78 5.02-3.62 10-8.67 9.92-4.7.16-9.15-4.1-8.92-8.86-.19-3.56 2.28-6.87 5.48-8.21m3.39 16.81c1.52-1.49 2.71-3.36 2.83-5.53.39-4.01.54-8.8-2.81-11.68-4.51 4.32-4.43 12.85-.02 17.21zm36.52-17.1c6.12-2.11 12.89 4.15 11.19 10.43-1.25 7.15-11.84 9.11-15.81 3.25-3.65-4.61-1.05-12.21 4.62-13.68M67 83.65c1.32-.12 2.65-.17 3.98-.14 1.61-4.92 2.07-11.22-1.98-15.11-4.31 3.75-3.58 10.34-2 15.25zm-20.49-6.77c1.34-1.53 3.97-.31 5.8-.68-.49 2.28-3.9 3.29-2.6 5.95.5.31 1.51.92 2.01 1.23.88-.83 1.77-1.64 2.69-2.42-.7 2-3.1 3.91-4.87 1.75-2.07 1.96-4.29.35-5.14-1.85.92.81 1.82 1.65 2.7 2.51 3.86-1.15 1.44-4.84-.59-6.49z" fill="#fefefe"/><g fill="#020003"><path d="M14.73 60.71c.3-3.38 3.89-5.94 7.16-4.79 4.76 1.65 6.07 7.69 10.66 9.5 9.11.52 18.28-.01 27.41.22 2.37-.09 4.86.32 7.13-.49 3.64-2.37 5.25-6.97 9.2-8.95 2.31-1.19 5.33-.38 6.76 1.77 1.57 2.38 1.34 5.36 1.42 8.08-.11 5.65.08 11.3-.06 16.95.02 3.89-3.42 7.68-7.44 7.43-6.58.12-13.16-.09-19.73.03 2.15 1.73 4.35 3.4 6.46 5.17-9.5.05-19 .04-28.5.01 2.07-1.81 4.24-3.48 6.4-5.19-6.55-.06-13.1.08-19.64-.01-2.48.1-4.94-1.11-6.24-3.25-1.93-2.66-1.18-6.13-1.32-9.2.22-5.75-.39-11.55.33-17.28m11.79 8.08c-3.2 1.34-5.67 4.65-5.48 8.21-.23 4.76 4.22 9.02 8.92 8.86 5.05.08 9.45-4.9 8.67-9.92-.43-5.57-7-9.5-12.11-7.15m39.91-.29c-5.67 1.47-8.27 9.07-4.62 13.68 3.97 5.86 14.56 3.9 15.81-3.25 1.7-6.28-5.07-12.54-11.19-10.43m-19.92 8.38c2.03 1.65 4.45 5.34.59 6.49-.88-.86-1.78-1.7-2.7-2.51.85 2.2 3.07 3.81 5.14 1.85 1.77 2.16 4.17.25 4.87-1.75-.92.78-1.81 1.59-2.69 2.42-.5-.31-1.51-.92-2.01-1.23-1.3-2.66 2.11-3.67 2.6-5.95-1.83.37-4.46-.85-5.8.68z"/><path d="M29.91 85.6c-4.41-4.36-4.49-12.89.02-17.21 3.35 2.88 3.2 7.67 2.81 11.68-.12 2.17-1.31 4.04-2.83 5.53zM67 83.65c-1.58-4.91-2.31-11.5 2-15.25 4.05 3.89 3.59 10.19 1.98 15.11-1.33-.03-2.66.02-3.98.14z"/></g></svg>