<svg width="100pt" height="100pt" viewBox="0 0 100 100" xmlns="http://www.w3.org/2000/svg"><g fill="#fff"><path d="M5.41 7.4c3.35-3.92 8.48-6.1 13.61-6.05 20.68 0 41.36.01 62.04-.01C85.7 1.31 90.41 3 93.72 6.32c3.31 2.83 4.26 7.23 6.28 10.9v.48c-1.01.35-2.01.75-3 1.17-23.98 1.46-47.99 2.48-71.97 3.89-8.35.19-16.67 1.14-25.03 1.08v-.5c1.03-1.97.55-4.26.7-6.38 1.28-3.31 2.19-6.93 4.71-9.56zm52.8 20.7c1.92.87 3.78 2.07 5.9 2.35 7.71.1 15.38-.83 23.07-1.13-.08 2.13.22 4.33-.32 6.43-2.28 2.69-5.53 4.26-8.17 6.56 3.51.64 7.05 1.08 10.59 1.53 0 1.96-.01 3.91-.02 5.87-6.47-.79-12.85-2.16-19.22-3.47-6.16 2.12-12.4 4.05-18.79 5.39.05-1.96.09-3.92.12-5.88 3.54-.73 7.08-1.51 10.55-2.52-3.23-2.01-6.61-3.8-9.61-6.17 2.11-2.89 4.06-5.89 5.9-8.96m2.95 7.78c2.78 1.78 5.76 3.29 8.97 4.13 3.28-.99 6.41-2.67 8.99-4.94-5.97.58-11.96.8-17.96.81zm-28.94-4.96c2.03-.13 4.06-.27 6.09-.41-.18 7.91-.17 15.91-1.94 23.67 4.13-.34 8.27-.57 12.4-.88 0 1.81 0 3.62-.01 5.43-4.99.33-9.98.6-14.97.75-3.15 4.98-7.71 8.77-11.97 12.73-3.16.2-6.31.31-9.47.43 4.64-4.26 9.64-8.15 13.88-12.83-5.12.53-10.27.74-15.42.89 0-1.81-.01-3.62-.01-5.43 6.35-.01 12.67-.67 19.01-.87 2.73-7.5 2.27-15.63 2.41-23.48z"/><path d="M14.33 33.19c4.48.37 8.97.73 13.44 1.26l.03 5.9c-4.5-.34-8.99-.74-13.47-1.21v-5.95zm.02 9.91c4.48.45 8.94 1.03 13.43 1.39 0 2 0 4.01-.01 6.01-4.43-.8-9.01-.54-13.41-1.46-.12-1.98-.04-3.96-.01-5.94zm53.02 6.31c2.01-.13 4.01-.27 6.02-.42 0 .76.02 2.26.03 3.01 5.29-.13 10.58-.36 15.86-.8 0 1.81-.01 3.62-.02 5.43-5.29.27-10.57.75-15.87.78.04 3.99.04 7.98.07 11.97-2.11.12-4.22.24-6.34.35.07-4.01.07-8.01.07-12.01-5.29.51-10.59.64-15.89.83-.01-1.79-.02-3.59-.01-5.38 4.87-.35 9.76-.27 14.62-.68 1.75.21 1.1-2.06 1.46-3.08z"/><path d="M76.04 59.82c2.43-.08 4.88-.5 7.29-.22 2.22 2.9 3.99 6.1 6.12 9.07-2.46.1-4.91.22-7.37.39-2.01-3.08-3.99-6.19-6.04-9.24zm-18.78 1.06c2.49-.16 4.98-.3 7.46-.46-2.08 3.19-4.06 6.45-5.96 9.75-2.48.15-4.96.28-7.44.46 2.03-3.22 4.03-6.46 5.94-9.75zm-21.85 1.01c2.48-.08 4.96-.18 7.44-.27 1.98 3.08 3.99 6.13 5.99 9.2-2.49.09-4.98.2-7.46.3-1.87-3.16-3.91-6.2-5.97-9.23zM54.99 79.2c15.01-.53 29.99-2.02 45.01-2v1.39c-.14-.01-.43-.04-.57-.05.03 2.15 0 4.3-.06 6.45-2.28 7.35-8.3 14.02-16.35 14.54-21.35.07-42.7-.02-64.05.04-5.61.26-11.07-2.79-14.46-7.15-2.48-3.1-2.77-7.23-4.51-10.69v-.4c3.33.5 6.71.58 10.06.26 14.98-.73 29.95-1.63 44.93-2.39z"/></g><g fill="#ff373c"><path d="M97 18.87c.99-.42 1.99-.82 3-1.17v59.5c-15.02-.02-30 1.47-45.01 2-14.98.76-29.95 1.66-44.93 2.39-3.35.32-6.73.24-10.06-.26V23.84c8.36.06 16.68-.89 25.03-1.08 23.98-1.41 47.99-2.43 71.97-3.89M58.21 28.1c-1.84 3.07-3.79 6.07-5.9 8.96 3 2.37 6.38 4.16 9.61 6.17-3.47 1.01-7.01 1.79-10.55 2.52-.03 1.96-.07 3.92-.12 5.88 6.39-1.34 12.63-3.27 18.79-5.39 6.37 1.31 12.75 2.68 19.22 3.47.01-1.96.02-3.91.02-5.87-3.54-.45-7.08-.89-10.59-1.53 2.64-2.3 5.89-3.87 8.17-6.56.54-2.1.24-4.3.32-6.43-7.69.3-15.36 1.23-23.07 1.13-2.12-.28-3.98-1.48-5.9-2.35m-25.99 2.82c-.14 7.85.32 15.98-2.41 23.48-6.34.2-12.66.86-19.01.87 0 1.81.01 3.62.01 5.43 5.15-.15 10.3-.36 15.42-.89-4.24 4.68-9.24 8.57-13.88 12.83 3.16-.12 6.31-.23 9.47-.43 4.26-3.96 8.82-7.75 11.97-12.73 4.99-.15 9.98-.42 14.97-.75.01-1.81.01-3.62.01-5.43-4.13.31-8.27.54-12.4.88 1.77-7.76 1.76-15.76 1.94-23.67-2.03.14-4.06.28-6.09.41m-17.89 2.27v5.95c4.48.47 8.97.87 13.47 1.21l-.03-5.9c-4.47-.53-8.96-.89-13.44-1.26m.02 9.91c-.03 1.98-.11 3.96.01 5.94 4.4.92 8.98.66 13.41 1.46.01-2 .01-4.01.01-6.01-4.49-.36-8.95-.94-13.43-1.39m53.02 6.31c-.36 1.02.29 3.29-1.46 3.08-4.86.41-9.75.33-14.62.68-.01 1.79 0 3.59.01 5.38 5.3-.19 10.6-.32 15.89-.83 0 4 0 8-.07 12.01 2.12-.11 4.23-.23 6.34-.35-.03-3.99-.03-7.98-.07-11.97 5.3-.03 10.58-.51 15.87-.78.01-1.81.02-3.62.02-5.43-5.28.44-10.57.67-15.86.8-.01-.75-.03-2.25-.03-3.01-2.01.15-4.01.29-6.02.42m8.67 10.41c2.05 3.05 4.03 6.16 6.04 9.24 2.46-.17 4.91-.29 7.37-.39-2.13-2.97-3.9-6.17-6.12-9.07-2.41-.28-4.86.14-7.29.22m-18.78 1.06c-1.91 3.29-3.91 6.53-5.94 9.75 2.48-.18 4.96-.31 7.44-.46 1.9-3.3 3.88-6.56 5.96-9.75-2.48.16-4.97.3-7.46.46m-21.85 1.01c2.06 3.03 4.1 6.07 5.97 9.23 2.48-.1 4.97-.21 7.46-.3-2-3.07-4.01-6.12-5.99-9.2-2.48.09-4.96.19-7.44.27z"/><path d="M61.16 35.88c6-.01 11.99-.23 17.96-.81-2.58 2.27-5.71 3.95-8.99 4.94-3.21-.84-6.19-2.35-8.97-4.13z"/></g></svg>