<svg width="200pt" height="200pt" viewBox="0 0 200 200" xmlns="http://www.w3.org/2000/svg"><path fill="#e31d17" d="M0 0h200v200H0V0m124.37 33.07c-16.6 1.52-32.5 6.99-47.78 13.42-11.97 5.21-24.28 11.29-32.34 21.97-4.65-2.56-9.02-5.88-14.18-7.36-3-1.02-6.27 1.12-7.22 4-2 5.2-2.96 10.73-4.95 15.94-2.63 7.97-8.62 14.54-10.08 22.95-1.51 5.38 4.45 11.06 9.75 9.36 7.65-2.17 15.56-5.77 20.21-12.51 4.25-6.93 2.79-15.51 1.46-23.07 1.16.85 2.73 1.42 2.87 3.08 1.69 6.97 6.51 12.55 11.66 17.29 15.95 14.47 36.44 23.5 57.55 27.15.04 1.32.09 2.63.13 3.95l-.55-.07c-3.5 6.09-7.1 12.12-10.73 18.12-1.41 3.02-5.44 2.8-8.08 1.75-3.02-1.13-3.33-4.62-4.34-7.24-.42 2.62-.96 5.5.51 7.91 1.38 2.98 4.67 4.07 7.5 5.15-3.66 6.13-7.45 12.19-10.91 18.44 1.47-.24 3.3.34 4.36-1 5.69-5.46 10.25-12.29 17.24-16.23.51 5.7-.08 11.41-.24 17.11 1.03.03 3.1.08 4.14.1 2.23-6.73 3.38-14.71 9.51-19.18 1.55 1.08 3.38 2.04 4.12 3.91 2.23 4.74 3.07 9.98 3.87 15.12 1.57.04 3.13.09 4.7.13.12-15.02-.06-30.04.09-45.05.36-1.26.71-2.51 1.07-3.76 19.9-4.78 36.76-18.55 47.21-35.93 1.26-2.54 2.48-5.1 3.88-7.56 3.84-10.12 8.41-20.8 6.25-31.86-1.92-7.43-9.31-11.55-16.11-13.73-16.4-4.72-33.77-4.08-50.57-2.3z"/><path d="M124.37 33.07c16.8-1.78 34.17-2.42 50.57 2.3 6.8 2.18 14.19 6.3 16.11 13.73 2.16 11.06-2.41 21.74-6.25 31.86-3.16 3.61-7.85 5.22-12.31 6.57-13.89 3.96-28.91 3.05-42.53-1.54-7.38-2.51-13.78-7.26-19.15-12.83-1.4-1.11-2.58-3.08-4.57-2.96-1.43.85-1.52 2.83-.43 4.01 2.93 4.08 7 7.19 11.14 9.97 12.6 8.71 28.5 11.23 43.53 10 7.03-.81 14.27-1.97 20.44-5.66-10.45 17.38-27.31 31.15-47.21 35.93-7.3 1.89-14.96 1.62-22.39.84-21.11-3.65-41.6-12.68-57.55-27.15-5.15-4.74-9.97-10.32-11.66-17.29-.14-1.66-1.71-2.23-2.87-3.08 1.33 7.56 2.79 16.14-1.46 23.07-4.65 6.74-12.56 10.34-20.21 12.51-5.3 1.7-11.26-3.98-9.75-9.36 1.46-8.41 7.45-14.98 10.08-22.95 1.99-5.21 2.95-10.74 4.95-15.94.95-2.88 4.22-5.02 7.22-4 5.16 1.48 9.53 4.8 14.18 7.36 8.06-10.68 20.37-16.76 32.34-21.97 15.28-6.43 31.18-11.9 47.78-13.42m38.18 3.67c-3.6.74-7.55 1.89-9.94 4.86-1.3 1.83.16 4.09 1.97 4.84 5.13 2.37 10.99 1.97 16.49 1.64 3.85-.45 8.39-.72 11.01-4.01 1.03-1.25 1.13-3.69-.55-4.47-5.55-3.65-12.62-3.71-18.98-2.86m-56.12 13.69c-2.76 1.52-3.13 5.75-.45 7.53 2.81 2.61 8.15.96 8.69-2.89.72-4.25-4.96-7.01-8.24-4.64zm5.02 78.81c7.05.98 14.5 2.12 21.19-1.03-.15 15.01.03 30.03-.09 45.05-1.57-.04-3.13-.09-4.7-.13-.8-5.14-1.64-10.38-3.87-15.12-.74-1.87-2.57-2.83-4.12-3.91-6.13 4.47-7.28 12.45-9.51 19.18-1.04-.02-3.11-.07-4.14-.1.16-5.7.75-11.41.24-17.11-6.99 3.94-11.55 10.77-17.24 16.23-1.06 1.34-2.89.76-4.36 1 3.46-6.25 7.25-12.31 10.91-18.44-2.83-1.08-6.12-2.17-7.5-5.15-1.47-2.41-.93-5.29-.51-7.91 1.01 2.62 1.32 6.11 4.34 7.24 2.64 1.05 6.67 1.27 8.08-1.75 3.63-6 7.23-12.03 10.73-18.12l.55.07z" fill="#ededef"/><path d="M162.55 36.74c6.36-.85 13.43-.79 18.98 2.86 1.68.78 1.58 3.22.55 4.47-2.62 3.29-7.16 3.56-11.01 4.01-5.5.33-11.36.73-16.49-1.64-1.81-.75-3.27-3.01-1.97-4.84 2.39-2.97 6.34-4.12 9.94-4.86zm-56.12 13.69c3.28-2.37 8.96.39 8.24 4.64-.54 3.85-5.88 5.5-8.69 2.89-2.68-1.78-2.31-6.01.45-7.53zm-.19 19.77c1.99-.12 3.17 1.85 4.57 2.96 5.37 5.57 11.77 10.32 19.15 12.83 13.62 4.59 28.64 5.5 42.53 1.54 4.46-1.35 9.15-2.96 12.31-6.57-1.4 2.46-2.62 5.02-3.88 7.56-6.17 3.69-13.41 4.85-20.44 5.66-15.03 1.23-30.93-1.29-43.53-10-4.14-2.78-8.21-5.89-11.14-9.97-1.09-1.18-1-3.16.43-4.01z" fill="#161615"/><path fill="#c30a09" d="M111.32 125.29c7.43.78 15.09 1.05 22.39-.84-.36 1.25-.71 2.5-1.07 3.76-6.69 3.15-14.14 2.01-21.19 1.03-.04-1.32-.09-2.63-.13-3.95z"/></svg>