<svg width="128pt" height="128pt" viewBox="0 0 128 128" xmlns="http://www.w3.org/2000/svg"><path d="M55.09 0h13.75c1.56 1.67 3.52 3.47 3.2 5.99-.44 9.6-1.55 19.17-2.12 28.77-.45 2.96-.23 6.5-2.45 8.8-3.24 2.09-7.84 2.06-11.09 0-2.3-2.18-2.12-5.68-2.49-8.6-.56-9.7-1.8-19.35-2.15-29.06-.4-2.59 1.65-4.34 3.35-5.9zM12.42 25.35c2.59-1.33 5.21.42 7.27 1.89 7.91 5.78 15.95 11.4 23.92 17.09 1.87 1.4 4.05 3.09 3.93 5.7-.23 3.13-1.9 6.17-4.29 8.19-2.62 1.95-5.83.23-8.37-.97-9.3-4.8-18.86-9.12-28.08-14.07-2.71-1.25-3.29-4.77-1.81-7.18 2.1-3.73 3.85-8.1 7.43-10.65zm94.94-.12c2.56-1.06 5.35.52 6.61 2.79 2.1 3.47 4.92 6.86 5.42 10.99.36 3.05-2.64 4.5-4.91 5.63-8.73 4.19-17.37 8.56-26.02 12.9-2.53 1.26-5.91 2.54-8.28.27-3.08-2.79-6.23-8.51-2.15-11.82 5.56-4.49 11.63-8.32 17.37-12.58 4.02-2.67 7.64-5.99 11.96-8.18zm-69 41.99c4.83-2.17 8.36 3.13 9.51 7.11 1.27 3.57-2.16 6.13-4.69 7.92-8.45 5.83-16.62 12.08-25.14 17.8-2.66 2.05-6.29.42-7.81-2.22-2.14-3.4-4.85-6.77-5.48-10.83-.32-3.53 3.4-4.91 5.94-6.24 9.3-4.36 18.34-9.28 27.67-13.54zm42.06.11c2.9-1.5 6.02.31 8.65 1.55 8.83 4.6 17.87 8.77 26.68 13.38 2.38 1.05 4 3.84 2.92 6.37-1.55 3.86-3.7 7.53-6.36 10.73-1.79 2.07-4.95 2.07-6.99.38-8.29-5.69-16.31-11.75-24.59-17.44-2.38-1.74-5.66-3.79-5.09-7.22.65-3 2.27-5.93 4.78-7.75zM57.31 81.16c2.98-.96 6.33-.93 9.29.12 2.5 1.13 2.57 4.24 2.96 6.58.89 9.72 1.47 19.48 2.42 29.2.06 2.23.58 4.95-1.3 6.62-2.32 2.16-5.78 1.61-8.68 1.78-3.35-.14-7.61.32-9.82-2.79-.86-2.48-.36-5.15-.26-7.7.81-8.98 1.5-17.97 2.16-26.96.25-2.5.63-5.69 3.23-6.85z" fill="#fcaf3f"/></svg>