<svg width="128" height="128" viewBox="0 0 128 128" xmlns="http://www.w3.org/2000/svg"><defs><linearGradient x1="50%" y1="0%" x2="50%" y2="100%" id="a"><stop stop-color="#FFEFBC" offset="0%"/><stop stop-color="#FFD237" offset="100%"/></linearGradient><linearGradient x1="50%" y1=".304%" x2="50%" y2="100%" id="b"><stop stop-color="#FF2A2F" offset="0%"/><stop stop-color="#CA0000" offset="100%"/></linearGradient></defs><g fill="none" fill-rule="evenodd"><path fill="url(#a)" d="M0 0h128v128H0z"/><path d="M21.963 97.48c27.693 20.959 73.63 2.75 80.03-17.66 6.4-20.412-11.017-14.994-13.373-20.914-2.475-3.562 6.584-9.601-1.815-16.02-8.4-6.417-20.276 4.939-23.372 2.88-3.097-2.059 8.733-13.606-8.637-15.895-17.37-2.29-60.525 46.65-32.833 67.608z" fill="url(#b)"/><path d="M52.243 99.77C70.192 99.77 86 91.28 86 79S74.319 57.195 56.37 57.195C38.42 57.195 21 67.402 21 79c0 11.598 13.293 20.77 31.243 20.77z" fill="#FFF"/><path d="M53.558 65.996c9.665 0 15.386 5.685 15.386 13.97 0 8.284-8.651 15.857-18.316 15.857S34.784 89.284 34.784 81s9.109-15.004 18.774-15.004zM46.5 79c-3.038 0-5.5 2.239-5.5 5s2.462 5 5.5 5 5.5-2.239 5.5-5-2.462-5-5.5-5zm9.5-2a2 2 0 1 0 0 4 2 2 0 0 0 0-4z" fill="#000"/><path d="M89 15c16.569 0 30 13.431 30 30 0 1.24-.162 2.848-.486 4.826a3.786 3.786 0 0 1-3.736 3.175 2.481 2.481 0 0 1-2.428-2.995c.433-2.048.65-3.716.65-5.006 0-13.255-10.745-24-24-24-.56 0-1.246.042-2.057.125A2.67 2.67 0 0 1 84 18.468a3.394 3.394 0 0 1 3.131-3.383A24.78 24.78 0 0 1 89 15zm0 13.929c8.876 0 16.071 7.195 16.071 16.071 0 .172-.005.359-.017.56a3.653 3.653 0 0 1-3.646 3.44 2.469 2.469 0 0 1-2.439-2.856A7.38 7.38 0 0 0 99.071 45c0-5.562-4.509-10.071-10.071-10.071-.077 0-.158.001-.243.005a2.641 2.641 0 0 1-2.755-2.522L86 32.354v-.425a3 3 0 0 1 3-3z" fill="#FFA21D"/></g></svg>