<svg width="80pt" height="80pt" viewBox="0 0 80 80" xmlns="http://www.w3.org/2000/svg"><path fill="#0170ce" d="M30.47 5.76c10.26-2.91 21.8-1.01 30.5 5.19C69 16.47 74.55 25.38 76.06 34.99c2.59 14.55-5.03 30.06-17.87 37.25-9.9 5.69-22.52 6.29-32.9 1.51C14.67 69.06 6.71 58.93 4.61 47.52c-1.18-7.45-.55-15.34 2.76-22.19 4.42-9.44 13.03-16.82 23.1-19.57m8.02 3.92c-.94.5-2.46 1.11-2.31 2.41.14 5.3.85 10.58 1.25 15.87-.24 3.17 5.16 3.58 5.69.55.49-5.18.91-10.37 1.41-15.55.33-3.05-3.71-4.15-6.04-3.28M13.92 30.05c4.96 2.84 10.43 4.68 15.39 7.55 1.35-1.19 4.31-3.3 2.22-5.17-4.64-3.56-9.42-7.07-14.47-10.04-2.95.7-6.17 5.35-3.14 7.66m47.62-6.55c-4.51 3.11-8.98 6.29-13.42 9.51.58 1.73 1.49 3.31 2.8 4.59 4.97-2.46 10.08-4.61 15.05-7.07 4.7-1.93-.6-10.64-4.43-7.03M14.63 50.6c-3.99 1.69-1 7.56 2.37 7.99 2.44-.83 4.34-2.72 6.49-4.1 2.84-2.18 6.15-3.81 8.61-6.46.65-2-1.52-3.26-2.69-4.48-4.82 2.57-9.92 4.57-14.78 7.05m33.8-2.55c3.99 3.6 8.72 6.3 13.03 9.5 3.64 3.66 9.07-4.53 4.86-6.76-5.05-2.61-10.33-4.73-15.42-7.25-1.11 1.33-2.75 2.55-2.47 4.51m-10.17 3.19-.55.52c-.78 5.7-1.3 11.49-1.52 17.24 1.3 3.38 6.88 3.26 8.34.07-.27-5.4-.99-10.78-1.4-16.18-.03-2.3-3.37-3.22-4.87-1.65z"/><path d="M38.49 9.68c2.33-.87 6.37.23 6.04 3.28-.5 5.18-.92 10.37-1.41 15.55-.53 3.03-5.93 2.62-5.69-.55-.4-5.29-1.11-10.57-1.25-15.87-.15-1.3 1.37-1.91 2.31-2.41zM13.92 30.05c-3.03-2.31.19-6.96 3.14-7.66 5.05 2.97 9.83 6.48 14.47 10.04 2.09 1.87-.87 3.98-2.22 5.17-4.96-2.87-10.43-4.71-15.39-7.55zm47.62-6.55c3.83-3.61 9.13 5.1 4.43 7.03-4.97 2.46-10.08 4.61-15.05 7.07-1.31-1.28-2.22-2.86-2.8-4.59 4.44-3.22 8.91-6.4 13.42-9.51zM14.63 50.6c4.86-2.48 9.96-4.48 14.78-7.05 1.17 1.22 3.34 2.48 2.69 4.48-2.46 2.65-5.77 4.28-8.61 6.46-2.15 1.38-4.05 3.27-6.49 4.1-3.37-.43-6.36-6.3-2.37-7.99zm33.8-2.55c-.28-1.96 1.36-3.18 2.47-4.51 5.09 2.52 10.37 4.64 15.42 7.25 4.21 2.23-1.22 10.42-4.86 6.76-4.31-3.2-9.04-5.9-13.03-9.5zm-10.17 3.19c1.5-1.57 4.84-.65 4.87 1.65.41 5.4 1.13 10.78 1.4 16.18-1.46 3.19-7.04 3.31-8.34-.07.22-5.75.74-11.54 1.52-17.24l.55-.52z" fill="#fdc322"/></svg>