<svg class="icon" viewBox="0 0 1029 1024" xmlns="http://www.w3.org/2000/svg" width="200.977" height="200"><defs><style>@font-face{font-family:feedback-iconfont;src:url(//at.alicdn.com/t/font_1031158_u69w8yhxdu.woff2?t=1630033759944) format(&quot;woff2&quot;),url(//at.alicdn.com/t/font_1031158_u69w8yhxdu.woff?t=1630033759944) format(&quot;woff&quot;),url(//at.alicdn.com/t/font_1031158_u69w8yhxdu.ttf?t=1630033759944) format(&quot;truetype&quot;)}</style></defs><path d="M1028.848 511.974c0 282.754-229.21 511.975-511.974 511.975C234.116 1023.949 4.9 794.728 4.9 511.974 4.9 229.211 234.116 0 516.874 0c282.763 0 511.974 229.21 511.974 511.974" fill="#212121"/><path d="M516.874 612.44 416.399 511.973 516.874 411.5l100.475 100.475zm228.33-100.466-.425.415 93.19 93.185 93.604-93.605-94.254-94.254-93.185 93.184z" fill="#F4BB0B"/><path d="m355.382 445.131 161.492-161.492 163.868 163.868 93.179-93.18L516.874 97.27 262.197 351.947zm326.005 130.656L516.874 740.3 353.82 577.236l-93.179 93.19 256.233 256.243L774.571 668.97zm-392.838-63.813 3.44-3.445-93.19-93.19-96.62 96.635 95.064 95.064 93.18-93.18z" fill="#F4BB0B"/></svg>