<svg class="icon" viewBox="0 0 1029 1024" xmlns="http://www.w3.org/2000/svg" width="200.977" height="200"><defs><style>@font-face{font-family:feedback-iconfont;src:url(//at.alicdn.com/t/font_1031158_u69w8yhxdu.woff2?t=1630033759944) format(&quot;woff2&quot;),url(//at.alicdn.com/t/font_1031158_u69w8yhxdu.woff?t=1630033759944) format(&quot;woff&quot;),url(//at.alicdn.com/t/font_1031158_u69w8yhxdu.ttf?t=1630033759944) format(&quot;truetype&quot;)}</style></defs><path d="M1024.727 511.99c0 282.772-229.218 511.99-511.99 511.99C229.97 1023.98.747 794.762.747 511.99.748 229.223 229.97 0 512.738 0c282.772 0 511.99 229.223 511.99 511.99" fill="#F7931A"/><path d="M637.048 661.624a55.843 55.843 0 0 1-27.145 33.417 55.858 55.858 0 0 1-42.828 4.445l-144.182-42.941 32.123-107.84 144.17 42.945h.006c29.726 8.853 46.714 40.243 37.856 69.974m48.63-221a55.93 55.93 0 0 1 4.438 42.833c-8.857 29.72-40.263 46.698-69.974 37.861h-.005l-144.176-42.94 32.112-107.84 144.181 42.94a55.889 55.889 0 0 1 33.423 27.146m64.542-34.918c-16.481-30.458-43.837-52.679-77.019-62.56l-19.077-5.678 26.706-89.67-68.52-20.408-26.705 89.67-58.5-17.423 26.71-89.67-16.414-4.89-66.497-19.803-25.743 86.434-81.038-24.135-22.87 76.798 81.037 24.14-83.255 279.537-81.037-24.136-22.87 76.804 81.032 24.13-21.724 72.953 16.41 4.89 66.497 19.804 22.691-76.19 58.638 17.465-22.691 76.194 68.243 20.326 22.691-76.194 19.21 5.718a130.255 130.255 0 0 0 37.186 5.453c21.248 0 42.295-5.278 61.51-15.677 30.459-16.48 52.674-43.831 62.56-77.024 10.394-34.912 5.264-70.777-11.268-100.299 30.012-15.661 53.927-42.935 64.331-77.863 9.887-33.192 6.251-68.243-10.224-98.696" fill="#FFF"/></svg>