<svg class="icon" viewBox="0 0 1029 1024" xmlns="http://www.w3.org/2000/svg" width="200.977" height="200"><defs><style>@font-face{font-family:feedback-iconfont;src:url(//at.alicdn.com/t/font_1031158_u69w8yhxdu.woff2?t=1630033759944) format(&quot;woff2&quot;),url(//at.alicdn.com/t/font_1031158_u69w8yhxdu.woff?t=1630033759944) format(&quot;woff&quot;),url(//at.alicdn.com/t/font_1031158_u69w8yhxdu.ttf?t=1630033759944) format(&quot;truetype&quot;)}</style></defs><path d="M1024.824 512.013c0 282.765-229.216 511.987-511.987 511.987C230.072 1024 .85 794.778.85 512.013.85 229.243 230.072.026 512.837.026c282.77 0 511.987 229.216 511.987 511.987" fill="#333"/><path d="M830.884 511.557c0 141.693-103.867 259.107-239.61 280.272-.497-61.29-14.93-119.257-40.263-170.922 58.663-1.996 105.607-50.195 105.607-109.35 0-58.776-46.35-106.739-104.496-109.299 24.96-51.741 39.003-109.719 39.167-170.973 135.733 21.176 239.59 138.605 239.59 280.272" fill="#FFF"/><path d="M534.806 230.19c0 96.606-40.283 183.798-104.983 245.682a340.37 340.37 0 0 1-45.797 36.842 338.173 338.173 0 0 1-115.965 49.56 341.07 341.07 0 0 1-73.275 7.921V397.189c92.234 0 167-74.765 167-167h173.02zm-.01 563.646h-171.49c-.747-92.434-75.912-167.138-168.52-167.138 30.555 0 60.312-3.456 88.87-10.004a394.343 394.343 0 0 0 146.173-67.147c64.382 61.592 104.588 148.245 104.967 244.294" fill="#F60"/></svg>