<svg class="icon" viewBox="0 0 1024 1024" xmlns="http://www.w3.org/2000/svg" width="200" height="200"><defs><style>@font-face{font-family:feedback-iconfont;src:url(//at.alicdn.com/t/font_1031158_u69w8yhxdu.woff2?t=1630033759944) format(&quot;woff2&quot;),url(//at.alicdn.com/t/font_1031158_u69w8yhxdu.woff?t=1630033759944) format(&quot;woff&quot;),url(//at.alicdn.com/t/font_1031158_u69w8yhxdu.ttf?t=1630033759944) format(&quot;truetype&quot;)}</style></defs><path d="M1023.918 510.635c0 281.37-228.087 509.452-509.452 509.452-281.371 0-509.453-228.082-509.453-509.452 0-281.366 228.082-509.453 509.453-509.453 281.365 0 509.452 228.087 509.452 509.453" fill="#00176D"/><path d="M1001.559 510.635c0 269.016-218.087 487.093-487.093 487.093-269.017 0-487.093-218.077-487.093-487.088 0-269.017 218.076-487.098 487.088-487.098s487.098 218.081 487.098 487.093" fill="#FFF"/><path d="M974.858 510.635c0 254.268-206.124 460.392-460.392 460.392S54.073 764.903 54.073 510.635 260.198 50.242 514.466 50.242c254.268 0 460.392 206.125 460.392 460.393" fill="#ECA900"/><path d="M830.576 510.635c0 174.59-141.531 316.115-316.11 316.115-174.585 0-316.116-141.526-316.116-316.115 0-174.585 141.531-316.11 316.116-316.11 174.579 0 316.11 141.525 316.11 316.115" fill="#FFF"/><path d="M804.242 510.635c0 160.044-129.737 289.781-289.776 289.781-160.045 0-289.782-129.737-289.782-289.776 0-160.045 129.737-289.777 289.782-289.777 160.04 0 289.776 129.732 289.776 289.777" fill="#00176D"/><path d="m483.547 643.54 1.07-102.603 137.145 1.426c28.07.255 50.741 23.231 50.741 51.251v.56c-.102 13.705-5.604 26.492-15.385 36.07a50.752 50.752 0 0 1-36.426 14.672l-137.145-1.375zm139.947-270.672c13.704.153 26.542 5.604 36.12 15.386a50.915 50.915 0 0 1 14.621 36.426c-.255 28.274-23.536 51.047-51.76 50.741h-.051l-137.145-1.375 1.07-102.604 137.145 1.426zm-16.965-114.932a270.046 270.046 0 0 0-65.006-14.825 279.61 279.61 0 0 0-27.052-1.325 266.846 266.846 0 0 0-107.648 22.416 269.23 269.23 0 0 0-71.425 45.902l-6.164 5.757c-51.557 48.907-83.652 118.09-83.652 194.763 0 74.635 30.363 142.138 79.474 190.841.051.051.153.153.255.204a268.176 268.176 0 0 0 76.367 53.085c24.454 11.361 50.894 19.105 78.71 22.62 11.157 1.426 22.518 2.14 34.083 2.14a276.8 276.8 0 0 0 21.652-.866 266.953 266.953 0 0 0 65.057-13.399c105.915-36.07 182.13-136.431 182.13-254.625 0-116.155-73.617-215.09-176.781-252.688z" fill="#FFF"/><path d="M622.475 475.421h-.051l-137.145-1.375 1.07-102.604 137.145 1.426c13.704.153 26.542 5.604 36.12 15.386a50.915 50.915 0 0 1 14.621 36.426c-.255 28.274-23.536 51.047-51.76 50.741zm50.028 118.754c-.102 13.704-5.604 26.491-15.385 36.069a50.752 50.752 0 0 1-36.426 14.672l-137.145-1.375 1.07-102.604 137.145 1.426c28.07.255 50.741 23.231 50.741 51.251v.56zm68.674-168.833a117.48 117.48 0 0 0-33.776-83.907c-22.11-22.569-51.659-24.963-83.245-25.269l-18.136-.203.509-58.027a270.046 270.046 0 0 0-65.006-14.825l-.663 72.19-55.632-.561.663-71.476c-27.868 2.955-54.41 10.138-79.068 20.938l-.458 46.666-70.967-.764-6.164 5.757-.662 57.058 77.08.816-2.751 265.883-77.08-.815-.765 62.662v.204h.255l76.826.815-.459 52.27c24.454 11.361 50.894 19.105 78.71 22.62l.663-77.182 55.785.56-.713 77.896a266.953 266.953 0 0 0 65.057-13.399l.56-63.834 18.29.203a117.571 117.571 0 0 0 33.929-4.534c18.646-5.35 35.764-5.094 49.977-19.053 22.57-22.06 35.153-51.608 35.458-83.194.357-33.216-13.144-63.376-35.05-85.079 22.365-21.244 36.477-51.149 36.833-84.416z" fill="#001D6D"/><path d="M672.503 593.614v.56c-.102 13.705-5.604 26.492-15.385 36.07a50.752 50.752 0 0 1-36.426 14.672l-137.145-1.375 1.07-102.604 137.145 1.426c28.07.255 50.741 23.231 50.741 51.251m1.732-168.934c-.255 28.274-23.536 51.047-51.76 50.741h-.051l-137.145-1.375 1.07-102.604 137.145 1.426c13.704.153 26.542 5.604 36.12 15.386a50.915 50.915 0 0 1 14.621 36.426" fill="#FFF"/></svg>