<svg class="icon" viewBox="0 0 1024 1024" xmlns="http://www.w3.org/2000/svg" width="200" height="200"><defs><style>@font-face{font-family:feedback-iconfont;src:url(//at.alicdn.com/t/font_1031158_u69w8yhxdu.woff2?t=1630033759944) format(&quot;woff2&quot;),url(//at.alicdn.com/t/font_1031158_u69w8yhxdu.woff?t=1630033759944) format(&quot;woff&quot;),url(//at.alicdn.com/t/font_1031158_u69w8yhxdu.ttf?t=1630033759944) format(&quot;truetype&quot;)}</style></defs><path d="M514.481 902.119c-215.993 0-391.056-175.104-391.056-391.056 0-215.993 175.063-391.097 391.056-391.097 176.882 0 326.34 117.434 374.61 278.645h122.382C960.267 171.354 757.174 1.61 514.48 1.61 233.105 1.61 5.028 229.687 5.028 511.063c0 281.335 228.077 509.406 509.453 509.406 241.975 0 444.6-168.73 496.559-394.983H888.516c-48.938 160.151-197.876 276.633-374.04 276.633" fill="#2FA73F"/><path d="M562.456 545.914V699.02h-97.453V545.19c-38.204-18.355-64.512-57.465-64.512-102.674 0-62.984 50.996-114.036 113.99-114.036 62.938 0 113.99 51.052 113.99 114.036 0 45.78-27.042 85.323-66.01 103.398m326.626-147.303C840.817 237.4 691.363 119.966 514.48 119.966c-215.993 0-391.056 175.104-391.056 391.097 0 215.957 175.058 391.056 391.056 391.056 176.159 0 325.097-116.482 374.03-276.633a390.521 390.521 0 0 0 17.016-114.423 390.47 390.47 0 0 0-16.44-112.452" fill="#FFF"/><path d="M628.471 442.516c0 45.78-27.042 85.323-66.01 103.398V699.02h-97.458V545.19c-38.199-18.355-64.512-57.465-64.512-102.674 0-62.984 50.996-114.036 113.99-114.036 62.938 0 113.99 51.052 113.99 114.036" fill="#2FA73F"/><path d="M1023.934 511.063c0 39.355-4.458 77.655-12.894 114.423H888.516a390.546 390.546 0 0 0 17.016-114.423 390.47 390.47 0 0 0-16.44-112.452h122.38a511.51 511.51 0 0 1 12.462 112.452" fill="#FFF"/></svg>