<svg class="icon" viewBox="0 0 1024 1024" xmlns="http://www.w3.org/2000/svg" width="200" height="200"><defs><style>@font-face{font-family:feedback-iconfont;src:url(//at.alicdn.com/t/font_1031158_u69w8yhxdu.woff2?t=1630033759944) format(&quot;woff2&quot;),url(//at.alicdn.com/t/font_1031158_u69w8yhxdu.woff?t=1630033759944) format(&quot;woff&quot;),url(//at.alicdn.com/t/font_1031158_u69w8yhxdu.ttf?t=1630033759944) format(&quot;truetype&quot;)}</style></defs><path d="M1019.65 510.635c0 281.37-228.083 509.452-509.453 509.452C228.83 1020.087.744 792.005.744 510.635.744 229.269 228.83 1.182 510.197 1.182c281.37 0 509.452 228.087 509.452 509.453" fill="#0986D3"/><path d="m844.189 440.982-72.394 209.615a109.247 109.247 0 0 1-103.225 73.626H225.31l34.134-109.89H668.09l71.98-208.376H324.14l34.134-109.889h382.69c35.234 0 68.47 17.169 88.94 45.877a109.283 109.283 0 0 1 14.286 99.037" fill="#FFF"/><path d="M498.724 455.196v6.939l-31.938 102.95H170.223l34.134-109.889z" fill="#FFF"/></svg>