<svg class="icon" viewBox="0 0 1029 1024" xmlns="http://www.w3.org/2000/svg" width="200.977" height="200"><defs><style>@font-face{font-family:feedback-iconfont;src:url(//at.alicdn.com/t/font_1031158_u69w8yhxdu.woff2?t=1630033759944) format(&quot;woff2&quot;),url(//at.alicdn.com/t/font_1031158_u69w8yhxdu.woff?t=1630033759944) format(&quot;woff&quot;),url(//at.alicdn.com/t/font_1031158_u69w8yhxdu.ttf?t=1630033759944) format(&quot;truetype&quot;)}</style></defs><path d="M1028.096 511.995c0 282.775-229.225 511.995-511.995 511.995S4.106 794.77 4.106 511.995C4.106 229.225 233.331 0 516.101 0s511.995 229.225 511.995 511.995z"/><path d="m319.956 384.938 40.048 123.499L248.113 705.18l71.848-320.238zm352.237 123.499 40.053-123.494 71.843 320.233-111.896-196.74zm-9.257 28.548 133.252 234.29-260.365 157.673 127.113-391.963zM496.384 928.948 236.004 771.28l133.252-234.29 127.118 391.963zm19.717-650.13 131.997 232.086-131.992 407.02L384.1 510.9l132-232.088zm-11.08-25.345-130.18 228.872-44.553-137.388 174.734-240.69v149.201zm22.16-149.205 174.733 240.689-44.559 137.393-130.174-228.882V104.273zm294.78 668.47L725.006 340.59a11.085 11.085 0 0 0-1.843-4.08L525.072 63.64a11.09 11.09 0 0 0-17.941 0L309.04 336.504a11.095 11.095 0 0 0-1.844 4.08L210.235 772.74a11.095 11.095 0 0 0 5.074 11.909l295.047 178.686c.134.071.272.128.41.205a10.056 10.056 0 0 0 1.516.69l.578.206c.359.102.702.179 1.06.256.18.03.358.081.538.107a11.054 11.054 0 0 0 3.281 0c.185-.026.359-.077.538-.113a10.65 10.65 0 0 0 1.06-.256c.205-.061.394-.133.594-.204.312-.118.624-.246.932-.395.194-.092.384-.194.578-.297.128-.071.266-.128.4-.204l295.052-178.681a11.085 11.085 0 0 0 5.069-11.91z" fill="#FFF"/></svg>