<svg class="icon" viewBox="0 0 1055 1024" xmlns="http://www.w3.org/2000/svg" width="206.055" height="200"><defs><style>@font-face{font-family:feedback-iconfont;src:url(//at.alicdn.com/t/font_1031158_u69w8yhxdu.woff2?t=1630033759944) format(&quot;woff2&quot;),url(//at.alicdn.com/t/font_1031158_u69w8yhxdu.woff?t=1630033759944) format(&quot;woff&quot;),url(//at.alicdn.com/t/font_1031158_u69w8yhxdu.ttf?t=1630033759944) format(&quot;truetype&quot;)}</style></defs><path d="M33.427 458.394c0 9.75-.02 19.507 0 29.263.168 68.63.179 137.259.657 205.883.084 12.555-4.306 18.425-17.35 18.147C3.32 711.409 2.08 703.29 2.1 692.763c.174-89.66.368-179.33-.084-268.988-.068-13.264 4.758-16.546 17.297-17.675 19.87-1.785 30.644 5.309 39.634 23.503 23.692 47.936 49.752 94.716 75.187 141.785 1.801 3.334 5.94 5.787 9.541 7.493.772.368 4.474-3.996 5.902-6.68 21.503-40.358 42.848-80.8 64.25-121.21 3.618-6.843 8.312-13.28 10.833-20.495 6.978-19.943 20.4-26.764 40.962-24.18 9.457 1.191 14.24 3.633 14.225 13.689-.126 92.436-.116 184.868-.047 277.294.01 10.576-4.553 14.283-15.296 14.262-11.232-.026-16.12-3.382-16.016-15.112.657-73.035.967-146.075 1.26-219.12.032-6.79-.824-13.574-1.58-25.11-5.519 6.338-8.344 8.596-9.898 11.52-27.168 51.155-54.068 102.445-81.294 153.573-9.231 17.334-20.605 17.706-29.857.468-26.611-49.564-52.514-99.515-78.984-149.152-2.557-4.789-7.152-8.486-10.801-12.692l-3.907 2.458" fill="#00689F"/><path d="M245.091 299.297c-54.168 2.867-97.436-46.444-96.501-98.234.866-47.936 40.894-95.514 97.346-94.306 55.03 1.176 97.405 42.779 96.59 96.905-.855 56.2-46.07 98.586-97.435 95.635" fill="#00659B"/><path d="M543.904 0c51.837.19 92.652 42.081 92.295 94.727-.346 51.186-41.933 91.97-93.665 91.849-50.661-.105-92.983-42.548-92.947-93.204.037-51.49 42.533-93.56 94.317-93.371" fill="#09C"/><path d="M904.29 204.245c.855 53.507-42.475 90.83-91.282 91.76-51.438.976-93.655-42.543-93.414-94.076.22-49.463 41.561-91.176 90.457-91.287 54.983-.13 94.097 38.72 94.238 93.603" fill="#0097FB"/><path d="M961.676 299.78c49.112.23 92.338 42.49 90.463 91.119-1.927 49.768-35.864 90.688-92.285 90.31-50.603-.347-90.914-40.968-89.438-91.402 1.512-51.722 39.786-88.93 91.26-90.027" fill="#00CAFF"/><path d="M961.608 568.505c51.842-.42 89.476 39.167 88.452 89.16-1.02 49.564-36.851 88.447-90.043 88.032-47.82-.373-87.186-37.843-87.406-87.165-.231-52.971 38.641-91.68 88.997-90.027" fill="#FFCB00"/><path d="M790.807 439.065c-25.467-3.885-49.59-9.688-73.87-10.444-13.416-.42-28.812 4.926-40.322 12.33-29.032 18.677-29.158 56.41-.068 76.053 22.737 15.354 47.967 26.964 71.785 40.753 21.214 12.276 40.133 26.643 50.76 50.303 16.436 36.557-3.79 84.97-41.35 98.586-42.002 15.228-83.579 12.172-125.218-.588-10.292-3.15-17.738-27.357-10.586-35.339 1.864-2.079 8.638-2.4 11.342-.677 26.506 16.95 55.728 19.55 85.999 17.548 22.983-1.512 43.115-14.723 48.104-31.746 7.456-25.446 1.102-45.946-21.897-60.228-28.496-17.696-58.925-32.293-87.18-50.325-51.732-32.997-44.36-97.33-8.286-122.167 41.098-28.313 87.144-29.93 133.294-14.53 16.493 5.503 6.563 21.13 7.493 30.471m-458.75-27.877c24.175-9.908 33.364-7.146 40.988 14.062 18.651 51.88 36.441 104.073 54.441 156.193 8.827 25.557 17.26 51.25 26.108 76.8 1.166 3.36 3.76 6.249 8.38 13.679 5.955-16.415 10.633-29.153 15.207-41.94 22.474-62.768 44.948-125.538 67.343-188.333 2.783-7.798 3.97-16.404 8.023-23.404 2.899-5.009 8.864-9.929 14.356-11.3 5.802-1.443 12.665 1.366 19.066 2.321-.935 6.233-.861 12.828-2.961 18.641-18.725 51.806-37.854 103.464-56.83 155.18-13.858 37.765-27.458 75.629-41.651 113.262-3.355 8.895-8.296 16.892-20.63 15.144-11.516-1.633-22.669 1.554-28.46-15.323-25.021-72.887-51.958-145.119-78.292-217.55-8.212-22.568-16.74-45.016-25.088-67.432" fill="#00689F"/><path d="M843.983 776.399c44.464-1.785 76.232 32.97 76.694 73.854.504 44.638-31.652 77.262-75.224 77.33-45.226.084-76.4-32.42-77.65-76.831-.961-34.446 32.665-78.7 76.18-74.353" fill="#FF9700"/><path d="M548.614 947.683c-.016-42.836 30.823-72.383 75.051-71.937 38.72.404 70.625 32.01 70.336 70.504-.33 44.633-31.321 73.302-70.572 74.4-42.427 1.176-76.017-30.172-74.815-72.967" fill="#FD6800"/><path d="M415.766 1015.252c-31.416 3.833-68.151-32.398-68.004-66.692.158-36.23 31.763-68.907 67.936-69.26 37.355-.35 68.141 31.291 67.873 69.024-.267 36.625-30.99 66.949-67.805 66.928" fill="red"/><path d="M187.946 852.411c-1.644-37.617 26.91-58.747 59.004-58.695 35.433.069 57.224 28.392 58.143 59.556.898 30.755-28.817 58.133-60.532 57.398-32.96-.772-56.815-25.32-56.615-58.259" fill="#F02000"/></svg>