<svg class="icon" viewBox="0 0 1024 1024" xmlns="http://www.w3.org/2000/svg" width="200" height="200"><defs><style>@font-face{font-family:feedback-iconfont;src:url(//at.alicdn.com/t/font_1031158_u69w8yhxdu.woff2?t=1630033759944) format(&quot;woff2&quot;),url(//at.alicdn.com/t/font_1031158_u69w8yhxdu.woff?t=1630033759944) format(&quot;woff&quot;),url(//at.alicdn.com/t/font_1031158_u69w8yhxdu.ttf?t=1630033759944) format(&quot;truetype&quot;)}</style></defs><path d="M1020.78 511.292c0 281.37-228.087 509.453-509.452 509.453-281.361 0-509.453-228.082-509.453-509.453 0-281.366 228.092-509.453 509.453-509.453 281.365 0 509.452 228.087 509.452 509.453" fill="#F4F4F4"/><path d="M457.219 544.345c10.856 15.844 21.498 31.372 33.583 49.025-16.354 16.333-32.137 34.296-50.243 49.498-16.878 14.173-35.468 26.757-54.664 37.644-34.439 19.532-72.648 24.132-111.264 20.098-35.81-3.74-67.681-18.657-96.032-41.266-33.191-26.461-55.663-60.126-65.546-100.974-9.446-39.034-8.177-78.425 6.994-116.303 18.687-46.64 50.895-81.262 95.997-103.23 24.52-11.947 50.573-17.55 78.308-17.912 34.276-.438 66.244 6.205 96.403 22.247 29.722 15.804 55.434 36.85 75.527 63.58 31.85 42.382 61.46 86.444 93.342 128.805 17.535 23.313 36.64 45.708 57.11 66.484 20.276 20.582 44.082 37.113 72.713 44.882 46.519 12.625 88.222 2.446 126.161-26.466 15.946-12.15 27.414-27.612 36.9-44.959 1.263-2.308 4.228-5.15 6.475-5.222 15.717-.448 31.454-.234 48.296-.234-7.743 21.565-17.51 40.644-30.735 57.833-19.502 25.325-44.282 44.093-73.371 57.1a186.562 186.562 0 0 1-67.773 16.17c-34.383 1.68-67.502-3.893-98.034-19.344-18.02-9.12-35.076-20.939-50.721-33.803-34.745-28.56-59.341-65.831-84.905-102.328-26.477-37.791-53.197-75.578-82.43-111.219-23.598-28.774-51.98-52.677-90.423-61.068-43.71-9.527-82.71.611-118.218 26.43-23.883 17.357-40.257 40.578-48.18 68.904-17.463 62.459 2.783 128.255 62.577 163.774 51.98 30.883 115.447 25.33 161.741-11.473 13.704-10.892 27.006-22.574 38.82-35.438 11.483-12.502 20.827-26.985 31.592-41.235" fill="#D14071"/><path d="M688.27 545.227v-42.922h178.706c-2.496-26.858-10.092-50.945-25.177-72.006-21.468-29.95-51.2-47.73-87.177-54.664-52.795-10.18-96.755 8.105-136.32 42.111-20.276 17.423-35.789 38.377-51.26 61.033-9.884-14.342-19.584-27.878-28.505-41.913-1.462-2.293-.82-8.05 1.096-10.046 17.494-18.219 34.887-36.61 53.487-53.666 23.038-21.137 49.916-36.268 80.203-44.623 60.32-16.65 116.084-7.224 166.2 30.776 39.018 29.584 64.542 68.598 73.503 116.68 3.892 20.908 2.089 42.896 2.476 64.395.03 1.691-2.97 3.647-4.865 5.074-.78.59-2.364.137-3.582.137-70.967 0-141.939.005-212.905-.015-1.768 0-3.536-.204-5.88-.351" fill="#D14071"/></svg>