<svg class="icon" viewBox="0 0 1024 1024" xmlns="http://www.w3.org/2000/svg" width="200" height="200"><defs><style>@font-face{font-family:feedback-iconfont;src:url(//at.alicdn.com/t/font_1031158_u69w8yhxdu.woff2?t=1630033759944) format(&quot;woff2&quot;),url(//at.alicdn.com/t/font_1031158_u69w8yhxdu.woff?t=1630033759944) format(&quot;woff&quot;),url(//at.alicdn.com/t/font_1031158_u69w8yhxdu.ttf?t=1630033759944) format(&quot;truetype&quot;)}</style></defs><path d="M509.784 3.958C228.414 3.958.33 232.046.33 513.411c0 281.37 228.082 509.453 509.453 509.453 281.366 0 509.453-228.082 509.453-509.453 0-281.365-228.087-509.453-509.453-509.453" fill="#3D3E3C"/><path d="M509.784 46.411c257.503 0 467 209.502 467 467.005 0 257.498-209.497 466.995-467 466.995s-467-209.497-467-466.995c0-257.503 209.497-467 467-467" fill="#FFF"/><path d="M830.83 324.109a371.681 371.681 0 0 0-39.538-54.665L265.817 794.92c17.27 14.999 35.545 28.25 54.664 39.54l510.35-510.35zm-82.76-97.082a370.652 370.652 0 0 0-55.76-38.438L184.958 695.938a370.056 370.056 0 0 0 38.443 55.76l524.67-524.67zm-114.647-65.2a372.359 372.359 0 0 0-76.275-17.927L140.273 560.785a372.471 372.471 0 0 0 17.932 76.265l475.218-475.217zm-160.671-19.165c-82.67 8.207-163.117 43.95-226.442 107.276-63.325 63.324-99.068 143.772-107.28 226.451l333.717-333.722zM878.027 456.76a372.293 372.293 0 0 0-19.553-74.65L378.472 862.096a371.951 371.951 0 0 0 74.65 19.553l424.9-424.894zm3.387 82.241-346.04 346.046c86.658-5.93 171.645-41.913 237.889-108.157s102.226-151.226 108.156-237.884" fill="#B6B7BA"/><path d="m468.477 643.673 21.82-156.84 137.73-99.13v-95.099l-123.022 88.518 25.218-181.3H379.71L347.411 494.51l-95.838 68.96v95.176l84.518-60.829-18.136 165.501h492.503V643.673z" fill="#F8F9F7"/><path d="M330.737 751.86H799v-96.734H455.313l24.316-174.727 136.951-98.564v-66.876l-126.609 91.09 27.098-194.774H389.981l-31.739 289.553-95.217 68.521v66.942l87.26-62.805-19.548 178.375zM821.9 774.77H305.183l16.73-152.626L240.12 681V557.6l96.465-69.408 32.86-299.828h173.953l-23.364 167.83 119.457-85.94v123.313l-138.526 99.7-19.318 138.953H821.91v142.55z" fill="#3D3E3C"/></svg>