<svg class="icon" viewBox="0 0 1024 1024" xmlns="http://www.w3.org/2000/svg" width="200" height="200"><defs><style>@font-face{font-family:feedback-iconfont;src:url(//at.alicdn.com/t/font_1031158_u69w8yhxdu.woff2?t=1630033759944) format(&quot;woff2&quot;),url(//at.alicdn.com/t/font_1031158_u69w8yhxdu.woff?t=1630033759944) format(&quot;woff&quot;),url(//at.alicdn.com/t/font_1031158_u69w8yhxdu.ttf?t=1630033759944) format(&quot;truetype&quot;)}</style></defs><path d="M1022.375 510.166c0 281.366-228.082 509.453-509.453 509.453-281.366 0-509.453-228.087-509.453-509.453C3.47 228.796 231.556.713 512.922.713c281.37 0 509.453 228.082 509.453 509.453" fill="#E1F0FF"/><path d="m381.315 444.783 391.428-227.557v466.2a174.89 174.89 0 0 1-89.674 152.729l-27.5 15.34V392.14L470.047 498.275l-88.732-53.492z" fill="#25558B"/><path d="M619.061 581.49 381.315 444.777l391.433-227.552-37.76-19.41a174.895 174.895 0 0 0-166.938 3.84l-397.343 227.84L615.663 688.47l3.398-106.985z" fill="#5191D9"/><path d="M170.707 429.5v50.511a174.89 174.89 0 0 0 89.2 152.46l396.508 222.864V392.141l-97.922 55.535v206.67L170.707 429.5z" fill="#97BDE8"/></svg>