<svg class="icon" viewBox="0 0 1024 1024" xmlns="http://www.w3.org/2000/svg" width="200" height="200"><defs><style>@font-face{font-family:feedback-iconfont;src:url(//at.alicdn.com/t/font_1031158_u69w8yhxdu.woff2?t=1630033759944) format(&quot;woff2&quot;),url(//at.alicdn.com/t/font_1031158_u69w8yhxdu.woff?t=1630033759944) format(&quot;woff&quot;),url(//at.alicdn.com/t/font_1031158_u69w8yhxdu.ttf?t=1630033759944) format(&quot;truetype&quot;)}</style></defs><path d="M100.194 513.187c0 211.27 158.185 385.605 362.629 410.976v95.879C205.65 994.263 4.875 777.185 4.875 513.187c0-263.998 200.776-481.076 457.948-506.855v95.88c-204.444 25.37-362.629 199.705-362.629 410.975m920.123-59.453h-96.185c-26.9-187.479-179.48-334.405-369.608-352.745V5.314c242.856 18.951 437.926 208.213 465.793 448.42m2.445 91.701c-15.793 252.995-216.314 455.96-468.238 475.625v-95.675c199.247-19.206 357.228-179.633 372.614-379.95h95.624z" fill="#00AEEF"/><path d="M1023.78 513.187c0 10.851-.356 21.6-1.018 32.248h-95.624C911.752 745.752 753.77 906.18 554.524 925.385v95.675c-13.246 1.07-26.644 1.58-40.196 1.58-17.372 0-34.54-.866-51.505-2.598v-95.88c-204.444-25.37-362.629-199.705-362.629-410.975S258.38 127.582 462.823 102.212V6.332a506.768 506.768 0 0 1 51.505-2.598c13.552 0 26.95.51 40.196 1.58v95.675c190.128 18.34 342.709 165.266 369.608 352.745h96.185a509.073 509.073 0 0 1 3.464 59.453" fill="#FFF"/></svg>