<svg class="icon" viewBox="0 0 1024 1024" xmlns="http://www.w3.org/2000/svg" width="200" height="200"><defs><style>@font-face{font-family:feedback-iconfont;src:url(//at.alicdn.com/t/font_1031158_u69w8yhxdu.woff2?t=1630033759944) format(&quot;woff2&quot;),url(//at.alicdn.com/t/font_1031158_u69w8yhxdu.woff?t=1630033759944) format(&quot;woff&quot;),url(//at.alicdn.com/t/font_1031158_u69w8yhxdu.ttf?t=1630033759944) format(&quot;truetype&quot;)}</style></defs><path d="M1023.745 511.929c0 281.37-228.087 509.452-509.452 509.452C232.922 1021.381 4.84 793.3 4.84 511.93 4.84 230.563 232.922 2.476 514.293 2.476c281.365 0 509.452 228.087 509.452 509.453" fill="#F4F4F4"/><path d="M498.5 471.962c0 1.187.015 2.37.05 3.551v-7.097c-.035 1.177-.05 2.36-.05 3.546" fill="#020204"/><path d="M779.661 357.228c-36.466-52.794-97.407-87.391-166.428-87.391h-258.4c0 48.26 39.127 87.391 87.397 87.391h170.107c63.335 0 115.85 51.822 115.63 115.157-.224 63.172-51.51 114.316-114.739 114.316H420.263c-36.13 0-65.419 29.288-65.419 65.414v198.854h9.792c48.26 0 87.386-39.125 87.386-87.386v-89.496h161.211c69.021 0 129.962-34.591 166.428-87.386a201.163 201.163 0 0 0 35.703-114.739 201.193 201.193 0 0 0-35.703-114.734" fill="#020204"/><path d="M498.556 520.559h-191.8c-53.67 0-97.177-43.507-97.177-97.183h204.84c46.468 0 84.137 37.669 84.137 84.13v13.053z" fill="#020204"/></svg>