<svg class="icon" viewBox="0 0 1222 1024" xmlns="http://www.w3.org/2000/svg" width="238.672" height="200"><defs><style>@font-face{font-family:feedback-iconfont;src:url(//at.alicdn.com/t/font_1031158_u69w8yhxdu.woff2?t=1630033759944) format(&quot;woff2&quot;),url(//at.alicdn.com/t/font_1031158_u69w8yhxdu.woff?t=1630033759944) format(&quot;woff&quot;),url(//at.alicdn.com/t/font_1031158_u69w8yhxdu.ttf?t=1630033759944) format(&quot;truetype&quot;)}</style></defs><path d="M389.207 983.665h305.017l246.753-179.28 94.255-290.091-94.255-290.092-246.753-179.28H389.207l-246.759 179.28L48.2 514.294l94.255 290.092 246.758 179.28zm310.451 16.74H383.773l-2.2-1.592L128.21 814.724l-97.625-300.43 97.62-300.431 255.568-185.68h315.89l255.563 185.68 97.62 300.43-97.62 300.431-255.562 185.68z" fill="#2EA6DF"/><path d="M418.706 36.556a36.553 36.553 0 1 1-73.111 0 36.553 36.553 0 0 1 73.11 0m313.953 0a36.558 36.558 0 1 1-73.11-.006 36.558 36.558 0 0 1 73.11.006m-311.36 949.98a36.553 36.553 0 1 1-73.112 0 36.553 36.553 0 0 1 73.112 0M170.134 809.939a36.558 36.558 0 1 1-73.11-.006 36.558 36.558 0 0 1 73.11.006M75.947 514.294a36.558 36.558 0 1 1-73.105-.012 36.558 36.558 0 0 1 73.111 0m94.181-294.315a36.558 36.558 0 1 1-73.11 0 36.558 36.558 0 0 1 73.11 0m837.27 293.662a36.558 36.558 0 1 0 73.111-.006 36.558 36.558 0 0 0-73.111.006M913.21 219.302a36.553 36.553 0 1 0 73.111 0 36.553 36.553 0 0 0-73.11 0M735.243 986.536a36.558 36.558 0 1 1-73.11-.006 36.558 36.558 0 0 1 73.11.006" fill="#2EA6DF"/><path d="m348.238 729.575 2.608.87 204.045 68.49 230.576-69.445 155.93 66.245v-563.78L785.467 298.2 554.89 228.76l-206.653 69.36-2.626-.835-203.658-65.808v564.74l206.284-66.642zm609.898 91.464-173.641-73.765-229.877 69.24-206.483-69.32-222.92 72.038V208.463l222.92 72.037 206.483-69.32 2.546.779 227.331 68.462 173.641-73.765v614.383z" fill="#2EA6DF"/><path d="M39.389 522.666v-16.739l1004.562-.665.017 16.739z" fill="#2EA6DF"/><path d="m564.428 221.138 119.895 269.954 91.64-202.185L693.32 53.874 564.428 221.133zm-207.653 67.12 80.716 203.386L545 221.82 388.104 55.102l-31.33 233.151zM145.16 514.283l200.07 208.899 83.24-208.899-83.245-209.733L145.16 514.282zm301.328 0 108.607 271.74 119.997-274.457-119.922-270.04-108.68 272.756zm-89.69 225.109 33.722 228.922 154.47-162.472-107.505-268.96-80.688 202.516zm207.658 67.03 131.286 163.097 80.244-230.764L684.3 532.3 564.456 806.42zm-185.492 198.331-38.672-262.508-218.288-227.939 218.248-228.809 35.944-267.492 177.922 189.078L698.879 19.22l95.114 270.482-100.576 221.875 100.559 226.427-92.334 265.543-147.41-183.122-175.268 184.327z" fill="#2EA6DF"/><path d="m791.725 743.341-13.488-9.912 161.148-219.14-161.16-220.028 13.511-9.896 168.412 229.946zm-482.683-454.03a36.558 36.558 0 1 0 73.111 0 36.558 36.558 0 0 0-73.111 0m209.154-69.344a36.558 36.558 0 1 0 73.11 0 36.558 36.558 0 0 0-73.11 0" fill="#2EA6DF"/><path d="M810.828 263.46a36.547 36.547 0 0 0-51.694 0 36.547 36.547 0 0 0 0 51.695 36.558 36.558 0 0 0 51.694-51.695M170.134 511.543a36.558 36.558 0 1 0-73.11.011 36.558 36.558 0 0 0 73.11 0m296.884-.011a36.558 36.558 0 1 0-73.11.011 36.558 36.558 0 0 0 73.11 0m248.543-.011a36.553 36.553 0 1 0-73.11 0 36.553 36.553 0 0 0 73.11 0m270.756 2.75a36.558 36.558 0 1 0-73.111-.005 36.558 36.558 0 0 0 73.11 0M821.537 738.38a36.558 36.558 0 1 0-73.11.012 36.558 36.558 0 0 0 73.11-.006m397.193 184.088a51.723 51.723 0 1 0-103.435 0 51.723 51.723 0 0 0 103.44 0m-678.212-147.53a36.553 36.553 0 1 0 28.453 67.348 36.553 36.553 0 0 0-28.453-67.348m-209.154-70.235a36.553 36.553 0 1 0 28.459 67.348 36.553 36.553 0 0 0-28.46-67.348" fill="#2EA6DF"/><path d="M1163.113 929.88 944.262 816.991l7.679-14.88 218.845 112.881z" fill="#2EA6DF"/></svg>