<svg class="icon" viewBox="0 0 1024 1024" xmlns="http://www.w3.org/2000/svg" width="200" height="200"><defs><style>@font-face{font-family:feedback-iconfont;src:url(//at.alicdn.com/t/font_1031158_u69w8yhxdu.woff2?t=1630033759944) format(&quot;woff2&quot;),url(//at.alicdn.com/t/font_1031158_u69w8yhxdu.woff?t=1630033759944) format(&quot;woff&quot;),url(//at.alicdn.com/t/font_1031158_u69w8yhxdu.ttf?t=1630033759944) format(&quot;truetype&quot;)}</style></defs><path d="M1020.27 512.942c0 281.361-228.081 509.453-509.452 509.453-281.36 0-509.453-228.092-509.453-509.453C1.365 231.577 229.458 3.49 510.818 3.49c281.37 0 509.453 228.087 509.453 509.452" fill="#602453"/><path d="m497.195 202.915-.453-.188L253.03 640.586c1.116-.133 1.864-.54 2.618-.953 8.524-4.656 16.97-9.45 25.585-13.938 20.011-10.429 40.43-19.935 61.914-27.007a44.526 44.526 0 0 1 16.68-2.109c12.603.744 24.188 5.039 35.391 10.561 17.057 8.406 31.744 20.007 45.81 32.707 13.409 12.105 29.304 19.986 47.084 23.72 4.707.989 9.496 1.574 14.478 2.39-.32.448-.509.815-.794 1.095-6.893 6.562-13.012 13.72-17.617 22.11-.306.56-1.799.963-2.512.734-8.569-2.767-17.321-5.12-25.57-8.65-11.564-4.958-22.655-10.939-32.1-19.523-10.367-9.425-21.514-17.83-33.614-24.922-8.09-4.738-16.353-9.186-25.538-11.463-4.203-1.04-8.518-2.048-12.834-.576-5.654 1.926-11.314 3.872-16.878 6.058-23.144 9.088-45.01 20.775-66.6 33.007-5.569 3.159-11.035 6.506-16.807 9.914L496.793 819.69v-3.82c0-31.79-.005-63.57.005-95.35 0-1.737-.005-3.48.188-5.196 1.218-10.673 6.246-19.579 13.129-27.516 12.828-14.8 29.125-24.729 46.62-32.967 25.936-12.216 44.587-31.372 55.2-58.154.386-.973.84-1.92 1.441-3.275.688 1.222 1.085 1.976 1.528 2.7 3.938 6.429 7.851 12.879 11.855 19.267 1.187 1.9 3.638 3.602 3.699 5.451.061 1.987-1.982 4.06-3.148 6.073-13.175 22.696-31.643 39.732-54.935 51.71-7.473 3.84-14.911 7.789-22.095 12.135-7.973 4.819-15.304 10.545-21.07 18.009-2.63 3.408-4.672 7.107-4.672 11.6l.01 96.918v3.26c81.706-48.891 162.933-97.508 244.45-146.278-.753-.428-1.11-.647-1.482-.836-32.982-16.445-65.949-32.91-98.946-49.315-7.754-3.856-14.265-9.231-19.802-15.798-16.624-19.706-25.453-43.054-30.44-67.88-2.792-13.887-7.474-26.736-14.596-38.932-8.37-14.33-19.746-25.819-33.14-35.142a101.01 101.01 0 0 0-41.622-16.883c-3.184-.525-6.399-.902-9.66-1.355.174-.413.194-.612.306-.724 6.888-6.801 13.047-14.163 17.699-22.721.275-.5 1.467-.882 2.104-.75 3.301.709 6.602 1.468 9.832 2.446 21.993 6.704 41.149 18.152 57.517 34.317 15.722 15.528 27.389 33.608 33.966 54.715 1.94 6.23 2.251 12.95 3.627 19.375 3.546 16.557 9.2 32.335 18.111 46.828 5.044 8.187 11.391 14.927 20.225 19.309 28.04 13.928 55.964 28.07 83.938 42.126 1.024.51 2.099.928 3.729 1.63-82.338-147.802-164.319-294.988-246.305-442.169l-.556.117v2.996c0 61.832.006 123.665-.015 185.492 0 2.598-.036 5.227-.397 7.794-1.625 11.657-7.657 21.092-15.467 29.482-12.237 13.144-27.118 22.615-43.227 30.298-4.774 2.272-9.695 4.345-14.138 7.157-16.776 10.648-28.982 25.544-37.984 43.008-10.964 21.26-13.307 43.91-9.44 67.325.692 4.223 1.783 8.385 2.705 12.634-.362-.05-.54-.036-.698-.102-9.46-3.592-18.932-7.173-28.362-10.851-.682-.27-1.492-1.29-1.523-1.987-.367-8.997-1.136-18.02-.759-27.001.836-19.879 7.535-38.25 16.771-55.556 12.782-23.944 31.316-42.478 55.296-55.398 8.09-4.36 16.369-8.385 24.28-13.052 8.646-5.1 16.37-11.432 22.203-19.772 2.837-4.06 4.519-8.385 4.514-13.551-.097-61.308-.067-122.615-.067-183.928v-4.687m313.579 462.37c-.163 10.901-4.759 19.379-14.173 25.013-44.583 26.706-89.19 53.365-133.788 80.035-45.046 26.945-90.112 53.85-135.127 80.845-11.04 6.618-21.825 6.613-32.885-.005a305082.658 305082.658 0 0 0-269.164-160.956c-8.671-5.176-13.939-12.329-14.698-22.518-.438-5.808 1.146-11.116 3.969-16.17 14.147-25.284 28.233-50.599 42.335-75.909l219.518-393.898c3.337-5.986 6.582-12.023 10.021-17.948 8.61-14.846 26.41-18.952 39.982-8.855 3.485 2.594 6.424 6.41 8.574 10.24 30.251 53.946 60.32 107.984 90.433 162.001a1430557.497 1430557.497 0 0 0 180.953 324.542c2.374 4.254 3.938 8.671 4.05 13.582" fill="#FFF"/></svg>