<svg class="icon" viewBox="0 0 1024 1024" xmlns="http://www.w3.org/2000/svg" width="200" height="200"><defs><style>@font-face{font-family:feedback-iconfont;src:url(//at.alicdn.com/t/font_1031158_u69w8yhxdu.woff2?t=1630033759944) format(&quot;woff2&quot;),url(//at.alicdn.com/t/font_1031158_u69w8yhxdu.woff?t=1630033759944) format(&quot;woff&quot;),url(//at.alicdn.com/t/font_1031158_u69w8yhxdu.ttf?t=1630033759944) format(&quot;truetype&quot;)}</style></defs><path d="M1020.78 513.605c0 281.37-228.087 509.453-509.452 509.453-281.361 0-509.453-228.082-509.453-509.453 0-281.366 228.092-509.453 509.453-509.453 281.365 0 509.452 228.087 509.452 509.453"/><path d="M971.379 513.605c0 254.08-205.972 460.05-460.051 460.05S51.276 767.686 51.276 513.606 257.248 53.549 511.328 53.549s460.05 205.976 460.05 460.056" fill="#FFF"/><path d="M628.828 330.747c-17.383-9.73-50.757-23.639-94.56-23.639-63.264 0-89.689 36.849-89.689 70.916 0 45.189 29.9 67.447 97.336 96.643 85.522 37.547 126.543 84.131 126.543 157.136 0 88.996-66.05 155.74-185.645 155.74-50.053 0-102.894-14.601-128.616-31.984l18.075-67.441c28.504 17.382 71.614 31.28 115.417 31.28 63.269 0 98.727-32.671 98.727-80.646 0-45.189-27.113-73.005-90.382-99.425-79.271-31.978-132.8-79.953-132.8-152.26 0-84.131 67.437-147.4 173.123-147.4 50.757 0 88.991 12.512 111.937 24.331l-19.466 66.749zm236.92 176.872c0 36.772-29.802 66.58-66.58 66.58-36.777 0-66.585-29.813-66.585-66.585s29.808-66.586 66.585-66.586c36.773 0 66.586 29.813 66.586 66.586m-575.687.005c0 36.772-29.803 66.58-66.58 66.58-36.778 0-66.586-29.813-66.586-66.585s29.808-66.586 66.586-66.586c36.772 0 66.585 29.813 66.585 66.586"/></svg>