<svg class="icon" viewBox="0 0 1024 1024" xmlns="http://www.w3.org/2000/svg" width="200" height="200"><defs><style>@font-face{font-family:feedback-iconfont;src:url(//at.alicdn.com/t/font_1031158_u69w8yhxdu.woff2?t=1630033759944) format(&quot;woff2&quot;),url(//at.alicdn.com/t/font_1031158_u69w8yhxdu.woff?t=1630033759944) format(&quot;woff&quot;),url(//at.alicdn.com/t/font_1031158_u69w8yhxdu.ttf?t=1630033759944) format(&quot;truetype&quot;)}</style></defs><path d="M512.255 1019.262c-280.913 0-509.453-228.54-509.453-509.453 0-105.084 31.729-205.982 91.773-291.779l28.876 20.21c-55.877 79.832-85.41 173.744-85.41 271.57 0 261.481 212.727 474.208 474.209 474.208 261.481 0 474.208-212.727 474.208-474.209 0-261.481-212.727-474.208-474.208-474.208-89.929 0-177.438 25.268-253.066 73.096L240.35 78.904C321.623 27.521 415.642.357 512.255.357c280.912 0 509.452 228.54 509.452 509.452s-228.54 509.453-509.452 509.453" fill="#333"/><path d="M611.776 638.446H510.838c-70.625 0-130.414-54.588-134.072-125.116-3.959-76.184 56.625-139.213 131.948-139.213 72.959 0 132.106 59.117 132.162 132.075v103.154a29.1 29.1 0 0 1-29.1 29.1m-103.062-385.91c-40.858 0-79.444 9.639-113.628 26.787a79.765 79.765 0 0 1-36.808 8.492c-24.699-.32-52.85-4.085-67.9-17.662-30.552-27.597-79.296-76.378-79.296-76.378s-7.591-7.285-11.896-26.165l-.082-14.53a54.34 54.34 0 0 0 .948-10.122c0-30.766-25.671-55.572-56.789-54.15-27.612 1.263-50.334 23.985-51.597 51.607-1.427 31.108 23.384 56.779 54.144 56.779 6.98 0 13.674-1.335 19.808-3.734h.036c11.946-.846 27.311 8.915 38.978 20.301 20.072 19.62 51.302 53.345 63.248 66.336 3.923 4.264 7.26 9.017 9.833 14.214 3.912 7.927 9.359 21.025 13.307 38.728 4.187 18.8 1.696 38.617-7.234 55.684-18.427 35.137-28.83 75.149-28.83 117.56 0 133.325 102.879 242.653 233.563 252.944 6.659.53 13.399.815 20.195.815h227.674c14.342 0 26.084-11.743 26.084-26.124V506.14c-.076-140.058-113.633-253.605-253.758-253.605" fill="#00DFA8"/></svg>