<svg class="icon" viewBox="0 0 1024 1024" xmlns="http://www.w3.org/2000/svg" width="200" height="200"><defs><style>@font-face{font-family:feedback-iconfont;src:url(//at.alicdn.com/t/font_1031158_u69w8yhxdu.woff2?t=1630033759944) format(&quot;woff2&quot;),url(//at.alicdn.com/t/font_1031158_u69w8yhxdu.woff?t=1630033759944) format(&quot;woff&quot;),url(//at.alicdn.com/t/font_1031158_u69w8yhxdu.ttf?t=1630033759944) format(&quot;truetype&quot;)}</style></defs><path d="M1022.028 510.828c0 281.36-228.082 509.453-509.452 509.453-281.36 0-509.453-228.092-509.453-509.453 0-281.37 228.092-509.452 509.453-509.452 281.37 0 509.452 228.082 509.452 509.452" fill="#F4F4F4"/><path d="M493.232 165.21 229.1 739.618c-67.289-30.363-114.128-98.023-114.128-176.652 0-106.985 86.724-193.7 193.704-193.7 4.336 0 8.64.153 12.895.444a199.42 199.42 0 0 1-.382-12.003c0-99.659 75.276-181.732 172.047-192.497m98.67 14.713L326.713 756.665h-18.035a193.134 193.134 0 0 1-65.607-11.397l267.259-581.22a193.062 193.062 0 0 1 81.579 15.875m75.404 58.241-238.43 518.5H351.42l260.545-566.623a194.524 194.524 0 0 1 55.347 48.123m44.2 131.179L533.407 756.665H454.01l228.286-496.462a192.813 192.813 0 0 1 26.288 97.504c0 3.933-.128 7.856-.357 11.743 1.09-.04 2.19-.076 3.28-.107m89.287 19.18L631.503 756.67h-72.14L737.01 370.347a192.16 192.16 0 0 1 63.783 18.177m75.848 65.45L737.998 755.477a192.38 192.38 0 0 1-21.519 1.187h-49.641l161.72-351.711a195.12 195.12 0 0 1 48.083 49.014m33.547 108.998c0 82.867-52.015 153.57-125.182 181.222l113.669-247.156a193.46 193.46 0 0 1 11.513 65.934M493.232 165.21 229.1 739.618m281.233-575.57-267.259 581.22m348.833-565.345L326.712 756.665M611.965 190.04l-260.55 566.63m315.897-518.506-238.424 518.5M682.3 260.204 454.014 756.665m257.498-387.322L533.407 756.665M737.01 370.342 559.364 756.665m241.43-368.141L631.501 756.67M828.56 404.954l-161.721 351.71m209.803-302.69L737.998 755.477m160.677-258.45-113.67 247.16" fill="#0070FF"/></svg>