<svg class="icon" viewBox="0 0 1024 1024" xmlns="http://www.w3.org/2000/svg" width="200" height="200"><defs><style>@font-face{font-family:feedback-iconfont;src:url(//at.alicdn.com/t/font_1031158_u69w8yhxdu.woff2?t=1630033759944) format(&quot;woff2&quot;),url(//at.alicdn.com/t/font_1031158_u69w8yhxdu.woff?t=1630033759944) format(&quot;woff&quot;),url(//at.alicdn.com/t/font_1031158_u69w8yhxdu.ttf?t=1630033759944) format(&quot;truetype&quot;)}</style></defs><path d="M1021.453 513.875c0 281.36-228.087 509.453-509.453 509.453-281.36 0-509.453-228.093-509.453-509.453C2.547 232.504 230.64 4.422 512 4.422c281.366 0 509.453 228.082 509.453 509.453" fill="#174F9B"/><path d="M979.657 513.875c0 258.277-209.375 467.657-467.657 467.657-258.277 0-467.652-209.385-467.652-467.657C44.348 255.592 253.723 46.218 512 46.218c258.282 0 467.657 209.37 467.657 467.657" fill="#FFF"/><path d="M300.832 768.968c.5-3.26.749-6.577 1.533-9.771 4.804-19.62 10.047-39.131 14.525-58.822 5.471-24.051.876-46.987-9.364-68.97-22.212-47.715-44.69-95.308-66.835-143.054-14.362-30.964-27.302-62.469-35.183-95.843-4.835-20.48-2.038-39.702 8.564-57.752 16.802-28.59 39.024-52.34 65.44-72.21 3.275-2.46 7.396-3.8 11.12-5.665l2.008 1.468c-.85 9.608-1.055 19.328-2.675 28.804-7.3 42.682.51 82.582 19.314 121.285a6434.128 6434.128 0 0 1 72.637 154.838c10.342 22.804 18.921 46.524 21.703 71.752 1.34 12.176-.907 23.908-7.158 34.52-21.54 36.543-49.055 67.982-81.955 94.682-3.398 2.751-7.658 4.448-11.514 6.633l-2.16-1.89" fill="#174F9B"/><path d="M508.312 848.728c.652-4.28.988-8.64 2.017-12.833 6.302-25.743 13.185-51.368 19.064-77.208 7.178-31.57 1.146-61.68-12.288-90.54-29.166-62.632-58.669-125.1-87.738-187.784-18.85-40.64-35.835-81.991-46.182-125.804-6.348-26.879-2.68-52.117 11.243-75.807 22.055-37.531 51.22-68.705 85.894-94.784 4.305-3.23 9.71-4.992 14.606-7.438.876.647 1.753 1.284 2.634 1.921-1.126 12.62-1.386 25.381-3.515 37.822-9.588 56.024.662 108.401 25.355 159.204a8425.289 8425.289 0 0 1 95.344 203.246c13.577 29.93 24.841 61.068 28.489 94.183 1.763 15.981-1.192 31.382-9.4 45.31-28.274 47.965-64.384 89.236-107.58 124.291-4.453 3.618-10.047 5.834-15.11 8.702l-2.833-2.481" fill="#47A0F4"/><path d="M820.784 640.209c-.229 13.653-3.84 24.861-10.3 35.239a365.033 365.033 0 0 1-77.173 88.456c-2.43 2.023-4.992 3.989-7.794 5.42-1.987 1.014-4.463 1.08-6.72 1.565-.285-2.497-1.294-5.176-.739-7.469 2.777-11.35 6.2-22.543 8.946-33.899 2.92-12.059 5.96-24.148 7.83-36.395 3.287-21.464-2.027-41.704-11.004-61.023-22.298-47.964-45-95.746-67.196-143.757-14.433-31.199-27.659-62.897-34.939-96.71-4.004-18.605-1.757-36.39 7.627-53.044 16.94-30.032 40.002-54.613 67.457-75.225.58-.438 1.171-.999 1.839-1.182 3.092-.84 6.225-1.564 9.338-2.328.29 3.03 1.136 6.128.78 9.083-3.648 30.496-9.41 61.124-.581 91.477a377.866 377.866 0 0 0 18.747 50.553c24.892 54.802 51.206 108.962 75.537 164.003 8.09 18.305 11.89 38.515 17.495 57.905.794 2.761.687 5.787.85 7.33" fill="#174F9B"/></svg>