<svg class="icon" viewBox="0 0 1024 1024" xmlns="http://www.w3.org/2000/svg" width="200" height="200"><defs><style>@font-face{font-family:feedback-iconfont;src:url(//at.alicdn.com/t/font_1031158_u69w8yhxdu.woff2?t=1630033759944) format(&quot;woff2&quot;),url(//at.alicdn.com/t/font_1031158_u69w8yhxdu.woff?t=1630033759944) format(&quot;woff&quot;),url(//at.alicdn.com/t/font_1031158_u69w8yhxdu.ttf?t=1630033759944) format(&quot;truetype&quot;)}</style></defs><path d="M314.888 595.122c-3.628 2.507-6.088 4.489-8.799 6.042-36.782 21.117-73.697 42.02-110.347 63.387-7.53 4.396-13.806 5.125-21.565.56-14.927-8.778-31.026-10.627-48.077-6.75-34.551 7.855-58.205 46.441-49.218 81.003 9.806 37.684 47.837 59.916 83.53 48.79 30.658-9.562 46.258-31.077 48.336-62.5.632-9.547 4.29-15.283 12.63-20.006 40.909-23.155 81.563-46.747 122.146-70.493 7.733-4.519 14.448-5.17 22.823-1.258 19.003 8.89 39.728 12.858 59.973 8.268 18.254-4.137 33.517-1.442 49.641 6.903 8.707 4.499 11.565 9.323 11.514 18.651-.336 62.984-.51 125.978.05 188.956.103 11.855-3.132 18.967-13.438 25.626-30.598 19.751-38.138 61.267-17.964 91.67 20.44 30.823 61.873 39.448 92.537 19.273 41.668-27.418 40.563-87.37-2.216-113.49-5.655-3.455-10.163-6.465-10.128-14.418.29-64.751.255-129.503.051-194.254-.025-7.082 2.766-10.25 9.4-11.443 11.116-1.997 22.308-3.82 33.18-6.775 9.924-2.7 19.003-2.955 28.87.927 25.504 10.036 50.676 8.156 74.447-5.543 7.744-4.458 13.735-4.055 21.346.448a4459.22 4459.22 0 0 0 97.453 56.045c9.7 5.416 14.056 11.921 14.224 23.455.418 30.114 26.298 57.884 55.887 61.695 30.578 3.933 58.486-11.09 71.436-38.448 12.176-25.748 6.083-56.595-15.187-76.877-20.959-20-51.689-23.883-78.491-9.058-7.54 4.178-13.323 3.877-20.531-.377-30.736-18.136-61.593-36.12-92.777-53.492-8.492-4.733-11.473-9.293-8.813-19.303 7.84-29.431 2.272-56.438-16.155-81.151-12.645-16.955-23.817-35-35.815-52.443-5.145-7.49-3.82-12.523 4.198-17.108a26948.134 26948.134 0 0 0 150.63-86.902c6.445-3.74 11.769-4.152 18.473-.066 16.904 10.316 35.091 11.89 54.053 6.062 30.154-9.262 50.721-41.673 45.891-72.699-5.196-33.42-34.428-59.224-66.493-58.709-36.966.59-65.567 28.815-66.55 66.178-.204 7.794-2.298 13.159-9.476 17.255a22725.683 22725.683 0 0 0-154.262 89.18c-6.165 3.591-10.373 3.337-15.742-1.681-24.52-22.926-53.686-36.268-87.091-39.799-9.323-.983-12.125-5.115-12.074-14.417a14613.2 14613.2 0 0 0-.092-183.643c-.071-10.75 3.464-17.775 12.548-23.608 25.646-16.476 36.171-46.273 27.357-74.93a66.545 66.545 0 0 0-63.58-47.16c-30.587-.123-55.856 18.126-64.781 46.773-9.425 30.25 1.66 59.758 29.176 77.08 5.523 3.48 10.418 6.424 10.393 14.382-.214 67.227.036 134.46-.413 201.692-.025 4.218-3.744 9.924-7.448 12.339-16.206 10.597-32.997 20.307-49.661 30.195-16.41 9.741-35.137 14.066-51.644 5.095-53.727-29.187-106.373-60.386-159.397-90.866-6.572-3.77-9.639-9.038-9.838-17.255-1.171-47.797-45.086-72.811-78.664-65.017-27.908 6.475-46.671 22.146-53.442 49.723-6.74 27.51 1.58 51.562 24.072 68.898 22.446 17.301 47.527 19.217 72.678 5.844 8.284-4.397 14.52-4.33 22.431.372 26.416 15.731 53.233 30.78 79.852 46.166 18.565 10.73 37.053 21.575 57.074 33.247-46.758 49.147-51.572 102.589-18.136 159.764m648.96-298.58c-.004 29.487-12.022 52.77-36.792 68.787-7.769 5.023-10.602 10.708-10.56 19.94.335 83.153.356 166.305.02 249.458-.041 9.583 2.802 15.31 11.004 20.653 36.558 23.828 47.868 72.883 25.992 109.451-23.027 38.49-70.457 52.632-109.532 31.968-7.968-4.213-14.112-3.968-21.58.357A54226.18 54226.18 0 0 1 602.82 923.796c-7.499 4.3-8.1 10.617-8.579 17.882-2.481 37.862-29.181 68.898-65.434 76.382-47.965 9.893-94.076-23.46-98.411-72.129-1.162-12.95-6.047-20.53-17.51-27.031-70.422-39.9-140.446-80.514-210.394-121.25-8.217-4.784-14.575-5.206-23.302-.749-39.727 20.312-86.566 6.287-108.605-31.683C48.5 727.162 59.423 679.686 96.582 655.05c8.396-5.568 11.514-11.84 11.478-21.79a31001.834 31001.834 0 0 1-.02-246.269c.04-9.975-3.021-16.282-11.534-21.733-29.299-18.768-41.98-50.334-35.356-85.532 6.047-32.03 30.96-56.325 63.778-63.411 19.97-4.32 38.667-1.845 56.264 8.064 6.623 3.724 11.972 3.755 18.63-.097 72.185-41.805 144.425-83.524 216.926-124.775 9.781-5.563 12.634-13.133 13.19-23.195 2.43-44.654 44.133-79.81 91.996-74.976 36.406 3.683 69.245 36.354 71.884 73.743.948 13.424 7.015 20.735 18.198 27.103 70.03 39.86 139.794 80.178 209.446 120.71 8.345 4.86 14.927 4.84 23.567.54 55.439-27.562 118.468 11.427 118.805 73.116" fill="#2583FF"/><path d="M334.99 522.535c.225-46.497 37.394-85.537 84.162-86.515 14.535-.305 25.28-4.656 35.87-14.214 53.478-48.341 127.552-29.9 164.3 11.962 13.383 15.259 21.182 33.44 25.1 53.024 2.007 9.996 7.117 16.282 15.222 21.59 20.2 13.216 31.434 32.494 29.274 56.31-2.497 27.48-16.196 48.918-44.053 57.885-16.292 5.247-32.905 5.217-48.296-3.312-7.575-4.193-14.417-4.249-22.197-1.166-35.743 14.173-70.503 12.247-103.617-7.785-7.999-4.84-15.508-5.176-24.184-2.69-56.692 16.221-111.87-25.961-111.58-85.089M882.112 704.65c10.913.27 19.96 9.348 19.558 19.613-.397 10.037-10.326 19.029-20.724 18.769-10.607-.27-18.61-8.59-18.524-19.258.087-11.34 8.39-19.4 19.69-19.124M492.402 82.119c.86-10.78 10.158-18.53 21.162-17.627 11.101.901 18.656 9.985 17.515 21.055-1.07 10.26-10.428 18.32-20.342 17.505-10.47-.856-19.146-10.765-18.34-20.933M881.388 315.84c-10.73-.03-18.666-7.896-18.824-18.646-.169-11.401 7.728-19.333 19.206-19.298 10.765.036 19.96 8.906 19.9 19.191-.052 10.46-9.064 18.784-20.277 18.748m-720.28-18.809c-.152 11.08-7.718 18.774-18.518 18.84-11.845.076-20.51-8.406-20.108-19.68.387-10.76 9.124-18.575 20.444-18.27 10.8.291 18.34 8.213 18.188 19.105m350.355 620.972c10.765-.143 19.97 8.62 19.869 18.926-.107 11.035-8.345 18.967-19.63 18.916-11.268-.05-19.262-8.06-19.22-19.242.04-10.225 8.446-18.462 18.981-18.595M142.351 704.726c10.612-.03 18.575 7.871 18.758 18.595.189 11.203-8.12 19.833-18.992 19.731-10.872-.092-19.62-8.778-19.578-19.42.046-10.872 8.436-18.875 19.812-18.906" fill="#2583FF"/></svg>