<svg class="icon" viewBox="0 0 1024 1024" xmlns="http://www.w3.org/2000/svg" width="200" height="200"><defs><style>@font-face{font-family:feedback-iconfont;src:url(//at.alicdn.com/t/font_1031158_u69w8yhxdu.woff2?t=1630033759944) format(&quot;woff2&quot;),url(//at.alicdn.com/t/font_1031158_u69w8yhxdu.woff?t=1630033759944) format(&quot;woff&quot;),url(//at.alicdn.com/t/font_1031158_u69w8yhxdu.ttf?t=1630033759944) format(&quot;truetype&quot;)}</style></defs><path d="M1023.083 511.822c0 281.37-228.082 509.452-509.453 509.452-281.36 0-509.452-228.082-509.452-509.452C4.178 230.456 232.27 2.369 513.63 2.369c281.371 0 509.453 228.087 509.453 509.453" fill="#1BA27A"/><path d="M752.732 259.266H270.33v116.46H453.3v171.177h116.46V375.726h182.97z" fill="#FFF"/><path d="M512.637 565.136c-151.359 0-274.07-23.955-274.07-53.508 0-29.548 122.706-53.508 274.07-53.508 151.358 0 274.065 23.96 274.065 53.508 0 29.553-122.707 53.508-274.065 53.508m307.735-44.587c0-38.107-137.777-68.996-307.735-68.996-169.954 0-307.74 30.889-307.74 68.996 0 33.557 106.837 61.516 248.409 67.711v245.73h116.45V588.356c142.663-6.002 250.616-34.078 250.616-67.808" fill="#FFF"/></svg>