<svg class="icon" viewBox="0 0 1024 1024" xmlns="http://www.w3.org/2000/svg" width="200" height="200"><defs><style>@font-face{font-family:feedback-iconfont;src:url(//at.alicdn.com/t/font_1031158_u69w8yhxdu.woff2?t=1630033759944) format(&quot;woff2&quot;),url(//at.alicdn.com/t/font_1031158_u69w8yhxdu.woff?t=1630033759944) format(&quot;woff&quot;),url(//at.alicdn.com/t/font_1031158_u69w8yhxdu.ttf?t=1630033759944) format(&quot;truetype&quot;)}</style></defs><path d="M510.752.988C229.382.988 1.299 229.07 1.299 510.441c0 281.366 228.082 509.453 509.453 509.453 281.365 0 509.453-228.087 509.453-509.453 0-281.37-228.088-509.453-509.453-509.453" fill="#5B7373"/><path d="M510.752 26.461c266.866 0 483.98 217.113 483.98 483.98s-217.114 483.98-483.98 483.98-483.98-217.113-483.98-483.98 217.113-483.98 483.98-483.98" fill="#FFF"/><path d="m468.727 561.54-50.308-34.124s-108.774 85.303-66.489 179.852a29.732 29.732 0 0 0 25.738 17.525c32.039 1.524 99.791-10.713 141.368-129.13l-50.309-34.124z" fill="#FF8B00"/><path d="M608.363 465.074s130.853 93.23 21.499 264.126c-.647 1.009-2.206.744-2.456-.433-3.82-17.79-25.778-104.453-98.278-146.88l79.235-116.818zM507.058 396.36s-135.02-87.1-253.35 77.692c-.709.978.122 2.328 1.304 2.124 17.943-3.026 106.582-14.672 172.811 36.997l79.235-116.813z" fill="#5B7373"/><path d="M760.511 372.053c55.938-106.95-14.188-219.41-14.188-219.41s-130.42-23.563-209.105 67.96c-55.765 64.864-122.605 187.413-156.81 253.3a56.182 56.182 0 0 0 18.34 72.383l55.185 37.425 55.183 37.434a56.198 56.198 0 0 0 74.034-9.72c48.571-56.152 137.71-163.57 177.361-239.372" fill="#E6FFFF"/><path d="M708.277 149.917c-44.628 0-119.11 10.265-171.06 70.686-55.764 64.864-122.604 187.408-156.809 253.3a56.182 56.182 0 0 0 18.34 72.378l55.185 37.43 55.183 37.43a56.035 56.035 0 0 0 31.536 9.694c15.818 0 31.463-6.664 42.493-19.41 48.576-56.162 137.715-163.575 177.366-239.372 55.938-106.954-14.183-219.421-14.183-219.421s-15.07-2.72-38.046-2.72m0 20.378c10.5 0 19.211.621 25.248 1.227 13.577 26.135 50.757 111.112 8.926 191.096-38.566 73.723-126.018 179.175-174.717 235.47a35.784 35.784 0 0 1-47.175 6.19l-55.19-37.43-55.173-37.43a35.815 35.815 0 0 1-11.707-46.126c34.301-66.06 99.934-186.307 154.18-249.407 47.568-55.327 117.914-63.59 155.608-63.59" fill="#5B7373"/><path d="M613.896 335.434c-25.88-17.556-32.63-52.77-15.075-78.65 17.55-25.88 52.764-32.63 78.65-15.074 25.88 17.55 32.63 52.764 15.079 78.65-17.56 25.88-52.774 32.63-78.654 15.079m74.792-110.271c-35.014-23.75-82.658-14.621-106.409 20.398-23.75 35.015-14.621 82.654 20.398 106.41 35.015 23.75 82.654 14.621 106.41-20.399 23.75-35.02 14.621-82.658-20.399-106.41M215.616 872.53l-8.34-5.849 101.89-145.194 8.34 5.848zm61.165-12.778-8.396-5.767 56.04-81.512 8.395 5.772z" fill="#5B7373"/></svg>