<svg class="icon" viewBox="0 0 1024 1024" xmlns="http://www.w3.org/2000/svg" width="200" height="200"><defs><style>@font-face{font-family:feedback-iconfont;src:url(//at.alicdn.com/t/font_1031158_u69w8yhxdu.woff2?t=1630033759944) format(&quot;woff2&quot;),url(//at.alicdn.com/t/font_1031158_u69w8yhxdu.woff?t=1630033759944) format(&quot;woff&quot;),url(//at.alicdn.com/t/font_1031158_u69w8yhxdu.ttf?t=1630033759944) format(&quot;truetype&quot;)}</style></defs><path d="M1023.78 511.292c0 281.37-228.081 509.453-509.452 509.453-281.365 0-509.453-228.082-509.453-509.453 0-281.366 228.088-509.453 509.453-509.453 281.37 0 509.453 228.087 509.453 509.453" fill="#38AE50"/><path d="M951.204 511.292c0 241.282-195.599 436.876-436.876 436.876S77.452 752.574 77.452 511.292c0-241.277 195.594-436.876 436.876-436.876 241.277 0 436.876 195.599 436.876 436.876" fill="#FFF"/><path d="M684.648 599.31v84.08H400.904l347.181-347.182a37.98 37.98 0 0 0 17.679-20.775 37.919 37.919 0 0 0 0-32.727 37.913 37.913 0 0 0-23.145-23.145 37.954 37.954 0 0 0-27.184-2.18h-415.01a37.893 37.893 0 0 0-37.894 37.893V598.22l173.382-173.382h-89.995v-84.08h279.69L270.254 696.12c-13.266 13.256-14.6 33.879-4.096 48.679a37.868 37.868 0 0 0 34.353 21.972h429.632a37.893 37.893 0 0 0 37.888-37.893v-302.95L594.649 599.305h90z" fill="#38AE50"/></svg>