<svg class="icon" viewBox="0 0 1024 1024" xmlns="http://www.w3.org/2000/svg" width="200" height="200"><defs><style>@font-face{font-family:feedback-iconfont;src:url(//at.alicdn.com/t/font_1031158_u69w8yhxdu.woff2?t=1630033759944) format(&quot;woff2&quot;),url(//at.alicdn.com/t/font_1031158_u69w8yhxdu.woff?t=1630033759944) format(&quot;woff&quot;),url(//at.alicdn.com/t/font_1031158_u69w8yhxdu.ttf?t=1630033759944) format(&quot;truetype&quot;)}</style></defs><path d="M512.953 4.06C231.582 4.06 3.5 232.142 3.5 513.513c0 281.366 228.082 509.453 509.453 509.453 281.365 0 509.452-228.087 509.452-509.453 0-281.37-228.087-509.453-509.452-509.453" fill="#208ABE"/><path d="M512.953 53.421c253.697 0 460.097 206.395 460.097 460.087 0 253.702-206.4 460.097-460.097 460.097-253.698 0-460.092-206.395-460.092-460.092 0-253.697 206.394-460.092 460.087-460.092" fill="#FFF"/><path d="m738.304 602.132-.494-.193c-9.12-2.751-19.135.881-23.552 8.732-22.569 40.73-47.889 69.183-75.858 85.578-25.126 14.52-59.28 23.358-102.654 26.104-10.409.785-21.296 1.08-32.784 1.08h-91.365c-16.099 0-25.32-16.781-15.604-28.458l95.685-114.729 44.068-52.896 187.738-225.132a16.914 16.914 0 0 0 3.923-10.699v-6.18c0-9.715-8.732-17.667-19.528-17.667H535.74v-80.57h-44.062v80.564H398.55v-44.26c0-3.531-2.955-6.38-6.485-6.38H367.04c-2.547 0-4.809 1.376-5.792 3.633l-26.69 56.631c-.102.296-.398.392-.495.688l-52.692 104.127c-4.417 8.732-.296 19.135 9.22 23.358 9.13 4.025 20.124.978 25.32-6.97 14.928-22.863 29.345-40.236 43.284-52.014 16.582-14.036 36.018-24.439 58.098-31.016 16.878-5.1 48.184-8.238 74.39-9.323 8.05-.387 16.486-.586 25.422-.586h73.794c16.099 0 25.223 16.685 15.508 28.362l-70.661 84.696-44.063 52.703L278.227 727.06a16.73 16.73 0 0 0-3.922 10.699v5.792c0 9.818 8.732 17.668 19.527 17.668h197.851v78.706h44.068v-78.71h145.347c8.14 0 15.497-4.611 18.345-11.479l50.935-124.734c3.831-9.323-1.57-19.726-12.069-22.875" fill="#208ABE"/></svg>