<svg class="icon" viewBox="0 0 1024 1024" xmlns="http://www.w3.org/2000/svg" width="200" height="200"><defs><style>@font-face{font-family:feedback-iconfont;src:url(//at.alicdn.com/t/font_1031158_u69w8yhxdu.woff2?t=1630033759944) format(&quot;woff2&quot;),url(//at.alicdn.com/t/font_1031158_u69w8yhxdu.woff?t=1630033759944) format(&quot;woff&quot;),url(//at.alicdn.com/t/font_1031158_u69w8yhxdu.ttf?t=1630033759944) format(&quot;truetype&quot;)}</style></defs><path d="M4.06 480.042c5.253-28.376 9.751-56.931 15.946-85.104C30.236 348.374 47.481 304.48 72.668 262c69.602 91.243 138.016 180.581 205.998 270.255 22.935 30.251 22.44 30.628-3.796 57.497-15.742 16.124-30.975 32.798-47.415 48.168-9.521 8.9-10.128 16.563-4.014 27.664 24.352 44.235 56.55 81.461 96.847 111.774 4.677 3.52 9.338 7.066 15.915 12.048-27.429 21.046-53.513 41.235-79.795 61.16-17.933 13.607-36.324 26.624-54.196 40.323-9.547 7.306-17.54 9.328-27.628-.066C96.516 818.144 42.611 731.395 19.594 626.57c-5.747-26.166-10.388-52.576-15.534-78.863v-67.671zM545.35 2.43c28.417 5.237 56.957 9.924 85.231 15.829 47.502 9.919 91.742 28.346 137.043 54.053l-309.345 222.05c-22.783-22.263-45.998-43.732-67.655-66.667-10.668-11.295-19.329-11.993-32.493-4.57-48.164 27.159-87.422 63.809-120.46 111.377-6.669-8.315-12.39-15.07-17.709-22.131-28.29-37.547-56.223-75.374-84.87-112.65-7.718-10.047-8.217-16.975.897-26.935C220.15 80.85 324.384 27.184 446.928 7.83c11.58-1.839 23.164-3.602 34.74-5.4h63.68zM262.006 951.632l307.109-229.574c22.35 24.351 45.03 47.5 65.785 72.26 12.594 15.019 23.527 14.107 39.055 5.018 46.498-27.21 85.114-62.515 116.598-109.69 16.558 21.316 32.34 41.23 47.675 61.486 17.581 23.206 34.057 47.277 52.362 69.887 11.737 14.494 8.935 23.995-3.271 36.828-80.682 84.758-178.507 137.68-293.587 156.8-113.354 18.829-220.746-2.176-322.077-55.572-2.852-1.503-5.19-3.958-9.649-7.443m429.102-716.825c48.164-35.917 93.994-69.627 139.193-104.158 10.785-8.243 16.75-2.109 23.598 4.127 46.452 42.325 84.487 91.176 112.935 147.267 40.91 80.667 60.533 166.49 55.306 256.642-4.483 77.116-24.402 150.67-65.367 221.724-20.552-26.838-39.702-51.633-58.618-76.606-52.77-69.648-105.258-139.488-158.318-208.912-7.371-9.654-8.38-15.61 1.233-24.795 20.567-19.67 39.177-41.382 59.576-61.246 9.95-9.69 10.112-17.943 3.841-29.569-23.68-43.879-55.632-80.407-95.074-110.592-5.196-3.984-10.429-7.906-18.305-13.877"/></svg>