<svg xmlns="http://www.w3.org/2000/svg" version="1.1" id="Layer_1" x="0" y="0" viewBox="0 0 128 128" xml:space="preserve"><style>.st2{fill:#fff}</style><linearGradient id="SVGID_1_" gradientUnits="userSpaceOnUse" x1="11.862" y1="11.862" x2="116.138" y2="116.138"><stop offset="0" stop-color="#EAD886"/><stop offset="1" stop-color="#B08E3A"/></linearGradient><path d="M87.5 128h-47C18.1 128 0 109.9 0 87.5v-47C0 18.1 18.1 0 40.5 0h47C109.9 0 128 18.1 128 40.5v47c0 22.4-18.1 40.5-40.5 40.5z" fill="url(#SVGID_1_)" style="fill:url(#SVGID_1_)"/><g opacity=".2" style="opacity:.2"><path d="M40.8 56.7zm-22.4 36H18h.4zm99.8-27.4c-.2-1-2.2-7.5-6.6-11.3-8.8-7.4-22-5-25.8-3.7-1.6.5-3.1.4-4.5-.3-.3-.2-.6-.3-1-.5.6.7 1.1 1.4 1.4 2.2.4 1.1.5 2.2.6 3.4.1 1.6-.2 3.2-.4 4.9-.2.8-.4 1.5-.5 2.3-.7 2.7-1.6 5.3-2.9 7.8L77 72.8c-1.4 2-3 3.9-5.3 5.3 1.6.8 2.6 2.2 3.5 3.6 1 1.5 2 3 3.3 4.3 1.6 1.8 3.4 3.3 5.5 4.6 1.4 1 2.9 1.6 4.5 2.2 1.2.4 2.4.8 3.6.9 2.6.6 5.3.5 7.9.1 3.6-.6 6.8-2.2 9.7-4.4.3-.2 1.8-1.5 1.9-1.6 1.2-1.1 2.3-2.3 3.3-3.6.3-.5 1.6-2.5 1.9-3.1.9-1.8 3.4-8 1.4-15.8zM81.7 50.6zm2.9 14.6c-1.4 3.2-1.8 6.5-1.6 9.9.1 1.8.5 3.7 1.2 5.4.1.1.1.2.2.3h-.1c-1.4-2.3-2-4.8-2.3-7.4-.4-3 .5-5.9.5-6 .5-1.8 1.9-5.9 6.3-9.5.9-.7 1.7-1.5 2.8-2-1.6 1.5-4.9 5.3-5.1 5.5-.7 1.2-1.3 2.5-1.9 3.8zm3.9-5.4c-.1 0-.1 0 0 0-.1 0-.1 0 0 0zm4.9 27.5-5.3-7.4 6.9-4.1-3.9-6.9 7.3-3.3-3-7.4 8.7-1.9.8 1-7.3 1.9 3.3 7.3-7.5 3 3.7 7.3-6.7 3.4 4.3 6.3-1.3.8zm2-6.3 5.9-3.5-3.3-5.9 6.3-2.8-2.6-6.3 7.4-1.7.7.9-6.2 1.7 2.8 6.3-6.4 2.6 3.2 6.2-5.8 2.9 3.7 5.4-1.1.6-4.6-6.4zm12.7 9zm8.1-14c-.8 4.5-3.3 8.1-6.7 11.1-.6.5-1.4.9-1.9 1.6-.2.1-.3.2-.5.3-3 1.9-6.2 3-9.8 3 0-.1 0-.2-.1-.2-.3.1-.2-.1-.1-.2.3.2.5.1.8.1 3.3-.8 6.4-2.2 9.1-4.2.2-.2.5-.3.5-.6.3 0 .5-.2.7-.4 3.1-2.8 5.4-6.1 6.5-10.2.7-2.7 1.1-5.3.6-7.9 1 2.4 1.4 5 .9 7.6z"/><path d="M79.4 48.9c-.7-.8-1.4-1.4-2.1-2.2-.4-.1-.6-.4-1-.6-.1-.1-.3-.1-.4 0-.1.1 0 .3 0 .4.1.3.4.4.3.8.3.7.7 1.4.9 2.1.7 2.7.6 5.4-.1 8-.3 1.2-.1 2.2.3 3.3.4 1.7 1.1 3.3 2.2 4.6.2-.2.3-.4.4-.6.8-1.8 1.3-3.7 1.5-5.6.2-1.5.3-3 .1-4.5 0-2.2-.6-4.1-2.1-5.7zm3.2 1.3c.2-.1.5-.1.7-.1 1.6 0 3.1-.5 4.4-1.3.8-.5 1.7-1 1.9-2.1v-.2c0-.2-.1-.5-.3-.5-.3 0-.3.3-.3.5 0 .3-.3.6-.5.7-1.1.6-2.2.7-3.3 0-1.3-.6-2.2-1.6-2.7-3-.1-.5-.2-.9-.3-1.4 0-.4-.2-.5-.5-.3-1 .5-1.9 1.1-2.7 1.9-1 1-1 1 .3 1.6.2.1.4.2.5.3 1.3.9 2.4 1.9 2.5 3.7-.1.1 0 .2.3.2z"/><path d="M62.1 77.6v.1c-.2.1-.5.1-.7.3.8.2 1.6.1 2.4.2 2 .2 3.9.1 5.9 0 1.6 0 2.7-.9 3.7-1.9.4-.4.8-.7 1.1-1.1 1-1.2 2.1-2.4 2.8-3.9.7-1.1 1.4-2.3 1.8-3.5.3-.9.7-1.5-.4-2.5-.2-.2-.4-.5-.5-.8-.5-.8-.7-1.7-1.1-2.6-.1-.7-.3-1.3-.6-2-.3 1.1-.6 2-.9 3-.1.1-.1.2-.1.3-1.4 3.5-3.2 6.7-5.7 9.5-1.5 1.7-3.1 3.1-5.2 4 .2-.4.7-.5 1.1-.8 2.9-2 5-4.7 6.8-7.7.6-1 1.3-2 1.6-3.1.3-.7.7-1.4 1-2.1 1-2.5 1.8-5.1 2.1-7.8.3-3.1.4-6.2-1.7-8.8-.2-.6-.8-.5-1.3-.8-1.9-1-3.8-.8-5.5.5-.2.1-.5.3-.4.5.1.3.4.1.6.1.2-.1.4-.1.6-.2 1.2-.3 2.7.3 3.3 1.2.6.8 1.1 1.7 1.3 2.8.5 2.6.1 5.2-.5 7.7-.7 2.7-1.8 5.2-3.1 7.6-.1.1-.2.3-.3.4-1.1 1.9-2.5 3.6-4.1 5.1-5.5 5.1-8.8 1.7-8.8-1V68c0-.3.1-.5.1-.8v-.7c-1 1.8-1.6 3.7-1.4 5.7.1 1.9 1 3.3 2.5 4.3 1 1 2.3 1.2 3.6 1.1zm12.7 13.2c-1.7-.3-3.3-.9-4.8-1.7-2-1.4-3.4-3.1-4.2-5.4-.2-1-.4-2.1-.5-3.1 0-.3-.2-.3-.4-.3-1.3 0-2.6.1-4-.4.1 1.2.2 2.2.7 3.1.3 1 .7 1.9 1.3 2.7 1.2 2 2.7 3.6 4.7 4.8 1.4 1 2.9 1.5 4.5 1.7h.3c2.5.4 4.9 0 7.2-1 .8-.4 1.7-.8 2.3-1.7-.5.2-.9.3-1.3.5-1.8.8-3.8.9-5.8.8z"/><path d="M54.1 65.8c2.5-1.5 4.8-3.1 7.9-3 .9.1 1.7.3 2.6.6.6.3 1.1.6 1.7.9.2.1.4.1.5-.1.6-1.1 1.2-2.1 1.8-3.2.9-1.3 1.7-2.6 2.6-3.9.2-.3.3-.5-.2-.6-2.7-.9-5.5-.9-8.3-.1-.2 0-.4 0-.5.1-2.2.6-4.2 1.6-6.1 3-1.1.8-2.2 1.7-2.9 2.9-.9 1.1-1.7 2.3-2.4 3.6-.6.8-.9 1.6-1.4 2.5-1.6 2.8-1.9 6.3-1.9 7.4.6-1.6 2.1-7.3 6.6-10.1zm20.5-23c.5.2 1 .5 1.5.7.6.4 1.1.8 1.5 1.4.2.3.4.2.6 0 .7-.9 1.5-1.6 2.4-2.3 1.3-1 2.8-1.4 4.4-1.6 1.2 0 2.4 0 3.5.4 3.8 1.1 6.4 3.8 6.8 4.1.1.1.3.3.5.2.2-.2 0-.3-.1-.5-.2-.6-3.2-9.2-14.8-6.7-2.5.5-4.5 1.9-6.3 3.7-.4.2-.6.4 0 .6z"/><path d="M49.7 66.3c.7-1 1.3-1.9 2-2.9-.7 0-1.5.1-1.6.1-2.8.6-5.3 1.7-7.5 3.4-1.9 1.4-3.4 3.1-4.2 5.4-.9 1.9-1 3.9-1.2 5.9-.1 1.6-.2 3.2-1.1 4.6-.8 1.3-2 1.6-3.2.7-.4-.4-.5-1-.4-1.5.1-.6.6-.9 1.2-1 .4 0 .7.2.7.6.1.6-.3.7-.8.8l-.1.1c.7.7 1.5.6 2-.3.4-.7.2-1.6-.5-2.2-1.1-1-2.9-.8-4 .5-1.3 1.5-1.1 3.6.3 5.2.9 1 2.2 1.3 3.4 1.2 3.9-.2 6.4-2.7 7.2-6 .2-.4.3-.8.6-1.2 1-1.6 2.1-3.2 4.3-3.2.2 0 .3-.1.2-.3 0-.9 0-1.8-.1-2.7.1-.4.2-.8.2-1.2.6-2.1 1.5-4 2.6-6zm25.1 19.9c-.3.1-.5-.1-.7-.3-.1-.2-.3-.4-.5-.7v.5c0 .9.4 1.3 1.1 1.4.7 0 1.2-.4 1.3-1.3.1-.7 0-1.3-.3-2-.6-1.8-1.7-3.3-3.1-4.5-.4-.3-.6-.4-.9.1-.2.4-.7.7-1.2.8-.8.4-1.7.4-2.6.4-.5-.1-1-.2-1.4-.3-.5-.2-.6 0-.6.4 0 .5.4 3.3 1.2 4.3 1.6-1.6 3.5-2.5 5.8-1.7.7.4 1.4.9 1.8 1.6.1.2.1.4.2.5.1.4.2.7-.1.8zM53.3 72.7c-.9.4-1.2 1.2-1.4 2.2.6-.6 1.1-1.5 2.1-.7.3.5.1.9-.3 1.3-.6.5-1.1.3-1.7 0-.7-.7-.8-1.5-.6-2.4.2-.8.6-1.5.9-2.3l.1-.1c2.1-3.1 4.9-5.1 8.4-6.2 1-.3 2.1-.4 3.1-.6-1.4-.3-2.8-.4-4.2 0h-.3c-3.2 1-5.8 2.8-7.9 5.4-.8.9-1.5 1.9-2 3-.3.5-.5 1.1-.7 1.6-.4 1.3-.3 2.5.8 3.5.5.6 1.1 1 1.9 1 1.8.6 4.1-.8 4.5-2.8.2-.8.1-1.6-.5-2.2-.6-.9-1.4-1-2.2-.7zm16.6-17.6s.1 0 0 0c.1 0 .1 0 0 0zm1.8 1s-1.2-1.6-4.3-3.2l.9.6c1.3.5 2.3 1.6 3.4 2.6zm-3.9-4c.7.3 1.9 1.1 2.4 1.5-.3-.5-.6-1-1.1-1.5-2.4-2.4-5.1-3-6.5-3.3-4.8-1.4-2.8-3.8-1.1-2.8.5.3 1 1.6 1.1 1.9.7-1.5.5-2.9-1.3-3.5-2.2-.6-5.2 1.3-4.8 4.2 0 .2.1.3.2.5 4.2.4 8 1.4 11.1 3z"/><path d="m68.3 53.4-.9-.6c-2.4-1.2-6-2.5-11-2.9-1.4 0-3 .1-4.6.4-1.8.4-3.7 1-5.7 2.1s-3.9 2.5-5.6 4c-2.7 2.3-5.1 4.8-7.9 7-1.6 1.3-3.2 2.4-5.3 2.8-1.6.3-2.6-.1-3.2-1.2 0-.1-.1-.3-.1-.4-.2-.9.2-1.6 1-1.7.8-.1 1.4.4 1.5 1.4 0 .2-.1.4.1.6.7-1 .9-2 .5-2.8-.5-.9-1.4-1.3-2.4-1.3-2.5 0-4.2 2.7-3.2 5.2.5 1.3 1.3 2.4 2.6 3 .2.2.4.2.6.3 1.8.6 3.6.3 5.4-.3 1.4-.5 2.7-1.4 4-2.2-.1.2-.3.4-.5.5-1.7 1.4-3.3 3-4.5 4.8-.9 1.2-1.6 2.6-2.1 4-.3.4-.4.8-.5 1.2-.9 2.6-1.9 5.2-2.8 7.7-.5.7-.8 1.5-1.4 2.1-1.3 1.5-2.7 2.8-4.9 2.3 0 0-1.2-.3-1.6-1.4-.2-.7-.2-1.2.3-1.6.5-.4 1-.5 1.5-.2s.7.8.5 1.4c0 .1-.1.2 0 .3.1.1.2 0 .3 0 .2-.1.3-.2.4-.4.5-.8.3-1.7-.6-2.4-.9-.7-1.8-.7-2.8-.3-1.2.5-2 1.4-2.2 2.8-.2 1.7.6 2.9 1.8 3.8 1.5 1.3 3.8 1.3 4.6 1.2 3.4-.5 6.2-2.3 8.6-4.6.8-.6 1.4-1.3 2.1-2 .1-.1.2-.2.1-.4-.4-.7-.6-1.6-.8-2.4 0-1.2.2-2.3.7-3.4 1.3-3.2 3.3-6 5.5-8.5 3.5-4 7.7-6.8 12.9-8 1.2-.3 2.4-.3 3.7-.5-.4-.2-.9-.4-1.2-.5-1-.4-1.7-.5-2.6-.7-1.7-.3-4.2-.1-5.5.2-2.5.7-4.7 1.8-6.8 3.2-.2.1-.3.4-.6.2.2-.2.5-.4.7-.6 3.7-3.2 7.8-4.6 12.7-3.6 1.7.4 2.5 1.2 3.1.9.4-.3.9-.5 1.2-.9 1.1-1.3 2.3-2.3 3.6-3.3 2.8-1.9 5.8-2.9 9.2-3 1.9.2 3.8.5 5.6 1.1-1.2-.7-2.2-1.8-3.5-2.4zm-27.5 3.3zm29.1-1.6c.1 0 .1 0 0 0 .1 0 0 0 0 0z"/></g><path class="st2" fill="#FFF" d="M38.8 54.7zm-22.4 36H16h.4zm99.8-27.4c-.2-1-2.2-7.5-6.6-11.3-8.8-7.4-22-5-25.8-3.7-1.6.5-3.1.4-4.5-.3-.3-.2-.6-.3-1-.5.6.7 1.1 1.4 1.4 2.2.4 1.1.5 2.2.6 3.4.1 1.6-.2 3.2-.4 4.9-.2.8-.4 1.5-.5 2.3-.7 2.7-1.6 5.3-2.9 7.8L75 70.8c-1.4 2-3 3.9-5.3 5.3 1.6.8 2.6 2.2 3.5 3.6 1 1.5 2 3 3.3 4.3 1.6 1.8 3.4 3.3 5.5 4.6 1.4 1 2.9 1.6 4.5 2.2 1.2.4 2.4.8 3.6.9 2.6.6 5.3.5 7.9.1 3.6-.6 6.8-2.2 9.7-4.4.3-.2 1.8-1.5 1.9-1.6 1.2-1.1 2.3-2.3 3.3-3.6.3-.5 1.6-2.5 1.9-3.1.9-1.8 3.4-8 1.4-15.8zM79.7 48.6zm2.9 14.6c-1.4 3.2-1.8 6.5-1.6 9.9.1 1.8.5 3.7 1.2 5.4.1.1.1.2.2.3h-.1c-1.4-2.3-2-4.8-2.3-7.4-.4-3 .5-5.9.5-6 .5-1.8 1.9-5.9 6.3-9.5.9-.7 1.7-1.5 2.8-2-1.6 1.5-4.9 5.3-5.1 5.5-.7 1.2-1.3 2.5-1.9 3.8zm3.9-5.4c-.1 0-.1 0 0 0-.1 0-.1 0 0 0zm4.9 27.5-5.3-7.4 6.9-4.1-3.9-6.9 7.3-3.3-3-7.4 8.7-1.9.8 1-7.3 1.9 3.3 7.3-7.5 3 3.7 7.3-6.7 3.4 4.3 6.3-1.3.8zm2-6.3 5.9-3.5-3.3-5.9 6.3-2.8-2.6-6.3 7.4-1.7.7.9-6.2 1.7 2.8 6.3-6.4 2.6 3.2 6.2-5.8 2.9 3.7 5.4-1.1.6-4.6-6.4zm12.7 9zm8.1-14c-.8 4.5-3.3 8.1-6.7 11.1-.6.5-1.4.9-1.9 1.6-.2.1-.3.2-.5.3-3 1.9-6.2 3-9.8 3 0-.1 0-.2-.1-.2-.3.1-.2-.1-.1-.2.3.2.5.1.8.1 3.3-.8 6.4-2.2 9.1-4.2.2-.2.5-.3.5-.6.3 0 .5-.2.7-.4 3.1-2.8 5.4-6.1 6.5-10.2.7-2.7 1.1-5.3.6-7.9 1 2.4 1.4 5 .9 7.6z"/><path class="st2" d="M77.4 46.9c-.7-.8-1.4-1.4-2.1-2.2-.4-.1-.6-.4-1-.6-.1-.1-.3-.1-.4 0-.1.1 0 .3 0 .4.1.3.4.4.3.8.3.7.7 1.4.9 2.1.7 2.7.6 5.4-.1 8-.3 1.2-.1 2.2.3 3.3.4 1.7 1.1 3.3 2.2 4.6.2-.2.3-.4.4-.6.8-1.8 1.3-3.7 1.5-5.6.2-1.5.3-3 .1-4.5 0-2.2-.6-4.1-2.1-5.7zm3.2 1.3c.2-.1.5-.1.7-.1 1.6 0 3.1-.5 4.4-1.3.8-.5 1.7-1 1.9-2.1v-.2c0-.2-.1-.5-.3-.5-.3 0-.3.3-.3.5 0 .3-.3.6-.5.7-1.1.6-2.2.7-3.3 0-1.3-.6-2.2-1.6-2.7-3-.1-.5-.2-.9-.3-1.4 0-.4-.2-.5-.5-.3-1 .5-1.9 1.1-2.7 1.9-1 1-1 1 .3 1.6.2.1.4.2.5.3 1.3.9 2.4 1.9 2.5 3.7-.1.1 0 .2.3.2z" fill="#FFF"/><path class="st2" d="M60.1 75.6v.1c-.2.1-.5.1-.7.3.8.2 1.6.1 2.4.2 2 .2 3.9.1 5.9 0 1.6 0 2.7-.9 3.7-1.9.4-.4.8-.7 1.1-1.1 1-1.2 2.1-2.4 2.8-3.9.7-1.1 1.4-2.3 1.8-3.5.3-.9.7-1.5-.4-2.5-.2-.2-.4-.5-.5-.8-.5-.8-.7-1.7-1.1-2.6-.1-.7-.3-1.3-.6-2-.3 1.1-.6 2-.9 3-.1.1-.1.2-.1.3-1.4 3.5-3.2 6.7-5.7 9.5-1.5 1.7-3.1 3.1-5.2 4 .2-.4.7-.5 1.1-.8 2.9-2 5-4.7 6.8-7.7.6-1 1.3-2 1.6-3.1.3-.7.7-1.4 1-2.1 1-2.5 1.8-5.1 2.1-7.8.3-3.1.4-6.2-1.7-8.8-.2-.6-.8-.5-1.3-.8-1.9-1-3.8-.8-5.5.5-.2.1-.5.3-.4.5.1.3.4.1.6.1.2-.1.4-.1.6-.2 1.2-.3 2.7.3 3.3 1.2.6.8 1.1 1.7 1.3 2.8.5 2.6.1 5.2-.5 7.7-.7 2.7-1.8 5.2-3.1 7.6-.1.1-.2.3-.3.4-1.1 1.9-2.5 3.6-4.1 5.1-5.5 5.1-8.8 1.7-8.8-1V66c0-.3.1-.5.1-.8v-.7c-1 1.8-1.6 3.7-1.4 5.7.1 1.9 1 3.3 2.5 4.3 1 1 2.3 1.2 3.6 1.1zm12.7 13.2c-1.7-.3-3.3-.9-4.8-1.7-2-1.4-3.4-3.1-4.2-5.4-.2-1-.4-2.1-.5-3.1 0-.3-.2-.3-.4-.3-1.3 0-2.6.1-4-.4.1 1.2.2 2.2.7 3.1.3 1 .7 1.9 1.3 2.7 1.2 2 2.7 3.6 4.7 4.8 1.4 1 2.9 1.5 4.5 1.7h.3c2.5.4 4.9 0 7.2-1 .8-.4 1.7-.8 2.3-1.7-.5.2-.9.3-1.3.5-1.8.8-3.8.9-5.8.8z" fill="#FFF"/><path class="st2" d="M52.1 63.8c2.5-1.5 4.8-3.1 7.9-3 .9.1 1.7.3 2.6.6.6.3 1.1.6 1.7.9.2.1.4.1.5-.1.6-1.1 1.2-2.1 1.8-3.2.9-1.3 1.7-2.6 2.6-3.9.2-.3.3-.5-.2-.6-2.7-.9-5.5-.9-8.3-.1-.2 0-.4 0-.5.1-2.2.6-4.2 1.6-6.1 3-1.1.8-2.2 1.7-2.9 2.9-.9 1.1-1.7 2.3-2.4 3.6-.6.8-.9 1.6-1.4 2.5-1.6 2.8-1.9 6.3-1.9 7.4.6-1.6 2.1-7.3 6.6-10.1zm20.5-23c.5.2 1 .5 1.5.7.6.4 1.1.8 1.5 1.4.2.3.4.2.6 0 .7-.9 1.5-1.6 2.4-2.3 1.3-1 2.8-1.4 4.4-1.6 1.2 0 2.4 0 3.5.4 3.8 1.1 6.4 3.8 6.8 4.1.1.1.3.3.5.2.2-.2 0-.3-.1-.5-.2-.6-3.2-9.2-14.8-6.7-2.5.5-4.5 1.9-6.3 3.7-.4.2-.6.4 0 .6z" fill="#FFF"/><path class="st2" d="M47.7 64.3c.7-1 1.3-1.9 2-2.9-.7 0-1.5.1-1.6.1-2.8.6-5.3 1.7-7.5 3.4-1.9 1.4-3.4 3.1-4.2 5.4-.9 1.9-1 3.9-1.2 5.9-.1 1.6-.2 3.2-1.1 4.6-.8 1.3-2 1.6-3.2.7-.4-.4-.5-1-.4-1.5.1-.6.6-.9 1.2-1 .4 0 .7.2.7.6.1.6-.3.7-.8.8l-.1.1c.7.7 1.5.6 2-.3.4-.7.2-1.6-.5-2.2-1.1-1-2.9-.8-4 .5-1.3 1.5-1.1 3.6.3 5.2.9 1 2.2 1.3 3.4 1.2 3.9-.2 6.4-2.7 7.2-6 .2-.4.3-.8.6-1.2 1-1.6 2.1-3.2 4.3-3.2.2 0 .3-.1.2-.3 0-.9 0-1.8-.1-2.7.1-.4.2-.8.2-1.2.6-2.1 1.5-4 2.6-6zm25.1 19.9c-.3.1-.5-.1-.7-.3-.1-.2-.3-.4-.5-.7v.5c0 .9.4 1.3 1.1 1.4.7 0 1.2-.4 1.3-1.3.1-.7 0-1.3-.3-2-.6-1.8-1.7-3.3-3.1-4.5-.4-.3-.6-.4-.9.1-.2.4-.7.7-1.2.8-.8.4-1.7.4-2.6.4-.5-.1-1-.2-1.4-.3-.5-.2-.6 0-.6.4 0 .5.4 3.3 1.2 4.3 1.6-1.6 3.5-2.5 5.8-1.7.7.4 1.4.9 1.8 1.6.1.2.1.4.2.5.1.4.2.7-.1.8zM51.3 70.7c-.9.4-1.2 1.2-1.4 2.2.6-.6 1.1-1.5 2.1-.7.3.5.1.9-.3 1.3-.6.5-1.1.3-1.7 0-.7-.7-.8-1.5-.6-2.4.2-.8.6-1.5.9-2.3l.1-.1c2.1-3.1 4.9-5.1 8.4-6.2 1-.3 2.1-.4 3.1-.6-1.4-.3-2.8-.4-4.2 0h-.3c-3.2 1-5.8 2.8-7.9 5.4-.8.9-1.5 1.9-2 3-.3.5-.5 1.1-.7 1.6-.4 1.3-.3 2.5.8 3.5.5.6 1.1 1 1.9 1 1.8.6 4.1-.8 4.5-2.8.2-.8.1-1.6-.5-2.2-.6-.9-1.4-1-2.2-.7zm16.6-17.6s.1 0 0 0c.1 0 .1 0 0 0zm1.8 1s-1.2-1.6-4.3-3.2l.9.6c1.3.5 2.3 1.6 3.4 2.6zm-3.9-4c.7.3 1.9 1.1 2.4 1.5-.3-.5-.6-1-1.1-1.5-2.4-2.4-5.1-3-6.5-3.3-4.8-1.4-2.8-3.8-1.1-2.8.5.3 1 1.6 1.1 1.9.7-1.5.5-2.9-1.3-3.5-2.2-.6-5.2 1.3-4.8 4.2 0 .2.1.3.2.5 4.2.4 8 1.4 11.1 3z" fill="#FFF"/><path class="st2" d="m66.3 51.4-.9-.6c-2.4-1.2-6-2.5-11-2.9-1.4 0-3 .1-4.6.4-1.8.4-3.7 1-5.7 2.1s-3.9 2.5-5.6 4c-2.7 2.3-5.1 4.8-7.9 7-1.6 1.3-3.2 2.4-5.3 2.8-1.6.3-2.6-.1-3.2-1.2 0-.1-.1-.3-.1-.4-.2-.9.2-1.6 1-1.7.8-.1 1.4.4 1.5 1.4 0 .2-.1.4.1.6.7-1 .9-2 .5-2.8-.5-.9-1.4-1.3-2.4-1.3-2.5 0-4.2 2.7-3.2 5.2.5 1.3 1.3 2.4 2.6 3 .2.2.4.2.6.3 1.8.6 3.6.3 5.4-.3 1.4-.5 2.7-1.4 4-2.2-.1.2-.3.4-.5.5-1.7 1.4-3.3 3-4.5 4.8-.9 1.2-1.6 2.6-2.1 4-.3.4-.4.8-.5 1.2-.9 2.6-1.9 5.2-2.8 7.7-.5.7-.8 1.5-1.4 2.1-1.3 1.5-2.7 2.8-4.9 2.3 0 0-1.2-.3-1.6-1.4-.2-.7-.2-1.2.3-1.6.5-.4 1-.5 1.5-.2s.7.8.5 1.4c0 .1-.1.2 0 .3.1.1.2 0 .3 0 .2-.1.3-.2.4-.4.5-.8.3-1.7-.6-2.4-.9-.7-1.8-.7-2.8-.3-1.2.5-2 1.4-2.2 2.8-.2 1.7.6 2.9 1.8 3.8 1.5 1.3 3.8 1.3 4.6 1.2 3.4-.5 6.2-2.3 8.6-4.6.8-.6 1.4-1.3 2.1-2 .1-.1.2-.2.1-.4-.4-.7-.6-1.6-.8-2.4 0-1.2.2-2.3.7-3.4 1.3-3.2 3.3-6 5.5-8.5 3.5-4 7.7-6.8 12.9-8 1.2-.3 2.4-.3 3.7-.5-.4-.2-.9-.4-1.2-.5-1-.4-1.7-.5-2.6-.7-1.7-.3-4.2-.1-5.5.2-2.5.7-4.7 1.8-6.8 3.2-.2.1-.3.4-.6.2.2-.2.5-.4.7-.6 3.7-3.2 7.8-4.6 12.7-3.6 1.7.4 2.5 1.2 3.1.9.4-.3.9-.5 1.2-.9 1.1-1.3 2.3-2.3 3.6-3.3 2.8-1.9 5.8-2.9 9.2-3 1.9.2 3.8.5 5.6 1.1-1.2-.7-2.2-1.8-3.5-2.4zm-27.5 3.3zm29.1-1.6c.1 0 .1 0 0 0 .1 0 0 0 0 0z" fill="#FFF"/></svg>