<svg xmlns="http://www.w3.org/2000/svg" version="1.1" id="Layer_1" x="0" y="0" viewBox="0 0 128 128" xml:space="preserve"><style>.st2{fill:#fff}</style><linearGradient id="SVGID_1_" gradientUnits="userSpaceOnUse" x1="11.85" y1="116.15" x2="116.15" y2="11.85" gradientTransform="matrix(1 0 0 -1 0 128)"><stop offset="0" stop-color="#1F75BC"/><stop offset="1" stop-color="#175D95"/></linearGradient><path d="M87.5 128h-47C18.1 128 0 109.9 0 87.5v-47C0 18.1 18.1 0 40.5 0h47C109.9 0 128 18.1 128 40.5v47c0 22.4-18.1 40.5-40.5 40.5z" fill="url(#SVGID_1_)" style="fill:url(#SVGID_1_)"/><g opacity=".2" style="opacity:.2"><path d="M23.9 90.3c1.4-4.1 2.7-7.9 4.1-11.8.1-.4.9-.7 1.3-.7 2.3-.1 4.7 0 7 0h45.8c1.2 0 1.8-.4 2.1-1.5 2.5-7.5 5.2-15 7.8-22.5.1-.4.2-.8.4-1.4H36.9c1.4-4.2 2.8-8.1 4.1-12 .1-.3.7-.6 1.1-.6 1.4-.1 2.8 0 4.2 0 18.8 0 37.6.1 56.3-.1 5.6-.1 11.6 4.3 9.2 12.5-1.8 6.1-4.1 12.1-6.2 18.2-.7 2.1-1.4 4.1-2.1 6.2-2.6 7.2-7.9 11.6-15.2 13.6-.7.2-1.4.2-2.1.2H25.4c-.4-.1-.9-.1-1.5-.1z"/><path d="M59 59.1c-1.4 4-2.8 7.7-4.2 11.4-.1.3-.7.5-1 .5H22.3c-.1 0-.3-.1-.6-.2 1.3-3.7 2.6-7.3 4-10.9.1-.3.7-.7 1-.7 10.7-.1 21.3-.1 32.3-.1z"/></g><path class="st2" d="M21.9 88.3c1.4-4.1 2.7-7.9 4.1-11.8.1-.4.9-.7 1.3-.7 2.3-.1 4.7 0 7 0h45.8c1.2 0 1.8-.4 2.1-1.5 2.5-7.5 5.2-15 7.8-22.5.1-.4.2-.8.4-1.4H34.9c1.4-4.2 2.8-8.1 4.1-12 .1-.3.7-.6 1.1-.6 1.4-.1 2.8 0 4.2 0 18.8 0 37.6.1 56.3-.1 5.6-.1 11.6 4.3 9.2 12.5-1.8 6.1-4.1 12.1-6.2 18.2-.7 2.1-1.4 4.1-2.1 6.2-2.6 7.2-7.9 11.6-15.2 13.6-.7.2-1.4.2-2.1.2H23.4c-.4-.1-.9-.1-1.5-.1z" fill="#FFF"/><path class="st2" d="M57 57.1c-1.4 4-2.8 7.7-4.2 11.4-.1.3-.7.5-1 .5H20.3c-.1 0-.3-.1-.6-.2 1.3-3.7 2.6-7.3 4-10.9.1-.3.7-.7 1-.7 10.7-.1 21.3-.1 32.3-.1z" fill="#FFF"/></svg>