<svg xmlns="http://www.w3.org/2000/svg" viewBox="0 0 128 128" xml:space="preserve"><linearGradient id="a" gradientUnits="userSpaceOnUse" x1="11.85" y1="116.15" x2="116.15" y2="11.85" gradientTransform="matrix(1 0 0 -1 0 128)"><stop offset="0" stop-color="#6E75B8"/><stop offset="1" stop-color="#495B9D"/></linearGradient><path d="M87.5 128h-47C18.1 128 0 109.9 0 87.5v-47C0 18.1 18.1 0 40.5 0h47C109.9 0 128 18.1 128 40.5v47c0 22.4-18.1 40.5-40.5 40.5z" fill="url(#a)" style="fill:url(#a)"/><path d="M67.2 89.2v22.7l28.2-39.5zm27.1-24.1-27.1-45v32.7zm-27.1-9.8v28l26.9-15.7zm-29.4 9.8 27.1-45v32.7zm27.1-9.8v28L38 67.6zm-.1 33.9v22.7L36.7 72.4z" opacity=".2" style="opacity:.2"/><path fill="#FFF" d="M65.2 87.2v22.7l28.2-39.5zm27.1-24.1-27.1-45v32.7zm-27.1-9.8v28l26.9-15.7zm-29.4 9.8 27.1-45v32.7zm27.1-9.8v28L36 65.6zm-.1 33.9v22.7L34.7 70.4z" style="fill:#fff"/></svg>