<svg xmlns="http://www.w3.org/2000/svg" viewBox="0 0 128 128" xml:space="preserve"><linearGradient id="a" gradientUnits="userSpaceOnUse" x1="11.862" y1="11.862" x2="116.138" y2="116.138"><stop offset="0" stop-color="#01A996"/><stop offset="1" stop-color="#008475"/></linearGradient><path d="M87.5 128h-47C18.1 128 0 109.9 0 87.5v-47C0 18.1 18.1 0 40.5 0h47C109.9 0 128 18.1 128 40.5v47c0 22.4-18.1 40.5-40.5 40.5z" fill="url(#a)" style="fill:url(#a)"/><path d="M81.6 26.9c-.1-2.8 2.4-5.4 5.6-5.3 2.8.1 5.1 2.5 5.1 5.4 0 3-2.5 5.3-5.6 5.3-2.8 0-5.1-2.5-5.1-5.4zM93 97.4c3 0 5.3 2.3 5.3 5.3s-2.4 5.4-5.4 5.4c-2.9 0-5.3-2.4-5.3-5.4 0-3 2.4-5.3 5.4-5.3zm-68.6-22c-3 0-5.3-2.4-5.3-5.5 0-2.9 2.4-5.2 5.4-5.2 3 0 5.3 2.4 5.3 5.5-.1 2.9-2.5 5.2-5.4 5.2zm59.5-34.2c0-2.6 2-4.6 4.6-4.6 2.5 0 4.6 2.1 4.6 4.6 0 2.5-2.1 4.6-4.6 4.6-2.6 0-4.6-2.1-4.6-4.6zm-48 15.9c2.6 0 4.6 2 4.7 4.5 0 2.5-2.1 4.6-4.6 4.6-2.5 0-4.6-2.1-4.6-4.6-.1-2.5 2-4.5 4.5-4.5zm64.5-9.7c-2.5 0-4.6-2.1-4.6-4.6 0-2.6 2.1-4.6 4.6-4.6 2.5 0 4.6 2.1 4.6 4.6 0 2.6-2 4.6-4.6 4.6zm-20.5 54.1c-2.5 0-4.6-2.1-4.6-4.6 0-2.5 2-4.5 4.6-4.6 2.5 0 4.6 2.1 4.6 4.6 0 2.5-2.1 4.6-4.6 4.6zm-44-51c0 2.5-2.1 4.6-4.6 4.6-2.5 0-4.5-2.1-4.5-4.6 0-2.5 2.1-4.6 4.6-4.6 2.5-.1 4.6 2 4.5 4.6zM72.4 111c-2.5 0-4.5-2-4.5-4.6 0-2.5 2-4.5 4.6-4.6 2.5 0 4.6 2.1 4.6 4.6-.1 2.6-2.1 4.6-4.7 4.6zM58.9 99.1c0-2.2 1.7-3.9 3.9-3.9s3.9 1.8 3.9 4-1.8 3.9-3.9 3.9c-2.2 0-3.9-1.8-3.9-4zm44-44.2c0 2.2-1.8 3.9-3.9 3.9-2.1 0-3.9-1.8-3.9-3.9 0-2.2 1.8-4 3.9-3.9 2.1 0 3.9 1.7 3.9 3.9zm-56.5-9.2c0 2.2-1.7 3.9-3.9 3.9s-3.9-1.7-3.9-4c0-2.2 1.7-3.9 3.9-3.9 2.3.1 4 1.8 3.9 4zM51 56.9c0 2.2-1.7 3.9-3.9 3.9s-3.9-1.7-3.9-3.9 1.7-4 3.9-3.9c2.2 0 3.9 1.7 3.9 3.9zM37 35.5c0-2.2 1.8-3.9 3.9-3.9 2.2 0 3.9 1.8 3.9 3.9 0 2.2-1.7 3.9-3.9 3.9S37 37.7 37 35.5zm46.1 17.8c0-2.2 1.7-3.9 3.9-3.9s4 1.8 3.9 4c0 2.2-1.8 3.9-3.9 3.9-2.2-.2-3.9-1.9-3.9-4zM70.2 85.7c2.1 0 3.9 1.8 3.9 3.9 0 2.2-1.8 3.9-4 3.9s-3.9-1.7-3.9-3.9c.1-2.2 1.9-3.9 4-3.9zm-11.5 19.9c0 2.2-1.7 3.9-3.9 3.9s-3.9-1.7-3.9-3.9 1.8-4 3.9-3.9c2.2 0 3.9 1.7 3.9 3.9zm49.8-43.1c-2.1 0-3.8-1.8-3.9-3.9 0-2.2 1.8-3.9 4-3.9 2.1 0 3.9 1.8 3.9 3.9 0 2.2-1.8 3.9-4 3.9zm-49 28.8c0 1.9-1.5 3.4-3.4 3.3-1.9 0-3.4-1.5-3.4-3.3 0-1.9 1.5-3.4 3.4-3.4s3.4 1.5 3.4 3.4zm-6.8-50.8c1.9 0 3.3 1.5 3.3 3.3 0 1.8-1.5 3.4-3.3 3.4-1.8 0-3.4-1.5-3.4-3.4.1-1.8 1.6-3.3 3.4-3.3zm7.5 41.2c0-1.9 1.4-3.4 3.3-3.4s3.4 1.5 3.4 3.3c0 1.9-1.5 3.3-3.3 3.3-1.9.1-3.4-1.3-3.4-3.2zm-12 19.4c-1.9 0-3.4-1.4-3.4-3.3s1.5-3.3 3.3-3.4c1.9 0 3.4 1.5 3.4 3.4 0 1.8-1.5 3.3-3.3 3.3zM86.7 63c0 1.8-1.4 3.3-3.3 3.3s-3.4-1.5-3.3-3.4c0-1.9 1.5-3.3 3.3-3.3 1.9 0 3.3 1.5 3.3 3.4zM51.1 37c-1.9 0-3.4-1.4-3.4-3.3s1.5-3.4 3.4-3.4c1.8 0 3.3 1.5 3.4 3.4 0 1.8-1.5 3.3-3.4 3.3zm44.3 31c-1.9 0-3.3-1.5-3.3-3.3 0-1.8 1.5-3.3 3.4-3.3s3.3 1.5 3.3 3.4c0 1.8-1.5 3.2-3.4 3.2zm-38.2-9.6c-1.8 0-3.3-1.5-3.3-3.4 0-1.8 1.6-3.3 3.4-3.3 1.9 0 3.3 1.5 3.3 3.4s-1.5 3.3-3.4 3.3zM105 71.6c-1.9-.1-3.3-1.6-3.3-3.5.1-1.8 1.6-3.3 3.4-3.2 1.9.1 3.4 1.6 3.3 3.6-.1 1.8-1.6 3.2-3.4 3.1zM66 58.4c-1.6 0-2.9-1.3-2.9-2.9 0-1.6 1.3-2.8 2.9-2.8 1.6 0 2.9 1.3 2.8 2.9.1 1.6-1.1 2.8-2.8 2.8zm31.4 17.3c0-1.6 1.2-2.9 2.8-2.9 1.6 0 2.9 1.2 2.9 2.9 0 1.6-1.4 3-2.9 3-1.5-.1-2.8-1.4-2.8-3zM62.7 34.2c0 1.6-1.2 2.8-2.9 2.8-1.6 0-2.9-1.3-2.9-2.9 0-1.6 1.3-2.9 3-2.8 1.6 0 2.8 1.3 2.8 2.9zm-.3 39.7c0 1.6-1.2 2.8-2.8 2.9-1.7 0-2.9-1.3-2.9-2.9 0-1.6 1.3-2.9 2.9-2.9 1.6 0 2.8 1.3 2.8 2.9zM52.2 86.3c-1.6 0-2.9-1.2-2.9-2.8 0-1.6 1.3-2.9 2.9-2.9 1.5 0 2.8 1.3 2.8 2.8 0 1.6-1.2 2.9-2.8 2.9zM93.5 72c0 1.6-1.2 2.9-2.9 2.9-1.5 0-2.9-1.4-2.9-2.9 0-1.6 1.3-2.9 2.9-2.9 1.7 0 2.9 1.3 2.9 2.9zm-14.8-4.5c1.7 0 2.8 1.2 2.9 2.8 0 1.6-1.2 2.9-2.9 2.9-1.6 0-2.9-1.3-2.9-2.9 0-1.6 1.2-2.8 2.9-2.8zM47 89.9c0 1.6-1.3 2.9-2.9 2.9-1.6 0-2.9-1.3-2.9-2.9 0-1.6 1.3-2.9 2.9-2.9 1.6 0 2.9 1.3 2.9 2.9zm14.5-42.7c-1.6 0-2.9-1.3-2.9-2.9 0-1.5 1.3-2.9 2.9-2.9 1.5 0 2.9 1.3 2.9 2.9 0 1.6-1.3 2.9-2.9 2.9zm26.3 29.9c0 1.4-1.1 2.5-2.5 2.5s-2.4-1.1-2.4-2.5 1.1-2.5 2.4-2.5c1.3.1 2.4 1.2 2.5 2.5zM60.2 66.6c0 1.4-1.1 2.5-2.4 2.5-1.3 0-2.5-1.2-2.5-2.5s1.2-2.5 2.5-2.5c1.3.1 2.4 1.2 2.4 2.5zM42.4 80.2c1.4 0 2.5 1.1 2.4 2.5 0 1.3-1.2 2.5-2.5 2.5-1.4 0-2.5-1.2-2.5-2.6.1-1.4 1.2-2.4 2.6-2.4zM73.2 60c-1.4 0-2.5-1-2.5-2.4s1-2.5 2.5-2.5c1.4 0 2.5 1.1 2.5 2.4 0 1.5-1.1 2.5-2.5 2.5zm-4.5-16.1c1.4 0 2.4 1.1 2.4 2.5s-1.1 2.5-2.4 2.5c-1.4 0-2.5-1.1-2.5-2.5s1.1-2.5 2.5-2.5zm-16 32.3c0 1.4-1.1 2.5-2.4 2.5-1.3 0-2.5-1.2-2.5-2.6 0-1.4 1.1-2.4 2.5-2.4s2.4 1.1 2.4 2.5zm20.6-3.1c1.4 0 2.4 1.1 2.4 2.5S74.6 78 73.3 78c-1.4 0-2.5-1.1-2.5-2.5.1-1.4 1.1-2.4 2.5-2.4zm24 7.7c0 1.4-1 2.5-2.5 2.5-1.4 0-2.4-1.1-2.4-2.5 0-1.3 1.1-2.5 2.4-2.5 1.4 0 2.5 1.1 2.5 2.5zm-30.2-47c1.4 0 2.4 1 2.4 2.4s-1.1 2.5-2.4 2.5c-1.4 0-2.5-1.1-2.5-2.5s1.1-2.4 2.5-2.4zm7.6 5.5c0 1.2-1 2.1-2.2 2.1-1.2 0-2.1-1-2.1-2.1 0-1.2.9-2.1 2.1-2.1 1.3 0 2.2.9 2.2 2.1zM40.1 76.2c0-1.2.9-2 2.1-2 1.2 0 2.2 1 2.1 2.2 0 1.1-1 2.1-2.1 2.1-1.2 0-2.1-1-2.1-2.3zm51.5 7.9c0 1.2-.9 2.2-2.1 2.2-1.2 0-2.2-1-2.2-2.1 0-1.2 1-2.1 2.2-2.1 1.2-.1 2.1.8 2.1 2zM52.3 69.9c0 1.2-1 2.1-2.1 2.1-1.2 0-2.1-1-2.1-2.2 0-1.1 1-2.1 2.1-2.1 1.2 0 2.1 1 2.1 2.2zm21.9-18.4c-1.2 0-2.1-.9-2.1-2.1 0-1.2.9-2.1 2.1-2.1 1.2 0 2.1.9 2.1 2.1 0 1.3-.9 2.1-2.1 2.1zm5.7 26.8c1.2 0 2.1.9 2.1 2.1 0 1.2-1 2.2-2.2 2.2-1.1 0-2-1-2-2.1 0-1.3.9-2.2 2.1-2.2zm-34.8-7.2c0 1-.8 1.8-1.8 1.8s-1.9-.9-1.9-1.9c0-1 .9-1.8 1.9-1.8 1.1.1 1.8.8 1.8 1.9zm41.1 14.7c0 1-.8 1.8-1.8 1.8s-1.8-.9-1.8-1.8c0-1 .8-1.8 1.9-1.8.9 0 1.7.8 1.7 1.8zm-9.7-44.7c1.1 0 1.9.7 1.9 1.8 0 1-.8 1.8-1.8 1.8s-1.8-.7-1.8-1.8c0-1 .7-1.8 1.7-1.8z" opacity=".2" style="opacity:.2"/><path d="M79.6 24.9c-.1-2.8 2.4-5.4 5.6-5.3 2.8.1 5.1 2.5 5.1 5.4 0 3-2.5 5.3-5.6 5.3-2.8 0-5.1-2.5-5.1-5.4zM91 95.4c3 0 5.3 2.3 5.3 5.3s-2.4 5.4-5.4 5.4c-2.9 0-5.3-2.4-5.3-5.4 0-3 2.4-5.3 5.4-5.3zm-68.6-22c-3 0-5.3-2.4-5.3-5.5 0-2.9 2.4-5.2 5.4-5.2 3 0 5.3 2.4 5.3 5.5-.1 2.9-2.5 5.2-5.4 5.2zm59.5-34.2c0-2.6 2-4.6 4.6-4.6 2.5 0 4.6 2.1 4.6 4.6 0 2.5-2.1 4.6-4.6 4.6-2.6 0-4.6-2.1-4.6-4.6zm-48 15.9c2.6 0 4.6 2 4.7 4.5 0 2.5-2.1 4.6-4.6 4.6-2.5 0-4.6-2.1-4.6-4.6-.1-2.5 2-4.5 4.5-4.5zm64.5-9.7c-2.5 0-4.6-2.1-4.6-4.6 0-2.6 2.1-4.6 4.6-4.6 2.5 0 4.6 2.1 4.6 4.6 0 2.6-2 4.6-4.6 4.6zM77.9 99.5c-2.5 0-4.6-2.1-4.6-4.6 0-2.5 2-4.5 4.6-4.6 2.5 0 4.6 2.1 4.6 4.6 0 2.5-2.1 4.6-4.6 4.6zm-44-51c0 2.5-2.1 4.6-4.6 4.6-2.5 0-4.5-2.1-4.5-4.6 0-2.5 2.1-4.6 4.6-4.6 2.5-.1 4.6 2 4.5 4.6zM70.4 109c-2.5 0-4.5-2-4.5-4.6 0-2.5 2-4.5 4.6-4.6 2.5 0 4.6 2.1 4.6 4.6-.1 2.6-2.1 4.6-4.7 4.6zM56.9 97.1c0-2.2 1.7-3.9 3.9-3.9s3.9 1.8 3.9 4-1.8 3.9-3.9 3.9c-2.2 0-3.9-1.8-3.9-4zm44-44.2c0 2.2-1.8 3.9-3.9 3.9-2.1 0-3.9-1.8-3.9-3.9 0-2.2 1.8-4 3.9-3.9 2.1 0 3.9 1.7 3.9 3.9zm-56.5-9.2c0 2.2-1.7 3.9-3.9 3.9s-3.9-1.7-3.9-4c0-2.2 1.7-3.9 3.9-3.9 2.3.1 4 1.8 3.9 4zM49 54.9c0 2.2-1.7 3.9-3.9 3.9s-3.9-1.7-3.9-3.9 1.7-4 3.9-3.9c2.2 0 3.9 1.7 3.9 3.9zM35 33.5c0-2.2 1.8-3.9 3.9-3.9 2.2 0 3.9 1.8 3.9 3.9 0 2.2-1.7 3.9-3.9 3.9S35 35.7 35 33.5zm46.1 17.8c0-2.2 1.7-3.9 3.9-3.9s4 1.8 3.9 4c0 2.2-1.8 3.9-3.9 3.9-2.2-.2-3.9-1.9-3.9-4zM68.2 83.7c2.1 0 3.9 1.8 3.9 3.9 0 2.2-1.8 3.9-4 3.9s-3.9-1.7-3.9-3.9c.1-2.2 1.9-3.9 4-3.9zm-11.5 19.9c0 2.2-1.7 3.9-3.9 3.9s-3.9-1.7-3.9-3.9 1.8-4 3.9-3.9c2.2 0 3.9 1.7 3.9 3.9zm49.8-43.1c-2.1 0-3.8-1.8-3.9-3.9 0-2.2 1.8-3.9 4-3.9 2.1 0 3.9 1.8 3.9 3.9 0 2.2-1.8 3.9-4 3.9zm-49 28.8c0 1.9-1.5 3.4-3.4 3.3-1.9 0-3.4-1.5-3.4-3.3 0-1.9 1.5-3.4 3.4-3.4s3.4 1.5 3.4 3.4zm-6.8-50.8c1.9 0 3.3 1.5 3.3 3.3 0 1.8-1.5 3.4-3.3 3.4-1.8 0-3.4-1.5-3.4-3.4.1-1.8 1.6-3.3 3.4-3.3zm7.5 41.2c0-1.9 1.4-3.4 3.3-3.4s3.4 1.5 3.4 3.3c0 1.9-1.5 3.3-3.3 3.3-1.9.1-3.4-1.3-3.4-3.2zm-12 19.4c-1.9 0-3.4-1.4-3.4-3.3s1.5-3.3 3.3-3.4c1.9 0 3.4 1.5 3.4 3.4 0 1.8-1.5 3.3-3.3 3.3zM84.7 61c0 1.8-1.4 3.3-3.3 3.3s-3.4-1.5-3.3-3.4c0-1.9 1.5-3.3 3.3-3.3 1.9 0 3.3 1.5 3.3 3.4zM49.1 35c-1.9 0-3.4-1.4-3.4-3.3s1.5-3.4 3.4-3.4c1.8 0 3.3 1.5 3.4 3.4 0 1.8-1.5 3.3-3.4 3.3zm44.3 31c-1.9 0-3.3-1.5-3.3-3.3 0-1.8 1.5-3.3 3.4-3.3s3.3 1.5 3.3 3.4c0 1.8-1.5 3.2-3.4 3.2zm-38.2-9.6c-1.8 0-3.3-1.5-3.3-3.4 0-1.8 1.6-3.3 3.4-3.3 1.9 0 3.3 1.5 3.3 3.4s-1.5 3.3-3.4 3.3zM103 69.6c-1.9-.1-3.3-1.6-3.3-3.5.1-1.8 1.6-3.3 3.4-3.2 1.9.1 3.4 1.6 3.3 3.6-.1 1.8-1.6 3.2-3.4 3.1zM64 56.4c-1.6 0-2.9-1.3-2.9-2.9 0-1.6 1.3-2.8 2.9-2.8 1.6 0 2.9 1.3 2.8 2.9.1 1.6-1.1 2.8-2.8 2.8zm31.4 17.3c0-1.6 1.2-2.9 2.8-2.9 1.6 0 2.9 1.2 2.9 2.9 0 1.6-1.4 3-2.9 3-1.5-.1-2.8-1.4-2.8-3zM60.7 32.2c0 1.6-1.2 2.8-2.9 2.8-1.6 0-2.9-1.3-2.9-2.9 0-1.6 1.3-2.9 3-2.8 1.6 0 2.8 1.3 2.8 2.9zm-.3 39.7c0 1.6-1.2 2.8-2.8 2.9-1.7 0-2.9-1.3-2.9-2.9 0-1.6 1.3-2.9 2.9-2.9 1.6 0 2.8 1.3 2.8 2.9zM50.2 84.3c-1.6 0-2.9-1.2-2.9-2.8 0-1.6 1.3-2.9 2.9-2.9 1.5 0 2.8 1.3 2.8 2.8 0 1.6-1.2 2.9-2.8 2.9zM91.5 70c0 1.6-1.2 2.9-2.9 2.9-1.5 0-2.9-1.4-2.9-2.9 0-1.6 1.3-2.9 2.9-2.9 1.7 0 2.9 1.3 2.9 2.9zm-14.8-4.5c1.7 0 2.8 1.2 2.9 2.8 0 1.6-1.2 2.9-2.9 2.9-1.6 0-2.9-1.3-2.9-2.9 0-1.6 1.2-2.8 2.9-2.8zM45 87.9c0 1.6-1.3 2.9-2.9 2.9-1.6 0-2.9-1.3-2.9-2.9 0-1.6 1.3-2.9 2.9-2.9 1.6 0 2.9 1.3 2.9 2.9zm14.5-42.7c-1.6 0-2.9-1.3-2.9-2.9 0-1.5 1.3-2.9 2.9-2.9 1.5 0 2.9 1.3 2.9 2.9 0 1.6-1.3 2.9-2.9 2.9zm26.3 29.9c0 1.4-1.1 2.5-2.5 2.5s-2.4-1.1-2.4-2.5 1.1-2.5 2.4-2.5c1.3.1 2.4 1.2 2.5 2.5zM58.2 64.6c0 1.4-1.1 2.5-2.4 2.5-1.3 0-2.5-1.2-2.5-2.5s1.2-2.5 2.5-2.5c1.3.1 2.4 1.2 2.4 2.5zM40.4 78.2c1.4 0 2.5 1.1 2.4 2.5 0 1.3-1.2 2.5-2.5 2.5-1.4 0-2.5-1.2-2.5-2.6.1-1.4 1.2-2.4 2.6-2.4zM71.2 58c-1.4 0-2.5-1-2.5-2.4s1-2.5 2.5-2.5c1.4 0 2.5 1.1 2.5 2.4 0 1.5-1.1 2.5-2.5 2.5zm-4.5-16.1c1.4 0 2.4 1.1 2.4 2.5s-1.1 2.5-2.4 2.5c-1.4 0-2.5-1.1-2.5-2.5s1.1-2.5 2.5-2.5zm-16 32.3c0 1.4-1.1 2.5-2.4 2.5-1.3 0-2.5-1.2-2.5-2.6 0-1.4 1.1-2.4 2.5-2.4s2.4 1.1 2.4 2.5zm20.6-3.1c1.4 0 2.4 1.1 2.4 2.5S72.6 76 71.3 76c-1.4 0-2.5-1.1-2.5-2.5.1-1.4 1.1-2.4 2.5-2.4zm24 7.7c0 1.4-1 2.5-2.5 2.5-1.4 0-2.4-1.1-2.4-2.5 0-1.3 1.1-2.5 2.4-2.5 1.4 0 2.5 1.1 2.5 2.5zm-30.2-47c1.4 0 2.4 1 2.4 2.4s-1.1 2.5-2.4 2.5c-1.4 0-2.5-1.1-2.5-2.5s1.1-2.4 2.5-2.4zm7.6 5.5c0 1.2-1 2.1-2.2 2.1-1.2 0-2.1-1-2.1-2.1 0-1.2.9-2.1 2.1-2.1 1.3 0 2.2.9 2.2 2.1zM38.1 74.2c0-1.2.9-2 2.1-2 1.2 0 2.2 1 2.1 2.2 0 1.1-1 2.1-2.1 2.1-1.2 0-2.1-1-2.1-2.3zm51.5 7.9c0 1.2-.9 2.2-2.1 2.2-1.2 0-2.2-1-2.2-2.1 0-1.2 1-2.1 2.2-2.1 1.2-.1 2.1.8 2.1 2zM50.3 67.9c0 1.2-1 2.1-2.1 2.1-1.2 0-2.1-1-2.1-2.2 0-1.1 1-2.1 2.1-2.1 1.2 0 2.1 1 2.1 2.2zm21.9-18.4c-1.2 0-2.1-.9-2.1-2.1 0-1.2.9-2.1 2.1-2.1 1.2 0 2.1.9 2.1 2.1 0 1.3-.9 2.1-2.1 2.1zm5.7 26.8c1.2 0 2.1.9 2.1 2.1 0 1.2-1 2.2-2.2 2.2-1.1 0-2-1-2-2.1 0-1.3.9-2.2 2.1-2.2zm-34.8-7.2c0 1-.8 1.8-1.8 1.8s-1.9-.9-1.9-1.9c0-1 .9-1.8 1.9-1.8 1.1.1 1.8.8 1.8 1.9zm41.1 14.7c0 1-.8 1.8-1.8 1.8s-1.8-.9-1.8-1.8c0-1 .8-1.8 1.9-1.8.9 0 1.7.8 1.7 1.8zm-9.7-44.7c1.1 0 1.9.7 1.9 1.8 0 1-.8 1.8-1.8 1.8s-1.8-.7-1.8-1.8c0-1 .7-1.8 1.7-1.8z" fill="#FFF" style="fill:#fff"/></svg>