<svg xmlns="http://www.w3.org/2000/svg" version="1.1" id="Layer_1" x="0" y="0" viewBox="0 0 128 128" xml:space="preserve"><style>.st2{fill:#fff}</style><linearGradient id="SVGID_1_" gradientUnits="userSpaceOnUse" x1="11.862" y1="11.862" x2="116.138" y2="116.138"><stop offset="0" stop-color="#E5D420"/><stop offset="1" stop-color="#F18121"/></linearGradient><path d="M87.5 128h-47C18.1 128 0 109.9 0 87.5v-47C0 18.1 18.1 0 40.5 0h47C109.9 0 128 18.1 128 40.5v47c0 22.4-18.1 40.5-40.5 40.5z" fill="url(#SVGID_1_)" style="fill:url(#SVGID_1_)"/><g opacity=".2" style="opacity:.2"><path d="M90.7 79.8c-12.4 10-20.2 22.6-24.5 37.6-4.4-15.1-12.2-27.6-24.6-37.6 2.3-1.8 4.5-3.7 6.9-5.3 7.9-5.4 16.8-8.7 26.1-10.9 5.9-1.4 11.9-2.6 17.5-5.2 3.5-1.6 6.5-3.8 8.8-6.9 3.8-5.2 3.5-10.2-1-14.8-2.5-2.6-5.5-4.5-8.7-6.1-.3-.1-.5-.3-.7-.5 5.2.6 10.1 1.9 14.3 5 2.9 2.1 4.8 4.9 5.7 8.4 1.2 4.9.3 9.2-3.2 12.9-3.5 3.7-7.9 6-12.4 8-6.2 2.7-12.8 4.1-19.3 5.6-7 1.6-13.7 3.8-19.9 7.6-1.1.7-2.2 1.5-3.3 2.3 6.3 6.1 10.1 13.6 13.8 21.4C69.8 93.6 73.6 86 80 79.8c-2.4-1.5-4.8-3-7.3-4.6 2.5-.6 5-1.1 7.4-1.8 1.2-.3 2.2-.1 3.2.7 2.4 1.9 4.8 3.7 7.4 5.7z"/><path d="M41.7 30c-2.5 1.7-5.2 3.3-7.6 5.2-1.4 1.1-2.6 2.5-3.5 3.9-2.4 3.6-2.2 7.3 0 10.9 2.8 4.6 6.9 7.5 11.8 9.2 5.1 1.7 10.3 2.9 15.4 4.3l.9.3c-2.9 1.5-5.7 2.9-8.5 4.3-.2.1-.6.1-.9.1-7.4-2-14.6-4.4-20.9-8.9-3.2-2.3-6-5.1-6.8-9.2-1.1-5.8.7-10.8 5.3-14.6 4.2-3.4 9.2-4.8 14.4-5.5h.4zM75 37.9c0 4.8-3.8 8.6-8.6 8.6-4.7 0-8.5-3.8-8.6-8.5 0-4.7 3.7-8.5 8.5-8.6 4.9 0 8.7 3.7 8.7 8.5zM60.1 81.1c2.1-.9 4-1.8 6-2.6.3-.1.7-.1 1 0l5.4 2.4c-2 3.3-4 6.5-5.9 9.7-2.1-3-4.3-6.2-6.5-9.5zm4-53c.7-1.5 1.1-2.8 1.9-4 1.9-2.9 3.1-5.9 2-9.5 1.3 1 1.6 2.4 1.9 3.7.8 3.2-.1 6.2-1.5 9.1-.1.3-.5.6-.8.7-1 .1-2.1 0-3.5 0zm7.8 1.1c1.2-.4 2.5-1 3.8-1.3 3.3-.8 6.3-2 8.3-5.1-.1.4-.1.9-.2 1.3-1.4 4.4-4.8 6.5-8.8 7.9-.2.1-.7-.1-.9-.3-.7-.7-1.3-1.5-2.2-2.5zm9.7 26.4c-1.9-.3-3.4-1.1-4.7-2.1-2.2-1.7-3.6-4.1-4.5-6.7-.1-.3.1-.9.3-1.2.6-.8 1.3-1.4 2.2-2.4.6 1.6 1.2 3 1.5 4.5.6 3 1.8 5.6 4.6 7.3.3 0 .3.3.6.6z"/><path d="M56.5 40.2c-1.4-.7-2.8-1.3-4-2-2.1-1.3-4.3-2.4-6.8-2.2-.9 0-1.8.3-3.1.5 2.4-1.7 4.7-2.5 7.2-2.2 2 .2 3.9 1 5.8 1.5.7.2 1.1.6.9 1.5-.2.7 0 1.6 0 2.9zm1.3-7.8c-.5-1.6-1.2-3.1-1.5-4.6-.6-3.1-2-5.6-4.9-7.5.4 0 .9 0 1.2.1 4.3 1.4 6.6 4.7 7.9 8.8.1.2-.1.7-.3.9-.7.8-1.4 1.4-2.4 2.3zm.3 11.3c.9.9 1.7 1.8 2.6 2.8-1 .4-2.1 1.1-3.3 1.3-3.6.7-6.7 1.9-8.5 5.6-.8-3.4 3.8-8 9.2-9.7zm18.2-8.1c1 .4 2.1.7 2.9 1.3 3.1 1.9 6.2 3.8 10.2 2.6 0 .2.1.4.1.6-1.4.5-2.7 1.1-4.1 1.4-3 .5-5.8 0-8.5-1.5-.6-.3-.8-.6-.7-1.3.2-.9.1-1.9.1-3.1zm-7.7 12.2c-.5 1.2-.9 2.4-1.6 3.5-2.7 4.5-2.8 5-2.1 9.9-1.4-1.4-2.2-3.6-2.2-6.2 0-2.3.5-4.5 1.6-6.5.2-.3.7-.6 1.2-.7h3.1zm-6.4-19.3c-3.6-2-5.4-9.2-3.3-13.5 0 .6.1 1 .1 1.4-.3 2.9 1 5.1 3.1 7 .9.8 1.4 1.6.7 2.8-.3.7-.4 1.5-.6 2.3zM44 45.4c3.8.1 6.5-1.3 8.7-3.9.2-.3.8-.4 1.1-.3 1.1.2 2.1.6 3.2.9-1.4 3.2-8.9 5.4-13 3.3zm26.7 1.7c3.2 2.5 5.8 9.5 3.4 12.9-.1-.9 0-1.6-.2-2.3-.4-2.2-1.5-4.1-3.2-5.5-.9-.8-1.2-1.6-.7-2.8.3-.6.4-1.4.7-2.3zM70 28.3c-.3-5.1 2.7-10.2 6.7-11.5-.7.9-1.5 1.6-1.9 2.5-.6 1.5-1.1 3.1-1.1 4.7 0 1.8-.5 3-2.2 3.6-.4.1-.9.4-1.5.7zM56.4 58.6c2.2-2.1 3.1-4.6 2.9-7.4-.1-1.3.3-2.2 1.6-2.7.7-.2 1.3-.7 2-1.1.6 4.5-3.1 10.9-6.5 11.2zm.4-24.4c-3.3 1.2-9.5-2.1-11.4-6.1.4.1.7.2.9.3 1.9 1.8 4.2 2.5 6.7 2.3 1.5-.1 2.3.4 2.8 1.7.2.7.7 1.2 1 1.8zm19-.6c2.6-3.7 9.5-5.4 12.8-3.4-1.1.1-2.1.2-3.1.4-2 .5-3.5 1.7-4.8 3.2-.6.8-1.3.9-2.2.6-.9-.3-1.8-.5-2.7-.8zM87.2 48c-2.3-2.4-5-3.2-8.1-3-.8.1-1.4-.2-1.8-1-.3-.8-.8-1.5-1.3-2.3 3.4-1.4 11.2 2.9 11.2 6.3z"/><path d="M43.3 41.5c2.6.2 5.1 0 7.4-1.5.2-.2.7.1 1.2.1-2 3.4-4.8 3.8-8.6 1.4zm37.1-22.4c-2.3 1.5-3.7 3.5-4.3 5.9-.1.3-.6.6-1.1 1-.6-4 1.8-7.1 5.4-6.9zm-26 10c-4 .9-6.4-1-7-5.1l.3-.3c.1.3.2.6.3.8 1.2 1.9 3.1 3 5.2 3.7.5.1.8.6 1.2.9zm-1.9 27.7c2.2-1.5 3.6-3.4 4.3-6 .1-.4.6-.6 1-1.1.6 4.2-.1 5.6-5.3 7.1zm10.3-42c.1 1.4.1 3 .2 4.5.1 1.4 1.7 2.4 1.1 4.1-3.2-2-3.6-5.9-1.3-8.6zm18.1 20.8c2.3-3.3 6-3.8 8.5-1.3-2.7-.5-5 0-7.2 1.3-.3.2-.8 0-1.3 0zM68.7 52.5c3.4 1.8 3.9 5.1 1.3 8.1 1.1-2.9-.8-5.3-1.3-8.1zm9.6-6.1c4.1-.5 6.3 1.2 7 5.1-1.1-.9-2.1-1.9-3.2-2.9-1-.9-2.9-.5-3.8-2.2z"/></g><path class="st2" d="M88.7 77.8c-12.4 10-20.2 22.6-24.5 37.6-4.4-15.1-12.2-27.6-24.6-37.6 2.3-1.8 4.5-3.7 6.9-5.3 7.9-5.4 16.8-8.7 26.1-10.9 5.9-1.4 11.9-2.6 17.5-5.2 3.5-1.6 6.5-3.8 8.8-6.9 3.8-5.2 3.5-10.2-1-14.8-2.5-2.6-5.5-4.5-8.7-6.1-.3-.1-.5-.3-.7-.5 5.2.6 10.1 1.9 14.3 5 2.9 2.1 4.8 4.9 5.7 8.4 1.2 4.9.3 9.2-3.2 12.9-3.5 3.7-7.9 6-12.4 8-6.2 2.7-12.8 4.1-19.3 5.6-7 1.6-13.7 3.8-19.9 7.6-1.1.7-2.2 1.5-3.3 2.3 6.3 6.1 10.1 13.6 13.8 21.4C67.8 91.6 71.6 84 78 77.8c-2.4-1.5-4.8-3-7.3-4.6 2.5-.6 5-1.1 7.4-1.8 1.2-.3 2.2-.1 3.2.7 2.4 1.9 4.8 3.7 7.4 5.7z" fill="#FFF"/><path class="st2" d="M39.7 28c-2.5 1.7-5.2 3.3-7.6 5.2-1.4 1.1-2.6 2.5-3.5 3.9-2.4 3.6-2.2 7.3 0 10.9 2.8 4.6 6.9 7.5 11.8 9.2 5.1 1.7 10.3 2.9 15.4 4.3l.9.3c-2.9 1.5-5.7 2.9-8.5 4.3-.2.1-.6.1-.9.1-7.4-2-14.6-4.4-20.9-8.9-3.2-2.3-6-5.1-6.8-9.2-1.1-5.8.7-10.8 5.3-14.6 4.2-3.4 9.2-4.8 14.4-5.5h.4zM73 35.9c0 4.8-3.8 8.6-8.6 8.6-4.7 0-8.5-3.8-8.6-8.5 0-4.7 3.7-8.5 8.5-8.6 4.9 0 8.7 3.7 8.7 8.5zM58.1 79.1c2.1-.9 4-1.8 6-2.6.3-.1.7-.1 1 0l5.4 2.4c-2 3.3-4 6.5-5.9 9.7-2.1-3-4.3-6.2-6.5-9.5zm4-53c.7-1.5 1.1-2.8 1.9-4 1.9-2.9 3.1-5.9 2-9.5 1.3 1 1.6 2.4 1.9 3.7.8 3.2-.1 6.2-1.5 9.1-.1.3-.5.6-.8.7-1 .1-2.1 0-3.5 0zm7.8 1.1c1.2-.4 2.5-1 3.8-1.3 3.3-.8 6.3-2 8.3-5.1-.1.4-.1.9-.2 1.3-1.4 4.4-4.8 6.5-8.8 7.9-.2.1-.7-.1-.9-.3-.7-.7-1.3-1.5-2.2-2.5zm9.7 26.4c-1.9-.3-3.4-1.1-4.7-2.1-2.2-1.7-3.6-4.1-4.5-6.7-.1-.3.1-.9.3-1.2.6-.8 1.3-1.4 2.2-2.4.6 1.6 1.2 3 1.5 4.5.6 3 1.8 5.6 4.6 7.3.3 0 .3.3.6.6z" fill="#FFF"/><path class="st2" d="M54.5 38.2c-1.4-.7-2.8-1.3-4-2-2.1-1.3-4.3-2.4-6.8-2.2-.9 0-1.8.3-3.1.5 2.4-1.7 4.7-2.5 7.2-2.2 2 .2 3.9 1 5.8 1.5.7.2 1.1.6.9 1.5-.2.7 0 1.6 0 2.9zm1.3-7.8c-.5-1.6-1.2-3.1-1.5-4.6-.6-3.1-2-5.6-4.9-7.5.4 0 .9 0 1.2.1 4.3 1.4 6.6 4.7 7.9 8.8.1.2-.1.7-.3.9-.7.8-1.4 1.4-2.4 2.3zm.3 11.3c.9.9 1.7 1.8 2.6 2.8-1 .4-2.1 1.1-3.3 1.3-3.6.7-6.7 1.9-8.5 5.6-.8-3.4 3.8-8 9.2-9.7zm18.2-8.1c1 .4 2.1.7 2.9 1.3 3.1 1.9 6.2 3.8 10.2 2.6 0 .2.1.4.1.6-1.4.5-2.7 1.1-4.1 1.4-3 .5-5.8 0-8.5-1.5-.6-.3-.8-.6-.7-1.3.2-.9.1-1.9.1-3.1zm-7.7 12.2c-.5 1.2-.9 2.4-1.6 3.5-2.7 4.5-2.8 5-2.1 9.9-1.4-1.4-2.2-3.6-2.2-6.2 0-2.3.5-4.5 1.6-6.5.2-.3.7-.6 1.2-.7h3.1z" fill="#FFF"/><path class="st2" d="M60.2 26.5c-3.6-2-5.4-9.2-3.3-13.5 0 .6.1 1 .1 1.4-.3 2.9 1 5.1 3.1 7 .9.8 1.4 1.6.7 2.8-.3.7-.4 1.5-.6 2.3zM42 43.4c3.8.1 6.5-1.3 8.7-3.9.2-.3.8-.4 1.1-.3 1.1.2 2.1.6 3.2.9-1.4 3.2-8.9 5.4-13 3.3zm26.7 1.7c3.2 2.5 5.8 9.5 3.4 12.9-.1-.9 0-1.6-.2-2.3-.4-2.2-1.5-4.1-3.2-5.5-.9-.8-1.2-1.6-.7-2.8.3-.6.4-1.4.7-2.3zM68 26.3c-.3-5.1 2.7-10.2 6.7-11.5-.7.9-1.5 1.6-1.9 2.5-.6 1.5-1.1 3.1-1.1 4.7 0 1.8-.5 3-2.2 3.6-.4.1-.9.4-1.5.7zM54.4 56.6c2.2-2.1 3.1-4.6 2.9-7.4-.1-1.3.3-2.2 1.6-2.7.7-.2 1.3-.7 2-1.1.6 4.5-3.1 10.9-6.5 11.2zm.4-24.4c-3.3 1.2-9.5-2.1-11.4-6.1.4.1.7.2.9.3 1.9 1.8 4.2 2.5 6.7 2.3 1.5-.1 2.3.4 2.8 1.7.2.7.7 1.2 1 1.8zm19-.6c2.6-3.7 9.5-5.4 12.8-3.4-1.1.1-2.1.2-3.1.4-2 .5-3.5 1.7-4.8 3.2-.6.8-1.3.9-2.2.6-.9-.3-1.8-.5-2.7-.8zM85.2 46c-2.3-2.4-5-3.2-8.1-3-.8.1-1.4-.2-1.8-1-.3-.8-.8-1.5-1.3-2.3 3.4-1.4 11.2 2.9 11.2 6.3z" fill="#FFF"/><path class="st2" d="M41.3 39.5c2.6.2 5.1 0 7.4-1.5.2-.2.7.1 1.2.1-2 3.4-4.8 3.8-8.6 1.4zm37.1-22.4c-2.3 1.5-3.7 3.5-4.3 5.9-.1.3-.6.6-1.1 1-.6-4 1.8-7.1 5.4-6.9zm-26 10c-4 .9-6.4-1-7-5.1l.3-.3c.1.3.2.6.3.8 1.2 1.9 3.1 3 5.2 3.7.5.1.8.6 1.2.9zm-1.9 27.7c2.2-1.5 3.6-3.4 4.3-6 .1-.4.6-.6 1-1.1.6 4.2-.1 5.6-5.3 7.1zm10.3-42c.1 1.4.1 3 .2 4.5.1 1.4 1.7 2.4 1.1 4.1-3.2-2-3.6-5.9-1.3-8.6zm18.1 20.8c2.3-3.3 6-3.8 8.5-1.3-2.7-.5-5 0-7.2 1.3-.3.2-.8 0-1.3 0zM66.7 50.5c3.4 1.8 3.9 5.1 1.3 8.1 1.1-2.9-.8-5.3-1.3-8.1zm9.6-6.1c4.1-.5 6.3 1.2 7 5.1-1.1-.9-2.1-1.9-3.2-2.9-1-.9-2.9-.5-3.8-2.2z" fill="#FFF"/></svg>