<svg xmlns="http://www.w3.org/2000/svg" viewBox="0 0 128 128" xml:space="preserve"><linearGradient id="a" gradientUnits="userSpaceOnUse" x1="11.862" y1="11.862" x2="116.138" y2="116.138"><stop offset="0" stop-color="#DDD"/><stop offset="1" stop-color="#BCBCBC"/></linearGradient><path d="M87.5 128h-47C18.1 128 0 109.9 0 87.5v-47C0 18.1 18.1 0 40.5 0h47C109.9 0 128 18.1 128 40.5v47c0 22.4-18.1 40.5-40.5 40.5z" fill="url(#a)" style="fill:url(#a)"/><path d="m61.5 89.6 5-19 11.9-4.4 3-11.2-.1-.2-11.7 4.3L78 27.2H54L42.9 68.8l-9.2 3.4-3.1 11.5 9.3-3.4-6.6 24.5h64l4.1-15.2z" opacity=".2" style="opacity:.2"/><path fill="#FFF" d="m59.5 87.6 5-19 11.9-4.4 3-11.2-.1-.2-11.7 4.3L76 25.2H52L40.9 66.8l-9.2 3.4-3.1 11.5 9.3-3.4-6.6 24.5h64l4.1-15.2z" style="fill:#fff"/></svg>