<svg xmlns="http://www.w3.org/2000/svg" version="1.1" id="Layer_1" x="0" y="0" viewBox="0 0 128 128" xml:space="preserve"><style>.st2{fill:#fff}</style><linearGradient id="SVGID_1_" gradientUnits="userSpaceOnUse" x1="11.862" y1="11.862" x2="116.138" y2="116.138"><stop offset="0" stop-color="#CDDC2B"/><stop offset="1" stop-color="#B0BF36"/></linearGradient><path d="M87.5 128h-47C18.1 128 0 109.9 0 87.5v-47C0 18.1 18.1 0 40.5 0h47C109.9 0 128 18.1 128 40.5v47c0 22.4-18.1 40.5-40.5 40.5z" fill="url(#SVGID_1_)" style="fill:url(#SVGID_1_)"/><g opacity=".2" style="opacity:.2"><path d="M65.1 78.6c0 5.8-4.7 10.6-10.6 10.8-5.7.2-11.2-4.6-11.7-10.3-.1-1 0-2 0-3 0-8.2-2.6-10.8-10.7-10.9-7-.1-10.6-2.3-12.6-7.5-1.8-4.6-.6-8.6 2.6-11.9 3.1-3.1 7.2-4 11.5-2.5 4.6 1.6 6.8 5 7.4 9.6.1.8 0 1.7 0 2.6 0 8.4 3 11.4 11.3 11.4 8.2.1 12.8 4.3 12.8 11.7zm2.4-23.8c.3-7.2 4.5-11.6 10.4-11.9 5.6-.3 10.5 3.9 11.3 9.7 1.7 12.9 1.7 12.9 14.5 14.6 6.3.8 10.3 5.8 9.8 12-.4 5.6-5.4 10.1-11.1 9.9-5.9-.2-10.3-4.8-10.5-11v-3.5c-.2-6.3-3.7-9.7-10.1-9.8-5-.1-9.9-.5-12.6-5.6-1.1-1.7-1.4-3.7-1.7-4.4z"/><path d="M89.3 78.3c0 5-3.6 9.5-8.6 10.5-2.2.4-4.6.3-6.9.4-5.2.3-8.5 3.7-8.8 8.8-.1 2.2-.1 4.3-.4 6.5-.9 5.5-6 9.4-11.4 9-5.7-.5-10.2-5.3-10.1-11 .1-5.6 4.3-10.2 9.9-10.7.6-.1 1.1 0 1.7 0 10.1-.2 12.8-3 12.8-13 0-8.1 6.7-13.2 14.2-10.9 4.6 1.3 7.6 5.5 7.6 10.4zM54 64.6c-5.9-.1-10.5-4.4-10.9-10.1-.4-5.8 3.8-10.8 9.9-11.6 1.7-.2 3.4 0 5.2-.1 5.2-.2 8.5-3.3 9.1-8.5.2-2 .1-4 .3-6 .7-6.1 5.5-10 11.6-9.7 5.3.3 9.8 5.1 10 10.6.1 6-4.2 10.7-10.3 11.2-1 .1-2 0-3 0-7.7.1-10.9 3.5-10.9 11.2.1 7.9-4.3 13.1-11 13z"/></g><path class="st2" d="M63.1 76.6c0 5.8-4.7 10.6-10.6 10.8-5.7.2-11.2-4.6-11.7-10.3-.1-1 0-2 0-3 0-8.2-2.6-10.8-10.7-10.9-7-.1-10.6-2.3-12.6-7.5-1.8-4.6-.6-8.6 2.6-11.9 3.1-3.1 7.2-4 11.5-2.5 4.6 1.6 6.8 5 7.4 9.6.1.8 0 1.7 0 2.6 0 8.4 3 11.4 11.3 11.4 8.2.1 12.8 4.3 12.8 11.7zm2.4-23.8c.3-7.2 4.5-11.6 10.4-11.9 5.6-.3 10.5 3.9 11.3 9.7 1.7 12.9 1.7 12.9 14.5 14.6 6.3.8 10.3 5.8 9.8 12-.4 5.6-5.4 10.1-11.1 9.9-5.9-.2-10.3-4.8-10.5-11v-3.5c-.2-6.3-3.7-9.7-10.1-9.8-5-.1-9.9-.5-12.6-5.6-1.1-1.7-1.4-3.7-1.7-4.4z" fill="#FFF"/><path class="st2" d="M87.3 76.3c0 5-3.6 9.5-8.6 10.5-2.2.4-4.6.3-6.9.4-5.2.3-8.5 3.7-8.8 8.8-.1 2.2-.1 4.3-.4 6.5-.9 5.5-6 9.4-11.4 9-5.7-.5-10.2-5.3-10.1-11 .1-5.6 4.3-10.2 9.9-10.7.6-.1 1.1 0 1.7 0 10.1-.2 12.8-3 12.8-13 0-8.1 6.7-13.2 14.2-10.9 4.6 1.3 7.6 5.5 7.6 10.4zM52 62.6c-5.9-.1-10.5-4.4-10.9-10.1-.4-5.8 3.8-10.8 9.9-11.6 1.7-.2 3.4 0 5.2-.1 5.2-.2 8.5-3.3 9.1-8.5.2-2 .1-4 .3-6 .7-6.1 5.5-10 11.6-9.7 5.3.3 9.8 5.1 10 10.6.1 6-4.2 10.7-10.3 11.2-1 .1-2 0-3 0-7.7.1-10.9 3.5-10.9 11.2.1 7.9-4.3 13.1-11 13z" fill="#FFF"/></svg>