<svg xmlns="http://www.w3.org/2000/svg" viewBox="0 0 128 128" xml:space="preserve"><linearGradient id="a" gradientUnits="userSpaceOnUse" x1="11.862" y1="11.862" x2="116.138" y2="116.138"><stop offset="0" stop-color="#3EBB9A"/><stop offset="1" stop-color="#038675"/></linearGradient><path d="M87.5 128h-47C18.1 128 0 109.9 0 87.5v-47C0 18.1 18.1 0 40.5 0h47C109.9 0 128 18.1 128 40.5v47c0 22.4-18.1 40.5-40.5 40.5z" fill="url(#a)" style="fill:url(#a)"/><path d="M104.3 99.1c0 3-2.1 5.2-5.1 5.2-7 0-14 .1-21 0-12.5-.3-23-10.1-24.4-22.6-.5-4.5.2-8.7 1.9-12.8 2.4-5.8 1.6-10.1-2.8-14.5-4.7-4.7-9.4-9.3-14-14-1.5-1.5-3.1-2.1-5.2-1.9-3.2.3-5.9-2.1-6.1-5.2-.1-3 2.4-5.5 5.4-5.6 3.2 0 5.6 2.5 5.4 5.8-.2 2.3.6 4 2.2 5.6 4.6 4.5 9.2 9.2 13.8 13.8 4.4 4.4 8.8 5.3 14.5 2.8 15-6.4 32.3 2.8 34.9 18.7.8 4.6.6 21.2.5 24.7zM94.2 83.8v-4.3c.1-11.4-9.7-16.7-17-15.7-7.5 1-13.4 7.3-13.4 14.8-.1 7.9 5.6 14.5 13.2 15.2 4.3.4 8.6.3 12.9.2 2.5 0 4.1-1.7 4.2-4.3.1-1.9.1-3.9.1-5.9z" opacity=".2" style="opacity:.2"/><path d="M102.3 97.1c0 3-2.1 5.2-5.1 5.2-7 0-14 .1-21 0-12.5-.3-23-10.1-24.4-22.6-.5-4.5.2-8.7 1.9-12.8 2.4-5.8 1.6-10.1-2.8-14.5-4.7-4.7-9.4-9.3-14-14-1.5-1.5-3.1-2.1-5.2-1.9-3.2.3-5.9-2.1-6.1-5.2-.1-3 2.4-5.5 5.4-5.6 3.2 0 5.6 2.5 5.4 5.8-.2 2.3.6 4 2.2 5.6 4.6 4.5 9.2 9.2 13.8 13.8 4.4 4.4 8.8 5.3 14.5 2.8 15-6.4 32.3 2.8 34.9 18.7.8 4.6.6 21.2.5 24.7zM92.2 81.8v-4.3c.1-11.4-9.7-16.7-17-15.7-7.5 1-13.4 7.3-13.4 14.8-.1 7.9 5.6 14.5 13.2 15.2 4.3.4 8.6.3 12.9.2 2.5 0 4.1-1.7 4.2-4.3.1-1.9.1-3.9.1-5.9z" fill="#FFF" style="fill:#fff"/></svg>