<svg xmlns="http://www.w3.org/2000/svg" viewBox="0 0 128 128" xml:space="preserve"><linearGradient id="a" gradientUnits="userSpaceOnUse" x1="11.862" y1="11.862" x2="116.138" y2="116.138"><stop offset="0" stop-color="#2A8AC7"/><stop offset="1" stop-color="#1873AD"/></linearGradient><path d="M87.5 128h-47C18.1 128 0 109.9 0 87.5v-47C0 18.1 18.1 0 40.5 0h47C109.9 0 128 18.1 128 40.5v47c0 22.4-18.1 40.5-40.5 40.5z" fill="url(#a)" style="fill:url(#a)"/><path d="M65.9 107c-.4 0-.7-.1-1.1-.3L23.3 80.5c-.9-.6-1.2-1.8-.6-2.8.6-.9 1.8-1.2 2.8-.6L66 102.6l39.7-25.5v-7.2L66.4 94.6c-.7.4-1.5.4-2.2 0L23.3 68c-.6-.4-.9-1-.9-1.7V54.1c0-.1 0-.2.1-.3.1-.4.4-.8.7-1 0 0 .1 0 .1-.1l41.6-27.3c.7-.4 1.5-.4 2.2 0l41.4 27.4c.6.4.9 1 .9 1.7s-.4 1.3-.9 1.7L67.1 82.4c-.7.4-1.5.4-2.1 0L26.4 58v7.2l39 25.4 41.1-26c.6-.4 1.4-.4 2-.1.6.4 1 1 1 1.8v11.9c0 .7-.3 1.3-.9 1.7L67 106.7c-.3.2-.7.3-1.1.3zM28.1 54.3l37.9 24 37.8-24L66 29.4 28.1 54.3z" opacity=".2" style="opacity:.2"/><path d="M63.9 105c-.4 0-.7-.1-1.1-.3L21.3 78.5c-.9-.6-1.2-1.8-.6-2.8.6-.9 1.8-1.2 2.8-.6L64 100.6l39.7-25.5v-7.2L64.4 92.6c-.7.4-1.5.4-2.2 0L21.3 66c-.6-.4-.9-1-.9-1.7V52.1c0-.1 0-.2.1-.3.1-.4.4-.8.7-1 0 0 .1 0 .1-.1l41.6-27.3c.7-.4 1.5-.4 2.2 0l41.4 27.4c.6.4.9 1 .9 1.7s-.4 1.3-.9 1.7L65.1 80.4c-.7.4-1.5.4-2.1 0L24.4 56v7.2l39 25.4 41.1-26c.6-.4 1.4-.4 2-.1.6.4 1 1 1 1.8v11.9c0 .7-.3 1.3-.9 1.7L65 104.7c-.3.2-.7.3-1.1.3zM26.1 52.3l37.9 24 37.8-24L64 27.4 26.1 52.3z" fill="#FFF" style="fill:#fff"/></svg>