<svg xmlns="http://www.w3.org/2000/svg" viewBox="0 0 128 128" xml:space="preserve"><linearGradient id="a" gradientUnits="userSpaceOnUse" x1="11.862" y1="11.862" x2="116.138" y2="116.138"><stop offset="0" stop-color="#1D97D4"/><stop offset="1" stop-color="#047DB7"/></linearGradient><path d="M87.5 128h-47C18.1 128 0 109.9 0 87.5v-47C0 18.1 18.1 0 40.5 0h47C109.9 0 128 18.1 128 40.5v47c0 22.4-18.1 40.5-40.5 40.5z" fill="url(#a)" style="fill:url(#a)"/><path d="M20.1 97.8c.8-3.2 1.5-6.1 2.3-9.2 3.6.3 5.3-1.7 6.3-4.7 1.6-5.1 3.1-10.3 4.7-15.9-4.1 2-7.9.6-12 1.3.6-2.6 1.1-4.9 1.8-7.2.1-.3 1-.6 1.5-.6 3.3-.1 6.6 0 9.9 0 1.2-4.4 2.3-8.8 3.5-13.1 1.1-3.8 2.7-7.3 4.9-10.6 4.9-7.3 14.5-6.2 18.6.2 2.8 4.3 4.3 9.1 5.6 14 2.6 10.2 5.1 20.4 7.7 30.6.4 1.4.9 2.8 1.6 4 1 1.9 2.6 2 3.4 0 1.3-3.4 2.4-6.9 3.4-10.5 2.5-9.7 4.9-19.5 7.4-29.3 1-3.9 3-7.4 5.7-10.5 1.9-2.1 4.2-3.4 7.1-3.5 2.2-.1 4.3 0 6.7 0-.8 3.2-1.5 6.1-2.3 9.2-3.8-.5-5.5 1.8-6.4 4.8-1.6 5.1-3 10.2-4.5 15.6 4.1-1.9 7.9-.6 12-1.1-.7 2.8-1.3 5.2-1.9 7.7H95.8c-.7 2.8-1.4 5.5-2.1 8.2-1.5 5.6-3 11.2-6.6 15.9-4.6 6-12.8 6.1-17.5.2-3-3.7-4.5-8.1-5.6-12.6-2.8-10.5-5.4-21.1-8.1-31.7-.5-1.8-1.1-3.6-1.9-5.3-.3-.6-1.2-1.4-1.8-1.4-.5 0-1.4.8-1.6 1.4-1.3 4-2.6 7.9-3.7 11.9-2.4 9.2-4.5 18.5-7.1 27.6-.9 3.3-2.8 6.4-4.6 9.4-2.2 3.4-5.2 5.1-8.9 5.2-2 .1-4 0-6.2 0z" opacity=".2" style="opacity:.2"/><path d="M18.1 95.8c.8-3.2 1.5-6.1 2.3-9.2 3.6.3 5.3-1.7 6.3-4.7 1.6-5.1 3.1-10.3 4.7-15.9-4.1 2-7.9.6-12 1.3.6-2.6 1.1-4.9 1.8-7.2.1-.3 1-.6 1.5-.6 3.3-.1 6.6 0 9.9 0 1.2-4.4 2.3-8.8 3.5-13.1 1.1-3.8 2.7-7.3 4.9-10.6 4.9-7.3 14.5-6.2 18.6.2 2.8 4.3 4.3 9.1 5.6 14 2.6 10.2 5.1 20.4 7.7 30.6.4 1.4.9 2.8 1.6 4 1 1.9 2.6 2 3.4 0 1.3-3.4 2.4-6.9 3.4-10.5 2.5-9.7 4.9-19.5 7.4-29.3 1-3.9 3-7.4 5.7-10.5 1.9-2.1 4.2-3.4 7.1-3.5 2.2-.1 4.3 0 6.7 0-.8 3.2-1.5 6.1-2.3 9.2-3.8-.5-5.5 1.8-6.4 4.8-1.6 5.1-3 10.2-4.5 15.6 4.1-1.9 7.9-.6 12-1.1-.7 2.8-1.3 5.2-1.9 7.7H93.8c-.7 2.8-1.4 5.5-2.1 8.2-1.5 5.6-3 11.2-6.6 15.9-4.6 6-12.8 6.1-17.5.2-3-3.7-4.5-8.1-5.6-12.6-2.8-10.5-5.4-21.1-8.1-31.7-.5-1.8-1.1-3.6-1.9-5.3-.3-.6-1.2-1.4-1.8-1.4-.5 0-1.4.8-1.6 1.4-1.3 4-2.6 7.9-3.7 11.9-2.4 9.2-4.5 18.5-7.1 27.6-.9 3.3-2.8 6.4-4.6 9.4-2.2 3.4-5.2 5.1-8.9 5.2-2 .1-4 0-6.2 0z" fill="#FFF" style="fill:#fff"/></svg>