<svg xmlns="http://www.w3.org/2000/svg" version="1.1" id="Layer_1" x="0" y="0" viewBox="0 0 128 128" xml:space="preserve"><style>.st2{fill:#fff}</style><linearGradient id="SVGID_1_" gradientUnits="userSpaceOnUse" x1="11.862" y1="11.862" x2="116.138" y2="116.138"><stop offset="0" stop-color="#41BAD3"/><stop offset="1" stop-color="#169CD8"/></linearGradient><path d="M87.5 128h-47C18.1 128 0 109.9 0 87.5v-47C0 18.1 18.1 0 40.5 0h47C109.9 0 128 18.1 128 40.5v47c0 22.4-18.1 40.5-40.5 40.5z" fill="url(#SVGID_1_)" style="fill:url(#SVGID_1_)"/><g opacity=".2" style="opacity:.2"><path d="m42.8 57.4 4.6 4.3c1.4 1.3 3.5 1.3 4.9 0l9.3-8.6c2.6-2.4 6.5-2.4 9.1 0l9.3 8.6c1.4 1.3 3.5 1.3 4.9 0l4.6-4.3 7-7c1.3-1.3 1.3-3.5 0-4.9L73.4 22.4c-4-4-10.5-4-14.5 0L35.8 45.5c-1.4 1.4-1.4 3.5 0 4.9l7 7z"/><path d="m106.9 60.8-5.7-5.4c-1.4-1.3-3.5-1.3-4.9 0L87 64c-2.6 2.4-6.5 2.4-9.1 0l-9.3-8.6c-1.4-1.3-3.5-1.3-4.9 0L54.4 64c-2.6 2.4-6.5 2.4-9.1 0L36 55.4c-1.4-1.3-3.5-1.3-4.9 0l-5.2 4.9c-4.8 4.5-9.9 6.5-3.3 13.1l36.3 36.3c4 4 10.5 4 14.5 0l36.3-36.3c6.2-6.4 1.8-8.3-2.8-12.6z"/></g><path class="st2" d="m40.8 55.4 4.6 4.3c1.4 1.3 3.5 1.3 4.9 0l9.3-8.6c2.6-2.4 6.5-2.4 9.1 0l9.3 8.6c1.4 1.3 3.5 1.3 4.9 0l4.6-4.3 7-7c1.3-1.3 1.3-3.5 0-4.9L71.4 20.4c-4-4-10.5-4-14.5 0L33.8 43.5c-1.4 1.4-1.4 3.5 0 4.9l7 7z" fill="#FFF"/><path class="st2" d="m104.9 58.8-5.7-5.4c-1.4-1.3-3.5-1.3-4.9 0L85 62c-2.6 2.4-6.5 2.4-9.1 0l-9.3-8.6c-1.4-1.3-3.5-1.3-4.9 0L52.4 62c-2.6 2.4-6.5 2.4-9.1 0L34 53.4c-1.4-1.3-3.5-1.3-4.9 0l-5.2 4.9c-4.8 4.5-9.9 6.5-3.3 13.1l36.3 36.3c4 4 10.5 4 14.5 0l36.3-36.3c6.2-6.4 1.8-8.3-2.8-12.6z" fill="#FFF"/></svg>