<svg xmlns="http://www.w3.org/2000/svg" viewBox="0 0 128 128" xml:space="preserve"><linearGradient id="a" gradientUnits="userSpaceOnUse" x1="11.862" y1="11.862" x2="116.138" y2="116.138"><stop offset="0" stop-color="#AA8B54"/><stop offset="1" stop-color="#886C3C"/></linearGradient><path d="M87.5 128h-47C18.1 128 0 109.9 0 87.5v-47C0 18.1 18.1 0 40.5 0h47C109.9 0 128 18.1 128 40.5v47c0 22.4-18.1 40.5-40.5 40.5z" fill="url(#a)" style="fill:url(#a)"/><path d="M24.4 99.8h6.4V80.2h6.1v-5.1h8.5c.3-1.6-.1-3.1.2-4.7h8.2v-2.1c-1.9-.7-3.8-1.5-5.8-2.3v-.1c.7-.3 1.5-.6 2.2-.9 1.1-.4 2.2-.9 3.3-1.3.1-.1.2-.3.3-.4v-2h-8.3v-4.7h-8.6v-5.1h-6.1V32.6c0-.7 0-.7-.7-.7h-5.8v-2.2h26.1v2.2H39.3v16h6.1v4c0 .7 0 .7.7.7h8v2.3h9.1c-.4-1.2-1.7-2.7-2.9-2.6l.2.2c.4.5.4 1 0 1.5-.5.5-1.6.5-2.1 0-1-1.1-.3-2 .8-2.4 1.4-.6 2.5 0 3.6.9.7.6 1 1.4 1.5 2.1 0 .1.1.1.2.2 1.1-2.8 2.2-5.5 3.2-8.3h.1c1.2 2.7 2.2 5.6 3.3 8.4.4-.7.8-1.3 1.2-1.9.7-1 1.7-1.6 2.8-1.7.9-.1 1.8.3 2.3 1.2 0 .1.1.2.1.3.1.6-.4 1.4-1 1.6-.7.2-1.4 0-1.7-.6-.2-.4-.1-.8.2-1.2l.2-.2c-1.2-.1-2.5 1.1-2.9 2.6h9v-2.3h8.6V48h6.2V32.6c0-.6 0-.6-.6-.6H85v-2.3h26.1v2.2h-6.5v19.6h-6.1v5.1h-8.6v4.7h-8.5v2c0 .1.2.2.3.3 1.7.7 3.4 1.4 5.1 2 .2.1.3.1.5.3l-6 2.4v1.4c0 .4.1.5.5.5h8v4.7h8.6V80h6.1v19.6h6.6v2.2c0 .1-.1.2-.3.3h-8.7c-5.4 0-10.9 0-16.3-.1-.8 0-.9-.2-.9-1v-1.4h11V83.7h-5.6c-.6 0-.6 0-.6-.6v-4h-8.6v-1.6c0-.7 0-.7-.7-.7H72c.2 1.2 1.6 2.8 2.9 2.8 0-.1-.1-.1-.1-.2-.5-.6-.5-.9-.2-1.4.3-.5 1-.7 1.6-.6.5.1.8.5 1 .9.3.6 0 1.3-.7 1.7-1.1.7-2.5.5-3.5-.4-.8-.7-1.4-1.5-2-2.5-1.1 2.9-2.3 5.7-3.4 8.6h-.1c-1.1-2.8-2.2-5.7-3.4-8.6-.1.2-.3.4-.3.5-.5 1.3-1.4 2.1-2.6 2.6-1.1.4-2.4.3-3.2-1-.1-.2-.1-.5-.1-.7.2-.8 1.1-1.3 1.9-1.1.8.2 1.1 1.2.6 1.8l-.3.3c.8.5 2.6-1.1 3-2.7h-8.5c-.6 0-.6 0-.6.6v1.7h-8.6v4.1c0 .6 0 .6-.6.6h-5.6v14.5c0 .3-.1.6-.1.9 0 .2.1.4.1.6h10.5c.6 0 .6 0 .6.6v1.7H25.2c-.3 0-.7.1-.9 0-.1-.1-.1-.5-.1-.8v-.8c.1-.2.1-.4.2-.7zm46.9-31.4c.6-.6 1.3-1.3 2-1.9.6.4 1.2.8 1.6 1.3.5.5.8 1.1 1.2 1.7.5-.4 1-.8 1.5-1.3-.4-.4-.8-.8-1.2-1.1-.4-.3-.9-.5-1.3-.8 1.1-.2 2.1-.1 2.8.6.8-.4 1.5-.7 2.2-.9-.6-.3-1.3-.7-1.9-1-.1-.1-.4 0-.5.1-.8.7-1.7.7-2.8.6 1-.5 2-.9 2.6-1.9-.5-.4-1.1-.9-1.6-1.3-.8 1.9-2 2.6-3 3-.6-.6-1.2-1.1-1.7-1.7.4-.9.7-1.7 1.1-2.5l-.1-.1c-.3.1-.6.3-.9.4-.5.2-.9.3-1.4.5-.3.1-.4 0-.6-.1-.6-.7-1.3-1.3-1.9-2-.2.1-.3.2-.3.2l-1.7 1.7c-.2.2-.4.3-.7.2-.7-.3-1.5-.6-2.4-1 .4 1 .8 1.9 1.1 2.6-.6.7-1.2 1.3-1.8 2-.6-.4-1.2-.8-1.6-1.3-.5-.5-.8-1.1-1.2-1.7-.5.4-1 .9-1.6 1.3.4.4.8.8 1.2 1.1.4.3.9.5 1.4.8-1.3.2-1.6.1-3-.7-.2.1-.5.3-.7.4-.2.1-.5.2-.8.3-.3.1-.6 0-.7.3.8.3 1.5.7 2.2 1 .4-.2.8-.6 1.3-.7.5-.1 1-.1 1.6-.1v.1c-.9.5-1.9.9-2.5 1.9.5.4 1.1.9 1.7 1.3.5-1.4 1.5-2.4 2.8-3 .5.5 1 .9 1.4 1.4.1.1.1.3.1.5-.2.6-.5 1.1-.7 1.7-.1.2-.2.5-.3.7l.1.1c.5-.2 1-.4 1.6-.7 1.1-.5 1.1-.5 2 .4.4.5.9.9 1.5 1.5.8-.8 1.5-1.6 2.2-2.4.9.4 1.8.8 2.6 1.1l.1-.1c-.2-.8-.6-1.6-1-2.5z" opacity=".2" style="opacity:.2"/><path d="M22.4 97.8h6.4V78.2h6.1v-5.1h8.5c.3-1.6-.1-3.1.2-4.7h8.2v-2.1c-1.9-.7-3.8-1.5-5.8-2.3v-.1c.7-.3 1.5-.6 2.2-.9 1.1-.4 2.2-.9 3.3-1.3.1-.1.2-.3.3-.4v-2h-8.3v-4.7h-8.6v-5.1h-6.1V30.6c0-.7 0-.7-.7-.7h-5.8v-2.2h26.1v2.2H37.3v16h6.1v4c0 .7 0 .7.7.7h8v2.3h9.1c-.4-1.2-1.7-2.7-2.9-2.6l.2.2c.4.5.4 1 0 1.5-.5.5-1.6.5-2.1 0-1-1.1-.3-2 .8-2.4 1.4-.6 2.5 0 3.6.9.7.6 1 1.4 1.5 2.1 0 .1.1.1.2.2 1.1-2.8 2.2-5.5 3.2-8.3h.1c1.2 2.7 2.2 5.6 3.3 8.4.4-.7.8-1.3 1.2-1.9.7-1 1.7-1.6 2.8-1.7.9-.1 1.8.3 2.3 1.2 0 .1.1.2.1.3.1.6-.4 1.4-1 1.6-.7.2-1.4 0-1.7-.6-.2-.4-.1-.8.2-1.2l.2-.2c-1.2-.1-2.5 1.1-2.9 2.6h9v-2.3h8.6V46h6.2V30.6c0-.6 0-.6-.6-.6H83v-2.3h26.1v2.2h-6.5v19.6h-6.1v5.1h-8.6v4.7h-8.5v2c0 .1.2.2.3.3 1.7.7 3.4 1.4 5.1 2 .2.1.3.1.5.3l-6 2.4v1.4c0 .4.1.5.5.5h8v4.7h8.6V78h6.1v19.6h6.6v2.2c0 .1-.1.2-.3.3h-8.7c-5.4 0-10.9 0-16.3-.1-.8 0-.9-.2-.9-1v-1.4h11V81.7h-5.6c-.6 0-.6 0-.6-.6v-4h-8.6v-1.6c0-.7 0-.7-.7-.7H70c.2 1.2 1.6 2.8 2.9 2.8 0-.1-.1-.1-.1-.2-.5-.6-.5-.9-.2-1.4.3-.5 1-.7 1.6-.6.5.1.8.5 1 .9.3.6 0 1.3-.7 1.7-1.1.7-2.5.5-3.5-.4-.8-.7-1.4-1.5-2-2.5-1.1 2.9-2.3 5.7-3.4 8.6h-.1c-1.1-2.8-2.2-5.7-3.4-8.6-.1.2-.3.4-.3.5-.5 1.3-1.4 2.1-2.6 2.6-1.1.4-2.4.3-3.2-1-.1-.2-.1-.5-.1-.7.2-.8 1.1-1.3 1.9-1.1.8.2 1.1 1.2.6 1.8l-.3.3c.8.5 2.6-1.1 3-2.7h-8.5c-.6 0-.6 0-.6.6v1.7h-8.6v4.1c0 .6 0 .6-.6.6h-5.6v14.5c0 .3-.1.6-.1.9 0 .2.1.4.1.6h10.5c.6 0 .6 0 .6.6v1.7H23.2c-.3 0-.7.1-.9 0-.1-.1-.1-.5-.1-.8v-.8c.1-.2.1-.4.2-.7zm46.9-31.4c.6-.6 1.3-1.3 2-1.9.6.4 1.2.8 1.6 1.3.5.5.8 1.1 1.2 1.7.5-.4 1-.8 1.5-1.3-.4-.4-.8-.8-1.2-1.1-.4-.3-.9-.5-1.3-.8 1.1-.2 2.1-.1 2.8.6.8-.4 1.5-.7 2.2-.9-.6-.3-1.3-.7-1.9-1-.1-.1-.4 0-.5.1-.8.7-1.7.7-2.8.6 1-.5 2-.9 2.6-1.9-.5-.4-1.1-.9-1.6-1.3-.8 1.9-2 2.6-3 3-.6-.6-1.2-1.1-1.7-1.7.4-.9.7-1.7 1.1-2.5l-.1-.1c-.3.1-.6.3-.9.4-.5.2-.9.3-1.4.5-.3.1-.4 0-.6-.1-.6-.7-1.3-1.3-1.9-2-.2.1-.3.2-.3.2l-1.7 1.7c-.2.2-.4.3-.7.2-.7-.3-1.5-.6-2.4-1 .4 1 .8 1.9 1.1 2.6-.6.7-1.2 1.3-1.8 2-.6-.4-1.2-.8-1.6-1.3-.5-.5-.8-1.1-1.2-1.7-.5.4-1 .9-1.6 1.3.4.4.8.8 1.2 1.1.4.3.9.5 1.4.8-1.3.2-1.6.1-3-.7-.2.1-.5.3-.7.4-.2.1-.5.2-.8.3-.3.1-.6 0-.7.3.8.3 1.5.7 2.2 1 .4-.2.8-.6 1.3-.7.5-.1 1-.1 1.6-.1v.1c-.9.5-1.9.9-2.5 1.9.5.4 1.1.9 1.7 1.3.5-1.4 1.5-2.4 2.8-3 .5.5 1 .9 1.4 1.4.1.1.1.3.1.5-.2.6-.5 1.1-.7 1.7-.1.2-.2.5-.3.7l.1.1c.5-.2 1-.4 1.6-.7 1.1-.5 1.1-.5 2 .4.4.5.9.9 1.5 1.5.8-.8 1.5-1.6 2.2-2.4.9.4 1.8.8 2.6 1.1l.1-.1c-.2-.8-.6-1.6-1-2.5z" fill="#FFF" style="fill:#fff"/></svg>