<svg version="1.1" id="图层_1" xmlns="http://www.w3.org/2000/svg" x="0" y="0" viewBox="0 0 300 70" style="enable-background:new 0 0 300 70" xml:space="preserve"><style>.st2{fill:#002f5f}</style><g id="Page-1"><g id="_x31_9-years-logo" transform="translate(-406 -20)"><g id="Desktop" transform="translate(406 20)"><g id="Global"><g id="AM-Logo_x2F_Dark"><g id="AM-Logo"><g id="Group"><path id="Fill-1" d="M64.7 49.2c0 9.5-7.7 17.2-17.2 17.2s-17.2-7.7-17.2-17.2S38 32 47.5 32s17.2 7.7 17.2 17.2" style="fill:#da1924"/><path id="Fill-4" d="M93.8 20.5c0 9.5-7.7 17.2-17.2 17.2S59.4 30 59.4 20.5 67.1 3.3 76.6 3.3 93.8 11 93.8 20.5" style="fill:#2072e1"/></g><g id="Group-2" transform="translate(37.69)"><path id="Fill-6" class="st2" d="M81.1 9.5c-.1-.4-.2-.6-.5-.6s-.5.2-.6.6l-2.4 10.9h5.9L81.1 9.5zM92.4 33h-5.6c-.4 0-.7-.3-.8-.7l-1.4-6.5h-8.1l-1.4 6.5c-.1.4-.4.7-.8.7h-5.5c-.4 0-.7-.2-.7-.6v-.2L74 7.7c.9-3.8 3.8-4.4 6.6-4.4 2.7 0 5.6.6 6.5 4.4L93 32.2v.2c0 .4-.3.6-.6.6z"/><path id="Fill-8" class="st2" d="M110 15.8c0-5.3-2.3-6.8-5.9-6.8-1 0-2.3 0-2.8.1v18.5c.5 0 1.8.1 2.8.1 3.6 0 5.9-1.4 5.9-6.8v-5.1zm-5.8 17.6c-3.3 0-6.8-.3-8.4-.6-.7-.1-1.1-.5-1.1-1.4V5.3c0-.9.4-1.3 1.1-1.4 1.6-.3 5.2-.6 8.4-.6 7.9 0 12.6 4.2 12.6 12.5v5.1c0 8.3-4.8 12.5-12.6 12.5z"/><path id="Fill-10" class="st2" d="M145.2 33H140c-.4 0-.6-.4-.6-.8V15.7c0-.3-.1-.3-.2-.3s-.2.1-.3.3l-3.6 6.5c-.3.5-.7.7-1.2.7h-3.2c-.5 0-.9-.2-1.2-.7l-3.6-6.5c-.1-.2-.2-.3-.3-.3-.1 0-.2 0-.2.3v16.5c0 .4-.3.8-.6.8h-5.2c-.3 0-.7-.1-.7-.6V5c0-.8.6-1.3 1.4-1.3h3.7c.8 0 1.4.4 1.7 1.1l6.1 11.3c.2.3.3.5.4.5.2 0 .3-.2.4-.5l6.1-11.3c.4-.7.9-1.1 1.8-1.1h3.7c.8 0 1.4.5 1.4 1.4v27.4c0 .4-.3.5-.6.5"/><path id="Fill-12" class="st2" d="M155.4 33h-5.3c-.4 0-.7-.4-.7-.8V4.4c0-.4.3-.7.7-.7h5.3c.4 0 .8.3.8.7v27.8c0 .5-.3.8-.8.8"/><path id="Fill-14" class="st2" d="M174.8 12.5c0-2.4-1.9-3.5-5.2-3.5-.6 0-2.6.1-3.1.1v7.6c.4 0 2.4.1 2.8.1 4.2 0 5.5-1.1 5.5-3.8v-.5zm7.1 20.5h-6.1c-.4 0-.6-.4-.8-.8l-5.3-10h-.4c-.8 0-2.1-.1-2.8-.1v10.1c0 .4-.4.8-.8.8h-5.2c-.4 0-.8-.4-.8-.8V5.7c0-1.3.6-1.7 1.8-1.9 1.8-.3 5.2-.5 8-.5 6.7 0 11.9 2.3 11.9 9.3v.5c0 4.2-2.2 6.8-5.1 7.9l6 11.2c.1.2.1.3.1.4.1.2-.1.4-.5.4z"/><path id="Fill-16" class="st2" d="M195.7 9.5c-.1-.4-.2-.6-.5-.6-.4 0-.5.2-.6.6l-2.4 10.9h5.9l-2.4-10.9zM207 33h-5.5c-.4 0-.7-.3-.8-.7l-1.4-6.5h-8.2l-1.4 6.5c-.1.4-.4.7-.8.7h-5.5c-.4 0-.7-.2-.7-.6v-.2l5.9-24.5c.9-3.8 3.8-4.4 6.6-4.4 2.7 0 5.6.6 6.5 4.4l5.9 24.5v.2c.1.4-.2.6-.6.6z"/><path id="Fill-18" class="st2" d="M224.6 32.9c-1.3.3-4.4.5-6.5.5-5.1 0-9.7-1.3-9.7-8.5V4.4c0-.4.4-.8.8-.8h5.2c.4 0 .8.4.8.8v20.4c0 2.1.7 2.7 2.5 2.7h6.8c.4 0 .8.4.8.8V32c.1.6-.2.8-.7.9"/><path id="Fill-20" class="st2" d="M94.2 66.4H89c-.4 0-.6-.4-.6-.8V49.1c0-.3-.1-.3-.2-.3s-.2.1-.3.3l-3.6 6.5c-.3.5-.7.7-1.2.7h-3.2c-.5 0-.9-.2-1.2-.7L75.1 49c-.1-.2-.2-.3-.3-.3s-.2 0-.2.3v16.5c0 .4-.3.8-.6.8h-5.2c-.3 0-.7-.1-.7-.6V38.3c0-.8.6-1.3 1.4-1.3h3.7c.8 0 1.4.4 1.7 1.1L81 49.4c.2.3.3.5.4.5.2 0 .3-.2.4-.5L87.9 38c.4-.7.9-1.1 1.7-1.1h3.7c.8 0 1.4.6 1.4 1.4v27.4c.1.5-.2.7-.5.7"/><path id="Fill-22" class="st2" d="M109.4 42.8c-.1-.4-.2-.6-.5-.6-.4 0-.5.2-.6.6l-2.4 10.9h5.9l-2.4-10.9zm11.3 23.6h-5.6c-.4 0-.7-.3-.8-.7l-1.4-6.5h-8.1l-1.4 6.5c-.1.4-.4.7-.8.7h-5.5c-.4 0-.7-.2-.7-.6v-.2l5.9-24.6c.9-3.8 3.9-4.4 6.6-4.4s5.6.6 6.5 4.4l5.9 24.5v.2c.1.4-.2.7-.6.7z"/><path id="Fill-24" class="st2" d="M138 45.9c0-2.4-1.9-3.5-5.2-3.5-.5 0-2.6.1-3.1.1v7.6c.4 0 2.4.1 2.8.1 4.2 0 5.5-1.1 5.5-3.8v-.5zm7.1 20.5H139c-.4 0-.6-.4-.8-.8l-5.3-10h-.4c-.8 0-2.1-.1-2.8-.1v10c0 .4-.4.8-.8.8h-5.2c-.4 0-.8-.4-.8-.8V39c0-1.3.5-1.7 1.8-1.9 1.8-.3 5.2-.5 8-.5 6.7 0 11.9 2.3 11.9 9.2v.5c0 4.2-2.2 6.8-5.1 7.9l6 11.2c.1.2.1.3.1.4.1.4-.1.6-.5.6z"/><path id="Fill-26" class="st2" d="m170.8 38-9.4 13.4 9.5 14.2c.1.2.2.3.2.4 0 .2-.2.4-.6.4h-6.8c-.5 0-.7-.2-.9-.6l-8-13v12.8c0 .4-.4.8-.8.8h-5.2c-.4 0-.8-.4-.8-.8V37.7c0-.4.4-.8.8-.8h5.2c.4 0 .8.3.8.8v12.6l8.7-12.9c.2-.3.4-.5.9-.5h6.1c.4 0 .6.2.6.4-.1.3-.2.5-.3.7"/><path id="Fill-28" class="st2" d="M187.9 66.2c-1.4.2-3.4.5-7.7.5-5.1 0-9.6-1.3-9.6-8.5V45.1c0-7.2 4.6-8.5 9.7-8.5 4.3 0 6.3.3 7.7.5.6.1.8.3.8.8v3.7c0 .4-.4.8-.8.8h-8c-1.9 0-2.5.6-2.5 2.7v3.6h10.3c.4 0 .8.4.8.8v3.8c0 .4-.4.8-.8.8h-10.3v4.2c0 2.1.7 2.7 2.5 2.7h8c.4 0 .8.4.8.8v3.7c-.2.4-.4.6-.9.7"/><path id="Fill-31" class="st2" d="M210.8 42.6h-6.4v23c0 .4-.4.8-.8.8h-5.2c-.4 0-.8-.4-.8-.8v-23h-6.5c-.4 0-.8-.3-.8-.7v-4.1c0-.4.4-.8.8-.8h19.7c.4 0 .8.3.8.8v4.1c0 .3-.4.7-.8.7"/><path id="Fill-33" class="st2" d="M221.4 66.7c-3.1 0-5.5-.4-7.5-.9-.4-.1-.8-.4-.8-.8v-3.9c0-.6.3-.7.7-.7h.1c1.6.2 6 .5 7.5.5 2.7 0 3.5-.9 3.5-2.8 0-1.1-.6-1.8-2.6-3l-5.5-3.2c-3.7-2.2-4.7-4.7-4.7-7.6 0-4.4 2.5-7.7 10.1-7.7 2.9 0 6.9.5 8.4.9.3.1.6.3.6.7v4c0 .4-.2.7-.7.7h-.1c-1.1-.1-5.7-.4-8.4-.4-2.3 0-3.1.7-3.1 2.1 0 1.1.5 1.6 2.7 2.8l5.1 2.7c4.1 2.2 5.3 4.8 5.3 8 .3 4.1-2.5 8.6-10.6 8.6"/></g></g></g></g></g></g></g></svg>