<svg id="ace368a6-e042-4fdb-98dc-4cd7b3a6eebd" data-name="图层 1" xmlns="http://www.w3.org/2000/svg" viewBox="0 0 601.43 212.6"><defs><style>.e3c9c6b8-4bb4-4248-bc8f-25514662442f{fill:#2aa93b}.e0f08edc-3fb9-4422-861f-3c60a7752155{fill:#197b32}.bce8e2b1-8ef1-4628-b058-0fbaeb7cf215{fill:#2da53e}</style></defs><path d="M182.51 94.41c10.1-7.16 16.6-17.23 22.59-27.73 2.3-5.38 5.82-10 8.86-15 1.51-2.44 2.89-5.06 5.28-6.86 4.23-4.63 8.45-9.24 13.92-12.55 7.39-4.47 15.46-6.63 24-7.56a6.66 6.66 0 0 1 3.44-.52h17.32a16.73 16.73 0 0 1 8.14 1.81c11.42 3.39 21.43 9.86 32.21 14.66a30.15 30.15 0 0 0 19.52 1.85 13.83 13.83 0 0 0 6.6-3.64c3.92-4.55 6.12-9.72 5.42-15.79-.25-2.15-1.88-3.31-4-3.62-4.17-1-7.35-3.93-11-6-2.06-1.16-4.31-2.32-5.58-4.58-.34-.59-.84-1.08-.61-1.84h18.32a33 33 0 0 1 15.44 8.56c6.12 5.75 13.57 7.48 21.58 8 5.87.35 11 2.16 15.13 6.73 1.81 2 1.31 3.11-.45 4.44-3.69 2.77-8.09 3.93-12.32 5.47-8 2.91-15.65 6.33-21.43 12.88a19.78 19.78 0 0 0-3.8 5.88c-2.18 5.2-2.13 11-4.27 16.19-2.14 3.12-4.45 6.11-6.69 9.15a14.56 14.56 0 0 1-3.05 3.07c-.63.75-1.22 1.54-1.89 2.25a12.2 12.2 0 0 0-3.7 10.06c.27 2.89-.34 5.85-.55 8.78-.28 5.48-3.37 8.78-8.27 10.69l-3.48 1.2a7.71 7.71 0 0 1-2.4 1.11c-3.42 1-6.17-.74-7.06-4.32a5.32 5.32 0 0 1 4.47-6.93 29 29 0 0 0 3.2-.59 3.38 3.38 0 0 0 1.92-1.26c1.58-2.22 1.08-10.43-.81-12.4-1.4-1.48-2.95-1.18-4.53-.3-2.64 1.48-5 3.38-7.8 4.63-3.2 3.12-7.23 4-11.49 4.13q-6 .15-12 0a5.39 5.39 0 0 0-4.12 1.7c-4.1 3.87-8.13 7.82-12.59 11.28-8.14 7-15.91 14.33-23.62 21.76a50.31 50.31 0 0 1-9.31 8.42 30.18 30.18 0 0 0-4.87 4.58c-3.4 3.56-7.11 6.81-10.62 10.25a7.79 7.79 0 0 1-2.38 1.62 1.13 1.13 0 0 0-.27.13c-6.94 6-6.81 6-5.38 15.12 1.3 8.23 2.59 16.49 3.28 24.78.78 9.22-5.23 15.28-14.59 15.57-3.87.12-7.48-.42-10.13-3.61-.67-.81-1.64-1.73-1.09-2.85s1.75-.59 2.68-.6c3 0 6.09.15 9-1.21 1.67-.78 2.55-1.78 2.43-3.82-.52-9.27-2.74-18.21-5.07-27.13a110 110 0 0 1-3-16.49 8.11 8.11 0 0 1 1.77-6c6.2-8 14-14.5 20.76-22 5.24-5.87 10.43-11.76 13.4-19.19 2.87-7.19 1.33-13.59-4.18-18a3 3 0 0 0-4.15-.27q-12.75 8.19-26.18 15.24a303.07 303.07 0 0 1-40.81 17.44c-8.06 2.81-16.32 5-24.6 7.07a75.49 75.49 0 0 1-14.56 3c-6.42.64-12.86.93-19.25 1.54-6.63.64-13.07-.55-19.6-.62a37.56 37.56 0 0 1-12.8-2.73l.1-.16a3 3 0 0 0-2.4-1.43c-2.92-.15-5.55-1.56-8.4-2-5.33-1.4-10.07-4.05-14.79-6.77l-2.79-1.59c-1-1-2.45-1.44-3.52-2.39C30 117.54 22 107.44 16 95.74c-.18-3.16-2.55-5.3-3.88-7.9a54.92 54.92 0 0 1-2.29-5.63c-.55-1.47 0-2.81 2.08-1.9q4.94 6.93 9.87 13.86c.39.54.87 1 1.31 1.51 4 4.6 7.43 9.73 12 13.9 2.29 2.11 4.8 4 6.92 6.25a46.78 46.78 0 0 0 11.72 7.06c6.49 3.07 13.53 4.56 20.24 7 17.06 3.39 33.89 3.11 50.45-2.78a146.46 146.46 0 0 0 16.33-6.63 44.22 44.22 0 0 1 7.61-3.62c8.62-4.55 17.12-9.32 24.92-15.23a16.81 16.81 0 0 1 3.44-2.48c1.93-1.59 3.75-3.31 5.79-4.74z" transform="translate(-9.62 -7.09)" style="fill:#79c836"/><path class="e3c9c6b8-4bb4-4248-bc8f-25514662442f" d="M346.93 205.45c-4.06-6.25-1.68-12.69-.52-19.08.18-1 1-1.08 1.81-1.08 4.13 0 8.25.06 12.38 0 1.58 0 1.81.63 1.54 2-.57 2.78-1.15 5.56-1.57 8.37-.18 1.2-.4 2.69 1.25 3.23a3.37 3.37 0 0 0 3.73-1.08c3.36-3.69 2.72-11.46-1.18-14.51-2.78-2.17-5.53-4.39-8.33-6.53-4-3-6.07-7-5.54-12 .72-6.81 1.62-13.63 7.13-18.65a7.21 7.21 0 0 1 3.47-2.12c2-1.83 4.62-1.94 7.12-2.3 4.83-1.09 9.59-1.2 14.18 1.07 6.27 2.66 7.64 4.89 7.2 11.8-.53 8.28-.53 8.27-8.65 8.27h-6.49c-1.49 0-2.19-.32-1.73-2a26.68 26.68 0 0 0 .76-5c.08-1.07.66-2.47-1-3a2.82 2.82 0 0 0-3.7 1.56c-1.79 3.92-2.77 7.53.57 10.84a15.4 15.4 0 0 0 5.29 4.36 16.21 16.21 0 0 1 9.11 18.23c-.81 4.1-1.27 8.27-2.56 12.26-2 5.15-6.48 7.26-11.16 8.68-8.12 2.54-16.04 2.28-23.11-3.32z" transform="translate(-9.62 -7.09)"/><path d="M417.23 142.9c4.23 0 8.47.06 12.7 0 1.68 0 2 .52 1.65 2.07-.71 3.06-1.36 6.13-1.83 9.24-.24 1.57-1 1.85-2.38 1.82-2.46-.06-4.94.16-7.38 0-2-.16-2.79.74-3.09 2.54-.39 2.32-.87 4.63-1.38 6.92s0 3.62 2.68 3.25a18.15 18.15 0 0 1 2.95 0c5.28.16 4.38-.73 3.54 4.4-1.32 8-1.49 8.05-9.66 8.1-2 0-2.76.64-3.12 2.55-1.4 7.53-3 15-4.39 22.54-.37 2-1.18 2.79-3.27 2.71-3.93-.16-7.88-.15-11.81-.05-2 0-2.57-.49-2.16-2.53q6.14-30.6 12.12-61.22c.33-1.68 1-2.33 2.73-2.29 4 .09 8.07 0 12.1 0z" transform="translate(-9.62 -7.09)" style="fill:#2ba93b"/><path d="M503.51 180c-3.9-1.59-4-1.48-4.78 2.66-1.54 8.1-3.18 16.17-4.74 24.26-.24 1.22-.66 1.92-2.07 1.9-4.52-.06-9.05-.08-13.57 0-2.24.05-1.72-1.25-1.47-2.49q3.31-16.44 6.65-32.87c1.05-2.43 1.92-4.64 4.87-5.94 2.32-1 3.87-3.79 5.9-5.65 1.26-1.16 2.46-2.19 4.41-1.73 1.76.42 2-1 2.46-2.26.5-1.39 1.22-2.45 2.67-.77.21 2.58-1.08 4.94-1.14 7.49 0 1-.68 2.42.6 2.88 1.45.52 2.4-.66 2.93-1.87a24.43 24.43 0 0 0 1.76-8c.15-1.85-1.21-2.52-2.64-3.07-1.25-.66-2.06-1.74-.58-2.63 3.16-1.89 4.35-5.52 7.3-7.61.28 0-.13-.54 0-.16 0 .17 0 .14-.25.16-.51 0-1 0-1.16-.54s.38-.6.76-.62a3.18 3.18 0 0 1 1.72.21c2.32.55 4.81.06 7 1.24a8.73 8.73 0 0 1 4.71 7.64 31.76 31.76 0 0 1-1.87 13c-1.22.9-1.15 2.47-1.84 3.68-1.83 3.22-4.62 4.42-8 4.73a1.07 1.07 0 0 0-.67 1.19c.54 3.76-1.65 6.32-3.89 8.84-.66.75-1.55 1.58-2.53 1s-.76-1.87-.47-2.94c.19-.74.92-1.26.86-2.15-1.06-.05-1.94.62-2.93.42z" transform="translate(-9.62 -7.09)" style="fill:#047436"/><path class="e0f08edc-3fb9-4422-861f-3c60a7752155" d="M289 152.34c0 8.67-.58 17.33-1.21 26-.73 5.29-5.4 7.87-8.14 11.77-.78 1.11-2 1.89-2.86 2.94-2.57 3.12-5.5 5-9.79 3.76a4 4 0 0 0-2.82.33c-.93 3.2-1.94 6.39-2.74 9.62-.41 1.65-1.21 2.16-2.88 2.12-4.43-.1-8.86 0-13.29 0-1.21 0-2.26-.09-1.66-1.74 2.22-6.07 3.74-12.37 6.3-18.32 2-2.34 4.39-4.44 5.26-7.59.15-.54.55-1.34 1.15-1.14 2.49.86 2.79-1.2 3.85-2.51a12.23 12.23 0 0 1 6.18-4.33 3.12 3.12 0 0 1 3.57 1.42c-.1 2.38-1.16 4.54-1.64 6.83-.23 1.11-1.24 2.64.91 3 1.78.29 2.35-.76 2.5-2.41.44-4.78 1-9.55 1.4-14.32.72-1.87-.12-4.09 1.32-5.79 1.21.27 1.21.27 1.29 1.79a9.5 9.5 0 0 1 2.82-3.95 7.91 7.91 0 0 0 2.87-4.24c.65-2.37 1.53-2.47 5.2-1 .3-1.31-1.34-3 .52-3.87 1.42-.71 1.12 1.2 1.89 1.63z" transform="translate(-9.62 -7.09)"/><path class="e3c9c6b8-4bb4-4248-bc8f-25514662442f" d="M430.22 200.71c-1.47-3.57-.58-7.19.07-10.71 1.76-9.55 3.88-19 5.63-28.59 1.37-7.47 4.87-13.37 11.47-17.3 7.54-4.35 15.25-4 22.95-.64 2.72 1.2 5 3.17 5.08 6.56a4.13 4.13 0 0 1-1.45 2.16c-4.83 4-8.37 9.3-13.1 13.42-1.73 1.5-2 1.37-3.41-1.88-.28-2.2.72-4.25.8-6.4.05-1.16.74-2.89-1.05-3.16-1.53-.24-2.07 1.36-2.35 2.58-1.17 5.07-2.21 10.17-3.2 15.28-.49 2.56-.53 5.27-2.08 7.55-2.57-.73-1.53-2.56-1.36-4.2a3.68 3.68 0 0 1-1.27 2.3c-4.34 4-7.46 9.08-12.13 12.74-2.2 1.72-3.57 3.83-3.33 6.82a3.94 3.94 0 0 1-1.27 3.47z" transform="translate(-9.62 -7.09)"/><path d="M529.43 188.76c.7-6.89 2.55-13.57 3.79-20.37 1.4-7.72 3.09-15.39 4.56-23.1.32-1.72.87-2.49 2.81-2.46 8 .12 15.94.09 23.9 0 1.8 0 2.51.33 2 2.31-.74 2.95-1.26 5.95-1.77 8.95-.24 1.39-.8 2-2.3 1.91-2.55-.11-5.11.06-7.67 0-1.47-.05-2.07.44-2.31 1.93-.39 2.5-1.07 5-1.62 7.43-.31 5.1-3.58 8-7.27 11.09-2.49 2.05-5.16 4.15-7 7-1.61 2.42-4.3 3.88-5.83 6.52-.72 1.11-1.67.15-1.29-1.21z" transform="translate(-9.62 -7.09)" style="fill:#0f612e"/><path d="M592.75 153.54a44.72 44.72 0 0 0 3.56-8.34 3 3 0 0 1 3.45-2.32c3.24.14 6.49.13 9.73.05 1.63 0 1.83.49 1.29 1.88-1.36 3.46-3.08 6.79-4 10.42l-4.17 9.46c-1.53-1.75-3.18.06-3.65.63-3 3.65-6.92 6.39-10 9.91-3.83 4.46-9.1 7.41-12.34 12.42-1.43 2.21-4.07 3.27-5.41 5.73-.72 1.33-2.52 1.36-3.79 0-.53-2.55 1-4.64 1.61-6.91s1.7-4.68 2.29-7.11c.49-3.38 2.87-6.28 2.53-9.88a5.08 5.08 0 0 0 1.57-3.93c.14-2.43.55-4.76 3.72-5a1.55 1.55 0 0 0 1.35-1.38c.4-2.93 2.91-4.56 4.2-6.94.5-.92 1.29-1.89 2.53-1.64s1.36 1.34 1.37 2.32.72 1 1.31 1.29a5.36 5.36 0 0 1 .17 4.45 17.44 17.44 0 0 1 2.63-5.06z" transform="translate(-9.62 -7.09)" style="fill:#1d8733"/><path d="M269.42 174.18c-4.58-.77-6.75 1.08-9.53 5.63-.48.8-1 1.82-1.92 1.38-2.33-1.11-2.32.59-2.74 1.95-.81 2.6-3.39 3.87-4.65 6.14l-.67-.48c3.33-10.3 6.64-20.61 10-30.9 1.58-4.84 3.28-9.64 4.93-14.46a235.29 235.29 0 0 1 24.63 0v.65c-.56 2.17.18 4.42-.42 6.59 0 .55-.05 1.1-.08 1.65-1.15.4-.93-1.77-1.86-1.16s-.26 1.53.27 2.27c.41.58.75 1.55.12 1.8a2.73 2.73 0 0 1-3-.42c-1.83-2.12-2.4-.23-2.54.92a5.73 5.73 0 0 1-2.64 4.24 8.79 8.79 0 0 0-3.7 6.37c-2-1.45.64-3.3-.81-4.59-.69-.55-.36-1.22-.25-1.89-.46 1.93-1 3.84-1.54 5.75-.73 1.91-1.09 3.92-1.78 5.84-.31 1.07-.45 2.33-1.82 2.72z" transform="translate(-9.62 -7.09)" style="fill:#14662e"/><path d="M567.86 193.63c1.91.21 3.28-.08 4-2.35s3.58-2.91 5.11-4.93c2.17-2.86 4.23-6.11 8-7.53 1.81-.68 1.75-3.22 3.54-4.43 3.64-2.46 6.43-5.95 9.61-9 .53-.5.28-2.61 2-1 .17.16.85-.67.81-1.33s-.57-1.56.49-1.64.68 1 .74 1.57 0 1.19.47 1.65a4.62 4.62 0 0 1-1 2.43 2.59 2.59 0 0 0-1.21 2.93l-.59 1.19a18.6 18.6 0 0 0-.56 6.56c.38 4.68.13 9.12-4.9 11.52-.38 3.2-4.93 3.34-5 6.83 0 .76-.89 1-1.63.89a1.75 1.75 0 0 1-1.59-1.82c-.21-2.73-.49-5.46-.85-8.17-.08-.61-.17-1.34-.81-.25-2.26 6.69-4.55 13.37-6.77 20.07a2.47 2.47 0 0 1-2.75 2c-4.13-.1-8.27-.09-12.4 0-1.68 0-2.15-.56-1.51-2.08s1.35-3.25 2-4.88c.86-2.33 2.43-4.35 3-6.8.27-.88.23-2.13 1.8-1.43z" transform="translate(-9.62 -7.09)" style="fill:#219535"/><path d="M472.26 176.7c-1.38 7.87-2 16-6 23.13-5.63 10-22 13.75-31.29 7.36a5 5 0 0 1 3.86-5.45 4.1 4.1 0 0 0 2.71-2.06c2.2-4.2 2.23-4.18 5.46-1.57 2.36.63 3-1.57 4.37-2.62a17 17 0 0 0 2.79-8.56c0-1.12-.07-2.19 1-2.87 1.26-.8 1.92.51 3 1a6.3 6.3 0 0 1 2.71-4.38c2-1.44 4-2.82 4.91-5.28.23-.62.94-1 1.52-1.35 3.39-2.27 4.7-1.6 4.96 2.65z" transform="translate(-9.62 -7.09)" style="fill:#09833a"/><path d="M529.43 188.76c.21.52.32 1.77 1.07.57a11.51 11.51 0 0 1 1.36-2.49c3.5-3.55 6.6-7.67 10.59-10.55 2.57-1.85 4.09-4.51 6.54-6.26 1.72-1.23.47-3.44 1.84-4.7-.72 2.83.47 3.64 3.19 3.25 1.64-.23 3.35.11 5 0 1.8-.16 2 .69 1.7 2.1-.59 2.88-1.18 5.76-1.75 8.65a2 2 0 0 1-2.4 1.9c-2.25-.13-4.53.08-6.78-.05-1.52-.1-2 .53-2.3 1.9-.59 3-1.32 5.92-2 8.87a5.3 5.3 0 0 0-1.78 4.3c0 2.12-2 3.74-3.65 5.13a34.14 34.14 0 0 0-4.55 5c-1.5 1.9-7.13 3.34-9.25 2.25-.95-.49-.64-1.29-.39-2a147.69 147.69 0 0 1 3.56-17.87z" transform="translate(-9.62 -7.09)" style="fill:#177031"/><path d="M503.51 180c.9-1.3 2.78-.74 3.58-2.31 1.72 2.74-2.63 4.17-.69 6.89 2.67-2.46 5.34-4.73 5.4-8.79 0-1-.67-2.49 1.17-2.83.52.56-.57 1.15 0 1.71 5.36 1.72 7.21 4 6.39 9.19-1.23 7.83-2.94 15.59-4.4 23.39-.22 1.2-.78 1.59-2 1.57q-6.18-.09-12.37 0c-1.47 0-1.78-.41-1.47-1.91 1.43-6.81 2.72-13.64 4-20.47a16 16 0 0 0 .39-6.44z" transform="translate(-9.62 -7.09)" style="fill:#10602e"/><path d="m513.1 143.41-2.12.17c1 .57 2.22.93.74 2.06-2.57 2-3.42 5.62-6.79 6.93-1.22.47.18 1 .34 1.45-.32 1.15-.06 2.63-1.71 3-1.7-.72-1.73.42-1.85 1.59-.2 2.06-1 3.27-3.34 2.2-1.23-.58-2 .11-2.83.91l-6 6c-.77.78-1.2 2.15-2.79 1.38-.59-.28-.92.24-.94.77-.07 1.65-1.33 2.53-2.28 3.62q2.82-14.52 5.62-29.06c.15-.82.33-1.55 1.38-1.53 7.53.18 15.07-.53 22.57.51z" transform="translate(-9.62 -7.09)" style="fill:#0b8639"/><path d="M472.26 176.7c-.08-.28-.09-.73-.26-.81-1.15-.53-.54-2.81-1.88-2.51s-3.57 1.4-3.77 2.45c-.64 3.47-4 4.06-5.81 6.21-.81 1-1.43 1.64-1.37 2.88 0 .69 0 1.42-.95 1.56a1.12 1.12 0 0 1-1.4-1.11c-.08-.65-.38-1.21-1.12-1s-1.3 1.21-1 1.56c1.37 1.59.2 2.93-.28 4.26-.55 1.55-1.38 3-1.22 4.74.1 1.07-.91 1.07-1.71 1.08-.89-1.07-.46-2.25-.22-3.36q2.66-12.47 5-25c.25-1.32.41-2.75 1.76-3.55l1.38 1.93c3.41-3.8 7.32-7.07 10.41-11.17 1.34-1.77 3.52-2.92 5.32-4.35a.52.52 0 0 1 .21.59c1.19 2.56.84 5.2.38 7.85-1.01 5.96-1.73 11.95-3.47 17.75z" transform="translate(-9.62 -7.09)" style="fill:#1b973b"/><path d="M264.18 197.11c1.6-2 3.86-.74 5.52-.57a4.62 4.62 0 0 0 4-1.49c4.51-4.07 8.27-8.83 12.4-13.25 1-1 0-2.9 1.7-3.49-.4 9.53-.81 19.05-1.16 28.58-.05 1.35-.55 2-1.92 2h-14.18c-1.72 0-1.61-1-1.46-2.16.3-2.33.56-4.68 1-7 .35-2-.07-3-2.33-2.72a32.13 32.13 0 0 1-3.57.1z" transform="translate(-9.62 -7.09)" style="fill:#239038"/><path class="bce8e2b1-8ef1-4628-b058-0fbaeb7cf215" d="M584.51 186.8a3.87 3.87 0 0 1 1.11-2.87c-.37 4 1.64 7.48 1.22 11.25-.11.95.44 1.53 1.43 1.33 1.18-.23.62-1 .34-1.57-.81-1.58.47-1.83 1.4-2.25.7-.31 2.09-.49 2.09-.73 0-3 2.63-3.38 4.28-4.84a7.29 7.29 0 0 0 2.26-5.54c0-3.19.13-6.38.2-9.57 0-.69.54-.7 1-.77.55 11.08 1.07 22.15 1.64 33.23.24 4.42.3 4.42-4.29 4.41-2.75 0-5.51-.16-8.25 0-2.46.19-3.51-.45-3.5-3.14 0-5.69-.3-11.39-.48-17.08.04-.66.23-1.35-.45-1.86z" transform="translate(-9.62 -7.09)"/><path d="M446.86 198.92c-1.77.13-1.79-1.37-2-2.48-.33.05-.48 0-.52.09-1.93 3-3.63 6.17-7.64 7.15-1.2.29-.61 2.56-1.71 3.51a8.76 8.76 0 0 1-4.74-6.48 32.3 32.3 0 0 0 .64-5.82c0-1.76 1.16-3 2.44-4.07 5.59-4.76 9.89-10.71 15.15-15.89.38 1.36-.35 3.11.69 4.5.88 1.41.11 2.77-.13 4.15-1 1.51-.88 3.22-.83 4.91-.21 3.51-1.28 6.91-1.35 10.43z" transform="translate(-9.62 -7.09)" style="fill:#1d993a"/><path d="M525.89 206.55c.14.64 0 1.6.82 1.7 1.55.17 3.15 0 4.7.17 2.06.27 2.43-1.24 3.39-2.48a49.41 49.41 0 0 1 5.82-6.12c2.31-2.13 4.07-4.77 1.1-8 1.55-.38 2.6 2 3.79.06-.18 3.69-.18 3.69 3.71 3.69 2.07 0 4.13.06 6.19 0 1.59-.07 2.14.52 1.81 2.09-.67 3.16-1.31 6.34-1.89 9.52-.24 1.33-.94 1.69-2.23 1.69h-26c-1.94.01-2.1-.87-1.21-2.32z" transform="translate(-9.62 -7.09)" style="fill:#218135"/><path d="M589.72 154.11c-.62.26-.59 1.26-1.63 1.32 0-.51 0-1-.11-1.4-.2-1.05.65-2.74-.89-3-1.11-.17-1.76 1.32-2.3 2.37-1.17 2.27-3.76 3.73-3.72 6.7a1.25 1.25 0 0 1-1.17 1.17c-4.31-.36-3.54 2.85-3.69 5.28-.1 1.61-.17 3-2.3 2.88-.17-8.15-.31-16.29-.54-24.44 0-1.69.54-2.21 2.21-2.17 4.71.1 9.43 0 14.15.06a39.35 39.35 0 0 1-.01 11.23z" transform="translate(-9.62 -7.09)" style="fill:#1b6e33"/><path d="M381.21 200.17c.63-4.37 1.05-8.79 1.93-13.11 1-4.93 0-9.06-3.82-12.4-2.17-1.87-3.59-4.57-7.05-5a4.86 4.86 0 0 1-2.9-4.35 66.71 66.71 0 0 1 12 9.32c2.76 2.8 3.61 6.19 3.42 10-.23 5.37-.99 10.68-3.58 15.54z" transform="translate(-9.62 -7.09)" style="fill:#47a053"/><path d="M567.86 193.63c-1.08.11-1.12.9-1.17 1.72-.13 2.56-2.75 4.1-2.74 6.72l-.85-.18a220.63 220.63 0 0 1 8.28-22.56c.44 2.62-1.16 4.77-1.68 7.17s-1.85 4.59-1.84 7.13z" transform="translate(-9.62 -7.09)" style="fill:#3e874e"/><path d="M513 174.71c-1.15-.55-.12-1.14 0-1.71a8.56 8.56 0 0 0 8.78-7.27c.2-1.5.55-1 1.22-.45-.71 5.94-4.94 8.12-10 9.43z" transform="translate(-9.62 -7.09)" style="fill:#2f6b48"/><path class="e0f08edc-3fb9-4422-861f-3c60a7752155" d="M289.48 143.45h-24.63c.23-.8.91-.59 1.44-.59h21.76c.52.02 1.22-.25 1.43.59z" transform="translate(-9.62 -7.09)"/><path class="bce8e2b1-8ef1-4628-b058-0fbaeb7cf215" d="M600.45 170.05c-1.17-1.63-.79-2.61 1.21-2.93a5.57 5.57 0 0 1-1.21 2.93z" transform="translate(-9.62 -7.09)"/><path class="e0f08edc-3fb9-4422-861f-3c60a7752155" d="M289.08 150.69c.08-2.2-.59-4.45.42-6.59a21.78 21.78 0 0 1-.42 6.59z" transform="translate(-9.62 -7.09)"/><path d="M342.07 158.81c-.55 1.38-.1 3-1 4.29-1.87 4.53-2.22 9.38-3 14.14-1.55 6-2.52 12.16-3.9 18.21-.9 3.91-3.77 6.77-6.14 9.86-8.58 6.55-22.26 6.6-29.12.1a7.63 7.63 0 0 1-.8-1.18c-1-3.14.07-5.15 2.74-7.19a50.49 50.49 0 0 0 6.4-6.27c1.42-1.57 3.13-2.89 4.33-4.7s1.93-.15 2.77.51c-.49 2.89-1 5.77-1.45 8.67-.21 1.41-.7 3.21 1.32 3.65s2.72-1 3.19-2.67c1.76-6.43 2.69-13 4.09-19.54a19.48 19.48 0 0 1 .62-1.92c.56-.14 0 2 1.47.49 5.13-5.41 10.34-10.76 15.82-15.83.68-.65 1.33-2.33 2.66-.62z" transform="translate(-9.62 -7.09)" style="fill:#29a83a"/><path d="M314.32 186.58c-3.27-.91-3.92 2.36-5.68 3.75-.71.56-1.1 1.75-2.11 2.25-3.09 1.55-4.2 5.18-7.38 6.79-1.64.83-.38 3.27-1.07 4.86a9.89 9.89 0 0 1-2.09-8c1.35-10.64 3.6-21.13 6-31.58 3.56 1.07 3.57 1.08 4.85-2.34a3.54 3.54 0 0 1 1.3-1.91c3.26-2 5.63-5.09 8.84-7.18a2.8 2.8 0 0 1 3.93.29c-1.29 6.82-2.49 13.65-3.9 20.44-.88 4.22-1.31 8.53-2.69 12.63z" transform="translate(-9.62 -7.09)" style="fill:#219135"/><path d="M342.07 158.81c-2.69.06-3.25 2.85-5.11 4-3.56 2.19-5.56 6-8.77 8.65-2 1.68-4.61 3.53-5.55 6.7-.88-1.28-.34-2.38-.55-3.38.78-7 2.62-13.75 3.86-20.65.57-3.18 1.32-6.33 1.91-9.5.21-1.09.5-1.77 1.82-1.75 4.62.06 9.24 0 13.85 0 1.76 0 1.59.95 1.35 2.11q-1.42 6.91-2.81 13.82z" transform="translate(-9.62 -7.09)" style="fill:#239336"/><path d="M320.9 153.52c-3.6-1.12-5.41 1.8-7.58 3.59-1.11.9-2 2.09-3.33 2.77s-2.6 1.67-2.71 3.53c-.06 1.11-.11 2.73-1.41 2.92a3.66 3.66 0 0 1-3.89-1.67q1.92-10.22 3.83-20.45c.2-1.07.83-1.35 1.86-1.34q6.9.07 13.81 0c1.38 0 1.66.5 1.35 1.78-.71 2.94-1.29 5.91-1.93 8.87z" transform="translate(-9.62 -7.09)" style="fill:#1c7e33"/><path d="M328 205.31a2.87 2.87 0 0 1 .78-2.39c4.84-4.66 6.14-10.7 6.25-17.06a9 9 0 0 1 1.41-4.32 7.91 7.91 0 0 0 1-4.42.67.67 0 0 1 1.06 0c-1.18 5.81-2.27 11.64-3.58 17.41a17.56 17.56 0 0 1-6.92 10.78z" transform="translate(-9.62 -7.09)" style="fill:#4aa056"/><path d="M338.53 177.12h-1.06c.36-4.8 1.68-9.44 2.56-14.15.13-.68.74-.3 1.06.13-.4 4.75-1.62 9.36-2.56 14.02z" transform="translate(-9.62 -7.09)" style="fill:#479c50"/><path class="e3c9c6b8-4bb4-4248-bc8f-25514662442f" d="M448.45 183.64a12.07 12.07 0 0 1-1 4.74c.16-1.61-.85-3.49 1-4.74z" transform="translate(-9.62 -7.09)"/></svg>