<svg version="1.1" id="图层_1" xmlns="http://www.w3.org/2000/svg" x="0" y="0" viewBox="0 0 720 180" style="enable-background:new 0 0 720 180" xml:space="preserve"><style>.st0{fill:#e51c1c}</style><path d="M275.2 154.5c-3 5.3-7.2 9.6-12.8 12.5-5.6 3-12.1 4.5-19.6 4.5h-26.7v-70.6h26.7c7.6 0 14.2 1.5 19.7 4.4s9.8 7 12.8 12.4c3 5.3 4.5 11.5 4.5 18.3-.2 7-1.7 13.1-4.6 18.5zm-18.4-3.6c3.7-3.5 5.5-8.5 5.5-14.8 0-6.4-1.8-11.4-5.5-14.8-3.7-3.5-8.9-5.3-15.5-5.3h-8.1v40.3h8.1c6.6-.1 11.8-1.8 15.5-5.4zm70.9-32.3c4.4 2.3 7.8 5.6 10.3 9.9 2.5 4.3 3.8 9.4 3.8 15.2 0 5.8-1.3 10.9-3.8 15.2-2.5 4.4-5.9 7.6-10.3 9.9-4.4 2.3-9.3 3.4-14.8 3.4s-10.5-1.2-14.9-3.4c-4.4-2.3-7.9-5.6-10.4-9.9-2.5-4.3-3.8-9.4-3.8-15.2 0-5.8 1.3-10.9 3.8-15.2 2.5-4.3 5.9-7.7 10.4-9.9 4.4-2.3 9.4-3.4 14.9-3.4 5.5-.1 10.4 1.1 14.8 3.4zm-23.1 14.8c-2.3 2.4-3.4 5.8-3.4 10.3 0 4.4 1.1 7.9 3.4 10.2 2.3 2.3 5 3.5 8.3 3.5 3.3 0 6-1.1 8.2-3.5 2.2-2.4 3.3-5.7 3.3-10.2 0-4.4-1.1-7.8-3.3-10.3-2.2-2.3-5-3.5-8.2-3.5-3.3 0-6.1 1.2-8.3 3.5zm84.4-14.8c4.4 2.3 7.8 5.6 10.3 9.9 2.5 4.3 3.8 9.4 3.8 15.2 0 5.8-1.3 10.9-3.8 15.2-2.5 4.4-5.9 7.6-10.3 9.9-4.4 2.3-9.3 3.4-14.8 3.4-5.6 0-10.5-1.2-14.9-3.4-4.4-2.3-7.9-5.6-10.4-9.9-2.5-4.3-3.8-9.4-3.8-15.2 0-5.8 1.3-10.9 3.8-15.2 2.5-4.3 6-7.7 10.4-9.9 4.4-2.3 9.4-3.4 14.9-3.4 5.5-.1 10.4 1.1 14.8 3.4zm-23.1 14.8c-2.3 2.4-3.4 5.8-3.4 10.3 0 4.4 1.1 7.9 3.4 10.2 2.2 2.3 4.9 3.5 8.3 3.5 3.3 0 6-1.1 8.2-3.5s3.3-5.7 3.3-10.2c0-4.4-1.1-7.8-3.3-10.3-2.2-2.3-5-3.5-8.2-3.5-3.3 0-6.1 1.2-8.3 3.5zm78 13.3v24.8h-17.1v-70.6h27.7c8.4 0 14.8 2.1 19.2 6.3 4.4 4.2 6.6 9.8 6.6 16.8 0 4.4-1 8.3-2.9 11.8-2 3.5-4.9 6.1-8.8 8.1-3.8 2-8.5 3-14 3l-10.7-.2zm19-22.7c0-6.2-3.5-9.3-10.3-9.3h-8.7V133h8.7c6.8.1 10.3-3 10.3-9zm48.5-5.8c3.3-2 7-3 11-3v18.3h-4.9c-4.5 0-8 .9-10.5 2.9s-3.8 5.2-3.8 9.8v25.4h-17.1v-55.7h17.1v10.5c2.1-3.5 4.9-6.2 8.2-8.2zm32.7-2.4v55.7h-17v-55.7h17zm97.6 5.7c4 4.3 5.9 10.1 5.9 17.6v32.4h-17v-30.3c0-3.6-1-6.3-2.9-8.3-1.9-1.9-4.5-2.9-7.8-2.9-3.4 0-6 1-8 3.1s-3 5.1-3 8.9v29.5H592v-30.3c0-3.6-1-6.3-2.8-8.3-1.8-1.9-4.5-2.9-7.7-2.9-3.4 0-6.1 1-8.1 3.1-2 2-3 5-3 8.9v29.5h-17.1v-55.7h17.1v9.5c1.4-3.2 3.7-5.6 6.8-7.4 3-1.8 6.5-2.7 10.6-2.7 4.3 0 8 1 11.3 3 3.3 1.9 5.7 4.8 7.4 8.5 1.9-3.5 4.5-6.2 7.9-8.3s7.1-3.1 11.2-3.1c6.8-.1 12.2 2 16.1 6.2zm67.2 25.2h-38.6c.2 4.2 1.3 7.2 3.2 9.1 2 1.9 4.4 2.7 7.4 2.7 2.5 0 4.6-.6 6.3-1.9 1.7-1.3 2.8-2.9 3.3-4.9h18.1c-.8 4-2.4 7.4-4.8 10.6-2.5 3.1-5.6 5.6-9.4 7.3-3.8 1.7-8 2.6-12.7 2.6-5.4 0-10.3-1.2-14.5-3.4-4.3-2.3-7.5-5.6-10-9.9-2.4-4.3-3.6-9.4-3.6-15.2 0-5.9 1.2-10.9 3.5-15.2 2.4-4.3 5.7-7.6 10-9.9 4.3-2.3 9.1-3.4 14.5-3.4 5.5 0 10.4 1.1 14.6 3.4 4.2 2.3 7.5 5.4 9.8 9.5 2.3 4.1 3.5 8.8 3.5 14.1-.1 1.4-.2 2.9-.6 4.5zm-19.7-15.4c-2-1.9-4.5-2.8-7.5-2.8-3.2 0-5.7.9-7.8 2.8-2 1.8-3.2 4.6-3.5 8.2h21.8c0-3.6-1-6.3-3-8.2z"/><circle class="st0" cx="535.6" cy="97.1" r="10.2"/><path class="st0" d="M10.6 7.8v164.5h82.2V90H175V7.8H10.6zm151.3 68.9c-3.9 3.9-10.1 3.9-13.9 0L106.3 35c-3.9-3.9-3.9-10.1 0-13.9 3.9-3.9 10.1-3.9 13.9 0l41.7 41.7c3.8 3.8 3.8 10.1 0 13.9z"/><path class="st0" d="M161.9 103.3c-3.9-3.8-10.1-3.8-13.9 0L106.3 145c-3.9 3.9-3.9 10.1 0 13.9 3.9 3.8 10.1 3.8 13.9 0l41.7-41.7c3.8-3.9 3.8-10.1 0-13.9z"/><path d="m238.8 35.3-9.3 17.5v11.3h-2.9V52.9l-9.3-17.5h3.3l7.5 14.5 7.5-14.5c0-.1 3.2-.1 3.2-.1zm19.8 7.6c1.7.9 3 2.3 4 4 1 1.8 1.5 3.8 1.5 6.1s-.5 4.3-1.5 6.1c-.9 1.7-2.3 3-4 3.9-1.6 1-3.5 1.4-5.7 1.4-2.1 0-4.1-.4-5.7-1.4-1.7-.9-3-2.2-4-4-.9-1.8-1.4-3.8-1.4-6 0-2.4.5-4.4 1.4-6.1.9-1.8 2.3-3 4-4 1.7-.9 3.6-1.3 5.7-1.3 2.2-.1 4.1.4 5.7 1.3zm-9.7 2.1c-1.3.7-2.3 1.6-3 3s-1.1 3-1.1 5 .4 3.6 1.1 4.9c.8 1.4 1.8 2.4 3 3s2.6 1 4.1 1c1.4 0 2.8-.3 4-1 1.3-.7 2.3-1.7 3-3s1.1-3 1.1-4.9-.4-3.6-1.1-5c-.8-1.4-1.8-2.3-3-3-1.3-.6-2.6-1-4-1-1.5 0-2.9.3-4.1 1zm39.5-3.2v22.3h-2.8v-5.5c-.6 2-1.6 3.4-3.1 4.4s-3.2 1.5-5.1 1.5c-2.6 0-4.8-.8-6.4-2.5-1.6-1.6-2.5-4-2.5-7.2v-13h2.9v12.7c0 2.5.6 4.3 1.8 5.6 1.3 1.3 2.9 2 5 2 2.3 0 4-.7 5.4-2.2 1.3-1.5 2-3.5 2-6.3V41.8h2.8zm12.3.9c1.5-.8 3.2-1.3 5.3-1.3v3.1h-1c-2.2 0-4 .6-5.4 1.8-1.4 1.1-2.1 3-2.1 5.6v12.2h-2.9V41.8h2.9v4.6c.7-1.6 1.7-2.8 3.2-3.7zm22.6 9.4v12h-2.9V35.3h8.6c3.3 0 5.6.8 7.2 2.2 1.6 1.5 2.4 3.6 2.4 6.2 0 2.7-.8 4.8-2.4 6.2-1.7 1.5-4 2.2-7.2 2.2h-5.7zm10.8-4c1.1-1 1.7-2.5 1.7-4.4 0-2-.6-3.5-1.7-4.5s-2.9-1.5-5.4-1.5h-5.4v12h5.4c2.5 0 4.3-.6 5.4-1.6zm15.1-5.4c1.5-.8 3.2-1.3 5.3-1.3v3.1h-1c-2.2 0-4 .6-5.4 1.8-1.4 1.1-2.1 3-2.1 5.6v12.2h-2.9V41.8h2.9v4.6c.7-1.6 1.8-2.8 3.2-3.7zm9-8.9c.4-.4.9-.6 1.5-.6s1.2.2 1.5.6c.4.3.5.8.5 1.4 0 .6-.2 1.1-.5 1.4-.4.4-.9.6-1.5.6s-1.1-.2-1.5-.6c-.4-.3-.6-.8-.6-1.4 0-.6.2-1.1.6-1.4zm3 8v22.3h-2.9V41.8h2.9zm14.4 19.1 7.5-19h3.1l-9 22.3H374l-9-22.3h3.1l7.5 19zm29.6-17.6c1.6 1.1 2.7 2.7 3.3 4.7v-6.1h2.8v22.3h-2.8V58c-.6 2-1.7 3.5-3.3 4.7-1.6 1.2-3.5 1.8-5.8 1.8-2 0-3.8-.5-5.4-1.4-1.6-1-2.8-2.3-3.7-4-.9-1.8-1.3-3.8-1.3-6 0-2.4.4-4.4 1.3-6.1.9-1.8 2.1-3 3.7-3.9 1.6-.9 3.4-1.4 5.5-1.4 2.2-.2 4.1.4 5.7 1.6zm-11.1 3.1c-1.5 1.6-2.3 3.8-2.3 6.5s.8 4.9 2.3 6.5c1.5 1.6 3.5 2.4 6 2.4 1.6 0 3-.3 4.3-1.1 1.3-.7 2.3-1.8 3-3.1.7-1.4 1.1-2.9 1.1-4.7 0-1.8-.4-3.4-1.1-4.7-.7-1.4-1.7-2.4-3-3.1-1.3-.8-2.7-1.1-4.3-1.1-2.5.1-4.5.9-6 2.4zm33.5 15.2v2.5H425c-2.1 0-3.8-.5-4.8-1.5-1.1-1-1.6-2.8-1.6-5.2V44.3h-3.4v-2.5h3.4v-5.7h2.9v5.7h6.2v2.5h-6.2v13.2c0 1.6.3 2.6.8 3.2.6.6 1.6.9 3 .9h2.3zm19.5-1.1c1.3-1 2.2-2.4 2.4-4.1h3c-.4 2.3-1.5 4.3-3.4 5.7s-4.2 2.2-7 2.2c-2.1 0-4-.5-5.6-1.4-1.7-.9-2.9-2.2-3.9-3.9-1-1.8-1.4-3.8-1.4-6.1s.4-4.4 1.4-6.1c1-1.8 2.2-3 3.9-4 1.6-.9 3.5-1.3 5.6-1.3 2.2 0 4 .5 5.6 1.3 1.7.9 2.9 2.1 3.7 3.6.8 1.5 1.3 3.2 1.3 5 0 .8-.1 1.5-.1 2.1h-18.5c.1 1.9.4 3.4 1.2 4.7s1.7 2.2 2.9 2.8c1.2.6 2.5.9 3.9.9 1.9.1 3.6-.4 5-1.4zm-8.9-15.7c-1.2.6-2.1 1.5-2.9 2.8-.8 1.3-1.1 2.8-1.2 4.7h15.8c.1-1.8-.2-3.3-.9-4.6-.7-1.3-1.6-2.2-2.8-2.8-1.2-.6-2.5-.9-3.9-.9-1.6-.1-2.9.2-4.1.8zm47.8 6.9c1.1 1.3 1.7 2.8 1.7 4.7 0 2.3-.8 4.2-2.4 5.6-1.6 1.5-3.9 2.2-6.9 2.2h-10V35.3h9.9c2.9 0 5.1.6 6.5 1.9 1.5 1.3 2.2 3.1 2.2 5.2 0 1.9-.5 3.4-1.5 4.5s-2.3 1.9-3.9 2.3c1.8.4 3.3 1.2 4.4 2.5zm-14.6-3.5h6.6c2 0 3.6-.5 4.6-1.4 1-1 1.5-2.3 1.5-3.9s-.5-2.8-1.5-3.8-2.6-1.4-4.8-1.4h-6.5l.1 10.5zm11.6 12c1.2-1 1.8-2.4 1.8-4.2 0-1.8-.6-3.1-1.9-4.1-1.3-1-2.9-1.6-5.1-1.6h-6.5v11.3h6.6c2.2.1 3.9-.4 5.1-1.4zm15.6-17.5c1.4-.8 3.2-1.3 5.3-1.3v3.1h-1c-2.1 0-4 .6-5.4 1.8-1.4 1.1-2.1 3-2.1 5.6v12.2h-2.9V41.8h2.9v4.6c.7-1.6 1.8-2.8 3.2-3.7zm24.9.2c1.7.9 3 2.3 4 4 1 1.8 1.5 3.8 1.5 6.1s-.5 4.3-1.5 6.1c-1 1.7-2.3 3-4 3.9-1.7 1-3.5 1.4-5.7 1.4-2.1 0-4-.4-5.7-1.4-1.7-.9-3-2.2-4-4-1-1.8-1.4-3.8-1.4-6 0-2.4.5-4.4 1.4-6.1 1-1.8 2.3-3 4-4 1.7-.9 3.6-1.3 5.7-1.3 2.1-.1 4 .4 5.7 1.3zm-9.8 2.1c-1.3.7-2.2 1.6-3 3-.8 1.4-1.2 3-1.2 5s.4 3.6 1.2 4.9c.8 1.4 1.7 2.4 3 3s2.6 1 4.1 1c1.5 0 2.8-.3 4-1 1.3-.7 2.3-1.7 3-3s1.2-3 1.2-4.9-.4-3.6-1.2-5c-.8-1.4-1.8-2.3-3-3-1.3-.6-2.6-1-4-1-1.5 0-2.8.3-4.1 1zm32.2 19.1-9-10.2v10.2H534V33.9h2.9v17.8l8.8-9.8h3.5l-10.3 11 10.5 11.3h-3.5zm21.9-3.6c1.3-1 2.2-2.4 2.5-4.1h3c-.4 2.3-1.5 4.3-3.4 5.7s-4.2 2.2-7 2.2c-2.1 0-4-.5-5.7-1.4s-2.9-2.2-3.8-3.9c-1-1.8-1.4-3.8-1.4-6.1s.4-4.4 1.4-6.1c1-1.8 2.2-3 3.8-4 1.7-.9 3.5-1.3 5.7-1.3s4 .5 5.6 1.3c1.6.9 2.8 2.2 3.7 3.7.8 1.5 1.3 3.2 1.3 5 0 .8 0 1.5-.1 2.1h-18.5c.1 1.9.4 3.4 1.2 4.7s1.7 2.2 2.9 2.8c1.2.6 2.5.9 3.9.9 1.8 0 3.5-.5 4.9-1.5zm-8.9-15.7c-1.2.6-2.1 1.5-2.9 2.8-.8 1.3-1.2 2.8-1.2 4.7h15.8c.1-1.8-.2-3.3-.9-4.6-.7-1.3-1.7-2.2-2.9-2.8-1.2-.6-2.5-.9-3.9-.9-1.5-.1-2.8.2-4 .8zm25.7-2.1c1.4-.8 3.2-1.3 5.3-1.3v3.1h-1c-2.2 0-4 .6-5.4 1.8-1.4 1.1-2.1 3-2.1 5.6v12.2h-2.9V41.8h2.9v4.6c.7-1.6 1.7-2.8 3.2-3.7z"/></svg>