<svg xmlns="http://www.w3.org/2000/svg" viewBox="0 0 900 240" style="enable-background:new 0 0 900 240" xml:space="preserve"><path d="M185 205.5H5v-180h180v180z" style="fill:#d92626"/><path d="M74 178.5h42v-42h42v-42h-42v-42H74v42H32v42h42v42z" style="fill:#fff"/><path d="m868.1 45-18 26.9L832.9 45h-28.5l2.7 3.9c-4.3-1.6-10.9-3.9-15.6-3.9H751v25.8c-1.6-5.9-4.7-10.9-9.4-15.2-7.4-6.6-16-10.9-31.6-10.9h-.4c-15.2 0-23.4 4.3-30.8 10.9-4.3 3.9-7.4 9-9.4 14.8-.8-2-1.9-5.5-2.3-7-2.3-5.1-6.2-9.4-10.9-12.5-4.3-2.7-8.6-4.3-13.7-5.1 0 0-3.5-1.2-10.9-1.2-16-.4-23.4 3.9-30.4 10.5S590.7 71.5 590.3 84v1.2c-2.7-3.1-5.9-5.9-9.8-7.4-7.8-3.1-15.6-5.5-23.8-6.6-3.1-.4-5.9-1.2-8.6-2.7-1.2-.8-1.6-2-1.6-3.1 0-1.6.8-3.1 2.3-4.3 2-1.2 4.3-2 6.6-1.6 3.1 0 5.9.8 8.6 2.3 2.3 1.6 3.5 4.3 3.9 7h24.2c-.4-7-4.3-13.7-10.1-18-7.4-4.3-15.6-6.2-23.8-6.2-10.1 0-13.7 1.6-20.3 3.9-4.3 1.6-8.2 4.3-10.9 8.2-2.3 3.1-3.5 7-3.5 10.9 0 5.9 2.7 11.3 7 14.8 7 4.7 15.2 7.8 23.8 9 4.7.8 9 2 12.9 4.7 1.6 1.2 2.7 3.1 2.7 5.1 0 2.3-1.2 4.3-3.1 5.5-2.3 1.6-5.5 2.7-8.6 2.3-4.3.4-8.2-1.6-11.3-4.7-2-2-2.7-4.7-3.1-7.4h-23L499.2 45H473l-26.9 67.5L421.5 75l31.6-30h-33.2l-27.7 29.7V45h-25.8v51.5c-.4 2.3-1.6 4.3-3.5 5.9-2.7 2.3-6.6 3.5-10.1 3.5-3.9.4-7.4-1.2-10.1-3.5-2.7-2.7-3.9-6.2-3.5-9.8V45h-25.4v18.3c-.4-2.7-.8-5.5-2-7.8-1.6-5.9-4.3-10.9-8.2-15.2-3.9-4.3-9-7.8-14.4-10.1-7-3.1-14.8-4.7-22.6-4.7h-46.8v97.6h42.9c7.8-.8 15.6-1.6 23.4-3.9 5.5-1.2 10.1-3.9 14.4-7.4 4.7-3.9 8.2-8.6 10.5-14.1 1.6-3.5 2.3-7.4 3.1-11.3v5.5c0 4.3.8 8.6 2.3 12.9 1.2 3.1 3.1 6.2 5.5 9 2.3 2.7 5.5 5.1 8.6 6.6 3.5 1.6 7.8 2.7 11.7 3.1 4.7.4 9 .8 12.9.8 4.7 0 8.6 0 13.3-1.2h23v-17.2l13.7-14.4 17.2 31.6h46.4l3.9-12.9h28.9l3.9 12.9H532l-2.3-6.6c5.5 5.1 14.8 7.4 28.9 7.4 6.6.4 13.7-.8 19.9-3.1 5.1-2 9-5.1 12.1-9.4 2-2.3 3.1-5.5 3.9-8.6.8 1.6 1.6 3.1 2.7 4.7 3.5 5.5 8.6 10.1 14.4 12.9 7 2.7 14.4 3.9 21.9 3.5 3.1 0 6.2-.4 9.8-.8 3.1-.4 5.9-1.2 8.6-2.3 4.7-2 8.6-5.1 11.7-9 2.3-2.7 4.3-5.9 5.5-9.4.4-.8.8-2.7.8-4.3.8 2.7 2.3 5.9 3.9 8.2 3.5 5.9 8.6 10.1 14.8 12.9 7 2.7 9.8 4.3 18.3 4.3h6.2c6.2 0 14.1-1.6 21.5-5.1 8.2-4.3 14.4-11.7 17.2-20.7v25.4h25.4V93.8h14.1c10.1 0 18-2 22.6-6.2 5.1-4.7 7.8-11.3 7.4-18v-2.7l17.2 23.8v32h25.4v-32L895 46.6l-5.1-1.6h-21.8zM280.2 91.1c-1.2 3.1-3.5 5.5-6.6 7.4-2.3 1.2-4.7.8-7 1.2H251V48.9h15.6c3.9 0 16 2.7 16 25.4.3 5.8-.4 11.3-2.4 16.8zm198.3 2.3 8.6-26.2.4-1.2 9 27.3h-18zM669 95h-22.3c-.4 2.7-1.9 5.5-3.5 7.4-3.1 2.7-7 3.9-10.9 3.9-4.3.4-8.6-1.6-11.7-4.7-2.7-3.1-4.3-9-4.3-17.2-.4-5.1.8-10.5 3.5-14.8 3.1-4.3 7.8-6.6 13.3-6.6 2.3 0 4.7.4 7 1.6 1.2.4 2.3 1.2 3.1 2 1.6 1.2 2.7 3.1 3.5 5.1h23c-1.2 4.3-1.9 9-1.9 13.3 0 3 .4 6.5 1.2 10zm54.2 6.2c-3.1 3.5-7.8 5.1-12.9 5.1-4.7.4-9.4-1.6-12.5-5.1-3.5-4.7-5.1-10.5-4.7-16.4-.4-5.9 1.2-11.7 4.7-16.8 3.1-3.5 7.8-5.5 12.1-5.1h.4c4.7 0 9.4 1.6 12.5 5.1 3.5 4.3 5.1 10.1 4.7 15.6 0 8.3-1.5 14.5-4.3 17.6zm69.9-24.6c-3.1 1.6-6.6 2.7-10.1 2.3h-6.2V61.8h7.4c3.5-.4 6.6.8 9.8 2.3 1.6 1.6 2.7 3.9 2.7 6.2-.5 2.4-1.6 4.8-3.6 6.3z"/><path d="M222.8 194.5c1.6 2.7 3.9 4.7 7 5.9 3.5 1.6 7 2 10.9 2 3.1 0 6.2-.8 9.4-2 2.7-1.2 4.7-3.1 6.2-5.5 1.6-2 2.3-4.7 2.3-6.6 0-2.3-.8-4.7-2-6.6-1.6-2.3-3.9-3.9-6.2-5.1-3.5-1.2-7-2.3-10.5-3.1-3.5-.4-6.6-1.6-9.8-3.5-1.2-1.2-2-2.7-2-4.3 0-2 1.2-3.9 2.7-5.1 2.3-1.6 5.5-2.3 8.6-2.3 3.1-.4 5.9.8 8.2 2.3 2 1.6 3.1 4.3 3.5 6.6l6.2-.4c0-2.7-.8-5.5-2.3-7-1.6-2.3-3.9-3.9-6.2-5.1-3.1-1.2-6.2-2-9.4-1.6-3.1 0-5.9.4-9 1.6-2.3.8-4.7 2.7-6.2 4.7-1.2 2-2 4.3-2 6.2 0 2 .4 4.3 1.6 5.9 1.2 2 3.1 3.5 5.1 4.7 3.1 1.2 6.2 2.3 9.4 3.1 2.7.8 5.9 1.6 8.6 2.3 1.6.4 3.1 1.6 4.3 2.7.8 1.2 1.2 2.3 1.2 3.9s-.4 3.1-1.6 4.3c-1.2 1.6-2.3 2.3-4.3 3.1-2 .8-4.3 1.2-6.2 1.2-2.3 0-5.1-.4-7.4-1.6-2-.8-3.5-2-4.7-3.9-1.2-2-2-3.9-2-5.9h-5.9c-.2 3.7 1 6.4 2.5 9.1zm57 6.3 7-26.2 1.6 5.9 5.5 19.9h6.2l10.9-33.6h-5.9l-5.9 19.5-2 6.2-1.6-6.2-5.9-19.1h-6.2l-5.5 19.5c-1.2 4.3-1.6 6.6-2 6.6l-2-6.6-5.5-19.5h-6.2l10.5 33.6h7zm42.6-40.2V154h-5.9v6.6h5.9zm0 40.2v-33.6h-5.9v33.6h5.9zm11.7-2c3.1 2 6.6 3.1 10.5 2.7 2.3 0 5.1-.4 7.4-1.6 1.9-.8 3.9-2.3 5.1-3.9 1.2-1.6 1.6-3.5 1.6-5.5s-.4-3.5-1.6-5.1c-1.2-1.6-2.3-2.3-3.9-3.1-2.7-1.2-5.9-2-8.6-2.7-2.7-.8-4.7-1.2-5.1-1.6-.8-.4-1.6-.8-2.3-1.6-.4-.4-.8-1.2-.8-2 0-1.2.8-2.3 1.6-3.1 1.6-1.2 3.9-1.6 5.9-1.2 2 0 3.9.4 5.5 1.6 1.2 1.2 2 2.7 2.3 4.3l5.9-.8c-.4-2-.8-3.9-1.9-5.5-1.2-1.6-2.7-2.7-4.7-3.1-2.3-1.2-5.1-1.6-7.4-1.6-1.6 0-3.5.4-5.1.8-1.2.4-2.7.8-3.9 1.6-1.2.8-2.3 2-3.1 3.1-.8 1.2-1.2 2.7-1.2 4.3 0 3.5 2 6.2 5.1 7.8 2.7 1.2 5.9 2 9 2.7 2 .4 4.3 1.2 6.2 2 1.2.8 1.6 2 1.6 3.1 0 1.6-.8 3.1-2 3.9-1.6 1.2-3.9 2-6.2 1.6-2.3 0-4.3-.4-6.2-2-1.6-1.6-2.7-3.1-2.7-5.5l-5.9 1.6c1 4.1 2.5 6.9 4.9 8.8zm34.3 0c3.1 2 6.6 3.1 10.5 2.7 2.3 0 5.1-.4 7.4-1.6 2-.8 3.9-2.3 5.1-3.9 1.2-1.6 1.6-3.5 1.6-5.5s-.4-3.5-1.6-5.1c-1.2-1.6-2.3-2.3-3.9-3.1-2.7-1.2-5.9-2-8.6-2.7-2.7-.8-4.7-1.2-5.1-1.6-.8-.4-1.6-.8-2.3-1.6-.4-.8-.8-1.2-.8-2 0-1.2.8-2.3 1.6-3.1 1.6-1.2 3.9-1.6 5.9-1.2 2 0 3.9.4 5.5 1.6 1.2 1.2 1.9 2.7 2.3 4.3l5.9-.8c-.4-2-.8-3.9-1.9-5.5-1.2-1.6-2.7-2.7-4.7-3.1-2.3-.8-4.7-1.2-7.4-1.2-1.6 0-3.5.4-5.1.8-1.2.4-2.7.8-3.9 1.6-1.2.8-2.3 2-3.1 3.1-.8 1.2-1.2 2.7-1.2 4.3 0 3.5 2 6.2 5.1 7.8 2.7 1.2 5.9 2 9 2.7 2 .4 4.3 1.2 6.2 2 1.2.8 2 2 1.6 3.1 0 1.6-.8 3.1-2 3.9-1.6 1.2-3.9 2-6.2 1.6-2.3 0-4.3-.4-6.2-2-1.6-1.6-2.7-3.1-2.7-5.5l-5.9.8c1 4.5 2.6 7.3 4.9 9.2zm70.3 2c2.7 0 5.1-.4 7.8-.8 2-.4 3.5-1.2 5.5-2.3 1.6-1.2 2.7-2.7 3.5-4.7.8-2 1.6-4.3 1.6-5.9 0-2.7-.8-5.1-2.3-7-1.6-2-3.9-3.5-6.6-4.3 2-.8 3.9-2.3 5.1-4.3 1.2-1.6 1.6-3.9 1.6-5.9 0-2.3-.8-4.3-2-5.9-1.2-2-3.1-3.5-5.1-4.7-2.7-1.2-5.9-1.6-9-1.6h-18V200l17.9.8zM427 160.2h9.8c2.3 0 5.1 0 7.4.8 1.2.4 2.3 1.2 3.1 2.3.8 1.2 1.2 2.7 1.2 4.3 0 1.6-.4 3.1-1.2 4.3-.8 1.2-2.3 2-3.5 2.3-1.9.4-3.9.8-6.2.4H427v-14.4zm0 19.1h11.3c2.3 0 4.7 0 7 .8 1.6.4 2.7 1.6 3.9 2.7 1.6 2.7 2 5.9.4 8.2-.4 1.2-1.6 2-2.3 2.7-1.2.8-2.3 1.2-3.5 1.2-1.6 0-2.7.4-4.3.4h-12.1v-16h-.4zm62.4 21.5h6.2c-.8-1.2-1.2-2.7-1.6-4.3-.4-3.5-.4-6.6-.4-10.1V179c0-2 0-3.5-.4-5.5-.4-1.6-.8-2.7-2-3.9-1.2-1.2-2.3-2-4.3-2.7-2.3-.8-4.7-1.2-7.4-1.2s-5.5.4-7.8 1.2c-2 .8-3.9 2-5.1 3.5-1.2 2-2.3 3.9-2.7 5.9l5.9.8c.4-2 1.6-3.9 3.1-5.1 2-1.2 3.9-1.6 6.2-1.6 2.3 0 4.7.4 6.6 2 1.2 1.6 2 3.1 1.6 5.1v1.6c-3.5 1.2-7 1.6-10.5 2-1.9 0-3.5.4-5.5.8-1.6.4-3.1 1.2-4.3 2-1.2.8-2.3 2-3.1 3.5-.8 1.6-1.2 3.1-1.2 4.7 0 2.7 1.2 5.5 3.1 6.6 2.3 2 5.5 3.1 9 2.7 2.3 0 4.3-.4 6.6-1.2 2.3-.8 4.3-2.3 6.2-3.9.7 1.7 1 3.3 1.8 4.5zm-1.5-14.9c0 2-.4 3.9-.8 5.9-.8 1.6-2.3 3.1-3.9 3.9-2 1.2-3.9 1.6-6.2 1.6-1.9 0-3.9-.4-5.1-1.6-1.2-.8-2-2.3-2-3.9 0-1.2.4-2 .8-2.7.4-.8 1.6-1.6 2.3-2 1.6-.8 3.5-1.2 5.1-1.2 3.1-.4 6.6-1.2 9.8-2.3v2.3zm21.8 14.9v-18.3c-.4-3.1.8-6.2 2.7-8.6 2-1.6 4.3-2.3 6.6-2.3 1.6 0 2.7.4 4.3 1.2 1.2.8 2 1.6 2.3 2.7.4 2 .8 3.5.8 5.5v20.3h5.9v-20.7c0-2 0-3.9-.4-5.9-.4-1.6-.8-3.1-2-4.3-1.2-1.2-2.3-2.3-3.9-3.1-1.9-.8-3.9-1.2-5.9-1.2-4.3 0-8.6 2-10.9 5.9v-5.1h-5.5v33.6l6 .3zm37.9 0v-13.3l4.3-3.9 11.3 17.6h7.4l-14.8-21.1 13.3-12.5h-7.8l-14.1 13.7v-26.5h-5.9v46.5l6.3-.5zm34.3-40.2V154H576v6.6h5.9zm0 40.2v-33.6H576v33.6h5.9zm15.6 0v-18.3c-.4-3.1.8-6.2 2.7-8.6 2-1.6 4.3-2.3 6.6-2.3 1.6 0 2.7.4 4.3 1.2 1.2.8 2 1.6 2.3 2.7.4 1.6.8 3.5.8 5.5v20.3h5.9v-20.7c0-2 0-3.9-.4-5.9-.4-1.6-.8-3.1-2-4.3-1.2-1.2-2.3-2.3-3.9-3.1-1.9-.8-3.9-1.2-5.9-1.2-4.3 0-8.6 2-11.3 5.9v-5.1h-5.5v33.6l6.4.3zm34.8 10.9c3.1 2 6.6 3.1 10.1 2.7 3.1 0 6.2-.4 9-2 2.3-1.2 4.3-3.1 5.5-5.5 1.2-3.5 1.9-7.4 1.6-11.3v-28.9H653v4.3c-2.3-3.1-6.2-5.1-10.1-5.1-5.9 0-11.3 3.5-13.3 8.6-1.2 2.7-2 5.9-2 9 0 4.3 1.2 8.6 3.9 12.1s6.6 5.5 11.3 5.1c3.9 0 7.4-1.6 9.8-4.7 0 2.7 0 5.1-.4 7-.4 2-1.6 3.5-3.1 4.7-2 1.2-3.9 2-6.2 1.6-2 0-4.3-.4-5.9-1.6-1.2-.8-2-2.3-2-3.9l-5.9-.8c-.7 3.6.5 6.7 3.2 8.7zm3.9-37.5c1.6-2 4.3-3.1 6.6-3.1 2.7 0 5.1 1.2 7 3.1 2 2.7 3.1 5.9 2.7 9.4.4 3.5-.8 6.6-2.7 9.4-3.1 3.9-9 4.3-12.5 1.2l-1.2-1.2c-2-2.7-3.1-6.2-2.7-9.8.1-3.1.8-6.2 2.8-9zm88.6 8.6v8.6c-2 1.6-3.9 2.7-5.9 3.5-2.7 1.2-5.5 1.6-8.2 1.6-3.1 0-6.2-.8-9-2-2.7-1.6-5.1-3.5-6.2-6.2-1.6-3.5-2.3-6.6-2.3-10.5 0-3.1.8-6.2 2-9.4.8-1.6 2-3.5 3.1-4.7 1.6-1.6 3.1-2.7 5.1-3.5 2.3-.8 5.1-1.6 7.4-1.2 2.3 0 4.7.4 6.6 1.2 2 .8 3.5 2 4.7 3.5 1.2 1.6 2.3 3.5 2.7 5.9l5.9-1.6c-.8-2.7-2-5.5-3.5-7.4-1.6-2-3.9-3.9-6.6-4.7-3.1-1.2-6.2-2-9.4-1.6-4.3 0-9 .8-12.9 3.1-3.9 2-6.6 5.1-8.6 8.6-1.9 3.9-3.1 8.2-3.1 12.9 0 4.3.8 8.6 3.1 12.5 2 3.9 5.1 6.6 8.6 8.6 3.9 2 8.6 3.1 12.9 3.1 3.5 0 7-.8 10.1-2 3.5-1.2 6.6-3.1 9.8-5.5v-17.2h-20.3v5.5l14-1.1zm21.5 18v-17.6c0-2.3.4-4.7 1.2-6.6.4-1.2 1.2-2.3 2.3-3.1 1.2-.8 2.3-1.2 3.5-1.2 1.6 0 3.1.4 4.3 1.2l2-5.5c-2-1.2-3.9-2-6.2-2-1.2 0-2.7.4-3.9 1.2-1.6 1.2-2.7 3.1-3.9 5.1v-5.5H740v33.6l6.3.4zm19.5-3.9c3.1 3.1 7.4 4.7 11.7 4.7 3.1 0 5.9-.8 8.6-2 2.3-1.6 4.7-3.5 5.9-5.9 1.6-3.1 2.3-6.6 2-10.1.4-4.7-1.2-9-4.7-12.5-3.1-3.1-7.4-5.1-11.7-4.7-3.9 0-7.8 1.2-10.9 3.9-3.9 3.9-5.9 8.6-5.5 14.1-.5 4.3 1.1 9.3 4.6 12.5zm4.3-22.7c3.5-3.9 9.8-4.3 13.7-.8.4.4.8.4.8.8 2 2.7 3.1 5.9 3.1 9.4.4 3.5-.8 7-3.1 9.8-2 2.3-4.3 3.5-7.4 3.5-2.7 0-5.5-1.2-7.4-3.5-3.6-5.5-3.6-12.9.3-19.2zm59.3 26.6v-33.6h-5.9v18c0 2.3-.4 4.7-1.2 6.6-.8 1.6-2 2.7-3.5 3.5-1.6.8-3.1 1.6-5.1 1.2-1.6 0-3.1-.4-4.3-1.2-1.2-.8-1.9-2.3-2.3-3.5-.4-2-.4-4.3-.4-5.9v-18.7h-5.5v20.7c0 2 0 3.9.4 5.5s.8 3.1 2 4.3c1.2 1.2 2.3 2.3 3.9 3.1 1.9.8 3.9 1.2 5.9 1.2 4.3 0 8.6-2 10.9-5.9v5.1h5.1v-.4zm16 13.2v-16.4c1.2 1.2 2.3 2.3 3.9 3.1 1.6.8 3.5 1.2 5.5 1.2 2.7 0 5.5-.8 7.8-2.3 2.3-1.6 4.3-3.9 5.5-6.2 1.2-3.1 2-5.9 2-9.4 0-3.1-.4-5.9-1.6-9-1.2-2.7-2.7-5.1-5.1-6.2-2.3-1.2-5.1-2.3-7.8-2.3-2 0-3.9.4-5.9 1.2-1.6 1.2-3.1 2.3-4.3 3.9v-4.7H840v46.8h5.5v.3zm2.4-39.8c1.6-2.3 3.9-3.5 6.6-3.5 2.7 0 5.1 1.2 6.6 3.1 2 2.7 3.1 6.2 2.7 9.8.4 3.5-.8 7-2.7 9.8-1.6 2-4.3 3.5-6.6 3.5-2.7 0-5.1-1.2-6.6-3.1-2-2.7-3.1-5.9-2.7-9.8-.5-3.1.7-7 2.7-9.8z" style="fill:#919ba8"/></svg>