<svg xmlns="http://www.w3.org/2000/svg" viewBox="0 0 720 120" style="enable-background:new 0 0 720 120" xml:space="preserve"><path d="M42.8 70.8c-.5-1-1-6-1-9 0-16 11.5-29.5 41-29.5h15.5s-3.5 1.5-11.5 7c-7.5 5.5-44 31.5-44 31.5zm122.5-12 56.5-42h-28l-42.5 32-11-7h-26.5l24 17.5-18.5 15.5c-9.5 8-23 19-42.5 19-8 0-19-1.5-25-8.5l91-68h-55c-34 0-51.5 19-51.5 42.5 0 5 1 11 2.5 14l-38 27.5h29l17.5-13c6.5 8 20 15 34 15 23.5 0 45-15 52.5-21l17-13.5 45 32.5h31.5c-.1-.1-62-42.5-62-42.5z" style="fill:#ffcf01"/><path d="M556.2 51.8c-1.5-9-9-13-16-13s-14.5 4.5-16 13h32zm16.6 24.5c-2 5-8.5 19.5-32 19.5-11 0-19-3-25.5-9.5-7.5-7-10.5-15.5-10.5-25.5 0-13 5.5-21 10-26 8-7.5 17-9.5 25.5-9.5 13.5 0 21.5 5.5 26 11 7 8.5 8 18.5 8 26v1.5h-50c0 4 1 8 3.5 11 2 2.5 6 6 13.5 6 7 0 12.5-3.5 15.5-8.5l16 4zM297.2 51.8c-1.5-9-9-13-16-13s-14.5 4.5-16 13h32zm16.6 24.5c-2 5-8.5 19.5-32 19.5-11 0-19-3-25.5-9.5-7.5-7-10.5-15.5-10.5-25.5 0-13 5.5-21 10-26 8-7.5 17-9.5 25.5-9.5 13.5 0 21.5 5.5 26 11 7 8.5 8 18.5 8 26v1.5h-50c0 4 1 8 3.5 11 2 2.5 6 6 13.5 6 7 0 12.5-3.5 15.5-8.5 0-.1 16 4 16 4zm103.9-49.5h20.5v11c4-4.5 10.5-12 22.5-12 15 0 23.5 8 23.5 29v39.5h-19.5V55.8c0-8-4-13-10-13-7 0-13 4-16.5 8.5v42h-20.5V26.8zm245.1 60 5.5-14.5c7.5 5.5 18.5 8.5 25 8.5 6 0 8.5-2 8.5-5v-.5c0-4-7-5.5-14.5-8-10-3-21-7-21-20.5s11.5-21.5 25.5-21.5c9 0 17 2 24.5 6.5l-4 14.5c-7-4-15.5-6.5-20.5-6.5s-7.5 2-7.5 4.5v.5c0 4 6.5 5.5 14 8 10 3 21 7.5 21 20v.5c0 15-11.5 22-27 22-9.1 0-20.1-1.5-29.5-8.5zm-71 0 5.5-14.5c7.5 5.5 18.5 8.5 25 8.5 5.5 0 8.5-2 8.5-5v-.5c0-4-7-5.5-14.5-8-10-3-21-7-21-20.5s11.5-21.5 25.5-21.5c9 0 17 2 24.5 6.5l-4 14.5c-7-4-15.5-6.5-20.5-6.5s-7.5 2-7.5 4.5v.5c0 4 6.5 5.5 14 8 10 3 21 7.5 21 20v.5c0 15-11.5 22-27 22-9.1 0-20.1-1.5-29.5-8.5zm-230-40.5 14-19.5h22l-25.5 33 26.5 34.5h-23l-15-21-15 21h-22l27-34.5-25.5-33h23l13.5 19.5z"/></svg>