<svg version="1.1" id="Layer_1" xmlns="http://www.w3.org/2000/svg" x="0" y="0" viewBox="0 0 450 130" style="enable-background:new 0 0 450 130" xml:space="preserve"><style>.st0{fill:#053c50}</style><path class="st0" d="M4.3 1.7h51v15.5H22V28h30.1v14.7H22v22.7H4.3zm136.6 0H171c9.7 0 16.5 2.5 20.8 6.9 3.7 3.6 5.6 8.6 5.6 14.8v.2c0 9.7-5.2 16.2-13.1 19.6l15.2 22.2h-20.4l-12.8-19.3h-7.7v19.3h-17.7V1.7zm29.3 30.6c6 0 9.5-2.9 9.5-7.6v-.2c0-5-3.6-7.6-9.6-7.6h-11.6v15.3h11.7zm36.2-30.6h51.3v15h-33.8v9.7h30.6v13.9h-30.6v10.1h34.2v15h-51.7zM285.8 33l-21-31.3h20.3l11.3 17.9 11.4-17.9h19.9l-21 31.1 21.9 32.6h-20.3l-12.2-19.2-12.3 19.2h-19.9zm60.1 2.2c-.1-7.4 5.8-13.4 13.1-13.4h.5c5.2 0 8.7 2.3 10.9 5.7l-6.1 4.5c-1-1.7-2.8-2.7-4.8-2.7-2.9 0-5 2.5-5 5.6v.1c0 3.3 2.1 5.8 5.1 5.8 2.1 0 3.5-1 4.9-2.6l6 4.3c-2.4 3.5-5.7 5.8-11.3 5.8-7.3.1-13.2-5.7-13.3-12.9v-.2m27 0c0-7.3 5.9-13.4 14.1-13.4s14 6 14 13.2v.1c0 7.2-5.9 13.3-14.1 13.3s-14-6-14-13.2m19.5 0c.1-3.1-2.2-5.7-5.3-5.8h-.1c-2.9 0-5.3 2.4-5.3 5.3v.4c-.1 3 2.2 5.6 5.3 5.7h.1c2.9 0 5.3-2.4 5.3-5.3v-.3m12.8-12.9h8.9v3.5c1.7-2.5 4.5-4 7.6-4 3-.2 5.9 1.4 7.3 4.1 2-2.6 5.2-4.2 8.5-4.1 5.4 0 8.7 3.4 8.7 9.3v16.7h-8.9V33.9c0-2.8-1.4-4.2-3.5-4.2s-3.7 1.5-3.7 4.2v13.8h-8.9V33.9c0-2.8-1.4-4.2-3.5-4.2s-3.6 1.5-3.6 4.2v13.8h-8.9V22.3z"/><path d="M125.6 33.4v-2h7.5l2.1-5.8H125C122.2 9.8 110.6.2 93 .2 73.2.2 60.3 13.4 60.3 33.8S72.7 67 93 67c16.5 0 28.2-9.1 31.6-24h6.9l2-5.8h-8c0-1.1.1-2.4.1-3.8zm-18.9 3.9H95.9l-2.1 5.8h12.3c-1.4 8.7-5.1 14.7-12.8 14.7C83 57.8 79.1 47 79.1 33.6S82.3 9.4 92.5 9.4c8.1 0 12.3 6.7 13.7 16.2h-8.7l-2.1 5.8h11.3v2.1c.1 1.4.1 2.6 0 3.8z" style="fill:#0ab45a"/><path class="st0" d="M333.5 43c0-2.6 2.1-4.7 4.7-4.7s4.7 2.1 4.7 4.7c0 1.2-.5 2.5-1.4 3.3-1.8 1.8-4.8 1.8-6.6 0-1-.9-1.4-2.1-1.4-3.3M33.6 112.2c-.4.7-.8 1.3-1.1 1.8h9.2v3.7h-26c0 .6-.1 1.3-.2 1.9h7.8s0 1-.1 1.5c-.4 4.2-.8 6.2-1.7 7.1-.7.7-1.7 1.1-2.6 1.1-1.5.1-2.9.1-4.4 0-.1-1.2-.4-2.5-1-3.6 1 .1 2.1.2 3.1.2.4.1.9-.1 1.2-.3.4-.8.7-1.7.8-2.6h-3.9c-1.2 3.1-3.7 5.3-8.6 6.7-.6-1.2-1.3-2.3-2.3-3.2 3.2-.8 5-1.9 6.1-3.4H5.4v-3.5h5.8c.1-.6.2-1.3.2-1.9H4.8V114h9.8c-.3-.7-.6-1.3-1-1.9l3.2-.4H8.9v-8.5h28.8v8.4h-7.5l3.4.6zM42 92.9v3.6H25.7v1.7H39v3.4H7.9v-3.4h12.8v-1.7H4.9v-3.6h15.8v-2.3h5.1v2.3H42zm-28.4 15.6h19.3v-2.1H13.6v2.1zm4.9 3.2c.6.7 1 1.5 1.3 2.3h7.5c.3-.8.7-1.7.9-2.3h-9.7zM25 119h15v10.6h-4.6v-1h-6v1H25V119zm4.4 3.4v2.9h6v-2.9h-6zm77.8-16.6c-.5 3.7-1.8 7.1-4 10.1-1.3-1.2-2.7-2.2-4.2-3 3.3-4 3.7-9.6 3.7-13.5v-4.6h15.6c-.2-1.4-.3-2.8-.4-4.2h5c.1 1.5.2 2.9.4 4.2h4.8c-.9-.9-2-1.8-3.1-2.5l3.4-2c1.7 1 3.2 2.2 4.6 3.6l-1.4.9h5.4v4.3h-12.8c.5 1.9 1.2 3.7 2.1 5.4 1.4-1.4 2.6-3.1 3.6-4.8l4.5 1.3c-1.5 2.7-3.4 5.1-5.6 7.2.9 1.1 2.1 1.7 3.4 1.8 1 0 1.4-1.2 1.7-4.4 1.2 1 2.5 1.7 3.9 2.2-.8 5.6-2.3 6.9-5.8 6.9-2.6 0-5-1.3-7-3.4-1.8 1.3-3.7 2.4-5.8 3.4-.9-1.2-1.8-2.4-2.9-3.4-.1.2-.2.5-.4.7-.7.8-1.6 1.2-2.6 1.2-1.5.1-2.9.2-4.4.1-.1-1.3-.4-2.6-1-3.7 1 .1 2 .2 3 .2.4 0 .7-.1 1-.4.3-.4.5-1.3.6-3.5l-5.3-.1zm25.9 18.7h4.7v4.4H99.6v-4.5h5V115h28.5v9.5zm-25.4-25.4v.3c0 .8 0 1.6-.1 2.5h9.8s0 1-.1 1.5c0 2.5-.2 4.9-.8 7.3 2.1-.8 4-1.9 5.9-3.1-1.5-2.7-2.6-5.6-3.4-8.6h-11.3zm1.5 25.4h3.2V119h-3.2v5.5zm7.9-5.5v5.5h3.3V119h-3.3zm7.8 0v5.5h3.3V119h-3.3zm96.1 1.5c4.1 2.2 8.4 3.8 12.9 4.8-1.2 1.2-2.3 2.5-3.1 4-5.2-1.5-10-3.8-14.4-6.9v7.3h-5v-7.1c-4.4 3.1-9.3 5.4-14.5 6.9-.9-1.5-2-2.9-3.2-4.1 4.7-1 9.2-2.6 13.4-4.9h-12v-4h16.3v-2.1h5v2.1h16.5v4H221zm-21.2-17.4c-.8.7-1.5 1.3-2.3 1.9-1-1.3-2.2-2.4-3.5-3.3 4.1-2.9 7.6-6.8 10-11.3l5.1 1c-.6 1.1-1.3 2.1-2 3.2h6.8c-.4-1-.8-2-1.3-3l4.5-1.3c.8 1.4 1.5 2.8 2 4.3h11.8v3.8H218v1.7h10.9v3.2H218v1.7h11v3.2h-11v1.8h13.8v3.8h-27.1v1.1h-5l.1-11.8zm13.4-4.7h-8.5v1.8h8.5v-1.8zm0 5h-8.5v1.7h8.5v-1.7zm0 4.9h-8.5v1.9h8.5v-1.9zm114-16.2v37.7h-5.4v-1.5h-25.2v1.5h-5.2V92.1h35.8zm-5.4 31.7V96.7h-25.2v27.1h25.2zm-1.5-16.9h-5v10.7c0 2.3-.3 3.4-1.8 4.2s-3.3.8-5.8.8c-.3-1.5-.9-3-1.6-4.4 1.5.1 3.2.1 3.7 0s.7-.1.7-.6v-5.7c-3 2.9-6.3 5.4-10 7.4-.9-1.2-1.9-2.4-3.1-3.4 4.2-2.3 8-5.3 11.2-9h-10.1v-4.4h12V98h4.8v4.5h5v4.4z"/></svg>