<svg version="1.1" id="图层_1" xmlns="http://www.w3.org/2000/svg" x="0" y="0" viewBox="0 0 500 120" style="enable-background:new 0 0 500 120" xml:space="preserve"><style>.st0{fill:#0b53a1}</style><path class="st0" d="M43.9 80.1V44.6L5.5 88.7c9 12.8 24 21.2 40.8 21.2h.4c20.1-.2 37.5-12.4 45.2-29.8h-48z"/><path class="st0" d="M49.1 41.2v33.7l38.7-42.6C78.9 19 63.8 10.1 46.7 10h-.4C25.4 10 7.4 22.9 0 41.2h49.1zm71.4-13.9c-4.2 0-6.5 1.8-8.3 4s-3.1 5.1-3.1 9.4V82h16l.2-21h35.9V47.8l-36.3.2c-.1-3.1-.2-5.9 1.9-7.1 2.8-1.5 8.2-1 13.4-1h21.1V27.2c-10.1 0-30.7 0-40.8.1zm105.3-.1h-15.7L197.2 46l-13.1-18.9h-16.4L186.4 54l-18.7 27.7 15.5.2L197 62l13.5 19.9 16.2.1-19.4-28 18.5-26.8zm48.5 0H239c-5.8 0-10.7 4.8-10.7 10.8v33.2c0 5.9 4.8 10.8 10.7 10.8h35.2c5.9 0 10.7-4.9 10.7-10.8v-8h-13.2v.5c0 3.1-2.4 5.7-5.4 5.7h-17.9c-3 0-5.4-2.6-5.4-5.7V46.1c0-3.1 2.4-5.7 5.4-5.7h17.9c2.7 0 5 2.1 5.4 4.9h13.2V38c0-5.9-4.7-10.8-10.6-10.8zm81.1-.1h-51.5c-6.2 0-11.3 6.8-11.3 15V82h15.6V46.3c0-3.6 3.5-6.6 7.7-6.6h4.2c.7 0 1.4.1 2 .2V82h15.3V40c.7-.2 1.4-.3 2-.3h4.8c3.8.3 6.9 3.2 6.9 6.6V82h15.3V42.2c.3-8.3-4.8-15.1-11-15.1zm-238 79.3h-4.9l-1.2 3.4h-1.8l4.7-13.1h1.5l4.6 13.1h-1.8l-1.1-3.4zm-4.4-1.5h3.9l-1.9-5.6h-.1l-1.9 5.6zm23.3 3.5h6.4v1.4h-8.2V96.7h1.8v11.7zm19.3-4.7h-5.4v4.7h6.3v1.4h-8.1V96.7h8v1.4h-6.2v4.3h5.4v1.3zm16.6-7v8.7c0 1.4-.5 2.6-1.4 3.4s-2.2 1.2-3.6 1.2-2.6-.4-3.5-1.2-1.4-1.9-1.4-3.4v-8.7h1.8v8.7c0 1 .3 1.8.9 2.4s1.3.9 2.2.9c1 0 1.7-.3 2.4-.9.6-.6.9-1.4.9-2.4v-8.7h1.7zm15.9 8.9c0 1.3-.4 2.3-1.3 3.2-.9.8-2.1 1.2-3.5 1.2-1.5 0-2.7-.5-3.6-1.6s-1.4-2.4-1.4-4v-2.3c0-1.6.5-3 1.4-4 .9-1.1 2.1-1.6 3.6-1.6s2.7.4 3.5 1.2c.9.8 1.3 1.8 1.3 3.1v.1h-1.7c0-.9-.3-1.6-.8-2.2-.5-.5-1.3-.8-2.3-.8s-1.8.4-2.4 1.2-.9 1.8-.9 3v2.4c0 1.2.3 2.2.9 3s1.4 1.2 2.4 1.2 1.8-.3 2.3-.8.8-1.3.8-2.2l1.7-.1zm13 .8h-4.9l-1.2 3.4h-1.8l4.7-13.1h1.5l4.6 13.1h-1.8l-1.1-3.4zm-4.5-1.5h3.9l-1.9-5.6h-.1l-1.9 5.6zm13.2 4.9V96.7h4.1c1.7 0 3.1.5 4.1 1.6s1.6 2.4 1.6 4.1v1.8c0 1.7-.5 3-1.6 4.1-1 1.1-2.4 1.6-4.1 1.6l-4.1-.1zm1.7-11.7v10.4h2.4c1.2 0 2.2-.4 2.9-1.2s1.1-1.8 1.1-3.1v-1.8c0-1.2-.4-2.3-1.1-3.1s-1.7-1.2-2.9-1.2h-2.4zm16.5 11.7h-1.8V96.7h1.8v13.1zm14-3.4h-4.9l-1.2 3.4h-1.8l4.7-13.1h1.5l4.6 13.1h-1.8l-1.1-3.4zm-4.4-1.5h3.9l-1.9-5.6h-.1l-1.9 5.6zm30.9.7c0 1.3-.4 2.3-1.3 3.2-.9.8-2.1 1.2-3.5 1.2-1.5 0-2.7-.5-3.6-1.6s-1.4-2.4-1.4-4v-2.3c0-1.6.5-3 1.4-4s2.1-1.6 3.6-1.6 2.7.4 3.5 1.2c.9.8 1.3 1.8 1.3 3.1v.1h-1.7c0-.9-.3-1.6-.8-2.2-.5-.5-1.3-.8-2.3-.8s-1.8.4-2.4 1.2-.9 1.8-.9 3v2.4c0 1.2.3 2.2.9 3s1.4 1.2 2.4 1.2 1.8-.3 2.3-.8.8-1.3.8-2.2l1.7-.1zm16.2-1.2c0 1.6-.5 2.9-1.5 4s-2.3 1.6-3.9 1.6c-1.5 0-2.8-.5-3.7-1.6-1-1.1-1.4-2.4-1.4-4v-2.3c0-1.6.5-2.9 1.4-4 1-1.1 2.2-1.6 3.7-1.6 1.6 0 2.9.5 3.9 1.6s1.5 2.4 1.5 4v2.3zm-1.8-2.3c0-1.2-.3-2.2-1-3-.6-.8-1.5-1.2-2.6-1.2-1 0-1.9.4-2.5 1.2s-.9 1.8-.9 3v2.4c0 1.2.3 2.2.9 3s1.4 1.2 2.5 1.2 2-.4 2.6-1.2 1-1.8 1-3v-2.4zm14.6 5.2 4.3-10.7h2.2v13.1h-1.8V100h-.1l-4 9.9H297l-4.1-10.2h-.1v10.2H291V96.7h2.3l4.2 10.6zm15.2-2.8v5.3h-1.8V96.7h5c1.4 0 2.5.4 3.3 1.1s1.2 1.7 1.2 2.9-.4 2.1-1.2 2.9c-.8.7-1.9 1.1-3.3 1.1h-3.2v-.2zm0-1.4h3.2c.9 0 1.6-.2 2-.7s.7-1.1.7-1.8-.2-1.3-.7-1.8c-.4-.5-1.1-.7-2-.7h-3.2v5zm19.3 3.3h-5l-1.2 3.4H324l4.7-13.1h1.5l4.6 13.1H333l-1-3.4zm-4.5-1.5h3.9l-1.9-5.6h-.1l-1.9 5.6zm23.1 4.9h-1.8l-6.3-10h-.1v10h-1.8V96.7h1.8l6.3 10h.1v-10h1.8v13.1zm10.9-6.5 3.4-6.7h2l-4.6 8.5v4.6h-1.8v-4.8l-4.5-8.4h2l3.5 6.8z"/><path d="M434.5 38.5h-27.1v.5c.2 2 .2 4 .2 6 0 2.1-.1 4.3-.2 6.8v.5h27.1v-.5c-.2-2.4-.2-4.6-.2-6.5 0-2.1.1-4.2.2-6.3v-.5zm-5.6 9.3h-16.1v-4.6h16.1v4.6zm-33.1-9.9.4.5.4-.5c.8-.9 2-1.9 3.5-2.8l.5-.3-.4-.4c-2.6-3.1-5.2-5.9-7.6-8.3l-.4-.4-.3.5c-.6.9-1.6 1.9-3 2.8l-.5.4.5.4c2.2 2 4.5 4.7 6.9 8.1zm42.4 17.5h-33.9v.5c.1 1.3.2 3.3.2 6-2-2.6-3.7-5.1-5.1-7.2l-.3-.5-.4.4c-.8.8-1.5 1.4-2.1 2v-1.9c1.4-2.2 2.8-4.8 4.1-7.6 1.3-2.9 2.2-5.3 2.7-7.3l.2-.6H390c-1.8 0-4.1-.1-6.8-.2h-.5v5.4h.5c3-.2 5.3-.2 7-.2h6.1c-1.4 3.6-3.4 7-5.8 10-2.6 3.3-5.6 6.4-9.2 9.3l-.5.4.4.4c1.3 1.1 2.3 2.3 3.1 3.5l.3.5.4-.4c2.1-2 4.1-4.1 6-6.5v13.4c0 3-.1 5.9-.2 8.5v.5h5.9v-.5c-.2-2.6-.2-5.6-.2-9V59.7c1.3 1.7 2.7 3.7 4.2 5.9l.4.6.4-.6c.9-1.2 1.9-2.1 3-2.8v6.6c0 6.6-.1 11-.2 13.1v.5h5.7v-2.9h22.4V83h5.9v-.5c-.2-2.6-.2-7.1-.2-13.4 0-6.5.1-11 .2-13.4l-.1-.3zm-19.8 20.2h-8.5V70h8.5v5.6zm0-10.3h-8.5V60h8.5v5.3zm13.9 10.3H424V70h8.3v5.6zm0-10.3H424V60h8.3v5.3zm-19-30.6h15.8c2.9 0 5.6.1 8.3.2h.5v-5.4h-.5c-2.6.2-5.3.2-8.3.2H413c-3.1 0-5.9-.1-8.5-.2h-.5V35l.5-.1c1.7-.1 4.6-.2 8.8-.2zm44.2 5 .4.4.3-.5c.8-1.1 1.9-2.4 3.4-3.8l.4-.4-.4-.3c-3.7-2.9-7.3-5.5-10.5-7.6l-.4-.3-.3.4c-.6.9-1.6 2.2-2.9 3.6l-.4.4.5.3c3.4 2.1 6.7 4.7 9.9 7.8zm42 35.6c-3.7.2-7.3.2-10.7.2h-18V36.1h16.5c3.2 0 6.7.1 10.5.2h.5v-5.7h-.5c-3.7.2-7.2.2-10.5.2h-22.4v.5c.2 3.1.2 6.5.2 10.2V69c0 2.7-.1 6.5-.2 11.4v.5h24.9c2.8 0 6 .1 9.7.2h.5v-5.9l-.5.1zm-40-17.1-.5-.6-.3.7c-2.6 5-5 9-7.1 11.9-2.2 2.9-4.4 5.7-6.7 8.3l-.4.5.6.3c1.4.6 2.8 1.7 4.2 3.3l.4.5.4-.5c1.7-2.3 3.2-4.6 4.6-6.8 1.5-2.3 4.3-6.7 8.5-13.4l.2-.4-.3-.3c-1.7-1.4-2.9-2.5-3.6-3.5zm-3.7-3.2.5.4.3-.5c1.1-2.1 2.1-3.5 2.8-4.3l.4-.4-.5-.3c-4-2.6-7.9-4.8-11.5-6.6l-.4-.2-.2.4c-.9 1.7-1.8 3.1-2.6 4.1l-.4.5.6.3c3.9 1.8 7.7 4.1 11 6.6z" style="fill:#1154a0"/></svg>