<svg xmlns="http://www.w3.org/2000/svg" viewBox="0 0 220 80" style="enable-background:new 0 0 220 80" xml:space="preserve"><path d="M171.6 61.8h-2.7l4.5 6.2-4.7 6.3h2.8l3.2-4.7 3.2 4.7h2.7l-4.7-6.3 4.5-6.2h-2.8l-3.1 4.6-2.9-4.6zm-7.7 2.4c.6.6.9 1.4 1 2.5v.2H158c.2-1.1.6-2 1.2-2.7.3-.3.7-.6 1.1-.7.4-.2.9-.3 1.3-.2.9 0 1.7.3 2.3.9zm3.2 7.8-1.4-1c-.4.5-.9.9-1.5 1.2s-1.4.5-2.1.5c-.5 0-1.1-.1-1.6-.3-.5-.2-1-.5-1.3-.9-.8-.8-1.2-1.7-1.2-2.9h9.4v-.9c0-2-.5-3.5-1.5-4.6-1-1-2.4-1.6-4.2-1.6-1.1 0-2.2.3-3.1.9-1 .6-1.7 1.3-2.2 2.3-.5 1-.8 2.2-.8 3.3v.4c0 1.9.6 3.3 1.8 4.5s2.7 1.7 4.6 1.7c2.1-.2 3.9-.9 5.1-2.6zM144 64.5c.6-.8 1.6-1.2 2.7-1.2 1.5 0 2.6.6 3.3 1.8v5.7c-.7 1.2-1.8 1.8-3.3 1.8-.5 0-1-.1-1.5-.3-.5-.2-.9-.5-1.2-.9-.6-.8-1-1.9-1-3.3.1-1.6.4-2.7 1-3.6zm-3.3 3.5c0 1.9.5 3.4 1.5 4.7 1 1.1 2.3 1.8 3.9 1.8 1.7 0 3-.5 4-1.5l.1 1.3h2.2V56.6H150V63c-.9-1-2.2-1.5-3.9-1.5-.8 0-1.5.1-2.2.5-.7.3-1.3.8-1.7 1.3-1 1.1-1.5 2.7-1.5 4.7zm-13.9-6.2v12.4h2.4v-8.8c.3-.6.8-1 1.4-1.4s1.3-.6 2-.6c.9 0 1.6.2 2.1.7.4.5.7 1.1.7 2v8.2h2.4V66c0-2.9-1.5-4.5-4.4-4.5-.8 0-1.6.1-2.3.5-.7.3-1.4.8-1.8 1.3l-.1-1.5h-2.4zm-4.1-4.3h-2.5v16.7h2.5V57.5z" style="fill:#00a7ee"/><path d="M194.3 34.2V37h-2.6v1.5h2.6v7.2c0 .9.3 1.7.8 2.3.6.6 1.4.8 2.5.8.6 0 1.3-.1 1.9-.2V47c-.4.1-.8.1-1.2.1-.6 0-1-.1-1.2-.4-.2-.2-.4-.6-.4-1v-7.2h2.7V37h-2.7v-2.8h-2.4zm-7.1 5.2c.6.6.9 1.3 1 2.4v.2h-7.1c.2-1 .6-1.9 1.2-2.5.3-.3.7-.5 1.1-.7.4-.2.9-.2 1.4-.2 1-.1 1.8.2 2.4.8zm3.3 7.2-1.5-.9c-.4.5-1 .9-1.6 1.1-.7.3-1.4.5-2.2.5-.6 0-1.1-.1-1.6-.3s-1-.5-1.4-.8c-.8-.7-1.2-1.6-1.2-2.8h9.7v-.9c0-1.8-.5-3.2-1.5-4.3-1-.9-2.5-1.5-4.3-1.5-1.1 0-2.2.3-3.2.8s-1.8 1.2-2.3 2.1c-.6.9-.8 2-.8 3v.4c0 1.7.6 3.1 1.8 4.2s2.8 1.5 4.7 1.5c2.4.2 4.2-.6 5.4-2.1zm-15.8 2.1h2.9l-6.2-6.7 5.6-4.8h-3l-4.4 3.8-1.3 1.2v-9.9h-2.4v16.4h2.4v-4.1l1.5-1.3 4.9 5.4zM163.5 37c-.3-.1-.7-.2-1.1-.2-1.5 0-2.6.5-3.4 1.5V37h-2.4v11.6h2.4v-8.2c.6-1.1 1.7-1.6 3.3-1.6.4 0 .8 0 1.2.1V37zm-18.8 9.6c-.3-.2-.5-.4-.6-.7-.1-.3-.2-.6-.2-.8 0-1.4 1.5-2.1 4.5-2.1h1.9v2.4c-.3.6-.8.9-1.5 1.2s-1.4.5-2.2.5c-.6.1-1.3-.1-1.9-.5zm8.6 2.1v-.2c-.3-.7-.5-1.4-.5-2.6v-5.3c0-1.1-.5-2.1-1.4-2.8s-2.2-1-3.9-1c-1 0-2 .2-2.9.5-.8.3-1.5.8-2.1 1.2-.5.5-.7 1-.8 1.7h2.5c0-.5.3-.9.9-1.3s1.4-.6 2.2-.6c1 0 1.7.2 2.3.6.5.4.8.9.8 1.6v.9H148c-2 0-3.6.4-4.8 1-1.1.7-1.7 1.6-1.7 2.8 0 .5.1.9.3 1.3.2.4.6.8 1 1.1.9.7 2.1.9 3.5.9.8 0 1.5-.1 2.2-.4.7-.3 1.3-.6 1.8-1 0 .4.2.9.3 1.2l2.7.4zm-34.6-15.6v15.6h2.5v-6.1L121 36l6.3 12.5h1.9l6.3-12.6-.2 6.6v6.1h2.5V33.1h-3.3l-6.3 12.7-6.2-12.7h-3.3zm72.2-26.5h-2.4v17.7h2.4V6.6zm-14.3 15.6c-.3-.2-.5-.5-.6-.7-.1-.3-.2-.6-.2-.9 0-1.5 1.5-2.3 4.4-2.3h1.9v2.6c-.3.6-.8 1-1.5 1.3-.7.4-1.4.5-2.1.5-.7 0-1.4-.1-1.9-.5zm8.4 2.2v-.2c-.3-.7-.5-1.6-.5-2.8v-5.7c0-1.2-.5-2.3-1.4-2.9-.9-.8-2.2-1-3.8-1-1 0-1.9.2-2.8.5-.8.3-1.5.8-2 1.3s-.7 1.1-.7 1.8h2.4c0-.6.3-1 .9-1.4.6-.4 1.4-.6 2.2-.6 1 0 1.7.2 2.2.7s.8 1 .8 1.8v.9H180c-2 0-3.6.4-4.7 1-1.1.8-1.7 1.7-1.7 3 0 .5.1.9.3 1.4s.6.9 1 1.2c.9.7 2 1 3.4 1 .8 0 1.5-.1 2.2-.4s1.3-.7 1.8-1.1c0 .5.1.9.3 1.3 0 .2 2.4.2 2.4.2zm-17.6-2.9c-.6.8-1.5 1.1-2.7 1.1-1.6 0-2.7-.7-3.5-2v-5.4c.7-1.3 1.8-2 3.4-2 1.2 0 2.1.4 2.7 1.1.6.8 1 1.9 1 3.3 0 2-.3 3.2-.9 3.9zm3.4-3.5c0-2-.5-3.5-1.5-4.7s-2.3-1.7-4-1.7-3.1.6-4 1.6V6.6h-2.4v17.7h2.2l.1-1.4c1 1.1 2.4 1.7 4.1 1.7.8 0 1.5-.1 2.2-.5.7-.3 1.3-.8 1.8-1.3 1-1.1 1.5-2.7 1.5-4.6V18zm-24.3-3.3c.3-.4.8-.8 1.3-.9.5-.2 1.1-.3 1.6-.3.6 0 1.1.1 1.6.3s1 .6 1.3.9c.7.9 1.1 2 1.1 3.3 0 1.5-.4 2.8-1.1 3.6-.3.4-.8.8-1.3.9s-1.1.4-1.6.4c-.6 0-1.1-.1-1.6-.3-.5-.2-.9-.6-1.3-.9-.7-.9-1.1-1.9-1.1-3.3 0-1.7.4-3 1.1-3.7zm-3.5 3.4c0 1.9.6 3.5 1.8 4.7 1.2 1.1 2.7 1.8 4.6 1.8 1.2 0 2.4-.3 3.4-.8 1-.6 1.8-1.3 2.3-2.3s.8-2.2.8-3.2v-.2c0-2-.6-3.5-1.8-4.7s-2.7-1.8-4.7-1.8c-1.2 0-2.3.3-3.3.8-1 .6-1.8 1.3-2.3 2.3-.6 1-.8 2.2-.8 3.4zm-3.2-11.5h-2.4v17.7h2.4V6.6zm-6.5 9.4h-6.9v1.8h4.4v3.8c-.5.5-1.1.8-1.7.9-.8.2-1.6.3-2.5.3-1.7 0-3-.6-3.9-1.7-1-1.1-1.5-2.6-1.5-4.5v-1.3c0-2 .4-3.5 1.3-4.6s2.1-1.5 3.8-1.5c2.5 0 4 1.1 4.5 3.3h2.5c-.3-1.6-1-2.9-2.2-3.8-1.2-.9-2.8-1.3-4.8-1.3-2.4 0-4.3.7-5.6 2.1-1.3 1.4-2 3.3-2 5.9v1.4c0 1.5.4 2.9 1 4.1s1.6 2.1 2.8 2.8c1.2.7 2.7.9 4.1.9s2.7-.2 4-.6c1.1-.4 2-.9 2.7-1.8V16z"/><linearGradient id="a" gradientUnits="userSpaceOnUse" x1="60.6" y1="-630" x2="60.6" y2="-708" gradientTransform="matrix(1 0 0 -1 0 -629)"><stop offset="0" style="stop-color:#53d3f8"/><stop offset="1" style="stop-color:#046db8"/></linearGradient><path d="M73 28.5h5.6v23h-5.2v-15l-6.7 9.8h-.1L60 36.6v14.9h-5v-23h5.6l6.2 9.7 6.2-9.7zm10.2 0h5.2v23h-5.2v-23zM28.8 40.1c0-6.6 5.2-12 12.4-12 4.3 0 6.8 1.1 9.3 3.2l-3.3 3.8c-1.8-1.5-3.4-2.3-6.2-2.3-3.8 0-6.8 3.3-6.8 7.2 0 4.2 3 7.3 7.2 7.3 1.9 0 3.6-.5 4.9-1.4v-3.3h-5.2v-4.4h10.3v10c-2.4 2-5.8 3.6-10.1 3.6-7.4.1-12.5-4.9-12.5-11.7zM60.5 1c-22.1.1-40 17.5-40 39s18 39 40.1 39c22.2 0 40.1-17.5 40.1-39S82.8 1.1 60.7 1h-.2z" style="fill:url(#a)"/></svg>