<svg xmlns="http://www.w3.org/2000/svg" viewBox="0 0 540 160" style="enable-background:new 0 0 540 160" xml:space="preserve"><path d="M82.4 108.7h-31V.9h31v40.5h41.1V.9h31v107.8h-31V68.2H82.4zm151.8-54.3-33.6 53.8h-32.3l33.6-53.8L168.3.6h32.3zM435.3 38 457.6.9h31v107.8h-31V47.8l-22.3 35.7-22.2-35.7v60.9h-31V.9h31zm-68.9 43.4c-14.8 26-47.7 35-73.4 20.1-26-14.8-35-47.7-20.1-73.4 14.8-26 47.7-35 73.4-20.1 7.9 4.5 14.8 11.1 19.6 19.1l-23.3 15.1c-6.9-12.5-22.8-17.2-35.2-10.1-12.5 6.9-17.2 22.8-10.1 35.2 7.2 12.5 22.8 17.2 35.2 10.1 4.2-2.4 7.7-5.8 10.1-10.1h.3l23.5 14.1zM267.9.6l-17.5 28.1-1.6 2.4-16.2-25.7-2.9-4.8zM83.8 145.3H53c-.8 0-1.3-.5-1.6-1.1v-.3c0-.8.8-1.3 1.6-1.3h30.7c.8 0 1.3.5 1.3 1.3-.2.8-.7 1.4-1.2 1.4zM61 147.6c.5-.8 1.1-1.1 1.9-.5.5.5.8 1.3.5 1.9-2.4 3.4-5.3 6.4-8.7 9-.8.5-1.6.5-2.1 0s-.3-1.3.5-2.1c3.1-2.2 5.7-5.1 7.9-8.3zm-5.3-18.5c2.4 2.9 4.5 6.4 5.6 10.1.3 1.1 0 1.6-.5 2.1-.5.3-1.3.3-1.9-.5 0 0 0-.3-.3-.3-1.3-3.4-2.9-6.6-5.3-9.5-.5-.5-.5-1.1 0-1.6.8-.8 1.6-.8 2.4-.3zm10.8-1.9c1.6 3.7 2.9 7.4 3.7 11.4 0 .8-.5 1.6-1.3 1.9-.8 0-1.6-.5-1.6-1.6-.5-3.7-1.6-7.2-3.2-10.6-.5-.5-.3-1.3.3-1.9 0 0 .3 0 .3-.3.5.1 1.6.3 1.8 1.1zm8.2 20.2c2.9 2.9 5.6 5.8 7.9 9.3.5.8.3 1.6-.5 2.1-.8.3-1.3 0-2.1-.8-2.1-3.2-4.8-6.1-7.4-8.7-.8-.5-.8-1.3-.3-1.9.9-.6 1.9-.6 2.4 0zm7.5-18c-1.3 4-3.2 7.7-5.3 11.1-.3.8-1.3 1.1-2.1.8-.8-.5-.8-1.1-.5-2.1 2.1-3.4 3.7-6.9 4.8-10.9.3-.8 1.1-1.6 2.1-1.3 1 .5 1.2 1.3 1 2.4zm58-1.6v28.1h9.5c.8 0 1.1.5 1.3 1.3 0 .8-.3 1.3-1.3 1.6H119c-.8 0-1.1-.5-1.1-1.6 0-.8.5-1.3 1.3-1.3h10.1V128c0-.8.5-1.1 1.3-1.3.8 0 1.3.5 1.3 1.3v27.8h5.6v-28.1c0-.8.5-1.3 1.3-1.3.6 0 1.4.6 1.4 1.4zm-18.3 5.8c2.4 5 4.2 10.3 5.8 15.9.3.8-.3 1.6-1.1 2.1-.5.3-1.3 0-1.6-.5v-.3c-1.3-5.3-3.4-10.6-5.6-15.6-.5-.5-.3-1.6.3-1.9 0 0 .3 0 .3-.3.6-.2 1.6.1 1.9.6zm24.9-.3c.3-.8 1.1-1.3 1.9-1.3.8.3 1.3 1.3 1.1 2.1-1.3 5.6-3.2 10.9-5.8 15.9-.5 1.1-1.3 1.6-2.1 1.1-.8-.3-1.1-1.1-.5-2.4 2-5 3.8-10.1 5.4-15.4zm44.2-5.8v6.4h2.9c.5 0 .8.5 1.1 1.3s-.3 1.1-1.1 1.3H191v7.2c.8-.5 1.6-1.1 2.4-1.6.5-.3 1.3-.3 1.9.5.3.5.3 1.3-.3 1.6h-.3c-.3.3-.5.3-.8.5l-2.9 1.6v9.3c0 2.6-1.6 3.4-5 2.4-.8-.3-1.3-1.1-1.3-1.9.3-.8.8-1.1 1.9-.8 1.3.5 2.1.5 1.9 0v-7.7c-1.6.8-2.4 1.3-2.9 1.3s-1.1 0-1.6-.8c-.3-.5 0-1.3.5-1.6l1.9-1.1c.5-.3 1.3-.5 1.9-1.1V136H185c-.5 0-1.1-.5-1.1-1.3 0-.5.5-1.1 1.1-1.3h3.2V127c0-.5.5-.8 1.3-1.1.8-.3 1.5 1.1 1.5 1.6zm18.9 15.6h-13c-.8 0-1.1-.5-1.3-1.3 0-.8.5-1.3 1.3-1.3h14c2.4.3 2.9 1.6 2.1 4-1.3 3.2-3.4 5.8-6.1 8.2 2.6 1.9 5.8 2.9 9.3 2.9.8 0 1.3.5 1.3 1.6 0 .8-.5 1.3-1.3 1.3-4-.5-7.9-2.1-11.4-4-3.2 1.9-6.6 3.2-10.1 4-1.1.3-1.9-.3-2.1-1.1s0-1.3 1.1-1.6c2.9-.5 5.8-1.6 8.5-3.2-2.1-1.9-4-4-5.3-6.4-.5-.5-.5-1.6 0-2.1l.3-.3c.8-.5 1.9-.3 2.4.5 1.3 2.4 3.2 4.8 5.6 6.6 2.4-1.9 4.5-4 5.8-6.9-.6-.3-.6-.6-1.1-.9zm-9.3-15.9h7.9c1.6 0 2.4.8 2.4 2.4v5.6c-.3.8.3 1.3 1.1 1.1h2.9c.8 0 1.3.5 1.3 1.3 0 .5-.3 1.1-.8 1.3h-4.3c-2.4.3-3.2-.8-2.9-3.4v-4.8c0-.5-.3-.8-.8-.8H201c-.5 0-.8.3-.8.8v2.1c0 3.2-1.9 6.1-4.8 7.7-1.1.5-1.9.5-2.1 0-.5-.8-.3-1.6.8-2.1 2.4-1.1 3.7-3.4 4-5.8v-2.4c-.2-1.9.6-2.7 2.5-3zm57.7 8.3c.5-.5 1.3-.5 1.9 0 .5.5.5 1.3 0 1.9l-.3.3c-2.4 1.9-5 3.2-7.7 4.2-1.1.3-1.9.3-2.1-.5-.3-.8 0-1.6.8-1.9 2.9-1.1 5.3-2.5 7.4-4zm9.8 11.9c-.8 7.4-5.8 11.4-15.6 11.7-.8 0-1.6-.5-1.9-1.3 0-.8.3-1.3 1.3-1.3 8.2-.3 12.7-3.4 13.2-9.3 0-.8.8-1.3 1.6-1.3 1.2-.1 1.4.7 1.4 1.5 0-.3 0-.3 0 0zm-15.3-19.9c2.6 1.1 4.8 1.9 6.1 2.1.8.3 1.1 1.1.8 1.9-.5.8-1.1 1.1-1.9.8-1.9-.8-3.7-1.6-5.6-1.9h-.5c-.8-.3-1.1-.8-1.1-1.6.6-.8 1.4-1.3 2.2-1.3zm26.7 17.2v8.5c0 .8-.5 1.3-1.3 1.3h-.3c-.8 0-1.3-.5-1.3-1.6v-7.2c0-.5-.3-1.1-1.3-1.1h-17.5c-.8 0-1.1.3-1.1.8v7.7c0 .8-.5 1.3-1.3 1.3h-.3c-.8 0-1.3-.5-1.3-1.3v-8.7c0-1.6.8-2.1 2.4-2.1h19.6c2.7 0 3.7.8 3.7 2.4zm-13.7-15.9h14c1.9 0 2.4.8 2.1 2.4-.5 1.9-1.6 3.4-2.6 4.8-.8.8-1.3.8-2.1.5-.5-.5-.5-1.1 0-2.1 1.9-2.1 2.1-2.9 1.3-2.9h-6.4v.5c0 .5-.3.8-.3 1.3 2.4 3.7 6.4 6.1 10.6 6.9.8.3 1.3.8 1.1 1.6-.3.8-.8 1.1-1.6.8-4.5-.5-8.5-3.2-11.1-6.9-2.1 3.4-5.6 5.8-9.8 6.4-1.1.3-1.6 0-1.9-.8s0-1.3 1.1-1.6c5.3-1.6 8.5-4.2 9.3-8.2h-5c-.3.3-.3.5-.5.5-.5.8-1.1 1.6-1.9 2.1s-1.6.8-2.1 0c-.5-.5-.5-1.3.3-1.9 1.6-1.6 2.9-3.4 4-5.6.3-.8.8-1.1 1.6-.8.8.3 1.1 1.3.8 1.9-.4.3-.7.9-.9 1.1zm3.9 23.3c4 1.3 7.9 2.9 11.7 4.8.8.3 1.1 1.1.8 1.9-.3.5-1.1.8-1.6.5h-.3c-3.4-2.1-7.4-3.7-11.4-4.8-.8-.3-1.1-.8-1.1-1.6v-.3c.6-.5 1.4-.7 1.9-.5zm54.9-9.2c0-4.5.5-9 1.9-13.2.5-1.1 1.1-1.6 1.6-1.6s1.1.3 1.3 1.1c0 .3-.3.8-.5 1.3v.5c-1.1 4-1.6 7.9-1.3 11.9 0 2.4 0 4.5.3 6.9 0 1.6.5 3.2 1.1 4.8v.3c.3.5.3 1.1.5 1.6 0 .5-.5 1.1-1.3 1.1-.5 0-1.1-.5-1.6-1.6-1.8-4.4-2.3-8.9-2-13.1zm51.9-8.8v2.6h8.5c1.6 0 2.6 1.1 2.6 2.6v6.9h2.9c.8 0 1.3.5 1.3 1.3v.3c0 .8-.5 1.3-1.3 1.3h-13.2c3.7 3.4 8.2 5.8 13.2 7.2 1.1.3 1.6.8 1.3 1.6-.3.8-1.1 1.3-1.9 1.1-5.6-1.6-10.6-4.5-14.8-8.2-1.6 4-6.4 6.6-14.3 8.5-1.1 0-1.6-.3-1.9-1.1s.3-1.3 1.3-1.6c7.4-1.3 11.7-3.7 13-7.4h-13.5c-.8 0-1.1-.5-1.3-1.3 0-.8.5-1.3 1.3-1.3h2.9v-6.4c-.3-1.3.5-2.9 2.1-3.2h9.5v-2.6c0-.5.5-1.1 1.3-1.1.7-.5 1-.2 1 .8zm-7.1-6.6v1.3h12.2v-1.3c0-.8.5-1.1 1.3-1.3.8 0 1.3.5 1.3 1.3v1.3h6.1c.8 0 1.3.5 1.3 1.3s-.5 1.3-1.3 1.3h-6.1v1.6c0 .8-.5 1.3-1.3 1.3s-1.3-.5-1.3-1.3v-1.6h-12.2v1.9c0 .8-.5 1.3-1.3 1.3h-.3c-.8 0-1.3-.5-1.3-1.3v-1.9h-6.6c-.8 0-1.3-.5-1.3-1.3s.8-1.3 1.6-1.3h6.6v-1.3c0-.8.5-1.1 1.3-1.3.7 0 1.3.8 1.3 1.3zm4.5 14.6v-2.6H366c-.8 0-1.1.5-1.1 1.1v5.8h8.7c0-1.4.3-2.7.3-4.3zm2.3 4.2h9v-5.8c0-.5-.5-1.1-1.1-1.1h-7.7v2.6c.1 1.7-.2 3.3-.2 4.3zm51.2-18.8h25.4c1.3 0 2.1.8 2.1 2.4v24.6c0 1.9-.8 2.9-2.4 2.6h-24.9c-1.6 0-2.4-.8-2.4-2.6v-24.6c-.2-1.6.3-2.4 2.2-2.4zm.5 4.2v22c-.3.8.3 1.3 1.6 1.3H451c1.1 0 1.6-.3 1.3-1.3v-21.5c0-1.3-.5-2.1-1.6-1.9h-21.5c-1-.1-1.3.4-1.3 1.4zm4.2 1.6h16.4c.5 0 1.1.5 1.1 1.3s-.3 1.3-1.1 1.3h-7.7v4h6.9c.8 0 1.3.5 1.3 1.3s-.5 1.3-1.3 1.3h-6.9v6.4h8.5c.8 0 1.3.5 1.3 1.3s-.5 1.3-1.3 1.3H431c-.8 0-1.3-.3-1.3-1.1v-.3c0-.8.5-1.3 1.3-1.3h7.2v-6.4h-5.6c-.8 0-1.3-.5-1.3-1.3s.5-1.3 1.1-1.3h5.9v-4h-5.8c-.8 0-1.3-.5-1.6-1.1-.3-.6.2-1.4 1.2-1.4zm12 10.6c1.1.8 2.1 1.6 2.9 2.4.5.5.5 1.3 0 1.9-.5.5-1.1.5-1.6 0l-.3-.3-2.6-2.1c-.5-.3-.8-1.1-.3-1.6v-.3c.5-.2 1.3-.2 1.9 0zm44.5-1c0 4.2-.5 8.7-2.1 13-.3 1.1-.8 1.6-1.6 1.6-.5 0-1.1-.3-1.3-1.1 0-.5 0-1.1.3-1.6 0-.3.3-.3.3-.3 1.1-3.7 1.6-7.7 1.3-11.7 0-4-.3-7.9-1.3-11.9 0-.3-.3-.3-.3-.5-.3-.5-.3-.8-.3-1.3s.5-.8 1.3-1.1c.8 0 1.3.3 1.6 1.6 1.5 4.3 2.1 8.8 2.1 13.3z" style="fill:#ef464b"/></svg>