<svg id="a82bdccb-2596-4c42-a045-52eb8716fe76" data-name="图层 1" xmlns="http://www.w3.org/2000/svg" viewBox="0 0 906.92 447.75"><defs><style>.e0151ff8-fcdd-4150-8c21-b12482f67e35{fill:#eb1c2f}</style></defs><path class="e0151ff8-fcdd-4150-8c21-b12482f67e35" d="M107.61 503.89c0-10.32-.28-20.77 0-31.2 1-31.16 2.24-62.31 3.4-93.47.47-12.58.88-25.17 1.49-37.75.15-3-.74-3.86-3.73-3.71-9 .48-18 .59-26.94 1-2.75.14-3.65-.38-3.33-3.44q6.51-61.2 12.77-122.41c.6-5.83 1.36-11.65 1.73-17.49.18-2.9 1.2-4 4.13-4.45q47.06-6.84 94.08-13.93 21.11-3.13 42.21-6.29c4.52-.67 4.52-.7 2.92 3.76l-44.02 122.94c-1.64 4.58-1.64 4.53 3.38 4.18q22.78-1.56 45.58-3c1.18-.08 2.77-.81 3.47.36s-.73 2.23-1.38 3.21q-35.48 52.82-71 105.6l-62.68 93.15c-.76 1.05-1.55 2.19-2.08 2.94z" transform="translate(-78.49 -56.14)"/><path d="M441.52 330.05c1-1.75.63-3.27.63-4.7V177.14c0-7.54.44-8 8.13-8h12.74c4.07.06 5.27 1.29 5.42 5.42v209.25c0 7.33-.52 7.84-7.88 7.84-3.62 0-7.26-.24-10.86.06-4.61.4-7.26-1.42-9.43-5.54q-32.94-62.82-66.18-125.47-7.42-14.05-14.89-28.11c-.48-.9-.64-2.59-2-2.28s-.8 1.88-.79 2.91q.12 74.47.31 149c0 9.4 0 9.48-9.25 9.48h-12c-3.47.06-5-1.66-5-5V177.07a35.14 35.14 0 0 1 .12-4.11 3.76 3.76 0 0 1 3.93-3.73c6-.06 12-.07 18 0 2.95 0 4.13 2.39 5.33 4.65q19.73 37.19 39.51 74.37 20.9 39.32 41.83 78.64c.54 1.11.9 2.35 2.33 3.16zm234.31-49.79v-41.53a86.94 86.94 0 0 1 4.86-29.39c10.25-29 37.06-45.54 68.57-42.43 33.15 3.28 56.66 27.24 59.28 60.48.26 3.23.44 6.48.39 9.71-.07 3.9-1.4 5.15-5.25 5.19-5.37.06-10.74 0-16.11 0-3.43.05-5-1.39-5-4.94a50.86 50.86 0 0 0-2.07-16.26c-5.47-18-20.32-28.27-40.11-27.66-18.22.56-32.26 12.29-36.71 30.68a53.51 53.51 0 0 0-1.6 12.6c0 29.06-.12 58.12 0 87.18.07 12.54 3.64 24 13.11 32.78 13 12.05 28.47 13.51 44.39 7.83 15.1-5.39 21.66-17.79 22.66-33.14.61-9.19.19-18.45.35-27.68.05-2.71-1.41-3-3.55-3-10.36.06-20.73 0-31.09 0-4.92 0-6-1.07-6.08-5.84s-.06-9.73 0-14.59c0-4.45 1.21-5.67 5.5-5.68h55.81c3.22 0 5.66 1 5.61 4.48-.33 20.55 1.8 41.21-2 61.6-4 21.6-14.74 38.63-35.43 47.9-41.28 18.49-85.82-5-94-49.3a96.49 96.49 0 0 1-1.61-17.87q.1-20.54.08-41.12zm-99.2-111.09h9.74c5.62 0 6.35.55 7.85 5.91q9.85 35.32 19.71 70.66 19.14 68.47 38.3 137c2.34 8.36 1.9 9-6.84 9h-13.11c-5 0-5.91-.7-7.25-5.67-2.8-10.36-5.66-20.7-8.29-31.1-.73-2.92-2-4-5.1-4q-35.22.18-70.43 0c-2.93 0-4.15 1-4.87 3.79-2.7 10.64-5.74 21.2-8.46 31.83-1 3.79-3 5.37-6.92 5.21-5.24-.2-10.49 0-15.74-.05s-6.22-1.35-4.83-6.42q8-29.24 16.14-58.44 20.94-75.56 41.87-151.11c1.71-6.17 2.14-6.5 8.49-6.51zm-.54 36.3c-.39 1.07-.69 1.74-.88 2.44Q560 265.38 544.65 322.83c-.95 3.57.37 4 3.39 4 19-.08 37.93 0 56.89 0 4.37 0 4.41-.1 3.22-4.53Q593.06 265.88 578 209.53c-.37-1.27-.38-2.7-1.91-4.06zm332.18 145.46c-11.73 0-23.47.07-35.2-.06-2.73 0-4 .85-4.68 3.54-2.72 10.63-5.75 21.18-8.45 31.81-1 3.9-3 5.68-7.09 5.49-5.11-.24-10.24 0-15.36-.06-5.59 0-6.55-1.29-5-6.85q5.41-19.65 10.88-39.29 23.46-84.72 46.91-169.44c1.84-6.65 2.1-6.89 8.94-6.9h19.1c5.68 0 6.37.53 7.86 5.86q14.25 51 28.49 102l29.82 106.62a25.59 25.59 0 0 1 .88 3.63c.33 2.71-.78 4.38-3.68 4.39h-19.48c-3.09 0-4.23-2.14-4.93-4.74-2.73-10.24-5.65-20.44-8.16-30.73-.94-3.88-2.43-5.48-6.75-5.34-11.37.3-22.74.07-34.1.07zm.61-145.47c-1.69 1.08-1.65 2.31-1.93 3.33q-15.13 56.94-30.28 113.88c-.86 3.2-.25 4.17 3.15 4.15 19.1-.12 38.2-.05 57.3-.07 4.16 0 4.21-.1 3.08-4.34l-21.9-81.65c-3.13-11.67-6.23-23.34-9.42-35.3z" transform="translate(-78.49 -56.14)" style="fill:#040404"/><path class="e0151ff8-fcdd-4150-8c21-b12482f67e35" d="M94.84 178.25q9.91-8.75 19.84-17.49 16.17-14.19 32.38-28.36c1.22-1.07 2.4-2.07 2.54-3.93 1.09-13.67 0-26.95-7.31-39a33.39 33.39 0 0 0-16.7-14.4c-2.74-1-3-2.31-2-4.74A117 117 0 0 0 127.33 59c.77-2.86 1.85-3.46 4.68-2.18 18.4 8.33 29.92 22.37 35.09 41.73a78 78 0 0 1 2.34 27.07c-.24 2.74.69 4 3.08 5.06q28.88 13.32 57.65 26.87c1.42.67 3.07 1 4.65 3L95.24 179.18z" transform="translate(-78.49 -56.14)"/></svg>