<svg xmlns="http://www.w3.org/2000/svg" viewBox="0 0 1500 320" style="enable-background:new 0 0 1500 320" xml:space="preserve"><path d="M1341 62h-42l-76.5 76-75.5-76H915v193h29.5v-75.5h130V150h-130V92h163V64.5l94 94.5-96.5 96h42l75.5-75 75 75.5h42l-96-96.5 97.5-97z" style="fill:#74dcff"/><path d="M283.5 247c-63 0-110-67-74.5-133.5 5.5-10 13.5-18.5 23-24.5 66-42 137 5.5 138.5 69v4c-1.5 47-40.5 85-87 85zM736 62H549v28.5c-19.5-21-46.5-34-76-34-32.5 0-63 15.5-82 41-33.5-57-109-82-177.5-41.5-17 10-31 25.5-40 43.5C128.5 192 195 284 283 284c45 0 85.5-24 107.5-62C421 262.5 479 277.5 530 246.5c16.5-10 28.5-25 36-42.5l7-16.5h-40l-2.5 4.5C519 213 497 226 473 226c-35.5 0-65-28.5-65.5-64v-3.5c1-35.5 30.5-64 66-64 21 0 40 9.5 52.5 26.5l2.5 3.5H571l-7-12.5-7.5-12h68v156h37V99.5h75V62h-.5zm60 55 30 58h-57.5l27.5-58zM690.5 255h39l26-51.5h82L865 255h38.5L796 50.5 690.5 255z"/></svg>