<svg xmlns="http://www.w3.org/2000/svg" viewBox="0 0 800 250" style="enable-background:new 0 0 800 250" xml:space="preserve"><path d="M434.4 22.6h-21.1V3.9h-32.6v18.7h-21.2v30.6h21.2v18.7h32.6V53.2h21.1V22.6zM96.7 76.8v33.1h22c.6 0 1.2-.2 1.7-.6s1-.9 1.4-1.5.7-1.2.9-1.9c.2-.7.3-1.3.3-1.9V82c0-.8-.1-1.5-.4-2.2-.2-.6-.6-1.2-1-1.5-.4-.5-.9-.9-1.4-1.1s-1.1-.4-1.6-.4H96.7zm-36.9 59.5v-77h78.6c1.4 0 2.8.1 4.3.3 1.5.2 2.9.5 4.3.9 1.4.5 2.7 1.1 4.1 1.8 1.3.8 2.5 1.6 3.6 2.6.8.9 1.5 1.8 2.2 2.9.7 1 1.3 2.2 1.8 3.5s.9 2.7 1.1 4.2.4 3.2.4 5v26.4c0 1.7-.1 3.3-.4 4.7-.3 1.5-.6 2.8-1.1 4-.4 1.2-.9 2.3-1.6 3.3s-1.4 2-2.2 2.8c-.9.9-1.9 1.7-2.9 2.3-1 .7-2.2 1.2-3.3 1.7-1.5.6-3 1-4.6 1.3s-3.2.4-4.7.4H96.7v37.8H59.8v-28.9zm196-49.2v58.8c0 .5.1 1 .4 1.5.3.6.6 1 1 1.4.5.4 1 .7 1.6 1 .5.3 1.1.4 1.6.4h16.2c.5 0 1-.1 1.6-.3.5-.2 1-.5 1.4-.9s.7-.8 1-1.3c.3-.4.4-.9.4-1.4v-59h36v78.2h-75.8c-1.7 0-3.3-.2-4.7-.5-1.5-.3-2.9-.8-4.2-1.4-1.3-.7-2.5-1.5-3.6-2.5-1.1-.9-2.1-1.9-3-3s-1.7-2.3-2.4-3.6-1.4-2.7-1.9-4.1c-.4-1.4-.7-2.8-1-4.2s-.4-2.8-.4-4.2V87.1h35.8zm157.3.3v14.4h-47.8c-.3 0-.7.1-1.1.2-.5.2-.9.3-1.3.5s-.7.4-1 .7c-.3.3-.4.6-.4 1v4.3c0 .4.1.7.4 1 .3.2.6.5 1 .7s.8.4 1.3.5.9.1 1.3.1h35.2c1.1 0 2.2.1 3.3.3 1.1.2 2.2.4 3.2.7 1.1.4 2.1.9 3 1.5.9.6 1.8 1.3 2.6 2.1.7.7 1.3 1.5 1.9 2.4.5.9 1 1.9 1.4 3 .4 1 .7 2.1.9 3.4.2 1.3.3 2.7.3 4.2v18.2c0 1.4-.1 2.7-.4 4-.2 1.3-.6 2.5-1.1 3.7-.4 1.1-1 2.1-1.6 3-.7 1-1.4 1.8-2.1 2.6-.9.8-1.8 1.5-2.8 2.2-1 .6-2 1.2-3 1.7-1.4.6-2.8 1-4.2 1.3-1.4.2-2.8.4-4.2.4h-68.8v-14.1h51c.4 0 .8-.1 1.3-.3.4-.2.8-.4 1.1-.7.4-.2.7-.5.9-.9.2-.4.3-.8.3-1.2V144c0-.4-.1-.8-.3-1.1-.2-.3-.5-.6-.9-.8-.4-.3-.8-.5-1.2-.7-.4-.2-.8-.2-1.2-.2h-35.2c-1.4 0-2.8-.1-4.2-.4-1.4-.2-2.8-.7-4.2-1.3-.9-.4-1.8-.9-2.6-1.5s-1.6-1.3-2.1-2.1c-.6-.7-1.1-1.5-1.6-2.3-.4-.8-.8-1.7-1.1-2.6-.2-.8-.3-1.6-.4-2.5s-.1-1.8-.1-2.8v-20.8c0-1.4.1-2.6.4-3.8.3-1.1.7-2.2 1.2-3.3.6-1 1.2-1.9 1.9-2.8.7-.9 1.5-1.7 2.4-2.4.9-.8 1.9-1.5 2.9-2.1s2.1-1.1 3.2-1.5c1.4-.5 2.8-.9 4.3-1.2 1.5-.3 2.9-.4 4.3-.4h63.9zm108.3-19.3v16h-56.5l-1 19.1h39.8c2.5 0 4.9.4 7.1 1.1 1.4.5 2.6 1.1 3.7 1.8s2.2 1.6 3.1 2.6c.8.8 1.5 1.7 2.2 2.7.6 1 1.1 2 1.5 3.1.4 1.2.8 2.4 1 3.6.2 1.2.4 2.5.4 3.9v25.5c0 1.4-.1 2.8-.4 3.9-.2 1.2-.6 2.3-1 3.4-.5 1.4-1.1 2.6-1.9 3.6-.8 1.1-1.7 2-2.6 2.8-.9.6-1.9 1.2-2.8 1.8-1 .5-2 .9-3.1 1.2-1.1.4-2.2.6-3.4.8-1.2.2-2.4.3-3.5.3h-70.8v-15.8h52.4c.5 0 1-.2 1.4-.6.4-.4.7-.9 1-1.6.3-.6.4-1.3.5-2s.1-1.3.1-1.8v-19.1c0-.8-.1-1.6-.3-2.2-.2-.6-.5-1.1-.9-1.5-.3-.4-.8-.8-1.3-1s-1-.3-1.6-.3h-53.3l.7-51.5h89.5v.2zm70.4 16.1h-18.1c-.6 0-1.3.2-2 .5-.7.4-1.3.8-1.7 1.4-.5.5-1 1.1-1.3 1.8-.3.6-.5 1.3-.5 2v53.8c0 .7.2 1.4.6 2.1.4.7.9 1.2 1.4 1.7.5.6 1.2 1 1.9 1.4s1.5.5 2.2.5h17.4c.5 0 1.1-.1 1.7-.4.6-.3 1.2-.6 1.7-1.1.4-.3.8-.8 1.1-1.3s.5-1.1.5-1.6V88.7c0-.5-.2-1.1-.5-1.6s-.7-1-1.1-1.3c-.5-.5-1.1-.8-1.7-1.1-.4-.3-1-.5-1.6-.5m-36.3-16.3h55.3c1.6 0 3.1.2 4.5.5s2.7.7 3.9 1.1c1.4.6 2.6 1.4 3.7 2.2 1.1.9 2 1.8 2.9 2.9 1.1 1.3 2 2.7 2.6 4.2.7 1.5 1.2 3.1 1.7 4.6.5 1.6.8 3.3.9 4.9.2 1.6.3 3.2.3 4.8v47c0 1.7-.1 3.4-.3 5s-.5 3.1-.9 4.5c-.5 1.7-1.1 3.4-1.8 4.9-.8 1.6-1.6 2.9-2.5 4.1-.9 1.1-1.9 2.1-3 2.9-1.1.9-2.2 1.6-3.4 2.1-1.3.6-2.6 1.1-3.9 1.4-1.3.3-2.7.4-4 .4h-56.2c-1.5 0-3.1-.2-4.6-.5-1.6-.3-3-.8-4.4-1.5-1.3-.7-2.6-1.6-3.8-2.7-1.2-1-2.3-2.3-3.3-3.7-.7-1.2-1.4-2.5-2-3.9-.7-1.4-1.1-3-1.5-4.7-.3-1.4-.5-2.8-.7-4.3s-.3-3.1-.3-4.8V94.5c0-1.7.1-3.5.4-5.2.2-1.8.6-3.5 1-5.2s.9-3.4 1.6-5 1.6-3 2.6-4.3c.9-1.2 2-2.3 3.1-3.2 1.2-1 2.5-1.7 4.1-2.2 1.1-.4 2.3-.8 3.7-1.1 1.3-.2 2.7-.4 4.3-.4m145.2 16.3h-18.1c-.6 0-1.3.2-2 .5-.7.4-1.2.8-1.7 1.4-.5.5-1 1.1-1.3 1.8-.3.6-.5 1.3-.5 2v53.8c0 .7.2 1.4.6 2.1.4.7.9 1.2 1.4 1.7.6.6 1.2 1 1.9 1.4s1.4.5 2.2.5h17.4c.5 0 1.1-.1 1.7-.4.6-.3 1.2-.6 1.7-1.1.5-.3.8-.8 1.2-1.3.3-.5.5-1.1.5-1.6V88.7c0-.5-.2-1.1-.5-1.6s-.7-1-1.2-1.3c-.5-.5-1.1-.8-1.7-1.1-.5-.3-1.1-.5-1.6-.5m-36.5-16.3h55.3c1.6 0 3.2.2 4.6.5 1.4.3 2.7.7 3.9 1.1 1.4.6 2.6 1.4 3.7 2.2 1.1.9 2 1.8 2.9 2.9 1.1 1.3 2 2.7 2.6 4.2.7 1.5 1.2 3.1 1.7 4.6.4 1.6.8 3.3 1 4.9s.3 3.2.3 4.8v47c0 1.7-.1 3.4-.3 5s-.5 3.1-1 4.5c-.5 1.7-1.1 3.4-1.8 4.9-.8 1.6-1.6 2.9-2.5 4.1-.9 1.1-1.9 2.1-3 2.9-1.1.9-2.2 1.6-3.4 2.1-1.3.6-2.6 1.1-3.9 1.4-1.3.3-2.6.4-4 .4H664c-1.5 0-3.1-.2-4.6-.5s-3-.8-4.3-1.5c-1.4-.7-2.6-1.6-3.8-2.7-1.2-1-2.3-2.3-3.3-3.7-.7-1.2-1.4-2.5-2-3.9s-1.1-3-1.5-4.7c-.3-1.4-.5-2.8-.7-4.3s-.3-3.1-.3-4.8V94.5c0-1.7.1-3.5.3-5.2.2-1.8.6-3.5 1-5.2s.9-3.4 1.6-5c.7-1.6 1.6-3 2.6-4.3.9-1.2 1.9-2.3 3.1-3.2 1.2-1 2.5-1.7 4.1-2.2 1.1-.4 2.3-.8 3.7-1.1 1.3-.2 2.8-.4 4.3-.4M208.1 165s-17.7.2-19.1 0c-1.5-.2-2.9-1.1-4.2-1.9-1.3-.9-2.5-2-3.6-3.2s-2.1-2.6-3-4c-.9-1.5-1.7-3.1-2.5-4.8-.7-1.8-1.4-3.6-1.9-5.4-.4-1.8-.7-3.7-1-5.6-.3-1.9-.4-3.8-.4-5.6V62H208l.1 103z" style="fill:#233b74"/><text transform="translate(228 230)" style="font-size:48px;font-family:'SimHei';fill:#888">世界的交易机器</text></svg>