<svg xmlns="http://www.w3.org/2000/svg" viewBox="0 0 480 100" style="enable-background:new 0 0 480 100" xml:space="preserve"><linearGradient id="a" gradientUnits="userSpaceOnUse" x1="26.05" y1="165.31" x2="26.05" y2="110.71" gradientTransform="matrix(1.2821 0 0 -1.2821 18.782 226.936)"><stop offset="0" style="stop-color:#007fb8"/><stop offset="1" style="stop-color:#005695"/></linearGradient><path d="M61.7 70.9H33.5V85h37.4l-9.2-14.1z" style="fill:url(#a)"/><linearGradient id="b" gradientUnits="userSpaceOnUse" x1="172.55" y1="165.31" x2="172.55" y2="110.71" gradientTransform="matrix(1.2821 0 0 -1.2821 18.782 226.936)"><stop offset="0" style="stop-color:#007fb8"/><stop offset="1" style="stop-color:#005695"/></linearGradient><path d="M61.7 15H.9v70h16.4V29.1h44.4v14.1H33.5v14.1h27.9c7.7 0 14.1-6.2 14.1-14.1V29.1c0-7.9-6.1-14.1-13.8-14.1zm349.5 20.5c-10.8 0-17.7 5.4-17.7 16.4v9.5c0 10.5 6.4 15.6 19.2 15.6h4.1v-5.9h-4.1c-9.5 0-12.3-2.6-12.3-10.3v-5.1h27.7v-4.1c0-10.7-6.7-16.1-16.9-16.1zm-.3 5.9c6.7 0 10.5 3.3 10.5 8.7h-21c.5-5.6 3.3-8.7 10.5-8.7zm-42.1 12.3V77h6.9V53.7c0-8.7 2.3-12.3 12.1-12.3v-5.9c-13.8 0-19 5.9-19 18.2zm87.5-2.5-12.8-14.9h-8.7l17.4 19.5-19.7 21.3h9l13.8-16.9 14.9 16.9h9l-19.7-21.3 17.4-19.5h-8.5l-12.1 14.9zM258.1 35.5c-11.5 0-17.4 5.6-17.4 16.9v8.2c0 11.3 5.9 16.9 17.4 16.9 11.8 0 17.4-5.4 17.4-16.7v-8.7c-.2-10.7-5.9-16.6-17.4-16.6zm-.3 5.7c7.7 0 10.5 4.1 10.5 11.5v7.9c0 7.4-3.1 11.5-10.5 11.5s-10.5-4.1-10.5-11.5v-7.9c0-7.4 3.1-11.5 10.5-11.5zM103.2 24.7V77h6.9V54.5h7.4l15.6 22.6h8.5L125 53.7c7.7-1.8 13.1-4.9 13.1-14.4 0-9.7-6.7-14.6-20.5-14.6h-14.4zm7.2 5.7h7.4c7.9 0 13.6 1.5 13.6 9 0 8.2-6.4 9.2-13.6 9.2h-7.4V30.4zm230.5 5.1c-11.5 0-17.4 5.6-17.4 16.9v8.2c0 11.3 5.9 16.9 17.4 16.9 11.8 0 17.4-5.4 17.4-16.7v-8.7c-.2-10.7-5.9-16.6-17.4-16.6zm-.3 5.7c7.7 0 10.5 4.1 10.5 11.5v7.9c0 7.4-3.1 11.5-10.5 11.5s-10.5-4.1-10.5-11.5v-7.9c0-7.4 3.1-11.5 10.5-11.5zm-54.3-10.6V77h6.9V53.2h22.1v-5.9h-22.1V30.6h22.1v-5.9h-29v5.9zm-91.6-11.2v42.1c0 10.5 6.2 16.2 17.7 16.2s16.9-5.4 16.9-16.7v-9.2c.3-10.5-5.6-16.2-15.6-16.2-5.1 0-8.7 1.5-12.1 4.4V19.4h-6.9zm17.5 22c7.7 0 10.5 4.1 10.5 10.8v9.2c0 6.7-2.3 10.8-10.5 10.8-7.2 0-10.5-3.6-10.5-10.8v-9.2c0-7.2 3.6-10.8 10.5-10.8zm-45.4-5.9c-11.5 0-17.4 5.6-17.4 16.9v8.2c0 11.3 5.9 16.9 17.4 16.9 11.8 0 17.4-5.4 17.4-16.7v-8.7c-.2-10.7-5.9-16.6-17.4-16.6zm-.3 5.7c7.7 0 10.5 4.1 10.5 11.5v7.9c0 7.4-3.1 11.5-10.5 11.5s-10.5-4-10.5-11.5v-7.9c0-7.4 3.1-11.5 10.5-11.5z" style="fill:url(#b)"/></svg>