<svg xmlns="http://www.w3.org/2000/svg" viewBox="0 0 140 48" style="enable-background:new 0 0 140 48" xml:space="preserve"><path d="M2.9 13.2c0-1.5.3-2.9.8-4.2C4.3 7.7 5 6.5 6 5.5c1-1 2.1-1.8 3.5-2.3 1.3-.6 2.7-.8 4.2-.8s2.9.3 4.2.8c1.3.6 2.5 1.3 3.5 2.3 1 1 1.7 2.1 2.3 3.5.6 1.3.8 2.7.8 4.2s-.3 2.9-.8 4.2c-.6 1.3-1.3 2.5-2.3 3.5s-2.1 1.8-3.5 2.3c-1.3.6-2.7.8-4.2.8s-2.9-.3-4.2-.8C8.2 22.6 7 21.9 6 20.9c-1-1-1.8-2.1-2.3-3.5-.5-1.3-.8-2.7-.8-4.2zm5.5-4.5v1.8h10.8V8.7H8.4zm10.8 9v-5.4H8.4v5.4h1.8v-2.1c0-.3 0-.5.1-.7.1-.2.1-.3.3-.4.2-.3.6-.4 1-.4s.8.1 1 .4c.1.1.2.3.3.4.1.2.1.4.1.7v2.1h1.8v-2.1c0-.3 0-.5.1-.7s.1-.3.3-.4c.2-.3.6-.4 1-.4s.8.1 1 .4c.1.1.2.3.3.4s.1.4.1.7v2.1h1.6z" style="fill:#fa5b35"/><path d="M33.4 7.1c-.3 0-.6 0-.9.1-.3.1-.6.2-.8.4s-.5.4-.6.6c-.1.2-.2.5-.2.9 0 .5.2.9.5 1.2.3.3.7.6 1.2.8s1 .5 1.6.7c.6.2 1.1.5 1.7.8.7.4 1.2.9 1.7 1.5s.7 1.5.7 2.5c0 .7-.1 1.4-.4 2-.3.6-.7 1.1-1.1 1.5-.5.4-1 .7-1.6 1-.6.2-1.2.3-1.9.3s-1.3-.1-1.9-.2c-.6-.1-1.1-.3-1.5-.5-.5-.2-.8-.4-1.2-.7s-.6-.5-.8-.7l1-2.2h.1c.5.4 1 .8 1.7 1.2.7.3 1.4.5 2.3.5.3 0 .6 0 .9-.1.3-.1.5-.2.8-.4s.4-.4.5-.6c.1-.3.2-.5.2-.9 0-.5-.2-.9-.5-1.2-.3-.3-.7-.6-1.2-.9s-1-.5-1.6-.7c-.6-.2-1.1-.5-1.7-.8-.7-.4-1.2-.9-1.7-1.5s-.7-1.5-.7-2.5c0-.7.1-1.4.4-2 .3-.6.7-1.1 1.1-1.5.5-.4 1-.7 1.6-1 .6-.2 1.3-.3 1.9-.3.6 0 1.2.1 1.8.2.5.1 1 .3 1.4.5s.8.4 1.1.7c.4.2.7.4.9.6l-1 2.2H37c-.5-.4-1-.8-1.6-1.1-.5-.3-1.2-.4-2-.4zm5.2 4.7h2.8l1.6 4.7h.1l2.3-6.6h1.9l2.4 6.7h.1l2.3-6.7h2.6l-4 11.2h-1.8l-2.6-7h-.1l-2.5 7h-1.9l-3.2-9.3zm17.2-6.6h2.8v2.7h-2.8V5.2zm.1 4.7h2.7v11.2h-2.7V9.9zm12.9 7.9c0 .5-.1 1-.3 1.5s-.5.8-.8 1.1c-.3.3-.8.6-1.2.7-.5.2-1 .3-1.6.3-.8 0-1.6-.1-2.3-.4-.7-.3-1.4-.7-1.9-1.2l.7-2h.1c.4.4.9.7 1.4.9.5.3 1.1.4 1.7.4.5 0 .8-.1 1.1-.3.3-.2.4-.5.4-.8 0-.4-.2-.6-.5-.8-.3-.2-.7-.3-1.2-.5-.4-.1-.8-.3-1.2-.4s-.8-.4-1.2-.7c-.3-.3-.6-.6-.9-1s-.3-.9-.3-1.5c0-.5.1-1 .3-1.5.2-.5.5-.8.8-1.1.4-.3.8-.6 1.3-.7.5-.2 1-.3 1.7-.3s1.3.1 1.9.3 1.2.6 1.8 1l-.7 2h-.1c-.4-.3-.8-.6-1.3-.8s-.9-.3-1.4-.3c-.5 0-.9.1-1.2.3-.3.2-.4.5-.4.8 0 .4.2.6.5.8.3.2.7.3 1.2.5.4.1.8.3 1.2.4.4.2.8.4 1.2.7.4.3.6.6.9 1 .2.6.3 1.1.3 1.6zm9.6 0c0 .5-.1 1-.3 1.5s-.5.8-.8 1.1c-.3.3-.8.6-1.2.7-.5.2-1 .3-1.6.3-.8 0-1.6-.1-2.3-.4-.7-.3-1.4-.7-1.9-1.2l.7-2h.1c.4.4.9.7 1.4.9.5.3 1.1.4 1.7.4.5 0 .8-.1 1.1-.3.3-.2.4-.5.4-.8 0-.4-.2-.6-.5-.8-.3-.2-.7-.3-1.2-.5-.4-.1-.8-.3-1.2-.4s-.8-.4-1.2-.7c-.3-.3-.6-.6-.9-1s-.3-.9-.3-1.5c0-.5.1-1 .3-1.5s.5-.8.8-1.1c.4-.3.8-.6 1.3-.7.5-.2 1.1-.3 1.7-.3.7 0 1.3.1 1.9.3.6.2 1.2.6 1.8 1l-.7 2h-.1c-.4-.3-.8-.6-1.3-.8s-.9-.3-1.4-.3c-.5 0-.9.1-1.2.3-.3.2-.4.5-.4.8 0 .4.2.6.5.8.3.2.7.3 1.2.5.4.1.8.3 1.2.4.4.2.8.4 1.2.7.4.3.6.6.9 1 .2.6.3 1.1.3 1.6zm12.3-7.9V26H88v-5.7c-.4.4-.8.6-1.4.9-.5.2-1.1.3-1.6.3-.8 0-1.5-.1-2.1-.4-.6-.3-1.2-.7-1.6-1.2-.5-.5-.8-1.1-1.1-1.9s-.4-1.5-.4-2.3c0-.8.1-1.6.4-2.3.3-.7.6-1.4 1.1-1.9.5-.6 1.1-1 1.7-1.3.7-.3 1.4-.5 2.3-.5.5 0 1 .1 1.5.3.5.2.9.4 1.3.7h.1v-.8h2.5zM88 12.8c-.3-.3-.6-.5-1-.6-.4-.1-.8-.2-1.2-.2-1 0-1.7.3-2.3 1-.6.7-.9 1.5-.9 2.6 0 .5.1.9.2 1.3s.3.8.6 1.1c.3.3.6.5.9.7.4.2.8.3 1.3.3.4 0 .9-.1 1.3-.3.4-.2.8-.4 1.1-.8v-5.1zm7.7 3.8c0 .5 0 .9.1 1.1.1.2.2.5.3.6.2.2.4.4.7.5.3.1.6.2.9.2.3 0 .6-.1.9-.2.3-.1.5-.3.7-.5l.3-.6c.1-.2.1-.6.1-1.1V9.9h2.7v6.4c0 .9-.1 1.7-.3 2.3s-.6 1.1-1 1.5c-.4.4-.9.8-1.5 1-.6.2-1.2.4-1.9.4s-1.3-.1-1.8-.4-1-.6-1.4-1c-.4-.4-.7-.9-.9-1.5-.5-.6-.6-1.3-.6-2.3V9.9h2.7v6.7zm14.3 4.9c-.9 0-1.6-.1-2.4-.4-.7-.3-1.3-.7-1.8-1.2s-.9-1.1-1.2-1.8-.4-1.5-.4-2.3c0-.9.1-1.7.4-2.4.3-.7.7-1.4 1.2-1.9s1.1-1 1.8-1.2c.7-.3 1.5-.4 2.4-.4s1.6.1 2.4.4c.7.3 1.3.7 1.8 1.2s.9 1.1 1.2 1.8c.3.7.4 1.5.4 2.3 0 .9-.1 1.7-.4 2.4-.3.7-.7 1.4-1.2 1.9s-1.1 1-1.8 1.2c-.8.2-1.6.4-2.4.4zm3.1-6c0-.5-.1-1-.2-1.4s-.4-.8-.6-1.1c-.3-.3-.6-.6-1-.7s-.9-.3-1.3-.3-.9.1-1.2.3c-.4.2-.7.4-1 .7-.3.3-.5.7-.6 1.1s-.2.9-.2 1.4c0 .5.1 1 .2 1.4s.4.8.6 1.1c.3.3.6.6 1 .7.4.2.8.3 1.2.3s.9-.1 1.2-.3.7-.4 1-.7c.3-.3.5-.7.6-1.1s.3-.9.3-1.4zm11.8 3.4V21c-.7.3-1.5.5-2.4.5-1.2 0-2-.3-2.7-1-.3-.3-.6-.7-.7-1.3-.2-.5-.2-1.2-.2-2.1v-4.9h-2.6V9.9h2.6V6.2h2.7v3.7h3.4v2.3h-3.4v5.3c0 .3 0 .5.1.7.1.2.1.3.2.4.2.2.4.3.6.4s.5.1.8.1c.3 0 .6 0 .9-.1s.5-.1.7-.1zm11 .8c-.5.6-1.2 1-1.9 1.3-.8.3-1.6.5-2.5.5-.8 0-1.6-.1-2.3-.4-.7-.3-1.3-.7-1.8-1.2s-.9-1.1-1.2-1.8c-.3-.7-.4-1.5-.4-2.4 0-.8.1-1.6.4-2.3.2-.7.6-1.4 1.1-1.9.5-.6 1-1 1.7-1.3s1.5-.5 2.3-.5c.7 0 1.4.1 2 .4.6.3 1.1.7 1.6 1.2s.8 1.1 1 1.8.4 1.4.4 2.2v.7h-7.6c0 .4.1.8.3 1.2.2.4.4.7.6 1 .3.3.6.5.9.6.4.2.8.2 1.2.2.6 0 1.1-.1 1.6-.3s1-.5 1.5-.9h.1l1 1.9zm-2.4-5.8c0-.3-.1-.5-.2-.8-.1-.2-.3-.5-.4-.7-.2-.2-.4-.4-.7-.5-.3-.1-.6-.2-.9-.2-.7 0-1.2.2-1.7.6-.4.4-.7.9-.9 1.5l4.8.1zM80.7 42c.5-.1 1-.3 1.5-.4l.2 1.3c-1.5.5-3 .9-4.3 1.3l-.3-1.4c.5-.1 1-.2 1.6-.4v-4H78V37h1.4v-3h-1.5v-1.3h4.3V34h-1.5v3h1.2v1.3h-1.2V42zm6.9-3.7c-.1.4-.3.9-.4 1.3h4.1v4.8c0 .5-.1.9-.4 1.1-.3.2-.8.3-1.4.3 0-.4-.3-.9-.4-1.3h.8c.1 0 .2 0 .2-.2v-3.5h-1.2v4.8h-1.2v-4.8h-1.2v4.8h-1.2v-4.8h-1.1v4.9h-1.3v-6.1h3c.1-.4.2-.8.3-1.3h-3.8V37h9.1v1.3h-3.9zm3.5-2.3h-8v-3.7h1.3v2.4h2v-3h1.3v3h2.1v-2.4h1.3V36zm6.6 5.1c.1.4.4.9.5 1.2-2.7 2.2-3.1 2.6-3.3 2.9-.1-.3-.5-.9-.7-1.2.3-.2.7-.7.7-1.4v-4.9h-2v-1.3h3.3v5.8l1.5-1.1zM96 35.2c-.4-.7-1.3-1.7-2.1-2.4l1-.8c.7.7 1.7 1.6 2.1 2.3l-1 .9zm9.1-2.7c-.1 5.9-.1 11.4.8 11.6.1 0 .2-1.1.3-2.2.2.3.6.9.8 1.1-.2 2.4-.8 2.9-1.6 2.6-1.6-.5-1.6-5.6-1.6-11.7h-2.6v4h2.1v1.3h-2.1v6.3h-1.3v-6.3h-2.1v-1.3h2.1v-4h-2v-1.3h7.2zm8.6 9.9c0 .4.1.9.2 1.2-2.9 1.4-3.3 1.7-3.6 2-.1-.3-.3-.9-.6-1.2.3-.2.6-.5.6-1v-3h-2v-1.3h2v-1.8h-1.2V36l-.6.6c-.1-.3-.5-1-.7-1.3.9-.9 1.7-2.2 2.2-3.6l1.2.4c-.1.4-.3.8-.5 1.2h2.7v1.3H110c-.3.5-.6 1-1 1.4h4.2v1.3h-1.7v1.8h2v1.3h-2v2.9l2.2-.9zm8.2-2c-.7.6-1.6 1.2-2.4 1.7.7 1 1.5 1.8 2.6 2.2-.3.3-.7.8-.9 1.2-2.2-1.2-3.5-3.5-4.2-6.5h-1.1v4.7l2.4-.6c0 .4 0 1 .1 1.3-3 .8-3.5 1-3.9 1.2-.1-.3-.4-.9-.6-1.1.3-.2.6-.5.6-1.2v-11h6.6V39h-3c.2.7.5 1.4.8 2 .7-.5 1.5-1.2 2-1.7l1 1.1zm-6-6.8v1.5h3.9v-1.5h-3.9zm0 4.2h3.9v-1.6h-3.9v1.6zm12.6-2.4c-.5.8-1 1.6-1.7 2.3v7.9h-1.4v-6.3c-.5.5-1 1-1.5 1.4-.2-.3-.7-.9-1-1.2 1.5-1.1 3.2-2.8 4.2-4.6l1.4.5zm-.5-3.1c-1 1.4-2.6 2.9-4 3.8-.2-.3-.5-.9-.8-1.1 1.3-.8 2.7-2.2 3.5-3.3l1.3.6zm9.1 5.8h-2.2v5.8c0 .8-.2 1.2-.8 1.4-.6.2-1.5.2-2.9.2-.1-.4-.3-1-.5-1.4h2.3c.3 0 .4-.1.4-.3V38h-4.8v-1.3h8.4l.1 1.4zm-.5-4.2h-7.4v-1.3h7.4v1.3z" style="fill:#323232"/></svg>