<svg version="1.1" id="图层_1" xmlns="http://www.w3.org/2000/svg" x="0" y="0" viewBox="0 0 940 200" style="enable-background:new 0 0 940 200" xml:space="preserve"><style>.st0{fill:#000850}</style><g id="_x23_000850f"><path class="st0" d="M123.5 37.6c6.8-8.5 13.7-17 20.5-25.5 19.1 0 38.3-.1 57.4.1-.1 15.4 0 30.9 0 46.3-8.3 10.6-16.8 21-25.2 31.6l-.4-.1c.2-12.2 0-24.4.1-36.6-15.6 19-31 38.1-46.4 57.2-14.5-5.7-28.9-11.5-43.3-17.3-.1 2.8.1 5.6-.1 8.3-8.3 10.5-16.5 21.2-25 31.6.1-25.6-.1-51.3.1-76.9 20.2 8 40.4 16 60.7 23.9 11.4-14.2 23-28.4 34.5-42.6h-32.9zm534-5.3c10.7-1.8 21.8-1.6 32.5.4 10.5 1.9 20.6 6 29.1 12.5 2.7 2 5.1 4.3 7.5 6.6-7.2 8.7-14.6 17.2-21.9 25.8-8-8.1-19.4-11.8-30.6-12.2-8.6-.3-17.6 1.8-24.1 7.6-6.5 5.6-9.8 14.1-10.5 22.5-.7 8.8.5 18.2 5.3 25.8 3.8 6 9.9 10.2 16.7 12.2 6.6 2.1 13.7 2.3 20.6 1.7 5.5-.5 11-2 15.7-4.9.2-3.3.1-6.7.1-10H664V88.6h66.3c0 20 .1 39.9 0 59.9-5.2 5.3-11.4 9.6-18.1 12.7-10.9 5.1-23 7.3-35 7.6-13.3.4-27-1.9-39-7.8-12.3-6-22.4-16.4-28.1-28.9-5.6-12.2-7.3-25.8-6.3-39.1.8-10.5 3.6-20.8 8.8-30 4.2-7.5 10-14 17-19.1 8-6 17.8-9.8 27.9-11.6zm-355 1.4h132.9c0 11.4-.1 22.9 0 34.3-16.4.2-32.8 0-49.3.1v98.6c-11.5 0-23 .1-34.5-.1V68h-49.2c.1-11.4.1-22.8.1-34.3zm150.5 0c1.9.1 3.9-.2 5.7.2C478.9 54 499.1 74 519.1 94.2c2.3-1.8 4.2-4.1 6.3-6.1l54.3-54.3c1.9-.3 3.9 0 5.9-.1v133.1h-33.1c0-19.6.1-39.1-.1-58.7-11 10.9-21.9 21.9-32.9 32.9l-32.1-32.1v57.9h-34.5c.1-44.4.1-88.8.1-133.1zm294.9 0h5.6C773.6 53.8 793.8 74 814 94.1c.6-.1.9-.8 1.4-1.1 19.8-19.7 39.5-39.5 59.3-59.3 1.9-.1 3.9 0 5.8 0v133.1h-33V108c-11.1 10.9-22 21.9-33 32.9l-32.1-32.1v57.8c-11.5.2-23 0-34.5.1v-133z"/><path class="st0" d="M214.3 43.7c11.5 1.6 23.1 4.8 32.8 11.4 6.4 4.3 11.6 10.6 13.7 18.1 2.2 7.7 1 16-1.9 23.4-3.7 9.3-9.8 17.5-16.6 24.8-12.8 13.6-28.3 24.4-44.5 33.4-21.1 11.6-43.8 20.3-67.1 26.1-16.1 4-32.6 6.5-49.2 6.9-15 .3-30.4-.9-44.6-6-8.8-3.2-17.5-8.2-23-16-3.6-5.1-5.5-11.5-5.4-17.7.1-7.8 2.9-15.3 6.6-22 7.4-12.9 18.3-23.5 29.9-32.6 1.1-.8 2.1-1.8 3.3-2.4-.1 1.5 0 3.1 0 4.6-7.4 5.7-14.4 12-20.2 19.4-4.1 5.4-7.6 11.5-8.5 18.4-.6 5 .8 10.2 3.9 14.1 3.6 4.5 8.9 7.3 14.2 9.3 7.5 2.6 15.5 3.8 23.4 4.2 8.3.4 16.7.1 25-.7 16.6-1.7 32.9-5.3 48.8-10.1 14-4.3 27.7-9.5 40.9-15.8 8.8-4.1 17.2-8.7 25.4-13.9 9.9-6.3 19.4-13.3 27.5-21.7 5.7-6 11-12.8 13.5-20.8 1.7-5.5 1.5-11.8-1.6-16.7-3.7-5.8-10.1-9.3-16.4-11.5-3.3-1.1-6.6-1.9-10-2.5.1-1.2.1-2.5.1-3.7zM101 61.8c10.4-4.1 21-7.9 31.9-10.7-1.6 1.8-3 3.9-4.7 5.7-7.1 2.2-14.2 4.6-21.2 7.3-2.1-.5-4.1-1.5-6-2.3z"/></g><path d="M175.9 109.1c8.5-10.5 17-21.1 25.5-31.5-.1 14.3.1 28.7-.1 43-8.2 5.1-16.7 9.8-25.4 13.9-.1-8.5 0-16.9 0-25.4zm745 14.8c3.6-3.4 7-7.1 10.7-10.4v53h-33.4v-20.2c7.6-7.4 15.1-14.9 22.7-22.4z" style="fill:#1afa47" id="_x23_1afa47ff"/><path d="m85.7 121.6.5-.3v39.1c-8.3.8-16.7 1.2-25 .7v-8.3c8.2-10.4 16.3-20.8 24.5-31.2z" style="fill:#ff2500" id="_x23_ff2500ff"/></svg>