<svg xmlns="http://www.w3.org/2000/svg" viewBox="0 0 500 200" style="enable-background:new 0 0 500 200" xml:space="preserve"><path d="M151 10.2c-.2-1.4.4-3.2 2.1-3.3 6-.2 12-.2 18.1 0 1.7-.1 2.5 1.9 2.3 3.3v82.1c.1 5.2.3 10.9 3.3 15.4 2.9 4.3 8.5 5.3 13.4 5.3 4.7 0 10.2-.6 13.2-4.6 3.1-4.1 3.2-9.5 3.4-14.4.1-28.3 0-56.5.1-84.8-.2-1.8 1.7-2.6 3.2-2.4 5.7 0 11.4-.1 17.1.1 1.7.1 2.2 2 2 3.4v83c.2 5.2.3 10.9 3.6 15.3 3.2 3.9 8.7 4.5 13.4 4.4 4.6-.1 9.8-1 12.8-4.9 2.9-4 3.3-9.1 3.5-13.9.2-10.6 0-21.2.1-31.9-.2-1.5 1.2-2.8 2.6-2.6 5.7-.1 11.3-.1 17 0 1.4-.1 2.9 1 2.7 2.5.1 11.3 0 22.6 0 34 0 9.4-2.8 19.3-9.9 25.9-7.9 7.6-19.3 10-29.9 10-9.7.2-20.1-2-27.3-8.9-7.2 7.2-17.9 9.1-27.7 8.9-10.4-.1-21.4-2.6-29.2-9.9-7.1-6.6-9.9-16.6-10-26.1.1-28.5.1-57.2.1-85.9zM51.9 159.3c2 0 4 0 5.9.1.1 7.6 0 15.3.1 22.9.1 1.8.1 4.3 2 5.2 1.9.7 4.2.8 5.9-.5 1.1-1.3 1-3 1.1-4.6 0-7.7-.1-15.4 0-23.1h5.9c.2 8.3-.2 16.7.2 25-.1 4 5.3 4.6 7.7 2.6 1.3-1.6 1.1-3.7 1.2-5.6 0-7.3-.1-14.7 0-22h5.9c.1 8 .1 16 0 24 .1 3.3-1.4 6.8-4.4 8.4-4.3 2.1-9.7 2-13.7-.7-3.8 2.7-9.1 2.8-13.3.9-3.2-1.5-4.8-5.2-4.7-8.6.2-8 .1-16 .2-24zm42.6.2c2-.1 4-.2 6.1-.2.3 11.2.3 22.4 0 33.6h-5.9c-.5-11.2-.2-22.3-.2-33.4zm13.1 1.2c1.3-2.6 5.2-1 7.6-1.2 4.6 8.1 7.7 16.9 11.9 25.2.4-8.4 0-16.8.2-25.3 1.8-.1 3.7 0 5.5 0 .1 9.6 0 19.3.1 28.9-.2 1.4.4 3.1-.7 4.2-2.5.3-5.3.7-7.7-.3-4.1-7.8-7.2-16-11.2-23.8-.4 8.1-.1 16.1-.2 24.2-1.8.1-3.6.2-5.4.2-.4-10.7-.2-21.4-.1-32.1zm32.8-1.1c5.5-.7 11.4-1.5 16.7.8 4.6 2 6.9 7.1 6.8 11.9-.1 5.8 1 12.6-3.5 17.2s-11.5 3.9-17.3 3.5c-1.1-.3-3.5.2-3.4-1.7 0-10.4-.2-20.8.1-31.2l.6-.5m5.5 4.7v23.5c4 .3 9.8.4 11.2-4.4.8-4.9 1-10.2-.1-15-1.6-4.7-7.2-4.4-11.1-4.1zm26.4-4.2c5.2-2.1 11-1.1 16.4-.3 0 1.6 0 3.3-.1 4.9-4.1-.2-8.3-1-12.3-.1-2 .5-2.7 3.4-1.2 4.8 3.7 3.1 8.6 4.4 12.1 7.8 4.1 4 3 12.1-2.4 14.4-5 2.2-10.8 1.6-15.9.3 0-1.6.1-3.1.2-4.7 3.7.2 7.5.8 11.2.2 3.1-.4 3.9-4.9 1.4-6.6-3.5-2.7-7.7-4.3-11-7.2-4.2-3.3-3.7-11.3 1.6-13.5zm30-.7c5.1-1.2 11.4-.4 14.6 4.3 3.1 4.5 2.4 10.4 2.4 15.6 0 4.2-1.1 8.9-4.7 11.5-4.1 2.9-9.8 3.1-14.3 1.2-4.5-1.9-6.6-7-6.7-11.7 0-4.5-.5-9.1.9-13.5 1.1-3.6 4.1-6.5 7.8-7.4m1.3 5.5c-3.3 1.4-3.6 5.4-3.6 8.5.1 3.7-.5 7.7 1 11.3 1.6 3.5 6.5 3.9 9.4 2.1 2.9-2.2 2.6-6.2 2.7-9.4-.1-3.3.3-6.8-1-9.9-1.5-3.2-5.7-3.8-8.5-2.6zm20.6-4.9c5.8-1.3 12.2-1.8 17.9.3 7.6 3.1 7.1 15.8-.6 18.4 2.4 4.7 5 9.2 7.3 14-2.2.1-4.5.1-6.7.1-2.3-4.3-4.7-8.6-6.9-12.9-1.6-.1-3.1-.2-4.7-.2 0 4.4.1 8.8-.1 13.1-2 0-4.1 0-6.1-.1-.1-11-.1-21.8-.1-32.7m6.3 4.4v10.3c3.2-.1 7 .8 9.7-1.5 1.5-2 1.6-5.1.2-7.1-2.6-2.5-6.6-1.7-9.9-1.7z"/><path d="M267 8.8c17.3-.9 34.8-3.4 52.1-.4 9 1.6 18.5 5.2 24 13 5.6 7.7 6 17.8 5.1 26.9-1 8.8-6.6 16.9-14.8 20.4 8.1 3.3 14.3 10.8 15.5 19.5 1.2 9.9.6 21-5.5 29.4-5.6 7.8-15 11.6-24.1 13.3-13.4 2.4-27.2 1.5-40.7.3 4-4 8.5-7.9 10.8-13.3 1-1.5 1.2-4.4 3.6-4.4 8.7-.3 17.9.5 26.1-3.3 4.1-1.8 7-5.7 7.5-10.1.6-5.2.7-10.8-2-15.4-2.1-3.8-6.2-6.2-10.4-7.2-6.3-1.5-12.8-.5-19.1-1-1.4-.2-1.9-1.8-1.8-3.1-.1-3.8-.1-7.5 0-11.2-.1-1.1.8-2.3 1.9-2.3 7.7-.6 16 1.1 23.3-2.3 4.4-1.9 7.3-6.4 7.6-11.1.3-4.6.5-9.7-2.3-13.6-2.6-3.5-7-5-11.1-5.8-9.2-1.7-18.5-1-27.8-1.1 0 7.5.1 15.1 0 22.6.3 1.6-1 3.1-2.6 3-6.1 0-12.1.3-18.2-.1-1.9-.9-1.4-3.2-1.5-4.9.1-11.6-.1-23.2.1-34.9-.2-2.7 2.6-2.9 4.3-2.9zm-12.7 153.3c-.2-1.2.4-2.8 1.9-2.7 5.5-.6 11.5-1.1 16.8 1.1 6.1 2.4 6.6 12.2.9 15.3 6.2 3.2 5.3 13.7-1.1 16-5.3 2-11.3 1.6-16.9.7-1.7-.1-1.6-2-1.6-3.2 0-9.1-.1-18.1 0-27.2m6.2 2v9.2c2.9-.1 5.8.3 8.6-.4 2.9-.9 3.3-5.2 1.6-7.3-3-2.1-6.8-1.4-10.2-1.5m0 13.8v10c3.3-.1 7 .6 10-1.3 2.2-2.2 1.7-7.1-1.6-8.2-2.7-.8-5.6-.4-8.4-.5zm23.3-18c5.8-1.3 12.4-1.8 18 .5 7.4 3.4 6.5 15.6-1 18.4 2.4 4.6 5 9.1 7.3 13.8-2.2.1-4.4.1-6.7.1-2.4-4.3-4.7-8.6-7-12.9-1.6-.1-3.1-.1-4.6-.2 0 4.3.1 8.7-.1 13.1h-6.1c0-10.9-.2-21.8.2-32.8m6.1 4.5v10.3c2.4 0 4.9.3 7.3-.2 3.8-.6 4.4-6 2.3-8.5-2.6-2.4-6.4-1.6-9.6-1.6zm29.6-4.6c4.8-1.6 10.8-1.3 14.7 2.4 3.2 3.1 3.7 7.8 3.7 12-.1 4.3.4 8.9-1.7 12.9-4.4 8.6-19.5 8.1-22.9-1.1-1.7-4.7-1.1-9.9-1.1-14.8.2-4.7 2.7-9.7 7.3-11.4m3 4.9c-3.1 1-4 4.6-4 7.4 0 4-.5 8.1.8 12 1.3 3.8 6.4 4.4 9.5 2.6 2.7-1.9 2.7-5.5 2.8-8.5-.1-3.5.4-7.2-.9-10.6-1.3-3.1-5.3-3.8-8.2-2.9zm21.4-5.4c2 0 4.1 0 6.1.1.1 5 0 10.1.1 15.1 3.8-5 7.5-10.1 11.3-15.2 2.3 0 4.7 0 7.1.1-3.7 5.6-8.1 10.7-12.2 16.1 4 5.8 8.2 11.4 12.1 17.2-2.5.1-5.1.1-7.6.1-3.6-5.3-7.1-10.6-10.7-15.9-.2 5.2.4 10.6-.3 15.8-2 .3-4 .1-6-.1 0-11.1-.2-22.2.1-33.3zm28.9 8c-.1-3.4 1.9-7 5.4-7.8 4.8-1.1 9.8-.6 14.6.3-.1 1.5-.1 3-.2 4.5-4 .2-8.1-.4-12 .4-2.5 1.9-1.1 5.7-1.5 8.4 4.4 0 8.8 0 13.1.1 0 1.6 0 3.3-.1 4.9-4.3.1-8.7 0-13 0 .4 3-1 6.9 1.3 9.3 4.1.9 8.3.1 12.4.6 0 1.5-.1 3-.1 4.5-4.8.7-9.9 1.3-14.7.1-3.1-.8-5-4.1-5.1-7.2-.2-6.1-.2-12.1-.1-18.1zm25.9-7.3c5.9-1.3 12.5-1.9 18.3.5 7.4 3.4 6.5 15.6-1 18.4 2.4 4.6 5 9.2 7.4 13.9-2.3.1-4.6.1-6.9 0-2.1-4.3-4.6-8.5-6.7-12.8l-4.8-.3c0 4.4.1 8.8-.1 13.1-2.1 0-4.1 0-6.1-.2 0-10.9 0-21.8-.1-32.6m6.3 4.4v10.3c3.3-.1 7.3.9 9.9-1.7 1.5-2.4 1.5-6.7-1.5-7.9-2.7-1.2-5.6-.7-8.4-.7zm22.9-1.4c1.4-2.5 4.4-3.6 7.2-4 4.2-.5 8.4 0 12.5.9 0 1.6-.1 3.2-.1 4.8-4.1-.1-8.3-.9-12.4-.1-2.1.5-2.8 3.4-1.3 4.8 3.7 3.1 8.7 4.4 12.1 7.9 4.1 4.1 2.9 12.2-2.5 14.4-4.8 2-10.4 1.6-15.3.3-1-1.3-.2-3.3-.3-4.8 3.7.2 7.5.8 11.2.2 3-.4 3.9-4.9 1.4-6.6-3.4-2.7-7.6-4.3-11-7.1-2.9-2.4-3.3-7.2-1.5-10.7z" style="fill:#00c9ff"/></svg>