<svg version="1.1" id="Layer_1" xmlns="http://www.w3.org/2000/svg" x="0" y="0" viewBox="0 0 360 100" style="enable-background:new 0 0 360 100" xml:space="preserve"><style>.st0{fill:red}</style><path d="M198 27.6 190 10h-28l17.2 35.4zM264.2 10h-49.8l-68.2 80h27.2l17.8-21.2L201 90h46.8l6.2-35.6 5.6 19.6 17-20.4L264.2 10zM226 83.6l-16.6-35.4 28.8-33L226 83.6zM306.8 10l-45.6 69.2H284L301.4 52l-6.6 38h23l14-80z"/><path class="st0" d="M64.2 13c-.4 3.4-.8 7.6-.6 11.2.6 5.2 3.8 8 8.2 9.6 1.4.6 3.2 1.2 5 .8.8-.2 1.4-.8 1.8-1 1.4-1 3.2-1.8 5.4-2 3.2-.4 6.4.4 8.8 1 2.2.6 5.2 1.6 7.2 2.8 1 .6 1.8 1.6 2.4 2.6 1 1.6 1.4 4.6 3.6 5 .6-2.4.2-4.8.2-7.4.2-2.4.6-4.8 1-6.8.6-3 1.4-6.2 2.4-9.2.2-.4.6-2.8 1.4-2.4.4.2.4 1.2.2 1.6 0 2-.2 3.4-.4 5.4-.4 4.8-.4 10.2.4 14.2.4 2.2 1 4.4.8 6.8 0 .6-.4 1.4-.6 2.2-.2.6 0 1-.2 1.6s-.8 1.6-1.4 2.4c-.2.2-.4.6-.6 1.2-.2.4-.6.6-.6 1.2 0 .8 1.6 2.2 2.2 2.4 3.2 1 7 1.4 8.8 3.4 1.2 1.2 2 2.6 2.2 4.6.2 1.8-.4 3.2-1.2 4.8-.4 1-1 3.6-1.6 4.2-.6.4-1.6.2-2.2.6-.2 1-.6 1.6-.8 2.8-.6.8-1.4 1.2-2 2 .2 1.8-1 2.2-2.4 2.2-4.2 3.4-12.8 1.2-16.4-1.2-1.8 1.2-3.8 2.4-3.6 5.6 1.6.8 2.8 1.8 4.6 2.4 2.4.8 5.4.4 7 1.8l.4.4h12.2l34.8-40.4L132.4 10h-68c-.2 1-.2 2-.2 3z"/><path class="st0" d="M32.2 89.4c2.2-2.4 5.4-4 8.6-5.2 2.4-1 5-2 6.8-3.6.8-.6 1.6-1.4 2.4-1.6 2-.2 3.8.6 5.2.8 4 .8 7-1.2 9-3.2 1-1 2.2-2 2.8-3.6.8-1.8.4-4 .4-6.4 0-4.6 1.8-7.8 1.8-12 0-2.2-.6-4.4-.2-6.6-2.2-1-4.8-2-6.6-4-1.8-2-3.8-5.6-3.2-8.8-1.4-2-2.6-5-2.6-8.2s1-6 1.8-9l2.4-7.8H45.4L28.2 89.8h3.6l.4-.4z"/></svg>