<?xml version="1.0" encoding="utf-8"?>
<!-- Generator: Adobe Illustrator 26.0.0, SVG Export Plug-In . SVG Version: 6.00 Build 0)  -->
<svg version="1.1" id="图层_1" xmlns="http://www.w3.org/2000/svg" xmlns:xlink="http://www.w3.org/1999/xlink" x="0px" y="0px"
	 viewBox="0 0 1088 688" style="enable-background:new 0 0 1088 688;" xml:space="preserve">
<style type="text/css">
	.st0{fill:#3F3D56;}
	.st1{fill:#F2F2F2;}
	.st2{opacity:0.1;enable-background:new    ;}
	.st3{fill:#FF6584;}
	.st4{fill:#2F2E41;}
	.st5{fill:#6C63FF;}
	.st6{fill:#A8A8A8;}
	.st7{opacity:0.2;enable-background:new    ;}
	.st8{fill:#60C28E;}
	.st9{fill:#FFFFFF;}
	.st10{fill:#80D3AE;}
	.st11{fill:#495059;}
	.st12{fill:#F5E6AB;}
	.st13{fill:#F2C55A;}
</style>
<g id="Group_12" transform="translate(-57 -56)">
	<g id="Group_11" transform="translate(57 56)">
		<path id="Path_83" class="st0" d="M961.8,454.4c-5.3,45.2-16.2,81.4-31.2,110.3c-20,38.5-54.2,54-84.8,70.3
			c-8.8,4.7-18,8.7-27.5,11.9c-55.6,19.3-117.8,14.2-166.7,4c-34.3-7.2-69.1-11.6-104.1-13.2c-10-0.4-20-0.7-30-0.7
			c-15.4,0-293.1,5.3-360.7-131.6c-16.7-33.8-28.1-75-32.2-125.3C113,238.2,176.9,144.8,259.4,83.8c156-115.4,369.8-110.6,523.4,7.9
			C885.2,170.6,981,290,961.8,454.4z"/>
		<path id="Path_84" class="st1" d="M930.6,564.8c-20,38.5-47.2,64-77.8,80.3c-8.8,4.7-18,8.7-27.5,11.9
			c-55.6,19.3-117.8,14.2-166.7,4c-34.3-7.2-69.1-11.6-104.1-13.2c-10-0.4-20-0.7-30-0.7c-15.4,0-30.8,0.6-46.2,1.7
			c-100.2,7.4-253.8-6.4-321.4-143.3L326,178l63,161.6l20.1,51.6l55.4-76L493,276l130.2,149.3L660,344l254.8,207.9l14.2,11.6
			L930.6,564.8z"/>
		<path id="Path_85" class="st2" d="M302,283l26-57l36,83l-31-60L302,283z"/>
		<path id="Path_86" class="st2" d="M554.5,647.8c-10-0.4-20-0.7-30-0.7L409,391.2L554.5,647.8z"/>
		<path id="Path_87" class="st2" d="M464.4,315.2L493,293l130,150L491,315L464.4,315.2z"/>
		<path id="Path_88" class="st2" d="M852.8,645c-8.8,4.7-18,8.7-27.5,11.9L623.2,425.2L852.8,645z"/>
		<circle id="Ellipse_11" class="st1" cx="482" cy="102" r="3"/>
		<circle id="Ellipse_12" class="st1" cx="399" cy="205" r="3"/>
		<circle id="Ellipse_13" class="st1" cx="602" cy="223" r="2"/>
		<circle id="Ellipse_14" class="st1" cx="182" cy="268" r="2"/>
		<circle id="Ellipse_15" class="st1" cx="614" cy="99" r="2"/>
		<circle id="Ellipse_16" class="st1" cx="738" cy="195" r="2"/>
		<circle id="Ellipse_17" class="st1" cx="860" cy="347" r="2"/>
		<path id="Path_89" class="st1" d="M306,121.2h-2.8v-2.8h-1.5v2.8H299v1.5h2.8v2.8h1.5v-2.8h2.8V121.2z"/>
		<path id="Path_90" class="st1" d="M848,424.2h-2.8v-2.8h-1.5v2.8H841v1.5h2.8v2.8h1.5v-2.8h2.8V424.2z"/>
		<path id="Path_91" class="st0" d="M1088,614c0,16.6-243.6,74-544,74S0,630.5,0,614s243.6,14,544,14S1088,597.4,1088,614z"/>
		<path id="Path_92" class="st2" d="M1088,614c0,16.6-243.6,74-544,74S0,630.5,0,614s243.6,14,544,14S1088,597.4,1088,614z"/>
		<ellipse id="Ellipse_18" class="st0" cx="544" cy="614" rx="544" ry="30"/>
		<path id="Path_93" class="st3" d="M568,572c0,33.1-14.8,24-33,24s-33,9.1-33-24s33-96,33-96S568,538.8,568,572z"/>
		<path id="Path_94" class="st2" d="M550,584.6c0,15.1-6.7,10.9-15,10.9s-15,4.2-15-10.9s15-43.6,15-43.6S550,569.6,550,584.6z"/>
		<path id="Rectangle_97" class="st4" d="M498,605h74c5,0,9,4,9,9l0,0c0,5-4,9-9,9h-74c-5,0-9-4-9-9l0,0C489,609,493,605,498,605z"
			/>
		<path id="Rectangle_98" class="st4" d="M498,587h74c5,0,9,4,9,9l0,0c0,5-4,9-9,9h-74c-5,0-9-4-9-9l0,0C489,591,493,587,498,587z"
			/>
		<path id="Path_95" class="st0" d="M137,490.5c0,55.3,34.7,100.1,77.6,100.1"/>
		<path id="Path_96" class="st5" d="M214.6,590.7c0-56,38.7-101.3,86.6-101.3"/>
		<path id="Path_97" class="st5" d="M165.1,495.5c0,52.6,22.1,95.1,49.5,95.1"/>
		<path id="Path_98" class="st0" d="M214.6,590.7c0-71.5,44.8-129.4,100.1-129.4"/>
		<path id="Path_99" class="st6" d="M198.3,591.4c0,0,11-0.3,14.3-2.7s16.9-5.2,17.8-1.4s16.5,18.8,4.1,18.9s-28.9-1.9-32.2-4
			S198.3,591.4,198.3,591.4z"/>
		<path id="Path_100" class="st7" d="M234.7,604.9c-12.4,0.1-28.9-1.9-32.2-4c-2.5-1.5-3.5-7-3.9-9.6l-0.4,0c0,0,0.7,8.9,4,10.9
			s19.8,4.1,32.2,4c3.6,0,4.8-1.3,4.8-3.2C238.8,604.2,237.4,604.9,234.7,604.9z"/>
		<path id="Path_101" class="st0" d="M721.4,527.1c0,38,23.9,68.8,53.3,68.8"/>
		<path id="Path_102" class="st5" d="M774.8,595.9c0-38.5,26.6-69.6,59.5-69.6"/>
		<path id="Path_103" class="st5" d="M740.8,530.5c0,36.1,15.2,65.4,34,65.4"/>
		<path id="Path_104" class="st0" d="M774.8,595.9c0-49.1,30.8-88.9,68.8-88.9"/>
		<path id="Path_105" class="st6" d="M763.5,596.3c0,0,7.6-0.2,9.8-1.9s11.6-3.6,12.2-1s11.4,12.9,2.8,13s-19.8-1.3-22.1-2.7
			S763.5,596.3,763.5,596.3z"/>
		<path id="Path_106" class="st7" d="M788.6,605.6c-8.5,0.1-19.8-1.3-22.1-2.7c-1.7-1.1-2.4-4.8-2.7-6.6l-0.3,0c0,0,0.5,6.1,2.8,7.5
			s13.6,2.8,22.1,2.7c2.5,0,3.3-0.9,3.3-2.2C791.3,605.1,790.4,605.6,788.6,605.6z"/>
		<path id="Path_107" class="st6" d="M893.8,618.7c0,0,11.4-1.7,14.5-4.6s16.9-7.5,18.2-3.7s19.5,17.4,6.6,19.1s-30.2,1.6-33.8-0.1
			S893.8,618.7,893.8,618.7z"/>
		<path id="Path_108" class="st7" d="M933.2,628.2c-12.9,1.7-30.2,1.6-33.8-0.1c-2.8-1.3-4.5-6.9-5.2-9.5l-0.4,0.1
			c0,0,1.8,9.1,5.5,10.8s21,1.7,33.8,0.1c3.7-0.5,4.8-2,4.5-3.9C937.3,626.9,936,627.8,933.2,628.2z"/>
		<path id="Path_109" class="st6" d="M614.3,617.9c0,0,9.6-1.5,12.2-3.9s14.3-6.3,15.4-3.1s16.5,14.7,5.6,16.1s-25.4,1.4-28.6-0.1
			S614.3,617.9,614.3,617.9z"/>
		<path id="Path_110" class="st7" d="M647.5,625.9c-10.9,1.4-25.4,1.4-28.6-0.1c-2.4-1.1-3.8-5.8-4.4-8l-0.3,0.1
			c0,0,1.5,7.7,4.7,9.1s17.7,1.5,28.6,0.1c3.1-0.4,4.1-1.7,3.8-3.3C651,624.8,649.9,625.6,647.5,625.9z"/>
		<path id="Path_111" class="st6" d="M122.4,613.1c0,0,7.5-1.1,9.5-3s11.1-4.9,12-2.4s12.8,11.5,4.4,12.6s-19.8,1.1-22.2,0
			S122.4,613.1,122.4,613.1z"/>
		<path id="Path_112" class="st7" d="M148.3,619.3c-8.4,1.1-19.8,1.1-22.2,0c-1.8-0.8-3-4.5-3.4-6.2l-0.2,0c0,0,1.2,6,3.6,7.1
			s13.8,1.1,22.2,0c2.4-0.3,3.2-1.3,3-2.6C151,618.5,150.1,619.1,148.3,619.3z"/>
		<path id="Path_113" class="st2" d="M383.7,601.3c0,30.2-42.1,20.9-93.7,20.9s-93.1,9.3-93.1-20.9s42.1-36.8,93.7-36.8
			S383.7,571.1,383.7,601.3z"/>
		<path id="Path_114" class="st0" d="M383.7,593.9c0,30.2-42.1,20.9-93.7,20.9s-93.1,9.3-93.1-20.9s42.1-36.8,93.7-36.8
			S383.7,563.7,383.7,593.9z"/>
	</g>
	<g>
		<path class="st8" d="M499.5,668.3H377c-9.7,0-17.5-7.8-17.5-17.5V472.6c0-9.7,7.8-17.5,17.5-17.6c0,0,0,0,0,0h122.5
			c9.7,0,17.5,7.8,17.5,17.5v178.2C517,660.4,509.2,668.3,499.5,668.3L499.5,668.3z"/>
		<path class="st9" d="M487.3,655.8H379.2c-8.5,0-15.5-6.9-15.5-15.5V483c0-8.5,6.9-15.5,15.5-15.5h108.2c8.5,0,15.5,6.9,15.5,15.5
			l0,0v157.4C502.8,648.9,495.9,655.8,487.3,655.8L487.3,655.8z"/>
		<path class="st10" d="M466.4,668.3H343.9c-9.7,0-17.5-7.8-17.5-17.5V472.6c0-9.7,7.8-17.5,17.5-17.6c0,0,0,0,0,0h122.5
			c9.7,0,17.5,7.8,17.5,17.5v178.2C484,660.4,476.1,668.3,466.4,668.3C466.4,668.3,466.4,668.3,466.4,668.3z"/>
		<path class="st10" d="M466.4,668.3H343.9c-9.7,0-17.5-7.8-17.5-17.5V472.6c0-9.7,7.8-17.5,17.5-17.6c0,0,0,0,0,0h122.5
			c9.7,0,17.5,7.8,17.5,17.5v178.2C484,660.4,476.1,668.3,466.4,668.3C466.4,668.3,466.4,668.3,466.4,668.3z"/>
		<path class="st8" d="M367.3,455h-23.3c-9.7,0-17.5,7.8-17.5,17.5v178.2c0,9.7,7.8,17.5,17.5,17.5h122.5c6.3,0,12.1-3.4,15.2-8.8
			C371.5,624.9,367.2,505.6,367.3,455z"/>
		<path class="st11" d="M336.3,572.8h-24.7c-5.8,0-10.6,4.7-10.5,10.6c0,5.8,4.7,10.5,10.5,10.6h24.7c5.8,0,10.6-4.7,10.5-10.6
			C346.8,577.5,342.1,572.8,336.3,572.8z M336.3,529.4h-24.7c-5.8,0-10.6,4.7-10.5,10.6c0,5.8,4.7,10.5,10.5,10.6h24.7
			c5.8,0,10.6-4.7,10.5-10.6C346.8,534.1,342.1,529.4,336.3,529.4z M336.3,485.9h-24.7c-5.8,0-10.6,4.7-10.5,10.6
			c0,5.8,4.7,10.5,10.5,10.6h24.7c5.8,0,10.6-4.7,10.5-10.6C346.8,490.6,342.1,485.9,336.3,485.9z M336.3,637.4h-24.7
			c-5.8,0-10.5-4.7-10.5-10.6c0-5.8,4.7-10.5,10.5-10.5h24.7c5.8,0,10.6,4.7,10.6,10.6C346.8,632.6,342.1,637.4,336.3,637.4
			L336.3,637.4z"/>
		<path class="st12" d="M484,598.7c-18.7,24.2-44.3,33.7-82.9,29.2c-36.7-4.3-44.2,22.3-42.5,40.5h107.8c9.7,0,17.5-7.8,17.5-17.5
			V598.7z"/>
		<path class="st9" d="M361,511c0,6.5,6.6,11.7,14.6,11.7s14.7-5.2,14.7-11.7l0,0c0-6.5-6.6-11.7-14.6-11.7S361,504.6,361,511z"/>
		<path class="st9" d="M440.5,511c0,6.5,6.6,11.7,14.7,11.7s14.6-5.2,14.6-11.7s-6.6-11.7-14.6-11.7
			C447,499.3,440.5,504.6,440.5,511z"/>
		<path class="st11" d="M391.2,501.5c-1.7,0-3.2-1.4-3.2-3.2l0,0l0,0c0.3-2.1-1.2-4-3.3-4.3s-4,1.2-4.3,3.3c0,0.3,0,0.7,0,1
			c0,1.7-1.4,3.2-3.2,3.2s-3.2-1.4-3.2-3.2c-0.2-5.6,4.2-10.3,9.8-10.5c5.6-0.2,10.3,4.2,10.5,9.8c0,0.2,0,0.4,0,0.7
			C394.4,500.1,393,501.5,391.2,501.5C391.2,501.5,391.2,501.5,391.2,501.5z M453.5,501.5c-1.7,0-3.2-1.4-3.2-3.2l0,0
			c0-2.1-1.7-3.8-3.8-3.8c-2.1,0-3.8,1.7-3.8,3.8c0,1.7-1.4,3.2-3.2,3.2c-1.7,0-3.2-1.4-3.2-3.2c0-5.6,4.5-10.1,10.1-10.1
			c5.6,0,10.1,4.5,10.1,10.1C456.7,500.1,455.3,501.5,453.5,501.5C453.5,501.5,453.5,501.5,453.5,501.5z M415.4,513
			c-3.8,0-7.3-1.6-9.8-4.5c-1.1-1.3-1-3.3,0.3-4.5l0,0c1.3-1.1,3.3-1,4.5,0.3c0,0,0,0,0,0l0,0c2.4,2.8,6.6,3.1,9.4,0.7
			c0.2-0.2,0.5-0.4,0.7-0.7c1.1-1.3,3.1-1.5,4.4-0.3c0,0,0,0,0,0l0,0c1.3,1.1,1.5,3.1,0.3,4.5C422.7,511.4,419.2,513,415.4,513z"/>
		<path class="st13" d="M467.8,668.2l0.8-0.1h0.3c0.4,0,0.7-0.1,1.1-0.2l0,0c0.3-0.1,0.7-0.2,1-0.2l0.3-0.1l0.8-0.2l0.2-0.1
			c0.3-0.1,0.7-0.3,1-0.4l0,0l1-0.4l0.2-0.1c0.3-0.1,0.6-0.3,0.8-0.5l0.1-0.1c0.6-0.4,1.2-0.8,1.8-1.2l0.1-0.1
			c0.9-0.7,1.7-1.5,2.4-2.3l0,0c0.7-0.9,1.4-1.8,2-2.8c-22.7-7.1-40.9-17.8-55.5-30.8c-8.4,0.5-16.8,0.2-25.1-0.9
			c-36.7-4.3-44.2,22.3-42.5,40.5h107.8c0.4,0,0.7,0,1.1,0h0.3L467.8,668.2z"/>
		<path class="st9" d="M410.1,539.7l6.9,1.5l-2.8,9.9c1.8,0.4,3.7,0.8,5.5,1.2l2.7-9.8l6.9,1.5l-2.8,10.1c8.6,2.7,15,6.7,13.8,14.1
			c-0.9,5.5-4.3,8.1-8.8,9c6.2,2.9,9.3,7.3,6.3,14.9c-3.7,9.5-12.5,10.3-24.2,8.3l-2.9,10.2l-6.9-1.5l2.8-10.1
			c-1.8-0.4-3.7-0.8-5.5-1.3l-2.8,10.1l-6.9-1.5l2.8-10.2l-1.9-0.5c-1-0.2-2-0.5-3-0.7l-8.9-2l3.4-7c0,0,5.1,1.2,5,1.1
			c1.3,0.4,2.6-0.2,3.1-1.5l4.5-16.1l0.5,0.1h0.2c-0.2-0.1-0.5-0.2-0.7-0.2l3.2-11.5c0.1-1.3-0.4-3-3.2-3.6c0.1-0.1-5-1.1-5-1.1
			l1.8-6.6l9.5,2.2l0,0c1.4,0.3,2.9,0.6,4.4,0.9L410.1,539.7L410.1,539.7z M407.2,576.9l-3.8,13.5l1.3,0.3l0.4,0.1
			c5.8,1.4,17.5,4,19.4-2.9c2-7.2-9.9-9.6-15.7-10.7l-0.5-0.1L407.2,576.9L407.2,576.9z M412.4,558.4l-3.4,12.3l0.3,0.1l0.8,0.2
			c4.7,1.1,14.9,3.6,16.6-2.8c1.8-6.4-8.1-8.5-13-9.4L412.4,558.4z"/>
	</g>
</g>
</svg>
