<svg version="1.1" id="图层_1" xmlns="http://www.w3.org/2000/svg" x="0" y="0" viewBox="0 0 1129 663" style="enable-background:new 0 0 1129 663" xml:space="preserve"><style>.st1{fill:#3f3d56}.st2{opacity:.2;enable-background:new}.st8{fill:#60c28e}.st9{fill:#fff}.st10{fill:#80d3ae}.st11{fill:#495059}</style><circle cx="321" cy="321" r="321" style="fill:#f2f2f2"/><ellipse class="st1" cx="559" cy="635.5" rx="514" ry="27.5"/><ellipse class="st2" cx="558" cy="627" rx="460" ry="22"/><path class="st1" d="M131 152.5h840v50H131z"/><path class="st1" d="M131 608.8c0 12 9.7 21.7 21.7 21.7h796.7c12 0 21.7-9.7 21.7-21.7V177.5H131v431.3zm818.3-491.3H152.7c-12 0-21.7 9.7-21.7 21.7v38.3h840v-38.3c0-12-9.7-21.7-21.7-21.7z"/><path class="st2" d="M949.3 117.5H152.7c-12 0-21.7 9.7-21.7 21.7v38.3h840v-38.3c0-12-9.7-21.7-21.7-21.7z"/><circle class="st1" cx="181" cy="147.5" r="13"/><circle class="st1" cx="217" cy="147.5" r="13"/><circle class="st1" cx="253" cy="147.5" r="13"/><path d="M173.3 213.5h326.3c2.9 0 5.3 2.4 5.3 5.3v375.3c0 2.9-2.4 5.3-5.3 5.3H173.3c-2.9 0-5.3-2.4-5.3-5.3V218.8c0-2.9 2.4-5.3 5.3-5.3z" style="fill:#606060"/><path d="M608.5 272.5h273c3 0 5.5 2.5 5.5 5.5v11c0 3-2.5 5.5-5.5 5.5h-273c-3 0-5.5-2.5-5.5-5.5v-11c0-3 2.5-5.5 5.5-5.5zm-66 80h405c3 0 5.5 2.5 5.5 5.5v4c0 3-2.5 5.5-5.5 5.5h-405c-3 0-5.5-2.5-5.5-5.5v-4c0-3 2.5-5.5 5.5-5.5zm0 44h405c3 0 5.5 2.5 5.5 5.5v4c0 3-2.5 5.5-5.5 5.5h-405c-3 0-5.5-2.5-5.5-5.5v-4c0-3 2.5-5.5 5.5-5.5zm0 44h405c3 0 5.5 2.5 5.5 5.5v4c0 3-2.5 5.5-5.5 5.5h-405c-3 0-5.5-2.5-5.5-5.5v-4c0-3 2.5-5.5 5.5-5.5zm0 44h405c3 0 5.5 2.5 5.5 5.5v4c0 3-2.5 5.5-5.5 5.5h-405c-3 0-5.5-2.5-5.5-5.5v-4c0-3 2.5-5.5 5.5-5.5z" style="fill:#2e8555"/><path d="M872 552.5h74c3.9 0 7 3.1 7 7v11.9c0 3.9-3.1 7-7 7h-74c-3.9 0-7-3.1-7-7v-11.9c0-3.9 3.1-7 7-7z" style="fill:#3ecc5f"/><path class="st1" d="M1053.1 506.1c2.7-4.6 4-9.9 4-15.3 0-13.8-8.5-25-19.1-25s-19.1 11.2-19.1 25c-.1 5.4 1.3 10.6 4 15.3-5.3 9.5-5.3 21 0 30.5-5.3 9.5-5.3 21 0 30.5-5.3 9.5-5.3 21 0 30.5-2.7 4.6-4 9.9-4 15.3 0 13.8 8.5 25 19.1 25s19.1-11.2 19.1-25c.1-5.4-1.3-10.6-4-15.3 5.3-9.5 5.3-21 0-30.5 5.3-9.5 5.3-21 0-30.5 5.3-9.4 5.3-21 0-30.5z"/><ellipse class="st1" cx="1038" cy="460.3" rx="19.1" ry="25"/><ellipse class="st1" cx="1038" cy="429.8" rx="19.1" ry="25"/><path d="M1109.4 220.8c2.6-3.3 5-6.8 7.1-10.5l-50.1-8.2 54.2.4c10.5-22.9 11.1-49.1 1.7-72.4l-72.8 37.7 67.1-49.3c-25.3-43.7-81.2-58.6-124.9-33.3-43.7 25.3-58.6 81.2-33.3 124.9 2.2 3.7 4.6 7.3 7.3 10.7-4.1 5.2-7.6 10.8-10.4 16.7l65.1 33.8L951 248c-9.9 29.3-4.4 61.6 14.7 85.8-31.2 39.7-24.3 97.1 15.3 128.4 39.7 31.2 97.1 24.3 128.4-15.3 26.1-33.2 26.1-79.9 0-113 26.1-33.2 26.1-79.9 0-113.1z" style="fill-rule:evenodd;clip-rule:evenodd;fill:#3ecc5f"/><path d="M946.2 277.4c0 20.5 6.9 40.4 19.6 56.5-31.2 39.7-24.3 97.1 15.3 128.4 39.7 31.2 97.1 24.3 128.4-15.3 26.1-33.2 26.1-79.9 0-113 12.2-15.7-163.3-66.9-163.3-56.6z" style="opacity:.1;enable-background:new"/><path class="st8" d="M448.5 555.4H291.4c-12.4 0-22.5-10.6-22.5-23.7V291.1c0-13.1 10-23.7 22.5-23.7h157.1c12.4 0 22.5 10.6 22.5 23.7v240.7c0 13-10.1 23.6-22.5 23.6z"/><path class="st9" d="M432.9 538.5H294.2c-11 0-19.8-9.4-19.8-20.9V305.1c0-11.5 8.9-20.9 19.8-20.9h138.7c11 0 19.8 9.4 19.8 20.9v212.5c.1 11.6-8.8 20.9-19.8 20.9z"/><path class="st10" d="M406.2 555.4H249.1c-12.4 0-22.5-10.6-22.5-23.7V291.1c0-13.1 10-23.7 22.5-23.7h157.1c12.4 0 22.5 10.6 22.5 23.7v240.7c-.1 13-10.1 23.6-22.5 23.6z"/><path class="st10" d="M406.2 555.4H249.1c-12.4 0-22.5-10.6-22.5-23.7V291.1c0-13.1 10-23.7 22.5-23.7h157.1c12.4 0 22.5 10.6 22.5 23.7v240.7c-.1 13-10.1 23.6-22.5 23.6z"/><path class="st8" d="M279 267.3h-29.9c-12.4 0-22.5 10.6-22.5 23.7v240.7c0 13.1 10.1 23.7 22.5 23.7h157.1c8.1 0 15.5-4.5 19.5-11.9C284.4 496.8 279 335.7 279 267.3z"/><path class="st11" d="M239.2 426.5h-31.7c-7.5 0-13.5 6.4-13.5 14.3s6.1 14.2 13.5 14.2h31.7c7.5 0 13.5-6.4 13.5-14.3.1-7.8-6-14.2-13.5-14.2zm0-58.7h-31.7c-7.5 0-13.5 6.4-13.5 14.3s6.1 14.2 13.5 14.2h31.7c7.5 0 13.5-6.4 13.5-14.3.1-7.8-6-14.2-13.5-14.2zm0-58.7h-31.7c-7.5 0-13.5 6.4-13.5 14.3s6.1 14.2 13.5 14.2h31.7c7.5 0 13.5-6.4 13.5-14.3.1-7.8-6-14.2-13.5-14.2zm0 204.6h-31.7c-7.5 0-13.5-6.4-13.5-14.3s6.1-14.2 13.5-14.2h31.7c7.5 0 13.5 6.4 13.5 14.3s-6 14.2-13.5 14.2z"/><path d="M428.6 461.4c-24 32.7-56.9 45.5-106.3 39.4-47.1-5.8-56.7 30.2-54.5 54.7h138.3c12.4 0 22.5-10.6 22.5-23.7v-70.4z" style="fill:#f5e6ab"/><path class="st9" d="M271 343c0 8.8 8.4 15.8 18.8 15.8s18.8-7 18.8-15.7c0-8.8-8.4-15.8-18.8-15.8s-18.8 7-18.8 15.7zm101.8 0c0 8.8 8.4 15.8 18.8 15.8s18.8-7.1 18.8-15.8c0-8.7-8.4-15.8-18.8-15.8s-18.8 7.1-18.8 15.8z"/><path class="st11" d="M309.7 330.1c-2.2 0-4.1-1.9-4.1-4.3.4-2.8-1.5-5.4-4.2-5.8s-5.1 1.6-5.5 4.4c-.1.4-.1.9 0 1.3 0 2.4-1.8 4.3-4.1 4.3s-4.1-1.9-4.1-4.3c-.2-7.6 5.4-13.9 12.6-14.1 7.2-.2 13.2 5.7 13.4 13.2v.9c.1 2.5-1.7 4.4-4 4.4zm79.9 0c-2.2 0-4.1-1.9-4.1-4.3 0-2.8-2.2-5.1-4.9-5.1s-4.9 2.3-4.9 5.1c0 2.4-1.8 4.3-4.1 4.3s-4.1-1.9-4.1-4.3c0-7.6 5.8-13.7 13-13.7s13 6.1 13 13.7c.2 2.4-1.6 4.3-3.9 4.3zm-48.9 15.6c-4.8 0-9.4-2.2-12.5-6-1.5-1.8-1.3-4.5.4-6 1.7-1.6 4.2-1.4 5.7.4 3.1 3.7 8.4 4.1 12 .9l.9-.9c1.5-1.8 4-2 5.7-.4 1.7 1.5 1.9 4.2.4 6-3.2 3.8-7.8 6-12.6 6z"/><path d="m408 555.3 1-.1h.4c.5 0 .9-.1 1.4-.2.4-.1.8-.2 1.3-.3l.3-.1 1-.3.3-.1c.4-.2.9-.3 1.3-.5l1.2-.6.2-.1c.4-.2.7-.4 1.1-.6l.1-.1c.8-.5 1.6-1.1 2.3-1.7l.1-.1c1.1-.9 2.2-2 3.1-3.1.9-1.2 1.8-2.4 2.5-3.7-29.1-9.6-52.4-24.1-71.1-41.6-10.8.6-21.5.2-32.2-1.2-47.1-5.8-56.7 30.2-54.5 54.7h140.1l.1-.3z" style="fill:#f2c55a"/><path class="st9" d="m334 381.8 8.8 2.1-3.5 13.4c2.4.5 4.7 1 7.1 1.6l3.5-13.3 8.8 2.1-3.6 13.7c11.1 3.6 19.3 9 17.6 19.1-1.1 7.4-5.5 10.9-11.2 12.2 7.9 3.9 11.9 9.8 8.1 20.2-4.8 12.8-16.1 13.9-31.1 11.2l-3.7 13.8-8.8-2.1 3.6-13.6c-2.4-.5-4.7-1.1-7-1.7l-3.6 13.7-8.8-2.1 3.6-13.8-2.5-.6c-1.2-.3-2.5-.6-3.8-.9l-11.5-2.7 4.4-9.5s6.5 1.6 6.4 1.5c1.6.6 3.4-.3 4-2l5.8-21.8.6.2h.3l-.9-.3 4.2-15.5c.1-1.8-.5-4-4.2-4.8.1-.1-6.4-1.5-6.4-1.5l2.3-8.9 12.1 2.9c1.8.4 3.7.8 5.6 1.2l3.8-13.8zm-3.7 50.2-4.8 18.3 1.7.4.5.1c7.4 1.8 22.5 5.4 24.9-3.9 2.6-9.7-12.7-12.9-20.1-14.5l-.6-.1-1.6-.3zm6.5-25-4.3 16.6.4.1 1 .3c6 1.5 19.1 4.8 21.3-3.8s-10.4-11.5-16.6-12.7l-1.8-.5z"/></svg>