<?xml version="1.0" encoding="utf-8"?>
<!-- Generator: Adobe Illustrator 26.0.0, SVG Export Plug-In . SVG Version: 6.00 Build 0)  -->
<svg version="1.1" id="图层_1" xmlns="http://www.w3.org/2000/svg" xmlns:xlink="http://www.w3.org/1999/xlink" x="0px" y="0px"
	 viewBox="0 0 1129 663" style="enable-background:new 0 0 1129 663;" xml:space="preserve">
<style type="text/css">
	.st0{fill:#F2F2F2;}
	.st1{fill:#3F3D56;}
	.st2{opacity:0.2;enable-background:new    ;}
	.st3{fill:#606060;}
	.st4{fill:#2E8555;}
	.st5{fill:#3ECC5F;}
	.st6{fill-rule:evenodd;clip-rule:evenodd;fill:#3ECC5F;}
	.st7{opacity:0.1;enable-background:new    ;}
	.st8{fill:#60C28E;}
	.st9{fill:#FFFFFF;}
	.st10{fill:#80D3AE;}
	.st11{fill:#495059;}
	.st12{fill:#F5E6AB;}
	.st13{fill:#F2C55A;}
</style>
<circle class="st0" cx="321" cy="321" r="321"/>
<ellipse class="st1" cx="559" cy="635.5" rx="514" ry="27.5"/>
<ellipse class="st2" cx="558" cy="627" rx="460" ry="22"/>
<rect x="131" y="152.5" class="st1" width="840" height="50"/>
<path class="st1" d="M131,608.8c0,12,9.7,21.7,21.7,21.7c0,0,0,0,0,0h796.7c12,0,21.7-9.7,21.7-21.7c0,0,0,0,0,0V177.5H131V608.8z"
	/>
<path class="st1" d="M949.3,117.5H152.7c-12,0-21.7,9.7-21.7,21.7v0v38.3h840v-38.3C971,127.2,961.3,117.5,949.3,117.5
	C949.3,117.5,949.3,117.5,949.3,117.5z"/>
<path class="st2" d="M949.3,117.5H152.7c-12,0-21.7,9.7-21.7,21.7v0v38.3h840v-38.3C971,127.2,961.3,117.5,949.3,117.5
	C949.3,117.5,949.3,117.5,949.3,117.5z"/>
<circle class="st1" cx="181" cy="147.5" r="13"/>
<circle class="st1" cx="217" cy="147.5" r="13"/>
<circle class="st1" cx="253" cy="147.5" r="13"/>
<path class="st3" d="M173.3,213.5h326.3c2.9,0,5.3,2.4,5.3,5.3v375.3c0,2.9-2.4,5.3-5.3,5.3H173.3c-2.9,0-5.3-2.4-5.3-5.3V218.8
	C168,215.9,170.4,213.5,173.3,213.5z"/>
<path class="st4" d="M608.5,272.5h273c3,0,5.5,2.5,5.5,5.5v11c0,3-2.5,5.5-5.5,5.5h-273c-3,0-5.5-2.5-5.5-5.5v-11
	C603,275,605.5,272.5,608.5,272.5z"/>
<path class="st4" d="M542.5,352.5h405c3,0,5.5,2.5,5.5,5.5v4c0,3-2.5,5.5-5.5,5.5h-405c-3,0-5.5-2.5-5.5-5.5v-4
	C537,355,539.5,352.5,542.5,352.5z"/>
<path class="st4" d="M542.5,396.5h405c3,0,5.5,2.5,5.5,5.5v4c0,3-2.5,5.5-5.5,5.5h-405c-3,0-5.5-2.5-5.5-5.5v-4
	C537,399,539.5,396.5,542.5,396.5z"/>
<path class="st4" d="M542.5,440.5h405c3,0,5.5,2.5,5.5,5.5v4c0,3-2.5,5.5-5.5,5.5h-405c-3,0-5.5-2.5-5.5-5.5v-4
	C537,443,539.5,440.5,542.5,440.5z"/>
<path class="st4" d="M542.5,484.5h405c3,0,5.5,2.5,5.5,5.5v4c0,3-2.5,5.5-5.5,5.5h-405c-3,0-5.5-2.5-5.5-5.5v-4
	C537,487,539.5,484.5,542.5,484.5z"/>
<path class="st5" d="M872,552.5H946c3.9,0,7,3.1,7,7v11.9c0,3.9-3.1,7-7,7H872c-3.9,0-7-3.1-7-7v-11.9
	C865,555.6,868.1,552.5,872,552.5z"/>
<path class="st1" d="M1053.1,506.1c2.7-4.6,4-9.9,4-15.3c0-13.8-8.5-25-19.1-25s-19.1,11.2-19.1,25c-0.1,5.4,1.3,10.6,4,15.3
	c-5.3,9.5-5.3,21,0,30.5c-5.3,9.5-5.3,21,0,30.5c-5.3,9.5-5.3,21,0,30.5c-2.7,4.6-4,9.9-4,15.3c0,13.8,8.5,25,19.1,25
	s19.1-11.2,19.1-25c0.1-5.4-1.3-10.6-4-15.3c5.3-9.5,5.3-21,0-30.5c5.3-9.5,5.3-21,0-30.5C1058.4,527.2,1058.4,515.6,1053.1,506.1z"
	/>
<ellipse class="st1" cx="1038" cy="460.3" rx="19.1" ry="25"/>
<ellipse class="st1" cx="1038" cy="429.8" rx="19.1" ry="25"/>
<path class="st6" d="M1109.4,220.8c2.6-3.3,5-6.8,7.1-10.5l-50.1-8.2l54.2,0.4c10.5-22.9,11.1-49.1,1.7-72.4l-72.8,37.7l67.1-49.3
	c-25.3-43.7-81.2-58.6-124.9-33.3c-43.7,25.3-58.6,81.2-33.3,124.9c2.2,3.7,4.6,7.3,7.3,10.7c-4.1,5.2-7.6,10.8-10.4,16.7l65.1,33.8
	L951,248c-9.9,29.3-4.4,61.6,14.7,85.8c-31.2,39.7-24.3,97.1,15.3,128.4c39.7,31.2,97.1,24.3,128.4-15.3c26.1-33.2,26.1-79.9,0-113
	C1135.5,300.7,1135.5,254,1109.4,220.8z"/>
<path class="st7" d="M946.2,277.4c0,20.5,6.9,40.4,19.6,56.5c-31.2,39.7-24.3,97.1,15.3,128.4c39.7,31.2,97.1,24.3,128.4-15.3
	c26.1-33.2,26.1-79.9,0-113C1121.7,318.3,946.2,267.1,946.2,277.4z"/>
<g>
	<path class="st8" d="M448.5,555.4H291.4c-12.4,0-22.5-10.6-22.5-23.7V291.1c0-13.1,10-23.7,22.5-23.7c0,0,0,0,0,0h157.1
		c12.4,0,22.5,10.6,22.5,23.7v240.7C471,544.8,460.9,555.4,448.5,555.4L448.5,555.4z"/>
	<path class="st9" d="M432.9,538.5H294.2c-11,0-19.8-9.4-19.8-20.9V305.1c0-11.5,8.9-20.9,19.8-20.9h138.7c11,0,19.8,9.4,19.8,20.9
		l0,0v212.5C452.8,529.2,443.9,538.5,432.9,538.5L432.9,538.5z"/>
	<path class="st10" d="M406.2,555.4H249.1c-12.4,0-22.5-10.6-22.5-23.7V291.1c0-13.1,10-23.7,22.5-23.7c0,0,0,0,0,0h157.1
		c12.4,0,22.5,10.6,22.5,23.7v240.7C428.6,544.8,418.6,555.4,406.2,555.4C406.2,555.4,406.2,555.4,406.2,555.4z"/>
	<path class="st10" d="M406.2,555.4H249.1c-12.4,0-22.5-10.6-22.5-23.7V291.1c0-13.1,10-23.7,22.5-23.7c0,0,0,0,0,0h157.1
		c12.4,0,22.5,10.6,22.5,23.7v240.7C428.6,544.8,418.6,555.4,406.2,555.4C406.2,555.4,406.2,555.4,406.2,555.4z"/>
	<path class="st8" d="M279,267.3h-29.9c-12.4,0-22.5,10.6-22.5,23.7v240.7c0,13.1,10.1,23.7,22.5,23.7h157.1
		c8.1,0,15.5-4.5,19.5-11.9C284.4,496.8,279,335.7,279,267.3z"/>
	<path class="st11" d="M239.2,426.5h-31.7c-7.5,0-13.5,6.4-13.5,14.3c0,7.9,6.1,14.2,13.5,14.2h31.7c7.5,0,13.5-6.4,13.5-14.3
		C252.8,432.9,246.7,426.5,239.2,426.5z M239.2,367.8h-31.7c-7.5,0-13.5,6.4-13.5,14.3c0,7.9,6.1,14.2,13.5,14.2h31.7
		c7.5,0,13.5-6.4,13.5-14.3C252.8,374.2,246.7,367.8,239.2,367.8z M239.2,309.1h-31.7c-7.5,0-13.5,6.4-13.5,14.3
		c0,7.9,6.1,14.2,13.5,14.2h31.7c7.5,0,13.5-6.4,13.5-14.3C252.8,315.5,246.7,309.1,239.2,309.1z M239.2,513.7h-31.7
		c-7.5,0-13.5-6.4-13.5-14.3c0-7.9,6.1-14.2,13.5-14.2h31.7c7.5,0,13.5,6.4,13.5,14.3S246.7,513.7,239.2,513.7L239.2,513.7z"/>
	<path class="st12" d="M428.6,461.4c-24,32.7-56.9,45.5-106.3,39.4c-47.1-5.8-56.7,30.2-54.5,54.7h138.3c12.4,0,22.5-10.6,22.5-23.7
		V461.4z"/>
	<path class="st9" d="M271,343c0,8.8,8.4,15.8,18.8,15.8c10.4,0,18.8-7,18.8-15.7l0,0c0-8.8-8.4-15.8-18.8-15.8S271,334.3,271,343z"
		/>
	<path class="st9" d="M372.8,343c0,8.8,8.4,15.8,18.8,15.8c10.4,0,18.8-7.1,18.8-15.8c0-8.7-8.4-15.8-18.8-15.8
		S372.8,334.3,372.8,343z"/>
	<path class="st11" d="M309.7,330.1c-2.2,0-4.1-1.9-4.1-4.3l0,0l0,0c0.4-2.8-1.5-5.4-4.2-5.8s-5.1,1.6-5.5,4.4
		c-0.1,0.4-0.1,0.9,0,1.3c0,2.4-1.8,4.3-4.1,4.3s-4.1-1.9-4.1-4.3c-0.2-7.6,5.4-13.9,12.6-14.1c7.2-0.2,13.2,5.7,13.4,13.2
		c0,0.3,0,0.6,0,0.9C313.8,328.2,312,330.1,309.7,330.1C309.7,330.1,309.7,330.1,309.7,330.1z M389.6,330.1c-2.2,0-4.1-1.9-4.1-4.3
		l0,0c0-2.8-2.2-5.1-4.9-5.1c-2.7,0-4.9,2.3-4.9,5.1c0,2.4-1.8,4.3-4.1,4.3s-4.1-1.9-4.1-4.3c0-7.6,5.8-13.7,13-13.7
		c7.2,0,13,6.1,13,13.7C393.7,328.2,391.9,330.1,389.6,330.1C389.6,330.1,389.6,330.1,389.6,330.1z M340.7,345.7
		c-4.8,0-9.4-2.2-12.5-6c-1.5-1.8-1.3-4.5,0.4-6l0,0c1.7-1.6,4.2-1.4,5.7,0.4c0,0,0,0,0,0l0,0c3.1,3.7,8.4,4.1,12,0.9
		c0.3-0.3,0.6-0.6,0.9-0.9c1.5-1.8,4-2,5.7-0.4c0,0,0,0,0,0l0,0c1.7,1.5,1.9,4.2,0.4,6C350.1,343.5,345.5,345.7,340.7,345.7z"/>
	<path class="st13" d="M408,555.3l1-0.1h0.4c0.5,0,0.9-0.1,1.4-0.2l0,0c0.4-0.1,0.8-0.2,1.3-0.3l0.3-0.1l1-0.3l0.3-0.1
		c0.4-0.2,0.9-0.3,1.3-0.5l0,0l1.2-0.6l0.2-0.1c0.4-0.2,0.7-0.4,1.1-0.6l0.1-0.1c0.8-0.5,1.6-1.1,2.3-1.7l0.1-0.1
		c1.1-0.9,2.2-2,3.1-3.1l0,0c0.9-1.2,1.8-2.4,2.5-3.7c-29.1-9.6-52.4-24.1-71.1-41.6c-10.8,0.6-21.5,0.2-32.2-1.2
		c-47.1-5.8-56.7,30.2-54.5,54.7h138.3c0.5,0,0.9,0,1.4,0h0.4L408,555.3z"/>
	<path class="st9" d="M334,381.8l8.8,2.1l-3.5,13.4c2.4,0.5,4.7,1,7.1,1.6l3.5-13.3l8.8,2.1l-3.6,13.7c11.1,3.6,19.3,9,17.6,19.1
		c-1.1,7.4-5.5,10.9-11.2,12.2c7.9,3.9,11.9,9.8,8.1,20.2c-4.8,12.8-16.1,13.9-31.1,11.2l-3.7,13.8l-8.8-2.1l3.6-13.6
		c-2.4-0.5-4.7-1.1-7-1.7l-3.6,13.7l-8.8-2.1l3.6-13.8l-2.5-0.6c-1.2-0.3-2.5-0.6-3.8-0.9l-11.5-2.7l4.4-9.5c0,0,6.5,1.6,6.4,1.5
		c1.6,0.6,3.4-0.3,4-2l5.8-21.8l0.6,0.2h0.3c-0.3-0.1-0.6-0.2-0.9-0.3l4.2-15.5c0.1-1.8-0.5-4-4.2-4.8c0.1-0.1-6.4-1.5-6.4-1.5
		l2.3-8.9l12.1,2.9l0,0c1.8,0.4,3.7,0.8,5.6,1.2L334,381.8L334,381.8z M330.3,432l-4.8,18.3l1.7,0.4l0.5,0.1
		c7.4,1.8,22.5,5.4,24.9-3.9c2.6-9.7-12.7-12.9-20.1-14.5l-0.6-0.1L330.3,432L330.3,432z M336.8,407l-4.3,16.6l0.4,0.1l1,0.3
		c6,1.5,19.1,4.8,21.3-3.8s-10.4-11.5-16.6-12.7L336.8,407z"/>
</g>
</svg>
