<svg version="1.1" id="图层_1" xmlns="http://www.w3.org/2000/svg" x="0" y="0" viewBox="0 0 600 250" style="enable-background:new 0 0 600 250" xml:space="preserve"><style>.st0{fill:#1b3397}</style><path class="st0" d="m101.3 210.9 3.1 12.1c.7 2.6 1.3 5.1 1.8 7.6h.2c.6-2.5 1.3-5 2.1-7.6l3.9-12.2h3.7l3.7 11.9c.9 2.8 1.6 5.4 2.1 7.8h.2c.4-2.5 1-4.9 1.8-7.8l3.4-12h4.3l-7.7 23.9h-4l-3.6-11.2c-.9-2.6-1.5-5-2.1-7.8h-.2c-.6 2.8-1.3 5.3-2.2 7.9l-3.9 11.3h-4l-7.2-23.9h4.6zm51.9 12.7c.1 5.9 3.9 8.3 8.2 8.3 3.1 0 5-.6 6.6-1.2l.8 3.1c-1.5.7-4.2 1.5-7.9 1.5-7.4 0-11.7-4.8-11.7-12s4.3-12.9 11.2-12.9c7.8 0 9.8 6.9 9.8 11.2 0 .9-.1 1.6-.2 2 .1.1-16.8 0-16.8 0zm12.8-3.1c.1-2.7-1.1-7.1-6-7.1-4.3 0-6.3 4.1-6.6 7.1H166zm24.9 14.3c.1-1.6.2-4.1.2-6.1v-28.9h4.3v15h.1c1.5-2.6 4.3-4.3 8.1-4.3 6 0 10.1 4.9 10 12.2 0 8.5-5.4 12.8-10.7 12.8-3.5 0-6.2-1.3-8-4.5h-.2l-.2 4-3.6-.2zm4.5-9.6c0 .6.1 1 .2 1.6.9 3 3.4 5.1 6.5 5.1 4.5 0 7.3-3.7 7.3-9.2 0-4.8-2.5-8.9-7.1-8.9-2.9 0-5.8 2-6.6 5.3-.1.5-.3 1-.3 1.8v4.3zm65.2-25.5h4.3v14.9h.1c.7-1.2 1.8-2.4 3.1-3 1.3-.8 2.8-1.2 4.4-1.2 3.2 0 8.3 2 8.3 10.2v14.2h-4.3v-13.7c0-3.9-1.4-7.1-5.5-7.1-2.8 0-5 2-5.9 4.3-.3.6-.3 1.2-.3 2.1v14.4h-4.3v-35.1zm64.5 22.9c0 8.8-6.1 12.7-11.9 12.7-6.4 0-11.4-4.7-11.4-12.3 0-8 5.2-12.7 11.8-12.7 6.9 0 11.5 5 11.5 12.3m-18.9.3c0 5.2 3 9.2 7.3 9.2 4.2 0 7.3-3.9 7.3-9.3 0-4.1-2-9.2-7.2-9.2s-7.4 4.7-7.4 9.3m39.3 7.4c1.3.8 3.6 1.7 5.8 1.7 3.1 0 4.6-1.6 4.6-3.6 0-2.1-1.2-3.2-4.4-4.3-4.3-1.5-6.3-3.9-6.3-6.8 0-3.9 3.1-7 8.2-7 2.5 0 4.5.7 5.9 1.5l-1 3.1c-.9-.6-2.6-1.4-4.9-1.4-2.6 0-4 1.5-4 3.2 0 2 1.4 2.8 4.5 4.1 4.2 1.6 6.2 3.7 6.2 7.2 0 4.2-3.2 7.2-8.9 7.2-2.6 0-5-.7-6.7-1.6l1-3.3zm40.8-26.2v6.9h6.2v3.3h-6.2v12.9c0 2.9.9 4.6 3.2 4.6 1.1 0 2-.2 2.6-.3l.2 3.2c-.8.4-2.2.6-3.9.6-2 0-3.7-.7-4.7-1.8-1.2-1.3-1.7-3.4-1.7-6.2v-13h-3.7V211h3.7v-5.8l4.3-1.1zm31.5.1c.1 1.5-1 2.6-2.7 2.6-1.5 0-2.6-1.2-2.6-2.6 0-1.5 1.1-2.7 2.7-2.7 1.6-.1 2.6 1.2 2.6 2.7m-4.8 6.7h4.3v23.9H413v-23.9zm27 6.5c0-2.5-.1-4.5-.2-6.4h3.9l.3 4h.1c1.2-2.3 4-4.5 7.9-4.5 3.3 0 8.4 2 8.4 10.2V235h-4.3v-13.8c0-3.9-1.4-7.1-5.5-7.1-2.8 0-5.1 2-5.9 4.4-.2.6-.3 1.3-.3 2v14.4h-4.3l-.1-17.5zm63.5-6.5c-.1 1.7-.2 3.7-.2 6.5v13.9c0 5.5-1 8.8-3.4 10.9-2.4 2.2-5.7 2.8-8.7 2.8-2.8 0-6-.7-7.9-2l1-3.3c1.6.9 4.1 1.9 7 1.9 4.4 0 7.7-2.4 7.7-8.3v-2.6h-.1c-1.3 2.3-3.9 4-7.6 4-6 0-10.2-5-10.2-11.6 0-8.1 5.3-12.7 10.8-12.7 4.2 0 6.4 2.2 7.5 4.2h.1l.2-3.6 3.8-.1zm-4.6 9.4c0-.8-.1-1.4-.3-2-.8-2.6-2.9-4.6-6-4.6-4.2 0-7.1 3.5-7.1 9.1 0 4.7 2.4 8.6 7.1 8.6 2.6 0 5.1-1.7 6-4.4.3-.8.4-1.6.4-2.4l-.1-4.3zm-304.2-53.8c0 13.9-10.1 20.9-30.3 20.9h-36.3c-7.8 0-14.5-1.5-20.1-4.4-7.7-3.8-11.4-9-11.4-15.7v-8.8c0-7.3 3.6-12.7 10.9-16.3 5.4-2.8 12.1-4.2 20.2-4.2h52.5c-.8-4.9-7.5-7.3-20.1-7.3h-1.9c-.8 0-28.7.1-29.7.1 0 .1-.3.1-.7.1h-3.6c-3.7 0-5.5-2.4-5.5-7.2 0-3.8 1.8-5.8 5.5-5.8 11.8 0 48.1.9 54.4 2.6 10.8 3.1 16.2 9.5 16.2 18.8l-.1 27.2zm-14.5-3.6v-2.6c0-1-.1-2.2-.1-3.6-.1-1.3-.1-2.6-.1-3.6v-2.6h-52.7c-3.1 0-6.2.6-9.5 1.7-4.3 1.5-6.4 3.4-6.4 5.9v8.8c0 2.6 2.2 4.5 6.6 5.9 2.8 1 6 1.6 9.7 1.6h36.9c5.6 0 9.4-.6 11.3-1.7 2.9-1.3 4.3-4.6 4.3-9.8m118.7 18.8c0 3.8-2.3 5.8-6.9 5.8h-54.9c-10.6 0-18.1-1-22.8-3.1-7.9-3.3-11.9-9.3-11.9-17.9V139c0-14.1 10.6-21.1 31.7-21.1h58.8c3.9 0 5.8 2.2 5.8 6.4 0 4.3-1.9 6.4-5.8 6.4h-57.8c-11.9 0-17.9 2.6-17.9 7.8v27.1c0 5.9 6.8 8.8 20.3 8.8h55.8c3.7.2 5.6 2.5 5.6 7.3m101.9 0c0 3.8-2.3 5.8-6.9 5.8H339c-10.6 0-18.1-1-22.8-3.1-7.9-3.3-11.9-9.3-11.9-17.9V139c0-14.1 10.6-21.1 31.7-21.1h58.8c3.9 0 5.8 2.2 5.8 6.4 0 4.3-1.9 6.4-5.8 6.4H337c-11.9 0-17.9 2.6-17.9 7.8v27.1c0 5.9 6.8 8.8 20.3 8.8h55.8c3.8.2 5.6 2.5 5.6 7.3m102.3-15.1c0 14-14.4 20.9-43 20.9H457c-1.2 0-2.7-.1-4.4-.1 0-.1-.2-.1-.6-.1h-7c-24.1 0-36.1-6.9-36.1-20.7v-43c0-3.8 1.8-5.8 5.5-5.8s5.8.2 6.4.5c2 .8 2.9 2.5 2.9 5.2v43.1c0 5.3 7.1 7.8 21.3 7.8h22.1c13.9 0 20.9-2.6 20.9-7.7v-43.2c0-2.7 1-4.4 3-5.2.6-.4 2.7-.5 6.4-.5s5.6 1.9 5.6 5.8l.1 43zM361.6 73.2c-1.8-9.8-9.6-18.8-25.4-19.1-.4-6.7-6-12-12.8-12-2.6 0-5 .8-7 2.1C310.6 34.5 300 28 287.9 28c-16.3 0-29.8 11.7-32.6 27.1-19 1.4-25.5 6.9-28 18.3-2.6 12.4 1.7 26.9 17.9 26.9h94.3c17.5.2 24.1-15.9 22.1-27.1m-99.9 11c-1.7 0-3.1-1.4-3.1-3.1 0-1.7 1.4-3.1 3.1-3.1 1.7 0 3.1 1.4 3.1 3.1.1 1.7-1.3 3.1-3.1 3.1m0-12.3c-1.7 0-3.1-1.4-3.1-3.1s1.4-3.1 3.1-3.1c1.7 0 3.1 1.4 3.1 3.1.1 1.7-1.3 3.1-3.1 3.1m10 11.1c-1.1 0-2-.9-2-2s.9-2 2-2 2 .9 2 2-.9 2-2 2m0-12.2c-1.1 0-2-.9-2-2s.9-2 2-2 2 .9 2 2c0 1-.9 2-2 2m8.5 11.6c-.8 0-1.3-.6-1.3-1.3 0-.8.6-1.3 1.3-1.3s1.3.6 1.3 1.3c0 .7-.5 1.3-1.3 1.3m0-12.3c-.8 0-1.3-.6-1.3-1.3s.6-1.3 1.3-1.3 1.3.6 1.3 1.3c0 .7-.5 1.3-1.3 1.3m47.4 12.2h-37.3c-.7 0-1.3-.6-1.3-1.3 0-.7.6-1.3 1.3-1.3h37.3c.7 0 1.3.6 1.3 1.3.1.8-.5 1.3-1.3 1.3m0-12.3h-37.3c-.7 0-1.3-.6-1.3-1.3 0-.8.6-1.3 1.3-1.3h37.3c.7 0 1.3.6 1.3 1.3.1.8-.5 1.3-1.3 1.3m2.8-37.7v5c6.6 1.6 11.8 6.9 13.5 13.5h5c-.9-4.5-3.1-8.7-6.4-12-3.4-3.5-7.6-5.6-12.1-6.5m21.5-3.1c-3.4-3.4-7.4-6-11.7-7.9-3.2-1.3-6.4-2.2-9.8-2.6v4.9c14.1 2 25.2 13.1 27.2 27.2h4.9c-.4-3.4-1.3-6.7-2.6-9.8-1.9-4.5-4.6-8.4-8-11.8"/><path class="st0" d="M372.4 35.6c-2.6-6-6.1-11.4-10.8-16.1-4.6-4.6-10-8.2-16.1-10.8-4.8-2.1-9.9-3.3-15.1-3.8v4.9c21.6 2.1 38.8 19.3 40.8 40.8h4.9c-.4-5-1.8-10.2-3.7-15"/></svg>