<svg version="1.1" id="图层_1" xmlns="http://www.w3.org/2000/svg" x="0" y="0" viewBox="0 0 150 50" style="enable-background:new 0 0 150 50" xml:space="preserve"><style>.st1{fill:#18ba1a}</style><path d="M2.5 15.5v19H7v-7.9h5.7v-3.4H6.8v-4.7h6.5v-3.1H2.5v.1z"/><path d="M20.7 34.5c4.1 0 7.4-3 7.4-6.8s-3.3-6.8-7.4-6.8-7.4 3-7.4 6.8 3.3 6.8 7.4 6.8zm0-2.8c1.6 0 3-1.8 3-4s-1.3-4-3-4c-1.6 0-3 1.8-3 4s1.4 4 3 4zm9.2-10.3v13.1H34v-7.9c1.2-1.8 3.5-1.9 4.4-1.9v-3.2c-2.6 0-3.7.6-4.4 1.5v-1.5h-4.1v-.1zm20.9 7.7c0-4.1-1.8-7.7-6.3-7.7-4.6 0-6.1 4.2-6.1 6.6s.5 6.5 6.2 6.5c1 0 3.5 0 4.9-1.1v-2.8c-2.6 1.2-7.6 1.5-7.6-1.6l8.9.1zM42 26.8c0-1.6 1.2-2.8 2.7-2.8s2.7 1.3 2.7 2.8H42z" style="fill-rule:evenodd;clip-rule:evenodd"/><path d="m54.9 28.1-4.4-6.7h4.6l2.6 4.6 2.5-4.6h4.5l-4.3 6.7 4.3 6.4h-4.5l-2.5-4.1-2.6 4.1h-4.6l4.4-6.4z"/><path class="st1" d="m72.1 34.5-6.3-19h4.4l4.4 13.4 4.2-13.4h4.1l-6.2 19h-4.6z"/><path d="M84 15.5v19h4.5v-6.6c3.1.3 8.6-.6 8.5-6.5s-4.5-5.9-8.5-5.9H84zm4.5 9v-5.8c1.8-.3 4.6.1 4.6 2.8.1 2.9-2.8 3.2-4.6 3z" style="fill-rule:evenodd;clip-rule:evenodd;fill:#18ba1a"/><path class="st1" d="M104.6 34.5c-1.3 0-2.5-.2-3.7-.5-1.2-.4-2.1-.9-2.9-1.5l1.4-3.8c.7.5 1.5 1 2.4 1.3s1.8.5 2.7.5c1.7 0 2.5-.5 2.5-1.5 0-.5-.2-.9-.7-1.1-.5-.3-1.2-.5-2.3-.8-1.2-.3-2.1-.6-2.9-.9s-1.5-.9-2-1.6c-.6-.7-.8-1.8-.8-3 0-1.1.3-2.1.8-3s1.3-1.6 2.3-2.1c1-.5 2.3-.8 3.8-.8 1 0 2 .1 3 .4s1.9.7 2.6 1.2l-1.4 3.8c-1.5-.9-2.9-1.4-4.3-1.4-.9 0-1.5.2-1.9.5s-.6.7-.6 1.2.2.9.7 1.1 1.2.5 2.3.8c1.2.3 2.2.6 2.9 1 .8.3 1.5.9 2 1.6.6.7.9 1.7.9 3 0 1.1-.3 2.1-.8 3-.5.9-1.3 1.6-2.3 2.1-.9.2-2.2.5-3.7.5z"/><path d="M115.1 34.6c-.5 0-1-.2-1.3-.5s-.5-.7-.5-1.2.2-.9.5-1.2c.3-.3.8-.5 1.3-.5s1 .2 1.3.5.5.7.5 1.2-.2.9-.5 1.2c-.4.4-.8.5-1.3.5zm9.7-10.3c1.2 0 2.1.4 2.8 1.2.7.8 1.1 1.8 1.1 3.1v5.9h-3.1V29c0-.7-.2-1.2-.5-1.6s-.8-.6-1.4-.6-1.1.2-1.4.6-.5.9-.5 1.6v5.5h-3.1v-10h3.1v1.3c.3-.4.7-.8 1.3-1 .5-.3 1.1-.5 1.7-.5zm15.5 5c0 .3 0 .6-.1.9h-7c0 .6.2 1.1.6 1.4.4.3.8.5 1.3.5.8 0 1.3-.3 1.6-1h3.3c-.2.7-.5 1.3-.9 1.8s-1 .9-1.6 1.2c-.7.3-1.4.5-2.2.5-1 0-1.9-.2-2.6-.6-.8-.4-1.4-1-1.8-1.8-.4-.8-.6-1.7-.6-2.7s.2-2 .6-2.7c.4-.8 1-1.4 1.8-1.8s1.6-.6 2.6-.6 1.8.2 2.6.6 1.3 1 1.8 1.7c.4.7.6 1.6.6 2.6zm-3.2-.8c0-.5-.2-.9-.5-1.3-.4-.3-.8-.5-1.3-.5s-1 .1-1.3.4-.6.7-.6 1.3h3.7v.1zm10.4 3.4v2.6h-1.6c-1.1 0-2-.3-2.6-.8-.6-.6-.9-1.4-.9-2.7v-4h-1.2v-2.6h1.2V22h3.1v2.4h2V27h-2v4c0 .3.1.5.2.6.1.1.4.2.7.2l1.1.1z"/></svg>