<svg version="1.1" id="图层_1" xmlns="http://www.w3.org/2000/svg" x="0" y="0" viewBox="0 0 1000 380" style="enable-background:new 0 0 1000 380" xml:space="preserve"><style>.st0{fill:#2b85bc}</style><g id="_x23_2b85bcff"><path class="st0" d="M232.8 23.5C279.6.6 336.5-.2 384 21.2c5.2 2.3 10.1 5.2 15.2 7.8 3.1 1.6 6 3.6 9 5.5 6.6 4.3 13.5 8.3 19.3 13.7 4 2.9 7.3 6.7 11 9.9 5.8 5.4 11.3 11.2 16.1 17.4 4.9 6.2 8.8 13.1 13.5 19.4 5.3 9.6 10.2 19.3 14.7 29.3.3.9 1.1 2.5.1 3.1-6.5.4-12.9.9-19.4.8-8.7.1-17.4-.5-26 .2-14.6 17-30.5 32.7-44.8 49.9-9.1-16.9-18.9-33.5-28.2-50.3h-59.1c2-9.6 3.1-19.5 6.7-28.8 2.5-6.4 6.4-12.4 12.1-16.4 6.1-3.9 13.6-5.1 20.8-4.6 7.5.4 14.8 2.2 22.1 3.9 2-10.8 4.2-21.6 6.5-32.4-16.1-5-33.4-7.1-50.1-4-12.2 2.2-24 7.8-32.9 16.4-6.8 6-11.9 13.7-15.5 21.9-6 13.8-8.3 28.8-11 43.5-9.6.3-19.2.3-28.9.3-2.3 11.3-4.8 22.5-6.2 34h28.2c-8.9 42-17.5 84.1-26.4 126.1-1.5 6.4-2.4 13-4.4 19.3-2.3 7.3-5.8 14.4-11.1 20-3.8 4-8.5 7-13.6 8.8-3.6-2.4-7.3-4.8-10.3-8-9.6-7.2-17.5-16.3-24.8-25.7-5.7-6.7-10.2-14.2-15.1-21.4-1.8-3.5-3.6-7.1-5.5-10.6-2.5-4.4-4.2-9.2-6.2-13.8-5.1-12.4-8.9-25.4-11-38.7-5.2-32.5-1.2-66.2 11-96.8 1.8-4.4 3.6-8.8 6-13 2.9-5.3 5.5-10.7 8.8-15.8 2.6-3.7 4.8-7.8 7.7-11.3 1.8-2.1 3.3-4.3 4.9-6.5 3.1-3.4 5.8-7.2 9.1-10.5 4.6-4.9 9.4-9.5 14.5-13.9 2.7-2 4.9-4.6 7.7-6.4 7.3-5.2 14.3-10.7 22.3-14.7 3.7-1.9 8-3.2 12-5.3z"/><path class="st0" d="M413.1 209.7c23.1-26 47.7-50.6 70.4-76.9 8.2 19.2 11.8 40.1 11.4 60.9-.5 24.9-6.5 49.6-16.8 72.2-1.2 2.7-2.7 5.2-4.1 7.8-2 3.7-3.8 7.4-6 11-1.7 2.7-2.9 5.7-4.8 8.2-2.3 2.8-4.2 6.1-6.8 8.7-6.9 8.7-14.2 17.1-22.6 24.3-3.2 2.6-6.3 5.3-9.3 8.1-3.7 2.5-7.3 5-10.8 7.8-5.2 3.5-10.2 7.4-16 10-8.2 4.1-16.5 8.1-25 11.5-31.1 11-65.3 14.4-97.6 7.4-12.7-2.3-24.6-7.8-37.1-10.7 12.8-7.7 21.2-20.9 26.1-34.8 3.7-10.3 5.2-21.2 7.6-31.8 9-43.5 18.4-87 27.1-130.6H341c8.1 14.2 16.8 28.1 25 42.2-25.7 28.3-52 55.9-76.8 84.9h49.2c15.6-17.8 31.8-35.1 47.1-53.2 10.5 17.7 19.6 36.1 30.5 53.5 14.8-.3 29.6 0 44.3-.3-16.3-26.6-31.2-53.7-47.2-80.2z"/></g><path d="M612.6 124.4h30.5c-16.1 47.1-32.6 94.1-48.5 141.3-2.3 5.4-3.3 11.4-7 16.1-.7.8-1.4 1.9-2.6 2-10.7 1.2-21.6.9-32.1-1.4-18.9-52.4-36.4-105.4-54.8-158h32.8c6.5 22.2 13.5 44.3 20.4 66.3 5.1 16.3 10 32.6 15.2 48.8 1.4 4.2 3.1 8.4 5.5 12.2 3.6-6.3 5.6-13.3 7.9-20.2 10.7-35.7 22-71.3 32.7-107.1zm104.4.4c4.5-.8 9-.2 13.5-.5 10.4-.2 21.5-.7 31 4.3 7 3.7 11.1 10.8 15.2 17.1 9.9-8 19.8-17 32.4-20.3 6-1.7 12.2-.8 18.3-1.1 9-.2 18.5-.6 27.1 2.8 4.9 2 9.1 5.5 12.5 9.5 5.8 7.5 6.3 17.5 6.4 26.6.1 40.3 0 80.6 0 120.9h-28.9V175.7c0-2.3.1-4.7-.2-7-.5-4.1-1.8-8.1-2.7-12.1-2.2-1.5-4.4-2.9-6.6-4.3-1-.8-2.3-.6-3.5-.7-11.2-.5-22.4-.9-33.5 1-6.9 1.2-13.6 3.4-19.6 6.9v124.6h-29.9c-.1-40 .3-79.9-.1-119.9-.5-4.8-3.4-9.5-7.9-11.4-2.7-1.2-5.6-1-8.5-1.2-11.9-.6-24.1-1-35.6 2.5-5.1 1.5-10 3.9-14.4 7.1.7 41 0 82 .3 123h-28.9c-.3-53.2-.3-106.4-.3-159.6H682c0 6.9 0 13.8.3 20.7 6-4.9 11.9-10 18.5-14 5-3.3 10.4-5.6 16.2-6.5z" id="_x23_000000ff"/></svg>