<svg xmlns="http://www.w3.org/2000/svg" viewBox="0 0 250 50" style="enable-background:new 0 0 250 50" xml:space="preserve"><linearGradient id="a" gradientUnits="userSpaceOnUse" x1="-17761.535" y1="679.192" x2="-17710.578" y2="679.192" gradientTransform="scale(-1 1) rotate(-70.001 -9347.676 -12295.739)"><stop offset="0" style="stop-color:#4e51c4"/><stop offset="1" style="stop-color:#2197ff"/></linearGradient><ellipse cx="24.6" cy="25" rx="24.1" ry="24.6" style="fill:url(#a)"/><linearGradient id="b" gradientUnits="userSpaceOnUse" x1="365123" y1="-277278.5" x2="366756.063" y2="-272938.844" gradientTransform="matrix(.0194 0 0 -.0193 -7068.645 -5278.833)"><stop offset="0" style="stop-color:#e2e3f3"/><stop offset=".396" style="stop-color:#ebebfb"/><stop offset=".69" style="stop-color:#eeeefe"/><stop offset="1" style="stop-color:#eeeefe"/></linearGradient><path d="M33.9 12.6c-10.4 3.7-13.5 29.7-13.5 29.7s-.2 1.2.6 1.2c0 0 .9.2 1.1-1v-.2c.3-1.6 4.7-23.3 14.6-23.7 1.7-.1 3.3.3 4.8 1h.1c.4.3.9.2 1.3-.1.1-.1.2-.2.2-.3.3-.5.5-.9.2-2-.1.2-1.9-6.9-9.4-4.6z" style="fill:url(#b)"/><linearGradient id="c" gradientUnits="userSpaceOnUse" x1="434017.5" y1="317976.469" x2="432713.938" y2="314694.5" gradientTransform="translate(-7090.545 -5500.254) scale(.0168)"><stop offset=".324" style="stop-color:#eeeefe"/><stop offset=".723" style="stop-color:#d2d4e5"/><stop offset=".801" style="stop-color:#b0b5c6"/><stop offset=".972" style="stop-color:#5a6579"/><stop offset=".989" style="stop-color:#515d71"/></linearGradient><path d="M22.2 42.2c6.2-37.8 19.4-22.5 19.4-22.5-1-.5-2.1-.9-3.2-1-2.6-.3-5.7.3-8.9 4.8 0 0-3.7 4.5-6.2 14.2l-1.1 4.5z" style="fill:url(#c)"/><linearGradient id="d" gradientUnits="userSpaceOnUse" x1="365411.094" y1="-276997.125" x2="367324.594" y2="-271912.219" gradientTransform="matrix(.0194 0 0 -.0193 -7068.645 -5278.833)"><stop offset="0" style="stop-color:#e2e3f3"/><stop offset=".396" style="stop-color:#ebebfb"/><stop offset=".69" style="stop-color:#eeeefe"/><stop offset="1" style="stop-color:#eeeefe"/></linearGradient><path d="M38.1 26.8c-5.1-1-11.9 15.1-11.9 15.1-.4.9-.9.7-.9.7-.6-.1-.3-1.1-.3-1.1s4.4-19 11.5-19.7c0 0 4.7-.6 4.8 4.8 0 0 0 1.7-1.4 1-.6-.3-1.2-.6-1.8-.8z" style="fill:url(#d)"/><linearGradient id="e" gradientUnits="userSpaceOnUse" x1="432134.688" y1="321644.781" x2="431128.313" y2="316565.813" gradientTransform="translate(-7091.21 -5501.475) scale(.0168)"><stop offset=".307" style="stop-color:#eeeefe"/><stop offset=".578" style="stop-color:#d2d4e5"/><stop offset=".661" style="stop-color:#b0b5c6"/><stop offset=".843" style="stop-color:#5a6579"/><stop offset=".86" style="stop-color:#515d71"/></linearGradient><path d="M39.8 27.6c-.5-.4-1.1-.7-1.7-.8-5-.9-11.9 15-11.9 15s3.4-11.8 8.7-16.1c0 0 3.3-2.4 4.9 1.9z" style="fill:url(#e)"/><linearGradient id="f" gradientUnits="userSpaceOnUse" x1="364310.313" y1="-277410.688" x2="366399.688" y2="-271858.469" gradientTransform="matrix(.0194 0 0 -.0193 -7068.645 -5278.833)"><stop offset="0" style="stop-color:#e2e3f3"/><stop offset=".396" style="stop-color:#ebebfb"/><stop offset=".69" style="stop-color:#eeeefe"/><stop offset="1" style="stop-color:#eeeefe"/></linearGradient><path d="M32.3 7.7s-2-2.1-5.4-.9c0 0-3.6 1.1-4.8 6.1 0 0-.8 3.3-1.3 6.5-.4 2.2-.9 4.4-1.7 6.6-3 9.3-6.4 9.2-6.4 9.2-2.9 0-4.4-3.9-4.4-3.9-.2-.4-.7-1-1.3-.6-.1.1-.2.2-.3.4-.1.6-.1 1.2 0 1.8 1 6.5 5 7.6 5 7.6 6.2 1.9 8.6-9.3 8.6-9.3 0-.1 3-11.8 7-17.1.9-1.1 2-2.1 3.2-2.9.5-.3 1.9-1.1 2.2-1.3.3-.3.5-1.4-.4-2.2z" style="fill:url(#f)"/><linearGradient id="g" gradientUnits="userSpaceOnUse" x1="422472.469" y1="329492.938" x2="424371.313" y2="329492.938" gradientTransform="translate(-7093.3 -5505.01) scale(.0168)"><stop offset="0" style="stop-color:#eeeefe"/><stop offset=".422" style="stop-color:#c5c8d9"/><stop offset=".763" style="stop-color:#757e91"/></linearGradient><path d="M19.1 25.8c-2.9 8.1-6.4 7.9-6.4 7.9s-2.5.2-4.5-2.5c0 0 1.5 3.9 4.4 3.9 0 0 3.9.2 6.5-9.3z" style="fill:url(#g)"/><linearGradient id="h" gradientUnits="userSpaceOnUse" x1="424242" y1="329137.906" x2="423097.656" y2="328133.875" gradientTransform="translate(-7093.3 -5505.01) scale(.0168)"><stop offset=".324" style="stop-color:#eeeefe"/><stop offset=".595" style="stop-color:#d2d4e5"/><stop offset=".755" style="stop-color:#989eb1"/><stop offset=".912" style="stop-color:#656f83"/><stop offset=".989" style="stop-color:#515d71"/></linearGradient><path d="M21.6 26.4c3.1-22 10.6-16.2 10.6-16.2-.7.4-1.9 1.1-1.9 1.1-1.1.8-2.1 1.7-3 2.7-2.3 2.7-5.7 12.4-5.7 12.4z" style="fill:url(#h)"/><linearGradient id="i" gradientUnits="userSpaceOnUse" x1="151.964" y1="835.064" x2="151.964" y2="882.165" gradientTransform="matrix(1 0 0 -1 0 884)"><stop offset=".146" style="stop-color:#4e51c6"/><stop offset=".726" style="stop-color:#2199ff"/></linearGradient><path d="M99 7.7c-1.2-.8-2.5-1.2-3.9-1.2-1.9 0-3.7.7-5.2 1.9-2.4 2.2-6.2 8-9.1 13.9-3.1.4-6.3.5-9.5.4 2.3-5.3 4.2-10.2 4.2-12 0-3.7-3-4.1-5.7-4-1.4 5.1-3.2 10-5.4 14.8-1.4-.5-2.7-1.3-3.9-2.2-.4.5-.6 1.1-.6 1.8 0 1.8 1.2 3.5 2.9 4-2.4 5.2-5.2 10.2-8.3 14.9 1.3.9 2.8 1.3 4.3 1.3 2.8 0 3.9-1 5.6-4C66 34.3 68.2 30 70 26c3.2 0 6.4-.2 9.6-.6-2 4.6-3.4 9-3.4 12.1 0 3.7 3.5 5.9 6.2 5.9C82.5 31 92.6 13.5 99 7.7zm5.6 11.8c-8.1 0-16.8 8.2-16.8 16.3 0 3.1 1.8 5.3 5.7 5.3 9.5 0 16.3-11.1 16.3-17.1.1-3.3-2-4.5-5.2-4.5zm-7.9 17.3h-.1c-.7-.1-1.2-.7-1.2-1.4v-.2c0-5.4 6.2-12.7 9.6-12.7.9 0 1.3.5 1.3 1.5-.1 4.4-5 12.8-9.6 12.8zm25.9-17.5c-5.9 0-10.9 4.9-10.9 8.1s2.3 5.7 2.3 7.7c.2 1.7-1.1 3.3-2.8 3.5h-.3c-1.3 0-2.3-.9-2.7-2.2-1.1.3-1.9 1.3-2 2.4 0 1.3 1.3 2.2 4 2.2 5.7 0 10.1-4 10.1-7.1s-1.9-5.3-1.9-7.7 1.3-4.4 3.4-4.4c1.2 0 2.3.9 2.7 2.1 1.1-.2 2-1.2 2-2.4.1-1.2-1-2.2-3.9-2.2zm19.4 3.6c1.4 0 2.6-1.1 2.7-2.6h-4.8c1.4-1.9 2.9-3.8 4.7-5.4-2.6-1.6-6-1.3-8.3.8-1.3 1.4-2.4 3-3.4 4.6h-2.3c-1.4 0-2.6 1.1-2.7 2.6h3.4c-2.3 4.2-4.3 8.4-4.3 12.6s2.9 6 5.7 5.9c-.4-5.1 2.4-12.7 5.7-18.5h3.6zm30.9-4.1c-1.5 5.4-6.9 17.4-10.9 17.4h-.1c-.4-.1-.6-.5-.6-.9 0-3.1 4.5-10.3 4.5-12.7s-2.3-3.2-4.9-3.3c-2.3 6-9.8 16.6-12.6 16.6h-.3c-.4-.1-.6-.5-.5-.9.1-3.2 3.5-9.9 7.4-14.7-1-.7-2.1-1.1-3.3-1-2.1-.2-4.1.6-5.6 2.2-3.7 4.1-6.2 12.2-6.2 16.3 0 1.7.6 3.1 2.9 3.1 5.1 0 9.6-5.1 12.9-9-.7 1.6-1.2 3.4-1.3 5.1 0 2.1 1 3.7 3.2 3.7 8.6 0 18.2-14 18.2-18.6-.1-1.7-1.3-3.1-2.8-3.3zm7.4 1.1c-2 5.1-7.4 12.1-7.4 17 0 3 2.3 5.4 5.2 5.5v-.5c0-7.8 7.6-13.9 7.6-18.1-.1-3.6-3.4-3.9-5.4-3.9zm25.5-.1h-.3c-3.8 0-7.1 2.8-10.4 6 .7-.9 1.1-2.1 1.3-3.2 0-3.2-3.2-3.3-5.1-3.3-1.8 7.2-8 12.9-8 17.4v.1c.1 2.2 2 4 4.2 3.9h.1c3-8.1 10.7-16.3 13.3-16.3.4 0 .7.4.6.8 0 2.7-4.7 8.7-4.7 12.1-.2 2.8 1.9 5.2 4.6 5.4h.4c1.3-8 6.8-13.6 6.8-19.4.2-1.9-1.1-3.4-2.8-3.5zm37.4-12s-.8-1-3.2-1c-4.8 0-8 4.6-12.2 12.7h-1.3c-10.9 0-18.9 9-18.9 16.8 0 2.8 1.5 4.4 3.8 4.4 4.8 0 9-5.5 10-6.7-.2.5-.2 1-.1 1.5 0 3.5 1.8 6.3 5.2 6.3.3-11.7 10-28 16.7-34zm-27.4 27.7c-.4 0-.8-.4-.8-1 0-3.9 4.7-12.3 10.7-12.3l1 .1c-2.6 4.3-7.6 13.2-10.9 13.2zm29.7-16.2c-5.9 0-10.9 4.9-10.9 8.1s2.1 5.7 2.1 7.7-1.1 3.5-2.9 3.5c-1.3 0-2.3-.9-2.7-2.2-1.1.3-1.9 1.3-2 2.4 0 1.3 1.1 2.2 4 2.2 5.7 0 10.1-4 10.1-7.1s-1.9-5.3-1.9-7.7 1.3-4.4 3.4-4.4c1.2 0 2.3.9 2.7 2.1 1.1-.2 2-1.2 2-2.4.2-1.2-1-2.2-3.9-2.2zm-60.1-1.2c1.9 0 3.4-1.6 3.4-3.5s-1.5-3.5-3.4-3.5-3.4 1.6-3.4 3.5c-.1 2 1.5 3.5 3.4 3.5z" style="fill:url(#i)"/></svg>