<svg version="1.1" id="图层_1" xmlns="http://www.w3.org/2000/svg" x="0" y="0" viewBox="0 0 450 120" style="enable-background:new 0 0 450 120" xml:space="preserve"><style>.st0{fill:#2a7ac6}</style><g id="_x23_2a7ac6ff"><path class="st0" d="M253.5 22.1c5.1-3.3 10.8-5.4 16.7-6.7-5.4 3.5-10.9 6.8-15.4 11.3-2.3 2.4-4.6 5.1-5.2 8.4-.6 3.2.7 6.3 2.2 8.9 2.9 4.9 7 9 10.7 13.3 3 3.5 5.3 7.7 5.7 12.4.4 4.1-.8 8.2-3.2 11.6-3 4.3-7.3 7.4-11.8 9.9-6.1 3.4-12.7 5.9-19.3 8-4.6 1.5-9.3 2.8-13.8 4.4-1 .4-1.9.7-2.9 1 1-.9 2.1-1.8 3.2-2.5 9.7-6.4 20.5-11 30.1-17.6 3.3-2.3 6.5-4.8 8.8-8.1 1.3-1.9 2.1-4.3 1.5-6.6-.7-3-2.7-5.6-4.7-7.9-4.1-4.8-8.2-9.8-10.7-15.6-1.8-4.2-2.5-9.1-1.1-13.5 1.6-4.6 5.2-8.2 9.2-10.7zM23.9 28.9c9.9-4.2 20.6-6 31.3-6.7-9.3 1.4-18.7 3.5-27 7.9-6.7 3.5-12.8 8.6-16.4 15.3-1.4 2.6-2.5 5.4-2.8 8.4-.1 4.5 1.4 8.9 4 12.5 2.9 4.2 6.9 7.5 11.2 10.2 8.9 5.4 19 8.7 29.2 10.8-5.5.1-11-.4-16.4-1.4-7.1-1.3-14-3.8-19.9-8-6.3-4.5-11-11.1-12.8-18.5-1.5-5.6-.4-11.7 2.4-16.7 3.8-6.5 10.4-10.9 17.2-13.8zm63.9-5.4h3.8v8.7h-3.8v-8.7z"/><path class="st0" d="M52.8 31.4c7.7-2.8 15.9-4.2 24.1-4.6-7.1 1-14.2 2.5-20.8 5.5-6.4 2.9-12.3 7.2-16 13.3-1.4 2.5-2.6 5.1-2.9 8-.1 4.4 1.6 8.8 4.4 12.2 3.3 4.1 7.8 7.2 12.5 9.6 6.7 3.4 14 5.6 21.4 7.1-6.8 0-13.7-.7-20.2-2.7-6.7-2.1-13.1-5.8-17.4-11.5-2.8-3.7-4.6-8.1-5.1-12.7-.5-5.2 1.4-10.6 4.9-14.6 4-4.6 9.5-7.5 15.1-9.6z"/></g><path d="M151.4 24.5c1.2-.5 2.5-1 3.7-1.5v14.2h11v4h-11V74c.1 2.4.2 4.8 1.3 7 .8 1.6 2.6 2.4 4.3 2.4 2 .1 3.8-.7 5.4-1.7v4.1c-2.2 1.2-4.7 1.9-7.2 1.5-2.3-.3-4.4-1.6-5.6-3.6-1.7-2.8-2-6.1-2-9.3V41.3h-7.5v-4h7.5c.1-4.3.1-8.5.1-12.8zm-35.1 13.1c3.4-1.7 7.5-2 11.1-.9 3.5 1.1 6.1 4 7.5 7.4 2.1 4.8 2.2 10.1 2.1 15.3v27.1h-3.8V57c-.1-4.1-.5-8.4-2.5-12.1-1.2-2.3-3.4-4.1-6-4.6-3.6-.7-7.6.2-10.3 2.8-4 3.7-5.8 9.2-5.9 14.6v28.8h-3.7V37.3h3.7v9.1c1.9-3.5 4.2-7 7.8-8.8zm67.7-.3c3.9-1.6 8.5-1.7 12.4.1 3.4 1.5 5.8 4.7 7.3 8.1 2.3 5.2 2.7 11 2.6 16.7h-31c0 6 1 12.5 5.1 17.2 2.5 3 6.4 4.5 10.3 4.3 5-.1 9.6-2.8 13.2-6.1v4.7c-3.9 3.3-8.8 5.3-13.9 5.4-4.2.2-8.5-1.3-11.5-4.4-4.2-4.1-6.1-9.9-6.7-15.6-.8-6.9-.4-14.1 2.6-20.4 2-4.2 5.2-8.2 9.6-10m-2.3 6c-4.1 3.7-5.6 9.4-6.2 14.7h26.9c-.2-5.1-1.1-10.7-4.6-14.7-4.1-4.4-11.8-4.1-16.1 0zm103.7-5.6c3.8-1.9 8.4-2.1 12.4-.7 3.5 1.3 6.2 4.3 7.8 7.6 2.7 5.4 3.1 11.6 3 17.5h-31c0 5.5.8 11.2 4 15.8 2 3.1 5.4 5.3 9.1 5.6 5.3.6 10.5-1.6 14.5-5 .4-.3.8-.8 1.3-1-.3 1.6-.1 3.2-.2 4.8-3.8 3.2-8.5 5.2-13.5 5.4-4.2.3-8.5-1.1-11.6-4-4.2-3.9-6.3-9.6-7-15.2-.9-6.9-.6-14.2 2.3-20.6 1.9-4.2 4.8-8.1 8.9-10.2m-1.4 5.6c-4.1 3.7-5.6 9.4-6.2 14.8h26.9c-.2-5.1-1.1-10.7-4.6-14.7-4.1-4.5-11.8-4.2-16.1-.1zm108.6-5.4c3.8-2.1 8.5-2.4 12.7-1 3.5 1.2 6.2 4.1 7.9 7.4 2.8 5.5 3.2 11.8 3.2 17.8h-30.9c0 6 1 12.4 5 17.1 2.4 3 6.3 4.6 10.1 4.5 5.1 0 9.9-2.7 13.6-6.1v4.7c-5 4.2-11.8 6.4-18.3 5-4.4-.9-8-4.1-10.3-7.9-2.9-4.8-3.8-10.4-3.9-15.9-.2-5.6.6-11.4 3.1-16.5 1.6-3.7 4.2-7.1 7.8-9.1m-.9 5.4c-4.1 3.7-5.6 9.4-6.2 14.7h26.9c-.2-5.2-1.1-10.7-4.7-14.7-4-4.4-11.7-4.1-16 0zm-165.5-4.8c2.8-2.3 6.9-2.7 10.2-1.3v4.7c-2.4-1.9-6-2-8.5-.3-2.7 1.8-4.3 4.7-5.4 7.6-2.2 5.9-2.1 12.4-2.1 18.6v18.8h-3.7V37.4h3.7c0 3.7-.1 7.4 0 11.1 1.1-3.8 2.7-7.6 5.8-10zm102.3-.1c2.8-2.3 6.9-2.7 10.2-1.2v4.7c-2.3-1.8-5.6-2-8.1-.6s-4.2 4-5.4 6.6c-2.2 5-2.6 10.5-2.6 15.8v22.8h-3.7V37.3h3.7c0 3.7-.1 7.4.1 11.1 1.1-3.8 2.7-7.6 5.8-10zM438.7 37c2.5-1 5.3-.9 7.7.2v4.7c-1.9-1.5-4.7-2-7-1.1-2.8 1-4.6 3.5-6 6-2.4 4.8-3 10.3-3.1 15.6v24.1h-3.7V37.3h3.7c0 3.7-.1 7.4 0 11.1.7-2.2 1.4-4.4 2.6-6.3 1.5-2.2 3.4-4.1 5.8-5.1zm-350.9.3h3.8v49.2h-3.8V37.3zm252.9 0h4.2c4.1 13 8.3 26 12.4 39 .6 1.8 1 3.7 1.4 5.5.7-3.9 2.1-7.5 3.2-11.2 3.6-11.1 7.3-22.2 10.9-33.2h4.1c-5.5 16.4-11.1 32.8-16.6 49.2h-3.4c-5.4-16.5-10.8-32.9-16.2-49.3z" style="fill:#2d2d2d" id="_x23_2d2d2dff"/></svg>