<svg xmlns="http://www.w3.org/2000/svg" fill="none" viewBox="0 0 110 110" height="110" width="110"><mask height="110" width="110" y="0" x="0" maskUnits="userSpaceOnUse" style="mask-type:alpha" id="a"><path fill="#C4C4C4" d="M0 0h110v110H0z"/></mask><g mask="url(#a)"><path fill="#FAB5A3" d="M41.212 89.776s.726 4.27.642 5.935c-1.322 1.331-8.884 3.377-8.155 3.62 2.236.744 10.097 6.586 16.213 6.482 6.648-.112 12.799-6.405 14.124-6.842.47-.155-5.536-1.471-6.005-3.26-.693-.331 0-5.935 0-5.935H41.212z" clip-rule="evenodd" fill-rule="evenodd"/><mask height="17" width="32" y="89" x="33" maskUnits="userSpaceOnUse" style="mask-type:alpha" id="b"><path fill="#fff" d="M41.212 89.776s.726 4.27.642 5.935c-1.322 1.331-8.884 3.377-8.155 3.62 2.236.744 10.097 6.586 16.213 6.482 6.648-.112 12.799-6.405 14.124-6.842.47-.155-6.005-1.971-6.005-3.26-1.031-1.211 0-5.935 0-5.935H41.212z" clip-rule="evenodd" fill-rule="evenodd"/></mask><g mask="url(#b)" clip-rule="evenodd" fill-rule="evenodd"><path fill="#fff" d="M42.091 99.511s7.649 1.935 16.34-.26c11.212-1.734-8.57 9.505-8.788 9.414-.219-.09-10.355-2.767-10.252-3.119.103-.353 2.7-6.035 2.7-6.035z"/><path fill="#E89A85" d="M38.257 87.98s7.184 7.38 19.7 7.981c9.915 1.047 2.552-11.441 2.584-11.392.033.05-22.284 3.411-22.284 3.411z" opacity=".349" style="mix-blend-mode:multiply"/></g><path fill="#FF5A5A" d="m37.202 97.9 1.993-.704s7.462 3.48 10.254 5.45c3.035-2.086 10.397-5.45 10.397-5.45l3.035.955-9.436 8.435-12.342-.302-3.901-8.384z" clip-rule="evenodd" fill-rule="evenodd"/><path fill="#5A6ED5" d="M37.202 97.9s-12.792 2.03-15.357 2.844c-.168.053-.616.418-.76.465-1.464.479-3.281.711-4.002 1.022-5.738 2.214-7.083 7.963-7.083 7.963h80s-.524-5.538-6.348-7.792c-.975-.377-2.986-.913-4.346-1.362-.14-.046-.257-.261-.415-.312-2.868-.92-17.12-2.976-17.12-2.976s-10.343 7.066-12.262 8.702c-2.306-1.902-12.307-8.554-12.307-8.554z" clip-rule="evenodd" fill-rule="evenodd"/><mask height="14" width="80" y="97" x="10" maskUnits="userSpaceOnUse" style="mask-type:alpha" id="c"><path fill="#fff" d="M37.202 97.9s-12.792 2.03-15.357 2.844c-.168.053-.616.418-.76.465-1.464.479-3.281.711-4.002 1.022-5.738 2.214-7.083 7.963-7.083 7.963h80s-.524-5.538-6.348-7.792c-.975-.377-2.986-.913-4.346-1.362-.14-.046-.257-.261-.415-.312-2.868-.92-17.12-2.976-17.12-2.976s-10.343 7.066-12.262 8.702c-2.306-1.902-12.307-8.554-12.307-8.554z" clip-rule="evenodd" fill-rule="evenodd"/></mask><g mask="url(#c)" clip-rule="evenodd" fill-rule="evenodd"><path fill="#2D3669" d="M31.455 102.74s4.267 6.083 3.429 11.466c.045 4.502 29.614.397 29.614.397s.805-11.415 3.589-11.903c-2.9-2.171-36.632.04-36.632.04z"/><path fill="#2D3669" d="M51.678 111.054s16.333-9.315 31.744-11.441c8.236 1.027-4.234-2.416-4.234-2.416l-18.846 3.179-10.222 10.678h1.558z" opacity=".395" style="mix-blend-mode:multiply"/><path fill="#2D3669" d="M49.873 112.042s-16.333-9.314-31.744-11.441c-8.236 1.028 4.234-2.416 4.234-2.416l18.846 3.18 10.222 10.677h-1.558z" opacity=".395" style="mix-blend-mode:multiply"/><path fill="#1D2343" d="M19.137 99.984s12.021 2.563 17.245 4.784c5.225 2.221 13.464 6.735 13.464 6.735s6.13-3.91 12.341-6.43c6.211-2.519 17.325-5.512 17.325-5.512l-32.203-8.757-28.172 9.18z"/><path fill="#2D3669" d="m20.002 115.238 1.466-8.004.944 8.004h-2.41zm57.098.712 1.467-8.004.944 8.004H77.1z" opacity=".395" style="mix-blend-mode:multiply"/></g><path fill="#FAB5A3" d="M70.976 56.136s7.462-3.59 11.981 0c4.52 3.59-1.159 14.345-10.292 13.778-9.134-.566-1.689-13.778-1.689-13.778z" clip-rule="evenodd" fill-rule="evenodd"/><path fill="#C26B6B" d="M80.635 57.775a.394.394 0 0 0-.505-.233c-2.949 1.076-4.925 3.432-5.915 7.025a.394.394 0 0 0 .759.207c.453-1.643 1.115-2.997 1.99-4.066a.394.394 0 0 0 .127.044c1.299.213 2.064.76 2.361 1.65a.394.394 0 0 0 .747-.248c-.368-1.1-1.263-1.805-2.632-2.108a7.836 7.836 0 0 1 2.835-1.769.39.39 0 0 0 .233-.502z" clip-rule="evenodd" fill-rule="evenodd"/><path fill="#FAB5A3" d="M28.784 57.27s-7.461-3.59-11.98 0c-4.52 3.591 1.158 14.345 10.292 13.78 9.134-.567 1.688-13.78 1.688-13.78z" clip-rule="evenodd" fill-rule="evenodd"/><path fill="#C26B6B" d="M19.125 58.91a.394.394 0 0 1 .505-.233c2.95 1.076 4.925 3.432 5.916 7.025a.394.394 0 0 1-.759.207c-.453-1.643-1.116-2.997-1.99-4.066a.393.393 0 0 1-.128.044c-1.298.213-2.063.76-2.36 1.65a.394.394 0 0 1-.747-.248c.368-1.1 1.263-1.805 2.632-2.108a7.835 7.835 0 0 0-2.835-1.769.39.39 0 0 1-.234-.502z" clip-rule="evenodd" fill-rule="evenodd"/><path fill="#FFD4C6" d="M22.217 47.003c-1.808-14.67 8.955-27.896 23.686-29.107l2.878-.236c16.104-1.324 29.507 12.201 28.035 28.293l-2.162 23.643c-1.158 12.672-11.823 22.35-24.548 22.274-12.739.076-23.517-9.398-25.075-22.042l-2.814-22.825z" clip-rule="evenodd" fill-rule="evenodd"/><mask height="75" width="55" y="17" x="22" maskUnits="userSpaceOnUse" style="mask-type:alpha" id="d"><path fill="#fff" d="M22.217 47.003c-1.808-14.67 8.955-27.896 23.686-29.107l2.878-.236c16.104-1.324 29.507 12.201 28.035 28.293l-2.162 23.643c-1.158 12.672-11.823 22.35-24.548 22.274-12.739.076-23.517-9.398-25.075-22.042l-2.814-22.825z" clip-rule="evenodd" fill-rule="evenodd"/></mask><g mask="url(#d)"><circle fill="#FFA2A2" r="6.912" cy="76.412" cx="69.132" opacity=".625"/><ellipse fill="#FFA2A2" ry="7.373" rx="8.295" cy="76.873" cx="29.963" opacity=".625"/><path fill="#422E23" d="m44.709 40.929 11.52 2.18s5.07 6.913 13.364 8.756c5.99 0 8.756 6.913 8.756 6.913l2.415-17.85H44.71zm-2.486.921s-3.226 5.685-9.217 8.45c-5.99 2.765-8.19 4.538-9.782 6.457-1.592 1.92-1.942 7.605-1.942 7.605l-3.3-22.511h24.24z" clip-rule="evenodd" fill-rule="evenodd"/><path stroke-linecap="round" stroke-width="1.344" stroke="#DA7B7B" d="M46.185 79.385s1.2.81 3.965.465c2.765-.345 3.812-1.7 3.812-1.7"/><rect fill="#83573D" rx="2.987" height="7.373" width="6.451" y="60.283" x="59.455"/><rect fill="#83573D" rx="2.987" height="7.373" width="6.451" y="60.283" x="33.649"/><path fill="#65422D" d="M57.188 57.395s6.796-1.853 9.338-1.8c-4.368-6.363-9.337 1.8-9.337 1.8zm-15.846 0s-6.796-1.853-9.337-1.8c4.368-6.363 9.337 1.8 9.337 1.8z" clip-rule="evenodd" fill-rule="evenodd"/><path fill="#F28080" d="M49.927 61.211c.302.048.51.341.464.655l-.102.709c-.381 2.664-.625 4.737-.73 6.215l-.014.19c-.052.789-.06 1.39-.03 1.794.01.107.02.197.033.267l.009.048.025.006c.384.074 1.185-.028 2.34-.338l.379-.105c.295-.085.6.094.682.4a.578.578 0 0 1-.385.708c-1.81.522-2.98.652-3.637.328-.888-.438-.696-3.355.334-10.394a.56.56 0 0 1 .562-.489l.07.006z"/></g><path fill="#2D3669" d="M89.161 27.104V51.28h-.563V27.104h.563z"/><path fill="#1D2343" d="M87.189 35.558v10.566s1.15.472 1.726.472c.576 0 1.655-.472 1.655-.472V35.558s-1.197-.442-1.767-.442c-.57 0-1.614.442-1.614.442z" clip-rule="evenodd" fill-rule="evenodd"/><path fill="#5A6ED5" d="m87.715 48.535 2.316-.458s.599 24.191 2.16 27.143c-1.92.91-3.812.901-5.17.353-.131-.053-.205-.856-.246-.954-.049.127-.233.551-.369.64-.541-.216-1.145-1.099-1.145-1.099l2.454-25.625z" clip-rule="evenodd" fill-rule="evenodd"/><mask height="28" width="8" y="48" x="85" maskUnits="userSpaceOnUse" style="mask-type:alpha" id="e"><path fill="#fff" d="m87.715 48.535 2.316-.458s.599 24.191 2.16 27.143c-1.92.91-3.812.901-5.17.353-.131-.053-.205-.856-.246-.954-.049.127-.233.551-.369.64-.541-.216-1.145-1.099-1.145-1.099l2.454-25.625z" clip-rule="evenodd" fill-rule="evenodd"/></mask><g mask="url(#e)" fill="#3E50AE" clip-rule="evenodd" fill-rule="evenodd"><path d="M90.091 48.17s.32 6.948.118 13.365c-.203 6.417-.901 14.377-5.577 17.158-3.687.62 23.9 14.443 23.623 14.228-.277-.215-9.303-44.595-9.303-44.595l-8.861-.156z"/><path d="M85.93 75.28s.874-3.977 1.057-7.427c.213 7.596 0 8.545 0 8.545L85.93 75.28z"/></g><path fill="#141932" d="M49.007 14c-1.959.095-42.598 12.37-43.004 13.603-.407 1.233 43.003 11.022 43.003 11.022s43.606-9.778 42.692-11.247c-3.167-1.954-40.732-13.472-42.69-13.377z" clip-rule="evenodd" fill-rule="evenodd"/><mask height="25" width="86" y="14" x="6" maskUnits="userSpaceOnUse" style="mask-type:alpha" id="f"><path fill="#fff" d="M49.007 14c-1.959.095-42.598 12.37-43.004 13.603-.407 1.233 43.004 11.022 43.004 11.022s43.605-9.778 42.691-11.247c-3.167-1.954-40.732-13.472-42.69-13.377z" clip-rule="evenodd" fill-rule="evenodd"/></mask><g mask="url(#f)" clip-rule="evenodd" fill-rule="evenodd"><path fill="#141932" d="M47.451 15.694s12.84 7.902.47 7.519c-12.368-.383-22.422 3.559-25.665 9.256-3.242 5.697 67.614 8.657 67.614 8.657l11.635-22.67L48.78 12.26l-1.329 3.433z" opacity=".207" style="mix-blend-mode:multiply"/><path fill="#1D2343" d="M7.27 28.486S47.1 15.75 48.858 15.519C50.617 15.29 90.85 28 90.85 28l7.28-5.053L55.047-2.679-.572 20.11l3.97 10.309 3.873-1.934z"/></g><path fill="#141932" d="M22.53 32.389s-2.096 9.702-1.73 16.27c20.93 4.318 45.044 2.551 57.576-1.255-.279-7.412-2.505-15.015-2.505-15.015S61.439 25.48 49.117 25.26c-12.871.385-26.587 7.128-26.587 7.128z" clip-rule="evenodd" fill-rule="evenodd"/><mask height="27" width="59" y="25" x="20" maskUnits="userSpaceOnUse" style="mask-type:alpha" id="g"><path fill="#fff" d="M22.53 32.389s-2.096 9.702-1.73 16.27c20.93 4.318 45.044 2.551 57.576-1.255-.279-7.412-2.505-15.015-2.505-15.015S61.439 25.48 49.117 25.26c-12.871.385-26.587 7.128-26.587 7.128z" clip-rule="evenodd" fill-rule="evenodd"/></mask><g mask="url(#g)"><path fill="#10142A" d="M65.103 28.198s-7.838 2.436-14.29 11.262c-6.451 8.825-39.525 8.524-39.525 8.524s89.331 15.606 89.773 13.999c.442-1.608-15.496-27.596-15.496-28.923 0-1.327-20.462-4.862-20.462-4.862z" clip-rule="evenodd" fill-rule="evenodd" opacity=".22" style="mix-blend-mode:multiply"/></g></g></svg>