<svg xmlns="http://www.w3.org/2000/svg" fill="none" viewBox="0 0 110 110" height="110" width="110"><mask height="110" width="110" y="0" x="0" maskUnits="userSpaceOnUse" style="mask-type:alpha" id="a"><path fill="#C4C4C4" d="M0 0h110v110H0z"/></mask><g mask="url(#a)"><path fill="#203342" d="m66 104 2.5-12.5S62.5 90 55 90s-14 1.5-14 1.5l1.5 13L66 104z"/><path fill="#FFB5A1" d="M45.064 84.95s1.554 8.542-.264 11.27c.96 1.508 5.893 7.002 10.5 7.006 3.839.003 7.293-5.076 9.508-7.598-2.191-1.616-1.19-10.795-1.19-10.795l-18.554.117z" clip-rule="evenodd" fill-rule="evenodd"/><mask height="20" width="21" y="84" x="44" maskUnits="userSpaceOnUse" style="mask-type:alpha" id="b"><path fill="#fff" d="M45.064 84.95s1.554 8.542-.264 11.27c.96 1.508 5.893 7.002 10.5 7.006 3.839.003 7.293-5.076 9.508-7.598-2.191-1.616-1.19-10.795-1.19-10.795l-18.554.117z" clip-rule="evenodd" fill-rule="evenodd"/></mask><g mask="url(#b)"><path fill="#E89A85" d="M45 85.5s8.471 8.861 18.888 6.132c10.416-2.729 2.292-11.076 2.292-11.076L45 85.5z" clip-rule="evenodd" fill-rule="evenodd" opacity=".349" style="mix-blend-mode:multiply"/></g><path fill="#fff" d="M45.5 93 40 96c1.167 4.333 8.756 12.5 16 12.5 8.5 0 10.5-6.833 13-11.5l-5-4c-1.5 2.667-6.5 9-9.5 10-5-3-7.5-7-9-10z"/><mask height="16" width="29" y="93" x="40" maskUnits="userSpaceOnUse" style="mask-type:alpha" id="c"><path fill="#fff" d="M45.5 93 40 96c1.167 4.333 8.756 12.5 16 12.5 8.5 0 10.5-6.833 13-11.5l-5-4c-1.5 2.667-6.5 9-9.5 10-5-3-7.5-7-9-10z"/></mask><g mask="url(#c)"><path fill="#C4C4C4" d="m50.5 106.5 4-4h1l-5 4z"/></g><path fill="#2A5271" d="M41 91.5c-.5.5-8.5 8-8.5 8-4 1.833-10 3.4-16 5S8 117.833 6.5 120H103c0-4-3.3-10.5-6.5-12.5s-15.5-6-21.5-8c0 0-5.5-6.5-6.5-8-.5 2-1 4-1.5 5.456-3.013 4.411-9.2 10.144-12 10.544-2.807-1.203-8.758-5.721-12.5-10-.5-.544-1-4-1.5-6z"/><mask height="29" width="97" y="91" x="6" maskUnits="userSpaceOnUse" style="mask-type:alpha" id="d"><path fill="#1B4A6D" d="M41 91.5c-.5.5-8.5 8-8.5 8-4 1.833-10 3.4-16 5S8 117.833 6.5 120H103c0-4-3.3-10.5-6.5-12.5s-15.5-6-21.5-8c0 0-5.5-6.5-6.5-8-.5 2-1 4-1.5 5.456-3.013 4.411-9.2 10.144-12 10.544-2.807-1.203-8.758-5.721-12.5-10-.5-.544-1-4-1.5-6z"/></mask><g mask="url(#d)" fill="#1C3950"><path d="M56.5 117c13.112-7.5 16-14 17.5-19.5l1.5 1.5c-.167 5.833-7.5 14.5-19 18zm-11-3.5c2-1 3.5-1 9.5-6s0-3.5 0-3.5l-4.5 5-5 4.5z"/><path d="M49.5 115C41.9 111.4 35 101.833 34 98h-.5L32 99c.333 3.167 6.7 11.6 17.5 16z"/></g><path fill="#2A2A2A" d="M31.895 71.412c-7.009-6.074-7.476-26.165-5.607-34.575 1.868-8.41 56.068-1.869 56.068-1.869.779 3.27 1.401 7.009 1.401 18.222 0 7.112-4.671 18.222-7.942 21.026-3.27 2.803-36.911 3.27-43.92-2.804z"/><path fill="#2A2A2A" d="M31.429 75.031c-1.381-3.591.779-11.992 1.87-14.484 3.581-.311 1.672-1.457 0 3.271-2.977 8.41-.468 10.746 0 14.951.363 3.27-2.026 8.878-3.272 11.681 1.09-3.738 3.738-9.344 1.402-15.419z"/><path fill="#FFB5A1" d="M32.386 56.382s-2.687-9.536-9.428-6.753c-6.74 2.783-1.075 15.952 8.097 15.351 9.173-.6 1.331-8.598 1.331-8.598z" clip-rule="evenodd" fill-rule="evenodd"/><path fill="#C26B6B" d="M23.64 54.276c0-.296.24-.536.535-.536 1.953 0 3.724 1.274 5.317 3.744a.535.535 0 1 1-.9.58c-.485-.753-.978-1.372-1.477-1.861-1.08.248-1.603.657-1.693 1.206a.535.535 0 1 1-1.056-.172c.139-.853.738-1.464 1.731-1.845-.63-.39-1.27-.581-1.922-.581a.535.535 0 0 1-.535-.535z" clip-rule="evenodd" fill-rule="evenodd"/><path fill="#FFB5A1" d="M77.388 56.382s2.52-9.536 8.84-6.753c6.319 2.783 1.008 15.952-7.591 15.351-8.6-.6-1.249-8.598-1.249-8.598z" clip-rule="evenodd" fill-rule="evenodd"/><path fill="#C26B6B" d="M84.596 54.907a.504.504 0 0 0-.504-.504c-1.838 0-3.505 1.199-5.004 3.524a.504.504 0 1 0 .847.546c.457-.71.92-1.292 1.39-1.752 1.017.233 1.51.618 1.595 1.135a.504.504 0 1 0 .994-.162c-.131-.803-.695-1.378-1.63-1.736.593-.367 1.196-.547 1.808-.547a.504.504 0 0 0 .504-.504z" clip-rule="evenodd" fill-rule="evenodd"/><path fill="#FFD4C6" d="M28.532 47.02c-1.239-14.342 9.396-26.969 23.74-28.187 15.848-1.345 29.189 11.705 28.193 27.578L79.378 63.74c-.774 12.329-10.082 22.429-22.308 24.204l-1.986.288-1.603-.157c-12.514-1.233-22.372-11.21-23.454-23.739l-1.495-17.315z" clip-rule="evenodd" fill-rule="evenodd"/><mask height="74" width="55" y="18" x="27" maskUnits="userSpaceOnUse" style="mask-type:alpha" id="e"><path fill="#fff" d="M27.59 47.253c-1.235-14.373 9.42-27.023 23.794-28.25l1.74-.149C69.015 17.498 82.4 30.58 81.405 46.497l-1.243 19.925c-.77 12.326-10.068 22.426-22.288 24.21l-2.764.404-2.378-.236C40.22 89.561 30.366 79.58 29.29 67.051l-1.7-19.798z" clip-rule="evenodd" fill-rule="evenodd"/></mask><g mask="url(#e)"><ellipse fill="#FFA2A2" ry="1.869" rx="3.738" cy="63.937" cx="71.142" opacity=".625"/><ellipse fill="#FFA2A2" ry="1.869" rx="3.738" cy="63.937" cx="40.306" opacity=".625"/><rect fill="#835B5B" rx="2.915" height="8.327" width="5.829" y="52.694" x="64.966"/><rect fill="#835B5B" rx="2.915" height="8.327" width="5.829" y="52.694" x="39.984"/><path fill="#835B5B" d="M60.863 51.457s6.17-6.314 13.539-1.359c-1.666 0-13.54 1.359-13.54 1.359zm-11.523 0s-6.17-6.314-13.54-1.359c1.666 0 13.54 1.359 13.54 1.359z" clip-rule="evenodd" fill-rule="evenodd"/><path stroke-linecap="round" stroke-width="1.499" stroke="#D97B7B" d="M54.173 55.423s-2.412 10.123-2.272 10.913c.14.789 5.132 0 5.132 0"/></g><path fill="#986C29" d="M79.57 10.951c-18.903-.484-42.873 4.123-54.036 6.447-.016.614.798.942 6.575.169 4.145-1.276 37.188-6.879 47.415-4.774.007-.307 2.9-.847.047-1.841z"/><path fill="#222" d="M63.222 7.883c-6.075-2.804-14.017-2.463-18.69.934-2.57 1.869-3.27 4.205-.934 6.074-1.869 4.672 2.804 6.541 5.607 6.541 2.18 1.246 7.009 1.402 9.812 0 4.205.935 7.943-.934 6.54-5.606 3.083-2.804 1.064-5.903-2.335-7.943z"/><mask height="17" width="26" y="6" x="42" maskUnits="userSpaceOnUse" style="mask-type:alpha" id="f"><path fill="#222" d="M63.222 7.883c-6.075-2.804-14.017-2.463-18.69.934-2.57 1.869-3.27 4.205-.933 6.074-1.87 4.672 2.803 6.541 5.607 6.541 2.18 1.246 7.008 1.402 9.811 0 4.205.935 7.943-.934 6.541-5.606 3.083-2.804 1.064-5.903-2.336-7.943z"/></mask><g mask="url(#f)"><path fill="#181818" d="M54.5 13c9.5-1 7.5-6.563 3-7.5l12 2.5C70 12.833 71 22.7 71 23.5c0 .8-18.333-3.333-27.5-5.5 1-3 16.5-2 11-5z"/></g><path fill="#2B2B2B" d="M79.882 50.535 76.5 52.5c.258-.546.5-7.5 0-12-.718 1-2.5 2-5 2.5.5-5 0-9.9-2.274-12.556 0 0-3.726 4.056-4.726 4.056 0-1.4-1-3.5-2.5-3.5-3 2.5-6.742 4.5-8 4.5-3-.5-7-3.5-8.5-4.5-1.5 0-3 2.1-2.5 4-2 0-5.533-1.434-6-1.9-1 1.9-1 8.4 0 9.9-2.5 1-4 .5-4 .5-.394 2.019-.04 4.882.5 6.5l-3.006-1.015s-.18-.467.935 4.672c.81 3.135 1.401 8.878 0 13.083 0-9.345-2.336-12.615-2.336-12.615s-2.102-2.804-2.803-8.41C23.02 19.55 44.602 15.828 55.258 16.279c23.166.98 27.868 14.165 27.868 26.415.633 8.82-1.545 12.251-3.244 14.701v-6.86z"/><path fill="#2A2A2A" d="M79.864 71.202c-1.125-10.352-.727-14.874.623-20.348h.934c-.311 3.332-2.108 7.159-.934 16.064.465 3.53.934 13.209-1.869 15.708 1.745-2.856 1.661-9.4 1.246-11.424zm-50.46-7.493c1.406-8.676.908-12.465-.779-17.052l-2.336-.475c.39 2.792 3.804 6.474 2.336 13.937-.581 2.958-1.168 11.068 2.336 13.162-2.18-2.393-2.076-7.877-1.557-9.573z"/><path fill="#2A2A2A" d="M82.165 67.894c-2.112-7.007-2.478-10.177-2.38-14.122l.584-.115c.259 2.339-.343 5.201 1.602 11.203.77 2.38 2.38 9.002.97 11.072.7-2.186-.242-6.693-.776-8.038z"/><path stroke-linecap="round" stroke-width="1.404" stroke="#DA7B7B" d="M51 73.41s4.857-.17 7.071-2.41"/></g></svg>