<svg viewBox="0 0 1200 1200" xmlns="http://www.w3.org/2000/svg" id="图层_1"><defs><clipPath id="clip-path"><circle r="462.13" cy="-633.29" cx="600" class="cls-1"/></clipPath><clipPath id="clip-path-2"><circle r="462.13" cy="600" cx="600" class="cls-1"/></clipPath><clipPath id="clip-path-3"><circle r="462.13" cy="600" cx="-647.23" class="cls-1"/></clipPath><style>.cls-1{fill:none}.cls-4,.cls-5{fill:#fff;stroke:#370911;stroke-miterlimit:10;stroke-width:14px}.cls-5{fill:#343535}.cls-11{fill:#271d1f}.cls-16{fill:#de717e}</style></defs><circle r="462.13" cy="600" cx="600" style="fill:#786295"/><g style="clip-path:url(#clip-path)"><path class="cls-4" d="m738.12-371.94 119.61 124.85-104.15 460.62-104.16-89.48-25.45-335.44 24.8-56.94 89.35-103.61z"/><path d="M1010.29-210.91c54.77 57.7 94.87 180.93 122.25 280.68s61.61 333.49 61.61 333.49l-532-31.3S801-183.52 813.72-243.18 839.4-316 839.4-316s116.13 47.39 170.89 105.09z" class="cls-5"/><path d="M872.4-278.39c8.8 23.47 6.85 119.32-12.71 190.71S687.56 264.39 687.56 264.39s64.55-396.08 70.44-484.1 9.42-127.62 9.42-127.62 82.51 31.78 92.29 44.49 12.69 24.45 12.69 24.45z" class="cls-5"/><path class="cls-4" d="M459.11-371.94 339.5-247.09l104.16 460.62 104.15-89.48 35.12-333.89-34.46-58.49-89.36-103.61z"/><path d="M186.94-210.91C132.17-153.21 92.08-30 64.69 69.77S3.08 403.26 3.08 403.26l532-31.3S396.23-183.52 383.51-243.18 357.83-316 357.83-316s-116.12 47.39-170.89 105.09z" class="cls-5"/><path d="M324.83-278.39C316-254.92 318-159.07 337.55-87.68s172.12 352.07 172.12 352.07-64.55-396.08-70.41-484.1-9.42-127.62-9.42-127.62-82.51 31.78-92.29 44.49-12.72 24.45-12.72 24.45zm203.35 396.08 71.88 146.7 71.76-141.56-48.78-292.84-47.92-.8-46.94 288.5z" class="cls-5"/></g><g style="clip-path:url(#clip-path-2)"><path d="M346.55 897.26a415.1 415.1 0 0 0 72.35 46.45c40.68 20.13 190.87 29.42 200.16 29.42s139.36 9.29 144 0S851.32 922 856 917.39s27.87-131.62 27.87-154.84-32.52-240.78-32.52-240.78-486.19-1.6-492.39 37.53-12.38 198.6-12.38 198.6z" style="fill:#f0b477"/><path style="fill:#eab9b1;stroke-width:14px;stroke-miterlimit:10;stroke:#370911" d="m489.02 781.94-3.89 341.38 120.04 4.71 117.47 11.55-8.36-353.65-205.05-6.77-20.21 2.78z"/><path d="M896.47 594c0 39.85-26.09 78.15-58.28 78.15s-58.27-32.3-58.27-72.15 33.09-72.15 65.27-72.15 51.28 26.3 51.28 66.15zm-475.39 6c0 39.85-26.09 72.15-58.27 72.15s-59.28-38.3-59.28-78.15 20.09-66.15 52.28-66.15 65.27 32.3 65.27 72.15z" style="fill:#fde9d1;stroke-width:14px;stroke-miterlimit:10;stroke:#370911"/><ellipse ry="281.42" rx="242.17" cy="559.3" cx="601.11" style="fill:#f9d9d0;stroke-width:14px;stroke-miterlimit:10;stroke:#370911"/><ellipse ry="26.31" rx="26.84" cy="548.08" cx="500.11" class="cls-11"/><ellipse ry="26.31" rx="26.84" cy="548.08" cx="692.62" class="cls-11"/><path d="M700.49 479.23c36.65 1.55 43 16.45 43 16.45m-287.02-1s5.84-17 42.49-15.45" style="stroke:#231815;stroke-width:20px;stroke-linecap:round;stroke-miterlimit:10;fill:none"/><ellipse ry="39.74" rx="72.77" cy="684.32" cx="600.02" style="fill:#ee8685;stroke:#310304;stroke-width:10px;stroke-miterlimit:10"/><path d="M545.92 705.77c13.66 8.25 33.73 14 55.7 14 23.75 0 38.78-4.56 52.45-14-4.38-13.12-24.71-19.32-53.32-19.32-30.1 0-52.38 5.2-54.83 19.32z" style="fill:#e5415b"/><path d="M603.9 672.72c33.07 0 48.65-1 62.3-6.41-4.15-13.69-12.31-20.09-66.22-17.18-51-2.7-61.07 3.11-66.21 15.21 11.61 7.13 28.16 8.38 70.13 8.38z" style="fill:#fff"/><circle r="49.53" cy="643.05" cx="450.15" class="cls-16"/><circle r="49.53" cy="643.05" cx="749.85" class="cls-16"/><path d="M585.36 292.85s-93.17 25.29-102.48 88.51-26.63 87.51-52.72 127.25-60.1 57-52.64 85.94 54.79 81.87 60.38 125.22S408.07 832.48 400.62 874s69.21 83.58 41.27 112.49-98.76 0-98.76 0-44.71 25.69-67.07 12.84-31.68-70.65-31.68-70.65-78.26 16.26-82-43.35 0-75.87 0-75.87 31.67 39.74 54 10.84-39.13-61.42-11.18-130.07 57.76-56 76.4-92.13-50.31-75.87-16.77-130.06 41-61.42 78.25-121S384.12 264 427 229.62s82-50.62 108.05-39.74a146 146 0 0 0 50.31 10.84s78.25-35.56 111.79-14.17 52.17 61.14 76.39 102.69 87.58 23.48 95 68.64-14.91 68.64 0 97.55 68.94-9 68.94 48.77-35.4 66.84-11.18 99.35 44.72 23.49 35.4 63.23-26.08 48.77-11.18 75.87 39.13 19.87 35.4 56-54 43.35-27.92 72.26 55.89-3.62 55.89-3.62 0 93.94-44.71 97.55-48.45-3.61-48.45-3.61-26.08 49.14-42.85 41.73-37.27-27.28-37.27-27.28-72.67 65-89.43 14.45 21.28-130.55 38-159.45 37.26-102.68 0-144.23 12.25-97.35-.79-137.09-65.21-59.61-65.21-104.77-29.82-23.49-48.45-65-16.73-59.65-42.79-72.29-46.58-14.45-46.58-14.45z" style="fill:#f8cc77"/><path d="M528.59 967.72s18.08-16 36.29-17.19a48.21 48.21 0 0 1 43.74 21s15-22.2 41.8-21.11a48.41 48.41 0 0 1 38.63 21.11s-3.82-28.65 14.33-36.29 26.74 0 26.74 0-4.77-31.52 3.82-41.08 31.94-11.27 62.5-2.67 62.63 3.63 93.19 95.32 39.16 172.89 39.16 172.89l-612.25 22s-71.63-13.37-70.68-16.23 71.64-233.09 111.75-253.15l40.12-20.06s55.83-3.44 74.5 11c21 16.24 18.15 33.91 18.15 33.91s5.52-5.46 19.58-.48c22.92 8.11 18.63 31.03 18.63 31.03z" style="fill:#131212;stroke-width:14px;stroke-miterlimit:10;stroke:#370911"/></g><g style="clip-path:url(#clip-path-3)"><path d="M-775.91 872.61s5.62 25.26 15.91 25.26 107.58-1.87 147.81 0 96.36-2.8 96.36-12.63V853.9s33.68 5.09 41.16 22.19-.94 31.14 4.68 38.62 71.1 31.81 106.65 53.33 293.75 76.71 293.75 76.71L-6 1056.91l24.32 336.78-1283.52-54.26 9.36-267.55s299.36-70.17 333-72-9.36-29.93 35.55-37.42 68.29-20.58 84.19-24.32 1.87-44 7.49-51.45 19.7-14.08 19.7-14.08z" style="fill:#040000;stroke:#360810;stroke-linejoin:round;stroke-linecap:round;stroke-width:14px"/></g></svg>