<svg viewBox="0 0 1200 1200" xmlns="http://www.w3.org/2000/svg" id="图层_1"><defs><clipPath id="clip-path"><circle r="462.13" cy="600" cx="600" style="fill:none"/></clipPath><style>.cls-4{fill:#f6ad5f;stroke:#370911;stroke-width:14px;stroke-linecap:round;stroke-linejoin:round}.cls-8{fill:#271d1f}.cls-9{fill:#de717e}</style></defs><circle r="462.13" cy="600" cx="600" style="fill:#e3c2dc"/><g style="clip-path:url(#clip-path)"><ellipse ry="250.73" rx="268.1" cy="949.27" cx="600" class="cls-4"/><path d="M499.34 803s-10.21 40.93-6.43 56.9c12.51 52.86 178.13 69.69 207.4-4.48 6.72-17-4.1-49.86-4.1-49.86l43.52-46.45s55.75 136.63 46.82 214.57c-4.65 40.55-51.74 145.14-195.54 145.14-80.91 0-165.09-73.28-170.67-169.5-5.71-98.6 40.77-185.08 40.77-185.08h24.66z" style="fill:#fdecdd;stroke-linecap:round;stroke-linejoin:round;stroke:#370911;stroke-width:14px"/><path d="M988.86 596.05c0 52.26-34.22 102.5-76.44 102.5S836 656.18 836 603.92s43.41-94.64 85.62-94.64 67.24 34.5 67.24 86.77zm-623.53 7.87c0 52.26-34.23 94.63-76.44 94.63s-77.75-50.24-77.75-102.5 26.35-86.77 68.57-86.77 85.62 42.37 85.62 94.64z" style="fill:#fde9d1;stroke-miterlimit:10;stroke:#370911;stroke-width:14px"/><circle r="287.34" cy="561.45" cx="600" style="fill:#f9d9d0;stroke-miterlimit:10;stroke:#370911;stroke-width:14px"/><ellipse ry="32.83" rx="32.34" cy="554.41" cx="701.25" class="cls-8"/><ellipse ry="32.83" rx="32.34" cy="554.41" cx="498.75" class="cls-8"/><circle r="59.69" cy="663.47" cx="419.41" class="cls-9"/><circle r="59.69" cy="663.47" cx="780.59" class="cls-9"/><path d="M499 669.1a102.18 102.18 0 0 0 201.92 0z" style="fill:#ee8685;stroke:#310304;stroke-width:10px;stroke-miterlimit:10"/><path d="M537.91 280.89s-36.47 15.11-21.38 51.56 32.7 39 31.44 55.34-27.49 21.38-17.51 30.21 74.11 11.32 109.32-18.86 66.65-81.75 54.08-98.1-50-26.18-69.17-28.92c-66.57-5.92-86.78 8.77-86.78 8.77z" class="cls-4"/></g><path d="M888.26 593.35s15.94-13.55 28.74-9.29a41.73 41.73 0 0 1 19.74 14.71M311.4 589.4s-15.93-13.55-28.71-9.29A41.66 41.66 0 0 0 263 594.82" style="stroke-linecap:round;stroke-linejoin:round;stroke:#370911;stroke-width:14px;fill:none"/></svg>