<svg xmlns="http://www.w3.org/2000/svg" fill="none" viewBox="0 0 110 111" height="111" width="110"><path fill="#FAB5A3" d="M46.505 85.608s1.99 7.648.489 10.514c-1.14 1.332-3.152 1.967-4.746 2.165 4.629 2.088 21.708 2.363 25.458 0-4.148.05-5.213-2.811-5.213-2.811s-.01-4.907.89-9.385c-3.843-2.912-16.878-.483-16.878-.483z" clip-rule="evenodd" fill-rule="evenodd"/><mask height="16" width="26" y="84" x="42" maskUnits="userSpaceOnUse" style="mask-type:alpha" id="a"><path fill="#fff" d="M46.505 85.608s1.99 7.648.489 10.514c-1.14 1.332-3.152 1.967-4.746 2.165 4.629 2.088 21.708 2.363 25.458 0-4.148.05-5.213-2.811-5.213-2.811s-.01-4.907.89-9.385c-3.843-2.912-16.878-.483-16.878-.483z" clip-rule="evenodd" fill-rule="evenodd"/></mask><g mask="url(#a)"><path fill="#E89A85" d="M47.144 88.823s7.188 8.454 18.209 9.078c8.106 1.427.975-13.398.975-13.398l-19.184 4.32z" clip-rule="evenodd" fill-rule="evenodd" opacity=".349" style="mix-blend-mode:multiply"/></g><path fill="#fff" d="m40.366 97.829 4.98-1.05s9.275 4.052 18.86 0c-.106-.082 4.556 1.05 4.556 1.05s-5.206 5.007-15.532 4.698c-10.326-.31-12.864-4.698-12.864-4.698z" clip-rule="evenodd" fill-rule="evenodd"/><path fill="#D26161" d="M41.577 97.06s12.356 6.596 25.18 0c7.994 1.402 19.56 4.858 23.913 7.362 4.352 2.503 4.43 5.59 4.43 5.59H15s.318-2.686 3.83-5.351c3.512-2.666 22.747-7.601 22.747-7.601z" clip-rule="evenodd" fill-rule="evenodd"/><mask height="14" width="81" y="97" x="15" maskUnits="userSpaceOnUse" style="mask-type:alpha" id="b"><path fill="#fff" d="M41.577 97.06s12.356 6.596 25.18 0c7.994 1.402 19.56 4.858 23.913 7.362 4.352 2.503 4.43 5.59 4.43 5.59H15s.318-2.686 3.83-5.351c3.512-2.666 22.747-7.601 22.747-7.601z" clip-rule="evenodd" fill-rule="evenodd"/></mask><g mask="url(#b)"><path fill="#FD8787" d="m39.368 106.719-2.016 6.844 35.25.883-2.407-7.727H39.368z" clip-rule="evenodd" fill-rule="evenodd"/><path fill="#fff" d="M38.776 96.094c3.782 3.514 8.986 6.237 15.644 6.237 6.101.203 11.157-2.642 14.619-5.725l.184-.167.442.346c-3.581 3.287-8.876 6.268-15.257 6.055-6.689 0-11.986-2.715-15.87-6.214l-.207-.189.445-.343z"/></g><path fill="#FAB5A3" d="M76.995 59.206s7.753-7.037 12.32-3.408c4.568 3.629-1.783 16.522-11.014 15.95-9.23-.573-1.306-12.542-1.306-12.542z" clip-rule="evenodd" fill-rule="evenodd"/><path fill="#C26B6B" d="M85.734 59.568a.398.398 0 0 0-.51-.235c-2.98 1.087-4.977 3.468-5.978 7.1a.398.398 0 0 0 .767.209c.457-1.66 1.127-3.029 2.01-4.11a.41.41 0 0 0 .13.045c1.311.215 2.085.768 2.385 1.667a.398.398 0 0 0 .755-.25c-.372-1.112-1.277-1.824-2.66-2.13a7.919 7.919 0 0 1 2.865-1.788.395.395 0 0 0 .236-.508z" clip-rule="evenodd" fill-rule="evenodd"/><path fill="#FAB5A3" d="M32.294 59.655s-7.754-7.037-12.321-3.408 1.784 16.522 11.014 15.95c9.23-.573 1.307-12.542 1.307-12.542z" clip-rule="evenodd" fill-rule="evenodd"/><path fill="#C26B6B" d="M23.215 59.516a.398.398 0 0 1 .51-.235c2.98 1.087 4.977 3.468 5.978 7.1a.398.398 0 0 1-.767.209c-.458-1.661-1.127-3.03-2.01-4.11a.399.399 0 0 1-.13.045c-1.312.214-2.085.768-2.386 1.667a.398.398 0 0 1-.754-.25c.372-1.113 1.276-1.824 2.66-2.13a7.917 7.917 0 0 0-2.865-1.789.395.395 0 0 1-.236-.507z" clip-rule="evenodd" fill-rule="evenodd"/><path fill="#FFD4C6" d="M26.294 47.675C24.763 31.993 36.43 18.09 52.133 16.8c17.204-1.415 31.706 12.8 30.545 30.022l-1.379 20.433c-.93 13.795-12.43 24.487-26.257 24.411-13.846.077-25.47-10.41-26.816-24.191l-1.932-19.8z" clip-rule="evenodd" fill-rule="evenodd"/><mask height="76" width="57" y="16" x="26" maskUnits="userSpaceOnUse" style="mask-type:alpha" id="c"><path fill="#fff" d="M26.294 47.675C24.763 31.993 36.43 18.09 52.133 16.8c17.204-1.415 31.706 12.8 30.545 30.022l-1.379 20.433c-.93 13.795-12.43 24.487-26.257 24.411-13.846.077-25.47-10.41-26.816-24.191l-1.932-19.8z" clip-rule="evenodd" fill-rule="evenodd"/></mask><g mask="url(#c)"><ellipse fill="#FFA2A2" ry="3.164" rx="4.772" cy="71.964" cx="71.744" opacity=".625"/><ellipse fill="#FFA2A2" ry="3.164" rx="4.772" cy="73.877" cx="37.811" opacity=".625"/><path fill="#FAB5A3" d="M40.985 38.3S63.9 31.842 70.154 49.642c7.861-3.172 8.595-21.797 8.595-21.797l-27.683-3.6s-7.755 4.896-9.942 8.002c-2.187 3.106-.14 6.053-.14 6.053z" clip-rule="evenodd" fill-rule="evenodd" opacity=".51"/><path fill="#AA7758" d="M73.336 42.554v11.03s3.921.317 5.53 2.256c1.608 1.94 2.96 8.191 2.96 8.191l2.337-23.255-10.827 1.778zm-39.28 1.582v11.03s-3.922.317-5.53 2.256c-1.609 1.94-1.963 7.686-1.963 7.686l-3.334-22.75 10.827 1.778z" clip-rule="evenodd" fill-rule="evenodd"/><path stroke-linecap="round" stroke-width="1.458" stroke="#DA7B7B" d="M51.066 78.712s1.968.37 3.945.37c1.976 0 4.008-.791 4.008-.791"/><rect fill="#83573D" rx="2.784" height="7.029" width="5.567" y="58.518" x="64.587"/><rect fill="#83573D" rx="2.784" height="7.029" width="5.567" y="59.309" x="38.341"/><path fill="#65422D" d="M62.2 56.827s6.868-1.873 9.437-1.82c-4.414-6.43-9.436 1.82-9.436 1.82zm-16.014 0s-6.868-1.873-9.436-1.82c4.414-6.43 9.436 1.82 9.436 1.82z" clip-rule="evenodd" fill-rule="evenodd"/><path fill="#F28080" d="M53.927 59.396c.39.06.66.422.6.81l-.133.877c-.492 3.298-.806 5.863-.943 7.693l-.017.234c-.067.977-.079 1.721-.038 2.222.01.132.025.243.041.33l.012.06.032.007c.496.092 1.531-.034 3.024-.418l.489-.13a.711.711 0 1 1 .383 1.372c-2.337.645-3.849.806-4.698.405-1.146-.542-.898-4.153.432-12.865a.715.715 0 0 1 .726-.605l.09.008z"/></g><path fill="#65422D" d="M38.086 21.145S25.088 22.652 24.042 35.87c-.208 7.597 1.943 13.636 1.943 13.636l3.126-.023s1.196 1.49 2.68 1.914c1.482.423 4.225 1.243 4.225 1.243s-.791-14.457 4.969-14.34c1.62-6.31 22.353-8.188 27.284-.488 3.529 5.997 1.64 12.63 1.64 12.63s3.135-.355 4.223-1.464c1.09-1.109 1.043-1.72 1.513-1.794.79-.076 1.62 1.566 2.72 1.047.497-.235.844-1.502 1.635-1.93-.123-.498 1.952.714 2.306.327 2.132-5.366 4.515-18.025-6.677-26.503-4.122-3.122-10.459-10.346-26.99-7.7-6.816 1.398-10.553 8.72-10.553 8.72z" clip-rule="evenodd" fill-rule="evenodd"/><mask height="42" width="61" y="11" x="24" maskUnits="userSpaceOnUse" style="mask-type:alpha" id="d"><path fill="#fff" d="M38.086 21.145S25.088 22.652 24.042 35.87c-.208 7.597 1.943 13.636 1.943 13.636l3.126-.023s1.196 1.49 2.68 1.914c1.482.423 4.225 1.243 4.225 1.243s-.791-14.457 4.969-14.34c1.62-6.31 22.353-8.188 27.284-.488 3.529 5.997 1.64 12.63 1.64 12.63s3.135-.355 4.223-1.464c1.09-1.109 1.043-1.72 1.513-1.794.79-.076 1.62 1.566 2.72 1.047.497-.235.844-1.502 1.635-1.93-.123-.498 1.952.714 2.306.327 2.132-5.366 4.515-18.025-6.677-26.503-4.122-3.122-10.459-10.346-26.99-7.7-6.816 1.398-10.553 8.72-10.553 8.72z" clip-rule="evenodd" fill-rule="evenodd"/></mask><g mask="url(#d)" fill="#533524" clip-rule="evenodd" fill-rule="evenodd"><path d="M75.646 47.184s1.72-5.6 1.72-8.817c.82 8.869 0 10.527 0 10.527l-1.72-1.71zm-3.06-4.404s-2.57 10.809-5.31 9.416L43.15 38.028l-.117 1.094c-1.92 17.6-4.48 22.06-7.68 13.382-3.778-10.278-2.728-15.088 4.343-15.802.095-5.762 4.23-13.027 18.823-10.57 0 0 16.057 4.333 14.067 16.649z"/><path d="M37.708 22.29s-2.27 2.63-2.27 5.206c-2.079.764-4.837 2.95-4.837 7.13 2.264-3.98 5.353-4.773 5.353-4.773s1.504 2.48 2.386 3.356c-.55-2.101-1.133-4.636-1.181-6.784-.012-.522 2.456-2.15 3.739-2.767.007-.218-2.613.47-3.74 1.244.044-.587.55-2.612.55-2.612z" opacity=".571"/><path d="M56.633 22.146s14.596 2.46 17.527 10.149C72.28 21.81 56.633 22.146 56.633 22.146zm15.094-.604s5.835 5.531 4.802 9.892c2.364-5.306-4.802-9.892-4.802-9.892z"/></g></svg>