<svg xmlns="http://www.w3.org/2000/svg" width="120" height="120" viewBox="0 0 120 120"><defs><clipPath id="clip-path"><path id="矩形_15" data-name="矩形 15" transform="translate(1022 75)" style="stroke:#707070;fill:#fff" d="M0 0h120v120H0z"/></clipPath><style>.cls-8{fill:#fff}.cls-4{fill:#fdcc9b}.cls-5{fill:#fcbc85}.cls-6{fill:#684b37}.cls-7{fill:#3b2519}.cls-11,.cls-12{fill-rule:evenodd}.cls-11{fill:#665853}.cls-12{fill:#f2788f}</style></defs><g id="男20" transform="translate(-1022 -75)"><g id="蒙版组_8" data-name="蒙版组 8" style="clip-path:url(#clip-path)"><g id="图层_2" data-name="图层 2" transform="translate(1043.283 75)"><g id="图层_1" data-name="图层 1"><path id="路径_92" data-name="路径 92" d="M77.369 120a4.89 4.89 0 0 0-.311-2.412c-3.625-9.306-17.51-17.177-37.69-17.177s-34.693 7.864-37.726 17.17A5.37 5.37 0 0 0 1.405 120h75.964z" style="fill:#f6a4b7"/><path id="路径_93" data-name="路径 93" class="cls-4" d="M29.982 75.142H46.81v24.811a7.516 7.516 0 0 1-7.516 7.516H37.5a7.516 7.516 0 0 1-7.516-7.516z"/><rect id="矩形_35" data-name="矩形 35" class="cls-5" width="73.633" height="21.8" rx="10.9" transform="translate(1.169 51.626)"/><path id="路径_94" data-name="路径 94" class="cls-5" d="m29.412 90.337 17.4-.3v3.906a29.005 29.005 0 0 1-17.4-3.61z"/><path id="路径_95" data-name="路径 95" class="cls-4" d="M69.868 56.693c0 18.885-3.98 34.938-31.476 34.938S6.924 75.579 6.924 56.693.8 22.5 38.392 22.5c36.321 0 31.476 15.308 31.476 34.193z"/><path id="路径_96" data-name="路径 96" class="cls-6" d="M22.776 49.326c2.959 0 7.205 1.442 7.205.851 0-2.308-3.225-4.18-7.205-4.18s-7.242 1.872-7.242 4.18c0 .591 4.284-.851 7.242-.851z"/><path id="路径_97" data-name="路径 97" class="cls-6" d="M54.134 49.326c2.959 0 7.212 1.442 7.212.851 0-2.308-3.233-4.18-7.212-4.18s-7.205 1.872-7.205 4.18c0 .591 4.246-.851 7.205-.851z"/><ellipse id="椭圆_34" data-name="椭圆 34" class="cls-7" cx="4.372" cy="5.067" rx="4.372" ry="5.067" transform="translate(18.464 53.098)"/><circle id="椭圆_35" data-name="椭圆 35" class="cls-8" cx="1.753" cy="1.753" r="1.753" transform="translate(19.329 54.237)"/><ellipse id="椭圆_36" data-name="椭圆 36" class="cls-7" cx="4.372" cy="5.067" rx="4.372" ry="5.067" transform="translate(49.644 53.098)"/><circle id="椭圆_37" data-name="椭圆 37" class="cls-8" cx="1.753" cy="1.753" r="1.753" transform="translate(50.509 54.237)"/><path id="路径_98" data-name="路径 98" class="cls-5" d="M38.392 71.192c-2.685 0-5.652-2.36-5.652-2.064 0 2.079 2.53 3.758 5.652 3.758s5.659-1.679 5.659-3.758c0-.296-2.973 2.064-5.659 2.064z"/><path id="路径_99" data-name="路径 99" class="cls-5" d="M38.392 81.223a19.3 19.3 0 0 1-4.157-.821c0 .829 1.864 1.479 4.157 1.479s4.165-.673 4.165-1.479a19.417 19.417 0 0 1-4.165.821z"/><path id="路径_100" data-name="路径 100" d="M38.392 78.708c-4.816 0-10.142-1.916-10.142-1.679 0 1.687 4.542 3.048 10.142 3.048s10.149-1.361 10.149-3.048c0-.237-5.333 1.679-10.149 1.679z" style="fill:#f7945e"/><path id="路径_101" data-name="路径 101" d="M75.453 16.962c-.814-1.613-3.129-1.827-4.35-2.523s-1.213-3.654-3.477-4.875-2.611.74-4.194.348-3.107-3.476-5.178-4.172-3.995.7-5.563.348-2.611-3.654-5.355-3.477S44.458 4.7 43.9 4.52 41.507 0 38.111 0 32.9 4.35 32.334 4.52s-.644-1.738-3.388-1.909-3.795 3.129-5.356 3.477-3.477-1.043-5.563-.348-3.627 3.825-5.178 4.18-1.931-1.568-4.194-.355-2.286 4.18-3.477 4.875-3.529.91-4.35 2.523c-2.958 5.821 3.078 46.928 5.356 46.928s.215-20.92 3.7-28.924 16.873-1.05 28.265-1.05 24.729-6.954 28.236 1.05 1.406 28.924 3.7 28.924 8.327-41.107 5.368-46.929z" style="fill-rule:evenodd;fill:#4c2d19"/><path id="路径_102" data-name="路径 102" class="cls-11" d="m46.322 109.925-8.137-5.03v-.089l-.074.044-.074-.044v.089l-8.137 5.03 3.455 3.085-1.169 6.99h11.858l-1.176-6.991z"/><path id="路径_103" data-name="路径 103" class="cls-12" d="m29.76 99.5 8.707 5.3-9.18 9.114-6.806-11.348s4.453-3.612 7.279-3.066z"/><path id="路径_104" data-name="路径 104" class="cls-12" d="m46.685 99.5-8.7 5.3 9.165 9.114 6.85-11.32s-4.489-3.64-7.315-3.094z"/><path id="路径_105" data-name="路径 105" class="cls-11" d="m53.646 120 1.835-17.805a13.789 13.789 0 0 1 8.411 2.5L67.708 120z"/><path id="路径_106" data-name="路径 106" class="cls-11" d="m23.575 120-1.8-17.805a13.789 13.789 0 0 0-8.411 2.5L9.55 120z"/></g></g></g></g></svg>