<svg xmlns="http://www.w3.org/2000/svg" fill="none" viewBox="0 0 110 111" height="111" width="110"><path fill="#FFB5A1" d="M45.064 82.95s1.554 8.542-.264 11.27c.96 1.508 5.893 7.002 10.5 7.006 3.839.003 7.293-5.076 9.508-7.598-2.191-1.616-1.189-10.795-1.189-10.795l-18.555.117z" clip-rule="evenodd" fill-rule="evenodd"/><mask height="20" width="21" y="82" x="44" maskUnits="userSpaceOnUse" style="mask-type:alpha" id="a"><path fill="#fff" d="M45.064 82.95s1.554 8.542-.264 11.27c.96 1.508 5.893 7.002 10.5 7.006 3.839.003 7.293-5.076 9.508-7.598-2.191-1.616-1.189-10.795-1.189-10.795l-18.555.117z" clip-rule="evenodd" fill-rule="evenodd"/></mask><g mask="url(#a)"><path fill="#E89A85" d="M45.593 84.722s7.878 7.64 18.295 4.91c10.416-2.729 2.292-11.076 2.292-11.076l-20.587 6.166z" clip-rule="evenodd" fill-rule="evenodd" opacity=".349" style="mix-blend-mode:multiply"/></g><path fill="#7170EE" d="M43.537 93.81s-10.54 2.956-10.787 3.033c-8.357 1.684-10.7 2.513-12.8 3.725-4.273 2.464-5.95 9.522-5.95 9.522l82.5-.093s-1.332-7.21-6.158-9.257c-2.283-.97-6.25-1.835-13.647-3.897-.362-.14-10.997-3.401-10.997-3.401s-.79-.537-1.87-2.052c-4.419 3.55-7.447 5.318-8.788 5.354-2.222-.073-6.347-2.843-9.33-5.028-.552.736-2.173 2.094-2.173 2.094z" clip-rule="evenodd" fill-rule="evenodd"/><mask height="20" width="83" y="91" x="14" maskUnits="userSpaceOnUse" style="mask-type:alpha" id="b"><path fill="#fff" d="M43.537 93.81s-10.54 2.956-10.787 3.033c-8.357 1.684-10.7 2.513-12.8 3.725-4.273 2.464-5.95 9.522-5.95 9.522l82.5-.093s-1.332-7.21-6.158-9.257c-2.283-.97-6.25-1.835-13.647-3.897-.362-.14-10.997-3.401-10.997-3.401s-.79-.537-1.87-2.052c-4.419 3.55-7.447 5.318-8.788 5.354-2.222-.073-6.347-2.843-9.33-5.028-.552.736-2.173 2.094-2.173 2.094z" clip-rule="evenodd" fill-rule="evenodd"/></mask><g mask="url(#b)"><path fill="#5352CD" d="m35.72 94.894-6.06 4.262 6.06 1.282-3.702 3.643 7.504 9.946s9.862-2.293 9.862-2.342c0-.048-2.597-20.185-2.597-20.185L35.72 94.894zm38.616-.688 6.06 4.262-6.06 1.282 3.701 3.643-7.504 9.946s-9.861-2.293-9.861-2.341c0-.049 2.596-20.186 2.596-20.186l11.068 3.394z" clip-rule="evenodd" fill-rule="evenodd"/><path fill="#fff" d="M66.087 93.341s1.59-3.783-3.745-3.378c-1.98.817-6.997 5.878-6.997 5.878l-12.28-6.651 1.205 4.423 3.265 17.308 16.175.546 2.377-18.126z" clip-rule="evenodd" fill-rule="evenodd"/><mask height="23" width="24" y="89" x="43" maskUnits="userSpaceOnUse" style="mask-type:alpha" id="c"><path fill="#fff" d="M66.087 93.341s1.59-3.783-3.745-3.378c-1.98.817-6.997 5.878-6.997 5.878l-12.28-6.651 1.205 4.423 3.265 17.308 16.175.546 2.377-18.126z" clip-rule="evenodd" fill-rule="evenodd"/></mask><g mask="url(#c)"><path fill="#F8F8F8" d="M43.992 98.628s2.433 3.082 3.009 2.666c4.115-2.968 6.956-4.357 8.465-4.357 1.518 0 4.284 1.332 8.298 3.994.531.353 2.688-2.659 2.688-2.659l-1.898 12.953h-21.49l.928-12.597z" clip-rule="evenodd" fill-rule="evenodd"/><mask height="16" width="24" y="96" x="43" maskUnits="userSpaceOnUse" style="mask-type:alpha" id="d"><path fill="#fff" d="M43.992 98.628s2.433 3.082 3.009 2.666c4.115-2.968 6.956-4.357 8.465-4.357 1.518 0 4.284 1.332 8.298 3.994.531.353 2.688-2.659 2.688-2.659l-1.898 12.953h-21.49l.928-12.597z" clip-rule="evenodd" fill-rule="evenodd"/></mask><g mask="url(#d)" clip-rule="evenodd" fill-rule="evenodd"><path fill="#8EB1F2" d="M52.275 101.011s-2.938 4.161-4.673 9.302c0 2.131 15.634.833 15.634.833s-2.572-7.979-4.695-10.135c-3.01-.402-6.266 0-6.266 0z"/><path fill="#A0C1FF" d="m53.168 96.786-3.784 2.032s1.272 1.861 3.02 2.674c1.36.427 4.632.475 6.07 0 1.934-.367 3.003-3.589 3.003-4.706 0-1.117-8.309 0-8.309 0z"/><path fill="#B7C2D8" d="M45.225 100.438s.418 1.851 1.397 1.622c.98-.23 6.205-5.123 8.843-5.123 2.688 0 7.787 4.706 8.467 4.706.752 0 2.52-1.372 2.52-1.372l-1.028-3.476-16.04-.567-4.159 4.21z" style="mix-blend-mode:multiply"/></g></g><path fill="#E26868" d="m39.102 94.69.684.176-.359.097s2.994 7.928 10.873 16.212c-.766.023-1.268.015-1.455 0-7.15-7.193-10.645-16.072-10.645-16.072l.118-.237.784-.176zm30.096-1.1-.684.176.359.097S65.879 101.79 58 110.075c.766.023 1.268.015 1.455 0 7.15-7.193 10.645-16.072 10.645-16.072l-.118-.237-.784-.176z" clip-rule="evenodd" fill-rule="evenodd"/></g><path fill="#FFB5A1" d="M77.685 51.54s3.377-12.43 11.848-8.803c8.47 3.628 1.352 20.79-10.175 20.008-11.527-.783-1.673-11.206-1.673-11.206zm-45.92.431s-3.377-11.95-11.848-8.463c-8.47 3.488-1.352 19.99 10.175 19.238 11.527-.753 1.673-10.775 1.673-10.775z" clip-rule="evenodd" fill-rule="evenodd"/><path fill="#C26B6B" d="M87.21 49.55a.682.682 0 0 0-.681-.681c-2.487 0-4.743 1.622-6.771 4.768a.682.682 0 1 0 1.146.739c.618-.96 1.246-1.749 1.882-2.371 1.374.315 2.041.836 2.156 1.536a.682.682 0 0 0 1.346-.22c-.178-1.086-.94-1.864-2.206-2.348.802-.496 1.618-.74 2.447-.74a.682.682 0 0 0 .681-.682zm-66.376 0c0-.376.305-.681.682-.681 2.486 0 4.742 1.622 6.77 4.768a.682.682 0 1 1-1.146.739c-.618-.96-1.245-1.749-1.881-2.371-1.375.315-2.042.836-2.157 1.536a.682.682 0 0 1-1.345-.22c.177-1.086.94-1.864 2.206-2.348-.803-.496-1.619-.74-2.447-.74a.682.682 0 0 1-.682-.682z" clip-rule="evenodd" fill-rule="evenodd"/><path fill="#FFD4C6" d="M25.74 43.815C24.371 28.379 35.826 14.777 51.27 13.5l1.61-.133c17.002-1.406 31.283 12.62 30.186 29.643l-1.209 18.756c-.851 13.214-10.86 24.016-23.972 25.87l-2.841.401-2.486-.238C39.16 86.514 28.582 75.86 27.393 62.453L25.74 43.815z" clip-rule="evenodd" fill-rule="evenodd"/><mask height="76" width="59" y="13" x="25" maskUnits="userSpaceOnUse" style="mask-type:alpha" id="e"><path fill="#fff" d="M25.74 43.815C24.371 28.379 35.826 14.777 51.27 13.5l1.61-.133c17.002-1.406 31.283 12.62 30.186 29.643l-1.209 18.756c-.851 13.214-10.86 24.016-23.972 25.87l-2.841.401-2.486-.238C39.16 86.514 28.582 75.86 27.393 62.453L25.74 43.815z" clip-rule="evenodd" fill-rule="evenodd"/></mask><g mask="url(#e)"><path fill="#E89A85" d="M33.612 33.344s1.26-8.315 7.88-3.122c6.623 5.193 18.125-1.519 18.125-1.519l-16.505-9.08-12.12 2.758 2.62 10.963z" clip-rule="evenodd" fill-rule="evenodd" opacity=".349" style="mix-blend-mode:multiply"/><ellipse fill="#FFA2A2" ry="2.673" rx="4.456" cy="62.445" cx="73.411" opacity=".625"/><ellipse fill="#FFA2A2" ry="2.673" rx="4.456" cy="62.445" cx="36.874" opacity=".625"/><rect fill="#835B5B" rx="3.119" height="8.911" width="6.238" y="49.969" x="65.391"/><rect fill="#835B5B" rx="3.119" height="8.911" width="6.238" y="49.969" x="38.657"/><path fill="#835B5B" d="M62.132 46.982s7.08-2.62 10.682-1.072c-5.31-7.121-10.682 1.072-10.682 1.072zm-13.797.499s-6.983-2.865-10.638-1.444c5.556-6.93 10.638 1.444 10.638 1.444z" clip-rule="evenodd" fill-rule="evenodd"/><path stroke-linecap="round" stroke-width="1.604" stroke="#D97B7B" d="M53.84 52.89s-2.582 10.833-2.432 11.677c.15.845 5.492 0 5.492 0"/><path fill="#A34F4F" d="m49.2 70.464 9.798-1.074s-.48 6.154-4.814 6.414c-4.335.26-4.984-5.34-4.984-5.34z" clip-rule="evenodd" fill-rule="evenodd"/></g><path fill="#1F2247" d="M38.942 25.135s10.309 7.378 17.96 4.772c4.777 4.06 12.094 6.678 19.33 2.589.616 2.47.685 6.43 1.337 8.992.965 4.005 5.294 6.305 5.294 6.305s.83-13.607 1.702-18.997c6.443-3.513 6.848-20.867-.24-23.854-7.086-2.987-12.394 1.94-21.031 2.718-8.637.778-10.982-4.279-22.393-3.73-11.412.55-23.615 12.061-17.644 24.866 2.327 12.48 3.271 21.371 3.271 21.371s3.098-.985 4.328-2.926c3.049-4.813 3.026-12.18 2.47-15.72-1.17-7.448 5.616-6.386 5.616-6.386z" clip-rule="evenodd" fill-rule="evenodd"/><mask height="48" width="69" y="3" x="21" maskUnits="userSpaceOnUse" style="mask-type:alpha" id="f"><path fill="#fff" d="M38.942 25.135s10.309 7.378 17.96 4.772c4.777 4.06 12.094 6.678 19.33 2.589.616 2.47.685 6.43 1.337 8.992.965 4.005 5.294 6.305 5.294 6.305s.83-13.607 1.702-18.997c6.443-3.513 6.848-20.867-.24-23.854-7.086-2.987-12.394 1.94-21.031 2.718-8.637.778-10.982-4.279-22.393-3.73-11.412.55-23.615 12.061-17.644 24.866 2.327 12.48 3.271 21.371 3.271 21.371s3.098-.985 4.328-2.926c3.049-4.813 3.026-12.18 2.47-15.72-1.17-7.448 5.616-6.386 5.616-6.386z" clip-rule="evenodd" fill-rule="evenodd"/></mask><g mask="url(#f)" fill="#131533" clip-rule="evenodd" fill-rule="evenodd"><path d="M34.26 25.95s4.002-6.506 12.325-2.35c8.323 4.157 19.76 5.96 26.559 2.35C81.142 27.184 90.37 13.702 86.296 6.6c-4.073-7.101 8.409 3.46 8.409 3.46s-3.58 16.739-10.14 18.735c-2.665 3.288-8.332 3.7-8.332 3.7S55.587 44.79 47.363 43.507C39.14 42.225 34.26 25.95 34.26 25.95z"/><path d="M22.55 27.797s4.243 10.067 10.906 2.964c16.69 13.956 42.777 1.735 42.777 1.735l8.915-4.123 1.148 23.405-61.682 2.335-2.065-26.316z"/><path d="M36.327 16.975c3.439-3.292 6.74-3.66 9.902-1.106 4.895 3.954 10.108 2.443 10.108 2.443s-3.174 4.001-9.628-.47c-6.454-4.47-10.49-.763-10.382-.867z" opacity=".474"/><path d="M33.672 16.86c3.863-6.65 8.812-8.695 14.846-6.132 9.337 3.965 16.742-.708 16.742-.708s-3.14 7.634-15.123 3.56c-11.982-4.073-16.587 3.49-16.465 3.28z" opacity=".474"/></g></svg>