<svg xmlns="http://www.w3.org/2000/svg" fill="none" viewBox="0 0 110 111" height="111" width="110"><path fill="#68411E" d="M63.859 31.951c4.455 2.117 21.676 10.438 19.16 24.897-1.423 6.83-4.248 9.22.22 14.884 4.47 5.663-5.493 9.78-3.507 16.34 1.987 6.56 10.555 5.162 12.557 12.881 2.324 6.626-6.169 9.079-6.169 9.079l-76.559-.03s-5.023-4.462-2.96-9.044c3.177-9.139 10.569-6.322 12.556-12.882 1.986-6.56-7.05-10.676-2.58-16.34l.969-1.234c3.755-4.816.566-7.336-.75-13.65-2.514-14.458 13.246-22.697 17.702-24.814 3.418-2.277 7.147-4.186 14.701-4.188 7.555 0 11.162 1.77 14.66 4.101z" clip-rule="evenodd" fill-rule="evenodd"/><path fill="#553416" d="m74.816 58.644-.458.645c-.828 1.169-1.055 2.286-1.077 3.108-.012.412.028.75.07.983a3.404 3.404 0 0 0 .078.332l.004.015.001.002.2.583-.582-.205-2.4-.846-.188-.067-.01-.199.297-.016-.298.016v-.015a1.343 1.343 0 0 1 0-.141 4.242 4.242 0 0 1 .385-1.604c.436-.94 1.348-1.97 3.208-2.41l.77-.181zm-3.762 4.124 1.69.596a5.316 5.316 0 0 1-.06-.983c.02-.753.194-1.717.753-2.743-1.165.455-1.753 1.193-2.057 1.849a3.645 3.645 0 0 0-.326 1.281zm-47.465 7.956a.178.178 0 0 1 .098.008c-.09 0-.123-.003-.098-.008zm.098.008c2.588-.01 51.797-2.484 51.797-2.484s-1.273 6.797-6.569 7.237c-2.194 9.86-12.098 12.623-12.098 12.623l-13.442.309s-8.006-.932-12.75-11.899c-2.923.006-4.789-2.814-5.92-4.523-.448-.679-.781-1.182-1.018-1.263zm1.17-10.75-.459-.645.77.182c1.86.44 2.773 1.47 3.209 2.41a4.242 4.242 0 0 1 .385 1.603 2.542 2.542 0 0 1 0 .142v.014l-.3-.016.3.016-.012.2-.188.066-2.4.846-.581.205.2-.582v-.003l.005-.015a3.415 3.415 0 0 0 .077-.332 4.82 4.82 0 0 0 .07-.983c-.022-.822-.248-1.94-1.077-3.108zm1.614 4.076 1.69-.597a3.65 3.65 0 0 0-.326-1.282c-.304-.654-.893-1.393-2.057-1.848a6.057 6.057 0 0 1 .753 2.743c.01.393-.02.728-.06.984z" clip-rule="evenodd" fill-rule="evenodd"/><path fill="#FAB5A3" d="M43.21 89.923s.524 3.802.464 5.284c-.955 1.186-6.41 3.007-5.884 3.223 1.613.663 7.285 5.864 11.697 5.772 4.796-.1 9.234-5.703 10.19-6.092.339-.138-3.832-2.608-4.333-2.903-.5-.294 0-5.284 0-5.284H43.212z" clip-rule="evenodd" fill-rule="evenodd"/><mask height="16" width="23" y="89" x="37" maskUnits="userSpaceOnUse" style="mask-type:alpha" id="a"><path fill="#fff" d="M43.21 89.923s.524 3.802.464 5.284c-.955 1.186-6.41 3.007-5.884 3.223 1.613.663 7.285 5.864 11.697 5.772 4.796-.1 9.234-5.703 10.19-6.092.339-.138-3.832-2.608-4.333-2.903-.5-.294 0-5.284 0-5.284H43.212z" clip-rule="evenodd" fill-rule="evenodd"/></mask><g mask="url(#a)" clip-rule="evenodd" fill-rule="evenodd"><path fill="#fff" d="M43.846 98.591s5.518 1.722 11.788-.232c8.09-1.544-6.182 8.462-6.34 8.382-.158-.081-7.47-2.464-7.396-2.778.074-.313 1.948-5.372 1.948-5.372z"/><path fill="#E89A85" d="M41.032 88.008s4.55 6.571 12.477 7.106c6.28.931 1.616-10.186 1.636-10.143.021.044-14.113 3.037-14.113 3.037z" opacity=".349" style="mix-blend-mode:multiply"/></g><path fill="#FF5A5A" d="m39.587 96.752 1.592-.758s5.96 3.75 8.191 5.873c2.425-2.248 8.306-5.873 8.306-5.873l2.425 1.03-7.538 9.089-9.86-.325-3.116-9.036z" clip-rule="evenodd" fill-rule="evenodd"/><path fill="#5A6ED5" d="M39.586 96.752s-10.219 2.187-12.268 3.066c-.134.057-.492.45-.606.501-1.17.516-2.622.765-3.198 1.101-4.584 2.386-5.659 8.582-5.659 8.582h63.91s-.418-5.969-5.071-8.398c-.779-.406-2.386-.984-3.472-1.467-.112-.05-.206-.282-.331-.336-2.291-.992-13.677-3.208-13.677-3.208s-8.263 7.615-9.796 9.378c-1.842-2.05-9.832-9.219-9.832-9.219z" clip-rule="evenodd" fill-rule="evenodd"/><mask height="15" width="65" y="96" x="17" maskUnits="userSpaceOnUse" style="mask-type:alpha" id="b"><path fill="#fff" d="M39.586 96.752s-10.219 2.187-12.268 3.066c-.134.057-.492.45-.606.501-1.17.516-2.622.765-3.198 1.101-4.584 2.386-5.659 8.582-5.659 8.582h63.91s-.418-5.969-5.071-8.398c-.779-.406-2.386-.984-3.472-1.467-.112-.05-.206-.282-.331-.336-2.291-.992-13.677-3.208-13.677-3.208s-8.263 7.615-9.796 9.378c-1.842-2.05-9.832-9.219-9.832-9.219z" clip-rule="evenodd" fill-rule="evenodd"/></mask><g mask="url(#b)" clip-rule="evenodd" fill-rule="evenodd"><path fill="#2D3669" d="M34.996 101.969s3.41 6.555 2.74 12.357c.036 4.851 23.658.427 23.658.427s.642-12.302 2.866-12.827c-2.316-2.34-29.264.043-29.264.043z"/><path fill="#2D3669" d="M51.152 110.928S64.2 100.89 76.51 98.598c6.58 1.107-3.383-2.604-3.383-2.604l-15.055 3.427-8.166 11.507h1.245z" opacity=".395" style="mix-blend-mode:multiply"/><path fill="#2D3669" d="M49.709 111.994s-13.048-10.039-25.359-12.33c-6.58 1.107 3.382-2.604 3.382-2.604l15.056 3.427 8.166 11.507H49.71z" opacity=".395" style="mix-blend-mode:multiply"/><path fill="#1D2343" d="M25.154 98.998s9.604 2.763 13.777 5.156c4.174 2.394 10.756 7.259 10.756 7.259s4.898-4.214 9.86-6.93c4.96-2.715 13.84-5.94 13.84-5.94L47.66 89.104l-22.506 9.893z"/><path fill="#2D3669" d="m25.846 115.438 1.172-8.627.754 8.627h-1.926zm45.614.767 1.172-8.626.754 8.626H71.46z" opacity=".395" style="mix-blend-mode:multiply"/></g><path fill="#FAB5A3" d="M72.081 62.652s5.901-6.648 10.876-1.15c4.974 5.497-1.407 14.08-8.04 13.012-6.633-1.067-2.836-11.862-2.836-11.862z" clip-rule="evenodd" fill-rule="evenodd"/><path fill="#C26B6B" d="M80.234 64.618a.609.609 0 0 0-.608-.609c-2.22 0-4.234 1.448-6.044 4.257a.609.609 0 1 0 1.023.659c.552-.856 1.112-1.56 1.68-2.117 1.227.282 1.823.747 1.925 1.372a.609.609 0 0 0 1.2-.196c-.158-.97-.838-1.665-1.968-2.097.716-.443 1.444-.66 2.184-.66a.609.609 0 0 0 .608-.61z" clip-rule="evenodd" fill-rule="evenodd"/><path fill="#FAB5A3" d="M26.798 64.21s-5.901-6.646-10.875-1.15c-4.975 5.498 1.406 14.081 8.039 13.014 6.633-1.068 2.836-11.863 2.836-11.863z" clip-rule="evenodd" fill-rule="evenodd"/><path fill="#C26B6B" d="M18.857 66.209a.61.61 0 0 1 .609-.609c2.22 0 4.233 1.448 6.044 4.257a.609.609 0 0 1-1.023.659c-.552-.856-1.112-1.56-1.68-2.117-1.227.282-1.823.747-1.925 1.372a.609.609 0 1 1-1.201-.196c.158-.97.84-1.665 1.97-2.097-.717-.443-1.445-.66-2.185-.66a.609.609 0 0 1-.609-.61z" clip-rule="evenodd" fill-rule="evenodd"/><path fill="#FFCDBB" d="M24.715 55.745c.724-12.52 11.516-21.908 24.056-21.908h2.015c12.463 0 23.153 9.28 24.172 21.701.21 2.555.317 4.556.236 5.4-.335 3.511-.8 5.334-1.85 9.95-1.572 10.467-8.903 19.29-19.443 20.243l-4.312.39-4.331-.413c-9.965-.952-17.698-8.755-19.13-18.662-.367-2.119-1.282-6.157-1.532-11.903-.048-1.115.004-2.802.12-4.798z" clip-rule="evenodd" fill-rule="evenodd"/><mask height="59" width="52" y="33" x="24" maskUnits="userSpaceOnUse" style="mask-type:alpha" id="c"><path fill="#fff" d="M24.715 55.745c.724-12.52 11.516-21.908 24.056-21.908h2.015c12.463 0 23.153 9.28 24.172 21.701.21 2.555.317 4.556.236 5.4-.335 3.511-.8 5.334-1.85 9.95-1.572 10.467-8.903 19.29-19.443 20.243l-4.312.39-4.331-.413c-9.965-.952-17.698-8.755-19.13-18.662-.367-2.119-1.282-6.157-1.532-11.903-.048-1.115.004-2.802.12-4.798z" clip-rule="evenodd" fill-rule="evenodd"/></mask><g mask="url(#c)"><circle fill="#FFA2A2" r="4.701" cy="80.401" cx="66.129" opacity=".625"/><circle fill="#FFA2A2" r="4.701" cy="80.401" cx="32.755" opacity=".625"/><ellipse fill="#83573D" ry="3.978" rx="2.893" cy="67.898" cx="60.941"/><ellipse fill="#83573D" ry="3.978" rx="2.893" cy="67.898" cx="38.522"/><path fill="#83573D" d="M65.212 61.28s-8.428-1.213-11.442.012c3.478-3.356 9.904-2.938 9.904-2.938l1.538 2.925zm-32.986.334s8.427-1.213 11.441.012c-3.478-3.356-9.904-2.937-9.904-2.937l-1.537 2.925z" clip-rule="evenodd" fill-rule="evenodd"/><path stroke-linecap="round" stroke-width="1.302" stroke="#D97B7B" d="M49.672 63.508s.936 5.466-.607 6.998c-1.543 1.531-1.06 4.231.739 4.745"/><path stroke-linecap="round" stroke-width="1.302" stroke="#DA7B7B" d="M46.44 80.76s4.73-.152 6.888-2.156"/></g><path fill="#68411E" d="M50.855 43.284S54 55.38 66.07 57.016c6.405 3.456 7.847 10.694 7.847 10.694s6.825-17.04 2.587-24.15c-3.803-6.567-25.65-.276-25.65-.276zm-1.502 2.267S46.36 54.61 32.754 55.745c-6.66 2.276-7.6 12.946-7.6 12.946s-6.329-17.301-2.08-24.01c3.803-6.566 26.279.87 26.279.87z" clip-rule="evenodd" fill-rule="evenodd"/><path fill="#2D3669" d="M88.96 25.639v19.457h-.566V25.64h.567z"/><path fill="#1D2343" d="M86.976 32.442v8.505s1.158.38 1.737.38c.579 0 1.665-.38 1.665-.38v-8.505s-1.205-.355-1.778-.355c-.574 0-1.624.355-1.624.355z" clip-rule="evenodd" fill-rule="evenodd"/><path fill="#5A6ED5" d="m87.505 42.887 2.33-.368s.603 19.47 2.172 21.847c-1.93.732-3.834.725-5.2.284-.132-.043-.206-.69-.248-.769-.048.103-.233.445-.37.516-.544-.174-1.152-.885-1.152-.885l2.468-20.625z" clip-rule="evenodd" fill-rule="evenodd"/><mask height="23" width="8" y="42" x="85" maskUnits="userSpaceOnUse" style="mask-type:alpha" id="d"><path fill="#fff" d="m87.505 42.887 2.33-.368s.603 19.47 2.172 21.847c-1.93.732-3.834.725-5.2.284-.132-.043-.206-.69-.248-.769-.048.103-.233.445-.37.516-.544-.174-1.152-.885-1.152-.885l2.468-20.625z" clip-rule="evenodd" fill-rule="evenodd"/></mask><g mask="url(#d)" fill="#3E50AE" clip-rule="evenodd" fill-rule="evenodd"><path d="M89.895 42.594s.322 5.592.118 10.757c-.204 5.165-.906 11.571-5.61 13.81-3.709.498 24.042 11.625 23.763 11.452-.279-.174-9.358-35.894-9.358-35.894l-8.913-.125z"/><path d="M85.71 64.413s.878-3.2 1.062-5.977c.215 6.114 0 6.878 0 6.878l-1.062-.9z"/></g><path fill="#141932" d="M48.858 12.457C46.98 12.553 8.002 24.9 7.612 26.14c-.39 1.24 40.972 9.705 40.972 9.705s42.096-8.453 41.22-9.93c-3.038-1.967-39.067-13.553-40.946-13.457z" clip-rule="evenodd" fill-rule="evenodd"/><mask height="24" width="83" y="12" x="7" maskUnits="userSpaceOnUse" style="mask-type:alpha" id="e"><path fill="#fff" d="M48.858 12.457C46.98 12.553 8.002 24.9 7.613 26.14c-.39 1.24 40.971 9.705 40.971 9.705s42.096-8.453 41.22-9.93c-3.038-1.967-39.067-13.553-40.946-13.457z" clip-rule="evenodd" fill-rule="evenodd"/></mask><g mask="url(#e)" clip-rule="evenodd" fill-rule="evenodd"><path fill="#141932" d="M47.366 14.161s12.314 7.949.452 7.563c-11.863-.385-21.507 3.58-24.617 9.31-3.11 5.731 64.85 8.709 64.85 8.709L99.21 16.939l-50.57-6.231-1.274 3.453z" opacity=".207" style="mix-blend-mode:multiply"/><path fill="#1D2343" d="M8.83 27.028s38.2-12.811 39.886-13.043c1.686-.231 40.275 12.553 40.275 12.553l6.982-5.082-41.32-25.777L1.308 18.605l3.807 10.369 3.714-1.946z"/></g><path fill="#1D2343" d="m23.95 29.886-5.61 15.746s12.76 6.467 33.053 5.73c20.293-.735 28.665-7.782 28.665-7.782l-6.364-14.2s-15.267-4.993-25.435-4.871c-10.168.122-24.31 5.377-24.31 5.377z" clip-rule="evenodd" fill-rule="evenodd"/><mask height="28" width="63" y="24" x="18" maskUnits="userSpaceOnUse" style="mask-type:alpha" id="f"><path fill="#fff" d="m23.95 29.886-5.61 15.746s12.76 6.467 33.053 5.73c20.293-.735 28.665-7.782 28.665-7.782l-6.364-14.2s-15.267-4.993-25.435-4.871c-10.168.122-24.31 5.377-24.31 5.377z" clip-rule="evenodd" fill-rule="evenodd"/></mask><g mask="url(#f)"><path fill="#141932" d="M66.725 24.492s-18.032 3.329-18.438 12.01c-.406 8.682-4.599 12.631-28.516 9.165-23.918-3.467 44.952 27.74 44.952 27.74s29.08-26.113 29.21-26.384c.13-.272-3.133-20.275-3.402-21.1-.268-.826-23.806-1.431-23.806-1.431z" clip-rule="evenodd" fill-rule="evenodd" opacity=".665"/></g></svg>