<svg xmlns="http://www.w3.org/2000/svg" width="120" height="120" viewBox="0 0 120 120"><defs><clipPath id="clip-path"><path id="矩形_8" data-name="矩形 8" transform="translate(482 219)" style="stroke:#707070;fill:#fff" d="M0 0h120v120H0z"/></clipPath><clipPath id="clip-path-2"><path id="路径_220" data-name="路径 220" d="M89.168 119.991a4.616 4.616 0 0 0-.3-2.318c-3.485-8.954-16.827-16.521-36.235-16.521s-33.347 7.56-36.277 16.507a5.163 5.163 0 0 0-.228 2.326h73.04z" style="fill:none"/></clipPath><style>.cls-12{fill:#fff}.cls-7{fill:#fdcc9b}.cls-8{fill:#fcbc85}.cls-10{fill:#684b37}.cls-11{fill:#3b2519}.cls-14{fill:#f9aa8d}</style></defs><g id="女28" transform="translate(-482 -219)"><g id="蒙版组_16" data-name="蒙版组 16" style="clip-path:url(#clip-path)"><g id="图层_2" data-name="图层 2" transform="translate(490.3 219.009)"><g id="图层_1" data-name="图层 1"><path id="路径_207" data-name="路径 207" d="M9.551 48.638h84.162s.946 26.477-.434 33.852-4.751 14.821 10.006 14.821c0 0 4.978 21.129-50.608 21.129C-4.722 118.44.1 97.311.1 97.311s12.944 1.124 11.286-8.349C7.766 75.52 9.551 48.638 9.551 48.638z" style="fill:#330c00"/><ellipse id="椭圆_75" data-name="椭圆 75" cx="22.395" cy="10.966" rx="22.395" ry="10.966" transform="translate(29.308 90.91)" style="fill:#00b497"/><path id="路径_208" data-name="路径 208" d="M89.168 119.991a4.616 4.616 0 0 0-.3-2.318c-3.485-8.954-16.827-16.521-36.235-16.521s-33.347 7.56-36.277 16.507a5.163 5.163 0 0 0-.228 2.326h73.04z" style="fill:#8fd6e7"/><path id="路径_209" data-name="路径 209" class="cls-7" d="M43.61 76.865h16.179v23.853a7.226 7.226 0 0 1-7.226 7.226h-1.728a7.226 7.226 0 0 1-7.226-7.226z"/><path id="路径_210" data-name="路径 210" class="cls-8" d="m43.069 91.479 16.72-.284v3.727a27.878 27.878 0 0 1-16.72-3.443z"/><path id="路径_211" data-name="路径 211" class="cls-7" d="M81.957 59.128c0 18.164-11.927 33.589-30.254 33.589S21.442 77.291 21.442 59.128 34.99 26.25 51.7 26.25s30.257 14.721 30.257 32.878z"/><path id="路径_212" data-name="路径 212" d="M64.718 36.882s-7.639 4.918-23.925 5.832-28.831 9.914-9.117 56.532c0 0-20.567-9.068-22.267-39.321S17.516.533 50.074 0s44.264 21.9 44.094 53.837-21.862 45.4-21.862 45.4 14.295-28.12 8.42-45.395a28.91 28.91 0 0 0-16.008-16.96z" style="fill:#401900"/><path id="路径_213" data-name="路径 213" class="cls-10" d="M36.683 50.337c2.5 0 6.088.889 6.088.526 0-1.422-2.724-2.567-6.088-2.567s-6.1 1.145-6.1 2.567c-.002.342 3.596-.526 6.1-.526z"/><path id="路径_214" data-name="路径 214" class="cls-10" d="M66.716 50.337c2.5 0 6.095.889 6.095.526 0-1.422-2.731-2.567-6.095-2.567s-6.088 1.145-6.088 2.567c0 .342 3.592-.526 6.088-.526z"/><ellipse id="椭圆_76" data-name="椭圆 76" class="cls-11" cx="4.203" cy="4.872" rx="4.203" ry="4.872" transform="translate(32.537 55.678)"/><circle id="椭圆_77" data-name="椭圆 77" class="cls-12" cx="1.686" cy="1.686" r="1.686" transform="translate(33.369 56.774)"/><ellipse id="椭圆_78" data-name="椭圆 78" class="cls-11" cx="4.203" cy="4.872" rx="4.203" ry="4.872" transform="translate(62.513 55.678)"/><circle id="椭圆_79" data-name="椭圆 79" class="cls-12" cx="1.686" cy="1.686" r="1.686" transform="translate(63.352 56.774)"/><path id="路径_215" data-name="路径 215" class="cls-8" d="M51.7 73.074c-2.134 0-4.445-2.269-4.445-1.991 0 2 1.991 3.62 4.445 3.62s4.438-1.621 4.438-3.62c.003-.278-2.33 1.991-4.438 1.991z"/><path id="路径_216" data-name="路径 216" class="cls-8" d="M51.7 84.851a8.648 8.648 0 0 1-2.574-.789c0 .8 1.152 1.422 2.574 1.422s2.574-.64 2.574-1.422a9.674 9.674 0 0 1-2.574.789z"/><path id="路径_217" data-name="路径 217" d="M51.7 82.426c-3.613 0-7.61-1.835-7.61-1.607 0 1.614 3.407 2.93 7.61 2.93s7.61-1.316 7.61-2.93c.003-.228-3.994 1.607-7.61 1.607z" style="fill:#f7945e"/><circle id="椭圆_80" data-name="椭圆 80" class="cls-14" cx="4.089" cy="4.089" r="4.089" transform="translate(28.561 69.483)"/><circle id="椭圆_81" data-name="椭圆 81" class="cls-14" cx="4.089" cy="4.089" r="4.089" transform="translate(66.837 69.483)"/><g id="组_12" data-name="组 12" style="clip-path:url(#clip-path-2)"><path id="路径_218" data-name="路径 218" d="M62.492 98.691v.363c0 5.256-4.872 9.516-10.881 9.516s-10.889-4.27-10.889-9.517v-.284h-3.157l-.107 9.9 14.224 9.765 12.09-8.911 4.843-10.86z" style="fill:#f6b1cf"/><path id="路径_219" data-name="路径 219" d="M51.632 89.538c-6.017 0-10.888 4.267-10.888 9.516s4.872 9.516 10.888 9.516 10.881-4.267 10.881-9.516-4.872-9.516-10.881-9.516zm0 17.068c-4.765 0-8.627-3.378-8.627-7.546s3.862-7.539 8.627-7.539 8.62 3.378 8.62 7.539-3.862 7.539-8.62 7.539z" style="fill:#f283b4"/></g><path id="路径_221" data-name="路径 221" d="M39.051 100.184s-7.866-2.987-9.58 4.736c0 0 1.7 4.018 11.173 7.93 6.294 2.6 9.139 4.765 10.348 5.917a4.829 4.829 0 0 1 .782.91c3.847-2.973 7.823-6.009 12.488-7.624 2.2-.768 4.182-1.152 6.088-2.61 1.493-1.138 3.079-2.745 3.492-4.644a3.037 3.037 0 0 0 0-1.614c-1-3.044-7.823-4.267-9.245-3.7a17.438 17.438 0 0 1-6.671 11.379c-6.038 4.552-6.009 6.358-6.009 6.4 0-.334-.5-.91-.661-1.181a15.751 15.751 0 0 0-1.792-2.318c-1.138-1.237-2.8-1.828-4.054-2.93a18.313 18.313 0 0 1-3.172-3.655 24.486 24.486 0 0 1-3.008-6.4c-.079-.233-.115-.411-.179-.596z" style="fill:#3abdaa"/></g></g></g></g></svg>