<svg viewBox="0 0 300 300" xmlns:xlink="http://www.w3.org/1999/xlink" xmlns="http://www.w3.org/2000/svg" id="图层_1"><defs><linearGradient gradientUnits="userSpaceOnUse" y2="152.34" x2="134.75" y1="152.34" x1="129.9" id="linear-gradient"><stop stop-color="#dbdbdb" offset="0"/><stop stop-color="#d8d8d8" offset=".3"/><stop stop-color="#cecece" offset=".54"/><stop stop-color="#bcbcbc" offset=".76"/><stop stop-color="#a4a4a4" offset=".98"/><stop stop-color="#a1a1a1" offset="1"/></linearGradient><linearGradient xlink:href="#linear-gradient" y2="152.34" x2="176.15" y1="152.34" x1="171.3" id="linear-gradient-2"/><clipPath id="clip-path"><path class="cls-1" d="M383.09 0h300v300h-300z"/></clipPath><clipPath id="clip-path-2"><path class="cls-1" d="M0 0h300v300H0z"/></clipPath><style>.cls-1{fill:none}.cls-4{fill:#dfa945}.cls-5{fill:#cc6642}.cls-10{fill:#ffe0cf}.cls-17{fill:#f5bbd4;fill-rule:evenodd}</style></defs><g style="clip-path:url(#clip-path-2)"><path class="cls-4" d="m191.36 201 33.64-.15-3-47.85-25.86 12.47-4.78 35.53z"/><path d="M111.45 258s-7-10.35-5-18.57a27.31 27.31 0 0 1 6.87-12.78s14.17-1.53 23 3.8-6 31.81-6 31.81zm76.01 0s7-10.35 5-18.57a27.21 27.21 0 0 0-6.87-12.78s-14.16-1.53-23 3.8 6 31.81 6 31.81z" class="cls-5"/><path d="m128.82 266.07-39.53-17.35-11.51 4.74a30.45 30.45 0 0 0-17.5 20.8l-6.75 31.36h31.7zm41.28 0 39.52-17.35 11.52 4.74a30.47 30.47 0 0 1 17.5 20.8l6.75 31.36h-31.7z" style="fill:#e09d8c"/><path style="fill:#e0cbbf" d="m149.46 234.6-25.99 1.06-34.18 13.06 8.56 56.9h103.22l8.55-56.9-34.17-13.06-25.99-1.06z"/><path d="m149.46 233.51-26 2.15-8.53 3.26a49.31 49.31 0 0 0 69 0l-8.53-3.26z" style="fill:#ffe8e3"/><path d="m149.46 192-21.38 10.68-1.84 34.05c6.86 7.48 14.62 8.9 22.8 8.9s16.78-1.42 23.63-8.9l-1.83-34.05z" style="fill:#f2d4c4"/><path d="M96.13 140.75s-4.74-9.78-15.64-9.46-4 31.43 6.54 35.44 13.08-15.87 13.08-15.87zm106.66 0s4.74-9.78 15.63-9.46 4 31.43-6.54 35.44-13.07-15.87-13.07-15.87z" class="cls-10"/><path d="M150 221.07c-16.36 0-33.08-9.5-46.95-28.07-10.08-13.5-13.09-39-14.58-62.47-2.73-43.38 23.31-69.3 58.63-69.3h4.81c35.33 0 58.33 25.83 58.63 69.3.13 24.77-1.47 51.47-13.54 65.47-14.31 16.65-30.69 25.07-47 25.07z" class="cls-10"/><path d="M135.84 154.38a6.94 6.94 0 1 1-6.93-6.94 6.93 6.93 0 0 1 6.93 6.94zm27.23 0a6.94 6.94 0 1 0 6.94-6.94 6.94 6.94 0 0 0-6.94 6.94z" style="fill:#5892b9"/><path d="M85 144.92s4.84 3.31 4.31 7.31c-.37 2.81-4.15 1.68-4.31 0a1.78 1.78 0 0 1 1.52-1.95 7 7 0 0 0-1.52-5.36zm129 0s-4.84 3.31-4.32 7.31c.37 2.81 4.16 1.68 4.32 0a1.8 1.8 0 0 0-1.53-1.95 7 7 0 0 1 1.53-5.36z" style="fill:#efbba0"/><path d="M191.13 138.69s-7.07-9-29 .49a1.36 1.36 0 0 0-.58 2l1.35 1.73a1.62 1.62 0 0 0 2 .41c4.1-2 14.37-8.22 26.23-4.63zm-80.86 0s7.07-9 29 .49a1.36 1.36 0 0 1 .58 2l-1.35 1.73a1.62 1.62 0 0 1-2 .41c-4.06-2-14.37-8.22-26.23-4.63z" class="cls-4"/><path class="cls-5" d="m149.46 276.08-39.83-24.73-20.34-2.63-4.06 56.9h128.46l-4.07-56.9-20.33 2.63-39.83 24.73z"/><path d="M149.46 272s-29.49-24.66-34.52-33-1.67-12.32-1.67-12.32-27.82 13.53-29.19 24.27c0 0 23.55 31.63 65.38 27.53 41.82 4.1 65.38-27.53 65.38-27.53-1.37-10.74-29.2-24.27-29.2-24.27s3.37 4-1.66 12.32-34.52 33-34.52 33z" style="fill:#ffa383"/><circle r="2.42" cy="152.34" cx="132.33" style="fill:url(#linear-gradient)"/><circle r="2.42" cy="152.34" cx="173.73" style="fill:url(#linear-gradient-2)"/><path d="M150.19 176.94H150V155l-6.56 21.33.52 1.46c.59.94 3.6 2.51 4.55 4a1.77 1.77 0 0 0 3.36 0c1.48-2.3 3.1-4.84 3.06-4.84z" style="fill:#e0cbb6"/><path d="M133.73 192.74c11-1.54 12.18 8 16.17 8s7-10.53 16.17-8c-2.99 17.2-26.77 18.16-32.34 0z" class="cls-17"/><path d="M135.5 193c3.58-.78 23.76-.43 28.88.33-4.02 12.88-24.12 11.41-28.88-.33z" style="fill:#db5a61;fill-rule:evenodd"/><path d="M135.5 193c3.58-.78 23.76-.43 28.88.33-4.8 4.2-24.86 3.2-28.88-.33z" style="fill:#fff;fill-rule:evenodd"/><path d="M133.73 192.74c5.21-2.68 27.12-2.71 32.34 0-11.14 2.07-25.83.53-32.34 0z" class="cls-17"/><path d="M182.24 148.14a28.36 28.36 0 0 0-3.46-.84 26.75 26.75 0 0 0-7.85-.33 17.57 17.57 0 0 0-2.07.38 13.9 13.9 0 0 0-1.92.61 13.72 13.72 0 0 0-1.68.76 10.81 10.81 0 0 0-1.37.87c-.42.28-.75.59-1.07.84l-.74.73-.6.67a.09.09 0 0 1-.11 0 .06.06 0 0 1 0-.09l.5-.74c.17-.24.4-.5.67-.81a11 11 0 0 1 2.41-1.92 11.36 11.36 0 0 1 1.75-.84 14.06 14.06 0 0 1 2-.58 17 17 0 0 1 2.16-.33 28.11 28.11 0 0 1 8 .55 27.7 27.7 0 0 1 3.47.93.06.06 0 0 1 0 .09.08.08 0 0 1-.09.05zm-65.56 0a28.26 28.26 0 0 1 3.47-.84 26.68 26.68 0 0 1 7.85-.3 17.2 17.2 0 0 1 2.07.38 13.9 13.9 0 0 1 1.93.62 13.72 13.72 0 0 1 1.68.76 10.81 10.81 0 0 1 1.37.87c.42.28.75.59 1.07.84l.74.73.6.67h.11a.07.07 0 0 0 0-.09l-.51-.74a9.11 9.11 0 0 0-.67-.81 11 11 0 0 0-2.41-1.92 11.36 11.36 0 0 0-1.75-.84 13.71 13.71 0 0 0-2-.58 17 17 0 0 0-2.16-.33 28.11 28.11 0 0 0-8 .55 27.7 27.7 0 0 0-3.47.93.06.06 0 0 0 0 .09.08.08 0 0 0 .08.01z" style="fill:#6b4f27;fill-rule:evenodd"/><path d="M137 112c-14.43 7.16-48 21-48 21s0 47.85 32 71l-51 2.91S41 22 170 56c16 2 61 12 52 77-.7 5.05-8.31.58-11 0-14-3-50-37-50-37s-20.29 14.16-24 16z" style="fill:#f5c25b"/></g></svg>