<svg viewBox="0 0 300 300" xmlns:xlink="http://www.w3.org/1999/xlink" xmlns="http://www.w3.org/2000/svg" id="图层_1"><defs><linearGradient gradientUnits="userSpaceOnUse" y2="154" x2="134.17" y1="154" x1="131.7" id="linear-gradient"><stop stop-color="#dbdbdb" offset="0"/><stop stop-color="#d8d8d8" offset=".3"/><stop stop-color="#cecece" offset=".54"/><stop stop-color="#bcbcbc" offset=".76"/><stop stop-color="#a4a4a4" offset=".98"/><stop stop-color="#a1a1a1" offset="1"/></linearGradient><linearGradient xlink:href="#linear-gradient" y2="154" x2="173.71" y1="154" x1="171.25" id="linear-gradient-2"/><clipPath id="clip-path"><path style="fill:none" d="M3 0h294v300H3z"/></clipPath><style>.cls-3{fill:#efb978}.cls-6{fill:#ffe0cf}.cls-8{fill:#946a9e}.cls-12{fill:#d8a66f}.cls-17{fill:#5892b9}</style></defs><g style="clip-path:url(#clip-path)"><circle r="15.12" cy="151.16" cx="207.95" class="cls-3"/><circle r="15.12" cy="169.65" cx="208.95" class="cls-3"/><circle r="15.12" cy="182.84" cx="207.14" class="cls-3"/><circle r="15.12" cy="188.1" cx="97.71" class="cls-3"/><circle r="15.12" cy="202.16" cx="116.7" class="cls-3"/><circle r="15.12" cy="196.58" cx="110.48" class="cls-3"/><circle r="15.12" cy="194" cx="196.26" class="cls-3"/><circle r="15.12" cy="200.93" cx="188" class="cls-3"/><circle r="15.12" cy="167.66" cx="92.71" class="cls-3"/><circle r="15.12" cy="166.28" cx="95.53" class="cls-3"/><circle r="16.98" cy="133.02" cx="203.82" class="cls-3"/><circle r="32.96" cy="162.08" cx="113.11" class="cls-3"/><circle r="13.49" cy="111.95" cx="90.72" class="cls-3"/><circle r="13.49" cy="133.02" cx="90.72" class="cls-3"/><circle r="14.39" cy="92.07" cx="97.71" class="cls-3"/><circle r="15.29" cy="73.18" cx="113" class="cls-3"/><circle r="12.59" cy="59.41" cx="131.7" class="cls-3"/><circle r="17" cy="62.24" cx="156.69" class="cls-3"/><path d="M180.75 70.06 197.49 73a17 17 0 1 1 .26-2.94z" class="cls-3"/><circle r="14.96" cy="81.27" cx="195.71" class="cls-3"/><path d="M191.55 236.39c5.07 10.05-17.3 19.58-39.34 19.58s-56.16-1.06-40.46-19.58c4.86-5.74 17.86-13.62 39.9-13.62s36.52 6.9 39.9 13.62z" style="fill:#e8d6ed"/><path d="M254.14 281c-34.31-18.43-77-42-77-42v-27.8l-28 .12-28-.12V239s-42.64 23.61-77 42l-4.76 64.28s41.71 7.16 108.29 13.32c.48 0 2 .08 2.25.06 67-6.17 109-13.38 109-13.38z" style="fill:#f2d4c4"/><path d="M94.19 146.68s-6.38-6.57-9.82-5.27-6.1 9.36-3.62 17.4 5.25 14.58 7.44 16.29 10.39 3.22 10.58 2.41-4.58-30.83-4.58-30.83zm109.81 0s6.39-6.57 9.83-5.27 6.1 9.36 3.62 17.4-5.24 14.58-7.44 16.29-10.4 3.22-10.58 2.41 4.57-30.83 4.57-30.83z" class="cls-6"/><path d="M206.47 97c-11-33.3-39.26-41-57.39-41s-45.68 7.74-56.63 41 7 99 9.88 103c6 6.11 20.39 18.31 20.39 18.31s22.69 10.11 28.28 10.19c6.34.1 25.23-10.19 25.23-10.19s17.41-12.23 21.44-16.31c1.92-4 19.75-71.66 8.8-105z" class="cls-6"/><path d="M209.94 159.88a12.89 12.89 0 0 0-4 7.67c-.27 3.16 2.28 2.29 2.67.44s-.6-2.31-.6-2.31a12.93 12.93 0 0 1 1.93-5.8zm-121.21 0a13 13 0 0 1 4 7.67c.26 3.16-2.28 2.29-2.68.44s.61-2.31.61-2.31a13.09 13.09 0 0 0-1.93-5.8z" style="fill:#efbba0"/><path d="M161.39 249.62 88 255l-16.21 5.17c-12 3.83-21.18 12.23-24.64 22.63l-9.5 28.53 142.44-5.57z" class="cls-8"/><path d="m154.17 258.29 56.46-3.8 16.22 5.16c12 3.84 21.17 12.24 24.64 22.64l9.51 28.52-147.31-6.14z" class="cls-8"/><path d="M150 254.91c-30.09 0-26.79-15.15-26.79-15.15L89 254l34.58 62.34h56.1L209.6 254l-34.25-14.21s-5.6 15.12-25.35 15.12z" style="fill:#e7d1ed"/><path d="M194.5 239c11.42 14.37-20.16 29.64-43.4 29.64s-54.75-15.27-41.29-27.52c11.52-10.48 18 4.23 41.28 4.23s32.04-20.63 43.41-6.35z" style="fill:#fcf3ff"/><path d="M171 192s6 10 3 20c1-11.25-3-12.5-3-20zm-41.16 0s-6 10-3 20c-1-11.25 3-12.5 3-20z" style="fill:#f7ccbc"/><path d="M158.65 142.24S167.13 139 170 138s7.28-3 12.95-1.56 10.05 3.74 10.87 3.85c0 0-11.88-3-15.58-1.89s-13.9 6-16.09 6.25-3.92-1.07-3.5-2.41zm-16.65.13s-8.66-2.8-11.61-3.64-7.43-2.55-13-.81-9 5.16-9.83 5.32c0 0 10.88-4.52 14.64-3.64s14.22 5.17 16.42 5.33 3.91-1.25 3.38-2.56z" class="cls-12"/><path d="M151.23 188.93H151l-.65-31.93-9.94 29.13.64 1.92c.72 1.24 7 5.32 8.12 7.26.64 1.08 1.35 1.62 2.06 1.62s1.42-.54 2.07-1.62c1.8-3 3.8-6.38 3.74-6.38z" style="fill:#e0cbb6"/><path d="m113 96 22-2s46.89 2.07 50 1c6.79-2.34-15.59-20.65-15.59-20.65l-45.27-1.17z" style="fill:#ccb89f"/><path d="M179 96.18S170 111 159 117c11-12 13-19.79 13-20.82s-10 16.67-23 21.82-38 7.85-43 13-10.2 18.7-8.55 26.84c4 19.66 11.5 17.66 11.5 17.66s-6.74 3.31-20.16-19.33c0 0-15.17-50.17-2.79-68.23C99.88 67.7 138 33.35 175 56c37 10.3 42 33.68 42 48.41 0 25.58-4.35 32.89-6.12 47.81-1.14 9.56-17.94 23.61-14.43 20.61 22-18.83-20.52-70.32-17.45-76.65z" class="cls-3"/><path d="M136.35 206.06c4.93.59 6.08-5.7 13.27-2.89 4.79 1.87 2.89-3.66 11.92.75a5.14 5.14 0 0 0 3.2.71c.48 0-.45.9-5.23 4.22-6.1 4.24-14 2.66-17.93.15-3.14-2-.04-.45-5.23-2.94z" style="fill-rule:evenodd;fill:#ef78a3"/><path d="M131.35 204c3.81 0-2 1 10.16 2.21 5.57.55 5.08.08 8.25.19 7.55-1.09 19.11-1.55 20.55-3 .48 1.66-15.78 3.27-17.24 3.38-7.88.57-.32.64-7.72.26-16.83-.9-9.94-2.8-14-3.04z" style="fill:#c23249;fill-rule:evenodd"/><circle r="15.72" cy="96.23" cx="202.01" class="cls-3"/><circle r="10.52" cy="112.11" cx="209.94" class="cls-3"/><path d="M94.77 177.62s-1.37 9.49 0 12.89c2.89 7.41 13.52 13.67 17.64 12.66 0 0-8.52-2.68-14-15.25-1.41-3.1-3.64-10.3-3.64-10.3zm108.52 4.97s1.67 10.11-.93 12.67-9.8 10.47-17.62 9.78c-.89-.07 8.07-.14 14.38-13.37 1.45-3.05 4.17-9.08 4.17-9.08z" class="cls-3"/><path d="M135.72 157.65c0 3.29-3 2.31-4.95 2.71-2.49.51-5.25 2.08-5.76-3.29-.43-4.59 1.84-7 6.15-7.77a2.93 2.93 0 0 1 2.94 1.08c1.21 1.51 1.66 4.33 1.62 7.27z" class="cls-17"/><ellipse ry="1.82" rx="1.23" cy="154" cx="132.94" style="fill:url(#linear-gradient)"/><path d="M134.53 151.16s-2.84-5.91-11-1.91l-1.63-1 1.63 2a24.05 24.05 0 0 1 4.88-1c1.65 0 5.7.81 6.12 1.91z" class="cls-12"/><path d="M175.38 157.65c0 3.29-2.34 2.14-4.28 2.54-2.48.52-6.25 2.25-6.43-3.12-.16-4.61 1.83-7 6.14-7.77a2.92 2.92 0 0 1 2.94 1.08c1.25 1.51 1.65 4.33 1.63 7.27z" class="cls-17"/><path d="M166.67 151.16s2.84-5.91 11-1.91l1.63-1-1.63 2a23.89 23.89 0 0 0-4.88-1c-1.65 0-5.7.81-6.12 1.91z" class="cls-12"/><ellipse ry="1.82" rx="1.23" cy="154" cx="172.48" style="fill:url(#linear-gradient-2)"/><circle r="17" cy="99.84" cx="147.57" class="cls-3"/><circle r="17" cy="107.21" cx="133" class="cls-3"/><circle r="17" cy="112.13" cx="115.02" class="cls-3"/><circle r="17" cy="120.17" cx="95.53" class="cls-3"/><circle r="17" cy="101.59" cx="195.71" class="cls-3"/><circle r="17" cy="116.04" cx="203.82" class="cls-3"/><path d="M224.11 128.83c0 9.39-9.35 17-17.8 17s-15.31-7.61-15.31-17 6.86-17 15.31-17 17.8 7.62 17.8 17z" class="cls-3"/></g></svg>