<svg viewBox="0 0 300 300" xmlns="http://www.w3.org/2000/svg" id="图层_1"><defs><linearGradient gradientUnits="userSpaceOnUse" y2="198.93" x2="163.77" y1="198.93" x1="134.79" id="未命名的渐变_8"><stop stop-color="#f2f2f2" offset="0"/><stop stop-color="#efefef" offset=".62"/><stop stop-color="#e8e8e8" offset="1"/></linearGradient><clipPath id="clip-path"><path style="fill:none" d="M3 0h294v300H3z"/></clipPath><style>.cls-4{fill:#7f634f}.cls-5{fill:#f7ccbc}.cls-6{fill:#ffdecc}.cls-13{fill:#946a9e}</style></defs><g style="clip-path:url(#clip-path)"><path d="M191.55 236.39c5.07 10.05-17.3 19.58-39.34 19.58s-56.16-1.06-40.46-19.58c4.86-5.74 17.86-13.62 39.9-13.62s36.52 6.9 39.9 13.62z" style="fill:#e8d6ed"/><path d="m218.45 94-70 22.71-69-17.42C73.21 115.17 63.93 158.19 75 170c15 16 19 35 34 35 22 0 34.21 9 46 9 7.81 0 13.06-1.27 30-4 21.3-3.43 21-21 32-29 11.94-8.68 6.64-64.77 1.45-87z" class="cls-4"/><path d="M254.14 281c-34.31-18.43-77-42-77-42v-27.8l-28 .12-28-.12V239s-42.64 23.61-77 42l-4.76 64.28s41.71 7.16 108.29 13.32c.48 0 2 .08 2.25.06 67-6.17 109-13.38 109-13.38z" class="cls-5"/><path d="M94.19 146.68s-6.38-6.57-9.82-5.27-6.1 9.36-3.62 17.4 5.25 14.58 7.44 16.29 10.39 3.22 10.58 2.41-4.58-30.83-4.58-30.83zm109.81 0s6.39-6.57 9.83-5.27 6.1 9.36 3.62 17.4-5.24 14.58-7.44 16.29-10.4 3.22-10.58 2.41 4.57-30.83 4.57-30.83z" class="cls-6"/><path d="M208.07 92.94C196.81 58.35 166.14 55 147.5 55s-45.39 3.35-56.66 37.94 6.42 100.57 13.68 111.16c6.22 6.35 17.45 14.82 17.45 14.82s23.33 10.49 29 10.58c6.52.11 25.94-10.58 25.94-10.58s13.4-10.59 17.55-14.82c5.23-6.35 24.87-76.57 13.61-111.16z" class="cls-6"/><path d="M121 99s-28.13 21.29-29.12 62.58c0 0-11.39-15-15.69-28.59-4-12.7 5.32-41.28 9.47-48.69 6.46-11.54 11.41-16.94 27-22.23 42.53-37.06 96.29 16.29 97.52 18C221.56 95.94 227 128 220.52 137.23c-8.16 11.63-16.6 25.41-16.6 25.41S198 178 180.06 109.7c-1.61-6.15-31.21-12.38-54.06-7.7-1.47.3-3.61-3.39-5-3z" style="fill:#9b8270"/><path d="M133 197.75c1.85 3.69 8.42 6.43 16.25 6.43s14.41-2.74 16.26-6.43z" style="fill:#b41f20"/><path d="M161.51 201.48c-2.25-1.81-6.87-3-12.23-3s-10 1.24-12.22 3a29 29 0 0 0 24.45 0z" style="fill:#d42e2f"/><path d="M163.77 197.75h-29a7.54 7.54 0 0 0 4 1.91c3.25.46 10.46.46 10.46.46s7.22 0 10.47-.46a7.47 7.47 0 0 0 4.07-1.91z" style="fill:url(#未命名的渐变_8)"/><path d="M187.25 144s-7.34-7.64-24.56-3.86c-.63.13-.89.7-.52 1.11l-.13-.06a6 6 0 0 0 3.13.45c3.19-.81 10.48-2.25 22.08 2.36zM110 144s7.34-7.64 24.57-3.86c.62.13.88.7.51 1.11l.13-.06a6 6 0 0 1-3.13.45c-3.18-.81-10.48-2.25-22.08 2.36z" class="cls-4"/><path d="M209.94 159.88a12.89 12.89 0 0 0-4 7.67c-.27 3.16 2.28 2.29 2.67.44s-.6-2.31-.6-2.31a12.93 12.93 0 0 1 1.93-5.8zm-121.21 0a13 13 0 0 1 4 7.67c.26 3.16-2.28 2.29-2.68.44s.61-2.31.61-2.31a13.09 13.09 0 0 0-1.93-5.8zm60.11 26.31a50.74 50.74 0 0 1-7.35-.79s1.4 2.4 7.35 2.62c6-.22 7.36-2.62 7.36-2.62a50.82 50.82 0 0 1-7.36.79z" style="fill:#efbba0"/><path d="M120.16 165.37c-2.15.4-3.42-.15-1-1.44s9.67-3.59 16.43-.71c1.85.78-2.9.71-7.73.71-2.86 0-3.86.72-7.7 1.44zm57.6 0c2.14.4 3.42-.15 1-1.44s-9.66-3.59-16.43-.71c-1.85.78 2.9.71 7.73.71 2.86 0 3.83.72 7.7 1.44z" style="fill:#66605e"/><path d="M161.39 249.62 88 255l-16.21 5.17c-12 3.83-21.18 12.23-24.64 22.63l-9.5 28.53 142.44-5.57z" class="cls-13"/><path d="m154.17 258.29 56.46-3.8 16.22 5.16c12 3.84 21.17 12.24 24.64 22.64l9.51 28.52-147.31-6.14z" class="cls-13"/><path d="M150 254.91c-30.09 0-26.79-15.15-26.79-15.15L89 254l34.58 62.34h56.1L209.6 254l-34.25-14.21s-5.6 15.12-25.35 15.12z" style="fill:#e7d1ed"/><path d="M194.5 239c11.42 14.37-20.16 29.64-43.4 29.64s-54.75-15.27-41.29-27.52c11.52-10.48 18 4.23 41.28 4.23s32.04-20.63 43.41-6.35z" style="fill:#fcf3ff"/><path d="M132.49 191.62S127 205 122.88 205.38C127 199 129 197 132.49 191.62zm33.39 0s5.49 13.38 9.61 13.76c-4.12-6.38-6.11-8.38-9.61-13.76z" class="cls-5"/></g></svg>