<svg viewBox="0 0 1200 1200" xmlns="http://www.w3.org/2000/svg" id="图层_1"><defs><clipPath id="clip-path"><circle r="462.13" cy="-647.23" cx="590.71" class="cls-1"/></clipPath><clipPath id="clip-path-2"><circle r="462.13" cy="600" cx="600" class="cls-1"/></clipPath><style>.cls-1{fill:none}.cls-18,.cls-19{stroke-miterlimit:10;stroke:#370911;stroke-width:14px}.cls-9{fill:#271d1f}.cls-18{fill:#fff}.cls-14{fill:#de717e}.cls-19{fill:#343535}</style></defs><circle r="462.13" cy="600" cx="600" style="fill:#84a7b5"/><g style="clip-path:url(#clip-path)"><path style="stroke-width:10px;stroke-miterlimit:10;fill:#f2f2f2;stroke:#360810" d="M722.44-188.23V-7.07L440.86-.1l-8.94-207.62 290.52 19.49z"/></g><g style="clip-path:url(#clip-path-2)"><path style="stroke:#370911;stroke-width:14px;fill:#eab9b1;stroke-miterlimit:10" d="M477.37 781.94 464.34 946.9l158.45 68.13 115.62-49.55-9.34-179.55-229.12-6.77-22.58 2.78z"/><path d="M896.47 594c0 39.85-26.09 78.15-58.28 78.15s-58.27-32.3-58.27-72.15 33.09-72.15 65.27-72.15 51.28 26.3 51.28 66.15zm-475.39 6c0 39.85-26.09 72.15-58.27 72.15s-59.28-38.3-59.28-78.15 20.09-66.15 52.28-66.15 65.27 32.3 65.27 72.15z" style="fill:#fde9d1;stroke:#370911;stroke-width:14px;stroke-miterlimit:10"/><ellipse ry="281.42" rx="242.17" cy="559.3" cx="601.11" style="fill:#f9d9d0;stroke:#370911;stroke-width:14px;stroke-miterlimit:10"/><ellipse ry="29.16" rx="26.84" cy="592.76" cx="500.11" class="cls-9"/><ellipse ry="29.16" rx="26.84" cy="592.76" cx="692.62" class="cls-9"/><path d="M658 512.22s5.84-17 42.48-15.46 43 16.46 43 16.46m-287.01-1s5.84-17 42.49-15.46 43 16.46 43 16.46" style="stroke:#231815;stroke-width:20px;stroke-linecap:round;stroke-miterlimit:10;fill:none"/><ellipse ry="39.74" rx="72.77" cy="684.32" cx="600.02" style="fill:#ee8685;stroke:#310304;stroke-width:10px;stroke-miterlimit:10"/><path d="M545.92 705.77c13.66 8.25 33.73 14 55.7 14 23.75 0 38.78-4.56 52.45-14-4.38-13.12-24.71-19.32-53.32-19.32-30.1 0-52.38 5.2-54.83 19.32z" style="fill:#e5415b"/><path d="M603.9 672.72c33.07 0 48.65-1 62.3-6.41-4.15-13.69-12.31-20.09-66.22-17.18-51-2.7-61.07 3.11-66.21 15.21 11.61 7.13 28.16 8.38 70.13 8.38z" style="fill:#fff"/><circle r="49.53" cy="643.05" cx="450.15" class="cls-14"/><circle r="49.53" cy="643.05" cx="749.85" class="cls-14"/><path d="M600 172.4c-7 .07-14 .37-21.08 1C448.82 184.2 371.61 271 350 328.2c-42.84 113.55 0 253.55 0 253.55s5.89 33.33 22.92-38.11-3.09-99.83 10.84-112.73 3.1 5.68 20.13-28.39 7.16-76.57 46.45-88.26c26.19-7.78 88.16-12.18 149.63-12.82zm0 0c7 .07 14 .37 21.08 1C751.18 184.2 828.39 271 850 328.2c42.84 113.55 0 253.55 0 253.55s-5.89 33.33-22.92-38.11 3.09-99.83-10.84-112.73-3.1 5.68-20.13-28.39-7.16-76.57-46.45-88.26c-26.19-7.78-88.16-12.18-149.63-12.82z" style="fill:#211d1e"/><path d="M393.55 501s95.54 40.56 218.11 35.15 196.48-30.64 196.48-30.64L823.76 528s86.71-16.43 78.48-114.36c-8.12-96.48-120.24-248.8-297.79-239.79C384.56 185 289.54 328.88 295.84 430.72S372 547.62 372 547.62l11.2-29.72z" style="fill:#231815"/><path d="M388.77 505.53s52.37-99.14 215.5-95.54c151.45 3.35 196.38 100.95 196.38 100.95s-48.06-120.78-195.88-120.78c-198.28 0-216 115.37-216 115.37z" style="fill:#f7e17a;stroke:#e60012;stroke-miterlimit:10"/><path class="cls-18" d="M738.12 861.35 857.73 986.2l-104.15 460.62-104.16-89.48-25.45-335.44 24.8-56.94 89.35-103.61z"/><path d="M727.66 853.2s60.63 46 62.59 59.65-70.41 138.87-83.13 134-101-102.68-101-102.68 95.13-50.86 105.38-64.55a164.38 164.38 0 0 0 16.16-26.42z" class="cls-18"/><path d="M1010.29 1022.38c54.77 57.7 94.87 180.93 122.25 280.68s61.61 333.49 61.61 333.49l-532-31.3S801 1049.77 813.72 990.11s25.68-72.87 25.68-72.87 116.13 47.44 170.89 105.14z" class="cls-19"/><path d="M872.4 954.9c8.8 23.48 6.85 119.32-12.71 190.71s-172.13 352.07-172.13 352.07 64.55-396.08 70.42-484.1S767.4 886 767.4 886s82.51 31.78 92.29 44.49 12.71 24.41 12.71 24.41z" class="cls-19"/><path class="cls-18" d="M459.11 861.35 339.5 986.2l104.16 460.62 104.15-89.48 35.12-333.89-34.46-58.49-89.36-103.61z"/><path d="M469.57 853.2s-60.63 46-62.59 59.65 70.42 138.87 83.13 134 99.79-102.7 99.79-102.7-94-50.86-104.21-64.55a164.38 164.38 0 0 1-16.12-26.4z" class="cls-18"/><path d="M186.94 1022.38c-54.77 57.7-94.86 180.93-122.25 280.68S3.08 1636.55 3.08 1636.55l532-31.3s-138.85-555.48-151.57-615.14-25.68-72.87-25.68-72.87-116.12 47.44-170.89 105.14z" class="cls-19"/><path d="M324.83 954.9c-8.8 23.48-6.84 119.32 12.72 190.71s172.12 352.07 172.12 352.07-64.55-396.08-70.41-484.1S429.84 886 429.84 886s-82.51 31.78-92.29 44.49-12.72 24.41-12.72 24.41z" class="cls-19"/><path style="stroke-linejoin:round;fill:#343535;stroke-linecap:round;stroke:#370911;stroke-width:14px" d="m598.5 944.15 60.7 70.35-34.9 49.88-47.92-1.9-35.58-48.9 57.7-69.43z"/><path class="cls-19" d="m528.18 1350.98 71.88 146.7 71.76-141.56-48.78-292.84-47.92-.8-46.94 288.5z"/></g></svg>