<svg viewBox="0 0 300 300" xmlns:xlink="http://www.w3.org/1999/xlink" xmlns="http://www.w3.org/2000/svg" id="图层_1"><defs><linearGradient gradientUnits="userSpaceOnUse" y2="194.08" x2="167.59" y1="194.08" x1="128.08" id="未命名的渐变_8"><stop stop-color="#f2f2f2" offset="0"/><stop stop-color="#efefef" offset=".62"/><stop stop-color="#e8e8e8" offset="1"/></linearGradient><linearGradient gradientUnits="userSpaceOnUse" y2="140.67" x2="125.42" y1="140.67" x1="123.07" id="linear-gradient"><stop stop-color="#dbdbdb" offset="0"/><stop stop-color="#d8d8d8" offset=".3"/><stop stop-color="#cecece" offset=".54"/><stop stop-color="#bcbcbc" offset=".76"/><stop stop-color="#a4a4a4" offset=".98"/><stop stop-color="#a1a1a1" offset="1"/></linearGradient><linearGradient xlink:href="#linear-gradient" y2="140.67" x2="179.4" y1="140.67" x1="177.05" id="linear-gradient-2"/><clipPath id="clip-path"><path class="cls-1" d="M1.5 1.5h297v297H1.5z"/></clipPath><clipPath id="clip-path-2"><path d="M210.73 77.2c-3-8.27-20.46-26.28-62.9-26.28S88 68.93 84.92 77.2s-8.77 24.16-7 41.71a145.33 145.33 0 0 0 7.92 33.4l3.78 4.63-.54-38.57 8-9.29 4.55-15.54c8.14 2.29 46.18 5.18 46.18 5.18s38-2.89 46.18-5.18l4.54 15.54 8 9.29-.53 38.57 3.78-4.63a145.33 145.33 0 0 0 7.92-33.4c1.8-17.55-3.92-33.45-6.97-41.71z" class="cls-1"/></clipPath><style>.cls-1{fill:none}.cls-5{fill:#d42e2f}.cls-6{fill:#b41f20}.cls-7{fill:#ffd9c1}.cls-8{fill:#3f2f31}.cls-11{fill:#d9e5e8}.cls-12{fill:#424242}.cls-13{fill:#2e2e2e}.cls-14{fill:#5c3e31}</style></defs><g style="clip-path:url(#clip-path)"><path style="fill:#f6c1a9" d="M183.39 264.69h-71.6l2.83-66.49h65.94l2.83 66.49z"/><path d="M112 235.87s22.9 18.07 36 27.53v122.15c-62.71-2.24-130.68-23.18-130.68-23.18l23.42-82.25zm72 0s-22.9 18.07-36 27.53v122.15c62.7-2.24 130.68-23.18 130.68-23.18l-23.43-82.25z" style="fill:#a1b7bf"/><path class="cls-5" d="M154.22 281.33h-12.81l-7.07-15.41 13.68-6.22 13.22 6.22-7.02 15.41z"/><path d="M135.55 381.16q6.25.45 12.47.68 6-.21 12-.64l-5.85-99.87h-12.81z" class="cls-6"/><path d="M85.93 148.72s-4.75-4.34-8.69-2.58-5.56 9.64-3.93 15.35 9 20.36 12.62 22.26 9.65 1.25 9.65 1.25zm123.78 0s4.76-4.34 8.7-2.58 5.56 9.64 3.93 15.35-9 20.36-12.63 22.26-9.63 1.23-9.63 1.23z" class="cls-7"/><path d="M212.21 108.94c-3.53-36.94-41-49.43-64.63-49.43S86.48 72 83 108.94s12.17 85.56 12.34 89.18c.21 4.38 34.33 27.49 38.21 28.3a89.13 89.13 0 0 0 28.17 0c3.87-.81 33.9-22.67 37.83-27.92 2.95-4 16.19-52.63 12.66-89.56z" class="cls-7"/><path d="M126.77 141.75c0 5.32-.27 8.52-5.78 9.63-3.14.63-5.49-1.11-5.78-9.63-.17-5.32.33-8.81 5.78-9.63 4.51-.68 5.78 4.31 5.78 9.63zm42.42 0c0 5.32.26 8.52 5.77 9.63 3.14.63 5.49-1.11 5.78-9.63.18-5.32-.32-8.81-5.78-9.63-4.51-.68-5.77 4.31-5.77 9.63z" class="cls-8"/><path d="M164.47 124.71c-2.29 0-2.54-3.59 0-5.38s18.39-2.33 21.75-1.25-11.22 6.7-21.75 6.63zm-34.3 0c2.28 0 2.54-3.59 0-5.38s-18.39-2.33-21.75-1.25 11.25 6.7 21.75 6.63z" style="fill:#47342d"/><path d="M147.83 173.9a18.06 18.06 0 0 1-5.71-1.43 5.8 5.8 0 0 0 11.41 0 18 18 0 0 1-5.7 1.43z" style="fill:#d89e84"/><path class="cls-11" d="m184.04 230.71-36.51 28.92 27.93 23.07 14.6-43.09-6.02-8.9z"/><path d="M185.14 230.71 155.63 385s53.44-1.52 99-13.12l20.82-111.53-83.12-20.7z" class="cls-12"/><path d="m297.57 362.37-22.16-102.06c-11.53 30.92-23.85 100.85-25.28 112.39 28.26-5.36 47.44-10.33 47.44-10.33z" class="cls-13"/><path d="M82 86.14s3.34-20.87 28.1-39.64a33.92 33.92 0 0 1 1 6.56A125.62 125.62 0 0 1 155 37.5a24.2 24.2 0 0 1-.89 8.7s24.08-5.65 38.83-5.65a34.06 34.06 0 0 1 1 9.77l7.8-2s9.5 21 12.87 40.78z" class="cls-14"/><path d="M210.73 77.2c-3-8.27-20.46-26.28-62.9-26.28S88 68.93 84.92 77.2s-8.77 24.16-7 41.71a145.33 145.33 0 0 0 7.92 33.4l3.78 4.63-.54-38.57 8-9.29 4.55-15.54c8.14 2.29 46.18 5.18 46.18 5.18s38-2.89 46.18-5.18l4.54 15.54 8 9.29-.53 38.57 3.78-4.63a145.33 145.33 0 0 0 7.92-33.4c1.8-17.55-3.92-33.45-6.97-41.71z" class="cls-14"/><path d="M210.73 77.2c-3-8.27-20.46-26.28-62.9-26.28S88 68.93 84.92 77.2s-8.77 24.16-7 41.71a145.33 145.33 0 0 0 7.92 33.4l3.78 4.63-.54-38.57 8-9.29 4.55-15.54c8.14 2.29 46.18 5.18 46.18 5.18s38-2.89 46.18-5.18l4.54 15.54 8 9.29-.53 38.57 3.78-4.63a145.33 145.33 0 0 0 7.92-33.4c1.8-17.55-3.92-33.45-6.97-41.71z" class="cls-1"/><path class="cls-13" d="m183.09 227.35-24.84 157.61 9-.52 36.47-63.69-11.32-79.1-9.31-14.3zM-1.53 362.37l22.16-102.06c11.53 30.92 23.85 100.85 25.28 112.39-28.26-5.36-47.44-10.33-47.44-10.33z"/><path class="cls-11" d="m112 230.71 35.53 28.92-26.65 23.07-14.9-43.09 6.02-8.9z"/><path d="M110.9 230.71 140.41 385s-53.44-1.52-99-13.12L20.63 260.31l83.12-20.7z" class="cls-12"/><path class="cls-13" d="m112 227.35 24.84 157.61-8.99-.52-36.48-63.69 11.33-79.1 9.3-14.3z"/><path d="M215.1 158.82s-5.19 4.12-6 10.23c-.56 4.3 3 3.28 3.7.77s-.69-3.2-.69-3.2a17.56 17.56 0 0 1 2.99-7.8zm-133.98 0s5.19 4.12 6 10.23c.57 4.3-3 3.28-3.7.77s.7-3.2.7-3.2a17.56 17.56 0 0 0-3-7.8z" style="fill:#efbba0"/><path d="M125.67 191.72c2.52 7.34 11.48 12.78 22.17 12.78s19.64-5.44 22.16-12.78z" class="cls-6"/><path d="M164.5 199.14c-3.07-3.59-9.37-6.06-16.66-6.06s-13.6 2.47-16.67 6.06a28.59 28.59 0 0 0 33.33 0z" class="cls-5"/><path d="M167.59 191.72h-39.51a9.46 9.46 0 0 0 5.49 3.81c4.43.91 14.27.91 14.27.91s9.83 0 14.26-.91a9.46 9.46 0 0 0 5.49-3.81z" style="fill:url(#未命名的渐变_8)"/><ellipse ry="1.83" rx="1.18" cy="140.67" cx="124.25" style="fill:url(#linear-gradient)"/><ellipse ry="1.83" rx="1.18" cy="140.67" cx="178.23" style="fill:url(#linear-gradient-2)"/><path d="m102.5 93.5-20-23s-10 53-10 55 14 36 14 36 9 1 9-2 7-66 7-66zm92 0 20-23s10 53 10 55-14 36-14 36-9 1-9-2-7-66-7-66z" class="cls-8" style="clip-path:url(#clip-path-2)"/></g></svg>