<svg viewBox="0 0 300 300" xmlns:xlink="http://www.w3.org/1999/xlink" xmlns="http://www.w3.org/2000/svg" id="图层_1"><defs><linearGradient gradientUnits="userSpaceOnUse" y2="201.15" x2="167.48" y1="201.15" x1="135.19" id="未命名的渐变_8"><stop stop-color="#f2f2f2" offset="0"/><stop stop-color="#efefef" offset=".62"/><stop stop-color="#e8e8e8" offset="1"/></linearGradient><linearGradient gradientUnits="userSpaceOnUse" y2="157.82" x2="129.87" y1="157.82" x1="127" id="linear-gradient"><stop stop-color="#dbdbdb" offset="0"/><stop stop-color="#d8d8d8" offset=".3"/><stop stop-color="#cecece" offset=".54"/><stop stop-color="#bcbcbc" offset=".76"/><stop stop-color="#a4a4a4" offset=".98"/><stop stop-color="#a1a1a1" offset="1"/></linearGradient><linearGradient xlink:href="#linear-gradient" y2="157.82" x2="177.87" y1="157.82" x1="175" id="linear-gradient-2"/><clipPath id="clip-path"><path class="cls-1" d="M0 0h300v300H0z"/></clipPath><clipPath id="clip-path-2"><path class="cls-1" d="M1.5-373.61h297v297H1.5z"/></clipPath><style>.cls-1{fill:none}.cls-6{fill:#ffdecc}.cls-7{fill:#efbba0}.cls-8{fill:#719dcc}.cls-9{fill:#7594bd}.cls-10{fill:#e1ecf9}.cls-11{fill:#b41f20}.cls-15{fill:#3f2f31}.cls-21{fill:#424242}.cls-22{fill:#2e2e2e}</style></defs><g style="clip-path:url(#clip-path)"><path d="M97.93 174.89S83 186 83 199s3.84 21.53 23 27c14 4 29-10 29-10z" style="fill:#3f2d29"/><path d="M246.2 294.27c-31-22.07-69.63-50.33-69.63-50.33v-33.23l-25.36.14-25.35-.14v33.23s-38.58 28.26-69.63 50.33l-4.31 77s37.74 8.58 98 15.95a18.91 18.91 0 0 0 2 .07c60.58-7.39 98.57-16 98.57-16z" style="fill:#f7ccbc"/><path style="fill:#d6e0ea" d="m125 261 26.01 14.17L177 262l-4.19 50h-44.69L125 261z"/><path d="M94.37 149.76s-6.36-6.21-9.78-5-6.08 8.83-3.61 16.43 5.22 13.81 7.41 15.42 10.35 3 10.54 2.28-4.56-29.13-4.56-29.13zm115.63 0s6.37-6.21 9.79-5 6.08 8.83 3.61 16.43-5.27 13.81-7.4 15.42-10.36 3-10.54 2.28 4.54-29.13 4.54-29.13z" class="cls-6"/><path d="M211.33 99c-10.86-32.67-41.24-40.27-59.2-40.27S103.65 66.33 92.79 99s1.55 79.86 12.21 96c4.53 6.85 10 16 10 16s29.88 19 38 19c7.11 0 35-17 35-17s7.64-10.52 12-18c9.75-16.71 22.18-63.32 11.33-96z" class="cls-6"/><path d="M161.13 183.62a6.76 6.76 0 0 1-.49.76 10.84 10.84 0 0 1-1.64 1.72 11.28 11.28 0 0 1-2.82 1.84 11.55 11.55 0 0 1-1.88.66 17.83 17.83 0 0 1-2.14.26l-.11-.65-.21-.66-.06.64-.22.3-.45.1a7.7 7.7 0 0 1-.92-.07 12.39 12.39 0 0 1-2-.67 11.87 11.87 0 0 1-1.55-.87 10.22 10.22 0 0 1-1.25-1 9.29 9.29 0 0 1-2.08-2.48.21.21 0 0 1 .09-.28.18.18 0 0 1 .19 0l.73.37c.46.25 1.15.55 1.95.93.39.2.85.35 1.3.55s1 .3 1.47.51 1 .25 1.51.39 1.26.12 1.69.14 1.08-.06 1.63-.12 1.07-.22 1.57-.4 1-.32 1.47-.51.92-.34 1.31-.54c.8-.38 1.49-.66 2-.91l.74-.37a.23.23 0 0 1 .3.1.23.23 0 0 1 0 .2z" class="cls-7"/><path d="M176.57 241 167 320s58.15-3.91 80.86-7c0 0 1.6-24.39-.65-43.76A650.62 650.62 0 0 0 176.57 241z" class="cls-8"/><path d="m247.21 269.23-4.37 44.31A171 171 0 0 0 269 309s-8.39-21.2-21.79-39.77z" class="cls-9"/><path class="cls-10" d="m169 277 21-8.13v-3.64l27-2.23-24.6-19.97-15.77-6.66L169 277z"/><path d="M125.85 241 140 321s-62.73-4.91-85.45-8c0 0-1.59-24.39.65-43.76A651.22 651.22 0 0 1 125.85 241z" class="cls-8"/><path class="cls-10" d="m136 276-24-7.13v-3.64L86 262l23.6-18.97 15.78-6.66L136 276z"/><path d="M55.22 271.74 59.43 320a157.38 157.38 0 0 1-25.73-5s8.12-23 21.52-43.26z" class="cls-9"/><path d="M133.22 198.92c2.06 6.94 9.38 12.08 18.11 12.08s16-5.14 18.12-12.08z" class="cls-11"/><path d="M165 205.93c-2.51-3.39-7.66-5.72-13.62-5.72s-11.11 2.33-13.62 5.72a20.83 20.83 0 0 0 27.24 0z" style="fill:#d42e2f"/><path d="M167.48 198.92h-32.29a7.81 7.81 0 0 0 4.48 3.6c3.62.86 11.66.86 11.66.86s8 0 11.66-.86a7.86 7.86 0 0 0 4.49-3.6z" style="fill:url(#未命名的渐变_8)"/><path d="M121 95s-30 16-28.07 62.81A33.16 33.16 0 0 0 88 145c-2.45-3.78-6.36 9.86-8 0-3-18-12-70 32-87 0 0 13-14.79 47-13 38 2 60 28 66 62 1.1 6.23 4 51-4 39-8-2-6 8-12 12 0 0 2-19-18-38-8.46-8-26-19-36-24 1.62 4.55 36 23 37 30-12-11-29-9-71-31z" style="fill:#5c3e31"/><path d="M87.48 162.06s5.06 2.45 6.86 7.35c1.27 3.45-1.9 3.28-2.92 1.33s0-2.78 0-2.78a15 15 0 0 0-3.94-5.9zm129.15 0s-5.06 2.45-6.86 7.35c-1.26 3.45 1.91 3.28 2.92 1.33s0-2.78 0-2.78a14.92 14.92 0 0 1 3.94-5.9z" class="cls-7"/><path d="M132.08 158.25c0 4.78-.29 7.65-6.19 8.64-3.36.57-5.54-1.24-5.85-8.89-.19-4.77 0-7.65 5.85-8.39 4.83-.61 6.19 3.87 6.19 8.64z" class="cls-15"/><ellipse ry="2.18" rx="1.43" cy="157.82" cx="128.43" style="fill:url(#linear-gradient)"/><path d="M180.08 158.25c0 4.78-.29 7.65-6.19 8.64-3.36.57-5.54-1.24-5.85-8.89-.19-4.77 0-7.65 5.85-8.39 4.83-.61 6.19 3.87 6.19 8.64z" class="cls-15"/><ellipse ry="2.18" rx="1.43" cy="157.82" cx="176.43" style="fill:url(#linear-gradient-2)"/><path d="M112.06 138.94a24 24 0 0 1 10.42-1.86c5.58.37 9.68.75 14.52 3.35a21.53 21.53 0 0 0-14.89-6.7c-4.68 0-9.68 2.98-10.05 5.21zm74.94 0a24 24 0 0 0-10.42-1.86c-5.59.37-9.68.75-14.52 3.35a21.52 21.52 0 0 1 14.89-6.7c4.67 0 9.68 2.98 10.05 5.21z" style="fill:#634335"/></g><g style="clip-path:url(#clip-path-2)"><path d="M112-139.23s22.9 18.06 36 27.53V10.44C85.31 8.21 17.34-12.74 17.34-12.74L40.76-95zm72 0s-22.9 18.06-36 27.53V10.44c62.72-2.23 130.7-23.18 130.7-23.18L255.27-95z" style="fill:#a1b7bf"/><path d="M135.55 6.06c4.17.29 8.33.53 12.47.68q6-.23 12-.65l-5.85-99.87h-12.81z" class="cls-11"/><path d="M185.14-144.39 155.63 9.85s53.44-1.52 99-13.12l20.78-111.53-83.12-20.69z" class="cls-21"/><path class="cls-22" d="M183.09-147.75 158.25 9.85l9-.51 36.47-63.7-11.32-79.1-9.31-14.29z"/><path d="M110.9-144.39 140.41 9.85S87 8.33 41.44-3.27L20.63-114.8l83.12-20.69z" class="cls-21"/><path class="cls-22" d="m112-147.75 24.84 157.6-8.99-.51-36.48-63.7 11.33-79.1 9.3-14.29z"/></g></svg>