<svg xmlns="http://www.w3.org/2000/svg" fill="none" viewBox="0 0 110 110" height="110" width="110"><path fill="#BD4A4A" d="M49.5 89.5c-4.4 0-8.5 1-10 1.5-.166 1.667-.5 5.1-.5 5.5 0 .4 2 4.5 3 6.5l18-4.5.5-7.5c-1.833-.5-6.6-1.5-11-1.5z"/><path fill="#FFB5B5" d="M42.646 85.117s.143 5.466-.788 8.486c-2.13 7.111-20.231 4.742-21.063 9.124 3.433.925 63.644 8.044 62.267 2.468-4.204-9.803-19.299-1.212-26.793-11.592-1.093-2.612-.236-9.603-.236-9.603l-13.387 1.117z" clip-rule="evenodd" fill-rule="evenodd"/><mask height="24" width="64" y="84" x="20" maskUnits="userSpaceOnUse" style="mask-type:alpha" id="a"><path fill="#fff" d="M43 85s-.21 5.583-1.142 8.603c-2.13 7.111-20.231 4.742-21.063 9.124 3.433.925 63.644 8.044 62.267 2.468-4.204-9.803-19.299-1.212-26.793-11.592-1.093-2.612-.236-9.603-.236-9.603L43 85z" clip-rule="evenodd" fill-rule="evenodd"/></mask><g mask="url(#a)"><path fill="#E89A85" d="M41 86s4.65 8.678 16.642 9.86c5.81-.322-2.987-8.514-2.987-8.514L41 86z" clip-rule="evenodd" fill-rule="evenodd" opacity=".349" style="mix-blend-mode:multiply"/></g><path fill="#fff" d="m42 92-2.5 2.5-2 2 13 9.5 10-9.5-4-4c-1.166 1.833-4.5 5.5-7 6-3-1-5.666-4.333-7.5-6.5z"/><mask height="14" width="24" y="92" x="37" maskUnits="userSpaceOnUse" style="mask-type:alpha" id="b"><path fill="#fff" d="m42 92-2.5 2.5-2 2 13 9.5 10-9.5-4-4c-1.166 1.833-4.5 5.5-7 6-3-1-5.666-4.333-7.5-6.5z"/></mask><g mask="url(#b)"><path fill="#C4C4C4" d="M45 101c1.82-1 3.5-2 4.5-3h1s-1.5 1.5-5.5 3z"/></g><path fill="#EC6B6B" d="M39.457 91c-.383.333-6.518 5.333-6.518 5.333-3.067 1.223-8.668 3.267-13.27 4.334-4.6 1.066-6.518 7.889-7.668 9.333h75c0-2.667-2.53-7-4.984-8.333-2.454-1.334-11.886-4-16.487-5.334 0 0-4.218-4.333-4.985-5.333-.383 1.333-.767 2.667-1.15 3.637-2.31 2.94-7.748 7.096-9.895 7.363-2.152-.802-6.023-4.147-8.893-7-.383-.363-.767-2.667-1.15-4z"/><mask height="19" width="76" y="91" x="12" maskUnits="userSpaceOnUse" style="mask-type:alpha" id="c"><path fill="#6D1B1B" d="M39.457 91c-.383.333-6.518 5.333-6.518 5.333-3.067 1.223-8.668 2.267-13.27 3.334-4.6 1.066-6.518 8.889-7.668 10.333h75c0-2.667-2.53-7-4.984-8.333-2.454-1.334-11.886-4-16.487-5.334 0 0-4.218-4.333-4.985-5.333-.383 1.333-.767 2.667-1.15 3.637-2.31 2.94-7.748 7.096-9.895 7.363-2.152-.802-6.023-4.147-8.893-7-.383-.363-.767-2.667-1.15-4z"/></mask><g mask="url(#c)" fill="#C45656"><path d="M46 111.5c10-2.5 17.842-13.237 19-17l.247.632C65.117 99.121 57.5 109 46 111.5zm-11.5.5c2.5 0 11.202-6.04 15.832-9.461 4.63-3.421 0-2.395 0-2.395L49.5 101.5s-7 6.5-15 10.5z"/><path d="M44 107.5C34 101 33.993 97.07 33.222 94.447h-.386l-1.157.685c.257 2.166 5.32 9.368 12.32 12.368z"/></g><path fill="#1F1F1F" d="M23.5 84c5-3.5 4.167-8.833 2-14l48-3c-.333 2.333-3 9-.5 16-3.5-1-5.166-3-5.5-5-1 1.833-2 6 1 9.5-6 0-8.5-3.5-9.5-4.5-9.333-2.167-20.5-3.5-23.5-3-3 3-6 4-12 4z"/><path fill="#FFB5B5" d="M70.652 61.492s3.095-10.225 10.86-7.241c7.765 2.984 2.903 18.589-9.327 16.459-10.566-.644-1.533-9.218-1.533-9.218zm-43.466 0s-3.095-10.225-10.86-7.241C8.56 57.235 13.423 72.84 25.653 70.71c10.566-.644 1.533-9.218 1.533-9.218z" clip-rule="evenodd" fill-rule="evenodd"/><path fill="#C26B6B" d="M79.955 59.968a.625.625 0 0 0-.625-.625c-2.28 0-4.347 1.487-6.206 4.371a.625.625 0 0 0 1.05.677c.567-.879 1.142-1.602 1.725-2.173 1.26.29 1.872.767 1.977 1.409a.625.625 0 1 0 1.233-.202c-.163-.996-.862-1.71-2.022-2.153.736-.455 1.483-.679 2.243-.679.345 0 .625-.28.625-.625zm-63.295 0c0-.345.279-.625.624-.625 2.28 0 4.347 1.487 6.207 4.371a.625.625 0 1 1-1.05.677c-.568-.879-1.143-1.602-1.726-2.173-1.26.29-1.872.767-1.976 1.409a.625.625 0 1 1-1.234-.202c.163-.996.862-1.71 2.022-2.153-.736-.455-1.483-.679-2.243-.679a.625.625 0 0 1-.625-.625z" clip-rule="evenodd" fill-rule="evenodd"/><path fill="#FCC" d="M23.447 50.864C22.661 36.267 34.285 24 48.903 24c14.313 0 25.822 11.781 25.486 26.09l-.322 13.73c-.324 13.833-10.858 25.278-24.616 26.745-13.664-.893-24.505-11.858-25.24-25.532l-.764-14.17z" clip-rule="evenodd" fill-rule="evenodd"/><mask height="66" width="52" y="25" x="25" maskUnits="userSpaceOnUse" style="mask-type:alpha" id="d"><path fill="#fff" d="M25.235 51.71C24.563 37.162 36.175 25 50.739 25c14.32 0 25.84 11.775 25.526 26.09l-.329 15c-.295 13.474-11.1 24.35-24.57 24.736-13.349.781-24.762-9.497-25.38-22.854l-.751-16.262z" clip-rule="evenodd" fill-rule="evenodd"/></mask><g mask="url(#d)"><path fill="#F1AFAC" d="M32.5 52C31 67.5 24 68.5 22.5 69.5V39c.4-.8 8.167-5.333 12-7.5l33.5-1c1.5 5.333 5.2 19.3 6 36.5-9-4.5-9.5-10-10.5-21-.685-7.545-10.833-10.667-15.5-9.5C38.5 35 32 43 32.5 52z"/><ellipse fill="#6E3636" ry="3.5" rx="3" cy="65.5" cx="60.001"/><ellipse fill="#6E3636" ry="3.5" rx="3" cy="65.5" cx="38.001"/><ellipse fill="#FF5988" ry="3" rx="3.5" cy="74" cx="66.501" opacity=".625"/><ellipse fill="#FF5988" ry="3" rx="3.5" cy="74" cx="32.5" opacity=".625"/><path fill="#F28091" d="M48.4 64.846c.298-.08.607.08.691.356.714 2.345.588 4.277-.41 5.769l-.104.147c-1.211 1.675.035 2.92 2.648 2.25.298-.076.606.087.687.364.081.277-.096.564-.394.64-3.485.894-5.656-1.216-3.946-3.723l.076-.108c.886-1.225 1.02-2.898.365-5.051-.084-.276.089-.565.387-.644z"/><path stroke-linecap="round" stroke-width=".98" stroke="#F28091" d="M46.067 78.625s5.593.454 7.352-2.388"/><path fill="#6E3636" d="M55 58.742c2.5-1 4.5-1.5 8.938-2.475-2.937-3.025-8.937 0-8.937 2.475zm-12.062 0c-2.5-1-4.5-1.5-8.937-2.475 2.937-3.025 8.937 0 8.937 2.475z" clip-rule="evenodd" fill-rule="evenodd"/></g><path fill="#242424" d="M77.536 12.93c-8.786 0-10.27 8.57-6.981 13.283-5.858 2.61-10.74 7.491-3.906 10.908 6.835 3.417 7.811 1.651 11.716-1.615 9.91 5.736 17.72-4.026 12.352-11.837-.49-5.37-4.882-6.345-6.835-6.345 0-3.906-4.386-4.191-6.346-4.394z"/><mask height="27" width="30" y="12" x="63" maskUnits="userSpaceOnUse" style="mask-type:alpha" id="e"><path fill="#242424" d="M77.536 12.93c-8.786 0-10.27 8.57-6.982 13.283-5.858 2.61-10.739 7.491-3.905 10.908 6.834 3.417 7.81 1.651 11.716-1.615 9.91 5.736 17.72-4.026 12.351-11.837-.489-5.37-4.882-6.345-6.835-6.345 0-3.906-4.385-4.191-6.345-4.394z"/></mask><g mask="url(#e)"><path fill="#1E1E1E" d="M80 29c-8.5 1.5-11.5-8-11-11h-.5L63 24.5l3 9.5 9.5 8 20-1.5v-16h-5C89.834 25.667 90 34 80 29z"/></g><path fill="#242424" d="M20.736 12.004c8.787 0 10.27 8.57 6.982 13.282 5.858 2.61 10.74 7.492 3.905 10.908-6.834 3.417-7.81 1.652-11.716-1.615-9.91 5.737-17.72-4.026-12.351-11.836.489-5.37 4.882-6.346 6.835-6.346 0-3.905 4.385-4.191 6.345-4.393z"/><mask height="27" width="30" y="12" x="5" maskUnits="userSpaceOnUse" style="mask-type:alpha" id="f"><path fill="#242424" d="M20.736 12.004c8.786 0 10.27 8.57 6.981 13.282 5.858 2.61 10.74 7.492 3.905 10.908-6.834 3.417-7.81 1.652-11.715-1.615-9.91 5.737-17.72-4.026-12.352-11.836.49-5.37 4.882-6.346 6.835-6.346 0-3.905 4.386-4.191 6.346-4.393z"/></mask><g mask="url(#f)"><path fill="#1E1E1E" d="M18.271 28.073c8.5 1.5 11.5-8 11-11h.5l5.5 6.5-3 9.5-9.5 8-20-1.5v-16h5c.667 1.167.5 9.5 10.5 4.5z"/></g><path fill="#2A2A2A" d="M31.002 43.5c2-5 8.999-10 17.499-7 8.499-1.5 18 0 18 9 0 18.11 5 20 10 23.5 0-6.5-1-10.5 2-15.5 4.269-7.116 2-16-4.5-20.5-4.613-3.193-5-8.011-9-10.256-3.928-2.204-11.684-2.03-15.543 0-2.825-1.61-6.956-4.244-15.456-.744-4.857 2-4.617 7.424-8.5 9-4.927 2-10.763 9.796-5.5 23.5 0 0 3.498 10 .999 17 2.806-.677 7.238-5.691 8.5-13 1.642-9.5-.5-10 1.5-15z"/><mask height="52" width="64" y="20" x="17" maskUnits="userSpaceOnUse" style="mask-type:alpha" id="g"><path fill="#2A2A2A" d="M31.002 43.5c2-5 8.999-10 17.499-7 8.499-1.5 18 0 18 9 0 18.11 5 20 10 23.5 0-6.5-1-10.5 2-15.5 4.269-7.116 2-16-4.5-20.5-4.613-3.193-5-8.011-9-10.256-3.928-2.204-11.684-2.03-15.543 0-2.825-1.61-6.956-4.244-15.456-.744-4.857 2-4.617 7.424-8.5 9-4.927 2-10.763 9.796-5.5 23.5 0 0 3.498 10 .999 17 2.806-.677 7.238-5.691 8.5-13 1.642-9.5-.5-10 1.5-15z"/></mask><g mask="url(#g)" fill="#242424"><path d="M30.5 38.5c6-6.8 14.167-4 17.5-2L28.5 72H21c2-3.333 6-6 6-13 0-7.5-2.5-13.7 3.5-20.5z"/><path d="M47.5 25.5c0-2.5-2-4.5-4.5-5.5l-2-1.5 5.5.5L57 20.5c-1.833 1.167-4.7 1.8-5.5 5-.374 1.5.75 3.167 2.25 3.5-.85.17-2.25 2.5-.75 4.5-3 0-4 2-4.5 4.5-.5-3.5-1.5-4-3.5-4.5 1.5-1.5.375-4.111-.5-4.5 1-.5 3-.5 3-3.5z"/><path d="M63.5 35c-4.425-1.475-11.333 0-14.5 1.5 1.167 4.333 3.6 13.1 4 13.5.4.4 5.167 11.167 7.5 16.5C68.835 68.833 78 73 77 69c-6-3.5-8-12.5-7-19 1.462-9.5-.5-13-6.5-15z"/></g></svg>