<svg xmlns="http://www.w3.org/2000/svg" fill="none" viewBox="0 0 110 110" height="110" width="110"><mask height="110" width="110" y="0" x="0" maskUnits="userSpaceOnUse" style="mask-type:alpha" id="a"><path fill="#fff" d="M0 0h110v110H0z"/></mask><g mask="url(#a)"><ellipse fill="#FFB5A1" transform="rotate(-18 82.951 51.699)" ry="6.458" rx="6.387" cy="51.699" cx="82.951"/><path fill="#C26B6B" d="M85.963 50.185a.594.594 0 1 0-.106-1.183c-1.783.161-3.244 1.436-4.21 2.55a13.806 13.806 0 0 0-1.547 2.194l-.022.04-.006.012-.002.003v.002a.594.594 0 0 0 1.048.556l.004-.008.087-.154a12.62 12.62 0 0 1 1.334-1.867c.1-.114.202-.228.308-.34l.03.01c.174.061.415.158.672.304.52.294 1.066.76 1.331 1.485a.594.594 0 0 0 1.115-.408c-.395-1.08-1.197-1.734-1.86-2.11a5.133 5.133 0 0 0-.313-.163c.654-.497 1.378-.855 2.137-.923z" clip-rule="evenodd" fill-rule="evenodd"/><ellipse fill="#FFB5A1" transform="scale(-1 1) rotate(-18 150.73 104.617)" ry="6.458" rx="6.387"/><path fill="#C26B6B" d="M22.54 50.185a.594.594 0 0 1 .107-1.183c1.783.161 3.244 1.436 4.21 2.55a13.806 13.806 0 0 1 1.547 2.194l.022.04.006.012.002.003v.002a.594.594 0 0 1-1.048.556l-.005-.008-.086-.154a12.62 12.62 0 0 0-1.334-1.867c-.1-.114-.203-.228-.308-.34l-.03.01a4.07 4.07 0 0 0-.672.304c-.52.294-1.066.76-1.331 1.485a.594.594 0 0 1-1.115-.408c.395-1.08 1.197-1.734 1.86-2.11.108-.061.213-.115.313-.163-.654-.497-1.378-.855-2.137-.923z" clip-rule="evenodd" fill-rule="evenodd"/><path fill="#fff" d="M69.149 90.219s22.443 6.005 26.88 12.227c3.294 4.076 3.257 9.925 3.257 9.925l-88.641 3.447s-.128-8.792 4.675-15.129c5.453-6.913 26.638-10.47 26.638-10.47h27.19z" clip-rule="evenodd" fill-rule="evenodd"/><mask height="26" width="90" y="90" x="10" maskUnits="userSpaceOnUse" style="mask-type:alpha" id="b"><path fill="#fff" d="M69.149 90.219s22.443 6.005 26.88 12.227c3.294 4.076 3.257 9.925 3.257 9.925l-88.641 3.447s-.128-8.792 4.675-15.129c5.453-6.913 26.638-10.47 26.638-10.47h27.19z" clip-rule="evenodd" fill-rule="evenodd"/></mask><g mask="url(#b)" fill="#395CB4" clip-rule="evenodd" fill-rule="evenodd"><path d="M51.064 96.597v23.387l7.5.256V96.597h-7.5zm17.548-2.015s27.88 4.49 27.16 16.976c1.508-.029 1.753-.535 1.753-.535S96.391 97.82 71.412 93.351c-22.242-5.019-2.8 1.231-2.8 1.231zm-28.987-.585s-11.848 2.132-18.288 6.907c-6.44 4.775-6.711 14.439-6.711 14.439l-2.062-1.839s1.587-10.348 7.95-14.411c6.361-4.063 17.444-6.853 17.444-6.853l1.667 1.757z"/></g><path fill="#272727" d="M81.442 93.425s-1.893 4.114-2.862 8.554c-.993 4.551-.746 7.326-.746 9.771 0 5.76 10.756.734 10.756.734s-.36-3.331 0-6.297c.36-2.966 1.76-8.222 1.76-8.222s.594.247.839.423c.095-.388-.731-1.26-.731-1.26s-1.568-1.334-4.094-2.333c-2.526-.999-4.922-1.37-4.922-1.37zM27.32 93.24s1.894 4.114 2.863 8.554c.993 4.551.746 7.326.746 9.771 0 5.761-10.756.735-10.756.735s.36-3.332 0-6.298-1.76-8.222-1.76-8.222-.594.247-.84.424c-.094-.388.732-1.26.732-1.26s1.568-1.335 4.094-2.334a25.797 25.797 0 0 1 4.921-1.37z" clip-rule="evenodd" fill-rule="evenodd"/><path fill="#466DCE" d="M43.196 85.964c-3.772 1.986-9.264 6.383-9.264 6.383s3.46 1.188 10.424 4.685c7.294 4.171 9.209 9.707 10.458 9.707 1.25 0 3.753-4.9 8.972-8.809 9.37-5.621 11.74-5.962 11.74-5.962s-6.872-5.667-10.955-6.494c-1.975-.781-15.861-2.09-21.375.49z" clip-rule="evenodd" fill-rule="evenodd"/><path fill="#466DCE" d="M43.196 85.963c-3.772 1.986-9.264 6.383-9.264 6.383s3.46 1.188 10.424 4.685c7.294 4.171 9.209 9.707 10.458 9.707 1.25 0 3.753-4.9 8.972-8.809 9.37-5.621 11.74-5.962 11.74-5.962s-6.872-5.667-10.955-6.495c-1.975-.78-15.861-2.088-21.375.491z" clip-rule="evenodd" fill-rule="evenodd"/><path fill="#3359B6" d="M49 86c-4.444.494-7.5 2.5-7.5 5s10.5 10 13 11c3.5-1.5 13-10 11-13.5-1.588-2.78-12-3-16.5-2.5z"/><path fill="#FFB5A1" d="M45.565 79.24s1.884 7.13 0 11.98c1.075 2.22 2.764 5.236 8.296 5.376 6.354.075 8.869-5.376 8.869-5.376s-1.588-4.303-1.267-11.98c-7.508.94-15.898 0-15.898 0z" clip-rule="evenodd" fill-rule="evenodd"/><mask height="18" width="18" y="79" x="45" maskUnits="userSpaceOnUse" style="mask-type:alpha" id="c"><path fill="#FFB5A1" d="M45.56 79.24s1.884 7.13 0 11.98c1.075 2.219 2.764 5.235 8.296 5.375 6.354.076 8.869-5.376 8.869-5.376s-1.588-4.302-1.267-11.979c-7.508.94-15.898 0-15.898 0z" clip-rule="evenodd" fill-rule="evenodd"/></mask><g mask="url(#c)"><path fill="#FC9D84" d="M62.5 88.5c-9.5 1-14.5-3.5-17-6s0-3 0-3c5.5-.667 16.7-2 17.5-2 1 0 9 10-.5 11z"/></g><path fill="#FFCDBC" d="M26.281 44.814C25.583 29.112 38.187 16 53.904 16c15.41 0 27.893 12.623 27.645 28.031l-.188 11.746c-.23 14.33-11.394 26.096-25.692 27.08L53.582 83l-1.231-.09c-13.947-1.022-24.923-12.318-25.544-26.29l-.526-11.807z" clip-rule="evenodd" fill-rule="evenodd"/><mask height="67" width="56" y="16" x="26" maskUnits="userSpaceOnUse" style="mask-type:alpha" id="d"><path fill="#fff" d="M26.281 44.814C25.583 29.112 38.187 16 53.904 16c15.41 0 27.893 12.623 27.645 28.031l-.188 11.746c-.23 14.33-11.394 26.096-25.692 27.08L53.582 83l-1.231-.09c-13.947-1.022-24.923-12.318-25.544-26.29l-.526-11.807z" clip-rule="evenodd" fill-rule="evenodd"/></mask><g mask="url(#d)"><circle fill="#FFA2A2" r="6.535" cy="67.535" cx="74.535" opacity=".625"/><circle fill="#FFA2A2" r="6.535" cy="67.535" cx="33.535" opacity=".625"/><ellipse fill="#623D3D" ry="3.397" rx="2.779" cy="55.397" cx="67.779"/><ellipse fill="#623D3D" ry="3.397" rx="2.779" cy="55.397" cx="40.779"/><path fill="url(#e)" d="M46 64h15.5c-.503 5.201-4 7-8 7-6.5 0-7.5-7-7.5-7z" clip-rule="evenodd" fill-rule="evenodd"/><path stroke-linejoin="round" stroke-linecap="round" stroke="#F28080" d="M53.877 48c-1.19 3.83-3.034 11.575-.892 11.915 2.141.34 3.569-.425 4.015-.85"/><path fill="#623D3D" d="M62 46.018S68.5 47 72.5 48c-3-7-10.5-1.982-10.5-1.982zm-15.5-.276s-6.5.981-10.5 1.981c3-7 10.5-1.981 10.5-1.981z" clip-rule="evenodd" fill-rule="evenodd"/><path fill="#FFB5A1" d="M42 35.5c-.8 3.2-10.5 9.5-14 9.5l-1-7.5L33.5 24 77 30.5l3.5 12c-1.333 1.833-5 2.5-10.5-.5-7 2-15.5-2-19-5.5-1.667 1.5-5.4 2.6-9-1z"/></g><path fill="#1E0E0E" d="m83.017 32.58-1.15 23.173s-1.663-.268-3.126-4.407c-1.51-8.818-1.734-18.767-1.734-18.767h6.01zm-57.453-.34 1.15 23.174s1.664-.268 3.126-4.407c1.51-8.818 1.734-18.767 1.734-18.767h-6.01z" clip-rule="evenodd" fill-rule="evenodd"/><path fill="#382222" d="M43.595 10.54s-7.955 1.721-13.065 6.327c-.698.71-.409 1.528 1.466 1.107-1.895 1.218-5.346 5.312-6.661 8.118-4.685 9.832-.77 11.28-.77 11.28s-.505 5.16 3.466 4.812c4.25.347 9.78-3.183 13.836-10.294 6.904 7.265 9.42 1.294 9.42 1.294s9.978 8.783 20.263 6.78c3.035 1.695 11.28 3.828 11.707-1.78 3.171.83 3.372-3.214.4-10.017-.126-.286 1.503.073.581-2.567-5.323-11.22-22.282-16.479-34.547-15.494 2.398-3.529.693-3.447-.692-2.666-1.385.78-2.37 2.666-2.37 2.666s-1.37-2.024-3.034-2.024c-1.664 0 0 2.458 0 2.458z" clip-rule="evenodd" fill-rule="evenodd"/><mask height="36" width="63" y="7" x="23" maskUnits="userSpaceOnUse" style="mask-type:alpha" id="f"><path fill="#382222" d="M43.593 10.54s-7.955 1.721-13.065 6.327c-.698.71-.409 1.528 1.466 1.107-1.895 1.218-5.346 5.312-6.661 8.118-4.685 9.832-.77 11.28-.77 11.28s-.505 5.16 3.466 4.812C32.28 42.53 37.81 39 41.865 31.89c6.904 7.265 9.42 1.294 9.42 1.294s9.978 8.783 20.263 6.78c3.036 1.695 11.28 3.828 11.707-1.78 3.171.83 3.372-3.214.4-10.017-.126-.286 1.503.073.581-2.567C78.912 14.38 61.954 9.121 49.69 10.106c2.398-3.529.693-3.447-.692-2.666-1.385.78-2.37 2.666-2.37 2.666s-1.37-2.024-3.034-2.024c-1.664 0 0 2.458 0 2.458z" clip-rule="evenodd" fill-rule="evenodd"/></mask><g mask="url(#f)" fill="#271515"><path d="M28 30c2.167-.833 7.8-4.2 13-11-3 7-8.667 10.167-13 11zm46-1.158C71.536 29.684 67 26 65.5 24c.652 2 2.62 5.105 1.5 8 .84 0 1.96-1.754 1.96-2.895.747.614 2.8 1.421 5.04-.263zM47.5 11l3-3.5c2.664.888 6.359 2.112 8.962 2.957.716.133 1.402.312 2.038.543 2.27.825.735.356-2.038-.543-4.236-.793-9.538-.027-11.962.543z"/><path d="M41 29c-6.5 9.5-13 12-16.5 8.5V44h65l-4-11.5c0 1.333-.8 4-4 4 .5 4-7.5 3-12 1.5-11.2.4-16.333-5.5-17.5-8.5-4.5 5.5-8.5 2-11-.5zm-3-14s-4.833 1.667-8 2l-2 4c2.333-1.333 10-6 10-6z"/></g><path fill="#fff" d="M46.204 89.168S41.187 91.806 54.501 102C66 93 62.28 89.168 62.28 89.168s-2.421 5.284-8.16 5.284c-5.739 0-7.917-5.284-7.917-5.284z" clip-rule="evenodd" fill-rule="evenodd"/></g><defs><linearGradient gradientUnits="userSpaceOnUse" y2="71.081" x2="42.686" y1="59.156" x1="41.625" id="e"><stop stop-color="#D08787"/><stop stop-color="#A34F4F" offset="1"/></linearGradient></defs></svg>