<svg xmlns="http://www.w3.org/2000/svg" fill="none" viewBox="0 0 110 110" height="110" width="110"><mask height="115" width="96" y="-5" x="7" maskUnits="userSpaceOnUse" style="mask-type:alpha" id="a"><rect fill="#fff" rx="8" height="115" width="96" y="-5" x="7"/></mask><g mask="url(#a)"><path fill="#382222" d="m56.102 16.938.046-.107c1.066-2.492 2.027-3.367 2.88-2.625.74.642.473 1.69-.797 3.143 18.462-1.423 29.288 17.673 32.243 27.631 4.201 14.163 4.2 32.798 1.735 41.737-4.282 2.12-14.162 1.513-14.917.822.04-1.448-.23-2.643-.696-4.38l-.053.53c-.24 2.315-.547 3.719-1.08 4.32-20.384 4.638-52.977 2.406-58.87-4.85-3.566-13.142 1.802-37.406 5.96-46.608C28.4 21.864 41.402 17.077 54.17 17.077c-1.705-2.055-2.036-3.293-.995-3.714 1.12-.453 2.096.739 2.928 3.575z" clip-rule="evenodd" fill-rule="evenodd"/><mask height="78" width="79" y="13" x="15" maskUnits="userSpaceOnUse" style="mask-type:alpha" id="b"><path fill="#fff" d="m56.102 16.938.046-.107c1.066-2.492 2.027-3.367 2.88-2.625.74.642.473 1.69-.797 3.143 18.462-1.423 29.288 17.673 32.243 27.631 4.201 14.163 4.2 32.798 1.735 41.737-4.282 2.12-14.162 1.513-14.917.822.04-1.448-.23-2.643-.696-4.38l-.053.53c-.24 2.315-.547 3.719-1.08 4.32-20.384 4.638-52.977 2.406-58.87-4.85-3.566-13.142 1.802-37.406 5.96-46.608C28.4 21.864 41.402 17.077 54.17 17.077c-1.705-2.055-2.036-3.293-.995-3.714 1.12-.453 2.096.739 2.928 3.575z" clip-rule="evenodd" fill-rule="evenodd"/></mask><g mask="url(#b)"><path fill="#352626" d="M22.282 60.018s-.757 25.976 4.669 28.988c5.258 9.06 30.391 6.241 42.863 7.162 19.717-7.384 17.294-36.019 17.294-36.019s-1.399-8.863-7.338-9.485c-18.551-3.911-40.275.366-51.05.345-4.861.831-6.438 9.01-6.438 9.01z" clip-rule="evenodd" fill-rule="evenodd" opacity=".189" style="mix-blend-mode:multiply"/></g><path fill="#FCB6A3" d="M44.014 80.353S48.98 83.1 48.98 87.19c0 4.091-2.633 7.688-2.633 7.688h3.569s3.126 1.765 5.306 1.765 6.032-1.765 6.032-1.765h.936s-3.262-10.086 2-13.369c5.261-3.282-20.175-1.156-20.175-1.156z" clip-rule="evenodd" fill-rule="evenodd"/><mask height="18" width="21" y="79" x="44" maskUnits="userSpaceOnUse" style="mask-type:alpha" id="c"><path fill="#fff" d="M44.014 80.353S48.98 83.1 48.98 87.19c0 4.091-2.633 7.688-2.633 7.688h3.569s3.126 1.765 5.306 1.765 6.032-1.765 6.032-1.765h.936s-3.262-10.086 2-13.369c5.261-3.282-20.175-1.156-20.175-1.156z" clip-rule="evenodd" fill-rule="evenodd"/></mask><g mask="url(#c)"><path fill="#E89A85" d="M63.843 92.777s-9.659.306-17.515-7.082C38.261 80.523 67.77 82.59 67.77 82.59l-3.927 10.187z" clip-rule="evenodd" fill-rule="evenodd" opacity=".349" style="mix-blend-mode:multiply"/></g><path fill="#fff" d="M61.908 93.012s3.113.946 9.969 3.33c11.146 3.44 12.517 8.22 12.386 14.98-27.92.226-58.814 0-58.814 0s-.092-11.118 13.337-15.242c6.853-2.523 9.141-3.065 9.141-3.065l6.933 2.693 7.048-2.696z" clip-rule="evenodd" fill-rule="evenodd"/><mask height="19" width="60" y="93" x="25" maskUnits="userSpaceOnUse" style="mask-type:alpha" id="d"><path fill="#fff" d="M61.908 93.012s3.113.946 9.969 3.33c11.146 3.44 12.517 8.22 12.386 14.98-27.92.226-58.814 0-58.814 0s-.092-11.118 13.337-15.242c6.853-2.523 9.141-3.065 9.141-3.065l6.933 2.693 7.048-2.696z" clip-rule="evenodd" fill-rule="evenodd"/></mask><g mask="url(#d)" clip-rule="evenodd" fill-rule="evenodd"><path fill="url(#e)" d="M72.213 111.4s.486-4.589.888-4.621c.402-.031 1.234 2.796 1.305 4.621-.78-.009-2.193 0-2.193 0z"/><path fill="url(#f)" d="M37.951 111.4s-.485-4.589-.888-4.621c-.402-.031-1.033 2.856-1.104 4.681 1.505.046 1.992-.06 1.992-.06z"/><path fill="#364C8F" d="M48.894 94.116s-6.995 1.931-10.71 3.502c-3.714 1.572-11.558 3.445-10.994 13.817.732-.144 1.688.025 1.688.025s-.59-8.854 10.064-12.88c7.387-2.781 10.483-3.313 10.483-3.313l-.531-1.15zm14.754.724s6.995 1.93 10.71 3.502c3.714 1.571 8.857 2.661 8.293 13.033-1.038-.027-1.688.025-1.688.025s1.718-8.479-7.363-12.096c-7.387-2.782-10.483-3.314-10.483-3.314l.531-1.15z"/></g><path fill="#FFF5E9" d="M76.409 103.784c.254-.401 1.641.038 3.735-.109 1.803-.29 3.175-.678 3.509-.576.334.103.606 1.846.965 2.853.359 1.008 1.803 2.838 1.784 3.24-.02.401-3.028.991-4.582 1.082-1.553.091-3.961-.073-3.961-.073s-.847-1.766-1.16-2.747c-.312-.981-.545-3.269-.29-3.67z" clip-rule="evenodd" fill-rule="evenodd"/><mask height="8" width="11" y="103" x="76" maskUnits="userSpaceOnUse" style="mask-type:alpha" id="g"><path fill="#fff" d="M76.409 103.784c.254-.401 1.641.038 3.735-.109 1.803-.29 3.175-.678 3.509-.576.334.103.606 1.846.965 2.853.359 1.008 1.803 2.838 1.784 3.24-.02.401-3.028.991-4.582 1.082-1.553.091-3.961-.073-3.961-.073s-.847-1.766-1.16-2.747c-.312-.981-.545-3.269-.29-3.67z" clip-rule="evenodd" fill-rule="evenodd"/></mask><g mask="url(#g)" clip-rule="evenodd" fill-rule="evenodd"><path fill="#F66" d="M77.475 104.597s4.358.133 5.46-.36c.41.697.64 1.044.64 1.044s-2.737.58-5.975.288c.013-.41-.125-.972-.125-.972zm.558 1.643s4.668.056 5.637-.375c.41.698.777 1.069.777 1.069s-3.013.673-6.25.381c.006-.313-.164-1.075-.164-1.075zm.433 1.74s3.844.021 5.86-.402c.365.74.704 1.005.704 1.005s-3.163.764-6.4.472c.006-.314-.164-1.075-.164-1.075z"/><path fill="#FFF5E9" d="M83.236 103.707s-2.104 1.435-1.75 3.934c.353 2.498-6.098 2.876-6.098 2.876l2.205 1.045s10.888-.813 10.973-.981c.085-.168.098-5.349.098-5.349l-3.279-2.024-2.149.499z" style="mix-blend-mode:multiply"/></g><path fill="#E65757" d="M54.632 94.865s.193 4.322-.141 8.174c-.334 3.852-2.617 5.659-3.212 5.5-.594-.16 1.296-4.173.597-6.247-.7-2.075 2.19-6.619 2.19-6.619l.566-.808z" clip-rule="evenodd" fill-rule="evenodd"/><path fill="#F66" d="M53.769 96.245s-1.317 4.621.023 6.64c1.34 2.02 1.704 7.375 2.544 7.531.84.156 1.924-5.513.932-8.754-.992-3.241-1.995-5.387-1.995-5.387l-1.504-.03z" clip-rule="evenodd" fill-rule="evenodd"/><path fill="#F66" d="M51.63 95.734s-.138 2.895.712 3.243c.767.447 3.754.298 4.351-.038.89-.202.844-4.039.187-4.025-.658.013-5.25-.146-5.25-.146v.966z" clip-rule="evenodd" fill-rule="evenodd"/><mask height="6" width="7" y="94" x="51" maskUnits="userSpaceOnUse" style="mask-type:alpha" id="h"><path fill="#fff" d="M51.63 95.734s-.138 2.895.712 3.243c.767.447 3.754.298 4.351-.038.89-.202.844-4.039.187-4.025-.658.013-5.25-.146-5.25-.146v.966z" clip-rule="evenodd" fill-rule="evenodd"/></mask><g mask="url(#h)"><path fill="#E65757" d="M51.61 97.992s1.605.608 2.73.488c1.126-.12 2.088.085 2.224-2.392.137-2.476 2.895.971 2.667 1.206-.228.235-2.266 2.995-2.266 2.995h-5.87l.515-2.297z" clip-rule="evenodd" fill-rule="evenodd"/></g><path fill="#3B56AA" d="M60.961 90.163c.864 0 2.983 1.337 2.983 2.397l-.003.107c-.07 1.286-1.28 6.63-3.582 7.199-2.11.522-3.057-3.402-5.798-4.438-1.32.028-3.922 4.935-5.932 4.438-2.374-.587-3.585-6.246-3.585-7.306 0-1.06 2.118-2.397 2.982-2.397.403 0 1.432 1.303 2.837 2.397 1.364 1.061 3.134 1.993 3.639 2.25l.31-.162c.693-.368 2.139-1.174 3.313-2.088 1.405-1.094 2.433-2.397 2.836-2.397z" clip-rule="evenodd" fill-rule="evenodd"/><mask height="10" width="19" y="90" x="45" maskUnits="userSpaceOnUse" style="mask-type:alpha" id="i"><path fill="#fff" d="M60.961 90.163c.864 0 2.983 1.337 2.983 2.397l-.003.107c-.07 1.286-1.28 6.63-3.582 7.199-2.11.522-3.057-3.402-5.798-4.438-1.32.028-3.922 4.935-5.932 4.438-2.374-.587-3.585-6.246-3.585-7.306 0-1.06 2.118-2.397 2.982-2.397.403 0 1.432 1.303 2.837 2.397 1.364 1.061 3.134 1.993 3.639 2.25l.31-.162c.693-.368 2.139-1.174 3.313-2.088 1.405-1.094 2.433-2.397 2.836-2.397z" clip-rule="evenodd" fill-rule="evenodd"/></mask><g mask="url(#i)"><path fill="#394E8D" d="M46.58 99.001s1.278 1.294 2.903.27c1.626-1.025 3.002-3.924 5.084-3.856 2.082.067 3.564 2.951 5.23 3.586 1.667.635 3.607-1.87 3.607-1.87l.54 5.782H52.505l-7.461-1.451 1.537-2.46z" clip-rule="evenodd" fill-rule="evenodd"/></g><ellipse fill="#FFB5A1" ry="6.6" rx="6.05" cy="60.247" cx="83.068"/><path stroke-linecap="round" stroke-width="1.05" stroke="#F28080" d="M79.218 63.547s2.798-4.61 5.5-5.5m-2.2 3.3s2.495.125 3.3 1.1"/><ellipse fill="#FFB5A1" transform="matrix(-1 0 0 1 28.068 60.247)" ry="6.6" rx="6.05"/><path stroke-linecap="round" stroke-width="1.05" stroke="#F28080" d="M30.818 63.547s-2.799-4.61-5.5-5.5m2.2 2.2s-2.495.125-3.3 1.1"/><path fill="#FFC7B4" d="M30.292 46.91c.183-13.343 11.051-24.063 24.395-24.063h.71c13.108 0 23.873 10.358 24.379 23.456l.664 17.207c.534 13.832-10.536 25.337-24.378 25.337H54.45c-13.605 0-24.58-11.127-24.394-24.73l.235-17.207z" clip-rule="evenodd" fill-rule="evenodd"/><mask height="67" width="51" y="22" x="30" maskUnits="userSpaceOnUse" style="mask-type:alpha" id="j"><path fill="#fff" d="M30.292 46.91c.183-13.343 11.051-24.063 24.395-24.063h.71c13.108 0 23.873 10.358 24.379 23.456l.664 17.207c.534 13.832-10.536 25.337-24.378 25.337H54.45c-13.605 0-24.58-11.127-24.394-24.73l.235-17.207z" clip-rule="evenodd" fill-rule="evenodd"/></mask><g mask="url(#j)" fill="#FFA2A2"><ellipse ry="6.6" rx="7.7" cy="73.7" cx="76.344" opacity=".625"/><ellipse ry="6.6" rx="7.7" cy="74.8" cx="34.544" opacity=".625"/></g><ellipse fill="#623D3D" ry="3.397" rx="2.779" cy="64.019" cx="66.761"/><ellipse fill="#623D3D" ry="3.397" rx="2.779" cy="64.637" cx="42.055"/><path fill="#382222" d="M25.744 53.976s2.694.418 5.305.525c1.162-2.162 1.7-4.65 1.85-6.288.252 1.263.52 4.367.563 6.456 2.778.681 9.275 1.008 10.538.757 1.596-1.3 3.2-7.715 3.2-7.715s.476 4.313 0 8.105c1.13.508 20.477.997 25.727-.847.279-.675.016-2.341 0-5.2.85 1.647 1.655 3.249 2.046 4.9 2.2.26 5.764.366 8.635-1.45 1.601-15.284-13.315-33.19-31.32-31.043-24.362 2.14-26.544 31.8-26.544 31.8z" clip-rule="evenodd" fill-rule="evenodd"/><path fill="#F28080" d="M53.47 60.64a.618.618 0 0 1 .748.452c.696 2.81.483 5.097-.675 6.824l-.119.171c-1.398 1.936-.074 3.465 2.83 2.779a.618.618 0 1 1 .284 1.202c-3.872.915-6.182-1.677-4.202-4.58l.087-.124c1.023-1.416 1.235-3.395.596-5.975a.618.618 0 0 1 .451-.748z"/><path fill="url(#k)" d="M49.59 74.56s4.882-.08 9.998-.413c-.503 5.202-3.239 6.705-6.014 5.928-2.776-.776-3.983-5.514-3.983-5.514z" clip-rule="evenodd" fill-rule="evenodd"/><path fill="#623D3D" d="M63.864 57.85s5.218.3 8.957 1.452c-2.92-4.056-8.957-1.452-8.957-1.452zm-19.954.085s-5.22.3-8.957 1.452c2.919-4.056 8.956-1.452 8.956-1.452z" clip-rule="evenodd" fill-rule="evenodd"/><path stroke-linecap="round" stroke-width="1.05" stroke="#8B6F6F" d="M40.511 35.917s-2.217 1.84-2.47 5.559m4.323-4.323s-1.108 1.227-1.235 3.705"/></g><defs><linearGradient gradientUnits="userSpaceOnUse" y2="110.83" x2="74.288" y1="110.393" x1="72.354" id="e"><stop stop-color="#ECECEC"/><stop stop-color="#D5D5D5" offset="1"/></linearGradient><linearGradient gradientUnits="userSpaceOnUse" y2="110.809" x2="36.049" y1="110.45" x1="37.823" id="f"><stop stop-color="#ECECEC"/><stop stop-color="#D5D5D5" offset="1"/></linearGradient><linearGradient gradientUnits="userSpaceOnUse" y2="81.194" x2="42.739" y1="69.269" x1="41.678" id="k"><stop stop-color="#D08787"/><stop stop-color="#A34F4F" offset="1"/></linearGradient></defs></svg>