<svg viewBox="0 0 1200 1200" xmlns="http://www.w3.org/2000/svg" id="图层_1"><defs><clipPath id="clip-path"><circle r="462.13" cy="600" cx="600" style="fill:none"/></clipPath><style>.cls-7{fill:#271d1f}.cls-11{fill:#de717e}</style></defs><circle r="462.13" cy="600" cx="600" style="fill:#f6bdc5"/><g style="clip-path:url(#clip-path)"><path style="stroke-miterlimit:10;stroke:#370911;stroke-width:14px;fill:#eab9b1" d="M489.02 781.94 477.36 946.9l127.81 105.13 117.47-86.55-8.36-179.55-205.05-6.77-20.21 2.78z"/><path d="M896.47 594c0 39.85-26.09 78.15-58.28 78.15s-58.27-32.3-58.27-72.15 33.09-72.15 65.27-72.15 51.28 26.3 51.28 66.15zm-475.39 6c0 39.85-26.09 72.15-58.27 72.15s-59.28-38.3-59.28-78.15 20.09-66.15 52.28-66.15 65.27 32.3 65.27 72.15z" style="fill:#fde9d1;stroke:#370911;stroke-width:14px;stroke-miterlimit:10"/><ellipse ry="281.42" rx="242.17" cy="559.3" cx="601.11" style="fill:#f9d9d0;stroke-miterlimit:10;stroke:#370911;stroke-width:14px"/><ellipse ry="29.16" rx="26.84" cy="545.23" cx="500.11" class="cls-7"/><ellipse ry="29.16" rx="26.84" cy="545.23" cx="692.62" class="cls-7"/><ellipse ry="39.74" rx="72.77" cy="684.32" cx="600.02" style="fill:#ee8685;stroke:#310304;stroke-width:10px;stroke-miterlimit:10"/><path d="M545.92 705.77c13.66 8.25 33.73 14 55.7 14 23.75 0 38.78-4.56 52.45-14-4.38-13.12-24.71-19.32-53.32-19.32-30.1 0-52.38 5.2-54.83 19.32z" style="fill:#e5415b"/><path d="M603.9 672.72c33.07 0 48.65-1 62.3-6.41-4.15-13.69-12.31-20.09-66.22-17.18-51-2.7-61.07 3.11-66.21 15.21 11.61 7.13 28.16 8.38 70.13 8.38z" style="fill:#fff"/><circle r="49.53" cy="643.05" cx="450.15" class="cls-11"/><circle r="49.53" cy="643.05" cx="749.85" class="cls-11"/><path d="M890 968.87C867.55 927.06 726.63 863.2 726.63 863.2l-126.54 156.15.61 358.3L926.41 1366S912.47 1010.68 890 968.87zm-580 0c-22.46 41.81-36.4 397.16-36.4 397.16l325.71 11.62.61-357.3L473.37 863.2S332.45 927.06 310 968.87z" style="fill:#fff;stroke:#370911;stroke-width:14px;stroke-miterlimit:10"/><path d="M556.61 366.16s50.55 50.93 143.71 99.52 143.14 50.39 143.14 50.39l25.93 11.78s22.46-180.27-25.93-217.43S678.94 185 629.39 195.84 378.58 264 362.31 299.58s-36.08 171.24-30.21 201.29S356.54 600 356.54 600s34.4-108.42 99.93-179.65c49.02-53.27 100.14-54.19 100.14-54.19z" style="fill:#211d1e"/><path d="M346 403.52s140.8-72.6 253.88-62.62 255.54 73.45 255.54 73.45 6.13-95.88-25.59-133.1-105.1-77.63-227-84.9c-70.17-4.19-206.26 49.09-222.72 75.53C356.54 309.7 346 403.52 346 403.52zm429.41 483.65S677.34 1081.52 658 1107.84s-48.75 43.35-48.75 43.35l-7.89 133.16 254.09 4.65 54.81-189.37s0-75-15-114.94c-9.86-26.26-28-40.57-28-40.57zm-352.85 0s98.07 194.35 117.4 220.67 48.75 43.35 48.75 43.35l7.88 133.16-254.07 4.65-54.81-189.37s11.45-84.6 15.82-109.55c4.84-27.62 27.21-46 27.21-46z" style="fill:#e84660;stroke:#370911;stroke-width:14px;stroke-miterlimit:10"/></g></svg>