<svg xml:space="preserve" style="enable-background:new 0 0 1024 1024" viewBox="0 0 1024 1024" y="0" x="0" xmlns="http://www.w3.org/2000/svg" id="图层_1" version="1.1"><style>.st1{fill:#ff9f8e}.st2{fill:#152140}.st4{opacity:.4}.st5{stroke:#0f0f0f;stroke-width:6;stroke-miterlimit:10}.st5,.st6{fill:#fff}.st7{fill:#ff8777}</style><path d="M1024.5 512.5c0 159.12-72.64 301.43-186.53 395.31a473.779 473.779 0 0 1-26.06 20.12c-11.04 7.96-22.42 15.53-34.08 22.53-77.35 47.02-168.2 74.04-265.33 74.04-8.58 0-17.1-.17-25.5-.62-9.19-.45-18.27-1.12-27.29-2.13-64.01-6.45-124.43-24.83-179.19-52.68a519 519 0 0 1-42.49-24.33c-9.19-5.83-18.1-12-26.85-18.38C83.45 833.32.5 682.66.5 512.5.5 229.74 229.74.5 512.5.5s512 229.24 512 512z" style="fill:#fed685"/><ellipse ry="67.59" rx="41.44" cy="468.94" cx="295.57" class="st1" transform="rotate(-5.19 295.525 468.84)"/><path d="M324.91 486.15c-1.93-11.5-6.9-23.1-16-30.73-2.21-1.85-4.45-3.63-7.15-5.01-2.61-1.38-6.04-2.06-8.96-.88-5.88 2.55-7.89 8.86-8.43 14.23 1.03-5.32 3.95-11.09 8.99-12.56 5.09-1.31 9.45 3.02 13.16 6.79 7.46 7.74 10.75 18.46 11.41 28.99.12 1.94 1.8 3.42 3.74 3.3 1.94-.12 3.42-1.8 3.3-3.74-.02-.12-.04-.27-.06-.39z" class="st2"/><ellipse ry="37.62" rx="65.9" cy="475.21" cx="711.42" class="st1" transform="rotate(-84.808 711.435 475.21)"/><path d="M691.18 491.76c1.93-11.5 6.9-23.1 16-30.73 2.21-1.85 4.45-3.63 7.15-5.01 2.61-1.38 6.04-2.06 8.96-.88 5.88 2.55 7.89 8.86 8.43 14.23-1.03-5.32-3.95-11.09-8.99-12.56-5.09-1.31-9.45 3.02-13.16 6.79-7.46 7.74-10.75 18.46-11.41 28.99a3.532 3.532 0 0 1-3.74 3.3 3.532 3.532 0 0 1-3.3-3.74c.02-.13.03-.28.06-.39z" class="st2"/><path class="st1" d="M419.2 689.08h168.33v184.99H419.2z"/><path d="M325.14 430.18c-6.18-23.79-16.18-58.09-31.93-98.53-13.21-33.89-17.3-38.31-16.31-50.28 4.2-50.53 86.77-88.56 149.49-97.85 33.74-5 61.85-1.7 78.82 1.36-.38-5.79-2.1-19.18-12.23-30.58a46.302 46.302 0 0 0-9.52-8.15c5.98-.82 29.98-3.42 52.32 12.23 14.62 10.24 21.58 23.42 24.46 29.9 1.72-10.28 2.66-23.9 0-39.41-.89-5.19-2.08-9.95-3.4-14.27 4.73 2.82 12.7 8.47 19.03 18.35 9.94 15.51 9.31 31.25 8.83 36.69 5.56-6.34 17.05-17.72 35.33-25.14 16.53-6.71 31.18-7.15 39.41-6.79-2.64.3-17.97 2.29-27.18 15.63-4.54 6.57-5.75 13.22-6.11 16.99 8.05-1.51 19.66-2.69 33.3-.68 21.52 3.17 36.92 12.62 44.85 18.35-10.19 2.04-20.38 4.08-30.58 6.12 8.38 2.03 21.05 5.99 34.65 14.27 5.46 3.32 43.44 26.42 40.09 49.6-1.21 8.35-7.04 11.65-13.59 19.03-29.49 33.22-6.65 74-29.9 118.23-5.23 9.96-15.02 24.3-34.65 38.05-115.06-7.72-230.12-15.42-345.18-23.12z" class="st2"/><path d="M587.53 689.08v51.89c-47.16 21.21-114.34 25.67-168.33 3.55v-55.44h168.33z" style="fill:#f5575d"/><path d="M486.52 233.41c-71.35 11.69-128.14 65.73-147.44 135.4-18.26 65.9-28.19 146.32-9.84 231.65 14.32 66.58 36.17 91.11 47.56 101.93 62.15 58.95 175.84 53.42 235.11 14.95 83.05-53.91 112.18-206.85 50.35-381.19-24.41-68.83-92.77-112.74-165.29-104.21-.64.08-1.28.15-1.93.24-2.88.36-5.72.78-8.52 1.23z" class="st1"/><g class="st4"><ellipse ry="85.79" rx="63.98" cy="397.87" cx="573.44" class="st5" transform="rotate(-12.992 573.512 397.842)"/></g><g class="st4"><ellipse ry="68.56" rx="90.86" cy="401.52" cx="419.97" class="st5" transform="rotate(-64.457 419.94 401.502)"/></g><circle r="18.61" cy="430.31" cx="390.42" class="st2"/><circle r="5.07" cy="422.98" cx="398.98" class="st6"/><circle r="18.61" cy="430.31" cx="552.55" class="st2"/><circle r="5.07" cy="422.98" cx="561.11" class="st6"/><path d="M687.21 368.51c-16.82-10.93-35.76-25.51-54.36-44.85a309.37 309.37 0 0 1-19.03-21.74c.68 8.82 2.35 19.53 6.12 31.26 1.86 5.78 3.96 11 6.11 15.63-5.98-5.69-17.3-18.04-23.1-37.37-8.38-27.9.44-51.39 3.4-58.44-5.4 9.89-14.85 24.22-30.58 37.37-24.31 20.33-49.96 26.44-62.52 28.54 6.88-8.15 14.77-16.64 23.78-25.14 21.79-20.55 43.73-35.16 62.52-45.53a794.79 794.79 0 0 0-94.45 32.62 793.969 793.969 0 0 0-69.99 33.3c3.7-6.74 9.68-15.75 19.03-24.46 13.98-13.02 28.67-18.98 37.37-21.74-24.61 4.32-58.68 13.32-95.13 33.3-22.11 12.11-39.9 25.42-53.68 37.37-8.15-17.67-16.31-35.33-24.46-53 25.77-9.33 61.29-21.77 103.96-35.33 152.87-48.6 177.36-41.78 190.26-36.01 59.55 26.58 71.76 119.76 74.75 154.22z" class="st2"/><path d="M434.33 297.03c-.97-2.11-12.39-.69-21.58 5.29-12.65 8.21-18.49 23.33-16.52 24.89.95.75 3.36-1.91 17.18-12.77 16.63-13.08 21.61-15.88 20.92-17.41zm126.24.09c.49-2.27 11.95-3.33 22.22.53 14.12 5.31 23.06 18.82 21.47 20.77-.76.94-3.69-1.15-19.52-8.79-19.06-9.21-24.53-10.88-24.17-12.51z" class="st2"/><ellipse ry="12.49" rx="34.1" cy="483.15" cx="590.77" class="st7" transform="rotate(-12.275 590.913 483.246)"/><ellipse ry="34.1" rx="12.49" cy="488.69" cx="390.42" class="st7" transform="rotate(-77.725 390.41 488.7)"/><path d="M777.83 950.46c-77.35 47.02-168.2 74.04-265.33 74.04-8.58 0-17.1-.17-25.5-.62-9.19-.45-18.27-1.12-27.29-2.13-64.01-6.45-124.43-24.83-179.19-52.68a519 519 0 0 1-42.49-24.33c.34-.5.73-.95 1.06-1.46 2.97-3.98 5.94-7.96 9.14-11.94 20.35-26.23 41.42-49.55 62.44-70.45 29.09-29.2 57.67-53.36 83.29-72.86 7.35-5.32 18.33-5.88 25.89-.95 13.06 8.52 34.53 19.34 63.62 22.36 42.32 4.6 75.5-10.03 92.2-19.73 7.29-4.15 16.93-4.15 23.76.56 29.76 19.73 60.87 43.1 91.75 70.62 2.52 2.07 4.82 4.2 7.34 6.45 28.36 25.67 52.85 51.45 74.38 77.12 1.68 2.02 3.31 3.98 4.93 6z" class="st6"/><path d="M691.21 860.91H310.69c29.06-29.23 57.66-53.34 83.29-72.9 7.33-5.32 18.3-5.89 25.85-.95 13.05 8.54 34.56 19.36 63.61 22.4 42.32 4.56 75.5-10.06 92.2-19.74 7.32-4.17 16.94-4.17 23.8.57 29.76 19.74 60.88 43.09 91.77 70.62zm86.62 89.55c-77.35 47.02-168.2 74.04-265.33 74.04-8.58 0-17.1-.17-25.5-.62-9.19-.45-18.27-1.12-27.29-2.13-64.01-6.45-124.43-24.83-179.19-52.68a519 519 0 0 1-42.49-24.33c.34-.5.73-.95 1.06-1.46l99.77 31.89H677l95.9-30.71c1.68 2.02 3.31 3.98 4.93 6z" style="fill:#020202"/><path d="M559.57 645.42v.07c-2.7 15.04-28.04 23.09-56.55 18.01-8.12-1.45-15.57-3.83-22.11-6.8-16.36-7.52-26.53-19-24.61-29.76 1.72-9.5 12.28-16.17 26.92-18.54 8.78-1.52 18.94-1.45 29.63.46 11.22 2.05 21.31 5.81 29.16 10.56 12.15 7.26 19.14 16.83 17.56 26z" style="fill:#dd5543"/><path d="M542.02 619.42c-5.41 5.41-15.7 9.04-27.51 9.04-17.49 0-31.61-7.92-31.61-17.62 0-.86.13-1.65.33-2.44 8.78-1.52 18.94-1.45 29.63.46 11.21 2.05 21.3 5.81 29.16 10.56zm17.55 26v.07c-2.7 15.04-28.04 23.09-56.55 18.01-8.12-1.45-15.57-3.83-22.11-6.8 4.95-7.79 26.13-13.72 51.47-13.72 9.97 0 19.27.92 27.19 2.44z" class="st6"/><linearGradient gradientTransform="translate(0 -913.929)" y2="1404.92" x2="452.15" y1="1455.269" x1="539.356" gradientUnits="userSpaceOnUse" id="SVGID_1_"><stop style="stop-color:#dd5543;stop-opacity:0" offset=".24"/><stop style="stop-color:#dd5543;stop-opacity:.6" offset="1"/></linearGradient><path d="m501.29 561.58-10.7-2.07c-26.84-5.18-44.39-31.14-39.21-57.97l1.74-9.02c3.05-15.77 18.3-26.09 34.07-23.04l11.2 2.16c29.19 5.64 48.28 33.88 42.63 63.07-3.55 18.39-21.34 30.42-39.73 26.87z" style="fill:url(#SVGID_1_)"/></svg>