<svg xml:space="preserve" style="enable-background:new 0 0 1024 1024" viewBox="0 0 1024 1024" y="0" x="0" xmlns="http://www.w3.org/2000/svg" id="图层_1" version="1.1"><style>.st2{fill:#152140}.st3{fill:#ff9f8e}.st5{opacity:.4;stroke:#0f0f0f;stroke-width:6;stroke-miterlimit:10}.st5,.st6{fill:#fff}.st9{fill:#1e171f}</style><path d="M1024.5 512.5c0 156.09-69.84 295.88-179.92 389.7-2.19 1.91-4.37 3.76-6.61 5.6a469.926 469.926 0 0 1-23.04 17.88c-.73.56-1.51 1.12-2.3 1.68-.22.22-.5.39-.73.56-.5.39-1.06.73-1.57 1.12-20.12 14.4-41.31 27.41-63.5 38.84-.84.39-1.68.84-2.52 1.29-.9.45-1.74.9-2.63 1.29-.45.28-.9.5-1.35.73-12.39 6.17-25.11 11.83-38.06 16.98-3.48 1.4-7.01 2.8-10.54 4.04-48.48 18.16-100.44 29.14-154.64 31.72-3.75.17-7.57.28-11.32.39-4.43.11-8.86.17-13.28.17-8.57 0-17.1-.17-25.5-.62-9.19-.45-18.27-1.12-27.29-2.07-24.72-2.52-48.93-6.78-72.47-12.78-.95-.17-1.85-.45-2.8-.73-.95-.17-1.85-.45-2.8-.73-1.18-.22-2.3-.56-3.48-.9-12.89-3.48-25.61-7.45-38.11-12-3.59-1.23-7.12-2.52-10.59-3.92a502.76 502.76 0 0 1-48.93-21.69c-16.42-8.41-32.39-17.65-47.75-27.69-.79-.56-1.57-1.06-2.35-1.57-.79-.56-1.57-1.07-2.41-1.57-5.66-3.87-11.26-7.85-16.81-11.88-6.84-4.99-13.51-10.09-20.06-15.47C74.82 817.18.5 673.58.5 512.5.5 229.74 229.74.5 512.5.5s512 229.24 512 512z" style="fill:#86fda1"/><path d="M700.21 233.54c14.28-3.5 38.46-7.09 64.85 1.47 51.51 16.71 73.42 67.36 82.53 88.43 39.88 92.2-1.2 190.32-3.68 196.02-2.96 6.79-12.64 28.09-24.32 58.95-18.84 49.8-21.3 67.51-16.21 84.74 5.06 17.16 16.12 28.82 23.58 35.37-22.23 12.63-49.63 11.48-70.01-2.95-22.44-15.89-32.37-45.05-24.32-72.22-9.66 24.52-5.79 51.6 10.32 70.01 15.68 17.91 36.98 20.78 42.74 21.37-3.57 4.82-10.91 13.22-22.85 17.69-21.52 8.06-45.07-1.49-58.95-15.48-23.57-23.76-15.95-57.02-15.48-58.95-1.32 2.66-12.79 26.8 0 52.32 13.43 26.8 41.69 31.33 44.21 31.69-3.62 1.47-32.42 12.57-60.43-3.68-21.46-12.46-28.54-32.91-30.21-38.32-10.98-35.52 12.65-65.26 14.74-67.8 25.62-19.09 51.03-44.74 70.01-78.85 78-140.18-18.06-305.71-26.52-319.81z" style="fill:#0c1833"/><path d="M696.85 564.41c15.97-13.71 57.29-52.88 72.22-117.91 23.2-101.03-37.08-178.34-44.21-187.18-73.58-91.12-189.82-82.61-221.08-80.32-27.24 2-85.06 6.23-122.33 48.64-.05.06-.1.12-.15.17-5.08 5.81-1.04 14.93 6.68 15.22l2.32.09c-7.89.73-20.55 2.91-33.9 10.32-30.11 16.7-39.87 46.7-42.74 56.01-7.37 23.9-10.92 66.32 11.05 82.53 18.05 13.33 48.64 5.49 48.64 5.16 0-.34-31.95-5.62-42.74 8.84-1.32 1.77-5.52 8.13-2.21 24.32 6.82 33.34 34.83 56.13 49.37 66.32 11.05-42.49 22.11-84.99 33.16-127.49 77.38-.98 154.75-1.97 232.13-2.95l53.79 198.23z" class="st2"/><ellipse ry="45.8" rx="54.78" cy="514.26" cx="726.33" class="st3" transform="rotate(-72.567 726.265 514.247)"/><ellipse ry="41.03" rx="49.07" cy="523.99" cx="372.38" class="st3" transform="rotate(-72.567 372.342 523.96)"/><path d="M700.1 541.94c.21-11.66 3.4-23.87 11.28-32.76 1.91-2.15 3.87-4.25 6.33-6.02 2.38-1.75 5.66-2.93 8.74-2.19 6.19 1.65 9.11 7.59 10.45 12.82-1.8-5.11-5.55-10.38-10.75-11.09-5.23-.54-8.9 4.39-12.01 8.66-6.23 8.76-7.89 19.85-7 30.36.17 1.94-1.27 3.65-3.21 3.81s-3.65-1.27-3.81-3.21c-.02-.11-.02-.27-.02-.38zm-313.65-1.19c-4.45-10.78-11.87-20.98-22.45-26.39-2.56-1.31-5.15-2.54-8.09-3.29-2.86-.77-6.34-.66-8.93 1.14-5.16 3.8-5.72 10.39-5.05 15.75-.19-5.42 1.38-11.69 5.97-14.24 4.67-2.41 9.88.84 14.34 3.69 9 5.88 14.59 15.6 17.59 25.72a3.526 3.526 0 0 0 6.76-2c-.04-.13-.09-.28-.14-.38z" class="st2"/><path d="M631.1 916.38H383.14l23.2-85.47 8.18-30.27 8.46-31.16 8.46-31.11 7.45-27.58c23.71-7.4 52.96-11.77 84.58-11.77 34.75 0 66.64 5.27 91.53 14.01l1.96 24.72 2.63 33.46 2.69 33.97 2.02 25.39 6.8 85.81z" class="st3"/><path d="M616.97 737.76c-55.04 19.5-125.88 22.31-185.52.62l13.34-49.27H613.1l3.87 48.65z" style="fill:#f5575d"/><path d="M646.49 333.75c20.77 28.16 58.51 88.31 60.92 169.98 1.38 46.7-9.39 80.24-11.79 87.45-5.5 16.53-34.13 102.55-118.89 136.57-17.53 7.04-61.21 24.57-109.06 7.86-76.19-26.6-95.8-116.52-97.27-123.8-8.81-43.58.75-89.9 4.91-110.05 5.47-26.48 13.92-51 11.79-88.43-1.04-18.3-4.24-33.24-6.88-43.23 88.76-12.11 177.52-24.23 266.27-36.35z" class="st3"/><path d="M731.89 309.49c-7.02 4.88-15.25 9.95-24.69 14.74-6.31 3.2-12.37 5.87-18.05 8.11-3.96 5.11-11.18 13.13-22.48 19.53-22.9 12.96-45.39 9.54-51.21 8.47-14.84-2.72-25.7-9.31-32.06-14-5.43 3.72-15.38 9.48-29.11 11.79-17.94 3.02-32.28-1.56-38.69-4.05-5.81 4.44-21.17 14.92-43.11 15.84-15.47.65-27.74-3.72-34.26-6.63a76.668 76.668 0 0 1-17.32-10.69c1.61 3.13 5.5 11.81 2.58 21-4.1 12.9-20.07 21.97-38.69 19.53-2.59 1.99-10.21 7.31-21.37 7.74-10.53.4-18.17-3.78-21-5.53.98-36.72 1.97-73.45 2.95-110.17 23.37-19.06 55.7-39.53 97.27-51.22 144.91-40.74 272.43 61.61 289.24 75.54zm-92.27 105.05c-.44.84-2.89.4-11.33-1.55v-.04c-6.62-1.55-16.88-4.04-32.74-7.64-23.76-5.38-38.07-8.26-46.2-10.13-6.8-1.6-9.37-2.49-9.6-3.6-.44-2 6.89-4.04 17.64-4.62 7.33-.36 16.3-.04 25.45 1.47 13.1 2.18 25.54 6.62 35.4 11.24 13.56 6.35 22.31 13.1 21.38 14.87zM473.97 389.1c-.32-3.42-21.6-.19-41.92 10.4-27.95 14.56-48.34 40.02-45.86 42.45 1.19 1.17 7.24-3.42 39.03-22.45 38.27-22.92 48.98-27.94 48.75-30.4z" class="st2"/><ellipse ry="56.92" rx="77" cy="486" cx="459.69" class="st5" transform="rotate(-60 459.696 486.012)"/><circle r="12.33" cy="461.15" cx="466.61" class="st2"/><circle r="3.36" cy="456.29" cx="472.28" class="st6"/><ellipse ry="51.2" rx="63.06" cy="489.17" cx="585.63" class="st5" transform="rotate(-61.941 585.598 489.149)"/><circle r="12.74" cy="469.12" cx="579.34" class="st2"/><circle r="3.47" cy="464.1" cx="585.2" class="st6"/><path d="M522.08 694.83c2.09 1.05 7.31 3.34 14.13 2.59 5.4-.6 9.29-2.82 11.22-4.11-.19 1.19-.67 3.19-2.03 5.15-3.88 5.58-13.2 8.47-18.87 4.33-3.11-2.27-4.11-5.91-4.45-7.96z" class="st2"/><path d="M844.59 902.2c-2.19 1.91-4.37 3.76-6.61 5.6a469.926 469.926 0 0 1-23.04 17.88c-.73.56-1.51 1.12-2.3 1.68-.22.22-.5.39-.73.56-.5.39-1.06.73-1.57 1.12-20.12 14.4-41.31 27.41-63.5 38.84-.84.39-1.68.84-2.52 1.29-.9.45-1.74.9-2.63 1.29-.45.28-.9.5-1.35.73-12.39 6.17-25.11 11.83-38.06 16.98-3.48 1.4-7.01 2.8-10.54 4.04-48.48 18.16-100.44 29.14-154.64 31.72-3.75.17-7.57.28-11.32.39-4.43.11-8.86.17-13.28.17-8.57 0-17.1-.17-25.5-.62-9.19-.45-18.27-1.12-27.29-2.07-24.72-2.52-48.93-6.78-72.47-12.78-.95-.17-1.85-.45-2.8-.73-.95-.17-1.85-.45-2.8-.73-1.18-.22-2.3-.56-3.48-.9-12.89-3.48-25.61-7.45-38.11-12-3.59-1.23-7.12-2.52-10.59-3.92a502.76 502.76 0 0 1-48.93-21.69c-16.42-8.41-32.39-17.65-47.75-27.69-.79-.56-1.57-1.06-2.35-1.57-.79-.56-1.57-1.07-2.41-1.57-5.66-3.87-11.26-7.85-16.81-11.88-6.84-4.99-13.51-10.09-20.06-15.47 12.39-3.42 26.68-7.06 43.27-11.38 27.13-6.95 37.05-8.24 51.62-11.83 30.38-7.4 71.91-22.59 120.34-56.78 1.85-1.29 3.64-2.58 5.49-3.98h.05c3.59-2.63 7.12-5.27 10.76-8.07 1.96-.06 3.98-.11 5.94-.17 56.83-1.74 113.61-3.47 170.5-5.21 1.46 1.06 2.92 2.13 4.32 3.08 6.44 4.65 12.84 8.91 19 12.78.67.45 1.29.84 1.9 1.23 33.91 21.13 63.62 32.4 85.53 38.84 40.3 11.88 61.43 9.75 119.44 27.97 5.41 1.77 10.51 3.34 15.28 4.85z" class="st3"/><path d="M507.82 931.34c-7.86 0-12.93-4.44-17.84-8.74-2.55-2.23-5.17-4.53-8.41-6.5-11.99-7.28-25.33-5.55-37.08-4.02-1.7.22-3.34.43-4.94.61-26.21 3-56.37-.68-89.68-10.9-2.96-.91-4.63-4.04-3.72-7 .91-2.96 4.04-4.63 7-3.72 31.83 9.76 60.47 13.3 85.13 10.49 1.54-.18 3.13-.38 4.77-.6 12.92-1.69 28.99-3.77 44.33 5.56 4.07 2.47 7.21 5.22 9.98 7.64 4.54 3.98 7.15 6.18 10.69 5.96 4.12-.1 7.1-2.92 11.63-7.52 1.7-1.72 3.43-3.47 5.3-5.08 16.51-14.18 37.71-13.02 56.43-11.96 2.67.15 5.3.3 7.88.39 28.7 1.07 60.48-3.68 94.36-14.17 2.96-.9 6.1.74 7.01 3.69.91 2.96-.74 6.1-3.69 7.01-35.11 10.86-68.17 15.81-98.11 14.66-2.64-.1-5.34-.25-8.07-.4-17.41-.97-35.42-1.96-48.51 9.28-1.64 1.41-3.14 2.94-4.62 4.44-4.92 4.99-10.49 10.65-19.35 10.86-.16.01-.32.02-.49.02z" style="fill:#976f58"/><path d="m442.38 791.23-13.79 27.46-40.69 80.82-.39.84-4.82 9.53-42.65 84.8c-3.59-1.23-7.12-2.52-10.59-3.92l41.87-83.17 5.21-10.37 25.73-51.12 9.58-19.17h.05l20.46-40.75 10.03 5.05zm259.9 196.95c-3.48 1.4-7.01 2.8-10.54 4.04l-45.06-89.68-5.27-10.43-14.52-28.86-23.48-46.69-6.39-12.72 10.03-4.99 15.36 30.49 2.13 4.32 28.31 56.22 5.21 10.37 44.22 87.93z" style="fill:#4a1706"/><path d="M619.61 771.22c-25.45 9.86-59.19 15.8-96.12 15.8-39.12 0-74.6-6.67-100.5-17.54l-8.46 31.16c14.69 7.29 33.07 13.11 54.31 16.81h.28c16.76 2.91 35.14 4.54 54.37 4.54 26.51 0 51.4-3.08 72.7-8.41h.11c.06 0 .06 0 .11-.06 9.36-2.3 18.1-5.16 25.89-8.35l-2.69-33.95z" class="st9"/><path d="M640.89 812.52c-2.26-.52-4.47-.73-6.56-.69 2.35-1.31 4.67-3.03 6.81-5.17 8.18-8.18 10.57-19.05 5.34-24.29-5.23-5.23-16.11-2.84-24.29 5.34-1.74 1.74-3.16 3.61-4.35 5.51-1.61-.61-3.29-1.17-5.09-1.58-11.27-2.6-21.52.08-22.89 6-1.19 5.15 4.75 11.05 13.75 14.21-2.4 3.4-4.52 7.59-6.02 12.36-4.29 13.67-2.05 26.54 5.01 28.76 7.06 2.22 16.26-7.06 20.56-20.73.47-1.5.83-2.99 1.15-4.46 2.66 2.75 6.75 5.04 11.63 6.17 9.51 2.19 18.32-.82 19.69-6.74 1.37-5.92-5.23-12.5-14.74-14.69z" class="st9"/><path d="M466.6 683.81a2.802 2.802 0 0 1-1.45-5.2c15.1-9.14 31.44-15.71 48.57-19.56 22.44-5.02 45.35-5.24 68.12-.63a2.8 2.8 0 0 1 2.19 3.31c-.31 1.51-1.79 2.51-3.31 2.19-21.99-4.46-44.12-4.24-65.77.61a156.406 156.406 0 0 0-46.89 18.88c-.47.27-.97.4-1.46.4z"/><linearGradient gradientTransform="translate(0 -453.766)" y2="1003.939" x2="470.605" y1="1054.288" x1="557.812" gradientUnits="userSpaceOnUse" id="SVGID_1_"><stop style="stop-color:#dd5543;stop-opacity:0" offset=".24"/><stop style="stop-color:#dd5543;stop-opacity:.6" offset="1"/></linearGradient><path d="m519.74 620.76-10.7-2.07c-26.84-5.18-44.39-31.14-39.21-57.97l1.74-9.02c3.05-15.77 18.3-26.09 34.07-23.04l11.2 2.16c29.19 5.64 48.28 33.88 42.63 63.07-3.55 18.39-21.34 30.42-39.73 26.87z" style="fill:url(#SVGID_1_)"/></svg>