<svg xml:space="preserve" style="enable-background:new 0 0 1024 1024" viewBox="0 0 1024 1024" y="0" x="0" xmlns="http://www.w3.org/2000/svg" id="图层_1" version="1.1"><style>.st1{fill:#ff9f8e}.st3{fill:#152140}.st4{opacity:.4;stroke:#0f0f0f;stroke-width:6;stroke-miterlimit:10}.st4,.st5{fill:#fff}.st6{fill:#ff8777}</style><path d="M1024.5 512.44c0 136.76-53.64 261.13-141.07 352.94a501.843 501.843 0 0 1-45.45 42.37c-5.27 4.37-10.65 8.58-16.09 12.72-.79.62-1.57 1.18-2.35 1.79-.79.62-1.57 1.18-2.35 1.74-1.74 1.29-3.53 2.58-5.27 3.87-5.49 3.98-11.1 7.85-16.76 11.66a490.451 490.451 0 0 1-51.68 29.98c-1.85 1.01-3.7 1.91-5.6 2.8-56.83 27.91-119.55 45.62-185.86 50.56-.95.11-1.85.17-2.8.22-.95.06-1.85.17-2.8.17-6.33.5-12.78.84-19.17 1.01-1.01.06-2.02.06-3.03.06-1.06.06-2.13.06-3.14.06-1.8.06-3.65.11-5.44.06-.22.06-.45.06-.67.06h-5.6c-1.23 0-2.52 0-3.75-.06-3.31 0-6.61-.11-9.86-.22-1.06 0-2.13-.06-3.2-.11-1.01-.06-2.02-.11-3.03-.17-.84 0-1.68-.06-2.52-.11-6.05-.28-12.05-.67-18.05-1.23-.95-.06-1.85-.11-2.8-.22-.95-.05-1.85-.17-2.8-.28-1.23-.06-2.47-.22-3.64-.34-61.43-6.17-119.61-23.37-172.57-49.49-1.9-.84-3.75-1.79-5.6-2.75-.34-.17-.67-.34-1.01-.5-20.24-10.26-39.68-21.91-58.18-34.75-3.75-2.58-7.45-5.27-11.15-7.96-1.07-.78-2.13-1.57-3.2-2.41-.84-.56-1.63-1.12-2.41-1.74-.79-.56-1.51-1.18-2.3-1.79a503.577 503.577 0 0 1-61.71-54.98C54.14 773.63.5 649.31.5 512.44.5 229.68 229.74.5 512.45.5c282.81 0 512.05 229.18 512.05 511.94z" style="fill:#ca5dfd"/><path d="M597.59 669.94v150.83c0 69.53-40.11 125.89-89.58 125.89s-89.58-56.36-89.58-125.89V669.94h179.16z" class="st1"/><path d="M597.59 674.33v65.78c-58.88 17.18-127.12 9.23-179.16-13.73v-52.05h179.16z" style="fill:#f5575d"/><path d="M423.22 672.6c-3.18 9.5 21.35 27.57 17.2 56.72-.81 5.68-2.48 10.17-3.72 13.02-3.82 9.61-6.85 10.71-8.37 17.67-1.93 8.85 1.48 13.86-.93 15.34-3.66 2.26-10.11-10.17-21.39-10.23-8.09-.04-9.67 6.33-19.06 6.04-7.23-.22-8-4.06-14.88-3.72-6.08.3-6.87 3.37-16.27 6.51-7.46 2.49-12.08 4.03-16.27 2.32-9.29-3.79-6.67-19.56-13.48-21.39-6.31-1.69-10.12 11.41-25.11 15.81-2.44.72-11.5 3.37-19.06-.93-4.25-2.42-8.56-7.34-11.16-19.99-6.16-29.96 10.01-41.18 3.72-63.23-4.45-15.59-13.22-12.39-20.45-30.68-6.63-16.77-6.84-38.59 1.39-56.72 12.16-26.8 34.22-26.73 39.52-49.28 3.83-16.31-4.58-29.62-8.83-39.52-22.09-51.34 17.09-117.99 27.9-136.68 43.28-74.9 119.39-97.85 171.09-113.44 12.62-3.81 36.01-10.01 66.02-9.3 22.47.53 53.55 1.69 79.5 23.25 10.85 9.01 17.53 18.87 21.39 25.57 11.93-1.18 32.78-1.55 55.32 7.9 27.96 11.73 42.71 31.93 56.72 51.14 6.89 9.43 27.54 39.41 36.73 84.15 5.5 26.8 4.79 48.65 4.18 64.16-1.75 45.04-11.77 55.43-7.44 82.75 2.37 14.95 9.18 35.93 29.75 59.51 4.74 9.54 5.53 17.6 5.58 22.32.17 15.14-6.91 26.98-11.62 34.87-6.3 10.54-7.87 8.58-10.23 14.88-6.2 16.55 4.81 29.54-1.86 36.26-1.96 1.97-6.6 2.12-15.81 2.32-20.08.45-21.73-3.17-31.15-.93-12.08 2.87-15.32 10.25-22.32 7.9-6.22-2.08-7.32-9.14-12.09-8.83-4.13.26-4.15 5.59-10.23 8.83-7.68 4.09-17.02.59-18.6 0-8.06-3.02-7.96-7.55-13.02-7.9-8.19-.58-10.37 11.16-19.99 12.55-8.45 1.22-11.74-7.12-22.32-9.3-13.97-2.88-22.81 12.47-28.36 8.83-5.11-3.35 2.06-15.25-5.11-27.43-3.49-5.92-7.33-6.76-11.16-10.69-6.02-6.19-10.74-18.74-3.72-46.96-129.64-26-168.44-24.07-172-13.47z" class="st3"/><path d="M351.16 402.95c.1 13.39 10.14 19.94 16.12 53.93 2.57 14.63 3 26.42 3.1 36.57.58 60.38-10.36 87.94-8.06 115.92 4.36 52.91 56.32 110.42 120.88 123.98 71.38 14.99 126.39-30.42 131.42-34.71 51.31-43.81 55.56-109.19 58.89-160.55 3.52-54.19-6.49-98.38-14.88-125.84-.14-11.91-1.98-63.23-39.05-91.12-32.01-24.09-70.53-15.85-121.5-4.96-59.61 12.74-147.23 47.06-146.92 86.78z" class="st1"/><ellipse ry="31.89" rx="47.85" cy="562.94" cx="695.91" class="st1" transform="rotate(-68.543 695.946 562.933)"/><path d="M670.87 573.05c2.76-8.86 7.92-17.48 15.92-22.52 1.94-1.22 3.9-2.38 6.18-3.18 2.21-.81 4.98-.98 7.16.27 4.36 2.64 5.27 7.83 5.12 12.12-.24-4.31-1.93-9.17-5.74-10.86-3.87-1.58-7.78 1.37-11.1 3.94-6.71 5.3-10.45 13.4-12.11 21.64-.31 1.52-1.79 2.5-3.31 2.2s-2.5-1.79-2.2-3.31c.02-.09.05-.21.08-.3z" class="st3"/><ellipse ry="46.91" rx="62.9" cy="503.83" cx="445.82" class="st4" transform="rotate(-77.003 445.811 503.814)"/><circle r="18.34" cy="507.71" cx="451.4" class="st3"/><circle r="4.99" cy="500.49" cx="459.83" class="st5"/><ellipse ry="55.07" rx="74.2" cy="496.09" cx="573.92" class="st4" transform="rotate(-64.24 573.898 496.104)"/><ellipse ry="20.16" rx="20.27" cy="503.37" cx="578.96" class="st3" transform="rotate(-77.003 578.95 503.356)"/><ellipse ry="5.49" rx="5.52" cy="497.67" cx="589.79" class="st5" transform="rotate(-77.003 589.781 497.66)"/><ellipse ry="12.49" rx="34.1" cy="559.78" cx="602.71" class="st6" transform="rotate(-23.737 602.642 559.78)"/><ellipse ry="25.49" rx="9.34" cy="562.63" cx="414.6" class="st6" transform="rotate(-51.708 414.57 562.598)"/><path d="M553.9 420.66c1.23 1.14 13.87-14.76 32.23-17.82 7.42-1.24 13.25.04 14.41.31 5.33 1.23 9.32 3.47 11.78 5.11a30.687 30.687 0 0 0-5.73-7.9c-6.12-6.07-14.15-8.77-20.15-8.99-20.82-.75-34.03 27.9-32.54 29.29zm-77.49-.46c-.49-7.29-10.06-14.75-18.91-15.96-10.37-1.42-21.52 5.52-27.9 17.36 9.61-7.72 16.07-8.33 20.3-7.28 3.24.8 7.38 3.13 15.34 7.59 4.47 2.51 7.64 4.52 9.61 3.25 1.82-1.17 1.6-4.44 1.56-4.96zm29.9 258.49c-1.35.06-2.71.09-4.09.1-29.84.11-52.45-13.03-63.27-20.87a2.792 2.792 0 0 1-.63-3.91 2.792 2.792 0 0 1 3.91-.63c10.27 7.44 31.72 19.91 59.96 19.8 48.32-.02 77.66-36.13 83.08-43.33a2.788 2.788 0 0 1 3.92-.56c1.24.93 1.49 2.69.56 3.92-5.55 7.38-35.06 43.36-83.44 45.48z" class="st3"/><path d="m595.33 632.13-15.56.68a2.798 2.798 0 0 1-2.92-2.68 2.798 2.798 0 0 1 2.68-2.92l15.56-.68a2.798 2.798 0 0 1 2.92 2.68 2.804 2.804 0 0 1-2.68 2.92zm-104.25 65.86c3.6 1.02 12.52 3.03 23.01-.23 8.31-2.58 13.75-7.26 16.39-9.88.06 1.94-.08 5.21-1.63 8.72-4.4 9.96-18.19 17.33-28.36 12.55-5.57-2.63-8.24-8.05-9.41-11.16zm209.72-213.7c-21.84 9.53-54.53-19.29-68.81-35.8-40.08-46.35-32.2-108.08-29.75-123.67-10.7 12-27.36 27.49-51.14 39.52-41.9 21.19-73.34 2.52-123.67 13.48-19.83 4.32-49.12 14.24-82.29 40.45-5.11-15.19-10.23-30.37-15.34-45.56 26.68-12.31 64.84-28.58 112.04-44.17 76.02-25.11 114.92-37.48 159-28.82 17.3 3.4 85.57 19.55 111.12 77.18 17.7 39.93 13.48 96.63-11.16 107.39z" class="st3"/><path d="M795.15 939.53a490.451 490.451 0 0 1-51.68 29.98c-1.85 1.01-3.7 1.91-5.6 2.8-56.83 27.91-119.55 45.62-185.86 50.56-.95.11-1.85.17-2.8.22-.95.06-1.85.17-2.8.17-6.33.5-12.78.84-19.17 1.01-1.01.06-2.02.06-3.03.06-1.06.06-2.13.06-3.14.06-1.8.06-3.65.11-5.44.06-.22.06-.45.06-.67.06h-5.6c-1.23 0-2.52 0-3.75-.06-3.31 0-6.61-.11-9.86-.22-1.06 0-2.13-.06-3.2-.11-1.01-.06-2.02-.11-3.03-.17-.84 0-1.68-.06-2.52-.11-6.05-.28-12.05-.67-18.05-1.23-.95-.06-1.85-.11-2.8-.22-.95-.05-1.85-.17-2.8-.28-1.23-.06-2.47-.22-3.64-.34-61.43-6.17-119.61-23.37-172.57-49.49-1.9-.84-3.75-1.79-5.6-2.75-.34-.17-.67-.34-1.01-.5-20.24-10.26-39.68-21.91-58.18-34.75 3.75-7.06 7.51-14.12 11.38-21.24 13-24.04 26.12-47.59 39.29-70.62a53.376 53.376 0 0 1 23.99-22.03c18.89-8.63 40.13-17.15 63.62-24.72 6.61-2.13 13.17-4.09 19.56-5.94 13.34-3.76 26.12-6.95 38.22-9.53 1.01-.22 1.96-.39 2.97-.62 5.44 17.04 13.23 36.54 24.38 57.17a336.655 336.655 0 0 0 54.03 73.65c.9.95 1.79 1.91 2.69 2.8.95.95 1.9 1.91 2.8 2.8.84.79 1.63 1.57 2.41 2.35.84-.78 1.68-1.51 2.52-2.35.96-.9 1.91-1.79 2.92-2.8.95-.9 1.9-1.85 2.86-2.8 17.49-17.37 38.45-42.32 55.49-76a292.937 292.937 0 0 0 21.8-57.39c1.4.28 2.86.62 4.32.95 15.08 3.31 30.6 7.29 46.35 11.94 22.59 6.56 45.74 14.52 69.27 24.04.06 0 .11.06.17.06 11.38 4.65 20.79 13.17 26.68 23.99 13.66 25.2 37.71 69.48 55.08 101.54z" style="fill:#a0d3b2"/><path d="M463.35 910.38v111.7c.95.11 1.85.22 2.8.28.95.11 1.85.17 2.8.22v-106.6h77.46v107.28c.96 0 1.85-.11 2.8-.17.96-.06 1.85-.11 2.8-.22V910.38h-88.66z" class="st5"/><path d="M643.93 789.88c-20.46 33.8-40.36 74.49-55.43 122.07-3.03 9.6-5.73 19.02-8.13 28.25-1.29 4.97-6.83 7.5-11.47 5.32-5.42-2.55-10.83-5.09-16.27-7.61-6.56-2.58-13.06-5.16-19.62-7.74-4.82-2.23-9.62-4.48-14.42-6.73-5.16-2.42-6.43-9.24-2.39-13.25 17.48-17.38 38.27-42.28 55.25-75.8a292.937 292.937 0 0 0 21.8-57.39c16.49 3.52 33.42 7.78 50.68 12.88zM500.34 922.6c-14.89 8.64-29.75 17.3-44.64 25.93-3.75 2.17-8.5.15-9.58-4.05-2.48-9.61-5.28-19.43-8.44-29.45-15.58-49.1-36.32-90.85-57.5-125.32 14.4-4.09 28.19-7.45 41.2-10.15 5.44 17.04 13.23 36.54 24.38 57.17 17.76 32.8 38.37 57.75 56.02 75.72 2.95 3.04 2.23 8.02-1.44 10.15z" style="fill:#34abc9"/><circle r="11.78" cy="963.4" cx="508" class="st5"/><circle r="11.78" cy="1004.93" cx="508" class="st5"/><linearGradient gradientTransform="translate(0 -453.766)" y2="1022.528" x2="447.497" y1="1072.876" x1="534.703" gradientUnits="userSpaceOnUse" id="SVGID_1_"><stop style="stop-color:#dd5543;stop-opacity:0" offset=".24"/><stop style="stop-color:#dd5543;stop-opacity:.6" offset="1"/></linearGradient><path d="m496.63 639.35-10.7-2.07c-26.84-5.18-44.39-31.14-39.21-57.97l1.74-9.02c3.05-15.77 18.3-26.09 34.07-23.04l11.2 2.16c29.19 5.64 48.28 33.88 42.63 63.07-3.54 18.39-21.34 30.42-39.73 26.87z" style="fill:url(#SVGID_1_)"/></svg>