<svg xml:space="preserve" style="enable-background:new 0 0 1024 1024" viewBox="0 0 1024 1024" y="0" x="0" xmlns="http://www.w3.org/2000/svg" id="图层_1" version="1.1"><style>.st2{fill:#fff}.st3{fill:#ff9f8e}.st5{fill:#152140}.st6{fill:#b069e3}.st7{fill:#d72bb3}.st9{opacity:.4;fill:#fff;stroke:#0f0f0f;stroke-width:6;stroke-miterlimit:10}.st10{fill:#ff8777}</style><path d="M1024.5 512.44c0 136.76-53.64 261.13-141.07 352.94-3.87 4.03-7.79 8.07-11.77 11.88-.67.67-1.29 1.35-1.96 1.96-2.58 2.58-5.21 5.1-7.85 7.51a464.471 464.471 0 0 1-20.68 18.33c-1.06.9-2.13 1.79-3.19 2.69a91.17 91.17 0 0 1-3.59 2.91c-4.09 3.36-8.29 6.61-12.5 9.81-.39.28-.79.62-1.18.9-.39.28-.79.62-1.18.9-.79.62-1.57 1.18-2.35 1.74-1.74 1.29-3.53 2.58-5.27 3.87-3.25 2.35-6.56 4.71-9.86 6.95-1.85 1.29-3.75 2.58-5.6 3.81-5.77 3.87-11.6 7.62-17.6 11.21-2.58 1.63-5.16 3.14-7.79 4.65-2.63 1.57-5.32 3.08-8.01 4.59-3.75 2.13-7.62 4.2-11.49 6.22-1.68.9-3.31 1.79-4.99 2.63-.17.11-.39.17-.56.28-.84.45-1.68.84-2.52 1.29-1.01.56-2.02 1.06-3.08 1.57-.84.45-1.68.84-2.52 1.23-1.23.62-2.47 1.18-3.7 1.74-7.9 3.87-15.97 7.45-24.1 10.87-1.51.67-2.97 1.29-4.48 1.85-1.46.62-2.86 1.18-4.26 1.74-6.5 2.58-13 5.05-19.62 7.29-.67.28-1.4.5-2.07.73-.84.28-1.68.62-2.52.9-1.63.56-3.2 1.07-4.82 1.63-2.47.84-4.93 1.63-7.45 2.35a454.061 454.061 0 0 1-32.34 8.91c-.73.22-1.51.39-2.3.5-.11.11-.28.11-.45.11-.84.28-1.74.45-2.63.62-6.45 1.46-12.95 2.86-19.5 4.04-26.12 4.99-52.97 7.9-80.38 8.69-1.01.06-2.02.06-3.03.06-1.06.06-2.13.06-3.14.06-1.8.06-3.65.11-5.44.06-.22.06-.45.06-.67.06h-5.6c-1.23 0-2.52 0-3.75-.06-3.31 0-6.61-.11-9.86-.22-1.06 0-2.13-.06-3.2-.11-1.01-.06-2.02-.11-3.03-.17-.84 0-1.68-.06-2.52-.11-9.19-.45-18.27-1.06-27.3-2.07-17.15-1.74-34.08-4.32-50.61-7.79-1.34-.22-2.63-.5-3.92-.78-.39 0-.79-.11-1.12-.22-.56-.06-1.06-.17-1.57-.34h-.05c-.9-.17-1.8-.34-2.64-.62-6.89-1.46-13.73-3.14-20.46-4.99-7.96-2.13-15.75-4.43-23.49-7.01-.89-.22-1.79-.56-2.69-.84-10.71-3.47-21.24-7.29-31.61-11.55-1.74-.67-3.48-1.35-5.16-2.07-1.96-.79-3.92-1.63-5.89-2.52a226.98 226.98 0 0 1-7.56-3.36c-4.26-1.85-8.46-3.87-12.61-5.89-1.07-.45-2.13-1.01-3.2-1.51-.84-.34-1.63-.73-2.41-1.18-1.07-.5-2.13-1.01-3.2-1.57-.34-.17-.67-.34-1.01-.5-2.86-1.46-5.72-2.91-8.58-4.48-1.63-.84-3.31-1.74-4.93-2.69-11.21-6.05-22.14-12.61-32.73-19.56-1.91-1.18-3.76-2.41-5.6-3.64-5.94-4.04-11.77-8.13-17.49-12.33-1.07-.78-2.13-1.57-3.2-2.41-.84-.56-1.63-1.12-2.41-1.74-.11-.06-.22-.17-.34-.28-.67-.45-1.29-1.01-1.96-1.51-.39-.34-.84-.62-1.23-.95-1.4-1.01-2.75-2.07-4.09-3.14a496.306 496.306 0 0 1-34.13-28.92c-.67-.62-1.35-1.23-2.02-1.96-.79-.73-1.57-1.4-2.3-2.19-6.17-5.72-12.1-11.71-17.93-17.82C54.14 773.63.5 649.31.5 512.44.5 229.68 229.74.5 512.45.5c282.81 0 512.05 229.18 512.05 511.94z" style="fill:#ff702e"/><path d="M743.87 942.89c0 10.82-3.36 21.3-9.7 31.16-7.9 3.87-15.97 7.45-24.1 10.87-1.51.67-2.97 1.29-4.48 1.85-1.46.62-2.86 1.18-4.26 1.74-6.5 2.58-13 5.05-19.62 7.29-.67.28-1.4.5-2.07.73-.84.28-1.68.62-2.52.9-1.63.56-3.2 1.07-4.82 1.63-2.47.84-4.93 1.63-7.45 2.35a454.061 454.061 0 0 1-32.34 8.91c-.73.22-1.51.39-2.3.5-.11.11-.28.11-.45.11-.84.28-1.74.45-2.63.62-6.45 1.46-12.95 2.86-19.5 4.04-26.12 4.99-52.97 7.9-80.38 8.69-1.01.06-2.02.06-3.03.06-1.06.06-2.13.06-3.14.06-1.8.06-3.65.11-5.44.06-.22.06-.45.06-.67.06h-5.6c-1.23 0-2.52 0-3.75-.06-3.31 0-6.61-.11-9.86-.22-1.06 0-2.13-.06-3.2-.11-1.01-.06-2.02-.11-3.03-.17-.84 0-1.68-.06-2.52-.11-9.19-.45-18.27-1.06-27.3-2.07-17.15-1.74-34.08-4.32-50.61-7.79-1.34-.22-2.63-.5-3.92-.78-.39 0-.79-.11-1.12-.22-.56-.06-1.06-.17-1.57-.34h-.05c-.9-.17-1.8-.34-2.64-.62-6.89-1.46-13.73-3.14-20.46-4.99-7.96-2.13-15.75-4.43-23.49-7.01-.89-.22-1.79-.56-2.69-.84-10.71-3.47-21.24-7.29-31.61-11.55-1.74-.67-3.48-1.35-5.16-2.07-1.96-.79-3.92-1.63-5.89-2.52a226.98 226.98 0 0 1-7.56-3.36c-8.8-11.49-13.62-23.88-13.62-36.77 0-59.41 101.78-107.56 227.27-107.56s227.28 48.12 227.28 107.53z" style="fill:#4e1f94"/><path d="M606.88 1002.44c-14.62 0-26.51-11.89-26.51-26.51 0-1.55 1.25-2.8 2.8-2.8s2.8 1.25 2.8 2.8c0 11.53 9.38 20.91 20.91 20.91s20.91-9.38 20.91-20.91c0-1.55 1.25-2.8 2.8-2.8 1.55 0 2.8 1.25 2.8 2.8 0 14.61-11.89 26.51-26.51 26.51z" class="st2"/><path d="M559.24 1002.44c-14.62 0-26.51-11.89-26.51-26.51 0-1.55 1.25-2.8 2.8-2.8 1.55 0 2.8 1.25 2.8 2.8 0 11.53 9.38 20.91 20.91 20.91s20.91-9.38 20.91-20.91c0-1.55 1.25-2.8 2.8-2.8 1.55 0 2.8 1.25 2.8 2.8 0 14.61-11.89 26.51-26.51 26.51z" class="st2"/><path d="M511.6 1002.44c-14.62 0-26.51-11.89-26.51-26.51 0-1.55 1.25-2.8 2.8-2.8s2.8 1.25 2.8 2.8c0 11.53 9.38 20.91 20.91 20.91s20.91-9.38 20.91-20.91c0-1.55 1.25-2.8 2.8-2.8 1.55 0 2.8 1.25 2.8 2.8 0 14.61-11.89 26.51-26.51 26.51z" class="st2"/><path d="M463.96 1002.44c-14.62 0-26.51-11.89-26.51-26.51 0-1.55 1.25-2.8 2.8-2.8 1.55 0 2.8 1.25 2.8 2.8 0 11.53 9.38 20.91 20.91 20.91s20.91-9.38 20.91-20.91c0-1.55 1.25-2.8 2.8-2.8s2.8 1.25 2.8 2.8c0 14.61-11.89 26.51-26.51 26.51z" class="st2"/><path d="M416.31 1002.44c-14.62 0-26.51-11.89-26.51-26.51 0-1.55 1.25-2.8 2.8-2.8 1.55 0 2.8 1.25 2.8 2.8 0 11.53 9.38 20.91 20.91 20.91s20.91-9.38 20.91-20.91c0-1.55 1.25-2.8 2.8-2.8 1.55 0 2.8 1.25 2.8 2.8.01 14.61-11.89 26.51-26.51 26.51z" class="st2"/><path d="M597.59 669.94v107.33c0 49.47-40.11 89.58-89.58 89.58s-89.58-40.11-89.58-89.58V669.94h179.16z" class="st3"/><ellipse ry="86.24" rx="227.25" cy="866.13" cx="510.79" class="st3"/><path d="M597.59 674.33v65.78c-58.88 17.18-127.12 9.23-179.16-13.73v-52.05h179.16z" style="fill:#f5575d"/><path d="M423.22 672.6c-3.18 9.5 21.35 27.57 17.2 56.72-.81 5.68-2.48 10.17-3.72 13.02-3.82 9.61-6.85 10.71-8.37 17.67-1.93 8.85 1.48 13.86-.93 15.34-3.66 2.26-10.11-10.17-21.39-10.23-8.09-.04-9.67 6.33-19.06 6.04-7.23-.22-8-4.06-14.88-3.72-6.08.3-6.87 3.37-16.27 6.51-7.46 2.49-12.08 4.03-16.27 2.32-9.29-3.79-6.67-19.56-13.48-21.39-6.31-1.69-10.12 11.41-25.11 15.81-2.44.72-11.5 3.37-19.06-.93-4.25-2.42-8.56-7.34-11.16-19.99-6.16-29.96 10.01-41.18 3.72-63.23-4.45-15.59-13.22-12.39-20.45-30.68-6.63-16.77-6.84-38.59 1.39-56.72 12.16-26.8 34.22-26.73 39.52-49.28 3.83-16.31-4.58-29.62-8.83-39.52-22.09-51.34 17.09-117.99 27.9-136.69 43.28-74.9 119.39-97.85 171.09-113.44 12.62-3.81 36.01-10.01 66.02-9.3 22.47.53 53.55 1.69 79.5 23.25 10.85 9.01 17.53 18.87 21.39 25.57 11.93-1.18 32.78-1.55 55.32 7.9 27.96 11.73 42.71 31.93 56.72 51.14 6.89 9.43 27.54 39.41 36.73 84.15 5.5 26.8 4.79 48.65 4.18 64.16-1.75 45.04-11.77 55.43-7.44 82.75 2.37 14.95 9.18 35.93 29.75 59.51 4.74 9.54 5.53 17.6 5.58 22.32.17 15.14-6.91 26.98-11.62 34.87-6.3 10.54-7.87 8.58-10.23 14.88-6.2 16.55 4.81 29.54-1.86 36.26-1.96 1.97-6.6 2.12-15.81 2.32-20.08.45-21.73-3.17-31.15-.93-12.08 2.87-15.32 10.25-22.32 7.9-6.22-2.08-7.32-9.14-12.09-8.83-4.13.26-4.15 5.59-10.23 8.83-7.68 4.09-17.02.59-18.6 0-8.06-3.02-7.96-7.55-13.02-7.9-8.19-.58-10.37 11.16-19.99 12.55-8.45 1.22-11.74-7.12-22.32-9.3-13.97-2.88-22.81 12.47-28.36 8.83-5.11-3.35 2.06-15.25-5.11-27.43-3.49-5.92-7.33-6.76-11.16-10.69-6.02-6.19-10.74-18.74-3.72-46.96-129.64-25.99-168.44-24.06-172-13.46z" class="st5"/><path d="M351.16 402.95c.1 13.39 10.14 19.94 16.12 53.93 2.57 14.63 3 26.42 3.1 36.57.58 60.38-10.36 87.94-8.06 115.92 4.36 52.91 56.32 110.42 120.88 123.98 71.38 14.99 126.39-30.42 131.42-34.71 51.31-43.81 55.56-109.19 58.89-160.55 3.52-54.19-6.49-98.38-14.88-125.84-.14-11.91-1.98-63.23-39.05-91.12-32.01-24.09-70.53-15.85-121.5-4.96-59.61 12.74-147.23 47.06-146.92 86.78z" class="st3"/><ellipse ry="31.89" rx="47.85" cy="562.94" cx="695.91" class="st3" transform="rotate(-68.543 695.946 562.933)"/><path d="M670.87 573.05c2.76-8.86 7.92-17.48 15.92-22.52 1.94-1.22 3.9-2.38 6.18-3.18 2.21-.81 4.98-.98 7.16.27 4.36 2.64 5.27 7.83 5.12 12.12-.24-4.31-1.93-9.17-5.74-10.86-3.87-1.58-7.78 1.37-11.1 3.94-6.71 5.3-10.45 13.4-12.11 21.64a2.819 2.819 0 0 1-3.31 2.2 2.819 2.819 0 0 1-2.2-3.31c.02-.09.05-.21.08-.3zM517.41 414.74c1.23 1.14 13.87-14.76 32.23-17.82 7.42-1.24 13.25.04 14.41.31 5.33 1.23 9.32 3.47 11.78 5.11a30.687 30.687 0 0 0-5.73-7.9c-6.12-6.07-14.15-8.77-20.15-8.99-20.81-.75-34.03 27.9-32.54 29.29zm-45.36 5.46c-.49-7.29-10.06-14.75-18.91-15.96-10.37-1.42-21.52 5.52-27.9 17.36 9.61-7.72 16.07-8.33 20.3-7.28 3.24.8 7.38 3.13 15.34 7.59 4.47 2.51 7.64 4.52 9.61 3.25 1.82-1.17 1.6-4.44 1.56-4.96zm25.54 289.17c3.6 1.02 12.52 3.03 23.01-.23 8.31-2.58 13.75-7.26 16.39-9.88.06 1.94-.08 5.21-1.63 8.72-4.4 9.96-18.19 17.33-28.36 12.55-5.57-2.63-8.25-8.05-9.41-11.16z" class="st5"/><path d="M700.8 484.29c-21.84 9.53-54.53-19.29-68.81-35.8-40.08-46.35-32.2-108.08-29.75-123.67-10.7 12-27.36 27.49-51.14 39.52-41.9 21.19-73.34 2.52-123.67 13.48-19.83 4.32-49.12 14.24-82.29 40.45-5.11-15.19-10.23-30.37-15.34-45.56 26.68-12.31 64.84-28.58 112.04-44.17 76.02-25.11 114.92-37.48 159-28.82 17.3 3.4 85.57 19.55 111.12 77.18 17.7 39.93 13.48 96.63-11.16 107.39z" class="st5"/><path d="M419.18 787.58h-.17c-.9 0-1.85.11-2.8.28-2.92.5-5.83 1.35-8.74 1.51-.06.05-.06.05-.11 0h-.06c-.17.05-.28.05-.45.05v.06c.45 41.31.84 82.33 1.23 123.31 0 1.85.05 3.75.05 5.6.06 8.24.17 16.48.22 24.72v1.85c.28 22.98.51 45.9.73 69-1.34-.22-2.63-.5-3.92-.78-.39 0-.79-.11-1.12-.22-.56-.06-1.06-.17-1.57-.34h-.05c-.9-.17-1.8-.34-2.64-.62-6.89-1.46-13.73-3.14-20.46-4.99-7.96-2.13-15.75-4.43-23.49-7.01-.89-.22-1.79-.56-2.69-.84-10.71-3.47-21.24-7.29-31.61-11.55-1.74-.67-3.48-1.35-5.16-2.07-1.96-.79-3.92-1.63-5.89-2.52-6.78-2.91-13.56-6-20.18-9.25-1.07-.45-2.13-1.01-3.2-1.51-.84-.34-1.63-.73-2.41-1.18-1.07-.5-2.13-1.01-3.2-1.57-.34-.17-.67-.34-1.01-.5-2.86-1.46-5.72-2.91-8.58-4.48-1.63-.84-3.31-1.74-4.93-2.69-11.21-6.05-22.14-12.61-32.73-19.56-1.91-1.18-3.76-2.41-5.6-3.64-5.94-4.04-11.77-8.13-17.49-12.33-1.07-.78-2.13-1.57-3.2-2.41-.84-.56-1.63-1.12-2.41-1.74-.11-.06-.22-.17-.34-.28-.67-.45-1.29-1.01-1.96-1.51-.39-.34-.84-.62-1.23-.95-1.4-1.01-2.75-2.07-4.09-3.14a496.306 496.306 0 0 1-34.13-28.92c-.67-.62-1.35-1.23-2.02-1.96-.79-.73-1.57-1.4-2.3-2.19 19.06-18.5 39.01-33.63 59.02-46.07 56.22-34.98 112.71-48.43 150.66-53.75 2.02-.28 3.92-.56 5.83-.78 14.8-1.85 26.29-2.47 33.12-2.69 3.59 2.47 7.06 4.93 10.65 7.4.05.06.11.06.17.11.09.04.2.1.26.15z" class="st6"/><path d="M284.27 899.4c0 22.53-4.26 44.89-12.33 65.13-1.63-.84-3.31-1.74-4.93-2.69 7.68-19.45 11.66-40.8 11.66-62.44 0-14.12-1.68-28.08-4.99-41.53-.39-1.51.56-3.03 2.02-3.42 1.57-.34 3.03.56 3.42 2.07 3.42 13.9 5.15 28.31 5.15 42.88z" class="st3"/><path d="M230.47 871.26c0 20.74-11.49 38.78-28.42 48.15-1.4-1.01-2.75-2.07-4.09-3.14a496.306 496.306 0 0 1-34.13-28.92c-.67-.62-1.35-1.23-2.02-1.96-.79-.73-1.57-1.4-2.3-2.19 19.06-18.5 39.01-33.63 59.02-46.07 7.51 9.36 11.94 21.24 11.94 34.13z" class="st7"/><path d="M408.08 912.8c-15.25-.73-30.6-1.74-45.74-3.03.84-30.66 3.31-61.6 7.29-92.03.84-6.67 1.79-13.34 2.86-20.01.79-5.05 1.63-10.09 2.52-15.13-1.91.22-3.81.5-5.83.78-.95 5.38-1.79 10.76-2.64 16.14-.9 5.83-1.68 11.66-2.47 17.49-4.15 31.5-6.61 63.5-7.4 95.23l-.11 2.63 2.63.28c16.2 1.4 32.56 2.47 48.93 3.25.02-1.85-.04-3.75-.04-5.6z" class="st2"/><path d="M861.85 886.73a464.471 464.471 0 0 1-20.68 18.33c-1.06.9-2.13 1.79-3.19 2.69a91.17 91.17 0 0 1-3.59 2.91c-4.09 3.36-8.29 6.61-12.5 9.81-.39.28-.79.62-1.18.9-.39.28-.79.62-1.18.9-.79.62-1.57 1.18-2.35 1.74-1.74 1.29-3.53 2.58-5.27 3.87-3.25 2.35-6.56 4.71-9.86 6.95-1.85 1.29-3.75 2.58-5.6 3.81-14.41 9.64-29.43 18.61-44.9 26.68-1.68.9-3.31 1.79-4.99 2.63-.17.11-.39.17-.56.28-.84.45-1.68.84-2.52 1.29-1.01.56-2.02 1.06-3.08 1.57-.84.45-1.68.84-2.52 1.23-9.14 4.48-18.38 8.69-27.8 12.61-1.51.67-2.97 1.29-4.48 1.85-1.46.62-2.86 1.18-4.26 1.74-6.5 2.58-13 5.05-19.62 7.29-.67.28-1.4.5-2.07.73-.84.28-1.68.62-2.52.9-1.63.56-3.2 1.07-4.82 1.63-2.47.84-4.93 1.63-7.45 2.35a454.061 454.061 0 0 1-32.34 8.91c-.73.22-1.51.39-2.3.5-.11.11-.28.11-.45.11-.84.28-1.74.45-2.63.62-6.45 1.46-12.95 2.86-19.5 4.04.28-23.93.5-47.75.79-71.57.05-8.86.17-17.71.22-26.57 0-1.85.06-3.75.06-5.6.39-40.97.78-82 1.23-123.31v-.06c-.17 0-.33 0-.5-.06-.05.06-.05.06-.11 0-2.91-.17-5.83-1.01-8.74-1.51-1.01-.17-2.02-.28-2.97-.28.05-.05.17-.11.22-.17 3.64-2.52 7.17-4.99 10.82-7.51 6.84.22 18.33.84 33.13 2.69 1.9.22 3.81.5 5.83.78 37.94 5.33 94.44 18.78 150.66 53.75a353.785 353.785 0 0 1 63.57 50.55z" class="st6"/><path d="M751.54 965.31c-1.68.9-3.31 1.79-4.99 2.63-9.19-21.41-14.07-45.34-14.07-69.5 0-14.57 1.74-28.98 5.16-42.88.39-1.51 1.85-2.41 3.42-2.07 1.46.39 2.41 1.9 2.02 3.42-3.31 13.45-4.99 27.41-4.99 41.53 0 23.27 4.6 46.25 13.45 66.87z" class="st3"/><path d="M861.85 886.73a464.471 464.471 0 0 1-20.68 18.33c-1.06.9-2.13 1.79-3.19 2.69a91.17 91.17 0 0 1-3.59 2.91c-4.09 3.36-8.29 6.61-12.5 9.81-.39.28-.79.62-1.18.9-20.18-8.18-34.41-27.97-34.41-51.06 0-12.89 4.43-24.77 11.94-34.13a352.605 352.605 0 0 1 63.61 50.55z" class="st7"/><path d="M660.08 911.28c-.79-31.72-3.25-63.73-7.4-95.23-.79-6-1.63-11.99-2.52-17.99-.84-5.21-1.68-10.42-2.58-15.64-2.02-.28-3.92-.56-5.83-.78.84 4.88 1.68 9.75 2.41 14.69 1.12 6.78 2.07 13.62 2.97 20.46 3.98 30.43 6.44 61.37 7.29 92.03-15.13 1.29-30.49 2.3-45.74 3.03 0 1.85-.06 3.76-.06 5.6 16.37-.78 32.73-1.85 48.93-3.25l2.64-.28-.11-2.64z" class="st2"/><path d="M561.5 630.7c-.74-.57 4.26-8.73 11.6-15.33 3.5-3.15 4.55-3.26 5.25-3.13 5.19.97 6.36 17.91 4.74 18.36-1.23.34-3.19-9.09-7.87-9.38-.64-.04-1.69.07-7.66 4.74-4.82 3.77-5.77 4.97-6.06 4.74z" class="st5"/><path d="M575.56 620.15v.44c-.84 10.91-3.87 22.33-9.3 33.31-18.02 36.44-55.56 54.65-83.87 40.64-5-2.48-9.37-5.76-13.02-9.74-4.41-4.63-7.84-10.18-10.32-16.38 9.85 13.06 41.37 12.26 61.03 6.13 34.87-10.92 51.06-44.41 55.48-54.4z" class="st2"/><path d="M575.78 619.67c-.07.29-.15.58-.22.91-2.12 8.21-7.37 24.04-21.38 38.2-15.94 16.12-33.67 20.54-46.19 23.6-9.08 2.23-24.55 6.09-38.63 2.41-3.83-.99-7.55-2.55-11.02-4.82-3.14-2.08-9.37-6.17-9.67-12.7-.25-5.84 4.38-10.32 6.6-12.11.51-.4.87-.66 1.06-.8-.26 1.24-.4 2.59-.44 4.01-.04 2.44.37 5.11 1.64 7.66.4.84.91 1.64 1.49 2.37 9.85 13.06 41.37 12.26 61.03 6.13 34.88-10.91 51.07-44.4 55.49-54.39.09-.18.16-.32.24-.47z" class="st5"/><linearGradient gradientTransform="matrix(1 0 0 -1 0 1531.1)" y2="922.421" x2="445.142" y1="972.77" x1="532.349" gradientUnits="userSpaceOnUse" id="SVGID_1_"><stop style="stop-color:#dd5543;stop-opacity:0" offset=".24"/><stop style="stop-color:#dd5543;stop-opacity:.6" offset="1"/></linearGradient><path d="m494.28 538.1-10.7 2.07c-26.84 5.18-44.39 31.14-39.21 57.97l1.74 9.02c3.05 15.77 18.3 26.09 34.07 23.04l11.2-2.16c29.19-5.64 48.28-33.88 42.63-63.07-3.55-18.4-21.34-30.43-39.73-26.87z" style="fill:url(#SVGID_1_)"/><ellipse ry="38.71" rx="73.48" cy="513.01" cx="447.59" class="st9" transform="rotate(-77.96 447.577 513.003)"/><ellipse ry="10.36" rx="14.77" cy="494.28" cx="433.82" class="st5" transform="rotate(-78.948 433.8 494.253)"/><ellipse ry="2.82" rx="4.02" cy="489.3" cx="439.54" class="st2" transform="rotate(-78.948 439.527 489.278)"/><ellipse ry="38.71" rx="73.48" cy="498.81" cx="534.64" class="st9" transform="rotate(-83.915 534.6 498.795)"/><ellipse ry="10.36" rx="14.77" cy="477" cx="519.41" class="st5" transform="rotate(-84.905 519.422 477.028)"/><ellipse ry="2.82" rx="4.02" cy="471.46" cx="524.59" class="st2" transform="rotate(-84.905 524.601 471.485)"/><ellipse ry="12.49" rx="34.1" cy="559.78" cx="561.42" class="st10" transform="rotate(-23.737 561.362 559.777)"/><ellipse ry="25.49" rx="9.34" cy="577.56" cx="418.59" class="st10" transform="rotate(-83.915 418.562 577.533)"/></svg>