<svg viewBox="0 0 1200 1200" xmlns="http://www.w3.org/2000/svg" id="图层_1"><defs><clipPath id="clip-path"><circle r="462.13" cy="600" cx="600" style="fill:none"/></clipPath><style>.cls-5,.cls-6{stroke-miterlimit:10;stroke-width:14px;fill:#3db4e0;stroke:#360810}.cls-6{fill:#f2f2f2}.cls-9{fill:#271d1f}.cls-14{fill:#de717e}</style></defs><circle r="462.13" cy="600" cx="600" style="fill:#bee2e6"/><g style="clip-path:url(#clip-path)"><path style="stroke-width:14px;stroke-miterlimit:10;stroke:#370911;fill:#eab9b1" d="M477.37 781.94 464.34 946.9l158.45 68.13 115.62-49.55-9.34-179.55-229.12-6.77-22.58 2.78z"/><path d="m601.63 1141.1 6.26-203.35S700.21 900.07 715.7 882s22.71-57.81 22.71-57.81 57.41 20.66 85 36.91 80.2 144.25 80.2 147.35-230.71 150.19-230.71 150.19z" class="cls-5"/><path d="M604.21 936.06s13.94 90.33 39.23 92.39 157.42-115.09 150.19-146.58-44.9-54.71-55.22-59.87-7.46 0-7.46 0-2.23 47.42-29.19 65.55c-29.93 20.13-97.55 48.51-97.55 48.51z" class="cls-5"/><path d="M1020.83 1005.23S920.39 911.29 883.38 897.1s-95.33 75.61-95.33 75.61L735.41 1110z" class="cls-6"/><path d="M790.92 849.87s78 26.44 95.71 51.1c14.45 20.13 18.07 44.39-17 63.48s-40.75 10.62-48 23.74c-9.79 17.72 10.32 47 8.77 58.33s-117.67 42.32-117.67 42.32 23.31-44.75 49.55-119.48 32.51-81.3 33-93.17-4.36-26.32-4.36-26.32z" class="cls-6"/><path d="m601.37 1150.1-6.26-203.35S502.79 909.07 487.3 891s-22.71-57.81-22.71-57.81-57.41 20.66-85 36.91-80.2 144.25-80.2 147.35 230.71 150.19 230.71 150.19z" class="cls-5"/><path d="M179.17 1014.23s100.44-93.94 137.45-108.13S412 981.71 412 981.71L464.59 1119z" class="cls-6"/><path d="M409.08 858.87s-78 26.44-95.71 51.1c-14.45 20.13-18.07 44.39 17 63.48s40.75 10.62 48 23.74c9.79 17.72-10.32 47-8.77 58.33s117.67 42.32 117.67 42.32-23.27-44.75-49.52-119.48-32.51-81.3-33-93.17 4.33-26.32 4.33-26.32z" class="cls-6"/><path d="M601.5 936.06s-13.94 90.33-39.23 92.39-157.42-115.09-150.19-146.58S457 827.16 467.31 822s7.46 0 7.46 0S477 869.42 504 887.55c29.89 20.13 97.5 48.51 97.5 48.51z" class="cls-5"/><path d="M574.41 1134.94h58.18a10.22 10.22 0 0 0 10.1-11.74l-27.06-179.47a10.23 10.23 0 0 0-10.11-8.7h-4.67a10.22 10.22 0 0 0-10.11 8.73l-26.44 179.47a10.22 10.22 0 0 0 10.11 11.71z" class="cls-5"/><path d="M896.47 594c0 39.85-26.09 78.15-58.28 78.15s-58.27-32.3-58.27-72.15 33.09-72.15 65.27-72.15 51.28 26.3 51.28 66.15zm-475.39 6c0 39.85-26.09 72.15-58.27 72.15s-59.28-38.3-59.28-78.15 20.09-66.15 52.28-66.15 65.27 32.3 65.27 72.15z" style="fill:#fde9d1;stroke-width:14px;stroke-miterlimit:10;stroke:#370911"/><ellipse ry="281.42" rx="242.17" cy="559.3" cx="601.11" style="fill:#f9d9d0;stroke-width:14px;stroke-miterlimit:10;stroke:#370911"/><ellipse ry="29.16" rx="26.84" cy="545.23" cx="500.11" class="cls-9"/><ellipse ry="29.16" rx="26.84" cy="545.23" cx="692.62" class="cls-9"/><path d="M658 464.68s5.84-17 42.48-15.45 43 16.45 43 16.45m-287.01-1s5.84-17 42.49-15.45 43 16.45 43 16.45" style="stroke:#231815;stroke-linecap:round;stroke-width:20px;stroke-miterlimit:10;fill:none"/><ellipse ry="39.74" rx="72.77" cy="684.32" cx="600.02" style="fill:#ee8685;stroke:#310304;stroke-width:10px;stroke-miterlimit:10"/><path d="M545.92 705.77c13.66 8.25 33.73 14 55.7 14 23.75 0 38.78-4.56 52.45-14-4.38-13.12-24.71-19.32-53.32-19.32-30.1 0-52.38 5.2-54.83 19.32z" style="fill:#e5415b"/><path d="M603.9 672.72c33.07 0 48.65-1 62.3-6.41-4.15-13.69-12.31-20.09-66.22-17.18-51-2.7-61.07 3.11-66.21 15.21 11.61 7.13 28.16 8.38 70.13 8.38z" style="fill:#fff"/><circle r="49.53" cy="643.05" cx="450.15" class="cls-14"/><circle r="49.53" cy="643.05" cx="749.85" class="cls-14"/><path d="M600 172.4c-7 .07-14 .37-21.08 1C448.82 184.2 371.61 271 350 328.2c-42.84 113.55 0 253.55 0 253.55s5.89 33.33 22.92-38.11-3.09-99.83 10.84-112.73 3.1 5.68 20.13-28.39 7.16-76.57 46.45-88.26c26.19-7.78 88.16-12.18 149.63-12.82zm0 0c7 .07 14 .37 21.08 1C751.18 184.2 828.39 271 850 328.2c42.84 113.55 0 253.55 0 253.55s-5.89 33.33-22.92-38.11 3.09-99.83-10.84-112.73-3.1 5.68-20.13-28.39-7.16-76.57-46.45-88.26c-26.19-7.78-88.16-12.18-149.63-12.82z" style="fill:#211d1e"/></g></svg>