<svg class="icon" viewBox="0 0 1024 1024" xmlns="http://www.w3.org/2000/svg" width="200" height="200"><defs><style>@font-face{font-family:feedback-iconfont;src:url(//at.alicdn.com/t/font_1031158_u69w8yhxdu.woff2?t=1630033759944) format(&quot;woff2&quot;),url(//at.alicdn.com/t/font_1031158_u69w8yhxdu.woff?t=1630033759944) format(&quot;woff&quot;),url(//at.alicdn.com/t/font_1031158_u69w8yhxdu.ttf?t=1630033759944) format(&quot;truetype&quot;)}</style></defs><path d="M536.2 800.4h-50.8c-141.8 0-201.8-127.5-257.8-257.8C83.7 207.5 375 98.5 516.7 103.8c170 6.4 408.6 84.4 277.4 438.7-49.3 133-141.8 257.9-257.9 257.9z" fill="#FF6A48"/><path d="M536.2 809.8h-50.8c-153.3 0-216-146.1-266.5-263.5-54.4-126.7-53.2-232.8 3.5-315.5C294.8 125.3 438.8 91.4 517.1 94.4c77.3 2.9 217.1 22.9 285.1 124.6 52 77.8 52.2 187.7.8 326.7-47.4 127.7-142.3 264.1-266.8 264.1zm-29-696.7c-76.1 0-203.9 33.1-269.1 128.3-52.9 77.1-53.4 177.1-1.7 297.5 61.3 142.8 118.6 252 249.1 252h50.8c114.8 0 203.9-130 249-251.7 49.3-133.1 49.7-237.2 1.3-309.7C723.1 134.8 590 116 516.4 113.3c-3-.2-6.1-.2-9.2-.2z" fill="#7F0518"/><path d="M517.6 916.8c-15 0-27.4-6.9-36.1-19.8-10.3 9.8-21.2 12.2-29.5 12.2-4.1 0-8.5-.6-12.8-1.8-42.1-11.6-42.3-59.8-36.4-83.6 1-4.2 4.8-7.2 9.1-7.2h.9c4.6.4 8.3 4.2 8.5 8.9.1 1.6 2.6 40 29.9 40.9 18.5 0 28.4-57.5 28.4-99 0-2.6 1.1-5.1 3-6.9 1.7-1.6 4-2.5 6.4-2.5.2 0 16.7 1.3 16.7 1.3 4.6.4 8.3 4 8.6 8.7 2.1 27.1-3.7 60.3-6.7 78.1l-1.3 7.9c-.8 5.4.6 11 3.7 15.1 1.5 2 4.1 4.5 7.8 5 1.3.2 2.6.3 3.9.3 24.2 0 32.3-35.3 32.4-35.7 1-4.3 4.8-7.4 9.2-7.4h.7c4.7.3 8.4 4 8.7 8.7 1.8 24.5-6.2 72-49.7 76.5-1.9.2-3.7.3-5.4.3z" fill="#FFC831"/><path d="m489 767.4 15.9 1.3c2.4 31.2-6.4 72.8-8 84-2 14.3 6.6 29 19.6 30.8 1.8.2 3.5.3 5.1.3 32.1 0 41.6-43.1 41.6-43.1s4.6 61.7-41.3 66.4c-1.5.2-2.9.2-4.3.2-16.3 0-27.8-10.1-34.3-27.6-8 12.8-18.6 19.9-31.3 19.9-3.3 0-6.8-.5-10.3-1.5-44.4-12.2-29.8-72.3-29.8-72.3s2.5 48.6 39 49.8h.6c37.3.2 37.5-108.2 37.5-108.2m0-18.8c-4.7 0-9.3 1.8-12.7 5-3.9 3.6-6.1 8.6-6.1 13.8-.1 45.1-10.5 85.9-18.9 89.7-18.4-.6-20.6-31.7-20.6-32-.5-9.3-7.8-16.9-17.1-17.8-.6-.1-1.2-.1-1.8-.1-8.6 0-16.2 5.9-18.3 14.4-6.6 26.9-6 81.4 43.1 94.9 5.2 1.4 10.3 2.1 15.3 2.1 10.1 0 19.6-2.9 28-8.5 9.9 10.4 22.9 16.1 37.6 16.1 2 0 4.1-.1 6.3-.3 50.6-5.2 60.1-58.9 58.1-86.6-.7-9.3-8.1-16.7-17.4-17.4h-1.4c-8.8 0-16.5 6.1-18.4 14.8 0 .2-7 28.3-23.2 28.3-.8 0-1.7-.1-2.6-.2-.2 0-.9-.4-1.5-1.3-1.6-2.1-2.3-5.3-1.9-8.1.3-1.8.7-4.4 1.3-7.6 3.2-18.2 9-52.2 6.9-80.4-.7-9.2-8-16.6-17.2-17.3l-15.9-1.3c-.6-.2-1.1-.2-1.6-.2zM639.8 427a62.7 62.7 0 1 0 125.4 0 62.7 62.7 0 1 0-125.4 0z" fill="#7F0518"/><path d="M657.8 414.3a28.9 28.9 0 1 0 57.8 0 28.9 28.9 0 1 0-57.8 0zm52.7 42.1a13.2 13.2 0 1 0 26.4 0 13.2 13.2 0 1 0-26.4 0z" fill="#FFF"/><path d="M266.9 427a62.7 62.7 0 1 0 125.4 0 62.7 62.7 0 1 0-125.4 0z" fill="#7F0518"/><path d="M284.9 414.3a28.9 28.9 0 1 0 57.8 0 28.9 28.9 0 1 0-57.8 0zm52.7 42.1a13.2 13.2 0 1 0 26.4 0 13.2 13.2 0 1 0-26.4 0z" fill="#FFF"/><path d="M662.9 336.9c-2.1 0-4.2-.7-5.9-2.1-4-3.3-4.7-9.2-1.4-13.3.7-.8 16.6-20 41.9-21.8 17.6-1.4 34.5 5.8 50.9 20.8 3.8 3.5 4.1 9.5.6 13.3-3.5 3.9-9.5 4.1-13.3.6-12.4-11.4-24.7-16.9-36.8-15.9-17.1 1.2-28.6 14.8-28.7 14.9-1.8 2.4-4.6 3.5-7.3 3.5zm-366.3 0c-2.1 0-4.2-.7-5.9-2.1-4-3.3-4.7-9.2-1.4-13.3.7-.8 16.6-20 41.9-21.8 17.7-1.4 34.5 5.8 50.9 20.8 3.8 3.5 4.1 9.5.6 13.3-3.5 3.9-9.5 4.1-13.3.6-12.4-11.4-24.8-16.9-36.8-15.9-17.1 1.2-28.6 14.8-28.7 14.9-1.9 2.4-4.6 3.5-7.3 3.5zm270 316.9c-21.2-.8 65.2-52.5 73.8 18.7 2.9 23.1-9.4-16.2-73.8-18.7zm-108.8-9.6c21.2-.8-65.2-52.5-73.8 18.7-2.9 23.1 9.4-16.3 73.8-18.7z" fill="#7F0518"/><path d="M510 295.1s68.1-11.4 158.4-159.6c-48.5-21.3-103.8-29.8-152.7-31.7-36-1.4-82.9 5.6-128.6 23.2 27.2 59.8 70.5 137.3 122.9 168.1z" fill="#EE3E2B"/><path d="M509.9 304.5c-1.7 0-3.3-.4-4.8-1.3-54.4-32.1-98.9-111.4-126.7-172.3-1.1-2.4-1.2-5.1-.1-7.5 1-2.4 2.9-4.3 5.3-5.2C427 101.6 475.5 92.9 516 94.4c41 1.5 101.3 8.4 156.1 32.4 2.5 1.1 4.4 3.2 5.2 5.8.8 2.6.5 5.4-.9 7.7-91.4 150.2-161.9 163.5-164.9 164-.5.2-1 .2-1.6.2zm-110-172.2C426 187.9 465.3 255.7 511.4 285c13.6-4.5 70.4-29.2 143.1-145-49.4-19.5-102.4-25.3-139.2-26.7-35.4-1.3-76.9 5.5-115.4 19z" fill="#7F0518"/></svg>