<svg xmlns="http://www.w3.org/2000/svg" viewBox="0 0 843.06 447.89"><path d="M2.58 5.29c126.44-.47 253.36-.47 379.8 0l-.47 3.29c-14.1 37.6-32 74.27-46.53 111.4l-1.88 3.29c-8.46 1.41-17.39 1.41-26.33 1.41-102-1.41-204 .94-305.53-.47-3.3-24-.47-48.89-1.41-73.8 1-15-1.88-30.55 2.35-45.12zm366.65 285.32c21.63-21.62 42.31-43.71 66.75-62 27.26 28.21 54.53 55.47 82.73 82.73-37.6 36.67-73.8 74.74-111.4 111.88-11.31 10.34-21.16 26.78-38.55 24.44-50.76-.47-101.06.94-151.83-.94 7.52-11.75 17.87-21.15 27.74-31 41.83-41.91 83.2-83.74 124.56-125.11z" transform="translate(.01 .01)" style="fill:#10aef7"/><path d="M656 18c8-7.54 15.48-18.83 27.7-17.89 53.12 0 106.24-.47 159.35.47-8 12.7-20.21 22.1-31 32.91-36.67 36.66-73.8 73.8-110.94 110-26.32 25.86-51.23 52.65-80.38 75.21-27.73-27.26-55-54.52-82.26-81.79C577 96.48 617 57.46 656 18zM3.06 140.19c19.74-3.76 40-.94 60.16-1.41 18.34.47 36.67-1.88 54.53 1.41 3.76 28.21 1.41 56.88 2.82 85.55.94 40 .94 79.44 0 119.4-1.88 33.37.94 66.75-1.41 100.12a980.21 980.21 0 0 1-117.51 0c-3.3-67.22 0-134.91-.94-202.12.94-34.32-2.83-69.1 2.35-102.95z" transform="translate(.01 .01)" style="fill:#8056c2"/><path d="M391.33 8.58c16 10.34 29.14 24.44 42.77 37.6l95.42 95.42c27.27 27.27 54.53 55 82.26 81.79 73.33 75.21 150.42 146.19 222.34 222.34-32.9 2.35-65.81.47-98.71.94-23-.94-46.54 1.88-69.57-.94-12.22-8.46-21.62-20.21-32.43-30.08-35.26-34.79-69.57-70-105.3-104.36-28.2-27.26-55.46-54.52-82.73-82.73-29.61-31.49-61.58-61.1-91.19-93.07-3.76-4.7-8-8.93-9.4-15 15-37.64 32.43-74.31 46.54-111.91zm-252 217.16c82.73.47 165.46-.47 247.72.47-9.4 14.58-24.91 24-36.66 36.67-29.14 26.79-55.47 57.35-86.49 82.26-41.37 1.88-83.2-.47-124.57.47.94-40.43.94-79.91 0-119.87z" transform="translate(.01 .01)" style="fill:#fe4f4f"/></svg>