<svg width="173pt" height="173pt" viewBox="0 0 173 173" xmlns="http://www.w3.org/2000/svg"><path fill="#fff" d="M70.92 1.66c17.41-3.38 35.79-.84 51.84 6.61 13.5 6.23 25.21 16.07 33.95 28.07-8.99 11.26-20.6 20.17-29.75 31.32 6.41 6.38 12.83 12.74 19.27 19.09 8.53-6.65 15.63-14.86 23.59-22.14 4.44 15.48 3.77 32.17-.94 47.51-10.12-9.2-19.5-19.17-29.29-28.71C126.36 70.31 113.26 57.07 100 44c-2.46-2.48-5.16-4.71-8.02-6.71-2.86 6.14-5.25 12.5-8.06 18.67-1.1 2.6-2.41 5.18-2.89 7.99 1.42 3.33 4.39 5.62 6.81 8.21 11.62 11.38 22.65 23.35 34.43 34.57 11.02 10.62 21.75 21.53 32.65 32.27-13.35 17.42-33.53 29.43-55.23 32.75-29.65 4.94-61.42-7.4-80.07-30.95 2.65-.31 5.31-.59 7.96-.93-.18-16.63.41-33.25.08-49.88-.15-7.27.21-14.57-.63-21.82-8.2-.51-16.43-.29-24.64-.27.14-.76.43-2.3.57-3.06 24.01-.49 48.05-.14 72.07-.23 1.43-.16 3.44.05 3.83-1.76 3.72-8.83 7.78-17.54 11.07-26.55-24.39-.15-48.79.1-73.18-.22C29.26 18.03 49.4 5.67 70.92 1.66M32.18 88.3c.04 9.49.1 18.98-.03 28.47 9.8-.3 19.64.49 29.41-.29 6.18-4.33 11.1-10.2 16.55-15.37 4.15-4.38 9.16-7.91 12.87-12.7-19.6.02-39.2 0-58.8-.11m61.44 8.33c-13.23 13.09-26.29 26.36-39.51 39.46-1.34 1.34-2.39 2.92-3.36 4.53 11.76.58 23.54.35 35.31.38 2.41.13 4.72-.83 6.35-2.58 9.94-9.83 19.67-19.87 29.64-29.67-6.33-6.7-13.15-12.93-19.44-19.67-3.27 2.18-6.22 4.78-8.99 7.55z"/><path d="M2.96 64.84c2.87-10.25 7.15-20.38 13.79-28.76 24.39.32 48.79.07 73.18.22-3.29 9.01-7.35 17.72-11.07 26.55-.39 1.81-2.4 1.6-3.83 1.76-24.02.09-48.06-.26-72.07.23zm153.75-28.5c5.57 8.82 10.35 18.16 13.11 28.27-7.96 7.28-15.06 15.49-23.59 22.14-6.44-6.35-12.86-12.71-19.27-19.09 9.15-11.15 20.76-20.06 29.75-31.32zM2.39 67.9c8.21-.02 16.44-.24 24.64.27.84 7.25.48 14.55.63 21.82.33 16.63-.26 33.25-.08 49.88-2.65.34-5.31.62-7.96.93-3.16-4.74-6.72-9.23-9.27-14.35-9.4-17.8-12.37-38.87-7.96-58.55zm91.23 28.73c2.77-2.77 5.72-5.37 8.99-7.55 6.29 6.74 13.11 12.97 19.44 19.67-9.97 9.8-19.7 19.84-29.64 29.67a8.076 8.076 0 0 1-6.35 2.58c-11.77-.03-23.55.2-35.31-.38.97-1.61 2.02-3.19 3.36-4.53 13.22-13.1 26.28-26.37 39.51-39.46z" fill="#3f89e1"/><path d="M91.98 37.29c2.86 2 5.56 4.23 8.02 6.71 13.26 13.07 26.36 26.31 39.59 39.41 9.79 9.54 19.17 19.51 29.29 28.71-3.03 9.69-7.79 18.82-13.96 26.88-10.9-10.74-21.63-21.65-32.65-32.27-11.78-11.22-22.81-23.19-34.43-34.57-2.42-2.59-5.39-4.88-6.81-8.21.48-2.81 1.79-5.39 2.89-7.99 2.81-6.17 5.2-12.53 8.06-18.67zM32.18 88.3c19.6.11 39.2.13 58.8.11-3.71 4.79-8.72 8.32-12.87 12.7-5.45 5.17-10.37 11.04-16.55 15.37-9.77.78-19.61-.01-29.41.29.13-9.49.07-18.98.03-28.47z" fill="#fe4f4f"/></svg>