<svg xmlns="http://www.w3.org/2000/svg" viewBox="0 0 2629.54 447.84"><path d="M2.58 5.29c126.44-.47 253.36-.47 379.8 0l-.47 3.29c-14.1 37.6-32 74.27-46.53 111.4l-1.88 3.29c-8.46 1.41-17.39 1.41-26.33 1.41-102-1.41-204 .94-305.53-.47-3.3-24-.47-48.89-1.41-73.8.95-15.04-1.88-30.55 2.35-45.12zm366.65 285.32c21.63-21.62 42.31-43.71 66.75-62 27.26 28.21 54.53 55.47 82.73 82.73-37.6 36.67-73.8 74.74-111.4 111.88-11.28 10.34-21.16 26.79-38.55 24.44-50.76-.47-101.06.94-151.83-.94 7.52-11.75 17.87-21.15 27.74-31 41.83-41.91 83.2-83.74 124.56-125.11z" style="fill:#10aef7"/><path d="M655.97 17.98c8-7.52 15.51-18.81 27.73-17.87 53.12 0 106.24-.47 159.35.47-8 12.7-20.21 22.1-31 32.91-36.67 36.66-73.8 73.8-110.94 110-26.32 25.86-51.23 52.65-80.38 75.21-27.73-27.26-55-54.52-82.26-81.79C577 96.48 616.95 57.46 655.97 17.98zM3.06 140.19c19.74-3.76 40-.94 60.16-1.41 18.34.47 36.67-1.88 54.53 1.41 3.76 28.21 1.41 56.88 2.82 85.55.94 40 .94 79.44 0 119.4-1.88 33.37.94 66.75-1.41 100.12a980.21 980.21 0 0 1-117.51 0c-3.3-67.22 0-134.91-.94-202.12.94-34.32-2.83-69.1 2.35-102.95z" style="fill:#8056c2"/><path d="M391.33 8.58c16 10.34 29.14 24.44 42.77 37.6l95.42 95.42c27.27 27.27 54.53 55 82.26 81.79 73.33 75.21 150.42 146.19 222.34 222.34-32.9 2.35-65.81.47-98.71.94-23-.94-46.54 1.88-69.57-.94-12.22-8.46-21.62-20.21-32.43-30.08-35.26-34.79-69.57-70-105.3-104.36-28.2-27.26-55.46-54.52-82.73-82.73-29.61-31.49-61.58-61.1-91.19-93.07-3.76-4.7-8-8.93-9.4-15 15.04-37.64 32.43-74.31 46.54-111.91zM139.37 225.74c82.73.47 165.46-.47 247.72.47-9.4 14.58-24.91 24-36.66 36.67-29.14 26.79-55.47 57.35-86.49 82.26-41.37 1.88-83.2-.47-124.57.47.94-40.43.94-79.91 0-119.87z" style="fill:#fe4f4f"/><path d="M1317.58 425.03c0 3.76-.8 6.09-2.42 7-.71.53-3.22 1-7.51 1.34q-16.4 1.61-46.2 1.61-42.16 0-49.54-1.61t-7.39-7.25q0-21.21 2-63.78t2-63.78q0-10.49-5.91-12.09-9.13-2.14-65-2.15-56.13 0-65.53 2.15-5.91 1.35-5.91 12.09 0 20.94 1.35 62.7t1.34 62.71q0 8.06-7.25 9.4-8.6 1.61-50.49 1.61-36.25 0-46.19-1.61-7.8-1.33-7.79-8.33 0-29 2.82-87.54t2.82-87.82q0-31.16-2.68-93.59t-2.69-93.59q0-5.91 5.64-5.91 8.32 0 25.11.8t25.11.81q8.6 0 25.91-.81t25.92-.8c3 0 4.57 1.61 4.57 4.83q0 20.14-3 60.29t-3 60.29q0 9.41 5.1 11 7 2.16 68.75 2.15 57.46 0 66.6-2.15 6.45-1.61 6.45-11 0-19.33-1.88-58.41t-1.88-58.68q0-8.31 6.71-8.32 7.79 0 23.77.8t24 .81q7.79 0 23.77-.81t24-.8q7.78 0 7.78 6.44 0 30.88-2.55 93.19t-2.55 93.46q0 29.28 2.82 87.82t3.02 87.53zm318.61-235.79q0 19.89-1.88 59.62t-1.88 59.62q0 19.33 1.35 58t1.34 57.74q0 7.25-6.71 9.13-10.21 2.69-43.24 2.69-29.28 0-40.82-1.62c-3.41-.53-5.55-2.68-6.45-6.44l-1.61-16.11q-1.35-12.36-3.76-12.36 3.77 0-27.12 18.26t-56.13 18.27q-71.17 0-84.33-64.19-5.91-29.81-5.91-86.47 0-61.23 9.94-96.68 3-11 11-11 12.35 0 37.6.27t37.6.26q8.31 0 8.32 7a45.09 45.09 0 0 1-.53 5.64 484.92 484.92 0 0 0-5.64 74.12q0 46.72 3 63.91 4.83 29.55 35.18 29.54 11.82 0 25.65-10.47t14.37-21.75q.52-9.93.53-134.82 0-8.86 1.35-10.47 1.61-2.69 9.66-2.69 13.15 0 39.61.27t39.62.27q8.05 0 9.4 4a29.17 29.17 0 0 1 .49 6.46zm303.67 236.33q0 7.26-7.52 8.33t-39.21 1.08q-33.84 0-41.89-1.61t-8.06-11q0-12.62.8-38.14t.81-38.4q0-9.93-.54-29.67t-.53-29.68q0-36.8-32-36.79-10.47 0-24.44 9.13-15 10.21-15 20.14v145.02q0 8.86-8.32 9.94-9.38 1.06-38.38 1.06-31.42 0-40.82-1.61-8.33-1.33-8.32-8.86 0-21 .26-63.11t.27-63.38q0-66.87-10.47-105a19.08 19.08 0 0 1-.54-4 5.89 5.89 0 0 1 4-5.91q16.92-1.87 45.12-5.91 42.69-8.33 48.07-8.33 3 0 4.56 18.13t4.57 18.13q-3 0 28.87-18.67t55.72-18.66q34.11 0 56.94 16.11 25.51 18.54 25.51 51.57v85.66q0 17.46.27 52.24t.27 52.19zm217.72-70.9a221.62 221.62 0 0 1-2 24.44 220.57 220.57 0 0 0-2 24q0 7.65-1.61 9.8c-1.08 1.44-4 3.49-8.87 6.18q-34.64 19.07-76.8 19.06-77.62 0-77.62-59.35 0-17.72 1.35-53.3t1.34-53.31q0-11.82-13.7-11.82h-3.49c-1.61.18-2.78.27-3.49.27-6.81 0-10.2-2.42-10.2-7.25q0-4.29.67-13.16t.67-13.16q0-5.64-.67-17.19t-.67-17.18q0-5.37 17.18-5.91 9.67-.27 10.48-5.37 1.61-10.22 1.07-32.23-1.08-34.65-1.07-33 0-31.15 5.91-31.15 7.24 0 20.67 3.22 15.31 3.49 21.22 4 13.7 1.88 41.36 5.1 6.7.54 6.71 4.56 0 10.76-1.74 32.5t-1.7 32.8q0 13.17 7.79 13.16 9.39 0 28.47-.8t28.73-.81q5.91 0 5.91 4 0 6.18-1.34 18.53t-1.35 18.53q0 6.45.27 18.8t.27 18.8q0 5.64-7.79 5.64-5.37 0-18-.41t-18-.4h-20.15q-4 0-4 11.82v19.06q.25 12.9.26 19.07 0 22.56 5.11 31.15 7.24 11.55 28.46 11.55 6.72 0 19.2-3.09t17.6-3.08q5.56.03 5.56 5.93zm268.66-67.14q0 27.13-17.45 30.89-3 .54-55.59 5.91-31.7 3.5-94.53 8.32 3.75 17.46 22.82 26.59 15.57 7.51 35.45 7.52 23.89 0 48.07-12.89l20.41-12.89q5.64 2.69 18.94 27.39t13.29 31.42q0 1.89-4 6.18-32.76 35.17-101.78 35.18-63.91 0-103.13-37.33-40.27-37.87-40.28-101.25 0-61.75 36-101.24 37-40.82 98.29-40.82 51.55 0 87.55 37.6t35.94 89.42zm-94-16.38q0-16.65-11.82-29.27t-28.19-12.62q-16.92 0-27.93 14.23-10.21 13.17-10.21 30.89 0 7.25 7.52 7.25 19.88 0 61.77-6.18 8.87-1.33 8.87-4.3zm294.61-5.1q0 10.47-11.55 10.47-5.1 0-14.9-.67c-6.54-.44-11.41-.67-14.64-.67q-22.29 0-30.34 7t-8.06 28.2q0 11.55.4 35.05t.41 35q0 7.8 1.07 23.24t1.07 23q0 6.43-8.86 7.25-12.87 1.06-39.48 1.06-25.51 0-40.82-1.61-8.85-1.06-8.86-8.86 0-21.48.27-64.32t.27-64.32q0-63.1-11.55-103.93a19.08 19.08 0 0 1-.54-4 5.28 5.28 0 0 1 4-5.37q14.78-1.61 43.24-5.91 42.43-8.32 43.77-8.32 4.85 0 6.18 16.92t4.83 16.92q-3.75 0 22-14.1t49.68-14.1q15 0 15 6.44a210.66 210.66 0 0 1-1.61 22q-1.62 15.32-1.88 22 0 7.78.27 20.67.63 15.89.63 20.96z" style="fill:#fff"/></svg>