<svg width="632" height="632" viewBox="0 0 474 474" xmlns="http://www.w3.org/2000/svg"><path fill="#fdfefd" d="M148.85 121.61c6.04-1.86 13.29-1.05 17.99 3.45 4.05 4.07 4.71 10.56 2.97 15.85-3.17 9.67-11.79 17.43-21.85 19.25-4.2.88-8.5.38-12.7-.18 3.6-1.22 7.6-2.5 9.76-5.9 4.06-6.08.23-15.57-6.99-16.95-2.96-.78-5.71.97-8.23 2.26 3.95-7.88 10.34-15.23 19.05-17.78z"/><g fill="#6d3908"><path d="M149.51 62.35c1.94-1.16 4.96-1.42 6.33.71 4.04 6.07 5.39 13.58 9.79 19.45 2.43 3 5.07 5.87 8.16 8.21 7.92-.52 16 .86 23.38 3.74 6.4-5.47 11.99-11.8 17.11-18.46 2.86-3.1 6.03-7.46 10.83-6.62 6.57 8.18 11.1 18.16 11.82 28.71 1.04 8.92-2.38 17.41-4.76 25.8 3.88 8.54 7.11 17.59 7.4 27.07 1.06 16.11-4.68 32.3-15 44.62-10.49 13.19-19.73 28.99-19.29 46.37.14 17.13 10.1 32.19 21.18 44.49 9.03 8.81 18.42 17.81 23.72 29.5 3.74 7.22 4.89 15.44 5.09 23.49 10.03-8.28 16.46-21.32 15.68-34.44.49-11.58-3-22.91-7.9-33.27-3.36-6.79-8.18-12.73-11.33-19.63-9.56-19.41-11.85-42-7.56-63.12 4.31-22.38 14-44.29 30.36-60.49 18.77-18.66 45.23-28.71 71.52-29.22 13.46-.49 26.82 3.68 38.25 10.64 20.19 11.69 35.11 33.04 36.89 56.57.86 16.49-1.47 34.01-11.07 47.87-3.3 4.78-7.62 8.9-12.81 11.56 1.58-5.97 2.93-12.3 1.28-18.41-1.13-5.81-6.61-10.25-12.49-10.37-3.74-.09-7.92-.54-11.06 1.95-6.13 4.32-7.6 12.4-8.14 19.38-.55 13.45 2.33 26.76 6.09 39.6 3.04 10.41 7.99 20.14 11.22 30.49 6.26 20.58 7.81 43.67-1.02 63.76-7.39 15.63-20.5 28.49-36.26 35.61-18.58 8.53-39.83 9.32-59.78 6.26-15.31-2.18-30.06-8.04-42.66-17.01l-1.9-.04c-6.04 9.3-15 16.63-25.19 20.95 2.88 1.57 5.41 4.46 4.8 7.98-.96 3.45-4.46 5.34-7.73 6.06-10.56 1.27-21.11-.72-31.48-2.54-10.67-1.82-21.41.4-31.92 2.21-4.43.53-9.15 1.55-13.42-.25-2.72-7.72 4.86-13.85 11.01-16.82-9.32.61-18.39 3.3-27.73 3.59-2.26.36-4.05-1.14-5.58-2.54-.14-8.82 8.08-14.27 15.62-16.6l.26.15c.67.39 1.36.76 2.06 1.13-5.35 1.09-10.77 3.34-14.13 7.84-1.79 2.19-1.91 5.14-2.43 7.81 8.14 1.91 16.27-.88 24.31-1.97 6.44-1.09 12.99-.5 19.46-1.06-5.19-5.2-12.87-5.84-18.8-9.8-2.63-1.63-5.07-3.58-7.14-5.87-6.11-6.49-9.52-15.44-9.2-24.35.19-7.34 3.14-14.38 7.53-20.18 1.67-2.12 1.87-4.88 2.26-7.44-6.56-5.47-15.99-4.18-23.11-8.68-12.82-6.82-17.9-21.64-20.63-35.01-5.28-4.2-7.18-11.3-5.99-17.78 2.53-14.36 14.04-26 27.57-30.7-.28-3.72-2.09-7.52-.97-11.21 1.55-3.39 5.67-2.88 8.27-1.13.95 3.48 1.65 7.02 2.28 10.57 15.21-.73 31.01 7.09 38.23 20.77.08-5.08.31-10.31-1.29-15.2-2.42-7.8-8.29-13.95-14.55-18.91-2.66-2.38-6.39-2.38-9.63-3.43-13.41-3.82-25.99-11.29-35.08-21.95-5.1-6.01-8.99-13.16-10.41-20.97-.62-.1-1.87-.3-2.5-.41-6.52-4.29-7.73-14.62-1.86-19.94 2.62-2.47 6.4-2.39 9.56-1.12 2.35-2.68 4.9-5.18 7.23-7.88 2.2-3.22 5.01-5.97 7.13-9.24.01-.96 0-1.91-.03-2.87.6.35 1.19.71 1.78 1.08 6.37-8.4 13.18-16.5 20.58-24.02-2.78-12.44 1.24-25.87 9-35.78 2.59-3.36 5.07-7.04 8.79-9.26m1.71.36c-6.69 9.82-6.54 22.48-3.86 33.63 3-.87 5.93-1.97 8.88-3.02 4.87-1.75 10.09-2 15.13-3.03-5.05-3.96-8.85-9.36-11.27-15.27-1.62-3.64-2.83-7.55-5.23-10.78-.79-1.24-2.4-1.16-3.65-1.53M139.8 74.72c-6.55 9.07-8.95 20.74-7.23 31.74 2.53-2.18 5.21-4.19 8.02-6.01.13-.67.38-2.02.51-2.7-.07.61-.2 1.83-.26 2.44 1.71-.94 3.44-1.85 5.19-2.71-.36-4.53-1.85-8.91-1.83-13.48-.11-6.7 1.45-13.33 4.19-19.42-3.56 2.73-5.95 6.59-8.59 10.14m67.17 12.2c-8.22 8.17-16.98 16.42-27.68 21.18 5.44-4.51 11.67-7.98 16.88-12.79-8.48-2.53-17.33-3.73-26.16-4.06-12.52 1.42-24.54 6.56-34.48 14.26-5.85 4.92-10.54 10.99-15.71 16.56l-.14.67c-3.47 3.85-6.46 8.11-10.01 11.91l.45.18c-2.81 1.89-4.41 5.15-6.81 7.53l.41.39c-2.69 2.65-5.31 5.4-7.62 8.39.68.88 1.4 1.72 2.16 2.54.78 2.89 1.43 5.82 2.29 8.69 5.33 5.44 11.77 10.45 19.41 11.98 13.71 2.22 27.49-2.46 41.21-.45 10.33 1.38 19.66 10.38 19.73 21.1-.1 8.12-4.54 15.25-7.42 22.61-2.03 4.35-1.6 9.3-1.1 13.93 2.62 12.61 8.62 24.51 8.91 37.57 1.39-1.13 2.8-2.25 4.24-3.32-1.76 4.71-5.91 7.95-9.87 10.78-4.03 2.57-8.51 5.63-13.54 4.93-6.39-.92-11.69-6.55-18.45-5.09-6.45 2.26-11.11 7.74-14.94 13.17-3.59 5.77-7.18 12.9-4.48 19.76 9.24-3.82 13.68-14.01 22.52-18.48 3.89-1.96 8.3-.35 11.8 1.68 7.02 4.11 15.78 5.09 23.52 2.54 4.71-1.32 8.58-4.47 13.15-6.12-4.13 4.96-10.78 6.64-16.66 8.6-2.18 10.5-5.14 20.84-6.72 31.45 3.52-3.05 7.3-5.9 11.73-7.51-11.15 6.42-19.47 17.61-21.49 30.42-1.6 12.76.99 26.56 9.39 36.62 1.65 2 3.97 3.39 5.44 5.54l.3.68c1.18 1.12 2.72 1.72 4.15 2.47-8.65-1.89-17.54-3.49-26.41-2.48-6.74.75-13.62 4.77-16.19 11.26-.97 2.02-.32 5.13 2.38 5.06 11.36-.03 22.39-3.8 33.76-3.65 13.38.6 26.66 5.46 40.1 2.98 3-.69 6.99-3.44 5.51-6.98-1.39-3.65-5.42-4.81-8.66-6.25 2.06-.2 4.21-.13 6.15-.94 14.51-6.53 25.54-19.55 31.06-34.32 2.13-5.92 4.03-12.09 3.75-18.45 1.24-2.72.44-5.59.07-8.39.34-15.65-9.16-29.47-19.9-40.02-6.1-5.29-11.36-11.46-16.13-17.96-7.8-10.74-13.69-23.64-13.23-37.16-.3-7.41 2.27-14.52 4.8-21.36 4.25-10.1 10.87-18.93 17.6-27.5 5.97-7.81 9.58-17.18 11.24-26.83 1.56-12.77.5-26.26-5.95-37.66-2.37 4.02-3.69 8.87-7.57 11.79 4.13-7.28 7.5-14.96 9.56-23.09 5.25-15.29 1.02-32.92-9.4-45.05-7.82 2.89-11.25 11.2-16.95 16.69m90.42 26.44c-19.06 10.27-34.37 27.22-42.86 47.13-9.61 21.27-13.42 45.35-9.48 68.44.66 2.08 1.81 4 2.32 6.13 1.85 10.7 7.24 20.38 13.21 29.3 3.34 5.25 5.92 10.96 8 16.82 3.94 12.57 5.97 26.43 1.67 39.18-3 7.34-7.31 14.32-13.35 19.56-2.23 1.52-2.05 4.4-2.49 6.77-1.34 10.12-5.41 19.65-10.21 28.58 17.87 12.63 39.92 19.2 61.78 18.54 16.03.63 32.48-2.41 46.51-10.4 11.45-6.46 20.68-16.45 27.26-27.75 6.01-10.51 7.6-22.78 7.99-34.69.07-5.27-1.05-10.46-1.2-15.72-1.61-10.56-4.99-20.79-9.28-30.56-6.64-16.5-11.32-33.94-12.48-51.73.56-8.48 1.4-18.07 7.8-24.38 7.68-6.01 20.68-4.42 25.64 4.39 3.56 6.14 2.81 13.36 1.87 20.08 10.98-9.12 17.13-22.96 18.61-36.97 1.02-7 1.64-14.15.39-21.16-.62-12.82-6.28-24.95-14.03-35.02-11.82-15.07-29.31-25.86-48.31-28.77-20.42-2.14-41.3 2.62-59.36 12.23M99.68 163.7c-1.18 4.06-4.05 7.57-8.38 8.34.01 1.8 1.09 3.19 2.2 4.49 1.95 4.66 5.22 8.99 10.07 10.88 5.53 2.71 11.91 1.49 17.3-.94-.47 3.44-4.58 3.72-7.26 4.36-5.85 1.19-11.25-1.67-16.19-4.39.91 1.74 1.95 3.42 3.24 4.91 9.52 11.33 22.87 19.16 37.19 22.68 2.09.61 4.35.81 6.26 1.94 7.51 5.5 14.47 12.65 16.98 21.88 2.15 6.86.22 14.09 1.32 21.08.58 3.56-.81 6.99-2.19 10.19.75 3.67 1.23 7.38 1.51 11.12 6.25.2 11.62-3.49 16.25-7.26.79-.89 2.3-1.54 2.21-2.93-.4-9.06-3.04-17.83-5.91-26.37-1.91-6.08-3.9-12.29-3.8-18.74.22-6.62 4-12.31 6.27-18.35 2.62-5.99 4.25-13.29.94-19.35-2.97-6.32-9.21-10.84-16.09-11.88-13.79-2.29-27.67 2.75-41.46.39-8.01-1.51-14.58-6.7-20.46-12.05M97 185.97c.1.11.31.35.42.47-.11-.12-.32-.36-.42-.47-.56-.58-.56-.58 0 0m1.08 99.12c2.6 12.32 9.15 25.48 21.52 30.31l.31-.92c-9.09-5.99-13.81-16.64-16.64-26.79-.57-2.22-3.49-1.83-5.19-2.6m62.67 10.02c-1.45 6.43-4.48 12.68-9.56 17.02-4.05 3.76-9.22 5.94-13.5 9.39-2.93 10.39-4.6 21.38-2.26 32.08 3.13 15.94 12.84 30.89 27.08 39.01 4.35.97 8.9 1.07 13.26 2.14-.32-.81-.73-1.56-1.22-2.26-15.49-12.58-19.29-36.55-10.05-53.93 1.76-3.6 5.5-6.18 5.98-10.35 1.81-10.23 4.56-20.26 6.71-30.42-5.66.87-11.31-.27-16.44-2.68m-30.57 73.56c4.29 8.3 11.84 15.18 21.02 17.47-3.3-4.16-7.01-8.04-9.6-12.72-7.1-11.25-9.27-24.9-8.54-38.01-7.31 9.26-8.15 22.84-2.88 33.26z"/><path d="M151.38 119.55c5.1-.96 10.7.11 14.86 3.28 5.55 3.81 6.84 11.65 5.04 17.78-3.98 14.79-20.8 24.66-35.61 20.54-3.36-1.25-7.34-2.65-9.04-6.03-.98-7.44.59-15.37 5.01-21.51 4.68-6.72 11.47-12.57 19.74-14.06m-2.53 2.06c-8.71 2.55-15.1 9.9-19.05 17.78 2.52-1.29 5.27-3.04 8.23-2.26 7.22 1.38 11.05 10.87 6.99 16.95-2.16 3.4-6.16 4.68-9.76 5.9 4.2.56 8.5 1.06 12.7.18 10.06-1.82 18.68-9.58 21.85-19.25 1.74-5.29 1.08-11.78-2.97-15.85-4.7-4.5-11.95-5.31-17.99-3.45zm-14.47 257.88c.52.53.52.53 0 0z"/></g><g fill="#fd8e1a"><path d="M151.22 62.71c1.25.37 2.86.29 3.65 1.53 2.4 3.23 3.61 7.14 5.23 10.78 2.42 5.91 6.22 11.31 11.27 15.27-5.04 1.03-10.26 1.28-15.13 3.03-2.95 1.05-5.88 2.15-8.88 3.02-2.68-11.15-2.83-23.81 3.86-33.63z"/><path d="M206.97 86.92c5.7-5.49 9.13-13.8 16.95-16.69 10.42 12.13 14.65 29.76 9.4 45.05-2.06 8.13-5.43 15.81-9.56 23.09 3.88-2.92 5.2-7.77 7.57-11.79 6.45 11.4 7.51 24.89 5.95 37.66-1.66 9.65-5.27 19.02-11.24 26.83-6.73 8.57-13.35 17.4-17.6 27.5-2.53 6.84-5.1 13.95-4.8 21.36-.46 13.52 5.43 26.42 13.23 37.16 4.77 6.5 10.03 12.67 16.13 17.96 10.74 10.55 20.24 24.37 19.9 40.02.37 2.8 1.17 5.67-.07 8.39.28 6.36-1.62 12.53-3.75 18.45-5.52 14.77-16.55 27.79-31.06 34.32-1.94.81-4.09.74-6.15.94 3.24 1.44 7.27 2.6 8.66 6.25 1.48 3.54-2.51 6.29-5.51 6.98-13.44 2.48-26.72-2.38-40.1-2.98-11.37-.15-22.4 3.62-33.76 3.65-2.7.07-3.35-3.04-2.38-5.06 2.57-6.49 9.45-10.51 16.19-11.26 8.87-1.01 17.76.59 26.41 2.48-1.43-.75-2.97-1.35-4.15-2.47l-.3-.68c-1.47-2.15-3.79-3.54-5.44-5.54-8.4-10.06-10.99-23.86-9.39-36.62 2.02-12.81 10.34-24 21.49-30.42-4.43 1.61-8.21 4.46-11.73 7.51 1.58-10.61 4.54-20.95 6.72-31.45 5.88-1.96 12.53-3.64 16.66-8.6-4.57 1.65-8.44 4.8-13.15 6.12-7.74 2.55-16.5 1.57-23.52-2.54-3.5-2.03-7.91-3.64-11.8-1.68-8.84 4.47-13.28 14.66-22.52 18.48-2.7-6.86.89-13.99 4.48-19.76 3.83-5.43 8.49-10.91 14.94-13.17 6.76-1.46 12.06 4.17 18.45 5.09 5.03.7 9.51-2.36 13.54-4.93 3.96-2.83 8.11-6.07 9.87-10.78-1.44 1.07-2.85 2.19-4.24 3.32-.29-13.06-6.29-24.96-8.91-37.57-.5-4.63-.93-9.58 1.1-13.93 2.88-7.36 7.32-14.49 7.42-22.61-.07-10.72-9.4-19.72-19.73-21.1-13.72-2.01-27.5 2.67-41.21.45-7.64-1.53-14.08-6.54-19.41-11.98-.86-2.87-1.51-5.8-2.29-8.69.44-4.23 3.45-7.33 6.64-9.8-.3-.28-.89-.85-1.18-1.13l-.41-.39c2.4-2.38 4-5.64 6.81-7.53.31.12.93.35 1.24.47 1.68-2.34 4.24-3.69 6.39-5.51 1.14-2.17 1.35-4.7 1.93-7.05l.14-.67c5.17-5.57 9.86-11.64 15.71-16.56 9.94-7.7 21.96-12.84 34.48-14.26 8.83.33 17.68 1.53 26.16 4.06-5.21 4.81-11.44 8.28-16.88 12.79 10.7-4.76 19.46-13.01 27.68-21.18m4.75 14.76c-4.59 2.6-8.91 5.64-13.51 8.25 2.94 3.59 5.49 7.76 9.61 10.14 2.09 1.25 4.03 2.79 6.31 3.69 1.8.14 3.6-.05 5.41-.13 6.08-5.35 6.29-14.1 5.98-21.59.24-4.12-1.98-7.82-2.11-11.91-.82-.64-1.63-1.28-2.49-1.86-3.93 3.86-4.14 10.58-9.2 13.41m-60.34 17.87c-8.27 1.49-15.06 7.34-19.74 14.06-4.42 6.14-5.99 14.07-5.01 21.51 1.7 3.38 5.68 4.78 9.04 6.03 14.81 4.12 31.63-5.75 35.61-20.54 1.8-6.13.51-13.97-5.04-17.78-4.16-3.17-9.76-4.24-14.86-3.28z"/><path d="M297.39 113.36c18.06-9.61 38.94-14.37 59.36-12.23 19 2.91 36.49 13.7 48.31 28.77 7.75 10.07 13.41 22.2 14.03 35.02 1.25 7.01.63 14.16-.39 21.16-1.48 14.01-7.63 27.85-18.61 36.97.94-6.72 1.69-13.94-1.87-20.08-4.96-8.81-17.96-10.4-25.64-4.39-6.4 6.31-7.24 15.9-7.8 24.38 1.16 17.79 5.84 35.23 12.48 51.73 4.29 9.77 7.67 20 9.28 30.56.15 5.26 1.27 10.45 1.2 15.72-.39 11.91-1.98 24.18-7.99 34.69-6.58 11.3-15.81 21.29-27.26 27.75-14.03 7.99-30.48 11.03-46.51 10.4-21.86.66-43.91-5.91-61.78-18.54 4.8-8.93 8.87-18.46 10.21-28.58.44-2.37.26-5.25 2.49-6.77 6.04-5.24 10.35-12.22 13.35-19.56 4.3-12.75 2.27-26.61-1.67-39.18-2.08-5.86-4.66-11.57-8-16.82-5.97-8.92-11.36-18.6-13.21-29.3-.51-2.13-1.66-4.05-2.32-6.13-3.94-23.09-.13-47.17 9.48-68.44 8.49-19.91 23.8-36.86 42.86-47.13zM98.08 285.09c1.7.77 4.62.38 5.19 2.6 2.83 10.15 7.55 20.8 16.64 26.79l-.31.92c-12.37-4.83-18.92-17.99-21.52-30.31zm32.1 83.58c-5.27-10.42-4.43-24 2.88-33.26-.73 13.11 1.44 26.76 8.54 38.01 2.59 4.68 6.3 8.56 9.6 12.72-9.18-2.29-16.73-9.17-21.02-17.47z"/><path d="M134.55 377.39c2.07 2.29 4.51 4.24 7.14 5.87 5.93 3.96 13.61 4.6 18.8 9.8-6.47.56-13.02-.03-19.46 1.06-8.04 1.09-16.17 3.88-24.31 1.97.52-2.67.64-5.62 2.43-7.81 3.36-4.5 8.78-6.75 14.13-7.84-.7-.37-1.39-.74-2.06-1.13 1.15-1.38 2.64-1.48 4.48-.29l-1.15-1.63m-.17 2.1c.52.53.52.53 0 0z"/></g><path d="M139.8 74.72c2.64-3.55 5.03-7.41 8.59-10.14-2.74 6.09-4.3 12.72-4.19 19.42-.02 4.57 1.47 8.95 1.83 13.48-1.75.86-3.48 1.77-5.19 2.71.06-.61.19-1.83.26-2.44-.13.68-.38 2.03-.51 2.7a73.507 73.507 0 0 0-8.02 6.01c-1.72-11 .68-22.67 7.23-31.74zm71.92 26.96c5.06-2.83 5.27-9.55 9.2-13.41.86.58 1.67 1.22 2.49 1.86.13 4.09 2.35 7.79 2.11 11.91.31 7.49.1 16.24-5.98 21.59-1.81.08-3.61.27-5.41.13-2.28-.9-4.22-2.44-6.31-3.69-4.12-2.38-6.67-6.55-9.61-10.14 4.6-2.61 8.92-5.65 13.51-8.25zm-102.05 32.97c3.55-3.8 6.54-8.06 10.01-11.91-.58 2.35-.79 4.88-1.93 7.05-2.15 1.82-4.71 3.17-6.39 5.51-.31-.12-.93-.35-1.24-.47l-.45-.18zM96.1 151.14c2.31-2.99 4.93-5.74 7.62-8.39.29.28.88.85 1.18 1.13-3.19 2.47-6.2 5.57-6.64 9.8-.76-.82-1.48-1.66-2.16-2.54zm3.58 12.56c5.88 5.35 12.45 10.54 20.46 12.05 13.79 2.36 27.67-2.68 41.46-.39 6.88 1.04 13.12 5.56 16.09 11.88 3.31 6.06 1.68 13.36-.94 19.35-2.27 6.04-6.05 11.73-6.27 18.35-.1 6.45 1.89 12.66 3.8 18.74 2.87 8.54 5.51 17.31 5.91 26.37.09 1.39-1.42 2.04-2.21 2.93-4.63 3.77-10 7.46-16.25 7.26-.28-3.74-.76-7.45-1.51-11.12 1.38-3.2 2.77-6.63 2.19-10.19-1.1-6.99.83-14.22-1.32-21.08-2.51-9.23-9.47-16.38-16.98-21.88-1.91-1.13-4.17-1.33-6.26-1.94-14.32-3.52-27.67-11.35-37.19-22.68-1.29-1.49-2.33-3.17-3.24-4.91 4.94 2.72 10.34 5.58 16.19 4.39 2.68-.64 6.79-.92 7.26-4.36-5.39 2.43-11.77 3.65-17.3.94-4.85-1.89-8.12-6.22-10.07-10.88-1.11-1.3-2.19-2.69-2.2-4.49 4.33-.77 7.2-4.28 8.38-8.34zM97 185.97c-.56-.58-.56-.58 0 0zm0 0c.1.11.31.35.42.47-.11-.12-.32-.36-.42-.47zm63.75 109.14c5.13 2.41 10.78 3.55 16.44 2.68-2.15 10.16-4.9 20.19-6.71 30.42-.48 4.17-4.22 6.75-5.98 10.35-9.24 17.38-5.44 41.35 10.05 53.93.49.7.9 1.45 1.22 2.26-4.36-1.07-8.91-1.17-13.26-2.14-14.24-8.12-23.95-23.07-27.08-39.01-2.34-10.7-.67-21.69 2.26-32.08 4.28-3.45 9.45-5.63 13.5-9.39 5.08-4.34 8.11-10.59 9.56-17.02z" fill="#fcd199"/></svg>