<svg width="1048" height="1440" viewBox="0 0 786 1080" xmlns="http://www.w3.org/2000/svg"><path fill="#a07d5a" d="M602.54 0h5.01c1.13.33 2.26.68 3.4 1.04-11.1 14.18-11.7 33.28-9.47 50.38 15.13.17 29.36 6.38 42.21 13.9 9.25 5.64 18.21 12.36 24.47 21.33-10.33 2.26-21.7 1.94-30.77 8.09 11.11 12.18 17.35 28.13 19.56 44.32 1.13 9.84.92 20.09-2.65 29.46l-.66-.74c-2.25-1.95-3.67-4.61-5.32-7.03-3.13-4.86-6.79-9.39-11.08-13.28-7-7.84-15.88-13.82-25.46-18.04-8.01-3.98-16.86-5.69-25.68-6.66-9.35-1.57-18.78.07-28.07 1.22-10.04 1.24-19.67 4.49-29.17 7.83-7.5 2.88-15.03 5.81-22.08 9.67-.89.51-1.77 1.04-2.62 1.6-5.24 3.59-11.02 6.28-16.39 9.66-27.51 16.61-52.56 37.08-75.04 59.98-5.19 4.85-9.4 10.59-14.04 15.94-2.15 1.5-4.33 3.05-5.85 5.24-6.34 8.49-13.21 16.72-18.05 26.21-1.18 1.3-2.31 2.65-3.47 3.98-1.87-2.83-3.82-5.62-6.11-8.12-3.67-5.37-7.92-10.28-11.77-15.5-1.36-2.01-3.37-3.35-5.33-4.69-7.83-9.12-14.99-18.88-23.86-27.08-7.71-8.9-15.89-17.43-24.94-24.99-4.63-4.85-9.6-9.32-14.83-13.51-1.39-3.35-4.95-4.82-7.56-7.07-16.75-13.33-34.73-25.48-54.78-33.27-13.59-5.26-28.51-8.66-43.05-5.74-18.99 3.02-34.19 17.45-43.07 33.88-1.85 2.87-2.44 7.01-5.99 8.29-1.43-11.36-1.63-22.87-.98-34.29.51-.26 1.53-.78 2.04-1.05-.66 4.76-.4 9.56-.15 14.33.03 2.2-.02 4.4.17 6.59.14 2.82.52 5.62 1.11 8.38 3.67-3.23 5.47-7.87 8.27-11.78 9.7-13.69 24.49-24.57 41.52-26.37 7.9-1.57 15.9-.09 23.71 1.27 25.08 5.93 47.39 19.82 67.74 35.19 20.26 15.16 38.19 33.08 55.6 51.35 13.87 15.23 26.94 31.18 39.3 47.65 1.1 1.24 2.25 2.42 3.31 3.7 12.77-19.62 27.31-38.16 44.06-54.55 14.75-15.02 30.86-28.7 47.9-41.05 13.59-9.82 27.87-18.76 43.06-25.9 22.61-11.17 47.39-19.38 72.83-19.13 10.2.48 20.34 2.26 29.82 6.15 10.91 4.06 20.41 11.13 28.82 19.05 5.79 5.55 9.64 12.77 15.47 18.26 4.24-19.12.13-39.43-9.32-56.39-2.75-4.87-6.97-8.68-9.67-13.58 7.99-7.22 19.35-6.38 28.9-9.8-6.58-8.21-15.44-14.21-24.53-19.31-8.11-4.65-16.98-7.84-26.05-10.03-4.48-.91-9.06-1.27-13.54-2.22-.96-8.06-1.76-16.22-.85-24.33.86-7.4 2.79-14.65 5.29-21.66 1.17-1.57 2.31-3.16 3.42-4.78-6.65.24-13.56 1.1-19.32 4.69-12.6 6.05-23.47 15.15-33.12 25.16-3.76 3.89-7.49 7.84-10.65 12.25l-.28-3.12c6.27-7.69 13.24-14.81 20.78-21.27 10.95-9.18 23.4-17.59 37.85-19.71z"/><path d="M250.6 37.65c38.31-21.43 81.48-34.26 125.36-36.53 37.93-2.14 76.26 3.26 112.09 15.9 18.88 6.82 37.36 15.12 54.27 25.97-.23.32-.7.96-.94 1.28-18.61-11.35-38.47-20.71-59.26-27.33-13.42-4.47-27.16-8.29-41.26-9.8A198.536 198.536 0 0 0 395 2.64c-42.87-.79-85.82 8.69-124.64 26.81-16.58 7.62-32.01 17.42-47.1 27.62-.25-.43-.74-1.29-.98-1.71 9.49-5.82 18.47-12.47 28.32-17.71zM130.16 166.93c.48.1 1.44.31 1.92.41-1.3 3.9-2.87 7.7-4.27 11.56-.65 1.63-1.28 3.26-1.9 4.89-1.33 2.75-2.69 5.49-3.67 8.38-5.48 15.64-10.15 31.61-13.03 47.94-1.03 10.33-3.56 20.51-3.52 30.93-.06 6.66-1.12 13.28-.98 19.95.13 9.67.87 19.33 1.51 28.99 4.69 49.14 22.09 97.43 51.76 137.04 1.83 3.39 3.85 6.69 6.34 9.66 41.83 54.56 103.67 93.66 171.25 106.86 45.51 9.46 93.29 7.13 137.82-6.12 32.84-9.58 63.76-25.46 91.17-45.89 26.11-19.68 48.8-43.8 67-70.95 35.38-53.03 52.63-118.04 47.4-181.63-2.25-30.71-9.82-60.95-21.5-89.41-1.5-3.83-4.05-7.48-3.82-11.76l.66.74c.81.96 1.5 2.03 2.06 3.17 23.66 51.67 30.84 110.41 21.81 166.42-2.14 15.05-6.57 29.63-10.43 44.29 8.63-4.59 16.28-10.78 24.37-16.24 15.88-11.53 31.71-23.46 44.86-38.14 6.5-6.97 10.76-15.74 17.74-22.31 5.15-5.16 12.26-9.95 19.91-8.24 5.61 1.25 8.74 6.48 11.38 11.11v7.87c-2.02-5.37-3.45-11.56-8.24-15.22-3.48-2.66-8.17-2.1-12.03-.67-11.09 4.94-16.81 16.16-23.91 25.28-6.33 7.9-13.93 14.66-21.66 21.14-14.99 11.89-30.23 23.5-46.35 33.85-2.89 2.05-6.37 3.57-8.4 6.58-1.21 2-1.86 4.27-2.52 6.49-4.68 14.37-11.63 27.9-18.98 41.06-17.55 30.79-40.8 58.31-68.22 80.75-2.56 2.1-5.01 4.32-7.6 6.37-8.07 5.54-15.84 11.48-23.65 17.36-2.85 2.2-6.04 4.02-8.47 6.71.42 3.78 1.89 7.32 2.95 10.95 7.07 23.52 12.3 47.66 14.65 72.13.59 5.55.4 11.16 1.24 16.68.29 3.25 3.88 4.46 6.28 5.96 1.86.92 3.76 1.76 5.76 2.37 7.62 2.49 16.15 1.54 23.24-2.13 9.65-5.38 16.34-15.09 19.66-25.46 1.71-3.81-2.32-6.34-4.55-8.72-5.08-5.32-10.54-10.32-15.06-16.14 7.09 4.79 12.28 11.78 18.95 17.1 5.19 6.69 13.15 10.19 20.75 13.37 9.05 3.51 20.37 4.46 28.39-1.95 6.78-4.91 9.46-13.4 10.57-21.34.72-7.42.15-16.52-6.84-20.92-5.38-5.09-11.64-9.38-16.05-15.41 5.67 3.66 10.51 8.42 15.81 12.57 2.46 2.44 5.11 5.1 8.81 5.29 15.03 1.65 30.56 2.55 45.28-1.67 5.4-1.54 10.11-5.1 13.38-9.63 2.89-4.33 3.16-9.86 2.48-14.87-1.25-7.84-4.57-15.33-9.34-21.64-1.21-1.8-3.34-2.41-5.32-2.86-10.31-2.55-20.97-3.88-30.98-7.51 9.63 1.42 19.19 3.3 28.76 5.1 3.68.78 7.56.99 11.15-.34 12.06-3.87 24.4-8.52 33.77-17.35 5.51-5.15 8.64-13.27 6.34-20.68-2.76-8.91-10.1-15.37-17.22-20.91-3.08-2.68-7.29-2.16-11-1.57-6.6 1.02-13.31 1.85-19.97.99 8.24-1.62 16.71-1.84 24.93-3.68 6.39-.93 11.71-4.79 17.17-7.94 9.43-5.92 18.46-13.85 22.31-24.61 3.17-8.62 1.11-18.78-4.99-25.6-4.81-5.74-11.56-10.54-19.29-10.74-2.19-.23-3.7 1.6-5.29 2.77-8.45 6.85-16.69 13.94-25.1 20.84-2.07 1.71-4.3 3.2-6.63 4.52 3.4-4.01 7.71-7.07 11.57-10.6 5.27-4.75 10.6-9.42 15.95-14.06 5.03-4.37 8.96-9.79 12.61-15.32 4.8-4.83 7.99-10.89 11.26-16.8 3.94-7.42 7.31-15.17 9.75-23.22 1.3-4.88 2.24-9.85 3.89-14.64v10.89c-3.73 10.44-7.28 21.04-12.99 30.62-4.29 7.86-9.63 15.06-15.16 22.08 6.65 1.5 13.28 3.99 18.23 8.86 5.12 4.62 8.03 11.06 9.92 17.57v8.94c-1.76 5.36-3.78 10.76-7.36 15.2-7.82 10.1-19.11 16.58-30.2 22.48 4.77 4.36 10.23 8.05 14.06 13.35 4.52 6.03 7.8 13.96 5.42 21.52-2.08 7.35-7.84 12.86-14.12 16.82-9.3 6.3-20.09 9.7-30.6 13.34 5.21 8.84 11.11 18.21 10.65 28.89.4 8.81-5.86 16.81-13.86 19.95-16.05 7.04-34.05 4.64-51 3.57 3.2 10.75 2.65 23.16-3.77 32.65-3.97 6.32-10.67 11.09-18.25 11.56-12.7 1.36-24.3-5.15-34.73-11.54-3.6 11.27-10.29 22.25-20.86 28.15-6.07 3.46-13.21 5.18-20.16 4.08-5.9-.76-11.25-3.52-16.36-6.4.14 22.18-1.42 44.49-6.61 66.11-4.13 17.56-10.04 34.75-18.22 50.85-.75 1.36-.98 2.92-1.39 4.41-1.15.25-2.3.54-3.43.85 2.68-6.54 6.28-12.65 8.82-19.25 13.12-31.26 18.77-65.27 18.83-99.06-.61-12.75-1.13-25.56-3.49-38.14-2.36-23.49-8.66-46.39-15.78-68.82-.44-1-.97-1.94-1.53-2.86-40.01 22.13-85.32 34.94-131.08 35.98-4.25.29-8.52.85-12.79.44-7.39-.99-14.86-.79-22.27-1.53-37.77-2.89-74.64-14.42-108.23-31.77-3.69-1.81-6.83-4.56-10.61-6.2-1.42 1.51-1.39 3.77-1.81 5.7-2.78 14.96-5.93 29.88-7.62 45.03-2.56 20.98-3.47 42.17-2.37 63.28.56 9.33 1.3 18.74 3.67 27.81 1.56 17.41 6.59 34.34 12.44 50.75 3.83 10.43 8.47 20.54 13.73 30.33 2.39 4.31 5.27 8.38 7.01 13.04-1.05-.38-2.11-.73-3.17-1.06-8.69-14.69-16.19-30.12-21.62-46.31-10-29.15-14.45-60.03-14.67-90.79-8.04 4.26-17.39 7.33-26.5 4.93-15.19-3.51-25.34-17.59-29.75-31.79-9.01 5.55-18.58 11.13-29.42 11.71-8.61.89-17.56-3.06-22.56-10.14-6.84-9.96-8.66-23.12-4.5-34.5-15.96 1.8-32.57 3.15-48.11-1.88-8.38-2.78-16.32-9.82-16.83-19.13-1.26-11.07 4.43-21.16 10.02-30.22-.1-.33-.29-.99-.38-1.32-12.22-3.84-24.66-8.22-34.69-16.47-5.3-4.51-9.86-10.8-9.9-18.03-.22-7.88 4.18-15 9.41-20.55 3.03-3.35 6.88-5.78 10.18-8.83l-.04-1.19c-11.08-5.62-22.01-12.36-29.73-22.31-6.03-7.76-9.12-18.48-5.73-28 3.75-11.68 14.63-20.77 26.96-21.7C14.58 369.51 1.5 344.57 0 317.52V306.7c1.92-6.4 3.12-13.63 8.41-18.27 5.17-5.12 13.77-4.12 19.31-.13 10.96 7.14 16.38 19.54 25.09 28.86 16.02 16.95 34.91 30.84 54.07 43.99 1.39.8 2.79 1.57 4.18 2.38-.63-4.64-1.91-9.16-2.87-13.73-11.78-57.22-5.94-117.96 16.77-171.81 1.62-3.73 3.06-7.58 5.2-11.06M10.24 289.19c-5.75 5.19-7.65 13.37-7.86 20.83-1.32 19.14 4.98 37.99 13.88 54.7 3.43 6 6.46 12.63 11.98 17.05 2.94 4.89 6.55 9.42 10.64 13.4 9.47 8.16 18.78 16.52 28.25 24.69 1.08.97 1.96 2.14 2.83 3.31-1.68-1.02-3.34-2.08-4.81-3.37-9.6-8.14-19.33-16.12-29.09-24.05-1.3-1.55-2.73-3.41-5.03-3.04-15.76.34-28.82 16.83-26.05 32.28 1.31 7.13 5.47 13.44 10.22 18.77 7.15 6.87 15.68 12.13 24.44 16.68 2.31 1.27 4.98 1.38 7.55 1.42 7.96 1.96 16.43 1.89 24.23 4.01-6.49.63-12.94-.8-19.39-1.25-3.57-.48-7.67-1.64-10.9.54-7.83 5.06-14.81 12.08-18.14 20.94-2.68 7.18.04 15.34 5.19 20.7 7.25 7.45 17.01 11.63 26.51 15.44 6.09 2.49 12.8 5.02 19.42 3.04 8.25-1.94 16.67-3.32 25.11-4.13-8.92 3.51-18.77 3.92-27.91 6.79-2.05-.01-3.99.51-5.02 2.44-5.4 8.17-10.23 17.56-9.43 27.66.06 6.95 4.53 13.43 10.79 16.31 13.43 6.53 28.86 5.7 43.36 4.7 5.71-.5 12.87-.35 16.04-6.14 6.39-4.88 12.09-10.67 18.84-15.07-5.24 6.45-12.27 11.16-17.86 17.31-3.11 1.87-6.05 4.47-6.9 8.17-2.56 9.05-1.5 19.25 2.98 27.54 3.61 5.51 8.94 10.81 15.84 11.46 9.52 1.49 19.14-1.34 27.38-6.03 3.88-2.27 8.52-4.14 10.53-8.48 7.99-5.34 13.3-13.86 21.27-19.16-4.64 6.19-10.35 11.5-15.46 17.31-2.33 2.07-6.13 4.29-4.82 8.01 3.37 10.06 9.26 20.07 18.84 25.32 7.21 4.49 16.26 5.36 24.33 2.97 2.05-.86 4.37-1.55 5.82-3.34 2.2-.28 5.35-1.03 5.07-3.91.27-29.23 4.03-58.36 10.47-86.85 1.11-2.61-1.69-3.96-3.44-5.16-5.28-3.31-9.59-8-15.18-10.82-.38-1.42-1.76-2.24-2.74-3.2-5.49-4.48-10.77-9.22-15.79-14.22-5.51-5.49-11.48-10.5-16.85-16.14-35.07-34.69-61.98-78.08-75.23-125.74-.21-1.88-.72-3.75-1.62-5.41-1.99-2.08-4.61-3.38-6.93-5.03-10.81-7.4-21.37-15.18-31.55-23.43-1.15-.88-2.42-1.59-3.69-2.26-.87-1.17-1.94-2.15-3.06-3.06-9.61-8.01-18.82-16.75-25.68-27.3-4.67-7.06-10.37-13.51-17.69-17.9-4.32-1.79-9.91-2.74-13.69.7z" fill="#2b0e03"/><g fill="#e6c8a2"><path d="M587.96 6.69c5.76-3.59 12.67-4.45 19.32-4.69a147.85 147.85 0 0 1-3.42 4.78c-5.54 2.84-8.63 8.49-11.17 13.9-5.42 13.02-6.25 27.38-5.68 41.3 10.63-.03 21.45-.07 31.67 3.34 8.56 2.62 16.49 7.51 22.25 14.42-13.75-.77-25.89 6.74-37.01 13.86 7.08 2.04 14.41 4.38 19.83 9.65 4.52 4.45 9.79 9.21 10.44 15.93-2.44-.6-4.86-1.26-7.19-2.18-9.43-3.9-19.45-6.21-29.53-7.59-9.35-.81-18.75-2.5-28.12-1.08-34.71 2.24-67.36 16.98-95.94 36.11-21.18 14.37-40.92 30.86-58.73 49.24-16.05 15.46-30.64 32.33-44.99 49.36-1.14-1.11-2.19-2.31-3.31-3.43-11.73-14.83-24.27-29.01-37.09-42.9-11.88-11.81-23.34-24.08-36.14-34.91-9.06-7.63-17.92-15.56-27.72-22.24-18.37-12.76-38.27-24.49-60.54-28.58-16.06-3.16-33.71-.09-46.73 10.17-12.04 8.63-19.36 21.88-25.91 34.8-.4-1.36-.78-2.71-1.14-4.07-.19-2.19-.14-4.39-.17-6.59.83-2.71 1.71-5.41 2.23-8.2 2.31-12.24 7.09-23.91 13.36-34.64 2.47-4.01 5.91-7.32 8.51-11.25-8.98-1.32-18.08-3.45-27.15-1.58 1.74-4.16 4.38-7.97 8.12-10.57 13.39-9.81 30.48-13.94 46.92-13.04-5.6-9.73-11.43-19.35-16.43-29.41-2.21-4.44-5.07-8.51-7.57-12.78 1.96-.33 3.91-1.08 5.92-.66 16.6 2.39 31.31 12.32 42.09 24.85 10.95 12.17 18.25 27.04 24.74 41.93 1.54-5.95 1.91-12.51 5.61-17.64 2.28-3.23 7.15-4.54 10.38-1.91 6.77 5.05 11.21 12.54 14.97 19.96 6.01 12.41 10.39 25.54 13.9 38.85 2.55-4.93 2.82-10.87 6.3-15.37 1.73-2.36 4.73-4.36 7.77-3.44 5.92 1.66 10.14 6.58 13.45 11.5 8.34 12.63 14.07 26.78 18.37 41.23 2.11-4.96 2.91-10.8 7-14.65 2.87-2.58 7.39-1.3 9.76 1.35 4.86 5.13 8.02 11.59 11.05 17.91 6.28 13.92 10.88 28.55 14.68 43.32.55 1.84 1.36 3.6 2.2 5.34 4.58-9.27 8.43-18.9 13.4-27.99 7.78-13.79 14.78-28.44 26.25-39.65 3.27-3.27 8.08-5.89 12.77-4.23 5.59 3.01 7.03 9.6 9.65 14.86 2.89-6.55 4.21-13.64 6.94-20.26 4.81-12.72 10.07-25.62 18.85-36.19 3.04-3.15 6.9-6.91 11.63-6.47 6.41 2.05 7.49 9.44 9.61 14.89.86-1.55 1.68-3.13 2.47-4.71 4.81-12.73 10.52-25.31 18.71-36.26 3.81-4.16 7.55-9.26 13.34-10.61 4.12-1.02 8.13 2.03 9.79 5.65 3.23 5.73 3.12 12.47 4.63 18.71 1.42-1.96 2.84-3.94 4-6.08 9.8-18.38 22.24-35.26 36.15-50.72 5.56-5.79 11.22-11.59 17.99-15.98 1.92-1.16 3.3-2.92 4.66-4.66z"/><path d="M354.43 24.47c3.04-1.53 7.14-.96 9.36 1.74 4.83 5.29 5.93 12.82 5.87 19.72-.23 6.75-1.49 14.21-6.81 18.92-2.96 2.98-8.18 2.08-10.68-1.04-4.6-5.36-5.82-12.75-5.79-19.6.39-7.11 1.89-15.32 8.05-19.74zm-72.17 13.76c3.18-1.04 6.59.41 8.55 2.99 4.6 5.79 5.8 13.54 5.4 20.74-.25 6.08-1.91 12.54-6.34 16.93-2.52 2.82-7.37 3.01-10.09.4-3.93-3.43-5.46-8.68-6.37-13.62-1.1-6.95-.52-14.31 2.54-20.72 1.37-2.79 3.5-5.31 6.31-6.72zm165 3.96c3.73-1.2 7.51 1.03 9.46 4.17 4.58 7.13 5.08 16.1 3.82 24.27-1.16 4.99-2.93 10.53-7.51 13.4-2.75 1.83-6.52.93-8.78-1.26-3.5-3.39-5.12-8.23-5.96-12.92-.87-7.32-.57-15.11 2.86-21.8 1.36-2.5 3.41-4.8 6.11-5.86zM376.4 89.44c3.75-1.16 7.53 1.61 9.38 4.71 3.81 6.46 4.89 14.32 3.91 21.69-.88 5.21-2.36 10.77-6.42 14.45-2.54 2.67-7.22 2.72-9.86.18-3.84-3.42-5.54-8.55-6.33-13.48-.9-6.89-.44-14.14 2.42-20.55 1.42-2.98 3.64-5.93 6.9-7zm75.3 496.39c6.44-2.05 12.88-4.1 19.31-6.19 3.23.73 4.21 4.27 5.42 6.91 4.34 11.2 3.75 24.78-3.06 34.89-2.44 3.84-7.26 6.27-11.77 4.97-5.34-1.58-8.44-6.86-10.26-11.76-3.56-9.28-2.68-19.54.36-28.82zm-149.22-.39c2.35-2.87 6.12-3.79 9.68-3.83 1.29.44 2.59.89 3.89 1.34 9.21 9.25 10.85 23.51 7.7 35.69-1.41 4.92-3.72 10.01-8.17 12.89-3.41 2.29-8.34 2.09-11.43-.67-5.76-4.71-8.04-12.3-8.64-19.46-.74-9.04.79-18.95 6.97-25.96zm59.31 6.77c9.73 1.24 19.55 1.85 29.37 1.76-.01 6.63.29 13.52-2.41 19.75-2 4.87-5.24 10.25-10.82 11.36-4.83 1.03-9.24-2.39-11.71-6.24-5.09-7.83-5.41-17.63-4.43-26.63zm58.61 50.2c4.54-.66 8.79 2.32 11.13 6.04 4.85 7.83 6.16 17.53 4.58 26.53-.95 5.77-3.12 11.62-7.39 15.77-3.28 3.22-8.82 3.8-12.55 1.02-5.62-4.12-8.09-11.11-8.98-17.77-.81-8.12-.28-16.75 3.78-24 1.99-3.62 5.22-6.85 9.43-7.59zm-82.07 31.07c3.42-1.28 7.43-.36 10.04 2.17 6.35 5.52 7.92 14.42 8.28 22.41-.13 7.24-1.39 14.88-5.79 20.84-2.32 3.03-5.83 5.76-9.87 5.31-4.39-.2-7.68-3.77-9.86-7.26-4.72-8.47-5.39-18.78-3.33-28.12 1.52-6.06 4.43-12.74 10.53-15.35zm145.92-.23c4.42-1.28 9.1 1.14 11.66 4.74 4.57 6.33 6.2 14.39 6.06 22.08-.53 6.63-1.84 13.58-6.03 18.95-2.17 2.72-5.2 5.4-8.92 5.13-4.52.26-8.19-3.18-10.4-6.78-4.91-8.18-5.64-18.32-3.86-27.54 1.48-6.62 4.59-14.12 11.49-16.58zm-98.88 53.12c3.51-.39 6.97 1.35 9.16 4.05 5.88 6.64 7.2 15.97 6.71 24.54-.27 7.53-2.8 15.45-8.65 20.51-3.77 3.23-9.88 2.81-13.27-.78-5.74-5.63-7.6-13.99-7.99-21.75.01-7.06 1.34-14.36 5.24-20.36 2.02-3.04 5.01-5.81 8.8-6.21zm36.29 156.2c4.79-2.38 8.74-6.09 13.46-8.58-2.31 11.58.95 23.82 7.24 33.65 5.14 7.51 12.44 14.41 21.68 16.14 2.78 7.67 5.09 15.53 8.47 22.99-2.03 8.23-6.54 16.44-14.45 20.24-4.9 1.77-10.88 1.32-15.01-2.05-6.37-5.04-10.02-12.61-12.93-20-1.06-2.8-2.59-5.36-4.19-7.86-4.72-16.6-7.36-33.67-10.12-50.68 1.92-1.33 3.69-2.89 5.85-3.85zm-63.72-4.6c5.45 2.85 10.43 6.54 16.08 9.01 2.93 1.29 5.88 2.53 8.77 3.92.48 11.77-.29 23.58.76 35.34.34 4.17.39 8.37.5 12.57-4.05 3.76-6.37 9.03-10.75 12.47-4.54 3.73-10.37 5.95-16.28 5.69-6.39.21-13.41-1.15-17.84-6.15-5.96-6.65-7.62-15.96-8.25-24.58 4.3-1.35 8.3-3.59 11.62-6.65 10.74-9.93 16.49-24.86 15.34-39.44.01-.54.04-1.63.05-2.18zm27.22 13.07c9.59 2.23 19.53-.81 28.49-4.19 2.71 21.55 7.13 42.84 12.32 63.93-4.04 4.67-7.8 10.26-14.04 12.12-5.45 2.31-11.95.23-15.69-4.16-4.53-5.14-6.07-12.01-9.08-18-1.4-8.19-1.18-16.5-1.48-24.76-.52-8.31-.35-16.63-.52-24.94zm-76.54 39.54c6.03-2.82 12.79-3.1 19.32-3.71-.53 5.67-1.6 11.29-1.86 16.99-6.82 6.43-13.61 14-23.28 15.79-7.77.91-17.04.46-22.51-5.93-2.29-3.45-4.6-7.73-3.33-11.96 4.93 1.16 10.17.79 14.95-.85 6.27-2.23 10.7-7.61 16.71-10.33z"/></g><g fill="#994f20"><path d="M270.36 29.45C309.18 11.33 352.13 1.85 395 2.64c15.39-.29 30.82 1.23 45.86 4.5 7.09 2.88 14.51 4.81 21.75 7.27 26.13 8.86 50.5 22.26 73.21 37.81-2.18 3.44-3.98 7.12-6.64 10.23-2.11-4.92-2.23-11.38-7.17-14.53-5.51-3.61-12.35-.4-17.12 2.97-11.31 9.27-18.8 22.33-24.29 35.7-.97 2.97-2.27 5.8-3.91 8.46-1.52-2.93-2.33-6.53-5.08-8.61-3.43-2.2-8-1.3-11.11 1.04-4.76 3.17-8.75 7.37-11.85 12.15-9.05 12.76-14.9 27.46-19.22 42.4-2.97-4.27-4.88-10.59-10.66-11.69-7.23-.51-12.98 5.03-17.42 10.05-10.91 13.67-19.61 28.98-27.27 44.67-2.25 4.34-4.11 8.88-6.81 12.99-1.31-2.97-2.36-6.06-3.08-9.22-2.29-10.02-5.91-19.67-9.83-29.15-3.37-8.35-7.93-16.35-14.05-23-2.72-3.14-7.52-4.98-11.33-2.65-3.44 2.29-4.44 6.64-6.43 10.05-1.16-2.44-2.58-4.75-3.43-7.32-5.83-13.46-13.18-26.73-24.33-36.52-3.33-3.02-8.96-4.31-12.54-1.01-2.98 2.94-3.91 7.24-5.85 10.84-2.61-5.7-4.24-11.79-7.06-17.4-5.01-10.2-9.8-20.88-18.07-28.94-3.2-3.43-7.52-7.3-12.58-6.14-5.57 2.28-6.33 8.78-8.39 13.68-2.91-4.45-4.45-9.59-7.04-14.2 15.09-10.2 30.52-20 47.1-27.62m84.07-4.98c-6.16 4.42-7.66 12.63-8.05 19.74-.03 6.85 1.19 14.24 5.79 19.6 2.5 3.12 7.72 4.02 10.68 1.04 5.32-4.71 6.58-12.17 6.81-18.92.06-6.9-1.04-14.43-5.87-19.72-2.22-2.7-6.32-3.27-9.36-1.74m-72.17 13.76c-2.81 1.41-4.94 3.93-6.31 6.72-3.06 6.41-3.64 13.77-2.54 20.72.91 4.94 2.44 10.19 6.37 13.62 2.72 2.61 7.57 2.42 10.09-.4 4.43-4.39 6.09-10.85 6.34-16.93.4-7.2-.8-14.95-5.4-20.74-1.96-2.58-5.37-4.03-8.55-2.99m165 3.96c-2.7 1.06-4.75 3.36-6.11 5.86-3.43 6.69-3.73 14.48-2.86 21.8.84 4.69 2.46 9.53 5.96 12.92 2.26 2.19 6.03 3.09 8.78 1.26 4.58-2.87 6.35-8.41 7.51-13.4 1.26-8.17.76-17.14-3.82-24.27-1.95-3.14-5.73-5.37-9.46-4.17M376.4 89.44c-3.26 1.07-5.48 4.02-6.9 7-2.86 6.41-3.32 13.66-2.42 20.55.79 4.93 2.49 10.06 6.33 13.48 2.64 2.54 7.32 2.49 9.86-.18 4.06-3.68 5.54-9.24 6.42-14.45.98-7.37-.1-15.23-3.91-21.69-1.85-3.1-5.63-5.87-9.38-4.71z"/><path d="M530.35 141.37c25.63-10.89 55.19-15.81 82.2-7.12 1.11.55 2.2 1.16 3.33 1.73 1.68 4.96 4.87 9.17 7.37 13.72 18.8 33.44 30.77 70.92 33.62 109.24-.1 8.7 1.68 17.36.83 26.07-.48 4.67-.71 9.35-.88 14.05-3.42 42.87-17.91 84.64-40.75 121.01-11.52 18.61-25.66 35.46-40.85 51.15-6.63 5.7-12.72 11.99-19.61 17.39-43.77 36.16-99.01 57.89-155.55 62.22-6.07.14-12.13.31-18.17.95 14.54-7.7 27.68-18.03 38.81-30.13 5.82-6.59 11.13-13.98 13.42-22.6 2.13-8.07 3.77-16.64 1.91-24.93-1.58-7.48-5.82-14.57-12.22-18.89-3.83-2.63-8.03-4.65-12.02-7.02-8.69-5.13-16.39-11.76-24.97-17.05-4.57-2.62-9.47-5.09-14.81-5.45-6.7-.16-12.99 3.06-18.13 7.13-14.49 12.18-25.79 28.78-29.5 47.53-1.93 10.6-2.35 21.85 1.16 32.17 2.07 5.63 6.13 11.51 12.48 12.49 6.83.97 12.88-2.99 19.44-4 2.67 6.59 5.63 13.11 9.37 19.18 2.73 4.46 6.68 7.95 10.28 11.68-20.59-.35-41.24-1.69-61.53-5.43-48.78-8.65-96.1-29.52-132.53-63.54-9.44-7.55-16.13-17.85-25.07-25.9-29.67-39.61-47.07-87.9-51.76-137.04-.64-9.66-1.38-19.32-1.51-28.99-.14-6.67.92-13.29.98-19.95-.04-10.42 2.49-20.6 3.52-30.93 2.88-16.33 7.55-32.3 13.03-47.94.98-2.89 2.34-5.63 3.67-8.38-.9 4.49-2.52 8.78-4.1 13.06-9.9 30.33-13.72 62.34-14 94.15.23 36.57 6.17 73.36 19.67 107.46 8.01 20.18 19.06 39.27 33.44 55.6 2.49 3.03 5.11 6.02 8.39 8.24-.73-1.76-1.46-3.51-2.41-5.15-36.24-56.58-53.28-125.14-47.95-192.11 2.62-34.41 11.01-68.43 25.25-99.89 2.7-6.39 6.32-12.34 8.88-18.79-1.39.54-2.77 1.08-4.14 1.67 1.26-2.64 3.05-4.92 5.67-6.31.16.78.49 2.35.66 3.13 5.33-2.72 10.62-5.71 16.5-7.08 7.51-2.17 15.42-1.82 23.14-1.5 16.7 1.8 32.27 8.91 46.74 17.09 5.03 2.85 10.1 5.7 14.54 9.44-4.15.03-8.32.1-12.43.73-10.42 1.3-20.87 3.32-30.51 7.64-24.81 10.8-44.32 31.53-56.94 55.15-15.83 29.43-21.62 63.65-19.03 96.79 1.94 18.85 6.05 37.79 14.61 54.81 1.27 5.25 3.87 10 6.54 14.65 12.9 22.36 32.09 41.84 56.2 51.83 20.66 8.65 44.55 9.43 65.67 1.92 21.72-7.62 40.12-23.05 53.36-41.68 7.62-11.01 14.73-22.71 18.25-35.74 11.52-29.01 14.02-61.23 8.85-91.9-1.71-9.78-4.3-19.37-7.14-28.87 4.79 1.23 6.84 6.49 11.59 7.85 2.29 2.5 4.24 5.29 6.11 8.12 1.16-1.33 2.29-2.68 3.47-3.98 1.16-.6 2.53-.94 3.45-1.92 4.97-5.38 8.8-11.97 15.04-16.06-3.19 12.44-5.92 25.06-6.63 37.92-2.17 26.13 1.64 52.96 12.17 77.04 2.44 9.26 7.53 17.47 12.43 25.59 15.05 24.04 37.42 43.83 64.02 54.08 22.76 8.85 48.37 10.05 71.87 3.41 30.41-8.35 56.25-29.55 73.26-55.77 17.03-26.44 26.26-57.96 26-89.42 1.1-44.69-16.46-90.34-49.67-120.74-2.25-2.19-4.89-3.91-7.55-5.53-12.41-10.32-27.03-18.02-42.56-22.4-7.34-1.8-14.78-4.12-22.43-3.46-6.67-.18-13.38-.56-20.03.23.85-.56 1.73-1.09 2.62-1.6 5.01 1.1 10.15.47 15.23.73 2.79.06 5.69.23 8.34-.85z"/><path d="M15.71 293.63c1.61-3.11 5.17-4.06 8.22-5.14 7.32 4.39 13.02 10.84 17.69 17.9 6.86 10.55 16.07 19.29 25.68 27.3 1.12.91 2.19 1.89 3.06 3.06 1.31 1.96 2.64 3.94 4.49 5.43 12.74 11.33 25.18 23.13 39.22 32.85l.08-2.15c13.25 47.66 40.16 91.05 75.23 125.74 5.37 5.64 11.34 10.65 16.85 16.14 5.02 5 10.3 9.74 15.79 14.22.98.96 2.36 1.78 2.74 3.2 1.36 9.52 4.76 18.62 5.77 28.21 1.97 11.43 1.52 23.06 1.56 34.61.25 14.76-2.77 29.29-4.25 43.92-1.45 1.79-3.77 2.48-5.82 3.34-10.28.5-19.84-5.38-26.21-13.08-5.86-6.66-9.04-15.05-12.14-23.22 5.11-5.81 10.82-11.12 15.46-17.31-7.97 5.3-13.28 13.82-21.27 19.16-6.52 2.99-13 6.36-20.06 7.86-6.8.89-14.5 1.15-20.26-3.22-6.67-4.45-9.71-12.41-11.01-20.01-1.16-5.78-.2-11.73 1.5-17.29 5.59-6.15 12.62-10.86 17.86-17.31-6.75 4.4-12.45 10.19-18.84 15.07-5.37.02-10.67 1.07-16.03 1.06-10.87-.43-22.05 1.09-32.57-2.49-6.85-2.23-14.22-6.57-15.67-14.24-2.55-10.64 3.89-20.29 8.53-29.3 9.14-2.87 18.99-3.28 27.91-6.79-8.44.81-16.86 2.19-25.11 4.13-6.2.16-11.73-2.95-17.36-5.08-7.74-3.01-15.18-7-21.45-12.48-4.61-4.21-7.98-10.32-7.27-16.72.75-7.83 6.13-14.19 11.77-19.23 3.6-3.04 7.14-7.04 12.23-7.15 6.45.45 12.9 1.88 19.39 1.25-7.8-2.12-16.27-2.05-24.23-4.01-6.8-3.26-13-7.64-19.18-11.94-7.85-6.35-15.67-14.45-16.87-24.97-1.22-8.5 3.02-16.94 9.56-22.21 4.22-3.98 9.95-5.43 15.36-6.99 9.76 7.93 19.49 15.91 29.09 24.05 1.47 1.29 3.13 2.35 4.81 3.37-.87-1.17-1.75-2.34-2.83-3.31-9.47-8.17-18.78-16.53-28.25-24.69-4.09-3.98-7.7-8.51-10.64-13.4-8.9-18.08-15.88-37.45-17.12-57.7-.24-10.25-.66-21.22 4.59-30.44zm726.11 32.21c7.1-9.12 12.82-20.34 23.91-25.28 2.23 1.28 4.66 2.36 6.47 4.25 2.16 2.53 3.25 5.77 4.01 8.96 1.67 8.02 2.29 16.3 1.15 24.44-1.34 16.1-5.76 31.9-12.69 46.48-1.36 2.74-2.49 5.59-3.57 8.45-3.65 5.53-7.58 10.95-12.61 15.32-5.35 4.64-10.68 9.31-15.95 14.06-3.86 3.53-8.17 6.59-11.57 10.6 2.33-1.32 4.56-2.81 6.63-4.52 8.41-6.9 16.65-13.99 25.1-20.84 4.88 1.76 10.08 3.08 14.3 6.25 6.91 4.9 11.15 13.39 10.8 21.86-.79 9.89-7.44 18.05-14.67 24.3-6.19 5.42-13.58 9.1-20.34 13.71-8.22 1.84-16.69 2.06-24.93 3.68 6.66.86 13.37.03 19.97-.99 5.16 1.87 9.4 5.54 13.29 9.31 5.21 5.38 9.92 12.21 9.75 20.01-.6 7.31-5.76 13.33-11.55 17.39-6.02 4.4-12.96 7.23-19.76 10.19-4.71 1.96-9.59 3.86-14.77 3.95-9.57-1.8-19.13-3.68-28.76-5.1 10.01 3.63 20.67 4.96 30.98 7.51 2.78 6.21 7.24 11.72 8.59 18.51 1.19 6.5 1.09 14.25-4.27 18.98-8.89 8.34-21.91 8.65-33.37 9.36-8.75-.41-17.49-1.1-26.24-1.47-5.3-4.15-10.14-8.91-15.81-12.57 4.41 6.03 10.67 10.32 16.05 15.41-.02 8.08 1.42 16.5-1.72 24.23-2.81 8.26-9.97 15.11-18.83 16.17-11.62 1.46-22.27-4.62-32.32-9.56-6.67-5.32-11.86-12.31-18.95-17.1 4.52 5.82 9.98 10.82 15.06 16.14-4.23 11.37-9.66 23.13-19.76 30.45-5.3 3.97-11.91 6.38-18.59 5.86-2-.61-3.9-1.45-5.76-2.37-2.15-16.55-4.97-33.07-5.35-49.79-1.43-8.35.19-16.72.5-25.09.94-12.68 4.57-24.91 7.61-37.18 1.56-5.88 3.56-11.67 4.24-17.73 2.59-2.05 5.04-4.27 7.6-6.37 27.42-22.44 50.67-49.96 68.22-80.75 7.35-13.16 14.3-26.69 18.98-41.06.01.53.02 1.58.03 2.11 9.32-5.78 17.62-13.07 26.14-19.96 9.26-7.7 18.16-15.81 27.15-23.82 1.66-1.46 2.75-3.42 3.95-5.25 7.73-6.48 15.33-13.24 21.66-21.14zM521.3 555.31c4-2.58 7.89-5.4 12.29-7.3 7.12 22.43 13.42 45.33 15.78 68.82a93.2 93.2 0 0 0-1.72 13.1c-3.25 41.15-14.66 82.08-36.28 117.45-4 6.07-7.91 12.21-12.3 18.02-1.7-2.75-3.55-5.43-6.07-7.47.87 2.39 1.96 4.72 3.33 6.89-.24 2.25-.45 4.53.02 6.79 1.19 6.81 1.4 13.75 2.77 20.54-7.9 10.55-14.92 21.69-21.61 33.05-4.22-2.95-7.43-7.16-11.89-9.83-5.16-3.3-11.39-5.61-17.58-4.46-4.46.72-8.25 3.84-10.37 7.76-2.93 5.32-3.54 11.53-3.88 17.5-6.95-6.08-10.35-14.94-15.88-22.16-1.48-4.95-1.87-10.17-3.6-15.05.09 7.81 1.23 15.59 3.23 23.14-13.72 2.52-27.76-.61-40.98-4.36.85-4.93 1.42-9.94 1.2-14.95-1.36 4.23-1.92 8.64-2.86 12.98-3.68 4.9-5.85 10.72-9.52 15.62-2.59 3.8-6.33 7.09-7.24 11.8.53-8.24-.17-17.22-5.31-24.02-4.36-5.59-12.45-6.74-18.78-4.17-7.52 2.5-13.29 8.05-18.95 13.33-7.18-11.1-13.97-22.47-21.95-33.04 1.27-5.56 1.4-11.29 2.35-16.9.5-2.97.5-5.99.36-8.98.89-2.06 1.63-4.18 2.25-6.33-1.45.97-2.85 1.99-4.31 2.94-7.34-6.98-13.61-15.02-19.8-23.03-10.93-14.22-20.19-29.67-28.22-45.69-2.13-4.55-4.07-9.2-6.83-13.41-2.37-9.07-3.11-18.48-3.67-27.81.52 1.04 1 2.08 1.5 3.15.75-22.4 4.01-44.61 6.73-66.83 1.77-14.14 5.05-28.06 6.58-42.23 8.65 6.15 17.94 11.33 27.28 16.35 11.26 5.77 23.12 10.23 34.79 15.09-3.56.04-7.33.96-9.68 3.83-6.18 7.01-7.71 16.92-6.97 25.96.6 7.16 2.88 14.75 8.64 19.46 3.09 2.76 8.02 2.96 11.43.67 4.45-2.88 6.76-7.97 8.17-12.89 3.15-12.18 1.51-26.44-7.7-35.69 15.11 3.72 30.19 7.83 45.74 9.26-.98 9-.66 18.8 4.43 26.63 2.47 3.85 6.88 7.27 11.71 6.24 5.58-1.11 8.82-6.49 10.82-11.36 2.7-6.23 2.4-13.12 2.41-19.75 20.41-.32 40.75-3.15 60.54-8.14-3.04 9.28-3.92 19.54-.36 28.82 1.82 4.9 4.92 10.18 10.26 11.76 4.51 1.3 9.33-1.13 11.77-4.97 6.81-10.11 7.4-23.69 3.06-34.89-1.21-2.64-2.19-6.18-5.42-6.91 1.34-.42 2.69-.84 4.03-1.3 15.94-6.55 31.56-13.99 46.26-23.03m-100.9 87.1c-4.21.74-7.44 3.97-9.43 7.59-4.06 7.25-4.59 15.88-3.78 24 .89 6.66 3.36 13.65 8.98 17.77 3.73 2.78 9.27 2.2 12.55-1.02 4.27-4.15 6.44-10 7.39-15.77 1.58-9 .27-18.7-4.58-26.53-2.34-3.72-6.59-6.7-11.13-6.04m-82.07 31.07c-6.1 2.61-9.01 9.29-10.53 15.35-2.06 9.34-1.39 19.65 3.33 28.12 2.18 3.49 5.47 7.06 9.86 7.26 4.04.45 7.55-2.28 9.87-5.31 4.4-5.96 5.66-13.6 5.79-20.84-.36-7.99-1.93-16.89-8.28-22.41-2.61-2.53-6.62-3.45-10.04-2.17m145.92-.23c-6.9 2.46-10.01 9.96-11.49 16.58-1.78 9.22-1.05 19.36 3.86 27.54 2.21 3.6 5.88 7.04 10.4 6.78 3.72.27 6.75-2.41 8.92-5.13 4.19-5.37 5.5-12.32 6.03-18.95.14-7.69-1.49-15.75-6.06-22.08-2.56-3.6-7.24-6.02-11.66-4.74m-98.88 53.12c-3.79.4-6.78 3.17-8.8 6.21-3.9 6-5.23 13.3-5.24 20.36.39 7.76 2.25 16.12 7.99 21.75 3.39 3.59 9.5 4.01 13.27.78 5.85-5.06 8.38-12.98 8.65-20.51.49-8.57-.83-17.9-6.71-24.54-2.19-2.7-5.65-4.44-9.16-4.05z"/></g><path d="M440.86 7.14c14.1 1.51 27.84 5.33 41.26 9.8 20.79 6.62 40.65 15.98 59.26 27.33-1.88 2.64-3.74 5.28-5.56 7.95-22.71-15.55-47.08-28.95-73.21-37.81-7.24-2.46-14.66-4.39-21.75-7.27zm-22.95 806.87c5.53 7.22 8.93 16.08 15.88 22.16.3 7.08 2.4 13.91 3.35 20.91-4.67-3.27-7.36-8.43-9.88-13.37-4.5-9.39-7.89-19.36-9.35-29.7z" fill="#6a3315"/><path fill="#f8e6d2" d="M554.84 31.85c9.65-10.01 20.52-19.11 33.12-25.16-1.36 1.74-2.74 3.5-4.66 4.66-6.77 4.39-12.43 10.19-17.99 15.98-13.91 15.46-26.35 32.34-36.15 50.72-1.16 2.14-2.58 4.12-4 6.08-1.51-6.24-1.4-12.98-4.63-18.71-1.66-3.62-5.67-6.67-9.79-5.65-5.79 1.35-9.53 6.45-13.34 10.61-8.19 10.95-13.9 23.53-18.71 36.26-.79 1.58-1.61 3.16-2.47 4.71-2.12-5.45-3.2-12.84-9.61-14.89-4.73-.44-8.59 3.32-11.63 6.47-8.78 10.57-14.04 23.47-18.85 36.19-2.73 6.62-4.05 13.71-6.94 20.26-2.62-5.26-4.06-11.85-9.65-14.86-4.69-1.66-9.5.96-12.77 4.23-11.47 11.21-18.47 25.86-26.25 39.65-4.97 9.09-8.82 18.72-13.4 27.99-.84-1.74-1.65-3.5-2.2-5.34-3.8-14.77-8.4-29.4-14.68-43.32-3.03-6.32-6.19-12.78-11.05-17.91-2.37-2.65-6.89-3.93-9.76-1.35-4.09 3.85-4.89 9.69-7 14.65-4.3-14.45-10.03-28.6-18.37-41.23-3.31-4.92-7.53-9.84-13.45-11.5-3.04-.92-6.04 1.08-7.77 3.44-3.48 4.5-3.75 10.44-6.3 15.37-3.51-13.31-7.89-26.44-13.9-38.85-3.76-7.42-8.2-14.91-14.97-19.96-3.23-2.63-8.1-1.32-10.38 1.91-3.7 5.13-4.07 11.69-5.61 17.64-6.49-14.89-13.79-29.76-24.74-41.93-10.78-12.53-25.49-22.46-42.09-24.85-2.01-.42-3.96.33-5.92.66 2.5 4.27 5.36 8.34 7.57 12.78 5 10.06 10.83 19.68 16.43 29.41-16.44-.9-33.53 3.23-46.92 13.04-3.74 2.6-6.38 6.41-8.12 10.57 9.07-1.87 18.17.26 27.15 1.58-2.6 3.93-6.04 7.24-8.51 11.25-6.27 10.73-11.05 22.4-13.36 34.64-.52 2.79-1.4 5.49-2.23 8.2-.25-4.77-.51-9.57.15-14.33.92-6.35 1.85-12.77 4.15-18.81 1.76-5.17 4.82-9.74 7.81-14.27-10.96-2.63-22.28-1.98-33.29-.12 4.8-8.79 12.26-15.8 20.03-21.98 12.04-9.49 26.83-16.43 42.45-15.98-5.62-7.81-9.6-16.57-13.82-25.17-2.93-6.11-7.05-11.53-11.64-16.48 16.21-2.24 33.13 1.32 46.93 10.15 15.46 9.58 26.33 25.06 33.42 41.55 1.42 3.47 2.74 6.98 4.47 10.32 1.43-6.02 1.12-12.67 4.55-18.05 1.45-2.68 5.07-3.45 7.64-1.98 6.06 3.1 9.93 8.97 13.66 14.44 8.31 12.85 14.47 27.14 17.91 42.06.47 1.22 1.1 2.38 1.31 3.7 2.24-6.33 2-13.76 6.5-19.13 1.31-1.64 3.52-2.76 5.62-1.99 4.63 1.5 8.16 5.1 11.12 8.82 8.17 10.18 14.31 21.85 19.08 33.96 1.73 4.19 2.29 8.72 3.46 13.08 1.72-6.17 2.29-12.99 6.27-18.28 1.75-2.65 5.7-2.24 7.91-.41 5.05 3.8 8.15 9.49 11.21 14.89 8.13 15.22 13.33 31.82 17.23 48.57.45 1.58 1.22 3.06 1.64 4.66 3.04-4.52 4.78-9.72 7.23-14.55 7.37-14.87 14.92-29.78 24.91-43.1 3.69-4.88 7.67-9.78 12.97-12.98 2.79-1.68 6.73-2.48 9.41-.15 4.75 3.98 5.24 10.59 7.97 15.81 1.28-3.31 2.38-6.67 3.22-10.12 4.72-15.28 11.15-30.32 21.21-42.89 3.19-3.81 6.9-7.61 11.75-9.19 3.6-1.26 6.98 1.85 8.12 5.06 1.42 3.81 1.87 7.9 3.01 11.79 5.07-15.55 10.99-31.3 21.74-43.91 4.43-5 9.49-10.08 16.15-11.84 3.53-.97 7.31 1.03 9.09 4.1 3.5 5.53 2.68 12.4 3.82 18.59 4.93-9.43 10.45-18.53 16.88-27.03 3.16-4.41 6.89-8.36 10.65-12.25z"/><g fill="#c49e76"><path d="M592.69 20.68c2.54-5.41 5.63-11.06 11.17-13.9-2.5 7.01-4.43 14.26-5.29 21.66-.91 8.11-.11 16.27.85 24.33 4.48.95 9.06 1.31 13.54 2.22 9.07 2.19 17.94 5.38 26.05 10.03 9.09 5.1 17.95 11.1 24.53 19.31-9.55 3.42-20.91 2.58-28.9 9.8 2.7 4.9 6.92 8.71 9.67 13.58 9.45 16.96 13.56 37.27 9.32 56.39-5.83-5.49-9.68-12.71-15.47-18.26-8.41-7.92-17.91-14.99-28.82-19.05-9.48-3.89-19.62-5.67-29.82-6.15-25.44-.25-50.22 7.96-72.83 19.13-15.19 7.14-29.47 16.08-43.06 25.9-17.04 12.35-33.15 26.03-47.9 41.05-16.75 16.39-31.29 34.93-44.06 54.55-1.06-1.28-2.21-2.46-3.31-3.7-12.36-16.47-25.43-32.42-39.3-47.65-17.41-18.27-35.34-36.19-55.6-51.35-20.35-15.37-42.66-29.26-67.74-35.19-7.81-1.36-15.81-2.84-23.71-1.27-17.03 1.8-31.82 12.68-41.52 26.37-2.8 3.91-4.6 8.55-8.27 11.78-.59-2.76-.97-5.56-1.11-8.38.36 1.36.74 2.71 1.14 4.07 6.55-12.92 13.87-26.17 25.91-34.8 13.02-10.26 30.67-13.33 46.73-10.17 22.27 4.09 42.17 15.82 60.54 28.58 9.8 6.68 18.66 14.61 27.72 22.24 12.8 10.83 24.26 23.1 36.14 34.91 12.82 13.89 25.36 28.07 37.09 42.9 1.12 1.12 2.17 2.32 3.31 3.43 14.35-17.03 28.94-33.9 44.99-49.36 17.81-18.38 37.55-34.87 58.73-49.24 28.58-19.13 61.23-33.87 95.94-36.11 9.37-1.42 18.77.27 28.12 1.08 10.08 1.38 20.1 3.69 29.53 7.59 2.33.92 4.75 1.58 7.19 2.18-.65-6.72-5.92-11.48-10.44-15.93-5.42-5.27-12.75-7.61-19.83-9.65 11.12-7.12 23.26-14.63 37.01-13.86-5.76-6.91-13.69-11.8-22.25-14.42-10.22-3.41-21.04-3.37-31.67-3.34-.57-13.92.26-28.28 5.68-41.3z"/><path d="M589.18 168.72c2.66 1.62 5.3 3.34 7.55 5.53 33.21 30.4 50.77 76.05 49.67 120.74.26 31.46-8.97 62.98-26 89.42-17.01 26.22-42.85 47.42-73.26 55.77-23.5 6.64-49.11 5.44-71.87-3.41-26.6-10.25-48.97-30.04-64.02-54.08-4.9-8.12-9.99-16.33-12.43-25.59 3.65 5.76 6.6 11.95 10.53 17.55 14.81 22.37 36.83 39.83 62.04 49 1 .09 2-.02 3.02-.32 8.29 3.8 17.12 6.5 26.29 6.85 5.01 1.31 10.22 1.2 15.35 1.65 22.8.19 45.95-5.22 65.38-17.43 10.75-6.93 20.46-15.55 28.29-25.69 11.59-14.97 19.62-32.56 24.13-50.91 3.54-13.65 4.7-27.76 5.21-41.81.11-7.68-.78-15.33-1.07-23-3.23-33.22-15.36-66.17-37.4-91.57-3.62-4.4-8.08-8.04-11.41-12.7zm-334.03 47.41c10.66-3.95 22.14-9.08 33.7-5.95 12.89 3.24 21.36 14.93 26.5 26.47 9.83 22.77 12.53 47.79 14.39 72.28-.29 7.06 1.02 14.03.99 21.07-.52 12.85-1.65 25.83-5.75 38.1-3.96 12.49-10.19 24.27-18.46 34.43-6.57 7.8-14.51 14.33-23.03 19.88-1.13.77-2.52.93-3.79 1.34 7.76-5.42 15.26-11.38 21.21-18.81 14.84-17.86 23.07-40.8 24.08-63.92.37-16.74-.7-33.51-2.89-50.11-2.4-16.65-6-33.64-14.72-48.25-5.34-9.1-14.45-16.77-25.34-17.47-6.07-.73-11.89 1.67-17.87 1.93-3.53-3.18-6.42-7.03-9.02-10.99z"/><path d="M519.73 243.6c3.37-1.79 6.85-3.46 9.84-5.88 5.68 6.21 11.9 11.91 17.12 18.53 1.17 1.88 3.36 2.1 5.39 1.95-5.07.94-10.58 2.23-15.59.56-5.56-5.07-11.34-9.95-16.76-15.16zm23.31 22.65c3.28-.59 6.59-1.21 9.76-2.31 6.88 10.28 13.32 21 17.47 32.71 4.48 11.93 6.34 24.7 6.41 37.4-.67 10.03-1.31 20.15-3.81 29.93-4.31 17.99-13.27 35.32-27.31 47.62-5.14 4.09-10.32 8.57-16.81 10.31 2.73-2 5.5-3.93 8.19-5.98 15.67-12.56 26.09-30.89 30.69-50.31 3.56-15.43 4.86-31.59 2.1-47.25-3.59-19.54-14.15-37.02-26.69-52.12zM342.28 385.24c3.53-5.26 6.05-11.11 9.63-16.34-3.52 13.03-10.63 24.73-18.25 35.74-13.24 18.63-31.64 34.06-53.36 41.68-21.12 7.51-45.01 6.73-65.67-1.92-24.11-9.99-43.3-29.47-56.2-51.83-2.67-4.65-5.27-9.4-6.54-14.65 3.74 4.75 6.58 10.12 10.25 14.92 14.08 19.84 35.51 34.11 59.04 40.09 23.81 5.92 49.53 3.99 72.13-5.6 20.16-8.53 37.29-23.63 48.97-42.09z"/></g><path fill="#977151" d="M140.69 17.58c12.83-4.06 26.78-2.51 39.4 1.6 17.98 6.2 32.76 19.85 42.19 36.18.24.42.73 1.28.98 1.71 2.59 4.61 4.13 9.75 7.04 14.2 2.06-4.9 2.82-11.4 8.39-13.68 5.06-1.16 9.38 2.71 12.58 6.14 8.27 8.06 13.06 18.74 18.07 28.94 2.82 5.61 4.45 11.7 7.06 17.4 1.94-3.6 2.87-7.9 5.85-10.84 3.58-3.3 9.21-2.01 12.54 1.01 11.15 9.79 18.5 23.06 24.33 36.52.85 2.57 2.27 4.88 3.43 7.32 1.99-3.41 2.99-7.76 6.43-10.05 3.81-2.33 8.61-.49 11.33 2.65 6.12 6.65 10.68 14.65 14.05 23 3.92 9.48 7.54 19.13 9.83 29.15.72 3.16 1.77 6.25 3.08 9.22 2.7-4.11 4.56-8.65 6.81-12.99 7.66-15.69 16.36-31 27.27-44.67 4.44-5.02 10.19-10.56 17.42-10.05 5.78 1.1 7.69 7.42 10.66 11.69 4.32-14.94 10.17-29.64 19.22-42.4 3.1-4.78 7.09-8.98 11.85-12.15 3.11-2.34 7.68-3.24 11.11-1.04 2.75 2.08 3.56 5.68 5.08 8.61 1.64-2.66 2.94-5.49 3.91-8.46 5.49-13.37 12.98-26.43 24.29-35.7 4.77-3.37 11.61-6.58 17.12-2.97 4.94 3.15 5.06 9.61 7.17 14.53 2.66-3.11 4.46-6.79 6.64-10.23 1.82-2.67 3.68-5.31 5.56-7.95.24-.32.71-.96.94-1.28.52-.67 1.05-1.35 1.59-2.01l.28 3.12c-6.43 8.5-11.95 17.6-16.88 27.03-1.14-6.19-.32-13.06-3.82-18.59-1.78-3.07-5.56-5.07-9.09-4.1-6.66 1.76-11.72 6.84-16.15 11.84-10.75 12.61-16.67 28.36-21.74 43.91-1.14-3.89-1.59-7.98-3.01-11.79-1.14-3.21-4.52-6.32-8.12-5.06-4.85 1.58-8.56 5.38-11.75 9.19-10.06 12.57-16.49 27.61-21.21 42.89-.84 3.45-1.94 6.81-3.22 10.12-2.73-5.22-3.22-11.83-7.97-15.81-2.68-2.33-6.62-1.53-9.41.15-5.3 3.2-9.28 8.1-12.97 12.98-9.99 13.32-17.54 28.23-24.91 43.1-2.45 4.83-4.19 10.03-7.23 14.55-.42-1.6-1.19-3.08-1.64-4.66-3.9-16.75-9.1-33.35-17.23-48.57-3.06-5.4-6.16-11.09-11.21-14.89-2.21-1.83-6.16-2.24-7.91.41-3.98 5.29-4.55 12.11-6.27 18.28-1.17-4.36-1.73-8.89-3.46-13.08-4.77-12.11-10.91-23.78-19.08-33.96-2.96-3.72-6.49-7.32-11.12-8.82-2.1-.77-4.31.35-5.62 1.99-4.5 5.37-4.26 12.8-6.5 19.13-.21-1.32-.84-2.48-1.31-3.7-3.44-14.92-9.6-29.21-17.91-42.06-3.73-5.47-7.6-11.34-13.66-14.44-2.57-1.47-6.19-.7-7.64 1.98-3.43 5.38-3.12 12.03-4.55 18.05-1.73-3.34-3.05-6.85-4.47-10.32-7.09-16.49-17.96-31.97-33.42-41.55-13.8-8.83-30.72-12.39-46.93-10.15 4.59 4.95 8.71 10.37 11.64 16.48 4.22 8.6 8.2 17.36 13.82 25.17-15.62-.45-30.41 6.49-42.45 15.98-7.77 6.18-15.23 13.19-20.03 21.98 11.01-1.86 22.33-2.51 33.29.12-2.99 4.53-6.05 9.1-7.81 14.27-2.3 6.04-3.23 12.46-4.15 18.81-.51.27-1.53.79-2.04 1.05.51-11.63 3.98-23.03 10.11-32.93-11.39-.87-23.24-1.5-34.03 2.93 3.21-8.61 9.6-15.5 16.12-21.77 12.76-11.91 28.8-21.62 46.64-22.51-4.53-7.56-8.22-15.57-12.23-23.41-2.81-5.2-5.85-10.71-11.05-13.88-1.47-.75-2.46-2.14-3.92-2.86z"/><path fill="#75300f" d="M558.03 123.99c9.29-1.15 18.72-2.79 28.07-1.22 8.82.97 17.67 2.68 25.68 6.66.35 1.59.46 3.22.77 4.82-27.01-8.69-56.57-3.77-82.2 7.12-2.65 1.08-5.55.91-8.34.85-5.08-.26-10.22.37-15.23-.73 7.05-3.86 14.58-6.79 22.08-9.67 9.5-3.34 19.13-6.59 29.17-7.83z"/><path fill="#76310f" d="M179.09 124.13c14.54-2.92 29.46.48 43.05 5.74 20.05 7.79 38.03 19.94 54.78 33.27 2.61 2.25 6.17 3.72 7.56 7.07-8.25-3.13-16.87-5.44-25.68-6.25-4.98-.71-10.03-.55-15.04-.43 4.11-.63 8.28-.7 12.43-.73-4.44-3.74-9.51-6.59-14.54-9.44-14.47-8.18-30.04-15.29-46.74-17.09-7.72-.32-15.63-.67-23.14 1.5-5.88 1.37-11.17 4.36-16.5 7.08-.17-.78-.5-2.35-.66-3.13-2.62 1.39-4.41 3.67-5.67 6.31-5.82 5.32-10.75 11.55-14.4 18.55-2.22 4.13-4.04 8.47-6.73 12.32 1.4-3.86 2.97-7.66 4.27-11.56-.48-.1-1.44-.31-1.92-.41l-.13-.63c3.55-1.28 4.14-5.42 5.99-8.29 8.88-16.43 24.08-30.86 43.07-33.88z"/><path fill="#54210c" d="M612.55 134.25c-.31-1.6-.42-3.23-.77-4.82 9.58 4.22 18.46 10.2 25.46 18.04-3.6-.12-6.03-3.05-8.83-4.92-3.72-3-8.1-4.91-12.53-6.57-1.13-.57-2.22-1.18-3.33-1.73z"/><g fill="#6b3415"><path d="M615.88 135.98c4.43 1.66 8.81 3.57 12.53 6.57 2.8 1.87 5.23 4.8 8.83 4.92 4.29 3.89 7.95 8.42 11.08 13.28 1.65 2.42 3.07 5.08 5.32 7.03-.23 4.28 2.32 7.93 3.82 11.76 11.68 28.46 19.25 58.7 21.5 89.41 5.23 63.59-12.02 128.6-47.4 181.63-18.2 27.15-40.89 51.27-67 70.95-27.41 20.43-58.33 36.31-91.17 45.89-44.53 13.25-92.31 15.58-137.82 6.12-67.58-13.2-129.42-52.3-171.25-106.86-2.49-2.97-4.51-6.27-6.34-9.66 8.94 8.05 15.63 18.35 25.07 25.9 36.43 34.02 83.75 54.89 132.53 63.54 20.29 3.74 40.94 5.08 61.53 5.43 1.59 0 3.19 0 4.78-.11 6.04-.64 12.1-.81 18.17-.95 56.54-4.33 111.78-26.06 155.55-62.22 6.89-5.4 12.98-11.69 19.61-17.39 15.19-15.69 29.33-32.54 40.85-51.15 22.84-36.37 37.33-78.14 40.75-121.01.17-4.7.4-9.38.88-14.05.85-8.71-.93-17.37-.83-26.07-2.85-38.32-14.82-75.8-33.62-109.24-2.5-4.55-5.69-8.76-7.37-13.72zm149.85 164.58c3.86-1.43 8.55-1.99 12.03.67 4.79 3.66 6.22 9.85 8.24 15.22v22.03c-1.65 4.79-2.59 9.76-3.89 14.64-2.44 8.05-5.81 15.8-9.75 23.22-3.27 5.91-6.46 11.97-11.26 16.8 1.08-2.86 2.21-5.71 3.57-8.45 6.93-14.58 11.35-30.38 12.69-46.48 1.14-8.14.52-16.42-1.15-24.44-.76-3.19-1.85-6.43-4.01-8.96-1.81-1.89-4.24-2.97-6.47-4.25zm-13.03 107.2c1.59-1.17 3.1-3 5.29-2.77 7.73.2 14.48 5 19.29 10.74 6.1 6.82 8.16 16.98 4.99 25.6-3.85 10.76-12.88 18.69-22.31 24.61-5.46 3.15-10.78 7.01-17.17 7.94 6.76-4.61 14.15-8.29 20.34-13.71 7.23-6.25 13.88-14.41 14.67-24.3.35-8.47-3.89-16.96-10.8-21.86-4.22-3.17-9.42-4.49-14.3-6.25zM544.44 539.44c7.81-5.88 15.58-11.82 23.65-17.36-.68 6.06-2.68 11.85-4.24 17.73-3.04 12.27-6.67 24.5-7.61 37.18-.31 8.37-1.93 16.74-.5 25.09.38 16.72 3.2 33.24 5.35 49.79-2.4-1.5-5.99-2.71-6.28-5.96-.84-5.52-.65-11.13-1.24-16.68-2.35-24.47-7.58-48.61-14.65-72.13-1.06-3.63-2.53-7.17-2.95-10.95 2.43-2.69 5.62-4.51 8.47-6.71z"/><path d="M549.37 616.83c2.36 12.58 2.88 25.39 3.49 38.14-.06 33.79-5.71 67.8-18.83 99.06-2.54 6.6-6.14 12.71-8.82 19.25-7.2 1.98-13.82 5.81-19.22 10.97-2.21-6.2-4.3-12.47-7.21-18.38-.25.32-.75.95-1 1.27-.36-.58-1.09-1.74-1.45-2.32-1.37-2.17-2.46-4.5-3.33-6.89 2.52 2.04 4.37 4.72 6.07 7.47 4.39-5.81 8.3-11.95 12.3-18.02 21.62-35.37 33.03-76.3 36.28-117.45.27-4.4.83-8.78 1.72-13.1zm-310.42 67.06c2.76 4.21 4.7 8.86 6.83 13.41 8.03 16.02 17.29 31.47 28.22 45.69 6.19 8.01 12.46 16.05 19.8 23.03 1.46-.95 2.86-1.97 4.31-2.94-.62 2.15-1.36 4.27-2.25 6.33l-.46.82c-.17-.62-.5-1.86-.67-2.48-4.06 6.03-6.46 13.1-7.96 20.18-4.25-4.13-9.19-7.57-14.64-9.92-1.74-4.66-4.62-8.73-7.01-13.04-5.26-9.79-9.9-19.9-13.73-30.33-5.85-16.41-10.88-33.34-12.44-50.75zm125.26 168.42c6.24-10.64 9.84-22.56 12.35-34.57 13.22 3.75 27.26 6.88 40.98 4.36 2.79 9.98 5.92 20.07 11.59 28.84 2.49 4 5.86 7.33 8.92 10.89-12.68 6.93-26.57 12.36-41.07 13.55-8.13.94-15.04-3.95-22.02-7.24-4.98-2.7-10.32-4.85-14.82-8.32.31-2.84 2.82-5 4.07-7.51z"/></g><path fill="#be8551" d="M504.16 143.09c6.65-.79 13.36-.41 20.03-.23-5.6 3.42-11.78 5.67-17.51 8.83-41.39 21.93-77.83 52.11-110.62 85.33.94-2.76 1.69-5.59 2.63-8.35 4.64-5.35 8.85-11.09 14.04-15.94 22.48-22.9 47.53-43.37 75.04-59.98 5.37-3.38 11.15-6.07 16.39-9.66z"/><path d="M524.19 142.86c7.65-.66 15.09 1.66 22.43 3.46 15.53 4.38 30.15 12.08 42.56 22.4 3.33 4.66 7.79 8.3 11.41 12.7 22.04 25.4 34.17 58.35 37.4 91.57.29 7.67 1.18 15.32 1.07 23-.51 14.05-1.67 28.16-5.21 41.81-4.51 18.35-12.54 35.94-24.13 50.91-7.83 10.14-17.54 18.76-28.29 25.69-19.43 12.21-42.58 17.62-65.38 17.43-5.13-.45-10.34-.34-15.35-1.65 9.79-.87 19.55-3.17 28.05-8.27 6.49-1.74 11.67-6.22 16.81-10.31 14.04-12.3 23-29.63 27.31-47.62 2.5-9.78 3.14-19.9 3.81-29.93-.07-12.7-1.93-25.47-6.41-37.4-4.15-11.71-10.59-22.43-17.47-32.71 8.51-3.47 15.69-9.67 21.04-17.07-7 4.22-13.76 9.16-21.76 11.33-2.03.15-4.22-.07-5.39-1.95-5.22-6.62-11.44-12.32-17.12-18.53 7.23-6.95 10.7-16.95 11.34-26.79-4.27 8.15-9.04 16.33-16.68 21.8-7.46-6.12-15.56-11.33-23.54-16.73 3.32-7.01 3.67-15.8-.43-22.56.14 6.97-1.55 13.83-5.11 19.84-11.33-4.58-24.09-9.92-36.31-5.4-12.66 4.14-20.24 16.13-25.25 27.73-7.37 17.94-10.34 37.29-12.32 56.46-.43 6.65-1.53 13.27-1.33 19.95.25 7.49-1.79 14.94-.47 22.41.78 15.57 3.89 31.2 10.78 45.27 7.3 15.37 18.45 29.06 32.75 38.41 1.79 1.12 3.92 1.44 5.93 2 1.8 1.1 3.63 2.18 5.48 3.22-1.02.3-2.02.41-3.02.32-25.21-9.17-47.23-26.63-62.04-49-3.93-5.6-6.88-11.79-10.53-17.55-10.53-24.08-14.34-50.91-12.17-77.04.71-12.86 3.44-25.48 6.63-37.92.95-1.69 1.88-3.4 2.78-5.12 32.79-33.22 69.23-63.4 110.62-85.33 5.73-3.16 11.91-5.41 17.51-8.83zm-310.94 28.31c9.64-4.32 20.09-6.34 30.51-7.64 5.01-.12 10.06-.28 15.04.43 22.65 15.74 43.54 33.86 63.68 52.66 9.37 8.25 17.73 17.61 27.5 25.42 1.25 2 2.5 4.01 3.64 6.09 2.84 9.5 5.43 19.09 7.14 28.87 5.17 30.67 2.67 62.89-8.85 91.9-3.58 5.23-6.1 11.08-9.63 16.34-11.68 18.46-28.81 33.56-48.97 42.09-22.6 9.59-48.32 11.52-72.13 5.6-23.53-5.98-44.96-20.25-59.04-40.09-3.67-4.8-6.51-10.17-10.25-14.92-8.56-17.02-12.67-35.96-14.61-54.81-2.59-33.14 3.2-67.36 19.03-96.79 12.62-23.62 32.13-44.35 56.94-55.15m33.86 32.73c-.43 5-.2 10.3 2.25 14.81-7.93 5.48-16.12 10.63-23.63 16.7-4.68-3.69-8.83-8.09-11.91-13.21-1.59-2.69-2.73-5.62-4.43-8.25.2 9.6 3.66 19.53 10.99 25.98-4.93 5.55-10.7 10.31-15.16 16.26-1.55 1.96-2.88 4.29-5.3 5.29-5.21-1.56-10.33-3.52-14.97-6.36-2.76-1.61-5.15-3.83-8.12-5.06 4.54 7.2 11.68 12.91 19.58 16.06-.12 2.92-2.58 4.9-3.94 7.29-9.01 14.19-15.86 30.01-18.24 46.73-.45 6.56-1.91 13.13-.93 19.72.74 5.03.48 10.16 1.34 15.19 2.46 18.22 8.94 36.26 20.61 50.65 5.85 6.53 12.06 12.95 19.75 17.33 4.74 2.62 9.5 6.38 15.25 5.7 15.9 7.14 34.93 4.01 49.45-4.98 1.27-.41 2.66-.57 3.79-1.34 8.52-5.55 16.46-12.08 23.03-19.88 8.27-10.16 14.5-21.94 18.46-34.43 4.1-12.27 5.23-25.25 5.75-38.1.03-7.04-1.28-14.01-.99-21.07-1.86-24.49-4.56-49.51-14.39-72.28-5.14-11.54-13.61-23.23-26.5-26.47-11.56-3.13-23.04 2-33.7 5.95-3.76-5.85-5.97-12.78-4.98-19.78-2.02 2-2.72 4.82-3.06 7.55z" fill="#f7d9b3"/><path d="M148.94 148.03c1.37-.59 2.75-1.13 4.14-1.67-2.56 6.45-6.18 12.4-8.88 18.79-14.24 31.46-22.63 65.48-25.25 99.89-5.33 66.97 11.71 135.53 47.95 192.11.95 1.64 1.68 3.39 2.41 5.15-3.28-2.22-5.9-5.21-8.39-8.24-14.38-16.33-25.43-35.42-33.44-55.6-13.5-34.1-19.44-70.89-19.67-107.46.28-31.81 4.1-63.82 14-94.15 1.58-4.28 3.2-8.57 4.1-13.06.62-1.63 1.25-3.26 1.9-4.89 2.69-3.85 4.51-8.19 6.73-12.32 3.65-7 8.58-13.23 14.4-18.55zm96.33 399.74c1.61.77 3.26 1.5 4.82 2.4-1.53 14.17-4.81 28.09-6.58 42.23-2.72 22.22-5.98 44.43-6.73 66.83-.5-1.07-.98-2.11-1.5-3.15-1.1-21.11-.19-42.3 2.37-63.28 1.69-15.15 4.84-30.07 7.62-45.03zm50.13 222.46.46-.82c.14 2.99.14 6.01-.36 8.98-.95 5.61-1.08 11.34-2.35 16.9-1.65-2.13-3.43-4.15-5.24-6.13 2.21-6.41 3.91-13.11 7.49-18.93z" fill="#c67f58"/><path fill="#be8651" d="M258.8 163.96c8.81.81 17.43 3.12 25.68 6.25 5.23 4.19 10.2 8.66 14.83 13.51 9.05 7.56 17.23 16.09 24.94 24.99 8.87 8.2 16.03 17.96 23.86 27.08.63 2.08 1.2 4.18 1.87 6.25-9.77-7.81-18.13-17.17-27.5-25.42-20.14-18.8-41.03-36.92-63.68-52.66z"/><path d="M500.26 193.44c4.1 6.76 3.75 15.55.43 22.56-2.41 4.11-5.21 7.98-7.99 11.85 6.62 3.14 12.69 7.36 19.32 10.44 4.43-.81 8.68-2.74 12.21-5.56 7.64-5.47 12.41-13.65 16.68-21.8-.64 9.84-4.11 19.84-11.34 26.79-2.99 2.42-6.47 4.09-9.84 5.88 5.42 5.21 11.2 10.09 16.76 15.16 5.01 1.67 10.52.38 15.59-.56 8-2.17 14.76-7.11 21.76-11.33-5.35 7.4-12.53 13.6-21.04 17.07-3.17 1.1-6.48 1.72-9.76 2.31 12.54 15.1 23.1 32.58 26.69 52.12 2.76 15.66 1.46 31.82-2.1 47.25-4.6 19.42-15.02 37.75-30.69 50.31-2.69 2.05-5.46 3.98-8.19 5.98-8.5 5.1-18.26 7.4-28.05 8.27-9.17-.35-18-3.05-26.29-6.85-1.85-1.04-3.68-2.12-5.48-3.22-7.69-6.26-15.37-12.7-21.39-20.66-13.58-17.5-21.46-39.34-22.1-61.49-.29-18.64.64-37.35 3.76-55.75 2.44-13.12 5.29-26.41 11.6-38.28 4.92-9.62 13.14-18.73 24.24-20.7 6.98-1.58 13.94.51 20.75 1.9 3.5-3.62 7.05-7.32 9.36-11.85 3.56-6.01 5.25-12.87 5.11-19.84m-45.09 54.7c-10.54 6.51-15.95 18.37-19.26 29.85-5.47 18.81-5.86 38.57-6.29 58 .29 12.54 1.83 25.56 7.5 36.89.36 3.67 2.36 6.86 4.07 10.03 3.65 6.15 7.16 12.79 12.87 17.28.81 1.66 2.2 2.95 3.48 4.26 5.65 5.5 11.9 10.67 19.33 13.54-3.73-4.25-7.95-8.12-11.01-12.92-1.81-2.46-2.95-5.43-5.1-7.62-.76-3.2-1.63-6.63-3.99-9.04-.25-4.92-2.15-9.53-2.88-14.37-1.53-7.67-1.26-15.52-1.18-23.29 1.1-8.4 2.61-16.76 5.37-24.79 5.56.08 11.08-1.41 15.94-4.09.82 3.38 2.35 6.75 5.05 9.03 5.58 5 15.05 4.86 20.37-.47 6.03-5.54 6-16.29-.25-21.64-3.45-3.38-8.5-4.59-13.2-4.02.61-3.99.48-8.03.32-12.04 10.34-4.56 23.04-4.88 32.89 1.09 3.46 1.58 6.1 4.65 9.72 5.86 3.41 5.68 9.11 9.87 11.27 16.34-3.51-.38-7.4-.42-10.4 1.74-6.64 4.01-7.1 14.77-.98 19.46 5.4 4.93 15.17 2.87 18.41-3.57 2.93 9.1 3.4 18.8 3.13 28.3-.16 6.63-1.77 13.1-2.56 19.66-1.1.31-.95 1.88-1.42 2.74-1.13 4.61-3.55 8.78-4.61 13.41-1.54.57-1.99 2.77-3.02 4-2.13 4.23-5.78 7.38-8.07 11.49 6.17-2.95 10.77-8.31 15.39-13.19 2.42-3.22 5.54-6.13 6.89-9.99 2.87-2.67 4.3-6.44 6.18-9.8 7.59-15.48 11.19-33.08 9.55-50.28-1.85-12.72-6.8-25.56-15.74-34.96-5.8-9.24-13.96-16.76-22.23-23.77-13.55-11.09-29.01-20.15-45.88-25.07-9.68-2.65-20.76-3.52-29.66 1.95m69.17 105.22c-4.57 1.91-5.67 8.96-1.64 11.98 3.81 3.38 10.64 1.22 11.75-3.77 1.62-5.53-4.99-10.92-10.11-8.21zM247.11 203.9c.34-2.73 1.04-5.55 3.06-7.55-.99 7 1.22 13.93 4.98 19.78 2.6 3.96 5.49 7.81 9.02 10.99 5.98-.26 11.8-2.66 17.87-1.93 10.89.7 20 8.37 25.34 17.47 8.72 14.61 12.32 31.6 14.72 48.25 2.19 16.6 3.26 33.37 2.89 50.11-1.01 23.12-9.24 46.06-24.08 63.92-5.95 7.43-13.45 13.39-21.21 18.81-14.52 8.99-33.55 12.12-49.45 4.98-15.49-7.14-28.68-19.11-36.99-34.03-11.95-20.74-15.78-45.43-13.41-69.05 2.73-19.67 12.43-37.77 24.85-53.02.86-1.3 1.69-2.63 2.49-3.97-3.62-.71-7.26-1.4-10.78-2.54-7.9-3.15-15.04-8.86-19.58-16.06 2.97 1.23 5.36 3.45 8.12 5.06 4.64 2.84 9.76 4.8 14.97 6.36 5.41 1.19 12.57 3.09 16.66-1.9 4.48-4.83 9.84-8.7 14.57-13.28-3.75-1.84-7.47-3.79-10.77-6.37-7.33-6.45-10.79-16.38-10.99-25.98 1.7 2.63 2.84 5.56 4.43 8.25 3.08 5.12 7.23 9.52 11.91 13.21 3.73 2.89 8.29 5.37 13.09 5.43 6.18-3.25 12.01-7.2 18.43-10.04-2.61-4.05-5.52-7.89-7.89-12.09-2.45-4.51-2.68-9.81-2.25-14.81m24.3 43.71c-11.42 2.11-22.19 6.82-32.2 12.61-13.54 7.93-26.02 17.82-36.3 29.71-2.03 2.63-4.47 5.03-5.94 8.04-2.63 2.1-4.35 5.03-6.06 7.87-4.93 8.27-8.36 17.51-9.61 27.07-1.49 17.41 2.02 35.22 10.02 50.76 1.72 3.25 3.22 6.73 5.87 9.36 2.28 5.48 6.82 9.7 10.78 14.02 3.96 3.5 7.63 7.48 12.35 9.99-2.23-3.81-5.7-6.71-7.81-10.61-1.49-2.11-2.28-4.91-4.58-6.31-.76-4.47-3.19-8.39-4.33-12.74-.76-2.84-1.45-5.69-2.38-8.47-2.02-14-2.71-28.71 1.72-42.33 2.47 4.72 8.53 7.18 13.64 5.73 5.32-1.39 9.57-6.7 8.96-12.32.19-7.92-8.66-13.1-15.87-11.3 1.48-2.25 2.59-4.72 3.61-7.2 2.2-1.07 3.34-3.47 5.08-5.11 3.53-4.18 8.33-6.94 12.22-10.74 4.63-.57 8.81-3.13 13.53-3.39 6.76-1.14 13.32 1.07 19.77 2.74l-.24.73c-.03 3.77-.04 7.54.22 11.3-2.02-.04-3.98.44-5.97.62-6.1 1.64-11.35 6.86-11.73 13.37-1.22 9.15 7.72 17.85 16.87 16.23 6.52-.64 11.7-6.24 12.96-12.49 5.05 2.34 10.43 3.9 15.98 4.42 5.23 14.26 6.45 29.75 4.75 44.78-.9 7.81-3.65 15.19-6.04 22.63-3.79 6.44-6.96 13.43-12.39 18.72-1.7 1.55-3.26 3.25-4.68 5.05 5.4-1.48 9.73-5.27 14-8.72 2.9-2.68 6.38-4.99 8.3-8.54 5.29-4.25 8.69-10.32 12.17-16.04 1.92-3.55 4.34-7.03 4.75-11.16 3.01-5.96 4.73-12.52 6.02-19.06 2.27-11.13 1.44-22.54 1.25-33.81-.94-18.53-2.7-37.57-10.56-54.64-3.34-6.81-7.82-13.53-14.54-17.4-7.05-4.16-15.66-5.04-23.59-3.37m-52.12 108.57c-4.53 2.28-5.17 9.58-.78 12.34 4.27 3.31 11.41-.11 11.27-5.57.61-5.36-5.88-9.33-10.49-6.77zm278.49 410.96c.25-.32.75-.95 1-1.27 2.91 5.91 5 12.18 7.21 18.38-.26.3-.79.9-1.05 1.2-2.47-6.07-4.37-12.37-7.16-18.31zm-211.01 20.79c1.5-7.08 3.9-14.15 7.96-20.18.17.62.5 1.86.67 2.48-3.58 5.82-5.28 12.52-7.49 18.93-.29-.31-.85-.92-1.14-1.23zm127.54 11.03c1.73 4.88 2.12 10.1 3.6 15.05 1.46 10.34 4.85 20.31 9.35 29.7 2.52 4.94 5.21 10.1 9.88 13.37 1.23 2.15 2.52 4.53 1.31 7.02-8.28 3.07-16.09 7.38-24.64 9.74-8.67 2.36-18 4.22-26.86 1.76a63.51 63.51 0 0 1-3.88-1.64c-8.48-4.06-16.69-8.62-25.03-12.95-1.44.99-2.83 2.08-4.28 3.07.32-1.04.68-2.06 1.07-3.06 4.53-2.59 6.9-7.43 9.36-11.81 5.47-10.4 9.33-21.75 10.71-33.44.94-4.34 1.5-8.75 2.86-12.98.22 5.01-.35 10.02-1.2 14.95-2.51 12.01-6.11 23.93-12.35 34.57-1.25 2.51-3.76 4.67-4.07 7.51 4.5 3.47 9.84 5.62 14.82 8.32 6.98 3.29 13.89 8.18 22.02 7.24 14.5-1.19 28.39-6.62 41.07-13.55-3.06-3.56-6.43-6.89-8.92-10.89-5.67-8.77-8.8-18.86-11.59-28.84-2-7.55-3.14-15.33-3.23-23.14z"/><path fill="#c39d76" d="M458.84 207.88c12.22-4.52 24.98.82 36.31 5.4-2.31 4.53-5.86 8.23-9.36 11.85-6.81-1.39-13.77-3.48-20.75-1.9-11.1 1.97-19.32 11.08-24.24 20.7-6.31 11.87-9.16 25.16-11.6 38.28-3.12 18.4-4.05 37.11-3.76 55.75.64 22.15 8.52 43.99 22.1 61.49 6.02 7.96 13.7 14.4 21.39 20.66-2.01-.56-4.14-.88-5.93-2-14.3-9.35-25.45-23.04-32.75-38.41-6.89-14.07-10-29.7-10.78-45.27-1.32-7.47.72-14.92.47-22.41-.2-6.68.9-13.3 1.33-19.95 1.98-19.17 4.95-38.52 12.32-56.46 5.01-11.6 12.59-23.59 25.25-27.73z"/><path fill="#c39e74" d="M492.7 227.85c2.78-3.87 5.58-7.74 7.99-11.85 7.98 5.4 16.08 10.61 23.54 16.73a27.657 27.657 0 0 1-12.21 5.56c-6.63-3.08-12.7-7.3-19.32-10.44z"/><path d="M225.73 235.41c7.51-6.07 15.7-11.22 23.63-16.7 2.37 4.2 5.28 8.04 7.89 12.09-6.42 2.84-12.25 6.79-18.43 10.04-4.8-.06-9.36-2.54-13.09-5.43zm-5.35 4.52c3.3 2.58 7.02 4.53 10.77 6.37-4.73 4.58-10.09 8.45-14.57 13.28-4.09 4.99-11.25 3.09-16.66 1.9 2.42-1 3.75-3.33 5.3-5.29 4.46-5.95 10.23-10.71 15.16-16.26z" fill="#c49d76"/><path fill="#77320f" d="M392.84 233.91c1.52-2.19 3.7-3.74 5.85-5.24-.94 2.76-1.69 5.59-2.63 8.35-.9 1.72-1.83 3.43-2.78 5.12-6.24 4.09-10.07 10.68-15.04 16.06-.92.98-2.29 1.32-3.45 1.92 4.84-9.49 11.71-17.72 18.05-26.21z"/><path fill="#782f0f" d="M348.11 235.79c1.96 1.34 3.97 2.68 5.33 4.69 3.85 5.22 8.1 10.13 11.77 15.5-4.75-1.36-6.8-6.62-11.59-7.85-1.14-2.08-2.39-4.09-3.64-6.09-.67-2.07-1.24-4.17-1.87-6.25z"/><path d="M455.17 248.14c8.9-5.47 19.98-4.6 29.66-1.95 16.87 4.92 32.33 13.98 45.88 25.07 8.27 7.01 16.43 14.53 22.23 23.77 1 3.54 2.14 7.03 3.55 10.43 7.41 19.33 9.17 41.43 1.65 61.01-.18-1.9-.28-3.78-.37-5.67.43-12.54-1.48-25.18-5.49-37.07-1.76-5.36-3.97-10.6-6.93-15.41-6.04-10.7-14.88-20.17-26.09-25.48-11.35-5.4-25.1-5.17-36.35.38-8.24 4.05-15.18 10.41-20.55 17.8-5.48 7.14-9.28 15.42-12.16 23.9-4.68 15.13-5.91 31.28-3.88 46.97.56 3.7 1.18 7.41 1.96 11.08-4.22-2.77-7.43-6.73-11.16-10.09-5.67-11.33-7.21-24.35-7.5-36.89.43-19.43.82-39.19 6.29-58 3.31-11.48 8.72-23.34 19.26-29.85zm-183.76-.53c7.93-1.67 16.54-.79 23.59 3.37 6.72 3.87 11.2 10.59 14.54 17.4 7.86 17.07 9.62 36.11 10.56 54.64.19 11.27 1.02 22.68-1.25 33.81-1.29 6.54-3.01 13.1-6.02 19.06-3.68 3.28-6.78 7.24-10.96 9.91 1.66-8.51 2.98-17.13 3.03-25.82-.31-11.3-1.92-22.62-5.53-33.36-2.4-7.33-5.75-14.35-10.14-20.69-5.62-8.24-13.06-15.46-22.03-19.94-10.88-5.31-24.04-5.75-35.18-.96-9.11 3.93-16.8 10.73-22.56 18.74-4.1 5.25-7.21 11.19-9.66 17.37a83.347 83.347 0 0 0-6.91 30.59c-.88 6.49-.5 13.05-.01 19.57-3.21-6.47-4.37-13.66-5.4-20.73-1.3-8.88.05-17.87 1.49-26.64 1.53-9 5.8-17.17 8-25.96 1.47-3.01 3.91-5.41 5.94-8.04 10.28-11.89 22.76-21.78 36.3-29.71 10.01-5.79 20.78-10.5 32.2-12.61z" fill="#fff"/><path fill="#c39d75" d="M196.41 266.12c3.52 1.14 7.16 1.83 10.78 2.54-.8 1.34-1.63 2.67-2.49 3.97-12.42 15.25-22.12 33.35-24.85 53.02-2.37 23.62 1.46 48.31 13.41 69.05 8.31 14.92 21.5 26.89 36.99 34.03-5.75.68-10.51-3.08-15.25-5.7-7.69-4.38-13.9-10.8-19.75-17.33-11.67-14.39-18.15-32.43-20.61-50.65-.86-5.03-.6-10.16-1.34-15.19-.98-6.59.48-13.16.93-19.72 2.38-16.72 9.23-32.54 18.24-46.73 1.36-2.39 3.82-4.37 3.94-7.29z"/><path fill="#000191" d="M482.91 283.22c11.25-5.55 25-5.78 36.35-.38 11.21 5.31 20.05 14.78 26.09 25.48-3.75-1.58-7.11-3.85-10.27-6.4-1.65-1.62-4.04-1.75-6.16-2.24-3.62-1.21-6.26-4.28-9.72-5.86-9.85-5.97-22.55-5.65-32.89-1.09-1.07-3.2-2.21-6.36-3.4-9.51z"/><path fill="#000192" d="M232.02 285.03c11.14-4.79 24.3-4.35 35.18.96-1.3 2.93-2.34 5.95-3.32 9-6.45-1.67-13.01-3.88-19.77-2.74-4.72.26-8.9 2.82-13.53 3.39-8.04-.31-13.61 6.65-21.12 8.13 5.76-8.01 13.45-14.81 22.56-18.74z"/><path fill="#4d50b3" d="M462.36 301.02c5.37-7.39 12.31-13.75 20.55-17.8 1.19 3.15 2.33 6.31 3.4 9.51-2.38 1.07-4.74 2.18-7.1 3.29-2.32.22-4.89-.16-6.86 1.36-3.12 1.64-6.15 5.32-9.99 3.64z"/><path fill="#4d4fb3" d="M267.2 285.99c8.97 4.48 16.41 11.7 22.03 19.94l-.28 1.88c-6.31-5.03-13.19-9.26-20.68-12.3-.32.31-.95.94-1.26 1.25-1.11-.4-2.24-.75-3.37-1.04l.24-.73c.98-3.05 2.02-6.07 3.32-9z"/><path d="M10.24 289.19c3.78-3.44 9.37-2.49 13.69-.7-3.05 1.08-6.61 2.03-8.22 5.14-5.25 9.22-4.83 20.19-4.59 30.44 1.24 20.25 8.22 39.62 17.12 57.7-5.52-4.42-8.55-11.05-11.98-17.05-8.9-16.71-15.2-35.56-13.88-54.7.21-7.46 2.11-15.64 7.86-20.83zm-5.26 135.8c-2.77-15.45 10.29-31.94 26.05-32.28 2.3-.37 3.73 1.49 5.03 3.04-5.41 1.56-11.14 3.01-15.36 6.99-6.54 5.27-10.78 13.71-9.56 22.21 1.2 10.52 9.02 18.62 16.87 24.97 6.18 4.3 12.38 8.68 19.18 11.94-2.57-.04-5.24-.15-7.55-1.42-8.76-4.55-17.29-9.81-24.44-16.68-4.75-5.33-8.91-11.64-10.22-18.77zm61.31 105.39c1.03-1.93 2.97-2.45 5.02-2.44-4.64 9.01-11.08 18.66-8.53 29.3 1.45 7.67 8.82 12.01 15.67 14.24 10.52 3.58 21.7 2.06 32.57 2.49 5.36.01 10.66-1.04 16.03-1.06-3.17 5.79-10.33 5.64-16.04 6.14-14.5 1-29.93 1.83-43.36-4.7-6.26-2.88-10.73-9.36-10.79-16.31-.8-10.1 4.03-19.49 9.43-27.66zm54.84 52.94c.85-3.7 3.79-6.3 6.9-8.17-1.7 5.56-2.66 11.51-1.5 17.29 1.3 7.6 4.34 15.56 11.01 20.01 5.76 4.37 13.46 4.11 20.26 3.22 7.06-1.5 13.54-4.87 20.06-7.86-2.01 4.34-6.65 6.21-10.53 8.48-8.24 4.69-17.86 7.52-27.38 6.03-6.9-.65-12.23-5.95-15.84-11.46-4.48-8.29-5.54-18.49-2.98-27.54zm57.72 30.65c-1.31-3.72 2.49-5.94 4.82-8.01 3.1 8.17 6.28 16.56 12.14 23.22 6.37 7.7 15.93 13.58 26.21 13.08-8.07 2.39-17.12 1.52-24.33-2.97-9.58-5.25-15.47-15.26-18.84-25.32zm426.35 3.96c2.23 2.38 6.26 4.91 4.55 8.72-3.32 10.37-10.01 20.08-19.66 25.46-7.09 3.67-15.62 4.62-23.24 2.13 6.68.52 13.29-1.89 18.59-5.86 10.1-7.32 15.53-19.08 19.76-30.45zM365.38 831.39c3.67-4.9 5.84-10.72 9.52-15.62-1.38 11.69-5.24 23.04-10.71 33.44-2.46 4.38-4.83 9.22-9.36 11.81 1.13-5.94 2.6-11.82 3.31-17.83.91-4.71 4.65-8 7.24-11.8z" fill="#6a3314"/><path fill="#4d4d4c" d="M479.21 296.02c2.36-1.11 4.72-2.22 7.1-3.29.16 4.01.29 8.05-.32 12.04-1.05.33-2.06.71-3.06 1.15-3.78 1.69-6.7 5.1-8.23 8.91-.49 2.31-.7 4.68-.68 7.04-4.86 2.68-10.38 4.17-15.94 4.09 3.54-7.97 7.58-15.88 13.62-22.27 2.49-2.57 5.07-5.06 7.51-7.67z"/><path fill="#0523a1" d="M209.46 303.77c7.51-1.48 13.08-8.44 21.12-8.13-3.89 3.8-8.69 6.56-12.22 10.74-1.74 1.64-2.88 4.04-5.08 5.11-6.06.96-7.39 8.83-13.48 9.65 2.45-6.18 5.56-12.12 9.66-17.37z"/><path fill="#506ec0" d="M268.27 295.51c7.49 3.04 14.37 7.27 20.68 12.3l.28-1.88c4.39 6.34 7.74 13.36 10.14 20.69-.65.33-1.96.99-2.61 1.32-1.69.24-3.38.37-5.07.51-2.68-6.13-5.75-12.12-9.46-17.69-3.82-5.84-9.31-10.4-15.22-14 .31-.31.94-.94 1.26-1.25z"/><path fill="#b0b0b0" d="M552.94 295.03c8.94 9.4 13.89 22.24 15.74 34.96 1.64 17.2-1.96 34.8-9.55 50.28-1.88 3.36-3.31 7.13-6.18 9.8l.22-.94c1.54-6.94 3.65-13.83 3.8-20.99.25-2.45.56-4.89.8-7.34.09 1.89.19 3.77.37 5.67 7.52-19.58 5.76-41.68-1.65-61.01-1.41-3.4-2.55-6.89-3.55-10.43z"/><path fill="#4d4c4d" d="M263.64 295.72c1.13.29 2.26.64 3.37 1.04 5.91 3.6 11.4 8.16 15.22 14 3.71 5.57 6.78 11.56 9.46 17.69l.28.72c-5.55-.52-10.93-2.08-15.98-4.42.01-2.63-.2-5.26-.73-7.84-1.8-3.48-4.6-6.54-8.13-8.3-2.98-.96-6.14-1.06-9.24-.97 1.99-.18 3.95-.66 5.97-.62-.26-3.76-.25-7.53-.22-11.3z"/><path fill="#5173c3" d="M472.35 297.38c1.97-1.52 4.54-1.14 6.86-1.36-2.44 2.61-5.02 5.1-7.51 7.67-6.04 6.39-10.08 14.3-13.62 22.27-.47-.08-1.41-.26-1.88-.35-1.99-.35-4-.54-6-.69 2.88-8.48 6.68-16.76 12.16-23.9 3.84 1.68 6.87-2 9.99-3.64z"/><path fill="#b1b1b1" d="M190.91 305.84c1.71-2.84 3.43-5.77 6.06-7.87-2.2 8.79-6.47 16.96-8 25.96-1.44 8.77-2.79 17.76-1.49 26.64 1.03 7.07 2.19 14.26 5.4 20.73.75 6.7 2.1 13.31 3.84 19.83.11.47.35 1.42.47 1.9-2.65-2.63-4.15-6.11-5.87-9.36-8-15.54-11.51-33.35-10.02-50.76 1.25-9.56 4.68-18.8 9.61-27.07z"/><path fill="#0536a8" d="M528.92 299.68c2.12.49 4.51.62 6.16 2.24 3.16 2.55 6.52 4.82 10.27 6.4 2.96 4.81 5.17 10.05 6.93 15.41-1.44-.15-2.87-.29-4.29-.44-1.7-3.23-4.37-5.92-7.8-7.27-2.16-6.47-7.86-10.66-11.27-16.34z"/><path d="M482.93 305.92c1-.44 2.01-.82 3.06-1.15 4.7-.57 9.75.64 13.2 4.02 6.25 5.35 6.28 16.1.25 21.64-5.32 5.33-14.79 5.47-20.37.47-2.7-2.28-4.23-5.65-5.05-9.03-.02-2.36.19-4.73.68-7.04.04 1.87.15 3.74.31 5.61 5.16-3.2 8.69-8.65 10.14-14.5-.55 0-1.66-.01-2.22-.02zm-236.77 15.09c.38-6.51 5.63-11.73 11.73-13.37 3.1-.09 6.26.01 9.24.97-.53.09-1.6.29-2.14.39 1.26 5.85 4.95 11.2 10.16 14.24.09-2.11.14-4.22.11-6.33.53 2.58.74 5.21.73 7.84-1.26 6.25-6.44 11.85-12.96 12.49-9.15 1.62-18.09-7.08-16.87-16.23z" fill="gray"/><path d="M474.7 314.83c1.53-3.81 4.45-7.22 8.23-8.91.56.01 1.67.02 2.22.02-1.45 5.85-4.98 11.3-10.14 14.5-.16-1.87-.27-3.74-.31-5.61zM264.99 309c.54-.1 1.61-.3 2.14-.39 3.53 1.76 6.33 4.82 8.13 8.3.03 2.11-.02 4.22-.11 6.33-5.21-3.04-8.9-8.39-10.16-14.24z" fill="#a6a6a6"/><path fill="#0c59b9" d="M199.8 321.14c6.09-.82 7.42-8.69 13.48-9.65-1.02 2.48-2.13 4.95-3.61 7.2-3.61 1.92-6.93 4.87-7.91 9.01-1.03 3 .17 6.06 1.18 8.88-4.43 13.62-3.74 28.33-1.72 42.33-.1.81-.28 2.44-.37 3.25-1.7-4.47-4.29-8.6-5.61-13.19-.5-5.79.15-11.8-2.35-17.24.34-10.5 2.7-20.97 6.91-30.59z"/><path d="M529.79 317.76c3-2.16 6.89-2.12 10.4-1.74 3.43 1.35 6.1 4.04 7.8 7.27 1.02 3.44.56 7.07-.77 10.36-3.24 6.44-13.01 8.5-18.41 3.57-6.12-4.69-5.66-15.45.98-19.46zm-328.03 9.94c.98-4.14 4.3-7.09 7.91-9.01 7.21-1.8 16.06 3.38 15.87 11.3.61 5.62-3.64 10.93-8.96 12.32-5.11 1.45-11.17-1.01-13.64-5.73-1.01-2.82-2.21-5.88-1.18-8.88zm322.58 25.66c5.12-2.71 11.73 2.68 10.11 8.21-1.11 4.99-7.94 7.15-11.75 3.77-4.03-3.02-2.93-10.07 1.64-11.98zm-305.05 2.82c4.61-2.56 11.1 1.41 10.49 6.77.14 5.46-7 8.88-11.27 5.57-4.39-2.76-3.75-10.06.78-12.34z" fill="#fefefe"/><path fill="#0952b2" d="M547.99 323.29c1.42.15 2.85.29 4.29.44 4.01 11.89 5.92 24.53 5.49 37.07-.24 2.45-.55 4.89-.8 7.34-.52-1.06-1.05-2.11-1.6-3.14-1.76 5.5-2.92 11.43-6.44 16.15-.29.11-.85.34-1.14.46.79-6.56 2.4-13.03 2.56-19.66.27-9.5-.2-19.2-3.13-28.3 1.33-3.29 1.79-6.92.77-10.36z"/><path fill="#0a44af" d="M450.2 324.92c2 .15 4.01.34 6 .69-6.82 8.55-7.5 19.92-7.45 30.4.25 4.54 1.88 8.85 3 13.22 1.17-6.04-.25-12.36.96-18.48-.08 7.77-.35 15.62 1.18 23.29.73 4.84 2.63 9.45 2.88 14.37-4.82-4.54-7.19-10.9-10.45-16.52-2.03-15.69-.8-31.84 3.88-46.97z"/><path fill="#0d63bd" d="M448.75 356.01c-.05-10.48.63-21.85 7.45-30.4.47.09 1.41.27 1.88.35-2.76 8.03-4.27 16.39-5.37 24.79-1.21 6.12.21 12.44-.96 18.48-1.12-4.37-2.75-8.68-3-13.22z"/><path fill="#0736ab" d="M296.76 327.94c.65-.33 1.96-.99 2.61-1.32 3.61 10.74 5.22 22.06 5.53 33.36-.05 8.69-1.37 17.31-3.03 25.82l-.6.4c-4.74 2.22-5.53 8.79-10.59 10.38 2.39-7.44 5.14-14.82 6.04-22.63.08 1.47.2 2.93.36 4.4 2.88-6.2 4.93-12.89 5.52-19.71-.04-10.47-2.05-20.94-5.84-30.7z"/><path fill="#0d5eb8" d="M291.69 328.45c1.69-.14 3.38-.27 5.07-.51 3.79 9.76 5.8 20.23 5.84 30.7-.59 6.82-2.64 13.51-5.52 19.71-.16-1.47-.28-2.93-.36-4.4 1.7-15.03.48-30.52-4.75-44.78l-.28-.72z"/><path fill="#c67d56" d="M74.85 342.18c-1.85-1.49-3.18-3.47-4.49-5.43 1.27.67 2.54 1.38 3.69 2.26 10.18 8.25 20.74 16.03 31.55 23.43 2.32 1.65 4.94 2.95 6.93 5.03.9 1.66 1.41 3.53 1.62 5.41l-.08 2.15c-14.04-9.72-26.48-21.52-39.22-32.85z"/><path fill="#c57e57" d="M673.81 380.83c16.12-10.35 31.36-21.96 46.35-33.85-1.2 1.83-2.29 3.79-3.95 5.25-8.99 8.01-17.89 16.12-27.15 23.82-8.52 6.89-16.82 14.18-26.14 19.96-.01-.53-.02-1.58-.03-2.11.66-2.22 1.31-4.49 2.52-6.49 2.03-3.01 5.51-4.53 8.4-6.58z"/><path fill="#0535a9" d="M192.89 351.73c2.5 5.44 1.85 11.45 2.35 17.24 1.32 4.59 3.91 8.72 5.61 13.19.09-.81.27-2.44.37-3.25.93 2.78 1.62 5.63 2.38 8.47 1.14 4.35 3.57 8.27 4.33 12.74-3.65-2.01-5.65-5.76-8.08-8.98-.78 0-2.35-.01-3.13-.01-1.74-6.52-3.09-13.13-3.84-19.83-.49-6.52-.87-13.08.01-19.57z"/><path fill="#0528a3" d="M555.37 365c.55 1.03 1.08 2.08 1.6 3.14-.15 7.16-2.26 14.05-3.8 20.99-.5-.21-1.49-.62-1.98-.83-2.18 3.9-4.68 8.52-9.43 9.46 1.06-4.63 3.48-8.8 4.61-13.41.47-.86.32-2.43 1.42-2.74.29-.12.85-.35 1.14-.46 3.52-4.72 4.68-10.65 6.44-16.15z"/><path fill="#031b9e" d="M446.32 371.89c3.26 5.62 5.63 11.98 10.45 16.52 2.36 2.41 3.23 5.84 3.99 9.04-5.05-1.62-6.43-7.31-10.88-9.64-.54-1.61-1.09-3.22-1.6-4.84-.78-3.67-1.4-7.38-1.96-11.08z"/><path fill="#b0b0b3" d="M437.12 372.88c3.73 3.36 6.94 7.32 11.16 10.09.51 1.62 1.06 3.23 1.6 4.84 1.21 4.19 2.65 8.3 4.18 12.38-5.71-4.49-9.22-11.13-12.87-17.28-1.71-3.17-3.71-6.36-4.07-10.03z"/><path fill="#b2b0b0" d="M301.87 385.8c4.18-2.67 7.28-6.63 10.96-9.91-.41 4.13-2.83 7.61-4.75 11.16-3.48 5.72-6.88 11.79-12.17 16.04 1.98-5.56 4.34-11.04 5.36-16.89l.6-.4z"/><path fill="#000395" d="M290.68 396.58c5.06-1.59 5.85-8.16 10.59-10.38-1.02 5.85-3.38 11.33-5.36 16.89-1.92 3.55-5.4 5.86-8.3 8.54-4.27 3.45-8.6 7.24-14 8.72 1.42-1.8 2.98-3.5 4.68-5.05 5.43-5.29 8.6-12.28 12.39-18.72z"/><path fill="#000292" d="M449.88 387.81c4.45 2.33 5.83 8.02 10.88 9.64 2.15 2.19 3.29 5.16 5.1 7.62 3.06 4.8 7.28 8.67 11.01 12.92-7.43-2.87-13.68-8.04-19.33-13.54-1.28-1.31-2.67-2.6-3.48-4.26-1.53-4.08-2.97-8.19-4.18-12.38z"/><path fill="#020691" d="M551.19 388.3c.49.21 1.48.62 1.98.83l-.22.94c-1.35 3.86-4.47 6.77-6.89 9.99-4.62 4.88-9.22 10.24-15.39 13.19 2.29-4.11 5.94-7.26 8.07-11.49 1.03-1.23 1.48-3.43 3.02-4 4.75-.94 7.25-5.56 9.43-9.46z"/><path fill="#000497" d="M196.72 391.13c.78 0 2.35.01 3.13.01 2.43 3.22 4.43 6.97 8.08 8.98 2.3 1.4 3.09 4.2 4.58 6.31 2.11 3.9 5.58 6.8 7.81 10.61-4.72-2.51-8.39-6.49-12.35-9.99-3.96-4.32-8.5-8.54-10.78-14.02-.12-.48-.36-1.43-.47-1.9z"/><path fill="#dc710a" opacity=".98" d="M353.88 432.84c5.14-4.07 11.43-7.29 18.13-7.13 5.34.36 10.24 2.83 14.81 5.45 8.58 5.29 16.28 11.92 24.97 17.05 3.99 2.37 8.19 4.39 12.02 7.02 6.4 4.32 10.64 11.41 12.22 18.89 1.86 8.29.22 16.86-1.91 24.93-2.29 8.62-7.6 16.01-13.42 22.6-11.13 12.1-24.27 22.43-38.81 30.13-1.59.11-3.19.11-4.78.11-3.6-3.73-7.55-7.22-10.28-11.68-3.74-6.07-6.7-12.59-9.37-19.18-6.56 1.01-12.61 4.97-19.44 4-6.35-.98-10.41-6.86-12.48-12.49-3.51-10.32-3.09-21.57-1.16-32.17 3.71-18.75 15.01-35.35 29.5-47.53m10.08-4.18c-5.14 2.72-9.9 6.16-14.19 10.09-2.26 2.18-4.83 4.31-5.8 7.42-.63.74-1.2 1.53-1.69 2.38-1.89-1.15-4.29 1.96-2.81 3.57-2.51 3.02-4.25 6.59-6.11 10.03-.92.87-1.99 1.5-2.33 2.87-5.16 12.09-7.43 25.59-5.75 38.67.94 4.32 1.52 9.21 4.49 12.66 1.79 3.42 4.98 6.88 9.17 6.65 9.73.46 18.31-4.96 26.5-9.49 7.79-5.04 15.26-10.64 22-17.03 8-6.99 14.19-15.68 20.28-24.31.13.47.4 1.42.54 1.89-1.15 2.1-2.89 4.08-2.75 6.64-.59 14.63-5.51 28.71-12.16 41.64-1.8 3.36-3.87 6.68-6.76 9.22-2.32 2.16-6.18 1.09-7.83-1.37-3.95-5.51-5-12.43-5.1-19.05-5.1 2.23-9.59 5.57-14.47 8.19 1.33 6.6 5.05 12.33 8.29 18.11 1.54 2.85 3.5 5.43 5.72 7.79 2.01 2.82 5.45 6.19 9.17 4.15 12.94-7.16 24.78-16.32 35.06-26.95 4.56-5.21 9.44-10.39 12.22-16.82 3.16-7.12 4.59-14.88 5.47-22.58.07-4.98-1.12-9.92-2.53-14.67-3.2-7.72-10.53-12.65-17.76-16.22-11.7-5.83-21.18-15.13-32.6-21.37-5.52-3.27-12.16-2.91-18.27-2.11m29.05 65.59c-1.36 1.18-2.49 2.6-3.62 4.01-2.43-.26-4.03 1.61-4.45 3.82-.48.2-1.45.61-1.94.82-2.8 1.84-5.17 4.26-7.77 6.36-.16 2.28.08 4.56.32 6.84.77 4.48 1.69 9.17 4.38 12.96 1.12 1.78 3.47 1.72 5.31 2.05l-.84-.2c2.72-1.62 4.29-4.44 6.07-6.93 3.84-6.37 6.56-13.32 9.01-20.32.55-1.83 1.17-3.63 1.63-5.47.85-1.62.9-3.46.79-5.34l.84-.07c.42-3.62.98-7.22 1.2-10.86-4.34 3.34-8.03 7.79-10.93 12.33z"/><path fill="#f99406" d="M363.96 428.66c6.11-.8 12.75-1.16 18.27 2.11 11.42 6.24 20.9 15.54 32.6 21.37 7.23 3.57 14.56 8.5 17.76 16.22 1.41 4.75 2.6 9.69 2.53 14.67-.88 7.7-2.31 15.46-5.47 22.58-2.78 6.43-7.66 11.61-12.22 16.82-10.28 10.63-22.12 19.79-35.06 26.95-3.72 2.04-7.16-1.33-9.17-4.15 4.73-.72 9.59-1.64 13.64-4.35 13.68-8.73 24.72-21.22 32.86-35.18 4.43-7.62 7.66-16.38 6.99-25.32-.63-5.1-2.24-10.4-5.89-14.16-2.24-2.4-6.2-3.3-9.03-1.45-1.37 3.02-2.02 6.32-3.51 9.29-.14-.47-.41-1.42-.54-1.89-6.09 8.63-12.28 17.32-20.28 24.31-6.74 6.39-14.21 11.99-22 17.03-8.19 4.53-16.77 9.95-26.5 9.49-4.19.23-7.38-3.23-9.17-6.65 11.05 2.94 21.09-4.17 30.21-9.37 12.52-7.06 22.21-18.08 29.92-30.04 4.99-8.22 5.7-18.85 1.98-27.71-2.96-7.93-8.4-15.28-16.13-19.06-3.63-1.86-7.84-1.58-11.79-1.51z"/><g fill="#fbc702"><path d="M349.77 438.75c4.29-3.93 9.05-7.37 14.19-10.09 3.95-.07 8.16-.35 11.79 1.51 7.73 3.78 13.17 11.13 16.13 19.06 3.72 8.86 3.01 19.49-1.98 27.71-7.71 11.96-17.4 22.98-29.92 30.04-9.12 5.2-19.16 12.31-30.21 9.37-2.97-3.45-3.55-8.34-4.49-12.66-1.68-13.08.59-26.58 5.75-38.67.34-1.37 1.41-2 2.33-2.87-5.33 12.63-8.81 26.52-6.77 40.27.3 2.71 1.23 5.3 2.23 7.83-.45-10.4.12-20.96 3.56-30.88 4.28-13.04 11.56-25.04 20.87-35.11 3.85-4.46 8.48-8.11 12.67-12.22-8.51 2.54-15.66 8.04-21.95 14.13.97-3.11 3.54-5.24 5.8-7.42z"/><path d="M339.47 452.12c-1.48-1.61.92-4.72 2.81-3.57-.75 1.32-1.76 2.47-2.81 3.57z"/></g><path fill="#f8e5a7" d="M343.97 446.17c6.29-6.09 13.44-11.59 21.95-14.13-4.19 4.11-8.82 7.76-12.67 12.22-9.31 10.07-16.59 22.07-20.87 35.11-3.44 9.92-4.01 20.48-3.56 30.88-1-2.53-1.93-5.12-2.23-7.83-2.04-13.75 1.44-27.64 6.77-40.27 1.86-3.44 3.6-7.01 6.11-10.03 1.05-1.1 2.06-2.25 2.81-3.57.49-.85 1.06-1.64 1.69-2.38z"/><path fill="#6a3414" d="M41.13 465.16c3.23-2.18 7.33-1.02 10.9-.54-5.09.11-8.63 4.11-12.23 7.15-5.64 5.04-11.02 11.4-11.77 19.23-.71 6.4 2.66 12.51 7.27 16.72 6.27 5.48 13.71 9.47 21.45 12.48 5.63 2.13 11.16 5.24 17.36 5.08-6.62 1.98-13.33-.55-19.42-3.04-9.5-3.81-19.26-7.99-26.51-15.44-5.15-5.36-7.87-13.52-5.19-20.7 3.33-8.86 10.31-15.88 18.14-20.94z"/><path fill="#fac702" d="M411.77 464.77c2.83-1.85 6.79-.95 9.03 1.45 3.65 3.76 5.26 9.06 5.89 14.16.67 8.94-2.56 17.7-6.99 25.32-8.14 13.96-19.18 26.45-32.86 35.18-4.05 2.71-8.91 3.63-13.64 4.35-2.22-2.36-4.18-4.94-5.72-7.79-3.24-5.78-6.96-11.51-8.29-18.11 4.88-2.62 9.37-5.96 14.47-8.19.1 6.62 1.15 13.54 5.1 19.05 1.65 2.46 5.51 3.53 7.83 1.37 2.89-2.54 4.96-5.86 6.76-9.22 6.65-12.93 11.57-27.01 12.16-41.64-.14-2.56 1.6-4.54 2.75-6.64 1.49-2.97 2.14-6.27 3.51-9.29z"/><path fill="#6b3414" d="M737.83 476.57c3.71-.59 7.92-1.11 11 1.57 7.12 5.54 14.46 12 17.22 20.91 2.3 7.41-.83 15.53-6.34 20.68-9.37 8.83-21.71 13.48-33.77 17.35-3.59 1.33-7.47 1.12-11.15.34 5.18-.09 10.06-1.99 14.77-3.95 6.8-2.96 13.74-5.79 19.76-10.19 5.79-4.06 10.95-10.08 11.55-17.39.17-7.8-4.54-14.63-9.75-20.01-3.89-3.77-8.13-7.44-13.29-9.31z"/><path fill="#631614" d="M393.01 494.25c2.9-4.54 6.59-8.99 10.93-12.33-.22 3.64-.78 7.24-1.2 10.86l-.84.07c-2.99.23-5.98.63-8.89 1.4z"/><path fill="#e37a77" opacity=".97" d="M393.01 494.25c2.91-.77 5.9-1.17 8.89-1.4.11 1.88.06 3.72-.79 5.34-.05-.86-.14-2.58-.18-3.44-8.19.27-14.61 7.55-16.02 15.27-.68 1.78-1.49 3.52-2.41 5.19-1.34-4.28 1.35-8.31 2.39-12.35l-1.89.04c.49-.21 1.46-.62 1.94-.82 1.81-.84 3.3-2.21 4.45-3.82 1.13-1.41 2.26-2.83 3.62-4.01z"/><path fill="#fb9f9e" d="M384.91 510.02c1.41-7.72 7.83-15 16.02-15.27.04.86.13 2.58.18 3.44-.46 1.84-1.08 3.64-1.63 5.47-2.26-.5-4.73-1.45-6.9-.13-2.86 1.77-5.22 4.21-7.67 6.49z"/><path d="M384.94 502.08c.42-2.21 2.02-4.08 4.45-3.82-1.15 1.61-2.64 2.98-4.45 3.82zm-137.86 39.99c3.78 1.64 6.92 4.39 10.61 6.2 33.59 17.35 70.46 28.88 108.23 31.77-2.15 3.75-3.52 7.89-4.13 12.17-15.55-1.43-30.63-5.54-45.74-9.26-1.3-.45-2.6-.9-3.89-1.34-11.67-4.86-23.53-9.32-34.79-15.09-9.34-5.02-18.63-10.2-27.28-16.35-1.56-.9-3.21-1.63-4.82-2.4.42-1.93.39-4.19 1.81-5.7zm153.9 39.06c45.76-1.04 91.07-13.85 131.08-35.98.56.92 1.09 1.86 1.53 2.86-4.4 1.9-8.29 4.72-12.29 7.3-14.7 9.04-30.32 16.48-46.26 23.03-4.94.1-9.26-4.62-14.21-2.54-4.44 1.72-6.94 6.08-9.13 10.03-19.79 4.99-40.13 7.82-60.54 8.14-.83-4.17-1.99-8.27-2.97-12.4 4.27.41 8.54-.15 12.79-.44z" fill="#5c1803"/><path fill="#f79f9e" d="M375.23 509.26c2.6-2.1 4.97-4.52 7.77-6.36l1.89-.04c-1.04 4.04-3.73 8.07-2.39 12.35-.32.62-.64 1.25-.95 1.88-.23-1.65-.44-3.28-.62-4.92-1.39-.79-2.78-1.59-4.17-2.37-.33 2.11-1.14 4.13-1.21 6.3-.24-2.28-.48-4.56-.32-6.84z"/><path fill="#fec6c7" d="M392.58 503.53c2.17-1.32 4.64-.37 6.9.13-2.45 7-5.17 13.95-9.01 20.32-.7-1.38-1.35-2.78-1.97-4.18-3.25 1.78-5.38 5.27-5.66 8.96.39.54 1.17 1.61 1.56 2.15l.84.2c-1.84-.33-4.19-.27-5.31-2.05-2.69-3.79-3.61-8.48-4.38-12.96.07-2.17.88-4.19 1.21-6.3 1.39.78 2.78 1.58 4.17 2.37.18 1.64.39 3.27.62 4.92.31-.63.63-1.26.95-1.88.92-1.67 1.73-3.41 2.41-5.19 2.45-2.28 4.81-4.72 7.67-6.49z"/><path fill="#f7e5e5" d="M382.84 528.76c.28-3.69 2.41-7.18 5.66-8.96.62 1.4 1.27 2.8 1.97 4.18-1.78 2.49-3.35 5.31-6.07 6.93-.39-.54-1.17-1.61-1.56-2.15z"/><path fill="#6a3414" d="M224.76 532.18c5.59 2.82 9.9 7.51 15.18 10.82 1.75 1.2 4.55 2.55 3.44 5.16-6.44 28.49-10.2 57.62-10.47 86.85.28 2.88-2.87 3.63-5.07 3.91 1.48-14.63 4.5-29.16 4.25-43.92-.04-11.55.41-23.18-1.56-34.61-1.01-9.59-4.41-18.69-5.77-28.21z"/><path fill="#6b3414" d="M717.01 539.83c1.98.45 4.11 1.06 5.32 2.86 4.77 6.31 8.09 13.8 9.34 21.64.68 5.01.41 10.54-2.48 14.87-3.27 4.53-7.98 8.09-13.38 9.63-14.72 4.22-30.25 3.32-45.28 1.67-3.7-.19-6.35-2.85-8.81-5.29 8.75.37 17.49 1.06 26.24 1.47 11.46-.71 24.48-1.02 33.37-9.36 5.36-4.73 5.46-12.48 4.27-18.98-1.35-6.79-5.81-12.3-8.59-18.51z"/><path fill="#8b3e13" d="M460.83 575.8c4.95-2.08 9.27 2.64 14.21 2.54-1.34.46-2.69.88-4.03 1.3-6.43 2.09-12.87 4.14-19.31 6.19 2.19-3.95 4.69-8.31 9.13-10.03z"/><path fill="#8b3e14" d="M365.92 580.04c7.41.74 14.88.54 22.27 1.53.98 4.13 2.14 8.23 2.97 12.4-9.82.09-19.64-.52-29.37-1.76.61-4.28 1.98-8.42 4.13-12.17z"/><path fill="#6b3315" d="M661.96 588.05c6.99 4.4 7.56 13.5 6.84 20.92-1.11 7.94-3.79 16.43-10.57 21.34-8.02 6.41-19.34 5.46-28.39 1.95-7.6-3.18-15.56-6.68-20.75-13.37 10.05 4.94 20.7 11.02 32.32 9.56 8.86-1.06 16.02-7.91 18.83-16.17 3.14-7.73 1.7-16.15 1.72-24.23z"/><path fill="#c58059" d="M496.35 771.61c-.47-2.26-.26-4.54-.02-6.79.36.58 1.09 1.74 1.45 2.32 2.79 5.94 4.69 12.24 7.16 18.31-1.92 2.25-3.96 4.39-5.82 6.7-1.37-6.79-1.58-13.73-2.77-20.54z"/><path fill="#e36d01" d="M528.64 772.43c8.46-1.59 17.29-2.01 25.67.21 8.77 2.24 16.74 7.94 21.15 15.91 3.28 5.57 4.72 11.95 5.48 18.3-.09 1.69 2.06 1.42 3.16 1.79 10 1.23 19 8.19 22.82 17.5 4.06 9.28 3.16 19.76 1.47 29.48-.81 3.12 1.27 5.87 2.32 8.66 4.91 11.08 8.12 23.86 4.31 35.76-3.62 11.25-13.39 19.25-23.73 24.18-8.96 4.13-18.4 7.73-28.31 8.47-5.06.23-10.65-.62-14.5-4.16-3.75-3.85-3.96-9.56-4.01-14.61-5.74 6.46-10.52 13.93-17.55 19.13-.88.56-1.75 1.13-2.64 1.68-2.98 1.69-6.13 3.08-9.4 4.09-4.52.21-9.18.35-13.51-1.16-4.5-1.37-8.05-4.55-11.8-7.22a34.343 34.343 0 0 0-13.31-5.8c-3.1-.66-6.29-.79-9.44-.79-.7-.02-2.09-.05-2.78-.07-9.24-1.73-16.54-8.63-21.68-16.14-6.29-9.83-9.55-22.07-7.24-33.65 1.03-3.33 2.34-6.56 3.33-9.89 1.21-2.49-.08-4.87-1.31-7.02-.95-7-3.05-13.83-3.35-20.91.34-5.97.95-12.18 3.88-17.5 2.12-3.92 5.91-7.04 10.37-7.76 6.19-1.15 12.42 1.16 17.58 4.46 4.46 2.67 7.67 6.88 11.89 9.83 6.69-11.36 13.71-22.5 21.61-33.05 1.86-2.31 3.9-4.45 5.82-6.7.26-.3.79-.9 1.05-1.2 5.4-5.16 12.02-8.99 19.22-10.97 1.13-.31 2.28-.6 3.43-.85m-5.47 4.7c-6.67 1.18-11.62 6.18-16.36 10.61-2.37.72-3.58 3.15-5.19 4.85a233 233 0 0 0-22.66 34.43c1.56 4.09 4.96 7.1 7.1 10.87 4.49 7.67 8.02 15.93 10.31 24.53 2.31 10.08 3.77 20.99-.13 30.88-2.25 5.34-6.99 10.55-13.21 10.49-6.98.66-13.61-2.62-18.82-6.99-8.01-6.05-13.98-14.32-19-22.9-1.65-2.75-2.53-6.02-4.95-8.21-.43 1.88-.88 3.77-1.11 5.7-.16-.36-.49-1.07-.65-1.42-4.82 17.21 1.77 37.61 16.66 47.9 7.71 5.15 17.41 3.63 25.99 6 7.02 2.29 12.52 7.48 18.86 11.06 5.97 3.16 13.17 2.86 19.3.33 9.16-4.81 15.94-12.82 21.87-21.1 4.32-5.03 7.45-11.08 12.62-15.36 5.38-4.62 11.88-7.63 17.53-11.86-3.8-6.38-7.86-12.81-8.81-20.36-.73-1.79-.16-5.28-2.61-5.58-7.35 1.36-15.89 2.35-22.04-2.86-4.38-4.51-6.88-10.52-8.31-16.57-1.44-3.75-1.75-7.76-1.81-11.73.86-5.26-.75-10.98 1.87-15.88.41 4.91-.62 9.95.62 14.78.46 6.78 1.04 13.75 4.09 19.94 2.28 4.44 5.39 9.09 10.48 10.52 5.78 2.29 12.03.21 17.53-1.9 8.21-4.76 12.85-14.2 13.57-23.45 3.04-6.51 2.17-13.92 3.36-20.85-.44-10.56-2.33-22.26-10.37-29.88-4.49-4.01-9.9-7.68-16.08-8.03-6.71-2.46-14.01-1.35-20.94-.8-3.19-.09-5.64 2.33-8.71 2.84m57.72 33.73c.02 9.86-1.11 19.76-3.9 29.24-2.03 7.82-6.75 14.96-13.66 19.28.44 1.56.64 3.24 1.69 4.57-.15 3.72.82 7.34 2.2 10.77 1.8 4.69 4.25 9.93 9.39 11.68 7.86 2.78 17.04-2.39 19.6-10.15 1.31-.71 2.22-1.94 2.95-3.19 4.24-7.68 7.55-16.03 8.38-24.82 1.5-10.57-.56-22.56-8.6-30.16-4.63-4.84-11.23-8.14-18.05-7.22m-134.61 2.34c-7.86 3.5-10.16 12.96-10.5 20.79.15 5.98.36 12.45 3.47 17.75 1.71 11.86 7.97 22.5 14.98 32.01 4.91 7.07 11.77 12.73 19.44 16.58 5.07 2.64 11.89 2.69 16.17-1.47 5.36-4.77 6.41-12.22 7.14-18.95-.45-18-7.69-35.23-18.3-49.55-5.2-5.84-10.54-11.92-17.61-15.52-4.45-2.5-9.9-2.8-14.79-1.64m142.29 74.3c-4.64 2.65-9.98.55-14.91 1.12-7.45 3.43-14.37 8.12-20.5 13.56-2.41 1.88-2.35 5.1-2.62 7.87l-.37-.32c-.1-.35-.29-1.05-.38-1.41l-.88-.22c-2.35 4.86-2.69 10.73-.82 15.81 2.43 5.45 9 7.09 14.46 6.66 13.89-1.79 27.69-6.48 38.78-15.22 7.32-4.68 11.63-13.11 12.51-21.6 1.37-4.71.84-9.72-.21-14.42-1.5-6.16-3.41-12.3-6.66-17.79-4.83 9.4-8.48 20.63-18.4 25.96z"/><path fill="#e37401" d="M239.41 775.45c9.74-2.2 20.04-1.43 29.55 1.5 1.06.33 2.12.68 3.17 1.06 5.45 2.35 10.39 5.79 14.64 9.92.29.31.85.92 1.14 1.23 1.81 1.98 3.59 4 5.24 6.13 7.98 10.57 14.77 21.94 21.95 33.04 5.66-5.28 11.43-10.83 18.95-13.33 6.33-2.57 14.42-1.42 18.78 4.17 5.14 6.8 5.84 15.78 5.31 24.02-.71 6.01-2.18 11.89-3.31 17.83-.39 1-.75 2.02-1.07 3.06-.72 2.39.42 4.72 1.21 6.94 1.13 2.98 2.13 6.03 2.92 9.13 1.15 14.58-4.6 29.51-15.34 39.44-3.32 3.06-7.32 5.3-11.62 6.65l-.67.22c-.58.11-1.74.31-2.32.41-6.53.61-13.29.89-19.32 3.71-6.01 2.72-10.44 8.1-16.71 10.33-4.78 1.64-10.02 2.01-14.95.85-2.63-.87-5.23-1.84-7.74-3.02-.71-.48-1.4-.97-2.07-1.48-2-1.59-3.98-3.21-5.82-4.98-5.16-4.97-9.09-11-13.93-16.26.06 4.32-.09 8.72-1.41 12.88-2.59 2.93-5.86 5.52-9.82 6.19-2.59.26-5.18.47-7.78.52-11.32-1.18-22.25-5.21-32.09-10.86-9.97-5.58-18.52-15.08-20.16-26.71-1.9-12.04 2.34-23.87 7.23-34.67 1.51-2.68.32-5.66-.05-8.45-1.72-10.13-1.2-21.27 4.5-30.14 4.99-8.05 14.11-12.94 23.48-13.5.74-6.97 2.13-14.07 5.86-20.11 4.72-8.13 13.15-13.72 22.25-15.72m-3.55 3.34c-8.97 3.14-16.95 10.11-19.72 19.4-3.3 8.88-2.7 18.52-2.15 27.79.77 4.32.53 9.43 3.95 12.71-2.06 3.17.79 6.55 1.77 9.61 2.92 8.43 11.32 14.64 20.29 14.56 4.69.96 9.47-.69 12.8-4.05 5.09-4.12 6.74-10.77 8.15-16.85.4-2.39 1.41-4.94.35-7.16 1.87-5.13 1.36-10.68 2.08-16.01 1.81 4.58 1.25 9.95 1.44 14.92-1.26 3.1-.56 6.52-1.35 9.73-1.57 7.22-4.83 14.66-11.03 19.05-6.06 4.73-14.09 1.74-21.07 1.67-1.45 6.03-2.49 12.29-5.31 17.88-1.57 2.67-3.45 5.14-5.06 7.78 4.73 3.77 10.35 6.23 14.99 10.12 9 6.82 14.15 17.15 21.75 25.29 4.72 6.02 10.67 11.3 17.84 14.17 4.99.83 10.3 1.35 15.06-.83 5.18-1.11 8.69-5.3 13.04-7.96 5.15-3.35 11.27-5.02 17.34-5.62 7.66.35 15.54-2.55 20.9-8.09 8.98-8.63 13.71-21.13 13.64-33.46-.58-3.58-.63-7.33-2.3-10.62.09-1.53-.78-2.78-1.35-4.1-3.32 4.9-5.43 10.51-8.98 15.27-6.44 9.08-14.42 17.81-25.02 21.93-5.8 2.14-13.42 1.91-17.68-3.14-4.98-5-6.27-12.32-6.77-19.08.49-18.61 7.6-36.71 18.92-51.39 1.43-1.27.58-3.04-.19-4.39-6.95-11.8-14.19-23.53-23.03-34.03-3.95-4.44-7.94-9.18-13.42-11.78-12.2-6.1-26.86-7.73-39.88-3.32m-49.65 54.57c-3.01 10.76-1.73 22.51 2.42 32.81 1.93 5.06 3.63 10.79 8.45 13.89l-.86-.45c.95 4.94 5.88 7.13 9.72 9.54 3.27 2.22 7.72 1.69 10.97-.29 4.9-2.6 7.08-8.08 8.95-12.98.63-1.99 1.85-4.41.15-6.21 1.71-1.81 2.71-4.19 2.8-6.67-.97-1.59-2.7-2.51-4.02-3.77-4.81-3.96-7.44-9.84-9.34-15.63-3.19-9.59-3.6-19.77-4.4-29.76-11.55-.47-21.9 8.66-24.84 19.52m148.57-16.71c-9.78 3.67-17.46 11.42-23.18 19.95-6.35 9.14-11.27 19.34-13.99 30.15-1.27 5.24-2.38 10.65-1.59 16.05 1.05.39 2.11.75 3.2 1.07-.76.09-2.29.28-3.05.38-1.64 3.75.69 7.38 1.79 10.92 1.79 5.69 7.24 9.74 13.03 10.57 7.01-1.54 13.7-4.84 18.8-9.95 7.23-6.96 13.59-15 17.89-24.11 2.29-4.82 4.72-9.83 4.7-15.28l-.38.69c4.45-7.17 4.62-15.95 4.09-24.11-.36-5.17-2.39-10.31-6-14.06-3.94-4.01-10.31-3.75-15.31-2.27m-149.37 47.36c-3.06 6.27-5.44 12.91-6.9 19.74-.88 4.9-1.47 10.3.79 14.93.23 2.81.37 5.78 1.8 8.31 4.34 7.15 10.83 12.79 18.09 16.86 10.08 5.3 21.11 9.19 32.55 9.76 3.87-.33 8.53-.31 11.03-3.85 3.54-4.36 3.09-10.32 1.73-15.4-.12-1.57-1.54-2.48-2.48-3.54-.49-3.75-3.7-6.24-6.44-8.44-4.81-3.66-9.86-7.02-15.19-9.86-3.36-1.96-7.16.31-10.74-.08-4.51-.67-8.72-2.96-11.87-6.23-5.9-6.27-9.18-14.35-12.37-22.2z"/><path fill="#f6ce84" d="M523.17 777.13c3.07-.51 5.52-2.93 8.71-2.84 6.93-.55 14.23-1.66 20.94.8 5.01 2.31 10.13 5.06 13.31 9.76 6.27 9.06 9.31 20.3 8.5 31.26-1.21-5.82-1.29-11.87-3.22-17.54-3.04-9.21-9.74-17.73-19.23-20.76-10.3-3.18-21.32-.52-31.03 3.38-4.94 1.85-9.22 5.15-14.34 6.55 4.74-4.43 9.69-9.43 16.36-10.61z"/><g fill="#f9b516"><path d="M552.82 775.09c6.18.35 11.59 4.02 16.08 8.03 8.04 7.62 9.93 19.32 10.37 29.88-1.19 6.93-.32 14.34-3.36 20.85-6.37 7.67-16.32 11.12-25.96 12.04-6.55.06-13.13-3.7-16.14-9.57a95.006 95.006 0 0 1-3.57-7.58c-1.24-4.83-.21-9.87-.62-14.78-2.62 4.9-1.01 10.62-1.87 15.88-2.15 6.94-6.83 13-12.8 17.09-2.78 1.51-5.75 2.63-8.29 4.5 11.53 2.25 23.72 6.05 31.58 15.33 6.24 6.7 7.2 16.47 6.51 25.2-1.27 13-10.63 23.91-21.72 30.08-5.82 3.5-12.98 3.45-19.46 2.35-5.66-.92-7.3-7.76-12.63-9.3-7.04-3.03-15.01-1.24-22.1-3.96-10.27-3.62-18.49-11.72-24.16-20.8-3.62-5.68-4.77-12.38-5.53-18.94.23-1.93.68-3.82 1.11-5.7 2.42 2.19 3.3 5.46 4.95 8.21 5.02 8.58 10.99 16.85 19 22.9 5.21 4.37 11.84 7.65 18.82 6.99 6.22.06 10.96-5.15 13.21-10.49 3.9-9.89 2.44-20.8.13-30.88-2.29-8.6-5.82-16.86-10.31-24.53-2.14-3.77-5.54-6.78-7.1-10.87a233 233 0 0 1 22.66-34.43c1.61-1.7 2.82-4.13 5.19-4.85 5.12-1.4 9.4-4.7 14.34-6.55 9.71-3.9 20.73-6.56 31.03-3.38 9.49 3.03 16.19 11.55 19.23 20.76 1.93 5.67 2.01 11.72 3.22 17.54.81-10.96-2.23-22.2-8.5-31.26-3.18-4.7-8.3-7.45-13.31-9.76zm-316.96 3.7c13.02-4.41 27.68-2.78 39.88 3.32 5.48 2.6 9.47 7.34 13.42 11.78 8.84 10.5 16.08 22.23 23.03 34.03.77 1.35 1.62 3.12.19 4.39-11.32 14.68-18.43 32.78-18.92 51.39.5 6.76 1.79 14.08 6.77 19.08 4.26 5.05 11.88 5.28 17.68 3.14 10.6-4.12 18.58-12.85 25.02-21.93 3.55-4.76 5.66-10.37 8.98-15.27.57 1.32 1.44 2.57 1.35 4.1.18 17.29-11.69 33.19-26.98 40.41-7.81 3.98-17.04 1.63-25.02 5.01-4.59 2.15-6.9 7.53-11.88 9.05-8.43 2.9-17.77.25-24.71-4.96-7.74-5.82-14.71-13.72-16.47-23.53-2.17-8.01-.85-16.67 2.49-24.15 6.95-12.42 21.53-17.36 34.66-20.07-1.21-.81-2.15-1.96-3.61-2.36-8.23-2.94-14.01-10.51-16.92-18.51-.19-4.97.37-10.34-1.44-14.92-.72 5.33-.21 10.88-2.08 16.01-3 6.87-8.46 13.31-16.38 14.1-9.84.51-19.93-3.31-26.98-10.21-3.42-3.28-3.18-8.39-3.95-12.71-.55-9.27-1.15-18.91 2.15-27.79 2.77-9.29 10.75-16.26 19.72-19.4z"/><path d="M580.89 810.86c6.82-.92 13.42 2.38 18.05 7.22 8.04 7.6 10.1 19.59 8.6 30.16-.83 8.79-4.14 17.14-8.38 24.82-.73 1.25-1.64 2.48-2.95 3.19-4.75 2.21-10.25 3.72-15.39 1.93-7.18-2.07-11.7-8.44-15.8-14.23-1.05-1.33-1.25-3.01-1.69-4.57 6.91-4.32 11.63-11.46 13.66-19.28 2.79-9.48 3.92-19.38 3.9-29.24m2.06 1.42c1.37 2.17 4.49 1.77 6.34 3.42 9.37 5.57 13.54 16.8 13.71 27.26.37 8.62-2.44 16.84-3.89 25.21 2.38-3.81 3.33-8.26 4.41-12.56 2.09-9.32 2.98-19.44-.68-28.49-3-8.28-11.29-13.92-19.89-14.84zm-136.67.92c4.89-1.16 10.34-.86 14.79 1.64 7.07 3.6 12.41 9.68 17.61 15.52 10.61 14.32 17.85 31.55 18.3 49.55-7.48 1.05-15.31 2.04-22.66-.22-14.82-4.25-26.55-15.51-35.07-27.95-3.11-5.3-3.32-11.77-3.47-17.75.34-7.83 2.64-17.29 10.5-20.79m8.55 3.98c2.77 2.35 6.29 3.56 9.09 5.91 10.45 8.39 17.83 20.1 22.43 32.59 2.19 5.31 2.96 11.1 5.4 16.33-.46-13.83-5.3-27.44-12.82-38.99-5.75-7.79-13.89-15.49-24.1-15.84zm-268.62 16.18c2.94-10.86 13.29-19.99 24.84-19.52.8 9.99 1.21 20.17 4.4 29.76 1.9 5.79 4.53 11.67 9.34 15.63 1.32 1.26 3.05 2.18 4.02 3.77-.09 2.48-1.09 4.86-2.8 6.67-4.37 5.13-9.21 10.79-16.19 12.06-4.33.95-8.67-.21-12.74-1.67-4.82-3.1-6.52-8.83-8.45-13.89-4.15-10.3-5.43-22.05-2.42-32.81zm148.57-16.71c5-1.48 11.37-1.74 15.31 2.27 3.61 3.75 5.64 8.89 6 14.06.53 8.16.36 16.94-4.09 24.11-3.15 3.17-5.69 6.89-8.8 10.11-7.43 7.46-16.64 13.29-26.82 16.13-5.66 1.07-11.45.26-17.16.54-1.09-.32-2.15-.68-3.2-1.07-.79-5.4.32-10.81 1.59-16.05 2.72-10.81 7.64-21.01 13.99-30.15 5.72-8.53 13.4-16.28 23.18-19.95z"/><path d="M588.57 887.5c9.92-5.33 13.57-16.56 18.4-25.96 3.25 5.49 5.16 11.63 6.66 17.79 1.05 4.7 1.58 9.71.21 14.42-4.34 8.38-11.52 14.93-19.82 19.28-9.67 5.32-20.16 9.32-31.13 10.8-3.51.5-7.37-.23-10.02-2.68-2.69-3.01-2.93-7.31-2.33-11.1.27-2.77.21-5.99 2.62-7.87 6.13-5.44 13.05-10.13 20.5-13.56 4.93-.57 10.27 1.53 14.91-1.12zm-403.16-23.49c3.19 7.85 6.47 15.93 12.37 22.2 3.15 3.27 7.36 5.56 11.87 6.23 3.58.39 7.38-1.88 10.74.08 5.33 2.84 10.38 6.2 15.19 9.86 2.74 2.2 5.95 4.69 6.44 8.44-.31 4.48 1.02 10.07-2.66 13.51-3.74 3.3-9.22 3.06-13.79 2.07-11.74-2.6-23.09-7.22-33.17-13.8-5.51-3.43-9.32-8.78-13.1-13.92-2.26-4.63-1.67-10.03-.79-14.93 1.46-6.83 3.84-13.47 6.9-19.74z"/></g><path fill="#f8d18d" d="M582.95 812.28c8.6.92 16.89 6.56 19.89 14.84 3.66 9.05 2.77 19.17.68 28.49-1.08 4.3-2.03 8.75-4.41 12.56 1.45-8.37 4.26-16.59 3.89-25.21-.17-10.46-4.34-21.69-13.71-27.26-1.85-1.65-4.97-1.25-6.34-3.42z"/><path fill="#f6d083" d="M454.83 817.18c10.21.35 18.35 8.05 24.1 15.84 7.52 11.55 12.36 25.16 12.82 38.99-2.44-5.23-3.21-11.02-5.4-16.33-4.6-12.49-11.98-24.2-22.43-32.59-2.8-2.35-6.32-3.56-9.09-5.91z"/><g fill="#f58b01"><path d="M530.24 828.74c1.08 2.57 2.26 5.1 3.57 7.58 3.01 5.87 9.59 9.63 16.14 9.57 9.64-.92 19.59-4.37 25.96-12.04-.72 9.25-5.36 18.69-13.57 23.45-5.5 2.11-11.75 4.19-17.53 1.9-5.09-1.43-8.2-6.08-10.48-10.52-3.05-6.19-3.63-13.16-4.09-19.94zm-266.77 14.7c.79-3.21.09-6.63 1.35-9.73 2.91 8 8.69 15.57 16.92 18.51 1.46.4 2.4 1.55 3.61 2.36-13.13 2.71-27.71 7.65-34.66 20.07-3.34 7.48-4.66 16.14-2.49 24.15 1.76 9.81 8.73 17.71 16.47 23.53 6.94 5.21 16.28 7.86 24.71 4.96 4.98-1.52 7.29-6.9 11.88-9.05 7.98-3.38 17.21-1.03 25.02-5.01 15.29-7.22 27.16-23.12 26.98-40.41 1.67 3.29 1.72 7.04 2.3 10.62.07 12.33-4.66 24.83-13.64 33.46-5.36 5.54-13.24 8.44-20.9 8.09-6.07.6-12.19 2.27-17.34 5.62-4.35 2.66-7.86 6.85-13.04 7.96-4.76 2.18-10.07 1.66-15.06.83-7.17-2.87-13.12-8.15-17.84-14.17-7.6-8.14-12.75-18.47-21.75-25.29-4.64-3.89-10.26-6.35-14.99-10.12 1.61-2.64 3.49-5.11 5.06-7.78 2.82-5.59 3.86-11.85 5.31-17.88 6.98.07 15.01 3.06 21.07-1.67 6.2-4.39 9.46-11.83 11.03-19.05zm175.78 8.3c8.52 12.44 20.25 23.7 35.07 27.95 7.35 2.26 15.18 1.27 22.66.22-.73 6.73-1.78 14.18-7.14 18.95-4.28 4.16-11.1 4.11-16.17 1.47-7.67-3.85-14.53-9.51-19.44-16.58-7.01-9.51-13.27-20.15-14.98-32.01z"/><path d="M343.2 867.2c3.11-3.22 5.65-6.94 8.8-10.11l.38-.69c.02 5.45-2.41 10.46-4.7 15.28-4.3 9.11-10.66 17.15-17.89 24.11-5.1 5.11-11.79 8.41-18.8 9.95-5.79-.83-11.24-4.88-13.03-10.57-1.1-3.54-3.43-7.17-1.79-10.92.76-.1 2.29-.29 3.05-.38 5.71-.28 11.5.53 17.16-.54 10.18-2.84 19.39-8.67 26.82-16.13z"/></g><path fill="#f48b01" d="M514.95 846.93c5.97-4.09 10.65-10.15 12.8-17.09.06 3.97.37 7.98 1.81 11.73 1.43 6.05 3.93 12.06 8.31 16.57 6.15 5.21 14.69 4.22 22.04 2.86 2.45.3 1.88 3.79 2.61 5.58.95 7.55 5.01 13.98 8.81 20.36-5.65 4.23-12.15 7.24-17.53 11.86-5.17 4.28-8.3 10.33-12.62 15.36-5.93 8.28-12.71 16.29-21.87 21.1-6.13 2.53-13.33 2.83-19.3-.33-6.34-3.58-11.84-8.77-18.86-11.06-8.58-2.37-18.28-.85-25.99-6-14.89-10.29-21.48-30.69-16.66-47.9.16.35.49 1.06.65 1.42.76 6.56 1.91 13.26 5.53 18.94 5.67 9.08 13.89 17.18 24.16 20.8 7.09 2.72 15.06.93 22.1 3.96 5.33 1.54 6.97 8.38 12.63 9.3 6.48 1.1 13.64 1.15 19.46-2.35 11.09-6.17 20.45-17.08 21.72-30.08.69-8.73-.27-18.5-6.51-25.2-7.86-9.28-20.05-13.08-31.58-15.33 2.54-1.87 5.51-2.99 8.29-4.5z"/><path d="M261.3 834.8c1.06 2.22.05 4.77-.35 7.16-1.41 6.08-3.06 12.73-8.15 16.85-3.33 3.36-8.11 5.01-12.8 4.05-8.97.08-17.37-6.13-20.29-14.56-.98-3.06-3.83-6.44-1.77-9.61 7.05 6.9 17.14 10.72 26.98 10.21 7.92-.79 13.38-7.23 16.38-14.1zm332.72 78.23c8.3-4.35 15.48-10.9 19.82-19.28-.88 8.49-5.19 16.92-12.51 21.6-11.09 8.74-24.89 13.43-38.78 15.22-5.46.43-12.03-1.21-14.46-6.66-1.87-5.08-1.53-10.95.82-15.81l.88.22c.09.36.28 1.06.38 1.41l.37.32c-.6 3.79-.36 8.09 2.33 11.1 2.65 2.45 6.51 3.18 10.02 2.68 10.97-1.48 21.46-5.48 31.13-10.8z" fill="#f48a00"/><path d="M353.76 864.08c1.45-.99 2.84-2.08 4.28-3.07 8.34 4.33 16.55 8.89 25.03 12.95-.3 5.64-.37 11.29-.28 16.94-2.89-1.39-5.84-2.63-8.77-3.92-5.65-2.47-10.63-6.16-16.08-9.01-.01.55-.04 1.64-.05 2.18-.79-3.1-1.79-6.15-2.92-9.13-.79-2.22-1.93-4.55-1.21-6.94zm60.05 9.76c8.55-2.36 16.36-6.67 24.64-9.74-.99 3.33-2.3 6.56-3.33 9.89-4.72 2.49-8.67 6.2-13.46 8.58-2.16.96-3.93 2.52-5.85 3.85-.71.18-1.43.33-2.16.43-8.96 3.38-18.9 6.42-28.49 4.19.16-5.19.63-10.38 1.79-15.44 8.86 2.46 18.19.6 26.86-1.76z" fill="#cf9c67"/><path d="M565.02 863.95c4.1 5.79 8.62 12.16 15.8 14.23 5.14 1.79 10.64.28 15.39-1.93-2.56 7.76-11.74 12.93-19.6 10.15-5.14-1.75-7.59-6.99-9.39-11.68-1.38-3.43-2.35-7.05-2.2-10.77zm-355.2 17.78c6.98-1.27 11.82-6.93 16.19-12.06 1.7 1.8.48 4.22-.15 6.21-1.87 4.9-4.05 10.38-8.95 12.98-3.25 1.98-7.7 2.51-10.97.29-3.84-2.41-8.77-4.6-9.72-9.54l.86.45c4.07 1.46 8.41 2.62 12.74 1.67zm-30.52 16.95c3.78 5.14 7.59 10.49 13.1 13.92 10.08 6.58 21.43 11.2 33.17 13.8 4.57.99 10.05 1.23 13.79-2.07 3.68-3.44 2.35-9.03 2.66-13.51.94 1.06 2.36 1.97 2.48 3.54 1.36 5.08 1.81 11.04-1.73 15.4-2.5 3.54-7.16 3.52-11.03 3.85-11.44-.57-22.47-4.46-32.55-9.76-7.26-4.07-13.75-9.71-18.09-16.86-1.43-2.53-1.57-5.5-1.8-8.31z" fill="#f48b00"/><path fill="#b27d44" d="M383.07 873.96c1.27.58 2.56 1.14 3.88 1.64-1.16 5.06-1.63 10.25-1.79 15.44.17 8.31 0 16.63.52 24.94.3 8.26.08 16.57 1.48 24.76-.15 5.14.22 10.27.84 15.38-.51-.31-1.53-.91-2.04-1.22-.15-.74-.44-2.23-.59-2.97-3.2 12.67-7.22 25.62-15.47 35.99-4.93 6.37-12.7 10.81-20.9 10.47-7.05.22-14.11-3.61-17.49-9.84-5.37-9.6-5.87-20.93-6.01-31.68a73.76 73.76 0 0 0-3.15 4.49c-6.61 10.92-14.46 21.56-25.19 28.74-6.62 4.52-15.27 6.41-22.98 3.74-4.76-1.59-7.77-6.17-9.01-10.83-3.02-11.15-1.3-22.76-.19-34.04-5.55 6.98-10.92 15.05-19.63 18.32-6.15 2.33-14.83.69-17.45-5.99-2.65-8.4-.28-17.19.49-25.69 2.6-.05 5.19-.26 7.78-.52-1.98.46-3.98.79-5.97 1.2-1.06 7.66-2.33 15.53-.8 23.21 1.21 5.45 7.65 7.41 12.57 6.53 7.41-1.36 12.76-7.21 17.35-12.74 3.71-4.67 7.58-9.83 7.83-16.03.67.51 1.36 1 2.07 1.48-2.18 8.91-3.93 18.04-3.58 27.27-.06 7.91-.64 17 4.97 23.37 4.68 4.07 11.73 4.6 17.49 2.8 8.49-2.49 14.96-8.95 20.72-15.36 6.12-7.15 11.18-15.17 15.61-23.46 1.68-2.88 1.6-6.28 1.65-9.5.26-5.7 1.33-11.32 1.86-16.99.58-.1 1.74-.3 2.32-.41-1.29 10.13-2.89 20.29-2.46 30.54-.28 8.99.26 18.19 3.49 26.67 2.04 5.16 5.99 9.84 11.3 11.77 7.3 2.25 15.65.54 21.48-4.4 7.66-6.41 11.87-15.83 14.96-25.11 2.66-8.81 6.21-17.74 5.02-27.12-.11-4.2-.16-8.4-.5-12.57-1.05-11.76-.28-23.57-.76-35.34-.09-5.65-.02-11.3.28-16.94z"/><path fill="#b48149" d="M413.65 886.85c.73-.1 1.45-.25 2.16-.43 2.76 17.01 5.4 34.08 10.12 50.68.62 8.82 3.56 17.22 6.22 25.58 2.88 9.23 6.42 18.36 11.63 26.56 3.1 4.21 6.9 8.96 12.47 9.57 5.88.27 11.21-3.65 13.78-8.76 4.86-9.19 5.98-19.84 6.3-30.08.36-4.76-1.8-9.07-3.82-13.2-3.38-7.46-5.69-15.32-8.47-22.99.69.02 2.08.05 2.78.07 3.98 13.9 9.43 27.39 16.09 40.22 4.46 7.56 9.09 15.6 16.67 20.44 4.82 3.17 11.54 3.99 16.51.69 5.26-3.43 7.17-9.89 8.43-15.7 2.02-11.46 2.21-23.38-.24-34.77.89-.55 1.76-1.12 2.64-1.68.42 4.29.85 8.59.83 12.91-.08 9.01.56 18.18-1.81 26.98-1.47 5.89-4.55 11.89-10.09 14.87-6.12 3.02-13.83 1.64-19-2.65-8.35-6.17-13.02-15.64-18.3-24.27-.5 7.28-1.11 14.64-3.21 21.67-1.84 6.28-4.93 12.66-10.68 16.22-3.16 2.94-7.76 2.08-11.68 1.92-5.45-3.26-9.9-8.14-13.06-13.63-3.44-5.73-5.42-12.15-8.27-18.16-1.16 11.72-4.1 24.85-14.61 31.77-4.68.41-9.39.07-14.08-.01-.65-1.18-1.25-2.36-1.96-3.47l-.52-.73c4.53 2.56 10.03 4.07 15.12 2.28 5.14-2.48 8.39-7.67 10.32-12.87 2.13-6.21 3.19-12.75 3.79-19.27.52-5.57-2.13-10.67-3.74-15.83-5.19-21.09-9.61-42.38-12.32-63.93z"/><path fill="#e5c8a2" d="M247.4 916.02c4.84 5.26 8.77 11.29 13.93 16.26-5.42 2.06-10.75-.66-15.34-3.38 1.32-4.16 1.47-8.56 1.41-12.88z"/><path d="M466.82 923.85c3.15 0 6.34.13 9.44.79-1.8.01-3.59.1-5.38.21 4.36 9.07 9.95 18.2 18.75 23.55 5.38 3.54 12.52 4.05 18.47 1.72 4.82-2.07 7.77-6.71 9.95-11.25-.79-.01-2.38-.04-3.17-.05 3.27-1.01 6.42-2.4 9.4-4.09 2.45 11.39 2.26 23.31.24 34.77-1.26 5.81-3.17 12.27-8.43 15.7-4.97 3.3-11.69 2.48-16.51-.69-7.58-4.84-12.21-12.88-16.67-20.44-6.66-12.83-12.11-26.32-16.09-40.22zm-136.56 2.61.67-.22c.63 8.62 2.29 17.93 8.25 24.58 4.43 5 11.45 6.36 17.84 6.15 5.91.26 11.74-1.96 16.28-5.69 4.38-3.44 6.7-8.71 10.75-12.47 1.19 9.38-2.36 18.31-5.02 27.12-3.09 9.28-7.3 18.7-14.96 25.11-5.83 4.94-14.18 6.65-21.48 4.4-5.31-1.93-9.26-6.61-11.3-11.77-3.23-8.48-3.77-17.68-3.49-26.67-.43-10.25 1.17-20.41 2.46-30.54zm-94.09 8.63c3.96-.67 7.23-3.26 9.82-6.19 4.59 2.72 9.92 5.44 15.34 3.38 1.84 1.77 3.82 3.39 5.82 4.98-.25 6.2-4.12 11.36-7.83 16.03-4.59 5.53-9.94 11.38-17.35 12.74-4.92.88-11.36-1.08-12.57-6.53-1.53-7.68-.26-15.55.8-23.21 1.99-.41 3.99-.74 5.97-1.2zm189.76 2.01c1.6 2.5 3.13 5.06 4.19 7.86 2.91 7.39 6.56 14.96 12.93 20 4.13 3.37 10.11 3.82 15.01 2.05 7.91-3.8 12.42-12.01 14.45-20.24 2.02 4.13 4.18 8.44 3.82 13.2-.32 10.24-1.44 20.89-6.3 30.08-2.57 5.11-7.9 9.03-13.78 8.76-5.57-.61-9.37-5.36-12.47-9.57-5.21-8.2-8.75-17.33-11.63-26.56-2.66-8.36-5.6-16.76-6.22-25.58zm-156.71 1.64c2.51 1.18 5.11 2.15 7.74 3.02-1.27 4.23 1.04 8.51 3.33 11.96 5.47 6.39 14.74 6.84 22.51 5.93 9.67-1.79 16.46-9.36 23.28-15.79-.05 3.22.03 6.62-1.65 9.5-4.43 8.29-9.49 16.31-15.61 23.46-5.76 6.41-12.23 12.87-20.72 15.36-5.76 1.8-12.81 1.27-17.49-2.8-5.61-6.37-5.03-15.46-4.97-23.37-.35-9.23 1.4-18.36 3.58-27.27zm117.94 2c3.01 5.99 4.55 12.86 9.08 18 3.74 4.39 10.24 6.47 15.69 4.16 6.24-1.86 10-7.45 14.04-12.12 1.61 5.16 4.26 10.26 3.74 15.83-.6 6.52-1.66 13.06-3.79 19.27-1.93 5.2-5.18 10.39-10.32 12.87-5.09 1.79-10.59.28-15.12-2.28-1.73-3.58-4.09-6.84-5.52-10.56-3.97-9.47-5.75-19.66-6.96-29.79-.62-5.11-.99-10.24-.84-15.38z" fill="#ddaa71"/><path fill="#e5c7a1" d="M470.88 924.85c1.79-.11 3.58-.2 5.38-.21 4.78.96 9.35 2.94 13.31 5.8 3.75 2.67 7.3 5.85 11.8 7.22 4.33 1.51 8.99 1.37 13.51 1.16.79.01 2.38.04 3.17.05-2.18 4.54-5.13 9.18-9.95 11.25-5.95 2.33-13.09 1.82-18.47-1.72-8.8-5.35-14.39-14.48-18.75-23.55z"/><path fill="#92572c" opacity=".87" d="M385.96 954.9c.51.31 1.53.91 2.04 1.22 1.21 10.13 2.99 20.32 6.96 29.79 1.43 3.72 3.79 6.98 5.52 10.56l.52.73c-2.33-1.74-4.27-3.97-5.5-6.61-5.39-11.19-7.54-23.53-9.54-35.69z"/></svg>