<svg version="1.1" id="svg4965" xmlns="http://www.w3.org/2000/svg" x="0" y="0" viewBox="0 0 400 100" style="enable-background:new 0 0 400 100" xml:space="preserve"><style>.st0{fill:#adabac}</style><g id="layer1" transform="translate(-297.988 -472.7)"><g id="g4940" transform="matrix(2.46629 0 0 -2.46629 -772.507 719.187)"><path id="path1274" class="st0" d="m456.5 67.4-.1-.1c-1.8-1.8-3.9-2.8-6.1-2.8-4.5 0-7.8 3.4-7.8 8 0 4.7 3.3 8 7.8 8 2.2 0 4.2-1 6.1-2.8l.1-.1 2.9 3.5-.1.1c-2.4 2.8-5.3 4.2-8.8 4.2-3.6 0-6.8-1.2-9.2-3.4-2.6-2.3-3.9-5.6-3.9-9.6 0-3.9 1.3-7.2 3.9-9.6 2.3-2.2 5.6-3.4 9.2-3.4s6.4 1.4 8.8 4.2l.1.1-2.9 3.7z"/><path id="path1276" class="st0" d="M462.3 60h5.1v25h-5.1V60z"/><path id="path1278" class="st0" d="M487.5 65.5c-1.4-.8-2.6-1.2-3.8-1.2-1.7 0-2.4.9-2.4 2.8v13.3h5.2v4.7h-5.2v7.8l-5-2.7v-5.1H472v-4.7h4.3V66.2c0-3.8 2.3-6.5 5.7-6.5 2.3 0 3.7.6 4.5 1.1l1.2 4.8-.2-.1z"/><path id="path1280" class="st0" d="M491.7 60h5.1v25h-5.1V60z"/><path id="path1282" class="st0" d="M578.4 94.5V70.7l1.6 2.5 8.1 11.7h3.2c-.7-.9-6.3-8.7-6.3-8.7s7.3-15.3 7.8-16.2h-3.1c-.2.4-6.5 13.7-6.5 13.7l-4.7-6.6V60h-2.9v32.8c.1.2 2.1 1.3 2.8 1.7zm-24-12.6c1.5 2.3 3.9 3.5 6.6 3.5 5.5 0 8.4-3.5 8.4-10.2V60h-2.9v14.6c0 5.7-2 8.3-6.2 8.3-4.1 0-6.5-3.1-6.5-8.3V60h-2.9v24.8h2.9V81l.6.9zm-17.9 3.5c5.7 0 8.4-2.6 8.4-7.9V60H542v3.6l-.6-.6c-2.1-2.4-4.6-3.5-7.6-3.5-2.3 0-7.7.8-7.7 7.8 0 5.8 4.8 7.8 9.2 7.8 2.2 0 4.5-.5 6.1-1.4l.5-.3V77c0 4-1.9 6-5.7 6-2.3 0-4.5-.6-6.6-1.8-.2.4-.9 1.9-1.1 2.4 2.3 1.1 5.1 1.8 8 1.8zm-7.4-17.8c0-3.7 1.9-5.8 5.4-5.8 3 0 5.6 1.4 7.4 4l.1.1v5.4l-.2.1c-1.9 1.1-3.8 1.5-6.6 1.5-3.8 0-6.1-2-6.1-5.3zm-22.6 26.9V81.2l.6.6c2.1 2.4 4.5 3.5 7.3 3.5 5.5 0 8.6-4.6 8.6-12.5 0-8.1-3.6-13.4-9.1-13.4-2.7 0-4.8 1-6.8 3.3l-.6.7V60h-2.9v32.8c.2.2 2.2 1.3 2.9 1.7zm.1-15.4-.1-13 .1-.1c1.6-2.5 4.2-4 7-4 4.3 0 6.5 3.6 6.5 10.8 0 6.4-2.4 10.1-6.6 10.1-2.6 0-4.9-1.3-6.9-3.8"/><path id="path1284" class="st0" d="M499.9 89.4c-4.7 6.6-12.5 10.6-20.4 10.6s-15.7-4-20.4-10.6l-.2-.3h5.9l.1.1c4 4.1 9.2 6.3 14.6 6.3s10.6-2.2 14.6-6.3l.1-.1h5.9l-.2.3z"/></g></g></svg>