<svg class="icon" viewBox="0 0 1118 1024" xmlns="http://www.w3.org/2000/svg" width="218.359" height="200"><defs><style>@font-face{font-family:feedback-iconfont;src:url(//at.alicdn.com/t/font_1031158_u69w8yhxdu.woff2?t=1630033759944) format(&quot;woff2&quot;),url(//at.alicdn.com/t/font_1031158_u69w8yhxdu.woff?t=1630033759944) format(&quot;woff&quot;),url(//at.alicdn.com/t/font_1031158_u69w8yhxdu.ttf?t=1630033759944) format(&quot;truetype&quot;)}</style></defs><path d="M612.18 296.073c-36.41 20.735-49.115 67.061-28.375 103.471 20.74 36.405 67.066 49.104 103.471 28.37 36.41-20.74 49.115-67.067 28.38-103.477-20.74-36.405-67.072-49.11-103.476-28.37m-72.8-128.817c-25.731 14.663-34.718 47.412-20.05 73.149 14.653 25.737 47.412 34.718 73.144 20.055 25.742-14.663 34.718-47.412 20.06-73.149-14.662-25.737-47.411-34.724-73.148-20.055m-.006 598.474c-25.731 14.663-34.718 47.411-20.05 73.148 14.653 25.743 47.412 34.725 73.144 20.056 25.742-14.658 34.718-47.412 20.06-73.149-14.662-25.737-47.411-34.713-73.148-20.055M797.391 315.39c-25.737 14.663-34.719 47.411-20.056 73.148a53.628 53.628 0 0 0 73.15 20.056c25.736-14.658 34.723-47.412 20.055-73.149-14.664-25.737-47.412-34.713-73.15-20.055M276.05 615.069c-25.737 14.668-34.718 47.412-20.055 73.149 14.663 25.742 47.412 34.724 73.149 20.055 25.737-14.658 34.724-47.412 20.055-73.149-14.663-25.731-47.412-34.707-73.149-20.05m-3.545-299.684c-25.737 14.663-34.718 47.411-20.055 73.148a53.628 53.628 0 0 0 73.149 20.056c25.737-14.658 34.718-47.412 20.055-73.149s-47.411-34.713-73.149-20.055m524.886 296.134c-25.737 14.663-34.719 47.412-20.056 73.149s47.412 34.724 73.15 20.055c25.736-14.663 34.723-47.412 20.055-73.149-14.664-25.737-47.412-34.718-73.15-20.055m135.78-137.11a42.637 42.637 0 1 0 42.215 74.095 42.637 42.637 0 0 0-42.214-74.095m-785.556 0a42.632 42.632 0 0 0-15.943 58.152 42.637 42.637 0 1 0 15.943-58.152M719.53 173.025a42.637 42.637 0 1 0 85.263 1.57 42.637 42.637 0 0 0-85.263-1.57M318.204 848.332a42.637 42.637 0 1 0 85.264 1.569 42.637 42.637 0 0 0-85.264-1.57m23.562-638.918a42.637 42.637 0 1 0-15.62-58.235 42.637 42.637 0 0 0 15.62 58.235m396.84 677.955a42.637 42.637 0 0 0 58.24-15.62 42.626 42.626 0 0 0-15.614-58.235 42.637 42.637 0 0 0-42.626 73.855M699.068 447.83c-36.405 20.74-49.11 67.066-28.37 103.471 20.74 36.41 67.067 49.11 103.477 28.37 36.405-20.74 49.104-67.056 28.37-103.472-20.74-36.405-67.072-49.109-103.477-28.37M612.18 599.593c-36.41 20.74-49.115 67.067-28.375 103.471 20.74 36.41 67.066 49.11 103.471 28.37 36.41-20.735 49.115-67.061 28.38-103.472-20.74-36.404-67.072-49.109-103.476-28.369m-101.335-303.52c36.4 20.735 49.104 67.061 28.37 103.471-20.74 36.405-67.073 49.104-103.477 28.37-36.41-20.74-49.11-67.067-28.37-103.477 20.74-36.405 67.067-49.11 103.472-28.37M423.952 447.83c36.404 20.74 49.109 67.066 28.369 103.471-20.735 36.41-67.067 49.11-103.472 28.37-36.41-20.74-49.109-67.056-28.369-103.472 20.735-36.405 67.067-49.109 103.472-28.37m86.893 151.763c36.4 20.74 49.104 67.067 28.37 103.471-20.74 36.41-67.073 49.11-103.477 28.37-36.41-20.735-49.11-67.061-28.37-103.472 20.74-36.404 67.067-49.109 103.472-28.369m83.55-565.864a33.69 33.69 0 1 1-67.39 0 33.695 33.695 0 1 1 67.39 0m0 953.133a33.69 33.69 0 1 1-67.39 0 33.69 33.69 0 0 1 67.39 0M163.347 245.028a33.695 33.695 0 1 1-33.377 58.541 33.695 33.695 0 0 1 33.377-58.541m828.065 471.986a33.695 33.695 0 1 1-33.378 58.542 33.695 33.695 0 0 1 33.378-58.542m-861.531-.217a33.695 33.695 0 1 1 33.333 58.558 33.695 33.695 0 0 1-33.333-58.558m828.292-471.569a33.695 33.695 0 1 1 33.339 58.558 33.695 33.695 0 0 1-33.333-58.558M320.43 55.008a27.495 27.495 0 1 1-55.002 0 27.495 27.495 0 0 1 55.002 0m537.128 911.458a27.49 27.49 0 1 1-54.997 0 27.501 27.501 0 0 1 54.997 0M842.31 78.369a27.501 27.501 0 1 1-26.766-48.052 27.501 27.501 0 0 1 26.766 48.052M307.448 991.15a27.501 27.501 0 1 1-26.768-48.05 27.501 27.501 0 0 1 26.767 48.058m769.128-458.108a27.495 27.495 0 1 1 27.79-47.457 27.495 27.495 0 0 1-27.79 47.457M18.626 535.88a27.501 27.501 0 1 1 27.8-47.462 27.501 27.501 0 0 1-27.8 47.468"/></svg>