<svg class="icon" viewBox="0 0 1024 1024" xmlns="http://www.w3.org/2000/svg" width="200" height="200"><defs><style>@font-face{font-family:feedback-iconfont;src:url(//at.alicdn.com/t/font_1031158_u69w8yhxdu.woff2?t=1630033759944) format(&quot;woff2&quot;),url(//at.alicdn.com/t/font_1031158_u69w8yhxdu.woff?t=1630033759944) format(&quot;woff&quot;),url(//at.alicdn.com/t/font_1031158_u69w8yhxdu.ttf?t=1630033759944) format(&quot;truetype&quot;)}</style></defs><path d="M510.058 1020.853c-244.434 0-443.29-198.856-443.29-443.29 0-244.43 198.856-443.29 443.29-443.29 244.43 0 443.29 198.86 443.29 443.29 0 244.434-198.86 443.29-443.29 443.29" fill="#74C4EE"/><path d="M510.058 161.424c-229.46 0-416.143 186.683-416.143 416.139 0 229.46 186.683 416.143 416.143 416.143 229.46 0 416.139-186.683 416.139-416.143 0-229.456-186.678-416.139-416.139-416.139" fill="#FFF"/><path d="M470.89 675.361a85.555 85.555 0 0 0 31.087 12.878v202.034c-66.582-3.813-127.149-30.41-173.902-72.088l142.814-142.828z" fill="#0D568D"/><path d="m566.955 675.361 142.819 142.824c-46.758 41.678-107.325 68.275-173.907 72.088V688.239a85.555 85.555 0 0 0 31.088-12.878m36.85-55.06h202.03c-3.812 66.581-30.41 127.064-72.088 173.822l-142.824-142.82a85.13 85.13 0 0 0 12.878-31.003" fill="#1B7EAD"/><path d="M434.043 620.3a85.13 85.13 0 0 0 12.878 31.004l-142.828 142.82c-41.674-46.76-68.272-107.242-72.084-173.824h202.034z" fill="#0D568D"/><path d="m709.774 388.53-142.82 142.828a84.119 84.119 0 0 0-31.087-12.882V316.358c66.582 3.813 127.149 30.41 173.907 72.172" fill="#74C4EE"/><path d="M805.835 586.415h-202.03a86.136 86.136 0 0 0-12.877-31.088L733.756 412.5c41.674 46.767 68.27 107.25 72.083 173.916" fill="#4CA1D6"/><path d="M487.872 508.972v.288l-.19-.195c.097-.093.19-.093.19-.093" fill="#103D54"/><path d="M446.92 555.327a86.171 86.171 0 0 0-12.877 31.088H232.009V339.65l214.907 215.674zm55.062-238.969v202.118c-4.912.931-9.74 2.372-14.407 4.15 0 0-.08 0-.164.088a79.083 79.083 0 0 0-16.353 8.551L232.009 292.217V3.693l269.973 312.665z" fill="#024E7B"/><path d="M487.872 508.972v.288l-.19-.195c.097-.093.19-.093.19-.093" fill="#525252"/></svg>