<svg class="icon" viewBox="0 0 1024 1024" xmlns="http://www.w3.org/2000/svg" width="200" height="200"><defs><style>@font-face{font-family:feedback-iconfont;src:url(//at.alicdn.com/t/font_1031158_u69w8yhxdu.woff2?t=1630033759944) format(&quot;woff2&quot;),url(//at.alicdn.com/t/font_1031158_u69w8yhxdu.woff?t=1630033759944) format(&quot;woff&quot;),url(//at.alicdn.com/t/font_1031158_u69w8yhxdu.ttf?t=1630033759944) format(&quot;truetype&quot;)}</style></defs><path d="M1019.211 512.942c0 281.361-228.092 509.453-509.453 509.453-281.37 0-509.452-228.092-509.452-509.453C.306 231.577 228.388 3.49 509.758 3.49c281.361 0 509.453 228.087 509.453 509.452" fill="#F4F4F4"/><path d="m495.392 725.787 43.466 37.888H377.581c-111.56 0-201.998-90.433-201.998-201.998a200.98 200.98 0 0 1 23.333-94.32 202.732 202.732 0 0 1 59.657-68.914 201.59 201.59 0 0 1 44.261-24.484l-16.379-14.275-1.238-1.08L174.64 262.21h145.892L431.12 358.6l12.818 11.182-.463.892c.84.285 1.67.586 2.5.891l93.985 81.92H377.596c-15.961 0-31.127 3.46-44.78 9.67a108.488 108.488 0 0 0-59.388 69.158 108.412 108.412 0 0 0-4.024 29.365c0 4.503.275 8.946.805 13.312 6.566 53.477 52.142 94.89 107.387 94.89h53.656l64.14 55.908z" fill="#226DFF"/><path d="M895.822 763.675H749.925l-107.607-93.796-4.835-4.213-63.732-55.56-40.288-35.112h88.288c16.405 0 31.969-3.653 45.902-10.205 28.962-13.587 50.92-39.63 58.964-71.241a108.697 108.697 0 0 0 3.327-26.747c0-4.508-.28-8.95-.81-13.317-6.562-53.472-52.138-94.88-107.383-94.88H571.8l-67.085-58.48-43.497-37.914H622.56c111.555 0 201.998 90.438 201.998 201.988a200.99 200.99 0 0 1-23.363 94.36 202.818 202.818 0 0 1-60.747 69.694l4.335 3.77L895.822 763.67z" fill="#1BD9A2"/></svg>