<svg class="icon" viewBox="0 0 1024 1024" xmlns="http://www.w3.org/2000/svg" width="200" height="200"><defs><style>@font-face{font-family:feedback-iconfont;src:url(//at.alicdn.com/t/font_1031158_u69w8yhxdu.woff2?t=1630033759944) format(&quot;woff2&quot;),url(//at.alicdn.com/t/font_1031158_u69w8yhxdu.woff?t=1630033759944) format(&quot;woff&quot;),url(//at.alicdn.com/t/font_1031158_u69w8yhxdu.ttf?t=1630033759944) format(&quot;truetype&quot;)}</style></defs><path d="M873.075 160.233c26.43 11.794 45.402 47.415 42.84 73.891-3.337 34.393-20.684 62.102-40.42 88.579-53.697 72.021-123.308 126.808-196.099 177.738-73.524 51.45-151.68 95.252-233.533 131.78-45.24 20.18-92.13 37.078-139.254 52.448a875.459 875.459 0 0 1-114.494 28.855c-34.52 6.292-70.09 9.125-105.06 1.3-20.643-4.616-41.214-11.433-53.569-30.308-6.23-9.512-9.807-20.913-13.628-31.795-2.659-7.56-3.688-15.691-6.021-26.13 12.37 11.488 20.317 22.294 30.99 27.923 13.72 7.24 29.548 14.117 44.602 14.428 33.772.688 68.45 1.223 101.27-5.487 49.228-10.051 98.324-23.246 145.443-40.629 131.337-48.464 253.3-115.11 364.992-199.726 50.319-38.127 97.469-79.994 136.656-130.017 18.045-23.032 34.256-47.67 41.19-76.005 3.438-14.071-1.631-30.257-3.058-45.469-.305-3.204-1.553-6.327-2.852-11.376" fill="#3C7CA8"/><path d="M790.09 91.442c34.505 12.165 65.949 44.867 55.602 82.526-13.756 50.08-45.214 87.794-79.811 123.415-67.442 69.448-146.27 124.148-229.274 173.224-58.5 34.582-119.243 64.802-182.165 90.178-36.375 14.672-74.482 25.025-111.708 37.598-39.875 13.46-81.161 19.756-122.84 22.696-27.413 1.93-54.69-.673-80.554-12.278-24.683-11.075-36.487-30.093-37.868-56.31a137.736 137.736 0 0 1 1.529-29.252c8.727 21.106 23.883 34.994 44.164 42.38 30.109 10.97 61.216 15.962 93.357 10.71 17.485-2.864 35.168-4.759 52.449-8.529 20.413-4.457 40.919-9.241 60.599-16.114 29.09-10.168 57.66-21.921 86.169-33.69 73.921-30.526 143.202-69.815 210.037-113.455 66.448-43.39 129.727-90.902 184.9-148.322 26.665-27.755 52.23-56.626 65.817-93.612 8.33-22.69 11.147-45.117-7.698-64.777-1.136-1.192-2.068-2.593-3.006-3.958-.173-.255.082-.805.3-2.43" fill="#D87E3A"/><path d="M55.546 735.548c3.347 1.58 5.828 2.13 7.463 3.612 16.965 15.33 37.496 19.69 59.53 23.532 28.886 5.038 56.962.05 85.15-1.794 21.478-1.411 42.722-8.1 63.788-13.526 25.014-6.429 50.07-13.006 74.487-21.346 33.858-11.564 67.707-23.5 100.546-37.618 78.44-33.695 154.339-72.699 224.928-120.791 47.583-32.406 92.823-68.302 138.74-103.113 14.494-10.99 24.825-13.098 33.348-4.183 10.78 11.274 11.27 28.8-1.003 39.86-19.742 17.79-40.13 34.979-61.247 51.108-90.514 69.133-188.507 125.876-292.069 172.908-59.438 26.996-120.42 50.655-183.933 65.908-39.38 9.456-79.846 15.253-120.154 19.7-28.733 3.175-57.517-1.594-84.646-13.143-23.7-10.087-34.795-30.858-44.806-52.525-.927-1.997-.122-4.804-.122-8.59" fill="#EAB600"/><path d="M46.462 312.315c.29 4.249 1.691 8.783.673 12.685-5.05 19.375 4.075 37.853 23.037 43.467 27.317 8.075 55.067 8.11 82.766 2.012 23.328-5.135 47.043-9.257 69.672-16.644 34.134-11.126 68.338-22.803 100.969-37.648 68.124-30.975 132.478-68.756 191.279-115.407 39.605-31.412 77.172-64.73 102.262-109.817 8.452-15.212 10.969-31.163 7.984-47.654-1.07-5.874-6.572-11.346-11.03-16.084-3.53-3.755-8.559-6.098-16.078-11.218 6.561-1.426 10.25-3.505 12.99-2.624 15.1 4.825 30.874 8.671 44.68 16.084C674.21 39.4 679.95 62.678 673.39 82.919c-14.958 46.156-47.497 79.382-81.569 111.086-60.37 56.177-128.637 101.478-202.105 138.377-44.144 22.161-89.653 41.928-135.672 59.902-26.594 10.382-55.184 16.16-83.296 22.003-23.465 4.87-47.511 8.966-71.354 9.297-16.302.225-33.425-4.758-48.861-10.79-20.654-8.075-30.827-30.547-25.228-55.061 3.617-15.83 11.35-30.72 17.234-46.04l3.923.622z" fill="#3C7CA8"/><path d="M701.71 39.982c15.762 8.426 33.45 14.545 46.84 25.793 21.661 18.198 22.211 39.177 11.436 67.314-18.218 47.588-52.31 83.882-88.848 117.715-71.018 65.76-150.88 119.14-236.81 163.193-42.233 21.651-85.74 40.97-129.35 59.763-24.412 10.526-50.18 17.928-75.464 26.375-2.879.968-7.01.53-9.756-.861-10.322-5.212-13.501-14.377-13.098-25.503.392-11.091 5.67-19.563 15.69-22.508 68.772-20.235 134.084-48.592 197.195-82.307 80.758-43.15 156.672-93.245 222.997-156.845 28.733-27.562 54.802-57.192 71.079-94.427 13.363-30.583 11.9-42.886-11.167-67.488-1.65-1.757-2.446-4.32-3.622-6.505l2.878-3.71" fill="#EAB600"/><path d="M273.26 962.015c4.31-.245 7.958-1.162 11.31-.525 14.795 2.823 29.436 6.496 44.277 9.007 6.612 1.121 13.658.953 20.357.123 24.301-3.006 48.806-5.217 72.7-10.24 23.21-4.881 46.003-12.176 68.572-19.64 30.414-10.056 61.51-19.002 90.382-32.539 53.62-25.167 107.025-51.23 158.358-80.677 79.378-45.545 153.152-99.114 214.964-167.538 22.196-24.56 40.572-51.77 53.304-82.496 2.802-6.75 4.661-13.888 8.456-20.352 3.7 49.11-16.093 89.266-46.564 125.192-58.841 69.383-130.7 123.288-208.55 168.67-54.154 31.57-110.668 59.545-167.803 85.425-36.42 16.496-75.816 26.522-114.056 38.897-37.17 12.038-75.654 17.729-114.515 18.63-32.217.75-61.43-11.666-89.235-27.077-.805-.448-.907-2.145-1.957-4.86m720.224-613.61c6.495 24.86 18.391 48.362 10.01 76.112-17.071 56.483-55.209 98.125-95.761 137.756-80.494 78.65-173.607 139.921-271.987 193.602-8.009 4.381-16.583 8.411-25.386 10.46-10.861 2.516-21.326-1.157-24.922-12.426-3.668-11.458.168-21.724 11.65-27.929 12.472-6.74 24.954-13.45 37.247-20.5 101.274-58.027 197.668-122.676 278.294-208.193 27.51-29.176 53.039-60.217 66.982-98.63 4.229-11.636 5.732-24.28 8.182-36.533.866-4.346.815-8.864 1.187-13.307l4.509-.407M416.034 90.453c2.471-4.992 4.636-9.14 6.588-13.378 4.208-9.12 9.791-17.948 12.063-27.52 2.67-11.26-3.393-16.7-15.497-18.295-37.659-4.972-72.291 6.44-104.876 21.866-33.573 15.895-65.821 34.877-97.153 54.75-23.384 14.836-44.801 32.702-57.15 58.67-8.365 17.596-2.155 28.478 17.943 29.935 36.68 2.664 69.887-9.67 102.64-23.063 17.102-6.995 33.297-16.11 49.814-24.429 10.341-5.196 16.623-1.742 25.87 10.79 7.932 10.75-1.116 14.632-7.046 17.434a3060.313 3060.313 0 0 1-96.322 43.451c-27.73 11.952-57.288 17.668-87.336 19.461-9.863.591-20.684-2.414-29.935-6.332-15.88-6.73-20.134-24.642-11.758-42.422 12.328-26.186 33.236-45.418 55.005-63.697 45.647-38.352 95.706-69.612 153.065-88.833 18.748-6.277 36.854-15.31 56.07-19.064 22.712-4.432 46.896-8.569 69.388-5.487 29.92 4.096 37.042 24.474 20.954 55.694-3.077 5.97-7.5 11.36-11.804 16.633-9.354 11.448-19.334 13.766-33.471 8.61-4.407-1.595-9.058-2.558-17.047-4.774" fill="#3C7CA8"/><path d="M994.793 670.919c-2.012 7.468-3.28 15.222-6.149 22.344-19.324 47.996-53.146 85.002-91.325 118.448-77.68 68.063-165.775 119.161-261.17 157.808-31.77 12.874-64.039 25.198-97.066 34.093-28.31 7.626-57.925 12.517-87.178 13.892-23.384 1.1-47.104-4.89-70.682-7.743-.02-1.6-.05-3.19-.066-4.79 2.339-.926 4.636-2.51 7.02-2.658a192.18 192.18 0 0 1 20.414-.255c35.417 1.61 69.388-5.461 103.485-14.463 101.85-26.884 194.596-73.448 282.894-129.437 54.914-34.826 106.629-74.278 150.151-122.951 16.654-18.631 29.116-41.011 43.508-61.665.891-1.273 1.981-2.404 2.975-3.601 1.065.326 2.13.662 3.19.978" fill="#EAB600"/><path d="M480.801 3.643c22.982 1.645 47.226-.75 68.639 5.93 29.584 9.236 38.377 31.127 21.132 65.296-19.36 38.362-50.777 66.305-82.786 93.383-16.364 13.847-34.078 26.221-52.005 38.005-5.451 3.592-15.12 6.027-20.256 3.566-7.01-3.362-13.297-11.208-16.252-18.585-1.217-3.026 6.353-10.713 11.173-14.825 27.994-23.862 57.517-46.08 84.09-71.405 13.001-12.384 22.314-29.502 30.49-45.876 10.042-20.123 3.226-41.25-20.449-43.726-8.1-.85-15.854-5.023-23.77-7.673v-4.09zM185.935 904.42c15.961 3.949 30.954 7.22 45.688 11.402 23.51 6.679 46.834 5.222 70.482.698 16.1-3.077 32.626-3.938 48.755-6.919 16.415-3.03 32.824-6.622 48.806-11.437 24.285-7.305 48.23-15.767 72.255-23.944a837.714 837.714 0 0 0 36.385-13.21c11.54-4.524 26.42-.663 32.646 9.593 6.114 10.097-.601 17.072-8.187 20.77-13.551 6.623-27.836 11.972-42.233 16.547-31.994 10.19-63.947 20.786-96.475 28.963-42.927 10.8-86.903 15.263-131.088 11.269-28.264-2.548-51.088-18.534-72.449-36.136-2.114-1.742-3.031-4.941-4.585-7.59m828.207-450.087c1.748 6.694 4.28 13.297 5.115 20.098 4.768 38.734-9.496 71.782-31.418 102.415-42.234 59.026-96.964 105.06-154.323 148.338-6.858 5.17-14.168 8.263-21.433.244-6.394-7.066-6.643-22.62 1.437-30.226 11.595-10.902 24.474-20.454 36.879-30.495 52.677-42.637 103.215-87.356 138.861-146.127 10.46-17.245 20.2-34.948 19.462-56.254-.082-2.557 1.548-5.17 2.384-7.759l3.036-.234M107.235 207.908c-5.064 13.296-10.602 25.737-14.52 38.667-4.131 13.69 3.8 25.957 17.23 30.73 28.697 10.22 56.967 3.393 85.13-1.946 13.138-2.486 25.645-8.385 38.8-10.678 3.881-.677 11.829 4.865 13.036 8.982 5.197 17.729-4.192 32.707-23.144 38.163-35.305 10.169-71.125 17.836-108.126 15.395-10.159-.672-20.837-3.362-29.956-7.815-20.21-9.852-28.988-30.465-18.931-52.091 9.598-20.648 24.3-38.922 36.874-58.17.468-.713 2.022-.723 3.607-1.237" fill="#D87E3A"/><path d="M110.042 824.345c9.919 5.248 19.257 11.489 29.512 15.269 11.203 4.137 23.145 7.8 34.939 8.457 23.317 1.289 46.757.494 70.141.254 4.555-.05 9.364-.78 13.597-2.389 21.056-7.993 37.511 2.894 48.23 19.604 4.443 6.918-1.07 16.13-10.917 16.796-32.116 2.18-64.36 5.722-96.41 4.616-38.656-1.335-66.462-23.868-87.819-54.853a17.423 17.423 0 0 1-2.14-4.57c-.203-.641.388-1.538.867-3.189m390.7 195.956c10.698-2.644 21.269-6.047 32.11-7.805 106.15-17.26 198.04-67.145 286.414-124.978 14.061-9.201 26.976-20.14 40.685-29.895 3.312-2.359 7.693-3.225 13.383-5.502-1.018 14.983-8.915 22.986-17.698 28.774-40.145 26.445-79.464 54.593-121.678 77.294-37.393 20.113-77.58 35.641-117.704 49.9-36.874 13.109-75.653 18.784-115.513 12.212" fill="#3C7CA8"/><path d="M15.732 409.946c.606 5.757 1.875 11.534 1.681 17.266-.433 13.093 5.39 22.334 15.783 29.62 15.895 11.136 19.986 32.757 8.574 48.652-1.605 2.242-9.282 2.787-12.232.978C5.986 492.04-2.466 465.518 5.92 435.118c2.338-8.472 4.62-16.964 6.928-25.447l2.884.275m952.407-95.16c-21.718-18.442-25.758-41.882-27.613-66.688 15.197 6.929 32.335 45.917 27.613 66.688" fill="#EAB600"/></svg>