<svg class="icon" viewBox="0 0 1024 1024" xmlns="http://www.w3.org/2000/svg" width="200" height="200"><defs><style>@font-face{font-family:feedback-iconfont;src:url(//at.alicdn.com/t/font_1031158_u69w8yhxdu.woff2?t=1630033759944) format(&quot;woff2&quot;),url(//at.alicdn.com/t/font_1031158_u69w8yhxdu.woff?t=1630033759944) format(&quot;woff&quot;),url(//at.alicdn.com/t/font_1031158_u69w8yhxdu.ttf?t=1630033759944) format(&quot;truetype&quot;)}</style></defs><path d="M1022.028 511.328c0 281.365-228.092 509.452-509.452 509.452-281.371 0-509.453-228.087-509.453-509.452S231.205 1.875 512.576 1.875c281.36 0 509.452 228.087 509.452 509.453z" fill="#F4F4F4"/><path d="M424.11 481.326h359.989v-78.222h-359.99z" fill="#2C475C"/><path d="M784.099 540.697v206.864c-29.574 22.711-60.33 39.605-88.701 52.066 0 0-47.547 18.493-73.402 25.411-.586.168-1.187.316-1.773.459l-2.955.749a431.527 431.527 0 0 1-17.836 3.984c-1.08.224-2.14.417-3.128.611a52.896 52.896 0 0 1-2.257.423c-.315.061-.631.127-.927.168a12.675 12.675 0 0 1-.983.183 22.176 22.176 0 0 1-1.294.22c-1.411.244-2.838.468-4.27.708l-.886.137a648.406 648.406 0 0 1-4.259.622l-.316.04a344.537 344.537 0 0 1-47.572 3.297c-184.05 0-333.244-145.653-333.244-325.322 0-179.653 149.194-325.3 333.244-325.3 92.46 0 176.117 36.767 236.477 96.133l-58.551 59.413c-44.17-42.642-104.901-68.965-171.91-68.965C404.48 272.598 295 379.481 295 511.318c0 131.856 109.481 238.74 244.557 238.74 59.22 0 113.532-20.542 155.842-54.752v-76.392h-271.29v-78.217H784.1z" fill="#2C475C"/></svg>