<svg class="icon" viewBox="0 0 1024 1024" xmlns="http://www.w3.org/2000/svg" width="200" height="200"><defs><style>@font-face{font-family:feedback-iconfont;src:url(//at.alicdn.com/t/font_1031158_u69w8yhxdu.woff2?t=1630033759944) format(&quot;woff2&quot;),url(//at.alicdn.com/t/font_1031158_u69w8yhxdu.woff?t=1630033759944) format(&quot;woff&quot;),url(//at.alicdn.com/t/font_1031158_u69w8yhxdu.ttf?t=1630033759944) format(&quot;truetype&quot;)}</style></defs><path d="M99.817 257.793c1.528 1.411 2.787 2.481 3.943 3.648 12.405 12.415 24.709 24.943 37.272 37.2 2.812 2.751 2.827 4.636.815 7.795-26.329 41.118-35.896 86.174-27.118 133.935 11.773 64.053 47.868 110.73 106.842 138.861 34.831 16.609 71.777 20.873 109.757 15.06 25.523-3.908 49.422-12.787 71.236-26.757 3.618-2.318 5.604-2.053 8.55.943 32.059 32.539 64.307 64.879 96.331 97.448 3.536 3.602 5.365 4.01 9.17.173 36.6-36.935 73.5-73.585 110.104-110.52 4.024-4.066 6.546-4.764 11.83-1.59 32.003 19.263 66.885 26.986 104.167 25.243 74.023-3.459 141.618-55.183 164.553-126.191 17.372-53.783 10.928-104.81-17.372-153.345-1.85-3.169-2.023-5.13.815-7.866 10.321-9.935 20.347-20.16 30.5-30.262.943-.937 1.998-1.762 3.022-2.659 108.462 159.408 123.751 415.83-50.742 604.639-180.728 195.553-478.987 210.776-678.122 42.921C-6.862 736.006-30.908 456.133 99.822 257.793" fill="#00A6C4"/><path d="M851.397 194.56C657.307-3.897 341.746 12.94 173.372 186.628c.978 1.105 1.936 2.277 2.99 3.337 111.234 111.473 222.489 222.926 333.656 334.47 3.128 3.139 4.901 2.757 7.76-.142 14.356-14.565 28.86-28.983 43.369-43.395a606819.598 606819.598 0 0 1 281.488-279.562c2.517-2.497 5.634-4.397 8.752-6.786M513.651 594.817 106.97 186.694c.978-1.31 1.762-2.547 2.736-3.627 48.938-54.303 105.736-98.172 172.042-129.396 36.181-17.041 73.789-29.885 112.915-38.311 45.06-9.695 90.611-13.638 136.625-11.57 67.1 3.006 131.306 18.371 192.675 45.754 73.779 32.921 136.075 81.054 188.936 141.832 3.056 3.515 1.299 5.094-1.055 7.428a447542.257 447542.257 0 0 0-197.21 196.2c-65.576 65.276-131.132 130.573-196.72 195.854-1.186 1.182-2.46 2.293-4.258 3.964m-174.85-95.446c-27.546 25.218-88.777 31.046-129.309-9.45-40.67-40.624-35.101-100.714-8.396-131.949l137.705 141.399m356.195-9.751L832.92 351.339c19.4 21.718 28.407 77.162-5.187 118.03-37.358 45.443-98.986 45.188-132.732 20.256" fill="#00A6C4"/></svg>