<svg class="icon" viewBox="0 0 1024 1024" xmlns="http://www.w3.org/2000/svg" width="200" height="200"><defs><style>@font-face{font-family:feedback-iconfont;src:url(//at.alicdn.com/t/font_1031158_u69w8yhxdu.woff2?t=1630033759944) format(&quot;woff2&quot;),url(//at.alicdn.com/t/font_1031158_u69w8yhxdu.woff?t=1630033759944) format(&quot;woff&quot;),url(//at.alicdn.com/t/font_1031158_u69w8yhxdu.ttf?t=1630033759944) format(&quot;truetype&quot;)}</style></defs><path d="M1021.167 513.187c0 281.37-228.087 509.453-509.452 509.453-281.371 0-509.453-228.082-509.453-509.453 0-281.366 228.082-509.453 509.453-509.453 281.365 0 509.452 228.087 509.452 509.453" fill="#5791A3"/><path d="M990.87 513.197c0 167.05-85.537 314.185-215.193 399.87a469.405 469.405 0 0 1-84.925 44.628c-55.276 22.37-115.748 34.648-179.022 34.648-68.063 0-132.814-14.214-191.452-39.789a476.298 476.298 0 0 1-57.721-30.006C124.647 838.437 32.544 686.569 32.544 513.202c0-264.66 214.53-479.19 479.191-479.19 264.61 0 479.14 214.53 479.14 479.19" fill="#337D97"/><path d="M346.112 484.515c0-67.299 11.152-117.633 33.42-151.048 22.263-33.42 55.678-50.13 100.204-50.13 35.356 0 67.095 13.603 95.166 40.706s42.132 76.468 42.132 148.148c0 71.17-13.246 121.148-39.585 149.983-26.39 28.784-58.026 43.202-94.809 43.202-39.686 0-72.393-14.52-98.018-43.558-25.677-29.09-38.515-74.839-38.515-137.298M768.8 903.596c-25.677-32.962-60.065-54.868-103.113-65.72-43.1-10.902-104.591-18.289-184.473-22.16-73.107-3.872-121.046-9.68-143.819-17.424-23.23-7.285-34.846-19.869-34.846-37.801 0-38.21 51.302-59.046 153.956-62.46 98.783-3.362 168.986-27.56 210.608-72.596 41.622-44.577 62.459-95.88 62.459-153.957 0-44.577-12.584-86.709-37.75-126.395-.286-.372-.546-.662-.836-1.019h41.979s24.423-60.722 18.483-60.722c-5.94 0-2.64-2.639-13.531 8.253-10.887 10.893-25.738 8.254-25.738 8.254h-69.066c-1.38-1.035-2.807-1.997-4.203-2.99 9.618-9.752 41.892-42.83 74.263-80.173 38.606-44.552 42.564-126.722-35.642-129.692-78.21-2.97-74.252 70.29-74.252 70.29l4.29-.658s4.951-43.894 55.112-43.232c50.155.662 40.92 64.349 40.92 64.349-3.893 34.357-47.263 82.16-76.74 111.066-41.408-25.84-90.886-38.846-148.546-38.846-65.363 0-121.912 21.142-169.597 63.534-47.685 42.386-71.527 93.79-71.527 154.313 0 43.1 11.61 82.073 34.847 116.92 23.23 34.897 57.868 65.872 103.877 92.975-88.594 16.455-132.916 56.396-132.916 119.823 0 32.961 15.487 59.81 46.462 80.646 3.051 2.089 6.419 4.076 10.189 6.012-9.782 4.687-18.188 11.31-25.269 19.92a92.231 92.231 0 0 0-11.82 18.442 476.33 476.33 0 0 0 57.722 30.006c4.381-18.085 12.634-35.661 24.76-52.677 36.068 8.61 85.073 14.163 147.078 16.76 90.53 3.873 153.442 15.488 188.803 34.847a111.098 111.098 0 0 1 9.828 6.216 469.405 469.405 0 0 0 84.925-44.628 148.792 148.792 0 0 0-6.877-9.476" fill="#FFF"/></svg>