<svg class="icon" viewBox="0 0 1024 1024" xmlns="http://www.w3.org/2000/svg" width="200" height="200"><defs><style>@font-face{font-family:feedback-iconfont;src:url(//at.alicdn.com/t/font_1031158_u69w8yhxdu.woff2?t=1630033759944) format(&quot;woff2&quot;),url(//at.alicdn.com/t/font_1031158_u69w8yhxdu.woff?t=1630033759944) format(&quot;woff&quot;),url(//at.alicdn.com/t/font_1031158_u69w8yhxdu.ttf?t=1630033759944) format(&quot;truetype&quot;)}</style></defs><path d="M870.105 152.703 739.353 283.43a38.555 38.555 0 0 0-12.552-8.39l-202.136-83.724a38.876 38.876 0 0 0-29.635 0l-202.135 83.723a38.662 38.662 0 0 0-12.553 8.386L149.59 152.698a60.981 60.981 0 0 1 19.73-13.164L486.6 8.105a60.701 60.701 0 0 1 46.513 0l317.26 131.425a60.981 60.981 0 0 1 19.732 13.17" fill="#FCB000"/><path d="M1014.677 536.21 883.274 853.455a60.95 60.95 0 0 1-13.17 19.73 60.981 60.981 0 0 1-19.73 13.17L533.106 1017.78a60.747 60.747 0 0 1-46.508 0L169.322 886.356a61.032 61.032 0 0 1-19.731-13.17 61.114 61.114 0 0 1-13.17-19.73L5.023 536.209a60.808 60.808 0 0 1 0-46.533l131.398-317.247a61.338 61.338 0 0 1 13.17-19.73l130.75 130.725a38.881 38.881 0 0 1 12.554-8.386l202.14-83.728a38.876 38.876 0 0 1 29.635 0l202.136 83.728a38.718 38.718 0 0 1 12.553 8.386l130.75-130.726a61.17 61.17 0 0 1 13.17 19.731l131.398 317.247a60.762 60.762 0 0 1 0 46.533" fill="#3D6E6E"/><path d="m831.468 527.773-83.729 202.11a38.209 38.209 0 0 1-8.386 12.553 38.703 38.703 0 0 1-12.552 8.41l-202.136 83.73a38.876 38.876 0 0 1-29.635 0l-202.135-83.73a38.81 38.81 0 0 1-20.934-20.963l-83.733-202.11a38.754 38.754 0 0 1 0-29.66l83.733-202.11a38.387 38.387 0 0 1 8.38-12.574 38.76 38.76 0 0 1 12.554-8.39l202.14-83.73a38.876 38.876 0 0 1 29.635 0l202.136 83.73a38.647 38.647 0 0 1 20.938 20.963l83.729 202.11a38.754 38.754 0 0 1 0 29.66" fill="#FFF"/><path d="m661.78 346.336-141.547-58.638a27.128 27.128 0 0 0-20.755 0L357.92 346.336a27.113 27.113 0 0 0-14.672 14.672L284.61 502.565a27.083 27.083 0 0 0 0 20.755l58.638 141.551a27.113 27.113 0 0 0 14.672 14.673l141.557 58.638a27.13 27.13 0 0 0 20.755 0l141.546-58.638a27.103 27.103 0 0 0 14.672-14.673l58.64-141.551a27.083 27.083 0 0 0 0-20.755l-58.638-141.552a27.103 27.103 0 0 0-14.672-14.677" fill="#3F7070"/></svg>