<svg class="icon" viewBox="0 0 1029 1024" xmlns="http://www.w3.org/2000/svg" width="200.977" height="200"><defs><style>@font-face{font-family:feedback-iconfont;src:url(//at.alicdn.com/t/font_1031158_u69w8yhxdu.woff2?t=1630033759944) format(&quot;woff2&quot;),url(//at.alicdn.com/t/font_1031158_u69w8yhxdu.woff?t=1630033759944) format(&quot;woff&quot;),url(//at.alicdn.com/t/font_1031158_u69w8yhxdu.ttf?t=1630033759944) format(&quot;truetype&quot;)}</style></defs><path d="M513.818 0C231.043 0 1.823 229.225 1.823 511.995c0 282.775 229.22 511.995 511.995 511.995 282.77 0 511.994-229.22 511.994-511.995C1025.812 229.225 796.587 0 513.818 0" fill="#136798"/><path d="M513.818 983.03c-260.15 0-471.036-210.89-471.036-471.035S253.668 40.96 513.818 40.96c260.144 0 471.035 210.89 471.035 471.035S773.963 983.03 513.818 983.03" fill="#FFF"/><path d="M510.817 80.23h-12.774l-12.78 6.722-271.72 253.57 234.729 79.36 92.144-65.91 6.727-38.337-36.991-93.49z" fill="#136798"/><path d="M548.116 118.87v123.083l36.997 94.156-7.404 48.435-96.854 68.602 8.745 115.015 71.296 180.253 41.701-71.966-12.779-22.195 39.68-96.854v-49.771l73.983-100.223-46.407-39.014 7.403-58.511-62.55-60.528-49.776-126.448zm-340.63 258.94 236.746 76.682 8.075 111.65-60.534 117.032-122.407 54.477-12.11-34.304 6.053-40.356z" fill="#136798"/><path d="m277.435 772.928 127.118-56.499 55.823-106.94L531 787.054l-43.043 119.72h-4.71l-26.23 12.779-14.131-30.27-32.276-15.461-12.109 2.683-6.728 12.779-15.672-3.364-26.025 14.131-12.784-22.2-57.17-26.905zm326.135-640.91 34.304 90.126 64.573 62.55-7.404 53.136 42.378 38.338 74.654-24.888-51.117-44.39-23.537-49.771zM740.78 413.46l79.37-27.576-17.49 165.457.675 102.91-8.074 8.74-12.78 13.45-145.278-10.751-8.074-13.46 37.668-89.446.675-47.088zM618.065 704.326l135.863 8.745-13.45 141.239-41.026 6.727-4.04 13.455h-43.043l-18.16 28.918-51.119 6.727-15.472 17.49-26.23-11.438-13.644 27.581-7.88-19.507 47.754-133.845z" fill="#136798"/></svg>