<svg class="icon" viewBox="0 0 1024 1024" xmlns="http://www.w3.org/2000/svg" width="200" height="200"><defs><style>@font-face{font-family:feedback-iconfont;src:url(//at.alicdn.com/t/font_1031158_u69w8yhxdu.woff2?t=1630033759944) format(&quot;woff2&quot;),url(//at.alicdn.com/t/font_1031158_u69w8yhxdu.woff?t=1630033759944) format(&quot;woff&quot;),url(//at.alicdn.com/t/font_1031158_u69w8yhxdu.ttf?t=1630033759944) format(&quot;truetype&quot;)}</style></defs><path d="M1019.237 511.032c0 281.37-228.087 509.453-509.453 509.453C228.424 1020.485.33 792.403.33 511.032.331 229.666 228.423 1.579 509.784 1.579c281.366 0 509.453 228.087 509.453 509.453" fill="#0666FF"/><path d="M419.213 494.108c-51.174 0-92.807-41.632-92.807-92.807 0-51.175 41.633-92.807 92.807-92.807 51.175 0 92.807 41.632 92.807 92.807 0 51.175-41.632 92.807-92.807 92.807m84.636-185.614h24.673v-33.002H419.213c-69.367 0-125.804 56.437-125.804 125.809s56.437 125.81 125.804 125.81 125.8-56.438 125.8-125.815c0-36.762-15.946-69.785-41.17-92.807m181.422 185.619c-51.175 0-92.807-41.632-92.807-92.807 0-51.175 41.632-92.807 92.807-92.807 51.174 0 92.807 41.632 92.807 92.807 0 51.175-41.633 92.807-92.807 92.807m0-218.616c-69.372 0-125.804 56.437-125.804 125.809s56.432 125.81 125.804 125.81 125.804-56.438 125.804-125.81-56.432-125.81-125.804-125.81M419.213 756.029c-51.174 0-92.807-41.628-92.807-92.802 0-51.175 41.633-92.807 92.807-92.807 51.175 0 92.807 41.632 92.807 92.807 0 51.174-41.632 92.807-92.807 92.807m0-218.616c-69.367 0-125.804 56.437-125.804 125.809s56.437 125.81 125.804 125.81 125.805-56.438 125.805-125.81-56.438-125.81-125.805-125.81" fill="#FFF"/></svg>