<svg class="icon" viewBox="0 0 1024 1024" xmlns="http://www.w3.org/2000/svg" width="200" height="200"><defs><style>@font-face{font-family:feedback-iconfont;src:url(//at.alicdn.com/t/font_1031158_u69w8yhxdu.woff2?t=1630033759944) format(&quot;woff2&quot;),url(//at.alicdn.com/t/font_1031158_u69w8yhxdu.woff?t=1630033759944) format(&quot;woff&quot;),url(//at.alicdn.com/t/font_1031158_u69w8yhxdu.ttf?t=1630033759944) format(&quot;truetype&quot;)}</style></defs><path d="M127.48 122.712c15.692-2.547 30.873-4.993 46.055-7.438l83.04-13.297c26.237-4.228 52.474-8.457 78.711-12.634l83.448-13.45c25.83-4.177 51.812-7.744 77.488-12.736 4.993-.968 9.884-1.274 14.723-1.12V4.263h-1.935c-.714.306-1.376.815-2.09.968-17.932 3.77-35.865 7.59-53.797 11.31-56.346 11.717-112.742 23.384-169.088 35.152C222.442 64.532 160.85 77.472 99.205 90.21c-4.075.866-5.4 2.14-5.4 6.419.102 190.79.051 381.58.255 572.37 0 9.629 1.478 19.41 3.515 28.835 5.095 24.148 16.456 45.596 30.466 65.669 22.67 32.554 51.098 59.606 81.716 84.569 36.171 29.497 75.195 54.97 115.187 79.016a1913.428 1913.428 0 0 0 174.08 93.179c4.229 1.987 8.1 2.955 11.921 2.904v-51.71c-1.12 0-2.292-.255-3.515-.764-82.073-33.471-160.885-73.208-234.603-122.574-31.993-21.346-62.357-44.73-89.307-72.292-18.748-19.155-35.407-39.788-46.36-64.496-6.42-14.469-9.73-29.549-9.73-45.495.101-179.021.05-358.043.05-537.065v-6.062z" fill="#372E44"/><path d="M927.576 91.788v4.789c0 191.605 0 383.21-.051 574.815 0 24.505-7.744 46.972-19.003 68.318-16.302 30.975-38.87 57.11-63.885 81.156-44.271 42.59-94.402 77.335-146.773 109.023-56.397 34.133-114.984 64.089-175.405 90.53-4.076 1.783-7.744 2.7-11.514 2.75V971.46c1.478 0 2.955-.356 4.535-1.019a1380.74 1380.74 0 0 0 149.371-71.017c52.627-28.988 103.419-60.727 148.964-100.26 22.722-19.717 43.711-41.114 59.86-66.74 12.431-19.715 21.041-40.704 21.041-64.496-.05-180.091-.05-360.234-.05-540.325v-4.891c-2.14-.408-3.822-.764-5.554-1.019l-57.874-9.323-73.055-11.768c-24.454-3.923-48.959-7.795-73.463-11.769-25.931-4.177-51.863-8.355-77.845-12.532-22.976-3.72-46.003-7.438-69.03-11.055-8.967-1.427-17.831-3.057-26.9-3.21V4.264h1.325c7.132 1.681 14.265 3.566 21.448 5.044 63.172 13.245 126.293 26.44 189.465 39.584C777.033 60.1 830.831 71.257 884.63 82.414l39.584 8.253c1.02.204 1.987.663 3.363 1.121" fill="#5C4C7C"/><path d="M799.703 760.7a358.516 358.516 0 0 1-7.998 7.336c-40.756 36.578-86.709 65.668-134.292 92.312-46.207 25.83-93.892 48.653-143.054 68.318-1.885.764-4.585.917-6.42.153-79.372-32.35-155.433-70.814-225.942-119.823-22.874-15.946-44.679-33.217-64.547-52.83-19.563-19.41-37.14-40.4-47.838-66.23-5.094-12.226-7.59-24.963-7.59-38.26.101-80.595.05-161.19.05-241.786 0-81.818.051-163.636-.102-245.403 0-4.228.968-5.655 5.35-6.317 12.787-1.885 25.574-3.872 38.412-5.91 40.247 312.346 284.02 560.908 593.971 608.44" fill="#372E44"/><path d="M859.717 170.448c.05 159.866-.051 319.681.102 479.547 0 19.003-4.891 36.426-13.807 53.034-11.972 22.11-28.274 40.655-46.309 57.67-309.95-47.531-553.724-296.093-593.97-608.439 13.958-2.19 27.917-4.432 41.927-6.623 24.454-3.923 48.959-7.896 73.412-11.82 24.505-3.922 49.01-7.794 73.514-11.716 22.875-3.618 45.75-7.337 68.624-11.005 15.589-2.496 31.076-5.502 46.767-7.234 5.961-.713 12.227 1.376 18.34 2.344 26.645 4.228 53.239 8.457 79.883 12.736 26.237 4.228 52.423 8.508 78.66 12.685 26.185 4.178 52.422 8.304 78.659 12.482 27.816 4.432 55.581 8.966 83.397 13.45 3.414.56 8.203.305 9.833 2.343 1.834 2.394.968 6.98.968 10.546" fill="#5C4C7C"/><path d="M377.209 271.436v-12.532c0-10.413.194-20.837-.097-31.235-.112-4.09 1.009-5.262 5.166-5.252 50.981.143 101.957.046 152.938.122 17.02.026 34.108-.469 51.057.749 57.1 4.106 103.388 27.19 132.6 78.491 11.657 20.465 17.434 42.83 19.324 66.265 2.563 31.749-1.004 62.607-14.402 91.727-20.939 45.54-56.89 72.923-105.029 85.048-16.2 4.076-32.732 5.43-49.36 5.471-41.379.102-82.756.036-124.134.036h-5.782v210.832h-53.02V531.721c0-8.11.108-16.231-.244-24.332-.183-4.075.953-5.227 5.136-5.216 58.011.142 116.022.081 174.029.102 17.688.01 34.958-2.42 51.526-8.84 30.073-11.656 50.466-32.834 60.477-63.406 9.14-27.908 9.628-56.376 1.35-84.523-11.284-38.418-37.623-61.563-76.138-70.641-11.575-2.73-23.735-3.882-35.656-4.101-28.377-.53-56.784-.138-85.18 0-33.115.153-66.23.448-99.354.678h-5.207" fill="#FFF"/><path d="M545.73 408.5h-5.19l-192.625-.082c-5.512 0-5.517-.01-5.517-5.461v-37.119c1.885-.112 3.337-.27 4.8-.27 64.75-.102 129.502-.153 194.253-.321 3.455-.01 4.774.866 4.708 4.514-.194 11.483-.066 22.976-.087 34.47 0 1.197-.188 2.394-.341 4.269" fill="#FFF"/></svg>