<svg class="icon" viewBox="0 0 1024 1024" xmlns="http://www.w3.org/2000/svg" width="200" height="200"><defs><style>@font-face{font-family:feedback-iconfont;src:url(//at.alicdn.com/t/font_1031158_u69w8yhxdu.woff2?t=1630033759944) format(&quot;woff2&quot;),url(//at.alicdn.com/t/font_1031158_u69w8yhxdu.woff?t=1630033759944) format(&quot;woff&quot;),url(//at.alicdn.com/t/font_1031158_u69w8yhxdu.ttf?t=1630033759944) format(&quot;truetype&quot;)}</style></defs><path d="M1021.167 511.817c0 281.365-228.087 509.452-509.452 509.452-281.371 0-509.453-228.087-509.453-509.452 0-281.371 228.082-509.453 509.453-509.453 281.365 0 509.452 228.082 509.452 509.453" fill="#095C2D"/><path d="M420.87 489.14h105.588c15.63 0 31.459-1.257 47.512-3.77 16.022-2.51 30.95-7.121 44.755-13.82 13.806-6.71 26.023-16.339 36.655-28.912 10.622-12.573 18.641-28.911 24.036-49.02 5.38-20.113 6.124-36.446 2.237-49.02-3.897-12.572-10.953-22.201-21.163-28.91-10.225-6.7-22.67-11.31-37.353-13.827a269.643 269.643 0 0 0-45.494-3.77H472.059l-51.18 191.05zm-10.384-261.43h208.637c37.98 0 67.874 5.171 89.694 15.503 21.804 10.342 37.704 23.455 47.685 39.38 9.98 15.926 15.1 33.808 15.375 53.625.265 19.844-2.058 38.963-7 57.4-4.942 18.432-12.864 37.573-23.756 57.395-10.902 19.839-25.605 37.705-44.118 53.625-18.509 15.926-41.444 29.054-68.787 39.381-27.357 10.352-60.013 15.508-97.998 15.508H402.019l-70.06 261.426h-80.427L410.476 227.71z" fill="#FEFEFE"/><path d="M564.52 415.459H304.336l17.194-64.176h260.188z" fill="#FEFEFE"/></svg>