<svg class="icon" viewBox="0 0 1024 1024" xmlns="http://www.w3.org/2000/svg" width="200" height="200"><defs><style>@font-face{font-family:feedback-iconfont;src:url(//at.alicdn.com/t/font_1031158_u69w8yhxdu.woff2?t=1630033759944) format(&quot;woff2&quot;),url(//at.alicdn.com/t/font_1031158_u69w8yhxdu.woff?t=1630033759944) format(&quot;woff&quot;),url(//at.alicdn.com/t/font_1031158_u69w8yhxdu.ttf?t=1630033759944) format(&quot;truetype&quot;)}</style></defs><path d="M1020.73 514.14c0 254.268-186.257 465.028-429.775 503.237a513.237 513.237 0 0 1-79.678 6.215c-21.5 0-42.642-1.324-63.427-3.922C196.435 988.49 1.824 774.012 1.824 514.14c0-281.371 228.082-509.453 509.453-509.453s509.452 228.082 509.452 509.453" fill="#4076BF"/><path d="M612.148 797.854c-22.976 3.311-26.033 1.325-26.542-21.907-2.19-98.986-4.382-197.973-6.47-296.96-.153-5.45.305-10.85.458-15.945 32.045-5.553 42.081 2.088 42.794 31.942a165364.24 165364.24 0 0 1 6.012 275.258c.254 12.226 1.477 25.065-16.252 27.612m150.85-326.1c-1.325-39.738-22.162-61.186-61.44-66.74-24.658-3.514-49.774-5.603-74.636-5.552-59.504.255-119.008 2.14-178.512 3.413-4.789.102-9.527.917-14.01 1.376 4.534 205.819 9.017 410.517 13.45 615.419 20.785 2.598 41.928 3.922 63.427 3.922 27.102 0 53.747-2.14 79.678-6.215-1.019-45.392-2.038-90.835-3.311-136.278-.408-14.01 4.075-17.526 17.627-18.392 36.476-2.292 73.31-4.177 109.175-10.698 37.904-6.929 55.836-29.396 55.429-68.318-1.172-103.98-3.515-207.958-6.878-311.938m-352.633-69.352v464.815c-26.41 0-51.852.805-77.202-.341-12.89-.581-16.568-10.8-16.496-22.804.219-36.67.081-73.345.081-110.02 0-101.127-.01-202.264.026-303.395.005-22.778 5.4-28.122 28.57-28.234 21.499-.107 42.982-.02 65.016-.02m93.403-236.79c59.3.51 107.515 49.163 106.578 107.567-.958 60.064-49.468 107.657-109.242 107.189-59.504-.464-107.887-49.585-107.398-109.023.49-59.622 49.03-106.252 110.062-105.732" fill="#FFF"/></svg>