<svg class="icon" viewBox="0 0 1024 1024" xmlns="http://www.w3.org/2000/svg" width="200" height="200"><defs><style>@font-face{font-family:feedback-iconfont;src:url(//at.alicdn.com/t/font_1031158_u69w8yhxdu.woff2?t=1630033759944) format(&quot;woff2&quot;),url(//at.alicdn.com/t/font_1031158_u69w8yhxdu.woff?t=1630033759944) format(&quot;woff&quot;),url(//at.alicdn.com/t/font_1031158_u69w8yhxdu.ttf?t=1630033759944) format(&quot;truetype&quot;)}</style></defs><path d="M1019.619 510.11c0 281.366-228.082 509.453-509.453 509.453C228.806 1019.563.713 791.476.713 510.11.713 228.74 228.805.657 510.166.657c281.37 0 509.453 228.082 509.453 509.453" fill="#0740EC"/><path d="M961.235 510.11c0 249.117-201.947 451.07-451.069 451.07-249.112 0-451.07-201.953-451.07-451.07 0-249.122 201.958-451.07 451.07-451.07 249.122 0 451.07 201.948 451.07 451.07" fill="#FAFDFC"/><path d="M898.343 510.11c0 214.378-173.794 388.172-388.177 388.172-214.378 0-388.172-173.79-388.172-388.172s173.794-388.172 388.172-388.172 388.177 173.79 388.177 388.172" fill="#0740EC"/><path d="M468.9 362.725c-29.013 0-52.616 23.598-52.616 52.611V604.89c0 29.008 23.603 52.606 52.611 52.606h82.547c29.008 0 52.606-23.598 52.606-52.606V415.336c0-29.013-23.598-52.61-52.606-52.61H468.9zm82.542 345.715H468.9c-57.1 0-103.556-46.452-103.556-103.551V415.336c0-57.099 46.462-103.556 103.556-103.556h82.547c57.1 0 103.551 46.457 103.551 103.556V604.89c0 57.099-46.452 103.55-103.551 103.55z" fill="#FFF"/><path d="M649.96 756.283a25.417 25.417 0 0 1-19.36-8.89l-80.89-94.371a25.473 25.473 0 0 1 38.682-33.156l80.891 94.366a25.473 25.473 0 0 1-19.328 42.056" fill="#FFF"/><path d="M505.071 112.986h10.19V72.23h-10.19zm0 838.05h10.19V910.28h-10.19zM445.96 118.157l-10.037 1.768-7.076-40.135 10.036-1.767zm145.525 825.319-10.031 1.768-7.077-40.135 10.037-1.768zM378.61 135.286l-9.573 3.479-13.943-38.296 9.577-3.484zm286.633 787.506-9.577 3.485-13.939-38.296 9.578-3.49zM315.26 163.845l-8.824 5.095-20.378-35.295 8.823-5.095zm419.024 725.772-8.823 5.094-20.378-35.295 8.823-5.094zM257.83 202.977l-7.805 6.55-26.201-31.229 7.805-6.541zm538.685 641.98-7.805 6.552-26.196-31.224 7.805-6.546zM208.06 251.488l-6.546 7.804-31.22-26.196 6.552-7.81zM850.047 790.17l-6.551 7.805-31.22-26.196 6.552-7.805zm-682.57-482.278-5.094 8.824-35.295-20.379 5.095-8.823zM893.25 726.918l-5.095 8.823-35.294-20.378 5.094-8.823zM137.303 370.5l-3.485 9.572-38.296-13.939 3.48-9.577zm787.512 286.628-3.485 9.578-38.3-13.944 3.484-9.573zM118.463 437.39l-1.773 10.036-40.135-7.082 1.773-10.036zm825.319 145.525-1.768 10.036-40.145-7.081 1.778-10.037zM70.763 516.728h40.756v-10.19H70.763zm838.05 0h40.756v-10.19h-40.756zM116.69 575.834l1.773 10.037-40.14 7.081-1.768-10.036zm825.319-145.52 1.767 10.037-40.13 7.076-1.767-10.036zm-808.191 212.87 3.485 9.578-38.296 13.944-3.485-9.578zM921.33 356.561l3.485 9.572-38.296 13.944-3.49-9.577zM162.383 706.54l5.094 8.823-35.294 20.378-5.095-8.823zm725.771-419.025 5.095 8.823-35.295 20.379-5.094-8.824zm-686.64 476.46 6.552 7.805-31.225 26.196-6.546-7.805zm641.987-538.69 6.546 7.805-31.224 26.196-6.546-7.8zM250.019 813.74l7.805 6.551-26.196 31.22-7.81-6.552zm538.69-641.987 7.805 6.556-26.196 31.22-7.805-6.552zm-482.273 682.57 8.824 5.094-20.379 35.295-8.823-5.094zM725.46 128.55l8.823 5.095-20.378 35.295-8.823-5.095zM369.037 884.497l9.573 3.484-13.939 38.3-9.577-3.484zM655.666 96.985l9.572 3.484-13.933 38.3-9.578-3.484zM435.929 903.336l10.036 1.768-7.082 40.145-10.036-1.778zM581.454 78.018l10.036 1.767-7.081 40.145-10.032-1.778z" fill="#0740EC"/></svg>