<svg class="icon" viewBox="0 0 1024 1024" xmlns="http://www.w3.org/2000/svg" width="200" height="200"><defs><style>@font-face{font-family:feedback-iconfont;src:url(//at.alicdn.com/t/font_1031158_u69w8yhxdu.woff2?t=1630033759944) format(&quot;woff2&quot;),url(//at.alicdn.com/t/font_1031158_u69w8yhxdu.woff?t=1630033759944) format(&quot;woff&quot;),url(//at.alicdn.com/t/font_1031158_u69w8yhxdu.ttf?t=1630033759944) format(&quot;truetype&quot;)}</style></defs><path d="M1020.78 513.717c0 281.366-228.087 509.453-509.452 509.453-281.361 0-509.453-228.087-509.453-509.453 0-281.37 228.092-509.453 509.453-509.453 281.365 0 509.452 228.082 509.452 509.453" fill="#F4F4F4"/><path d="M325.607 480.557s49.992-241.44 256.484-280.587c206.49-39.156 249.968 82.649 252.138 132.682 2.175 50.023-36.95 174.009-217.358 158.781-184.758-32.63-291.264-10.876-291.264-10.876m371.436 66.315s-49.992 241.44-256.478 280.591c-206.497 39.152-249.969-82.653-252.139-132.682-2.175-50.028 36.95-174.008 217.353-158.786 184.758 32.63 291.264 10.877 291.264 10.877" fill="#4957B8"/></svg>