<svg class="icon" viewBox="0 0 1024 1024" xmlns="http://www.w3.org/2000/svg" width="200" height="200"><defs><style>@font-face{font-family:feedback-iconfont;src:url(//at.alicdn.com/t/font_1031158_u69w8yhxdu.woff2?t=1630033759944) format(&quot;woff2&quot;),url(//at.alicdn.com/t/font_1031158_u69w8yhxdu.woff?t=1630033759944) format(&quot;woff&quot;),url(//at.alicdn.com/t/font_1031158_u69w8yhxdu.ttf?t=1630033759944) format(&quot;truetype&quot;)}</style></defs><path d="M512.367 4.687C230.997 4.687 2.914 232.769 2.914 514.14c0 281.365 228.082 509.452 509.453 509.452 281.365 0 509.453-228.087 509.453-509.452 0-281.371-228.088-509.453-509.453-509.453" fill="#0E86CB"/><path d="M512.367 45.443c258.44 0 468.696 210.251 468.696 468.697 0 258.44-210.256 468.696-468.696 468.696C253.92 982.836 43.67 772.58 43.67 514.14c0-258.446 210.251-468.697 468.697-468.697" fill="#FFF"/><path d="M512.367 823.805c-3.515 0-7.03-.917-10.19-2.73L161.192 624.202a20.373 20.373 0 0 1-7.453-27.837 20.358 20.358 0 0 1 27.831-7.453l330.803 190.984L832.986 594.79v-44.383L522.56 729.633a20.393 20.393 0 0 1-20.378 0L161.19 532.76A20.378 20.378 0 0 1 151 515.113V421.72a20.378 20.378 0 0 1 40.757 0v81.63l320.614 185.104L843.175 497.46a20.388 20.388 0 0 1 30.567 17.648v91.446a20.378 20.378 0 0 1-10.189 17.648L522.561 821.075a20.388 20.388 0 0 1-10.19 2.73" fill="#0E86CB"/><path d="m212.136 421.725 300.23 173.336 300.231-173.336-300.23-173.341-300.23 173.341zm300.23 217.251a20.327 20.327 0 0 1-10.188-2.736L161.19 439.367a20.378 20.378 0 0 1 0-35.295l340.992-196.867a20.368 20.368 0 0 1 20.378 0l340.987 196.873a20.368 20.368 0 0 1 0 35.294L522.56 636.24a20.358 20.358 0 0 1-10.19 2.736z" fill="#0E86CB"/></svg>