<svg class="icon" viewBox="0 0 1024 1024" xmlns="http://www.w3.org/2000/svg" width="200" height="200"><defs><style>@font-face{font-family:feedback-iconfont;src:url(//at.alicdn.com/t/font_1031158_u69w8yhxdu.woff2?t=1630033759944) format(&quot;woff2&quot;),url(//at.alicdn.com/t/font_1031158_u69w8yhxdu.woff?t=1630033759944) format(&quot;woff&quot;),url(//at.alicdn.com/t/font_1031158_u69w8yhxdu.ttf?t=1630033759944) format(&quot;truetype&quot;)}</style></defs><path d="M1023.638 511.75c0 281.366-228.092 509.453-509.452 509.453-281.371 0-509.453-228.087-509.453-509.453S232.815 2.298 514.186 2.298c281.36 0 509.452 228.087 509.452 509.452" fill="#F4F4F4"/><path d="M95.655 600.023c16.588 11.427 32.656 23.725 49.865 34.139 68.96 41.724 144.022 65.8 223.833 75.608 48.556 5.965 97 6.18 145.01-4.188 36.753-7.937 71.95-20.16 103.017-42.106 17.612-12.441 32.3-27.623 39.921-48.235 9.899-26.757 4.656-52.092-8.66-76.316-12.498-22.712-30.033-41.19-49.367-58.114-4.203-3.683-8.502-7.26-12.761-10.882l.356-2.853c12.614 1.121 25.55.836 37.781 3.623 35.081 7.998 64.222 26.287 87.545 53.849 21.931 25.91 24.402 54.13 10.739 84.518-12.049 26.802-31.153 47.909-53.742 66.06-47.262 37.975-101.723 57.554-161.609 64.569-81.288 9.527-160.32 1.019-237.237-26.71-63.574-22.921-120.103-57.299-168.298-104.989-2.425-2.394-5.502-4.142-8.283-6.19l1.89-1.783M434.97 497.287c-29.895-7.922-59.469-17.189-82.053-40.38-19.308-19.827-21.667-44.536-7.234-70.518 16.455-29.635 42.387-49.315 71.053-65.857 36.834-21.254 77.335-30.597 119.003-35.702 67.885-8.314 135.515-5.222 202.992 5.003 64.599 9.791 127.363 25.956 187.147 52.754 3.098 1.385 6.114 2.954 8.712 5.553-15.86-5.844-31.627-11.967-47.608-17.464-86.684-29.824-175.879-42.794-267.412-38.184-51.506 2.598-102.278 10.123-149.917 31.423a170.01 170.01 0 0 0-30.659 17.663c-37.444 27.281-48.245 65.296-29.955 107.958 7.045 16.43 17.046 31.586 25.93 47.751" fill="#2885C4"/><path d="M732.95 678.948c10.81-7.744 21.886-14.734 31.891-23.017 24.362-20.17 41.342-44.848 43.375-77.57 1.717-27.55-7.616-52.168-21.927-74.955-28.514-45.393-71.277-71.07-121.54-85.823-23.205-6.811-46.946-9.695-71.12-7.703a89.817 89.817 0 0 0-17.392 3.093c-19.843 5.705-23.975 13.959-16.914 32.788-.54-.112-1.223-.046-1.569-.357-9.257-8.4-20.414-16.796-17.372-30.883 2.995-13.857 16.251-16.964 28.193-19.609 36.451-8.044 72.612-4.141 108.197 4.876 54.71 13.867 101.27 41.378 136.223 86.454 17.153 22.12 28.122 46.87 27.918 75.659-.189 25.636-10.245 47.21-26.95 65.908-21.453 24.01-48.847 39.228-78.176 51.363-.723.305-1.747-.122-2.837-.23m-267.045-152.86c4.035 9.057 9.445 17.774 11.758 27.255 2.995 12.263-2.863 21.504-15.569 24.612-11.02 2.7-22.885 4.707-34.031 3.612-55.032-5.42-103.898-25.121-142.107-66.535-38.83-42.086-39.987-89.618-3.607-133.894 21.117-25.707 48.143-43.477 79.067-55.724-2.889 1.885-5.772 3.79-8.67 5.67-22.529 14.57-42.03 32.213-55.399 55.82-19.685 34.77-19.013 69.358 4.091 101.973 32.9 46.447 79.128 67.502 135.525 67.217 3.973-.02 8.075-.907 11.87-2.14 11.672-3.795 15.233-9.374 14.417-21.62-.122-1.723-.193-3.445-.285-5.167l2.94-1.08z" fill="#2885C4"/></svg>