<svg class="icon" viewBox="0 0 1024 1024" xmlns="http://www.w3.org/2000/svg" width="200" height="200"><defs><style>@font-face{font-family:feedback-iconfont;src:url(//at.alicdn.com/t/font_1031158_u69w8yhxdu.woff2?t=1630033759944) format(&quot;woff2&quot;),url(//at.alicdn.com/t/font_1031158_u69w8yhxdu.woff?t=1630033759944) format(&quot;woff&quot;),url(//at.alicdn.com/t/font_1031158_u69w8yhxdu.ttf?t=1630033759944) format(&quot;truetype&quot;)}</style></defs><path d="M1022.283 513.187c0 281.37-228.087 509.453-509.453 509.453-281.37 0-509.452-228.082-509.452-509.453C3.378 231.821 231.46 3.734 512.83 3.734c281.366 0 509.453 228.087 509.453 509.453" fill="#020100"/><path d="M219.742 196.781 709.79 309.727a11.16 11.16 0 0 1 3.851 1.696l101.188 69.724a11.239 11.239 0 0 1 2.832 15.691l-341.628 488.31c-5.192 7.418-16.578 5.961-19.737-2.521L206.69 211.647c-3.118-8.386 4.336-16.878 13.052-14.866" fill="#FFF"/><path d="m237.807 238.016 443.668 102.258 97.203 66.977-312.02 445.965z" fill="#020100"/><path d="M466.72 891.023a10.19 10.19 0 0 1-10.148-11.208l34.087-338.277-279.72-320.904a10.19 10.19 0 0 1 15.365-13.389l282.619 324.231a10.22 10.22 0 0 1 2.455 7.713l-34.53 342.663a10.19 10.19 0 0 1-10.123 9.17" fill="#FFF"/><path d="M501.245 548.365a10.19 10.19 0 0 1-7.468-17.123l198.33-213.39a10.19 10.19 0 1 1 14.927 13.873L544.024 507.11l256.637-118.957a10.19 10.19 0 1 1 8.574 18.488l-303.71 140.767a10.038 10.038 0 0 1-4.28.953" fill="#FFF"/></svg>