<svg class="icon" viewBox="0 0 1024 1024" xmlns="http://www.w3.org/2000/svg" width="200" height="200"><defs><style>@font-face{font-family:feedback-iconfont;src:url(//at.alicdn.com/t/font_1031158_u69w8yhxdu.woff2?t=1630033759944) format(&quot;woff2&quot;),url(//at.alicdn.com/t/font_1031158_u69w8yhxdu.woff?t=1630033759944) format(&quot;woff&quot;),url(//at.alicdn.com/t/font_1031158_u69w8yhxdu.ttf?t=1630033759944) format(&quot;truetype&quot;)}</style></defs><path d="M1019.746 512.01c0 281.366-228.082 509.453-509.453 509.453C228.928 1021.463.841 793.376.841 512.01.84 230.64 228.928 2.557 510.293 2.557c281.371 0 509.453 228.082 509.453 509.453" fill="#0C2A92"/><path d="M774.164 447.62c-80.646 0-179.913 11.056-283.092 31.704-114.724 22.95-220.435 54.965-297.663 90.158-74.192 33.807-113.965 67.044-109.14 91.192 4.83 24.148 54.338 39.523 135.82 42.182 84.824 2.777 194.718-8.33 309.441-31.28 114.719-22.951 220.43-54.97 297.653-90.158 74.192-33.807 113.97-67.044 109.14-91.192-4.83-24.148-54.333-39.523-135.82-42.188a803.794 803.794 0 0 0-26.339-.418M246.392 713.076c-9.12 0-17.994-.138-26.624-.418-62.036-2.038-137.568-12.36-145.113-50.064-4.162-20.81 12.354-55.403 114.683-102.033 77.895-35.488 184.371-67.757 299.803-90.85 115.442-23.09 226.136-34.272 311.683-31.47 62.031 2.028 137.562 12.36 145.102 50.064 4.163 20.811-12.354 55.403-114.677 102.034-77.896 35.488-184.366 67.752-299.808 90.845-103.791 20.765-203.756 31.892-285.05 31.892" fill="#FFF"/><path d="m863.904 364.37-77.324 38.108-15.131 40.817-70.534 190.133c-40.93 12.71-85.69 24.607-133.033 35.132l-59.856-170.254-12.17-1.095-68.568 197.04-8.742 25.091-70.773 27.225-15.253-41.663-62.765-171.37-75.51-206.19h95.807l67.757 178.685 19.37 51.073 24.33-62.622 64.94-167.136h76.23l48.694 130.043 37.343 99.715 40.195-108.763 44.73-120.995 95.813-44.638 54.46 81.665z" fill="#FFF"/></svg>