<svg class="icon" viewBox="0 0 1024 1024" xmlns="http://www.w3.org/2000/svg" width="200" height="200"><defs><style>@font-face{font-family:feedback-iconfont;src:url(//at.alicdn.com/t/font_1031158_u69w8yhxdu.woff2?t=1630033759944) format(&quot;woff2&quot;),url(//at.alicdn.com/t/font_1031158_u69w8yhxdu.woff?t=1630033759944) format(&quot;woff&quot;),url(//at.alicdn.com/t/font_1031158_u69w8yhxdu.ttf?t=1630033759944) format(&quot;truetype&quot;)}</style></defs><path d="M796.045 778.882c7.82-178.385-95.339-265.2-151.15-298.916-37.067-22.411-67.604-54.435-86.107-93.582-65.536-138.428 29.278-249.306 29.278-249.306 57.365-71.98 129.187-109.838 230.212-88.227.036.01.036 0 .071.036a1001.64 1001.64 0 0 1 202.447 90.199c.04 1.722.04 3.449.04 5.176 0 240.502-84.212 461.345-224.79 634.625" fill="#67AFE2"/><path d="M686.212 894.41a1010.03 1010.03 0 0 1-174.283 125.927C311.8 906.041 154.629 725.15 70.63 507.868c78.185 40.166 173.208 74.94 240.257 53.167 133.885-43.441 231.373-115.07 360.57 1.197 72.608 65.358 88.345 149.265 70.743 235.25-7.672 37.46-27.546 71.364-55.989 96.929" fill="#1EBBAD"/><path d="M684.5 16.155c-79.943 30.934-184.268 96.679-192.863 230.283-.142 2.15-.035 4.3-.107 6.485-1.197 33.226.846 200.546-169.474 257.94 0 0-121.77 42.342-223.42-44.184-41.69-35.483-69.011-84.992-78.915-138.826A1014.993 1014.993 0 0 1 3.072 139.116l.02-.04C152.444 51.608 326.355 1.426 511.93 1.426c58.841 0 116.512 5.044 172.572 14.729" fill="#F7A800"/></svg>