<svg class="icon" viewBox="0 0 1029 1024" xmlns="http://www.w3.org/2000/svg" width="200.977" height="200"><defs><style>@font-face{font-family:feedback-iconfont;src:url(//at.alicdn.com/t/font_1031158_u69w8yhxdu.woff2?t=1630033759944) format(&quot;woff2&quot;),url(//at.alicdn.com/t/font_1031158_u69w8yhxdu.woff?t=1630033759944) format(&quot;woff&quot;),url(//at.alicdn.com/t/font_1031158_u69w8yhxdu.ttf?t=1630033759944) format(&quot;truetype&quot;)}</style></defs><path d="M514.278 0C231.506 0 2.288 229.223 2.288 511.99c0 282.772 229.218 511.99 511.99 511.99 282.762 0 511.99-229.218 511.99-511.99C1026.268 229.223 797.04 0 514.278 0" fill="#266BA6"/><path d="M514.278 980.87c-258.959 0-468.88-209.92-468.88-468.88 0-258.95 209.921-468.87 468.88-468.87 258.95 0 468.87 209.916 468.87 468.87 0 258.96-209.915 468.88-468.875 468.88" fill="#FFF"/><path d="M624.863 568.293c-7.035 0-13.947.533-20.695 1.552-20.187-17.188-35.772-38.538-34.405-63.057 1.065-19.108 9.983-35.025 22.783-48.189a138.349 138.349 0 0 0 28.692 3.011c76.133 0 137.858-61.726 137.858-137.864s-61.72-137.863-137.858-137.863c-76.143 0-137.863 61.725-137.863 137.863a137.341 137.341 0 0 0 35.276 92.087c-3.031 18.232-9.682 34.34-22.579 42.751-13.747 8.965-40.99 10.373-70.67 8.397-20.157-51.138-69.968-87.34-128.264-87.34-76.138 0-137.863 61.72-137.863 137.863 0 76.138 61.725 137.863 137.863 137.863 62.699 0 115.582-41.87 132.314-99.167 24.181-3.691 45.992-3.364 57.548 5.786 14.678 11.617 22.133 36.443 25.573 64.234A137.203 137.203 0 0 0 487 706.157c0 76.138 61.725 137.863 137.863 137.863 76.143 0 137.864-61.725 137.864-137.863s-61.72-137.864-137.864-137.864" fill="#2C71AE"/></svg>