<svg class="icon" viewBox="0 0 1170 1024" xmlns="http://www.w3.org/2000/svg" width="228.516" height="200"><defs><style>@font-face{font-family:feedback-iconfont;src:url(//at.alicdn.com/t/font_1031158_u69w8yhxdu.woff2?t=1630033759944) format(&quot;woff2&quot;),url(//at.alicdn.com/t/font_1031158_u69w8yhxdu.woff?t=1630033759944) format(&quot;woff&quot;),url(//at.alicdn.com/t/font_1031158_u69w8yhxdu.ttf?t=1630033759944) format(&quot;truetype&quot;)}</style></defs><path d="M223.056 512.193 362.73 754.208 251.611 948.002 0 512.193 254.537 71.346l111.119 193.8z" fill="#8F8886"/><path d="m767.649 823.255-1.463 2.575H600.883l43.184-75.25 40.96-71.446 98.713-172.09-98.655-171.974-40.96-71.446-37.273-65.009h159.334l97.543 168.93 83.5 144.648-80.515 139.498-99.065 171.564zm207.258-649.509L877.714 5.46H298.657l110.767 193.156 135.988 237.1 40.96 71.446-40.96 71.387L403.866 825.42l-111.06 193.565h584.908l1.112-1.93 99.006-171.506 192.454-333.356-195.38-338.447z" fill="#101142"/></svg>