<svg width="36" height="36" fill="none" xmlns="http://www.w3.org/2000/svg"><path d="M18 0c2.837 0 5.52.656 7.907 1.825C31.884 4.753 36 10.895 36 18c0 9.942-8.058 18-18 18-9.94 0-18-8.057-18-18C0 8.06 8.06 0 18 0z" fill="#F2F4F7"/><path fill-rule="evenodd" clip-rule="evenodd" d="M15.689 17.378c1.778 0 3.378-.844 4.355-2.133a4.7 4.7 0 0 0 3.334 1.378c2.555 0 4.622-2 4.622-4.445 0-2.444-2.067-4.444-4.622-4.444a4.63 4.63 0 0 0-3.334 1.4 5.444 5.444 0 0 0-4.355-2.133 5.289 5.289 0 0 0-5.378 5.177 5.286 5.286 0 0 0 5.378 5.2zm0-2.222c1.689 0 3.067-1.333 3.089-2.933v-.067c-.022-1.622-1.4-2.933-3.089-2.933s-3.067 1.333-3.067 2.955c0 1.645 1.378 2.978 3.067 2.978zm7.689-.755c-1.267 0-2.29-.978-2.311-2.178v-.045c.022-1.244 1.044-2.222 2.31-2.222 1.29 0 2.312 1 2.312 2.223 0 1.244-1.022 2.222-2.311 2.222zM14.8 26.245l-4.044 2.222A1.865 1.865 0 0 1 8 26.801v-6a1.867 1.867 0 0 1 2.667-1.645l4.11 2c.445-1.71 2-3.044 3.845-3.044h5.422c2.178 0 3.956 1.822 3.956 4.066v2.978c0 2.245-1.778 4.067-3.956 4.067h-5.422c-1.822 0-3.333-1.267-3.822-2.978zm3.778-5.911a1.711 1.711 0 0 0-1.689 1.711v3.244c0 .934.756 1.712 1.711 1.712h5.467c.955 0 1.71-.778 1.71-1.712v-3.244a1.71 1.71 0 0 0-1.71-1.711h-5.489zm-4.444 3.155-3.067-1.622c-.356-.178-.756.09-.756.49v3.355c0 .4.4.666.756.489l3.089-1.6V23.49h-.023z" fill="#FF4907"/></svg>