<svg width="36" height="36" fill="none" xmlns="http://www.w3.org/2000/svg"><path d="M18 0c2.837 0 5.52.656 7.907 1.825C31.884 4.753 36 10.895 36 18c0 9.942-8.058 18-18 18-9.94 0-18-8.057-18-18C0 8.06 8.06 0 18 0z" fill="#F2F4F7"/><path fill-rule="evenodd" clip-rule="evenodd" d="M9.79 15.02c0 .01-.018.022-.04.028-.137.037-.247.3-.177.421a.76.76 0 0 1 .03.056c.016.038.115.131.138.131.011 0 .033.009.048.02.037.026.18.025.21-.002a.07.07 0 0 1 .038-.018c.107 0 .222-.238.183-.38-.029-.104-.132-.226-.192-.226-.01 0-.022-.011-.025-.024-.008-.03-.213-.036-.213-.006zm.18.051a.161.161 0 0 0 .046.018c.068.017.14.112.157.208.024.133-.05.29-.15.318a.615.615 0 0 0-.068.026c-.04.018-.135.013-.148-.008-.003-.005-.02-.013-.037-.017-.128-.032-.222-.277-.144-.377a.108.108 0 0 0 .024-.045c0-.077.253-.175.32-.123zm-.221.121c-.015.08-.002.318.017.318.013 0 .02-.017.024-.064l.005-.064.06-.003.06-.004.043.07c.044.07.084.096.096.064.006-.016-.03-.069-.063-.09-.02-.013-.018-.06.003-.078a.313.313 0 0 0 .042-.048l.024-.034-.026-.04c-.035-.058-.054-.064-.173-.064h-.105l-.007.037zm.22.023c.045.063.004.114-.09.114-.071 0-.09-.013-.09-.065 0-.075.137-.112.18-.049zm7.658.734c-.015.008-.02.026-.02.06a.213.213 0 0 1-.016.079l-.015.029-.22.006-.222.006-.003.182c-.004.218-.031.197.244.197.216 0 .231.006.231.084 0 .044.02.046.373.042l.298-.004.007-.045c.004-.026.017-.053.029-.062.03-.022 1.99-.023 2.01 0a.174.174 0 0 1 .02.058l.008.044.316-.003.316-.003.017-.035c.035-.077.032-.076.257-.076.257 0 .236.017.236-.19 0-.215.024-.195-.23-.195-.22 0-.249-.006-.25-.05-.008-.146.018-.136-.345-.137-.345 0-.332-.003-.332.093 0 .102.088.094-1.015.094-1.119 0-1.027.009-1.036-.1-.003-.038-.011-.073-.018-.078a5.047 5.047 0 0 0-.64.004zm6.724.038c-.014.017-.004.066.026.12.037.071.058.146.043.16-.01.01-.14.013-.475.013-.562 0-.534.011-.392-.156.073-.086.08-.084-.29-.08l-.327.003-.023.03-.06.07c-.02.022-.08.095-.135.163a2.833 2.833 0 0 1-.12.143c-.012.011-.022.024-.022.029 0 .005-.021.03-.047.058a.294.294 0 0 0-.046.059.214.214 0 0 1-.038.05c-.02.022-.062.069-.09.104l-.053.063-.003.414c-.004.407 0 .496.02.489.01-.004.113-.133.213-.27.146-.198.138-.224.138.41 0 .45.002.526.017.539.017.014.604.012.618-.002a.43.43 0 0 0 .015-.086l.009-.081 1.798-.006c.99-.003 1.802-.009 1.805-.012.01-.01.011-.303.002-.313-.004-.004-.382-.01-.84-.01-.722-.004-.834-.006-.846-.022-.017-.02-.02-.177-.003-.193.005-.005.364-.011.799-.013.433-.002.791-.006.794-.009a.83.83 0 0 0 .012-.12c.01-.178.103-.16-.82-.16-.734 0-.78-.001-.787-.02a.4.4 0 0 1 .005-.184c.013-.015.113-.018.79-.018.461 0 .783-.004.795-.01.024-.013.025-.262.001-.286-.008-.009-.26-.015-.802-.019l-.79-.005-.007-.064a.44.44 0 0 1 .001-.1l.007-.035.816-.005c.45-.004.823-.01.831-.016a.986.986 0 0 0 .005-.308c-.007-.01-.2-.015-.838-.017-.643-.003-.833-.007-.846-.018a1.352 1.352 0 0 1-.126-.245c0-.05-.694-.082-.734-.034zm3.412.014a287.77 287.77 0 0 0 0 3.942c.008.02 3.8.028 3.946.007.113-.016.247-.09.247-.137 0-.008.01-.021.024-.03.023-.014.023-.027.023-1.907v-1.893h-2.116c-1.92 0-2.117.002-2.124.018zm-15.795.177c-.019.005-.02.02-.018.182l.004.177h4.445l.003-.174c.002-.132 0-.177-.012-.184a325.82 325.82 0 0 0-4.422-.001zm19.39.22.027.018v1.53c0 1.707.007 1.561-.083 1.607-.062.032-2.908.031-2.928 0-.007-.011-.01-.608-.008-1.58l.003-1.564.029-.014c.048-.025 2.926-.022 2.96.003zm-1.732.074c-.014.022-.032.023-.556.027a9.97 9.97 0 0 0-.55.01 1.5 1.5 0 0 0 0 .312c.006.01.145.013.541.013.564 0 .562 0 .562.054 0 .067.026.063-.483.063-.35 0-.473.004-.483.014-.02.02-.02 1.154 0 1.174.01.01.132.014.477.014.503 0 .5 0 .484.064l-.007.03h-.54c-.405 0-.544.003-.554.013-.016.016-.02.286-.005.31.008.011.207.015.907.017l.898.003v.094l-.874.003c-.682.002-.877.006-.884.017a.877.877 0 0 0 .006.299c.011.01.266.014.884.016l.868.003.004.05c.006.082 0 .084-.207.084-.128 0-.19.005-.203.015-.023.017-.033.28-.012.301.008.008.166.01.442.008l.431-.003.05-.034c.063-.044.074-.079.081-.258.007-.175.001-.169.153-.169.19 0 .177.013.177-.163 0-.177.014-.164-.17-.164-.12 0-.134-.002-.145-.022-.032-.06 0-.094.115-.118a.174.174 0 0 0 .072-.03c.008-.009.02-.016.028-.016.048 0 .152-.163.165-.259.01-.068.006-.07-.135-.072-.139-.002-.143-.005-.091-.069.06-.075.068-.142.068-.666v-.45l-.027-.018c-.022-.016-.085-.018-.467-.018-.482.001-.463.003-.463-.05 0-.068-.014-.067.52-.067.593 0 .538.02.532-.178-.005-.175.048-.16-.55-.16-.478 0-.49 0-.502-.023-.02-.036-.535-.037-.557 0zm-10.655.167a.268.268 0 0 0-.03.079c-.012.071-.017.08-.054.092a.867.867 0 0 1-.173.013c-.16 0-.151-.009-.151.14 0 .133.014.126-.261.13-.215.004-.232.006-.248.027-.104.146-.139.17-.232.167-.102-.004-.101-.022.006-.136.01-.01.052-.06.094-.111.041-.05.099-.117.128-.147.187-.197.194-.187-.128-.187-.258 0-.327.011-.327.051 0 .01-.06.084-.125.16a2.68 2.68 0 0 0-.094.116 5.944 5.944 0 0 1-.094.117 1.31 1.31 0 0 0-.132.165l-.036.055.004.157c.005.19-.016.172.198.175.24.003.242.004.142.11a5.232 5.232 0 0 0-.128.138l-.107.121c-.058.064-.062.082-.058.274l.004.152.5.003c.486.003.503.002.549-.021.052-.026.158-.133.158-.159 0-.009.01-.03.02-.047.023-.034.038-.414.018-.443-.008-.013-.118-.019-.309-.016h-.055v.08c0 .137-.026.166-.15.166-.106 0-.103-.021.023-.15a.817.817 0 0 1 .115-.107c.006 0 .012-.009.012-.019s.015-.035.033-.055l.143-.16a20.93 20.93 0 0 1 .263-.29c.075-.085.074-.09.074.539 0 .441.003.568.015.584.014.02.052.02.592.017l.577-.004.053-.027a.255.255 0 0 0 .135-.137l.028-.06v-.665c0-.367-.003-.674-.007-.685-.006-.015-.032-.018-.162-.018-.222 0-.233-.003-.222-.063a.8.8 0 0 0 .01-.1l.002-.053-.295-.003-.295-.003-.023.038zm5.472.026c.034.173.03.175-.461.176-.486.002-.439-.015-.553.202a.331.331 0 0 1-.04.057c-.043.047-.023.05.518.052l.518.003.015.031c.026.055.007.134-.04.162-.038.022-.06.023-.451.023h-.412l-.03.032a.318.318 0 0 0-.049.073.707.707 0 0 1-.068.12c-.046.069-.059.067.515.067.302 0 .528.004.531.01.01.016.011.133.002.16-.014.047-.07.052-.592.052-.37 0-.499-.004-.51-.015a16.768 16.768 0 0 1-.005-1.238c.004-.004.255-.006.556-.005l.55.003.006.035zm-3.978.048c-.02.017-.036.036-.036.044a.26.26 0 0 1-.041.066.55.55 0 0 0-.051.079c-.007.014-.017.026-.024.026-.006 0-.012.006-.012.013a.29.29 0 0 1-.044.073c-.04.053-.096.135-.157.227-.039.06-.044.086-.044.239 0 .197-.015.182.193.185.153.003.175.006.178.023.004.02-.092.132-.247.294-.103.107-.112.131-.112.31 0 .21-.064.188.554.188.673 0 .654.004.8-.199.033-.047.052-.448.022-.485-.016-.019-.354-.024-.383-.006-.012.008-.016.034-.015.093.002.12-.023.147-.136.147-.094 0-.104-.006-.085-.047a.774.774 0 0 1 .096-.134 2.7 2.7 0 0 0 .086-.11c.044-.058.086-.113.095-.123l.21-.262.206-.26c.024-.031-.021-.038-.267-.038h-.246l-.094.1-.093.099h-.065c-.072 0-.11-.026-.078-.051a.392.392 0 0 0 .052-.066c.019-.03.054-.077.078-.107a.314.314 0 0 0 .045-.063c0-.005.017-.03.038-.056l.072-.1a.891.891 0 0 1 .058-.08c.038-.044.01-.049-.264-.049h-.253l-.036.03zm-7.028.53a.782.782 0 0 0-.054.103c0 .005-.01.02-.023.031-.013.012-.024.026-.024.031a3 3 0 0 1-.148.264 2.533 2.533 0 0 0-.077.137 1.633 1.633 0 0 0-.148.257 1.247 1.247 0 0 1-.14.23c0 .005-.028.056-.061.114-.034.059-.073.125-.086.15a3.703 3.703 0 0 0-.053.095l-.028.052.006.595.006.595h1.558c1.488 0 1.56-.001 1.627-.022a.517.517 0 0 0 .363-.305l.034-.07v-2.345l-1.349-.003-1.349-.003-.054.093zm5.97-.086c.016.005.02.029.02.133 0 .15.01.14-.17.14-.16 0-.159 0-.161-.138-.003-.143-.003-.143.162-.143.072 0 .14.004.15.008zm10.214.177c.006.069-.004.072-.209.072-.202 0-.22-.006-.22-.069 0-.048 0-.048.22-.045l.205.003.004.039zm.96-.01c.016.067-.02.082-.205.082-.18 0-.193-.004-.193-.064 0-.053 0-.053.203-.05l.187.003.007.03zm-15.098.21c.013.026.016 1.819.002 1.896-.016.092.02.09-1.102.085l-.979-.003-.022-.028c-.033-.04-.035-1.94-.002-1.96.044-.026 2.089-.016 2.102.01zm14.138.22c.005.057-.005.06-.206.06-.185 0-.224-.008-.224-.046 0-.06 0-.06.22-.056l.206.003.004.04zm.94-.037c.027.01.023.058-.007.08-.034.023-.334.026-.357.003-.015-.015-.02-.07-.006-.083.01-.01.345-.01.37 0zm-11.153.093c.014.006.018.026.018.102 0 .159-.027.182-.21.182-.114 0-.12-.007-.119-.145a.383.383 0 0 1 .015-.13c.014-.017.256-.024.296-.01zm11.286.389c-.007.032-.091.045-.298.046l-.201.001-.007-.029c-.016-.063-.014-.063.242-.067.248-.003.273.001.264.049zm-6.33.131c-.009.009-.014.051-.014.11v.095l-.042.025c-.041.024-.048.024-.95.024-.817 0-.908.002-.915.019a1.56 1.56 0 0 0 0 .29c.007.016.055.018.431.018.506 0 .509 0 .431.105a.149.149 0 0 0-.029.06c0 .011-.006.024-.013.028a.134.134 0 0 0-.03.045 1.05 1.05 0 0 1-.042.079l-.064.107c-.056.095-.11.147-.157.15-.02.002-.118.003-.215.003-.223 0-.208-.014-.208.205 0 .226-.038.204.36.204.372 0 .396-.004.562-.09.051-.026.203-.175.229-.223l.173-.341c.181-.358.156-.334.343-.33l.13.004.006.48c.003.265.01.485.015.49.017.017.741.02.761.004.014-.012.017-.088.017-.484 0-.55-.015-.5.147-.494.118.006.162.03.186.105a.414.414 0 0 0 .041.073.675.675 0 0 1 .046.078.727.727 0 0 0 .047.08c.019.03.043.069.052.088.01.02.031.056.047.082a.599.599 0 0 1 .042.078c.007.018.017.032.022.032.006 0 .026.029.046.064.038.066.178.216.201.216.007 0 .022.008.032.017a.82.82 0 0 0 .228.066c.089.014.599.013.625-.001.028-.015.035-.341.008-.376-.012-.016-.046-.02-.22-.023l-.207-.003-.037-.035a.289.289 0 0 1-.054-.07 1.533 1.533 0 0 0-.068-.117 4.346 4.346 0 0 1-.192-.332c0-.021.054-.024.455-.024.364 0 .42-.002.436-.018.03-.03.027-.28-.004-.296-.015-.009-.33-.013-.939-.013-1.058 0-.94.018-.94-.142 0-.06-.005-.103-.014-.112-.02-.02-.745-.02-.765 0zm-5.367.187c-.008.008-.014.042-.014.076 0 .081.086.074-.888.077a21.49 21.49 0 0 0-.87.011c-.012.007-.015.063-.015.212 0 .151.003.204.014.208a9.1 9.1 0 0 0 .411.007c.442.002.43 0 .38.079-.019.03-.046.08-.06.107a.406.406 0 0 1-.067.09l-.04.04h-.283c-.342 0-.31-.021-.306.212l.003.18h.982l.047-.033a.528.528 0 0 0 .153-.186.34.34 0 0 1 .047-.07c.006-.002.017-.017.026-.035a3.26 3.26 0 0 1 .172-.277l.068-.1h.22l.003.379c.002.255.008.383.016.393.014.017.545.024.602.008l.027-.007v-.383c0-.267.003-.385.012-.39.015-.01.225-.008.25.002.008.003.023.025.034.049a.99.99 0 0 0 .047.09c.015.025.047.083.07.128a4.065 4.065 0 0 0 .117.21c.063.116.073.128.157.186l.051.035.501.004c.368.002.506 0 .517-.01.023-.019.024-.355.002-.37a2.916 2.916 0 0 0-.312-.012c-.372-.005-.344.012-.487-.296-.009-.018.06-.022.415-.023.218 0 .39-.005.401-.012.033-.017.032-.382-.001-.411-.02-.02-.082-.02-.881-.018-.962.003-.884.011-.893-.092l-.006-.066-.304-.003c-.227-.003-.307 0-.318.01zm9.899.577c-.017.017-.006.046.038.098a.91.91 0 0 1 .072.099.512.512 0 0 0 .13.145c.007 0 .023.01.035.02.02.018.055.021.279.025.338.005.313.015.313-.118 0-.137-.003-.14-.101-.145-.11-.005-.122-.01-.162-.06a.203.203 0 0 0-.07-.059 3.45 3.45 0 0 0-.534-.005zm-24.164.587a.825.825 0 0 0-.122.022.302.302 0 0 1-.074.013.378.378 0 0 0-.148.06l-.054.027a.765.765 0 0 0-.194.19 5.062 5.062 0 0 1-.028.056.594.594 0 0 0-.067.175.126.126 0 0 1-.024.06c-.031.022-.026.427.005.459a.091.091 0 0 1 .024.056c0 .018.01.053.023.078a.244.244 0 0 1 .023.058c0 .014.084.136.13.19a.689.689 0 0 0 .32.182c.025.004.052.015.059.025.015.02.448.027.448.006 0-.006.027-.019.06-.029.163-.048.372-.208.372-.284 0-.006.01-.023.021-.038a.365.365 0 0 0 .042-.092.88.88 0 0 1 .025-.077c.006-.014-.134-.075-.17-.075a.152.152 0 0 1-.056-.016.565.565 0 0 0-.199-.038c-.006.004-.014.027-.019.05-.043.232-.342.322-.524.157-.076-.07-.092-.135-.093-.38v-.222l.033-.063c.134-.25.49-.25.58.001.014.038.017.038.096.016.033-.01.088-.023.124-.03.24-.05.236-.04.121-.244-.064-.113-.26-.258-.35-.258a.536.536 0 0 1-.087-.016.884.884 0 0 0-.297-.019zm1.591 0a.543.543 0 0 0-.101.016.382.382 0 0 1-.073.02c-.418.079-.517.615-.149.8a.834.834 0 0 0 .208.086.15.15 0 0 1 .056.016.491.491 0 0 0 .111.029.348.348 0 0 1 .093.023.17.17 0 0 0 .055.019c.114.023.192.132.159.22-.076.198-.452.148-.492-.066-.013-.07-.04-.08-.17-.067a2.34 2.34 0 0 1-.191.012c-.11.001-.115.005-.105.088a.567.567 0 0 0 .198.34.68.68 0 0 0 .19.086c.033 0 .096.024.096.036 0 .02.475.013.482-.006.004-.01.027-.02.051-.025.273-.047.506-.412.407-.638a.42.42 0 0 1-.023-.068c-.018-.085-.277-.28-.374-.28a.153.153 0 0 1-.052-.016.32.32 0 0 0-.084-.025.837.837 0 0 1-.118-.03.434.434 0 0 0-.103-.021c-.104 0-.19-.089-.163-.169.05-.154.332-.116.406.055.014.03.031.056.04.056.084.008.375-.02.41-.038.015-.008.02-.019.014-.037a1.61 1.61 0 0 1-.02-.076c-.056-.234-.377-.379-.758-.34zm3.31.002a.598.598 0 0 0-.115.02.194.194 0 0 1-.058.013.233.233 0 0 0-.072.022l-.09.042c-.263.12-.407.475-.357.88a.73.73 0 0 0 .082.293c.05.107.244.303.3.303a.05.05 0 0 1 .034.016.216.216 0 0 0 .083.03c.04.008.074.021.077.03.01.026.47.026.47 0 0-.01.017-.02.045-.023.127-.02.319-.172.38-.3.09-.19.093-.203.045-.22a.668.668 0 0 1-.055-.023.41.41 0 0 0-.076-.022 1.14 1.14 0 0 1-.11-.03c-.122-.042-.121-.042-.146-.01a.272.272 0 0 0-.036.072c-.083.257-.531.269-.579.015a.475.475 0 0 0-.023-.08c-.055-.132-.005-.457.086-.561.147-.168.448-.13.51.066.012.039.052.05.113.03a1.33 1.33 0 0 1 .115-.027c.194-.037.225-.05.205-.091a6.52 6.52 0 0 1-.049-.103c-.062-.131-.28-.309-.38-.309a.636.636 0 0 1-.087-.016 1.02 1.02 0 0 0-.313-.017zm-2.233.043c-.019.012-.02 1.551-.002 1.57.016.016.444.019.464.003.01-.008.014-.079.014-.28 0-.15.006-.278.012-.288.009-.014.055-.019.243-.025.128-.004.245-.01.26-.015a.458.458 0 0 0 .334-.303.993.993 0 0 0 .004-.369c-.055-.144-.088-.182-.21-.248l-.089-.049-.507-.003a7.34 7.34 0 0 0-.523.007zm.687.307c.242.032.269.285.038.354-.072.021-.215.023-.235.003a1.29 1.29 0 0 1-.005-.343c.018-.028.072-.032.202-.014z" fill="#005390"/><path fill-rule="evenodd" clip-rule="evenodd" d="m5.092 17.112.007 2.111c.003.013.06-.03.066-.048.006-.019.25-.452.32-.567l.765-1.342c.415-.728.767-1.336.782-1.35l.03-.027.631.003c.701.004.671 0 .616.078-.03.04-.03.041-.006.065.017.017.056.019.317.017.24-.002.3.001.307.014.014.021.014.042 0 .05a.786.786 0 0 0-.069.11 17.953 17.953 0 0 1-.137.241l-.043.078a104.44 104.44 0 0 0-.56.984 3.305 3.305 0 0 0-.084.146 4.418 4.418 0 0 1-.07.122 89.64 89.64 0 0 1-.436.768c-.428.747-.409.709-.352.72.065.015 2.161.014 2.198 0l.03-.012v-4.27H5.086l.007 2.109zm7.828-.54a.799.799 0 0 0-.099.147 17.216 17.216 0 0 1-.19.328 17.334 17.334 0 0 0-.187.32l-.158.268-.157.268c-.013.022-.08.136-.147.254l-.124.215-.008.762c-.007.69-.004.823.019.792l.086-.134a.86.86 0 0 0 .036-.064 12.142 12.142 0 0 1 1.531-2.648 1.43 1.43 0 0 0 .058-.1c.014-.025.036-.065.05-.087a1.792 1.792 0 0 0 .078-.131 48.486 48.486 0 0 0 .084-.146c.008-.013.011-.032.007-.042-.01-.028-.84-.03-.879-.002z" fill="#E42220"/><path fill-rule="evenodd" clip-rule="evenodd" d="M9.727 15.02a.031.031 0 0 1-.028.018c-.022 0-.083.06-.127.124a.407.407 0 0 0 0 .382c.038.055.104.124.12.124a.13.13 0 0 1 .045.026c.041.032.28.036.303.006a.094.094 0 0 1 .041-.026.39.39 0 0 0 .146-.16.095.095 0 0 1 .024-.045c.012-.01.017-.041.017-.116 0-.075-.005-.106-.017-.116a.1.1 0 0 1-.024-.047.422.422 0 0 0-.147-.158c-.012-.004-.022-.012-.022-.018 0-.006-.014-.011-.03-.011-.036 0-.036.038 0 .045.124.024.233.236.193.378-.03.11-.127.23-.184.23a.07.07 0 0 0-.038.018c-.03.027-.173.028-.21.002a.108.108 0 0 0-.048-.02c-.023 0-.122-.093-.139-.13a.76.76 0 0 0-.029-.056c-.07-.122.04-.385.177-.422.022-.006.04-.019.04-.028 0-.023-.054-.022-.063 0zm.066.058c-.066.028-.143.09-.143.116 0 .009-.01.03-.024.045-.078.1.016.345.144.377.017.004.034.012.037.018.013.02.108.025.148.007a.615.615 0 0 1 .068-.026c.1-.029.174-.185.15-.317-.017-.097-.089-.192-.156-.208a.161.161 0 0 1-.048-.019c-.03-.023-.115-.02-.176.007zm-.386.053c0 .023.003.032.006.02a.098.098 0 0 0 0-.04c-.003-.011-.006-.002-.006.02zm.598-.012c.004.006-.037.01-.098.01a.333.333 0 0 1-.112-.01c-.004-.007.037-.011.098-.011a.33.33 0 0 1 .112.01zm-.017.047c.011.006.033.03.046.053l.026.04-.024.034a.314.314 0 0 1-.042.048c-.021.018-.024.065-.003.078.032.021.07.074.063.09-.012.032-.052.006-.096-.064l-.044-.07-.06.004-.059.003-.005.064c-.005.047-.011.064-.024.064-.019 0-.032-.238-.017-.317l.007-.038h.105c.058 0 .115.005.127.011zm-.18.042c-.022.022-.024.088-.004.108.043.043.184.002.184-.054 0-.066-.13-.105-.18-.054zm.322.04c.028.03.02.187-.01.226-.024.03-.028.031-.035.012a.152.152 0 0 0-.03-.042c-.028-.029-.027-.093.003-.112.019-.012.023-.027.024-.081 0-.061.001-.065.017-.044l.031.04zm-.417.099c0 .08-.004.148-.008.153-.014.014-.044-.006-.044-.03a.201.201 0 0 0-.02-.065c-.018-.039-.018-.045.002-.108l.025-.081c.002-.008.014-.015.025-.015.019 0 .02.014.02.146zm.24-.092c.02.022-.076.035-.122.017-.023-.008-.023-.009 0-.022.021-.013.107-.01.121.005zm-.046.184a.131.131 0 0 0 .04.047c.01.003.018.013.018.022s.013.028.029.044c.04.037.02.047-.097.047-.104 0-.145-.01-.115-.027.026-.014.057-.077.05-.098-.027-.069.038-.098.075-.035zm-1.643.459a.1.1 0 0 0 .041 0c.011-.003.002-.006-.02-.006-.023 0-.032.003-.02.006zm9.321.03a.203.203 0 0 0-.016.079l-.004.063-.204.003c-.28.004-.256-.018-.256.243 0 .26-.024.237.245.241l.215.003.004.038c.002.02.013.045.025.053.022.015.014.067-.01.067a.012.012 0 0 0-.013.012c0 .007-.016.03-.036.05a.58.58 0 0 0-.063.077.829.829 0 0 1-.063.083 1.62 1.62 0 0 0-.12.145 6.32 6.32 0 0 1-.138.17c-.054.065-.056.072-.057.277-.001.214-.018.198.215.2h.169c.003.001-.002.008-.012.016a2.058 2.058 0 0 0-.157.177c-.032.038-.08.09-.106.116-.08.081-.119.402-.057.479l.024.03h.493c.395 0 .498-.004.519-.017a.216.216 0 0 1 .055-.022.458.458 0 0 0 .158-.153c.004-.014.013-.028.02-.032.02-.013.03-.11.03-.316.001-.248.016-.23-.196-.23-.179 0-.178 0-.066-.112.067-.066.159-.169.236-.261.018-.023.052-.058.074-.08l.04-.038.007.578c.005.497.008.58.023.59.01.006.106.01.214.01h.197l-.007.027a.407.407 0 0 0-.007.082v.055h-.878c-.765 0-.881.003-.902.019-.025.019-.04.294-.023.41.01.072-.013.069.487.071.382.002.384.003.324.072-.013.015-.023.034-.023.043 0 .008-.01.024-.024.036-.013.01-.023.026-.023.034 0 .056-.03.062-.338.062-.288 0-.291 0-.322.027l-.032.027-.002.18c0 .185.008.234.047.249.055.02.944.006.991-.016a.317.317 0 0 1 .056-.023c.018-.001.09-.065.09-.08 0-.008.008-.018.018-.022.01-.003.026-.023.035-.043a.48.48 0 0 1 .066-.11.15.15 0 0 0 .026-.046c.005-.015.013-.026.018-.026.01 0 .03-.032.063-.1a.186.186 0 0 1 .036-.052c.01-.008.018-.021.018-.029s.01-.026.023-.041c.013-.015.024-.034.024-.043 0-.009.007-.019.016-.023.01-.003.023-.021.03-.04.015-.034.016-.034.107-.034h.092v.383c0 .35.001.385.02.402.024.021.626.027.653.005.012-.008.015-.103.015-.4v-.39h.1c.107 0 .136.014.151.075a.114.114 0 0 0 .03.048c.012.011.022.03.022.04 0 .011.01.03.024.041.012.012.023.03.023.041 0 .011.008.027.017.035a.09.09 0 0 1 .025.039.21.21 0 0 0 .03.053.102.102 0 0 1 .021.05c0 .012.007.025.016.028.009.003.023.027.031.052.008.025.02.046.025.046.006 0 .01.006.01.013 0 .022.102.11.165.143l.059.03h.499c.398 0 .502-.002.512-.014a.955.955 0 0 0 .014-.225c.002-.275.038-.25-.357-.25-.329 0-.344-.003-.344-.06 0-.012-.008-.026-.017-.03-.01-.003-.018-.012-.018-.02a.291.291 0 0 0-.03-.07c-.037-.072-.078-.064.377-.068.315-.002.4-.006.416-.019.03-.025.028-.419-.002-.455l-.02-.025-.887-.003-.886-.003v-.058a.264.264 0 0 0-.01-.079c-.007-.014-.005-.02.007-.02a.46.46 0 0 0 .297-.158l.032-.046.004-.726c.004-.872.031-.773-.215-.773h-.17l.008-.036a.317.317 0 0 1 .024-.067c.042-.08.026-.084-.345-.084-.363 0-.355-.002-.366.09-.011.097-.011.097-.18.097-.195 0-.2.005-.2.181v.099h-.457l-.031.033a.919.919 0 0 0-.12.144c0 .005-.006.01-.015.01-.01 0-.02.007-.023.017-.005.012-.024.017-.06.017h-.055l.028-.035a1.54 1.54 0 0 1 .07-.082.34.34 0 0 0 .044-.054.4.4 0 0 1 .05-.057 1.47 1.47 0 0 0 .061-.066c.04-.051.141-.167.148-.17a.352.352 0 0 0 .045-.068.243.243 0 0 1 .07-.08c.034-.018.037-.023.04-.07 0-.023.01-.024.988-.027l.988-.002.004.043.004.044.07.004c.073.003.105.018.068.03a.273.273 0 0 0-.086.11c0 .006-.01.02-.023.031-.013.012-.023.028-.023.036 0 .008-.01.024-.02.035a.242.242 0 0 0-.033.04 1.646 1.646 0 0 1-.05.075.287.287 0 0 0-.037.065c0 .006-.01.016-.024.023-.013.007-.023.019-.023.026a.412.412 0 0 1-.078.12c-.035.029-.057.242-.038.36.017.104.027.109.196.111.154.003.164.006.128.042a4.39 4.39 0 0 0-.273.303c-.037.055-.045.441-.01.454.042.017 1.142.008 1.166-.008a.229.229 0 0 1 .051-.025.5.5 0 0 0 .161-.16c.044-.049.062-.146.062-.336 0-.25.017-.233-.24-.233-.112 0-.203-.004-.203-.008s.029-.043.064-.086a.452.452 0 0 0 .064-.091c0-.007.01-.018.023-.025.013-.007.024-.02.024-.03 0-.008.006-.02.014-.025a.482.482 0 0 0 .061-.07.266.266 0 0 1 .055-.062c.005 0 .01-.008.01-.017 0-.01.01-.023.023-.03.013-.007.023-.02.023-.029 0-.009.007-.02.015-.026a.57.57 0 0 0 .125-.182c0-.052-.012-.054-.294-.054h-.265l-.082.083a.637.637 0 0 0-.088.104c-.007.02-.039.034-.085.034-.032 0-.034-.027-.002-.058.012-.013.023-.028.023-.033 0-.006.01-.02.023-.031a.124.124 0 0 0 .03-.044.145.145 0 0 1 .027-.044.585.585 0 0 0 .066-.082c.023-.038.058-.088.107-.152.056-.072.061-.097.027-.118-.013-.009-.018-.019-.012-.026a.118.118 0 0 0 .014-.048l.004-.035.221-.005c.27-.008.25.014.248-.249 0-.202-.008-.229-.07-.23l-.213-.003-.186-.003-.004-.064c-.005-.096.008-.093-.375-.093-.376 0-.362-.004-.362.088 0 .081.083.075-1.004.075-1.04 0-.98.005-.97-.075.009-.085-.004-.088-.404-.088-.26 0-.34.003-.35.015zm6.725.015c-.023.023-.024.08-.002.098.01.007.02.03.025.05a.36.36 0 0 0 .031.081c.043.082.059.08-.415.08-.492 0-.482.002-.374-.1a.166.166 0 0 0 .04-.047c0-.005.008-.02.02-.031.017-.02.017-.023 0-.04-.022-.022-.008-.022-.411-.018l-.315.002-.1.125a2.603 2.603 0 0 1-.125.15.113.113 0 0 0-.026.033.169.169 0 0 1-.036.045.484.484 0 0 0-.055.066.156.156 0 0 1-.034.04.034.034 0 0 0-.015.025c0 .01-.007.02-.016.026a1.49 1.49 0 0 0-.12.137l-.103.129-.004.449c-.005.647-.015.633.226.31a2.43 2.43 0 0 1 .075-.098c.013-.015.024-.032.024-.038 0-.006.006-.01.014-.01.012 0 .015.105.015.49v.491l.027.023c.026.02.05.022.34.022.364 0 .35.004.35-.105 0-.05.005-.07.019-.075.01-.003.817-.007 1.794-.007 1.446 0 1.78-.003 1.797-.015.024-.017.029-.329.006-.371-.011-.021-.046-.022-.857-.022h-.845v-.063c0-.084-.069-.077.806-.077.509 0 .778-.004.793-.012.03-.017.034-.313.004-.343-.016-.016-.106-.018-.81-.018h-.791l-.004-.054a.188.188 0 0 1 .002-.064c.004-.006.346-.012.796-.015.608-.003.794-.008.808-.02.023-.018.026-.324.003-.347-.01-.01-.206-.014-.81-.014h-.797v-.076a.57.57 0 0 1 .002-.078c.002-.002.376-.006.832-.009l.828-.006v-.385l-.846-.006a68.328 68.328 0 0 1-.848-.009 1.443 1.443 0 0 1-.073-.157.115.115 0 0 0-.024-.04.108.108 0 0 1-.023-.051c0-.012-.014-.032-.03-.045-.043-.033-.736-.038-.768-.006zm-6.043.002c.007.005.015.04.018.078.01.109-.083.1 1.036.1 1.103 0 1.015.008 1.015-.093 0-.097-.012-.094.332-.094.363 0 .338-.01.344.137.002.044.032.05.252.05.253 0 .23-.02.23.195 0 .207.02.19-.237.19-.225 0-.222-.001-.257.076l-.017.035-.316.003-.316.003-.009-.044a.172.172 0 0 0-.02-.058c-.018-.023-1.979-.022-2.01 0a.128.128 0 0 0-.028.062l-.007.045-.298.004c-.354.004-.373.002-.373-.042 0-.078-.015-.084-.23-.084-.276 0-.25.021-.245-.197l.003-.182.221-.006.221-.006.015-.03a.213.213 0 0 0 .015-.077c0-.035.006-.053.02-.061.024-.014.62-.017.64-.004zm9.485.017c-.023.035-.03 3.98-.007 4.023.017.031 3.91.036 3.97.005a.318.318 0 0 1 .082-.024c.084-.013.206-.113.206-.169 0-.03-.024-.024-.042.01-.035.07-.133.126-.253.143-.144.021-3.936.014-3.945-.007a287.77 287.77 0 0 1 0-3.942c.007-.016.205-.018 2.124-.018 1.873 0 2.116-.002 2.116-.018 0-.015-.238-.017-2.074-.017-1.14 0-2.093-.004-2.116-.007-.037-.006-.046-.003-.061.02zm-2.696.028c.016.01.029.024.029.03 0 .021.107.23.126.246.013.011.203.015.846.018.638.002.831.006.838.017a.986.986 0 0 1-.005.308 19.15 19.15 0 0 1-.83.016l-.817.005-.007.035a.44.44 0 0 0 0 .1l.006.064.79.006c.543.004.794.01.802.018.024.024.023.273 0 .286-.013.006-.335.01-.796.01-.677 0-.777.003-.79.018a.398.398 0 0 0-.005.184c.006.019.053.02.787.02.923 0 .83-.018.82.16a.83.83 0 0 1-.012.12c-.003.003-.36.008-.794.01-.434.001-.794.007-.8.012a.4.4 0 0 0 .004.194c.012.015.124.017.846.02.458.002.836.007.84.011.01.01.008.303-.002.313-.003.003-.815.009-1.805.012l-1.798.006-.01.08a.43.43 0 0 1-.014.087 4.488 4.488 0 0 1-.618.002c-.015-.012-.017-.089-.017-.538 0-.635.008-.609-.138-.41a3.42 3.42 0 0 1-.212.27c-.021.007-.025-.083-.021-.49l.003-.414.053-.063.09-.105a.216.216 0 0 0 .038-.05c0-.004.02-.03.046-.057a.297.297 0 0 0 .047-.059c0-.005.01-.017.022-.029.012-.011.066-.076.12-.143a5.976 5.976 0 0 1 .195-.234l.023-.029.328-.003c.369-.004.362-.006.29.08-.143.167-.17.156.39.156.337 0 .466-.003.476-.013.015-.014-.006-.089-.043-.16-.03-.054-.04-.103-.026-.12.021-.026.666-.023.705.003zm-16.788.057-.038.061a1.885 1.885 0 0 0-.075.132 1.484 1.484 0 0 1-.052.087 3.722 3.722 0 0 0-.123.213.427.427 0 0 1-.033.054.842.842 0 0 0-.049.084.695.695 0 0 1-.068.112c0 .004-.053.1-.117.212a3.24 3.24 0 0 0-.117.216c0 .006-.008.017-.017.025a.174.174 0 0 0-.033.045 2.71 2.71 0 0 1-.171.298c0 .004-.02.037-.044.074a2.538 2.538 0 0 0-.09.157 10.42 10.42 0 0 1-.234.412l-.095.165a4.32 4.32 0 0 1-.162.274.44.44 0 0 0-.04.07c0 .01-.088.166-.134.237a1.347 1.347 0 0 0-.07.123.509.509 0 0 1-.055.089.078.078 0 0 0-.02.064l.004.04.385.001c.212 0 .37-.002.35-.006-.05-.012-.064.016.358-.721a89.64 89.64 0 0 0 .506-.89c.023-.042.06-.108.083-.146l.074-.129a11.585 11.585 0 0 1 .153-.27 104.44 104.44 0 0 1 .377-.663l.048-.087.09-.155a.786.786 0 0 1 .068-.108c.014-.009.014-.03 0-.05-.008-.014-.066-.017-.307-.015-.257.002-.3 0-.316-.016-.017-.017-.02-.016-.036.01zm3.692.09c-.035.013-.038.027-.038.221 0 .158.003.19.02.207.03.03.932.04.973.01.025-.019.066-.02.453-.02.395 0 .426.001.43.02.006.02.076.02 1.3.017l1.293-.003.022-.027c.028-.036.03-.383.002-.41-.018-.018-4.407-.033-4.455-.015zm4.43.042c.012.008.014.053.012.184l-.003.174h-4.445l-.004-.177c-.002-.161 0-.177.018-.182.037-.01 4.407-.008 4.422.001zm12.008.216-.03.014-.002 1.564c-.002.972.001 1.569.008 1.58.02.032 2.866.032 2.928 0 .09-.046.083.1.083-1.606v-1.531l-.026-.018c-.035-.025-2.913-.028-2.961-.003zm1.213.029c0 .048-.004.048-.567.052a7.973 7.973 0 0 0-.549.012c-.017.018-.012.352.006.374.015.017.069.02.557.02.354 0 .542.003.542.01 0 .009-.166.013-.473.013h-.473l-.03.028-.028.029v.592c0 .534.002.593.02.613.018.02.049.02.495.02.304 0 .478.005.483.013.005.007-.18.011-.546.011-.664 0-.594-.023-.596.203-.002.22-.123.194.913.194.485 0 .894.003.91.008.081.021-.08.027-.858.027h-.854l-.019.026c-.014.02-.018.06-.018.184 0 .21.003.213.17.203l.116-.007.022.05c.02.044.11.173.202.291a.473.473 0 0 0 .079.076l.047.034.272.004c.4.007.39.011.38-.165-.008-.144-.004-.14-.136-.148-.113-.007-.146-.023-.184-.094-.022-.041-.004-.044.363-.045.384-.002.443.002.443.031 0 .04-.037.05-.216.05a2.15 2.15 0 0 0-.204.01l-.03.008v.184c0 .1-.002.183-.005.183-.094.006-1.387.012-1.407.007l-.028-.008v-1.543c0-.85.003-1.547.007-1.552.012-.01 1.194-.01 1.194.002zm1.724.863c.002.476 0 .866-.004.866a.073.073 0 0 1-.025-.018c-.013-.013-.038-.018-.09-.017-.12.003-.114.008-.076-.064l.035-.064v-.517c0-.428-.003-.521-.017-.54-.016-.022-.037-.023-.484-.026-.291-.002-.468-.007-.468-.014 0-.008.189-.012.508-.012.617 0 .554.025.554-.215 0-.155-.002-.17-.023-.181-.014-.008-.2-.012-.524-.012-.479 0-.503-.001-.514-.022-.02-.036-.014-.037.564-.034l.561.003.003.867zm-1.152-.814c.012.023.024.023.501.023.6 0 .546-.015.551.16.006.197.061.179-.532.179-.534 0-.52-.002-.52.065 0 .054-.02.052.463.052.382 0 .445.001.467.017l.027.019v.449c0 .524-.007.592-.068.667-.052.063-.047.066.09.068.142.002.146.004.136.072-.013.096-.117.259-.165.259-.008 0-.02.007-.028.017a.174.174 0 0 1-.072.029c-.115.024-.147.058-.115.118.011.02.026.023.145.023.184 0 .17-.014.17.163 0 .176.014.163-.177.163-.152 0-.146-.006-.153.17-.007.178-.018.213-.081.257l-.05.034-.43.003c-.277.003-.435 0-.443-.008-.021-.021-.011-.284.012-.301.014-.01.075-.015.203-.015.207 0 .213-.002.207-.083l-.004-.05-.868-.004c-.618-.002-.873-.007-.884-.016a.877.877 0 0 1-.006-.299c.007-.011.202-.015.884-.017l.874-.003v-.094l-.898-.003c-.7-.002-.9-.006-.907-.017a1.024 1.024 0 0 1 .005-.31c.01-.01.15-.014.554-.014h.54l.007-.029c.016-.064.02-.064-.484-.064-.345 0-.467-.004-.477-.014-.02-.02-.02-1.154 0-1.174.01-.01.134-.014.483-.014.509 0 .483.004.483-.063 0-.054.002-.053-.562-.053-.396 0-.535-.004-.542-.014a1.5 1.5 0 0 1 .001-.311 9.97 9.97 0 0 1 .55-.011c.524-.003.542-.004.556-.026.022-.036.538-.036.557 0zm-10.6.187a.819.819 0 0 1-.01.1c-.012.06-.001.063.221.063.13 0 .156.003.162.018.004.01.007.319.007.685v.666l-.028.059a.255.255 0 0 1-.135.137l-.053.027-.577.004c-.54.004-.578.003-.592-.017-.012-.016-.015-.143-.015-.584 0-.63 0-.624-.074-.54a19.696 19.696 0 0 0-.406.45c-.018.021-.033.046-.033.056 0 .01-.006.019-.012.019a.817.817 0 0 0-.115.107c-.126.129-.129.15-.023.15.124 0 .15-.029.15-.167v-.078l.055-.001c.191-.003.3.003.31.016.019.029.004.409-.018.443a.124.124 0 0 0-.02.047c0 .026-.107.133-.16.16-.045.022-.062.023-.547.02l-.501-.003-.004-.152c-.004-.192 0-.21.058-.274l.107-.12a3.25 3.25 0 0 1 .128-.14c.1-.105.098-.106-.142-.109-.214-.003-.193.016-.198-.175l-.004-.157.036-.055a1.22 1.22 0 0 1 .132-.165l.094-.117.093-.117a1.13 1.13 0 0 0 .126-.159c0-.04.07-.05.327-.05.322 0 .315-.01.128.186-.03.03-.087.096-.128.147l-.094.111c-.107.114-.108.132-.006.136.093.004.128-.021.232-.167.016-.021.033-.023.248-.027.275-.004.26.003.26-.13 0-.149-.008-.14.152-.14a.867.867 0 0 0 .173-.013c.037-.013.042-.02.054-.092a.268.268 0 0 1 .03-.079l.023-.038.295.003.295.003-.002.053zm3.748-.028c-.015.015-.01 1.223.006 1.239.01.01.14.014.509.014.521 0 .578-.005.592-.051a.464.464 0 0 0-.002-.16 6.429 6.429 0 0 0-.53-.011c-.575 0-.562.002-.516-.066a.715.715 0 0 0 .069-.12.314.314 0 0 1 .048-.074l.03-.032h.412c.391 0 .413 0 .45-.023.048-.028.067-.107.04-.162l-.014-.03-.518-.004c-.541-.003-.56-.005-.518-.052a.331.331 0 0 0 .04-.057c.114-.217.067-.2.553-.202.491-.001.495-.003.461-.176l-.007-.035-.549-.003c-.301-.001-.552 0-.556.005zm1.07.023c.026.01.025.106 0 .135-.019.02-.048.021-.444.021-.456 0-.47.002-.47.063 0 .01-.005.019-.01.02a.371.371 0 0 0-.066.113c-.057.118-.065.102-.065-.13 0-.196.002-.216.02-.221a21.02 21.02 0 0 1 1.035-.001zm-3.377.04c.015.008.014.014-.006.037a.891.891 0 0 0-.058.08 1.545 1.545 0 0 1-.072.1.26.26 0 0 0-.038.056.28.28 0 0 1-.045.063 1.57 1.57 0 0 0-.078.107.391.391 0 0 1-.052.066c-.033.025.006.05.078.05h.065l.093-.099.094-.099h.246c.246 0 .291.007.267.037l-.206.26c-.107.135-.201.254-.21.263a4.25 4.25 0 0 0-.095.123 2.604 2.604 0 0 1-.086.11.774.774 0 0 0-.096.134c-.02.041-.009.047.085.047.113 0 .138-.027.136-.147-.001-.06.003-.085.015-.093.03-.018.367-.013.383.007.03.036.011.437-.023.484-.145.203-.126.199-.799.199-.618 0-.554.021-.554-.188 0-.179.009-.203.112-.31.155-.162.25-.275.247-.293-.003-.018-.025-.02-.178-.023-.208-.004-.192.01-.193-.186 0-.153.005-.18.044-.239.061-.091.118-.174.157-.227a.286.286 0 0 0 .044-.073c0-.007.006-.013.012-.013.007 0 .017-.012.024-.026a.559.559 0 0 1 .051-.08.265.265 0 0 0 .04-.065c.001-.008.018-.027.037-.044l.036-.03h.253c.14 0 .26.005.27.011zm-7.54.446a1.952 1.952 0 0 0-.104.175 2.9 2.9 0 0 0-.149.264c0 .005-.008.017-.017.025-.019.015-.025.04-.008.03.013-.008.13-.213.13-.227 0-.005.01-.02.024-.03.012-.012.023-.027.023-.032a.7.7 0 0 1 .054-.103l.054-.093 1.349.003 1.349.002V19.5l-.034.07a.517.517 0 0 1-.363.305c-.067.021-.139.022-1.627.022h-1.558l-.006-.595-.006-.595.028-.052c.015-.03.04-.072.053-.096l.086-.149c.033-.058.06-.109.06-.113a1.239 1.239 0 0 0 .14-.231c.014-.026.037-.068.053-.094a5.673 5.673 0 0 0 .125-.216.45.45 0 0 1 .035-.057.106.106 0 0 0 .021-.04c0-.023-.126.178-.233.374a13.85 13.85 0 0 1-.194.338l-.108.186-.086.149.002.601c.002.597.002.602.026.622.06.051 3.19.018 3.255-.034a.25.25 0 0 1 .058-.026c.024-.008.046-.021.05-.03.003-.01.014-.018.022-.018.022 0 .16-.14.16-.162a.11.11 0 0 1 .022-.037.207.207 0 0 0 .03-.075.18.18 0 0 1 .022-.063c.01-.012.014-.318.017-1.18l.003-1.165-.028-.018c-.024-.016-.172-.018-1.337-.018-.847 0-1.316-.004-1.33-.012-.019-.01-.028-.002-.062.05zm5.626.028a.492.492 0 0 0 .002.244c.014.017.255.025.296.01.015-.006.018-.03.018-.133 0-.15.012-.14-.168-.14-.109 0-.135.003-.148.019zm.274.022a.503.503 0 0 1-.005.193c-.016.03-.226.034-.237.004a.5.5 0 0 1 .005-.193c.016-.03.226-.034.237-.004zm5.036.048c0 .088.013.086-.467.086h-.428l-.031.038a.62.62 0 0 0-.09.135.193.193 0 0 1-.029.048l-.029.04v-.39h1.074v.043zm4.78.058c-.015.015-.009.072.01.09.015.016.05.02.202.02.205 0 .215-.004.209-.073l-.004-.039-.205-.003c-.113-.002-.208 0-.213.005zm.991 0c-.013.013-.01.08.006.095.01.01.066.014.179.014.184 0 .221-.014.204-.081l-.007-.03-.187-.003a1.27 1.27 0 0 0-.195.005zm-.597.045c0 .022-.01.024-.175.027-.196.003-.205.002-.196-.032.01-.037.37-.032.37.005zm.948-.003c-.003.026-.008.027-.16.03-.157.003-.185-.003-.172-.038.013-.034.337-.026.332.008zm-17.162.185c-.033.02-.031 1.92.002 1.96l.022.028.98.003c1.121.005 1.085.007 1.101-.085a44.28 44.28 0 0 0-.002-1.896c-.014-.026-2.059-.036-2.103-.01zm2.072.023c.016.016.01 1.861-.005 1.887-.024.04.01.038-1.055.035l-.992-.004-.003-.95c-.001-.523 0-.958.003-.966a47.584 47.584 0 0 1 2.052-.002zm8.952.153c.025.02.02.111-.007.126-.015.008-.195.011-.534.01l-.51-.004-.004-.06-.004-.06.044-.012c.063-.016.995-.017 1.015 0zm4.794.028c-.028.075.001.087.217.086.2 0 .211-.003.206-.059l-.004-.04-.206-.003c-.18-.003-.206 0-.213.016zm.993-.01c-.013.012-.009.068.006.083.023.022.323.019.357-.005.03-.02.034-.069.007-.08a2.355 2.355 0 0 0-.37.001zm-.591.037c0 .03-.024.034-.208.035-.17.002-.178 0-.17-.034.01-.035.378-.036.378-.001zm.945 0c0 .029-.08.04-.226.035-.105-.005-.12-.01-.109-.04.012-.03.335-.026.335.005zm-9.531.13.003.087-.073.006c-.079.006-.098-.002-.06-.026.013-.008.024-.021.024-.029s.007-.018.016-.023a.108.108 0 0 0 .03-.037c.013-.024.05-.07.055-.067l.005.089zm-1.902-.066a.376.376 0 0 0-.014.13c-.002.138.004.146.118.145.183 0 .21-.023.21-.182 0-.076-.003-.096-.018-.102-.04-.015-.282-.008-.296.01zm.269.032c.021.034.012.16-.014.184-.036.033-.137.047-.206.029-.031-.008-.04-.195-.012-.224.02-.02.217-.012.232.01zm-1.383.074c.013.052-.01.093-.053.098-.07.006-.075-.005-.024-.058a.239.239 0 0 0 .047-.058c0-.023.023-.009.03.018zm-12.907.111c0 .03.002.041.005.026a.17.17 0 0 0 0-.052c-.003-.014-.005-.003-.005.026zm25.34.114c-.257.004-.259.004-.243.067l.007.03.201-.002c.258 0 .336-.023.286-.08-.012-.015-.054-.017-.252-.015zm-25.34.085c0 .041.003.058.005.038a.37.37 0 0 0 0-.076c-.002-.021-.004-.004-.004.038zm25.541-.035a.948.948 0 0 1-.216.011c-.132 0-.21-.004-.21-.011 0-.008.08-.012.217-.012.141 0 .214.004.21.012zm.706.67c0 .592-.001.634-.02.643-.03.014-.54.02-.575.007-.027-.01-.026-.011.023-.02.122-.02.174-.104.175-.282 0-.179-.01-.167.145-.167.187 0 .182.006.182-.203 0-.207.009-.197-.18-.205-.136-.006-.177-.02-.104-.037a.313.313 0 0 0 .068-.026.162.162 0 0 1 .05-.019c.032 0 .166-.117.166-.145 0-.008.01-.026.022-.04a.195.195 0 0 0 .03-.084.195.195 0 0 1 .013-.057c.003 0 .005.285.005.634zm-6.998-.563c-.008.008-.014.048-.014.097 0 .067-.004.088-.024.108l-.023.026h-1.842l-.02.038c-.025.047-.024.319 0 .345.012.011.108.015.449.014.239 0 .434.003.434.007a.503.503 0 0 1-.067.13.055.055 0 0 0-.015.032c0 .009-.008.023-.017.032a.25.25 0 0 0-.035.056.671.671 0 0 1-.041.075.7.7 0 0 0-.038.064c-.055.11-.111.132-.341.133a1.7 1.7 0 0 0-.213.01c-.03.02-.02.425.01.441.051.028.764.01.829-.021a.348.348 0 0 1 .066-.026c.006 0 .017-.008.026-.018a.171.171 0 0 1 .05-.034.72.72 0 0 0 .27-.321.156.156 0 0 0 .023-.047.093.093 0 0 1 .017-.035.881.881 0 0 0 .082-.173c0-.008.005-.014.011-.014.006 0 .017-.02.025-.043.008-.024.021-.049.03-.054.009-.005.016-.018.016-.03s.01-.035.023-.05a.107.107 0 0 0 .024-.048c0-.054.156-.088.265-.059l.026.007v.47c0 .412.003.473.019.489.03.03.786.027.814-.004.018-.02.02-.063.018-.485a8.604 8.604 0 0 1 .005-.469c.038-.038.208-.013.233.035l.042.072c.013.02.041.07.064.115.023.043.05.087.06.097.009.01.017.024.017.032s.01.025.023.036c.013.012.024.03.024.041a.05.05 0 0 0 .017.035c.009.007.02.024.024.037.037.117.304.418.37.418.008 0 .036.011.061.025.065.035.778.05.828.017l.03-.02v-.189c0-.244.02-.223-.236-.23l-.214-.006-.053-.052a.464.464 0 0 1-.062-.07 1.04 1.04 0 0 0-.036-.064 7.37 7.37 0 0 1-.101-.17 2.743 2.743 0 0 1-.038-.064.966.966 0 0 0-.035-.056c-.036-.053-.025-.054.43-.057l.432-.003.003-.172a.818.818 0 0 0-.009-.196c-.012-.023-.027-.023-.939-.023-.712 0-.928-.003-.935-.014a.354.354 0 0 1-.006-.1c.005-.14.034-.131-.43-.131-.289 0-.395.004-.406.014zm.789.023c.009.009.014.052.014.112 0 .16-.118.143.94.143.61 0 .924.004.939.012.03.016.034.266.004.296-.016.016-.072.018-.436.018-.401 0-.455.003-.455.024 0 .01.114.208.192.332.028.045.059.098.068.117.01.019.034.05.054.07l.037.035.206.003c.175.003.209.007.221.023.027.035.02.36-.008.376a4.548 4.548 0 0 1-.625 0 .787.787 0 0 1-.228-.065.054.054 0 0 0-.032-.016c-.023 0-.163-.15-.2-.217-.02-.035-.041-.063-.047-.063-.005 0-.015-.015-.022-.033a.599.599 0 0 0-.042-.078 1.271 1.271 0 0 1-.047-.082 1.193 1.193 0 0 0-.052-.087.727.727 0 0 1-.047-.081.675.675 0 0 0-.046-.078.414.414 0 0 1-.04-.073c-.025-.075-.069-.1-.187-.105-.162-.007-.147-.056-.147.494 0 .396-.003.472-.017.484-.02.016-.744.013-.76-.004a6.476 6.476 0 0 1-.016-.49l-.006-.48-.13-.003c-.187-.005-.162-.029-.343.329a98.98 98.98 0 0 1-.173.341c-.06.114-.23.24-.393.291-.089.028-.716.034-.743.007-.021-.022-.021-.357 0-.378.011-.011.063-.015.193-.016l.215-.002c.046-.004.1-.056.157-.15l.064-.108.043-.079c.009-.02.022-.04.03-.044a.043.043 0 0 0 .012-.029c0-.011.013-.038.03-.06.076-.104.074-.105-.432-.105-.375 0-.424-.002-.43-.018a1.525 1.525 0 0 1 0-.29c.006-.017.097-.018.915-.018.9 0 .908 0 .95-.025l.04-.024v-.096c0-.059.006-.101.015-.11.02-.02.745-.02.765 0zm-13.28.441c0 .215 0 .303.003.196a12.74 12.74 0 0 0 0-.391c-.002-.108-.004-.02-.004.195zm7.776-.196c.009.104-.069.096.893.092.8-.002.86-.001.881.018.033.03.034.394.001.412a3.81 3.81 0 0 1-.4.012c-.357 0-.425.004-.416.022.143.308.115.29.487.296.164.002.304.008.312.013.023.014.02.35-.002.369-.011.01-.149.012-.517.01l-.5-.004-.052-.035c-.084-.058-.094-.07-.157-.186a4.281 4.281 0 0 1-.117-.21 3.4 3.4 0 0 0-.07-.129.99.99 0 0 1-.047-.09c-.01-.023-.026-.045-.035-.048a1.134 1.134 0 0 0-.248-.002c-.01.005-.013.123-.013.39v.384l-.027.007c-.057.015-.588.008-.602-.009-.008-.01-.014-.138-.016-.393l-.003-.379h-.22l-.068.1a3.23 3.23 0 0 0-.172.277c-.009.018-.02.034-.026.035a.338.338 0 0 0-.047.07.527.527 0 0 1-.153.186l-.047.032h-.982l-.003-.179c-.004-.233-.036-.211.306-.211h.283l.04-.04a.406.406 0 0 0 .067-.09c.014-.028.041-.077.06-.108.05-.08.062-.077-.38-.08a9.1 9.1 0 0 1-.41-.006c-.012-.004-.015-.057-.015-.208 0-.149.003-.204.014-.211.008-.006.4-.01.87-.012.975-.003.889.005.889-.077 0-.094-.012-.09.332-.087l.304.003.006.066zm9.805.524c.02.008.051.034.07.058.04.052.052.056.162.061.098.005.1.008.1.145.001.133.026.124-.312.118-.224-.003-.26-.007-.279-.024-.012-.012-.028-.02-.034-.02a.513.513 0 0 1-.13-.146.91.91 0 0 0-.073-.099c-.044-.052-.055-.081-.038-.098a3.45 3.45 0 0 1 .534.005zm-22.128.194a.13.13 0 0 0 .047 0c.01-.003-.001-.006-.027-.005-.026 0-.035.002-.02.005zm-2.663.365a.661.661 0 0 0-.129.027.296.296 0 0 1-.065.02.051.051 0 0 0-.033.016.102.102 0 0 1-.048.025c-.019.004-.038.013-.043.02a.338.338 0 0 1-.06.05.514.514 0 0 0-.097.093 3.313 3.313 0 0 1-.059.075.595.595 0 0 0-.073.162c-.004.02-.012.037-.018.037-.006 0-.011.023-.011.052 0 .03.005.053.012.053.015 0 .035-.05.035-.089 0-.016.011-.051.025-.078l.065-.127a.765.765 0 0 1 .194-.19l.054-.027a.377.377 0 0 1 .149-.06.43.43 0 0 0 .09-.017.898.898 0 0 1 .298-.019c.122.017.247.047.284.067.133.073.208.138.257.226.115.203.12.195-.121.244-.036.008-.091.02-.124.03-.08.022-.082.022-.096-.015-.09-.252-.446-.252-.58-.002l-.034.063.001.221c0 .246.017.31.093.38.182.166.481.076.524-.155.005-.024.013-.047.02-.05a.538.538 0 0 1 .198.037.152.152 0 0 0 .055.016c.037 0 .177.061.171.075a1.464 1.464 0 0 0-.025.077.365.365 0 0 1-.042.092.107.107 0 0 0-.021.038c0 .076-.21.236-.372.284-.033.01-.06.023-.06.03 0 .018.093.012.112-.007a.07.07 0 0 1 .044-.017.09.09 0 0 0 .054-.024c.015-.013.032-.023.039-.023.014 0 .03-.013.111-.095.082-.082.095-.097.095-.112 0-.006.01-.024.022-.04a.192.192 0 0 0 .03-.064.11.11 0 0 1 .025-.051c.066-.055 0-.163-.11-.18a.22.22 0 0 1-.076-.024.13.13 0 0 0-.063-.017.21.21 0 0 1-.082-.024c-.085-.045-.133-.03-.147.049-.005.023-.016.049-.025.056a.052.052 0 0 0-.018.034c-.002.087-.22.182-.31.136a.155.155 0 0 0-.055-.018c-.03 0-.124-.104-.124-.137a.171.171 0 0 0-.02-.065c-.025-.046-.03-.355-.008-.383a.253.253 0 0 0 .028-.071c.008-.03.019-.056.025-.056.005 0 .015-.013.021-.029.006-.016.017-.03.025-.03.007 0 .02-.007.026-.017.052-.07.273-.057.346.02.054.056.093.11.093.125 0 .02.14.016.18-.004a.47.47 0 0 1 .116-.028c.08-.01.172-.045.188-.072.007-.01-.024-.09-.054-.14a.745.745 0 0 1-.028-.055.896.896 0 0 0-.207-.22.204.204 0 0 1-.053-.03.102.102 0 0 0-.05-.021.249.249 0 0 1-.072-.022c-.057-.026-.354-.041-.492-.025zm1.626-.001a.434.434 0 0 0-.128.02.18.18 0 0 1-.063.022.205.205 0 0 0-.075.03.102.102 0 0 1-.041.022c-.044 0-.185.18-.199.252a.202.202 0 0 1-.017.057c-.016.02-.023.096-.012.136.03.12.04.147.06.168.012.014.021.028.021.033 0 .01.113.124.123.124.004 0 .021.01.037.024a.107.107 0 0 0 .05.023.1.1 0 0 1 .048.022.205.205 0 0 0 .074.03.216.216 0 0 1 .07.025.147.147 0 0 0 .065.017.25.25 0 0 1 .087.023.243.243 0 0 0 .084.023c.091 0 .202.087.202.157 0 .106-.226.196-.292.116-.008-.009-.02-.016-.028-.016-.019 0-.076-.05-.076-.067 0-.006-.008-.019-.017-.026-.01-.008-.02-.037-.025-.066-.012-.079-.014-.08-.25-.07-.292.01-.338.043-.268.188a.24.24 0 0 1 .023.07c0 .013.016.047.035.076l.05.075c.018.03.116.123.128.123.005 0 .024.01.041.022a.223.223 0 0 0 .075.03c.025.004.044.012.044.018 0 .007.026.012.059.012.032 0 .058-.005.058-.011 0-.012-.063-.036-.096-.036a.657.657 0 0 1-.19-.087.567.567 0 0 1-.198-.338c-.01-.084-.005-.088.105-.088.045 0 .13-.006.191-.012.13-.014.157-.004.17.066.04.214.416.264.492.066.033-.088-.045-.197-.16-.22a.17.17 0 0 1-.054-.019.348.348 0 0 0-.093-.023.491.491 0 0 1-.111-.029.152.152 0 0 0-.056-.016.834.834 0 0 1-.208-.086c-.356-.179-.27-.724.127-.796.022-.004.068-.015.103-.025.347-.097.791.073.85.325l.02.076c.006.018.002.029-.013.037a1.833 1.833 0 0 1-.41.039c-.009-.001-.026-.027-.04-.057-.074-.17-.355-.208-.406-.055-.026.08.059.169.163.169.02 0 .066.01.103.022.037.012.09.025.118.03a.32.32 0 0 1 .084.024.14.14 0 0 0 .052.017c.097 0 .356.194.374.28a.42.42 0 0 0 .023.067c.098.225-.115.565-.4.637-.07.018-.08.043-.016.043.026 0 .048-.005.048-.011 0-.006.016-.014.037-.019a.508.508 0 0 0 .261-.183.325.325 0 0 1 .048-.059c.007-.005.017-.025.022-.046a.127.127 0 0 1 .022-.051c.031-.032.03-.356-.002-.376a.068.068 0 0 1-.02-.038c-.013-.05-.177-.21-.217-.21a.11.11 0 0 1-.043-.022.11.11 0 0 0-.055-.024.196.196 0 0 1-.068-.023.21.21 0 0 0-.082-.023.186.186 0 0 1-.073-.02.436.436 0 0 0-.115-.028.347.347 0 0 1-.093-.021.24.24 0 0 0-.062-.024c-.09-.024-.11-.073-.054-.131.082-.086.293-.022.317.096.013.064.035.069.286.06.268-.008.301-.034.229-.183a.236.236 0 0 1-.023-.067c0-.012-.01-.03-.024-.04-.013-.012-.023-.025-.023-.03a.505.505 0 0 0-.175-.155.058.058 0 0 0-.04-.018.24.24 0 0 1-.071-.021c-.055-.025-.308-.038-.497-.026zm3.303.001a.438.438 0 0 0-.134.027.154.154 0 0 1-.055.02c-.05 0-.22.109-.272.174a.795.795 0 0 1-.04.047.417.417 0 0 0-.082.13.14.14 0 0 1-.024.051.145.145 0 0 0-.023.065c0 .016-.011.06-.024.098-.03.082-.03.441-.002.475a.2.2 0 0 1 .022.075.192.192 0 0 0 .022.075c.008.01.019.032.024.051.01.04.071.135.087.135.006 0 .01.006.01.014 0 .02.164.17.196.178a.115.115 0 0 1 .046.025c.01.009.03.017.045.017s.035.008.045.017c.01.01.038.018.066.018.071 0 .053-.026-.033-.047a.284.284 0 0 1-.086-.032.056.056 0 0 0-.035-.015c-.054 0-.248-.197-.298-.303a.73.73 0 0 1-.082-.293c-.05-.405.094-.76.357-.88.024-.01.064-.03.09-.042a.234.234 0 0 1 .07-.022.422.422 0 0 0 .08-.018 1.137 1.137 0 0 1 .493.018c.1 0 .319.178.381.31.018.038.04.084.05.102.02.04-.011.054-.206.09-.035.008-.087.02-.115.029-.06.019-.1.008-.113-.031-.061-.195-.363-.234-.51-.066-.091.104-.141.43-.086.561.009.02.02.057.023.08.048.254.496.242.579-.015a.272.272 0 0 1 .036-.072c.025-.032.024-.032.145.01.033.01.082.024.111.03a.41.41 0 0 1 .076.022.668.668 0 0 0 .056.023c.047.017.044.03-.046.22-.062.128-.253.28-.38.3-.028.004-.044.013-.044.024 0 .023.078.022.1 0 .01-.01.03-.018.046-.018.015 0 .032-.007.037-.016a.114.114 0 0 1 .045-.03c.06-.023.239-.22.239-.261 0-.008.008-.027.018-.042.075-.107.043-.235-.059-.235a.181.181 0 0 1-.07-.018.437.437 0 0 0-.099-.03.3.3 0 0 1-.087-.029.094.094 0 0 0-.147.077c0 .018-.01.045-.023.062a.12.12 0 0 0-.023.04c0 .042-.18.129-.243.116-.09-.017-.2-.076-.2-.106a.127.127 0 0 0-.024-.038.128.128 0 0 1-.023-.075.625.625 0 0 0-.014-.106c-.037-.172.023-.411.121-.489.103-.08.383-.049.383.043 0 .008.006.017.013.02.008.002.02.022.028.044.017.052.105.062.216.023a.436.436 0 0 1 .11-.024c.138 0 .2-.071.146-.172a.22.22 0 0 1-.023-.055c0-.007-.01-.021-.024-.032-.013-.011-.023-.028-.023-.037 0-.026-.147-.17-.194-.19a.236.236 0 0 1-.06-.034.062.062 0 0 0-.037-.016.271.271 0 0 1-.072-.022c-.059-.026-.306-.038-.477-.025zm-2.161.01c-.058.018-.056-.02-.056.835 0 .437.004.806.008.82.007.026.007.027.265.027h.26l.013-.038c.008-.024.013-.13.013-.286 0-.137.003-.253.007-.26a.773.773 0 0 1 .192-.011c.152 0 .197-.004.257-.024a.602.602 0 0 1 .089-.023.483.483 0 0 0 .138-.071.37.37 0 0 0 .088-.09c0-.006.01-.02.024-.032.012-.011.023-.027.023-.034 0-.007.011-.034.025-.06.039-.07.039-.372 0-.442a.287.287 0 0 1-.025-.055c0-.038-.118-.16-.171-.177a.097.097 0 0 1-.04-.025c-.007-.01-.028-.017-.045-.017a.551.551 0 0 1-.1-.019 9.799 9.799 0 0 0-.965-.018zm1.113.103c.121.066.154.104.21.249a.993.993 0 0 1-.005.368.458.458 0 0 1-.334.303 3.022 3.022 0 0 1-.26.015c-.188.006-.234.011-.243.025-.006.01-.011.139-.012.288 0 .202-.003.272-.014.28a2.35 2.35 0 0 1-.464-.003c-.019-.019-.017-1.558.003-1.57a7.34 7.34 0 0 1 .522-.007l.507.003.09.049zm-.603.257c-.037.01-.04.024-.04.19 0 .188-.001.187.108.187.259 0 .385-.179.232-.328-.04-.04-.22-.069-.3-.049zm.204.038c.146.04.162.223.024.282a.824.824 0 0 1-.23.001c-.02-.013-.012-.27.01-.284a.467.467 0 0 1 .196.001zm-4.118.718c0 .029.005.052.011.052.007 0 .015.015.019.032a.538.538 0 0 0 .098.191c0 .006.01.02.02.032.012.011.038.04.06.064.02.023.051.052.07.063a.166.166 0 0 1 .04.035.033.033 0 0 0 .025.015c.009 0 .028.01.043.022a.196.196 0 0 0 .072.03c.024.004.044.012.044.018 0 .007.023.012.052.012.029 0 .053-.006.053-.012 0-.014-.05-.035-.084-.035-.057 0-.242-.11-.3-.178a1.108 1.108 0 0 1-.13-.19.244.244 0 0 0-.023-.058.214.214 0 0 1-.023-.073c0-.033-.02-.073-.036-.073-.006 0-.011.024-.011.053z" fill="#BBC0C4"/></svg>