<svg width="36" height="36" fill="none" xmlns="http://www.w3.org/2000/svg"><path d="M18 0c2.837 0 5.52.656 7.907 1.825C31.884 4.753 36 10.895 36 18c0 9.942-8.058 18-18 18-9.94 0-18-8.057-18-18C0 8.06 8.06 0 18 0z" fill="#F2F4F7"/><path d="M6.078 18.005c0-3.825 3.1-6.927 6.926-6.927 1.674 0 3.208.596 4.406 1.586H8.753v10.68h8.657l.001.002a6.926 6.926 0 0 1-11.334-5.342l.001.001zm10.366 4.312H9.826v-8.624h6.617l-4.049 4.311 4.049 4.313zm1.78.24-4.273-4.553 5.014-5.342A8.005 8.005 0 0 0 5 18.005a8.005 8.005 0 0 0 13.965 5.343l-.741-.791" fill="#EE2722"/><path d="M26.09 12.66h-3.432l-4.91 10.694h5.514l1.111-2.436 1.113 2.436H31L26.09 12.66zm-.67 1.042 3.954 8.61h-3.219l-1.78-3.902-1.783 3.902h-3.22l3.954-8.61h2.094" fill="#EE2722"/></svg>