<svg width="36" height="36" fill="none" xmlns="http://www.w3.org/2000/svg"><path d="M18 0c2.837 0 5.52.656 7.907 1.825C31.884 4.753 36 10.895 36 18c0 9.942-8.058 18-18 18-9.94 0-18-8.057-18-18C0 8.06 8.06 0 18 0z" fill="#F2F4F7"/><path d="M4.697 17.98c0-7.342 5.952-13.293 13.293-13.293 7.341 0 13.293 5.95 13.293 13.293 0 7.337-5.952 13.292-13.293 13.292-7.34 0-13.293-5.955-13.293-13.292z" fill="#fff"/><path d="M6.27 17.982c0-6.473 5.247-11.721 11.72-11.721 6.473 0 11.722 5.248 11.722 11.72 0 6.473-5.25 11.72-11.722 11.72-6.473 0-11.72-5.247-11.72-11.72z" fill="#8ECCAC"/><path d="M19.335 26.345h-.301v-3.357l.301.069v3.288zm-.692 0h-.299v-3.518l.299.067v3.451zm-.692 0h-.348v-3.691l.348.08v3.611zm-.164-3.89v-10.26l.34-.193v10.531l-.34-.078zm-2.188.533v-9.565l.27-.15v9.6l-.27.115zm.68-.293v-9.652l.325-.183v9.694l-.325.14zm.738-.325v-9.742l.325-.185v9.788l-.325.14zm-.937-9.48v-1.842c.004-.068.021-.218.126-.313l.101-.074v2.09l-.227.14zm.481-.289.002-2.445s-.002-.018 0-.05c.002-.076.023-.221.142-.31l.095-.076v2.735l-.239.146zm.002-2.445v-.05a.427.427 0 0 0 0 .05zm.549 2.11.001-2.731-.001-.04c.002-.073.02-.222.134-.313l.135-.107v3.03l-.27.161zm.602-.362v-2.08s-.003-.025 0-.06c.004-.076.029-.22.143-.305l.112-.084v2.375l-.255.154zm0-2.08v-.06a.324.324 0 0 0 0 .06zm1.858 2.325.607.55c.233.276.19.722.19.722l.01 9.647-1.826-.433.002-10.87v-.368l-.25.15.004-1.714s.118-.024.198.035c.255.18.63.576.848.814a.743.743 0 0 1 .179.366l.038 1.1zm-5.247 14.149v-2.491l.235-.1v2.59h-.235zm.54.008v-2.739l.26-.108v2.847h-.26zm.602.015V23.3l.288-.126v3.148h-.288zm.64.021v-3.317l.325-.138v3.455h-.325zm.719 0v-3.624l.364-.153v3.777h-.364zm4.944-1.993v1.993h-2.06v-3.169l1.484.32.168.034c.415.188.4.816.4.816l.008.006zm-.576-.855.184.043-.184-.043zm.19.043-.19-.043.19.043zM19.423 4.07l-.073.715-.02-.004a13.41 13.41 0 0 0-1.34-.065c-.44 0-.876.018-1.306.062l-.018.001-.073-.708a14.083 14.083 0 0 1 2.83 0zm5.216 1.601-.34.636-.02-.009a13.24 13.24 0 0 0-2.442-1.018l-.02-.005.208-.69c.916.277 1.787.64 2.614 1.086zm4.21 3.477-.566.464-.012-.016a13.446 13.446 0 0 0-1.867-1.875l-.017-.012.459-.562c.732.6 1.404 1.271 2.003 2.001zm2.564 4.825-.708.215-.004-.02a13.226 13.226 0 0 0-1.01-2.448l-.011-.015.646-.35c.446.827.812 1.702 1.087 2.618zm.517 5.441-.74-.073v-.022a13.158 13.158 0 0 0 .003-2.646l-.002-.017.737-.076a14.23 14.23 0 0 1 .002 2.835zm-1.604 5.23-.662-.358.008-.014a13.29 13.29 0 0 0 1.02-2.445l.006-.021.715.216c-.275.918-.64 1.793-1.087 2.621zm-3.489 4.215-.476-.583.015-.015a13.335 13.335 0 0 0 1.874-1.869l.013-.017.583.476a14.122 14.122 0 0 1-2.009 2.008zM22 31.419l-.217-.724.02-.006a13.15 13.15 0 0 0 2.448-1.01l.016-.01.356.664A13.89 13.89 0 0 1 22 31.42zm-5.446.505.075-.747h.02a12.934 12.934 0 0 0 2.646.005l.023-.002.075.75a14.207 14.207 0 0 1-2.839-.006zm-5.226-1.612.354-.66.017.011c.772.417 1.59.757 2.443 1.016l.02.005-.216.718a14.032 14.032 0 0 1-2.618-1.09zm-4.202-3.495.568-.468.014.017c.56.683 1.187 1.31 1.87 1.87l.014.015-.468.576a14.147 14.147 0 0 1-1.998-2.01zm-2.55-4.833.7-.212.003.02c.256.857.595 1.676 1.01 2.445l.012.02-.649.349a13.879 13.879 0 0 1-1.076-2.622zm-.501-5.437.716.072v.022a12.86 12.86 0 0 0-.066 1.34c0 .44.02.876.063 1.305l.001.021-.72.07a13.95 13.95 0 0 1 .006-2.83zm1.61-5.214.632.338-.01.021a12.993 12.993 0 0 0-1.018 2.442l-.005.018-.69-.206a14.02 14.02 0 0 1 1.092-2.613zm3.486-4.198.451.55-.017.015a13.24 13.24 0 0 0-1.874 1.869l-.015.015-.552-.453c.599-.728 1.273-1.4 2.007-1.996zm4.82-2.553.205.682-.02.007c-.853.256-1.672.596-2.446 1.01l-.018.011-.337-.628c.825-.444 1.701-.81 2.616-1.082z" fill="#00402A"/><path d="m14.102 5.254.018-.006c.837-.255 1.71-.428 2.605-.513l.021-.003.055.585c-.87.08-1.717.25-2.53.495l-.169-.558zm5.167-.518.02.002c.897.089 1.767.262 2.604.519l.018.006-.171.565a12.384 12.384 0 0 0-2.527-.507l.056-.585zm4.973 1.497.017.01c.786.42 1.523.918 2.204 1.479l.015.012-.372.455a12.933 12.933 0 0 0-2.141-1.439l.276-.517zm4.02 3.287.012.017a13.338 13.338 0 0 1 1.473 2.207l.01.02-.519.272a12.72 12.72 0 0 0-1.432-2.142l.455-.374zm2.459 4.573.005.02c.254.84.427 1.709.512 2.607l.002.02-.58.055a12.805 12.805 0 0 0-.5-2.53l.56-.172zm.516 5.168-.002.019a13.158 13.158 0 0 1-.519 2.603l-.006.02-.556-.17c.251-.81.422-1.656.504-2.53l.579.058zm-1.496 4.973-.01.017a13.484 13.484 0 0 1-1.48 2.204l-.012.015-.445-.363a12.828 12.828 0 0 0 1.438-2.145l.509.272zm-3.288 4.016-.015.016a13.535 13.535 0 0 1-2.208 1.472l-.02.012-.267-.504a12.973 12.973 0 0 0 2.146-1.433l.364.438zm-4.575 2.46-.017.01c-.839.252-1.71.426-2.607.51h-.02l-.055-.564c.873-.08 1.72-.25 2.534-.5l.165.544zm-5.169.517-.017-.001a13.079 13.079 0 0 1-2.604-.52l-.021-.007.165-.54c.813.253 1.659.423 2.534.506l-.057.562zm-4.969-1.495-.02-.008c-.785-.42-1.523-.92-2.203-1.48L9.5 28.23l.36-.437c.662.548 1.379 1.03 2.144 1.441l-.264.497zm-4.02-3.287-.014-.014a13.745 13.745 0 0 1-1.474-2.209l-.01-.02.501-.267a12.51 12.51 0 0 0 1.434 2.149l-.437.36zM5.26 21.87l-.007-.017a13.259 13.259 0 0 1-.51-2.605l-.002-.023.566-.055c.08.874.25 1.721.497 2.534l-.544.166zm-.518-5.167.003-.02c.087-.895.262-1.77.52-2.604l.006-.02.549.167c-.252.815-.423 1.66-.507 2.532l-.57-.055zm1.498-4.972.01-.018A13.2 13.2 0 0 1 7.73 9.51l.012-.018.447.37a12.821 12.821 0 0 0-1.441 2.14l-.508-.27zm3.288-4.017.015-.014a13.137 13.137 0 0 1 2.21-1.475l.016-.01.275.515c-.764.405-1.484.885-2.146 1.43l-.37-.446zm4.297 11.542c.078.043.095.192.095.192.013.228-.081.43-.308.43-.39.063-1.349-.034-1.353-.034-.457.004-1.013.057-1.357.064-.345.009-.575-.015-.692-.07-.106-.09-.098-.28-.045-.416.104-.155.246-.223.446-.24.203-.023.48.014.66.03.416.1.924.103 1.439.105.556-.024.938-.16 1.115-.06zm-3.562-.954a.456.456 0 0 1-.026.214c-.027.084-.069.123-.11.125-.06.004-.157-.01-.189-.074a.494.494 0 0 1-.068-.226c-.028-.236.013-.528-.018-.703a9.561 9.561 0 0 1-.008-1.309c.034-.11.23-.11.243.036l.176 1.937zm-.821 1.683c-.035.178-.354.146-.354-.029.014-1.339-.095-2.24-.171-3.491 0-.189 0-.374.024-.52.026-.148.096-.22.161-.237.219-.023.289.01.33.186.008.116.032.26.042.338.011.071.023.193.01.324l-.02-.031s.117 2.359-.022 3.46zm-.974-3.562c.05.05.087.118.12.174.022.386.042.996.024 1.512a4.81 4.81 0 0 1-.06.662.655.655 0 0 1-.056.189c-.018.037-.035.044-.039.044-.07-.01-.124-.007-.142-.095-.024-.092-.007-.263-.033-.348-.055-.302-.057-.628-.06-.954-.004-.323-.008-.647-.068-.94-.022-.15.021-.27.146-.3.061-.02.115.003.168.056zm2.804 1.807a.132.132 0 0 0 .03.081c.012.027.03.046.049.069a.2.2 0 0 0 .028.02c.236.05.828.134 1.116-.108l.023-.025a.185.185 0 0 0 .044-.06c.029-.062.021-.139-.07-.206-.168-.12-.69-.096-1.078.026-.103.069-.147.134-.142.203zm-.046-.859c0 .003.006.03.01.03.095.138.193.184.389.197.159 0 .37.02.546.007.169-.013.351-.058.38-.224.022-.227-.2-.293-.409-.307-.214-.014-.48.02-.653.035-.138.04-.243.106-.263.262zm.212 1.535a1.793 1.793 0 0 1-.28-.032c-.173-.04-.306-.125-.358-.315-.06-.32-.123-.65-.171-.936-.05-.287-.08-.514-.072-.63.014-.204.226-.268.481-.323.237-.052 1.342-.032 1.346-.032.335-.029.692.02.9.17.2.27.038 1.189-.173 1.697-.045.35-.25.308-.473.356a3.689 3.689 0 0 1-.485.04c-.136.006-.28.008-.43.017a7.878 7.878 0 0 0-.285-.012zm-.773-2.914c-.03-.227.093-.308.298-.339.106-.015.228-.014.35-.009.126.009.252.016.363.016l.01-.003c.603-.105 1.51-.025 1.579.148.052.178-.078.259-.233.337-.533.142-1.04.094-1.615.04-.31.011-.614.018-.752-.19zm15.209 2.773a.296.296 0 0 0-.009-.04c-.079-.222-.188-.382-.305-.436-.116-.054-.295-.06-.484-.063-.179.004-.34.002-.408.063-.042.035-.063.07-.08.088l-.05.059c-.03.037-.044.072-.07.094-.026.042-.039.069-.053.096a.496.496 0 0 0-.043.1c-.02.08 0 .163.119.204.215.07.332-.038.416-.147.02-.028.03-.05.046-.075.018-.029.036-.047.053-.067.033-.037.041-.047.105-.047.117-.003.134.02.169.095.008.02.01.046.02.066.011.021.02.052.036.074.033.042.087.067.156.077.09.036.392-.042.382-.141zm-1.31-.995c.1.114.279.121.445.117.094 0 .174-.003.243-.003.069-.007.128-.01.174-.028.113-.04.14-.127.106-.257a.174.174 0 0 0-.119-.102.626.626 0 0 0-.174-.026c-.124-.004-.278.009-.412.009-.16.025-.318.094-.264.29zm.175-.565c.131.019.316.038.475.024a.51.51 0 0 0 .216-.051c.062-.029.108-.083.106-.162-.003-.132-.102-.176-.216-.196a1.04 1.04 0 0 0-.194-.015 6.962 6.962 0 0 1-.226.004c-.045.014-.08.011-.115.022a.416.416 0 0 0-.104.044.185.185 0 0 0-.09.215c.03.074.065.104.11.112l.038.003zm-.118-.758c-.03.174.114.217.45.21.243-.003.46-.003.453-.184-.007-.15-.238-.197-.467-.187-.23.008-.43.058-.436.16zm2.305 2.283c.13.068.277.121.409.191.284.148.572.254.74.452.033.066-.05.176-.174.299a1.265 1.265 0 0 1-.414.27c-.24.062-.455-.066-.668-.27a5.362 5.362 0 0 1-.31-.33c-.101-.11-.18-.19-.28-.273-.078-.03-.18-.049-.233-.017-.026.015-.072.029-.088.049-.018.02-.042.045-.055.063a.28.28 0 0 1-.089.092.404.404 0 0 1-.209.033c-.014 0-.04.017-.046.029a.483.483 0 0 0-.032.186c-.002.062.004.128.005.21a.123.123 0 0 0 .07.092c.033.014.308.011.347.013.079.002.18-.005.277-.005.19.005.326.05.3.279-.003.06-.038.11-.124.146a1.086 1.086 0 0 1-.35.067c-.292.015-.893 0-1.188.006-.186-.017-.605 0-.777-.011-.176-.008-.27-.048-.291-.163-.026-.143.018-.266.136-.308a.671.671 0 0 1 .176 0c.076.008.357.024.423.027.068.003.14.003.193-.021.06-.028.089-.081.079-.16a.6.6 0 0 1 .021-.148l.014-.082c.003-.028.007-.061.004-.093 0-.03-.024-.052-.054-.044-.215.03-.286-.01-.356-.08l-.064-.076c-.02-.022-.104-.063-.131-.078-.056-.035-.104-.045-.201-.03-.17.07-.274.172-.408.294-.13.125-.261.258-.398.366-.256.203-.535.284-.867.004 0 0-.137-.122-.086-.148.052-.03.096-.06.096-.06.234-.15.483-.268.726-.402.253-.14.503-.295.72-.524.065-.275-.136-.337-.34-.346-.206-.006-.474.03-.687.02-.111.006-.16-.024-.19-.066-.019-.024-.035-.027-.045-.058-.015-.027-.022-.08-.036-.103.026-.153.107-.195.42-.2a2.25 2.25 0 0 1 .318 0c.104.008.225.017.314.017.191-.005.345-.036.373-.284-.011-.208.012-.423.008-.634-.003-.214-.036-.431-.165-.618a.079.079 0 0 0-.036-.021c-.084-.007-.209-.007-.326-.023-.11-.017-.176-.022-.22-.093-.009-.143-.01-.254.094-.313a.184.184 0 0 1 .09-.016c.044 0 .093.005.145.011.053.008.106.013.16.015a.464.464 0 0 0 .151-.016c.014-.008.032-.032.032-.047.005-.498.574-.447.565.072-.002.031.024.053.058.044.082-.017.174-.023.275-.021.1.001.202.008.308.017.2.013.409.022.573-.026.072.005.136-.008.14-.092 0-.037-.017-.104-.01-.207-.005-.112.125-.21.28-.19.138.02.291.133.283.438 0 .011.015.037.022.043.043.025.1.03.15.03.05-.002.197-.005.249-.008.107 0 .158.016.17.09.003.157 0 .187-.033.205a.45.45 0 0 1-.117.027c-.04.004-.172.004-.222.01a.305.305 0 0 0-.238.08c-.047.053-.045.13-.068.178.009.134.006.248-.002.362-.009.116-.02.232-.026.345-.006.227.02.45.204.618a.125.125 0 0 0 .029.011c.126.004.286-.017.44-.027.152-.01.288-.009.39.029.107.116.132.242.044.38-.03.033-.078.05-.146.054-.075.005-.154-.002-.232-.007a.627.627 0 0 0-.233.02c-.074.025-.127.08-.137.179a.08.08 0 0 0 .016.041c.107.09.233.17.365.235z" fill="#00402A"/></svg>