<svg width="36" height="36" fill="none" xmlns="http://www.w3.org/2000/svg"><path d="M18 0c2.837 0 5.52.656 7.907 1.825C31.884 4.753 36 10.895 36 18c0 9.942-8.058 18-18 18-9.94 0-18-8.057-18-18C0 8.06 8.06 0 18 0z" fill="#F2F4F7"/><path d="M19.175 4.048A13.809 13.809 0 0 0 18 4h-.05a13.899 13.899 0 0 0-1.554.092v7.951c0 .394.322.716.714.716h1.68a.718.718 0 0 0 .718-.716V4.08l-.333-.03z" fill="#12806A"/><path d="M21.062 4.335v8.486a.622.622 0 0 1-.557.56v.003h-1.62a.622.622 0 0 0-.623.62v4.354a.62.62 0 0 1 .576-.618h3.1c.02.002.038.002.057.002.02 0 .04 0 .06-.002a.623.623 0 0 0 .488-.326c0-.004.002-.006.004-.01.014-.026.025-.056.037-.085.004-.018.011-.036.014-.054a.123.123 0 0 0 .008-.041.602.602 0 0 0 .011-.097V8.218a10.88 10.88 0 0 1 6.215 9.83c0 5.48-4.053 10.015-9.326 10.769v-6.104h2.433c.02.001.037.003.056.003l.06-.003a.621.621 0 0 0 .562-.618v-4.361a.62.62 0 0 1-.622.622h-3.11a.623.623 0 0 0-.623.622v3.73h-.622v-3.73a.622.622 0 0 0-.622-.622h-3.111a.623.623 0 0 1-.625-.622v4.36a.627.627 0 0 0 .683.619h2.431v6.104c-5.272-.754-9.323-5.288-9.323-10.769a10.88 10.88 0 0 1 6.21-9.83v8.905l.002.004c.002.034.004.064.009.097.003.015.005.028.01.04a.577.577 0 0 0 .052.14c.001.005.002.006.005.01a.621.621 0 0 0 .546.328c.018 0 .038 0 .058-.002h3.096a.62.62 0 0 1 .579.618v-4.353a.621.621 0 0 0-.622-.621H15.4l-.003-.002a.622.622 0 0 1-.556-.56V4.355C8.63 5.79 4 11.352 4 18c0 7.714 6.243 13.971 13.95 13.999H18c7.732 0 14-6.268 14-14 0-6.68-4.677-12.266-10.938-13.664z" fill="#12806A"/></svg>