<svg width="36" height="36" fill="none" xmlns="http://www.w3.org/2000/svg"><path d="M18 0c2.837 0 5.52.656 7.907 1.825C31.884 4.753 36 10.895 36 18c0 9.942-8.058 18-18 18-9.94 0-18-8.057-18-18C0 8.06 8.06 0 18 0z" fill="#F2F4F7"/><path fill-rule="evenodd" clip-rule="evenodd" d="M9.308 15.016c0 .013-.03.019-.137.025a1.925 1.925 0 0 0-.242.031l-.175.039c-.09.02-.299.095-.402.144a.27.27 0 0 1-.073.025c-.01 0-.023.005-.027.012a.58.58 0 0 1-.102.058 2.604 2.604 0 0 0-.236.128c-.031.016-.1.065-.142.1l-.098.075c-.172.133-.445.422-.477.508a.083.083 0 0 1-.023.034c-.015.01-.14.264-.14.285a.31.31 0 0 1-.023.07c-.024.06-.065.349-.055.383.004.012.015.069.024.126a.84.84 0 0 0 .103.305c.021.035.044.074.05.087.024.04.15.176.192.204l.082.056a1.368 1.368 0 0 0 .484.198c.025.01.452.015 1.493.02l1.458.006.08.032c.15.06.224.119.272.216.054.107.017.382-.06.446a.043.043 0 0 0-.017.03c0 .024-.113.129-.181.17l-.076.044a1.01 1.01 0 0 1-.212.089c-.22.06-.018.055-3.13.06-2.06.002-2.9.007-2.918.016-.026.013-.076.108-.195.372l-.077.166a1.496 1.496 0 0 0-.048.108c0 .005-.02.049-.128.28a1.7 1.7 0 0 0-.117.287c0 .012-.008.022-.018.022a.018.018 0 0 0-.017.018c0 .023 6.283.027 6.29.004.004-.008.055-.018.133-.024.07-.006.17-.019.221-.029.223-.041.267-.05.279-.06a.404.404 0 0 1 .083-.032.532.532 0 0 0 .093-.034 2.615 2.615 0 0 0 .436-.2c.042-.023.09-.05.107-.063a.52.52 0 0 0 .117-.075.607.607 0 0 1 .076-.053c.034 0 .418-.362.47-.443a.338.338 0 0 1 .036-.047.42.42 0 0 0 .066-.098.36.36 0 0 1 .04-.058c.013-.013.023-.03.023-.038s.013-.034.03-.058a.176.176 0 0 0 .028-.06c0-.008.01-.035.023-.059a.543.543 0 0 0 .035-.096c.007-.029.02-.078.03-.11a1.37 1.37 0 0 0 0-.432 4.346 4.346 0 0 1-.03-.111.404.404 0 0 0-.061-.14 43.81 43.81 0 0 0-.05-.092c-.035-.069-.313-.328-.35-.328a1.72 1.72 0 0 1-.186-.084 1.177 1.177 0 0 0-.18-.053l-.135-.03-1.44-.008-1.441-.007-.08-.031c-.091-.037-.094-.039-.185-.129a.382.382 0 0 1-.063-.451 3.39 3.39 0 0 0 .035-.064.795.795 0 0 1 .222-.217.39.39 0 0 0 .071-.047c.004-.006.016-.01.027-.01s.04-.01.065-.023c.21-.108.165-.106 2.665-.106h2.19l.038-.039c.02-.02.037-.046.037-.056a.84.84 0 0 1 .057-.131c.032-.063.061-.129.066-.147a.098.098 0 0 1 .024-.048c.009-.007.016-.02.016-.027 0-.007.014-.041.03-.077l.052-.11c.035-.08.083-.185.111-.246.073-.158.099-.217.099-.227 0-.007.004-.012.01-.012.014 0 .037-.082.037-.133V15h-2.48c-2.118 0-2.479.002-2.479.016zm5.554-.001c0 .008-.01.02-.022.028a.623.623 0 0 0-.1.189.775.775 0 0 1-.088.17.034.034 0 0 0-.012.026c0 .01-.014.048-.03.084a7.63 7.63 0 0 0-.104.229l-.047.105a8.635 8.635 0 0 1-.065.14.477.477 0 0 0-.034.084c0 .007-.007.018-.016.025a.171.171 0 0 0-.03.063.283.283 0 0 1-.037.077.1.1 0 0 0-.022.047c0 .01-.013.044-.03.074a.273.273 0 0 0-.028.07c0 .01-.01.026-.022.037a.123.123 0 0 0-.03.057c-.004.02-.031.087-.06.148a6.69 6.69 0 0 0-.077.164 2.058 2.058 0 0 1-.051.106.269.269 0 0 0-.029.072c0 .01-.01.03-.023.046a.108.108 0 0 0-.023.052.096.096 0 0 1-.017.046c-.02.029-.158.335-.158.35 0 .007-.01.022-.024.034-.012.011-.023.03-.023.043a.2.2 0 0 1-.022.066 4.27 4.27 0 0 0-.153.338c0 .006-.008.017-.017.024a.108.108 0 0 0-.025.051.37.37 0 0 1-.03.078 2.411 2.411 0 0 0-.05.108l-.06.134a2.341 2.341 0 0 1-.058.122.286.286 0 0 0-.028.068c0 .008-.01.027-.024.043a.11.11 0 0 0-.023.049c0 .01-.014.045-.03.077a.342.342 0 0 0-.028.072c0 .007-.008.02-.017.027a.15.15 0 0 0-.03.057 1.905 1.905 0 0 1-.067.153 13.983 13.983 0 0 0-.185.403l-.058.128a2.778 2.778 0 0 1-.168.35c-.007.004-.012.018-.012.03a.82.82 0 0 1-.06.147c-.047.101-.057.132-.051.163l.007.04h1.286l1.286-.001.043-.069a.38.38 0 0 0 .044-.082c0-.012.025-.067.14-.311a.514.514 0 0 0 .035-.084c0-.006.008-.017.018-.025a.052.052 0 0 0 .017-.034c0-.01.016-.05.035-.089a.456.456 0 0 0 .035-.082 1.036 1.036 0 0 0 .096-.21.221.221 0 0 1 .026-.052.324.324 0 0 0 .032-.064c.01-.026.038-.089.062-.14l.075-.163.053-.117c.039-.088.09-.198.11-.24a.412.412 0 0 0 .029-.072c.004-.018.012-.032.018-.032.006 0 .017-.02.024-.044.008-.024.037-.091.065-.15a1.18 1.18 0 0 0 .052-.113c0-.01.105-.237.14-.302a.217.217 0 0 0 .023-.056c0-.012.026-.068.14-.311a.514.514 0 0 0 .035-.084c0-.006.008-.017.017-.025a.052.052 0 0 0 .018-.034c0-.01.026-.073.058-.138.032-.065.059-.122.059-.126 0-.005.026-.063.058-.13.032-.066.058-.124.058-.128 0-.004.02-.05.045-.102.048-.1.07-.147.131-.287a.866.866 0 0 1 .053-.105.263.263 0 0 0 .028-.064.465.465 0 0 1 .036-.083.152.152 0 0 0 .022-.055c0-.01.008-.024.018-.032a.186.186 0 0 0 .034-.068c.009-.03.038-.095.064-.145a.714.714 0 0 0 .048-.102c0-.01.02-.055.133-.297.016-.032.042-.093.06-.134a.768.768 0 0 1 .053-.107.12.12 0 0 0 .022-.053c0-.011.01-.037.02-.056a.14.14 0 0 0 .017-.073L17.44 15h-1.29c-1.028 0-1.288.003-1.288.015zm3.105.09a.684.684 0 0 1-.061.111c-.006.004-.011.016-.011.026 0 .01-.011.043-.025.072l-.06.13a10.483 10.483 0 0 0-.164.361c-.086.18-.136.293-.136.306a.223.223 0 0 1-.03.061c-.078.128-.117.123.885.123.979 0 .92-.006.869.084a.489.489 0 0 0-.038.08 1.722 1.722 0 0 1-.066.144.974.974 0 0 0-.057.13.558.558 0 0 1-.046.099.573.573 0 0 0-.047.098c0 .007-.026.067-.058.133a1.729 1.729 0 0 0-.059.128c0 .009-.054.125-.071.154a1.85 1.85 0 0 1-.064.13.294.294 0 0 0-.028.068.971.971 0 0 1-.053.126c-.055.115-.07.15-.128.277a3.651 3.651 0 0 1-.06.125.318.318 0 0 0-.028.07c0 .008-.01.028-.023.044a.109.109 0 0 0-.023.044c0 .009-.026.07-.058.135a1.458 1.458 0 0 0-.065.15.098.098 0 0 1-.024.045.047.047 0 0 0-.016.031c0 .01-.01.037-.022.06a16.53 16.53 0 0 1-.139.293 2.207 2.207 0 0 0-.066.149 1.503 1.503 0 0 1-.054.12 1.265 1.265 0 0 0-.046.1c0 .003-.016.04-.035.08a.567.567 0 0 0-.035.086c0 .006-.008.017-.017.025a.109.109 0 0 0-.025.05.37.37 0 0 1-.03.079 1.31 1.31 0 0 0-.08.183c0 .006-.01.024-.023.039a.167.167 0 0 0-.031.057c-.004.016-.03.077-.057.135-.076.163-.087.19-.087.228v.034h1.295c1.1 0 1.295-.002 1.295-.016 0-.009.008-.019.017-.023a.748.748 0 0 0 .1-.186c0-.004.024-.059.053-.121.083-.177.105-.226.139-.301.034-.076.047-.105.128-.277a.857.857 0 0 0 .053-.13c0-.01.005-.02.01-.024a.207.207 0 0 0 .032-.062c.011-.03.03-.07.042-.086a.124.124 0 0 0 .021-.045c0-.007.026-.066.058-.13.032-.066.059-.124.059-.131a.97.97 0 0 1 .053-.124 10.212 10.212 0 0 0 .133-.281.542.542 0 0 0 .035-.09c0-.006.008-.018.017-.025.01-.008.02-.031.025-.051a.22.22 0 0 1 .03-.068.125.125 0 0 0 .022-.044c0-.01.065-.157.134-.299a1.6 1.6 0 0 0 .087-.202c0-.006.01-.023.022-.038a.203.203 0 0 0 .03-.057.763.763 0 0 1 .035-.088 55.632 55.632 0 0 1 .356-.787.11.11 0 0 1 .024-.044.108.108 0 0 0 .023-.048c0-.01.011-.035.024-.054a.314.314 0 0 0 .035-.077.249.249 0 0 1 .036-.073l.024-.031h2.074l.041-.055a.323.323 0 0 0 .05-.084.217.217 0 0 1 .028-.061.12.12 0 0 0 .022-.054c0-.013.01-.035.021-.05a.205.205 0 0 0 .03-.058c.006-.016.028-.068.05-.116a61.74 61.74 0 0 0 .203-.447.497.497 0 0 1 .054-.104.047.047 0 0 0 .015-.031.34.34 0 0 1 .03-.082.319.319 0 0 0 .028-.107V15h-6.551l-.05.105zm9.716-.088c0 .01-.001.018-.003.019l-.19.011a2.91 2.91 0 0 0-.244.023l-.158.028c-.054.01-.123.024-.151.031-.03.008-.1.023-.158.035a1.783 1.783 0 0 0-.157.038l-.158.049a3.963 3.963 0 0 0-.221.069.91.91 0 0 0-.092.034 1.656 1.656 0 0 0-.247.103 1.195 1.195 0 0 0-.188.08 1.019 1.019 0 0 1-.133.058.12.12 0 0 0-.045.022c-.017.012-.07.042-.118.066a3.808 3.808 0 0 0-.38.221.757.757 0 0 1-.13.076c-.009 0-.018.007-.022.016a.362.362 0 0 1-.084.066 1.191 1.191 0 0 0-.137.099 4.736 4.736 0 0 0-.81.767.888.888 0 0 0-.107.146c-.008.014-.017.026-.022.026a.259.259 0 0 0-.048.065.92.92 0 0 1-.065.098.34.34 0 0 0-.039.06.918.918 0 0 1-.04.075 1.879 1.879 0 0 0-.094.169.133.133 0 0 0-.017.049c0 .01-.013.044-.03.074a.258.258 0 0 0-.028.075c0 .011-.01.034-.024.05a.108.108 0 0 0-.023.05.785.785 0 0 1-.029.115c-.085.28-.081.257-.082.567 0 .265.002.292.027.373a2.112 2.112 0 0 0 .137.365c.01.024.024.043.029.043.005 0 .014.015.02.032a.42.42 0 0 0 .06.093.342.342 0 0 1 .048.072c0 .017.293.294.322.305a2.973 2.973 0 0 0 .5.263c.02.005.049.015.065.023a.676.676 0 0 0 .105.035c.041.01.089.024.105.03a1.2 1.2 0 0 0 .122.028l.187.034c.051.01.161.022.244.028a.465.465 0 0 1 .156.024c.003.01.472.013 1.721.013h1.717l.044-.06a.25.25 0 0 0 .044-.079c0-.01.023-.065.052-.122.029-.058.053-.109.053-.114 0-.006.026-.066.059-.135l.074-.16.075-.158c.033-.067.06-.127.06-.133 0-.006.027-.065.06-.131a.437.437 0 0 0 .054-.153l-.003-.032-1.581-.007c-1.57-.007-1.675-.01-1.72-.045a.266.266 0 0 0-.056-.023.507.507 0 0 1-.207-.164.535.535 0 0 0-.046-.066c-.045-.05-.042-.338.005-.405a.095.095 0 0 0 .017-.04c0-.014.034-.088.165-.362.031-.067.057-.124.057-.129 0-.004.026-.06.058-.124s.058-.122.059-.128c0-.007.023-.06.052-.117a.674.674 0 0 0 .053-.124.05.05 0 0 1 .017-.033.096.096 0 0 0 .024-.04c.022-.069.119-.264.172-.345a1.62 1.62 0 0 1 .25-.26 2.246 2.246 0 0 1 .282-.176.903.903 0 0 1 .229-.091c.207-.058.115-.056 2.224-.056 1.949-.001 1.979-.001 2.008-.024a.758.758 0 0 0 .114-.202c0-.005.021-.054.047-.11.055-.117.09-.194.127-.278a19.37 19.37 0 0 1 .182-.396l.057-.125a.336.336 0 0 0 .03-.096c0-.019.006-.03.018-.03.01 0 .017-.008.017-.018 0-.015-.248-.017-2.158-.017-1.911 0-2.159.002-2.159.018z" fill="#0086CD"/></svg>