<svg width="36" height="36" fill="none" xmlns="http://www.w3.org/2000/svg"><defs><linearGradient id="a" x1="16.683" y1="5.215" x2="25.467" y2="14.068" gradientUnits="userSpaceOnUse"><stop stop-color="#0069B4"/><stop offset=".1" stop-color="#0069B4"/><stop offset=".9" stop-color="#fff"/><stop offset="1" stop-color="#fff"/></linearGradient><linearGradient id="b" x1="5.199" y1="19.331" x2="14.051" y2="10.548" gradientUnits="userSpaceOnUse"><stop stop-color="#0069B4"/><stop offset=".1" stop-color="#0069B4"/><stop offset=".9" stop-color="#fff"/><stop offset="1" stop-color="#fff"/></linearGradient><linearGradient id="c" x1="19.351" y1="30.817" x2="10.566" y2="21.963" gradientUnits="userSpaceOnUse"><stop stop-color="#0069B4"/><stop offset=".1" stop-color="#0069B4"/><stop offset=".9" stop-color="#fff"/><stop offset="1" stop-color="#fff"/></linearGradient><linearGradient id="d" x1="30.801" y1="16.666" x2="21.948" y2="25.451" gradientUnits="userSpaceOnUse"><stop stop-color="#0069B4"/><stop offset=".1" stop-color="#0069B4"/><stop offset=".9" stop-color="#fff"/><stop offset="1" stop-color="#fff"/></linearGradient></defs><path d="M18 0c2.837 0 5.52.656 7.907 1.825C31.884 4.753 36 10.895 36 18c0 9.942-8.058 18-18 18-9.94 0-18-8.057-18-18C0 8.06 8.06 0 18 0z" fill="#F2F4F7"/><path d="M6.599 15.364a11.625 11.625 0 0 1 3.162-5.67 11.65 11.65 0 0 1 7.764-3.387l6.389 6.438C19.016 9.323 12.225 9.784 7.835 14.14L6.6 15.364z" fill="#0069B4"/><path d="M9.694 26.237a11.657 11.657 0 0 1-3.384-7.765l6.437-6.389c-3.422 4.896-2.963 11.69 1.395 16.081l1.225 1.235a11.666 11.666 0 0 1-5.673-3.162z" fill="#0069B4"/><path d="M12.085 23.251c4.897 3.423 11.688 2.962 16.08-1.394l1.234-1.226a11.667 11.667 0 0 1-3.16 5.673 11.643 11.643 0 0 1-7.766 3.382l-6.388-6.435z" fill="#0069B4"/><path d="M20.632 6.597a11.652 11.652 0 0 1 5.672 3.16 11.666 11.666 0 0 1 3.384 7.767L23.25 23.91c3.424-4.896 2.965-11.69-1.392-16.08l-1.225-1.234z" fill="#0069B4"/><path d="M15.455 6.577c.682-.15 1.375-.24 2.071-.27l6.389 6.439 1.322 1.336a12.534 12.534 0 0 0-3.38-6.25l-1.224-1.235L18.056 4l-2.6 2.577z" fill="url(#a)"/><path d="M7.835 14.14 6.6 15.365 4 17.942l2.579 2.6a11.878 11.878 0 0 1-.27-2.07l6.439-6.388 1.336-1.324a12.534 12.534 0 0 0-6.249 3.38" fill="url(#b)"/><path d="m14.141 28.167 1.225 1.234 2.58 2.596 2.597-2.578a11.39 11.39 0 0 1-2.07.267l-6.387-6.434-1.325-1.338a12.55 12.55 0 0 0 3.38 6.253" fill="url(#c)"/><path d="m29.689 17.529-6.439 6.386-1.334 1.325a12.54 12.54 0 0 0 6.25-3.38l1.234-1.226 2.6-2.58-2.578-2.598c.15.683.24 1.377.267 2.073" fill="url(#d)"/></svg>