<svg width="36" height="36" fill="none" xmlns="http://www.w3.org/2000/svg"><defs><linearGradient id="a" x1="16.74" y1="14.314" x2="11.98" y2="22.807" gradientUnits="userSpaceOnUse"><stop stop-color="#445EAB"/><stop offset=".21" stop-color="#52B7E5"/><stop offset=".46" stop-color="#18934B"/><stop offset=".63" stop-color="#9ECF1F"/><stop offset=".77" stop-color="#E0E101"/><stop offset=".89" stop-color="#E3BA10"/><stop offset="1" stop-color="#D1483E"/></linearGradient></defs><path d="M18 0c2.837 0 5.52.656 7.907 1.825C31.884 4.753 36 10.895 36 18c0 9.942-8.058 18-18 18-9.94 0-18-8.057-18-18C0 8.06 8.06 0 18 0z" fill="#F2F4F7"/><path fill-rule="evenodd" clip-rule="evenodd" d="M18 30.833a12.833 12.833 0 1 0 0-25.665 12.833 12.833 0 0 0 0 25.665zM18 32a14 14 0 1 0 0-28 14 14 0 0 0 0 28z" fill="#144A90"/><path d="M8.667 11h4.666v14H8.667V11zm7 0h4.666v14h-4.666V11zm7 4.667h1.166c1.937 0 3.5 1.563 3.5 3.5V25h-4.666v-9.333z" fill="#144A90"/><path d="M20.333 15.714a12.367 12.367 0 0 0-11.666 5.483l3.593 1.47a13.86 13.86 0 0 1 8.073-6.953z" fill="url(#a)"/></svg>