<svg width="36" height="36" fill="none" xmlns="http://www.w3.org/2000/svg"><path d="M18 0c2.837 0 5.52.656 7.907 1.825C31.884 4.753 36 10.895 36 18c0 9.942-8.058 18-18 18-9.94 0-18-8.057-18-18C0 8.06 8.06 0 18 0z" fill="#F2F4F7"/><path fill-rule="evenodd" clip-rule="evenodd" d="m6.008 14.913 9.14 2.958c.739.317.792.687.105 1.057l-9.245 3.381C5.743 21.041 4.053 19.984 4 18.717c0-1.215 1.69-2.59 2.008-3.804zM10.34 8.52l5.441 7.45c.423.686.211.95-.528.845L6.06 14.543c.37-1.215-.37-3.064.37-4.12.634-.952 2.906-1.11 3.91-1.903zm7.607-2.694-.475 9.245c-.106.793-.423.951-1.004.37l-5.811-7.238c1.003-.686 1.637-2.694 2.852-3.064 1.163-.37 3.17.687 4.438.687zm7.608 2.483-5.97 7.132c-.528.581-.898.476-1.004-.264l-.37-9.298c1.268.053 3.012-1.215 4.174-.793 1.162.37 2.113 2.43 3.17 3.223zm4.438 6.287-9.087 2.271c-.793.159-1.004-.105-.634-.845L25.66 8.52c1.004.74 3.117.74 3.857 1.797.687.95.106 3.064.476 4.279zm0 7.766-9.034-3.487c-.74-.37-.74-.74 0-1.056l9.086-2.8C30.362 16.233 32 17.5 32 18.768c0 1.216-1.585 2.378-2.008 3.593z" fill="url(#a)"/><path fill-rule="evenodd" clip-rule="evenodd" d="m18.001 19.147 11.94 3.54c-.317 1.373.158 2.8-.687 4.015-.792 1.268-2.853 1.215-4.068 2.06-1.162.898-1.48 2.642-2.853 3.117-1.32.423-2.747-.74-4.226-.74-1.48 0-3.064 1.163-4.438.687-1.426-.475-1.796-2.271-2.958-3.17-1.163-.898-3.17-.845-3.91-2.007-.792-1.215-.264-2.695-.58-3.962L18 19.147z" fill="#DA251D"/><defs><radialGradient id="a" cx="0" cy="0" r="1" gradientUnits="userSpaceOnUse" gradientTransform="matrix(14 0 0 14 17.472 16.815)"><stop stop-color="#F6F091"/><stop offset=".2" stop-color="#FEF170"/><stop offset=".831" stop-color="#E77917"/><stop offset="1" stop-color="#E05724"/></radialGradient></defs></svg>