<svg width="36" height="36" fill="none" xmlns="http://www.w3.org/2000/svg"><path d="M18 0c2.837 0 5.52.656 7.907 1.825C31.884 4.753 36 10.895 36 18c0 9.942-8.058 18-18 18-9.94 0-18-8.057-18-18C0 8.06 8.06 0 18 0z" fill="#F2F4F7"/><path fill-rule="evenodd" clip-rule="evenodd" d="M7.027 14.02c-.066.03-.162.147-.637.775-1.182 1.56-2.01 2.985-2.28 3.918a3.063 3.063 0 0 0 .348 2.424c1.55 2.43 5.233 1.705 5.717-1.123.162-.95-.097-1.74-1.153-3.503-.571-.956-.558-.948-.862-.52-.417.585-.719 1.064-1.305 2.07-.077.131-.19.32-.254.42-.2.316-.228.393-.22.61a.74.74 0 0 0 1.182.565c.107-.076.145-.127.405-.543.391-.623.393-.625.48-.612.214.032.41.82.319 1.286-.293 1.503-2.216 1.914-3.057.654-.589-.88-.327-1.679 1.39-4.236.105-.157.294-.43.42-.607.304-.426.33-.48.32-.665-.007-.132-.02-.153-.401-.64a35.5 35.5 0 0 1-.14-.18c-.083-.107-.174-.138-.272-.093z" fill="#038B3F"/><path fill-rule="evenodd" clip-rule="evenodd" d="M26.57 16.647a2.923 2.923 0 0 0-.008.298v.29h.844v-.596h-.414c-.228 0-.418.004-.422.008zm-13.878.076c-.992.133-1.6 1.09-1.292 2.033.338 1.033 1.695 1.37 2.708.671l.119-.082.003-.669.003-.668h-1.369v.595h.583v.365l-.079.038a.958.958 0 0 1-.777-.008c-.47-.231-.571-.947-.186-1.33.317-.315.759-.302 1.216.036.024.018.033.009.266-.27l.24-.29-.045-.039c-.328-.288-.907-.447-1.39-.382zm7.902.012c-.619.096-.99.567-.882 1.119.075.381.332.562 1.055.742.454.114.533.155.544.285.027.328-.729.284-1.21-.07-.094-.07-.068-.087-.315.207-.25.299-.237.272-.166.33.67.555 1.89.585 2.326.058.27-.325.272-.843.005-1.118-.172-.178-.391-.274-.904-.399-.412-.1-.506-.15-.516-.275-.023-.296.569-.277 1.054.032a.4.4 0 0 0 .071.04c.007 0 .168-.222.359-.497l.053-.076-.03-.023c-.35-.276-.971-.428-1.444-.355zm10.058.418-.003.288-.109-.003c-.172-.005-.16-.032-.156.335l.004.312.132.003.133.004.006.55c.006.692.021.768.183.937.203.214.666.266 1.048.119l.098-.038v-.642l-.033.018c-.107.055-.315.072-.393.032-.09-.047-.091-.048-.095-.54l-.004-.437H32v-.656l-.265.002-.264.002-.004-.287-.003-.287h-.808l-.003.288zm-15.187.25c-1.196.151-1.376 1.924-.235 2.312.404.137.866.084 1.194-.137.08-.054.26-.226.26-.248 0-.01-.217-.198-.389-.334l-.05-.04-.063.056c-.336.294-.838.2-.932-.175l-.008-.032h1.538v-.158c0-.827-.545-1.342-1.315-1.245zm2.927.003a.825.825 0 0 0-.455.26l-.086.088-.003-.156-.003-.156-.402-.002-.402-.003v2.296h.81v-.657c0-.729 0-.739.077-.844.116-.16.397-.163.506-.004.067.098.065.069.071.809l.006.69.402.003.402.003-.004-.854c-.004-.956 0-.904-.093-1.096-.14-.286-.485-.443-.826-.377zm10.74-.006a.8.8 0 0 0-.466.236l-.105.1v-.287l-.039-.007a6.555 6.555 0 0 0-.401-.003l-.363.003-.003 1.485-.003 1.485h.809v-.47c0-.26.003-.47.006-.47a.63.63 0 0 1 .075.066c.41.4 1.098.304 1.428-.2.272-.418.275-1.07.005-1.49a.981.981 0 0 0-.943-.448zm-5.855.025a1.195 1.195 0 0 0-.87 1.612c.332.859 1.527 1.026 2.095.293l.05-.064-.11-.079-.27-.195-.16-.117-.08.078c-.342.33-.822.116-.822-.366 0-.464.49-.68.806-.356a.34.34 0 0 0 .084.072c.006-.002.129-.091.274-.198l.264-.195-.038-.054c-.258-.363-.743-.534-1.223-.43zm2.83-.012c-.212.036-.386.17-.5.385l-.051.097-.003-.23-.003-.229-.396.003-.395.003-.003 1.146-.003 1.145h.795l.005-.443c.007-.494.014-.555.087-.708.097-.21.29-.324.544-.324h.092V17.4l-.056.001a.956.956 0 0 0-.113.011zm.511.032-.033.005v2.283h.81v-1.14c0-.938-.003-1.143-.016-1.148-.02-.008-.715-.008-.76 0zm-10.891.557c.153.04.288.207.29.36l.001.038h-.788l.008-.044c.045-.257.261-.413.489-.354zm13.467.104c.386.176.378.822-.012.974-.322.125-.632-.117-.633-.496 0-.373.333-.621.645-.479z" fill="#00478C"/><path fill-rule="evenodd" clip-rule="evenodd" d="m13.748 21.147.003.556h.119l.003-.108.004-.108.075-.074.075-.075.146.185.145.186h.065c.083 0 .09.016-.102-.238l-.167-.22.164-.166.163-.167-.071-.004-.072-.004-.21.218-.211.218v-.378l-.001-.378h-.131l.003.557zm7.91.003v.56l.057-.003.057-.004.006-.262c.008-.357.052-.435.246-.434.168 0 .198.062.206.416l.006.28.056.004.057.003v-.295c0-.285-.001-.297-.028-.355-.085-.183-.332-.221-.489-.076l-.054.05v-.444h-.12v.56zm-10.037-.51c-.004.009-.005.251-.003.54l.003.523.056.004.057.003.003-.43.003-.432.184.27c.101.15.19.276.197.282.009.007.062-.062.167-.217.085-.125.17-.25.19-.276l.035-.049.006.423.006.422.057.004.056.003v-1.084h-.052c-.067 0-.052-.017-.268.308-.124.186-.188.272-.196.264a9.84 9.84 0 0 1-.197-.29l-.185-.276-.057-.004c-.038-.002-.058.002-.062.012zm4.26 0c-.004.01-.005.251-.003.54l.003.523h.12l.002-.205.004-.206h.304l.14.19c.175.24.162.227.24.227.085 0 .088.008-.09-.227-.147-.194-.164-.225-.124-.225.082 0 .21-.115.239-.212.058-.201-.075-.377-.309-.407-.134-.018-.52-.015-.526.003zm7.15-.004c-.013.007-.015.123-.013.538l.003.529.39.003.39.003v-.119h-.655v-.369h.583v-.107h-.583v-.369h.656l-.004-.056-.003-.057-.375-.003a4.21 4.21 0 0 0-.39.007zm-6.548.14c.174.08.15.319-.037.385-.023.008-.13.018-.24.021l-.2.007v-.446l.211.004c.184.004.219.008.266.03zm-3.415.136c-.158.033-.173.052-.126.151 0 .002.03-.009.066-.023.2-.079.386-.01.401.147l.006.058-.04-.01c-.233-.05-.473.015-.522.145-.1.265.258.452.504.264l.054-.041.003.05.004.05h.107v-.297c0-.33-.004-.348-.085-.425-.07-.066-.238-.097-.372-.07zm1.655.024c-.307.154-.282.64.04.76a.437.437 0 0 0 .422-.08l.042-.036-.034-.036-.034-.035-.056.038c-.195.139-.477.03-.477-.184 0-.007.12-.011.315-.011h.315v-.05c0-.3-.28-.492-.533-.366zm2.393-.017c-.252.09-.326.49-.126.69.142.142.403.146.563.007l.042-.036-.035-.036-.034-.037-.055.04c-.168.121-.367.08-.449-.094-.051-.108-.071-.101.287-.101h.316v-.033c-.003-.3-.247-.492-.509-.4zm.812-.005c-.102.036-.169.134-.157.233.01.1.069.146.264.206.175.055.225.112.174.197-.049.079-.192.085-.334.014l-.085-.042-.031.041c-.037.047-.038.045.077.1.258.125.518.023.5-.197-.009-.106-.063-.155-.236-.21-.175-.057-.213-.082-.213-.144-.002-.11.151-.141.322-.068l.06.026.023-.028c.035-.046.028-.066-.034-.092a.5.5 0 0 0-.33-.036zm.77.022c-.307.154-.282.64.04.76a.438.438 0 0 0 .422-.08l.041-.036-.034-.036-.034-.035-.055.038c-.192.136-.425.058-.471-.156l-.009-.039h.637l-.008-.084c-.024-.288-.286-.453-.529-.332zm.88-.024c-.08.017-.156.049-.156.065 0 .013.023.09.027.09l.068-.027c.198-.078.387-.01.402.145l.005.06-.04-.01c-.197-.043-.431.004-.498.1-.18.265.224.516.489.303l.045-.036.004.05.003.051h.107v-.297c0-.33-.003-.348-.085-.425-.07-.066-.237-.097-.372-.07zm.98.016c-.056.026-.158.123-.163.155a.355.355 0 0 1-.009-.076l-.007-.09h-.119v.786h.12l.005-.22c.01-.324.087-.45.283-.452h.039V20.9h-.045a.31.31 0 0 0-.104.028zm.473-.007a.416.416 0 0 0-.095.72c.157.116.39.101.52-.033l.04-.042-.028-.03c-.035-.037-.036-.037-.105.012-.21.15-.47.017-.47-.24.001-.264.308-.407.48-.223.036.037.047.036.087-.012l.032-.04-.05-.043a.449.449 0 0 0-.41-.069zm3.14-.01c-.079.017-.156.05-.156.066 0 .013.024.09.028.09l.067-.027c.199-.078.387-.01.402.145l.006.06-.04-.01c-.233-.05-.473.015-.522.145-.1.265.258.452.504.264l.053-.041.004.05.004.05h.107l.003-.262c.005-.312-.003-.363-.07-.438-.074-.085-.237-.123-.39-.091zm.79.017c-.234.109-.174.331.113.42.176.053.231.101.206.178-.032.096-.196.114-.347.039l-.086-.043-.029.037c-.093.119.326.213.484.108.189-.125.112-.332-.154-.415-.155-.049-.205-.082-.205-.14 0-.111.158-.142.328-.065l.062.029.026-.046.025-.046-.05-.026c-.126-.064-.274-.076-.374-.03zm.53-.005c0 .006.052.125.117.265l.175.382.057.128-.026.052c-.042.089-.074.1-.232.087-.028-.003-.036.004-.05.035-.02.05 0 .063.108.072.212.017.224.002.473-.61.192-.476.18-.424.104-.42l-.062.004-.125.32a19.05 19.05 0 0 1-.128.325 8.594 8.594 0 0 1-.144-.324l-.141-.327h-.063c-.035 0-.063.005-.063.01zm-10.538.085a.28.28 0 0 1 .158.161c.028.094.044.088-.236.088h-.25l.008-.033c.038-.167.172-.257.32-.216zm2.365 0c.083.023.175.139.175.222v.027h-.25a1.66 1.66 0 0 1-.25-.01c0-.148.179-.28.325-.24zm1.606 0c.084.023.176.139.176.222v.027h-.5l.007-.033c.038-.165.172-.257.317-.217zm-5.545.319c.068.026.035.19-.05.246-.199.132-.483-.035-.337-.198.061-.067.27-.093.387-.048zm6.467-.01c.084.015.094.028.081.11-.038.238-.458.272-.458.038 0-.13.147-.188.377-.148zm4.593 0 .076.014v.065c0 .203-.275.312-.414.164-.143-.153.05-.293.338-.242z" fill="#30454D"/></svg>