<svg width="36" height="36" fill="none" xmlns="http://www.w3.org/2000/svg"><defs><linearGradient id="a" x1="18" y1="11" x2="18" y2="22.673" gradientUnits="userSpaceOnUse"><stop stop-color="#FEF8EC"/><stop offset="1" stop-color="#916E58"/></linearGradient><linearGradient id="b" x1="20.64" y1="18.245" x2="16.086" y2="22.916" gradientUnits="userSpaceOnUse"><stop stop-color="#51422C"/><stop offset="1" stop-color="#7C644A"/></linearGradient><linearGradient id="c" x1="4.366" y1="18.656" x2="31.579" y2="19.179" gradientUnits="userSpaceOnUse"><stop stop-color="#553F1C"/><stop offset="1" stop-color="#120903"/></linearGradient><linearGradient id="d" x1="18.043" y1="13.199" x2="18.043" y2="23.981" gradientUnits="userSpaceOnUse"><stop stop-color="#E6C892"/><stop offset=".63" stop-color="#937959"/><stop offset="1" stop-color="#F2E3CA"/></linearGradient><linearGradient id="e" x1="31.057" y1="13.132" x2="5.019" y2="13.368" gradientUnits="userSpaceOnUse"><stop stop-color="#987D5B"/><stop offset=".496" stop-color="#2A160E"/><stop offset="1" stop-color="#A38962"/></linearGradient><linearGradient id="f" x1="6.517" y1="14.02" x2="11.074" y2="15.66" gradientUnits="userSpaceOnUse"><stop stop-color="#869399"/><stop offset="1" stop-color="#6D6F77"/></linearGradient><linearGradient id="g" x1="24.817" y1="13.78" x2="29.689" y2="15.231" gradientUnits="userSpaceOnUse"><stop stop-color="#858F96"/><stop offset="1" stop-color="#6C6E77"/></linearGradient><linearGradient id="h" x1="6.652" y1="14.155" x2="10.766" y2="15.177" gradientUnits="userSpaceOnUse"><stop stop-color="#9AA9B0"/><stop offset="1" stop-color="#737A7E"/></linearGradient><linearGradient id="i" x1="25.304" y1="14.073" x2="29.553" y2="14.915" gradientUnits="userSpaceOnUse"><stop stop-color="#98A4AA"/><stop offset="1" stop-color="#71767B"/></linearGradient><linearGradient id="j" x1="12.648" y1="12.651" x2="12.648" y2="16.907" gradientUnits="userSpaceOnUse"><stop stop-color="#6B594B"/><stop offset=".532" stop-color="#FBEDD1"/><stop offset="1" stop-color="#E3CDAE"/></linearGradient><linearGradient id="k" x1="13.372" y1="12.676" x2="13.372" y2="16.907" gradientUnits="userSpaceOnUse"><stop stop-color="#352A24"/><stop offset=".504" stop-color="#C6A77D"/><stop offset="1" stop-color="#BEA281"/></linearGradient><linearGradient id="l" x1="22.713" y1="12.663" x2="22.713" y2="16.899" gradientUnits="userSpaceOnUse"><stop stop-color="#625244"/><stop offset=".5" stop-color="#F8EACD"/><stop offset="1" stop-color="#E3CDAE"/></linearGradient><linearGradient id="m" x1="23.437" y1="12.663" x2="23.437" y2="16.906" gradientUnits="userSpaceOnUse"><stop stop-color="#3E322B"/><stop offset=".499" stop-color="#CBAC7F"/><stop offset="1" stop-color="#BBA081"/></linearGradient><linearGradient id="n" x1="14.864" y1="14.646" x2="18.032" y2="14.646" gradientUnits="userSpaceOnUse"><stop stop-color="#ABD6F2"/><stop offset="1" stop-color="#6FC3EE"/></linearGradient><linearGradient id="o" x1="16.037" y1="16.208" x2="16.037" y2="16.864" gradientUnits="userSpaceOnUse"><stop stop-color="#005BAC"/><stop offset="1" stop-color="#00213E"/></linearGradient><linearGradient id="p" x1="20.03" y1="16.208" x2="20.03" y2="16.864" gradientUnits="userSpaceOnUse"><stop stop-color="#00479D"/><stop offset="1" stop-color="#001D40"/></linearGradient><linearGradient id="q" x1="18.04" y1="17.163" x2="18.04" y2="18.362" gradientUnits="userSpaceOnUse"><stop stop-color="#FDE6BE"/><stop offset=".524" stop-color="#FCFBF9"/><stop offset="1" stop-color="#CBB89B"/></linearGradient><linearGradient id="r" x1="7.041" y1="18.69" x2="11.393" y2="20.84" gradientUnits="userSpaceOnUse"><stop stop-color="#99D2F3"/><stop offset="1" stop-color="#0099DF"/></linearGradient><linearGradient id="s" x1="24.715" y1="19.125" x2="28.199" y2="19.699" gradientUnits="userSpaceOnUse"><stop stop-color="#99D2F3"/><stop offset="1" stop-color="#11ADE6"/></linearGradient><linearGradient id="t" x1="12.777" y1="18.301" x2="12.777" y2="22.452" gradientUnits="userSpaceOnUse"><stop stop-color="#524439"/><stop offset=".498" stop-color="#F9EACF"/><stop offset="1" stop-color="#E3CDAE"/></linearGradient><linearGradient id="u" x1="13.373" y1="18.301" x2="13.373" y2="22.452" gradientUnits="userSpaceOnUse"><stop stop-color="#322822"/><stop offset=".476" stop-color="#C5A67D"/><stop offset="1" stop-color="#BBA081"/></linearGradient><linearGradient id="v" x1="22.656" y1="18.301" x2="22.656" y2="22.479" gradientUnits="userSpaceOnUse"><stop stop-color="#615144"/><stop offset=".445" stop-color="#FCEED2"/><stop offset="1" stop-color="#E3CDAE"/></linearGradient><linearGradient id="w" x1="23.238" y1="18.301" x2="23.238" y2="22.492" gradientUnits="userSpaceOnUse"><stop stop-color="#2B221D"/><stop offset=".488" stop-color="#C6A77E"/><stop offset="1" stop-color="#BBA081"/></linearGradient><linearGradient id="x" x1="15.986" y1="18.538" x2="15.986" y2="19.438" gradientUnits="userSpaceOnUse"><stop stop-color="#1A1107"/><stop offset="1" stop-color="#403D3C"/></linearGradient><linearGradient id="y" x1="20.059" y1="18.538" x2="20.059" y2="19.439" gradientUnits="userSpaceOnUse"><stop stop-color="#090605"/><stop offset="1" stop-color="#2F2725"/></linearGradient><linearGradient id="z" x1="14.923" y1="20.675" x2="21.135" y2="20.878" gradientUnits="userSpaceOnUse"><stop stop-color="#939CA3"/><stop offset="1" stop-color="#545151"/></linearGradient></defs><path d="M18 0c2.837 0 5.52.656 7.907 1.825C31.884 4.753 36 10.895 36 18c0 9.942-8.058 18-18 18-9.94 0-18-8.057-18-18C0 8.06 8.06 0 18 0z" fill="#F2F4F7"/><path d="M7.299 22.192c2.835 1.17 8.297 2.278 10.741 2.67 4.207-.607 8.722-1.897 10.67-2.644 2.675-1.218 2.83-2.7 2.919-3.552l.003-.025s.287-3.027.365-4.947c.078-1.92-1.487-2.046-2.853-2.046L18.04 11c-3.158.17-9.972.548-11.96.686-1.987.136-2.157 1.415-2.059 2.304l.336 4.376c.137 2.273 1.659 3.297 2.942 3.826z" fill="url(#a)" stroke="#080300" stroke-width=".2"/><path d="m18.028 18.35-12.44-1.174c0 .18.025.768.127 1.68.102.912 1.14 1.634 1.645 1.881 1.757 1.038 7.844 2.213 10.668 2.672 3.116-.348 8.35-1.672 10.516-2.567 1.499-.704 1.872-1.948 1.871-2.481l.086-1.183-12.474 1.172h.001z" fill="url(#b)"/><path d="m14.943 19.518-.52-.5.061 3.038.495-.283-.036-2.255z" fill="#4F4F4F"/><path d="m14.429 19.037-.482-.49v3.817l.545-.311-.063-3.017zm7.197-.017.448-.482v3.837l-.486-.339.038-3.016z" fill="#252525"/><path d="m14.924 19.528-.517-.525 3.613.427v.476l-3.096-.378z" fill="#6A6868"/><path d="m21.147 19.515.476-.497-3.603.41v.486l3.127-.399z" fill="#3F3A39"/><path d="M18.04 24.862c-2.444-.392-7.907-1.5-10.741-2.67-1.283-.53-2.805-1.553-2.942-3.826l-.09-2.16v-.022.021c.011.244.159 2.504 1.651 4.112.364.392.952.866 2.103 1.303 3.244 1.232 9.296 2.415 10.019 2.368 2.02-.137 11.044-1.95 12.081-3.671 0 0 1.218-1.218 1.66-4.123l-.15 2.447-.002.025c-.09.854-.245 2.334-2.919 3.553-1.947.745-6.462 2.037-10.67 2.643z" fill="url(#c)"/><path d="M5.024 14.307c-.009-.735.457-1.044.692-1.108-.301.285-.353.7-.34.872.084 1.42.27 4.347.34 4.697.076.383.051 1.199 2.282 2.286 1.785.87 7.449 1.94 10.057 2.368 1.855-.137 9.178-1.779 10.783-2.736 1.345-.802 1.56-1.821 1.575-2.308l.276-4.269c0-.582-.245-.849-.367-.91a1.045 1.045 0 0 1 .734 1.108c-.036.981-.16 3.266-.367 4.557-.207 1.293-1.109 1.999-1.533 2.19-3.04 1.601-8.668 2.62-11.101 2.927-5.995-.816-9.939-2.292-11.16-2.927-1.157-.637-1.467-1.725-1.478-2.189-.127-1.213-.385-3.823-.393-4.558z" fill="url(#d)" stroke="#F0DEB2" stroke-width=".2"/><path d="M6.167 12.884c-1.052.024-1.196.79-1.136 1.172.163-.805.625-.898 1.38-1.073.603-.14 8.024-.456 11.66-.597 3.51.16 11.379.64 11.716.695.948.154 1.24.662 1.267.908.065-.93-.817-1.137-1.267-1.123-3.358-.224-10.404-.67-11.716-.658-1.313.012-8.483.455-11.904.676z" fill="url(#e)"/><path d="m5.819 16.163-.32.27-.121-2.273c.03-.925.28-1.088 1.262-1.218.982-.13 9.826-.578 11.382-.64 1.245-.05 8.476.496 11.936.775.709.046.782.853.73 1.251l-.147 2.106-.291-.29.133-1.95c-.064-.517-.066-.82-.749-.98-.59-.138-4.249-.313-6.004-.415-.13-.026-.415-.109-.533-.109-.118 0-.483.045-.656.045-2.313-.249-6.86-.17-8.783-.021a3.638 3.638 0 0 0-.708.022c-.31.037-.551.044-.63.082-1.001.046-4.958.252-5.857.389-.718.11-.814.647-.772.903l.128 2.053z" fill="#412C13"/><path d="m6.086 13.575-.124-.173c-.251.14-.306.49-.273.765l.124 2.007.314-.381-.041-2.218zm23.893.02.145-.186c.251.14.293.583.273.766l-.143 2.014-.314-.382.04-2.212z" fill="#232222"/><path d="M6.951 13.13c-.527.06-.839.136-.99.275l.129.19 5.722-.314.501-.383.05-.14c-1.584.099-4.884.312-5.41.372H6.95z" fill="#1C1B1B"/><path d="M29.115 13.136c.528.06.709.095 1.015.276l-.15.197-5.721-.312-.506-.384-.05-.14c1.584.099 4.884.303 5.412.363z" fill="#292B2B"/><path d="m12.143 16.54.179-3.659-.511.39-.133 2.846.465.423z" fill="#232222"/><path d="m23.91 16.546-.166-3.649.518.367.126 2.868-.478.415v-.001z" fill="#292B2B"/><path d="m12.157 16.539-6.335-.382.305-.39 5.551.35.479.422z" fill="#1C1B1B"/><path d="m23.901 16.54 6.344-.367-.305-.39-5.552.348-.487.41z" fill="#393331"/><path d="m6.382 13.81-.305-.24.045 2.23.317-.386-.057-1.603zm23.302.015.305-.24-.048 2.233-.34-.404.083-1.589z" fill="#4F4F4F"/><path d="m11.826 13.276-5.748.311.304.231 4.884-.19.56-.352zm12.438.011 5.732.3-.312.247-4.884-.19-.536-.358v.001z" fill="#575656"/><path d="m11.684 16.13.126-2.85-.544.34-.1 2.065-4.726-.273-.318.371 5.562.347z" fill="#141313"/><path d="m11.273 13.62-4.9.185.061 1.614 4.74.273.1-2.072z" fill="url(#f)"/><path d="m24.817 13.643 4.867.19-.075 1.593-4.693.266-.1-2.049z" fill="url(#g)"/><path d="m10.762 13.884-4.247.091.065 1.02 4.116.192.067-1.302z" fill="url(#h)"/><path d="m25.304 13.9 4.248.09-.066 1.021-4.116.19-.066-1.301z" fill="url(#i)"/><path d="m24.834 13.64-.58-.368.126 2.87.539-.458-.085-2.043z" fill="#141313"/><path d="m29.615 15.42-4.702.258-.54.462 5.554-.355-.312-.364z" fill="#252525"/><path d="m12.437 12.771-.121.034-.172 3.727.182.231.111-3.992z" fill="#453C1E"/><path d="M12.944 12.651c-.032 0-.36.093-.514.138l-.096 3.974.61.144c.014-1.419.032-4.256 0-4.256z" fill="url(#j)"/><path d="M13.578 12.675h-.626v4.232l.84-.095-.214-4.137z" fill="url(#k)"/><path d="m13.697 12.747-.126-.074.22 4.146.247-.16-.34-3.913z" fill="#453C1E"/><path d="m22.479 12.688-.123.048-.33 3.92.267.157.186-4.125z" fill="#685C4E"/><path d="m23.131 12.663-.66.03-.176 4.121.837.085v-4.236z" fill="url(#l)"/><path d="m23.632 12.756-.513-.09.018 4.24.599-.123-.104-4.028z" fill="url(#m)"/><path d="M23.753 12.835c.005-.044-.093-.066-.128-.082l.112 4.036.18-.26-.164-3.694z" fill="#685C4E"/><path d="m18.013 12.437-4.399.262.084.056v.091l4.347-.175 4.317.186.022-.115.072-.043-4.443-.262z" fill="#050200"/><path d="m18.042 12.662-4.338.184.48.325 3.858-.136v-.373z" fill="#01327A"/><path d="m18.028 12.663 4.343.184-.47.312-3.873-.13v-.366zm-3.843.501-.48-.318.328 3.817.451-.45-.298-3.049z" fill="#00479D"/><path d="m21.89 13.161.46-.308-.314 3.822-.457-.455.312-3.059z" fill="#00479D"/><path d="m14.722 13.485-.54-.324.304 3.067.431-.46-.195-2.283z" fill="#0086D1"/><path d="m21.355 13.482.54-.325-.302 3.08-.446-.457.208-2.298z" fill="#023894"/><path d="m18.03 13.025-3.864.135.548.321 3.316-.113v-.344z" fill="#006EBC"/><path d="m18.019 13.02 3.903.132-.561.345-3.342-.127v-.35z" fill="#005BAC"/><path d="m18.032 13.366-3.314.116.204 2.283 3.11.161v-2.56z" fill="url(#n)"/><path d="m18.03 13.366 3.336.12-.2 2.288-3.136.152v-2.56z" fill="#1092D4"/><path d="m18.032 15.927-3.108-.166-.435.455 3.543.177v-.466z" fill="#023894"/><path d="m18.03 15.927 3.115-.166.437.455-3.552.177v-.466z" fill="#00327B"/><path d="m18.032 16.88-4.01-.22.467-.452 3.543.182v.49z" fill="url(#o)"/><path d="m18.03 16.885 4.022-.224-.471-.453-3.55.182v.495z" fill="url(#p)"/><path d="m5.826 16.143-.326.284.06.475c.171-.428.58-.451.807-.431l6.56.431-.601-.155-.163-.207-6.337-.397z" fill="#665132"/><path d="m30.271 16.144.266.28-.031.482c-.169-.476-.565-.462-.805-.444l-6.564.444.604-.124.157-.242 6.373-.396z" fill="#51412A"/><path d="m13.79 16.812-.844.098 5.079.351 5.112-.356-.842-.092-.263-.165-4.007.223-3.989-.215-.246.156z" fill="#56452D"/><path d="M6.39 16.473c-.794-.01-.87.463-.81.7l12.458 1.19 12.475-1.185c.048-.74-.573-.756-.952-.71l-11.523.797c-3.552-.26-10.854-.782-11.648-.791v-.001z" fill="url(#q)"/><path d="m12.248 18.34-6.393-.763.448.401 5.614.712.33-.35z" fill="#004E82"/><path d="m23.764 18.33 6.416-.776-.437.39-5.615.729-.363-.343h-.001z" fill="#003153"/><path d="M7.282 20.305c-1.255-.71-1.474-2.115-1.428-2.729l.43.382c.123.945.29 1.553 1.585 2.233 1.036.544 3.304 1.22 4.312 1.483l.364.29v.1l-.034-.01c-1.834-.496-4.098-1.108-5.23-1.749zm21.47-.021c1.254-.71 1.474-2.115 1.427-2.73l-.429.382c-.124.946-.28 1.568-1.575 2.249-1.036.544-3.314 1.205-4.323 1.468l-.363.29v.1l.034-.01c1.834-.496 4.097-1.109 5.23-1.75v.001z" fill="#0054A7"/><path d="M7.938 20.235c1.071.546 3.288 1.197 4.255 1.448l-.622-.626c-2.31-.57-3.372-1.006-3.753-1.236-.893-.512-1.134-1.18-1.142-1.45l-.392-.414c.102.975.315 1.596 1.654 2.278zm20.184-.01c-1.071.546-3.303 1.189-4.27 1.44l.617-.61c2.31-.57 3.366-1.025 3.747-1.256.893-.51 1.134-1.18 1.142-1.45l.397-.412c-.103.976-.294 1.606-1.633 2.288z" fill="#00327B"/><path d="m12.179 21.686-.274-2.996.334-.36.301 3.631-.361-.275zm11.692-.044.258-2.974-.336-.32-.3 3.592.378-.298z" fill="#062C87"/><path d="m11.896 18.68-5.612-.72.383.41 4.697.76.532-.449zm12.212-.015 5.65-.729-.392.413-4.677.774-.581-.459z" fill="#005BAC"/><path d="m12.187 21.676-.284-3.014-.547.46.189 1.942.642.612zm11.673-.023.26-2.985.558.432-.189 1.943-.63.61z" fill="#00479D"/><path d="M8.562 20.175c-1.49-.526-1.884-1.445-1.895-1.814l4.689.754.206 1.95c-.752-.177-1.441-.34-3-.89z" fill="url(#r)"/><path d="M27.486 20.166c1.456-.532 1.877-1.456 1.888-1.824l-4.696.776-.203 1.95c.751-.176 1.459-.335 3.011-.902z" fill="url(#s)"/><path d="m12.367 18.3-.136.04.308 3.693.126.173-.298-3.905z" fill="#352E17"/><path d="M12.95 18.3h-.583l.291 3.9.53.252-.238-4.15V18.3z" fill="url(#t)"/><path d="m13.717 18.427-.774-.126.245 4.151h.616l-.087-4.025z" fill="url(#u)"/><path d="m13.949 18.534-.238-.105.084 4.023.175-.094-.021-3.824z" fill="#352E17"/><path d="m23.64 18.299.174.056-.32 3.687-.13.177.275-3.92zm-1.32.122-.246.107v3.845l.146.1.098-4.052h.001z" fill="#40372E"/><path d="m23.093 18.3-.768.127-.105 4.052h.609l.264-4.178z" fill="url(#v)"/><path d="M23.65 18.3h-.55l-.272 4.192.536-.273.284-3.918h.001z" fill="url(#w)"/><path d="m18.023 18.951-4.092-.415.476.497 3.616.405v-.487z" fill="url(#x)"/><path d="m18.023 18.952 4.073-.413-.44.484-3.633.416v-.487z" fill="url(#y)"/><path d="m21.633 19.006-.492.502-.041 2.265.499.278.035-3.045z" fill="#000"/><path d="m18.04 23.06-4.103-.701.552-.318 3.55.558v.461z" fill="#3F3A39"/><path d="m18.028 23.054 4.05-.679-.473-.337-3.577.556v.46z" fill="#000"/><path d="m14.974 21.76-.506.288 3.557.563v-.38l-3.052-.471h.001z" fill="#252525"/><path d="m21.107 21.768-3.088.462v.382l3.591-.57-.504-.273z" fill="#252525"/><path d="m18.013 19.893-3.09-.376.043 2.243 3.047.483 3.096-.475.038-2.267-3.134.392z" fill="url(#z)"/><path d="m18.015 20.228-2.642-.275.03 1.6 2.612.375v-1.7z" fill="#8E959C"/><path d="m18.015 20.228 2.642-.275-.03 1.6-2.611.375v-1.7h-.001z" fill="#5A5858"/></svg>