<svg width="36" height="36" fill="none" xmlns="http://www.w3.org/2000/svg"><path d="M18 0c2.837 0 5.52.656 7.907 1.825C31.884 4.753 36 10.895 36 18c0 9.942-8.058 18-18 18-9.94 0-18-8.057-18-18C0 8.06 8.06 0 18 0z" fill="#F2F4F7"/><path d="M4 21.569h.39c.058-.002.115.002.173.01a.252.252 0 0 1 .177.122.231.231 0 0 1-.107.326.235.235 0 0 1 .185.236.29.29 0 0 1-.116.23.28.28 0 0 1-.132.047 3.297 3.297 0 0 1-.238.006H4v-.977zm.197.162v.226h.13c.076 0 .124-.001.143-.003a.13.13 0 0 0 .08-.035.102.102 0 0 0 .028-.077.107.107 0 0 0-.024-.074.113.113 0 0 0-.074-.034 2.333 2.333 0 0 0-.17-.004l-.113.001zm0 .389v.26h.183c.045.002.09 0 .135-.005a.123.123 0 0 0 .071-.04.12.12 0 0 0 .028-.081.128.128 0 0 0-.02-.075.121.121 0 0 0-.062-.044.678.678 0 0 0-.175-.014l-.16-.001zm.786-.551h.197v.529c-.001.055.001.11.008.164a.158.158 0 0 0 .06.096.21.21 0 0 0 .13.036c.056 0 .098-.011.127-.034a.135.135 0 0 0 .051-.084c.007-.055.01-.11.009-.166v-.541h.197v.513c.002.083-.003.166-.016.248a.275.275 0 0 1-.06.123.298.298 0 0 1-.114.08.499.499 0 0 1-.188.03.545.545 0 0 1-.212-.033.304.304 0 0 1-.114-.085.27.27 0 0 1-.055-.108 1.186 1.186 0 0 1-.02-.248v-.52zm.986 0h.36a.708.708 0 0 1 .186.018.328.328 0 0 1 .147.09c.043.046.075.1.094.159a.72.72 0 0 1 .032.23.642.642 0 0 1-.03.208.43.43 0 0 1-.105.173.345.345 0 0 1-.138.078.591.591 0 0 1-.175.02h-.371v-.976zm.197.165v.647h.147a.54.54 0 0 0 .12-.01.181.181 0 0 0 .08-.04.207.207 0 0 0 .05-.095.636.636 0 0 0 .021-.178.583.583 0 0 0-.02-.174.224.224 0 0 0-.056-.095.188.188 0 0 0-.091-.046.885.885 0 0 0-.162-.01l-.089.001zm.928.812-.233-.977h.202l.147.671.178-.67h.235l.171.681.15-.682h.2l-.239.977h-.209l-.194-.73-.194.73h-.214zm1.149 0v-.977h.725v.165H8.44v.217h.49v.164h-.49v.267h.546v.164h-.743zm.905 0v-.977h.197v.977h-.197zm.334-.319.192-.018a.233.233 0 0 0 .07.142.214.214 0 0 0 .144.045.223.223 0 0 0 .144-.041.12.12 0 0 0 .048-.094.089.089 0 0 0-.02-.06.163.163 0 0 0-.072-.041 2.46 2.46 0 0 0-.157-.043.536.536 0 0 1-.223-.097.254.254 0 0 1-.09-.196c0-.05.015-.098.042-.14a.265.265 0 0 1 .122-.099.488.488 0 0 1 .192-.034c.123 0 .216.027.277.081a.285.285 0 0 1 .098.215l-.197.009a.168.168 0 0 0-.055-.109c-.027-.021-.069-.032-.125-.032a.225.225 0 0 0-.134.035.07.07 0 0 0-.032.061.074.074 0 0 0 .03.06c.025.02.085.042.181.065a.95.95 0 0 1 .213.07.274.274 0 0 1 .108.1.307.307 0 0 1-.008.312.28.28 0 0 1-.132.11.554.554 0 0 1-.212.035.425.425 0 0 1-.285-.086.371.371 0 0 1-.119-.25zm.96.319v-.977h.725v.165h-.527v.217h.49v.164h-.49v.267h.545v.164h-.743zm.911 0v-.977h.415c.104 0 .18.009.228.026.047.018.087.05.113.094a.28.28 0 0 1 .043.154.261.261 0 0 1-.065.181.31.31 0 0 1-.193.09.46.46 0 0 1 .106.082c.042.05.08.103.112.159l.12.19h-.237l-.143-.212a1.368 1.368 0 0 0-.104-.144.153.153 0 0 0-.06-.04.326.326 0 0 0-.099-.012h-.04v.409h-.196zm.197-.564h.146a.755.755 0 0 0 .177-.012.106.106 0 0 0 .056-.041.127.127 0 0 0 .02-.073.117.117 0 0 0-.026-.08.12.12 0 0 0-.074-.038 1.671 1.671 0 0 0-.144-.003h-.154v.247zm1.547-.413h.39a.993.993 0 0 1 .172.01.251.251 0 0 1 .178.122.23.23 0 0 1-.107.326.257.257 0 0 1 .137.089.236.236 0 0 1 .048.147.29.29 0 0 1-.116.23.28.28 0 0 1-.132.047 3.3 3.3 0 0 1-.238.006h-.332v-.977zm.197.162v.226h.129c.077 0 .125-.001.144-.003a.13.13 0 0 0 .08-.035.102.102 0 0 0 .028-.077.107.107 0 0 0-.025-.073.113.113 0 0 0-.074-.035 2.359 2.359 0 0 0-.169-.003h-.113zm0 .389v.26h.182c.045.002.09 0 .135-.005a.123.123 0 0 0 .072-.04.12.12 0 0 0 .027-.081.128.128 0 0 0-.02-.075.12.12 0 0 0-.062-.044.678.678 0 0 0-.175-.014l-.16-.001zm.788.426v-.977h.415c.104 0 .18.009.228.026.047.018.087.05.113.094a.28.28 0 0 1 .043.154.261.261 0 0 1-.065.181.31.31 0 0 1-.193.09.46.46 0 0 1 .106.082c.042.05.08.103.112.159l.119.19h-.236l-.143-.212a1.37 1.37 0 0 0-.104-.144.152.152 0 0 0-.06-.04.327.327 0 0 0-.099-.012h-.04v.409h-.196zm.197-.564h.146a.756.756 0 0 0 .177-.012.106.106 0 0 0 .055-.041.127.127 0 0 0 .02-.073.117.117 0 0 0-.025-.08.12.12 0 0 0-.075-.038 1.668 1.668 0 0 0-.143-.003h-.154l-.001.247zm.788.564v-.977h.724v.165h-.527v.217h.49v.164h-.49v.267h.545v.164h-.742zm1.048 0-.233-.977h.202l.147.671.179-.67h.234l.171.681.15-.682h.199l-.237.977h-.21l-.195-.73-.194.73h-.213zm1.143 0v-.977h.197v.977h-.197zm.387 0v-.977h.192l.4.652v-.652h.183v.977h-.198l-.394-.637v.637h-.183zm1.438-.36v-.164h.425v.39a.655.655 0 0 1-.418.151.536.536 0 0 1-.266-.064.41.41 0 0 1-.171-.185.594.594 0 0 1-.057-.26.562.562 0 0 1 .064-.27.431.431 0 0 1 .187-.183.506.506 0 0 1 .234-.049c.12 0 .216.026.284.077a.345.345 0 0 1 .131.21l-.195.037a.207.207 0 0 0-.078-.113.234.234 0 0 0-.142-.041.269.269 0 0 0-.205.082c-.051.055-.077.136-.077.243 0 .116.026.203.078.26a.256.256 0 0 0 .202.088.34.34 0 0 0 .124-.024.425.425 0 0 0 .107-.06v-.123l-.227-.002zm1.99 0 .191.062a.428.428 0 0 1-.146.237.412.412 0 0 1-.258.077.42.42 0 0 1-.32-.133.508.508 0 0 1-.125-.363c0-.163.041-.29.126-.38a.431.431 0 0 1 .33-.134c.12 0 .217.035.292.106.049.05.083.112.1.18l-.196.046a.202.202 0 0 0-.205-.164.223.223 0 0 0-.176.078c-.045.052-.068.136-.068.252 0 .123.023.211.067.264a.216.216 0 0 0 .173.079c.05 0 .098-.017.136-.05a.292.292 0 0 0 .08-.157zm.32-.123a.62.62 0 0 1 .045-.25.46.46 0 0 1 .09-.135.381.381 0 0 1 .127-.088.535.535 0 0 1 .21-.038c.144 0 .26.044.346.134.086.09.13.213.13.372a.51.51 0 0 1-.13.37.46.46 0 0 1-.343.133.46.46 0 0 1-.346-.133.503.503 0 0 1-.129-.365zm.203-.007c0 .11.026.195.077.252a.264.264 0 0 0 .388 0c.05-.057.076-.142.076-.255 0-.113-.025-.197-.074-.25a.273.273 0 0 0-.392 0c-.05.056-.074.14-.074.253zm.896.49v-.977h.296l.177.666.175-.666h.296v.977h-.183v-.77l-.194.77h-.19l-.192-.77v.77h-.185zm1.14 0v-.977h.316c.12 0 .198.005.235.014a.256.256 0 0 1 .14.096.3.3 0 0 1 .057.19.318.318 0 0 1-.034.151.269.269 0 0 1-.184.143c-.068.01-.136.016-.205.014h-.129v.37l-.196-.001zm.197-.812v.277h.107a.51.51 0 0 0 .156-.015.13.13 0 0 0 .084-.124.126.126 0 0 0-.031-.088.137.137 0 0 0-.08-.043.948.948 0 0 0-.141-.007h-.095zm1.492.812h-.214l-.086-.222h-.39l-.08.222h-.21l.381-.977h.209l.39.977zm-.363-.387-.134-.362-.132.362h.266zm.47.387v-.977h.191l.4.652v-.652h.183v.977h-.198l-.393-.637v.637h-.183zm1.239-.001v-.41l-.357-.566h.231l.23.387.226-.387h.227l-.36.567v.41h-.197zm2.218.001h-.215l-.085-.222h-.39l-.08.222h-.21l.38-.977h.208l.392.977zm-.363-.387-.135-.362-.132.362h.267zm.468.387v-.977h.316c.12 0 .198.005.234.014a.256.256 0 0 1 .14.096.3.3 0 0 1 .057.19.32.32 0 0 1-.032.151.27.27 0 0 1-.185.143c-.068.01-.136.015-.205.014h-.128v.369h-.198zm.196-.812v.277h.108a.51.51 0 0 0 .156-.015.13.13 0 0 0 .084-.124.126.126 0 0 0-.031-.088.136.136 0 0 0-.08-.043.95.95 0 0 0-.142-.007h-.095zm1.493.812h-.215l-.085-.222h-.39l-.08.222h-.21l.381-.977h.209l.39.977zm-.364-.387-.135-.362-.132.362h.267zm1.093.027.191.062a.427.427 0 0 1-.146.237.417.417 0 0 1-.26.078.421.421 0 0 1-.319-.133.508.508 0 0 1-.125-.363c0-.163.042-.29.126-.38a.431.431 0 0 1 .33-.134c.12 0 .217.035.292.106.049.05.083.111.1.18l-.196.046a.202.202 0 0 0-.205-.164.223.223 0 0 0-.176.078c-.045.052-.067.136-.067.252 0 .123.022.211.066.264a.218.218 0 0 0 .174.079c.05 0 .098-.017.135-.05a.293.293 0 0 0 .08-.158zM7.116 23.643c-.016.055-.03.114-.044.162h.4v.784h-.12v-.077h-.576v.077H6.66v-.783h.294a1.79 1.79 0 0 0 .028-.163h-.451v-.111h1.057v.11l-.473.001zm.236.269h-.576v.194h.576v-.194zm0 .496v-.2h-.576v.2h.576zm2.483-.548a1.375 1.375 0 0 1-.175.476c.028.092.061.146.1.146.026 0 .04-.063.043-.212a.305.305 0 0 0 .09.061c-.018.204-.052.26-.144.26-.07 0-.126-.056-.166-.15a.876.876 0 0 1-.174.154.626.626 0 0 0-.08-.082.728.728 0 0 0 .214-.19 2.902 2.902 0 0 1-.072-.578h-.509v.244c0 .176-.017.432-.122.598a.387.387 0 0 0-.085-.068c.093-.153.103-.37.103-.53v-.348h.61a7.67 7.67 0 0 1-.003-.17h.11v.17h.197a.941.941 0 0 0-.157-.11l.063-.064c.06.03.116.066.167.11l-.06.064h.086v.104h-.292c.005.148.02.296.045.442a1.35 1.35 0 0 0 .106-.341l.105.014zm-.455.598a1.27 1.27 0 0 0-.114-.072.658.658 0 0 1-.24.143.43.43 0 0 0-.055-.08.555.555 0 0 0 .208-.111 2.053 2.053 0 0 0-.172-.077c.028-.046.053-.093.075-.141h-.085v-.087h.124c.016-.039.031-.08.044-.117H9.01v-.089h.426v.089h-.171a1.753 1.753 0 0 1-.043.117h.15l.016-.002.061.02a.688.688 0 0 1-.12.265c.039.02.076.043.113.068l-.062.073zm-.195-.338c-.015.035-.033.07-.048.101l.108.05a.461.461 0 0 0 .087-.151h-.147zm2.961.294v.108H11.04v-.108h.34v-.762h-.304v-.112h1.042v.112h-.322v.762h.351zm-.964-.61c.062.134.117.27.164.409l-.11.046a3.391 3.391 0 0 0-.153-.42l.1-.035zm.32.61h.17v-.762h-.17v.762zm.314-.201a2.38 2.38 0 0 0 .167-.409l.11.036c-.049.14-.108.277-.176.41l-.101-.037zm2.144-.315c.082.267.235.485.47.587a.503.503 0 0 0-.084.105c-.232-.115-.382-.327-.474-.603a.953.953 0 0 1-.139.315l.034-.023c.083.068.16.144.228.226l-.101.075a1.552 1.552 0 0 0-.204-.222.846.846 0 0 1-.31.23.362.362 0 0 0-.084-.095.757.757 0 0 0 .472-.595h-.44v-.116h.458c.01-.112.01-.219.01-.313h.123c0 .095-.002.203-.013.313h.494v.116h-.44zm1.98.204a4.8 4.8 0 0 1-.126.046v.301c0 .056-.011.087-.043.104a.36.36 0 0 1-.158.022.403.403 0 0 0-.03-.105l.106.001c.014 0 .02-.005.02-.022v-.263l-.126.045-.023-.11c.041-.013.094-.029.15-.048V23.8h-.137v-.105h.137v-.227h.104v.227h.116v.105h-.116v.237l.109-.037.018.1zm.75.346v.1h-.769v-.1h.33v-.277h-.234v-.098h.587v.098h-.24v.277h.326zm-.624-.622h-.103v-.214h.307a1.423 1.423 0 0 0-.049-.12l.109-.025c.02.046.048.103.061.145h.285v.205h-.108v-.109h-.502v.118zm.22-.017c-.07.098-.156.182-.254.251a.793.793 0 0 0-.067-.087.819.819 0 0 0 .224-.2l.097.036zm.133-.037c.075.06.18.15.233.202l-.072.075a3.575 3.575 0 0 0-.23-.215l.069-.062zm2.474.252a.761.761 0 0 1-.205.354.792.792 0 0 0 .274.114.44.44 0 0 0-.067.099.832.832 0 0 1-.291-.141.992.992 0 0 1-.288.136.355.355 0 0 0-.053-.096.083.083 0 0 1-.04.068c-.031.019-.077.02-.153.02a.433.433 0 0 0-.03-.105l.103.001c.014 0 .02-.006.02-.022v-.268h-.159a1.33 1.33 0 0 1-.08.406.342.342 0 0 0-.093-.052c.074-.17.08-.41.08-.59v-.435h.355v.942l-.001.033a.87.87 0 0 0 .258-.11.844.844 0 0 1-.17-.258l.038-.015h-.082V24h.502l.02-.004.062.03zm-.732.055v-.183h-.152v.052c0 .04 0 .085-.003.131h.155zm-.152-.462v.175h.152v-.175h-.152zm.503.033c0 .112-.03.244-.177.328a.367.367 0 0 0-.072-.084.255.255 0 0 0 .148-.247v-.131h.39v.271c0 .035 0 .048.017.048h.061a.217.217 0 0 0 .054-.007c.001.029.005.07.009.095a.197.197 0 0 1-.062.007h-.071c-.092 0-.111-.04-.111-.143v-.166h-.185v.029zm-.064.455c.037.079.09.15.156.21a.598.598 0 0 0 .15-.21h-.306zm2.096-.377c-.02.04-.04.082-.063.121h.574v.608c0 .061-.012.095-.056.112a.67.67 0 0 1-.212.018.424.424 0 0 0-.035-.11 2.1 2.1 0 0 0 .166.003c.02-.001.027-.006.027-.025v-.104h-.477v.237h-.113v-.558a.96.96 0 0 1-.182.168.624.624 0 0 0-.075-.088.992.992 0 0 0 .32-.382h-.286v-.106h.333c.02-.05.038-.101.052-.153l.116.027c-.014.041-.027.084-.043.126h.606v.106h-.652zm.4.22h-.476v.106h.476v-.106zm0 .308v-.106h-.476v.106h.476zm1.864-.699c-.034.1-.075.22-.113.313.08.1.098.185.098.26 0 .07-.014.122-.05.148a.137.137 0 0 1-.066.025.965.965 0 0 1-.079.002.216.216 0 0 0-.026-.098.557.557 0 0 0 .063 0 .066.066 0 0 0 .035-.009c.017-.013.023-.044.023-.08a.36.36 0 0 0-.097-.234 3 3 0 0 0 .082-.264h-.15v.964h-.099V23.52h.288l.015-.005.076.043zm.66.612a1.766 1.766 0 0 1-.192.133c.054.08.13.143.218.181a.409.409 0 0 0-.075.096c-.186-.094-.293-.279-.352-.518h-.1v.375l.196-.045c0 .034.002.068.006.102-.244.065-.285.08-.31.096a.372.372 0 0 0-.05-.091.105.105 0 0 0 .05-.094v-.882h.538v.54h-.232c.016.055.037.11.062.161.058-.04.113-.084.165-.133l.077.079zm-.5-.549v.123h.32v-.123h-.32zm0 .343h.32v-.127h-.32v.127zm2.124-.428c-.08.197-.208.384-.339.502a.791.791 0 0 0-.105-.082c.133-.105.253-.277.321-.453l.123.033zm.337.575c.104.13.199.268.282.412l-.112.062a1.355 1.355 0 0 0-.08-.138c-.612.046-.685.05-.737.07a.971.971 0 0 0-.046-.12c.036-.009.067-.043.113-.097a2.43 2.43 0 0 0 .29-.466l.123.053c-.09.173-.2.336-.325.487l.513-.03a3.49 3.49 0 0 0-.13-.184l.108-.049zm-.021-.618c.088.17.206.322.35.447a.593.593 0 0 0-.094.098 2.142 2.142 0 0 1-.368-.5l.112-.045zm2.532.94c0 .072-.015.11-.06.128a.68.68 0 0 1-.23.022.532.532 0 0 0-.04-.123c.079.004.16.004.183.003.023-.002.03-.008.03-.031v-.778h-.86v-.108h.977v.887zm-.248-.569h-.72v-.1h.72v.1zm-.54.508v.09h-.11v-.484h.575v.395h-.465zm0-.297v.199h.353v-.2h-.353zm-18.908-.425h-.09v.838h.09v-.838zm2.277 0h-.09v.838h.09v-.838zm2.276 0h-.09v.838h.09v-.838zm2.277 0h-.091v.838h.09v-.838zm2.276 0h-.09v.838h.09v-.838zm2.276 0h-.09v.838h.09v-.838zm2.277 0h-.091v.838h.09v-.838zm2.277 0h-.091v.838h.09v-.838zm2.275 0h-.09v.838h.09v-.838z" fill="#5C292D"/><path d="M8.352 16.525a191.06 191.06 0 0 1 1.85-2.737c.113.052.224.107.335.165-.263.357-.642.956-1.024 1.513-.426.625-.736 1.065-.98 1.276-.095.082-.162.123-.224.123-.052 0-.073-.032-.073-.069 0-.044.022-.111.116-.27zm6.812.004c.104 0 .274-.074.519-.348.261-.288.493-.6.693-.934a.212.212 0 0 0 .027-.1c0-.103-.07-.163-.185-.163-.205 0-.408.14-.686.49-.24.301-.485.75-.485.946 0 .051.013.11.117.11zm11.33-1.488c0-.054-.023-.09-.081-.09-.213 0-.51.324-.816.883.41-.07.898-.492.898-.793zm-4.71 0c0-.053-.03-.089-.088-.089-.246 0-.57.438-.814.884.41-.068.9-.47.9-.797l.002.002zm-11.452.39v.14c-.668.011-1.083.46-1.083.926 0 .25.135.424.496.424.838 0 1.413-.898 1.413-1.487 0-.266-.096-.505-.518-.505h-.2a.835.835 0 0 0-.156.012l.125-.185c.361-.003.647-.01.852-.105.456-.216.694-.725.694-.991 0-.182-.071-.328-.305-.328-.353 0-.669.34-.872.6.135.08.264.17.388.267l-.084.108a3.306 3.306 0 0 0-.39-.263c-.221.296-.726 1.076-1.074 1.587a1.36 1.36 0 0 1 .714-.202v.001zm-.39-2.123.624-.027c-.058.08-.162.222-.281.39.113.054.227.111.338.17.384-.488.743-.71 1.21-.71.504 0 .693.287.693.582 0 .267-.156.573-.34.757-.249.25-.59.365-.868.426.153.084.433.206.433.65 0 .373-.202.714-.44.98.457-.264 1.122-.894 1.413-1.251a8.59 8.59 0 0 0 .25-.339l.544-.034s-.693 1.047-.842 1.305c-.084.146-.107.21-.107.26 0 .033.021.068.083.068.21 0 .607-.356.89-.722.128-.168.594-.876.594-.876l.552-.034c-.447.687-.594.918-.594.918-.143.233-.266.44-.297.55a.31.31 0 0 0-.014.085c0 .053.027.08.08.08.32 0 .896-.76 1.079-.99.336-.424.744-.719 1.184-.719.2 0 .33.077.391.207.175-.287.503-.828.723-1.193l-6.846-2.627-.263-.1-.154.235-1.212 1.869a4.19 4.19 0 0 1 1.054.253 5.1 5.1 0 0 1 .124-.164v.001zm-3.044 1.019c.105.304.45.498 1.031.498.49 0 .874-.146 1.151-.317a47.41 47.41 0 0 0-1.216 1.816c-.102.17-.175.307-.175.436 0 .216.215.338.462.338.297 0 .537-.213.84-.597l.107-.142a.87.87 0 0 0-.016.145c0 .322.196.595.812.595.839 0 1.616-.44 2.377-1.165l.16-.153c-.242.332-.34.563-.34.704 0 .176.123.282.322.282.304 0 .633-.239.895-.508l.119-.124c-.079.152-.119.271-.119.37 0 .143.088.264.3.264.375 0 .732-.336 1.03-.656a.947.947 0 0 0-.084.331c0 .201.134.32.35.32.281 0 .563-.152.887-.517.041-.046.106-.119.163-.188-.058.117-.126.266-.126.416 0 .18.109.288.32.288.456 0 .866-.49 1.113-.76-.12.198-.195.339-.195.476 0 .2.144.284.32.284.403 0 .772-.359 1.054-.713-.07.136-.142.273-.142.418 0 .19.13.293.35.293.195 0 .445-.076.724-.325.235-.213.44-.457.61-.724a.54.54 0 0 0 .321.236.986.986 0 0 0-.093.384c0 .258.162.43.51.43.588 0 1.076-.506 1.38-.83-.15.256-.2.41-.2.535 0 .187.12.297.34.297.384 0 .79-.394 1.143-.735.123-.12.408-.408.813-.84-.028.13-.07.338-.088.441-.14.777-.352 1.018-.613 1.018-.23 0-.173-.25-.344-.25a.12.12 0 0 0-.118.127c0 .133.157.25.431.25.522 0 .893-.323 1.187-.586.146-.132.293-.267.455-.41-.1.174-.185.366-.185.576 0 .232.153.41.484.41.636 0 1.126-.589 1.391-.93.362-.465.642-.815.807-.815a.053.053 0 0 1 .044.015.053.053 0 0 1 .016.043c0 .072-.051.159-.147.327-.308.538-.753 1.198-.823 1.316l.523-.02c.244-.396.908-1.264 1.239-1.547a.682.682 0 0 0-.134.368c0 .195.126.315.377.315a.693.693 0 0 0 .333-.082l-.042-.101a.376.376 0 0 1-.187.053c-.117 0-.151-.08-.151-.169 0-.207.191-.466.39-.528 0-.096-.091-.165-.235-.165-.198 0-.468.156-1.028.872.167-.306.252-.452.252-.627 0-.137-.092-.238-.285-.238-.36 0-.588.321-1.062.923-.298.378-.69.78-1.073.78-.135 0-.202-.07-.202-.186 0-.143.069-.315.12-.409.494-.053 1.2-.453 1.2-.884 0-.183-.123-.257-.332-.257-.252 0-.568.12-.9.431-.322.302-.863.811-1.133 1.028.128-.192.163-.378.163-.598 0-.216-.023-.38-.023-.59a.7.7 0 0 1 .006-.092c.106-.02.197-.096.197-.21 0-.086-.055-.152-.162-.152-.131 0-.245.098-.3.317-.16.177-.418.447-.65.684-.556.567-.936.908-1.143.908-.055 0-.088-.026-.088-.087 0-.114.162-.4.304-.625 0 0 .143-.232.582-.928l-.52.03c-.04.065-.182.261-.21.297-.366.48-1.04 1.322-1.595 1.322-.17 0-.226-.087-.226-.205 0-.128.06-.27.115-.386.693-.096 1.203-.558 1.203-.887 0-.173-.105-.256-.329-.256-.626 0-1.126.622-1.329 1.013a.437.437 0 0 1-.3-.246c.193-.323.302-.598.302-.696 0-.052-.061-.091-.142-.091a.238.238 0 0 0-.207.109c-.08.117-.134.337-.127.584-.125.364-.656 1.05-1.034 1.05-.072 0-.099-.034-.099-.09 0-.115.134-.375.38-.776.032-.051.327-.537.472-.771l-.518.028c-.123.189-.225.353-.356.537-.547.773-.92 1.073-1.118 1.073-.058 0-.087-.027-.087-.077s.028-.114.08-.213c.169-.314.572-.909.865-1.347l-.525.026c-.061.09-.233.33-.3.415-.733.923-1.086 1.19-1.266 1.19-.064 0-.086-.038-.086-.092 0-.15.164-.434.49-.985l1.263-2.071.136.166-.09.148L32 11l-3.01 4.654.136.087.074.162a.875.875 0 0 1-.432.13h-.024L26.3 19.812l-10.686-2.12L4.74 19.417l2.865-4.413c-.361-.073-.668-.271-.707-.678zm16.899-.27c0-.146-.099-.221-.214-.221-.2 0-.324.187-.324.345 0 .125.075.213.222.213.178 0 .316-.167.316-.337zM7.24 14.46a.62.62 0 0 1 .085-.53c.176-.246.562-.395 1.093-.395.046 0 .092.002.137.004l-.738 1.138c.043.003.089.005.136.005.805-.003 1.268-.425 1.438-.618 0 0 .336-.464.34-.472a3.806 3.806 0 0 0-1.353-.25c-.79 0-1.272.32-1.273.775a.473.473 0 0 0 .135.344z" fill="#D10D23"/><path d="M23.26 14.181c0-.158.122-.345.323-.345.115 0 .214.075.214.221 0 .17-.138.337-.316.337-.147 0-.222-.088-.222-.213zm2.338 1.65c.41-.066.898-.488.898-.791 0-.054-.024-.09-.082-.09-.215 0-.512.324-.817.882zm-4.715.003c.41-.066.902-.467.902-.795 0-.053-.03-.088-.087-.088-.249 0-.573.438-.816.883zm-4.507-.587a.213.213 0 0 0 .027-.1c0-.103-.07-.163-.185-.163-.205 0-.407.14-.686.49-.24.301-.485.75-.485.946 0 .051.014.109.118.109s.274-.075.52-.349c.26-.287.492-.6.691-.933zm-1.737.865c-.3.32-.657.656-1.03.656-.213 0-.3-.12-.3-.264 0-.099.04-.218.118-.37l-.119.124c-.262.27-.59.509-.895.509-.198 0-.322-.106-.322-.283 0-.141.098-.371.34-.703l-.16.153c-.761.724-1.539 1.165-2.378 1.165-.615 0-.81-.273-.81-.595a.87.87 0 0 1 .014-.146l-.106.142c-.303.384-.543.597-.84.597-.246 0-.462-.122-.462-.338 0-.13.073-.267.175-.436.21-.344.783-1.196 1.216-1.816-.277.172-.66.318-1.151.318-.71 0-1.067-.289-1.067-.713 0-.551.567-.916 1.487-.916.502 0 1 .093 1.47.274l.122-.164.624-.026c-.058.079-.161.221-.281.39.113.053.227.11.338.17.384-.489.743-.711 1.21-.711.504 0 .693.287.693.582 0 .267-.156.573-.34.757-.249.25-.59.365-.867.426.152.084.432.206.432.65 0 .373-.202.714-.44.98.457-.264 1.122-.894 1.413-1.251.067-.083.189-.251.251-.339l.544-.034s-.693 1.05-.842 1.307c-.084.146-.107.21-.107.26 0 .033.021.068.082.068.211 0 .608-.356.89-.722.13-.168.595-.876.595-.876l.552-.034c-.447.687-.594.918-.594.918-.143.233-.266.44-.298.55a.31.31 0 0 0-.012.085c0 .053.026.08.079.08.32 0 .896-.76 1.079-.99.336-.424.744-.719 1.184-.719.2 0 .33.077.391.207.278-.456.948-1.563.948-1.563l.581-.082a456.01 456.01 0 0 0-1.263 2.071c-.326.55-.49.833-.49.985 0 .054.022.092.086.092.18 0 .533-.267 1.267-1.192.067-.084.24-.325.3-.415l.525-.026c-.293.438-.696 1.034-.864 1.348-.053.098-.08.163-.08.212 0 .05.028.077.085.077.2 0 .572-.3 1.119-1.072.13-.185.233-.35.356-.538l.518-.028c-.146.234-.44.72-.471.772-.247.4-.381.66-.381.775 0 .056.027.09.1.09.377 0 .907-.685 1.033-1.05-.007-.245.047-.467.127-.584a.239.239 0 0 1 .206-.11c.083 0 .143.04.143.092 0 .098-.11.374-.302.696a.44.44 0 0 0 .3.247c.203-.392.703-1.014 1.33-1.014.223 0 .327.083.327.256 0 .329-.509.791-1.202.887-.055.117-.115.258-.115.386 0 .119.055.205.226.205.554 0 1.229-.84 1.594-1.321.029-.037.17-.232.21-.298l.521-.03c-.44.696-.582.928-.582.928-.142.226-.305.51-.305.625 0 .061.034.088.088.088.208 0 .588-.342 1.144-.908.231-.238.49-.507.65-.684.055-.22.169-.317.3-.317.107 0 .161.065.161.15 0 .115-.09.191-.196.212a.726.726 0 0 0-.006.09c0 .21.023.376.023.591 0 .22-.035.406-.163.598.27-.217.81-.726 1.134-1.028.331-.31.646-.43.899-.43.21 0 .332.074.332.256 0 .43-.706.832-1.2.884a.968.968 0 0 0-.12.41c0 .115.067.184.201.184.383 0 .776-.4 1.074-.78.474-.6.703-.922 1.062-.922.192 0 .285.101.285.239 0 .175-.085.32-.252.626.56-.716.83-.871 1.028-.871.144 0 .234.069.236.164-.2.061-.392.322-.392.528 0 .09.035.17.152.17a.377.377 0 0 0 .187-.054l.042.101a.694.694 0 0 1-.333.082c-.251 0-.377-.12-.377-.315 0-.11.05-.248.134-.367-.331.283-.995 1.15-1.24 1.546l-.522.02c.07-.118.515-.779.822-1.316.096-.168.148-.254.148-.327a.053.053 0 0 0-.016-.043.053.053 0 0 0-.044-.015c-.166 0-.445.349-.807.815-.265.341-.754.93-1.391.93-.332 0-.484-.176-.484-.41 0-.21.084-.402.185-.576-.162.143-.31.278-.455.41-.294.264-.665.586-1.187.586-.274 0-.43-.117-.43-.25a.122.122 0 0 1 .07-.116.121.121 0 0 1 .047-.01c.171 0 .114.25.344.25.26 0 .473-.242.613-1.019.018-.102.06-.31.088-.44-.406.432-.69.718-.813.839-.355.344-.761.738-1.145.738-.22 0-.34-.11-.34-.297 0-.125.05-.279.2-.534-.304.323-.793.829-1.382.829-.348 0-.509-.172-.509-.43 0-.117.036-.256.093-.384a.543.543 0 0 1-.321-.236c-.17.267-.375.51-.61.723-.278.249-.528.325-.724.325-.219 0-.35-.103-.35-.293 0-.144.073-.282.142-.417-.281.354-.65.714-1.052.714-.177 0-.321-.085-.321-.284 0-.138.075-.279.195-.477-.246.271-.657.76-1.113.76-.211 0-.32-.109-.32-.288 0-.15.068-.299.126-.416-.057.07-.122.142-.163.188-.324.365-.606.517-.887.517-.217 0-.35-.12-.35-.32 0-.1.04-.229.084-.332zm-5.246-2.048.34-.472a3.806 3.806 0 0 0-1.354-.252c-.79 0-1.271.321-1.273.776-.001.35.305.567.847.565.805-.003 1.27-.425 1.44-.617zm.12 1.403c.382-.557.76-1.156 1.024-1.513a6.16 6.16 0 0 0-.335-.164c-.125.175-1.74 2.548-1.85 2.736-.094.16-.115.227-.115.272 0 .037.02.068.072.068.062 0 .13-.04.225-.123.243-.212.553-.651.98-1.275zm.771-.528.125-.184c.361-.002.647-.008.852-.104.456-.216.694-.725.694-.99 0-.183-.071-.329-.305-.329-.353 0-.669.34-.872.6.135.08.264.17.388.267l-.084.108a3.327 3.327 0 0 0-.39-.263c-.221.296-.726 1.076-1.074 1.587.23-.152.524-.201.715-.201v.14c-.668.012-1.083.461-1.083.926 0 .25.135.424.496.424.838 0 1.413-.898 1.413-1.487 0-.266-.096-.504-.519-.504h-.2a.837.837 0 0 0-.156.01z" fill="#fff"/></svg>