<svg width="36" height="36" fill="none" xmlns="http://www.w3.org/2000/svg"><path d="M18 0c2.837 0 5.52.656 7.907 1.825C31.884 4.753 36 10.895 36 18c0 9.942-8.058 18-18 18-9.94 0-18-8.057-18-18C0 8.06 8.06 0 18 0z" fill="#F2F4F7"/><path d="M10.14 16.75h.23c.366 0 .445.211.445.481s-.079.482-.445.482h-.23v-.963zm-.233 1.155h.553c.41 0 .588-.302.588-.674 0-.372-.177-.673-.588-.673h-.553m1.713.232h.006l.2.58h-.408l.202-.58zm-.632 1.115h.241l.126-.357h.532l.125.357h.25l-.513-1.347H11.5m.89 1.347h.233v-1.347h-.233v1.347zm.373-1.347h1.08v.203h-.424v1.144h-.234v-1.144h-.422m1.691-.043c.286 0 .406.255.406.513 0 .259-.12.513-.406.513-.286 0-.405-.254-.405-.513 0-.258.12-.513.405-.513zm0-.193c-.4 0-.639.321-.639.706 0 .385.24.706.64.706.399 0 .638-.32.638-.706 0-.385-.24-.706-.639-.706zm1.238.033h1.08v.203h-.424v1.144h-.233v-1.144h-.423m1.45-.011h.38c.12 0 .231.034.231.206 0 .142-.08.215-.228.215h-.383v-.42zm-.233 1.155h.233v-.555h.344c.215 0 .265.11.265.357 0 .066 0 .14.036.198h.25c-.05-.055-.073-.198-.073-.355 0-.213-.117-.273-.198-.285v-.004c.043-.015.22-.08.22-.34 0-.228-.149-.363-.44-.363h-.637m1.188 0h.233v.785c0 .18.012.39.314.39.303 0 .314-.21.314-.39v-.785h.234v.862c0 .345-.219.517-.548.517-.328 0-.547-.172-.547-.517m1.443.036c0 .207.15.288.337.288.206 0 .283-.101.283-.203 0-.104-.057-.146-.11-.166-.094-.036-.216-.06-.399-.112-.228-.062-.295-.202-.295-.341 0-.27.247-.397.488-.397.278 0 .511.15.511.43h-.233c-.011-.173-.127-.237-.288-.237-.108 0-.244.04-.244.175 0 .095.063.148.158.174.021.006.316.083.385.104.176.053.26.204.26.343 0 .302-.265.423-.53.423-.305 0-.552-.147-.557-.481m1.089-.898h1.08v.203h-.424v1.144h-.234v-1.144h-.422m-9.603 2.009c-.039-.154-.138-.267-.332-.267-.286 0-.406.254-.406.513s.12.513.406.513c.207 0 .321-.156.34-.353h.228c-.019.323-.245.546-.568.546-.4 0-.64-.32-.64-.706 0-.385.24-.706.64-.706.3.002.538.17.566.46m.745-.267c.286 0 .406.254.406.513s-.12.513-.406.513c-.286 0-.405-.254-.405-.513s.12-.513.405-.513zm0-.193c-.4 0-.639.321-.639.706 0 .385.24.706.64.706.399 0 .638-.32.638-.706 0-.385-.239-.706-.639-.706zm.769.032h.246l.609.993h.004v-.993h.222v1.348h-.247l-.607-.991h-.005v.99h-.223m1.456-.449c0 .208.151.29.338.29.206 0 .282-.103.282-.204 0-.104-.056-.146-.11-.167-.093-.035-.215-.06-.398-.111-.228-.062-.295-.202-.295-.342 0-.27.246-.396.487-.396.279 0 .512.15.512.43h-.233c-.012-.173-.127-.237-.288-.237-.108 0-.245.04-.245.175 0 .094.064.147.159.174.02.005.316.083.385.104.175.052.26.203.26.343 0 .302-.266.423-.531.423-.305 0-.551-.147-.557-.482m1.127-.898h1.08v.204h-.424v1.144h-.234v-1.144h-.422m1.45-.011h.38c.12 0 .23.034.23.206 0 .141-.08.215-.227.215h-.383v-.421zm-.234 1.155h.234v-.555h.343c.215 0 .266.11.266.357 0 .066 0 .14.035.198h.25c-.05-.055-.072-.198-.072-.355 0-.213-.118-.274-.198-.285v-.004c.043-.015.22-.081.22-.34 0-.228-.15-.364-.44-.364h-.638m1.226 0h.233v.785c0 .181.012.39.314.39.303 0 .314-.209.314-.39v-.785h.233v.863c0 .345-.218.517-.547.517-.329 0-.547-.172-.547-.517m2.19-.435c-.04-.154-.139-.267-.333-.267-.286 0-.405.254-.405.513s.12.513.405.513c.207 0 .321-.156.34-.353h.228c-.019.323-.245.546-.568.546-.4 0-.639-.32-.639-.706 0-.385.239-.706.639-.706.3.002.538.17.566.46m.05-.428h1.08v.204h-.424v1.144h-.233v-1.144h-.423m1.217 1.144h.233v-1.348h-.233v1.348zm1.012-1.187c.286 0 .406.254.406.513s-.12.513-.405.513c-.286 0-.406-.254-.406-.513s.12-.513.405-.513zm0-.193c-.4 0-.639.321-.639.706 0 .385.24.706.64.706s.639-.32.639-.706c0-.385-.24-.706-.64-.706zm.768.032h.247l.61.993h.003v-.993h.222v1.348h-.246l-.608-.991h-.005v.99H22.8m2.835-.919c-.04-.154-.139-.267-.333-.267-.286 0-.405.254-.405.513s.12.513.405.513c.208 0 .322-.156.34-.353h.228c-.018.323-.245.546-.568.546-.4 0-.639-.32-.639-.706 0-.385.24-.706.64-.706.3.002.537.17.565.46m.745-.267c.287 0 .406.254.406.513s-.12.513-.405.513c-.286 0-.406-.254-.406-.513s.12-.513.405-.513zm0-.193c-.4 0-.638.321-.638.706 0 .385.239.706.638.706.4 0 .64-.32.64-.706 0-.385-.24-.706-.64-.706zm.715 1.38h.26v-.255h-.26v.255zm.37-.255h.26v.255a.3.3 0 0 1-.252.298v-.115c.082-.02.123-.102.12-.183h-.128m.805-1.348h.234v1.144h.678v.204h-.912m.777-1.348h1.08v.204h-.424v1.144h-.233v-1.144h-.423m1.469-.011h.23c.366 0 .445.211.445.481s-.08.481-.445.481h-.23v-.962zm-.233 1.155h.552c.411 0 .589-.302.589-.674 0-.372-.178-.674-.589-.674h-.553m1.225 1.348H32v-.255h-.26v.255z" fill="#231F20"/><path d="M5.76 15.43v.9c-.247.326-.52.735-.52 1.154 0 .413.244.732.676.732.836 0 2.05-1.162 2.05-2.115 0-.283-.146-.425-.325-.425-.633 0-1.292 1.04-1.422 1.664a.37.37 0 0 1-.373.287c-.201 0-.403-.178-.342-.469C5.706 16.198 6.656 15 7.775 15c.635 0 .958.405.958 1.045 0 1.414-1.48 2.93-2.834 2.93-1.019 0-1.37-.716-1.37-1.387 0-.968.698-1.76 1.23-2.159z" fill="#DA1F3D"/><path d="M4 19.69h1.751v-.408H4v.408zm2.08 0h1.197v-.408H6.081v.408z" fill="#58595B"/><path d="M8.528 19.896v.274h.14v-.039H8.56v-.235m-.326 0v.274h.034v-.12h.093v-.04h-.093v-.075h.106v-.038m-.664-.001v.274h.15v-.039h-.117v-.086h.103v-.037h-.103v-.073h.113v-.038m-.178.193c0 .08-.061.088-.08.088-.067 0-.082-.05-.085-.083h.032c.002.018.011.046.05.046.024 0 .052-.008.052-.043 0-.025-.019-.033-.044-.042l-.023-.007c-.031-.01-.064-.019-.064-.079 0-.028.013-.08.077-.08.058 0 .075.045.078.079h-.032c-.002-.015-.011-.042-.05-.042-.019 0-.042.01-.042.04 0 .026.016.032.027.035l.051.018c.027.008.053.023.053.07m-.193-.013c0 .07-.032.1-.082.1a.076.076 0 0 1-.064-.03.141.141 0 0 1-.015-.067v-.183h.034v.179c0 .045.02.063.044.063.034 0 .05-.021.05-.06v-.183h.033m-.473 0v.274h.15v-.039h-.117v-.086h.103v-.037h-.103v-.073h.113v-.038m-.181 0-.07.274h-.032l-.07-.274h.036l.047.217h.009l.046-.217m-.207.273h.033v-.273h-.033v.274zm-.036-.235h-.063v.235h-.034v-.235H6.54v-.038h.16m-.177.081H6.49c-.004-.02-.016-.05-.053-.05-.022 0-.058.02-.058.107 0 .054.019.104.058.104.028 0 .046-.02.053-.054h.033c-.009.056-.039.093-.086.093-.055 0-.092-.05-.092-.145 0-.094.04-.144.092-.144.057 0 .082.051.086.09zm-.349-.082v.274h.152v-.039h-.12v-.086h.104v-.037h-.103v-.073h.113v-.038m-.317-.001v.274h.034v-.12h.093v-.04h-.093v-.075h.107v-.038m-.312-.001v.274h.032v-.12h.094v-.04h-.094v-.075h.108v-.038m-.322-.001v.274h.15v-.039h-.118v-.086h.103v-.037h-.103v-.073h.113v-.038m-.321.273h-.019l-.005-.046c-.019.03-.034.054-.071.054-.048 0-.092-.048-.092-.143 0-.075.03-.146.1-.146.057 0 .081.048.085.085H5.44c-.005-.016-.022-.047-.053-.047-.034 0-.066.03-.066.108 0 .084.035.104.068.104.011 0 .046-.005.058-.074h-.051v-.036h.078m-.224.141h-.035l-.087-.203h-.01v.204h-.03v-.274h.038l.083.199h.011v-.199h.03m-.253.273h.032v-.273h-.032v.274zm-.057-.093c0 .07-.031.1-.082.1a.072.072 0 0 1-.062-.03.112.112 0 0 1-.016-.067v-.183h.034v.179c0 .045.02.063.044.063.034 0 .048-.021.048-.06v-.183h.034m-.197.194c0 .08-.06.088-.078.088-.069 0-.083-.05-.086-.083h.031c.003.018.011.046.051.046.024 0 .051-.008.051-.043 0-.025-.017-.033-.042-.042l-.024-.007c-.032-.01-.063-.019-.063-.079 0-.028.012-.08.075-.08.058 0 .075.045.078.079h-.03c-.004-.015-.011-.042-.05-.042-.02 0-.043.01-.043.04 0 .026.016.032.027.035l.052.018c.026.008.051.023.051.07m-.402-.013c0 .07-.031.1-.082.1a.072.072 0 0 1-.062-.03.116.116 0 0 1-.016-.067v-.183h.034v.179c0 .045.02.063.044.063.034 0 .048-.021.048-.06v-.183h.034m4.719.274h-.034l-.087-.203h-.01v.204h-.03v-.274h.037l.085.199h.01v-.199h.03m-.191.273h-.036l-.014-.058h-.087l-.015.059h-.034l.072-.274H8.8l.07.274zm-.06-.096-.028-.124h-.01l-.03.125m-.542-.041c0 .127-.07.144-.096.144-.027 0-.097-.017-.097-.145s.07-.144.097-.144c.027 0 .096.017.096.145zm-.032 0c0-.086-.039-.106-.064-.106-.026 0-.064.02-.064.105 0 .086.038.106.064.106.025 0 .064-.02.064-.105zm-3.614.138v-.001h-.04a.395.395 0 0 1-.003-.051c0-.046-.004-.06-.04-.06h-.052v.11h-.033v-.273h.103c.052 0 .06.053.06.075 0 .029-.01.053-.04.066.026.017.035.024.035.074 0 .043.003.056.01.06zm-.038-.194c0-.018-.005-.043-.036-.043h-.06v.088h.058c.027 0 .04-.013.04-.045m-.367.004c0 .024-.01.085-.062.085h-.056v.103H4v-.274h.09c.04 0 .061.034.061.086zm-.032-.003c0-.031-.014-.045-.045-.045h-.041v.096h.046c.039 0 .04-.036.04-.05m5.157.048c0 .057-.017.143-.084.143h-.086v-.274h.088c.069 0 .082.078.082.13zm-.035.003c0-.09-.034-.096-.055-.096H9.14v.198h.047c.04 0 .055-.051.055-.102z" fill="#231F20"/></svg>