<svg width="36" height="36" fill="none" xmlns="http://www.w3.org/2000/svg"><path d="M18 0c2.837 0 5.52.656 7.907 1.825C31.884 4.753 36 10.895 36 18c0 9.942-8.058 18-18 18-9.94 0-18-8.057-18-18C0 8.06 8.06 0 18 0z" fill="#F2F4F7"/><path d="M17.13 20.662a2.804 2.804 0 0 1-1.408-.386l-.223-.826h.021c.62.603 1.115.82 1.61.82.494 0 .924-.266.924-.886 0-.45-.31-.602-1.044-.992-.853-.457-1.397-.816-1.397-1.55 0-.81.799-1.075 1.577-1.075a4 4 0 0 1 1.114.158l.19.728h-.016a2.132 2.132 0 0 0-1.342-.517c-.409 0-.816.196-.816.636 0 .376.206.57 1.201 1.076 1 .51 1.3.885 1.3 1.532 0 .917-.87 1.282-1.69 1.282zm6.665-3.374-.87 3.314h-.044c-.19 0-.347-.104-.489-.484l-.94-2.482-.843 2.411c-.114.327-.255.555-.554.555h-.044l-.82-3.167c-.115-.44-.185-.527-.398-.696v-.016h1.148v.016a.4.4 0 0 0-.142.305c0 .103.027.217.06.352l.55 2.173.858-2.52c.081-.234.196-.353.435-.353h.087l1.065 2.77.522-2.09a.945.945 0 0 0 .038-.257c0-.146-.06-.254-.196-.38v-.016h.913v.016c-.163.164-.256.234-.336.549zm1.445.032v2.64c0 .267.033.43.239.582v.016h-1.125v-.016c.207-.152.245-.316.245-.582v-2.64c0-.266-.038-.429-.245-.582v-.015h1.13v.015c-.206.153-.244.316-.244.582zm3.358 3.238c-.283 0-.521-.022-.788-.483l-.62-1.081c-.113-.201-.125-.207-.299-.207h-.216v1.173c0 .267.033.43.239.582v.016h-1.126v-.016c.207-.152.245-.316.245-.582v-2.64c0-.266-.038-.429-.245-.582v-.015h1.446c.864 0 1.402.277 1.402.983 0 .538-.359.88-.88 1.016l.674 1.168c.212.363.456.521.76.652v.016h-.592zm-1.45-3.541h-.257c-.167 0-.216.032-.216.233v1.244h.406c.474 0 .865-.256.865-.788s-.326-.69-.799-.69z" fill="#000"/><path d="M31.831 20.558H29.12v-.016c.207-.152.256-.316.256-.582v-2.64c0-.266-.05-.429-.256-.582v-.015h2.511l.136.559h-.01c-.224-.179-.354-.265-.8-.265h-.722c-.18 0-.224.13-.224.2v1.18h1.36l.037.433h-.016a.575.575 0 0 0-.391-.14h-.99v1.205c0 .315.05.37.224.37h.723c.553 0 .69-.076 1.032-.37H32l-.169.663z" fill="#000"/><path d="M4.085 15.085h9.412V21.3H4.085v-6.216z" fill="#fff"/><path d="m4.085 21.272 4.706-3.08-4.706-3.078v6.158z" fill="red"/><path d="M13.497 15.114 8.79 18.192l4.706 3.08v-6.158z" fill="red"/><path d="M9.43 21.3H8.151v-6.216h1.277v6.217z" fill="#004898"/><path d="M13.582 21.386H4V15h9.582v6.386zm-.17-6.217H4.168v6.047h9.242V15.17z" fill="#000"/></svg>