<svg width="36" height="36" fill="none" xmlns="http://www.w3.org/2000/svg"><path d="M18 0c2.837 0 5.52.656 7.907 1.825C31.884 4.753 36 10.895 36 18c0 9.942-8.058 18-18 18-9.94 0-18-8.057-18-18C0 8.06 8.06 0 18 0z" fill="#F2F4F7"/><path d="M28.989 19.008c-1.956 0-2.654-1.163-2.654-2.253 0-1.408 1.046-2.25 2.797-2.25 1.844 0 2.868.784 2.868 2.204 0 1.487-.938 2.239-2.865 2.296l-.146.003zm.142-3.61c-1.009 0-1.22.71-1.22 1.315 0 .892.409 1.307 1.276 1.307.868 0 1.277-.434 1.277-1.324 0-.983-.328-1.298-1.346-1.298h.013zm-5.821 3.435v-.008c-1.998-.108-2.422-1.184-2.424-2.072 0-.6.18-1.082.54-1.434.437-.426 1.127-.641 2.052-.641h2.219v.85h-2.032c-.399 0-.694.094-.876.284-.183.19-.274.484-.264.887v.038c0 .356 0 1.098 1.194 1.184l1.976.026v.886H23.31zm-7.4-.057v-.85h2.208c.142 0 .4-.022.537-.162a.331.331 0 0 0 .087-.254c-.009-.284-.185-.417-.553-.417h-.952c-.547-.013-.93-.135-1.17-.373-.203-.203-.298-.475-.298-.861 0-.843.504-1.236 1.583-1.236h2.717v.852h-2.377a.543.543 0 0 0-.369.089.411.411 0 0 0-.095.298.361.361 0 0 0 .08.27c.1.101.3.11.513.11h.692c.802 0 1.236.26 1.46.48a1.1 1.1 0 0 1 .342.8 1.193 1.193 0 0 1-.318.88c-.245.244-.634.369-1.153.369H15.91v.005zm-3.855.246c-1.956 0-2.654-1.163-2.654-2.253 0-1.408 1.045-2.249 2.798-2.249 1.844 0 2.87.783 2.87 2.203 0 1.487-.938 2.24-2.866 2.296h-.141l-.007.003zm.141-3.61c-1.008 0-1.22.71-1.22 1.315 0 .892.408 1.308 1.277 1.308.87 0 1.277-.434 1.277-1.325 0-.983-.328-1.298-1.346-1.298h.012zm-5.772 3.421v-.008C4.425 18.717 4 17.64 4 16.753c0-.6.18-1.082.54-1.434.437-.426 1.125-.641 2.048-.641h2.223v.85H6.77c-.391 0-.683.094-.866.284-.256.257-.25.651-.247.863v.126c-.018.335-.057 1.027 1.179 1.115l1.975.025v.887l-2.388.005zm7.304 3.49v-2.488h-.746v2.488h.746zm9.361.042v-2.488h-.746v2.488h.746zm-4.454-.019v-2.488h1.593c.895.057 1.082.454 1.082.778 0 .455-.452.774-1.102.774h-.827v.936h-.746zm1.447-1.342c.284 0 .455-.134.455-.368 0-.21-.195-.37-.455-.37h-.702v.738h.702zm-5.066 1.359v-2.488h1.591c.895.057 1.082.454 1.082.778 0 .455-.454.774-1.102.774h-.826v.933l-.745.003zm1.446-1.341c.284 0 .454-.135.454-.37 0-.21-.195-.368-.454-.368h-.7v.738h.7zm12.845 1.303a1.44 1.44 0 0 1-1.016-.363 1.208 1.208 0 0 1-.349-.906c0-.819.508-1.268 1.428-1.268h1.427v.62h-1.663c-.248.036-.44.314-.44.648 0 .367.224.666.5.666l.904-.018v-.605h.698v1.224h-1.49v.002zm-4.233-.002h-.746v-2.488h.704l1.178 1.476v-1.436h.746v2.488h-.685l-1.197-1.48v1.44zm-15.188-.977.004.977h-.747v-2.488h.747l-.008.955 1.114.021v-.976h.747v2.488h-.747v-.977h-1.11zM5.38 22.363v-.532h1.43c.383-.014.383-.163.383-.244 0-.142-.142-.232-.386-.242H6.19c-.335-.008-.567-.081-.71-.226a.698.698 0 0 1-.18-.528c0-.507.316-.754.965-.754h1.641v.533H6.488a.442.442 0 0 0-.312.091.18.18 0 0 0-.054.142c0 .183.207.221.38.221h.746a.9.9 0 0 1 .608.226.745.745 0 0 1 .206.554.723.723 0 0 1-.196.535.979.979 0 0 1-.709.23h-.344l-1.433-.006z" fill="#154B83"/><path d="M28.657 13.583c-1.814-2.896-4.751-4.557-8.057-4.557-3.413 0-6.556 1.744-8.18 4.565l-.069.115h1.18l.023-.04C15.039 11.043 17.55 9.6 20.647 9.6c2.782 0 5.605 1.671 6.866 4.062l.022.043h1.199l-.077-.122z" fill="#BD1D21"/><path d="M8.601 13.723H7.412l.083-.142c.142-.245.292-.483.452-.71C9.66 10.453 12.541 9 15.654 9c3.252 0 5.973 1.535 8.084 4.561l.094.16h-1.265l-.028-.055c-1.041-1.964-3.83-4.052-6.933-4.052a8.002 8.002 0 0 0-6.974 4.066l-.031.043zm14.513 9.419h-1.098l-.024.03a8.03 8.03 0 0 1-6.451 3.121c-2.582 0-4.756-1.078-6.288-3.12l-.024-.033H8.112l.1.13a9.313 9.313 0 0 0 7.41 3.573c2.923 0 5.56-1.228 7.338-3.48.044-.055.107-.153.154-.221z" fill="#154B83"/><path d="M20.553 26.804a9.272 9.272 0 0 1-7.375-3.557l-.051-.065h1.055l.013.015c1.574 1.96 3.82 3.085 6.164 3.085h.141a8.78 8.78 0 0 0 6.411-3.085l.011-.014h1.054l-.05.065a9.272 9.272 0 0 1-7.373 3.556z" fill="#E60012" stroke="#E60012" stroke-width=".5" stroke-miterlimit="10"/><path d="M20.553 26.845a9.312 9.312 0 0 1-7.41-3.572l-.101-.13h1.155l.025.029c1.56 1.95 3.802 3.07 6.132 3.07h.142a8.74 8.74 0 0 0 6.397-3.072l.024-.028h1.154l-.1.13a9.313 9.313 0 0 1-7.418 3.573z" fill="#BD1D21"/></svg>