<svg width="36" height="36" fill="none" xmlns="http://www.w3.org/2000/svg"><path d="M18 0c2.837 0 5.52.656 7.907 1.825C31.884 4.753 36 10.895 36 18c0 9.942-8.058 18-18 18-9.94 0-18-8.057-18-18C0 8.06 8.06 0 18 0z" fill="#F2F4F7"/><path d="M18.867 15.18c.09-.793.13-1.667-.088-2.61a6.447 6.447 0 0 0-1.08-2.28c-.314-.478-1.188-1.448-1.434-3.176C15.945 4.95 17.29 4 17.29 4c-.137.478-.075 1.639.164 2.254.377.945.858 1.845 1.434 2.684a5.395 5.395 0 0 1 1.127 3.585 4.184 4.184 0 0 1-1.148 2.663v-.006z" fill="#DDD8C8" fill-opacity=".7"/><path d="M17.939 15.043a7.8 7.8 0 0 0-.997-2.424c-.56-.847-1.23-1.339-1.824-1.783-.471-.348-1.625-.97-2.472-2.513-1.059-1.926-.123-3.271-.123-3.271.027.498.498 1.57.942 2.076.437.505 1.353 1.38 2.295 2.042a5.504 5.504 0 0 1 2.322 2.991 4.146 4.146 0 0 1-.137 2.882h-.006z" fill="#DDD8C8" fill-opacity=".7"/><path d="M17.023 15.22a7.907 7.907 0 0 0-1.796-1.946c-.82-.615-1.625-.854-2.342-1.072-.567-.171-1.871-.376-3.21-1.537-1.673-1.461-1.27-3.032-1.27-3.032a4.917 4.917 0 0 0 1.618 1.639 14.89 14.89 0 0 0 2.882 1.154 5.682 5.682 0 0 1 3.237 2.049c1.025 1.297.881 2.745.881 2.745zm-.799.472c-.669-.478-1.434-.943-2.383-1.23a6.022 6.022 0 0 0-1.817-.26c-.266 0-.519.014-.758.021-.26.014-.662.069-1.174.069a6.468 6.468 0 0 1-2.384-.451c-2.096-.806-2.26-2.418-2.26-2.418.355.355 1.42.888 2.096.997 1.03.154 2.075.198 3.115.13.225-.014.45-.027.669-.027 1.024 0 2.014.205 3.094.88a4.268 4.268 0 0 1 1.802 2.289z" fill="#DDD8C8" fill-opacity=".7"/><path d="m7.21 17.495-.226-.007C4.731 17.42 4 15.951 4 15.951c.744.265 1.54.35 2.322.246.676-.116 1.912-.45 2.978-.915a6.195 6.195 0 0 1 2.54-.587c.403 0 .833.04 1.298.143.987.216 1.87.766 2.5 1.557a8.727 8.727 0 0 0-2.671-.369c-1.038.041-1.81.356-2.507.636-.525.204-1.584.82-3.257.82l.007.013z" fill="#DDD8C8" fill-opacity=".7"/><path d="M6.254 21.367c-1.298 0-2.008-.663-2.008-.663h.136c.567 0 1.592-.232 2.131-.539a15.047 15.047 0 0 0 2.48-1.844 5.723 5.723 0 0 1 3.98-1.728c.835 0 1.653.232 2.364.67a8.196 8.196 0 0 0-2.636.532c-.957.39-1.571.936-2.131 1.434-.437.383-1.27 1.38-2.978 1.92-.498.156-.95.218-1.338.218z" fill="#DDD8C8" fill-opacity=".7"/><path d="M7.114 25.24c-.587 0-.963-.158-.963-.158.499-.123 1.503-.751 1.94-1.263a13.797 13.797 0 0 0 1.673-2.554 5.586 5.586 0 0 1 2.643-2.732 4.494 4.494 0 0 1 2.95-.362c-.751.32-1.557.724-2.295 1.38-.764.682-1.147 1.393-1.502 2.048-.273.506-.697 1.714-2.117 2.793a3.803 3.803 0 0 1-2.322.847h-.007z" fill="#DDD8C8" fill-opacity=".7"/><path d="M9.539 28.565h-.055a4.85 4.85 0 0 0 1.38-1.83c.331-.956.555-1.945.669-2.95a5.408 5.408 0 0 1 1.516-3.45 4.452 4.452 0 0 1 2.65-1.317c-.595.546-1.21 1.195-1.674 2.048-.478.895-.58 1.7-.683 2.425-.075.567-.054 1.844-1.004 3.326-1.058 1.652-2.492 1.748-2.8 1.748z" fill="#DDD8C8" fill-opacity=".7"/><path d="M13.841 30.73c.307-.403.656-1.51.649-2.172 0-.669-.123-1.912-.41-3.005a5.34 5.34 0 0 1 .212-3.735c.649-1.51 2.021-2.117 2.021-2.117a7.729 7.729 0 0 0-.84 2.479c-.136.997.048 1.789.205 2.506.137.56.608 1.755.232 3.462-.464 2.138-2.069 2.582-2.069 2.582z" fill="#DDD8C8" fill-opacity=".7"/><path d="M18.703 31.317c.144-.478.082-1.639-.15-2.253a13.898 13.898 0 0 0-1.448-2.684 5.394 5.394 0 0 1-1.12-3.586c.076-1.639 1.148-2.663 1.148-2.663-.09.799-.13 1.673.088 2.616.226.983.677 1.666 1.08 2.28.32.485 1.188 1.448 1.434 3.176.32 2.172-1.025 3.114-1.025 3.114h-.007z" fill="#DDD8C8" fill-opacity=".7"/><path d="M23.484 30.259a4.707 4.707 0 0 0-.943-2.07 14.319 14.319 0 0 0-2.308-2.041 5.532 5.532 0 0 1-2.315-2.992c-.505-1.57.137-2.882.137-2.882a7.854 7.854 0 0 0 1.003 2.425 6.823 6.823 0 0 0 1.824 1.79c.471.354 1.625.969 2.472 2.512 1.066 1.926.13 3.265.13 3.265v-.007z" fill="#DDD8C8" fill-opacity=".7"/><path d="M27.602 27.684a4.918 4.918 0 0 0-1.619-1.639 14.613 14.613 0 0 0-2.881-1.147 5.703 5.703 0 0 1-3.238-2.05c-1.024-1.297-.887-2.751-.887-2.751.457.662 1.01 1.359 1.802 1.946.82.615 1.626.854 2.343 1.072.56.178 1.871.376 3.21 1.537 1.673 1.461 1.27 3.032 1.27 3.032z" fill="#DDD8C8" fill-opacity=".7"/><path d="M30.552 23.894a5.04 5.04 0 0 0-2.09-.997 14.653 14.653 0 0 0-3.12-.13c-.226.014-.451.027-.67.027-1.024 0-2.008-.205-3.094-.874a4.255 4.255 0 0 1-1.802-2.295c.72.538 1.522.953 2.376 1.23a6.04 6.04 0 0 0 1.817.26c.266 0 .519-.014.765-.028.26-.007.662-.061 1.174-.061a6.33 6.33 0 0 1 2.384.45c2.096.813 2.26 2.418 2.26 2.418z" fill="#DDD8C8" fill-opacity=".7"/><path d="M24.16 20.615a5.98 5.98 0 0 1-1.298-.143c-1.639-.355-2.492-1.557-2.492-1.557a8.584 8.584 0 0 0 2.663.369c1.038-.041 1.81-.355 2.506-.635.526-.205 1.585-.82 3.258-.82h.219c2.253.068 2.984 1.53 2.984 1.53a4.986 4.986 0 0 0-2.322-.246c-.67.116-1.912.45-2.977.915a6.215 6.215 0 0 1-2.541.587z" fill="#DDD8C8" fill-opacity=".7"/><path d="M23.02 18.724c-1.387 0-2.357-.67-2.357-.67a8.262 8.262 0 0 0 2.643-.532c.956-.39 1.571-.936 2.131-1.434.437-.383 1.264-1.38 2.978-1.92.43-.14.879-.214 1.331-.218 1.298 0 2.008.663 2.008.663h-.143a5.258 5.258 0 0 0-2.117.546c-.601.335-1.64 1.052-2.48 1.844a5.71 5.71 0 0 1-3.994 1.72z" fill="#DDD8C8" fill-opacity=".7"/><path d="M21.585 17.249c-.567 0-.942-.103-.942-.103.751-.32 1.557-.724 2.294-1.38.765-.682 1.148-1.4 1.496-2.048.273-.505.704-1.714 2.117-2.793a3.825 3.825 0 0 1 2.336-.854c.594 0 .963.164.963.164-.492.123-1.503.751-1.94 1.264a13.86 13.86 0 0 0-1.673 2.547 5.593 5.593 0 0 1-2.636 2.732 4.508 4.508 0 0 1-2.015.47z" fill="#DDD8C8" fill-opacity=".7"/><path d="M20.308 16.3a7.99 7.99 0 0 0 1.667-2.05c.478-.894.587-1.7.683-2.424.075-.567.054-1.844 1.003-3.333 1.059-1.652 2.5-1.741 2.8-1.741h.055a4.841 4.841 0 0 0-1.38 1.83 13.59 13.59 0 0 0-.669 2.957 5.409 5.409 0 0 1-1.523 3.442 4.438 4.438 0 0 1-2.636 1.311v.007z" fill="#DDD8C8" fill-opacity=".7"/><path d="M19.687 15.617a7.76 7.76 0 0 0 .847-2.486c.136-.99-.055-1.783-.219-2.5-.123-.56-.6-1.755-.225-3.462.464-2.138 2.069-2.582 2.069-2.582a4.713 4.713 0 0 0-.649 2.172c0 .67.123 1.905.41 3.005a5.34 5.34 0 0 1-.212 3.736c-.648 1.516-2.021 2.117-2.021 2.117z" fill="#DDD8C8" fill-opacity=".7"/><path d="M27.698 16.99c-.84.081-1.496.519-1.523.956-.035.443.846.519 1.434.628.847.15 1.065.471.573.662-.532.205-1.447-.293-1.727-.369-.273-.082-.99.718-.99.718h.218c.212-.137.253-.15.813-.028.56.11 1.345.123 1.912-.136.567-.253.86-.588.799-.895-.082-.423-.806-.567-1.605-.683-.656-.082-.765-.375-.41-.526a1.64 1.64 0 0 1 1.182.11c.143.102.007.204.007.204l.143.048.697-.3c.266-.116-.588-.478-1.517-.39h-.006zm-4.515.348c.71-.444 1.571-.3 1.571-.3-.055-.916-1.14-1.292-3.913-1.394-2.868-.116-5.409.355-5.409.355l-.212-.116c2.72-.695 5.54-.91 8.332-.635 1.912.266 2.227 1.024 2.281 1.673.055.642-.362 1.687-.792 2.097-.341.32-.82.642-1.386.587-.786-.068-1.059-.758-1.12-1.058-.055-.308-.069-.772.648-1.21zm1.544.655c0-.15-.041-.245-.198-.32a1.948 1.948 0 0 0-.383-.11c-.32-.068-.519-.089-.6.048-.048.068-.055.3-.055.533v.04c0 .205 0 .335.034.41.048.096.157.15.287.198.184.062.423.123.546.144.246.04.341-.007.348-.219.014-.205.02-.724.02-.724z" fill="#B1974D"/><path d="M18.574 17.959v1.632s.355.068.519-.205c.143-.239.662-.956 1.03-1.284.377-.328.575-.41.65-.232.068.17-.014.854.027 1.236.041.383.205.547.546.492.41-.068.922-.71.922-.71v-.246s-.273.273-.437.232c-.177-.048-.054-.751-.054-1.277 0-.533-.308-.683-.998-.341a4.714 4.714 0 0 0-1.229.942s.014-.505-.02-.765c-.034-.287-.171-.526-.444-.437-.273.082-.922.492-.922.492v.232c.253-.17.41-.123.41.239zm-1.79-.888c.185.048.356.089.513.068.252-.04.355-.095.361-.102v1.51c0 .334.246.395.479.259.198-.116.204-.15.204-.157v.245s-.41.52-.819.67c-.396.15-.601-.014-.703-.164-.069-.096-.123-.355-.123-.587v-.547s-.52.683-1.08 1.066c-.56.375-1.024.416-1.194.02a1.571 1.571 0 0 1 .43-1.687c.58-.553 1.16-.71 1.523-.669.15.014.28.048.41.075zm1.558 1.57v.008-.007zm-1.64-.77c.144-.226-.123-.37-.491-.452-.683-.15-.922.178-.97.84-.055.663.246.622.546.513.365-.232.675-.54.909-.902h.006zm-2.397-2.077s.075.102-.04.15c-.123.055-1.571.58-1.571.58l-.246-.136s.457-.102.211-.41c-.245-.3-1.352-.573-2.547-.491-1.195.068-1.728.54-1.277.908.41.341 1.01.341 2.37.478 1.345.13 2.554.355 2.752.99.157.485-.376 1.305-1.912 1.667-1.434.341-2.664.245-3.852-.035-1.14-.259-1.243-.218-1.618.09H6.28s.826-.834 1.776-1.291c.204-.096.512.109.922.32.478.246 2.083.765 3.278.485 1.03-.239.54-.867 0-1.024-.82-.225-2.623-.273-3.94-.587-1.326-.308-1.025-1.127-.363-1.591.67-.458 1.892-.82 3.483-.854 1.605-.027 2.616.369 2.868.751z" fill="#B1974D"/></svg>