<svg width="36" height="36" fill="none" xmlns="http://www.w3.org/2000/svg"><path d="M18 0c2.837 0 5.52.656 7.907 1.825C31.884 4.753 36 10.895 36 18c0 9.942-8.058 18-18 18-9.94 0-18-8.057-18-18C0 8.06 8.06 0 18 0z" fill="#F2F4F7"/><path fill-rule="evenodd" clip-rule="evenodd" d="M6 11h24v13.778H6V11z" fill="#BD3019"/><path fill-rule="evenodd" clip-rule="evenodd" d="M6.483 11.484h23.034v8.373H6.483v-8.373zm0 8.857h23.034v3.954H6.483v-3.954z" fill="#97002E"/><path d="M17.536 21.722h-1.18v.201h.496v1.097h.204v-1.097h.496v-.201h-.016zm2.004-.001h-.189v1.299h.207v-1.3h-.018zm-1.216-.047c-.339 0-.566.247-.58.63v.716h.203v-.532h.742v.532h.203v-.715c-.013-.39-.231-.631-.568-.631zm.364.613h-.737c.017-.257.15-.405.373-.405.29 0 .354.246.364.405zm-5.668-.601a.679.679 0 0 0-.681.675.68.68 0 0 0 1.36 0 .678.678 0 0 0-.68-.675zm0 1.144a.471.471 0 0 1-.473-.469.472.472 0 0 1 .946 0 .472.472 0 0 1-.474.469zm-2.413-1.115h-.52c-.368.012-.657.296-.657.647 0 .355.288.645.655.658h.538v-.203h-.536a.462.462 0 0 1-.45-.455c0-.242.195-.433.453-.445h.533v-.202h-.016zm-.519.186v.016-.016zm1.934-.179h-.189v.501h-.702v-.501h-.205v1.298h.205v-.597h.702v.597h.207v-1.298h-.017zm3.345 0h-.183v1.091h-.043c-.302 0-.358-.266-.365-.425v-.635h-.203v.637c-.007.158-.063.423-.365.423h-.043v-1.091h-.2v1.298h.243a.52.52 0 0 0 .467-.256.52.52 0 0 0 .465.256h.245v-1.298h-.018zm-.608.667h.017-.017zm8.093-.703a.678.678 0 0 0-.68.675.68.68 0 0 0 1.36 0 .68.68 0 0 0-.68-.675zm0 1.144a.471.471 0 0 1-.472-.469.472.472 0 0 1 .945 0 .471.471 0 0 1-.473.469zm1.575-1.144a.68.68 0 0 0-.681.675.68.68 0 0 0 .681.676c.375 0 .68-.303.68-.676a.678.678 0 0 0-.68-.675zm0 1.144a.472.472 0 0 1-.473-.469.473.473 0 0 1 .946 0 .471.471 0 0 1-.473.469zm1.663-.526c.23-.121.372-.328.372-.547v-.047h-.207v.046c0 .246-.277.43-.525.445h-.16v-.491h-.205v1.31h.205v-.605h.218c.25.014.537.311.537.558v.047h.207v-.047c0-.247-.185-.525-.442-.67m-4.192-.629h-.423c-.338 0-.567.247-.58.631v.715h.204v-.572h.815v-.201h-.809c.029-.235.159-.365.37-.365h.439v-.208h-.016zm4.491-5.697a.438.438 0 0 0-.312-.114H24.6a.44.44 0 0 0-.313.114.412.412 0 0 0-.126.32v1.324c0 .11.035.21.105.29.072.08.167.121.28.121h1.585a.36.36 0 0 0 .28-.12.423.423 0 0 0 .105-.29v-1.325c0-.14-.04-.242-.126-.32zm-1.258 1.167v.509h-.486c-.04 0-.083-.014-.083-.116v-.413h.57v.02zm0-.893v.519h-.569v-.424c0-.102.044-.116.082-.116h.489v.02zm.984.893v.393c0 .102-.045.116-.084.116h-.486v-.529h.57v.02zm0-.395v.021h-.57v-.54h.485c.039 0 .084.014.084.116v.403zm.057-2.37a.452.452 0 0 0-.314-.114h-1.053a.41.41 0 0 0-.438.427v.471c0 .118.035.219.105.298.07.08.165.121.28.121h1.158a.36.36 0 0 0 .28-.12.43.43 0 0 0 .107-.299v-.472a.412.412 0 0 0-.125-.312zm-.297.708c0 .04-.008.067-.022.08-.009.01-.022.014-.04.014h-.962c-.026 0-.063 0-.063-.094v-.39c0-.001 0-.009.014-.028.004-.004.011-.015.037-.015h.985c.026 0 .033.01.036.015.014.019.015.028.015.028v.39zm-1.454-1.143a.2.2 0 0 0 .097.025h1.641a.192.192 0 0 0 .095-.025.21.21 0 0 0 .112-.188.211.211 0 0 0-.207-.212h-1.641a.21.21 0 0 0-.207.212c0 .08.043.151.11.188zm-2.114 0c.03.016.062.025.095.025h1.291a.195.195 0 0 0 .096-.025.212.212 0 0 0-.007-.378.208.208 0 0 0-.089-.022h-1.291a.19.19 0 0 0-.087.022.211.211 0 0 0-.12.19c0 .08.043.151.112.188zm1.598.336a.216.216 0 0 0-.088-.021H22.28a.21.21 0 0 0-.208.212.212.212 0 0 0 .208.212h.547v3.191a.22.22 0 1 0 .44 0v-3.191h.55a.21.21 0 0 0 .206-.212.21.21 0 0 0-.118-.191z" fill="#fff"/><path d="M22.39 15.032c-.116 0-.209.081-.209.182v1.941c0 .103.093.185.21.185.114 0 .207-.082.207-.185v-1.94c0-.102-.093-.183-.208-.183zm1.313 0c-.115 0-.208.081-.208.182v1.941c0 .103.093.185.208.185.115 0 .21-.082.21-.185v-1.94c0-.102-.095-.183-.21-.183zm-3.768 2.625-.147-.105c-.268-.18-.58-.501-.911-.958a3.972 3.972 0 0 1-.66-1.47h1.593a.202.202 0 0 0 .122-.04.215.215 0 0 0 0-.343.21.21 0 0 0-.122-.04H18.2v-1.03c0-.118-.104-.212-.235-.212-.132 0-.235.094-.235.212v1.03h-1.611a.206.206 0 0 0-.121.04.218.218 0 0 0-.086.172c0 .067.033.13.086.171a.2.2 0 0 0 .12.04h1.59a3.963 3.963 0 0 1-.655 1.47 5.982 5.982 0 0 1-.49.595c-.149.155-.29.276-.42.363l-.15.105-.015.014a.199.199 0 0 0-.06.15c0 .109.08.201.184.217a.193.193 0 0 0 .063.003c.069-.01.164-.045.494-.34.16-.141.318-.312.475-.512.092-.116.183-.241.273-.373a5.84 5.84 0 0 0 .559-1.027c.138.34.326.684.558 1.027.243.363.495.66.747.885.329.295.426.33.495.34a.186.186 0 0 0 .062-.003.219.219 0 0 0 .184-.217.206.206 0 0 0-.059-.15l-.017-.014zm-8.147-3.655h-.002a.221.221 0 0 0-.209.225v.121h-.823a.215.215 0 0 0-.211.218c0 .111.084.203.19.214v.002h.844v.379h-.949a.213.213 0 0 0-.211.208c.002-.002 0 0 0 0v.018a.214.214 0 0 0 .211.208h2.338a.21.21 0 0 0 .21-.208c.002-.003.002-.007.002-.01l-.001-.008v-.002a.212.212 0 0 0-.21-.206h-.949v-.379h.842v-.002a.203.203 0 0 0 .13-.062.22.22 0 0 0 0-.306.21.21 0 0 0-.15-.064h-.822v-.121a.222.222 0 0 0-.212-.225c.001 0 0 0 0 0h-.018zm1.527-.01v3.453c0 .106-.067.19-.114.19a2.015 2.015 0 0 1-.325-.06l-.049-.013c-.01 0-.019-.003-.03-.003a.213.213 0 0 0-.17.088.223.223 0 0 0-.046.136c0 .082.04.166.116.197.025.01.038.016.064.023l.013.004c.161.048.284.075.383.077a.574.574 0 0 0 .422-.158c.107-.106.164-.262.166-.46l.002-.423.001-.02v-3.148l-.001-.02a.458.458 0 0 0-.452-.439l-.013.002h-.011l-.013-.002h-2.963c-.005 0-.011 0-.015.002h-.006l-.016-.002a.456.456 0 0 0-.453.454v.859l.002 1.255c.002.635-.096 1.18-.295 1.62a.494.494 0 0 0-.049.186c0 .066.023.125.065.166a.206.206 0 0 0 .156.068c.052 0 .101-.02.148-.058.03-.026.078-.092.182-.379a3.634 3.634 0 0 0 .226-1.289v-.075l.006-1.515v-.364l.003-.427c0-.02.017-.04.038-.04h2.968c.022 0 .036.005.044.013.01.01.018.025.017.069v.034zm-.454 2.872v-.523a.419.419 0 0 0-.129-.317.459.459 0 0 0-.32-.117h-1.23a.462.462 0 0 0-.32.117.416.416 0 0 0-.128.317v.523c0 .121.036.224.109.304a.362.362 0 0 0 .286.124h1.338a.36.36 0 0 0 .284-.124.437.437 0 0 0 .11-.304zm-.432-.077c0 .095-.038.095-.062.095h-1.138c-.024 0-.065 0-.065-.095v-.44a.05.05 0 0 1 .013-.029c.004-.004.014-.013.04-.013h1.16c.027 0 .036.01.042.014.01.012.01.028.01.028v.44z" fill="#fff"/></svg>