<svg height="36" viewBox="0 0 36 36" width="36" xmlns="http://www.w3.org/2000/svg"><mask id="a" fill="#fff"><path d="M0 0h28v5.15H0z" fill-rule="evenodd"/></mask><g fill="none" fill-rule="evenodd"><path d="M18 0c2.837 0 5.52.656 7.907 1.825C31.884 4.753 36 10.895 36 18c0 9.942-8.058 18-18 18-9.94 0-18-8.057-18-18C0 8.06 8.06 0 18 0z" fill="#f2f4f7" fill-rule="nonzero"/><path d="M6.137 4.2c-.558 0-1.05-.4-1.05-1.2 0-.75.492-1.184 1.05-1.184.508 0 1.008.433 1.008 1.183 0 .801-.5 1.2-1.008 1.2zm0-3.3c-1.208 0-2.1.882-2.1 2.1 0 1.233.892 2.15 2.1 2.15 1.159 0 2.05-.917 2.05-2.15 0-1.218-.891-2.1-2.05-2.1zm3.778 4.25c-.375 0-.558-.225-.692-.6L7.998.982h1.15l.909 2.934.858-2.934h1.058L10.799 4.55c-.125.375-.31.6-.684.6zm3.026-2.6c.075-.484.4-.817.867-.817.533 0 .775.333.825.816zm2.733.424c0-1.267-.716-2.075-1.858-2.075-1.075 0-1.992.834-1.992 2.108 0 1.334.834 2.142 2 2.142 1.084 0 1.633-.583 1.742-1.259h-1.058c-.092.25-.367.368-.684.368-.458 0-.85-.326-.9-.95h2.725s.025-.175.025-.334zm3.567.883c0 .61-.517 1.292-1.617 1.292-.901 0-1.592-.399-1.675-1.259h.975c.083.285.325.451.7.451.367 0 .534-.192.534-.392 0-.207-.125-.35-.442-.416l-.575-.125c-.767-.166-1.116-.483-1.116-1.208 0-.708.675-1.3 1.55-1.3s1.475.39 1.616 1.117l-.942.242c-.024-.267-.208-.551-.674-.551-.292 0-.51.167-.51.392 0 .208.159.325.392.384l.6.14c.85.2 1.184.568 1.184 1.234zM20.508 0h.167v.983h.882l-.3.95h-.582v1.583c0 .5.216.726.766.66v.916a3.592 3.592 0 0 1-.517.042c-.784 0-1.333-.409-1.333-1.434V1.066c0-.65.3-1.067.917-1.067zm1.4.983h1.05v.61c.175-.4.474-.66 1.009-.66.14 0 .249.017.34.05-.29.317-.524.675-.674 1.084h-.042c-.358 0-.583.325-.583.825v.966c0 .726-.21 1.193-1.1 1.217zM25.95 4.2c-.56 0-1.05-.399-1.05-1.2 0-.75.492-1.183 1.05-1.183.508 0 1.008.433 1.008 1.183 0 .801-.5 1.2-1.008 1.2zm0-3.3c-1.21 0-2.101.883-2.101 2.1 0 1.234.892 2.15 2.1 2.15C27.109 5.15 28 4.233 28 3c0-1.217-.891-2.1-2.05-2.1zM3.867 3.741c-.175.842-.858 1.408-1.841 1.408C.716 5.15 0 4.316 0 3 0 1.782.909.9 2.067.9c1.025 0 1.65.65 1.783 1.275l-.933.35c-.092-.342-.317-.675-.833-.675-.551 0-.96.426-.96 1.15 0 .775.402 1.2 1 1.2.302 0 .6-.134.76-.458z" fill="#000" mask="url(#a)" transform="translate(4 15)"/></g></svg>