<svg width="36" height="36" fill="none" xmlns="http://www.w3.org/2000/svg"><path d="M18 0c2.837 0 5.52.656 7.907 1.825C31.884 4.753 36 10.895 36 18c0 9.942-8.058 18-18 18-9.94 0-18-8.057-18-18C0 8.06 8.06 0 18 0z" fill="#F2F4F7"/><path d="M18.655 14a3.553 3.553 0 1 0 0 7.105 3.553 3.553 0 0 0 0-7.105z" fill="#fff"/><path d="M18.655 14.2a3.353 3.353 0 1 0 .001 6.705 3.353 3.353 0 0 0-.001-6.705z" fill="#075CA9"/><path d="M18.655 14.2a3.353 3.353 0 1 0 .001 6.705 3.353 3.353 0 0 0-.001-6.705z" fill="#075CA9"/><path d="M18.119 16.513h-.67a.268.268 0 0 0-.269.268v1.174c0 .148.12.268.268.268h.67v.302h-1.105a.503.503 0 0 1-.503-.503v-1.308c0-.277.225-.503.502-.503h1.107v.302zm2.614 1.509a.503.503 0 0 1-.503.503h-1.24v1.422c0 .084-.087.288-.622.288h-.048v-3.52h.048c.535 0 .622.203.622.287v1.221h.805c.148 0 .268-.12.268-.268v-1.173a.268.268 0 0 0-.268-.268H18.32V14.87h.048c.535 0 .622.203.622.287v1.054h1.24c.278 0 .503.225.503.503v1.307" fill="#fff"/><path d="M31.22 18.197h-.983v-.287h.983v.287zm-.112.58h-.871v-.286h.983v.175c0 .062-.05.112-.112.112zm-1.305 0h-.983v-.286h.983v.287zm-.983-.867h.983v.287h-.983v-.287zm3.18-.742v-1.033h-1.75v-.217h1.562v-.375h-3.57v.375h1.547v.217H28.04v1.033h.433v-.706h1.316v1.125h-1.403V19.1h1.417v.2c0 .231.188.42.42.42h1.75v-.35h-1.708v-.001h.083a.111.111 0 0 1-.111-.112V19.1h.996a.42.42 0 0 0 .42-.408v-1.105h-1.402v-1.125h1.316v.706H32z" fill="#075CA9"/><path d="M31.338 16.645h-.86v.302h.86v-.302zm0 .477h-.86v.297h.86v-.297zm-1.778 0h-.858v.297h.859v-.297zm0-.477h-.858v.302h.859v-.302zm-2.948 1.178c0 .062-.05.112-.111.112h-.972v-1.233h1.083v1.121zm-1.712.112h-1.083v-1.233H24.9v1.233zm.629-1.626v-.84H24.9v.84h-1.65v2.019h1.65v1.465h.629v-1.465h1.233a.421.421 0 0 0 .42-.421v-1.598h-1.653zM8.76 19.09a.151.151 0 0 1-.15-.151v-3.357h-.705v3.404c0 .315.256.571.571.571h2.093v-.467H8.761m3.907-1.294h-.919V16.2a.15.15 0 0 1 .151-.151h.768s.877-.009.877.873c0 .883-.815.873-.877.873zm0-2.213h-1.164a.46.46 0 0 0-.46.46v3.514h.705v-1.294h.92c1.28 0 1.546-.877 1.546-1.34 0-.462-.267-1.34-1.547-1.34zm-5.611 3.001c-.244.31-.6.506-.994.506-.738 0-1.335-.68-1.335-1.52 0-.838.598-1.518 1.335-1.518.33 0 .633.137.867.364l.395-.395a2.023 2.023 0 1 0 .138 2.97l-.406-.407z" fill="#075CA9"/></svg>