<svg width="36" height="36" fill="none" xmlns="http://www.w3.org/2000/svg"><path d="M18 0c2.837 0 5.52.656 7.907 1.825C31.884 4.753 36 10.895 36 18c0 9.942-8.058 18-18 18-9.94 0-18-8.057-18-18C0 8.06 8.06 0 18 0z" fill="#F2F4F7"/><path d="M30.746 12H28.58a.254.254 0 0 0-.253.254v7.364a.254.254 0 0 0 .253.254h2.166a.254.254 0 0 0 .254-.254v-7.364a.254.254 0 0 0-.254-.254zm-13.13 0H15.45a.254.254 0 0 0-.254.254v7.364a.254.254 0 0 0 .254.254h2.166a.254.254 0 0 0 .253-.254v-7.364a.254.254 0 0 0-.253-.254zm9.352 0h-2.266a.507.507 0 0 0-.41.21L23.1 13.853l-1.192-1.644a.506.506 0 0 0-.41-.209h-2.271a.25.25 0 0 0-.133.038.247.247 0 0 0-.122.236c.004.047.02.091.048.129l2.564 3.533-2.564 3.534a.252.252 0 0 0 .205.401h2.266a.507.507 0 0 0 .411-.208l1.192-1.644 1.191 1.644a.506.506 0 0 0 .41.208h2.27a.253.253 0 0 0 .204-.401l-2.56-3.534 2.565-3.533a.252.252 0 0 0-.206-.403zm-16.368.197-1.418 1.828-1.42-1.829A.508.508 0 0 0 7.36 12H5.254a.254.254 0 0 0-.254.254v7.364a.254.254 0 0 0 .254.254h2.103a.254.254 0 0 0 .253-.254v-3.775l1.375 1.698a.252.252 0 0 0 .394 0l1.375-1.699v3.776a.255.255 0 0 0 .253.254h2.167a.255.255 0 0 0 .254-.254v-7.364a.254.254 0 0 0-.254-.254h-2.172a.51.51 0 0 0-.402.197z" fill="#000"/><path d="M17.09 24v-2.166a.254.254 0 0 0-.255-.254H9.473a.254.254 0 0 0-.254.253V24a.254.254 0 0 0 .254.253h7.364A.254.254 0 0 0 17.09 24z" fill="#E5004D"/><path d="M26.717 24v-2.166a.254.254 0 0 0-.254-.254H19.1a.254.254 0 0 0-.253.253V24a.253.253 0 0 0 .253.253h7.364a.254.254 0 0 0 .254-.253z" fill="#F5A000"/></svg>