<svg width="36" height="36" fill="none" xmlns="http://www.w3.org/2000/svg"><path d="M18 0c2.837 0 5.52.656 7.907 1.825C31.884 4.753 36 10.895 36 18c0 9.942-8.058 18-18 18-9.94 0-18-8.057-18-18C0 8.06 8.06 0 18 0z" fill="#F2F4F7"/><path d="m10.3 16.774.647-.732c.011-.01 0-.042-.01-.042-4.964.138-6.883 1.58-6.936 2.217-.022.328.477.625.848.784.021.33.562.637.838.743.032.318.605.69 1.262.838.032.01.042-.032.021-.043-.488-.222-.625-.435-.625-.647 0-.434 1.484-.753 2.63-.827l.583-.679c.021-.01.01-.042-.01-.042-2.408.074-3.776.7-3.861 1.304-.138-.074-.233-.201-.233-.339 0-.467 1.336-1.294 4.157-1.358l.615-.7c.01-.02 0-.042-.01-.042-3.182.01-5.24.944-5.356 1.697-.064-.032-.234-.18-.234-.371 0-.668 2.249-1.686 5.674-1.76z" fill="#0075C1"/><path d="M13.843 18.524h-.615v.774c-.106.043-.234.032-.35.032-.276 0-.87-.233-.88-.859.02-.721.668-.88.965-.87.445.01.647.138.647.138l.159-.329a2.653 2.653 0 0 0-.923-.17c-.329 0-.796.117-1.071.34a1.072 1.072 0 0 0 0 1.676c.265.201.625.297 1.06.297a3.5 3.5 0 0 0 .997-.128c.01.011.01-.901.01-.901zm2.323.562c.137-.18.212-.424.212-.732 0-.275-.075-.488-.212-.657a.737.737 0 0 0-.573-.244.685.685 0 0 0-.573.276c-.138.18-.212.424-.212.731 0 .276.074.488.212.658.138.159.34.244.573.244a.713.713 0 0 0 .573-.276zm-1.591.18a.965.965 0 0 1-.382-.795c0-.36.127-.658.382-.88.254-.223.594-.33 1.007-.33.424 0 .753.107 1.008.309a.965.965 0 0 1 .382.795c0 .36-.128.658-.382.88-.255.223-.594.329-1.008.329-.413-.01-.753-.106-1.007-.308zm2.757.266v-2.26h.594v2.026h.902v.234h-1.496zm2.44-.223s.233.01.36.01c.286 0 .499-.084.647-.254.148-.17.223-.414.223-.742 0-.276-.075-.488-.223-.637-.148-.148-.36-.223-.657-.223-.128 0-.35.011-.35.011v1.835zm-.584-2.058h1.177c.403 0 .711.096.923.287.212.19.318.466.318.816 0 .382-.116.68-.36.891-.244.212-.584.308-1.04.308h-1.018V17.25zm10.956 2.069s.233.01.36.01c.287 0 .499-.085.647-.254.149-.17.223-.414.223-.743 0-.276-.074-.488-.223-.636-.148-.149-.37-.223-.657-.223-.127 0-.35.01-.35.01v1.835zm-.583-2.069h1.188c.402 0 .71.096.922.287.212.19.329.466.329.816 0 .393-.127.69-.36.891-.245.212-.595.318-1.04.318h-1.029l-.01-2.312zm-7.043 2.28s-.753-2.184-.784-2.237h.636l.52 1.485.593-1.496h.372l.572 1.464.584-1.464h.34l-.902 2.238h-.33l-.604-1.59-.647 1.6h-.35zm3.182-2.248h.605v2.238H25.7v-2.238zm1.442 2.249h-.328v-2.249h.36l1.549 1.549v-1.549h.329v2.249h-.34l-1.57-1.57v1.57z" fill="#5E5C5C"/></svg>