<svg width="36" height="36" fill="none" xmlns="http://www.w3.org/2000/svg"><path d="M18 0c2.837 0 5.52.656 7.907 1.825C31.884 4.753 36 10.895 36 18c0 9.942-8.058 18-18 18-9.94 0-18-8.057-18-18C0 8.06 8.06 0 18 0z" fill="#F2F4F7"/><path d="m17.464 20.082-1.072-1.232v1.232h-1.587V16h1.587v2.371l.972-1.236h1.912L18.07 18.67l1.532 1.413h-2.138zM26.404 16h-1.587v4.082h1.587V16zm3.863 2.86v.21c0 .194-.177.351-.394.351-.218 0-.395-.157-.395-.352v-.935h.963v-1h-.963V16h-1.545v1.134h-1.001v1h1.001v.726c0 .806.609 1.564 1.856 1.564S32 19.666 32 18.86h-1.733zm-7.54-1.726v1.527c0 .278-.378.618-.844.618-.467 0-.845-.41-.845-.688v-1.457h-1.494v1.93c0 .746.787 1.352 1.758 1.352.587 0 1.106-.223 1.425-.563v.234h1.545v-2.953h-1.545zm-8.556 1.119v1.829h-1.585v-.119a2.368 2.368 0 0 1-1.398.444c-.83 0-1.855-.325-1.855-1.123 0-.626.66-1.134 1.801-1.134.698 0 1.153.045 1.451.135-.006-.255-.143-.344-.586-.395-.423-.049-.592.066-.681.182l-1.858-.017c.006-.463.406-1.05 2.355-1.05 1.965 0 2.356.784 2.356 1.248zm-1.585.947v-.012c-.011-.136-.368-.245-.808-.245-.446 0-.808.113-.808.25 0 .14.362.252.808.252.44 0 .797-.11.807-.245zM10.54 16H8.167l-.91 1.255L6.373 16H4l2.38 2.781v1.3h1.718v-1.3L10.541 16z" fill="#E21530"/></svg>