<svg width="36" height="36" fill="none" xmlns="http://www.w3.org/2000/svg"><path d="M18 0c2.837 0 5.52.656 7.907 1.825C31.884 4.753 36 10.895 36 18c0 9.942-8.058 18-18 18-9.94 0-18-8.057-18-18C0 8.06 8.06 0 18 0z" fill="#F2F4F7"/><path d="M25.888 16.38c.175.106.379.156.584.145.27 0 .475-.058.614-.174a.525.525 0 0 0 .172-.607.425.425 0 0 0-.115-.155c-.1-.083-.278-.15-.534-.209-.256-.058-.403-.1-.446-.13a.104.104 0 0 1-.047-.086.111.111 0 0 1 .054-.094.53.53 0 0 1 .27-.051.416.416 0 0 1 .231.054.277.277 0 0 1 .11.159l.45-.082a.613.613 0 0 0-.25-.349c-.119-.078-.302-.117-.55-.117-.26 0-.451.052-.574.155a.487.487 0 0 0-.186.386.454.454 0 0 0 .215.397c.103.068.347.143.733.225a.44.44 0 0 1 .16.061.127.127 0 0 1 .034.088.145.145 0 0 1-.064.125.488.488 0 0 1-.278.066.436.436 0 0 1-.263-.07.343.343 0 0 1-.124-.207l-.48.07a.675.675 0 0 0 .283.398v.002zm-.617-1.56a.896.896 0 0 0-.524-.137.856.856 0 0 0-.64.241c-.158.163-.237.39-.237.681 0 .291.078.516.235.675a.843.843 0 0 0 .63.242.888.888 0 0 0 .556-.16.802.802 0 0 0 .28-.476l-.469-.075a.456.456 0 0 1-.122.26.325.325 0 0 1-.224.075.355.355 0 0 1-.29-.13c-.076-.085-.109-.233-.109-.442 0-.189.036-.322.106-.402a.363.363 0 0 1 .286-.122.305.305 0 0 1 .326.278l.47-.083a.78.78 0 0 0-.278-.423l.004-.002zm-1.654-.096h-.478v1.764h.478v-1.764zm0-.67h-.478v.43h.478v-.43zm-1.972 1.118a.355.355 0 0 1 .283-.13.369.369 0 0 1 .293.132.614.614 0 0 1 .116.407.571.571 0 0 1-.121.395.377.377 0 0 1-.295.134.352.352 0 0 1-.276-.13c-.075-.086-.11-.225-.11-.41 0-.187.036-.311.11-.398zm-.54 1.486a.482.482 0 0 0 .193.39c.127.102.345.15.652.15.135.004.27-.013.401-.05a.64.64 0 0 0 .254-.138.57.57 0 0 0 .15-.241c.042-.152.06-.31.053-.467V14.72h-.45v.247a.664.664 0 0 0-.551-.286.71.71 0 0 0-.544.234c-.146.155-.219.38-.219.675-.008.21.05.416.167.59a.668.668 0 0 0 .577.3.649.649 0 0 0 .54-.286v.26a.689.689 0 0 1-.022.215.218.218 0 0 1-.095.117.558.558 0 0 1-.28.055.376.376 0 0 1-.215-.049.18.18 0 0 1-.062-.129l-.546-.063v.055l-.002.003zM19.674 15.2a.408.408 0 0 1 .315-.14.402.402 0 0 1 .312.14.569.569 0 0 1 .128.398.58.58 0 0 1-.128.405.405.405 0 0 1-.312.139.41.41 0 0 1-.315-.139.7.7 0 0 1 0-.803zm-.501.892c.078.14.198.253.343.32.147.073.31.111.473.11a.899.899 0 0 0 .932-.925.887.887 0 0 0-.572-.855.914.914 0 0 0-.362-.06 1.014 1.014 0 0 0-.481.113.795.795 0 0 0-.333.332.937.937 0 0 0-.117.45c-.005.18.035.356.117.515zm-.357-2.041h-.478v2.433h.478V14.05zm-1.953 1.15a.424.424 0 0 1 .629 0c.09.111.136.253.127.397a.585.585 0 0 1-.127.405.426.426 0 0 1-.63 0 .696.696 0 0 1 0-.803zm-.5.891a.76.76 0 0 0 .343.32c.147.073.31.111.473.11a.9.9 0 0 0 .93-.925.884.884 0 0 0-.57-.855.911.911 0 0 0-.363-.06 1.02 1.02 0 0 0-.481.113.787.787 0 0 0-.331.332.928.928 0 0 0-.118.45c-.006.18.035.357.117.515zm-.357-1.372h-.478v1.764h.478V14.72zm0-.67h-.478v.43h.478v-.43zm-1.94 1.373c.152-.008.303.004.45.034a.32.32 0 0 1 .158.111.315.315 0 0 1 .054.185.3.3 0 0 1-.07.209.321.321 0 0 1-.182.096c-.115.013-.23.018-.346.015h-.466v-.65h.403zm-.117-.969c.239 0 .382 0 .431.01a.29.29 0 0 1 .19.085.266.266 0 0 1 .063.183.25.25 0 0 1-.075.19.339.339 0 0 1-.203.088 5.144 5.144 0 0 1-.366.007h-.33v-.563h.29zm-.792 2.03h.85c.32 0 .524-.01.606-.018a.722.722 0 0 0 .337-.115.63.63 0 0 0 .216-.251c.052-.1.079-.21.08-.323a.578.578 0 0 0-.123-.366.648.648 0 0 0-.35-.22.584.584 0 0 0 .35-.528.543.543 0 0 0-.075-.285.632.632 0 0 0-.192-.204.658.658 0 0 0-.259-.098 2.676 2.676 0 0 0-.44-.025h-1v2.433zm-1.184-1.764h-.478v1.764h.479V14.72zm0-.67h-.478v.43h.479v-.43zm-2.308 2.434.555-.842.552.842h.607l-.852-1.252.776-1.181h-.583l-.49.782-.5-.782h-.59l.772 1.163-.847 1.27h.6zm-.71 0V14.72h-.476v.744c.01.16-.003.32-.036.475a.379.379 0 0 1-.352.228.3.3 0 0 1-.177-.048.243.243 0 0 1-.096-.133 2.147 2.147 0 0 1-.027-.455v-.81h-.477v1.115a.975.975 0 0 0 .064.394c.044.093.117.17.21.217a.67.67 0 0 0 .326.075.742.742 0 0 0 .339-.08.675.675 0 0 0 .26-.226v.265l.443.003zm-3.814 0 .495-1.82.497 1.82h.533l.606-2.433h-.507l-.382 1.698-.437-1.698h-.6l-.456 1.67-.375-1.67H4l.595 2.433h.545z" fill="#231815"/><path d="m29.55 14-3.806 4.612h2.45L32 14h-2.45z" fill="#FDD000"/><path d="m22.832 17.459-.95 1.153h6.316l.947-1.153h-6.313z" fill="#6FBA2C"/><path d="m22.832 17.459-3.33 4.036h2.223l3.331-4.036h-2.224z" fill="#37BEF0"/><path d="m24.104 18.612.952-1.153h-2.224l-.95 1.153h2.222z" fill="#00A33E"/><path d="M29.145 17.459h-2.449l-.952 1.153h2.45l.655-.792.296-.361z" fill="#92AB23"/><path d="m4.145 21.495 1.285-1.546h17.572l-1.285 1.546H4.145z" fill="#0068B7"/><path d="M4.609 18.172v-.196h.51v.465a.627.627 0 0 1-.216.128.778.778 0 0 1-.286.053.646.646 0 0 1-.32-.075.49.49 0 0 1-.205-.218.714.714 0 0 1-.068-.312.666.666 0 0 1 .075-.325.51.51 0 0 1 .225-.218.605.605 0 0 1 .28-.059c.12-.008.24.024.341.09.083.06.14.15.159.252l-.235.044a.25.25 0 0 0-.094-.136.28.28 0 0 0-.17-.05.317.317 0 0 0-.246.098.412.412 0 0 0-.094.29.466.466 0 0 0 .093.314.313.313 0 0 0 .243.104c.052 0 .103-.01.15-.03a.505.505 0 0 0 .128-.074v-.15l-.27.005zm.661.433V17.43h.224v1.172l-.225.003zm.336-.438c0-.076.02-.15.056-.217a.375.375 0 0 1 .155-.159.467.467 0 0 1 .225-.055.423.423 0 0 1 .315.124.47.47 0 0 1 0 .634.415.415 0 0 1-.313.127.482.482 0 0 1-.225-.052.365.365 0 0 1-.16-.154.508.508 0 0 1-.053-.248zm.234.012a.285.285 0 0 0 .06.194.192.192 0 0 0 .15.066.189.189 0 0 0 .15-.066.285.285 0 0 0 .06-.196.276.276 0 0 0-.06-.19.184.184 0 0 0-.15-.068.188.188 0 0 0-.15.068.282.282 0 0 0-.06.193zm.743.426V17.43h.225v.42a.324.324 0 0 1 .247-.117.333.333 0 0 1 .255.11.47.47 0 0 1 .105.327.495.495 0 0 1-.103.335.324.324 0 0 1-.395.08.328.328 0 0 1-.126-.106v.127l-.208-.001zm.225-.445a.38.38 0 0 0 .04.196.18.18 0 0 0 .156.088.154.154 0 0 0 .127-.064.309.309 0 0 0 .052-.199.333.333 0 0 0-.052-.21.165.165 0 0 0-.135-.063.167.167 0 0 0-.134.061.289.289 0 0 0-.056.191h.002zm.885-.147-.204-.036a.304.304 0 0 1 .118-.182.43.43 0 0 1 .25-.06.553.553 0 0 1 .224.035.23.23 0 0 1 .103.091.455.455 0 0 1 .03.201v.262c-.001.055.002.11.01.166.01.04.023.078.04.114H8.04l-.021-.068a.09.09 0 0 0-.01-.025.36.36 0 0 1-.262.11.3.3 0 0 1-.206-.07.259.259 0 0 1-.041-.309.225.225 0 0 1 .097-.085.702.702 0 0 1 .178-.052c.074-.012.147-.03.218-.055v-.02a.115.115 0 0 0-.032-.093.196.196 0 0 0-.12-.027.155.155 0 0 0-.094.023.173.173 0 0 0-.054.08zm.3.182c-.045.014-.09.025-.136.035a.454.454 0 0 0-.123.038.1.1 0 0 0-.035.124.123.123 0 0 0 .116.071.191.191 0 0 0 .116-.04.14.14 0 0 0 .054-.074.446.446 0 0 0 .008-.11v-.044zm.377.41V17.43h.225v1.172l-.225.003zm.72-.384.23-.022a.287.287 0 0 0 .084.171c.05.038.11.057.172.054a.268.268 0 0 0 .173-.048.145.145 0 0 0 .057-.114.108.108 0 0 0-.024-.07.195.195 0 0 0-.084-.051 2.985 2.985 0 0 0-.19-.051.65.65 0 0 1-.268-.116.309.309 0 0 1 .093-.522.598.598 0 0 1 .231-.04.5.5 0 0 1 .332.096.348.348 0 0 1 .117.257l-.237.011a.207.207 0 0 0-.064-.13.238.238 0 0 0-.15-.038.268.268 0 0 0-.161.042.084.084 0 0 0-.038.075.089.089 0 0 0 .035.071.601.601 0 0 0 .218.075c.088.019.173.048.255.085a.317.317 0 0 1 .128.12c.034.056.05.12.048.186a.341.341 0 0 1-.214.319.662.662 0 0 1-.255.042.502.502 0 0 1-.34-.103.45.45 0 0 1-.148-.299zm1.033-.054c0-.076.019-.15.055-.217a.374.374 0 0 1 .155-.159.467.467 0 0 1 .225-.055.424.424 0 0 1 .316.124.47.47 0 0 1 0 .634.415.415 0 0 1-.312.127.482.482 0 0 1-.225-.052.353.353 0 0 1-.161-.154.517.517 0 0 1-.053-.248zm.23.012a.278.278 0 0 0 .06.193.192.192 0 0 0 .15.066.19.19 0 0 0 .15-.066.286.286 0 0 0 .059-.195.276.276 0 0 0-.06-.19.187.187 0 0 0-.15-.068.187.187 0 0 0-.15.067.275.275 0 0 0-.06.194v-.001zm.756.426V17.43h.225v1.172l-.225.003zm.947 0v-.126a.352.352 0 0 1-.282.145.313.313 0 0 1-.15-.036.226.226 0 0 1-.1-.106.489.489 0 0 1-.028-.187v-.538h.224v.39c-.003.073.001.146.012.218a.12.12 0 0 0 .046.066.15.15 0 0 0 .083.024.179.179 0 0 0 .165-.108.897.897 0 0 0 .018-.229v-.358h.225v.85l-.213-.005zm.763-.851v.179h-.15v.343c-.001.04 0 .08.005.12.002.012.01.022.02.029.01.008.024.012.037.011a.283.283 0 0 0 .09-.022l.02.174a.435.435 0 0 1-.287.014.171.171 0 0 1-.075-.054.212.212 0 0 1-.031-.087.986.986 0 0 1-.008-.158v-.37h-.102v-.179h.1v-.168l.225-.13v.299h.156zm.091-.115v-.21h.225v.207l-.224.003zm0 .966v-.85h.225v.85h-.224zm.337-.438c0-.076.02-.15.056-.217a.375.375 0 0 1 .156-.159.458.458 0 0 1 .225-.055.426.426 0 0 1 .316.124.469.469 0 0 1 0 .634.415.415 0 0 1-.313.127.479.479 0 0 1-.225-.052.358.358 0 0 1-.16-.154.516.516 0 0 1-.055-.248zm.23.012a.282.282 0 0 0 .06.193.191.191 0 0 0 .15.066.188.188 0 0 0 .15-.066.282.282 0 0 0 .06-.195.273.273 0 0 0-.06-.191.185.185 0 0 0-.15-.067.187.187 0 0 0-.15.067.279.279 0 0 0-.06.194v-.001zm1.527.425h-.225v-.435a.645.645 0 0 0-.015-.177.117.117 0 0 0-.047-.063.131.131 0 0 0-.075-.021.179.179 0 0 0-.104.031.156.156 0 0 0-.064.084.828.828 0 0 0-.017.195v.386h-.225v-.85h.21v.125a.337.337 0 0 1 .28-.143.306.306 0 0 1 .134.028c.037.013.07.036.094.067a.25.25 0 0 1 .044.095c.009.05.013.1.011.15l-.001.528zm.553.001V17.43h.38c.094-.005.188.001.28.017a.308.308 0 0 1 .17.114.375.375 0 0 1 .068.229.375.375 0 0 1-.04.182.325.325 0 0 1-.221.168c-.082.014-.164.02-.247.018h-.15v.444l-.24.003zm.237-.975v.331h.13a.587.587 0 0 0 .186-.018.155.155 0 0 0 .1-.15.15.15 0 0 0-.037-.105.168.168 0 0 0-.095-.052 1.191 1.191 0 0 0-.17-.008l-.114.002zm1.003.975h-.225v-.85h.208v.125a.356.356 0 0 1 .097-.113.164.164 0 0 1 .097-.028c.052 0 .104.014.15.042l-.071.198a.178.178 0 0 0-.104-.038.115.115 0 0 0-.08.026.166.166 0 0 0-.051.094 1.294 1.294 0 0 0-.02.284l-.001.26zm.303-.438c0-.076.02-.15.056-.217a.38.38 0 0 1 .156-.159.466.466 0 0 1 .225-.055.427.427 0 0 1 .316.124.469.469 0 0 1 0 .634.417.417 0 0 1-.313.127.487.487 0 0 1-.225-.052.362.362 0 0 1-.16-.154.516.516 0 0 1-.055-.248zm.23.012a.282.282 0 0 0 .06.193.195.195 0 0 0 .15.066.188.188 0 0 0 .15-.066.282.282 0 0 0 .06-.195.273.273 0 0 0-.06-.191.184.184 0 0 0-.15-.067.19.19 0 0 0-.15.067.279.279 0 0 0-.06.194v-.001zm.99.426-.343-.85h.234l.16.433.047.144c.012-.037.018-.06.022-.075l.025-.075.161-.433h.23l-.336.85-.2.006zm.61-.966v-.21h.225v.207l-.225.003zm0 .966v-.85h.225v.85h-.225zm1.168 0h-.21v-.126a.336.336 0 0 1-.122.11.324.324 0 0 1-.393-.082.483.483 0 0 1-.104-.33.468.468 0 0 1 .103-.329.329.329 0 0 1 .255-.11.324.324 0 0 1 .247.117v-.425h.225l-.001 1.175zm-.6-.445a.409.409 0 0 0 .037.198.173.173 0 0 0 .223.069.162.162 0 0 0 .058-.049.3.3 0 0 0 .055-.196.33.33 0 0 0-.053-.21.165.165 0 0 0-.136-.064.167.167 0 0 0-.133.062.288.288 0 0 0-.05.19zm1.246.173.225.038a.369.369 0 0 1-.136.187.404.404 0 0 1-.233.063.382.382 0 0 1-.327-.143.485.485 0 0 1-.085-.293.468.468 0 0 1 .112-.331.364.364 0 0 1 .278-.119.377.377 0 0 1 .3.125c.073.084.108.212.104.383h-.563a.225.225 0 0 0 .055.155.163.163 0 0 0 .13.056.14.14 0 0 0 .088-.028.178.178 0 0 0 .052-.093zm.014-.225a.22.22 0 0 0-.05-.15.163.163 0 0 0-.239 0 .2.2 0 0 0-.047.145l.336.005zm.555.497h-.225v-.85h.207v.125a.356.356 0 0 1 .097-.113.167.167 0 0 1 .097-.028c.053 0 .105.014.15.042l-.07.198a.185.185 0 0 0-.105-.038.116.116 0 0 0-.08.026.167.167 0 0 0-.051.094 1.236 1.236 0 0 0-.02.284v.26z" fill="#231815"/></svg>