<svg width="36" height="36" fill="none" xmlns="http://www.w3.org/2000/svg"><path d="M18 0c2.837 0 5.52.656 7.907 1.825C31.884 4.753 36 10.895 36 18c0 9.942-8.058 18-18 18-9.94 0-18-8.057-18-18C0 8.06 8.06 0 18 0z" fill="#F2F4F7"/><path d="m12.277 19.63-1.833-6.151c3.116-5.764 11.772.04 15.193-5.479L28 14.09c-4.277 5.397-11.324.448-15.703 5.56l-.02-.02z" fill="url(#a)"/><path d="m26.085 21.972.693 1.12c-.978 1.63-3.646 2.404-5.438 2.505-3.93.224-7.882-1.527-10.183 2.75l-.998-1.324c2.566-4.073 7.413-2.281 11.16-2.648a7.74 7.74 0 0 0 4.767-2.403z" fill="#102A18"/><path d="m24.945 20.2.713 1.1s-.285.489-.754.896c-1.16.978-2.546 1.507-4.012 1.63-3.992.244-8.432-1.386-11.059 2.749l-.774-1.181c1.63-2.953 4.95-2.953 5.927-2.953 3.727-.062 6.72 1.262 9.98-2.24h-.021z" fill="#102A18"/><path d="M8 23.703c1.833-2.912 4.379-3.279 6.925-3.177 3.238.143 5.967.49 8.635-1.853l.265-.265.733 1.08c-.04.203-.265.407-.652.774-2.28 2.036-5.295 1.73-8.106 1.446-3.666-.347-5.499.896-7.108 3.32L8 23.702z" fill="#102A18"/><defs><linearGradient id="a" x1="27.898" y1="10.933" x2="10.159" y2="17.511" gradientUnits="userSpaceOnUse"><stop offset=".1" stop-color="#336A40"/><stop offset=".33" stop-color="#77CB97"/><stop offset=".54" stop-color="#33663F"/></linearGradient></defs></svg>