<svg width="36" height="36" fill="none" xmlns="http://www.w3.org/2000/svg"><path d="M18 0c2.837 0 5.52.656 7.907 1.825C31.884 4.753 36 10.895 36 18c0 9.942-8.058 18-18 18-9.94 0-18-8.057-18-18C0 8.06 8.06 0 18 0z" fill="#F2F4F7"/><path d="M19.119 16h-1.545c-.835 0-1.512.603-1.512 1.346V19.2c0 .744.677 1.346 1.512 1.346h1.545c.835 0 1.512-.602 1.512-1.346v-1.19h-2.34v.626c0 .058.047.105.106.105h1.281v.86a.106.106 0 0 1-.105.106H17.12a.106.106 0 0 1-.107-.106v-2.655c0-.06.047-.107.107-.107h2.452c.058 0 .105.048.105.107v.508c0 .058.047.105.105.105h.743a.106.106 0 0 0 .105-.105v-.108c0-.743-.677-1.346-1.512-1.346zm12.775.06h-.669a.106.106 0 0 0-.106.106v3.052c-.348-.396-2.661-3.017-2.72-3.08a.271.271 0 0 0-.2-.077h-.662a.105.105 0 0 0-.105.105v4.216c0 .058.047.105.105.105h.67a.106.106 0 0 0 .105-.105v-3.077c.252.286 2.682 3.04 2.742 3.104a.272.272 0 0 0 .201.078h.64a.106.106 0 0 0 .105-.105v-4.216a.105.105 0 0 0-.106-.105zm-6.997.117a.218.218 0 0 0-.192-.123h-.66c-.084 0-.15.048-.193.123l-2.08 4.099c-.07.132-.01.211.113.211h.66c.095 0 .131-.025.18-.117l1.65-3.297 1.65 3.297c.049.092.085.117.181.117h.66c.122 0 .181-.08.112-.211l-2.08-4.099zm-9.65-.116h-.67a.105.105 0 0 0-.105.105v3.052c-.35-.396-2.662-3.017-2.72-3.08a.273.273 0 0 0-.2-.077h-.663a.105.105 0 0 0-.106.105v4.216c0 .058.048.105.106.105h.67a.106.106 0 0 0 .105-.105v-3.077c.253.286 2.683 3.04 2.743 3.104a.269.269 0 0 0 .2.078h.64a.106.106 0 0 0 .105-.105v-4.216a.106.106 0 0 0-.105-.105zm-7.913 2.192a.106.106 0 0 1-.105.106H4.966V16.84h2.263c.058 0 .105.047.105.106v1.307zm-.503-2.192H4.106a.105.105 0 0 0-.106.105v4.216c0 .058.047.105.106.105h.754a.106.106 0 0 0 .106-.105v-1.244h1.865c.835 0 1.512-.493 1.512-1.237v-.494c0-.744-.677-1.346-1.512-1.346zm3.013 0h-.747a.105.105 0 0 0-.105.105v4.216c0 .058.047.105.105.105h.747a.106.106 0 0 0 .106-.105v-4.216a.106.106 0 0 0-.106-.105z" fill="#F35E17"/><path d="M24.943 19.164h-1.136a.106.106 0 0 0-.106.105v1.112c0 .057.047.105.106.105h1.136a.106.106 0 0 0 .105-.105v-1.112a.106.106 0 0 0-.105-.105z" fill="#0A753D"/></svg>