<svg width="36" height="36" fill="none" xmlns="http://www.w3.org/2000/svg"><path d="M18 0c2.837 0 5.52.656 7.907 1.825C31.884 4.753 36 10.895 36 18c0 9.942-8.058 18-18 18-9.94 0-18-8.057-18-18C0 8.06 8.06 0 18 0z" fill="#F2F4F7"/><path fill-rule="evenodd" clip-rule="evenodd" d="M26.707 28c.714 0 1.293-.57 1.293-1.27V9.286C28 8.572 27.421 8 26.707 8H9.3A1.286 1.286 0 0 0 8 9.286v17.443c0 .7.593 1.271 1.3 1.271h17.414-.007zM21.9 13.121c0-.578-.143-1.12-.371-1.614a4.643 4.643 0 1 1-3.243-2.035 3.593 3.593 0 0 0-3.472 3.65 3.6 3.6 0 0 0 3.543 3.664A3.599 3.599 0 0 0 21.9 13.12zm-9.95 12.736v-2.071s0-.129.079-.043c.114.107.878 1.286.878 1.286l.943-1.315h.179s.035.015.035.108v2.035h-.343s-.085 0-.085-.128v-1.057l-.757 1.1-.736-1.122v1.214h-.193v-.007zm2.671 0v-2.143h1.236V24h-.643c-.071 0-.107.086-.107.086v.507c0 .093.05.114.05.114h.457v.215H15.2c-.064 0-.1.078-.1.078v.5c0 .157.079.157.079.157h.678v.2h-1.236zm1.579-2.143v2.143h.2v-1.143l1.25 1.143s.064.022.064-.107v-1.928s0-.108-.071-.108h-.157v1.143l-1.179-1.143H16.2zm3.564 2.143v-2.143h.1l1.186 1.143v-1.143h.157c.072 0 .072.115.072.115v1.921c0 .129-.072.107-.072.107l-1.243-1.143v1.143h-.2zm-.335-1.928s-.1-.236-.629-.215c-.521.022-.693.15-.736.479-.05.328 0 1.243 0 1.243s.015.421.279.421h.921s.257-.043.257-.457c.022-.114 0-.714 0-.714h-.685v.236h.171v.478c0 .25-.121.25-.2.25-.086 0-.221 0-.221-.236V24.13c0-.072.085-.115.2-.115h.328c.093 0 .165.043.165.143h.15v-.228zm2.271-.215h.429v2.143H21.7v-2.143zm.893 0H23v1.643s-.007.229.214.229c.157 0 .215-.072.215-.222v-1.571s.042-.079.064-.079h.328v1.715c0 .171-.071.407-.328.407h-.607s-.336-.036-.336-.379v-1.664l.043-.079zM14.07 19.83c-1.507.321-2.678.242-2.678.242-1.129.858-1.464 1.593-1.522 2.465-.042.886 1.108.957 2.286.478a18.343 18.343 0 0 1 3.786-1.092c1.178-.186 2.671-.315 5.907.542 3.243.858 4.9 1.965 4.9 1.965s.15-.279-.1-.679c-.264-.407-.929-1.214-2.986-2.521-2.05-1.3-3.264-1.707-4.871-1.786-1.614-.072-3.214.05-4.714.386h-.008z" fill="#149B52"/></svg>