<svg width="36" height="36" fill="none" xmlns="http://www.w3.org/2000/svg"><path d="M18 0c2.837 0 5.52.656 7.907 1.825C31.884 4.753 36 10.895 36 18c0 9.942-8.058 18-18 18-9.94 0-18-8.057-18-18C0 8.06 8.06 0 18 0z" fill="#F2F4F7"/><path d="M9.544 22.314h-.025c-.53 0-.807.081-.807.642h.467c0-.169.074-.264.178-.27.07-.004.345-.017.498.029.142.042.141.172.141.284 0 .059.003.118.01.177H9.3c-.428 0-.665.135-.665.643 0 .273.064.414.192.513a.735.735 0 0 0 .442.15c.203.005.376.018.5-.032a.588.588 0 0 0 .226-.192l.087.192h.422v-1.322c0-.709-.282-.814-.959-.814zm.454 1.516c0 .235-.334.213-.578.213-.254 0-.337-.065-.337-.252 0-.215.155-.21.332-.21h.594l-.011.249zm13.489-1.516h-.024c-.53 0-.808.081-.808.642h.467c0-.169.075-.264.178-.27.07-.004.345-.017.498.029.142.042.142.172.142.284-.002.059.002.118.01.177h-.707c-.428 0-.666.135-.666.643 0 .273.065.414.193.513a.736.736 0 0 0 .442.15c.203.005.376.018.5-.032a.589.589 0 0 0 .226-.192l.087.192h.42v-1.322c0-.709-.281-.814-.958-.814zm.453 1.516c0 .235-.334.213-.578.213-.253 0-.336-.065-.336-.252 0-.215.154-.21.332-.21h.593l-.011.249zm4.148-1.492v2.115h.507v-1.164c0-.379.06-.588.504-.588.326 0 .395.105.395.412v1.34H30v-1.396c0-.516-.169-.745-.725-.745-.28 0-.493.017-.68.288v-.263l-.507.001zm-.473 2.115h-.507v-2.114h.508v2.114zm0-2.59h-.507v-.433h.508v.433zm-.93 1.05c0-.342-.165-.49-.385-.553-.16-.048-.35-.048-.525-.048-.543 0-.962.013-.962.592 0 .54.14.645.918.657.512.008.524.1.524.286 0 .289-.177.282-.482.282-.374 0-.447-.036-.454-.342h-.507c0 .688.385.688.963.688.536 0 .987-.056.987-.628 0-.685-.443-.648-.943-.674-.443-.02-.5-.028-.5-.237 0-.278.186-.278.455-.278.27 0 .403 0 .403.253l.508.002zm-6.248 1.045h.737c.346 0 .511-.024.511-.395 0-.33-.073-.426-.415-.426h-.833v.821zm0-1.26h.777c.327 0 .399-.101.399-.424 0-.322-.129-.346-.415-.346h-.761v.77zm-.578 1.756v-3.022h1.444c.592 0 .89.12.89.786 0 .346-.064.577-.433.668v.016c.423.048.503.326.503.71 0 .668-.274.841-.91.841h-1.494zm-2.082-.806c0 .37-.04.443-.455.443-.447 0-.44-.165-.44-.693 0-.543.005-.697.44-.697.354 0 .455.057.455.379h.508c0-.669-.335-.765-.963-.765-.83 0-.946.342-.946 1.083 0 .854.168 1.08.946 1.08.713 0 .963-.138.963-.83h-.508zm-1.81.805h-.508v-2.114h.508v2.114zm0-2.59h-.508v-.433h.508v.433zm-.754.475h-.516v-.129c0-.261 0-.402.347-.39h.153v-.386h-.33c-.556 0-.677.214-.677.722v.186h-.298v.385h.298v1.727h.507v-1.728h.516v-.387zm-2.96 1.31c0 .37-.04.442-.455.442-.447 0-.44-.165-.44-.692 0-.544.005-.697.44-.697.354 0 .455.056.455.378h.508c0-.668-.335-.765-.963-.765-.83 0-.946.343-.946 1.084 0 .854.17 1.079.946 1.079.713 0 .963-.137.963-.83h-.508zm1.361.805h-.505v-2.114h.505v2.114zm0-2.59h-.505v-.433h.505v.433zm-6.34 1.116c.416-.008.534-.085.534-.508 0-.422-.096-.548-.533-.543H6.58v1.05h.695zM6 21.432h1.337c.81 0 1.05.193 1.05 1.04 0 .853-.26 1.002-1.05 1.002H6.58v.979H6v-3.02z" fill="#231F20"/><path d="M19.963 16.432c.046.09.07.19.072.293 0 .4-.333.525-.648.525h-2.775v2.065h2.962c1.155 0 2.583-.805 2.583-2.614 0-.606-.135-1.041-.473-1.444-.49.822-1.183 1.08-1.721 1.175zm-5.756 2.883V11h5.086c1.155 0 2.506.648 2.506 2.57 0 1.922-1.367 2.602-2.506 2.602h-2.678v-2.018h2.61a.52.52 0 0 0 .514-.555c0-.4-.288-.535-.49-.535h-2.977v6.25h-2.065z" fill="#005DA9"/></svg>