<svg width="36" height="36" fill="none" xmlns="http://www.w3.org/2000/svg"><path d="M18 0c2.837 0 5.52.656 7.907 1.825C31.884 4.753 36 10.895 36 18c0 9.942-8.058 18-18 18-9.94 0-18-8.057-18-18C0 8.06 8.06 0 18 0z" fill="#F2F4F7"/><path d="m15.25 18.297-.363 2.532h-1.023a17.64 17.64 0 0 1-.248-1.328c-.033.215-.107.66-.23 1.328H12.37L12 18.297h.792l.09.883.083.857c.033-.445.107-1.022.223-1.74h.85c.007.074.04.355.09.833l.09.965c.05-.61.124-1.212.223-1.798h.808zm1.839.453v2.079h-.8l.016-.173a.592.592 0 0 1-.198.156.725.725 0 0 1-.272.05.8.8 0 0 1-.297-.05.405.405 0 0 1-.173-.132.497.497 0 0 1-.066-.173 2.9 2.9 0 0 1-.016-.355V18.75h.783v1.42c0 .164.008.254.016.287.009.034.042.05.1.05.057 0 .09-.017.098-.05.009-.033.017-.131.017-.305V18.75h.792zm1.864-.453-.29 1.122.438 1.41h-.759a6.991 6.991 0 0 1-.247-.924c-.025.165-.05.33-.091.512l-.074.412h-.8l.305-1.41-.297-1.122h.792c.016.066.041.182.082.346.033.124.058.24.083.347l.173-.693h.684z" fill="#2088CE"/><path d="M19.91 18.75v2.08h-.81v-2.08h.808zm0-.453v.33h-.81v-.33h.808zm1.962 1.625a24.733 24.733 0 0 1-.123-1.064c-.083.487-.132.841-.157 1.064h.28zm.429-1.625.47 2.532h-.833l-.041-.454H21.6l-.041.454H20.7l.412-2.532H22.3zm1.518 1.056a.993.993 0 0 0-.017-.231c-.008-.025-.041-.041-.099-.041-.05 0-.082.016-.099.049a.636.636 0 0 0-.025.231v.866c0 .124.009.206.025.24.017.032.05.049.1.049.049 0 .082-.017.09-.042a.882.882 0 0 0 .016-.206v-.915h.009zm-.223-.602-.017.181a.627.627 0 0 1 .231-.165.725.725 0 0 1 .273-.058c.123 0 .222.025.313.083.09.05.14.115.165.181.024.066.033.19.033.355v.874c0 .19-.017.322-.041.404-.025.083-.083.14-.174.19a.609.609 0 0 1-.313.074.597.597 0 0 1-.272-.058.601.601 0 0 1-.223-.164v.478h-.783v-2.375h.808zm2.185.602a.982.982 0 0 0-.016-.231c-.008-.025-.041-.041-.099-.041-.05 0-.082.016-.099.049a.636.636 0 0 0-.025.231v.866a.69.69 0 0 0 .025.24c.017.032.05.049.099.049.05 0 .082-.017.09-.042a.891.891 0 0 0 .017-.206v-.915h.008zm-.214-.602-.017.181a.627.627 0 0 1 .231-.165.725.725 0 0 1 .273-.058c.123 0 .222.025.313.083.09.05.14.115.165.181.025.066.033.19.033.355v.874a1.5 1.5 0 0 1-.041.404c-.025.083-.083.14-.174.19a.608.608 0 0 1-.313.074.599.599 0 0 1-.272-.058.602.602 0 0 1-.223-.164v.478h-.783v-2.375h.808zm2.837-.454v.511h-.486v2.021H27.1V18.8h-.487v-.511h1.79v.008z" fill="#2088CE"/><path d="M29.295 19.493v-.157a.537.537 0 0 0-.025-.206c-.016-.033-.041-.05-.082-.05-.05 0-.083.017-.1.042-.016.024-.016.099-.016.214v.149h.223v.008zm.783.338h-1.014v.453c0 .091.008.157.025.182.016.025.05.041.099.041.057 0 .099-.016.115-.058a.52.52 0 0 0 .033-.206v-.272h.742v.157a.92.92 0 0 1-.032.297.576.576 0 0 1-.14.222.65.65 0 0 1-.281.174 1.282 1.282 0 0 1-.43.057c-.164 0-.313-.016-.436-.057a.838.838 0 0 1-.297-.157.558.558 0 0 1-.148-.223 1.255 1.255 0 0 1-.042-.354v-.602a.91.91 0 0 1 .09-.43c.059-.107.158-.18.298-.239a1.24 1.24 0 0 1 .478-.082c.223 0 .404.033.545.099.14.066.239.157.297.264.057.107.082.264.082.47v.264h.016zm1.897-.297h-.742v-.24a.422.422 0 0 0-.025-.172c-.016-.034-.05-.042-.09-.042-.042 0-.074.017-.091.042-.017.024-.025.082-.025.173v.981c0 .074.008.132.033.165a.108.108 0 0 0 .1.058c.049 0 .09-.017.106-.058a.688.688 0 0 0 .025-.223v-.247h.701c0 .165-.008.289-.025.371a.585.585 0 0 1-.132.256.648.648 0 0 1-.288.198 1.32 1.32 0 0 1-.437.066 1.32 1.32 0 0 1-.528-.091.52.52 0 0 1-.272-.256c-.058-.107-.083-.264-.083-.47v-.594a.96.96 0 0 1 .066-.396c.041-.09.14-.173.28-.239a1.14 1.14 0 0 1 .528-.107c.207 0 .38.033.528.107.149.066.24.157.289.264.058.108.082.264.082.454z" fill="#2088CE"/><path d="m4.478 14.223 3.967.033s1.65.123 1.641 1.864c-.008 1.74-.94 2.012-2.103 2.185-1.278.066-1.624-.074-2.44.165A10.38 10.38 0 0 0 4 19.246v-1.32s1.633-.742 3.068-.676c1.468.23 2.037-.57 1.732-1.386-.495-.981-1.749-.38-1.84.355-.049.297.009.684.009.684s-.586.017-.808.042c-.223.024-.71.115-.75.156-.017-.528 0-1.765 0-1.765h-.916l-.017-1.113z" fill="#1BA2E4"/><path d="M4.553 19.22s.981-.7 3.018-.618c1.938.091 2.656-.833 2.771-1.946 0 0-.024-.066-.008-.685.008-.057.322 1.188.478 1.328-.074.652-.668 1.468-1.608 1.74-.907.231-1.526.182-2.251.149.016.058 0 1.476 0 1.476H5.386v-1.187s-.776.305-.833.42c-.058.116 0-.676 0-.676zm8.849-2.903c.099 0 .181.033.248.091.066.066.107.14.107.223 0 .041-.017.074-.042.09-.024.025-.066.034-.115.034a.168.168 0 0 1-.124-.05.433.433 0 0 0-.165-.09.21.21 0 0 1-.09-.083.196.196 0 0 1-.05-.116c0-.033.025-.057.066-.074.058-.008.107-.025.165-.025zm.231-2.136a.131.131 0 0 1-.025.066c-.19.256-.297.437-.313.544-.017.108-.058.157-.107.157-.058 0-.116-.05-.174-.14a.427.427 0 0 1-.082-.256c0-.024.008-.057.016-.098.009-.042.025-.058.033-.058.009 0 .025.008.033.024.009.017.033.025.075.025.033 0 .107-.033.222-.09a4.67 4.67 0 0 0 .28-.174c.009-.008.017-.008.034-.008 0-.017.008-.008.008.008zm.206 1.584c.058-.008.116-.017.165-.017a.52.52 0 0 1 .322.107c.099.066.14.149.14.248 0 .025 0 .058-.008.09a1.72 1.72 0 0 0-.05.38c0 .24-.041.437-.115.577a.672.672 0 0 1-.289.297.661.661 0 0 1-.24.083c-.04 0-.073-.025-.09-.075a.476.476 0 0 0-.09-.148c-.042-.058-.091-.107-.149-.165a.916.916 0 0 1-.165-.214.703.703 0 0 1-.09-.215c.115.149.23.256.362.322.132.066.223.099.289.099a.192.192 0 0 0 .148-.066.795.795 0 0 0 .1-.264c.032-.132.049-.28.049-.437 0-.157-.017-.256-.05-.289-.033-.033-.066-.058-.107-.058-.025 0-.066.017-.14.042-.074.033-.173.074-.314.14a.376.376 0 0 1-.107.033c-.024 0-.04-.025-.058-.066-.008-.05-.016-.09-.016-.124 0-.074.025-.115.083-.132.057-.016.09-.05.115-.107a.369.369 0 0 0 .033-.14.196.196 0 0 0-.041-.116c-.025-.04-.05-.057-.074-.057-.174.131-.33.255-.479.37.058.017.09.067.09.124a.304.304 0 0 1-.04.132c-.083.132-.149.24-.198.322.05.017.082.05.115.099.116-.173.248-.445.38-.816.008-.034.016-.042.032-.042.009 0 .017.008.017.033 0 .066-.041.206-.123.43a5.883 5.883 0 0 1-.29.667c-.106.231-.19.371-.23.42-.042.059-.074.083-.108.083-.024 0-.049-.024-.074-.082a.477.477 0 0 1-.033-.149c0-.066.017-.123.05-.156a.379.379 0 0 0 .132-.289c0-.017-.008-.033-.025-.033-.016 0-.05.025-.107.066-.058.041-.09.066-.116.066-.033 0-.05-.05-.05-.148 0-.1.034-.157.092-.182a.32.32 0 0 0 .156-.157c.041-.082.066-.123.066-.14 0-.016 0-.025-.008-.025-.025 0-.083.033-.19.108-.066.04-.115.066-.156.066-.042 0-.058-.042-.058-.124 0-.083.025-.157.058-.215a.223.223 0 0 1 .14-.098c.058 0 .115-.034.173-.083.099-.074.248-.19.462-.346.214-.157.355-.256.429-.306a.462.462 0 0 0-.19.05 4.023 4.023 0 0 0-.454.264c-.23.14-.362.23-.404.272a.27.27 0 0 1-.173.05.458.458 0 0 1-.247-.091c-.091-.066-.132-.107-.132-.14 0-.017.008-.025.024-.042a15.354 15.354 0 0 1 1.122-.445.576.576 0 0 0 .198-.107 2.41 2.41 0 0 0 .256-.256c.107-.124.173-.198.19-.23a.255.255 0 0 0 .024-.108c0-.066-.024-.116-.074-.132-.017-.008-.033-.017-.033-.025s.008-.008.033-.008c.09 0 .173.041.24.115a.36.36 0 0 1 .098.24.181.181 0 0 1-.066.148 1.61 1.61 0 0 0-.206.198 1.26 1.26 0 0 1 .28-.05c.058 0 .116.034.157.083.041.058.066.107.066.148 0 .042-.025.066-.074.075a1.862 1.862 0 0 0-.561.247c.14.083.206.19.206.322a.196.196 0 0 1 0 .099zm5.996 1.113c.017-.222.025-.445.033-.66v-.288a8.5 8.5 0 0 1 .033-.907c.017-.215.025-.33.025-.338 0-.058-.017-.083-.041-.083-.009 0-.025 0-.033.009a.625.625 0 0 1-.29.107c-.04 0-.106-.009-.197-.025.058.058.09.099.09.124 0 .024-.008.05-.024.074a.556.556 0 0 0-.05.173.288.288 0 0 1 .182-.066c.066 0 .132.025.181.074.05.05.083.1.083.165a.3.3 0 0 1-.05.165c-.099.157-.156.248-.156.272 0 .017.008.033.033.042a.311.311 0 0 1 .132.14.427.427 0 0 1 .057.173c0 .05-.008.09-.024.124a.71.71 0 0 1-.182.132 2.055 2.055 0 0 1-.33.165c.206.272.388.42.528.428zm-.602-.527a.465.465 0 0 0 .19-.206.63.63 0 0 0 .082-.174c0-.024 0-.033-.008-.033a.323.323 0 0 1-.107-.123.404.404 0 0 1-.042-.157c0-.05.025-.09.067-.132.016-.008.032-.058.066-.124a.559.559 0 0 0 .049-.132c0-.016-.008-.024-.017-.024-.024 0-.082.032-.165.107-.016.107-.032.198-.032.264s-.009.173-.009.313a2.38 2.38 0 0 1-.074.42zm-1.229-.289c.041-.107.107-.247.198-.404.008-.017.008-.025.008-.041 0-.009-.016-.017-.057-.017-.042 0-.083 0-.116-.008a1.182 1.182 0 0 0-.058.289c0 .09.009.148.025.181zm1.287-1.427a.908.908 0 0 1 .239-.148c.148-.058.23-.1.256-.132.024-.033.049-.041.09-.041.074 0 .149.04.24.115.09.074.131.157.131.24a.254.254 0 0 1-.016.082c-.05.09-.083.239-.116.445a5.37 5.37 0 0 0-.04.635c0 .223.007.429.024.619.016.198.025.33.025.404 0 .074-.017.173-.042.305-.024.124-.066.19-.115.19-.025 0-.05-.017-.074-.05-.025-.033-.116-.115-.256-.256a2.222 2.222 0 0 1-.437-.577c-.09.206-.181.38-.264.512-.082.131-.148.206-.206.206-.058 0-.083-.017-.083-.058 0-.025.017-.041.042-.041.04-.009.09-.107.165-.289a4.28 4.28 0 0 0 .181-.684.566.566 0 0 1-.033-.14c0-.025 0-.034.008-.034.009 0 .025.025.041.075a.805.805 0 0 0 .042-.215c.008-.107.008-.181.008-.23-.041.024-.074.082-.09.172-.009.025-.017.042-.026.042-.008 0-.016-.033-.016-.091 0-.058.008-.116.033-.165.025-.05.058-.107.107-.173.017-.09.042-.24.091-.454.008-.025.008-.05.008-.074 0-.033-.016-.066-.05-.107-.032-.042-.057-.058-.065-.058h-.017a1.738 1.738 0 0 0-.198.404c-.024.09-.05.198-.066.305-.016.108-.033.206-.04.305a1.96 1.96 0 0 1-.083.462c-.042.1-.066.182-.091.248-.017.066-.05.107-.082.107-.034 0-.075-.025-.116-.074a.573.573 0 0 1-.107-.165c-.033.066-.066.107-.083.132-.016.024-.04.033-.066.041a.254.254 0 0 0-.082.041c-.025.025-.05.033-.066.033-.008 0-.033-.025-.058-.057a1.215 1.215 0 0 0-.115-.149.348.348 0 0 1-.091-.157c-.008-.05-.008-.123-.008-.214 0-.256.008-.462.024-.619 0-.025 0-.058.009-.09 0-.033 0-.05-.009-.058a.202.202 0 0 1-.05-.132c0-.017.017-.033.042-.033.1 0 .182.033.24.099a.442.442 0 0 1 .123.255.304.304 0 0 1 .149-.032.23.23 0 0 1 .148.049.176.176 0 0 1 .066.14.59.59 0 0 1-.066.223.68.68 0 0 1-.173.23.955.955 0 0 0-.165.207c.025.008.09-.033.19-.107.098-.083.156-.132.165-.165.016-.025.032-.14.057-.346a4.78 4.78 0 0 0 .041-.421.748.748 0 0 0-.016-.173c-.008-.033-.025-.058-.041-.058-.017 0-.041.008-.074.033a.165.165 0 0 1-.075.017l-.132-.017a.29.29 0 0 0-.181.066c-.017.008-.025.016-.033.016s-.017-.008-.017-.024a.55.55 0 0 1 .074-.19.432.432 0 0 1 .108-.09.622.622 0 0 1 .115-.067.298.298 0 0 1 .091-.016c.09 0 .19.033.289.09.099.058.181.14.239.248a1.34 1.34 0 0 0 .14-.289c.025-.057.058-.09.1-.09.007 0 .024 0 .032.008.058.016.116.041.157.05zm6.095 1.163c.058-.115.107-.23.14-.33a.804.804 0 0 0 .05-.198.139.139 0 0 0-.025-.082.075.075 0 0 0-.066-.033.485.485 0 0 0-.24.09c-.008.058-.008.108-.008.14.017-.008.025-.008.042-.008.04 0 .082.025.107.075.033.05.049.09.049.115 0 .05-.066.1-.198.149.008.074.033.115.058.115.016 0 .05-.008.09-.033zm-.718 1.254c.116.05.19.074.215.074.024 0 .05-.008.05-.025a1.813 1.813 0 0 0 0-.305c-.1.099-.19.181-.265.256zm-.569-2.161c.09 0 .173-.017.247-.05.166-.082.396-.173.685-.28.033-.008.041-.025.041-.041 0-.017-.033-.025-.107-.025s-.206.016-.404.05a1.905 1.905 0 0 0-.462.123c-.115.05-.173.1-.173.149 0 .049.058.074.173.074zm1.072 1.592c.149-.083.231-.14.273-.174a.195.195 0 0 0 .065-.082.128.128 0 0 1 .066-.066.289.289 0 0 1 .108-.025c.032 0 .074.017.115.05.041.033.066.09.066.173 0 .05-.017.082-.05.099a.378.378 0 0 0-.131.115c-.05.066-.083.116-.083.157 0 .041.041.066.132.082.09.017.165.058.215.133a.346.346 0 0 1 .082.23c0 .083-.017.124-.05.124-.008 0-.016 0-.032-.008a.807.807 0 0 0-.182-.074 1.212 1.212 0 0 0-.206-.05c-.149-.025-.223-.058-.223-.09 0-.025.017-.034.058-.025h.058c.024 0 .05-.009.09-.017-.123-.115-.181-.214-.181-.305 0-.09.033-.181.099-.28-.09.04-.19.107-.305.19.008.197.016.37.016.519 0 .14-.008.264-.033.355-.016.09-.041.131-.066.131-.024 0-.057-.024-.099-.082a2.193 2.193 0 0 0-.404-.42c-.123.173-.206.263-.247.255-.025 0-.05-.033-.083-.107a.444.444 0 0 1-.041-.231c0-.082.033-.132.099-.157.066-.025.099-.066.099-.132 0-.041-.025-.066-.074-.066h-.083a.128.128 0 0 1-.082-.033c-.025-.016-.042-.05-.042-.09 0-.042.017-.075.058-.108.033-.033.083-.05.149-.05.09 0 .165.034.214.108.058.074.074.165.066.28a8.38 8.38 0 0 1 .33-.198v-.379c-.132.075-.24.116-.305.116a.706.706 0 0 1-.19-.033c-.058-.025-.082-.05-.082-.083s.04-.066.123-.09a6.1 6.1 0 0 0 .454-.149c.008-.05 0-.09 0-.14a.603.603 0 0 1-.206.09.226.226 0 0 1-.116-.032c-.05-.025-.074-.042-.082-.058-.008-.008-.016-.025-.016-.05 0-.016.008-.041.016-.057a.21.21 0 0 1 .05-.042c.14-.057.255-.123.346-.19a.23.23 0 0 0 0-.106 1.725 1.725 0 0 1-.248.148.561.561 0 0 1-.255.066c-.066 0-.14.058-.207.181-.016.025-.024.033-.024.033-.009 0-.009 0-.009-.008 0-.025.033-.082.083-.173.058-.09.14-.182.256-.28.115-.1.247-.174.396-.232a.256.256 0 0 0 .04-.107c0-.024-.016-.04-.04-.04-.017 0-.025 0-.034.007-.008.008-.024.008-.033.008-.008 0-.024-.016-.04-.049l-.133.058a.412.412 0 0 0-.14.115 2.63 2.63 0 0 0-.148.223c-.05.09-.108.181-.157.289-.05.107-.116.264-.198.486-.083.215-.173.462-.289.718-.115.264-.19.42-.222.478-.033.058-.058.082-.066.082s-.025-.024-.042-.066a.33.33 0 0 1-.024-.123c0-.041.016-.083.041-.124a4.29 4.29 0 0 0 .313-.668c.24-.627.413-1.056.528-1.27a.853.853 0 0 1-.181.033.28.28 0 0 1-.223-.09.323.323 0 0 1-.074-.215c0-.033.008-.058.016-.083a.247.247 0 0 1 .066-.066c.033-.016.14-.074.347-.173l.486-.23c.041-.017.058-.042.058-.075a.107.107 0 0 0-.033-.082.192.192 0 0 1-.058-.14c0-.025.017-.042.05-.042s.107.017.206.041c.107.025.181.066.223.124a.651.651 0 0 1 .099.24c.016-.009.033-.009.066-.009s.074.008.132.033a.177.177 0 0 1 .115.099c.017.05.033.082.033.107 0 .025-.017.041-.05.041a.67.67 0 0 0-.18.05c-.091.033-.166.058-.24.09a.298.298 0 0 1 .107.198.887.887 0 0 1 .305-.082.29.29 0 0 1 .19.074c.066.05.107.091.14.124.033.033.05.083.05.148 0 .108-.017.165-.058.174-.025.008-.058.04-.09.107-.034.066-.108.223-.215.462-.008.024-.041.05-.1.074a.278.278 0 0 1-.123.033h-.057c-.009 0-.025 0-.042-.008a.152.152 0 0 0-.058.016c0 .116-.008.223-.008.347zm5.922-.801c.025-.041.058-.09.09-.173.034-.074.058-.124.058-.132 0-.016-.016-.025-.05-.025a.658.658 0 0 0-.172.033.557.557 0 0 1-.075.289.24.24 0 0 0 .075.008h.074zm-.289-.222c-.041.024-.09.04-.14.057a.864.864 0 0 1-.058.297l.124-.066a.488.488 0 0 0 .074-.288zm-.321.387c-.025-.074-.034-.173-.025-.297-.066-.008-.116.009-.14.058 0 .09.008.173.024.272a.27.27 0 0 0 .14-.033zm-.198.652c.065.016.123.05.165.09.04.042.066.091.066.133a.55.55 0 0 0 .057.23c.033.058.124.1.264.132.14.033.24.05.314.05.066 0 .099-.017.099-.05 0-.008 0-.016-.009-.024a1.934 1.934 0 0 1-.115-.28c-.05.024-.1.082-.14.18-.017.034-.033.042-.067.042-.024 0-.049-.008-.057-.025a.246.246 0 0 0-.083-.115.202.202 0 0 1-.074-.091.217.217 0 0 1-.024-.09c0-.009.008-.026.016-.042.008-.017.016-.033.025-.058.008-.024.008-.058.008-.099v-.14c-.165.05-.313.1-.445.157zm.313-1.353c-.107-.066-.181-.099-.214-.099a.087.087 0 0 0-.075.041c-.016.025-.024.042-.033.042-.008 0-.016-.017-.016-.05a2.672 2.672 0 0 0-.24.371.428.428 0 0 1 .207.091.503.503 0 0 1 .123-.14 2.57 2.57 0 0 1 .248-.14.274.274 0 0 0 0-.116zm.478 1.41c.1-.016.19-.04.264-.074a.519.519 0 0 0 .149-.09c.024-.042.074-.058.148-.058a.32.32 0 0 1 .264.14c.066.099.099.173.099.231 0 .025-.033.05-.099.074a.518.518 0 0 1-.173.041c-.09 0-.19-.057-.297-.165.107-.033.157-.074.148-.123a.882.882 0 0 1-.222.107.614.614 0 0 0-.149.066c.116.09.215.181.289.272a.53.53 0 0 0 .124.116c.04.024.066.05.082.074a.366.366 0 0 1 .017.107c0 .025-.009.041-.033.058-.025.016-.066.024-.132.04a1.71 1.71 0 0 1-.215.018c-.074 0-.173-.009-.288-.025a1.124 1.124 0 0 1-.347-.107.991.991 0 0 1-.23-.133.48.48 0 0 1-.108-.173.844.844 0 0 1-.058-.272c-.008-.074-.024-.115-.058-.123-.024.057-.049.115-.057.173-.017.058-.025.09-.017.107v.058c0 .033-.008.107-.024.214-.017.107-.05.165-.1.165-.024 0-.049-.041-.082-.124a.539.539 0 0 1-.05-.165c0-.057.05-.206.157-.428a.371.371 0 0 1-.156-.05c-.066-.033-.1-.066-.091-.099 0-.041.016-.066.041-.066s.058.008.1.033c.271-.099.56-.19.857-.272.115-.033.198-.066.24-.107.007-.025 0-.042-.025-.058-.1-.008-.232.016-.388.066-.157.05-.264.099-.322.157a.063.063 0 0 1-.041.016c-.041 0-.09-.058-.124-.165a.575.575 0 0 1-.05-.247v-.058a.132.132 0 0 0-.024-.074.76.76 0 0 0-.124-.132.252.252 0 0 1-.082.107c-.075.05-.174.149-.289.313.05.066.074.116.074.14 0 .025-.008.05-.008.075a1.6 1.6 0 0 0-.058.272v.157c.041-.091.083-.223.132-.404-.025.198-.041.412-.066.668a5.909 5.909 0 0 0-.033.445v.107c0 .041-.008.058-.024.058-.025 0-.075-.05-.132-.14a.478.478 0 0 1-.091-.289c0-.025 0-.05.008-.074.033-.132.05-.413.05-.833a2.55 2.55 0 0 1-.264.264c-.124.115-.206.181-.24.181-.016 0-.024-.016-.04-.05a.412.412 0 0 1-.017-.098c0-.033.016-.083.04-.14a.293.293 0 0 1 .108-.149v.083a.741.741 0 0 0 .24-.305c0-.017-.009-.025-.017-.025-.017 0-.058.033-.107.09.033-.123.107-.197.23-.206.058-.082.116-.181.182-.28a.821.821 0 0 0 .099-.182c0-.016.008-.033.008-.049a.045.045 0 0 0-.024-.041c-.124.041-.207.09-.256.165-.008.016-.025.024-.033.024-.025 0-.041-.033-.058-.09a.703.703 0 0 1-.025-.19c0-.066.017-.099.058-.099.025 0 .09-.05.19-.14.099-.1.157-.165.165-.215.008-.024.016-.04.041-.04s.074.032.14.09a.538.538 0 0 1 .182.313c0 .033-.017.058-.058.074a.484.484 0 0 1-.198.05c.09.058.148.148.173.289.083-.165.174-.322.272-.462 0-.033.009-.058.033-.075a.323.323 0 0 1 .124-.033c.14-.008.223-.032.256-.066a.911.911 0 0 0 .05-.222c0-.041-.009-.066-.034-.074-.025-.009-.041-.025-.066-.05a.138.138 0 0 1-.033-.09c0-.034.008-.058.025-.075.017-.024.05-.033.107-.033.05 0 .09.008.116.008.024.009.057.042.082.091.033.05.074.14.132.28a.423.423 0 0 1 .09-.016.21.21 0 0 1 .092.025.43.43 0 0 1 .115.082.35.35 0 0 1 .082.083.118.118 0 0 1 .017.057c0 .025-.008.042-.017.05-.008.008-.09.041-.239.09-.148.05-.272.083-.354.1a.255.255 0 0 0-.042.156c.14-.016.265-.05.38-.099a.154.154 0 0 1 .066-.016c.058 0 .14.041.247.115.107.075.165.14.165.19 0 .05-.025.09-.066.116a.431.431 0 0 0-.115.099c-.149.19-.231.288-.256.296-.025.009-.041.025-.041.05.082.033.14.066.173.099.033.033.05.058.05.082 0 .017-.017.033-.058.042a1.892 1.892 0 0 0-.536.132.37.37 0 0 1 .288.197z" fill="#2088CE"/><path d="M11.95 17.843h20.025v.124H11.95v-.124z" fill="#6B737A"/></svg>