<svg width="36" height="36" fill="none" xmlns="http://www.w3.org/2000/svg"><path d="M18 0c2.837 0 5.52.656 7.907 1.825C31.884 4.753 36 10.895 36 18c0 9.942-8.058 18-18 18-9.94 0-18-8.057-18-18C0 8.06 8.06 0 18 0z" fill="#F2F4F7"/><path d="M28 18a10 10 0 0 1-10 10H8V18A10 10 0 0 1 18 8h10v7.5h-4.95a5.625 5.625 0 0 0-10.35.625H8.95l3.6.5a5.599 5.599 0 0 0-.15.75l-3.45.3 3.425.175a5.666 5.666 0 0 0 0 .625l-3.45.45h3.525l.125.55L8 20.2v.3h4.95a5.625 5.625 0 0 0 10.35-.625h4.075l-3.9-.525.1-.55 3.8-.175-3.75-.35a5.605 5.605 0 0 0 0-.55l3.75-.35-3.8-.175a5.604 5.604 0 0 0-.125-.6l4.55-.75V18z" fill="#002F68"/><path d="M22.65 16.125h-9.275a5 5 0 0 1 9.25 0h.025zm-9.5.575c-.046.206-.08.414-.1.625l2.75-.25-2.625-.375h-.025zM13 17.875a5.084 5.084 0 0 0 0 .5L15.85 18 13 17.875zm.1 1.075c0 .125.05.275.1.425l2.6-.425h-2.7zm.25.925a5 5 0 0 0 9.275 0H13.35zm9.5-.625.075-.425-2.425.1 2.35.325zm.15-1c.006-.15.006-.3 0-.45l-2.5.2 2.5.225v.025zm-.075-1.05-2.425-.15 2.325-.35.1.475v.025z" fill="#002F68"/></svg>