<svg width="36" height="36" fill="none" xmlns="http://www.w3.org/2000/svg"><path d="M18 0c2.837 0 5.52.656 7.907 1.825C31.884 4.753 36 10.895 36 18c0 9.942-8.058 18-18 18-9.94 0-18-8.057-18-18C0 8.06 8.06 0 18 0z" fill="#F2F4F7"/><path fill-rule="evenodd" clip-rule="evenodd" d="m10.96 16.923.003.06v4.63c0 .043-.003.081-.04.107h-.055c-.029-.027-.057-.056-.088-.082a2.648 2.648 0 0 0-1.717-.671c-.392-.01-.784-.003-1.176-.004l-.967-.002v-3.97c0-.023.003-.045.004-.068h4.037z" fill="#1BAF7E"/><path fill-rule="evenodd" clip-rule="evenodd" d="M6.924 16.923c-.001.023-.004.045-.004.068v3.97c-.353 0-.706.002-1.059.001a1.56 1.56 0 0 1-.228-.017 1.91 1.91 0 0 1-1.584-1.447c-.017-.07-.014-.146-.049-.212v-.69c.026-.018.018-.048.022-.072a1.904 1.904 0 0 1 1.912-1.602c.329 0 .657-.002.986-.003l.004.004z" fill="#18B1C4"/><path fill-rule="evenodd" clip-rule="evenodd" d="M10.96 16.923H6.925l-.004-.004v-.587c.003-.205-.008-.41.012-.614a1.903 1.903 0 0 1 1.445-1.665c.082-.02.164-.035.247-.053h.649c.074.033.155.032.232.051a1.91 1.91 0 0 1 1.458 1.819c-.002.35-.002.702-.002 1.053z" fill="#F0A625"/><path fill-rule="evenodd" clip-rule="evenodd" d="M30.621 18.856h.345c.18 0 .18 0 .171-.183-.002-.052-.023-.078-.078-.078h-.905c-.036-.001-.046.012-.045.046a1.75 1.75 0 0 1 0 .162c-.003.042.012.054.053.054.153-.002.306-.001.46-.001zm.02.322h-.46c-.036 0-.052.007-.05.047.003.063.003.126 0 .19 0 .035.011.046.047.046.297-.002.595-.001.892 0 .046 0 .066-.024.067-.067 0-.056-.003-.112 0-.169.003-.04-.013-.048-.05-.048-.148.002-.297.001-.446.001zM32 19.084c-.043.074-.11.098-.192.095-.077-.003-.153.001-.23-.002-.038 0-.051.01-.05.05.003.076.001.153.001.23a.31.31 0 0 1-.319.318h-.96c-.074 0-.075.002-.045.069.09.201.217.377.373.534.028.028.04.024.066-.002.065-.062.147-.102.226-.146.21-.116.42-.233.593-.407.057-.057.131-.091.216-.058a.165.165 0 0 1 .106.145c.01.097-.034.17-.104.23a2.75 2.75 0 0 1-.745.457l-.064.026c.125.094.253.168.383.236.178.093.363.169.55.238.083.03.15.079.166.171.027.154-.095.267-.246.224-.21-.06-.41-.149-.604-.25-.389-.2-.73-.46-.975-.831-.024.013-.013.033-.013.048v.643c0 .27-.17.467-.435.509-.203.032-.4 0-.593-.056-.148-.043-.195-.187-.108-.304.05-.068.12-.08.199-.066.136.026.273.06.414.037.092-.016.111-.048.109-.142-.004-.162-.001-.324-.001-.479-.359.322-.768.56-1.219.732-.137.052-.265-.016-.284-.147-.012-.086.02-.14.117-.18a4.43 4.43 0 0 0 .587-.288c.033-.02.064-.042.098-.06.029-.016.025-.028.004-.05a3.035 3.035 0 0 0-.537-.44.712.712 0 0 1-.066-.046c-.072-.061-.09-.142-.052-.217a.184.184 0 0 1 .208-.088c.03.007.06.02.087.036.242.15.456.33.613.57.02.032.032.02.05.004.036-.034.071-.068.115-.093.12-.07.198-.051.27.07.015-.019.008-.04.008-.058v-.486c0-.096.013-.084-.087-.084h-1.075c-.116-.001-.183-.062-.18-.164.002-.095.055-.149.151-.152h.054c.359 0 .717-.001 1.075.001.052 0 .068-.014.063-.064-.007-.071.03-.166-.015-.207-.039-.035-.132-.011-.202-.012h-1.068c-.11 0-.167-.058-.167-.166 0-.11.045-.156.157-.156.407 0 .815-.002 1.223.002.062 0 .078-.018.072-.076-.007-.06.024-.138-.012-.175-.037-.038-.116-.011-.175-.012h-.98c-.104 0-.167-.052-.176-.14-.012-.115.046-.18.162-.18.372 0 .744-.002 1.115 0 .055.001.071-.015.066-.067a.352.352 0 0 1 .016-.16c.018-.047 0-.056-.041-.052h-.014c-.428-.003-.856.006-1.284-.005-.133-.003-.194.06-.194.194 0 .559.002 1.118-.003 1.676-.005.424-.032.846-.187 1.248-.037.097-.073.194-.129.282a.198.198 0 0 1-.2.098c-.083-.01-.145-.051-.174-.13a.268.268 0 0 1 .024-.221c.093-.18.168-.368.21-.568a4.07 4.07 0 0 0 .065-.846c.004-.584 0-1.167 0-1.75-.001-.235.116-.362.358-.388.03-.003.059-.003.088-.003h1.388l-.06-.12c-.056-.115-.024-.223.086-.289.09-.053.196-.023.27.079.058.08.1.17.137.262.02.05.046.07.102.07.471-.003.942-.002 1.413-.002.041 0 .08.002.12.013.1.028.156.102.15.197a.202.202 0 0 1-.175.195.94.94 0 0 1-.128.008h-1.392c-.047 0-.075 0-.058.063a.43.43 0 0 1 .002.147c-.006.06.018.07.072.07.345-.003.69-.002 1.034-.001.034 0 .068.003.101.009.148.026.223.12.219.268-.003.081-.001.162-.006.243-.002.046.01.065.059.062.067-.004.135 0 .203-.001.089-.002.163.024.21.106v.122z" fill="#1BAF7F"/><path fill-rule="evenodd" clip-rule="evenodd" d="M19.252 18.41c.164 0 .328-.002.493 0 .038 0 .05-.01.05-.049a9.754 9.754 0 0 1 0-.419c0-.047-.013-.06-.06-.06-.29.002-.582 0-.872 0a.321.321 0 0 0-.054.005c-.074.012-.096.037-.097.113 0 .119.002.238 0 .358-.002.042.012.053.053.052.162-.002.324 0 .486 0zm.004.403h-.487c-.041-.001-.06.006-.058.054.004.126 0 .252.001.378.001.078.033.11.112.11.306.002.612 0 .918.002.043 0 .053-.013.052-.053a13.966 13.966 0 0 1 0-.44c.001-.041-.011-.052-.053-.052-.161.003-.323.001-.485.001zm1.56-.403c.173 0 .347-.002.52 0 .042 0 .06-.01.058-.055-.003-.113 0-.225-.002-.338 0-.1-.03-.133-.134-.134-.32-.002-.64 0-.959-.001-.04 0-.05.013-.049.05a12.1 12.1 0 0 1 0 .426c0 .04.01.053.052.052.172-.002.343 0 .514 0zm.005.403h-.513c-.041-.001-.059.006-.058.053.003.146.003.293 0 .439 0 .043.013.052.053.052.322-.002.644 0 .966-.001.093 0 .122-.028.123-.12.002-.123-.001-.247.002-.371 0-.042-.012-.053-.054-.053-.173.003-.346.001-.52.001zm-.793 2.82h-2.04c-.076 0-.145-.014-.197-.072a.206.206 0 0 1 .111-.34.514.514 0 0 1 .107-.009l1.71.001c.057 0 .078-.01.076-.072a7.334 7.334 0 0 1 0-.433c0-.048-.014-.06-.06-.06-.465.003-.93.002-1.393.002-.132 0-.204-.06-.214-.175-.012-.152.057-.226.213-.227.46 0 .92 0 1.38.002.057 0 .077-.011.074-.073a3.296 3.296 0 0 1 0-.318c.002-.052-.016-.062-.065-.062-.351.002-.703.001-1.054 0a.777.777 0 0 1-.114-.008c-.174-.027-.271-.133-.285-.308a.819.819 0 0 1-.002-.06l-.004-1.609c0-.23.12-.349.351-.349h2.805a.74.74 0 0 1 .141.014c.162.03.26.151.262.337.003.545.004 1.09 0 1.635-.002.227-.14.348-.376.349-.374 0-.748.002-1.122-.002-.072 0-.086.02-.082.086.005.099.005.198 0 .297-.003.056.012.071.07.07.497-.002.995 0 1.493 0 .09 0 .172.017.217.107.069.14-.032.291-.196.293-.212.003-.424 0-.635 0-.298 0-.595.002-.893 0-.043 0-.057.011-.056.056.003.148.004.297 0 .446-.002.052.015.062.064.062h1.758c.139 0 .223.068.236.188a.201.201 0 0 1-.198.232h-2.082z" fill="#1CB07F"/><path fill-rule="evenodd" clip-rule="evenodd" d="M26.166 18.21h.237c.094 0 .118-.02.12-.104.001-.125-.02-.156-.12-.158-.164-.002-.328 0-.493 0-.057 0-.087.03-.088.087v.081c.001.068.025.093.094.094.084.002.167 0 .25 0zm-.007.673h.242c.085-.002.12-.037.121-.12v-.053c-.001-.08-.025-.105-.104-.105h-.412c-.187 0-.193.007-.185.192.003.058.03.086.088.086h.25zm-2.242.054h.313c.254 0 .36.101.354.357-.008.4-.05.795-.168 1.178-.017.054-.032.108-.055.16-.024.055-.014.095.029.139.177.181.396.275.643.311.11.017.219.031.328.05.057.009.082-.019.083-.07.002-.121.002-.243 0-.364 0-.059-.04-.074-.092-.073h-.574c-.188 0-.275-.142-.192-.313.031-.064.088-.079.152-.08h.595c.092 0 .111-.019.112-.11.002-.191.009-.192-.187-.19-.13.002-.261.002-.392 0-.113 0-.164-.057-.165-.181 0-.133.047-.193.162-.194.162-.002.324 0 .486 0 .075 0 .096-.021.096-.097.001-.2.017-.204-.196-.201-.13.002-.262.001-.392 0-.116-.001-.17-.058-.173-.177-.004-.13.05-.196.167-.198.162-.004.324-.001.486-.001.091 0 .108-.016.108-.105 0-.174 0-.174-.176-.174h-.662c-.057 0-.114-.003-.16-.042-.063-.053-.066-.257-.006-.315a.124.124 0 0 1 .087-.031c.261-.012.522-.002.783-.005.122-.001.186-.112.126-.221-.02-.037-.054-.043-.093-.042h-.493c-.065 0-.134-.002-.159-.074-.029-.084-.04-.174.012-.254.032-.047.091-.044.143-.044.151-.002.302 0 .453 0h.04c.085-.003.104-.022.105-.105.002-.152.098-.23.248-.2a.152.152 0 0 1 .128.145c.002.02 0 .04 0 .061.002.069.024.097.092.097.217.002.433.006.65-.002.22-.008.333.092.334.314v.237c0 .058.029.085.087.088.177.01.258.154.181.317-.03.064-.086.073-.146.076-.114.006-.122.014-.122.127 0 .088.007.177-.003.263-.019.176-.121.264-.298.265h-.662c-.091 0-.112.02-.113.11 0 .188 0 .188.183.188h.696c.169 0 .255.153.171.302-.034.06-.092.074-.155.074h-.778c-.098 0-.116.02-.116.12 0 .18 0 .18.179.18h.858c.123 0 .2.072.2.187 0 .125-.077.204-.201.205h-.926c-.09 0-.11.02-.11.112 0 .113.001.225-.001.338-.002.063.025.09.088.09.336.004.671.006 1.007-.005.119-.004.183.044.195.163a.447.447 0 0 1-.005.114c-.014.085-.067.133-.153.133-.412.003-.824-.003-1.236-.021a5.425 5.425 0 0 1-.845-.085 1.452 1.452 0 0 1-.632-.288c-.077-.063-.107-.058-.161.025a2.913 2.913 0 0 1-.269.363c-.078.087-.178.102-.267.045-.132-.085-.15-.215-.041-.33.13-.135.239-.286.337-.445.03-.05.03-.09.004-.139a4.18 4.18 0 0 1-.34-.999c-.036-.166.13-.263.254-.23.064.017.09.069.103.13.034.156.077.31.122.462.013.044.03.082.084.082.056-.001.069-.043.077-.087.04-.199.056-.4.067-.603.004-.084-.054-.134-.158-.136a10.678 10.678 0 0 0-.31 0 .501.501 0 0 1-.179-.033c-.116-.043-.16-.132-.128-.253a.827.827 0 0 1 .117-.235c.176-.269.331-.551.495-.828a.495.495 0 0 0 .02-.035c.032-.064.02-.086-.051-.089-.081-.004-.162 0-.243-.002-.12-.002-.194-.067-.198-.168-.004-.116.06-.2.178-.204.177-.007.356-.018.533.006.239.032.319.169.226.392-.071.173-.176.329-.27.49-.09.156-.182.31-.273.466-.02.034-.041.068-.052.116zm-10.266.025v.926c0 .17 0 .17.17.205l.013.003c.215.034.364-.105.35-.323a1.23 1.23 0 0 0-.129-.438c-.063-.134-.15-.255-.226-.383a.256.256 0 0 1-.029-.212c.032-.109.072-.214.114-.318l.201-.492c.033-.082.015-.109-.071-.11h-.243c-.128 0-.15.02-.15.15v.992zm0 1.475v1.036c0 .08-.02.146-.098.183-.088.04-.168.022-.24-.034a.134.134 0 0 1-.051-.1 22517.95 22517.95 0 0 1-.002-3.757c0-.028-.001-.058.001-.087.014-.16.122-.268.282-.27.246-.003.492-.01.736.004.234.013.387.147.313.418a1.223 1.223 0 0 1-.026.083c-.076.217-.185.42-.268.633-.108.276-.119.226.033.49.124.217.242.437.259.69a.794.794 0 0 1-.237.65c-.148.142-.336.146-.527.107-.056-.012-.112-.03-.175-.046zm3.585-.912v1.501a.76.76 0 0 1-.021.187c-.062.245-.249.39-.53.412-.313.026-.613-.037-.91-.122a.219.219 0 0 1-.157-.137c-.024-.068-.023-.134.03-.19a.25.25 0 0 1 .248-.069c.174.038.346.082.525.09a.663.663 0 0 0 .247-.023c.099-.033.137-.087.137-.19 0-1.004 0-2.007.002-3.01 0-.053-.015-.066-.068-.066-.606.002-1.212.002-1.818.001-.117 0-.189-.073-.203-.2-.013-.116.055-.22.16-.241.02-.005.044-.005.066-.005h2.42c.124 0 .208.086.21.214.002.134-.085.232-.207.232-.13.001-.13.001-.13.13v1.486z" fill="#1BAF7F"/><path fill-rule="evenodd" clip-rule="evenodd" d="M16.06 19.373c0-.172-.005-.343.001-.514.005-.135-.037-.145-.15-.146-.212-.002-.423 0-.635 0-.08 0-.11.023-.124.102a.516.516 0 0 0-.009.093l-.002 1.027c0 .098.036.133.136.133h.628c.112 0 .154-.042.155-.155v-.54zm-1.346.023v-.757c0-.216.106-.334.324-.337.39-.006.779-.005 1.168 0 .17 0 .265.098.266.267.003.518.001 1.036 0 1.554a.621.621 0 0 1-.008.094c-.024.153-.117.24-.276.242a70.69 70.69 0 0 1-1.128 0 .576.576 0 0 1-.127-.017c-.164-.04-.223-.127-.22-.296.004-.25 0-.5 0-.75z" fill="#1CB07F"/><path fill-rule="evenodd" clip-rule="evenodd" d="m22.955 19.146-.077.098c-.07.085-.15.108-.231.066a.21.21 0 0 1-.104-.247.361.361 0 0 1 .043-.091c.299-.465.468-.974.53-1.521a.21.21 0 0 1 .34-.148c.065.049.08.116.072.192-.032.282-.086.56-.161.834a.549.549 0 0 0-.02.146v2.973c0 .127-.045.186-.157.208-.129.026-.235-.06-.235-.19v-2.32z" fill="#1BAF7E"/><path fill-rule="evenodd" clip-rule="evenodd" d="M16.993 15.284v-.92c0-.099.044-.16.123-.176.118-.023.201.044.203.17.002.224.003.447-.001.67 0 .06.016.075.075.074.306-.002.613-.002.92 0 .054 0 .067-.016.066-.068a24.726 24.726 0 0 1 0-.609.7.7 0 0 1 .007-.114c.014-.077.066-.12.145-.126.084-.006.142.03.166.108a.304.304 0 0 1 .012.086v1.818c0 .11-.043.169-.128.188-.099.022-.18-.033-.196-.133-.012-.076-.007-.153-.007-.23 0-.18-.002-.36 0-.54.001-.047-.012-.061-.06-.061-.313.002-.626.002-.94 0-.047 0-.06.014-.06.06.003.244.003.487 0 .73 0 .136-.098.208-.22.17-.068-.023-.105-.083-.105-.178v-.919z" fill="#1BAF7F"/><path fill-rule="evenodd" clip-rule="evenodd" d="m14.212 14.732-.271.697c-.013.032-.004.043.031.043.16-.001.32-.002.479 0 .043 0 .05-.012.034-.05l-.273-.69zm.958 1.549a.17.17 0 0 1-.122.164.156.156 0 0 1-.185-.076c-.03-.055-.05-.115-.074-.173-.046-.115-.093-.23-.134-.346-.017-.047-.042-.06-.09-.059-.233.002-.468.003-.702 0-.05 0-.07.017-.087.062-.056.152-.116.302-.176.452-.043.109-.123.15-.216.113-.09-.034-.125-.126-.084-.23l.746-1.903c.027-.069.063-.13.149-.139.086-.008.143.033.175.109.07.167.139.336.207.505l.57 1.42a.234.234 0 0 1 .023.1z" fill="#1CB07F"/><path fill-rule="evenodd" clip-rule="evenodd" d="M21.684 15.803c0-.018-.002-.036 0-.054.007-.051-.006-.067-.06-.05-.06.017-.124.023-.186.034-.101.017-.205.026-.3.07a.167.167 0 0 0-.104.178c.005.067.05.118.126.141a.469.469 0 0 0 .233.007c.192-.04.291-.153.291-.326zm.327-.186c0 .146.002.293-.001.44 0 .054.018.081.072.093.098.02.135.07.131.158a.171.171 0 0 1-.157.166c-.133.014-.253-.01-.325-.14-.023-.042-.04-.007-.056.004a.795.795 0 0 1-.504.138.51.51 0 0 1-.434-.76c.08-.154.221-.224.385-.254.141-.026.284-.044.426-.07.055-.01.129-.006.136-.092.012-.134-.019-.194-.122-.224a.561.561 0 0 0-.326.004c-.07.022-.11.074-.14.137-.03.062-.073.109-.143.12a.167.167 0 0 1-.196-.195.44.44 0 0 1 .233-.322.845.845 0 0 1 .774-.026c.161.071.238.216.246.39.006.145.001.289.001.433z" fill="#1BAF7F"/><path fill-rule="evenodd" clip-rule="evenodd" d="M19.74 15.427h.324c.032 0 .05-.003.042-.044-.028-.153-.105-.269-.257-.318-.217-.07-.43.076-.473.335-.006.036.022.027.04.027h.324zm.096.288c-.16 0-.29.002-.421-.001-.046-.001-.054.012-.048.057.038.295.295.452.573.349a.365.365 0 0 0 .2-.183c.022-.043.05-.08.099-.095a.16.16 0 0 1 .165.028c.05.042.059.1.046.16a.488.488 0 0 1-.152.243c-.273.262-.802.251-1.063-.024a.797.797 0 0 1-.205-.474 1.17 1.17 0 0 1 .075-.616.7.7 0 0 1 .78-.41.69.69 0 0 1 .569.675l.002.061c0 .127-.064.204-.19.221-.152.02-.306.003-.43.009z" fill="#1CB07F"/><path fill-rule="evenodd" clip-rule="evenodd" d="M24.494 14.87a.77.77 0 0 1 .695-.097.406.406 0 0 1 .308.41c.004.363.003.726 0 1.088-.002.125-.092.19-.208.163-.072-.017-.104-.067-.115-.134-.005-.029-.004-.058-.004-.088V15.3c0-.153-.05-.213-.199-.237-.259-.042-.464.117-.473.38-.009.269-.002.537-.004.805 0 .115-.047.176-.14.19-.095.013-.165-.035-.183-.128a.47.47 0 0 1-.006-.088v-1.844a.49.49 0 0 1 .008-.1c.016-.074.069-.115.145-.118.085-.003.143.034.165.108.01.033.012.066.012.1v.503z" fill="#1CB080"/><path fill-rule="evenodd" clip-rule="evenodd" d="M23.293 15.671c0-.173-.002-.347.001-.52.001-.05-.01-.069-.065-.07-.117 0-.172-.06-.168-.17.004-.084.053-.136.149-.14.069-.004.09-.027.085-.095a.56.56 0 0 1 .006-.188c.024-.09.086-.132.182-.122.077.008.131.065.136.15.003.064.003.127 0 .19-.002.042.009.063.056.058a.43.43 0 0 1 .087.006c.087.013.134.07.133.158 0 .083-.05.14-.132.153l-.04.003c-.103.004-.103.004-.103.104v.83c0 .13.003.131.13.138.127.006.183.06.178.17-.002.078-.053.139-.13.146a.96.96 0 0 1-.276-.008c-.147-.029-.227-.123-.228-.273-.002-.173 0-.347 0-.52z" fill="#1BAF7E"/><path fill-rule="evenodd" clip-rule="evenodd" d="M15.451 15.295v-.892c0-.038 0-.076.012-.114.024-.075.083-.115.164-.11a.149.149 0 0 1 .148.123.566.566 0 0 1 .008.108v1.762a.641.641 0 0 1-.007.101.148.148 0 0 1-.145.134c-.088.005-.143-.033-.169-.114-.01-.035-.01-.071-.01-.107v-.891z" fill="#1CB080"/><path fill-rule="evenodd" clip-rule="evenodd" d="M22.44 15.284v-.925c0-.108.05-.172.141-.18.105-.011.18.056.184.166.003.068 0 .135 0 .203v1.668c0 .119-.055.187-.153.19-.109.005-.172-.058-.172-.177-.002-.265 0-.531 0-.796v-.149z" fill="#1BAF7E"/><path fill-rule="evenodd" clip-rule="evenodd" d="M16.558 15.586c0 .208.002.415 0 .622-.001.128-.083.202-.196.182a.145.145 0 0 1-.123-.11.305.305 0 0 1-.01-.08c-.001-.408-.002-.816 0-1.224 0-.125.056-.19.158-.193.108-.003.17.064.171.188v.615z" fill="#1DB081"/><path fill-rule="evenodd" clip-rule="evenodd" d="M16.1 14.316a.165.165 0 0 1 .083-.14.155.155 0 0 1 .177.005c.029.02.044.023.074.002a.164.164 0 0 1 .224.03c.055.067.05.159-.015.226l-.21.21c-.025.027-.041.032-.069.003-.07-.074-.143-.144-.214-.216a.173.173 0 0 1-.05-.12z" fill="#F0A625"/></svg>