<svg width="36" height="36" fill="none" xmlns="http://www.w3.org/2000/svg"><path d="M18 0c2.837 0 5.52.656 7.907 1.825C31.884 4.753 36 10.895 36 18c0 9.942-8.058 18-18 18-9.94 0-18-8.057-18-18C0 8.06 8.06 0 18 0z" fill="#F2F4F7"/><g fill="#000"><path d="M5.071 15.459a.993.993 0 0 1 .751.315c.661.736-.92 1.678-1.545 1.21-.289-.217-.345-.668-.2-.975.173-.361.606-.55.994-.55zm.428 3.026c.568.2.839 1.07.224 1.385-.463.237-1.138-.1-1.094-.661a.754.754 0 0 1 .196-.434c.103-.119.233-.244.391-.283a.603.603 0 0 1 .283-.007zm12.037-2.565c.196.092.373.226.558.394.558.509.77 1.215.554 1.945-.292.98-1.428 1.28-2.312 1.51-.265.04-.516.062-.602.094.142.763 1.352.726 1.886.535.252-.09.502-.188.745-.302.112-.053.54-.37.642-.247.182.217.174.724.046.972-.067.131-.247.256-.368.317-.909.447-2.188.614-3.048-.028a3.22 3.22 0 0 1-.71-.714 2.79 2.79 0 0 1-.339-.697c-.24-.749-.29-1.676.072-2.395.252-.498.707-.986 1.2-1.25.28-.152.75-.288 1.07-.276.233.009.427.058.606.142zm-1.014 1.202c-.163.07-.319.177-.433.274-.496.424-.641.811-.59 1.467.004.065.408-.094.54-.145.48-.189 1.534-.63 1.22-1.37-.15-.353-.455-.346-.737-.226zm9.21 2.014-.007.06c-.059.578-.096 1.16-.177 1.736-.041.292-.071.586-.118.877-.036.218-.066.448-.184.64-.37.603-.895.307-1.254-.192 0 0-1.185-1.727-1.714-2.704-.704-1.3-1.13-2.088-1.418-2.669-.006.084 0 .081.01.248.062.907.129 2.095.178 3.002.026.494.053.987.082 1.48.025.434.092.904-.105 1.31-.174.355-.5.277-.743.054-.145-.133-.34-.329-.422-.6-.077-.254-.082-.45-.119-.712-.275-1.915-.325-3.916-.308-5.85.005-.62-.003-3.118.517-3.012.183.037.49.098.616.231.194.203.307.498.405.754.34.882.703 1.731 1.142 2.684a37.714 37.714 0 0 0 1.788 3.35c.067.11.14.22.215.325.037.051.066.058.064.071.055-.484.034-.981.048-1.465.033-1.149.062-2.298.21-3.438.105-.802.187-1.63.454-2.397.098-.28.201-.627.474-.783.17-.096.406-.135.6-.136.168 0 .343.05.492.124.271.136.22.45.177.688-.03.167-.074.468-.107.671-.057.36-.094.547-.153.905-.07.424-.14.847-.2 1.273-.083.585-.158 1.171-.233 1.757-.073.573-.15 1.145-.21 1.718zm3.547-6.292c.034.04.075.127.125.245.427 1.01 1.39 4.457 1.4 4.488 0 0 .49-.045.616-.042.358-.027.623-.03.574.421-.043.393-.079.62-.31.662a8.941 8.941 0 0 1-.683.076c.008.023.588 2.721.62 2.984.024.193.054.378.036.568a.728.728 0 0 1-.201.442c-.128.15-.205.297-.411.193-.134-.067-.296-.125-.407-.228-.113-.105-.153-.259-.217-.395-.094-.202-.578-2.633-.637-2.99a6.708 6.708 0 0 0-.097-.437c-.286 0-.571.035-.855.06-.222.018-.65.045-.758.091-.108.066-.153.549-.174.663-.189 1.033-.214 2.086-.261 3.131-.006.131.024.34-.144.37-.181.033-.511-.242-.643-.35a1.25 1.25 0 0 1-.364-.62c-.2-.915.042-1.805.228-2.7.322-1.545.74-3.07 1.212-4.575.157-.5.32-.999.504-1.49.062-.164.114-.33.2-.483.07-.123.167-.254.325-.237a.499.499 0 0 1 .169.054c.05.026.114.053.153.1zm-.381 5.051c.176-.023.612-.061.612-.061-.046-.472-.13-.758-.208-1.226-.044-.261-.123-.718-.255-.952-.088-.156-.243.268-.264.32a7.76 7.76 0 0 0-.3.996c-.028.113-.14.448-.224 1.022-.001 0 .268-.047.639-.099z"/><path d="M10.584 20.897a6.148 6.148 0 0 1-.808.38c-.16.063-.903.375-.858-.056.067-.64.141-1.465.153-2.107a25.08 25.08 0 0 0-.118-3.052c-.028-.274-.073-.582-.11-.854a39.305 39.305 0 0 0-.228-1.203c-.082-.41.508-.283.733-.23a4.45 4.45 0 0 1 1.338.577c.808.518 1.506 1.293 1.688 2.247.267 1.397-.042 2.95-1.17 3.874-.193.16-.402.3-.62.424zm2.357-6.483c-.425-.528-.985-.942-1.556-1.3-1.242-.778-2.219-1.098-4.021-.997a4.746 4.746 0 0 0-1.01.181c-.135.043-.184.156-.204.246a1.68 1.68 0 0 0-.029.307c-.007.343-.016.807.37.948.153.057.382-.103.45.136.015.049.025.099.038.148.103.41.2.821.276 1.237.076.417.127.837.16 1.259.036.453.053.909.061 1.364.01.523.005 1.047-.008 1.57-.008.288-.018.575-.03.862-.013.343-.012.69-.07 1.027-.005.028-.011.17-.03.179-.587.248-1.468-.397-1.536.64-.007.09.095.89.276 1.114.159.197.47.245.833.26.228.007.457.017.686.017a4.84 4.84 0 0 0 1.146-.126c.37-.09.728-.222 1.077-.373a7.52 7.52 0 0 0 .912-.47c.295-.18.581-.38.856-.589.733-.558 1.43-1.237 1.853-2.066.25-.486.388-1.137.466-1.676.195-1.344-.102-2.826-.966-3.898z"/></g></svg>