<svg width="36" height="36" fill="none" xmlns="http://www.w3.org/2000/svg"><path d="M18 0c2.837 0 5.52.656 7.907 1.825C31.884 4.753 36 10.895 36 18c0 9.942-8.058 18-18 18-9.94 0-18-8.057-18-18C0 8.06 8.06 0 18 0z" fill="#F2F4F7"/><path fill-rule="evenodd" clip-rule="evenodd" d="M13.073 19.694c-.03.037-.04.08-.073.113a.127.127 0 0 1-.07.037c-.087.008-.174.01-.25-.044-.03-.022-.037-.058-.027-.095.011-.03.037-.04.066-.044.18-.022.34-.08.5-.16a.044.044 0 0 1 .037-.004c.014.008.01.033.003.044-.062.055-.131.088-.186.153zm.53.347c-.012.015.007.03.014.04.007.018 0 .044-.026.048-.058.01-.113.007-.171.014l-.14.026c-.086.014-.17-.015-.258-.004-.018.004-.04.004-.058.007-.048.007-.088.022-.132.037a.134.134 0 0 1-.091 0c-.106-.04-.19-.117-.292-.175-.077-.04-.15-.08-.23-.117a2.117 2.117 0 0 0-.292-.106 1.736 1.736 0 0 0-.562-.088c-.022 0-.051.012-.055.037 0 .007.011.01.019.014.076.019.15.037.215.084.011.008.011.022.004.033-.008.011-.022.015-.033.015-.135-.004-.274-.022-.405.033-.175.07-.336.19-.533.175-.03-.004-.058-.007-.088-.015a.19.19 0 0 1-.062-.029c-.01-.01-.021-.03-.036-.036a.062.062 0 0 0-.037 0 1.619 1.619 0 0 1-.19.04c-.181.036-.35.036-.529.066a1.983 1.983 0 0 0-.42.102c-.04.014-.072.04-.109.065-.047.033-.076.08-.124.103-.018.007-.04 0-.058.003-.055.008-.07.073-.055.12a.182.182 0 0 1 0 .077c-.01.066-.015.132-.058.183a.7.7 0 0 1-.267.168.085.085 0 0 1-.073-.011c-.025-.019-.018-.048-.01-.073 0-.012-.011-.022-.019-.019-.036.011-.095 0-.08-.043.037-.095.117-.157.179-.241.084-.113.153-.219.23-.34.025-.04.043-.087.087-.113.07-.047.15-.047.23-.065.113-.026.215-.055.325-.084.171-.048.34-.11.452-.245a.309.309 0 0 0 0-.153c-.069-.048-.142-.088-.208-.146-.095-.088-.178-.175-.27-.27a.182.182 0 0 0-.109-.059c-.124-.014-.23.044-.332.11-.212.131-.402.266-.628.354-.066.026-.128.055-.197.07-.11.021-.212.043-.321.05-.11.008-.216-.014-.325 0-.025.004-.051.04-.029.052.113.05.244.036.358.105.007.008.014.011.018.022.003.018-.011.03-.026.03-.054.007-.11-.004-.164-.012a.532.532 0 0 0-.168.019c-.131.025-.252.058-.383.09a1.004 1.004 0 0 1-.15.02.585.585 0 0 1-.317-.077.764.764 0 0 1-.124-.113c-.008-.012-.022-.015-.033-.015-.16-.026-.318-.073-.43-.194-.052-.054-.063-.123-.085-.193-.007-.022-.032-.033-.054-.04-.062-.018-.124-.044-.194-.03-.04.012-.066.037-.102.052a.118.118 0 0 1-.047 0c-.044-.015-.084-.033-.128-.052a.28.28 0 0 0-.077-.01.35.35 0 0 0-.135.036 1.478 1.478 0 0 0-.449.329c-.032.04-.025.087-.029.135 0 .04-.047.058-.07.087-.021.03-.017.066.005.095.043.055.084.12.072.194-.01.087-.084.145-.138.211-.022.03-.044.055-.066.084a.06.06 0 0 1-.088 0c-.018-.022-.014-.054-.04-.062-.018-.007-.036.003-.055-.004-.04-.018-.032-.065-.025-.098.025-.106.062-.204.084-.314.022-.11.036-.208.062-.317.011-.055.022-.106.073-.143.19-.128.361-.226.551-.35.143-.091.255-.194.398-.277.018-.011.04-.011.062-.008.157.044.296.102.445.157.033.01.073.015.102.04.008.008.015.015.015.026 0 .062.022.113.058.164.08.102.208.113.325.124.015.004.026.018.033.03.098.164.284.208.456.226a.69.69 0 0 0 .43-.11c.063-.04.118-.076.176-.124a.82.82 0 0 1 .212-.11c.116-.043.237-.058.35-.105a1.26 1.26 0 0 0 .186-.095c.077-.051.139-.11.204-.168l-.007-.007c.004 0 .007.003.011.003.022-.021.047-.036.066-.062-.004-.004-.008-.007-.011-.007a1.08 1.08 0 0 1-.106.036c-.19.048-.38.033-.558.11-.135.059-.245.142-.373.223-.05.032-.098.061-.15.09a.548.548 0 0 1-.412.066.168.168 0 0 1-.095-.062c-.01-.018-.01-.04-.01-.061.01-.08.098-.107.16-.14.117-.06.24-.087.361-.138.135-.062.252-.146.373-.24.083-.066.171-.114.266-.157-.004-.004-.004-.011-.007-.011-.11 0-.22.017-.333.032a.835.835 0 0 0-.251.051c-.055.026-.106.047-.16.077-.125.077-.223.16-.344.248a.871.871 0 0 1-.328.15c-.08.01-.18-.015-.201-.099a.198.198 0 0 1-.004-.08.211.211 0 0 1 .062-.11c.11-.105.256-.135.39-.19.143-.058.264-.153.398-.23a.721.721 0 0 1 .223-.083c.15-.033.289-.037.438-.015.143.021.277.044.416.037.04 0 .08-.004.124-.011.048-.011.088-.026.132-.04a.909.909 0 0 0 .277-.175c.087-.088.16-.18.248-.267.037-.037.077-.058.117-.091.059-.04.117-.058.171-.095.015-.007-.01-.01-.022-.01a1.24 1.24 0 0 0-.514.163c-.183.117-.328.263-.533.329a.406.406 0 0 1-.186.007c-.033-.007-.069-.022-.077-.055-.025-.077.033-.138.088-.186.11-.102.245-.16.38-.211.237-.088.478-.169.73-.172.003 0 .01-.007.014-.007a2.357 2.357 0 0 1 .832.124c.164.055.306.146.467.211a.798.798 0 0 0 .223.055c.04.004.08-.003.12-.022a.3.3 0 0 0 .117-.117c.095-.029.193-.043.266-.116a.416.416 0 0 0 .102-.171.32.32 0 0 0-.134-.377c-.03-.014-.07-.014-.092.015-.015.021-.018.054.004.07.062.039.106.09.113.156a.254.254 0 0 1-.073.211.329.329 0 0 1-.098.06c-.052.014-.099.028-.154.021-.04-.007-.08-.007-.12-.022a.435.435 0 0 1-.157-.095c-.044-.047-.062-.106-.095-.156-.018-.034-.062-.037-.095-.055a.757.757 0 0 1-.106-.081.254.254 0 0 1-.043-.066.388.388 0 0 1-.048-.273.52.52 0 0 1 .46-.42.572.572 0 0 1 .354.059c.04.018.08.036.12.058.022.011.048.018.073.026.16.025.318.022.471.072.113.04.219.085.318.157.054.04.098.08.146.128.076.084.134.175.211.256.059.054.113.105.183.153.087.058.171.103.266.146.007.003.004.018.004.018-.055.04-.117.022-.175.011-.008 0-.015 0-.023.003-.01.008-.01.02-.003.026.146.081.274.175.416.26.03.017.058.028.088.04.014.006.036.014.029.032-.004.008-.015.012-.022.012-.062.01-.117-.004-.175 0-.022 0-.011.029 0 .04.014.018.033.029.05.043.125.124.26.212.41.314.01.008-.012.018-.023.022a2.006 2.006 0 0 1-.288.026c-.113 0-.23.003-.343-.033-.007 0-.018 0-.022.014-.003.012.004.022.007.03.037.036.085.05.125.084.007.003-.004.018-.015.018-.07.003-.135-.015-.204-.018-.077-.004-.157-.004-.234-.012a7.467 7.467 0 0 1-.251-.036 1.173 1.173 0 0 1-.19-.062c-.07-.025-.132-.066-.197-.106-.12-.076-.208-.175-.31-.274-.066-.058-.172-.084-.238-.014-.204.35-.667.222-.963.058-.022-.01-.047-.01-.066.01-.015.02-.018.038-.015.06.037.094.146.13.234.168.15.061.31.087.471.083.08-.003.16-.036.24-.032.03.003.008.04-.003.058-.036.055-.087.09-.128.142.033.022.077.008.113.004.03 0 .059-.019.092-.015.014.004.01.026.007.037-.015.03-.033.054-.051.08-.026.033-.073.037-.08.073-.008.022.036.01.058.007.044-.003.084-.018.124-.032.018-.004.047-.008.047.014 0 .073-.083.117-.109.182-.004.015.018.015.033.015.08-.01.157-.05.237-.047.033 0 .007.058-.004.083a.395.395 0 0 1-.087.103c-.008.007-.015.014 0 .03.007.003.014 0 .022 0 .142-.041.266-.1.39-.184a.033.033 0 0 1 .037 0c.014.011.01.03.007.044-.004.037-.03.07-.036.106 0 .004.003.01.007.01.084-.017.157-.039.24-.046.085-.011.161-.023.245-.037.073-.01.139-.03.208-.054.018-.008.04 0 .033.025-.018.036-.047.066-.07.098a1.427 1.427 0 0 1-.302.34c-.033.033-.077.051-.12.076-.015.012-.033.019-.04.033-.015.026.007.048.025.063.179.127.35.207.53.332.017.014.04.021.06.025.056.007.103-.015.154-.018.033-.004.062.01.095.018.026.004.055.007.073-.015.03-.036.03-.09.07-.113a.183.183 0 0 1 .13-.014.167.167 0 0 0 .063 0c.037-.004.066-.03.102-.022a.617.617 0 0 1 .26.139c.025.065-.06.069-.085.109zm-1.406-.785.004-.01c-.019-.012-.04-.005-.059-.005a4.77 4.77 0 0 0-.437.048 1.719 1.719 0 0 0-.278.077c-.157.055-.295.142-.445.204-.19.08-.412.124-.602.007a.08.08 0 0 1-.019-.116.213.213 0 0 1 .088-.051c.132-.037.263-.037.387-.084.143-.055.27-.135.38-.245 0 0-.004-.01-.008-.01-.036.003-.069.021-.106.028-.175.03-.342.011-.507.077-.12.051-.234.106-.365.124-.123.017-.252.03-.361-.047-.036-.026-.055-.073-.03-.117.026-.04.07-.048.11-.055.091-.01.183-.01.274-.025a.977.977 0 0 0 .347-.117c.102-.062.193-.131.3-.186.025-.011.054-.022.08-.037-.004-.004-.004-.01-.008-.01-.058.006-.117.014-.175.017-.098.008-.194.012-.292.03a1.376 1.376 0 0 0-.394.138.535.535 0 0 1-.39.044c-.27-.083-.537-.248-.83-.168-.014.008 0 .026.012.03.24.032.448.153.613.332.153.164.303.335.533.39.036.008.05.044.072.07.15.15.347.24.555.252.215.01.42-.059.61-.161.31-.164.595-.343.941-.424zm.088.172c-.008.007.014.003.007.014 0-.007-.003-.01-.007-.014zm-2.007-3.139c-.12.08-.23.132-.347.22 0 0 .007.01.015.01.062 0 .116-.036.178-.043.004 0 .011.007.015.01 0-.003 0-.01.004-.01.014-.004.018.014.014.021-.07.092-.153.143-.244.208-.048.03-.091.055-.139.078-.036.017-.073.039-.113.046-.018 0-.022.019-.037.023.011.021.04.017.063.017.05-.006.102-.029.153-.017.01.003 0 .025-.007.036-.015.014-.033.022-.048.036a.82.82 0 0 1-.168.092c-.087.036-.171.069-.255.12-.186.113-.336.26-.533.343a.1.1 0 0 1-.033.008c-.022.007-.04.022-.058.029-.143.048-.292.07-.431.123a1.54 1.54 0 0 0-.222.117c-.037.019-.066.04-.099.063-.07.05-.124.102-.19.157a.588.588 0 0 1-.07.062.651.651 0 0 1-.292.164c-.12.033-.236.047-.36.073-.336.073-.68.222-.818.554-.014.037-.058.059-.08.095-.007.011-.018.022-.022.033a.047.047 0 0 1-.047.018c-.077-.022-.146-.055-.22-.08-.047-.018-.065-.066-.076-.11-.004-.025-.011-.05-.011-.076a.687.687 0 0 1 .113-.449c.022-.033.044-.058.07-.091.116-.15.284-.223.452-.292.285-.113.58-.128.887-.193.058-.011.128-.048.128-.117 0-.022-.015-.04-.037-.048-.08-.018-.153-.022-.234-.032-.043-.008-.083-.037-.127-.022-.015.003-.004.025.003.036.022.018.059.03.062.059 0 .007-.014.014-.025.014a1.09 1.09 0 0 1-.15-.01c-.091-.008-.179-.045-.27-.055-.014 0-.014.018-.007.029.022.026.051.04.077.062.007.007.007.029-.004.029-.139.01-.267-.055-.39-.113-.015-.004-.037.003-.033.022.01.04.043.062.076.083.015.012.03.04.004.04A.547.547 0 0 1 6 17.469c-.007-.003-.015-.003-.022-.01-.022-.03-.051-.048-.066-.081-.018-.047-.018-.102.015-.143.04-.05.098-.094.167-.076.106.022.165.117.256.16a.119.119 0 0 0 .051.015c.04 0 .077-.007.117-.003.036.007.066.025.102.036a.178.178 0 0 0 .19-.073c.051-.07.073-.168.015-.237-.019-.018-.052-.022-.07-.004-.036.044.011.099-.004.15-.018.051-.069.073-.124.066-.036-.008-.065-.026-.098-.034-.033-.007-.066 0-.099-.003-.05-.008-.08-.048-.124-.073-.029-.015-.062-.025-.084-.051a.089.089 0 0 1 0-.095c.033-.044.088-.066.14-.047.065-.04.149-.066.218-.015a.213.213 0 0 0 .104-.064c.022-.022-.009-.064.005-.093.004-.004.008-.01.015-.01.033.006.047.039.077.054.025.01.052.006.075-.005.047-.023.067-.053.133-.059.01-.001.033-.017.036-.031.004-.02-.007-.037-.025-.055-.014-.026-.024-.06-.03-.069a.17.17 0 0 1-.123-.026c-.02-.01-.055-.007-.055.026.003.04.055.044.065.077.015.04-.04.054-.073.047-.014-.003-.03-.021-.029-.037.005-.04.007-.05-.018-.076-.044-.04.018-.092.058-.106.044-.015.077.014.12.026.044.01.077-.022.121-.03.01 0 .026-.003.037 0 .084.037.168.07.259.048.284-.066.525-.19.8-.281.024-.008.05 0 .065.022.018.025-.011.047-.03.062-.04.025-.08.043-.12.062-.153.076-.303.138-.452.211-.022.011-.048.03-.052.055-.018.062.011.124.033.183.007.014.026.025.04.021.095-.021.187-.054.285-.047a.26.26 0 0 1 .15.066c.014.018.018.047.003.065-.106.095-.266.088-.394.037-.033-.014-.07 0-.091.026-.011.018-.011.04 0 .054a.374.374 0 0 0 .204.073c.157.015.336-.043.413-.19.025-.138-.128-.207-.241-.226a.629.629 0 0 0-.248.015c-.008 0-.019 0-.026-.004-.01-.007-.018-.03-.007-.032.182-.099.365-.165.544-.27a.408.408 0 0 0 .109-.088.154.154 0 0 0 .018-.055c.011-.037 0-.073-.021-.106a.12.12 0 0 0-.106-.043c-.132.003-.252.058-.373.105-.142.055-.28.117-.434.157-.073.018-.15.026-.22-.015-.05-.029-.072-.105-.028-.153.051-.051.12-.029.183-.021.01 0 .018-.008.025-.012.051-.05.099-.105.164-.135a.61.61 0 0 1 .179-.043c.058-.008.113-.011.168-.015.102-.008.2.007.303.011.113.007.226.004.34 0 .069 0 .138-.015.207-.025.055-.012.106-.037.16-.03.015 0 .008.03 0 .044-.035.047-.087.07-.138.106-.014.01-.014.033.004.03.069-.012.127-.041.197-.052.124-.026.24-.022.361-.03.044-.003.087-.021.131-.021.011-.004.022.01.019.025-.033.062-.095.095-.146.14-.012.01-.012.036.004.028.32-.131.663-.095 1.003-.135.029 0 .058-.01.088-.018.014-.003.029.007.029.022a.145.145 0 0 1-.037.055c-.04.032-.077.065-.12.095zm-2.825.647c-.01-.019-.03-.026-.036-.048-.01-.027-.001-.076-.033-.07-.037.008-.073.011-.088-.029-.003-.007-.018-.01-.025-.007a.211.211 0 0 1-.12 0c-.012-.002-.026 0-.034.011-.01.011-.014.029-.003.04.047.04.11.04.157.08.003.004 0 .011 0 .019a.07.07 0 0 1-.077.036c-.022-.007-.03-.032-.033-.055-.007-.029-.044-.025-.058-.003a.077.077 0 0 0-.004.091c.03.04.077.059.124.059a.229.229 0 0 0 .126-.051c.016-.012.046-.008.064-.008a.04.04 0 0 0 .044-.025c.007-.015.004-.026-.004-.04zm-2.507 1.163c.07.015.117.066.182.088a.681.681 0 0 0 .15.033c.026 0 .051.029.033.044-.055.044-.131.04-.197.062-.044.014-.077.043-.12.043-.088-.003-.187-.036-.223-.116-.018-.051.025-.091.066-.124.032-.022.07-.04.109-.03zm.956-.018c-.065.095-.113.186-.182.278-.011.018-.037-.004-.051-.019-.112-.111-.187-.24-.289-.361-.018-.022-.043-.044-.072-.044-.06 0-.11.03-.168.037-.07.011-.132.014-.201.029-.066.014-.128.022-.186.066a.524.524 0 0 0-.146.186.04.04 0 0 1-.037.022c-.044 0-.102.01-.11.058-.01.059.015.128-.04.164a.597.597 0 0 1-.324.117c-.03 0-.055-.022-.073-.047-.015-.022.004-.044.01-.066v-.018c-.006-.015-.017-.019-.028-.03-.008-.01-.004-.029-.004-.043.007-.03.033-.04.051-.059.091-.076.179-.146.26-.233.058-.066.094-.14.16-.197a.236.236 0 0 1 .043-.019c.135-.025.26-.047.391-.084.066-.018.124-.047.186-.069.102-.04.197-.09.296-.142a.117.117 0 0 1 .11.007c.043.03.076.066.112.103.099.109.194.204.292.317a.039.039 0 0 1 0 .047zm-.66 1.515c.086.025.171.01.255.007.022-.003.022.022.011.037-.065.069-.164.069-.244.113-.033.018-.044.058-.077.076-.066.037-.131.08-.208.077-.047-.004-.08-.044-.088-.087-.025-.114.08-.187.168-.234.059-.03.12-.008.183.011zm4.145.711c.055.004.102.033.16.044.074.014.14-.01.209-.003.018.003.004.032-.011.043-.091.048-.19.059-.277.102a.784.784 0 0 1-.296.103c-.015 0-.033 0-.047-.008-.026-.011-.033-.033-.044-.054-.022-.055.01-.106.058-.139.077-.047.157-.095.248-.088zm11.083-3.342c.008-.194.038-.406.074-.564h-1.413c.037.158.066.37.075.564.003.086.007.258.007.36V19.8c0 .102-.004.273-.007.36a3.343 3.343 0 0 1-.075.564h1.413a3.292 3.292 0 0 1-.074-.565 10.733 10.733 0 0 1-.008-.36v-2.475c0-.102.004-.274.008-.36zm6.568 0c.01-.194.039-.406.075-.564H25.7c.036.158.066.37.074.564.005.086.008.258.008.36V19.8a8.1 8.1 0 0 1-.008.36 3.284 3.284 0 0 1-.074.564h1.413a3.33 3.33 0 0 1-.075-.565 11.007 11.007 0 0 1-.007-.36v-2.475c0-.102.004-.274.007-.36zm4.88 3.759v-3.4c0-.102.004-.272.008-.359a3.34 3.34 0 0 1 .074-.564h-.98c.036.158.066.37.074.564.004.087.007.258.007.36v1.981a6.72 6.72 0 0 0-.226-.433c-.097-.167-1.465-2.472-1.465-2.472h-1.567c.036.158.066.37.075.565.003.086.007.256.007.359V19.8c0 .102-.004.273-.007.36a3.36 3.36 0 0 1-.075.564h.981a3.28 3.28 0 0 1-.074-.565 10.224 10.224 0 0 1-.008-.36v-2.178c.098.207.253.5.357.677.279.475.766 1.277 1.152 1.812.321.444.58.609 1.238.614l.43-.001zM18.56 16.401h-1.271c-.1.44-.466.881-.826 1.32-.24.292-.466.524-.577.637v-1.034c0-.102.003-.272.007-.359.008-.194.038-.406.074-.564h-1.413c.037.158.066.37.075.564.004.087.007.258.007.36V19.8c0 .102-.003.273-.007.36a3.289 3.289 0 0 1-.075.564h1.413a3.32 3.32 0 0 1-.074-.565 10.733 10.733 0 0 1-.007-.36v-1.21c.242.443.513.957.841 1.457.324.494.628.713 1.365.713.247 0 .485-.012.739-.038-.39-.372-1.166-1.525-1.728-2.496L18.56 16.4zm5.61 2.411c.55-.262.767-.659.767-1.167 0-.337-.149-.714-.474-.94-.296-.207-.639-.27-1.075-.289a12.574 12.574 0 0 0-.68-.015H21.23c.036.158.066.37.074.564.004.087.008.258.008.36V19.8c0 .102-.004.273-.008.36a3.303 3.303 0 0 1-.074.564h1.413a3.32 3.32 0 0 1-.075-.565 11.328 11.328 0 0 1-.007-.36v-2.476c0-.08.002-.202.005-.292.063-.008.167-.013.245-.013.127 0 .244.009.358.035.365.085.558.336.558.701 0 .545-.38.794-1.007.898.186.39.439.927.68 1.344.378.65.73.763 1.444.763.213 0 .44-.015.632-.035-.466-.437-1.13-1.669-1.306-1.913z" fill="#F00000"/></svg>