<svg width="36" height="36" fill="none" xmlns="http://www.w3.org/2000/svg"><path d="M18 0c2.837 0 5.52.656 7.907 1.825C31.884 4.753 36 10.895 36 18c0 9.942-8.058 18-18 18-9.94 0-18-8.057-18-18C0 8.06 8.06 0 18 0z" fill="#F2F4F7"/><path d="M6.718 17.013a1.481 1.481 0 0 0-.973-.306c-.277 0-.609.042-.609.36 0 .236.275.345.692.497.484.181 1.051.417 1.051 1.091 0 1.09-1.15 1.22-1.688 1.22a3.558 3.558 0 0 1-.886-.099c-.25-.07-.305-.181-.305-.512v-.398c.325.197.7.299 1.08.293.436 0 .665-.124.665-.401s-.236-.358-.86-.6C4.45 17.992 4 17.769 4 17.148 4.002 16.236 5.05 16 5.664 16c.298-.008.594.044.873.15.165.083.18.179.18.401v.46zm3.295-.862h1.165c-.044.373-.057.97-.057 1.55v.513c-.006.519.022 1.037.083 1.551h-.654c-.251 0-.376-.083-.417-.248a1.671 1.671 0 0 1-1.012.331c-1.245 0-1.398-.748-1.398-1.309v-1c.007-.464-.015-.927-.065-1.388h.691c.318 0 .471.194.471.513v1.47c0 .582.055 1.025.777 1.025.16.001.319-.027.468-.083v-1.309c0-.458-.024-1.243-.052-1.616zm3.435 3.614h-1.162c.041-.375.054-.973.054-1.55v-.51a9.483 9.483 0 0 0-.083-1.552h.655c.25 0 .375.083.416.251a1.67 1.67 0 0 1 1.019-.334c1.247 0 1.4.749 1.4 1.31v1.009a11.3 11.3 0 0 0 .07 1.385h-.692c-.318 0-.469-.194-.469-.513v-1.474c0-.58-.056-1.025-.776-1.025a1.294 1.294 0 0 0-.473.083v1.308c0 .458 0 1.248.041 1.62v-.008zm5.649-3.614c.219 0 .437-.013.654-.041-.044.177-.1.352-.165.523-.098.218-.218.277-.707.277h-.417v1.237c0 .458.014 1.245.055 1.62h-1.178c.042-.373.055-1.162.055-1.62v-1.233h-.35a1.625 1.625 0 0 0-.734.125v-.485c0-.276.056-.4.47-.4l2.317-.003zm4.554 1.775c0 1.204-.691 1.963-1.939 1.963-1.247 0-1.884-.689-1.884-1.925 0-1.237.682-1.922 1.928-1.922 1.245 0 1.895.654 1.895 1.884zm-2.757.014c0 .828.295 1.201.862 1.201s.83-.373.83-1.204c0-.83-.276-1.219-.83-1.219-.554 0-.857.39-.857 1.221h-.005zm6.679 2.037c-.437 0-.54-.168-.818-.567a22.4 22.4 0 0 1-.72-1.206c-.04-.083-.055-.148.028-.194.36-.218.458-.437.458-.679a.48.48 0 0 0-.543-.538 1.565 1.565 0 0 0-.388.041v1.309c0 .458.015 1.247.057 1.62h-1.134c.041-.36.054-.97.054-1.55v-.509a9.47 9.47 0 0 0-.083-1.55c.541 0 1.33-.029 1.677-.029.609 0 1.425.127 1.425 1.04a1.002 1.002 0 0 1-.485.873c-.054.041-.054.07 0 .148.386.596.816 1.16 1.287 1.69a4.086 4.086 0 0 1-.818.101h.003zm2.963-1.26v.082c-.002.325.017.65.057.973h-1.177c.04-.323.058-.648.054-.973v-.083a1.198 1.198 0 0 0-.166-.556c-.261-.523-.844-1.526-1.345-1.993.258-.028.518-.042.778-.042.456 0 .598.15.707.334.224.4.428.811.608 1.232.178-.416.378-.823.6-1.219a.688.688 0 0 1 .654-.347c.232.002.464.016.694.042-.36.318-1.038 1.44-1.309 1.963-.103.18-.152.387-.141.595l-.014-.009z" fill="#5BC2DC"/></svg>