<svg width="36" height="36" fill="none" xmlns="http://www.w3.org/2000/svg"><path d="M18 0c2.837 0 5.52.656 7.907 1.825C31.884 4.753 36 10.895 36 18c0 9.942-8.058 18-18 18-9.94 0-18-8.057-18-18C0 8.06 8.06 0 18 0z" fill="#F2F4F7"/><path d="M18.216 10.44h4.938l-5.228 9.26h6.97l-1.71 2.904H10.891l7.325-12.165z" fill="#fff"/><path d="m22.04 13.501 1.47-2.524-.227-.65h-3.192L18.018 7l-9.97 16.23h19.944l-5.952-9.729zm1.952 6.572-1.287 2.113h-11.02l6.976-11.45h4.157l-5.69 9.337h6.864z" fill="#1959A6"/><path d="M9.878 27.14a.73.73 0 0 1-.574-.286.848.848 0 0 1-.177-.52c0-.445.335-.806.751-.806.24 0 .58.093.78.308l-.03-1.134a1.969 1.969 0 0 0-.75-.145c-1.037 0-1.878.795-1.878 1.777 0 .182.029.357.082.521.236.728.951 1.256 1.796 1.256.265 0 .516-.052.745-.145h.005l.037-1.11h-.032c-.2.192-.53.284-.755.284m9.962-.284v-2.228h-1.13v3.415h2.259v-.988h-1.13v-.199zm3.224.284a.727.727 0 0 1-.573-.286.84.84 0 0 1-.178-.52c0-.445.337-.806.752-.806.24 0 .58.093.78.308l-.03-1.134a1.972 1.972 0 0 0-.75-.145c-1.038 0-1.879.795-1.879 1.777 0 .182.03.357.083.521.235.728.95 1.256 1.795 1.256.265 0 .518-.052.746-.145h.005l.036-1.11h-.031c-.2.192-.532.284-.756.284m-9.742-1.263h-1.048v-1.246h-1.038v3.407h1.042v-1.253h1.04v1.253h1.044V24.63h-1.04v1.246zm12.8-1.32c-1.037 0-1.878.796-1.878 1.777 0 .182.029.357.083.521.235.728.95 1.256 1.795 1.256s1.56-.528 1.796-1.256c.054-.164.082-.34.082-.521 0-.981-.841-1.777-1.878-1.777zm0 2.583a.73.73 0 0 1-.573-.285.837.837 0 0 1-.178-.521c0-.445.336-.806.752-.806.415 0 .75.361.75.806a.84.84 0 0 1-.177.521.732.732 0 0 1-.574.285zm-8.912-2.5h-1.36l-.774 2.216-.41 1.174h1.178l.127-.516h1.119l.126.516h1.177l-.41-1.174-.773-2.216zm-.667.599.381 1.586h-.79l.41-1.586z" fill="#7B7979"/></svg>