<svg width="36" height="36" fill="none" xmlns="http://www.w3.org/2000/svg"><path d="M18 0c2.837 0 5.52.656 7.907 1.825C31.884 4.753 36 10.895 36 18c0 9.942-8.058 18-18 18-9.94 0-18-8.057-18-18C0 8.06 8.06 0 18 0z" fill="#F2F4F7"/><path d="M5.875 14.425a3.635 3.635 0 0 1 3.176-.115 3.607 3.607 0 0 1 1.902 2.056c.314.898.268 1.91-.138 2.762-.491 1.05-1.55 1.84-2.708 1.986-.575.092-1.173.016-1.726-.169v.683h-.49v-2.715c.314.36.735.66 1.219.767.874.222 1.848-.2 2.316-.974.468-.721.422-1.71-.092-2.401-.483-.682-1.396-1.035-2.208-.829a2.25 2.25 0 0 0-1.22.775c-.031-.598-.031-1.212-.031-1.826zm8.054.268c.161 0 .33 0 .483-.008.008.277-.015.553-.053.83h1.626v.42H14.81c.161.676.552 1.32 1.174 1.65v.545c-.913-.376-1.504-1.289-1.688-2.24-.077.26-.138.514-.23.767.222.314.398.683.521 1.043h-.53a6.349 6.349 0 0 0-.252-.568c-.3.468-.76.806-1.266.99 0-.17 0-.33-.007-.491.69-.3 1.112-.982 1.25-1.688-.422-.008-.829 0-1.25 0v-.422h1.334c.031-.275.046-.552.062-.828zm-9.926 2.946c-.053-1.135.53-2.248 1.412-2.96.008 2.316 0 4.624 0 6.94H4.003v-3.98zm12.61-2.884h3.146v.422h-1.32v1.503h1.466v.46h-1.466v1.029h-.514v-1.036H16.46v-.46h1.465v-1.504h-1.319c.007-.138.007-.276.007-.414zm3.805 0c.17.015.36-.038.514.03.177.246.292.522.414.79h-.506a7.38 7.38 0 0 0-.422-.82zm1.227-.062h.491c.054.146.115.307.17.46h.674c.054-.145.123-.298.177-.46h.483c-.053.146-.114.307-.161.46h.376v.422h-.951v.476h.874v.422h-.874v.53h1.066v.42h-1.066v.745h-.491v-.744h-1.028v-.422h1.028v-.53h-.898v-.42h.898v-.476h-.974v-.422h.39a4.326 4.326 0 0 1-.184-.46zm7.004.062h1.196c.054.422-.007.86-.245 1.22.253.476.253 1.051.053 1.55h-.483c.207-.492.26-1.082-.038-1.55.169-.23.253-.522.276-.813h-.353v2.96h-.422c.016-1.127.016-2.247.016-3.367z" fill="#00499A"/><path d="M29.76 15.96c.3-.338.469-.768.53-1.205h.974c.1.437.353.852.736 1.105v.476c-.506-.223-.89-.683-1.074-1.197h-.269c-.13.437-.345.905-.767 1.15-.045-.115-.091-.222-.13-.33zm-4.095-1.205h-.483c-.115.46-.384.86-.783 1.12v.522c.161-.092.33-.184.476-.299v2.017h.46c.008-.82-.008-1.64.008-2.462.122-.292.283-.583.322-.898z" fill="#00499A"/><path d="M27.467 16.734h.507v-.422h-.99v-.222c.277.015.63-.046.744-.338.115-.314.092-.675.084-1.004-.682.007-1.365 0-2.055 0v1.334h.743v.23h-.989v.422c.17 0 .345 0 .514.007-.053.36-.215.721-.514.944v.437c.645-.162.875-.867.974-1.45.046.476.008.951.015 1.427h.476c.016-.476-.046-.959.039-1.427.084.575.337 1.25.95 1.45v-.437c-.29-.222-.444-.59-.498-.951zm-1.25-1.05v-.553h1.135c-.008.2 0 .506-.253.545-.3.03-.599 0-.882.007zm-9.427-.315c.169 0 .345 0 .514-.008.084.391.207.768.36 1.128h-.514c-.184-.353-.276-.737-.36-1.12zm2.278-.008h.514c-.077.384-.177.775-.36 1.12h-.515c.162-.353.284-.729.36-1.12zm1.35.322h.514c.162.253.292.522.414.806h-.506a7.94 7.94 0 0 0-.422-.806zm9.948.153h.936c0 .13 0 .254.008.384h-.936c-.008-.123-.008-.253-.008-.384zM6.013 17.002a1.667 1.667 0 0 1 1.688-1.066c.76.038 1.411.66 1.519 1.411h-.744c-.13-.39-.507-.705-.936-.69-.56-.008-1.035.575-.897 1.12.092.468.567.805 1.035.728.376-.038.66-.337.783-.682.253 0 .49 0 .743.008-.092.475-.345.92-.767 1.173-.568.36-1.366.338-1.902-.084-.552-.422-.783-1.243-.522-1.918zm23.955-.567h.398c.092.352.13.705.162 1.066-.13 0-.269 0-.399.008a8.361 8.361 0 0 0-.161-1.074z" fill="#00499A"/><path d="M30.528 16.434h.414c.076.338.122.66.145.997.13-.33.223-.66.307-1.004h.414a6.32 6.32 0 0 1-.391 1.258h.575v.421h-2.301v-.421h1.304c.03-.07.046-.13.076-.185h-.375a8.277 8.277 0 0 0-.168-1.066zm-9.688.238h.49c-.099.484-.206.974-.398 1.427h-.506c.169-.453.322-.928.414-1.427zM13 19.196c.354-.268.837-.253 1.251-.161-.008.122-.015.253-.03.376-.254-.077-.53-.138-.776 0-.475.245-.514 1.035-.03 1.288.276.161.606.077.897-.008.008.123.008.246.008.36-.476.162-1.067.17-1.465-.183-.468-.445-.384-1.311.146-1.672zm4.128-.206h.475v2.155h-.475v-2.156zm1.495.168c.353-.23.806-.223 1.204-.138v.383c-.268-.092-.598-.145-.851.03-.414.262-.437.952-.03 1.22.275.2.651.123.95.008 0 .13 0 .26.008.391-.437.122-.936.161-1.334-.092-.614-.383-.568-1.419.053-1.802zm-2.363-.092c-.429-.215-.935-.123-1.38-.046v2.117h.46c-.007-.292.031-.576-.03-.86.038.008.122.031.161.031l-.069.03c.03.07.092.2.123.262.276-.008.59-.016.813-.208.406-.322.406-1.073-.077-1.326zm-.245.997c-.161.176-.421.137-.636.207-.115-.292-.031-.63-.039-.936.23-.008.514-.069.698.115.184.169.13.453-.023.613z" fill="#00499A"/></svg>