<svg width="36" height="36" fill="none" xmlns="http://www.w3.org/2000/svg"><path d="M18 0c2.837 0 5.52.656 7.907 1.825C31.884 4.753 36 10.895 36 18c0 9.942-8.058 18-18 18-9.94 0-18-8.057-18-18C0 8.06 8.06 0 18 0z" fill="#F2F4F7"/><path fill-rule="evenodd" clip-rule="evenodd" d="M21.35 16.023c-.337.198-.243.664.136.677.113.004.114.003.216-.064.203-.135.194-.44-.017-.585-.072-.05-.271-.066-.335-.028zm5.27.025c-.152.109-.219.302-.149.431a.8.8 0 0 1 .033.064c.066.142.345.213.47.118a.245.245 0 0 1 .057-.036c.018-.001.096-.115.108-.159.03-.103.006-.263-.048-.317a.13.13 0 0 1-.03-.04.3.3 0 0 0-.07-.056c-.099-.069-.277-.071-.37-.005zm-20.115.008-.027.027v1.787c0 1.607.002 1.788.02 1.806.023.024.659.029.928.008.305-.023.455-.042.53-.065.042-.013.105-.028.138-.033a.414.414 0 0 0 .11-.033.233.233 0 0 1 .064-.024 1.174 1.174 0 0 0 .255-.116 1.151 1.151 0 0 0 .235-.164c.092-.07.212-.207.284-.326a2.03 2.03 0 0 0 .146-.3.372.372 0 0 0 .033-.103.921.921 0 0 1 .032-.129c.063-.188.061-.954-.002-1.072a.488.488 0 0 1-.026-.095.503.503 0 0 0-.038-.12 2.185 2.185 0 0 0-.139-.292 1.485 1.485 0 0 0-.596-.534 1.18 1.18 0 0 0-.212-.091.177.177 0 0 1-.06-.02.672.672 0 0 0-.136-.04.686.686 0 0 1-.122-.031c-.1-.054-1.367-.09-1.417-.04zm-1.465.018c-.004.016-.01.592-.012 1.28-.003.874-.008 1.266-.018 1.297a.869.869 0 0 1-.081.2c-.065.08-.174.175-.202.175a.314.314 0 0 0-.076.032.278.278 0 0 1-.085.032.247.247 0 0 0-.072.021c-.035.016-.105.024-.25.03-.262.01-.244-.009-.244.252 0 .267.004.288.057.297.085.015.582-.037.679-.07a.874.874 0 0 1 .125-.033c.03-.005.06-.016.069-.026a.12.12 0 0 1 .055-.026.251.251 0 0 0 .082-.04.167.167 0 0 1 .056-.03c.032 0 .245-.198.276-.256a.718.718 0 0 0 .137-.245c0-.01.01-.035.02-.057.02-.038.044-.157.07-.346.019-.13.017-2.443-.002-2.483l-.015-.033h-.281c-.282 0-.282 0-.288.029zm6.88.058c-.037.04-.034 3.532.003 3.551.038.02 2.494.019 2.514-.002.011-.01.016-.083.016-.242 0-.16-.005-.232-.016-.243-.011-.012-.247-.016-.98-.016-.94 0-.965 0-.978-.024-.009-.017-.013-.51-.013-1.508 0-1.259-.003-1.486-.019-1.507-.028-.039-.493-.046-.527-.009zm13.057.034c-.025.018-.026.036-.03.41-.004.468.019.424-.217.424-.094 0-.186.005-.204.012l-.033.013v.251c0 .312-.017.291.234.291.244 0 .217-.085.218.701 0 .786.006.853.091 1.018.065.127.29.36.346.36.008 0 .044.014.079.031.11.057.37.08.45.041.033-.015.033-.016.037-.209.005-.26 0-.272-.127-.296-.114-.021-.257-.182-.29-.325-.029-.122-.022-1.29.007-1.308a.913.913 0 0 1 .191-.012c.24 0 .222.024.222-.285v-.258l-.033-.013a1.028 1.028 0 0 0-.195-.012c-.233 0-.21.044-.211-.417 0-.223-.006-.398-.012-.41-.019-.028-.486-.035-.523-.007zm-17.253.437c.028.01.083.023.122.029.255.034.607.275.694.474.008.02.02.035.026.035.006 0 .019.025.027.055.01.03.024.065.034.08.01.015.021.05.026.079.005.028.02.085.033.128.036.112.036.652 0 .757a.987.987 0 0 0-.032.121.415.415 0 0 1-.028.09l-.038.084a1.129 1.129 0 0 1-.16.249 1.373 1.373 0 0 1-.231.177.124.124 0 0 0-.044.025.214.214 0 0 1-.07.034.42.42 0 0 0-.076.03.807.807 0 0 1-.135.042l-.155.036a2.467 2.467 0 0 1-.355.01l-.297-.003-.003-1.264c-.002-.696 0-1.273.003-1.283.01-.026.583-.013.659.015zm7.963.321a.705.705 0 0 0-.186.037.307.307 0 0 1-.08.026.268.268 0 0 0-.08.03.676.676 0 0 1-.089.04.174.174 0 0 0-.054.03.37.37 0 0 1-.046.034.712.712 0 0 0-.148.106c-.006.01-.015.018-.022.018a.48.48 0 0 0-.086.08l-.096.1a1.505 1.505 0 0 0-.238.447.388.388 0 0 1-.027.086c-.045.088-.044.592.001.68.011.02.02.051.02.068 0 .016.018.066.039.111a.601.601 0 0 1 .039.094c0 .007.01.028.024.047l.07.107a.54.54 0 0 0 .066.089c.011.01.02.023.02.03 0 .014.205.216.22.216.005 0 .025.014.046.032.02.018.042.032.048.032.006 0 .03.014.052.032a.263.263 0 0 0 .076.04c.02.005.036.013.036.02 0 .006.024.017.055.025a.56.56 0 0 1 .093.035.637.637 0 0 0 .142.037c.241.04.31.045.407.032.22-.028.305-.044.35-.067a1.596 1.596 0 0 0 .308-.144c.134-.082.399-.341.4-.392 0-.008.009-.022.02-.031a.531.531 0 0 0 .09-.154c.01-.025.03-.069.044-.097a.482.482 0 0 0 .032-.11.211.211 0 0 1 .021-.072c.046-.056.046-.5 0-.633a.46.46 0 0 1-.027-.107c0-.018-.01-.05-.024-.072a.531.531 0 0 1-.04-.09.4.4 0 0 0-.04-.084 7.233 7.233 0 0 1-.067-.104.572.572 0 0 0-.067-.089c-.01-.01-.02-.021-.02-.027 0-.016-.183-.194-.237-.23l-.103-.07a.49.49 0 0 0-.078-.044.955.955 0 0 1-.093-.045.327.327 0 0 0-.094-.036.32.32 0 0 1-.085-.026c-.102-.044-.343-.059-.592-.037zm3.192.041a.64.64 0 0 1-.113.02.615.615 0 0 0-.154.038.465.465 0 0 1-.094.035.18.18 0 0 0-.065.026.328.328 0 0 1-.068.037.268.268 0 0 0-.069.04c-.01.01-.027.02-.036.02-.009 0-.03.014-.046.031-.017.018-.037.033-.044.033-.035 0-.304.294-.304.33 0 .01-.008.022-.017.027-.037.022-.144.257-.17.372l-.031.129c-.038.142-.027.458.019.569a.24.24 0 0 1 .018.07c0 .029.05.158.085.22.01.017.027.051.038.075.046.099.268.363.304.363.006 0 .012.006.012.013 0 .007.024.028.053.048l.106.071c.03.02.064.04.078.044a.765.765 0 0 1 .078.037.53.53 0 0 0 .099.039c.024.005.066.02.092.034.119.06.653.06.789 0a.643.643 0 0 1 .092-.033c.046-.01.2-.085.223-.108.01-.009.023-.016.03-.016.017 0 .157-.104.22-.164.04-.036.052.145.014.193a.323.323 0 0 0-.028.08.353.353 0 0 1-.04.098.147.147 0 0 0-.026.048c0 .044-.196.248-.28.292-.023.012-.042.027-.042.034 0 .007-.01.012-.021.012a.34.34 0 0 0-.088.032c-.174.082-.642.087-.775.007a.391.391 0 0 0-.071-.032c-.035-.011-.07-.036-.164-.12l-.062-.054h-.305c-.35 0-.35 0-.306.09.07.147.308.413.37.413.006 0 .02.009.029.02a.187.187 0 0 0 .056.039c.022.01.055.027.072.037.08.044.18.085.205.085.015 0 .058.012.095.026.162.063.8.063.962 0a.395.395 0 0 1 .094-.026c.03 0 .223-.089.23-.105.002-.006.01-.011.017-.011.063 0 .423-.324.423-.381 0-.005.015-.027.032-.048.018-.02.033-.046.033-.055 0-.009.01-.03.025-.048a.216.216 0 0 0 .034-.07.484.484 0 0 1 .031-.082.593.593 0 0 0 .037-.123c.008-.043.024-.115.036-.161.032-.128.043-2.516.012-2.541-.026-.022-.52-.02-.546 0-.012.01-.016.058-.016.166 0 .187.005.183-.12.084a.618.618 0 0 0-.118-.084c-.01 0-.027-.011-.04-.026a.19.19 0 0 0-.073-.04c-.027-.009-.05-.02-.05-.026 0-.005-.028-.018-.062-.029a.737.737 0 0 1-.107-.041c-.064-.034-.567-.078-.592-.053zm9.884 0a.628.628 0 0 1-.118.02.611.611 0 0 0-.162.039.443.443 0 0 1-.097.034c-.026.005-.052.015-.056.021a.31.31 0 0 1-.074.044.938.938 0 0 0-.17.102c-.11.076-.341.325-.341.367 0 .006-.01.018-.02.027a1.02 1.02 0 0 0-.11.212c0 .005-.01.033-.024.063a.509.509 0 0 0-.033.112 4.32 4.32 0 0 1-.027.151c-.032.162.004.575.057.641a.301.301 0 0 1 .027.065c.015.045.057.131.118.24a1.436 1.436 0 0 0 .47.446.9.9 0 0 0 .215.103.45.45 0 0 1 .09.033c.127.064.682.064.81 0a.448.448 0 0 1 .091-.033.326.326 0 0 0 .084-.033.405.405 0 0 1 .07-.032.735.735 0 0 0 .156-.097.124.124 0 0 1 .028-.02c.078-.043.188-.162.181-.196-.007-.036-.257-.299-.328-.344l-.035-.023-.058.06a.367.367 0 0 1-.068.059.986.986 0 0 1-.269.144.926.926 0 0 1-.445.017 1.701 1.701 0 0 0-.103-.034c-.141-.04-.439-.282-.439-.357 0-.007-.008-.02-.018-.028-.087-.072-.145-.532-.082-.66l.07-.147a.863.863 0 0 1 .466-.412.244.244 0 0 0 .075-.034c.013-.021.423-.015.451.007a.12.12 0 0 0 .046.02c.06 0 .257.127.345.221l.036.038.063-.059a.394.394 0 0 1 .072-.059c.006 0 .012-.005.014-.012s.049-.058.103-.113c.137-.139.138-.146.021-.245-.15-.129-.155-.133-.172-.133-.008 0-.022-.008-.03-.017a.994.994 0 0 0-.22-.112.354.354 0 0 1-.076-.027c-.085-.04-.557-.086-.584-.058zm-7.526.036c-.026.015-.035 2.608-.009 2.658.02.038.52.038.541 0 .029-.054.018-2.643-.011-2.659a2.57 2.57 0 0 0-.52 0zm5.296.004c-.021.025-.021 2.636 0 2.661.011.014.07.018.269.018h.255l.015-.033c.028-.064.02-2.616-.01-2.643-.032-.03-.505-.032-.53-.003zm-3.495.03a.743.743 0 0 0-.16.052c-.01.009-.023.016-.03.016-.064 0-.283.202-.35.323-.11.197-.115.54-.01.712.017.027.03.053.03.059 0 .047.32.287.381.287.013 0 .04.01.063.024.022.013.07.03.105.04a.388.388 0 0 1 .09.031c.014.01.046.02.071.025.32.06.412.38.147.506-.161.076-.418-.062-.418-.225 0-.06-.03-.066-.325-.066-.232 0-.281.003-.295.02-.02.024-.006.162.02.214.011.02.02.047.02.06 0 .042.09.207.152.28.06.07.239.2.275.2.01 0 .032.01.049.022.119.083.606.084.737.001a.316.316 0 0 1 .064-.03 1.105 1.105 0 0 0 .335-.281.19.19 0 0 1 .033-.055.225.225 0 0 0 .032-.05.65.65 0 0 1 .035-.082c.035-.071.036-.079.036-.3v-.226l-.045-.09a.784.784 0 0 0-.065-.11 1.006 1.006 0 0 0-.175-.166.128.128 0 0 1-.05-.027.279.279 0 0 0-.08-.04.185.185 0 0 1-.065-.03.225.225 0 0 0-.082-.031.376.376 0 0 1-.093-.032.275.275 0 0 0-.08-.027.425.425 0 0 1-.1-.034.225.225 0 0 0-.075-.025c-.09 0-.196-.11-.196-.206 0-.212.337-.283.42-.088.042.099.052.102.339.102.231 0 .258-.002.273-.023.024-.031.01-.16-.024-.221a.216.216 0 0 1-.025-.065c0-.047-.158-.24-.248-.305a.84.84 0 0 0-.716-.139zm7.94-.017-.148.032a.272.272 0 0 0-.09.032.172.172 0 0 1-.053.028.245.245 0 0 0-.069.04.168.168 0 0 1-.045.03c-.034 0-.248.254-.248.294a.25.25 0 0 1-.027.07c-.07.137-.03.522.063.63.01.01.035.042.055.07.061.08.28.24.328.24a.38.38 0 0 1 .092.032c.04.018.081.032.093.032a.22.22 0 0 1 .07.026.214.214 0 0 0 .073.026.28.28 0 0 1 .085.032.314.314 0 0 0 .076.032c.075 0 .16.158.146.268-.028.203-.39.28-.485.101-.01-.018-.023-.033-.028-.033-.006 0-.02-.033-.033-.072-.033-.106-.042-.109-.351-.109-.306 0-.305 0-.291.115.012.11.03.182.051.212a.11.11 0 0 1 .019.047.72.72 0 0 0 .128.204c.039.048.219.184.243.184a.33.33 0 0 1 .068.03c.209.11.762.074.864-.055a.281.281 0 0 1 .043-.032c.155-.098.31-.29.338-.418a.42.42 0 0 1 .029-.083c.058-.117.013-.46-.08-.6-.077-.114-.265-.262-.334-.262a.065.065 0 0 1-.038-.019.32.32 0 0 0-.095-.04.555.555 0 0 1-.101-.038.288.288 0 0 0-.084-.026.435.435 0 0 1-.104-.032.422.422 0 0 0-.088-.03.212.212 0 0 1-.082-.04.169.169 0 0 0-.048-.033c-.04 0-.056-.164-.023-.227.043-.082.247-.144.293-.09.009.011.024.02.034.02.022 0 .095.1.095.13 0 .047.027.051.318.048l.282-.004.004-.047c.015-.178-.213-.53-.4-.618a1.45 1.45 0 0 1-.088-.045.148.148 0 0 0-.058-.019.448.448 0 0 1-.086-.018.706.706 0 0 0-.314-.015zm-14.86.454c.06.019.118.039.129.045l.091.05c.125.07.299.26.328.362a.172.172 0 0 0 .026.051c.023.028.058.225.058.325 0 .288-.152.56-.399.714a4.954 4.954 0 0 0-.053.034.312.312 0 0 1-.064.03.945.945 0 0 0-.09.036c-.084.038-.42.038-.505 0a.952.952 0 0 0-.09-.035.234.234 0 0 1-.062-.034.112.112 0 0 0-.049-.024c-.01 0-.03-.015-.045-.033-.016-.017-.033-.032-.038-.032-.07 0-.265-.309-.301-.477-.134-.628.465-1.198 1.064-1.012zm3.199.064a.72.72 0 0 1 .221.117c.018.017.038.03.044.03.048 0 .278.317.278.384 0 .012.012.06.026.105.06.194.013.437-.128.654a1.032 1.032 0 0 1-.327.292.136.136 0 0 1-.052.024.66.66 0 0 0-.11.032.562.562 0 0 1-.226.032.562.562 0 0 1-.226-.032.848.848 0 0 0-.106-.032.142.142 0 0 1-.048-.024 5.48 5.48 0 0 0-.109-.071.994.994 0 0 1-.236-.24c-.19-.342-.172-.715.047-.977a.447.447 0 0 0 .039-.052c.02-.047.233-.193.325-.223a.648.648 0 0 0 .084-.034c.066-.035.402-.025.504.015z" fill="#DF2426"/></svg>