<svg width="36" height="36" fill="none" xmlns="http://www.w3.org/2000/svg"><path d="M18 0c2.837 0 5.52.656 7.907 1.825C31.884 4.753 36 10.895 36 18c0 9.942-8.058 18-18 18-9.94 0-18-8.057-18-18C0 8.06 8.06 0 18 0z" fill="#F2F4F7"/><path fill-rule="evenodd" clip-rule="evenodd" d="M19.898 20.989v-.66h5.031c-.164.371-.247.66-.247.66h-4.784zm0 2.68v-.619h3.423a9.94 9.94 0 0 1-.783.619h-2.64zm-3.876-2.68v-.66h-5.03c.124.371.247.66.247.66h4.783zm0 2.68v-.619H12.56c.37.33.783.619.783.619h2.68zm12.619-5.32c-.124 2.97-1.403 5.608-3.464 7.464h-5.279v.577l4.702-.04a10.631 10.631 0 0 1-6.64 2.308 7.34 7.34 0 0 1-1.937-.247v-2.598h-5.32a10.605 10.605 0 0 1-3.422-7.505l21.36.042zm-3.423-8.164c2.02 1.897 3.299 4.618 3.382 7.587h-3.3s.083-2.804-2.432-5.195h-2.97v5.195h-3.875v-5.278h-2.928c-2.516 2.02-2.516 5.278-2.516 5.278H7.281c.082-3.01 1.402-5.773 3.464-7.628h5.278v-.536l-4.619-.041a10.665 10.665 0 0 1 6.557-2.227c2.474 0 4.783.825 6.597 2.268h-4.66v.536l5.32.041z" fill="#D5011C"/><path fill-rule="evenodd" clip-rule="evenodd" d="M20.558 15.133v-2.02h2.104c.948 1.03 1.401 2.02 1.401 2.02h-3.505zm0 2.64v-2.145h3.629c.371.99.495 2.145.495 2.145h-4.124zm-5.195-2.64v-2.02H13.26c-.99 1.03-1.402 2.02-1.402 2.02h3.505zm0 2.64v-2.145h-3.67c-.371.99-.454 2.145-.454 2.145h4.124zM13.219 7.34c-.042-.124-.578-1.897-.619-2.062-.083-.164 0-.164.165-.206.247-.082.247 0 .618.165.124.083 2.145 1.114 2.145 1.114s.165.123.247.082c.082-.041.165-.041.041-.413a43.075 43.075 0 0 1-.453-1.402s-.083-.206.082-.247c.165-.041.165 0 .248.206.04.206.495 1.69.577 1.856.041.206-.041.289-.247.371-.207.041-.207-.041-.495-.165-.248-.082-2.268-1.113-2.392-1.196-.082-.041-.165.041-.124.165.042.165.495 1.69.495 1.69s.042.125-.082.166c-.124.041-.165.041-.207-.124zm-4-.412 1.567-1.114a.659.659 0 0 1 .907.165l.824 1.155c.165.288.124.7-.165.907l-1.608 1.113c-.288.165-.66.124-.866-.165l-.824-1.154a.66.66 0 0 1 .165-.907zm.288.123 1.279-.907c.247-.165.577-.124.742.124l.66.948c.164.206.082.536-.124.701l-1.32.907c-.206.165-.536.083-.7-.123l-.66-.949c-.165-.247-.124-.536.123-.7zm-1.154 4.66c-.083.124-.207.041-.207.041s-1.484-1.072-1.649-1.196c-.124-.082-.124-.164-.082-.205.04-.083.123-.124.247-.042.041.042.33.248.66.495.041.041.041-.083.206-.248.082-.082.289-1.484.33-1.855-.083-.247.206-.701.288-.289-.082.248-.164.99-.206 1.485 0 .041-.123.454.206.288.825-.165 1.32-.33 1.444-.37.206-.125.33.164.082.247-.041.04-1.938.453-1.938.577-.082.165-.206.33-.206.33.412.288.784.536.784.536s.082.124.04.206zm11.257-5.98v.166a.546.546 0 0 1-.536.536h-1.567c-.289 0-.495-.248-.495-.536V4.784c0-.29.206-.537.495-.537h1.567c.247 0 .454.083.495.289 0 0 .082.124.165.124.082 0 .164-.124.164-.124 0-.247-.288-.536-.618-.536h-1.938c-.371 0-.66.289-.66.618v1.444c0 .33.289.618.66.618h1.938c.33 0 .618-.288.618-.618v-.454s-.04-.206-.247-.206h-.99s-.082.041-.082.124c0 .082.083.124.083.124h.824c.083 0 .124.082.124.082zM6.332 18.805c-.165-.042-2.02-.124-2.185-.124-.165 0-.165-.083-.124-.248 0-.288.082-.247.33-.494.124-.124 1.814-1.65 1.814-1.65s.165-.124.165-.206c0-.083 0-.165-.371-.165a34.477 34.477 0 0 0-1.484-.082s-.248 0-.207-.165c0-.165.042-.165.248-.124.247 0 1.773.082 1.98.082.205 0 .246.165.246.33-.04.206-.123.206-.288.412-.206.207-1.856 1.732-1.938 1.815-.124.082-.041.206.082.206.165 0 1.732.083 1.732.083s.165 0 .165.165c0 .123 0 .165-.165.165zM4.56 22.39l-.495-1.856c-.123-.33.083-.7.454-.783l1.36-.371c.33-.083.702.123.784.453l.495 1.856c.082.371-.124.701-.454.783l-1.36.372c-.372.082-.702-.124-.784-.454zm.206-.247-.412-1.485a.53.53 0 0 1 .371-.66l1.113-.288c.248-.083.536.082.619.371l.412 1.526c.083.247-.082.536-.37.618l-1.114.289c-.289.082-.578-.083-.619-.372zM8.89 25.07c.082.124-.041.206-.041.206l-1.65 1.114c-.165.082-.247.041-.289 0 0-.041-.04-.124.083-.206.041-.041.33-.248.66-.454.041-.041-1.237-2.062-1.237-2.062l-.701.372c-.206.164-.413-.124-.124-.29.165-.082 1.443-.782 1.773-.948.124-.123.29.124.083.248l-.825.454L7.9 25.566c.412-.288.783-.536.783-.536s.123-.082.206.041zM6.95 12.247l.206.083a.488.488 0 0 1 .289.66l-.537 1.442c-.082.29-.37.413-.66.33l-1.072-.412c-.288-.082-.412-.371-.33-.66l.537-1.443c.082-.248.247-.412.453-.371 0 0 .124-.042.165-.124.041-.083-.041-.206-.041-.206-.247-.083-.618.082-.742.412l-.66 1.815a.64.64 0 0 0 .371.824l1.36.495c.33.124.702-.082.784-.371l.701-1.814c.083-.33-.082-.701-.412-.825l-.413-.165s-.206 0-.247.165c-.082.165-.371.948-.371.948s0 .083.082.083c.083.041.165 0 .165 0l.289-.784c0-.082.083-.082.083-.082zm10.144 17.03 1.938-.041c.33 0 .618.247.66.619l.04 1.402c0 .37-.288.66-.618.66l-1.938.04c-.371 0-.66-.247-.66-.618l-.04-1.402c0-.371.247-.66.618-.66zm.206.247 1.567-.04a.5.5 0 0 1 .494.494l.042 1.155c0 .289-.206.536-.495.536l-1.567.041c-.289 0-.536-.206-.536-.495l-.041-1.154c0-.289.247-.537.536-.537zm-5.526.042-.124.165c-.165.247-.453.33-.7.165l-1.32-.866c-.247-.165-.289-.454-.165-.701l.66-.949c.123-.247.453-.33.7-.164l1.32.865c.206.124.33.289.248.495 0 0 0 .124.082.206.082.042.206-.04.206-.04.124-.207.041-.62-.247-.784l-1.608-1.072c-.33-.165-.701-.083-.908.206l-.783 1.196a.66.66 0 0 0 .206.866l1.608 1.03a.659.659 0 0 0 .907-.165l.248-.37s.041-.207-.124-.29c-.124-.123-.825-.577-.825-.577s-.082 0-.123.083a.199.199 0 0 0 0 .165l.66.412a.146.146 0 0 1 .082.124zm.907 1.237c.165.041.207-.082.207-.082l.33-.784 1.855.66s.289.082.289.453c-.041.372-.041.454-.041.454s0 .165.123.165c.124 0 .124-.165.124-.165l.041-.7s.041-.207-.123-.248c0 0 .247-.042.288-.289.082-.206.247-.495.247-.66 0-.288-.247-.37-.247-.37l-2.226-.784-.908 2.144s-.082.165.041.206zm1.031-2.02s1.608.577 1.815.66c.247.081.206.288.206.288l-.206.495s-.165.206-.536.082l-1.691-.577.412-.949zm11.258 1.278c.123-.083.04-.206.04-.206l-.494-.743 1.69-1.278c.165-.124.29-.33.124-.536-.165-.165-.412-.577-.577-.66-.206-.165-.413 0-.413 0l-1.855 1.443 1.278 1.938s.124.124.207.042zm-1.155-1.938s1.402-1.031 1.526-1.155c.206-.165.37-.041.37-.041l.372.495s.082.123-.082.33l-1.608 1.195-.578-.824zm-3.629 1.526.536 1.484a.64.64 0 0 0 .825.371l1.773-.619c.33-.123.495-.453.371-.783l-.536-1.443s-.082-.289-.288-.165c-.083.041 0 .247 0 .247l.495 1.361c.123.247-.042.536-.289.619l-1.443.494c-.289.083-.578-.04-.66-.288l-.495-1.32s-.041-.288-.247-.247c-.165.04-.042.289-.042.289zm4.825-23.67-1.815-.948s-.165-.083-.288.165c-.082.247-.948 1.814-.948 1.814s-.124.124 0 .206l1.896 1.031s.124.041.165-.041c.042-.124-.082-.165-.082-.165l-1.732-.99.454-.783 1.567.866s.123.082.165-.041c.04-.083-.124-.165-.124-.165l-1.526-.825.412-.783s1.196.618 1.691.865c0 0 .124.083.206 0 .082-.123-.041-.206-.041-.206zm1.402.949c-.041-.083-.124-.124-.289.082-.165.206-1.36 1.526-1.36 1.526s-.124.123-.042.206l1.361 1.237s.082.083.165 0c.082-.082-.041-.165-.041-.165L25.012 8.66l1.32-1.484s.164-.165.082-.247zm3.546 3.917-1.196-1.65s-.123-.164-.33 0c-.206.207-1.65 1.197-1.65 1.197s-.164.123-.081.206l1.237 1.731s.082.124.165.042c.082-.042 0-.165 0-.165l-1.155-1.65.784-.494 1.03 1.443s.083.124.165.082c.083-.082-.04-.247-.04-.247l-.99-1.402.7-.495s.784 1.072 1.114 1.485c0 0 .082.164.206.082.124-.041.041-.165.041-.165zm-.66 4.165-.618-1.32c-.124-.247 0-.536.247-.66L30 12.618c.248-.124.537 0 .66.247l.619 1.32c.082.206.123.412-.083.536 0 0-.04.124 0 .206 0 .042.124.083.124.083.247-.124.412-.454.247-.743l-.783-1.649a.59.59 0 0 0-.784-.33l-1.278.536c-.33.165-.495.495-.33.784l.784 1.69c.123.29.453.372.7.29 0 0 .083-.083.042-.166-.041-.124-.206-.082-.289-.041-.123.041-.247-.248-.33-.371zm2.557 3.092s.206 0 .124-.288c-.042-.248-.165-2.02-.165-2.02s0-.166-.165-.166c0 0-.124.124-.124.248 0 .288.082.907.082.907l-1.896.165s-.165 0-.124.123c0 .083.206.083.206.083l1.856-.165.082.866c-.041.165.124.247.124.247zm-4.206 6.433.742-1.278c.124-.248.412-.289.66-.165l.948.619c.247.123.33.453.206.66l-.742 1.278c-.123.206-.288.33-.495.288 0 0-.123 0-.165.083-.041.04 0 .165 0 .165a.616.616 0 0 0 .784-.248l.907-1.567c.165-.288.041-.66-.248-.866l-1.154-.7a.558.558 0 0 0-.825.165l-.907 1.607c-.165.289-.082.578.124.743 0 0 .123.04.206-.042.041-.082-.083-.206-.124-.288-.123-.082 0-.33.083-.454zm3.216-1.773c.041-.041.083-.165-.165-.247-.288-.083-1.649-.66-1.649-.66s-.165-.082-.206.041c0 0-.041.124.165.206.371.165 1.567.66 1.567.66s.247.124.288 0zm-1.484-4.33c-.041.124.082.165.082.165l.866.165-.288 1.98s-.042.247-.413.33c-.371.04-.453.04-.453.04s-.124.042-.124.166c.04.123.165.123.165.123l.742-.123s.206 0 .206-.207c0 0 .082.248.33.289.206 0 .536.082.701.082.247-.082.288-.33.288-.33l.33-2.308-2.268-.495s-.164-.042-.164.123zm2.144.577s-.247 1.691-.247 1.898c-.042.288-.248.288-.248.288l-.536-.124s-.247-.082-.206-.495l.289-1.773.948.206z" fill="#D5011C"/></svg>