<svg xmlns="http://www.w3.org/2000/svg" width="36" height="36" fill="none"><path fill="#F2F4F7" d="M18 0a18 18 0 1 1 0 36 18 18 0 0 1 0-36z"/><path fill="#FFEA00" fill-rule="evenodd" d="m14.99 9.1-.24.1a.52.52 0 0 0-.18.12.52.52 0 0 1-.17.11.53.53 0 0 0-.19.13.57.57 0 0 1-.17.12c-.03 0-.08.05-.12.1a5.7 5.7 0 0 0-1.07 1.07c-.05.04-.1.09-.1.12-.02.04-.01.04.02.02.05-.04.59-.01.68.04.05.03.17.04.42.05.29.02.36.03.44.07.05.03.12.05.17.05.04 0 .1.03.14.06.06.05.1.06.21.06.12 0 .16.01.23.06l.12.06.11.06c.05.03.14.06.21.06.15.02.13.03.5-.4a3.67 3.67 0 0 1 .68-.65.68.68 0 0 1 .2-.15.4.4 0 0 0 .13-.11c.03-.05.1-.1.13-.1a.3.3 0 0 0 .12-.07c.03-.04.07-.06.08-.06.02 0 .06-.03.1-.06a.3.3 0 0 1 .14-.06l.07-.02a.89.89 0 0 1 .3-.19c.06-.01.18.05.34.17.02.02.07.04.12.05.04 0 .13.06.2.12.06.06.14.1.17.1s.1.05.15.1a1.51 1.51 0 0 0 .36.28c.15.1.87.84.91.94.06.13.33.16.45.05a.43.43 0 0 1 .12-.06l.14-.07a.3.3 0 0 1 .18-.05c.1 0 .15-.01.22-.06a.35.35 0 0 1 .16-.06c.04 0 .13-.02.2-.06.11-.05.16-.05.38-.05.17 0 .3-.02.4-.05.1-.03.28-.05.4-.06l.25-.02.08.08c.05.04.07.06.05.03a6.7 6.7 0 0 0-1.12-1.22c-.13-.13-.21-.19-.25-.19-.04 0-.09-.03-.15-.1a.5.5 0 0 0-.18-.14c-.1-.03-.1-.03-.23-.15a.27.27 0 0 0-.16-.08c-.03 0-.08-.03-.11-.06s-.08-.06-.11-.06a.42.42 0 0 1-.14-.04c-.07-.04-.1-.04-.23-.01-.08.02-.28.04-.45.05a.97.97 0 0 0-.4.07.68.68 0 0 1-.32.05c-.16 0-.21 0-.3.06a.5.5 0 0 1-.18.06c-.04 0-.1.02-.13.05a.48.48 0 0 1-.19.06c-.12.02-.32.11-.44.2-.09.06-.24.05-.35-.02a.37.37 0 0 0-.12-.06.23.23 0 0 1-.09-.05.41.41 0 0 0-.18-.06.5.5 0 0 1-.2-.05.6.6 0 0 0-.17-.07.64.64 0 0 1-.17-.07.75.75 0 0 0-.3-.05.87.87 0 0 1-.32-.06 1.26 1.26 0 0 0-.45-.06l-.44-.05c-.11-.04-.18-.02-.36.07zm-3.2 3.58v.08c0 .03 0 .02.02-.03 0-.08 0-.1-.02-.05zm-.24.9v.04a.2.2 0 0 0 0-.09v.05zm12.9.54c0 .05 0 .07.01.04a.2.2 0 0 0 0-.08v.04zm-12.96.2c-.02.1 0 .11.02.01v-.08s-.02.02-.02.06zm-.06.46c0 .1 0 .14.01.1v-.18.09zm13.04-.02c0 .05.01.07.02.04a.2.2 0 0 0 0-.08c-.01-.02-.02 0-.02.04z" clip-rule="evenodd"/><path fill="#F9BE00" fill-rule="evenodd" d="m17.9 9.7-.25.17c0 .02-.04.03-.07.03a.3.3 0 0 0-.13.06.33.33 0 0 1-.1.06c-.02 0-.06.02-.09.06a.28.28 0 0 1-.12.07c-.04 0-.1.05-.13.1a.4.4 0 0 1-.13.1l-.2.16-.32.27c-.1.08-.26.25-.36.38l-.3.33c-.12.14-.12.13 0 .16.07.02.12.05.14.08.01.03.05.04.1.04.06 0 .1.02.12.06l.07.06.07.04.12.07c.09.03.25.18.25.22 0 .02.03.03.07.03.06 0 .1.02.2.12l.25.23a11.14 11.14 0 0 1 .64.65c0 .04.17.18.22.19.07 0 .18-.06.2-.13a7.58 7.58 0 0 1 .95-.94c.05-.08.1-.12.16-.12.02 0 .07-.03.11-.07l.12-.12a.2.2 0 0 1 .12-.05c.05 0 .1-.03.23-.17a.19.19 0 0 1 .14-.07c.04 0 .09-.02.11-.04a.25.25 0 0 1 .12-.07c.12-.02.15-.06.08-.11a7.3 7.3 0 0 0-1.51-1.41c-.03 0-.11-.05-.18-.11a.58.58 0 0 0-.2-.12.34.34 0 0 1-.11-.05c-.2-.16-.3-.2-.4-.16z" clip-rule="evenodd"/><path fill="#C4D600" fill-rule="evenodd" d="M12.7 11.06a.52.52 0 0 0-.09.1c0 .02-.02.05-.05.08a.22.22 0 0 0-.05.1c0 .03-.04.1-.1.16a.64.64 0 0 0-.14.23c-.03.1-.16.31-.2.34-.02 0-.03.07-.04.14-.01.08-.03.15-.05.17a.45.45 0 0 0-.07.13.45.45 0 0 1-.07.13c-.04.04-.04.06-.05.24a.3.3 0 0 1-.04.15.59.59 0 0 0-.07.2.83.83 0 0 1-.08.21c-.03.05-.04.13-.05.36 0 .32-.02.42-.07.63-.04.14-.04.51-.01.53.01 0 .04-.01.06-.04.03-.05.06-.06.18-.07.1-.01.16-.03.19-.06.02-.03.1-.05.17-.06.08-.01.13-.03.15-.06.03-.04.08-.05.36-.06.3 0 .34-.01.4-.06.1-.07.94-.07 1.02 0 .05.05.24.08.34.06l.07-.02v-.22c0-.19 0-.23.05-.3a.6.6 0 0 0 .06-.2.34.34 0 0 1 .07-.17c.04-.05.05-.12.06-.35 0-.02.01-.05.03-.06a.31.31 0 0 0 .09-.18c0-.02.02-.07.06-.1.03-.05.06-.1.06-.16 0-.04.02-.09.04-.12a.24.24 0 0 0 .06-.1c.01-.04.04-.1.08-.12a.16.16 0 0 0 .05-.12c0-.04.02-.09.05-.1.04-.05.12-.18.18-.3.1-.22.34-.34.44-.23.04.04.08.06.13.06a.2.2 0 0 1 .13.06c.15.14.2.18.25.18.03 0 .1.04.16.12.08.07.13.11.17.11.04 0 .12.06.24.18.34.32.73.72.85.85.2.23.41.25.48.04.03-.1.75-.83.82-.83.05 0 .13-.07.16-.15a.13.13 0 0 1 .09-.07l.13-.08c.12-.12.15-.14.23-.16.04 0 .12-.06.18-.12a.46.46 0 0 1 .22-.13c.07-.02.13-.04.14-.06.08-.13.34 0 .38.17 0 .05.04.1.07.12.03.02.05.05.05.07l.05.08c.03.03.05.08.06.13.01.04.06.14.12.22.06.08.1.18.12.24 0 .06.04.14.07.18.03.03.06.08.06.1 0 .03.03.08.06.13.04.05.06.1.06.19 0 .07.01.13.05.17l.06.15c0 .05.04.13.07.19.04.08.05.14.06.38 0 .16.02.3.03.3.04.05.34.02.4-.02.07-.07.96-.07 1.03 0 .05.04.1.05.4.06.28 0 .34.02.38.05.03.03.1.05.17.06.06.01.15.05.18.07.05.04.1.05.16.05.07 0 .1.01.13.04.1.14.12-.75.01-.95a.87.87 0 0 1-.05-.37c-.01-.23-.02-.28-.07-.34a.27.27 0 0 1-.05-.14.3.3 0 0 0-.06-.15.35.35 0 0 1-.06-.21c0-.1 0-.15-.06-.2a.25.25 0 0 1-.05-.13.15.15 0 0 0-.06-.11.14.14 0 0 1-.06-.12.3.3 0 0 0-.06-.16.3.3 0 0 1-.06-.12c0-.03-.03-.06-.06-.08a.13.13 0 0 1-.06-.12c0-.04-.02-.1-.04-.1a1.27 1.27 0 0 1-.2-.33.7.7 0 0 0-.17-.17l-.14-.13-.24.02c-.13 0-.3.03-.4.06-.1.03-.23.05-.4.05-.22 0-.27 0-.38.05a.63.63 0 0 1-.2.06.35.35 0 0 0-.16.06.33.33 0 0 1-.22.06.3.3 0 0 0-.18.05.57.57 0 0 1-.14.07.43.43 0 0 0-.12.06.34.34 0 0 1-.16.05.35.35 0 0 0-.16.06.32.32 0 0 1-.12.05c-.04.01-.1.04-.12.07a.17.17 0 0 1-.11.04c-.05 0-.1.02-.14.07-.14.14-.18.17-.23.17a.2.2 0 0 0-.12.05l-.12.12c-.04.04-.09.07-.11.07-.06 0-.1.04-.16.12a7.58 7.58 0 0 0-.95.94c-.02.07-.13.14-.2.13-.05-.01-.22-.15-.22-.19 0 0-.02-.04-.05-.06a11.16 11.16 0 0 0-.84-.82c-.1-.1-.14-.12-.2-.12-.04 0-.07-.01-.07-.03 0-.04-.16-.19-.25-.22a.46.46 0 0 1-.12-.07l-.07-.04-.07-.06a.13.13 0 0 0-.12-.06c-.05 0-.09-.01-.1-.04-.02-.03-.07-.06-.13-.08-.06-.01-.11-.04-.12-.06 0-.02-.05-.03-.1-.03a.33.33 0 0 1-.19-.06.36.36 0 0 0-.12-.06.36.36 0 0 1-.12-.06c-.07-.05-.11-.06-.23-.06-.11 0-.15 0-.2-.06a.25.25 0 0 0-.15-.06.44.44 0 0 1-.17-.05c-.08-.04-.15-.05-.44-.07a1.3 1.3 0 0 1-.42-.05 1.12 1.12 0 0 0-.37-.05l-.3-.02-.08.1z" clip-rule="evenodd"/><path fill="#5BB12A" fill-rule="evenodd" d="M15.49 11.83a.94.94 0 0 0-.15.18c-.04.09-.13.22-.17.27a.18.18 0 0 0-.05.11c0 .05-.02.09-.05.12a.26.26 0 0 0-.08.12c0 .03-.03.08-.06.1a.17.17 0 0 0-.04.12c0 .05-.03.1-.06.15a.2.2 0 0 0-.06.11.3.3 0 0 1-.09.18c-.02.01-.03.04-.03.06 0 .23-.02.3-.06.35a.36.36 0 0 0-.07.17.6.6 0 0 1-.06.2c-.05.07-.05.11-.05.3v.22l-.07.02c-.1.02-.29-.01-.34-.06a2.48 2.48 0 0 0-1.02 0c-.06.05-.1.06-.4.06-.28.01-.33.02-.36.06-.02.03-.07.05-.15.06-.08 0-.15.03-.17.06-.03.03-.1.05-.19.06-.12.01-.15.02-.18.07-.02.03-.05.05-.06.04l-.02.01c0 .05.05.05.1 0 .04-.06.07-.07.16-.07.11 0 .24-.03.24-.07l.13-.05a.54.54 0 0 0 .19-.07c.03-.03.1-.04.37-.05.24 0 .33-.02.36-.04.08-.07.76-.07.96 0 .17.05.22.05.53 0 .1 0 .13 0 .24.05.06.04.16.07.2.08.06 0 .12.03.15.06.04.03.1.05.16.05s.12.02.18.06l.1.05.1.06c.04.03.11.07.16.07a.6.6 0 0 1 .28.18.2.2 0 0 0 .11.05c.04 0 .1.04.2.13l.15.13c.03 0 .06.03.2.15.1.08.16.08.18-.01.01-.04.04-.1.07-.13.04-.05.05-.1.05-.2s.01-.15.05-.2l.07-.14c.01-.05.04-.09.05-.09.02 0 .07-.13.07-.2 0-.05.02-.1.06-.12.03-.03.06-.07.06-.1a.3.3 0 0 1 .06-.12.3.3 0 0 0 .06-.14c0-.03.04-.1.11-.17.08-.08.12-.15.12-.19 0-.07.17-.24.25-.24.07 0 .15.08.2.19.01.04.04.08.06.09.02 0 .04.03.04.06 0 .02.03.08.07.12.05.06.07.1.07.16 0 .05.02.08.06.1l.06.07c0 .02.02.05.05.08.02.03.05.1.06.17 0 .07.04.14.07.18l.06.11c0 .02.02.07.06.1.05.04.06.07.06.18 0 .1 0 .15.04.2.03.03.06.1.06.16.03.2.12.2.3.02a.8.8 0 0 1 .15-.11l.11-.1a.43.43 0 0 1 .17-.13c.04 0 .1-.04.13-.07.03-.03.07-.06.09-.06.01 0 .06-.02.1-.06a.3.3 0 0 1 .15-.06c.04 0 .09-.02.12-.06.03-.03.07-.06.1-.06.02 0 .07-.02.1-.05.06-.05.1-.06.17-.06a.3.3 0 0 0 .16-.05.51.51 0 0 1 .17-.06.4.4 0 0 0 .16-.06c.09-.07.17-.08.4-.05.18.03.22.03.4-.02.24-.06.76-.07.91-.01.06.02.2.04.4.05.25 0 .33.02.38.05a.5.5 0 0 0 .17.06.6.6 0 0 1 .17.07c.04.02.13.05.19.05.06.01.14.04.17.07.06.05.1.03.1-.04 0-.04 0-.04-.03-.02-.02.02-.03.02-.05-.01-.02-.03-.06-.04-.13-.04a.23.23 0 0 1-.16-.05.47.47 0 0 0-.18-.07.4.4 0 0 1-.17-.06c-.04-.03-.1-.04-.39-.05-.29-.01-.34-.02-.39-.06a2.58 2.58 0 0 0-1.04 0c-.05.04-.35.07-.4.03l-.02-.3c0-.25-.02-.31-.06-.4a.67.67 0 0 1-.07-.18.39.39 0 0 0-.06-.15.27.27 0 0 1-.05-.17.29.29 0 0 0-.06-.2.3.3 0 0 1-.06-.12c0-.02-.03-.07-.06-.1a.43.43 0 0 1-.07-.18.71.71 0 0 0-.12-.24.88.88 0 0 1-.12-.22.2.2 0 0 0-.06-.13l-.05-.08c0-.02-.02-.05-.05-.07a.2.2 0 0 1-.07-.12c-.04-.18-.3-.3-.38-.17 0 .02-.07.04-.14.06a.46.46 0 0 0-.22.13.52.52 0 0 1-.18.12c-.08.02-.11.04-.23.16a.35.35 0 0 1-.13.08.13.13 0 0 0-.1.07c-.02.08-.1.15-.15.15-.07 0-.8.73-.82.83-.07.21-.27.2-.48-.04-.12-.13-.51-.53-.85-.85-.12-.12-.2-.18-.24-.18-.04 0-.1-.04-.17-.11-.07-.08-.13-.12-.16-.12-.05 0-.1-.04-.25-.18a.2.2 0 0 0-.14-.06.16.16 0 0 1-.12-.06c-.08-.1-.16-.08-.3.07z" clip-rule="evenodd"/><path fill="#1B873F" fill-rule="evenodd" d="M17.83 13.79c-.06.05-.1.11-.1.14 0 .04-.04.1-.12.19-.07.07-.11.14-.11.17a.3.3 0 0 1-.06.14.3.3 0 0 0-.06.12c0 .03-.03.07-.06.1a.17.17 0 0 0-.06.11c0 .08-.05.21-.07.21-.01 0-.04.04-.05.1a.57.57 0 0 1-.07.14c-.04.04-.05.1-.05.2s-.01.14-.05.2a.43.43 0 0 0-.07.12c-.02.09-.08.1-.17.01-.15-.12-.18-.15-.2-.15a.77.77 0 0 1-.16-.13c-.1-.09-.16-.13-.2-.13a.2.2 0 0 1-.11-.05.56.56 0 0 0-.28-.18.48.48 0 0 1-.16-.07.37.37 0 0 0-.1-.06.46.46 0 0 1-.1-.05.33.33 0 0 0-.18-.06.28.28 0 0 1-.16-.05.43.43 0 0 0-.16-.07.78.78 0 0 1-.2-.07.43.43 0 0 0-.33-.03c-.04.02-.02.02.1.02.1 0 .17.02.22.05.04.03.11.06.17.07a.4.4 0 0 1 .16.06.4.4 0 0 0 .17.06.8.8 0 0 1 .27.1l.2.11a.2.2 0 0 0 .1.03c.05 0 .24.12.29.2.02.02.06.04.1.04.05 0 .1.03.2.12.07.07.2.18.3.25a2.59 2.59 0 0 1 .7.73c.05.07.11.15.13.2.02.03.07.1.11.13.04.04.1.12.11.18.02.06.05.13.07.14l.04.06c0 .02.04.06.1.1l.09.08.04-.06.08-.13.06-.15a.44.44 0 0 1 .12-.2 5.9 5.9 0 0 1 1.74-1.64c.03-.02.1-.05.13-.05.04 0 .1-.03.14-.07.05-.04.1-.07.13-.07.02 0 .06-.02.08-.05.03-.03.08-.05.13-.05s.14-.02.2-.06a.5.5 0 0 1 .17-.06.5.5 0 0 0 .17-.05.53.53 0 0 1 .28-.07c.17 0 .17 0 .06-.02-.14-.03-.3-.01-.36.04a.41.41 0 0 1-.17.07.51.51 0 0 0-.17.06.34.34 0 0 1-.16.05.24.24 0 0 0-.16.06.31.31 0 0 1-.11.05c-.03 0-.07.03-.1.06a.19.19 0 0 1-.12.06.3.3 0 0 0-.14.06.31.31 0 0 1-.11.06c-.02 0-.06.03-.09.06a.29.29 0 0 1-.13.07.43.43 0 0 0-.17.12c-.05.06-.1.1-.11.1l-.14.12c-.2.18-.28.18-.3-.02a.47.47 0 0 0-.07-.16c-.03-.05-.04-.1-.04-.2s-.01-.14-.06-.18a.16.16 0 0 1-.06-.1c0-.02-.03-.07-.06-.1a.4.4 0 0 1-.07-.2.36.36 0 0 0-.06-.16c-.03-.03-.05-.06-.05-.08l-.06-.06c-.04-.03-.06-.06-.06-.11s-.02-.1-.07-.16a.26.26 0 0 1-.07-.12.07.07 0 0 0-.04-.06c-.02 0-.05-.05-.06-.1-.09-.2-.2-.22-.35-.08z" clip-rule="evenodd"/><path fill="#18A0EA" fill-rule="evenodd" d="m13.04 14.63-.39.04c-.27 0-.33.02-.37.05a.41.41 0 0 1-.17.07.4.4 0 0 0-.18.07c-.04.03-.08.04-.2.04-.12 0-.14.01-.17.06-.03.04-.06.06-.08.05-.07-.02-.06.21.02.53.03.12.04.26.04.45 0 .23 0 .28.06.38.03.06.06.16.07.23 0 .06.04.14.06.17.03.04.05.1.05.18 0 .1.04.23.07.23l.05.1c.01.06.05.13.07.16.03.03.05.1.05.14 0 .07.01.1.05.15.04.02.07.08.08.12 0 .03.03.08.06.1.02.03.04.08.04.12 0 .05.03.1.12.19.08.08.12.14.12.18 0 .04.04.1.12.18.08.07.12.13.12.17 0 .04.04.1.12.18l.33.33a5.4 5.4 0 0 0 1.39 1.17c.07.06.15.1.18.1s.08.03.11.06.08.06.12.07c.04 0 .1.04.11.06.03.03.07.05.12.05.05 0 .1.02.15.06.04.03.09.06.12.06s.07.02.1.05c.04.05.08.06.23.07.13.01.18.03.22.06a.2.2 0 0 0 .12.06.5.5 0 0 1 .18.05c.1.06.14.06.34.06a5.97 5.97 0 0 0 2.59 0c.23 0 .3-.02.34-.05l.15-.06a.67.67 0 0 0 .19-.07.38.38 0 0 1 .21-.05c.1 0 .14-.01.18-.06a.18.18 0 0 1 .13-.06c.04 0 .08-.02.1-.06.03-.05.06-.06.13-.06.1 0 .31-.12.36-.19.02-.03.05-.05.1-.05.06 0 .1-.02.14-.06.03-.03.07-.06.1-.06l.1-.05a.58.58 0 0 1 .12-.08c.04-.01.1-.07.14-.11.04-.05.09-.09.11-.09a6.77 6.77 0 0 1 .45-.36c.19-.16.36-.33.51-.51a6.77 6.77 0 0 1 .37-.44c0-.02.04-.08.1-.13.05-.05.1-.1.1-.14l.07-.1c.03-.03.06-.08.06-.1l.06-.11c.03-.04.06-.1.06-.14 0-.04.02-.08.04-.1.07-.04.2-.27.2-.35 0-.05.02-.1.06-.13a.19.19 0 0 0 .05-.1c0-.04.03-.1.06-.13.05-.05.06-.1.06-.19 0-.07.02-.14.05-.2a.67.67 0 0 0 .08-.18.38.38 0 0 1 .06-.15c.03-.04.04-.1.05-.34.01-.23.03-.3.07-.38.04-.09.05-.14.05-.44 0-.46 0-.44-.03-.4-.03.02-.05 0-.09-.04-.03-.04-.07-.06-.15-.06a.28.28 0 0 1-.18-.06.29.29 0 0 0-.17-.06.26.26 0 0 1-.15-.05c-.06-.05-.1-.05-.4-.06-.2-.01-.36-.03-.39-.05a3.42 3.42 0 0 0-1.12.05c-.2.02-.18-.04-.16.45a5.99 5.99 0 0 1-.12 1.77c-.02.24-.03.3-.07.35a.27.27 0 0 0-.05.14.2.2 0 0 1-.05.13c-.04.04-.06.1-.07.21 0 .12-.02.18-.07.23a.19.19 0 0 0-.05.1.3.3 0 0 1-.06.13.3.3 0 0 0-.06.15c0 .05-.02.1-.06.13-.03.03-.06.08-.06.1 0 .04-.03.08-.06.11-.03.04-.06.09-.06.12s-.04.1-.1.18a.69.69 0 0 0-.12.18.56.56 0 0 1-.13.18c-.08.08-.12.14-.12.18 0 .05-.03.08-.1.13a7.38 7.38 0 0 1-1.89 1.61.95.95 0 0 1-.2.08l-.16.06-.12-.05a.77.77 0 0 0-.16-.06.55.55 0 0 1-.16-.1.62.62 0 0 0-.2-.12c-.04-.01-.08-.03-.09-.05a.7.7 0 0 0-.18-.13.94.94 0 0 1-.26-.2c-.07-.08-.11-.1-.16-.1-.06 0-.08-.02-.11-.1-.03-.07-.06-.1-.12-.12a.28.28 0 0 1-.14-.12.42.42 0 0 0-.13-.13.27.27 0 0 1-.1-.12.2.2 0 0 0-.12-.12c-.08-.03-.1-.07-.1-.15 0-.02-.05-.07-.1-.12-.09-.06-.26-.3-.26-.34a.32.32 0 0 0-.06-.1.16.16 0 0 1-.06-.1l-.12-.17c-.09-.1-.12-.16-.12-.21 0-.04-.01-.08-.03-.1a.79.79 0 0 1-.2-.34c0-.05-.07-.2-.13-.32-.08-.16-.11-.24-.11-.32a.47.47 0 0 0-.05-.19.7.7 0 0 1-.06-.19.8.8 0 0 0-.08-.2c-.04-.1-.05-.14-.05-.38 0-.2-.01-.32-.05-.45a4.99 4.99 0 0 1 0-1.29c.1-.14.05-.23-.16-.23a3.19 3.19 0 0 0-1.14-.04zm8 9.06c-.12.18-.12.18-.47.18-.4 0-.4 0-.39.27.02.26-.07.24 1.08.24 1.17 0 1.08.02 1.1-.25 0-.24 0-.24-.37-.25-.35-.02-.37-.02-.3-.09.1-.12.01-.16-.37-.16-.23 0-.24 0-.28.06zm4.75-.01a.2.2 0 0 0-.04.11v.08h-.38c-.33 0-.38 0-.41.04-.06.06-.06 2.35 0 2.49l.03.08h.25c.35 0 .32.1.32-1.08 0-.54.01-.99.02-1 .02-.03.3-.03 1.33-.03h1.32l.01 1c.02 1.2-.01 1.1.32 1.1.36 0 .32.13.32-1.25l-.01-1.14-.07-.06c-.18-.15-.1-.14-1.23-.15l-1.05-.01-.01-.1c-.02-.12-.04-.13-.38-.13-.26 0-.3 0-.34.05zm.67.01c.02.01.02.05.02.09-.03.14-.05.14 1.08.14h1.03l.1.08c.17.13.17.07.17 1.25 0 1.29.02 1.18-.3 1.18-.3 0-.27.12-.27-1.06 0-.78 0-.95-.04-1-.05-.06-2.63-.08-2.68-.01-.03.03-.03.26-.03 1 0 1.16.02 1.07-.3 1.07h-.25l-.01-.08v-2.42l.39-.01c.41-.02.43-.02.42-.15l.01-.08c.02-.02.62-.02.66 0zm-4.77.01c.02.01.02.03-.02.06-.12.11-.06.14.32.16h.3v.2l-.01.2c-.04.03-2 .02-2.03-.01-.02-.02-.03-.1-.02-.2v-.18l.34-.01c.36-.02.46-.05.46-.17 0-.02.01-.05.03-.05.05-.02.6-.02.63 0zm-14.64.2c-.04.04-.05.1-.05 1.88v1.84l.07.06c.03.03.08.06.1.06.02 0 .03 0 .03.02 0 .01.04.04.1.06l.12.06c.08.04 2.64.03 2.68-.02.04-.05.06-.57.02-.62-.02-.03-.17-.04-1-.05l-.98-.01v-1l.01-.1h.97c1.13 0 1.02.02 1.02-.28 0-.29.09-.27-1.04-.28h-.96v-1l.98-.01c.83-.01.98-.02 1-.05.04-.07.03-.5-.02-.55a27.8 27.8 0 0 0-3.05 0zm3.9 0-.05.04v1.92c0 1.9 0 1.92.05 1.98l.05.06h.36c.33 0 .37 0 .42-.04l.06-.05.01-1.29.01-1.29h.06c.05 0 .06.02.08.1 0 .05.03.1.06.13.06.05.16.2.2.31 0 .05.04.1.05.12l.04.05c0 .02.03.06.06.09s.06.08.06.12c0 .04.03.09.07.14.04.04.07.08.07.1l.06.11c.03.05.06.1.06.13 0 .02.05.1.1.17.07.08.11.14.11.19 0 .03.03.09.06.12a.3.3 0 0 1 .06.07l.06.09.08.15c.03.1.16.3.2.3 0 0 .04.01.06.04.15.15.87.19 1.03.05.07-.05.06-3.84 0-3.9a2.26 2.26 0 0 0-.92 0 5 5 0 0 0-.04 1.3c0 1 0 1.27-.02 1.26-.02 0-.04-.04-.04-.08 0-.03-.04-.1-.08-.14l-.07-.11c0-.02-.01-.05-.03-.06a.31.31 0 0 1-.07-.13.72.72 0 0 0-.13-.22c-.06-.07-.1-.15-.1-.18s-.03-.1-.07-.14l-.1-.12a.44.44 0 0 1-.07-.14.9.9 0 0 0-.2-.33.15.15 0 0 1-.04-.1.18.18 0 0 0-.05-.11.29.29 0 0 1-.08-.12.25.25 0 0 0-.06-.1.16.16 0 0 1-.04-.1c0-.06-.2-.32-.28-.4a3.77 3.77 0 0 0-1.05.02zm4.4.01c-.05.06-.06 3.77 0 3.91l.03.08h.43c.56 0 .5.18.5-1.38 0-.7 0-1.27.02-1.28.02-.03.17.14.17.2 0 .04.03.1.06.13l.06.11c0 .02.02.07.06.1l.06.12c0 .05.03.1.18.29.02.01.04.07.06.12a.8.8 0 0 0 .14.25c.07.08.11.16.12.2 0 .04.03.1.1.18.06.06.1.14.1.17l.07.13.06.1c0 .02.03.07.07.12.04.04.07.1.07.14 0 .07.06.11.14.11.02 0 .06.03.1.06.02.04.07.06.1.06.04 0 .1.02.14.04.14.06.66.04.7-.04.05-.1.04-3.87-.01-3.92a2.3 2.3 0 0 0-.92 0c-.03.04-.03.2-.03 1.24 0 1.18-.01 1.31-.08 1.18a.3.3 0 0 0-.07-.08.12.12 0 0 1-.05-.1c0-.05-.02-.1-.06-.13-.03-.03-.06-.08-.06-.1a.18.18 0 0 0-.05-.12.17.17 0 0 1-.06-.12c0-.05-.02-.09-.05-.1a.72.72 0 0 1-.2-.3c0-.05-.15-.3-.18-.3-.01 0-.04-.04-.05-.1a.65.65 0 0 0-.18-.29.2.2 0 0 1-.06-.11.23.23 0 0 0-.05-.13c-.04-.03-.06-.08-.06-.11s-.03-.08-.06-.1a.16.16 0 0 1-.06-.13c0-.12-.03-.13-.62-.14-.5 0-.54 0-.58.04zm7.43-.02c-.07.02-.12.09-.24.31l-.05.1v3.48l.06.07c.06.06.08.06.3.06.36 0 .32.13.34-1.26l.01-1.17h.28l.02 1.16c.01 1.4-.02 1.27.32 1.27s.3.13.32-1.25v-1.18l.1-.01c.12-.02.13-.05.13-.25 0-.26.04-.25-.61-.26h-.56v-.26c-.02-.35-.06-.32.58-.32.63 0 .6.01.6-.26 0-.25.04-.24-.81-.24l-.8.02zm-12.67.29-.01.27c-.01 0-.4.02-.98.01-.7 0-.96 0-.98.03a3.96 3.96 0 0 0 0 1.06c.02.02.33.03 1 .03h.97v.19c.02.3.11.27-.98.27-.77 0-.96 0-.99.03-.05.05-.06 1.1 0 1.14.02.02.3.03.98.03l.98.01c.03.02.03.47 0 .54l-.03.05H9.3l-1.36-.02h-.6l-.1-.07a.37.37 0 0 0-.12-.06c-.02 0-.05-.02-.06-.04-.04-.08-.04-3.69 0-3.71.01-.01.7-.02 1.53-.02h1.5l.01.26zm2-.11c.06.08.12.19.14.24.01.06.04.11.06.13.02.01.04.04.04.06 0 .02.03.07.07.1.06.06.07.1.07.14-.01.04 0 .07.05.11.04.03.07.07.07.1l.06.1c.03.05.06.1.06.14 0 .03.05.1.1.18.06.07.12.16.13.2a.7.7 0 0 0 .16.25l.07.13c.04.12.1.24.18.32a.2.2 0 0 1 .07.13c0 .09.05.13.1.1.03-.02.03-.2.04-1.3l.01-1.27h.86c.07.01.07 3.82 0 3.87-.08.06-.78.03-.89-.03l-.14-.08a.3.3 0 0 1-.09-.1.38.38 0 0 0-.06-.1l-.04-.1a.82.82 0 0 0-.14-.22c-.07-.08-.1-.14-.1-.18a.19.19 0 0 0-.05-.12.74.74 0 0 1-.2-.29.5.5 0 0 0-.06-.15.2.2 0 0 1-.05-.08c0-.02-.02-.05-.06-.08-.04-.02-.06-.05-.06-.11 0-.05-.01-.1-.04-.11a1.35 1.35 0 0 1-.22-.4c0-.02-.03-.06-.16-.2a.23.23 0 0 1-.05-.14c0-.07-.17-.22-.21-.2-.02.01-.03.46-.03 1.32 0 .86 0 1.32-.02 1.35a1.8 1.8 0 0 1-.8.02 59 59 0 0 1 0-3.87l.51-.01h.5l.11.15zm4.38-.12.02.1c0 .03.03.07.06.1l.06.1c0 .04.04.09.07.12.04.03.06.08.06.13s.02.09.06.11l.06.07c0 .02.02.06.05.08.02.02.04.06.04.09 0 .06.04.12.16.28.06.07.1.15.1.18s.05.11.1.18a.5.5 0 0 1 .13.21c0 .05.03.1.06.12a.2.2 0 0 1 .06.1c0 .03.04.08.07.11.04.04.06.08.06.13 0 .06.02.1.06.12.03.02.06.05.06.07l.03.06c.1.07.1.02.11-1.25l.01-1.23h.86c.04 0 .07 3.75.02 3.87-.01.03-.08.04-.43.03l-.42-.02-.06-.07c-.04-.05-.1-.08-.13-.08-.06 0-.09-.03-.09-.11a.19.19 0 0 0-.05-.1.29.29 0 0 1-.08-.11.3.3 0 0 0-.06-.11.3.3 0 0 1-.05-.13c0-.04-.04-.1-.07-.13-.13-.14-.16-.2-.16-.24 0-.05-.06-.15-.19-.3a.36.36 0 0 1-.06-.14c0-.04-.03-.1-.05-.12-.12-.13-.18-.22-.18-.27a.17.17 0 0 0-.05-.11c-.04-.03-.06-.07-.06-.1 0-.02-.03-.07-.06-.1a.26.26 0 0 1-.06-.14c0-.04-.03-.1-.07-.13a.65.65 0 0 1-.09-.11c-.02-.04-.03-.04-.06-.02-.04.03-.04.16-.04 1.29 0 .82-.01 1.27-.03 1.3-.04.09-.86.1-.89.02v-3.87c.04-.03 1.1-.02 1.12.02zm7.86.1a.8.8 0 0 1-.02.2l-.02.08h-.53c-.67-.01-.64-.03-.64.34 0 .36-.04.34.63.34h.55l.02.07c.04.24 0 .35-.11.33-.13 0-.13-.02-.13 1.23 0 .63-.02 1.16-.03 1.17-.02.02-.46.04-.5.01a6.92 6.92 0 0 1-.03-1.17c0-1.32.02-1.24-.2-1.24-.21 0-.2-.08-.2 1.21l-.01 1.17c-.03.07-.52.06-.56 0-.02-.04-.02-.6-.02-1.81l.01-1.77.08-.1a.45.45 0 0 0 .07-.14c0-.05.05-.05.85-.05h.78v.13zm-3.97.45c-.03.03-.03.04.01.11.03.04.05.1.05.13s.02.07.05.1c.09.08.04.12-.14.12-.24 0-.27.03-.27.25 0 .24 0 .23.45.25l.37.01v.17h-.32c-.4.01-.4.01-.4.27 0 .25 0 .26.4.27h.32l.01.83c.02.96-.01.88.3.89.35.01.33.08.34-.9l.01-.82h.36c.44-.01.44-.01.44-.27 0-.25 0-.25-.45-.26l-.37-.01v-.07c-.02-.1.01-.11.39-.11.43 0 .43 0 .43-.25 0-.23-.01-.24-.2-.25-.18-.01-.2-.08-.1-.28.1-.18.08-.2-.24-.21-.3-.01-.34 0-.34.19 0 .22-.17.35-.37.28-.05-.02-.06-.04-.06-.17 0-.12 0-.15-.07-.22l-.07-.09h-.25c-.19 0-.25.01-.28.04zm5.41 0c-.03.04-.03.05 0 .1.05.1.1.21.1.24l.05.1c.05.1.04.12-.05.12-.15 0-.21.05-.21.2 0 .18 0 .18.48.2l.4.01.02.37c0 .46 0 .45.32.45.33 0 .3.02.32-.43l.01-.39h.44c.5-.01.5-.01.5-.2 0-.16-.02-.2-.13-.21-.13-.02-.15-.19-.05-.33.13-.2.07-.27-.21-.27-.25 0-.37.1-.37.31 0 .1-.01.15-.07.21-.1.12-.12.09-.12-.2 0-.31 0-.32-.32-.32-.31 0-.32 0-.32.33-.01.26-.05.33-.07.14a.43.43 0 0 0-.07-.17.38.38 0 0 1-.06-.14c-.02-.12-.06-.14-.32-.15-.2-.01-.23 0-.27.03zm-4.84.07c.07.08.08.1.08.22 0 .17.02.2.18.21.17.02.32-.15.32-.36 0-.15 0-.15.3-.15.27 0 .31.03.2.18-.06.07-.07.26-.02.3.01.03.09.04.16.04.15 0 .16.02.16.26 0 .15.02.14-.4.15-.39 0-.43.02-.43.15 0 .1.02.11.43.13h.37v.42l-.36.01c-.48.02-.44-.08-.44.87 0 .91.03.84-.28.84-.3.01-.28.08-.28-.87 0-.6-.01-.8-.03-.8a2 2 0 0 0-.35-.04h-.32v-.43l.32-.01c.36-.02.38-.02.38-.15 0-.12-.01-.13-.43-.14l-.37-.01v-.38l.19-.01c.23-.02.3-.07.2-.18-.04-.04-.07-.09-.07-.12a.3.3 0 0 0-.03-.1c-.08-.16.39-.18.52-.04zm5.32-.05c.03.01.06.04.08.11a.8.8 0 0 0 .08.19c.03.04.06.11.06.16 0 .1.05.14.1.08.03-.03.04-.1.04-.29l.01-.25h.55v.27c.01.32.03.36.16.24.08-.08.09-.1.1-.24.02-.23.07-.28.33-.28.27 0 .3.02.19.18-.13.18-.08.4.08.42.08 0 .08 0 .1.13 0 .2 0 .2-.5.2-.24 0-.43 0-.44.02 0 .01-.02.19-.02.39-.01.44.02.4-.29.4-.3.01-.27.05-.27-.4s.03-.42-.42-.42c-.45 0-.46 0-.46-.17 0-.14.02-.16.14-.16.12 0 .17-.14.08-.2-.02 0-.04-.06-.06-.11a.52.52 0 0 0-.08-.17c-.09-.1-.05-.13.19-.12l.25.02zm-.23 1.04c-.05.06-.17.3-.17.33l-.06.11c-.14.19-.06.29.22.29h.19l.08-.11a.4.4 0 0 0 .1-.16c0-.03.01-.09.04-.12.07-.09.09-.28.03-.33-.05-.05-.4-.06-.43 0zm1.3.01c-.05.04-.03.1.04.17.02.02.03.08.03.13s.02.13.04.16l.06.12c.06.13.08.14.3.14.2 0 .31-.03.31-.09 0-.02 0-.03-.02-.03l-.04-.08a.47.47 0 0 0-.07-.16.3.3 0 0 1-.06-.2c0-.18-.02-.2-.32-.2-.2 0-.25 0-.28.04zm-.86.09c0 .03-.02.12-.06.21l-.08.17c0 .14-.45.3-.52.2-.04-.06-.02-.18.02-.22a.26.26 0 0 0 .06-.13c.01-.04.04-.1.07-.12l.04-.07c0-.15.45-.19.47-.04zm1.4-.02c.02.03.03.1.03.15 0 .05.02.11.04.14l.08.17c.04.14.05.13-.24.15h-.2l-.03-.07a.7.7 0 0 0-.06-.13.54.54 0 0 1-.05-.19.3.3 0 0 0-.06-.18c-.09-.08-.05-.1.22-.1.25 0 .25 0 .28.06zm-7.54.66a1.6 1.6 0 0 0-.05.47 3.21 3.21 0 0 1-.1.76c-.03.28 0 .3.24.3.2 0 .2 0 .3-.13l.07-.1.01-.63c.01-.48 0-.64-.02-.67-.04-.05-.4-.05-.45 0zm1.28 0c-.04.05-.01.28.04.36.04.06.05.14.06.55l.01.48.08.07c.18.16.52.08.46-.11a2.75 2.75 0 0 1-.03-.6c0-.73-.03-.78-.38-.78-.16 0-.21 0-.24.03zm-.84.1c.05.34 0 1.13-.09 1.29l-.06.1h-.4v-.1c0-.07.01-.2.04-.32.04-.15.06-.28.07-.6 0-.5-.01-.46.22-.46h.2l.02.1zm1.34-.01c.07.1.1.32.1.86 0 .21 0 .4.02.44.05.13-.28.17-.4.05l-.07-.07-.01-.47c-.01-.4-.02-.5-.06-.63-.08-.24-.07-.26.17-.26.2 0 .2 0 .25.08zm4.67.08c-.24.01-.26.01-.3.07l-.04.05-.76.01c-.88.01-.84 0-.84.21 0 .2.02.21.7.21h.55l-.01.06c-.08.24-.22.3-.76.3-.46 0-.48.01-.48.26 0 .2 0 .2.64.2.48 0 .66-.03.66-.08 0-.01.05-.03.11-.04a.28.28 0 0 0 .18-.1l.18-.2a.57.57 0 0 0 .13-.15c0-.01.02-.06.06-.1a.44.44 0 0 0 .07-.1c.01-.05.23.17.28.27.05.12.33.37.4.37.04 0 .1.02.13.06.08.07 1.2.1 1.27.02.05-.05.05-.25 0-.34l-.03-.07h-.42c-.44 0-.5-.01-.6-.12a4.94 4.94 0 0 0-.13-.11c-.13-.12-.11-.13.53-.13.7 0 .69 0 .69-.22 0-.21.04-.2-.92-.2h-.83l-.05-.07c-.03-.05-.07-.07-.1-.07l-.31.01zm.4.1.06.07.84.01h.85v.14c.02.19.04.18-.64.2-.53 0-.6 0-.61.04-.03.05.03.15.12.2a.3.3 0 0 1 .1.08c.05.09.14.1.57.12.48.01.47 0 .47.2 0 .18-.01.18-.64.17-.5 0-.52 0-.6-.06a.25.25 0 0 0-.14-.06c-.07 0-.34-.24-.36-.34a.86.86 0 0 0-.17-.2l-.15-.16-.08.12a.7.7 0 0 0-.09.15c0 .02-.05.08-.12.15l-.2.2c-.05.06-.1.09-.14.09a.5.5 0 0 0-.17.06c-.1.06-.12.06-.6.06-.58 0-.6 0-.6-.18 0-.19.04-.2.47-.2.4 0 .6-.05.67-.17a.4.4 0 0 1 .06-.07c.04-.03.06-.16.03-.19-.01-.01-.2-.02-.58-.02-.65 0-.64 0-.64-.18 0-.17-.05-.16.8-.16.71 0 .73 0 .78-.05.07-.07.12-.08.4-.09h.27l.05.07z" clip-rule="evenodd"/><path fill="#056DBE" fill-rule="evenodd" d="M13.32 14.59zm8.97 0zm-10.03.13c-.04.05-.04.05 0 .01a.38.38 0 0 1 .09-.05c.03 0 .03-.01 0-.01-.02 0-.06.02-.09.05zm2.1-.03c.04.02.02.15-.03.21a5 5 0 0 0 0 1.3c.05.12.06.23.06.44 0 .24 0 .28.05.38a.8.8 0 0 1 .08.2c0 .06.03.14.06.2.02.04.05.13.05.18 0 .08.03.16.11.32.06.12.12.27.13.32.01.09.14.3.2.35.02 0 .03.05.03.09 0 .05.03.11.12.21.06.08.12.16.12.18 0 .01.02.06.06.1l.06.09c0 .04.17.28.26.34.05.05.1.1.1.12 0 .08.02.12.1.15.05.02.1.06.11.12.02.05.07.1.11.12.04.02.1.08.13.13.04.06.1.1.14.12.06.02.09.05.12.12.03.08.05.1.1.1.06 0 .1.02.17.1.05.06.17.15.26.2.1.05.18.11.18.13 0 .02.05.04.09.05.04 0 .13.06.2.12s.14.1.16.1l.16.06.12.05.17-.06a.88.88 0 0 0 .2-.08c.08-.08.23-.18.33-.23l.2-.13.14-.1c.03 0 .08-.05.13-.1a7.38 7.38 0 0 0 1.09-1.05c.06-.05.09-.08.09-.13 0-.04.04-.1.12-.18a.61.61 0 0 0 .13-.18c0-.03.06-.11.12-.18.06-.07.1-.15.1-.18s.03-.08.06-.11c.03-.04.06-.08.06-.11s.03-.08.06-.1a.18.18 0 0 0 .06-.14c0-.04.03-.1.06-.15a.3.3 0 0 0 .06-.12c0-.03.02-.08.05-.11.05-.05.06-.1.07-.23.01-.11.03-.17.07-.2a.2.2 0 0 0 .05-.14c0-.04.02-.1.05-.14.04-.06.05-.1.07-.35a8 8 0 0 0 .1-2.13c0-.05 0-.07.03-.08h-.16c-.17 0-.22 0-.26.04a.4.4 0 0 1-.17.07.47.47 0 0 0-.18.07.26.26 0 0 1-.16.04.21.21 0 0 0-.16.06.22.22 0 0 1-.12.06c-.04 0-.07.03-.1.06-.03.05-.06.06-.12.06s-.1.02-.13.06a.17.17 0 0 1-.12.06c-.04 0-.07.02-.09.06-.02.04-.05.06-.12.07l-.1.04c0 .03-.15.19-.18.19a.8.8 0 0 0-.18.14l-.15.15v.27a7.16 7.16 0 0 1 .08 2.14c-.05.1-.08.3-.09.53 0 .17 0 .22-.04.27a.47.47 0 0 0-.07.17c0 .06-.03.12-.04.14a.55.55 0 0 0-.08.3c0 .07-.02.11-.05.14a.25.25 0 0 0-.06.12.2.2 0 0 1-.08.12c-.04.03-.05.06-.05.13 0 .1-.13.35-.2.37-.02 0-.04.05-.04.09 0 .04-.02.1-.06.14-.03.04-.06.08-.06.1l-.04.07a.32.32 0 0 0-.08.12c-.04.12-.16.2-.25.16-.1-.04-.22-.18-.22-.25 0-.03-.05-.1-.12-.18-.08-.08-.12-.14-.12-.18a.3.3 0 0 0-.06-.15.39.39 0 0 1-.06-.11c0-.02-.02-.05-.06-.08a.18.18 0 0 1-.06-.13c0-.05-.05-.18-.11-.31-.1-.19-.12-.27-.12-.35a.3.3 0 0 0-.05-.18.57.57 0 0 1-.07-.2.86.86 0 0 0-.06-.21 1.22 1.22 0 0 1-.06-.44 1.62 1.62 0 0 0-.06-.44 3.98 3.98 0 0 1 0-1.18c.04-.05.05-.13.06-.4.01-.28.02-.37.05-.42.06-.08.06-.2 0-.22a.14.14 0 0 1-.07-.06c-.02-.02-.04-.04-.06-.04-.04 0-.19-.11-.33-.26-.1-.1-.14-.12-.2-.12a.12.12 0 0 1-.11-.06c-.02-.03-.05-.06-.07-.06l-.07-.04c-.02-.03-.07-.06-.13-.07a.32.32 0 0 1-.15-.06.28.28 0 0 0-.1-.06.34.34 0 0 1-.1-.06.4.4 0 0 0-.2-.06c-.1-.02-.16-.04-.18-.06-.02-.03-.08-.05-.15-.06a.4.4 0 0 1-.17-.07c-.04-.03-.1-.04-.22-.05-.11 0-.16 0-.14.02zm11.44 9v.08c0 .13-.02.13-.43.15h-.4v1.18l.01 1.25.01.08h.25c.32 0 .3.1.3-1.07 0-.74 0-.97.03-1 .05-.07 2.63-.05 2.68.02.03.04.04.21.04 1 0 1.17-.03 1.05.27 1.05.32 0 .3.1.3-1.18 0-1.18 0-1.12-.17-1.25l-.1-.08h-1.03c-1.13 0-1.11 0-1.08-.14 0-.04 0-.08-.02-.09a2.77 2.77 0 0 0-.66 0zm-4.74 0c-.02.01-.03.04-.03.06 0 .12-.1.15-.46.17h-.33l-.01.18c0 .1 0 .19.02.2.03.04 2 .05 2.03.01l.02-.2v-.18l-.3-.01c-.39-.02-.45-.05-.33-.16.04-.03.04-.05.02-.06a3.25 3.25 0 0 0-.63 0zm.55.08c-.03.06-.02.12.02.15l.34.02h.32v.13c0 .18.03.18-1.08.18l-.96.01v-.32h.35c.4 0 .44-.01.46-.15l.02-.09h.56l-.03.07zm4.84.02c-.03.16-.07.15 1.08.15h1.04l.07.06.12.11.05.06v2.19h-.5v-1c0-1.1 0-1.06-.17-1.1a22.7 22.7 0 0 0-2.6.04c-.04.05-.04.1-.05 1.05v1.01h-.5v-2.42h.39c.43 0 .44 0 .44-.15v-.09h.64l-.01.09zm-19.39.15c-.03.02-.03 3.63 0 3.7.02.03.05.05.07.05l.13.06.1.07h.59l1.36.02h.76l.02-.05c.04-.07.04-.52 0-.54l-.97-.01c-.68 0-.96 0-.98-.03a4.06 4.06 0 0 1 0-1.14c.03-.02.22-.03.99-.03 1.09 0 1 .03.98-.27v-.18h-.97a7.1 7.1 0 0 1-1-.04 3.96 3.96 0 0 1 0-1.06c.02-.02.28-.03.98-.03l.98-.01a.94.94 0 0 0 .01-.27v-.25H7.06zm3.92 0a59 59 0 0 0 0 3.86c.05.06.77.04.8-.02.01-.03.02-.5.02-1.35 0-.86.01-1.3.03-1.32.04-.02.21.13.21.2 0 .04.02.1.05.13.13.15.16.2.16.22 0 .05.17.35.22.39.03.02.04.06.04.1 0 .07.02.1.06.13.04.02.06.05.06.07l.05.08.07.15a.8.8 0 0 0 .2.3c.02.02.04.07.04.1 0 .05.03.11.1.2.06.06.12.16.14.21l.04.1.06.1a.3.3 0 0 0 .1.1l.13.08c.1.06.81.09.88.03.08-.05.08-3.86 0-3.87h-.84l-.02 1.27a6.05 6.05 0 0 1-.04 1.3c-.05.03-.1-.01-.1-.1a.2.2 0 0 0-.07-.13.8.8 0 0 1-.18-.32.44.44 0 0 0-.07-.13.7.7 0 0 1-.16-.25.74.74 0 0 0-.13-.2.49.49 0 0 1-.1-.18.3.3 0 0 0-.06-.13.31.31 0 0 1-.06-.12c0-.02-.03-.06-.07-.09-.05-.04-.06-.07-.05-.11 0-.05-.01-.08-.07-.13l-.07-.1c0-.03-.02-.05-.04-.07a.33.33 0 0 1-.06-.13.94.94 0 0 0-.15-.24l-.12-.15h-.49l-.51.01zm4.4 0c-.02.01-.02 3.79 0 3.86.02.07.84.07.88-.01a12 12 0 0 0 .03-1.3c0-1.14 0-1.27.04-1.3.03-.02.04-.02.06.02l.1.1c.03.05.06.1.06.14 0 .03.02.1.06.13l.06.11c0 .03.02.07.05.1.04.03.06.07.06.11 0 .05.06.14.18.27a.3.3 0 0 1 .05.12c0 .05.04.12.06.15.13.14.19.24.19.29 0 .05.03.1.16.24.03.03.06.1.07.13 0 .04.03.1.05.13a.3.3 0 0 1 .06.1c.01.04.04.1.08.12.03.03.05.08.05.1 0 .08.03.11.09.11.03 0 .09.03.13.08l.06.07.42.02c.35 0 .42 0 .43-.03.05-.12.02-3.86-.02-3.87h-.85l-.02 1.23c-.01 1.27-.02 1.32-.1 1.25a.09.09 0 0 1-.04-.06c0-.02-.03-.05-.06-.07a.13.13 0 0 1-.06-.12c0-.05-.02-.1-.06-.13a.27.27 0 0 1-.07-.11.19.19 0 0 0-.06-.1c-.03-.02-.05-.07-.06-.12a.54.54 0 0 0-.12-.2.49.49 0 0 1-.1-.19.5.5 0 0 0-.1-.18c-.13-.16-.17-.22-.17-.28a.21.21 0 0 0-.04-.1c-.03-.01-.05-.05-.05-.07l-.06-.07c-.04-.02-.06-.06-.06-.11s-.02-.1-.06-.13a.3.3 0 0 1-.07-.12.25.25 0 0 0-.06-.1.24.24 0 0 1-.06-.1l-.02-.1a6.45 6.45 0 0 0-1.11-.02zm7.36 0a.05.05 0 0 0-.03.03l-.07.14-.08.1v1.77c-.01 1.2 0 1.77.01 1.8.04.07.53.08.56.01l.01-1.17c0-1.3-.01-1.2.2-1.2.22 0 .2-.09.2 1.23 0 .9.01 1.16.03 1.17.04.03.48.01.5-.01l.03-1.17c0-1.25 0-1.24.13-1.22.12 0 .15-.1.1-.34v-.07h-.56c-.67 0-.63.02-.63-.34 0-.37-.03-.35.64-.35h.53l.02-.07a.8.8 0 0 0 .02-.2l-.01-.12h-1.6zm-12.67.25v.25h-.96c-.57 0-.99 0-1 .02-.05.03-.07.97-.03 1.08l.02.06h1.97v.4H9.1c-.87 0-.97 0-1 .04a4.74 4.74 0 0 0 0 1.2c.02.01.44.02 1.02.02h.98l-.01.08-.02.26v.18H8.7c-1.38 0-1.38 0-1.41-.06a.21.21 0 0 0-.12-.07l-.09-.01v-3.7h3v.25zM12 24c.02.03.04.06.06.06.02 0 .04.02.04.04 0 .03.02.07.05.1.04.03.07.1.08.14.01.08.06.16.17.28.03.03.05.09.05.13 0 .06.02.08.11.16.02.02.04.05.04.09 0 .03.02.07.04.08.03.02.05.08.06.14.02.07.03.1.08.12.03.01.05.04.05.07 0 .03.02.06.05.07.04 0 .05.03.05.09s.02.1.06.14l.06.07.05.1c.04.03.07.1.08.14 0 .05.04.11.07.14.03.03.06.07.06.1l.04.04c.04.01.05.04.05.09 0 .1.04.16.1.16.12 0 .12.02.12-1.33v-1.28h.85v1.92l-.01 1.91h-.41l-.41.01-.09-.07a.26.26 0 0 0-.12-.07c-.04 0-.05-.02-.05-.06a.2.2 0 0 0-.06-.12.2.2 0 0 1-.06-.12c0-.04-.03-.1-.07-.13l-.11-.12a.2.2 0 0 1-.06-.12c0-.09-.04-.16-.08-.16a.04.04 0 0 1-.04-.04c0-.03-.02-.07-.05-.1a.14.14 0 0 1-.06-.12.2.2 0 0 0-.06-.13c-.04-.04-.06-.08-.06-.1l-.06-.07c-.05-.03-.06-.06-.06-.13 0-.08-.01-.1-.06-.12-.04-.02-.06-.05-.06-.08s-.03-.09-.06-.12a.2.2 0 0 1-.06-.12c0-.08-.04-.15-.08-.15-.02 0-.04-.03-.05-.06 0-.03-.03-.06-.06-.07-.03-.01-.05-.04-.05-.11 0-.08-.02-.1-.06-.13-.03-.01-.05-.03-.05-.05 0-.04-.1-.08-.15-.05-.04.02-.04.12-.05 1.37v1.34h-.38l-.37.01v-3.84h.97L12 24zm4.49.01c0 .1.03.17.08.17.02 0 .03.04.04.1.01.05.04.1.07.11.03.02.04.05.04.1s.02.1.07.13c.04.04.08.08.08.1 0 .03.02.06.04.08a.4.4 0 0 1 .06.13c0 .06.05.13.12.2.08.09.1.14.1.2 0 .03.03.08.06.11a.5.5 0 0 1 .09.1c.01.04.04.06.06.06.02 0 .03.04.04.11 0 .07.03.12.06.14a.2.2 0 0 1 .07.1c0 .05.03.09.06.1.03.02.04.05.04.1 0 .1.02.12.08.16.03.01.06.06.07.1.03.1.1.12.15.05a7 7 0 0 0 .03-1.28v-1.24h.86v3.86l-.43-.01c-.42 0-.43 0-.44-.06-.01-.04-.04-.06-.08-.07-.1-.02-.13-.05-.14-.13-.01-.05-.03-.09-.07-.1a.08.08 0 0 1-.05-.08c0-.08-.04-.15-.08-.15-.03 0-.04-.03-.04-.1-.01-.08-.02-.1-.07-.12-.02-.02-.05-.05-.05-.07 0-.02-.03-.07-.06-.1a.16.16 0 0 1-.06-.11c0-.07-.06-.16-.19-.3a.2.2 0 0 1-.04-.11c0-.08-.04-.16-.09-.16-.01 0-.03-.02-.04-.05a.13.13 0 0 0-.06-.08c-.04 0-.05-.04-.06-.11 0-.08-.02-.1-.06-.12a.08.08 0 0 1-.05-.08c0-.08-.04-.15-.08-.15-.03 0-.04-.03-.04-.1 0-.08-.02-.1-.06-.12a.14.14 0 0 1-.07-.1c-.02-.1-.08-.13-.13-.06-.05.05-.05.11-.05 1.32l-.01 1.3c0 .02-.1.02-.44.02h-.43v-3.87h1.1V24zm7.85.03c0 .2-.02.26-.09.23a4.06 4.06 0 0 0-.54-.02h-.48l-.05.06c-.08.1-.08.63 0 .71.05.06.87.09 1.05.04.08-.02.08-.02.1.06.03.17-.01.27-.1.27-.16 0-.15-.05-.15 1.23v1.16h-.5v-1.15c0-1.33.01-1.24-.22-1.24-.25 0-.23-.1-.23 1.21v1.16l-.08.01h-.43V24.2l.05-.03a.28.28 0 0 0 .08-.13l.02-.09h1.57v.1zm-3.88.47c-.05.03-.05.03-.02.1a.3.3 0 0 1 .03.1c0 .03.03.08.06.12.1.1.04.16-.2.18l-.18.01v.38l.37.01c.42.01.43.02.43.14 0 .13-.02.13-.38.15h-.32v.42l.32.01.35.03c.02.02.03.2.03.81 0 .95-.03.88.28.87.31 0 .28.07.28-.84 0-.95-.04-.85.44-.87h.36v-.43l-.37-.01c-.41-.02-.43-.02-.43-.13 0-.13.04-.15.44-.15.41 0 .4 0 .4-.15 0-.24-.02-.26-.17-.26-.07 0-.15-.01-.16-.03-.05-.04-.04-.24.01-.3.12-.16.08-.2-.2-.2-.29 0-.3 0-.3.16 0 .21-.14.38-.3.36-.17-.02-.19-.04-.19-.2 0-.26-.32-.42-.58-.29zm5.35.01c-.02.02-.01.05.03.1.03.04.07.11.08.17.02.05.04.1.06.11.1.06.04.2-.08.2s-.14.02-.14.16c0 .17.01.18.46.18s.42-.04.42.4c0 .46-.03.42.28.41.3 0 .27.04.28-.4l.02-.4.45-.01c.5 0 .5 0 .48-.2 0-.12 0-.13-.09-.13-.16-.02-.2-.24-.08-.42.1-.16.08-.19-.19-.18-.26 0-.31.05-.33.28-.01.14-.02.16-.1.24-.13.12-.15.08-.16-.24v-.27h-.55v.25c-.01.19-.02.26-.05.3-.05.05-.1 0-.1-.1a.35.35 0 0 0-.06-.15.8.8 0 0 1-.08-.19c-.04-.11-.04-.11-.33-.13-.14 0-.2 0-.22.02zm-3.74.01c0 .01-.01.05-.05.09-.17.16-.07.48.15.45l.12-.01.01.1v.23h-.38c-.44 0-.48.02-.45.2.02.13.04.13.45.13h.38v.1l-.02.19-.01.09h-.37c-.48 0-.43-.1-.43.9v.78h-.19l-.23-.01-.06-.02v-.8c-.01-.95.04-.85-.4-.85h-.33v-.38h.34c.33 0 .34 0 .38-.06.04-.06.05-.18.01-.18-.01 0-.02-.01-.02-.03 0-.05-.06-.06-.4-.06h-.34l-.02-.06c-.06-.17 0-.25.18-.25.2 0 .3-.17.17-.3a.26.26 0 0 1-.07-.15l-.01-.1h.2c.25 0 .31.05.31.24 0 .15.04.24.1.24l.08.03c.09.07.27 0 .27-.1l.06-.06c.06-.03.06-.05.06-.2v-.14l.25-.01.24-.01.02.01zm4.23.05c.02.03.04.1.04.14.01.06.04.11.06.13.03.02.05.05.05.1 0 .1.04.18.1.18.1 0 .11-.04.11-.33v-.27h.51v.25c-.02.28 0 .35.1.35.14 0 .22-.13.22-.33 0-.12.01-.15.05-.17.03-.02.05-.04.05-.06 0-.03.04-.04.21-.04.23 0 .25.02.15.11-.15.14-.1.49.06.49h.1v.25l-.43.01c-.55 0-.52-.04-.52.46v.37h-.5v-.38c0-.48.04-.44-.45-.45h-.4v-.26h.1c.16 0 .22-.19.09-.29-.03-.02-.05-.07-.05-.12-.01-.06-.03-.09-.07-.1-.12-.06-.05-.09.17-.09.2 0 .22.01.25.05zm-.25 1.04a.21.21 0 0 0-.03.08c0 .02-.02.05-.05.07a.25.25 0 0 0-.06.12.2.2 0 0 1-.06.13c-.04.04-.06.16-.02.21.07.11.52-.05.52-.19l.08-.17c.12-.25.1-.28-.15-.29-.19 0-.21 0-.23.04zm1.31-.02c0 .02 0 .05.04.08.03.04.05.1.06.18 0 .07.03.16.05.2l.06.12.03.07h.2c.3-.02.28-.01.24-.15a.84.84 0 0 0-.08-.17.3.3 0 0 1-.04-.14c0-.2-.02-.21-.3-.21-.15 0-.25 0-.26.02zm-.91.1c0 .05-.02.1-.05.13a.27.27 0 0 0-.06.13.2.2 0 0 1-.05.12.24.24 0 0 0-.06.08c-.02.05-.03.06-.2.06h-.2v-.07c0-.05.02-.08.06-.1.05-.04.06-.07.06-.14s.01-.1.03-.1c.05 0 .09-.07.09-.15 0-.06 0-.06.19-.06h.19v.1zm1.43.07c0 .13.02.17.06.22.03.03.06.1.07.14l.01.09h-.42v-.07c0-.07-.05-.15-.1-.15 0 0-.02-.06-.02-.14 0-.12 0-.15-.06-.2l-.06-.06h.5v.17zm-7.52.57-.01.44a2.5 2.5 0 0 1-.07.6.88.88 0 0 0-.04.3v.12h.4l.06-.11c.09-.16.14-.95.09-1.29l-.02-.09h-.2c-.13 0-.2.01-.2.03zm1.3.02.05.2c.04.14.05.24.06.64l.01.47.07.07c.12.12.45.08.4-.05a2.72 2.72 0 0 1-.03-.44c0-.85-.03-.94-.34-.94-.17 0-.2 0-.21.05zm-.91.03c.03.03 0 1.01-.02 1.06a.5.5 0 0 0-.06.16c-.02.14-.03.15-.23.17l-.18.01v-.11c0-.07.01-.13.03-.16.06-.06.09-.27.09-.72v-.44l.18.02.19.01zm1.36.09.06.09.01.6c.01.59.01.59-.04.59l-.12.01c-.05.01-.08 0-.14-.05l-.08-.08v-.55a3 3 0 0 0-.04-.6c-.08-.14.25-.16.35-.01zm4.47.04a.31.31 0 0 0-.1.07c-.04.05-.06.05-.77.05-.85 0-.8 0-.8.16 0 .18 0 .18.64.18.37 0 .57 0 .58.02.03.03 0 .16-.03.19a.39.39 0 0 0-.06.07c-.07.12-.27.17-.67.17-.43 0-.46.01-.46.2 0 .17 0 .18.6.18.47 0 .48 0 .6-.06a.5.5 0 0 1 .16-.06c.04 0 .09-.03.14-.09l.2-.2a.62.62 0 0 0 .12-.15.7.7 0 0 1 .09-.15l.08-.12.15.15c.08.09.16.18.17.21.02.1.29.35.36.34.04 0 .1.02.15.06.07.05.09.06.59.06.63.01.64 0 .64-.16 0-.2.01-.2-.47-.21-.43-.02-.52-.03-.58-.12a.3.3 0 0 0-.09-.08c-.09-.05-.15-.15-.12-.2.02-.04.08-.04.61-.05.68 0 .66 0 .65-.2l-.01-.12h-.85l-.84-.02-.05-.07-.05-.07h-.27l-.31.02zm.6.07c.02.08.05.08.91.08h.85v.12l-.01.13h-.62c-.69.02-.69.02-.65.2.02.09.07.14.15.14.02 0 .05.03.06.06.01.03.04.06.05.06.01 0 .05.02.07.05.04.05.06.06.5.07h.45v.25l-.22.02c-.43.03-.87 0-.97-.07-.07-.05-.11-.06-.17-.05-.07 0-.09 0-.1-.06-.02-.04-.05-.07-.07-.07a.04.04 0 0 1-.04-.03c0-.02-.02-.05-.06-.06-.04-.02-.06-.04-.06-.09 0-.06-.03-.15-.06-.15a.6.6 0 0 1-.2-.19c0-.01-.01-.03-.04-.04-.05-.03-.12 0-.12.05 0 .02-.03.06-.06.09s-.06.07-.06.1c0 .06-.02.1-.08.12-.02 0-.04.03-.04.04 0 .02-.03.05-.06.06l-.06.05c0 .05-.14.17-.2.17-.08 0-.18.04-.21.09a3.9 3.9 0 0 1-.98.04l-.11-.01v-.13l.01-.13h.42c.4-.01.41-.02.46-.07a.12.12 0 0 1 .09-.05l.08-.04.08-.1c.04-.03.06-.09.07-.16.02-.14 0-.15-.66-.15h-.54v-.26h.74c.77 0 .82 0 .82-.1 0-.04.62-.02.64.02z" clip-rule="evenodd"/><path fill="#014F97" fill-rule="evenodd" d="M16.55 15.67c.03.04.12.1.12.08l-.08-.06c-.05-.04-.07-.04-.04-.02zm2.6.2a2.7 2.7 0 0 0-.29.28l-.31.33c-.1.09-.13.15-.13.19 0 .04-.04.1-.1.17a.44.44 0 0 0-.12.2l-.06.14-.08.13-.04.06-.1-.07-.1-.1c0-.02 0-.05-.03-.07a.42.42 0 0 1-.07-.14.53.53 0 0 0-.1-.18.65.65 0 0 1-.12-.14 1.4 1.4 0 0 0-.14-.19 1.46 1.46 0 0 1-.13-.19c-.1-.16-.37-.43-.37-.34a.3.3 0 0 1-.05.13c-.03.05-.04.14-.05.41-.01.28-.02.36-.05.4a3.98 3.98 0 0 0 0 1.19c.02.06.04.2.05.44.01.27.03.38.06.44a.8.8 0 0 1 .06.2c.01.08.04.17.07.2.03.05.05.1.05.19 0 .08.02.16.12.35.06.13.11.26.11.3 0 .05.03.1.06.14.04.03.06.06.06.08l.06.11a.3.3 0 0 1 .06.15c0 .04.04.1.12.18.07.08.12.15.12.18 0 .07.13.21.22.25.1.04.21-.04.25-.16.02-.04.05-.1.08-.12l.04-.07c0-.02.03-.06.06-.1.04-.04.06-.1.06-.14 0-.04.02-.08.03-.09.08-.03.2-.26.2-.37 0-.07.02-.1.06-.13a.2.2 0 0 0 .08-.12c0-.04.03-.1.06-.12.03-.03.05-.07.05-.14 0-.1.03-.24.08-.3a.38.38 0 0 0 .04-.14.5.5 0 0 1 .07-.17c.03-.05.04-.1.04-.27 0-.22.04-.43.1-.53.06-.12.04-1.47-.03-1.68-.08-.27-.08-.72 0-.79.1-.07.04-.05-.06.02zm1.91 7.92c-.02.14-.07.15-.46.15h-.35v.32h.96c1.11-.01 1.08 0 1.08-.19v-.13h-.32c-.17 0-.32 0-.34-.02-.04-.03-.05-.1-.02-.15l.03-.07h-.56l-.02.09zm4.76 0c0 .15-.01.15-.44.15h-.39v2.42h.5v-1c.01-.96.01-1.01.06-1.06a22.7 22.7 0 0 1 2.6-.04c.17.04.16 0 .16 1.1v1h.5v-2.2l-.05-.05a9.83 9.83 0 0 0-.12-.1l-.07-.07h-1.04c-1.15 0-1.11 0-1.08-.15v-.09h-.63v.1zm-18.74 2v1.85l.09.01c.04.01.1.04.12.07.03.05.03.05 1.4.06h1.38v-.18c0-.1 0-.22.02-.26l.01-.08h-.98c-.58 0-1 0-1.02-.02a4.74 4.74 0 0 1 0-1.2c.03-.03.13-.04 1-.04h.97v-.4H8.1l-.02-.06a4.78 4.78 0 0 1 .02-1.08 11 11 0 0 1 1-.02h.97v-.5H7.08v1.85zm3.92.07v1.92h.74l.01-1.35c0-1.26 0-1.35.05-1.37.05-.03.15 0 .15.05 0 .02.02.04.05.05.04.02.05.05.06.13 0 .07.02.1.05.11.03 0 .06.04.06.07.01.03.03.06.05.06.04 0 .08.07.08.15 0 .03.03.09.06.12s.06.09.06.12.02.06.06.08c.05.02.06.04.06.12 0 .07.01.1.06.13l.06.07c0 .02.02.06.06.1a.2.2 0 0 1 .06.13c0 .05.01.09.06.12.03.03.05.07.05.1 0 .02.02.04.04.04.04 0 .08.07.08.16 0 .03.03.09.06.12l.11.12c.04.04.07.09.07.13 0 .03.03.09.06.12a.2.2 0 0 1 .06.12c0 .04.01.06.05.06.02 0 .08.03.12.07l.09.07h.82v-1.92l.01-1.92h-.85v1.28c0 1.35 0 1.33-.11 1.33-.07 0-.1-.06-.1-.16 0-.05-.02-.08-.06-.09-.02 0-.04-.03-.04-.05 0-.02-.03-.06-.06-.09a.3.3 0 0 1-.07-.14.36.36 0 0 0-.08-.15c-.03-.03-.05-.07-.05-.09l-.06-.07a.17.17 0 0 1-.06-.14c0-.06-.01-.09-.05-.1a.06.06 0 0 1-.05-.06.08.08 0 0 0-.05-.07c-.05-.02-.06-.05-.08-.12 0-.06-.03-.12-.06-.14a.12.12 0 0 1-.04-.08.13.13 0 0 0-.04-.1c-.1-.07-.1-.09-.1-.15 0-.04-.03-.1-.06-.13-.1-.12-.16-.2-.17-.28a.3.3 0 0 0-.08-.14c-.03-.03-.05-.07-.05-.1 0-.02-.02-.04-.04-.04s-.04-.03-.06-.06l-.02-.06H11v1.92zm4.38 0v1.92h.43c.34.01.43 0 .44-.02l.01-1.3c0-1.2 0-1.26.05-1.31.05-.07.1-.04.13.07 0 .03.04.07.07.09.04.01.05.04.06.12 0 .07.01.1.04.1.04 0 .08.07.08.15 0 .03.02.06.05.08.04.01.06.04.06.12 0 .07.02.1.06.11.02.01.05.04.06.08 0 .03.03.05.04.05.05 0 .09.08.09.16 0 .03.02.09.04.11.13.14.2.23.2.3 0 .04.01.08.05.12.03.02.06.07.06.09 0 .02.03.05.05.07.05.01.06.04.07.12 0 .07.01.1.04.1.04 0 .08.07.08.15 0 .03.02.06.05.08.04.01.06.05.07.1 0 .08.04.1.14.13.04 0 .07.03.08.07.01.05.02.05.44.06h.43v-3.84h-.86v1.24a7 7 0 0 1-.03 1.28c-.05.07-.12.04-.15-.05-.01-.04-.04-.1-.07-.1-.06-.04-.08-.07-.08-.16 0-.05-.01-.08-.04-.1-.03-.01-.06-.05-.06-.1a.2.2 0 0 0-.07-.1c-.03-.02-.05-.07-.06-.14 0-.07-.02-.1-.04-.1s-.05-.03-.06-.06a.5.5 0 0 0-.09-.1.18.18 0 0 1-.05-.13c0-.05-.03-.1-.1-.18a.43.43 0 0 1-.13-.2c0-.06-.04-.11-.06-.14-.02-.02-.04-.05-.04-.08 0-.02-.04-.06-.08-.1-.05-.04-.07-.08-.07-.13s-.01-.08-.04-.1c-.03-.01-.06-.06-.07-.12 0-.05-.02-.1-.04-.1-.05 0-.08-.07-.08-.16v-.07h-1.1v1.92zm7.36-1.83a.28.28 0 0 1-.08.13l-.05.04v3.57h.43l.08-.01V26.6c0-1.32-.02-1.21.23-1.21.23 0 .22-.1.22 1.24v1.15h.5v-1.16c0-1.28-.01-1.23.15-1.23.09 0 .13-.1.1-.27-.02-.08-.02-.08-.1-.06-.18.05-1 .02-1.05-.04-.08-.08-.08-.61 0-.7l.05-.07h.48c.26 0 .5 0 .54.02.07.03.09-.03.09-.23v-.1h-1.57l-.02.09zm-.94.5h-.25v.16c0 .13 0 .15-.06.19-.03.02-.06.05-.06.07 0 .1-.18.16-.27.1a.18.18 0 0 0-.09-.04c-.05 0-.09-.1-.09-.24 0-.19-.06-.24-.32-.24h-.2l.02.1c0 .07.03.13.07.16.13.12.03.29-.17.29-.19 0-.24.08-.18.25l.02.06h.33c.35 0 .4 0 .4.06 0 .02.02.03.03.03.04 0 .03.12-.01.18s-.05.06-.38.06h-.34v.38h.32c.45 0 .4-.1.4.85l.01.8.06.02.23.01h.19V27c0-.98-.05-.9.43-.9h.37l.01-.08.02-.19v-.1h-.38c-.41 0-.43 0-.45-.13-.03-.18.01-.2.45-.2h.37l.01-.07v-.26l-.13.01c-.22.03-.32-.3-.15-.45.04-.04.06-.08.05-.09l-.02-.02-.24.02zm4.02.03c0 .02.03.04.05.06.04.01.06.04.07.1 0 .05.02.1.05.12.13.1.07.29-.09.29h-.1v.25l.4.01c.49.01.45-.03.45.45v.38h.5v-.37c0-.5-.03-.47.52-.46l.42-.01v-.25H28c-.16 0-.2-.35-.06-.49.1-.1.08-.1-.15-.1-.17 0-.21 0-.21.03 0 .02-.02.04-.05.06-.04.02-.05.05-.05.17 0 .2-.08.32-.22.33-.1 0-.12-.07-.1-.35v-.25h-.51v.27c0 .29-.01.33-.11.33-.06 0-.1-.08-.1-.19 0-.04-.02-.07-.05-.1-.02 0-.05-.06-.06-.12-.02-.18-.04-.19-.29-.19-.16 0-.22.01-.22.03zm.24 1.1c0 .08-.04.15-.09.15-.02 0-.03.03-.03.1s-.01.1-.06.13a.12.12 0 0 0-.06.1v.08h.2c.17 0 .18 0 .2-.06a.24.24 0 0 1 .06-.08.27.27 0 0 0 .05-.12.45.45 0 0 1 .06-.14c.03-.02.05-.07.05-.13v-.09h-.2c-.18 0-.18 0-.18.06zm1.36 0c.05.05.06.08.06.2 0 .08.01.14.02.14.05 0 .1.08.1.15v.07h.41l-.01-.09a.32.32 0 0 0-.07-.14c-.04-.05-.06-.1-.06-.22l-.01-.17h-.5l.06.06zm-7.05 1.14c0 .45-.03.66-.09.72a.32.32 0 0 0-.03.16v.11l.18-.01c.2-.02.21-.03.23-.17a.49.49 0 0 1 .06-.16 6.3 6.3 0 0 0 .02-1.06l-.19-.01-.18-.02v.44zm1.38-.39a3 3 0 0 1 .04.68v.55l.08.08c.06.05.09.06.14.05l.12-.01c.05 0 .05 0 .04-.6v-.6l-.07-.08c-.07-.1-.28-.14-.35-.07zm4.78.16c0 .1-.05.1-.82.1h-.74v.26h.54c.65 0 .68 0 .66.15 0 .07-.03.13-.07.17a1.6 1.6 0 0 0-.08.1.12.12 0 0 1-.08.03c-.03 0-.07.02-.1.05-.04.05-.06.06-.45.06l-.42.01v.13l-.01.13.11.01a4 4 0 0 0 .98-.04c.03-.05.13-.09.21-.09.06 0 .2-.12.2-.17l.06-.05c.03-.01.06-.04.06-.06 0-.01.02-.04.04-.04.06-.02.08-.06.08-.12 0-.03.03-.07.06-.1s.06-.07.06-.09c0-.05.07-.08.12-.05.03 0 .04.03.04.04 0 .03.17.19.2.19s.06.09.06.15c0 .05.02.07.06.09.04.01.06.04.06.06 0 .02.02.03.04.03s.05.03.06.07c.02.06.04.06.1.05a2.56 2.56 0 0 0 1.15.13l.22-.02v-.25h-.45c-.44-.01-.46-.02-.5-.07a.13.13 0 0 0-.07-.05c-.01 0-.04-.03-.05-.06-.01-.03-.04-.06-.06-.06-.08 0-.13-.05-.15-.15-.04-.17-.04-.17.65-.18l.62-.01v-.13l.01-.12h-.85c-.86 0-.89 0-.91-.08a1.74 1.74 0 0 0-.64-.02z" clip-rule="evenodd"/></svg>