<svg width="36" height="36" fill="none" xmlns="http://www.w3.org/2000/svg"><defs><linearGradient id="a" x1="10.969" y1="9.249" x2="13.283" y2="26.476" gradientUnits="userSpaceOnUse"><stop offset=".24" stop-color="#C5D72D"/><stop offset=".46" stop-color="#05A2C1"/><stop offset=".63" stop-color="#53B9E9"/><stop offset=".81" stop-color="#009FD6"/></linearGradient></defs><path d="M18 0c2.837 0 5.52.656 7.907 1.825C31.884 4.753 36 10.895 36 18c0 9.942-8.058 18-18 18-9.94 0-18-8.057-18-18C0 8.06 8.06 0 18 0z" fill="#F2F4F7"/><path d="M25.869 18.57H14.716v1.928h10.356v5.142l-5.143-4.339v2.571l5.329 4.57c1.209.933 1.742.084 1.742-.61v-8.234c-.045-.72-.771-1.041-1.131-1.022v-.007z" fill="#53B9E9"/><path d="m17.892 12.45-7.09-3.201v2.14l5.913 2.739V21.7l-5.785 2.816v-4.018h3.876V18.57h-4.223c-1.324-.065-1.607.964-1.581 1.433v5.554c0 1.42 1.054 1.401 1.58 1.208l7.31-3.361c.655-.27.752-.971.752-1.286v-8.479a1.345 1.345 0 0 0-.752-1.189z" fill="url(#a)"/><path d="m25.393 7.295-5.464 4.763.013 2.417 5.13-4.377v5.258H10.93V9.294c-1.305-.566-1.928-.064-1.928.598v6.126c0 .99.81 1.285 1.189 1.266h15.568c1.048 0 1.241-.874 1.241-1.266V7.944c-.077-1.311-1.106-.977-1.607-.643v-.006z" fill="#C5D72D"/></svg>