<svg width="36" height="36" fill="none" xmlns="http://www.w3.org/2000/svg"><path d="M18 0c2.837 0 5.52.656 7.907 1.825C31.884 4.753 36 10.895 36 18c0 9.942-8.058 18-18 18-9.94 0-18-8.057-18-18C0 8.06 8.06 0 18 0z" fill="#F2F4F7"/><path d="M23.054 21.03v-.883c0-.755-.418-1.08-1.022-1.08-.605 0-.825.22-.953.348-.128-.128-.349-.349-.953-.349s-1.022.326-1.022 1.08v.942c0 .348-.058.627-.058.674h1.034v-1.51c0-.326 0-.558.255-.558.256 0 .256.232.256.557v1.51h.953v-1.51c0-.325 0-.557.255-.557.256 0 .256.232.256.557v.988c0 .407.267.58.592.58.151 0 .36 0 .57-.046.058-.011.058-.023.011-.07-.046-.08-.174-.255-.174-.673zm-16.568-.14c-.267-.36-.523-.766-.523-.766l1.232-1.197c-.21-.012-.523-.07-.813-.012-.302.058-.477.21-.767.523l-.57.616V17.88h-.987v3.195c0 .349-.058.628-.058.674h1.104a3.623 3.623 0 0 1-.058-.674v-.65l.639.918c.197.29.476.453.79.453.325 0 .51-.024.778-.047v-.012c-.197-.139-.5-.488-.767-.848zm1.58-1.998a.516.516 0 0 0 .512-.511.516.516 0 0 0-.512-.511.516.516 0 0 0-.51.51c0 .28.232.512.51.512zm.488.372h-.987v1.812c0 .349-.058.628-.058.674h1.103a3.622 3.622 0 0 1-.058-.674v-1.812zm8.68-.256c-.768 0-1.5.581-1.5 1.418 0 .836.732 1.417 1.51 1.417.768 0 1.511-.558 1.511-1.417 0-.883-.79-1.418-1.522-1.418zm.01 2.266c-.452 0-.522-.511-.522-.848 0-.372.07-.848.523-.848.43 0 .511.488.511.848 0 .337-.07.848-.511.848zm12.212.418c-.07-.081-.198-.267-.198-.662v-.848c0-.36-.081-1.127-1.336-1.127-1.243 0-1.336.767-1.336 1.115v.964c0 .395-.65.395-.65 0v-.964c0-.36.023-1.115-1.244-1.115-.732 0-1.034.36-.918.848.174-.128.535-.256.814-.256.139 0 .36.035.36.21 0 .15-.151.232-.36.29-.454.14-1.174.325-1.174.94 0 .617.72.896 1.534.582a.882.882 0 0 0 .186-.105c.116.105.278.186.546.186h1.963c-.046-.07-.081-.302-.081-.616v-.952c0-.128 0-.5.36-.5.348 0 .348.372.348.5v1.045c0 .407.268.581.593.581.14 0 .36 0 .581-.046.07-.012.058-.012.012-.07zm-5.136-.558c0-.325.407-.51.64-.569v.465a.96.96 0 0 0 .046.302c-.256.116-.686.104-.686-.198zm-12.652-.244c-.267-.36-.523-.766-.523-.766l1.232-1.197c-.21-.012-.523-.07-.802-.012-.302.059-.476.21-.767.523-.29.314-.569.628-.569.628V17.88h-.988v3.195c0 .349-.046.628-.058.674h1.104a3.623 3.623 0 0 1-.058-.674v-.65l.639.918c.197.29.476.453.79.453.325 0 .511-.024.779-.047v-.011c-.198-.14-.5-.488-.779-.849z" fill="#F08300"/><path d="M16.13 21.878c-.395-.21-.767-.662-1-.988-.058-.08-.534-.766-.534-.766l1.231-1.197c-.209-.012-.522-.07-.801-.012-.302.059-.477.21-.767.523-.267.29-.523.57-.57.616v-2.173h-.975v3.195c0 .349-.047.628-.058.674h1.103a3.623 3.623 0 0 1-.058-.674v-.65s.302.418.674.952c.465.674.871.605 1.743.558.07-.012.058-.035.012-.058zm14.824-4.508c-.046.175-.174.082-.174-.011 0-.128.047-.175.047-.175l-.093-.104h-.395v-.128h.313l.14-.314-.07-.116h-.186v-.15h.256l.046-.105h.105v-.012h-.407v-.058l-.081-.047-.081.047v.058h-.488v-.058l-.082-.047-.081.047v.058h-.395v.012h.104l.047.104h.255v.151h-.185l-.07.116.14.314h.313v.14h-.395l-.093.104s.047.035.047.174c0 .093-.128.186-.175.012 0 0-.035.302.151.302.128 0 .186-.186.14-.442h.325v.198h-.105v-.116l-.046-.035-.047.035v.22l.105.105s.105-.104.29-.104a.43.43 0 0 1 .29.104l.105-.104v-.221l-.046-.035-.047.035v.104h-.104v-.197h.325c-.046.267.012.441.14.441.197 0 .162-.302.162-.302zm-.999-.65h-.162l.023.046h.128v.07h-.256l-.093-.198h.337v.082h.023zm.186-.198h-.244v-.15h.488v.15h-.244zm.186.326v-.07h.128l.023-.047h-.151v-.07h.337l-.093.198-.244-.012z" fill="#F08300"/><path d="M28.968 16.348v1.197l1.173.58 1.174-.58v-1.197l-1.174-.58-1.173.58zm1.173-.511c.023.011 1.08.523 1.115.546v1.127c-.034.011-1.092.534-1.115.546a99.926 99.926 0 0 0-1.115-.546v-1.127c.035-.012 1.092-.535 1.115-.546z" fill="#F08300"/><path d="M32 15.906 30.14 15l-1.859.906v2.057l1.859.93 1.859-.93v-2.057zm-.57 1.708-1.289.627-1.29-.627v-1.336l1.29-.639 1.29.627v1.348z" fill="#F08300"/></svg>