<svg width="36" height="36" fill="none" xmlns="http://www.w3.org/2000/svg"><path d="M18 0c2.837 0 5.52.656 7.907 1.825C31.884 4.753 36 10.895 36 18c0 9.942-8.058 18-18 18-9.94 0-18-8.057-18-18C0 8.06 8.06 0 18 0z" fill="#F2F4F7"/><path d="M5.598 15H8.22c.881 0 1.605.666 1.605 1.483v.366H8.191v-.05c0-.287-.25-.524-.551-.524H6.178a.537.537 0 0 0-.552.523v1.498c0 .286.251.523.552.523H7.64c.3 0 .551-.237.551-.523v-.058h1.634v.373c0 .817-.724 1.483-1.605 1.483H5.598c-.882 0-1.598-.666-1.598-1.483v-2.128C4 15.666 4.716 15 5.598 15z" fill="#0077C1"/><path d="M20.73 15h3.625c.61 0 1.096.459 1.096 1.017v.58H23.94v-.257c0-.194-.165-.344-.373-.344h-2.05c-.2 0-.372.158-.372.344v.372c0 .187.172.344.373.344h2.988c.53-.007.938.523.945 1.068v.946c0 .558-.494 1.017-1.096 1.017H20.73c-.602 0-1.096-.459-1.096-1.017v-.58h1.511v.257c0 .186.172.344.373.344h2.049c.2 0 .373-.158.373-.344v-.372c0-.194-.165-.344-.373-.344h-2.995c-.523-.008-.931-.523-.946-1.068v-.946c.008-.558.502-1.017 1.104-1.017z" fill="#DD1F31"/><path d="M27.343 15h1.634v3.819H32v1.268h-4.657V15zm-12.617 0h1.368c.91 0 1.655.666 1.655 1.476v2.142c0 .81-.745 1.476-1.655 1.476h-1.368V18.82h.652c.473 0 .86-.344.86-.767v-1.017c0-.423-.387-.767-.86-.767h-.652V15zm-1.376 0h1.369v1.275h-.652c-.473 0-.86.344-.86.767v1.01c0 .423.387.767.86.767h.652v1.268H13.35c-.91 0-1.655-.666-1.655-1.476v-2.135c0-.817.745-1.476 1.655-1.476z" fill="#0077C1"/></svg>