<svg width="36" height="36" fill="none" xmlns="http://www.w3.org/2000/svg"><path d="M18 0c2.837 0 5.52.656 7.907 1.825C31.884 4.753 36 10.895 36 18c0 9.942-8.058 18-18 18-9.94 0-18-8.057-18-18C0 8.06 8.06 0 18 0z" fill="#F2F4F7"/><path d="M8.63 26.449c-.09-.044-.191-.035-.287-.058-.408-.099-.788-.248-1.066-.581-.294-.353-.346-.76-.193-1.175.149-.405.493-.62.902-.684.633-.1 1.108.183 1.34.76.079.197.156.396.313.549.216.209.477.183.634-.073.105-.176.16-.378.156-.584.002-3.368.002-6.736 0-10.103a.393.393 0 0 0-.396-.399c-.187-.003-.374 0-.56 0a.622.622 0 0 1-.604-.498.604.604 0 0 1 .412-.684.98.98 0 0 1 .322-.04h5.26c.294 0 .433-.097.539-.375.105-.278.389-.458.723-.46h8.29c.195 0 .195 0 .196.195v.914c0 .164 0 .165-.17.165h-2.168c-.365 0-.56.198-.56.564v7.65c0 .332-.121.586-.413.772-.824.523-1.638 1.06-2.455 1.59a.94.94 0 0 1-.171.092c-.335.128-.643-.07-.668-.428-.004-.047 0-.096 0-.143v-9.36c0-.078-.006-.156-.017-.234-.044-.337-.226-.5-.567-.503-.409-.003-.818 0-1.227 0-.279 0-.4.09-.497.35a.657.657 0 0 1-.622.432c-.127.003-.253 0-.379 0a.39.39 0 0 0-.401.392v7.715c.008.433-.12.858-.366 1.215-.185.265-.441.454-.704.632-.863.58-1.733 1.152-2.592 1.74-.432.296-.887.527-1.405.618-.084.014-.173-.012-.251.036H8.63zm16.502-9.728-.003-4.504c0-.123.03-.16.157-.16 1.144.005 2.289.005 3.433 0 .119 0 .142.035.142.146-.003 2.38-.004 4.76-.003 7.141 0 .329-.117.589-.411.776-.831.527-1.652 1.07-2.478 1.604a.6.6 0 0 1-.277.105c-.32.026-.507-.142-.554-.5a1.206 1.206 0 0 1-.006-.157v-4.45zM26.988 10h1.41a.587.587 0 0 1 .6.55c.024.349-.183.61-.522.655a1.46 1.46 0 0 1-.194.016h-2.608c-.224 0-.43-.046-.569-.25a.6.6 0 0 1-.052-.64.558.558 0 0 1 .527-.33h1.408z" fill="#06B085"/></svg>