<svg height="36" viewBox="0 0 36 36" width="36" xmlns="http://www.w3.org/2000/svg"><mask id="a" fill="#fff"><path d="M0 0h3.237v3.909H0z" fill-rule="evenodd"/></mask><mask id="b" fill="#fff"><path d="M0 0h23.632v2.065H0z" fill-rule="evenodd"/></mask><g fill="none" fill-rule="evenodd"><path d="M18 0c2.837 0 5.52.656 7.907 1.825C31.884 4.753 36 10.895 36 18c0 9.942-8.058 18-18 18-9.94 0-18-8.057-18-18C0 8.06 8.06 0 18 0z" fill="#f2f4f7" fill-rule="nonzero"/><g fill="#27676b"><path d="M3.235 2.6c-.016-.06-.19-.034-.335-.047a2.048 2.048 0 0 1-.5-.105 3.75 3.75 0 0 1-.533-.228l-.07-.037a.36.36 0 0 0-.038-.022.187.187 0 0 0-.028-.016.11.11 0 0 1-.028-.017L1.67 2.11a.34.34 0 0 1-.039-.027l-.024-.014a.55.55 0 0 1-.025-.015c-.013-.009-.02-.016-.034-.024-.008-.006-.013-.01-.023-.015L1.5 1.996l-.015-.01-.029-.027-.027-.02a.163.163 0 0 0-.02-.018l-.038-.028c-.009-.007-.017-.017-.027-.023l-.03-.024a.08.08 0 0 1-.019-.017l-.02-.02c-.007-.007-.017-.014-.022-.02a.208.208 0 0 0-.034-.032l-.01-.012-.012-.013-.01-.01-.014-.013a.115.115 0 0 0-.01-.013.074.074 0 0 0-.009-.012l-.017-.019c-.004-.002-.007-.006-.01-.01l-.009-.01a.036.036 0 0 0-.007-.01c-.004-.006-.007-.004-.008-.004-.003.002-.004.007 0 .013a.104.104 0 0 0 .014.021.049.049 0 0 0 .01.017c.005.008.01.014.016.02l.006.005a.038.038 0 0 1 .01.013l.01.014.005.006a.01.01 0 0 0 .005.006l.01.01a.235.235 0 0 0 .017.016l.011.012.033.038c.006.007.015.011.021.016.007.005.013.015.02.022.003.005.011.012.016.018a.144.144 0 0 0 .033.032.097.097 0 0 1 .021.02l.021.023c.011.014.016.028.014.028-.008.002-.026-.015-.038-.023-.01-.005-.01-.008-.019-.015a.096.096 0 0 1-.022-.018.153.153 0 0 1-.018-.018c-.016-.02-.02-.022-.04-.04-.013-.013-.03-.025-.043-.037l-.01-.012-.015-.013c-.006-.008-.015-.023-.02-.028l-.023-.018c-.003 0-.005-.005-.008-.007a.045.045 0 0 1-.01-.009l-.028-.035c-.004-.005-.01-.01-.013-.016l-.026-.036c-.013-.017-.03-.028-.042-.044-.013-.017-.019-.036-.03-.055l-.02-.019-.007-.014-.02-.028c-.01-.012-.014-.025-.023-.038a.045.045 0 0 0-.009-.016L.897 1.42.884 1.4a.114.114 0 0 0-.009-.017c-.003-.005-.009-.012-.01-.016-.009-.01-.01-.017-.019-.028-.005-.007-.009-.01-.014-.009-.003.001-.002.005 0 .008l.006.015c.006.012.008.017.015.027l.013.023c.003.006.01.013.012.018.003.006.007.021.012.027a.16.16 0 0 1 .011.02l.021.032.014.026c.01.013.02.025.028.04l.016.028.018.023c.007.01.01.02.016.03l.017.021a.595.595 0 0 0 .024.037c.005.007.012.012.017.02.007.01.012.02.02.026l.016.021c.01.012.034.046.03.047-.014.002-.042-.03-.053-.04-.009-.01-.019-.016-.025-.025-.01-.012-.016-.026-.025-.038-.003-.005-.009-.008-.012-.012a.503.503 0 0 0-.019-.024l-.009-.01c-.012-.014-.022-.03-.032-.045l-.015-.017c-.004-.005-.006-.01-.009-.016-.004-.007-.01-.013-.015-.019a.08.08 0 0 0-.008-.016l-.02-.025c-.005-.008-.006-.017-.01-.025l-.038-.056c-.004-.005-.005-.01-.008-.015l-.028-.048c-.004-.005-.005-.012-.009-.017l-.015-.019c-.004-.005-.005-.01-.008-.017l-.013-.023A.528.528 0 0 1 .73 1.24c-.006-.01-.013-.02-.017-.03-.006-.012-.01-.024-.017-.036l-.008-.023c-.006-.012-.015-.023-.02-.035L.66 1.092c-.003-.005-.007-.008-.01-.006-.003.001-.004.005-.002.012.004.013.011.027.015.035.007.015.01.03.016.044.003.01.01.017.013.025l.02.042c.003.006.005.014.01.022.001.004.005.008.007.012.004.01.005.02.01.03.004.008.012.016.016.024.022.048.044.093.071.135.008.012.012.027.02.038.007.012.018.022.025.033.007.01.01.024.014.035.008.015.02.03.03.044l.006.012.011.018.013.023c.006.008.015.015.02.023a.26.26 0 0 0 .02.03c.004.007.012.012.018.02l.044.057c.012.016.035.04.044.06.004.007.015.022.013.025-.006.004-.034-.026-.039-.03-.012-.012-.02-.027-.032-.04-.002-.004-.029-.029-.03-.032l-.009-.01c-.008-.013-.012-.027-.02-.036-.004-.005-.009-.008-.01-.013-.01-.008-.014-.018-.02-.024-.01-.014-.023-.025-.03-.038-.012-.014-.02-.032-.03-.045l-.017-.02-.005-.012C.86 1.58.853 1.574.85 1.566.848 1.56.846 1.554.842 1.55a1.53 1.53 0 0 0-.033-.053C.804 1.49.801 1.48.797 1.472.79 1.46.778 1.448.77 1.435.76 1.42.755 1.402.745 1.386l-.02-.029c-.008-.012-.01-.025-.017-.035-.006-.01-.014-.02-.019-.03l-.014-.034-.009-.017-.008-.024c-.01-.02-.025-.04-.034-.062a.915.915 0 0 1-.02-.046C.601 1.1.6 1.091.595 1.083l-.027-.059-.012-.03c0-.003 0-.006-.002-.009L.542.957l-.01-.03C.518.891.506.853.493.818L.49.797.47.743C.463.733.455.737.458.746l.005.025.003.016a.036.036 0 0 1 .007.017c.004.012.004.022.008.032L.497.88l.004.023.007.02A2.1 2.1 0 0 1 .53.978l.008.031.01.018c.002.006.001.01.004.015l.014.036.014.03.004.014a.858.858 0 0 0 .037.093c.003.008.004.016.008.023.002.007.006.012.008.02l.005.011c.004.01.011.016.015.024.012.025.021.047.036.068.014.02.02.045.03.067a.16.16 0 0 0 .017.03l.008.016c.006.012.01.022.017.032.006.01.006.011.011.023.002.004.008.026.006.026-.002.002-.013-.005-.017-.01a.08.08 0 0 1-.018-.025l-.012-.023C.728 1.482.716 1.47.708 1.455.703 1.448.7 1.44.696 1.43a2.256 2.256 0 0 1-.024-.049C.67 1.374.664 1.37.66 1.362l-.01-.02a.318.318 0 0 1-.026-.044l-.013-.033-.007-.01-.008-.018-.013-.026c-.009-.017-.013-.035-.02-.05-.005-.009-.012-.016-.016-.024-.005-.013-.005-.028-.01-.04A1.07 1.07 0 0 1 .49.993L.486.974C.481.958.473.945.468.93A.077.077 0 0 1 .463.91L.45.878c0-.004 0-.007-.003-.01C.443.858.44.846.435.836L.427.82C.423.81.424.796.421.788A1.068 1.068 0 0 0 .405.744C.401.735.401.727.398.72a.363.363 0 0 0-.01-.03C.383.68.383.67.38.66L.373.635C.368.621.366.607.361.595.361.59.36.588.358.585S.354.58.351.58C.346.581.346.587.347.59c0 .011.004.02.007.03.004.007.005.016.008.025l.002.017.007.024c.002.008.001.016.003.021C.38.725.384.745.39.76c.003.01.003.02.006.027l.01.026C.41.82.41.828.412.834a.16.16 0 0 1 .01.023C.425.868.424.878.428.89l.02.047.004.018c.005.013.01.028.013.042.007.02.016.04.024.058.007.02.008.041.016.06.003.008.012.013.016.022.002.005.002.012.003.018l.01.021.004.02c.003.006.008.012.01.02.005.011.008.023.015.033.005.008.011.015.015.024.005.01.007.02.011.03l.02.042c.004.014.006.028.013.04.006.013.014.023.02.034l.013.028c.003.007.01.012.014.02l.013.028c.004.006.005.013.01.02.005.01.01.016.016.025.005.008.01.02.014.03a.102.102 0 0 0 .01.02c.005.006.011.012.015.02s.01.028.007.03c-.004 0-.019-.014-.022-.019-.01-.012-.017-.03-.026-.044a.342.342 0 0 1-.026-.04C.675 1.528.668 1.51.662 1.5a.18.18 0 0 1-.018-.025l-.008-.024c-.005-.01-.015-.018-.02-.03L.6 1.383l-.01-.017C.587 1.358.585 1.35.581 1.343.574 1.328.563 1.314.556 1.3c-.008-.016-.01-.033-.019-.049-.004-.008-.012-.016-.016-.025-.005-.012-.008-.023-.014-.035-.002-.007-.007-.014-.01-.02-.005-.01-.007-.02-.012-.032-.01-.023-.02-.048-.032-.07l-.009-.03-.012-.023C.423.995.42.97.412.95L.394.917.38.863C.37.834.362.805.352.778L.345.752A.135.135 0 0 1 .337.728.144.144 0 0 1 .332.704L.31.634.304.61A.07.07 0 0 0 .3.597C.3.592.3.587.297.581L.281.527.277.507C.27.483.265.453.257.43.253.425.25.421.246.422.242.423.243.428.244.432c.001.012.005.021.007.03a.07.07 0 0 1 .001.015l.003.015c.004.014.01.031.013.045C.27.544.27.555.271.563c.006.023.011.052.02.072.006.02.008.042.013.063l.004.027c.001.01.006.015.01.021.001.006.001.011.003.016.005.016.008.03.014.045.003.011.008.021.012.03L.35.851l.008.03.022.064c.003.01.004.022.008.033l.05.131.007.03c.004.01.01.017.014.025.005.012.006.024.01.036.005.014.012.025.018.04a.29.29 0 0 0 .008.021c.002.005.007.01.01.015.003.01.004.02.008.028s.012.016.017.024c.005.007.005.017.01.026l.018.04.006.017c.003.005.008.012.011.02h.001l.001.003.003.01c.001.003.005.01.007.011a.033.033 0 0 0 .006.008l.003.005c.006.01.007.022.012.031.004.01.013.018.018.03.004.007.006.025.001.026-.02 0-.022-.027-.029-.042-.005-.012-.012-.02-.018-.03L.574 1.47c0-.004-.003-.008-.004-.01l-.005-.01-.009-.014C.548 1.424.544 1.407.538 1.4l-.01-.014-.012-.026-.012-.024C.5 1.326.5 1.313.494 1.303l-.009-.015C.48 1.276.476 1.264.47 1.253l-.009-.015c-.005-.01-.007-.02-.012-.029a.409.409 0 0 1-.03-.059c-.005-.012-.007-.024-.012-.034l-.015-.03-.007-.019-.012-.033-.007-.03-.01-.026C.348.966.347.954.341.941.34.932.334.922.332.913S.326.897.322.89L.315.871C.312.864.31.852.308.842.305.832.3.823.298.812.295.804.295.787.293.782L.262.684C.257.67.256.655.252.64L.248.621.24.593.235.574a.18.18 0 0 0-.008-.02L.212.495.208.47C.201.447.2.42.192.396L.188.374C.175.33.171.278.158.235.154.226.157.215.155.206L.147.178c0-.005 0-.009-.002-.013C.142.16.14.152.135.153.131.155.131.16.131.165l.004.027c.001.008 0 .012.002.02.005.013.006.034.01.046v.02c.001.005.006.012.008.02L.157.33l.007.026c.002.007.001.014.003.02l.006.021c.001.007 0 .02.002.026.01.04.013.088.025.127l.003.018C.213.6.22.637.23.67c.002.004.002.01.003.016l.01.036a.71.71 0 0 0 .014.052l.002.017.005.015c.002.007.001.014.003.02a.045.045 0 0 1 .006.012L.278.86A.189.189 0 0 0 .29.884c.002.007.002.014.005.022l.014.038c.004.01.004.02.008.031a.18.18 0 0 1 .008.021l.005.016.01.02c.003.006.002.016.004.024s.007.015.01.023l.004.022.01.018a.107.107 0 0 1 .006.02c.002.003.006.007.008.012l.01.022.007.037v.014c-.007.001-.012-.008-.016-.013a.136.136 0 0 1-.019-.039l-.01-.025c-.002-.006-.006-.01-.007-.017-.003-.008-.002-.017-.005-.024C.34 1.1.334 1.096.332 1.09l-.006-.016-.01-.018c-.003-.006-.003-.013-.005-.02l-.008-.024L.293.99C.29.985.29.98.287.976L.281.957.276.945.267.923.263.906.253.874.248.851a.203.203 0 0 0-.01-.026L.231.802C.228.792.223.784.22.773L.216.75.2.69C.192.668.191.644.185.622L.171.577.167.554C.162.537.157.514.15.496.147.487.148.477.145.466.142.456.142.444.14.433L.132.413c0-.008 0-.018-.002-.025L.117.336C.115.33.115.317.114.312L.107.288.105.271.097.24c0-.006 0-.017-.002-.023C.095.211.09.2.09.19.085.178.09.167.085.157L.077.134A.08.08 0 0 1 .073.117c0-.007 0-.019-.002-.023L.068.07A.194.194 0 0 0 .063.036C.061.032.063.026.061.022.058.01.055 0 .05 0 .045 0 .043.004.045.012.047.022.047.03.05.037L.051.06l.002.015a.03.03 0 0 1 .002.01l.003.014v.015l.001.01.002.01v.011a.05.05 0 0 0 .002.012c.002.008.008.02.006.031C.066.2.07.211.073.222l.001.022.008.028C.084.28.083.287.085.294c.002.011.01.026.01.03L.097.35a.115.115 0 0 1 .004.022v.011l.007.028.002.011.006.032.002.016.008.027.002.017.006.025.002.02c.003.015.005.028.01.043.002.008.007.016.01.023L.16.648c.002.007.006.013.008.018l.002.02a.133.133 0 0 1 .005.018c.001.005 0 .01.002.016l.006.017.003.022.01.025C.197.79.195.8.197.807L.214.86C.216.87.216.876.22.886l.008.016C.23.907.227.913.23.92c.002.01.003.024.007.034.004.011.011.021.015.032s.004.023.008.036c.004.011.01.02.013.03.003.008.002.02.005.027.004.01.011.018.015.028l.01.033.003.015c.004.014.012.027.017.041l.005.017.011.031.014.026c.004.008.005.016.008.024l.01.025.005.014.032.067c.006.013.008.025.014.037.004.01.01.018.014.03l.006.018.02.036c.001.003.004.016.002.02v.002c-.004.001-.01-.005-.016-.009-.014-.014-.017-.04-.026-.058L.413 1.46a.049.049 0 0 0-.004-.01c-.006-.013-.014-.024-.02-.036-.004-.008-.004-.019-.008-.027-.016-.035-.035-.069-.05-.104-.007-.016-.009-.035-.015-.05-.004-.012-.01-.02-.015-.029L.294 1.18.28 1.15c-.002-.007-.003-.014-.006-.02s-.009-.015-.012-.023c-.005-.01-.005-.022-.009-.034l-.007-.02C.243 1.046.243 1.04.241 1.035.236 1.021.228 1.01.223.996.22.987.22.976.216.966.214.96.208.954.206.946.2.938.203.928.201.918L.193.893A.124.124 0 0 1 .19.877L.177.845C.175.84.175.835.172.83.17.823.165.817.163.81.16.8.16.788.157.778L.143.74c0-.005 0-.009-.002-.014C.137.714.136.701.132.69V.673L.12.64.116.62C.111.6.106.58.1.563.1.56.1.554.098.548A.27.27 0 0 1 .086.505L.082.482.075.454v-.01L.071.425C.066.401.056.371.052.347.048.338.048.33.047.321c0-.006 0-.014-.003-.02L.04.282.037.252V.247A.278.278 0 0 1 .026.201C.023.19.022.176.02.164a.096.096 0 0 0 0-.024L.012.104V.08C.01.076.01.068.004.068 0 .068 0 .075 0 .08a.212.212 0 0 0 .002.038c.002.015.001.03.002.044l.004.026.006.042v.001l.002.02h.001v.002l.002.01.003.015C.026.294.025.313.03.33c.007.024.01.05.017.074l.001.021a.745.745 0 0 0 .006.023l.003.028L.064.5C.067.51.067.52.07.531l.01.033c0 .012.001.026.004.04l.01.035.001.012L.1.676l.002.011a.967.967 0 0 0 .014.051C.12.742.12.746.12.751l.008.025.003.017a.745.745 0 0 0 .006.023l.004.017.007.02c.005.015.006.03.011.043L.17.92l.004.027.015.043c.006.015.01.033.015.048.003.006.002.012.004.02l.014.047c.003.008.003.016.007.023.005.014.013.025.017.037.005.012.005.024.01.034l.017.044c.004.01.005.02.01.03l.012.024.007.023.012.022c.005.01.005.021.01.031l.02.05.006.018c.004.012.012.02.016.03.005.01.006.02.01.03.006.013.011.02.011.04 0 .001 0 .003-.003.003-.003.002-.007-.005-.01-.006-.01-.01-.012-.02-.019-.035L.322 1.44C.316 1.43.314 1.416.31 1.405l-.01-.02c-.005-.01-.007-.02-.013-.03-.007-.013-.013-.028-.019-.043l-.005-.017-.009-.016-.01-.03-.024-.054-.015-.05-.009-.023-.004-.018-.019-.047C.168 1.05.168 1.042.165 1.035l-.012-.03C.148.992.148.977.143.964.133.935.121.906.113.876.11.871.11.864.108.857A2.668 2.668 0 0 1 .094.81C.09.792.09.774.085.756L.063.69.06.67A.789.789 0 0 0 .044.615C.041.608.041.6.038.592.034.583.025.586.026.596c0 .01.004.022.004.026.002.006.002.013.003.02l.01.032C.047.685.047.696.05.707l.006.018C.058.737.058.748.063.76l.008.028.003.015.01.032.002.017.006.024c.002.008.002.018.005.026l.015.044c.005.014.006.03.012.046.01.027.018.058.028.086.003.006.002.014.004.022a.46.46 0 0 0 .01.035c.002.005.006.011.007.016.004.007.004.013.008.021l.008.017c.003.01.002.02.005.027l.01.021c.002.008.002.015.005.023l.01.018.005.018.01.02.006.021.01.02c.002.007.002.014.005.021.003.011.01.02.015.031.003.006.003.015.007.023a.215.215 0 0 0 .014.026l.013.036c.01.02.012.041.022.06l.021.042c.004.01.005.017.01.025s.01.015.014.024.006.018.01.025c.004.012.011.022.016.033l.008.017c.005.012.014.022.02.033a.225.225 0 0 1 .007.024c.007.012.016.023.022.036l.013.027.022.036c.006.008.013.022.017.031s.012.017.016.026c.004.01.01.02.015.028l.017.026c.01.014.016.031.026.046l.021.031c.021.027.05.076.061.092.01.013.018.03.027.043l.025.031c.005.01.01.017.017.026l.005.007c.253.321.513.534.733.674a.988.988 0 0 0 .18.094c.014.006.004.016-.004.021L.34 3.887c-.004.003-.014.01-.01.018.003.007.016.003.02.002 1.048-.369 1.81-.67 2.274-.89.471-.225.63-.354.612-.417M.447 1.365A.12.12 0 0 1 .44 1.35l-.005-.017-.025-.056C.405 1.268.4 1.254.404 1.246c0-.002.003-.002.004 0l.008.006.004.008.012.02c.007.014.008.031.015.046.005.01.012.017.017.027l.005.017a.049.049 0 0 1 .001.012c0 .005 0 .01-.002.01-.012-.002-.016-.018-.02-.027m.054.4c0 .001-.002.003-.004.003-.014 0-.019-.022-.025-.03L.46 1.713c-.004-.006-.008-.01-.01-.017-.005-.009-.007-.017-.012-.025-.002-.004-.006-.007-.009-.01a.145.145 0 0 1-.019-.035c0-.004-.003-.008-.004-.013l-.009-.025a.04.04 0 0 1 0-.015l.001-.002c.011.002.021.028.026.037.006.011.015.018.02.03.005.01.006.021.011.03l.015.02c.006.01.01.02.014.03.006.011.013.02.017.03.002.004.003.012.002.017m.38-.056c-.007.003-.029-.02-.035-.03a.55.55 0 0 0-.034-.05c-.01-.015-.022-.026-.025-.05 0-.003-.002-.01 0-.01.011 0 .022.02.03.028l.012.018c.006.008.008.02.013.028l.025.03c.005.005.01.01.013.017 0 .004.004.017.001.02" mask="url(#a)" transform="translate(4 16)"/><path d="M3.872 1.772 3.02 0l-.846 1.772c-.127.242-.267.247-.267.247l-.013.014h.581l-.015-.014s-.161-.032-.059-.247l.152-.313h.725l.148.313c.102.215-.06.247-.06.247l-.013.014h.799l-.014-.014s-.147-.001-.266-.247zm-1.239-.478.299-.628.272.628zm-1.473.555c-.417 0-.704-.272-.704-.77s.279-.825.719-.825a.68.68 0 0 1 .621.356l.011.009V.2S1.533.066 1.143.066C.441.066 0 .5 0 1.081c0 .467.364.984 1.115.984.283 0 .614-.112.614-.112l.152-.519-.017.011s-.246.404-.704.404zM11.34.097l.012.013s.172.049.042.249c-.062.098-.253.37-.426.635-.175-.265-.363-.539-.425-.636-.13-.201.042-.248.042-.248l.013-.013h-.797l.012.013s.116.019.267.248c.063.096.388.549.562.812v.603c0 .228-.129.248-.129.248l-.014.013h.692l-.012-.013s-.129-.02-.129-.248l-.002-.603c.175-.263.499-.714.563-.811.15-.228.323-.249.323-.249l.013-.013zM9.973 1.772 9.12 0l-.846 1.772c-.127.242-.266.247-.266.247l-.013.014h.578l-.012-.014s-.162-.032-.06-.247l.152-.313h.726l.147.313c.103.215-.058.247-.058.247l-.014.014h.798l-.014-.014s-.146-.001-.265-.247zm-1.241-.478.3-.628.273.628zM4.149.097c-.228 0-.259-.022-.259-.022L3.889.46l.012-.009s.105-.167.332-.167h.326v1.489c0 .228-.129.248-.129.248l-.013.013h.691l-.012-.013s-.129-.02-.129-.248L4.968.284h.317c.229 0 .338.167.338.167l.014.009.001-.385s-.033.022-.261.022zm3.635 1.676V.354c0-.228.129-.244.129-.244l.014-.013h-.693l.013.013s.129.016.129.244l.001.557h-.952V.354c0-.228.13-.244.13-.244l.012-.013h-.692l.014.013s.129.016.129.244v1.419c0 .228-.129.248-.129.248l-.014.013h.692l-.012-.013s-.13-.02-.13-.248v-.672h.952v.672c0 .228-.129.248-.129.248l-.014.013h.694l-.014-.013s-.129-.02-.129-.248zm8.1-.001L15.032 0l-.846 1.772c-.126.242-.266.247-.266.247l-.014.014h.579l-.012-.014s-.163-.032-.06-.247l.152-.313h.725l.148.313c.103.215-.059.247-.059.247l-.013.014h.797l-.013-.014s-.147-.001-.266-.247zm-1.24-.478.299-.628.274.628zm6.768-.937v1.418c0 .228.13.247.13.247l.013.014h-.693l.014-.014s.129-.019.129-.247V.357c0-.229-.129-.247-.129-.247l-.014-.013h.693l-.013.013s-.13.018-.13.247zm-3.481 1.088.016-.011-.151.519s-.33.112-.614.112c-.751 0-1.116-.517-1.116-.984 0-.581.442-1.015 1.145-1.015.389 0 .662.134.662.134v.419L17.862.61s-.165-.356-.62-.356c-.44 0-.72.327-.72.825s.288.77.704.77c.459 0 .705-.404.705-.404zM20.366.097c.229 0 .261-.022.261-.022v.346l-.013-.01S20.519.28 20.29.28h-.49v.619h.408c.227 0 .247-.1.247-.1l.014-.012v.416l-.014-.014s-.02-.1-.247-.1H19.8v.687c0 .227.129.246.129.246l.013.014h-.692l.013-.014s.129-.019.129-.246V.358c0-.229-.129-.247-.129-.247L19.25.097zm-1.618.26v1.418c0 .228.13.247.13.247l.013.014h-.693l.013-.014s.13-.019.13-.247V.357c0-.229-.13-.247-.13-.247l-.013-.013h.693l-.013.013s-.13.018-.13.247zm4.885 1.077-.153.519s-.33.112-.613.112c-.752 0-1.116-.517-1.116-.984 0-.581.441-1.015 1.144-1.015.389 0 .664.134.664.134v.419L23.547.61s-.164-.356-.62-.356c-.441 0-.721.327-.721.825s.289.77.705.77c.459 0 .704-.404.704-.404zm-10.09-.086c.427 0 .682-.323.682-.636 0-.171-.064-.479-.497-.588a1.38 1.38 0 0 0-.343-.027h-.761l.014.013s.129.018.129.247v1.418c0 .228-.129.247-.129.247l-.014.014h.692l-.012-.014s-.129-.019-.129-.247v-.494a.897.897 0 0 0 .368.067zm-.368-.991V.282h.09c.112 0 .227 0 .296.023.183.054.275.194.275.412 0 .18-.113.446-.429.446a.611.611 0 0 1-.232-.058z" mask="url(#b)" transform="translate(8.372 17.844)"/></g></g></svg>