<svg width="36" height="36" fill="none" xmlns="http://www.w3.org/2000/svg"><path d="M18 0c2.837 0 5.52.656 7.907 1.825C31.884 4.753 36 10.895 36 18c0 9.942-8.058 18-18 18-9.94 0-18-8.057-18-18C0 8.06 8.06 0 18 0z" fill="#F2F4F7"/><path d="M11.965 22.06v-2.223l-.004-.05-.015-.046-.022-.041-.03-.04-.038-.03-.043-.022-.046-.015-.048-.004H9.466l-.047.004-.046.015-.044.022-.037.03-.03.04-.025.041-.012.046-.005.05v2.252l.005.048.012.047.024.041.031.038.037.03.044.024.046.013.047.007h2.253l.048-.007.046-.013.043-.024.038-.03.03-.038.022-.041.015-.047.004-.049v-.028z" fill="#F5AB18"/><path d="M4.25 22.339h2.629l.048-.005.046-.012.044-.025.038-.032.031-.037.024-.044.013-.047.005-.048v-3.657l-.005-.045-.011-.044-.02-.04-.023-.033-.034-.031-.037-.027-.04-.018-.044-.008H6.87l-.046.006-.042.014-.04.022-.036.028-.028.034-.016.022-2.613 3.627-.003.004-.022.04-.015.042-.009.047v.044l.009.047.018.042.024.037.03.034.036.028.042.02.044.013.046.002z" fill="#0F367A"/><path d="M12.097 14H9.47l-.05.007-.047.013-.044.024-.038.031-.03.038-.025.044-.013.047-.004.049v3.669l.004.044.011.045.02.04.027.035.032.031.038.027.04.018.044.009h.044l.046-.007.043-.013.039-.022.035-.029.028-.03.017-.024 2.609-3.642v-.005l.022-.04.016-.042.009-.047v-.044l-.009-.047-.017-.042-.025-.038-.03-.033-.036-.03-.042-.02-.045-.012-.042-.004z" fill="#000"/><path d="m7.14 15.563-.005-.112-.011-.113-.02-.11-.029-.11-.035-.107-.044-.104-.05-.101-.06-.097-.067-.093-.07-.086-.077-.082-.084-.077-.088-.07-.093-.063-.097-.057-.103-.048-.104-.042-.108-.036-.111-.026-.11-.018L5.66 14h-.113l-.112.005-.113.015-.11.022-.108.03-.108.039-.102.046-.101.05-.095.06-.09.067-.087.074-.082.08-.074.084-.067.09-.062.095-.053.1-.05.1-.04.11-.027.105-.028.11-.018.114-.009.112v.112l.01.114.017.111.028.109.03.108.036.106.05.104.052.1.062.092.067.09.076.084.082.08.086.073.091.067.095.06.101.053.102.044.108.04.108.028.11.022.113.016.112.006h.113l.113-.011.11-.017.11-.03.109-.034.104-.042.103-.05.098-.056.092-.067.088-.066.084-.076.078-.076.072-.09.067-.092.06-.097.05-.099.044-.104.036-.108.028-.108.02-.113.008-.115.005-.113z" fill="#C7161D"/><path d="M17.083 16.856h-1.81v-.772h2.86v.725l-1.925 2.678h1.928v.772h-2.982v-.722l1.929-2.681zm3.913-.938a2.25 2.25 0 1 0-.002 4.5 2.25 2.25 0 0 0 .002-4.499zm0 3.659a1.408 1.408 0 1 1-.002-2.814 1.408 1.408 0 0 1 .002 2.813m4.841-2.72H24.03v-.772h2.858v.725l-1.929 2.678h1.93v.772h-2.983v-.722l1.93-2.681zm3.913-.938a2.25 2.25 0 1 0-.002 4.5 2.25 2.25 0 0 0 .002-4.5zm0 3.658a1.408 1.408 0 1 1-.002-2.816 1.408 1.408 0 0 1 .002 2.816z" fill="#000"/></svg>