<svg width="36" height="36" fill="none" xmlns="http://www.w3.org/2000/svg"><path d="M18 0c2.837 0 5.52.656 7.907 1.825C31.884 4.753 36 10.895 36 18c0 9.942-8.058 18-18 18-9.94 0-18-8.057-18-18C0 8.06 8.06 0 18 0z" fill="#F2F4F7"/><path d="M7.988 14A3.991 3.991 0 0 0 4 17.994a3.991 3.991 0 0 0 3.988 3.993c1.583 0 2.95-.928 3.593-2.267a3.996 3.996 0 0 0 3.599 2.267 3.979 3.979 0 0 0 3.615-2.318 3.987 3.987 0 0 0 3.622 2.318c1.622 0 3.02-.97 3.643-2.363v2.183H32V19.24h-3.356v-5.06H26.06v2.19a3.987 3.987 0 0 0-7.265-.05A3.979 3.979 0 0 0 15.18 14a3.99 3.99 0 0 0-3.599 2.262A3.982 3.982 0 0 0 7.988 14zm7.203 1.45a1.063 1.063 0 0 1 1.055 1.077 1.065 1.065 0 1 1 .66 2.025c.066.09.116.193.152.305.182.56-.122 1.16-.683 1.342a1.064 1.064 0 0 1-1.195-.39 1.07 1.07 0 0 1-1.732.006 1.071 1.071 0 0 1 .006-1.263 1.066 1.066 0 1 1 .654-2.025c0-.112.02-.226.056-.338a1.068 1.068 0 0 1 1.027-.74zm-.011.643a.201.201 0 0 0-.203.197.2.2 0 0 0 .152.192v1.027a.463.463 0 0 0-.102.016l-.186-.411a.152.152 0 0 0 .051-.108.161.161 0 0 0-.158-.157.156.156 0 0 0-.152.157c0 .085.067.153.152.153h.017l.186.406a.508.508 0 0 0-.085.062l-.338-.305a.152.152 0 0 0 0-.118.152.152 0 0 0-.203-.073.155.155 0 0 0-.079.203.152.152 0 0 0 .203.073l.011-.006.339.3a.508.508 0 0 0-.057.09l-.97-.316a.201.201 0 0 0-.14-.198.198.198 0 1 0-.12.378.194.194 0 0 0 .226-.085l.97.316a.523.523 0 0 0-.01.108l-.446.045a.156.156 0 0 0-.09-.08.154.154 0 0 0-.192.102.15.15 0 0 0 .096.192.16.16 0 0 0 .197-.102c.002-.005-.001-.005 0-.01l.446-.052c.006.036.014.07.028.102l-.384.226a.152.152 0 0 0-.113-.034.158.158 0 0 0-.14.169.153.153 0 0 0 .169.135.158.158 0 0 0 .14-.169c0-.006-.004-.012-.005-.017l.384-.22a.49.49 0 0 0 .073.08l-.598.823a.199.199 0 0 0-.231.067.196.196 0 0 0 .04.277c.088.064.217.05.281-.04a.205.205 0 0 0-.011-.248l.598-.818a.47.47 0 0 0 .096.045l-.09.435a.154.154 0 0 0-.102.062.147.147 0 0 0 .034.208c.068.05.164.035.214-.033a.147.147 0 0 0-.034-.21.199.199 0 0 0-.017-.01l.096-.435c.019.002.038.006.057.006.017 0 .034.002.05 0l.09.429a.162.162 0 0 0-.067.101.152.152 0 0 0 .118.18.152.152 0 0 0 .181-.118.152.152 0 0 0-.118-.18l-.017-.006-.09-.429a.532.532 0 0 0 .1-.045l.599.824a.196.196 0 0 0 .27.282.197.197 0 0 0 .046-.277.202.202 0 0 0-.237-.067l-.598-.818a.54.54 0 0 0 .073-.085l.384.226a.154.154 0 0 0 .243.147.147.147 0 0 0 .033-.21.155.155 0 0 0-.214-.039l-.011.012-.39-.22a.5.5 0 0 0 .034-.102l.446.045c.01.039.036.075.073.096a.153.153 0 1 0 .152-.265.153.153 0 0 0-.208.056c-.003.005-.004.012-.006.017l-.446-.05a.467.467 0 0 0-.01-.102l.97-.316a.204.204 0 0 0 .23.08.195.195 0 0 0 .125-.25.198.198 0 0 0-.248-.129.198.198 0 0 0-.136.203l-.976.316a.465.465 0 0 0-.05-.09l.338-.305a.14.14 0 0 0 .113.012.154.154 0 0 0-.09-.294.16.16 0 0 0-.102.198l.006.011-.333.305a.492.492 0 0 0-.085-.063l.186-.417a.15.15 0 0 0 .113-.034.158.158 0 0 0 .011-.22.158.158 0 0 0-.22-.011.15.15 0 0 0-.01.214c.003.005.006.014.01.017l-.18.412a.505.505 0 0 0-.102-.022v-1.027a.2.2 0 0 0 .147-.192.197.197 0 0 0-.197-.197zm-7.192.44a1.461 1.461 0 1 1-.001 2.922 1.461 1.461 0 0 1 0-2.922zm14.429 0c.494 0 .931.244 1.195.62h2.448v1.698l-2.459-.006c-.265.367-.697.61-1.184.61a1.461 1.461 0 0 1 0-2.922z" fill="#E60013"/></svg>