<svg width="36" height="36" fill="none" xmlns="http://www.w3.org/2000/svg"><path d="M18 0c2.837 0 5.52.656 7.907 1.825C31.884 4.753 36 10.895 36 18c0 9.942-8.058 18-18 18-9.94 0-18-8.057-18-18C0 8.06 8.06 0 18 0z" fill="#F2F4F7"/><path d="M25.988 11.668A1638.612 1638.612 0 0 1 21.319 7h-6.644c-1.563 1.556-3.119 3.118-4.675 4.675v6.645c1.556 1.562 3.118 3.118 4.675 4.674 2.215.006 4.436.006 6.65 0 1.557-1.562 3.107-3.118 4.67-4.668-.008-2.221-.008-4.436-.008-6.658zm-4.4 4.8c-.012.71 0 1.412-.005 2.121h-2.058c-.057-.012-.088.038-.125.063-.465.47-.942.941-1.412 1.412-.502-.484-.979-.986-1.481-1.469-.013-.006-.044-.006-.056-.012h-2.058v-2.058a.106.106 0 0 0-.05-.107c-.464-.464-.935-.928-1.4-1.399-.05-.037 0-.081.026-.106.47-.47.953-.948 1.424-1.424-.007-.697 0-1.393-.007-2.096h2.058c.05.006.082-.044.12-.075.463-.47.947-.942 1.41-1.418.51.49.998.997 1.5 1.487.697-.006 1.4 0 2.097-.006v2.057c-.013.05.043.082.069.12l1.21 1.21c.07.07.138.138.201.214-.483.501-.966 1.003-1.462 1.486zm-10.998 9.92c.257-.257.602-.426.96-.464.514-.075 1.085.038 1.468.414.27.251.452.59.496.954-.245-.006-.496.006-.74-.006a.941.941 0 0 0-.496-.596c-.301-.15-.671-.12-.966.043a1.303 1.303 0 0 0-.559.86c-.063.352-.05.734.12 1.06a.991.991 0 0 0 .608.503c.301.087.665.087.916-.126.232-.182.333-.464.37-.746.251-.006.502 0 .753 0-.056.401-.176.81-.433 1.136-.257.313-.665.47-1.06.496H11.6a1.586 1.586 0 0 1-1.149-.553c-.282-.326-.413-.759-.445-1.186v-.395c.025-.521.207-1.042.584-1.394zm3.727-.407c.238 0 .483-.006.721.006.508.79 1.035 1.582 1.556 2.366v-2.366c.245 0 .484-.006.728.007a377.462 377.462 0 0 0 0 3.777c-.239 0-.483.006-.721-.006-.54-.804-1.048-1.625-1.594-2.429-.013.81-.006 1.619-.006 2.429-.226.006-.458 0-.684.006v-3.79zm7.881 3.777c.006-1.261-.007-2.522.006-3.783.395.006.797 0 1.192.006.251.891.502 1.782.747 2.673.213-.885.414-1.782.608-2.673.414-.006.829-.006 1.236 0 .02 1.18.007 2.359.013 3.539 0 .081-.006.163-.012.245h-.647v-3.082c-.15.47-.263.948-.395 1.418l-.452 1.657h-.683c-.252-.816-.503-1.638-.76-2.454-.068-.207-.118-.42-.2-.62.006 1.028 0 2.05 0 3.074a7.405 7.405 0 0 1-.653 0zm-.879-1.481c-.075-.195-.245-.326-.401-.452.087-.087.194-.17.263-.282.144-.232.17-.521.125-.79-.05-.333-.313-.61-.633-.71-.27-.087-.552-.062-.835-.062h-1.694v3.784h1.933c.295-.013.602-.02.866-.176.427-.264.564-.86.376-1.312zm-1.135-1.594a.341.341 0 0 1 .3.157c.17.25.007.659-.3.69-.44.012-.885-.006-1.33.006-.013-.289 0-.571-.007-.86.445 0 .89.007 1.337.007zm.338 2.278a.31.31 0 0 1-.232.106h-1.443c0-.282.006-.57-.007-.853.446-.007.892 0 1.343-.007a.45.45 0 0 1 .364.15c.113.183.126.44-.025.604z" fill="#CF020F"/></svg>