<svg width="36" height="36" fill="none" xmlns="http://www.w3.org/2000/svg"><path d="M18 0c2.837 0 5.52.656 7.907 1.825C31.884 4.753 36 10.895 36 18c0 9.942-8.058 18-18 18-9.94 0-18-8.057-18-18C0 8.06 8.06 0 18 0z" fill="#F2F4F7"/><path d="M7.182 21.347 4 19.51v-3.67L7.18 14l3.18 1.836.002 3.672-3.18 1.839zm7.738-3.957v.818h1.017v1.43c-.329.177-.813.278-1.335.278-1.222 0-2.143-.943-2.143-2.197 0-1.14.825-2.205 2.018-2.205.444 0 1.08.102 1.586.59l.612-.651c-.392-.406-1.159-.84-2.14-.84-1.97 0-2.988 1.61-2.988 3.106 0 1.31.839 3.014 3.07 3.014 1.356 0 2.185-.54 2.185-.54V17.39l-1.881.001zm3.839 0-.001-1.78h1.091c.546 0 1.166.154 1.166.889 0 .597-.36.889-1.165.89h-1.091zm3.17-.891c-.01-.511-.181-1.662-1.864-1.662l-2.173.001v5.76h.868l-.001-2.39.953.001 1.731 2.387h1.084s-1.86-2.42-1.95-2.541c.788-.126 1.37-.817 1.352-1.556zm5.101-1.664-3.877.002v5.76l3.878-.003v-.819h-3.012l-.001-1.705h2.283v-.82h-2.283v-1.594h3.013v-.821zm4.97 0-3.879.002v5.76l3.88-.003v-.819H28.99l-.002-1.705h2.283v-.82h-2.283v-1.594H32v-.821z" fill="#00A0DC"/></svg>