<svg width="36" height="36" fill="none" xmlns="http://www.w3.org/2000/svg"><path d="M18 0c2.837 0 5.52.656 7.907 1.825C31.884 4.753 36 10.895 36 18c0 9.942-8.058 18-18 18-9.94 0-18-8.057-18-18C0 8.06 8.06 0 18 0z" fill="#F2F4F7"/><path d="M7.657 14 4 15.797v3.217h3.657V14z" fill="#0B2A4A"/><path d="m8.698 22.078 3.783-1.987-4.824-1.077-3.646-.002L4 20.972l4.698 1.106z" fill="#C3D600"/><path d="M4 18.228v2.743l3.657-1.957L4 18.228z" fill="#00A1E1"/><path d="M17.686 15.596v-.725h-3.437v3.405h3.437v-.788h-2.522v-.599h2.522v-.694h-2.522v-.599h2.522zm9.584 2.68v-3.405h-3.783v3.405h3.784zm-.914-2.585v1.797H24.37v-1.797h1.986zm-5.139.883 1.545-1.703h-1.167l-1.008 1.167-1.01-1.167h-1.166l1.576 1.703-1.576 1.702h1.166l1.01-1.166 1.008 1.166h1.167l-1.545-1.702zm-7.977-1.703h-.914v1.86L9.52 14.776v3.5h.883v-1.86l2.837 1.955v-3.5zm15.04 3.405h.882v-1.892L32 18.371v-3.5h-.883v1.86l-2.838-1.955v3.5z" fill="#000"/></svg>