<svg width="36" height="36" fill="none" xmlns="http://www.w3.org/2000/svg"><path d="M18 0c2.837 0 5.52.656 7.907 1.825C31.884 4.753 36 10.895 36 18c0 9.942-8.058 18-18 18-9.94 0-18-8.057-18-18C0 8.06 8.06 0 18 0z" fill="#F2F4F7"/><path fill-rule="evenodd" clip-rule="evenodd" d="M13.769 8h8.462c2.006 0 2.733.209 3.467.601a4.089 4.089 0 0 1 1.7 1.701c.393.733.602 1.46.602 3.467v8.462c0 2.006-.209 2.733-.601 3.467a4.088 4.088 0 0 1-1.701 1.7c-.733.393-1.46.602-3.467.602H13.77c-2.006 0-2.734-.209-3.467-.601a4.09 4.09 0 0 1-1.7-1.701C8.208 24.965 8 24.238 8 22.23v-8.46c0-2.006.209-2.734.601-3.467a4.09 4.09 0 0 1 1.701-1.7c.733-.393 1.46-.602 3.467-.602z" fill="#FFD100"/><path d="M14.567 19.555c.646.78 1.848 1.277 3.15 1.376l-.448.78c-1.202-.141-2.586-.705-3.357-1.7-.713.995-2.072 1.6-3.771 1.724l.265-.837c1.152-.016 2.346-.613 2.86-1.343h-3.018v-.72h3.216v-.68h-3.033v-.713h3.034v-.556H10.43v-.712h3.034v-.58h-3.217v-.722h1.302l-.075-.613h.904c.033.199.058.406.09.613h2.894a5.62 5.62 0 0 0 .083-.613h.92c-.017.205-.042.41-.075.613h1.302v.721H14.35v.58h3.034v.713H14.35v.556h3.034v.713H14.35v.68h3.241v.72h-3.025zm11.198-4.69v6.79h-6.657c-.298 0-.464-.166-.464-.457V14.41h6.648c.299 0 .473.166.473.456zm-.87 6.052v-5.77h-5.38v5.77h5.38zm-4.94-4.047v-.697h2.892v-.63h.854v.63h.812v.697h-.812v1.964c0 .672-.083 1.169-.265 1.683h-.929c.282-.597.34-1.02.34-1.658v-1.99h-.78c-.115 1.286-.613 2.877-1.135 3.648h-.945c.506-.713 1.086-2.105 1.227-3.647h-1.26z" fill="#000"/></svg>