<svg width="36" height="36" fill="none" xmlns="http://www.w3.org/2000/svg"><path d="M18 0c2.837 0 5.52.656 7.907 1.825C31.884 4.753 36 10.895 36 18c0 9.942-8.058 18-18 18-9.94 0-18-8.057-18-18C0 8.06 8.06 0 18 0z" fill="#F2F4F7"/><path fill-rule="evenodd" clip-rule="evenodd" d="M14.845 8.02c-.023.023-.02 12.566.003 12.58.024.015 12.553-12.51 12.564-12.56.008-.037-12.529-.058-12.567-.02zm6.82 6.783c-4.29 4.29-6.274 6.289-6.257 6.305.016.017 2.038.022 6.304.018l6.28-.006.006-6.299c.005-5.032 0-6.299-.023-6.299-.016 0-2.856 2.826-6.31 6.281z" fill="#CD291F"/><path fill-rule="evenodd" clip-rule="evenodd" d="M13.83 8.3c-.31.323-1.556 1.608-2.188 2.256-.414.424-1.374 1.417-1.434 1.483-.036.04-.443.457-.904.93-1.11 1.135-1.213 1.243-1.222 1.283-.01.046 5.944.052 5.99.006.052-.053.04-6.16-.013-6.157-.023.001-.126.09-.23.199zm-5.807 6.708c-.01.008-.016 1.4-.016 3.093v3.079l3.04-.006 3.041-.006.006-3.056c.005-2.24 0-3.065-.02-3.088-.028-.034-6.017-.05-6.051-.016zm.766 6.873c-.015.039-.297-.248 3.276 3.336l2.988 2.998h2.494l2.676-.001c.13 0 .182-.009.182-.03 0-.034-6.282-6.322-6.317-6.323-1.129-.02-5.29-.005-5.3.02zm6.088.033c0 .031 6.171 6.216 6.241 6.255.036.02.087-.017.315-.23.38-.355.438-.409.676-.627.22-.2.27-.248.544-.506.09-.086.291-.273.445-.416l.364-.34c.047-.046.144-.135.214-.2.115-.103.534-.495 1-.932.09-.085.205-.191.255-.235.05-.044.147-.134.214-.198a73.706 73.706 0 0 0 .71-.664c.182-.172.362-.34.4-.375.183-.165.56-.513.76-.703a63.546 63.546 0 0 1 .774-.72c.053-.047.098-.097.098-.112 0-.019-1.74-.026-6.506-.026-5.122 0-6.505.006-6.505.029zm-6.859.087c-.015.015-.02 1.099-.017 3.106l.006 3.083h3.104c1.718 0 3.11-.009 3.117-.02.007-.011-1.339-1.364-2.99-3.006-1.65-1.642-3.045-3.03-3.099-3.086-.064-.066-.105-.093-.12-.077z" fill="#272966"/></svg>