<svg width="36" height="36" fill="none" xmlns="http://www.w3.org/2000/svg"><path d="M18 0c2.837 0 5.52.656 7.907 1.825C31.884 4.753 36 10.895 36 18c0 9.942-8.058 18-18 18-9.94 0-18-8.057-18-18C0 8.06 8.06 0 18 0z" fill="#F2F4F7"/><path d="M24.03 16.363v-1.36h-4.84v6.85h4.84v-1.36h-3.48v-1.395h3.308v-1.36h-3.309v-1.375h3.481zM8.678 15.004v2.745H5.36v-2.745H4v6.85h1.36v-2.745h3.318v2.745h1.36v-6.85h-1.36zm9.311 6.849-2.537-3.808c.113-.097.27-.235.362-.317 1.199-1.077 1.318-2.332 1.325-2.722h-1.313c-.004.185-.048 1.018-.875 1.76-.39.35-1.026.884-1.538 1.308V15.03h-1.355v6.825h1.355V19.73l.008.01c.036-.028.502-.408 1.043-.859l1.953 2.972h1.572z" fill="#003465"/><path d="M25.92 15v1.359a2.065 2.065 0 0 1 0 4.13v1.357a3.423 3.423 0 1 0 0-6.846z" fill="#E72742"/><path d="M32 15v1.359a2.065 2.065 0 0 0 0 4.13v1.357A3.423 3.423 0 1 1 32 15z" fill="#003465"/></svg>