<svg width="36" height="36" fill="none" xmlns="http://www.w3.org/2000/svg"><path d="M18 0c2.837 0 5.52.656 7.907 1.825C31.884 4.753 36 10.895 36 18c0 9.942-8.058 18-18 18-9.94 0-18-8.057-18-18C0 8.06 8.06 0 18 0z" fill="#F2F4F7"/><path d="M4.75 13.04h8.876c.415 0 .75.345.75.75v8.795c0 .416-.335.75-.75.75H4.75a.748.748 0 0 1-.75-.75V13.79c0-.405.334-.75.75-.75z" fill="#E14146"/><path d="M8.033 19.627v.952a32.62 32.62 0 0 0-1.996.152c-.497.061-.81-.243-.051-.537.679-.172 1.357-.375 2.047-.567zm0-4.996c-.74.112-1.601.76-2.655 2.047-.496.446-.943.953-1.378 1.439v1.794c1.682-1.652 2.948-2.696 4.033-3.374V14.63zm0 4.52c-.264.02-.548-.011-.872-.061-.942-.092-.689-.648.092-1.429.263-.173.516-.324.78-.466v1.955zm0-2.614a8.32 8.32 0 0 1 1.003-.558c.506-.355.69-.71.121-1.063a1.507 1.507 0 0 0-1.124-.285v1.906zm2.431 2.512c-.79.132-1.61.345-2.431.578v.952c.81-.04 1.62-.04 2.431-.01v-1.52zm0-1.216c-.374.223-.75.466-1.135.75-.465.385-.85.538-1.296.567v-1.955a9.843 9.843 0 0 1 2.431-.851v1.49zm0 2.736v-1.52c1.45-.243 2.797-.203 3.911.517v1.449a24.251 24.251 0 0 0-3.911-.446zm3.911-4.742v.436c-1.276.345-2.573.79-3.911 1.57v-1.49c1.328-.283 2.615-.313 3.911-.516z" fill="#fff"/><path d="M17.416 21.167v.233l-.649.628.649.882v.395h-.092l-.76-1.084-.344.334v.75h-.284v-2.138h.284v1.053l1.053-1.053h.143zm0-1.732v1.033h-1.49v-1.033h1.49zm0-1.743v1.337h-.112c-.425 0-.689-.172-.78-.527l-.254-.81h1.146zm0-1.328v.952H16.2v-.952h1.216zm0-3.212v2.625H16.2v-.609h-.305v-1.033h.375c.122 0 .203-.051.233-.162l.385-.821h.527zm.567 10.153v-2.138h.284v2.138h-.284zm-.567-4.276h1.134v-.84h-.507c-.162 0-.252-.062-.293-.163l-.142-.334h-.192v1.337zm0 2.37v-.232h.243l-.243.233zm0 1.906v-.395l.283.395h-.284zm2.229-1.267v.487l-.609-.902v1.682h-.273v-2.138h.294l.588.871zm0-8.886v1.034H17.77l-.162.435a.645.645 0 0 1-.061.122h2.098v5.725h-2.23v-1.033h1.571v-2.119h-1.57v-.952h1.57v-.587h-1.57v-2.625h2.229zm0 9.373v-.487l.537.8v-1.671h.263v2.138h-.283l-.517-.78zm2.168-1.398v.242a.65.65 0 0 0-.223.061.667.667 0 0 0-.233.152.58.58 0 0 0-.132.213c-.05.132-.081.274-.081.425 0 .193.03.355.101.487a.592.592 0 0 0 .284.283.9.9 0 0 0 .284.082v.253a1.113 1.113 0 0 1-.446-.122.903.903 0 0 1-.385-.395 1.137 1.137 0 0 1-.131-.567c0-.203.04-.406.131-.578a.913.913 0 0 1 .375-.405c.132-.071.284-.111.456-.131zm0-7.975v2.625h-1.55v.587h1.55v.952h-1.55v2.119h1.55v1.033h-2.168v-5.725h2.086a.224.224 0 0 1-.04-.101l-.223-.457h-1.823v-1.033h2.168zm-.233 4.54-.142.243c-.061.162-.213.253-.425.253h-.375l.182.84h.993v-1.336h-.233zm1.57 4.924.264-.03c.01.11.04.202.091.263a.46.46 0 0 0 .213.172c.101.04.202.06.325.06a.66.66 0 0 0 .293-.05c.08-.03.142-.07.182-.131a.281.281 0 0 0 .06-.183.273.273 0 0 0-.06-.172.394.394 0 0 0-.192-.122c-.061-.03-.183-.06-.375-.111a1.645 1.645 0 0 1-.416-.132.575.575 0 0 1-.233-.202.446.446 0 0 1-.071-.264c0-.101.03-.203.092-.304a.62.62 0 0 1 .263-.213c.121-.05.253-.07.395-.07.162 0 .304.03.426.08a.6.6 0 0 1 .274.223c.06.102.1.213.1.335l-.263.02a.478.478 0 0 0-.152-.303c-.08-.072-.202-.102-.375-.102-.172 0-.293.03-.375.091a.296.296 0 0 0-.11.223c0 .081.03.141.08.192.05.051.192.101.426.152.232.051.384.102.476.132a.685.685 0 0 1 .273.223.556.556 0 0 1-.01.628.655.655 0 0 1-.283.233 1.032 1.032 0 0 1-.406.081c-.192 0-.355-.03-.486-.08a.776.776 0 0 1-.314-.254.71.71 0 0 1-.111-.385zm-1.337-6.84v-2.624h.486l.517.892c.03.06.101.09.193.09h.334v1.034h-.334v.609h-1.196zm0 1.54v-.952h1.196v.952h-1.196zm0 3.152v-1.033h1.47v1.033h-1.47zm0 .901v-.242h.111c.152 0 .294.03.416.07a.73.73 0 0 1 .294.213c.07.091.121.203.162.355l-.254.07a.697.697 0 0 0-.121-.263.53.53 0 0 0-.203-.151.936.936 0 0 0-.294-.052h-.111zm0 1.956v-.253c.03.01.07.01.111.01.122 0 .244-.02.365-.071.111-.05.203-.101.263-.152v-.395h-.628v-.253h.902V23a1.878 1.878 0 0 1-.425.253 1.44 1.44 0 0 1-.457.081c-.05 0-.09 0-.131-.01zm4.357-2.198v.242a.729.729 0 0 0-.507.203c-.151.142-.223.375-.223.69 0 .263.072.465.213.607a.647.647 0 0 0 .517.223v.243c-.203 0-.375-.05-.537-.142a1.007 1.007 0 0 1-.365-.405 1.185 1.185 0 0 1-.122-.527c0-.354.101-.638.294-.83a.949.949 0 0 1 .73-.304zm0-1.692v1.033h-2.24v-7.073h1.277v6.04h.963zm-4.357-.406c.314-.01.557-.193.71-.568l.455-.77h-1.165v1.338zm8.116 4.276v-1.884h-.71v-.254h1.693v.253h-.699v1.885h-.284zm-2.351 0v-2.138h1.44v.253h-1.166v.659h1.003v.253h-1.003v.973h-.274zm-1.408-2.837v-1.033h.638V13h1.267v6.435h1.135c.293 0 .435-.152.435-.426v-5.644h1.267v6.353c0 .496-.254.75-.74.75H26.17zm0 2.867v-.243a.683.683 0 0 0 .527-.223c.142-.152.202-.365.202-.638 0-.172-.03-.324-.08-.456a.766.766 0 0 0-.264-.304.693.693 0 0 0-.375-.102h-.01v-.242c.203 0 .374.05.537.142a.85.85 0 0 1 .364.394c.082.163.122.355.122.568 0 .223-.04.415-.132.587a.856.856 0 0 1-.374.385.98.98 0 0 1-.517.132zm5.524-10.005h-.067v.104h.067c.035 0 .058-.016.058-.053 0-.035-.026-.052-.058-.052zm.057.284-.056-.125h-.067v.125h-.06v-.34h.126c.064 0 .12.038.12.107 0 .044-.02.08-.06.098l.062.135h-.065zm-.072-.434c-.157 0-.26.114-.26.27 0 .155.103.269.26.269.158 0 .262-.115.262-.27 0-.155-.104-.269-.262-.269zm0 .596a.318.318 0 0 1-.32-.326c0-.182.136-.326.32-.326s.321.143.321.325a.319.319 0 0 1-.32.327z" fill="#343537"/></svg>