<svg width="36" height="36" fill="none" xmlns="http://www.w3.org/2000/svg"><path d="M18 0c2.837 0 5.52.656 7.907 1.825C31.884 4.753 36 10.895 36 18c0 9.942-8.058 18-18 18-9.94 0-18-8.057-18-18C0 8.06 8.06 0 18 0z" fill="#F2F4F7"/><g fill="#BB1B21"><path d="M13.404 16.8a.402.402 0 0 0-.404.405v1.603a.4.4 0 0 0 .404.404h3.195V16.8h-3.195zm9.192 0a.4.4 0 0 1 .404.405v1.603a.4.4 0 0 1-.404.404h-3.195V16.8h3.195z"/><path d="M10.803 15.993c0-.546.451-.986.997-.986h4.8v-2.209h-5.594a2.8 2.8 0 0 0-2.803 2.803v4.798a2.8 2.8 0 0 0 2.803 2.803H16.6v-2.197h-4.8c-.546 0-.997-.451-.997-.998v-4.014zm14.394 0a.993.993 0 0 0-.997-.986h-4.8v-2.209h5.594a2.79 2.79 0 0 1 2.791 2.803v4.798a2.8 2.8 0 0 1-2.803 2.803H19.4v-2.197h4.8c.546 0 .997-.451.997-.998v-4.014zM19.401 9.4V8H16.6v1.401H8v2.197h20V9.401h-8.599zm0 17.186V28H16.6v-1.413H8V24.4h20v2.186h-8.599z"/></g></svg>