<svg width="36" height="36" fill="none" xmlns="http://www.w3.org/2000/svg"><path d="M18 0c2.837 0 5.52.656 7.907 1.825C31.884 4.753 36 10.895 36 18c0 9.942-8.058 18-18 18-9.94 0-18-8.057-18-18C0 8.06 8.06 0 18 0z" fill="#F2F4F7"/><g fill-rule="evenodd" clip-rule="evenodd" fill="red"><path d="m31.416 22.123.16-.701h-3.14l.277.7h2.703zm.292-1.256.146-.7h-3.927l.277.7h3.504zM17.663 4.005c-4.266.108-8.423 2.149-11.08 5.898-4.477 6.314-2.987 15.073 3.328 19.549h.015c6.314 4.46 15.048 2.964 19.52-3.344a13.983 13.983 0 0 0 1.722-3.285H28.98l.348.847-2.803 4.336H9.853l-2.95-4.204 7.286-18.22 4.073 9.679 3.781-9.811 3.474 8.687h5.957a13.948 13.948 0 0 0-5.358-7.563 13.95 13.95 0 0 0-8.453-2.57zm8.141 10.832.277.701h5.715a14.097 14.097 0 0 0-.146-.7h-5.846zm.499 1.256.277.7h5.39c-.02-.232-.04-.468-.072-.7h-5.595zm.55 1.402.292.7H32v-.7h-5.147zm.519 1.27.277.7h4.293c.024-.234.046-.465.058-.7h-4.628z"/><path d="m12.933 13.99 3.927 9.68 3.928-9.68 4.058 9.812H9.006l3.927-9.811z"/></g></svg>