<svg width="36" height="36" fill="none" xmlns="http://www.w3.org/2000/svg"><path d="M18 0c2.837 0 5.52.656 7.907 1.825C31.884 4.753 36 10.895 36 18c0 9.942-8.058 18-18 18-9.94 0-18-8.057-18-18C0 8.06 8.06 0 18 0z" fill="#F2F4F7"/><path fill-rule="evenodd" clip-rule="evenodd" d="M5 19.39s.575.022.887.022c.311 0 .902-.023.902-.023v.178s-.163.017-.269.05c-.106.033-.171.069-.165.145.008.089.02.122.112.36a957.3 957.3 0 0 0 1.337 3.323l.697-1.52-.494-1.128s-.33-.776-.395-.895c-.066-.12-.119-.207-.218-.257-.122-.06-.41-.078-.41-.078v-.178l.81.01c.406.005.902-.01.902-.01v.178s-.175.02-.258.06c-.084.041-.127.084-.112.158.015.073.026.101.066.208.04.107.471 1.1.471 1.1l.464-.988s.038-.077.066-.193c.028-.117.023-.218-.086-.274-.11-.056-.368-.071-.368-.071v-.178s.332.008.67.01c.336.003.726-.01.726-.01v.178s-.218.025-.332.116c-.114.092-.205.193-.329.45a247.66 247.66 0 0 0-.507 1.062l-.139.317s.307.688.352.807c.046.12.454 1.025.459 1.03.005.005.471-1.208.496-1.284.026-.076.474-1.28.492-1.326.018-.046.254-.653.281-.87.023-.183-.042-.224-.14-.246-.177-.041-.374-.056-.374-.056l-.003-.178s.613.005.77.013c.157.008.57-.013.57-.013v.178s-.183.044-.278.14a.987.987 0 0 0-.218.347c-.074.188-.403 1.05-.436 1.139-.033.089-1.026 2.709-1.082 2.864a4.956 4.956 0 0 1-.126.314h-.213s-.35-.781-.393-.885c-.043-.104-.36-.845-.38-.893-.02-.048-.134-.287-.134-.287s-.54 1.096-.575 1.183c-.036.086-.413.882-.413.882h-.22l-.626-1.534a1473.12 1473.12 0 0 1-1.031-2.524c-.023-.059-.171-.4-.216-.457-.047-.06-.09-.129-.177-.173a.945.945 0 0 0-.25-.088L5 19.567v-.178zm7.076 0s.59.017.967.017c.378 0 .98-.018.98-.018v.178s-.412-.005-.516.137a.65.65 0 0 0-.134.439v1.448h2.868v-1.583c0-.033.025-.284-.125-.36-.149-.076-.511-.081-.511-.081v-.178s.679.02.993.02c.314 0 .955-.02.955-.02v.178s-.385.005-.514.122c-.13.116-.137.345-.137.378v3.556s.005.21.076.294c.07.084.17.142.365.165.195.023.21.02.21.02v.168s-.674-.02-.958-.018c-.284.003-.99.018-.99.018v-.175s.256 0 .402-.048c.147-.049.198-.173.216-.267.018-.094.018-.24.018-.271V21.88h-2.868v1.573s.005.29.083.429c.079.14.19.175.292.19.101.015.276.013.276.013v.185s-.684-.013-.97-.013c-.287 0-.978.013-.978.013v-.17s.266-.005.38-.046c.114-.04.218-.087.245-.253.023-.14.023-.186.023-.186v-3.602s-.002-.19-.058-.274c-.056-.084-.172-.13-.296-.142l-.294-.03v-.178zm15.489 0s.813.014.97.01c.157-.006 2.462-.01 2.462-.01L31 20.5h-.134s.002-.246-.074-.41c-.076-.166-.15-.303-.435-.404-.287-.102-.537-.096-.662-.102-.124-.005-.818 0-.818 0v2.007h1.08s.298-.02.392-.195c.094-.175.096-.345.096-.345h.172s-.032.398-.03.69c.003.291.03.776.03.776l-.172.003s.007-.31-.093-.457c-.125-.183-.396-.183-.396-.183h-1.079v1.791s.02.213.109.3c.089.086.31.134.37.131.06-.002.154-.002.154-.002v.17l-.932-.013c-.248-.002-1.013.013-1.013.013v-.173s.197-.007.284-.015a.57.57 0 0 0 .253-.104.527.527 0 0 0 .101-.279c.008-.114.008-3.51.01-3.592.003-.081-.002-.281-.066-.373-.063-.091-.2-.12-.309-.132a4.116 4.116 0 0 0-.273-.018v-.195zm-7.788.202s.203-.127.284-.203c.081-.076.106-.096.106-.096l.132.005s.573 1.537.68 1.81c.105.275.784 2.091.835 2.248.05.158.156.49.284.589.086.066.22.124.344.142.081.012.122.01.122.01v.173s-.613-.018-.866-.02c-.254-.003-.966.02-.966.02v-.178s.208-.008.322-.035c.114-.028.175-.112.175-.203a.748.748 0 0 0-.038-.216l-.395-1.205h-1.62l-.346 1.035s-.048.122-.046.226c.003.104.003.226.11.297.106.07.23.083.326.096.096.013.198.008.198.008v.175s-.586-.013-.913-.016c-.326-.002-.757.016-.757.016v-.17s.142-.005.22-.026c.079-.02.233-.094.292-.182.058-.09.162-.272.223-.437l.324-.88.345-.92s.534-1.338.582-1.64c.048-.301.043-.423.043-.423zm.157.593.732 1.946h-1.383l.42-1.28.231-.666zm2.792-.795s.707.017.94.012c.233-.005 1.082-.01 1.317.028.236.038.978.134 1.27.713.255.507-.01 1.068-.178 1.235-.19.19-.32.294-.575.419l-.157.073s.719 1.138 1.049 1.525c.311.365.41.469.593.578.182.11.28.12.309.122.028.002.074.001.074.001v.174l-.66-.01a2.233 2.233 0 0 0-.292.011l-.127.013s-.176-.19-.289-.325a14.824 14.824 0 0 1-.435-.59s-.483-.735-.597-.918c-.114-.183-.294-.487-.294-.487s-.233.01-.34.005c-.133-.006-.3-.008-.3-.008s-.003 1.41 0 1.472c.002.06.002.41.113.535.112.124.269.114.337.124.069.01.193.005.193.005v.173s-.816-.018-1.039-.018c-.223 0-.912.018-.912.018v-.168s.15-.007.256-.022c.106-.016.22-.036.279-.097a.474.474 0 0 0 .106-.266c.015-.112.013-.294.013-.294v-3.258c0-.055.005-.281-.02-.347-.026-.066-.051-.15-.208-.185a4.952 4.952 0 0 0-.426-.066v-.178zm1.307.233c.013 0 .015-.054.393-.039.377.016.659.066.892.305.233.238.268.457.283.733.016.277-.024.512-.233.769-.235.289-.542.345-.84.383-.3.038-.495-.043-.495-.043v-2.108zm-9.727-2.106h8.025V12h-8.025v5.517z" fill="#004B88"/><path fill-rule="evenodd" clip-rule="evenodd" d="M18.319 14.758 22.33 12v5.517l-4.012-2.759zm0-.001-4.013 2.76V12l4.013 2.757z" fill="#EC1B2E"/></svg>