<svg width="36" height="36" fill="none" xmlns="http://www.w3.org/2000/svg"><path d="M18 0c2.837 0 5.52.656 7.907 1.825C31.884 4.753 36 10.895 36 18c0 9.942-8.058 18-18 18-9.94 0-18-8.057-18-18C0 8.06 8.06 0 18 0z" fill="#F2F4F7"/><path d="M11.726 23.286h-.003c-.064-.017-.172-.027-.174-.108-.002-.07.11-.132.23-.132.21 0 .294.053.388.152.01.011.024.035.057.036h.33c.018 0 .029-.014.04-.033.005-.01.004-.038-.009-.055-.186-.26-.501-.345-.8-.345-.353 0-.732.155-.734.475-.002.314.318.424.7.49.217.039.34.082.34.158-.003.052-.078.142-.306.142a.486.486 0 0 1-.397-.206c-.01-.015-.03-.035-.058-.035h-.291c-.018 0-.035 0-.044.018-.01.017.004.042.013.059.122.23.397.423.792.423.428 0 .806-.158.808-.492.002-.334-.28-.44-.883-.547m-1.72 0h-.003c-.063-.017-.171-.027-.174-.108-.001-.07.11-.132.23-.132.21 0 .294.053.389.152.01.011.022.035.057.036h.329c.019 0 .03-.014.04-.033.006-.01.004-.038-.008-.055-.185-.26-.5-.345-.8-.345-.354 0-.733.155-.735.475-.001.314.319.424.7.49.217.039.34.082.34.158-.002.052-.078.142-.306.142a.482.482 0 0 1-.395-.206c-.01-.015-.032-.035-.06-.035h-.29c-.019 0-.037 0-.045.018-.009.017.005.042.014.059.12.23.396.423.79.423.43 0 .807-.158.81-.492.002-.334-.281-.44-.883-.547m-.888-.402c0-.049-.022-.074-.064-.074h-.38c-.042 0-.063.026-.063.074v1.346c0 .05.021.074.063.074h.38c.042 0 .064-.025.064-.074v-1.346zm0-.394c0 .048-.022.073-.064.073h-.38c-.042 0-.063-.025-.063-.073v-.31c0-.048.021-.072.063-.072h.38c.042 0 .064.024.064.073v.309zm4.732.92.008.007c.042 0 .063.07.017.079-.348.06-.633.18-.634.365 0 .098.043.147.083.147h.426c.043 0 .065-.024.065-.073v-.516c-.01-.197-.073-.295-.192-.295h-.7c-.043 0-.063-.024-.063-.073v-.148c0-.048.02-.073.063-.073h.762c.123.008.23.03.318.065.211.086.318.237.318.45v.884c0 .05-.021.074-.064.074H13.05c-.197 0-.32-.173-.318-.404.014-.27.267-.562 1.118-.49m14.923.001.008.007c.042 0 .063.07.017.079-.349.06-.632.18-.634.365 0 .098.043.147.082.147h.427c.043 0 .064-.024.064-.073v-.516c-.009-.197-.072-.295-.191-.295h-.7c-.043 0-.064-.024-.064-.073v-.148c0-.048.021-.073.064-.073h.761c.125.008.23.03.319.065.212.086.318.237.318.45v.884c0 .05-.021.074-.064.074h-1.207c-.197 0-.319-.173-.318-.404.014-.27.267-.562 1.118-.49m-14.129.894c-.042 0-.063-.024-.063-.074v-1.052l-.181-.28c-.036-.037-.013-.075.031-.073l.627.006h.54c.125.008.23.03.32.065.211.087.317.237.317.45v.884c0 .05-.021.074-.064.074h-.378c-.044 0-.064-.024-.064-.074v-.81c-.01-.196-.074-.294-.193-.294h-.384c-.043 0-.065.024-.065.073v1.031c0 .05-.02.074-.063.074h-.38zm11.16-1.419c0-.049-.022-.074-.064-.074h-.38c-.042 0-.063.026-.063.074v1.346c0 .05.021.074.064.074h.38c.041 0 .063-.025.063-.074v-1.346zm0-.394c0 .048-.022.073-.064.073h-.38c-.042 0-.063-.025-.063-.073v-.31c0-.048.021-.072.064-.072h.38c.041 0 .063.024.063.073v.309zm-7.86-.382h.954c.043 0 .064.024.064.073v.211c0 .05-.021.074-.064.074h-.688c-.382.015-.449.3-.446.538v.423c0 .192.038.503.51.5h.624c.043 0 .064.024.064.074v.229c0 .05-.021.074-.064.074h-.985c-.612-.013-.733-.482-.733-.884v-.466c.004-.333.23-.846.764-.846zm1.299 2.196c-.042 0-.064-.025-.064-.075v-2.063c-.002-.062.013-.09.065-.067l.393.173c.045.028.05.06.05.108v.377c0 .05.02.074.063.074h.319c.124.007.231.029.32.064.211.087.318.237.318.451v.883c0 .05-.021.075-.064.075h-.38c-.042 0-.063-.025-.063-.075v-.81c-.009-.196-.073-.294-.193-.294h-.257c-.042 0-.064.025-.064.073v1.031c0 .05-.021.075-.063.075h-.38zm2.153-.581-.01-.003c-.017 0-.027-.017-.03-.036-.003-.02.002-.054.02-.059.277-.063.595-.143.603-.353.003-.099-.05-.148-.128-.148h-.127c-.171.01-.305.084-.305.221v.369c.008.196.072.294.19.294h.815c.043 0 .064.025.064.073v.147c0 .05-.021.075-.064.075h-.875c-.124-.008-.225-.012-.313-.048a.484.484 0 0 1-.324-.468v-.368a1.06 1.06 0 0 1 .056-.295c.075-.197.204-.294.39-.294h.813c.196 0 .302.122.317.367.017.26-.16.552-1.092.526m3.591-.598a.84.84 0 0 1 .072.295v.81c0 .05-.021.074-.064.074h-.381c-.043 0-.064-.025-.064-.075v-.883c0-.137-.064-.211-.19-.221h-.129c-.042 0-.063.025-.063.073v1.031c0 .05-.02.075-.064.075h-.382c-.042 0-.063-.025-.063-.075v-.883c0-.137-.063-.211-.19-.221h-.129c-.042 0-.063.025-.063.073v1.031c0 .05-.021.075-.064.075h-.38c-.044 0-.065-.025-.065-.075v-1.052l-.183-.281c-.032-.029-.016-.078.035-.07l.661.005h1.205c.24 0 .407.097.501.294M8.251 22.096h-.28c-.039 0-.058.025-.058.074v1.266c0 .046-.012.05-.033.011l-1.001-1.289c-.025-.041-.054-.062-.091-.062h-.741c-.04 0-.062.031-.034.07l.223.26v1.835c0 .049.02.073.058.073h.27c.04 0 .059-.024.059-.073v-1.245c0-.047.01-.05.033-.012l1.012 1.238c.024.041.053.062.091.062l.492-.006c.04-.001.06-.027.06-.077v-2.05c0-.05-.02-.075-.06-.075m19.296 2.133c0 .05-.022.074-.064.074h-.828a1.004 1.004 0 0 1-.318-.065c-.212-.087-.317-.236-.317-.45v-.369a.81.81 0 0 1 .07-.295c.095-.196.263-.294.502-.294h.89c.043 0 .065.025.065.073v.148c0 .049-.022.073-.064.073h-.701c-.17.01-.256.084-.256.222v.368c.008.197.072.294.191.294h.766c.042 0 .064.025.064.073v.148zM30 24.23c0 .05-.02.074-.063.074h-.383c-.041 0-.063-.024-.063-.074v-2.062c0-.049.021-.073.064-.073h.382c.042 0 .063.024.063.073v2.062zm-17.873 1.897.248.071a.507.507 0 0 1-.19.281.58.58 0 0 1-.337.092.573.573 0 0 1-.416-.157.567.567 0 0 1-.162-.43c0-.192.054-.34.164-.448a.59.59 0 0 1 .43-.159c.155 0 .28.041.378.125.058.05.101.12.13.213l-.253.055a.245.245 0 0 0-.094-.142.285.285 0 0 0-.174-.052.303.303 0 0 0-.23.092c-.059.062-.088.162-.088.299 0 .146.03.25.087.311a.294.294 0 0 0 .225.094c.069 0 .127-.02.176-.06a.336.336 0 0 0 .106-.185m.716-.154c0 .13.034.23.1.298a.342.342 0 0 0 .253.1.335.335 0 0 0 .252-.1c.065-.067.098-.167.098-.302 0-.131-.032-.23-.095-.295a.343.343 0 0 0-.255-.098.346.346 0 0 0-.256.099c-.064.066-.097.165-.097.298zm-.264.008c0-.118.02-.216.058-.296a.522.522 0 0 1 .119-.158.48.48 0 0 1 .164-.104.744.744 0 0 1 .273-.046.63.63 0 0 1 .45.158.577.577 0 0 1 .168.44c0 .187-.056.333-.167.438a.626.626 0 0 1-.447.158.633.633 0 0 1-.45-.157.566.566 0 0 1-.168-.433m1.726-.097h.19c.122 0 .199-.004.23-.014a.135.135 0 0 0 .072-.049.142.142 0 0 0 .026-.086.131.131 0 0 0-.035-.094.164.164 0 0 0-.097-.045 2.137 2.137 0 0 0-.187-.004h-.2v.292zm-.257.667v-1.155h.54c.135 0 .234.01.295.032.062.02.111.057.148.11a.306.306 0 0 1 .056.183.294.294 0 0 1-.084.214.424.424 0 0 1-.252.106c.056.03.102.062.138.098.036.034.085.097.146.187l.154.225h-.306l-.186-.251a1.558 1.558 0 0 0-.134-.17.198.198 0 0 0-.078-.048.464.464 0 0 0-.129-.013h-.051v.482h-.257zm1.572-.959v.327h.14a.69.69 0 0 0 .203-.018.17.17 0 0 0 .08-.056.15.15 0 0 0 .03-.09.143.143 0 0 0-.04-.104.178.178 0 0 0-.105-.051 1.214 1.214 0 0 0-.184-.008h-.124zm-.256.959v-1.155h.412c.156 0 .257.006.304.018a.337.337 0 0 1 .183.113.335.335 0 0 1 .073.224.36.36 0 0 1-.041.18.34.34 0 0 1-.109.114.402.402 0 0 1-.133.054c-.06.011-.15.016-.266.016h-.167v.436h-.256zm1.431-.578c0 .13.033.23.1.298a.342.342 0 0 0 .253.1.337.337 0 0 0 .251-.1c.066-.067.098-.167.098-.302 0-.131-.032-.23-.095-.295a.343.343 0 0 0-.254-.098.345.345 0 0 0-.256.099c-.065.066-.097.165-.097.298zm-.265.008c0-.118.02-.216.058-.296a.546.546 0 0 1 .283-.262.752.752 0 0 1 .274-.046.63.63 0 0 1 .45.158c.112.106.168.252.168.44a.574.574 0 0 1-.168.438.627.627 0 0 1-.447.158.63.63 0 0 1-.45-.157.567.567 0 0 1-.168-.433m1.726-.097h.19c.122 0 .199-.004.23-.014a.137.137 0 0 0 .072-.049.137.137 0 0 0 .025-.086.13.13 0 0 0-.034-.094.166.166 0 0 0-.096-.045 2.136 2.136 0 0 0-.187-.004h-.2v.292zm-.257.667v-1.155h.54c.136 0 .234.01.295.032.062.02.111.057.148.11a.313.313 0 0 1 .056.183.29.29 0 0 1-.084.214.424.424 0 0 1-.252.106.58.58 0 0 1 .138.098c.036.034.085.097.146.187l.155.225h-.307l-.185-.251a1.572 1.572 0 0 0-.136-.17.196.196 0 0 0-.076-.048.472.472 0 0 0-.13-.013h-.051v.482h-.257zm2.044-.456-.175-.43-.172.43h.347zm.471.456h-.278l-.112-.263h-.508l-.104.263h-.272l.495-1.155h.271l.508 1.155zm.32-.001v-.958h-.377v-.196h1.008v.196h-.376v.959h-.255zm.872-1.154h.255v1.155h-.255v-1.155zm.794.577c0 .13.033.23.1.298.065.067.15.1.252.1a.337.337 0 0 0 .251-.1c.066-.067.099-.167.099-.302 0-.131-.031-.23-.096-.295a.343.343 0 0 0-.254-.098.347.347 0 0 0-.256.099c-.064.066-.096.165-.096.298zm-.265.008c0-.118.02-.216.058-.296a.53.53 0 0 1 .283-.262.75.75 0 0 1 .274-.046.63.63 0 0 1 .449.158c.112.106.168.252.168.44 0 .187-.055.333-.167.438a.626.626 0 0 1-.448.158.629.629 0 0 1-.45-.157.564.564 0 0 1-.167-.433m1.487.569v-1.154h.25l.52.772v-.772h.238v1.155h-.257l-.513-.753v.753h-.238z" fill="#595757"/><path d="m22.342 10.134-1.058.546-1.091 2.542-.23-.153.95-2.193-.731.371-.633 1.473-.218-.164.469-1.112-.436.218-.295.72-.24-.153.153-.36-.164.087-.109.23-2.89-2.259-4.364 9.982 1.843-.916 1.735-4.037.229.153-1.593 3.698 1.037-.523 1.145-2.651.229.152-.993 2.313.72-.36.688-1.604.229.153-.546 1.266.437-.219.37-.861.23.152-.219.524.219-.109.13-.284.23.153-.011.033 2.694 2.094L24.546 9l-1.833.95-1.691 3.948-.24-.153 1.56-3.6v-.01z" fill="url(#a)"/><path d="m20.455 18.556-6.306-4.81-2.694 6.163 1.843-.916 1.735-4.036.229.152-1.593 3.698 1.037-.523 1.145-2.651.229.153-.993 2.312.72-.36.688-1.603.229.152-.546 1.266.437-.218.37-.862.23.153-.219.523.219-.109.13-.284.23.153-.011.033 2.694 2.095.197-.48z" fill="url(#b)" fill-opacity=".5"/><path d="m15.578 10.484.24-.546 2.891 2.247.11-.229.163-.087-.153.36.24.153.306-.71.436-.218-.49 1.102.228.164.633-1.473.73-.37-.948 2.181.229.164 1.09-2.542 1.059-.546-1.56 3.611.24.153 1.69-3.949L24.547 9l-2.64 6.164-6.328-4.691v.01z" fill="url(#c)" fill-opacity=".5"/><defs><linearGradient id="a" x1="14.727" y1="12.589" x2="21.415" y2="15.785" gradientUnits="userSpaceOnUse"><stop stop-color="#0A6272"/><stop offset=".52" stop-color="#4DC3C5"/><stop offset=".97" stop-color="#0A6272"/></linearGradient><linearGradient id="b" x1="13.8" y1="14.826" x2="21.546" y2="19.451" gradientUnits="userSpaceOnUse"><stop stop-color="#ECF2F8" stop-opacity="0"/><stop offset=".46" stop-color="#C9EDEA"/><stop offset="1" stop-color="#F0F3FA" stop-opacity="0"/></linearGradient><linearGradient id="c" x1="15.076" y1="9.644" x2="23.356" y2="15.251" gradientUnits="userSpaceOnUse"><stop stop-color="#C9EDEA" stop-opacity="0"/><stop offset=".52" stop-color="#C9EDEA"/><stop offset=".85" stop-color="#0A6272"/></linearGradient></defs></svg>