<svg width="36" height="36" fill="none" xmlns="http://www.w3.org/2000/svg"><path d="M18 0c2.837 0 5.52.656 7.907 1.825C31.884 4.753 36 10.895 36 18c0 9.942-8.058 18-18 18-9.94 0-18-8.057-18-18C0 8.06 8.06 0 18 0z" fill="#F2F4F7"/><path d="M10.665 22.81a14.005 14.005 0 0 1-1.963-8.449 12.313 12.313 0 0 1-3.554-1.9 14.019 14.019 0 0 0 6.083 17.822c-1-2.36-1.2-4.983-.566-7.467v-.006z" fill="#00B3EC"/><path d="M19.363 29.204a12.439 12.439 0 0 1-2.522 2.77 13.957 13.957 0 0 0 9.828-2.94 14.14 14.14 0 0 1-7.306.17z" fill="#2CB5A9"/><path d="M19.363 29.203a14.082 14.082 0 0 1-8.698-6.398 11.718 11.718 0 0 0 .566 7.467c1.73.96 3.644 1.54 5.615 1.702a12.442 12.442 0 0 0 2.517-2.771z" fill="#009D9E"/><path d="M9.781 10.03a14.104 14.104 0 0 1 4.102-5.41 14.051 14.051 0 0 0-7.578 5.7 12.411 12.411 0 0 1 3.476-.29z" fill="#00B3EC"/><path d="M9.78 10.03a12.411 12.411 0 0 0-3.478.29 13.84 13.84 0 0 0-1.154 2.14A12.313 12.313 0 0 0 8.7 14.362a13.927 13.927 0 0 1 1.08-4.33z" fill="#0082C8"/><path d="M8.702 14.361a14.005 14.005 0 0 0 1.963 8.448 11.681 11.681 0 0 1 7.961-8.273c-.205-.25-.419-.491-.642-.724a12.391 12.391 0 0 1-9.277.55h-.005z" fill="url(#a)"/><path d="M32 17.105a14 14 0 0 0-6.226-10.761A10.887 10.887 0 0 0 32 17.106z" fill="url(#b)"/><path d="M21.96 14.05c-1.129 0-2.252.164-3.334.488a12.354 12.354 0 0 1 .732 14.672c2.408.584 4.928.526 7.306-.17a13.992 13.992 0 0 0 5.262-9.371 11.649 11.649 0 0 0-9.965-5.62z" fill="url(#c)"/><path d="M10.665 22.808a14.08 14.08 0 0 0 8.698 6.395 12.356 12.356 0 0 0-.732-14.672 11.682 11.682 0 0 0-7.966 8.277z" fill="url(#d)"/><path d="M9.78 10.03a12.33 12.33 0 0 1 8.204 3.783 12.376 12.376 0 0 0 6.669-8.143 14.055 14.055 0 0 0-10.77-1.051 14.104 14.104 0 0 0-4.102 5.41z" fill="url(#e)"/><path d="M9.78 10.03a13.927 13.927 0 0 0-1.079 4.33 12.391 12.391 0 0 0 9.278-.548A12.33 12.33 0 0 0 9.78 10.03z" fill="url(#f)"/><defs><radialGradient id="a" cx="0" cy="0" r="1" gradientUnits="userSpaceOnUse" gradientTransform="translate(22.714 15.823) scale(14.0384)"><stop offset=".6" stop-color="#00B8EE"/><stop offset="1" stop-color="#0068B6"/></radialGradient><radialGradient id="b" cx="0" cy="0" r="1" gradientUnits="userSpaceOnUse" gradientTransform="translate(22.714 15.82) scale(14.0373)"><stop stop-color="#D3E6D4"/><stop offset="1" stop-color="#00883F"/></radialGradient><radialGradient id="c" cx="0" cy="0" r="1" gradientUnits="userSpaceOnUse" gradientTransform="translate(22.713 15.823) scale(14.0385)"><stop stop-color="#D3E6D4"/><stop offset="1" stop-color="#00883F"/></radialGradient><radialGradient id="d" cx="0" cy="0" r="1" gradientUnits="userSpaceOnUse" gradientTransform="translate(22.714 15.82) scale(14.0384)"><stop offset=".3" stop-color="#62BFB3"/><stop offset="1" stop-color="#067"/></radialGradient><radialGradient id="e" cx="0" cy="0" r="1" gradientUnits="userSpaceOnUse" gradientTransform="translate(22.714 15.822) scale(14.0385)"><stop offset=".6" stop-color="#00B8EE"/><stop offset="1" stop-color="#0068B6"/></radialGradient><radialGradient id="f" cx="0" cy="0" r="1" gradientUnits="userSpaceOnUse" gradientTransform="translate(22.713 15.823) scale(14.042)"><stop offset=".25" stop-color="#00B8EE"/><stop offset=".75" stop-color="#0080CB"/><stop offset="1" stop-color="#005BAB"/></radialGradient></defs></svg>