<svg width="36" height="36" fill="none" xmlns="http://www.w3.org/2000/svg"><path d="M18 0c2.837 0 5.52.656 7.907 1.825C31.884 4.753 36 10.895 36 18c0 9.942-8.058 18-18 18-9.94 0-18-8.057-18-18C0 8.06 8.06 0 18 0z" fill="#F2F4F7"/><path d="M21.093 17.745c0-2.396-2.039-3.441-4.11-3.441-1.605 0-3.036.57-3.68 1.39h1.32c.114 0 .244-.003.383-.137.449-.448 1.187-.622 1.982-.622.885 0 1.81.467 2.157 1.26.108.252.2.606.222 1.424.013.62-.073 1.276-.217 1.645-.24.622-1.009 1.274-2.247 1.274-1.281 0-2.26-.803-2.26-1.774 0-1.267 1.799-1.85 3.596-1.745.017-.23-.943-.481-1.894-.44-2.114.093-3.468.934-3.468 2.174 0 1.21 1.339 2.416 4.003 2.416 1.062 0 2.19-.344 2.797-.865.26.297.646.47 1.084.47h.332v-3.029z" fill="#00B48C"/><path d="M12.512 14.305h-.332c-.669 0-1.171.168-1.734.547-.279.191-3.736 2.727-3.736 2.727v-1.966c0-1.186-.892-1.308-1.308-1.308H5v5.302c0 1.114 1.158 1.168 1.378 1.168h.332V17.65s1.674 1.401 3.158 2.528c.49.375 1.175.596 2.134.596h1.002c-1.341-1.006-4.55-3.523-4.55-3.523l4.058-2.947zm14.087 6.293c-1.67 0-2.634-1.339-2.634-2.988s.965-2.986 2.634-2.986c1.661 0 2.633 1.337 2.633 2.986 0 1.65-.968 2.988-2.633 2.988zm0-6.598c-2.434 0-4.405 1.619-4.405 3.614 0 1.999 1.971 3.617 4.405 3.617 2.426 0 4.401-1.618 4.401-3.617C31 15.619 29.025 14 26.599 14z" fill="#00B48C"/></svg>