<svg width="36" height="36" fill="none" xmlns="http://www.w3.org/2000/svg"><path d="M18 0c2.837 0 5.52.656 7.907 1.825C31.884 4.753 36 10.895 36 18c0 9.942-8.058 18-18 18-9.94 0-18-8.057-18-18C0 8.06 8.06 0 18 0z" fill="#F2F4F7"/><path d="M17.997 4C25.733 4 32 10.264 32 17.997 32 25.727 25.733 32 17.997 32 10.27 32 4 25.727 4 17.997 4 10.264 10.27 4 17.997 4zm0 26.741c7.04 0 12.746-5.703 12.746-12.744 0-7.038-5.706-12.744-12.746-12.744-7.038 0-12.742 5.706-12.742 12.744 0 7.04 5.704 12.744 12.742 12.744z" fill="#D02F26"/><path d="M12.508 17.887a5.697 5.697 0 0 0-4.584-5.59A11.475 11.475 0 0 1 17.964 6.4a11.48 11.48 0 0 1 10.108 6.024 5.7 5.7 0 0 0 0 10.922 11.478 11.478 0 0 1-10.109 6.026A11.477 11.477 0 0 1 7.924 23.48a5.704 5.704 0 0 0 4.584-5.592z" fill="#D02F26"/></svg>