<svg width="36" height="36" fill="none" xmlns="http://www.w3.org/2000/svg"><path d="M18 0c2.837 0 5.52.656 7.907 1.825C31.884 4.753 36 10.895 36 18c0 9.942-8.058 18-18 18-9.94 0-18-8.057-18-18C0 8.06 8.06 0 18 0z" fill="#F2F4F7"/><path d="M6 24.142h24V12H6v12.142z" fill="#fff"/><path d="M30 12H6v12.142h24V12z" stroke="#fff" stroke-width=".6"/><path d="M30 12H6v12.143h24V12zm-.285 11.859H18.141V12.283h11.574V23.86zm-18.383-1.944a.41.41 0 0 1-.41-.409l-.003-4.319c0-.262.206-.479.746-.704.185-.075.201-.182.07-.302-.11-.099-.122-.167-.105-.39.016-.233.163-2.27.182-2.46.015-.152.106-.235.26-.235.153 0 .244.083.259.235.021.19.164 2.227.183 2.46.016.223.006.292-.103.39-.134.12-.12.227.068.302.54.225.745.442.745.704l-.004 4.32a.408.408 0 0 1-.409.408h-1.48zm-.762-.411H9.266l-1.812-3.192 1.812-3.19h2.057l-.04.556H9.59l-1.497 2.634L9.59 20.95h.98v.555zm6.11-3.192-1.81 3.192h-1.296v-.555h.972l1.497-2.637-1.497-2.634H12.86l-.04-.555h2.05l1.81 3.19zm11.74-1.33h.289v2.173h-.29v-2.172zm-5.992.007v2.166h-.286v-.97h-.882v.97h-.288v-2.166h.288v.909h.882v-.91h.286zm.7 0v1.564a.35.35 0 0 0 .108.251.494.494 0 0 0 .347.138c.25 0 .45-.174.45-.39V16.99h.29v1.564a.65.65 0 0 1-.192.454.778.778 0 0 1-.548.22.776.776 0 0 1-.55-.22.649.649 0 0 1-.193-.454V16.99h.288zm-2.738 1.444h.272c0 .524-.333.783-.785.783-.534 0-.868-.52-.868-1.183 0-.702.41-1.106.868-1.106.502 0 .774.353.774.721h-.28c-.035-.286-.2-.455-.483-.455-.275 0-.58.252-.58.845 0 .58.251.911.58.911.247 0 .44-.127.502-.517zm5.131-1.245c-.346 0-.574.372-.576.896-.006.785.569 1.024.988.738v-.553h-.421v-.287h.739v.937c-.135.19-.395.297-.688.297-.525 0-.922-.417-.922-1.125 0-.726.358-1.164.864-1.164.499 0 .733.317.733.666h-.27c-.043-.224-.18-.405-.447-.405zm1.217 1.967.173-.528h.76l.172.528h.3l-.698-2.166h-.306l-.701 2.166h.3zm.55-1.793.291.98h-.577l.287-.98z" fill="#0A50A1"/></svg>