<svg width="36" height="36" fill="none" xmlns="http://www.w3.org/2000/svg"><path d="M18 0c2.837 0 5.52.656 7.907 1.825C31.884 4.753 36 10.895 36 18c0 9.942-8.058 18-18 18-9.94 0-18-8.057-18-18C0 8.06 8.06 0 18 0z" fill="#F2F4F7"/><path d="m24.718 19.737-.247 1.354a.105.105 0 0 1-.04.07.108.108 0 0 1-.076.022h-.802c-.075 0-.1-.038-.087-.112l.462-2.565c.02-.108.056-.138.166-.138h.836a.143.143 0 0 1 .146.094c.213.435.428.866.642 1.3l.024.044c.026-.159.048-.305.074-.452.053-.294.109-.587.16-.882a.114.114 0 0 1 .123-.106h.802c.076 0 .1.036.084.12l-.156.876-.295 1.665c-.024.134-.048.156-.182.156h-.822a.128.128 0 0 1-.08-.019.132.132 0 0 1-.053-.063c-.212-.44-.429-.876-.643-1.313l-.036-.05zm6.039-3.463c.062-.453.153-.892.237-1.333a.113.113 0 0 1 .126-.108h.782c.082 0 .108.038.094.12l-.46 2.579a.12.12 0 0 1-.062.102.118.118 0 0 1-.046.015.121.121 0 0 1-.025.001h-.884a.112.112 0 0 1-.067-.022.113.113 0 0 1-.042-.056l-.641-1.308-.036-.07c-.049.335-.117.656-.17.977-.021.124-.045.246-.069.369a.116.116 0 0 1-.128.108h-.788c-.077 0-.11-.04-.097-.114l.475-2.607a.113.113 0 0 1 .042-.077.113.113 0 0 1 .083-.025h.89a.122.122 0 0 1 .073.024.126.126 0 0 1 .046.062c.217.444.436.888.655 1.331l.012.032zm-16.511-.068-.096.54c-.046.267-.094.534-.142.802-.016.084-.058.118-.148.118h-.752c-.099 0-.127-.032-.109-.132l.239-1.312c.076-.417.152-.834.226-1.251.016-.09.05-.124.143-.124h.864a.132.132 0 0 1 .132.084c.208.418.416.844.626 1.275.01.022.016.048.038.062l.183-1.036c.016-.092.03-.185.048-.277a.113.113 0 0 1 .01-.05.113.113 0 0 1 .05-.056.117.117 0 0 1 .072-.016h.788c.082 0 .106.04.09.128l-.465 2.583a.117.117 0 0 1-.011.044.108.108 0 0 1-.029.037.114.114 0 0 1-.086.025h-.878a.11.11 0 0 1-.068-.019.113.113 0 0 1-.043-.055c-.214-.439-.429-.877-.645-1.314l-.037-.056zm12.614-1.423a1.645 1.645 0 0 1 .87.2 1.03 1.03 0 0 1 .465.536 1.047 1.047 0 0 1 .068.426 1.683 1.683 0 0 1-.21.837 1.7 1.7 0 0 1-.592.627 2.012 2.012 0 0 1-1.274.29 1.54 1.54 0 0 1-.601-.155 1.05 1.05 0 0 1-.578-.88 1.715 1.715 0 0 1 .235-1.01 1.768 1.768 0 0 1 .39-.456 1.756 1.756 0 0 1 .665-.34c.184-.048.37-.073.561-.075zm-.737 1.724a.977.977 0 0 0 .016.2.34.34 0 0 0 .041.16.348.348 0 0 0 .144.146.357.357 0 0 0 .282.025.486.486 0 0 0 .261-.18 1.488 1.488 0 0 0 .259-.64 1.076 1.076 0 0 0-.048-.628.306.306 0 0 0-.148-.143.312.312 0 0 0-.153-.027.492.492 0 0 0-.421.265 1.618 1.618 0 0 0-.24.824l.007-.002zm-6.082 1.861h.514c.114 0 .126.012.146.124l.239 1.367c.07.402.136.803.2 1.204.012.074-.042.126-.132.126h-.766c-.2 0-.2 0-.215-.2 0-.067-.016-.13-.022-.201 0-.03-.016-.038-.044-.038h-.758a.054.054 0 0 0-.054.04c-.044.096-.092.2-.136.29a.154.154 0 0 1-.063.079.155.155 0 0 1-.098.024h-.842c-.112 0-.14-.046-.086-.144.476-.861.954-1.724 1.436-2.587a.153.153 0 0 1 .15-.086l.531.002zm-.158.816c-.12.323-.283.625-.415.946h.329c.146 0 .14 0 .13-.144a6.417 6.417 0 0 1-.042-.802h-.002zm3.329-4.354h.694a1.426 1.426 0 0 1 .538.135.646.646 0 0 1 .291.329.654.654 0 0 1 .019.439 1.062 1.062 0 0 1-.84.802c-.245.052-.493.07-.742.054-.057 0-.08 0-.09.074a40.802 40.802 0 0 1-.169.918.113.113 0 0 1-.032.04.114.114 0 0 1-.045.024.123.123 0 0 1-.051.003h-.857c-.092 0-.12-.032-.104-.12l.355-1.98c.035-.192.069-.385.102-.58.018-.105.056-.14.167-.14l.764.002zm.222.542H23.4c-.06 0-.09 0-.1.078-.02.158-.052.315-.082.471-.03.157-.03.149.124.145a.408.408 0 0 0 .29-.094.41.41 0 0 0 .15-.267.254.254 0 0 0-.006-.164.25.25 0 0 0-.212-.16.624.624 0 0 0-.13-.007v-.002zm-3.146 1.221h-.24c-.036 0-.053 0-.059.046l-.152.856c-.022.13-.052.157-.184.157h-.803c-.09 0-.138-.042-.12-.143.122-.645.237-1.29.353-1.937l.112-.611c.018-.098.052-.126.155-.128h1.466a1.365 1.365 0 0 1 .548.141.628.628 0 0 1 .162.133.67.67 0 0 1 .112.72 1.066 1.066 0 0 1-.54.614 1.067 1.067 0 0 1-.262.09 1.91 1.91 0 0 1-.548.062zm-.088-.527a.419.419 0 0 0 .312-.075.426.426 0 0 0 .171-.272.253.253 0 0 0-.222-.337 1.814 1.814 0 0 0-.201 0c-.042 0-.054.016-.06.052-.032.179-.064.36-.098.538-.01.094-.01.094.098.094zm-3.287 4.064h-.22c-.066 0-.062.014-.068.056-.05.29-.105.58-.157.869-.018.098-.056.132-.156.132h-.838c-.105 0-.135-.032-.117-.132l.273-1.53.188-1.043c.014-.078.049-.114.129-.114.51 0 1.019-.014 1.528 0a1.01 1.01 0 0 1 .583.188.623.623 0 0 1 .237.658 1.051 1.051 0 0 1-.408.67 1.064 1.064 0 0 1-.44.19 1.966 1.966 0 0 1-.534.056zm.067-1.223a.612.612 0 0 1-.075 0c-.04 0-.054.012-.062.05-.036.2-.074.401-.112.602 0 .022 0 .042.026.042a.687.687 0 0 0 .365-.062.427.427 0 0 0 .19-.443c-.036-.129-.14-.187-.332-.189zm11.912-.54h1.175c.119 0 .143.03.119.145-.024.114-.05.264-.076.4-.018.097-.049.125-.147.127h-.555c-.048 0-.067.01-.075.06-.088.504-.178 1.003-.266 1.508l-.084.477a.116.116 0 0 1-.042.077.117.117 0 0 1-.083.028h-.944c-.068 0-.092-.036-.08-.113.05-.29.102-.579.154-.868.066-.367.132-.735.2-1.103 0-.048 0-.068-.054-.068h-.533c-.114 0-.14-.03-.122-.14.018-.11.046-.265.072-.401.018-.098.06-.13.16-.13h1.185l-.004.002zm-6.772 2.818h-.444c-.097 0-.127-.034-.109-.126l.468-2.583a.113.113 0 0 1 .126-.108h.924c.08 0 .105.034.089.114l-.458 2.579c-.016.09-.054.124-.15.124h-.445zm-4.743-3.535h-.44c-.104 0-.132-.032-.112-.134l.279-1.534.184-1.023c.018-.098.05-.128.15-.128h.885c.098 0 .122.028.104.124l-.4 2.294c-.017.09-.033.18-.047.268-.014.089-.054.13-.15.13l-.453.003zm-5.187 4.335c-.049-.038-.087 0-.125 0H5.033a1.092 1.092 0 0 1-1.003-.86 1.1 1.1 0 0 1-.03-.229v-6.798C4 14 4 14 4.096 14H11.1a1.042 1.042 0 0 1 .549.137 1.071 1.071 0 0 1 .442.484.995.995 0 0 1 .082.274c.01.056.014.113.014.17v6.846l.002.074zm-3.644-.046h3.529c.062 0 .078-.016.078-.078v-6.792a.832.832 0 0 0 0-.122 1.055 1.055 0 0 0-1.073-.915H4.158c-.118 0-.118 0-.118.119v6.721a1.1 1.1 0 0 0 .028.271 1.047 1.047 0 0 0 .757.766 1.002 1.002 0 0 0 .186.03c.031.002.062.003.094.002 1.147-.004 2.294-.002 3.439-.002h.002z" fill="#2F63A1"/><path d="M7.824 14.425h3.256a.7.7 0 0 1 .328.079.701.701 0 0 1 .249.226.701.701 0 0 1 .11.317.7.7 0 0 1 .003.068v6.367c0 .064-.018.076-.078.076H5.097a.658.658 0 0 1-.672-.666V14.54c0-.112 0-.112.11-.112l3.289-.003zm-.185 1.145v-.348c0-.113-.05-.17-.17-.17H5.488c-.13 0-.18.047-.18.176v5.127c0 .13.05.18.182.18h4.983c.094 0 .12-.04.104-.132a1.906 1.906 0 0 1-.046-.31c.004-.191.033-.378.086-.56.147-.475.266-.957.357-1.446a2.99 2.99 0 0 0 .014-.866 2.095 2.095 0 0 0-.652-1.25 2.255 2.255 0 0 0-1.59-.672 2.268 2.268 0 0 0-.585.071 2.399 2.399 0 0 0-.522.2z" fill="#2F63A1"/><path d="M7.64 15.57a2.399 2.399 0 0 1 1.108-.272 2.265 2.265 0 0 1 1.59.673 2.095 2.095 0 0 1 .652 1.25c.037.289.033.578-.014.866-.091.489-.21.97-.359 1.446a2.144 2.144 0 0 0-.09.559c.007.105.022.209.046.31.016.093-.01.13-.104.133H5.492c-.132 0-.183-.05-.183-.18v-5.128c0-.128.049-.176.18-.176h1.98c.12 0 .168.05.17.17.002.12 0 .225 0 .35zm-.277.538v-.423c0-.06-.012-.08-.079-.08H5.66c-.056 0-.056.015-.056.068v4.523c0 .052.012.07.066.07H7.3c.059 0 .07-.018.07-.074v-2.035c0-.09.005-.178.017-.267a.773.773 0 0 1 .704-.647.708.708 0 0 1 .7.567 1.632 1.632 0 0 1-.04.802c-.125.446-.3.87-.526 1.274-.064.12-.13.238-.2.366h2.117c.118 0 .12 0 .114-.118a2.75 2.75 0 0 1 .14-.854c.139-.43.246-.868.321-1.314a2.418 2.418 0 0 0-.02-.832 1.934 1.934 0 0 0-.681-1.088 2.031 2.031 0 0 0-.847-.42 2.064 2.064 0 0 0-.631-.04 2.03 2.03 0 0 0-.893.31 2.777 2.777 0 0 0-.282.212zm.276 3.008v1.082a.294.294 0 0 0 0 .054c0 .033.024.039.047.015a15.006 15.006 0 0 0 .367-.654 4.9 4.9 0 0 0 .455-1.161 1.046 1.046 0 0 0-.02-.642.4.4 0 0 0-.475-.273.421.421 0 0 0-.281.21.586.586 0 0 0-.09.326c-.002.347-.003.697-.003 1.049v-.006z" fill="#FEFEFE"/><path d="M7.363 16.108a2.02 2.02 0 0 1 1.33-.533 1.97 1.97 0 0 1 .778.144 1.991 1.991 0 0 1 .544.327 1.912 1.912 0 0 1 .592.786c.042.103.075.208.098.316.055.277.062.554.02.833a9.457 9.457 0 0 1-.32 1.313 2.752 2.752 0 0 0-.14.854c0 .119 0 .119-.115.119H8.022c.07-.129.139-.247.2-.367.227-.404.402-.828.526-1.274a1.635 1.635 0 0 0 .04-.802.701.701 0 0 0-.462-.538.7.7 0 0 0-.243-.04.769.769 0 0 0-.673.523.776.776 0 0 0-.031.125 1.74 1.74 0 0 0-.016.267v2.035c0 .054-.012.074-.07.074h-1.63c-.059-.003-.059-.021-.059-.074v-4.523c0-.053 0-.069.058-.069h1.624c.067 0 .08.02.079.08-.006.137-.002.273-.002.424z" fill="#DF3449"/><path d="M7.64 19.122v-1.055a.583.583 0 0 1 .09-.325.423.423 0 0 1 .52-.194.4.4 0 0 1 .238.262 1.047 1.047 0 0 1 .022.646 4.9 4.9 0 0 1-.456 1.159 15.117 15.117 0 0 1-.366.654c-.023.024-.04.016-.047-.014a288.388 288.388 0 0 1-.002-1.133z" fill="#2F63A1"/></svg>