<svg width="36" height="36" fill="none" xmlns="http://www.w3.org/2000/svg"><path d="M18 0c2.837 0 5.52.656 7.907 1.825C31.884 4.753 36 10.895 36 18c0 9.942-8.058 18-18 18-9.94 0-18-8.057-18-18C0 8.06 8.06 0 18 0z" fill="#F2F4F7"/><path d="M6.849 18.533c-.147-.114-.301-.073-.44.04-.26.22-.488.278-.7.245-.285-.04-.626-.285-.626-.781 0-.497.358-.806.65-.83a.69.69 0 0 1 .44.097c.114.065.212.147.31.244.114.106.293.098.447 0 .204-.13.383-.431.423-.635.041-.203 0-.333-.195-.415a2.889 2.889 0 0 1-.277-.13c-.276-.163-.602-.39-1.212-.366-.928.016-1.669.936-1.669 2.06 0 1.122.74 1.993 1.685 1.977a1.88 1.88 0 0 0 .814-.204c.138-.065.285-.122.44-.162.162-.05.284-.163.268-.423-.024-.237-.195-.595-.358-.717z" fill="#82BE28"/><path d="M9.942 19.583a1.125 1.125 0 0 0-.147-.317 1.913 1.913 0 0 1-.154-.318 6.931 6.931 0 0 1-.35-1.196c-.098-.44-.22-1.05-.26-1.254-.05-.236-.164-.382-.302-.44a1.086 1.086 0 0 0-.326-.048h-.561a.74.74 0 0 0-.326.049c-.138.065-.252.211-.3.44v.016c.154.08.186.211.146.39-.05.204-.228.505-.424.627-.154.098-.333.106-.447 0a1.281 1.281 0 0 0-.31-.244.69.69 0 0 0-.44-.098c-.292.024-.65.342-.65.83 0 .489.342.741.626.782.212.032.44-.025.7-.244.139-.114.293-.155.44-.041.146.114.334.48.35.708.016.26-.106.366-.269.423-.154.04-.3.098-.44.163l-.024.008c.057.098.171.139.334.155.18.008.358.016.537.008.212-.008.358-.098.415-.244.025-.09.066-.171.114-.253a.277.277 0 0 1 .245-.105.277.277 0 0 1 .244.105c.049.082.09.163.122.253.057.138.203.236.415.244.252.008.513 0 .684-.008a.342.342 0 0 0 .26-.09.28.28 0 0 0 .098-.3zm-1.823-1.001c-.334 0-.407-.334-.31-.651.106-.358.22-.407.31-.407s.203.049.309.407c.098.317.024.65-.31.65z" fill="#2D8C3C"/><path d="M18.952 17.858c0-.554-.431-.635-.692-.635-.716 0-1.041.626-1.041 1.204 0 .716.333 1.083.993 1.083.236 0 .464-.057.675-.171v-.464c-.17.122-.374.187-.586.203-.252 0-.472-.146-.488-.488.602-.024 1.14-.212 1.14-.732zm-1.147.415c.016-.562.26-.651.415-.651.122 0 .228.097.228.22v.024c0 .227-.253.374-.643.407zm-5.51.431.439.326a1.14 1.14 0 0 1-.953.48c-.683 0-1.237-.513-1.237-1.482 0-.927.554-1.473 1.237-1.473.375 0 .725.18.945.48l-.44.326a.597.597 0 0 0-.488-.285c-.35 0-.627.358-.627.96 0 .627.285.961.627.961a.64.64 0 0 0 .496-.293zm2.4-1.4h-.602v1.319c0 .244-.106.341-.293.341s-.293-.105-.293-.341v-1.319h-.602v.96c-.008.204.008.4.04.603.066.236.245.39.578.431-.293.187-.504.448-.504.782 0 .358.276.553.724.553.594 0 .88-.383.928-.944.024-.317.024-.554.024-.676v-1.709zm-.586 2.36c-.008.204-.016.554-.317.554a.247.247 0 0 1-.252-.244v-.033c0-.276.22-.602.57-.749 0 .066.007.277 0 .473zm15.327-1.717v1.49h-.602v-1.303c0-.154-.041-.382-.293-.382-.204 0-.326.187-.326.423v1.262h-.602v-2.133h.545v.318c.147-.294.375-.4.619-.4.423 0 .659.245.659.725zm-13.284-.724a.818.818 0 0 0-.472.154v-.765h-.602v2.735c.269.106.553.163.846.163.676 0 1.034-.432 1.034-1.245 0-.676-.277-1.042-.806-1.042zm-.195 1.896a.658.658 0 0 1-.277-.065 27.483 27.483 0 0 1 0-1.156c0-.154.122-.276.277-.276h.008c.399 0 .399.537.399.74 0 .375-.049.757-.407.757zm14.464-1.815h.537v.456h-.537v.79c-.008.122 0 .235.032.357a.274.274 0 0 0 .285.171.731.731 0 0 0 .22-.056v.406c-.138.057-.293.09-.44.09-.43 0-.594-.155-.659-.39-.04-.172-.04-.514-.04-.815v-1.7h.602v.691zm-5.177.073a2.42 2.42 0 0 0-.83-.154c-.692 0-1.058.464-1.058 1.099 0 .545.342.887.732.96-.3.187-.52.448-.52.781 0 .359.276.554.724.554.594 0 .879-.383.928-.944.024-.318.024-.554.024-.676v-1.62zm-1.294.993c0-.488.204-.879.692-.7v.96c0 .245-.106.343-.293.343s-.399-.122-.399-.603zm.708 1.303c-.008.203-.016.553-.317.553a.247.247 0 0 1-.253-.244v-.033c0-.276.196-.57.57-.748 0 .056.008.268 0 .472zm2.613-1.824c0-.553-.431-.634-.692-.634-.716 0-1.042.626-1.042 1.204 0 .716.334 1.083.993 1.083.236 0 .464-.057.676-.171v-.456a1.153 1.153 0 0 1-.586.203c-.244 0-.472-.146-.489-.488.61-.024 1.14-.212 1.14-.74zm-1.14.416c.017-.562.26-.652.416-.652.122 0 .227.098.227.22v.025c0 .235-.252.382-.643.407zm-4.436-1.653-.887 2.825h.578l.187-.595h.993l.188.595h.577l-.895-2.825h-.74zm.017 1.775.35-1.124.35 1.124h-.7zm-1.376-1.116a.528.528 0 0 1 .31.074v.537a.588.588 0 0 0-.35-.082.43.43 0 0 0-.4.44v1.197h-.602v-2.133h.537v.342a.584.584 0 0 1 .505-.375zm11.477 1.8a.152.152 0 0 0 .016-.058.103.103 0 0 0-.032-.073.12.12 0 0 0-.106-.033h-.171v.391h.057v-.179h.065l.114.171h.073l-.114-.17c.04 0 .073-.017.098-.05zm-.228-.115h.114a.16.16 0 0 1 .057.017.045.045 0 0 1 .024.04.062.062 0 0 1-.016.041.063.063 0 0 1-.065.016h-.106l-.008-.114zm.081-.187a.328.328 0 0 0-.325.334c.008.179.154.334.333.325.18 0 .326-.146.326-.333a.328.328 0 0 0-.334-.326zm0 .603a.273.273 0 1 1 .277-.277.285.285 0 0 1-.277.277z" fill="#000"/></svg>