<svg width="36" height="36" fill="none" xmlns="http://www.w3.org/2000/svg"><path d="M18 0c2.837 0 5.52.656 7.907 1.825C31.884 4.753 36 10.895 36 18c0 9.942-8.058 18-18 18-9.94 0-18-8.057-18-18C0 8.06 8.06 0 18 0z" fill="#F2F4F7"/><path fill-rule="evenodd" clip-rule="evenodd" d="M10.49 9.051c-.363.13-.354.112-1.054 2.01a991.705 991.705 0 0 1-1.364 3.678c-.11.3-.219.592-.241.65-.023.059-.117.31-.209.56l-.363.984c-.272.738-.272.74-.25.823.029.12.135.233.24.259.238.058 4.352-.007 4.577-.073.18-.052 1.11-.406 1.302-.495a484.65 484.65 0 0 1 3.239-1.3 1136.756 1136.756 0 0 0 5.206-2.089c.133-.051.27-.106.303-.121.033-.016.17-.07.303-.122.133-.051.285-.113.337-.137a.508.508 0 0 1 .127-.044.371.371 0 0 0 .124-.079c.213-.179.11-.288-.664-.7a25.31 25.31 0 0 1-.681-.372 17.04 17.04 0 0 0-.273-.152 537.147 537.147 0 0 0-1.529-.846l-1.27-.703c-.455-.252-.8-.441-1-.548a7.961 7.961 0 0 1-.332-.187 9.36 9.36 0 0 0-.368-.206 27.74 27.74 0 0 1-.379-.206c-.76-.429-.957-.515-1.339-.588-.34-.065-4.256-.061-4.441.004zm3.313 2.027c.128.027.299.07.38.096.159.051.324.134 1.79.9l1.483.773c.74.381.718.425-.44.909l-.937.392a312.2 312.2 0 0 1-.984.41c-.466.193-.888.37-.938.392a8.45 8.45 0 0 1-.318.131c-.125.05-.44.18-.699.289-.907.382-1.877.515-2.102.289-.163-.163-.151-.234.186-1.107a1.93 1.93 0 0 0 .072-.207 22.955 22.955 0 0 0 .302-.801 228.903 228.903 0 0 1 .65-1.757c.264-.698.68-.888 1.555-.709zm9.885 3.254c-.358.046-.828.196-1.328.422-.033.015-.217.09-.408.166-.192.076-.376.15-.409.166-.065.03-.474.197-1.241.505a29.1 29.1 0 0 0-.545.223c-.033.015-.217.09-.409.167-.191.076-.375.15-.408.165-.034.015-.17.07-.303.123a10.81 10.81 0 0 0-.402.168c-.088.04-.167.073-.177.073-.014 0-.726.287-.904.364a450.79 450.79 0 0 1-1.983.805c-.225.09-.436.177-.47.192-.112.052-.953.394-.967.394a1.79 1.79 0 0 0-.174.072c-.088.039-.341.143-.564.232-.455.182-.536.234-.565.363-.043.199-.011.239.61.76.325.272.62.521.656.553l.49.412 1.045.876c2.515 2.112 2.435 2.053 2.896 2.12.295.042 6.572.04 6.804-.002a.799.799 0 0 0 .491-.283c.092-.111.115-.162.358-.79l.685-1.75c.207-.521.216-.61.083-.761l-.095-.108-1.305.008-1.305.009-.152.074c-.29.143-.368.256-.633.93-.384.976-.467 1.047-1.262 1.064-.853.02-1.033-.04-1.794-.591-.876-.634-.949-.687-1.417-1.021-1.75-1.25-1.726-1.165-.475-1.694.406-.172.8-.34.874-.375.075-.034.545-.235 1.044-.446.5-.212.962-.41 1.028-.442a.775.775 0 0 1 .141-.057c.013 0 .122-.046.244-.102.122-.057.617-.27 1.1-.473.483-.204.932-.396.999-.427.683-.312.648-.308 2.77-.328 2.3-.021 2.159.02 2.436-.714.044-.116.12-.31.169-.429.14-.341.108-.511-.111-.603-.114-.048-4.76-.057-5.117-.01zm-7.29 11.387a38.36 38.36 0 0 0-.3 1.537c-.003.07.008.076.144.085.192.012.186.021.275-.419l.133-.65c.032-.15.067-.345.079-.432l.022-.158h-.17c-.11 0-.175.013-.183.037zm-6.038.05c-.085.158-.044.246.116.246.168 0 .21-.035.222-.184l.008-.104-.157-.01c-.131-.007-.162.002-.19.052zm2.451.032c-.082.152-.044.214.132.214.173 0 .199-.026.2-.205 0-.095-.282-.103-.332-.01zm5.759-.028c-.495.102-.856.511-.856.97 0 .494.375.7 1.1.604.353-.047.334-.032.394-.3.085-.38.08-.397-.116-.397h-.165l-.029.114a5.031 5.031 0 0 0-.05.22c-.032.158-.064.18-.253.18-.436 0-.606-.343-.386-.779.18-.355.527-.481 1.015-.369.153.036.148.038.173-.086.028-.141-.459-.233-.827-.157zm-10.248.05a.847.847 0 0 0-.036.161 3.188 3.188 0 0 1-.049.242 22.26 22.26 0 0 0-.21 1.089c0 .065 1 .025 1.196-.048.594-.223.84-1.097.387-1.378-.119-.074-1.25-.132-1.288-.066zm5.336.265c-.028.086-.05.106-.13.114-.13.012-.168.176-.04.176.11 0 .11.01.029.404-.1.486-.051.564.355.564.166 0 .183-.006.21-.077.05-.13.038-.154-.07-.141-.17.02-.191-.04-.13-.35.076-.384.083-.395.236-.406.195-.014.22-.176.026-.176-.12 0-.123-.002-.123-.106v-.106h-.164c-.16 0-.165.003-.199.104zm-4.406-.014c.51.22.103 1.02-.536 1.056-.248.014-.271-.002-.235-.162.014-.067.056-.285.091-.484.091-.517.06-.47.318-.47.154 0 .265.019.362.06zm12.89.141a1.1 1.1 0 0 0-.234.194c-.188.201-.195.202-.15.008.05-.214.044-.22-.154-.22h-.163l-.033.173a9.59 9.59 0 0 1-.061.295c-.155.673-.155.666.062.655.185-.01.196-.02.225-.213.034-.228.343-.595.528-.626.182-.03.206-.042.223-.112.009-.037.025-.098.037-.135.026-.086-.124-.096-.28-.019zm2.912-.02c-.52.035-.79.245-.911.712-.132.503.482.598.823.126.06-.083.032.171-.037.34-.077.19-.366.247-.718.14l-.148-.045.018.11c.03.188.282.252.686.175.413-.079.471-.165.624-.921.123-.613.126-.668.034-.661l-.37.024zm1.241.021c-.63.261-.747.987-.181 1.129.174.043.63-.02.76-.104.091-.06.107-.248.02-.213-.349.137-.596.16-.701.064-.11-.1-.083-.159.082-.178.652-.078.94-.71.335-.739a.731.731 0 0 0-.315.041zm-16.027.048a11.38 11.38 0 0 0-.198.955l-.02.13.175-.009.176-.009.026-.12c.125-.588.197-.97.184-.99-.037-.062-.314-.026-.343.043zm1.201-.024a.876.876 0 0 0-.596.828c0 .357.46.377.772.032l.11-.122-.021.146c-.062.42-.294.528-.839.388-.076-.02-.083-.014-.082.065.002.38 1.016.269 1.188-.13.045-.103.264-1.109.264-1.21 0-.057-.636-.054-.796.003zm1.25-.034c0 .006-.04.206-.09.447a7.5 7.5 0 0 0-.098.557l-.009.121h.165c.188 0 .176.02.259-.424.025-.133.064-.337.088-.454a.92.92 0 0 0 .028-.234c-.013-.022-.343-.034-.343-.013zm2.303.042c-.455.16-.764.915-.436 1.065.177.08.383.018.603-.184l.143-.13-.02.175-.02.175.173-.009.174-.009.111-.544c.062-.3.106-.555.098-.568-.027-.044-.685-.02-.826.03zm5.165-.008a.885.885 0 0 0-.596.82c0 .358.392.396.736.069.142-.136.164-.13.115.036-.048.16-.03.181.148.181.166 0 .19-.024.224-.227.01-.066.033-.182.049-.257.091-.43.12-.577.12-.619 0-.063-.623-.065-.796-.003zm2.906 0a.876.876 0 0 0-.596.828c0 .355.41.38.75.045l.131-.13-.02.144-.025.174c-.01.072.312.052.344-.021.03-.069.212-.966.212-1.044 0-.056-.637-.053-.796.004zm-11.237.167c.05.08-.338.562-.52.645-.192.087-.128-.25.098-.519.103-.122.374-.203.422-.126zm3.573.002c.06.099-.436.665-.584.665-.107 0-.007-.352.15-.532.117-.132.384-.215.434-.133zm5.146 0c.052.085-.426.665-.548.665-.204 0 .023-.545.273-.654.113-.049.248-.054.275-.01zm2.905-.002c.05.08-.338.56-.524.646-.192.09-.094-.345.124-.548.111-.104.358-.165.4-.098zm1.631-.005c.049.079-.378.61-.529.658-.186.059-.087-.348.135-.557.105-.098.356-.163.394-.1zm1.467.027c.047.084-.026.193-.17.255-.271.116-.336.056-.18-.165.096-.137.295-.188.35-.09z" fill="#000"/></svg>