<svg width="36" height="36" fill="none" xmlns="http://www.w3.org/2000/svg"><path d="M18 0c2.837 0 5.52.656 7.907 1.825C31.884 4.753 36 10.895 36 18c0 9.942-8.058 18-18 18-9.94 0-18-8.057-18-18C0 8.06 8.06 0 18 0z" fill="#F2F4F7"/><path d="M19.898 4.124A15.422 15.422 0 0 0 17.994 4a13.51 13.51 0 0 0-1.879.122C9.304 5.04 4 10.905 4 17.959c0 7.067 5.304 12.93 12.115 13.835a13.122 13.122 0 0 0 1.917.123c.626 0 1.265-.036 1.866-.123C26.722 30.851 32 25.001 32 17.96c0-7.041-5.278-12.893-12.102-13.835zm-3.783 1.748c.626-.087 1.24-.138 1.879-.137h.038c.626 0 1.252.049 1.866.149 4 .62 7.374 3.198 9.112 6.695-.435 2.057-1.815 4.066-3.31 5.441-.013-4.314-2.313-7.982-5.802-9.904-.6-.322-1.214-.597-1.866-.818-.613-.2-1.252-.36-1.917-.46a12.44 12.44 0 0 0-3.054-.074 12.17 12.17 0 0 1 3.054-.892zm5.534 12.198c0 .87-.039 1.724-.23 2.543-.269 1.179-.818 2.33-1.521 3.383-.537.832-1.189 1.586-1.853 2.257-.013-.001-.013-.011-.013-.011a11.363 11.363 0 0 1-3.642-8.334c0-.867.102-1.709.306-2.528.269-1.202.767-2.33 1.419-3.358.55-.831 1.189-1.6 1.917-2.294a12.147 12.147 0 0 1 1.866 2.305 11.38 11.38 0 0 1 1.75 6.037zm-15.924-.11c0-4.91 2.94-9.163 7.144-11.109a11.969 11.969 0 0 1 4.984 2.714c-.588.014-1.163.064-1.738.161-6.313 1.055-10.505 7.166-9.227 13.428a12.17 12.17 0 0 1-1.163-5.195zm14.173 12.087c-.614.086-1.24.136-1.866.149-.013.002-.026.002-.038.002-.64 0-1.253-.052-1.879-.15-3.974-.609-7.323-3.138-9.073-6.599.498-2.167 1.712-4.077 3.322-5.54.013 4.316 2.288 7.986 5.751 9.906.613.323 1.24.608 1.917.818.588.212 1.227.36 1.866.46.971.134 1.968.17 3.003.073a12.64 12.64 0 0 1-3.003.881zm3.22-.98a11.888 11.888 0 0 1-3.22-1.376 12.564 12.564 0 0 1-1.751-1.327c.37.014.997-.024 1.75-.16 3.566-.658 10.263-3.485 9.343-13.13a12.235 12.235 0 0 1 1.022 4.885c0 4.907-2.94 9.163-7.144 11.108z" fill="#FF2402"/></svg>