<svg width="36" height="36" fill="none" xmlns="http://www.w3.org/2000/svg"><path d="M18 0c2.837 0 5.52.656 7.907 1.825C31.884 4.753 36 10.895 36 18c0 9.942-8.058 18-18 18-9.94 0-18-8.057-18-18C0 8.06 8.06 0 18 0z" fill="#F2F4F7"/><path d="m5.739 17.044 1.739 2.434v-1.391l-1.74-1.043z" fill="#00A7E1"/><path d="M7.478 18.087V16l-1.739 1.043 1.739 1.044z" fill="#65BBE9"/><path d="M7.478 16h-.994l-.745 1.043L7.478 16z" fill="#9ED2F1"/><path d="M4 18.087v1.39l1.739-2.433L4 18.087z" fill="#00A7E1"/><path d="M5.739 17.044 4 19.478h3.478l-1.74-2.434z" fill="#0B6EAA"/><path d="M4.994 16H4l1.739 1.043L4.994 16z" fill="#9ED2F1"/><path d="M6.484 16h-1.49l.745 1.043L6.484 16z" fill="#C7EAFB"/><path d="M5.739 17.043 4 16v2.087l1.739-1.044z" fill="#65BBE9"/><path d="M13.339 16.735c-.126-.08-.316-.113-.655-.113h-1.02v2.23h.5v-.765h.539c.282 0 .496-.01.686-.144.176-.126.261-.318.261-.587 0-.276-.107-.49-.311-.62zm-1.174.318h.513c.306 0 .42.082.42.303 0 .207-.125.303-.392.303h-.541v-.606zm3.36-.318c-.126-.08-.315-.113-.654-.113h-1.02v2.23h.5v-.765h.538c.282 0 .496-.01.686-.144.176-.126.262-.318.262-.587 0-.276-.108-.49-.312-.62zm-1.174.318h.514c.305 0 .419.082.419.303 0 .207-.125.303-.392.303h-.54v-.606zm2.734-.473c-.748 0-1.112.371-1.112 1.136 0 .806.353 1.182 1.112 1.182.759 0 1.112-.369 1.112-1.16 0-.79-.353-1.158-1.112-1.158zm0 1.9c-.393 0-.569-.235-.569-.76 0-.488.186-.725.569-.725.39 0 .571.236.571.743 0 .506-.181.742-.571.742zm-8.066-1.766a.206.206 0 0 0-.17-.092h-.497v2.23h.503v-1.598l.845 1.502a.206.206 0 0 0 .161.096h.46v-2.23h-.5v1.516l-.802-1.424zm10.116 0a.206.206 0 0 0-.17-.092h-.497v2.23h.503v-1.598l.845 1.502a.206.206 0 0 0 .161.096h.46v-2.23h-.5v1.516l-.802-1.424zm-7.885.056a.148.148 0 0 0-.147-.148h-.375v2.23h.522v-2.081zm11.676.767h-.587c-.182 0-.27-.071-.27-.218 0-.186.1-.266.334-.266h1.135v-.43h-1.202c-.546 0-.789.212-.789.69 0 .449.231.649.749.649h.52c.226 0 .306.06.306.233 0 .167-.088.227-.336.227h-1.15v.43h1.223c.536 0 .785-.215.785-.676 0-.454-.208-.639-.718-.639zm3.63 1.315h1.25v-.421h-1.137c-.351 0-.29-.14-.298-.497h1.435v-.421h-1.43c.022-.32-.022-.47.293-.47h1.137v-.42h-1.237c-.717 0-.757.366-.757 1.154 0 0-.01.694.169.884 0 0 .13.191.575.191zm2.204 0h1.25v-.421h-1.137c-.351 0-.29-.14-.298-.497h1.434v-.421h-1.43c.023-.32-.021-.47.294-.47h1.136v-.42h-1.236c-.718 0-.758.366-.758 1.154 0 0-.01.694.17.884 0 0 .13.191.575.191zm2.475-.402c-.181 0-.313-.023-.409-.137-.066-.078-.07-.197-.07-.383v-1.307h-.502v1.322c0 .297.033.492.204.673.205.218.435.235.737.235H32v-.404h-.765zm-7.343-1.825a.148.148 0 0 0-.142.121v.301h.718v1.805h.517v-1.805h.725v-.422h-1.818z" fill="#000"/></svg>