<svg width="36" height="36" fill="none" xmlns="http://www.w3.org/2000/svg"><path d="M18 0c2.837 0 5.52.656 7.907 1.825C31.884 4.753 36 10.895 36 18c0 9.942-8.058 18-18 18-9.94 0-18-8.057-18-18C0 8.06 8.06 0 18 0z" fill="#F2F4F7"/><path d="M11.233 15.34H8.524v4.384c0 .623-1.744 1.062-1.971-.297-.014-.085-.014-.325-.014-.438v-.24L4 19.143v.693c.052.735.464 1.31 1.177 1.63 1.793.806 5.8.467 6.056-1.502v-4.626zm3.813 4.47h-3.375c0 .975.709 1.98 3.985 1.98 3.275 0 4.466-.934 4.466-2.235 0-1.302-.879-1.698-2.793-1.952-1.914-.255-2.836-.17-2.836-.722 0-.551.836-.48.978-.48.142 0 .908-.057 1.177.622h3.12C19.655 15.113 16.691 15 15.67 15c-.539 0-4.013.07-4.013 2.192 0 1.599 2.082 1.68 2.666 1.783 1.276.226 2.808.226 2.808.82 0 .438-.596.537-1.007.537-.412 0-.894-.24-1.078-.523zM32 15.396h-2.682l-.95 3.182-1.334-3.182h-2.283l-1.1 3.24-1.21-3.24h-2.655l2.283 6.266h2.682l1.155-3.154 1.17 3.168h2.778L32 15.396z" fill="#00A291"/></svg>