<svg width="36" height="36" fill="none" xmlns="http://www.w3.org/2000/svg"><path d="M18 0c2.837 0 5.52.656 7.907 1.825C31.884 4.753 36 10.895 36 18c0 9.942-8.058 18-18 18-9.94 0-18-8.057-18-18C0 8.06 8.06 0 18 0z" fill="#F2F4F7"/><path d="m32 16.558-5.05-3.688-1.304 1.002-2.732-2.102 1.402-1.077L19.271 7l-1.276.979L16.735 7l-5.054 3.693 1.403 1.077-2.728 2.102-1.304-1.002L4 16.558l1.439 1.108L4 18.776l5.052 3.69 1.304-1.008 2.728 2.104-1.403 1.084 5.053 3.688 1.261-.979 1.276.979 5.045-3.688-1.402-1.084 2.73-2.104 1.304 1.008 5.05-3.69-1.437-1.11L32 16.558zm-14 3.21-2.72-2.102L18 15.561l2.73 2.105L18 19.77z" fill="#A1D2EA"/></svg>