<svg width="36" height="36" fill="none" xmlns="http://www.w3.org/2000/svg"><path d="M18 0c2.837 0 5.52.656 7.907 1.825C31.884 4.753 36 10.895 36 18c0 9.942-8.058 18-18 18-9.94 0-18-8.057-18-18C0 8.06 8.06 0 18 0z" fill="#F2F4F7"/><path d="m31.998 17.544-5.091-3.818-1.273.956-2.545-1.91 1.273-.954L19.272 8 18 8.954 16.727 8l-5.091 3.818 1.27.954-2.546 1.91-1.27-.956L4 17.544l1.273.956L4 19.453l5.091 3.818 1.271-.954 2.547 1.908-1.271.954 5.09 3.818 1.274-.954 1.271.954 5.091-3.818-1.273-.954 2.545-1.908 1.273.954L32 19.453l-1.273-.953 1.271-.956zm-16.545.956L18 16.59l2.547 1.91L18 20.407 15.453 18.5z" fill="#2E008B"/></svg>