<svg width="36" height="36" fill="none" xmlns="http://www.w3.org/2000/svg"><path d="M18 0c2.837 0 5.52.656 7.907 1.825C31.884 4.753 36 10.895 36 18c0 9.942-8.058 18-18 18-9.94 0-18-8.057-18-18C0 8.06 8.06 0 18 0z" fill="#F2F4F7"/><path d="M20.864 12.657v16.968a11.997 11.997 0 0 0 2.38-.862V9.343c-.249.116-.75.35-1.144.664-.814.648-1.236 1.473-1.236 2.65zm-6.96-2.652c-.394-.314-.894-.547-1.144-.663v19.422c.753.367 1.55.658 2.38.861v-16.97c0-1.175-.421-2-1.236-2.65z" fill="#D91920"/><path d="M22.743 7.007A11.924 11.924 0 0 0 18 6.03c-1.677 0-3.273.346-4.721.969-.226.117-.533.34-.533.696 0 .634.88.5 1.98 1.377 1.02.812 1.546 1.953 1.546 3.232v17.542a12.146 12.146 0 0 0 3.46 0V12.304c0-1.28.527-2.421 1.545-3.233 1.102-.876 1.98-.743 1.98-1.377 0-.346-.291-.568-.514-.687z" fill="#D91920"/><path d="M18 4C10.268 4 4 10.268 4 18c0 7.733 6.268 14 14 14 7.733 0 14-6.267 14-14 0-7.732-6.267-14-14-14zm0 26.84c-7.09 0-12.84-5.749-12.84-12.84 0-7.09 5.749-12.84 12.84-12.84S30.84 10.91 30.84 18c0 7.091-5.749 12.84-12.84 12.84z" fill="#D91920"/><path d="M6.03 18a11.96 11.96 0 0 0 5.56 10.11v-9.168c-1.362.035-1.862.86-2.015 1.181-.124.264-.205.54-.441.54-.395 0-.716-1.142-.716-2.552 0-1.41.32-2.554.716-2.554.236 0 .317.278.441.54.153.321.653 1.147 2.016 1.182v-9.39A11.96 11.96 0 0 0 6.03 18zm21.984 2.124c-.124.263-.205.54-.44.54-.397 0-.717-1.143-.717-2.553s.32-2.553.716-2.553c.236 0 .317.278.44.54.15.315.633 1.113 1.935 1.178a11.963 11.963 0 0 0-5.535-9.384V28.11a11.963 11.963 0 0 0 5.52-9.162c-1.29.07-1.77.864-1.92 1.177z" fill="#D91920"/></svg>