<svg width="36" height="36" fill="none" xmlns="http://www.w3.org/2000/svg"><path d="M18 0c2.837 0 5.52.656 7.907 1.825C31.884 4.753 36 10.895 36 18c0 9.942-8.058 18-18 18-9.94 0-18-8.057-18-18C0 8.06 8.06 0 18 0z" fill="#F2F4F7"/><path d="M28.228 16.47h2.907v.541h-2.907v-.541zm0 1.377v-.415h3.514v-1.388h-4.14v2.77c0 .83-.16 1.19-.427 1.435v.525c.608-.224 1.053-.872 1.053-1.895v-.596h3.135v1.588c0 .32-.214.484-.51.484H30.5v.398h.588c.604 0 .911-.353.911-.881v-2.025h-3.772z" fill="#C40F39"/><path d="M30.273 19.62h-1.08v-.557h1.08v.556zm.608-.962h-2.295v1.366h2.295v-1.366zm-7.808-2.795h-.621c-.12 1.157-.44 1.88-.835 2.237v.516a2.19 2.19 0 0 0 .575-.416v2.573h.589v-3.56c.132-.37.228-.816.293-1.35zm.745 2.385h.753v.57h-.753v-.57zm0-.97h.753v.57h-.753v-.57zm1.35 0h.76v.57h-.76v-.57zm.76 1.539h-.759v-.57h.76v.57zm.772 1.329c-.754-.007-1.363-.08-1.84-.208a1.47 1.47 0 0 0 .286-.706h1.35v-2.369h-1.328v-.441h1.418v-.423h-3.34v.423h1.324v.441h-1.32v2.37h1.292a1.09 1.09 0 0 1-.25.5 1.755 1.755 0 0 1-.515-.36h-.45c.153.249.356.464.608.644a2.66 2.66 0 0 1-.885.288v.42c.56-.094 1.03-.216 1.386-.425.584.259 1.34.391 2.263.391v-.545zm-8.714-2.808h.343v.607h-.343v-.607zm.343 1.694h-.343v-.657h.343v.657zm-.911 0h-.354v-.657h.354v.657zm-.354-1.694h.354v.607h-.354v-.607zm2.085-1.403h-.855c-.253.196-.64.25-1.86.25v.394c.385 0 .709-.004.984-.014v.367h-1.066v.406h.219v.607h-.302v.43h.302v.657h-.22v.406h1.067v.54c-.352.027-.711.05-1.07.063v.563a23.3 23.3 0 0 0 2.713-.368V19.8c-.338.046-.7.089-1.075.126v-.487h1.058v-.405h-.22v-.658h.291v-.43h-.292v-.607h.22v-.406h-1.057v-.406c.663-.074.924-.24 1.163-.591zm1.471 2.031c.485-1.143.492-1.243.492-1.483v-.435h-1.865v4.724h.568v-4.289h.697c-.013.25-.049.426-.412 1.5.392.571.476.821.476 1.155 0 .315-.063.514-.366.514h-.154v.571h.187c.687 0 .913-.283.913-.984 0-.438-.175-.852-.535-1.273zm-8.169-1.614c-.059.417-.388.607-.97.606h-.773l.26-1.24h.788c.589 0 .742.296.695.634zM12.087 15H9.995l-.624 3.006c-.215 1.04-.876 1.312-1.677 1.312-.727 0-1.417-.382-1.239-1.312l.088-.45h.942l-.098.45c-.067.319.072.52.428.52.355 0 .537-.19.603-.52L9.043 15H6.847c-1.178 0-1.533.294-1.745 1.324l-.705 3.385h4.25c1.047 0 1.616-.6 1.765-1.325l.145-.697h1.037c1.05 0 1.681-.44 1.83-1.335.138-.834-.465-1.352-1.337-1.352zm-7.64 5.979h.085c.124 0 .238-.044.237-.184-.001-.115-.08-.137-.164-.137h-.093l-.065.32zm-.2-.545h.314c.259 0 .52.027.523.324.002.295-.238.445-.522.445H4.4l-.085.413H4l.246-1.182zm2.883.212c-.245 0-.344.284-.343.484.001.148.058.272.223.272.243 0 .343-.283.342-.48-.002-.15-.058-.276-.222-.276zm-.139.99c-.384 0-.528-.24-.528-.482-.004-.448.23-.74.685-.74.384 0 .526.238.528.481.003.448-.23.741-.685.741zm3.066-.935a.611.611 0 0 0-.261-.054c-.125 0-.226.018-.226.113.001.168.46.106.462.465.001.326-.3.412-.575.412-.122 0-.263-.03-.366-.062l.073-.24c.063.04.188.067.292.067.098 0 .252-.019.251-.14 0-.19-.46-.12-.462-.453-.002-.304.265-.395.524-.395a.95.95 0 0 1 .363.053l-.075.234zm1.877-.034h-.392l.049-.233h1.061l-.048.233h-.35l-.195.949h-.32l.195-.949z" fill="#C40F39"/></svg>