<svg width="36" height="36" fill="none" xmlns="http://www.w3.org/2000/svg"><path d="M18 0c2.837 0 5.52.656 7.907 1.825C31.884 4.753 36 10.895 36 18c0 9.942-8.058 18-18 18-9.94 0-18-8.057-18-18C0 8.06 8.06 0 18 0z" fill="#F2F4F7"/><path d="M28.932 14a5.444 5.444 0 0 1-.614 1.388c-.004-.124-.003-.247-.003-.371l-.408-.001c.005-.313.003-.625.003-.938a38.898 38.898 0 0 0-.43-.023c.005.32.001.64.003.96l-.229.001a15.2 15.2 0 0 0 .046-.52 9.589 9.589 0 0 0-.412-.026c-.04.614-.108 1.229-.24 1.83l.41.077c.062-.295.105-.592.141-.89l.284.001c-.016.346.03.701-.022 1.04-.268.12-.547.215-.823.315l.127.485c.235-.107.475-.201.715-.296.006.516 0 1.033.003 1.549l.427-.001c0-.574.001-1.149-.001-1.723.169-.07.338-.14.508-.207a7.996 7.996 0 0 1-.031-.463c-.166.037-.32.11-.478.17.003-.29.002-.58 0-.87h.352a36.75 36.75 0 0 1-.175.247l.353.302c.168-.244.323-.497.455-.763.112-.003.225-.003.338-.002-.16.788-.605 1.498-1.214 2.02.098.125.196.25.299.372.343-.347.667-.72.893-1.156.208-.386.333-.81.423-1.238l.313.002a6.87 6.87 0 0 1-.238.998c-.232.746-.702 1.4-1.291 1.906.1.119.2.238.299.36.297-.258.562-.553.79-.872.505-.698.703-1.555.832-2.392l.214-.002c-.024.778-.082 1.554-.113 2.332-.006.144-.07.307-.224.345-.22.06-.452.047-.677.073.05.153.098.306.142.46.295-.028.607-.007.884-.128.223-.097.3-.355.309-.579.061-.987.069-1.977.128-2.964-.626 0-1.253-.003-1.88 0 .088-.226.177-.452.255-.682a16.53 16.53 0 0 0-.443-.126zm-14.792.052c-.454.214-.927.39-1.404.544-.526-.155-1.04-.357-1.567-.511-.048.137-.095.275-.139.414.329.103.656.209.98.323-.378.14-.772.233-1.164.328l.104.414a19.53 19.53 0 0 0 1.786-.493c.563.199 1.125.4 1.684.61l.127-.432c-.364-.142-.735-.269-1.103-.402l.002-.026c.299-.114.598-.228.889-.361l-.195-.408zm-6.465.015c-.173.03-.345.056-.519.083l.102.303H5.52c-.015.803.03 1.608-.032 2.409-.036.513-.234.996-.488 1.438.142.082.282.167.423.251.156-.282.3-.572.39-.882.259-.902.145-1.851.174-2.776 1.133.003 2.266.001 3.4 0v-.44H7.815c-.045-.13-.091-.258-.14-.386zm15.697 0v.937l-.857.001c.065-.216.145-.429.191-.65-.163-.032-.324-.072-.486-.11a5.593 5.593 0 0 1-.86 1.905c.147.083.291.172.431.266.207-.29.374-.606.524-.928.352-.003.704 0 1.056-.002.003.296.001.591.001.887h-1.465v.48h1.465v1.065h-1.944v.49c1.434 0 2.87.004 4.304-.003a37.647 37.647 0 0 1 0-.487c-.617.001-1.232-.002-1.848.003-.006-.356-.003-.712-.002-1.068h1.443a27.874 27.874 0 0 1 0-.476c-.48-.008-.962-.002-1.444-.004-.002-.293.004-.587-.004-.88.538-.015 1.076-.002 1.614-.007l.001-.482h-1.61c-.002-.307 0-.614 0-.92l-.51-.016zm-6.91.001c-.114.098-.225.2-.335.302.244.285.478.579.69.888.118-.125.233-.253.351-.38a7.67 7.67 0 0 0-.706-.81zm2.711.034c0 .152.001.304.004.456-.264.01-.527-.002-.79.006-.004-.15-.005-.3-.003-.451a35.53 35.53 0 0 0-.474-.01l.002.457h-.597c-.002.156-.002.311-.002.466h.598v.36l.387.004c-.035.106-.072.211-.11.316-.328.002-.657-.003-.985.004.003.158.003.316.003.474.251 0 .502-.004.753.003a3.27 3.27 0 0 1-.842.852c.084.15.174.298.264.446l.29-.247c.004.44.002.88.001 1.32l.488-.001v-.241c.438.002.876 0 1.314 0v.241l.482.001c-.002-.632.007-1.264-.004-1.896-.576.007-1.152 0-1.728.004a3.43 3.43 0 0 0 .3-.482c.59 0 1.182-.002 1.773.001.003-.159.003-.318.004-.478-.526-.002-1.052 0-1.578-.001.037-.112.074-.225.107-.339-.148-.035-.296-.071-.445-.105a36.928 36.928 0 0 1-.002-.236h.79v.36h.464l-.002-.36h.726l-.002-.462c-.241-.005-.482-.002-.724-.004l.001-.447-.463-.011zm-11.766.809.006.285c-.38.036-.763.011-1.144.015-.003.12-.004.24-.004.36.38.003.761 0 1.142.002l.006.249c-.455.016-.91.002-1.364.007v.354h1.36l-.001.264c-.396.002-.793-.001-1.19.002a30.35 30.35 0 0 0-.003.313l.067.08-.191.195c.2.171.399.345.596.52a44.4 44.4 0 0 1-.951.494c.061.127.136.248.215.364.48-.27.966-.53 1.458-.78-.009.142.029.3-.044.43-.193.098-.422.045-.629.088.05.131.096.263.135.398.297-.016.663.03.896-.189.153-.298.043-.655.077-.978.397.509.954.86 1.542 1.109.067-.135.13-.27.194-.406a4.67 4.67 0 0 1-.954-.506c.205-.168.433-.305.633-.48a9.818 9.818 0 0 1-.194-.251c.024-.221.013-.444.013-.666.137 0 .273 0 .41-.002v-.352l-.409-.002v-.615c-.412-.002-.824.006-1.236-.004l-.001-.276a15.83 15.83 0 0 1-.435-.022zm4.77.412c-.076.13-.14.264-.218.392h-1.347v.428c.348.001.696-.003 1.043.002-.35.432-.784.79-1.246 1.096.076.144.154.288.238.427.19-.146.38-.293.565-.446 0 .363.004.726-.003 1.089.167.006.335.006.503.004-.003-.4 0-.798-.002-1.197h.863c0 .48-.006.96.002 1.44h.489c.005-.48.002-.96.001-1.44h.926c-.007.218.017.438-.018.654-.12.15-.344.1-.513.137.054.145.106.29.159.436.224-.043.467-.032.672-.143.149-.087.17-.276.17-.432v-1.09c-.465 0-.93.002-1.395 0v-.36l-.495-.023.001.383c-.264 0-.528.004-.792-.002.12-.139.241-.276.352-.423.046-.051.086-.135.171-.113h2.611c-.001-.141 0-.283.002-.425-.807-.008-1.615.004-2.422-.006.05-.095.098-.191.144-.288-.153-.03-.306-.107-.461-.1zm-4.334.25h.8v.256h-.8v-.257zm8.113.001c-.003.167-.003.332-.002.5l.48-.001v1.804c.014.121-.06.22-.132.308.106.127.212.255.32.381.25-.258.515-.501.783-.742a10.133 10.133 0 0 1-.203-.44 2.917 2.917 0 0 0-.274.226c-.01-.679 0-1.357-.005-2.035h-.967zm-7.714.61h.4v.264c-.266-.001-.532 0-.798 0a44.146 44.146 0 0 1-.002-.264h.4zm-1.326.617h.491l.005.408c-.24.033-.424.215-.647.298.06-.082.123-.162.187-.242-.173-.158-.357-.301-.526-.462.163-.002.327-.002.49-.002zm1.526 0c.17 0 .34 0 .51.002-.212.174-.44.324-.661.484a1.874 1.874 0 0 1-.358-.485l.51-.001zm9.718.318 1.315.001v.743c-.44-.003-.881.009-1.321-.007.01-.245.004-.49.006-.737z" fill="#0056B8"/><path d="M16.808 18.905a.2.2 0 0 0-.2.201v.08a.2.2 0 0 0 .2.201h.1a.2.2 0 0 0 .2-.2v-.081a.2.2 0 0 0-.2-.2h-.1zm-1.867.174c-.165 0-.33.016-.49.049-.304.06-.576.296-.621.611-.034.292-.046.646.192.862.372.309.904.257 1.305.506.215.143.203.438.161.662-.056.225-.293.33-.505.35a3.413 3.413 0 0 1-1.221-.128l.001.39c.412.106.841.144 1.265.109.275-.03.57-.125.74-.356.17-.227.18-.526.15-.797a.718.718 0 0 0-.294-.53c-.332-.229-.752-.239-1.116-.387-.433-.134-.362-.908.097-.947a2.693 2.693 0 0 1 1.147.107l.003-.384a2.894 2.894 0 0 0-.814-.117zm14.687.001a3.03 3.03 0 0 0-.63.064 1.006 1.006 0 0 0-.661.496c-.225.424-.222.919-.212 1.385.019.395.082.826.36 1.128.283.309.732.36 1.128.349.41.007.876-.102 1.111-.47.296-.471.275-1.058.255-1.593-.03-.438-.156-.941-.565-1.175a1.711 1.711 0 0 0-.786-.184zm-23.033.001a2.838 2.838 0 0 0-.561.06c-.4.084-.747.377-.88.766-.18.52-.172 1.092-.06 1.625.081.397.354.768.756.881a2.495 2.495 0 0 0 1.488-.044V22c-.414.13-.869.179-1.29.057-.274-.078-.457-.332-.515-.6a3.074 3.074 0 0 1-.022-1.208c.054-.32.258-.63.582-.725a2.108 2.108 0 0 1 1.215.046c0-.13 0-.258.003-.387a2.396 2.396 0 0 0-.716-.1zm17.921.051c-.204 0-.408.003-.612.002.004 1.106.002 2.213.001 3.32.427-.003.855.008 1.282-.007.313-.018.679-.125.816-.436.118-.287.134-.627.014-.915-.091-.215-.32-.302-.523-.375.16-.061.325-.148.404-.31.13-.266.111-.59.007-.862-.13-.298-.482-.389-.777-.408a14.87 14.87 0 0 0-.612-.009zm2.378.002v3.32h.43v-3.32h-.43zm2.715.305c.22.003.437.05.616.18.269.223.303.602.322.926 0 .406.035.84-.147 1.215-.124.252-.412.365-.678.375-.317.018-.691.01-.918-.245-.221-.268-.227-.64-.237-.97 0-.357-.014-.734.14-1.067a.7.7 0 0 1 .512-.382c.125-.02.258-.034.39-.032zm-4.948.05c.182-.001.364.002.544.035.147.028.297.12.333.275.062.236.05.565-.2.688-.314.142-.67.091-1.004.103a201.3 201.3 0 0 0 0-1.1c.108.002.218 0 .327-.001zm-2.664.332c-.18 0-.36.025-.532.064a.853.853 0 0 0-.527.417c-.178.335-.178.728-.16 1.098.02.32.109.67.37.88.292.23.685.236 1.04.215.303-.021.625-.147.783-.421.203-.347.205-.768.186-1.158-.024-.362-.145-.772-.49-.952a1.503 1.503 0 0 0-.67-.143zm-12.937.002c-.21-.003-.423.02-.628.038l-.001.354c.335-.04.702-.125 1.019.037.229.132.204.428.207.654-.458.034-.934-.059-1.377.094-.607.197-.628 1.245-.009 1.439.474.149 1.06.056 1.382-.35l.06.367.345-.003c-.005-.637.003-1.273-.004-1.91-.002-.253-.14-.51-.381-.609a1.636 1.636 0 0 0-.613-.11zm3.136.002a2.89 2.89 0 0 0-.204.01.8.8 0 0 0-.632.392 12.687 12.687 0 0 0-.01-.356l-.405.001c.002.86.002 1.721 0 2.581l.405.002c.014-.547.004-1.095.006-1.642-.01-.287.225-.55.503-.602.182-.032.382-.05.557.024.178.081.226.296.228.473.002.582.001 1.164 0 1.745l.41.001c-.003-.618 0-1.236-.002-1.854.004-.233-.07-.492-.27-.63-.173-.117-.38-.146-.586-.145zm6.993.002a2.89 2.89 0 0 0-.204.01.8.8 0 0 0-.632.391 13.093 13.093 0 0 0-.01-.355l-.405.001v2.581c.135 0 .27 0 .405.002.014-.548.003-1.095.006-1.643-.01-.286.225-.55.503-.601.182-.032.381-.051.557.024.177.08.226.296.228.473v1.745h.41c-.003-.618 0-1.236-.002-1.854.004-.232-.07-.49-.27-.629-.173-.117-.38-.147-.586-.145zm-2.543.046v2.581h.41v-2.581h-.41zm5.349.283a.912.912 0 0 1 .464.12c.264.197.266.564.275.862-.008.301.008.668-.238.887-.248.177-.586.158-.87.093-.289-.078-.395-.4-.41-.667-.008-.303-.034-.617.065-.909a.508.508 0 0 1 .34-.337c.119-.031.247-.05.374-.049zm2.76.77c.235-.003.47.007.684.11.255.13.26.467.204.711-.04.215-.266.309-.46.326a6.349 6.349 0 0 1-.85.018 225.7 225.7 0 0 0 0-1.163c.138.005.28 0 .421-.003zm-15.67.306c.19.001.379.01.567.003-.013.192.054.415-.085.576-.187.258-.522.36-.83.358-.17-.004-.378-.047-.454-.222-.096-.235-.044-.602.24-.673.186-.036.374-.043.562-.042z" fill="#717071"/></svg>