<svg width="36" height="36" fill="none" xmlns="http://www.w3.org/2000/svg"><path d="M18 0c2.837 0 5.52.656 7.907 1.825C31.884 4.753 36 10.895 36 18c0 9.942-8.058 18-18 18-9.94 0-18-8.057-18-18C0 8.06 8.06 0 18 0z" fill="#F2F4F7"/><path d="M9.862 18H6.929l-.923 2.84h2.93L9.861 18zM7.85 15.163H4.924L4 18h2.929l.922-2.837zm1.636 1.476c0-.907.734-1.639 1.641-1.639a1.643 1.643 0 1 1-1.641 1.639zm5.45.677h-1.32l.156-.455h3.132l-.152.455h-1.296l-1.182 3.531h-.529l1.19-3.53zm13.113 0h-1.31l.154-.455h3.135l-.154.455h-1.297l-1.18 3.531h-.529l1.18-3.53zm-9.514-.125c.904-.005 1.025.799.776 1.646-.198.677-.723 1.659-1.646 1.616-.995-.043-.927-1.017-.752-1.616.19-.66.65-1.64 1.622-1.646zm.077-.43c-1.4-.003-2.008 1.288-2.194 2.065-.245 1.016-.04 2.008 1.202 2.068 1.089.052 1.842-.744 2.204-2.046.275-1.006.014-2.085-1.212-2.088zm6.494.43c.897-.005 1.019.799.768 1.646-.2.677-.713 1.659-1.646 1.616-.993-.043-.925-1.017-.752-1.616.193-.66.65-1.64 1.63-1.646zm.079-.43c-1.408-.003-2.018 1.288-2.202 2.065-.236 1.016-.042 2.008 1.2 2.068 1.098.052 1.843-.744 2.203-2.046.279-1.006.015-2.085-1.201-2.088zm-4.491.099.54 1.912 1.617-1.911h.655l-2.149 2.51-.485 1.476h-.529l.526-1.557-.704-2.43h.53zm10.489 0-2.79 3.985h.558l.656-.94h1.775l.085.94H32l-.415-3.984h-.402zm-.004.794.165 1.813h-1.43l1.265-1.813z" fill="#0950A0"/></svg>