<svg width="36" height="36" fill="none" xmlns="http://www.w3.org/2000/svg"><path d="M18 0c2.837 0 5.52.656 7.907 1.825C31.884 4.753 36 10.895 36 18c0 9.942-8.058 18-18 18-9.94 0-18-8.057-18-18C0 8.06 8.06 0 18 0z" fill="#F2F4F7"/><path d="M4 18.463C4 16.005 6 14 8.466 14c1.342 0 2.547.606 3.366 1.539H8.97c-.354 0-.744.244-.929.436a214.97 214.97 0 0 1-2.227 2.219c-.236.221-.405.27-.715.27H4zm1.961 1.277c.31 0 .48-.034.715-.255.236-.222 2.035-2.014 2.227-2.22.18-.195.575-.442.929-.442h2.79a4.5 4.5 0 0 0-.483-.894h-2.13c-.31 0-.594.16-.762.324a332.27 332.27 0 0 0-2.202 2.2s-.317.404-.944.404H4.017c.027.309.087.597.174.884h1.77zm.958 1.297c.31 0 .48-.047.716-.27a159.96 159.96 0 0 0 2.227-2.264c.181-.193.575-.434.929-.434h2.128a4.033 4.033 0 0 0-.167-.862l-1.777-.001c-.31 0-.61.165-.782.325-.199.183-2.01 2.008-2.197 2.189 0 0-.303.406-.93.406H4.323c.13.324.3.628.5.91H6.92zm-1.787.387a4.47 4.47 0 0 0 3.334 1.5c2.452 0 4.441-2.025 4.465-4.463l-1.094-.001c-.31 0-.619.154-.78.324a453.78 453.78 0 0 1-2.18 2.234s-.33.406-.958.406H5.132zm13.873-2.433c-.165-.274-.375-.697-1.32-.937a62.004 62.004 0 0 0-1.652-.406c-.265-.059-.693-.199-.693-.77 0-.524.52-.8 1.07-.8.53 0 1.228.225 1.338 1.046h1.257v1.867zm6.604-3.795h-2.114l-1.19 4.593-1.189-4.593h-2.114l.001 1.477c-.644-1.708-2.066-1.775-2.498-1.775-1.848 0-2.512 1.155-2.512 2.005 0 1.367 1.13 1.785 1.44 1.863.266.068 1.606.388 1.869.467.324.099.58.379.58.728 0 .33-.256.88-1.23.88-.973 0-1.435-.531-1.514-1.17h-1.307s-.05 2.36 2.9 2.36c1.261 0 1.923-.527 2.273-1.084l-.002.838h1.317l-.052-4.946 1.37 4.946h1.337l1.37-4.946-.053 4.946h1.318V20.56c.3.61.997 1.476 2.5 1.476 1.696 0 2.538-1.053 2.684-2.375H29.53c-.09.644-.666 1.16-1.413 1.16-.206 0-1.686-.113-1.686-2.369 0-1.553.797-2.438 1.681-2.438.28 0 1.214.118 1.342 1.225h1.253c-.098-1.588-1.4-2.347-2.595-2.347-1.405 0-2.187.736-2.502 1.339v-1.035zm6.007 6.623-.199-.35h-.167v.35h-.074v-.805h.224c.145 0 .252.073.252.22 0 .138-.076.204-.159.224l.212.36h-.089zm-.227-.74h-.14v.328h.141c.11 0 .186-.057.186-.173 0-.103-.085-.154-.188-.154zm-.016.98a.624.624 0 0 0 .627-.626.623.623 0 0 0-.627-.627.627.627 0 0 0 0 1.253zm-.552-.626a.549.549 0 0 1 .553-.553.55.55 0 0 1 .553.553.554.554 0 0 1-1.106 0z" fill="#0066B3"/></svg>