<svg width="36" height="36" fill="none" xmlns="http://www.w3.org/2000/svg"><path d="M18 0c2.837 0 5.52.656 7.907 1.825C31.884 4.753 36 10.895 36 18c0 9.942-8.058 18-18 18-9.94 0-18-8.057-18-18C0 8.06 8.06 0 18 0z" fill="#F2F4F7"/><path d="M28.35 16.245h1.592v2.37s0 .318.232.318c.234 0 .195-.31.195-.31v-2.37H32v2.569s0 1.53-1.802 1.53-1.84-1.3-1.849-1.475v-2.632zm-7.18 1.467v-1.459h2.502V15h1.523v1.554s.621-.484 1.36-.428c.737.056 1.335.372 1.382.46l-.42 1.031s-.737-.38-.947-.326c-.21.056-.257.136-.156.254.102.12.599.167.723.238.124.072.691.214.792.944.102.729-.411 1.427-1.095 1.53-.684.103-1.585.103-2.3-.452l.428-1.054s.606.356.916.388c.31.031.443.04.482-.103.039-.143-.21-.23-.38-.262-.171-.032-.894-.214-1.065-.658-.17-.443-.225-.975.241-1.537h-1.438v3.638h-1.631v-2.505h-.917zm-8.212-1.483h1.483l.467 1.483.49-1.475h1.484l.559 3.623 1.243-3.623h1.585l1.32 3.956h-1.646l-.474-1.847-.459 1.863h-3.014l-.234-1.435-.403 1.42h-.918l-.403-1.428-.225 1.427h-1.476l.621-3.964zm-2.758-.182c-1.159 0-2.098.95-2.098 2.125 0 1.173.94 2.124 2.098 2.124s2.098-.95 2.098-2.124c0-1.174-.94-2.125-2.098-2.125zm-.016 2.68a.553.553 0 0 1-.551-.555.552.552 0 1 1 1.104 0 .554.554 0 0 1-.553.555zM4 16.19h1.639v1.847l.816-1.847h1.85l-.894 1.926.947 2.03H6.502l-.863-1.919v1.919H4V16.19z" fill="#283D99"/></svg>