<svg width="36" height="36" fill="none" xmlns="http://www.w3.org/2000/svg"><path d="M18 0c2.837 0 5.52.656 7.907 1.825C31.884 4.753 36 10.895 36 18c0 9.942-8.058 18-18 18-9.94 0-18-8.057-18-18C0 8.06 8.06 0 18 0z" fill="#F2F4F7"/><path d="m18 20.345-2.476-2 2.477-2.002 2.476 2.002-2.476 2zm14-3.08-5.105-4.125-1.271 1.028-2.48-2.002 1.273-1.027L19.295 7l-1.294 1.044L16.707 7l-5.103 4.123 1.361 1.101-2.477 2-1.362-1.1L4 17.264l1.337 1.08L4 19.425l5.2 4.2 1.23-.993 2.478 2-1.23.994 5.03 4.064L18 28.643l1.294 1.046 5.063-4.09-1.265-1.019 2.479-2.002 1.263 1.02L32 19.423l-1.336-1.08" fill="#0071BE"/></svg>