<svg width="36" height="36" fill="none" xmlns="http://www.w3.org/2000/svg"><defs><linearGradient id="a" x1="6.581" y1="20.426" x2="28.676" y2="20.426" gradientUnits="userSpaceOnUse"><stop stop-color="#00AEEB"/><stop offset=".203" stop-color="#4F3A92"/><stop offset=".401" stop-color="#E64290"/><stop offset=".595" stop-color="#E7373C"/><stop offset=".787" stop-color="#FFF23F"/><stop offset="1" stop-color="#40B15D"/></linearGradient><linearGradient id="b" x1="5.869" y1="15.262" x2="30.398" y2="20.548" gradientUnits="userSpaceOnUse"><stop stop-color="#00AEEB"/><stop offset=".203" stop-color="#4F3A92"/><stop offset=".401" stop-color="#E64290"/><stop offset=".595" stop-color="#E7373C"/><stop offset=".787" stop-color="#FFF23F"/><stop offset="1" stop-color="#40B15D"/></linearGradient></defs><path d="M18 0c2.837 0 5.52.656 7.907 1.825C31.884 4.753 36 10.895 36 18c0 9.942-8.058 18-18 18-9.94 0-18-8.057-18-18C0 8.06 8.06 0 18 0z" fill="#F2F4F7"/><path d="M17.66 20.052H6.636l-.324.747H28.36l.324-.747H17.659z" fill="url(#a)"/><path d="m31.032 16.591-.634 2.09-.667-2.09h-1.015l.145.358h-.001c-.144-.261-.419-.443-.798-.443-.67 0-.917.499-.917.499h-.002c-.104-.273-.402-.5-.827-.5-.67 0-.917.5-.917.5-.105-.273-.403-.5-.828-.5-.67 0-.917.5-.917.5-.103-.26-.388-.5-.832-.5a.99.99 0 0 0-.851.488v-.402h-.94V19.3c-.064-.029-.235-.15-.235-.62v-1.132c0-.74-.532-1.03-1.303-1.03-.761 0-1.236.299-1.314.905h.912s.04-.283.376-.283c.21 0 .328.09.328.252 0 .163-.067.218-.266.281-.183.059-.596.078-.973.188-.19.056-.328.139-.419.271-.041-.196-.145-.365-.372-.52-.322-.216-.875-.317-1.285-.404-.41-.086-.432-.214-.432-.303s.096-.265.456-.265c.458 0 .493.307.493.307h.997c-.033-.48-.41-.946-1.458-.946-1.26 0-1.472.651-1.472.994 0 .341.146.559.41.731.265.173.917.31 1.28.393.363.083.386.244.386.34 0 .094-.089.3-.538.3-.589 0-.63-.399-.63-.399h-.897l-.717-1.846h-1.287l-.708 1.828v-.72h-1.454v.587h.676c0 .246-.105.56-.622.56-.413 0-.714-.33-.714-.826 0-.495.317-.82.73-.82.414 0 .521.216.521.216h.838c-.078-.419-.522-.899-1.367-.899-.624 0-1.1.273-1.368.689v-.61H7.246v1.462c-.11-.243-.32-.382-.544-.476-.294-.125-.864-.236-1.209-.305-.345-.07-.406-.183-.406-.287 0-.107.105-.269.49-.269.464 0 .528.302.528.302h.965c-.027-.47-.39-.946-1.493-.946-1.34 0-1.517.704-1.517.995 0 .29.12.566.476.755.341.18 1 .294 1.316.37.316.076.412.175.412.326 0 .135-.147.312-.637.312-.58 0-.645-.392-.645-.392H4c.02.512.448 1.075 1.643 1.075.9 0 1.428-.34 1.604-.728v.643H9.65v-.562c.238.384.674.646 1.316.646.559 0 .952-.237 1.151-.465l-.15.382h.954l.188-.535h1.203l.188.535h.934l-.148-.378c.199.245.642.461 1.315.461.822 0 1.229-.3 1.416-.599.085.4.51.585.883.585.448 0 .791-.131.966-.354 0 0 .06.157.161.285h1.978V17.68c0-.27.182-.44.393-.44.211 0 .407.128.407.44v1.678h.952V17.68c0-.27.183-.44.394-.44.21 0 .407.128.407.44v1.678h.944V17.68c0-.27.183-.44.394-.44.21 0 .407.128.407.44v1.678h.952V17.68c0-.27.182-.44.393-.44.212 0 .408.128.408.44v1.678h.936v-1.823c0-.14-.02-.266-.043-.35h.001l.945 2.443c.07.18.057.428-.296.428h-.353l-.32.738h.754c.34 0 .897-.006 1.194-.92L32 16.591h-.968zM9.59 18.706H8.171v-.498h1.027v-.587H8.17v-.464h1.42c-.127.22-.195.479-.195.758 0 .287.065.558.193.79zm3.734-.486.39-1.11.39 1.11h-.78zm6.474.123c0 .146-.094.48-.505.48-.232 0-.337-.135-.337-.254 0-.12.052-.234.22-.29.169-.055.411-.083.621-.192v.256z" fill="url(#b)"/></svg>