<svg width="36" height="36" fill="none" xmlns="http://www.w3.org/2000/svg"><path d="M18 0c2.837 0 5.52.656 7.907 1.825C31.884 4.753 36 10.895 36 18c0 9.942-8.058 18-18 18-9.94 0-18-8.057-18-18C0 8.06 8.06 0 18 0z" fill="#F2F4F7"/><path d="m7.41 17.803-.377 1.773h.658l.378-1.773H7.41zm.794-.649H7.55l-.094.443h.654l.093-.443zm1.376.602c-.256 0-.461.163-.587.317l-.09-.27h-.475l-.378 1.773h.64s.167-.789.21-.985c.041-.191.153-.34.326-.34.144 0 .205.097.168.28l-.224 1.045h.648l.229-1.069c.112-.532-.121-.751-.467-.751zm1.727 0c-.579 0-1.022.42-1.06 1.05-.032.564.327.835.854.835.49 0 .85-.247.948-.635h-.607c-.056.131-.182.192-.313.192-.177 0-.28-.094-.265-.369h1.208c.019-.07.028-.163.033-.22.037-.555-.262-.853-.798-.853zm.205.756h-.597c.07-.224.196-.332.364-.332.177 0 .266.112.233.332zm4.088-.756c-.58 0-1.022.42-1.06 1.05-.032.564.327.835.854.835.49 0 .85-.247.947-.635h-.606c-.056.131-.182.192-.313.192-.177 0-.28-.094-.266-.369h1.209c.018-.07.028-.163.032-.22.038-.555-.261-.853-.798-.853zm.205.756h-.598c.07-.224.196-.332.364-.332.178 0 .271.112.234.332zm15.019 1.064h.653l.378-1.773h-.653l-.378 1.773zm.513-2.422-.093.443h.658l.093-.443h-.658zm-10.582 0-.648 1.157h-.014l-.145-1.157h-.92l-.517 2.421h.634l.332-1.549h.018l.234 1.55h.196l.9-1.55h.019l-.327 1.55h.663l.513-2.422h-.938zm-14.515 0-.644 1.157h-.019l-.145-1.157h-.919L4 19.575h.635l.326-1.549h.019l.238 1.55h.196l.896-1.55h.023l-.331 1.55h.662l.518-2.422H6.24zm15.309 2.422h.657l.378-1.773h-.658l-.377 1.773zm.513-2.422-.094.443h.658l.094-.443h-.658zm1.353 1.073h.396l.09-.424h-.398l.075-.35h-.607l-.317 1.502c-.088.425.028.667.448.667.15 0 .313-.032.42-.079l.098-.467a.863.863 0 0 1-.22.033c-.125 0-.162-.065-.13-.196l.145-.686zm6.859-.476c-.252 0-.486.145-.63.317-.052-.219-.215-.317-.444-.317-.219 0-.41.121-.55.29l-.08-.243h-.475l-.378 1.773h.644l.242-1.134c.07-.112.163-.191.27-.191.145 0 .178.098.14.28l-.223 1.05h.611l.243-1.149c.07-.111.168-.181.28-.181.144 0 .196.098.158.28l-.224 1.05h.658l.229-1.074c.107-.532-.126-.751-.471-.751zm-3.402 1.036c-.037.182-.144.34-.326.34-.15 0-.206-.088-.168-.274l.224-1.05h-.64l-.228 1.078c-.108.494.06.741.443.741.233 0 .443-.116.602-.308l.084.262h.48l.378-1.773h-.639s-.168.779-.21.984zm-2.067-.616c.103 0 .178.042.178.126h.587c0-.415-.294-.541-.718-.541-.579 0-.835.331-.835.64 0 .246.098.4.47.475.253.051.346.084.346.187 0 .084-.074.13-.2.13-.112 0-.201-.051-.196-.158h-.593c-.023.424.275.606.76.606.477 0 .86-.22.86-.648 0-.341-.178-.444-.519-.523-.261-.06-.326-.08-.326-.173 0-.07.07-.12.186-.12zm-11.091-.42a.9.9 0 0 0-.513.177l.196-.928h-.634l-.546 2.57h.466l.173-.195c.126.154.29.243.546.243.508 0 .952-.439.952-1.195-.005-.434-.262-.672-.64-.672zm-.462 1.442c-.186 0-.303-.187-.233-.504.066-.303.248-.504.457-.504.16 0 .257.112.257.322-.005.387-.233.686-.48.686zm4.424-1.442c-.467 0-.807.2-.905.62h.606a.25.25 0 0 1 .243-.19c.135 0 .191.083.149.27a.55.55 0 0 1-.014.065h-.285c-.569 0-.844.173-.919.537-.07.336.14.574.495.574a.824.824 0 0 0 .588-.271l.07.224h.462l.219-1.031c.117-.504-.135-.798-.71-.798zm.004 1.134c-.037.126-.177.317-.35.317-.12 0-.177-.07-.163-.168.019-.126.121-.205.322-.205h.2l-.009.056z" fill="#0066B3"/></svg>