<svg width="36" height="36" fill="none" xmlns="http://www.w3.org/2000/svg"><path d="M18 0c2.837 0 5.52.656 7.907 1.825C31.884 4.753 36 10.895 36 18c0 9.942-8.058 18-18 18-9.94 0-18-8.057-18-18C0 8.06 8.06 0 18 0z" fill="#F2F4F7"/><path d="M13.101 16.995h1.828v.4h-1.365v.695h1.198v.377h-1.198v1.175h-.463v-2.647zm3.659 2.647h-.415v-.267h-.007a.642.642 0 0 1-.544.319c-.5 0-.715-.252-.715-.753v-1.215h.422v1.175c0 .337.137.46.367.46.351 0 .47-.226.47-.523v-1.112h.422v1.916zm.446-1.917h.422v2.087c0 .382-.152.597-.548.597a1.36 1.36 0 0 1-.19-.014v-.334c.049.008.097.012.146.015.155 0 .17-.093.17-.282v-2.07zm.422-.73v.4h-.422v-.4h.422zm.899.73v1.917h-.422v-1.917h.422zm0-.73v.4h-.422v-.4h.422zm1.483 0h1.904v.4h-1.441v.695h1.335v.377h-1.335v.775h1.468v.4H20.01v-2.647zm2.639 0h-.422v2.647h.422v-2.647zm.661 1.8c0 .3.164.567.516.567a.443.443 0 0 0 .466-.318h.401a.839.839 0 0 1-.867.652c-.6 0-.938-.419-.938-1.008 0-.545.356-1.012.926-1.012.604 0 .975.545.904 1.12h-1.407zm.987-.278a.492.492 0 1 0-.986 0h.986zm2.015-.147a.404.404 0 0 0-.437-.36c-.219 0-.526.115-.526.697 0 .318.14.655.508.655.244 0 .415-.163.456-.437h.422c-.078.497-.386.771-.878.771-.6 0-.93-.426-.93-.99 0-.578.314-1.03.945-1.03.444 0 .822.222.863.693h-.423m.528-.641h.32v-.575h.422v.575h.382v.315h-.382v1.022c0 .174.015.263.204.263.06.003.12-.002.178-.014v.325c-.093.008-.182.023-.275.023-.44 0-.522-.171-.53-.49v-1.13h-.318v-.315m3.122-.002v1.917h-.423v-1.917h.423zm0-.73v.4h-.423v-.4h.423zm1.615 1.375a.404.404 0 0 0-.437-.36c-.22 0-.527.115-.527.697 0 .318.14.655.508.655.244 0 .415-.163.456-.437H32c-.078.497-.385.771-.878.771-.6 0-.93-.426-.93-.99 0-.578.315-1.03.945-1.03.445 0 .822.222.863.693h-.422m-2.256-.686a.62.62 0 0 0-.686.415h-.007v-.37h-.396v1.915h.422v-.911c0-.423.23-.656.518-.656.05.001.1.006.149.014v-.407" fill="#000"/><path d="M11.119 16.425a1.878 1.878 0 0 0-1.563-.387 2.582 2.582 0 0 0-1.388.76l.145-.685H5.545a.767.767 0 0 0-.735.605L4 20.524h1.36l.358-1.68h1.67a1.896 1.896 0 0 0 .658 1.334 1.878 1.878 0 0 0 1.562.387 2.52 2.52 0 0 0 1.232-.611c.353-.313.624-.708.787-1.15l.011-.031h-.316l-.005.014c-.313.77-1.004 1.352-1.76 1.485a1.585 1.585 0 0 1-1.32-.322 1.639 1.639 0 0 1-.56-1.287c0-1.099.866-2.145 1.931-2.333a1.584 1.584 0 0 1 1.32.323 1.605 1.605 0 0 1 .554 1.144h-3.19l-.067.317h3.553l.001-.021c.004-.072.006-.123.006-.155a1.93 1.93 0 0 0-.666-1.513zm-5.1 1a.23.23 0 0 1 .222-.18h1.574a2.842 2.842 0 0 0-.276.549h-1.6l.08-.37z" fill="#005BAC"/></svg>