<svg width="36" height="36" fill="none" xmlns="http://www.w3.org/2000/svg"><path d="M18 0c2.837 0 5.52.656 7.907 1.825C31.884 4.753 36 10.895 36 18c0 9.942-8.058 18-18 18-9.94 0-18-8.057-18-18C0 8.06 8.06 0 18 0z" fill="#F2F4F7"/><path d="M23.41 16.004s-.1.627-.589.627v.334s.157.01.36-.028v1.033c0 .056.047.102.103.102h3.596a.102.102 0 0 0 .102-.102v-1.21a.102.102 0 0 0-.102-.101h-3.11a.897.897 0 0 0 .164-.2h3.047v-.333H24.06a1.42 1.42 0 0 0 .019-.122h-.668zm4.75.063a.102.102 0 0 0-.102.102v1.494c0 .056.046.102.102.102h3.599a.102.102 0 0 0 .102-.102v-1.494a.102.102 0 0 0-.102-.102H28.16zm.497.332h2.605v1.034h-2.605v-.351h2.413v-.332h-2.413v-.351zm-4.867.592h2.592v.75H23.79v-.21h2.4V17.2h-2.4v-.208zm4.268.907s-.017.376-.331.365v.335s.422.057.705-.186h1.278v.29h-1.565v.331h1.565v.294h-1.79v.332H32v-.332h-1.691v-.294h1.534v-.332h-1.534v-.289h1.566v-.332h-1.566v-.18h-.599v.18h-1.07a.97.97 0 0 0 .033-.182h-.615zm-4.876.291c0 .236.016 1.127-.36 1.138v.332s.793.13.944-1.053h2.356l-.005.006s-.27.26-.835.457c-.429-.155-.674-.323-.674-.323h-.695c.225.2.483.357.752.48-.505.09-.903.082-.903.082v.334s.797.038 1.565-.18c.39.106.767.158 1.07.183.37.032.618 0 .618 0v-.332a4.291 4.291 0 0 1-1.105-.07c.491-.232.866-.53 1.013-.72l.005-.008.015-.02a.146.146 0 0 0 .02-.054v-.096c0-.04-.035-.071-.077-.071H23.79l.001-.085h-.608zM8.724 16c-.454 0-.92.114-1.25.437-.36.353-.502.879-.502 1.413 0 .535.141 1.06.502 1.414.33.323.796.437 1.25.437.454 0 .92-.114 1.25-.437.36-.353.502-.88.502-1.414 0-.534-.142-1.06-.502-1.413-.33-.323-.796-.437-1.25-.437zm3.744.001c-.23.008-.552.04-.827.157-.414.176-.622.554-.622.866 0 .218-.037.74.791 1.034.281.1.593.156.817.251.208.09.339.165.339.378 0 .33-.382.44-.88.407-.49-.032-.991-.286-.991-.286l-.038.666s.547.24 1.326.227a2.5 2.5 0 0 0 .832-.166.97.97 0 0 0 .62-.877c0-.217 0-.756-.792-1.035-.281-.098-.508-.152-.721-.22-.28-.09-.442-.195-.442-.408 0-.317.364-.43.88-.396.279.018.568.097.76.171l.03-.617s-.56-.168-1.082-.152zM4 16.062v3.582h.873v-1.518h1.418v-.6H4.873v-.863h1.72v-.6H4zm10.405 0v2.33c0 .71.29 1.309 1.555 1.309 1.263 0 1.562-.672 1.562-1.309v-2.33h-.858v2.33c0 .383-.148.698-.707.698-.593 0-.675-.399-.675-.698v-2.33h-.877zm3.853 0v3.582h.758v-2.312c0 .028.056.156.115.233l1.705 2.08h.6v-3.583h-.758v2.294c0-.03-.072-.147-.141-.23l-1.697-2.064h-.582zm-9.534.543c.213 0 .445.075.6.292.169.237.22.594.22.953 0 .36-.051.716-.22.954a.712.712 0 0 1-.6.291.712.712 0 0 1-.6-.291c-.169-.238-.22-.594-.22-.954s.051-.716.22-.953a.712.712 0 0 1 .6-.291z" fill="#94673E"/></svg>