<svg width="36" height="36" fill="none" xmlns="http://www.w3.org/2000/svg"><path d="M18 0c2.837 0 5.52.656 7.907 1.825C31.884 4.753 36 10.895 36 18c0 9.942-8.058 18-18 18-9.94 0-18-8.057-18-18C0 8.06 8.06 0 18 0z" fill="#F2F4F7"/><path d="M4 17.806c0 1.568 1.042 2.91 2.521 3.469a6.046 6.046 0 0 0 1.999.331c.71 0 1.382-.118 1.99-.33l.002.002c1.482-.557 2.529-1.901 2.529-3.471V17.8c0-1.57-1.047-2.914-2.53-3.472v.002a6.036 6.036 0 0 0-1.991-.329c-.713 0-1.39.117-1.999.333C5.041 14.89 4 16.234 4 17.8v.006z" fill="#AC2044"/><path d="M8.098 18.14a2.19 2.19 0 0 0-1.85 2.04h.812a1.42 1.42 0 0 1 1.053-1.287v1.455h.816v-1.455c.58.153 1.014.666 1.05 1.286h.815a2.193 2.193 0 0 0-1.85-2.039v-.672a2.193 2.193 0 0 0 1.85-2.04h-.815a1.418 1.418 0 0 1-1.05 1.286V15.26h-.816v1.455A1.42 1.42 0 0 1 7.06 15.43h-.812a2.19 2.19 0 0 0 1.85 2.039v.672z" fill="#fff"/><path d="M21.126 15.43v.663h1.708v4.247h1.532v-4.247l1.2-.003c.689.005.731-.66.731-.66h-5.17zm-1.376-.013c-.568.015-.803.288-.959.58l-1.244 2.662h-.017l-1.494-3.242h-1.54l.005 4.917h.853V16.86l1.666 3.473h.597l1.617-3.463v3.463h1.322v-4.917h-.806zm10.568 2.591c.69-.176 1.11-.66 1.12-1.226 0-.833-.757-1.352-2.168-1.352h-2.548v4.904h1.496l.005-4.239h.716c.852 0 1.06.278 1.084.663.028.32-.352.703-.787.785l.007.007a3.87 3.87 0 0 1-.588.104c-.006 0-.042.009-.015.056.448.797 1.484 2.227 1.484 2.227.204.2.288.397.871.403L32 20.334s-1.108-1.361-1.682-2.326z" fill="#082242"/><path d="M4 17.807c0 1.566 1.042 2.909 2.52 3.468a6.07 6.07 0 0 0 2 .331 6.05 6.05 0 0 0 1.991-.33v.002c1.484-.557 2.53-1.902 2.53-3.472V17.8c0-1.57-1.046-2.914-2.53-3.472v.001A6.066 6.066 0 0 0 8.52 14c-.712 0-1.39.118-2 .332-1.478.56-2.52 1.902-2.52 3.47v.006z" fill="#AC2044"/><path d="M8.097 18.139a2.194 2.194 0 0 0-1.85 2.04h.814c.036-.62.47-1.133 1.052-1.287v1.456h.815v-1.456a1.42 1.42 0 0 1 1.052 1.287h.815a2.196 2.196 0 0 0-1.85-2.04v-.672a2.195 2.195 0 0 0 1.85-2.04H9.98a1.42 1.42 0 0 1-1.052 1.287v-1.457h-.815v1.457a1.418 1.418 0 0 1-1.052-1.287h-.814a2.194 2.194 0 0 0 1.85 2.04v.672z" fill="#fff"/><path d="M21.117 15.427v.67h1.709v4.251h1.533v-4.25l1.198-.003c.692.008.734-.668.734-.668h-5.174zm-1.375-.002c-.567.01-.805.284-.957.578l-1.249 2.662h-.016l-1.49-3.24h-1.542l.002 4.92h.859v-3.477l1.662 3.476h.599l1.618-3.467v3.468h1.317v-4.92h-.803zm10.571 2.588c.687-.174 1.107-.658 1.116-1.226 0-.834-.754-1.358-2.166-1.358h-2.546v4.914h1.492l.004-4.242h.716c.855 0 1.058.277 1.086.662.029.318-.352.7-.789.79l.006.005a3.43 3.43 0 0 1-.585.103s-.042.01-.016.054c.449.8 1.488 2.23 1.488 2.23.2.195.286.398.87.403l1.003-.002s-1.107-1.367-1.68-2.333z" fill="#082242"/></svg>