<svg width="36" height="36" fill="none" xmlns="http://www.w3.org/2000/svg"><path d="M18 0c2.837 0 5.52.656 7.907 1.825C31.884 4.753 36 10.895 36 18c0 9.942-8.058 18-18 18-9.94 0-18-8.057-18-18C0 8.06 8.06 0 18 0z" fill="#F2F4F7"/><path d="M23.684 13.428a1.141 1.141 0 1 1 2.282-.001 1.141 1.141 0 0 1-2.282 0z" fill="#F03C1E"/><path d="M14.33 14.396C17.99 11.216 22.252 9 25.136 9c2.884 0 3.582 2.217 2.13 5.397.69-2.412-.423-4.049-3.214-4.049s-6.536 1.636-9.722 4.048zm-2.382 11.462c-2.791 0-3.904-1.637-3.214-4.048-1.452 3.18-.753 5.396 2.13 5.396 2.884 0 7.465-1.708 11.125-4.889-3.188 2.412-7.248 3.54-10.04 3.54" fill="#ACBDC4"/><path d="m19.922 16.953-1.1 4.114a.316.316 0 0 1-.284.224h-2.307c-.125 0-.197-.102-.166-.224l1.101-4.114H14.43l-1.114 4.117a.312.312 0 0 1-.284.223H10.7c-.125 0-.198-.1-.165-.223l1.114-4.117h-2.13c-.124 0-.197-.1-.163-.224l.301-1.127a.313.313 0 0 1 .284-.225h12.535c.123 0 .197.1.164.225l-.302 1.127a.313.313 0 0 1-.284.224h-2.132zm5.332-1.576H23.34a.316.316 0 0 0-.284.225l-1.447 5.465c-.033.123.041.225.165.225h1.915c.123 0 .25-.102.283-.225l1.447-5.465c.033-.124-.04-.225-.164-.225" fill="#4B616D"/><path d="M14.33 14.396C17.99 11.216 22.252 9 25.136 9c2.884 0 3.582 2.217 2.13 5.397.69-2.412-.423-4.049-3.214-4.049s-6.536 1.636-9.722 4.048z" fill="#ACBDC4"/></svg>