<svg width="36" height="36" fill="none" xmlns="http://www.w3.org/2000/svg"><path d="M18 0c2.837 0 5.52.656 7.907 1.825C31.884 4.753 36 10.895 36 18c0 9.942-8.058 18-18 18-9.94 0-18-8.057-18-18C0 8.06 8.06 0 18 0z" fill="#F2F4F7"/><path d="M4 14.23h2.253c.516 0 1.124.48 1.395.745L11.6 19.36v-5.13h1.343v6.999h-2.351c-.419-.014-.83-.1-1.31-.571l-3.946-4.392v4.963H4V14.23zm28 7.046c-1.609.22-3.236.241-4.866.104-.955-.084-1.89-.28-2.747-.728-1.082-.56-1.427-1.821-1.412-2.963.012-1.055.325-2.18 1.266-2.793.617-.405 1.276-.538 1.976-.665 1.91-.337 3.824-.26 5.688-.056v.998c-2.198-.427-4.52-.32-5.309.689-.493.628-.563 1.253-.563 1.78 0 .948.325 2.387 2.252 2.667 1.257.184 2.502.044 3.715-.177v1.144zm-13.765-1.088c.19.001 3.22.015 4.26 0v1.045c-2.095.08-4.108.116-6.224.028-1.795-.074-2.105-.977-2.14-1.844v-5.188h8.263v.997H17.05v1.782h4.872v.972H17.05c0 .527.017 1.123.022 1.23.029.68.344.929 1.164.977z" fill="#1414A0"/></svg>