<svg width="36" height="36" fill="none" xmlns="http://www.w3.org/2000/svg"><path d="M18 0c2.837 0 5.52.656 7.907 1.825C31.884 4.753 36 10.895 36 18c0 9.942-8.058 18-18 18-9.94 0-18-8.057-18-18C0 8.06 8.06 0 18 0z" fill="#F2F4F7"/><path d="M14.335 16.715v1.506s2.41-1.204 3.012-.3v.903s-3.314-.803-3.514 1.807c0 0 0 2.11 1.908 2.21 0 0 2.811-.302 3.213-.302v-5.02c-.1 0-.402-2.21-4.62-.804zm3.012 3.113v1.607s-1.908.502-2.209-.502v-.502s.1-.904 2.21-.603zm2.009-3.314v6.226h1.405v-5.02s1.808-.503 1.909.2v4.72h1.606l-.1-5.121s-.1-1.306-1.506-1.306-3.314.301-3.314.301zm5.523-2.209h1.506v4.017h.1l1.908-2.008H30l-2.51 2.71v.202L30 22.64h-1.607l-2.008-2.611h-.1v2.61h-1.507v-8.334h.1z" fill="#651C80"/><path d="M6 22.74h5.121s.603 0 .804-.2v-.201h-.804v-.2h1.507s.2-.101.2-.302h-1.707v-.301h1.908s.1 0 .1-.302H7.507v-.3h5.825v-.302H7.506v-.302h5.925v-.3H7.506v-.302h5.925v-.301H7.506v-.302h5.825s.1-.3-.201-.3H7.506v-.302h5.523s0-.301-.2-.301h-2.21v-.201h1.707s0-.301-.3-.301h-1.407v-.302h.804s.401-.1.602-.3H7.506v-.302h4.92s.202-.2.202-.301H7.506v-.302h5.423s.1-.1.1-.3H7.506v-.302h5.523v-.301H7.506v-.302h5.523v-.2H7.506v-.302h5.423s0-.301-.1-.301H11.12v-.301h1.607s0-.302-.2-.302h-1.306v-.3h.803s0-.302-.602-.302H6v9.74z" fill="#DEA014"/></svg>