<svg width="36" height="36" fill="none" xmlns="http://www.w3.org/2000/svg"><path d="M18 0c2.837 0 5.52.656 7.907 1.825C31.884 4.753 36 10.895 36 18c0 9.942-8.058 18-18 18-9.94 0-18-8.057-18-18C0 8.06 8.06 0 18 0z" fill="#F2F4F7"/><path fill-rule="evenodd" clip-rule="evenodd" d="M5.053 13.048c-.05.06-.076 10.423-.027 10.553l.03.076 1.447-.008 1.448-.007.007-1.914.008-1.913.074-.029c.046-.017.773-.028 1.859-.028 1.4 0 1.787-.008 1.798-.036a.793.793 0 0 0-.011-.211c-.123-.868-.136-1.143-.08-1.692.047-.467.269-.415-1.833-.424l-1.793-.008V15.4l2.145-.008 2.144-.007.103-.16c.056-.088.102-.167.102-.174 0-.008.1-.161.223-.342.23-.338.372-.52.703-.903.083-.096.636-.597.742-.672.195-.138.325-.134-4.518-.134-4.18 0-4.534.004-4.571.048zm12.789-.028c-.38.047-1.048.17-1.179.217l-.349.12c-.21.07-.942.435-1.032.515a.733.733 0 0 1-.124.086c-.43.22-1.353 1.232-1.637 1.791-.049.096-.107.207-.129.247-.021.04-.052.106-.067.146a5.82 5.82 0 0 1-.104.236 2.181 2.181 0 0 0-.156.491.348.348 0 0 1-.038.102c-.209.278-.212 2.36-.005 2.771.014.028.048.136.075.24.028.104.07.233.096.288.024.054.083.191.13.304.046.112.1.225.122.25.02.025.055.088.076.14.02.053.072.14.114.195.042.055.108.155.149.222.213.36.835 1 1.239 1.277.635.434 1.039.634 1.67.824.584.176.638.18 2.69.18h1.862l.008-1.857c.008-2.09.024-1.96-.201-1.646-.16.222-.55.58-.765.7a3.65 3.65 0 0 1-.846.362c-.409.107-1.505.057-1.687-.076a1.497 1.497 0 0 0-.193-.082c-.213-.078-.559-.3-.806-.516-.57-.5-.991-1.42-.993-2.17 0-.198.114-.828.184-1.014.11-.29.33-.685.47-.843.511-.576 1.003-.883 1.669-1.041.302-.072.34-.074 1.735-.091l1.425-.017.008-1.162c.006-.91 0-1.166-.03-1.185-.035-.022-3.204-.026-3.381-.004zm9.672 0c-.04.005-.282.043-.538.083-.256.04-.55.104-.655.142a9.172 9.172 0 0 1-.349.12.99.99 0 0 0-.189.073 1.048 1.048 0 0 1-.16.073c-.361.14-1.072.63-1.44.99a7.927 7.927 0 0 0-.628.713l-.183.276c-.062.094-.14.224-.172.288-.033.064-.081.15-.108.19-.026.04-.07.137-.098.217-.029.08-.076.192-.106.249-.03.057-.067.155-.083.218l-.072.275c-.024.088-.063.239-.087.335-.252 1.013-.024 2.721.468 3.509a.494.494 0 0 1 .066.133c0 .027.134.243.33.532.287.42.836.986 1.168 1.202.064.042.195.13.29.196.097.067.228.147.292.18.064.032.136.074.16.095.024.02.122.065.218.1s.202.082.237.104c.034.022.18.074.324.114.144.04.3.088.345.106.286.11.54.123 2.463.135 1.428.01 1.896.004 1.927-.023.051-.042.063-3.558.012-3.634-.024-.037-.044-.027-.118.058-.322.367-.41.457-.577.59-.242.194-.341.25-.86.486-.39.177-1.707.177-1.95 0a1.5 1.5 0 0 0-.193-.082c-.703-.258-1.427-1.053-1.637-1.794a9.685 9.685 0 0 0-.077-.262c-.095-.292-.095-1.06-.001-1.3a4.25 4.25 0 0 0 .079-.256c.198-.717.819-1.422 1.553-1.765.575-.269.83-.3 2.42-.3.988 0 1.33-.01 1.356-.035.043-.044.05-2.224.006-2.293-.026-.041-3.195-.078-3.433-.039z" fill="#263D7D"/><path fill-rule="evenodd" clip-rule="evenodd" d="M18.338 17.468c-.04.04-.045.178-.039 1.185l.008 1.14 1.476.007 1.477.007V18.65c0-.862-.01-1.167-.035-1.193-.06-.06-2.827-.049-2.887.012zm9.72-.027c-.012.01-.02.547-.02 1.193v1.173l1.41.005 1.477.007.065.002.008-1.176c.006-.921 0-1.181-.03-1.2-.043-.027-2.883-.032-2.91-.004zM8.963 19.8c.493.004 1.292.004 1.774 0 .483-.005.08-.009-.896-.009s-1.371.004-.878.009z" fill="#5DBC4D"/></svg>