<svg width="36" height="36" fill="none" xmlns="http://www.w3.org/2000/svg"><path d="M18 0c2.837 0 5.52.656 7.907 1.825C31.884 4.753 36 10.895 36 18c0 9.942-8.058 18-18 18-9.94 0-18-8.057-18-18C0 8.06 8.06 0 18 0z" fill="#F2F4F7"/><path d="M28 18.958v8.357c0 .273-.23.499-.51.499H8.515a.51.51 0 0 1-.512-.5V8.492c0-.272.232-.492.512-.492H27.49c.28 0 .51.22.51.492v10.466z" fill="#EE1D23"/><path d="M28 18.958v8.357c0 .273-.23.499-.51.499H8.515a.51.51 0 0 1-.512-.5V8.492c0-.272.232-.492.512-.492H27.49c.28 0 .51.22.51.492v10.466z" fill="#fff"/><path d="M18.245 10.018c-4.417 0-8.014 3.537-8.014 7.92 0 4.358 3.597 7.92 8.014 7.92 4.425 0 8.018-3.562 8.018-7.92 0-4.383-3.593-7.92-8.018-7.92zm0 14.978c-3.92 0-7.111-3.178-7.111-7.058 0-3.906 3.19-7.06 7.11-7.06 3.928 0 7.118 3.154 7.118 7.06 0 3.88-3.19 7.058-7.117 7.058zm4.067-12.09-1.14-1.086-6.478.004h.005-.005v12.223h6.477l1.14-1.098v-4.214l-.85-.81.85-.808v-4.212zm-5.013 6.42h2.252v2.137h-2.252v-2.137zm0-4.956h2.252v2.154h-2.252V14.37zm10.074 4.015c-.343 0-.59.271-.625.7v.023c-.575 4.098-4.132 7.268-8.442 7.268-4.708 0-8.52-3.787-8.52-8.437 0-4.646 3.812-8.44 8.52-8.44 4.308 0 7.866 3.164 8.44 7.257v.014c.075.465.293.692.625.692.34 0 .616-.297.627-.674V8.492a.503.503 0 0 0-.51-.492H8.513A.504.504 0 0 0 8 8.492v18.822c0 .274.232.5.513.5h18.975c.28 0 .51-.226.51-.5v-8.253c-.006-.376-.281-.676-.627-.676" fill="#EE1D22"/></svg>