<svg height="36" viewBox="0 0 36 36" width="36" xmlns="http://www.w3.org/2000/svg"><mask id="a" fill="#fff"><path d="M0 0h28v5.318H0z" fill-rule="evenodd"/></mask><g fill="none" fill-rule="evenodd"><path d="M18 0c2.837 0 5.52.656 7.907 1.825C31.884 4.753 36 10.895 36 18c0 9.942-8.058 18-18 18-9.94 0-18-8.057-18-18C0 8.06 8.06 0 18 0z" fill="#f2f4f7" fill-rule="nonzero"/><path d="M1.127.106c.124.177.257.346.319.523L0 5.201h1.242l.728-.009c2.13 0 3.142-1.057 3.568-2.433C6.15.8 5.405.115 3.594.115zm6.098 0c.132.177.257.346.319.523L6.106 5.201h3.808l.177-.569H7.518l.567-1.784H9.79l.177-.559H8.263L8.778.656h2.485l.169-.55c-1.403 0-2.805.01-4.207 0zm4.962 0c.124.177.248.346.319.523l-1.447 4.572h.879l1.207-3.817 1.385 3.817h1.243l-.054-.143L17.29.106h-.888l-1.153 3.656L13.918.106c-.578 0-1.155.01-1.731 0zm9.666 1.003.301-.87A5.013 5.013 0 0 0 20.575 0c-1.101-.01-1.927.336-2.264 1.11-.533 1.18.213 1.543 1.109 1.961 1.314.612.56 1.668-.701 1.561-.506-.044-.949-.274-1.393-.488l-.284.89c.533.176 1.163.327 1.935.273 1.304-.079 2.112-.603 2.441-1.429.373-.94-.205-1.518-1.066-1.793-1.792-.577-.719-2.272 1.501-.976zm2.174 1.251C24.435 1.348 25.03.648 25.909.638c.79-.009.932.57.577 1.784-.453 1.563-1.11 2.246-2.006 2.228-.994-.009-.977-.985-.453-2.29zm-1.216-.106C23.468.665 24.329.062 26.095.017c1.58-.036 2.282.693 1.704 2.512-.621 1.98-1.748 2.778-3.452 2.778-1.873.01-2.344-1.136-1.536-3.053zM2.44.772 3.55.763c1.003.017 1.119.603.666 1.935-.382 1.136-.977 1.828-2.104 1.82h-.879z" fill="#cc2229" mask="url(#a)" transform="translate(4 15)"/></g></svg>