<svg width="36" height="36" fill="none" xmlns="http://www.w3.org/2000/svg"><path d="M18 0c2.837 0 5.52.656 7.907 1.825C31.884 4.753 36 10.895 36 18c0 9.942-8.058 18-18 18-9.94 0-18-8.057-18-18C0 8.06 8.06 0 18 0z" fill="#F2F4F7"/><path fill-rule="evenodd" clip-rule="evenodd" d="m4.327 17.69 1.944-1.295-.025.2L8.594 15l.306.024-4.675 3.186.102-.52z" fill="#174E94"/><path d="m4.327 17.69 1.944-1.295-.025.2L8.594 15l.306.024-4.675 3.186.102-.52z" fill="#174E94"/><path fill-rule="evenodd" clip-rule="evenodd" d="m4.454 16.993-.102.52 3.636-2.49-.58.153-1.01.67.052-.17-1.996 1.317-.102.472.102-.472z" fill="#174E94"/><path d="m4.454 16.993-.102.52 3.636-2.49-.58.153-1.01.67.052-.17-1.996 1.317-.102.472.102-.472z" fill="#174E94"/><path fill-rule="evenodd" clip-rule="evenodd" d="m4.179 18.462 1.965-1.37-.025.222 3.158-2.163.204.102-5.379 3.657.077-.448z" fill="#174E94"/><path d="m4.179 18.462 1.965-1.37-.025.222 3.158-2.163.204.102-5.379 3.657.077-.448z" fill="#174E94"/><path fill-rule="evenodd" clip-rule="evenodd" d="m4 19.206 1.996-1.39.225.048 3.61-2.441.154.102-5.506 3.76-.479-.08z" fill="#174E94"/><path d="m4 19.206 1.996-1.39.225.048 3.61-2.441.154.102-5.506 3.76-.479-.08z" fill="#174E94"/><path fill-rule="evenodd" clip-rule="evenodd" d="m4.76 19.309 1.99-1.348.204.024 3.306-2.236.127.121-5.175 3.535-.452-.096z" fill="#174E94"/><path d="m4.76 19.309 1.99-1.348.204.024 3.306-2.236.127.121-5.175 3.535-.452-.096z" fill="#174E94"/><path fill-rule="evenodd" clip-rule="evenodd" d="m5.436 19.477 1.997-1.365.204.024 2.954-2.013.102.2L5.92 19.58l-.484-.104z" fill="#174E94"/><path d="m5.436 19.477 1.997-1.365.204.024 2.954-2.013.102.2L5.92 19.58l-.484-.104z" fill="#174E94"/><path fill-rule="evenodd" clip-rule="evenodd" d="m6.144 19.605 2.022-1.367.204.049 2.45-1.667.046.223-4.218 2.864-.504-.102z" fill="#174E94"/><path d="m6.144 19.605 2.022-1.367.204.049 2.45-1.667.046.223-4.218 2.864-.504-.102z" fill="#174E94"/><path fill-rule="evenodd" clip-rule="evenodd" d="m6.577 19.902 1.967-1.318-.052.2 2.45-1.615v.198l-4.467 3.06.102-.525z" fill="#174E94"/><path d="m6.577 19.902 1.967-1.318-.052.2 2.45-1.615v.198l-4.467 3.06.102-.525z" fill="#174E94"/><path fill-rule="evenodd" clip-rule="evenodd" d="m6.398 20.675 1.997-1.366-.025.198 2.547-1.716-.072.296-4.522 3.059.075-.471z" fill="#174E94"/><path d="m6.398 20.675 1.997-1.366-.025.198 2.547-1.716-.072.296-4.522 3.059.075-.471z" fill="#174E94"/><path fill-rule="evenodd" clip-rule="evenodd" d="m6.323 21.398 1.971-1.346-.026.175 2.4-1.62-.358.5-4.09 2.763.102-.472z" fill="#174E94"/><path d="m6.323 21.398 1.971-1.346-.026.175 2.4-1.62-.358.5-4.09 2.763.102-.472z" fill="#174E94"/><path fill-rule="evenodd" clip-rule="evenodd" d="m14.885 19.955-.027.025-.05.047-.025.025-.025.024h-.027l-.025.055h-.05v.023l-.052.024h-.025l-.052.025-.025.024h-.025l-.046.025-.025.023h-.077l-.025.026-.052.023h-.05l-.052.03h-.075l-.026.023h-.127l-.026.026h-.58l-.026-.026h-.274l-.027-.023h-.102l-.05-.03h-.077l-.025-.024-.05-.025h-.073l-.025-.023-.05-.025h-.027l-.05-.024h-.025l-.052-.025-.025-.024h-.025l-.025-.023-.052-.03-.025-.025-.025-.024-.027-.025h-.025l-.025-.024v-.023l-.025-.025-.027-.053h-.025l-.02-.05v-.024l-.026-.024-.025-.024v-.025l-.025-.023-.026-.026v-.053h-.026l-.025-.048v-.049l-.025-.049v-.03l-.025-.023v-.049l-.027-.049v-.023l-.025-.024v-.055l-.025-.023v-.2h.581v.054l.025.023v.074l.025.024v.078l.025.049v.023l.027.025v.024l.025.049v.023l.025.03.025.025v.024l.027.025.025.049.025.023v.025l.025.028.027.026.019.023.027.025.025.024h.025l.025.024.052.025.05.023h.025l.052.025h.05l.052.03h.025l.052.024h.05l.05.025h.505l.05-.025h.078l.045-.024h.025l.052-.03h.05l.052-.025v-.023h.05l.025-.025h.026l.026-.024h.025l.025-.024h.026l.026-.025h.025l.025-.023v-.026h.026l.026-.028.05-.048v-.025h.021v-.024l.025-.025.025-.024v-.055l.027-.023v-.049l.025-.024v-.273h-.025l-.027-.053v-.024l-.025-.049-.025-.023v-.025l-.02-.024-.026-.025h-.025l-.026-.024-.026-.03-.05-.023-.026-.025h-.051l-.025-.024-.052-.025h-.025l-.05-.024h-.052l-.05-.025h-.076l-.026-.023H13.8l-.025-.03h-.077l-.05-.025h-.077l-.025-.024h-.127l-.052-.023h-.05l-.05-.025h-.125l-.052-.024-.05-.025h-.077l-.05-.024h-.052l-.05-.023h-.052l-.025-.03h-.05l-.046-.025h-.052l-.025-.024h-.052l-.025-.025h-.05l-.027-.024-.025-.025h-.025l-.025-.023-.025-.025h-.027l-.025-.029-.025-.025-.025-.023h-.027l-.025-.025-.05-.073-.027-.023-.025-.025-.02-.03-.026-.024v-.023l-.025-.025v-.024l-.025-.025-.026-.024v-.049l-.026-.03v-.048l-.025-.024v-.349l.025-.025v-.073l.026-.024v-.049l.026-.03.025-.024v-.024l.025-.025v-.024l.025-.024.021-.025h.025v-.048h.027l.025-.03.025-.024v-.023l.025-.025h.027l.025-.024.025-.025h.025l.027-.024.025-.025h.025l.025-.028.025-.025h.027v-.024h.025l.025-.025h.025l.027-.024h.025v-.025h.077v-.023h.046v-.025h.127l.025-.024h.127l.025-.03h.328l.025-.023h.28l.026.023h.204l.02.03h.025l.05.024h.103l.026.025.05.023h.077l.025.025.05.024h.027l.05.025.026.024.051.025.025.028h.021l.05.025.027.024.05.025.025.024.027.025.025.023.025.024.025.03.027.048h.025v.05h.025v.023l.025.049h.025v.055l.027.023v.025h.025v.072l.025.024v.053l.025.025v.272h-.529v-.049h-.025v-.15h-.026v-.049l-.026-.024v-.052l-.025-.025v-.024l-.025-.025v-.023l-.026-.024-.026-.025v-.024h-.025l-.025-.03v-.024h-.026l-.026-.024-.025-.025H14.1l-.025-.024h-.026l-.026-.024-.025-.025h-.077l-.025-.023h-.025l-.046-.025h-.076l-.026-.03h-.632l-.025.03h-.077l-.025.025h-.05l-.027.023h-.05l-.025.026h-.027l-.025.023h-.05v.024l-.025.025-.027.023h-.02l-.026.055h-.025v.024l-.025.025-.025.024v.023l-.027.025v.024l-.025.053v.248h.025v.049l.027.025v.024l.025.049h.025v.03l.025.023h.027v.025h.019l.027.024h.025v.025l.025.024h.05l.027.025h.025l.025.023h.025l.027.024h.05l.025.03h.027l.025.025h.127l.05.023h.098l.05.024h.102l.052.025h.126l.05.024h.129l.026.025h.172l.026.023h.101l.026.025h.051l.025.029h.077l.025.025h.052v.023h.071l.025.025.025.024h.077v.025l.025.024h.027l.025.025h.025l.025.03h.027l.025.023.025.024h.025l.025.025.027.024.025.048h.025l.025.024v.025l.025.03.027.023.025.026v.023l.025.025v.024l.021.025v.024l.025.03v.07l.025.025v.096l.027.053v.273l-.027.024v.127l-.025.024v.049h-.025v.048l-.02.053-.026.026v.023l-.025.025-.027.024-.025.024v.025l-.025.048h-.025l-.025.054z" fill="#251D1B"/><path fill-rule="evenodd" clip-rule="evenodd" d="M21.903 18.831v1.493h1.161l-1.161-1.493z" fill="#AE1C1E"/><path d="M21.903 18.831v1.493h1.161l-1.161-1.493z" fill="#AE1C1E"/><path fill-rule="evenodd" clip-rule="evenodd" d="M22.03 16.546h1.084v1.469l-1.084-1.47z" fill="#AE1C1E"/><path d="M22.03 16.546h1.084v1.469l-1.084-1.47z" fill="#AE1C1E"/><path d="M28.467 16.546h-.803l-2.15 1.812v-1.812h-.63v3.808h.63v-1.862l2.15 1.809h.803l-2.235-1.886 2.235-1.87zm-4.847 0v2.932l-2.146-2.932h-.656v3.808h.58v-2.986l2.222 2.986h.606v-3.808h-.606z" fill="#251D1B"/><path d="M20.237 16.546h-.657v3.806h.657v-3.806z" fill="#000"/><path d="M20.237 16.546h-.657v3.806h.657v-3.806zm-1.894 0v1.591h-2.144v-1.591h-.606v3.808h.606V18.56h2.144v1.794h.58v-3.808h-.58zm11.711 0A1.906 1.906 0 0 1 32 18.414a1.945 1.945 0 0 1-3.885 0 1.904 1.904 0 0 1 1.939-1.868zm-1.436 1.844a1.426 1.426 0 0 0 1.41 1.419 1.447 1.447 0 0 0 1.442-1.419 1.423 1.423 0 0 0-1.441-1.396 1.403 1.403 0 0 0-1.412 1.396z" fill="#251D1B"/></svg>