<svg width="36" height="36" fill="none" xmlns="http://www.w3.org/2000/svg"><path d="M18 0c2.837 0 5.52.656 7.907 1.825C31.884 4.753 36 10.895 36 18c0 9.942-8.058 18-18 18-9.94 0-18-8.057-18-18C0 8.06 8.06 0 18 0z" fill="#F2F4F7"/><path d="M8.261 22.442v1.174h-.987v-1.174h-.273V25.1h.273v-1.246h.987V25.1h.274v-2.657h-.274zm1.444.786h-.26v1.87h.26v-1.87zm0-.786h-.26v.317h.26v-.317zm1.152.304-.26.113v.37h-.292v.215h.293v1.287c0 .259.123.375.4.375.072 0 .145-.004.21-.01l.018-.002v-.232l-.024.004c-.048.007-.099.01-.167.01-.153 0-.178-.039-.178-.28v-1.152h.37v-.216h-.37v-.482zm1.479 2.174c-.228 0-.31-.184-.31-.356 0-.384.373-.392.672-.398l.07-.002v.313a.45.45 0 0 1-.432.443zm.69-.302v-.92c0-.506-.443-.506-.59-.506-.382 0-.611.186-.628.508l-.002.022h.275v-.021c0-.184.126-.294.338-.294.247 0 .348.119.348.41v.132l-.13.007c-.373.016-.883.037-.883.618 0 .345.2.56.524.56.213 0 .386-.08.504-.229v.193h.268l-.003-.023c-.021-.212-.021-.325-.021-.457zm1.984-.101h-.257v.02c-.011.21-.041.384-.313.384-.316 0-.316-.415-.316-.749 0-.238.022-.489.05-.569a.28.28 0 0 1 .273-.196c.1 0 .175.026.225.078.057.06.083.157.076.288l-.001.022h.259v-.02c.01-.188-.035-.335-.132-.436a.533.533 0 0 0-.399-.148c-.29 0-.481.124-.57.368-.045.135-.055.408-.055.612 0 .452 0 .963.64.963.07 0 .25-.014.38-.15.1-.103.147-.254.14-.447v-.02zm1.436-1.325c-.166 0-.31.078-.428.23v-.98h-.26V25.1h.26v-1.17c0-.471.261-.522.374-.522.276 0 .316.245.316.391v1.3h.259v-1.311c0-.146 0-.596-.52-.596zm1.632.036h-.258v1.87h.258v-1.87zm-.001-.786h-.258v.317h.258v-.317zm3.127.283v-.283h-1.392v.237h1.109l-1.181 2.136v.283h1.476v-.237h-1.181l1.17-2.136zm1.462 1.978c-.022.06-.082.217-.345.217-.265 0-.323-.158-.345-.217l-.005-.013c-.034-.086-.042-.41-.042-.53 0-.555.059-.752.392-.752s.392.197.392.753c0 .118-.008.443-.041.53l-.006.012zm-.345-1.511c-.652 0-.652.514-.652.735v.434c0 .528.208.773.652.773.444 0 .651-.246.651-.773v-.434c0-.22 0-.735-.651-.735zm1.947.833c-.19-.094-.354-.175-.354-.374 0-.143.106-.243.258-.243.237 0 .288.117.298.334l.001.021h.254v-.021c0-.354-.178-.55-.499-.55-.374 0-.571.166-.571.478 0 .333.243.456.459.563.194.1.363.184.363.396 0 .2-.097.301-.29.301-.264 0-.316-.15-.316-.395v-.021h-.263v.021c-.002.213.044.364.141.46.093.095.233.14.427.14.362 0 .56-.19.56-.538 0-.343-.25-.465-.468-.572zm1.776-.618c.323 0 .39.214.392.608h-.784c.002-.394.068-.608.392-.608zm.381 1.113a.403.403 0 0 1-.101.297.375.375 0 0 1-.28.103c-.325 0-.392-.31-.392-.57v-.121h1.043v-.02c0-.546 0-1.017-.651-1.017-.433 0-.652.266-.652.792v.45c0 .465.22.7.652.7.414 0 .627-.2.65-.612l.002-.022h-.27v.02zm1.673-1.328c-.166 0-.31.078-.429.23v-.194h-.259v1.87h.26V23.93c0-.471.26-.522.373-.522.275 0 .316.245.316.392v1.299h.26v-1.31c0-.146 0-.596-.521-.596z" fill="#000"/><path d="M16.858 13.27V11h-1.844v2.268l1.844.001z" fill="#FFF100"/><path d="M29 14.058h-4.376v.6h2.084l-2.392 5.655h4.49v-.6h-2.198L29 14.057zm-6.382.602v-.598h-.962v-2.356l-1.812.995v1.361h-.608v.597h.608v4.347c.02.793.572 1.28 1.347 1.31h1.404v-.604H22c-.272-.016-.345-.111-.345-.332v-4.72h.963zm-5.762-.62h-1.842v6.27h1.842v-6.27zm-6.514-3.039v4.01H8.918V11H7v9.305h1.918v-4.612h1.425v4.612h1.918V11h-1.918z" fill="#1A2B7C"/></svg>