<svg width="36" height="36" fill="none" xmlns="http://www.w3.org/2000/svg"><path d="M18 0c2.837 0 5.52.656 7.907 1.825C31.884 4.753 36 10.895 36 18c0 9.942-8.058 18-18 18-9.94 0-18-8.057-18-18C0 8.06 8.06 0 18 0z" fill="#F2F4F7"/><path d="M18.998 18.931h-.521v1.159h.521v-1.16zm10.245.002h-.52v1.157h.52v-1.157zm-3.773.357v-.291c-.142-.072-.348-.12-.626-.12-.556 0-.63.238-.63.36 0 .205.125.3.335.373.246.087.451.058.451.162 0 .03-.04.06-.144.06-.215 0-.444-.084-.594-.174v.322c.191.091.427.15.619.15.427 0 .66-.172.66-.4 0-.223-.176-.314-.467-.385-.187-.045-.31-.045-.31-.117 0-.04.053-.07.155-.07.176 0 .379.053.55.13zm6.458 0v-.291c-.14-.072-.347-.12-.626-.12-.555 0-.629.238-.629.36 0 .205.125.3.335.373.245.087.451.058.451.162 0 .03-.04.06-.144.06-.215 0-.445-.084-.594-.174v.322c.19.091.426.15.619.15.427 0 .66-.172.66-.4 0-.223-.177-.314-.468-.385-.186-.045-.308-.045-.308-.117 0-.04.052-.07.153-.07.177 0 .38.053.551.13zm-8.611.834c.509 0 .7-.2.7-.497v-.694h-.502v.723c0 .09-.104.167-.198.167-.094 0-.198-.076-.198-.167v-.723h-.503v.694c0 .298.192.497.7.497zm7.162-.034v-.247h-.516v-.245h.442v-.24h-.442v-.18h.516v-.245h-1.012v1.157h1.012zm-4.802-.9h.337v.9h.528v-.9h.337v-.257h-1.202v.257zm-4.92.9v-1.16h-.53v.536l-.425-.536h-.581v1.159h.53v-.564l.435.564h.57zM17 19.371l-.245-.438h-.485l.469.749v.408h.528v-.417l.462-.74h-.484L17 19.37zm-1.19.719.422-1.157h-.49l-.248.732-.248-.732h-.49l.424 1.157h.63zm-1.918-1.157-.424 1.157h.495l.039-.137h.384l.039.137h.495l-.424-1.157h-.604zm.174.796.127-.446.129.446h-.256zm-.683.361v-.247h-.515v-.245h.441v-.24h-.441v-.18h.515v-.245h-1.011v1.157h1.011zm8.307 0c.513 0 .762-.242.762-.58 0-.38-.315-.579-.737-.579h-.735v1.159h.71zm-.06-.325h-.12v-.55h.101c.178 0 .276.11.276.287a.266.266 0 0 1-.257.263zm5.454-.832v1.157h.56v-.374l.346.374h.621l-.462-.455c.2-.008.362-.141.362-.341 0-.234-.18-.361-.397-.361h-1.03zm.738.514h-.179v-.293h.19c.067 0 .142.052.142.152 0 .088-.07.14-.153.14zm-16.199-.514v.405h-.371v-.405h-.526v1.157h.526v-.416h.371v.416h.526v-1.157h-.526zm3.202-2.236h-.907v1.896h.907v-1.896zm-2.307 0-.329.665-.328-.665h-.873l-.262 1.896h.847l.076-.792.54.792.54-.792.077.792h.847l-.262-1.896h-.873zm4.495 0h-1.926v.517h.527v1.38h.872v-1.38h.527v-.517zm2.301.755v-.547a2.458 2.458 0 0 0-1.042-.248c-.667 0-1.03.225-1.03.598 0 .322.201.445.543.574.395.15.647.075.647.196 0 .048-.015.083-.168.083-.357 0-.7-.142-.947-.283v.566a2.64 2.64 0 0 0 1.023.236c.429 0 1.035-.1 1.035-.605 0-.352-.304-.535-.715-.63-.309-.07-.516-.047-.516-.16 0-.057.08-.08.216-.08.292 0 .703.139.954.3zm6.381-.755h-.907v1.896h.907v-1.896zm6.305 0h-.907v1.896H32v-1.896zm-3.926.755v-.547a2.46 2.46 0 0 0-1.042-.248c-.667 0-1.03.225-1.03.598 0 .322.202.445.543.574.396.15.648.075.648.196 0 .048-.015.083-.168.083-.357 0-.7-.142-.947-.283v.566c.316.144.705.236 1.023.236.428 0 1.034-.1 1.034-.605 0-.352-.303-.535-.715-.63-.308-.07-.515-.047-.515-.16 0-.057.08-.08.216-.08.292 0 .703.139.953.3zm-7.251 1.175c.59 0 1.173-.239 1.173-.787v-1.143h-.885v1.163a.284.284 0 0 1-.288.283.284.284 0 0 1-.287-.283v-1.163h-.886v1.143c0 .548.584.787 1.173.787zm2.982-.034c.524 0 .7-.244.7-.503a.5.5 0 0 0-.345-.487.427.427 0 0 0 .236-.392c0-.306-.275-.514-.568-.514h-1.517v1.896h1.494zM23.45 17.1c.102 0 .157.072.157.151 0 .088-.071.142-.154.142h-.224V17.1h.221zm.003 1.017h-.224v-.289h.234c.074 0 .15.054.15.144 0 .08-.064.145-.16.145zm6.405-1.42v.668h-.515v-.668h-.902v1.896h.902v-.677h.515v.677h.902v-1.896h-.902z" fill="#000"/><path d="m6.94 18.393.978-1.696L6.938 15l-.979 1.697.98 1.696zm0 0 .978 1.697h1.96l-.98-1.697H6.939z" fill="#E31F26"/><path d="M6.94 18.393H4.98L4 20.09h1.96l.98-1.697z" fill="#E31F26"/></svg>