<svg width="36" height="36" fill="none" xmlns="http://www.w3.org/2000/svg"><path d="M18 0c2.837 0 5.52.656 7.907 1.825C31.884 4.753 36 10.895 36 18c0 9.942-8.058 18-18 18-9.94 0-18-8.057-18-18C0 8.06 8.06 0 18 0z" fill="#F2F4F7"/><path fill-rule="evenodd" clip-rule="evenodd" d="M4.177 19.886h.19l-.175.845H4l.177-.845zm.343 0h.237l.126.585h.001l.12-.585h.18l-.18.845h-.236l-.129-.585h-.002l-.118.585h-.18l.18-.845zm1.223.19a.298.298 0 0 0-.155-.04c-.075 0-.137.014-.139.082-.004.12.273.075.265.332-.008.233-.192.294-.357.294a.681.681 0 0 1-.218-.044l.05-.172c.037.03.111.049.174.049.059 0 .152-.014.155-.1.004-.136-.274-.085-.266-.324.007-.218.17-.283.326-.283.088 0 .17.01.217.038l-.052.168zm.742.203c-.056.269-.117.466-.375.466-.16 0-.283-.068-.277-.266a.89.89 0 0 1 .02-.16l.096-.433h.192l-.101.477a.678.678 0 0 0-.017.093c-.002.069.03.122.097.122.122 0 .147-.175.176-.31l.083-.382h.188l-.082.393zm.331-.042h.064c.082 0 .148-.025.15-.104.002-.061-.028-.086-.085-.087h-.09l-.039.19zm-.114-.351h.228c.135 0 .298.005.29.215-.005.149-.104.201-.213.217v.002c.055.006.07.096.08.15l.041.26h-.19l-.03-.215c-.013-.11-.02-.119-.105-.119h-.02l-.068.335h-.19l.177-.845zm.99.174h-.001l-.162.33h.183l-.02-.33zm-.088-.174h.238l.088.845h-.192l-.013-.181H7.45l-.09.18h-.206l.45-.844zm.586 0h.237l.126.585h.002l.12-.585h.179l-.18.845H8.44l-.13-.585h-.001l-.119.585h-.18l.18-.845zm1.322.202a.288.288 0 0 0-.176-.051c-.19 0-.272.16-.277.32-.005.15.073.22.187.22a.358.358 0 0 0 .181-.047l-.025.182a.606.606 0 0 1-.191.032c-.229 0-.355-.161-.348-.393.01-.281.183-.48.45-.48a.59.59 0 0 1 .249.044l-.05.173zm.173-.202h.5l-.034.16H9.84l-.038.174h.296l-.035.159h-.295l-.04.192h.324l-.033.16h-.514l.18-.845zm.357-2.919c-.041.298-.277.432-.693.431h-.552l.184-.884h.565c.42 0 .53.21.496.453zM9.782 16H8.286l-.445 2.149c-.155.742-.628.938-1.199.938-.52 0-1.014-.273-.886-.938l.062-.321h.674l-.07.32c-.048.228.051.372.306.372.254 0 .384-.135.43-.371L7.607 16h-1.57c-.842 0-1.097.21-1.248.947l-.505 2.42h3.04c.748 0 1.155-.43 1.262-.948l.103-.498h.742c.75 0 1.201-.316 1.308-.954.1-.596-.331-.967-.956-.967zm16.82 3.789v-.962h1.22v-.33h-1.22v-.804h1.39v-.329h-1.39v-.773h-.475v.773h-.66c.063-.186.105-.394.12-.622h-.483c-.048.611-.26 1.057-.587 1.252v.367c.32-.098.605-.326.801-.668h.809v.804h-1.135v.33h1.135v.962h-1.61v.329h3.567v-.33h-1.482zm3.006-.241h-.557v-1.086h.557v1.086zm.426-1.402h-1.41v1.718h1.41v-1.719zm-.57-.659c.35-.16.67-.369.858-.631.173.244.433.46.757.63h-1.615zm1.024-.931h-.5c-.246.427-.912.798-1.534.942v.31a5.05 5.05 0 0 0 .704-.198v.192h2.146v-.21c.212.09.446.163.696.213v-.4c-.514-.106-1.295-.447-1.512-.85zm-.137 1.589v2.043h.434v-1.726h.612v.913c0 .095-.048.156-.137.156h-.262v.33h.44c.256 0 .392-.14.392-.41v-1.306h-1.48zm-10.333-.075h-.434c.038 1.297-.145 1.68-.476 1.68-.301 0-.391-.108-.338-.656.076-.788-.09-1.14-.593-1.14-.198 0-.428.093-.602.237a.563.563 0 0 0-.078.085l-.011-.006a.819.819 0 0 0 .04-.107c.138-.47.294-.951.444-1.435h-.505c-.362 1.124-.709 2.344-.9 3.389h.516c.028-.237.071-.483.126-.736.146-.581.532-.991.842-.991.275 0 .288.201.244.704-.075.85.16 1.048.708 1.048.792 0 1.08-.344 1.017-2.072zm-4.442-1.056h-.463c.37.455.713 1.093.857 1.616h.527c-.2-.62-.546-1.218-.921-1.616zm-1.417.378c-.058 0-.121 0-.19.002.044-.247.085-.497.12-.75h-.48c-.038.254-.081.508-.13.76l-.875.028v.38c.266-.014.545-.027.801-.038-.176.84-.4 1.647-.65 2.343h.514c.239-.685.458-1.49.63-2.36l.25-.003c.601 0 .672.163.672.775 0 1.101-.07 1.245-.65 1.242h-.278v.346h.472c.738 0 .94-.214.94-1.588 0-.85-.177-1.137-1.146-1.137zm6.464-.605a30.577 30.577 0 0 0-.059 3.33h.459c-.035-1.006-.04-2.26.06-3.33h-.46zm3.272.465a.213.213 0 0 1-.212-.214.213.213 0 1 1 .425 0 .214.214 0 0 1-.213.214zm-1.243 2.186c0 .214-.105.367-.342.367-.262 0-.41-.121-.41-.34 0-.203.17-.337.374-.337.124 0 .249.017.374.05l.004.26zm1.243-2.882c-.22 0-.405.15-.46.354H21.46v.327h1.162l.006.552H21.46v.326h1.173l.01.708a2.01 2.01 0 0 0-.39-.038c-.573 0-.815.335-.815.674 0 .455.349.685.87.685.596 0 .795-.248.795-.63l-.002-.165c.24.112.495.258.784.418v-.44a8.869 8.869 0 0 0-.79-.37l-.01-.842h.736v-.326h-.74l-.008-.552h.39a.476.476 0 0 0 .91-.2.479.479 0 0 0-.478-.481z" fill="#034EA2"/></svg>