<svg width="36" height="36" fill="none" xmlns="http://www.w3.org/2000/svg"><path d="M18 0c2.837 0 5.52.656 7.907 1.825C31.884 4.753 36 10.895 36 18c0 9.942-8.058 18-18 18-9.94 0-18-8.057-18-18C0 8.06 8.06 0 18 0z" fill="#F2F4F7"/><path d="M4 18.27c0-5.834 7.327-8.54 11.317-9.24a.607.607 0 0 1 .606.233.654.654 0 0 1-.373.98c-1.797.467-4.573 1.563-5.927 3.267-1.61 2.076.35 3.243 1.47 3.243h13.58c1.33 0 3.127-1.353 1.517-3.22-1.167-1.33-3.99-2.613-5.74-3.267a.653.653 0 0 1-.128-1.18.63.63 0 0 1 .408-.08C24.767 9.52 32 11.946 32 18.27c0 6.323-7.233 8.866-11.293 9.403a.607.607 0 0 1-.63-.373c-.14-.35.07-.747.466-.864 2.404-.7 6.16-2.823 6.674-4.526.443-1.494-1.517-1.937-2.567-1.984-3.617-.046-11.387-.116-13.557 0-2.17.117-2.356 1.4-2.17 1.984.677 1.796 4.27 3.5 6.604 4.386.443.164.63.7.396 1.074a.629.629 0 0 1-.63.326C13.03 27.393 4 25.2 4 18.27z" fill="#A8A8A8"/><path d="m6.847 19.366 1.866 1.587c.35-.887 1.517-1.167 2.077-1.237 4.13-.07 12.763-.163 14.117 0 1.33.164 2.123.887 2.38 1.237l2.076-1.587c-.863-.35-4.34-1.05-11.293-1.05-6.953 0-10.383.7-11.223 1.05z" fill="#424242"/><path d="M10.953 10.802a10.127 10.127 0 0 0-5.67 5.46c.514-.63 2.1-2.263 4.177-3.803 2.567-1.913 6.207-2.497 6.323-2.73.14-.233-.91-.537-4.83 1.097v-.024zm14.374 0a10.125 10.125 0 0 1 5.693 5.46c-.537-.63-2.1-2.263-4.177-3.803-2.566-1.913-6.206-2.497-6.346-2.753-.117-.234.933-.537 4.83 1.096zM9.413 16.73c.257.35-.186.443-.443.42.257.257 1.33.397 1.82.467h8.307v.63c-2.497.023-7.77.07-8.82 0-1.284-.094-3.594-.794-3.547-1.097.07-.303.84-.91 1.68-1.237.863-.303.7.35 1.003.817z" fill="#fff"/><path d="M26.82 16.73c-.257.35.187.443.443.42-.256.257-1.33.397-1.82.467h-8.306v.63c2.496.023 7.77.07 8.82 0 1.283-.094 3.593-.794 3.546-1.097-.07-.303-.84-.91-1.68-1.237-.863-.303-.7.35-1.003.817zM7.267 22.47c1.493 2.357 5.646 3.827 7.56 4.293C10.603 24.78 8.993 23.17 8.55 22.4a1.12 1.12 0 0 0-.327-.42l-.233-.163a.513.513 0 0 0-.793.303.467.467 0 0 0 .046.35h.024zm21.84 0c-1.517 2.357-5.647 3.827-7.56 4.293 4.2-1.983 5.833-3.593 6.253-4.363.08-.167.2-.311.35-.42l.233-.163a.538.538 0 0 1 .794.303.467.467 0 0 1-.07.35z" fill="#fff"/><path d="M18 18.9c-5.833 0-7.187.396-7.14.583h14.537c-.047-.187-1.564-.584-7.397-.584z" fill="#CBCBCB"/><path d="M28.127 13.93c-1.237-1.844-5.157-3.407-7-3.967 4.573 2.333 5.553 3.733 5.74 4.153.163.467.7 1.097 1.166.77.327-.256.21-.746.094-.98v.024zm-20.277 0c1.213-1.844 5.157-3.407 6.977-3.967-4.55 2.333-5.554 3.733-5.717 4.153-.163.467-.7 1.097-1.167.77-.35-.256-.233-.746-.093-.98v.024z" fill="#1F2020"/><path d="m4.793 15.61-.373 1.003c-.303 1.26-.233 3.243 1.377 5.296 2.146 2.73 7.653 4.644 10.126 5.25-.863.28-3.5.327-7.046-1.75C4.443 22.796 4 19.6 4 18.48c0-.536.187-1.26.397-1.866.093-.42.233-.77.373-1.004h.023zm26.414 0c.116.233.256.583.396 1.003.304 1.26.234 3.243-1.4 5.296-2.123 2.73-7.63 4.644-10.103 5.25.863.28 3.5.327 7.047-1.75C31.58 22.796 32 19.6 32 18.48c0-.536-.187-1.26-.397-1.866a3.73 3.73 0 0 0-.396-1.004z" fill="#131515"/><path d="M7.383 22.702a6.23 6.23 0 0 1-2.17-6.51c-.116 1.12.117 3.967 2.17 6.51zm21.257 0c1.073-.816 3.033-3.22 2.17-6.51.117 1.12-.14 3.967-2.17 6.51z" fill="#CBCBCB"/></svg>