<svg width="36" height="36" fill="none" xmlns="http://www.w3.org/2000/svg"><path d="M18 0c2.837 0 5.52.656 7.907 1.825C31.884 4.753 36 10.895 36 18c0 9.942-8.058 18-18 18-9.94 0-18-8.057-18-18C0 8.06 8.06 0 18 0z" fill="#F2F4F7"/><path d="M10.194 24.832v-1.867L9.4 24.302l-.807-1.337v1.867H8v-2.648h.77l.63 1.084.605-1.084h.782v2.648h-.593zm1.69-2.648h-.593v2.648h.593v-2.648zm.265 0h2.03v.554h-.719v2.094h-.605v-2.094h-.706v-.554zm2.244 2.622v-.555c.127.026.416.076.782.076.303 0 .454-.038.454-.214 0-.19-.126-.215-.555-.416-.416-.19-.731-.354-.731-.807 0-.555.34-.745.996-.745.34 0 .58.026.744.05v.556c-.151-.013-.416-.05-.719-.05-.353 0-.428.037-.428.189 0 .15.189.226.479.353.441.201.794.365.794.87 0 .53-.328.769-1.034.769a7.504 7.504 0 0 1-.782-.076zm2.182-.87v-1.752h.593v1.727c0 .303.176.404.466.404.278 0 .467-.101.467-.404v-1.727h.593v1.752c0 .644-.417.934-1.06.934s-1.059-.29-1.059-.934zm2.623-1.752h1.16c.542 0 .845.201.845.68 0 .379-.214.505-.416.58.24.076.492.202.492.644 0 .466-.278.744-.87.744H19.21v-2.648h-.013zm1.072 1.072c.24 0 .328-.127.328-.303 0-.215-.101-.265-.328-.265h-.48v.568h.48zm.038 1.084c.24 0 .34-.088.34-.315 0-.202-.088-.29-.315-.29h-.542v.605h.517zm1.904-2.156h-.593v2.648h.593v-2.648zm.428 2.622v-.555c.127.026.417.076.782.076.303 0 .454-.038.454-.214 0-.19-.126-.215-.554-.416-.416-.19-.732-.354-.732-.807 0-.555.34-.745.996-.745.34 0 .58.026.744.05v.556c-.15-.013-.416-.05-.718-.05-.353 0-.43.037-.43.189 0 .15.19.226.48.353.442.201.794.365.794.87 0 .53-.327.769-1.034.769a7.854 7.854 0 0 1-.781-.076zm3.683.026v-1.047h-.946v1.047h-.593v-2.648h.593v1.046h.946v-1.046h.593v2.648h-.593zM28 22.184h-.593v2.648H28v-2.648zM12.968 28.4v-1.866l-.794 1.337-.794-1.337v1.867h-.606v-2.649h.77l.63 1.072.618-1.072h.782v2.649h-.606zm1.009-1.324c0-.945.366-1.362 1.148-1.362.782 0 1.147.417 1.147 1.362 0 .946-.365 1.362-1.147 1.362s-1.148-.416-1.148-1.362zm1.665 0c0-.542-.088-.82-.53-.82-.428 0-.53.278-.53.82 0 .543.089.82.53.82.442 0 .53-.277.53-.82zm.718-1.324h2.03v.555h-.718v2.094h-.593v-2.094h-.718v-.555zm2.132 1.324c0-.945.366-1.362 1.147-1.362.782 0 1.148.417 1.148 1.362 0 .946-.366 1.362-1.148 1.362-.781 0-1.147-.416-1.147-1.362zm1.664 0c0-.542-.088-.82-.53-.82-.44 0-.529.278-.529.82 0 .543.088.82.53.82.441 0 .53-.277.53-.82zm1.022-1.324h1.072c.567 0 .933.215.933.845 0 .416-.202.681-.542.757l.655 1.047h-.693l-.555-.946h-.265v.946h-.593v-2.649h-.012zm1.046 1.186c.265 0 .354-.139.354-.34 0-.202-.089-.341-.354-.341h-.44v.68h.44zm1.312 1.424v-.554c.126.025.416.075.782.075.302 0 .454-.038.454-.214 0-.19-.126-.215-.555-.416-.416-.19-.732-.353-.732-.807 0-.555.341-.744.997-.744.34 0 .58.025.744.05v.555c-.152-.013-.416-.05-.72-.05-.352 0-.428.037-.428.176 0 .151.19.227.48.353.44.202.794.366.794.87 0 .53-.328.77-1.034.77a3.22 3.22 0 0 1-.782-.064z" fill="#231916"/><g fill="#E60013"><path d="M20.51 11.388 17.962 7l-2.534 4.388 2.534 4.401 2.547-4.4zm0 8.79h5.069l-2.535-4.388h-5.082l2.547 4.388z"/><path d="M15.428 20.178h-5.07l2.535-4.388h5.07l-2.536 4.388z"/></g></svg>