<svg width="36" height="36" fill="none" xmlns="http://www.w3.org/2000/svg"><path d="M18 0c2.837 0 5.52.656 7.907 1.825C31.884 4.753 36 10.895 36 18c0 9.942-8.058 18-18 18-9.94 0-18-8.057-18-18C0 8.06 8.06 0 18 0z" fill="#F2F4F7"/><path d="M17.441 15.02c-.664 0-1.369.063-1.597.955-.228.892.353 1.265.913 1.66l2.385 1.596c.166.104.104.353-.083.353h-3.817c-.207 0-.352.104-.414.332l-.125.477h4.564c.663 0 1.369-.124 1.597-1.016.228-.892-.353-1.266-.913-1.66l-2.323-1.597c-.208-.145-.145-.415.104-.415h3.028c.809 0 .913-.394.996-.705H17.44v.02zm7.467 5.352L26.298 15h3.257c2.074 0 2.78.747 2.302 2.613l-.705 2.76h-1.763l.705-2.76c.332-1.306.166-1.908-.705-1.908h-1.473l-1.203 4.667h-1.805zm-13.316 0 1.203-4.625c.166-.643.54-.747.954-.747h1.39l-.021.083s-.394.062-.54.622l-1.202 4.667h-1.784zm10.205 0L23 15.747c.166-.643.54-.747.954-.747h1.39l-.02.083s-.395.062-.54.622l-1.203 4.667h-1.784zM8.377 15.02c-1.535 0-3.091.436-3.651 2.614L4 20.372h1.763l.104-.394c.311-1.203 3.09-1.556 3.09-1.556l-.497 1.95h1.763L11.613 15H8.377v.02zm.705 2.925-2.78.332.166-.664c.332-1.306.872-1.908 2.054-1.908h1.12l-.56 2.24z" fill="#001A72"/></svg>