<svg width="36" height="36" fill="none" xmlns="http://www.w3.org/2000/svg"><defs><linearGradient id="a" x1="9.907" y1="11.173" x2="23.633" y2="25.527" gradientUnits="userSpaceOnUse"><stop stop-color="#1562AE"/><stop offset=".86" stop-color="#1B294F"/></linearGradient><linearGradient id="b" x1="18.7" y1="9" x2="18" y2="26.333" gradientUnits="userSpaceOnUse"><stop stop-color="#DFDFDF"/><stop offset=".44" stop-color="#D1D9DB"/><stop offset=".58" stop-color="#5C6159"/><stop offset=".79" stop-color="#D9DCDD"/><stop offset="1" stop-color="#9E9FA9"/></linearGradient><linearGradient id="c" x1="18.14" y1="11.033" x2="18.14" y2="24.727" gradientUnits="userSpaceOnUse"><stop offset=".35" stop-color="#fff"/><stop offset="1" stop-color="#88949F"/></linearGradient></defs><path d="M18 0c2.837 0 5.52.656 7.907 1.825C31.884 4.753 36 10.895 36 18c0 9.942-8.058 18-18 18-9.94 0-18-8.057-18-18C0 8.06 8.06 0 18 0z" fill="#F2F4F7"/><path d="M17.9 25.527c7.467 0 13.52-3.52 13.52-7.86 0-4.341-6.053-7.86-13.52-7.86s-13.52 3.519-13.52 7.86c0 4.34 6.053 7.86 13.52 7.86z" fill="url(#a)"/><path d="M18 9c3.507 0 7.267.753 10.253 2.767 1.934 1.313 3.747 3.3 3.747 5.9 0 3.026-2.447 5.233-4.793 6.526-2.787 1.54-6.074 2.14-9.207 2.14-3.507 0-7.253-.746-10.247-2.766C5.82 22.253 4 20.267 4 17.673c0-3.053 2.44-5.246 4.793-6.533C11.593 9.6 14.867 9 18 9zm-.027.92c-3.266 0-6.773.647-9.6 2.453-1.78 1.12-3.533 2.894-3.533 5.247 0 2.767 2.38 4.707 4.507 5.813 2.633 1.367 5.713 1.894 8.626 1.894 3.267 0 6.774-.647 9.6-2.454 1.774-1.133 3.534-2.893 3.534-5.246 0-2.774-2.374-4.714-4.507-5.814-2.633-1.366-5.713-1.893-8.627-1.893z" fill="url(#b)"/><path d="m5.673 15.707 5.367-.967 1.613-3.707 1.6 3.707 5.367.966-5.36.98-1.607 3.72-1.613-3.72-5.367-.98zm11.794 2.826 2.366-.44.707-1.673.707 1.673 2.36.44-2.36.433-.707 1.68-.707-1.68-2.366-.433zm4.893-4.467 2.367-.433.706-1.686.707 1.686 2.367.427-2.367.447-.707 1.673-.706-1.673-2.367-.447v.006zM19.827 22l2.36-.433.706-1.68.714 1.68 2.366.433-2.366.44-.714 1.68-.706-1.68-2.354-.44h-.006zm-7.267.607 2.367-.434.713-1.686.707 1.686 2.366.434-2.366.44-.707 1.68-.713-1.68-2.367-.44zm11.9-4.134 2.353-.447.707-1.68.72 1.68 2.36.44-2.36.434-.72 1.673-.707-1.673-2.353-.433v.006z" fill="url(#c)"/></svg>