<svg width="36" height="36" fill="none" xmlns="http://www.w3.org/2000/svg"><path d="M18 0c2.837 0 5.52.656 7.907 1.825C31.884 4.753 36 10.895 36 18c0 9.942-8.058 18-18 18-9.94 0-18-8.057-18-18C0 8.06 8.06 0 18 0z" fill="#F2F4F7"/><path d="M25.295 15.471v5.01h1.023v-2.098h.888v2.098h1.023v-5.01h-1.015v2.001h-.896v-2h-1.023zm-7.907 0v5.01h.933v-3.18l.553 3.18h.627l.56-3.18v3.18H21v-5.01h-1.396l-.41 2.412-.411-2.412h-1.396zm-5.898 0 .619 2.24.627-2.24h1.023l-1.105 3.368v1.642H11.57V18.84l-1.105-3.368h1.023zm4.434 0h-1.359l-.888 5.01h1.015l.172-1.194h.77l.17 1.194h1.024l-.904-5.01zm-.68 1.135.255 1.777h-.508l.254-1.777zm8.58-1.135h-1.359l-.889 5.01h1.016l.172-1.194h.769l.171 1.194h1.023l-.903-5.01zm-.68 1.135.254 1.777h-.507l.254-1.777zm7.916-1.135H29.7l-.888 5.01h1.015L30 19.287h.769l.172 1.194h1.023l-.904-5.01zm-.68 1.135.254 1.777h-.508l.254-1.777z" fill="#EE2E24"/><path d="M4.045 17.972a2.967 2.967 0 0 1 2.964-2.964 2.967 2.967 0 0 1 2.964 2.964 2.967 2.967 0 0 1-2.964 2.964 2.967 2.967 0 0 1-2.964-2.964z" fill="url(#a)"/><path d="M7.009 15.217a2.86 2.86 0 1 1 0 5.72 2.86 2.86 0 0 1 0-5.72zM5.06 19.4a2.367 2.367 0 0 0 1.949 1.03c.806 0 1.523-.41 1.949-1.03l.007-.008.403.09h.008a.04.04 0 0 0 .037-.023c.008-.007.008-.015.008-.022 0-.008 0-.022-.008-.03l-.283-.299V19.1a2.362 2.362 0 0 0-1.949-3.375h-.008l-.127-.396c0-.022-.015-.03-.037-.03a.05.05 0 0 0-.045.03l-.127.396H6.83a2.355 2.355 0 0 0-1.949 3.368l.007.007-.276.306c-.007.008-.007.015-.007.03 0 .007 0 .015.007.022a.041.041 0 0 0 .038.023h.007l.403-.082z" fill="#000"/><path d="M7.203 20.1v-1.389L7.01 18.6l-.194.111v1.39h-.261v-1.233l-.224.127a.43.43 0 0 1-.232.06.513.513 0 0 1-.18-.037.3.3 0 0 0-.111-.023.335.335 0 0 0-.142.038.292.292 0 0 0-.142.216v.008l-.851.201h-.007c-.008 0-.023-.007-.023-.015 0-.007-.007-.007-.007-.015 0-.007 0-.015.007-.015l.605-.642h.007a.298.298 0 0 0 .112.023.335.335 0 0 0 .142-.038.292.292 0 0 0 .142-.209.467.467 0 0 1 .224-.343l.224-.127-1.068-.62.135-.224 1.202.694.194-.111v-.224l-1.202-.695.134-.224 1.068.62v-.254a.47.47 0 0 1 .18-.366.287.287 0 0 0 0-.455l-.016-.023.262-.844c0-.014.015-.022.03-.022.014 0 .022.008.03.022l.246.844-.008.008a.29.29 0 0 0-.112.231c0 .09.045.18.112.224a.45.45 0 0 1 .18.366v.254l1.067-.62.135.224-1.202.695v.224l.194.112 1.202-.695.134.224-1.068.62.224.127a.45.45 0 0 1 .224.343c.008.082.06.165.142.21a.335.335 0 0 0 .142.037.3.3 0 0 0 .112-.023h.008l.597.65c.007.007.007.015.007.022v.015c-.007.008-.014.015-.022.015h-.007l-.86-.201v-.008a.298.298 0 0 0-.141-.216.335.335 0 0 0-.142-.038.3.3 0 0 0-.112.023.513.513 0 0 1-.179.037.532.532 0 0 1-.231-.06l-.224-.127V20.1h-.262zm.262-1.762v.224l.35.202c.03.015.068.03.098.03a.207.207 0 0 0 .171-.097.243.243 0 0 0 .03-.098.207.207 0 0 0-.097-.171l-.35-.202-.202.112zm-1.456.09a.207.207 0 0 0-.098.171c0 .03.008.068.03.098.038.06.105.097.172.097.03 0 .067-.008.097-.03l.351-.202v-.224l-.194-.112-.358.202zm1-.112.008-.008-.008.008zm-.194-.359v.224l.194.112.194-.112v-.224l-.194-.112-.194.112zm0-.522.194.112.194-.112v-.411a.198.198 0 0 0-.194-.194.198.198 0 0 0-.194.194v.41z" fill="#000"/><path d="M7.01 15.18a2.849 2.849 0 0 0-2.846 2.845 2.849 2.849 0 0 0 2.845 2.844 2.844 2.844 0 1 0 0-5.69zm2.359 4.27-.396-.089a2.359 2.359 0 0 1-1.956 1.038c-.814 0-1.531-.41-1.957-1.038l-.395.09a.068.068 0 0 1-.06-.03c-.015-.023-.008-.045 0-.067l.276-.3a2.383 2.383 0 0 1 1.964-3.397l.12-.388a.056.056 0 0 1 .052-.037c.022 0 .044.015.052.037l.12.389a2.372 2.372 0 0 1 2.194 2.367c0 .365-.082.716-.231 1.03l.276.299c.015.015.015.044.008.067-.008.022-.045.03-.067.03z" fill="#000"/><path d="m9.369 19.376-.598-.635a.311.311 0 0 1-.269-.015.314.314 0 0 1-.149-.224.445.445 0 0 0-.216-.336l-.24-.142 1.076-.62-.12-.208-1.194.687-.21-.12v-.239l1.195-.687-.12-.209-1.074.62v-.276a.435.435 0 0 0-.18-.359.29.29 0 0 1-.12-.239.29.29 0 0 1 .12-.239l-.246-.82c0-.008-.007-.008-.015-.008-.007 0-.015.007-.015.007l-.254.836a.29.29 0 0 1 .12.24.29.29 0 0 1-.12.238.435.435 0 0 0-.179.359v.276l-1.068-.627-.12.209 1.196.687v.239l-.21.12-1.194-.688-.12.202 1.076.62-.24.141a.444.444 0 0 0-.216.336.288.288 0 0 1-.15.224.309.309 0 0 1-.268.015l-.597.635c-.008.007-.008.015 0 .015 0 .007.007.007.015.007l.85-.194a.288.288 0 0 1 .15-.224.294.294 0 0 1 .261-.015.437.437 0 0 0 .396-.022l.239-.142v1.24H6.8v-1.382l.21-.12.208.12v1.382h.239V18.8l.239.142a.438.438 0 0 0 .396.022.294.294 0 0 1 .261.015.33.33 0 0 1 .15.224l.85.194c.008 0 .016 0 .016-.007.007-.008.007-.015 0-.015zm-2.36-1.113-.209-.119v-.239l.21-.12.208.12v.239l-.209.12zM6.8 16.98a.21.21 0 0 1 .21-.209c.119 0 .208.09.208.21v.417l-.209.12-.209-.12v-.418zm-.597 1.755a.208.208 0 0 1-.284-.075.208.208 0 0 1 .075-.284l.358-.209.209.12v.239l-.358.209zm1.896-.075a.208.208 0 0 1-.284.075l-.358-.21v-.238l.21-.12.358.21a.204.204 0 0 1 .074.283z" fill="#000"/><path d="M7.01 15.127a2.849 2.849 0 0 0-2.846 2.845 2.849 2.849 0 0 0 2.845 2.845 2.849 2.849 0 0 0 2.845-2.845 2.84 2.84 0 0 0-2.845-2.845zm2.359 4.264-.396-.09a2.382 2.382 0 0 1-1.964 1.038c-.814 0-1.53-.41-1.956-1.038l-.396.09a.068.068 0 0 1-.06-.03c-.015-.022-.007-.045 0-.067l.277-.299a2.37 2.37 0 0 1-.232-1.03c0-1.247.963-2.27 2.195-2.36l.12-.388a.056.056 0 0 1 .052-.037c.022 0 .045.015.052.037l.12.388a2.373 2.373 0 0 1 2.202 2.367c0 .366-.082.717-.231 1.03l.276.3c.015.014.015.044.008.067-.023.014-.045.03-.067.022z" fill="url(#b)"/><path d="m9.369 19.316-.598-.635a.31.31 0 0 1-.269-.015.314.314 0 0 1-.149-.224.445.445 0 0 0-.216-.336l-.24-.142 1.076-.62-.12-.208-1.194.687-.21-.12v-.239l1.195-.687-.12-.209-1.074.62v-.276a.435.435 0 0 0-.18-.359.29.29 0 0 1-.12-.239.29.29 0 0 1 .12-.239l-.246-.821c0-.007-.007-.007-.015-.007-.007 0-.015.007-.015.007l-.254.836a.29.29 0 0 1 .12.24.29.29 0 0 1-.12.238.435.435 0 0 0-.179.359v.276l-1.068-.627-.12.209 1.196.687v.239l-.21.119-1.194-.687-.12.21 1.076.619-.24.142a.444.444 0 0 0-.216.336.288.288 0 0 1-.15.224.309.309 0 0 1-.268.015l-.597.634c-.008.008-.008.015 0 .015 0 .008.007.008.015.008l.85-.194a.288.288 0 0 1 .15-.224.294.294 0 0 1 .261-.015.437.437 0 0 0 .396-.023l.239-.142v1.24H6.8v-1.381l.21-.12.208.12v1.38h.239v-1.246l.239.142a.438.438 0 0 0 .396.022.294.294 0 0 1 .261.015.33.33 0 0 1 .15.224l.85.194c.008 0 .016 0 .016-.007.007-.008.007-.008 0-.015zm-2.36-1.105-.209-.12v-.239l.21-.119.208.12v.238l-.209.12zM6.8 16.919a.21.21 0 0 1 .21-.209c.119 0 .208.09.208.21v.417l-.209.12-.209-.12v-.418zm-.597 1.755a.208.208 0 0 1-.284-.075.208.208 0 0 1 .075-.284l.358-.209.209.12v.239l-.358.209zm1.896-.075a.208.208 0 0 1-.284.075l-.358-.21v-.238l.21-.12.358.21c.097.06.134.186.074.283z" fill="url(#c)"/><g opacity=".4"><path opacity=".4" d="M7.01 15.127a2.849 2.849 0 0 0-2.846 2.845 2.849 2.849 0 0 0 2.845 2.845 2.849 2.849 0 0 0 2.845-2.845 2.84 2.84 0 0 0-2.845-2.845zm2.359 4.264-.396-.09a2.382 2.382 0 0 1-1.964 1.038c-.814 0-1.53-.41-1.956-1.038l-.396.09a.068.068 0 0 1-.06-.03c-.015-.022-.007-.045 0-.067l.277-.299a2.37 2.37 0 0 1-.232-1.03c0-1.247.963-2.27 2.195-2.36l.12-.388a.056.056 0 0 1 .052-.037c.022 0 .045.015.052.037l.12.388a2.373 2.373 0 0 1 2.202 2.367c0 .366-.082.717-.231 1.03l.276.3c.015.014.015.044.008.067-.023.014-.045.03-.067.022z" fill="#fff"/><path opacity=".81" d="M7.01 15.127a2.849 2.849 0 0 0-2.846 2.845 2.849 2.849 0 0 0 2.845 2.845 2.849 2.849 0 0 0 2.845-2.845 2.84 2.84 0 0 0-2.845-2.845zm2.359 4.264-.396-.09a2.382 2.382 0 0 1-1.964 1.038c-.814 0-1.53-.41-1.956-1.038l-.396.09a.068.068 0 0 1-.06-.03c-.015-.022-.007-.045 0-.067l.277-.299a2.37 2.37 0 0 1-.232-1.03c0-1.247.963-2.27 2.195-2.36l.12-.388a.056.056 0 0 1 .052-.037c.022 0 .045.015.052.037l.12.388a2.373 2.373 0 0 1 2.202 2.367c0 .366-.082.717-.231 1.03l.276.3c.015.014.015.044.008.067-.023.014-.045.03-.067.022z" fill="#303234"/></g><g opacity=".35"><path opacity=".35" d="m9.369 19.316-.598-.635a.31.31 0 0 1-.269-.015.314.314 0 0 1-.149-.224.445.445 0 0 0-.216-.336l-.24-.142 1.076-.62-.12-.208-1.194.687-.21-.12v-.239l1.195-.687-.12-.209-1.074.62v-.276a.435.435 0 0 0-.18-.359.29.29 0 0 1-.119-.239.29.29 0 0 1 .12-.239l-.247-.821c0-.007-.007-.007-.015-.007-.007 0-.015.007-.015.007l-.254.836a.29.29 0 0 1 .12.24.29.29 0 0 1-.12.238.435.435 0 0 0-.179.359v.276l-1.068-.627-.12.209 1.196.687v.239l-.21.119-1.194-.687-.12.21 1.076.619-.24.142a.444.444 0 0 0-.216.336.288.288 0 0 1-.15.224.309.309 0 0 1-.268.015l-.597.634c-.008.008-.008.015 0 .015 0 .008.007.008.015.008l.85-.194a.288.288 0 0 1 .15-.224.294.294 0 0 1 .261-.015.437.437 0 0 0 .396-.023l.24-.142v1.24H6.8v-1.381l.21-.12.208.12v1.38h.24v-1.246l.238.142a.438.438 0 0 0 .396.022.294.294 0 0 1 .261.015.33.33 0 0 1 .15.224l.85.194c.008 0 .016 0 .016-.007.007-.008.007-.008 0-.015zm-2.36-1.105-.209-.12v-.239l.21-.119.208.12v.238l-.209.12zM6.8 16.919a.21.21 0 0 1 .21-.209c.119 0 .208.09.208.21v.417l-.209.12-.209-.12v-.418zm-.597 1.755a.208.208 0 0 1-.284-.075.208.208 0 0 1 .075-.284l.358-.209.21.12v.239l-.36.209zm1.896-.075a.208.208 0 0 1-.283.075l-.359-.21v-.238l.21-.12.358.21c.097.06.134.186.074.283z" fill="#fff"/><path opacity=".6" d="m9.369 19.316-.598-.635a.31.31 0 0 1-.269-.015.314.314 0 0 1-.149-.224.445.445 0 0 0-.216-.336l-.24-.142 1.076-.62-.12-.208-1.194.687-.21-.12v-.239l1.195-.687-.12-.209-1.074.62v-.276a.435.435 0 0 0-.18-.359.29.29 0 0 1-.119-.239.29.29 0 0 1 .12-.239l-.247-.821c0-.007-.007-.007-.015-.007-.007 0-.015.007-.015.007l-.254.836a.29.29 0 0 1 .12.24.29.29 0 0 1-.12.238.435.435 0 0 0-.179.359v.276l-1.068-.627-.12.209 1.196.687v.239l-.21.119-1.194-.687-.12.21 1.076.619-.24.142a.444.444 0 0 0-.216.336.288.288 0 0 1-.15.224.309.309 0 0 1-.268.015l-.597.634c-.008.008-.008.015 0 .015 0 .008.007.008.015.008l.85-.194a.288.288 0 0 1 .15-.224.294.294 0 0 1 .261-.015.437.437 0 0 0 .396-.023l.24-.142v1.24H6.8v-1.381l.21-.12.208.12v1.38h.24v-1.246l.238.142a.438.438 0 0 0 .396.022.294.294 0 0 1 .261.015.33.33 0 0 1 .15.224l.85.194c.008 0 .016 0 .016-.007.007-.008.007-.008 0-.015zm-2.36-1.105-.209-.12v-.239l.21-.119.208.12v.238l-.209.12zM6.8 16.919a.21.21 0 0 1 .21-.209c.119 0 .208.09.208.21v.417l-.209.12-.209-.12v-.418zm-.597 1.755a.208.208 0 0 1-.284-.075.208.208 0 0 1 .075-.284l.358-.209.21.12v.239l-.36.209zm1.896-.075a.208.208 0 0 1-.283.075l-.359-.21v-.238l.21-.12.358.21c.097.06.134.186.074.283z" fill="#47474B"/></g><path d="M7.01 15.127a2.849 2.849 0 0 0-2.846 2.845 2.849 2.849 0 0 0 2.845 2.845 2.849 2.849 0 0 0 2.845-2.845 2.84 2.84 0 0 0-2.845-2.845zm2 4.846a2.81 2.81 0 0 1-2 .83 2.81 2.81 0 0 1-2.002-.83 2.854 2.854 0 0 1-.829-2c0-.785.314-1.487.829-2.002a2.822 2.822 0 0 1 2.001-.829 2.81 2.81 0 0 1 2.001.83c.515.514.829 1.216.829 2 0 .777-.314 1.486-.829 2.001z" fill="url(#d)"/><path d="M7.01 17.472v-.015l-.21-.12-.007.008.216.127z" fill="#EBEBEB"/><path d="M7.009 16.718v-.015a.225.225 0 0 0-.224.224v.426l.015-.008v-.418c0-.12.097-.209.209-.209z" fill="url(#e)"/><path d="m7.01 17.71-.217.135.007.008.21-.12v-.022z" fill="#1A1A1A"/><path d="M7.009 15.262v-.015c-.007 0-.015.008-.015.008l-.254.836.015-.008.254-.821z" fill="#fff"/><path d="M6.583 17.225v-.306a.42.42 0 0 1 .172-.343.322.322 0 0 0 .127-.247.315.315 0 0 0-.12-.246l-.014.008a.29.29 0 0 1 .12.238.29.29 0 0 1-.12.24.435.435 0 0 0-.18.358v.276l.015.022z" fill="url(#f)"/><path d="m5.374 16.785 1.195.687.014-.008-1.194-.687-.015.008z" fill="gray"/><path d="m6.569 17.71.014.008v-.254l-.014.008v.239z" fill="#F2F2F2"/><path d="m5.389 16.778.104-.18-.007-.022-.112.21.015-.008z" fill="#fff"/><path d="m6.569 17.203-1.083-.627.007.023 1.09.627-.014-.023z" fill="#EBEBEB"/><path d="M7.009 17.472v-.015l.21-.12.014.008-.224.127z" fill="#F2F2F2"/><path d="M7.009 16.718v-.015c.12 0 .224.097.224.224v.426l-.015-.008v-.418c0-.12-.09-.209-.209-.209z" fill="url(#g)"/><path d="m7.009 17.71.224.135-.015.008-.209-.12v-.022z" fill="gray"/><path d="M7.009 15.262v-.015c.007 0 .015.008.015.008l.254.836-.015-.008-.254-.821z" fill="#F2F2F2"/><path d="M7.442 17.225v-.306a.42.42 0 0 0-.172-.343.322.322 0 0 1-.127-.247c0-.097.045-.186.12-.246l.015.008a.29.29 0 0 0-.12.238.29.29 0 0 0 .12.24c.112.082.18.208.18.358v.276l-.016.022z" fill="url(#h)"/><path d="m8.652 16.785-1.195.687-.015-.008 1.187-.687.023.008z" fill="#1A1A1A"/><path d="m7.457 17.71-.015.008v-.254l.015.008v.239z" fill="#4D4D4D"/><path d="m8.63 16.778-.105-.18.007-.022.12.21-.023-.008z" fill="#B2B2B2"/><path d="m7.457 17.203 1.075-.627-.007.023-1.083.627.015-.023zm-.874 1.016-.014.007v.24l.014.007v-.254z" fill="#F2F2F2"/><path d="m5.926 18.6-.015.007c.06.105.195.142.307.082l.365-.209-.014-.007-.359.209a.214.214 0 0 1-.284-.082z" fill="url(#i)"/><path d="m6.793 18.1.216.126v-.015l-.209-.12-.007.008z" fill="#EBEBEB"/><path d="m4.665 19.323-.015.008c0 .008.007.008.015.008l.85-.195-.014-.015-.836.194z" fill="url(#j)"/><path d="m6.583 18.719-.26.15a.444.444 0 0 1-.39.021.302.302 0 0 0-.275.015.307.307 0 0 0-.15.224l.015.015a.288.288 0 0 1 .15-.224.294.294 0 0 1 .26-.015.437.437 0 0 0 .397-.022l.239-.142.014-.022z" fill="url(#k)"/><path d="M6.8 19.98V18.6l-.007-.008v1.374l.007.015z" fill="#4D4D4D"/><path d="M7.01 18.48v-.015l-.217.127.007.007.21-.12z" fill="#1A1A1A"/><path d="M6.793 19.966h-.21l-.014.015H6.8l-.007-.015z" fill="#666"/><path d="M6.569 18.741v1.24l.014-.015v-1.247l-.014.022z" fill="#F2F2F2"/><path d="m6.583 18.219-.014.007-.21-.12v-.014l.224.127z" fill="gray"/><path d="m5.926 18.6-.015.007a.23.23 0 0 1 .083-.306l.365-.21v.016l-.358.209a.202.202 0 0 0-.075.284z" fill="url(#l)"/><path d="M6.793 18.1v-.255l.007.008v.239l-.007.007z" fill="#4D4D4D"/><path d="m4.665 19.324-.015.007v-.015l.597-.634.007.015-.59.627z" fill="#fff"/><path d="m6.15 17.972-.26.15a.43.43 0 0 0-.21.32.328.328 0 0 1-.15.232.312.312 0 0 1-.268.023l-.008-.015a.31.31 0 0 0 .27-.015.314.314 0 0 0 .149-.224.445.445 0 0 1 .216-.336l.239-.142.022.007z" fill="url(#m)"/><path d="m5.165 17.144 1.194.687v.022l-1.187-.687-.007-.022z" fill="#EBEBEB"/><path d="m6.569 17.71.014.008-.224.135v-.023l.21-.12z" fill="#F2F2F2"/><path d="m5.172 17.166-.104.18h-.023l.12-.202.007.022z" fill="#fff"/><path d="m6.12 17.972-1.075-.627h.023l1.082.627h-.03z" fill="gray"/><path d="m7.442 18.219.015.007.202-.12v-.014l-.217.127z" fill="#1A1A1A"/><path d="m8.1 18.6.014.007a.23.23 0 0 0-.082-.306l-.373-.21v.016l.358.209c.105.06.142.187.082.284z" fill="url(#n)"/><path d="M7.233 18.1v-.255l-.015.008v.239l.015.007z" fill="#F2F2F2"/><path d="m9.361 19.324.015.007v-.015l-.597-.634v.015l.582.627z" fill="#CCC"/><path d="m7.875 17.972.262.15a.43.43 0 0 1 .209.32c.015.098.067.18.156.232a.311.311 0 0 0 .27.022v-.015a.311.311 0 0 1-.27-.014.314.314 0 0 1-.149-.224.42.42 0 0 0-.216-.329l-.24-.142h-.022z" fill="url(#o)"/><path d="m8.86 17.144-1.194.687v.022l1.187-.687.008-.022z" fill="#F2F2F2"/><path d="m7.457 17.71-.015.008.224.135v-.023l-.209-.12z" fill="#EBEBEB"/><path d="m8.853 17.166.105.18.022.007-.12-.21-.007.023z" fill="#B2B2B2"/><path d="m7.898 17.972 1.082-.62-.022-.007-1.083.627h.023z" fill="#1A1A1A"/><path d="m7.442 18.219.015.007v.24l-.015.007v-.254z" fill="#4D4D4D"/><path d="m8.1 18.6.014.007a.227.227 0 0 1-.306.082l-.366-.209.015-.007.358.209A.218.218 0 0 0 8.1 18.6z" fill="url(#p)"/><path d="m7.233 18.1-.224.126v-.015l.21-.12.014.008z" fill="#fff"/><path d="m9.361 19.323.015.008c0 .008-.007.008-.015.008l-.851-.195.015-.015.836.194z" fill="url(#q)"/><path d="m7.442 18.719.261.15c.12.066.262.074.389.021a.326.326 0 0 1 .276.015.307.307 0 0 1 .15.224l-.016.015a.288.288 0 0 0-.149-.224.294.294 0 0 0-.261-.015.437.437 0 0 1-.396-.022l-.239-.142-.015-.022z" fill="url(#r)"/><path d="M7.218 19.98V18.6l.015-.008v1.374l-.015.015z" fill="#F2F2F2"/><path d="M7.009 18.48v-.015l.224.127-.015.007-.209-.12z" fill="gray"/><path d="M7.233 19.966h.21l.014.015h-.239l.015-.015z" fill="#666"/><path d="M7.457 18.741v1.24l-.015-.015v-1.247l.015.022z" fill="#4D4D4D"/><path d="m7.069 15.217.12.388.007-.015-.12-.38c-.015-.03-.037-.045-.067-.045v.015c.022.007.045.014.06.037z" fill="url(#s)"/><path d="M9.398 17.972a2.38 2.38 0 0 0-2.195-2.374l-.007.015a2.36 2.36 0 0 1 2.187 2.36c0 .365-.082.716-.231 1.03h.015c.142-.314.231-.665.231-1.03z" fill="url(#t)"/><path d="m9.428 19.286-.269-.29h-.014l.276.298c.015.015.015.045.007.067l.015.008c.008-.015.008-.023.008-.038-.008-.015-.008-.03-.023-.045z" fill="url(#u)"/><path d="M9.42 19.361a.068.068 0 0 1-.059.03l-.396-.09.008.015.388.082h.015a.089.089 0 0 0 .067-.037h-.022z" fill="url(#v)"/><path d="M8.973 19.309a2.394 2.394 0 0 1-1.964 1.03c-.814 0-1.53-.41-1.956-1.038l-.008.023a2.384 2.384 0 0 0 3.927 0v-.015z" fill="url(#w)"/><path d="M4.65 19.406h.007l.388-.082.008-.015-.396.09a.068.068 0 0 1-.06-.03l-.015.007c.015.015.038.03.068.03z" fill="url(#x)"/><path d="M4.59 19.286c-.008.015-.015.03-.015.045s0 .023.007.038l.015-.008c-.015-.022-.007-.045 0-.067l.277-.299h-.015l-.27.291z" fill="url(#y)"/><path d="M4.627 17.972c0 .366.082.717.232 1.03h.015a2.37 2.37 0 0 1-.232-1.03c0-1.254.963-2.277 2.195-2.367l-.007-.015a2.387 2.387 0 0 0-2.203 2.382z" fill="url(#z)"/><path d="m6.942 15.217-.12.381.015.007.12-.388a.056.056 0 0 1 .052-.037v-.008c-.03 0-.052.015-.067.045z" fill="url(#A)"/><defs><linearGradient id="d" x1="5.009" y1="15.969" x2="9.012" y2="19.972" gradientUnits="userSpaceOnUse"><stop stop-color="#EDEDED"/><stop offset=".637" stop-color="#666"/><stop offset="1" stop-color="#E6E6E6"/></linearGradient><linearGradient id="e" x1="7.23" y1="17.023" x2="6.788" y2="17.023" gradientUnits="userSpaceOnUse"><stop stop-color="#fff"/><stop offset=".181" stop-color="#CDCDCD"/><stop offset=".371" stop-color="#9F9F9F"/><stop offset=".554" stop-color="#7C7C7C"/><stop offset=".724" stop-color="#626262"/><stop offset=".878" stop-color="#525252"/><stop offset="1" stop-color="#4D4D4D"/></linearGradient><linearGradient id="f" x1="6.721" y1="16.114" x2="6.721" y2="17.154" gradientUnits="userSpaceOnUse"><stop stop-color="#BDBFC1"/><stop offset=".108" stop-color="#C4C6C7"/><stop offset=".281" stop-color="#D9D9DA"/><stop offset=".483" stop-color="#fff"/><stop offset="1" stop-color="#E8E7E8"/></linearGradient><linearGradient id="g" x1="7.23" y1="17.023" x2="6.787" y2="17.023" gradientUnits="userSpaceOnUse"><stop stop-color="#F2F2F2"/><stop offset=".055" stop-color="#E6E6E6"/><stop offset=".275" stop-color="#B8B8B8"/><stop offset=".485" stop-color="#959595"/><stop offset=".681" stop-color="#7B7B7B"/><stop offset=".859" stop-color="#6B6B6B"/><stop offset="1" stop-color="#666"/></linearGradient><linearGradient id="h" x1="7.3" y1="16.085" x2="7.3" y2="17.286" gradientUnits="userSpaceOnUse"><stop stop-color="#4D4D4D"/><stop offset=".068" stop-color="#525252"/><stop offset=".151" stop-color="#616161"/><stop offset=".242" stop-color="#7A7A7A"/><stop offset=".338" stop-color="#9C9C9C"/><stop offset=".438" stop-color="#C8C8C8"/><stop offset=".54" stop-color="#FDFDFD"/><stop offset=".544" stop-color="#fff"/><stop offset=".629" stop-color="#CACACA"/><stop offset=".715" stop-color="#9E9E9E"/><stop offset=".797" stop-color="#7B7B7B"/><stop offset=".874" stop-color="#616161"/><stop offset=".944" stop-color="#525252"/><stop offset="1" stop-color="#4D4D4D"/></linearGradient><linearGradient id="i" x1="6.233" y1="18.518" x2="6.195" y2="18.448" gradientUnits="userSpaceOnUse"><stop stop-color="#fff"/><stop offset="1" stop-color="#666"/></linearGradient><linearGradient id="j" x1="4.925" y1="19.073" x2="4.943" y2="19.091" gradientUnits="userSpaceOnUse"><stop stop-color="#fff"/><stop offset=".077" stop-color="#E5E5E5"/><stop offset=".253" stop-color="#AFAFAF"/><stop offset=".425" stop-color="#838383"/><stop offset=".589" stop-color="#606060"/><stop offset=".744" stop-color="#474747"/><stop offset=".885" stop-color="#383838"/><stop offset="1" stop-color="#333"/></linearGradient><linearGradient id="k" x1="6.544" y1="18.638" x2="5.588" y2="19.079" gradientUnits="userSpaceOnUse"><stop stop-color="#1A1A1A"/><stop offset=".117" stop-color="#1D1D1D"/><stop offset=".225" stop-color="#282828"/><stop offset=".33" stop-color="#3B3B3B"/><stop offset=".432" stop-color="#555"/><stop offset=".532" stop-color="#777"/><stop offset=".626" stop-color="#9E9E9E"/><stop offset=".633" stop-color="#9B9B9B"/><stop offset=".757" stop-color="#646464"/><stop offset=".864" stop-color="#3B3B3B"/><stop offset=".949" stop-color="#232323"/><stop offset="1" stop-color="#1A1A1A"/></linearGradient><linearGradient id="l" x1="6.187" y1="18.47" x2="6.114" y2="18.302" gradientUnits="userSpaceOnUse"><stop stop-color="#666"/><stop offset="1" stop-color="#333"/></linearGradient><linearGradient id="m" x1="6.203" y1="18.121" x2="5.221" y2="18.64" gradientUnits="userSpaceOnUse"><stop stop-color="#E0E0E0"/><stop offset=".152" stop-color="#D6D6D6"/><stop offset=".41" stop-color="#BCBCBC"/><stop offset=".588" stop-color="#A6A6A6"/><stop offset=".625" stop-color="#BFBFBF"/><stop offset=".676" stop-color="#DBDBDB"/><stop offset=".727" stop-color="#EFEFEF"/><stop offset=".778" stop-color="#FBFBFB"/><stop offset=".83" stop-color="#fff"/><stop offset="1" stop-color="#ADADAD"/></linearGradient><linearGradient id="n" x1="8.173" y1="18.522" x2="7.999" y2="18.407" gradientUnits="userSpaceOnUse"><stop stop-color="#fff"/><stop offset=".003" stop-color="#FEFEFE"/><stop offset=".254" stop-color="#C8C8C8"/><stop offset=".487" stop-color="#9E9E9E"/><stop offset=".697" stop-color="#7F7F7F"/><stop offset=".875" stop-color="#6D6D6D"/><stop offset="1" stop-color="#666"/></linearGradient><linearGradient id="o" x1="7.872" y1="18.344" x2="8.773" y2="18.344" gradientUnits="userSpaceOnUse"><stop stop-color="#E0E0E0"/><stop offset=".152" stop-color="#D6D6D6"/><stop offset=".41" stop-color="#BCBCBC"/><stop offset=".588" stop-color="#A6A6A6"/><stop offset=".651" stop-color="#BFBFBF"/><stop offset=".738" stop-color="#DBDBDB"/><stop offset=".826" stop-color="#EFEFEF"/><stop offset=".913" stop-color="#FBFBFB"/><stop offset="1" stop-color="#fff"/></linearGradient><linearGradient id="p" x1="8.044" y1="18.717" x2="7.87" y2="18.602" gradientUnits="userSpaceOnUse"><stop stop-color="#fff"/><stop offset=".124" stop-color="#F8F8F8"/><stop offset=".305" stop-color="#E5E5E5"/><stop offset=".521" stop-color="#C5C5C5"/><stop offset=".76" stop-color="#999"/><stop offset="1" stop-color="#666"/></linearGradient><linearGradient id="q" x1="9.251" y1="19.091" x2="9.23" y2="19.101" gradientUnits="userSpaceOnUse"><stop stop-color="#CCC"/><stop offset=".118" stop-color="#B9B9B9"/><stop offset=".321" stop-color="#A0A0A0"/><stop offset=".531" stop-color="#8E8E8E"/><stop offset=".752" stop-color="#838383"/><stop offset="1" stop-color="gray"/></linearGradient><linearGradient id="r" x1="7.441" y1="18.929" x2="8.518" y2="18.929" gradientUnits="userSpaceOnUse"><stop stop-color="#999"/><stop offset=".088" stop-color="#949494"/><stop offset=".189" stop-color="#868686"/><stop offset=".297" stop-color="#6F6F6F"/><stop offset=".409" stop-color="#4F4F4F"/><stop offset=".523" stop-color="#262626"/><stop offset=".555" stop-color="#1A1A1A"/><stop offset=".599" stop-color="#202020"/><stop offset=".659" stop-color="#313131"/><stop offset=".728" stop-color="#4E4E4E"/><stop offset=".803" stop-color="#767676"/><stop offset=".884" stop-color="#A9A9A9"/><stop offset=".969" stop-color="#E6E6E6"/><stop offset="1" stop-color="#fff"/></linearGradient><linearGradient id="s" x1="7.188" y1="15.388" x2="6.827" y2="15.388" gradientUnits="userSpaceOnUse"><stop stop-color="#CCC"/><stop offset="1" stop-color="#3D3D3D"/></linearGradient><linearGradient id="t" x1="9.795" y1="18.515" x2="6.44" y2="15.16" gradientUnits="userSpaceOnUse"><stop stop-color="#fff"/><stop offset="1" stop-color="#231A16"/></linearGradient><linearGradient id="u" x1="9.199" y1="19.377" x2="9.282" y2="19.206" gradientUnits="userSpaceOnUse"><stop stop-color="#fff"/><stop offset=".142" stop-color="#FAFAFA"/><stop offset=".307" stop-color="#ECECEC"/><stop offset=".483" stop-color="#D5D5D5"/><stop offset=".668" stop-color="#B4B4B4"/><stop offset=".857" stop-color="#8B8B8B"/><stop offset="1" stop-color="#666"/></linearGradient><linearGradient id="v" x1="9.187" y1="19.371" x2="9.27" y2="19.2" gradientUnits="userSpaceOnUse"><stop stop-color="#fff"/><stop offset=".142" stop-color="#FAFAFA"/><stop offset=".307" stop-color="#ECECEC"/><stop offset=".483" stop-color="#D5D5D5"/><stop offset=".668" stop-color="#B4B4B4"/><stop offset=".857" stop-color="#8B8B8B"/><stop offset="1" stop-color="#666"/></linearGradient><linearGradient id="w" x1="7.988" y1="20.322" x2="4.633" y2="16.967" gradientUnits="userSpaceOnUse"><stop stop-color="#fff"/><stop offset="1" stop-color="#231A16"/></linearGradient><linearGradient id="x" x1="4.842" y1="19.388" x2="4.74" y2="19.172" gradientUnits="userSpaceOnUse"><stop stop-color="#F2F2F2"/><stop offset="1" stop-color="#1A1A1A"/></linearGradient><linearGradient id="y" x1="4.828" y1="19.394" x2="4.727" y2="19.179" gradientUnits="userSpaceOnUse"><stop stop-color="#F2F2F2"/><stop offset="1" stop-color="#1A1A1A"/></linearGradient><linearGradient id="z" x1="8.428" y1="19.883" x2="5.073" y2="16.527" gradientUnits="userSpaceOnUse"><stop stop-color="#fff"/><stop offset="1" stop-color="#231A16"/></linearGradient><linearGradient id="A" x1="7.188" y1="15.388" x2="6.827" y2="15.388" gradientUnits="userSpaceOnUse"><stop stop-color="#CCC"/><stop offset="1" stop-color="#3D3D3D"/></linearGradient><radialGradient id="a" cx="0" cy="0" r="1" gradientUnits="userSpaceOnUse" gradientTransform="matrix(3.40965 0 0 3.40662 6.06 16.352)"><stop stop-color="#F48385"/><stop offset=".098" stop-color="#F48182"/><stop offset=".213" stop-color="#F37B78"/><stop offset=".335" stop-color="#F3716A"/><stop offset=".464" stop-color="#F16156"/><stop offset=".595" stop-color="#F04B3C"/><stop offset=".719" stop-color="#EE2E24"/><stop offset="1" stop-color="#EE2E24"/></radialGradient><radialGradient id="b" cx="0" cy="0" r="1" gradientUnits="userSpaceOnUse" gradientTransform="translate(2.29 13.25) scale(9.88926)"><stop offset=".209" stop-color="#9DA5BD"/><stop offset=".292" stop-color="#B8BED1"/><stop offset=".452" stop-color="#F4F4FA"/><stop offset=".531" stop-color="#F4F4FA"/><stop offset=".544" stop-color="#F4F4FA"/><stop offset=".637" stop-color="#A9B3C9"/><stop offset=".742" stop-color="#343B53"/><stop offset=".76" stop-color="#394159"/><stop offset=".788" stop-color="#485069"/><stop offset=".821" stop-color="#606982"/><stop offset=".858" stop-color="#8790A6"/><stop offset=".895" stop-color="#BCC4D5"/><stop offset=".925" stop-color="#DBDFE9"/><stop offset=".951" stop-color="#F4F4FA"/></radialGradient><radialGradient id="c" cx="0" cy="0" r="1" gradientUnits="userSpaceOnUse" gradientTransform="translate(3.573 14.532) scale(7.60262)"><stop offset=".209" stop-color="#9AA2B8"/><stop offset=".311" stop-color="#BDC2D3"/><stop offset=".456" stop-color="#F4F4FA"/><stop offset=".541" stop-color="#F4F4FA"/><stop offset=".555" stop-color="#F4F4FA"/><stop offset=".626" stop-color="#A2ACC2"/><stop offset=".743" stop-color="#48536F"/><stop offset=".763" stop-color="#4E5874"/><stop offset=".793" stop-color="#5F6984"/><stop offset=".829" stop-color="#7E86A0"/><stop offset=".869" stop-color="#B1B5C8"/><stop offset=".885" stop-color="#CACCDB"/><stop offset=".911" stop-color="#DDDEE9"/><stop offset=".945" stop-color="#F4F4FA"/></radialGradient></defs></svg>