<svg width="36" height="36" fill="none" xmlns="http://www.w3.org/2000/svg"><path d="M18 0c2.837 0 5.52.656 7.907 1.825C31.884 4.753 36 10.895 36 18c0 9.942-8.058 18-18 18-9.94 0-18-8.057-18-18C0 8.06 8.06 0 18 0z" fill="#F2F4F7"/><path d="M6.69 23.587a.801.801 0 0 1-.597-.415.802.802 0 0 1-.029-.688c.017-.038.82-1.308 1.784-2.822l2.544-3.994c.435-.683.804-1.274.82-1.315a.562.562 0 0 0-.034-.478.677.677 0 0 0-.223-.218c-.13-.067-.054-.064-2.022-.065-2.036 0-1.915.005-2.106-.089a.802.802 0 0 1-.407-.928.851.851 0 0 1 .406-.49c.188-.092-.099-.086 3.495-.082l3.233.003.082.028a.833.833 0 0 1 .517.524c.023.07.028.118.028.238a.69.69 0 0 1-.09.383c-.019.03-1.173 1.845-2.566 4.031-1.394 2.187-2.544 4-2.558 4.03a.64.64 0 0 0-.022.317c.04.168.155.31.313.386l.095.045 2.076.007c2.319.007 2.123-.001 2.32.097.124.062.264.2.33.325a.796.796 0 0 1-.606 1.17c-.116.015-6.667.015-6.783 0zm17.144-.006a.916.916 0 0 1-.333-.147.884.884 0 0 1-.228-.279c-.089-.181-.082.309-.078-5.387l.003-5.147.034-.094a.878.878 0 0 1 .221-.328.97.97 0 0 1 .371-.186c.051-.009.924-.013 2.779-.013 2.652 0 2.706 0 2.801.025a.698.698 0 0 1 .36.213.681.681 0 0 1 .152.2.813.813 0 0 1 .041.61.684.684 0 0 1-.173.29.79.79 0 0 1-.328.214l-.1.034-1.863.007c-1.764.006-1.866.007-1.931.03a.848.848 0 0 0-.558.586c-.028.118-.028 2.047 0 2.165a.815.815 0 0 0 .59.592c.094.024.146.025 1.597.025 1.675 0 1.592-.004 1.781.09.191.094.346.28.41.493a.927.927 0 0 1-.012.464.832.832 0 0 1-.51.512l-.082.027-1.567.007-1.568.006-.108.039a.8.8 0 0 0-.463.4c-.09.184-.087.135-.087 1.26 0 .96.001 1.017.024 1.107a.807.807 0 0 0 .584.582c.07.02.209.02 1.831.018 1.253-.002 1.788 0 1.867.01.35.046.621.293.69.631.025.122.025.2 0 .32a.797.797 0 0 1-.537.602l-.101.035-2.71.002c-2.208.002-2.725-.001-2.8-.015zm-5.308-.002a1.115 1.115 0 0 1-.275-.102 1.14 1.14 0 0 1-.342-.341 1.253 1.253 0 0 1-.074-.17l-.03-.087-.006-4.308c-.006-3.921-.008-4.313-.027-4.372a.817.817 0 0 0-.531-.565l-.1-.035-.853-.007c-.78-.006-.859-.009-.922-.03a.817.817 0 0 1-.552-.592 1.127 1.127 0 0 1 .007-.374.815.815 0 0 1 .508-.554l.094-.036 3.216-.003c2.27-.003 3.241 0 3.299.01.11.018.289.107.378.187a.872.872 0 0 1 .224.34c.027.08.03.117.03.263 0 .144-.004.18-.029.25a.835.835 0 0 1-.516.505c-.08.027-.099.028-.934.035-.949.008-.896.003-1.078.098a.855.855 0 0 0-.397.485c-.014.041-.018.792-.023 4.358-.007 4.088-.008 4.311-.03 4.383a.916.916 0 0 1-.643.646 1.332 1.332 0 0 1-.394.016z" fill="#00BFFE"/></svg>