<svg width="36" height="36" fill="none" xmlns="http://www.w3.org/2000/svg"><path d="M18 0c2.837 0 5.52.656 7.907 1.825C31.884 4.753 36 10.895 36 18c0 9.942-8.058 18-18 18-9.94 0-18-8.057-18-18C0 8.06 8.06 0 18 0z" fill="#F2F4F7"/><path d="M9.576 14.22c-.243-.232.672-1.483 2.044-2.794 1.372-1.31 2.68-2.185 2.924-1.953.242.232-.673 1.483-2.044 2.794-1.372 1.31-2.681 2.185-2.924 1.953z" fill="#BCBDC0"/><path d="M9.572 19.06c-.493-.471 1.36-3.006 4.14-5.662 2.78-2.655 5.432-4.426 5.925-3.955.493.471-1.36 3.006-4.14 5.661-2.78 2.656-5.432 4.427-5.925 3.956z" fill="#939598"/><path d="M9.487 25.729c-.608-.972 2.71-3.937 7.412-6.623 4.702-2.687 9.007-4.077 9.615-3.105.608.971-2.71 3.937-7.412 6.623-4.702 2.687-9.007 4.077-9.615 3.105z" fill="#00AEEF"/><path d="M9.514 25.663c-.836-.798 2.286-5.076 6.972-9.554 4.687-4.479 9.165-7.461 10-6.663.836.8-2.285 5.077-6.972 9.555s-9.164 7.461-10 6.662z" fill="#EC008C"/><path d="M9.52 25.642c0-1.127 3.805-2.04 8.498-2.04 4.694 0 8.5.913 8.5 2.04 0 1.126-3.806 2.04-8.5 2.04s-8.499-.914-8.499-2.04z" fill="#FFDE00"/><path d="M9.489 25.728c-.342-1.083 3.192-3.058 7.893-4.41 4.7-1.353 8.788-1.57 9.13-.487.342 1.084-3.192 3.059-7.893 4.411-4.7 1.353-8.789 1.57-9.13.486z" fill="#8CC63F"/><path d="M16.91 19.093c-4.707 2.684-8.017 5.654-7.426 6.62l7.246-4.187c2.684-2.326 4.062-3.578 5.082-4.83a38.459 38.459 0 0 0-4.903 2.415v-.018z" fill="#2E3092"/><path d="M19.11 22.528c-4.688 2.684-9 4.08-9.59 3.114l7.21-4.116c3.4-1.073 5.296-1.252 6.084-1.306-1.217.93-2.005 1.342-3.704 2.326v-.018z" fill="#00A650"/><path d="M13.527 23.942c.93-.18 2.684-.25 3.472-.269-.913.501-2.684 1.217-3.472 1.521-2.54.984-3.703.77-3.972.537 1.074.179 3.096-1.127 3.972-1.79z" fill="#009A4E"/><path d="M16.712 21.526c-2.397.752-7.407 2.845-7.228 4.187.805.537 4.634-1.86 7.228-4.187z" fill="#363639"/></svg>