<svg width="36" height="36" fill="none" xmlns="http://www.w3.org/2000/svg"><path d="M18 0c2.837 0 5.52.656 7.907 1.825C31.884 4.753 36 10.895 36 18c0 9.942-8.058 18-18 18-9.94 0-18-8.057-18-18C0 8.06 8.06 0 18 0z" fill="#F2F4F7"/><path d="M19.565 20.684s.055 1.31.042 1.456c-.011.146-.089.325-.299.332-.254.01-.351-.205-.351-.332 0-.108-.068-2.786-.057-3.631.001-.152.141-.247.262-.247.208 0 .283.163.296.285.026.26.035.64.045 1.019h1.666c-.055-.504-.16-1.218-.264-1.444-.34-.754-1.209-.787-1.75-.787-.893 0-1.477.299-1.764 1.028-.068.172-.172.726-.224 1.8-.07 1.448-.239 2.36.509 2.952.82.524 2.272.506 2.98.118.977-.539.685-1.506.632-2.54l-1.723-.009zm-12.49-3.14L4 23.349l2.252-.048 2.583-5.761-1.76.004zm6.84-.1c-1.094.29-1.22 1.298-1.49 2.315-.216.83-.604 2.078-.423 2.677.272.902 1.24 1.058 1.86 1.058 2.217 0 2.405-1.06 2.583-3.066.134-1.504.275-2.113-.184-2.636-.328-.373-1.231-.641-2.346-.348zm1.032 1.203a229.83 229.83 0 0 1-.54 3.417c-.03.158-.1.412-.409.4-.168-.008-.332-.144-.297-.36.029-.181.606-3.313.626-3.416.021-.106.04-.454.373-.433.303.021.262.268.247.392zm-2.194-1.106H9.165L8.711 18.6h1.045l-1.791 4.668 2.061-.018 1.456-4.645h.991l.28-1.063zm10.957.013.484 2h-.657l-.443-2.006h-1.486l.83 5.66 1.875.006-.533-2.532.688-.012.626 2.567 1.918.012-1.803-5.695H23.71zm8.063 3.822c-.543-1.069-1.997-3.83-1.997-3.83h-1.544l1.92 4.233c.212.393.06.555-.13.582a.451.451 0 0 1-.492-.268l-1.945-4.546H26.05s1.14 3.387 1.597 4.506c.432 1.062 1.227 1.422 2.662 1.386 1.602-.04 2.004-.994 1.463-2.063zM9.904 15.163l1.347-3.012-1.325-.007c-.057.132-1.754 3.296-2.21 4.148l.086.102a17.737 17.737 0 0 1 2.102-1.231zm2.036-2.219-.61 1.6c.76-.273.964-.348 1.563-.522 0 0 .323-1.08.346-1.08h.736l.21-.787-2.687-.004-.343.788.785.005zM15.696 12c-1.079 0-1.473.5-1.738 1.735l1.305-.246s.128-.602.158-.683c.04-.115.163-.126.242-.126.078 0 .178.053.178.15 0 .126-.055.58-.055.58l1.26-.108c.113-.872-.283-1.302-1.35-1.302zm3.089.847c0-.034.042-.165.195-.165.154 0 .195.08.216.15.02.072.041.431.041.431l1.21.09c-.042-1.016-.482-1.346-1.483-1.346-.597 0-1.292.148-1.403 1.26l1.21-.003c0-.048.014-.382.014-.417zm3.476.775-.328-1.459h-1.11l.188 1.265c.455.043.625.074 1.25.194zm1.869.46-.601-1.922h-1.13l.392 1.569c.455.088.762.175 1.34.353zm2.385.904-1.22-2.817h-1.149l.776 2.165c.671.238.81.29 1.593.652zm2.532 1.429.08-.087-2.192-4.157H25.78l1.445 3.145c.7.385.904.512 1.823 1.1z" fill="#005AAA"/></svg>