<svg width="36" height="36" fill="none" xmlns="http://www.w3.org/2000/svg"><path d="M18 0c2.837 0 5.52.656 7.907 1.825C31.884 4.753 36 10.895 36 18c0 9.942-8.058 18-18 18-9.94 0-18-8.057-18-18C0 8.06 8.06 0 18 0z" fill="#F2F4F7"/><path d="M13.445 11H6v2.039h2.51v7.794h2.406v-7.794h2.529V11zm12.667 7.684V11h-2.406v9.833H30v-2.15h-3.888zM15.098 11v9.833h6.575v-2.15h-4.255V13.04h4.256V11h-6.576z" fill="#199ECF"/><path d="M20.767 14.624h-2.491v2.456h2.491v-2.455z" fill="#75B42B"/><path d="M7.635 23.539h-.613v1.702h-.404v-1.702H6v-.337h1.635v.337zm1.971.685c0 .594-.367 1.047-.992 1.047-.594 0-.973-.367-.973-1.034 0-.613.373-1.06.98-1.06.581 0 .985.313.985 1.047zm-.428 0c0-.514-.178-.716-.558-.716-.373 0-.55.214-.55.729 0 .453.159.698.544.698.38 0 .564-.233.564-.71zm1.132-1.022v.87h.117l.587-.87h.453l-.685.973.753 1.066h-.496l-.606-.87h-.123v.87H9.9V23.2h.41zm2.137.918.416-.918h.404l-.636 1.243v.796h-.405v-.79l-.673-1.25h.44l.227.46.227.46zm2.688.104c0 .594-.368 1.047-.992 1.047-.594 0-.974-.367-.974-1.034 0-.613.374-1.06.98-1.06.582 0 .986.313.986 1.047zm-.429 0c0-.514-.177-.716-.557-.716-.373 0-.551.214-.551.729 0 .453.16.698.545.698.38 0 .563-.233.563-.71zm2.792-1.022v.337h-.912v.496h.82v.33h-.82v.533h.906v.343h-1.317V23.2h1.323zm.741 0v1.696h.832v.343H17.83V23.2h.41zm2.363 0v.337h-.912v.496h.814v.33h-.814v.533h.906v.343H19.28V23.2h1.322zm3.563.337h-.618v1.702h-.404v-1.702h-.612v-.337h1.634v.337zm.208-.337h.692c.545 0 .753.257.753.655 0 .276-.116.484-.343.594l.472.784h-.478l-.391-.704h-.3v.71h-.404V23.2zm1.017.667c0-.226-.092-.33-.361-.33h-.245v.667h.257c.202 0 .349-.086.349-.337zm2.577.355c0 .594-.367 1.047-.991 1.047-.594 0-.974-.367-.974-1.034 0-.613.373-1.06.98-1.06.581 0 .985.313.985 1.047zm-.428 0c0-.514-.178-.716-.564-.716-.373 0-.55.214-.55.729 0 .453.159.698.544.698.386 0 .57-.233.57-.71zm1.065 1.016h-.38v-2.038h.435l.588.857.38.57-.007-.558v-.87H30v2.04h-.41l-.6-.876-.386-.594v1.47zm-6.244-.495a.925.925 0 0 1-.558.196c-.373 0-.575-.239-.575-.716 0-.472.22-.71.569-.71.16 0 .33.03.52.128v-.373a1.516 1.516 0 0 0-.502-.086c-.587 0-1.016.386-1.016 1.053 0 .698.355 1.04.961 1.04.196 0 .447-.03.6-.146v-.386z" fill="#54555A"/></svg>