<svg width="36" height="36" fill="none" xmlns="http://www.w3.org/2000/svg"><path d="M18 0c2.837 0 5.52.656 7.907 1.825C31.884 4.753 36 10.895 36 18c0 9.942-8.058 18-18 18-9.94 0-18-8.057-18-18C0 8.06 8.06 0 18 0z" fill="#F2F4F7"/><path d="M32 17.282 26.985 13.6l-1.315.959-2.613-1.9 1.307-.977L19.34 8l-1.324.967L16.727 8l-5.09 3.682 1.332.976-2.605 1.9L9.09 13.6 4 17.282l1.315.96L4 19.207l5.09 3.683 1.274-.959 2.604 1.9-1.332.968 5.091 3.69 1.29-.975 1.324.976 5.09-3.691-1.332-.967 2.614-1.9 1.315.958L32 19.209l-1.315-.968L32 17.282zM18.017 20.15l-2.605-1.909 2.605-1.9 2.605 1.9-2.605 1.91z" fill="#B5DEDB"/></svg>