<svg height="36" viewBox="0 0 36 36" width="36" xmlns="http://www.w3.org/2000/svg"><mask id="a" fill="#fff"><path d="M0 0h1.202v1.172H0z" fill-rule="evenodd"/></mask><mask id="b" fill="#fff"><path d="M0 0h1.492v1H0z" fill-rule="evenodd"/></mask><g fill="none" fill-rule="evenodd"><path d="M18 0c2.837 0 5.52.656 7.907 1.825C31.884 4.753 36 10.895 36 18c0 9.942-8.058 18-18 18-9.94 0-18-8.057-18-18C0 8.06 8.06 0 18 0z" fill="#f2f4f7" fill-rule="nonzero"/><g fill="#2b2828"><path d="M10.334 16.948h-.516l-.563 1.285-.591-1.285h-.507v.037c.197.01.253.028.253.235v1.04c0 .274-.056.31-.253.32v.056h.61v-.055c-.197-.01-.253-.067-.253-.32v-1.022h.018l.629 1.397h.038l.647-1.454v1.145c0 .207-.028.244-.235.254v.055h.723v-.055c-.17-.01-.225-.03-.225-.226V17.22c0-.207.065-.207.225-.235zm.263.065c0 .047.038.131.122.131.075 0 .14-.047.14-.13 0-.066-.065-.123-.14-.123-.084 0-.122.075-.122.122zm-.15 1.623h.6v-.047c-.187-.009-.187-.055-.187-.216v-.909h-.02c-.121.037-.252.093-.393.14v.028c.037 0 .075-.009.103-.009.047 0 .085.01.085.16v.59c0 .198-.038.207-.188.216zm1.313-1.154h-.263v-.29c0-.02 0-.039-.019-.039-.084.132-.13.188-.225.301-.056.047-.112.066-.112.094 0 .01 0 .01.018.018h.122v.76c0 .263.113.33.244.33.113 0 .235-.086.3-.189l-.037-.037c-.028.037-.075.103-.159.103-.132 0-.132-.16-.132-.244v-.723h.263zm.854.338v-.337h-.028c-.01.009-.019.018-.038.018-.047 0-.13-.037-.234-.037-.254 0-.367.16-.367.309 0 .189.141.282.292.366l.16.094c.074.038.121.094.121.188 0 .14-.113.178-.206.178-.244 0-.3-.225-.32-.347h-.047v.394h.038c.01-.028.02-.028.056-.028.075 0 .178.038.301.038.16 0 .366-.104.366-.33 0-.158-.094-.215-.216-.3l-.282-.168c-.084-.057-.103-.132-.103-.17 0-.074.047-.168.188-.168.122 0 .225.047.291.3zm1.416.685c-.15 0-.158-.057-.158-.15v-.873h-.404v.038c.188.018.197.065.197.17v.6c0 .083-.02.103-.037.13a.482.482 0 0 1-.235.085c-.16 0-.188-.15-.188-.197v-.826h-.365v.038c.075 0 .14 0 .14.17v.636c0 .263.207.33.319.33a.43.43 0 0 0 .273-.104l.103-.112v.215c.122-.038.215-.085.356-.122zm.235-.009c0 .094.263.16.394.16.47 0 .62-.394.62-.63 0-.271-.132-.562-.45-.562-.189 0-.33.14-.348.197h-.008v-.77h-.01c-.122.038-.244.076-.366.104v.047h.056c.112 0 .112.056.112.13zm.207-.694c.01-.141.188-.178.263-.178.235 0 .319.263.319.497 0 .169-.047.45-.33.45-.064 0-.251-.037-.251-.122zm1.088-.789c0 .047.038.131.131.131.076 0 .132-.047.132-.13 0-.066-.056-.123-.132-.123a.132.132 0 0 0-.13.122zm-.16 1.623h.62v-.047c-.188-.009-.197-.055-.197-.216v-.909h-.01c-.13.037-.262.093-.403.14v.028c.037 0 .075-.009.103-.009.047 0 .094.01.094.16v.59c0 .198-.047.207-.207.216zm1.474-.816-.01-.337h-.018c-.02.009-.02.018-.047.018-.037 0-.132-.037-.235-.037-.244 0-.356.16-.356.309 0 .189.14.282.29.366l.15.094c.085.038.132.094.132.188 0 .14-.113.178-.206.178-.244 0-.301-.225-.32-.347h-.046v.394h.038c.009-.028.018-.028.046-.028.075 0 .188.038.31.038.16 0 .366-.104.366-.33 0-.158-.094-.215-.216-.3l-.272-.168c-.094-.057-.113-.132-.113-.17 0-.074.048-.168.188-.168.112 0 .225.047.29.3zm1.436.77c-.123-.02-.15-.029-.15-.217v-.515c0-.094 0-.394-.31-.394a.446.446 0 0 0-.376.196v-.759l-.019-.01c-.122.037-.244.075-.366.103v.047h.056c.104 0 .104.056.104.131v1.201c0 .188-.019.197-.16.216v.047h.554v-.047c-.13-.009-.169-.019-.169-.216v-.619c.103-.122.207-.15.272-.15.141 0 .197.093.197.262v.507c0 .197-.056.207-.169.216v.047h.535zm.244-1.577c0 .047.028.131.122.131.075 0 .13-.047.13-.13a.126.126 0 0 0-.13-.123c-.094 0-.122.075-.122.122zm-.17 1.623h.61v-.047c-.177-.009-.187-.055-.187-.216v-.909h-.02c-.13.037-.261.093-.393.14v.028c.038 0 .066-.009.095-.009.046 0 .103.01.103.16v.59c0 .198-.038.207-.207.216zm2.891-1.154-.02-.572H21.2c-.02.074-.112.074-.122.074-.056 0-.216-.074-.441-.074-.441 0-.873.31-.873.872 0 .638.44.882.854.882.47 0 .685-.319.685-.319l-.037-.047a.794.794 0 0 1-.573.263c-.32 0-.638-.235-.638-.769 0-.366.122-.535.216-.639a.632.632 0 0 1 .385-.14c.319 0 .506.206.563.47zm.788 1.098c-.3 0-.356-.46-.356-.656 0-.263.14-.404.3-.404.225 0 .356.282.356.61 0 .357-.16.45-.3.45m-.047-1.116c-.328 0-.554.282-.554.592 0 .338.245.6.573.6.385 0 .563-.357.563-.6 0-.376-.235-.592-.582-.592m.854.956c0 .141-.047.15-.187.17v.046h.619v-.047c-.132 0-.216-.009-.216-.196v-.574c0-.074.103-.196.169-.196.065 0 .094.084.169.084a.105.105 0 0 0 .103-.103c0-.084-.038-.14-.141-.14s-.178.037-.3.225v-.226h-.009c-.132.038-.263.094-.376.141v.028c.019 0 .038-.009.075-.009.038 0 .094.01.094.16zm1.06-.637c.02-.094.16-.17.253-.17.32 0 .32.414.32.47 0 .45-.235.488-.31.488-.14 0-.263-.103-.263-.16zm-.206 1.19c0 .105-.01.162-.188.17v.038h.62v-.038c-.188 0-.226-.037-.226-.197v-.393c.084.075.16.103.253.103.357 0 .545-.357.545-.647 0-.348-.197-.545-.432-.545-.187 0-.3.112-.366.187v-.187h-.019c-.122.037-.244.085-.365.122v.047c.028-.01.047-.01.074-.01.094 0 .104.038.104.15zm1.746-.393c-.3 0-.367-.46-.367-.656.01-.263.15-.404.301-.404.234 0 .365.282.365.61 0 .357-.178.45-.3.45m-.047-1.116c-.338 0-.554.282-.554.592 0 .338.235.6.563.6.385 0 .573-.357.573-.6 0-.376-.244-.592-.582-.592m.854.956c0 .141-.047.15-.188.17v.046h.62v-.047c-.132 0-.216-.009-.216-.196v-.574c0-.074.103-.196.17-.196.064 0 .083.084.168.084a.105.105 0 0 0 .103-.103c0-.084-.056-.14-.14-.14-.095 0-.189.037-.3.225v-.226h-.01c-.132.038-.264.094-.395.141v.028c.028 0 .057-.009.104-.009.027 0 .084.01.084.16zm1.774.047a.131.131 0 0 1-.104.047c-.074 0-.074-.074-.074-.15v-.498c0-.159 0-.402-.376-.402-.3 0-.422.178-.422.281 0 .037.028.103.103.103.066 0 .122-.056.122-.103 0-.019-.01-.056-.01-.103 0-.075.094-.122.17-.122.084 0 .206.028.206.206v.16c-.422.17-.647.253-.647.507 0 .168.14.262.28.262s.273-.094.367-.188c.019.188.113.188.16.188s.12 0 .225-.122zm-.385-.14c0 .066-.01.103-.084.14-.02 0-.103.038-.17.038-.093 0-.168-.075-.168-.197v-.01c0-.084.028-.225.422-.356zm1.051-.845h-.263v-.29c0-.02 0-.039-.01-.039-.093.132-.14.188-.233.301-.057.047-.113.066-.113.094 0 .01 0 .01.009.018h.14v.76c0 .263.104.33.226.33s.244-.086.3-.189l-.028-.037c-.028.037-.075.103-.15.103-.141 0-.141-.16-.141-.244v-.723h.263zm.254-.469c0 .047.046.131.13.131.076 0 .132-.047.132-.13 0-.066-.056-.123-.132-.123a.132.132 0 0 0-.13.122zm-.15 1.623h.6v-.047c-.179-.009-.188-.055-.188-.216v-.909h-.019c-.122.037-.253.093-.385.14v.028c.03 0 .066-.009.103-.009.038 0 .085.01.085.16v.59c0 .198-.047.207-.197.216zm1.331-.056c-.31 0-.366-.46-.366-.656 0-.263.141-.404.301-.404.244 0 .365.282.365.61 0 .357-.168.45-.3.45m-.047-1.116c-.337 0-.544.282-.544.592 0 .338.225.6.544.6.395 0 .582-.357.582-.6 0-.376-.235-.592-.582-.592"/><path d="M.16.929c0 .159-.028.187-.16.196v.047h.554v-.047c-.141-.009-.169-.037-.169-.122V.282C.479.178.554.14.639.14c.14 0 .188.085.188.244v.525c0 .198-.057.207-.16.216v.047h.535v-.047c-.123-.009-.15-.037-.15-.159V.375C1.052.056.864 0 .751 0 .592 0 .498.084.367.197V0h-.01A4.132 4.132 0 0 1 0 .103V.15C.019.15.048.14.076.14.122.14.16.15.16.309z" mask="url(#a)" transform="translate(30.798 17.464)"/></g><path d="M.497.064 0 .936h.986l.507-.874z" fill="#d52c28" mask="url(#b)" transform="translate(4 17.663)"/><path d="m5.492 16-.507.873.507.853.488-.853z" fill="#d52c28"/><path d="M6.477 17.726h-.985l.487.873h1.004z" fill="#d52c28"/></g></svg>