<svg width="36" height="36" fill="none" xmlns="http://www.w3.org/2000/svg"><path d="M18 0c2.837 0 5.52.656 7.907 1.825C31.884 4.753 36 10.895 36 18c0 9.942-8.058 18-18 18-9.94 0-18-8.057-18-18C0 8.06 8.06 0 18 0z" fill="#F2F4F7"/><path d="M11.077 28.113v-2.8h-.724v2.397a.583.583 0 0 1-.287.071c-.232 0-.348-.15-.348-.386v-2.083H9v2c0 .745.381 1.033 1.044 1.033.47 0 .818-.094 1.033-.232zm2.511.177v-2.105c0-.63-.337-.928-1.066-.928-.452 0-.79.088-1.027.22v2.813h.712v-2.453a.593.593 0 0 1 .299-.055c.254 0 .358.143.358.403v2.105m1.898-3.575a.39.39 0 0 0-.392-.387.387.387 0 0 0 0 .774.393.393 0 0 0 .392-.387zm1.926 3.409-.15-.486c-.066.066-.16.11-.315.11-.287 0-.463-.364-.463-.967 0-.586.154-.966.475-.966.149 0 .248.055.304.11l.143-.447c-.11-.122-.298-.221-.618-.221-.564 0-1.028.525-1.028 1.536 0 1.016.42 1.552 1.028 1.552.337 0 .513-.1.623-.221zm2.359.166v-2.095c0-.58-.309-.933-.856-.933-.198 0-.375.05-.524.139v-1.072h-.713v3.96h.713v-2.43a.598.598 0 0 1 .309-.077c.215 0 .348.149.348.413v2.095m3.112-.166V26.35c0-.818-.42-1.094-.978-1.094-.448 0-.746.127-.917.22l.15.47c.159-.083.38-.154.629-.154.26 0 .425.132.425.413v.1c-.795.105-1.359.343-1.359 1.105 0 .591.36.934 1.072.934.464 0 .762-.083.978-.221zm-.691-.315a.735.735 0 0 1-.255.05c-.282 0-.43-.172-.43-.475 0-.431.226-.586.685-.647m2.535-1.475c-.684-.033-1.065.055-1.336.216v2.812h.713v-2.453a.57.57 0 0 1 .49.01M27 28.29v-2.105c0-.591-.348-.928-.851-.928-.392 0-.63.116-.8.287-.133-.16-.371-.287-.802-.287-.48 0-.778.088-1.01.22v2.813h.713v-2.46a.682.682 0 0 1 .292-.055c.243 0 .364.172.364.414v2.1h.724v-2.381a.405.405 0 0 1 .315-.133c.22 0 .337.16.337.409v2.105m-11.547-2.987v2.988h-.718v-2.98m11.875-10.418a7.892 7.892 0 1 1-15.784 0A7.892 7.892 0 0 1 18 7a7.892 7.892 0 0 1 7.891 7.892zm-7.891-6.9a6.901 6.901 0 1 0 0 13.802A6.902 6.902 0 0 0 18 7.99z" fill="#233E99"/><path d="M18.018 15.693c-1.372-.44-2.379-1.146-2.379-2.589 0-.63.401-1.41.401-2.273 0-1.192-1.556-1.46-2.847-.013-.632.708-1.494 2.189-1.494 4.072 0 2.815 1.825 4.841 3.449 5.622 4.348 2.089 7.188-3.43 2.87-4.82" fill="#FCB034"/><path d="M21.8 13.273c.542.14.962.505 1.34 1.096.75 1.17.926 3.065-.402 4.657-.484.58-1.506 1.277-2.693 1.35-.917.057-1.805-.363-2.253-.811-.718-.717-.684-2.303.902-2.417.935-.065 1.615-.69 1.87-1.128.25-.43.462-1.309.425-2.003-.027-.534.253-.886.81-.744z" fill="#F47B20"/></svg>