<svg width="36" height="36" fill="none" xmlns="http://www.w3.org/2000/svg"><path d="M18 0c2.837 0 5.52.656 7.907 1.825C31.884 4.753 36 10.895 36 18c0 9.942-8.058 18-18 18-9.94 0-18-8.057-18-18C0 8.06 8.06 0 18 0z" fill="#F2F4F7"/><path d="M20.166 16.803a.277.277 0 0 1-.006-.395.276.276 0 0 1 .394.006l.673.672c.11.111.117.285.006.395a.276.276 0 0 1-.395-.006l-.672-.672zm-1.186 0a.277.277 0 0 0 .007-.395.276.276 0 0 0-.395.006l-.672.672a.277.277 0 0 0-.007.395c.11.111.285.105.395-.006l.672-.672zm-3.679-.703a.276.276 0 0 1-.01-.396.276.276 0 0 1 .394.002l1.416 1.378c.112.11.12.283.01.395a.278.278 0 0 1-.396-.001l-1.414-1.379zm.557-3.174a.276.276 0 0 1-.001-.395.276.276 0 0 1 .395.01l.66.675a.277.277 0 0 1 0 .395.276.276 0 0 1-.394-.01l-.66-.675z" fill="#6A589F"/><path d="m16.244 11.642-1.126 1.146a.276.276 0 0 1-.395.006.277.277 0 0 1 .007-.395l1.32-1.319a.276.276 0 0 1 .394.006l1.313 1.313c.11.111.117.285.007.395a.276.276 0 0 1-.395-.006l-1.125-1.146zm.786 2.852-.761 1.279a.277.277 0 0 0 .096.383.277.277 0 0 0 .38-.108l.971-1.676a.278.278 0 0 0-.232-.42H15.14a.277.277 0 0 0-.284.274c0 .157.127.276.284.276l1.89-.008z" fill="#6A589F"/><path d="M20.446 13.433H18.7v-.569h1.745v.57zm0 1.091H18.7v-.572h1.745v.572zm0 1.112H18.7v-.593h1.745v.593zm.674-4.579h-3.091a.276.276 0 0 0-.284.275c0 .157.126.275.284.275h1.329l-.172.707h-.769a.276.276 0 0 0-.282.275v3.321c0 .157.126.275.282.275h2.313a.276.276 0 0 0 .282-.275v-3.32a.276.276 0 0 0-.282-.276h-.962l.174-.707h1.178a.276.276 0 0 0 .282-.275.276.276 0 0 0-.282-.275zm4.285 2.895h1.212v.54h-1.212v-.54zm-1.779-2.345h4.204v.594h-4.204v-.594zm5.124 5.26a7.117 7.117 0 0 1-1.424-.811l.417-.395a.277.277 0 0 0 .006-.395.276.276 0 0 0-.394.007l-.452.45a6.328 6.328 0 0 1-.691-.68h2.424a.276.276 0 0 0 .284-.275.276.276 0 0 0-.284-.275h-1.452v-.54h.64c.156 0 .284-.104.284-.26 0-.157-.128-.26-.285-.26h-.639v-.255a.283.283 0 1 0-.567 0v.255h-1.212v-.255a.283.283 0 1 0-.567 0v.255h-.637c-.158 0-.284.103-.284.26 0 .156.126.26.284.26h.637v.54h-1.213l.001-.136V12.75h4.488a.277.277 0 0 0 .284-.275v-1.143a.277.277 0 0 0-.284-.275h-4.77a.276.276 0 0 0-.283.275v3.024c0 1.19-.191 2.047-.619 2.78a.283.283 0 0 0 .49.285c.391-.671.606-1.423.672-2.38h.668v2.118a.276.276 0 0 0 .349.27l1.389-.338a.276.276 0 0 0 .21-.334.276.276 0 0 0-.341-.2l-1.049.268.009-1.783h.66c.626.85 2.018 1.906 3.041 2.33a.274.274 0 1 0 .21-.507zm-15.477 2.006a.551.551 0 0 0-.551.552v5.458a.551.551 0 1 0 1.102 0v-5.458a.551.551 0 0 0-.551-.552zm2.197 6.561a.55.55 0 0 0 .551-.551v-3.604l-1.103-1.12v4.724c0 .304.246.55.552.55z" fill="#6A589F"/><path d="m20.196 23.458.985 1a.574.574 0 1 1-.985.404v-1.404m-4.355-4.42a.558.558 0 0 0-.795.784l4.828 4.9.011-1.578-4.044-4.105zm4.355.393a.557.557 0 1 1 1.116 0v4.703l-1.116-1.128v-3.575z" fill="#C35580"/><path d="M7.55 18.873a.551.551 0 0 0-.55.552v5.408a.55.55 0 0 0 .55.552h3.846c.305 0 .552-.23.552-.535a.538.538 0 0 0-.552-.535H8.1l.002-4.89a.551.551 0 0 0-.551-.552zm21.282 5.635-2.384-2.384 2.296-2.329a.536.536 0 0 0 .006-.768.537.537 0 0 0-.767.017l-4.5 4.594.023-4.213a.55.55 0 1 0-1.102 0v5.457a.551.551 0 0 0 .941.39l2.373-2.406 2.36 2.398a.537.537 0 0 0 .767.012.537.537 0 0 0-.013-.768z" fill="#6A589F"/></svg>