<svg width="36" height="36" fill="none" xmlns="http://www.w3.org/2000/svg"><path d="M18 0c2.837 0 5.52.656 7.907 1.825C31.884 4.753 36 10.895 36 18c0 9.942-8.058 18-18 18-9.94 0-18-8.057-18-18C0 8.06 8.06 0 18 0z" fill="#F2F4F7"/><path d="M8.174 14a64.8 64.8 0 0 1-.735 1.782l-.345.792-.35-.792A56.34 56.34 0 0 1 5.991 14H4.057v.155c.215 0 .39.18.39.4-.03.408-.065.817-.106 1.227l-.129 1.247A52.817 52.817 0 0 1 4 18.811h.618c.038-.59.086-1.185.146-1.782l.19-1.88c.275.572.538 1.147.793 1.723l.07.157c.264.597.515 1.192.754 1.782h.187c.233-.59.48-1.185.737-1.782l.111-.256c.25-.576.509-1.151.777-1.722l.201 1.978c.06.597.11 1.192.146 1.782h1.422a47.65 47.65 0 0 1-.213-1.782l-.127-1.247A44.31 44.31 0 0 1 9.667 14H8.174zm6.376 4.333c.156-.295.323-.593.5-.892l1.727-2.873v-.122h-3.8v.884h.15a.4.4 0 0 1 .37-.4c.118-.004.237-.006.353-.006h1.226c-.152.289-.314.58-.49.872l-1.735 2.894v.121h4.098v-.513c-.288.023-.58.035-.872.035h-1.526zm7.025.478c.013 0 .025-.002.037-.003a11.4 11.4 0 0 1-.037-.888v-1.082h1.697v1.082c0 .298-.01.596-.033.891h1.307a11.052 11.052 0 0 1-.035-.891v-2.582c0-.3.011-.596.035-.893H22.88v.138h.038c.185 0 .335.147.348.333.004.14.006.28.006.422v1.022h-1.697v-1.022c0-.3.011-.596.035-.893h-1.665v.138h.036c.185 0 .335.146.348.33.005.142.008.283.008.425v3.022a4.173 4.173 0 0 1-.526.032 3.41 3.41 0 0 1-.565-.045c-.523-.1-.607-.59-.607-.896v-2.139c0-.29.013-.579.035-.867H17.01v.138h.035a.35.35 0 0 1 .348.33c.005.142.008.283.008.425v1.906c0 .429.135 1.377 1.299 1.549.363.05.734.078 1.112.078.593 0 1.181-.021 1.764-.06zm8.565-2.182c0 1.487-1.286 2.242-2.552 2.242-1.267 0-2.55-.755-2.55-2.242 0-1.488 1.283-2.243 2.55-2.243 1.266 0 2.552.755 2.552 2.243zm-1.244 0c-.002-.81-.34-1.764-1.308-1.764-.967 0-1.307.953-1.307 1.764 0 .81.34 1.763 1.307 1.763.968 0 1.306-.953 1.308-1.763zM12.26 15.338c0-.3.01-.596.036-.893h-1.71v.155h.036c.221 0 .394.18.394.402.003.11.005.223.005.336v2.582c0 .298-.012.596-.032.891h1.307a10.443 10.443 0 0 1-.036-.891v-2.582z" fill="#183181"/><path d="M6.377 21.209a48.849 48.849 0 0 1 10.694-1.18c5.186 0 10.19.778 14.904 2.224a.035.035 0 0 1 .024.042c-.004.018-.024.033-.042.028a102.977 102.977 0 0 0-25.556-.975.072.072 0 0 1-.077-.053.072.072 0 0 1 .053-.087z" fill="#ED1A3A"/></svg>