<svg width="36" height="36" fill="none" xmlns="http://www.w3.org/2000/svg"><path d="M18 0c2.837 0 5.52.656 7.907 1.825C31.884 4.753 36 10.895 36 18c0 9.942-8.058 18-18 18-9.94 0-18-8.057-18-18C0 8.06 8.06 0 18 0z" fill="#F2F4F7"/><path d="M4.721 13.464a14.153 14.153 0 0 0 14.247 18.591c.724-.07.817-.093 1.121-.374.444-.373.864-1.214.934-1.821.117-1.168-.514-2.826-1.728-4.368l-.748-.957c-.046-.07.024-.35.21-.771.14-.35.421-1.238.631-1.962.187-.7.374-1.284.397-1.284.117 0 .958 1.12 1.262 1.681l.303.49.234-.793c.49-2.102 1.518-4.578 2.405-5.91.514-.747 1.495-1.774 1.962-2.031l.257-.14.07 1.168a9.67 9.67 0 0 0 3.083 7.1l.677.607-.373.747a12.658 12.658 0 0 1-6.75 6.236l-.934.373c-.07.07.163 1.168.303 1.355.094.14 2.032-.63 3.037-1.214a14.2 14.2 0 0 0 6.445-7.894l.234-.794a9.201 9.201 0 0 1-3.62-4.858c-.56-2.476.56-4.835 2.102-6.75.537-.654.584-.654-1.004 0-2.29.934-4.414 2.312-6.073 3.9a12.378 12.378 0 0 0-2.919 4.017l-1.588-1.985c-1.869-2.359-1.752-2.242-1.588-1.775.56 1.565.817 4.554.537 6.166a9.903 9.903 0 0 1-1.985 4.508l.91.91c1.028 1.005 1.706 1.845 2.08 2.57.466.934.466 1.47-.07 2.031l-.305.327h-.724A12.657 12.657 0 0 1 5.68 15.707a12.682 12.682 0 0 1 5.138-7.894 13.033 13.033 0 0 1 12.939-1.098c1.027.514 3.27 2.195 3.27 2.195l.817-1.12s-.911-.935-1.822-1.519a14.41 14.41 0 0 0-21.3 7.193z" fill="#009A44"/></svg>