<svg width="36" height="36" fill="none" xmlns="http://www.w3.org/2000/svg"><path d="M18 0c2.837 0 5.52.656 7.907 1.825C31.884 4.753 36 10.895 36 18c0 9.942-8.058 18-18 18-9.94 0-18-8.057-18-18C0 8.06 8.06 0 18 0z" fill="#F2F4F7"/><path fill-rule="evenodd" clip-rule="evenodd" d="M5 13v.205h.41v4.38H5v.204h1.444v-.205h-.76v-4.043l1.622 4.248 1.457-4.249v4.044h-.636v.206h2.347v-.206h-.685v-4.379h.685V13h-1.8l-.923 2.771L6.964 13H5zm10.947 4.79h1.52v-.206h-.562v-4.228l3.421 4.434v-4.585h.41V13h-1.258v.205h.575v2.758L17.932 13h-1.985v.205h.685v4.38h-.685v.204zM28.366 13H26.21v.205h.513l1.389 2.292-1.287 2.087h-.588v.206h1.553v-.206h-.547l1.06-1.765 1.068 1.765h-.425v.206H31v-.206h-.431l-1.676-2.757.957-1.622h.808V13h-1.71v.205h.58l-.82 1.328-.8-1.328h.458V13zm-15.224 0c-1.676 0-2.333 1.56-2.333 2.354 0 .89.52 2.436 2.326 2.436 2.012 0 2.463-1.608 2.463-2.436 0-.821-.69-2.354-2.463-2.354h.007zm.027.137c-1.265 0-1.334 1.45-1.334 2.19 0 .82.055 2.257 1.334 2.257 1.28 0 1.403-1.498 1.403-2.258 0-.773-.137-2.19-1.402-2.19zm8.252 4.447v.206h4.105v-1.143h-.205c0 .52-.41.869-.903.869h-1.232v-2.258h.329c.321 0 .479.342.479.684v.137h.164v-1.71H24v.15c0 .342-.164.534-.485.534h-.329v-1.78h1.232c.5 0 .903.575.903 1.095h.205V13h-4.105v.205h.684v4.38h-.684zm-9.579 1.78v4.405h-.684v.178h2.053v-.177h-.343v-4.407h.65c.582 0 .732.67.732.972 0 .793-.732 1.183-1.101 1.286.63 0 .917.322.917 1.156a1.122 1.122 0 0 0 1.088 1.136c.28 0 .554-.17.656-.253-.513 0-.759-.458-.759-1.02 0-.444-.725-.985-1.081-1.204.424-.034 1.28-.314 1.28-1.101 0-.794-1.054-1.177-1.56-1.177h-2.532v.205h.684zm-.684 2.53v-.204H8.955v.205h.834v.814c-.006.328-.342 1.033-1.149 1.033-1.006 0-1.232-.93-1.232-1.416V20.58c.069-.424.527-1.218 1.355-1.218 1.033 0 1.54.849 1.54 1.163h.17v-1.368h-.17v.581a2.244 2.244 0 0 0-1.54-.581c-.958 0-2.395.8-2.395 2.333 0 1.533 1.164 2.456 2.272 2.456 1.115 0 1.936-.663 1.936-2.052h.582zm6.958-2.716c-1.56 0-2.169 1.56-2.169 2.354 0 .89.48 2.436 2.17 2.436 1.86 0 2.278-1.608 2.278-2.436 0-.82-.643-2.354-2.279-2.354zm-.027.15c-1.15 0-1.218 1.465-1.218 2.204 0 .835.048 2.285 1.218 2.285 1.163 0 1.286-1.505 1.286-2.285 0-.773-.137-2.203-1.286-2.203zm7.437-.17v.205h.684v4.38h-.684v.204h2.176v-.205h-.465v-2.039h.992c.465-.02 1.403-.294 1.403-1.252s-1.02-1.259-1.526-1.293h-2.58zm1.71 2.36v-2.155h.596c.15 0 .883.144.883 1.13 0 .786-.48 1.012-.719 1.025h-.76zm-6.3-2.36v.205h.485v2.826c0 .971.753 1.758 1.69 1.758a1.758 1.758 0 0 0 1.731-1.758v-2.826h.342v-.205h-1.026v.205h.479v3.018c0 .608-.48 1.094-1.054 1.094-.581 0-1.136-.486-1.136-1.095v-3.017h.61v-.205h-2.122z" fill="#000"/></svg>