<svg width="36" height="36" fill="none" xmlns="http://www.w3.org/2000/svg"><path d="M18 0c2.837 0 5.52.656 7.907 1.825C31.884 4.753 36 10.895 36 18c0 9.942-8.058 18-18 18-9.94 0-18-8.057-18-18C0 8.06 8.06 0 18 0z" fill="#F2F4F7"/><path d="M29.717 15.178c0-.022-.173-.043-.212-.05l-.009-.005C29.086 14.967 17.998 14 17.998 14s-11.084.967-11.494 1.123l-.011.004c-.038.008-.214.029-.213.051a3.094 3.094 0 0 0 0 5.974c0 .023.175.042.213.05l.011.003c.41.159 11.494 1.12 11.494 1.12s11.089-.962 11.498-1.12l.009-.003c.039-.008.213-.027.212-.05a3.095 3.095 0 0 0 0-5.973z" fill="#C7000B"/><path d="M7.636 17.078H6.48l-.002 2.216h1.11s1.265-.002 1.265-1.131c0 0 0-1.085-1.217-1.085zm.634 1.1c0 .742-.82.749-.82.749h-.446v-1.498h.48c.82 0 .786.748.786.748zm2.75 1.116h.566l-.607-1.858c-.122-.36-.517-.36-.517-.36s-.164-.02-.314 0c0 0-.394 0-.516.36l-.607 1.858h.558l.19-.605h1.06l.188.605zm-1.137-.959.239-.76c.034-.11.142-.133.185-.139.04.006.147.028.182.14l.236.76h-.842zm3.074-.439h1.136v.353h-1.136v-.353zm-.952-.828h.539v2.226h-.539v-2.226zm2.522 0h.538v2.226h-.538v-2.226zm5.846 0h.539v2.226h-.539v-2.226zm3.99.009h.539v2.217h-.539v-2.217zm-4.948-.009v.828h-1.037v-.828h-.539v2.226h.539V18.25h1.037v1.044h.538v-2.226h-.538zm4.588 1.846h-1.08s-.29 0-.3-.297v-1.54h-.539v1.515c0 .7.636.7.636.7h1.283v-.378zm2.185-1.469h1.08v-.377h-1.282s-.637 0-.637.702v1.522h.537v-.885h1.309v-.354h-1.309v-.31c.012-.298.302-.298.302-.298zm2.248 1.469s-.287 0-.3-.297v-.287h1.296v-.355h-1.296v-.232c.013-.298.3-.29.3-.29h1.082v-.376h-1.283s-.637-.009-.637.692v.823c0 .7.637.7.637.7h1.287l-.01-.378h-1.076zm-10.976-1.84h-.774c-.69 0-1.246.498-1.246 1.11 0 .613.557 1.11 1.246 1.11h.779v-.375h-.704a.753.753 0 0 1-.731-.735c0-.406.357-.735.73-.735h.7v-.375z" fill="#fff"/></svg>