<svg width="36" height="36" fill="none" xmlns="http://www.w3.org/2000/svg"><path d="M18 0c2.837 0 5.52.656 7.907 1.825C31.884 4.753 36 10.895 36 18c0 9.942-8.058 18-18 18-9.94 0-18-8.057-18-18C0 8.06 8.06 0 18 0z" fill="#F2F4F7"/><path d="M4.532 18.842h1.064l-.532.922H4l.532-.922zm1.064 0H6.66l.531.922H6.128l-.532-.922z" fill="#E60012"/><path d="m5.596 17 .533.921-.533.922-.532-.921.532-.922z" fill="#E60012"/><path d="M10.01 18.194v1.57h.342v-1.83h-.58c-.004.008-.446 1.396-.446 1.396l-.446-1.397H8.3v1.831h.34v-1.57l.513 1.57h.345l.513-1.57zm-1.363.06v-.003.003zm2.471-.321h-.358v1.831h.358v-1.83zm1.629 0h-1.414v.278h.529v1.553h.357v-1.553h.528v-.278zm.683 1.863c.206 0 .685-.054.685-.551 0-.356-.264-.457-.498-.547-.166-.063-.31-.118-.31-.256 0-.193.154-.262.297-.262a.96.96 0 0 1 .37.077l.033-.291a1.393 1.393 0 0 0-.435-.065c-.15 0-.638.04-.638.557 0 .343.256.443.483.532.174.069.325.128.325.284 0 .177-.205.243-.334.243a.89.89 0 0 1-.412-.11l-.033.32.036.008c.153.038.246.06.43.06m1.767.001c.502 0 .747-.226.747-.691v-1.172h-.358v1.058c0 .354-.127.527-.389.527s-.389-.173-.389-.527v-1.058h-.357v1.172c0 .465.244.691.746.691zm1.688-1.118h-.157v-.467h.149c.175 0 .362.019.362.236 0 .153-.119.23-.354.23zm.41.546c0 .171-.134.262-.387.262h-.18v-.546h.18c.18 0 .387.032.387.284zm-.286-1.29h-.638v1.83h.638c.193 0 .643-.051.643-.527 0-.224-.176-.393-.422-.423.208-.039.367-.193.367-.414 0-.406-.369-.467-.588-.467zm1.301-.001h-.358v1.831h.358v-1.83zm.843 1.863c.206 0 .686-.054.686-.551 0-.356-.265-.457-.498-.547-.166-.063-.31-.118-.31-.256 0-.193.153-.262.296-.262a.94.94 0 0 1 .37.077l.033-.291a1.392 1.392 0 0 0-.434-.065c-.15 0-.639.04-.639.557 0 .343.257.443.483.532.175.069.326.128.326.284 0 .177-.205.243-.334.243a.89.89 0 0 1-.412-.11l-.033.32.035.008c.154.038.247.06.431.06m2.5-.031v-1.83h-.357v.744h-.752v-.745h-.357v1.831h.357v-.808h.752v.808h.357zm.766-1.831h-.357v1.831h.357v-1.83zm2.158 1.023v-.278h-.658v-.467h.719v-.278H23.56v1.831h1.08v-.278h-.723v-.53h.658zm.888.84c.206 0 .686-.054.686-.551 0-.356-.265-.457-.499-.547-.166-.063-.31-.118-.31-.256 0-.193.154-.262.297-.262a.96.96 0 0 1 .37.077l.033-.291a1.393 1.393 0 0 0-.435-.065c-.15 0-.638.04-.638.557 0 .343.256.443.483.532.174.069.325.128.325.284 0 .177-.204.243-.333.243a.89.89 0 0 1-.412-.11l-.033.32.035.008c.154.038.246.06.43.06m2.255-1.862h-1.414v.278h.529v1.553h.357v-1.553h.528v-.278zm.759.338.278.792H28.2l.277-.792zm.377 1.07.158.423h.397c-.007-.016-.716-1.823-.72-1.83h-.408l-.714 1.83h.37l.161-.422h.756zm1.818-1.408h-1.414v.278h.528v1.553h.357v-1.553h.529v-.278zm1.262 1.023v-.278h-.658v-.467h.719v-.278h-1.076v1.831H32v-.278h-.724v-.53h.658z" fill="#000"/></svg>