<svg width="36" height="36" fill="none" xmlns="http://www.w3.org/2000/svg"><path d="M18 0c2.837 0 5.52.656 7.907 1.825C31.884 4.753 36 10.895 36 18c0 9.942-8.058 18-18 18-9.94 0-18-8.057-18-18C0 8.06 8.06 0 18 0z" fill="#F2F4F7"/><path d="M18 27.667v-9.334H8.4l9.6 9.334z" fill="#D5EDF7"/><path d="M22.667 27.567V14.334H8.387l14.28 13.233z" fill="#4DBDEF"/><path d="M28 27.667V9H8l20 18.667z" fill="#004DA0"/><path d="M22.667 22.694v-8.36h-8.96l8.96 8.36z" fill="#8CD4F5"/><path d="M18 23.253v-4.92h-5.307L18 23.254z" fill="#BAE1F2"/></svg>