<svg width="36" height="36" fill="none" xmlns="http://www.w3.org/2000/svg"><path d="M18 0c2.837 0 5.52.656 7.907 1.825C31.884 4.753 36 10.895 36 18c0 9.942-8.058 18-18 18-9.94 0-18-8.057-18-18C0 8.06 8.06 0 18 0z" fill="#F2F4F7"/><path d="m18 19.461-2.603-1.95L18 15.558l2.603 1.955L18 19.462zm14-2.939-5.04-3.778-1.316.986-2.603-1.955 1.327-.995L19.326 7 18 7.997 16.674 7l-5.042 3.78 1.327.995-2.603 1.954-1.315-.985L4 16.522l1.315.99L4 18.497l5.04 3.78 1.316-.983 2.602 1.95-1.326.995 5.042 3.782L18 27.027l1.326.994 5.042-3.782-1.327-.994 2.603-1.95 1.315.983L32 18.497l-1.314-.985" fill="#FEE101"/></svg>