<svg width="36" height="36" fill="none" xmlns="http://www.w3.org/2000/svg"><path d="M18 0c2.837 0 5.52.656 7.907 1.825C31.884 4.753 36 10.895 36 18c0 9.942-8.058 18-18 18-9.94 0-18-8.057-18-18C0 8.06 8.06 0 18 0z" fill="#F2F4F7"/><path d="M18 11.665c-4.387 0-7.944 2.894-7.944 6.463 0 3.568 3.557 6.461 7.944 6.461 4.387 0 7.944-2.893 7.944-6.461 0-3.57-3.557-6.463-7.944-6.463zm.066 12.746s-.328-6.327-6.728-9.625c0 0 6.14 3.096 13.192-.068 0 0-5.616 2.491-6.465 9.693z" fill="#E73917"/><path d="M18.116 25.263c-9.273-.021-9.902-7.065-9.902-7.065l-.124.003s.13 7.859 10.09 8.073" fill="#E73917"/><path d="M18.131 26.893c-11.185-.278-11.95-8.67-11.95-8.67l-.123.005s.595 9.447 12.136 9.676" fill="#E73917"/><path d="M18.067 28.546C5.135 28.181 4.124 18.223 4.124 18.223L4 18.228s.318 10.894 14.131 11.33" fill="#E73917"/><path d="M17.933 28.546c12.932-.365 13.942-10.323 13.942-10.323l.125.005s-.319 10.894-14.132 11.33" fill="#E73917"/><path d="M17.902 26.893c11.184-.278 11.95-8.67 11.95-8.67l.124.005s-.596 9.447-12.137 9.676" fill="#E73917"/><path d="M17.95 25.263c9.272-.021 9.901-7.065 9.901-7.065l.125.003s-.13 7.859-10.09 8.073M6.033 13.24l.273-.507a.047.047 0 0 0-.019-.062l-.124-.067a.049.049 0 0 0-.035-.004.046.046 0 0 0-.027.022l-.67 1.243a.047.047 0 0 0 .019.062l.125.067c.01.006.023.007.034.004a.046.046 0 0 0 .027-.022l.273-.507 1.368.738a.047.047 0 0 0 .035.004.049.049 0 0 0 .027-.022l.081-.15a.047.047 0 0 0-.019-.062l-1.368-.737zm2.103-1.622c-.356-.313-.897-.425-1.3.034a.848.848 0 0 0-.228.62c.016.246.143.485.36.675.357.313.897.423 1.301-.037a.844.844 0 0 0 .227-.618c-.016-.245-.144-.485-.36-.674zm.113.716a.566.566 0 0 1-.155.422c-.305.346-.704.214-.954-.006-.17-.15-.274-.339-.286-.519a.58.58 0 0 1 .158-.425c.303-.344.702-.21.951.008.17.15.275.339.286.52zm1.833-1.151-1.24-.292.183-1.012a.048.048 0 0 0-.022-.048.049.049 0 0 0-.052.003l-.182.14a.047.047 0 0 0-.017.028l-.23 1.271-.508-.66a.044.044 0 0 0-.064-.008l-.135.103a.05.05 0 0 0-.018.031.052.052 0 0 0 .009.034l1.064 1.38c.015.02.044.024.065.009l.134-.104a.044.044 0 0 0 .017-.03.048.048 0 0 0-.008-.035l-.353-.457.069-.386 1.093.257c.014.003.028 0 .039-.01l.174-.133a.047.047 0 0 0 .017-.046.046.046 0 0 0-.035-.035zm.346-.943.109-1.224a.045.045 0 0 0-.068-.044l-.176.099a.046.046 0 0 0-.024.037l-.07.986-.882-.45a.046.046 0 0 0-.043 0l-.176.099a.046.046 0 0 0 .002.082l1.1.543.344.613c.006.01.015.018.028.021a.047.047 0 0 0 .035-.004l.148-.083a.046.046 0 0 0 .017-.063l-.345-.612zm1.664-1.89a.046.046 0 0 0-.06-.026l-.157.064a.042.042 0 0 0-.025.025.048.048 0 0 0 0 .036l.405.998c.07.167.081.306.037.414-.043.101-.136.18-.287.241-.148.06-.269.07-.37.026-.107-.047-.195-.154-.262-.322l-.406-1a.046.046 0 0 0-.06-.025l-.157.064a.046.046 0 0 0-.026.06l.42 1.033c.167.412.522.554.95.38.218-.088.365-.219.436-.387a.708.708 0 0 0-.019-.548l-.42-1.034zm3.201.116-.166.031a.046.046 0 0 0-.038.05c.021.258-.102.545-.42.604-.454.085-.686-.266-.747-.593-.042-.223-.006-.436.096-.585a.571.571 0 0 1 .386-.237.49.49 0 0 1 .563.287c.008.02.03.032.05.027l.168-.03a.045.045 0 0 0 .03-.023.048.048 0 0 0 .005-.037c-.127-.399-.534-.515-.86-.454a.847.847 0 0 0-.562.348c-.139.202-.186.47-.133.752.087.467.445.887 1.046.775.427-.08.67-.414.636-.873a.045.045 0 0 0-.017-.033.046.046 0 0 0-.037-.009zm.945-1.319a.85.85 0 0 0-.596.285c-.16.186-.235.448-.213.734.036.474.346.93.956.883a.848.848 0 0 0 .595-.285c.16-.186.236-.447.213-.733-.037-.474-.346-.931-.955-.884zm.694.903c.017.226-.04.435-.158.572a.572.572 0 0 1-.407.194c-.46.035-.652-.339-.678-.67-.017-.226.04-.434.158-.571a.572.572 0 0 1 .41-.195c.457-.035.65.34.675.67zm1.893.377-.002-.057c-.005-.138-.036-.316-.208-.401a.473.473 0 0 0 .262-.436.46.46 0 0 0-.122-.344c-.1-.105-.262-.166-.453-.17L17.487 7a.047.047 0 0 0-.048.045l-.04 1.742a.05.05 0 0 0 .013.033.05.05 0 0 0 .032.014l.17.004c.025 0 .046-.02.047-.044l.016-.728.598.014c.262-.004.289.181.3.466l.001.036c.002.08.005.188.046.257a.045.045 0 0 0 .039.023l.187.004c.018 0 .034-.01.042-.026a.045.045 0 0 0-.006-.05c-.052-.064-.056-.252-.059-.363zm-1.128-1.188.587.013c.116.003.203.034.26.093.05.051.073.124.07.216-.004.2-.181.288-.344.285l-.587-.014.014-.593zm2.363-.079-.783-.094a.044.044 0 0 0-.035.01.047.047 0 0 0-.017.03l-.203 1.732a.046.046 0 0 0 .04.05l.17.02a.048.048 0 0 0 .034-.01.045.045 0 0 0 .016-.03l.082-.697.571.068a.594.594 0 0 0 .445-.105.538.538 0 0 0 .19-.368c.038-.333-.156-.566-.51-.607zm-.596.164.533.063c.13.015.344.08.312.349a.297.297 0 0 1-.104.207c-.067.053-.163.074-.28.06l-.534-.063.073-.616zm2.258.09a.855.855 0 0 0-.655.098c-.207.13-.356.358-.42.638-.104.463.059.99.656 1.125.24.054.466.02.652-.098.208-.13.356-.357.42-.639.104-.462-.058-.989-.653-1.124zm.397 1.067c-.05.22-.165.403-.318.5a.573.573 0 0 1-.446.066c-.45-.101-.524-.515-.452-.839.05-.221.166-.404.319-.5a.576.576 0 0 1 .448-.065c.448.1.522.515.45.838zm1.655 1.053.015-.055c.04-.133.064-.311-.072-.445a.472.472 0 0 0 .384-.334c.103-.29-.046-.546-.387-.667l-.77-.27a.049.049 0 0 0-.034.002.05.05 0 0 0-.024.026l-.578 1.643a.046.046 0 0 0 .028.059l.16.056a.043.043 0 0 0 .035-.002.044.044 0 0 0 .023-.026l.242-.686.563.198c.25.078.218.263.14.536l-.01.035c-.022.076-.053.181-.036.26a.046.046 0 0 0 .03.033l.176.062a.046.046 0 0 0 .049-.011.048.048 0 0 0 .01-.05c-.03-.077.024-.257.056-.364zm-.703-1.48.553.196c.209.072.285.21.219.396a.268.268 0 0 1-.139.158.365.365 0 0 1-.277.005l-.553-.195.197-.56zm2.325.734-.17-.084a.048.048 0 0 0-.05.007L23.76 9.954a.047.047 0 0 0-.016.04.052.052 0 0 0 .026.036l.163.081a.046.046 0 0 0 .052-.008l.408-.37.67.332-.043.55a.047.047 0 0 0 .025.046l.164.08a.05.05 0 0 0 .043 0 .05.05 0 0 0 .023-.038l.146-1.87a.045.045 0 0 0-.025-.045zm-.242.258-.071.768-.506-.25.577-.518zm1.876.977c.022.014.05.008.064-.013l.08-.117c.005-.01.008-.023.005-.035a.045.045 0 0 0-.02-.03l-1.175-.779a.046.046 0 0 0-.064.013l-.079.117a.05.05 0 0 0-.006.036c.002.011.01.022.02.03l.478.317-.86 1.295a.046.046 0 0 0 .014.064l.14.093a.05.05 0 0 0 .066-.013l.858-1.295.48.317zm.724.234-.132-.106a.043.043 0 0 0-.033-.01.044.044 0 0 0-.032.016l-1.094 1.354a.046.046 0 0 0 .007.066l.131.106a.046.046 0 0 0 .065-.007l1.095-1.354a.047.047 0 0 0-.007-.065zm.979.863a.85.85 0 0 0-.596-.286c-.246-.007-.495.098-.705.295-.346.326-.506.854-.087 1.3.17.179.374.276.595.283.245.007.496-.098.706-.295.344-.326.506-.854.087-1.297zm-.267 1.106c-.165.155-.363.242-.545.237a.567.567 0 0 1-.405-.195c-.316-.336-.147-.721.095-.948.165-.156.363-.242.544-.237.152.005.29.07.409.197.314.334.143.719-.098.946zm1.844 1.238-.082-.149a.047.047 0 0 0-.063-.018L29 13.95l.721-1.5a.048.048 0 0 0-.002-.043l-.092-.165a.046.046 0 0 0-.062-.018l-1.52.85a.043.043 0 0 0-.023.028.048.048 0 0 0 .004.034l.083.148c.012.022.04.03.063.018l1.165-.65-.72 1.5a.042.042 0 0 0 .001.041l.092.166c.013.022.04.03.062.018l1.52-.85a.043.043 0 0 0 .023-.027.044.044 0 0 0-.005-.035z" fill="#E73917"/></svg>