<svg width="36" height="36" fill="none" xmlns="http://www.w3.org/2000/svg"><path d="M18 0c2.837 0 5.52.656 7.907 1.825C31.884 4.753 36 10.895 36 18c0 9.942-8.058 18-18 18-9.94 0-18-8.057-18-18C0 8.06 8.06 0 18 0z" fill="#F2F4F7"/><path d="m11.844 10-.553 2.328 6.09 2.036L18.426 10h-6.583zm9.573 0-3.853 16.03h6.583L28 10h-6.583zm-10.184 2.554-.344 1.433 8.627 2.88.134-.577-8.417-3.736zm-.394 1.634-.343 1.432 8.635 2.88.134-.577-8.426-3.735zm-.385 1.633-.343 1.432 8.626 2.89.142-.579-8.425-3.743zm-.394 1.641L8 26.03h6.583l1.424-5.93-5.947-2.638z" fill="#1573C4"/></svg>