<svg width="36" height="36" fill="none" xmlns="http://www.w3.org/2000/svg"><path d="M18 0c2.837 0 5.52.656 7.907 1.825C31.884 4.753 36 10.895 36 18c0 9.942-8.058 18-18 18-9.94 0-18-8.057-18-18C0 8.06 8.06 0 18 0z" fill="#F2F4F7"/><path d="m5.812 19.32.006.028-.006-.029z" fill="#010101"/><path d="M4.53 15.476a3.932 3.932 0 0 1 1.801 0l.024.005c.74.185 1.488.23 2.11.126l.028-.005a4.385 4.385 0 0 1 1.29-.036l-.03-.022.016.034-.002-.004c.003.011.005.04.008.071.012.157.042.525.357.96.057.08.522.91.571 1.381.012.119.148.827.495 1.35l.001.003.002.001.005.007.032-.06a3.05 3.05 0 0 1-.398-.066l-.027-.006a3.307 3.307 0 0 0-1.434-.015l-.016.003c-.315.068-.538.102-.672.122-.043.006-.077.01-.1.015-.355.063-1.054-.068-1.283-.112-.038-.007-.064-.012-.076-.013-.365-.052-.9-.08-1.37.084a.154.154 0 0 1-.018.006l.046.027-.006-.026c-.348-2.071-1.305-3.843-1.315-3.86" fill="#fff"/><path d="m4.382 15.259 1.313 4.865.075-.02-1.313-4.865-.01-.01-.028.034-.206.082-.062-.072.01.04 1.303 4.811.075-.02-1.303-4.812-.028.048.22-.053-.046-.028z" fill="#010101"/><path d="M4.003 15.243A.086.086 0 0 1 4 15.217c.008-.108.12-.172.254-.205a.497.497 0 0 1 .11-.012c.097.001.191.028.216.116a.13.13 0 0 1 .001.022c-.007.108-.12.173-.254.205l-.01-.043.01.043a.53.53 0 0 1-.11.013c-.097-.002-.19-.028-.213-.113zm.361-.155a.413.413 0 0 0-.09.01c-.119.023-.19.097-.186.12v.004c0 .012.046.047.13.046a.448.448 0 0 0 .09-.01c.12-.023.19-.098.186-.12v-.004c0-.013-.044-.046-.125-.046h-.005z" fill="#010101"/><path d="M9.962 16.28c-.473-.048-.755-.008-.827-.008-.2 0-.858.107-.935.118-.33.051-.81-.017-.875-.035-.697-.19-1.066-.178-1.136-.183-.429-.036-1.22.03-1.273.041l.003.008c.095.214.2.47.308.759l.003.002c.071-.011.837-.146 1.622 0 .094.018 1.297.25 1.905.072.1-.03.621-.117.876-.083.088.011.613.035.765.07l-.006-.01a4.408 4.408 0 0 0-.26-.466 1.92 1.92 0 0 1-.165-.277l-.005-.008zm.886 2.219c-.526-.083-1.009-.09-1.12-.096-.344-.018-.806.106-.906.13-.639.15-1.616-.06-1.716-.077-.604-.107-1.332.083-1.396.1v-.004a13.808 13.808 0 0 0-.204-.747l-.003-.006c.06-.017.846-.228 1.526-.082.083.017 1.083.172 1.444.124.089-.012.436-.02.893-.107a4.096 4.096 0 0 1 1.321.041l.004.012c.013.056.027.111.032.162.006.057.04.274.123.543l.002.007z" fill="#D71F27"/><path d="m4.386 15.269.128.213c.012.02 1.159 2.058 1.427 4.635l.078-.008c-.27-2.593-1.426-4.646-1.437-4.666l-.13-.214-.066.04z" fill="#010101"/><path d="M4.556 15.5a3.916 3.916 0 0 1 1.79 0l.024.006c.734.183 1.479.227 2.097.124.007 0 .015-.003.027-.005a4.38 4.38 0 0 1 1.282-.036l-.032-.023.015.034-.001-.005a.5.5 0 0 1 .007.07c.013.156.042.521.356.953.058.078.519.9.567 1.367.013.117.148.82.493 1.338l.001.002.002.002.004.006.034-.064c-.204-.02-.3-.043-.395-.064l-.026-.006a3.312 3.312 0 0 0-1.426-.016l-.017.004c-.312.067-.534.1-.667.12l-.1.016c-.351.061-1.046-.068-1.274-.111l-.076-.014c-.363-.052-.894-.08-1.362.084l-.018.006.049.03-.006-.027c-.346-2.052-1.298-3.806-1.307-3.825l-.016-.025-.066.042.015.024c.008.014.953 1.757 1.297 3.798l.007.029.01.041.04-.012.022-.008c.452-.158.97-.13 1.324-.08l.073.013c.231.043.937.176 1.301.11l.099-.014c.133-.02.357-.054.672-.12l.018-.005a3.225 3.225 0 0 1 1.391.016l.027.006c.096.021.195.043.403.066l.098.01-.064-.075-.005-.006.002.003c-.336-.505-.467-1.189-.479-1.302-.053-.511-.548-1.358-.582-1.405a1.664 1.664 0 0 1-.34-.913.514.514 0 0 0-.01-.086l-.001-.002-.002-.002-.015-.034-.01-.021-.021-.002a4.415 4.415 0 0 0-1.33.042c-.609.101-1.342.057-2.066-.124l-.026-.006a3.993 3.993 0 0 0-1.824 0l.017.076zm19.662 3.32v.007l-.102.49h2.135l.102-.497h-.178c-.252 0-.472-.277-.523-.346-.05-.069-.678-.967-.678-.967s.94-.445.994-.472a1.34 1.34 0 0 1 .408-.103h.238l.115-.545h-1.867l-.114.545h.058c.021 0 .143.023.08.075-.059.046-.842.431-.842.431l-.011.005s.016-.083.036-.167c.072-.31.324-.344.355-.344l.002-.011.11-.534h-2.121l-.002.006-.11.54h.107c.053 0 .288.048.255.215l-.005.034-.289 1.402-.009.032c-.035.163-.263.204-.298.204h-.146l-.1.498h2.111l.103-.498h-.055c-.217 0-.16-.307-.147-.394l.007-.034.071-.347.155.211s.203.295.241.346c.038.05.173.209-.086.218M13.44 16.933h-.187.207c.033 0 .22.03.174.245l-.004.02-.265 1.297-.005.016c-.073.344-.415.309-.511.309l-.011.052-.094.446h1.476l.098-.47.007-.028s-.121.003-.15 0c-.194-.014-.171-.244-.163-.282l.002-.015.107-.51.006.003 1.349 1.302h1.164l.417-2.019.015-.061c.024-.062.104-.305.273-.305h.241l.114-.544h-1.528l-.113.544h.157c.013 0 .243.014.213.205l-.012.058-.184.888v.006l-1.765-1.7h-1.119l-.112.543h.017" fill="#010101"/><path d="m20.29 17.393-.193-.315c-.061-.108.069-.146.087-.146h.219l.11-.543h-2.825l-.112.543h.235c.046 0 .292-.032.463.159.041.045.532.664.569.71.036.046.101.108.084.179l-.009.04-.092.45-.01.043c-.048.255-.353.307-.397.307h-.369l-.105.497h2.981l.103-.497h-.476c-.212 0-.196-.213-.19-.247l.006-.02.11-.533.005-.02c.01-.037.012-.096.132-.172.038-.025.87-.616.916-.649.045-.032.364-.244.604-.247h.176l.111-.544h-1.656l-.113.544h.069c.023 0 .148.005.063.114a1.538 1.538 0 0 1-.104.083l-.395.266m11.036 1.11-.046.23c.044 0 .142-.019.181-.096h.153l-.079.356h-.139c-.017-.077-.104-.062-.155-.062l-.043.195h.247c.036 0 .112.012.148-.067h.257l-.055.257h.002-1.268l.033-.157a.14.14 0 0 0 .142-.112l.084-.395c.02-.1-.06-.13-.093-.13l.043-.214H32l-.049.241h-.291c-.019-.053-.072-.046-.117-.046h-.22m-4.51.52.07-.341.008-.03c.029-.131-.088-.148-.123-.148l.041-.195h.82l-.043.198c-.043 0-.155-.003-.184.128l-.07.332c-.007.031-.023.19.105.19h.146c.056 0 .114-.06.148-.16h.235l-.067.319h-1.3l.032-.16c.041 0 .153-.015.178-.121l.004-.012zm1.225.135-.033.158h.811l.033-.16c-.056 0-.128-.04-.11-.132l.083-.408.003-.002c.029-.123.096-.11.159-.11l.042-.196h-.812l-.04.195c.038 0 .152.016.12.16h-.002l-.072.35v-.003c-.023.108-.128.149-.182.149zm1.112-.85-.042.203c.03 0 .122.012.098.118l-.075.37c-.025.119-.106.158-.153.158l-.035.159h.53l.032-.161c-.057 0-.132-.031-.114-.127l.028-.133v.001l.465.42h.429l.145-.695c.02-.094.086-.104.123-.104l.041-.209h-.48l-.043.209c.044 0 .11.03.09.112l-.048.224-.601-.545h-.39zm-16.228 1.592h-.001v.461h-.127v-.647h.143l.257.45h.001v-.45h.127v.647h-.135l-.265-.461zm.755-.186h-.136v.647h.136v-.647zm.361.648h-.135v-.647h.295c.126 0 .201.08.201.207 0 .059-.031.207-.206.207h-.155v.233zm.125-.346c.101 0 .101-.072.101-.1 0-.064-.035-.09-.12-.09h-.106v.19h.125zm.577.346h-.136v-.647h.296c.126 0 .202.08.202.207 0 .059-.033.207-.207.207h-.155v.233zm.125-.346c.101 0 .101-.072.101-.1 0-.064-.035-.09-.119-.09h-.107v.19h.125zm.724-.318c.085 0 .31.037.31.34 0 .304-.225.341-.31.341-.085 0-.311-.037-.311-.34 0-.304.226-.341.31-.341zm0 .566c.073 0 .176-.045.176-.225 0-.182-.103-.227-.176-.227s-.175.045-.175.227c0 .18.102.225.175.225zm.641-.364h-.002v.461h-.126v-.647h.142l.258.45h.002v-.45h.125v.647h-.134l-.265-.461zm6.052.078.248-.264h.174l-.263.265.279.382h-.174l-.2-.284-.064.066v.218h-.135v-.647h.135v.263zm.699.383h-.143l.231-.647h.156l.228.647h-.147l-.042-.133h-.238l-.045.133zm.08-.245h.166l-.08-.256h-.002l-.083.256zm.704-.402h-.135v.647h.135v-.647zm.322.448c.001.036.02.105.138.105.064 0 .135-.016.135-.084 0-.05-.049-.064-.117-.08l-.07-.016c-.104-.025-.205-.048-.205-.19 0-.073.038-.2.249-.2.197 0 .25.13.252.21h-.13c-.003-.03-.014-.098-.133-.098-.05 0-.112.019-.112.078 0 .05.042.06.069.067l.158.039c.087.021.169.057.169.174 0 .194-.198.212-.255.212-.237 0-.277-.137-.277-.217h.13zm.737-.447v.245h.252v-.245h.135v.647h-.135v-.29h-.252v.29h-.135v-.647h.135zm.712.646h-.142l.231-.647h.156l.228.647h-.147l-.041-.133h-.24l-.045.133zm.082-.245h.165l-.08-.256H25.7l-.083.256zm-7.751-.402.134.281.128-.28h.153l-.216.404v.242h-.135v-.244l-.224-.403h.16zm1.115.421c0 .17-.102.244-.265.244-.06 0-.148-.015-.206-.079a.24.24 0 0 1-.05-.156v-.43h.138v.42c0 .09.052.13.115.13.093 0 .13-.045.13-.123v-.427h.138v.421zm.33.027c0 .036.019.105.137.105.064 0 .135-.016.135-.084 0-.05-.048-.064-.117-.08l-.07-.016c-.104-.025-.205-.048-.205-.19 0-.073.039-.2.248-.2.2 0 .253.13.253.21h-.13c-.003-.03-.014-.098-.132-.098-.05 0-.113.019-.113.078 0 .05.042.06.07.067l.157.039c.088.021.17.057.17.174 0 .194-.2.212-.256.212-.236 0-.277-.137-.277-.217h.13zm1.054-.083h-.316v.168h.359v.114h-.491v-.647h.476v.115h-.344v.136h.316v.114zm.375-.179h-.002v.461h-.126v-.647h.142l.257.45h.002v-.45h.126v.647h-.135l-.264-.461z" fill="#010101"/></svg>