<svg width="36" height="36" fill="none" xmlns="http://www.w3.org/2000/svg"><path d="M18 0c2.837 0 5.52.656 7.907 1.825C31.884 4.753 36 10.895 36 18c0 9.942-8.058 18-18 18-9.94 0-18-8.057-18-18C0 8.06 8.06 0 18 0z" fill="#F2F4F7"/><path d="M7 11v8.312h22V11H7zm21.804 10.848v-.482h-1.018v-.94h-.555v.94h-1.784v-.94l-.554-.001v.941h-1.122v.482h1.12V23.1s-.002.367-.006.477H23.76v.482l1.048-.003c-.09.399-.382.714-1.053.86v.49c1.061-.135 1.488-.72 1.64-1.346h-.002 1.838v1.35h.554v-1.35h1.023v-.485h-1.023v-1.729h1.02zm-3.361 1.728c.003-.192.004-.55.004-.55v-1.178h1.784v1.728h-1.788zm-7.072 1.076v.497h4.753v-.497H18.37zm.428-1.956v.488h3.878v-.487H18.8zm-.232-1.443h4.388v-.487h-4.388v.487zm-6.469.092v-.437H9.867v-.421h-.542v.42H7.148v.438h1.038c.05.203.147.409.208.6H7.248v3.459h.543v-1.629c.265-.024.483-.078.663-.15v1.449h2.25v.327h.76c.562-.04.53-.698.53-.698v-2.758h-1.148a3.5 3.5 0 0 0 .206-.6h1.046zm-1.619 0a3.778 3.778 0 0 1-.236.6H8.996l-.199-.6h1.682zm-2.688 1.046.94-.001c-.01.262-.087.672-.94.827v-.827.001zm1.205 1.629h1.21v.612h-1.21v-.612zm2.456.595c-.009.22-.145.237-.287.242l-.421.001v-1.275H8.552c.665-.316.744-.91.763-1.192h.582v.56c-.004.069-.029.485.41.46l.002.002h1.143v1.202zm0-2.224v.468h-.917c-.073-.005-.086-.066-.087-.099v-.369h1.004zm5.764-1.827h-.542s-.054 1.702.94 2.259l.003-.707c-.222-.411-.36-.624-.401-1.552zm.33 2.899v-.552h-2.239l.001-.174c.858-.626.81-2.173.81-2.173h-.541c-.04.928-.18 1.141-.402 1.552v.355c-.084.015-.158.025-.217.035v-1.582h-.875c.098-.157.162-.384.159-.443h-.604s-.076.298-.182.443h-.565v1.836l-.287.025v.552c.146-.006.22-.024.292-.03.024.597-.092 1.17-.282 1.442l.004.708c.823-.33.806-1.89.805-2.203.087-.01.197-.023.25-.027v1.268h.498v-1.33l.253-.032v1.472c0 .033.023.27-.237.282h-.394l-.001.514h.678c.523-.002.482-.56.488-.672v-.006l-.001-1.663c.067-.01.175-.018.296-.04v2.33h.001v.048h2.293v-1.935zm-3.12-.883a3.98 3.98 0 0 0-.256.033v-.9h-.495v.96c-.08.012-.142.024-.253.03V21.36h1.004v1.22zm1.436.773h1.077v1.61h-1.077v-1.61z" fill="#005396"/><path d="M14.508 11.26h6.985v7.792h-6.985v-7.791z" fill="#fff"/><path d="M18 12.719c-1.455 0-2.472.997-2.472 2.431 0 1.46.994 2.443 2.472 2.443 1.479 0 2.473-.982 2.473-2.443 0-1.434-1.017-2.431-2.473-2.431zm0 .546c.714 0 1.032.58 1.032 1.885 0 1.309-.318 1.894-1.032 1.894s-1.032-.585-1.032-1.894c0-1.304.318-1.886 1.032-1.886z" fill="#005396"/><path d="M25.322 13.049h-2.27v.482h.542v3.23h-.544l.001.492h4.371v-1.63h-.427l-.013.11c-.106.916-.821 1.023-1.403 1.023 0 0-.615.006-.787.006V13.53l.534.005v-.487h-.004zm-12.007 0h-1.523l-1.05 2.53-.958-2.53H8.03v.488h.542v3.226H8.03v.488h1.44v-.488h-.41v-2.265l1.12 2.85h.404l1.182-2.882v2.297h-.39v.488h2.103v-.488h-.542v-3.227h.542v-.487h-.163z" fill="#fff"/></svg>