<svg width="36" height="36" fill="none" xmlns="http://www.w3.org/2000/svg"><path d="M18 0c2.837 0 5.52.656 7.907 1.825C31.884 4.753 36 10.895 36 18c0 9.942-8.058 18-18 18-9.94 0-18-8.057-18-18C0 8.06 8.06 0 18 0z" fill="#F2F4F7"/><path d="m4.862 15.005 3.61.33.384 4.284H4.027l.077-3.956c.017-.5.202-.7.758-.658z" fill="#ED1C24"/><path d="M4.019 20.048 4 21.005h4.98l-.086-.957" fill="#868785"/><path d="M5.338 19.276h-.801c-.055 0-.076.015-.076-.042v-3.385h.916v1.157l1.49-1.143h1.09c.069 0 .136.028.102.057l-1.553 1.2 1.66 2.056c.03.043.092.115-.044.115h-.748c-.065 0-.098.014-.185-.1l-1.295-1.585-.517.399v1.229c0 .042-.003.042-.036.042" fill="#fff"/><path d="M11.209 18.777V16.39c0-.328-.055-.528-.472-.528h-.111v-.357h2.129v.357h-.115c-.274 0-.355.172-.355.414v1.072l1.714-1.2c.167-.114.2-.286-.022-.286h-.226v-.357h2.09v.357h-.188c-.326 0-.741.142-.951.3l-1.075.758 1.484 1.828c.495.614.665.5.867.5h.158v.328H13.8v-.3c.181-.029.136-.158.032-.3l-1.112-1.415-.435.315v.929c0 .37.132.442.411.442h.09v.329H10.66v-.329h.13c.238 0 .42-.057.42-.471zm-2.016-3.714s-.042 0-.067.015c-.08.057-.235.243-.235.4 0 .157.123.256.235.256.113 0 .225-.057.225-.242 0-.114-.075-.171-.132-.2-.083-.043-.089-.086-.055-.143.017-.043.029-.071.029-.086zm.785.015c-.01-.015-.069 0-.093.014-.08.057-.223.229-.223.386s.124.256.235.256c.113 0 .224-.057.224-.242 0-.1-.074-.171-.13-.2-.085-.043-.09-.085-.056-.143.018-.044.05-.056.043-.071zm7.336.87s.042 0 .067-.013c.08-.057.236-.243.236-.4 0-.157-.123-.258-.236-.258-.114 0-.226.058-.226.243 0 .115.076.172.133.2.082.043.09.086.054.143a.332.332 0 0 0-.028.085zm-.784-.013c.008.013.068 0 .091-.015.08-.057.223-.229.223-.385 0-.157-.123-.258-.234-.258-.113 0-.224.057-.224.243 0 .1.073.171.13.2.085.043.09.086.056.143-.018.043-.051.057-.042.072zm1.619 1.157v-.316h1.573v.316c-.109 0-.3.085-.3.2v1.884c0 .043-.005.1.099.1h.42c.35 0 .897-.185 1.18-.857h.32l-.42 1.157h-2.87v-.313c.138 0 .356.013.356-.3v-1.529c0-.242-.083-.342-.358-.342zm3.88.014v-.3h1.685v.314c-.118 0-.375.072-.375.285v1.6c0 .157.118.286.35.286v.3h-1.685v-.286c.113 0 .427-.086.427-.328v-1.543c0-.2-.15-.314-.402-.328zm2.408.014v-.3h1.193l1.574 1.428c.043.043.11.043.11-.03v-.84a.257.257 0 0 0-.267-.258h-.158v-.314h1.27v.3c-.205 0-.427.085-.427.271v2.214h-.353l-2.112-1.957v1.358c0 .142.028.284.396.284v.33h-1.264v-.315c.143 0 .423-.085.423-.3v-1.586c0-.157-.13-.299-.385-.285zm7.203 1.3c-.175.443-.733.814-1.083.814h-.634v-.9h.421c.11 0 .283.17.3.443l.327.014V17.55h-.285c-.045.3-.265.442-.484.442h-.28v-.814c0-.042.032-.042.043-.057h.94c.233 0 .434.271.511.486h.286l-.12-.815h-2.906v.329h.178c.089 0 .183.072.183.243v1.629c0 .284-.257.27-.4.27v.329h2.952c.147-.443.411-1.172.411-1.172" fill="#231F20"/><path d="M11.57 20.92c-.002-.015-.023-.03-.034-.03a.17.17 0 0 1-.07-.057 8.78 8.78 0 0 1-.288-.386c-.02-.012-.013-.042 0-.057.011-.012.233-.226.257-.256.018 0 .056-.029.071-.029.053-.014.048-.029.049-.043 0-.014-.017-.014-.03-.014h-.253c-.018 0-.04 0-.037.014.002.029.015.029.037.029.072.014.028.073.022.073-.034.055-.255.283-.324.356l-.001-.33c0-.014 0-.026.004-.056.006-.028.037-.028.044-.028.029-.015.037-.03.037-.044-.002-.014-.005-.014-.036-.014h-.295c-.02 0-.042 0-.04.029 0 .029.037.029.054.029.07.013.08.07.08.085l-.004.63c0 .056-.032.07-.048.084-.015 0-.037 0-.04.03-.002.027.027.013.027.013h.289c.047 0 .047-.014.05-.028 0-.015-.008-.015-.018-.015a.418.418 0 0 1-.084-.042c-.019-.015-.018-.1-.018-.114v-.143a.27.27 0 0 1 .065-.072c.006 0 .011 0 .025.015.013.013.257.356.274.37.014.015.028.029.038.029h.157c.04 0 .04-.014.04-.029zm5.558 0c-.002-.03-.023-.03-.034-.03a.18.18 0 0 1-.07-.057c-.007-.013-.27-.356-.29-.386-.02-.027-.01-.042 0-.057.013-.012.234-.242.26-.256.017-.015.053-.029.069-.043.054-.015.05-.015.05-.029 0-.028-.018-.028-.03-.028s-.106.014-.127.014c-.024 0-.127-.014-.127-.014-.018 0-.04.014-.037.028a.038.038 0 0 0 .037.029c.072.014.03.057.023.073a3.168 3.168 0 0 1-.324.34l-.002-.328s0-.012.005-.042c.005-.028.036-.043.042-.043.03-.014.038-.014.037-.029 0-.014-.005-.028-.034-.028-.022 0-.14.015-.154.015h-.14c-.02 0-.043 0-.042.013 0 .044.037.044.055.044a.09.09 0 0 1 .078.085l-.003.63c0 .042-.03.07-.048.07-.016.014-.036.014-.039.043-.002.014.026.014.026.014h.288c.048 0 .048-.014.05-.028 0-.015-.007-.015-.018-.03a.148.148 0 0 1-.084-.027c-.018-.03-.016-.114-.016-.129l-.002-.142c.02-.015.057-.057.065-.057.007-.015.012 0 .026.014.012.014.258.342.273.37.014.015.03.029.039.029h.158c.04-.014.04-.014.04-.029zm1.922 0c-.002-.03-.024-.03-.035-.03a.17.17 0 0 1-.07-.057c-.007-.013-.27-.356-.289-.386-.02-.027-.012-.042 0-.057.012-.012.234-.242.258-.256.017-.015.055-.029.07-.043.053-.015.05-.015.05-.029.001-.028-.017-.028-.03-.028-.011 0-.106.014-.128.014-.023 0-.125-.014-.125-.014-.019 0-.04.014-.038.028.002.014.016.029.038.029.072.014.028.057.022.073a3.072 3.072 0 0 1-.324.34l-.002-.328s0-.012.005-.042c.006-.028.037-.043.043-.043.03-.014.038-.014.038-.029-.003-.014-.006-.028-.037-.028-.02 0-.138.015-.153.015H18.2c-.02 0-.041 0-.04.013.002.044.037.044.055.044.07.013.079.07.079.07 0 .015-.002.63-.004.644 0 .043-.03.07-.047.07-.016.015-.038.015-.039.044-.004.014.025.014.025.014h.289c.052 0 .052-.014.052-.028 0-.015-.009-.015-.02-.03a.137.137 0 0 1-.082-.027c-.02-.03-.019-.114-.019-.129v-.142c.019-.015.056-.057.065-.057.006-.015.011 0 .025.014.013.014.257.342.274.37.014.015.029.029.04.029h.155c.042-.014.043-.014.042-.029zm-6.5-.015c-.027-.014-.045 0-.072-.027a.986.986 0 0 1-.117-.258c-.02-.043-.257-.57-.261-.57-.004-.016-.01-.03-.025-.03-.015 0-.026.03-.03.03-.003.012-.297.713-.303.727-.004 0-.03.072-.065.1-.01.014-.045.029-.054.043-.008.015-.012.028.029.028.016.015.076 0 .12 0h.13c.02 0 .047 0 .046-.028 0 0-.004-.015-.06-.029-.018 0-.072-.028-.074-.057a.27.27 0 0 1 .025-.114c.012-.028.032-.085.103-.085h.195c.016 0 .045 0 .066.029.01.028.057.127.057.156-.002.043-.012.058-.046.071-.005 0-.038.015-.038.044 0 .013.033.013.047.013.016 0 .118-.013.14-.013.073 0 .142.013.16.013.019 0 .055-.013.027-.043zm-.444-.342h-.14c-.06 0-.046-.028-.042-.043.005-.014.096-.256.098-.256.002-.015.003-.015.012-.015.009 0 .008 0 .01.015.003 0 .093.242.097.242.034.071-.029.057-.035.057zm4.068.343c-.027-.028-.044-.015-.073-.043-.04-.043-.1-.2-.118-.256-.018-.044-.255-.557-.259-.573-.005-.014-.011-.029-.026-.029-.017 0-.024.03-.028.03-.004.015-.3.714-.303.728-.004 0-.033.071-.066.115-.01 0-.045.013-.054.028-.01.014-.013.042.028.042.015 0 .076-.013.119-.013h.13c.021 0 .05 0 .048-.015 0-.014-.005-.029-.06-.042-.018 0-.07-.015-.074-.057a.25.25 0 0 1 .024-.115c.014-.029.033-.086.103-.086h.194c.017 0 .046 0 .067.044a.623.623 0 0 1 .058.142c-.001.043-.013.057-.047.072-.005.013-.038.013-.038.042.003.028.033.015.049.015s.116-.015.139-.015c.073 0 .143.015.16.015.019 0 .054-.015.027-.03zm-.443-.357h-.14c-.062 0-.047-.029-.043-.043.004 0 .095-.242.097-.257.002 0 .005-.015.013-.015s.008.015.011.015c.002 0 .093.243.098.243.031.07-.034.057-.036.057zm-1.261.356c-.026-.028-.043-.015-.071-.043-.039-.042-.101-.199-.12-.242-.015-.043-.253-.57-.258-.586-.004 0-.012-.015-.026-.015-.014 0-.024.015-.028.03-.005 0-.298.714-.304.714a.291.291 0 0 1-.064.114c-.012.014-.046.028-.055.043-.008 0-.014.028.029.028.014 0 .076 0 .118-.014.035 0 .112.014.132.014.02 0 .048 0 .047-.028-.001-.015-.004-.03-.06-.03-.02-.013-.072-.027-.074-.07-.003-.043.011-.072.024-.1.012-.029.033-.086.103-.1h.196c.015 0 .045 0 .063.043.01.014.059.128.059.157-.001.028-.01.043-.045.07-.005 0-.039.015-.039.03.001.028.034.028.05.028.014 0 .113-.014.137-.014.072 0 .143.014.16.014.02 0 .054-.014.026-.043zm-.442-.343c-.005-.013-.141 0-.141 0-.06-.013-.045-.042-.041-.042.002-.015.095-.257.097-.257.003-.014.004-.03.013-.03.006 0 .006.016.01.03.003 0 .093.229.096.242.033.057-.031.057-.034.057zm-.415-.528c-.016 0-.027 0-.062.014h-.13c-.038 0-.06-.014-.058.014 0 .014-.001.029.05.043.054 0 .058.058.058.085a.76.76 0 0 1-.026.13c-.003 0-.093.286-.094.286-.004.013-.026.113-.037.113-.007 0-.01-.014-.014-.028-.003-.015-.155-.458-.158-.473-.006-.028-.013-.042-.014-.07-.004-.03.015-.043.029-.043.026-.014.03-.029.03-.044 0-.013-.017-.013-.03-.013h-.278c-.014 0-.024.014-.023.014.003.043.048.043.057.043.031.014.036.043.046.058 0 0 .033.1.076.214-.02.057-.125.286-.127.3-.005.014-.021.071-.03.071-.009 0-.011-.015-.014-.029-.002-.014-.165-.486-.168-.5-.007-.029-.014-.043-.016-.071-.002-.03.026-.043.04-.043.027-.014.03-.014.03-.029 0-.028-.019-.028-.033-.028h-.276c-.013 0-.023.014-.023.028.003.03.036.03.046.03.028.013.035.042.043.057.007.013.27.756.273.771.006.014.011.043.035.043.022 0 .03-.03.031-.03.008-.013.19-.427.217-.485l.166.472c.005.014.011.028.035.028.023 0 .03-.014.032-.014.008-.029.184-.544.184-.544.006-.027.078-.228.1-.27.02-.043.046-.043.054-.058.004-.028-.005-.043-.02-.043zm1.223 0c.033 0 .09 0 .159.027a.051.051 0 0 0 .063 0c.02 0 .04-.013.043 0 .004.03.018.186.024.215.006.029-.014.044-.027.044-.018 0-.026-.044-.036-.073-.006-.014-.062-.142-.194-.156-.027 0-.157 0-.171.1-.009.072.02.114.193.186.04.013.216.057.257.229.005.013.047.242-.164.328-.054.028-.152.028-.232 0-.04-.015-.077-.015-.098-.029-.02 0-.026-.028-.036-.072-.01-.042-.035-.17-.039-.185 0 0 .014-.014.025-.014.031 0 .038.057.052.085.007.014.057.129.161.158.038.013.128.028.186-.03.061-.056.07-.17.007-.213-.064-.057-.274-.114-.336-.172a.247.247 0 0 1-.08-.199c.003-.1.08-.244.243-.23zm5.065-.015c.032 0 .087 0 .157.043h.063c.02-.014.04-.029.045 0l.024.213c.005.03-.015.045-.028.045-.019 0-.027-.044-.036-.073-.006-.014-.063-.156-.195-.171-.026 0-.157 0-.17.114-.01.073.021.115.194.173.038.014.214.057.256.228.004.028.046.242-.166.343-.052.028-.15.028-.23 0-.04-.029-.078-.029-.098-.029-.02-.015-.026-.043-.037-.085-.01-.044-.034-.157-.039-.172 0-.014.014-.029.027-.029.03 0 .038.058.052.087.007.013.054.127.161.171.04.014.126.028.187-.029.06-.057.067-.171.005-.228-.064-.043-.273-.116-.337-.157-.059-.058-.081-.115-.078-.215.002-.085.08-.23.243-.23zm-2.686.029h.146c.039 0 .141-.014.158-.014.015 0 .036.014.038.028 0 .014-.002.029-.045.029-.018.015-.039.028-.042.072v.6s.004.07.025.085c.023.029.042.042.097.042.024 0 .024.015.025.03 0 .014.002.027-.032.027-.03 0-.148-.013-.166-.013-.059 0-.134.013-.151.013-.017 0-.039 0-.037-.028 0-.014.037-.029.054-.042.008 0 .03-.015.035-.1v-.587c0-.014-.02-.071-.064-.084-.028 0-.084-.015-.085-.044-.001-.028.033-.014.044-.014zm1.916 0h.145c.038 0 .142-.014.16-.014.013 0 .033.014.037.028 0 .014-.004.014-.048.029-.016.015-.037.028-.038.072-.003.043 0 .585 0 .585 0 .015.002.072.024.1.02.03.04.043.095.043.025 0 .025.014.026.029 0 .014.002.028-.03.028-.033 0-.15-.014-.168-.014-.06 0-.135.014-.151.014-.017 0-.039 0-.036-.028 0-.03.036-.03.052-.043.009 0 .032-.014.036-.1v-.601s-.02-.057-.064-.07c-.03 0-.084-.015-.084-.044-.003-.028.032-.014.044-.014zm1.247 0h.293c.029 0 .213-.014.238-.014.03 0 .081-.015.081.042v.142s0 .015-.012.03c-.017 0-.024-.015-.03-.03-.002-.012-.001-.055-.037-.084-.033-.028-.098-.028-.137-.028h-.097c-.012 0-.057 0-.057.057l.002.214c0 .013-.005.043.049.043.053 0 .109 0 .13-.015a.167.167 0 0 0 .064-.085c.004-.014.011-.014.02-.014.012 0 .025 0 .027.041.002.03.006.202.007.215.002.015.005.057-.013.057s-.03-.013-.036-.027c-.005-.03-.02-.087-.062-.1h-.158c-.018 0-.028.013-.028.042v.271s0 .057.068.057c.066 0 .175 0 .231-.042.055-.044.064-.057.097-.1.006-.015.014-.015.024-.015s.015.014.015.029c0 .029-.012.156-.13.2-.037.013-.16 0-.195 0h-.248c-.045 0-.066.013-.078.013-.01 0-.031 0-.031-.028.002-.029.024-.029.036-.029.014-.013.05-.028.05-.1v-.6s.004-.072-.05-.084c-.031 0-.086-.016-.086-.045 0-.027.024-.013.053-.013zm.79-.014h.19c.017 0 .03 0 .063.042.01.015.514.572.521.587.006 0 .02.013.02-.015v-.442s-.003-.073-.056-.1a.186.186 0 0 0-.08-.03c-.013 0-.02-.014-.02-.028-.001-.014.022-.014.04-.014h.253a.023.023 0 0 1 .038.014c.001.014-.016.028-.03.028-.018.015-.073.03-.07.087v.043l-.022.728s-.005.028-.025.013c-.02-.028-.626-.7-.63-.714-.009 0-.02-.027-.02 0v.458s-.002.072.011.1c.017.042.038.072.076.086.022 0 .062 0 .062.028 0 .015-.005.03-.034.03-.03 0-.104-.015-.142-.015-.038 0-.098.014-.123.014-.024 0-.035-.014-.036-.029 0-.015.021-.028.039-.028.018-.014.058-.029.066-.114.004-.03.014-.545.013-.557-.002-.015-.01-.073-.049-.1-.04-.03-.088-.03-.09-.058-.001-.014.017-.014.035-.014zm2.367.886c0-.015-.021-.03-.034-.03a.171.171 0 0 1-.069-.056 7.83 7.83 0 0 1-.288-.387c-.022-.012-.014-.041 0-.057a6.21 6.21 0 0 1 .257-.242c.018-.014.055-.041.071-.041.052-.016.047-.03.048-.03 0-.029-.018-.029-.03-.029h-.254c-.018 0-.038 0-.036.014.003.029.016.029.035.029.074.015.033.073.025.073-.034.055-.256.283-.324.356l-.001-.33c0-.014 0-.026.004-.056.005-.027.038-.027.043-.027.03-.016.036-.03.036-.045 0-.014-.003-.014-.035-.014-.022 0-.138.014-.155.014-.014 0-.138-.014-.138-.014-.02 0-.043.014-.04.028 0 .03.036.03.054.03a.09.09 0 0 1 .079.085l-.004.63c0 .056-.032.07-.048.084-.017 0-.038 0-.04.03-.002.027.027.013.027.013h.288c.049 0 .049-.014.05-.014 0-.029-.007-.029-.019-.029a.412.412 0 0 1-.082-.042c-.018-.015-.017-.1-.017-.114l-.001-.143c.02-.029.057-.057.064-.072.006 0 .012 0 .025.015.013.013.259.356.275.37.014.015.028.029.04.029h.155c.04 0 .041-.014.04-.028zm1.009-.015c-.027-.028-.045-.014-.07-.043-.041-.042-.104-.199-.122-.242a17.96 17.96 0 0 0-.258-.572c-.004-.014-.012-.029-.025-.029-.014 0-.026.015-.029.03-.004.013-.298.714-.303.714a.31.31 0 0 1-.066.114c-.01.014-.045.028-.055.043-.007.014-.011.028.03.028h.249c.02 0 .049 0 .047-.028 0-.015-.004-.015-.06-.03-.018-.013-.072-.027-.074-.07-.003-.043.012-.072.024-.1.014-.029.034-.086.104-.086h.195c.016 0 .045-.014.066.03.01.027.057.127.057.156-.002.043-.011.043-.047.07-.004 0-.037.015-.037.03.001.028.033.028.048.028s.115-.014.139-.014c.073 0 .142.014.16.014.019 0 .055-.014.027-.043zm-.463-.37h-.14c-.06 0-.046-.03-.042-.043.002 0 .096-.244.097-.259.002 0 .004-.015.012-.015.007 0 .007.015.01.015s.094.244.097.259c.033.057-.031.042-.034.042zm1.328-.516c.033 0 .087 0 .158.029a.056.056 0 0 0 .064 0c.019 0 .04-.014.043 0 .003.028.018.185.024.215.006.042-.015.042-.027.042-.019 0-.027-.042-.036-.072-.007-.015-.063-.143-.194-.157-.027 0-.156 0-.171.1-.008.071.02.114.192.187.04.014.215.057.256.228.006.015.048.242-.162.328-.053.028-.152.028-.232 0-.04-.014-.077-.014-.099-.029-.02 0-.026-.028-.035-.07-.011-.044-.035-.172-.038-.186-.003 0 .012-.015.024-.015.03 0 .036.057.052.087.007.013.057.127.162.157.038.014.127.028.186-.03.06-.056.068-.17.008-.213-.066-.058-.276-.115-.339-.173a.236.236 0 0 1-.078-.2c.001-.1.08-.242.242-.228zm-.755.029h.147c.038 0 .14-.014.158-.014.014 0 .037.014.037.028s-.001.029-.048.029c-.014.015-.037.028-.038.073-.002.042 0 .584 0 .584 0 .015.003.085.026.1.02.03.04.043.095.043.023 0 .023.014.024.029 0 .014.003.028-.03.028-.03 0-.149-.014-.166-.014-.06 0-.134.014-.152.014-.018 0-.038 0-.038-.028 0-.03.038-.03.056-.043.006 0 .029-.014.034-.1v-.601s-.022-.057-.063-.07c-.03 0-.086-.015-.086-.044-.002-.028.034-.014.044-.014zm1.225 0h.313c.014 0 .038 0 .036.028 0 .015-.019.03-.035.03-.017 0-.06.013-.062.07a2.289 2.289 0 0 0 0 .214c.001.016.011.045.047.045h.323c.007 0 .062 0 .064-.057v-.187s-.006-.057-.044-.085c-.016 0-.051-.015-.067-.015-.018 0-.019-.015-.019-.03 0-.013.022-.013.042-.013h.303c.017 0 .027 0 .027.014s-.002.029-.029.044c-.028 0-.058.013-.061.07v.587s-.001.057.024.085c.023.03.059.043.082.057.021 0 .027.015.027.015 0 .014 0 .028-.024.028h-.318c-.022 0-.035 0-.036-.028-.002-.015.03-.03.043-.03.012-.013.05-.027.05-.084v-.243c0-.014-.006-.057-.04-.057h-.319c-.01 0-.076-.014-.076.071v.229c.001 0 .024.085.093.085.024 0 .057.014.056.029 0 .028-.009.028-.04.028h-.325c-.02 0-.038 0-.042-.014-.001-.029.013-.029.029-.043.016 0 .063-.028.066-.085v-.615c0-.015.003-.072-.077-.084-.029 0-.052 0-.052-.045 0-.014.028-.014.04-.014zm1.983.857c-.026-.014-.044 0-.073-.028-.038-.043-.1-.2-.118-.258a18.192 18.192 0 0 0-.26-.57c-.003-.015-.01-.03-.025-.03-.016 0-.024.03-.028.03-.005.013-.3.714-.302.727-.004 0-.032.072-.066.101-.01.014-.046.028-.055.043-.01.014-.012.028.028.028.017.014.076 0 .119 0h.131c.02 0 .05 0 .048-.014 0-.014-.005-.029-.06-.043-.02 0-.072-.028-.074-.057a.23.23 0 0 1 .024-.115c.013-.028.034-.085.102-.085h.195c.017 0 .046 0 .066.043a.616.616 0 0 1 .058.143c0 .043-.011.057-.044.07-.007 0-.04.015-.04.044.002.014.033.014.049.014.015 0 .115-.014.138-.014.073 0 .143.014.161.014.018 0 .053-.014.026-.043zm-.443-.343h-.14c-.061 0-.047-.028-.043-.042.003-.015.096-.244.097-.257.003-.015.005-.015.014-.015.009 0 .006 0 .01.015.003 0 .091.242.097.242.032.072-.032.057-.035.057zm.564.243c.006-.014.084-.071.09-.086.013-.014.044 0 .063.015.018.014.064.071.06.114a.313.313 0 0 1-.08.2c-.019.014-.086.058-.1.071-.012.015-.034.015-.041 0-.008-.014-.005-.028.008-.043.014 0 .075-.057.075-.1 0 0 .007-.042-.015-.071-.015-.015-.054-.057-.064-.057-.008-.014-.005-.028.004-.043zm.827-.757h.282c.008 0 .06 0 .063.014 0 .029-.022.044-.028.044-.01 0-.06 0-.06.058v.656s-.001.043.052.057c.055 0 .142 0 .233-.043a.454.454 0 0 0 .09-.085c.007 0 .03-.043.046-.043.014 0 .02.028.018.043-.002.028-.018.142-.118.185-.042.014-.127.014-.165.014-.037 0-.201-.014-.257 0h-.137c-.01 0-.014-.014-.016-.028 0-.015.022-.03.038-.03.015 0 .053-.042.053-.084v-.642s-.004-.045-.057-.057c-.023 0-.067 0-.067-.03 0-.029.016-.029.03-.029zm.692 0h.724c.008 0 .043-.014.043.07 0 .015.004.1.003.115-.003.015-.01.015-.022.015-.01 0-.024 0-.033-.03-.007-.027-.028-.084-.084-.084h-.13c-.017 0-.067 0-.067.072v.57a.12.12 0 0 0 .064.101c.056.014.06.014.072.014.012 0 .017.014.017.029-.001.014-.008.028-.036.028-.032 0-.18-.014-.205-.014-.025 0-.159.014-.183.014-.018 0-.026-.014-.025-.028 0-.03.017-.03.044-.03.024-.013.088-.027.09-.099v-.627s.003-.03-.049-.045c-.052 0-.114.015-.14.015-.025 0-.063.03-.085.085-.022.071-.027.071-.045.071s-.027 0-.021-.057l.021-.157c.001-.014.005-.028.047-.028zm1.65.1a.58.58 0 0 0-.287-.114l-.466.014c-.029 0-.05 0-.046.028 0 .015.052.03.08.043.059.014.052.1.052.1v.557c0 .086-.042.1-.058.114-.016.015-.033.015-.036.03-.003.014.02.027.033.027.015 0 .07-.013.113-.013.134 0 .133.014.26.014.182-.014.289-.1.31-.115a.549.549 0 0 0 .163-.356.451.451 0 0 0-.119-.33zm-.15.657c-.02.015-.07.085-.236.085a.115.115 0 0 1-.123-.114 4.285 4.285 0 0 1-.006-.113v-.487c0-.013-.003-.07.068-.07.017 0 .178-.016.275.07.032.03.125.144.128.301 0 .057.008.214-.105.328zm.396.015c.008-.015.074-.072.082-.086.009-.015.03-.029.054 0a.572.572 0 0 0 .08.086c.01.013.01.028-.009.042-.027.028-.07.072-.078.086-.009.014-.03.014-.045 0a.596.596 0 0 1-.09-.1c-.005 0-.007-.015.006-.028z" fill="#868785"/></svg>