<svg width="36" height="36" fill="none" xmlns="http://www.w3.org/2000/svg"><path d="M18 0c2.837 0 5.52.656 7.907 1.825C31.884 4.753 36 10.895 36 18c0 9.942-8.058 18-18 18-9.94 0-18-8.057-18-18C0 8.06 8.06 0 18 0z" fill="#F2F4F7"/><path d="m30.566 14-4.123 7.14h1.436L32 14h-1.434z" fill="#00A6E9"/><path d="M26.443 21.14 30.566 14h-4.3l-4.123 7.14h4.3zm-14.45-4.761a.135.135 0 0 1 .128-.106.144.144 0 0 1 .125.09l1.31 4.773h2.149l1.094-6.211h-.947l-.841 4.773a.127.127 0 0 1-.247.012l-1.315-4.785h-2.148l-1.094 6.207h.947l.84-4.753zm-3.667 2.655-.183-2.784a.147.147 0 0 0-.105-.138.144.144 0 0 0-.166.08l-2.8 4.948H4l3.51-6.215h2.07l.414 6.207H8.467l-.046-.676a.262.262 0 0 0-.26-.26H5.84l.524-.925h1.742a.226.226 0 0 0 .219-.237zm11.67.014-.244-2.755a.14.14 0 0 0-.192-.117.14.14 0 0 0-.066.054l-2.522 4.91h-1.048l3.188-6.215h2.066l.55 6.207h-1.546l-.06-.678a.265.265 0 0 0-.26-.259h-2.178l.477-.924h1.613a.22.22 0 0 0 .223-.223z" fill="#0B308E"/></svg>