<svg height="36" viewBox="0 0 36 36" width="36" xmlns="http://www.w3.org/2000/svg"><mask id="a" fill="#fff"><path d="M0 0h4.868v4.858H0z" fill-rule="evenodd"/></mask><mask id="b" fill="#fff"><path d="M0 0h2.73v1.858H0z" fill-rule="evenodd"/></mask><mask id="c" fill="#fff"><path d="M0 5.116h28.018V0H0z" fill-rule="evenodd"/></mask><g fill="none" fill-rule="evenodd"><path d="M18 0c2.837 0 5.52.656 7.907 1.825C31.884 4.753 36 10.895 36 18c0 9.942-8.058 18-18 18-9.94 0-18-8.057-18-18C0 8.06 8.06 0 18 0z" fill="#f2f4f7" fill-rule="nonzero"/><path d="M4.307 1.744 2.837.274a.928.928 0 0 0-.8-.263A2.44 2.44 0 0 0 0 2.419a2.438 2.438 0 0 0 2.435 2.44 2.444 2.444 0 0 0 2.433-2.353c0-.017-.005-.061-.037-.081-.04-.025-.116-.015-.116-.015h-.942s-.09 0-.117.012a.467.467 0 0 0-.044.027l-1.147 1.15a.048.048 0 0 1-.068 0L1.243 2.444a.047.047 0 0 1 0-.067L2.397 1.22a.048.048 0 0 1 .068 0l1.058 1.06s.055.05.108.063c.048.014.119-.035.119-.035z" fill="#3147a4" mask="url(#a)" transform="translate(4 15.258)"/><path d="M2.687 1.249 1.899.46C1.018-.39 0 .197 0 .197s.433-.232.986.35l1.303 1.31.383-.38s.047-.057.057-.11c.011-.05-.042-.118-.042-.118" fill="#3147a4" mask="url(#b)" transform="translate(6.156 15)"/><g fill="#000"><path d="M25.539 19.005h.352c.169 0 .336.02.336.19 0 .092-.057.211-.236.211h-.452zm0-.502h.306c.277 0 .317.128.317.195 0 .077-.046.174-.251.174h-.372zm-.18 1.037h.689c.1 0 .356-.092.356-.336 0-.217-.202-.266-.24-.284a.264.264 0 0 0 .181-.25c0-.228-.254-.3-.373-.3h-.613zm1.758-.274c0 .027-.105.169-.325.165-.088-.002-.18-.04-.176-.145.001-.063.067-.103.096-.114.093-.034.275-.031.405-.074zm.167-.446c-.003-.084-.107-.14-.234-.163a.822.822 0 0 0-.173-.014.54.54 0 0 0-.207.037c-.106.043-.155.117-.168.166l-.006.073h.152c.004-.038.016-.155.206-.155.107 0 .247.027.262.086v.1c0 .044-.06.06-.082.064-.096.02-.19.004-.372.049-.105.026-.2.08-.212.22-.014.166.127.264.352.264.132 0 .242-.072.321-.123.005.057.077.123.15.123a.443.443 0 0 0 .124-.015v-.106c-.01.005-.025.005-.036.005-.04 0-.077-.026-.077-.05zm.17-.134v.843h.16v-.447c-.002-.227.143-.297.278-.297.11 0 .204.053.202.159v.585h.16v-.656c-.021-.123-.11-.166-.158-.19-.025-.008-.093-.018-.166-.02s-.151.007-.2.038a.302.302 0 0 0-.111.09h-.004v-.105zm.926-.328v1.17h.161v-.315l.161-.133.332.449h.2l-.41-.55.35-.293h-.207l-.426.353v-.68zm-16.909.361c-.083-.236-.274-.383-.57-.38a.702.702 0 0 0-.388.12.63.63 0 0 0-.223.494.618.618 0 0 0 .223.493.696.696 0 0 0 .387.119.58.58 0 0 0 .598-.464h-.184c-.072.222-.198.33-.404.33a.433.433 0 0 1-.302-.113.513.513 0 0 1-.134-.365.521.521 0 0 1 .134-.367.436.436 0 0 1 .302-.111c.194 0 .313.098.374.244zm.129.809h.162v-.547c0-.073.027-.096.062-.125a.4.4 0 0 1 .159-.072.334.334 0 0 1 .17.022c.03.012.093.041.085.148v.574h.162v-.64c.004-.026-.017-.154-.165-.197a.478.478 0 0 0-.3-.008.478.478 0 0 0-.173.104v-.429H11.6z"/><path d="M8.541 3.525h.162v-.167h-.162zm0 1.004h.162v-.843h-.162zm.315-.843v.843h.162v-.447c-.004-.227.141-.297.276-.297.112 0 .204.053.202.159v.585h.161v-.656c-.02-.123-.11-.166-.159-.19a.68.68 0 0 0-.165-.02.376.376 0 0 0-.2.038.305.305 0 0 0-.112.09h-.003v-.105zm1.563.584c0 .028-.106.17-.325.165-.088-.001-.181-.04-.177-.144.002-.062.068-.103.096-.114.094-.035.275-.032.406-.076zm.167-.445c-.004-.084-.107-.14-.234-.162a.782.782 0 0 0-.174-.016.568.568 0 0 0-.207.037c-.106.043-.154.118-.167.167l-.006.073h.152c.004-.038.016-.156.205-.156.108 0 .248.028.262.087v.1c0 .044-.06.06-.081.064-.096.02-.19.004-.373.049-.104.025-.2.08-.211.22-.013.166.127.263.352.263.132 0 .242-.073.32-.122.007.057.078.122.15.122a.449.449 0 0 0 .125-.014V4.43c-.011.004-.025.004-.036.004-.04 0-.077-.025-.077-.05zm1.926-.106c-.083-.236-.275-.383-.57-.38a.706.706 0 0 0-.389.12.636.636 0 0 0-.223.494.625.625 0 0 0 .223.493.7.7 0 0 0 .388.119.579.579 0 0 0 .597-.464h-.184c-.07.222-.197.33-.404.33a.428.428 0 0 1-.3-.113.518.518 0 0 1-.136-.365.527.527 0 0 1 .135-.367.431.431 0 0 1 .301-.111c.195 0 .314.098.375.244zm.808.394c0 .137-.076.317-.29.317-.21 0-.29-.18-.29-.317 0-.138.08-.316.29-.316.214 0 .29.178.29.316m.166 0c0-.376-.27-.45-.455-.45-.184 0-.456.074-.456.45 0 .375.272.451.456.451.185 0 .455-.076.455-.45m.104-.428v.843h.16v-.447c-.002-.227.144-.297.278-.297.11 0 .204.053.202.159v.585h.16v-.656c-.02-.123-.108-.166-.158-.19a.696.696 0 0 0-.165-.02.376.376 0 0 0-.2.038.297.297 0 0 0-.112.09h-.004v-.105zm.88.594c0 .078.021.23.255.273.058.011.127.011.195.011a.59.59 0 0 0 .183-.035c.106-.039.167-.119.181-.2s-.02-.166-.109-.21a.769.769 0 0 0-.233-.065c-.1-.019-.18-.036-.236-.062-.056-.025-.07-.072-.048-.114.025-.046.098-.09.196-.09.225 0 .23.09.23.134h.158c-.002-.095-.042-.26-.375-.26-.197 0-.37.092-.37.252 0 .124.07.18.147.205.087.033.248.06.375.085.081.023.11.064.11.107s-.029.082-.064.104a.54.54 0 0 1-.127.038c-.05 0-.103 0-.142-.009-.113-.029-.169-.083-.175-.165zm1.105-.822h-.162v.228h-.14v.125h.14v.636c0 .032.035.11.147.117.063.007.107 0 .174-.008v-.119c-.09.013-.16.01-.16-.043v-.583h.16v-.125h-.16zm.218 1.07h.162V4.09c0-.145.055-.225.17-.268a.574.574 0 0 1 .152-.02v-.14h-.09a.322.322 0 0 0-.229.156h-.003v-.133h-.162zm1.337 0v-.843h-.16v.458c0 .11-.023.236-.198.285a.322.322 0 0 1-.204-.01.142.142 0 0 1-.077-.137v-.596h-.161v.672a.276.276 0 0 0 .159.19.673.673 0 0 0 .162.017.493.493 0 0 0 .204-.035.277.277 0 0 0 .11-.09h.005v.09zm.785-.29a.327.327 0 0 1-.048.108c-.023.046-.102.087-.192.092a.267.267 0 0 1-.25-.13.4.4 0 0 1-.036-.226c.007-.086.034-.166.079-.209a.302.302 0 0 1 .336-.06c.067.026.09.07.107.157h.16c-.012-.099-.047-.19-.125-.233a.488.488 0 0 0-.285-.075.459.459 0 0 0-.303.113.456.456 0 0 0-.144.327.532.532 0 0 0 .069.285c.063.111.205.171.353.177.149.007.302-.046.381-.157a.334.334 0 0 0 .054-.169zm.475-.78h-.16v.228h-.141v.125h.14v.636c0 .032.036.11.147.117.064.007.108 0 .174-.008v-.119c-.09.013-.16.01-.16-.043v-.583h.16v-.125h-.16zm.249.067h.162v-.167h-.162zm0 1.004h.162v-.843h-.162zm.995-.416c0 .137-.077.317-.29.317-.21 0-.29-.18-.29-.317 0-.138.08-.316.29-.316.213 0 .29.178.29.316m.165 0c0-.376-.27-.45-.456-.45-.184 0-.455.074-.455.45 0 .375.271.451.455.451.185 0 .456-.076.456-.45m.105-.428v.843h.16v-.447c-.003-.227.143-.297.278-.297.11 0 .203.053.2.159v.585h.162v-.656c-.02-.123-.11-.166-.16-.19a.678.678 0 0 0-.163-.02.38.38 0 0 0-.201.038.302.302 0 0 0-.111.09h-.004v-.105zM8.004 2.42h.745V1.154h-.745zm-1.217 0h.74V1.154h-.74zm.74-1.723v.235H6.521a.216.216 0 0 0-.215.216v1.493h1.221v.279h.48v-.279h1.22V1.148a.214.214 0 0 0-.213-.216h-1.01V.697z" mask="url(#c)" transform="translate(4 15)"/></g><path d="M8.004 2.42h.745V1.154h-.745zm-1.217 0h.74V1.154h-.74zm.74-1.723v.235H6.521a.216.216 0 0 0-.215.216v1.493h1.221v.279h.48v-.279h1.22V1.148a.214.214 0 0 0-.213-.216h-1.01V.697z" mask="url(#c)" stroke="#231f20" stroke-width=".037" transform="translate(4 15)"/><path d="m11.804 1.88.124.222s.035.084.106.123c.061.034.156.027.156.027h.15v-.204l-.109-.002-.094-.165zm-1.19-.801v.218h.612v.282h-.578v.22h.578v.523h-.613v.216h1.736v-.216h-.63v-.523h.594v-.22h-.594v-.282h.628v-.218zm-.102 1.632h1.943V.89h-1.943zm-.27-2.033a.211.211 0 0 0-.214.213v2.026h2.903V.89a.211.211 0 0 0-.212-.213z" fill="#000" mask="url(#c)" transform="translate(4 15)"/><path d="m11.804 1.88.124.222s.035.084.106.123c.061.034.156.027.156.027h.15v-.204l-.109-.002-.094-.165zm-1.19-.801v.218h.612v.282h-.578v.22h.578v.523h-.613v.216h1.736v-.216h-.63v-.523h.594v-.22h-.594v-.282h.628v-.218zm-.102 1.632h1.943V.89h-1.943zm-.27-2.033a.211.211 0 0 0-.214.213v2.026h2.903V.89a.211.211 0 0 0-.212-.213z" mask="url(#c)" stroke="#231f20" stroke-width=".037" transform="translate(4 15)"/><g mask="url(#c)" transform="translate(4 15)"><path d="M16.729 1.169h-.175v-.168a.22.22 0 0 0-.221-.221h-.599V.651h-.449V.78h-.598v.226h.598v.163h-.673v.228h.673v.154h-.598v.226h.598v.163h-.648v.228h.648v.155h-.707v.231h.707v.16h-.465a.913.913 0 0 1-.491-.145.819.819 0 0 0 .145-.465l.003-.605-.279-.001c.24-.155.363-.433.363-.74 0-.004-.916-.001-.916-.001l-.003.229h.53a.626.626 0 0 1-.493.515v.222h.465v.33a.568.568 0 0 1-.071.272.912.912 0 0 1-.15-.353l-.249.003c.02.208.098.396.219.551a.567.567 0 0 1-.253.097v.307a.83.83 0 0 0 .504-.17c.173.116.381.185.605.185h1.946l.002-.232-.963.001v-.16h.821v-.231h-.821v-.155h.821V1.94h-.821v-.163h.829l-.001-.38h.167zm-.996.382h.35v-.154h-.35zm.001-.382h.35v-.163h-.35z" fill="#000"/><path d="M16.729 1.169h-.175v-.168a.22.22 0 0 0-.221-.221h-.599V.651h-.449V.78h-.598v.226h.598v.163h-.673v.228h.673v.154h-.598v.226h.598v.163h-.648v.228h.648v.155h-.707v.231h.707v.16h-.465a.913.913 0 0 1-.491-.145.819.819 0 0 0 .145-.465l.003-.605-.279-.001c.24-.155.363-.433.363-.74 0-.004-.916-.001-.916-.001l-.003.229h.53a.626.626 0 0 1-.493.515v.222h.465v.33a.568.568 0 0 1-.071.272.912.912 0 0 1-.15-.353l-.249.003c.02.208.098.396.219.551a.567.567 0 0 1-.253.097v.307a.83.83 0 0 0 .504-.17c.173.116.381.185.605.185h1.946l.002-.232-.963.001v-.16h.821v-.231h-.821v-.155h.821V1.94h-.821v-.163h.829l-.001-.38h.167zm-.996.382h.35v-.154h-.35zm.001-.382h.35v-.163h-.35z" stroke="#231f20" stroke-width=".037"/></g><path d="M25.966 1.429v.23h1.198v.927a.13.13 0 0 1-.131.13h-.531v.23h.754c.22 0 .397-.178.397-.4V1.66H28v-.231zm-.2-.467c-.183.365-.572.699-.981.895l.187.293c.09-.038.182-.084.266-.133v.929h.45l.002-1.276c.136-.136.255-.3.353-.468zm.313-.014h1.853v-.23h-1.853zm-.676-.395c-.185.348-.42.568-.713.765l.173.303a1.98 1.98 0 0 0 .8-.835z" fill="#000" mask="url(#c)" transform="translate(4 15)"/><path d="M25.966 1.429v.23h1.198v.927a.13.13 0 0 1-.131.13h-.531v.23h.754c.22 0 .397-.178.397-.4V1.66H28v-.231zm-.2-.467c-.183.365-.572.699-.981.895l.187.293c.09-.038.182-.084.266-.133v.929h.45l.002-1.276c.136-.136.255-.3.353-.468zm.313-.014h1.853v-.23h-1.853zm-.676-.395c-.185.348-.42.568-.713.765l.173.303a1.98 1.98 0 0 0 .8-.835z" mask="url(#c)" stroke="#231f20" stroke-width=".037" transform="translate(4 15)"/><g mask="url(#c)" transform="translate(4 15)"><path d="M18.406 2.088s-.189.183-.392.322l-.002-1.177-.823.004v.225h.364v1.16c-.128.039-.23.064-.23.064l.23.287s.228-.055.47-.18c.231-.118.383-.272.383-.272zm.682-.912V.9l.647-.003v.28c.003.104-.03.367.42.37h.281v-.214h-.074c-.179.011-.163-.065-.163-.118V.882a.213.213 0 0 0-.215-.21h-1.35l.001.542c0 .043.016.13-.163.117l-.079-.002v.216h.274c.466.025.416-.265.421-.369zm.78 1.28c.208-.146.397-.321.56-.52v-.287h-2.06v.258h1.54a2.324 2.324 0 0 1-.477.37 2.894 2.894 0 0 1-.464-.295h-.554c.175.188.375.354.595.493a2.345 2.345 0 0 1-.663.124v.336A2.67 2.67 0 0 0 19.44 2.7a2.97 2.97 0 0 0 1.11.23v-.342a3.098 3.098 0 0 1-.682-.131zM17.35.97h.915V.727h-.915z" fill="#000"/><path d="M18.406 2.088s-.189.183-.392.322l-.002-1.177-.823.004v.225h.364v1.16c-.128.039-.23.064-.23.064l.23.287s.228-.055.47-.18c.231-.118.383-.272.383-.272zm.682-.912V.9l.647-.003v.28c.003.104-.03.367.42.37h.281v-.214h-.074c-.179.011-.163-.065-.163-.118V.882a.213.213 0 0 0-.215-.21h-1.35l.001.542c0 .043.016.13-.163.117l-.079-.002v.216h.274c.466.025.416-.265.421-.369zm.78 1.28c.208-.146.397-.321.56-.52v-.287h-2.06v.258h1.54a2.324 2.324 0 0 1-.477.37 2.894 2.894 0 0 1-.464-.295h-.554c.175.188.375.354.595.493a2.345 2.345 0 0 1-.663.124v.336A2.67 2.67 0 0 0 19.44 2.7a2.97 2.97 0 0 0 1.11.23v-.342a3.098 3.098 0 0 1-.682-.131zM17.35.97h.915V.727h-.915z" stroke="#231f20" stroke-width=".037"/></g><g mask="url(#c)" transform="translate(4 15)"><path d="M23.33 2.487a.882.882 0 0 1-.365.124l.001-.817h1.181l.001-.911a.217.217 0 0 0-.217-.22h-1.39v1.972h-.09v.31h.222c.218 0 .455-.043.656-.12zm.535-.003c.162-.154.293-.341.382-.548l-.335-.003a1.27 1.27 0 0 1-.274.352.848.848 0 0 1-.189-.346h-.346c.037.116.107.284.163.377.245.396.616.623.995.63v-.318a.78.78 0 0 1-.396-.144zm-.902-.914h.751v-.226h-.75zm0-.453h.751v-.23h-.75z" fill="#000"/><path d="M23.33 2.487a.882.882 0 0 1-.365.124l.001-.817h1.181l.001-.911a.217.217 0 0 0-.217-.22h-1.39v1.972h-.09v.31h.222c.218 0 .455-.043.656-.12zm.535-.003c.162-.154.293-.341.382-.548l-.335-.003a1.27 1.27 0 0 1-.274.352.848.848 0 0 1-.189-.346h-.346c.037.116.107.284.163.377.245.396.616.623.995.63v-.318a.78.78 0 0 1-.396-.144zm-.902-.914h.751v-.226h-.75zm0-.453h.751v-.23h-.75z" stroke="#231f20" stroke-width=".037"/></g><path d="M21.872 2.563v-.53h.522v-.227h-.522V1.55h.48v-.227l-.876.001c.062-.065.121-.145.173-.219l.738-.003V.884h-.599c.037-.07.075-.142.105-.216L21.558.55a1.59 1.59 0 0 1-.64.8l.222.263c.033-.023.068-.04.1-.066h.25v.26h-.33v.226h.335v.635a1.91 1.91 0 0 1-.229.021l.222.278c.335-.032.643-.157.897-.349l.001-.37c-.15.133-.325.24-.514.316" fill="#000" mask="url(#c)" transform="translate(4 15)"/><path d="M21.872 2.563v-.53h.522v-.227h-.522V1.55h.48v-.227l-.876.001c.062-.065.121-.145.173-.219l.738-.003V.884h-.599c.037-.07.075-.142.105-.216L21.558.55a1.59 1.59 0 0 1-.64.8l.222.263c.033-.023.068-.04.1-.066h.25v.26h-.33v.226h.335v.635a1.91 1.91 0 0 1-.229.021l.222.278c.335-.032.643-.157.897-.349l.001-.37c-.15.133-.325.24-.514.316z" mask="url(#c)" stroke="#231f20" stroke-width=".037" transform="translate(4 15)"/></g></svg>