<svg height="36" viewBox="0 0 36 36" width="36" xmlns="http://www.w3.org/2000/svg"><mask id="a" fill="#fff"><path d="M0 0h3v1.894H0z" fill-rule="evenodd"/></mask><mask id="b" fill="#fff"><path d="M0 .043h1.202v.914H0z" fill-rule="evenodd"/></mask><mask id="c" fill="#fff"><path d="M0 .021h1.371V.98H0z" fill-rule="evenodd"/></mask><mask id="d" fill="#fff"><path d="M0 .092h1v.816H0z" fill-rule="evenodd"/></mask><mask id="e" fill="#fff"><path d="M0 .076h1.021v.848H0z" fill-rule="evenodd"/></mask><mask id="f" fill="#fff"><path d="M0 .132h1v.736H0z" fill-rule="evenodd"/></mask><mask id="g" fill="#fff"><path d="M0 .167h1v.666H0z" fill-rule="evenodd"/></mask><mask id="h" fill="#fff"><path d="M0 .194h1v.612H0z" fill-rule="evenodd"/></mask><g fill="none" fill-rule="evenodd"><path d="M18 0c2.837 0 5.52.656 7.907 1.825C31.884 4.753 36 10.895 36 18c0 9.942-8.058 18-18 18-9.94 0-18-8.057-18-18C0 8.06 8.06 0 18 0z" fill="#f2f4f7" fill-rule="nonzero"/><path d="M4.001 22.75v-.04c.04-.347.101-.69.155-1.035l.551-3.51c.192-1.227.386-2.452.577-3.678.02-.119.037-.239.058-.358.017-.099.026-.107.125-.108H7.98l.074.001c.052 0 .073.025.066.077-.013.087-.028.172-.04.258-.16.98-.31 1.96-.473 2.94a.088.088 0 0 1-.007.022c-.003.01-.005-.002-.002.006.003.005.003-.005.007-.006.104-.15.217-.297.327-.444.606-.813 1.207-1.63 1.814-2.442.084-.114.17-.226.251-.34a.156.156 0 0 1 .142-.07h1.183c1.733 0 3.466-.008 5.2.004a5.838 5.838 0 0 1 2.076.38c.484.187.92.45 1.281.828.351.368.581.803.715 1.29.008.027.014.053-.008.077-.09.03-.185.028-.277.038a34.29 34.29 0 0 0-2.294.328c-.103.018-.207.035-.309.057a.122.122 0 0 1-.073-.003.095.095 0 0 1-.042-.033c-.218-.265-.513-.398-.837-.476a2.653 2.653 0 0 0-.666-.075c-.226.005-.452.001-.678.001-.087 0-.092.004-.105.086l-.154.983c-.005.028-.006.058-.025.082-.045.038-.103.043-.156.057a34.343 34.343 0 0 0-2.606.816c-.038.014-.077.025-.086-.034.036-.26.08-.518.12-.777l.35-2.229c.038-.245.077-.489.115-.744l-.748.954c-.446.567-.89 1.135-1.336 1.701-.285.363-.568.728-.856 1.088-.036.046-.037.083-.01.134.11.213.215.427.321.642.015.03.041.058.014.093-.156.077-.318.144-.477.215-.202.091-.403.184-.603.277-.313.146-.62.302-.928.457-.123.063-.244.132-.369.192-.024.01-.047.028-.076.024-.023-.013-.033-.035-.042-.059-.166-.393-.328-.789-.492-1.182a.202.202 0 0 1-.009-.033c-.074.541-.148 1.08-.224 1.62-.005.032-.007.066-.026.095-.157.103-.324.19-.486.285a35.96 35.96 0 0 0-2.104 1.33c-.107.071-.213.146-.32.22-.027.017-.054.044-.09.018" fill="#2b449d"/><path d="M2.986 0c.012.026.024.053 0 .079-.055.003-.095.038-.139.064A36.363 36.363 0 0 0 .202 1.811c-.02.013-.042.063-.16.083-.035.001-.047-.009-.04-.041.032.006.054-.014.078-.031A35.668 35.668 0 0 1 2.932.026L2.986 0" fill="#f0f5f5" mask="url(#a)" transform="translate(4 20.898)"/><path d="m17.67 17.052-.04-.04c.152-.01.3-.049.449-.074a32.88 32.88 0 0 1 1.463-.222c.323-.04.647-.077.97-.116l.074-.005.12-.027c.257-.043.518-.052.778-.075.238-.02.477-.03.715-.049.096-.008.192-.012.287-.014.184-.004.366-.02.55-.019.118.001.236-.02.355-.005.043.014.088.007.133.01.058.006.068.024.048.084-.008.005-.016.004-.023-.003-.017-.026-.044-.027-.071-.023-.06.01-.121.007-.181.007-.334.002-.666.022-1 .038a32.928 32.928 0 0 0-1.731.133 33.963 33.963 0 0 0-2.796.4c-.033.006-.066.016-.1 0m-5.389 1.465c.017-.03-.016-.064.011-.094-.006.065.032.034.057.027.305-.104.608-.21.913-.311a31.317 31.317 0 0 1 1.855-.55c-.005.032.012.067-.013.095-.026-.027-.056-.02-.087-.011-.24.063-.479.134-.717.203a32.744 32.744 0 0 0-1.91.62c-.034.013-.069.036-.109.02" fill="#eff4f4"/><path d="M10.239 19.286c.012.015.034.018.04.038-.162.082-.331.147-.495.224-.226.106-.453.212-.681.314-.298.134-.587.286-.881.426a.54.54 0 0 0-.107.048l-.015.008a.19.19 0 0 0-.066.042c-.07.044-.148.073-.215.12-.02-.014-.011-.036-.014-.055a33.521 33.521 0 0 1 2.39-1.149c.014-.007.029-.011.044-.016" fill="#eef3f4"/><path d="m7.589 17.32.014.028c-.002.01-.013.026-.018.02-.016-.015-.006-.032.004-.048" fill="#cdd3e8"/><path d="M23.397 16.423c-.41.006-.822.024-1.233.047-.339.018-.678.042-1.017.071l-.387.035c-.018.001-.039.014-.055-.008.034-.095.04-.196.055-.294.1-.62.196-1.242.293-1.863l.048-.318c.005-.043.021-.059.067-.059 1.067.002 2.133 0 3.2.002a7.143 7.143 0 0 1 1.885.234c.547.151 1.056.38 1.495.746.512.428.831.974.984 1.622l.016.065c-.02.04-.057.02-.083.017-.12-.013-.239-.029-.358-.044-.144-.018-.288-.03-.432-.049-.212-.024-.426-.042-.638-.062-.12-.012-.24-.02-.36-.03-.255-.02-.512-.033-.767-.052-.095-.008-.192-.01-.287-.012-.145-.004-.29-.022-.435-.018h-.125c-.116-.014-.232-.012-.349-.013h-.242c-.168.003-.335-.017-.503-.016-.163.002-.326.011-.489.017-.095-.003-.188-.018-.283-.018m5.873-2.422 2.66.001c.029 0 .072-.017.07.041l-.182 1.157-.291 1.846c-.007.047-.018.092-.027.138-.037.02-.074.004-.111-.004a35.437 35.437 0 0 0-2.48-.428c-.024-.004-.05-.003-.07-.022-.004-.075.019-.146.03-.217.113-.724.229-1.447.343-2.169.018-.114.038-.229.058-.343" fill="#2b449d"/><path d="M31.489 17.28c-.004.024.007.05-.014.069a.232.232 0 0 0-.1-.036 31.106 31.106 0 0 0-1.596-.294 35.413 35.413 0 0 0-3-.346 17.56 17.56 0 0 0-.795-.045c-.202-.008-.402-.023-.603-.026-.022 0-.045-.002-.067.003-.085-.008-.16-.047-.241-.07-.013-.003-.03-.012-.022-.033.03-.028.067-.022.102-.018.194.019.389.012.584.024.23.013.464.023.696.037a30.104 30.104 0 0 1 1.49.126c.263.029.525.057.787.092a.152.152 0 0 1 .063.02h.04c.03-.02.064-.02.097-.014a35.4 35.4 0 0 1 2.508.43c.042.01.097.012.07.082" fill="#c6e2e4"/><path d="M28.773 16.784c-.145-.002-.287-.031-.431-.044s-.287-.034-.43-.05a47.65 47.65 0 0 0-.65-.065c-.13-.012-.258-.02-.386-.03-.245-.017-.49-.036-.733-.051a5.778 5.778 0 0 0-.294-.012c-.201-.005-.402-.025-.603-.018-.044.002-.088-.01-.133-.011-.021-.001-.045-.008-.063.01-.014.016-.031.015-.05.012a3.64 3.64 0 0 1-.226-.045c-.014-.004-.03-.008-.036-.025.028-.035.067-.021.1-.02.2.01.402.01.603.019l.81.039c.356.019.713.048 1.068.077.205.018.41.038.614.062.206.022.412.044.618.073.07.01.144 0 .208.039l.014.04" fill="#ddeaeb"/><path d="m28.76 16.744-.497-.06a20.18 20.18 0 0 0-.43-.047 27.77 27.77 0 0 0-.868-.081c-.253-.018-.506-.037-.759-.053a5.35 5.35 0 0 0-.253-.011c-.143-.003-.285-.013-.428-.02-.207-.007-.415-.01-.622-.011-.054 0-.108-.031-.162 0-.018.018-.04.018-.063.015-.297-.037-.597-.012-.895-.021-.036-.001-.083.018-.104-.033.331-.015.663-.012.995 0 .08.01.16.008.24.002a3.43 3.43 0 0 1 .351.01.27.27 0 0 0 .12.003c.386.009.772.032 1.158.057.341.023.681.052 1.021.084.383.037.764.083 1.146.128.012.002.026.01.038-.002.014.01.011.025.011.04m2.73.536c.002-.032-.007-.047-.046-.055-.447-.09-.893-.181-1.344-.254-.331-.053-.662-.108-.994-.157-.096-.014-.193-.033-.291-.03a.544.544 0 0 1 .027-.054c.185.01.367.045.55.072.604.09 1.204.196 1.802.318.103.02.205.043.308.064-.004.033.013.068-.012.097" fill="#edf3f3"/><path d="m11.565 21.931.135.266.072-.427c.047-.047.107-.073.162-.106.49-.288.987-.561 1.49-.823.388-.202.783-.386 1.177-.572.07-.033.09-.023.088.04-.005.105-.005.106.105.105.31-.004.623.014.933-.016.573-.055 1.097-.23 1.524-.634.186-.176.328-.384.435-.616.008-.018.018-.035.027-.053.015-.03.045-.034.072-.043.284-.091.57-.172.857-.254a27.01 27.01 0 0 1 3.297-.707c.394-.057.788-.11 1.184-.152.046-.005.093-.007.14-.014.026-.004.054-.006.074.019.015.027.008.056.004.085-.117.745-.231 1.49-.351 2.235-.02.129-.02.129.11.129.229 0 .457.005.686-.001.465-.011.91-.108 1.319-.34.436-.247.736-.612.906-1.084.119-.332.172-.675.163-1.028-.001-.043-.011-.09.018-.13.037-.029.08-.025.123-.025.34-.002.679.013 1.019.027a26.288 26.288 0 0 1 1.524.109c.253.027.506.054.758.088a31.487 31.487 0 0 1 1.646.26c.025.005.047.013.063.033-.022.146-.042.29-.065.436l-.29 1.835c-.088.551-.175 1.104-.261 1.656-.024.15-.048.3-.07.45-.006.039-.021.052-.061.052h-2.634c-.042 0-.056-.006-.048-.056.1-.62.197-1.241.294-1.861.039-.245.077-.49.114-.737.003-.011.019-.031-.013-.027a4.766 4.766 0 0 1-1.417 1.72 5.023 5.023 0 0 1-2.17.927 6.06 6.06 0 0 1-1.041.082 988.168 988.168 0 0 0-3.85 0c-.056 0-.075-.003-.064-.071.116-.726.229-1.453.343-2.18l.068-.438c.003-.007.006-.015-.001-.019-.004-.004-.01.004-.013.006-.607 1.195-1.551 2-2.816 2.429a5.217 5.217 0 0 1-1.682.272h-3.151l-.08.002-.523-.002-1.628-.003c-.005-.037.027-.049.049-.065.14-.099.284-.193.427-.289.234-.156.469-.31.709-.457.034-.021.066-.059.114-.033" fill="#2b449d"/><path d="m31.462 17.43-.001.012c-.032.024-.066.009-.097.002a34.837 34.837 0 0 0-1.498-.272 31.566 31.566 0 0 0-1.811-.235 36.505 36.505 0 0 0-2.033-.15c-.123-.004-.246-.01-.37-.009-.06-.018-.122-.032-.143-.104.038-.027.082-.019.123-.014.054.009.107.008.16.01.246.008.49.022.736.037.15.01.303.019.454.031.2.014.4.03.6.049l.567.057a35.007 35.007 0 0 1 2.193.311c.35.063.703.126 1.052.203.036.008.088.008.068.072" fill="#a5dee4"/><path d="M25.306 16.594c.1-.024.203-.013.305-.006.024.002.048.008.072.007.235-.004.468.022.702.03.193.005.386.023.579.038.257.021.514.041.77.068.296.031.59.073.886.104.28.03.56.072.838.112.286.041.57.091.854.142.319.057.638.118.956.18.057.01.113.026.169.036.028.005.04.017.038.044l-.001.013c-.024.012-.048.003-.072-.002-.303-.064-.608-.12-.912-.176-.266-.049-.533-.09-.8-.134a34.657 34.657 0 0 0-3.288-.352c-.22-.012-.437-.028-.656-.029-.098 0-.196-.014-.294-.01a.178.178 0 0 1-.146-.065" fill="#b8e1e3"/><path d="M31.395 17.849c.002.004.001.007 0 .01-.046.034-.094.01-.137 0a28.62 28.62 0 0 0-1.487-.246 28.978 28.978 0 0 0-1.41-.167 37.448 37.448 0 0 0-.882-.075 36.235 36.235 0 0 0-.575-.032c-.266-.011-.53-.027-.798-.026a.096.096 0 0 1-.033-.006c-.034-.02-.047-.047-.029-.084.092-.032.187-.02.28-.012.155.014.312.01.468.02.277.018.554.033.831.053.325.023.65.052.975.086.31.033.616.073.924.113.401.052.8.119 1.198.184.211.036.422.074.632.119.037.007.058.022.043.063" fill="#4c9bd1"/><path d="M25.642 16.769c.105-.023.212-.014.318-.006.024.002.049.008.073.007.22-.005.442.02.662.029.238.009.475.029.712.054.294.03.589.055.882.089.27.032.543.062.814.098.396.053.79.116 1.185.183.393.067.783.145 1.173.219-.002.023.007.048-.012.068l-.012-.003c-.174-.051-.354-.075-.531-.11a31.951 31.951 0 0 0-3.236-.448 35.872 35.872 0 0 0-.984-.075c-.221-.013-.441-.03-.663-.032-.101-.001-.201-.013-.302-.013-.037-.005-.07-.02-.08-.06" fill="#9edae7"/><path d="M31.366 18.047a.091.091 0 0 0-.011.054c-.031.023-.066.008-.097.003a25.3 25.3 0 0 0-.778-.138c-.255-.042-.511-.079-.767-.116-.234-.033-.47-.058-.703-.088-.153-.02-.307-.029-.46-.046-.188-.02-.377-.034-.566-.05-.15-.012-.298-.02-.447-.029-.256-.017-.513-.02-.77-.039-.08-.006-.16 0-.241-.002-.082 0-.165.005-.247-.01-.032-.007-.067-.013-.098.01a.042.042 0 0 1-.021.011c-.034-.027-.035-.06-.018-.096.02-.02.049-.02.076-.02.303.002.607.017.91.03.215.007.428.021.642.04.24.018.48.037.72.06a27.927 27.927 0 0 1 1.448.173c.323.045.644.1.965.153.134.024.267.052.4.076.023.003.046.005.063.024" fill="#2f6fb9"/><path d="M31.449 17.51c-.003.026.006.056-.012.081l-.011-.005c-.061-.037-.132-.042-.2-.054-.241-.04-.482-.09-.724-.129-.354-.059-.71-.119-1.065-.167-.287-.039-.575-.079-.863-.108-.247-.025-.493-.05-.74-.072-.331-.029-.663-.059-.995-.079-.214-.013-.428-.028-.642-.03-.081-.003-.162-.003-.242-.017-.041-.007-.08.006-.12.01-.04-.008-.07-.026-.061-.074.02-.023.048-.02.074-.022.19-.003.38.015.57.022.185.007.37.02.555.033.212.013.424.03.636.048.209.017.418.04.627.06.208.021.416.044.624.071a32.178 32.178 0 0 1 2.498.406c.03.005.062.006.089.025z" fill="#8ed3e8"/><path d="M31.34 18.208c0 .023.001.048-.012.07-.289-.049-.575-.107-.864-.15a28.23 28.23 0 0 0-1.552-.204c-.218-.025-.436-.042-.655-.06-.236-.019-.473-.03-.709-.049a5.55 5.55 0 0 0-.288-.014c-.215-.004-.429-.027-.644-.016-.106.004-.21-.015-.315-.014a.208.208 0 0 0-.11.023c-.045-.026-.033-.063-.017-.099.043-.028.092-.02.137-.014.168.02.336.001.503.012.147.012.295.004.442.02.103.01.206.01.308.015a27.045 27.045 0 0 1 2.87.308c.271.044.541.092.811.142.032.006.067.006.094.03" fill="#2953a7"/><path d="M31.38 17.953c0 .023.003.048-.011.068l-.011-.004c-.067-.034-.143-.03-.214-.044-.286-.058-.575-.1-.862-.153a2.513 2.513 0 0 0-.28-.044 2.657 2.657 0 0 0-.268-.037l-.022-.005c-.25-.036-.5-.067-.75-.095-.197-.022-.395-.04-.592-.06-.242-.022-.485-.04-.726-.061a3.03 3.03 0 0 0-.234-.01.118.118 0 0 1-.046.002.773.773 0 0 0-.198-.01c-.206-.015-.412-.018-.618-.03-.142-.007-.285.007-.426-.022-.03-.016-.026-.04-.01-.062.11-.03.222-.015.333-.01.026.002.053.008.08.007.172-.007.344.008.515.017.292.017.583.034.874.06.184.016.369.032.553.046.178.014.355.038.532.057.206.025.412.048.617.078.164.022.327.046.49.07.347.05.69.116 1.037.174.06.014.12.026.182.037.023.004.044.008.055.03" fill="#3981c3"/><path d="M31.395 17.849c0-.023-.005-.04-.037-.045-.37-.065-.742-.137-1.115-.198a27.077 27.077 0 0 0-.943-.135c-.209-.028-.419-.047-.629-.07a39.958 39.958 0 0 0-.776-.078c-.146-.014-.293-.018-.439-.03-.24-.017-.48-.031-.72-.041-.232-.01-.464-.028-.696-.024-.032-.007-.038-.026-.025-.054.051-.036.11-.02.162-.014.04.003.08.007.12.007.251-.002.5.02.75.032.187.007.374.02.56.038.276.025.551.048.827.075.328.033.656.072.983.114.303.039.605.084.907.134.343.057.687.114 1.028.185.02.003.04.005.055.02.001.028.005.058-.012.084" fill="#54a5d5"/><path d="M26.07 17.294c.238-.01.475.008.71.016.236.008.472.026.708.04.223.011.447.031.67.052.239.024.477.052.715.08.2.021.402.041.602.068a49.922 49.922 0 0 1 1.453.228c.134.023.267.05.4.074.022.004.044.004.066.006 0 .03.003.057-.012.082-.006-.003-.012-.009-.018-.014-.202-.05-.407-.079-.612-.115-.23-.04-.461-.08-.693-.116-.25-.035-.5-.07-.75-.102a31.716 31.716 0 0 0-1.258-.133c-.208-.019-.417-.029-.625-.052-.064-.007-.13-.006-.194-.008-.134-.004-.266-.034-.401-.014a.103.103 0 0 1-.035 0 .813.813 0 0 0-.303-.013.114.114 0 0 1-.045 0 1.003 1.003 0 0 0-.35-.008c-.035-.013-.041-.038-.027-.07" fill="#4592cd"/><path d="M31.34 18.208c-.124-.006-.24-.04-.362-.06l-.788-.128a18.431 18.431 0 0 0-.612-.09c-.176-.025-.354-.039-.53-.058-.15-.017-.3-.036-.45-.05a8.351 8.351 0 0 0-.352-.03c-.255-.019-.51-.039-.765-.053a11.91 11.91 0 0 0-.327-.013c-.256-.006-.512-.02-.768-.018-.068 0-.137-.01-.206-.01a.031.031 0 0 1-.009-.023c.01-.039.042-.038.07-.037.192.005.385-.015.577.011.033.004.066 0 .1.001.253.006.504.023.756.037l.468.032c.18.013.36.031.54.05a25.797 25.797 0 0 1 1.21.141 31.015 31.015 0 0 1 1.386.231c.027.005.074.001.062.055a.01.01 0 0 1 0 .012" fill="#295bac"/><path d="M26.19 17.794c0-.048.034-.043.065-.043.175 0 .349.015.523.016.254.001.508.013.763.025.204.01.409.021.612.041.224.023.448.04.67.063.224.022.448.044.67.073.24.03.48.064.719.1.312.046.623.103.934.156.06.01.13.006.182.052l-.003.025c-.197-.036-.393-.073-.59-.107a22.304 22.304 0 0 0-.638-.103c-.184-.027-.37-.049-.554-.072a33.159 33.159 0 0 0-.53-.065c-.156-.016-.314-.029-.471-.043-.204-.017-.407-.036-.611-.052-.084-.006-.17-.009-.254-.012-.15-.005-.3-.013-.448-.019-.31-.013-.62-.025-.93-.024a.38.38 0 0 0-.106.013c-.007-.007-.008-.015-.002-.024" fill="#2a4ca2"/><path d="M31.34 18.197c-.005-.042-.045-.035-.068-.04-.386-.065-.77-.136-1.157-.192a48.44 48.44 0 0 0-.852-.117c-.185-.025-.371-.038-.557-.056-.232-.023-.464-.046-.697-.066a13.76 13.76 0 0 0-.453-.028l-.736-.031c-.197-.01-.393-.002-.59-.01-.021 0-.047-.004-.051.028-.043-.02-.033-.05-.014-.081l.003-.002c.028-.024.064-.021.096-.014a.839.839 0 0 0 .194.008c.213-.007.425.008.637.018a31.974 31.974 0 0 1 1.903.147c.299.033.598.072.897.115.43.06.862.132 1.289.214.057.01.123 0 .168.05 0 .02 0 .039-.011.057" fill="#2a61b0"/><path d="M25.44 16.65c.016-.021.04-.015.061-.014.203.019.406.015.608.029.246.016.493.026.738.048.14.012.28.02.42.032.174.012.35.033.524.05l.43.042c.168.019.336.038.503.059.15.019.3.04.448.063.163.023.326.045.488.07a44.48 44.48 0 0 1 1.161.199c.21.04.42.082.628.123.01.002.016.007.025.01-.002.023.007.049-.013.069.005-.038-.023-.046-.049-.051-.286-.055-.572-.112-.858-.165-.245-.044-.49-.087-.736-.127-.194-.033-.39-.06-.586-.088a38.785 38.785 0 0 0-.673-.091c-.135-.017-.27-.03-.405-.043l-.47-.052-.326-.03c-.226-.017-.452-.038-.678-.05-.092-.005-.183-.016-.274-.016-.13 0-.259-.008-.388-.018-.149-.012-.299.002-.447-.022-.02-.004-.045-.007-.064.01-.035.01-.059 0-.068-.037" fill="#ade0e3"/><path d="M31.352 18.14c-.137-.026-.274-.055-.412-.08a37.12 37.12 0 0 0-.597-.101 56.617 56.617 0 0 0-1.193-.165c-.143-.016-.287-.03-.431-.043-.177-.017-.353-.036-.53-.051-.129-.012-.257-.024-.386-.03-.318-.011-.636-.036-.954-.044-.127-.003-.254-.008-.381-.007-.101 0-.2-.017-.301-.017-.005-.036.018-.043.045-.038.202.029.407-.005.608.024.022.004.045.002.068.002.232-.005.463.023.695.029.186.005.373.022.559.039.208.019.415.047.623.063.177.014.354.037.53.058.157.019.313.042.469.06.152.017.303.046.456.063.189.02.376.063.565.096l.57.103-.003.04" fill="#2b67b4"/><path d="m31.422 17.684-.003.027c-.067.03-.132-.003-.195-.015a37.48 37.48 0 0 0-1.406-.237 30.404 30.404 0 0 0-1.713-.203c-.214-.016-.427-.038-.641-.052-.21-.015-.422-.031-.633-.041-.201-.01-.401-.022-.602-.027-.082-.002-.165-.014-.247-.01-.031-.005-.041-.025-.036-.054.025-.034.06-.028.093-.022.049.01.097.008.147.01.263.007.526.02.789.037l.487.03c.19.013.382.032.573.05l.447.043c.212.023.425.045.638.072.252.033.505.065.756.104.417.065.833.13 1.247.21l.237.046c.02.004.04.008.055.022l.007.01" fill="#66badf"/><path d="M31.408 17.765c-.145-.009-.284-.051-.426-.073-.252-.041-.503-.088-.755-.128a35.591 35.591 0 0 0-.797-.119c-.2-.028-.401-.047-.602-.07-.19-.022-.38-.045-.568-.065-.111-.012-.222-.02-.332-.029-.224-.018-.448-.037-.672-.053-.071-.005-.142-.01-.213-.011-.134-.002-.267-.016-.401-.018-.185-.002-.37-.017-.554-.025-.023-.001-.05-.009-.07.012-.04-.009-.045-.029-.022-.061.077-.016.15.011.227.007.168-.007.335.011.502.018.22.008.44.022.66.039.219.015.439.033.658.054.22.02.442.04.662.067.27.033.542.065.812.103.35.048.699.103 1.047.161.256.042.51.092.767.137a.188.188 0 0 1 .075.027c0 .008 0 .018.002.027" fill="#5caeda"/><path d="M31.433 17.617c0 .023.005.048-.011.067h-.003c-.025-.037-.068-.031-.103-.038a33.62 33.62 0 0 0-1.48-.254 33.472 33.472 0 0 0-2.551-.276c-.183-.014-.366-.022-.548-.033-.257-.015-.514-.016-.77-.034-.01 0-.018.003-.026.006-.04-.005-.06-.023-.038-.064.1-.022.2-.01.301-.005.013 0 .025.006.039.006.284 0 .567.025.85.042.223.013.445.03.668.05.166.015.333.028.5.046.181.018.363.037.545.059.188.024.377.047.564.072a27.329 27.329 0 0 1 1.628.257c.121.023.242.044.362.069.026.006.052.01.073.03" fill="#75c8e5"/><path d="M31.433 17.617c-.155-.028-.31-.06-.465-.085-.254-.044-.508-.09-.762-.13a40.32 40.32 0 0 0-.776-.118c-.196-.027-.393-.047-.589-.07-.18-.022-.361-.045-.542-.065-.115-.012-.23-.018-.345-.03-.191-.016-.381-.036-.571-.05-.078-.006-.156-.013-.234-.014-.2-.006-.4-.025-.6-.032-.219-.008-.436-.027-.655-.023-.026-.004-.035-.017-.024-.042.046-.032.099-.022.149-.016.158.018.317.01.476.023l.628.038.435.03c.171.012.342.028.513.047l.439.046c.206.02.411.047.617.073.212.026.424.057.636.087a34.862 34.862 0 0 1 1.577.27c.032.007.067.009.093.035h.003l-.003.026" fill="#7dcce8"/><path d="M31.366 18.047c-.145-.013-.284-.05-.427-.074-.262-.043-.524-.092-.788-.128-.24-.033-.48-.072-.72-.105-.17-.022-.343-.038-.515-.056a35.53 35.53 0 0 0-.47-.052c-.124-.012-.248-.02-.372-.028l-.692-.053a3.765 3.765 0 0 0-.26-.01c-.15-.005-.298-.024-.448-.018-.152.006-.303-.023-.455-.014-.026.002-.054-.003-.078.014-.02-.02-.034-.039-.006-.064.106.004.214.001.32.005.15.006.3.011.449.018.136.005.272.012.408.021.147.01.294.015.44.025.155.012.308.027.463.036.246.024.493.046.739.074a31 31 0 0 1 1.387.19c.32.053.642.114.963.166.022.004.045.008.062.025l.003.002z" fill="#3276bd"/><path d="m31.405 17.738-.604-.11a29.416 29.416 0 0 0-1.428-.224c-.2-.026-.402-.046-.602-.07-.19-.021-.38-.045-.57-.065-.128-.012-.257-.018-.386-.028l-.625-.053a4.325 4.325 0 0 0-.226-.011c-.125-.003-.25-.016-.375-.018-.2-.003-.4-.016-.6-.025-.01 0-.018-.003-.012-.015.06-.025.124-.015.184-.01.04.006.08.01.12.01.236.01.472.014.708.029l.58.04c.251.019.503.04.755.068.296.03.591.072.886.104.276.029.55.07.825.11.274.04.547.093.82.14l.564.102a.215.215 0 0 0-.014.026" fill="#5fb3dc"/><path d="m31.378 17.926.003.015c.001.005.001.008-.002.011-.074-.025-.155-.019-.227-.053l.006-.008c.078-.019.15.007.22.035" fill="#3f89c8"/><path d="M28.29 20.05c.006-.01.01-.022.018-.04a.063.063 0 0 1-.004.067c-.004-.008-.01-.017-.013-.027" fill="#bcc4e0"/><path d="M20.145 20.078c.002-.013.014-.032.018-.03.016.013.007.029-.004.043l-.014-.013" fill="#8e9bcb"/><path d="M4.446 22.777h-.23c-.004-.036.024-.05.047-.066a34.882 34.882 0 0 1 2.633-1.661c.016-.01.03-.02.048-.024.025-.005.043 0 .028.032a.662.662 0 0 1-.026.188c-.025-.031-.05-.018-.077-.001a38.387 38.387 0 0 0-2.22 1.403c-.066.045-.127.1-.203.129" fill="#c6e2e4"/><path d="M11.15 21.098c.01.033.044.056.043.094-.053.058-.127.083-.192.12-.538.304-1.07.621-1.59.956-.202.131-.402.267-.604.399-.023.015-.043.042-.077.032l-.053-.122c.008-.026.032-.037.052-.049a29.487 29.487 0 0 1 1.972-1.21c.125-.071.248-.142.376-.207.022-.012.045-.033.074-.013" fill="#3378be"/><path d="M10.44 19.66c.012.03.041.056.042.094-.098.064-.209.1-.313.152-.134.066-.272.127-.406.19a36.732 36.732 0 0 0-1.623.837c-.038.022-.073.055-.122.045a.171.171 0 0 1-.039-.093c-.014-.053.034-.058.061-.073.094-.052.19-.102.284-.152.333-.175.664-.354 1.004-.516.343-.164.684-.334 1.034-.484.024-.011.052-.035.077 0" fill="#a5dee4"/><path d="M10.91 20.614c.024.028.037.062.05.095-.01.019-.028.027-.046.036-.418.21-.83.434-1.236.666-.37.21-.735.428-1.096.654-.03.019-.058.04-.091.056a.28.28 0 0 1-.04-.096c-.022-.046.013-.065.043-.084a33.716 33.716 0 0 1 1.78-1.02c.19-.1.38-.202.574-.294.02-.01.039-.024.063-.013" fill="#4b9ad1"/><path d="M10.305 19.378c.014.03.036.06.04.093-.135.074-.28.127-.42.192-.28.131-.561.26-.837.397-.23.115-.46.232-.691.344-.152.074-.297.158-.445.236-.021.01-.04.033-.067.014a.153.153 0 0 1-.04-.093c-.005-.034.022-.042.042-.053.068-.039.137-.075.207-.11.329-.166.657-.335.989-.495.37-.178.743-.352 1.12-.514.033-.013.065-.036.102-.01" fill="#c6e2e4"/><path d="m10.653 20.09.04.081c-.012.034-.045.042-.073.055a21.36 21.36 0 0 0-.611.294c-.424.211-.842.435-1.26.663-.156.086-.31.177-.466.264-.02.011-.037.026-.061.027a.3.3 0 0 1-.042-.105c-.005-.034.025-.047.046-.058l.392-.217c.157-.09.322-.163.475-.26.046-.029.099-.042.145-.069.183-.105.373-.196.558-.293.182-.096.377-.164.556-.267.069-.04.147-.063.217-.103.025-.015.054-.023.084-.012" fill="#75c8e4"/><path d="M10.79 20.371c.02.024.035.05.038.081-.011.032-.041.04-.067.053a33.671 33.671 0 0 0-2.303 1.256c-.031.018-.057.055-.102.035a.295.295 0 0 1-.04-.095c-.003-.033.028-.036.047-.048.395-.238.8-.459 1.205-.678.305-.165.613-.326.926-.474.077-.037.15-.08.228-.114.022-.01.042-.028.069-.016" fill="#5caeda"/><path d="M5.144 22.777h-.242c-.003-.03.022-.037.04-.05a35.93 35.93 0 0 1 1.53-1.001c.124-.076.248-.152.373-.225.051-.03.061-.023.06.028a.305.305 0 0 1-.015.12c-.274.173-.552.339-.823.518-.273.178-.546.357-.815.544-.034.023-.069.047-.108.066" fill="#a5dee3"/><path d="M8.018 20.978c.419-.221.835-.447 1.258-.66.379-.192.765-.367 1.149-.55a.113.113 0 0 1 .057-.015l.037.069a.121.121 0 0 1-.072.065c-.198.079-.381.189-.578.266-.057.02-.104.06-.159.086-.238.109-.467.234-.703.347-.131.063-.256.138-.385.205-.188.095-.366.21-.562.293a.287.287 0 0 1-.042-.106" fill="#9edae7"/><path d="M8.73 22.699c.573-.39 1.16-.762 1.757-1.112.232-.137.464-.275.705-.395.02.024.037.049.044.079-.09.068-.193.112-.289.168-.33.196-.662.39-.989.594-.319.198-.634.402-.947.609-.063.042-.116.098-.184.133l-.067.002-.03-.078" fill="#2f71b9"/><path d="M4.446 22.777c.045-.05.105-.081.16-.118a31.679 31.679 0 0 1 1.939-1.24l.344-.206c.042-.025.062-.02.057.033-.005.03.01.065-.014.094l-.018-.003c-.106.027-.192.094-.282.149-.201.12-.4.247-.6.369-.277.17-.55.35-.822.528-.195.128-.39.254-.577.394z" fill="#bae1e2"/><path d="M11.082 20.963c.005.031.042.047.042.081-.104.075-.22.128-.332.19a31.547 31.547 0 0 0-2.074 1.254c-.02.013-.039.033-.067.021a.124.124 0 0 1-.027-.066c-.017-.046.023-.058.048-.075a30.562 30.562 0 0 1 1.972-1.188c.126-.069.251-.139.377-.205.02-.01.037-.03.061-.012" fill="#3880c3"/><path d="m10.586 19.955.04.081c-.013.033-.045.042-.073.055a22.9 22.9 0 0 0-.987.474c-.436.224-.87.451-1.296.694-.037.02-.073.045-.116.053a.135.135 0 0 1-.026-.067c-.02-.04.01-.056.036-.072.09-.054.183-.104.275-.155a33.324 33.324 0 0 1 2.084-1.049c.02-.01.04-.023.063-.014" fill="#85cfe8"/><path d="M10.99 20.775a.245.245 0 0 1 .04.08c-.099.075-.215.119-.323.178-.324.177-.648.354-.966.542-.369.218-.735.437-1.094.67-.027.017-.052.045-.09.036a.275.275 0 0 1-.04-.095c.096-.086.211-.14.318-.21.213-.136.432-.262.648-.39.167-.1.336-.196.505-.29l.461-.257c.166-.092.337-.175.504-.265.012-.007.025-.01.037 0" fill="#428eca"/><path d="M10.99 20.775c-.128.067-.255.136-.383.202-.089.047-.18.088-.266.139-.09.055-.187.1-.279.153-.087.05-.17.102-.257.152-.174.102-.349.202-.523.305-.188.11-.374.225-.56.338-.067.042-.129.093-.205.122a.13.13 0 0 1-.027-.065c.021-.05.073-.065.112-.09a30.283 30.283 0 0 1 2.023-1.154c.111-.058.22-.12.335-.168.013.02.027.04.03.066" fill="#4693ce"/><path d="M10.79 20.371c-.195.092-.386.193-.582.286-.186.09-.364.197-.548.291-.301.154-.594.322-.89.486-.152.086-.302.178-.454.267a.13.13 0 0 1-.027-.066c-.014-.047.027-.056.053-.07a35.381 35.381 0 0 1 2.137-1.15c.072-.036.147-.066.219-.104.018-.009.039-.024.062-.006l.03.066" fill="#62b6dd"/><path d="M8.222 21.474c.053-.057.125-.084.19-.12.306-.174.612-.344.924-.505.256-.131.51-.266.766-.396.195-.097.394-.188.591-.282l.04.08c-.047.04-.108.053-.162.08-.46.23-.923.456-1.376.703-.289.157-.577.316-.862.482-.024.015-.047.045-.084.025-.012-.021-.025-.042-.027-.067" fill="#6dc1e2"/><path d="M6.972 21.058c-.007-.038-.023-.02-.04-.01-.109.064-.22.122-.327.187-.337.204-.675.406-1.009.616-.359.224-.715.454-1.062.696-.089.063-.182.12-.27.182-.02.013-.032.032-.047.048h-.114c.022-.044.061-.061.094-.083.376-.26.756-.515 1.141-.762.451-.288.91-.564 1.373-.832.075-.044.15-.09.226-.131.015-.01.04-.037.05.008-.006.026.008.057-.015.08" fill="#deeaec"/><path d="M6.905 21.529c0-.06-.033-.025-.05-.016l-.287.17c-.486.3-.963.614-1.436.933-.078.053-.153.107-.229.16a6.168 6.168 0 0 0-.148 0c.001-.055.051-.068.085-.092.235-.163.472-.324.712-.48.414-.27.831-.53 1.253-.782.02-.012.038-.024.06-.033.055-.024.061-.018.053.045-.003.033.01.066-.013.095" fill="#ace0e4"/><path d="M5.144 22.777c.061-.066.14-.11.213-.16.481-.325.97-.642 1.465-.945.021-.013.042-.025.068-.023-.004.059-.006.118-.026.176-.023-.021-.04-.002-.059.009-.244.158-.494.306-.737.466-.21.14-.422.279-.63.422a.771.771 0 0 1-.092.055z" fill="#9edae7"/><path d="M8.557 22.28a35.825 35.825 0 0 1 1.793-1.072c.214-.12.432-.232.648-.347.01-.005.021-.004.032-.005a.234.234 0 0 1 .041.08c-.127.025-.226.106-.336.164-.288.154-.572.316-.855.479-.28.16-.555.334-.83.505-.134.082-.263.172-.399.25-.02.01-.039.033-.067.013a.121.121 0 0 1-.027-.066" fill="#3f89c7"/><path d="M10.44 19.66c-.052-.015-.09.022-.13.04-.19.084-.379.17-.566.262-.257.123-.513.245-.765.376-.294.152-.59.3-.878.464-.043.024-.098.03-.122.083-.025-.028-.03-.062-.04-.096.093-.078.208-.122.312-.181.232-.13.472-.248.71-.366.354-.176.71-.353 1.071-.514.102-.045.203-.093.305-.138.02-.01.038-.03.062-.01.016.025.037.048.04.08" fill="#ade0e3"/><path d="m8.25 21.541.49-.273c.148-.083.295-.168.444-.248.453-.245.914-.472 1.375-.7.056-.028.11-.059.173-.069l.027.054c-.09.041-.184.08-.274.125-.348.176-.698.352-1.044.536-.372.198-.74.405-1.104.62-.019.01-.046.018-.048.05a.26.26 0 0 1-.04-.095" fill="#68bce0"/><path d="M7.885 20.655c.147-.078.293-.158.442-.233.317-.162.632-.324.953-.476.275-.132.55-.267.834-.381.077-.031.146-.084.232-.094.008.019.028.032.026.055-.06.06-.141.077-.214.109-.204.092-.406.187-.61.282-.301.142-.601.288-.897.44-.22.116-.442.229-.66.349-.023.013-.047.036-.08.016a.086.086 0 0 1-.026-.067" fill="#bce1e2"/><path d="M10.91 20.614a29.823 29.823 0 0 0-2.403 1.338c-.027.016-.064.029-.056.073l-.04-.081c.005-.037.03-.058.06-.076a31.208 31.208 0 0 1 1.882-1.061c.149-.078.296-.158.45-.224.026-.012.049-.034.08-.023a.093.093 0 0 1 .028.054" fill="#4f9fd2"/><path d="M8.584 22.347c.04-.02.082-.035.118-.061.223-.154.461-.284.687-.431.278-.181.57-.337.855-.502.197-.115.397-.228.602-.329.052-.027.102-.061.155-.087.025-.013.046-.017.07-.001.008.008.014.015.011.027-.217.118-.436.235-.652.356-.31.173-.616.353-.918.538-.286.175-.57.351-.849.537-.018.013-.039.022-.039.05a.19.19 0 0 1-.04-.097" fill="#3b85c5"/><path d="M8.651 22.51c.188-.122.375-.243.563-.363.341-.217.687-.424 1.038-.626.216-.125.433-.25.653-.368.071-.039.137-.093.22-.109a.105.105 0 0 1 .026.054c-.14.051-.264.133-.392.204-.293.165-.584.335-.872.51-.27.164-.538.335-.806.504-.136.086-.27.173-.405.26a.134.134 0 0 1-.025-.067" fill="#367cc0"/><path d="M7.912 20.722c.09-.031.172-.085.256-.13.352-.188.708-.371 1.068-.544.37-.178.743-.347 1.115-.518.006-.003.013-.003.02-.004.01.017.02.035.028.053-.198.09-.398.178-.594.271-.26.122-.519.243-.773.374-.345.178-.694.348-1.032.54-.019.011-.04.017-.06.024-.019-.018-.022-.043-.029-.066" fill="#b5e1e3"/><path d="M10.884 20.56c-.291.135-.575.284-.857.437a24.17 24.17 0 0 0-1.03.579c-.17.102-.34.203-.511.302a.235.235 0 0 0-.074.066c-.007-.028-.03-.05-.028-.08a.298.298 0 0 1 .119-.095c.256-.142.503-.301.76-.44.21-.114.419-.231.629-.344.29-.157.585-.31.879-.46.026-.014.05-.04.086-.02a.093.093 0 0 1 .027.055" fill="#53a4d5"/><path d="M10.305 19.378c-.102.013-.188.066-.28.106-.483.214-.958.445-1.432.678-.236.116-.468.24-.702.362-.017.008-.037.015-.045.037a.085.085 0 0 1-.027-.055c.022-.05.072-.06.114-.083.033-.019.067-.034.1-.052.022-.015.048-.022.068-.04.038-.015.075-.029.108-.054.325-.169.656-.325.988-.479.337-.157.678-.309 1.017-.463a.132.132 0 0 1 .065-.012c.008.02.017.036.026.055" fill="#ddeaec"/><path d="M10.586 19.955c-.336.162-.675.32-1.009.486a27.35 27.35 0 0 0-1.072.564c-.112.063-.226.123-.338.186-.023.013-.044.024-.039.054a.272.272 0 0 1-.04-.094l.005-.009c.201-.12.407-.233.616-.34.168-.087.333-.183.503-.265.154-.074.31-.143.458-.225.265-.145.542-.263.815-.39.021-.01.041-.02.063-.024.023.013.03.036.038.057" fill="#8ed3e8"/><path d="M10.857 20.506c-.116.042-.222.104-.332.16-.155.078-.31.16-.46.243-.195.11-.392.211-.586.32-.21.117-.421.232-.627.356-.148.09-.307.163-.443.271-.007.004-.017.004-.026.007a.128.128 0 0 1-.027-.067l.394-.226c.212-.122.425-.244.639-.364.204-.113.407-.229.617-.333.188-.093.367-.202.56-.284.09-.039.175-.09.262-.137.01.018.029.031.029.054" fill="#56a8d7"/><path d="M8.155 21.313c.042-.05.104-.067.158-.098.359-.198.72-.39 1.086-.581.289-.15.586-.286.876-.434.115-.06.234-.11.352-.163l.026.053c-.137.058-.27.124-.404.188-.25.115-.498.233-.741.359-.161.083-.316.175-.477.257-.211.107-.42.222-.625.339-.076.044-.161.075-.226.137a.113.113 0 0 1-.025-.057" fill="#7dcce8"/><path d="M5.346 22.777c.071-.076.163-.123.247-.181a21.182 21.182 0 0 1 1.216-.783c.013-.008.052-.058.056.012-.003.03.008.065-.013.095-.069-.003-.114.049-.165.082-.306.189-.607.386-.906.586-.099.065-.189.143-.3.188h-.135" fill="#98d8e8"/><path d="M8.06 21.084c.027-.044.08-.048.119-.07.124-.074.253-.137.38-.206.085-.047.174-.09.258-.139.129-.076.269-.13.399-.204.199-.11.407-.202.608-.309.13-.068.269-.127.404-.189.099-.046.205-.077.29-.146.01.018.02.035.029.054-.011.022-.03.031-.051.04a9.26 9.26 0 0 0-.535.247c-.271.134-.542.267-.81.405-.338.174-.674.35-1.005.538a.206.206 0 0 0-.057.045l-.001.001c-.017-.019-.022-.043-.027-.067" fill="#98d9e8"/><path d="M.162.94H0C-.005.904.024.89.047.874.262.732.473.585.69.448.829.361.965.27 1.1.182c.024-.013.046-.03.073-.035.025-.004.035.005.023.03-.003.035.008.074-.014.107C.863.472.559.685.249.89a.76.76 0 0 1-.087.05" fill="#85cfe8" mask="url(#b)" transform="translate(5.641 21.835)"/><path d="M1.357.2C1.335.156 1.31.195 1.296.204A13.22 13.22 0 0 0 .942.43C.702.59.463.747.224.905a.176.176 0 0 0-.063.058H0C.135.87.27.775.407.684.65.524.892.36 1.143.211c.059-.035.114-.077.173-.113.015-.008.043-.042.055.007-.004.033.007.066-.014.095" fill="#8ed3e8" mask="url(#c)" transform="translate(5.481 21.813)"/><path d="M6.918 21.434c.006-.052-.015-.051-.05-.028-.163.097-.327.192-.489.293-.43.266-.856.539-1.275.823-.105.07-.209.144-.313.217-.014.01-.024.025-.037.038h-.067c-.019-.038.012-.051.036-.067a35.46 35.46 0 0 1 1.934-1.243c.076-.046.152-.095.232-.134.013-.006.025-.02.042-.006l.001.013c-.004.032.01.066-.014.094" fill="#b4e1e3"/><path d="M.279.892h-.23C.047.86.073.85.093.837.355.661.617.483.888.317.905.307.946.257.95.33a.331.331 0 0 1-.016.121C.847.531.745.592.643.652.517.725.403.816.279.892" fill="#75c8e4" mask="url(#d)" transform="translate(5.861 21.883)"/><path d="M1.008.346C.993.292.969.336.957.344A69.59 69.59 0 0 0 .231.82C.189.846.142.87.108.91H.053L0 .908C.048.85.116.82.176.78.442.6.708.42.982.254c.013-.008.025-.023.039-.003-.003.033.007.066-.013.095" fill="#7ecce8" mask="url(#e)" transform="translate(5.803 21.868)"/><path d="M.172.852C.244.772.339.72.427.662.544.581.671.521.779.43.793.42.812.416.828.411.821.47.822.53.803.586.771.57.749.591.725.607.598.687.479.78.346.852z" fill="#6ec1e2" mask="url(#f)" transform="translate(5.968 21.924)"/><path d="M.272.817C.305.77.358.75.405.718.498.654.594.592.686.528.724.503.729.52.729.551.728.583.735.616.717.645.657.655.62.7.573.727.524.755.48.79.432.817z" fill="#68bce0" mask="url(#g)" transform="translate(6.042 21.958)"/><path d="M.358.79C.431.707.533.663.623.602c.013-.01.017.005.02.016a2.389 2.389 0 0 0-.02.17c-.089 0-.178 0-.266.002" fill="#62b6dd" mask="url(#h)" transform="translate(6.117 21.986)"/><path d="M6.931 21.327c-.159.075-.306.173-.456.264-.505.306-1.002.627-1.49.958l-.26.176c-.02.013-.037.027-.038.052h-.054c.002-.032.027-.043.05-.058.226-.151.45-.302.677-.452.194-.128.387-.26.587-.38.186-.113.368-.233.557-.342.121-.071.24-.145.362-.212.02-.01.041-.034.065-.006" fill="#b5e1e3"/><path d="M11.316 21.433c.02.033.044.067.05.108-.01.035-.041.046-.067.06-.565.33-1.116.683-1.658 1.048-.061.04-.12.087-.182.126h-.27c-.014-.022.003-.032.016-.044.025-.024.053-.041.08-.06a32.28 32.28 0 0 1 1.747-1.105c.069-.041.14-.08.21-.12.022-.013.045-.032.074-.013" fill="#2a60af"/><path d="M9.458 22.775c.02-.057.077-.073.118-.102.51-.346 1.03-.678 1.56-.996.076-.046.153-.09.23-.135a.38.38 0 0 1 .067.133.163.163 0 0 1-.066.056c-.23.14-.463.28-.69.428-.17.11-.344.218-.513.33-.142.096-.279.196-.423.286z" fill="#295aac"/><path d="M8.827 22.775c.034-.054.09-.085.14-.12.238-.164.485-.316.727-.476.307-.203.63-.381.94-.578.17-.106.347-.2.523-.297.024-.013.05-.03.08-.033l.034.069c-.01.039-.047.053-.077.07-.482.27-.955.556-1.42.855-.237.154-.469.313-.703.469-.023.015-.047.027-.069.04z" fill="#2c6cb7"/><path d="M11.565 21.931c-.076.006-.128.061-.187.098-.364.227-.722.464-1.075.71-.014.009-.025.024-.037.036h-.283c-.005-.025.013-.036.028-.049.019-.016.039-.03.059-.044.44-.296.882-.592 1.337-.864.027-.017.053-.047.09-.022z" fill="#2a4ca2"/><path d="M11.497 21.796c-.093.02-.16.084-.237.131-.394.238-.776.497-1.159.753-.04.028-.087.053-.118.095h-.242a.287.287 0 0 1 .083-.076c.273-.18.544-.364.82-.54.257-.164.518-.32.776-.48.004-.004.01-.003.013-.004.03.036.047.078.064.121" fill="#2952a6"/><path d="M9.002 22.775c.004-.028.03-.036.05-.05.429-.284.853-.575 1.295-.84.277-.164.55-.336.835-.487.03-.017.06-.038.09-.058a.266.266 0 0 1 .044.093c-.118.043-.221.115-.328.179-.586.345-1.16.709-1.721 1.093-.03.02-.061.036-.077.07z" fill="#2b68b4"/><path d="M17.844 17.404c-.017-.035-.037-.07-.04-.11.022-.025.055-.027.085-.033a35.786 35.786 0 0 1 2.207-.351 36.46 36.46 0 0 1 1.187-.128c.194-.02.388-.031.582-.047.244-.02.49-.026.734-.05.096-.01.192-.01.287-.01.19-.005.38-.026.57-.018.027 0 .054-.001.077.017.018.029.02.055-.01.079a.51.51 0 0 1-.159.023c-.172-.006-.344.009-.516.017-.259.013-.518.027-.776.048-.234.018-.468.036-.702.056a33.632 33.632 0 0 0-3.13.432c-.133.024-.264.053-.396.075" fill="#a5dee4"/><path d="m17.795 18.867.027-.094c.033-.035.079-.041.12-.052.463-.13.927-.25 1.395-.357a30.521 30.521 0 0 1 1.56-.313c.018-.003.035-.007.053-.007.027-.001.053.002.079-.003a.154.154 0 0 1 .017-.005c.023-.004.047-.002.07-.01l.017-.004c.023-.004.046-.002.068-.01l.018-.004c.025-.004.05-.005.074-.013l.088-.016c.026-.005.054-.002.08-.01.029-.006.06-.008.089-.015.029-.006.059-.001.088-.01a.12.12 0 0 1 .018-.004c.026-.004.052-.003.076-.011.01-.003.02-.004.029-.005.027-.002.054 0 .079-.01.034-.006.068-.01.1-.017.028-.003.055 0 .08-.008l.029-.004c.025-.002.05 0 .075-.007l.018-.004c.03-.006.063 0 .093-.011l.019-.005c.034-.005.068 0 .1-.012l.126-.018c.03-.001.063.003.093-.007a.18.18 0 0 1 .032-.006c.03-.002.062.002.092-.008a.287.287 0 0 1 .03-.005c.035-.002.07.003.105-.01a.224.224 0 0 1 .052-.004c.024 0 .049 0 .072-.01.02-.003.042-.004.063-.005.028 0 .056.002.083-.007a.345.345 0 0 1 .064-.005.206.206 0 0 0 .074-.01c.042.004.088-.03.127.013.007.025.004.046-.016.064a.143.143 0 0 1-.07.02c-.702.06-1.4.156-2.095.272a27.32 27.32 0 0 0-1.233.235 25.618 25.618 0 0 0-2.022.51c-.045.014-.09.027-.136.002" fill="#295bac"/><path d="M14.688 20.309c0-.056-.03-.05-.067-.032-.119.055-.24.108-.358.166-.238.115-.476.227-.71.348a31.241 31.241 0 0 0-1.714.95c-.02.012-.045.019-.068.029.01-.06.02-.117.028-.175.066-.065.152-.101.231-.147a29.118 29.118 0 0 1 1.843-.97c.253-.122.51-.241.77-.352.015-.006.031-.016.05-.016.022 0 .034.01.021.034a.611.611 0 0 1-.026.165" fill="#2a4ca2"/><path d="M11.825 21.434c.01-.063.02-.126.028-.188a29.46 29.46 0 0 1 2.816-1.368c.055-.023.057-.023.086.01a.653.653 0 0 1-.026.165c-.029-.017-.054-.01-.083.002-.157.065-.31.137-.467.205-.415.18-.82.38-1.223.587-.355.18-.704.372-1.052.567-.024.014-.046.04-.079.02" fill="#295aac"/><path d="M23.331 17.94c-.16.008-.318.029-.477.049-.121.014-.242.028-.363.045l-.384.054c-.122.019-.245.035-.368.053-.108.017-.215.04-.323.056-.137.019-.273.045-.409.067a16.93 16.93 0 0 0-.739.147c-.19.04-.379.09-.569.133-.289.064-.575.137-.859.217-.378.106-.755.21-1.127.334l.048-.122c.067-.045.146-.055.22-.078a28.197 28.197 0 0 1 2.727-.662 26.7 26.7 0 0 1 1.965-.3l.567-.062c.036-.004.072-.01.105.01.011.024.02.046-.014.059" fill="#2a4ca2"/><path d="m17.9 18.383.002-.04c.002-.057.042-.068.085-.08a30.489 30.489 0 0 1 4.628-.776l.735-.059c.023-.002.045-.004.064.012.016.03.016.055-.011.078-.056.018-.115.018-.172.022a30.294 30.294 0 0 0-5.202.84c-.042.011-.086.035-.13.003" fill="#3982c4"/><path d="M23.341 17.886c-.17.006-.34.031-.51.05-.155.017-.309.038-.464.055-.18.021-.36.044-.54.072a31.84 31.84 0 0 0-.71.116 25.205 25.205 0 0 0-2.022.431 32.87 32.87 0 0 0-1.275.352c-.02.006-.039.014-.059.011l.034-.107c.193-.019.373-.096.561-.14.14-.034.281-.069.42-.114.21-.069.428-.104.642-.162.117-.032.24-.053.36-.079.345-.073.691-.144 1.04-.204.25-.043.498-.09.748-.13.208-.033.418-.056.627-.085.202-.026.405-.055.607-.078.157-.018.315-.028.472-.043.025-.002.048-.007.072-.012.018.023.018.046-.003.067" fill="#2953a7"/><path d="M17.898 17.632a.397.397 0 0 1-.026-.123c.02-.022.048-.02.074-.026.872-.173 1.75-.314 2.633-.42.43-.052.86-.094 1.29-.127.347-.027.695-.053 1.044-.068.17-.007.34-.022.51-.023.044 0 .088.005.08.07a.036.036 0 0 1-.01.02c-.036.021-.076.01-.113.012-.214.006-.429.02-.643.032a31.24 31.24 0 0 0-.682.048c-.259.02-.516.045-.775.07a32.594 32.594 0 0 0-3.257.49c-.044.01-.089.015-.125.045" fill="#8dd3e8"/><path d="M17.844 17.404c.046-.053.115-.04.173-.053.156-.035.313-.062.471-.09.236-.04.473-.077.71-.114.193-.031.386-.063.58-.091.19-.026.382-.047.574-.07.176-.022.352-.044.53-.064.103-.012.207-.021.311-.031.19-.017.38-.038.57-.05.13-.01.258-.023.387-.03.291-.011.582-.032.874-.045.164-.007.33.007.494-.022.022.032.025.06-.01.086-.259 0-.516.017-.772.03a37.741 37.741 0 0 0-1.899.157 34.758 34.758 0 0 0-2.888.443c-.03.006-.062.017-.09-.004-.018-.014-.013-.033-.015-.052" fill="#9edae7"/><path d="M14.755 19.889c-.02-.022-.04-.014-.061-.004-.273.12-.548.237-.82.361-.411.187-.816.386-1.218.591-.23.118-.456.245-.684.367-.037.02-.072.047-.118.041.005-.049.009-.099.025-.147.045-.042.1-.065.154-.094.3-.159.604-.314.909-.464a28.22 28.22 0 0 1 1.157-.536c.195-.084.389-.169.587-.248.068-.028.085-.019.083.04 0 .032 0 .064-.014.093" fill="#2a60af"/><path d="m11.825 21.434.376-.203c.16-.085.317-.171.475-.257.308-.168.624-.32.94-.475.167-.081.336-.16.51-.231.178-.073.351-.158.53-.234.021-.01.066-.057.073.019-.002.03.002.063-.015.09-.004-.035-.025-.02-.043-.012-.183.082-.367.16-.548.248-.358.174-.716.347-1.069.53-.409.21-.812.429-1.206.666-.015.008-.033.013-.049.02a.795.795 0 0 1 .026-.161" fill="#2952a7"/><path d="m17.737 17.16-.04-.066c.032-.031.075-.03.113-.037.478-.09.958-.167 1.44-.235a33.628 33.628 0 0 1 3.179-.303c.341-.015.683-.031 1.025-.037.036-.001.073-.006.103.02h.001c.02.028.022.053-.01.073-.188.009-.375.005-.56.016-.137.008-.272.013-.408.019-.204.008-.408.02-.613.032-.188.012-.377.023-.565.04-.198.018-.396.035-.593.054-.18.019-.359.04-.539.062a28.438 28.438 0 0 0-1.326.176c-.333.052-.665.108-.998.165-.068.01-.136.043-.209.022" fill="#c7e3e4"/><path d="M11.93 20.775c-.002-.046.01-.09.019-.135.003-.035.032-.044.059-.056.326-.163.657-.317.989-.468.322-.147.649-.28.973-.422.233-.103.474-.188.71-.28.052-.02.096-.062.157-.05a.675.675 0 0 1-.028.178c-.028-.018-.054-.008-.083.003-.35.126-.688.277-1.03.42a26.73 26.73 0 0 0-1.668.788c-.03.014-.058.044-.098.022" fill="#3378be"/><path d="m17.916 18.207.012-.174c.015-.03.045-.035.072-.04a30.697 30.697 0 0 1 1.553-.314 30.389 30.389 0 0 1 2.787-.368c.343-.029.686-.049 1.029-.075a.122.122 0 0 1 .06.008c.029.022.028.051.017.081a.034.034 0 0 1-.016.013.056.056 0 0 1-.017-.009c-.041-.022-.08 0-.12.005a.21.21 0 0 1-.08 0c-.042-.01-.083.005-.124.012a.295.295 0 0 1-.078.007c-.04-.019-.078 0-.117.007a.16.16 0 0 1-.07 0c-.035-.01-.068.006-.102.013a.168.168 0 0 1-.06.003c-.035-.01-.07.001-.102.011a.178.178 0 0 1-.07.001c-.031-.007-.061.004-.091.011a.147.147 0 0 1-.047.004.18.18 0 0 0-.1.01.122.122 0 0 1-.057.001c-.028-.008-.053.004-.08.012a.132.132 0 0 1-.055.002c-.028-.008-.053.005-.08.011a.142.142 0 0 1-.058.002c-.03-.007-.057.01-.086.015-.087.011-.174.023-.262.031-.03 0-.059-.002-.088.008-.047.003-.092.02-.14.02-.024 0-.049-.002-.073.005a.147.147 0 0 1-.042.006.208.208 0 0 0-.074.011c-.138.021-.277.038-.415.058-.025 0-.05-.002-.075.008-.064.023-.133.017-.2.03-.026-.006-.05-.007-.073.01a.213.213 0 0 1-.109.015c-.027-.009-.05.003-.075.013-.496.082-.99.17-1.482.273-.243.051-.485.105-.726.161-.022.006-.045.01-.055.033-.003.013-.003.028-.006.042-.005.012-.007.028-.026.027" fill="#4e9dd2"/><path d="M23.168 17.778h-.067c-.025.018-.057-.004-.08.014h-.068c-.02.015-.048-.003-.067.013h-.054c-.035.018-.074-.005-.108.014h-.027c-.029.018-.064-.005-.094.013h-.027c-.029.017-.064-.004-.094.013-.044.007-.088.019-.134.014-.034.018-.074-.005-.108.014-.034.017-.073-.005-.107.013-.025.017-.056-.004-.08.013h-.028c-.024.018-.056-.004-.08.014a.282.282 0 0 1-.108.013c-.024.017-.056-.003-.08.014h-.027c-.025.017-.056-.005-.08.013-.03.017-.065-.004-.095.013-.03.019-.062.013-.094.014-.025.017-.056-.004-.08.014-.03.018-.063.012-.095.013-.025.017-.056-.004-.08.013-.025.017-.057-.004-.08.014-.026.016-.057-.004-.082.014-.025.016-.056-.004-.08.012-.194.03-.385.07-.577.105-.58.105-1.155.238-1.727.38-.28.07-.559.152-.838.228l.023-.081c.022-.038.063-.04.1-.05a31.96 31.96 0 0 1 1.228-.311 29.517 29.517 0 0 1 3.547-.587c.162-.017.325-.03.487-.05.054-.005.111-.014.165.014.012.024.018.047-.015.06-.04-.021-.082.007-.122-.003-.02.016-.047-.004-.067.013" fill="#2a60b0"/><path d="M17.858 17.455c.25-.046.498-.095.747-.138a54.83 54.83 0 0 1 1.5-.235c.165-.023.331-.038.497-.057.18-.02.36-.047.542-.065.17-.018.341-.028.511-.042l.605-.053c.09-.007.178-.013.267-.014.127 0 .254-.012.381-.017.176-.008.351-.019.527-.024.024 0 .05-.008.07.014.02.035.034.07-.014.095.004-.038-.009-.057-.052-.056-.25.008-.499.02-.748.04-.086.007-.173.003-.26.012-.21.02-.423.026-.634.044-.219.018-.437.048-.656.064-.22.016-.438.045-.657.072-.244.03-.488.066-.732.1a38.64 38.64 0 0 0-.83.127c-.274.045-.546.103-.82.152-.076.013-.15.038-.23.035-.017-.015-.012-.035-.014-.054" fill="#98d9e8"/><path d="M23.438 17.254c-.186.017-.373.021-.56.037-.13.011-.261.02-.392.03-.186.015-.372.028-.557.051-.144.018-.288.028-.432.043a18.19 18.19 0 0 0-.47.058c-.18.023-.36.05-.54.076-.215.032-.431.062-.645.1-.333.058-.665.12-.996.183-.308.061-.616.121-.92.201v-.067c.017-.033.052-.035.08-.042a31.024 31.024 0 0 1 3.005-.524c.27-.033.54-.066.81-.088l.023-.006c.089-.003.177-.016.265-.023l.022-.005c.098-.003.193-.015.29-.022l.02-.005c.052-.006.102.004.152-.007l.02-.006c.055-.007.11.005.163-.01l.022-.004c.059-.006.119.006.179-.009a.079.079 0 0 1 .022-.005c.064-.007.13.007.194-.01.012-.003.024-.004.036-.005.053 0 .106-.002.16.001.029.001.06.005.055.048l-.006.01" fill="#54a5d5"/><path d="m12.203 19.015.013-.082c.004-.039.027-.061.065-.074a34.933 34.933 0 0 1 2.685-.891c.019-.005.038-.014.058-.012.024.002.04.01.027.038-.004.032.008.065-.014.094-.258.066-.512.147-.766.227-.64.199-1.27.424-1.9.656-.053.02-.103.065-.168.044" fill="#a5dee3"/><path d="M14.836 19.364c-.248.11-.509.19-.758.299-.127.055-.256.107-.383.164-.106.048-.213.095-.319.14-.114.05-.229.098-.342.15-.222.1-.443.205-.664.309-.143.067-.287.13-.422.214.008-.045.003-.091.02-.134.075-.071.172-.104.262-.146a31.563 31.563 0 0 1 2.54-1.074c.023-.01.046-.02.071-.01l.008.008c0 .027.003.056-.013.08" fill="#3880c3"/><path d="M23.558 16.501c-.242-.01-.482.012-.724.017-.187.004-.374.014-.561.024a37.509 37.509 0 0 0-1.57.121c-.26.027-.52.065-.78.091-.254.026-.507.065-.76.098-.178.023-.355.057-.533.084-.3.044-.595.1-.892.156-.013.002-.027 0-.04.001a.043.043 0 0 1-.027-.04c.142-.028.283-.056.425-.08.232-.04.464-.08.696-.117.173-.027.348-.048.52-.073.188-.026.374-.053.56-.077.136-.018.27-.029.406-.044.152-.016.304-.035.456-.05.11-.012.22-.02.332-.03l.63-.053c.07-.005.139-.009.208-.01.22-.007.44-.026.66-.034.286-.01.57-.026.857-.025.026 0 .052-.009.078-.013.04-.005.067.007.059.054" fill="#ddeaeb"/><path d="M23.41 17.442c-.209.022-.418.026-.625.052-.122.015-.244.017-.366.03-.148.014-.295.034-.443.049-.124.013-.248.026-.37.043-.185.026-.37.044-.556.07-.193.027-.386.06-.579.092-.24.04-.48.078-.722.123-.43.08-.859.169-1.285.268-.165.038-.329.08-.493.119-.035.008-.057.023-.069.054l.013-.107c.056-.036.121-.044.183-.06a37.32 37.32 0 0 1 1.311-.282 30.512 30.512 0 0 1 1.93-.311c.285-.037.571-.071.857-.101.168-.018.338-.031.506-.047.202-.017.405-.027.607-.047.038-.004.087-.022.11.034a.029.029 0 0 1-.01.02" fill="#3e88c7"/><path d="M17.9 18.383c.134-.012.26-.057.39-.089.474-.116.95-.217 1.428-.312.27-.054.54-.105.814-.146.259-.038.517-.084.778-.113.187-.02.373-.055.56-.077.186-.023.372-.038.558-.056.228-.022.455-.046.683-.066.096-.008.192-.01.288-.014.02.034.026.067-.01.096a.036.036 0 0 1-.02-.013c-.013-.028-.04-.024-.064-.022-.3.027-.6.05-.898.08-.265.027-.53.062-.796.093-.02.002-.038.011-.058.015a18.477 18.477 0 0 0-2.151.365c-.122.01-.238.043-.355.076a.041.041 0 0 1-.02.005c-.107.014-.213.042-.32.065-.244.053-.486.118-.73.178-.028.007-.058.026-.088.002-.004-.024.004-.046.01-.067" fill="#347abf"/><path d="M12.203 19.015c.295-.107.589-.217.885-.322.346-.124.694-.244 1.045-.352.249-.076.498-.155.748-.228.05-.015.098-.057.156-.025-.003.027.008.056-.013.08-.083.046-.176.063-.266.09-.566.17-1.126.359-1.682.557-.272.096-.541.202-.812.302-.024.008-.05.027-.076.005l.015-.107" fill="#9edae7"/><path d="M23.368 17.711c-.209 0-.417.03-.624.052-.179.02-.358.034-.537.056-.187.023-.374.054-.56.078-.215.026-.426.062-.639.094-.359.055-.714.123-1.069.194-.395.08-.788.166-1.178.265-.306.078-.614.151-.916.241a.123.123 0 0 1 .014-.067c.023-.024.054-.03.085-.038a29.735 29.735 0 0 1 1.591-.388 27.465 27.465 0 0 1 1.71-.31c.318-.049.636-.096.956-.13.308-.035.616-.072.925-.097.062-.005.125-.006.186-.017.03-.006.06-.004.07.035a.035.035 0 0 1-.014.032" fill="#2b67b4"/><path d="M17.925 17.913c-.02-.058-.009-.117-.012-.176.093-.039.194-.05.291-.07a31.69 31.69 0 0 1 2.3-.38c.24-.032.481-.062.722-.088.202-.022.404-.045.606-.06.067-.005.135-.004.2-.022.23-.014.458-.034.688-.048.221-.012.442-.026.663-.036.033-.002.074-.009.09.037a.048.048 0 0 1-.006.024c-.08.034-.167.024-.25.03a38.656 38.656 0 0 0-1.87.147c-.518.055-1.032.124-1.545.204a33.02 33.02 0 0 0-1.685.305c-.039.008-.079.016-.117.028-.024.006-.05.011-.054.043 0 .014-.002.03-.007.044a.037.037 0 0 1-.014.018" fill="#6ec2e2"/><path d="M23.371 17.686c-.002-.022-.017-.03-.037-.028-.155.014-.31.027-.465.043-.15.015-.3.034-.45.05-.168.019-.336.036-.503.058-.172.023-.342.05-.514.076-.215.033-.431.062-.645.1-.328.057-.656.118-.982.184-.271.054-.539.116-.808.179-.36.084-.719.172-1.075.273-.01.002-.021.002-.033.003a.118.118 0 0 1 .014-.066c.021-.023.049-.028.078-.036a29.71 29.71 0 0 1 3.279-.68c.299-.043.597-.087.896-.12.24-.025.48-.052.72-.072.149-.013.297-.028.447-.038.031-.002.062-.007.093.004.014.028.024.054-.015.07" fill="#2d6cb7"/><path d="M11.93 20.775c.028 0 .05-.018.074-.03.313-.153.624-.313.939-.46a24.09 24.09 0 0 1 1.066-.47c.244-.1.484-.207.732-.295.022-.008.065-.05.068.022 0 .027.002.055-.012.082-.032-.011-.061-.002-.091.009a32.257 32.257 0 0 0-2.201.979c-.173.084-.343.176-.515.26-.026.012-.05.033-.081.024.006-.041.005-.083.02-.121" fill="#2f71b9"/><path d="M17.898 17.632c-.004-.042.028-.048.055-.053.345-.066.69-.136 1.036-.192.27-.042.538-.09.808-.13.215-.032.432-.057.648-.084.204-.026.41-.055.614-.077.157-.019.314-.029.471-.044.184-.017.368-.035.551-.05.07-.007.138-.01.207-.016.268-.019.536-.036.805-.048.132-.007.264-.016.397-.006.02.027.023.052-.012.07a.528.528 0 0 0-.22-.008c-.115.018-.232.012-.347.02-.182.012-.365.02-.548.033-.193.014-.386.028-.58.047-.19.018-.382.036-.573.056-.277.028-.555.061-.832.097a35.054 35.054 0 0 0-2.395.399c-.027.006-.056.016-.084-.002v-.012" fill="#84cfe8"/><path d="M23.53 16.676c-.214-.01-.429.011-.643.017-.17.004-.342.015-.513.024-.198.011-.396.023-.593.04-.276.024-.552.053-.829.08-.223.022-.446.041-.669.068a64.517 64.517 0 0 0-1.732.255c-.176.03-.35.066-.524.098-.075.014-.149.024-.224.036l-.012-.026c-.01-.055.037-.048.064-.053l.45-.084a32.809 32.809 0 0 1 2.591-.356 35.314 35.314 0 0 1 1.57-.12l.676-.029c.107-.004.214-.009.321-.009.027 0 .055-.002.073.024.005.013.004.025-.006.035" fill="#ade0e3"/><path d="m12.256 18.665.013-.08c.012-.028.039-.035.065-.044a34.446 34.446 0 0 1 2.664-.843l.039-.009c.054-.008.06 0 .054.062-.004.027.009.057-.014.081l-.01-.005c-.018-.02-.04-.015-.061-.008a37.497 37.497 0 0 0-2.194.686c-.148.051-.296.101-.442.158-.037.015-.075.031-.114.002" fill="#c6e2e4"/><path d="m12.094 19.727.015-.107c.042-.044.1-.057.154-.08.385-.156.772-.31 1.163-.454.449-.166.902-.318 1.356-.47a1.1 1.1 0 0 1 .137-.034c.013-.001.037-.014.038.017-.002.028.004.057-.012.082-.222.076-.446.144-.665.226a1.606 1.606 0 0 0-.062.025c-.452.148-.895.32-1.336.495-.241.096-.482.19-.72.294-.021.01-.044.024-.068.006" fill="#66badf"/><path d="M23.532 16.65c-.017-.021-.042-.014-.063-.014-.2.004-.397.004-.596.015-.174.01-.347.019-.521.026-.26.013-.52.034-.78.054-.2.016-.398.03-.597.054-.265.03-.531.052-.795.09-.22.032-.441.053-.661.085-.28.04-.557.086-.836.129-.283.044-.565.097-.847.15-.02.005-.042 0-.044.029a.085.085 0 0 1-.027-.054c.016-.048.065-.031.096-.048a.133.133 0 0 1 .019-.005.836.836 0 0 0 .13-.023l.019-.005c.044-.003.086-.012.129-.021a.12.12 0 0 1 .018-.005c.043-.003.084-.013.126-.02.006-.002.01-.004.017-.005.023-.004.046-.002.068-.01l.017-.004c.022-.004.044-.001.066-.01a.084.084 0 0 1 .017-.004c.02-.004.042-.002.062-.008l.017-.005c.02-.003.042-.002.063-.008a.098.098 0 0 1 .016-.005c.022-.004.045-.002.067-.01a.124.124 0 0 1 .016-.004c.023-.004.047-.003.069-.01a.12.12 0 0 1 .018-.005.754.754 0 0 0 .169-.027.973.973 0 0 0 .17-.025c.028-.006.057-.002.085-.011a.087.087 0 0 1 .019-.005c.056-.002.11-.012.166-.022.006-.003.013-.004.02-.005.058-.005.116-.015.174-.025l.02-.003c.097-.006.192-.023.288-.033a.117.117 0 0 1 .02-.005c.033-.006.067 0 .1-.011a.117.117 0 0 1 .02-.005c.106-.006.209-.021.312-.034l.02-.004c.035-.008.07 0 .104-.011a.106.106 0 0 1 .019-.004c.036-.005.073.002.109-.007a.105.105 0 0 1 .019-.005c.037-.006.076 0 .113-.007l.019-.005c.042-.001.084.008.125-.011l.019-.005c.038-.006.077.002.115-.01a.105.105 0 0 1 .019-.004c.04-.003.083.009.123-.01a.313.313 0 0 1 .03-.005c.042-.003.084.004.125-.008a.333.333 0 0 1 .03-.005.37.37 0 0 0 .149-.01c.3-.024.6-.043.902-.06.256-.013.512-.021.768-.033.119-.006.24-.017.359.007.014.024.024.047-.013.059" fill="#b7e1e3"/><path d="M11.908 20.896c.331-.166.66-.338.994-.496.478-.226.96-.444 1.45-.641.128-.05.255-.104.383-.157.027-.011.052-.02.061.022 0 .01-.002.024-.004.036-.03.042-.08.053-.126.07a16.07 16.07 0 0 0-.546.225c-.17.074-.339.148-.508.224-.21.097-.419.2-.63.295-.24.108-.466.239-.705.346-.112.05-.217.114-.328.167-.018.009-.034.023-.057.016l.016-.107" fill="#2d6cb7"/><path d="M11.893 21.003c.052-.043.117-.063.176-.094.158-.083.318-.16.478-.24.2-.1.395-.206.598-.297l.534-.24c.14-.065.284-.12.424-.19.182-.088.374-.153.562-.228l.128-.055c-.004.047-.007.093-.024.137 0-.042-.02-.05-.056-.035l-.497.215c-.202.088-.407.17-.606.265-.181.087-.363.17-.543.26-.193.094-.386.19-.577.285-.191.097-.378.2-.567.3a.088.088 0 0 1-.044.012.234.234 0 0 1 .014-.095" fill="#2b68b5"/><path d="M17.9 17.644c.28-.06.561-.113.844-.162.162-.027.323-.06.485-.086.222-.036.443-.07.665-.102.218-.031.435-.063.653-.09.172-.023.345-.04.517-.057.15-.018.3-.036.45-.051.115-.013.23-.02.346-.03.22-.018.438-.036.658-.052.08-.006.16-.011.24-.013.14-.003.276-.017.415-.02.081 0 .164-.01.247-.01.022 0 .052-.008.058.029.003.009 0 .016-.008.02a.079.079 0 0 1-.045.01c-.128-.006-.255.01-.382.017-.18.008-.36.02-.542.034a31.794 31.794 0 0 0-.981.08c-.142.013-.285.03-.427.044-.204.02-.407.046-.61.072a36.042 36.042 0 0 0-1.51.228c-.336.059-.669.123-1.002.19-.025.006-.049.009-.07-.011 0-.014 0-.026-.002-.04" fill="#7dcce8"/><path d="M12.052 19.995c-.004-.037.007-.072.015-.107.138-.074.284-.13.427-.193.29-.124.584-.238.877-.354.222-.089.447-.17.672-.252.264-.097.531-.188.795-.284.028-.01.058-.03.09-.006-.006.047-.008.093-.024.138-.035-.024-.068-.01-.102.001a26.01 26.01 0 0 0-1.218.443c-.48.184-.956.382-1.426.593-.032.014-.065.042-.106.021" fill="#54a4d5"/><path d="M14.927 18.8c-.137.024-.26.09-.39.134a29.21 29.21 0 0 0-1.851.704c-.184.075-.368.15-.548.234a.135.135 0 0 1-.07.016c-.006-.032.01-.063.013-.094.058-.053.134-.07.203-.099a31.474 31.474 0 0 1 1.672-.656c.295-.104.59-.21.888-.304a.25.25 0 0 1 .045-.012c.04-.004.056.011.04.051 0 .008 0 .017-.002.025" fill="#5baed9"/><path d="m12.121 19.538.014-.095c.013-.03.042-.039.07-.05.3-.115.6-.232.901-.346.407-.153.82-.286 1.23-.429.194-.066.391-.126.59-.184.018-.005.038-.013.056.002-.001.028.007.056-.012.081-.029.033-.07.038-.109.05-.897.281-1.78.6-2.65.953-.029.012-.056.031-.09.018" fill="#75c8e5"/><path d="M12.148 19.377c-.005-.028.006-.054.013-.08.015-.03.042-.045.072-.057.277-.106.553-.218.833-.318.347-.125.694-.247 1.045-.362.255-.084.512-.162.767-.245.027-.008.055-.018.084-.02.039-.004.049.014.035.05-.002.026.005.055-.013.08-.028-.017-.056-.008-.084.001-.901.274-1.79.587-2.664.936-.027.012-.055.036-.088.015" fill="#85cfe8"/><path d="M12.015 20.21c.004-.04.007-.082.021-.12a.278.278 0 0 1 .119-.075c.305-.13.608-.264.914-.39s.612-.252.923-.367c.268-.099.537-.197.807-.292.033-.012.067-.033.102-.005l-.012.08c-.088.046-.184.07-.276.103-.476.17-.946.357-1.413.547-.313.128-.62.268-.93.402-.085.038-.168.08-.254.117" fill="#4b99d0"/><path d="M23.41 17.43c-.022-.054-.071-.03-.103-.024-.088.016-.178.012-.266.02-.202.019-.403.035-.605.053-.157.013-.315.03-.471.046-.204.018-.406.05-.61.076-.173.022-.347.044-.521.07-.22.032-.438.07-.658.104-.37.057-.735.13-1.101.206-.292.06-.582.129-.873.19-.096.021-.188.059-.287.064v-.028l.013-.025c.04-.031.09-.034.139-.045.473-.115.95-.212 1.428-.305.373-.073.747-.138 1.123-.189.32-.044.64-.093.962-.129.3-.033.6-.067.9-.094l.647-.053c.087-.008.174-.004.26-.017a.053.053 0 0 1 .039.009c.014.027.024.054-.015.071" fill="#428eca"/><path d="M14.9 18.961c-.031-.005-.061.01-.09.02-.256.093-.511.191-.768.281-.308.106-.606.235-.91.355-.226.09-.45.192-.674.288l-.421.184c0-.032 0-.065.015-.094.146-.06.292-.12.437-.184a27.975 27.975 0 0 1 2.341-.9c.027-.009.07-.045.074.027z" fill="#4f9ed2"/><path d="m11.988 20.385.021-.122c.058-.047.13-.072.195-.102a31.185 31.185 0 0 1 1.817-.769c.26-.099.521-.19.78-.289.022-.009.055-.036.075.008 0 .031.003.063-.014.092-.086-.012-.156.037-.229.064-.368.135-.733.276-1.095.428-.384.161-.765.328-1.144.5-.126.057-.255.111-.375.181-.009.006-.019.011-.03.01" fill="#428eca"/><path d="M23.382 17.617c-.07.03-.146.018-.218.023-.17.013-.34.034-.51.046-.145.01-.287.038-.43.049a8.046 8.046 0 0 0-.49.058 34.404 34.404 0 0 0-1.61.256 31.814 31.814 0 0 0-1.979.441l-.272.068.002-.041c.017-.023.043-.03.07-.036.478-.13.962-.24 1.447-.344a28.373 28.373 0 0 1 2.505-.418c.244-.03.487-.061.732-.081.02-.001.04-.011.06-.012.203-.015.406-.033.61-.053.03-.003.058-.005.082.018l.002.014c.004.004.004.009 0 .012" fill="#2f71b9"/><path d="m12.188 19.122.387-.142c.085-.032.168-.067.254-.097.348-.123.695-.249 1.046-.365.36-.12.727-.229 1.09-.34.019-.007.039-.007.059-.01-.004.031.008.065-.014.095-.122.01-.234.058-.348.093-.51.157-1.014.326-1.515.505-.292.105-.583.213-.871.33-.032.013-.065.036-.101.011-.005-.028.006-.054.013-.08" fill="#97d8e8"/><path d="m12.229 18.84.013-.08c.008-.032.029-.049.059-.06a36.793 36.793 0 0 1 2.686-.869c.03-.009.06-.024.089 0v.001c-.002.028.009.057-.012.081-.134.041-.271.076-.406.117-.226.07-.453.14-.68.207-.266.081-.526.176-.79.262a20.74 20.74 0 0 0-.933.336c-.01.004-.017.007-.026.004" fill="#b7e1e3"/><path d="M12.121 19.538a34.308 34.308 0 0 1 2.728-.984c.04-.012.08-.028.12-.037-.002.028.006.056-.013.082a.348.348 0 0 0-.146.027c-.259.085-.519.167-.774.26-.307.11-.614.22-.918.337-.289.11-.574.226-.86.34-.05.02-.097.045-.15.056.005-.027.01-.054.013-.08" fill="#6ec1e2"/><path d="M11.988 20.385c.033-.046.088-.062.134-.085.195-.093.393-.178.59-.267.184-.082.366-.169.553-.245.275-.109.544-.234.823-.333.174-.06.343-.136.517-.198.067-.024.133-.05.2-.073.024-.009.05-.019.057.02 0 .027.003.055-.013.08l-.003-.002c-.017-.025-.039-.013-.06-.007a2.711 2.711 0 0 0-.29.105c-.248.103-.5.193-.749.296-.427.177-.85.363-1.272.556-.134.061-.267.127-.4.188-.03.014-.062.034-.094.004a.532.532 0 0 0 .007-.039" fill="#3e89c7"/><path d="M14.876 19.11c-.027-.01-.05 0-.075.009-.176.064-.353.125-.527.194-.26.105-.526.197-.784.31-.208.092-.42.175-.63.264-.134.057-.265.123-.4.179-.152.063-.293.149-.45.197l.005-.052c.021-.033.055-.048.086-.062.243-.11.486-.222.733-.325.291-.123.586-.237.88-.357.356-.146.72-.278 1.083-.406.03-.011.058-.023.091-.02 0 .024.003.049-.012.07" fill="#4693ce"/><path d="M12.229 18.84c.024-.04.068-.039.105-.052.145-.053.292-.103.437-.16.352-.139.716-.244 1.073-.367.218-.075.443-.132.662-.202.175-.057.352-.105.529-.154.012-.003.02-.003.029.008-.003.028.008.057-.013.081-.006-.036-.027-.024-.05-.018a34.21 34.21 0 0 0-1.881.596c-.283.097-.562.205-.843.306a.106.106 0 0 0-.062.055c-.006-.032.014-.062.014-.094" fill="#ace0e4"/><path d="M12.175 19.203c.119-.024.225-.084.338-.123.218-.077.434-.161.65-.24.13-.048.26-.094.39-.14.168-.056.336-.11.502-.167.289-.1.58-.187.872-.274.024-.007.06-.047.083.005-.002.027.007.056-.013.08.003-.037-.014-.04-.045-.03-.121.038-.243.072-.364.11a34.029 34.029 0 0 0-1.346.454c-.324.117-.647.238-.967.367a1.172 1.172 0 0 0-.114.052c-.006-.032.01-.062.014-.094" fill="#8ed3e8"/><path d="M19.633 16.89h-.013c-.063.01-.127.012-.189.028-.062.012-.125.016-.188.027-.029.017-.065-.005-.094.013-.057.017-.118.01-.175.028-.057.016-.117.009-.174.026-.025.017-.056-.004-.08.014-.026.016-.057-.004-.082.013s-.055-.004-.08.013-.056-.004-.08.014c-.026.016-.057-.004-.08.013-.026.017-.057-.003-.082.014-.048.015-.1.004-.148.027-.048.014-.1.003-.148.027-.048.015-.1.004-.148.026a.416.416 0 0 1-.122.014c-.01-.006-.012-.016-.013-.026.228-.041.455-.083.682-.122a19.586 19.586 0 0 1 1.252-.188c.16-.022.32-.044.482-.064.136-.016.273-.03.41-.043.166-.018.331-.042.497-.05.15-.008.3-.032.45-.035.093-.002.188-.015.283-.024a16.68 16.68 0 0 1 .999-.061c.131-.004.262-.022.391-.013.105.007.208-.01.312-.006.018 0 .036-.003.05.014.007.01.006.018 0 .027-.178.01-.354.01-.53.015-.13.003-.26.014-.39.014-.2 0-.403.023-.604.037l-.22.01c-.099.007-.199.027-.3.018-.044.008-.09.003-.134.014h-.027c-.044.013-.09-.004-.134.012h-.027c-.04.008-.082 0-.12.014h-.015c-.044.007-.09-.002-.134.014-.044.015-.09-.004-.134.013-.044.012-.092-.005-.135.013-.039.017-.082-.005-.12.014h-.014c-.036.003-.073 0-.108.013h-.013c-.112.018-.225.019-.336.04-.035.018-.074-.005-.108.014-.102.02-.208.014-.309.04" fill="#bde1e3"/><path d="M15.09 17.751c.005-.046-.01-.057-.057-.043-.25.072-.503.138-.752.213a65.3 65.3 0 0 0-1.211.382c-.27.088-.534.187-.801.281l.012-.067c.495-.179.994-.346 1.496-.5.42-.13.845-.25 1.269-.37.04-.012.065-.016.058.037-.003.023.008.048-.013.067" fill="#ddeaeb"/><path d="M17.902 17.684c.157-.017.31-.06.465-.086.29-.052.58-.106.873-.155.247-.042.495-.083.743-.118.22-.033.44-.057.66-.084.17-.022.34-.046.51-.065.152-.016.306-.03.458-.043l.55-.052c.068-.005.135-.01.2-.012.186-.008.37-.025.555-.032.187-.008.374-.026.56-.025.019.027.029.053-.011.069-.003-.022-.017-.028-.037-.03a4.546 4.546 0 0 0-.452.025c-.087.006-.173.004-.26.014-.16.019-.323.017-.484.032-.07.005-.137.01-.206.01-.185.007-.37.03-.553.049a32.378 32.378 0 0 0-1.612.201c-.208.033-.417.065-.625.1-.212.037-.425.073-.637.114-.21.04-.418.079-.626.126-.025.005-.05.005-.071-.011v-.027" fill="#74c7e5"/><path d="M12.148 19.377c.289-.11.577-.225.867-.333.24-.089.483-.17.724-.258.39-.14.787-.26 1.182-.385.024-.007.063-.039.063.024a.025.025 0 0 1-.001.012c-.178.055-.356.11-.534.167-.235.075-.472.145-.703.231-.197.074-.396.14-.593.216-.18.07-.363.135-.545.205-.157.061-.314.125-.472.187-.005-.023.008-.044.012-.066" fill="#7ecce8"/><path d="m22.685 17.644-.337.04c-.177.022-.353.04-.53.064-.175.02-.348.045-.522.07-.214.032-.43.06-.644.098-.333.059-.665.12-.996.186-.268.053-.535.115-.802.174-.328.07-.653.157-.98.24-.005-.015.004-.027.013-.04.11-.046.23-.065.346-.096.204-.054.41-.102.617-.144.064-.014.125-.043.192-.041.092-.03.187-.044.28-.064.024-.005.046-.015.07-.017.153-.053.313-.074.47-.101.105-.017.207-.041.31-.06.166-.031.333-.058.499-.088.019-.004.034.009.052.008.079-.021.16-.031.24-.042h.015c.132-.021.263-.044.396-.058.05-.006.103-.012.155-.022h.013c.154-.027.31-.041.464-.06.163-.02.326-.037.49-.053.052-.005.105-.011.158-.015.016-.002.032-.003.03.02" fill="#3175bc"/><path d="M17.925 17.913a.325.325 0 0 0 .003-.014c.097-.05.205-.06.31-.083.29-.06.582-.119.874-.173.354-.064.708-.127 1.064-.175.323-.043.646-.088.97-.128.22-.027.44-.039.658-.07.233-.032.467-.04.7-.062.23-.022.461-.04.692-.043.08 0 .16-.026.24-.006a.049.049 0 0 1 .018.014c.005.011.004.022-.006.031-.075-.004-.15-.012-.226.01h-.027c-.067.002-.136-.008-.202.012h-.013c-.063.008-.127-.01-.188.014h-.014c-.058.004-.118-.009-.175.014-.053.01-.109-.015-.16.013h-.014a1.593 1.593 0 0 0-.309.027c-.095 0-.19.008-.283.027-.163.001-.324.03-.485.046-.166.017-.332.037-.498.061-.2.028-.402.05-.602.084-.189.032-.378.057-.567.09a25.358 25.358 0 0 0-1.701.332c-.02.004-.04.006-.057-.008-.002-.004-.002-.008-.002-.013" fill="#5baed9"/><path d="M14.93 18.774c0-.04-.016-.042-.05-.032-.229.065-.45.15-.673.226-.256.087-.508.183-.76.279-.346.13-.69.267-1.03.412-.112.047-.224.09-.336.136-.002-.015-.005-.03.006-.042.118-.062.244-.108.367-.16a31.65 31.65 0 0 1 1.01-.401c.25-.096.501-.184.753-.272.028-.03.07-.038.107-.05.183-.064.367-.123.551-.184.022-.007.045-.02.07-.005-.004.03.004.065-.016.093" fill="#5fb3dc"/><path d="M17.927 17.926c.15-.03.3-.063.45-.094.323-.063.645-.13.968-.186a37.51 37.51 0 0 1 2.415-.338c.026-.002.053-.002.077.014-.053.027-.113.017-.168.023-.322.038-.644.072-.965.118l-.54.075c-.25.034-.5.077-.749.123-.32.058-.637.12-.955.185-.179.036-.358.07-.533.12z" fill="#5badd9"/><path d="M17.901 17.711c.141-.008.276-.048.413-.074.336-.066.671-.127 1.01-.182.246-.04.493-.082.741-.118.22-.03.44-.057.66-.083.22-.027.441-.056.661-.079.163-.018.328-.03.491-.04.05-.004.1-.038.15-.002-.059.028-.124.016-.184.024-.2.025-.403.033-.603.058-.242.03-.485.058-.727.09a30.161 30.161 0 0 0-1.99.32c-.182.036-.363.07-.543.11-.022.004-.045.001-.067.002z" fill="#74c7e4"/><path d="M19.042 18.195c-.136.048-.28.067-.418.102-.246.059-.492.12-.737.18 0-.01 0-.017.002-.026.224-.056.448-.112.674-.164.115-.027.228-.06.347-.072.043-.005.084-.037.132-.02" fill="#3175bc"/><path d="M17.75 17.187c.04-.022.081-.011.122-.014-.03.028-.077.013-.108.04l-.014-.026" fill="#bde1e2"/><path d="M11.981 20.424a.134.134 0 0 0 .083-.018 35.836 35.836 0 0 1 1.8-.795c.262-.109.53-.205.794-.309.048-.019.097-.033.145-.05.032-.014.047-.006.043.03-.127.033-.248.086-.37.134-.307.12-.614.24-.918.367-.274.115-.544.236-.814.358-.26.12-.517.243-.776.364.01-.026-.006-.057.013-.08" fill="#3b85c5"/><path d="M15.076 17.831c-.11.014-.216.055-.322.085a33.247 33.247 0 0 0-1.741.548c-.24.082-.479.171-.718.256a.12.12 0 0 0-.053.04 2.65 2.65 0 0 1 .014-.095c.087.01.158-.04.235-.065.205-.068.408-.14.611-.21a32.435 32.435 0 0 1 1.91-.593c.031-.008.065-.02.064.034" fill="#bde1e2"/><path d="M8.089 21.15c-.002-.023.004-.04.029-.052.234-.124.465-.251.699-.374.27-.142.54-.287.817-.417.16-.075.314-.161.476-.23.147-.064.29-.137.437-.201 0 .007 0 .015.002.023-.007.019-.023.023-.04.03-.253.118-.51.227-.756.355-.134.07-.267.144-.404.208-.215.099-.418.218-.628.325-.201.104-.4.21-.594.326-.01.006-.025.005-.038.008" fill="#93d6e8"/><path d="M14.217 18.92c-.09.058-.192.082-.29.114-.247.084-.49.177-.733.272-.294.113-.586.234-.878.354-.076.031-.15.071-.23.092.004-.009.006-.017.008-.025l.389-.157c.206-.083.412-.167.618-.248.199-.078.396-.159.598-.228.172-.059.337-.139.518-.174" fill="#60b3dc"/><path d="M8.209 20.278a.141.141 0 0 1-.108.054.256.256 0 0 1 .108-.054m-.108.053c-.014.027-.04.036-.067.04.014-.026.039-.035.067-.04" fill="#eef3f4"/><path d="M24.915 16.423a.504.504 0 0 1-.241-.002l.24.002m.471.014a.133.133 0 0 1-.12-.002c.04 0 .08 0 .12.002" fill="#fefefe"/><path d="M25.776 16.876a.267.267 0 0 1-.07-.064c.254.008.508.011.762.027.207.014.413.023.62.04.237.018.474.043.71.064.153.014.306.026.46.042.176.02.351.043.528.065.187.023.375.044.562.07.238.034.475.07.712.11.276.045.551.095.827.145.168.03.336.063.504.097.021.004.052.002.055.037-.144-.01-.284-.049-.426-.073-.296-.05-.59-.107-.887-.155a31.967 31.967 0 0 0-.869-.133c-.234-.032-.468-.056-.702-.083s-.467-.059-.702-.078c-.19-.014-.38-.036-.572-.045-.222-.009-.444-.033-.666-.05-.084-.007-.169-.008-.253-.01-.188-.006-.375-.027-.563-.018-.01.001-.02.008-.03.012" fill="#98d8e8"/><path d="M25.87 16.972a.101.101 0 0 1-.04-.042c.048-.022.095-.02.148-.018.09.005.18.014.27.011.066-.002.134.007.2.01.112.006.223.015.335.018.1.002.202.015.303.021.114.008.228.015.34.027.27.03.54.048.81.077.227.024.455.045.682.074.275.034.55.074.825.113.35.05.7.116 1.05.168.203.03.402.079.603.117.028.006.04.013.038.042a76.115 76.115 0 0 0-.466-.086c-.282-.05-.563-.103-.848-.143-.224-.033-.447-.071-.671-.103-.156-.022-.313-.039-.47-.057-.171-.022-.343-.046-.515-.065-.153-.018-.306-.029-.46-.043l-.563-.052c-.064-.006-.13-.007-.193-.012-.18-.017-.361-.019-.541-.031a10.95 10.95 0 0 0-.628-.028c-.07-.001-.14-.027-.21.002" fill="#85cfe8"/><path d="M26.448 17.362h.04c.104-.001.207 0 .31.014h.026c.114-.003.226.007.339.013.14.009.28.014.42.027.189.017.379.029.568.049.182.018.365.037.547.052.279.025.557.062.834.096.2.024.4.056.602.086.152.023.304.05.457.074.177.027.353.062.53.093.019.004.035.009.032.033-.126-.004-.247-.037-.37-.058-.216-.036-.432-.075-.65-.104-.161-.021-.32-.053-.48-.075a19.91 19.91 0 0 0-.476-.058c-.18-.021-.357-.045-.536-.064-.11-.012-.221-.021-.332-.031-.201-.017-.403-.04-.604-.05-.087-.004-.173-.015-.26-.017-.207-.006-.414-.023-.621-.03-.238-.006-.477-.03-.715-.021v-.001c.005-.037.035-.032.06-.035.093-.01.186-.001.279.007" fill="#3f89c8"/><path d="m31.365 18.019-.407-.07c-.258-.043-.516-.088-.775-.13a26.396 26.396 0 0 0-.619-.092c-.165-.022-.33-.037-.497-.057-.19-.021-.379-.045-.569-.065-.07-.007-.142-.01-.213-.015-.022-.002-.045.007-.063-.013-.005-.01-.003-.015.007-.02.128.009.256.023.384.036l.298.03c.14.015.277.034.415.05.134.016.268.035.401.05.094.015.19.026.283.042.088.017.18.025.268.04.2.032.4.066.598.099.15.024.296.06.446.076.025.002.043.01.043.039" fill="#357abf"/><path d="M28.222 17.563v.014c-.178-.004-.355-.021-.532-.038a2.704 2.704 0 0 0-.22-.013c-.132-.003-.263-.014-.394-.02-.28-.011-.562-.026-.843-.023-.036 0-.069-.021-.106-.014 0-.01 0-.017-.002-.026.011-.017.026-.01.041-.008l.44.016c.065.002.133-.004.197.007.123.02.25-.003.371.025.062.008.125.008.188.013h.04c.154.01.31.017.464.033.12.012.24.008.356.034" fill="#347abf"/><path d="M28.222 17.563c-.142-.01-.283-.02-.424-.035-.11-.012-.22-.013-.332-.018a.142.142 0 0 1-.064-.014c.031-.031.063 0 .094 0 .155-.002.307.017.46.028.18.013.358.033.537.05.146.015.292.027.438.044.166.017.331.038.496.058.086.01.172.024.257.034.016.002.032-.001.043.014-.14-.001-.276-.033-.415-.047-.13-.012-.259-.032-.389-.047l-.489-.051c-.07-.007-.14-.011-.212-.016m1.788.202a1.215 1.215 0 0 1-.282-.041c.095 0 .19.014.282.041m.268.04a1.024 1.024 0 0 1-.269-.04c.091.003.182.013.27.04" fill="#357cc0"/><path d="M27.362 17.495a.387.387 0 0 1-.188-.013.414.414 0 0 1 .188.013" fill="#357abf"/><path d="M31.152 17.899c-.054-.047-.125-.038-.187-.051-.168-.034-.338-.061-.507-.088-.26-.04-.52-.08-.78-.116-.189-.027-.377-.06-.567-.075-.137-.011-.272-.044-.41-.038-.057.002-.118-.026-.178-.026-.12 0-.24-.031-.363-.028-.054.002-.11-.01-.162-.017-.088-.014-.176-.011-.263-.02-.09-.01-.182-.033-.274-.02-.024.005-.044-.004-.066-.004-.133-.002-.265-.028-.4-.017-.056.005-.114-.015-.17-.023.05-.03.106-.021.155-.011.1.019.201.014.3.019.22.013.44.033.66.046.216.015.432.043.648.066.218.022.438.04.656.069.243.033.488.067.732.103.31.044.617.1.926.15.147.025.293.055.44.08.018.004.037.002.036.028-.075-.01-.147-.048-.226-.027m-4.704-.537c-.103.02-.208-.013-.311.014a.122.122 0 0 0-.028.014c-.01-.007-.011-.016-.011-.027.002-.012.005-.025.018-.025.11.003.224-.02.332.024m.349.013a.943.943 0 0 1-.309-.014.534.534 0 0 1 .31.014" fill="#3f89c8"/><path d="m25.951 17.078-.015-.023c.002-.018.01-.029.03-.027.215.014.432.014.647.027.24.013.48.026.718.047.142.013.285.02.426.032.173.013.345.033.517.05l.418.042.383.045c.156.02.313.041.468.064a39.673 39.673 0 0 1 1.276.201c.19.034.38.072.57.106.026.005.033.018.03.041a19.037 19.037 0 0 0-.792-.147c-.208-.035-.416-.07-.624-.103-.202-.03-.405-.057-.607-.085a27.168 27.168 0 0 0-.488-.065c-.14-.017-.279-.028-.418-.043-.162-.016-.322-.035-.484-.05-.12-.012-.243-.02-.366-.03-.239-.019-.479-.036-.718-.053a3.995 3.995 0 0 0-.267-.01c-.18-.005-.36-.029-.542-.018-.054.003-.108-.036-.162 0" fill="#6fc2e2"/><path d="M22.24 17.872c.034-.027.073-.008.108-.014-.032.028-.071.008-.107.014m-.108.014c.033-.027.072-.008.107-.014-.032.027-.07.007-.107.014m.591-.067c.033-.027.072-.008.107-.014-.032.028-.07.008-.107.014m-.121.012c.028-.025.063-.008.094-.013-.028.026-.063.008-.094.013m-1.048.135c.028-.025.063-.008.094-.014-.028.027-.063.01-.094.014m.928-.121c.028-.025.062-.008.094-.014-.03.027-.063.009-.094.014m-1.439.202c.024-.024.054-.01.081-.014-.024.025-.054.01-.08.014m1.008-.148c.023-.024.054-.01.08-.013-.023.024-.053.009-.08.013m.967-.108c.023-.024.054-.009.081-.014-.024.025-.054.01-.08.014m-1.076.121c.023-.024.054-.009.081-.014-.024.025-.054.01-.08.014m-.982.148c.023-.024.054-.01.08-.013-.023.025-.053.009-.08.013m.793-.12c.024-.024.054-.01.08-.014-.023.025-.053.009-.08.014m-.107.013c.022-.024.053-.01.08-.013-.024.025-.054.009-.08.013m-.27.041c.024-.024.055-.01.082-.014-.024.025-.054.009-.081.014m-.175.026c.023-.024.054-.01.081-.014-.024.025-.054.01-.081.014m-.081.014c.023-.024.054-.01.081-.014-.024.025-.054.009-.08.014m1.76-.229c.02-.022.044-.01.067-.014-.019.023-.045.011-.067.014m.282-.027c.02-.022.044-.01.067-.013-.019.023-.045.01-.067.013" fill="#295eae"/><path d="m23.426 17.336-.003.025c-.115.021-.231.014-.346.027-.194.02-.39.027-.584.052-.115.013-.231.017-.346.03-.18.018-.361.04-.542.061a43.51 43.51 0 0 0-.49.06 11.03 11.03 0 0 0-.395.056c-.221.034-.443.068-.664.104-.147.024-.293.052-.44.08-.26.048-.52.097-.777.15-.164.033-.325.076-.49.11-.14.027-.277.076-.422.091a.575.575 0 0 0 0-.04c.04-.036.092-.036.139-.048a28.897 28.897 0 0 1 2.392-.46c.248-.037.497-.072.746-.108.174-.024.35-.039.524-.06.143-.017.287-.032.43-.048.119-.013.239-.02.359-.03a9.81 9.81 0 0 1 .418-.035c.088-.006.176-.02.264-.02.043 0 .084 0 .127-.009.03-.007.067-.014.097.01z" fill="#4693ce"/><path d="M23.422 17.334c-.23.017-.462.027-.692.053-.124.012-.249.016-.372.028-.2.02-.398.042-.597.064-.132.014-.265.027-.398.043l-.528.072c-.15.021-.305.035-.455.065-.15.03-.302.046-.453.075-.277.054-.556.1-.833.153-.214.042-.425.091-.638.137-.177.04-.352.08-.528.117-.009-.044.03-.046.054-.05.42-.092.838-.184 1.258-.269.252-.05.506-.095.76-.134.074-.01.148-.034.224-.03.015-.017.037-.007.054-.014.041.006.081-.01.121-.014.015-.017.037-.006.054-.014l.215-.026c.02-.016.047.003.067-.014l.358-.05c.024-.003.048-.003.072-.004.02-.015.048.003.068-.013h.04c.02-.016.047.003.067-.014l.148-.013c.025-.017.056.004.08-.013l.283-.028c.021-.009.045-.007.067-.012h.067c.021-.01.045-.009.067-.014h.068c.021-.01.044-.009.067-.014h.067c.03-.016.064.002.094-.013h.054c.025-.01.054-.006.081-.013h.08c.03-.013.063-.007.094-.014h.067c.031-.009.063-.01.094-.013h.081c.036-.008.072-.018.107 0 .025-.016.054-.014.081-.014.04-.01.081-.007.121-.013h.094c.04-.007.08-.018.12 0z" fill="#4a98d0"/><path d="M23.422 17.322h-.12c.04-.006.08-.048.12 0m-.214 0c-.038.026-.08.007-.12.013.038-.016.078-.03.12-.013m-.201.026H22.9c.035-.006.07-.053.107 0m-.188 0c-.028.026-.063.008-.094.014.03-.014.059-.037.094-.014m-.161.014c-.028.025-.063.008-.094.014.029-.018.059-.032.094-.014m-.31.026c-.028.026-.062.009-.094.014.03-.024.061-.019.094-.014m.135-.013c-.024.024-.054.01-.081.013.025-.014.05-.028.08-.013m-.564.054c-.019.022-.045.01-.067.013.021-.011.04-.034.067-.013m.135-.014c-.02.022-.044.01-.067.014.02-.012.039-.035.067-.014m.134-.013c-.02.022-.044.01-.067.014.02-.012.04-.035.067-.014m-.618.068c-.023.023-.054.008-.081.013.024-.025.054-.01.08-.014m-1.115.148c-.014.02-.035.012-.054.014.012-.03.032-.028.054-.014m-.175.027c-.014.02-.035.012-.054.014.012-.03.032-.028.054-.014m.457-.067c-.019.022-.044.01-.067.014.02-.023.045-.011.067-.014m.605-.082c-.019.022-.044.011-.067.014.02-.023.045-.01.067-.014m-.107.015c-.02.021-.045.01-.067.013.019-.023.044-.01.067-.014" fill="#4a98d0"/><path d="M22.12 17.294c.004-.005.009-.013.014-.013.098-.01.195-.04.295-.013-.102.02-.205.027-.309.026m-.283.028a.452.452 0 0 1 .283-.027 1.35 1.35 0 0 1-.283.027m1.612-.122c0 .02.003.039-.011.056 0-.031-.013-.043-.044-.042-.057.002-.114 0-.172 0a.308.308 0 0 1 .227-.013m-.455.026a.254.254 0 0 1 .202-.014c-.066.03-.135.006-.202.014m-.202.013c.06-.041.124-.028.188-.013-.061.029-.126.007-.188.014m-.189.013a.188.188 0 0 1 .175-.014c-.056.03-.117.006-.175.014m-.161.014c.05-.047.106-.025.161-.014-.052.028-.107.007-.16.014" fill="#5badd9"/><path d="M22.684 17.644c-.034-.02-.074-.014-.106-.011-.09.01-.184.015-.27.03-.133.023-.268.028-.399.05-.086.016-.177.04-.268.027-.033-.005-.062.036-.1.01.051-.042.116-.03.173-.036.254-.03.507-.062.761-.086.257-.023.513-.053.77-.066.033-.001.065-.015.1-.013.028 0 .041.013.036.04-.149.01-.297.02-.445.038-.083.01-.168.012-.252.017m-1.156.107c-.042.036-.1.024-.147.032-.057.01-.114.014-.17.03-.076.017-.156.013-.234.018.073-.046.16-.033.24-.05.094-.02.192-.029.29-.04.005-.002.014.006.021.01" fill="#3275bc"/><path d="M19.392 18.114c-.075.047-.164.045-.246.066-.033.009-.07.01-.104.015.004-.006.007-.015.012-.016.112-.021.22-.068.338-.065" fill="#3175bc"/><path d="M20.964 17.831a.91.91 0 0 1-.242.041.47.47 0 0 1 .242-.04" fill="#3275bc"/><path d="M23.464 17.093c-.001.027.005.056-.013.08h-.002c-.027-.027-.06-.025-.093-.022-.258.024-.516.03-.773.052-.255.024-.511.04-.765.066-.195.02-.391.036-.585.06-.324.04-.646.081-.97.127a23.61 23.61 0 0 0-.905.143c-.443.08-.887.16-1.326.26-.034.006-.07.023-.104.001-.006-.043.008-.06.055-.07a29.557 29.557 0 0 1 2-.36c.315-.049.632-.093.949-.134.18-.023.362-.037.543-.056.21-.02.42-.046.63-.065.146-.014.293-.019.439-.029l.759-.052c.053-.004.107 0 .16 0" fill="#66badf"/><path d="M17.928 17.86c.228-.048.456-.1.685-.142.338-.063.677-.124 1.016-.181.252-.043.504-.081.757-.118.184-.027.37-.047.555-.071.174-.021.347-.045.522-.064.145-.017.291-.03.437-.043l.577-.053c.067-.006.134-.006.201-.012.188-.015.377-.021.566-.03.054-.001.105-.018.16-.014.028.003.05.005.045.04-.162-.001-.322.018-.482.025-.163.007-.324.02-.486.03-.177.012-.355.018-.53.044-.129.02-.26.023-.389.043-.113.018-.229.017-.343.034-.313.049-.629.085-.943.129-.28.039-.558.084-.837.128-.21.033-.42.073-.629.115-.249.049-.497.102-.745.152-.046.009-.088.035-.137.028z" fill="#5fb3dc"/><g fill="#bde1e2"><path d="M20.05 16.837a.148.148 0 0 1 .088-.025c.069-.002.138.001.204-.026.017-.006.03.005.044.011a1.41 1.41 0 0 1-.336.04m-.417.053a.105.105 0 0 1 .066-.024c.081-.007.162-.01.243-.015-.1.029-.205.033-.309.04m-.201.027c.06-.03.124-.027.188-.027a.57.57 0 0 1-.188.027m-.458.068c.054-.037.116-.021.175-.027-.055.028-.115.027-.175.027"/><path d="M18.8 17.012c.054-.037.116-.021.175-.026a.372.372 0 0 1-.175.026m2.567-.309c.044-.014.087-.035.134-.014-.04.035-.089.013-.134.014m-3.494.47c.043-.045.098-.02.148-.026a.314.314 0 0 1-.148.026"/><path d="M18.02 17.147c.042-.045.098-.021.148-.027a.328.328 0 0 1-.148.027m.148-.027c.042-.045.098-.021.147-.026a.32.32 0 0 1-.147.026m1.076-.175a.545.545 0 0 1 .188-.026.464.464 0 0 1-.188.026m1.532-.188c.042-.027.088-.02.134-.014-.042.035-.09.013-.134.014m.134-.013c.043-.021.087-.031.134-.014-.042.028-.089.008-.134.014m.148-.014c.039-.016.078-.034.121-.014-.037.037-.081.006-.121.014m-.416.04c.042-.027.088-.02.134-.013-.042.028-.09.007-.134.013m.564-.054c.043-.022.088-.018.134-.013-.042.028-.09.007-.134.013m-.806.081c.033-.018.067-.035.106-.014-.032.028-.07.008-.107.014m.121-.013c.038-.026.081-.008.121-.014-.038.028-.08.008-.12.014m-.579.066c.033-.026.072-.007.107-.013-.032.028-.07.008-.107.014m-.792.107c.027-.025.062-.008.093-.014-.028.027-.063.01-.094.014m-.429.068c.022-.024.053-.01.08-.014-.024.025-.054.009-.08.014m-.404.067c.024-.024.054-.01.08-.014-.023.025-.053.01-.08.014m.081-.013c.023-.025.054-.01.08-.015-.023.025-.053.01-.08.014m.08-.013c.023-.024.054-.01.081-.014-.024.025-.054.01-.08.014m.08-.014c.023-.024.054-.009.081-.013-.024.025-.054.01-.081.013m.081-.012c.023-.025.054-.01.08-.015-.023.025-.053.01-.08.014"/></g></g></svg>