<svg width="36" height="36" fill="none" xmlns="http://www.w3.org/2000/svg"><path d="M18 0c2.837 0 5.52.656 7.907 1.825C31.884 4.753 36 10.895 36 18c0 9.942-8.058 18-18 18-9.94 0-18-8.057-18-18C0 8.06 8.06 0 18 0z" fill="#F2F4F7"/><path d="M18 22.005a4 4 0 0 1-3.328-1.781L13.2 18l1.473-2.22A3.992 3.992 0 0 1 18 14.002c1.387 0 2.611.706 3.328 1.779L22.8 18l-1.473 2.223A3.998 3.998 0 0 1 18 22.005zM18 8a9.996 9.996 0 0 0-8.4 4.564l-2-3.022L4 14.979l2 3.022-2 3.025 3.6 5.438 2-3.023a9.999 9.999 0 0 0 8.4 4.567 9.995 9.995 0 0 0 8.398-4.567l2.001 3.023L32 21.026l-2-3.025 2-3.022-3.6-5.437-2.002 3.022A9.992 9.992 0 0 0 18 8" fill="#E60012"/></svg>