<svg width="36" height="36" fill="none" xmlns="http://www.w3.org/2000/svg"><path d="M18 0c2.837 0 5.52.656 7.907 1.825C31.884 4.753 36 10.895 36 18c0 9.942-8.058 18-18 18-9.94 0-18-8.057-18-18C0 8.06 8.06 0 18 0z" fill="#F2F4F7"/><path d="M5.76 16.302a1.031 1.031 0 1 0-1.458 1.458 1.031 1.031 0 0 0 1.458-1.458zm-.46.999a.38.38 0 1 1-.538-.539.38.38 0 0 1 .538.539z" fill="#006EBC"/><path d="M7.969 16.311a1.031 1.031 0 1 0-1.245 1.621.602.602 0 0 1-1.13.052 1.112 1.112 0 0 1-1.006.062l1.552 1.552 1.83-1.828a1.031 1.031 0 0 0 0-1.459zm-.46.998a.38.38 0 1 1-.539-.538.38.38 0 0 1 .539.538zm2.814-1.135c.923 0 1.465.716 1.465 1.637 0 .895-.543 1.611-1.465 1.611s-1.464-.716-1.464-1.611c0-.92.542-1.637 1.464-1.637zm0 2.675c.589 0 .81-.521.81-1.038 0-.543-.221-1.064-.81-1.064-.588 0-.809.521-.809 1.064 0 .517.221 1.038.81 1.038zm2.117-.53c0 .413.31.573.66.573.23 0 .58-.07.58-.386 0-.335-.446-.391-.885-.513-.442-.121-.888-.3-.888-.881 0-.634.575-.938 1.114-.938.621 0 1.193.282 1.193.998h-.634c-.02-.373-.275-.469-.588-.469-.21 0-.451.092-.451.352 0 .24.142.27.889.47.217.056.884.199.884.903 0 .568-.43.994-1.239.994-.66 0-1.277-.339-1.269-1.103h.635zm2.89-2.071h.672l1.114 3.1h-.68l-.225-.69h-1.115l-.233.69h-.664l1.131-3.1zm-.063 1.902h.772l-.375-1.138h-.008l-.389 1.138zm2.004-1.902h.655v1.285l1.165-1.285h.817l-1.164 1.224 1.277 1.876H19.2l-.897-1.394-.375.395v.999h-.656v-3.1" fill="#006EBC"/><path d="M21.062 16.248h.672l1.114 3.1h-.68l-.226-.69h-1.114l-.234.69h-.663l1.13-3.1zm-.063 1.902h.772l-.376-1.138h-.008L21 18.15zm5.188.847a.995.995 0 0 1-.818.425c-.922 0-1.464-.716-1.464-1.611 0-.92.542-1.637 1.464-1.637.61 0 1.185.39 1.256 1.094H26c-.075-.343-.32-.52-.63-.52-.588 0-.81.52-.81 1.063 0 .517.222 1.038.81 1.038.426 0 .672-.239.71-.669h-.66v-.508h1.252v1.677h-.417l-.067-.352m1.696-2.749h.672l1.114 3.1h-.68l-.225-.69h-1.114l-.234.69h-.664l1.131-3.1zm-.062 1.902h.772l-.376-1.138h-.008l-.388 1.138zm2.304.169c0 .413.31.573.66.573.23 0 .58-.07.58-.386 0-.335-.447-.391-.885-.513-.442-.121-.889-.3-.889-.881 0-.634.576-.938 1.114-.938.622 0 1.194.282 1.194.998h-.634c-.021-.373-.276-.469-.589-.469-.209 0-.45.092-.45.352 0 .24.142.27.888.47.217.056.885.199.885.903 0 .568-.43.994-1.24.994-.659 0-1.277-.339-1.268-1.103h.634z" fill="#006EBC"/></svg>