<svg width="36" height="36" fill="none" xmlns="http://www.w3.org/2000/svg"><path d="M18 0c2.837 0 5.52.656 7.907 1.825C31.884 4.753 36 10.895 36 18c0 9.942-8.058 18-18 18-9.94 0-18-8.057-18-18C0 8.06 8.06 0 18 0z" fill="#F2F4F7"/><path d="M9.385 14.007a1.942 1.942 0 0 0-1.101-.107 1.7 1.7 0 0 0-.355.107 2.016 2.016 0 0 0-.616.415 1.935 1.935 0 0 0-.522.976 1.946 1.946 0 0 0 0 .746 1.831 1.831 0 0 0 .284.682c.07.102.15.2.238.289.089.088.187.168.29.238a1.835 1.835 0 0 0 .681.285 1.95 1.95 0 0 0 .747 0c.126-.024.242-.061.354-.108a2.007 2.007 0 0 0 .616-.415c.089-.089.168-.187.238-.29a1.834 1.834 0 0 0 .285-.681 1.95 1.95 0 0 0 0-.746 1.834 1.834 0 0 0-.285-.682c-.07-.102-.149-.2-.238-.29a2.007 2.007 0 0 0-.289-.237 1.496 1.496 0 0 0-.327-.182zm10.715.583h2.011v-.64h-2.655v3.706h.644v-1.568h2.011v-.644H20.1v-.854zm9.193 3.061h.742l-.816-1.316-.024-.037-.018-.032.037-.01.042-.014a1.26 1.26 0 0 0 .135-.051 1.146 1.146 0 0 0 .682-.845c.014-.075.023-.15.023-.229a1.226 1.226 0 0 0-.089-.448 1.035 1.035 0 0 0-.107-.2 1.085 1.085 0 0 0-.322-.322 1.188 1.188 0 0 0-.42-.173 1.226 1.226 0 0 0-.229-.023h-1.89v3.705h.64V14.59h1.246c.037 0 .07.005.102.01.033.004.066.018.098.027a.824.824 0 0 1 .094.047.534.534 0 0 1 .196.238.484.484 0 0 1 .032.303c-.004.033-.018.066-.028.098a.54.54 0 0 1-.387.317.758.758 0 0 1-.103.01h-.882l1.246 2.011zm-15.717 0h.835v-3.705h-.639v2.828l-1.764-2.828h-.835v3.705h.639v-2.828l1.764 2.828zm-7.01 0v-.643H4.645v-3.066H4v3.705h2.567v.005zM16.95 15.45v.64h1.199l-.014.037-.014.046a.825.825 0 0 1-.056.136.665.665 0 0 1-.07.125.665.665 0 0 1-.084.117.699.699 0 0 1-.098.107l-.018.02a.961.961 0 0 1-.173.134 1.232 1.232 0 0 1-.705.21c-.084 0-.168-.009-.247-.023a1.232 1.232 0 0 1-.649-.345 1.298 1.298 0 0 1-.275-.41 1 1 0 0 1-.07-.239 1.433 1.433 0 0 1-.023-.247 1.278 1.278 0 0 1 .093-.485l.01-.02c.032-.07.065-.135.107-.2a1.283 1.283 0 0 1 .35-.35.96.96 0 0 1 .2-.107l.019-.01a1.04 1.04 0 0 1 .238-.07 1.276 1.276 0 0 1 1.064.28l.56-.354-.01-.01-.023-.023a2.01 2.01 0 0 0-.289-.238 2.046 2.046 0 0 0-.331-.177 1.942 1.942 0 0 0-1.101-.107 1.828 1.828 0 0 0-.682.284c-.103.07-.2.15-.29.238a2.01 2.01 0 0 0-.415.616 1.95 1.95 0 0 0-.107 1.101c.023.127.06.243.107.355a2.004 2.004 0 0 0 .415.616 2.004 2.004 0 0 0 .617.416 1.951 1.951 0 0 0 .728.145 1.894 1.894 0 0 0 1.348-.56 1.9 1.9 0 0 0 .555-1.241c.01-.141 0-.286-.023-.43H16.95v.023zm8.33-1.442a1.941 1.941 0 0 0-1.101-.107 1.889 1.889 0 0 0-.975.523 1.935 1.935 0 0 0-.523.975 1.98 1.98 0 0 0-.038.373 1.98 1.98 0 0 0 .145.728c.047.117.107.224.177.327.07.102.15.2.238.289.089.088.187.168.29.238a1.836 1.836 0 0 0 .681.285 1.892 1.892 0 0 0 1.722-.523c.089-.089.168-.187.238-.29a1.834 1.834 0 0 0 .285-.681 1.95 1.95 0 0 0 0-.746 1.742 1.742 0 0 0-.108-.355 2.014 2.014 0 0 0-.415-.616 2.014 2.014 0 0 0-.29-.238 1.497 1.497 0 0 0-.326-.182zm-.247.593c.074.032.149.07.219.116a1.298 1.298 0 0 1 .467.57c.032.074.056.154.07.238.014.079.023.163.023.247a1.278 1.278 0 0 1-.21.705c-.047.07-.098.135-.159.19a1.23 1.23 0 0 1-.896.37c-.084 0-.168-.01-.247-.024a1.232 1.232 0 0 1-.649-.345 1.235 1.235 0 0 1-.266-.392l-.009-.019a1 1 0 0 1-.07-.238 1.433 1.433 0 0 1-.023-.247 1.278 1.278 0 0 1 .093-.485l.01-.02a1.193 1.193 0 0 1 .265-.391 1.236 1.236 0 0 1 .392-.266l.019-.01a1.04 1.04 0 0 1 .238-.07c.08-.014.163-.023.247-.023a1.28 1.28 0 0 1 .485.093zm-15.876.009a1.189 1.189 0 0 1 .392.266 1.235 1.235 0 0 1 .368.896 1.278 1.278 0 0 1-.21.705c-.046.07-.098.135-.158.19l-.005.006a1.232 1.232 0 0 1-.891.364c-.084 0-.168-.01-.248-.024-.079-.014-.158-.042-.238-.07a1.232 1.232 0 0 1-.41-.275 1.235 1.235 0 0 1-.266-.392l-.01-.019a1.002 1.002 0 0 1-.07-.238 1.433 1.433 0 0 1-.023-.247 1.278 1.278 0 0 1 .21-.705c.047-.07.098-.135.159-.191a1.19 1.19 0 0 1 .392-.266l.018-.01a1 1 0 0 1 .238-.07c.08-.014.164-.023.248-.023a1.28 1.28 0 0 1 .485.093l.019.01z" fill="#003893"/><path d="M31.403 12H29.83v.597h1.573v1.573H32V12h-.597z" fill="#00B1B2"/><path d="M13.977 22.416a.55.55 0 0 1-.144-.014.092.092 0 0 1-.066-.065.778.778 0 0 1-.014-.168v-.02c.523-.428 1.036-.946 1.34-1.525h-.635c-.205.322-.5.649-.705.812l.005-1.246H15.2v-.513h-2.343c.033-.336.052-.616.066-.952h-.579c-.01.336-.019.62-.056.952h-1.25v.513h1.185c-.145.915-.486 1.862-1.265 2.361l.392.43c.952-.672 1.283-1.694 1.437-2.791h.406l-.004 1.717a4.666 4.666 0 0 1-.924.532l.35.444a7.83 7.83 0 0 0 .611-.341c.037.191.14.303.327.35.093.023.205.033.345.033h1.288v-.51h-1.209z" fill="#003893"/><path d="m14.304 19.714.397-.318a5.694 5.694 0 0 0-.784-.686l-.369.294c.247.201.527.472.756.71zm6.72 2.338h-.453v-.859h.453v.86zm.476-1.33h-.439v-.588h.528v-.5h-.528v-.811h-.499v.812h-.597v.5h.597v.587H20.1v1.797h1.4v-1.797z" fill="#003893"/><path d="M22.21 19.313h.438v.606h-.439v-.607zm0 1.707v-.616h.438v.616h-.439zm.438 1.023v.378a.082.082 0 0 1-.08.079h-.237v.42h.397c.228 0 .41-.187.41-.41v-3.684h-1.409v2.058c0 .598.014 1.507-.294 1.909l.438.229c.257-.407.304-.92.327-1.512h.448v.532zm-3.271.952c.2-.42.471-1.074.583-1.56l-.49-.181a9.4 9.4 0 0 1-.593 1.465l.5.276zm.541-2.618a3.085 3.085 0 0 0-.733-.416l-.289.416c.215.102.537.27.714.443l.308-.443zm.172-1.242a3.05 3.05 0 0 0-.727-.42l-.28.402c.219.107.522.289.695.462l.313-.444z" fill="#003893"/></svg>