<svg width="36" height="36" fill="none" xmlns="http://www.w3.org/2000/svg"><path d="M18 0c2.837 0 5.52.656 7.907 1.825C31.884 4.753 36 10.895 36 18c0 9.942-8.058 18-18 18-9.94 0-18-8.057-18-18C0 8.06 8.06 0 18 0z" fill="#F2F4F7"/><path d="M24.54 18.026h-.923v.487h.922v-.487zm-3.366 0h-.922v.487h.922v-.487z" fill="#E60012"/><path d="M9.243 17.009H7.765c-.46 0-.609.122-.609.608v1.357c0 .487.148.609.61.609h.469v.356h.539v-.356h.47c.46 0 .608-.122.608-.609v-1.357c0-.486-.148-.608-.609-.608zm.035 2.095h-.504v-.278h-.54v.278H7.73v-1.652h1.548v1.652zm2.957 0h-1.357V17.01h-.574v1.965c0 .487.148.609.609.609H12.2c.46 0 .609-.122.609-.609V17.01h-.574v2.095zm2.025-2.095-1.303 2.574h.539l.27-.566h1.451l.279.566h.6l-1.322-2.574h-.513zm-.269 1.548.513-1.053.496 1.053h-1.009zm4.183.052c.374 0 .556-.14.556-.505v-.608c0-.357-.174-.496-.556-.496h-1.835v2.574h.565v-.965h.383l.887.974h.774l-.983-.974h.209zm-1.27-.435v-.722h1.009c.174 0 .252.035.252.209v.304c0 .174-.078.209-.252.209h-1.009zm6.244-.722h1.609v-.443h-2.183v2.574h2.2v-.479h-1.626v-1.652zm3.956.913c0 .079.009.226.026.444a884.72 884.72 0 0 0-1.539-1.8H25.2v2.574h.513V18.19c0-.078-.009-.208-.026-.408.07.078 1.539 1.8 1.539 1.8h.391v-2.574h-.513v1.356zm1.556-1.356h-.573v2.574h.574v-2.574zm2.088 1.182 1.017-1.182h-.626l-.713.878-.74-.878h-.72l1.12 1.252-1.103 1.322h.643l.783-1 .86 1H32l-1.252-1.392zm-10.965-.739h1.608v-.443H19.21v2.574h2.208v-.479h-1.634v-1.652zM4 19.104c0 .383.191.487.609.487h1.53c.461 0 .609-.121.609-.608v-.357c0-.487-.157-.609-.609-.609H4.61v-.565h1.608v.235h.505v-.113c0-.444-.174-.565-.609-.565H4.722c-.461 0-.609.122-.609.608v.287c0 .487.148.61.609.61h1.53v.59H4z" fill="#231815"/></svg>