<svg width="36" height="36" fill="none" xmlns="http://www.w3.org/2000/svg"><path d="M18 0c2.837 0 5.52.656 7.907 1.825C31.884 4.753 36 10.895 36 18c0 9.942-8.058 18-18 18-9.94 0-18-8.057-18-18C0 8.06 8.06 0 18 0z" fill="#F2F4F7"/><path d="M22.894 16.016c-.84 0-1.59.363-2.077.93a2.594 2.594 0 0 0-.512-.515c-.403-.301-.925-.393-1.484-.408-.946-.025-1.702.486-2.05 1.06-.294-.587-.558-.894-1.582-.945h-2.48v1.034s.118.038.158.082a.406.406 0 0 1 .055.137l-.006 2.302s-.064-.048-.09-.078c-.048-.056-.117-.188-.117-.188l-1.27-3.29-1.612.001-1.4 3.661v-.783H7.418c-.08.219-.303.366-.571.366a.822.822 0 0 1-.416-.107.91.91 0 0 1-.378-.413 1.885 1.885 0 0 1-.143-.62c.023-.402.145-.546.369-.711a.583.583 0 0 1 .228-.067c.088 0 .16.053.2.132.058.114-.026.252-.11.35l.815.562 1.258-1.317a2.538 2.538 0 0 0-2.158-1.168C5.125 16.023 4 17.097 4 18.422c0 1.324 1.09 2.326 2.513 2.434l.18.007H8.61v-.001h4.46l1.677-.003v-.003h.262v-.985s-.14-.029-.198-.068a.163.163 0 0 1-.067-.107.085.085 0 0 1 .018-.06.114.114 0 0 1 .054-.03c.173-.036.35-.086.527-.15a3.32 3.32 0 0 0 1.15-.677c.188 1.114 1.167 1.927 2.35 2.062.078.01.145.016.217.018h1.73l-.005-.824c.435.483 1.283.946 2.14.946.699 0 1.326-.306 1.768-.685l-.003.57h2.113l.01-.872.552.008v-.01l.74.007v.864h2.253v-1.145s-.096-.006-.134-.033a.496.496 0 0 1-.103-.155l-.317-2.104s.01-.14.05-.193c.034-.043.144-.08.144-.08V16.14h-2.246v.028l-.16.533-.227-.536v-.026h-.01l-.007-.014v.015h-2.169v1.065l-.148-.201c-.406-.593-1.12-.987-1.933-.987l-.1.002a3.04 3.04 0 0 0-.104-.002zM8.398 20.008v.01h-.01l.01-.01z" fill="#0C4DA2"/><path d="M6.511 16.474c-1.144.007-2.078.84-2.078 1.93 0 1.091 1.031 2.028 2.28 2l1.214.003v-.955h-.23c-.072.18-.408.356-.652.356-.128 0-.452-.017-.571-.06a1.29 1.29 0 0 1-.775-.62c-.07-.155-.268-.53-.224-1.08.021-.33.231-.744.609-.93.164-.082.33-.096.62-.07a.61.61 0 0 1 .489.342.446.446 0 0 1-.026.397.024.024 0 0 0-.004.02c0 .004.007.012.007.012l.115.09s.032.023.07.022c.023 0 .063-.025.063-.025l.655-.688c-.405-.547-1.126-.744-1.562-.744zm16.394-.019c-1.214 0-2.197.913-2.197 2.038 0 1.126.983 2.039 2.197 2.039 1.213 0 2.196-.913 2.196-2.039 0-1.125-.983-2.038-2.196-2.038zm.014.634c.624 0 .959.447 1.095.98.038.152.023.659 0 .828-.07.515-.492 1.016-1.102 1-.595-.014-.993-.291-1.116-1.036a2.496 2.496 0 0 1-.008-.699c.085-.635.506-1.073 1.13-1.073zm-12.791-.507s-.964 2.61-1.137 3.085c-.173.476-.367.461-.367.461l.014.288h1.166v-.277s-.074-.003-.13-.054c-.105-.098-.038-.294-.038-.294l.27-.69 1.196.003s.234.583.291.775c.075.25-.158.255-.158.255v.282l1.474-.001-.001-.278s-.088-.014-.181-.095c-.106-.093-.178-.283-.178-.283l-1.207-3.174-1.014-.003zm.346.802.4 1.113-.774.004.374-1.117zm2.706-.806-.005.32s.093.027.183.126c.047.053.018.723.018.723l-.002 2.143s.031.084-.072.17c-.038.031-.072.065-.132.07l-.007.286 1.366.003.003-.29s-.048-.02-.124-.088a.202.202 0 0 1-.068-.15c0-.193.005-.379.004-.568.479-.115.892-.31 1.053-.37.606-.241 1.075-.625 1.048-1.31-.006-.484-.251-.881-.778-.971-.24-.07-.35-.082-.445-.087l-2.042-.007zm1.563.543c.147-.002.32.031.454.099.167.11.268.225.268.467a.557.557 0 0 1-.08.311c-.057.096-.23.278-.339.383-.319.228-.433.295-.686.411l-.004-1.624c.135-.025.256-.046.387-.047zm4.213-.644c-1.145.007-2.079.84-2.079 1.93 0 1.09 1.032 2.027 2.28 2l1.214.003v-.956h-.23c-.071.18-.408.357-.651.357-.129 0-.452-.018-.572-.06a1.29 1.29 0 0 1-.775-.62c-.07-.155-.268-.531-.224-1.08.022-.331.232-.744.609-.931.164-.082.33-.095.62-.069a.611.611 0 0 1 .489.342.445.445 0 0 1-.026.397.024.024 0 0 0-.004.019c0 .005.007.013.007.013l.115.09s.033.022.071.021c.022 0 .062-.024.062-.024l.656-.689c-.406-.547-1.126-.743-1.562-.743zm6.694.108.002.275s.12.033.167.07c.055.044.041.12.041.12l-.445 2.76c-.01.054-.025.18-.1.251-.077.07-.164.084-.164.084l-.001.271h1.22v-.253s-.099-.008-.165-.074-.047-.248-.047-.248l.3-2.047.612 1.761.744.01.605-1.897.337 2.183s.04.164-.047.248a.308.308 0 0 1-.165.074v.253h1.414l-.001-.27s-.032.01-.112-.054c-.048-.038-.07-.207-.08-.261-.01-.05-.391-2.777-.391-2.777s-.007-.113.055-.17a.598.598 0 0 1 .136-.081l-.003-.225-1.468-.001-.537 1.547-.513-1.547-1.394-.002z" fill="#FFCB08"/><path d="M31.297 16a.703.703 0 1 0 0 1.406.703.703 0 0 0 0-1.406zm0 .095a.609.609 0 1 1 0 1.217.609.609 0 0 1 0-1.218z" fill="#0C4DA2"/><path d="M30.935 16.279v.832h.175v-.288h.233l.194.292.197-.002-.236-.31a.27.27 0 0 0 .165-.25.266.266 0 0 0-.255-.27v-.004h-.473zm.175.168.293.001c.059.01.098.016.097.106-.002.095-.076.108-.098.109l-.292.003v-.22z" fill="#0C4DA2"/></svg>