<svg width="36" height="36" fill="none" xmlns="http://www.w3.org/2000/svg"><path d="M18 0c2.837 0 5.52.656 7.907 1.825C31.884 4.753 36 10.895 36 18c0 9.942-8.058 18-18 18-9.94 0-18-8.057-18-18C0 8.06 8.06 0 18 0z" fill="#F2F4F7"/><path d="M9.175 15.629h4.347v-1.377H9.175v1.377zm4.347 5.191H9.176v-4.174h4.346v1.378h-2.921v1.42h2.921m-4.673-.266c0 .907-.736 1.643-1.643 1.643H4.133v-1.376H6.96a.466.466 0 0 0 .466-.466v-.452a.467.467 0 0 0-.466-.464l-1.317-.055c-.906 0-1.642-.54-1.642-1.447v-.649c0-.907.736-1.66 1.642-1.66h2.96v1.377H5.825c-.221 0-.4.18-.4.402v.242a.4.4 0 0 0 .4.401l1.456.068c1.241-.014 1.568.968 1.568 1.658v.778zm13.885.417a2.059 2.059 0 1 0 .002-4.113 2.059 2.059 0 0 0-.002 4.113zm-3.536-2.058a3.538 3.538 0 1 1 7.074.002 3.538 3.538 0 0 1-7.074-.002z" fill="#01519B"/><path d="M19.951 20.051a3.8 3.8 0 0 1-2.625 1.022 3.535 3.535 0 0 1-3.535-3.536A3.535 3.535 0 0 1 17.326 14c1.032 0 1.953.392 2.624 1.025-.33.364-.586.783-.752 1.254-.435-.433-1.136-.8-1.872-.8a2.057 2.057 0 0 0 0 4.116c.733 0 1.436-.365 1.872-.798.163.464.43.896.753 1.254z" fill="#00AAAD"/><path d="m30.254 14.252-1.645 3.288-1.555-3.288h-1.66l3.215 6.507 1.88-3.698.001 3.76H32v-6.569" fill="#01519B"/></svg>