<svg height="36" viewBox="0 0 36 36" width="36" xmlns="http://www.w3.org/2000/svg"><g fill="none" fill-rule="evenodd"><path d="M18 0c2.837 0 5.52.656 7.907 1.825C31.884 4.753 36 10.895 36 18c0 9.942-8.058 18-18 18-9.94 0-18-8.057-18-18C0 8.06 8.06 0 18 0z" fill="#f2f4f7" fill-rule="nonzero"/><path d="M4 23.427h28V13H4z" fill="#f90"/><path d="M13.918 19.003v-.2h.193v-1.727h-.193v-.193h.863v1.92h.197v.2zm10.196-.254h-.01a.625.625 0 0 1-.542.292c-.347 0-.562-.295-.562-.647 0-.426.301-.696.784-.696.197 0 .301.045.301.045v-.134c0-.256-.159-.393-.39-.393-.32 0-.486.247-.486.247l-.117-.142c.212-.33.54-.479.844-.479.514 0 .82.304.82.767v1.194h.215v.2h-.857zm-.029-.797c-.019-.019-.06-.044-.146-.044-.2 0-.244.197-.244.4 0 .2.06.362.231.362a.204.204 0 0 0 .16-.064zm1.791.851h.26v.2h-.93v-2.71h-.232v-.194h.902zm-12.384-1.727v1.568c0 .108.07.133.137.133.063 0 .123-.02.123-.02v.192s-.126.08-.409.08c-.33 0-.524-.163-.524-.505v-1.448h-.225v-.142c.251-.2.543-.429.775-.622h.123v.571h.26v.193zm.55-.755c0 .187.168.311.41.311s.408-.124.408-.31-.168-.312-.409-.312-.409.124-.409.311zM11.67 17.55c0-.19-.06-.339-.225-.339s-.232.15-.232.34v1.253h.194v.2h-1.06v-.2h.196v-1.727h-.196v-.193h.835v.324h.01a.603.603 0 0 1 .558-.365c.311 0 .501.19.562.441.022.098.028.26.028.343v1.177h.254v.2h-.924zm-3.634.394c0 .641.393 1.162 1.066 1.162s1.067-.52 1.067-1.162-.394-1.162-1.067-1.162-1.066.521-1.066 1.162zm.787-.006c0-.648.06-.934.28-.934s.278.286.278.934c0 .647-.06.932-.279.932s-.279-.285-.279-.932zm9.345-.108c0-.559.045-.768.235-.768.194 0 .232.203.238.768zm.972.61a.589.589 0 0 1-.467.196c-.194 0-.492-.108-.505-.6h1.133c.004-.038.007-.115.007-.153 0-.596-.244-1.04-.883-1.04-.64 0-.968.492-.968 1.104 0 .613.327 1.095.968 1.095.413 0 .673-.193.826-.498zm-9.765-2.66s.511.511.746.775v.2c-.219-.232-.673-.426-1.095-.426-.955 0-1.555.721-1.555 1.613 0 .888.568 1.61 1.555 1.61.492 0 .886-.233 1.105-.47v.19c-.299.41-.844.676-1.524.676-1.216 0-2.054-.883-2.054-2.006 0-1.124.93-2.003 2.054-2.003.286 0 .543.047.77.127v-.286zm13.231 1.295v1.568c0 .108.07.133.136.133.064 0 .124-.02.124-.02v.192s-.127.08-.409.08c-.33 0-.524-.163-.524-.505v-1.448h-.225v-.142c.251-.2.543-.429.774-.622h.124v.571h.324v.193zm-6.13.473c0-.19-.06-.339-.225-.339s-.232.15-.232.34v1.253h.194v.2h-1.06v-.2h.197v-1.727h-.197v-.193h.834v.324h.01a.602.602 0 0 1 .56-.366.55.55 0 0 1 .561.442c.022.098.028.26.028.343v1.177h.254v.2h-.924zm4.308 0c0-.19-.06-.339-.225-.339-.166 0-.232.15-.232.34v1.253h.194v.2h-1.06v-.2h.196v-1.727h-.197v-.193h.835v.324h.01a.601.601 0 0 1 .558-.366c.311 0 .502.191.562.442.022.098.03.26.03.343v1.177h.253v.2h-.924zm5.59 1.454h3.101V18.9h-3.1zm1.55-.59.291-.28.12.121-.313.267c-.026.031-.045.082-.06.114h-.232c.012-.086.133-.194.193-.222zm-.976-1.784-.24.066s-.109.042-.156.074c-.048.031-.102.085-.105.114l.206.047c.032-.035.067-.073.098-.098l.048-.022.172-.175s-.007-.009-.023-.006zm1.404.568a3.544 3.544 0 0 1-.353-.444c.07-.134.121-.486.09-.623a1.44 1.44 0 0 0-.147-.215c-.028-.029-.12-.134-.165-.134a.038.038 0 0 0-.022.007l.013.117a7.886 7.886 0 0 0-.432.295c0 .041.003.105.006.127a.243.243 0 0 0 .076.045c.058-.01.235-.055.283-.048l-.175.263-.2.144-.25-.08c-.016-.003-.032 0-.042.013l-.184.2a.054.054 0 0 0-.015.041l-.007.225s-.003.035-.003.073c0 .162.072.238.072.238l.122-.174a.565.565 0 0 1-.052-.127l.004-.194.117-.086.311.22s.086.158.168.254c.055.066.324.247.455.323.012.07.041.184.063.244l.381.391-.226.282c-.079.052-.155.144-.149.23h.261l.028-.15.311-.346c.016-.019.016-.029.007-.057l-.089-.298a.541.541 0 0 0 .14-.33c0-.277-.302-.347-.397-.426zm.488.46a1.06 1.06 0 0 0-.069-.196s.012-.013.038.002l.187.127c.083.121.133.616.136.794a1.006 1.006 0 0 1-.254-.162z" fill="#000"/></g></svg>