<svg width="36" height="36" viewBox="0 0 36 36" xmlns="http://www.w3.org/2000/svg"><g fill="none"><path d="M18 0c2.837 0 5.52.656 7.907 1.825C31.884 4.753 36 10.895 36 18c0 9.942-8.058 18-18 18-9.94 0-18-8.057-18-18C0 8.06 8.06 0 18 0z" fill="#F2F4F7"/><path d="M24.293 18.729c.033 3.625 3.18 4.832 3.215 4.847-.026.085-.502 1.72-1.658 3.408-.998 1.46-2.035 2.913-3.667 2.944-1.605.03-2.12-.952-3.954-.952s-2.407.921-3.926.981c-1.576.06-2.776-1.578-3.783-3.032-2.057-2.975-3.63-8.406-1.518-12.072 1.049-1.82 2.923-2.973 4.957-3.002 1.548-.03 3.009 1.04 3.955 1.04.945 0 2.72-1.287 4.586-1.098.781.033 2.974.316 4.382 2.377-.113.07-2.616 1.527-2.59 4.559m-3.014-8.904c.836-1.012 1.4-2.422 1.246-3.825-1.206.048-2.664.804-3.53 1.816-.775.896-1.454 2.33-1.27 3.706 1.344.104 2.717-.683 3.554-1.697" fill="#000"/></g></svg>