<svg height="36" viewBox="0 0 36 36" width="36" xmlns="http://www.w3.org/2000/svg"><g fill="none" fill-rule="evenodd"><path d="M18 0c2.837 0 5.52.656 7.907 1.825C31.884 4.753 36 10.895 36 18c0 9.942-8.058 18-18 18-9.94 0-18-8.057-18-18C0 8.06 8.06 0 18 0z" fill="#f2f4f7" fill-rule="nonzero"/><path d="M12.775 18.185 10.925 13H9.532v5.185zM9.53 21.448h1.717l.778 2.268h2.69l-1.847-5.185H9.53zM9.185 13H7.79l-1.849 5.185h3.244zm-3.338 5.53L4 23.717h2.69l.778-2.268h1.717V18.53zm18.601-.345h3.244V13h-3.244zm6.94 0c-.325-.454-.78-.81-1.268-1.07.585-.42.976-1.101.976-1.846A2.259 2.259 0 0 0 28.819 13h-.781v5.185zm-6.94 5.531h3.244v-5.185h-3.244zm3.59 0h.65C30.635 23.619 32 22.094 32 20.277c0-.616-.13-1.233-.422-1.72h-3.54zM15.7 18.186h3.244V13H15.7zm6.913 0c-.325-.455-.78-.811-1.268-1.07.585-.422.976-1.102.976-1.847A2.259 2.259 0 0 0 20.044 13h-.78v5.185zm-6.913 5.53h3.244v-5.185H15.7zm3.563 0h.65c1.948-.097 3.312-1.622 3.312-3.439 0-.616-.13-1.233-.422-1.72h-3.54z" fill="#ff000f"/></g></svg>