<svg height="36" viewBox="0 0 36 36" width="36" xmlns="http://www.w3.org/2000/svg"><mask id="a" fill="#fff"><path d="M0 0h28v2.845H0z" fill-rule="evenodd"/></mask><g fill="none" fill-rule="evenodd"><path d="M18 0c2.837 0 5.52.656 7.907 1.825C31.884 4.753 36 10.895 36 18c0 9.942-8.058 18-18 18-9.94 0-18-8.057-18-18C0 8.06 8.06 0 18 0z" fill="#f2f4f7" fill-rule="nonzero"/><path d="M27.388.6a.494.494 0 0 0-.444.257l-.016-.218h-.407v1.546h.452v-.87c0-.206.139-.322.3-.322.16 0 .277.113.277.306v.886H28v-.953C28 .803 27.72.6 27.389.6zM25.52.945c.207 0 .358.138.403.319h-.796a.395.395 0 0 1 .393-.319zm.802.451A.794.794 0 0 0 25.52.6a.808.808 0 0 0-.82.818c0 .465.356.809.83.809.305 0 .615-.151.737-.467h-.458c-.07.074-.167.1-.286.1-.152 0-.345-.093-.39-.287h1.173a1.05 1.05 0 0 0 .016-.177zm-2.64.393c-.23 0-.41-.177-.41-.396s.18-.399.41-.399a.4.4 0 0 1 .406.399.4.4 0 0 1-.406.396zm.429-1.15-.013.154A.626.626 0 0 0 23.63.6a.798.798 0 0 0-.802.793.8.8 0 0 0 .802.792.617.617 0 0 0 .445-.174v.055c0 .286-.132.402-.374.402-.161 0-.29-.058-.352-.19h-.425c.09.396.4.567.767.567.55 0 .838-.354.838-.796V.639zM22.654.613c-.174 0-.344.11-.412.322l-.017-.296h-.412v1.546h.45v-.744c0-.225.149-.409.423-.409.036 0 .068.003.103.003V.629a.816.816 0 0 0-.135-.016zM20.81.945c.207 0 .358.138.403.319h-.796a.394.394 0 0 1 .393-.319zm.803.451A.795.795 0 0 0 20.81.6a.808.808 0 0 0-.82.818c0 .465.356.809.83.809.306 0 .615-.151.737-.467H21.1c-.071.074-.168.1-.287.1-.152 0-.345-.093-.39-.287h1.173a1.05 1.05 0 0 0 .017-.177zm-2.595.39h-.352V.429h.313c.19 0 .29.093.29.232 0 .158-.112.235-.293.235h-.042l-.107.403h.19c.19 0 .314.084.314.241 0 .158-.122.246-.313.246zm.413-.734a.489.489 0 0 0 .313-.467c0-.31-.281-.561-.757-.561h-.8v2.162H19c.577 0 .834-.294.834-.628 0-.194-.11-.416-.402-.506zM17.189.945c.207 0 .358.138.403.319h-.796a.396.396 0 0 1 .393-.319zm.803.451A.795.795 0 0 0 17.189.6a.807.807 0 0 0-.818.818c0 .465.354.809.828.809.306 0 .616-.151.738-.467h-.458c-.07.074-.167.1-.287.1-.151 0-.345-.093-.39-.287h1.173a1.05 1.05 0 0 0 .017-.177zm-2.551.828c.348 0 .702-.19.8-.629h-.445a.36.36 0 0 1-.351.229c-.23 0-.384-.183-.384-.412 0-.226.155-.413.384-.413.16 0 .287.081.348.233h.448C16.157.829 15.819.6 15.44.6c-.47 0-.831.346-.831.812 0 .47.36.812.83.812zM14.425.613a.432.432 0 0 0-.412.322l-.017-.296h-.412v1.546h.45v-.744c0-.225.149-.409.423-.409.035 0 .068.003.103.003V.629a.816.816 0 0 0-.135-.016zm-1.562.026v.87c0 .207-.14.322-.303.322-.161 0-.274-.113-.274-.306V.639h-.451v.954c0 .428.277.632.613.632a.49.49 0 0 0 .444-.265l.017.226h.405V.639zm-2.068 1.186a.413.413 0 0 1 0-.825.413.413 0 0 1 0 .825zm-.004.399c.48 0 .86-.348.86-.812S11.27.6 10.79.6c-.474 0-.857.348-.857.812s.38.812.857.812zm-1.662 0c.389 0 .673-.193.673-.513 0-.255-.177-.418-.516-.476l-.145-.026c-.17-.026-.238-.065-.238-.155 0-.074.074-.122.19-.122.142 0 .215.061.24.167h.433c-.038-.31-.271-.5-.667-.5-.441 0-.647.207-.647.493 0 .316.257.435.502.477l.162.026c.132.022.199.07.199.144 0 .085-.071.129-.203.129-.14 0-.213-.044-.242-.151h-.431c.042.352.313.507.69.507zm-1.35-.039h.456V.639H7.78zm0-1.733h.458V0h-.458zm-.332.161a.433.433 0 0 0-.412.322L7.017.639h-.412v1.546h.45v-.744c0-.225.149-.409.423-.409.035 0 .068.003.103.003V.629a.828.828 0 0 0-.135-.016zM5.62.945a.41.41 0 0 1 .403.319h-.796A.396.396 0 0 1 5.62.945zm.803.451A.795.795 0 0 0 5.62.6a.807.807 0 0 0-.818.818c0 .465.354.809.827.809.306 0 .616-.151.738-.467H5.91c-.07.074-.167.1-.287.1-.151 0-.345-.093-.39-.287h1.174a1.05 1.05 0 0 0 .016-.177zM4.015.6a.536.536 0 0 0-.48.254A.585.585 0 0 0 3.03.6a.482.482 0 0 0-.423.254L2.592.639h-.407v1.547h.452v-.871c0-.206.116-.322.277-.322s.27.113.27.306v.886h.452v-.85c0-.226.126-.342.287-.342.145 0 .267.094.267.303v.89h.45v-.954C4.64.822 4.35.6 4.016.6zM1.573 2.185h.48c-.21-.721-.461-1.44-.77-2.162H.796C.496.72.236 1.441 0 2.185h.484c.042-.145.084-.29.129-.435h.477l.116-.422H.75c.09-.264.187-.525.287-.786.203.541.38 1.086.535 1.643z" fill="#3c289b" mask="url(#a)" transform="translate(4 17)"/></g></svg>