<svg width="36" height="36" fill="none" xmlns="http://www.w3.org/2000/svg"><path d="M18 0c2.837 0 5.52.656 7.907 1.825C31.884 4.753 36 10.895 36 18c0 9.942-8.058 18-18 18-9.94 0-18-8.057-18-18C0 8.06 8.06 0 18 0z" fill="#F2F4F7"/><path d="m6.56 19.717 2.886.602 1.878 2.698 5.06-2.683v-5.94l-4.395-2.091-5.768 3.122c.079.918.277 3.23.34 4.292zm4.388 4.809-2.192-3.162-3.328-.695-.01-.463c-.002-.478-.28-3.816-.386-5.06L5 14.765 11.953 11l5.593 2.663v7.37l-6.598 3.493z" fill="#00E1A0"/><path d="M30.534 18.523c-.065.055-.42.333-.752.333-.24 0-.361-.14-.361-.412 0-.273.123-.44.366-.44h.747v.52zm-.49-1.997a4.996 4.996 0 0 0-.934.112h-.027l.043.418h.034c.293-.053.59-.084.888-.094a.467.467 0 0 1 .486.477v.146h-.769c-.499 0-.815.344-.815.878 0 .535.32.848.815.848.278-.02.546-.11.78-.26l.024.208H31v-1.86c0-.535-.376-.88-.957-.88v.008zm-2.232.327-.014-.28h-.444v2.678h.47v-1.867c.05-.06.367-.43.791-.43h.032v-.434h-.033c-.299.011-.584.13-.802.333zm-2.663.813v-.233a.531.531 0 0 1 1.057 0v.233h-1.057zm.537-1.145c-.567 0-.98.362-.998.883 0 .166-.01.332-.01.509 0 .176 0 .332.01.514.023.532.418.877.998.877.306.01.612-.033.902-.128h.022l-.06-.41h-.033a4.105 4.105 0 0 1-.832.104.5.5 0 0 1-.528-.478v-.291h1.531v-.703c0-.509-.417-.878-.998-.878l-.004.002zm-2.154 2.73h.465v-3.725h-.465v3.725zm-1.287 0h.464v-3.725h-.464v3.725zm-2.177-1.586v-.233a.531.531 0 0 1 1.057 0v.233H20.07zm.54-1.145c-.568 0-.98.361-.999.882 0 .166-.011.333-.011.51 0 .175 0 .332.011.513.023.533.418.877.999.877.305.011.61-.032.9-.128h.023l-.056-.418h-.034a4.048 4.048 0 0 1-.832.104.5.5 0 0 1-.529-.478v-.291h1.533v-.693c0-.509-.418-.878-.999-.878h-.006zm-1.606 2.207a7.685 7.685 0 0 1-.92.104c-.402 0-.832-.236-.852-.753-.01-.458-.01-.922 0-1.378.008-.365.28-.754.852-.754.3.014.598.046.893.098h.035l.018-.45h-.023a4.41 4.41 0 0 0-.923-.12c-.774 0-1.348.513-1.365 1.222-.01.458-.01.922 0 1.381.017.71.59 1.224 1.365 1.224.32-.011.637-.053.948-.127h.025l-.018-.447h-.035zm-3.518-.337a.48.48 0 0 1-.523.478 2.94 2.94 0 0 1-.617-.057v-1.634c.218-.117.458-.188.706-.208a.437.437 0 0 1 .434.463c.01.318.01.64 0 .958zm-.431-1.854a1.78 1.78 0 0 0-.716.179v-1.189h-.466v3.638h.024a4.84 4.84 0 0 0 1.06.132c.602 0 .975-.333.998-.877.01-.333.01-.688 0-1.029-.018-.539-.353-.86-.895-.86l-.005.006zm-3.796 1.197.536-1.73.53 1.73h-1.066zm.186-2.207-1.164 3.725h.527l.318-1.062h1.343l.333 1.062h.52l-1.178-3.725h-.699z" fill="#000"/></svg>