<svg width="36" height="36" fill="none" xmlns="http://www.w3.org/2000/svg"><path d="M18 0c2.837 0 5.52.656 7.907 1.825C31.884 4.753 36 10.895 36 18c0 9.942-8.058 18-18 18-9.94 0-18-8.057-18-18C0 8.06 8.06 0 18 0z" fill="#F2F4F7"/><path d="M7.125 18.909h-.928v-2.866h.933c.572 0 .843.366.843.714a.646.646 0 0 1-.363.595v.005a.704.704 0 0 1 .555.691c0 .409-.303.86-1.038.86h-.002zm-.128-2.422h-.262v.756h.32a.395.395 0 0 0 .381-.387c0-.217-.142-.37-.44-.37zm.102 1.187h-.364v.792h.342c.36 0 .537-.156.537-.417 0-.222-.186-.375-.514-.375m2.617-.33a.516.516 0 0 0-.248-.074.623.623 0 0 0-.404.182v1.456h-.533v-2.056h.448l.058.217a.858.858 0 0 1 .582-.265c.1.005.197.041.275.103l-.178.437zm.786-.883a.315.315 0 1 1 .333-.318.323.323 0 0 1-.333.318zm-.268.391h.533v2.056h-.533v-2.056zm1.805 2.101c-.374 0-.52-.205-.52-.482v-1.229h-.374v-.389h.373v-.474l.532-.156v.63h.653l-.156.391h-.497v1.036c0 .16.062.233.2.233a.69.69 0 0 0 .35-.113l.143.361a1.27 1.27 0 0 1-.706.192m1.329-2.492a.315.315 0 1 1 .333-.318.323.323 0 0 1-.333.318zm-.266.391h.533v2.056H13.1v-2.056zm1.636 2.101a1.483 1.483 0 0 1-.777-.191l.173-.361c.168.107.364.163.564.16.217 0 .36-.078.36-.217 0-.37-.968-.23-.968-.93 0-.357.288-.61.795-.61.21-.005.42.03.617.104v.435a1.637 1.637 0 0 0-.596-.135c-.186 0-.297.057-.297.179 0 .325.986.217.986.926 0 .46-.412.639-.856.639m2.573-.044v-1.2c0-.23-.035-.465-.32-.465a.878.878 0 0 0-.51.234v1.43h-.533V15.83h.533v1.225a1.09 1.09 0 0 1 .697-.25c.324 0 .67.151.67.756v1.347h-.537zm3.711-2.425h-.951v.76h.937l.004.431h-.941v1.235h-.537v-2.865h1.635l-.147.439zm2.038 2.174a1.038 1.038 0 0 1-.76.296.996.996 0 0 1-1.048-1.061 1.109 1.109 0 0 1 .307-.796 1.039 1.039 0 0 1 .746-.292 1.06 1.06 0 0 1 .773.297c.19.212.29.489.28.773a1.074 1.074 0 0 1-.298.783zm-.764-1.44c-.337 0-.502.28-.502.661 0 .4.191.67.515.67.333 0 .502-.282.502-.67 0-.395-.186-.66-.515-.66zm3.179 1.44a1.04 1.04 0 0 1-.76.296 1.052 1.052 0 0 1-.723-.257 1.066 1.066 0 0 1-.324-.805 1.107 1.107 0 0 1 .306-.795 1.038 1.038 0 0 1 .746-.292 1.06 1.06 0 0 1 .773.296c.19.212.29.49.28.774a1.073 1.073 0 0 1-.298.783zm-.764-1.44c-.337 0-.502.279-.502.661 0 .4.192.67.516.67.333 0 .502-.283.502-.67 0-.395-.187-.66-.515-.66zm2.513 1.736c-.625 0-1.142-.362-1.142-1.057a1.084 1.084 0 0 1 1.164-1.092c.089-.002.178.004.266.018v-.992h.533v2.958a1.806 1.806 0 0 1-.822.165h.001zm.288-1.705a.904.904 0 0 0-.248-.03.613.613 0 0 0-.65.652.643.643 0 0 0 .657.678.97.97 0 0 0 .24-.03l.001-1.27zm1.631 1.705a1.485 1.485 0 0 1-.777-.191l.173-.361c.17.103.365.155.564.147.217 0 .36-.065.36-.204 0-.37-.969-.23-.969-.93 0-.357.289-.61.795-.61.21-.005.42.03.617.104v.435a1.635 1.635 0 0 0-.595-.126c-.186 0-.297.048-.297.17 0 .325.986.217.986.926 0 .46-.413.64-.857.64M8.133 15.08l-.29-.717H6.8l-.27.717H6l1.137-2.879h.39l1.176 2.88h-.57zm-.693-1.804a2.92 2.92 0 0 1-.111-.357h-.005a2.214 2.214 0 0 1-.107.348l-.253.665h.71l-.234-.656zm2.228 1.847a1.476 1.476 0 0 1-.777-.192l.173-.36c.168.107.364.163.564.16.217 0 .36-.078.36-.217 0-.37-.969-.23-.969-.93 0-.357.289-.61.795-.61.21-.005.42.03.617.105v.435a1.635 1.635 0 0 0-.595-.148c-.186 0-.297.07-.297.19 0 .327.987.218.987.927 0 .461-.413.64-.857.64m1.855 0a1.476 1.476 0 0 1-.778-.192l.173-.36c.168.107.364.163.563.16.218 0 .36-.078.36-.217 0-.37-.968-.23-.968-.93 0-.357.289-.61.795-.61.21-.005.42.03.617.104v.436a1.64 1.64 0 0 0-.595-.148c-.186 0-.298.07-.298.19 0 .327.987.218.987.927 0 .461-.414.64-.857.64m2.959-.296a1.039 1.039 0 0 1-.76.295 1.053 1.053 0 0 1-.723-.256 1.064 1.064 0 0 1-.324-.805 1.105 1.105 0 0 1 .306-.796 1.038 1.038 0 0 1 .746-.29 1.058 1.058 0 0 1 .772.295c.19.212.29.49.28.774a1.076 1.076 0 0 1-.297.782zm-.765-1.461c-.337 0-.501.3-.501.682 0 .4.19.657.515.657.333 0 .502-.27.502-.657 0-.396-.187-.682-.516-.682zm2.407 1.756a.985.985 0 0 1-1.035-1.06 1.057 1.057 0 0 1 1.088-1.087c.207-.01.411.04.59.143v.396a.83.83 0 0 0-.528-.148.624.624 0 0 0-.616.67.604.604 0 0 0 .612.669.96.96 0 0 0 .497-.135l.134.33a1.417 1.417 0 0 1-.742.222m1.368-2.492a.316.316 0 1 1 .333-.316.325.325 0 0 1-.333.317zm-.267.392h.533v2.056h-.533v-2.056zm2.282 2.058-.088-.182a.88.88 0 0 1-.609.226.649.649 0 0 1-.688-.661c0-.426.342-.657.88-.675l.372-.013v-.052c0-.248-.177-.357-.4-.357-.19 0-.378.05-.541.149l-.173-.314c.243-.158.53-.237.821-.226.52 0 .835.208.835.748v.813a2.03 2.03 0 0 0 .04.544h-.449zm-.133-.944-.302.008c-.289.009-.417.104-.417.278 0 .17.12.287.341.287a.56.56 0 0 0 .378-.13v-.443zm1.749.987c-.373 0-.519-.205-.519-.483v-1.226h-.373v-.391h.373v-.474l.533-.156v.63h.653l-.156.392h-.498v1.035c0 .16.063.233.2.233a.694.694 0 0 0 .35-.113l.143.33c-.209.14-.454.217-.706.222m1.448-.934a.553.553 0 0 0 .591.517 1.1 1.1 0 0 0 .545-.135l.13.326c-.227.15-.492.229-.764.226a.99.99 0 0 1-1.044-1.074c0-.587.356-1.074.955-1.074.568 0 .941.422.941 1.061v.153h-1.354zm.4-.822a.43.43 0 0 0-.413.452h.817a.419.419 0 0 0-.24-.412.422.422 0 0 0-.164-.04m2.402 1.756c-.626 0-1.142-.36-1.142-1.056a1.086 1.086 0 0 1 1.163-1.092 1.56 1.56 0 0 1 .267.018V12h.533v2.957a1.81 1.81 0 0 1-.822.165zm.287-1.726a.912.912 0 0 0-.248-.03.67.67 0 0 0 .009 1.339.98.98 0 0 0 .24-.03v-1.279z" fill="#D0043C"/><path d="M7.036 23.012a.974.974 0 0 1-.304-.048V24h-.535v-3.007c.264-.094.542-.14.821-.14.75 0 1.138.406 1.138 1.049a1.078 1.078 0 0 1-1.12 1.11zm-.058-1.727a.955.955 0 0 0-.246.031v1.228a.778.778 0 0 0 .277.052c.375 0 .59-.267.59-.669a.583.583 0 0 0-.621-.642m2.002 1.727a.424.424 0 0 1-.487-.455v-2.683h.536v2.452c0 .153.03.214.142.214a.7.7 0 0 0 .156-.022l.067.39a.86.86 0 0 1-.415.103m1.554.001a.99.99 0 0 1-1.04-1.067 1.062 1.062 0 0 1 1.094-1.092c.21-.009.419.041.603.144l-.01.428a.845.845 0 0 0-.53-.17.624.624 0 0 0-.62.665.605.605 0 0 0 .615.668.967.967 0 0 0 .5-.144l.134.345c-.223.142-.481.22-.746.223" fill="#9B9A9A"/></svg>