<svg height="36" viewBox="0 0 36 36" width="36" xmlns="http://www.w3.org/2000/svg"><g fill="none" fill-rule="evenodd"><path d="M18 0c2.837 0 5.52.656 7.907 1.825C31.884 4.753 36 10.895 36 18c0 9.942-8.058 18-18 18-9.94 0-18-8.057-18-18C0 8.06 8.06 0 18 0z" fill="#f2f4f7" fill-rule="nonzero"/><path d="M8 6v16.27L17.75 32l6.554-17.416L27.5 6z" fill="#009286"/><path d="M8 6h19.5v16.25s-1.219.894-4.794 4.469S17.75 32 17.75 32L8 22.25z" fill="#009286"/><path d="m17.669 12.419 9.83 9.83L17.75 32" fill="#f3c000"/></g></svg>