<svg height="36" viewBox="0 0 36 36" width="36" xmlns="http://www.w3.org/2000/svg"><mask id="a" fill="#fff"><path d="M0 0h8.75v7H0z" fill-rule="evenodd"/></mask><mask id="b" fill="#fff"><path d="M0 0h17.5v3.687H0z" fill-rule="evenodd"/></mask><g fill="none" fill-rule="evenodd"><path d="M18 0c2.837 0 5.52.656 7.907 1.825C31.884 4.753 36 10.895 36 18c0 9.942-8.058 18-18 18-9.94 0-18-8.057-18-18C0 8.06 8.06 0 18 0z" fill="#f2f4f7" fill-rule="nonzero"/><path d="M7.588 0H0v1.166h7.209v.001c.206 0 .374.166.375.373v3.92a.376.376 0 0 1-.377.373H1.542a.377.377 0 0 1-.377-.376V3.876c0-.208.17-.376.377-.376h4.874V2.335H1.163C.52 2.335 0 2.855 0 3.496v2.341C0 6.48.52 7 1.163 7h6.425C8.23 7 8.75 6.48 8.75 5.837V1.163C8.75.52 8.23 0 7.588 0" fill="#159bd7" mask="url(#a)" transform="translate(4 15)"/><path d="M17.064 2.377V2.8c0 .25-.054.398-.26.398-.126 0-.185-.093-.185-.208V1.496h.668V1.06h-.668V.05h-.54c-.044.45-.184 1.01-.728 1.01h-.849V.05h-.538c-.044.45-.185 1.01-.728 1.01v.435h.364V2.86c0 .555.31.827.869.827.654 0 .914-.293.914-.827v-.483h-.434V2.8c0 .25-.055.398-.261.398-.126 0-.186-.094-.186-.208V1.495h1.215V2.86c0 .555.308.827.869.827.652 0 .914-.293.914-.827v-.483h-.436zm-3.878-.044c0 .87-.593 1.354-1.403 1.354-.812 0-1.404-.484-1.404-1.354 0-.87.592-1.354 1.404-1.354.81 0 1.403.484 1.403 1.354zm-1.844 0c0 .641.114.919.44.919s.44-.278.44-.92c0-.64-.114-.918-.44-.918s-.44.277-.44.919zM7.392.669c0-.153-.038-.234-.194-.234h-.251V0h1.348v1.354c.202-.229.457-.375.702-.375.816 0 1.121.637 1.121 1.354 0 .718-.305 1.354-1.12 1.354-.343 0-.648-.12-.838-.419L8 3.607h-.609zm.903 1.664c0 .555.127.886.43.886.306 0 .43-.33.43-.886 0-.555-.125-.886-.43-.886-.303 0-.43.331-.43.886zM4.34.669c0-.153-.037-.234-.195-.234h-.25V0h1.35v1.354c.2-.229.456-.375.7-.375.816 0 1.12.637 1.12 1.354 0 .718-.304 1.354-1.12 1.354-.343 0-.648-.12-.837-.419l-.157.339h-.61zm.904 1.664c0 .555.125.886.43.886s.43-.33.43-.886c0-.555-.125-.886-.43-.886s-.43.331-.43.886zM2.557 0l.91 2.72c.107.33.184.408.373.408h.185v.478H2.04v-.478h.163c.163 0 .299-.022.299-.081a.726.726 0 0 0-.027-.198l-.114-.39h-1.11l-.066.217c-.06.19-.081.27-.081.347 0 .088.19.105.339.105h.156v.478H0v-.478h.185c.19 0 .265-.077.376-.409L1.469 0zM1.408 1.98h.79L1.805.81h-.01z" fill="#000" mask="url(#b)" transform="translate(14.5 16.653)"/></g></svg>