<svg height="36" viewBox="0 0 36 36" width="36" xmlns="http://www.w3.org/2000/svg"><mask id="a" fill="#fff"><path d="M0 0h4.844v4.83H0z" fill-rule="evenodd"/></mask><mask id="b" fill="#fff"><path d="M.234 0h.532v1H.234z" fill-rule="evenodd"/></mask><g fill="none" fill-rule="evenodd"><path d="M18 0c2.837 0 5.52.656 7.907 1.825C31.884 4.753 36 10.895 36 18c0 9.942-8.058 18-18 18-9.94 0-18-8.057-18-18C0 8.06 8.06 0 18 0z" fill="#f2f4f7" fill-rule="nonzero"/><g fill="#00b2e3"><path d="M4.844 2.184v.47a.105.105 0 0 1-.107.109H2.88a.105.105 0 0 0-.108.107v1.853a.105.105 0 0 1-.107.107h-.481a.105.105 0 0 1-.107-.107V2.87a.105.105 0 0 0-.108-.107H.108A.106.106 0 0 1 0 2.655v-.471c0-.065.052-.107.108-.107H1.96a.106.106 0 0 0 .108-.107V.107c0-.065.05-.107.107-.107h.476c.065 0 .107.05.107.107V1.96c0 .065.05.107.107.107h1.853c.075.005.126.052.126.117" mask="url(#a)" transform="translate(4 16)"/><path d="M8.42 20.308v.046a.04.04 0 0 1-.038.038h-.994a.384.384 0 0 1-.382-.378.383.383 0 0 1 .19-.328.369.369 0 0 1 .113-.046.052.052 0 0 0 .028-.024v-.004a.404.404 0 0 1 .042-.108.391.391 0 0 1 .597-.089c.019.02.037.042.056.066l.009.014c.01.014.029.02.042.014.005 0 .005 0 .01-.005l.004-.005a.228.228 0 0 1 .201 0 .21.21 0 0 1 .093.09c.01.018.019.041.024.06v.014c0 .02-.02.037-.037.037H8.33a.036.036 0 0 1-.033-.023v-.01c-.004-.009-.004-.013-.01-.023a.109.109 0 0 0-.092-.05.11.11 0 0 0-.094.05c-.005.01-.01.014-.01.023a.041.041 0 0 1-.037.03h-.046a.041.041 0 0 1-.038-.03v-.009a.26.26 0 0 0-.261-.228.26.26 0 0 0-.228.13.273.273 0 0 0-.038.131v.018a.04.04 0 0 1-.037.038h-.023a.253.253 0 0 0-.131.037.255.255 0 0 0-.131.23.27.27 0 0 0 .262.265h.998c.023-.01.038.01.038.028m.33-.467v.047c0 .02-.018.037-.036.037H7.65a.04.04 0 0 1-.038-.037v-.047c0-.018.019-.037.038-.037h1.064c.023 0 .037.02.037.037m-.201.196H7.486c-.018 0-.037.02-.037.038v.046c0 .02.019.038.037.038H8.55a.04.04 0 0 0 .038-.038v-.046c-.005-.019-.024-.038-.038-.038m-4.06-.849c-.01-.019-.004-.042.014-.05l.037-.025c.019-.009.042-.004.052.014l.14.238c.005.01.005.02.005.03-.005.008-.01.017-.02.022l-.037.023c-.004.005-.014.005-.018.005-.014 0-.024-.005-.033-.019zm.028 1.008-.238.14c-.004.005-.014.005-.02.005-.013 0-.022-.005-.031-.019l-.024-.037a.038.038 0 0 1 .014-.052l.238-.14c.019-.009.042-.004.052.014l.023.038c.009.023.005.042-.014.051zm.915.355c.004.01.004.018.004.028a.047.047 0 0 1-.018.023l-.037.023c-.005.005-.015.005-.02.005-.013 0-.022-.005-.032-.019l-.14-.237c-.01-.019-.005-.042.014-.052l.037-.023c.019-.009.042-.005.052.014zm-.028-1.013.238-.14c.018-.009.042-.004.05.014l.025.037c.009.02.004.042-.015.051l-.237.141c-.005.005-.015.005-.02.005-.013 0-.022-.005-.032-.02l-.023-.037c-.01-.018-.005-.037.014-.05zm-1.2-.084.024-.037c.009-.019.032-.023.05-.014l.239.14c.01.004.014.014.019.023.004.01 0 .018-.005.028l-.023.032a.04.04 0 0 1-.033.02c-.005 0-.014 0-.02-.005l-.237-.14c-.014-.01-.018-.033-.014-.047zm.533.92-.141.237c-.004.01-.018.02-.032.02-.005 0-.014 0-.02-.006l-.036-.023c-.01-.005-.014-.014-.02-.023-.003-.01 0-.019.006-.028l.14-.238c.009-.019.033-.023.05-.014l.038.023c.019.01.024.033.015.052zm.975-.089-.023.037a.04.04 0 0 1-.033.02c-.005 0-.014 0-.02-.006l-.237-.14c-.018-.009-.023-.033-.014-.05l.023-.039c.01-.018.033-.023.052-.014l.238.14c.019.01.023.033.014.052zm-.528-.89c-.004-.01 0-.02.005-.03l.14-.238c.01-.018.033-.023.052-.014l.037.024c.018.01.023.032.014.051l-.14.238a.04.04 0 0 1-.033.02c-.004 0-.014 0-.02-.006l-.036-.023c-.01-.01-.02-.014-.02-.023zm-.774.535h-.275c-.02 0-.038-.019-.038-.037v-.047c0-.019.019-.037.038-.037h.275c.018 0 .037.018.037.037v.047c0 .018-.02.037-.037.037zm.61.486v.274c0 .02-.017.038-.036.038h-.047c-.018 0-.037-.019-.037-.038v-.274c0-.02.019-.038.037-.038h.047c.023.005.037.014.037.038zm.804-.57v.047c0 .018-.02.037-.038.037h-.275a.039.039 0 0 1-.037-.037v-.047c0-.019.018-.037.037-.037h.275c.019 0 .038.014.038.037zm-.924-.523v-.275c0-.019.019-.037.037-.037h.047c.019 0 .037.018.037.037v.275a.04.04 0 0 1-.037.038h-.047c-.018-.005-.037-.019-.037-.038zm.06.122a.418.418 0 0 0-.42.42c0 .233.187.42.42.42.234 0 .42-.187.42-.42a.419.419 0 0 0-.42-.42zm3.174-2.264a.033.033 0 0 0-.01-.023l-.004-.005a.035.035 0 0 0-.024-.009H8.06c-.02 0-.037.014-.037.033v.01a.264.264 0 0 1-.247.243H7.77c-.02.004-.033.018-.033.037v.036c0 .014.009.024.019.033.004.004.009.004.019.004a.357.357 0 0 0 .223-.088c.019-.014.033-.033.052-.05a.383.383 0 0 0 .084-.22m.13-.004v.046a.433.433 0 0 1-.074.215.968.968 0 0 1-.066.084.381.381 0 0 1-.154.102.475.475 0 0 1-.186.038.472.472 0 0 1-.341-.135.468.468 0 0 1-.065-.085.44.44 0 0 1-.075-.262c0-.07.019-.149.056-.233a.454.454 0 0 1 .056-.107c.01-.014.028-.052.066-.103.018-.028.042-.065.07-.103.023-.037.05-.084.083-.126.019-.028.038-.06.057-.093v-.005c.018-.033.037-.065.05-.098a.582.582 0 0 1 .029-.06c.014-.024.05-.024.065.004l.005.01c.032.07.079.153.12.233.127.196.197.312.216.336a.971.971 0 0 1 .088.341m-3.191-.238c.014.009.028.023.042.033.023.014.042.005.065-.01.042-.023.126-.065.1-.135-.03-.084-.086-.22-.109-.294-.014-.037-.06-.042-.079-.005-.056.108-.112.239-.168.35a.045.045 0 0 1-.07.015c-.047-.047-.093-.09-.13-.126-.02-.02-.057-.02-.067.009-.088.228-.102.243.033.327.02.014.042.009.056-.01.02-.023.042-.047.061-.074.014-.02.042-.02.06-.005a.213.213 0 0 1 .038.032c.02.019.046.01.065-.01a.74.74 0 0 0 .056-.088c.005-.018.028-.028.047-.01m.098-.685.607 1.316c.014.033-.01.065-.038.065H4.238c-.033 0-.052-.032-.042-.065l.415-1.026c.014-.028.051-.038.07-.015l.131.14c.018.024.055.019.07-.01l.205-.41c.023-.023.065-.023.084.005"/></g><path d="M30.437 18.93h-.57c-.032 0-.06-.033-.051-.065l.285-1.04c.014-.052.089-.052.103 0l.289 1.04a.056.056 0 0 1-.056.065zm1.293 1.134-1-3.136c-.003-.023-.027-.037-.05-.037h-1.06c-.023 0-.041.015-.051.038l-.994 3.136c-.01.032.014.07.05.07h.795c.023 0 .042-.015.05-.038l.113-.41c.005-.024.028-.038.05-.038h1.037c.024 0 .042.014.052.037l.11.411c.006.023.03.037.053.037h.793c.038 0 .066-.037.052-.07zm-4.704-1.8c0 .187-.09.28-.318.28h-.545a.052.052 0 0 1-.052-.051v-.803c0-.028.023-.051.052-.051h.545c.229 0 .318.088.318.27zm.536.854c-.014-.023-.01-.056.014-.07.253-.192.346-.392.346-.747v-.438c0-.617-.29-.967-1.19-.967h-1.494a.052.052 0 0 0-.051.052v3.136c0 .028.023.05.05.05h.818a.051.051 0 0 0 .05-.05v-.765c0-.03.025-.052.053-.052h.457a.05.05 0 0 1 .042.023l.54.822a.06.06 0 0 0 .043.023h.915c.042 0 .065-.047.042-.085zm-4.074-.09c0 .235-.154.37-.508.37-.346 0-.51-.135-.51-.37v-1.03c0-.234.155-.37.51-.37.345 0 .508.136.508.37zm-.504-2.192c-1.012 0-1.427.494-1.427 1.054v1.26c0 .56.41 1.054 1.427 1.054 1.018 0 1.424-.499 1.424-1.059v-1.26c0-.565-.411-1.05-1.424-1.05zM19.9 18.264c0 .187-.09.28-.317.28h-.546a.052.052 0 0 1-.052-.051v-.803c0-.028.023-.051.052-.051h.546c.233 0 .317.088.317.27zm.537.854c-.015-.023-.01-.056.013-.07.253-.192.346-.392.346-.747v-.438c0-.617-.29-.967-1.19-.967h-1.494a.052.052 0 0 0-.051.052v3.136c0 .028.023.05.05.05h.818a.051.051 0 0 0 .05-.05v-.765c0-.03.025-.052.053-.052h.457a.05.05 0 0 1 .042.023l.54.822a.06.06 0 0 0 .043.023h.906c.042 0 .065-.047.042-.085zm-3.267-2.226h-.817a.051.051 0 0 0-.051.05v2.128c0 .22-.14.327-.486.327-.345 0-.485-.111-.485-.326v-2.129a.051.051 0 0 0-.051-.05h-.826a.052.052 0 0 0-.052.05v2.226c0 .51.308 1.022 1.405 1.022 1.1 0 1.405-.518 1.405-1.022v-2.226c.009-.028-.014-.05-.042-.05zm-4.494 2.039h-.57c-.032 0-.06-.033-.051-.065l.285-1.041c.014-.051.088-.051.102 0l.29 1.04c0 .033-.024.066-.056.066zm.289-2.002c-.005-.023-.028-.037-.051-.037h-1.055c-.023 0-.042.014-.051.037l-.994 3.136c-.01.033.014.07.05.07h.794c.024 0 .042-.014.052-.037l.112-.411c.004-.023.028-.037.05-.037h1.037c.024 0 .042.014.05.037l.113.41c.005.024.029.038.052.038h.793c.038 0 .06-.033.05-.07z" fill="#000"/><path d="M.519.257C.542.257.575.252.575.201S.542.145.519.145H.426v.103zM.43.416H.389V.103h.126c.05 0 .102.018.102.093C.617.257.584.28.547.29l.079.126H.575L.505.294H.42v.122zm.07.07A.228.228 0 0 0 .725.261.228.228 0 0 0 .5.037a.228.228 0 0 0-.224.224A.228.228 0 0 0 .5.486zM.5 0a.266.266 0 1 1 0 .532A.267.267 0 0 1 .5 0z" fill="#000" mask="url(#b)" transform="translate(31.234 16.868)"/></g></svg>