<svg width="36" height="36" fill="none" xmlns="http://www.w3.org/2000/svg"><path d="M18 0c2.837 0 5.52.656 7.907 1.825C31.884 4.753 36 10.895 36 18c0 9.942-8.058 18-18 18-9.94 0-18-8.057-18-18C0 8.06 8.06 0 18 0z" fill="#F2F4F7"/><path d="M15.822 21.75c0 .13-.106.235-.236.235H4.391a.236.236 0 0 1 0-.47h11.195c.131 0 .236.105.236.235zm-4.276-1.14c.128 0 .237.1.237.227a.23.23 0 0 1-.231.231H8.448a.23.23 0 0 1-.23-.23c0-.128.105-.23.232-.23l1.458.001c.094 0 .17-.074.17-.169a.175.175 0 0 0-.17-.176H8.682a.182.182 0 0 1-.181-.18c0-.097.087-.175.186-.175h1.225a.17.17 0 0 0 .168-.171v-3.52a.189.189 0 0 0-.188-.186c-.103 0-.176.09-.184.175l.001 3.242a.179.179 0 0 1-.178.174.174.174 0 0 1-.174-.174v-3.548a.24.24 0 0 0-.474-.056.243.243 0 0 0-.008.059v3.256a.104.104 0 0 1-.102.107.104.104 0 0 1-.102-.107v-3.383l.002.02v2.845c0 .056 0 .056 0 0v-2.845l-.002-.021a.134.134 0 0 0-.142-.123H8.39a.327.327 0 0 1 0-.653l3.074.003c.18 0 .327.146.327.326 0 .18-.148.325-.329.325h-.12a.146.146 0 0 0-.147.143v3.938c0 .082.054.16.132.177.098 0 .186.078.186.177 0 .098-.083.18-.182.18l-.042.002a.173.173 0 0 0-.15.171c0 .093.076.167.17.167h.236zm-.83-3.848a.087.087 0 1 0-.174 0v3.061c0 .048.04.087.087.087.048 0 .087-.04.087-.087v-3.06zm5.167-.642a.19.19 0 0 1 .19.189.191.191 0 0 1-.192.188.695.695 0 0 0-.68.692v2.547c0 .072.042.14.105.168l.029.009c.098 0 .188.078.188.177a.183.183 0 0 1-.182.179l-.042.003a.173.173 0 0 0-.15.17c0 .094.076.168.17.168l.236.001c.128 0 .238.101.238.228a.23.23 0 0 1-.231.231h-3.105a.23.23 0 0 1-.23-.23c0-.128.105-.23.232-.23h1.462a.17.17 0 0 0 .17-.168.175.175 0 0 0-.17-.176h-1.23a.182.182 0 0 1-.182-.18c0-.098.088-.176.186-.176h1.221a.17.17 0 0 0 .173-.17v-2.318a.187.187 0 0 0-.189-.184c-.102 0-.175.09-.183.175v2.04a.176.176 0 0 1-.35-.003v-2.338a.24.24 0 1 0-.482.003v1.527c0 .008 0 .014-.002.02v.504a.101.101 0 1 1-.203 0v-2.02a.69.69 0 0 0-.68-.65.188.188 0 1 1-.002-.377h3.885zm-1.163 1.845a.087.087 0 0 0-.088-.087.087.087 0 0 0-.086.087v1.857c0 .048.039.087.087.087.047 0 .087-.04.087-.087v-1.857zM7.535 20.61c.128 0 .237.101.237.228a.23.23 0 0 1-.23.231H4.437a.23.23 0 0 1-.231-.23c0-.128.105-.23.232-.23l1.465.001c.095 0 .17-.074.17-.169a.175.175 0 0 0-.17-.176l-1.232.001a.182.182 0 0 1-.181-.18c0-.097.088-.175.186-.175h1.22a.17.17 0 0 0 .173-.17v-2.313a.186.186 0 0 0-.188-.183c-.103 0-.177.09-.183.174v2.033a.179.179 0 0 1-.179.174.174.174 0 0 1-.174-.174v-2.339a.241.241 0 0 0-.481 0v2.058a.101.101 0 1 1-.203 0v-.514l-.001-.013-.004-1.578v-.225a.121.121 0 0 0-.172-.111.35.35 0 0 1-.121.028h-.015a.349.349 0 0 1-.104-.682.8.8 0 0 1 .11-.016c.012 0 .024.001.035.003l-.035-.003h3.118a.961.961 0 0 1 .108.01.35.35 0 0 1-.084.688H7.49a.381.381 0 0 1-.138-.035h-.001a.119.119 0 0 0-.048-.01.122.122 0 0 0-.122.121v.185l.001.001v.054l.001 1.091.001 1.576c0 .082.055.156.133.174.098 0 .186.078.186.176 0 .099-.083.18-.181.18l-.042.003a.173.173 0 0 0-.15.17c0 .094.076.168.168.168l.237-.003zm-.355-3.846v.01-.014.003zm-.495 1.204a.087.087 0 0 0-.087-.087.087.087 0 0 0-.087.087v1.856c0 .048.04.087.087.087.048 0 .087-.04.087-.087v-1.856zm10.678-.258c-.023 0-.14.008-.25.008-.028 0-.04-.004-.04-.02 0-.013.008-.018.025-.018.02 0 .048-.002.065-.004.098-.013.139-.086.18-.193l.534-1.337c.026-.061.039-.085.06-.085.019 0 .032.019.054.068.05.117.39.985.527 1.31.08.192.142.222.187.232a.449.449 0 0 0 .09.008c.016 0 .028.002.028.017 0 .017-.02.02-.098.02-.076 0-.232 0-.402-.003-.038-.002-.063-.002-.063-.017 0-.012.008-.017.03-.018.015-.005.03-.024.018-.05l-.17-.454c-.004-.011-.01-.015-.021-.015h-.474c-.011 0-.015.003-.019.017l-.115.306a.407.407 0 0 0-.032.131c0 .038.019.067.085.067h.032c.025 0 .032.003.032.016 0 .017-.013.02-.037.02-.069.002-.16-.006-.226-.006zm.313-.67c-.002.008 0 .014.008.014h.39c.011 0 .014-.006.011-.013l-.192-.525c-.002-.009-.004-.02-.01-.02-.007 0-.011.01-.014.02l-.194.523zm1.85.64a.368.368 0 0 1-.088-.01c-.037-.01-.064-.029-.064-.07 0-.033.002-.06.007-.1l.111-.845h.008c.075.159.202.427.222.472.025.06.194.385.245.482.034.064.055.106.075.106.018 0 .03-.019.078-.119l.464-.965h.008l.128.935c.008.06.001.087-.012.092-.015.006-.023.013-.023.023 0 .012.013.019.062.024.085.006.378.013.431.013.03 0 .056-.007.056-.024 0-.012-.015-.015-.034-.015a.412.412 0 0 1-.132-.021c-.064-.019-.085-.08-.104-.215l-.194-1.314c-.006-.045-.02-.066-.038-.066-.019 0-.032.017-.047.051l-.579 1.215-.58-1.2c-.028-.055-.04-.065-.057-.065s-.03.02-.037.055l-.211 1.387c-.01.072-.028.155-.087.168-.032.006-.047.006-.064.006-.021 0-.033.004-.033.015 0 .02.017.024.038.024.068 0 .17-.008.211-.008.039 0 .135.008.224.008.032 0 .051-.004.051-.024-.002-.01-.017-.015-.034-.015zm2.997.044c.078 0 .097 0 .113-.055.01-.043.028-.187.028-.236 0-.022 0-.039-.017-.039-.015 0-.02.008-.023.031-.014.087-.04.132-.094.157-.055.026-.144.026-.199.026-.217 0-.25-.032-.255-.18-.002-.06 0-.256 0-.33v-.167c0-.014.002-.022.013-.022.052 0 .261.002.302.006.079.008.108.04.119.083.006.028.006.055.008.077 0 .01.004.018.019.018.019 0 .019-.023.019-.04 0-.015.003-.1.008-.142.007-.108.017-.142.017-.154 0-.013-.007-.017-.015-.017-.01 0-.019.01-.034.027-.018.022-.05.028-.102.033-.048.003-.292.003-.339.003-.013 0-.015-.008-.015-.023v-.54c0-.014.005-.02.015-.02.043 0 .266.004.302.008.107.013.128.038.142.076.01.025.013.062.013.077 0 .019.004.03.019.03s.02-.013.021-.024c.005-.026.009-.118.01-.14.007-.097.017-.122.017-.137 0-.011-.001-.019-.013-.019-.01 0-.023.007-.033.009a1.258 1.258 0 0 1-.092.013c-.04.002-.464.002-.53.002-.06 0-.194-.007-.307-.007-.031 0-.046.005-.046.019 0 .013.013.017.035.017.03 0 .066.002.083.007.07.015.087.049.092.12.004.069.004.129.004.452v.377c0 .196 0 .364-.01.453-.009.062-.02.109-.062.117a.327.327 0 0 1-.077.008c-.025 0-.034.007-.034.017 0 .015.015.02.043.02.085 0 .218-.006.267-.006.125.002.267.015.588.015zm2.42-.028c0 .017-.015.02-.04.02H24.7c-.119 0-.172-.01-.228-.04-.091-.049-.173-.149-.291-.313-.086-.117-.184-.263-.21-.295-.012-.013-.025-.015-.04-.015l-.184-.005c-.01 0-.017.005-.017.017v.03c0 .2 0 .368.01.458.007.062.019.11.083.118a.833.833 0 0 0 .104.007c.017 0 .026.007.026.017 0 .015-.015.02-.043.02-.123 0-.281-.007-.313-.007-.04 0-.175.008-.26.008-.027 0-.042-.007-.042-.02 0-.01.009-.018.034-.018.032 0 .057-.004.077-.007.043-.008.053-.055.061-.117.01-.089.01-.257.01-.456v-.374c0-.323 0-.384-.004-.451-.004-.073-.02-.107-.092-.122a.398.398 0 0 0-.082-.007c-.024 0-.037-.004-.037-.018 0-.015.015-.019.047-.019.112 0 .247.007.292.007.073 0 .234-.007.3-.007.134 0 .276.012.392.09.06.04.145.15.145.293 0 .158-.067.303-.282.478.19.238.337.428.463.56.119.123.207.138.238.145a.297.297 0 0 0 .06.006c.018 0 .025.007.025.017zm-.881-.78c.063-.047.125-.144.125-.318 0-.302-.2-.39-.325-.39a.448.448 0 0 0-.113.01c-.015.004-.018.012-.018.03v.644c0 .024.003.032.018.039a.558.558 0 0 0 .162.021c.084 0 .112-.008.15-.036zm1.319.65c-.007.062-.019.098-.062.107-.02.003-.045.007-.076.007-.026 0-.034.007-.034.017 0 .015.015.02.043.02.085 0 .219-.007.267-.007.058 0 .192.008.332.008.023 0 .04-.007.04-.02 0-.011-.01-.018-.033-.018a.819.819 0 0 1-.109-.007c-.063-.009-.078-.047-.085-.105-.008-.091-.008-.26-.008-.467v-.376c0-.325 0-.384.004-.453.004-.074.022-.11.079-.121a.324.324 0 0 1 .064-.007c.021 0 .033-.004.033-.02 0-.012-.017-.017-.045-.017-.08 0-.206.007-.259.007-.061 0-.195-.007-.276-.007-.035 0-.052.004-.052.017 0 .017.013.02.034.02a.257.257 0 0 1 .076.008c.047.01.069.047.072.12.004.068.004.127.004.45v.378a4.22 4.22 0 0 1-.01.466zm2.461.067a2 2 0 0 0 .046-.283c0-.016-.004-.031-.018-.031-.016 0-.021.008-.028.042a.346.346 0 0 1-.073.139c-.085.097-.2.119-.388.119-.286 0-.67-.25-.67-.755 0-.205.04-.406.195-.549.093-.085.215-.131.399-.131.195 0 .36.058.43.131.054.056.082.13.084.196 0 .03.005.047.02.047.02 0 .023-.017.026-.049.004-.042.002-.159.006-.23.005-.074.01-.1.01-.117 0-.013-.008-.023-.031-.025-.063-.007-.131-.026-.211-.037a2.045 2.045 0 0 0-.308-.021c-.317 0-.519.086-.671.226a.8.8 0 0 0-.25.583.8.8 0 0 0 .265.627c.193.163.437.226.729.226.136 0 .298-.015.383-.048.037-.014.045-.024.055-.06zm2.09.047c.017 0 .027.002.027.017 0 .017-.019.02-.097.02-.077 0-.232 0-.402-.003-.038-.002-.064-.002-.064-.017 0-.013.01-.017.03-.019.015-.004.03-.023.019-.049l-.17-.454c-.005-.012-.011-.015-.022-.015h-.474c-.01 0-.015.003-.018.017l-.116.306a.407.407 0 0 0-.031.131c0 .038.02.066.085.066h.032c.025 0 .031.004.031.017 0 .017-.012.02-.035.02-.068 0-.16-.007-.226-.007-.023 0-.14.008-.25.008-.028 0-.04-.004-.04-.02 0-.014.008-.018.025-.018.02 0 .049-.002.066-.004.099-.013.139-.086.18-.193l.535-1.337c.025-.061.038-.085.06-.085.018 0 .031.02.053.068.051.117.392.985.527 1.31.08.192.142.222.187.233a.5.5 0 0 0 .088.008zm-.719-.626c.01 0 .012-.006.01-.013l-.191-.525c-.002-.009-.005-.02-.01-.02-.007 0-.01.011-.014.02l-.195.523c-.002.009 0 .015.008.015h.392zm2.738-.946c-.104 0-.185.007-.208.007-.045 0-.147-.007-.257-.007-.032 0-.055.002-.055.019 0 .013.008.018.033.018.03 0 .08 0 .113.013.052.022.07.062.073.192l.022.956h-.011c-.036-.033-.324-.34-.469-.486-.311-.31-.635-.656-.66-.684-.037-.037-.056-.066-.08-.066-.022 0-.028.03-.028.073l-.019 1.262c-.002.185-.01.246-.066.263a.38.38 0 0 1-.095.011c-.021 0-.034.004-.034.017 0 .019.018.02.046.02.11 0 .21-.007.23-.007.042 0 .127.008.265.008.03 0 .049-.004.049-.02-.001-.013-.014-.018-.037-.018a.332.332 0 0 1-.111-.015c-.043-.015-.07-.07-.074-.236l-.023-.896h.006c.038.04.275.307.507.537.221.22.494.5.628.626.023.024.049.047.072.047.019 0 .027-.019.027-.065l.024-1.346c.002-.12.018-.164.078-.181.025-.007.043-.007.064-.007.025 0 .038-.006.038-.018 0-.015-.02-.017-.048-.017zM18.12 21.722c-.01 0-.013.005-.018.026a.227.227 0 0 1-.045.087c-.052.06-.123.073-.24.073-.177 0-.414-.155-.414-.468 0-.127.025-.251.12-.34.058-.052.133-.081.247-.081.122 0 .224.035.268.081a.19.19 0 0 1 .052.12c0 .018.003.03.013.03.012 0 .015-.01.016-.03.003-.026 0-.098.003-.142.003-.046.007-.062.007-.072 0-.008-.005-.014-.02-.016-.04-.004-.082-.016-.132-.023a1.361 1.361 0 0 0-.19-.013c-.197 0-.32.053-.415.14a.498.498 0 0 0-.154.36c0 .127.034.274.162.387.12.103.271.143.452.143.083 0 .183-.01.235-.03.023-.01.028-.016.035-.039a1.26 1.26 0 0 0 .029-.174c0-.01-.002-.02-.011-.02zm1.08-.768c.328 0 .531.19.531.492a.52.52 0 0 1-.544.539.5.5 0 0 1-.53-.516c0-.225.149-.515.543-.515zm.043.966c.092 0 .305-.045.305-.425 0-.295-.17-.478-.385-.478-.151 0-.323.084-.323.412-.001.274.15.491.402.491zm2.219.022a.286.286 0 0 1-.081-.013c-.04-.012-.053-.05-.065-.132l-.12-.813c-.003-.028-.012-.04-.023-.04-.012 0-.02.01-.029.03l-.357.752-.36-.742c-.016-.033-.024-.04-.035-.04-.01 0-.018.011-.022.034l-.13.857c-.007.045-.017.095-.054.104-.02.003-.03.003-.04.003-.013 0-.021.003-.021.01 0 .012.01.015.023.015.042 0 .105-.005.13-.005.024 0 .083.005.138.005.02 0 .032-.003.032-.015 0-.007-.01-.01-.02-.01a.3.3 0 0 1-.055-.006c-.023-.006-.04-.017-.04-.042a.47.47 0 0 1 .004-.062l.069-.523h.005l.137.291c.016.037.12.238.151.299.02.039.034.066.046.066.012 0 .018-.012.048-.074l.287-.596h.006l.079.578c.004.037 0 .054-.007.056-.01.004-.014.009-.014.015 0 .008.008.012.038.015.053.004.234.009.267.009.018 0 .034-.004.034-.015 0-.009-.009-.01-.021-.01zm1.696 0a.285.285 0 0 1-.082-.013c-.039-.012-.052-.05-.064-.132l-.12-.813c-.003-.028-.012-.04-.023-.04-.012 0-.02.01-.03.03l-.356.752-.36-.742c-.017-.033-.024-.04-.035-.04-.01 0-.018.011-.022.034l-.13.857c-.007.045-.017.095-.054.104-.02.003-.03.003-.04.003-.013 0-.02.003-.02.01 0 .012.01.015.023.015.042 0 .105-.005.13-.005.023 0 .082.005.138.005.02 0 .032-.003.032-.015 0-.007-.01-.01-.02-.01a.309.309 0 0 1-.055-.006c-.022-.006-.039-.017-.039-.042 0-.02.002-.038.004-.062l.068-.523h.006l.136.291c.016.037.12.238.152.299.02.039.034.066.046.066.012 0 .018-.012.048-.074l.286-.596h.006l.078.578c.006.037.001.054-.006.056-.01.004-.014.009-.014.015 0 .008.007.012.038.015.052.004.234.009.268.009.018 0 .033-.004.033-.015-.002-.009-.01-.01-.022-.01zm1.362-.97c-.052 0-.134.005-.15.005 0 0-.084-.005-.151-.005-.018 0-.027.003-.027.012 0 .01.007.012.022.012.014 0 .037.001.048.004.043.01.053.031.056.076.003.042.003.078.003.28v.164c0 .136-.004.254-.077.326a.253.253 0 0 1-.18.071.242.242 0 0 1-.164-.054c-.064-.052-.103-.133-.103-.323v-.185c0-.2 0-.237.003-.28.003-.045.013-.068.049-.075a.18.18 0 0 1 .037-.004c.013 0 .022-.002.022-.012s-.01-.012-.03-.012c-.047 0-.13.005-.161.005-.04 0-.123-.005-.193-.005-.02 0-.029.003-.029.012 0 .01.009.012.023.012.018 0 .04.001.051.004.043.01.054.031.056.076.003.042.003.078.003.28v.192c0 .19.05.288.118.349.096.084.221.088.29.088a.4.4 0 0 0 .274-.092c.11-.095.124-.25.124-.396v-.142c0-.2 0-.237.003-.28.002-.045.013-.068.048-.075a.184.184 0 0 1 .039-.004c.015 0 .023-.002.023-.012.001-.01-.008-.012-.027-.012zm1.572 0c-.064 0-.115.005-.129.005-.028 0-.091-.005-.159-.005-.02 0-.034.002-.034.012 0 .009.005.012.02.012.02 0 .05 0 .07.009.032.013.044.038.045.118l.014.59h-.007c-.022-.021-.2-.21-.289-.3-.192-.19-.392-.404-.407-.421-.022-.025-.033-.041-.048-.041-.013 0-.017.018-.017.045l-.012.778c-.001.114-.007.153-.04.163a.22.22 0 0 1-.06.006c-.012 0-.02.003-.02.01 0 .013.011.015.03.015.067 0 .13-.005.14-.005.026 0 .078.005.163.005.018 0 .03-.003.03-.014 0-.008-.008-.01-.023-.01a.208.208 0 0 1-.068-.01c-.026-.01-.043-.043-.046-.146l-.015-.551h.004c.024.025.17.189.312.33.137.136.305.308.388.387.014.015.03.03.045.03.012 0 .017-.013.017-.042l.015-.829c.002-.074.012-.1.049-.112.016-.004.026-.004.039-.004.016 0 .023-.003.023-.012 0-.011-.013-.013-.03-.013zm.94.97a.77.77 0 0 1-.067-.004c-.04-.005-.049-.03-.053-.065-.005-.057-.005-.16-.005-.288v-.23c0-.2 0-.237.003-.28.002-.045.013-.067.048-.074a.206.206 0 0 1 .04-.004c.012 0 .02-.003.02-.014 0-.008-.01-.01-.028-.01-.05 0-.127.004-.16.004-.04 0-.122-.005-.173-.005-.02 0-.032.003-.032.011 0 .011.009.014.022.014.016 0 .033.001.047.005.029.007.042.029.044.074.003.042.003.078.003.279v.23c0 .128 0 .232-.006.287-.004.039-.012.061-.039.066-.012.002-.028.005-.047.005-.016 0-.022.003-.022.01 0 .01.01.014.026.014.053 0 .136-.005.167-.005.035 0 .119.005.205.005.014 0 .026-.004.026-.014.002-.007-.005-.01-.019-.01zm1.41-.978c-.01 0-.041.013-.125.013h-.521a1.35 1.35 0 0 1-.132-.007c-.033-.003-.046-.016-.057-.016-.008 0-.012.009-.016.026a1.64 1.64 0 0 0-.028.151c0 .014.003.02.012.02.009 0 .012-.004.015-.015a.163.163 0 0 1 .023-.046c.02-.03.05-.036.127-.038l.196-.005v.538c0 .121 0 .225-.006.28-.004.038-.013.067-.039.072-.012.002-.028.005-.048.005-.015 0-.02.003-.02.01 0 .01.01.014.026.014.052 0 .136-.005.166-.005.036 0 .12.005.206.005.014 0 .025-.004.025-.014 0-.007-.006-.01-.02-.01a.775.775 0 0 1-.067-.005c-.04-.006-.047-.035-.052-.071-.006-.057-.006-.161-.006-.282v-.538l.165.004c.117.002.152.039.155.073l.001.015c.001.02.005.026.015.026.008 0 .011-.009.012-.022l.004-.152c0-.019 0-.026-.01-.026zm.947.979a.775.775 0 0 1-.067-.005c-.04-.005-.05-.03-.053-.065-.005-.057-.005-.16-.005-.288v-.23c0-.2 0-.237.002-.28.003-.045.013-.067.049-.074a.205.205 0 0 1 .04-.004c.012 0 .02-.003.02-.014 0-.008-.01-.01-.027-.01-.05 0-.127.004-.161.004-.038 0-.122-.005-.171-.005-.022 0-.032.003-.032.011 0 .011.007.014.02.014a.19.19 0 0 1 .048.005c.03.007.042.029.045.074.003.042.003.078.003.279v.23c0 .128 0 .232-.007.287-.003.039-.012.061-.038.066-.012.002-.028.005-.048.005-.016 0-.02.003-.02.01 0 .01.01.014.026.014.052 0 .136-.005.166-.005.036 0 .12.005.206.005.014 0 .025-.004.025-.014 0-.007-.007-.01-.021-.01zm1.292-.177c-.01-.001-.012.005-.014.019-.01.054-.025.08-.06.097-.034.016-.089.016-.122.016-.135 0-.156-.02-.159-.11v-.308c0-.009.002-.013.008-.013.032 0 .162 0 .187.003.049.005.067.026.074.052.004.017.004.034.005.047 0 .006.003.012.013.012.012 0 .012-.014.012-.026l.004-.087c.004-.067.01-.087.01-.095 0-.008-.003-.01-.009-.01-.006 0-.012.006-.021.017-.012.013-.032.017-.064.02-.03.002-.181.002-.21.002-.008 0-.01-.006-.01-.014v-.333c0-.01.003-.013.01-.013.026 0 .163.003.186.006.065.007.078.023.088.047a.142.142 0 0 1 .007.047c0 .012.003.019.012.019.01 0 .013-.008.014-.014l.006-.087c.004-.06.01-.076.01-.084 0-.007 0-.012-.007-.012s-.015.003-.022.005a.376.376 0 0 1-.056.008h-.327c-.036 0-.12-.003-.189-.003-.02 0-.029.003-.029.011 0 .01.009.012.023.012.018 0 .04.001.051.004.043.01.053.03.057.075.003.042.003.078.003.279v.23c0 .121 0 .225-.007.28-.004.038-.01.067-.038.072a.193.193 0 0 1-.047.005c-.015 0-.02.004-.02.01 0 .01.01.015.026.015.052 0 .135-.004.165-.004.076 0 .165.008.363.008.05 0 .062 0 .071-.034a1.03 1.03 0 0 0 .017-.146c0-.014 0-.025-.011-.025zm.95-.398-.037-.028c-.11-.084-.14-.13-.14-.19 0-.08.06-.136.157-.136.085 0 .123.04.143.065a.162.162 0 0 1 .034.087c0 .015.003.023.013.023.01 0 .014-.01.014-.04 0-.102.005-.14.005-.156 0-.01-.006-.013-.018-.016a.618.618 0 0 0-.174-.023c-.182 0-.303.103-.303.248 0 .107.05.198.194.312l.06.048c.11.084.13.146.13.21 0 .07-.059.15-.177.15-.08 0-.158-.036-.187-.133a.276.276 0 0 1-.012-.066c0-.011-.002-.023-.013-.023-.01 0-.014.014-.016.034a2.47 2.47 0 0 0-.006.172c0 .029.004.036.024.044a.463.463 0 0 0 .192.034c.07 0 .143-.012.208-.054a.265.265 0 0 0 .123-.229c0-.123-.057-.212-.214-.334zm-13.026-1.64c-.016 0-.02.008-.026.042a.349.349 0 0 1-.072.14c-.084.095-.199.117-.387.117-.284 0-.666-.248-.666-.749 0-.204.04-.404.194-.545.093-.084.214-.13.398-.13.193 0 .358.056.428.13.052.055.08.129.082.194 0 .03.005.047.02.047.02 0 .023-.017.025-.048.004-.042.002-.158.007-.228.004-.074.01-.1.01-.116 0-.014-.008-.024-.03-.026-.064-.006-.13-.025-.211-.036a2.027 2.027 0 0 0-.306-.022c-.314 0-.515.085-.668.225a.793.793 0 0 0-.247.578c0 .205.055.442.263.624.192.16.434.224.723.224.137 0 .296-.015.381-.048.036-.015.044-.025.056-.062.02-.072.045-.255.045-.28-.001-.016-.005-.031-.02-.031zm2.766.358c.017 0 .027.002.027.017 0 .016-.018.02-.097.02-.076 0-.23 0-.4-.004-.037-.001-.063-.001-.063-.016 0-.014.009-.017.03-.02.015-.004.03-.022.019-.048l-.17-.451c-.004-.01-.01-.015-.02-.015h-.472c-.01 0-.015.005-.019.017l-.114.304a.409.409 0 0 0-.031.13c0 .038.018.066.084.066h.031c.026 0 .032.004.032.017 0 .016-.013.02-.035.02-.068 0-.158-.007-.225-.007-.023 0-.139.007-.248.007-.027 0-.04-.004-.04-.02 0-.014.008-.017.025-.017a.751.751 0 0 0 .065-.004c.097-.013.137-.085.18-.192l.53-1.328c.025-.062.038-.085.059-.085.018 0 .031.019.052.067.05.116.389.978.523 1.3.08.192.142.222.186.232a.4.4 0 0 0 .091.01zm-.713-.622c.01 0 .013-.006.01-.013l-.19-.522c-.002-.008-.003-.018-.01-.018-.006 0-.011.01-.013.018l-.194.52c-.002.009 0 .015.008.015h.389zm3.82.622a.426.426 0 0 1-.13-.02c-.064-.02-.084-.081-.104-.214l-.192-1.306c-.007-.044-.02-.065-.039-.065s-.032.016-.047.05l-.575 1.206-.576-1.192c-.027-.055-.04-.065-.057-.065s-.03.018-.036.055l-.21 1.377c-.01.072-.027.154-.087.167-.032.007-.047.007-.064.007-.021 0-.033.004-.033.015 0 .018.016.022.038.022.067 0 .17-.007.21-.007.038 0 .133.007.222.007.032 0 .05-.004.05-.022 0-.01-.015-.015-.031-.015a.408.408 0 0 1-.09-.01c-.035-.009-.063-.028-.063-.068a.75.75 0 0 1 .007-.099l.11-.841h.008c.074.158.201.424.22.469.025.059.193.382.243.48.034.063.055.105.074.105.019 0 .03-.018.079-.117l.46-.96h.009l.126.93c.009.058.002.086-.01.09-.015.007-.023.013-.023.024 0 .012.013.018.06.022.085.007.376.012.43.012.028 0 .055-.006.055-.022 0-.012-.015-.015-.033-.015zm1.836 0a.792.792 0 0 1-.108-.008c-.062-.008-.075-.055-.082-.115-.01-.091-.01-.259-.01-.454v-.847c0-.023.006-.036.017-.04a.287.287 0 0 1 .082-.009c.049 0 .135.013.21.083a.41.41 0 0 1 .125.317c0 .216-.165.35-.283.35-.044 0-.059.007-.059.024 0 .014.015.016.026.018a.497.497 0 0 0 .564-.51.365.365 0 0 0-.106-.252c-.034-.032-.13-.12-.393-.12-.097 0-.219.008-.306.008-.058 0-.191-.007-.302-.007-.032 0-.047.003-.047.018s.012.019.035.019a.4.4 0 0 1 .083.006c.07.015.086.05.09.121.004.068.004.127.004.448v.373c0 .197 0 .364-.01.453-.009.061-.019.107-.062.115a.383.383 0 0 1-.076.008c-.025 0-.033.006-.033.017 0 .014.015.02.042.02.084 0 .217-.007.265-.007.055 0 .187.007.327.007.024 0 .04-.006.04-.02 0-.01-.01-.016-.033-.016zm3.345-1.561c-.082 0-.215.007-.241.007-.002 0-.136-.008-.244-.008-.03 0-.044.004-.044.02 0 .014.013.018.035.018.024 0 .06.002.077.006.07.015.087.05.09.121.005.067.005.127.005.449v.264c0 .218-.006.409-.123.526a.414.414 0 0 1-.293.114.393.393 0 0 1-.265-.087c-.104-.085-.166-.213-.166-.52v-.297c0-.322 0-.382.005-.449.004-.074.022-.11.079-.12.025-.004.038-.007.061-.007.022 0 .034-.005.034-.019 0-.015-.015-.018-.047-.018-.075 0-.21.007-.26.007-.063 0-.196-.008-.308-.008-.032 0-.047.004-.047.02 0 .014.013.018.036.018.03 0 .065.002.082.006.07.015.087.05.09.121.005.067.005.127.005.449v.308c0 .307.08.464.187.561.154.137.358.142.47.142a.644.644 0 0 0 .442-.148c.177-.153.2-.402.2-.638v-.226c0-.322 0-.381.004-.449.003-.074.021-.11.078-.12.025-.004.037-.007.06-.007.026 0 .038-.005.038-.019.005-.014-.01-.018-.04-.018zm1.85.634-.06-.044c-.174-.132-.222-.206-.222-.302 0-.128.094-.217.25-.217.138 0 .2.063.231.103a.26.26 0 0 1 .055.14c0 .025.007.037.022.037.017 0 .023-.017.023-.064 0-.168.009-.23.009-.256 0-.015-.01-.02-.03-.025-.058-.012-.146-.034-.282-.034-.292 0-.487.167-.487.399 0 .17.08.318.313.499l.096.076c.174.134.206.233.206.337 0 .111-.093.24-.282.24-.132 0-.257-.057-.303-.213a.456.456 0 0 1-.018-.107c0-.017-.002-.036-.021-.036-.017 0-.023.024-.025.055-.002.034-.01.161-.01.277 0 .047.005.057.039.072.09.04.186.054.308.054.111 0 .23-.018.334-.086a.425.425 0 0 0 .198-.366c0-.201-.093-.342-.345-.539z" fill="#003C71"/></svg>