<svg width="36" height="36" fill="none" xmlns="http://www.w3.org/2000/svg"><path d="M18 0c2.837 0 5.52.656 7.907 1.825C31.884 4.753 36 10.895 36 18c0 9.942-8.058 18-18 18-9.94 0-18-8.057-18-18C0 8.06 8.06 0 18 0z" fill="#F2F4F7"/><g fill="#0E315F"><path d="M11.137 16.852h-1.85l1.129 2.167 1.153-1.219-.432-.948zm-.107 3.398.41.918h1.878l-1.133-2.149-1.156 1.23z"/><path d="M8.335 21.168h1.877l.817-.919-.613-1.23-2.081 2.149zm5.935-4.316h-1.85l-.85.948.615 1.219 2.086-2.167zm-8.272 3.45c-.214 0-.617 0-.518-.468.084-.395.368-.452.713-.452l.772.001-.083.393c-.096.453-.292.526-.884.526zm.875-3.502c-1.011 0-1.987-.008-2.272 1.332h1.414c.082-.386.321-.468.675-.468.616 0 .587.254.501.657l-.057.278H5.892c-1.02 0-1.62.295-1.834 1.276-.242 1.1.29 1.34 1.277 1.34.493 0 1.155-.099 1.388-.69h.05l-.186.64h1.414l.573-2.696c.316-1.488-.254-1.669-1.7-1.669zm17.524 4.366h-1.414L24.293 15h1.415l-1.31 6.166zm3.324-5.081h-1.414l.23-1.085h1.415l-.23 1.085zm-1.08 5.08h-1.413l.917-4.316h1.414l-.917 4.317zm-5.809-3.378c.477 0 .707.04.57.682h-1.389c.137-.567.318-.682.82-.682zm.317 1.983c-.105.412-.39.459-.811.459-.584 0-.651-.223-.49-.979h2.803l.05-.238c.374-1.76-.015-2.212-1.634-2.212-1.735 0-2.23.551-2.583 2.212-.343 1.611-.058 2.203 1.644 2.203.625 0 1.162-.05 1.575-.255.407-.209.695-.567.837-1.19h-1.39m9.14-2.97c-1.2 0-2.118.025-2.413 1.414-.187.88.048 1.283 1.84 1.283.494 0 .74 0 .65.427-.072.338-.18.378-.821.378-.332 0-.671 0-.605-.43h-1.416c-.265 1.367.724 1.343 1.827 1.343 1.134 0 2.153-.189 2.422-1.455.257-1.209-.375-1.29-1.831-1.324-.72-.016-.705-.164-.66-.378.054-.255.074-.345.814-.345.212 0 .499 0 .5.316h1.34l.034-.16c.225-1.06-.891-1.069-1.68-1.069m-13.895 2.74c-.102.453-.2.589-.799.589-.534 0-.626-.107-.411-1.119.21-.986.387-1.126.889-1.126.296 0 .454.033.533.123.08.09.074.23.017.46h1.415c.326-1.537-.493-1.669-1.735-1.669-1.768 0-2.223.749-2.534 2.212-.362 1.703-.074 2.204 1.596 2.204.765 0 1.292-.04 1.673-.287.371-.228.601-.646.77-1.387h-1.414"/></g></svg>