<svg width="36" height="36" fill="none" xmlns="http://www.w3.org/2000/svg"><path d="M18 0c2.837 0 5.52.656 7.907 1.825C31.884 4.753 36 10.895 36 18c0 9.942-8.058 18-18 18-9.94 0-18-8.057-18-18C0 8.06 8.06 0 18 0z" fill="#F2F4F7"/><path d="M17.04 16.272c-.001-.168-.096-.271-.272-.271H15.59c-.633 0-.906.27-.906.905v1.268c0 .25-.112.362-.37.362h-1.531c-.164 0-.272.105-.272.274 0 .162.104.269.268.269h1.535c.63 0 .913-.271.913-.905v-1.268c0-.27.098-.362.363-.362h1.177c.176 0 .27-.106.272-.272zM7.622 16H4.905c-.543 0-.905.363-.905.906v1.268c0 .544.362.905.905.904H7.08c.18.001.361-.18.361-.36v-.634a.262.262 0 0 0-.265-.272c-.17 0-.278.106-.278.271v.453H4.905a.39.39 0 0 1-.362-.362v-1.268a.39.39 0 0 1 .362-.362h2.717a.39.39 0 0 1 .362.362v1.902c0 .143.11.271.272.271.154 0 .271-.086.271-.271v-1.902c0-.543-.362-.905-.905-.906zm9.961 2.174c0 .634.266.905.905.905h3.35c.164 0 .272-.105.272-.273 0-.162-.104-.27-.268-.27h-3.354c-.272-.004-.362-.097-.362-.362v-1.268c0-.27.098-.362.362-.362h2.717c.255 0 .362.095.362.362 0 .272-.095.362-.362.362h-2.262c-.182 0-.272.092-.272.272 0 .174.093.272.272.272h2.262c.641 0 .905-.272.905-.906 0-.633-.273-.905-.905-.905h-2.717c-.65 0-.905.271-.905.905v1.268zm5.071 0c0 .634.266.905.905.905h3.044c.163 0 .271-.105.271-.273 0-.162-.094-.27-.268-.27H23.56c-.271-.004-.363-.097-.363-.362v-1.268c0-.264.092-.358.363-.362h3.04c.164 0 .272-.104.272-.271 0-.163-.105-.272-.269-.272H23.56c-.64 0-.906.27-.906.905v1.268zm4.819-.004c0 .633.266.91.905.91h2.716c.64 0 .906-.276.906-.91v-1.268c0-.634-.266-.902-.905-.902h-2.717c-.639 0-.905.268-.905.902v1.267zm.905.365c-.271-.003-.362-.102-.362-.366v-1.267c0-.265.09-.354.362-.358h2.716c.272.004.363.097.363.362v1.263c0 .264-.091.363-.363.367h-2.716zm-14.78-2.263c0-.168-.096-.271-.272-.271h-1.177c-.633 0-.906.27-.906.905v1.268c0 .25-.112.362-.37.362H9.332c-.163 0-.261.105-.261.274 0 .162.098.269.261.269h1.543c.63 0 .912-.271.912-.905v-1.268c0-.27.098-.362.363-.362h1.177c.177 0 .271-.106.272-.272z" fill-rule="evenodd" clip-rule="evenodd" fill="#1D1E1C"/></svg>