<svg width="36" height="36" fill="none" xmlns="http://www.w3.org/2000/svg"><path d="M18 0c2.837 0 5.52.656 7.907 1.825C31.884 4.753 36 10.895 36 18c0 9.942-8.058 18-18 18-9.94 0-18-8.057-18-18C0 8.06 8.06 0 18 0z" fill="#F2F4F7"/><path d="m17.473 9.494.539.454.538-.468-.014-2.651H17.46l.014 2.665zm.524-3.105a.696.696 0 0 0 .695-.694.699.699 0 0 0-.709-.695.696.696 0 0 0-.695.695.718.718 0 0 0 .71.694zm-5.033 3.63h1.404s-.227-.227-1.092-1.149c-.496-.524-.538-.935.085-.935h.142l.709-1.064s-.61-.014-.865-.014c-1.673 0-1.97 1.645-1.134 2.439.638.581.751.723.751.723zm9.684-2.127c.623 0 .58.411.085.936l-1.078 1.148h1.404s.127-.127.751-.737c.837-.794.525-2.438-1.134-2.438-.27 0-.865.028-.865.028l.709 1.063h.128zm3.827 13.072a6.949 6.949 0 0 1-.255 3.8c-.553 1.53-1.403 2.565-2.467 2.962-.24.085-.68.227-1.233.241-.354 0-.822-.127-1.12-.269-.17-.07-.525-.241-.525-.241-.95-.525-2.296-1.588-2.282-2.297 0-.24.553-.638 1.02-.652.653 0 1.177-.539 1.177-1.19v-.058l-.24-1.035-.015-.028c-.17-.567-.61-2.495.893-3.36l1.305-.624-.468-.978-1.333.638-.042.014c-1.49.85-2.014 2.566-1.418 4.608l.198.879a.096.096 0 0 1-.085.057c-.44 0-.936.17-1.332.453a1.433 1.433 0 0 0-.227.185c-.44-.397-1.078-.624-1.574-.61a.096.096 0 0 1-.085-.057l.198-.879c.582-2.041.043-3.757-1.46-4.593l-1.36-.638-.454.978 1.304.61c1.503.85 1.091 2.778.921 3.36l-.24 1.063v.057c0 .652.538 1.177 1.19 1.177.454 0 1.021.382 1.021.637.014.71-1.318 1.773-2.268 2.311-.085.043-.185.1-.27.142-.312.184-.78.383-1.332.383-.142 0-.653.014-1.29-.227-1.064-.411-1.943-1.418-2.496-2.949a6.803 6.803 0 0 1-.127-4.437c.127-.454.44-1.12.425-1.134.695-1.49 1.843-2.879 3.317-4.055.029-.014 2.212-1.716 4.027-2.92l-2.467-1.674h-1.701c-1.46.142-2.737.695-3.757 1.673-1.035.95-1.66 2.722-1.532 4.423a5.93 5.93 0 0 0 .51 2.014c.171-.34.398-.78.696-1.29a4.33 4.33 0 0 1-.128-.809c-.1-1.36.383-2.82 1.177-3.544.85-.808 1.9-1.262 3.104-1.39l3.049-.013c-1.744 1.19-3.616 2.65-3.644 2.665-1.22.978-2.226 2.07-2.963 3.26-.468.78-.922 1.787-.907 1.801-.738 1.928-.766 3.927-.085 5.799.85 2.325 2.169 3.232 3.133 3.587.468.17.978.255 1.488.255.78 0 1.46-.255 1.447-.255.226-.085.652-.241.864-.369.199-.113 1.531-.879 2.283-1.886.751.979 2.041 1.716 2.282 1.858 0 0 .582.34 1.05.482.524.142 1.091.142 1.276.142.51 0 1.006-.1 1.488-.27.964-.369 2.283-1.29 3.105-3.615.596-1.659.624-3.403.113-5.118-.226.298-.51.624-.879.95zM15.686 10.288l3.445 2.467.27.17a82.477 82.477 0 0 1 3.119 2.254c1.304 1.007 2.34 2.198 3.062 3.474a4.1 4.1 0 0 0 .553-1.191c-.751-1.148-1.744-2.212-2.949-3.147a84.625 84.625 0 0 0-2.864-2.085c-.623-.382-2.466-1.63-2.466-1.63-.88-.567-2.141-1.73-2.141-1.73-.468-.453-.525-.95.042-.95h1.106V6.844h-1.091c-1.773.014-2.042 1.475-1.078 2.51.369.41.992.935.992.935zm4.906 18.884c-.652.54-1.659.766-2.538.78-.865-.014-1.843-.227-2.495-.723-.298.114-.737.27-1.177.369.397.482.95.85 1.659 1.106a6.493 6.493 0 0 0 1.914.34h.24a6.583 6.583 0 0 0 1.915-.355c.709-.255 1.262-.637 1.659-1.134a7.667 7.667 0 0 1-1.177-.383zm5.813-16.956c-1.021-.935-2.255-1.488-3.672-1.63l-.128-.014h-.198l-2.496.014c.255-.199.51-.397.766-.61 0 0 .042-.014.156-.127.113-.1.312-.34.312-.34.056-.057.113-.128.184-.2.978-1.034.695-2.494-1.077-2.494H19.16v1.077h1.106c.595 0 .41.51 0 1.035a19.79 19.79 0 0 1-1.787 1.375 35.78 35.78 0 0 0 2.07 1.361l2.014-.014c1.205.114 2.254.567 3.119 1.361.793.723 1.29 2.17 1.205 3.53a5.095 5.095 0 0 1-.298 1.404c-.199.524-.553 1.233-1.177 1.73l-.014.014a4.61 4.61 0 0 1-.496.397c-2.85 1.999-3.063 4.55-3.176 5.912-.014.113-.014.227-.028.326 0 .056-.015.127-.015.184-.014.17-.028.383-.07.596.269.141.652.269 1.063.226a9.14 9.14 0 0 0 .085-.737c0-.056.014-.127.014-.17.014-.113.014-.227.029-.354.113-1.347.297-3.403 2.693-5.104l.057-.057c1.318-.95 1.829-2.098 1.829-2.112.014-.029.028-.043.042-.057.326-.666.51-1.404.567-2.17.085-1.644-.553-3.416-1.587-4.352zm-11.91 14.986c-.042-.227-.056-.454-.084-.624 0-.07-.015-.128-.015-.184a2.323 2.323 0 0 1-.028-.326c-.128-1.361-.369-3.913-3.232-5.884a3.972 3.972 0 0 1-.525-.411c-.17.425-.284.822-.34 1.12.085.057.156.127.24.184 2.453 1.687 2.638 3.743 2.765 5.09.014.127.029.24.029.354 0 .057.014.114.014.17.014.199.042.454.1.724a1.96 1.96 0 0 0 1.076-.213" fill="#00C81E"/></svg>