<svg width="36" height="36" fill="none" xmlns="http://www.w3.org/2000/svg"><path d="M18 0c2.837 0 5.52.656 7.907 1.825C31.884 4.753 36 10.895 36 18c0 9.942-8.058 18-18 18-9.94 0-18-8.057-18-18C0 8.06 8.06 0 18 0z" fill="#F2F4F7"/><g fill-rule="evenodd" clip-rule="evenodd"><path d="M6.918 14.111c-2.297.545-3.544 3.052-2.59 5.207.595 1.345 1.965 2.253 3.397 2.253h.148v-2.309h-.315v.77h-.42l-.002-.383-.003-.382-.44-.003-.441-.003v-.431l.19-.001c.23-.001.284-.013.317-.07.03-.051.038-1.994.008-2.079-.026-.074-.057-.083-.302-.088l-.213-.005v-.429l.44-.003.44-.003.004-1.04.002-1.042h-.026c-.014.001-.102.02-.194.041zm14.221.695c-.936.098-1.665.967-1.605 1.912.085 1.333 1.302 2.092 2.598 1.62.152-.055.395-.167.409-.188a1.41 1.41 0 0 0 .003-.29 1.203 1.203 0 0 0-.179.078c-.89.44-1.666.356-2.147-.232-.948-1.161-.024-2.883 1.41-2.628.252.045.794.25.88.334.035.034.042.01.042-.135v-.145l-.091-.046c-.465-.234-.891-.324-1.32-.28zm3.645.007c-1.372.178-2.08 1.703-1.319 2.844.805 1.207 2.681 1.052 3.272-.27.588-1.313-.511-2.761-1.953-2.574zm-12.288 1.826.003 1.777h.642c.688 0 .79-.007.988-.06.955-.253.983-1.438.041-1.753-.162-.054-.161-.052-.06-.11.56-.317.559-1.146-.001-1.466-.246-.14-.4-.164-1.09-.164h-.526l.003 1.776zm3.217.003v1.78h.292v-3.559h-.292v1.78zm.747-1.65v.128h1.33v3.302h.315V15.12l.668-.003.668-.003.003-.125.004-.126H16.46v.129zm11.282 1.65v1.78h.291v-3.559h-.291v1.78zm1.248 0v1.78h.28l.003-1.567.003-1.565.106.134.151.193.256.325.263.333.455.578.455.577a140.177 140.177 0 0 0 .721.913l.064.08.123-.004.124-.003.003-1.777.003-1.776h-.28l-.003 1.542-.003 1.543-.24-.303a357.31 357.31 0 0 1-.828-1.05 898.98 898.98 0 0 1-1.245-1.577l-.122-.155h-.289v1.78zm-3.683-1.561c1.24.232 1.706 1.806.798 2.698-.869.851-2.321.409-2.6-.793-.253-1.089.712-2.11 1.802-1.905zm-11.84.015c.435.037.69.236.741.578a.668.668 0 0 1-.361.715c-.173.086-.189.088-.645.093l-.405.004v-.693c0-.38.003-.696.008-.7.011-.012.515-.01.662.003zm.374 1.666c.528.119.788.503.64.948-.12.36-.417.466-1.308.466h-.376v-.715c0-.394.004-.72.008-.724.022-.022.926 0 1.036.025zm-6.283 1.607v.46h.33c.443 0 .545-.018.66-.122.167-.15.171-.525.008-.669-.124-.109-.23-.13-.665-.13h-.333v.461zm5.74.772c-.48.08-.796.434-.795.89.001.727.78 1.12 1.498.757l.044-.022v-.665l-.254.003-.254.003v.117l.185.003.184.003-.004.23-.003.23-.101.038c-.74.276-1.389-.366-1.058-1.047.203-.417.709-.534 1.213-.279.09.046.092.046.092-.036v-.071l-.073-.033c-.219-.1-.5-.15-.674-.12zm5.56.009c-.89.174-1.032 1.347-.206 1.705.66.285 1.385-.281 1.258-.982a.916.916 0 0 0-1.052-.723zm10.085.017c-.286.092-.414.37-.29.627.056.118.141.178.439.308.25.109.317.18.318.339 0 .357-.375.454-.755.195l-.05-.034v.174l.102.052c.412.21.828.042.852-.346.016-.26-.086-.38-.454-.538-.285-.123-.352-.189-.35-.351.001-.292.316-.408.643-.238.111.058.105.06.105-.028v-.074l-.078-.036a.702.702 0 0 0-.482-.05zm-13.346.864v.864h.14l.002-.411.003-.412.158.001c.3.002.3.003.705.626l.127.196h.08c.062 0 .079-.004.072-.015l-.142-.218-.241-.368c-.11-.168-.14-.205-.196-.245l-.033-.024.07-.031c.322-.149.338-.62.025-.76-.12-.055-.203-.066-.499-.066h-.271v.864zm5.8-.271.005.592.03.096c.206.664 1.175.645 1.37-.027.018-.06.021-.144.025-.66l.004-.593h-.153v.564c0 .617 0 .63-.07.768-.189.372-.804.376-.994.005-.063-.124-.06-.1-.067-.736l-.006-.595-.074-.003-.073-.004.004.593zm3.008.271v.864h.14v-.805h.226c.427 0 .605-.124.623-.431.02-.365-.166-.49-.73-.49h-.259v.863zm6.627 0v.864l.48-.003.482-.003.002-.055v-.056h-.813v-.7l.382-.003.383-.003v-.105l-.383-.003-.382-.003v-.676l.394-.003.394-.003.003-.055.004-.056h-.946v.864zm-11.851-.747c.84.215.744 1.452-.116 1.512-.536.038-.933-.484-.767-1.01.115-.363.522-.594.883-.502zm-3.03.014c.221.04.33.204.27.408-.05.17-.158.224-.465.23l-.22.004v-.655h.173c.096 0 .204.006.242.012zm8.887.02c.14.056.2.145.2.305.002.253-.117.339-.486.348l-.207.005v-.694l.213.005c.185.005.222.009.28.032z" fill="#5F6772"/><path d="M7.68 14.008a.854.854 0 0 0-.095.01l-.027.006v2.134h.315v-.654l.207.004.208.003.003.322.003.322.137.007c.69.04.989.26.987.725-.001.326-.248.63-.58.713-.05.012-.048.026.006.04.49.124.714.352.73.741.024.58-.308.837-1.126.877l-.155.007v2.275l.067-.008c.482-.056 1.102-.299 1.564-.613 2.022-1.372 2.232-4.274.428-5.92-.722-.658-1.742-1.037-2.671-.99zm-.122 3.018v.416h.213c.594-.002.726-.08.726-.426 0-.33-.094-.39-.62-.4l-.319-.006v.416z" fill="#F29200"/><path d="M6.918 14.111c-2.297.545-3.544 3.052-2.59 5.207.595 1.345 1.965 2.253 3.397 2.253h.148v-2.309h-.315v.77h-.42l-.002-.383-.003-.382-.44-.003-.441-.003v-.431l.19-.001c.23-.001.284-.013.317-.07.03-.051.038-1.994.008-2.079-.026-.074-.057-.083-.302-.088l-.213-.005v-.429l.44-.003.44-.003.004-1.04.002-1.042h-.026c-.014.001-.102.02-.194.041zm14.221.695c-.936.098-1.665.967-1.605 1.912.085 1.333 1.302 2.092 2.598 1.62.152-.055.395-.167.409-.188a1.41 1.41 0 0 0 .003-.29 1.203 1.203 0 0 0-.179.078c-.89.44-1.666.356-2.147-.232-.948-1.161-.024-2.883 1.41-2.628.252.045.794.25.88.334.035.034.042.01.042-.135v-.145l-.091-.046c-.465-.234-.891-.324-1.32-.28zm3.645.007c-1.372.178-2.08 1.703-1.319 2.844.805 1.207 2.681 1.052 3.272-.27.588-1.313-.511-2.761-1.953-2.574zm-12.288 1.826.003 1.777h.642c.688 0 .79-.007.988-.06.955-.253.983-1.438.041-1.753-.162-.054-.161-.052-.06-.11.56-.317.559-1.146-.001-1.466-.246-.14-.4-.164-1.09-.164h-.526l.003 1.776zm3.217.003v1.78h.292v-3.559h-.292v1.78zm.747-1.65v.128h1.33v3.302h.315V15.12l.668-.003.668-.003.003-.125.004-.126H16.46v.129zm11.282 1.65v1.78h.291v-3.559h-.291v1.78zm1.248 0v1.78h.28l.003-1.567.003-1.565.106.134.151.193.256.325.263.333.455.578.455.577a140.177 140.177 0 0 0 .721.913l.064.08.123-.004.124-.003.003-1.777.003-1.776h-.28l-.003 1.542-.003 1.543-.24-.303a357.31 357.31 0 0 1-.828-1.05 898.98 898.98 0 0 1-1.245-1.577l-.122-.155h-.289v1.78zm-3.683-1.561c1.24.232 1.706 1.806.798 2.698-.869.851-2.321.409-2.6-.793-.253-1.089.712-2.11 1.802-1.905zm-11.84.015c.435.037.69.236.741.578a.668.668 0 0 1-.361.715c-.173.086-.189.088-.645.093l-.405.004v-.693c0-.38.003-.696.008-.7.011-.012.515-.01.662.003zm.374 1.666c.528.119.788.503.64.948-.12.36-.417.466-1.308.466h-.376v-.715c0-.394.004-.72.008-.724.022-.022.926 0 1.036.025zm-6.283 1.607v.46h.33c.443 0 .545-.018.66-.122.167-.15.171-.525.008-.669-.124-.109-.23-.13-.665-.13h-.333v.461zm5.74.772c-.48.08-.796.434-.795.89.001.727.78 1.12 1.498.757l.044-.022v-.665l-.254.003-.254.003v.117l.185.003.184.003-.004.23-.003.23-.101.038c-.74.276-1.389-.366-1.058-1.047.203-.417.709-.534 1.213-.279.09.046.092.046.092-.036v-.071l-.073-.033c-.219-.1-.5-.15-.674-.12zm5.56.009c-.89.174-1.032 1.347-.206 1.705.66.285 1.385-.281 1.258-.982a.916.916 0 0 0-1.052-.723zm10.085.017c-.286.092-.414.37-.29.627.056.118.141.178.439.308.25.109.317.18.318.339 0 .357-.375.454-.755.195l-.05-.034v.174l.102.052c.412.21.828.042.852-.346.016-.26-.086-.38-.454-.538-.285-.123-.352-.189-.35-.351.001-.292.316-.408.643-.238.111.058.105.06.105-.028v-.074l-.078-.036a.702.702 0 0 0-.482-.05zm-13.346.864v.864h.14l.002-.411.003-.412.158.001c.3.002.3.003.705.626l.127.196h.08c.062 0 .079-.004.072-.015l-.142-.218-.241-.368c-.11-.168-.14-.205-.196-.245l-.033-.024.07-.031c.322-.149.338-.62.025-.76-.12-.055-.203-.066-.499-.066h-.271v.864zm5.8-.271.005.592.03.096c.206.664 1.175.645 1.37-.027.018-.06.021-.144.025-.66l.004-.593h-.153v.564c0 .617 0 .63-.07.768-.189.372-.804.376-.994.005-.063-.124-.06-.1-.067-.736l-.006-.595-.074-.003-.073-.004.004.593zm3.008.271v.864h.14v-.805h.226c.427 0 .605-.124.623-.431.02-.365-.166-.49-.73-.49h-.259v.863zm6.627 0v.864l.48-.003.482-.003.002-.055v-.056h-.813v-.7l.382-.003.383-.003v-.105l-.383-.003-.382-.003v-.676l.394-.003.394-.003.003-.055.004-.056h-.946v.864zm-11.851-.747c.84.215.744 1.452-.116 1.512-.536.038-.933-.484-.767-1.01.115-.363.522-.594.883-.502zm-3.03.014c.221.04.33.204.27.408-.05.17-.158.224-.465.23l-.22.004v-.655h.173c.096 0 .204.006.242.012zm8.887.02c.14.056.2.145.2.305.002.253-.117.339-.486.348l-.207.005v-.694l.213.005c.185.005.222.009.28.032z" fill="#5F6772"/></g></svg>