<svg height="36" viewBox="0 0 36 36" width="36" xmlns="http://www.w3.org/2000/svg"><mask id="a" fill="#fff"><path d="M0 0h3.7v6.305H0z" fill-rule="evenodd"/></mask><mask id="b" fill="#fff"><path d="M0 6.306h28V0H0z" fill-rule="evenodd"/></mask><g fill="none" fill-rule="evenodd"><path d="M18 0c2.837 0 5.52.656 7.907 1.825C31.884 4.753 36 10.895 36 18c0 9.942-8.058 18-18 18-9.94 0-18-8.057-18-18C0 8.06 8.06 0 18 0z" fill="#f2f4f7" fill-rule="nonzero"/><g fill="#2900d2"><path d="M2.95 5.028c-.219.428-.566.64-1.042.64a.997.997 0 0 1-.851-.42C.853 4.965.75 4.577.75 4.08c0-.557.103-.976.307-1.26.205-.284.492-.426.86-.426.464 0 .809.207 1.033.62zm0-2.743c-.3-.352-.707-.527-1.22-.527a1.51 1.51 0 0 0-1.252.614c-.32.41-.478.95-.478 1.624v.057c0 .67.16 1.212.48 1.629.32.416.734.623 1.242.623.535 0 .953-.184 1.251-.55l.037.47h.69V0h-.75z" mask="url(#a)" transform="translate(8.988 15)"/><path d="M16.02 18.63h-2.196c.048-.397.175-.706.38-.925.206-.22.46-.33.763-.33.313 0 .562.104.746.314.183.21.286.504.307.884zm-1.053-1.872a1.75 1.75 0 0 0-.971.29c-.3.193-.53.46-.697.803a2.61 2.61 0 0 0-.25 1.164v.138c0 .654.186 1.176.56 1.567.372.39.856.585 1.45.585.735 0 1.286-.282 1.654-.847l-.458-.358c-.138.18-.299.323-.482.43a1.305 1.305 0 0 1-.673.163c-.373 0-.68-.133-.921-.4-.242-.266-.369-.615-.38-1.047h2.971v-.312c0-.7-.158-1.237-.474-1.614-.315-.374-.759-.562-1.329-.562zm3.653 3.449-1.115-3.368h-.766l1.589 4.385h.572l1.571-4.385h-.765z"/><path d="M16.842 6.224h.75V1.84h-.75zm.382-5.982c-.146 0-.256.041-.33.126a.449.449 0 0 0-.112.308c0 .121.037.222.111.304.075.08.185.122.33.122.146 0 .257-.04.333-.122a.43.43 0 0 0 .113-.304.443.443 0 0 0-.113-.308c-.076-.084-.186-.126-.332-.126m3.033 1.516c-.54 0-.977.21-1.312.633l-.024-.552h-.709v4.385h.75V3.1c.102-.211.245-.38.43-.51a1.08 1.08 0 0 1 .64-.195c.3 0 .52.076.661.227.142.152.214.386.217.702v2.901h.75V3.327c-.008-1.046-.475-1.569-1.403-1.569m3.08 3.779c-.073-.088-.11-.22-.11-.395V2.42h.82v-.58h-.82V.778h-.75V1.84h-.798v.58h.799v2.718c0 .374.085.661.255.864.17.203.423.304.758.304.186 0 .379-.026.576-.08V5.62c-.151.032-.27.048-.357.048-.176 0-.3-.044-.373-.132m3.759-.54a1.106 1.106 0 0 1-.458.473 1.313 1.313 0 0 1-.668.183.905.905 0 0 1-.604-.199c-.157-.131-.235-.315-.235-.55 0-.538.459-.807 1.378-.807h.587zm.75.203V3.181c-.012-.443-.16-.791-.446-1.044-.286-.252-.682-.38-1.187-.38-.32 0-.612.06-.878.18-.267.119-.476.28-.632.484a1.03 1.03 0 0 0-.233.634h.753c0-.192.091-.356.272-.49.181-.135.405-.202.673-.202.306 0 .536.077.693.232.157.156.235.365.235.627v.344h-.73c-.63 0-1.117.127-1.465.38-.347.252-.52.607-.52 1.063 0 .377.138.686.415.93.276.245.632.368 1.064.368.484 0 .9-.182 1.248-.544.027.221.063.376.106.462H28v-.066c-.103-.237-.154-.557-.154-.96zM2.577 1.284l1.014 2.76H1.586zm.34-.96h-.68L.586 4.678h4.009zM4 5.152l.393 1.073h.798L4.78 5.152zM0 6.224h.802l.385-1.072H.406z" mask="url(#b)" transform="translate(4 15)"/></g></g></svg>