<svg height="36" viewBox="0 0 36 36" width="36" xmlns="http://www.w3.org/2000/svg"><mask id="a" fill="#fff"><path d="M0 8.085h28V0H0z" fill-rule="evenodd"/></mask><g fill="none" fill-rule="evenodd"><path d="M18 0c2.837 0 5.52.656 7.907 1.825C31.884 4.753 36 10.895 36 18c0 9.942-8.058 18-18 18-9.94 0-18-8.057-18-18C0 8.06 8.06 0 18 0z" fill="#f2f4f7" fill-rule="nonzero"/><path d="m14.116 14.046-1.309 3.568h.767l.271-.768h1.265l.27.768h.768l-1.264-3.568z" fill="#000"/><path d="M14.026 16.258h.904l-.453-1.309z" fill="#fff"/><path d="m20.483 14.046-1.265 3.568h.723l.271-.768h1.31l.225.768h.768l-1.263-3.568zm-2.123 0v2.393l-1.399-2.393h-.768v3.568h.722V15.22l1.401 2.394h.767v-3.568z" fill="#000"/><path d="m20.845 14.949-.406 1.309h.857l-.406-1.31z" fill="#fff"/><path d="M26.625 14.001c1.051-.018 1.671.802 1.671 1.852 0 1.026-.62 1.846-1.67 1.851-1.059-.005-1.68-.825-1.67-1.851-.01-1.05.612-1.87 1.67-1.852zm-3.929.045h.723v2.891h1.671v.677h-2.394z" fill="#000"/><path d="M26.625 17.027c.67.017.922-.58.903-1.174.02-.618-.234-1.214-.903-1.22-.677.006-.93.602-.948 1.22.018.594.271 1.19.948 1.174" fill="#fff"/><path d="M12.806 18.472h1.445c.89-.002 1.554.574 1.536 1.761.018 1.02-.488 1.785-1.536 1.806h-1.445zm18.38-1.265a1.162 1.162 0 0 1-.947.497c-1.045-.005-1.666-.825-1.67-1.852.004-1.049.625-1.869 1.67-1.85.706-.019 1.364.428 1.445 1.218h-.723c-.078-.377-.36-.58-.722-.587-.664.006-.917.602-.904 1.22-.012.594.241 1.19.904 1.174.495.016.776-.257.812-.768h-.767v-.542h1.445v1.897h-.45z" fill="#000"/><path d="M13.529 21.363h.677c.435-.001.85-.278.859-1.084-.01-.695-.247-1.152-.994-1.175h-.542z" fill="#fff"/><path d="M0 8.04h7.587V.137H0zm25.833-1.22c.004.492.357.677.767.678.253-.001.654-.081.632-.452.023-.375-.488-.439-.993-.587-.502-.13-1.013-.333-.993-.994-.02-.731.638-1.079 1.264-1.084.701.005 1.354.328 1.354 1.129h-.722c-.026-.409-.318-.518-.678-.496-.236-.022-.513.082-.496.361-.017.293.146.328.994.542.254.079 1.017.243 1.038 1.039-.021.66-.512 1.146-1.444 1.129-.748.017-1.453-.371-1.446-1.265zm-3.479-2.348h2.575v.632h-1.806v.769h1.671v.63h-1.671v.86h1.851v.677h-2.62zm-1.037 1.174c-.026-.336-.352-.603-.723-.587-.673-.017-.926.579-.904 1.219-.022.572.231 1.168.904 1.174.457-.006.715-.333.767-.813h.723c-.069.897-.655 1.463-1.49 1.446-1.055.017-1.675-.802-1.671-1.807-.004-1.072.617-1.892 1.671-1.897.749.005 1.378.462 1.49 1.265zM17.975 8.04h.722V4.473h-.722zm-1.266 0h-.857l-1.13-3.568h.768l.768 2.484.767-2.484h.813zm-4.742-3.568h2.53v.632H12.69v.769h1.671v.63H12.69v.86h1.852v.677h-2.575z" fill="#000" mask="url(#a)" transform="translate(4 14)"/><path d="m1.67 6.82 4.652-2.755-4.651-2.71z" fill="#fff" mask="url(#a)" transform="translate(4 14)"/></g></svg>