<svg width="36" height="36" fill="none" xmlns="http://www.w3.org/2000/svg"><path d="M18 0c2.837 0 5.52.656 7.907 1.825C31.884 4.753 36 10.895 36 18c0 9.942-8.058 18-18 18-9.94 0-18-8.057-18-18C0 8.06 8.06 0 18 0z" fill="#F2F4F7"/><g fill="#D0271D"><path d="M21.343 17.906a3.391 3.391 0 0 1-3.38 3.38h-1.3V19.8h1.3a1.894 1.894 0 0 0 0-3.789h-1.3v-1.485h1.3a3.391 3.391 0 0 1 3.38 3.38zm-7.206-3.38v2.748h-2.34l-.854 1.486h4.68v-4.234h-1.486zM31 16.643a4.643 4.643 0 0 1-4.643 4.643v2.525h-4.011v-1.968a5.809 5.809 0 0 1-4.42 1.968h-3.789v-2.525h-2.971L9.68 23.81H5L11.871 12h6.092a6.061 6.061 0 0 1 4.42 1.969V12h4.011A4.636 4.636 0 0 1 31 16.643zm-13.037 5.683a4.43 4.43 0 0 0 4.011-2.526h1.895v2.526h1.04V19.8h1.485a3.153 3.153 0 0 0 3.157-3.157 3.187 3.187 0 0 0-3.194-3.157h-2.526v3.788h-1.485a4.457 4.457 0 0 0-4.383-3.788h-5.2L7.6 22.326h1.226L10.31 19.8h5.312v2.526h2.34zm8.394-7.8h-1.486v1.485h1.486a.627.627 0 0 1 .632.632.65.65 0 0 1-.632.631h-1.486v1.486h1.486a2.118 2.118 0 0 0 2.117-2.117 2.14 2.14 0 0 0-2.117-2.117z"/><path d="M28.437 23.069a.595.595 0 1 1-.366-.551.588.588 0 0 1 .366.55zm.149 0a.743.743 0 1 0-1.486 0 .743.743 0 0 0 1.486 0z"/><path d="M27.88 22.734a.149.149 0 0 1 0 .297h-.149v-.297h.149zm.186-.037a.283.283 0 0 0-.186-.074h-.297v.891h.111v-.334h.149l.186.334h.148l-.223-.371c.037 0 .075-.037.112-.075a.223.223 0 0 0 .037-.148.207.207 0 0 0-.037-.223z"/></g></svg>