<svg width="36" height="36" xmlns="http://www.w3.org/2000/svg"><g fill="none"><path d="M18 0c2.837 0 5.52.656 7.907 1.825C31.884 4.753 36 10.895 36 18c0 9.942-8.058 18-18 18-9.94 0-18-8.057-18-18C0 8.06 8.06 0 18 0z" fill="#F2F4F7"/><path fill="#000" d="M16.334 19.95v4.759h-1.199V19.95zM5.218 22.4c0 .747.654 1.362 1.364 1.362.774 0 1.367-.615 1.367-1.362 0-.721-.593-1.362-1.367-1.362-.71 0-1.364.641-1.364 1.362m1.305 2.459c-1.305 0-2.432-1.097-2.432-2.46 0-1.361 1.127-2.431 2.432-2.431.535 0 1.011.134 1.426.426v-.373h1.188v4.73H7.95v-.294c-.356.267-.89.402-1.426.402m15.857-6.511-5.7-9.942L20.777 6l7.126 12.348M10.68 22.4c0 .747.595 1.362 1.367 1.362.71 0 1.366-.615 1.366-1.362 0-.721-.656-1.362-1.366-1.362-.772 0-1.367.641-1.367 1.362m3.92-4.01v6.36h-1.187v-.293a2.583 2.583 0 0 1-1.426.402c-1.366 0-2.434-1.097-2.434-2.46a2.408 2.408 0 0 1 2.434-2.431c.533 0 1.01.134 1.426.426v-2.003H14.6zm-3.384-3.811 2.197 3.77H7.892l-.772-1.39 4.097-2.38zm.713-1.87 4.156-2.351 4.573 7.99h-4.336v1.176h-1.187v-1.176m16.091 1.213c-.298 0-.594-.268-.594-.588 0-.32.296-.588.594-.588.356 0 .595.267.595.588 0 .32-.24.588-.595.588m0-1.095c-.298 0-.476.24-.476.507s.178.508.476.508c.296 0 .474-.24.474-.508s-.178-.507-.474-.507m-1.367 6.384c-1.305 0-2.08-.667-2.138-1.63h1.247c0 .322.178.748.95.775.535 0 .831-.32.831-.562-.059-.373-.535-.4-1.009-.482-.535-.077-.95-.186-1.247-.318-.415-.215-.654-.67-.654-1.15 0-.856.715-1.524 1.96-1.524 1.19 0 1.961.615 2.018 1.55h-1.186c0-.239-.06-.64-.772-.64-.476 0-.772.079-.831.426 0 .482 1.009.455 1.78.641.713.188 1.19.642 1.19 1.285 0 1.176-.95 1.63-2.14 1.63"/><path d="m31.35 19.296-.119-.268h-.118v.268h-.09v-.642h.268c.059 0 .177.082.177.188a.19.19 0 0 1-.118.186l.118.268m-.237-.56h-.118v.212h.118c.119 0 .119-.026.119-.106 0-.055 0-.106-.119-.106M23.385 22.4c0 .747.594 1.362 1.366 1.362.713 0 1.364-.615 1.364-1.362 0-.721-.651-1.362-1.364-1.362-.772 0-1.366.641-1.366 1.362m1.305 2.459c-1.365 0-2.433-1.097-2.433-2.46a2.407 2.407 0 0 1 2.433-2.431c.535 0 1.01.134 1.425.426v-.373h1.13v4.73h-1.13v-.294c-.414.267-.89.402-1.425.402m-6.764-2.46c0 .748.653 1.363 1.366 1.363.772 0 1.366-.615 1.366-1.362 0-.721-.594-1.362-1.366-1.362-.713 0-1.366.641-1.366 1.362m2.732-4.01h1.187v6.36h-1.187v-.293c-.357.267-.833.402-1.366.402-1.366 0-2.494-1.097-2.494-2.46 0-1.361 1.128-2.431 2.494-2.431.533 0 1.009.134 1.366.426v-2.003z" fill="#000"/></g></svg>