<svg height="36" viewBox="0 0 36 36" width="36" xmlns="http://www.w3.org/2000/svg"><mask id="a" fill="#fff"><path d="M0 0h3.68v3.337H0z" fill-rule="evenodd"/></mask><g fill="none" fill-rule="evenodd"><path d="M18 0c2.837 0 5.52.656 7.907 1.825C31.884 4.753 36 10.895 36 18c0 9.942-8.058 18-18 18-9.94 0-18-8.057-18-18C0 8.06 8.06 0 18 0z" fill="#f2f4f7" fill-rule="nonzero"/><g fill="#000"><path d="m11.341 19.365 8.423-5.217h4.37c.134 0 .255.107.255.255 0 .12-.054.173-.12.215l-4.139 2.47c-.27.16-.363.481-.363.722l-.003 1.555h5.257v-9.043a.322.322 0 0 0-.337-.322h-5.012l-8.404 5.195v4.173h.073z"/><path d="M1.363 2.003 1.832.694l.46 1.309zM1.287 0 0 3.337h.885l.225-.626h1.436l.222.626h.913L2.377 0z" mask="url(#a)" transform="translate(4 22.336)"/><path d="M10.1 24.39c0 .433-.267.608-.725.608-.444 0-.733-.184-.733-.609v-2.064h-.855v2.16c0 .964.863 1.263 1.588 1.263.722 0 1.579-.299 1.579-1.264v-2.159H10.1zm1.244-1.333h1.082v2.615h.854v-2.615h1.08v-.722h-3.016zm8.859 1.893h-.68v-1.893h.68c.537 0 .697.146.697.923-.003.708-.183.97-.697.97m.034-2.614h-1.568v3.337h1.568c1.202 0 1.534-.448 1.534-1.693 0-1.175-.32-1.644-1.534-1.644m11.763 0h-1.017l-1.219 1.356v-1.356h-.854l.002 3.337h.852v-1.267l1.157 1.267H32l-1.557-1.648zm-9.752 3.337h2.697v-.722h-1.843v-.603h1.483v-.728h-1.483v-.562h1.843v-.722h-2.697zm-5.9-.668c-.632 0-.98-.384-.98-1.01 0-.613.348-1.002.98-1.002.638 0 .98.389.98 1.002 0 .626-.342 1.01-.98 1.01m0-2.761c-1.219 0-1.852.746-1.852 1.75 0 1.01.633 1.76 1.852 1.76 1.222 0 1.857-.75 1.857-1.76 0-1.004-.635-1.75-1.857-1.75M27.53 23.71l-.778-.087c-.458-.051-.57-.162-.57-.316 0-.171.236-.325.69-.325.442 0 .672.163.715.409h.837c-.042-.705-.638-1.144-1.503-1.144-1.032 0-1.551.408-1.551 1.13 0 .587.343.864 1.056.939l.792.084c.3.035.44.152.44.3 0 .17-.201.324-.687.324-.562 0-.787-.142-.826-.425h-.82c.036.766.539 1.16 1.618 1.16.983 0 1.534-.43 1.534-1.076-.003-.565-.331-.904-.947-.973"/></g></g></svg>