<svg height="36" viewBox="0 0 36 36" width="36" xmlns="http://www.w3.org/2000/svg"><mask id="a" fill="#fff"><path d="M0 0h28v9.03H0z" fill-rule="evenodd"/></mask><g fill="none" fill-rule="evenodd"><path d="M18 0c2.837 0 5.52.656 7.907 1.825C31.884 4.753 36 10.895 36 18c0 9.942-8.058 18-18 18-9.94 0-18-8.057-18-18C0 8.06 8.06 0 18 0z" fill="#f2f4f7" fill-rule="nonzero"/><path d="M26.982 2.065h-3.937v4.928h2.064v-3.69h.551c.165 0 .276.139.276.277v3.413H28V3.056a1.03 1.03 0 0 0-1.02-.991zm-5.755 0h-3.964v3.937c0 .55.44.991.991.991h3.882V5.754h-2.533a.276.276 0 0 1-.275-.276V3.304h.55c.165 0 .276.138.276.276v1.569h1.073c.55 0 .992-.441.992-.992v-1.1a.988.988 0 0 0-.992-.992zM14.4 5.755h-.55a.276.276 0 0 1-.275-.277V2.065H11.51v3.937c0 .55.44.991.99.991h1.9v.606h-2.808V9.03h3.882c.55 0 .991-.44.991-.99V2.064H14.4zm-5.753 0h-.552a.276.276 0 0 1-.275-.277V2.065H6.745c-.55 0-.99.44-.99.991v2.946c0 .55.44.991.99.991h3.938V0H8.617zm-4.71-3.69H.084v1.239h2.532c.166 0 .276.138.276.276v2.174H2.34a.276.276 0 0 1-.275-.276V3.91H.99c-.55 0-.99.44-.99.991v1.1c0 .551.44.992.99.992h3.94V3.056a.988.988 0 0 0-.992-.991z" fill="#35b454" mask="url(#a)" transform="translate(4 13)"/></g></svg>