<svg height="36" viewBox="0 0 36 36" width="36" xmlns="http://www.w3.org/2000/svg"><mask id="a" fill="#fff"><path d="M0 0h14.09v3.602H0z" fill-rule="evenodd"/></mask><g fill="none" fill-rule="evenodd"><path d="M18 0c2.837 0 5.52.656 7.907 1.825C31.884 4.753 36 10.895 36 18c0 9.942-8.058 18-18 18-9.94 0-18-8.057-18-18C0 8.06 8.06 0 18 0z" fill="#f2f4f7" fill-rule="nonzero"/><path d="M18.02 24.508c-1.7-2.184-2.907-4.33-3.658-6.513-.766-2.23-1.05-4.493-.882-6.882 0-.024-.014-.047-.037-.051l-.266-.06c-.024-.006-.047.004-.056.027-.812 1.839-2.072 3.476-3.705 4.833-1.502 1.251-3.321 2.273-5.384 2.996a.059.059 0 0 0-.032.051l.032.313c0 .023.023.042.047.042.187-.004.354-.004.522-.004 1.554 0 3.066.148 5.384.886 2.674.849 5.277 2.412 7.75 4.646a.05.05 0 0 0 .033.014c.014 0 .027-.004.033-.014l.2-.224c.032-.014.032-.042.019-.06" fill="#96cf00"/><path d="M10.406.317a.836.836 0 0 0-.304-.224 1.194 1.194 0 0 0-.452-.08c-.107 0-.248.02-.415.062-.168.037-.359.13-.583.266l.033-.154V.168c0-.065-.033-.102-.108-.102h-.97L7.568.26l-.601 3.28h1.198l.444-2.44c.06-.032.135-.06.238-.088A1.05 1.05 0 0 1 9.142.97c.107 0 .182.013.223.046.043.033.066.093.066.187a.85.85 0 0 1-.014.154l-.028.154-.369 2.034h1.194l.364-1.992c.014-.084.029-.163.038-.243a1.97 1.97 0 0 0 .014-.233c0-.15-.019-.29-.056-.42a.977.977 0 0 0-.168-.34zM6.59.377a1.172 1.172 0 0 0-.416-.274A1.521 1.521 0 0 0 5.587 0a2.67 2.67 0 0 0-.72.089 1.73 1.73 0 0 0-.573.28c-.168.13-.308.299-.42.508a2.317 2.317 0 0 0-.247.756l-.07.397c-.01.055-.014.107-.019.158-.004.052-.01.098-.01.15 0 .21.038.396.123.555a1.2 1.2 0 0 0 .312.397c.131.107.275.186.439.238.162.05.33.074.508.074.262 0 .504-.014.718-.047a3.61 3.61 0 0 0 .635-.14l.14-.811c-.056.004-.135.01-.233.014-.103.004-.21.013-.327.019l-.341.013c-.111 0-.21.005-.293.005-.08 0-.15-.005-.215-.014a.499.499 0 0 1-.159-.047.22.22 0 0 1-.103-.102.38.38 0 0 1-.037-.182.95.95 0 0 1 .02-.187H6.65c.037 0 .07-.014.098-.038a.144.144 0 0 0 .056-.097l.061-.36c.009-.055.014-.111.023-.173a1.644 1.644 0 0 0-.07-.676.952.952 0 0 0-.228-.401zm-.83 1.111h-.925a1.01 1.01 0 0 1 .187-.424c.084-.112.214-.168.392-.168.14 0 .242.032.294.098.056.065.084.15.084.252 0 .07-.01.15-.033.242zm8.29-.81a.81.81 0 0 0-.26-.398 1.065 1.065 0 0 0-.463-.214 2.736 2.736 0 0 0-.616-.06 3.7 3.7 0 0 0-.322.013 7.576 7.576 0 0 0-.63.084 4.448 4.448 0 0 0-.256.051l-.144.85c.144-.014.373-.033.56-.043.19-.004.387-.01.588-.01.05 0 .107.006.153.014.047.01.09.025.122.052a.22.22 0 0 1 .07.108.438.438 0 0 1 .004.177l-.027.172h-.271c-.522 0-.933.07-1.232.22-.303.145-.485.396-.546.755l-.013.07c-.033.206-.033.374.008.51a.762.762 0 0 0 .196.33.829.829 0 0 0 .313.183 1.416 1.416 0 0 0 .867-.038c.16-.056.308-.126.445-.214l-.043.246h1.12l.387-2.244a1.334 1.334 0 0 0-.009-.615zm-1.385 1.996a1.065 1.065 0 0 1-.207.06.998.998 0 0 1-.233.028.416.416 0 0 1-.214-.051c-.057-.037-.075-.107-.057-.21l.01-.061c.023-.126.07-.218.145-.27.075-.052.191-.08.35-.08h.307zM3.053.28a1.065 1.065 0 0 0-.462-.214 2.764 2.764 0 0 0-.615-.06c-.098 0-.206.003-.323.013a7.931 7.931 0 0 0-.63.084 4.127 4.127 0 0 0-.256.051l-.145.85C.767.99.996.97 1.182.96c.192-.004.388-.01.583-.01a.93.93 0 0 1 .155.014c.05.01.088.025.12.052.033.029.057.06.07.108a.452.452 0 0 1 .006.177l-.029.172h-.27c-.523 0-.933.075-1.232.22-.304.145-.486.396-.546.755l-.014.07a1.07 1.07 0 0 0 .01.51.746.746 0 0 0 .196.33.826.826 0 0 0 .312.183 1.432 1.432 0 0 0 .868-.038c.159-.056.308-.126.443-.214l-.046.246h1.12l.386-2.244c.042-.246.038-.453-.014-.615A.723.723 0 0 0 3.053.28zM1.928 2.674c-.06.023-.125.046-.204.06-.08.019-.16.028-.234.028a.416.416 0 0 1-.215-.051c-.056-.037-.074-.107-.056-.21l.01-.061c.023-.126.07-.218.145-.27.074-.052.19-.08.35-.08h.307z" fill="#1a2633" mask="url(#a)" transform="translate(17.91 16.11)"/></g></svg>