<svg width="36" height="36" fill="none" xmlns="http://www.w3.org/2000/svg"><path d="M18 0c2.837 0 5.52.656 7.907 1.825C31.884 4.753 36 10.895 36 18c0 9.942-8.058 18-18 18-9.94 0-18-8.057-18-18C0 8.06 8.06 0 18 0z" fill="#F2F4F7"/><path fill-rule="evenodd" clip-rule="evenodd" d="M11.036 16.081a.062.062 0 0 0-.06.053l-.959 4.995a.07.07 0 0 0 .013.055.06.06 0 0 0 .047.024h2.96a.062.062 0 0 0 .06-.052l.09-.453a.065.065 0 0 0-.058-.08h-1.99l.339-1.78h1.742c.03 0 .053-.022.06-.053l.076-.44a.05.05 0 0 0 .002-.011.068.068 0 0 0-.015-.042.063.063 0 0 0-.047-.024h-1.71l.31-1.611h1.879a.064.064 0 0 0 .06-.052l.085-.45.001-.013a.072.072 0 0 0-.014-.042.06.06 0 0 0-.047-.024h-2.824z" fill="#F15D22"/><mask id="a" style="mask-type:alpha" maskUnits="userSpaceOnUse" x="27" y="16" width="5" height="6"><path d="M27.625 21.216H32V16.09h-4.375v5.127z" fill="#fff"/></mask><g mask="url(#a)"><path fill-rule="evenodd" clip-rule="evenodd" d="M29.9 16.09h-1.256a.062.062 0 0 0-.06.053l-.957 4.996a.063.063 0 0 0 .012.054.058.058 0 0 0 .048.023h.893c.03 0 .054-.021.06-.052l.424-2.178h.267c.549 0 1.172 0 1.688-.25a1.572 1.572 0 0 0 .98-1.488c-.015-.505-.304-.861-.834-1.032-.4-.126-.86-.126-1.264-.126zm.076.549c.47 0 .972.047.99.6v.034c0 .366-.18.834-.528 1.014-.284.15-.697.15-1 .15h-.273l.343-1.798h.468z" fill="#F15D22"/></g><mask id="b" style="mask-type:alpha" maskUnits="userSpaceOnUse" x="18" y="15" width="6" height="7"><path d="M23.918 15h-4.933v6.186h4.933V15z" fill="#fff"/></mask><g mask="url(#b)"><path fill-rule="evenodd" clip-rule="evenodd" d="M22.047 15c-.788.023-1.49.357-2.032.971-.66.745-1.062 1.913-1.028 2.976.034 1.029.587 2.233 2.037 2.239h.8a.037.037 0 0 0 .033-.02l.299-.54a.046.046 0 0 0 0-.042.04.04 0 0 0-.034-.021h-.964c-.636-.011-1.065-.589-1.093-1.471-.036-1.106.322-2.24.911-2.892.356-.392.771-.591 1.236-.591l1.569-.002a.04.04 0 0 0 .038-.032l.098-.527a.045.045 0 0 0-.008-.033.038.038 0 0 0-.03-.015h-1.832z" fill="#F15D22"/></g><mask id="c" style="mask-type:alpha" maskUnits="userSpaceOnUse" x="4" y="15" width="6" height="7"><path d="M4 15.028v6.186h5.393v-6.186H4z" fill="#fff"/></mask><g mask="url(#c)"><path fill-rule="evenodd" clip-rule="evenodd" d="M7.406 15.028a.04.04 0 0 0-.033.02l-3.368 6.104a.043.043 0 0 0 0 .04c.007.013.02.022.033.022h.82a.04.04 0 0 0 .034-.021l1.24-2.345h1.75l.417 2.332c.004.02.02.034.038.034h1.018a.037.037 0 0 0 .03-.016c.007-.01.01-.022.007-.034L8.09 15.061a.04.04 0 0 0-.038-.033h-.646zm-.013 1.418.354 1.788-1.31.033.956-1.82z" fill="#F15D22"/></g><path fill-rule="evenodd" clip-rule="evenodd" d="M15.184 16.081c-.03 0-.054.022-.06.053l-.962 4.995a.07.07 0 0 0 .013.055.058.058 0 0 0 .047.024h.88c.029 0 .053-.022.06-.053l.43-2.233h.227l1.29 2.255c.01.019.03.03.05.03h.943a.061.061 0 0 0 .054-.033.072.072 0 0 0-.002-.068l-1.409-2.3c1.072-.181 1.547-.9 1.547-1.564l-.001-.045a1.054 1.054 0 0 0-.598-.915c-.4-.2-.76-.2-1.479-.2h-1.03zm1.087.549c.562 0 .994.043 1.012.58v.03c0 .212-.065.601-.316.864-.281.31-.68.31-1.068.31h-.208l.34-1.784h.24zm9.025-.54a.063.063 0 0 0-.053.032l-2.754 4.992a.072.072 0 0 0 0 .066c.011.02.032.032.054.032h.67a.06.06 0 0 0 .053-.032l.984-1.863 1.42.002c.019.1.327 1.84.327 1.84.006.032.031.053.06.053h.88a.059.059 0 0 0 .047-.024.068.068 0 0 0 .013-.055l-1.065-4.992a.063.063 0 0 0-.06-.051h-.576zm-.023 1.28.273 1.366h-.994c.082-.155.6-1.134.72-1.366z" fill="#F15D22"/></svg>