<svg width="36" height="36" fill="none" xmlns="http://www.w3.org/2000/svg"><path d="M18 0c2.837 0 5.52.656 7.907 1.825C31.884 4.753 36 10.895 36 18c0 9.942-8.058 18-18 18-9.94 0-18-8.057-18-18C0 8.06 8.06 0 18 0z" fill="#F2F4F7"/><path d="m21.722 23.414-.648-1.645H18.73l-.608 1.645h-1.186l2.552-6.6h.877l2.642 6.6h-1.286zm-1.555-4.137c-.12-.329-.2-.598-.25-.818h-.01c-.04.23-.13.49-.239.798l-.568 1.525h1.595l-.528-1.505zm3.289 4.137v-6.57h3.66l-.33 1.007h-2.123v1.705h2.123v1.006h-2.123v1.845h2.452v1.007h-3.659zm6.231.104c-.927 0-1.585-.3-2.024-.599l.489-.887c.359.25.867.499 1.485.499.508 0 1.087-.21 1.087-.758 0-.937-1.595-1.107-2.393-2.004-.26-.289-.429-.668-.429-1.176 0-.977.768-1.804 2.144-1.804.698 0 1.256.17 1.615.368l-.02 1.077c-.508-.28-.997-.459-1.536-.459-.527 0-.947.23-.947.668 0 1.216 2.842 1.147 2.842 3.19 0 1.157-1.017 1.885-2.313 1.885" fill="#1A3E5F"/><path d="M4.952 21.198A5.966 5.966 0 0 1 9.966 12c1.272 0 1.813.351 1.998.507.327.276.548.658.521 1.05-.103 1.549-2.324 1.23-4.527 1.747-3.214.754-4.211 3.537-3.007 5.895" fill="#7FCC28"/><path d="M12.456 13.243c.122.46.065.803-.097 1.123-1.147 2.263-5.56.676-6.614 4.373-.43 1.722.464 3.77 2.282 4.77.17.095.152.15-.035.085a5.977 5.977 0 0 1-3.04-2.398c-1.205-2.358-.208-5.142 3.006-5.895 2.204-.517 4.425-.198 4.528-1.746a1 1 0 0 0-.03-.312" fill="#4B752B"/><path d="M12.138 12.404a5.982 5.982 0 0 1 3.516 3.751s.393 1.45-.521 2.71c-1.654 2.28-4.59 1.458-4.88-.116-.47-2.548 3.023-2.294 2.752-4.806-.081-.612-.461-1.138-.927-1.464-.178-.124-.141-.154.06-.075" fill="#3272B8"/><path d="M11.895 23.606c-.172.06-.207.034-.045-.09.307-.233.569-.614.502-1.132-.19-1.464-2.292-1.25-2.623-3.02-.159-.85.187-1.85 1.485-2.78-.642.499-1.162 1.076-.961 2.163.29 1.573 3.225 2.395 4.879.115.914-1.26.521-2.71.521-2.71a5.968 5.968 0 0 1-3.758 7.454" fill="#1A3E5F"/></svg>