<svg height="36" viewBox="0 0 36 36" width="36" xmlns="http://www.w3.org/2000/svg"><mask id="a" fill="#fff"><path d="M0 0h21v21.032H0z" fill-rule="evenodd"/></mask><g fill="none" fill-rule="evenodd"><path d="M18 0c2.837 0 5.52.656 7.907 1.825C31.884 4.753 36 10.895 36 18c0 9.942-8.058 18-18 18-9.94 0-18-8.057-18-18C0 8.06 8.06 0 18 0z" fill="#f2f4f7" fill-rule="nonzero"/><path d="M20.889 0H-.001v21.032l.15-.066a25.075 25.075 0 0 1 10.35-2.214c3.6 0 7.088.744 10.316 2.214l.148.066L21 0z" fill="#2449a4" mask="url(#a)" transform="translate(8 7)"/><path d="M26.44 13.394c.965 0 1.039.989 1.039.989h.482v-1.464h-3.487s-.557.718.89 2.333c0 0 1.002 1.188 1.04 1.707h-.595c-.816 0-.927-.988-.927-.988h-.483v1.468h3.488s.631-.686-.928-2.464c0 0-.816-.849-.964-1.584zm-4.081 0c1.002 0 1.076.989 1.076.989h.445v-1.464h-3.45s-.557.718.89 2.333c0 0 1.002 1.188 1.039 1.707h-.594c-.853 0-.927-.988-.927-.988h-.483v1.468h3.488s.63-.686-.928-2.464c0 0-.853-.849-1.002-1.584zM16.94 17.44v-1.47h-.482s-.11.988-.964.988h-.483v-1.54h.186a.38.38 0 0 1 .37.365v.183h.483v-1.58h-.482v.182a.381.381 0 0 1-.371.366h-.186v-1.54h.483c.853 0 .964.988.964.988h.482v-1.469h-3.82v.483h.11c.186 0 .335.164.335.363v2.833c0 .2-.149.363-.334.363h-.112v.48zm2.895-.004v-.48h-.111c-.186 0-.372-.163-.372-.362V13.76c0-.2.186-.363.372-.363h.11v-.478h-2.41v.478h.11c.223 0 .372.164.372.363v2.833c0 .2-.149.363-.372.363h-.11v.48zm-9.239-4.04c-1.001 0-1.076.988-1.076.988h-.445V12.92h3.636s0 1.131-1.076 2.333c0 0-1.001 1.188-1.039 1.707h.593c.855 0 .928-.988.928-.988h.482v1.468H8.89s-.111-1.112 1.15-2.464c0 0 .817-.885 1.003-1.584z" fill="#fff"/></g></svg>