<svg height="36" viewBox="0 0 36 36" width="36" xmlns="http://www.w3.org/2000/svg"><g fill="none" fill-rule="evenodd"><path d="M18 0c2.837 0 5.52.656 7.907 1.825C31.884 4.753 36 10.895 36 18c0 9.942-8.058 18-18 18-9.94 0-18-8.057-18-18C0 8.06 8.06 0 18 0z" fill="#f2f4f7" fill-rule="nonzero"/><path d="M5.01 15 4 19.792h15.403L20.414 15zm16.075 1.972-.797 3.777h10.916L32 16.972z" fill="#304f95"/><path d="m19.37 15-1.01 4.792h4.23L23.6 15z" fill="#e87f36"/><path d="m23.192 19.18-.148.63h.7l.148-.63zm3.921-.72c.276 0 .374.17.293.508-.082.347-.262.521-.538.521-.277 0-.374-.174-.29-.522.08-.337.26-.506.535-.506zm1.446-.316-.395 1.663h.431l.275-1.155c.138-.113.27-.169.396-.169.158.001.215.094.171.282l-.248 1.041.43.001.276-1.154c.144-.112.281-.168.41-.168.17 0 .234.092.19.278l-.249 1.044.431.001.245-1.03c.101-.421-.046-.631-.438-.632-.19 0-.392.075-.603.227-.043-.152-.17-.228-.386-.228s-.418.08-.609.24l.007-.24zm-3.059-.002c-.607 0-.975.267-1.1.8-.139.575.097.862.704.863.152 0 .302-.016.45-.048l.08-.332a2.058 2.058 0 0 1-.418.047c-.342 0-.47-.177-.386-.53.074-.311.281-.467.623-.467.131 0 .262.017.396.048l.08-.332a1.828 1.828 0 0 0-.429-.049zm1.69-.003c-.565 0-.913.278-1.046.836-.13.555.086.833.648.833.564 0 .912-.277 1.044-.833.133-.557-.083-.836-.647-.837zm-10.539-1.68c.654 0 .901.34.741 1.024-.162.694-.57 1.04-1.224 1.04-.67 0-.925-.346-.763-1.04.16-.683.575-1.024 1.246-1.024zm-4.214-.46-.112.48h.931l-.585 2.504h.602l.585-2.503h.931l.112-.48zm-3.134 0-.423 1.81c-.186.796.187 1.193 1.118 1.193s1.49-.396 1.675-1.192l.423-1.81h-.6l-.425 1.81c-.11.476-.43.714-.96.714s-.74-.239-.629-.715L9.905 16zm-2.452 0-2.076 2.984h.618l1.634-2.413.25 1.12h-.655l-.319.479h1.078l.181.814h.647L7.5 16zm9.912-.02c-1.087 0-1.749.506-1.985 1.516-.187 1.006.24 1.508 1.278 1.508 1.07 0 1.723-.502 1.958-1.508.236-1.01-.18-1.516-1.25-1.516zm4.533-.332c-.073 0-.13.01-.192.054s-.28.166-.507.277a4.2 4.2 0 0 1-.459.196c-.096.03-.145.07-.172.186l-.083.352c-.024.1-.014.175.103.175.118 0 .34-.085.42-.12.144-.065.306-.16.334-.16s.014.034.001.09l-.499 2.121c-.025.106.031.176.15.176h.652c.095 0 .176-.086.195-.166l.705-2.996c.03-.12-.034-.186-.169-.186z" fill="#fffffe"/></g></svg>