<svg width="36" height="36" fill="none" xmlns="http://www.w3.org/2000/svg"><path d="M18 0c2.837 0 5.52.656 7.907 1.825C31.884 4.753 36 10.895 36 18c0 9.942-8.058 18-18 18-9.94 0-18-8.057-18-18C0 8.06 8.06 0 18 0z" fill="#F2F4F7"/><path d="M20.08 18.382h-.724c-.78 0-.968.102-.968.863v.373c0 .634.132.777.929.777h.752c.862 0 1.028-.081 1.028-.414v-.265h-1.393v-.69h2.339v.71c0 1.155-.36 1.426-1.858 1.426h-.957c-1.366 0-1.758-.302-1.758-1.421v-.552c0-1.242.331-1.589 1.78-1.589h.84c1.56 0 1.953.27 1.953 1.11h-.951c-.006-.277-.144-.328-1.012-.328zm4.187 2.784c-1.41 0-1.792-.311-1.792-1.486v-.45c0-1.385.398-1.615 1.824-1.615h.82c1.503 0 1.88.21 1.88 1.206h-.952c-.005-.276-.1-.42-.973-.42h-.708c-.83 0-.962.067-.962.818v.389c0 .69.132.786.928.786h.753c.813 0 .973-.066.968-.464h.95c.006.945-.254 1.236-1.896 1.236h-.84zm5.787-.004h-.814c-1.47 0-1.818-.276-1.818-1.503v-.429c0-1.319.326-1.63 1.835-1.63h.813c1.582 0 1.93.327 1.93 1.615v.43c0 1.307-.354 1.517-1.946 1.517zm-.033-2.76h-.68c-.869 0-.99.138-.99.843v.368c0 .634.121.767.956.767h.73c.901 0 1.04-.102 1.04-.782v-.368c0-.715-.133-.828-1.056-.828zm-15.98 1.196.758-1.318h.044l.73 1.318H14.04zm1.493-1.983H14.08l-1.469 2.63.559.917h.003l.47-.854h2.328l.465.854h1.078l-1.98-3.547z" fill="#000"/><path d="M10.522 17.557 8.362 14 4 21.163l6.522-3.606zM5.59 21.163l5.02-3.46-.056-.093-5.725 3.553h.76zm1.59 0 3.58-3.215-.083-.136-4.293 3.351h.796zm1.555 0 2.232-2.872-.106-.175-2.921 3.047h.795zm3.969 0s-1.079-1.747-1.578-2.612l-1.631 2.612h3.209z" fill="#AC162C"/></svg>