<svg width="36" height="36" fill="none" xmlns="http://www.w3.org/2000/svg"><path d="M18 0c2.837 0 5.52.656 7.907 1.825C31.884 4.753 36 10.895 36 18c0 9.942-8.058 18-18 18-9.94 0-18-8.057-18-18C0 8.06 8.06 0 18 0z" fill="#F2F4F7"/><path d="m9.75 17.3-1.232-3.298H6.645L4 21.076h1.892l.446-1.268h2.467l.436 1.268h1.922l-1.004-2.683H7.557v-.003a1.085 1.085 0 0 1 .024-2.171c.598 0 1.083.483 1.087 1.08H9.75zm2.546 3.776h.154v-7.074h-.154v7.074zm2.264-5.177h.963l-.473-1.356h-.012L14.56 15.9zM14.756 14h.587l1.215 3.153h-.592l-.296-.835h-1.26l-.296.835h-.57L14.755 14zm3.994 3.153h-.494v-.318h-.009a.767.767 0 0 1-.649.38c-.596 0-.852-.3-.852-.896V14.87h.503v1.4c0 .402.164.547.438.547.419 0 .56-.269.56-.622V14.87h.504v2.283zm2.031-1.519c-.04-.278-.242-.428-.52-.428-.261 0-.628.137-.628.83 0 .38.168.781.605.781.292 0 .495-.194.543-.52h.504c-.093.591-.46.918-1.047.918-.715 0-1.108-.508-1.108-1.18 0-.688.375-1.227 1.126-1.227.53 0 .98.265 1.029.826h-.504zM21.664 14h.503v1.793l.91-.923h.618l-.874.839.958 1.444h-.613l-.698-1.108-.3.291v.817h-.504V14zm2.331 0h.504v3.153h-.504V14zm2.42 2.01c-.155.1-.398.096-.618.136-.217.035-.411.115-.411.38 0 .225.287.291.464.291.22 0 .565-.115.565-.433v-.375zm.503.635c0 .123.027.172.12.172.03 0 .07 0 .123-.009v.35a1.277 1.277 0 0 1-.318.057c-.203 0-.349-.07-.389-.278-.198.194-.52.278-.79.278-.41 0-.781-.221-.781-.667 0-.57.454-.662.878-.711.363-.066.685-.027.685-.322 0-.26-.27-.31-.473-.31-.282 0-.481.115-.503.363h-.504c.036-.588.534-.76 1.038-.76.446 0 .914.181.914.663v1.174zm.499-1.775h.477v.336l.009.008a.817.817 0 0 1 .71-.406c.495 0 .809.265.809.777v1.568h-.504v-1.435c-.008-.358-.15-.512-.446-.512-.335 0-.552.264-.552.6v1.347h-.503V14.87zm3.457 1.947c.45 0 .64-.41.64-.808 0-.503-.242-.803-.631-.803-.473 0-.64.42-.64.83 0 .392.194.781.631.781zm1.126.336h-.477v-.31h-.009c-.132.261-.42.372-.706.372-.72 0-1.069-.535-1.069-1.219 0-.826.49-1.188.99-1.188.286 0 .604.106.759.358h.008V14H32v3.153zm-17.439 2.669h.962l-.472-1.355h-.013l-.477 1.355zm.194-1.899h.588l1.214 3.153h-.592l-.296-.835h-1.258l-.296.835h-.57l1.21-3.153zm2.005.87h.503v2.283h-.504v-2.283zm0-.87h.503v.477h-.504v-.477zm1.006.87h.473v.442h.008c.058-.243.358-.504.667-.504.115 0 .146.01.19.014v.485c-.07-.009-.146-.022-.216-.022-.345 0-.618.278-.618.782v1.086h-.504v-2.283zm2.736.335c-.424 0-.64.323-.64.808 0 .46.234.804.64.804.46 0 .632-.406.632-.803 0-.416-.216-.809-.632-.809zm-1.126-.335h.477v.309h.009c.141-.26.415-.371.706-.371.72 0 1.07.548 1.07 1.214 0 .614-.31 1.192-.986 1.192-.291 0-.605-.105-.764-.357h-.008v1.14h-.504v-3.127zm4.314 1.139c0-.392-.199-.803-.65-.803-.45 0-.648.41-.648.803 0 .398.198.809.649.809.45 0 .649-.411.649-.809zm-1.802 0c0-.697.42-1.2 1.153-1.2.733 0 1.152.503 1.152 1.2 0 .702-.42 1.206-1.152 1.206-.733 0-1.152-.504-1.152-1.206zm2.658-1.139h.473v.442h.008c.058-.243.358-.504.668-.504.114 0 .145.01.19.014v.485c-.072-.009-.147-.022-.217-.022-.345 0-.619.278-.619.782v1.086h-.503v-2.283zm1.569 0h.38v-.685h.503v.685h.455v.375h-.455v1.219c0 .207.017.314.243.314.07 0 .141 0 .212-.018v.389c-.11.008-.217.026-.327.026-.525 0-.623-.203-.632-.583v-1.347h-.38v-.375z" fill="#1D1D1B"/></svg>