<svg width="36" height="36" fill="none" xmlns="http://www.w3.org/2000/svg"><path d="M18 0c2.837 0 5.52.656 7.907 1.825C31.884 4.753 36 10.895 36 18c0 9.942-8.058 18-18 18-9.94 0-18-8.057-18-18C0 8.06 8.06 0 18 0z" fill="#F2F4F7"/><circle cx="18" cy="18" r="14" fill="#003865"/><path d="M9.684 17.773c.646-3.17 1.605-4.844 2.005-5.284 1.976 0 5.734 1.649 5.837 1.688.102.038.14.093.14.161 0 .028-.06.053-.105.073l-7.518 3.5c-.15.073-.23.05-.298.038-.069-.013-.07-.122-.063-.176h.002zm4.452-6.345c3.287-1.151 5.345-1.273 5.963-1.192 1.032 1.546 1.462 5.344 1.477 5.445.017.1-.012.158-.078.194-.024.016-.077-.018-.122-.043l-7.18-4.051c-.147-.08-.167-.154-.19-.213-.026-.06.077-.118.13-.14zm7.975.137c2.831 1.983 4.035 3.534 4.284 4.061-.924 1.612-4.308 3.916-4.394 3.98-.087.066-.157.072-.226.041-.028-.012-.054-.073-.054-.12v-7.73c-.003-.158.145-.212.19-.262.043-.051.152 0 .202.031l-.002-.001zm4.222 6.528c-.536 3.19-1.439 4.89-1.823 5.34-1.976.058-5.787-1.48-5.892-1.518-.103-.035-.143-.088-.147-.157 0-.028.058-.054.103-.078l7.395-3.713c.148-.077.229-.057.296-.046.07.01.074.12.068.172zm-4.282 6.565c-3.309 1.093-5.37 1.18-5.986 1.089-1-1.565-1.35-5.369-1.364-5.47-.016-.1.015-.158.08-.194.025-.014.08.022.122.047l7.095 4.175c.146.082.165.155.186.218.024.059-.077.115-.132.135h-.001zm-8.156-.234c-2.834-1.978-4.043-3.526-4.292-4.053.923-1.613 4.303-3.926 4.39-3.99.087-.066.157-.072.226-.04.027.012.024.072.024.119l-.003 7.731c.003.157-.1.212-.143.262-.043.05-.152.001-.202-.03v.002z" fill="#fff"/><path d="M12.769 14.505c-.4.24-2.178 2.395-3.018 3.442 0 0 .117.037.249-.015l7.58-3.53c.104-.036.087-.078.087-.078-1.465-.039-4.495-.062-4.898.18zm6.018-2.37c-.434-.19-3.366-.454-4.777-.563 0 0 .025.11.143.184l7.24 4.086c.088.063.116.028.116.028-.728-1.166-2.29-3.546-2.722-3.736v.002zm5.109 3.446c-.05-.435-1.346-2.873-1.988-4.037 0 0-.18.078-.187.209v7.793c-.012.101.06.106.06.106.726-1.175 2.164-3.634 2.116-4.07h-.001zm-.536 5.87c.393-.253 2.096-2.459 2.899-3.529 0 0-.117-.034-.246.023l-7.458 3.745c-.102.039-.084.077-.084.077 1.466 0 4.496-.066 4.89-.317zm-5.945 2.42c.43.196 3.355.513 4.765.647 0 0-.022-.112-.14-.187l-7.154-4.212c-.086-.064-.115-.032-.115-.032.703 1.181 2.216 3.588 2.644 3.784zm-5.31-3.46c.05.436 1.351 2.87 1.995 4.034 0 0 .134-.078.14-.209v-7.793c.014-.103-.026-.108-.026-.108-.723 1.178-2.16 3.64-2.11 4.076z" fill="#BFBFBF"/></svg>