<svg width="36" height="36" xmlns="http://www.w3.org/2000/svg"><g fill="none"><path d="M18 0c2.837 0 5.52.656 7.907 1.825C31.884 4.753 36 10.895 36 18c0 9.942-8.058 18-18 18-9.94 0-18-8.057-18-18C0 8.06 8.06 0 18 0z" fill="#F2F4F7"/><g fill="#313F94"><path d="M8.658 18.279c-.024-1.14-.95-2.065-2.089-2.065-1.14 0-2.041.949-2.041 2.088h-.404c0-1.258.997-2.278 2.255-2.302 1.258 0 2.302 1.02 2.302 2.279h-.023z"/><path d="M8.634 18.302c0-.925-.736-1.661-1.662-1.661-.925 0-1.59.736-1.59 1.661h-.45c0-1.044.854-1.875 1.898-1.899 1.02 0 1.851.95 1.875 1.875l-.071.024z"/><path d="M8.658 18.279c0-.665-.57-1.21-1.258-1.21-.689 0-1.187.545-1.187 1.233h-.427c0-.807.617-1.471 1.424-1.471.807 0 1.448.664 1.471 1.448h-.023z"/><path d="M4.172 18.302c0 1.14.925 2.065 2.065 2.065 1.163 0 2.064-.95 2.064-2.088h.404c0 1.257-1.02 2.302-2.279 2.302-1.257 0-2.278-1.02-2.302-2.279h.048z"/><path d="M4.172 18.279c0 .925.735 1.66 1.661 1.66s1.614-.735 1.59-1.66h.451c0 1.044-.854 1.898-1.875 1.898-1.044 0-1.875-.949-1.875-1.875l.048-.023z"/><path d="M4.148 18.302c.024.665.593 1.21 1.258 1.21.688 0 1.187-.545 1.187-1.233h.427c0 .807-.617 1.471-1.424 1.471-.807 0-1.448-.64-1.448-1.448zm8.093.523h-.76l.618-1.33.142 1.33zm-1.329 1.234.214-.475h1.187l.07.475h1.188l-.665-3.68h-1.21l-1.97 3.68h1.186zm3.204 0 .641-3.68h1.21l-.64 3.68h-1.21zm3.584-2.777h.594c.19 0 .308.023.38.095.047.047.07.142.047.237-.024.119-.071.214-.166.261-.072.071-.214.095-.404.095h-.57l.12-.688zm-.474 2.777.213-1.282h.475c.142 0 .261.024.332.048a.319.319 0 0 1 .143.166.574.574 0 0 1 0 .284l-.024.285c-.048.238-.048.404-.048.499h1.235v-.12c-.024 0-.072 0-.072-.023-.023-.024-.023-.071 0-.166l.095-.57c.024-.26.024-.45-.047-.545-.071-.119-.214-.214-.427-.309.118-.024.213-.071.308-.118a1.14 1.14 0 0 0 .285-.31c.095-.142.142-.284.19-.474a.886.886 0 0 0 0-.356.79.79 0 0 0-.119-.285 1.121 1.121 0 0 0-.237-.237 1.627 1.627 0 0 0-.404-.119 4.441 4.441 0 0 0-.64-.047h-1.78l-.642 3.679h1.164zm4.936-2.849c.166 0 .285.024.332.024a.244.244 0 0 1 .143.119c.047.047.047.118.047.19a.402.402 0 0 1-.166.237.768.768 0 0 1-.403.095h-.451l.119-.665h.38zm-.19 2.849c.285 0 .475-.024.594-.048.118-.024.26-.071.38-.119.142-.07.237-.118.308-.19.119-.07.19-.189.261-.308.086-.128.143-.274.166-.427a.99.99 0 0 0-.071-.546.594.594 0 0 0-.403-.308c.356-.214.569-.475.617-.784.07-.332-.024-.57-.285-.735-.19-.143-.499-.214-.973-.214h-1.804l-.64 3.679h1.85zm.072-1.543c.237 0 .38.047.45.095.072.071.095.142.072.261a.453.453 0 0 1-.166.261 1.023 1.023 0 0 1-.475.095h-.498l.118-.712h.499zm2.777-2.136h1.186l-.403 2.278a.762.762 0 0 0 0 .333.316.316 0 0 0 .166.19c.095.047.19.07.308.07.167 0 .333-.047.428-.142.118-.095.19-.26.237-.45l.403-2.28h1.187l-.38 2.16a3.092 3.092 0 0 1-.166.641 1.662 1.662 0 0 1-.688.712 2.015 2.015 0 0 1-.522.214 5.797 5.797 0 0 1-.64.048c-.262 0-.476-.024-.666-.048a1.14 1.14 0 0 1-.45-.214.956.956 0 0 1-.31-.308.936.936 0 0 1-.118-.475c-.023-.118 0-.332.048-.593l.38-2.136zm7.167 1.068h-1.163a.361.361 0 0 0-.095-.238c-.07-.047-.166-.07-.308-.07-.143 0-.261.023-.332.07a.274.274 0 0 0-.119.167c0 .07 0 .094.047.142.048.048.166.095.38.142l.45.12c.404.118.69.26.832.45.142.19.19.404.142.664-.047.214-.119.38-.237.546a1.63 1.63 0 0 1-.404.404 2.365 2.365 0 0 1-.546.237c-.213.048-.45.072-.688.072a2.19 2.19 0 0 1-.688-.095 1.254 1.254 0 0 1-.499-.285.992.992 0 0 1-.26-.427c-.025-.119-.025-.261-.025-.428h1.163c0 .12.048.214.12.261.07.072.213.096.403.096.166 0 .284-.024.356-.072a.273.273 0 0 0 .118-.166c0-.071 0-.142-.047-.19-.047-.047-.166-.095-.38-.142l-.403-.095a2.348 2.348 0 0 1-.57-.214c-.166-.095-.308-.213-.38-.38-.07-.142-.07-.308-.047-.522a1.42 1.42 0 0 1 .237-.546c.119-.166.261-.284.428-.38.142-.118.332-.165.522-.213a2.473 2.473 0 0 1 1.187 0c.19.048.308.119.427.19a.743.743 0 0 1 .213.261c.072.095.095.19.12.285.023.095.046.213.046.356z"/></g></g></svg>