<svg width="36" height="36" fill="none" xmlns="http://www.w3.org/2000/svg"><path d="M18 0c2.837 0 5.52.656 7.907 1.825C31.884 4.753 36 10.895 36 18c0 9.942-8.058 18-18 18-9.94 0-18-8.057-18-18C0 8.06 8.06 0 18 0z" fill="#F2F4F7"/><path d="M10.557 15.44a.149.149 0 0 0-.025-.104l-.23-.294a.054.054 0 0 0-.078-.008l-.342.296a.186.186 0 0 0-.053.095l-.418 2.442a.153.153 0 0 0 .025.103l.221.29c.02.025.056.03.08.012l.337-.246a.16.16 0 0 0 .056-.09l.427-2.497zm-1.28 3.254a.192.192 0 0 0-.051.096l-.406 2.44a.157.157 0 0 0 .025.104l.225.303c.019.025.055.03.079.011l.368-.288a.17.17 0 0 0 .054-.092l.405-2.486a.155.155 0 0 0-.025-.104l-.231-.31a.05.05 0 0 0-.076-.008l-.367.333zm9.203-3.649a.132.132 0 0 0-.091-.045h-2.837a.162.162 0 0 0-.097.04l-.378.36a.061.061 0 0 0-.004.083l.236.271c.02.024.062.043.093.043h2.846c.03 0 .075-.017.098-.039l.357-.334a.064.064 0 0 0 .006-.084l-.23-.295zm-1.971.973a.07.07 0 0 0-.065.057l-.292 1.792a.155.155 0 0 0 .026.103l.22.29a.06.06 0 0 0 .081.013l.337-.246a.16.16 0 0 0 .055-.091l.3-1.86c.006-.031-.015-.057-.045-.057l-.617-.001zm-.491 2.676a.199.199 0 0 0-.051.096l-.415 2.441a.157.157 0 0 0 .024.104l.226.303c.018.025.054.03.079.011l.367-.288a.17.17 0 0 0 .055-.092l.415-2.486a.155.155 0 0 0-.025-.104l-.232-.31a.05.05 0 0 0-.076-.008l-.367.333zm-8.135-3.649a.132.132 0 0 0-.09-.045H6.14a.186.186 0 0 0-.1.036l-.45.368a.063.063 0 0 0-.011.083l.185.263a.122.122 0 0 0 .089.047h1.77c.03 0 .074-.017.097-.037l.385-.338a.061.061 0 0 0 .007-.082l-.23-.295zm-2.253.961a.148.148 0 0 0-.025-.103l-.23-.294a.057.057 0 0 0-.08-.01l-.328.26a.177.177 0 0 0-.055.092l-.319 1.782a.156.156 0 0 0 .024.104l.232.32c.02.025.054.03.078.01l.33-.272a.18.18 0 0 0 .054-.093l.32-1.796zM4.409 18.94a.197.197 0 0 0-.051.097L4 21.221a.187.187 0 0 0 .02.107l.216.368c.016.027.048.032.07.01l.376-.37a.208.208 0 0 0 .05-.098l.366-2.198a.167.167 0 0 0-.023-.105l-.226-.328a.048.048 0 0 0-.073-.008l-.368.341zm4.14-2.883a.15.15 0 0 0-.025-.102l-.23-.295a.057.057 0 0 0-.08-.01l-.329.26a.175.175 0 0 0-.054.092l-.319 1.73a.156.156 0 0 0 .023.105l.233.32c.019.025.054.03.078.01l.33-.272a.185.185 0 0 0 .054-.093l.319-1.745zM7.327 18.95a.199.199 0 0 0-.05.097l-.367 2.174a.172.172 0 0 0 .022.105l.211.32a.049.049 0 0 0 .075.011l.38-.325a.184.184 0 0 0 .054-.094l.375-2.208a.159.159 0 0 0-.024-.104l-.233-.32a.049.049 0 0 0-.075-.007l-.368.352zm-1.988-.146c-.03 0-.07-.02-.09-.046l-.219-.303a.065.065 0 0 1 .008-.084l.386-.35a.167.167 0 0 1 .098-.038h1.76c.03 0 .07.021.087.047l.21.304a.067.067 0 0 1-.01.086l-.373.336a.17.17 0 0 1-.097.038l-1.76.01zm7.101.283a.298.298 0 0 1-.036.106l-1.516 2.438a.113.113 0 0 1-.086.05h-.438c-.03 0-.05-.026-.046-.058l.09-.565a.34.34 0 0 1 .04-.107l1.525-2.48a.112.112 0 0 1 .086-.048h.388a.05.05 0 0 1 .05.058l-.057.605zm.38-1.486a.312.312 0 0 1 .037-.107l1.519-2.414a.113.113 0 0 1 .086-.05h.437c.03 0 .051.027.046.058l-.09.566a.337.337 0 0 1-.039.106l-1.503 2.408a.113.113 0 0 1-.085.048h-.421c-.031 0-.053-.026-.05-.058l.062-.557zm-.175 1.557a.322.322 0 0 1-.012-.113l.066-.575a.065.065 0 0 1 .062-.058h.427a.08.08 0 0 1 .072.056l.76 2.569c.01.03.013.081.008.113l-.07.462a.07.07 0 0 1-.065.058h-.378a.083.083 0 0 1-.074-.056l-.796-2.456zm-.022-1.698a.33.33 0 0 1 .012.113l-.065.575a.066.066 0 0 1-.063.058H12.1a.082.082 0 0 1-.072-.055l-.77-2.497a.302.302 0 0 1-.007-.114l.07-.461a.069.069 0 0 1 .065-.059h.378c.03 0 .064.026.074.056l.786 2.384zm13.94-2.415a.132.132 0 0 0-.09-.045H24.82a.197.197 0 0 0-.1.034l-.439.33a.065.065 0 0 0-.015.084l.182.3c.016.027.055.05.085.05h1.77a.18.18 0 0 0 .098-.038l.384-.338a.061.061 0 0 0 .008-.082l-.23-.295zm-.973 5.896a.133.133 0 0 0-.092-.044h-1.73a.2.2 0 0 0-.1.034l-.45.34a.059.059 0 0 0-.01.081l.213.296a.124.124 0 0 0 .09.046h1.808a.18.18 0 0 0 .099-.036l.403-.34a.059.059 0 0 0 .007-.08l-.238-.297zm-1.994-4.986a.184.184 0 0 1 .053-.095l.374-.318a.048.048 0 0 1 .074.012l.223.356a.178.178 0 0 1 .02.106l-.323 1.834a.198.198 0 0 1-.052.096l-.366.335a.052.052 0 0 1-.077-.006l-.243-.312a.15.15 0 0 1-.025-.103l.341-1.905zm2.957-.001a.186.186 0 0 1 .053-.094l.374-.318a.048.048 0 0 1 .074.012l.223.356a.177.177 0 0 1 .02.106l-.322 1.813a.2.2 0 0 1-.052.096l-.367.336a.052.052 0 0 1-.077-.007l-.243-.312a.146.146 0 0 1-.024-.102l.341-1.886zm-3.466 2.836a.18.18 0 0 1 .053-.095l.374-.318a.048.048 0 0 1 .073.012l.223.356a.18.18 0 0 1 .021.107l-.314 1.874a.169.169 0 0 1-.054.092l-.351.271a.053.053 0 0 1-.077-.013l-.24-.358a.173.173 0 0 1-.022-.105l.314-1.824zm2.948-.01a.184.184 0 0 1 .053-.095l.373-.318a.048.048 0 0 1 .074.012l.223.356a.179.179 0 0 1 .021.106l-.304 1.833a.194.194 0 0 1-.051.096l-.367.336a.052.052 0 0 1-.077-.007l-.243-.312a.15.15 0 0 1-.026-.102l.324-1.906zm-7.493-.066a.196.196 0 0 0-.051.096l-.405 2.421a.157.157 0 0 0 .024.103l.226.304c.018.025.054.03.078.011l.368-.288a.17.17 0 0 0 .054-.092l.406-2.466a.155.155 0 0 0-.025-.103l-.232-.31a.051.051 0 0 0-.076-.008l-.367.332zm.638-3.494c-.02-.025-.04-.019-.046.013l-.453 2.565a.155.155 0 0 0 .024.104l.226.303c.018.025.054.03.078.01l.368-.287a.174.174 0 0 0 .054-.092l.317-1.847a.145.145 0 0 0-.026-.102l-.542-.667zm.161-.21c-.03 0-.04.02-.02.045l.57.704c.019.025.06.045.09.045h1.688a.19.19 0 0 0 .099-.036l.442-.371a.058.058 0 0 0 .007-.08l-.211-.257a.137.137 0 0 0-.092-.045l-2.573-.005zm2.599.944a.19.19 0 0 1 .053-.094l.374-.318a.048.048 0 0 1 .073.012l.223.356a.177.177 0 0 1 .021.106l-.303 1.73a.206.206 0 0 1-.051.097l-.378.355a.051.051 0 0 1-.077-.006l-.243-.312a.147.147 0 0 1-.024-.102l.331-1.824zm-.22 2.487a.065.065 0 0 0 .006-.084l-.234-.302a.13.13 0 0 0-.09-.045h-1.75a.185.185 0 0 0-.1.036l-.323.259a.062.062 0 0 0-.011.082l.238.349a.12.12 0 0 0 .088.047h1.76c.03 0 .074-.018.096-.039l.32-.303zm-1.751.546a.136.136 0 0 0-.092-.044h-.447a.07.07 0 0 0-.065.057l-.041.287a.15.15 0 0 0 .027.103l1.8 2.26c.019.025.06.045.09.045h.389c.03 0 .06-.025.067-.057l.084-.4a.137.137 0 0 0-.024-.102l-1.788-2.149zm9.066-3.547a.152.152 0 0 0-.026-.104l-.23-.294a.054.054 0 0 0-.078-.008l-.342.296a.186.186 0 0 0-.052.095l-.418 2.452a.154.154 0 0 0 .024.103l.221.29c.02.026.056.031.081.013l.336-.246a.166.166 0 0 0 .056-.091l.428-2.507zm-1.271 3.264a.19.19 0 0 0-.052.096l-.414 2.431a.155.155 0 0 0 .024.104l.226.303c.018.025.054.03.078.011l.368-.288a.172.172 0 0 0 .054-.092l.416-2.476a.157.157 0 0 0-.025-.104l-.232-.31a.051.051 0 0 0-.076-.008l-.367.333zm4.235-3.264a.15.15 0 0 0-.026-.104l-.23-.294a.054.054 0 0 0-.078-.008l-.342.296a.189.189 0 0 0-.052.095l-.418 2.463a.151.151 0 0 0 .025.103l.22.29a.06.06 0 0 0 .081.012l.337-.246a.163.163 0 0 0 .055-.09L32 15.438zm-1.271 3.274a.193.193 0 0 0-.051.096l-.415 2.421a.157.157 0 0 0 .024.103l.226.304c.019.025.054.03.079.011l.367-.288a.17.17 0 0 0 .055-.092l.414-2.466a.155.155 0 0 0-.024-.103l-.232-.31a.051.051 0 0 0-.076-.008l-.367.332zm-1.019-3.302a.105.105 0 0 0-.084-.051h-.33a.07.07 0 0 0-.065.057l-.078.432a.2.2 0 0 0 .017.108l1.043 2a.104.104 0 0 0 .083.052h.27a.07.07 0 0 0 .065-.057l.099-.597a.198.198 0 0 0-.018-.108l-1.002-1.837z" fill="#D90021"/></svg>