<svg width="36" height="36" fill="none" xmlns="http://www.w3.org/2000/svg"><path d="M18 0c2.837 0 5.52.656 7.907 1.825C31.884 4.753 36 10.895 36 18c0 9.942-8.058 18-18 18-9.94 0-18-8.057-18-18C0 8.06 8.06 0 18 0z" fill="#F2F4F7"/><path d="M13.51 22.845c-3.943 2.354-5.82.528-6.264-.682-.986 1.964.913 7.095 7.178 2.719 5.01-3.503 8.14-7.648 9.078-9.284h-.774c-1.43 1.436-5.278 4.893-9.219 7.247z" fill="#0054A4"/><path d="m29 9-8.8 6.6h4.4L29 9z" fill="#B32317"/><path d="M23.504 17.8c-3.912 5.642-2.853 8.145-1.835 8.691-1.793.484-2.274-.746-2.29-1.419-.042-2.974 2.733-6.088 4.12-7.271h.005z" fill="#0054A4"/></svg>