<svg width="36" height="36" fill="none" xmlns="http://www.w3.org/2000/svg"><path d="M18 0c2.837 0 5.52.656 7.907 1.825C31.884 4.753 36 10.895 36 18c0 9.942-8.058 18-18 18-9.94 0-18-8.057-18-18C0 8.06 8.06 0 18 0z" fill="#F2F4F7"/><path d="M27.978 20.165h-.118l-.211.226-.212-.226h-.118l.28.3v.195h.097v-.194l.282-.3zm-1.114.226h-.289v-.138h.284c.063 0 .093.022.093.071 0 .043-.03.067-.088.067zm.198.27-.134-.188c.08-.018.123-.071.123-.15 0-.096-.067-.158-.172-.158h-.4v.495h.096v-.181h.246l.13.181h.11zm-.905-.408v-.088h-.57v.088h.236v.407h.097v-.407h.237zm-.941.035.06-.063a.466.466 0 0 0-.272-.073c-.17 0-.265.06-.265.154 0 .08.057.118.179.13.093.008.17.003.224.018.037.01.056.03.056.056 0 .047-.061.078-.176.078a.432.432 0 0 1-.25-.072l-.053.069a.488.488 0 0 0 .305.087c.181 0 .278-.062.278-.167 0-.098-.075-.133-.23-.149-.144-.014-.232-.006-.232-.06 0-.039.056-.059.165-.059.076 0 .145.016.21.05zm-.84-.123h-.097v.495h.097v-.495zm-.485.495v-.495h-.145l-.203.28-.202-.28h-.145v.495h.097v-.407l.003-.003.247.34.25-.337.002-.003v.41h.096zm-1.036 0v-.087h-.436v-.126h.29v-.088h-.29v-.106h.418v-.088h-.514v.495h.532zm-.92 0v-.495h-.097v.194h-.383v-.194h-.096v.495h.096v-.213h.383v.213h.096zm-.925-.375a.363.363 0 0 0-.297-.136.384.384 0 0 0-.221.066.233.233 0 0 0-.104.196c0 .152.131.262.331.262a.35.35 0 0 0 .287-.123l-.082-.044a.26.26 0 0 1-.203.081c-.144 0-.232-.071-.232-.176 0-.102.09-.175.23-.175a.27.27 0 0 1 .203.08l.088-.031zm-5.18.375v-.087h-.436v-.126h.29v-.087h-.29v-.107h.418v-.087h-.515v.495h.533zm-.847-.494h-.107l-.222.411-.222-.411h-.107l.273.495h.111l.274-.495zm-.971 0h-.097v.495h.097v-.495zm-.419.087v-.087h-.57v.087h.237v.408h.097v-.408h.236zm-.964.214h-.236l.118-.22.118.22zm.211.194-.27-.495h-.12l-.27.495h.107l.057-.106h.333l.057.106h.106zm-.839-.495h-.107l-.222.411-.222-.411h-.107l.273.495h.111l.274-.495zm-1.011.246c0 .104-.088.176-.225.176s-.226-.072-.226-.176c0-.1.092-.175.226-.175s.225.074.225.175zm.1 0a.235.235 0 0 0-.104-.197.38.38 0 0 0-.22-.066.383.383 0 0 0-.222.066.233.233 0 0 0-.105.197c0 .081.035.147.104.198.056.04.134.065.222.065a.375.375 0 0 0 .222-.065.235.235 0 0 0 .103-.198zm-1.008.249v-.495h-.097v.413l-.336-.413h-.144v.495H9.6v-.413l.337.413h.144zm-.966 0v-.495H9.02v.413l-.337-.413H8.54v.495h.097v-.413l.336.413h.144zm-.963-.495h-.097v.495h.097v-.495z" fill="#ED174C"/><path d="M6.601 18.026h-.81s-.163 0-.084-.142l.41-.75s.08-.142.158 0l.41.75s.079.142-.084.142zm1.766 1.217-1.584-2.857s-.079-.143-.242-.143h-.696s-.163 0-.242.143L4.02 19.243s-.079.143.084.143H4.7s.163 0 .242-.143l.202-.364s.079-.142.242-.142h1.609s.163 0 .242.142l.202.364s.078.143.241.143h.604s.162 0 .083-.143zm3.555-1.957c0 .112-.04.202-.12.27a.484.484 0 0 1-.325.102H9.979s-.162 0-.162-.162v-.38s0-.162.162-.162h1.493c.3 0 .45.11.45.332zm.937 1.967-.613-.859s-.095-.132.057-.191c.288-.112.507-.432.507-.902a.956.956 0 0 0-.344-.764c-.23-.196-.533-.294-.907-.294H9.08s-.163 0-.163.163v2.817s0 .163.163.163h.574s.163 0 .163-.163v-.691s0-.163.162-.163h1.05s.163 0 .26.132l.546.753s.095.131.258.131h.698s.163 0 .068-.132zm4.58-3.02h-.958s-.163 0-.298.09l-1.746 1.173s-.135.091-.135-.072v-2.261s0-.163-.162-.163h-.574s-.163 0-.163.163v4.06s0 .163.163.163h.573s.163 0 .163-.163v-.609s0-.163.136-.254l.458-.306s.135-.09.252.023l2.539 2.44s.116.114.279.114h.783s.163 0 .046-.113l-2.964-2.91s-.118-.114.018-.204l1.617-1.08s.136-.092-.027-.092zm4.398 2.99v-.385s0-.163-.163-.163h-2.31c-.164 0-.164-.163-.164-.163v-.233c0-.115.115-.115.115-.115h1.429c.163 0 .163-.163.163-.163v-.384l-.002-.006c-.004-.04-.029-.146-.161-.146h-1.429s-.115 0-.115-.116v-.233s0-.162.163-.162h2.188s.163 0 .163-.163v-.385s0-.163-.163-.163h-3.087s-.163 0-.163.163v2.817s0 .014.005.033a.146.146 0 0 0 .032.073l.01.01.01.01a.145.145 0 0 0 .073.032.221.221 0 0 0 .033.005h3.21s.163 0 .163-.163zm5.238 0v-2.817s0-.163-.163-.163h-.72s-.162 0-.267.126l-1.09 1.311s-.105.126-.209 0l-1.09-1.311s-.104-.126-.266-.126h-.718s-.162 0-.162.163v2.817s0 .163.162.163h.574s.163 0 .163-.163V17.31h.007s.008 0 .113.125l1.22 1.447s.106.124.21 0l1.321-1.572h.008s.007 0 .007.163v1.749s0 .163.163.163h.574s.163 0 .163-.163zm3.137-1.197h-.81s-.163 0-.084-.142l.41-.75s.08-.142.157 0l.412.75s.078.142-.085.142zm1.766 1.217-1.584-2.857s-.079-.143-.242-.143h-.696s-.163 0-.242.143l-1.584 2.857s-.079.143.084.143h.597s.163 0 .242-.143l.202-.364s.079-.142.242-.142h1.609s.163 0 .242.142l.201.364s.08.143.242.143h.604s.162 0 .083-.143" fill="#00367B"/></svg>