<svg height="36" viewBox="0 0 36 36" width="36" xmlns="http://www.w3.org/2000/svg"><mask id="a" fill="#fff"><path d="M0 0h23.185v4.426H0z" fill-rule="evenodd"/></mask><mask id="b" fill="#fff"><path d="M0 0h2.555v2.773H0z" fill-rule="evenodd"/></mask><mask id="c" fill="#fff"><path d="M0 0h2.563v4.358H0z" fill-rule="evenodd"/></mask><g fill="none" fill-rule="evenodd"><path d="M18 0c2.837 0 5.52.656 7.907 1.825C31.884 4.753 36 10.895 36 18c0 9.942-8.058 18-18 18-9.94 0-18-8.057-18-18C0 8.06 8.06 0 18 0z" fill="#f2f4f7" fill-rule="nonzero"/><path d="M22.122 4.19c0 .222-.141.149-.141.208 0 .007.007.014.02.014s.094-.007.148-.007c.08 0 .128.007.162.007.02 0 .02-.014.02-.02 0-.04-.142.013-.142-.128v-.646c0-.033.007-.04.013-.04.008 0 .027.028.035.034l.679.767c.034.033.046.04.06.04.014 0 .014-.02.014-.067v-.914c0-.115.094-.088.094-.13 0-.006-.006-.013-.02-.013-.034 0-.102.007-.155.007-.054 0-.1-.007-.148-.007a.016.016 0 0 0-.014.014c0 .054.176-.007.176.202v.658c0 .015-.007.021-.007.021l-.02-.02-.753-.84c-.008-.007-.021-.035-.042-.035-.026 0-.046.007-.073.007-.027 0-.047-.007-.074-.007-.006 0-.02.007-.02.014 0 .06.188-.033.188.297zm-1.957.236c.35 0 .599-.229.599-.586 0-.33-.25-.557-.572-.557a.56.56 0 0 0-.58.564c0 .337.21.58.553.58zm-.02-1.097c.309 0 .504.283.504.572s-.189.478-.417.478c-.316 0-.505-.283-.505-.58 0-.248.149-.47.417-.47zm-2.045.907c0 .162-.121.109-.121.156 0 .013 0 .02.034.02.02 0 .053-.007.148-.007.067 0 .134.007.174.007.027 0 .034 0 .034-.014 0-.046-.141-.013-.141-.12V3.43c0-.121.114-.08.114-.121 0-.014-.006-.014-.034-.014-.046 0-.094.007-.147.007s-.115-.007-.175-.007c-.007 0-.014 0-.014.014 0 .04.128.007.128.121zm-1.923.042c0 .094-.128.08-.128.114 0 .02.006.02.02.02.007 0 .04-.007.215-.007.048 0 .094.007.128.007.02 0 .013-.014.013-.02 0-.047-.127.006-.127-.128v-.807c0-.081-.008-.074.067-.074h.222c.16 0 .08.12.135.12.02 0 .02-.019.02-.04l-.008-.12c-.006-.04-.012-.048-.046-.048s-.176.007-.465.007c-.202 0-.322-.007-.45-.007-.028 0-.028.041-.028.061l-.02.155c0 .007.007.02.02.02.021 0 .021-.02.028-.04.027-.088.027-.108.127-.108h.256c.027 0 .02.06.02.074v.82zm-1.783-.115c.014.048.048.122.048.155 0 .06-.095.04-.095.08 0 .014.027.014.034.014.046 0 .087-.007.128-.007.066 0 .134.007.195.007.013 0 .026 0 .026-.014 0-.04-.093-.006-.14-.074-.04-.06-.054-.12-.081-.18l-.33-.815c-.007-.013-.014-.06-.034-.06-.02 0-.026.026-.114.221l-.384.807c-.04.095-.114.067-.114.101 0 .007.007.014.013.014.04 0 .088-.007.128-.007.047 0 .088.007.135.007.02 0 .04.007.04-.02 0-.04-.107.006-.107-.108 0-.02.006-.04.006-.054l.101-.222c.02-.033.047-.033.075-.033h.35c.046 0 .053.027.066.06zm-.303-.672c.013-.014.02-.014.028 0l.155.383c.006.02.013.034-.022.034h-.316c-.02 0-.033-.007-.02-.027zm-2.481-.088c0-.06.034-.053.086-.053.155 0 .304.06.304.256s-.155.22-.222.22c-.075 0-.168.008-.168-.019zm.31.437a.306.306 0 0 0 .2-.275c0-.303-.35-.27-.376-.27-.08 0-.175.007-.262.007-.08 0-.075-.007-.108-.007-.013 0-.027.007-.027.02 0 .054.135-.013.135.142v.8c0 .122-.115.101-.115.141 0 .007.007.014.013.014.061 0 .121-.007.182-.007.134 0 .168.007.182.007s.027.007.027-.014c0-.053-.161 0-.161-.14v-.33c0-.014-.014-.047.04-.047.174 0 .148 0 .208.087l.176.276c.06.087.12.168.235.168.014 0 .107 0 .107-.02 0-.034-.08.027-.195-.148zm-2.403.586c.35 0 .599-.229.599-.586 0-.33-.249-.557-.572-.557a.559.559 0 0 0-.578.564c0 .337.209.58.551.58zm-.02-1.097c.31 0 .504.283.504.572s-.187.478-.415.478c-.317 0-.505-.283-.505-.58 0-.248.147-.47.417-.47zm-2.273.067c0-.046.034-.046.082-.046.18 0 .329.1.329.295 0 .141-.094.216-.256.216-.054 0-.088-.007-.101-.007-.007 0-.02 0-.02.014 0 .026.094.033.107.033.343 0 .39-.235.39-.302 0-.236-.229-.303-.424-.303-.08 0-.1.006-.18.006-.095 0-.149-.006-.162-.006s-.021.006-.021.02c0 .06.128-.04.128.155v.753c0 .176-.12.128-.12.168 0 .02.013.02.02.02.046 0 .1-.007.174-.007.094 0 .115.007.169.007.04 0 .046-.007.046-.02 0-.053-.161.034-.161-.195zm-2.233.007c0-.06.033-.053.094-.053.155 0 .303.06.303.256s-.155.22-.222.22c-.074 0-.175.008-.175-.019zm.316.437a.3.3 0 0 0 .195-.275c0-.303-.35-.27-.37-.27-.087 0-.175.007-.269.007-.08 0-.067-.007-.1-.007-.014 0-.028.007-.028.02 0 .054.136-.013.136.142v.8c0 .122-.115.101-.115.141 0 .007.006.014.014.014.06 0 .12-.007.181-.007.127 0 .167.007.182.007.013 0 .026.007.026-.014 0-.053-.168 0-.168-.14v-.33c0-.014-.007-.047.047-.047.175 0 .149 0 .208.087l.176.276c.06.087.12.168.235.168.014 0 .108 0 .108-.02 0-.034-.081.027-.196-.148zm-2.4.586c.35 0 .597-.229.597-.586 0-.33-.248-.557-.57-.557a.56.56 0 0 0-.58.564c0 .337.209.58.553.58zM2.886 3.33c.31 0 .505.283.505.572s-.19.478-.417.478c-.316 0-.505-.283-.505-.58 0-.248.149-.47.417-.47zm-2.812.545c0 .33.23.552.551.552.358 0 .472-.121.472-.129l.04-.153c0-.008-.007-.021-.02-.021-.006 0-.014.013-.02.02-.02.074-.175.236-.424.236-.31 0-.463-.276-.463-.552 0-.297.147-.498.457-.498.201 0 .316.101.417.27 0 .013.013.053.033.053.027 0 .013-.053.007-.141 0-.1 0-.128-.02-.128-.014 0-.027.02-.04.02-.041 0-.129-.12-.424-.12-.33-.001-.566.262-.566.591zM21.9.43c0-.235-.007-.221.33-.221.148 0 .517-.02.605.1.061.08 0 .249.087.249.02 0 .074-.027.074-.423 0-.04-.006-.075-.04-.075-.107 0-.438.014-.505.014-.147 0-.335-.014-1.008-.014-.101 0-.121.014-.121.04 0 .04.073.047.1.054.195.034.195.203.195.364v1.621c0 .168-.006.268-.1.31-.114.06-.149.046-.155.094 0 .027.02.033.054.033.141 0 .289-.006.43-.014.276-.006.545.014.814.014.155 0 .236.007.35-.121.087-.094.175-.216.175-.343 0-.007 0-.047-.028-.047-.046 0-.167.37-.989.37-.295 0-.268-.087-.268-.296v-.653c0-.053-.013-.114.06-.114h.531c.297 0 .176.309.283.309.027 0 .04-.013.04-.047 0-.094-.006-.188-.006-.275 0-.115.007-.236.007-.363 0-.027-.007-.068-.04-.068-.081 0 .013.282-.357.282h-.384c-.141 0-.134 0-.134-.12zM19.627.41c0-.31.261-.222.261-.302 0-.041-.02-.048-.067-.048-.053 0-.14.014-.342.014-.175 0-.283-.014-.356-.014-.048 0-.075.007-.075.04 0 .075.296.047.296.236v1.803c0 .168-.007.268-.093.31-.116.06-.155.046-.163.094 0 .027.027.033.054.033.142 0 .296-.006.438-.014.268-.006.538.014.807.014.16 0 .235.007.35-.121.088-.094.18-.216.18-.343 0-.007-.006-.047-.025-.047-.048 0-.169.37-.996.37-.296 0-.269-.087-.269-.296zm-2.67-.1c0-.141.08-.135.208-.135.343 0 .68.148.68.578 0 .445-.344.505-.498.505-.169 0-.39.02-.39-.047zm.706.98c.249-.1.444-.342.444-.618 0-.686-.788-.612-.841-.612-.188 0-.39.014-.592.014-.181 0-.168-.014-.229-.014-.046 0-.073.021-.073.04 0 .121.31-.026.31.316v1.81c0 .27-.264.223-.264.31 0 .02.014.04.034.04.135 0 .27-.014.41-.014.296 0 .378.014.404.014.034 0 .06.007.06-.027 0-.12-.37-.014-.37-.316V1.48c0-.034-.02-.102.094-.102.397 0 .344-.006.478.19l.39.624c.135.202.276.384.539.384.027 0 .228 0 .228-.04 0-.088-.176.046-.43-.35zm-2.421.728c.034.094.107.261.107.336 0 .135-.208.101-.208.189 0 .034.053.034.074.034.094 0 .195-.015.289-.015.147 0 .289.015.436.015.028 0 .054 0 .054-.034 0-.088-.208-.008-.316-.176-.08-.12-.127-.268-.174-.403l-.746-1.83C14.75.102 14.724 0 14.683 0c-.046 0-.053.061-.262.505l-.855 1.816c-.093.202-.255.142-.255.215 0 .021.007.042.027.042.094 0 .188-.015.29-.015.1 0 .194.015.296.015.047 0 .094.012.094-.055 0-.094-.25.013-.25-.235 0-.047.014-.1.028-.121l.222-.498c.04-.074.1-.074.168-.074h.786c.101 0 .122.048.155.134zM14.569.504c.02-.04.04-.04.053 0l.35.861c.02.047.02.068-.053.068h-.706c-.048 0-.075-.014-.048-.06zm-1.863-.02c-.014-.424.27-.269.27-.383 0-.02-.014-.04-.035-.04-.054 0-.087.013-.168.013-.02 0-.134-.014-.168-.014-.04-.006-.074.08-.094.121l-.848 1.695c-.053.122-.094.195-.107.195-.028 0-.04-.033-.08-.107l-.849-1.81c-.012-.033-.02-.094-.073-.094-.061 0-.128.014-.19.014-.066 0-.133-.014-.2-.014-.027 0-.061.007-.061.034 0 .121.342-.074.342.76 0 .377-.046.754-.086 1.332-.027.37-.256.229-.256.35 0 .02.013.04.04.04.06 0 .122-.014.31-.014.107 0 .262.014.31.014.053 0 .093 0 .093-.04 0-.129-.344.034-.323-.444l.04-1.251c.008-.033.014-.048.027-.048.015 0 .034.007.04.034l.761 1.588c.013.027.034.107.074.107.033 0 .087-.148.108-.182l.74-1.5c.033-.073.067-.107.086-.107.021 0 .04.047.04.142l.035 1.379c.007.26-.215.18-.215.289 0 .013.006.034.033.034.095 0 .209-.015.316-.015.141 0 .27.015.336.015.042 0 .08 0 .08-.034 0-.128-.261.006-.275-.297zM8.394.43c0-.235-.013-.221.33-.221.141 0 .512-.02.606.1.06.08 0 .249.086.249.02 0 .068-.027.068-.423 0-.04-.007-.075-.034-.075-.107 0-.436.014-.504.014C8.79.074 8.609.06 7.937.06 7.83.06 7.81.074 7.81.1c0 .04.08.047.108.054.195.034.195.203.195.364v1.621c0 .168-.008.268-.102.31-.113.06-.147.046-.154.094 0 .027.02.033.053.033.142 0 .29-.006.43-.014.27-.006.546.014.815.014.155 0 .235.007.35-.121.08-.094.174-.216.174-.343 0-.007 0-.047-.026-.047-.047 0-.169.37-.99.37-.302 0-.268-.087-.268-.296v-.653c0-.053-.013-.114.06-.114h.526c.302 0 .18.309.289.309.026 0 .04-.013.04-.047 0-.094-.006-.188-.006-.275 0-.115.006-.236.006-.363 0-.027-.014-.068-.04-.068-.08 0 .013.282-.356.282H8.53c-.148 0-.135 0-.135-.12zM5.731 2.166c0 .276-.121.296-.162.302-.06.021-.107.033-.107.067 0 .033.074.04.087.04.168 0 .336-.013.498-.013.121 0 .336.014.464.014.693 0 .86-.517.86-.754 0-.591-.558-.598-.558-.652 0-.027.338-.148.338-.511 0-.262-.155-.599-.78-.599-.29 0-.431.014-.572.014-.142 0-.216-.014-.283-.014-.047 0-.101-.007-.101.047 0 .074.316.034.316.303zM6.014.444c0-.21-.014-.27.208-.27.356 0 .679.216.679.6 0 .168-.026.389-.611.389-.317 0-.276-.02-.276-.134zm0 .908c0-.033-.014-.08.255-.08.82 0 .834.456.834.684 0 .21-.128.526-.598.526-.505 0-.49-.075-.49-.33zM3.666.41c0-.31.256-.222.256-.302 0-.041-.02-.048-.068-.048-.054 0-.14.014-.343.014-.175 0-.282-.014-.356-.014-.047 0-.074.007-.074.04 0 .075.302.047.302.236v1.803c0 .168-.006.268-.1.31-.114.06-.148.046-.155.094 0 .027.02.033.053.033.143 0 .29-.006.432-.014.268-.006.544.014.813.014.155 0 .235.007.35-.121.08-.094.175-.216.175-.343 0-.007 0-.047-.028-.047-.046 0-.167.37-.987.37-.304 0-.27-.087-.27-.296zM1.931 2.018c.04.094.115.261.115.336 0 .135-.216.101-.216.189 0 .034.06.034.08.034.094 0 .19-.015.29-.015.14 0 .29.015.437.015.02 0 .047 0 .047-.034 0-.088-.208-.008-.316-.176-.08-.12-.121-.268-.175-.403l-.74-1.83C1.44.102 1.42 0 1.38 0c-.047 0-.06.061-.268.505L.263 2.32C.168 2.522 0 2.462 0 2.535c0 .021.014.042.034.042.094 0 .189-.015.283-.015.101 0 .201.015.302.015.048 0 .094.012.094-.055 0-.094-.255.013-.255-.235 0-.047.014-.1.027-.121l.228-.498c.034-.074.101-.074.168-.074h.78c.102 0 .122.048.156.134zM1.258.504c.027-.04.04-.04.061 0l.35.861c.013.047.02.068-.06.068h-.7c-.047 0-.075-.014-.047-.06z" fill="#272727" mask="url(#a)" transform="translate(8.815 16)"/><g fill="#64808f"><path d="M0 2.771h2.193s.18.034.323-.189c.1-.167-.027-.396-.027-.396L1.386 0a.91.91 0 0 0-.088.438c0 .128.054.31.148.497l.485.908s.201.39.208.464c.02.141-.074.229-.154.229H.558c-.222 0-.302-.162-.31-.289l-.134.289z" mask="url(#b)" transform="translate(4 17.587)"/><path d="M7.074 20.358h-.457s.107-.094.155-.235c.033-.128-.042-.316-.042-.316L5.493 17.36l.216-.417 1.4 2.724s.166.323.12.457c-.048.141-.155.235-.155.235"/><path d="M1.87 4.358h-.276s.128-.202.068-.376a3.386 3.386 0 0 0-.249-.559L0 .706.37 0l2.193 4.358z" mask="url(#c)" transform="translate(5.823 16)"/></g></g></svg>