<svg height="36" viewBox="0 0 36 36" width="36" xmlns="http://www.w3.org/2000/svg"><mask id="a" fill="#fff"><path d="M0 0h28v6.297H0z" fill-rule="evenodd"/></mask><g fill="none" fill-rule="evenodd"><path d="M18 0c2.837 0 5.52.656 7.907 1.825C31.884 4.753 36 10.895 36 18c0 9.942-8.058 18-18 18-9.94 0-18-8.057-18-18C0 8.06 8.06 0 18 0z" fill="#f2f4f7" fill-rule="nonzero"/><g fill="#2f7cbd"><path d="m9.262 15.628.1.166a.722.722 0 0 0-.1-.166zm-2.284.199.1-.199-.1.199zm5.429 5.361h1.522v-5.46h-1.522z"/><path d="M27.206 1.82h.132c.1 0 .2 0 .2-.133 0-.099-.1-.132-.167-.132h-.165zm-.132-.364h.297c.2 0 .265.1.265.231s-.066.199-.199.199l.233.364h-.133l-.199-.33h-.132v.33h-.132zm.264.96c.298 0 .53-.232.53-.563 0-.33-.232-.563-.53-.563-.297 0-.529.265-.529.563 0 .331.232.562.53.562zm0-1.225c.365 0 .662.297.662.662a.663.663 0 0 1-.662.662.664.664 0 0 1-.662-.662c0-.365.299-.662.662-.662zM13.007 6.288c-.463 0-.993-.066-1.224-.066-.861-.066-1.291-.398-1.391-.96a8.68 8.68 0 0 1-.132-1.026c0-.165.033-.662.067-.827.13-.53.23-.894 1.456-1.093.363-.066.86-.066 1.224-.066s.827 0 1.224.066c.464.066.761.233.928.43l-1.093 1.39c0-.098 0-.197-.033-.264-.066-.199-.1-.364-.629-.464-.165 0-.231-.032-.397-.032s-.364.032-.53.032c-.529.1-.563.265-.628.464-.034.099-.034.298-.034.364s.034.398.067.43c.032.232.231.364.595.397h1.06c.53-.033 1.356-.198 1.952-.893 0 0-.066 1.025-.066 1.158-.132.53-.331.828-1.192.894-.231 0-.76.066-1.224.066zM26.61 3.376c0-.332-.198-.894-1.39-1.093-.397-.066-.629-.033-.993-.033-.463 0-.96.198-1.224.464h-.033V2.25h-1.523v3.94h1.523V4.236c0-.297.131-.53.462-.728.166-.066.332-.1.596-.1.299 0 .398 0 .563.034.398.132.497.264.497.629v2.118h1.522zm-7.017 1.29c-.033.232-.231.364-.595.397h-1.06c-.364-.033-.53-.165-.595-.396 0-.067-.033-.365-.033-.43v-.365c.066-.199.099-.364.629-.464.165 0 .397-.033.53-.033.165 0 .363.033.53.033.529.1.56.265.628.464.033.099.033.298.033.364s-.033.398-.067.43zm1.556-1.258c-.133-.496-.231-.926-1.456-1.125-.364-.066-.861-.033-1.225-.033-.364 0-.827-.034-1.191.033-1.258.199-1.324.63-1.49 1.125-.032.2-.032.663-.032.828 0 .198.066.926.099 1.027.132.561.562.893 1.423.959.231 0 .728.099 1.191.066.463.033 1.026-.033 1.258-.066.993-.132 1.258-.398 1.39-.96 0-.1.1-.828.1-1.026 0-.165-.034-.629-.067-.828zm-17.938.53.926-1.754.96 1.755zM5.36.795 5.264.63A1.285 1.285 0 0 0 4.17 0c-.297 0-.794.198-1.093.629L0 6.222l1.953-.033.562-.994H5.79l.497.994h2.019z" mask="url(#a)" transform="translate(4 15)"/></g></g></svg>