<svg height="36" viewBox="0 0 36 36" width="36" xmlns="http://www.w3.org/2000/svg"><mask id="a" fill="#fff"><path d="M0 0h28v8.313H0z" fill-rule="evenodd"/></mask><g fill="none" fill-rule="evenodd"><path d="M18 0c2.837 0 5.52.656 7.907 1.825C31.884 4.753 36 10.895 36 18c0 9.942-8.058 18-18 18-9.94 0-18-8.057-18-18C0 8.06 8.06 0 18 0z" fill="#f2f4f7" fill-rule="nonzero"/><path d="M0 6.076h28v-.112H0zM13.972 3.08c4.68 0 9.22-.916 13.493-2.723.18-.077.357-.156.535-.234V0c-.192.087-.386.17-.58.253a34.332 34.332 0 0 1-13.448 2.715A34.33 34.33 0 0 1 .524.253C.348.18.174.102 0 .025v.122l.48.21A34.455 34.455 0 0 0 13.973 3.08z" fill="#8c7d73" mask="url(#a)" transform="translate(4 14)"/><g fill="#244184"><path d="M23.248 8.313h1.381a.074.074 0 0 0 .075-.072v-.413a.074.074 0 0 0-.075-.073h-1.884a.918.918 0 0 1-.555-.22c-.122-.123-.204-.382-.204-.555V5.09a.074.074 0 0 0-.074-.074h-.43a.075.075 0 0 0-.073.074v1.384c0 .491.191.953.539 1.3.344.347.813.54 1.3.54m-16.828 0h1.381c.04 0 .074-.033.074-.073v-.413a.072.072 0 0 0-.074-.073H5.916a.923.923 0 0 1-.555-.22c-.122-.123-.204-.382-.204-.555V5.09a.075.075 0 0 0-.074-.074h-.428a.075.075 0 0 0-.074.074v1.384c0 .491.191.953.538 1.3.345.347.813.54 1.301.54" mask="url(#a)" transform="translate(4 14)"/><path d="M17.605 3.587a.075.075 0 0 0 .103 0l1.333-1.332a.769.769 0 0 1 1.101 0L21.48 3.59a.074.074 0 0 0 .105 0l.29-.289a.073.073 0 0 0 .001-.103l-.002-.002-.977-.978a1.843 1.843 0 0 0-2.602 0l-.976.977a.072.072 0 0 0-.002.102l.002.002zM14.59 4.902h.415a.074.074 0 0 0 .074-.074V2.943a.77.77 0 0 1 .22-.551.746.746 0 0 1 .55-.22h1.89c.04 0 .073-.034.073-.074v-.416a.073.073 0 0 0-.073-.074h-1.385a1.842 1.842 0 0 0-1.838 1.839v1.381c0 .04.033.073.073.074zM6.157 3.587a.075.075 0 0 0 .103 0l1.333-1.332a.77.77 0 0 1 1.102 0l1.336 1.335c.03.03.075.03.104.001l.291-.29a.074.074 0 0 0 0-.105l-.98-.978a1.842 1.842 0 0 0-2.6 0l-.977.977a.075.075 0 0 0 0 .104zm6.468 1.293h1.382c.04 0 .073-.033.073-.072v-.412a.074.074 0 0 0-.073-.074h-1.885a.921.921 0 0 1-.554-.22c-.123-.123-.206-.381-.206-.555v-1.89a.073.073 0 0 0-.073-.073h-.43a.074.074 0 0 0-.073.074v1.384c-.001.487.192.956.538 1.3.344.346.814.54 1.301.538zm4.088 2.147a.073.073 0 0 0 .104 0l1.333-1.333a.772.772 0 0 1 1.102 0l1.336 1.337a.075.075 0 0 0 .053.022.076.076 0 0 0 .052-.022l.289-.29a.073.073 0 0 0 .002-.102l-.002-.002-.978-.978a1.84 1.84 0 0 0-2.602 0l-.977.976a.076.076 0 0 0 0 .105zm-.93-.621a.073.073 0 0 0-.105 0l-1.333 1.333a.77.77 0 0 1-1.101-.001l-1.336-1.336a.073.073 0 0 0-.104 0l-.29.29a.073.073 0 0 0 0 .104l.978.978a1.842 1.842 0 0 0 2.601 0l.976-.976a.073.073 0 0 0 .001-.104v-.001zm-8.866.621a.073.073 0 0 0 .104 0l1.333-1.333a.773.773 0 0 1 1.103 0l1.335 1.337a.076.076 0 0 0 .105 0l.29-.29a.073.073 0 0 0 0-.103l-.98-.979a1.839 1.839 0 0 0-2.6 0l-.977.976a.074.074 0 0 0 0 .105z" mask="url(#a)" transform="translate(4 14)"/></g></g></svg>