<svg height="36" viewBox="0 0 36 36" width="36" xmlns="http://www.w3.org/2000/svg"><mask id="a" fill="#fff"><path d="M0 0h28v12.492H0z" fill-rule="evenodd"/></mask><g fill="none" fill-rule="evenodd"><path d="M18 0c2.837 0 5.52.656 7.907 1.825C31.884 4.753 36 10.895 36 18c0 9.942-8.058 18-18 18-9.94 0-18-8.057-18-18C0 8.06 8.06 0 18 0z" fill="#f2f4f7" fill-rule="nonzero"/><path d="M16.242 12a.94.94 0 1 0 .94.94v-.002a.937.937 0 0 0-.935-.938z" fill="#009ace"/><path d="M20.724 8.786c0 2.783-1.628 3.706-3.545 3.706a5.077 5.077 0 0 1-2.32-.519l.372-1.286a3.92 3.92 0 0 0 1.936.505c1.115 0 2.062-.716 2.062-2.004v-.445a2.656 2.656 0 0 1-2.027.864c-1.747 0-3.067-1.405-3.067-3.426 0-1.936 1.243-3.424 3.073-3.424a2.577 2.577 0 0 1 2.012.864l.019-.682h1.485zm-1.412-2.593c0-1.351-.852-2.074-1.822-2.074-1.158 0-1.827.942-1.827 2.074 0 1.195.72 2.074 1.827 2.074 1.018 0 1.822-.757 1.822-2.074zm-17.78 0c0 1.245.762 2.074 1.823 2.074.966 0 1.83-.709 1.83-2.074 0-1.332-.827-2.074-1.825-2.074-1.113 0-1.828.873-1.828 2.074zM5.11 2.942h1.482v6.485H5.11l-.024-.679a2.91 2.91 0 0 1-2.01.864C1.31 9.61 0 8.188 0 6.193c0-2.126 1.419-3.432 3.078-3.432.765-.022 1.5.294 2.009.864zm6.384 6.485h1.5V2.942h-1.5zm-1.703 0H8.297V0h1.498zm12.636-6.485h1.443l.023.601a2.123 2.123 0 0 1 1.657-.782c1.585 0 2.449.98 2.449 2.687v3.976h-1.496V5.502c0-.878-.538-1.383-1.292-1.383-.753 0-1.287.505-1.287 1.383v3.925h-1.497z" fill="#3d3935" mask="url(#a)" transform="translate(4 12.153)"/></g></svg>