<svg height="36" viewBox="0 0 36 36" width="36" xmlns="http://www.w3.org/2000/svg"><mask id="a" fill="#fff"><path d="M0 0h28.044v8.338H0z" fill-rule="evenodd"/></mask><g fill="none" fill-rule="evenodd"><path d="M18 0c2.837 0 5.52.656 7.907 1.825C31.884 4.753 36 10.895 36 18c0 9.942-8.058 18-18 18-9.94 0-18-8.057-18-18C0 8.06 8.06 0 18 0z" fill="#f2f4f7" fill-rule="nonzero"/><g fill="#08426a"><path d="M29.909 17.152c-1.588 0-2.556.918-3.449 2.953-.224.52-.348 1.142.396 1.117.422 0 1.117-.248 1.614-.596-.05.174-.075.397-.05.546h1.117c.05-.446.198-.968.571-1.638l1.39-2.333c-.497 0-1.043-.05-1.589-.05zm-1.166 2.705c-.224.223-.695.546-1.042.546-.273 0-.273-.248-.1-.596.67-1.265 1.366-1.935 2.234-1.935h.149zm-10.324-2.705c-1.588 0-2.556.918-3.449 2.953-.224.52-.348 1.142.396 1.117.422 0 1.117-.248 1.613-.596a6.196 6.196 0 0 0-.049.57h1.117c.049-.446.198-.967.57-1.637l1.391-2.333c-.497-.025-1.043-.074-1.589-.074zm-1.166 2.705c-.224.223-.696.546-1.043.546-.273 0-.273-.248-.099-.596.67-1.265 1.364-1.935 2.234-1.935h.148zm.248-5.535-3.127 5.287c-.323.546-.522 1.092-.571 1.613h-1.216c.074-.67.347-1.291.868-2.21l2.209-3.697c.447-.744.869-.993 1.663-.993z"/><path d="M27.423 6.626c.075 0 .125-.049.125-.099 0-.075-.05-.099-.125-.099h-.1v.198zm-.1.373H27.2v-.696h.248c.124 0 .248.1.248.224a.217.217 0 0 1-.148.199l.148.273h-.148l-.15-.249h-.05zm.076.173c.273 0 .496-.223.496-.521s-.223-.521-.496-.521-.497.223-.497.521.249.521.497.521zm0-1.166c.347 0 .645.297.645.645s-.273.645-.645.645c-.348 0-.621-.297-.621-.645.025-.348.298-.645.62-.645zM17.248 4.293c-.024.1.026.174.248.323l.348.223c.372.248.52.62.472.893-.124.82-.745 1.515-2.036 1.515-.57 0-.82-.025-1.513-.124l.52-.844c.472.074.745.124 1.093.124.496 0 .694-.224.72-.397.024-.1-.026-.224-.274-.398l-.272-.198c-.447-.323-.546-.571-.497-.918.099-.745.943-1.291 2.159-1.291.372 0 .794.025 1.216.075l-.471.819c-.298-.025-.77-.05-1.093-.025-.396-.049-.594.05-.62.223zM11.292 0C10.175 0 9.58.298 8.487 1.092l-3.722 2.68H2.407c-.694 0-1.24.025-1.687.447L.1 4.79s1.787-.075 3.474-.124L0 7.222h1.539l3.648-2.631c.719-.025 1.19-.049 1.19-.049.845-.025 1.317-.77 1.317-.77h-1.39l2.953-2.134-2.184 3.549c-.471.819-.695 1.39-.794 2.035h1.266c.05-.546.223-1.067.57-1.614L11.094.62c.223-.347.396-.62.396-.62zm10.97 8.338h-.373c-.471 0-.868-.322-1.018-.794l-.546-2.085-1.017 1.738h-1.191l3.3-5.633c.447-.745.869-.993 1.663-.993h.15l-2.21 3.747 1.664-1.142h1.314l-2.78 1.936z" mask="url(#a)" transform="translate(4 14)"/></g></g></svg>