<svg width="36" height="36" fill="none" xmlns="http://www.w3.org/2000/svg"><path d="M18 0c2.837 0 5.52.656 7.907 1.825C31.884 4.753 36 10.895 36 18c0 9.942-8.058 18-18 18-9.94 0-18-8.057-18-18C0 8.06 8.06 0 18 0z" fill="#F2F4F7"/><g fill="#0076C0"><path d="M31.684 20.278c-.187 0-.317-.13-.317-.323s.132-.325.317-.325c.186 0 .316.131.316.325 0 .193-.133.323-.316.323zm0-.61c-.151 0-.27.103-.27.287 0 .182.119.285.27.285.151 0 .271-.103.271-.285 0-.184-.12-.287-.271-.287zm.093.46-.107-.153h-.035v.147h-.061v-.357h.108c.076 0 .126.037.126.104a.097.097 0 0 1-.073.099l.104.146-.062.014zm-.095-.308h-.047v.106h.044c.04 0 .066-.016.066-.053 0-.035-.022-.053-.063-.053zm-16.743-3.462-2.439 3.92h.829l.622-1.01h1.4v1.01h.787v-3.92h-1.2zm.41 2.216h-.962c.06-.095.963-1.561.963-1.561v1.561zm1.348-2.216h.764v3.92h-.764v-3.92zm1.321 0h.764v3.92h-.764v-3.92zm2.447 2.068c-.416-.108-.503-.169-.492-.342.009-.157.137-.247.35-.247.265 0 .588.093.866.249l.044.025.105-.655-.025-.011a2.4 2.4 0 0 0-.99-.2c-.348 0-.646.108-.837.303a.794.794 0 0 0-.226.581c.014.604.302.775.984.951.452.111.544.178.54.393-.002.193-.118.266-.424.266-.321 0-.683-.118-.997-.323l-.046-.03-.105.656.022.013c.244.134.663.276 1.103.276.427 0 .742-.101.937-.299.152-.154.227-.363.223-.623-.011-.65-.339-.804-1.032-.983zm2.888 1.192-.04.01a.796.796 0 0 1-.21.022c-.227 0-.332-.102-.332-.323v-1.389h.56l.012-.638h-.571v-.943h-.752v.943h-.393v.638h.393v1.504c0 .596.31.886.952.886.207 0 .334-.023.446-.048l.034-.006-.1-.656zm1.628-2.38a2.94 2.94 0 0 0-1.12.229l-.028.01.099.629.043-.019c.342-.15.632-.222.915-.222.301 0 .443.125.443.393v.077c-1.13.116-1.679.502-1.679 1.178 0 .5.324.823.827.823.347 0 .636-.127.902-.386l.054.328h.66v-2.04c-.001-.681-.355-1-1.116-1zm-.265 2.501c-.188 0-.305-.115-.305-.3 0-.33.319-.546.921-.627v.646c-.187.183-.399.281-.616.281zm3.342-.121-.04.01a.795.795 0 0 1-.208.022c-.227 0-.334-.102-.334-.323v-1.389h.562l.01-.638h-.573v-.943h-.753v.943h-.39v.638h.39v1.504c0 .596.313.886.955.886.206 0 .339-.024.446-.048l.034-.006-.1-.656zm2.622-.23c-.342.237-.622.34-.939.34-.41 0-.665-.279-.709-.762h1.783l.007-.203c0-1.01-.42-1.523-1.248-1.524-.364-.001-.663.113-.887.338-.274.272-.418.696-.418 1.22 0 .95.537 1.539 1.398 1.539.42 0 .802-.118 1.134-.346l.018-.012-.093-.623-.046.033zm-1.637-.926c.034-.427.22-.672.514-.672.396 0 .5.356.516.672h-1.03zM8.028 15C5.808 15 4 16.372 4 18.058c0 1.686 1.807 3.165 4.028 3.165 2.222 0 4.028-1.48 4.028-3.165 0-1.686-1.806-3.058-4.028-3.058zm.001 6.014c-1.923 0-3.487-1.38-3.487-2.952 0-1.574 1.564-2.853 3.487-2.853s3.488 1.28 3.488 2.853c0 1.572-1.565 2.952-3.488 2.952z"/><path d="m7.26 19.375.07.07.139.078.132.072.017.01.097.053.164.09c.01.003.03.003.03.003l.21-.014c.121-.002.262 0 .357.044.104.053.068.15.068.15s.108-.077.088-.169c-.01-.077-.104-.179-.411-.197a1.935 1.935 0 0 0-.242.008h-.013c0-.003-.138-.09-.138-.09l-.058-.034-.19-.1-.117-.046c0-.004-.103-.148-.103-.148l-.038-.054-.11-.16-.048-.068a21.59 21.59 0 0 1-.063-.098.278.278 0 0 0 .056-.182c-.008.013-.014.016-.057.053a.915.915 0 0 1-.26.117l-.038.01.308.405.15.197zm.506-.23.021.027c.009.008.139.06.139.06.087.035.207.09.262.123l.147.087c.012.005.163-.006.263.002.125.01.222.057.273.13.068.097-.015.2-.015.2.018-.01.16-.099.15-.242-.01-.137-.128-.266-.569-.26 0-.002-.12-.072-.12-.072l-.036-.02-.196-.1-.159-.055a.75.75 0 0 0-.037-.07c-.052-.093-.124-.185-.185-.266l-.02-.023s-.108-.15-.12-.169c.034-.073.005-.18.005-.18s-.018.036-.048.073a.672.672 0 0 1-.166.132l-.03.02.4.545.041.058zm.18-.976a.261.261 0 0 0-.022-.174l-.024.056a.391.391 0 0 1-.154.156l-.025.014.323.461.02.03.061.084c.008.008.135.08.135.08l.048.026.145.087.133.089.01.003.199.013c.12.01.19.054.226.08.125.09.058.226.058.226s.168-.159.057-.33c-.04-.06-.098-.117-.265-.136l-.206-.028c0-.002-.11-.076-.11-.076l-.144-.09-.038-.022-.118-.052-.309-.497zm-1.342-2.74.044.044.163.15.093.087c.069.066.085.1.083.113-.003.013-.016.019-.028.026-.012.007-.032.011-.032.011l-.007.062.038-.002c.215-.005.417.14.547.264.227.216.399.567.437.894l.177.923.067.142.013.029.029.06c.025.06.064.114.067.117l.092.074.128.13.038.042.061.06c.005.004.186.027.186.027.314.053.3.227.3.227s.188-.287-.26-.388l-.143-.027c0-.004-.05-.072-.05-.072l-.017-.018-.136-.135-.06-.058-.057-.15-.079-.191a1.743 1.743 0 0 1-.05-.283 8.151 8.151 0 0 1-.015-.093l-.059-.387.014-.076c.025-.145.08-.305.161-.477a.967.967 0 0 1 .304-.344 1.56 1.56 0 0 1 .492-.168c.046-.005.06-.032.068-.058l.005-.016-.015-.002c-.065-.013-.142-.035-.147-.047a.031.031 0 0 1-.003-.012c0-.011.009-.03.025-.054l.097-.093.056-.056.268-.258-.22-.074-.242.251c-.16.172-.341.367-.425.401a.998.998 0 0 0-.495.473l-.055.146a1.44 1.44 0 0 0-.245-.454 1.074 1.074 0 0 0-.43-.312 14.98 14.98 0 0 0-.577-.515l-.206.067zm.833 4.656c-.286.146-.445.019-.375-.135.093.063.238.11.375.135zm-.492-.218c-.195.053-.267-.084-.221-.196.037.043.175.167.221.196zM5.19 16.37l.053.039c.006.003.248.204.284.235l-.106.292c-.091.23-.183.462-.188.645l.002.03.079.415.006.03c.044.216.094.461.115.637.004.05.017.08.036.092.12.125.315.378.551.86l.014.026c.023.067.051.111.085.133a.203.203 0 0 0 .179 0 .673.673 0 0 0 .259-.325c.019.022.069.088.077.097-.204.353.156.483.284.433-.074.214.199.385.455.271.033.139.143.18.248.2.104.02.245.031.477.01a2.38 2.38 0 0 0 .79-.2c.268-.137.414-.311.5-.433l.028-.036a.7.7 0 0 0 .092.133c.085.084.165.121.231.11.047-.009.083-.038.108-.091.119-.287.379-.64.583-.877l.019-.038c.045-.168.203-.584.287-.81l.06-.161.012-.04c.004-.064.006-.128.006-.192 0-.29-.042-.566-.121-.8-.04-.119-.08-.19-.116-.26l-.043-.079c.058-.086.226-.2.362-.291l.01-.006-.166-.182-.116.08c-.121.083-.243.116-.32.086-.01-.004-.111-.061-.111-.061a.229.229 0 0 0-.024-.012l-.034-.005-.038.008-.022.005.035.04c.07.084.107.156.158.254l.031.058.03.068.005.014.039.099.006.02.021.058.08.281c.069.287.103.523.105.725l-.003.023-.094.265c-.097.275-.219.616-.246.757l-.006.017c-.26.27-.444.59-.523.782-.012.025-.021.028-.024.029-.013.002-.043-.026-.06-.041-.064-.059-.103-.181-.099-.31a.513.513 0 0 1 .189-.39c.018-.013.011-.04.007-.055-.031-.18.02-.456.131-.535l.029-.02-.028-.022c-.319-.247-.475-.704-.488-1.045l-.002-.044-.05.02a.473.473 0 0 0-.024.034 1.054 1.054 0 0 0-.018.2c0 .174.034.327.048.382.044.188.137.362.274.52l.006.006c-.06.075-.086.256-.086.396 0 .043.002.08.008.11a.581.581 0 0 0-.194.532c-.002-.003-.073.092-.073.092l-.014.02c-.141.195-.24.331-.477.453-.258.133-.757.226-1.082.194-.12-.014-.106-.12-.106-.126 0-.014.005-.03.016-.044l.03-.033c.308.035.6-.002.722-.067.005-.005.042-.06.042-.06l.015-.027-.03.007c-.26.066-.78-.02-1.054-.136-.304-.13-.398-.254-.647-.583l-.07-.091a.58.58 0 0 0-.071-.265.48.48 0 0 0-.114-.134.702.702 0 0 0 .03-.213c0-.11-.02-.223-.059-.285.186-.145.28-.294.277-.465-.002-.08-.046-.204-.046-.204l-.071-.033.005.047c.028.29-.241.477-.42.602l-.052.036.034.021c.14.088.142.381.11.547l-.002.009.008.013.008.004.067.054c.14.19.13.482-.026.655-.03.032-.048.036-.057.036-.023-.005-.04-.059-.046-.077l-.044-.09a3.11 3.11 0 0 0-.46-.75l-.006-.023a9.869 9.869 0 0 0-.16-.91l-.03-.143-.004-.037c.016-.282.104-.503.205-.759l.062-.16.051-.122.01-.018c.06-.085.14-.167.238-.242l.044-.032-.057-.024s-.11.012-.222.067l-.02.01c-.081.037-.174.066-.245.04l-.196-.117-.157.167z"/></g></svg>