<svg width="36" height="36" fill="none" xmlns="http://www.w3.org/2000/svg"><path d="M18 0c2.837 0 5.52.656 7.907 1.825C31.884 4.753 36 10.895 36 18c0 9.942-8.058 18-18 18-9.94 0-18-8.057-18-18C0 8.06 8.06 0 18 0z" fill="#F2F4F7"/><path d="M19.95 16.707h-3.37v-2.226h3.37v2.226z" fill="#fff"/><path d="M15.639 13.333c.563-.106.931.293 1.537.279.28-.007.49-.108.769-.116.364-.011.652.19 1 .232.159.017.622-.163.911-.053.126.058.263.11.416.121.153.005.34.024.487.04-.274.258-.575.556-.849.804-.021-.069-.116-.092-.175-.096-.104-.008-.352-.026-.39.01-.03.036-.106.455-.15.697l-.264.272c-.052-.134-.255-.71-.334-.903-.01-.025-.019-.036-.035-.045-.069-.036-.37-.04-.557.015-.087.028-.055.496-.085.91-.005.074 0 .17-.012.265-.004.018-.072.02-.09 0-.118-.199-.17-.316-.259-.501-.05-.105-.091-.189-.162-.33-.052-.111-.105-.234-.184-.338-.018-.028-.118-.021-.171-.021-.138 0-.36.004-.373.024-.016.032-.007.055.007.082.365.62.748 1.242 1.11 1.874 0 0-1.041 1.005-1.302 1.262l-.023.003c-.039-.07-.05-.148-.075-.29-.002-.002-.021-.1-.022-.101-.025-.128-.034-.134-.062-.32-.066-.281-.117-.426-.153-.538-.12-.374-.39-1.162-.463-1.311-.069-.158-.27-.583-.321-.674a7.66 7.66 0 0 0-.61-.911l-.112-.138-.209-.077c-.03-.006-.043-.014-.028-.029.063-.042.169-.104.222-.151.316.053.679.11 1.01.053" fill="#D32011"/><path d="M14.518 13.576c-.019-.054-.016-.084-.063-.095-.015-.004-.028.004-.02.021a488.02 488.02 0 0 1 1.995 5.903c.02.079.074.185.037.247-.013.021-.061.015-.085 0-.044-.036-.068-.115-.079-.146a5.034 5.034 0 0 1-.096-.303l-.22-.667c-.055-.152-.075-.217-.11-.31-.016-.043-.049-.155-.067-.2-.07-.202-.504-1.497-.555-1.638-.123-.363-.235-.696-.3-.88-.034-.095-.088-.262-.132-.381 0-.002-.121-.357-.184-.56-.073-.214-.149-.44-.189-.57a19.578 19.578 0 0 0-.168-.516c-.019-.03-.117-.036-.159-.09-.044-.061-.057-.11-.01-.189.057-.094.338-.236.479-.194.048.014.063.036.084.068.03.044.016.132-.02.19a.532.532 0 0 1-.243.173l.094-.004s.132.033.175.115c.042.083.05.116.09.221.648 1.76 1.252 3.539 1.879 5.308.011.024.026.037.042.02.022-.028.006-.07.005-.12 0-.027-.052-.393-.07-.5-.025-.113-.08-.416-.125-.58-.014-.046-.015-.058-.042-.079.461-.41.873-.86 1.326-1.265.024.043.047.069.075.07.136.003.342.01.37-.023.038-.042.04-.1.04-.161.006-.1.017-.196.022-.28l.327-.321c.103.294.182.49.288.748 0 0 .012.021.043.021l.4.005c.037 0 .055-.08.07-.133.048-.18.04-.158.488-1.841l.58-.547.269-.257c.068 0 .214-.01.225.046.009.024-.208.277-.268.458-.06.177-.011.382.073.553.095.19.266.332.342.516.106.29.111.59.07.9-.033.284.189.49.315.716.07.139.12.374.132.574.013.16.105.395.279.51.047.032.086.039.094.111 0 .032-.031.043-.063.053-.263.005-.517-.063-.768-.121-.29-.067-.48-.126-.69-.263-.158-.095-.374-.158-.564-.08a.82.82 0 0 1-.395.07c-.141-.011-.247-.017-.347-.07a.77.77 0 0 0-.474-.147c-.31.025-.647.253-1.021.18-.322-.074-.664-.232-1.006-.122-.048.016-.095.037-.116.09.068.31.124.516.18.948.037.297.036.536.115.79.01.041.012.101-.042.11-.093.007-.19.007-.227-.09l-2.085-5.992z" fill="#12213B"/><path d="M19.196 15.251c-.037.184-.07.369-.107.563-.005.02-.03.04-.044.016-.029-.05-.036-.086-.058-.15a17.1 17.1 0 0 0-.056-.157l.265-.272z" fill="#12213B"/><path d="m18.492 15.481.129.36c-.1.104-.214.206-.326.32.016-.255.03-.47.055-.712.013-.084.01-.11.078-.1.024.008.042.06.064.132" fill="#D32011"/><path d="M14.46 13.176c0 .047-.059.082-.09.095-.03.013-.113.028-.136-.006-.017-.026-.02-.047.005-.081s.092-.08.153-.076c.039.002.066.026.068.068" fill="#fff"/><path d="M22.813 22.87v-2.693h.882v2.064h1.211v.628h-2.093zm4.254-1.223-.033-.613v-.856h.844v2.691h-.826l-.96-1.465.033.613v.852h-.845v-2.691h.826l.961 1.469zM31 22.877h-.568l-.034-.266c-.146.172-.389.33-.811.33-.688 0-1.305-.446-1.305-1.384 0-.86.539-1.45 1.41-1.45.646 0 1.166.336 1.274.998h-.837a.44.44 0 0 0-.453-.34c-.347 0-.512.313-.512.788 0 .382.12.73.565.73.18 0 .407-.124.452-.311h-.389v-.583H31v1.488zm-24.87-.921.272-.962.284.962H6.13zm1.395.093-.009-.024-.659-1.84h-.895l-.761 2.125-.01.025-.085.24-.008.02L5 22.87h.861l.101-.354h.876l.105.354h.876l-.208-.582-.007-.02-.079-.22zm2.345-.059.004.022.17.858h.865l.253-1.018.006-.022.058-.236.006-.025.345-1.384h-.85l-.271 1.48-.037.199-.03-.167-.004-.025-.288-1.487H9.37l-.319 1.652-.001.008h-.008v-.008l-.302-1.652h-.85l.433 1.74.006.025.056.222.005.021.168.677h.865l.162-.825.004-.02.046-.235.004-.025.09-.454h.007l.085.43.005.025.044.224zm2.937-.59v-1.215h-.88v2.685h.88V21.4zm1.454-.179v-1.035h-.88v2.684h2.089v-.626h-1.21V21.22zm3.909-.48-.011-.022c-.215-.391-.608-.605-1.209-.605-.592 0-1.083.338-1.264.908-.002.008-.006.015-.008.025a1.863 1.863 0 0 0-.049.236l-.003.02a1.74 1.74 0 0 0-.015.22c0 .874.537 1.418 1.425 1.418.708 0 1.204-.418 1.282-1.111h-.846c-.034.257-.168.455-.451.455-.448 0-.53-.355-.53-.731a1.68 1.68 0 0 1 .046-.383.658.658 0 0 1 .14-.27.413.413 0 0 1 .31-.13.591.591 0 0 1 .287.08.4.4 0 0 1 .157.21l.007.022c.015.044.023.08.027.128h.835a1.481 1.481 0 0 0-.046-.25 1.047 1.047 0 0 0-.083-.22" fill="#12213B"/><path d="M20.037 22.285c-.421 0-.525-.429-.525-.772 0-.34.119-.742.518-.742.387-.011.537.377.537.742 0 .444-.15.772-.53.772zm0-2.17c-.488 0-.864.187-1.13.512l1.13-.513zm-1.878.605c-.215-.392-.608-.606-1.209-.606l1.209.606zm2.784-.319-.028-.02a1.415 1.415 0 0 0-.878-.267c-.488 0-.864.188-1.13.513a1.07 1.07 0 0 0-.17.296c-.05.118-.106.373-.106.583 0 .913.564 1.436 1.406 1.436.794 0 1.41-.515 1.41-1.43 0-.32-.094-.636-.285-.887l-.014-.02s-.096-.123-.205-.204M6.13 21.956l.272-.962.284.962H6.13zm1.395.093-.009-.024-.659-1.84h-.895l-.761 2.125-.01.025-.085.24-.008.02L5 22.87h.861l.101-.354h.876l.105.354h.876l-.208-.582-.007-.02-.079-.22zm2.345-.059.004.022.17.858h.865l.253-1.018.006-.022.058-.236.006-.025.345-1.384h-.85l-.271 1.48-.037.199-.03-.167-.004-.025-.288-1.487H9.37l-.319 1.652-.001.008h-.008v-.008l-.302-1.652h-.85l.433 1.74.006.025.056.222.005.021.168.677h.865l.162-.825.004-.02.046-.235.004-.025.09-.454h.007l.085.43.005.025.044.224zm2.937-.59v-1.215h-.88v2.685h.88V21.4zm1.454-.179v-1.035h-.88v2.684h2.089v-.626h-1.21V21.22z" fill="#12213B"/><path d="m18.17 20.741-.011-.022c-.215-.391-.608-.605-1.209-.605-.592 0-1.083.338-1.264.908-.002.008-.006.015-.008.025a1.863 1.863 0 0 0-.049.236l-.003.02a1.74 1.74 0 0 0-.015.22c0 .874.537 1.418 1.425 1.418.708 0 1.204-.418 1.282-1.111h-.846c-.034.257-.168.455-.451.455-.448 0-.53-.355-.53-.731a1.68 1.68 0 0 1 .046-.383.658.658 0 0 1 .14-.27.413.413 0 0 1 .31-.13.591.591 0 0 1 .287.08.4.4 0 0 1 .157.21l.007.022c.015.044.023.08.027.128h.835a1.481 1.481 0 0 0-.046-.25 1.047 1.047 0 0 0-.083-.22" fill="#12213B"/><path d="M20.037 22.285c-.421 0-.525-.429-.525-.772 0-.34.119-.742.518-.742.387-.011.537.377.537.742 0 .444-.15.772-.53.772zm0-2.17c-.488 0-.864.187-1.13.512l1.13-.513zm-1.878.605c-.215-.392-.608-.606-1.209-.606l1.209.606zm2.784-.319-.028-.02a1.415 1.415 0 0 0-.878-.267c-.488 0-.864.188-1.13.513a1.07 1.07 0 0 0-.17.296c-.05.118-.106.373-.106.583 0 .913.564 1.436 1.406 1.436.794 0 1.41-.515 1.41-1.43 0-.32-.094-.636-.285-.887l-.014-.02s-.096-.123-.205-.204" fill="#12213B"/><path d="M15.639 13.334c.563-.105.931.293 1.537.28.28-.007.49-.108.769-.117.364-.01.652.19 1 .232.159.017.622-.163.911-.052.126.058.263.11.416.12.153.006.34.024.487.04-.274.258-.585.554-.849.804-.021-.068-.119-.094-.177-.098-.105-.007-.35-.026-.388.01-.023.014-.106.457-.15.7l-.264.271c-.052-.133-.255-.71-.334-.903-.01-.024-.019-.036-.035-.044-.069-.037-.37-.041-.557.015-.087.028-.055.495-.085.91-.005.074 0 .169-.012.264-.004.018-.072.021-.09 0-.118-.198-.17-.315-.259-.5-.05-.105-.091-.19-.162-.331-.052-.11-.105-.234-.184-.337-.018-.028-.118-.022-.171-.022-.138 0-.36.005-.373.025-.016.031-.007.054.007.081.365.62.748 1.243 1.11 1.875 0 0-1.04 1.002-1.302 1.26l-.023.002c-.04-.07-.05-.145-.075-.287-.002-.002-.021-.1-.022-.101-.025-.128-.034-.134-.062-.32-.065-.281-.117-.426-.153-.538-.12-.374-.39-1.162-.463-1.312a15.18 15.18 0 0 0-.321-.673 7.675 7.675 0 0 0-.61-.911l-.037-.045s-.032-.083-.056-.109a.297.297 0 0 0-.16-.087c-.032-.002-.062.006-.087.003a.521.521 0 0 0 .226-.155c.316.052.666.108.998.05M7.61 22.288l-.007-.02-.078-.22-.009-.023.094.263zm-2.41.022-.009.025-.085.24-.008.021m6.064-.743.005-.022.059-.237.006-.025" fill="#D32011"/><path d="m9.82 21.742.005.024.045.224.004.022 1.288-.157.005-.025.06-.236.005-.025-.776.096-.037.199-.03-.167-.005-.023-.563.068zm8.44-.76-.007-.021a1.04 1.04 0 0 0-.083-.22l-.011-.022m3.003-.094-.015-.02s-.095-.124-.204-.204a1.242 1.242 0 0 0-.028-.02l-2.008.246-.021.027c-.05.057-.108.173-.138.245l-.01.023 2.424-.297zM7.61 22.288l-.007-.02-.078-.22-.009-.023-2.316.285-.008.025-.086.24-.009.024 2.512-.308m.713-.364.006.023.055.223.006.02 1.195-.148.004-.02.046-.235.005-.025-.588.073-.001.007h-.008l-.001-.006-.72.088z" fill="#D32011"/><path d="m8.383 22.172-.055-.222.055.223zm3.544-.413v-.276l.88-.107v.275l-.88.108zm1.454-.177v-.277l.88-.108v.278l-.88.107zm4.778-.862.011.022a1.004 1.004 0 0 1 .088.24l-.82.1-.008-.02a.401.401 0 0 0-.19-.232l.918-.11m-1.628.474.006-.023a.66.66 0 0 1 .116-.243l.023-.027-.99.12c-.002.01-.006.016-.007.026a1.86 1.86 0 0 0-.05.236l-.004.024.906-.113zm1.962-5.713.129.36c-.1.104-.214.206-.326.32.016-.255.03-.47.055-.712.013-.084.01-.11.078-.1.024.008.042.06.064.132" fill="#D32011"/></svg>