<svg height="36" viewBox="0 0 36 36" width="36" xmlns="http://www.w3.org/2000/svg"><g fill="none"><path d="M18 0c2.837 0 5.52.656 7.907 1.825C31.884 4.753 36 10.895 36 18c0 9.942-8.058 18-18 18-9.94 0-18-8.057-18-18C0 8.06 8.06 0 18 0z" fill="#f2f4f7"/><path d="M32 15.78v4.423h-1.12v-2.7l-1.047 1.431h-.162l-1.048-1.43v2.7h-1.12V15.78h.983l1.262 1.685 1.283-1.685zM6.71 18.577c-.33-.042-.811.01-1.105.14l.714-1.875 1.387 3.362h1.058l-1.826-4.429H5.695L4 20.205h1.057c.193-.659 1.034-1.155 1.815-1.225zm5.858.76v.861H9.47v-4.421h1.094v3.56zm8.178-3.554v.856h-1.461v3.558h-1.12V16.64h-1.459v-.856zm-4.657.914c-1.257-.452-2.069-.142-2.069.217 0 .81 2.408.349 2.404 1.932-.004 1.185-.996 1.505-2.01 1.505a4.79 4.79 0 0 1-1.362-.197l.105-.952c.304.147.753.246 1.256.246.44 0 .962-.087.99-.433.07-.902-2.397-.339-2.397-1.989 0-1.098 1.044-1.44 1.96-1.44.43 0 .998.147 1.195.237z" fill="#062173"/><path d="M26.453 19.254c.417-.752.355-1.653-.097-2.358l.281-.296c.479.802.484 1.81-.031 2.65zm-4.006-.978c.006-.784.648-1.427 1.457-1.448.826-.022 1.512.613 1.533 1.418.021.805-.63 1.475-1.457 1.496a1.507 1.507 0 0 1-1.066-.397l-.216.22a2.282 2.282 0 0 1-.086-3.284 2.43 2.43 0 0 1 2.748-.501l.012.013.115-.128a3.005 3.005 0 0 0-3.636.515 2.87 2.87 0 0 0 .114 4.133l.217-.22a2.305 2.305 0 0 0 1.675.634c1.298-.034 2.324-1.087 2.29-2.353a2.256 2.256 0 0 0-.73-1.604l.152-.157c-.755-.7-2.006-.685-2.737.065-.433.444-.636 1.042-.54 1.603z" fill="#e70000"/></g></svg>