<svg width="36" height="36" fill="none" xmlns="http://www.w3.org/2000/svg"><path d="M18 0c2.837 0 5.52.656 7.907 1.825C31.884 4.753 36 10.895 36 18c0 9.942-8.058 18-18 18-9.94 0-18-8.057-18-18C0 8.06 8.06 0 18 0z" fill="#F2F4F7"/><path d="M10.407 19.226a9.749 9.749 0 0 1-2.297-4.02.277.277 0 0 0-.269-.206H6.648a.288.288 0 0 0-.27.206 9.75 9.75 0 0 1-2.296 4.02.285.285 0 0 0-.045.34l.592 1.032a.29.29 0 0 0 .314.135 9.466 9.466 0 0 1 2.297-.278c.772 0 1.552.09 2.297.278a.278.278 0 0 0 .314-.135l.592-1.04a.284.284 0 0 0-.036-.332zm-1.319.87-4.18-.897c-.019-.01-.036-.027-.027-.045 0-.009 0-.009.008-.018l2.862-3.212c.01-.018.036-.018.045 0l.01.01 1.327 4.108c.01.018-.009.045-.027.045-.009.009-.009.009-.018.009z" fill="#FA4616"/><path d="m14.047 15.975-1.66 3.786h.772l.377-.889h1.66l.377.889h.79l-1.652-3.786h-.664zm-.233 2.234.556-1.283.557 1.283h-1.113zm3.858-2.207h-.745v3.759h2.674v-.691h-1.929V16zm6.325-.027-1.66 3.786h.772l.377-.889h1.66l.376.889h.79l-1.66-3.786h-.655zm-.233 2.234.556-1.283.556 1.283h-1.112zm3.176-2.207h.745v3.759h-.745V16zm4.046 2.35c.538-.17.844-.583.844-1.14 0-.744-.539-1.21-1.409-1.21h-1.687v3.759h.745v-1.274h.727l.906 1.283H32l-1.014-1.418zm-1.507-1.66h.888c.458 0 .709.198.709.566 0 .35-.27.565-.709.565h-.888v-1.13zm-10.102-.69v.717h1.157v3.05h.763v-3.05h1.157v-.718h-3.077z" fill="#005776"/></svg>