<svg width="36" height="36" xmlns="http://www.w3.org/2000/svg"><g fill="none"><path d="M18 0c2.837 0 5.52.656 7.907 1.825C31.884 4.753 36 10.895 36 18c0 9.942-8.058 18-18 18-9.94 0-18-8.057-18-18C0 8.06 8.06 0 18 0z" fill="#F2F4F7"/><path d="m5.081 20.645.32-1.074H6.67l.3 1.074h1.174l-1.167-4.097c-.067-.24-.214-.354-.467-.354H4.848v.387h.14c.173 0 .267.067.267.2 0 .087-.02.16-.087.36L4 20.646h1.081zm1.428-1.802h-.941l.5-1.635.44 1.635zm2.987 1.802v-4.11c0-.214-.126-.34-.333-.34H8.135v.386h.067c.174 0 .247.074.247.247v3.816h1.047zm1.78 0v-4.11c0-.214-.127-.34-.333-.34H9.915v.386h.067c.173 0 .246.074.246.247v3.816h1.048zm1.807 0v-2.997c0-.213-.127-.34-.334-.34h-1.014v.38h.06c.174 0 .247.08.247.254v2.702h1.04zm.02-4.044c0-.3-.22-.48-.6-.48-.375 0-.601.18-.601.48s.226.48.6.48c.38 0 .6-.18.6-.48zm.865 1.661c.347-.166.728-.26 1.028-.26.28 0 .38.1.38.394v.073c-.427.067-.56.094-.8.147a2.48 2.48 0 0 0-.394.127c-.42.167-.62.494-.62.994 0 .633.273.94.84.94.207 0 .394-.039.56-.106.147-.066.234-.12.448-.287v.047c0 .207.106.313.313.313h.954v-.36h-.046c-.18 0-.247-.08-.247-.294v-1.587c0-.848-.294-1.141-1.142-1.141-.273 0-.54.033-.8.093s-.394.113-.707.267l.233.64zm1.408.782v.647c-.173.18-.387.287-.567.287-.187 0-.253-.094-.253-.341 0-.247.053-.36.24-.434.14-.06.32-.113.58-.16zm2.82 1.6V18.39c.174-.194.354-.28.561-.28.22 0 .274.086.274.42v2.115h1.04v-2.268c0-.527-.04-.694-.207-.874-.14-.154-.353-.234-.627-.234-.407 0-.694.127-1.08.487v-.134c0-.207-.107-.313-.321-.313h-.987v.38h.06c.173 0 .247.08.247.253v2.702h1.04zm4.964-.7h-1.455l1.388-1.948v-.687h-2.175c-.247 0-.36.113-.36.36v.607h.387v-.06c0-.153.08-.227.246-.227h.748l-1.401 1.968v.688h2.622v-.701zm8.712-1.368c0-2.048-1.528-3.576-3.577-3.576-2.048 0-3.583 1.528-3.583 3.576 0 2.055 1.535 3.583 3.583 3.583 2.049 0 3.577-1.528 3.577-3.583zm-.708 0c0 1.688-1.214 2.916-2.87 2.916-1.66 0-2.868-1.228-2.868-2.916 0-1.68 1.208-2.909 2.869-2.909 1.655 0 2.87 1.228 2.87 2.91zm-3.796 1.888v-3.236h-.581c-.287 0-.4.114-.4.4v2.836h.98zm1.854 0h.974V17.63c0-.287-.106-.4-.4-.4h-.574v3.235zm-.44 0v-3.756c0-.3-.1-.4-.4-.4h-.874v.413h.053l.094.007c.033 0 .066.02.093.047.04.046.053.093.053.193v3.496h.981z" fill="#2360A5"/></g></svg>