<svg width="36" height="36" fill="none" xmlns="http://www.w3.org/2000/svg"><path d="M18 0c2.837 0 5.52.656 7.907 1.825C31.884 4.753 36 10.895 36 18c0 9.942-8.058 18-18 18-9.94 0-18-8.057-18-18C0 8.06 8.06 0 18 0z" fill="#F2F4F7"/><path d="m12.55 21.771-.601-2.79h-.691L9.4 21.77h.714l1.35-2.044.195.947h-.537l-.364.556h1.023l.112.541h.658zm6.946 0-.602-2.79h-.691l-1.858 2.79h.715l1.348-2.044.196.947h-.536l-.364.556h1.022l.112.541h.658zm-3.398-2.79-.826 2.79h.695l.827-2.79h-.696zm6.642 0-.826 2.79h.695l.826-2.79h-.695zm6.068 1.833-.803-1.834h-.696l-.83 2.791h.695l.55-1.843.799 1.843h.695l.831-2.79h-.695l-.546 1.833zm-6.47-1.834h-2.543l-.168.574h.924l-.654 2.213h.696l.653-2.213h.92l.172-.574zm-9.101 0h-.658l.602 2.791h.695l1.858-2.79h-.714l-1.35 2.043-.433-2.044zm12.509 1.396c-.112.43-.495.868-1.018.868-.55 0-.705-.35-.57-.868.136-.518.575-.868 1.023-.868.527 0 .719.289.565.868zm-.588-1.424c-.817 0-1.452.55-1.676 1.42-.22.853.313 1.423 1.232 1.423.952 0 1.55-.7 1.708-1.42.21-.96-.312-1.423-1.265-1.423zm-1.657-.574-.112-.541h-1.12l.377-.575h.621l-.215-1.04-1.418 2.156h-.71l1.914-2.88h.7l.62 2.88h-.657zm-8.327 0-.112-.541h-1.12l.378-.575h.62l-.214-1.04-1.42 2.156h-.709l1.914-2.88h.7l.621 2.88h-.658zm14.32 0 .681-2.306h-.966l.168-.57H32l-.168.57h-.957l-.681 2.306h-.7zm-9.853.047c-.238 0-.448-.052-.626-.15a.695.695 0 0 1-.355-.42l-.004-.014.541-.28.005.014a.542.542 0 0 0 .2.229.607.607 0 0 0 .341.098.627.627 0 0 0 .341-.089.325.325 0 0 0 .173-.228c.018-.084-.01-.145-.08-.196a1.82 1.82 0 0 0-.378-.178 3.56 3.56 0 0 1-.448-.2.71.71 0 0 1-.275-.276c-.07-.121-.084-.275-.042-.462a.856.856 0 0 1 .242-.439 1.22 1.22 0 0 1 .453-.284c.178-.066.364-.098.556-.098.252 0 .462.046.63.14a.67.67 0 0 1 .331.41l.005.014-.542.28-.004-.014a.479.479 0 0 0-.187-.214.568.568 0 0 0-.322-.094.614.614 0 0 0-.322.084.335.335 0 0 0-.163.215.19.19 0 0 0 .032.159.396.396 0 0 0 .154.116c.066.033.164.075.29.122.177.065.322.126.434.186.112.061.205.15.27.266.066.117.08.262.047.435a.977.977 0 0 1-.439.63c-.233.163-.522.238-.858.238zm-2.586 0c-.238 0-.448-.052-.626-.15a.695.695 0 0 1-.354-.42l-.005-.014.541-.28.005.014a.542.542 0 0 0 .2.229.607.607 0 0 0 .341.098.63.63 0 0 0 .341-.089.325.325 0 0 0 .173-.228c.019-.084-.01-.145-.08-.196a1.82 1.82 0 0 0-.378-.178 3.55 3.55 0 0 1-.448-.2.71.71 0 0 1-.275-.276c-.07-.121-.084-.275-.042-.462a.855.855 0 0 1 .243-.439c.126-.126.275-.22.453-.284a1.6 1.6 0 0 1 .555-.098c.252 0 .462.046.63.14a.67.67 0 0 1 .331.41l.005.014-.541.28-.005-.014a.479.479 0 0 0-.187-.214.568.568 0 0 0-.322-.094.614.614 0 0 0-.322.084.335.335 0 0 0-.163.215.19.19 0 0 0 .032.159.397.397 0 0 0 .155.116c.065.033.163.075.289.122.177.065.322.126.434.186.112.061.205.15.27.266.066.117.08.262.047.435a.977.977 0 0 1-.438.63c-.234.163-.523.238-.86.238zM12.21 16.94c-.112.43-.495.864-1.018.864h-.527l.514-1.732h.476c.527 0 .71.271.555.869zm-.35-1.442h-1.204l-.854 2.88h1.32c1.326 0 1.662-1.031 1.76-1.442.13-.537.01-.882-.168-1.097-.168-.2-.401-.34-.854-.34zm16.751.005h-.695l-.854 2.88h1.862l.168-.574h-1.167l.686-2.306zm-2.408 1.764c-.051.187-.121.322-.229.42a.645.645 0 0 1-.448.154c-.177 0-.299-.051-.354-.15-.056-.097-.066-.237-.024-.41l.537-1.787h-.7l-.528 1.76c-.102.382-.06.671.117.863.177.191.453.284.817.284.36 0 .681-.093.952-.28.257-.172.43-.443.55-.85l.528-1.777h-.695l-.523 1.773zM8.803 14C6.52 17.739 4 19.676 4 19.676c.69.457.957 1.036.957 1.036l.336-.262a2.546 2.546 0 0 0-.649-.77c.677-.602 2.138-2.025 3.636-4.177-.14 1.2-.191 2.82.051 4.103-.574.219-2.058 1.017-2.595 2.165h.514c.83-1.451 2.52-1.904 2.52-1.904-.523-3.024.033-5.867.033-5.867zM6.93 18.35c.075-.07.276-.098.378 0 .117.107.089.233.01.322-.117.13-.547.439-.659.509h-.074c-.028-.038-.192-.294-.224-.41-.038-.127-.028-.29.112-.402.144-.122.303-.112.457-.019zm.705 1.004c.121-.056.224-.206.168-.355-.051-.14-.215-.145-.327-.103-.21.075-.64.35-.714.406l-.028.07c.047.075.205.262.308.341.108.08.257.13.416.042a.361.361 0 0 0 .177-.401zm-1.368.961c-.074.07-.275.098-.382 0-.117-.107-.089-.233-.01-.322.117-.13.546-.434.663-.504h.075c.028.037.191.29.224.41a.365.365 0 0 1-.112.402c-.14.117-.304.112-.458.014zm-.7-1.003c-.121.056-.224.205-.168.354.052.14.215.145.327.103.21-.075.64-.35.714-.406l.028-.07a1.713 1.713 0 0 0-.313-.34.366.366 0 0 0-.415-.043.352.352 0 0 0-.173.402z" fill="#314A6C"/></svg>