<svg width="36" height="36" fill="none" xmlns="http://www.w3.org/2000/svg"><path d="M18 0c2.837 0 5.52.656 7.907 1.825C31.884 4.753 36 10.895 36 18c0 9.942-8.058 18-18 18-9.94 0-18-8.057-18-18C0 8.06 8.06 0 18 0z" fill="#F2F4F7"/><path opacity=".6" d="M9.372 18.884c-.533 1.15-2.082 2.081-3.441 2.081-1.36 0-2.03-.93-1.496-2.081 1.36-2.909 5.419-5.608 5.419-5.608s.91 2.637-.482 5.608z" fill="#346094"/><path d="m13.452 20.85-.198-1.182h-1.915l-.617 1.182H9.55l2.93-5.293h1.024l1.068 5.293h-1.12zm-.554-3.149c-.053-.314-.094-.628-.126-.826-.084.198-.24.502-.408.826l-.502.963h1.203l-.167-.963zm5.837.911-.397 2.238H17.29l.377-2.144c.021-.136.032-.251.032-.346 0-.387-.178-.575-.555-.575-.418 0-.69.24-.795.9l-.377 2.165h-1.046l.69-3.965h1.047l-.042.262a1.29 1.29 0 0 1 .9-.345c.858 0 1.266.44 1.266 1.234 0 .157-.032.377-.053.576zm6.518.585h-2.344c-.063.544.377.743.743.743.261 0 .533-.084.795-.262l.502.722c-.47.366-.93.523-1.412.523-1.015 0-1.674-.648-1.674-1.726 0-1.36.91-2.406 2.06-2.406.995 0 1.445.722 1.445 1.611a2.39 2.39 0 0 1-.115.795zm-1.465-1.496c-.377 0-.607.314-.732.712h1.339c.041-.377-.147-.712-.607-.712zm4.456.409a.87.87 0 0 0-.606-.273c-.346 0-.607.126-.754.952l-.366 2.05h-1.046l.701-3.964h1.046l-.042.261c.178-.198.44-.345.764-.345.356 0 .628.146.774.335l-.47.983zm2.197-1.308c.931 0 1.559.659 1.559 1.705 0 1.297-.858 2.427-2.082 2.427-.93 0-1.558-.66-1.558-1.705.01-1.308.857-2.427 2.081-2.427zm-.408 3.117c.471 0 .89-.502.89-1.35 0-.491-.262-.773-.597-.773-.47 0-.889.502-.889 1.35 0 .501.261.773.596.773z" fill="#346094"/><path opacity=".6" d="M21.235 21.54h-.303l-.617 1.026c-.063.115-.168.272-.199.356-.01-.074-.052-.241-.073-.356l-.24-1.025h-.304l-.345 1.956h.293l.188-1.025c.01-.053.042-.283.052-.325.01.074.042.22.063.325l.272 1.067.659-1.067c.063-.105.146-.251.178-.325a3.15 3.15 0 0 0-.053.325l-.188 1.025h.293l.324-1.956zm.607.116a.185.185 0 0 0-.178-.188c-.104 0-.178.083-.178.188 0 .104.084.188.178.188.105 0 .178-.084.178-.188zm-.094.376h-.293l-.261 1.465h.292l.262-1.465zm.795-.031c-.356 0-.67.356-.67.92 0 .409.21.618.492.618a.532.532 0 0 0 .366-.157l-.02.125h.282l.366-2.04-.314.147-.094.565a.533.533 0 0 0-.408-.178zm-.377.9c0-.325.136-.639.387-.639.147 0 .283.116.335.2l-.115.637c-.052.053-.178.168-.324.168-.168 0-.283-.126-.283-.366zm2.26-.722a.83.83 0 0 0-.534-.178c-.271 0-.491.126-.512.408-.021.24.115.345.408.47.21.084.251.147.251.23 0 .105-.094.168-.24.168a.697.697 0 0 1-.46-.178l-.158.21c.126.115.335.22.586.22.251 0 .523-.105.544-.44.02-.24-.126-.345-.387-.47-.24-.116-.272-.147-.272-.23 0-.085.084-.137.199-.137.167 0 .303.063.418.146l.157-.22zm1.025-.147h-.345l.105-.575-.314.157-.073.418h-.21l-.052.262h.21l-.147.837c-.01.031-.01.073-.01.104 0 .189.104.293.324.293a.614.614 0 0 0 .23-.052l.084-.272a.332.332 0 0 1-.21.063c-.083 0-.136-.032-.136-.105 0-.02 0-.052.01-.073l.137-.785h.345l.052-.272zm1.088.053a.397.397 0 0 0-.25-.084.441.441 0 0 0-.346.167l.02-.136h-.292l-.262 1.465h.293l.136-.805c.053-.314.189-.409.356-.409a.3.3 0 0 1 .21.074l.135-.272zm1.078.512c0-.345-.178-.596-.534-.596-.376 0-.68.314-.711.816-.032.429.199.711.575.711a.767.767 0 0 0 .492-.177l-.126-.2a.644.644 0 0 1-.334.116c-.22 0-.356-.147-.335-.408h.93a.686.686 0 0 0 .043-.262zm-.272.042h-.66c.053-.22.178-.377.367-.377.22 0 .314.157.293.377zm1.632-.23c0-.282-.21-.408-.523-.408a1.17 1.17 0 0 0-.492.115l.084.23a.91.91 0 0 1 .376-.094c.188 0 .272.052.272.178 0 .02 0 .052-.01.084l-.021.104a.836.836 0 0 0-.366-.073c-.304 0-.586.157-.617.502-.032.314.188.47.46.47a.534.534 0 0 0 .387-.166l-.021.136h.282l.168-.973c.02-.032.02-.074.02-.105zm-.346.46-.041.24a.513.513 0 0 1-.366.179c-.178 0-.262-.094-.252-.23.01-.168.136-.262.325-.262.136 0 .25.032.334.073zm2.522-.418c0-.283-.168-.45-.43-.45a.597.597 0 0 0-.47.22c-.063-.147-.178-.22-.377-.22a.411.411 0 0 0-.345.167l.021-.136h-.293l-.261 1.465h.293l.146-.816c.052-.272.167-.419.345-.419.157 0 .23.084.23.252 0 .041-.01.104-.02.167l-.147.816h.293l.146-.816c.053-.272.178-.408.346-.408.157 0 .23.084.23.251 0 .042-.01.105-.021.168l-.147.815h.293l.147-.847c.02-.073.02-.146.02-.21z" fill="#346094"/><path d="M21.842 17.67h-.983l-.293 1.695c-.021.073-.021.125-.021.188 0 .251.146.324.387.324.22 0 .398-.094.607-.261l-.366 1.098c-.21.147-.597.22-.795.22-.639 0-1.005-.398-1.005-.983 0-.084.01-.189.021-.293l.356-1.988h-.701l.188-1.046h.712l.188-1.088 1.203-.555-.293 1.632h.983l-.188 1.057zM10.513 12s-4.792 3.379-6.309 6.632c-.596 1.277.157 2.312 1.674 2.333-1.328-.02-1.977-.941-1.443-2.081 1.36-2.909 5.419-5.608 5.419-5.608s.91 2.636-.471 5.608c-.534 1.15-2.072 2.081-3.442 2.081 1.559 0 3.306-1.046 3.902-2.333 1.548-3.326.67-6.632.67-6.632z" fill="#346094"/><path d="M9.1 19.145c-.47 1.004-1.883 1.83-3.159 1.83-1.276 0-1.925-.815-1.465-1.83 1.183-2.542 4.467-4.624 4.467-4.624s1.37 2.019.157 4.624z" fill="#C1CBDD"/><path d="M8.253 19.626c-.408.816-1.496 1.444-2.437 1.412-.942-.031-1.37-.721-.963-1.527 1.025-2.05 3.567-3.661 3.567-3.661-.565 2.186.618 2.217-.167 3.776z" fill="#fff"/><path d="M5.878 18.716s-1.37 1.57-.282 1.8c0-.01-.45-.513.282-1.8z" fill="#9AACC9"/></svg>