<svg width="36" height="36" xmlns="http://www.w3.org/2000/svg"><g fill="none" fill-rule="evenodd"><path d="M18 0c2.837 0 5.52.656 7.907 1.825C31.884 4.753 36 10.895 36 18c0 9.942-8.058 18-18 18-9.94 0-18-8.057-18-18C0 8.06 8.06 0 18 0z" fill="#F2F4F7" fill-rule="nonzero"/><path d="M5.737 20.726v2.042H5.23v-2.042h-.747v-.422h1.974v.422h-.72zm3.755 2.042v-1.115h-.977v1.115h-.507v-2.464h.507v.926h.977v-.926h.507v2.464h-.507zm2.27 0v-2.464h1.786v.422H12.27v.562h1.18v.422h-1.18v.636h1.335v.422h-1.842zm5.125 0-.169-.493h-.912l-.173.493h-.517l.858-2.464h.585l.845 2.464h-.517zm-.619-1.873-.304.957h.633l-.329-.957zm3.78-.169v2.042h-.507v-2.042h-.748v-.422h1.975v.422h-.72zm3.785 2.042a.562.562 0 0 1-.068-.23c-.007-.121 0-.317 0-.497 0-.165-.128-.246-.304-.246h-.595v.973h-.507v-2.464h1.37c.246 0 .493.125.567.392.03.108.084.284.024.497-.061.213-.17.29-.335.389.085.057.246.118.273.341.014.102.024.426.024.551.004.139.041.17.095.203v.091h-.544zm-.281-2.042h-.686v.646h.693a.327.327 0 0 0 .3-.368c0-.176-.08-.278-.307-.278zm2.521 2.042v-2.464h1.785v.422h-1.277v.562h1.18v.422h-1.18v.636h1.335v.422h-1.843zm4.847-1.714c.007-.2-.158-.382-.507-.388-.246-.004-.429.08-.446.284-.013.169.044.202.156.246.057.061.524.136.618.152.136.024.427.085.582.244.284.297.152.882-.155 1.082-.21.135-.497.169-.772.172-.125.003-.422-.04-.605-.172a.856.856 0 0 1-.344-.636h.493c0 .064.02.166.105.257.112.115.294.149.463.142.17-.003.328-.054.392-.115a.293.293 0 0 0 .01-.416c-.162-.169-.648-.169-.966-.277-.267-.091-.487-.284-.446-.683.04-.392.324-.682.926-.682.132 0 .591.01.831.314.129.165.163.395.143.477h-.478zm-.487-2.39a.484.484 0 1 1 .969.001.484.484 0 0 1-.969-.002zm.91 0a.425.425 0 1 0-.85 0 .426.426 0 0 0 .85 0zm-.183.27h-.079l-.155-.25h-.121v.25h-.066v-.541h.235a.25.25 0 0 1 .132.027c.04.022.061.07.061.116 0 .107-.075.146-.171.149l.164.25zm-.254-.301c.076 0 .194.012.194-.098 0-.084-.073-.094-.14-.094h-.155v.192h.101zm-12.15-4.996c1.227-1.037 2.513-1.016 3.606-.478 1.017.537 1.381 1.308 1.397 2.433v2.762s-.01.78-.81.78c-.759 0-.794-.775-.794-.775l-.011-2.729s-.046-1.267-1.314-1.267c-1.274 0-1.375 1.26-1.375 1.26v2.687s0 .813-.808.813c-.787 0-.804-.813-.804-.813v-2.678s-.024-1.27-1.371-1.27c-1.34 0-1.306 1.288-1.306 1.288v2.755s-.094.725-.8.725c-.733 0-.807-.732-.807-.732l-.006-2.78c0-1.024.198-2.041 1.656-2.617.663-.262 1.44-.256 2.137-.098.465.17.866.397 1.257.734l.074.065.08-.065zm-7.778 4.7c0-.798-.792-.801-.792-.801H7.33c-.17 0-.19-.13-.148-.28.348-.866 1.122-1.836 1.949-2.26.684-.35 1.468-.713 2.282-.66.17.013.17.093.17.36v3.603s.041.818.834.818c.815 0 .75-.791.75-.791l-.003-4.525c.01-.274-.04-.538-.203-.75-.122-.11-.286-.227-.47-.253a7.689 7.689 0 0 0-2.8.269c-1.659.483-3.244 1.83-4.057 3.434-.277.546-.534 1.262-.544 1.922.01.317.142.687.504.687l4.604.024s.78.03.78-.796zm19.038-1.96c.806.083.706.84.706.84-.436 1.368-1.717 2.203-3.23 2.203a3.387 3.387 0 1 1 0-6.774c1.52 0 2.805.74 3.235 2.118 0 0 .205.83-.687.933-.66 0-.761-.539-.761-.539-.256-.738-.957-1.01-1.783-1.01a1.885 1.885 0 1 0 0 3.77c.816 0 1.51-.361 1.773-1.086 0 0 .162-.469.747-.456z" fill="#C23C40"/></g></svg>