<svg height="36" viewBox="0 0 36 36" width="36" xmlns="http://www.w3.org/2000/svg"><g fill="none"><path d="M18 0c2.837 0 5.52.656 7.907 1.825C31.884 4.753 36 10.895 36 18c0 9.942-8.058 18-18 18-9.94 0-18-8.057-18-18C0 8.06 8.06 0 18 0z" fill="#f2f4f7"/><path d="M10.576 20.895H9.023l-.475-1.146H5.96l-.433 1.146H4l2.333-5.787h1.672zM7.19 16.491l-.848 2.248h1.782zm9.027-1.383h1.256v5.787H16.03V17.28l-1.561 1.816h-.221l-1.561-1.816v3.615h-1.442v-5.787h1.256l1.857 2.147zm4.911 0c2.113 0 3.199 1.315 3.199 2.902 0 1.663-1.052 2.885-3.36 2.885h-2.393v-5.787zm-1.112 4.726h.942c1.45 0 1.883-.984 1.883-1.833 0-.992-.534-1.832-1.9-1.832h-.924zm10.165-3.354h-2.984l-1.82-1.82H32v6.623l-1.819-1.819zm-2.986 2.986v-2.621l-1.873 1.873v2.621h2.621l1.873-1.873z" fill="#000"/></g></svg>