<svg width="36" height="36" fill="none" xmlns="http://www.w3.org/2000/svg"><path d="M18 0c2.837 0 5.52.656 7.907 1.825C31.884 4.753 36 10.895 36 18c0 9.942-8.058 18-18 18-9.94 0-18-8.057-18-18C0 8.06 8.06 0 18 0z" fill="#F2F4F7"/><path d="M6.702 22.908h22.596V12.701H6.703v10.207z" fill="#003D7D"/><path d="M30 12H6v11.61h24V12z" stroke="#003D7D" stroke-width=".197"/><path d="m11.384 15.692 1.568 3.781H9.747l1.637-3.781zm13.551 2.188-.01.772h2.325l-.01.292c-.064 1.365-1.814 2.189-2.784 2.168-1.752-.052-3.128-1.491-3.138-3.242-.01-1.74 1.355-3.221 3.096-3.273 1.095-.032 1.918.437 2.69 1.334l.125.146.604-.574c-.854-1.209-2.116-1.75-3.46-1.71-1.62.056-3.049 1.122-3.64 2.585l-.496-2.667-2.909 6.345-2.804-6.345-.964 5.016-2.144-5.016-3.649 8.185h.928l.719-1.65h3.858l.596 1.438.092.212h.959l-.753-1.751.681-3.516 2.481 5.268 2.586-5.205.946 5.204h.897l-.251-1.362a4.269 4.269 0 0 0 2.97 1.37c1.7.073 3.701-1.25 3.722-3.45l.01-.574" fill="#fff"/></svg>