<svg height="36" viewBox="0 0 36 36" width="36" xmlns="http://www.w3.org/2000/svg"><mask id="a" fill="#fff"><path d="M0 0h28v6.859H0z" fill-rule="evenodd"/></mask><g fill="none" fill-rule="evenodd"><path d="M18 0c2.837 0 5.52.656 7.907 1.825C31.884 4.753 36 10.895 36 18c0 9.942-8.058 18-18 18-9.94 0-18-8.057-18-18C0 8.06 8.06 0 18 0z" fill="#f2f4f7" fill-rule="nonzero"/><path d="M27.676.507c.043.001.075-.009.075-.06s-.056-.05-.095-.05h-.096v.11zm.14.228h-.091l-.087-.168h-.078v.168h-.078V.337h.192c.033 0 .077.001.107.02.036.023.047.061.047.103 0 .071-.04.102-.11.107zm.115-.202a.297.297 0 1 0 0 .002zm-.665 0A.368.368 0 0 1 28 .535a.366.366 0 1 1-.734-.002zM4.019 3.555V2.081c-.495.345-1.026.987-1.347 1.474zM2.02 5.003c-.043.18-.317 1.137-.427 1.576H0c.21-.787.63-2.134 1.059-3.03.426-.896.964-1.882 1.846-2.546C3.312.695 4.102.091 5.565.23v6.342H4.019V5.003zm23.29 1.562c-.225-1.719-1.361-2.943-1.361-2.943v2.943h-1.634V.338c.362 0 1.662.701 2.994 2.617V.337h1.594v6.228zm-8.38-4.247c-.331-.464-.786-.743-1.403-.743-1.03 0-1.864.843-1.864 1.882s.834 1.882 1.864 1.882a1.862 1.862 0 0 0 1.682-1.072h-1.917v-1.54h3.51V.336h3.13v1.54h-1.638s-.006.85 0 .85h1.639v1.54h-1.64v.796h1.64v1.502c.053.004-3.132-.002-3.132 0V4.28c-.37 1.703-1.738 2.58-3.274 2.58-1.523 0-2.788-.9-3.157-2.495v2.2h-1.54v-3.64s-.89.785-.89 3.64H8.358c0-2.855-.89-3.64-.89-3.64v3.64h-1.54V.241c1.774 0 2.945 1.993 3.22 3.17h.002C9.424 2.233 10.595.24 12.37.24v2.104-.003C12.669.946 14.074 0 15.527 0c1.49 0 2.804 1.126 3.08 2.32z" fill="#387db7" mask="url(#a)" transform="translate(4 15)"/></g></svg>