<svg width="36" height="36" fill="none" xmlns="http://www.w3.org/2000/svg"><defs><linearGradient id="a" x1="15.534" y1="11.519" x2="20.468" y2="16.219" gradientUnits="userSpaceOnUse"><stop stop-color="#396"/><stop offset="1" stop-color="#004F32"/></linearGradient></defs><path d="M18 0c2.837 0 5.52.656 7.907 1.825C31.884 4.753 36 10.895 36 18c0 9.942-8.058 18-18 18-9.94 0-18-8.057-18-18C0 8.06 8.06 0 18 0z" fill="#F2F4F7"/><path d="M31.954 12.178c-.099-.163-.28-.176-.352-.178h-11.32c-.32 0-.58.097-.771.29a1.07 1.07 0 0 0-.281.53c-.001.006-.014.05-.111.05H16.88c-.097 0-.11-.044-.11-.05a1.068 1.068 0 0 0-.282-.53c-.192-.193-.45-.29-.771-.29H4.398c-.073.002-.253.015-.352.178-.047.08-.082.214.02.402l.207.345c.084.138.18.19.385.202.003 0 .097.01.163.125l.211.371c.044.085.15.285.508.333.006 0 .11.013.168.122l.26.46c.076.146.183.2.376.26l4.734 1.39c.161.048.227.23.227.23.113.291.26.532 1 .755l3.872 1.057c.048.015.492.15.826-.172l.908-.866c0-.001.038-.04.09-.04.05 0 .088.039.088.04.003.001.909.866.909.866.334.322.777.187.825.172l3.873-1.057c.74-.223.886-.464 1-.756 0 0 .065-.181.226-.229l4.734-1.39c.194-.06.3-.114.376-.26l.26-.46c.058-.11.162-.12.169-.122.358-.048.463-.248.507-.333l.211-.37c.066-.116.16-.125.164-.126.203-.013.3-.064.384-.202l.207-.345c.102-.188.067-.322.02-.402zm-14.935 2.644h.39l-.566 2.044a7.997 7.997 0 0 1-.925-.181l1.1-1.863zm-.19 0-1.075 1.818a7.434 7.434 0 0 1-.849-.295l1.461-1.523h.462zm-2.53 0h1.015l-1.416 1.013a7.824 7.824 0 0 1-.717-.49l1.119-.523zm-1.262.41c-.013-.01-.336-.282-.473-.41h1.35l-.877.41zm2.558-.41h.544l-1.394 1.454a7.56 7.56 0 0 1-.692-.35l1.542-1.104zm.123-2.611c.262 0 .471.076.622.227a.865.865 0 0 1 .224.428s.009.03.019.052h-5.561c-.085-.14-.225-.393-.225-.393-.007-.011-.1-.18-.28-.314h5.2zm-3.777 1.963a9.898 9.898 0 0 1-.21-.25l.497-.068v.26l-.287.058zm.287.108v.207a7.296 7.296 0 0 1-.162-.173l.162-.034zm-.616-.508a9.353 9.353 0 0 1-.19-.254l.806-.053v.224l-.616.083zm.616-.477-.92.06a8.385 8.385 0 0 1-.184-.276h1.103v.216zm-7.555-.38c-.144-.01-.175-.027-.22-.101l-.203-.337a.264.264 0 0 1-.04-.13c.004-.077.056-.136.193-.138h5.643c.381 0 .607.392.607.392.05.092.108.198.178.315H4.673zm.765.8a.353.353 0 0 1-.22-.192c-.087-.15-.203-.373-.26-.444h5.972c.058.092.12.189.188.289l-5.239.348c-.082.01-.321.03-.441 0zm.967.755c-.19.025-.25-.038-.261-.053l-.251-.441a.43.43 0 0 0-.058-.085l5.395-.36c.062.086.126.175.195.265l-5.02.674zm1.217.483c-.52-.154-.942-.277-1.123-.33l5.042-.677c.069.087.141.175.216.264l-3.45.709c-.127.026-.495.083-.685.034zm1.71.501-1.174-.345c.102-.014.175-.029.183-.03l3.54-.727c.103.115.21.23.325.347l-2.311.713c-.005.002-.32.106-.563.042zm1.802.53-1.306-.384c.068-.015.112-.03.117-.032l2.393-.738c.166.16.343.32.534.477l-1.25.585c-.083.041-.324.136-.488.091zm1.002.908c-.49-.184-.562-.368-.632-.546a.67.67 0 0 0-.122-.203c.166-.03.303-.1.312-.104l1.32-.618c.24.187.486.36.74.515l-1.17.836c-.003.004-.245.184-.448.12zm1.402.397-1.036-.282a.913.913 0 0 0 .18-.103l1.225-.875c.233.136.472.26.717.37l-.68.71c-.061.063-.25.217-.406.18zm1.437.392-1.115-.304c.116-.066.196-.149.202-.155l.721-.752c.288.122.582.227.885.314l-.369.624c-.044.081-.195.294-.324.273zm1.451.308a.29.29 0 0 1-.223.027l-.975-.266a.978.978 0 0 0 .213-.26l.39-.66c.315.083.637.148.967.193l-.188.68c0 .002-.045.2-.184.286zm.43-.086a.537.537 0 0 1-.237.134.732.732 0 0 0 .15-.298l.194-.695c.242.028.488.047.738.055l-.844.804zm1.062-.964a8.714 8.714 0 0 1-.91-.055l.572-2.064h.338v2.12zm1.518-4.075a.858.858 0 0 1 .224-.428c.15-.15.36-.227.622-.227h5.2a1.065 1.065 0 0 0-.279.314c-.06.113-.135.245-.225.393h-5.56a.232.232 0 0 0 .018-.052zm4.335 1.25v-.26l.499.067a8.934 8.934 0 0 1-.21.251l-.29-.059zm.163.2a8.11 8.11 0 0 1-.163.174v-.208l.163.034zm-.163-.625v-.224l.807.053c-.06.083-.123.168-.19.254l-.617-.083zm0-.394v-.216h1.105a8.18 8.18 0 0 1-.183.276l-.922-.06zm-3.085 1.525H21.7l1.118.523a7.96 7.96 0 0 1-.717.49l-1.415-1.013zm1.26 1.104a7.486 7.486 0 0 1-.69.35l-1.395-1.454h.544l1.542 1.104zm.14-1.104h1.35c-.138.136-.462.4-.473.41l-.877-.41zm-2.915 0h.462l1.462 1.523a7.55 7.55 0 0 1-.85.295l-1.074-1.818zm-.19 0 1.1 1.862c-.3.079-.61.139-.924.182l-.567-2.044h.391zm-.9 2.12v-2.12h.34l.572 2.064a8.718 8.718 0 0 1-.911.056zm.92.829-.702-.67a9.12 9.12 0 0 0 .738-.055l.193.695a.736.736 0 0 0 .151.299c-.148-.043-.192-.086-.38-.27zm.796.247a.29.29 0 0 1-.224-.027c-.136-.083-.18-.274-.183-.285l-.189-.681c.33-.046.652-.11.967-.194l.391.662a.974.974 0 0 0 .212.26l-.974.265zm1.228-.335c-.13.02-.28-.192-.324-.271l-.37-.626a7.49 7.49 0 0 0 .885-.314l.721.752c.007.007.086.09.202.155l-1.114.304zm1.62-.442-.183.05c-.156.037-.345-.117-.406-.18l-.68-.71a7.59 7.59 0 0 0 .717-.37l1.226.877a.904.904 0 0 0 .178.1l-.851.233zm1.851-.894c-.07.179-.142.363-.633.547-.203.063-.444-.116-.446-.118l-1.17-.838a8.08 8.08 0 0 0 .738-.515l1.323.62c.008.003.144.072.31.102a.663.663 0 0 0-.122.202zm.37-.362c-.164.045-.406-.05-.486-.09l-1.252-.586c.19-.156.368-.316.534-.477l2.394.739c.005.002.049.016.115.03l-1.305.384zm1.803-.53c-.242.066-.559-.04-.562-.04l-.004-.001-2.31-.713c.115-.116.224-.232.326-.347l3.54.727c.008.002.08.017.182.03l-1.172.345zm1.71-.501c-.19.05-.559-.007-.687-.033l-3.45-.71c.076-.088.149-.176.217-.263l5.041.677-1.121.329zm1.726-.974-.249.44c-.01.013-.07.077-.261.052l-5.02-.674c.069-.09.134-.179.195-.265l5.333.354.062.006a.451.451 0 0 0-.06.087zm.89-.832-.214.377c-.03.056-.075.143-.218.192-.12.03-.36.011-.442 0l-5.239-.347c.068-.1.13-.197.188-.289h5.971a.559.559 0 0 0-.045.067zm.754-.67-.203.338c-.038.063-.061.091-.218.101l-6.158.001c.069-.117.128-.223.177-.315.002-.003.22-.392.608-.392h5.642c.059.002.136.01.176.076.005.01.017.028.017.062 0 .03-.01.072-.04.13z" fill="#000"/><path d="m12.394 14.658-.002-.003v-1.573h11.215v1.574l-.001.001H12.394z" fill="url(#a)"/><path d="M13.137 13.334h-.047l-.48 1.072h.13l.003-.006c.038-.13.088-.256.137-.376l.01-.025h.37c.05.114.102.245.157.401l.002.006h.18l-.462-1.072zm-.21.583.15-.354.153.354h-.304zm.723.412.004.005c.056.061.184.09.253.09.225 0 .382-.145.382-.353 0-.173-.13-.224-.257-.274-.112-.044-.219-.086-.219-.213 0-.097.077-.167.181-.167.084 0 .147.044.18.125l.001.006h.029l.045-.135-.005-.005a.348.348 0 0 0-.222-.074c-.21 0-.345.117-.345.298 0 .186.138.24.26.287.11.043.213.084.213.211 0 .118-.088.21-.2.21-.103 0-.171-.043-.237-.152l-.003-.004h-.028l-.032.146zm1.485-.973h-.788v.11h.01c.09-.01.178-.019.32-.02v.963h.152v-.962c.107 0 .21.007.305.018l.01.002v-.111h-.009zm.543-.022c-.334 0-.568.225-.568.547 0 .325.228.543.566.543.349 0 .584-.227.584-.566 0-.363-.292-.524-.582-.524zm.28.903a.369.369 0 0 1-.278.119c-.245 0-.403-.18-.403-.457 0-.307.16-.497.416-.497.122 0 .236.053.307.142.077.1.093.203.093.327l.001.021c0 .1-.041.244-.136.345zm1.352-.881h-.094v.777h-.001l-.718-.777h-.072v1.05h.103v-.813h.002l.65.719.08.094h.06v-1.05h-.01zm1.697 0h-.037l-.254.46-.176.32a12.18 12.18 0 0 1-.418-.775l-.003-.005h-.053l-.001.008c-.015.155-.105.787-.145 1.031l-.002.01h.127v-.008c0-.148.027-.369.055-.603l.016-.144c.018.034.216.409.291.563l.085.176h.029l.002-.005a8.76 8.76 0 0 1 .382-.736c.024.18.056.542.073.75l.001.008h.161l-.001-.01a30.101 30.101 0 0 1-.123-1.032v-.009h-.009zm.72-.022h-.047l-.48 1.072h.131l.002-.006c.039-.132.09-.258.138-.378l.009-.023h.37c.052.116.104.25.157.401l.002.006h.18l-.462-1.072zm-.21.583.15-.354.153.354h-.303zm1.133-.03c.19-.038.302-.146.302-.292 0-.16-.112-.24-.344-.24h-.33v1.05h.152v-.502h.044a40 40 0 0 0 .117.138l.178.23.098.135h.198l-.416-.52zm-.22-.06v-.397c.062-.003.159-.007.211.002.105.017.158.078.158.18 0 .106-.069.183-.186.207a.76.76 0 0 1-.183.008zm1.396-.471h-.788v.11h.01c.09-.01.178-.019.32-.02v.963h.152v-.962c.107 0 .21.007.305.018l.01.002v-.111h-.009zm.134 1.05h.143v-1.05h-.143v1.05zm1.158-1.05v.777h-.002l-.717-.777h-.073v1.05h.104v-.813h.002l.65.719.08.094h.059v-1.05h-.103z" fill="#fff"/><path d="M9.394 24.484c-.056-.004-.105-.01-.156-.01-.057 0-.108.006-.16.01a11.14 11.14 0 0 0-.314-.81H8c-.105.264-.213.527-.297.81-.042-.004-.075-.01-.111-.01-.04 0-.072.006-.105.01l.936-2.096h.07l.9 2.096zm19.012 0h-.09a3.75 3.75 0 0 0-.156-.183l-1.297-1.434h-.03v1.617c-.03-.004-.057-.01-.084-.01-.03 0-.057.006-.084.01v-2.051h.117l1.426 1.544h.03v-1.544c.027.002.054.009.084.009.027 0 .055-.007.084-.01v2.052zm-2.43-2.051c.042.003.087.009.132.009.042 0 .084-.007.132-.01v2.052c-.048-.004-.09-.01-.132-.01-.045 0-.09.006-.133.01v-2.051zm-.962 2.056c-.049-.003-.09-.009-.133-.009-.045 0-.09.006-.132.01v-1.913a5.64 5.64 0 0 0-.658.035c.004-.03.01-.06.01-.09s-.006-.056-.01-.09h1.55c-.003.034-.009.06-.009.09s.006.06.009.09a5.238 5.238 0 0 0-.627-.035v1.912zm-2.433-2.056h.637c.463 0 .667.152.667.455 0 .348-.312.516-.616.57l.619.783.144.168.056.075c-.062-.004-.116-.01-.174-.01-.056 0-.116.006-.171.01-.066-.093-.126-.178-.19-.262l-.353-.458-.24-.281h-.114v1c-.049-.003-.09-.009-.133-.009-.045 0-.09.006-.132.01v-2.051zm.265.935c.042.003.234.015.387-.015.22-.045.384-.195.384-.429 0-.207-.105-.342-.33-.378a2.729 2.729 0 0 0-.44-.002v.824h-.001zm-.473 1.116c-.057-.004-.104-.01-.156-.01-.057 0-.108.006-.159.01a11.47 11.47 0 0 0-.315-.81h-.762c-.106.264-.214.527-.298.81-.042-.004-.075-.01-.11-.01-.04 0-.073.006-.106.01l.937-2.096h.069l.9 2.096zm-1.008-1.703-.328.767h.66l-.332-.767zm-1.279-.348c.079.74.163 1.478.244 2.05-.055-.003-.097-.009-.142-.009-.048 0-.096.006-.14.01a36.91 36.91 0 0 0-.154-1.547c-.348.62-.607 1.1-.787 1.514h-.032l-.165-.34c-.193-.395-.403-.785-.607-1.175-.066.585-.147 1.178-.147 1.547-.039-.003-.072-.009-.105-.009-.04 0-.072.006-.108.01a61.81 61.81 0 0 0 .288-2.051h.078c.24.477.528 1.04.85 1.57.285-.513.561-1.033.864-1.57h.063zm-3.383 2.05h-.09a3.567 3.567 0 0 0-.156-.182l-1.297-1.434h-.03v1.617c-.03-.004-.057-.01-.084-.01-.03 0-.057.006-.084.01v-2.051h.117l1.426 1.544h.03v-1.544c.027.002.054.009.084.009.027 0 .054-.007.084-.01v2.052zm-4.305-1.025c0-.657.489-1.07 1.11-1.07.565 0 1.138.305 1.138 1.025 0 .668-.474 1.107-1.143 1.107-.664 0-1.105-.42-1.105-1.062zm1.765-.68a.795.795 0 0 0-.625-.291c-.528 0-.846.399-.846 1.007 0 .61.372.926.82.926.633 0 .861-.653.84-.983 0-.248-.033-.459-.19-.66zm-2.358 1.711c-.048-.003-.09-.009-.132-.009-.045 0-.09.006-.132.01v-1.913c-.303 0-.487.017-.658.035.004-.03.01-.06.01-.09s-.007-.056-.01-.09h1.55c-.004.034-.01.06-.01.09s.006.06.01.09a5.24 5.24 0 0 0-.628-.035v1.912zm-2.2-.41c.116.192.251.312.486.312.243 0 .417-.202.417-.438 0-.558-.94-.312-.94-.99 0-.386.307-.575.667-.575.144 0 .318.045.429.144-.036.078-.057.161-.081.245h-.03a.385.385 0 0 0-.372-.26c-.207 0-.378.138-.378.35 0 .552.945.33.945.97 0 .428-.334.683-.742.683-.146 0-.387-.063-.489-.174.03-.087.045-.177.057-.267h.03zm-1.22-1.298-.326.767h.66l-.334-.767z" fill="#000"/></svg>