<svg width="36" height="36" fill="none" xmlns="http://www.w3.org/2000/svg"><path d="M18 0c2.837 0 5.52.656 7.907 1.825C31.884 4.753 36 10.895 36 18c0 9.942-8.058 18-18 18-9.94 0-18-8.057-18-18C0 8.06 8.06 0 18 0z" fill="#F2F4F7"/><g fill="#0B3865"><path d="m30.72 18.195-1.384-.572-.575 1.386-.574-1.386-1.385.572.575-1.384-1.387-.575 1.387-.575-.575-1.384 1.385.572.574-1.385.575 1.385-.007.004 1.392-.576-.573 1.384 1.386.575-1.387.575.574 1.384zM28.762 13a3.24 3.24 0 1 0 0 6.478 3.24 3.24 0 0 0 0-6.478z"/><path d="m30.428 14.57-2.845 1.178 1.178.488.488 1.177 1.179-2.843zm1.087 4.753c.056 0 .134.01.134-.06 0-.051-.044-.058-.095-.058h-.104v.118h.065zm.189.23h-.069l-.115-.181h-.07v.18h-.06v-.392h.176c.033 0 .067.002.098.02.03.016.044.05.044.084 0 .077-.055.106-.127.108l.123.18zm-.473-.198c0 .16.13.284.293.284.16 0 .29-.124.29-.284 0-.155-.13-.28-.29-.28a.286.286 0 0 0-.293.28zm-.069 0c0-.192.162-.348.362-.348.198 0 .36.156.36.348a.356.356 0 0 1-.36.352.356.356 0 0 1-.361-.352zm-10.897-2.383c0 .146-.128.265-.282.265-.15 0-.282-.12-.282-.265 0-.145.133-.27.282-.27a.28.28 0 0 1 .282.27zm.257 2.501v.08h-1.056v-.08l.286-.07v-1.567l-.286-.073v-.077l.773-.056v1.774l.283.069zm3.026-1.702c-.226 0-.378.242-.406.564h.765c-.01-.305-.102-.564-.36-.564zm.21 1.617c.315 0 .535-.161.596-.202l.07.116a1.236 1.236 0 0 1-.817.294c-.593 0-1.003-.389-1.003-.983 0-.512.386-.983.944-.983.562 0 .835.339.838.855h-1.257c-.03.463.12.903.629.903M11.09 17.771c-.227 0-.378.241-.407.564h.766c-.011-.305-.103-.564-.36-.564zm.21 1.617c.314 0 .535-.161.595-.202l.07.116a1.237 1.237 0 0 1-.817.294c-.593 0-1.003-.389-1.003-.983 0-.512.386-.983.945-.983.561 0 .835.339.837.855h-1.256c-.03.463.12.903.628.903m-5.763-.868-.386-1.194h-.008l-.431 1.193h.825zM4 19.476l.172-.069.884-2.283c-.039-.127-.223-.145-.383-.166v-.1h.813l.853 2.545.171.069v.08H5.45v-.08l.346-.078-.21-.718h-.93l-.24.718.449.073v.086H4v-.077zm5.204-1.846c.316 0 .462.18.462.513v1.26l.239.07v.08h-.953v-.08l.23-.064v-1.191c0-.176-.024-.326-.207-.326-.143 0-.317.132-.395.193v1.319l.235.069v.08h-.949v-.08l.231-.064v-1.191c0-.184-.029-.326-.208-.326-.157 0-.326.132-.4.188v1.324l.249.069v.08H6.716v-.08l.287-.07v-1.585l-.287-.072v-.077l.757-.04.008.286c.103-.085.325-.285.641-.285.278 0 .401.142.442.3.115-.107.34-.3.64-.3m7.166 1.74c.26 0 .503-.257.503-.787 0-.506-.215-.71-.484-.71-.217 0-.372.106-.448.15v1.223a.911.911 0 0 0 .429.124zm.055 1.064v.103h-1.266v-.082l.291-.08V17.83l-.287-.072v-.078l.766-.052.008.224c.126-.08.352-.223.65-.223.513 0 .82.338.82.945 0 .71-.418 1.021-.854 1.021-.32 0-.534-.132-.612-.183v.945l.484.076zm2.532-2.804c.163 0 .273.088.319.119l-.134.364c-.057-.032-.14-.085-.281-.085-.18 0-.289.126-.4.23v1.133l.415.069v.094h-1.188v-.081l.286-.069v-1.573l-.286-.072v-.078l.74-.05.007.45h.01c.09-.158.218-.45.512-.45m-4.214-.659c0 .146-.128.265-.282.265-.15 0-.282-.12-.282-.265 0-.145.133-.27.282-.27a.28.28 0 0 1 .282.27zM15 19.473v.08h-1.055v-.08l.286-.07v-1.567l-.286-.073v-.077l.774-.056v1.774l.281.069zm-1.566-1.843c.164 0 .274.088.32.119l-.134.364c-.056-.032-.141-.085-.281-.085-.18 0-.289.126-.4.23v1.133l.415.069v.094h-1.188v-.081l.286-.069v-1.573l-.286-.072v-.078l.74-.05.007.45h.01c.089-.158.218-.45.511-.45m8.69.089-.046.474h-.126l-.053-.332a.766.766 0 0 0-.346-.091c-.19 0-.337.103-.337.248 0 .19.223.265.45.363.218.09.58.23.58.605-.001.38-.354.609-.787.609-.326 0-.53-.062-.588-.081l-.045-.539h.143l.114.401c.02.01.167.079.343.079.255 0 .442-.124.442-.308 0-.203-.31-.31-.521-.401-.198-.086-.503-.214-.503-.598 0-.309.285-.52.7-.52.298 0 .538.079.58.091m-4.15 2.822-.009.054.183.047-.23 1.62-.193.043-.007.055h.794l.008-.055-.287-.046.11-.786h.327l.02.25h.087l.084-.599h-.087l-.084.251h-.334l.103-.736h.512l.016.283h.104l.055-.381h-1.172zm6.776.702c-.195 0-.352.227-.352.649 0 .22.097.362.27.362.155 0 .272-.12.33-.173l.048.057c-.063.075-.2.249-.49.249-.268 0-.454-.18-.454-.52 0-.373.248-.707.652-.707.177 0 .31.028.342.035l-.063.322h-.096l-.007-.216a.301.301 0 0 0-.18-.058m-5.051-.552c-.012.078-.072.147-.165.147-.085 0-.133-.072-.12-.147.014-.084.086-.15.165-.15.08 0 .129.072.12.15zm-.348.58-.19-.049.005-.038.472-.024-.156 1.11.182.047-.006.043h-.455l.148-1.089zm6.459-.58a.165.165 0 0 1-.165.147c-.084 0-.132-.072-.12-.147.015-.084.087-.15.165-.15.081 0 .13.072.12.15zm-.347.58-.19-.049.005-.038.471-.024-.156 1.11.183.047-.006.043h-.456l.15-1.089zm2.031-.802-.005.042.174.046-.25 1.807h.46l.006-.044-.187-.046.26-1.839-.458.035zm-6.741 1.094c.025-.164.023-.222-.039-.222-.187 0-.369.425-.436.577l-.063.442h-.268l.152-1.088-.193-.05.006-.038.472-.024-.068.482c.123-.228.276-.482.532-.482s.193.245.18.349l-.106.761.184.047-.006.043h-.458l.11-.797zm2.79 0c.024-.164.022-.222-.039-.222-.187 0-.369.425-.436.577l-.063.442h-.268l.153-1.088-.194-.05.006-.038.472-.024-.067.482c.123-.228.276-.482.53-.482.257 0 .195.245.18.349l-.106.761.186.047-.007.043h-.457l.11-.797zm-1.55-.319c-.211 0-.386.41-.386.753 0 .135.055.19.128.19.176 0 .327-.42.37-.53l.046-.37c-.012-.006-.073-.043-.158-.043zm.444-.038-.152 1.064.197.047-.003.044h-.472l.054-.391c-.074.154-.218.417-.466.417-.226 0-.283-.176-.283-.381 0-.414.305-.846.758-.846.171 0 .316.035.367.046m4.227.038c-.211 0-.386.41-.386.753 0 .135.054.19.128.19.175 0 .327-.42.37-.53l.046-.37c-.013-.006-.073-.043-.158-.043zm.444-.038-.152 1.064.197.047-.003.044h-.472l.054-.391c-.075.154-.217.417-.466.417-.226 0-.283-.176-.283-.381 0-.414.305-.846.758-.846.171 0 .315.035.367.046"/></g></svg>