<svg width="36" height="36" fill="none" xmlns="http://www.w3.org/2000/svg"><path d="M18 0c2.837 0 5.52.656 7.907 1.825C31.884 4.753 36 10.895 36 18c0 9.942-8.058 18-18 18-9.94 0-18-8.057-18-18C0 8.06 8.06 0 18 0z" fill="#F2F4F7"/><path fill-rule="evenodd" clip-rule="evenodd" d="M6.258 22.313c1.34 3.4 7.701 4.26 14.202 1.88 6.482-2.36 10.643-7.061 9.282-10.482-1.34-3.4-7.701-4.26-14.203-1.88-6.48 2.36-10.642 7.061-9.281 10.482zm1.08-1.46c1 2.56 6.401 2.94 12.082.88 5.661-2.08 9.442-5.821 8.442-8.382-1-2.54-6.421-2.92-12.102-.86-5.662 2.08-9.442 5.821-8.422 8.362z" fill="#0265A5"/><path fill-rule="evenodd" clip-rule="evenodd" d="M16.4 29.974c3.76.48 7.541-4.5 8.441-11.102.88-6.621-1.44-12.362-5.22-12.843-3.782-.46-7.562 4.521-8.462 11.123-.88 6.621 1.44 12.362 5.22 12.822h.02zm-.82-1.6c2.8.36 5.72-4.04 6.5-9.802.78-5.801-.88-10.742-3.68-11.102-2.82-.36-5.741 4.04-6.521 9.822-.78 5.78.88 10.742 3.7 11.082z" fill="#01853F"/><path d="M12.419 23.054c-.6 0-1.18-.06-1.4-.1l.4 2.46c.44.08 1.2.12 1.6.12l-.6-2.48z" fill="#0265A5"/></svg>