<svg width="36" height="36" fill="none" xmlns="http://www.w3.org/2000/svg"><path d="M18 0c2.837 0 5.52.656 7.907 1.825C31.884 4.753 36 10.895 36 18c0 9.942-8.058 18-18 18-9.94 0-18-8.057-18-18C0 8.06 8.06 0 18 0z" fill="#F2F4F7"/><path d="M7.961 15.795c-.482-.41-.959-.743-1.579-.793-.471-.037-.718.353-.941.757-.373.673-1.569 3.254-1.43 4.178.298 1.98 4.012 1.413 5.375.512 1.056-.698.49-3.027-1.425-4.654zm1.245 3.415a2.19 2.19 0 0 1-.035.245c-.122.602-.648.91-1.17 1.06-.495.142-.999.254-1.508.324-.421.058-.847.045-1.268-.152-.977-.457-.577-1.617-.315-2.254.341-.827.62-1.663 1.02-2.51.137-.286.498-.508.84-.377.395.15.754.407 1.046.715.406.43.766.837 1.03 1.377.213.438.407 1.063.36 1.572zm-.664-.906c-.124-.32-.777-1.779-1.523-2.206-.497-.285-.81.393-.934.667-.218.483-.416.976-.626 1.463-.204.475-.392 1.057-.27 1.599.084.374.442.568.767.593.474.035 1.762-.278 1.983-.379.522-.237.672-.522.754-.847.067-.27-.045-.619-.15-.89zm-1.204 1.482c-.282.097-1.046.27-1.527.12-.405-.126-.203-.844-.1-1.146.141-.41.787-1.967.908-2.083.3-.288.635.207.848.515 1.477 1.93.292 2.45-.129 2.594zm5.422-.236h-.496l-.155-.475h-.003c-.026.095-.131.133-.28.133h-.433l-.107.342h-.482l.686-2.08h.584l.686 2.08zm-1.226-.787h.475l-.236-.758h-.003l-.236.758zm2.831.787h-.467v-.861c0-.149-.088-.238-.22-.238-.174 0-.247.133-.247.356v.743h-.467v-1.485h.467v.178h.003a.506.506 0 0 1 .42-.208c.336 0 .511.208.511.591v.924zm1.387-1.485h.467V19.4c0 .446-.307.773-.818.773-.32 0-.54-.09-.7-.208l.248-.312a.78.78 0 0 0 .423.119c.254 0 .38-.152.38-.372v-.059h-.003c-.085.134-.245.208-.45.208-.438 0-.7-.327-.7-.757 0-.431.262-.758.7-.758.205 0 .365.074.45.208h.003v-.178zm0 .728c0-.205-.14-.342-.336-.342s-.336.137-.336.342c0 .205.14.341.336.341s.336-.137.336-.341zm1.24.757h-.468v-2.08h.467v2.08zm.233-.743c0-.445.321-.772.788-.772s.789.327.789.772c0 .446-.322.773-.789.773s-.788-.327-.788-.773zm1.095 0c0-.204-.111-.356-.307-.356-.195 0-.306.151-.306.356 0 .206.11.357.306.357s.307-.152.307-.357zm2.526.743h-.497l-.155-.475h-.003c-.026.095-.131.133-.28.133h-.432l-.108.342h-.482l.686-2.08h.584l.687 2.08zm-1.227-.787h.476l-.236-.758h-.003l-.237.758zm3.709-.137v.924h-.468v-.861c0-.149-.087-.238-.19-.238-.175 0-.248.133-.248.356v.743h-.467v-.861c0-.149-.087-.238-.19-.238-.175 0-.248.133-.248.356v.743h-.467v-1.485h.467v.178h.003a.462.462 0 0 1 .406-.208c.207 0 .353.086.432.253h.006a.509.509 0 0 1 .452-.253c.35 0 .512.208.512.591zm1.76.345h-1.024c.043.142.154.223.315.223.146 0 .24-.069.292-.149l.35.238c-.131.163-.336.297-.657.297-.482 0-.803-.327-.803-.773 0-.445.322-.772.789-.772.438 0 .744.297.744.796 0 .045 0 .092-.006.14zm-.461-.297c-.014-.149-.088-.253-.277-.253-.152 0-.254.093-.292.253h.569zm1.606-.163c-.394 0-.438.088-.438.356v.683h-.467v-1.485h.467v.237h.003c.085-.178.201-.267.435-.267v.476zm.146-.862c0-.148.117-.267.263-.267.146 0 .263.119.263.267a.264.264 0 0 1-.263.267.264.264 0 0 1-.263-.267zm.496 1.901h-.467v-1.485h.467v1.485zm1.314-.564.38.225a.777.777 0 0 1-.686.369.746.746 0 0 1-.774-.773c0-.445.321-.772.788-.772a.77.77 0 0 1 .672.369l-.38.225c-.073-.125-.17-.178-.292-.178-.195 0-.306.151-.306.356 0 .206.11.357.306.357.123 0 .22-.054.292-.178zm1.65-.743v-.178h.467v1.485h-.467v-.178h-.003c-.084.133-.245.208-.45.208-.438 0-.7-.327-.7-.773 0-.445.263-.772.7-.772.205 0 .366.074.45.208h.003zm0 .564c0-.22-.14-.356-.336-.356-.195 0-.335.137-.335.356 0 .22.14.357.335.357.196 0 .336-.137.336-.357zm2.16.743h-.466v-.861c0-.149-.088-.238-.22-.238-.175 0-.248.133-.248.356v.743h-.467v-1.485h.467v.178h.003a.506.506 0 0 1 .421-.208c.336 0 .511.208.511.591v.924z" fill="#031795"/><path d="M7.724 18.462c-.125-.275-.336-.639-.61-.887-.105-.096-.408-.21-.5.048-.168.448-.298.911-.423 1.36-.034.123-.09.433.04.515.296.189 1.137-.37 1.398-.538.148-.096.167-.339.095-.498zm-.396.258c-.187.169-.497.377-.713.368-.222-.009.09-.995.271-1.145.146-.121.464.436.483.495.031.096.027.221-.04.282z" fill="red"/></svg>