<svg height="36" viewBox="0 0 36 36" width="36" xmlns="http://www.w3.org/2000/svg"><mask id="a" fill="#fff"><path d="M0 0h28v7.508H0z" fill-rule="evenodd"/></mask><g fill="none" fill-rule="evenodd"><path d="M18 0c2.837 0 5.52.656 7.907 1.825C31.884 4.753 36 10.895 36 18c0 9.942-8.058 18-18 18-9.94 0-18-8.057-18-18C0 8.06 8.06 0 18 0z" fill="#f2f4f7" fill-rule="nonzero"/><path d="M26.559 6.796c-.164.047-.246.13-.246.246.033.165.109.247.225.247h.043c.125 0 .2-.075.225-.226-.02-.18-.103-.267-.247-.267zm-2.367 0c-.163.047-.247.13-.247.246.034.165.11.247.227.247h.042c.126 0 .202-.075.226-.226-.02-.18-.103-.267-.248-.267zm-1.21 0c-.164.047-.245.13-.245.246.033.165.109.247.225.247h.04c.129 0 .204-.075.228-.226-.021-.18-.102-.267-.247-.267zm-.575 0c-.165.047-.246.13-.246.246.033.165.108.247.225.247h.042c.127 0 .202-.075.226-.226-.02-.18-.102-.267-.247-.267zm-.598 0c-.165.047-.247.13-.247.246.036.165.11.247.227.247h.04c.128 0 .204-.075.228-.226-.021-.18-.103-.267-.248-.267zm5.965 0c-.12 0-.21.082-.268.246.038.165.113.247.226.247h.02c.166 0 .248-.082.248-.247v-.02c0-.104-.074-.18-.226-.226zm-.597 0c-.18.04-.267.129-.267.267.047.15.123.226.226.226h.04c.128 0 .203-.075.228-.226v-.041c0-.104-.076-.18-.227-.226zm-3.561 0c-.12 0-.21.082-.268.246.038.165.113.247.226.247h.02c.166 0 .249-.082.249-.247v-.02c0-.104-.076-.18-.227-.226zm-2.382 0c-.12 0-.21.082-.268.246.037.165.113.247.226.247h.02c.166 0 .249-.082.249-.247v-.02c0-.104-.077-.18-.227-.226zm5.346-.598c-.131 0-.22.076-.268.227.027.179.103.267.226.267h.042c.127 0 .202-.075.226-.226-.024-.18-.1-.268-.226-.268zm-2.366 0c-.131 0-.221.076-.27.227.029.179.104.267.228.267h.042c.126 0 .2-.075.226-.226-.025-.18-.1-.268-.226-.268zm-1.21 0c-.13 0-.22.076-.268.227.027.179.103.267.226.267h.042c.127 0 .202-.075.226-.226-.024-.18-.1-.268-.226-.268zm-.576 0c-.13 0-.22.076-.267.227.026.179.102.267.225.267h.042c.127 0 .202-.075.226-.226-.024-.18-.1-.268-.226-.268zm-.598 0c-.13 0-.22.076-.268.227.029.179.103.267.228.267h.04c.127 0 .203-.075.227-.226-.024-.18-.1-.268-.227-.268zm5.944 0c-.18.04-.268.13-.268.268.048.15.124.226.226.226h.042c.127 0 .202-.075.226-.226v-.041c0-.104-.074-.18-.226-.227zm-.597 0c-.147 0-.237.09-.267.268.047.15.123.226.226.226h.04c.128 0 .203-.075.228-.226v-.041c0-.104-.076-.18-.227-.227zm-2.368 0c-.147 0-.236.09-.266.268.047.15.122.226.225.226h.04c.128 0 .204-.075.228-.226v-.041c0-.104-.075-.18-.227-.227zm-1.193 0c-.18.04-.268.13-.268.268.048.15.124.226.226.226h.042c.127 0 .202-.075.227-.226v-.041c0-.104-.076-.18-.227-.227zm-2.382 0c-.18.04-.268.13-.268.268.048.15.124.226.226.226h.042c.126 0 .203-.075.227-.226v-.041c0-.104-.077-.18-.227-.227zm-.598 0c-.146 0-.236.09-.266.268.047.15.123.226.225.226h.04c.128 0 .204-.075.228-.226v-.041c0-.104-.076-.18-.227-.227zm5.944-.596c-.18.033-.268.109-.268.225 0 .162.089.25.268.268.127 0 .202-.075.226-.227-.024-.176-.1-.266-.226-.266zm-2.366 0c-.18.033-.27.109-.27.225 0 .162.09.25.27.268.126 0 .2-.075.226-.227-.025-.176-.1-.266-.226-.266zm-1.21 0c-.18.033-.268.109-.268.225 0 .162.089.25.268.268.127 0 .202-.075.226-.227-.024-.176-.1-.266-.226-.266zm-.576 0c-.18.033-.267.109-.267.225 0 .162.088.25.267.268.127 0 .202-.075.226-.227-.024-.176-.1-.266-.226-.266zm-.598 0c-.178.033-.268.109-.268.225 0 .162.09.25.268.268.127 0 .203-.075.227-.227-.024-.176-.1-.266-.227-.266zm5.944 0c-.147 0-.237.09-.268.267 0 .127.089.202.268.227.127 0 .202-.076.226-.227v-.042c0-.101-.074-.177-.226-.225zm-.597 0c-.13 0-.22.074-.267.225 0 .16.088.25.267.269.127 0 .202-.076.227-.227v-.042c0-.101-.076-.177-.227-.225zm-2.368 0c-.13 0-.22.074-.266.225 0 .16.088.25.266.269.127 0 .203-.076.227-.227v-.042c0-.101-.075-.177-.227-.225zm-1.193 0c-.148 0-.237.09-.268.267 0 .127.089.202.268.227.127 0 .202-.076.227-.227v-.042c0-.101-.076-.177-.227-.225zm-2.382 0c-.148 0-.237.09-.268.267 0 .127.089.202.268.227.126 0 .203-.076.227-.227v-.042c0-.101-.077-.177-.227-.225zm-.598 0c-.13 0-.22.074-.266.225 0 .16.087.25.266.269.127 0 .203-.076.227-.227v-.042c0-.101-.076-.177-.227-.225zm7.138-.598c-.138 0-.227.083-.268.248 0 .13.082.212.247.247h.02c.128 0 .203-.076.227-.226V5.23c0-.107-.074-.182-.226-.227zm-.597 0c-.18.034-.267.11-.267.227 0 .162.088.25.267.268.127 0 .202-.076.227-.226V5.23c0-.107-.076-.182-.227-.227zm-.576 0c-.193.024-.288.1-.288.228 0 .16.088.25.268.266.125 0 .2-.075.225-.225 0-.131-.068-.22-.205-.27zm-1.792 0c-.178.034-.266.11-.266.227 0 .162.088.25.266.268.127 0 .203-.076.227-.226V5.23c0-.107-.075-.182-.227-.227zm-.575 0c-.193.024-.29.1-.29.228 0 .16.09.25.27.266.126 0 .202-.075.226-.225 0-.131-.07-.22-.206-.27zm-.618 0c-.138 0-.226.083-.268.248 0 .13.083.212.247.247h.02c.128 0 .203-.076.228-.226V5.23c0-.107-.076-.182-.227-.227zm-1.765 0c-.192.024-.29.1-.29.228 0 .16.09.25.269.266.127 0 .203-.075.227-.225 0-.131-.07-.22-.206-.27zm-.617 0c-.138 0-.227.083-.268.248 0 .13.082.212.247.247h.02c.127 0 .204-.076.228-.226V5.23c0-.107-.077-.182-.227-.227zm-.598 0c-.18.034-.266.11-.266.227 0 .162.087.25.266.268.127 0 .203-.076.227-.226V5.23c0-.107-.076-.182-.227-.227zm7.138-.597c-.18.032-.268.114-.268.247 0 .13.082.213.247.247h.02c.128 0 .203-.075.227-.226v-.041c0-.107-.074-.182-.226-.227zm-.597 0c-.18.035-.267.11-.267.227.027.178.11.267.248.267h.019c.127 0 .202-.075.227-.226v-.041c0-.107-.076-.182-.227-.227zm-.596 0c-.18.035-.268.11-.268.227 0 .16.088.25.268.267.15-.038.225-.113.225-.226v-.041c0-.107-.075-.182-.225-.227zm-1.772 0c-.178.035-.266.11-.266.227.026.178.109.267.246.267h.02c.127 0 .203-.075.227-.226v-.041c0-.107-.075-.182-.227-.227zm-.595 0c-.18.035-.27.11-.27.227 0 .16.09.25.27.267.15-.038.226-.113.226-.226v-.041c0-.107-.076-.182-.226-.227zm-.598 0c-.18.032-.268.114-.268.247 0 .13.083.213.247.247h.02c.128 0 .203-.075.228-.226v-.041c0-.107-.076-.182-.227-.227zm-1.786 0c-.178.035-.268.11-.268.227 0 .16.09.25.268.267.15-.038.227-.113.227-.226v-.041c0-.107-.076-.182-.227-.227zm-.596 0c-.18.032-.268.114-.268.247 0 .13.082.213.247.247h.02c.127 0 .204-.075.228-.226v-.041c0-.107-.077-.182-.227-.227zm-.598 0c-.18.035-.266.11-.266.227.026.178.108.267.245.267h.02c.128 0 .204-.075.228-.226v-.041c0-.107-.076-.182-.227-.227zm7.117-.597c-.126 0-.21.083-.247.247 0 .107.069.189.206.248.192 0 .288-.076.288-.227v-.041c0-.117-.082-.192-.247-.227zm-.595 0c-.118 0-.201.076-.248.227 0 .127.068.216.205.268.193-.017.289-.093.289-.227v-.041c0-.117-.082-.192-.246-.227zm-.6 0c-.116 0-.198.076-.245.227 0 .127.067.216.204.268.193-.017.289-.093.289-.227v-.041c0-.117-.082-.192-.247-.227zm-1.77 0c-.116 0-.198.076-.245.227 0 .127.068.216.204.268.193-.017.289-.093.289-.227v-.041c0-.117-.082-.192-.247-.227zm-.596 0c-.116 0-.2.076-.247.227 0 .127.069.216.206.268.193-.017.289-.093.289-.227v-.041c0-.117-.083-.192-.248-.227zm-.597 0c-.127 0-.21.083-.247.247 0 .107.068.189.206.248.192 0 .289-.076.289-.227v-.041c0-.117-.083-.192-.248-.227zm-1.786 0c-.116 0-.198.076-.247.227 0 .127.069.216.206.268.192-.017.289-.093.289-.227v-.041c0-.117-.082-.192-.248-.227zm-.596 0c-.127 0-.21.083-.247.247 0 .107.069.189.206.248.192 0 .289-.076.289-.227v-.041c0-.117-.083-.192-.248-.227zm-.598 0c-.117 0-.198.076-.245.227 0 .127.067.216.205.268.192-.017.288-.093.288-.227v-.041c0-.117-.083-.192-.248-.227zm7.138-.596c-.126 0-.21.082-.247.246 0 .107.069.189.206.248.192-.018.288-.093.288-.227V3.44c0-.123-.082-.2-.247-.226zm-.595 0c-.118 0-.201.075-.248.226 0 .127.068.216.205.268.193-.018.289-.093.289-.227V3.44c0-.117-.082-.192-.246-.226zm-.6 0c-.116 0-.198.075-.245.226 0 .127.067.216.204.268.193-.018.289-.093.289-.227V3.44c0-.117-.082-.192-.247-.226zm-1.77 0c-.116 0-.198.075-.245.226 0 .127.068.216.204.268.193-.018.289-.093.289-.227V3.44c0-.117-.082-.192-.247-.226zm-.596 0c-.116 0-.2.075-.247.226 0 .127.069.216.206.268.193-.018.289-.093.289-.227V3.44c0-.117-.083-.192-.248-.226zm-.597 0c-.127 0-.21.082-.247.246 0 .107.068.189.206.248.192-.018.289-.093.289-.227V3.44c0-.123-.083-.2-.248-.226zm-1.786 0c-.116 0-.198.075-.247.226 0 .127.069.216.206.268.192-.018.289-.093.289-.227V3.44c0-.117-.082-.192-.248-.226zm-.596 0c-.127 0-.21.082-.247.246 0 .107.069.189.206.248.192-.018.289-.093.289-.227V3.44c0-.123-.083-.2-.248-.226zm-.598 0c-.117 0-.198.075-.245.226 0 .127.067.216.205.268.192-.018.288-.093.288-.227V3.44c0-.117-.083-.192-.248-.226zm7.138-.598c-.126 0-.21.082-.247.247 0 .128.082.21.247.248.165-.035.247-.11.247-.227v-.041c0-.127-.074-.203-.226-.227zm-.595 0c-.118 0-.201.076-.248.227.027.179.11.268.248.268.164-.035.246-.11.246-.227v-.041c0-.127-.076-.203-.227-.227zm-.577 0c-.18.024-.268.1-.268.227.026.179.109.268.246.268.165-.035.247-.11.247-.227v-.041c-.038-.151-.113-.227-.225-.227zm-1.792 0c-.117 0-.2.076-.246.227.026.179.109.268.246.268.165-.035.247-.11.247-.227v-.041c0-.127-.075-.203-.227-.227zm-.575 0c-.18.024-.27.1-.27.227.029.179.11.268.248.268.165-.035.248-.11.248-.227v-.041c-.038-.151-.113-.227-.226-.227zm-.62 0c-.126 0-.208.082-.246.247 0 .128.083.21.247.248.165-.035.248-.11.248-.227v-.041c0-.127-.076-.203-.227-.227zm-1.764 0c-.178.024-.268.1-.268.227.029.179.11.268.247.268.166-.035.248-.11.248-.227v-.041c-.038-.151-.114-.227-.227-.227zm-.617 0c-.127 0-.21.082-.247.247 0 .128.082.21.247.248.165-.035.248-.11.248-.227v-.041c0-.127-.077-.203-.227-.227zm-.598 0c-.117 0-.198.076-.245.227.026.179.108.268.245.268.165-.035.248-.11.248-.227v-.041c0-.127-.076-.203-.227-.227zm7.138-.596c-.126 0-.21.082-.247.246.048.165.13.247.247.247.165-.034.247-.11.247-.226v-.041c0-.127-.074-.202-.226-.226zm-.576 0c-.18.024-.267.099-.267.226.027.178.11.267.248.267.164-.034.246-.11.246-.226v-.041c0-.127-.076-.202-.227-.226zm-.597 0c-.18.024-.268.099-.268.226.027.178.11.267.247.267.145 0 .227-.09.247-.267 0-.127-.076-.202-.226-.226zm-1.771 0c-.178.024-.266.099-.266.226.026.178.109.267.246.267.165-.034.247-.11.247-.226v-.041c0-.127-.075-.202-.227-.226zm-.595 0c-.18.024-.27.099-.27.226.029.178.11.267.248.267.145 0 .228-.09.248-.267 0-.127-.076-.202-.226-.226zm-.62 0c-.126 0-.208.082-.246.246.048.165.13.247.247.247.165-.034.248-.11.248-.226v-.041c0-.127-.076-.202-.227-.226zm-1.764 0c-.178.024-.268.099-.268.226.029.178.11.267.247.267.145 0 .227-.09.248-.267 0-.127-.076-.202-.227-.226zm-.617 0c-.127 0-.21.082-.247.246.048.165.13.247.247.247.165-.034.248-.11.248-.226v-.041c0-.127-.077-.202-.227-.226zm-.577 0c-.18.024-.266.099-.266.226.026.178.108.267.245.267.165-.034.248-.11.248-.226v-.041c0-.127-.076-.202-.227-.226zm-16.81-.45c1.017 0 1.673.58 1.97 1.25.14.309.206.657.193.992a2.44 2.44 0 0 1-.27.992c-.323.643-.941 1.133-1.881 1.133-1.52 0-2.151-1.275-2.151-2.151v-.012c0-1.095.773-2.203 2.139-2.203zm22.754-.148c-.18.024-.268.1-.268.227.034.178.11.268.226.268.162 0 .25-.09.268-.268 0-.127-.076-.203-.226-.227zm-2.366 0c-.18.024-.27.1-.27.227.035.178.11.268.228.268.16 0 .25-.09.268-.268 0-.127-.076-.203-.226-.227zm-2.384 0c-.178.024-.268.1-.268.227.036.178.11.268.228.268.16 0 .249-.09.267-.268 0-.127-.076-.203-.227-.227zm5.944 0c-.18.024-.268.1-.268.227 0 .13.075.22.226.268.179-.028.268-.103.268-.227v-.041c0-.127-.074-.203-.226-.227zm-.597 0c-.18.024-.267.1-.267.227 0 .13.075.22.226.268.178-.028.268-.103.268-.227v-.041c0-.127-.076-.203-.227-.227zm-1.194 0c-.178.024-.268.1-.268.227 0 .13.076.22.227.268.178-.028.268-.103.268-.227v-.041c0-.127-.075-.203-.227-.227zm-.576 0c-.18.024-.268.1-.268.227 0 .13.076.22.227.268.178-.028.268-.103.268-.227v-.041c0-.127-.075-.203-.227-.227zm-.598 0c-.178.024-.266.1-.266.227 0 .13.074.22.225.268.179-.028.268-.103.268-.227v-.041c0-.127-.075-.203-.227-.227zm-1.193 0c-.18.024-.268.1-.268.227 0 .13.075.22.226.268.179-.028.269-.103.269-.227v-.041c0-.127-.076-.203-.227-.227zm-2.382 0c-.18.024-.268.1-.268.227 0 .13.075.22.226.268.179-.028.269-.103.269-.227v-.041c0-.127-.077-.203-.227-.227zm-.598 0c-.18.024-.266.1-.266.227 0 .13.074.22.225.268.178-.028.268-.103.268-.227v-.041c0-.127-.076-.203-.227-.227zm5.902-.596c-.103 0-.178.075-.226.226 0 .147.089.236.268.267.127 0 .202-.09.226-.267 0-.127-.076-.202-.226-.226h-.021zm-2.366 0c-.103 0-.18.075-.227.226 0 .147.09.236.269.267.126 0 .2-.09.226-.267 0-.127-.076-.202-.226-.226h-.022zm-2.382 0c-.104 0-.18.075-.228.226 0 .147.09.236.268.267.127 0 .203-.09.227-.267 0-.127-.076-.202-.227-.226zm5.942-.001c-.102 0-.178.076-.226.227.04.178.13.267.268.267.152-.048.226-.124.226-.227v-.04c0-.127-.074-.202-.226-.227zm-.596 0c-.103 0-.18.076-.226.227 0 .147.088.236.267.267.15-.048.227-.124.227-.227v-.04c0-.127-.076-.202-.227-.227zm-1.194 0c-.103 0-.178.076-.227.227.04.178.13.267.268.267.152-.048.227-.124.227-.227v-.04c0-.127-.075-.202-.227-.227zm-.576 0c-.103 0-.18.076-.227.227.042.178.13.267.268.267.152-.048.227-.124.227-.227v-.04c0-.127-.075-.202-.227-.227zm-.598 0c-.103 0-.178.076-.225.227 0 .147.088.236.266.267.152-.048.227-.124.227-.227v-.04c0-.127-.075-.202-.227-.227zm-1.194 0c-.102 0-.178.076-.226.227.042.178.13.267.268.267.15-.048.227-.124.227-.227v-.04c0-.127-.076-.202-.227-.227zm-2.382 0c-.102 0-.178.076-.226.227.04.178.13.267.268.267.15-.048.227-.124.227-.227v-.04c0-.127-.077-.202-.227-.227zm-.597 0c-.102 0-.178.076-.225.227 0 .147.087.236.266.267.15-.048.227-.124.227-.227v-.04c0-.127-.076-.202-.227-.227zm7.137-.597c-.102 0-.178.075-.226.227.04.178.13.268.268.268.152-.05.226-.124.226-.227V.455c0-.127-.074-.203-.226-.227zm-.596 0c-.103 0-.18.075-.226.227.04.178.13.268.267.268.15-.05.227-.124.227-.227V.455c0-.127-.076-.203-.227-.227zm-.598 0c-.106 0-.182.076-.226.227 0 .137.083.226.247.267.145 0 .227-.09.247-.267 0-.127-.076-.203-.226-.227zm-.596 0c-.103 0-.178.075-.227.227.04.178.13.268.268.268.152-.05.227-.124.227-.227V.455c0-.127-.075-.203-.227-.227zm-.576 0c-.103 0-.18.075-.227.227.042.178.13.268.268.268.152-.05.227-.124.227-.227V.455c0-.127-.075-.203-.227-.227zm-.598 0c-.103 0-.178.075-.225.227.04.178.129.268.266.268.152-.05.227-.124.227-.227V.455c0-.127-.075-.203-.227-.227zm-.596 0c-.107 0-.182.076-.227.227 0 .137.084.226.247.267.145 0 .228-.09.248-.267 0-.127-.076-.203-.226-.227zm-.598 0c-.102 0-.178.075-.226.227.042.178.13.268.268.268.15-.05.227-.124.227-.227V.455c0-.127-.076-.203-.227-.227zm-1.784 0c-.107 0-.183.076-.228.227 0 .137.083.226.247.267.145 0 .227-.09.248-.267 0-.127-.076-.203-.227-.227zm-.598 0c-.102 0-.178.075-.226.227.04.178.13.268.268.268.15-.05.227-.124.227-.227V.455c0-.127-.077-.203-.227-.227zm-.56-.008a.247.247 0 1 0 0 .494.247.247 0 0 0 0-.494zM12.288 0c-1.224 0-1.906.785-2.061 1.108v-.89H8.642v7.07h1.687V3.465c0-.412.064-.85.27-1.223.207-.361.593-.657 1.21-.657.606.013.954.283 1.16.657.18.36.219.76.219 1.172V7.29h1.687V3.413c0-.425.026-.8.245-1.185s.63-.644 1.223-.644.927.232 1.108.58c.245.373.283.862.283 1.313v3.812h1.687V3.413c0-1.455-.13-2.035-.773-2.705C18.108.154 17.36 0 16.768 0c-.747 0-1.365.283-1.803.695a2.95 2.95 0 0 0-.515.67 3.27 3.27 0 0 0-.425-.644C13.51.168 12.865 0 12.287 0zM3.594 0C1.61 0 0 1.52 0 3.748c0 1.996 1.327 3.76 3.594 3.76.99 0 1.93-.412 2.382-1.236v1.017h1.687V.219H5.976v1.03C5.666.683 4.88-.001 3.594-.001z" fill="#46555f" mask="url(#a)" transform="translate(4 14)"/></g></svg>