<svg height="36" viewBox="0 0 36 36" width="36" xmlns="http://www.w3.org/2000/svg"><mask id="a" fill="#fff"><path d="M0 0h28v5.996H0z" fill-rule="evenodd"/></mask><mask id="b" fill="#fff"><path d="M0 10.658h28V0H0z" fill-rule="evenodd"/></mask><g fill="none" fill-rule="evenodd"><path d="M18 0c2.837 0 5.52.656 7.907 1.825C31.884 4.753 36 10.895 36 18c0 9.942-8.058 18-18 18-9.94 0-18-8.057-18-18C0 8.06 8.06 0 18 0z" fill="#f2f4f7" fill-rule="nonzero"/><path d="M24.102 2.63a1.543 1.543 0 0 1 .555.088L24.65 4.62a.721.721 0 0 1-.316.222c-.448.184-1.021-.023-1.141-.79a1.512 1.512 0 0 1 .062-.805.93.93 0 0 1 .846-.617zM2.91 1.863l.69 1.811H2.22zM26.6 5.904h1.29V1.655H26.6zM13.01 1.656v2.512c0 .471.085.987.409 1.347s.845.505 1.326.471a1.673 1.673 0 0 0 1.018-.445l.055.364h1.185V1.658l.004-.002H15.71v2.943c-.106.08-.22.151-.338.211a1.014 1.014 0 0 1-.727.043c-.296-.113-.336-.593-.336-.796V1.656zm-2.164-.1a2.743 2.743 0 0 0-1.402.44c-.287-.297-.992-.567-1.572-.364-.235.076-.45.202-.631.371l-.045-.347H6.005v4.247h1.298v-2.94c.102-.096.217-.177.343-.238.145-.071.504-.198.764.021.197.169.209.567.209.679v2.477h1.284V3.358a2.96 2.96 0 0 0-.042-.461c.12-.078.248-.143.38-.198.298-.131.633-.066.744.011.238.166.262.542.262.713v2.478h1.284V3.378c0-.465-.065-1.049-.482-1.427-.417-.377-1.067-.395-1.202-.395zm9.139 0a1.71 1.71 0 0 0-.542.078 1.67 1.67 0 0 0-.63.371l-.052-.348h-1.186v4.247h1.298V2.975c.108-.095.226-.178.352-.248a.785.785 0 0 1 .734-.018c.228.127.332.426.332.79v2.409h1.298V3.41c0-.915-.335-1.322-.536-1.497-.302-.265-.713-.357-1.068-.357zM24.65.098v1.543a2.526 2.526 0 0 0-.642-.085c-.832 0-1.283.395-1.481.584a2.257 2.257 0 0 0-.63 1.57c-.006 1.395.756 1.948 1.136 2.122.255.12.535.175.817.162.317-.022.619-.143.864-.346l.038.257h1.185V.098zm-22.234 0L0 5.904h1.368l.473-1.129h2.146l.473 1.129h1.367L3.405.098zM27.246 0c-.473 0-.753.33-.753.691 0 .36.255.691.753.691.499 0 .754-.328.754-.691C28 .332 27.719 0 27.246 0z" fill="#0c1c49" mask="url(#a)" transform="translate(4 13)"/><path d="M.051 8.092h27.841V6.998H.051z" fill="#0c1c49" mask="url(#b)" transform="translate(4 13)"/><path d="m18.542 9.643.155.437h-.31zm-3.066 0 .155.437h-.31zm-8.863 0 .155.437h-.31zm20.091-.458v.33h.401v1.105h.39V9.514h.394v-.329zm-1.427 0v1.435l.377.001v-.81l.508.81h.35V9.185h-.378v.76l-.467-.76zm-1.309 0v1.435h1.068v-.33h-.682v-.235h.518v-.304h-.518v-.237h.637v-.329zm-1.808 0v1.435l.377.001v-.706l.297.714h.153l.286-.71v.702h.373V9.185h-.396l-.337.854-.358-.854zm-1.308 0v1.435h1.068v-.33h-.682v-.235h.52v-.304h-.52v-.237h.637v-.329zm-2.482 0-.558 1.435.392.002.1-.247h.481l.093.247h.413l-.562-1.437zm-1.969 0v1.435l.377.001v-.81l.507.81h.351V9.185h-.378v.76l-.467-.76zm-1.097 0-.557 1.435.392.002.1-.247h.48l.093.247h.413l-.56-1.437zm-2.22 0v1.435l.37.001v-.706l.296.714h.157l.287-.71v.702h.372V9.185h-.395l-.334.854-.357-.854zm-1.81 0v.33h.401v1.105h.388V9.514h.395v-.329zm-1.18 0v1.435h1.066v-.33h-.68v-.235h.517v-.304h-.518v-.237h.637v-.329zm-3.653 0-.557 1.435.391.002.1-.247h.48l.094.247h.412l-.56-1.437zm13.537-.024-.079.005a.61.61 0 0 0-.478.334.953.953 0 0 0-.086.473.794.794 0 0 0 .143.438c.153.201.378.26.632.245a1.57 1.57 0 0 0 .465-.088v-.733h-.565v.285l.002.005h.204v.21a.57.57 0 0 1-.269-.009c-.06-.026-.24-.115-.216-.48a.434.434 0 0 1 .114-.297.235.235 0 0 1 .305-.02c.04.034.07.077.092.126l.321-.164a.67.67 0 0 0-.084-.138c-.12-.148-.315-.199-.5-.192zm-10.67-.006a.843.843 0 0 0-.142.013c-.19.03-.377.144-.413.347a.39.39 0 0 0 .121.371c.115.08.244.14.381.171a.758.758 0 0 1 .17.07.117.117 0 0 1 .047.153c-.029.053-.108.065-.162.065a.366.366 0 0 1-.197-.047.42.42 0 0 1-.126-.103l-.258.2c.061.076.14.14.228.181.323.16.913.068.906-.38a.403.403 0 0 0-.17-.338 1.469 1.469 0 0 0-.395-.157.347.347 0 0 1-.159-.088.1.1 0 0 1 .023-.138l.011-.006a.286.286 0 0 1 .19-.018.333.333 0 0 1 .172.1.44.44 0 0 1 .043.052l.257-.197a.503.503 0 0 0-.076-.09.71.71 0 0 0-.45-.16zm-1.257 0a.83.83 0 0 0-.14.013c-.193.03-.379.144-.414.347a.391.391 0 0 0 .12.371c.115.08.245.14.382.171a.732.732 0 0 1 .17.07.117.117 0 0 1 .047.153c-.028.052-.108.065-.162.065a.372.372 0 0 1-.198-.047.441.441 0 0 1-.125-.103l-.258.2a.63.63 0 0 0 .227.182c.323.16.913.068.907-.38a.405.405 0 0 0-.17-.338 1.519 1.519 0 0 0-.395-.158.345.345 0 0 1-.16-.087.1.1 0 0 1 .024-.138l.011-.006a.29.29 0 0 1 .188-.018.33.33 0 0 1 .173.1.356.356 0 0 1 .043.052l.26-.197a.527.527 0 0 0-.079-.09.705.705 0 0 0-.45-.162z" fill="#009fe3" mask="url(#b)" transform="translate(4 13)"/></g></svg>