<svg xmlns="http://www.w3.org/2000/svg" width="36" height="36" fill="none"><path fill="#F2F4F7" d="M18 0a18 18 0 1 1 0 36 18 18 0 0 1 0-36z"/><path fill="#29407B" d="M21.88 21.1v.86h-.71v-.73c0-.14-.04-.25-.12-.3l-.06-.02h-.17l-.18.01-.06.05c-.05.01-.08.1-.11.23v.76h-.69v-.73c0-.14-.03-.25-.1-.3l-.06-.02h-.17a.73.73 0 0 0-.27.04c-.05.03-.1.1-.1.24v.77h-.68v-1.2h.68v.05c.1-.01.15-.02.17-.05h.37c.24 0 .45 0 .55.03a.3.3 0 0 1 .16.05c.02 0 .04 0 .06.03l.09-.05a1.54 1.54 0 0 1 .17-.03 3.51 3.51 0 0 1 .91 0c.07.01.11.03.16.05.09.04.13.13.16.25zm2.66.53a.27.27 0 0 1-.14.15.91.91 0 0 1-.2.04c-.1.02-.2.02-.31.02l-.33-.03a.43.43 0 0 1-.2-.03c-.06-.02-.1-.07-.13-.18a.57.57 0 0 1-.06-.26c0-.21.06-.33.14-.37a.8.8 0 0 1 .22-.05l.37-.01.33.01.2.05c.1.04.13.16.13.37l-.02.3zm.7-.6a.51.51 0 0 0-.1-.2l-.44-.04a12.27 12.27 0 0 0-.82-.03 12.3 12.3 0 0 0-1.27.08c-.03 0-.07.08-.1.19-.04.1-.04.2-.04.34 0 .13.02.26.03.35.04.1.09.18.15.19l.45.03.82.02.76-.02c.23 0 .37 0 .41-.03.07-.01.11-.07.14-.19.02-.09.04-.22.04-.34a1.82 1.82 0 0 0-.04-.34zm.27-.27h.69l1.3 1.02 1.25-1.02h.32l-1.43 1.2h-.66l-1.47-1.2zm3.78 0h.72v1.2h-.72v-1.2zm1.28-.3h.7v1.5h-.7v-1.5zm-5.57-.3h-.85l-.5.28h.83l.52-.28zM6.1 18.31v.36c-.02.04-.05.08-.14.09-.08.04-.3.06-.63.06h-.27l-.22-.05c-.08-.05-.13-.1-.13-.16 0-.08.04-.16.12-.21.05-.04.21-.05.48-.06h.62l.17-.03zm.7.66v-1.1c0-.02-.13-.05-.36-.06a6.74 6.74 0 0 0-1.02-.04h-.49c-.4.04-.68.04-.93.1v.27h.71a.18.18 0 0 1 .06-.19.58.58 0 0 1 .27-.04c.08-.03.24-.03.44-.03.3 0 .51.03.58.06.05.02.08.05.08.1 0 .06-.04.1-.13.13a2.96 2.96 0 0 1-.48.04H4.49c-.18.02-.32.04-.36.07-.1.06-.13.18-.13.4 0 .12.06.19.13.22.13.04.52.06 1.17.07.3 0 .48-.03.59-.03l.21-.06v.09h.7zm4.05-.88v.88h-.7v-.72c0-.16-.03-.25-.12-.3-.03-.03-.05-.03-.07-.03l-.16-.01h-.2c0 .03-.02.04-.04.05-.06.03-.1.11-.11.25v.76h-.68v-.73c0-.15-.04-.24-.11-.3l-.07-.02-.16-.01c-.13 0-.2 0-.28.05-.04.03-.08.11-.1.25v.76h-.68v-1.2h.68v.05c.1-.01.16-.04.18-.04l.36-.02.55.02c.05.03.1.04.17.06l.05.05.1-.07.17-.04.37-.01h.55c.05.04.1.05.15.08.08.04.14.12.15.24zm1.66-.17.37-.01.33.03c.1.01.16.01.2.03.06.03.1.07.1.16.02 0 .02.05 0 .15h-1.36c0-.17.05-.28.14-.3.03-.03.12-.04.22-.05zm1.27.86a4.6 4.6 0 0 1-.9.06l-.35-.01-.2-.05c-.1-.03-.16-.16-.18-.35h2.06c0-.36-.04-.54-.1-.58a4.25 4.25 0 0 0-.42-.06c-.29-.02-.56-.02-.83-.02-.29 0-.57 0-.84.02-.25.02-.4.03-.43.05a.38.38 0 0 0-.1.2c-.03.1-.03.21-.03.32 0 .17 0 .26.03.37.02.1.08.16.12.18.07.02.19.02.46.03.26.03.56.03.82.03.57 0 .9-.03.99-.04l.22-.06c.07-.03.1-.07.1-.09v-.22c0 .1-.14.17-.42.22zm3.09-.62c.02-.06-.04-.13-.12-.19-.03 0-.1-.03-.22-.03a2.17 2.17 0 0 0-.7 0l-.18.03c-.07.04-.11.1-.14.24v.76h-.7v-1.2h.7v.05a4.28 4.28 0 0 1 .7-.05c.26 0 .54 0 .8.02l.44.05c.07.05.13.17.14.32h-.72zm1.3-.49h.7v-.2h-.7v.2zm0 1.3h.7v-1.2h-.7v1.2zm3.36-.8c0-.1 0-.14-.03-.16-.02-.01-.06-.01-.1-.04l-.2-.02a1.52 1.52 0 0 0-.33-.03h-.37l-.22.05c-.08.04-.13.17-.13.38l.03.28a.23.23 0 0 0 .15.15l.18.05h.66l.18-.04.14-.04c0-.03.04-.1.04-.19h.69a.89.89 0 0 1-.03.27c-.02.04-.07.07-.12.1-.04 0-.18.02-.4.02-.25.02-.5.02-.8.02-.27 0-.54 0-.81-.02-.26-.01-.4-.01-.44-.04-.06 0-.1-.07-.14-.18-.03-.1-.03-.2-.03-.36 0-.12 0-.23.03-.33a.3.3 0 0 1 .1-.2l.44-.05.81-.01h.84c.26.04.4.06.43.08a.18.18 0 0 1 .1.1c.02.01.02.1.02.2h-.7zm3.36.15v.36a.14.14 0 0 1-.12.09c-.1.04-.32.06-.66.06h-.26l-.22-.05c-.09-.05-.13-.1-.13-.17s.04-.15.1-.2c.07-.04.23-.05.5-.06h.62l.17-.03zm.69.65v-1.08c0-.03-.13-.06-.37-.07a6.42 6.42 0 0 0-1-.04h-.5c-.39.04-.69.05-.91.1v.26h.7a.18.18 0 0 1 .08-.18c.03-.03.12-.04.25-.04.09-.03.23-.03.44-.03.3 0 .5.03.58.06.05.02.07.05.06.1 0 .06-.02.1-.1.13-.08.01-.23.04-.48.04h-1.05c-.18.03-.3.04-.37.07-.08.06-.12.18-.12.4 0 .12.05.19.12.22.14.04.51.06 1.17.06l.6-.02.2-.07v.09h.7zm-11.6-1.78h-.85l-.5.29h.84l.5-.3z"/><path fill="#D9E15A" d="m29.01 19.29-.04.12c.03.06.03.1.01.15-.01.02-.02.05-.06.05l.04-.1c.02-.02.06-.05.07-.09.02-.04 0-.08-.02-.14z"/><path fill="#CEDC62" d="m28.97 19.21-.03.12a.56.56 0 0 1 .04.08l.03-.12c0-.03-.03-.05-.04-.08zm-.09.34-.02.1c.02 0 .04-.03.06-.04l.04-.1a.18.18 0 0 0-.08.04z"/><path fill="#C6D66A" d="m28.92 19.17-.03.12a.12.12 0 0 1 .05.05l.04-.12-.06-.05zm-.1.39-.02.09h.06l.02-.12c0 .02-.03.02-.05.03z"/><path fill="#BCCE6F" d="m28.88 19.12-.03.1c0 .03.03.04.04.07l.03-.12-.04-.05zm-.12.45-.04.09.08-.01.03-.09h-.07z"/><path fill="#B6C873" d="m28.83 19.08-.03.11c.03.01.04.02.05.05l.03-.11-.05-.05zm-.13.49-.03.09h.08l.01-.1h-.06z"/><path fill="#AFC177" d="m28.77 19.05-.02.09.05.05.03-.1-.07-.04zm-.12.52-.03.09h.05l.03-.1h-.05z"/><path fill="#A6B87B" d="m28.74 19.02-.03.1c.01 0 .04.01.06.04l.02-.1-.05-.04zm-.16.55v.08l.04.01.03-.1h-.07z"/><path fill="#A0B17E" d="M28.67 19v.07l.04.04.03-.09-.07-.03zm-.14.56-.02.08.06.01.01-.08-.05-.01z"/><path fill="#9AAC81" d="m28.63 18.96-.01.08.04.03.03-.08c-.03 0-.04-.01-.06-.03zm-.16.6-.02.06c.02.02.04.02.07.02l.02-.08h-.07z"/><path fill="#92A884" d="m28.57 18.94-.01.05c.01.03.04.04.06.05v-.08l-.05-.02zm-.15.61-.02.06.04.01.03-.06-.05-.01z"/><path fill="#8CA485" d="m28.53 18.91-.02.07.05.02.02-.06-.05-.03zm-.16.62-.02.08h.05l.02-.06-.05-.02z"/><path fill="#849D88" d="M28.47 18.9v.04l.04.04.02-.07a.12.12 0 0 0-.06-.02zm-.17.62-.02.06c.02.02.05.02.06.02l.03-.07h-.07z"/><path fill="#7F998A" d="m28.43 18.86-.01.05c0 .02.02.03.04.04l.01-.06s-.03 0-.04-.03zm-.19.65-.01.06h.06l.01.03v-.08h-.05z"/><path fill="#7A9289" d="m28.37 18.85-.02.04.07.02v-.04l-.04-.02zm-.17.65-.02.05c.03 0 .04 0 .05.02l.02-.06h-.05z"/><path fill="#738E8B" d="M28.3 18.84v.03l.07.02.01-.04-.07-.01zm-.15.64-.01.05.04.02.02-.05-.05-.02z"/><path fill="#6E898D" d="M28.26 18.81v.04l.05.01v-.02l-.05-.03zm-.18.65v.04l.06.03.01-.05-.07-.02z"/><path fill="#69848C" d="m28.22 18.8-.01.02.04.03.01-.04h-.04zm-.19.64v.05l.05.02.01-.04-.03-.01-.02-.02z"/><path fill="#64818D" d="M28.15 18.8h-.01l.07.02v-.02h-.06zm-.17.62v.04l.05.03v-.05c-.01 0-.03 0-.05-.02z"/><path fill="#607E8D" d="M28.09 18.77c.03.02.04.03.07.03l-.07-.03zm-.16.64v.02c.01.01.02.03.05.03l.01-.03-.06-.03z"/><path fill="#5B798B" d="m28.04 18.76.05.01-.05-.01zm-.16.63h-.02l.07.04v-.03l-.05-.01z"/><path fill="#56758C" d="M27.99 18.75c.03 0 .04 0 .05.02v-.01l-.05-.01zm-.17.6v.03l.06.02v-.01l-.06-.03z"/><path fill="#52728B" d="M27.93 18.73c.01.02.04.02.06.03v-.01l-.06-.02zm-.16.61.05.04v-.02l-.05-.02z"/><path fill="#4F6D8B" d="M27.88 18.72h.06v.03l-.06-.03zm-.16.6.05.02c-.01 0-.04-.01-.05-.03z"/><path fill="#4A6989" d="M27.82 18.71v.01h.06l-.06-.01zm-.15.56v.01l.05.03a.23.23 0 0 1-.05-.04z"/><path fill="#456589" d="M27.77 18.71v.01h.05v-.01h-.05zm-.15.53v.02a.28.28 0 0 0 .06.04v-.01a.24.24 0 0 0-.06-.05z"/><path fill="#3E6289" d="M27.7 18.7v.02h.07v-.01h-.06zm-.12.5-.01.02a.12.12 0 0 0 .05.04v-.02c0-.02-.03-.03-.04-.04z"/><path fill="#39608A" d="M27.64 18.7v.02h.07v-.02h-.07zm-.1.46-.02.03.06.03v-.02l-.05-.04z"/><path fill="#325C87" d="m27.6 18.7-.01.02h.05v-.02h-.04zm-.12.41-.02.03a.45.45 0 0 1 .06.05l.01-.03-.05-.05z"/><path fill="#2B5887" d="M27.54 18.7v.03l.05-.01v-.02h-.05zm-.1.37v.04l.04.05v-.04c0-.03-.03-.04-.04-.05z"/><path fill="#265486" d="m27.48 18.71-.02.04.07-.02.01-.04-.06.02zm-.08.3-.01.06.04.04.01-.04c0-.02-.04-.04-.04-.07z"/><path fill="#1E4F86" d="M27.4 18.73v.04l.08-.02v-.04l-.07.02zm-.04.2-.03.07.06.07.01-.05a.85.85 0 0 1-.04-.08z"/><path fill="#184B84" d="m27.32 18.85-.02.05c0 .04.01.08.03.1l.03-.06c-.03-.05-.04-.1-.01-.14.01-.03.04-.04.06-.07v.04c-.05.02-.08.04-.09.08z"/><path fill="#B7D483" d="m29.72 19.3-.06.22c.02.08.02.13-.01.19 0 .02-.04.04-.06.07l.05-.18a.35.35 0 0 0 .08-.09l.02-.09c0-.04 0-.08-.02-.13z"/><path fill="#B1D384" d="m29.69 19.22-.06.22.02.06.06-.22-.02-.06zm-.1.4-.07.2a.51.51 0 0 1 .07-.03l.04-.19a.15.15 0 0 1-.04.02z"/><path fill="#ADD087" d="m29.64 19.16-.05.2.04.07.05-.22-.04-.05zm-.13.5-.05.18a.17.17 0 0 0 .06-.02l.05-.18-.06.02z"/><path fill="#ABCD8A" d="m29.6 19.1-.06.2a.24.24 0 0 0 .05.05l.05-.2c0-.02-.04-.03-.04-.05zm-.17.59-.04.18.06-.02.06-.2-.08.04z"/><path fill="#A5C78A" d="m29.55 19.05-.05.2.04.04.06-.19-.05-.05zm-.17.65-.05.18.06-.01.04-.18h-.05z"/><path fill="#A2C58E" d="m29.51 19.02-.05.18c.02.01.03.02.04.05l.05-.2-.04-.03zm-.19.69-.04.17h.05l.05-.18h-.06z"/><path fill="#9FC290" d="m29.47 18.98-.05.18.04.03.04-.19-.03-.02zm-.2.73-.05.18.06-.01.04-.17h-.05z"/><path fill="#9BBE91" d="m29.41 18.93-.04.17a.1.1 0 0 1 .04.05l.05-.17-.05-.05zm-.2.78-.05.18h.06l.05-.19-.07.01z"/><path fill="#9BBC90" d="m29.37 18.9-.05.15c.01.03.04.03.05.05l.04-.17c0-.02-.03-.03-.04-.04zm-.22.81-.05.17h.05l.04-.17h-.04z"/><path fill="#96B991" d="m29.32 18.86-.04.16.04.03.05-.16-.05-.03zm-.23.85-.04.17h.05l.05-.17h-.06z"/><path fill="#91B493" d="m29.28 18.84-.05.14.05.04.04-.15-.04-.03zm-.25.87-.05.17h.07l.04-.17h-.06z"/><path fill="#8FB192" d="m29.23 18.8-.04.15.04.03.05-.14-.05-.04zm-.26.91-.03.16h.04l.05-.16h-.06z"/><path fill="#8CAE93" d="m29.18 18.77-.04.13.04.04.04-.15c-.03 0-.03-.02-.04-.02zm-.26.94-.04.14c.02.02.04.02.06.02l.03-.16h-.05z"/><path fill="#89AB93" d="m29.12 18.75-.03.11a.12.12 0 0 0 .03.04l.04-.14-.04-.01zm-.26.95-.05.14.06.01.03-.15h-.04z"/><path fill="#85A996" d="m29.08 18.71-.05.13c.03 0 .04.02.06.03l.03-.12a.18.18 0 0 0-.04-.04zm-.28.99-.03.13v.01h.04l.05-.13-.06-.01z"/><path fill="#84A595" d="m29.02 18.68-.02.13.03.03.04-.13-.05-.03zm-.26 1.02-.04.13h.05l.03-.13h-.04z"/><path fill="#7FA495" d="m28.98 18.66-.04.11.06.04.02-.13-.04-.01zm-.28 1.03-.04.12.06.02.04-.13-.06-.01z"/><path fill="#7DA097" d="m28.92 18.64-.04.1a.1.1 0 0 1 .05.03l.04-.1a.15.15 0 0 0-.05-.03zm-.27 1.05-.03.1c0 .02.03.02.04.02l.04-.12h-.05z"/><path fill="#7B9E96" d="m28.86 18.62-.02.1s.03 0 .04.03l.04-.12-.06-.01zm-.26 1.05-.04.12h.04l.03-.12h-.03z"/><path fill="#799B96" d="m28.82 18.6-.03.08c.01.02.04.03.05.03l.03-.09c-.02-.01-.03-.03-.05-.03zm-.3 1.06-.03.1.07.03.02-.12-.05-.01z"/><path fill="#749798" d="m28.77 18.57-.02.1.04.01.03-.09-.06-.02zm-.29 1.08-.04.1.05.01.04-.1-.05-.01z"/><path fill="#739598" d="m28.72 18.55-.02.09c.01.02.04.02.05.02l.01-.09-.04-.02zm-.3 1.1-.02.08.04.02.04-.1h-.05z"/><path fill="#709398" d="m28.66 18.53-.01.08.04.02.02-.08-.06-.02zm-.28 1.1-.03.08c.02.02.03.02.05.02l.03-.09c-.01-.02-.04-.02-.05-.02z"/><path fill="#6C9096" d="m28.61 18.5-.03.08c.03.01.04.01.05.03l.03-.08a.13.13 0 0 1-.05-.03zm-.28 1.11-.03.09.04.01.03-.1h-.04z"/><path fill="#698D97" d="m28.56 18.5-.02.06.04.02.03-.08h-.05zm-.3 1.1-.01.07c0 .02.02.02.04.03l.02-.1h-.05z"/><path fill="#688D98" d="m28.51 18.46-.02.08c.02 0 .04 0 .05.02l.02-.07c-.02 0-.03 0-.05-.03zm-.3 1.12-.03.08h.07l.01-.06-.05-.02z"/><path fill="#648996" d="m28.46 18.45-.02.06.04.03h.01l.02-.08h-.05zm-.3 1.1-.02.1a.07.07 0 0 1 .04.01l.03-.08-.05-.02z"/><path fill="#618696" d="m28.42 18.45-.02.04.04.02v-.06h-.02zm-.31 1.1-.02.06c.02.01.04.01.05.03l.02-.08-.05-.01z"/><path fill="#608394" d="M28.34 18.42v.04l.04.03.01-.05s-.02-.02-.05-.02zm-.28 1.11-.03.07.06.01.02-.06c-.02 0-.02-.02-.03-.02h-.02z"/><path fill="#5D8195" d="m28.3 18.4-.01.05.05.01v-.04l-.04-.01zm-.3 1.11-.02.06h.05l.01-.05H28z"/><path fill="#5B7F92" d="m28.25 18.39-.01.03c.01.02.02.02.05.02l.01-.03-.06-.02zm-.3 1.1-.02.06a.07.07 0 0 1 .05.02l.02-.06-.06-.02z"/><path fill="#597E94" d="m28.2 18.37-.01.04h.04l.01-.02s-.03 0-.04-.02zm-.3 1.1-.01.04c0 .01.04.02.04.04l.01-.06-.04-.01z"/><path fill="#577C93" d="M28.14 18.36v.03l.03.01v-.03h-.03zm-.29 1.09v.04c0 .01.01.02.04.02v-.03l-.04-.03z"/><path fill="#547891" d="M28.08 18.35v.01a.14.14 0 0 0 .04.01c0-.02-.02-.02-.04-.02zm-.28 1.08-.02.04.06.02v-.04l-.04-.02z"/><path fill="#527692" d="M28.03 18.34v.01l.04.01h.01c-.02-.02-.04-.02-.05-.02zm-.3 1.06v.03l.04.04v-.04s-.02 0-.04-.03z"/><path fill="#4F7491" d="M27.98 18.33c.01.02.04.02.05.02-.01-.02-.04-.02-.05-.02zm-.3 1.06v.01c0 .02.04.03.04.03l.01-.03-.05-.01z"/><path fill="#4F7292" d="M27.93 18.32h.05-.06zm-.29 1.04v.03l.04.01v-.01l-.04-.03z"/><path fill="#4D7192" d="m27.88 18.3.04.02-.04-.01zm-.3 1.04.05.05.01-.03-.05-.02z"/><path fill="#4A6E90" d="M27.8 18.28v.02h.05l-.04-.02zm-.26 1.03v.02l.05.02v-.01c-.01 0-.04 0-.05-.03z"/><path fill="#486D90" d="M27.76 18.27v.03h.05v-.02h-.05zm-.27 1.01v.01l.04.02a.1.1 0 0 1-.04-.02z"/><path fill="#436A8E" d="M27.7 18.26v.02c.02 0 .03 0 .05.02l.01-.03h-.05zm-.26 1c.01 0 .02.03.05.03l-.05-.03z"/><path fill="#43678B" d="m27.66 18.25-.02.03h.07v-.02h-.05zm-.26.97-.02.02c.03 0 .03.02.05.02h.01c-.03-.01-.03-.02-.04-.04z"/><path fill="#3E668D" d="M27.6 18.23v.04l.04.01.02-.03c-.03 0-.04 0-.06-.02zm-.25.96-.02.02c.03.01.04.01.05.03l.02-.02c-.03 0-.04-.02-.05-.03z"/><path fill="#3D648C" d="M27.53 18.23v.04h.05v-.04h-.05zm-.23.93-.01.02.04.03v-.02a.18.18 0 0 0-.02-.03z"/><path fill="#3B618A" d="m27.49 18.23-.01.04h.04l.01-.03-.04-.01zm-.23.9-.02.03c.02 0 .03 0 .04.02v-.04l-.02-.02z"/><path fill="#35618A" d="m27.43 18.22-.02.05h.07v-.04l-.05-.01zm-.24.85v.04l.04.03.01-.03c0-.02-.03-.03-.04-.04z"/><path fill="#335E8A" d="m27.37 18.22-.01.05h.05l.02-.05h-.06zm-.22.81-.01.05c.01.01.04.01.05.03v-.04l-.04-.04z"/><path fill="#305D8B" d="M27.32 18.22v.05h.04v-.05h-.04zm-.22.77v.06c0 .02.03.02.04.03l.01-.05c-.01-.01-.02-.03-.05-.04z"/><path fill="#2D5A89" d="m27.26 18.22-.02.05h.06l.01-.05h-.05zm-.2.73-.01.05c0 .02.03.03.04.04l.01-.05a.1.1 0 0 0-.04-.04z"/><path fill="#2B5887" d="m27.2 18.22-.01.06h.04l.03-.06h-.07zm-.17.68-.03.07.04.03v-.06a.07.07 0 0 0 0-.04z"/><path fill="#285688" d="m27.14 18.23-.02.07c.02-.02.05-.02.06-.02l.01-.06h-.05zm-.17.62-.01.08.03.03.02-.07-.04-.04z"/><path fill="#235487" d="m27.09 18.24-.03.07.06-.01.02-.07h-.06zm-.15.54-.03.1.05.05v-.08a.22.22 0 0 1-.02-.07z"/><path fill="#205286" d="m27.03 18.25-.03.07.06-.01.03-.07-.06.01zm-.14.48-.02.1c0 .02.03.04.04.05l.03-.1a.1.1 0 0 1-.05-.05z"/><path fill="#1E4F86" d="m26.96 18.28-.01.07.04-.02.01-.07-.04.02zm-.1.38-.03.11.04.05.02-.1c-.02-.01-.02-.04-.03-.06z"/><path fill="#1A4C84" d="m26.88 18.34-.01.05a.27.27 0 0 1 .07-.04v-.07l-.06.06zm-.06.23-.04.12a.28.28 0 0 1 .04.08l.04-.12-.04-.08z"/><path fill="#184B84" d="M26.77 18.5v.05l.01.13.04-.13a.2.2 0 0 1 .03-.15l.02-.06v.06l-.1.1z"/><path fill="#80C0B6" d="m30.49 18.86-.1.35a.38.38 0 0 1-.02.21l-.04.07.07-.27a.25.25 0 0 0 .08-.1l.02-.1c.02-.04 0-.1-.01-.15z"/><path fill="#7DBFB5" d="m30.45 18.8-.08.31c.02.02.02.05.03.08l.09-.33-.04-.07zm-.12.48-.07.27.05-.04.06-.26-.04.04z"/><path fill="#7ABEB5" d="m30.42 18.72-.08.3a.17.17 0 0 1 .02.06l.1-.3-.04-.06zm-.17.61-.07.27c.02 0 .05-.02.06-.04l.08-.27-.07.04z"/><path fill="#78BCB4" d="m30.37 18.66-.07.29c.02.03.03.04.03.07l.1-.31c-.02 0-.03-.04-.06-.04zm-.18.69-.07.27a.15.15 0 0 1 .06-.02l.07-.27-.06.02z"/><path fill="#75BAB6" d="m30.34 18.61-.08.28.04.05.07-.28a.1.1 0 0 0-.03-.05zm-.2.77-.09.26.06-.02.07-.27c-.01.02-.04.02-.05.03z"/><path fill="#76B9B7" d="m30.28 18.55-.06.27c0 .03.02.04.03.06l.08-.29c-.01 0-.02-.03-.05-.04zm-.22.84-.06.26h.05l.07-.27h-.06z"/><path fill="#76B7B7" d="m30.25 18.5-.08.27.05.05.06-.27c0-.02-.02-.03-.03-.05zm-.24.91-.07.25.05-.01.06-.26s-.03 0-.04.02z"/><path fill="#74B7B6" d="m30.2 18.45-.07.27c.01 0 .02.04.04.04l.06-.26-.03-.05zm-.26.97-.07.25.05-.01.08-.25-.06.01z"/><path fill="#71B5B8" d="m30.15 18.43-.06.24.03.05.08-.27-.05-.02zm-.27 1-.07.24h.06l.07-.25h-.06z"/><path fill="#71B2B5" d="m30.1 18.39-.06.24c.01 0 .02.03.04.03l.06-.25c0-.01-.01-.02-.03-.02zm-.28 1.04-.05.24h.04l.07-.25-.06.01z"/><path fill="#71B1B6" d="m30.05 18.34-.05.24.03.04.07-.24c-.01-.02-.02-.03-.05-.03zm-.28 1.1-.07.23h.05l.07-.24h-.05z"/><path fill="#6FAEB6" d="m30 18.3-.05.24.04.03.06-.23c0-.02-.03-.03-.04-.04zm-.3 1.13-.06.24h.05l.07-.24h-.06z"/><path fill="#6FAEB6" d="m29.96 18.26-.05.23c0 .01.01.04.04.05l.06-.24-.05-.04zm-.32 1.18-.05.23h.05l.06-.24-.06.01z"/><path fill="#6FACB5" d="m29.91 18.23-.05.22c.01.02.02.03.05.04l.05-.23s-.04 0-.05-.03zm-.32 1.21-.07.22h.07l.05-.22h-.04z"/><path fill="#6CA8B2" d="m29.86 18.19-.06.22a.1.1 0 0 0 .05.04l.06-.22-.05-.04zm-.32 1.25-.06.22h.04l.07-.22h-.05z"/><path fill="#6BA6B1" d="m29.82 18.17-.06.21.04.03.06-.22a.1.1 0 0 0-.04-.02zm-.34 1.26-.06.22h.04l.05-.22h-.03z"/><path fill="#69A5B2" d="m29.77 18.14-.06.2.05.04.05-.22-.04-.02zm-.36 1.3-.05.2.05.01.06-.22h-.06z"/><path fill="#6AA4B1" d="m29.72 18.12-.05.19.04.02.06-.2a.1.1 0 0 0-.05-.01zm-.35 1.31-.06.21h.05l.05-.2h-.04z"/><path fill="#68A1AF" d="m29.68 18.08-.06.2c.01 0 .02 0 .03.02l.06-.2-.03-.02zm-.37 1.34-.06.2c.03 0 .04 0 .06.02l.05-.2c-.02 0-.03 0-.05-.02z"/><path fill="#67A1AE" d="m29.62 18.04-.06.19c.03 0 .04.02.05.03l.06-.18a.26.26 0 0 1-.05-.04zm-.37 1.38-.05.2h.05l.06-.2h-.06z"/><path fill="#67A0B0" d="m29.56 18.02-.05.17.05.04.05-.19-.05-.02zm-.38 1.4-.04.18.04.01.06-.19h-.06z"/><path fill="#649DAF" d="m29.51 18-.04.17.04.02.05-.17c-.01-.01-.02-.02-.05-.02zm-.37 1.41-.07.19h.07l.04-.19h-.04z"/><path fill="#629AAF" d="m29.47 17.96-.05.17.05.04.04-.17-.04-.04zm-.4 1.43-.04.19.04.01.07-.18-.06-.01z"/><path fill="#6299AE" d="m29.41 17.94-.04.16.04.03.05-.17c-.03 0-.04-.02-.05-.02zm-.38 1.45-.05.18h.05l.05-.17-.05-.01z"/><path fill="#5F98AF" d="m29.37 17.92-.05.14c.01.02.04.03.05.03l.03-.15-.03-.02zm-.4 1.47-.04.17h.04l.04-.17h-.04z"/><path fill="#5F97AE" d="m29.31 17.9-.03.14a.1.1 0 0 1 .04.02l.05-.14-.06-.02zm-.4 1.48-.05.15.06.02.05-.17h-.07z"/><path fill="#5E95AD" d="m29.27 17.87-.04.14.05.03.03-.14-.04-.03zm-.41 1.5-.05.15h.03l.02.01.04-.15-.04-.01z"/><path fill="#5C93AD" d="m29.22 17.85-.03.14.03.02.03-.15h-.03zm-.42 1.5-.04.15.05.02.05-.15-.06-.02z"/><path fill="#5C90AA" d="m29.15 17.82-.04.13.07.02.02-.14h-.05zm-.4 1.52-.04.15.06.01.03-.15-.04-.01z"/><path fill="#5B8FAA" d="m29.1 17.8-.03.12c.02 0 .03.02.04.03l.04-.12a.1.1 0 0 0-.05-.02zm-.4 1.53-.04.14s.03 0 .04.02l.04-.15h-.05z"/><path fill="#588EAA" d="m29.06 17.78-.04.12.05.02.03-.11c0-.02-.03-.02-.04-.03zm-.41 1.53-.05.15h.05l.04-.13-.04-.02z"/><path fill="#588CA8" d="m29.01 17.76-.04.11.05.03.04-.12-.05-.02zm-.43 1.54-.02.13.04.03.05-.15a.15.15 0 0 0-.07 0z"/><path fill="#548AA6" d="m28.96 17.74-.03.11.04.01.01-.1c0-.02-.01-.02-.02-.02zm-.42 1.56-.03.12.04.01.03-.13h-.04z"/><path fill="#5388A6" d="m28.9 17.72-.02.1.04.01.02-.1h-.05zm-.42 1.55-.04.12.04.02.04-.12c-.01 0-.03 0-.04-.02z"/><path fill="#5287A5" d="m28.84 17.7-.02.09.04.03.03-.1-.05-.02zm-.41 1.56-.04.12.05.01.03-.12-.04-.01z"/><path fill="#5287A5" d="m28.8 17.69-.03.08a.07.07 0 0 0 .05.02l.02-.1h-.05zm-.43 1.56-.03.1c.01 0 .03 0 .05.03l.04-.12-.06-.01z"/><path fill="#4F85A4" d="m28.75 17.66-.02.08c0 .02 0 .02.02.03l.03-.1h-.03zm-.42 1.56-.03.12.04.01.03-.1-.04-.03z"/><path fill="#4E82A1" d="m28.68 17.64-.02.08.05.02.02-.08c-.02 0-.03 0-.05-.02zm-.42 1.57-.02.1c.02 0 .04.02.05.03l.04-.12h-.07z"/><path fill="#4F81A2" d="m28.63 17.63-.02.07c.02 0 .04 0 .04.02l.03-.08h-.05zm-.41 1.57-.02.1h.04l.01-.09h-.03z"/><path fill="#4D7E9F" d="m28.58 17.6-.02.08c.01 0 .04 0 .05.02l.02-.07-.05-.02zm-.42 1.58-.03.09c.02 0 .03.02.05.03l.03-.1h-.03c0-.02-.02-.02-.02-.02z"/><path fill="#4D7E9F" d="m28.53 17.6-.01.06.04.02.02-.07-.05-.01zm-.42 1.56-.03.09c.03 0 .04 0 .05.02l.03-.1-.05-.01z"/><path fill="#4C7DA0" d="m28.48 17.59-.02.05.03.01.03-.05-.01-.01h-.03zm-.42 1.55-.03.08.03.02h.02l.03-.08-.05-.02z"/><path fill="#4A7BA0" d="m28.42 17.56-.02.06.04.01.02-.06h-.02l-.02-.01zM28 19.12l-.01.08.04.02.03-.08-.06-.02z"/><path fill="#497A9F" d="m28.37 17.55-.02.05.05.01.02-.05-.05-.01zm-.43 1.54-.01.08.04.02.02-.07c-.01 0-.04 0-.05-.03z"/><path fill="#47799E" d="M28.3 17.54v.03l.04.03.03-.05h-.06zm-.4 1.55-.02.05.05.03.01-.08h-.04z"/><path fill="#46769C" d="M28.26 17.52v.04l.04.01v-.03l-.01-.02h-.03zm-.42 1.55-.01.05.05.02.02-.05-.06-.02z"/><path fill="#43759B" d="m28.2 17.52-.01.02.04.01.01-.03h-.04zm-.4 1.52-.02.05c.02 0 .04.02.04.03l.02-.05-.04-.03z"/><path fill="#41749B" d="M28.15 17.5v.02l.04.02v-.03l-.04-.01zm-.4 1.53-.02.04.04.01v-.04l-.02-.01z"/><path fill="#417299" d="M28.1 17.48v.03l.04.01.01-.02c-.02 0-.03 0-.05-.02zm-.42 1.51-.01.05c.02 0 .04 0 .05.03l.01-.05c-.02 0-.02-.02-.05-.03z"/><path fill="#42709A" d="m28.05 17.47-.01.03h.06v-.02l-.05-.01zm-.42 1.51V19l.04.04v-.05h-.04z"/><path fill="#3F6F97" d="M27.99 17.46c0 .02.03.02.04.02v-.01l-.04-.01zm-.4 1.5-.01.02.04.02.01-.02-.04-.02z"/><path fill="#3F6D96" d="M27.93 17.45v.01h.05-.06zm-.39 1.49c0 .02.03.03.04.04v-.02a.14.14 0 0 0-.04-.02z"/><path fill="#3C6E97" d="M27.88 17.43v.02a.1.1 0 0 1 .04 0c-.01 0-.03 0-.04-.02zm-.4 1.47v.01c0 .02.02.03.04.04v-.02l-.04-.03z"/><path fill="#3C6B96" d="M27.83 17.43h-.01.06v.02l-.05-.02zm-.4 1.45v.01l.05.02a.07.07 0 0 1-.05-.03z"/><path fill="#386A94" d="M27.77 17.41v.01l.05.01h.01l-.06-.02zm-.38 1.45.04.03c-.02 0-.03-.03-.04-.03z"/><path fill="#386993" d="M27.7 17.4v.01l.05.01h.01c-.03 0-.04-.02-.05-.02zm-.37 1.42v.02l.06.02-.06-.04z"/><path fill="#356894" d="m27.66 17.39-.02.02h.07l-.05-.02zm-.37 1.41-.01.01.03.01h.01c0-.01-.01-.02-.03-.02z"/><path fill="#326693" d="M27.6 17.38v.02l.04.01.02-.02-.06-.01zm-.37 1.38v.01c0 .02.03.02.04.03-.01-.03-.03-.03-.04-.04z"/><path fill="#326492" d="M27.55 17.37v.03h.05v-.02l-.05-.01zm-.36 1.35-.01.04a.07.07 0 0 1 .04.01l.01-.01-.04-.04z"/><path fill="#2E6492" d="m27.5 17.37-.01.02.04.01v-.03h-.03zm-.36 1.31v.04a.1.1 0 0 0 .04.02v-.02l-.04-.04z"/><path fill="#2F6291" d="M27.43 17.36v.03h.05v-.03h-.05zm-.34 1.29v.03l.04.04.01-.04c-.02 0-.04-.02-.05-.03z"/><path fill="#2D6290" d="m27.39 17.34-.02.05h.04l.02-.03-.04-.02zm-.34 1.28-.01.04.04.02v-.03l-.03-.03z"/><path fill="#2D608E" d="M27.32 17.34v.05h.05l.02-.05h-.07zM27 18.57v.06l.04.02.01-.05-.05-.03z"/><path fill="#2A608F" d="m27.28 17.33-.02.06h.05l.01-.05h-.04zm-.33 1.2-.01.06.04.04.01-.06c0-.02-.03-.02-.04-.03z"/><path fill="#2A5D8E" d="M27.22 17.33v.06h.03v-.06h-.03zm-.32 1.17v.05a.12.12 0 0 0 .02.04l.03-.05-.05-.04z"/><path fill="#265D8E" d="m27.16 17.32-.03.07h.06l.01-.06h-.04zm-.3 1.14-.03.07c.02 0 .03 0 .04.02l.02-.06-.03-.03z"/><path fill="#275B8B" d="m27.1 17.32-.02.07h.05l.03-.07h-.07zm-.29 1.09-.03.07.05.03.02-.07c-.02 0-.03-.02-.04-.03z"/><path fill="#24598B" d="m27.05 17.32-.02.09c.01-.02.03-.02.05-.02l.01-.07h-.04zm-.28 1.04-.03.09.04.03.03-.07c-.03-.02-.03-.04-.04-.05zm.22-1.04-.02.09H27l.03-.09H27zm-.27 1-.03.09.05.04v-.09a.19.19 0 0 0-.02-.04z"/><path fill="#23578A" d="m26.92 17.33-.02.08h.06v-.08h-.04zm-.25.94-.02.1.04.04.03-.1a7.37 7.37 0 0 1-.04-.04z"/><path fill="#225589" d="m26.87 17.33-.02.1.04-.02.02-.08h-.04zm-.23.89-.04.1.04.03.02-.09a.1.1 0 0 1-.02-.04z"/><path fill="#1C5489" d="m26.81 17.34-.03.1.05-.02.03-.08h-.05zm-.23.81-.02.12a.21.21 0 0 1 .03.05l.04-.11-.05-.06z"/><path fill="#1D5389" d="m26.74 17.36-.02.1c.02-.01.05-.01.06-.03l.03-.09c-.03.02-.04.02-.07.02zm-.2.74-.03.12.05.05.02-.12-.03-.05z"/><path fill="#1D5087" d="m26.68 17.38-.02.09.04-.01.03-.1-.05.02zm-.17.66-.04.13.04.05.03-.13c-.02-.01-.02-.03-.03-.05z"/><path fill="#1A5087" d="m26.61 17.41-.03.1c.02-.01.05-.01.07-.03l.02-.1-.06.03zm-.14.55-.04.14.04.05.03-.11c0-.03-.03-.05-.03-.08z"/><path fill="#194D85" d="m26.55 17.45-.03.1a.1.1 0 0 1 .06-.04l.02-.1a.19.19 0 0 0-.05.04zm-.12.43-.05.15.04.06.04-.14c-.01-.02-.03-.04-.03-.07z"/><path fill="#184C85" d="m26.47 17.5-.01.1a.18.18 0 0 1 .06-.05l.03-.1-.08.05zm-.07.28-.04.16.02.1.05-.16-.03-.1z"/><path fill="#184B84" d="m26.36 17.94.04-.16c-.02-.08 0-.14.02-.21.03-.02.04-.05.05-.07l-.01.1a.28.28 0 0 0-.1.14.26.26 0 0 0 0 .2z"/><path fill="#7CBFD4" d="m31.05 18.47-.11.39a.39.39 0 0 0 .1-.39zm-.11.4-.09.3a.26.26 0 0 0 .05-.09.28.28 0 0 0 .04-.2z"/><path fill="#7CBFD4" d="m31 18.36-.09.39a.48.48 0 0 1 .03.14l-.06.24a.36.36 0 0 1-.1.11l.08-.31a.28.28 0 0 0 .09-.08l.1-.37-.05-.12z"/><path fill="#7CBED4" d="m30.97 18.3-.09.36.03.1.11-.38a.51.51 0 0 1-.05-.08zm-.17.67-.08.32a.16.16 0 0 1 .07-.05l.07-.32-.06.05z"/><path fill="#7ABBD3" d="m30.94 18.25-.1.34.04.07.1-.36-.04-.05zm-.21.74-.08.31a.17.17 0 0 0 .07-.01l.08-.32-.07.02z"/><path fill="#78BBD4" d="m30.9 18.17-.1.35.05.07.09-.35a.2.2 0 0 0-.05-.07zm-.24.85-.09.32a.23.23 0 0 0 .08-.04l.08-.3-.07.02z"/><path fill="#73BAD4" d="m30.86 18.13-.1.34.05.06.1-.35a.24.24 0 0 1-.06-.05zm-.25.9-.08.32a.17.17 0 0 0 .06-.02l.08-.3a.17.17 0 0 0-.06 0z"/><path fill="#76B9D3" d="m30.8 18.07-.08.33c0 .03.03.05.04.07l.1-.34-.06-.06zm-.26.99-.09.3.08-.01.08-.31-.06.02z"/><path fill="#72B8D3" d="m30.76 18.02-.09.32c.03.02.04.05.05.07l.09-.33c-.01-.03-.04-.04-.05-.06zm-.28 1.05-.08.3h.06l.08-.31h-.06z"/><path fill="#72B6D0" d="m30.72 17.97-.1.33.05.04.1-.32c-.02-.01-.04-.02-.05-.05zm-.3 1.1-.08.31h.06l.08-.31h-.06z"/><path fill="#74B5CE" d="m30.67 17.94-.09.3c.03.02.04.05.05.06l.09-.33c-.02 0-.04-.02-.05-.03zm-.32 1.14-.08.3h.07l.08-.3h-.07z"/><path fill="#70B4D2" d="m30.62 17.9-.08.29a.39.39 0 0 1 .05.06l.08-.3a.15.15 0 0 0-.05-.05zm-.32 1.2-.08.3.08-.01.07-.3-.07.01z"/><path fill="#6FB1CD" d="m30.57 17.85-.08.3.06.06.08-.31-.06-.05zm-.34 1.25-.08.3.07-.01.08-.29h-.07z"/><path fill="#70AFCE" d="m30.53 17.82-.08.3a.12.12 0 0 1 .04.02l.08-.29c0-.02-.02-.03-.04-.04zm-.34 1.3-.08.28h.04l.09-.3-.05.01z"/><path fill="#6DAFCF" d="m30.48 17.78-.07.28.04.06.08-.3a.2.2 0 0 0-.05-.04zm-.35 1.33-.09.28h.07l.08-.28h-.07z"/><path fill="#6CACCD" d="m30.43 17.73-.08.28.06.05.07-.28c0-.01-.04-.02-.05-.05zm-.37 1.38-.07.28h.06l.08-.28h-.07z"/><path fill="#69A9CA" d="m30.37 17.71-.06.26a.24.24 0 0 0 .05.05l.07-.28-.06-.02zm-.36 1.4-.07.28H30l.07-.28h-.05z"/><path fill="#69A9CA" d="m30.33 17.68-.07.26a.12.12 0 0 1 .06.05l.07-.27a.15.15 0 0 0-.06-.04zm-.38 1.43-.07.27h.06l.07-.27h-.06z"/><path fill="#6AA7C9" d="m30.28 17.64-.06.26c0 .02.03.03.04.04l.07-.26c-.01-.01-.02-.03-.05-.04zm-.4 1.47-.06.27h.06l.07-.27h-.07z"/><path fill="#68A5C7" d="m30.23 17.62-.06.24.05.05.06-.27-.04-.02zm-.4 1.5-.07.25h.06l.08-.26h-.08z"/><path fill="#68A5C7" d="m30.18 17.58-.07.25a.2.2 0 0 1 .07.04l.06-.25-.06-.04zm-.41 1.53-.06.24c.02.02.05.02.07.02l.07-.26h-.08z"/><path fill="#69A4C6" d="m30.13 17.55-.07.24a.54.54 0 0 0 .07.04l.06-.24-.06-.04zm-.4 1.55-.08.25h.07l.06-.24h-.06z"/><path fill="#66A2C5" d="m30.09 17.53-.07.23a.1.1 0 0 1 .04.03l.07-.24a.1.1 0 0 0-.04-.02zm-.43 1.57-.06.24.05.01.07-.25h-.06z"/><path fill="#64A0C4" d="m30.04 17.5-.07.22c.03.01.04.02.05.04l.07-.23a.23.23 0 0 1-.05-.03zm-.43 1.58-.07.25.07.01.05-.24-.06-.02z"/><path fill="#619FC3" d="m29.97 17.46-.06.22c.03 0 .05.04.06.04l.07-.22a.28.28 0 0 0-.07-.04zm-.42 1.62-.07.24.07.01.06-.23c-.01-.02-.04-.02-.06-.02z"/><path fill="#609DC2" d="m29.92 17.43-.05.22.05.04.07-.22-.07-.04zm-.43 1.64-.06.23h.03l.02.02.07-.24h-.06z"/><path fill="#5F9ABF" d="m29.88 17.41-.06.21.06.03.07-.2a.27.27 0 0 0-.07-.04zm-.43 1.67-.06.2.04.02.07-.22h-.05z"/><path fill="#5D99BE" d="m29.83 17.39-.05.2c.02 0 .03.02.04.03l.06-.2a.05.05 0 0 0-.05-.03zm-.45 1.68-.06.2.07.01.06-.2-.07-.01z"/><path fill="#5B99BE" d="m29.79 17.37-.06.19c.03 0 .04.02.05.03l.05-.2a.07.07 0 0 0-.04-.02zm-.47 1.68-.04.2c0 .02.03.02.05.03l.06-.21c-.02 0-.05 0-.07-.02z"/><path fill="#5D97BB" d="m29.72 17.33-.04.18a.28.28 0 0 1 .05.05l.06-.2-.07-.03zm-.44 1.72-.06.2c.02 0 .05 0 .07.02l.05-.2c-.02-.02-.05-.02-.06-.02z"/><path fill="#5A96BB" d="m29.68 17.31-.05.19.06.02.05-.18-.06-.03zm-.46 1.73-.04.2h.04l.06-.2h-.06z"/><path fill="#5A95BA" d="m29.63 17.29-.04.17.04.04.05-.19-.05-.02zm-.45 1.74-.07.18.07.03.04-.2-.04-.01z"/><path fill="#5992B8" d="m29.59 17.27-.06.16c.02.02.03.03.06.03l.04-.17-.04-.02zm-.49 1.75-.05.18.06.01.07-.18-.08-.01z"/><path fill="#5692B9" d="m29.51 17.24-.02.17a.15.15 0 0 0 .05.02l.05-.16-.08-.03zM29.05 19l-.05.2h.07l.04-.18-.06-.02z"/><path fill="#5790B6" d="m29.47 17.22-.05.16c.03 0 .05.03.07.03l.05-.17c-.03 0-.04 0-.07-.02zM29 19l-.04.18.04.02.05-.19H29z"/><path fill="#568FB6" d="m29.42 17.2-.04.16a.1.1 0 0 1 .07.02l.04-.16-.07-.02zm-.46 1.78-.05.18h.05L29 19h-.04z"/><path fill="#528CB4" d="m29.37 17.18-.04.14.05.04.04-.16-.05-.02zm-.49 1.8-.04.15.07.03.05-.18h-.08z"/><path fill="#518AB2" d="m29.32 17.16-.04.14.05.02.05-.14-.06-.02zm-.5 1.8-.03.15.06.02.04-.15-.06-.02z"/><path fill="#5289B1" d="m29.27 17.13-.05.14.07.03.03-.14a.15.15 0 0 1-.05-.03zm-.49 1.82-.04.14.06.03.05-.16-.07-.01z"/><path fill="#5189B1" d="m29.2 17.11-.02.13.06.04.04-.14c-.03 0-.05-.03-.08-.03zm-.48 1.83-.03.13.05.02.04-.14-.06-.01z"/><path fill="#5088B0" d="m29.16 17.1-.04.12.06.02.02-.13-.04-.01zm-.49 1.81-.02.14c0 .02.02.03.04.03l.03-.14-.05-.03z"/><path fill="#4F87AE" d="m29.11 17.09-.03.1.04.03.04-.12-.05-.01zm-.5 1.81-.04.13.08.02.02-.14h-.06z"/><path fill="#4F84AD" d="m29.05 17.06-.03.12.06.01.03-.1a.1.1 0 0 0-.06-.03zm-.49 1.83-.03.11.05.04.04-.14h-.06z"/><path fill="#4F84AD" d="m29 17.04-.03.11H29l.03.03.04-.12-.07-.02zm-.48 1.82-.04.13c.01 0 .04.01.05.03l.03-.13s-.03 0-.04-.02z"/><path fill="#4C84AD" d="m28.94 17.02-.02.11.06.02.03-.1c-.03-.01-.04-.03-.07-.03zm-.48 1.84-.03.12.05.01.04-.12-.06-.01z"/><path fill="#4C82AC" d="m28.9 17-.02.1.04.03.02-.1c0-.02-.01-.02-.02-.02h-.03zm-.5 1.84-.03.1.06.03.03-.11-.07-.02z"/><path fill="#4C81AB" d="m28.85 16.98-.02.1c0 .02.02.02.05.02l.01-.1-.04-.02zm-.5 1.84-.02.11.05.02.04-.1-.07-.03z"/><path fill="#4B7EA9" d="m28.78 16.97-.02.08a.29.29 0 0 1 .07.03l.02-.1-.07-.01zm-.48 1.83-.04.1.08.03.01-.11-.01-.01-.04-.01z"/><path fill="#4A7CA8" d="m28.74 16.96-.03.07.07.03.02-.08-.06-.02zm-.5 1.83-.02.1.04.01.04-.1h-.05zm.44-1.85-.01.07.04.02.03-.07-.06-.02zm-.48 1.82-.03.1h.03l.02.02.02-.09c0-.02-.03-.02-.04-.02z"/><path fill="#487BA7" d="m28.64 16.93-.03.06.06.02.01-.07-.04-.01zm-.5 1.83-.02.06a.19.19 0 0 0 .05.04l.03-.09-.06-.01z"/><path fill="#467BA7" d="M28.56 16.91v.06a.2.2 0 0 0 .05.01l.03-.05-.08-.02zm-.48 1.82-.02.07.07.04.02-.08-.07-.03z"/><path fill="#447AA6" d="m28.52 16.9-.01.04c0 .02.04.03.05.04l.03-.07-.07-.02zm-.48 1.81-.02.06c.02.02.02.03.05.03l.01-.07-.04-.02z"/><path fill="#4277A5" d="m28.46 16.88-.02.05.08.03v-.07h-.06zm-.48 1.82-.01.06a.07.07 0 0 0 .05.01l.01-.06-.05-.01z"/><path fill="#4277A4" d="m28.42 16.87-.02.04.04.02.02-.05-.04-.01zm-.5 1.8-.01.05.06.04.01-.06c-.01-.02-.04-.03-.06-.03z"/><path fill="#4175A4" d="m28.37 16.87-.02.02.05.02.02-.04h-.05zm-.49 1.78-.02.05a.4.4 0 0 0 .07.03v-.06c-.02 0-.03 0-.05-.02z"/><path fill="#3E74A2" d="m28.3 16.84-.01.03.06.02.02-.02-.07-.03zm-.48 1.79-.01.04.07.04v-.06l-.06-.02z"/><path fill="#3D73A2" d="M28.25 16.83v.02a.1.1 0 0 0 .05.02v-.03l-.05-.01zm-.48 1.77-.01.05.05.02v-.04l-.04-.03z"/><path fill="#3E71A0" d="m28.2 16.82-.01.02h.05v-.01l-.04-.01zm-.48 1.77v.03a.19.19 0 0 1 .04.03l.01-.05h-.05z"/><path fill="#3C70A1" d="M28.14 16.8v.03h.05v-.01c-.02 0-.03 0-.05-.02zm-.47 1.75-.01.03.05.04.01-.03-.05-.03z"/><path fill="#3A709F" d="m28.07 16.8.07.03v-.03h-.07zm-.45 1.74v.01c0 .02.02.03.05.04v-.02c-.01-.02-.04-.02-.05-.03z"/><path fill="#386F9E" d="M28.03 16.78v.01l.07.01c-.03 0-.05 0-.07-.02zm-.46 1.73v.02l.04.02v-.01l-.04-.03z"/><path fill="#396D9D" d="M27.98 16.78h.05v.01h-.05zm-.46 1.71v.01c.01 0 .02.03.05.03v-.02l-.05-.02z"/><path fill="#376D9D" d="m27.93 16.76.05.02-.06-.02zm-.48 1.7a.27.27 0 0 0 .07.04c-.02-.02-.04-.04-.07-.04z"/><path fill="#356A9B" d="M27.88 16.75h-.02l.07.02v-.01l-.05-.01zm-.47 1.69.07.02h-.02a.15.15 0 0 0-.06-.02z"/><path fill="#35699A" d="M27.8 16.74a.16.16 0 0 0 .06.02l.02-.01-.07-.01zm-.44 1.67c.03 0 .04.03.05.04v-.01c-.01-.02-.02-.02-.05-.03z"/><path fill="#326899" d="M27.75 16.72v.03a.16.16 0 0 1 .07 0v-.01l-.07-.02zm-.44 1.65v.02a.1.1 0 0 0 .05.02l-.05-.04z"/><path fill="#306899" d="M27.7 16.71v.03h.05v-.02l-.04-.01zm-.43 1.64v.01c0 .01.04.01.04.03v-.02a.1.1 0 0 0-.04-.02z"/><path fill="#2D6797" d="M27.64 16.7v.04h.06v-.03h-.06zm-.43 1.6v.03c.01.02.03.02.06.03v-.01c-.01-.02-.04-.03-.06-.04z"/><path fill="#2D6596" d="M27.58 16.7v.02l.06.02v-.04h-.06zm-.41 1.57-.02.03.07.05v-.04l-.05-.04z"/><path fill="#2D6596" d="M27.53 16.68v.04h.06v-.03l-.06-.01zm-.4 1.56-.03.03.07.04v-.04a.15.15 0 0 1-.05-.03z"/><path fill="#2D6395" d="m27.49 16.67-.01.05h.04l.01-.04s-.03 0-.04-.02zm-.41 1.54-.02.04.04.02.02-.03-.04-.03z"/><path fill="#2B6294" d="m27.43 16.67-.02.04.07.01v-.05h-.05zm-.4 1.5-.03.05c.03 0 .05.02.06.03l.02-.04-.05-.05z"/><path fill="#2B6292" d="m27.37 16.66-.01.05h.05l.02-.05h-.06zm-.39 1.47-.02.05.05.04.02-.05c-.02 0-.04-.04-.05-.04z"/><path fill="#2A6091" d="M27.3 16.65v.06h.06v-.05l-.05-.01zm-.38 1.43v.07l.04.03.02-.05-.06-.05z"/><path fill="#285F90" d="m27.26 16.65-.03.06h.07l.02-.05-.06-.01zm-.37 1.4-.02.06c0 .02.03.03.04.04l.03-.06c-.03-.01-.04-.04-.05-.05z"/><path fill="#275D90" d="m27.2 16.65-.02.06h.05l.03-.06h-.06zM26.83 18l-.02.08.06.03.02-.07c-.02 0-.04-.03-.06-.04z"/><path fill="#275C90" d="m27.16 16.63-.03.08h.06l.02-.06-.05-.02zm-.38 1.33-.01.08a.13.13 0 0 1 .05.05l.03-.08-.07-.05z"/><path fill="#275B8E" d="m27.09 16.63-.02.09h.06l.03-.1h-.07zm-.35 1.29-.02.09a.33.33 0 0 0 .06.04l.02-.09c-.03 0-.03-.04-.06-.04z"/><path fill="#235B8E" d="m27.03 16.63-.03.09h.08l.02-.1h-.07zm-.34 1.24-.02.1.05.04.02-.1c-.01 0-.02-.03-.05-.04z"/><path fill="#21598D" d="m26.97 16.63-.02.09H27l.03-.1h-.06zm-.31 1.2-.03.1c0 .02.03.03.04.04l.02-.1-.03-.04z"/><path fill="#22588D" d="m26.91 16.65-.02.09.06-.02.02-.1c-.02 0-.03 0-.06.03zm-.3 1.13-.03.1c.01.03.03.04.05.05l.03-.1c-.02-.01-.03-.04-.06-.05z"/><path fill="#21568B" d="m26.85 16.65-.03.1.07-.01.02-.1h-.06zm-.3 1.08-.03.1a.3.3 0 0 0 .06.06l.03-.11-.05-.06z"/><path fill="#22558A" d="m26.78 16.66-.01.1.06-.01.03-.1h-.08zm-.27 1.02-.02.12.05.04.02-.1c-.01-.03-.02-.05-.05-.06z"/><path fill="#1D548A" d="m26.73 16.66-.03.1h.08l.02-.1h-.07zm-.26.95-.02.14a.11.11 0 0 0 .04.05l.03-.12-.05-.06z"/><path fill="#1D548A" d="m26.68 16.68-.04.1.06-.01.03-.1h-.05zm-.25.88-.03.14.05.05.02-.13a.13.13 0 0 0-.04-.06z"/><path fill="#1C5188" d="m26.61 16.7-.03.1c.02 0 .05 0 .07-.02l.02-.1-.06.01zm-.21.8-.04.14a.28.28 0 0 0 .04.07l.05-.15c-.03-.02-.04-.05-.05-.06z"/><path fill="#164F87" d="m26.54 16.72-.03.12a.55.55 0 0 0 .08-.04l.02-.1-.07.02zm-.18.7-.06.17.06.07.04-.14c-.02-.04-.04-.06-.04-.1z"/><path fill="#174E86" d="m26.47 16.75-.02.12.07-.04.04-.12-.09.04zm-.15.6-.05.17a.16.16 0 0 0 .05.08l.04-.17-.04-.08z"/><path fill="#194D85" d="m26.41 16.8-.03.11c.02-.02.04-.04.07-.04l.02-.12-.06.04zm-.13.46-.04.2.03.06.05-.17-.04-.1z"/><path fill="#184C85" d="m26.33 16.88-.02.09a.14.14 0 0 1 .07-.06l.03-.12-.08.09zm-.07.26-.06.2c0 .04.03.07.04.11l.04-.2c0-.04-.03-.08-.03-.11z"/><path fill="#184B84" d="m26.2 17.37.06-.22a.43.43 0 0 1 .03-.21l.05-.07-.03.1a.6.6 0 0 0-.11.15.56.56 0 0 0 0 .25z"/><path fill="#92C1DD" d="m31.47 18.02-.11.42a.47.47 0 0 0 .1-.18.52.52 0 0 0 0-.23zm-.12.45-.08.28c.02-.03.03-.04.03-.07a.42.42 0 0 0 .05-.2z"/><path fill="#8EC0DD" d="m31.44 17.93-.11.42.02.12-.08.28-.07.09.08-.34.08-.06.1-.41-.02-.1z"/><path fill="#8EC0DD" d="m31.4 17.86-.1.4a.38.38 0 0 0 .03.08l.11-.41-.04-.07zm-.18.68-.1.34a.16.16 0 0 1 .08-.04l.08-.34a.14.14 0 0 1-.06.04z"/><path fill="#8DBDDE" d="m31.36 17.79-.1.38c0 .04.02.06.03.08l.11-.39c0-.03-.02-.04-.04-.07zm-.2.78-.1.35.07-.04.09-.34-.06.03z"/><path fill="#8CBCDC" d="m31.31 17.72-.1.37a.15.15 0 0 1 .05.08l.1-.38a.28.28 0 0 0-.05-.07zm-.24.89-.08.33.06-.02.1-.34-.08.03z"/><path fill="#8ABCDD" d="m31.28 17.67-.1.36a.2.2 0 0 1 .03.06l.1-.36c0-.03-.02-.04-.03-.06zm-.26.96-.1.34c.03 0 .05-.02.07-.03l.08-.33s-.03 0-.05.02z"/><path fill="#88B9DB" d="m31.24 17.62-.1.35.04.07.1-.37-.04-.05zm-.28 1.02-.1.33h.07l.09-.34h-.06z"/><path fill="#84B8DC" d="m31.2 17.58-.1.34.05.05.09-.35-.05-.04zm-.3 1.08-.09.32h.06l.08-.34-.05.02z"/><path fill="#85B5DA" d="m31.15 17.53-.1.33.05.06.1-.34-.05-.05zm-.31 1.14-.1.32h.07l.1-.33-.07.01z"/><path fill="#83B6DA" d="m31.1 17.47-.09.34.05.05.09-.33c-.02-.02-.04-.03-.05-.06zm-.34 1.21-.08.33c.03 0 .04 0 .07-.02l.09-.32-.08.01z"/><path fill="#84B4D8" d="m31.06 17.44-.1.32.05.05.1-.34a.1.1 0 0 1-.05-.03zm-.35 1.26-.08.31h.05l.08-.33s-.03 0-.05.02z"/><path fill="#82B1D7" d="m31.01 17.4-.08.32.04.04.09-.32-.05-.04zm-.35 1.3-.08.31h.05l.08-.3h-.05z"/><path fill="#83AFD5" d="m30.96 17.36-.08.32a.25.25 0 0 0 .05.04l.08-.31-.04-.05zm-.35 1.35-.08.31h.05l.08-.32-.05.01z"/><path fill="#7FAED4" d="m30.9 17.31-.08.31c.03.01.04.03.04.05l.1-.31-.06-.05zm-.36 1.4-.09.31h.05l.1-.31h-.06z"/><path fill="#80ACD2" d="m30.86 17.28-.09.3.05.04.08-.3c0-.03-.02-.03-.04-.04zm-.38 1.43-.08.3.05.01.09-.31h-.06z"/><path fill="#7DAAD1" d="m30.81 17.24-.08.3.04.04.09-.3c-.01-.01-.02-.03-.05-.04zm-.4 1.48-.07.3h.06l.08-.31-.06.01z"/><path fill="#7BAAD0" d="m30.76 17.2-.06.3.03.04.08-.3a.24.24 0 0 0-.05-.04zm-.4 1.52-.08.3h.06l.08-.3h-.06z"/><path fill="#7AA9CF" d="m30.72 17.18-.08.28c.02 0 .03.03.06.04l.06-.3-.04-.02zm-.42 1.54-.08.27c.01.02.04.02.06.02l.08-.3h-.06z"/><path fill="#77A5CC" d="m30.66 17.14-.07.27.05.05.08-.28a.17.17 0 0 0-.06-.04zm-.43 1.58-.06.27h.05l.08-.27h-.06z"/><path fill="#77A5CC" d="m30.62 17.1-.08.28c.02 0 .03.02.05.03l.07-.27-.04-.04zm-.43 1.62-.08.26.06.01.06-.27h-.04z"/><path fill="#77A3CA" d="m30.57 17.09-.07.25a.16.16 0 0 0 .04.04l.08-.28a.1.1 0 0 1-.05-.02zm-.44 1.62-.07.27h.05l.08-.26-.06-.01z"/><path fill="#72A2C9" d="m30.53 17.05-.08.26.05.03.07-.25c0-.02-.03-.03-.04-.04zm-.45 1.66-.07.27h.05l.07-.27h-.05z"/><path fill="#72A0C8" d="m30.47 17.01-.07.26c.03 0 .04.03.05.04l.08-.26a.14.14 0 0 1-.06-.04zm-.46 1.7-.07.25.06.01.06-.26h-.05z"/><path fill="#709DC6" d="m30.43 17-.08.23.05.04.07-.26c-.03 0-.04 0-.04-.02zm-.47 1.7-.06.25h.04l.07-.24h-.05z"/><path fill="#6F9DC6" d="m30.36 16.96-.05.23.04.04.08-.24-.07-.03zm-.45 1.74-.08.25h.07l.06-.25h-.05z"/><path fill="#6C9CC6" d="m30.32 16.93-.06.25a.1.1 0 0 1 .05.01l.05-.23-.04-.03zm-.47 1.75-.06.26h.04l.08-.24c-.03 0-.04 0-.06-.02z"/><path fill="#6B9AC4" d="m30.27 16.91-.05.23a.25.25 0 0 0 .04.04l.06-.25c-.01 0-.04 0-.05-.02zm-.48 1.77-.07.25h.06l.07-.25h-.06z"/><path fill="#6B99C4" d="m30.22 16.88-.06.22a.14.14 0 0 0 .06.04l.05-.23a.2.2 0 0 0-.05-.04zm-.49 1.8-.05.23s.03 0 .04.02l.07-.25h-.06z"/><path fill="#6998C2" d="m30.17 16.85-.05.22c0 .02.01.02.04.03l.06-.22c-.01-.01-.04-.01-.05-.03zm-.5 1.82-.06.22.07.02.05-.24h-.05z"/><path fill="#6695C1" d="m30.13 16.83-.06.21a.1.1 0 0 0 .05.03l.05-.22-.05-.02zm-.5 1.83-.06.22.02.01h.02l.07-.22h-.05z"/><path fill="#6695C1" d="m30.07 16.8-.06.21.06.03.06-.21-.06-.03zm-.5 1.85-.06.22.06.01.06-.22h-.06z"/><path fill="#6494C0" d="m30 16.77-.05.2c.02 0 .05.03.06.04l.06-.2a.41.41 0 0 0-.06-.03zm-.5 1.87-.05.2.05.03.06-.21c-.02 0-.04 0-.06-.02z"/><path fill="#6392BD" d="m29.96 16.75-.05.19.04.03.06-.2-.05-.02zm-.5 1.89-.06.2h.05l.05-.2h-.04zm.44-1.91-.04.2a.1.1 0 0 1 .05.01l.05-.2-.05-.01zm-.49 1.9-.05.19s0 .02.02.02h.02l.06-.2-.05-.01z"/><path fill="#6190BC" d="m29.87 16.7-.06.19c.02 0 .04.02.05.03l.05-.2c-.01 0-.03 0-.04-.02zm-.51 1.92-.07.2h.07l.05-.2h-.05z"/><path fill="#608EBA" d="m29.82 16.68-.05.19.05.01.04-.18s-.03 0-.04-.03zm-.53 1.93-.05.18.06.02.06-.2h-.08z"/><path fill="#5E8DB9" d="m29.76 16.66-.05.17.06.04.05-.2-.06-.01zm-.52 1.93-.05.18.05.02.05-.18c-.01-.02-.04-.02-.05-.02z"/><path fill="#608DB9" d="m29.7 16.63-.03.17c0 .02.02.02.04.03l.05-.17-.06-.03zm-.51 1.95-.05.18.05.01.05-.18h-.05z"/><path fill="#5E8BB8" d="m29.65 16.61-.04.17.06.02.03-.17-.05-.02zm-.51 1.96-.05.18h.05l.04-.17h-.04z"/><path fill="#5E8BB8" d="m29.6 16.58-.04.17c.03 0 .04.03.05.03l.04-.17s-.03 0-.04-.03zm-.53 1.98-.04.16c.03 0 .04 0 .06.03l.05-.18h-.06z"/><path fill="#5D89B6" d="m29.54 16.57-.04.15.06.03.04-.17a.17.17 0 0 1-.06-.01zm-.53 1.97-.04.16.05.02.05-.17-.06-.01z"/><path fill="#5B88B4" d="m29.5 16.54-.04.15.04.03.04-.15s-.04-.01-.04-.03zm-.53 1.99-.04.15.04.02.04-.16-.04-.01z"/><path fill="#5A87B4" d="m29.45 16.53-.04.14.05.02.03-.15-.04-.01zm-.53 1.99-.05.14.06.02.04-.15-.05-.01z"/><path fill="#5986B3" d="m29.4 16.51-.04.14.05.03.04-.15-.05-.02zm-.53 1.99-.04.15.04.02.05-.15-.06-.02z"/><path fill="#5883B1" d="m29.35 16.5-.04.12c.02 0 .04.03.05.03l.04-.14-.05-.02zm-.55 1.98-.04.14a.3.3 0 0 1 .07.04l.04-.16c-.03 0-.05 0-.07-.02zm.49-2.01-.04.13a.13.13 0 0 0 .06.02l.04-.13-.07-.02zm-.54 2-.04.14h.05l.04-.13c-.02 0-.03 0-.05-.02z"/><path fill="#5682B1" d="m29.23 16.45-.04.12.05.01v.02l.05-.13c-.02 0-.04 0-.06-.02zm-.53 2-.04.13c.01 0 .04.01.05.03l.04-.15h-.05z"/><path fill="#5680B0" d="m29.18 16.44-.03.12.04.01.04-.12-.04-.01zm-.53 2-.04.12.05.02.04-.13h-.05z"/><path fill="#537FAF" d="m29.14 16.42-.04.1.05.04.04-.12-.04-.01-.01-.01zm-.54 2-.04.12c.02 0 .04 0 .05.02l.04-.11c-.02-.01-.04-.01-.05-.03z"/><path fill="#547FAE" d="m29.07 16.4-.02.11.05.02.04-.11c-.01 0-.03 0-.04-.02h-.03zm-.54 2-.02.11c0 .02.03.02.04.03l.03-.12-.05-.02z"/><path fill="#537EAD" d="m29.02 16.4-.04.08c.03 0 .04.01.07.03l.02-.11h-.05zm-.54 2-.02.1h.05l.02-.1h-.01l-.04-.01zm.49-2.03-.03.1.04.01.04-.09-.05-.02zm-.53 2-.04.1.06.02.02-.1-.04-.02z"/><path fill="#527CAA" d="m28.92 16.36-.03.08c.02 0 .04 0 .05.02l.03-.09-.05-.01zm-.54 2-.03.09h.02l.03.01.04-.09c-.02 0-.04 0-.06-.02z"/><path fill="#4F7BAB" d="m28.86 16.34-.01.08.04.02.03-.09-.06-.01zm-.53 1.99-.03.09.05.02.03-.09c-.03 0-.04 0-.05-.02z"/><path fill="#4E7AA8" d="m28.8 16.33-.02.06.07.03.01-.08-.06-.01zm-.54 1.99-.02.08c.02 0 .04 0 .06.02l.03-.1h-.07zm.49-2.01-.01.07.04.01.02-.06-.04-.02h-.01zm-.53 1.99-.02.07c.02 0 .03.02.04.03l.02-.08-.04-.02z"/><path fill="#4D78A7" d="M28.7 16.31v.04c0 .02.01.02.04.03v-.07h-.04zm-.53 1.96-.02.08a.07.07 0 0 1 .05.02l.02-.07-.05-.03z"/><path fill="#4C76A7" d="m28.65 16.3-.01.04.04.01.02-.06h-.05zm-.52 1.96-.02.06.04.03.02-.08h-.04z"/><path fill="#4C76A6" d="m28.6 16.28-.03.03a.08.08 0 0 0 .07.03v-.05h-.05zm-.54 1.96-.02.06.06.02v-.07l-.04-.01z"/><path fill="#4C74A5" d="m28.53 16.25-.01.05h.05l.02-.02-.06-.03zm-.51 1.97-.03.04a.12.12 0 0 1 .05.04l.02-.06-.04-.02z"/><path fill="#4873A4" d="M28.48 16.25v.03l.04.02v-.04c-.01-.02-.02-.02-.04-.02zm-.53 1.94v.05l.04.02.03-.04-.07-.03z"/><path fill="#4772A4" d="M28.43 16.23v.03l.04.02.01-.04-.05-.01zm-.52 1.94-.01.05.04.01.01-.04a.15.15 0 0 1-.04-.02z"/><path fill="#4471A3" d="M28.38 16.22v.04h.05v-.03l-.05-.01zm-.53 1.93v.03l.05.04v-.05c-.01 0-.04 0-.05-.03z"/><path fill="#4570A1" d="M28.3 16.2v.03l.07.02.01-.03-.07-.01zm-.5 1.93v.03l.04.02.01-.04-.04-.01z"/><path fill="#4370A1" d="M28.26 16.2v.02h.04v-.01l-.04-.01zm-.5 1.9v.03a.24.24 0 0 0 .04.03v-.03c-.02 0-.03-.01-.05-.03z"/><path fill="#416D9E" d="M28.2 16.18v.02l.05.02.01-.02c-.02 0-.03 0-.05-.02zm-.5 1.9v.02c.02.02.02.03.05.03v-.03a.07.07 0 0 1-.04-.02z"/><path fill="#3F6D9F" d="m28.16 16.18.05.02v-.02h-.05zm-.5 1.87-.02.03.07.02v-.02c-.02 0-.04-.02-.05-.03z"/><path fill="#3E6D9E" d="M28.1 16.16v.01a.16.16 0 0 1 .06.01c-.02 0-.04 0-.06-.02zm-.51 1.87.04.03h.01c-.02-.02-.02-.02-.05-.02z"/><path fill="#3E6B9E" d="M28.04 16.15v.01l.06.01a.15.15 0 0 1-.07-.02zm-.5 1.86c.01 0 .04 0 .05.02l-.05-.02z"/><path fill="#3B6A9D" d="m27.99 16.14-.01.01a.1.1 0 0 0 .05.01s-.03 0-.04-.02zm-.5 1.83.05.04c0-.01-.04-.02-.04-.04z"/><path fill="#3C6A9C" d="M27.93 16.13v.02h.05v-.01l-.05-.01zm-.48 1.82a.1.1 0 0 0 .05.02.1.1 0 0 0-.05-.02z"/><path fill="#39689B" d="M27.89 16.12v.02l.04.01v-.02l-.04-.01zm-.5 1.79v.01l.06.03a.28.28 0 0 0-.05-.04z"/><path fill="#37679A" d="M27.82 16.1v.04h.07v-.02l-.07-.01zm-.47 1.77v.02a.12.12 0 0 0 .05.04v-.02l-.05-.04z"/><path fill="#34669A" d="m27.77 16.09-.01.04h.06v-.02l-.05-.02zm-.47 1.75v.03l.04.02.01-.02s-.04 0-.05-.03z"/><path fill="#356598" d="M27.71 16.08v.05h.05l.01-.04h-.06zm-.45 1.74-.01.01.04.04.01-.03-.04-.03z"/><path fill="#316497" d="m27.67 16.07-.01.05h.05v-.04h-.04zm-.46 1.7v.05a.07.07 0 0 0 .04.01v-.01c0-.02-.03-.03-.04-.04z"/><path fill="#306496" d="m27.6 16.06-.02.06h.07l.02-.05h-.06zm-.45 1.67-.01.05a.1.1 0 0 0 .05.02l.01-.03a.19.19 0 0 0-.05-.04z"/><path fill="#316295" d="M27.54 16.06v.06h.04l.03-.06h-.07zm-.44 1.64v.04a.2.2 0 0 0 .04.04l.01-.05a.21.21 0 0 0-.05-.03z"/><path fill="#2E6194" d="m27.5 16.05-.02.07h.05l.01-.06-.04-.01zm-.44 1.61-.01.06a.1.1 0 0 0 .04.02l.01-.04-.04-.04z"/><path fill="#2F5F93" d="M27.44 16.05v.07h.04v-.07h-.04zm-.43 1.58v.06l.04.04v-.07l-.04-.03z"/><path fill="#2B5E92" d="m27.39 16.04-.02.07h.06l.01-.06-.05-.01zm-.43 1.55-.01.06.05.04.01-.06a.1.1 0 0 0-.05-.04z"/><path fill="#2C5E90" d="M27.31 16.04v.08l.04-.01.02-.07h-.06zm-.4 1.5v.08l.04.03v-.06c0-.02-.01-.04-.04-.05z"/><path fill="#2B5D8F" d="m27.27 16.03-.02.09h.06v-.08l-.04-.01zm-.4 1.48-.01.08s.01.02.04.02l.01-.07c0-.02-.02-.03-.04-.04z"/><path fill="#295C90" d="m27.21 16.03-.02.09h.06l.02-.1h-.06zm-.38 1.43-.02.1a.25.25 0 0 0 .05.03v-.09l-.03-.04zm.33-1.43-.03.09h.06l.02-.1h-.05zm-.38 1.4-.01.08c0 .01.01.03.04.04l.02-.1c-.02 0-.03-.02-.05-.03z"/><path fill="#285A8D" d="m27.09 16.03-.02.1.06-.01.03-.1h-.07zm-.36 1.34-.03.1c.02 0 .03.03.05.04l.02-.1-.04-.04z"/><path fill="#26588C" d="m27.04 16.03-.04.1h.07l.01-.1h-.04zm-.36 1.3-.02.1a.16.16 0 0 0 .04.04l.03-.1a.2.2 0 0 0-.05-.04z"/><path fill="#26588D" d="m26.98 16.03-.03.1H27l.04-.1h-.06zm-.33 1.26-.04.1.05.04.02-.1c0-.03-.02-.03-.03-.04z"/><path fill="#24568B" d="m26.93 16.04-.04.1h.06l.03-.11h-.05zm-.33 1.2-.04.11a.2.2 0 0 1 .05.04l.04-.1-.05-.06z"/><path fill="#22558B" d="m26.87 16.04-.04.11.06-.01.04-.1h-.06zm-.31 1.13-.04.12.05.06.03-.12c0-.02-.04-.03-.04-.06z"/><path fill="#22558A" d="m26.8 16.05-.03.12c.01 0 .04 0 .06-.02l.04-.11h-.07zm-.29 1.06-.04.14c.02 0 .03.04.05.05l.04-.13a.1.1 0 0 1-.05-.06z"/><path fill="#20548A" d="m26.74 16.06-.04.12h.07l.03-.14c-.02.02-.05.02-.06.02zm-.27 1-.04.14.04.05.04-.14c-.02 0-.04-.03-.04-.04z"/><path fill="#1B5289" d="m26.68 16.08-.03.13.05-.03.04-.12-.06.02zm-.25.93-.03.15.03.04.04-.13-.04-.06z"/><path fill="#1C5188" d="m26.63 16.09-.04.13.06-.01.02-.13-.04.01zm-.23.87-.04.14a.12.12 0 0 0 .04.06l.03-.15-.03-.05z"/><path fill="#1A5087" d="m26.55 16.13-.04.12c.03 0 .05-.02.07-.03l.03-.13-.06.04zm-.2.74-.04.16c0 .03.02.05.03.06l.04-.15-.02-.07z"/><path fill="#194D85" d="m26.47 16.16-.02.13.06-.03.04-.13c-.03 0-.05.02-.08.03zm-.16.63-.05.18c.01.01.02.04.05.06l.05-.16a.16.16 0 0 1-.05-.08z"/><path fill="#164D85" d="m26.41 16.21-.04.13.08-.05.02-.13-.06.05zm-.13.5-.05.18a.27.27 0 0 0 .03.08l.05-.18-.03-.09z"/><path fill="#184C85" d="m26.34 16.3-.03.1c.02-.04.05-.04.06-.06l.04-.13-.07.08zm-.08.28-.06.21c0 .04.01.08.03.1l.05-.19-.02-.12z"/><path fill="#184B84" d="m26.2 16.8.06-.22a.39.39 0 0 1 .03-.22l.05-.07-.03.1a.6.6 0 0 0-.11.16.56.56 0 0 0 0 .24z"/><path fill="#9FC1D9" d="m31.86 17.42-.12.41a.36.36 0 0 0 .1-.14l.03-.1-.01-.17zm-.15.5-.06.24c0-.02.02-.03.04-.04a.71.71 0 0 0 .02-.2z"/><path fill="#9DBED7" d="m31.82 17.33-.12.46.01.13-.06.24-.07.1.09-.36.07-.07.12-.4-.04-.1z"/><path fill="#9BBCD7" d="m31.78 17.23-.12.44c.03.03.04.07.04.12l.12-.46a.91.91 0 0 0-.04-.1zm-.19.72-.1.37a.4.4 0 0 0 .09-.07l.09-.35-.08.05z"/><path fill="#98BCD8" d="m31.74 17.18-.12.4a.19.19 0 0 1 .04.09l.12-.44a.14.14 0 0 0-.04-.05zm-.22.8-.09.37a.1.1 0 0 0 .05-.03l.11-.37-.07.04z"/><path fill="#98BCD8" d="m31.7 17.1-.1.41.02.08.12-.41a.28.28 0 0 0-.04-.08zm-.23.9-.11.38a.27.27 0 0 1 .07-.04l.1-.35a.13.13 0 0 0-.06.02z"/><path fill="#98B9D6" d="m31.66 17.06-.1.4.03.05.11-.4-.04-.05zm-.27.98-.09.35h.06l.1-.38c-.02.02-.04.02-.07.02z"/><path fill="#96B8D6" d="m31.61 17-.1.38.05.07.1-.4c-.01-.01-.02-.04-.05-.05zm-.27 1.05-.1.36.06-.02.1-.35-.06.01z"/><path fill="#96B8D6" d="m31.57 16.94-.1.38.04.06.1-.38c0-.02-.03-.03-.04-.06zm-.3 1.13-.1.36.08-.02.09-.36-.07.02z"/><path fill="#95B6D5" d="m31.52 16.9-.09.37a.2.2 0 0 0 .04.05l.1-.38a5.26 5.26 0 0 0-.05-.05zm-.32 1.18-.09.36.06-.01.1-.36-.07.01z"/><path fill="#93B5D6" d="m31.48 16.87-.1.35.05.05.1-.38a.12.12 0 0 0-.05-.02zm-.32 1.22-.1.35h.05l.1-.36-.05.01z"/><path fill="#91B2D5" d="m31.43 16.8-.09.36c0 .03.04.04.04.06l.1-.35-.05-.07zm-.35 1.3-.08.34h.06l.1-.35a.2.2 0 0 1-.08 0z"/><path fill="#90B2D4" d="m31.39 16.77-.1.33c.01.03.04.05.05.06l.09-.36-.04-.03zm-.37 1.35-.1.32H31l.08-.34c-.01.02-.04.02-.06.02z"/><path fill="#8CAFD3" d="m31.34 16.73-.1.34.05.03.1-.33-.05-.04zm-.38 1.4-.08.32h.05l.09-.33h-.06z"/><path fill="#8BAED2" d="m31.3 16.7-.09.32.04.05.09-.34-.05-.04zm-.39 1.43-.1.33.07-.01.08-.32h-.05zm.34-1.47-.08.32c0 .02.02.03.04.04l.08-.33-.04-.03zm-.4 1.47-.09.32h.06l.09-.32h-.06z"/><path fill="#88AAD0" d="m31.2 16.61-.09.32a.29.29 0 0 0 .06.05l.08-.32c-.01-.01-.04-.02-.06-.05zm-.43 1.52-.07.31h.06l.1-.32-.09.01z"/><path fill="#87ABD0" d="m31.15 16.57-.09.31.05.05.08-.32c-.02 0-.02-.02-.04-.04zm-.42 1.57-.08.3h.05l.07-.3h-.04z"/><path fill="#84A9CF" d="m31.1 16.56-.08.29.04.04.09-.31-.05-.02zm-.43 1.58-.08.3h.07l.07-.3h-.06z"/><path fill="#86AACF" d="m31.06 16.52-.09.28.05.05.08-.3c-.02 0-.03-.02-.04-.03zm-.44 1.61-.08.3c.02 0 .03 0 .05.02l.08-.31h-.05z"/><path fill="#85A7CD" d="m31 16.47-.08.29.05.04.09-.28-.07-.05zm-.45 1.66-.08.3h.07l.08-.3h-.07z"/><path fill="#84A4CA" d="m30.95 16.45-.07.28a.11.11 0 0 0 .04.03l.07-.29-.04-.02zm-.46 1.69-.06.29a.1.1 0 0 1 .04 0l.07-.3h-.05z"/><path fill="#80A3CA" d="m30.9 16.42-.06.27.04.04.07-.28a.2.2 0 0 0-.05-.03zm-.45 1.7-.09.29c.03.02.04.02.07.02l.06-.3h-.04z"/><path fill="#80A1C8" d="m30.86 16.4-.07.26.05.03.06-.27-.04-.03zm-.47 1.73-.08.28h.05l.09-.28h-.06z"/><path fill="#7CA1C7" d="m30.8 16.36-.07.25a.1.1 0 0 0 .06.05l.07-.27-.06-.03zm-.47 1.77-.07.27h.05l.08-.27h-.06z"/><path fill="#7D9EC6" d="m30.75 16.33-.07.24.05.04.07-.26a.19.19 0 0 1-.05-.02zm-.48 1.79-.08.27.07.01.07-.27-.06-.01z"/><path fill="#7B9DC5" d="m30.7 16.3-.06.24a.16.16 0 0 0 .04.03l.07-.24c-.01-.02-.03-.02-.05-.03zm-.48 1.82-.08.26.05.01.08-.27h-.05z"/><path fill="#799EC5" d="m30.66 16.28-.07.23.05.03.06-.24-.04-.02zm-.5 1.84-.07.24.05.02.08-.26h-.07z"/><path fill="#769BC4" d="m30.59 16.25-.05.22.05.04.07-.23c-.03-.02-.04-.03-.07-.03zm-.48 1.85-.07.25.05.01.06-.24c0-.02-.03-.02-.04-.02z"/><path fill="#759BC3" d="m30.55 16.22-.06.22.05.03.05-.22-.04-.03zm-.5 1.87-.08.26h.07l.07-.25-.07-.01z"/><path fill="#7599C2" d="m30.5 16.19-.06.23c.01 0 .03 0 .05.02l.06-.22a.2.2 0 0 0-.05-.03zm-.51 1.9-.07.24.05.01.07-.25H30z"/><path fill="#7297C0" d="m30.45 16.16-.06.22a.2.2 0 0 1 .06.04l.05-.23c-.02 0-.03-.02-.05-.03zm-.5 1.92-.08.24h.04l.08-.23h-.05z"/><path fill="#7196BE" d="m30.4 16.14-.06.2.05.04.06-.22-.05-.02zm-.52 1.92-.06.25h.05l.07-.23-.06-.02z"/><path fill="#6F94BE" d="m30.34 16.12-.06.19a.47.47 0 0 0 .06.04l.06-.2c-.01-.02-.04-.03-.06-.03zm-.53 1.93-.05.23.06.03.06-.25h-.06z"/><path fill="#6E92BD" d="m30.3 16.1-.07.2a.07.07 0 0 1 .05.01l.06-.2-.04-.01zm-.53 1.95-.06.22.05.01.05-.23h-.04z"/><path fill="#6E90BB" d="m30.23 16.07-.04.18a.2.2 0 0 1 .04.04l.07-.2-.07-.02zm-.52 1.97-.06.22.07.01.05-.22h-.06z"/><path fill="#6C90BB" d="m30.19 16.05-.05.19.05.01.04-.18s-.01-.02-.04-.02zm-.52 1.98-.07.2.05.03.06-.22h-.04z"/><path fill="#6C8FBB" d="m30.13 16.02-.04.18c.03.01.03.02.05.04l.05-.19-.06-.03zm-.53 2-.05.2.06.02.06-.2-.07-.02z"/><path fill="#698EBA" d="m30.09 16-.05.17.05.03.04-.18-.04-.02zm-.55 2-.05.2.06.03.05-.21-.06-.01z"/><path fill="#688CB9" d="m30.03 15.98-.04.16.05.03.05-.17a.13.13 0 0 0-.06-.02zM29.5 18l-.06.19.06.02.05-.2-.05-.01z"/><path fill="#668CB8" d="m29.99 15.95-.05.17c.02 0 .04 0 .05.03l.04-.17s-.03 0-.04-.03zM29.45 18l-.06.18.04.02.07-.2h-.05z"/><path fill="#648CB8" d="m29.91 15.94-.02.14.05.04.05-.17-.07-.01zm-.53 2.03-.04.2h.05l.06-.18-.06-.02z"/><path fill="#6589B5" d="m29.87 15.9-.04.16.06.02.03-.14-.05-.03zm-.55 2.06-.04.17.06.03.05-.19h-.07z"/><path fill="#6389B6" d="m29.82 15.89-.04.15c.03 0 .04 0 .05.02l.04-.15-.05-.02zm-.54 2.05-.05.18.05.01.04-.17s-.03 0-.04-.02z"/><path fill="#6287B4" d="m29.78 15.88-.04.14c.02 0 .03 0 .04.02l.04-.15-.04-.01zm-.56 2.04-.04.18c.01 0 .02.02.05.02l.05-.18-.06-.01z"/><path fill="#6085B3" d="m29.71 15.85-.03.13.06.04.04-.14a.1.1 0 0 0-.06-.03zm-.54 2.07-.05.16.06.02.04-.18h-.04z"/><path fill="#6184B1" d="m29.67 15.84-.04.11.06.04.03-.14a.2.2 0 0 1-.05-.01zm-.57 2.06-.04.15.06.03.06-.16a.17.17 0 0 1-.08-.02z"/><path fill="#6082B0" d="m29.6 15.82-.01.12.04.01.04-.12-.06-.01zm-.54 2.06-.04.16.04.01.04-.15s-.03 0-.04-.02zm.5-2.08-.03.1c.02.03.03.03.06.03l.01-.11-.04-.02zm-.55 2.07-.04.15.05.01.04-.15-.05-.01z"/><path fill="#5E82B0" d="m29.51 15.79-.02.1.02.02h.02l.03-.11-.05-.01zm-.55 2.07-.04.14a.1.1 0 0 1 .05.02l.04-.15h-.05z"/><path fill="#5B81B0" d="m29.45 15.76-.03.1.07.03.02-.1a.1.1 0 0 0-.06-.03zm-.57 2.07-.03.14.07.03.04-.14c-.03 0-.05 0-.08-.03z"/><path fill="#5A81AE" d="m29.4 15.74-.02.1.04.02.03-.1h-.01c-.02 0-.03 0-.04-.02zm-.56 2.08-.04.13.08.02.03-.14h-.07z"/><path fill="#5B7FAD" d="m29.36 15.73-.04.09.06.02.02-.1-.04-.01zm-.57 2.08-.03.12.04.02.04-.12-.05-.02z"/><path fill="#597FAD" d="m29.3 15.72-.02.08c.02 0 .03 0 .04.02l.04-.1h-.06zm-.56 2.07-.03.12c.02 0 .03 0 .05.02l.03-.12s-.02 0-.02-.02h-.03z"/><path fill="#577EAC" d="M29.23 15.69v.08c0 .02.02.02.05.03l.02-.08-.07-.03zm-.54 2.08-.04.11.06.03.03-.12-.05-.02z"/><path fill="#567BAB" d="m29.18 15.68-.02.07.06.02.01-.08-.05-.01zm-.55 2.06-.03.12h.02l.03.02.04-.11a.08.08 0 0 1-.06-.03z"/><path fill="#547BAB" d="m29.14 15.66-.03.07.05.02.03-.07-.05-.02zm-.57 2.07-.01.1.04.03.03-.12h-.06z"/><path fill="#557AA8" d="m29.08 15.64-.01.08h.04l.03-.06-.06-.02zm-.55 2.07-.02.1.04.02.02-.1s-.03 0-.04-.02z"/><path fill="#5579A9" d="M29.01 15.63v.05l.06.04.01-.08c-.02 0-.04 0-.07-.02zm-.54 2.07-.02.09.06.03.02-.11-.06-.01z"/><path fill="#537AA7" d="m28.97 15.63-.01.04.04.01.01-.06h-.04zm-.55 2.05-.03.07.06.04.02-.1-.05-.01z"/><path fill="#5277A6" d="M28.92 15.6v.04c0 .02.02.02.04.03v-.04l-.04-.03zm-.55 2.05-.02.08a.1.1 0 0 1 .04.02l.03-.07-.05-.03z"/><path fill="#5177A6" d="m28.86 15.59-.01.04.06.01.01-.04-.06-.01zm-.55 2.04-.01.08.04.02.03-.08-.06-.02z"/><path fill="#5074A5" d="m28.82 15.58-.02.04.05.01.01-.04-.04-.01zm-.56 2.04v.07l.04.02v-.08l-.04-.01z"/><path fill="#4F74A4" d="m28.75 15.57-.01.02.06.03.02-.04-.07-.01zm-.54 2.03-.02.05.06.04.01-.08a.2.2 0 0 0-.05-.01z"/><path fill="#4D73A3" d="M28.7 15.55v.03h.04v-.01c-.01-.02-.03-.02-.05-.02zm-.55 2.02v.04c0 .02.02.03.04.04l.02-.05-.06-.03z"/><path fill="#4E72A2" d="M28.65 15.54v.01c0 .02.02.02.04.03v-.03h-.04zm-.54 2.01-.01.05a.07.07 0 0 0 .04.01l.01-.04-.04-.02z"/><path fill="#4C71A1" d="M28.6 15.53v.01l.05.01c-.01-.02-.04-.02-.05-.02zm-.54 2v.04c0 .02.02.02.04.03v-.05s-.03 0-.04-.03z"/><path fill="#4970A0" d="m28.53 15.52.06.02h.01l-.07-.02zM28 17.5v.04l.05.03.01-.05-.06-.01z"/><path fill="#486E9E" d="M28.47 15.5c.03.03.04.03.06.03-.02-.02-.03-.02-.06-.02zm-.53 1.98v.03l.06.03v-.03l-.06-.03z"/><path fill="#456E9E" d="M28.43 15.5h.04-.04zm-.53 1.96-.01.02.04.02.01-.02a.1.1 0 0 0-.04-.02z"/><path fill="#476E9D" d="M28.37 15.49h.06-.06zm-.52 1.94v.02a.19.19 0 0 1 .04.03v-.02c-.01 0-.03 0-.04-.03z"/><path fill="#426C9D" d="m28.32 15.46-.02.01c.03.02.05.02.07.02l-.05-.03zm-.52 1.95v.01l.04.03.01-.02a.13.13 0 0 0-.05-.02z"/><path fill="#426B9C" d="M28.25 15.45v.02h.05l.02-.01h-.07zm-.52 1.93c.03.03.04.03.07.04l-.07-.04z"/><path fill="#406A9B" d="M28.2 15.44v.02l.05.01v-.02h-.04zm-.51 1.92c.02 0 .03 0 .04.02l-.04-.02z"/><path fill="#40699B" d="M28.16 15.42v.03l.04.01v-.02l-.04-.02zm-.52 1.9v.01l.05.03-.05-.04z"/><path fill="#3C679A" d="m28.1 15.41-.02.04h.07l.01-.03h-.06zm-.5 1.88h-.01l.05.04-.04-.04z"/><path fill="#3D6699" d="m28.04 15.4-.01.04.07.01v-.03l-.07-.02zm-.5 1.85v.03l.06.03v-.01l-.06-.05z"/><path fill="#3C6698" d="m27.99 15.4-.01.04h.05v-.03L28 15.4zm-.5 1.81v.03a.2.2 0 0 1 .04.04l.01-.03c-.02-.01-.04-.02-.04-.04z"/><path fill="#396698" d="M27.93 15.38v.04s.02.02.05.02l.01-.04-.06-.02zm-.48 1.8v.03l.04.03v-.03l-.04-.02z"/><path fill="#376597" d="m27.89 15.37-.03.05h.07v-.04l-.04-.01zm-.49 1.78v.04a.1.1 0 0 1 .04.02l.01-.02c0-.02-.04-.03-.04-.04z"/><path fill="#356597" d="m27.82 15.36-.02.06h.06l.03-.05-.07-.01zm-.47 1.75v.04a.1.1 0 0 0 .05.04v-.04a.29.29 0 0 1-.05-.04z"/><path fill="#336296" d="M27.76 15.36v.06h.04l.02-.06h-.06zm-.46 1.72v.04c0 .02.01.03.04.03l.01-.04c-.03 0-.04-.01-.04-.03z"/><path fill="#326195" d="m27.71 15.35-.01.07h.05l.01-.06h-.05zm-.45 1.68-.01.07.04.02.01-.04-.04-.05z"/><path fill="#336193" d="m27.66 15.33-.03.09h.07l.01-.07c-.01 0-.03 0-.05-.02zM27.21 17v.07l.04.02v-.06l-.04-.03z"/><path fill="#306193" d="m27.59 15.33-.02.09h.06l.03-.09h-.07zm-.42 1.64-.03.06.06.04.01-.07-.04-.03z"/><path fill="#315F92" d="m27.53 15.32-.02.1h.06l.02-.09h-.06zm-.42 1.6-.01.06c.01.03.03.04.04.05l.03-.06-.06-.05z"/><path fill="#305D8F" d="m27.49 15.32-.03.1h.05l.02-.1h-.04zm-.42 1.56-.02.09.04.02.02-.07c-.02 0-.03-.03-.04-.04z"/><path fill="#2C5D8F" d="m27.43 15.32-.03.1h.06l.03-.1h-.06zm-.4 1.52-.03.09a.2.2 0 0 0 .05.04l.02-.1c-.02 0-.03-.02-.04-.03z"/><path fill="#2B5B8F" d="m27.36 15.32-.02.1h.07l.02-.1h-.07zm-.4 1.47-.01.1c.02 0 .04.03.05.04l.03-.1c-.03 0-.04-.03-.06-.04z"/><path fill="#2B5A8D" d="m27.3 15.32-.02.1h.06l.02-.1h-.06zm-.38 1.43-.02.1.05.04.02-.1-.05-.04z"/><path fill="#2C598C" d="m27.26 15.32-.04.1h.06l.02-.1h-.04zm-.39 1.38-.01.1c0 .02.01.04.04.05l.02-.1c0-.03-.03-.04-.05-.05z"/><path fill="#29598C" d="m27.2 15.32-.03.12c.02 0 .03 0 .05-.02l.04-.1h-.06zm-.35 1.34-.04.1c.01.02.02.03.05.04l.01-.1-.02-.04z"/><path fill="#26588D" d="m27.14 15.32-.03.13h.06l.03-.13h-.06zm-.34 1.3-.03.12.04.03.04-.11c-.03-.01-.04-.04-.05-.05z"/><path fill="#28568B" d="m27.08 15.33-.04.13h.07l.03-.14-.06.01zm-.34 1.23-.04.12.07.06.03-.13c-.03-.03-.03-.04-.06-.05z"/><path fill="#25548A" d="m27.02 15.33-.03.14.05-.01.04-.13h-.06zm-.32 1.16-.04.14.04.04.04-.11-.04-.07z"/><path fill="#235489" d="m26.96 15.35-.03.14c.01-.02.03-.02.06-.02l.03-.14-.06.02zm-.3 1.1-.03.13a.1.1 0 0 0 .03.05l.04-.14c-.02 0-.02-.04-.04-.04z"/><path fill="#215389" d="m26.9 15.36-.03.14.06-.01.03-.14-.06.01zm-.27 1.03-.05.15c.01.03.03.03.05.04l.03-.13-.03-.06z"/><path fill="#1F5289" d="m26.82 15.38-.04.13.09-.01.03-.14-.08.02zm-.24.94-.04.16a.14.14 0 0 0 .04.06l.05-.15a.16.16 0 0 1-.05-.07z"/><path fill="#1F5187" d="m26.77 15.4-.04.14a.1.1 0 0 0 .05-.02l.04-.14c0 .02-.04.02-.05.03zm-.23.86-.05.17.05.05.04-.16a.28.28 0 0 1-.04-.07z"/><path fill="#1A5087" d="m26.71 15.44-.05.14.07-.04.04-.13c-.03 0-.05.01-.06.03zm-.2.73-.05.2a.45.45 0 0 0 .03.06l.05-.17a.23.23 0 0 1-.04-.09z"/><path fill="#194D85" d="m26.64 15.47-.04.15.06-.04.05-.14a.58.58 0 0 0-.07.03zm-.17.64-.05.19.04.06.04-.19-.03-.06z"/><path fill="#194D85" d="m26.56 15.54-.04.13c.03-.03.05-.05.08-.05l.04-.15a.21.21 0 0 0-.08.07zm-.13.45-.06.22.05.09.04-.2-.03-.11z"/><path fill="#184C85" d="m26.46 15.67-.01.06.07-.06.04-.13a.33.33 0 0 0-.1.13zm-.04.14-.08.28a.85.85 0 0 1 .03.12l.06-.22-.01-.18z"/><path fill="#184B84" d="m26.34 16.09.08-.28c0-.05.03-.1.04-.14l-.01.06a.32.32 0 0 0-.09.16.39.39 0 0 0-.02.2z"/><path fill="#9CAACB" d="m31.98 16.82-.1.41c.03-.04.07-.08.08-.13l.04-.12a.3.3 0 0 0-.02-.16zm-.11.46-.07.26.03-.05a.56.56 0 0 0 .04-.21z"/><path fill="#99A9CB" d="m31.95 16.73-.12.4c.03.06.03.1.04.15l-.07.26a.32.32 0 0 1-.1.1l.09-.33.09-.08.1-.4-.03-.1z"/><path fill="#9AA7C9" d="m31.91 16.65-.1.4.03.1.11-.42c0-.03-.03-.05-.04-.08zm-.18.7-.09.33a.37.37 0 0 0 .07-.06l.1-.33c-.03.02-.06.03-.08.06z"/><path fill="#98A6C9" d="m31.87 16.57-.1.4a.66.66 0 0 1 .04.08l.1-.4c0-.03-.02-.05-.04-.08zm-.21.8-.1.35a.27.27 0 0 1 .08-.04l.1-.33-.08.03z"/><path fill="#97A5C9" d="m31.83 16.52-.1.37a.29.29 0 0 0 .04.08l.1-.4c-.01-.01-.03-.02-.04-.05zm-.23.89-.09.32.06-.01.09-.35c-.02 0-.04.03-.06.04z"/><path fill="#97A5C9" d="m31.79 16.46-.1.38c.01.03.03.04.04.05l.1-.37a.12.12 0 0 0-.04-.06zm-.26.96-.08.34.06-.03.1-.33-.08.02z"/><path fill="#92A3C7" d="m31.75 16.42-.1.35.04.07.1-.37-.04-.05zm-.28 1.02-.1.33h.08l.08-.35-.06.02z"/><path fill="#92A3C7" d="m31.7 16.36-.1.35.05.07.1-.36c-.01-.03-.03-.04-.05-.06zm-.3 1.1-.09.32.08-.01.09-.33-.08.02zm.25-1.15-.1.35.05.05.1-.36-.05-.04zm-.3 1.16-.1.32.06-.01.1-.32h-.06z"/><path fill="#8FA0C6" d="m31.61 16.26-.09.35.04.05.09-.35-.04-.05zm-.33 1.23-.08.32.06-.02.09-.32c-.02 0-.05 0-.07.02z"/><path fill="#8D9EC5" d="m31.57 16.24-.1.33c.02 0 .03.03.05.04l.1-.35a.2.2 0 0 1-.05-.02zm-.33 1.25-.1.32h.06l.08-.32h-.04z"/><path fill="#8D9EC5" d="m31.52 16.19-.09.33c.03 0 .04.04.05.04l.09-.32-.05-.05zm-.35 1.3-.1.32h.09l.08-.32h-.07z"/><path fill="#8A9EC5" d="m31.47 16.14-.09.32.05.06.1-.33a.24.24 0 0 0-.06-.05zm-.36 1.36-.09.31h.05l.1-.31h-.06z"/><path fill="#899AC2" d="m31.42 16.1-.08.33.04.04.1-.32a.12.12 0 0 0-.06-.04zm-.36 1.4-.09.32h.06l.08-.31h-.05z"/><path fill="#879AC2" d="m31.38 16.07-.09.31c.01.01.04.02.05.05l.08-.32-.04-.04zm-.39 1.43-.08.3a.16.16 0 0 0 .06.02l.09-.31h-.07z"/><path fill="#8898C0" d="m31.33 16.04-.08.3.04.04.09-.3-.05-.04zm-.4 1.48-.08.29h.06l.08-.3h-.06z"/><path fill="#8696BE" d="m31.28 16-.08.3.05.04.08-.3a.2.2 0 0 1-.05-.03zm-.42 1.51-.07.3h.06l.09-.3h-.08z"/><path fill="#8495BE" d="m31.22 15.96-.07.3c.02 0 .04.02.05.04l.08-.3-.06-.04zm-.41 1.55-.06.3h.04l.07-.3h-.05z"/><path fill="#8295BE" d="m31.18 15.94-.07.28.05.04.08-.29c-.02 0-.04-.03-.06-.04zm-.42 1.58-.08.27c.03 0 .04 0 .07.02l.06-.3h-.05z"/><path fill="#8095BD" d="m31.13 15.9-.07.27c.01.03.02.04.05.05l.06-.28a.25.25 0 0 0-.04-.04zm-.42 1.61-.07.28h.04l.08-.28h-.05z"/><path fill="#8192BB" d="m31.08 15.87-.06.28a.1.1 0 0 0 .04.02l.07-.27a.2.2 0 0 0-.05-.03zm-.44 1.64-.07.27h.07l.07-.27h-.07z"/><path fill="#7E90BB" d="m31.04 15.84-.07.27.05.04.06-.28c0-.02-.02-.02-.04-.03zm-.46 1.66-.06.27h.06l.07-.26h-.07z"/><path fill="#7D8EB9" d="m30.98 15.8-.06.26a.1.1 0 0 0 .05.05l.07-.27c-.02 0-.03-.02-.06-.04zm-.45 1.7-.08.26.07.01.06-.26h-.05z"/><path fill="#7B8DB7" d="m30.94 15.77-.07.26.05.03.06-.26a.05.05 0 0 1-.04-.03zm-.46 1.73-.07.26h.04l.08-.25-.05-.01z"/><path fill="#798CB6" d="m30.9 15.75-.07.26.04.02.07-.26c-.02 0-.04 0-.05-.02zm-.47 1.75-.08.24c.02 0 .04 0 .06.02l.07-.26h-.05z"/><path fill="#798CB6" d="m30.85 15.72-.07.25.05.04.06-.26a.2.2 0 0 1-.04-.03zm-.49 1.77-.06.24.05.01.08-.24-.07-.01z"/><path fill="#768AB5" d="m30.8 15.69-.06.25a.2.2 0 0 0 .04.03l.07-.25-.06-.03zm-.5 1.8-.06.23.07.01.06-.23-.06-.01z"/><path fill="#7589B5" d="m30.74 15.66-.07.24.07.04.05-.25-.05-.03zm-.49 1.8-.06.26h.04l.08-.23c-.03 0-.04 0-.06-.02z"/><path fill="#7588B4" d="m30.7 15.63-.07.23c0 .02.02.03.04.04l.07-.24c-.02 0-.04-.02-.05-.03zm-.5 1.84-.07.23h.01l.05.02.06-.25h-.04z"/><path fill="#7388B4" d="m30.64 15.62-.06.22.05.02.06-.23-.05-.01zm-.5 1.84-.05.22.04.02.08-.23-.07-.01z"/><path fill="#7388B4" d="m30.58 15.59-.05.22c.01 0 .03 0 .05.02l.07-.22-.07-.02zm-.5 1.86-.06.22h.07l.05-.21h-.06z"/><path fill="#6E86B3" d="m30.53 15.55-.06.21.06.05.05-.22-.05-.04zm-.51 1.9-.05.2.05.02.06-.22h-.06z"/><path fill="#6E86B3" d="m30.48 15.53-.05.21.06.03.06-.2-.07-.04zm-.51 1.9-.05.21h.05l.06-.19c-.02-.02-.03-.02-.06-.02z"/><path fill="#6C84B1" d="m30.43 15.5-.06.22c.03 0 .04 0 .06.02l.05-.2-.05-.03zm-.5 1.92-.06.21.04.01.06-.2-.05-.02z"/><path fill="#6C84B1" d="m30.39 15.49-.06.19.04.04.07-.21c-.03 0-.04-.01-.05-.02zm-.53 1.92-.06.2.07.02.05-.2-.06-.02z"/><path fill="#6C83B0" d="m30.33 15.46-.05.2a.07.07 0 0 1 .05.02l.06-.2c-.03 0-.04 0-.06-.02zm-.52 1.95-.05.19h.06l.05-.19h-.06z"/><path fill="#6D83AF" d="m30.27 15.44-.04.19.05.03.05-.2-.06-.02zm-.51 1.95-.06.19.06.02.04-.2-.04-.01z"/><path fill="#6781B0" d="m30.23 15.41-.05.18a.29.29 0 0 0 .06.03l.04-.18c-.02 0-.04 0-.06-.02zm-.53 1.97-.05.18c.03 0 .04.02.05.02l.06-.2h-.06z"/><path fill="#697FAE" d="m30.17 15.4-.04.17a.13.13 0 0 0 .05.02l.05-.17-.06-.02zm-.52 1.97-.04.17.04.02.05-.18-.05-.01z"/><path fill="#677FAD" d="m30.13 15.39-.05.15c.02.01.04.01.05.03l.05-.17-.06-.01zm-.54 1.97-.05.15.07.03.04-.17-.06-.01z"/><path fill="#677FAD" d="m30.08 15.36-.05.17.06.01.03-.15a.07.07 0 0 0-.04-.03zm-.54 1.98-.04.17.06.01.04-.16-.06-.02z"/><path fill="#667FAD" d="m30 15.34-.02.15c.02 0 .03.02.05.03l.05-.16-.07-.02zm-.51 2-.04.14c0 .02.04.02.04.03l.05-.17h-.05z"/><path fill="#647DAB" d="m29.96 15.31-.03.15c.01.02.03.03.06.04l.04-.16c-.02-.02-.04-.02-.07-.02zm-.52 2.01-.05.15h.06l.04-.14h-.05z"/><path fill="#627DAC" d="m29.91 15.3-.04.14.06.02.03-.15-.05-.01zm-.53 2.01-.04.14.05.02.05-.15h-.06z"/><path fill="#627BA9" d="m29.86 15.28-.04.14c.03 0 .04.01.05.02l.04-.14c-.01 0-.02-.02-.05-.02zm-.54 2-.04.14.06.03.04-.14-.06-.02z"/><path fill="#627BAA" d="m29.82 15.26-.04.14a.07.07 0 0 1 .04.01l.04-.13-.04-.02zm-.55 2.02-.04.12a.17.17 0 0 0 .06.02l.04-.13-.06-.01z"/><path fill="#607BA9" d="m29.76 15.23-.04.13.01.01c.03 0 .04.02.05.03l.04-.14-.06-.03zm-.54 2.04-.03.12.04.01.04-.12-.05-.01z"/><path fill="#5E79A8" d="m29.7 15.22-.02.12.04.02.04-.13h-.06zm-.52 2.02-.04.13a.1.1 0 0 1 .05.02l.03-.12-.04-.03z"/><path fill="#5B78A8" d="m29.65 15.2-.03.12.06.02.02-.12c-.01 0-.03 0-.05-.02zm-.54 2.03-.02.11.05.03.04-.13h-.07z"/><path fill="#5C78A7" d="m29.6 15.19-.02.1a.07.07 0 0 0 .04.02l.03-.12h-.04zm-.55 2.01-.03.11.07.03.02-.1-.06-.04z"/><path fill="#5B78A7" d="m29.54 15.17-.04.1c.03 0 .05.03.08.03l.02-.11-.01-.01-.05-.01zM29 17.19l-.03.1.05.02.03-.1-.05-.02z"/><path fill="#5B77A6" d="m29.49 15.15-.03.1a.27.27 0 0 0 .07.03l.02-.1c-.01-.01-.04-.01-.05-.03h-.01zm-.53 2.03-.04.1c.02 0 .04 0 .05.02l.03-.1-.04-.02z"/><path fill="#5975A3" d="m29.44 15.14-.03.08a.1.1 0 0 0 .05.02l.03-.09h-.05zm-.55 2.02-.01.09.04.03.04-.1-.07-.02z"/><path fill="#5874A4" d="m29.4 15.13-.03.08.04.01.03-.08h-.04zm-.55 2.01-.02.1h.04v.01l.02-.1-.04-.01zm.48-2.02v.07s.03 0 .04.02l.02-.08h-.06zm-.54 2-.02.07.06.04.02-.09c-.02 0-.03 0-.06-.03z"/><path fill="#5672A3" d="m29.27 15.1-.02.07c.03 0 .05 0 .07.02l.01-.07-.06-.01zm-.53 2-.01.08.04.01.02-.08h-.05z"/><path fill="#5472A3" d="m29.22 15.09-.02.05c.03.01.04.03.07.03l.01-.06-.06-.02zm-.53 2-.03.06c.03 0 .04 0 .07.03v-.08l-.04-.01z"/><path fill="#5270A1" d="m29.18 15.08-.03.05.05.01.02-.05-.04-.01zm-.53 1.99-.03.06.04.02.03-.06c-.03 0-.04-.02-.04-.02z"/><path fill="#5170A1" d="M29.11 15.05v.06l.04.02.03-.05-.04-.02-.03-.01zm-.54 1.98v.07a.11.11 0 0 1 .05.03l.03-.06a.28.28 0 0 1-.08-.04z"/><path fill="#516FA0" d="m29.07 15.04-.01.05a.1.1 0 0 0 .04.01l.01-.05-.04-.01zm-.54 1.98-.01.05.05.03.02-.05-.06-.03z"/><path fill="#4F6FA0" d="M29 15.04v.04h.06v-.04H29zM28.47 17v.05l.05.02v-.05a.13.13 0 0 0-.05-.02z"/><path fill="#4E6E9E" d="m28.96 15.01-.01.04c.02 0 .04 0 .06.03l.01-.04-.06-.03zm-.53 1.97-.01.04c.02 0 .02.01.05.03l.01-.05-.05-.02z"/><path fill="#4C6D9E" d="M28.9 15v.04l.05.01v-.04h-.06zm-.52 1.96v.02a.16.16 0 0 0 .04.04v-.04l-.04-.02z"/><path fill="#4B6B9C" d="m28.85 15-.01.01.05.03V15h-.04zm-.52 1.93-.02.03a.44.44 0 0 1 .06.02l.01-.02-.05-.03z"/><path fill="#496B9C" d="M28.8 14.99V15l.04.01V15l-.05-.01zm-.54 1.92v.02l.07.04v-.04c-.02 0-.04 0-.07-.02z"/><path fill="#486A9C" d="M28.73 14.97v.02l.06.01c-.02 0-.04 0-.06-.02zm-.51 1.91v.01a.16.16 0 0 0 .04.04v-.02c0-.02-.01-.02-.04-.02z"/><path fill="#45699B" d="M28.68 14.96c.01 0 .02.03.05.03v-.02l-.05-.01zm-.5 1.9v.02l.04.01c-.01-.02-.03-.02-.05-.02z"/><path fill="#45679A" d="M28.62 14.96h.06-.06zm-.5 1.88c.02 0 .03.03.05.03l-.04-.03z"/><path fill="#43679A" d="M28.57 14.95h.05-.05zm-.5 1.85v.02l.05.03v-.01l-.05-.04z"/><path fill="#426699" d="M28.53 14.94h-.01l.05.01-.04-.01zm-.5 1.84h-.01l.05.02v.02l-.04-.04z"/><path fill="#416699" d="M28.46 14.91v.03h.07c-.02-.02-.05-.02-.07-.03zm-.49 1.84c.01.02.03.03.05.03l-.05-.03z"/><path fill="#3F6597" d="M28.4 14.9v.02c.02 0 .04 0 .06.02v-.03h-.05zm-.47 1.81v.03l.04.02v-.01l-.05-.04z"/><path fill="#3E6396" d="m28.36 14.9-.01.01.06.01v-.02h-.05zm-.48 1.8v.01l.04.03v-.03l-.04-.02z"/><path fill="#3A6498" d="m28.3 14.88-.01.03h.06l.01-.01-.06-.02zm-.48 1.77-.01.03a.28.28 0 0 0 .07.03v-.02l-.06-.04z"/><path fill="#3D6294" d="m28.25 14.87-.01.03a.14.14 0 0 0 .05.01l.01-.03-.06-.01zm-.48 1.74-.01.04c.03 0 .04.02.05.03v-.03c0-.02-.02-.03-.04-.04z"/><path fill="#386195" d="m28.19 14.86-.02.04a.18.18 0 0 1 .07.01l.01-.04-.06-.01zm-.47 1.72v.04c.02 0 .03.03.04.03l.01-.03-.05-.04z"/><path fill="#396094" d="m28.14 14.86-.02.04h.05l.02-.04h-.05zm-.46 1.7-.01.04c.03 0 .04.01.04.02l.01-.04-.04-.02z"/><path fill="#366094" d="M28.08 14.84v.06h.04l.02-.04-.06-.02zm-.46 1.67v.05l.05.04v-.04c0-.03-.03-.04-.05-.05z"/><path fill="#335F94" d="m28.03 14.83-.01.07h.05l.01-.06-.05-.01zm-.45 1.64-.01.06c.02 0 .03.03.05.03l.01-.04c0-.03-.03-.04-.05-.05z"/><path fill="#355E92" d="M27.95 14.82v.07h.07v-.06h-.07zm-.42 1.62v.05c0 .02.02.03.04.04v-.06a.23.23 0 0 0-.04-.03z"/><path fill="#315D91" d="m27.9 14.82-.01.07h.06l.03-.06h-.07zm-.41 1.57-.01.07a.2.2 0 0 0 .04.03l.01-.05a9.54 9.54 0 0 1-.04-.05z"/><path fill="#305D90" d="M27.85 14.82v.07h.04l.02-.07h-.06zm-.4 1.53-.02.09c.01 0 .02.02.05.02v-.07a.2.2 0 0 0-.04-.04z"/><path fill="#2F5B8F" d="m27.8 14.81-.01.08h.05l.01-.07h-.04zm-.4 1.5-.03.08.06.05.01-.08c0-.01-.03-.02-.04-.05z"/><path fill="#2F5A8F" d="m27.75 14.81-.03.08h.07l.02-.08h-.06zm-.4 1.46-.03.1.07.03.01-.08a.28.28 0 0 1-.05-.05z"/><path fill="#2E598C" d="m27.68 14.81-.02.08h.06l.03-.08h-.07zm-.38 1.42-.02.09.04.04.03-.09-.05-.04z"/><path fill="#2D588B" d="m27.62 14.81-.01.1c.01 0 .02-.02.05-.02l.02-.08h-.06zm-.36 1.37-.03.11.05.03.02-.1s-.03-.01-.04-.04z"/><path fill="#2A578C" d="m27.57 14.81-.03.1h.07l.01-.1h-.05zm-.36 1.34-.02.1.04.04.03-.1a.2.2 0 0 0-.05-.04z"/><path fill="#2A578C" d="m27.51 14.81-.02.1h.05l.03-.1h-.06zm-.34 1.28-.04.12c.03 0 .04.04.06.04l.02-.1c0-.02-.03-.03-.04-.06z"/><path fill="#28568B" d="m27.44 14.81-.02.1h.07l.03-.1h-.08zm-.32 1.24-.04.11.06.06.04-.11-.06-.07z"/><path fill="#29558A" d="m27.4 14.82-.04.1h.07l.04-.1h-.07zM27.08 16l-.04.13c.03 0 .04.03.04.04l.04-.13a8.68 8.68 0 0 0-.04-.04z"/><path fill="#265589" d="m27.34 14.82-.04.11h.06l.04-.1h-.06zm-.3 1.13-.04.13.04.05.04-.13-.04-.05z"/><path fill="#245389" d="m27.28 14.83-.03.12.06-.02.03-.1h-.06zm-.29 1.07-.03.15.04.03.04-.13c-.01-.01-.04-.02-.05-.05z"/><path fill="#225288" d="m27.22 14.84-.03.12.06-.01.03-.12-.06.01zm-.27 1-.04.15c.02 0 .03.04.05.06l.03-.15c0-.02-.03-.05-.04-.06z"/><path fill="#1F5289" d="m27.14 14.87-.03.1a.21.21 0 0 0 .08-.01l.03-.12c-.03 0-.05.02-.08.03zm-.24.9-.04.17c.02 0 .03.03.05.05l.04-.15-.05-.07z"/><path fill="#1D5087" d="m27.09 14.88-.04.12.08-.02.04-.12-.09.02zm-.22.83-.05.17.05.05.04-.15a.76.76 0 0 1-.04-.07z"/><path fill="#1A5087" d="m27.03 14.91-.04.13a.29.29 0 0 1 .06-.04l.04-.12a.28.28 0 0 0-.06.03zm-.2.72-.05.19a.39.39 0 0 1 .04.06l.05-.17a.27.27 0 0 0-.04-.08z"/><path fill="#1C4E85" d="m26.96 14.95-.03.1a.17.17 0 0 1 .06-.01l.04-.13a.29.29 0 0 0-.07.04zm-.16.6-.06.2.04.07.05-.19a.12.12 0 0 1-.03-.08z"/><path fill="#1A4C84" d="m26.9 15-.03.1a.34.34 0 0 1 .07-.04l.04-.13-.09.06zm-.13.47-.07.21.06.08.04-.19-.03-.1z"/><path fill="#1A4C84" d="m26.8 15.1-.03.08.1-.07.02-.11a.31.31 0 0 0-.09.1zm-.06.22-.06.25.02.11.07-.21-.03-.15z"/><path fill="#184B84" d="m26.68 15.31-.02.1a.43.43 0 0 0 .02.18l.06-.24c0-.08 0-.15.04-.22a.1.1 0 0 1 .04-.05l-.04.09a.53.53 0 0 0-.1.14z"/><path fill="#958AB4" d="m31.87 16.14-.1.38a.43.43 0 0 0 .09-.15v-.06a.5.5 0 0 0 0-.17zm-.1.39-.08.25a.28.28 0 0 0 .04-.05.71.71 0 0 0 .04-.2z"/><path fill="#938AB4" d="m31.83 16.05-.09.37c.01.03.03.06.03.1l-.07.26c-.02.04-.05.06-.09.09l.09-.3.07-.05.1-.38-.04-.09z"/><path fill="#9089B4" d="m31.79 15.97-.1.33.04.1.1-.35c0-.03-.03-.06-.04-.08zm-.18.65-.08.3c.03 0 .05-.03.07-.05l.09-.3a.16.16 0 0 1-.08.05z"/><path fill="#9188B3" d="m31.75 15.9-.1.34c.03.01.04.04.05.06l.09-.33a.28.28 0 0 0-.04-.07zm-.2.75-.08.3.06-.03.08-.3a.1.1 0 0 1-.06.03z"/><path fill="#8F88B3" d="m31.7 15.85-.08.31a.28.28 0 0 1 .04.08l.09-.34a8.03 8.03 0 0 1-.05-.05zm-.21.82-.09.3.07-.01.08-.31-.07.02z"/><path fill="#8C87B2" d="m31.68 15.8-.09.32.03.04.08-.3a.2.2 0 0 0-.02-.05zm-.25.9-.08.3.05-.03.09-.3-.06.02z"/><path fill="#8A85B0" d="m31.62 15.75-.07.31c0 .02.02.04.04.06l.09-.31-.06-.06zm-.24.95-.09.3h.06l.08-.3h-.05z"/><path fill="#8A85B0" d="m31.57 15.7-.09.29.07.06.07-.3a.16.16 0 0 0-.05-.05zm-.28 1.03-.07.28h.07l.07-.3c-.02 0-.05 0-.07.02z"/><path fill="#8885B0" d="m31.52 15.66-.06.28a.19.19 0 0 0 .02.05l.09-.3-.05-.03zm-.28 1.07-.07.28h.05l.07-.28h-.05z"/><path fill="#8785B0" d="m31.48 15.62-.07.28.05.04.06-.28c0-.03-.02-.04-.04-.04zm-.3 1.12-.07.28h.06l.07-.29h-.06z"/><path fill="#8383AF" d="m31.44 15.58-.07.27.04.05.08-.28-.05-.04zm-.31 1.17-.07.27h.05l.07-.28h-.05z"/><path fill="#8282AE" d="m31.4 15.54-.07.27.04.04.07-.27-.05-.04zm-.33 1.2-.08.28h.07l.07-.27h-.06z"/><path fill="#8081AD" d="m31.34 15.5-.07.26.03.04.08-.27a.2.2 0 0 1-.04-.03zm-.33 1.26-.08.26h.05l.08-.27H31z"/><path fill="#7E7FAC" d="m31.3 15.46-.08.26a.11.11 0 0 1 .05.04l.07-.26-.05-.04zm-.35 1.3-.07.26h.05l.08-.26h-.06zm.3-1.33-.07.25c.02 0 .03.03.04.04l.07-.26-.04-.03zm-.36 1.33-.07.25.06.01.07-.26h-.06z"/><path fill="#7C7EAC" d="m31.2 15.4-.07.23c.03.01.04.04.05.05l.07-.25-.05-.03zm-.36 1.36-.08.25h.06l.07-.25h-.05z"/><path fill="#7A7DAB" d="m31.16 15.36-.06.24a.12.12 0 0 0 .03.03l.07-.23-.04-.04zm-.37 1.4-.07.24.04.01.08-.25h-.05zm.31-1.44-.07.23a.25.25 0 0 1 .04.04l.08-.24c-.03 0-.04 0-.05-.03zm-.4 1.44-.05.24h.05l.06-.24h-.05z"/><path fill="#7A7CAA" d="m31.06 15.3-.08.22a.1.1 0 0 1 .05.03l.07-.23c-.03 0-.04-.01-.04-.02zm-.4 1.45-.07.24.07.01.05-.24-.05-.01z"/><path fill="#7A7CAA" d="m31.01 15.27-.06.22a.07.07 0 0 1 .03.04l.08-.23-.05-.03zm-.4 1.48-.06.23a.06.06 0 0 0 .04.01l.07-.24h-.05z"/><path fill="#787AA9" d="m30.96 15.23-.06.22.05.04.06-.22-.05-.04zm-.4 1.52-.07.23h.06l.06-.23h-.05z"/><path fill="#767BA9" d="m30.92 15.21-.07.2.05.04.07-.22c-.03 0-.04 0-.05-.02zm-.42 1.53-.06.23h.05l.07-.22-.06-.01z"/><path fill="#7579A9" d="m30.85 15.18-.05.19.05.04.04-.2c0-.02-.02-.02-.04-.03zm-.41 1.56-.07.22h.06l.06-.22h-.06z"/><path fill="#7279A9" d="m30.8 15.16-.04.19a.07.07 0 0 0 .04.02l.05-.2-.05-.01zm-.43 1.57-.05.2c.02 0 .03 0 .05.03l.07-.22-.07-.01z"/><path fill="#727AA9" d="m30.75 15.12-.04.2.04.03.05-.19c0-.02-.04-.03-.05-.04zm-.43 1.6-.05.21h.03l.02.01.05-.21h-.04z"/><path fill="#7179A9" d="m30.71 15.1-.06.18a.19.19 0 0 0 .06.04l.04-.2s-.03 0-.04-.02zm-.44 1.61-.04.2.04.02.06-.2-.06-.02z"/><path fill="#7179A9" d="m30.66 15.08-.04.18s.03 0 .04.02l.05-.18a.07.07 0 0 1-.05-.02zm-.43 1.63-.06.2h.06l.04-.2h-.04z"/><path fill="#6E77A7" d="m30.6 15.05-.06.17c.03 0 .04.01.06.03l.06-.17-.06-.03zm-.44 1.65-.04.19h.04l.05-.19h-.05z"/><path fill="#6B76A7" d="m30.55 15.03-.05.16a.23.23 0 0 1 .04.03l.06-.17-.05-.02zm-.45 1.66-.05.18.07.01.04-.18h-.06z"/><path fill="#6C76A6" d="m30.5 15-.05.17c.03 0 .04 0 .05.02l.05-.16a.05.05 0 0 0-.05-.03zm-.45 1.67-.04.2h.04l.05-.18-.05-.02z"/><path fill="#6B76A6" d="m30.45 14.99-.04.14a.2.2 0 0 1 .04.04l.05-.17a.07.07 0 0 0-.05-.01zM30 16.67l-.05.17h.02c.02 0 .03 0 .04.03l.04-.2H30z"/><path fill="#6875A6" d="m30.4 14.96-.04.14c.01.02.04.02.05.03l.04-.14c-.01-.02-.02-.03-.05-.03zm-.45 1.7-.04.17h.04l.05-.16-.05-.01z"/><path fill="#6874A5" d="m30.34 14.92-.03.16.04.01.04-.14c-.01 0-.04-.01-.05-.03zm-.46 1.73-.05.15.05.03.04-.17-.04-.01z"/><path fill="#6674A4" d="m30.3 14.91-.04.14c.01 0 .02 0 .05.03l.03-.16h-.04zm-.47 1.72-.04.16.04.01.05-.15-.05-.02zm.42-1.73-.03.11c0 .02.02.03.04.04l.04-.14-.05-.01zm-.47 1.72-.04.15.05.02.03-.16-.04-.01z"/><path fill="#6572A3" d="m30.19 14.87-.03.13.06.01.03-.11-.06-.03zm-.46 1.74-.04.15.05.01.04-.15-.05-.01z"/><path fill="#6271A2" d="m30.14 14.86-.02.1c.01.03.02.03.04.03l.03-.12-.05-.01zm-.46 1.74-.04.14c.01 0 .04 0 .05.02l.04-.15h-.05z"/><path fill="#6270A2" d="m30.08 14.82-.03.12a.15.15 0 0 0 .05.02l.03-.11c-.01-.02-.03-.02-.05-.03zm-.47 1.75-.03.14.02-.14zm.02.17.04-.14-.07-.03.03.17z"/><path fill="#6071A2" d="m30.03 14.81-.03.1c.02.01.03.03.05.03l.03-.12h-.05zm-.47 1.76-.03.13.05.01.02-.14h-.04z"/><path fill="#5F6FA2" d="m29.99 14.79-.04.1.05.02.03-.1s-.03 0-.04-.02zm-.48 1.77-.02.12.04.02.03-.13-.05-.01z"/><path fill="#5E6EA0" d="m29.94 14.78-.03.09.04.02.04-.1-.05-.01zm-.47 1.76-.03.12.05.01.02-.11-.04-.02z"/><path fill="#5C6E9F" d="m29.89 14.76-.03.09a.1.1 0 0 0 .05.02l.03-.1-.05-.01zm-.49 1.76-.03.1.05.04.04-.12-.06-.02z"/><path fill="#5A6E9F" d="m29.82 14.73-.01.1.04.02.02-.1-.05-.02zm-.47 1.78-.03.1.05.02.03-.11-.05-.01z"/><path fill="#5B6C9F" d="m29.77 14.72-.02.08.06.02.01-.09h-.05zm-.47 1.76-.02.1a.05.05 0 0 0 .04.03l.03-.1-.05-.03z"/><path fill="#586C9E" d="m29.72 14.71-.01.07.04.02.02-.08h-.05zm-.47 1.76-.03.1.06.01.02-.1h-.05z"/><path fill="#576B9D" d="m29.67 14.69-.02.07.06.02.01-.07c-.01-.02-.03-.02-.05-.02zm-.48 1.78-.01.09.04.01.03-.1h-.06z"/><path fill="#556B9E" d="m29.62 14.68-.02.06.05.02.02-.08h-.05zm-.48 1.76-.04.08h.01c.03 0 .04.02.07.04l.01-.1a.1.1 0 0 0-.05-.02zm.41-1.77-.01.05.05.01.02-.06h-.06zm-.47 1.75-.01.07c0 .02.02.03.03.03l.03-.08-.05-.02z"/><path fill="#55699B" d="M29.5 14.65v.04l.04.03.01-.07h-.05zm-.47 1.75-.02.07.05.02.02-.07-.05-.02z"/><path fill="#52689A" d="m29.45 14.64-.01.04.05.01.01-.04-.05-.01zm-.47 1.74-.01.07.04.02.02-.07c-.01 0-.03 0-.05-.02z"/><path fill="#516799" d="M29.4 14.61v.06h.04l.01-.03-.05-.03zm-.47 1.75-.01.07a.1.1 0 0 0 .05.02l.01-.07-.05-.02z"/><path fill="#4E6699" d="m29.36 14.6-.01.04s.03 0 .04.03l.01-.06h-.04zm-.48 1.74-.01.05c0 .01.02.03.05.04l.01-.07a.2.2 0 0 1-.06-.02z"/><path fill="#4F6598" d="m29.29 14.58-.01.03.04.03.01-.04h-.03l-.02-.02zm-.47 1.75-.02.04.05.02.02-.05-.05-.01z"/><path fill="#4B6599" d="M29.23 14.57v.03l.05.01v-.03l-.05-.01zm-.46 1.73-.01.05c.01 0 .03 0 .04.02l.02-.04c-.02-.02-.03-.03-.05-.03z"/><path fill="#4A6599" d="M29.18 14.57v.02a.11.11 0 0 1 .05.01v-.03h-.04zm-.45 1.71-.02.05c.03 0 .04 0 .05.02l.01-.05-.04-.02z"/><path fill="#496597" d="M29.14 14.56h-.01c.02.02.03.02.05.02v-.02h-.04zm-.46 1.7-.01.03.04.04.02-.05-.05-.03z"/><path fill="#486498" d="m29.08 14.55.05.02.01-.01-.06-.01zm-.46 1.68-.01.03c.03 0 .04.02.05.03l.02-.03a.08.08 0 0 1-.06-.03z"/><path fill="#476397" d="M29.01 14.54a.13.13 0 0 0 .06 0H29zm-.45 1.67v.02a.05.05 0 0 0 .05.02v-.02l-.05-.02z"/><path fill="#466395" d="m28.97 14.52.04.02c0-.02-.03-.02-.04-.02zm-.45 1.66v.02l.04.03v-.02l-.04-.03z"/><path fill="#436296" d="M28.91 14.51a.1.1 0 0 1 .06.01h-.06zm-.44 1.65v.01c.01.01.03.03.05.03v-.02c-.02 0-.04 0-.05-.02z"/><path fill="#436194" d="m28.86 14.5.05.01h-.05zm-.44 1.64.04.03h.01c-.01-.02-.03-.02-.05-.03z"/><path fill="#416093" d="M28.82 14.5h-.02.07-.05zm-.47 1.6z"/><path fill="#3D5F93" d="m28.75 14.46-.01.03h.05v-.01l-.04-.02zm-.44 1.61v.01c.02.01.04.01.04.03 0-.02-.01-.03-.04-.04z"/><path fill="#3B5F93" d="M28.7 14.46v.01l.04.02v-.02l-.05-.01zm-.44 1.58v.02l.05.02-.05-.03z"/><path fill="#3D5D91" d="m28.65 14.45-.01.02h.05v-.01l-.04-.01zm-.43 1.57v.02a.05.05 0 0 1 .04.02v-.01c0-.02-.01-.02-.04-.03z"/><path fill="#3A5D92" d="m28.6 14.43-.03.04h.07v-.02c-.02 0-.03 0-.05-.02zm-.43 1.55V16a.16.16 0 0 0 .05.04v-.02c-.01-.02-.02-.03-.05-.04z"/><path fill="#385C90" d="m28.55 14.43-.02.04h.04l.02-.04h-.04zm-.43 1.51-.01.03.06.03v-.02a.14.14 0 0 0-.05-.04z"/><path fill="#375C90" d="M28.47 14.42v.04h.04v-.04h-.04zm-.4 1.48v.04l.04.03v-.03l-.04-.04z"/><path fill="#385B8F" d="m28.43 14.41-.02.05h.05l.01-.04-.04-.01zm-.4 1.45-.01.05c0 .02.03.02.04.03l.01-.04-.04-.04z"/><path fill="#355B8E" d="M28.37 14.4v.06h.04v-.05s-.03 0-.04-.02zm-.39 1.44-.01.05c.02 0 .03 0 .05.02v-.05a.07.07 0 0 0-.04-.02z"/><path fill="#335A8E" d="m28.32 14.4-.02.06h.06l.01-.07h-.05zm-.38 1.4-.01.05.04.04.01-.05-.04-.04z"/><path fill="#31588D" d="m28.27 14.38-.03.08h.06l.02-.07h-.05zm-.38 1.37-.03.07.05.03.02-.05-.04-.05z"/><path fill="#30588D" d="m28.2 14.38-.03.08h.06l.01-.08h-.04zm-.36 1.34-.02.07a.2.2 0 0 1 .04.03l.02-.07c-.02 0-.03-.03-.04-.03z"/><path fill="#2D578C" d="m28.14 14.38-.02.08h.05l.03-.08h-.06zm-.34 1.29-.03.08.05.04.02-.07-.04-.05z"/><path fill="#2E568B" d="m28.08 14.37-.02.09h.06l.02-.08h-.06zm-.33 1.26-.03.09a.18.18 0 0 1 .05.03l.03-.08c-.03 0-.04-.03-.05-.04z"/><path fill="#2C558A" d="m28.04 14.37-.02.09h.04l.02-.09h-.04zm-.33 1.22-.03.09a.2.2 0 0 1 .04.04l.03-.09-.04-.04z"/><path fill="#2A548A" d="m27.97 14.37-.03.1.07-.01.02-.09h-.06zm-.31 1.16-.04.1c.03.01.04.03.05.04l.03-.1c-.02 0-.03-.02-.04-.04z"/><path fill="#285389" d="m27.9 14.38-.01.1c0-.02.03-.02.05-.02l.03-.09-.06.01zm-.28 1.12-.04.1.04.03.04-.1a.26.26 0 0 1-.04-.03z"/><path fill="#265389" d="m27.85 14.38-.02.1h.06l.02-.1h-.06zm-.28 1.06-.03.11a.16.16 0 0 1 .04.05l.04-.1-.05-.06z"/><path fill="#255288" d="m27.8 14.4-.03.1c.02 0 .04 0 .06-.02l.02-.1-.05.01zm-.27 1-.03.1.04.05.03-.1c-.01-.03-.03-.03-.04-.05z"/><path fill="#225288" d="m27.74 14.4-.02.1h.05l.03-.1h-.06zm-.25.95-.04.12.05.04.03-.11a8.68 8.68 0 0 1-.04-.05z"/><path fill="#205187" d="m27.66 14.42-.03.1c.03 0 .05 0 .08-.02l.03-.1-.08.02zm-.23.86-.03.13a.23.23 0 0 1 .04.05l.04-.13-.05-.05z"/><path fill="#1D5087" d="m27.6 14.43-.02.12.05-.03.03-.1h-.05zm-.2.78-.04.15.04.05.03-.13c-.02-.02-.02-.05-.03-.07z"/><path fill="#1C4E86" d="m27.54 14.46-.02.1.06-.01.03-.12c-.02.02-.04.02-.07.03zm-.18.69-.05.16c.01.01.04.02.05.05l.04-.15-.04-.06z"/><path fill="#194D85" d="m27.49 14.47-.04.12c.03 0 .05-.02.07-.03l.02-.1-.05.01zm-.17.62-.04.15.03.06.05-.15c-.01-.02-.02-.05-.04-.06z"/><path fill="#1A4C84" d="m27.42 14.52-.02.11c0-.02.03-.03.05-.04l.04-.12a.29.29 0 0 1-.07.05zm-.13.48-.04.18.03.06.04-.15-.03-.09zm.03-.39-.02.1a.16.16 0 0 1 .09-.07l.03-.12-.1.1zm-.06.25-.05.2c0 .04.01.07.04.1l.04-.16-.03-.14z"/><path fill="#184B84" d="m27.21 15.06.05-.2a.36.36 0 0 1 .03-.18l.03-.07-.02.1c-.04.04-.08.08-.09.15a.34.34 0 0 0 0 .2z"/><path fill="#AF9BBB" d="m31.61 15.57-.08.31a.34.34 0 0 1-.02.2c0 .03-.03.05-.05.07l.06-.26a.28.28 0 0 0 .1-.14.6.6 0 0 0 0-.18z"/><path fill="#AE9BBC" d="m31.58 15.49-.08.28.03.11.08-.31a.11.11 0 0 0-.03-.08zm-.12.45-.07.27.07-.06.06-.26c0 .03-.03.04-.06.05z"/><path fill="#AC99BA" d="m31.53 15.4-.06.3.03.07.08-.28a.25.25 0 0 0-.05-.08zm-.14.58-.08.26c.04 0 .05-.02.08-.03l.07-.27a.27.27 0 0 1-.07.04z"/><path fill="#AA99BA" d="m31.5 15.35-.08.28a.2.2 0 0 1 .05.07l.06-.3-.03-.05zm-.19.67-.06.24a.17.17 0 0 1 .06-.02l.08-.26-.08.04z"/><path fill="#A897B9" d="m31.46 15.3-.08.25.05.07.07-.27-.04-.05zm-.2.73-.07.25.08-.03.06-.24-.07.02z"/><path fill="#A696B9" d="m31.42 15.26-.07.25.03.04.08-.25a.25.25 0 0 0-.04-.04zm-.22.8-.07.23h.06l.07-.25-.06.01z"/><path fill="#9F94BA" d="m31.38 15.21-.08.24.05.06.07-.25-.04-.05zm-.23.85-.08.24h.06l.07-.25-.05.01z"/><path fill="#9F94B9" d="m31.32 15.16-.06.24.04.05.08-.24-.06-.05zm-.25.91-.05.23h.05l.08-.24-.08.01z"/><path fill="#9C92B7" d="m31.27 15.12-.06.23.05.05.06-.24-.05-.04zm-.26.96-.06.23.07-.01.05-.23-.06.01z"/><path fill="#9C91B7" d="m31.23 15.09-.06.22.04.04.07-.23c-.02 0-.03-.02-.05-.03zm-.28 1-.06.22h.08l.05-.23h-.07z"/><path fill="#9890B7" d="m31.18 15.05-.06.22c.03 0 .04.03.05.04l.06-.22-.06-.04zm-.28 1.03-.05.23h.04l.06-.23h-.05z"/><path fill="#958DB5" d="m31.12 15-.05.22.05.05.06-.22a.1.1 0 0 0-.06-.05zm-.27 1.1-.06.2a.12.12 0 0 0 .06.01l.05-.23-.05.02z"/><path fill="#938DB5" d="m31.07 14.97-.04.2c0 .04.03.04.04.05l.06-.2-.06-.05zm-.28 1.13-.05.2h.05l.06-.2h-.06z"/><path fill="#908BB4" d="m31.03 14.94-.05.2.05.04.04-.21a.1.1 0 0 0-.04-.03zm-.31 1.16-.06.2h.08l.05-.2h-.07z"/><path fill="#8F8BB4" d="m30.98 14.91-.04.19c0 .02.02.03.04.04l.05-.2c-.01-.02-.02-.03-.05-.03zm-.32 1.19-.04.2h.04l.06-.2h-.06z"/><path fill="#8C8AB4" d="m30.94 14.88-.05.18.05.04.04-.19-.04-.03zm-.32 1.2-.06.2.06.01.04-.19c0-.02-.03-.02-.04-.02z"/><path fill="#8B88B3" d="m30.88 14.85-.04.18.05.03.05-.18-.06-.03zm-.32 1.23-.06.2h.06l.06-.2h-.06z"/><path fill="#8887B1" d="m30.84 14.82-.05.17c.02.01.04.02.06.05l.04-.18a.28.28 0 0 0-.05-.04zm-.34 1.26-.05.18c.03 0 .04 0 .05.02l.06-.2h-.06z"/><path fill="#8386B0" d="m30.8 14.79-.05.17.04.03.05-.17-.05-.04zm-.36 1.28-.05.18.06.01.05-.18h-.05z"/><path fill="#8484AE" d="m30.75 14.77-.05.15.05.04.04-.18-.04-.01zm-.36 1.3-.05.17h.01l.04.01.06-.18h-.06z"/><path fill="#8083AE" d="m30.7 14.74-.04.16.04.02.05-.15c-.03-.01-.04-.01-.05-.03zm-.37 1.32-.05.16.06.03.05-.18h-.06z"/><path fill="#8083AD" d="m30.63 14.71-.03.15.05.04.05-.16-.07-.03zm-.35 1.34-.05.16h.05l.05-.15h-.05z"/><path fill="#7B81AD" d="m30.58 14.69-.03.14c.01.02.03.03.06.04l.03-.15-.06-.04zm-.35 1.36-.04.14.04.02.05-.16h-.06z"/><path fill="#7B7FAC" d="m30.54 14.67-.04.13.05.03.03-.14-.04-.02zm-.38 1.37-.03.13.06.02.04-.14-.07-.01z"/><path fill="#797FAB" d="m30.49 14.64-.04.14.05.02.04-.13c-.01-.02-.04-.02-.05-.03zm-.37 1.39-.05.14h.06l.03-.13-.04-.01z"/><path fill="#787FAB" d="m30.43 14.62-.03.14c.03 0 .03 0 .04.02l.05-.14-.06-.02zm-.38 1.4-.03.13.05.02.05-.14-.07-.01z"/><path fill="#767CA9" d="m30.38 14.6-.04.12c.02.01.05.02.06.04l.03-.14c0-.02-.03-.03-.05-.03zm-.37 1.4-.03.15h.05l.02-.13-.04-.02z"/><path fill="#757DA9" d="m30.34 14.57-.04.12c.02 0 .03.02.05.03l.04-.13c-.03 0-.04 0-.06-.02zm-.39 1.42-.03.14.06.01L30 16l-.06-.01z"/><path fill="#727BAA" d="m30.27 14.55-.02.12a.07.07 0 0 0 .05.02l.04-.12-.07-.02zm-.37 1.43-.05.13.07.02.03-.14h-.05z"/><path fill="#707BA9" d="m30.23 14.52-.04.12c.03 0 .04 0 .06.03l.02-.12-.04-.03zm-.4 1.45-.02.13h.04l.05-.12h-.07z"/><path fill="#7178A7" d="m30.18 14.51-.02.11.03.02.04-.12h-.05zm-.4 1.44-.02.12.04.03.03-.13c0-.02-.02-.02-.04-.02z"/><path fill="#6E78A6" d="m30.12 14.5-.03.08a.28.28 0 0 1 .07.04l.02-.1a.17.17 0 0 0-.06-.03zm-.39 1.44-.02.12.05.01.03-.12h-.06z"/><path fill="#6C75A4" d="m30.07 14.46-.03.1a.14.14 0 0 1 .06.03l.03-.1-.06-.02zm-.38 1.46-.04.12c.03 0 .04 0 .07.02l.01-.12-.04-.01z"/><path fill="#6A75A4" d="m30.02 14.46-.02.08s.03 0 .04.02l.03-.1h-.04zm-.4 1.45-.02.1a.08.08 0 0 1 .05.03l.04-.11-.07-.02z"/><path fill="#6876A5" d="m29.96 14.43-.02.08c.02.01.04.01.05.03l.04-.08-.07-.03zm-.38 1.46-.03.1.05.03.02-.11-.04-.02z"/><path fill="#6575A4" d="m29.91 14.42-.01.07.04.02.02-.08-.05-.01zm-.4 1.46-.02.1.06.01.03-.1-.07-.01z"/><path fill="#6473A2" d="M29.85 14.4v.07l.05.02.01-.07-.06-.03zm-.38 1.46-.02.08.04.03.02-.09-.04-.02z"/><path fill="#6170A1" d="M29.8 14.38v.07l.05.02.02-.08h-.06zm-.38 1.46-.02.09a.1.1 0 0 0 .05.01l.02-.08h-.02l-.03-.02z"/><path fill="#6071A0" d="m29.76 14.37-.03.05.07.03v-.07l-.04-.02zm-.4 1.45-.01.08c.02 0 .03.03.05.03l.02-.09a.1.1 0 0 1-.06-.02z"/><path fill="#5D70A1" d="m29.7 14.35-.01.04.04.03.03-.06-.06-.01zm-.39 1.46-.02.07.06.02v-.08l-.04-.01z"/><path fill="#5E6E9F" d="m29.66 14.34-.02.04.05.01.01-.04-.04-.01zm-.4 1.45-.02.06c.03.01.04.01.04.03l.03-.07-.04-.02z"/><path fill="#5A6E9F" d="m29.59 14.32-.01.03.06.03.02-.04-.07-.02zm-.39 1.45v.07a.1.1 0 0 1 .04.01l.03-.06-.07-.02z"/><path fill="#586C9D" d="M29.54 14.3v.04c.01 0 .04 0 .06.03v-.05l-.06-.02zm-.38 1.45-.01.06s.03 0 .04.02l.01-.06a.07.07 0 0 0-.04-.02z"/><path fill="#596B9C" d="M29.49 14.3v.02l.04.02.01-.04h-.05zm-.4 1.42v.05c.01.02.04.03.06.04v-.06l-.06-.03z"/><path fill="#586B9C" d="M29.44 14.28v.02c.01 0 .02.02.05.02v-.03h-.05zm-.4 1.43v.03l.04.03.01-.05a.07.07 0 0 0-.04-.01z"/><path fill="#53699A" d="m29.4 14.27-.02.01.06.02v-.02h-.05zm-.4 1.41-.02.04.06.02v-.03c0-.02-.03-.02-.04-.03z"/><path fill="#516798" d="M29.32 14.26v.01l.06.01h.01l-.07-.02zm-.36 1.4-.02.03.04.03.02-.04a.07.07 0 0 1-.04-.02z"/><path fill="#516798" d="M29.27 14.25c.01 0 .04 0 .06.02v-.01l-.06-.01zm-.36 1.38-.02.03a.2.2 0 0 1 .05.03l.02-.03c-.03 0-.04-.02-.05-.03z"/><path fill="#4D6698" d="M29.22 14.24h.05-.05zm-.38 1.38.05.04.02-.03-.07-.01z"/><path fill="#4A6597" d="M29.16 14.23h.06-.06zm-.37 1.36.05.03c-.01-.02-.04-.03-.05-.03z"/><path fill="#486596" d="M29.11 14.21v.02h.05c-.01-.02-.03-.02-.05-.02zm-.36 1.36.04.03v-.01a.1.1 0 0 0-.04-.02z"/><path fill="#486394" d="M29.05 14.2v.01c.02 0 .04 0 .05.02l.01-.02c-.02 0-.04 0-.06-.02zm-.36 1.33z"/><path fill="#456395" d="M29 14.18v.02l.06.01c-.01-.02-.04-.02-.06-.03zm-.35 1.32h-.01a.1.1 0 0 0 .06.03.28.28 0 0 1-.05-.03z"/><path fill="#426294" d="M28.95 14.16v.04h.04l.01-.02c-.02 0-.03 0-.05-.02zm-.35 1.3-.01.02.06.03-.05-.05z"/><path fill="#416194" d="m28.9 14.15-.02.04.07.01v-.04h-.05zm-.34 1.27-.01.03c.01.01.02.03.04.03l.01-.02c-.03 0-.04-.02-.05-.04z"/><path fill="#3E6093" d="m28.84 14.15-.01.04h.05l.02-.03h-.06zm-.33 1.25-.01.02.05.03v-.03l-.04-.02z"/><path fill="#3A5E92" d="m28.77 14.15-.01.03a.2.2 0 0 0 .07.01v-.03l-.06-.01zm-.32 1.21v.04l.05.02.01-.02-.06-.04z"/><path fill="#3B5E91" d="m28.73 14.14-.03.04h.06l.01-.03-.04-.01zm-.32 1.17-.02.05a.6.6 0 0 1 .07.04v-.04a.1.1 0 0 1-.05-.05z"/><path fill="#375C90" d="M28.66 14.14v.04h.04l.03-.04h-.07zm-.3 1.14-.01.04.06.04v-.04c-.02 0-.04-.03-.05-.04z"/><path fill="#375C8E" d="m28.62 14.12-.02.06h.05l.01-.04c0-.02-.02-.02-.04-.02zm-.3 1.12-.02.06.05.02.01-.04-.04-.04z"/><path fill="#35598D" d="m28.56 14.12-.01.06h.05l.02-.06h-.06zm-.29 1.1-.02.05c.02 0 .04.02.05.04l.02-.07a.19.19 0 0 1-.05-.03z"/><path fill="#32578A" d="m28.5 14.11-.03.07h.08l.01-.06-.06-.01zm-.28 1.06-.01.06.04.04.02-.06a.12.12 0 0 0-.05-.04z"/><path fill="#30578A" d="m28.44 14.11-.02.08h.05l.03-.08h-.06zm-.28 1v.08l.05.04v-.06l-.05-.07z"/><path fill="#2D568B" d="m28.38 14.11-.02.08h.06l.02-.08h-.06zm-.25.97-.02.07c0 .02.03.03.05.04l.01-.07a.11.11 0 0 0-.04-.04z"/><path fill="#2C558A" d="m28.33 14.12-.01.08h.04l.02-.09h-.05zm-.25.91-.02.08.05.04.02-.07-.05-.05z"/><path fill="#29558A" d="m28.28 14.12-.03.09h.07v-.1h-.04zm-.25.85-.01.1c0 .02.03.02.04.03l.02-.07c0-.03-.02-.04-.04-.06z"/><path fill="#285388" d="m28.2 14.14-.01.09.06-.03.03-.08-.07.02zm-.2.78-.03.11.05.05.03-.1-.05-.06z"/><path fill="#255288" d="m28.14 14.15-.02.09.07-.01.02-.1-.07.02zm-.19.7-.02.12c0 .02.02.03.04.06l.03-.1-.05-.07z"/><path fill="#1F5187" d="m28.08 14.15-.02.1.07-.01.02-.1-.07.02zm-.17.64-.03.12.05.08.02-.12c0-.03-.03-.05-.04-.08z"/><path fill="#1D5087" d="m28.03 14.18-.02.1s.02-.02.05-.02l.02-.1-.05.02zm-.15.55-.04.14.04.04.03-.12-.03-.06z"/><path fill="#1A4C84" d="m27.95 14.21-.02.11.08-.04.01-.1a.56.56 0 0 1-.07.03zm-.1.45-.04.13c0 .03.02.05.03.08l.04-.14a.28.28 0 0 1-.04-.07z"/><path fill="#184C85" d="m27.88 14.28-.03.1.08-.06.02-.11-.07.07zm-.07.26-.05.16a.26.26 0 0 0 .05.1l.03-.14c0-.05-.02-.08-.03-.12z"/><path fill="#184B84" d="m27.76 14.7.05-.16a.34.34 0 0 1 .02-.2c.01-.01.02-.04.05-.06l-.03.1c-.04.03-.06.08-.09.12a.38.38 0 0 0 0 .2z"/><path fill="#E1AABE" d="m31.3 15.09-.06.23c0 .08 0 .13-.02.19a.1.1 0 0 1-.04.06l.04-.2a.14.14 0 0 0 .08-.11.2.2 0 0 0 0-.17z"/><path fill="#DDA9BE" d="m31.26 15-.06.22a.4.4 0 0 0 .04.1l.05-.24c0-.03 0-.05-.03-.08zm-.11.43-.05.2a.28.28 0 0 0 .06-.04l.05-.2c-.02 0-.04.02-.06.04z"/><path fill="#D8A8BE" d="m31.23 14.95-.06.21.03.06.06-.22a4.65 4.65 0 0 1-.03-.05zm-.15.5-.05.2c.03 0 .04-.02.07-.03l.05-.19-.07.02z"/><path fill="#D3A3BB" d="m31.2 14.9-.07.21.04.05.06-.21a.26.26 0 0 0-.04-.05zm-.17.58-.06.18c.02 0 .05 0 .06-.02l.05-.19-.05.03z"/><path fill="#CEA3BB" d="m31.15 14.86-.07.19a.16.16 0 0 1 .04.04l.06-.2-.03-.03zm-.18.63-.05.18h.05l.05-.2-.05.02z"/><path fill="#CB9EB9" d="m31.08 14.8-.04.2c.02 0 .03.03.04.04l.05-.2-.05-.04zm-.16.7-.05.18.05-.01.04-.18h-.04z"/><path fill="#C9A0B9" d="m31.04 14.77-.05.18c.02 0 .03.02.04.04l.05-.19-.04-.03zm-.2.74-.05.17h.06l.04-.18h-.04z"/><path fill="#C49CB8" d="m31 14.73-.05.17c.01.01.03.02.04.05l.05-.18c-.01-.01-.02-.03-.05-.04zm-.2.78-.05.17h.04l.06-.17h-.06z"/><path fill="#BF99B6" d="m30.95 14.7-.05.16c.03 0 .04.04.05.04l.04-.17a.24.24 0 0 0-.04-.04zm-.21.82-.05.16h.06l.04-.17c-.03 0-.04 0-.05.02z"/><path fill="#BD97B5" d="m30.9 14.67-.04.15.04.04.05-.17a.1.1 0 0 0-.05-.02zm-.23.86-.04.14a.16.16 0 0 0 .06.01l.05-.15h-.07z"/><path fill="#B995B4" d="m30.85 14.63-.04.15c.02 0 .03.02.04.03l.04-.16-.04-.02zm-.23.9-.04.14h.05l.04-.14h-.05z"/><path fill="#B494B5" d="m30.8 14.6-.04.14a.14.14 0 0 0 .05.04l.04-.16-.05-.03zm-.26.9-.02.16.04.01.05-.15-.06-.01z"/><path fill="#AF92B3" d="m30.75 14.56-.03.15.04.03.04-.15-.05-.03zm-.25.95-.05.13c.03.02.04.02.07.02l.02-.15h-.04z"/><path fill="#AB8FB2" d="m30.71 14.54-.04.14c.02 0 .03.01.05.03l.04-.15a.1.1 0 0 1-.05-.02zm-.27.97-.03.13h.04l.04-.13h-.04z"/><path fill="#A790B2" d="m30.66 14.51-.03.13a.19.19 0 0 1 .04.04l.04-.14c-.01-.02-.04-.03-.05-.03zm-.27.99-.04.13a.1.1 0 0 1 .06.01l.04-.13-.06-.01z"/><path fill="#A18CB1" d="m30.6 14.47-.03.12.05.04.04-.13c-.03 0-.04 0-.05-.02zm-.26 1.03-.03.12.04.01.04-.13h-.05z"/><path fill="#9E8DB1" d="m30.55 14.46-.02.1c0 .02.02.02.04.03l.03-.11c-.02-.02-.03-.02-.05-.02zm-.27 1.03-.02.1.01.03h.03l.02-.12-.04-.01z"/><path fill="#9A8AB0" d="m30.5 14.43-.02.1c.01.02.02.03.05.04l.02-.11c-.01-.01-.02-.03-.05-.03zm-.28 1.05-.03.1.04.02.04-.11-.05-.01z"/><path fill="#9788AF" d="m30.45 14.41-.01.1.04.03.02-.11c-.01-.01-.02-.02-.05-.02zm-.28 1.05-.04.11.06.02.03-.11c-.01 0-.04 0-.05-.02z"/><path fill="#9387AF" d="m30.4 14.38-.01.1.04.03.02-.1s-.02-.03-.04-.03zm-.27 1.08-.04.11h.04l.04-.1h-.05z"/><path fill="#8F85AD" d="m30.34 14.35-.02.1a.1.1 0 0 1 .04.02l.04-.1c-.02 0-.04 0-.06-.02zm-.27 1.1-.03.1h.05l.03-.09h-.05z"/><path fill="#8A81AB" d="m30.3 14.34-.03.08c.03.01.04.01.05.03l.02-.1-.04-.01zm-.3 1.1-.01.1h.04l.02-.1h-.04z"/><path fill="#8981AA" d="m30.25 14.32-.02.08.04.02.03-.08a.1.1 0 0 0-.05-.02zm-.3 1.1-.02.09.05.01.02-.09-.05-.01z"/><path fill="#847DA7" d="m30.2 14.3-.02.07s.04.01.04.03l.03-.08-.04-.03zm-.3 1.1-.03.09c.03 0 .04 0 .06.02l.02-.1h-.05z"/><path fill="#807EA8" d="M30.14 14.28v.07l.04.02v-.08h-.04zm-.29 1.12-.03.08h.05l.03-.07-.05-.01z"/><path fill="#7F7DA7" d="m30.1 14.26-.01.07h.03l.01-.06-.03-.01zm-.3 1.13-.02.06.04.03.03-.08-.05-.01z"/><path fill="#7B7BA6" d="M30.03 14.24v.05l.04.03.02-.06-.06-.02zm-.29 1.13v.06l.04.02.02-.06c-.02-.02-.03-.02-.06-.02z"/><path fill="#7879A5" d="m29.99 14.23-.01.04.04.02.01-.05-.04-.01zm-.3 1.12-.02.06s.03 0 .04.02l.02-.07-.04-.01z"/><path fill="#7677A4" d="M29.94 14.2v.05l.04.02v-.04c0-.02-.03-.02-.04-.03zm-.3 1.12-.02.07c.01 0 .03 0 .05.02l.02-.06h-.04l-.02-.03z"/><path fill="#7477A4" d="m29.89 14.2-.02.03.06.02.01-.05h-.05zm-.3 1.12-.01.04v.01l.04.02.01-.07h-.04z"/><path fill="#7173A0" d="m29.84 14.18-.02.03.04.02.01-.04h-.03zm-.3 1.12-.03.04.07.02v-.04c-.02-.02-.03-.02-.05-.02z"/><path fill="#6C73A1" d="M29.77 14.16v.03l.04.01v-.04h-.04zm-.28 1.12-.02.03.04.03.02-.04a.15.15 0 0 0-.04-.02z"/><path fill="#6A72A0" d="M29.72 14.15v.01c.01.02.03.02.05.03v-.03l-.05-.01zm-.3 1.1v.03l.04.03v-.04l-.04-.03z"/><path fill="#66709F" d="M29.67 14.14v.01l.04.02.01-.02h-.01l-.04-.01zm-.3 1.1v.02a.07.07 0 0 0 .04.02l.01-.04h-.04z"/><path fill="#626E9D" d="M29.62 14.12v.02l.05.01v-.01l-.05-.02zm-.3 1.1v.01l.05.03v-.03l-.05-.02z"/><path fill="#5F6E9D" d="M29.56 14.11c.03 0 .04.03.06.03v-.02l-.06-.01zm-.28 1.08v.02l.04.02v-.02l-.04-.02z"/><path fill="#5D6B9A" d="m29.5 14.1.05.01-.06-.01zm-.27 1.07a.16.16 0 0 1 .04.04v-.02l-.04-.02z"/><path fill="#5A6A99" d="M29.45 14.1a.09.09 0 0 0 .04 0h-.04zm-.3 1.04.05.03c0-.02-.01-.03-.04-.03z"/><path fill="#586897" d="M29.4 14.07v.02h.05c-.01-.02-.04-.02-.05-.02zm-.29 1.04.05.03-.05-.04z"/><path fill="#556696" d="M29.35 14.06v.01c.02 0 .03 0 .05.02v-.02h-.05zm-.28 1.03z"/><path fill="#536594" d="m29.3 14.05-.01.01a.18.18 0 0 0 .06.01l-.05-.01zm-.28 1c.02.03.04.04.05.04-.01-.01-.02-.03-.05-.04z"/><path fill="#4D6393" d="M29.23 14.05v.01h.05v-.01h-.05zm-.26.96v.03l.05.02v-.01l-.04-.04z"/><path fill="#496293" d="M29.18 14.03v.02l.04.01.01-.01c0-.02-.04-.02-.05-.02zm-.25.96V15l.04.03v-.02l-.04-.02z"/><path fill="#466193" d="m29.13 14.02-.02.04h.07v-.03l-.05-.01zm-.26.93v.02c.01.02.02.03.05.03 0-.02-.04-.03-.05-.04z"/><path fill="#436092" d="m29.08 14.01-.01.04h.04l.02-.03-.05-.01zm-.25.9-.01.03.04.03.01-.02-.04-.04z"/><path fill="#405D8F" d="M29.02 14.01v.04h.04v-.04h-.04zm-.24.86v.04c.01.01.02.03.04.03v-.03a.11.11 0 0 0-.04-.04z"/><path fill="#3B5C8F" d="m28.96 14.01-.01.04H29l.01-.04h-.05zm-.22.82-.01.05a.05.05 0 0 0 .04.02l.01-.03-.04-.04z"/><path fill="#385B8E" d="m28.9 14-.02.06h.07V14h-.05zm-.2.79-.02.06c.01 0 .02 0 .03.02l.02-.05c-.02 0-.03-.02-.03-.03z"/><path fill="#32578A" d="m28.84 14-.01.06h.05l.02-.06h-.06zm-.2.74v.06l.04.03.01-.04c-.03-.02-.04-.04-.04-.05z"/><path fill="#30578A" d="m28.8 14.01-.03.05h.06V14l-.04.01zm-.2.68v.06c0 .03.01.03.04.05v-.06a9.82 9.82 0 0 0-.04-.05z"/><path fill="#2C5588" d="m28.74 14.01-.03.06h.06l.02-.06h-.05zm-.18.64-.01.07.04.03.01-.06a.24.24 0 0 0-.04-.04z"/><path fill="#2B5489" d="m28.68 14.02-.02.07s.03 0 .04-.02l.01-.06h-.03zm-.16.57-.02.09a.2.2 0 0 0 .05.02v-.06a.2.2 0 0 1-.03-.05z"/><path fill="#255288" d="m28.61 14.05-.02.06.06-.01v-.08s-.03 0-.04.02zm-.14.49-.01.07a.1.1 0 0 0 .04.05l.02-.08-.05-.04z"/><path fill="#205186" d="m28.55 14.06-.03.09.07-.04.01-.06-.05.01zm-.11.4-.03.09c0 .02.02.03.04.05l.02-.08c0-.02-.01-.05-.03-.06z"/><path fill="#1A4C84" d="m28.47 14.11-.01.07c.01-.02.04-.03.06-.03l.03-.09-.08.05zm-.06.26-.04.1a.27.27 0 0 0 .04.08l.03-.1a1.13 1.13 0 0 0-.03-.08z"/><path fill="#184B84" d="M28.37 14.28v.06c-.03.04 0 .09 0 .13l.04-.1a.3.3 0 0 1 0-.19c.02-.02.05-.04.06-.07l-.01.07a.22.22 0 0 0-.09.1z"/><path fill="#EDC5BE" d="m30.75 14.86-.03.1c.03.07.03.12 0 .16a.17.17 0 0 1-.06.07l.04-.11a.37.37 0 0 0 .08-.1.17.17 0 0 0-.02-.12z"/><path fill="#E8C0BD" d="m30.71 14.79-.04.11c.03.02.04.05.05.07l.04-.11a.16.16 0 0 0-.05-.07zm-.08.3-.03.13.06-.03.04-.11c-.03 0-.04 0-.07.02z"/><path fill="#DEBABC" d="m30.66 14.74-.01.1a.35.35 0 0 0 .04.07l.03-.1-.06-.07zm-.09.36-.03.12h.07l.02-.13-.06.02z"/><path fill="#D3B2B9" d="m30.62 14.7-.02.1.04.05.02-.11c0-.02-.02-.03-.04-.05zm-.12.42-.03.1h.07l.03-.11-.07.01z"/><path fill="#C9ABB8" d="m30.57 14.67-.02.09.05.04.02-.1a.1.1 0 0 0-.05-.03zm-.13.45-.03.1h.07l.04-.1h-.07z"/><path fill="#BFA5B4" d="m30.52 14.62-.03.1c.03 0 .04.02.06.04l.02-.1c0-.02-.03-.03-.05-.04zm-.13.5-.03.1h.05l.04-.1h-.06z"/><path fill="#B7A1B1" d="m30.47 14.58-.02.1c.02 0 .03.01.05.04l.03-.09a.29.29 0 0 0-.06-.05zm-.14.54-.02.1h.05l.03-.1h-.06z"/><path fill="#AF9CAE" d="m30.43 14.56-.03.08.04.04.03-.1-.04-.02zm-.17.56-.03.09h.08l.02-.09h-.07z"/><path fill="#A799AF" d="m30.38 14.54-.03.06.05.04.03-.08-.05-.02zm-.16.57-.03.08c.03.02.04.02.07.02l.02-.09-.06-.01z"/><path fill="#A194AE" d="m30.32 14.5-.02.07.05.03.03-.06a.53.53 0 0 0-.06-.04zm-.16.6-.02.08h.05l.03-.08h-.06z"/><path fill="#9B91AD" d="M30.26 14.47v.07l.05.03.03-.06a.18.18 0 0 1-.08-.04zm-.14.62-.03.08h.05l.02-.07h-.04z"/><path fill="#958DAB" d="m30.22 14.46-.01.05.04.03.01-.06-.04-.02zm-.18.63-.01.05a.1.1 0 0 1 .06.03l.03-.07-.08-.01z"/><path fill="#908AA9" d="M30.17 14.43v.06l.04.02v-.05l-.04-.03zm-.18.65-.01.04a.17.17 0 0 0 .06.02l.01-.05-.06-.01z"/><path fill="#8685A8" d="m30.1 14.41-.01.05a.28.28 0 0 1 .07.03l.01-.06-.07-.02zm-.16.65v.04l.04.02v-.04c0-.02-.03-.02-.04-.02z"/><path fill="#8382A5" d="M30.05 14.4v.03l.05.03.02-.04c-.02-.01-.04-.03-.07-.03zm-.16.64-.02.05.06.01.01-.04-.05-.02z"/><path fill="#7C7EA3" d="M30 14.37v.04a.1.1 0 0 1 .04.02l.01-.04h-.03l-.02-.02zm-.18.66v.03c.02 0 .04.02.05.03l.02-.05h-.07z"/><path fill="#7779A0" d="M29.95 14.37v.01c.01.01.04.01.05.03v-.03l-.05-.02zm-.17.64-.01.03.05.02.02-.03c-.02 0-.02 0-.03-.02h-.03z"/><path fill="#7179A0" d="M29.89 14.35v.01a.2.2 0 0 1 .06.02v-.01l-.06-.02zm-.17.64v.02l.05.03V15h-.05z"/><path fill="#6B759D" d="m29.84 14.33.06.04v-.02l-.06-.02zm-.16.64-.01.02.05.02V15c0-.02-.03-.02-.04-.03z"/><path fill="#64719C" d="M29.8 14.32h-.02l.06.02v-.01h-.02l-.02-.01zm-.2.63.07.05v-.03l-.07-.02z"/><path fill="#5F6E99" d="M29.73 14.3c.03.02.04.02.07.02h-.02l-.05-.02zm-.17.62.06.04v-.01l-.06-.03z"/><path fill="#5B6B97" d="M29.67 14.3h.06-.06zm-.16.6.05.02c-.01 0-.03 0-.05-.02z"/><path fill="#546895" d="M29.62 14.28v.01l.06.01c-.01-.02-.04-.02-.06-.02zm-.15.59h-.01l.05.03c-.02 0-.02-.02-.04-.03z"/><path fill="#4C6693" d="m29.58 14.27-.02.01a.26.26 0 0 0 .07.01c-.02-.02-.04-.02-.05-.02zm-.17.56v.02l.06.03v-.01l-.06-.04z"/><path fill="#486392" d="M29.51 14.26v.02h.07c-.03-.02-.04-.02-.07-.02zm-.14.54-.01.02.06.04v-.01l-.05-.05z"/><path fill="#425F8F" d="m29.45 14.25-.01.03h.07v-.02l-.06-.01zm-.13.52v.01l.04.04v-.02c0-.02-.03-.02-.04-.03z"/><path fill="#3B5C8D" d="M29.4 14.25v.03h.06v-.03h-.07zm-.12.47-.01.04.04.03.01-.02a9.85 9.85 0 0 1-.04-.05z"/><path fill="#355A8B" d="m29.35 14.25-.02.03h.07l.01-.03h-.06zm-.13.43-.02.03.07.05v-.04c-.02 0-.03-.04-.05-.04z"/><path fill="#2E5689" d="m29.29 14.25-.01.04h.05l.02-.04h-.07zm-.1.38-.03.05c.02 0 .03.03.06.04l.01-.04-.05-.05z"/><path fill="#285288" d="M29.2 14.26v.04h.08v-.05h-.08zm-.06.3-.03.05.05.07.02-.05a.16.16 0 0 1-.04-.07z"/><path fill="#1E4F86" d="m29.15 14.28-.01.05.08-.03.01-.05c-.04 0-.05.02-.08.03zm-.06.21v.07a.16.16 0 0 0 .04.07l.01-.06-.05-.08z"/><path fill="#184B84" d="m29.07 14.38-.02.08c0 .04 0 .08.03.1l.02-.05a.32.32 0 0 1-.02-.16.14.14 0 0 1 .1-.07l-.03.05c-.04 0-.06.03-.08.05z"/></svg>