<svg width="36" height="36" xmlns="http://www.w3.org/2000/svg"><g fill="none"><path d="M18 0c2.837 0 5.52.656 7.907 1.825C31.884 4.753 36 10.895 36 18c0 9.942-8.058 18-18 18-9.94 0-18-8.057-18-18C0 8.06 8.06 0 18 0z" fill="#F2F4F7"/><path d="M26.39 25.718c-9.865 4.695-15.988.767-19.907-1.62-.243-.15-.655.036-.297.447 1.306 1.583 5.585 5.399 11.17 5.399 5.59 0 8.915-3.05 9.331-3.582.413-.527.121-.818-.296-.644zm2.772-1.53c-.265-.345-1.611-.41-2.458-.306-.849.101-2.122.62-2.012.931.057.117.173.065.756.012.584-.058 2.222-.265 2.563.181.343.45-.522 2.589-.68 2.934-.153.345.058.434.345.204.282-.23.794-.825 1.138-1.667.34-.846.549-2.027.348-2.29z" fill="#F90"/><path d="M18.04 6.041c1.54 0 3.55.41 4.764 1.575 1.477 1.379 1.4 3.2 1.392 5.19v5.177c0 1.481.614 2.13 1.192 2.93.204.286.249.628-.01.841a140.55 140.55 0 0 0-2.423 2.1l-.009-.01a.66.66 0 0 1-.747.076c-1.05-.871-1.237-1.276-1.815-2.108-1.734 1.77-2.962 2.3-5.212 2.3-2.66 0-4.733-1.641-4.733-4.928 0-2.566 1.393-4.314 3.372-5.168 1.717-.756 4.114-.89 5.946-1.099v-.41c0-.75.058-1.64-.382-2.29-.387-.582-1.126-.822-1.775-.822-1.205 0-2.282.618-2.544 1.899-.053.284-.262.565-.547.578l-3.069-.33c-.258-.057-.542-.266-.471-.662.707-3.718 4.065-4.839 7.071-4.839zm1.717 9.411c-2.286 0-4.7.49-4.7 3.185 0 1.365.706 2.29 1.92 2.29.89 0 1.686-.547 2.189-1.436.622-1.094.591-2.122.591-3.354z" fill="#000"/></g></svg>