<svg width="36" height="36" fill="none" xmlns="http://www.w3.org/2000/svg"><path d="M18 0c2.837 0 5.52.656 7.907 1.825C31.884 4.753 36 10.895 36 18c0 9.942-8.058 18-18 18-9.94 0-18-8.057-18-18C0 8.06 8.06 0 18 0z" fill="#F2F4F7"/><path d="M8.806 18.718a27.802 27.802 0 0 1-.177-.755c-.099-.456-.18-.909-.217-1.36a9.808 9.808 0 0 1-.021-.367 8.197 8.197 0 0 1 .054-1.415c.044-.34.115-.63.169-.877a4.19 4.19 0 0 1-.163.123 7.084 7.084 0 0 0-.206.758 8.68 8.68 0 0 0-.127.736 4.326 4.326 0 0 1-.73-.39l.007.354c.213.178.443.34.677.484a9.654 9.654 0 0 0 .023 1.798c-.49-.136-1.009-.342-1.449-.64l.007.355a6.127 6.127 0 0 0 1.52.918c.072.51.164 1.016.249 1.53-.67-.09-1.574-.335-2.276-.81l.006.354c.744.618 1.665 1.046 2.382 1.19.147 1.066.208 2.189-.053 3.477l.836-.49c.324-1.826-.131-3.434-.511-4.973z" fill="#D40000"/><path d="M10.644 13.835a4.693 4.693 0 0 1-1.975-.963l-.041-.051-.041.051a4.606 4.606 0 0 1-1.963.952l-.045.01-.005.045c-.187 1.363-.858 2.142-1.388 2.554l-.032.025.008.04c.066.326.097.576.097.784 0 .673-.175 1.302-.522 1.869l-.02.032.019.034c-.05 1.067 2.311 2.43 3.13 2.462.016.21.02-.04.02.082v.103c-1.077-.02-3.113-1.075-3.81-2.551L4 19.15l.104-.147c.246-.346.539-.925.539-1.721 0-.244-.042-.533-.129-.885l-.052-.21.181-.12c.457-.305 1.24-1.036 1.356-2.52l.019-.246.243-.036a3.982 3.982 0 0 0 2.154-1.06L8.626 12l.212.205c.783.758 1.686.99 2.154 1.06l.242.036.002.246c.01 1.113.5 1.567.692 1.702l-.171.149c-.474-.188-1.037-.61-1.113-1.563z" fill="#D40000"/><path d="M12.305 19.468a.898.898 0 0 1-.611.216c-.36 0-.554-.194-.554-.475 0-.287.209-.445.676-.46l.489-.014v.733zm.941.827c-.05-.158-.064-.41-.064-.899v-1.344c0-.891-.51-1.236-1.352-1.236-.452 0-.877.072-1.33.374l.281.539a1.66 1.66 0 0 1 .877-.252c.36 0 .647.165.647.575v.087l-.604.021c-.87.029-1.423.41-1.423 1.114 0 .669.489 1.093 1.114 1.093.453 0 .762-.173.985-.374l.143.302h.726zm2.121.072c-1.107 0-1.675-.798-1.675-1.754 0-1.035.748-1.797 1.761-1.797.46 0 .776.115.97.237l-.014.705a1.345 1.345 0 0 0-.855-.281c-.583 0-1 .46-1 1.093 0 .582.317 1.1.993 1.1.323 0 .567-.101.805-.238l.215.568a2.261 2.261 0 0 1-1.2.367zm3.062 0c-1.107 0-1.675-.798-1.675-1.754 0-1.035.747-1.797 1.761-1.797.46 0 .776.115.97.237l-.014.705a1.344 1.344 0 0 0-.855-.281c-.582 0-1 .46-1 1.093 0 .582.317 1.1.993 1.1.323 0 .568-.101.805-.238l.215.568a2.262 2.262 0 0 1-1.2.367zm2.159-3.997a.525.525 0 0 1-.532-.525c0-.28.237-.517.532-.517.302 0 .539.23.539.517a.531.531 0 0 1-.54.525zm-.431 3.925h.862v-3.4h-.862v3.4zm3.907-1.704c0 .64-.273 1.107-.812 1.107-.525 0-.834-.445-.834-1.107 0-.632.266-1.092.813-1.092.531 0 .833.438.833 1.092zm.884-.007c0-.517-.157-.963-.452-1.28-.302-.308-.726-.488-1.251-.488-.496 0-.906.18-1.208.481-.316.324-.495.784-.495 1.316 0 .546.186 1.014.524 1.33.295.273.698.424 1.172.424.51 0 .927-.18 1.229-.49.316-.315.482-.775.482-1.293zm2.739 1.711v-1.998c0-.353-.065-.74-.503-.74-.302 0-.597.157-.863.359v2.379h-.862v-3.4h.733l.093.367c.367-.274.733-.446 1.194-.446.517 0 1.07.309 1.07 1.222v2.257h-.862zm3.371-.827a.898.898 0 0 1-.61.216c-.36 0-.554-.194-.554-.475 0-.287.208-.445.676-.46l.488-.014v.733zm.942.827c-.05-.158-.065-.41-.065-.899v-1.344c0-.891-.51-1.236-1.351-1.236-.453 0-.877.072-1.33.374l.28.539c.216-.13.504-.252.878-.252.359 0 .646.165.646.575v.087l-.603.021c-.87.029-1.424.41-1.424 1.114 0 .669.49 1.093 1.114 1.093.453 0 .762-.173.985-.374l.144.302H32z" fill="#000"/></svg>