<svg height="36" viewBox="0 0 36 36" width="36" xmlns="http://www.w3.org/2000/svg"><mask id="a" fill="#fff"><path d="M0 0h14.186v5.425H0z" fill-rule="evenodd"/></mask><g fill="none" fill-rule="evenodd"><path d="M18 0c2.837 0 5.52.656 7.907 1.825C31.884 4.753 36 10.895 36 18c0 9.942-8.058 18-18 18-9.94 0-18-8.057-18-18C0 8.06 8.06 0 18 0z" fill="#f2f4f7" fill-rule="nonzero"/><g fill="#1879bf"><path d="M6.664 15.018 4 20.404h4.571l-.669-1.543H6.691l.823-1.838 1.484 3.38h1.988l-2.562-5.385zm15.791.004v1.529h2.024v3.853h1.704V16.55h.818l.011-.028.609-1.501zm5.611.003-.623 1.522h.738L26.406 20.4H32l-.715-1.544h-2.2l1.505-3.832z"/><path d="M10.042 2.506h-.487V1.484h.469c.231.007.459.14.466.465.01.476-.266.547-.448.557zm2.534-.546v2.552l-1.145-1.646c.662-.416.816-.815.816-1.49-.003-.935-.9-1.33-1.726-1.355H7.813v1.673C7.414.819 6.381.025 5.135.021H3.179v2.52L1.628 0H0v2.152l1.572 3.252v-2.52l1.509 2.519h1.687V1.55c.868-.021 1.48.231 1.512 1.085.028.746-.396 1.071-1.099 1.201v1.551c1.07.02 2.194-.532 2.632-1.814v1.83h1.739V2.789l.472.84 1.001 1.796h3.161V1.96z" mask="url(#a)" transform="translate(9.88 15)"/></g></g></svg>