<svg width="36" height="36" fill="none" xmlns="http://www.w3.org/2000/svg"><path d="M18 0c2.837 0 5.52.656 7.907 1.825C31.884 4.753 36 10.895 36 18c0 9.942-8.058 18-18 18-9.94 0-18-8.057-18-18C0 8.06 8.06 0 18 0z" fill="#F2F4F7"/><path d="M15.582 21.751c0-.472.418-.71.845-.71.412 0 .846.237.846.71 0 .467-.426.717-.846.717-.432 0-.845-.25-.845-.717zm.22 0c0 .311.271.51.625.51.316 0 .62-.2.62-.51 0-.316-.303-.495-.62-.495-.312 0-.624.179-.624.495zm3.213-.683h.823c.373 0 .67.303.672.678 0 .359-.237.696-.672.696h-.823v-1.374zm.224 1.15h.568a.46.46 0 0 0 .477-.482c-.005-.239-.17-.444-.477-.444h-.567v.926zm-4.815-.672v.208h.616v.25c-.129.13-.272.23-.686.236-.518.007-.789-.363-.782-.665.006-.393.388-.633.757-.633.262 0 .524.09.745.228l.14-.192c-.229-.137-.566-.273-.834-.27-.512.003-1.056.267-1.056.867 0 .492.441.9 1.024.893.332-.003.667-.116.922-.334v-.589h-.846zm3.398-.478h-.223v1.373h1.062v-.223h-.838l-.002-1.15z" fill="#F6921E"/><path d="M25.59 21.068h.224v1.374h-.223v-.39h-.916v.39h-.222v-1.374h.222v.76h.916v-.76zm4.493.225h.528v1.149h.224v-1.15h.536v-.224h-1.288v.225zm1.626 1.149h.224v-1.374h-.224v1.374zm-5.564 0h.253l.206-.391h.813l.207.39h.254l-.728-1.373h-.285l-.72 1.374zm1.153-.615h-.577l.287-.548.29.548zm-3.19.156c-.012-.2-.164-.327-.48-.35-.177-.013-.3-.007-.473-.044-.12-.027-.167-.092-.166-.162.003-.227.547-.244.921-.015l.13-.188a1.503 1.503 0 0 0-.664-.183c-.278-.013-.612.078-.63.383-.01.185.142.334.412.386.082.016.174.023.282.027.121.006.423-.009.435.164.018.277-.649.352-1.07.03l-.127.186s.275.235.75.246c.291.006.7-.12.68-.48zm-3.473.458h.248l.185-.39h.96l.19.39h.25l-.832-1.712h-.185l-.816 1.712zm1.284-.614h-.743l.37-.771.373.77zm7.597.302-1.081-1.06h-.226v1.372h.224v-1.036l1.061 1.036h.245v-1.373h-.223v1.061zm-25.441.312h.248l.187-.39h.958l.19.39h.25l-.833-1.712h-.184l-.816 1.712zm1.285-.614h-.742l.367-.771.375.77zm3.668-.112v.225h.475v.147c-.068.066-.196.157-.517.162-.405.006-.61-.265-.606-.498.004-.302.296-.476.585-.476.213 0 .417.06.595.171l.127-.172c-.19-.114-.458-.226-.68-.224-.41.003-.85.214-.85.701 0 .4.357.727.825.721.27-.002.538-.094.745-.27v-.487h-.699zm1.284-.647h-.223v1.373h1.062v-.224h-.838l-.001-1.149zm1.008.685c0 .467.414.716.846.716.42 0 .845-.248.845-.716 0-.473-.435-.711-.845-.711-.427 0-.846.239-.846.711zm.221 0c0-.316.311-.497.623-.497.317 0 .624.178.624.495 0 .31-.308.51-.624.51-.354 0-.623-.197-.623-.508zm-3.972.376-1.081-1.06h-.226v1.372h.224v-1.036l1.062 1.036h.244v-1.373H7.57v1.061zm5.161-2.325c-.048.034-.126.057-.125.06v.018a.16.16 0 0 1-.032.005c-.012 0-.025-.003-.028-.027-.002-.011.005-.022.012-.03a.48.48 0 0 0 .073-.083.283.283 0 0 0 .046-.149c0-.018-.018-.045-.008-.072.005-.016.091.035.122.109.035.084-.06.17-.06.17zm-.53-3.92a.474.474 0 0 1-.207.028l-.148-.026-.048-.024-.008.007a.17.17 0 0 0 .042.086c.04.04.072.058.125.128.02.025.115.071.136.06.01-.005.033-.034.03-.044-.01-.038.008-.057.022-.068.065-.05.113-.062.154-.118.014-.03.082-.093.06-.095l-.159.066zm.422-1.081c.104.096.18-.086.187-.094.032-.04.092-.027.107-.015.179.143.11.304.056.352-.015.013-.027.002-.036.013-.033.054-.063.075-.042.116l.043.08.035.084.025.087c.028.113.04.231-.015.339l-.047.09-.12.207-.01.021c-.022.058-.051.116-.068.176a.483.483 0 0 0 .01.225c.023.101.035.205.038.31a.941.941 0 0 1-.035.312.723.723 0 0 1-.145.262c-.065.071-.185.109-.173.12.144.13.476-.058.607-.149.188-.13.345-.324.386-.553.005-.25-.042-.47.194-.637l.04-.027a.688.688 0 0 0 .23-.298l.017-.046c.078-.258-.027-.545-.18-.755-.14-.192-.296-.365-.508-.48-.132-.07-.266-.142-.362-.26-.047-.06-.094-.12-.16-.162-.06-.037-.115-.03-.183-.035-.123-.01-.192.05-.265.146a.343.343 0 0 0-.057.22c.003.064 0 .135.067.167.128.061.254.087.364.184zm-.125 4.83-.002-.004c-.009-.015-.016-.03-.028-.044a.38.38 0 0 0-.04-.04.178.178 0 0 0-.083-.035c-.015-.003-.015.064-.013.071.007.035.03.067.039.101.015.052.01.118-.05.137-.062.02-.123-.074-.151-.2-.022-.104.051-.219.087-.315l.055-.126.057-.124a1.16 1.16 0 0 0 .099-.625c-.004-.033-.11-.53-.16-.502l-.01.023v.024l.003.017.004.03.01.034a.97.97 0 0 1 .014.415c-.026.139-.122.24-.137.382-.011.027-.029.041-.053.044l-.052-.057a1.951 1.951 0 0 1-.291-.447l-.053-.124a1.713 1.713 0 0 1-.11-.559l-.004-.137.003-.142.01-.137.048-.34a.896.896 0 0 0-.04-.27c-.011-.043-.022-.064-.033-.062-.028.075-.046.157-.064.235-.03.123-.027.253-.06.376a.172.172 0 0 1-.086.117c-.061.032-.13.018-.19.042a.408.408 0 0 0-.219.228.55.55 0 0 0-.044.155c-.008.06.012.127-.01.185l-.01.032-.143.284-.07.137-.03.059c-.018.037-.039.063-.039.107a.402.402 0 0 0 .072.209c.02.033.046.063.068.096l.05.073.014.03a.287.287 0 0 1 .022.115c0 .01-.008.06-.028.038-.01-.01-.015-.027-.021-.039-.009-.013-.021-.033-.033-.034-.038-.004-.05.02-.056.053-.007.039-.004.076-.027.109-.026.038-.034.048-.075.062-.017.006-.015.01.003.016a.693.693 0 0 0 .351.019c.05-.009.076-.041.074-.091.019-.004.04-.004.058-.006.256-.026.47-.037.742-.032l.155.009c.016.001.023-.002.023 0a.656.656 0 0 1-.045.182.314.314 0 0 0 .04.327c.05.07.088.143.172.178a.295.295 0 0 0 .038.012l.018.003.023.005c.094 0 .168-.088.195-.142a.22.22 0 0 0 .026-.083.104.104 0 0 0-.013-.054zm-1.046-.819c-.154.017-.246.02-.44.06l-.069.013-.025.003-.013-.012-.03-.04-.021-.038-.02-.044-.012-.04-.012-.047c-.012-.065.071-.115.11-.158a.84.84 0 0 0 .135-.191l.023-.04.036-.078c.032-.074.054-.12.063-.178.018-.12-.033-.19-.012-.235a.08.08 0 0 1 .043-.04.676.676 0 0 1 .179-.033.22.22 0 0 1 .012.1.615.615 0 0 0 .016.104l.02.101c.07.316.2.543.442.765l.034.03a1.644 1.644 0 0 0-.459-.002zm-1.232.057c.085.104.096.267.085.346-.008.056-.078.167-.095.167a.284.284 0 0 1-.11-.046c-.027.002-.38.038-.51.124-.04.027-.07.079-.11.099-.046.023-.101.013-.151.02-.051.005-.103.021-.153.033-.12.028-.24.057-.358.088-.204.052-.417.101-.612.183l-.11.044-.08.022-.077.024-.155.045-.08.02-.077.02c-.15.038-.298.059-.453.064-.074.002-.106-.013-.165-.059-.083-.064-.114-.08-.22-.086-.074-.003-.14-.019-.21-.032-.085-.017-.173.02-.259.019-.049-.012-.06-.027-.059-.046.16-.133.337-.171.533-.225a40.703 40.703 0 0 1 1.078-.277c.177-.044.354-.09.534-.121.12-.021.233-.046.351-.073a.984.984 0 0 1 .225-.02c.068 0 .112-.045.177-.056.036-.006.074-.006.11-.01.15-.022.303-.059.454-.087.094-.017.189-.032.284-.045.072-.07.133-.222.195-.243.035-.01.065-.004.075.015.015.032-.057.052-.057.093zm1.882-4.474-.012-.005c-.04-.016-.101.031-.123.06-.044.057-.074.122-.12.179l-.03.032-.032.034-.034.037-.034.052-.054.08-.063.104c-.032.057-.07.122-.069.189.002.022.003.047.009.069l.014.05.012.028.032.062c.013.036.025.068.03.099.044.24-.1.373.078.618.083.113.169.226.24.348.038.064.071.13.104.197.03.058.06.118.073.182a.49.49 0 0 1-.019.268c-.024.06-.02.124-.05.181-.012.023-.05.023-.061.004-.013-.02-.01-.046-.004-.067.011-.054.04-.09.035-.15-.014-.157-.147-.296-.249-.404-.1-.107-.21-.202-.287-.33a.628.628 0 0 1-.085-.247 1.467 1.467 0 0 1-.323.231l-.044.032c-.21.186-.33.452-.391.722l-.012.07c-.027.154-.03.334-.08.48-.034.098-.097.148-.154.229-.136.19-.264.388-.516.43-.23.037-.457-.02-.533-.263l-.006-.024a.29.29 0 0 1 .038-.26.438.438 0 0 1 .087-.099.262.262 0 0 1 .164-.044.09.09 0 0 1 .047.023l.018.028c.034.018.074-.002.093.043.038.094-.133.198-.133.198-.04.03-.136.049-.154.074-.047.067.039.179.098.2.077.027.177.005.251-.02.26-.087.4-.297.423-.564l.014-.108.011-.105.014-.21.003-.106c0-.105-.003-.21.026-.312.021-.07.043-.132.075-.198.023-.048.055-.09.082-.136l.044-.057.048-.053.052-.048.083-.062.044-.027.047-.023c.119-.058.54-.145.532-.218-.014-.115-.028-.23-.097-.327-.03-.041-.07-.075-.1-.116-.075-.103-.122-.21-.095-.34a.332.332 0 0 1 .063-.139l.02-.027c.142-.145.322-.243.468-.384l.064-.052c.084-.074.173-.18.288-.199.051-.008.134.007.158.061v.019c-.001.01-.007.014-.018.011zm-.197.536c.019.022-.114.185-.114.208l-.022.01c-.014-.037.014-.094.007-.105-.015-.02-.045-.002-.047-.032-.016-.017-.037-.024-.034-.05.007-.048.166-.083.21-.03zm.633.02s.005.004-.003.027l-.013.023c-.022.035-.135.12-.228.085-.031-.012-.06.072-.12.068-.026-.003.005-.046.017-.064.03-.046.042-.094.07-.132a.04.04 0 0 1 .03-.018.439.439 0 0 1 .151.012l.021.007c.014.002.019-.007.026-.012.017-.01.036-.019.049.003zm-.517.279c.048.044.124-.037.13.018.004.023-.04.042-.056.051-.047.027-.07.025-.07.025-.019.01-.035.028-.056.033-.045.03-.039.09-.05.12.001.036.047.044.071.065.045.032.086.13.159.113.012-.002.025-.002.037-.005l.03-.006a.303.303 0 0 1 .052-.01l.02.001.015.002c.007.005 0 .014.011.014.034-.002.078.033.039.062a.083.083 0 0 1-.036.017c-.024.004-.047.017-.071.021a.208.208 0 0 1-.073-.004c-.017-.004-.035 0-.052-.004a.159.159 0 0 1-.049-.026c-.028-.02-.06-.04-.085-.063-.018-.015-.057-.044-.081-.041-.02.002-.045.017-.061.026a.24.24 0 0 0-.045.035c-.016.015-.048.041-.067.026-.01-.014.02-.079.08-.142.016-.017.062-.026.062-.074a.608.608 0 0 0-.045-.121c-.019-.013-.013-.028-.028-.043-.099-.07-.076-.097-.056-.105.056-.002.17-.044.266.007l.01.008zm-1.571 3.8c.003-.02.017-.045.038-.047.047-.003.053.077.062.107.007.03.027.052.03.082a.164.164 0 0 1-.01.087c-.005.012-.017.016-.03.016-.015 0-.031 0-.047.003-.015.002-.032.002-.046.008-.016.008-.032.017-.05.021-.005.002-.047.003-.029-.009.013-.01.022-.02.034-.031a.588.588 0 0 0 .05-.06.161.161 0 0 0 .02-.1c-.003-.012-.013-.026-.017-.039a.089.089 0 0 1-.004-.034v-.004h-.001zm2.59.143.002.026.007.048.012.042c0 .003.03.075.041.1a.46.46 0 0 1 .04.107.272.272 0 0 1-.03.204l-.021.023a.55.55 0 0 1-.168.12.536.536 0 0 1-.11.034c-.014.003-.038-.06-.023-.069a.395.395 0 0 0 .072-.057c.025-.03.064-.062.079-.1a.251.251 0 0 0 .01-.123c-.005-.05-.02-.102-.026-.152a2.348 2.348 0 0 1-.015-.396c0-.17.092-.322.151-.475.056-.145.137-.277.198-.42a1.81 1.81 0 0 0 .132-.535c.016-.172-.026-.37.032-.534.016-.046.06-.088.063-.137.01-.004.021 0 .029.01l.01.03c.007.055-.022.119-.024.175-.002.067.005.134.005.2.001.107.018.216.027.322a1.71 1.71 0 0 1-.013.515 1.418 1.418 0 0 1-.205.468l-.078.112-.03.051.151.001.4.036h.065l.064.002c.07.002.146-.001.215.017.02.005.039.02.06.02.065 0 .126-.044.192-.026.096.027.196.036.295.05.174.024.709.037.788.065.02.007 1.064.14 1.205.172.183.042.346.099.519.15.03.01.062.016.092.02a.459.459 0 0 1 .13.049c.022.018.084.015.11.014.012 0 .036.002.044.01.012.014.033.04.071.056.039.016.1.026.098.048a.297.297 0 0 1-.094-.013l-.269-.065-.33-.08a9.842 9.842 0 0 0-.296-.074c-.044-.01-.087-.025-.131-.032-.041-.006-.085.003-.124-.009-.043-.014-.056-.031-.107-.024-.03.003-.046.009-.074.002-.04-.01-.07-.032-.113-.037-.04-.006-.082-.001-.122-.008l-.157-.023c-.08-.013-.165-.042-.246-.045-.023 0-.176-.027-.21-.025-.039.001-.078.003-.116 0a.805.805 0 0 0-.102-.006c-.05.006-.098.007-.149.009-.07.002-.162.016-.23-.006-.02-.007-.028-.015-.048-.019-.02-.003-.048 0-.063.013.131.088.339.073.492.086l.171.014c.433.056.875.084 1.296.206l.258.07c.038.011.076.021.113.033l.28.08.362.103.357.102c.096.027.411.158.483.187.031.012.063.024.093.039l.03.02a.332.332 0 0 1-.133.009 1.605 1.605 0 0 1-.174-.028c-.021-.004-.041-.02-.06-.03a2.73 2.73 0 0 0-.37-.112c-.078-.003-.151-.019-.227-.034a4.315 4.315 0 0 1-.256-.062c-.016-.005-.031-.013-.047-.019-.019-.006-.032-.02-.049-.026-.027-.01-.06-.008-.088-.016-.034-.009-.048-.031-.078-.044-.074-.035-.15.004-.225.009a2.507 2.507 0 0 1-.457-.051c-.033-.013-.028-.04-.068-.043-.038-.003-.068.023-.11.02a.557.557 0 0 1-.162-.04l-.08-.023a4.647 4.647 0 0 0-.812-.147l-.127-.014a1.835 1.835 0 0 0-.185-.008c-.074 0-.144-.027-.214-.045-.027-.007-.11-.042-.138-.025a.094.094 0 0 1-.036.016c-.045.012-.091-.01-.135-.02-.02-.006-.041-.015-.063-.017a.046.046 0 0 0-.03.006c-.01.006-.017.02-.027.025-.01.006-.023.01-.034.015-.03.011-.063.006-.094.003l-.1-.01-.16-.012a14.408 14.408 0 0 0-.551-.032l-.207-.007a1.59 1.59 0 0 0-.122-.009z" fill="#0A0A0A"/></svg>