<svg height="36" viewBox="0 0 36 36" width="36" xmlns="http://www.w3.org/2000/svg"><mask id="a" fill="#fff"><path d="M0 0h27.82v15.057H0z" fill-rule="evenodd"/></mask><g fill="none" fill-rule="evenodd"><path d="M18 0c2.837 0 5.52.656 7.907 1.825C31.884 4.753 36 10.895 36 18c0 9.942-8.058 18-18 18-9.94 0-18-8.057-18-18C0 8.06 8.06 0 18 0z" fill="#f2f4f7" fill-rule="nonzero"/><path d="m19.149 18.663-3.277 6.394h1.356l.42-.858h1.286l-.061.858h1.374l.272-6.394zm.104 1.966-.235 2.258h-.8zM7.275 18.663 4 25.057h1.354l.421-.858h1.286l-.062.858h1.375l.27-6.394zm.105 1.966-.235 2.258h-.801zm5.582-1.966-.952 3.424-.506-3.424h-1.212l-1.785 6.394h1.355l.886-3.18.466 3.18h1.356l1.785-6.394zm1.706 0-.382 1.373h1.286l-1.398 5.021h1.35l1.4-5.02h1.225l.383-1.374z" fill="#231916"/><path d="M27.821 11.286a24.01 24.01 0 0 0-11.436-8.709c2.779.091 5.417.5 8.008 1.174l-1.806-1.529A33.839 33.839 0 0 0 10.485 0a34.12 34.12 0 0 0-7.429.815L0 2.931c.38-.015.975-.028 1.359-.028 9.767 0 18.413 4.792 23.717 12.154z" fill="#d70010" mask="url(#a)" transform="translate(4.014 10)"/></g></svg>