<svg height="36" viewBox="0 0 36 36" width="36" xmlns="http://www.w3.org/2000/svg"><mask id="a" fill="#fff"><path d="M0 0h20.203v6.263H0z" fill-rule="evenodd"/></mask><mask id="b" fill="#fff"><path d="M0 0h15.816v6.14H0z" fill-rule="evenodd"/></mask><g fill="none" fill-rule="evenodd"><path d="M18 0c2.837 0 5.52.656 7.907 1.825C31.884 4.753 36 10.895 36 18c0 9.942-8.058 18-18 18-9.94 0-18-8.057-18-18C0 8.06 8.06 0 18 0z" fill="#f2f4f7" fill-rule="nonzero"/><g fill="#0067a5"><path d="M9.1 5.91V3.648c0-.35-.113-.65-.329-.865-.215-.215-.526-.333-.873-.333-.476 0-.857.19-1.137.563l-.008-.434V2.55H5.328v.246h.56V5.91h-1L2.836.02 2.83 0h-.252L.565 5.91H0v.247h1.678V5.91H.904l.557-1.683h1.795l.565 1.683h-.78v.247h4.28V5.91h-.56V4.183c.003-1.03.551-1.405.921-1.405.358 0 .541.232.541.688V5.91H7.7v.247h1.968V5.91zM2.334 1.574l.84 2.399H1.551zm9.92 3.863h-.267l-.006.023c-.03.168-.137.45-.478.448-.266 0-.404-.188-.404-.555V2.797h.877v-.25h-.87V1.443l-.03.003c-.206.022-.623.053-.842.053h-.028v1.05h-.579V2.8h.582v2.225c0 .82.353 1.236 1.045 1.236.795 0 .96-.605.993-.79zm7.43-2.595c-.292-.258-.698-.392-1.173-.392-.426 0-.849.193-1.163.535-.335.36-.52.86-.523 1.397 0 .529.19 1.013.541 1.363a1.75 1.75 0 0 0 1.253.519c.916-.003 1.431-.681 1.521-1.308l.005-.034h-.282l-.003.025c-.064.51-.498 1.053-1.176 1.05-.54 0-.85-.37-.854-1.014V4.13h2.372v-.031c-.02-.55-.194-.972-.519-1.257zm-.499 1.019h-1.36v-.384c0-.252.072-.46.21-.596a.658.658 0 0 1 .467-.187c.437.002.68.279.68.783.003 0 .003.29.003.384z" mask="url(#a)" transform="translate(4 15)"/><path d="M14.889 5.669a.463.463 0 1 1 .928.002.463.463 0 0 1-.928-.002zm.851 0a.374.374 0 0 0-.386-.387.375.375 0 0 0-.389.387c0 .227.162.39.389.39a.375.375 0 0 0 .386-.39zm-.493.264h-.067v-.53h.227c.137 0 .185.05.185.146 0 .1-.073.14-.163.148l.157.236h-.075l-.149-.236h-.112v.236zm.093-.297c.072 0 .176.011.176-.087 0-.073-.062-.084-.126-.084h-.146v.171zm-.695.257h-.548V3.455c0-.633-.435-1.025-1.129-1.025-.658 0-1.016.327-1.181.546-.182-.359-.538-.549-1.028-.546-.47 0-.89.174-1.17.476l-.009-.347v-.028H8.128v.246h.593v3.114h-.585v.246h1.977v-.246h-.504v-1.72c.016-.501.039-.823.218-1.069a.828.828 0 0 1 .641-.333c.297 0 .403.224.415.249.075.143.075.389.075.627v2.246h-.526v.246h1.937v-.246h-.506v-1.72c.016-.501.039-.823.218-1.069a.828.828 0 0 1 .641-.333c.297 0 .403.224.414.249.076.143.076.389.076.627v2.246h-.524v.246h1.985v-.246h-.028zm-10.694 0V3.594c0-.537-.328-1.161-1.244-1.161-.711 0-1.08.344-1.237.523V0H.042v.257h.534v5.636H0v.247h2.021v-.247H1.47V4.144c0-.605.207-.939.38-1.112a.857.857 0 0 1 .605-.26c.49 0 .594.402.597.741v2.38H2.5v.247h2.021v-.247z" mask="url(#b)" transform="translate(16.184 15.017)"/></g></g></svg>