<svg width="36" height="36" fill="none" xmlns="http://www.w3.org/2000/svg"><defs><linearGradient id="a" x1="6.977" y1="16.645" x2="10.213" y2="16.645" gradientUnits="userSpaceOnUse"><stop stop-color="#DB2133"/><stop offset=".132" stop-color="#DC2832"/><stop offset=".329" stop-color="#DF3D2F"/><stop offset=".566" stop-color="#E35E2A"/><stop offset=".832" stop-color="#EA8B24"/><stop offset="1" stop-color="#EEAC1F"/></linearGradient><linearGradient id="b" x1="10.215" y1="19.933" x2="12.701" y2="19.933" gradientUnits="userSpaceOnUse"><stop stop-color="#78C7C9"/><stop offset=".148" stop-color="#5EB4BB"/><stop offset=".408" stop-color="#3597A7"/><stop offset=".646" stop-color="#188297"/><stop offset=".852" stop-color="#06768E"/><stop offset="1" stop-color="#00718B"/></linearGradient><linearGradient id="c" x1="4" y1="20.243" x2="6.486" y2="20.243" gradientUnits="userSpaceOnUse"><stop stop-color="#C5E4E5"/><stop offset=".585" stop-color="#9EC3CF"/><stop offset="1" stop-color="#87B0C2"/></linearGradient><linearGradient id="d" x1="5.113" y1="18.775" x2="8.349" y2="18.775" gradientUnits="userSpaceOnUse"><stop stop-color="#78C7C9"/><stop offset=".148" stop-color="#5EB4BB"/><stop offset=".408" stop-color="#3597A7"/><stop offset=".646" stop-color="#188297"/><stop offset=".852" stop-color="#06768E"/><stop offset="1" stop-color="#00718B"/></linearGradient><linearGradient id="e" x1="6.976" y1="19.396" x2="10.969" y2="19.396" gradientUnits="userSpaceOnUse"><stop stop-color="#87B0C2"/><stop offset=".415" stop-color="#9EC3CF"/><stop offset="1" stop-color="#C5E4E5"/></linearGradient><linearGradient id="f" x1="6.484" y1="17.268" x2="8.348" y2="17.268" gradientUnits="userSpaceOnUse"><stop stop-color="#FBDFA9"/><stop offset=".351" stop-color="#F8D1A5"/><stop offset="1" stop-color="#EFAE9B"/></linearGradient></defs><path d="M18 0c2.837 0 5.52.656 7.907 1.825C31.884 4.753 36 10.895 36 18c0 9.942-8.058 18-18 18-9.94 0-18-8.057-18-18C0 8.06 8.06 0 18 0z" fill="#F2F4F7"/><path d="m7.844 15.267-.866 1.238a.84.84 0 0 1 1.31.109l.063.09.012.019 1.095 1.566.756-1.082-1.357-1.94A.616.616 0 0 0 8.355 15h-.011a.615.615 0 0 0-.5.267z" fill="url(#a)"/><path d="M12.435 21.467a.62.62 0 0 0 .153-.864L10.97 18.29l-.757 1.082 1.358 1.942a.62.62 0 0 0 .863.154z" fill="url(#b)"/><path d="M5.726 18.907a.841.841 0 0 0-.613.264l-1 1.432a.62.62 0 0 0 1.015.71l1.358-1.941-.098-.14a.834.834 0 0 0-.662-.325z" fill="url(#c)"/><path d="m8.288 19.965.063-.091-1.108-1.585-.757-1.082-1.372 1.964a.84.84 0 0 1 1.274.06l.098.14.492.704c.151.16.367.262.606.264h.014a.835.835 0 0 0 .69-.374z" fill="url(#d)"/><path d="m10.214 17.207-.756 1.082-1.095 1.568-.012.018-.063.09a.837.837 0 0 1-1.31.11l.864 1.237a.62.62 0 0 0 .505.266h.005a.62.62 0 0 0 .505-.266l2.113-3.023-.756-1.082z" fill="url(#e)"/><path d="M8.288 16.614a.837.837 0 0 0-1.31-.11l-.492.703.507.726.25.356 1.108-1.584-.063-.091z" fill="url(#f)"/><path d="M14.584 18.988h-.19l-.159-.405h-.577l-.156.405h-.19l.548-1.4h.178l.546 1.4zm-.414-.574-.225-.569-.223.57h.448zm1.665-.826h-.174v1.049l-.64-1.05h-.167v1.4h.176v-1.049l.64 1.05h.166v-1.4zm1.322 0h-1.032v.172h.428v1.226h.176v-1.225h.428v-.173zm1.307.7c0 .206-.037.366-.112.477a.512.512 0 0 1-.456.24.512.512 0 0 1-.455-.24c-.075-.113-.112-.271-.112-.477 0-.206.037-.365.112-.477a.515.515 0 0 1 .456-.24c.197 0 .35.08.455.24.074.112.112.27.112.477zm-.176 0c0-.172-.028-.3-.085-.382a.346.346 0 0 0-.306-.161.344.344 0 0 0-.307.16c-.057.083-.085.211-.085.383 0 .171.028.3.085.384.07.106.173.16.306.16a.346.346 0 0 0 .307-.16c.057-.086.085-.213.085-.384zm1.365-.7h-.89v1.398h.174v-.642h.64v-.163h-.64v-.422h.716v-.171zm1.336 1.4h-.19l-.159-.405h-.577l-.156.405h-.19l.548-1.4h.178l.546 1.4zm-.414-.574-.225-.569-.223.57h.448zm1.111-.189v.169h.346a.587.587 0 0 1-.066.297.269.269 0 0 1-.25.14c-.255 0-.382-.18-.382-.543 0-.362.13-.543.39-.543.07 0 .133.017.186.052.04.027.086.072.14.136l.134-.11a.833.833 0 0 0-.2-.185.499.499 0 0 0-.26-.068.494.494 0 0 0-.442.222.886.886 0 0 0-.124.496.9.9 0 0 0 .122.494c.098.15.243.225.435.225a.47.47 0 0 0 .193-.033.328.328 0 0 0 .142-.13v.145h.159l.002-.763h-.525zm2.05.763h-.19l-.159-.405h-.576l-.157.405h-.19l.548-1.4h.179l.545 1.4zm-.413-.574-.224-.569-.223.57h.447zm1.683.166a.353.353 0 0 0-.215-.335 5.955 5.955 0 0 0-.397-.122c-.143-.042-.215-.104-.215-.185 0-.127.095-.19.282-.19a.42.42 0 0 1 .217.046.39.39 0 0 1 .135.171l.16-.074a.57.57 0 0 0-.2-.244.586.586 0 0 0-.31-.073.547.547 0 0 0-.315.085.319.319 0 0 0-.144.28c0 .143.072.245.214.306l.397.114c.143.046.215.12.215.22a.216.216 0 0 1-.107.193.406.406 0 0 1-.22.058.435.435 0 0 1-.254-.062c-.065-.046-.108-.122-.126-.228l-.174.03c.05.29.236.436.555.436a.56.56 0 0 0 .348-.108.386.386 0 0 0 .154-.317zm1.2-.992h-1.03v.172h.428v1.226h.176v-1.225h.428v-.173h-.001zm1.274 1.4h-.19l-.16-.405h-.576l-.156.405h-.19l.547-1.4h.18l.545 1.4zm-.413-.574-.225-.569-.223.57h.448zm2.647-.427c0 .154-.056.265-.169.335a.593.593 0 0 1-.307.066h-.348v.6h-.177v-1.4h.525c.133 0 .235.02.307.066.113.07.169.18.169.333zm-.177 0c0-.088-.029-.15-.086-.187a.415.415 0 0 0-.213-.04h-.348v.455h.348c.1 0 .17-.015.213-.043.057-.033.086-.095.086-.185zm1.265.829h-.653v-1.228h-.174v1.4h.827v-.172zM32 17.823a.852.852 0 0 0-.201-.185.488.488 0 0 0-.261-.068.507.507 0 0 0-.453.24c-.076.113-.113.271-.113.477 0 .205.038.364.113.477.104.16.255.24.453.24a.488.488 0 0 0 .26-.068.846.846 0 0 0 .2-.185l-.135-.11a.69.69 0 0 1-.14.136.322.322 0 0 1-.185.052c-.26 0-.39-.181-.39-.543 0-.362.13-.543.39-.543.07 0 .133.018.184.053a.71.71 0 0 1 .14.136l.138-.11" fill="#000"/></svg>