<svg width="36" height="36" fill="none" xmlns="http://www.w3.org/2000/svg"><path d="M18 0c2.837 0 5.52.656 7.907 1.825C31.884 4.753 36 10.895 36 18c0 9.942-8.058 18-18 18-9.94 0-18-8.057-18-18C0 8.06 8.06 0 18 0z" fill="#F2F4F7"/><path d="M27.277 16.586c.416 0 .89.361.89.86 0 .28-.09.498-.222.696a1.324 1.324 0 0 0-.175.377c-.029.119-.092.406.26.411.229.006.792-.193 1.247-.742.35-.44.558-1 .558-1.609A2.568 2.568 0 0 0 27.277 14a2.57 2.57 0 0 0-2.56 2.58c0 .609.208 1.168.558 1.608.456.549 1.019.748 1.247.742.352-.005.288-.292.26-.411a1.289 1.289 0 0 0-.175-.377 1.21 1.21 0 0 1-.221-.696c0-.499.474-.86.891-.86zm4.525 2.607c-.105-.087-.289-.213-.667-.271a2.516 2.516 0 0 0-1.273.156c-.37.146-.826.48-1.14.913-.333.458-.505 1.15-.34 1.871.046.203.097.318.172.46.099.194.358.463.585.512.18.037.32-.066.389-.144.457-.53 2.191-2.583 2.38-2.845.184-.26.063-.51-.106-.652zm-7.11-.115a2.514 2.514 0 0 0-1.274-.156c-.377.058-.563.184-.666.271-.17.141-.291.391-.106.652.187.262 1.92 2.315 2.378 2.845.07.078.21.181.39.144.228-.049.486-.319.584-.512.077-.142.126-.257.174-.46.165-.72-.01-1.413-.34-1.871-.315-.434-.771-.767-1.14-.913zm-3.052 1.877h-2.137l.877-1.155h-2.375l-.846 1.112c-.316.442-.347.888-.347 1.198v.175c0 .202.125.312.311.312h4.517c.182 0 .305-.1.305-.306v-1.029c0-.207-.123-.307-.305-.307zm-12.167-4.08c-.034-.193-.165-.289-.336-.289h-.604c-.628 0-1.183.334-1.494.837l-1.222 1.96h4.1l-.444-2.508zm6.755.018c0-.206-.123-.307-.306-.307h-1.23c-.182 0-.305.1-.305.307v2.33l-1.165-2.095c-.233-.386-.626-.533-1.083-.542h-.909c-.18 0-.304.1-.304.307v2.49h1.528l.235.417h-1.763v2.491c0 .206.123.308.304.308h1.233c.183 0 .304-.102.304-.308v-2.345l1.176 2.112c.23.384.624.531 1.078.54h.9c.184 0 .307-.101.307-.307v-2.49H14.71l-.234-.417h1.75v-2.491zM9.99 19.8H7.965c.052.284.426 2.39.448 2.513.034.19.152.286.326.286h1.393c.127 0 .192-.04.252-.113.04-.05.058-.128.039-.24L9.99 19.8zm-5.947 2.422c-.055.094-.055.193-.021.258.039.075.125.119.219.119h1.447a.515.515 0 0 0 .436-.246L7.722 19.8H5.556c-.744 1.192-1.493 2.394-1.512 2.422zm13.12-3.996H19.2l-.878 1.157h2.374l.866-1.14c.267-.351.329-.667.329-.946v-.396c0-.204-.123-.315-.31-.315h-4.417c-.182 0-.304.1-.304.307v1.028c0 .205.122.305.304.305z" fill="#007DBA"/></svg>