<svg width="36" height="36" fill="none" xmlns="http://www.w3.org/2000/svg"><path d="M18 0c2.837 0 5.52.656 7.907 1.825C31.884 4.753 36 10.895 36 18c0 9.942-8.058 18-18 18-9.94 0-18-8.057-18-18C0 8.06 8.06 0 18 0z" fill="#F2F4F7"/><path d="M4.494 19.43s.197.365.608.747l-.077-.562-.531-.185" fill="#fff"/><path d="M8.46 21.476c2.344 0 4.46-1.636 4.46-3.736 0-2.101-2.116-3.737-4.46-3.737-2.343 0-4.459 1.636-4.459 3.737 0 2.1 2.116 3.736 4.46 3.736z" fill="#fff"/><path d="M23.356 20.076h-.796l-.011-2.55c0-.365-.383-.373-.383-.373h-.349l-.102.016c-.501.106-.66.495-.664.934l.007 1.973h-.804l-.002-2.542c0-.373-.392-.381-.392-.381h-.349l-.102.016c-.502.106-.66.495-.656.934l-.001 1.973h-.804l-.002-2.128.003-1.6h.803l.002.334c.234-.284.581-.341.752-.341h.292c.358 0 .67.113 1 .414.337-.292.633-.414 1.014-.414h.292c.731 0 1.251.463 1.256 1.226l-.004 2.51m6.219-3.737h-1.218v-.748l-.803-.485v4.97h.804l-.005-2.932h1.242a.48.48 0 0 1 .237.057c.116.056.203.178.2.39l-.001 2.484h.804l-.006-2.517c.004-.763-.523-1.218-1.254-1.218m-3.15-.786-.756-.457h-.032l-.006 2.047h.002v1.616c.003.658.293 1.153.886 1.29.118.025.2.025.2.025h.17l-.004-.804h-.114c-.349 0-.34-.414-.34-.414l-.002-1.713h.462l-.003-.804h-.463v-.786zm-2.295-.457h-.037l.003.845h.788l.002-.387-.756-.457zm-.036 4.978h.796v-3.735h-.797l.001 3.735zm-10.131-1.373c.358.38.86.648 1.416.648.67-.008 1.143-.26 1.143-.716 0-1.066-3.084-.038-3.084-1.988 0-.853.89-1.44 1.98-1.44.792 0 1.431.252 1.903.732l-.655.586c-.434-.426-.83-.57-1.294-.57-.731 0-1.005.357-1.005.647 0 1.073 3.084 0 3.084 1.987 0 .998-1.013 1.599-2.11 1.599-.67 0-1.446-.251-2.048-.883l.67-.602m17.637.922c.048 0 .08-.008.08-.06 0-.047-.05-.053-.09-.053h-.069v.113h.08zm-.177-.188h.172c.116 0 .183.034.183.137 0 .083-.05.116-.121.122l.12.198h-.1l-.11-.193h-.046v.193h-.098v-.457zm.165.55c.163 0 .293-.13.293-.32 0-.189-.13-.32-.293-.32-.165 0-.293.131-.293.32 0 .19.128.32.293.32zm0-.731a.412.412 0 1 1 0 .824.412.412 0 0 1 0-.824" fill="#231F20"/><path d="M10.644 19.204a1.53 1.53 0 0 0 1.508-1.522 1.53 1.53 0 0 0-1.508-1.521c-.792 0-1.508.666-1.508 1.521 0 .856.716 1.522 1.508 1.522zm0-3.815c1.319 0 2.364 1.003 2.364 2.293 0 1.29-1.045 2.294-2.364 2.294-1.318 0-2.363-1.003-2.363-2.294 0-1.29 1.045-2.293 2.363-2.293" fill="#fff"/><path d="M9.138 17.681a1.53 1.53 0 0 0 1.508 1.522 1.53 1.53 0 0 0 1.507-1.522 1.53 1.53 0 0 0-1.508-1.52 1.53 1.53 0 0 0-1.507 1.52zm1.508 2.293c-1.318 0-2.363-1.003-2.363-2.293 0-1.29 1.045-2.292 2.363-2.292.848 0 1.584.416 2 1.057C11.994 15.003 10.299 14 8.463 14 6.117 14 4 15.638 4 17.741c0 .62.185 1.198.504 1.707L6.24 15.48l.494.001 1.865 4.403H7.72l-.336-.828H5.52l-.428 1.114c.838.808 2.07 1.313 3.371 1.313 1.987 0 3.81-1.175 4.321-2.812-.375.779-1.185 1.304-2.139 1.304zm-4.832-1.648h1.283L6.46 16.75l-.645 1.577z" fill="#0D7A3F"/></svg>