<svg width="36" height="36" fill="none" xmlns="http://www.w3.org/2000/svg"><path d="M18 0c2.837 0 5.52.656 7.907 1.825C31.884 4.753 36 10.895 36 18c0 9.942-8.058 18-18 18-9.94 0-18-8.057-18-18C0 8.06 8.06 0 18 0z" fill="#F2F4F7"/><path d="M10.608 20.34h1.826l2.354-2.486c.352-.154 1.276-.33 2.2-.33h1.914l-3.432 9.152h1.716l2.75-9.152h3.19c.132 0 .308.11.462.176l.088.044.528-1.32-.286.11c-.352.11-.88.286-1.254.286h-2.508l1.562-4.884h-1.694l-9.416 8.404zm5.588-3.718 3.564-3.52c.22-.176.682-.484 1.012-.506L19.21 16.82h-2.398c-.198-.022-.506-.066-.616-.198z" fill="#000"/><path d="M29 10H7v11h3.74c-.396-.308-.66-1.606-.814-2.046-.638-2.178 2.574-4.994 7.15-6.314 4.598-1.32 8.844-.616 9.46 1.54.594 1.98-1.936 5.39-5.808 6.82H29V10z" fill="#013C80"/></svg>