<svg width="36" height="36" fill="none" xmlns="http://www.w3.org/2000/svg"><path d="M18 0c2.837 0 5.52.656 7.907 1.825C31.884 4.753 36 10.895 36 18c0 9.942-8.058 18-18 18-9.94 0-18-8.057-18-18C0 8.06 8.06 0 18 0z" fill="#F2F4F7"/><path d="M8.46 18.202c0-.298.078-.58.215-.827h-3.52c-.056.31-.088.63-.088.957h3.399a1.633 1.633 0 0 1-.006-.13zm5.976 2.048h.917c.202-.532.32-1.104.343-1.702h-.189l-1.07 1.702zm1.263-2.007-.07.11h.072v-.007l-.002-.103zm-5.283-1.856c.594 0 1.125.245 1.484.632h2.168l.524-.829H5.518a5.29 5.29 0 0 0-.286.83h3.701c.358-.388.89-.633 1.483-.633zM10.384 13c-.635 0-1.243.112-1.807.317h3.613A5.28 5.28 0 0 0 10.384 13zm2.615.691H7.77c-.24.137-.467.29-.682.462h6.593a5.348 5.348 0 0 0-.68-.462zm.242 4.64.604-.956h-1.688a1.698 1.698 0 0 1 .21.957h.874zm.863-3.803h-7.44c-.142.14-.277.288-.403.443h8.246a5.324 5.324 0 0 0-.403-.444zm.673 1.363H5.66c.09-.176.19-.347.298-.51h8.85c.05.075.096.151.142.229l-.175.28z" fill="#00ADEF"/><path d="m18.631 18.764.824-1.55.275.716.286.834h-1.384zm3.35 1.723-1.327-3.24.616-1.175h-2.443l-2.457 4.415h1.346l.506-.952h2.057l.325.952h1.376zm7.917-4.362h-3.824c.48.08.88.433 1.087.836h1.318l.008 3.526h1.218l-.004-3.496h1.716l.583-.866h-2.102z" fill="#252775"/><path d="M24.994 19.617c-.853.35-1.788.04-2.089-.692-.3-.732.149-1.608 1.002-1.959.854-.35 1.789-.04 2.089.692.3.732-.148 1.609-1.002 1.959zm2.206-1.582c-.133-1.295-1.479-2.218-3.006-2.062-1.529.156-2.66 1.333-2.528 2.628.133 1.295 1.478 2.218 3.007 2.062 1.528-.156 2.66-1.333 2.527-2.628zM15.444 16.61h1.002l.405-.648h-1.773l-1.75 2.702H5.002l-.455.663h9.187l1.709-2.716z" fill="#252775"/><path d="m18.631 18.764.824-1.55.275.716.286.834h-1.384zm2.639-2.692h-2.443l-2.457 4.415h1.346l.506-.952h2.057l.325.952h1.376l-1.326-3.24.616-1.175z" fill="#252775"/><path d="M24.994 19.617c-.853.35-1.788.04-2.089-.692-.3-.732.149-1.608 1.002-1.959.854-.35 1.789-.04 2.089.692.3.732-.148 1.609-1.002 1.959zm-.8-3.644c-1.529.156-2.66 1.333-2.528 2.628.133 1.295 1.478 2.218 3.007 2.062 1.528-.156 2.66-1.333 2.527-2.628-.133-1.295-1.479-2.218-3.006-2.062zm-10.37 3.512h-9.37L4 20.148h10.232l2.117-3.365h-.774l-1.75 2.702z" fill="#252775"/><path d="M32 16.125h-5.926c.48.08.88.433 1.087.836h1.318l.008 3.526h1.218l-.004-3.496h1.716l.583-.866z" fill="#252775"/><path d="M13.24 18.331c.069-.107.32-.504.605-.957h-1.688a1.699 1.699 0 0 1 .21.957h.874zm1.71-2.721a4.506 4.506 0 0 0-.142-.229H5.96a5.396 5.396 0 0 0-.298.51h9.116l.174-.281zm-6.49 2.592c0-.298.078-.58.215-.828h-3.52a5.39 5.39 0 0 0-.088.957h3.399a1.638 1.638 0 0 1-.006-.13zM10.384 13c-.635 0-1.243.112-1.807.317h3.613A5.278 5.278 0 0 0 10.384 13zm3.72 1.528h-7.44c-.142.14-.277.288-.403.443h8.246a5.324 5.324 0 0 0-.403-.443zM13 13.691H7.768c-.24.137-.467.29-.682.462h6.593a5.357 5.357 0 0 0-.68-.462zm-2.584 2.696c.594 0 1.125.245 1.484.633h2.168l.524-.83H5.518a5.285 5.285 0 0 0-.286.83h3.701c.358-.388.89-.633 1.483-.633zm5.214 1.967h.071v-.008l-.002-.103-.07.11zM5.491 20.443c.208.489.487.94.823 1.342h8.14a5.34 5.34 0 0 0 .822-1.342H5.491zm4.893 3.25a5.286 5.286 0 0 0 3.682-1.49H6.702a5.284 5.284 0 0 0 3.682 1.49zm4.052-3.443h.917c.202-.532.32-1.104.343-1.702h-.189l-1.07 1.702z" fill="#00ADEF"/></svg>