<svg width="36" height="36" fill="none" xmlns="http://www.w3.org/2000/svg"><path d="M18 0c2.837 0 5.52.656 7.907 1.825C31.884 4.753 36 10.895 36 18c0 9.942-8.058 18-18 18-9.94 0-18-8.057-18-18C0 8.06 8.06 0 18 0z" fill="#F2F4F7"/><path d="M4 17.412S7.569 17 8.138 17a.411.411 0 1 1 0 .823C7.565 17.823 4 17.41 4 17.41zm0 1.02s3.569.412 4.138.412a.411.411 0 1 0 0-.823c-.573 0-4.138.411-4.138.411zm0 1.021s3.569.412 4.138.412a.411.411 0 1 0 0-.823c-.573 0-4.138.411-4.138.411z" fill="#00CDFF"/><path d="m9.563 19.156.704-1.495.704 1.495h-.273l-.126-.277h-.613l-.127.277h-.27zm.49-.498h.424l-.21-.463-.213.463zm1.117.498v-1.424h.256v.649l.554-.653h.309l-.61.696.634.732h-.317l-.57-.668v.668h-.257zm1.328 0v-1.424h.91v.233h-.652v.34h.609v.23h-.613v.392h.668v.23h-.92zm1.18.001v-1.425h.553a.444.444 0 0 1 .329.13.43.43 0 0 1 .134.321.427.427 0 0 1-.26.404l.343.57h-.288l-.305-.507h-.253v.507h-.253zm.257-.736h.273a.22.22 0 0 0 .233-.214v-.02a.213.213 0 0 0-.202-.225h-.304v.459zm1.681.549a.714.714 0 0 1-.217-.526.714.714 0 0 1 .217-.526.774.774 0 0 1 1.068 0 .696.696 0 0 1 .222.526.714.714 0 0 1-.218.526.78.78 0 0 1-1.072 0zm.174-.162a.509.509 0 0 0 .712 0 .509.509 0 0 0 .147-.36.492.492 0 0 0-.147-.36.509.509 0 0 0-.712 0 .489.489 0 0 0-.142.36.496.496 0 0 0 .142.36zm1.353.348v-1.424h.863v.233h-.61v.356h.555v.23h-.554v.605h-.254zm1.108 0v-1.424h.863v.233h-.606v.356h.554v.23h-.554v.605h-.257zm1.001-.396a.637.637 0 0 0 .463.19c.17 0 .273-.079.273-.174a.169.169 0 0 0-.067-.138 1.025 1.025 0 0 0-.253-.13c-.246-.104-.38-.218-.38-.42a.327.327 0 0 1 .134-.277.536.536 0 0 1 .345-.103.593.593 0 0 1 .344.099v.261a.488.488 0 0 0-.34-.123c-.147 0-.23.06-.23.147-.008.047.036.087.071.119.032.023.068.04.103.055l.067.032a.469.469 0 0 0 .068.027.91.91 0 0 1 .296.19.374.374 0 0 1 .091.265.375.375 0 0 1-.134.29.58.58 0 0 1-.38.114.784.784 0 0 1-.475-.147l.004-.276zm1.218.396v-1.424h.258v.554h.684v-.558h.254v1.424h-.253v-.637h-.685v.637h-.257v.004zm1.655-.186a.714.714 0 0 1-.218-.526.714.714 0 0 1 .218-.526.767.767 0 0 1 1.068 0 .697.697 0 0 1 .221.526.714.714 0 0 1-.217.526.78.78 0 0 1-1.072 0zm.178-.162a.509.509 0 0 0 .712 0 .509.509 0 0 0 .146-.36.492.492 0 0 0-.146-.36.509.509 0 0 0-.712 0 .49.49 0 0 0-.143.36.495.495 0 0 0 .143.36zm1.349.349v-1.425h.554a.444.444 0 0 1 .328.13.425.425 0 0 1 .135.321.427.427 0 0 1-.262.404l.345.57h-.29l-.304-.507h-.253v.507h-.253zm.257-.736h.273a.22.22 0 0 0 .234-.214v-.02a.213.213 0 0 0-.202-.225h-.305v.459zm1.044.735v-1.424h.91v.233h-.652v.34h.613v.23h-.613v.392h.664v.23h-.922zm2.066.056-.499-1.484h.261l.285.854.404-.878.396.874.288-.85h.261l-.502 1.483-.443-.965-.451.966zm1.602-.056v-1.424h.257v1.424h-.257zm.582.001v-1.48l.973.953v-.902h.253v1.48l-.973-.95v.899h-.253zm1.539-.001v-1.424h.51c.234 0 .42.067.55.198.13.13.198.3.198.518a.689.689 0 0 1-.198.514c-.13.127-.316.194-.55.194h-.51zm.257-.233h.237c.357 0 .51-.186.51-.479 0-.3-.153-.483-.51-.483H31v.962z" fill="#1D1D1B"/></svg>