<svg width="36" height="36" fill="none" xmlns="http://www.w3.org/2000/svg"><defs><linearGradient id="a" x1="3.413" y1="18.013" x2="32.573" y2="18.013" gradientUnits="userSpaceOnUse"><stop stop-color="#490B41"/><stop offset=".005" stop-color="#490B41"/><stop offset=".028" stop-color="#490B41"/><stop offset=".236" stop-color="#67146C"/><stop offset=".505" stop-color="#BE70BF"/><stop offset=".743" stop-color="#F57C14"/><stop offset=".802" stop-color="#F57C14"/><stop offset=".967" stop-color="#F1511B"/><stop offset="1" stop-color="#F1511B"/></linearGradient></defs><path d="M18 0c2.837 0 5.52.656 7.907 1.825C31.884 4.753 36 10.895 36 18c0 9.942-8.058 18-18 18-9.94 0-18-8.057-18-18C0 8.06 8.06 0 18 0z" fill="#F2F4F7"/><path d="M29.515 15.243V17.8a.366.366 0 0 1-.731 0v-2.558c0-.686-.558-1.243-1.243-1.243s-1.243.557-1.243 1.243v3.673a.091.091 0 1 0 .183 0v-3.673a1.061 1.061 0 0 1 2.12 0V17.8a.549.549 0 0 0 1.097 0v-2.558a1.061 1.061 0 0 1 2.12 0v3.531a.082.082 0 1 1-.165 0v-3.531a.896.896 0 0 0-1.791 0V17.8a.713.713 0 0 1-1.426 0v-2.558a.896.896 0 0 0-1.79 0v3.531a.265.265 0 0 0 .53 0v-3.531a.366.366 0 0 1 .73 0V17.8a1.244 1.244 0 0 0 2.486 0v-2.558a.366.366 0 0 1 .73 0v3.673a.091.091 0 1 0 .184 0v-3.673a.55.55 0 0 0-1.097 0V17.8a1.061 1.061 0 0 1-2.12 0v-2.558a.549.549 0 0 0-1.096 0v3.531a.082.082 0 0 1-.165 0v-3.531a.714.714 0 0 1 1.426 0V17.8c0 .494.402.896.895.896a.897.897 0 0 0 .896-.896v-2.558a.714.714 0 0 1 1.425 0v3.531a.265.265 0 0 0 .53 0v-3.531a1.244 1.244 0 0 0-2.485 0zm-8.88-1.154h-.005c-.45.03-.87.213-1.18.517a1.65 1.65 0 0 0-.506 1.19v3.115a.092.092 0 1 0 .183 0v-3.115c0-.4.16-.776.45-1.06.28-.273.658-.438 1.065-.464h.003a12.579 12.579 0 0 1 1.024-.01l.076.003a.08.08 0 0 1 .06.131c-.018.023-.023.03-.106.028a11.469 11.469 0 0 0-1.046.01c-.369.024-.71.173-.963.419a1.31 1.31 0 0 0-.4.943v2.97c0 .149.12.273.264.273a.272.272 0 0 0 .264-.272v-2.971c0-.443.372-.801.866-.835.246-.012.495-.018.742-.015.086 0 .23.005.336.008l.078.002a.092.092 0 1 0 .005-.183l-.078-.002a12.057 12.057 0 0 0-1.093.008h-.001c-.592.04-1.038.476-1.038 1.017v2.97c0 .048-.038.09-.081.09-.043 0-.081-.042-.081-.09v-2.97c0-.628.512-1.135 1.19-1.18a12.072 12.072 0 0 1 1.03-.01c.096.003.181-.001.256-.097a.263.263 0 0 0-.197-.426l-.075-.004-.136-.005a13.658 13.658 0 0 0-.905.015zm-4.84.003c-.46.026-.89.214-1.209.53-.324.32-.502.743-.502 1.188v1.497c0 .447.178.87.502 1.192.32.319.75.505 1.21.526.218.01.566.014.912.014.338 0 .673-.004.883-.014h.017c.034-.002.068-.004.104-.01a.27.27 0 0 0 .215-.312c-.024-.136-.15-.228-.298-.22l-.018.001-.03.002a23.92 23.92 0 0 1-1.776.01c-.668-.036-1.191-.558-1.19-1.189V15.81c0-.628.511-1.135 1.19-1.179.423-.022.53-.022.95 0 .666.043 1.167.55 1.167 1.179v.22c0 .628-.512 1.135-1.19 1.178a15.01 15.01 0 0 1-.786.016.08.08 0 0 1-.08-.082c0-.045.036-.082.081-.082h.083c.244 0 .454 0 .714-.016a1.15 1.15 0 0 0 .715-.313.971.971 0 0 0 .299-.702v-.22a1 1 0 0 0-.287-.704 1.098 1.098 0 0 0-.706-.32 5.693 5.693 0 0 0-.973 0c-.578.044-1.013.484-1.013 1.025v1.497c0 .266.106.518.299.708.188.186.443.298.717.316.432.027 1.373.028 1.799 0l.16-.012.017-.002a.091.091 0 1 0-.015-.182l-.016.002-.159.012a19.32 19.32 0 0 1-1.775 0c-.481-.032-.845-.393-.845-.842V15.81c0-.444.363-.806.844-.842.42-.027.527-.027.948 0 .476.036.822.39.822.842v.22c0 .438-.363.795-.843.831-.253.017-.461.016-.702.016h-.083a.265.265 0 0 0 0 .53c.208 0 .518-.002.795-.016.368-.024.71-.173.962-.419.258-.252.4-.587.4-.943v-.22c0-.356-.136-.69-.386-.94a1.469 1.469 0 0 0-.952-.42 7.037 7.037 0 0 0-.971 0 1.51 1.51 0 0 0-.963.418 1.31 1.31 0 0 0-.4.943v1.497c0 .357.141.694.4.95.253.252.596.401.963.42a23.857 23.857 0 0 0 1.827-.01l.018-.001c.046-.003.097.017.106.069a.089.089 0 0 1-.013.065.08.08 0 0 1-.053.034c-.025.005-.052.006-.081.008h-.017c-.42.02-1.35.02-1.778 0-.862-.038-1.537-.712-1.537-1.535V15.81c0-.812.676-1.486 1.537-1.536.423-.019.53-.019.952 0 .863.05 1.513.71 1.513 1.536v.22c0 .806-.675 1.476-1.537 1.526a24.9 24.9 0 0 1-.956.015.091.091 0 0 0-.001.183c.251.001.728-.005.966-.016.461-.026.89-.213 1.209-.525.323-.319.502-.739.502-1.184v-.22c0-.446-.173-.867-.489-1.186a1.822 1.822 0 0 0-1.197-.531c-.215-.01-.35-.015-.484-.015-.136 0-.27.005-.487.015zm-5.18 0c-.46.026-.89.213-1.208.525a1.648 1.648 0 0 0-.502 1.183v5.994a.091.091 0 1 0 .183 0V15.8c0-.806.675-1.476 1.537-1.526.426-.019.773-.019 1.198 0 .863.05 1.539.72 1.538 1.526v1.517c0 .806-.675 1.477-1.537 1.526-.212.01-.406.014-.593.014h-.002c-.182 0-.561-.011-.634-.017-.022-.002-.057-.039-.057-.08 0-.045.037-.082.082-.082.109 0 .213.005.314.01.101.003.196.007.294.007.192 0 .39-.005.606-.017.369-.024.71-.172.962-.419.259-.252.401-.587.401-.942V15.8c0-.355-.142-.69-.4-.942a1.513 1.513 0 0 0-.964-.42 10.895 10.895 0 0 0-1.218 0c-.368.025-.71.173-.962.42a1.301 1.301 0 0 0-.4.942v5.894a.265.265 0 0 0 .53 0V15.8c0-.438.364-.795.846-.832a8.81 8.81 0 0 1 1.194 0c.481.037.844.394.844.832v1.517c0 .438-.363.796-.843.832a10.48 10.48 0 0 1-1.3-.006.091.091 0 1 0-.011.183c.46.03.917.031 1.324.005.274-.02.528-.131.714-.313a.97.97 0 0 0 .299-.701V15.8a.971.971 0 0 0-.3-.702 1.147 1.147 0 0 0-.714-.312 8.994 8.994 0 0 0-1.22 0c-.58.044-1.017.48-1.017 1.014v5.894a.082.082 0 0 1-.164 0V15.8c0-.628.512-1.135 1.19-1.179.426-.022.773-.022 1.197 0 .68.044 1.193.551 1.192 1.18v1.516c0 .628-.512 1.135-1.19 1.179a11.43 11.43 0 0 1-.595.016h-.001c-.094 0-.187-.003-.286-.008a7.26 7.26 0 0 0-.322-.008.265.265 0 0 0-.265.265c0 .132.104.252.226.261.075.006.463.018.648.018h.002c.19 0 .387-.005.603-.014a1.88 1.88 0 0 0 1.208-.526c.324-.318.502-.738.502-1.183V15.8c0-.445-.178-.865-.502-1.183a1.875 1.875 0 0 0-1.21-.525 13.645 13.645 0 0 0-1.216 0zm12.545-.006-.209.009-.11.005a.091.091 0 0 0 .006.183l.113-.005a6.76 6.76 0 0 1 .203-.009c.297-.005.598 0 .893.015h.003c.407.027.785.192 1.065.465.29.283.45.66.45 1.06v1.507c0 .4-.16.776-.45 1.059-.28.273-.658.438-1.065.465h-.003a7.332 7.332 0 0 1-.988 0h-.003c-.85-.055-1.49-.71-1.49-1.524v-.22c0-.4.16-.776.45-1.059.28-.273.658-.438 1.065-.465h.004c.215-.011.47-.016.804-.016a.08.08 0 0 1 .081.081.082.082 0 0 1-.081.081c-.208 0-.517.002-.797.017a1.51 1.51 0 0 0-.962.419 1.31 1.31 0 0 0-.401.942v.22c0 .356.138.69.387.942.246.247.583.396.951.42.431.022.54.022.973 0 .368-.025.71-.174.962-.42.258-.252.4-.587.4-.942v-1.508c0-.355-.142-.69-.4-.942a1.514 1.514 0 0 0-.964-.42 11.84 11.84 0 0 0-1.113-.007.264.264 0 0 0 .011.528c.06 0 .123-.003.182-.005l.148-.003c.247-.003.497.002.742.015.494.033.866.392.866.834v1.508c0 .443-.372.801-.865.834a6.486 6.486 0 0 1-.91 0c-.488-.032-.842-.383-.842-.834v-.22c0-.442.373-.801.867-.834.252-.013.617-.018.848-.015h.005a.091.091 0 0 0 0-.183h-.003a16.04 16.04 0 0 0-.86.015h-.002c-.591.04-1.038.477-1.038 1.017v.22c0 .55.426.978 1.014 1.016.417.022.513.022.931 0 .592-.039 1.038-.476 1.038-1.016v-1.508c0-.54-.446-.977-1.038-1.017h-.001a12.128 12.128 0 0 0-1.082-.007.081.081 0 0 1-.004-.163c.355-.014.724-.011 1.096.008.68.044 1.192.55 1.192 1.18v1.507c0 .628-.513 1.135-1.191 1.179-.423.022-.53.022-.95 0-.666-.043-1.167-.55-1.167-1.18v-.219c0-.628.512-1.135 1.19-1.179.276-.014.581-.016.787-.016a.264.264 0 0 0 0-.528c-.337 0-.595.005-.814.017h-.005a1.87 1.87 0 0 0-1.182.516c-.325.318-.504.74-.504 1.19v.22c0 .911.713 1.645 1.66 1.706h.005c.215.011.359.018.504.018a9.8 9.8 0 0 0 .503-.018h.006c.45-.03.87-.213 1.181-.516a1.65 1.65 0 0 0 .505-1.19v-1.508c0-.45-.18-.872-.505-1.19a1.858 1.858 0 0 0-1.181-.516h-.006a12.83 12.83 0 0 0-.905-.016zm-17.393 0-.208.009-.111.005a.091.091 0 1 0 .007.183l.113-.005c.071-.004.152-.008.202-.009.298-.005.598 0 .893.015h.003c.407.027.786.192 1.066.465.29.283.45.66.45 1.06v1.507c0 .4-.16.776-.45 1.059-.28.273-.659.438-1.065.465h-.004a7.335 7.335 0 0 1-.988 0h-.003c-.85-.055-1.49-.71-1.49-1.524v-.22c0-.4.16-.776.45-1.059.28-.273.659-.438 1.066-.465H5.7c.215-.011.471-.016.804-.016.045 0 .082.036.082.081a.082.082 0 0 1-.082.081c-.208 0-.516.002-.797.017a1.51 1.51 0 0 0-.962.419 1.31 1.31 0 0 0-.4.942v.22c0 .356.137.69.386.942.246.247.584.396.952.42.43.022.54.022.972 0 .368-.025.71-.174.962-.42.258-.252.4-.587.4-.942v-1.508c0-.355-.142-.69-.4-.942a1.514 1.514 0 0 0-.963-.42 12.06 12.06 0 0 0-1.114-.007.264.264 0 0 0 .01.528c.062 0 .124-.003.184-.005l.147-.003c.247-.003.497.002.742.015.494.033.867.392.867.834v1.508c0 .443-.373.801-.866.834a6.454 6.454 0 0 1-.91 0c-.488-.032-.841-.383-.841-.834v-.22c0-.442.372-.801.866-.834.252-.013.618-.018.849-.015h.004a.091.091 0 0 0 0-.183H6.59c-.234-.003-.605.002-.861.015h-.001c-.592.04-1.038.477-1.038 1.017v.22c0 .55.425.978 1.013 1.016.417.022.513.022.932 0 .591-.039 1.037-.476 1.037-1.016v-1.508c0-.54-.446-.977-1.037-1.017h-.002a12.128 12.128 0 0 0-1.082-.007.081.081 0 0 1-.003-.163 12.16 12.16 0 0 1 1.095.008c.68.044 1.192.55 1.192 1.18v1.507c0 .628-.512 1.135-1.19 1.179a6.86 6.86 0 0 1-.951 0c-.665-.043-1.167-.55-1.167-1.18v-.219c0-.628.513-1.135 1.191-1.179.275-.014.58-.016.786-.016a.264.264 0 0 0 0-.528c-.336 0-.595.005-.814.017h-.005c-.45.03-.87.212-1.181.516A1.65 1.65 0 0 0 4 17.096v.22c0 .911.714 1.645 1.66 1.706h.006a9.8 9.8 0 0 0 .503.018c.145 0 .29-.007.504-.018h.005c.451-.03.87-.213 1.181-.516a1.65 1.65 0 0 0 .505-1.19v-1.508c0-.45-.18-.872-.505-1.19a1.86 1.86 0 0 0-1.181-.516h-.005a12.827 12.827 0 0 0-.906-.016" fill="url(#a)"/></svg>