<svg width="36" height="36" fill="none" xmlns="http://www.w3.org/2000/svg"><path d="M18 0c2.837 0 5.52.656 7.907 1.825C31.884 4.753 36 10.895 36 18c0 9.942-8.058 18-18 18-9.94 0-18-8.057-18-18C0 8.06 8.06 0 18 0z" fill="#F2F4F7"/><path d="M4.917 19.14H4L5.479 15h.996l1.469 4.14h-.947l-.266-.857H5.203l-.286.858zm.513-1.567h1.055l-.503-1.636h-.01l-.542 1.636zm7.443 1.567h-.818v-1.863c0-.453-.207-.601-.444-.601-.404 0-.552.266-.552.631v1.834h-.818v-1.854c0-.256 0-.62-.493-.62-.385 0-.503.265-.503.6v1.874h-.808v-3.076h.779v.453h.01c.108-.197.335-.532.877-.532.444 0 .65.158.858.493.108-.148.335-.493.828-.493.611 0 1.084.355 1.084 1.025v2.13zm1.558-2.632h.01c.148-.246.374-.522.907-.522.67 0 1.262.522 1.262 1.577 0 .838-.375 1.647-1.282 1.647-.562 0-.759-.306-.858-.474h-.01v1.588h-.798v-4.26h.769v.444zm.7 2.041c.513 0 .66-.562.66-.927 0-.483-.167-.936-.68-.936-.552 0-.68.493-.68.986 0 .453.197.877.7.877zm4.841.591h-.809v-1.863c0-.226-.01-.6-.522-.6-.355 0-.631.245-.631.709v1.755h-.799V15h.799v1.469h.01c.098-.256.443-.483.887-.483.602 0 1.065.355 1.065 1.025v2.13zm3.411-.956c-.217.72-.838.957-1.37.957-.878 0-1.548-.404-1.548-1.637 0-.365.128-1.518 1.489-1.518.61 0 1.469.286 1.469 1.646v.138h-2.14c.02.227.07.73.73.73.226 0 .463-.108.522-.325h.848v.01zm-.808-.917c-.05-.483-.365-.63-.631-.63-.385 0-.592.236-.641.63h1.272zm4.298 1.873h-.798v-1.863c0-.226-.01-.601-.523-.601-.355 0-.63.247-.63.71v1.755h-.81v-3.076h.77v.453h.01c.108-.187.335-.532.916-.532.602 0 1.065.355 1.065 1.025v2.13zm2.169 0c-.828 0-1.577-.492-1.577-1.577 0-1.084.75-1.577 1.577-1.577.828 0 1.578.493 1.578 1.577 0 1.085-.75 1.578-1.578 1.578zm0-2.494c-.62 0-.74.533-.74.917 0 .385.12.917.74.917.631 0 .74-.532.74-.917 0-.384-.109-.917-.74-.917zM32 19.14h-.789V15H32v4.14z" fill="#005CB9"/></svg>