<svg width="36" height="36" fill="none" xmlns="http://www.w3.org/2000/svg"><path d="M18 0c2.837 0 5.52.656 7.907 1.825C31.884 4.753 36 10.895 36 18c0 9.942-8.058 18-18 18-9.94 0-18-8.057-18-18C0 8.06 8.06 0 18 0z" fill="#F2F4F7"/><path fill-rule="evenodd" clip-rule="evenodd" d="M29.964 20.02c-.866 0-1.435-1.047-1.435-2.019 0-1.035.533-1.732 1.339-1.732.92 0 1.459 1.062 1.459 2.018 0 1.036-.534 1.733-1.363 1.733zm-.036-3.979c-1.144 0-2.072.942-2.072 2.104 0 1.161.928 2.103 2.072 2.103 1.145 0 2.072-.942 2.072-2.104 0-1.161-.927-2.103-2.072-2.103zm-3.22 3.195c-.175.549-.4.699-1.048.699-.801 0-.881-.167-.881-.578v-2.648c0-.38.198-.384.499-.39h.021v-.193l-.085.002c-.529.01-.994.01-1.52-.001l-.04-.001v.193h.021c.3.006.5.01.5.39v2.9c0 .117-.033.206-.095.265-.08.076-.213.107-.403.096l-.023-.002v.195h.022c.503-.012 1.018-.012 1.515-.012.497 0 .967 0 1.453.011h.017l.221-.914-.167-.03-.006.018zm-4.455 0c-.175.549-.4.699-1.048.699-.802 0-.882-.167-.882-.578v-2.648c0-.38.199-.384.499-.39h.021v-.193l-.085.002c-.529.01-.994.01-1.52-.001l-.04-.001v.193h.022c.3.006.499.01.499.39v2.9c0 .116-.032.205-.095.265-.08.076-.212.107-.402.096l-.024-.002v.195h.023c.503-.012 1.017-.012 1.515-.012.497 0 .966 0 1.452.011h.017l.222-.914-.168-.03-.006.018zm-6.488.784c-.865 0-1.435-1.047-1.435-2.019 0-1.035.534-1.732 1.34-1.732.919 0 1.458 1.062 1.458 2.018 0 1.036-.534 1.733-1.363 1.733zm-.036-3.979c-1.144 0-2.072.942-2.072 2.104 0 1.161.928 2.103 2.072 2.103 1.145 0 2.072-.942 2.072-2.104 0-1.161-.927-2.103-2.072-2.103zm-5.177 3.553c0 .156.04.377.445.377.088 0 .119.002.119.002v.19a27.048 27.048 0 0 0-.91-.018c-.255 0-.485.006-.752.018v-.192h.093c.195 0 .398-.056.398-.377v-2.85c0-.275-.055-.371-.275-.413-.124-.023-.228-.012-.228-.012v-.192s.71.01 1.212.01c.603 0 1.122.055 1.407.231.279.176.485.491.485.91 0 .557-.452.861-.712.988a2.047 2.047 0 0 1-.837.182l-.01-.164c.654-.121.892-.473.892-1 0-.589-.38-.887-.867-.926-.32-.026-.46.013-.46.013v3.224zM5.32 18.386l.604-1.609.652 1.61H5.32zm2.896 1.584c-.143 0-.3-.002-.39-.122-.07-.097-.176-.35-.264-.585A747.374 747.374 0 0 0 6.258 16l-.345.18-1.126 2.833c-.045.114-.127.329-.2.49-.15.332-.225.427-.567.467l-.02.002v.19s.37-.011.714-.011.697.011.697.011v-.193l-.195-.002c-.182-.009-.332-.023-.332-.225 0-.074.015-.206.132-.542l.2-.536H6.69c.16.397.292.724.327.814.055.145.102.266.102.325 0 .126-.094.166-.29.166h-.126v.193s.534-.011.857-.011c.324 0 .68.011.68.011v-.193h-.022z" fill="#008969"/></svg>