<svg height="36" viewBox="0 0 36 36" width="36" xmlns="http://www.w3.org/2000/svg"><mask id="a" fill="#fff"><path d="M0 0h21.777v3.602H0z" fill-rule="evenodd"/></mask><g fill="none" fill-rule="evenodd"><path d="M18 0c2.837 0 5.52.656 7.907 1.825C31.884 4.753 36 10.895 36 18c0 9.942-8.058 18-18 18-9.94 0-18-8.057-18-18C0 8.06 8.06 0 18 0z" fill="#f2f4f7" fill-rule="nonzero"/><path d="M5.326 17.637c0 .361-.297.655-.663.655S4 17.998 4 17.637c0-.362.297-.655.663-.655s.663.293.663.655m26.01-.655a.659.659 0 0 0-.663.655c0 .361.297.655.663.655s.663-.294.663-.655a.659.659 0 0 0-.663-.655" fill="#f84018"/><path d="M3.522 3.602h-.919l-.258-.933H1.152l-.253.933H0L1.063 0h1.396zm-2.171-1.67h.79L1.858.889h-.219zM6.99 0c.84 0 1.326.434 1.326 1.185 0 .763-.486 1.207-1.326 1.207h-.775v1.21h-.924V0zm-.119 1.589c.362 0 .501-.131.501-.388 0-.258-.139-.384-.501-.384h-.656v.772zm6.205-.761h-1.064v2.774h-.924V.828H10.03V0h3.046zm2.158 2.774h.924V0h-.924zM18.307 0h.968l.67 2.714h.219L20.83 0h.947l-.988 3.602h-1.488z" fill="#000" mask="url(#a)" transform="translate(7.111 16)"/></g></svg>