<svg width="36" height="36" fill="none" xmlns="http://www.w3.org/2000/svg"><path d="M18 0c2.837 0 5.52.656 7.907 1.825C31.884 4.753 36 10.895 36 18c0 9.942-8.058 18-18 18-9.94 0-18-8.057-18-18C0 8.06 8.06 0 18 0z" fill="#F2F4F7"/><path d="m6.025 15.032.695 1.977H5.33l.694-1.977zm-.434-.844L4 18.567h.781l.309-.883h1.866l.309.883h.776L6.46 14.188h-.87zM9.015 14H8.34v4.567h.675V14zm3.781 1.437v2.985c0 1.008-.79 1.476-1.61 1.476-.69 0-1.22-.256-1.486-.757l.584-.338c.135.27.371.482.911.482.584 0 .931-.318.931-.863v-.38c-.236.337-.608.544-1.09.544-.882 0-1.577-.718-1.577-1.615 0-.898.695-1.616 1.577-1.616.482 0 .849.207 1.09.545v-.463h.67zm-.66 1.534c0-.565-.425-.984-.994-.984s-.993.42-.993.984c0 .564.424.983.993.983.57 0 .994-.42.994-.983zm1.119.033c0-.93.737-1.644 1.654-1.644a1.63 1.63 0 0 1 1.654 1.644c0 .926-.733 1.645-1.654 1.645a1.636 1.636 0 0 1-1.654-1.645zm2.628 0c0-.569-.424-.988-.974-.988s-.98.42-.98.988c0 .57.425.989.98.989.55 0 .974-.42.974-.989zm3.983-.357v1.92h-.675v-1.852c0-.477-.275-.728-.7-.728-.443 0-.795.265-.795.902v1.678h-.675v-3.13h.675v.4c.208-.323.545-.482.97-.482.699.005 1.2.477 1.2 1.292zm3.757-1.21v4.379h-.675v-1.698c-.236.323-.608.526-1.095.526-.853 0-1.557-.714-1.557-1.644 0-.927.709-1.645 1.557-1.645.487 0 .859.202 1.095.53v-.448h.675zm-.675 1.567c0-.583-.424-1.003-.989-1.003-.564 0-.988.42-.988 1.003 0 .584.424 1.003.988 1.003.56 0 .989-.42.989-1.003zm4.123-1.567v3.13h-.675v-.4c-.207.323-.545.482-.97.482-.698 0-1.2-.478-1.2-1.288v-1.92h.675v1.853c0 .477.275.728.7.728.443 0 .795-.26.795-.902v-1.678h.675v-.005zm.574-.897c0-.25.217-.453.478-.43a.43.43 0 0 1 .361.285.437.437 0 0 1-.405.58.442.442 0 0 1-.434-.435zm.097.902h.675v3.13h-.675v-3.13zm4.181 1.205v1.92h-.675v-1.852c0-.477-.275-.728-.7-.728-.443 0-.795.265-.795.902v1.678h-.675v-3.13h.675v.4c.207-.323.545-.482.969-.482.704.005 1.2.477 1.2 1.292z" fill="#000"/><path d="M32 21.306H4.01v.613H32v-.613z" fill="url(#a)"/><defs><linearGradient id="a" x1="4.007" y1="21.614" x2="32" y2="21.614" gradientUnits="userSpaceOnUse"><stop stop-color="#796CB1"/><stop offset=".13" stop-color="#796CB1"/><stop offset=".231" stop-color="#7277B8"/><stop offset=".407" stop-color="#6194CC"/><stop offset=".637" stop-color="#45C3EB"/><stop offset=".65" stop-color="#43C6ED"/><stop offset=".874" stop-color="#96D396"/><stop offset="1" stop-color="#C0DA6A"/></linearGradient></defs></svg>