<svg width="36" height="36" fill="none" xmlns="http://www.w3.org/2000/svg"><path d="M18 0c2.837 0 5.52.656 7.907 1.825C31.884 4.753 36 10.895 36 18c0 9.942-8.058 18-18 18-9.94 0-18-8.057-18-18C0 8.06 8.06 0 18 0z" fill="#F2F4F7"/><path d="M4.534 17.588a3.397 3.397 0 0 1 6.604-1.12 3.621 3.621 0 0 0-7.033 1.723 3.614 3.614 0 0 0 3.267 2.748 3.394 3.394 0 0 1-2.838-3.35z" fill="#0F6293"/><path d="M10.592 13.155c-.882-.63-2.917.719-4.546 3.005-1.628 2.287-2.235 4.649-1.358 5.279.878.63 2.917-.719 4.546-3.006 1.629-2.287 2.236-4.648 1.358-5.278zm-1.731 4.99c-1.494 2.085-3.295 3.35-4.037 2.823-.742-.528-.136-2.647 1.353-4.737 1.489-2.091 3.295-3.351 4.037-2.824.742.527.135 2.65-1.353 4.737z" fill="#6193BC"/><path d="M7.643 13.696a3.641 3.641 0 0 0-3.64 3.636 3.635 3.635 0 0 0 3.635 3.64 3.638 3.638 0 0 0 .005-7.276zm.177 7.08a3.267 3.267 0 0 1-3.262-3.267 3.267 3.267 0 0 1 3.267-3.262 3.267 3.267 0 0 1 3.262 3.267 3.27 3.27 0 0 1-3.267 3.262z" fill="#6193BC"/><path d="M15.166 14.61c.102-.284.135-.335.186-.335.052 0 .09.042.187.308.126.327 1.475 3.86 1.998 5.166.308.761.555.901.737.953.112.037.224.05.34.05.052 0 .09.01.09.052 0 .042-.08.07-.173.07-.13 0-.752 0-1.344-.018-.164-.01-.257-.01-.257-.061 0-.033.023-.052.06-.06.052-.02.103-.094.052-.234l-.798-2.105a.073.073 0 0 0-.08-.051h-1.843a.09.09 0 0 0-.089.07l-.513 1.516c-.07.182-.112.378-.121.575 0 .177.177.247.326.247h.089c.06 0 .089.018.089.051 0 .052-.052.07-.131.07-.205 0-.574-.023-.667-.023-.094 0-.565.023-.966.023-.112 0-.164-.018-.164-.07 0-.032.033-.051.075-.051.06 0 .177-.01.247-.019.397-.051.565-.378.719-.807l1.95-5.316zm.891 3.427c.042 0 .042-.024.033-.061l-.812-2.31c-.042-.126-.089-.126-.126 0l-.752 2.31c-.018.042 0 .06.024.06h1.633zm3.673-.565c0-1.13 0-1.335-.018-1.568-.02-.248-.061-.369-.308-.402a2.382 2.382 0 0 0-.257-.018.073.073 0 0 1-.06-.066c0-.042.032-.06.12-.06.341 0 .85.018.892.018.08 0 .71-.018.943-.018.48 0 1.012.042 1.404.317.318.233.51.602.523.994 0 .541-.224 1.064-.924 1.666.616.77 1.139 1.428 1.577 1.886.402.41.65.48.84.504.09.018.173.023.262.023.037 0 .065.023.07.06 0 .043-.042.061-.182.061h-.476c-.43 0-.616-.041-.808-.144-.326-.178-.597-.528-1.026-1.069-.318-.397-.649-.868-.812-1.064a.11.11 0 0 0-.103-.042l-.957-.019c-.032 0-.051.019-.051.061v.177c0 .7 0 1.27.033 1.568.028.215.07.35.298.388.112.018.224.028.336.032.028-.004.056.02.061.047v.014c0 .033-.033.06-.121.06-.411 0-.892-.023-.924-.023-.01 0-.514.024-.747.024-.075 0-.122-.019-.122-.06 0-.034.024-.061.056-.061h.005c.08-.005.154-.014.233-.033.145-.033.164-.173.197-.388.041-.298.041-.877.041-1.577l.005-1.288zm.649.616c0 .037.019.075.051.093.112.06.495.112.831.112a.964.964 0 0 0 .565-.13c.256-.178.452-.556.452-1.116 0-.91-.499-1.433-1.302-1.433-.182 0-.36.014-.541.042a.091.091 0 0 0-.06.089v2.343h.004zm4.788-.616c0-1.13 0-1.335-.018-1.568-.019-.248-.061-.369-.308-.402a2.382 2.382 0 0 0-.257-.018.073.073 0 0 1-.06-.066c0-.042.032-.06.12-.06.341 0 .831.018.878.018.047 0 1.629.01 1.802 0 .144-.009.284-.032.34-.042a.376.376 0 0 1 .103-.032c.028 0 .033.032.033.07 0 .051-.042.135-.061.34-.01.07-.023.392-.042.481-.01.037-.033.08-.07.08-.037 0-.06-.033-.06-.094a.8.8 0 0 0-.043-.257c-.051-.121-.13-.177-.541-.224-.13-.018-1.004-.023-1.088-.023-.037 0-.042.023-.042.08v1.983c0 .051 0 .08.042.08.094 0 1.088 0 1.26-.02.173-.018.29-.023.37-.102.05-.052.088-.094.111-.094.024 0 .042.02.042.061a3.97 3.97 0 0 0-.06.402c-.02.144-.033.42-.033.47 0 .052-.019.136-.07.136-.033 0-.051-.028-.051-.07a.728.728 0 0 0-.033-.242c-.023-.103-.094-.187-.387-.224a20.435 20.435 0 0 0-1.14-.033c-.041 0-.05.028-.05.051v.607c0 .247-.01 1.097 0 1.241.018.49.153.584.9.584.196 0 .555 0 .752-.08.196-.079.298-.214.34-.504.019-.088.033-.112.08-.112.046 0 .05.061.05.112a5.75 5.75 0 0 1-.102.7c-.051.187-.126.187-.42.187-.564 0-1.003-.019-1.311-.023-.308-.01-.514-.019-.626-.019-.018 0-.163 0-.326.01a8.022 8.022 0 0 1-.439.018c-.08 0-.121-.018-.121-.06 0-.033.023-.061.056-.061h.004c.08-.01.154-.019.234-.033.144-.023.163-.172.196-.387.042-.299.042-.878.042-1.578l.004-1.283zm3.846 3.3c-.103-.052-.112-.08-.112-.276 0-.36.033-.653.042-.77 0-.075.019-.121.06-.121.043 0 .07.023.07.088 0 .09.005.178.029.262.121.532.686.719 1.19.719.746 0 1.13-.42 1.13-.967 0-.527-.285-.77-.953-1.27l-.34-.256c-.813-.607-1.079-1.055-1.079-1.559 0-.858.677-1.372 1.666-1.372.262 0 .523.033.78.089a.98.98 0 0 0 .261.033c.06 0 .075.009.075.051 0 .042-.033.275-.033.77 0 .112-.01.163-.06.163-.052 0-.061-.032-.07-.093a1.195 1.195 0 0 0-.112-.36c-.052-.088-.3-.359-.976-.359-.546 0-1.003.276-1.003.79 0 .461.233.727.975 1.231l.215.145c.915.625 1.232 1.13 1.232 1.755 0 .43-.163.891-.7 1.241-.317.206-.789.257-1.2.257-.345.005-.779-.047-1.087-.192zM8.361 22.41c-.01 0-.01 0-.014.01l-.08.205a.276.276 0 0 0-.022.088c0 .028.014.047.056.047h.023c.019 0 .023 0 .023.01 0 .009-.01.013-.023.013h-.332c-.018 0-.028 0-.028-.014s.005-.01.02-.01h.046c.065-.008.093-.055.126-.13l.364-.905c.019-.042.028-.06.042-.06.014 0 .023.013.037.046.038.08.27.662.364.887.056.13.098.154.126.158a.264.264 0 0 0 .06.005c.01 0 .02 0 .02.01 0 .009-.014.013-.066.013h-.275c-.028 0-.042 0-.042-.01 0-.008.005-.008.019-.013.014-.005.018-.019.014-.028v-.005l-.117-.299c0-.004-.01-.009-.014-.009l-.327-.01zm.299-.07c.005 0 .01-.005.01-.005v-.005l-.131-.359c0-.005 0-.014-.01-.014s-.01.01-.01.014l-.134.36c0 .004 0 .009.004.009h.27zm.663-.238v-.308c0-.047-.014-.075-.061-.084-.019-.005-.037-.005-.056-.005-.014 0-.023 0-.023-.014s.009-.014.032-.014h.406a.467.467 0 0 1 .271.066c.06.046.098.12.098.2 0 .107-.047.205-.191.327.13.163.228.294.317.383a.283.283 0 0 0 .163.098h.042c.01 0 .019 0 .019.009 0 .01-.01.014-.028.014h-.14a.293.293 0 0 1-.154-.028.735.735 0 0 1-.2-.215c-.061-.08-.127-.182-.145-.2-.005-.01-.014-.014-.028-.01h-.126c-.01 0-.01 0-.01.014v.019c0 .135 0 .252.01.313 0 .042.014.074.056.079.023 0 .056.005.07.005.014 0 .018 0 .018.009 0 .01-.009.014-.028.014h-.392c-.018 0-.028 0-.028-.014s.005-.01.024-.01c.018 0 .037 0 .05-.004.029-.005.038-.037.043-.08.01-.06.01-.177.01-.312l-.02-.252zm.177.116c0 .015 0 .024.014.029a.477.477 0 0 0 .112.014.153.153 0 0 0 .103-.024.25.25 0 0 0 .088-.22c0-.204-.14-.26-.224-.26-.028 0-.051 0-.08.004-.008 0-.013.01-.013.019v.438zm.924-.116v-.308c0-.047-.014-.075-.065-.084-.019-.005-.038-.005-.056-.005-.014 0-.024 0-.024-.014s.01-.014.033-.014h.574a.161.161 0 0 0 .06-.01c.01-.004.015-.004.024-.004.01 0 .01.005.01.014 0 .01-.01.028-.01.093 0 .015 0 .08-.01.099-.009.018 0 .014-.013.014-.014 0-.014-.01-.014-.02a.167.167 0 0 0-.01-.05c-.009-.028-.023-.043-.098-.052l-.205-.005c-.01 0-.01 0-.01.014v.37c0 .008 0 .013.01.013h.233a.1.1 0 0 0 .07-.023c.014-.014.014-.019.024-.019s.01 0 .01.014-.006.033-.01.108c0 .027-.005.088-.005.098 0 .009 0 .027-.014.027-.005 0-.014-.004-.014-.009 0-.018 0-.037-.005-.051-.009-.028-.028-.051-.079-.056l-.21-.005c-.01 0-.01.005-.01.014v.341c0 .103.029.121.178.121a.328.328 0 0 0 .135-.018c.038-.02.056-.047.066-.108 0-.014.004-.023.018-.023.014 0 .01.01.01.028 0 .056-.01.107-.019.163-.01.038-.023.038-.08.038h-.597c-.032 0-.028 0-.028-.014s.005-.01.024-.01c.018 0 .037 0 .051-.004.028-.005.037-.038.042-.08.01-.06.01-.177.01-.313l.004-.27zm.84.663c-.023-.01-.028-.02-.028-.052 0-.08.005-.168.01-.191 0-.023.004-.037.018-.037.01 0 .014.014.014.023 0 .023.005.051.014.075a.203.203 0 0 0 .21.149.178.178 0 0 0 .196-.154v-.014c0-.07-.023-.14-.145-.233l-.065-.052c-.159-.126-.215-.229-.215-.35 0-.159.136-.275.337-.275.065 0 .13.01.196.023.014 0 .018.01.018.019 0 .01-.005.06-.005.177 0 .033 0 .042-.018.042-.019 0-.014-.01-.014-.028a.18.18 0 0 0-.038-.098.189.189 0 0 0-.158-.07.15.15 0 0 0-.173.13v.02c0 .065.033.116.154.21l.042.032c.177.136.238.233.238.373a.303.303 0 0 1-.14.257.447.447 0 0 1-.233.06.563.563 0 0 1-.215-.036zm1.39-.122a.576.576 0 0 1-.022-.817l.014-.014a.64.64 0 0 1 .462-.154c.07 0 .14.005.21.014.056.01.102.02.144.024.019 0 .024.01.024.018 0 .01 0 .029-.01.08-.009.051 0 .13 0 .159 0 .027-.004.032-.018.032-.014 0-.014-.01-.014-.032a.207.207 0 0 0-.066-.131.429.429 0 0 0-.298-.089.378.378 0 0 0-.276.089.55.55 0 0 0 .052.77.556.556 0 0 0 .27.126c.13 0 .21-.014.262-.084a.264.264 0 0 0 .051-.093c0-.024.01-.028.019-.028s.014.009.014.023a1.42 1.42 0 0 1-.033.196c-.005.019-.019.037-.037.042a.823.823 0 0 1-.262.033.698.698 0 0 1-.485-.164zm1.247-.233c-.01 0-.01 0-.014.01l-.08.2a.277.277 0 0 0-.023.089c0 .028.014.046.056.046h.024c.018 0 .023 0 .023.01 0 .009-.01.014-.023.014h-.332c-.018 0-.028 0-.028-.014s.005-.01.019-.01h.047c.065-.01.093-.056.126-.13l.364-.906c.018-.042.028-.06.042-.06.014 0 .023.014.037.046.037.08.27.663.364.887.056.13.098.154.126.159.019.004.042.004.06.004.01 0 .02 0 .02.01 0 .009-.015.014-.066.014h-.275c-.028 0-.042 0-.042-.01s.004-.01.018-.014c.014-.004.019-.018.014-.028v-.004l-.116-.3c0-.004-.01-.008-.014-.008l-.327-.005zm.299-.07c.004 0 .009-.005.009-.005v-.005l-.13-.359c0-.005 0-.014-.01-.014s-.01.01-.01.014l-.135.36c0 .004 0 .009.005.009h.27zm.662-.238v-.308c0-.047-.014-.075-.06-.084-.019-.005-.038-.005-.056-.005-.014 0-.024 0-.024-.014s.01-.014.033-.014h.42c.182 0 .247.06.27.089a.247.247 0 0 1 .075.177.34.34 0 0 1-.335.35h-.057c-.009 0-.018 0-.018-.014s.01-.014.042-.014a.234.234 0 0 0 .196-.242.276.276 0 0 0-.089-.22.217.217 0 0 0-.145-.056c-.018 0-.037 0-.056.005-.009 0-.014.01-.014.028v.583c0 .136 0 .252.01.313.004.042.014.075.056.08a.398.398 0 0 0 .075.004c.018 0 .023 0 .023.01 0 .009-.01.013-.028.013h-.406c-.019 0-.028 0-.028-.014s.004-.01.023-.01.037 0 .051-.004c.028-.004.038-.037.042-.08.01-.06.01-.177.01-.312l-.01-.261zm.957 0v-.308c0-.047-.019-.075-.051-.08-.019-.004-.033-.004-.052-.004-.013 0-.023 0-.023-.014s.014-.014.037-.014h.369c.019 0 .033 0 .033.014s-.01.014-.024.014-.027 0-.041.005c-.038.009-.052.032-.056.084-.005.05 0 .088 0 .308v.256c0 .14 0 .257.004.322.005.038.014.066.056.07a.398.398 0 0 0 .075.005c.014 0 .023 0 .023.01 0 .009-.014.013-.028.013h-.411c-.018 0-.027 0-.027-.014s.004-.01.023-.01c.018 0 .037 0 .051-.004.028-.004.038-.032.042-.074.01-.061.01-.178.01-.318l-.01-.261zm.854-.34-.214.004c-.09 0-.122.01-.14.042a.172.172 0 0 0-.024.051c0 .01-.01.019-.014.019s-.014-.01-.014-.023c0-.015.028-.154.033-.169.005-.009.01-.027.019-.027.018.009.042.014.06.018.042 0 .098.01.145.01h.579c.032 0 .065-.005.102-.01.014-.005.028-.005.038-.01.009 0 .009.01.009.034 0 .023-.005.13-.005.168 0 .014-.004.023-.014.023-.009 0-.014-.01-.014-.028v-.014c0-.038-.042-.08-.177-.084h-.187v.597c0 .136 0 .252.01.313 0 .042.014.075.056.08a.398.398 0 0 0 .074.004c.019 0 .024 0 .024.01 0 .009-.01.013-.028.013h-.411c-.019 0-.028 0-.028-.014s.005-.01.023-.01c.019 0 .038 0 .052-.004.028-.004.037-.037.042-.08.009-.06.009-.177.009-.312l-.005-.602zm.812.648c-.009 0-.009 0-.014.01l-.079.2a.277.277 0 0 0-.023.089c0 .028.014.046.056.046h.023c.019 0 .023 0 .023.01 0 .009-.009.014-.023.014h-.331c-.019 0-.028 0-.028-.014s.004-.01.018-.01h.047c.065-.01.093-.056.126-.13l.364-.906c.019-.042.028-.06.042-.06.014 0 .023.014.037.046.038.08.271.663.364.887.056.13.098.154.126.159.02.004.042.004.061.004.01 0 .019 0 .019.01 0 .009-.014.014-.066.014h-.275c-.028 0-.042 0-.042-.01s.005-.01.019-.014c.014-.004.018-.018.014-.028v-.004l-.117-.3c0-.004-.01-.008-.014-.008l-.327-.005zm.299-.07c.005 0 .01-.005.01-.005v-.005l-.131-.359c0-.005 0-.014-.01-.014-.009 0-.009.01-.009.014l-.14.36c0 .004 0 .009.005.009h.275zm.845.018c0 .187 0 .29.032.313.033.028.061.033.178.033.08 0 .135 0 .168-.042a.188.188 0 0 0 .037-.089c0-.014.005-.023.014-.023.01 0 .01.01.01.023a1.08 1.08 0 0 1-.024.168c-.01.033-.014.038-.088.038h-.612c-.033 0-.028 0-.028-.014s.005-.01.023-.01c.02 0 .038 0 .052-.004.028-.005.037-.038.042-.08.01-.06.01-.177.01-.313v-.564c0-.047-.015-.075-.062-.084-.014-.005-.032-.005-.046-.005-.014 0-.024 0-.024-.014s.01-.014.033-.014h.397c.023 0 .032 0 .032.014s-.009.014-.028.014c-.018 0-.037 0-.056.005-.037.01-.05.032-.056.084-.004.051 0 .088 0 .308l-.004.256zm1.157.285a.576.576 0 0 1-.023-.817l.014-.014a.62.62 0 0 1 .462-.154c.07 0 .14.005.21.014.056.01.103.02.145.024.014 0 .023.01.023.018 0 .01 0 .029-.01.08-.009.051 0 .13 0 .159 0 .027-.004.032-.018.032-.014 0-.014-.01-.014-.032a.208.208 0 0 0-.056-.136.428.428 0 0 0-.299-.088.377.377 0 0 0-.275.088.494.494 0 0 0-.136.378.487.487 0 0 0 .458.518c.13 0 .21-.014.261-.084a.263.263 0 0 0 .052-.093c.004-.023.009-.028.018-.028.01 0 .014.01.014.023-.004.066-.018.13-.032.196-.005.019-.02.038-.038.042a.818.818 0 0 1-.261.033.694.694 0 0 1-.495-.159zm.99-.41c0-.248.163-.575.602-.575.364 0 .588.21.588.546a.575.575 0 0 1-.556.598h-.051a.555.555 0 0 1-.588-.523c.005-.014.005-.032.005-.046zm.989.027c0-.326-.187-.527-.43-.527-.167 0-.359.093-.359.457 0 .304.168.547.448.547.103-.005.341-.056.341-.476zm.509-.158v-.308c0-.047-.014-.075-.066-.084-.018-.005-.037-.005-.056-.005-.014 0-.023 0-.023-.014s.01-.014.033-.014h.406a.467.467 0 0 1 .27.066.25.25 0 0 1 .098.2c0 .107-.046.205-.19.327.13.163.228.294.317.383a.283.283 0 0 0 .163.098h.042c.014 0 .018 0 .018.009 0 .01-.009.014-.027.014h-.14a.293.293 0 0 1-.154-.028.734.734 0 0 1-.201-.215c-.06-.08-.126-.182-.145-.2-.005-.01-.014-.014-.028-.01h-.126c-.01 0-.014 0-.014.014v.019c0 .135 0 .252.01.313.004.042.013.074.055.079.024 0 .056.005.07.005.02 0 .02 0 .02.009 0 .01-.01.014-.029.014h-.392c-.019 0-.028 0-.028-.014s.005-.01.023-.01c.02 0 .038 0 .052-.004.028-.005.037-.037.042-.08.01-.06.01-.177.01-.312l-.01-.252zm.172.116c0 .015 0 .024.014.029a.484.484 0 0 0 .112.014.153.153 0 0 0 .103-.024.249.249 0 0 0 .089-.22c0-.204-.136-.26-.224-.26-.028 0-.052 0-.08.004-.009 0-.014.01-.014.019v.438zm.93-.116v-.308c0-.047-.015-.075-.066-.084-.019-.005-.037-.005-.056-.005-.014 0-.024 0-.024-.014s.01-.014.033-.014h.42a.36.36 0 0 1 .27.089.28.28 0 0 1 .076.177.34.34 0 0 1-.337.35h-.055c-.01 0-.02 0-.02-.014s.01-.014.043-.014a.234.234 0 0 0 .196-.242.276.276 0 0 0-.089-.22.217.217 0 0 0-.145-.056c-.018 0-.037 0-.055.005-.01 0-.01.01-.01.028v.583c0 .136 0 .252.01.313 0 .042.014.075.055.08a.4.4 0 0 0 .075.004c.014 0 .024 0 .024.01 0 .009-.01.013-.029.013h-.405c-.02 0-.028 0-.028-.014s.004-.01.023-.01c.018 0 .037 0 .051-.004.028-.004.038-.037.042-.08.01-.06.01-.177.01-.312l-.01-.261zm.797.13c0-.247.164-.573.602-.573.364 0 .588.21.588.546a.575.575 0 0 1-.555.597h-.051a.555.555 0 0 1-.588-.523c.004-.014.004-.032.004-.046zm.985.029c0-.327-.187-.528-.43-.528-.167 0-.359.093-.359.457 0 .304.168.547.448.547.103-.005.341-.056.341-.476zm.504-.16v-.307c0-.047-.014-.075-.065-.084-.019-.005-.038-.005-.056-.005-.014 0-.024 0-.024-.014s.01-.014.033-.014h.406a.467.467 0 0 1 .27.066c.061.046.099.12.099.2 0 .107-.047.205-.192.327.131.163.23.294.318.383a.283.283 0 0 0 .163.098h.042c.01 0 .019 0 .019.009 0 .01-.01.014-.028.014h-.14a.293.293 0 0 1-.154-.028.734.734 0 0 1-.2-.215c-.062-.08-.127-.182-.146-.2-.004-.01-.014-.014-.028-.01h-.126c-.009 0-.009 0-.009.014v.019c0 .135 0 .252.01.313.004.042.013.074.055.079.024 0 .056.005.07.005.02 0 .02 0 .02.009 0 .01-.01.014-.029.014h-.392c-.019 0-.028 0-.028-.014s.005-.01.023-.01c.019 0 .038 0 .052-.004.028-.005.037-.037.042-.08.01-.06.01-.177.01-.312l-.015-.252zm.177.117c0 .015 0 .024.014.029a.484.484 0 0 0 .112.014.153.153 0 0 0 .103-.024.25.25 0 0 0 .089-.22c0-.204-.14-.26-.224-.26a.45.45 0 0 0-.08.004c-.009 0-.014.01-.014.019v.438zm.985.192c-.01 0-.01 0-.014.01l-.08.2a.274.274 0 0 0-.023.089c0 .028.014.046.056.046h.024c.018 0 .023 0 .023.01 0 .009-.01.014-.023.014h-.331c-.02 0-.029 0-.029-.014s.005-.01.02-.01h.046c.065-.01.093-.056.126-.13l.364-.906c.018-.042.028-.06.042-.06.014 0 .023.014.037.046.037.08.27.663.364.887.056.13.098.154.126.159.019.004.042.004.06.004.01 0 .02 0 .02.01 0 .009-.014.014-.066.014h-.275c-.028 0-.042 0-.042-.01s.005-.01.018-.014c.015-.004.02-.018.015-.028v-.004l-.117-.3c0-.004-.01-.008-.014-.008l-.327-.005zm.299-.07c.005 0 .01-.005.01-.005v-.005l-.131-.359c0-.005 0-.014-.01-.014s-.01.01-.01.014l-.134.36c0 .004 0 .009.004.009h.27zm.765-.579-.22.005c-.088 0-.12.01-.14.042a.172.172 0 0 0-.022.051c0 .01-.01.019-.02.019-.008 0-.013-.01-.013-.023 0-.015.028-.154.033-.169.004-.009.009-.027.018-.027a.255.255 0 0 0 .066.018c.042 0 .098.01.144.01h.579c.033 0 .065-.005.098-.01.014-.005.028-.005.037-.01.01 0 .014.01.014.034l-.004.168c0 .014 0 .023-.014.023s-.014-.01-.019-.028v-.014c0-.038-.042-.08-.177-.084h-.182v.597c0 .136 0 .252.009.313.005.042.014.075.056.08a.4.4 0 0 0 .075.004c.014 0 .023 0 .023.01 0 .009-.014.013-.028.013h-.411c-.018 0-.028 0-.028-.014s.005-.01.024-.01c.018 0 .032 0 .05-.004.029-.004.038-.037.043-.08.01-.06.01-.177.01-.312v-.602zm.84.34v-.307c0-.047-.018-.075-.051-.08-.019-.004-.033-.004-.051-.004-.014 0-.024 0-.024-.014s.01-.014.038-.014h.368c.019 0 .033 0 .033.014s-.01.014-.023.014c-.014 0-.028 0-.042.005-.038.009-.052.032-.052.084-.004.05 0 .088 0 .308v.256c0 .14 0 .257.005.322.005.038.014.066.06.07a.398.398 0 0 0 .075.005c.014 0 .024 0 .024.01 0 .009-.01.013-.028.013h-.411c-.019 0-.028 0-.028-.014s.005-.01.023-.01c.019 0 .038 0 .052-.004.028-.004.037-.032.042-.074.009-.061.009-.178.009-.318l-.019-.261zm.486.132c0-.248.163-.575.602-.575.364 0 .588.21.588.546a.575.575 0 0 1-.556.598h-.05a.555.555 0 0 1-.589-.523c.005-.014.005-.032.005-.046zm.99.027c0-.326-.188-.527-.43-.527-.168 0-.36.093-.36.457 0 .304.168.547.448.547.098-.005.341-.056.341-.476zm.587.327c0 .112.023.154.052.164.023.009.05.009.074.009.014 0 .023 0 .023.01 0 .009-.014.013-.032.013h-.341c-.018 0-.032 0-.032-.014s.009-.01.023-.01c.023 0 .042-.004.065-.008.037-.01.042-.052.047-.182l.014-.86c0-.027.005-.05.018-.05.014 0 .028.018.052.046.023.028.238.252.453.462.098.098.298.308.322.331h.009l-.014-.653c0-.088-.014-.116-.051-.13-.024-.01-.052-.01-.08-.01-.018 0-.023 0-.023-.014s.019-.014.037-.014h.323c.019 0 .033 0 .033.014s-.01.014-.028.014c-.014 0-.028 0-.042.005-.042.014-.051.042-.051.126l-.014.92c0 .032-.005.046-.02.046-.013 0-.032-.019-.05-.033-.094-.088-.28-.28-.43-.43-.15-.148-.322-.335-.35-.363l.014.611z" fill="#0F6293"/></svg>