<svg width="36" height="36" fill="none" xmlns="http://www.w3.org/2000/svg"><path d="M18 0c2.837 0 5.52.656 7.907 1.825C31.884 4.753 36 10.895 36 18c0 9.942-8.058 18-18 18-9.94 0-18-8.057-18-18C0 8.06 8.06 0 18 0z" fill="#F2F4F7"/><path fill-rule="evenodd" clip-rule="evenodd" d="M24.705 17.07C24.64 9.622 23.061 8 22.26 8 17.926 8 5.81 25.338 8.345 27.673c2.023 1.867 9.758-4.357 13.737-7.825v.934c-.022 3.134-.066 7.624 2.223 7.157 3.157-.666 4.18-8.891 3.49-10.336-.556-1.156-2.29-.845-3.09-.534zm2.223 2.067c-.222-1.623-1.6-1.134-2.29-.712v6.669c0 .822.179.867.267.778.912-.356 2.268-4.712 2.001-6.735h.022zm-4.69-.823c.111-2.4.089-7.202-.89-7.246C19.839 11 9.302 24.294 10.524 25.65c.6.689 8.225-4.446 11.715-7.336z" fill="#00AF8B"/></svg>