<svg height="36" viewBox="0 0 36 36" width="36" xmlns="http://www.w3.org/2000/svg"><mask id="a" fill="#fff"><path d="M0 0h2.93v2.554H0z" fill-rule="evenodd"/></mask><mask id="b" fill="#fff"><path d="M0 0h21.887v4.854H0z" fill-rule="evenodd"/></mask><g fill="none" fill-rule="evenodd"><path d="M18 0c2.837 0 5.52.656 7.907 1.825C31.884 4.753 36 10.895 36 18c0 9.942-8.058 18-18 18-9.94 0-18-8.057-18-18C0 8.06 8.06 0 18 0z" fill="#f2f4f7" fill-rule="nonzero"/><path d="M29.037 20.736a.99.99 0 1 0 0-1.979.99.99 0 0 0 0 1.979" fill="#91c453"/><path d="M31.007 14.002a.983.983 0 0 0-.704.297l-2.018 2.025a.989.989 0 0 1-1.2.068l.57.569c.042.042.53.537.709.709a.99.99 0 0 0 1.385-.016l1.957-1.957a.99.99 0 0 0-.685-1.693z" fill="#91c554"/><path d="M.981 2.388a.988.988 0 0 0 1.187-.067l.762-.76L1.669.3a.974.974 0 0 0-.668-.3A.989.989 0 0 0 0 .976V.99c0 .264.106.518.296.702z" fill="#006f3c" mask="url(#a)" transform="translate(26.097 14)"/><path d="M21.887 3.5h-.886l-.85-1.465h-.098L19.2 3.489h-.886l1.074-1.745L18.4.096h.881l.765 1.345h.111L20.922.1h.878l-.989 1.649zM17.52.255c.168.19.254.44.237.693v2.548h-.84V1.204a.692.692 0 0 0-.075-.384.346.346 0 0 0-.286-.101 1.314 1.314 0 0 0-.48.097c-.218.092-.43.198-.633.319v2.36h-.85V.102h.712L15.36.6c.526-.396 1.014-.594 1.467-.594a.946.946 0 0 1 .693.247zm-4.827 1.31H11.53c0-.35.071-.593.184-.71a.812.812 0 0 1 .613-.184.908.908 0 0 1 .526.11.459.459 0 0 1 .144.396c0 .265-.1.388-.304.388zm1.135-.382A1.063 1.063 0 0 0 13.46.3c-.244-.198-.637-.295-1.177-.295-.594 0-1.005.135-1.26.396-.256.26-.38.728-.38 1.385 0 .656.128 1.106.395 1.384.267.279.695.408 1.308.408.477.025.954-.053 1.398-.227l-.075-.54a10.56 10.56 0 0 1-1.219.083 1.138 1.138 0 0 1-.658-.15.833.833 0 0 1-.249-.592h1.385c.605 0 .907-.323.907-.97zm-4.925.313c-.184.09-.39.128-.594.11a1.155 1.155 0 0 1-.593-.11.436.436 0 0 1-.166-.396.426.426 0 0 1 .166-.395c.184-.088.39-.126.593-.11.204-.017.41.02.594.11a.435.435 0 0 1 .162.395.449.449 0 0 1-.155.396zm-1.187 1.75.97.119c.16.008.32.042.47.1.07.039.103.128.103.266a.368.368 0 0 1-.172.369 2.099 2.099 0 0 1-.735.083 2.174 2.174 0 0 1-.73-.08c-.114-.053-.17-.18-.17-.377a.675.675 0 0 1 .264-.48zm.61-3.24c-.575 0-.973.083-1.2.249-.227.167-.338.452-.338.853 0 .458.16.763.476.914a.638.638 0 0 0-.278.495.616.616 0 0 0 .197.55 1.256 1.256 0 0 0-.409.318.703.703 0 0 0-.133.43c0 .397.123.666.37.817.244.15.693.224 1.348.224.654 0 1.093-.078 1.341-.232.247-.154.37-.44.37-.855a.989.989 0 0 0-.226-.688 1.185 1.185 0 0 0-.718-.305l-1.238-.172a.25.25 0 0 1-.22-.172.311.311 0 0 1 .034-.281c.206.035.414.05.623.047.567 0 .963-.084 1.187-.251.228-.17.34-.45.34-.843a1.42 1.42 0 0 0-.09-.54l.442-.047.05-.41H9.175a3.255 3.255 0 0 0-.85-.101zm-2.155 0h.166l-.089.79h-.244a3.523 3.523 0 0 0-1.12.306v2.394h-.846V.102H4.7L4.775.6C5.256.205 5.722.005 6.17.005zM2.278 2.492a1.571 1.571 0 0 1-.989.396c-.295 0-.443-.14-.443-.416V2.34a.428.428 0 0 1 .081-.277.362.362 0 0 1 .28-.103h1.08zM2.816.269A1.48 1.48 0 0 0 1.85.005 9.354 9.354 0 0 0 .154.17l.083.594a19.26 19.26 0 0 1 1.418-.07.872.872 0 0 1 .493.098c.1.105.148.25.13.395v.198H1.004a1.124 1.124 0 0 0-.74.222.78.78 0 0 0-.263.63v.35a.914.914 0 0 0 .297.725c.218.179.494.27.776.259.498.005.973-.213 1.295-.593l.09.518h.658V1.19c0-.44-.1-.746-.3-.921z" fill="#676767" mask="url(#b)" transform="translate(4 17.868)"/></g></svg>