<svg width="36" height="36" fill="none" xmlns="http://www.w3.org/2000/svg"><path d="M18 0c2.837 0 5.52.656 7.907 1.825C31.884 4.753 36 10.895 36 18c0 9.942-8.058 18-18 18-9.94 0-18-8.057-18-18C0 8.06 8.06 0 18 0z" fill="#F2F4F7"/><path d="M22.968 16.497c-.275 0-.502.21-.502.47v2.768h-3.399l-.42-.761-.729-1.262v-2.153c0-.26-.226-.47-.502-.47h-2.46c-.275 0-.502.21-.502.47v4.192h-.47l-1.148-2.023v-2.17c0-.258-.227-.469-.502-.469h-2.46c-.275 0-.502.21-.502.47v4.192h-.777L7.51 15.445c-.05-.21-.26-.356-.486-.356H5.68a.505.505 0 0 0-.485.356l-1.182 4.743a.458.458 0 0 0 .373.566h.193a.485.485 0 0 0 .405-.356l1.101-4.386h.567l1.068 4.322c.048.21.259.372.486.372h1.667c.275 0 .501-.21.501-.47v-4.208h1.49v1.813c0 .08.016.162.064.226l1.344 2.38a.51.51 0 0 0 .437.243h1.262c.276 0 .502-.21.502-.47v-4.192h1.49v1.813c0 .08.015.162.064.226l1.343 2.38a.49.49 0 0 0 .308.227c.048.016.08.016.13.016H23c.276 0 .502-.21.502-.47v-3.237a.542.542 0 0 0-.534-.486z" fill="#000"/><path d="M31.676 15.009c-.275-.05-.534.113-.582.372l-.89 4.37h-.26l-.858-4.29a.488.488 0 0 0-.485-.388h-.939a.488.488 0 0 0-.485.389l-.875 4.273h-.259l-.873-4.273a.488.488 0 0 0-.486-.389h-4.727c-.275 0-.501.21-.501.47v3.237c0 .259.226.47.502.47.275 0 .501-.211.501-.47v-2.752h3.82v.017l.858 4.273a.488.488 0 0 0 .486.388h1.084a.488.488 0 0 0 .486-.388l.874-4.274h.13l.873 4.274a.488.488 0 0 0 .486.388h1.084a.488.488 0 0 0 .486-.388L32 15.883v-.664a.42.42 0 0 0-.324-.21z" fill="#000"/></svg>