<svg width="36" height="36" fill="none" xmlns="http://www.w3.org/2000/svg"><path d="M18 0c2.837 0 5.52.656 7.907 1.825C31.884 4.753 36 10.895 36 18c0 9.942-8.058 18-18 18-9.94 0-18-8.057-18-18C0 8.06 8.06 0 18 0z" fill="#F2F4F7"/><path d="M12.238 19.75c.05-.087.16-.138.269-.138.217 0 .406.167.406.428 0 .26-.182.42-.406.42-.11 0-.218-.043-.269-.13v.515h-.181v-1.219h.181v.124zm.247.536a.236.236 0 0 0 .246-.246.242.242 0 0 0-.246-.254.242.242 0 0 0-.247.254c0 .16.123.246.247.246zm.841.153h-.181v-1.255h.181v.566c.043-.102.174-.138.261-.138.21 0 .326.138.326.37v.457h-.18v-.45c0-.13-.08-.203-.182-.203s-.225.058-.225.218v.435zm1.494-.117c-.05.088-.174.131-.276.131a.412.412 0 0 1-.413-.428c0-.261.196-.42.413-.42.095 0 .218.043.276.13v-.116h.174v.82h-.174v-.117zm-.254-.036c.13 0 .254-.094.254-.254s-.13-.246-.254-.246a.236.236 0 0 0-.247.246c0 .153.11.254.247.254zm.892.153h-.181v-.813h.181v.189c.043-.145.123-.203.225-.203.058 0 .116.014.145.029l-.03.167a.277.277 0 0 0-.122-.03c-.153 0-.218.153-.218.37v.29zm1.276-.436v.436h-.18v-.457c0-.124-.073-.196-.168-.196-.101 0-.203.058-.203.217v.436h-.181v-.813h.181v.124c.051-.116.189-.138.254-.138.13 0 .21.058.254.16a.3.3 0 0 1 .276-.16c.203 0 .311.13.311.362v.465h-.181v-.45c0-.13-.065-.203-.174-.203-.109 0-.189.087-.189.217zm1.458.319c-.05.088-.174.131-.276.131a.412.412 0 0 1-.413-.428c0-.261.196-.42.413-.42.095 0 .218.043.276.13v-.116h.174v.82h-.174v-.117zm-.254-.036c.13 0 .254-.094.254-.254s-.13-.246-.254-.246a.236.236 0 0 0-.246.246c0 .153.116.254.246.254zm1.095-.674c.13 0 .247.05.32.138l-.138.108a.236.236 0 0 0-.182-.08c-.138 0-.254.095-.254.247a.252.252 0 0 0 .436.174l.137.109a.443.443 0 0 1-.326.145.421.421 0 0 1-.435-.428c.007-.254.21-.413.442-.413zm1.291.486h-.645c.014.123.116.203.246.203.087 0 .182-.044.218-.116.043.021.101.043.145.065-.073.145-.225.21-.377.21a.41.41 0 0 1-.42-.428c0-.26.188-.42.42-.42.232 0 .406.167.406.42.007.022.007.051.007.066zm-.174-.13c-.014-.131-.109-.204-.232-.204-.123 0-.225.073-.24.203h.472zm.95-.341h.181v.812h-.18v-.116c-.044.094-.16.137-.24.137-.196 0-.32-.13-.312-.355v-.471h.181v.45c0 .13.073.202.167.202.102 0 .21-.058.21-.217v-.442H21.1zm.704-.001h.174v.145h-.174v.668h-.182v-.668h-.145v-.145h.145v-.304h.182v.304zm.449-.442c.065 0 .116.05.116.116 0 .065-.05.116-.116.116-.065 0-.123-.05-.123-.116a.126.126 0 0 1 .123-.116zm.094.442h-.174v.813h.174v-.813zm.653-.014c.13 0 .247.05.32.138l-.139.108a.245.245 0 0 0-.18-.072c-.139 0-.255.094-.255.246a.252.252 0 0 0 .435.174l.138.11a.443.443 0 0 1-.326.144.421.421 0 0 1-.435-.428.43.43 0 0 1 .442-.42zm1.153.71c-.05.088-.174.131-.275.131a.412.412 0 0 1-.414-.428c0-.261.196-.42.414-.42.094 0 .217.043.275.13v-.116h.174v.82h-.174v-.117zm-.254-.036c.13 0 .254-.094.254-.254s-.13-.246-.254-.246a.236.236 0 0 0-.246.246c0 .153.116.254.246.254zm.711-1.102h.181v1.255h-.18v-1.255zm.435.638c.007-.123.138-.217.29-.217.145 0 .283.065.298.239h-.174c-.008-.058-.066-.087-.116-.087-.044 0-.095.014-.116.043a.086.086 0 0 0-.008.073c.008.029.058.05.102.065l.123.03c.174.043.21.151.21.238 0 .16-.137.247-.326.247-.152 0-.305-.094-.312-.268h.167c.007.072.065.116.16.116.08 0 .145-.037.145-.095 0-.05-.051-.08-.116-.094l-.11-.029c-.166-.043-.231-.13-.217-.26zm-11.139-1.276h-.297v-.355c-.152.26-.479.398-.776.398-.588 0-1.059-.427-1.059-1.08s.471-1.073 1.059-1.073c.297 0 .623.123.776.384v-.34h.297v2.066zm-1.073-.254c.42 0 .776-.276.776-.79 0-.508-.406-.776-.776-.776-.428 0-.762.297-.762.776 0 .464.327.79.762.79zm2.77-1.487a.71.71 0 0 0-.297-.072c-.42 0-.595.493-.595 1.044v.769h-.297v-2.067h.297v.471c.102-.355.29-.514.595-.514.145 0 .297.043.333.08l-.036.29zm1.479 0a.71.71 0 0 0-.297-.072c-.42 0-.595.493-.595 1.044v.769h-.297v-2.067h.297v.471c.102-.355.29-.514.595-.514.145 0 .297.043.334.08l-.037.29zm.051.704c0-.653.493-1.073 1.08-1.073.588 0 1.081.413 1.081 1.073 0 .66-.493 1.08-1.08 1.08-.588 0-1.08-.427-1.08-1.08zm1.864 0c0-.479-.355-.776-.79-.776-.428 0-.79.297-.79.776 0 .479.354.79.79.79a.77.77 0 0 0 .79-.79zm2.654 1.037-.645-1.66-.617 1.66h-.246l-.798-2.067h.312l.595 1.595.594-1.595h.32l.594 1.595.595-1.595h.311l-.776 2.067h-.239zm1.596 0h-.298v-3.184h.298v1.458c.13-.268.45-.384.689-.384.507 0 .797.348.797.906v1.204h-.297v-1.204c0-.377-.181-.616-.5-.616-.327 0-.69.188-.69.689v1.13zm1.834-1.037c0-.653.457-1.073 1.045-1.073.587 0 1.015.413 1.015 1.073 0 .043 0 .094-.007.138h-1.755c.05.406.355.652.74.652.275 0 .515-.13.645-.355.087.022.203.044.297.065-.166.37-.53.588-.942.588-.58-.008-1.038-.436-1.038-1.088zm1.756-.138c-.058-.392-.334-.638-.711-.638-.385 0-.69.246-.74.638h1.45zm2.704 1.175h-.297v-.355c-.152.26-.479.398-.776.398-.587 0-1.059-.427-1.059-1.08s.472-1.073 1.06-1.073c.296 0 .623.123.775.384v-.34h.297v2.066zm-1.073-.254c.42 0 .776-.276.776-.79 0-.508-.406-.776-.776-.776-.428 0-.761.297-.761.776 0 .464.333.79.761.79zm3.532.254h-.297v-.355c-.153.26-.48.398-.776.398-.588 0-1.06-.427-1.06-1.08s.472-1.073 1.06-1.073c.297 0 .623.123.776.384v-1.458H32v3.184zm-1.08-.254c.42 0 .775-.276.775-.79 0-.508-.406-.776-.776-.776-.428 0-.761.297-.761.776.007.464.333.79.761.79z" fill="#877F7A"/><path d="M6.77 18.517a.733.733 0 1 0 0-1.465.733.733 0 0 0 0 1.465z" fill="#4CA950"/><path d="M10.607 20.221v.232H8.242l.044-.043c.399-.218.776-.595 1.059-1.037.435-.667.623-1.436.74-1.915l.021-.029s.037 1.552.08 2.43c.05.174.181.268.42.362zm-1.98-5.054c.007.66-.044 1.45-.196 2.103-.13.558-.297.892-.457 1.124-.225.326-.45.493-.682.573a1.297 1.297 0 0 1-1.82-1.19 1.297 1.297 0 0 1 2.59-.13l.014.015c.188-.544.282-1.313.297-2.162-.348-.275-1.03-.5-1.69-.5-.725 0-1.421.334-1.922.848-.5.515-.761 1.197-.761 1.944 0 .74.297 1.429.812 1.958.53.544 1.153.849 1.9.849 2.089.065 3.3-2.082 3.38-5.244v-.188H8.627z" fill="#4681CF"/><path d="M6.807 20.584H6.72c-.711 0-1.35-.283-1.893-.841-.522-.544-.812-1.233-.812-1.95 0-.755.26-1.422.754-1.93.522-.537 1.218-.848 1.914-.848.617 0 1.306.203 1.668.5-.014.848-.116 1.574-.283 2.096a1.31 1.31 0 0 0-1.305-1.146 1.32 1.32 0 1 0 .53 2.531c.26-.101.485-.283.688-.58.196-.283.341-.646.457-1.124.182-.762.203-1.632.196-2.089h1.429v.167c-.073 3.205-1.32 5.214-3.256 5.214z" stroke="#4681CF" stroke-width=".25" stroke-miterlimit="10"/><path d="m8.286 20.432.014-.015c.385-.21.762-.58 1.066-1.037.436-.667.631-1.436.733-1.878.007.319.043 1.595.072 2.357.051.188.204.283.421.37v.203H8.286z" stroke="#4681CF" stroke-width=".25" stroke-miterlimit="10"/></svg>