<svg height="36" viewBox="0 0 36 36" width="36" xmlns="http://www.w3.org/2000/svg"><mask id="a" fill="#fff"><path d="M0 0h28v3.867H0z" fill-rule="evenodd"/></mask><g fill="none" fill-rule="evenodd"><path d="M18 0c2.837 0 5.52.656 7.907 1.825C31.884 4.753 36 10.895 36 18c0 9.942-8.058 18-18 18-9.94 0-18-8.057-18-18C0 8.06 8.06 0 18 0z" fill="#f2f4f7" fill-rule="nonzero"/><g fill="#000"><path d="M27.439 19.22c-.405 0-.942-.256-.942-1.283 0-1.025.537-1.281.942-1.281s.942.256.942 1.28c0 1.028-.537 1.285-.942 1.285zm0-3.211c-.477 0-1.694.209-1.694 1.928 0 .526.113.909.284 1.189h-1.267v-3.012h-.793v3.669h2.349v-.312c.383.333.862.396 1.12.396.475 0 1.698-.21 1.698-1.93 0-1.718-1.223-1.928-1.697-1.928zm-6.004 1.537h.79c.295 0 .529-.118.529-.41 0-.301-.21-.392-.548-.392h-.771zm0 1.608h.925c.364 0 .576-.165.576-.537 0-.322-.27-.443-.542-.443h-.96zm-.75-3.043h1.687c.878 0 1.104.562 1.104.939 0 .526-.243.675-.394.749.44.17.603.537.603.9 0 .29-.121.564-.311.754-.204.205-.4.33-1.135.33h-1.553z"/><path d="M14.372 2.388h.934L14.851.936h-.011zm-.462 1.394h-.808L14.411.113h.887l1.294 3.67h-.835l-.237-.759h-1.355zM9.99 2.393 10.461.94h.011l.455 1.454zm-8.722-.005.47-1.455h.011l.455 1.455zM10.918.11h-.887L9.007 2.983c.025-.097.035-.2.035-.317 0-.617-.46-.843-.961-.967l-.856-.22c-.152-.036-.364-.119-.364-.405 0-.333.347-.44.639-.44.672 0 .733.388.752.553l.738-.05C8.974.735 8.627-.01 7.558 0 6.366.011 6.145.721 6.145 1.13c0 .81.631.941 1.143 1.078l.353.094c.391.091.666.168.666.455 0 .388-.405.477-.768.477-.582 0-.725-.392-.73-.596l-.669.033v-.006c0-.66-.521-.864-1.022-.988l-.865-.22c-.152-.036-.361-.097-.361-.383 0-.333.308-.44.6-.44.672 0 .733.387.752.552l.738-.057C5.966.726 5.641-.01 4.55 0 3.357.01 3.176.721 3.176 1.13c0 .81.696.947 1.215 1.088l.302.08c.389.09.703.173.703.46 0 .388-.397.476-.76.476-.7 0-.813-.394-.819-.598l-.71.044v.022L2.195.107h-.886L0 3.78h.807l.256-.758h1.355l.237.757h.835l-.199-.562c.215.331.645.651 1.4.651.281 0 1.167-.075 1.393-.819.171.377.609.82 1.513.82.258 0 1.035-.065 1.333-.663l-.21.58h.81l.256-.758h1.355l.237.757h.835zm15.487 1.606L27.157.11H28l-1.201 2.305v1.367h-.818V2.407L24.742.11h.879z" mask="url(#a)" transform="translate(4 16)"/></g></g></svg>