<svg width="36" height="36" fill="none" xmlns="http://www.w3.org/2000/svg"><path d="M18 0c2.837 0 5.52.656 7.907 1.825C31.884 4.753 36 10.895 36 18c0 9.942-8.058 18-18 18-9.94 0-18-8.057-18-18C0 8.06 8.06 0 18 0z" fill="#F2F4F7"/><path d="M18.015 4h-.032C10.261 4.008 4 10.271 4 18c0 7.733 6.267 14 14 14s14-6.267 14-14c0-7.729-6.259-13.992-13.985-14z" fill="url(#a)"/><path d="M10.327 9.718h2.23v6.603l-2.23-2.957V9.718zm2.24 16.73h-2.149v-3.456l2.15-2.959v6.414zm.406-16.732h2.178v5.978l-1.5 2.074-.678-.907V9.716zm2.184 16.731H12.98v-6.994l2.179-3.014v10.008zm.406-16.664 1.97 2.619-1.97 2.718V9.783zm2.178 13.683-2.17 2.981V15.87l2.17-2.996v10.592zm2.572 2.981-2.17-2.981V12.874l2.17 2.995v10.578zm0-11.32-1.97-2.72 1.97-2.618v5.337zm2.592 11.32h-2.178V16.44l2.178 3.014v6.994zm0-9.582-.677.905-1.501-2.074V9.72h2.178v7.145zm2.561 9.582h-2.147v-6.414l2.147 2.959v3.455zm.08-13.079-2.227 2.957V9.723h2.228v3.645z" fill="#fff"/><defs><radialGradient id="a" cx="0" cy="0" r="1" gradientUnits="userSpaceOnUse" gradientTransform="translate(12.664 12.484) scale(21.8368)"><stop stop-color="#419AD5"/><stop offset=".448" stop-color="#397BB4"/><stop offset="1" stop-color="#2E5085"/></radialGradient></defs></svg>