<svg height="36" viewBox="0 0 36 36" width="36" xmlns="http://www.w3.org/2000/svg"><mask id="a" fill="#fff"><path d="M0 0h26v12.407H0z" fill-rule="evenodd"/></mask><g fill="none" fill-rule="evenodd"><path d="M18 0c2.837 0 5.52.656 7.907 1.825C31.884 4.753 36 10.895 36 18c0 9.942-8.058 18-18 18-9.94 0-18-8.057-18-18C0 8.06 8.06 0 18 0z" fill="#f2f4f7" fill-rule="nonzero"/><path d="M9.562 6.47c-.158.601-.343.874-.608.874a.175.175 0 0 1-.14-.07c-.114-.152-.107-.52.013-.957.171-.621.387-.703.577-.703.057 0 .107.025.145.076.102.133.109.418.013.78zm-6.539-.577h-.798c.31-1.052.677-1.521 1.222-1.54zm9.403.209a.286.286 0 0 0 .215.082c.153 0 .318-.095.318-.367a.482.482 0 0 0-.147-.349c-.138-.14-.36-.215-.633-.215-.539 0-.913.222-1.051.62-.102.298.056.616.443.894l.05.039c.228.158.362.259.33.462-.026.165-.203.279-.418.279-.33-.007-.387-.178-.393-.234.057-.026.209-.115.209-.3a.285.285 0 0 0-.083-.214.34.34 0 0 0-.24-.09c-.108 0-.292.039-.317.292-.006.039 0 .077 0 .095a.607.607 0 0 1-.297.229.135.135 0 0 1-.134-.032c-.058-.05-.063-.152-.025-.28.038-.131.43-1.716.43-1.716h-.798l-.063.216c-.064-.102-.215-.254-.564-.254-.539 0-.988.526-1.21.976-.19.374-.539 1.078-.811 1.078-.033 0-.051-.013-.07-.032-.032-.038-.064-.153.025-.475.07-.267.64-2.605.64-2.605H6.47l-.076.323h.513l-.355 1.413c-.26 1.02-.716 1.382-1.02 1.382-.063 0-.114-.02-.14-.058-.082-.1-.025-.348.013-.532.057-.253.235-.976.266-1.11h.564l.083-.322H5.76l.19-.799h-.304l-.006.013c-.406.603-.583.799-1.185.799H4.43l-.076.304h.48a19.26 19.26 0 0 1-.075.368c-.266 1-.773 1.419-.988 1.419-.103 0-.166-.019-.197-.057-.05-.07-.045-.216.02-.475.119-.457.639-2.3.696-2.522h.513l.096-.311H3.802c-.393 0-.856.032-1.312.28-.557.31-.97.886-1.21 1.716 0 .007-.152.595-.285 1.033a.67.67 0 0 1-.666.513.406.406 0 0 1-.278-.126L0 7.4v.419l.025.005c.14.033.31.051.501.051.526 0 .995-.38 1.236-.704.196-.265.26-.5.36-.86l.02-.077h.792c-.032.114-.133.45-.222.773-.076.273-.057.488.058.633.106.146.31.217.588.217.285 0 .799-.07 1.147-.514a.592.592 0 0 0 .146.361c.101.102.248.153.43.153.432 0 .92-.286 1.16-.571.007.108.032.291.153.418a.49.49 0 0 0 .38.153c.482 0 .925-.387 1.128-.698.038.21.177.698.76.698.375 0 .647-.235.799-.406.031.126.14.406.474.406.356 0 .71-.242.875-.425.152.29.323.425.9.425.551 0 1.007-.375 1.084-.724.089-.38-.12-.532-.47-.785l-.043-.032-.07-.05c-.171-.12-.317-.228-.317-.412 0-.197.159-.285.317-.285.133 0 .203.05.234.082a.344.344 0 0 0-.107.24c0 .07.031.153.088.21zm12.94.507c-.108.424-.355.918-.691.918-.076 0-.133-.024-.171-.075-.108-.14-.083-.476.064-1.002.17-.589.367-.874.614-.874a.18.18 0 0 1 .152.076c.127.158.14.55.032.957zm-5.146.018c-.126.552-.348.863-.601.863-.197 0-.292-.184-.305-.229.02-.076.146-.64.215-.893.102-.406.337-.704.539-.704.064 0 .114.026.152.07.07.096.134.324 0 .893zm-2.616-.018c-.108.424-.355.918-.691.918-.076 0-.134-.024-.172-.075-.107-.14-.082-.476.064-1.002.177-.589.374-.874.621-.874a.18.18 0 0 1 .152.076c.12.158.133.55.026.957zm8.212-1.052a.75.75 0 0 0-.621-.298c-.476 0-.88.273-1.337.919-.393.545-.88 1.23-1.236 1.23-.082 0-.152-.026-.196-.089-.108-.14-.108-.45 0-.9.126-.508.367-.862.588-.862.16 0 .223.089.242.145a.286.286 0 0 0-.197.058.305.305 0 0 0-.12.247.34.34 0 0 0 .088.234c.058.058.134.09.222.09.222 0 .38-.185.38-.451a.619.619 0 0 0-.17-.437c-.121-.12-.292-.184-.508-.184-.532 0-1 .456-1.23.723-.26.304-.556.607-.702.754.14-.469.108-.913-.09-1.198a.627.627 0 0 0-.531-.279.975.975 0 0 0-.66.247l.058-.203h-1.122l-.07.273h.31c-.144.476-.544.913-.727 1.102.025-.076.05-.184.056-.323.032-.355-.063-.671-.253-.874a.668.668 0 0 0-.507-.222c-.557 0-1.046.342-1.445 1.008l-.12.209c-.26.45-.526.92-.957.92a.332.332 0 0 1-.285-.141c-.178-.235-.19-.766-.026-1.35.21-.735.654-1.482 1.096-1.482.077 0 .14.031.19.088.172.197.185.66.16.843l-.007.038h.33l.341-1.242h-.31l-.006.013-.127.177c-.07-.089-.298-.298-.786-.298-.557 0-1.533.596-1.863 1.876-.158.621-.088 1.166.196 1.534.204.265.508.411.825.411.544 0 1.026-.411 1.236-.74.03.221.176.74.81.74.57 0 1.236-.43 1.933-1.248l-.539 2.11h.805l.266-1.09c.064.089.222.228.526.228.431 0 1.147-.494 1.768-1.21-.089.36-.038.685.14.912.139.19.354.298.576.298.748 0 1.274-.627 1.452-.875a.873.873 0 0 0 .209.603.82.82 0 0 0 .62.267c.66 0 1.23-.457 1.426-1.135.14-.488.101-.893-.101-1.166zM.114 12.375V9.618H25.86v2.789H.114zm0-9.6V0H25.86v2.807H.114z" fill="#0094c2" mask="url(#a)" transform="translate(5 12)"/></g></svg>