<svg width="36" height="36" fill="none" xmlns="http://www.w3.org/2000/svg"><path d="M18 0c2.837 0 5.52.656 7.907 1.825C31.884 4.753 36 10.895 36 18c0 9.942-8.058 18-18 18-9.94 0-18-8.057-18-18C0 8.06 8.06 0 18 0z" fill="#F2F4F7"/><path d="M5.907 16C4.81 16 4 16.786 4 17.906c0 .808.572 1.594 1.573 1.594.31 0 .524-.047.787-.119l-.144-.62c-.119.025-.262.072-.452.072-.477 0-.834-.474-.834-.95 0-.668.333-1.168 1.048-1.168.072 0 .31.024.549.095l.214-.405.071-.12c-.047-.047-.071-.047-.095-.07-.215-.144-.524-.215-.81-.215zm16.061.095-.095.453-.072.31h.883l-.525 2.595h.906l.548-2.596h.882l.143-.762h-2.67zm9.174.001v.022l-.238 1.12c-.095-.215-.262-.334-.548-.334h-.024c-.594 0-1.095.548-1.238 1.215-.024.143-.047.263-.047.406 0 .166.023.333.047.452.096.31.286.5.549.5a1.4 1.4 0 0 0 .713-.214c.047-.024.095-.072.142-.095l-.047.262h.858L32 16.096h-.858zm-15.774.023-.692 3.334h.882l.19-1.12c.072-.333.24-.81.573-.81.048 0 .143.024.167.238a.26.26 0 0 1-.024.12l-.31 1.549h.883l.333-1.597c.024-.143.048-.286.048-.381 0-.405-.191-.546-.525-.546-.286 0-.643.165-.93.498l.263-1.285h-.858zm-7.173.738c-.072 0-.144 0-.215.024-.596.095-1.12.524-1.287 1.096-.024.12-.072.238-.072.381 0 .12.024.262.072.381.12.405.477.787 1.049.787.071 0 .166 0 .214-.024a1.459 1.459 0 0 0 1.335-1.453c.048-.5-.238-1.192-1.096-1.192zm11.128.024c-.072 0-.166 0-.262.024-.596.12-1.288.596-1.335 1.62-.024.334.167.977.835.977.166 0 .333-.024.5-.072.31-.071.572-.19.81-.333l-.166-.405c-.238.119-.405.215-.62.215-.453 0-.405-.43-.405-.549.12.024.262.024.381 0 .572-.095 1.12-.381 1.12-.81 0-.476-.381-.667-.858-.667zm9.532.024c-.31 0-.5.38-.548.5l-.071.095-.048-.024.12-.547h-.883l-.524 2.501h.882l.215-1.072c.095-.5.357-.619.572-.619.143 0 .19.023.238.047l.381-.643.048-.096c-.024.024-.024.001-.047 0h-.001c-.072-.095-.19-.142-.334-.142zm-3.48.023c-.429 0-.785.262-1.023.667-.167.286-.262.62-.286.977 0 .381.095.69.286.834a.448.448 0 0 0 .334.119c.308 0 .546-.119.713-.214.048-.024.095-.072.143-.096l-.048.262h.859l.524-2.501h-.882v-.024l-.047.31h-.024c-.096-.215-.262-.334-.525-.334h-.024zm-11.318.002c-.572 0-1.526.45-1.573 1.547-.024.548.262 1.048.905 1.048.334 0 .715-.119 1.05-.262l-.168-.429c-.12.048-.31.119-.453.119-.143 0-.429-.071-.429-.62 0-.476.358-.905.74-.905.166 0 .261.048.357.095l.262-.428a1.363 1.363 0 0 0-.691-.165zm-4.075.022-.334 1.62a2.637 2.637 0 0 0-.048.405c0 .358.167.524.525.524.286 0 .667-.166.953-.5l-.12.452h.883l.525-2.501h-.883l-.214 1.12c-.071.333-.238.81-.572.81-.048 0-.143-.024-.167-.239 0-.024.024-.07.024-.118l.31-1.573h-.883zm-1.835.357c.215 0 .263.287.239.644-.048.763-.263 1-.406 1.072a.419.419 0 0 1-.143.024c-.214 0-.262-.286-.262-.667 0-.333.143-.858.405-1.025a.444.444 0 0 1 .167-.048zm11.057.025c.167 0 .262.095.238.262-.023.19-.142.31-.38.357-.12.024-.239.024-.382.024.072-.286.19-.524.381-.62.048-.023.096-.023.143-.023zm6.386.095c.095 0 .238.071.238.31-.047.666-.238 1.048-.429 1.19a.263.263 0 0 1-.143.072c-.215 0-.262-.19-.262-.453 0-.547.215-.905.405-1.048.072-.048.119-.071.19-.071zm4.956 0c.095 0 .263.071.239.31-.048.666-.262 1.048-.43 1.19-.047.048-.093.072-.14.072-.215 0-.263-.19-.263-.453.024-.547.215-.905.404-1.048.071-.048.118-.071.19-.071zm-9.84.453-.12.476h1.097l.023-.167.072-.31h-1.073z" fill="#0061A0"/></svg>