<svg height="36" viewBox="0 0 36 36" width="36" xmlns="http://www.w3.org/2000/svg"><mask id="a" fill="#fff"><path d="M0 0h16.844v1.684H0z" fill-rule="evenodd"/></mask><g fill="none" fill-rule="evenodd"><path d="M18 0c2.837 0 5.52.656 7.907 1.825C31.884 4.753 36 10.895 36 18c0 9.942-8.058 18-18 18-9.94 0-18-8.057-18-18C0 8.06 8.06 0 18 0z" fill="#f2f4f7" fill-rule="nonzero"/><path d="M24.598 4.38 10.463 23.737v4.941H26.42V4.38z" fill="#fff200"/><path d="M10.464 23.698 24.598 4.38l-14.142-.006z" fill="#ed1d24"/><path d="M26.431 4H10.082v25.048h16.723V4z" stroke="#fff" stroke-width=".656"/><path d="M10.127 4.046v24.957H26.76V4.046zm.656 24.301h15.32V4.701h-15.32z" fill="#000"/><path d="m10.16 24.1 1.65.075L24.236 7.324l.125-2.62z" fill="#0095da"/><path d="m22.2 23.334-4.822.001 2.422-4.207zm.402-7.172-6.525-4.31 7.04-3.526z" fill="#000"/><path d="M18.634 25.702c.011-.992 2.198-.91 3.1 0z" fill="#ed1d24"/><path d="M14.078 0h.45l1.683 1.125h.009V.042h.624v1.642h-.45L14.71.559h-.008v1.092h-.624zm-2.76.315V.67h.992v.273h-.992v.435h1.031v.273h-1.654V.042h1.654v.273zM8.507 1.651h-.624V.315h-.644V.043h1.912v.272h-.644zm-3.435-.273h.882v.273H4.449V.043h.623zM.921 1.312l-.263.339H0L1.247 0h.484l1.213 1.651h-.666l-.246-.339zm.538-.84h-.008l-.352.585h.759z" fill="#000" mask="url(#a)" transform="translate(10 30.316)"/></g></svg>