<svg width="36" height="36" fill="none" xmlns="http://www.w3.org/2000/svg"><path d="M18 0c2.837 0 5.52.656 7.907 1.825C31.884 4.753 36 10.895 36 18c0 9.942-8.058 18-18 18-9.94 0-18-8.057-18-18C0 8.06 8.06 0 18 0z" fill="#F2F4F7"/><path d="m10.916 15.427 1.694 3.457-3.533.005 1.839-3.462zM9.24 13 4 23.453h2.772l1.344-2.814h5.292l1.255 2.814h5.068L14.719 13H9.241zm22.451 1.185c-.49-1.353-1.899-1.176-1.899-1.176h-3.967s-1.409-.177-1.899 1.176c-.49 1.354-.326 7.401 0 8.031.327.63.681 1.237 1.876 1.237h4.009c1.194 0 1.544-.607 1.876-1.237.33-.63.494-6.677.004-8.03zm-2.725 6.977c0 .331-.27.597-.597.597h-1.111a.595.595 0 0 1-.597-.597v-5.847c0-.327.266-.593.597-.593h1.11c.332 0 .598.266.598.593v5.847zm-6.226 2.291h-2.972v-6.855h-1.997c-.014.028 0-1.857 0-1.857l3.21-1.727h1.77l-.01 10.439z" fill="#06C"/></svg>