<svg height="36" viewBox="0 0 36 36" width="36" xmlns="http://www.w3.org/2000/svg"><linearGradient id="c" x1="39.127%" x2="72.458%" y1="20.229%" y2="90.384%"><stop offset="0" stop-color="#fff"/><stop offset="1" stop-color="#a5a5a3"/></linearGradient><linearGradient id="e" x1="46.71%" x2="51.189%" y1="22.974%" y2="60.939%"><stop offset="0" stop-color="#0062ae"/><stop offset="1" stop-color="#004f9e"/></linearGradient><linearGradient id="g" x1="50.005%" x2="50.005%" y1="-.244%" y2="99.695%"><stop offset="0" stop-color="#007cc3"/><stop offset="1" stop-color="#0059a5"/></linearGradient><linearGradient id="i" x1="49.99%" x2="49.99%" y1="99.777%" y2="-.192%"><stop offset="0" stop-color="#007cc3"/><stop offset="1" stop-color="#00a3e2"/></linearGradient><linearGradient id="k" x1="38.416%" x2="75.962%" y1="33.291%" y2="62.718%"><stop offset="0" stop-color="#00aae8"/><stop offset="1" stop-color="#0082c8"/></linearGradient><linearGradient id="m" x1="26.246%" x2="72.674%" y1=".694%" y2="86.651%"><stop offset="0" stop-color="#00aae8"/><stop offset="1" stop-color="#0090d4"/></linearGradient><linearGradient id="o" x1="35.619%" x2="55.587%" y1="3.168%" y2="102.818%"><stop offset="0" stop-color="#00aae8"/><stop offset="1" stop-color="#00a3e2"/></linearGradient><mask id="a" fill="#fff"><path d="M0 0h1.917v3.528H0z" fill-rule="evenodd"/></mask><mask id="b" fill="#fff"><path d="M0 0h1.917v3.528H0z" fill-rule="evenodd"/></mask><mask id="d" fill="#fff"><path d="M1.519.054c-.046.016-.084.039-.123.054-.008.008-.023.008-.031.016.598.437.982 1.15.982 1.947 0 .1-.008.2-.016.3a2.852 2.852 0 0 1-2.293-.483c-.014.092-.031.191-.038.283a4.535 4.535 0 0 0 2.209.69A2.398 2.398 0 0 1 .913 4.273c.192.153.406.283.644.376a2.743 2.743 0 0 0 1.189-1.796c.338-.022.659-.083.974-.168.007.069.007.146.007.222 0 .714-.26 1.358-.69 1.856a2.447 2.447 0 0 0 1.212-.682 3.41 3.41 0 0 0 .092-.797c0-.27-.031-.538-.092-.791.246-.107.475-.229.698-.376A2.446 2.446 0 0 0 4.326.692c-.123.29-.3.567-.507.797A3.337 3.337 0 0 0 1.672 0c-.054.017-.099.039-.153.054m.191.139a2.82 2.82 0 0 1 1.795 1.61c-.214.177-.46.322-.721.429A2.704 2.704 0 0 0 1.71.193" fill-rule="evenodd"/></mask><mask id="f" fill="#fff"><path d="M.143.376a3.46 3.46 0 0 1 0 1.588A2.477 2.477 0 0 0 .857.223C.856.146.856.077.848 0a4.707 4.707 0 0 1-.705.376" fill-rule="evenodd"/></mask><mask id="h" fill="#fff"><path d="M1.189.169A2.758 2.758 0 0 1 0 1.964c.284.115.591.177.92.177.192 0 .383-.024.56-.062.43-.498.69-1.143.69-1.856 0-.076 0-.145-.007-.223a4.847 4.847 0 0 1-.974.169" fill-rule="evenodd"/></mask><mask id="j" fill="#fff"><path d="M0 .169c0 .783.36 1.472.92 1.933A2.425 2.425 0 0 0 2.217.691 4.524 4.524 0 0 1 .007 0C0 .053 0 .107 0 .169" fill-rule="evenodd"/></mask><mask id="l" fill="#fff"><path d="M.739 0C.48 0 .233.046 0 .13c.905.193 1.68.738 2.155 1.496.207-.237.383-.506.507-.797A2.464 2.464 0 0 0 .805.001L.743 0z" fill-rule="evenodd"/></mask><mask id="n" fill="#fff"><path d="M1.082 2.039c.26-.107.506-.252.721-.429A2.832 2.832 0 0 0 0 0a2.751 2.751 0 0 1 1.082 2.039" fill-rule="evenodd"/></mask><mask id="p" fill="#fff"><path d="M0 1.764a2.833 2.833 0 0 0 2.293.483c.016-.1.016-.2.016-.3 0-.797-.391-1.503-.982-1.947A2.525 2.525 0 0 0 0 1.764" fill-rule="evenodd"/></mask><g fill="none" fill-rule="evenodd"><path d="M18 0c2.837 0 5.52.656 7.907 1.825C31.884 4.753 36 10.895 36 18c0 9.942-8.058 18-18 18-9.94 0-18-8.057-18-18C0 8.06 8.06 0 18 0z" fill="#f2f4f7" fill-rule="nonzero"/><g fill="#1a1918"><path d="M5.196 21.567c-.184.414-.039.583.598.583v.161H4v-.16c.644 0 .682-.132.92-.669l1.687-3.895h.1l1.695 3.895c.237.537.276.668.912.668v.161H7.19v-.16c.636 0 .782-.162.598-.584l-.368-.852H5.564zm1.288-2.976-.797 1.848H7.29z"/><path d="M0 1.112V.928C.46.829.629.499.683 0h.26v.843h.667v.269H.943v1.549c0 .368.1.56.346.56.137 0 .321-.099.498-.268l.13.13c-.214.26-.552.445-.805.445-.422 0-.713-.269-.713-.867V1.112z" mask="url(#a)" transform="translate(9.238 18.921)"/><path d="M11.423 22.311v-.16c.514 0 .606-.132.606-.899V18.83c0-.767-.092-.897-.606-.897v-.162l1.15-.19v3.665c0 .766.1.897.606.897v.161h-1.756zm4.364.084c-.3 0-.483-.169-.521-.445-.376.338-.652.461-.96.461-.375 0-.69-.239-.69-.645 0-.652.76-.935 1.634-1.089 0-.575-.076-.805-.513-.805-.177 0-.438.123-.438.368a.26.26 0 0 1-.261.268.262.262 0 0 1-.268-.268c0-.368.483-.614.974-.614.744 0 1.05.315 1.05 1.043v1.16c0 .19.062.297.177.297.077 0 .16-.06.215-.115l.107.146a.723.723 0 0 1-.506.238zm-.537-1.48c-.728.168-1.058.421-1.058.76 0 .244.169.39.36.39.16 0 .345-.054.698-.368zm3.674-1.28c.69 0 .997.49.997 1.143v.483c0 .767.092.896.606.896v.162H18.77v-.162c.498 0 .606-.13.606-.896v-.445c0-.498-.177-.821-.637-.821-.422 0-.882.345-.882.767v.499c0 .79.062.896.537.896v.162h-1.687v-.162c.506 0 .606-.13.606-.896v-.384c0-.766-.1-.89-.606-.89v-.161l1.02-.191c.037.076.106.39.13.552.206-.261.56-.552 1.065-.552"/><path d="M0 1.112V.928C.46.829.629.499.683 0h.26v.843h.668v.269H.943v1.549c0 .368.1.56.346.56.138 0 .322-.099.498-.268l.13.13c-.214.26-.552.445-.805.445-.422 0-.713-.269-.713-.867V1.112z" mask="url(#b)" transform="translate(20.726 18.921)"/><path d="M23.065 22.311v-.16c.506 0 .606-.132.606-.899v-.383c0-.767-.1-.89-.606-.89v-.16l1.15-.193v1.626c0 .767.092.898.606.898v.161zm.874-3.429a.342.342 0 0 1 0-.682.342.342 0 0 1 0 .682zm3.482 3.513c-.299 0-.483-.169-.52-.445-.377.338-.653.461-.96.461-.376 0-.69-.239-.69-.645 0-.652.76-.935 1.633-1.089 0-.575-.077-.805-.514-.805-.176 0-.437.123-.437.368a.26.26 0 0 1-.26.268.262.262 0 0 1-.269-.268c0-.368.483-.614.974-.614.744 0 1.051.315 1.051 1.043v1.16c0 .19.061.297.176.297.077 0 .161-.06.215-.115l.107.146a.726.726 0 0 1-.506.238zm-.537-1.48c-.729.168-1.058.421-1.058.76 0 .244.17.39.36.39.161 0 .345-.054.698-.368z"/></g><path d="M1.519.054c-.046.016-.084.039-.123.054-.008.008-.023.008-.031.016.598.437.982 1.15.982 1.947 0 .1-.008.2-.016.3a2.852 2.852 0 0 1-2.293-.483c-.014.092-.031.191-.038.283a4.535 4.535 0 0 0 2.209.69A2.398 2.398 0 0 1 .913 4.273c.192.153.406.283.644.376a2.743 2.743 0 0 0 1.189-1.796c.338-.022.659-.083.974-.168.007.069.007.146.007.222 0 .714-.26 1.358-.69 1.856a2.447 2.447 0 0 0 1.212-.682 3.41 3.41 0 0 0 .092-.797c0-.27-.031-.538-.092-.791.246-.107.475-.229.698-.376A2.446 2.446 0 0 0 4.326.692c-.123.29-.3.567-.507.797A3.337 3.337 0 0 0 1.672 0c-.054.017-.099.039-.153.054m.191.139a2.82 2.82 0 0 1 1.795 1.61c-.214.177-.46.322-.721.429A2.704 2.704 0 0 0 1.71.193" fill="url(#c)" mask="url(#d)" transform="translate(27.038 13.13)"/><path d="M.143.376a3.46 3.46 0 0 1 0 1.588A2.477 2.477 0 0 0 .857.223C.856.146.856.077.848 0a4.707 4.707 0 0 1-.705.376" fill="url(#e)" mask="url(#f)" transform="translate(31.143 15.255)"/><path d="M1.189.169A2.758 2.758 0 0 1 0 1.964c.284.115.591.177.92.177.192 0 .383-.024.56-.062.43-.498.69-1.143.69-1.856 0-.076 0-.145-.007-.223a4.847 4.847 0 0 1-.974.169" fill="url(#g)" mask="url(#h)" transform="translate(28.595 15.822)"/><path d="M0 .169c0 .783.36 1.472.92 1.933A2.425 2.425 0 0 0 2.217.691 4.524 4.524 0 0 1 .007 0C0 .053 0 .107 0 .169" fill="url(#i)" mask="url(#j)" transform="translate(27.038 15.309)"/><path d="M.739 0C.48 0 .233.046 0 .13c.905.193 1.68.738 2.155 1.496.207-.237.383-.506.507-.797A2.464 2.464 0 0 0 .805.001L.743 0z" fill="url(#k)" mask="url(#l)" transform="translate(28.71 13)"/><path d="M1.082 2.039c.26-.107.506-.252.721-.429A2.832 2.832 0 0 0 0 0a2.751 2.751 0 0 1 1.082 2.039" fill="url(#m)" mask="url(#n)" transform="translate(28.747 13.323)"/><path d="M0 1.764a2.833 2.833 0 0 0 2.293.483c.016-.1.016-.2.016-.3 0-.797-.391-1.503-.982-1.947A2.525 2.525 0 0 0 0 1.764" fill="url(#o)" mask="url(#p)" transform="translate(27.076 13.254)"/></g></svg>