<svg height="36" viewBox="0 0 36 36" width="36" xmlns="http://www.w3.org/2000/svg"><g fill="none" fill-rule="evenodd"><path d="M18 0c2.837 0 5.52.656 7.907 1.825C31.884 4.753 36 10.895 36 18c0 9.942-8.058 18-18 18-9.94 0-18-8.057-18-18C0 8.06 8.06 0 18 0z" fill="#f2f4f7" fill-rule="nonzero"/><path d="M5 25.883h26V11H5z" fill="#fff"/><path d="M5 25.883h26V11H5z" fill="#0c3d6e"/><path d="m22.56 20.262.724-.764-.764-.905-.764.783-.981-1.24c.564-.407 1.145-.984 1.105-1.726-.055-1.01-.857-1.622-1.852-1.568-.985.053-1.715.764-1.661 1.765.03.546.29.98.634 1.402l-.423.278c-.62.412-.995 1.002-.995 1.755 0 1.136.859 1.97 2.02 1.97.775 0 1.406-.376 1.973-.86l.558.68h1.635zm-2.457-4.487c.357-.019.558.32.575.634.018.322-.117.544-.344.754l-.218.198-.353-.438a.832.832 0 0 1-.19-.491c-.018-.321.165-.637.53-.657m-.435 5.062c-.457 0-.822-.474-.822-.903 0-.493.501-.823.866-1.092l1.07 1.405c-.284.268-.694.59-1.114.59m4.36-3.874c-.028 1.05 1.089 1.584 1.58 1.892.36.226.915.54 1.048.98a.747.747 0 0 1-.152.673c-.152.172-.405.27-.672.262-.533-.015-.827-.46-1.167-.976l-.055-.081-.92.917.015.028c.504.884 1.23 1.365 2.096 1.387.75.02 1.367-.288 1.77-.7.384-.394.569-.955.536-1.622-.049-.95-1.044-1.526-1.766-1.972-.599-.37-1.002-.442-.989-.934.012-.438.443-.7.81-.69.378.009.773.213 1.083.56l.034.038.737-.978-.025-.026c-.47-.49-1.194-.817-1.847-.835-1.195-.03-2.084.891-2.116 2.077m-7.764 4.887h-1.345v-5.813h-1.645v-1.146h4.549v1.146h-1.56zm-4.621-6.946h-1.112l-2.635 6.942h1.39l.555-1.426h2.492l.555 1.426h1.39zm-1.338 4.328.783-2.075.769 2.075z" fill="#fff"/></g></svg>