<svg width="36" height="36" fill="none" xmlns="http://www.w3.org/2000/svg"><path d="M18 0c2.837 0 5.52.656 7.907 1.825C31.884 4.753 36 10.895 36 18c0 9.942-8.058 18-18 18-9.94 0-18-8.057-18-18C0 8.06 8.06 0 18 0z" fill="#F2F4F7"/><g fill-rule="evenodd" clip-rule="evenodd"><path d="M12.142 17.388v1.408c0 .187.04.328.12.423.08.095.2.143.357.143.158 0 .277-.048.357-.143.074-.087.114-.213.12-.378v-1.453h.591v1.447c0 .315-.098.567-.295.756-.197.188-.455.283-.773.283s-.576-.095-.773-.283a.984.984 0 0 1-.294-.701l-.001-.055v-1.447h.59zm4.956-.129c.361 0 .663.118.906.352.23.222.35.506.363.852l.002.062v.088c0 .371-.122.674-.365.909a1.252 1.252 0 0 1-.906.352c-.36 0-.66-.117-.898-.35-.225-.22-.343-.503-.356-.849l-.001-.062v-.088c0-.374.119-.679.357-.913.238-.235.537-.352.898-.352zm12.274 0c.345 0 .627.115.847.345.22.23.33.529.33.896l-.003.118-.003.066-.004.067h-1.783c.027.2.096.357.207.468a.586.586 0 0 0 .433.167.677.677 0 0 0 .34-.073.456.456 0 0 0 .134-.12l.022-.03h.604a.948.948 0 0 1-.37.504c-.201.138-.45.207-.75.207a1.18 1.18 0 0 1-.878-.36 1.228 1.228 0 0 1-.351-.845l-.001-.06v-.08c0-.364.117-.666.352-.908a1.17 1.17 0 0 1 .874-.361zm-1.622-.878v3.414h-.458l-.084-.276h-.01a.86.86 0 0 1-.346.269 1.229 1.229 0 0 1-.48.086 1.09 1.09 0 0 1-.818-.355 1.223 1.223 0 0 1-.338-.828l-.001-.063v-.093c0-.374.112-.68.337-.919.225-.237.514-.357.869-.357.164 0 .304.023.42.067a.794.794 0 0 1 .27.17l.034.034h.01v-1.149h.595zm-4.252.878c.16 0 .307.03.44.089.116.052.226.127.329.227l.043.044h.01l.098-.286h.434v2.462h-.463l-.094-.296h-.01a.81.81 0 0 1-.334.276 1.139 1.139 0 0 1-.473.094 1.08 1.08 0 0 1-.815-.35 1.229 1.229 0 0 1-.331-.832l-.001-.064v-.088c0-.368.11-.672.33-.914.22-.24.498-.361.837-.361zm-8.578-.547v.556h.625v.463h-.625v1.335c0 .092.022.161.067.207.044.046.112.07.204.07a.559.559 0 0 0 .309-.092l.035-.022h.084v.487a.983.983 0 0 1-.241.086 1.128 1.128 0 0 1-.256.038c-.266 0-.466-.07-.6-.207-.126-.13-.193-.318-.202-.566V17.73h-.336v-.271c.158-.076.29-.17.394-.286.094-.102.178-.235.253-.4l.028-.062h.261zm5.647-.183v.537h-.906v2.73h-.62v-2.73h-.946v-.537h2.472zm1.351.785c.06 0 .12.005.18.012l.017.002v.586h-.221c-.22 0-.379.049-.475.145-.091.09-.14.26-.145.505v1.231h-.597v-2.462h.424l.128.473h.01a.577.577 0 0 1 .236-.36.744.744 0 0 1 .443-.133zm10.282 0c.06 0 .12.004.18.012l.017.002v.586h-.221c-.22 0-.379.049-.475.145-.09.09-.14.26-.145.505v1.231h-.597v-2.462h.424l.128.473h.01a.576.576 0 0 1 .236-.36.743.743 0 0 1 .443-.133zm-22.102-.72 1.26 3.122v.08h-.634l-.246-.65-.053-.14H9.097l-.052.14-.246.65h-.61v-.08l1.26-3.121h.65zm-2.445 1.872-.292.723a.964.964 0 0 1-.864.605l-2.893.001.536-1.329h3.513zm15.938-.724a.6.6 0 0 0-.497.222c-.118.147-.177.348-.177.6 0 .253.059.452.177.598.118.147.284.22.497.22.21 0 .375-.074.495-.22.12-.146.18-.345.18-.598s-.06-.453-.18-.6a.602.602 0 0 0-.495-.222zm2.899 0a.6.6 0 0 0-.498.222c-.118.147-.177.348-.177.6 0 .253.06.452.177.598.119.147.284.22.498.22.21 0 .375-.074.495-.22.12-.146.18-.345.18-.598s-.06-.453-.18-.6a.603.603 0 0 0-.495-.222zm-9.387.01a.586.586 0 0 0-.485.219c-.116.146-.174.344-.174.593 0 .25.058.447.174.593a.586.586 0 0 0 .485.22c.207 0 .37-.073.488-.22.118-.146.177-.343.177-.593 0-.25-.06-.447-.177-.593a.593.593 0 0 0-.488-.22zm-7.334-.547h-.01a1.994 1.994 0 0 1-.055.185c-.02.06-.052.148-.096.263l-.017.045-.29.77h.922l-.287-.77a24.365 24.365 0 0 1-.13-.367 1.74 1.74 0 0 1-.038-.126zm19.622.542a.595.595 0 0 0-.401.133.703.703 0 0 0-.207.355l-.012.049h1.167a.577.577 0 0 0-.16-.394.528.528 0 0 0-.387-.143z" fill="#222B5E"/><path d="M8.41 16.595H5.515a.965.965 0 0 0-.865.606l-.292.723h3.513l.537-1.329z" fill="#B11212"/></g></svg>