<svg width="36" height="36" fill="none" xmlns="http://www.w3.org/2000/svg"><path d="M18 0c2.837 0 5.52.656 7.907 1.825C31.884 4.753 36 10.895 36 18c0 9.942-8.058 18-18 18-9.94 0-18-8.057-18-18C0 8.06 8.06 0 18 0z" fill="#F2F4F7"/><path d="M11.33 14.024c-.628.08-.99.184-1.34.39-.142.086-.316.24-.54.478-.304.328-5.41 6.948-5.45 7.06-.013.04.219.048 1.99.048 1.109 0 2.112-.016 2.232-.034.298-.023.575-.158.776-.378.17-.172.374-.596.62-1.092l.24-.496h3.562v-2h-2.6l.344-.61c.5-1.008.552-1.09.942-1.288.254-.126.67-.102 1.32-.102h.618v6h3.714v-8l-3.148.004c-1.754.002-3.226.012-3.28.02zM18.376 22h3.176c2.792-.014 3.272-.024 3.526-.07.774-.14 1.23-.72 1.71-1.286.206-.244.3-.356 3.018-3.826l2.194-2.8-2.106-.012c-1.472-.006-2.16.004-2.29.028-.434.088-.756.386-1.036.964-.688 1.42-1.986 4.128-2.098 4.292-.244.372-.54.59-.906.674-.253.028-.509.04-.764.036h-.708v-6h-3.716v8z" fill="#000"/></svg>