<svg height="36" viewBox="0 0 36 36" width="36" xmlns="http://www.w3.org/2000/svg"><mask id="a" fill="#fff"><path d="M0 0h26.69v3.177H0z" fill-rule="evenodd"/></mask><g fill="none" fill-rule="evenodd"><path d="M18 0c2.837 0 5.52.656 7.907 1.825C31.884 4.753 36 10.895 36 18c0 9.942-8.058 18-18 18-9.94 0-18-8.057-18-18C0 8.06 8.06 0 18 0z" fill="#f2f4f7" fill-rule="nonzero"/><path d="M19.593 17.738h-1.129l-.482-5.04c-.028-.258-.16-.238-.16-.238s-.131-.02-.162.237l-.483 5.04h-1.129l.664-5.477c.187-1.317 1.112-1.26 1.112-1.26s.921-.06 1.109 1.26zM4 22.946h1.451c.786.003 1.773-1.08 3.083-1.068 1.914.021 2.883 1.874 4.717 1.854 1.249-.013 1.269-.806 1.732-1.592h1.189c-.342.786-.826 2.498-2.902 2.52-2.095.02-2.699-1.835-4.715-1.835-1.169 0-2.056 1.027-3.124 1.027H4zm27.995 0h-1.872c-.786.003-1.773-1.08-3.083-1.068-1.914.021-2.881 1.874-4.715 1.854-1.25-.013-1.27-.806-1.733-1.592h-1.189c.342.786.826 2.498 2.901 2.52 2.096.02 2.701-1.835 4.717-1.835 1.168 0 2.055 1.027 3.122 1.027h1.852z" fill="#cc2229"/><path d="m26.237 2.692.021-.114h.093c.04 0 .1-.003.091.052-.01.053-.044.063-.09.062zm.15.063c.074-.006.12-.036.133-.113.017-.097-.03-.127-.138-.127h-.2l-.072.414h.086l.03-.174h.071l.06.174h.099zm-.151.348a.476.476 0 0 0 .449-.382c.038-.212-.104-.383-.314-.383a.472.472 0 0 0-.449.383c-.038.21.102.382.314.382zm.016-.091c-.166 0-.26-.122-.23-.29a.339.339 0 0 1 .333-.291c.163 0 .259.12.229.291a.343.343 0 0 1-.332.29zm-4.325.088.534-3.022h1.197l.199 1.885.864-1.885h1.197L25.385 3.1h-.892l.163-.923.098-.471.146-.546h-.009l-.89 1.94h-.689l-.205-1.94h-.008l-.036.445-.062.468L22.82 3.1zM20.638 0c-.939 0-1.691.616-1.858 1.563-.18 1.028.35 1.614 1.297 1.614.895 0 1.69-.578 1.87-1.604C22.088.776 21.717 0 20.638 0zm-.139.738c.439-.011.53.424.458.835-.088.498-.32.867-.749.867-.474 0-.506-.481-.438-.867.067-.381.281-.835.729-.835zm-2.74.494c.026-.312-.139-.494-.45-.494-.349 0-.61.298-.714.881-.074.424-.052.821.451.821.319 0 .51-.224.599-.512h.953c-.226.78-.868 1.249-1.665 1.249-.999 0-1.495-.611-1.323-1.591C15.783.608 16.554 0 17.397 0c.923 0 1.36.457 1.302 1.232zM13.557 3.1c.971 0 1.681-.435 1.883-1.574.176-.997-.35-1.448-1.324-1.448h-1.327L12.256 3.1zm.098-2.318h.19c.528 0 .705.168.594.799-.101.573-.396.817-.858.817h-.21zM9.818 3.1l.183-.398h.987l.047.398h.987L11.471.078h-1.007L8.848 3.1zm1.109-1.028H10.3L10.799.99zM8.015 0c-.94 0-1.69.616-1.857 1.563-.182 1.028.349 1.614 1.297 1.614.892 0 1.688-.578 1.868-1.604C9.465.776 9.093 0 8.015 0zm-.138.738c.438-.011.529.424.456.835-.088.498-.321.867-.747.867-.475 0-.508-.481-.439-.867.066-.381.281-.835.73-.835zM4.445 2.047c.461 0 .506.128.437.525-.048.266-.057.46-.044.528h1.003l.016-.093c-.117 0-.08-.136-.012-.528.108-.609-.072-.685-.371-.8.37-.098.577-.392.639-.742.103-.586-.18-.859-1.187-.859H3.499L2.966 3.1h.991l.185-1.053zM4.366.782h.461c.231 0 .381.1.343.316-.037.21-.214.287-.52.287h-.39zM1.472 3.1c.782 0 1.339-.233 1.457-.909.058-.328-.068-.608-.381-.692.219-.126.461-.354.516-.663C3.17.235 2.656.078 1.976.078H.532L0 3.1zM1.746.782c.21 0 .403.002.362.238-.031.177-.19.264-.387.264h-.41l.088-.502zm-.219 1.051c.313 0 .539.018.492.287-.04.227-.233.278-.474.278h-.431l.099-.565z" fill="#000" mask="url(#a)" transform="translate(5.31 18.35)"/></g></svg>