<svg width="36" height="36" fill="none" xmlns="http://www.w3.org/2000/svg"><defs><linearGradient id="a" x1="19.494" y1="20.86" x2="19.494" y2="24.43" gradientUnits="userSpaceOnUse"><stop stop-color="#004473"/><stop offset="1" stop-color="#007CB7"/></linearGradient><linearGradient id="b" x1="15.35" y1="20.946" x2="15.35" y2="24.43" gradientUnits="userSpaceOnUse"><stop stop-color="#004473"/><stop offset="1" stop-color="#007CB7"/></linearGradient><linearGradient id="c" x1="9.855" y1="20.946" x2="9.855" y2="24.43" gradientUnits="userSpaceOnUse"><stop stop-color="#004473"/><stop offset="1" stop-color="#007CB7"/></linearGradient><linearGradient id="d" x1="24.205" y1="20.946" x2="24.205" y2="24.43" gradientUnits="userSpaceOnUse"><stop stop-color="#004473"/><stop offset="1" stop-color="#007CB7"/></linearGradient></defs><path d="M18 0c2.837 0 5.52.656 7.907 1.825C31.884 4.753 36 10.895 36 18c0 9.942-8.058 18-18 18-9.94 0-18-8.057-18-18C0 8.06 8.06 0 18 0z" fill="#F2F4F7"/><path d="m13.447 15.377-.53.716a20.314 20.314 0 0 1 2.922-.53 4.296 4.296 0 0 0-.337-.042c-.693-.058-1.737-.124-2.055-.144zm9.104-.002c-.32.02-1.361.086-2.053.144-.121.01-.236.025-.344.043.993.106 1.973.284 2.93.53l-.533-.717zm-2.053-.187c.67.056 1.666.12 2.02.142l-2.433-3.281A2.595 2.595 0 0 0 18.023 11c.013.416.065 1.257.259 2.407.027.161.069.328.132.492l.022-.05.447-.992-.344 1.135c-.011.04-.02.081-.027.122.037.07.08.14.129.208.394-.08 1.714-1.307 1.714-1.307s-1.178 1.242-1.337 1.689c.33.246.803.427 1.48.484zm-4.583-3.139-2.432 3.28c.355-.023 1.35-.087 2.019-.143.449-.037.807-.13 1.094-.26l-1.092-.453 1.06.292c.084.023.169.038.254.047.058-.035.112-.071.163-.11-.113-.42-1.336-1.687-1.336-1.687s1.343 1.194 1.713 1.307c.208-.288.308-.612.36-.917.194-1.148.246-1.989.26-2.405a2.595 2.595 0 0 0-2.063 1.049z" fill="#004473"/><path d="M16.348 17.104a22.3 22.3 0 0 1 1.008-.051c.058-.212.157-.669.157-.795-.496.183-1.165.846-1.165.846z" fill="#9FACB8"/><path d="m11.478 18.033-.738.995h2.413l1.255-1.692a21.28 21.28 0 0 0-2.93.697zm10.114-.697 1.255 1.693h2.413l-.738-.996a21.278 21.278 0 0 0-2.93-.697z" fill="#004473"/><path d="M17.94 16.148c-.24.279-.475.901-.475.901a22.634 22.634 0 0 1 2.187.056s-.788-.91-1.712-.957" fill="#9FACB8"/><path d="M19.063 21.29v3.14s.148-.062.431-.062c.29 0 .431.062.431.062v-3.14a.43.43 0 0 0-.862 0z" fill="url(#a)"/><path d="m17.453 20.946-1.805 2.435a.37.37 0 0 1-.596 0l-1.806-2.435h-1.048l2.247 3.029a1.126 1.126 0 0 0 1.81 0l2.246-3.03h-1.048z" fill="url(#b)"/><path d="m8.95 21.401-2.246 3.03H7.75l.56-.755c.402-.074 1.697-.267 3.088 0l.56.755h1.047l-2.247-3.03a1.126 1.126 0 0 0-1.81 0zm.607.594a.37.37 0 0 1 .596 0l.682.92a9.016 9.016 0 0 0-1.964.005l.686-.925z" fill="url(#c)"/><path d="M22.463 20.946c-.963 0-1.59.78-1.59 1.742s.627 1.742 1.59 1.742h3.484c.963 0 1.59-.78 1.59-1.742s-.627-1.742-1.59-1.742h-3.484zm-.835 1.742c0-.491.258-.986.835-.986h3.484c.577 0 .835.495.835.986s-.258.987-.835.987h-3.484c-.577 0-.835-.496-.835-.987z" fill="url(#d)"/><path d="M31.96 21.944c-3.213-3.39-7.794-5.602-12.925-5.865.076.182.785 1.04.785 1.04 4.703.383 8.897 2.24 11.93 5.018a.164.164 0 0 0 .107.044c.08 0 .143-.056.143-.135a.131.131 0 0 0-.04-.102z" fill="#9FACB8"/><path d="M16.964 16.079c-5.13.263-9.71 2.476-12.924 5.865a.131.131 0 0 0-.04.102c0 .079.064.135.143.135a.163.163 0 0 0 .107-.044c3.033-2.779 7.227-4.635 11.93-5.019.24-.27.709-.857.784-1.04z" fill="#9DB0BB"/></svg>