<svg width="36" height="36" fill="none" xmlns="http://www.w3.org/2000/svg"><path d="M18 0c2.837 0 5.52.656 7.907 1.825C31.884 4.753 36 10.895 36 18c0 9.942-8.058 18-18 18-9.94 0-18-8.057-18-18C0 8.06 8.06 0 18 0z" fill="#F2F4F7"/><path d="M31.652 17.877A.35.35 0 0 0 32 17.53v-.426h-1.08v-.94h-.595a.35.35 0 0 0-.348.348v.596h-.174a.35.35 0 0 0-.349.348v.427h.523v1.379c0 .222.004.426.008.6.005.179.053.353.144.522.1.183.248.314.444.396.196.083.418.127.665.13.248.005.5-.017.762-.064v-.405a.348.348 0 0 0-.357-.348c-.087.004-.17 0-.248-.004-.183-.014-.313-.083-.4-.214a.516.516 0 0 1-.07-.278c-.004-.118-.004-.248-.004-.392v-1.327h.73zM16.91 15.863h-1l-1.798 4.982h.766a.353.353 0 0 0 .326-.227l.3-.813h2.224l.3.813a.349.349 0 0 0 .327.227h.761l-1.662-4.6a.583.583 0 0 0-.544-.383zm-1.088 3.089.792-2.137.792 2.137h-1.584zm8.254-1.94c-.791 0-1.3.352-1.566 1.04l.57.2a.348.348 0 0 0 .383-.11c.122-.152.261-.278.605-.278.43 0 .609.152.644.561l-1.153.2c-1.066.175-1.197.832-1.197 1.193 0 .36.274 1.135 1.305 1.135.523 0 .897-.191 1.14-.426a.347.347 0 0 0 .344.322h.474v-2.41c0-1.006-.635-1.428-1.549-1.428zm-.265 3.197c-.361 0-.54-.121-.54-.352 0-.23.17-.474.749-.574.317-.057.57-.105.735-.135v.235c0 .487-.483.826-.944.826zm-2.154-3.098a.353.353 0 0 0-.326.227l-.849 2.301-.848-2.301a.349.349 0 0 0-.326-.227h-.723l1.427 3.738h.94l1.427-3.738h-.722zm7.602 2.65c0-.378-.192-.713-.483-.913-.009-.01-.022-.014-.03-.022a.886.886 0 0 0-.126-.065c-.136-.066-.284-.122-.284-.122-.06-.022-.126-.048-.191-.07-.64-.213-.949-.265-.949-.479 0-.191.226-.287.466-.287a.68.68 0 0 1 .544.266l.004.004.013.013.005.004a.332.332 0 0 0 .352.087h.004l.522-.178c-.178-.6-.735-.992-1.479-.992-.287 0-.526.043-.714.122a1.01 1.01 0 0 0-.061 1.862c.17.087.375.161.614.23.67.2.831.331.831.566a.43.43 0 0 1-.009.083.326.326 0 0 1-.07.126c-.095.1-.269.148-.5.148a.789.789 0 0 1-.718-.413.34.34 0 0 0-.409-.144l-.522.183c.218.63.653 1.183 1.645 1.183.453 0 .814-.1 1.07-.274.288-.204.475-.54.475-.918z" fill="#04121A"/><path d="M11.88 20.884c0-2.324-.204-6.5-3.463-6.544-3.15-.04-3.834 4.164-3.612 6.526.126.179.265.344.418.5.783.81 3.093.714 3.093.714s2.58.005 3.386-.97c.06-.07.121-.148.178-.226z" fill="#fff"/><path d="M7.729 15.084a1.1 1.1 0 0 1 1.614.435l2.537 5.365A4.345 4.345 0 0 0 8.382 14a4.35 4.35 0 0 0-3.577 6.87l.1-.021 1.658-.366c.048-.008.07.053.03.079l-1.37.813a4.34 4.34 0 0 0 6.479-.256l-4.147-4.373a1.098 1.098 0 0 1 .174-1.662zm.779 4.93-2.672.23a.473.473 0 1 1 .065-.931l2.611.613c.048.018.044.083-.004.088zm-1.236-2.346 3.237 2.62c.035.03.005.087-.039.07l-3.894-1.476a.712.712 0 0 1-.366-1.018.707.707 0 0 1 1.062-.196z" fill="#FF7800"/></svg>