<svg width="36" height="36" fill="none" xmlns="http://www.w3.org/2000/svg"><path d="M18 0c2.837 0 5.52.656 7.907 1.825C31.884 4.753 36 10.895 36 18c0 9.942-8.058 18-18 18-9.94 0-18-8.057-18-18C0 8.06 8.06 0 18 0z" fill="#F2F4F7"/><path d="M5.81 19.103c-.342 0-.568-.173-.568-.584 0-.606.678-1.868 1.31-2.312a1.134 1.134 0 0 0-.56-.205h-.125C4.83 16.002 4 17.674 4 18.464c0 .646.472 1.074 1.192 1.074.717 0 1.268-.518 1.414-.692a.803.803 0 0 0-.01-.02c-.134.082-.43.277-.786.277z" fill="url(#a)"/><path d="m9.155 18.788-.887-2.072A1.143 1.143 0 0 0 7.208 16H6.072l-.081.002a1.157 1.157 0 0 1 .949.674l.888 2.072a1.143 1.143 0 0 0 1.06.715h.038a1.11 1.11 0 0 0 .552-.255 1.147 1.147 0 0 1-.324-.42z" fill="url(#b)"/><path d="M11.743 16a1.143 1.143 0 0 0-1.06.716l-.888 2.072a1.16 1.16 0 0 1-.868.675h1.135a1.142 1.142 0 0 0 1.06-.716l.888-2.071c.155-.348.48-.59.868-.649V16h-1.135z" fill="url(#c)"/><path d="m17.377 18.388-.76-1.768h-.526l1.05 2.472h.473l1.05-2.472h-.527l-.76 1.768zm5.684-1.821c-.21 0-.473.106-.578.263l-.026.026-.1-.236h-.452v2.472h.525v-1.494a.584.584 0 0 1 .579-.556c.347 0 .511.189.526.526v1.525h.526v-1.525c0-.58-.368-1-1-1zm4.536 0c-.683 0-1.288.526-1.288 1.29 0 .762.605 1.288 1.288 1.288.684 0 1.29-.526 1.29-1.289 0-.762-.606-1.289-1.29-1.289zm0 2.104c-.5 0-.762-.369-.762-.816 0-.447.263-.815.762-.815.5 0 .763.368.763.815 0 .447-.263.817-.763.817v-.001zm-1.707-1.578.202-.473h-.727V16h-.516v.62h-.262l-.201.473h.463v1.263c0 .473.285.736.81.736l.29-.052v-.474l-.315.053c-.157 0-.268-.105-.268-.263v-1.263h.525zm-5.022-.473h-.049l-.1.236-.025-.025a1.001 1.001 0 0 0-.683-.263c-.684 0-1.263.526-1.263 1.289 0 .763.579 1.288 1.263 1.288a1 1 0 0 0 .683-.263l.027-.027.1.236h.452V16.62h-.405zm-.831 2.052c-.5 0-.768-.369-.768-.816 0-.447.268-.814.768-.814.447 0 .763.368.763.815 0 .447-.316.815-.763.815zm-4.646-2.052h-.049l-.1.236-.025-.025a1.001 1.001 0 0 0-.683-.263c-.684 0-1.263.526-1.263 1.289 0 .763.579 1.288 1.263 1.288a1 1 0 0 0 .683-.263l.027-.027.1.236h.452V16.62h-.405zm-.831 2.052c-.5 0-.768-.369-.768-.816 0-.447.268-.814.768-.814.447 0 .763.368.763.815 0 .447-.316.815-.763.815zm15.936-2.105c-.21 0-.42.106-.578.316l-.02.02-.12-.283h-.439v2.472h.526v-1.441a.584.584 0 0 1 .579-.558h.106l.203-.476a.474.474 0 0 0-.257-.05zm.742.125h-.135v-.072h.35v.072h-.135v.401h-.08v-.401zm.287-.072h.082l.156.284.155-.284H32v.473h-.079v-.325l-.131.231h-.053l-.134-.231v.325h-.078v-.473z" fill="#236192"/><defs><linearGradient id="a" x1="6.418" y1="16.177" x2="4.753" y2="19.507" gradientUnits="userSpaceOnUse"><stop stop-color="#0064C8"/><stop offset=".9" stop-color="#2EC4FF"/></linearGradient><linearGradient id="b" x1="6.781" y1="15.372" x2="8.61" y2="19.651" gradientUnits="userSpaceOnUse"><stop stop-color="#00D649"/><stop offset="1" stop-color="#2EC4FF"/></linearGradient><linearGradient id="c" x1="10.068" y1="19.754" x2="11.633" y2="15.986" gradientUnits="userSpaceOnUse"><stop stop-color="#0064C8"/><stop offset=".8" stop-color="#2EC4FF"/></linearGradient></defs></svg>