<svg width="36" height="36" fill="none" xmlns="http://www.w3.org/2000/svg"><path d="M18 0c2.837 0 5.52.656 7.907 1.825C31.884 4.753 36 10.895 36 18c0 9.942-8.058 18-18 18-9.94 0-18-8.057-18-18C0 8.06 8.06 0 18 0z" fill="#F2F4F7"/><path d="M16.373 21.308v-.76a.072.072 0 0 1 .072-.071h4.091a.072.072 0 0 1 .072.071v.76a.072.072 0 0 1-.072.071h-4.09a.071.071 0 0 1-.072-.071m-.001-2.738v-.76a.072.072 0 0 1 .072-.071h4.09a.072.072 0 0 1 .073.072v.759a.072.072 0 0 1-.072.072h-4.09a.071.071 0 0 1-.072-.072m-.001-2.738v-.76a.072.072 0 0 1 .072-.071h4.09a.072.072 0 0 1 .073.072v.759a.072.072 0 0 1-.072.072h-4.09a.072.072 0 0 1-.072-.072m-5.534-.788 1.738 3.978a.071.071 0 0 0 .066.042.072.072 0 0 0 .066-.042l1.717-3.977a.07.07 0 0 1 .066-.043h.836a.071.071 0 0 1 .061.033.072.072 0 0 1 .005.07l-2.685 6.232a.071.071 0 0 1-.105.03.072.072 0 0 1-.026-.03l-2.706-6.234a.072.072 0 0 1 .065-.101h.836a.072.072 0 0 1 .066.042m-3.976 4.064.755-1.748a.072.072 0 0 1 .132 0l.764 1.748h-1.65zm3.593 2.17-2.706-6.234a.072.072 0 0 0-.132 0l-1.75 4.064H4.063a.064.064 0 0 0-.059.088l.337.78a.058.058 0 0 0 .053.034h1.084l-.546 1.267A.072.072 0 0 0 5 21.38h.836a.073.073 0 0 0 .066-.043l.573-1.327H8.91l.58 1.326a.072.072 0 0 0 .066.043h.835a.073.073 0 0 0 .06-.033.072.072 0 0 0 .006-.068m12.017-6.234 1.739 3.977a.073.073 0 0 0 .065.043.072.072 0 0 0 .066-.043l1.717-3.977a.073.073 0 0 1 .066-.044h.84a.071.071 0 0 1 .071.065.071.071 0 0 1-.006.035l-2.689 6.236a.072.072 0 0 1-.131 0l-2.705-6.233a.072.072 0 0 1 .066-.101h.835a.072.072 0 0 1 .066.043m5.926 4.063.756-1.75a.072.072 0 0 1 .066-.042.071.071 0 0 1 .066.043l.764 1.749H28.4zm3.594 2.17-2.707-6.234a.071.071 0 0 0-.105-.03.073.073 0 0 0-.027.03l-2.688 6.236a.071.071 0 0 0 .066.1h.839a.074.074 0 0 0 .066-.044l.572-1.326h2.437l.58 1.326a.071.071 0 0 0 .065.042h.836a.072.072 0 0 0 .066-.1" fill="#3D1152"/></svg>