<svg width="36" height="36" fill="none" xmlns="http://www.w3.org/2000/svg"><path d="M18 0c2.837 0 5.52.656 7.907 1.825C31.884 4.753 36 10.895 36 18c0 9.942-8.058 18-18 18-9.94 0-18-8.057-18-18C0 8.06 8.06 0 18 0z" fill="#F2F4F7"/><path fill-rule="evenodd" clip-rule="evenodd" d="M9 26h18V8H9v18z" fill="#EC1B2F"/><mask id="a" style="mask-type:alpha" maskUnits="userSpaceOnUse" x="25" y="26" width="2" height="2"><path d="M25.427 26.268h1.527v1.512h-1.527v-1.512z" fill="#fff"/></mask><g mask="url(#a)"><path fill-rule="evenodd" clip-rule="evenodd" d="M25.579 27.021a.61.61 0 0 1 .614-.628c.34 0 .61.27.61.628 0 .365-.27.633-.61.633a.61.61 0 0 1-.614-.633zm.614.76a.754.754 0 0 0 .761-.76.752.752 0 0 0-.761-.753.753.753 0 0 0-.766.753c0 .439.35.76.766.76zm-.16-.7h.151l.23.379h.148l-.248-.386c.128-.015.226-.083.226-.239 0-.172-.101-.248-.307-.248H25.9v.873h.131v-.38zm0-.112v-.27h.18c.092 0 .19.02.19.128 0 .134-.1.142-.212.142h-.159z" fill="#EC1B2F"/></g><path fill-rule="evenodd" clip-rule="evenodd" d="M24.033 16.001a6.04 6.04 0 0 0-5.93-4.857c-3.339 0-6.045 2.696-6.045 6.021 0 3.326 2.706 6.022 6.044 6.022a6.04 6.04 0 0 0 4.6-2.116l.99.029a6.922 6.922 0 0 1-5.655 2.918c-3.823 0-6.922-3.088-6.922-6.896s3.099-6.896 6.922-6.896A6.916 6.916 0 0 1 24.867 16l-.834.002z" fill="#FEFEFE"/><path fill-rule="evenodd" clip-rule="evenodd" d="M15.338 15.132h-.927l.88-1.378h.013l.034 1.378zm-1.205 1.697.128-.492c-.298 0-.409-.002-.409-.13 0-.105.393-.673.393-.673h1.21l.098.754-.49.065-.118.476h1.993l.101-.39-.277-.044-.538-3.962h-.687l-2.168 3.41c-.17.251-.372.534-.71.596l-.122.39h1.596z" fill="#FEFEFE"/><path fill-rule="evenodd" clip-rule="evenodd" d="M18.348 16.428h-.927l.88-1.378h.013l.034 1.378zm-1.205 1.697.128-.492c-.298 0-.409-.002-.409-.13 0-.106.393-.674.393-.674h1.21l.098.755-.49.066-.118.475 2.178-.016.148-.492-.475.016-.588-3.937-.639-.016-2.2 3.458c-.17.252-.372.535-.71.597l-.123.39h1.597z" fill="#FEFEFE"/><path fill-rule="evenodd" clip-rule="evenodd" d="m19.43 16.353 2.388-.016.311 2.264.098-.017 1.636-2.247h1.685l-.065.525h-.54s-.9 3.33-.802 3.379c.098.05.474.016.474.016l-.081.493H22.21l.098-.493s.409.017.54-.049c.13-.065.474-2.148.474-2.148l-1.701 2.673-.425.033-.442-2.838-.376 1.69a1.836 1.836 0 0 0-.099.46c0 .258.196.155.426.18l-.066.492h-1.766l.098-.476c.54 0 .6-.157.689-.403l.685-3.042-.86-.025-.056-.45z" fill="#FEFEFE"/></svg>