<svg height="36" viewBox="0 0 36 36" width="36" xmlns="http://www.w3.org/2000/svg"><mask id="a" fill="#fff"><path d="M0 0h22v21H0z" fill-rule="evenodd"/></mask><g fill="none" fill-rule="evenodd"><path d="M18 0c2.837 0 5.52.656 7.907 1.825C31.884 4.753 36 10.895 36 18c0 9.942-8.058 18-18 18-9.94 0-18-8.057-18-18C0 8.06 8.06 0 18 0z" fill="#f2f4f7" fill-rule="nonzero"/><path d="M21.862 0H1.26v8.798l.708-1.624H3.47l.208.402v-.402h1.761l.397.873.38-.873h5.612c.26 0 .484.053.657.193v-.193h1.537v.193c.258-.14.587-.193.966-.193h2.228l.208.402v-.402h1.64l.242.402v-.402h1.606v3.421h-1.623l-.31-.522v.522h-2.022l-.224-.557h-.5l-.226.557h-1.053a2.05 2.05 0 0 1-.932-.209v.21h-2.504V9.81c0-.105-.017-.123-.087-.123h-.086v.907H6.51v-.436l-.172.436h-1.02l-.172-.418v.418H3.195l-.208-.558h-.501l-.224.558H1.26v10.318h20.602v-6.268c-.225.106-.536.157-.846.157h-1.503v-.208c-.173.139-.483.208-.777.208h-4.731v-.785c0-.105-.018-.105-.104-.105h-.087v.89H12.26v-.925c-.258.122-.552.122-.811.122h-.173v.803h-1.9l-.448-.523-.501.523H5.37v-3.42h3.11l.448.523.484-.523h2.09c.242 0 .638.035.811.209v-.21h1.865c.19 0 .553.036.794.21v-.21h2.815v.21c.156-.14.45-.21.708-.21h1.572v.21c.172-.122.414-.21.725-.21h1.07zM2.332 9.043l.396-.96.398.96zm9.53-.385c-.085.053-.171.053-.292.053h-.708V8.17h.708c.103 0 .224 0 .293.035.069.052.103.122.103.227 0 .104-.034.191-.103.226zm5.009.385-.397-.96-.398.96zm-9.36-1.38h-.95L5.854 9.32l-.76-1.658H4.16v2.304l-.984-2.304h-.863l-1.036 2.444h.621l.225-.541h1.208l.225.54h1.175V8.188l.845 1.92h.501l.846-1.92v1.92h.587zM9.877 9.6H8.53v-.489h1.33v-.506H8.53V8.17h1.347v-.507H7.944v2.445h1.933zm2.435-1.833c-.19-.105-.397-.105-.69-.105h-1.33v2.444h.57v-.89h.621c.208 0 .345.017.432.104.103.123.086.332.086.472v.314h.587v-.489c0-.21-.017-.314-.104-.436a.7.7 0 0 0-.276-.21.693.693 0 0 0 .415-.646c0-.279-.122-.436-.31-.558zm.639 2.339h.587V7.663h-.587zm7.442 0h-.828l-1.088-1.833v1.833h-1.174l-.225-.541H15.87l-.225.54h-.674c-.276 0-.639-.069-.845-.278-.19-.21-.294-.49-.294-.925 0-.367.052-.698.31-.96.173-.193.484-.28.88-.28h.554v.524h-.553c-.207 0-.328.035-.449.14-.104.105-.155.296-.155.558 0 .262.051.454.155.576.087.087.242.122.397.122h.26l.828-1.92h.864l.967 2.304V7.663h.898l1.018 1.693V7.663h.587zm-12.501 3.7H6.459v-.488h1.276v-.489H6.46v-.453h1.45l.639.715zm1.398-.715.898-.96v1.972zm2.228-.087h-.76v-.628h.76c.207 0 .345.087.345.297 0 .209-.138.331-.345.331zm2.814-.122c-.085.035-.172.035-.276.035l-.708.017v-.558h.708c.104 0 .208 0 .276.051.07.036.121.105.121.21a.306.306 0 0 1-.12.245zm-2.814-1.013H9.67l-.743.804-.708-.804H5.89v2.444h2.296l.743-.803.707.803h1.123v-.82h.725c.501 0 1.002-.14 1.002-.82 0-.664-.518-.804-.967-.804zm3.28.122c-.19-.104-.414-.122-.707-.122h-1.33v2.444h.587v-.89h.622c.207 0 .328.017.414.104.104.123.104.332.104.489v.297h.57v-.472c0-.226-.018-.331-.087-.453a.668.668 0 0 0-.293-.21.671.671 0 0 0 .415-.646c0-.28-.105-.436-.294-.54zm2.557 1.815H15.99v-.488h1.33v-.489h-1.33v-.453h1.365v-.507H15.42v2.444h1.935zm2.21-.784c-.138-.123-.346-.193-.674-.193h-.31c-.087 0-.156-.018-.225-.035-.07-.035-.12-.087-.12-.174 0-.088.016-.14.085-.193.053-.035.121-.035.225-.035h1.07v-.523H18.46c-.622 0-.83.384-.83.733 0 .767.674.734 1.21.75.103 0 .173.018.206.053.035.035.07.105.07.175s-.035.121-.07.156a.384.384 0 0 1-.223.054H17.7v.523h1.123c.586 0 .914-.245.914-.768 0-.244-.069-.402-.172-.523zm2.435.523c0 .523-.328.768-.915.768h-1.122v-.523h1.122c.103 0 .189-.019.224-.054.034-.035.069-.086.069-.156s-.034-.14-.069-.175c-.035-.035-.103-.052-.207-.052-.535-.017-1.209.017-1.209-.75 0-.35.224-.734.829-.734h1.156v.523h-1.07c-.104 0-.173 0-.224.035a.251.251 0 0 0-.086.193c0 .087.052.14.12.174.07.017.138.035.225.035h.31c.33 0 .536.07.674.193.104.121.173.28.173.523zM.725 20.598c0 .192-.155.332-.346.332s-.327-.14-.327-.332c0-.175.137-.332.327-.332s.346.157.346.332zm.052 0a.389.389 0 0 0-.777 0A.39.39 0 0 0 .38 21a.393.393 0 0 0 .397-.402zm-.294-.07c0-.051-.034-.051-.052-.051h-.12v.104h.103c.035 0 .07-.018.07-.053zm.07.262h-.07c0-.035-.017-.087-.017-.105 0-.017 0-.052-.052-.052H.31v.157H.258v-.367h.156c.07 0 .121.019.121.088 0 .052-.017.07-.035.087.018.018.035.035.035.07v.07c0 .017 0 .017.017.017z" fill="#0077a6" mask="url(#a)" transform="translate(7 7)"/></g></svg>