<svg width="36" height="36" xmlns="http://www.w3.org/2000/svg"><g fill="none" fill-rule="evenodd"><path d="M18 0c2.837 0 5.52.656 7.907 1.825C31.884 4.753 36 10.895 36 18c0 9.942-8.058 18-18 18-9.94 0-18-8.057-18-18C0 8.06 8.06 0 18 0z" fill="#F2F4F7" fill-rule="nonzero"/><path d="m4.917 18.77.471-1.284.451 1.285h-.922zM6.3 20.067h.435l-1.124-3.098h-.43L4 20.066h.44l.347-.948h1.181l.332.948zm1.378-1.072c-.404-.089-.818-.182-.818-.669 0-.424.362-.694.906-.694.352 0 .689.13.855.45l-.368.151c-.031-.088-.218-.3-.534-.3-.31 0-.466.18-.466.342 0 .222.295.315.544.367.518.104.974.239.974.73 0 .384-.337.741-.984.741-.477 0-.814-.16-.98-.492l.42-.072c.104.181.296.259.575.259.353 0 .555-.135.555-.389.005-.264-.332-.347-.679-.424zm1.963-1.29h.43v.331h-.43v1.337c0 .28 0 .399.171.399a.973.973 0 0 0 .26-.057v.326c-.068.01-.234.041-.384.041-.456 0-.456-.222-.45-.528v-1.518h-.374v-.331h.373v-.56l.41-.17v.73H9.64zm1.181.005v.42c.223-.446.648-.456.803-.462v.41c-.388.005-.58.083-.704.29-.104.17-.099.409-.099.611v1.083h-.393V17.71h.393zm5.372-.74v.388l-1.75 2.336h1.797v.373h-2.274v-.404l1.761-2.31h-1.761v-.384h2.227zm2.912.76v.342a.83.83 0 0 1 .735-.42c.3 0 .658.151.772.54.042.14.042.285.042.481v1.394h-.394v-1.331c0-.239 0-.306-.026-.389-.067-.223-.29-.321-.503-.321a.625.625 0 0 0-.45.176c-.176.176-.176.352-.176.528v1.337h-.394V17.73h.394zm6.092 1.917c-.145.233-.415.466-.897.466-.834 0-1.144-.642-1.144-1.217 0-.663.362-1.269 1.113-1.269.296 0 .705.088.933.466l-.368.156c-.067-.156-.223-.332-.55-.332-.647 0-.688.74-.688.948 0 .777.445.943.71.943.305 0 .46-.145.544-.306l.347.145zm-8.392-1h1.248c-.036-.616-.388-.72-.627-.72-.342 0-.58.25-.621.72zm1.57.974c-.135.228-.394.492-.907.492-.694 0-1.093-.47-1.093-1.263 0-.886.585-1.223 1.077-1.223.43 0 .845.238.984.829.047.197.047.378.047.476h-1.689c-.01.394.156.891.71.881a.556.556 0 0 0 .487-.27l.383.078zm2.916-.974h1.248c-.036-.616-.388-.72-.627-.72-.336 0-.575.25-.621.72zm1.574.974c-.134.228-.393.492-.906.492-.694 0-1.093-.47-1.093-1.263 0-.886.585-1.223 1.077-1.223.43 0 .845.238.985.829.046.197.046.378.046.476h-1.688c-.01.394.155.891.71.881a.556.556 0 0 0 .486-.27l.383.078zm4.487.446h-.41s-.036-.166-.046-.347c-.12.124-.342.378-.788.378-.456 0-.797-.27-.797-.668 0-.125.036-.249.103-.353.135-.196.384-.357 1.083-.414l.373-.031v-.062c0-.244 0-.653-.523-.653-.332 0-.44.16-.482.306l-.363-.15a.083.083 0 0 1 .021-.037c.14-.259.414-.42.808-.42.218 0 .503.058.684.197.264.197.254.591.254.591l.015 1.207c.005.01.021.357.068.456zm-.54-.648c.063-.13.063-.186.063-.528-.155.026-.363.057-.616.109-.436.093-.513.259-.513.425 0 .186.15.347.44.347.28 0 .513-.11.627-.353zm-13.131.648h-.41s-.036-.166-.046-.347c-.12.124-.342.378-.787.378-.456 0-.798-.27-.798-.668 0-.125.036-.249.103-.353.135-.196.384-.357 1.083-.414l.373-.031v-.062c0-.244 0-.653-.523-.653-.332 0-.44.16-.482.306l-.362-.15c.005-.01.01-.026.02-.037.14-.259.415-.42.808-.42.218 0 .503.058.684.197.264.197.254.591.254.591l.016 1.207c.005.01.02.357.067.456zm-.539-.648c.062-.13.062-.186.062-.528-.155.026-.362.057-.616.109-.435.093-.513.259-.513.425 0 .186.15.347.44.347.28 0 .513-.11.627-.353z" fill="#890150" fill-rule="nonzero"/><path d="M29.974 13.148c.43-.269.856-.183.963.353l.084.389c.028.168.049.337.061.507l.038.73v.493l.86.3.372.166.295.166.126.093c.103.077.195.22.217.348 0 .027.01.054.01.082v.046a.596.596 0 0 1-.032.145l-.104.224c-.05.092-.141.197-.217.263l-.285.254a4.26 4.26 0 0 1-.358.27l-.864.585.476.28.337.202.047.031c.278.159.154.424-.083.519l-.326.133-.43.13-.616.146-.53.103-.013.002-.09.015a2.24 2.24 0 0 1-.353.034c-.155-.005-.422-.048-.543-.114a.458.458 0 0 1-.12-.087l-.047-.058c-.04-.04-.06-.17-.061-.186v-.063c0-.27.273-.588.435-.745l.233-.213.659-.496-.633-.358-.85-.461s-.757-.389-.937-.483a1.923 1.923 0 0 1-.14-.082c-.026-.017-.073-.058-.073-.058l-.067-.061c-.015-.016-.03-.041-.046-.062l-.016-.03c0-.119.021-.189.031-.24.006-.026.019-.05.031-.073.044-.082.147-.285.234-.42.106-.164.403-.57.403-.57.404-.515.786-1.053 1.249-1.516l.533-.519zm.962 5.549s-.377.249-.543.368c-.153.11-.45.346-.45.346s1.44-.107 1.735-.134c.016-.002.047-.019.037-.031a1.575 1.575 0 0 0-.218-.203l-.191-.128-.15-.1h-.002zm-2.159-3.191-.398.41-.446.455a.346.346 0 0 0-.108.17v.026c0 .026.011.051.03.068.043.039.148.116.228.166.122.076.477.288.662.398l.1.06.015.008 1.145.653.27.155.632-.404.326-.213.462-.326c.03-.02.228-.157.201-.238v-.016c-.09-.182-.276-.255-.46-.347l-.359-.165-.051.496-.053.256c-.031.161-.106.41-.274.507l-.031.015c-.109.055-.293.006-.383-.047l-.109-.073a2.347 2.347 0 0 1-.394-.398l-.206-.274-.41-.607-.316-.55-.005-.004-.047-.114-.02-.067zm.312.01c.001.003.014.118.057.217.04.094.186.373.186.373.041.083.088.163.14.239l.254.383s.151.197.206.264c.04.048.078.1.126.14.06.05.173.139.238.166.046.019.117.017.15-.006.032-.022.044-.083.046-.13a10.851 10.851 0 0 0-.026-.673l-.014-.189-.017-.22-.02-.01-.244-.104zm1.077-1.372h-.026a.656.656 0 0 0-.202.149l-.487.498-.367.389h.041l.13.01.543.088.586.134-.047-.523-.026-.295-.032-.228-.02-.094c-.008-.038-.037-.128-.093-.128z" fill="#EFAB00"/></g></svg>