<svg width="36" height="36" fill="none" xmlns="http://www.w3.org/2000/svg"><path d="M18 0c2.837 0 5.52.656 7.907 1.825C31.884 4.753 36 10.895 36 18c0 9.942-8.058 18-18 18-9.94 0-18-8.057-18-18C0 8.06 8.06 0 18 0z" fill="#F2F4F7"/><path fill-rule="evenodd" clip-rule="evenodd" d="M31.136 16.631c-.44-.024-.853.18-1.176.556-.007-.026-.15-.577-.821-.444h-.982l-.412.725c.028-.3-.106-.837-.793-.837-.206 0-.35.028-.54.11l.412-.73h-2.679l-.579 1.023h.9l-1.302.962a3.27 3.27 0 0 0 .036-.096c.265-.734-.04-1.259-.67-1.276a1.352 1.352 0 0 0-.763.207l.05-.09h-.42l.184-.323h-1.22l-.18.319h-1.848c.018-.446-.41-.737-1.047-.737-.234 0-.747.047-1.107.417l.23-.405H4v3.216h13.006l.21-.37c.022.052.192.443.918.443.238 0 .814-.055 1.13-.55.023.078.17.478.596.478h.595l.327-.577c.04.449.377.627.737.647.346.02.655-.081.92-.277l-.119.207h2.683l.253-.446c.067.23.197.49.705.528a1.42 1.42 0 0 0 .872-.235l-.087.153h2.248l.394-.699c-.041.366.173.75.715.781.77.044 1.262-.54 1.477-.999.678-1.45-.108-1.663-.444-1.681" fill="#fff"/><mask id="a" style="mask-type:alpha" maskUnits="userSpaceOnUse" x="31" y="16" width="1" height="1"><path d="M31.508 16.189H32v.487h-.492v-.487z" fill="#fff"/></mask><g mask="url(#a)"><path fill-rule="evenodd" clip-rule="evenodd" d="M31.702 16.415v-.087h.058c.03 0 .062.006.062.041 0 .043-.033.046-.069.046h-.05zm0 .035h.05l.074.123h.047l-.08-.125c.041-.004.073-.026.073-.076 0-.056-.032-.08-.099-.08h-.106v.28h.041v-.122zm-.145-.019a.197.197 0 1 1 .393 0 .197.197 0 1 1-.393 0zm.198.245a.243.243 0 1 0 0-.487.243.243 0 1 0 0 .487z" fill="#D52B1E"/></g><path fill-rule="evenodd" clip-rule="evenodd" d="m13.934 16.18-1.632 2.865h.546l1.634-2.866h-.548zm1.163 0h-.339l-1.631 2.865h.338l.588-1.03 1.044-1.836zm.946 0-1.632 2.865h.097l1.63-2.866h-.095zm-.59 0-1.63 2.865h.198l1.631-2.866h-.2zm-11.275 0v2.865h4.135l1.63-2.866H4.178zm8.697 0-1.632 2.865h.86l1.632-2.866h-.86zm-2.819 0-1.633 2.865h1.381l1.632-2.866h-1.38zm1.516 0L9.94 19.044h1.136l1.632-2.866h-1.137z" fill="#F37F00"/><path fill-rule="evenodd" clip-rule="evenodd" d="m19.382 16.896-.792 1.383c-.065.115-.132.147-.235.128-.128-.025-.074-.122-.037-.188l.78-1.323h-.776s-.883 1.508-.882 1.51c-.158.283.049.566.56.63.29.035.9 0 1.188-.482l.001-.002.966-1.656h-.773zm1.424.652h.426l.35-.604h-.424l.185-.317h-.838l-1.004 1.72a.442.442 0 0 0 .05.517c.096.12.196.181.376.181h.475l.33-.564h-.359c-.027 0-.059.004-.07-.021-.006-.016-.01-.033-.003-.047l.506-.865zm-3.7-.4-.332.588h-.404l.363-.645a.282.282 0 0 1 .287-.147c.122.012.161.076.085.204zm.323-.957c-.334-.042-1.045 0-1.357.603L14.8 19.045h.83l.354-.628h.404l-.356.628h.823l1.173-2.068c.195-.364.007-.709-.599-.786zm4.82 1.695c-.185.369-.312.552-.468.52-.114-.022-.071-.189.04-.411.157-.311.325-.538.465-.513.13.024.075.181-.037.404zm.282-1.078c-.624-.035-1.21.475-1.48 1.26-.192.56-.111 1.032.48 1.065.597.033 1.168-.35 1.487-1.28.192-.562.055-1.015-.487-1.045zm6.946.109c-.371-.092-.615.145-.615.145l.081-.146h-.704l-1.212 2.129h.774l.728-1.282c.051-.09.12-.195.224-.173.093.02.12.106.09.164l-.733 1.291h.768l.88-1.551c.12-.226-.079-.527-.281-.577zm-3.345.052.45-.79h-2.295l-.386.679h1.129l-1.94 1.426-.436.761h2.297l.385-.674h-1.079l1.875-1.402zm4.664.874h-.361c.13-.23.263-.382.376-.36.12.021.08.16-.015.36zm.318-1.035c-.642-.035-1.206.475-1.482 1.26-.198.56-.154 1.032.454 1.065.51.027.965-.235 1.305-.86h-.784c-.107.164-.208.265-.305.246-.09-.018-.06-.189.012-.368h1.139c.044-.093.085-.192.123-.299.198-.561.095-1.014-.462-1.044" fill="#D52B1E"/><path fill-rule="evenodd" clip-rule="evenodd" d="M26.712 17.886c-.186.368-.312.552-.468.52-.114-.022-.072-.189.04-.411.157-.311.325-.538.465-.513.13.024.075.18-.037.404zm.282-1.078c-.625-.035-1.211.475-1.48 1.26-.193.56-.111 1.032.48 1.065.596.033 1.167-.35 1.486-1.281.193-.561.055-1.015-.486-1.044z" fill="#D52B1E"/></svg>