<svg width="36" height="36" fill="none" xmlns="http://www.w3.org/2000/svg"><path d="M18 0c2.837 0 5.52.656 7.907 1.825C31.884 4.753 36 10.895 36 18c0 9.942-8.058 18-18 18-9.94 0-18-8.057-18-18C0 8.06 8.06 0 18 0z" fill="#F2F4F7"/><g fill="#1B86CE"><path d="M8.633 19.902c0-.143.118-.252.26-.252.135 0 .253.11.253.252a.253.253 0 0 1-.252.252c-.143 0-.26-.1-.26-.252zm.252.21c.118 0 .202-.092.202-.21a.207.207 0 0 0-.202-.21.208.208 0 0 0-.21.21c.009.126.093.21.21.21zm-.05-.058h-.042v-.295h.11c.066 0 .1.025.1.084 0 .05-.034.076-.076.084l.084.127h-.05l-.076-.127h-.05v.127zm.05-.169c.034 0 .068 0 .068-.05 0-.034-.034-.042-.068-.042h-.059v.092h.06zm-2.59-3.657-.109.126a.064.064 0 0 0-.017.042v1.8c0 .016.009.024.017.041l.11.127a.064.064 0 0 0 .041.016.064.064 0 0 0 .043-.017l.109-.126a.064.064 0 0 0 .017-.042l-.009-1.808c0-.016-.008-.025-.017-.033l-.109-.126c-.008-.017-.025-.017-.042-.017-.008 0-.025 0-.034.017zm-.403.328c-.009 0-.025.008-.025.017l-.11.126c-.008.008-.008.016-.008.025v1.463c0 .008 0 .017.008.025l.11.135c.008.008.016.016.033.016.009 0 .025-.008.025-.016l.101-.135c.009-.008.009-.017.009-.025v-1.463c0-.009 0-.017-.009-.025l-.109-.127c-.008-.008-.017-.016-.025-.016zm-.421.412c-.008 0-.016 0-.025.008l-.11.11c-.008.008-.008.008-.008.016v.715c0 .008 0 .017.009.017l.11.11c.008.008.016.008.024.008.009 0 .017 0 .026-.009l.1-.11c.009-.008.009-.016.009-.016v-.715c0-.008 0-.017-.008-.017l-.101-.109c-.009-.008-.017-.008-.026-.008zm1.825-.758a.064.064 0 0 0-.042.018l-.11.126a.064.064 0 0 0-.016.034v1.79c0 .017.008.026.017.043l.11.126a.064.064 0 0 0 .041.016.064.064 0 0 0 .042-.016l.11-.127a.064.064 0 0 0 .016-.041v-1.791c0-.017-.008-.026-.017-.043l-.109-.117c-.017-.017-.025-.017-.042-.017zm.412.363-.11.126c0 .008-.008.016-.008.025v1.471c0 .009 0 .017.009.026l.1.134c.01.008.017.017.026.017.008 0 .025-.009.025-.017l.11-.134c.008-.009.008-.017.008-.026v-1.463c0-.008 0-.017-.009-.025l-.109-.126c.008-.017 0-.025-.008-.025-.017 0-.026.008-.034.017zm.429.403-.11.11c-.008.008-.008.008-.008.016v.715c0 .008 0 .017.009.017l.1.11c.009.008.017.008.026.008.008 0 .017 0 .025-.009l.11-.11c.008-.008.008-.016.008-.016v-.715c0-.008 0-.017-.009-.017l-.1-.109c-.01-.008-.017-.008-.026-.008-.017 0-.025 0-.025.008z"/><path d="M7.414 19.38c.504.043 1.093-.243 1.354-.512.437-.446.63-.976.63-1.665 0-1.329-.925-2.203-2.363-2.203-.967 0-1.816.412-2.404 1.143A2.804 2.804 0 0 0 4 17.934c0 .841.345 1.522.967 1.993.462.354 1.127.597 1.925.564.522-.017 1.052-.16 1.329-.37.227-.177.126-.168.05-.16-.05.008-.117.034-.117.034a3.098 3.098 0 0 1-1.253.285c-1.446 0-2.396-.866-2.396-2.295 0-.975.395-1.791 1.11-2.304.437-.32.95-.48 1.505-.48 1.227 0 2.093.791 2.085 1.96-.009.723-.135 1.127-.522 1.564-.353.403-.9.504-1.227.47-.404-.041-.446-.277-.454-.479v-2.64c0-.025-.009-.042-.017-.067l-.093-.143a.09.09 0 0 0-.075-.05c-.034 0-.059.016-.076.05l-.084.143a.156.156 0 0 0-.017.059v2.674c-.008.328.328.605.774.639zM32 19.28v-1.934c0-.513-.27-.824-.807-.824-.37 0-.673.194-.95.437v-1.782l-.379.067v4.036h.379v-1.95c.294-.295.588-.472.874-.472.345 0 .505.21.505.564v1.866H32v-.008zm-2.523-.252-.05-.345c-.277.244-.538.32-.824.32-.547 0-.883-.412-.883-1.077 0-.664.328-1.076.85-1.076.31 0 .563.11.823.328l.06-.378a1.472 1.472 0 0 0-.884-.278c-.69 0-1.236.505-1.236 1.413 0 .891.53 1.404 1.22 1.404.37 0 .664-.101.924-.311zm-2.8-1.37h-1.471c.076-.522.345-.833.774-.833.428 0 .655.345.697.832zm.387.218c0-.748-.353-1.354-1.093-1.354-.664 0-1.169.538-1.169 1.404 0 .934.505 1.413 1.22 1.413.42 0 .765-.151 1.034-.387l-.059-.345c-.277.244-.597.404-.95.404-.547 0-.85-.395-.866-1.06h1.883v-.075zM24.71 19.28l-.059-.311c-.059.008-.168.025-.252.025-.294 0-.404-.117-.404-.395v-1.698h.673l-.05-.32h-.623v-1l-.37.058v.934h-.42v.32h.42v1.765c0 .496.278.664.706.664.16 0 .295-.017.379-.042zm-1.673 0v-1.984c0-.513-.278-.833-.79-.833-.37 0-.665.202-.917.446l-.06-.387h-.58v2.758h.69v-1.858c.202-.21.412-.345.63-.345.253 0 .354.168.354.404v1.807h.673v-.008zm-3.347-1.673h-1.093c.05-.454.277-.673.546-.673.328 0 .497.244.547.673zm.664.26c0-.782-.37-1.404-1.202-1.404-.723 0-1.261.547-1.261 1.438 0 .992.58 1.438 1.345 1.438.446 0 .807-.135 1.101-.336l-.084-.539c-.302.21-.597.345-.95.345-.42 0-.706-.235-.74-.773h1.774c.017-.042.017-.11.017-.169zm-3.321 0c0 .606-.27.9-.622.9a1.12 1.12 0 0 1-.53-.118v-1.194c.185-.235.378-.386.622-.386.311 0 .53.26.53.798zm.698-.042c0-.924-.463-1.362-1.043-1.362-.386 0-.647.21-.849.438l-.059-.379h-.58v3.818l.69-.101v-1.035c.168.06.378.11.639.11.63-.009 1.202-.463 1.202-1.489zm-2.817.648c0-.521-.277-.715-.992-.9-.412-.11-.513-.185-.513-.336 0-.151.126-.252.387-.252.277 0 .597.1.874.252l.093-.572a2.335 2.335 0 0 0-.967-.193c-.64 0-1.018.336-1.018.807 0 .504.278.698.95.866.438.11.564.185.564.387 0 .176-.16.286-.454.286-.345 0-.706-.135-1.01-.328l-.092.571c.261.143.673.27 1.077.27.714 0 1.101-.32 1.101-.858zm-3.162.05c-.184.185-.412.295-.647.295-.21 0-.336-.118-.336-.32 0-.26.185-.496.983-.597v.622zm.69.757v-1.892c0-.664-.353-.925-1.068-.925a2.84 2.84 0 0 0-1.093.227l.084.547a2.19 2.19 0 0 1 .917-.219c.302 0 .47.118.47.412v.084c-1.11.101-1.656.387-1.656 1.06 0 .479.311.765.782.765.412 0 .698-.185.917-.42l.058.361h.589z"/></g></svg>