<svg width="36" height="36" fill="none" xmlns="http://www.w3.org/2000/svg"><path d="M18 0c2.837 0 5.52.656 7.907 1.825C31.884 4.753 36 10.895 36 18c0 9.942-8.058 18-18 18-9.94 0-18-8.057-18-18C0 8.06 8.06 0 18 0z" fill="#F2F4F7"/><g fill-rule="evenodd" clip-rule="evenodd"><path d="M20.895 21.077v-3.092h.803c.44 0 .769.091.983.274.215.182.322.46.322.836 0 .363-.104.646-.312.848-.208.202-.5.302-.876.302h-.12v.832h-.8zm3.372-2.299c.312 0 .58.113.8.338.221.225.331.496.331.813 0 .318-.11.589-.329.812-.22.224-.487.336-.802.336-.316 0-.583-.112-.804-.336a1.115 1.115 0 0 1-.33-.812c0-.318.11-.59.331-.814.221-.224.489-.336.803-.336zm0 .74a.36.36 0 0 0-.272.119.407.407 0 0 0-.112.291c0 .114.037.21.111.288a.363.363 0 0 0 .273.116c.104 0 .194-.04.27-.119a.4.4 0 0 0 .112-.285.411.411 0 0 0-.113-.29.356.356 0 0 0-.27-.12zm1.695 1.559-.54-2.222h.775l.206 1.198.286-1.198h.48l.282 1.198.211-1.198h.754l-.564 2.222h-.686l-.281-1.072-.256 1.072h-.667zm4.49-.253a1.606 1.606 0 0 1-.883.253c-.34 0-.615-.105-.825-.313-.21-.209-.314-.479-.314-.811 0-.329.11-.605.33-.83.22-.226.492-.339.813-.339.236 0 .444.067.621.2.178.134.307.32.387.56l-1.188.84a.609.609 0 0 0 .255.046c.12 0 .243-.028.37-.084a1.49 1.49 0 0 0 .377-.247l.057.725zm-1.347-.876.677-.492a.266.266 0 0 0-.101-.065.43.43 0 0 0-.452.12.454.454 0 0 0-.124.437zm1.676 1.129v-2.222h.733v.23a.506.506 0 0 1 .195-.184.67.67 0 0 1 .289-.068l.002.766h-.086c-.13 0-.229.036-.297.108-.069.071-.103.175-.103.31v1.06h-.733zm-21.755 0 1.082-3.092h.905l1.023 3.092h-.85l-.112-.348H9.98l-.118.348h-.835zm1.177-1.12h.636l-.319-1.043-.317 1.043zm2.033 1.12.67-1.51h-.636v-.745H14l-.665 1.505h.717l-.164.75h-1.652zm3.929-2.222v2.222h-.721v-.212a.668.668 0 0 1-.24.183.748.748 0 0 1-.308.061c-.211 0-.371-.063-.48-.19-.11-.128-.164-.315-.164-.561v-1.503h.734v1.178c0 .125.015.213.047.263.031.05.084.075.158.075.08 0 .14-.029.18-.085a.448.448 0 0 0 .06-.257v-1.174h.734zm.2 2.222v-2.222h.733v.23a.504.504 0 0 1 .195-.184.67.67 0 0 1 .288-.068l.003.766h-.086c-.13 0-.23.036-.298.108-.068.071-.102.175-.102.31v1.06h-.734zm3.404-.253a1.61 1.61 0 0 1-.884.253c-.34 0-.615-.105-.825-.313-.21-.209-.315-.479-.315-.811 0-.329.11-.605.331-.83.22-.226.492-.339.813-.339.237 0 .443.067.621.2.177.134.306.32.387.56l-1.188.84a.61.61 0 0 0 .255.046c.12 0 .243-.028.37-.084.128-.056.254-.139.378-.247l.056.725zm-1.348-.876.677-.492a.269.269 0 0 0-.101-.065.432.432 0 0 0-.452.12.455.455 0 0 0-.124.437zm3.273-.48h.095a.445.445 0 0 0 .307-.096.341.341 0 0 0 .109-.27c0-.121-.036-.215-.108-.28-.072-.065-.176-.098-.312-.098h-.09v.744z" fill="#0071B9"/><path d="m12.578 17.06 1.13-1.13.141.142-1.13 1.13-.14-.142zm-1.458-.782.193.052.414-1.543-.193-.052-.414 1.543zm-1.654.052.193-.052-.413-1.543-.193.052.413 1.542zm-1.406.87.141-.141-1.13-1.13-.14.142 1.13 1.13zm-.782 1.458.052-.192-1.543-.414-.052.193 1.543.413zm.052 1.654-.052-.193-1.543.414.052.193 1.543-.414zm.87 1.408-1.13 1.13-.14-.142 1.129-1.13.141.142zm3.7-5.147.173.1 1.597-2.767-.173-.1-1.597 2.767zM10.29 13h.2v3.195h-.2V13zm-1.584 3.673.173-.1-1.598-2.767-.173.1 1.598 2.767zm-1.133 1.206.1-.173-2.767-1.598-.1.173 2.767 1.598zm-.378 1.61H4v-.199h3.195v.2zm.478 1.585-.1-.173-2.767 1.597.1.173 2.767-1.597zm.74-3.661a2.796 2.796 0 0 1 4.09.146 2.796 2.796 0 0 0-3.944 3.944 2.795 2.795 0 0 1-.146-4.09z" fill="#F99D1E"/></g></svg>