<svg height="36" viewBox="0 0 36 36" width="36" xmlns="http://www.w3.org/2000/svg"><mask id="a" fill="#fff"><path d="M0 0h4.713v2.179H0z" fill-rule="evenodd"/></mask><mask id="b" fill="#fff"><path d="M0 0h4.712v2.173H0z" fill-rule="evenodd"/></mask><g fill="none" fill-rule="evenodd"><path d="M18 0c2.837 0 5.52.656 7.907 1.825C31.884 4.753 36 10.895 36 18c0 9.942-8.058 18-18 18-9.94 0-18-8.057-18-18C0 8.06 8.06 0 18 0z" fill="#f2f4f7" fill-rule="nonzero"/><path d="M10.815 18.375c0-.705.003-1.41-.002-2.115-.002-.13.035-.172.166-.17 1.112.003 2.225.003 3.337 0 .124 0 .178.027.172.165-.01.265-.009.531 0 .795.003.124-.034.163-.16.162-.705-.005-1.41 0-2.116-.005-.112 0-.14.03-.14.141.005.691.005 1.381 0 2.073 0 .1.026.126.125.125.724-.004 1.45 0 2.173-.005.11 0 .15.025.146.142-.009.28-.006.558 0 .838 0 .093-.02.133-.126.132-1.15-.003-2.3-.004-3.45.001-.12 0-.126-.058-.126-.149.002-.71.001-1.42.001-2.13m-5.548-.236v1.607c0 .255-.004.51.002.767.003.11-.035.143-.147.141a24.628 24.628 0 0 0-.98 0c-.102 0-.142-.024-.142-.134.003-1.444.002-2.887.002-4.33.001-.15.037-.17.169-.089.715.434 1.43.868 2.142 1.306.083.05.141.053.226.001.7-.432 1.402-.858 2.105-1.284.05-.03.102-.093.164-.06.063.035.038.112.038.17.002.346-.002.692.003 1.037.001.088-.03.135-.104.179-.728.432-1.454.865-2.177 1.303-.103.062-.182.062-.284-.002-.328-.204-.661-.4-1.017-.612m19.447.942.47.69.489.713c.027.04.064.081.045.13-.023.053-.081.037-.127.037-.388 0-.776-.002-1.164.002-.081.001-.13-.03-.172-.095-.267-.402-.538-.8-.81-1.2a.287.287 0 0 1-.055-.17c.002-.255.004-.51-.001-.767-.002-.097.029-.132.13-.13.179.003.359.017.537-.024.28-.064.436-.243.442-.512.005-.27-.142-.447-.43-.519-.176-.044-.357-.025-.536-.024-.1 0-.146-.023-.144-.134.007-.289.003-.577.002-.866 0-.062.007-.118.086-.118.524.002 1.05-.012 1.543.222.467.222.702.605.74 1.108.065.814-.253 1.311-1.045 1.657" fill="#013b7e"/><path d="M.605 2.176c-.16 0-.322-.004-.483.002-.102.003-.128-.034-.12-.134.061-.826.74-1.68 1.59-1.921.874-.248 1.701-.14 2.393.504.4.37.638.837.723 1.38.02.13-.015.177-.153.172a21.847 21.847 0 0 0-.923-.001c-.092 0-.14-.018-.172-.118-.16-.515-.588-.831-1.107-.83-.518 0-.936.313-1.103.836-.03.092-.076.114-.163.11-.16-.003-.32 0-.482 0" fill="#023c7f" mask="url(#a)" transform="translate(27.287 16)"/><path d="M.608.004C.758.004.91.01 1.062 0c.114-.007.162.03.198.143.146.449.462.723.927.793.458.068.835-.1 1.113-.474a.902.902 0 0 0 .163-.344c.02-.095.069-.118.158-.117.317.004.634.007.95-.001.129-.003.15.046.139.16-.095.905-.86 1.764-1.763 1.946-.81.162-1.567.047-2.197-.533A2.326 2.326 0 0 1 .004.148C-.013.028.028-.003.14.002c.156.007.312.002.468.002" fill="#013b7e" mask="url(#b)" transform="translate(27.287 18.57)"/><path d="M21.73 18.369c0-.705.003-1.41-.002-2.114-.001-.128.032-.178.166-.175.316.008.633.007.95.001.126-.003.16.046.16.168a862.58 862.58 0 0 0 .002 4.256c0 .121-.04.152-.155.15a21.302 21.302 0 0 0-.98 0c-.112.002-.144-.03-.143-.144.004-.714.002-1.428.002-2.142m-3.552-1.159c-.629 0-1.259-.003-1.889.003-.128 0-.178-.032-.174-.165.008-.27.006-.54 0-.81 0-.11.038-.148.148-.148 1.27.003 2.538.003 3.807 0 .12 0 .154.043.151.159-.007.27-.007.54 0 .81.003.117-.035.155-.154.153-.63-.004-1.26-.002-1.889-.002m-.64 1.922c0-.463.002-.927-.002-1.39-.001-.104.029-.139.137-.137.33.006.66.006.992 0 .109-.002.136.035.136.14-.004.925-.004 1.852-.001 2.78 0 .097-.028.13-.13.128a37.56 37.56 0 0 0-1.006 0c-.103.002-.128-.037-.127-.13.003-.464 0-.928 0-1.39" fill="#023c7f"/><path d="M8.848 19.278c0 .41-.003.822.002 1.233.003.114-.034.146-.145.144a26.623 26.623 0 0 0-.98-.001c-.1.002-.143-.023-.142-.133.004-.61.003-1.22.001-1.83a.151.151 0 0 1 .083-.148c.347-.204.69-.411 1.036-.614.109-.064.145-.04.146.1v1.249" fill="#f8af05"/><path d="M13.367 17.872c.255 0 .511.002.766 0 .093-.003.128.03.127.122a24.45 24.45 0 0 0 0 .766c0 .088-.037.118-.119.117l-1.56.001c-.084 0-.117-.028-.115-.116.005-.25.005-.502 0-.752-.004-.105.028-.143.135-.14.255.006.511.002.766.002" fill="#023c7f"/></g></svg>