<svg width="36" height="36" xmlns="http://www.w3.org/2000/svg"><g fill="none"><path d="M18 0c2.837 0 5.52.656 7.907 1.825C31.884 4.753 36 10.895 36 18c0 9.942-8.058 18-18 18-9.94 0-18-8.057-18-18C0 8.06 8.06 0 18 0z" fill="#F2F4F7"/><path d="M8.714 23.13c-1.213-1.187.343-2.558 2.11-3.349V17.54c.421.237.632.264.659.316l1.37-1.37-.447-1.16c3.981-1.398 5.59-1.926 8.832-2.48l-.58-.553.975-.553c2.162.737 4.219.922 3.85 2.768.105-1.24-1.424-1.714-3.796-2.4l-.449.29.87.712c-3.876.686-6.275 1.45-9.123 2.452l.396 1.002-1.424 1.424c.237.053 2.716.923 5.3-.923.026 0 .053-.026.053-.052-.08-.132-.238-.264-.449-.449.739.053 1.24.739 1.134 1.424h-.343a.86.86 0 0 0-.105-.633c-1.978 1.477-4.324 1.688-6.302 1.002v1.74c-.95.343-2.69 1.398-2.663 2.426.053.501.316.686.554.818a1.06 1.06 0 0 1-.422-.21z" fill="#000"/><path d="M9.874 25.001c-4.113-.079-4.772-2.847-2.82-5.747 1.845-2.927 4.772-5.538 9.438-7.199 1.345-.474 3.349-1.028 5.247-1.054 2.768-.027 5.432.843 5.274 3.506-.105 2.03-3.032 4.904-4.562 6.987-.659.897-.764 1.477.343 1.424 4.087-.263 7.779-1.687 11.206-3.164-2.32 1.582-14.318 7.593-14.37 3.48.026-.5.264-1.054.633-1.634.396-.58.923-1.213 1.476-1.82.818-.949 2.848-3.19 3.507-4.561 1.16-2.558-1.424-2.69-3.613-3.48l-.974.553.58.554c-3.243.553-4.852 1.08-8.833 2.478l.448 1.16-1.37 1.372c-.027-.053-.238-.08-.66-.317v2.241c-1.767.791-3.322 2.162-2.11 3.35.132.105.29.184.422.21 2.188 1.24 8.12-.448 8.12-.448-2.161 1.107-4.217 1.978-7.382 2.11z" fill="#D9783E"/></g></svg>