<svg width="36" height="36" fill="none" xmlns="http://www.w3.org/2000/svg"><path d="M18 0c2.837 0 5.52.656 7.907 1.825C31.884 4.753 36 10.895 36 18c0 9.942-8.058 18-18 18-9.94 0-18-8.057-18-18C0 8.06 8.06 0 18 0z" fill="#F2F4F7"/><path d="M4.237 18.178v-.74h.44a.498.498 0 0 1 .328.074.416.416 0 0 1 .142.313.339.339 0 0 1-.123.27.503.503 0 0 1-.313.083h-.474zm0-.922V16.6h.436a.529.529 0 0 1 .275.05.287.287 0 0 1 .142.27.336.336 0 0 1-.123.265.58.58 0 0 1-.356.074l-.374-.003zm.474 1.114a.697.697 0 0 0 .474-.126.49.49 0 0 0 .187-.41.498.498 0 0 0-.403-.497.43.43 0 0 0 .358-.446.453.453 0 0 0-.206-.384.659.659 0 0 0-.41-.09H4v1.953h.711zm1.138-.737a.87.87 0 0 1 .07-.363.37.37 0 0 1 .513-.161c.055.03.103.073.137.126.067.122.1.26.093.398a.839.839 0 0 1-.072.375.371.371 0 0 1-.656.026.83.83 0 0 1-.085-.401zm-.237 0c0 .382.194.763.628.763.433 0 .67-.355.67-.758s-.21-.752-.635-.752c-.424 0-.67.347-.67.747h.007zm1.751 0a.801.801 0 0 1 .071-.363.367.367 0 0 1 .512-.162c.055.03.101.074.135.127.068.121.1.26.093.398a.778.778 0 0 1-.071.375.372.372 0 0 1-.657.026.863.863 0 0 1-.083-.401zm-.237 0c0 .382.194.763.626.763.431 0 .67-.355.67-.758s-.215-.752-.63-.752c-.415 0-.673.347-.673.747h.007zm2.494-.588-.797 1.15h.796v.175H8.553v-.175l.77-1.095h-.71v-.178h1.006v.123zm1.443 1.965h-.19V16h.183l.007 3.01zm2.18-1.396h-.607l.302-.936.305.936zm-.149-1.185h-.273l-.632 1.941h.206l.173-.569h.723l.19.569h.236l-.623-1.941zm2.282 1.069a.438.438 0 0 1 .418-.441.4.4 0 0 1 .4.398.234.234 0 0 1 0 .043h-.818zm.82.438a.406.406 0 0 1-.39.28.441.441 0 0 1-.382-.225.71.71 0 0 1-.048-.332h1.062c0-.4-.182-.777-.633-.777a.692.692 0 0 0-.666.777c0 .405.226.751.664.751a.63.63 0 0 0 .614-.424l-.22-.05zm.766-.768a.498.498 0 0 1 .687-.22.452.452 0 0 1 .17.175.95.95 0 0 1 .072.458v.789h-.216v-.893a.542.542 0 0 0-.042-.268.293.293 0 0 0-.237-.133.39.39 0 0 0-.299.147.584.584 0 0 0-.114.389v.758h-.232v-1.448h.21v.246zm13.329 0a.495.495 0 0 1 .688-.22.457.457 0 0 1 .172.175.97.97 0 0 1 .07.458v.789h-.238v-.893a.568.568 0 0 0-.038-.268.3.3 0 0 0-.249-.133.388.388 0 0 0-.298.147.583.583 0 0 0-.09.389v.758h-.237v-1.448h.213l.007.246zM19.356 19.01h-.188V16h.18l.008 3.01zm2.521-.64v-.948h-.905v.948h-.237v-1.953h.237v.827h.905v-.827h.237v1.953h-.237zm1.529-.635a.474.474 0 0 1-.445.488c-.185 0-.313-.073-.313-.253 0-.3.315-.33.58-.33h.18l-.002.095zm-.182-.263a1.34 1.34 0 0 0-.543.085.438.438 0 0 0 .237.84.504.504 0 0 0 .495-.3l.022.273h.215a1.095 1.095 0 0 1-.03-.303v-.564a.676.676 0 0 0-.117-.474.548.548 0 0 0-.438-.143c-.256 0-.567.095-.61.396l.207.033c.04-.199.209-.256.386-.256.254 0 .36.098.36.351v.062h-.184zm.981-.55v.263a.493.493 0 0 1 .436-.294.417.417 0 0 1 .41.318.503.503 0 0 1 .474-.322.429.429 0 0 1 .363.208c.058.13.081.271.068.413v.862h-.223v-.863a.636.636 0 0 0-.04-.289.275.275 0 0 0-.237-.151.362.362 0 0 0-.28.163.547.547 0 0 0-.082.36v.78h-.237v-.92a.512.512 0 0 0-.048-.236.284.284 0 0 0-.237-.14.363.363 0 0 0-.263.142.51.51 0 0 0-.088.33v.824h-.218v-1.448h.202zm2.375 1.448h-.218v-1.448h.218v1.448zm0-1.7h-.237v-.253h.237v.254zm.457 1.7v-1.953h.216v1.953h-.216zm-13.083 0v-1.953h.216v1.953h-.216zm.659 0v-1.953h.216v1.953h-.216zm13.763 0-.213.017c-.315 0-.413-.185-.413-.474v-.825h-.256v-.178h.256v-.36l.223-.024v.384h.323v.175h-.323v.875c0 .168.05.256.237.256h.17l-.004.154zm.354-.737a.835.835 0 0 1 .07-.363.367.367 0 0 1 .512-.162c.055.03.101.074.135.127.068.121.1.26.093.398a.808.808 0 0 1-.071.375.368.368 0 0 1-.654.026.836.836 0 0 1-.086-.401zm-.238 0c0 .382.192.763.626.763a.687.687 0 0 0 .673-.758c0-.382-.213-.752-.637-.752-.425 0-.666.347-.666.747h.004zM32 16.65a.292.292 0 0 1-.18.27.284.284 0 0 1-.237 0 .292.292 0 0 1 0-.54.285.285 0 0 1 .237 0 .297.297 0 0 1 .18.27zm-.045 0a.271.271 0 0 0-.019-.098.249.249 0 0 0-.325-.13.265.265 0 0 0-.08.052.251.251 0 0 0-.052.273.237.237 0 0 0 .324.132.223.223 0 0 0 .078-.054.26.26 0 0 0 .055-.078.273.273 0 0 0 .03-.098h-.011zm-.173.17-.104-.14h-.036v.14h-.06v-.346h.124a.18.18 0 0 1 .097.024.093.093 0 0 1 .029.073.093.093 0 0 1-.024.069.109.109 0 0 1-.066.03l.113.143-.073.007zm0-.237a.046.046 0 0 0 0-.026.026.026 0 0 0-.014-.017h-.112v.1h.055c.052 0 .078-.021.078-.062l-.007.005z" fill="#000"/></svg>