<svg width="36" height="36" fill="none" xmlns="http://www.w3.org/2000/svg"><path d="M18 0c2.837 0 5.52.656 7.907 1.825C31.884 4.753 36 10.895 36 18c0 9.942-8.058 18-18 18-9.94 0-18-8.057-18-18C0 8.06 8.06 0 18 0z" fill="#F2F4F7"/><path d="M13.283 20.164v-.553h.376v1.44h-.376v-.593h-.54v.593h-.373v-1.44h.373v.553h.54zm1.167.174c.143 0 .225.104.225.223 0 .124-.082.22-.225.22-.14 0-.223-.096-.223-.22 0-.12.082-.223.223-.223zm0-.298c-.315 0-.59.187-.59.52 0 .334.278.52.59.52.315 0 .59-.189.59-.52 0-.333-.275-.52-.59-.52zm.786-.577h.346v1.587h-.347v-1.587zm1.145.876c.143 0 .225.103.225.222 0 .124-.082.22-.225.22-.143 0-.225-.096-.225-.22 0-.12.082-.222.225-.222zm.212.711h.349v-1.587h-.35v.704a.392.392 0 0 0-.304-.127c-.29 0-.489.238-.489.518s.204.521.492.521c.116 0 .235-.042.299-.14h.003v.111zm.637-.981h.347v.982h-.347v-.982zm.37-.376a.195.195 0 0 1-.388 0c0-.106.087-.195.193-.195.108 0 .196.09.196.195zm.606.503h.006c.079-.117.177-.156.314-.156.265 0 .368.164.368.404v.606h-.346v-.479c0-.092.016-.256-.16-.256-.14 0-.182.105-.182.227v.508h-.346v-.979h.346v.125zm1.484.137c.143 0 .225.1.225.22 0 .124-.082.22-.224.22-.14 0-.225-.096-.225-.22 0-.12.084-.22.224-.22zm.561-.264h-.346v.105h-.006c-.068-.097-.174-.134-.288-.134-.302 0-.503.243-.503.529 0 .283.196.5.485.5a.41.41 0 0 0 .312-.135v.047c0 .16-.037.28-.225.28a.229.229 0 0 1-.1-.02c-.03-.016-.056-.04-.064-.075h-.389c.03.257.33.374.556.374.362 0 .568-.17.568-.585v-.886zm-6.878-3.149h.111c.36 0 .905-.05.905.461 0 .468-.55.45-.876.45h-.14v-.91zm.595 1.752c.775 0 1.535-.29 1.535-1.177 0-.59-.26-1.003-.865-1.08v-.013c.344-.174.468-.484.468-.87 0-.812-.505-1.103-1.26-1.103h-1.579v4.243h1.701zm-.595-3.402h.077c.301 0 .645.021.645.415 0 .363-.304.413-.598.413h-.124v-.828zm4.109 1.312c.418 0 .658.296.658.65 0 .363-.24.644-.659.644-.418 0-.66-.28-.66-.643 0-.355.242-.651.66-.651zm-1.167-1.659.415.471.81-.624.81.624.433-.47L17.54 14l-1.225.923zm2.812.863h-1.024v.283c-.214-.254-.563-.378-.894-.378-.854 0-1.442.711-1.442 1.536 0 .823.6 1.54 1.453 1.54.338 0 .693-.13.873-.418h.01v.323h1.024v-2.886zM19.643 14h1.024v4.675h-1.024V14zm3.082 2.582c.415 0 .656.296.656.65 0 .363-.24.644-.656.644-.416 0-.656-.28-.656-.643 0-.355.24-.651.656-.651zm0-.892c-.926 0-1.738.559-1.738 1.543 0 .981.817 1.534 1.738 1.534.926 0 1.735-.558 1.735-1.534 0-.984-.81-1.543-1.735-1.543zm2.061.096h1.023v2.889h-1.023v-2.89zm1.087-1.109a.575.575 0 1 1-.577-.576c.318 0 .577.259.577.576zm2.352 1.853a1.26 1.26 0 0 0-.55-.144c-.122 0-.328.053-.328.199 0 .195.328.224.468.254.479.095.838.32.838.854 0 .76-.693 1.074-1.367 1.074-.41 0-.815-.116-1.164-.33l.37-.715c.21.146.556.291.81.291.132 0 .328-.06.328-.22 0-.224-.328-.235-.648-.32-.32-.084-.64-.24-.64-.759 0-.709.64-1.024 1.274-1.024.329 0 .654.05.953.186l-.344.653zm1.635.28c.063-.3.312-.455.608-.455.275 0 .53.18.58.454H29.86zm2.14.481c0-.982-.58-1.6-1.582-1.6-.94 0-1.598.579-1.598 1.54 0 .996.714 1.536 1.672 1.536.659 0 1.304-.31 1.468-.992h-.984c-.113.19-.27.265-.49.265-.422 0-.642-.225-.642-.64H32v-.109zm-23.55.736.97.973-2.047 2.05L4 17.677l3.373-3.375 3.03 3.034h1.425v1.336H9.751l-2.378-2.375L5.971 17.7l1.402 1.4 1.077-1.074z" fill="#1C4E9C"/></svg>