<svg width="36" height="36" fill="none" xmlns="http://www.w3.org/2000/svg"><path d="M18 0c2.837 0 5.52.656 7.907 1.825C31.884 4.753 36 10.895 36 18c0 9.942-8.058 18-18 18-9.94 0-18-8.057-18-18C0 8.06 8.06 0 18 0z" fill="#F2F4F7"/><path d="M7.847 19.986c-.147.188-.315.36-.5.512a1.279 1.279 0 0 1-.677.207H4v-5.667h2.663c.243.007.478.086.677.226.185.153.352.325.5.514.113.17.172.37.17.575v.703a1.053 1.053 0 0 1-.37.826 1.028 1.028 0 0 1 .37.814v.722c.004.201-.053.399-.163.568zm-.832-2.957v-.676a.175.175 0 0 0 0-.048c-.083-.15-.266-.331-.35-.331h-1.67v1.432h1.668c.086 0 .275-.171.34-.313a.135.135 0 0 0 0-.066l.012.002zm-.011 2.339v-.677a.106.106 0 0 0 0-.047c-.084-.151-.266-.322-.35-.322h-1.66v1.436h1.67c.085 0 .274-.171.34-.313a.188.188 0 0 0 0-.066m5.193 1.326-.417-1.195H9.638l-.426 1.195H8.149l1.983-5.667h1.157l1.97 5.667h-1.062zm-1.488-4.388-.767 2.237h1.527l-.76-2.237zm6.486 3.644c-.246.334-.677.787-1.204.787h-1.184a1.198 1.198 0 0 1-.589-.169 3.117 3.117 0 0 1-.69-.676.94.94 0 0 1-.153-.54v-2.978a.925.925 0 0 1 .153-.533c.196-.257.429-.485.69-.676.18-.105.381-.165.589-.176h1.184c.532 0 .958.465 1.204.787.074.108.14.222.198.34l-.965.267a2.773 2.773 0 0 0-.426-.436.055.055 0 0 0-.038 0h-1.128a.083.083 0 0 0-.038 0 1.453 1.453 0 0 0-.424.415.427.427 0 0 0 0 .106v2.883c0 .112.293.358.435.435h1.143a.111.111 0 0 0 .048 0 1.54 1.54 0 0 0 .426-.451l.965.257a1.65 1.65 0 0 1-.196.358zm3.723.744v-2.34H18.85v2.34h-.994v-5.667h.994v2.38h2.068v-2.38h.995v5.667h-.995zm1.852 0v-5.667h3.563v.947h-2.569v1.432h2.418v.947h-2.418v1.394h2.569v.947H22.77zm8.236 0V16.83l-1.128 2.483h-.654l-1.128-2.474v3.867H27.1v-5.667h1.14l1.325 2.796 1.308-2.796H32v5.667h-.994z" fill="#004080"/></svg>