<svg height="36" viewBox="0 0 36 36" width="36" xmlns="http://www.w3.org/2000/svg"><mask id="a" fill="#fff"><path d="M0 0h25v26.683H0z" fill-rule="evenodd"/></mask><g fill="none" fill-rule="evenodd"><path d="M18 0c2.837 0 5.52.656 7.907 1.825C31.884 4.753 36 10.895 36 18c0 9.942-8.058 18-18 18-9.94 0-18-8.057-18-18C0 8.06 8.06 0 18 0z" fill="#f2f4f7" fill-rule="nonzero"/><path d="M9.386 3.76a.95.95 0 0 0 .496.684.92.92 0 0 0 .613.141c-.156.242-.3.363-.567.473-.314.13-.55.135-.872.023a.793.793 0 0 0 .307.779.845.845 0 0 0 1.156-.072c-.22.448-.525.682-1.015.779-.252.05-.411.044-.66-.023.126.328.283.51.59.683.324.184.58.222.943.142-.358.26-.735.292-1.132.094-.453-.226-.539-.652-.59-1.155-.07-.707.296-1.07.401-1.769.107-.703.372-1.145.142-1.816-.379-1.1-1.412-1.419-2.57-1.51-.915-.071-1.47.18-2.265.637-1.306.752-1.636 1.754-2.287 3.113C1.274 6.638.637 7.982 0 8.595a.64.64 0 0 0 .424 0 .648.648 0 0 0 .402-.307C.75 8.84.682 9.148.518 9.68a7.418 7.418 0 0 1-.424 1.11.762.762 0 0 0 .472-.072.76.76 0 0 0 .4-.378 4.628 4.628 0 0 1-.377 1.675 4.65 4.65 0 0 1-.447.872c.332.001.535-.05.825-.212a1.49 1.49 0 0 0 .684-.707c-.036.905-.127 1.424-.401 2.287-.09.28-.082.474-.26.707a1.112 1.112 0 0 1-.519.401c.574.07 1.042.066 1.439-.352.4-.425.66-.944.896-1.817L2.5 16.237a2.678 2.678 0 0 1-.237.872c-.186.43-.347.662-.683.99.683-.034 1.112-.208 1.627-.66.575-.504.821-.984.896-1.745.056-.508.097-.794.189-1.298.105-.574.177-.897.33-1.461l-.142 1.533c-.055.607.02.969-.14 1.555a3.831 3.831 0 0 1-.614 1.322c.47-.066.744-.174 1.132-.449.572-.404.8-.817 1.013-1.485.169-.528.041-.867.118-1.416.042-.309.097-.616.165-.92.025.414.04.648.07 1.062.035.451.145.707.095 1.156a2.647 2.647 0 0 1-.33 1.085c.528-.17.822-.354 1.203-.755.294-.309.458-.514.59-.92.109-.333.08-.544.095-.896a6.65 6.65 0 0 0 0-.566c.203.304.275.53.282.896.011.505-.12.84-.472 1.203.456-.093.72-.228 1.062-.543.329-.302.488-.537.613-.967.085-.292.101-.475.07-.777.304.377.392.725.308 1.202-.1.56-.44.828-.92 1.132-.466.296-.818.387-1.368.354.104.166.2.25.377.33a.761.761 0 0 0 .472.07c-.343.372-.607.545-1.085.708-.505.174-.843.197-1.368.095.422.38.758.535 1.321.613.714.098.99-.19 1.792-.448-.233.43-.43.654-.825.943-.352.258-.578.46-1.015.471-.46.013-.69-.233-1.084-.471-.464-.28-.521-.856-1.061-.896a1.205 1.205 0 0 0-1.274 1.226c.07-.245.18-.39.401-.519a.77.77 0 0 1 .495-.118.65.65 0 0 0 .188.684c.24.232.566.268.85.094a.516.516 0 0 0 .118.496c.145.17.323.234.542.189-.557.262-.918.35-1.533.377-.49.021-.8-.339-1.25-.142-.34.149-.621.316-.66.684a.772.772 0 0 0 .684.849c-.185-.247-.307-.754.141-.778.402-.021.403.624.802.637a.8.8 0 0 0 .779-.448c.248.015.393.004.636-.048.279-.059.436-.118.684-.26a4.79 4.79 0 0 1-.425 1.038c-.202.381-.652.491-.612.92a.771.771 0 0 0 .211.495c.002.44.28.781.708.873a.84.84 0 0 0 .897-.33.664.664 0 0 1-.543.047c-.171-.05-.314-.093-.378-.259-.089-.236.224-.326.354-.542.16-.27.266-.417.378-.709.108-.282.06-.479.189-.754.14-.303.205-.563.519-.683.249-.096.427-.03.684.047.287.087.358.415.66.4.319-.015.573-.204.636-.518.047-.236.124-.473.354-.473.276.001.425.543.189.685a.687.687 0 0 0 .4-.826c-.07-.264-.243-.388-.495-.495-.45-.189-.69.434-1.18.425a1.531 1.531 0 0 1-.66-.141c.15-.306.256-.47.472-.732.212-.256.35-.388.614-.59.092.268.199.417.424.59.322.248.616.315 1.014.236-.415-.276-.608-.61-.636-1.109-.021-.352.04-.578.235-.872.291.733.401 1.193.401 1.981 0 1.815-1.603 4.197-3.56 5.4.292.173.487.241.824.283.311.04.499.03.802-.046.769-.97 1.134-1.593 1.604-2.737.542-1.318.732-2.138.826-3.56h.165c-.083 1.426-.256 2.246-.756 3.584-.46 1.233-.825 1.91-1.602 2.972.006.354.16.607.471.778a.86.86 0 0 0 1.015-.094c.534-1.303.763-2.08 1.013-3.467.26-1.443.32-2.285.26-3.75h.14c.104 1.534.062 2.42-.188 3.938-.23 1.403-.446 2.192-.967 3.514.19.335.347.51.66.731.273.193.456.275.779.354.324-.08.506-.16.778-.354.314-.222.472-.396.661-.73-.52-1.323-.737-2.112-.967-3.515-.249-1.517-.29-2.404-.19-3.939h.143c-.06 1.466-.002 2.308.26 3.751.25 1.386.477 2.164 1.013 3.467a.86.86 0 0 0 1.014.094.845.845 0 0 0 .472-.778c-.779-1.063-1.143-1.739-1.604-2.972-.499-1.338-.671-2.158-.754-3.585h.165c.093 1.423.283 2.243.825 3.561.47 1.144.835 1.768 1.604 2.737.303.076.49.086.802.046a1.86 1.86 0 0 0 .825-.283c-1.958-1.203-3.561-3.585-3.561-5.4 0-.788.11-1.248.4-1.981.196.294.257.52.236.872-.028.498-.221.833-.636 1.109.398.08.692.012 1.014-.236.225-.173.332-.322.424-.59.264.202.403.334.613.59.217.262.323.426.473.732a1.535 1.535 0 0 1-.661.14c-.488.01-.729-.613-1.18-.424-.251.107-.424.23-.495.495a.688.688 0 0 0 .4.826c-.236-.142-.087-.684.19-.685.23 0 .306.237.354.473.062.313.317.503.636.518.301.015.373-.313.661-.4.255-.077.434-.143.684-.047.313.12.377.38.519.683.127.275.08.472.188.754.112.292.217.44.378.709.13.216.443.306.353.542-.063.166-.206.208-.377.26a.662.662 0 0 1-.542-.048.839.839 0 0 0 .895.33.868.868 0 0 0 .708-.873.772.772 0 0 0 .213-.495c.04-.429-.41-.539-.614-.92a4.729 4.729 0 0 1-.424-1.038c.248.142.405.201.684.26.243.052.388.063.637.048a.799.799 0 0 0 .778.448c.399-.013.4-.658.802-.637.448.024.325.531.141.778a.771.771 0 0 0 .683-.85c-.038-.367-.32-.534-.66-.683-.449-.197-.76.163-1.25.142-.615-.028-.975-.115-1.532-.377a.526.526 0 0 0 .542-.19.519.519 0 0 0 .118-.495.673.673 0 0 0 .85-.094.65.65 0 0 0 .188-.684.766.766 0 0 1 .494.118.782.782 0 0 1 .402.52 1.205 1.205 0 0 0-1.274-1.227c-.54.041-.597.615-1.06.896-.395.238-.625.484-1.086.471-.436-.01-.662-.213-1.014-.471a2.48 2.48 0 0 1-.825-.943c.801.259 1.079.546 1.792.448.563-.078.9-.234 1.32-.613-.524.102-.86.08-1.367-.095-.478-.163-.741-.337-1.085-.707.183-.034.288-.05.472-.07a5.65 5.65 0 0 1 .637-.045c-.604-.042-.968-.174-1.457-.53-.436-.317-.719-.548-.884-1.06-.166-.515-.139-.899.1-1.384-.102.39-.082.66.077 1.03.144.337.342.463.607.714.397.376.664.557 1.16.788-.361-.488-.502-.845-.57-1.448-.05-.432-.03-.692.084-1.113.098.3.142.472.199.783.063.346-.014.563.094.896.132.405.31.598.59.92.504.582.907.856 1.634 1.11-.409-.486-.591-.828-.762-1.44-.15-.539-.112-.87-.121-1.43a8.972 8.972 0 0 1 .044-1.149c.212.48.304.768.408 1.281.109.543-.051.888.118 1.416.214.668.441 1.08 1.014 1.485.387.275.661.383 1.132.449a3.796 3.796 0 0 1-.613-1.322c-.162-.587-.096-.948-.142-1.556a44.767 44.767 0 0 1-.107-1.797c.21.591.307.933.442 1.546.15.68.21 1.072.265 1.766.124.51.274.8.618 1.193.494.562.943.81 1.683.925a2.713 2.713 0 0 1-.684-.991 2.699 2.699 0 0 1-.236-.872l-.306-3.043c.235.872.495 1.392.895 1.816.397.42.865.424 1.44.353a1.118 1.118 0 0 1-.52-.4c-.178-.235-.17-.428-.26-.708-.273-.863-.364-1.383-.4-2.287.07.413.22.666.553.923.275.213.49.293.838.309a7.062 7.062 0 0 1-.486-1.02 7.089 7.089 0 0 1-.485-1.806c.227.183.384.264.665.344a1.6 1.6 0 0 0 .471.07 7.47 7.47 0 0 1-.607-1.474 7.437 7.437 0 0 1-.309-1.413c.189.134.31.194.53.265.2.063.321.083.53.088-.637-.613-.838-1.635-1.325-3.29-.423-1.446-.568-2.343-1.721-3.114-.62-.413-1.055-.589-1.797-.637-1.344-.086-2.687.23-3.106 1.51-.22.675.062 1.109.133 1.816.069.691.292 1.06.22 1.769-.05.503-.205.853-.617 1.155-.6.438-1.348.4-1.9-.094.487.173.85.162 1.325-.042a1.6 1.6 0 0 0 .795-.663c-.49.022-.813-.086-1.192-.397-.318-.261-.464-.488-.574-.883.278.221.487.31.838.352.42.052.697-.005 1.061-.22a2.99 2.99 0 0 1-1.149-.751 2.989 2.989 0 0 1-.75-1.104c.24.283.47.404.838.441.28.029.458-.004.708-.132a2.423 2.423 0 0 1-.987-.693c-.417-.457-.591-.817-.692-1.426a2 2 0 0 1 .486.397c.186.198.277.33.397.574-.373-1.104-.894-1.73-1.913-2.296-.806-.45-1.332-.504-2.31-.516-.29-.003-.513-.06-.732.13a.637.637 0 0 0-.224.354l-.648-.07a.616.616 0 0 0-.53.188.639.639 0 0 0-.189.672l.237.826a.532.532 0 0 1-.319-.024.537.537 0 0 1-.307-.248.718.718 0 0 0 .437.602c.175.083.335-.054.495.058a.473.473 0 0 1 .177.212 1.23 1.23 0 0 1 .707-.224c.41-.016.684.083.99.354-.214.559-.548.872-1.12 1.05-.506.158-.888.121-1.356-.13" fill="#00acec" mask="url(#a)" transform="translate(6 5)"/><path d="M18.476 15.847c-.858 0-2.18.287-2.18.287l-.945-2.19.741.462-.218.347.223.14.217-.348.31.194-.176.272c-.177.258-.286.443-.094.518.211.082.37.09.519-.047.152-.142.2-.213.283-.354.161.211.36.297.625.271.336-.033.636-.295.624-.6-.005-.14-.091-.165-.189-.225l-.235.236-.413-.414.33-.33.33.33.19-.187-.32-.319.378-.378.377.378-.318.319.188.187.33-.33.331.33-.412.414-.236-.236c-.097.06-.184.086-.19.224-.011.306.289.568.626.601a.647.647 0 0 0 .625-.271c.082.141.13.212.283.354.149.137.306.13.518.047.192-.075.083-.26-.094-.518l-.177-.272.31-.194.219.348.222-.14-.218-.347.74-.462-.944 2.19s-1.323-.287-2.18-.287" fill="#fff"/><path d="M16.343 16.266c.243-.051 1.371-.277 2.133-.277.858 0 2.134.283 2.134.283l-.257.638c-.441-.084-1.274-.225-1.877-.225-.602 0-1.432.14-1.874.225z" fill="#fff"/><path d="M19.703 16.465c.007-.076-.082-.149-.199-.163-.117-.014-.217.037-.224.113-.007.076.082.15.198.163.117.013.217-.037.225-.113m-2.453 0c-.007-.076.081-.149.198-.163.116-.014.217.037.224.113.006.076-.082.15-.198.163-.117.013-.217-.037-.224-.113m1.014-.125c0-.077.095-.139.212-.139.118 0 .212.062.212.14 0 .075-.094.137-.212.137-.117 0-.212-.062-.212-.138" fill="#00acec"/><path d="M11.542 11.828c-.857 0-2.18.287-2.18.287l-.945-2.19.742.461-.218.349.222.139.218-.347.31.192-.176.273c-.178.259-.287.444-.095.519.212.082.37.09.519-.049.153-.14.2-.211.283-.353.162.211.36.297.625.271.337-.033.637-.294.624-.6-.004-.14-.091-.165-.188-.225l-.236.236-.413-.413.33-.33.33.33.19-.188-.32-.319.378-.377.377.377-.318.319.189.188.33-.33.33.33-.413.413-.236-.236c-.097.06-.183.086-.188.224-.012.307.288.568.625.601a.647.647 0 0 0 .625-.271c.082.142.13.212.283.353.15.139.306.13.519.049.19-.075.082-.26-.095-.52l-.177-.272.311-.192.218.347.222-.14-.218-.348.74-.461-.944 2.19s-1.321-.287-2.18-.287m5.33 5.352c.612-.154.974-.2 1.604-.2s.992.046 1.604.2c-.612.154-.973.2-1.604.2s-.992-.046-1.604-.2" fill="#fff"/><path d="M9.41 12.247c.242-.051 1.372-.277 2.132-.277.858 0 2.135.283 2.135.283l-.257.638c-.442-.084-1.275-.226-1.877-.226-.603 0-1.433.141-1.875.226z" fill="#fff"/><path d="M12.769 12.446c.007-.076-.081-.149-.198-.163-.117-.013-.217.037-.225.113s.083.15.199.163c.117.014.217-.037.224-.113m-2.453 0c-.007-.076.081-.149.198-.163.116-.013.217.037.224.113.008.076-.082.15-.198.163-.116.014-.217-.037-.224-.113m1.014-.125c0-.077.095-.139.212-.139.118 0 .213.062.213.14 0 .075-.095.137-.213.137-.117 0-.212-.062-.212-.138" fill="#00acec"/><path d="M26.514 11.828c.857 0 2.18.287 2.18.287l.945-2.19-.741.461.218.349-.223.139-.218-.347-.31.192.176.273c.178.259.287.444.095.519-.212.082-.37.09-.519-.049a1.233 1.233 0 0 1-.283-.353.647.647 0 0 1-.625.271c-.336-.033-.636-.294-.625-.6.006-.14.092-.165.19-.225l.235.236.413-.413-.33-.33-.331.33-.188-.188.318-.319-.377-.377-.378.377.319.319-.189.188-.33-.33-.33.33.412.413.236-.236c.097.06.184.086.19.224.01.307-.29.568-.626.601a.647.647 0 0 1-.625-.271 1.24 1.24 0 0 1-.283.353c-.149.139-.307.13-.519.049-.192-.075-.083-.26.095-.52l.177-.272-.31-.192-.219.347-.222-.14.218-.348-.741-.461.944 2.19s1.323-.287 2.18-.287M9.94 13.161a5.64 5.64 0 0 1 1.603-.2c.63 0 .993.046 1.605.2a5.69 5.69 0 0 1-1.605.2 5.65 5.65 0 0 1-1.603-.2" fill="#fff"/><path d="M28.647 12.247c-.243-.051-1.372-.277-2.133-.277-.858 0-2.135.283-2.135.283l.258.638c.441-.084 1.274-.226 1.877-.226.602 0 1.432.141 1.874.226z" fill="#fff"/><path d="M25.287 12.446c-.007-.076.082-.149.198-.163.117-.013.217.037.225.113.007.076-.083.15-.199.163-.117.014-.217-.037-.224-.113m2.453 0c.007-.076-.081-.149-.198-.163-.116-.013-.217.037-.224.113-.007.076.082.15.198.163.117.014.217-.037.224-.113m-1.014-.125c0-.077-.095-.139-.212-.139-.118 0-.212.062-.212.14 0 .075.094.137.212.137.117 0 .212-.062.212-.138" fill="#00acec"/><g fill="#fff"><path d="M16.99 5.765c.236.177.48.342.732.495.348.216.626.222.92.508.142.139.378.21.318.4-.038.122-.13.163-.248.213-.21.088-.35-.079-.578-.106a4.178 4.178 0 0 0-.46-.036l-.024-.165c.23.057.366.07.602.059.115-.006.2.03.295-.035.2-.14-.242-.3-.437-.448-.256-.197-.485-.172-.743-.366a1.86 1.86 0 0 1-.424-.425zm.601-.436.083.13.424.023c.118-.02.236-.032.355-.035.23-.01.362-.002.59.035a2.167 2.167 0 0 0-.755-.189 2.147 2.147 0 0 0-.697.036zm1.098.4c0 .154-.118.248-.33.237-.272-.048-.39-.118-.413-.26a.118.118 0 1 1 .235 0s.084.093.153.095a.164.164 0 0 0 .154-.083c-.033-.075.065-.18.142-.153.064.023.109.12.059.164zm9.428 7.432c-.61-.154-.973-.2-1.603-.2s-.992.046-1.604.2c.61.153.973.2 1.604.2s.992-.047 1.603-.2z"/><path d="m16.176 5.741.142-.035h.236c.106.035.247.047.247.153 0 .07-.082.118-.152.118-.13 0-.201-.105-.33-.105a.34.34 0 0 0-.143.046l-.046-.094c-.001-.035.023-.06.046-.083m-.271 1.345a.52.52 0 0 1 .271-.637c.178-.087.322-.045.508.024.11.04.149.113.26.153.13.048.224-.007.353.047.08.034.123.06.188.118a2.08 2.08 0 0 0-.707.083c-.215.058-.31.18-.53.212a1.04 1.04 0 0 1-.343 0"/></g></g></svg>