<svg width="36" height="36" fill="none" xmlns="http://www.w3.org/2000/svg"><path d="M18 0c2.837 0 5.52.656 7.907 1.825C31.884 4.753 36 10.895 36 18c0 9.942-8.058 18-18 18-9.94 0-18-8.057-18-18C0 8.06 8.06 0 18 0z" fill="#F2F4F7"/><path fill-rule="evenodd" clip-rule="evenodd" d="M4 16.62h9.757s.374-.64 1.005-.62c.096.225.352 1.475.17 3.207.845-1.112.193-3.067.193-3.067s0-.129.096-.043c.599 1.143.503 2.554.182 3.163.92-.983.31-2.48.289-2.554-.022-.075 0-.096 0-.096H32v2.778H15.777s-.385.641-1.004.62c-.353-.983-.236-2.832-.16-3.206-.845 1.111-.193 3.067-.193 3.067s.01.118-.096.043c-.599-1.143-.503-2.554-.182-3.163-.92.983-.31 2.479-.289 2.554.022.075 0 .096 0 .096H4V16.62z" fill="#4B2F21"/><path fill-rule="evenodd" clip-rule="evenodd" d="M31.84 16.791h-16s.642 1.176 0 2.437h16v-2.437zM4.182 19.217h9.511s-.641-1.175 0-2.436H4.182v2.436z" fill="#E1251B"/><path fill-rule="evenodd" clip-rule="evenodd" d="M11.513 17.208h.641v.139h-.107s-.053-.01-.021.043.289.502.289.534c.01.032.042 0 .064-.032.01-.032.235-.406.267-.47.053-.086-.054-.075-.054-.075h-.075v-.139h.514v.139h-.075s-.054-.01-.096.064l-.396.684s-.021.032-.021.086v.427c0 .043.043.032.043.032h.15v.15h-.696v-.15h.16s.043-.01.043-.064v-.353a.446.446 0 0 0-.053-.15s-.32-.555-.363-.64c-.064-.107-.118-.097-.118-.097h-.075l-.021-.128zm-5.429.994c-.064-.192-.224-.246-.353-.267.15-.032.3-.171.278-.417-.021-.246-.31-.31-.48-.31h-.727v.139h.096s.075-.01.075.064v1.197c0 .043-.065.053-.065.053h-.106v.14h.726c.588-.022.62-.407.556-.6zm-.802-.823c0-.043.022-.043.054-.043s.246-.01.342.15c.075.203-.032.342-.15.374-.139.043-.192.043-.192.043s-.054.01-.054-.043v-.481zm.417 1.186c-.085.075-.363.075-.363.075s-.054 0-.054-.043v-.502c0-.032.011-.043.043-.043s.3-.021.385.096c.085.107.117.29-.01.417zm2.116.075c-.032 0-.064 0-.075-.032-.01-.043-.523-1.4-.523-1.4H6.96l-.502 1.4c-.021.053-.064.043-.064.043h-.086v.15h.481v-.15h-.096c-.043 0-.053-.032-.032-.075.01-.043.107-.331.107-.331h.524s.117.331.139.363c.01.043-.011.032-.011.032h-.15v.15h.63v-.15h-.085zm-.641-.556h-.3c-.031 0-.053 0-.031-.053.021-.053.15-.406.16-.438.01-.032.021-.032.043 0 .01.032.15.384.16.417.01.042.032.074-.032.074zm2.405.556c-.075-.021-.14 0-.203-.224-.065-.225-.15-.31-.203-.353-.054-.043-.118-.032-.118-.064.342-.075.385-.278.363-.46-.032-.256-.256-.342-.566-.342h-.695v.14h.118s.064 0 .064.085v1.143c0 .086-.054.075-.054.075H8.18v.15h.63v-.15h-.096c-.086 0-.075-.053-.075-.096v-.406c0-.043.032-.032.032-.032h.075c.214 0 .289.299.353.47.064.171.245.235.363.235s.214-.021.214-.021v-.14c.01 0-.022.012-.096-.01zm-.887-.695s-.065.022-.065-.042V17.4c0-.053.011-.074.065-.074.032 0 .256-.022.33.107.065.117.086.32-.042.427-.085.096-.288.085-.288.085zm2.682.695c-.075-.021-.139 0-.203-.224-.064-.225-.15-.31-.203-.353-.053-.043-.107-.032-.118-.064.332-.075.385-.278.353-.46-.032-.256-.256-.342-.566-.342h-.695v.14h.117s.065 0 .065.085v1.143c0 .086-.054.075-.054.075h-.107v.15h.652v-.15h-.096c-.085 0-.075-.053-.075-.096v-.406c0-.043.032-.032.032-.032h.075c.214 0 .289.299.353.47.064.171.246.235.363.235.118 0 .214-.021.214-.021v-.14c.01 0-.021.012-.107-.01zm-.876-.684s-.064.021-.064-.043v-.502c0-.053.01-.075.053-.075.032 0 .256-.021.331.107.064.118.086.32-.042.428-.086.085-.278.085-.278.085zm19.664.834h.695v-.15h-.14s-.053-.01-.053-.096V17.39c0-.032.032-.054.053-.054h.204c.042 0 .064.022.085.107.01.086.032.171.032.171h.16v-.417h-1.357v.417h.16s.011-.075.033-.17c.01-.086.042-.108.085-.108h.203c.021 0 .054.011.054.054v1.154c0 .085-.054.096-.054.096h-.139v.15h-.021zm-2.191-1.582h.663v.139h-.107s-.054 0-.054.064v.812c0 .16.054.385.32.385.279 0 .418-.085.418-.438v-.716c0-.118-.182-.096-.182-.096v-.14h.524v.14h-.118s-.064-.011-.064.085v.77c0 .245-.021.523-.449.598-.406.075-.78-.075-.78-.598v-.76c0-.063-.021-.085-.064-.085h-.107v-.16zm-4.467 1.432h.523s.054 0 .065-.085c.01-.086.021-.214.021-.214h.171s.021.256 0 .449h-1.261v-.15h.117s.065.01.065-.085v-1.122c0-.097-.065-.086-.065-.086h-.117v-.139h1.175s.011.021.011.16v.214h-.17c-.012-.107-.054-.235-.054-.235h-.428s-.053 0-.053.075v.47h.256c.043 0 .075-.01.086-.075l.021-.128h.15s.01.064.01.278c0 .214-.01.288-.01.288h-.15a.497.497 0 0 0-.043-.203h-.32v.588zm-3.441-1.304v-.139h.673v.14h-.128s-.043 0-.043.074v1.23h.438s.053 0 .064-.086c.01-.086.032-.235.032-.235h.171s.022.288 0 .47h-1.175v-.15h.117s.064.01.064-.085v-1.122c0-.097-.064-.086-.064-.086h-.15v-.01zm-2.074.342s.032-.203-.01-.416a1.348 1.348 0 0 0-.663-.075c-.31.053-.62.288-.652.758-.032.47.267.738.62.845.3.085.684-.075.684-.075s.032-.182.01-.395h-.181l-.053.267c-.011.042-.011.053-.086.064-.075.01-.556.075-.663-.535-.053-.299.075-.694.428-.758.331-.054.331.117.342.17.01.054.021.15.021.15h.203zm3.56-.352v-.14h.672v.14h-.128s-.043 0-.043.074v1.23h.428s.053 0 .064-.086c.01-.086.032-.235.032-.235h.171s.021.288 0 .47H21.57v-.15h.117s.064.011.064-.085V17.41c0-.096-.064-.085-.064-.085h-.139zM19.73 18.64c-.032 0-.064 0-.075-.032-.01-.043-.523-1.4-.523-1.4h-.257l-.502 1.4c-.021.053-.064.043-.064.043h-.086v.15h.481v-.15h-.096c-.043 0-.053-.032-.032-.075.01-.043.107-.331.107-.331h.524l.128.363c.01.043-.01.032-.01.032h-.15v.15h.63v-.15h-.075zm-.63-.556h-.3c-.031 0-.053 0-.031-.053.02-.053.15-.406.16-.438.01-.032.021-.032.043 0 .01.032.15.384.16.427 0 .032.032.064-.032.064zm8.624.556c-.032 0-.064 0-.075-.032-.01-.043-.523-1.4-.523-1.4h-.257l-.502 1.4c-.021.053-.064.043-.064.043h-.086v.15h.481v-.15h-.096c-.043 0-.053-.032-.032-.075.01-.043.107-.331.107-.331h.523l.129.363c.01.043-.01.032-.01.032h-.15v.15h.63v-.15h-.075zm-.641-.556h-.3c-.031 0-.053 0-.031-.053.021-.053.15-.406.16-.438.01-.032.021-.032.043 0 .01.032.15.384.16.427.01.032.032.064-.032.064zm-1.1.107c-.065-.192-.225-.246-.354-.267.15-.032.3-.17.268-.417-.022-.245-.31-.31-.481-.31h-.738v.14h.097s.074-.011.074.063v1.197c0 .043-.064.054-.064.054h-.107v.139h.727c.61-.022.641-.406.577-.599zm-.802-.812c0-.043.021-.043.053-.043s.246-.01.342.15c.075.203-.032.342-.15.374l-.192.043s-.043.01-.043-.043v-.481h-.01zm.406 1.176c-.086.074-.364.074-.364.074s-.042.011-.042-.042v-.503c0-.032.01-.042.042-.042s.3-.022.385.096c.086.117.118.288-.021.417z" fill="#fff"/></svg>