<svg height="36" viewBox="0 0 36 36" width="36" xmlns="http://www.w3.org/2000/svg"><mask id="a" fill="#fff"><path d="M0 0h6.796v3.88H0z" fill-rule="evenodd"/></mask><mask id="b" fill="#fff"><path d="M0 0h21.732v5.902H0z" fill-rule="evenodd"/></mask><g fill="none" fill-rule="evenodd"><path d="M18 0c2.837 0 5.52.656 7.907 1.825C31.884 4.753 36 10.895 36 18c0 9.942-8.058 18-18 18-9.94 0-18-8.057-18-18C0 8.06 8.06 0 18 0z" fill="#f2f4f7" fill-rule="nonzero"/><g fill="#24336b"><path d="M28.835 17.06c.179.988-.475 2.038-1.697 2.967-.011.01.001.026.013.018.974-.636 2.005-1.349 2.704-2.297.25-.339.461-.746.498-1.172.069-.796-.462-1.485-1.129-1.858-.444-.25-.931-.406-1.426-.518-.861-.196-1.749-.258-2.63-.246a16.903 16.903 0 0 0-2.63.241c-.423.074-.844.156-1.262.257l-.135.033c-.014.004-.011.024.004.023 4.045-.383 7.346.652 7.69 2.551"/><path d="M.012.471C-.002.471-.005.451.01.45.32.386.634.33.947.28A23.784 23.784 0 0 1 2.451.084C3.317 0 4.22-.05 5.087.074c.195.028.388.066.578.12.472.134.957.388 1.088.897.085.332.033.686-.07 1.007-.2.626-.592 1.184-1.007 1.685l-.079.093c-.008.01-.023.001-.019-.01.172-.455.247-.969.16-1.448-.13-.707-.696-1.226-1.33-1.506C3.64.573 2.793.49 1.961.456 1.312.43.661.442.012.471" mask="url(#a)" transform="translate(25.204 13)"/><path d="M6.542 4.219c0 .928-.755 1.683-1.683 1.683L0 5.903V4.362h1.163v.377h3.696a.52.52 0 0 0 0-1.04H0V2.536h3.906a.52.52 0 0 0 0-1.039H1.163v.377H0V.334h3.906A1.685 1.685 0 0 1 5.465 2.65a1.684 1.684 0 0 1 1.077 1.569zm8.224-2.722h6.966V.334h-6.966zm2.901 4.405h1.163V2.16h-1.163zm-5.979-2.493.882 1.164H9.389L8.382 5.902H6.923L11.395 0l4.472 5.902h-1.46l-3.012-3.975-1.124 1.482z" mask="url(#b)" transform="translate(4 16.65)"/></g></g></svg>