<svg width="36" height="36" fill="none" xmlns="http://www.w3.org/2000/svg"><path d="M18 0c2.837 0 5.52.656 7.907 1.825C31.884 4.753 36 10.895 36 18c0 9.942-8.058 18-18 18-9.94 0-18-8.057-18-18C0 8.06 8.06 0 18 0z" fill="#F2F4F7"/><path fill-rule="evenodd" clip-rule="evenodd" d="M20.565 16.539c.53-.09 1.118-.06 1.67-.122-.003.228-.107.451-.16.678l.05.034 1.342-.01-.148.567-1.39.022c-.19.564-.337 1.15-.499 1.728.003.148.12.233.242.297.423 0 .92.065 1.29-.081l-.175.645-2.31.019c-.314-.05-.635-.34-.698-.632l.013-.416c.27-.901.512-1.82.773-2.729zm-5.358.65a20.09 20.09 0 0 1 1.153 1.802c-.65.464-1.311.904-1.969 1.343l.002.034 1.082-.018 1.225-.824c.184.258.36.523.46.816l2.08-.021c-.046-.012-.082-.065-.118-.09l-1.013-1.658 2.054-1.399-.002-.033-1.239.04c-.309.38-.779.569-1.167.85-.17-.279-.405-.53-.447-.857l-2.1.015zm13.437-.086.024.16-.744 2.744-.181.27h1.965l-.041-.219.482-1.854a.39.39 0 0 1 .217-.264c.409.006 1.017-.131 1.392.09l.242-.92c-.615.095-1.446-.279-1.8.37-.06-.106-.027-.248-.035-.376h-1.521zM9.248 16l-3.959.017.007.308L4.28 19.91l-.28.512 4.23-.003c.383.009.711-.11.885-.413.127-.445.355-.863.304-1.359a.944.944 0 0 0-.39-.487c.18-.05.358-.115.499-.25.3-.38.392-.857.404-1.326-.068-.286-.374-.535-.684-.584zm-2.143.732 1.038.009c.145.078.092.28.059.387-.091.216-.085.504-.298.648l-1.19.005.391-1.049zm-.6 1.776 1.103-.005c.153.065.114.273.073.387-.14.25.02.636-.277.776l-1.2-.002c.05-.383.2-.773.301-1.157zm7.427-1.3-3.473.011-.245.586c.837-.12 1.742-.04 2.58-.063.072.034.11.106.118.18-.033.1-.024.234-.146.29l-2.285.05-.398.186c-.324.334-.395.764-.423 1.213.02.26.204.5.443.636.532.158 1.278.08 1.908.062.144-.036.239-.179.307-.294.052.094.093.2.123.3l1.635.007-.053-.22.482-1.774c.076-.23.149-.552-.015-.757-.11-.205-.34-.336-.558-.413zm-1.29 1.628-.242.861-.105.082-.825.013c-.356-.194-.011-.589.02-.87l.134-.083 1.018-.003zm14.87-1.7-3.134-.016a.949.949 0 0 0-.595.383c-.217.673-.42 1.354-.542 2.064.055.328.319.65.68.726l3.441-.009.268-.662-.171.072-2.359.017-.123-.057c-.19-.218.036-.443.06-.665l2.838-.045c.078-.45.392-.897.16-1.383a.89.89 0 0 0-.523-.425zm-2.005.58.761-.012a.269.269 0 0 1 .176.158c-.006.16-.037.315-.101.463l-1.119.019c.098-.21.063-.497.284-.628z" fill="#252969"/></svg>