<svg width="36" height="36" xmlns="http://www.w3.org/2000/svg"><g fill="none"><path d="M18 0c2.837 0 5.52.656 7.907 1.825C31.884 4.753 36 10.895 36 18c0 9.942-8.058 18-18 18-9.94 0-18-8.057-18-18C0 8.06 8.06 0 18 0z" fill="#F2F4F7"/><path d="M17.055 8.11h1.6a.326.326 0 0 0 .327-.328.326.326 0 0 0-.327-.327h-1.6v.654zm0 1.526h1.636c.218 0 .364-.145.364-.363s-.146-.364-.364-.364h-1.636v.727zm2.581-1.163c.219.218.364.509.364.836a1.15 1.15 0 0 1-1.164 1.164h-2.654V6.655H18.8c.618 0 1.127.509 1.127 1.127a1.473 1.473 0 0 1-.29.69zm.619 6.545h-.982l-.291-.654h-2.146l-.29.654h-.982l1.89-3.818h.873l1.928 3.818zm-2.364-2.836-.655 1.382h1.31l-.655-1.382zm1.309 3.673h1.09l-1.926 2.472v1.346h-.91v-1.346l-1.927-2.472h1.091l1.31 1.745 1.272-1.745zm5.055 0v.836h-2.546v.654h2.473v.837h-2.473v.727h2.546v.836H20.8v-3.89h3.455zm2.8 2.363h-.691v1.455h-.91v-3.818h2.328c.654 0 1.163.545 1.163 1.2 0 .545-.363.981-.836 1.127l1.127 1.49h-1.09l-1.091-1.454zm.654-1.563H26.4v.727h1.31a.364.364 0 0 0 .363-.364.391.391 0 0 0-.364-.363zm-11.782 3.018h-.982l-.29-.655h-2.146l-.29.655h-.983l1.928-3.818h.872l1.891 3.818zm-2.363-2.837-.655 1.382h1.346l-.691-1.382zm-5.782.473h1.6a.326.326 0 0 0 .327-.327.326.326 0 0 0-.327-.327h-1.6v.654zm0 1.527h1.636c.218 0 .364-.145.364-.363s-.146-.364-.364-.364H7.782v.727zm2.582-1.163c.218.218.363.509.363.836 0 .655-.509 1.164-1.163 1.164H6.873v-3.818H9.49c.618 0 1.127.509 1.127 1.127 0 .254-.109.509-.254.69zm9.272 2.8v.836h-2.545v.655h2.473v.836H17.09v.727h2.545v.837h-3.454v-3.891h3.454zm-.654 5.927c0-.218-.146-.364-.364-.364h-1.563v.728h1.563c.218 0 .364-.146.364-.364zm-2.837 2.655v-3.819h2.546c.654 0 1.164.546 1.164 1.2 0 .51-.291.91-.728 1.091l1.164 1.528H19.2L18.11 27.6h-1.055v1.455h-.91z" fill="#10384F"/><path d="M31.673 16.945C31.236 9.745 25.236 4 17.89 4 10.545 4 4.545 9.745 4.109 16.945c0 .291.036.582.073.873.29 2.4 1.2 4.618 2.582 6.473a13.755 13.755 0 0 0 11.127 5.636c-6.4 0-11.636-4.982-12.073-11.236-.036-.291-.036-.582-.036-.873 0-.29 0-.582.036-.873.437-6.254 5.673-11.236 12.073-11.236 4.582 0 8.618 2.218 11.127 5.636a13.545 13.545 0 0 1 2.582 6.473c.036.291.073.582.073.837 0-.291.036-.582.036-.873 0-.255 0-.546-.036-.837" fill="#89D329"/><path d="M4.11 18.69c.435 7.2 6.435 12.946 13.78 12.946 7.346 0 13.346-5.745 13.783-12.945 0-.291-.037-.582-.073-.873-.29-2.4-1.2-4.618-2.582-6.473A13.755 13.755 0 0 0 17.891 5.71c6.4 0 11.636 4.982 12.073 11.236.036.291.036.582.036.873 0 .291 0 .582-.036.873-.437 6.29-5.673 11.236-12.073 11.236a13.755 13.755 0 0 1-11.127-5.636 13.545 13.545 0 0 1-2.582-6.473 7.1 7.1 0 0 1-.073-.836c0 .29-.036.582-.036.873 0 .254 0 .545.036.836" fill="#00BCFF"/></g></svg>