<svg height="36" viewBox="0 0 36 36" width="36" xmlns="http://www.w3.org/2000/svg"><mask id="a" fill="#fff"><path d="M.025 0h.95v1h-.95z" fill-rule="evenodd"/></mask><mask id="b" fill="#fff"><path d="M.088 0h.824v1H.088z" fill-rule="evenodd"/></mask><g fill="none" fill-rule="evenodd"><path d="M18 0c2.837 0 5.52.656 7.907 1.825C31.884 4.753 36 10.895 36 18c0 9.942-8.058 18-18 18-9.94 0-18-8.057-18-18C0 8.06 8.06 0 18 0z" fill="#f2f4f7" fill-rule="nonzero"/><g fill="#3c3e90"><path d="M4.211 22.104h.081c.238 0 .442-.02.442-.238 0-.213-.181-.236-.44-.236h-.083zm0 .641h.211c.237 0 .486-.043.486-.257 0-.218-.282-.25-.513-.25h-.184zM4 21.485h.312c.345 0 .634.094.634.381 0 .113-.058.21-.187.273.227.041.361.193.361.36 0 .28-.305.391-.68.391H4zm2.14.872c-.026-.126-.17-.229-.346-.229-.174 0-.335.103-.36.23zm-.716.127c.003.162.158.293.387.293a.424.424 0 0 0 .36-.18l.172.072c-.114.156-.305.246-.547.246-.352 0-.578-.2-.578-.452 0-.258.203-.473.573-.473.38 0 .58.233.56.494zm.903-.47h.234l.418.63.382-.63h.229l-.873 1.368h-.23l.383-.574zm1.439.439c0 .179.17.324.42.324s.42-.145.42-.324c0-.178-.171-.324-.42-.324s-.42.146-.42.324m-.202.002c0-.258.275-.465.622-.465.348 0 .622.207.622.465 0 .257-.277.46-.622.46s-.622-.203-.622-.46m1.616-.335h.004a.449.449 0 0 1 .337-.13c.327 0 .403.176.403.38v.52h-.202v-.494c0-.141-.015-.267-.249-.267-.276 0-.294.189-.294.346v.416h-.202v-.876h.202zm1.126.323c0 .172.136.334.387.334.26 0 .396-.155.396-.332 0-.175-.149-.316-.398-.316-.234 0-.385.15-.385.314zm.772.326h-.004a.582.582 0 0 1-.408.146c-.348 0-.567-.218-.567-.46 0-.25.214-.465.57-.465.158 0 .31.056.405.149h.004v-.786h.202v1.537h-.202zm1.243-.326c0 .172.136.334.387.334.26 0 .395-.155.395-.332 0-.175-.148-.316-.397-.316-.234 0-.385.15-.385.314zm.974.447h-.202v-.121h-.004a.579.579 0 0 1-.409.146c-.347 0-.566-.218-.566-.46 0-.25.214-.465.57-.465.16 0 .306.056.405.149h.004v-.125h.202zm.468-.77h.005a.449.449 0 0 1 .337-.13c.327 0 .403.176.403.38v.52h-.201v-.494c0-.141-.016-.267-.25-.267-.276 0-.294.189-.294.346v.416h-.201v-.876h.2zm.825-.106h.234l.418.63.382-.63h.229l-.873 1.368h-.23l.383-.574zm2.49.204a.19.19 0 0 0-.16-.09c-.07 0-.147.042-.147.098 0 .08.136.11.274.152.14.043.275.105.275.252 0 .166-.18.285-.4.285-.199 0-.355-.084-.418-.221l.18-.056c.05.082.106.14.24.14.108 0 .191-.055.191-.134 0-.197-.534-.13-.534-.405 0-.148.162-.25.353-.25.136 0 .262.073.315.164zm.632.672h-.202v-.738h-.123v-.138h.123V21.7h.201v.314h.211v.138h-.21zm.382-.437c0 .179.171.324.42.324s.42-.145.42-.324c0-.178-.17-.324-.42-.324s-.42.146-.42.324m-.202.002c0-.258.275-.465.622-.465.348 0 .622.207.622.465 0 .257-.277.46-.622.46s-.622-.203-.622-.46m1.606-.345h.005c.07-.069.13-.12.262-.12.068 0 .123.017.18.041l-.094.137c-.041-.021-.068-.039-.122-.039-.221 0-.231.21-.231.324v.437h-.201v-.876h.2zm1.364.247c-.028-.126-.172-.229-.348-.229-.174 0-.335.103-.36.23zm-.718.127c.002.162.158.293.388.293a.43.43 0 0 0 .36-.18l.171.072c-.114.156-.305.246-.547.246-.352 0-.578-.2-.578-.452 0-.258.203-.473.573-.473.38 0 .582.233.561.494zm1.864-.031c0 .179.171.324.42.324s.42-.145.42-.324c0-.178-.17-.324-.42-.324s-.42.146-.42.324m-.2.002c0-.258.273-.465.62-.465s.622.207.622.465c0 .257-.277.46-.622.46s-.62-.203-.62-.46m1.632.435h-.201v-.738h-.111v-.138h.11v-.349c0-.072 0-.164.054-.226.065-.079.183-.11.304-.11.048 0 .095.007.143.018v.15c-.045-.01-.085-.02-.135-.02-.164 0-.164.086-.164.241v.296h.299v.138h-.3zm1.315-1.206c0 .06-.065.106-.143.106s-.144-.046-.144-.106c0-.058.066-.105.144-.105s.143.047.143.105zm-.244 1.206h.201v-.876h-.201zm.727 0h-.202v-.738h-.123v-.138h.123V21.7h.202v.314h.211v.138h-.21zm.765-.672a.19.19 0 0 0-.161-.09c-.07 0-.146.042-.146.098 0 .08.136.11.274.152.139.043.275.105.275.252 0 .166-.181.285-.4.285-.199 0-.355-.084-.418-.221l.179-.056c.05.082.108.14.241.14.108 0 .191-.055.191-.134 0-.197-.533-.13-.533-.405 0-.148.161-.25.352-.25.136 0 .262.073.315.164zm1.281.12.43-.324h.269l-.506.373.602.503h-.267l-.476-.399-.052.04v.36h-.202v-1.537h.202zm1.168-.654c0 .06-.067.106-.145.106s-.143-.046-.143-.106c0-.058.065-.105.143-.105s.144.047.144.105zm-.245 1.206h.201v-.876h-.2zm.717-.77h.005a.45.45 0 0 1 .338-.13c.326 0 .402.176.402.38v.52h-.201v-.494c0-.141-.015-.267-.25-.267-.276 0-.294.189-.294.346v.416h-.201v-.876h.2zm1.127.323c0 .172.136.334.388.334.259 0 .395-.155.395-.332 0-.175-.15-.316-.398-.316-.234 0-.385.15-.385.314zm.772.326h-.004a.582.582 0 0 1-.408.146c-.347 0-.567-.218-.567-.46 0-.25.215-.465.57-.465a.59.59 0 0 1 .405.149h.004v-.786h.202v1.537h-.202zm.806.039c0 .058-.063.106-.141.106s-.141-.048-.141-.106c0-.056.063-.103.14-.103s.142.047.142.103M5.24 19.87h.145c.213 0 .521-.003.521-.27 0-.271-.33-.267-.54-.267H5.24zm.117-1.221c.19 0 .403-.017.403-.241 0-.24-.242-.224-.43-.224h-.09v.465zm-1.32-1.247h1.51c.69 0 1.395.15 1.395.899 0 .284-.156.563-.468.654v.025c.388.125.634.383.634.77 0 .667-.682.895-1.306.895H4.037zm3.279 0h2.617v.886H8.74v.309h1.09v.844H8.74v.317h1.234v.887H7.316zm4.455 0 .488.847h.047c.047-.103.087-.206.145-.305l.313-.542h1.789l-1.499 1.845v1.398H11.5v-1.398l-1.53-1.845z"/><path d="M15.574 19.05c0 .369.362.623.879.623.518 0 .88-.254.88-.623 0-.345-.337-.633-.88-.633-.542 0-.88.288-.88.633m3.48-.018c0 1.04-1.165 1.664-2.6 1.664-1.434 0-2.6-.623-2.6-1.664 0-1.02 1.173-1.681 2.6-1.681 1.429 0 2.6.662 2.6 1.68m8.198.641h.165c.88 0 1.557-.18 1.557-.606 0-.456-.59-.65-1.557-.65h-.165zm-2.652-2.27h2.7c2.449 0 4.326.476 4.326 1.668 0 .963-1.529 1.575-3.668 1.575h-3.358z"/><path d="M.444.381c.06 0 .162.011.162-.064C.606.268.541.259.49.259H.364v.122zm.221.284H.586L.444.447h-.08v.218H.298V.192h.206c.085 0 .168.023.168.126C.672.41.607.445.523.447zM.827.432C.827.228.657.066.46.066S.091.228.091.432a.368.368 0 0 0 .736 0zm-.802 0A.43.43 0 0 1 .46 0a.43.43 0 1 1 0 .863.43.43 0 0 1-.434-.431z" mask="url(#a)" transform="translate(31.025 17.005)"/><path d="M.485.362C.541.362.64.373.64.3.64.255.58.247.53.247H.41v.115zm.21.27H.62L.485.424H.41v.208H.346V.183h.196c.081 0 .16.022.16.119C.702.39.64.423.56.424zM.85.41a.35.35 0 0 0-.698 0 .348.348 0 1 0 .696 0zm-.76 0C.088.182.27 0 .5 0s.412.182.412.41S.73.82.5.82.088.638.088.41z" mask="url(#b)" transform="translate(31.088 20.795)"/><path d="M21.02 17.404h-1.753v3.243h1.746v-1.65l1.547 1.65h1.747v-3.243H22.56v1.681zM4.564 15.998h.41c.496 0 1.014-.148 1.014-.757 0-.604-.615-.73-1.093-.73h-.331zm0-1.914h.137c.507 0 .923-.103.923-.718 0-.603-.411-.706-.912-.706h-.148zm-.535-1.902h.524c.809 0 1.572.211 1.572 1.18 0 .312-.171.677-.461.813v.011c.506.092.859.587.859 1.088 0 .861-.734 1.203-1.492 1.203H4.029zm2.807 0h2.307v.49H7.372v1.202h1.72v.49h-1.72v1.623h1.771v.49H6.836zm3.344 3.805h.188c1.093 0 2.039-.41 2.039-1.658 0-1.253-.946-1.657-2.04-1.657h-.187zm-.536-3.805h.889c1.316 0 2.41.695 2.41 2.124 0 1.464-1.072 2.171-2.427 2.171h-.872zm5.34 3.816h.41c.496 0 1.014-.148 1.014-.757 0-.604-.615-.73-1.093-.73h-.33zm0-1.914h.137c.507 0 .923-.103.923-.718 0-.603-.41-.706-.912-.706h-.148zm-.536-1.902h.525c.808 0 1.572.211 1.572 1.18 0 .312-.17.677-.462.813v.011c.507.092.86.587.86 1.088 0 .861-.734 1.203-1.492 1.203h-1.003zm4.517.991-.763 1.737h1.526zM17.98 15.4l-.49 1.077h-.575L18.965 12l2.051 4.477h-.576l-.49-1.077zm3.982 1.077h-.535v-3.805h-1.02v-.49h2.575v.49h-1.02zm3.888-2.563v-1.732h.537v4.295h-.536v-2.062h-2.045v2.062h-.535v-4.295h.535v1.732zm3.45-.274c.216-.17.513-.347.513-.661 0-.301-.217-.466-.502-.466-.256 0-.478.182-.478.455 0 .216.131.376.256.535l.143.183zm-.233.752c-.297.205-.78.496-.78.906s.386.79.797.79c.398 0 .717-.301.985-.568l-.952-1.162zm1.321 1.504c-.325.38-.78.672-1.288.672-.717 0-1.315-.524-1.315-1.264 0-.547.342-.844.752-1.14l.267-.193c-.244-.257-.472-.576-.472-.94 0-.593.427-.94.99-.94.525 0 .992.33.992.894 0 .485-.422.809-.78 1.07l.893 1.083.502-.581.342.354-.525.615.77.95h-.66z"/></g></g></svg>