<svg width="36" height="36" fill="none" xmlns="http://www.w3.org/2000/svg"><path d="M18 0c2.837 0 5.52.656 7.907 1.825C31.884 4.753 36 10.895 36 18c0 9.942-8.058 18-18 18-9.94 0-18-8.057-18-18C0 8.06 8.06 0 18 0z" fill="#F2F4F7"/><path d="m26.253 19.56-.302-.128c-.175-.072-.278-.133-.278-.247 0-.176.158-.212.363-.212s.417.024.707.115c.036-.2.036-.387 0-.562-.181-.097-.52-.145-.816-.145-.58 0-1.021.314-1.021.785 0 .423.181.635.689.84l.236.097c.223.09.29.145.29.29 0 .218-.218.254-.4.254-.301 0-.531-.06-.821-.163a1.201 1.201 0 0 0 0 .586c.248.133.586.175.943.175.574 0 1.033-.302 1.033-.846 0-.447-.194-.659-.623-.84zm-5.36 1.033a1.061 1.061 0 0 1-.32.042c-.495 0-.689-.327-.689-.798 0-.526.194-.846.683-.846.145 0 .236.018.327.043v1.559zm0-2.816v.658a1.504 1.504 0 0 0-.392-.042c-.828 0-1.39.556-1.39 1.444 0 .907.55 1.408 1.408 1.408.393 0 .78-.054 1.124-.17v-3.909a2.237 2.237 0 0 0-.623.339.31.31 0 0 0-.126.272zm-2.9 2.852a2.06 2.06 0 0 1-.32.03c-.345 0-.532-.103-.532-.344 0-.242.188-.339.532-.339.115 0 .248.012.32.018v.635zm-.453-2.248a3.136 3.136 0 0 0-.81.09 1.32 1.32 0 0 0 0 .593c.314-.073.49-.079.69-.079.386 0 .573.157.573.477v.03a3.8 3.8 0 0 0-.35-.023c-.64 0-1.19.23-1.19.846 0 .694.495.93 1.214.93.338 0 .707-.06 1.045-.163v-1.565c0-.75-.405-1.118-1.172-1.136zm11.046 2.248c-.375 0-.622-.296-.622-.816 0-.495.199-.816.628-.816.181 0 .308.03.477.097a1.6 1.6 0 0 1 .266-.526c-.236-.12-.465-.187-.84-.187-.828 0-1.305.586-1.305 1.432 0 .876.49 1.432 1.335 1.432.309 0 .593-.054.822-.181a1.721 1.721 0 0 1-.284-.526 1.04 1.04 0 0 1-.477.09zm-5.783-1.142c.055-.333.254-.532.556-.532.338 0 .471.23.483.532h-1.039zm.568-1.106c-.81 0-1.305.544-1.305 1.45 0 .907.526 1.414 1.426 1.414.308 0 .64-.054.852-.157a1.342 1.342 0 0 0 0-.58 2.756 2.756 0 0 1-.774.127c-.416 0-.707-.157-.767-.598h1.704c.024-.067.03-.29.03-.381 0-.816-.459-1.275-1.166-1.275zm7.312 2.26c-.417 0-.544-.339-.544-.822 0-.471.127-.834.544-.834.429 0 .55.35.55.834 0 .508-.14.822-.55.822zm0-2.26c-.84 0-1.312.574-1.312 1.438 0 .876.496 1.426 1.312 1.426.846 0 1.317-.562 1.317-1.426 0-.87-.471-1.438-1.317-1.438zm-22.853.65-.512.294v1.889h.55a.098.098 0 0 0 .098-.097V19.1c0-.077-.074-.105-.136-.07zm-.743-2.701c-.38 0-.795.035-1.205.105a2.288 2.288 0 0 1 1.807-.877c.541 0 1.083.204 1.447.508.066.055.117.06.167.01.05-.05.046-.1-.01-.164A2.555 2.555 0 0 0 7.294 15a2.545 2.545 0 0 0-2.343 1.649c-.319.1-.612.219-.87.363-.071.04-.097.09-.071.15.025.054.075.074.146.054.223-.064.45-.12.689-.169-.026.125-.04.254-.04.388a2.508 2.508 0 0 0 1.163 2.152c.07.044.132.044.172-.01.04-.055.036-.105-.025-.16a2.194 2.194 0 0 1-.532-2.48 9.23 9.23 0 0 1 .78-.034c1.842 0 3.396.607 3.396 1.404 0 .403-.511.806-1.119 1.075-.147.065-.162.11-.141.175.02.06.086.08.161.054 1.063-.348 1.868-.92 1.868-1.613 0-.941-1.518-1.668-3.441-1.668zm-.393 3.427v1.394c0 .035.028.064.063.064h.388v-1.79l-.388.222a.12.12 0 0 0-.063.11zm9.462-1.34c-.356 0-.562.14-.755.387a1.913 1.913 0 0 0-.085-.357c-.072-.024-.2-.03-.308-.03-.103 0-.236.012-.302.03v2.738c.09.024.242.03.375.03.127 0 .296-.012.374-.03v-1.336c0-.532.278-.816.653-.816.066 0 .181 0 .248.013a1.58 1.58 0 0 0 .012-.605 1.08 1.08 0 0 0-.212-.024zm-3.408 2.218c-.078 0-.2 0-.284-.03V19.1a.941.941 0 0 1 .435-.085c.375 0 .574.26.574.75 0 .513-.235.87-.725.87zm.278-2.242c-.217 0-.429.048-.562.115v-1.342a2.238 2.238 0 0 0-.622.339.311.311 0 0 0-.127.272v3.311c.2.085.604.157.99.157.98 0 1.542-.598 1.542-1.462 0-.858-.4-1.39-1.22-1.39z" fill="#CC092F"/></svg>