<svg width="36" height="36" fill="none" xmlns="http://www.w3.org/2000/svg"><path d="M18 0c2.837 0 5.52.656 7.907 1.825C31.884 4.753 36 10.895 36 18c0 9.942-8.058 18-18 18-9.94 0-18-8.057-18-18C0 8.06 8.06 0 18 0z" fill="#F2F4F7"/><path fill-rule="evenodd" clip-rule="evenodd" d="m4 16.847 2.362 2.98L4 21.784v-4.937zm.95 4.937 1.778-1.487 1.229 1.487H4.95zM4 15.253l.616.78L7.151 19.2l.821-.654s-.682-.803-1.14-1.698c-.894-1.752-.26-2.842-.26-2.842H4v1.247zm3.512 4.436.837-.691s.799 1.052 1.725 1.3c1.214.325 1.751-.47 1.751-.47v1.957H9.16l.601-.52s-.314.209-1.08-.322c-.453-.314-1.168-1.254-1.168-1.254zM7.59 14s-.268.364-.078 1.253c.203.95 1.01 1.957 1.009 1.934 0 0 .052-.999.638-1.585 1.25-1.25 2.666-.506 2.666-.506v-1.09L7.59 14z" fill="#F15A23"/><path fill-rule="evenodd" clip-rule="evenodd" d="M11.825 16.413s-.79-.677-1.477-.677c-.88 0-1.359.76-1.359 1.31 0 .801.385 1.247.771 1.633.555.555 1.23 1.154 2.065.672v-2.938z" fill="#F15A23"/><path fill-rule="evenodd" clip-rule="evenodd" d="M20.825 14.082h1.865s1.652 2.5 2.464 3.534a120.457 120.457 0 0 1 1.686 2.211v-5.185c0-.224-.588-.56-.588-.56h2.15s-.706.29-.706.56v7.543s-.677-.375-1.444-1.267c-.863-1.003-3.932-5.05-3.932-5.05v5.242c0 .268.588.674.588.674h-2.083s.571-.409.571-.674v-6.468c0-.238-.57-.56-.57-.56zm8.782 0H32s-.643.304-.643.56v6.468c0 .28.643.674.643.674h-2.393s.598-.404.598-.674v-6.468c0-.246-.598-.56-.598-.56zm-15.824 0s.62.309.62.56v6.468c0 .275-.62.674-.62.674h3.546c.222 0 2.704-.405 2.704-2.319s-1.928-2.093-1.928-2.093 1.174-.326 1.174-1.636c0-1.41-1.728-1.655-1.95-1.655h-3.546zm1.884 3.163v-2.408h1.44c.222 0 .998.259.998 1.219 0 .791-.776 1.19-.997 1.19h-1.44zm0 .632h1.662c.222 0 1.53.34 1.53 1.474 0 1.157-1.308 1.567-1.53 1.567h-1.662v-3.04z" fill="#005E6A"/></svg>