<svg height="36" viewBox="0 0 36 36" width="36" xmlns="http://www.w3.org/2000/svg"><mask id="a" fill="#fff"><path d="M0 0h28v2.707H0z" fill-rule="evenodd"/></mask><g fill="none" fill-rule="evenodd"><path d="M18 0c2.837 0 5.52.656 7.907 1.825C31.884 4.753 36 10.895 36 18c0 9.942-8.058 18-18 18-9.94 0-18-8.057-18-18C0 8.06 8.06 0 18 0z" fill="#f2f4f7" fill-rule="nonzero"/><path d="M27.67.774V.66h.082c.037 0 .075.011.075.054s-.032.06-.075.06zm.189-.054c0-.054-.032-.087-.102-.087h-.12v.314h.038V.806h.065l.093.141h.043l-.098-.141c.044-.005.08-.032.08-.086zm-.124.303c-.13 0-.232-.103-.232-.233s.102-.233.232-.233.233.103.233.233c-.006.13-.103.233-.233.233zm0-.498a.265.265 0 1 0 0 .53.265.265 0 0 0 0-.53zm-1.17.709c-.465-.06-.568-.092-.568-.254 0-.211.212-.26.444-.26.32 0 .47.07.525.319h.2C27.14.72 26.94.541 26.442.541c-.444 0-.66.19-.66.455 0 .271.167.384.644.427.476.049.585.114.585.266 0 .228-.206.292-.51.292-.39 0-.535-.087-.573-.341h-.2c0 .368.287.526.774.526.482 0 .725-.185.725-.488 0-.298-.195-.379-.66-.444zM25.69.585h-.325l-.937.741V0h-.216v2.117h.216V1.57l.347-.26.682.807h.287l-.807-.948zm-2.366.351h-.006V.585H23.1v1.526h.216v-.774c0-.433.288-.58.52-.58.07 0 .13.006.2.017V.552a.685.685 0 0 0-.13-.011c-.362 0-.508.211-.584.395zm-1.408 1.045c-.411 0-.65-.26-.65-.628s.239-.628.65-.628c.412 0 .65.26.65.628 0 .362-.238.628-.65.628zm0-1.44c-.59 0-.871.384-.871.812s.28.813.87.813.873-.385.873-.813-.282-.812-.872-.812zM20.827.016l-.59 1.808h-.005L19.609.016h-.271l-.622 1.808h-.005L18.13.016h-.244l.699 2.095h.254l.623-1.787h.005l.634 1.793h.254l.71-2.096h-.24zm-4.125 1.841L16.079.585h-.238l.747 1.537-.103.211c-.07.152-.146.189-.303.189-.06 0-.108-.005-.157-.005v.184c.065.006.14.006.21.006.245 0 .337-.066.45-.309L17.52.585h-.238zm-1.89.124c-.444 0-.617-.325-.617-.628 0-.39.27-.628.618-.628.443 0 .644.314.644.628-.006.396-.287.628-.644.628zm.629-1.088h-.006a.701.701 0 0 0-.622-.352c-.575 0-.834.384-.834.812 0 .374.205.813.834.813.373 0 .568-.223.622-.353h.006v.304h.216V0h-.216zm-2.572 1.088c-.412 0-.65-.26-.65-.628s.238-.628.65-.628c.41 0 .65.26.65.628.005.362-.233.628-.65.628zm0-1.44c-.59 0-.872.384-.872.812s.282.813.872.813.87-.385.87-.813-.28-.812-.87-.812zm-1.787 1.376h-.914v-.791h.968c.255 0 .444.086.444.389-.005.287-.216.402-.498.402zM10.168.216h.936c.238 0 .41.081.41.336 0 .282-.188.373-.481.373h-.865zm1.2.785V.996a.446.446 0 0 0 .364-.45c0-.297-.173-.53-.585-.53H9.95v2.095h1.169c.325 0 .693-.162.693-.601a.497.497 0 0 0-.444-.509zm-3.415.98c-.411 0-.59-.211-.59-.433 0-.233.157-.384.487-.509l.726.688c-.184.194-.374.254-.623.254zM7.666.443c0-.151.146-.243.293-.243.238 0 .33.119.33.254 0 .152-.114.271-.37.385-.23-.233-.252-.309-.252-.396zm1.343.764h-.2c-.012.087-.05.265-.114.352L8.05.953c.217-.093.439-.239.439-.51 0-.194-.13-.427-.514-.427-.31 0-.514.178-.514.433 0 .195.113.32.265.46-.407.174-.58.336-.58.628 0 .357.26.629.796.629.336 0 .628-.12.78-.309l.276.26h.297l-.45-.423c.11-.168.164-.374.164-.487zM5.889.541c-.34 0-.567.184-.632.346h-.005V0h-.217v2.117h.217v-.829c0-.347.194-.563.622-.563.276 0 .46.109.46.406v.986h.217v-.948c0-.363-.152-.628-.661-.628zM4.3.108h-.217V.59h-.335v.162h.335v1.007c0 .249.076.379.412.379.07 0 .156-.006.238-.016v-.184a.95.95 0 0 1-.217.016c-.178 0-.216-.06-.216-.195V.752h.433V.59H4.3zm-.953 1.418c0 .314-.346.472-.64.472-.237 0-.443-.071-.443-.309 0-.185.146-.26.4-.282.439-.043.586-.054.683-.113zm.2.266V.99c0-.292-.19-.454-.704-.454-.525 0-.698.195-.731.514h.2c.017-.244.179-.336.526-.336.357 0 .509.081.509.298 0 .152-.06.179-.536.2-.336.017-.764.065-.764.477 0 .341.336.46.596.46.504 0 .65-.206.715-.304h.005c.006.119.016.272.238.272.07 0 .14-.017.184-.023v-.145c-.037.005-.075.005-.113.005-.092.006-.125-.037-.125-.162zm-2.41.125h-.92v-.791h.97c.255 0 .444.086.444.389 0 .287-.211.402-.493.402zM.217.216h.937c.239 0 .412.081.412.336 0 .282-.19.373-.482.373H.217zm1.203.785V.996a.446.446 0 0 0 .362-.45c0-.297-.173-.53-.584-.53H0v2.095h1.17c.324 0 .692-.162.692-.601.006-.265-.162-.465-.443-.509z" fill="#005699" mask="url(#a)" transform="translate(4 17)"/></g></svg>