<svg height="36" viewBox="0 0 36 36" width="36" xmlns="http://www.w3.org/2000/svg"><g fill="none" fill-rule="evenodd"><path d="M18 0c2.837 0 5.52.656 7.907 1.825C31.884 4.753 36 10.895 36 18c0 9.942-8.058 18-18 18-9.94 0-18-8.057-18-18C0 8.06 8.06 0 18 0z" fill="#f2f4f7" fill-rule="nonzero"/><path d="M9.559 8 6 28.228h20.451L30 8z" fill="#008854"/><path d="M10.486 23.656c0 .295-.119.633-.46.823.16.11.28.31.28.59 0 .642-.486 1.046-1.114 1.046-1.032 0-1.418-.005-1.418-.005l.581-3.24h1.237c.552 0 .894.3.894.786m-1.67 1.108-.128.695h.471c.228 0 .352-.2.352-.404 0-.124-.057-.29-.219-.29zm.22-1.24-.12.65h.434c.265 0 .337-.275.337-.39 0-.11-.042-.26-.2-.26zm5.808.46c.038-.305-.052-.494-.276-.494a.364.364 0 0 0-.31.151c-.085.11-.161.386-.246.857a4.52 4.52 0 0 0-.062.628c0 .204.09.38.295.38.224 0 .37-.185.428-.494h.813c-.152.842-.666 1.174-1.285 1.174-.75 0-1.05-.499-1.05-.989 0-.133.009-.414.057-.7.09-.522.218-1.012.475-1.298.257-.285.6-.39.923-.39.647 0 1.042.39 1.042 1.018 0 .061 0 .11-.005.157zm3.363 2.126h-.832l.223-1.284h-.856l-.228 1.284h-.819l.567-3.225h.817l-.222 1.242h.856l.223-1.242h.828zm3.097-2.525h-.737l-.438 2.525h-.847l.453-2.525h-.766l.119-.7h2.335zm1.823 2.525h-1.942l.576-3.225h.842l-.457 2.526h1.099zm2.844-2.54h-1.266l-.11.571h1.086l-.12.685h-1.08l-.108.6h1.28l-.114.684h-2.08l.571-3.225h2.055zm-12.925 0H11.78l-.11.571h1.084l-.118.685h-1.08l-.11.6h1.28l-.114.684h-2.079l.571-3.225h2.055z" fill="#fff"/></g></svg>