<svg width="36" height="36" fill="none" xmlns="http://www.w3.org/2000/svg"><path d="M18 0c2.837 0 5.52.656 7.907 1.825C31.884 4.753 36 10.895 36 18c0 9.942-8.058 18-18 18-9.94 0-18-8.057-18-18C0 8.06 8.06 0 18 0z" fill="#F2F4F7"/><path d="M4 19.693h1.631c.384 0 1.278-.088 1.278-.913v-.01c0-.402-.196-.77-.652-.865l-.24-.037.21-.063c.394-.168.468-.478.468-.81v-.011a.725.725 0 0 0-.216-.538c-.196-.196-.508-.3-.903-.3H4v3.547zm1.637-.33H4.398v-1.307h1.189c.826 0 .915.45.915.643v.01c0 .41-.326.654-.865.654zm-.197-1.61H4.395v-1.275H5.49c.59 0 .8.318.8.619v.01c0 .407-.317.646-.85.646zm2.594 1.94h2.411v-.346H8.443V16.15h-.41v3.544zm3.311-3.544v2.06c0 .997.53 1.544 1.49 1.544.959 0 1.504-.56 1.504-1.576v-2.028h-.407v2.06c0 .747-.406 1.193-1.088 1.193s-1.095-.456-1.095-1.22v-2.034h-.404zm10.263-.066c-1.061 0-1.864.79-1.864 1.839v.01c0 1.041.796 1.827 1.857 1.827 1.062 0 1.865-.79 1.865-1.838v-.011c-.004-1.041-.801-1.827-1.858-1.827zm0 3.325c-.796 0-1.427-.653-1.427-1.486v-.011c0-.841.61-1.476 1.416-1.476.807 0 1.427.653 1.427 1.487v.01c0 .841-.609 1.476-1.416 1.476zm5.417.285h.465l-.989-1.382.177-.052c.375-.108.817-.372.817-1.03v-.01a1.02 1.02 0 0 0-.278-.73c-.227-.222-.576-.341-1.005-.341h-1.566v3.545h.406v-1.327h1.037l.936 1.327zm-.863-1.657h-1.11v-1.542h1.105c.577 0 .921.285.921.763v.01c0 .46-.369.77-.916.77zm5.42 1.657H32l-1.56-3.572h-.448l-1.562 3.572h.398l.392-.919h1.975l.387.92zm-.519-1.249h-1.71l.851-1.991.86 1.991zm.21-2.282h-.077v-.044h.202v.044h-.076v.203h-.048l-.001-.203zm.177-.044h.051l.075.118.075-.118h.05v.247h-.048v-.177l-.077.12h-.005l-.074-.12v.177h-.046l-.001-.247z" fill="#231F20"/><path d="M18.592 18.753c-.322.287-.627.453-1.078.453-.072 0-.142-.008-.212-.023a1.704 1.704 0 0 0 1-.53l-.01-.009c-.31.266-.662.322-1.1.354-.115.007-.232 0-.346-.021a1.395 1.395 0 0 1-.544-1.077v-.01c0-.72.51-1.297 1.212-1.297.42 0 .736.184 1.102.498l.415-.478c-.476-.363-.834-.613-1.511-.613.361.065.69.25.935.525a1.72 1.72 0 0 0-1.069-.429h-.01a1.82 1.82 0 0 0-.884.17 1.884 1.884 0 0 0-.992 1.618.985.985 0 0 1-.052-.308c0-.327.075-.813.322-1.112a1.555 1.555 0 0 0-.49 1.25v.01c.02.309.132.605.32.852.2.611.677.988 1.264 1.14a1.755 1.755 0 0 1-.66-.663c.098.044.2.079.305.103.343.414.87.62 1.497.52.354-.055.698-.276.973-.53l.006-.006-.393-.387zm-2.574-.166a1.994 1.994 0 0 1-.047-.252v-.01a1.83 1.83 0 0 1 .442-1.455 1.85 1.85 0 0 0-.305 1.283v.01c.022.203.074.402.153.59a1.961 1.961 0 0 1-.243-.168v.002z" fill="#0096D6"/></svg>