<svg width="36" height="36" fill="none" xmlns="http://www.w3.org/2000/svg"><path d="M18 0c2.837 0 5.52.656 7.907 1.825C31.884 4.753 36 10.895 36 18c0 9.942-8.058 18-18 18-9.94 0-18-8.057-18-18C0 8.06 8.06 0 18 0z" fill="#F2F4F7"/><path d="M32 21.499V15.01H4v6.49h28z" fill="#CD0067"/><path d="M22.872 20.873a.364.364 0 0 0 .185.048c.248 0 .404-.16.404-.413 0-.23-.133-.384-.323-.384a.575.575 0 0 0-.199.045l.116-.206a.811.811 0 0 1 .122-.01c.307 0 .508.211.508.534 0 .36-.251.599-.666.599-.093 0-.212-.014-.358-.04v-1.575h.21v1.402zm1.854-.675v-.237a2.326 2.326 0 0 0-.278-.027c-.35 0-.617.258-.617.587 0 .32.265.562.642.562a.501.501 0 0 0 .275-.076l.073-.182a.733.733 0 0 1-.31.08.418.418 0 0 1-.431-.429c0-.226.14-.38.357-.38.083 0 .18.035.288.102zm.536 1.312h-.211v-1.547h.206v.156a.529.529 0 0 1 .921.364.587.587 0 0 1-.227.483.53.53 0 0 1-.33.108.753.753 0 0 1-.169-.02l-.133-.194c.09.04.167.061.237.061.24 0 .386-.147.386-.402 0-.248-.156-.416-.36-.416a.338.338 0 0 0-.232.09c-.083.077-.088.186-.088.337v.98zm-13.36-5.389c0-.156-.119-.293-.274-.293-.15 0-.296.114-.296.28 0 .174.127.311.296.311.155 0 .274-.142.274-.298zm-.467.582.002.52v1.13c0 .218-.004.525-.004.525h.418v-2.175h-.416zm1.089-.939s.003.308.003.526v2.064l.001.526h.436s-.006-.308-.006-.526v-2.59h-.434zm1.074-.004s.003.308.003.525v2.065l.001.525h.436s-.006-.308-.006-.525v-2.591h-.434zm-4.681 2.313-.884-2.075c-.276-.638-.663-.898-.97-.972-.138-.047-.536-.015-.536-.015s.3.015.465.14c.23.15.373.502.31.979l-.28 2.074a31.17 31.17 0 0 1-.113.673h.402s.025-.32.063-.607l.268-2.023.894 2.122c.113.263.179.39.414.569l1.054-2.696.268 2.268c.015.16.027.367.027.367h.522s-.046-.273-.074-.494l-.31-2.31c-.01-.108-.022-.292-.022-.292h-.646v.005a.824.824 0 0 1-.071.292l-.78 1.995z" fill="#fff"/><path fill-rule="evenodd" clip-rule="evenodd" d="M16.766 17.694c.019-.61-.422-1.075-1.065-1.075-.706 0-1.184.479-1.184 1.137s.554 1.164 1.359 1.164a1.7 1.7 0 0 0 .653-.118l.237-.445h-.014a1.25 1.25 0 0 1-.777.25c-.535 0-.937-.335-.947-.913h1.738zm-1.719-.274c.057-.299.294-.488.611-.488.34 0 .559.156.61.488h-1.22z" fill="#fff"/><path d="M22.661 16.124c0-.157-.119-.294-.274-.294-.15 0-.297.114-.297.28 0 .174.128.312.297.312.155 0 .274-.142.274-.298zm-.467.581.002.52v1.131c0 .217-.004.525-.004.525h.418v-2.175h-.416zm-5.031-.003s.005.307.005.525v1.653h.434s-.003-.303-.003-.521v-.838c0-.28.07-.569.501-.569s.573.26.573.767v1.161h.434s-.003-.302-.003-.52v-.687c0-.222.014-.516-.118-.705-.152-.223-.455-.327-.72-.327-.308 0-.502.137-.667.365V16.7l-.332.002h-.104zm7.525-.007v1.26c0 .364-.227.62-.539.62-.412 0-.535-.27-.535-.706v-1.174h-.435s.004.308.004.526v.729c0 .667.265.985.824.985.331 0 .511-.11.682-.37v.308h.43v-2.177h-.431zm-5.067.005s.004.307.004.525v1.652h.435s-.004-.303-.004-.52v-.838c0-.28.071-.569.502-.569s.573.26.573.767v1.16h.434s-.003-.303-.003-.52v-.687c0-.223.014-.516-.118-.706-.152-.222-.455-.326-.72-.326-.308 0-.502.137-.668.364v-.305l-.331.002h-.104zm6.106 0s.004.304.004.522v1.131l-.002.525h.433V17.63c0-.455.175-.677.535-.677.294 0 .54.25.54.748v1.178h.43v-1.211c0-.445.12-.715.545-.715.38 0 .53.307.53.79v.611c0 .218-.004.525-.004.525h.437l-.001-.525v-.729c0-.601-.176-.985-.848-.985-.35 0-.573.156-.758.412-.175-.28-.402-.412-.738-.412-.317 0-.502.119-.668.374v-.311l-.307-.001h-.128zM4 19.347v.127h28v-.127H4z" fill="#fff"/></svg>