<svg width="36" height="36" fill="none" xmlns="http://www.w3.org/2000/svg"><path d="M18 0c2.837 0 5.52.656 7.907 1.825C31.884 4.753 36 10.895 36 18c0 9.942-8.058 18-18 18-9.94 0-18-8.057-18-18C0 8.06 8.06 0 18 0z" fill="#F2F4F7"/><path d="m22.54 25.66-.006-.006.085-.155.008.005a.656.656 0 0 0 .41.117c.09 0 .166-.007.219-.029.052-.021.08-.055.08-.115a.13.13 0 0 0-.014-.066c-.026-.043-.114-.058-.256-.057-.284 0-.323-.013-.379-.04a.252.252 0 0 1-.137-.232c0-.238.24-.309.433-.309.178 0 .33.04.486.125l.007.005-.083.16-.008-.005a.703.703 0 0 0-.398-.108.44.44 0 0 0-.18.029c-.042.02-.063.049-.064.092 0 .021.004.043.015.06.021.032.08.049.266.048.13 0 .253.006.346.043.093.038.155.11.155.238 0 .138-.06.224-.147.274a.65.65 0 0 1-.316.065c-.177 0-.353-.014-.522-.14zm-3.141.11h-.877v-.968h.857v.179h-.67v.2h.39v.179h-.39v.23h.69v.17m-9.599.01h-.876v-.968h.857v.179h-.67v.2h.39v.179h-.39v.23h.69v.17m2.666.01h-.876v-.968h.857v.179h-.67v.2h.39v.179h-.39v.23h.69v.17m5.552.01h-.187v-.648l-.342.51-.007.01-.007-.01-.34-.51v.648h-.188v-.968h.184l.002.004.349.535.353-.535.002-.005h.182v.96m-3.414-.808c-.188 0-.392.105-.392.335 0 .228.192.33.382.33.192 0 .397-.105.397-.335 0-.228-.194-.33-.386-.33zm-.012.848c-.275 0-.554-.176-.554-.51v-.027c0-.324.286-.494.568-.494.278 0 .56.176.56.511 0 .341-.289.52-.574.52zm-6.881-.209h.352c.192 0 .316-.121.316-.308 0-.194-.115-.305-.316-.305h-.352v.613zm.352.18h-.532V24.8h.532c.297 0 .496.194.496.482 0 .298-.195.49-.496.49zm2.686 0h-.169l-.002-.005-.498-.955-.006-.012h.204l.002.004.387.745.39-.745.002-.004h.204l-.007.012-.504.955m2.965.005h-.761V24.8h.18v.792h.582v.171m2.062-.518h.362c.177 0 .218-.024.218-.13 0-.102-.049-.136-.2-.136h-.38v.267zm0 .527h-.18V24.8h.593c.12 0 .147.008.206.043.085.05.14.158.14.273a.308.308 0 0 1-.098.235c-.081.071-.129.074-.3.074h-.36v.338m5.018.009h-.175l-.002-.004-.582-.69v.694h-.18V24.8h.177l.003.003.58.69V24.8h.18v.963m1.011.009h-.18v-.793h-.362v-.18h.911v.18h-.369v.784m3.096-.518h.361c.178 0 .218-.024.218-.13 0-.102-.048-.136-.2-.136h-.38v.267zm0 .527h-.18V24.8h.593c.12 0 .147.008.205.043.086.05.14.158.14.273a.308.308 0 0 1-.098.235c-.08.071-.128.074-.299.074h-.361v.338m1.883.009h-.762V24.8h.18v.792h.582v.17m.877.04c-.29 0-.603-.16-.603-.514 0-.34.291-.519.58-.519.18 0 .348.061.5.18l.007.006-.004.006-.087.137-.005.007-.007-.005c-.14-.097-.245-.15-.402-.15-.2 0-.402.116-.402.338 0 .23.21.332.42.332.15 0 .276-.04.41-.132l.008-.006.004.009.072.15.003.006-.006.004a.81.81 0 0 1-.487.15zm-13.812-4.145h.837c.24 0 .346-.007.447-.077a.44.44 0 0 0 .17-.357c0-.39-.35-.449-.558-.449h-.896v.883zm1.924 1.528h-.458l-.007-.01-.735-1.12h-.724v1.13h-.398v-2.808h1.104c.443 0 .579.015.796.156.212.14.35.409.35.686a.867.867 0 0 1-.299.659.741.741 0 0 1-.38.166l.729 1.106m1.94-1.493h.837c.239 0 .346-.007.446-.077a.44.44 0 0 0 .17-.357c0-.39-.35-.449-.558-.449H17.7v.883zm1.923 1.528h-.458l-.006-.01-.735-1.12H17.7v1.13h-.398v-2.808h1.103c.443 0 .58.015.796.156.213.14.35.409.35.686a.867.867 0 0 1-.299.659.74.74 0 0 1-.38.166l.729 1.106m5.927.06h-.398V20.8h-.999v-.398h2.398v.398h-1.002v2.387m3.471.023H28.6V20.8h-.999v-.398H30v.397h-1.002v2.388M6.405 21.576h.962c.228 0 .5-.07.5-.405a.361.361 0 0 0-.233-.341.721.721 0 0 0-.248-.03h-.981v.776zm0 1.236h.962c.33 0 .407-.032.491-.101a.361.361 0 0 0 .136-.296c0-.293-.21-.441-.627-.441h-.962v.838zm.962.398H6v-2.808h1.367c.556 0 .9.301.9.787 0 .23-.07.391-.242.552.24.163.367.397.367.678a.783.783 0 0 1-.27.591c-.203.181-.386.2-.755.2zm2.995-1.254h.876l-.434-1.035-.442 1.035zm1.8 1.254h-.398l-.006-.013-.36-.847h-1.213l-.347.847-.005.013h-.4l.015-.032 1.184-2.763.006-.013h.34l.005.013 1.165 2.763m9.502-1.222h.877l-.434-1.035-.443 1.035zm1.8 1.254h-.398l-.005-.013-.36-.847h-1.214l-.347.847-.005.013h-.399l.014-.033 1.185-2.762.006-.013h.34l.005.013 1.165 2.763M14.08 15.78a4.184 4.184 0 1 1 7.737-3.19 4.184 4.184 0 0 1-7.736 3.19z" fill="#31562D"/><path d="m17.674 16.398.077-.02.046-.005.095.005.058-.018.074-.027.12-.031.038-.026.02-.002.07.019.4.039.07-.003.08-.004.05-.013.02-.02.001-.006-.012-.01-.099-.015-.166-.023-.111-.028-.025-.012-.037-.039h-.018l-.02.005-.02-.006-.02-.017-.034-.054-.017-.042-.01-.065.004-.107.008-.08.023-.116.017-.045.037-.063.05-.065.033-.03.009-.002.016.008.019.02.048.014.047.028.064.05.05.025.152.05.012.013.014.049.013.012.035.003.032-.006.049-.015.031.005.05.027.171.042.033-.002.125-.039.08-.008.02-.003.034.003.02-.006.016-.022.015-.002.035.017.02-.002.027-.024.016-.023.031-.018.03-.046.006-.02.024-.013.012-.026.006-.002.038.014.02-.003.025-.023.041-.002.034-.017.027-.023.039.006.016-.01.027-.049.06-.04.02-.031.02-.054.015-.049-.004-.028-.014-.026.005-.075-.016-.047-.046-.042-.07-.031-.1-.013-.08-.01-.052-.004-.053.002-.063-.014-.032-.019-.004-.007.002-.007.016-.01.06-.002.077.011.047.017.02-.002.02-.02.015-.021.025-.025.033-.081.007-.043-.008-.03-.027-.037-.018-.02-.003-.016.003-.044-.015-.033-.041-.06-.038-.025-.031-.033-.002-.01.003-.007.009-.004.02.003.035.017.01.015.007.019.007.005.026-.004.047-.017.017.006.02.019.056.02.032-.004.02-.018.023-.027.072-.041.03-.02h.033l.066.022.02-.005.01-.027.012-.076.03-.046.017-.008.017.004.036.03.008.001.014-.01.003-.021-.02-.058.003-.019.016-.034.018-.007.024-.002.014-.01.008-.031-.01-.04-.017-.02-.02-.02v-.006l.017-.006.055.008.017-.008.011-.04-.004-.03-.016-.059-.03-.07-.031-.033-.007-.029-.005-.043-.015-.023-.038-.025-.053-.01-.017-.033-.005-.02.01-.03.025-.05.011-.039v-.036l-.01-.028-.012-.014-.03-.006-.239-.002h-.034l-.033.02-.022-.002-.022-.016-.002-.007.026-.023.003-.027-.01-.034-.005-.021.008-.03.029-.035.05-.05.1-.163.016-.049.002-.032-.015-.05-.023-.027-.024-.014-.033-.003-.03.008-.02-.006-.014-.024-.014-.062-.015-.009-.02.006-.015.008-.017-.003-.015-.011-.014-.024-.02-.006h-.037l-.01-.003-.005-.007.01-.061.025-.05.04-.062.017-.046-.002-.03-.04-.07-.005-.015-.023-.015-.032-.004-.073.014-.09.024-.043.006-.01-.003-.004-.007.001-.018.017-.02.03-.022.01-.016-.004-.03-.041-.072-.018-.074-.047-.042-.043-.045-.048-.015-.01-.016-.01-.078-.026-.048-.069-.083-.038-.025-.04-.01-.06.001-.15.039-.026.011-.07.068-.02.006-.033-.005-.057-.032-.056-.019-.029-.021h-.018l-.05.029-.02.001-.056-.02-.055.009-.04-.01-.031-.008-.048.003-.066.021-.03.01-.019-.005-.009-.017-.007-.097-.02-.03-.027-.012-.052-.002-.024-.014-.024-.027-.033-.017-.042-.003-.033-.001-.037-.013-.058-.005-.067.009-.122.029-.059.003-.04-.01-.033-.017-.018.003-.056.032-.083.07-.045.017-.079.022-.057.031-.017.02-.017.058-.032.044-.071.068-.025.026-.049.014-.012.013-.004.02.008.018.023.028.017.033.016.01.035-.002.035-.002.01.003.005.006-.004.017-.024.027-.065.037-.036.039-.007.004-.03-.007-.018.007-.067.071-.013.025-.002.047.008.018.015.01.058.018.01.003.004.008-.007.014-.026.026-.011.027.004.019.02.018.058.03.011.014.002.02-.02.033-.045.03-.049.015-.03.002-.044-.031-.029-.022-.034-.004-.034-.003-.088-.026-.038-.012-.02.005-.014.011-.003.02.013.021-.031.009-.024.026-.03.009-.046-.005-.067-.02-.018.006-.03.034-.037.063-.03.033-.048.027-.052.012-.061.002-.013.012-.014.023-.047.03-.048.052-.03.046-.005.032-.004.009-.02.005-.064-.013-.02.006-.014.023-.001.018.008.027-.041.071-.035.091-.004.043.011.09-.003.035-.028.048-.037.038-.074.078-.012.026v.02l.009.017.054.034.032.007.028-.01.026-.038.028-.06.024-.039.006-.005.015.003.024.014.046.005.069-.008.021-.016.017-.022.018-.005.034.003.025-.013.04-.035.038-.013.05-.014h.011l.007.006.006.063-.094.056-.068.057-.02.018-.045.006-.045.03-.03.034-.005.02.008.018.018.02-.001.015-.048.092-.001.022.01.028.016.01h.04l.034.005.021-.004.05-.04.02-.001.025.013.03.034.031.043.026.012.036.001.049-.014.092-.034.03-.003.026.01.025.013.02.003.178-.025h.045l.006.005.002.007-.01.014-.04.037-.033.016-.065.01-.04.012-.032-.005-.014-.01-.01-.029-.006-.006-.021-.005-.031.008-.03.008-.095.018-.05.025-.044.044-.012.026-.002.035.003.022-.009.015-.045.018-.063.012-.032.018-.041.047-.04.049-.038.026-.008.017.005.019.03.033.02.018.001.008-.003.007-.043.02-.028.023-.01.017v.04l-.007.005-.045.006-.02.018-.022.004-.03-.008-.028-.024-.019-.018-.028-.01-.035.004-.018.003-.027-.011-.026-.013-.01.001-.008.005-.017.06-.045.068-.01.027-.027.024-.023.04-.001.022.007.019.032.018.005.007-.007.041.004.034.012.014.018.005h.019l.001.002-.048.014-.013.012-.01.045-.002.035-.01.017-.044.018-.035.015-.016.023-.001.04-.023.04-.004.022.006.02.017.009.033-.004.021-.005.011.002.008.005v.008l-.018.008-.043.008-.01.016-.012.024-.076.101-.02.044-.005.058.006.032.016.01.032-.003.031.02.021-.004.04-.035.014-.013.008-.002.015.01.014.01h.03l.015-.01.014-.024.019-.002.041.002.03-.006.008.001.01.015.01.04.012.014.034.004.047-.005.02.005.02.018.024.04.023.014.052.012.067.008.03-.006.007.002.003.007-.018.058v.02l.013.014.022.001.025-.013.02-.018.067-.01.05-.025.017-.008.038.005.055-.02.072-.004.035-.015.06.002h.048l.013-.012.014-.036.028-.048.01-.015.005-.033.005-.008.02-.005.03.006.012.012-.004.015-.026.038-.016.036v.008l.005.007.055.009.024.013.025.038.02.03.02.006.032-.006.057-.02.092.008.085-.015.075-.014.018.006.015.023.02.005.067-.023.055-.032.062-.052.021-.042.002-.07.004-.008.007-.006.069-.007.033.005.015.01v.009l-.046.068-.033.03-.034.016-.013.025v.008l.013.01.057.005.043-.007.045-.018.043-.02.094-.007.032-.018.029-.022.026-.007.027.01.031.032.01.04-.001.08-.015.137.003.082.013.086-.012.051-.028.048-.043.045-.062.038-.049.013-.129.006-.108.031-.118.02-.046.017-.023.016-.005.008v.008l.005.007.044.008.157-.005.06.002.076.01zm.617-.939-.015-.01-.015-.039.001-.023.012-.026.05-.04h.02l.02.02.007.018-.005.031-.018.032-.04.036-.017.001zm1.37-1.032-.032-.007-.024-.014-.058-.018-.074-.016-.007-.005v-.007l.018-.018.018-.007.056.002.047-.003.072.017.035.016.005.007-.005.015-.031.033-.02.005zm-2.208-1.597-.056-.024-.053-.01-.015-.012v-.006l.006-.005.034-.005.022-.016.024-.026.029-.008.03.007.037.026.046.004.034.005.015.009.003.006-.012.01-.108.032" fill="#fff"/></svg>