<svg width="36" height="36" fill="none" xmlns="http://www.w3.org/2000/svg"><path d="M18 0c2.837 0 5.52.656 7.907 1.825C31.884 4.753 36 10.895 36 18c0 9.942-8.058 18-18 18-9.94 0-18-8.057-18-18C0 8.06 8.06 0 18 0z" fill="#F2F4F7"/><path d="M7.291 19.366c-.394 0-.65-.192-.65-.65V16h.586v2.62c0 .139.032.234.234.234h.096v.48c-.128.02-.149.032-.266.032zm1.949-1.832a.477.477 0 0 0-.362-.15.519.519 0 0 0-.362.15c-.139.149-.17.383-.17.607 0 .223.031.447.17.607a.476.476 0 0 0 .362.149c.16 0 .287-.064.362-.15.139-.148.17-.372.17-.607 0-.234-.031-.457-.17-.607zm.48 1.49c-.171.203-.48.373-.842.373s-.671-.17-.841-.372c-.182-.224-.277-.48-.277-.884 0-.405.096-.66.277-.884.17-.203.479-.373.84-.373.363 0 .672.17.842.373.181.223.277.479.277.883 0 .395-.096.65-.277.884zm2.055-1.49a.477.477 0 0 0-.362-.15.519.519 0 0 0-.362.15c-.139.149-.17.383-.17.607 0 .223.031.447.17.607a.476.476 0 0 0 .362.149c.16 0 .287-.064.362-.15.138-.148.17-.372.17-.607 0-.234-.032-.457-.17-.607zm.48 1.49c-.171.203-.48.373-.842.373s-.671-.17-.842-.372c-.18-.224-.277-.48-.277-.884 0-.405.096-.66.277-.884.17-.203.48-.373.842-.373s.67.17.841.373c.181.223.277.479.277.883 0 .395-.096.65-.277.884zm3.482.309v-1.49c0-.299-.075-.47-.373-.47-.33 0-.469.341-.469.65v1.31h-.575v-1.49c0-.299-.074-.47-.373-.47-.33 0-.479.341-.479.65v1.31h-.575v-2.396h.48l.042.32c.128-.224.362-.373.682-.373.34 0 .564.149.681.394.139-.245.405-.394.724-.394.512 0 .778.34.778.841v1.619l-.543-.01z" fill="#3E3E3E"/><path d="M18.335 17.48c-.074-.085-.202-.138-.362-.138a.52.52 0 0 0-.404.18.604.604 0 0 0-.128.374h1.033a.609.609 0 0 0-.139-.416zm.714.83h-1.598a.636.636 0 0 0 .17.47.541.541 0 0 0 .352.149c.17 0 .267-.032.352-.117a.425.425 0 0 0 .117-.203h.554c-.01.139-.107.33-.202.447-.203.245-.501.341-.81.341-.33 0-.564-.117-.756-.298-.245-.234-.373-.564-.373-.959 0-.383.117-.724.34-.958a1.05 1.05 0 0 1 .768-.298c.351 0 .681.138.873.447.17.266.213.533.202.83.022-.01.011.107.011.15zm1.917 1.024v-1.47c0-.277-.096-.447-.394-.447-.202 0-.34.127-.415.309-.085.191-.075.436-.075.639v.98h-.575v-2.408h.48l.042.31c.138-.256.426-.373.703-.373.511 0 .81.362.81.852v1.597h-.576v.01zm2.471-1.854c-.074-.085-.202-.138-.362-.138a.52.52 0 0 0-.405.18.604.604 0 0 0-.128.374h1.034c0-.181-.043-.32-.139-.416zm.714.83h-1.608c0 .182.063.363.17.47a.536.536 0 0 0 .351.149c.17 0 .267-.032.352-.117a.424.424 0 0 0 .117-.203h.554c-.01.139-.107.33-.203.447-.202.245-.5.341-.809.341-.33 0-.564-.117-.756-.298-.235-.234-.373-.564-.373-.959 0-.383.117-.724.34-.958a1.05 1.05 0 0 1 .768-.298c.351 0 .681.138.873.447.17.266.213.533.213.83.021-.01.01.107.01.15zm1.65-.862c-.404 0-.617.288-.617.682v1.204h-.586v-2.397h.49l.053.362c.107-.277.394-.394.682-.394.064 0 .117.01.18.01v.555a1.312 1.312 0 0 0-.202-.022zm1.374-.138c-.266 0-.426.192-.426.447 0 .256.16.447.426.447.267 0 .426-.18.426-.447 0-.255-.16-.447-.426-.447zm.107 2.055h-.448a.292.292 0 0 0-.212.299c0 .308.372.33.607.33.234 0 .639-.01.639-.33-.011-.299-.373-.299-.586-.299zm-.043 1.087c-.287 0-.596-.022-.852-.203-.18-.127-.287-.298-.287-.521a.54.54 0 0 1 .287-.49.486.486 0 0 1-.234-.416c0-.202.096-.362.287-.479a.794.794 0 0 1-.234-.586c0-.575.447-.884.98-.884.202 0 .383.053.543.15a.523.523 0 0 1 .49-.299.92.92 0 0 1 .16.01v.448h-.043c-.138 0-.255.043-.287.15a.84.84 0 0 1 .127.436c0 .543-.457.873-.98.873-.138 0-.266-.021-.383-.064-.053.032-.117.096-.117.17 0 .14.138.182.266.182h.394c.245 0 .554 0 .778.16.202.138.287.34.287.575-.02.617-.65.788-1.182.788zm2.737-.714c-.117.31-.32.597-.735.597-.191 0-.319-.032-.447-.064v-.48c.15.033.192.043.32.043.106 0 .213-.032.277-.18l.138-.33-.948-2.397h.629l.628 1.736.596-1.736h.586l-1.044 2.811z" fill="#3DAE2B"/><path d="M5.086 18.854c-.287 0-.5-.17-.522-.479v-.49h.47c.297 0 .564.15.564.49 0 .298-.224.48-.512.48zm0-2.332c.256 0 .437.192.437.426 0 .298-.181.437-.5.437h-.47v-.852l.532-.011zm.575 1.097a.75.75 0 0 0 .47-.692c0-.554-.448-.916-1.034-.916H4v2.364c.01.597.49.99 1.086.99.607 0 1.097-.34 1.097-.98 0-.34-.191-.67-.522-.766z" fill="#3E3E3E"/><path d="M31.691 17.118c-.01-.01-.032-.01-.053-.01h-.022v.106h.043c.021 0 .043 0 .053-.01.011-.011.022-.022.022-.043a.046.046 0 0 0-.043-.043zm-.181.298v-.372h.181c.032 0 .053.01.075.02.032.022.053.054.053.086 0 .032-.01.053-.021.064a.15.15 0 0 1-.064.021.08.08 0 0 1 .053.022c.021.02.032.042.032.085v.063h-.096c0-.01 0-.031-.01-.053 0-.02 0-.042-.011-.042 0-.01-.01-.021-.032-.032-.01 0-.022-.01-.032-.01h-.042v.127h-.086v.021zm-.043-.383a.267.267 0 0 0-.085.192c0 .074.032.149.085.202a.267.267 0 0 0 .192.085.267.267 0 0 0 .192-.085.273.273 0 0 0 .085-.202.267.267 0 0 0-.085-.192.267.267 0 0 0-.192-.085.267.267 0 0 0-.192.085zm.427.437a.33.33 0 0 1-.235.096.313.313 0 0 1-.234-.096.33.33 0 0 1-.096-.235.31.31 0 0 1 .107-.245.313.313 0 0 1 .234-.095c.096 0 .17.032.234.095a.33.33 0 0 1 .096.235.309.309 0 0 1-.107.245z" fill="#3DAE2B"/></svg>