<svg width="36" height="36" fill="none" xmlns="http://www.w3.org/2000/svg"><path d="M18 0c2.837 0 5.52.656 7.907 1.825C31.884 4.753 36 10.895 36 18c0 9.942-8.058 18-18 18-9.94 0-18-8.057-18-18C0 8.06 8.06 0 18 0z" fill="#F2F4F7"/><path d="M18 9.4V5l3.667 2.2L18 9.4zm-3.667 2.2V7.2L18 9.4l-3.667 2.2zm-3.666 2.2V9.4l3.666 2.2-3.666 2.2zM7 16v-4.4l3.667 2.2L7 16z" fill="#09A255"/><path d="M7 20.4V16l3.667 2.2L7 20.4z" fill="#09974F"/><path d="M7 24.8v-4.4l3.667 2.2L7 24.8z" fill="#098C49"/><path d="M10.667 27v-4.4l3.666 2.2-3.666 2.2z" fill="#087F42"/><path d="M14.333 29.2v-4.4L18 27l-3.667 2.2z" fill="#07733B"/><path d="M18 31.4V27l3.667 2.2L18 31.4zm3.667-2.2v-4.4l3.666 2.2-3.666 2.2zm3.666-2.2v-4.4L29 24.8 25.333 27z" fill="#056634"/><path d="M18 27v-4.4l3.667 2.2L18 27zm3.667-2.2v-4.4l3.666 2.2-3.666 2.2z" fill="#07733B"/><path d="M21.667 16v-4.4l3.666 2.2-3.666 2.2z" fill="#098C49"/><path d="M21.667 11.6V7.2l3.666 2.2-3.666 2.2zM18 13.8V9.4l3.667 2.2L18 13.8z" fill="#09974F"/><path d="M21.667 20.4V16l3.666 2.2-3.666 2.2z" fill="#087F42"/><path d="M25.333 22.6v-4.4L29 20.4l-3.667 2.2z" fill="#07733B"/><path d="M25.333 18.2v-4.4L29 16l-3.667 2.2z" fill="#087F42"/><path d="M25.333 13.8V9.4L29 11.6l-3.667 2.2z" fill="#098C49"/><path d="M18 9.4V5l-3.667 2.2L18 9.4zm-3.667 2.2V7.2l-3.666 2.2 3.666 2.2zm-3.666 2.2V9.4L7 11.6l3.667 2.2z" fill="#46B270"/><path d="M10.667 18.2v-4.4L7 16l3.667 2.2z" fill="#1CA75E"/><path d="M10.667 22.6v-4.4L7 20.4l3.667 2.2z" fill="#009E4E"/><path d="M10.667 27v-4.4L7 24.8l3.667 2.2z" fill="#009640"/><path d="M14.333 29.2v-4.4L10.667 27l3.666 2.2z" fill="#008D3D"/><path d="M18 31.4V27l-3.667 2.2L18 31.4zm3.667-2.2v-4.4L18 27l3.667 2.2zm3.666-2.2v-4.4l-3.666 2.2 3.666 2.2zM29 24.8v-4.4l-3.667 2.2L29 24.8z" fill="#007C38"/><path d="M29 20.4V16l-3.667 2.2L29 20.4z" fill="#008D3D"/><path d="M29 16v-4.4l-3.667 2.2L29 16z" fill="#009640"/><path d="M18 27v-4.4l-3.667 2.2L18 27zm3.667-2.2v-4.4L18 22.6l3.667 2.2z" fill="#008D3D"/><path d="M21.667 20.4V16L18 18.2l3.667 2.2z" fill="#009640"/><path d="M21.667 16v-4.4L18 13.8l3.667 2.2z" fill="#009E4E"/><path d="M18 13.8V9.4l-3.667 2.2L18 13.8zm3.667-2.2V7.2L18 9.4l3.667 2.2z" fill="#1CA75E"/><path d="M25.333 18.2v-4.4L21.667 16l3.666 2.2z" fill="#009640"/><path d="M25.333 22.6v-4.4l-3.666 2.2 3.666 2.2z" fill="#008D3D"/><path d="M25.333 13.8V9.4l-3.666 2.2 3.666 2.2z" fill="#009E4E"/></svg>