<svg width="36" height="36" fill="none" xmlns="http://www.w3.org/2000/svg"><path d="M18 0c2.837 0 5.52.656 7.907 1.825C31.884 4.753 36 10.895 36 18c0 9.942-8.058 18-18 18-9.94 0-18-8.057-18-18C0 8.06 8.06 0 18 0z" fill="#F2F4F7"/><path d="M22.535 18.227H21.25v-1.112h-.348v2.552h.348V18.56h1.285v1.106h.348v-2.552h-.348v1.112zm1.698-.667c-.636 0-1.034.427-1.034 1.077v.043c0 .635.345 1.04 1.023 1.04.506 0 .854-.24.973-.663h-.377c-.08.24-.284.369-.582.369-.423 0-.667-.248-.692-.668h1.68v-.164c0-.553-.316-1.034-.991-1.034zm-.686.923c.043-.399.295-.64.69-.64.394 0 .61.252.64.64h-1.33zm2.961-.923c-.58 0-.93.316-.961.761h.348c.021-.287.23-.488.628-.488.369 0 .531.154.531.369 0 .19-.201.226-.56.276-.413.061-.581.1-.746.208a.56.56 0 0 0-.265.49c0 .33.23.545.67.545.457 0 .773-.248.916-.564l.04.51h.28l.003-1.41c0-.41-.273-.697-.884-.697zm.55 1.138c0 .345-.327.747-.797.747-.27 0-.406-.123-.406-.313 0-.118.047-.204.15-.273.112-.075.252-.107.565-.158.222-.036.395-.075.488-.154v.151zm.772-.373v1.342h.347V17h-.348v1.325zm1.353-1.207h-.266a2.272 2.272 0 0 1-.032.327c-.027.129-.053.158-.169.172-.053.015-.19.015-.255.015v.294h.395v.947c0 .61.151.794.7.794h.234v-.327h-.155c-.366 0-.452-.075-.452-.517v-.896h.606v-.31h-.606v-.499zm2.031.442a.773.773 0 0 0-.743.47V17h-.334v2.667h.334V18.59c0-.424.226-.725.617-.725.402 0 .564.262.564.635v1.167H32v-1.253c0-.52-.262-.854-.786-.854z" fill="#00A1E4"/><path d="M5.872 18.325c.237-.093.366-.264.366-.563v-.003c0-.448-.327-.67-1.085-.67H4v2.553h1.235c.716 0 1.071-.246 1.071-.744 0-.316-.153-.488-.434-.573zm-1.164-.683h.448c.264 0 .367.06.367.216v.004c0 .16-.118.225-.36.225h-.455v-.445zm.85 1.177c0 .16-.095.237-.437.237h-.413v-.474h.42c.324 0 .43.064.43.231v.006zm1.72-1.729-.985 2.552h.74l.154-.445h.957l.16.445h.74l-.997-2.552h-.769zm.1 1.555.28-.815.29.815h-.57zm3.159-.21c0 .434-.114.58-.391.58-.27 0-.403-.157-.403-.58V17.09h-.747v1.367c0 .864.37 1.245 1.15 1.245.726 0 1.142-.377 1.142-1.245V17.09h-.751v1.345zm2.346-.37c-.402-.057-.598-.093-.598-.26 0-.125.096-.217.343-.217.273 0 .409.085.434.299v.003h.736v-.003c-.057-.577-.445-.858-1.157-.858-.705 0-1.082.33-1.082.811 0 .545.406.69.908.765.423.057.644.092.644.281 0 .146-.118.231-.374.231-.299 0-.456-.117-.477-.349v-.01h-.772v.003c.043.613.356.94 1.22.94.752 0 1.129-.343 1.129-.854 0-.551-.427-.708-.954-.782zm2.887.523c-.029.292-.168.46-.48.46-.34 0-.514-.196-.514-.602V18.3c0-.424.179-.623.517-.623.306 0 .448.157.474.434v.025h.776v-.053c-.05-.709-.523-1.047-1.25-1.047-.762 0-1.26.424-1.26 1.235v.203c0 .833.463 1.228 1.239 1.228.775 0 1.231-.36 1.28-1.103v-.044h-.782v.033zm3.374-.552v-.946h-.715v.946h-.88v-.946h-.722v2.552h.722v-.936h.88v.936h.715v-.936h.879v-.67h-.88z" fill="#494C4F"/><path d="M19.144 18.036h-.715v.67h.715v-.67z" fill="#00A1E4"/></svg>