<svg width="36" height="36" fill="none" xmlns="http://www.w3.org/2000/svg"><path d="M18 0c2.837 0 5.52.656 7.907 1.825C31.884 4.753 36 10.895 36 18c0 9.942-8.058 18-18 18-9.94 0-18-8.057-18-18C0 8.06 8.06 0 18 0z" fill="#F2F4F7"/><path d="M6.307 15.105c1.314 0 2.14.488 2.14 1.565a1.26 1.26 0 0 1-.818 1.197c.516.174.94.657.94 1.266 0 1.085-.77 1.617-2.125 1.617H4v-5.645h2.307zm-1.182.992v1.319h1.153c.56 0 .996-.117.996-.665 0-.533-.443-.654-1-.654H5.125zm0 2.307v1.354l1.262.004c.621 0 1.012-.145 1.012-.685 0-.528-.39-.673-1.012-.673H5.125zm5.507-3.299v.845a.28.28 0 0 1-.28.28h-.845v4.52h1.125V16.5a.28.28 0 0 1 .28-.271h.845v-1.125h-1.125zm6.752 1.161-.968.593a1.69 1.69 0 0 0-1.46-.778c-1.024 0-1.782.75-1.782 1.846.004 1.134.786 1.847 1.782 1.847.626 0 1.134-.282 1.472-.774l.92.661c-.5.735-1.351 1.195-2.383 1.195-1.738 0-2.965-1.23-2.965-2.929C12 16.23 13.227 15 14.965 15c1.04 0 1.96.476 2.42 1.266zm6.419 1.661c0 1.686-1.23 2.928-2.968 2.928s-2.964-1.242-2.964-2.928c0-1.685 1.226-2.927 2.964-2.927s2.968 1.242 2.968 2.927zm-4.759 0c0 1.097.754 1.847 1.79 1.847 1.04 0 1.791-.75 1.791-1.847s-.75-1.846-1.79-1.846c-1.037 0-1.79.75-1.79 1.846zm9.582-.558v1.125h-.845a.28.28 0 0 0-.28.28v.844h-.844a.28.28 0 0 0-.28.28v.845h-1.125v-1.125h.845a.28.28 0 0 0 .28-.28v-.844h.844a.28.28 0 0 0 .28-.28v-.565a.28.28 0 0 0-.28-.28h-.844v-.845a.28.28 0 0 0-.28-.28h-.845V15.12h1.125v.844a.28.28 0 0 0 .28.28h.845v.845a.28.28 0 0 0 .28.28h.844zm3.374 0v1.125h-.845a.28.28 0 0 0-.28.28v.844h-.845a.28.28 0 0 0-.28.28v.845h-1.124v-1.125h.845a.28.28 0 0 0 .28-.28v-.844h.845a.28.28 0 0 0 .28-.28v-.565a.28.28 0 0 0-.28-.28h-.845v-.845a.28.28 0 0 0-.28-.28h-.845V15.12h1.125v.844a.28.28 0 0 0 .28.28h.844v.845a.28.28 0 0 0 .28.28H32z" fill="#000"/></svg>