<svg width="36" height="36" fill="none" xmlns="http://www.w3.org/2000/svg"><path d="M18 0c2.837 0 5.52.656 7.907 1.825C31.884 4.753 36 10.895 36 18c0 9.942-8.058 18-18 18-9.94 0-18-8.057-18-18C0 8.06 8.06 0 18 0z" fill="#F2F4F7"/><path d="M14.275 18.813a1.259 1.259 0 0 0-.09-.242.901.901 0 0 0-.14-.208.906.906 0 0 0-.153-.14.691.691 0 0 0 .18-.27c.045-.113.068-.243.068-.378 0-.14-.023-.27-.073-.394a.984.984 0 0 0-.518-.529.97.97 0 0 0-.383-.078h-1.508c-.078 0-.118.045-.118.123v3.292c0 .08.045.124.118.124h1.66a.954.954 0 0 0 .698-.31c.09-.095.158-.208.208-.331.05-.124.079-.26.079-.4a1.3 1.3 0 0 0-.028-.259zm-1.998-1.615h.71c.061 0 .117.012.174.029.05.016.095.044.13.078a.403.403 0 0 1 .084.124c.022.05.028.101.028.163 0 .124-.04.22-.113.287a.459.459 0 0 1-.31.107h-.708l.005-.788zm1.3 2.026a.546.546 0 0 1-.09.158.483.483 0 0 1-.146.112.484.484 0 0 1-.203.045h-.917v-1.013h.906a.4.4 0 0 1 .18.04.548.548 0 0 1 .259.276.51.51 0 0 1 .04.208.627.627 0 0 1-.029.174zm2.453.89h-.495c-.079 0-.123-.045-.123-.124v-3.286c0-.08.044-.13.123-.13h.495c.08 0 .124.045.124.13v3.28c0 .085-.045.13-.123.13zm3.062.045c-.253 0-.49-.045-.71-.141a1.871 1.871 0 0 1-.579-.388 1.888 1.888 0 0 1-.394-.58 1.778 1.778 0 0 1-.146-.709c0-.169.022-.332.062-.484a2.27 2.27 0 0 1 .18-.433 2 2 0 0 1 .281-.366c.113-.107.237-.202.366-.281a1.904 1.904 0 0 1 .917-.248 1.691 1.691 0 0 1 1.064.36c.034.029.056.057.056.085a.129.129 0 0 1-.023.079l-.275.4a.11.11 0 0 1-.073.044.135.135 0 0 1-.102-.022 1.247 1.247 0 0 0-.292-.164.978.978 0 0 0-.343-.061c-.158 0-.304.028-.44.084a1.075 1.075 0 0 0-.348.23 1.102 1.102 0 0 0-.315.782 1.129 1.129 0 0 0 .67 1.042c.134.062.28.09.433.084.084 0 .18-.011.27-.04a.745.745 0 0 0 .236-.106v-.704c0-.078.045-.123.124-.123h.416c.028 0 .05.011.079.022.028.017.045.05.045.101v1.058a.269.269 0 0 1-.011.068.158.158 0 0 1-.051.056c-.073.05-.146.096-.23.135-.085.045-.175.079-.265.113a1.57 1.57 0 0 1-.293.073 1.374 1.374 0 0 1-.31.034zm5.013-1.346a1.252 1.252 0 0 0-.09-.242.901.901 0 0 0-.14-.208.902.902 0 0 0-.152-.14.69.69 0 0 0 .18-.27c.045-.113.067-.243.067-.378 0-.14-.028-.27-.073-.394a.984.984 0 0 0-.518-.529.97.97 0 0 0-.382-.078h-1.508c-.079 0-.118.045-.118.123v3.292c0 .08.045.124.118.124h1.665a.953.953 0 0 0 .698-.31c.09-.095.158-.208.208-.331.051-.124.08-.26.08-.4a1.905 1.905 0 0 0-.035-.259zm-2.06-1.67h.772a.526.526 0 0 1 .343.123.38.38 0 0 1 .096.146.495.495 0 0 1 .033.186.42.42 0 0 1-.135.332.497.497 0 0 1-.349.124h-.765l.006-.912zm1.363 2.081a.548.548 0 0 1-.09.158.465.465 0 0 1-.349.158h-.917v-1.014h.905a.4.4 0 0 1 .18.04.546.546 0 0 1 .259.276c.028.061.04.134.04.208a.627.627 0 0 1-.028.174zm4.287.89h-2.33c-.078 0-.117-.045-.117-.124v-3.292c0-.079.045-.124.118-.124h2.284c.08 0 .124.045.124.124v.456c0 .079-.045.124-.124.124h-1.665v.647h1.26c.04 0 .073.011.096.028.028.022.04.05.04.096v.444c0 .045-.018.124-.136.124h-1.26v.799h1.71c.08 0 .13.045.13.124v.45c0 .079-.05.124-.13.124zm4.175 0h-.495a.178.178 0 0 1-.09-.023.227.227 0 0 1-.073-.073l-1.558-2.296v2.268c0 .079-.046.124-.13.124h-.467c-.079 0-.118-.045-.118-.124v-3.292c0-.028.011-.056.028-.084.011-.017.04-.04.09-.04h.546c.062 0 .118.034.163.101l1.514 2.184v-2.161c0-.034.01-.062.028-.084a.126.126 0 0 1 .096-.04h.466c.029 0 .057.011.085.034a.117.117 0 0 1 .045.09v3.286c0 .085-.05.13-.13.13zM6.34 16A2.339 2.339 0 0 0 4 18.34a2.34 2.34 0 0 0 2.34 2.342 2.34 2.34 0 0 0 2.342-2.341A2.339 2.339 0 0 0 6.34 16zm.367 4.102a1.758 1.758 0 0 1-1.756-1.756c0-.967.788-1.755 1.756-1.755a1.754 1.754 0 1 1 0 3.511z" fill="#000"/><path d="M6.223 19.348a.996.996 0 1 0 0-1.992.996.996 0 0 0 0 1.992z" fill="#000"/></svg>