<svg width="36" height="36" fill="none" xmlns="http://www.w3.org/2000/svg"><path d="M18 0c2.837 0 5.52.656 7.907 1.825C31.884 4.753 36 10.895 36 18c0 9.942-8.058 18-18 18-9.94 0-18-8.057-18-18C0 8.06 8.06 0 18 0z" fill="#F2F4F7"/><path d="M16.819 13.134h-1.31v6.642h1.31v-6.642zm3.629 3.913h2.802c0 .863-.66 1.578-1.935 1.578-.682 0-1.23-.203-1.647-.613-.414-.406-.62-.925-.62-1.55 0-.631.202-1.154.612-1.571.407-.414.93-.62 1.561-.62.392 0 .748.086 1.067.257.32.17.559.392.715.664l1.118-.646a3.132 3.132 0 0 0-1.194-1.125A3.486 3.486 0 0 0 21.228 13c-.987 0-1.814.334-2.482 1.005-.668.672-1.002 1.488-1.002 2.457 0 .962.338 1.775 1.01 2.443.674.668 1.523 1.002 2.547 1.002 1.93 0 3.263-1.213 3.263-3.503v-.511h-4.116v1.154zm7.436-1.158v1.158h2.802c0 .863-.66 1.578-1.934 1.578-.682 0-1.23-.203-1.648-.613-.414-.406-.62-.925-.62-1.55 0-.631.203-1.154.613-1.571.406-.414.929-.62 1.56-.62.392 0 .748.086 1.067.257.32.17.56.392.715.664l1.118-.646a3.132 3.132 0 0 0-1.194-1.125A3.486 3.486 0 0 0 28.665 13c-.988 0-1.815.334-2.483 1.005-.668.672-1.002 1.488-1.002 2.457 0 .962.338 1.775 1.01 2.443.674.668 1.524 1.002 2.547 1.002 1.931 0 3.263-1.213 3.263-3.503v-.511h-4.116v-.004z" fill="#212666"/><path d="M5.223 13.134H4v1.223h1.223v-1.223z" fill="#FF9800"/><path d="M6.486 15.816H5.263v1.165h1.223v-1.165z" fill="#46C7E5"/><path d="M7.753 18.55H6.53v1.222h1.223V18.55z" fill="#E91E63"/><path d="M9.212 13.134H6.446v1.223h2.766v-1.223z" fill="#FF9800"/><path d="M13.78 16.332c.418-.334.629-.777.629-1.329 0-.544-.196-.99-.585-1.342-.388-.352-.867-.527-1.437-.527h-1.949v1.223h1.949c.21 0 .381.07.512.21.134.139.2.313.2.524a.72.72 0 0 1-.204.522.684.684 0 0 1-.508.21h-1.949v-1.466H9.215v1.463H7.713v1.169h1.502v2.787h3.372c.58 0 1.07-.182 1.47-.54.399-.36.599-.821.599-1.387 0-.679-.294-1.183-.875-1.517zm-.645 1.996a.738.738 0 0 1-.552.221h-2.148v-1.564h2.152c.221 0 .403.073.552.221a.764.764 0 0 1 .217.556.795.795 0 0 1-.221.566zm-2.685 3.597a.675.675 0 0 1-.68.696h-.558v-1.397h.559a.68.68 0 0 1 .678.7zm-.31 0c0-.24-.152-.392-.37-.392h-.239v.784h.24c.221 0 .37-.153.37-.392zm3.376-.697v1.397h-.32v-1.397h.32zm4.188.737c0 .428-.297.685-.69.685-.438 0-.754-.323-.754-.725 0-.407.323-.73.733-.73.269 0 .494.13.61.32l-.273.155a.404.404 0 0 0-.34-.163.4.4 0 0 0-.41.418c0 .235.166.41.438.41.185 0 .309-.084.356-.215H17v-.279h.704v.123zm3.066-.737v1.397h-.319v-1.397h.32zm3.743.305h-.36v1.088h-.319v-1.088h-.36v-.309h1.039v.309zm3.426.871h-.52l-.068.217h-.349l.476-1.397h.406l.476 1.397h-.349l-.072-.217zm-.098-.298-.164-.512-.163.512h.327zm4.021.211v.308h-.816v-1.397h.319v1.089h.497z" fill="#212666"/></svg>