<svg height="36" viewBox="0 0 36 36" width="36" xmlns="http://www.w3.org/2000/svg"><mask id="a" fill="#fff"><path d="M0 0h28v12.799H0z" fill-rule="evenodd"/></mask><g fill="none" fill-rule="evenodd"><path d="M18 0c2.837 0 5.52.656 7.907 1.825C31.884 4.753 36 10.895 36 18c0 9.942-8.058 18-18 18-9.94 0-18-8.057-18-18C0 8.06 8.06 0 18 0z" fill="#f2f4f7" fill-rule="nonzero"/><path d="M19.823 10.193c.038-.037.025-.062-.013-.087l-.3-.125a18.627 18.627 0 0 0-1.587-.6l-.076-.026c-.024-.012-.05 0-.087.013l.3 2.163a.11.11 0 0 0 .075-.025c.488-.35.975-.712 1.463-1.1zM3.856 11.544c.187-.113.512-.338.963-.688.45-.362.725-.6.837-.725-.675-.3-1.375-.563-2.1-.8zm18.08-2.2c.262.211.35.5.275.836a1.606 1.606 0 0 1-.375.726c-.3.338-.65.6-1.038.812-.75.413-1.55.701-2.4.851-.463.088-.926.162-1.388.2-.263.025-.551.037-.838.025h-.338c-.074.012-.112-.025-.112-.1-.025-.35-.05-.7-.088-1.05l-.2-2.138-.213-1.864-.262-2.1a16.5 16.5 0 0 0-.15-1.1l-.225-1.4c-.1-.663-.225-1.326-.363-1.989l-.012-.088c-.025-.062 0-.112.062-.125.613-.25 1.213-.524 1.826-.762.163-.063.362-.137.35.012-.05.463-.038.926-.05 1.376-.012.375-.012.75.012 1.113v.287c0 .451.013.901.05 1.338.026.588.063 1.188.113 1.775l.112 1.264c.013.237.038.462.076.7 0 .137.024.125.137.112.225-.037.45-.05.676-.05.787.013 1.55.137 2.3.35.512.138 1 .325 1.475.575.213.113.4.25.588.413zm-14.092.112c.2.237.238.5.15.787a1.574 1.574 0 0 1-.412.713c-.325.338-.7.613-1.113.825a7.505 7.505 0 0 1-2.238.775 13.02 13.02 0 0 1-1.688.226c-.175.012-.35.012-.525.012h-.375c-.1 0-.125-.025-.138-.125l-.087-1.213-.238-2.388-.262-2.275L.767 5.58.605 4.417C.517 3.78.405 3.141.292 2.504A33.246 33.246 0 0 0 .005.965C-.008.903.005.853.067.84L1.805.115c.113-.05.213-.087.325-.112.075-.013.113.012.1.087 0 .2 0 .4-.012.613l-.013.162a66.555 66.555 0 0 0 0 2.19c.013.637.05 1.286.088 1.924.062 1 .162 2.001.262 2.988 0 .101.013.101.125.088.213-.037.413-.05.625-.05a7.94 7.94 0 0 1 1.964.238c.562.138 1.1.325 1.637.562.263.125.5.276.726.451.087.062.15.125.212.2zm19.094-4.264c.012.237.012.487 0 .725.012.113-.013.137-.125.137l-.351.038c-.062.012-.1-.025-.1-.087a25.29 25.29 0 0 0-.062-.95l-.05-.876c-.013-.063.012-.088.062-.088l.5-.037c.088 0 .1.013.1.113.026.337.038.687.026 1.025zm-14.18.2c0 .2-.012.388-.024.563 0 .062-.026.087-.088.1l-.388.037c-.062.012-.087-.025-.087-.087a7.91 7.91 0 0 1-.05-.55c-.026-.338-.05-.689-.063-1.038l-.025-.25c-.012-.05.013-.076.062-.076l.513-.037c.088 0 .113.013.113.113zm8.878-1.35c.187-.038.388-.063.588-.088.062-.012.087.025.099.088l.1.687c.05.338.088.675.1 1.013v.1c.013.05-.012.087-.062.1l-.4.088c-.062.012-.088-.013-.1-.075l-.325-1.864zM8.332 5.755c.012.15 0 .174-.15.187l-.3.075c-.1.037-.113.013-.125-.075L7.444 4.18c-.037-.112-.012-.137.1-.15l.438-.075c.1-.012.125-.012.125.088.038.212.075.424.1.637l.125 1zm19.58-.675v.862c0 .112-.012.125-.124.125l-.475-.025c-.075-.012-.113-.05-.1-.113l-.038-1.787c0-.1.013-.113.113-.113.162 0 .312.013.462.025.188.013.163.05.163.187zM13.71 5.067v.862c.012.138-.013.138-.125.138-.163 0-.313-.013-.463-.025-.1-.012-.112-.012-.1-.113l-.037-1.062c0-.237 0-.475-.013-.713-.012-.112 0-.125.112-.125.176 0 .35.013.526.038.1 0 .1.024.1.125zm-4.99-1.25c.1 0 .2.012.288.024.05.013.075.038.088.101l.05.437.125 1.363c.012.1.012.112-.088.112l-.487.026c-.1.012-.113 0-.125-.1l-.113-1-.1-.838c-.013-.063.013-.1.075-.1a1.99 1.99 0 0 1 .287-.025zm14.167 0c.125 0 .238.012.326.024.062.013.087.038.099.101l.163 1.737c.037.151.013.175-.137.175l-.426.026c-.087.012-.125.025-.125-.113l-.175-1.413-.05-.4c-.012-.075.012-.113.088-.125zM28 10.431v1.537c0 .063-.025.101-.087.088h-.45c-.175 0-.35.013-.513.026-.1.012-.112 0-.125-.114l-.263-2.925-.137-1.45-.05-.738c-.012-.1.012-.125.113-.125a5.227 5.227 0 0 1 1.25-.013c.162.013.188.063.2.225l.037 1.663zm-14.191-.075v1.601c.012.074-.025.112-.1.1h-.301c-.212 0-.424.012-.637.025-.113.012-.125.012-.138-.125l-.2-2.25-.1-1.115-.15-1.7c-.012-.137.013-.162.125-.175.35-.038.7-.038 1.05-.025l.263.038c.1.037.113.05.113.15l.037.675.013.75c.012.688.025 1.364.025 2.051zM9.032 6.48c.338-.013.375.025.413.337.087.513.15 1.013.2 1.525l.162 1.501.1 1.013.088.813c0 .112-.012.137-.112.15l-.926.087c-.1.013-.125 0-.137-.1L8.057 7.88l-.2-1.113c-.013-.062.012-.099.075-.112.388-.088.75-.15 1.1-.175zm14.217 0c.313 0 .35.012.4.313.063.375.112.75.15 1.125l.138 1.213.262 2.576c.013.062 0 .087-.063.087l-.975.112c-.1.013-.125 0-.137-.1L22.46 8.93l-.35-1.913-.05-.262c-.012-.05.012-.087.063-.1.387-.088.762-.15 1.125-.175zm-12.58-5.039h.226c.113 0 .138.037.138.15l.1 1.513.225 3.138.137 1.638.1 1.263.2 2.176c0 .1-.012.112-.112.112l-.9-.038c-.063.013-.1-.024-.1-.087l-.038-.437c-.037-.375-.075-.75-.1-1.138l-.2-1.976-.212-1.788-.15-1.262-.163-1.15a68.44 68.44 0 0 0-.25-1.55l-.062-.352c-.013-.062 0-.087.062-.1.35-.062.688-.125 1.1-.112zM26 11.431c-.124 0-.237 0-.337-.012-.213-.013-.425-.026-.637-.026-.138 0-.138 0-.151-.137l-.2-2.276-.2-1.888-.137-1.163-.125-1.012-.225-1.576a27.042 27.042 0 0 0-.275-1.675c-.013-.088-.013-.1.087-.113a6.276 6.276 0 0 1 1.188-.112h.137c.063.012.1.05.113.125l.05.862.35 4.664.175 2.138.113 1.226z" fill="#07a3d7" mask="url(#a)" transform="translate(4 12)"/></g></svg>