<svg height="36" viewBox="0 0 36 36" width="36" xmlns="http://www.w3.org/2000/svg"><mask id="a" fill="#fff"><path d="M0 0h3.665v4.321H0z" fill-rule="evenodd"/></mask><mask id="b" fill="#fff"><path d="M0 18.873h24V0H0z" fill-rule="evenodd"/></mask><g fill="none" fill-rule="evenodd"><path d="M18 0c2.837 0 5.52.656 7.907 1.825C31.884 4.753 36 10.895 36 18c0 9.942-8.058 18-18 18-9.94 0-18-8.057-18-18C0 8.06 8.06 0 18 0z" fill="#f2f4f7" fill-rule="nonzero"/><g fill="#00f"><path d="M29.23 17.474c.294 0 .57.102.77.238v-.668c-.151-.076-.484-.17-.913-.17-1.053 0-1.488.638-1.488 1.446v3.763h1.05v-2.854h.74v-.604h-.74v-.471c.003-.39.215-.68.581-.68m-4.11 4.73c.996 0 1.924-.578 1.917-2.148-.008-1.578-.846-2.182-1.918-2.175-1.027.004-1.933.597-1.933 2.175.008 1.574.94 2.148 1.933 2.148m-.007-3.723c.566-.003.808.5.82 1.575.01 1.06-.232 1.54-.82 1.54-.59 0-.816-.48-.816-1.54 0-1.11.227-1.57.816-1.575M12.72 21.796c.022.098.056.227.07.287h.99c-.05-.162-.095-.472-.095-.857v-2.038c0-1.2-.895-1.31-1.68-1.31-1.336 0-1.698.725-1.698 1.272h.959c0-.468.359-.71.751-.71.325 0 .62.147.62.673v.256c-.164.049-.903.219-1.24.298-.761.181-1.294.563-1.29 1.348.004.777.532 1.185 1.317 1.185.718 0 1.163-.314 1.295-.404m-1.529-.88c0-.476.457-.716.922-.85.185-.052.392-.1.532-.135v1.28a1.38 1.38 0 0 1-.835.302c-.393 0-.615-.197-.619-.596m1.23 2.638c-1.064 0-1.92.672-1.924 2.106-.004 1.665.871 2.212 1.925 2.212.83 0 1.639-.366 1.857-1.498l-1.09-.004c-.065.536-.257.899-.764.899-.633-.004-.815-.552-.815-1.435h2.718c.004-.06.004-.117.004-.177 0-1.439-.88-2.103-1.91-2.103m-.804 1.732c.053-.482.196-1.132.804-1.135.604 0 .763.63.793 1.135"/><path d="M3.574 1.309C3.574.109 2.68 0 1.895 0 .558 0 .192.723.192 1.271h.963c0-.468.359-.709.751-.709.324 0 .62.147.62.671v.258c-.164.048-.903.218-1.235.298C.525 1.969-.004 2.35 0 3.136c.003.778.532 1.186 1.32 1.186.71 0 1.156-.317 1.284-.408.023.097.057.227.072.287h.99c-.05-.162-.092-.472-.092-.857zM2.525 3.333c-.132.12-.468.301-.83.301-.393 0-.616-.196-.616-.593 0-.475.457-.716.917-.848.189-.053.393-.102.53-.137z" mask="url(#a)" transform="translate(16.524 23.552)"/><path d="M9.714 20.61c0-.924-.826-1.29-1.362-1.317.54-.116 1.098-.396 1.098-1.17 0-.8-.642-1.129-1.355-1.129H6.004v5.093h1.865c1 0 1.845-.476 1.845-1.476zm-2.578-3.049h.287c.483 0 .887.15.887.713 0 .559-.344.785-.89.789h-.284zm.374 3.948h-.374v-1.872h.374c.577 0 .989.272.996.898.004.627-.309.974-.996.974z"/><path d="M8.905 18.756h1.049v-5.091h-1.05zm1.906-8.274v2.605h1.042v-2.658c0-.66-.114-1.544-1.291-1.544-.551 0-1.023.31-1.181.408v-.306H8.338v4.095h1.043V9.935c.165-.132.464-.351.796-.351.513 0 .634.301.634.898m1.695-2.492v5.092h1.049V7.991m3.462 6.564c-.552 0-1.023.31-1.182.408v-.306h-1.042v4.095h1.042v-3.147c.166-.133.464-.352.797-.352.51 0 .634.302.634.899v2.604h1.041V16.1c-.003-.658-.116-1.545-1.29-1.545m4.583.378a1.508 1.508 0 0 0-1.047-.378c-.63 0-1.683.36-1.687 2.14-.004 1.703.834 2.183 1.624 2.179.622-.004 1.068-.393 1.11-.43v.309h1.05v-5.088H21.6zm0 2.85c-.076.132-.412.449-.764.449-.464 0-.86-.26-.86-1.54.004-1.224.419-1.499.853-1.499.37 0 .672.272.77.437zm-6.961-7.195 1.325-1.597-.899-.004-1.51 1.797 1.174 2.299h1.291M0 18.756h1.136v-5.091H0zm2.96-3.566v-.53H1.91v4.093h1.05v-2.34c0-1.005.875-1.068 1.377-1.046v-.797c-.804-.094-1.287.392-1.377.62m8.327-8.943h.075c.068-.925 3.447-.834 3.447-1.793V3.65h-.076c0 .004 0 .019-.004.037-.109.748-3.367.831-3.367 1.646h-.075c0-.815-3.258-.902-3.367-1.646-.005-.018-.005-.033-.005-.037H7.84v.804c0 .959 3.379.868 3.447 1.793" mask="url(#b)" transform="translate(6 9)"/><path d="M11.287 4.424h.075c.068-.925 3.447-.835 3.447-1.793v-.804h-.076c0 .004 0 .018-.004.037-.109.748-3.367.83-3.367 1.646h-.075c0-.815-3.258-.903-3.367-1.646-.005-.019-.005-.033-.005-.037H7.84v.804c0 .958 3.379.868 3.447 1.793" mask="url(#b)" transform="translate(6 9)"/><path d="M11.287 2.596h.075c.068-.924 3.447-.834 3.447-1.793V0h-.076c0 .005 0 .02-.004.038-.109.747-3.367.83-3.367 1.647h-.075C11.287.868 8.029.78 7.92.037c-.005-.019-.005-.033-.005-.038H7.84v.804c0 .963 3.379.873 3.447 1.793" mask="url(#b)" transform="translate(6 9)"/></g></g></svg>