<svg height="36" viewBox="0 0 36 36" width="36" xmlns="http://www.w3.org/2000/svg"><mask id="a" fill="#fff"><path d="M0 0h15.445v9.442H0z" fill-rule="evenodd"/></mask><g fill="none" fill-rule="evenodd"><path d="M18 0c2.837 0 5.52.656 7.907 1.825C31.884 4.753 36 10.895 36 18c0 9.942-8.058 18-18 18-9.94 0-18-8.057-18-18C0 8.06 8.06 0 18 0z" fill="#f2f4f7" fill-rule="nonzero"/><path d="m3.795 8.471-.21-.042c-.005 0-.014-.005-.02 0-.008.004-.013.028-.018.037 0 .005-.004.01-.004.014-.005.01 0 .02.009.024.019.004.028-.038.075-.029.019.005.014.015.009.03l-.047.227c0 .01-.004.024-.014.024H3.57c-.005.004-.01.004-.014.014-.005.013.009.018.018.018l.08.014c.009 0 .018 0 .023-.014 0-.009 0-.014-.005-.018l-.004-.005c-.01-.009-.005-.019 0-.028l.046-.229c.005-.018.005-.028.024-.023.047.01.037.051.056.051.009 0 .019-.004.019-.014v-.014c0-.009.004-.033 0-.042 0 .01-.015.01-.02.005zm-.248.224c-.01 0-.018.02-.023.028-.014.023-.028.028-.056.033-.056.01-.061.004-.07-.047l-.014-.084.06-.009c.029-.005.029.014.043.01.018 0 .009-.029.009-.043s-.005-.033-.018-.033c-.015 0-.005.02-.038.024l-.061.01-.014-.09c0-.004.005-.014.01-.014.004-.005.023-.009.032-.009.014 0 .033-.005.042 0 .014 0 .019.004.029.014.004.005.013.014.023.01.009 0 .014-.015.009-.024a.168.168 0 0 0-.014-.047c-.005-.004-.018-.004-.023-.004l-.192.028c-.01 0-.018.004-.018.018 0 .01.005.01.014.014h.004c.01.005.01.014.01.024l.032.233c0 .01.005.023-.004.028l-.005.005c-.004.004-.01.01-.01.018 0 .014.015.014.024.014l.2-.028c.019-.004.024-.004.024-.028 0-.014.005-.032.005-.046.005 0-.005-.005-.01-.005zm2.479-.663c-.01-.004-.02-.004-.02.005-.003.01 0 .023.006.033.009.027 0 .037-.014.06-.033.042-.037.047-.075.02l-.065-.048.033-.047c.013-.023.028-.009.032-.023.01-.014-.014-.028-.023-.033-.01-.004-.028-.018-.033-.004-.01.01.01.018-.005.042l-.032.046-.07-.046c-.005-.005-.005-.009-.005-.014 0-.01.01-.024.014-.028.005-.009.019-.024.024-.033.009-.009.018-.009.027-.009.01 0 .019 0 .024-.009.005-.01 0-.019-.01-.024-.01-.005-.032-.018-.041-.018-.01 0-.015.01-.02.013l-.102.15c-.004.01-.01.018 0 .023.005.005.01.005.019 0h.004c.01-.005.019.005.024.01l.182.125c.009.005.019.01.019.02v.004c0 .004 0 .01.004.014.01.004.019 0 .023-.01l.108-.158c.009-.014.009-.019-.005-.033 0-.005-.014-.019-.023-.028zm-.467.383c.028-.028.056-.075.019-.117-.028-.028-.056-.023-.08-.004-.004.004-.014.018-.014.028 0 .01.01.018.015.027zm.234-.014c.004 0 .009-.005.018.005s0 .018-.004.023l-.056.051c-.005.005-.02.014-.028.005-.01-.01.004-.019-.005-.028-.014-.019-.084-.042-.108-.047l-.023.033.056.061c.005.01.014.013.024.013h.004c.005 0 .01 0 .019.005.009.01.004.02-.005.024l-.056.051c-.004.004-.014.01-.023 0-.005-.005-.005-.009-.005-.019v-.004c.005-.01-.005-.015-.014-.024l-.15-.159a.026.026 0 0 0-.022-.013H5.41c-.005 0-.01 0-.02-.005-.008-.009-.004-.019.006-.024l.103-.093c.013-.014.032-.033.055-.037a.092.092 0 0 1 .075.023c.028.033.028.07.019.107a.295.295 0 0 1 .117.047c.009.005.013.01.028.005zm-.365.3h-.004c-.01 0-.014-.01-.02-.02l-.115-.187c-.005-.009-.015-.014-.01-.023v-.005c0-.004.005-.009 0-.018-.005-.01-.02-.01-.023-.005l-.065.037c-.01.005-.015.014-.01.024.005.01.01.01.014.01H5.2c.009 0 .014.008.018.018l.117.186c.005.01.014.02.009.024v.004c0 .005-.004.01 0 .02.005.008.019.008.024.004l.065-.038c.009-.004.014-.014.009-.023-.004-.009-.01-.009-.014-.009zm-.36-.08-.003-.015c0-.009.004-.014.009-.018.004-.005.004-.01.004-.019-.004-.014-.023-.005-.028-.005l-.032.014c-.01.005-.024.01-.02.023.006.01.01.01.015.01s.014 0 .019.005c.004.004.004.01.009.014l.056.14-.08-.06c-.032-.025-.074-.062-.107-.08-.013-.01-.013-.005-.028 0l-.051.018c-.01.005-.018.01-.014.024.005.01.009.01.019.01.019 0 .023.018.032.032l.075.191c0 .004.005.01.005.014 0 .01-.005.014-.01.02-.004.003-.004.008-.004.017.005.015.023.01.028.005l.032-.014c.01-.005.024-.009.019-.023-.005-.01-.01-.01-.014-.01s-.014 0-.018-.005c-.005-.004-.005-.009-.01-.013l-.07-.182.187.14a.253.253 0 0 0 .042.033c.009.004.014.004.023 0 .023-.01.019-.015.01-.038zm-.344.372c-.014-.004-.014-.013-.014-.022l-.038-.215c0-.01-.004-.019 0-.028l.005-.005c.005-.005.009-.009.005-.014 0-.014-.014-.014-.024-.014l-.074.01c-.01 0-.02.004-.014.018 0 .01.004.01.014.014h.004c.01.005.01.014.01.023l.037.215c0 .01.005.018 0 .028l-.005.005c-.004.005-.01.01-.004.014 0 .013.014.013.023.013l.075-.013c.009 0 .018-.005.014-.019-.005-.005-.01-.01-.014-.01zm-.3-.265c-.004-.005-.018-.005-.027-.005h-.168c-.01 0-.02.005-.02.014s.006.01.01.014l.005.005c.009.004.009.014.009.023V9c0 .01 0 .018-.01.023l-.003.004c-.005.005-.01.005-.01.014 0 .014.01.014.019.014h.075c.009 0 .018-.004.018-.014 0-.009-.005-.009-.01-.014l-.004-.004c-.01-.005-.01-.014-.01-.024V8.9h.057c.028 0 .023.014.037.014s.014-.027.014-.037c0-.014 0-.033-.014-.033s-.01.02-.037.02h-.056v-.08c0-.01 0-.024.005-.028.004-.005.028-.005.033-.005.027 0 .046 0 .064.028.005.004.01.014.019.014.014 0 .01-.014.01-.028.009-.005.009-.028-.005-.037zm-1.348.228c-.01 0-.02.015-.023.024-.014.023-.028.028-.051.028-.052.005-.057.005-.066-.042l-.01-.079.06-.01c.029-.005.025.014.039.01.014 0 .009-.029.009-.043 0-.009-.005-.032-.02-.028-.012 0-.003.02-.031.024l-.061.01-.01-.085c0-.005 0-.009.01-.014.005-.005.023-.005.033-.009.009 0 .028-.005.037 0 .01 0 .019.004.028.014.005.004.009.014.019.01.009 0 .014-.01.009-.024 0-.01-.004-.038-.014-.042-.005-.005-.014-.005-.023-.005l-.182.023c-.01 0-.02.005-.02.02 0 .008.006.008.01.013h.005c.01.005.01.014.01.023l.027.22c0 .01.005.02-.004.028l-.005.004c-.005.005-.01.01-.01.014 0 .014.015.014.024.014l.19-.023c.02 0 .02-.005.025-.023 0-.015.005-.033.005-.042.004-.005 0-.01-.01-.01zm-.448-.069c.038 0 .093-.015.093-.07 0-.043-.023-.057-.055-.057-.01 0-.024 0-.03.01-.003.004-.003.018-.003.032zm.182.153c.005.005.009.005.009.014 0 .014-.014.014-.018.014h-.075c-.01 0-.023 0-.023-.014s.018-.014.018-.023a.308.308 0 0 0-.046-.107l-.038.005v.084c0 .01 0 .018.005.022l.005.005c.004.005.009.005.009.014 0 .014-.01.014-.02.014h-.073c-.01 0-.02-.004-.02-.014 0-.009.006-.009.01-.014l.005-.005c.009-.004.009-.013.009-.022l.005-.22c0-.01 0-.019-.005-.023l-.004-.005c-.005-.005-.01-.005-.01-.014 0-.014.01-.014.019-.014l.14.005c.023 0 .047 0 .065.014a.067.067 0 0 1 .033.07c0 .041-.028.07-.06.088.023.033.037.075.05.112-.004-.004-.004.005.01.014zm-.308-.326-.182-.033c-.01 0-.02 0-.024.014 0 .01 0 .014.005.02l.005.003c.01.005.005.02.005.028l-.037.22c0 .01 0 .018-.01.023h-.005c-.005.004-.01.004-.01.014 0 .014.01.02.015.02l.187.031c.018.005.018 0 .028-.014.004-.009.014-.027.014-.042 0-.009-.005-.014-.01-.018-.01 0-.023.01-.028.018-.018.02-.037.02-.06.015-.052-.01-.057-.015-.047-.062l.014-.079.056.01c.028.005.019.018.033.023.013.004.018-.023.018-.038 0-.009.005-.032-.01-.032s-.013.014-.037.01l-.055-.01.013-.084c0-.005.005-.009.015-.014h.032c.01 0 .028.005.037.01.01.004.015.01.024.023.005.01.005.013.014.018.009 0 .014-.005.019-.018 0-.01.004-.038 0-.042 0-.01-.015-.014-.02-.014zm-.3.032c.015-.037-.003-.065-.032-.074a.026.026 0 0 0-.027 0c-.01.004-.01.013-.015.023l-.032.103c.037.004.093 0 .107-.052zm.062-.06c.019.023.028.051.014.084a.1.1 0 0 1-.084.07.202.202 0 0 1-.107-.01l-.024.066c0 .004-.004.01-.004.013 0 .01.004.015.009.02.005.004.009.01.005.018-.005.014-.024.01-.028.004l-.07-.022c-.01-.005-.02-.01-.014-.024.004-.009.009-.009.014-.009h.004c.009 0 .009-.014.014-.024l.07-.21c.005-.009.01-.019 0-.028l-.004-.004c-.005-.005-.005-.01-.005-.019.005-.014.014-.014.023-.01l.117.038c.028.014.05.023.07.046zm-.345.181c-.005-.009 0-.018.004-.027l.094-.2c.004-.01.009-.02.018-.02h.005c.005 0 .009 0 .014-.009.005-.01-.005-.019-.01-.023l-.07-.033c-.01-.005-.018-.005-.023.004-.005.01 0 .015 0 .02l.005.004c.005.01 0 .018-.005.028l-.093.201c-.005.01-.005.018-.02.018h-.003c-.005 0-.01 0-.015.01-.004.01.005.018.01.023l.07.033c.009.004.019.004.023-.005.005-.009.005-.014-.004-.024zm-.141-.107c-.027.01-.055.01-.074-.004a.076.076 0 0 1-.037-.075.208.208 0 0 1 .032-.089c.019-.028.042-.056.07-.07s.056-.018.08 0a.07.07 0 0 1 .028.037.094.094 0 0 1 0 .047c0 .01-.005.024.004.028.01.005.019.005.023-.004l.024-.047c0-.009 0-.014-.005-.019a.16.16 0 0 0-.061-.074c-.074-.042-.177-.019-.233.07-.051.088-.028.182.042.223a.113.113 0 0 0 .08.02c.018 0 .05-.01.065-.029.004-.009.004-.018-.005-.018-.014-.005-.023 0-.033.004zm-.233-.34c-.014-.019-.028-.042-.004-.07.018-.024.046-.019.065-.005.046.042.004.088.019.103.009.004.014.004.023-.005a.132.132 0 0 0 .023-.033c.005-.004 0-.009 0-.019a.17.17 0 0 0-.051-.074c-.02-.019-.047-.033-.075-.033s-.061.014-.084.038a.097.097 0 0 0-.023.08.132.132 0 0 0 .032.06c.01.01.024.032.029.046.004.014 0 .028-.01.042-.023.028-.061.02-.08 0a.076.076 0 0 1-.027-.046c-.005-.014 0-.029.004-.047 0-.009 0-.019-.004-.028-.01-.009-.024-.005-.033.004-.018.024-.014.057-.005.08.01.023.029.046.047.061a.141.141 0 0 0 .089.032.101.101 0 0 0 .084-.042c.019-.018.023-.047.023-.07a.167.167 0 0 0-.028-.06zm-.08-.159c.01-.01.015-.005.024-.005.005 0 .01.005.019 0 .009-.009.004-.018-.005-.028L1.48 8.2c-.005-.009-.014-.019-.028-.009-.005.005-.005.01-.005.018 0 .01.005.014-.005.024l-.107.093c-.02.014-.042.038-.065.042-.023.01-.052-.004-.065-.019-.014-.018-.024-.042-.01-.069.01-.024.033-.042.052-.057l.102-.088c.014-.01.019-.014.033-.01.004.005.009.005.018 0 .01-.009.005-.018 0-.028l-.051-.056c-.005-.004-.014-.013-.023-.004-.005.004-.005.01-.005.018v.005c0 .01-.01.014-.014.023l-.102.09a.208.208 0 0 0-.071.097c-.004.033.015.07.033.094.024.023.056.051.098.046.037-.004.075-.032.103-.056zm-.28-.173a.093.093 0 0 1-.041.061.118.118 0 0 1-.094.014.15.15 0 0 1-.074-.056.145.145 0 0 1-.024-.075c0-.023.005-.06.029-.075.009-.004.023-.004.032.005.005.01 0 .02-.005.028a.107.107 0 0 0-.018.042c0 .02.004.038.014.051.014.024.046.042.079.024.014-.01.024-.024.019-.037 0-.015-.01-.038-.014-.052a.103.103 0 0 1 .037-.135c.028-.019.06-.023.089-.014s.05.028.065.051a.176.176 0 0 1 .023.084c0 .005 0 .01-.004.014a.11.11 0 0 1-.033.023c-.01.005-.018.005-.023 0-.01-.018.047-.05.014-.102-.014-.019-.038-.033-.065-.019-.028.02-.024.047-.015.07l.01.033c0 .023.005.047 0 .065zm5.54-3.519c-.041 0-.074-.033-.074-.075s.033-.074.075-.074.075.032.075.074-.033.075-.075.075zm-.167.201c-.084 0-.154-.066-.112-.084.047-.019.102-.075.102-.075.033.028.169.061.169.061s-.08.098-.16.098zm-.121-.388c.027-.06.154-.023.13.005-.023.023-.042.126-.042.126s-.14-.019-.088-.13zM6.25 3.075s-.005-.04.009-.046c.015-.005.028.032.028.032.014.037-.01.122-.065.182l-.014.014c-.07.075-.136.16-.21.234-.033.032-.056 0-.033-.028.065-.07.13-.15.215-.238l.009-.014c.056-.047.07-.117.06-.136zm-.084.911c.037-.057-.02-.103-.075-.042-.322.378-.088.793-.088.793s-.248-.103-.248-.453c0-.355.425-.789.574-.942.15-.155.182-.458-.15-.458-.335 0-.648.378-.648.378-.065-.079-.21.08-.21.08s-.014-.066.042-.286c.056-.219.168-.252.168-.252s-.037.136-.014.21c.019.052.06.024.056-.027-.02-.29.22-.243.22-.243s-.117.112-.07.164c.046.051.214-.122.54-.122.276 0 .622.122.622.485 0 .365-.411.705-.59.873-.311.294.048.691.048.691-.228-.005-.485-.415-.177-.849zm.046 1.624s-.01.121-.116.121c-.108 0-.168-.084-.168-.084s-.042.07 0 .131c.042.065.13.224.06.261-.07.037-.116-.056-.163-.266s-.093-.462-.144-.462c-.052 0-.03.364.084.654.112.29.18.452.42.667.237.21.382.387.382.621 0 .228-.107.27-.107.368 0 .1.028.131-.023.154-.052.024-.075-.009-.103-.07-.023-.06-.098-.065-.131-.009s0 .112.07.131c.089.023.056.107.056.107s-.177-.12-.191-.149c-.014-.023.019-.448.023-.495.005-.047.038-.07.075-.019.042.052.243.155.243-.07 0-.205-.402-.49-.434-.513-.057-.047-.057-.126-.103-.182-.047-.056-.187-.215-.206-.257-.018-.042-.084-.028-.065.02s0 .074-.032.036c-.033-.042-.094-.084-.145-.019-.047.066-.112.117-.126.057a.428.428 0 0 0-.037-.108c-.01-.023.032-.065.093-.117a.304.304 0 0 0 .112-.228c0-.103-.052-.112-.052-.34 0-.229.13-.608.327-.608s.135.308.135.453c.01.145.108.341.266.215zm-.06 2.441a2.102 2.102 0 0 1-2.334 1.013c-.084-.024-.046-.042-.014-.07.033-.028.075-.15.098-.238.023-.089.038-.13.089-.122.107.02.215.033.326.033.635 0 1.177-.364 1.46-.887.048-.089.085-.042.127-.009.038.033.155.15.215.168.056.023.056.074.033.112zm-.093.723c-.066.07-.173.033-.173.033s.009-.122.075-.168c.084-.065.182.046.098.135zm-.336.332c-.075-.098.12-.117.12-.117.066.117-.041.21-.12.117zm-2.068-.229c-.047-.01-.09-.023-.14-.023a.483.483 0 0 0-.14.023c-.047.01-.084-.047-.09-.103-.004-.06-.041-.12-.078-.2-.037-.08-.061-.13.005-.154a.904.904 0 0 1 .303-.047c.107 0 .21.014.303.047.06.023.042.08.005.154-.037.08-.075.144-.08.2-.004.056-.037.113-.088.103zm-.443.187c-.16.042-.327.06-.5.06A2.091 2.091 0 0 1 .878 8.051c-.023-.038-.023-.089.037-.112.056-.024.173-.135.21-.168.042-.033.075-.08.126.01.285.522.826.886 1.46.886.113 0 .22-.014.328-.033.05-.009.07.033.089.122.023.084.065.21.098.237.037.03.074.052-.014.071zm-1.9.042c-.075.097-.182.005-.121-.117-.005-.005.195.02.12.117zm-.336-.332c-.08-.084.014-.196.098-.135.065.046.075.168.075.168s-.108.033-.173-.033zM.705 7.93s-.033-.083.056-.107c.07-.018.103-.075.07-.13-.033-.056-.107-.052-.131.01-.023.06-.051.092-.102.07-.052-.025-.024-.057-.024-.155s-.107-.136-.107-.369c0-.229.145-.406.383-.62s.308-.379.42-.668c.112-.29.135-.654.084-.654-.052 0-.098.257-.145.462-.046.21-.093.304-.163.266-.07-.037.019-.195.06-.26.043-.066 0-.132 0-.132s-.06.084-.167.084c-.108 0-.117-.12-.117-.12.159.12.26-.07.26-.22s-.064-.453.136-.453c.197 0 .327.378.327.607 0 .228-.051.238-.051.341 0 .102.05.172.112.228s.103.093.093.117c-.01.023-.023.051-.037.107-.014.061-.08.005-.126-.056-.047-.065-.112-.023-.145.02-.033.036-.051.008-.033-.038.019-.047-.046-.06-.065-.019s-.16.201-.205.256c-.047.057-.047.136-.103.183-.028.023-.434.308-.434.513 0 .22.205.117.243.07.037-.05.07-.023.074.02.005.045.038.47.024.493-.01.033-.187.154-.187.154zM.84 3.215l.015.014c.084.09.149.168.214.24.028.026 0 .054-.033.026-.08-.074-.14-.163-.21-.233l-.013-.014c-.057-.06-.08-.145-.066-.182 0 0 .014-.032.028-.032.014.004.009.046.009.046-.01.014.005.084.056.135zm.028.771c.308.434.052.844-.186.844 0 0 .359-.397.047-.69-.178-.169-.59-.509-.59-.873s.347-.486.622-.486c.327 0 .495.173.54.122.048-.052-.07-.164-.07-.164s.239-.042.22.243c-.004.052.043.084.057.028.023-.075-.014-.21-.014-.21s.116.033.168.252c.056.22.042.285.042.285s-.145-.159-.21-.08c0 0-.313-.378-.65-.378s-.298.304-.148.458c.149.154.574.592.574.943 0 .354-.247.452-.247.452s.233-.415-.084-.793c-.047-.056-.108-.01-.071.047zM.616 1.852c.052-.11.15-.055.15-.055s-.014-.089.06-.122c.07-.033.145.038.168.024.024-.015.005-.122.066-.15.098-.042.079.145.12.126.038-.018 0-.168.052-.219.052-.05.122-.093.15-.019.023.075.009.23.093.23s.14-.067.164-.034c.018.033-.127.07-.127.14s-.074.042-.121.047c-.042.005-.205.028-.205.23 0 .236.289.227.289.227l.122.177.028.267-.267-.075s-.074-.07-.177-.308c-.103-.234-.065-.369-.065-.453s-.061-.075-.08-.018c-.018.056-.01.125-.037.144-.028.014-.065-.098-.107-.065-.136.112.322.737.322.737-.131-.046-.388-.252-.388-.252s-.224.061-.205-.116c.019-.178.15-.042.182-.159.037-.159-.238-.19-.187-.304zm1.18.45c.039 0 .066.026.066.064a.063.063 0 0 1-.065.065.073.073 0 0 1-.051-.023c-.023-.014-.037.033-.028.08l.037.097c.075.201.08.35.065.425-.004.028-.042.02-.042-.009a.878.878 0 0 0-.065-.402l-.037-.098c-.014-.074-.01-.2.12-.2zm.062 1.151.033-.2a.1.1 0 0 1 .07.098.103.103 0 0 1-.103.102zm3.318 0a.102.102 0 0 1-.102-.102.1.1 0 0 1 .07-.098zM1.998 2.431c.172.094.644.02.789-.065.149-.08.462-.107.462-.107a.265.265 0 0 0 .266.228.265.265 0 0 0 .266-.228s.313.023.462.107.616.154.789.065l.144.117c-.135.36-.051.565-.051.565a.263.263 0 0 0-.126.065.245.245 0 0 0 .173.416s.168.36.168.99c0 1.026-.434 1.936-.462 1.987-.023.047-.178.042-.14-.079.037-.122.009-.164-.131-.126-.14.033-.635.182-.91.85-.028.065-.117.107-.187-.145-.07.247-.158.21-.187.144-.28-.667-.774-.816-.91-.849-.14-.033-.168.004-.13.126.037.121-.117.126-.14.08-.024-.047-.462-.962-.462-1.989 0-.63.168-.989.168-.989a.241.241 0 0 0 .242-.243.239.239 0 0 0-.196-.238s.08-.205-.051-.565zm.163-.247c.08 0 .056.14 0 .14a.192.192 0 0 1-.098-.023l-.084-.042s.103-.075.182-.075zm.089-.224c.06-.028.13-.075.14-.042.009.028-.028.028-.023.08 0 .027-.047.07-.093.097-.047.02-.057-.12-.024-.135zm.345-.15c.066-.018.113-.046.117-.018.005.028-.033.028-.033.075-.004.06-.2.116-.2.116.023-.06.056-.154.116-.173zm.336-.093c.066-.009.117-.033.117 0s-.033.024-.042.07c-.01.056-.214.094-.214.094.032-.066.074-.155.139-.164zm-.62.472s.457-.285.863-.276c0 0-.397.336-.621.378a2.25 2.25 0 0 1-.252.033c0 .004.019-.075.01-.135zm.966-.523c.065 0 .117-.019.117.014s-.038.02-.052.065c-.02.056-.224.065-.224.065.037-.06.094-.144.159-.144zm.243.42a.13.13 0 1 1-.001.261.13.13 0 0 1 0-.26zm0-.383c.009 0 .065.047.065.07 0 .01-.042.005-.065.005-.02 0-.066.01-.066-.005 0-.023.05-.07.066-.07zm.237-.037c.066 0 .117.084.159.14 0 0-.205-.009-.224-.065-.014-.047-.051-.033-.051-.066 0-.028.05-.009.116-.009zm.346.051c.065.01.107.098.14.16 0 0-.201-.034-.215-.094-.01-.047-.046-.038-.042-.07 0-.029.052-.005.117.004zm.219.08c.005-.029.052 0 .117.018.065.02.093.108.117.177 0 0-.197-.06-.201-.116 0-.056-.042-.05-.033-.079zm.41.531a2.04 2.04 0 0 1-.251-.032c-.224-.042-.621-.378-.621-.378.406-.009.864.275.864.275a.407.407 0 0 0 .009.135zm-.088-.41c.01-.028.08.014.14.042.033.014.029.154-.018.131-.052-.029-.098-.066-.094-.099 0-.046-.037-.046-.028-.074zm.229.266c.079 0 .182.075.182.075l-.084.042a.24.24 0 0 1-.098.023c-.056 0-.08-.14 0-.14zm.13 4.72c-.032-.043-.055-.09.015-.118.032-.014.042.033.042.102 0 .071.032.1.07.117.037.024.028.051-.028.075-.056.023-.08.014-.075-.037 0-.056.009-.098-.023-.14zm-.812.35c0 .031-.027.06-.06.06s-.061-.029-.061-.06c0-.034.028-.062.06-.062s.06.028.06.061zm.43-.435s-.07.102-.107.135c0 0-.047-.009-.103-.024-.056-.013-.136 0-.136 0 .126-.144.346-.11.346-.11zm.163.065c.07 0 .122.066.122.066s-.187.093-.23.07l-.05-.033s.088-.103.158-.103zm-.485-.107c-.192.084-.248.121-.248.121.197-.243.416-.345.547-.383a.214.214 0 0 0 .079.178s-.187.004-.378.084zm-1.89.205s-.005.005-.051.032c-.042.03-.23-.069-.23-.069s.057-.066.122-.066c.07.005.159.103.159.103zm.35-.056s-.08-.014-.136 0l-.102.024c-.038-.033-.108-.136-.108-.136s.22-.028.346.112zm.205.327c0 .032-.028.06-.061.06a.062.062 0 0 1-.06-.06.06.06 0 0 1 .06-.06c.038 0 .06.027.06.06zm-.23-.476c-.19-.084-.376-.084-.376-.084a.217.217 0 0 0 .079-.178c.135.042.355.14.546.383 0 .005-.056-.037-.248-.12zm-.722.266c.005.055-.02.065-.075.037-.056-.024-.065-.056-.028-.075.037-.023.07-.046.07-.117 0-.069.005-.116.038-.102.07.028.046.075.013.117-.032.042-.023.084-.018.14zm-.448-3.64c.046-.048.098.018.079.05-.018.033-.075.09-.084.164 0-.005-.08-.13.005-.215zm.088 2.604c-.027-.038-.074-.06-.051-.136.009.005.005-.014.019-.009.005.051.032.098.032.145zm-.107-1.424c0-.654.173-1.03.182-1.05.009-.033.056-.019.038.02-.01.012-.178.386-.178 1.03 0 .93.336 1.755.443 1.974.01.023-.027.033-.037.02-.093-.225-.448-1.056-.448-1.994zm.094 1.988c-.066-.079.088-.214.144-.154.066.07-.074.234-.144.154zm-.383.644a.11.11 0 0 1 .033-.075l.116.173c-.014.005-.028.01-.042.01a.105.105 0 0 1-.107-.108zm-.107.127c.05.097.167.158.266.102.097-.056.126-.102.158-.075.028.028.06.057.079.131.019.075.042.121-.01.16-.074.05-.158-.09-.158-.09a.893.893 0 0 0-.107.182c-.028-.047-.088-.205-.117-.238 0 0-.093.038-.135.09s-.084.078-.084.045c0-.084-.01-.2-.028-.368-.01-.084-.056-.15-.131-.168-.023-.005-.098-.024-.172.042.032-.06.116-.168.34-.336a.052.052 0 0 0 .019-.015c.042-.037.089-.055.094-.009.004.042.013.197.037.23.023.027.009.041-.033.073-.042.024-.07.15-.018.244zm.396.49c.056.032.126.014.173.018.047 0 .075.01.075.052v.177c0 .033-.033.023-.061-.024-.028-.042-.02-.102-.02-.102-.102-.009-.167-.122-.167-.122zm2.325.448a1.024 1.024 0 0 0-.35-.057 1 1 0 0 0-.35.057c-.103.037-.192.084-.168.121.037.056.018.093.018.093a1.494 1.494 0 0 1-1.204-.28s.224-.05.224-.457c0-.205-.02-.313-.02-.313.552 0 .692-.19.692-.19a.2.2 0 0 0 .06.143.2.2 0 0 0 .146.061.207.207 0 0 0 .205-.205s.05.046.065.102c.019.066-.023.071-.08.117-.121.09.066.313.202.215.069-.05.219-.164.219-.164s.149.113.219.164c.135.098.322-.126.2-.215-.055-.042-.097-.046-.078-.117a.23.23 0 0 1 .065-.102c0 .112.093.205.205.205a.202.202 0 0 0 .145-.06.204.204 0 0 0 .06-.145s.14.191.69.191c0 0-.017.108-.017.313 0 .406.224.457.224.457a1.494 1.494 0 0 1-1.204.28s-.02-.037.018-.093c0-.033-.084-.079-.186-.12zm1.526-1.709c-.065.08-.21-.084-.145-.154.056-.056.21.075.145.154zm-.094 1.48c-.028.042-.06.051-.06.023v-.177c0-.042.028-.047.074-.05.047-.006.117.017.173-.02 0 0-.061.112-.173.121 0 .005.01.061-.014.103zm.332-.733.117-.173a.114.114 0 0 1 .032.075.105.105 0 0 1-.107.107c-.02-.004-.033-.004-.042-.009zm.252.024c.05-.099.023-.225-.024-.257-.042-.033-.055-.047-.032-.075s.032-.182.037-.229c.005-.042.052-.023.094.01a.056.056 0 0 0 .018.013c.224.168.308.281.34.336a.174.174 0 0 0-.172-.042.194.194 0 0 0-.13.17c-.02.167-.024.284-.03.368 0 .032-.041.004-.083-.047-.042-.052-.135-.089-.135-.089-.028.033-.088.191-.117.238 0 0-.056-.13-.107-.182 0 0-.084.14-.16.09-.054-.039-.027-.085-.008-.16s.047-.102.08-.13c.027-.029.06.018.158.074.103.07.22.01.27-.088zm-.504-1.335c0-.047.028-.094.033-.145.013-.005.009.014.018.01.024.074-.023.102-.051.135zm.088-2.605c.084.084.01.215.01.215-.01-.07-.065-.13-.084-.164-.023-.032.023-.098.074-.05zm.019 1.181c0 .938-.355 1.77-.448 1.993-.005.014-.047 0-.037-.019a4.982 4.982 0 0 0 .443-1.974c0-.644-.168-1.018-.177-1.03-.02-.039.028-.048.037-.02.009.02.182.396.182 1.05zm-.252-2.282c.126 0 .136.126.112.195l-.037.1a.873.873 0 0 0-.065.4c.004.028-.038.038-.042.01a.902.902 0 0 1 .065-.426l.037-.097c.014-.042-.005-.094-.023-.08-.014.014-.028.024-.052.024a.064.064 0 0 1-.065-.066c.009-.028.038-.06.07-.06zm.163-.673c.019-.032.075.033.164.033.084 0 .07-.154.093-.229.024-.074.094-.037.15.02.05.05.013.2.05.218.038.02.024-.168.122-.126.06.03.042.136.066.15.023.014.098-.056.167-.024.07.033.062.122.062.122s.097-.056.148.056c.052.112-.223.144-.186.29.033.116.163-.02.182.158.019.177-.206.116-.206.116s-.256.206-.387.253c0 0 .462-.626.322-.738-.046-.037-.08.08-.107.065-.028-.014-.02-.088-.037-.144-.02-.056-.08-.065-.08.02 0 .082.033.218-.065.451-.103.234-.177.308-.177.308l-.266.075.027-.266.122-.177s.289.014.289-.229c0-.2-.163-.224-.205-.229-.042-.004-.122.024-.122-.046-.004-.056-.144-.094-.126-.127zM.504 4.508s-.018-.102-.037-.126c-.024-.023.103-.065.13-.004.057.116-.093.13-.093.13zM.48 4.77c-.084 0-.164-.098-.164-.098s.136-.033.169-.06c0 0 .056.055.102.074.047.018-.028.084-.107.084zm-.248-.276c0-.042.033-.074.075-.074s.075.032.075.074-.033.075-.075.075-.075-.033-.075-.075zm6.409-.298a.278.278 0 0 0-.284.284c.004.066.004.103-.015.056-.06-.158.005-.247.06-.294l.052-.05c.215-.202.579-.533.579-.925 0-.56-.612-.733-.612-.733.019-.009.042-.014.057-.028a.242.242 0 0 0 .079-.224c-.01-.098-.052-.164-.117-.2.065-.048.178-.146.107-.29a.256.256 0 0 0-.15-.145c-.003 0-.013-.005-.018-.005a.231.231 0 0 0-.111-.102.218.218 0 0 0-.131-.019.202.202 0 0 0-.196-.12.157.157 0 0 0-.038-.048c-.102-.103-.186-.107-.242-.093l-.07.014s-.243-.122-.495.116-.196.514-.196.514a2.878 2.878 0 0 0-1.381-.35c-.5 0-.971.126-1.382.35 0 0 .056-.276-.196-.514s-.495-.116-.495-.116l-.07-.014c-.056-.014-.14-.005-.243.093a.506.506 0 0 0-.037.047.205.205 0 0 0-.196.121.24.24 0 0 0-.243.121c-.004 0-.013.005-.018.005a.249.249 0 0 0-.154.145c-.066.144.046.242.107.29-.065.036-.107.102-.117.2a.246.246 0 0 0 .08.224c.014.014.037.02.056.028 0 0-.612.173-.612.733 0 .392.364.728.579.924l.05.051c.053.052.123.136.062.294-.02.042-.023.01-.014-.056.005-.065-.051-.284-.285-.284-.462 0-.35.755.229.755.215 0 .392-.074.392-.074-.103.112-.093.29-.084.43 0 .032.005.06.005.083 0 .047.005.1-.028.108-.098.014-.103-.159-.103-.159-.09.037-.14.177-.126.285.01.117.089.228.224.247 0 0-.196.121-.145.308.052.187.08.271.08.271l-.075.075c-.257.228-.43.443-.43.723 0 .178.057.271.089.336a.106.106 0 0 0 .019.033c0 .023 0 .037-.005.056-.004.047-.018.163.103.224h.075c-.024.098-.005.28.028.326.032.047.154-.042.154-.042.05.084.107.168.168.243l-.103.126a.238.238 0 0 0 .014.322.273.273 0 0 0 .173.084c-.047.131.004.247.084.3.093.06.214.031.289-.066l.159-.234a2.26 2.26 0 0 0 1.134.308c.518 0 .775-.11.775-.11.014-.035-.08-.14-.08-.14.038-.01.075-.02.108-.02.032 0 .065.01.107.02 0 0-.093.105-.08.14 0 0 .257.11.775.11.407 0 .799-.11 1.135-.308l.158.234c.075.097.197.126.29.065.084-.052.135-.168.084-.299a.297.297 0 0 0 .173-.084.238.238 0 0 0 .013-.322l-.102-.126c.06-.075.117-.159.168-.243 0 0 .122.09.154.042.032-.046.047-.228.028-.326h.075c.126-.06.112-.182.107-.224 0-.019-.005-.033-.005-.056a.596.596 0 0 0 .108-.369c0-.285-.173-.495-.43-.723-.028-.024-.051-.052-.074-.075 0 0 .023-.084.079-.27.05-.188-.145-.309-.145-.309.136-.019.21-.135.225-.247.013-.108-.042-.248-.127-.285 0 0-.004.173-.103.16-.032-.01-.027-.062-.027-.109 0-.023 0-.05.004-.084.01-.14.023-.317-.084-.429 0 0 .178.074.392.074.579 0 .69-.755.229-.755zM2.31 1.04a.645.645 0 0 0 .406-.284.645.645 0 0 0 .35.107.643.643 0 0 0 .453-.19.639.639 0 0 0 .452.19.604.604 0 0 0 .35-.107.632.632 0 0 0 .696.28l-.247.392c-.383-.159-.804-.248-1.247-.248s-.863.084-1.246.248l-.248-.393a.616.616 0 0 0 .28.005zm.284-.844a.222.222 0 0 1 .266.172.223.223 0 0 1-.172.266.224.224 0 0 1-.267-.172.225.225 0 0 1 .173-.266zM3.52.144c.12 0 .224.103.224.224 0 .122-.098.224-.224.224S3.295.494 3.295.368s.099-.224.225-.224zm.653.22a.227.227 0 0 1 .266-.173.228.228 0 0 1 .173.266.228.228 0 0 1-.266.173.221.221 0 0 1-.173-.266zm.593 1.232c-.005.01-.01.014-.014.014-.005 0-.014.005-.02 0a3.103 3.103 0 0 0-2.426 0c-.01.005-.014 0-.023 0-.005 0-.01-.005-.014-.014-.005-.014.005-.038.032-.047l.015-.005c.377-.158.779-.238 1.199-.238s.822.08 1.199.238l.015.005c.027.01.042.033.037.047zm-2.605-.08a.15.15 0 0 0 .192.206 2.943 2.943 0 0 1 1.167-.238c.415 0 .807.084 1.166.238.075.033.164 0 .196-.08a.146.146 0 0 0-.004-.126l.48-.76C5.428.62 5.32.522 5.232.564a1.596 1.596 0 0 0-.167.094c-.103-.057-.21-.103-.318-.15 0-.009 0-.014.005-.018a.374.374 0 0 0-.28-.439.355.355 0 0 0-.276.051.375.375 0 0 0-.154.21 1.68 1.68 0 0 0-.16-.018.36.36 0 0 0-.101-.187.368.368 0 0 0-.523 0 .377.377 0 0 0-.103.187c-.051.004-.107.013-.158.018a.37.37 0 0 0-.154-.21.385.385 0 0 0-.276-.05.37.37 0 0 0-.28.438c0 .01 0 .014.005.018a2.615 2.615 0 0 0-.317.15s-.08-.052-.168-.094C1.723.522 1.61.62 1.68.756zM14.38 7.654c.155-.149.257-.215.397-.215.276 0 .448.22.448.621 0 .476-.191.644-.448.644-.13 0-.28-.088-.397-.219zm0 1.788V8.71l.015.005c.12.098.266.177.415.177.266 0 .635-.206.635-.82 0-.632-.37-.823-.65-.823a.552.552 0 0 0-.41.215h-.005v-.187h-.22v2.161h.22zm-.657-.579V7.285h-.22v1.181c-.098.108-.29.238-.453.238-.158 0-.256-.07-.256-.28V7.281h-.22V8.43c0 .341.22.462.458.462.177 0 .345-.103.467-.243h.004v.215zM11.65 7.44c.262 0 .43.224.43.631 0 .405-.168.63-.43.63-.261 0-.43-.225-.43-.63 0-.407.169-.63.43-.63zm0 1.452c.43 0 .649-.364.649-.82 0-.459-.215-.823-.65-.823-.428 0-.647.364-.647.822 0 .457.214.821.648.821zm-1.461-.028h.22V7.99c.102-.327.247-.504.518-.509v-.224c-.262 0-.392.122-.514.337h-.004v-.313h-.22zm-.354-1.055v1.055h-.201v-.2h-.005c-.112.153-.331.228-.574.228-.5 0-.854-.359-.854-1.125 0-.765.359-1.125.854-1.125.369 0 .654.178.789.644l-.23.047c-.106-.35-.288-.48-.545-.48-.322 0-.626.22-.626.92s.304.918.626.918c.359 0 .527-.219.527-.485v-.187h-.5v-.205h.739z" fill="#575756" mask="url(#a)" transform="translate(4 13)"/><path d="M20.602 17.924c0 .625-.02.985-.15 1.064h.785c-.131-.098-.145-.382-.145-.873v-.784c.005 0 .014-.01.019-.01.042 0 .098.048.149.136l1.013 1.527h.714c-.242-.1-.611-.803-1.456-1.886.112-.09.19-.173.26-.243l.888-.947h-.695c.042.06.055.126.055.19 0 .216-.307.626-.947 1.075v-3.011l-.7.103c.187.126.215.49.215 1.115 0 .336-.005.752-.005 1.247-.004.522 0 .952 0 1.297zm10.74-1.974c.042.07.074.12.074.247 0 .2-.135.644-.2.83l-.35 1.093c-.033.098-.061.205-.103.205-.047 0-.06-.098-.098-.205l-.588-2.011c-.042-.136-.075-.201-.191-.201-.084 0-.37.028-.51.042.234.289.486 1.139.589 1.489l.243.83c.583 1.732-.78 2.964-2.441 1.928-.056.415.532.775 1.129.775 1.088 0 1.67-1.475 1.858-1.942l.966-2.478c.098-.238.159-.383.28-.602zm-3.16.877c.336 0 .513 0 .513-.261a.515.515 0 0 0-.522-.523c-.434 0-.616.42-.7.784zm-.775.593c0 .639.29 1.25 1.004 1.25.336 0 .667-.135.83-.321v.075c0 .363-.578.7-1.082.7-.901 0-1.326-.813-1.326-1.64 0-.89.495-1.637 1.433-1.637.658 0 1.05.434 1.05.877 0 .318-.23.318-.653.318h-1.228zm-.877 1.59c-.121-.19-.121-.484-.121-.741v-4.065l-.687.112c.178.135.178.406.178.686v3.267c0 .253 0 .55-.122.742zm-2.213-2.183c.336 0 .514 0 .514-.261a.515.515 0 0 0-.523-.523c-.434 0-.616.42-.7.784zm-.746.205c-.014.13-.03.239-.03.383 0 .64.29 1.25 1.005 1.25.336 0 .668-.134.83-.321v.075c0 .364-.578.7-1.082.7-.9 0-1.325-.812-1.325-1.638 0-.892.494-1.64 1.432-1.64.659 0 1.05.436 1.05.879 0 .317-.228.317-.653.317H23.57zm-4.873 1.228c0 .252 0 .55-.121.747h.755c-.121-.201-.121-.495-.121-.747v-1.414c0-.303.042-.542.383-.542.163 0 .303.019.434.019.173 0 .238-.098.238-.23 0-.162-.135-.26-.378-.26-.406 0-.63.41-.667.41-.075 0 0-.345-.122-.345-.084 0-.322.028-.58.033.179.145.179.616.179 1.106zm-1.615-1.433c.336 0 .513 0 .513-.261a.515.515 0 0 0-.522-.523c-.434 0-.617.42-.701.784zm-.747.205c-.014.13-.028.239-.028.383 0 .64.29 1.25 1.003 1.25.337 0 .668-.134.832-.321v.075c0 .364-.58.7-1.083.7-.901 0-1.326-.812-1.326-1.638 0-.892.495-1.64 1.433-1.64.658 0 1.05.436 1.05.879 0 .317-.23.317-.653.317h-1.228zm-3.183.76c0 .799 0 .967.462.967.7 0 1.134-.275 1.134-1.008 0-.938-.686-1.045-1.475-1.045h-.116v1.087zm0-1.33h.187c.602 0 1.222-.19 1.222-.918 0-.617-.42-.705-.98-.705-.13 0-.275.014-.424.028v1.596zm-.621-.933c0-.308 0-.667-.15-.9.603 0 1.224-.07 1.826-.07.537 0 1.022.233 1.022.83 0 .598-.471.888-.961 1.093v.014c.639.144 1.185.396 1.185 1.138 0 1.083-.821 1.4-1.755 1.4-.467 0-.93-.027-1.395-.027.228-.485.228-1.195.228-1.723zm-5.405 2.614c0 .532 0 .649.308.649.467 0 .756-.182.756-.677 0-.63-.457-.695-.985-.695h-.08zm0-.891h.126c.407 0 .817-.131.817-.616 0-.411-.28-.472-.658-.472-.09 0-.182.01-.285.019zm-.415-.625c0-.206 0-.444-.103-.602.406 0 .817-.047 1.223-.047.359 0 .686.154.686.555 0 .402-.317.593-.644.728v.01c.425.098.793.266.793.76 0 .724-.55.938-1.176.938-.312 0-.62-.018-.933-.018.149-.327.149-.798.149-1.153v-1.171z" fill="#ce132e"/></g></svg>