<svg width="36" height="36" fill="none" xmlns="http://www.w3.org/2000/svg"><path d="M18 0c2.837 0 5.52.656 7.907 1.825C31.884 4.753 36 10.895 36 18c0 9.942-8.058 18-18 18-9.94 0-18-8.057-18-18C0 8.06 8.06 0 18 0z" fill="#F2F4F7"/><path d="M4.841 19.022c.242 0 .429-.083.429-.33 0-.283-.182-.337-.452-.337-.125 0-.22-.007-.22.104v.563h.243zm-.243.598c0 .207-.01.238.238.238.252 0 .529-.059.529-.346 0-.234-.118-.387-.524-.387h-.243v.495zM4 19.96v-.1c.32.008.29-.057.29-.297v-.943c0-.245.015-.266-.29-.27v-.1h.875c.308 0 .736.064.736.424 0 .262-.315.354-.544.389v.005c.277.042.64.141.64.457 0 .254-.232.353-.463.407-.161.038-.595.028-.641.028H4zm2.006.001v-.103h.108c.185 0 .185-.12.185-.158v-1.187c0-.038 0-.158-.185-.158h-.108v-.103H6.9v.103h-.108c-.184 0-.184.12-.184.158v1.163c.01.18.035.182.318.182.454 0 .567-.144.639-.549h.112l-.02.652h-1.65zm2.478-.661h.644l-.316-.735-.328.735zm-.588.661v-.103c.172-.012.241-.066.306-.21l.636-1.434h.136l.62 1.432c.08.158.116.219.316.212v.103h-.839v-.103c.07-.002.246.021.246-.082a.698.698 0 0 0-.061-.177l-.082-.196h-.74l-.102.266a.194.194 0 0 0-.015.067c0 .117.133.127.23.122v.103h-.65zm3.639-1.748v.643h-.113c-.056-.257-.184-.54-.587-.54-.413 0-.5.465-.5.79s.087.789.5.789c.392 0 .541-.224.641-.471l.113.033c-.128.318-.364.541-.754.541-.482 0-.842-.442-.842-.892 0-.44.377-.893.842-.893.226 0 .382.115.47.115.084 0 .117-.054.117-.115h.113zm1.149.86-.223.203v.424c0 .038 0 .158.185.158h.105v.103h-.89v-.103h.108c.184 0 .184-.12.184-.158v-1.187c0-.038 0-.158-.184-.158h-.108v-.103h.89v.103h-.105c-.185 0-.185.12-.185.158v.605l.61-.52c.083-.07.155-.144.155-.175 0-.098-.154-.063-.244-.068v-.103h.803v.103c-.175-.01-.334.078-.462.177l-.42.358.577.735c.105.136.18.233.382.233v.103h-.88v-.103c.062 0 .249.03.249-.066 0-.021-.057-.099-.118-.177l-.429-.541zm7.885.001-.223.202v.424c0 .038 0 .158.184.158h.105v.103h-.887v-.103h.107c.184 0 .184-.12.184-.158v-1.186c0-.038 0-.158-.184-.158h-.107v-.104h.887v.104h-.105c-.184 0-.184.12-.184.157v.606l.61-.52c.08-.071.153-.144.153-.175 0-.099-.154-.063-.243-.068v-.104h.8v.104c-.174-.01-.332.078-.46.176l-.42.358.576.735c.105.137.18.233.381.233v.103h-.877v-.103c.061 0 .248.03.248-.066a.7.7 0 0 0-.118-.177l-.427-.541zm1.804-.6h-.005V19.7c0 .038 0 .158.184.158h.107v.103h-.718v-.103h.107c.184 0 .184-.12.184-.158v-1.187c0-.037 0-.157-.184-.157h-.107v-.104h.608l.98 1.29h.005v-1.029c0-.037 0-.157-.184-.157h-.107v-.104h.719v.104h-.108c-.184 0-.184.12-.184.157V20h-.161l-1.136-1.525zm2.698-.118h-.108c-.184 0-.184.12-.184.158V19.7c0 .038 0 .158.184.158h.108v.104h-.89v-.104h.107c.184 0 .184-.12.184-.158v-1.186c0-.038 0-.158-.184-.158h-.107v-.103h.89v.103zm1.685 1.648c-.003-.037-.042-.143-.093-.143a.597.597 0 0 0-.097.038c-.107.046-.19.1-.396.1-.484 0-.835-.456-.835-.892 0-.442.349-.892.878-.892.217 0 .358.125.43.115.084 0 .118-.054.118-.115h.112v.643h-.112c-.07-.288-.249-.532-.586-.54-.412 0-.5.46-.5.785 0 .324.088.793.5.793.307 0 .399-.132.399-.398 0-.198-.059-.21-.269-.21v-.103h.837v.104c-.215 0-.261.007-.261.195v.52h-.125zm1.202-.861v.558c0 .037 0 .157.185.157h.107v.104h-.89v-.104h.107c.184 0 .184-.12.184-.157v-1.187c0-.038 0-.158-.184-.158h-.107v-.103h.89v.103h-.107c-.185 0-.185.12-.185.158v.525h.814v-.525c0-.038 0-.158-.184-.158h-.108v-.103h.89v.103h-.107c-.184 0-.184.12-.184.158v1.187c0 .037 0 .157.184.157h.108v.104h-.89v-.104h.107c.184 0 .184-.12.184-.157v-.558h-.814zm2.66.557c0 .038 0 .158.184.158h.107v.103h-.89v-.103h.107c.185 0 .185-.12.185-.158v-1.344c-.405-.012-.507.19-.569.51h-.112l.015-.614h1.638l.015.615h-.112c-.062-.32-.164-.523-.568-.511V19.7z" fill="#000"/><path d="m15.57 21.17.272-.16.18-.26a1.88 1.88 0 0 1-.07-.131l-1.382-.666-.013-.097a.558.558 0 0 1 .018-.197c-.122-.13-.254-.293-.28-.415a.476.476 0 0 1-.002-.17l-.008-.011c-.03-.043-.071-.136-.02-.27a4.96 4.96 0 0 0 .137-.484 2.96 2.96 0 0 1 .231-.614c.088-.166.13-.241.143-.266l.006-.01a2.534 2.534 0 0 1-.151-.23l-.04-.067.048-.062a1.46 1.46 0 0 1 .63-.445 1.41 1.41 0 0 1 .43-.074h.018a.537.537 0 0 1 .372-.111 5.799 5.799 0 0 1-.063-.258l-.021-.087a1.357 1.357 0 0 1-.05-.565c-.028.02-.056.042-.082.065a.411.411 0 0 1-.279.093.868.868 0 0 1-.424-.122.125.125 0 0 1-.038-.044l-.028-.039.023-.06.024-.06.063-.012a.238.238 0 0 1 .054-.005c.106 0 .123-.024.217-.155.032-.045.071-.1.122-.162a1.48 1.48 0 0 1 .202-.21.396.396 0 0 1-.12-.238.736.736 0 0 1-.013-.23l.043-.341.172.297a.5.5 0 0 0 .163.166.13.13 0 0 0 .065.014c.125 0 .304-.107.448-.193.142-.085.254-.152.35-.152.181 0 .33.073.418.205a.46.46 0 0 1 .05.418l-.003.006a.443.443 0 0 1-.046.09c.044.027.088.057.132.09a.84.84 0 0 1 .333.663l-.003.076-.004.001-.01.152c-.001.009-.008.09-.065.382-.024.125-.05.229-.074.31l.007.002.028.015h.03a.44.44 0 0 1 .163.033c.075.03.12.08.145.118a.933.933 0 0 1 .415.156l.431-.677.987-.435-.133 1.075-.482.636c.02.226.026.639.017 1.2a5.522 5.522 0 0 1-.607 2.406l-.05.09-.095-.04a13.49 13.49 0 0 1-.654-.285l-.313-.152-.035.38-.437-.254a1.086 1.086 0 0 1-.04.091c-.076.151-.302.333-.327.353l-.07.056-.073-.054c0-.001-.047-.037-.115-.084l-.129.183-.078.28-.66-.448z" fill="#fff"/><path d="M17.188 18.293a.996.996 0 0 0-.41-.22l-.01-.002a.909.909 0 0 0-.13-.022c-.304-.026-.531.11-.533.11l-.274.321a3.179 3.179 0 0 0 .58 1.124 1.323 1.323 0 0 0 .066.075 2.069 2.069 0 0 0 .178.172l.078-.121.716-1.123a1.767 1.767 0 0 0-.261-.314zm1.153 1.917a18.954 18.954 0 0 0-.55-1.05l-.67.884-.075.1c.083.057.17.113.258.168a8.565 8.565 0 0 0 .68.325c.227.094.428.133.508.147a70.4 70.4 0 0 0-.15-.574zm-1.064-5.499v.002c-.026.053-.055-.23-.306-.217-.157.008-.325.12-.457.185-.21.103-.386.178-.56.305-.2.147-.26.401-.424.456a.608.608 0 0 1-.295.014s0-.002.005-.002a.168.168 0 0 1 .029-.002c.22 0 .232-.118.428-.36.197-.243.331-.287.331-.287l.01-.005.02-.011.013-.007.002-.001.021-.011c.03-.016.157-.072.157-.072s-.184.035-.31-.033c-.12-.064-.15-.31-.15-.31s.085.146.21.211c.272.141.741-.317.917-.318.33 0 .429.291.36.463z" fill="#D7AC11"/><path d="m15.184 17.38.03.023.021.015.064.039c-.007-.007-.13-.13-.066-.384a.416.416 0 0 1 .166-.246l-.013.003c-.084.027-.154.06-.21.09a1.028 1.028 0 0 0-.08.052c-.08.06-.158.137-.158.137s.108.162.246.272zm2.07-.062a3.557 3.557 0 0 0-.038-.064c-.098-.162-.206-.322-.206-.322s-.064.123-.196.326h-.001c-.011.019-.024.038-.037.057l-.003.005a2.803 2.803 0 0 1-.034.051l-.003.004a5.583 5.583 0 0 1-.24.321c-.12.145-.266.316-.39.462 0 0 .228-.136.532-.109a.83.83 0 0 1 .13.021l.01.003c.13.033.27.099.41.22.077.065.166.177.261.313l.247-.388.007-.01a10.73 10.73 0 0 0-.45-.89zm-.798-1.375-.274-.078.011.056v.001l.018.073.009.036c.008.032.016.063.022.093a2.099 2.099 0 0 0 .014.058v.001l.01.042.003.01a.987.987 0 0 0 .006.026l.029.114.008.03.01.038.18.094-.046-.594zm.086-.76c.176-.243.376-.216.376-.216v-.122h-.038a.94.94 0 0 0-.193.013c-.127.027-.217.104-.327.252a1.026 1.026 0 0 0-.155.313l-.007.022-.006.025a.855.855 0 0 0-.012.054l-.005.029-.003.016a.492.492 0 0 0 0 .012l.252.051s.001-.289.118-.45zm2.479 1.154-.026.014-.472.735-.113.176-.153.237-.362.564-.151.236-.009.013-.236.368-.706 1.099-.078.122-.001.002.066.07.009-.013.082-.119a623.849 623.849 0 0 0 .93-1.361c.005-.005.008-.01.012-.016.06-.09.123-.18.184-.27a178.101 178.101 0 0 0 .652-.964c.197-.295.337-.508.363-.559.09-.176.033-.295.009-.334zm-1.048 2.584-.01.014-.171.225c.292.514.548 1.048.55 1.05 0 0-.196-.74-.369-1.29zm-2.841-1.272-.002-.001a6.814 6.814 0 0 0-.17-.116h-.002l-.008.013-.016.03-.116.216a1.675 1.675 0 0 0-.174.424v.003l-.015.067c-.027.1-.045.204-.066.294l-.006.023c-.026.107-.028.185-.028.185s.035-.024.103-.057c.07-.034.16-.04.168-.04 0 0 .049-.324.15-.566.064-.152.158-.275.194-.362.02-.05.023-.089-.012-.113zm1.08 2.701c-.04.074-.051.102-.051.102l.137.102.249.186.006-.017.002-.005.002-.003.002-.005a.819.819 0 0 1 .02-.043l.012-.021c.005-.011-.378-.296-.379-.296zM16 20.22l-.029.076-1.123-.673.012-.026.011-.023a.802.802 0 0 1 .028-.05c.03-.049.065-.091.065-.091L16 20.22z" fill="#E6E7E8"/><path d="M16.338 17.11a1.115 1.115 0 0 1-.276-.434.117.117 0 0 0-.026-.003.304.304 0 0 0-.159.057l-.015.015c.013.065.03.165.034.274.007.189-.074.381-.074.381s-.005-.225-.03-.364a.574.574 0 0 0-.114-.256l-.032.002-.064.006a1.009 1.009 0 0 0-.183.039s-.122.073-.166.245c-.065.255.058.378.066.385.048.028.104.059.16.088a7.954 7.954 0 0 0 .304.148v.122l.027.363c.118-.09.324-.254.46-.396.15-.155.295-.37.36-.47a1.157 1.157 0 0 1-.272-.201zm-.314 2.72-.261-.288-.33-.365a.601.601 0 0 0-.438.218l-.031.038 1.035.786-.029.077-1.123-.674a.51.51 0 0 0-.044.166l1.156.557a.476.476 0 0 1 .077-.18.575.575 0 0 1 .17-.134l-.182-.201zm1.26-4.111c-.163.026-.366.052-.366.052v-.804s-.2-.027-.376.215c-.117.16-.118.45-.118.45l-.253-.051a.935.935 0 0 0-.005.073v.008a1.05 1.05 0 0 0 .006.13l.001.01a1.192 1.192 0 0 0 .01.063l.273.078.046.594-.18-.094a8.569 8.569 0 0 0 .025.082l.57.334v-.833h.001l-.693-.229-.016-.1.63.127.038.075h.074l.026-.075.535-.089v-.002l.011-.077c-.076.025-.165.05-.239.063zm2.356.307-.619.311c.024.039.081.159-.01.334-.025.051-.165.264-.362.559l-.034.05-.139.206c-.146.218-.311.46-.479.707l-.184.271-.011.016-.222.325-.71 1.036-.08.119a.43.43 0 0 0-.01.013l-.066-.07.14.149.02-.029.08-.115.69-.999.207-.298.012-.017.185-.267.593-.858.092-.133.033-.047.944-1.364-.07.1zm-3.48 4.426s.012-.028.052-.102c-.046.077-.067.142-.067.142l.128.098.259.2s.003-.019.015-.05l-.249-.186-.137-.102zm.25-.293s-.064.014-.146.116a.7.7 0 0 0-.052.075c.001 0 .384.285.379.296a2.871 2.871 0 0 1 .166-.247l-.347-.24zm-1.107-1.777c.095-.228.128-.46.129-.462l.005-.036a3.02 3.02 0 0 1-.293-.122c-.037.086-.13.21-.194.362-.101.242-.15.566-.15.566a.61.61 0 0 1 .272.082c.062-.084.167-.237.23-.39zm1.405 1.888-.32-.234-.22-.244.1-.037 1.07.72-.03.197-.6-.402z" fill="#9D9FA2"/><path d="M16.25 14.698s-.126.057-.156.072a1.322 1.322 0 0 0-.036.019l-.02.011-.01.005-.021-.006a.298.298 0 0 1-.114-.07c-.057-.059-.069-.08-.091-.183-.022-.102-.01-.19-.01-.19s.03.245.148.31c.127.068.31.032.31.032zm1.735 5.94a7.62 7.62 0 0 1-.681-.326 8.335 8.335 0 0 1-.258-.167l.076-.1.67-.884.17-.226.011-.013c.173.548.368 1.289.368 1.289.063.232.115.432.15.573a2.409 2.409 0 0 1-.506-.147zm-.678.035-.599-.402.317.232-.317-.233-.32-.233-.221-.244.102-.037 1.068.719-.03.198zm-.695-.063a.687.687 0 0 0-.021.036l-.012.022a.771.771 0 0 0-.02.042l-.003.006v.003l-.003.005c-.004.01-.005.017-.005.017h-.001a.358.358 0 0 0-.015.049l-.26-.199-.127-.098s.021-.066.067-.142a.678.678 0 0 1 .052-.075c.082-.103.146-.116.146-.116l.347.239s-.079.102-.145.21zm-.653-.265-1.155-.556a.512.512 0 0 1 .043-.166l.012-.025a.803.803 0 0 1 .04-.074c.029-.048.064-.09.064-.09l.032-.039a.601.601 0 0 1 .437-.217l.33.365.262.287.182.202a.57.57 0 0 0-.17.134.48.48 0 0 0-.077.18zm-1.327-1.614a.94.94 0 0 0-.103.056s.002-.078.028-.185l.005-.022c.022-.09.04-.194.067-.294l.015-.067v-.003c.028-.122.073-.23.174-.425.077-.145.117-.218.133-.246l.007-.013h.002l.17.116.002.001c.035.025.033.063.012.113.077.04.21.093.293.123l-.005.036c0 .003-.034.233-.13.461a2.037 2.037 0 0 1-.23.39.608.608 0 0 0-.272-.082.501.501 0 0 0-.168.04zm1.115.597-.252-.278-.026-.003-.032-.001a.6.6 0 0 0-.096.008v-.066s.16-.221.193-.274c.027-.043.096-.172.143-.293l.07.907zm-.65-2.356a1.247 1.247 0 0 1 .08-.052c.055-.03.125-.063.209-.09a1.012 1.012 0 0 1 .26-.048l.032-.001a.637.637 0 0 1 .114.255c.025.14.03.365.03.365s.081-.192.074-.38a1.877 1.877 0 0 0-.034-.275l.015-.016a.304.304 0 0 1 .159-.056.12.12 0 0 1 .026.002c.023.073.095.254.276.435.093.093.189.157.271.201a3.22 3.22 0 0 1-.358.47 4.712 4.712 0 0 1-.46.397l-.028-.363v-.122l-.072-.034a8.128 8.128 0 0 1-.393-.202 1.19 1.19 0 0 1-.084-.055.286.286 0 0 1-.03-.022c-.138-.11-.246-.272-.246-.272s.079-.077.159-.137zm1.145-.847a2.66 2.66 0 0 0-.022-.094l-.01-.035a3.02 3.02 0 0 1-.016-.073v-.002a1 1 0 0 1-.02-.118c-.002-.003-.002-.007-.002-.01a1.146 1.146 0 0 1-.005-.057v-.012a.84.84 0 0 1-.001-.061v-.009c0-.023.003-.048.005-.073l.002-.012c0-.005 0-.01.002-.016l.005-.028a1.13 1.13 0 0 0 .012-.055l.006-.025a1.018 1.018 0 0 1 .162-.334c.11-.148.2-.225.327-.252a.94.94 0 0 1 .193-.014h.038v.927s.203-.027.366-.053a1.73 1.73 0 0 0 .239-.062l-.01.076v.003l-.536.088-.026.075h-.074l-.038-.075-.63-.126.016.1.693.228v.808l-.238-.114-.333-.194-.006-.018-.018-.064-.01-.039-.009-.03a21.986 21.986 0 0 1-.038-.15l-.01-.041v-.001l-.014-.058zm1.461 2.083-.007.011-.247.388-.716 1.123-.078.122-.053-.048a2.012 2.012 0 0 1-.233-.251 2.659 2.659 0 0 1-.04-.053c-.365-.483-.498-1.02-.498-1.02l.274-.32.001-.001a81.398 81.398 0 0 0 .433-.514 5.63 5.63 0 0 0 .197-.27l.003-.003.034-.051.003-.006.038-.056h-.001c.11-.17.185-.305.196-.324h.002c.005.006.085.115.205.319a3.563 3.563 0 0 1 .038.064c.073.127.273.494.45.89zm-.67 1.954-.001.001-.004-.003.004.002zm2.677-4.237-.944 1.364-.033.048-.092.133-.593.857-.185.268-.012.017-.206.298-.692.999-.08.115-.019.028-.14-.149v-.002l.08-.122.705-1.099.236-.367.009-.014.151-.235.362-.564.152-.237.114-.177.472-.735.026-.013.62-.312.069-.1-.767.338-.484.759a.72.72 0 0 0-.152-.116c-.204-.106-.322-.1-.322-.1l-.05-.024s-.026-.069-.105-.1c-.11-.044-.168-.019-.168-.019l-.06-.032-.1-.04c.025-.075.067-.211.103-.399.057-.294.063-.368.063-.368l-.066.017.015-.094.017-.13.051-.018s.012-.342-.286-.566a1.293 1.293 0 0 0-.258-.154.315.315 0 0 0 .135-.167c-.025.054-.054-.23-.305-.216-.157.008-.325.119-.457.184-.21.104-.386.178-.56.305-.2.148-.26.402-.424.456a.607.607 0 0 1-.295.015c0 .001 0 .003.005.006.053.04.391.18.557.034a1.9 1.9 0 0 1 .354-.23c-.148.336-.085.587-.033.79l.021.09c.038.172.087.341.105.404l-.057.013-.04.006a.21.21 0 0 0-.111-.028.322.322 0 0 0-.082.011.396.396 0 0 0-.169.082l-.022.024a1.194 1.194 0 0 0-.457.067c-.346.111-.574.405-.574.405s.116.2.192.276l-.046.078c-.001.003-.04.07-.141.263a2.82 2.82 0 0 0-.222.586 5.108 5.108 0 0 1-.14.501c-.031.08-.014.132.006.162a.14.14 0 0 0 .038.035.456.456 0 0 0-.01.186c.027.123.224.335.296.408a.51.51 0 0 0-.032.213l.005.036 1.361.656c.013.028.06.126.121.223l-.237.343-.136.079.375.255.04-.145.206-.292c.119.078.215.15.215.15s.23-.18.295-.313c.033-.065.06-.146.08-.211l.402.234.035-.366.462.225c.254.123.648.283.648.283s.572-1.02.592-2.35c.011-.75-.005-1.084-.02-1.232l.49-.647.103-.842zm12.029 2.533h.04c.035 0 .067-.002.067-.042 0-.033-.029-.038-.055-.038h-.052v.08zm-.04-.112h.098c.06 0 .088.023.088.072 0 .046-.029.065-.066.069l.072.111h-.042l-.069-.108h-.041v.108h-.04v-.252zm.085.31c.1 0 .177-.08.177-.185a.177.177 0 1 0-.356 0c0 .106.078.185.179.185zm0-.4c.117 0 .216.093.216.215a.215.215 0 0 1-.216.217.216.216 0 1 1 0-.432z" fill="#000"/></svg>