<svg width="36" height="36" fill="none" xmlns="http://www.w3.org/2000/svg"><path d="M18 0c2.837 0 5.52.656 7.907 1.825C31.884 4.753 36 10.895 36 18c0 9.942-8.058 18-18 18-9.94 0-18-8.057-18-18C0 8.06 8.06 0 18 0z" fill="#F2F4F7"/><path fill-rule="evenodd" clip-rule="evenodd" d="M32 20.101h-.757v-.732H32v.732zm-26.376.037c1.07 0 1.601-.319 1.601-1.465 0-1.04-.395-1.505-1.455-1.505-.466 0-.785.037-1.017.233V16H4v2.743c0 1.05.46 1.395 1.624 1.395zm4.328-1.866v-.135c0-.33-.216-.4-.79-.4-.54 0-1.022.113-1.271.2V17.4a3.782 3.782 0 0 1 1.298-.233c.823 0 1.52.13 1.52 1.061v.877c0 1.027-.837 1.032-1.52 1.032-1.028 0-1.53-.285-1.53-.87 0-.785.502-.937 2.293-.996zm5.888.665v1.164h-.747V16h.753v2.289h.14c.222 0 .298-.039.455-.195l.882-.867h.866l-1.337 1.37 1.44 1.504h-.964l-.92-.983c-.157-.164-.216-.18-.438-.18h-.13zm-3.771 1.164v-1.807c0-.439.15-.558.79-.558.654 0 .8.12.8.558v1.807h.752v-1.835c0-.816-.595-1.087-1.417-1.087h-.254c-.829 0-1.424.27-1.424 1.087v1.835h.753zm8.696 0v-1.807c0-.439.151-.558.79-.558.654 0 .8.12.8.558v1.807h.753v-1.835c0-.816-.596-1.087-1.418-1.087h-.254c-.829 0-1.424.27-1.424 1.087v1.835h.753zm4.977-2.3h-1.255v1.402c0 .26.19.367.499.367.35 0 .594-.037.773-.08v.52c-.297.08-.611.128-.866.128-.833 0-1.147-.346-1.147-.87v-2.945h.741v.926h1.256v.552zm-20.13 1.787c-.773 0-.892-.135-.892-1.009 0-.74.243-.843.86-.843.623 0 .866.104.866.843 0 .874-.135 1.01-.833 1.01zm24.27-1.435c0-.779.569-1 1.083-1 .238 0 .832.032.968.06v.545h-.779c-.416 0-.519.038-.519.438V20.1h-.753v-1.948zM19.331 20.1h-.758v-2.873h.758V20.1zm-10.098-.513c.557 0 .72-.087.72-.363v-.45l-.682.033c-.687.039-.844.136-.844.363 0 .34.102.417.806.417zm10.098-2.856h-.758V16h.758v.732zm7.645 2.309c.05.35.222.563.807.563a4.44 4.44 0 0 0 1.418-.223v.509c-.293.158-.931.26-1.397.26-1.222 0-1.623-.303-1.623-1.522 0-1.065.346-1.465 1.608-1.465 1.044 0 1.509.352 1.52.94 0 .737-.504.916-2.333.938zm.402-.563c.984-.043 1.14-.125 1.14-.352 0-.27-.178-.4-.74-.4-.72 0-.812.134-.812.774l.412-.022z" fill="#F60"/></svg>