<svg width="36" height="36" fill="none" xmlns="http://www.w3.org/2000/svg"><path d="M18 0c2.837 0 5.52.656 7.907 1.825C31.884 4.753 36 10.895 36 18c0 9.942-8.058 18-18 18-9.94 0-18-8.057-18-18C0 8.06 8.06 0 18 0z" fill="#F2F4F7"/><g fill="#00789E"><path fill-rule="evenodd" clip-rule="evenodd" d="M31.11 15.502a.404.404 0 1 1 .81 0 .404.404 0 0 1-.81 0zm-.08 0a.485.485 0 1 1 .97 0 .485.485 0 0 1-.97 0zm.42.02h.011l.167.248h.101l-.173-.251a.133.133 0 0 0 .098-.046.183.183 0 0 0 .04-.103l-.012-.071-.037-.052-.057-.026-.078-.003h-.126l-.039.553h.085l.018-.247.001-.001zm.011-.07.012-.158h.015c.04 0 .07.003.089.015l.026.067-.033.062c-.018.012-.05.015-.09.012h-.015l-.004.003z"/><path d="m9.463 15-1.87 6.145h1.62l.294-1.154h-.344l.87-3.384.15 2.416h.32l-.06 2.122h1.306L10.709 15H9.462zm3.299 0-.406 6.145h2.477l.077-1.154h-1.271L14.014 15h-1.252zm3.129 0-.406 6.145h2.477l.077-1.154h-1.271L17.144 15h-1.253zm4.358 0-1.87 6.145h1.62l.294-1.154h-.344l.87-3.384.15 2.416h.32l-.061 2.122h1.307L21.495 15h-1.246z"/><path fill-rule="evenodd" clip-rule="evenodd" d="M28.294 21.145c2.225 0 2.647-2.054 2.724-3.258.04-.645-.034-1.924-.926-2.516-.386-.255-.846-.371-1.701-.371h-.7l-.4 6.145h1.003zm.22-1.153.256-3.897c.974.006 1.09 1.08 1.047 1.839-.044.77-.317 2.112-1.303 2.058zm-4.181 1.153.188-2.856.89 2.856h1.235l-.873-2.805c.801-.399.944-1.315.944-1.689 0-1.079-.78-1.651-1.898-1.651h-1.233l-.406 6.145h1.153zm.337-5.108h.137c.416 0 .73.16.73.614 0 .523-.254.976-.826.976h-.146l.105-1.59zM5.245 21.145c1.174 0 2.184-.589 2.184-1.873 0-.448-.237-1.047-.645-1.27.667-.5.727-1.083.727-1.504 0-.81-.564-1.498-1.832-1.498H4.406L4 21.145h1.245zm.146-3.593.1-1.522c.484-.003.897.113.897.666 0 .593-.428.876-.997.856zm.86 1.778c0 .545-.526.804-1.03.785l.11-1.67c.616.019.92.275.92.885z"/></g></svg>