<svg height="36" viewBox="0 0 36 36" width="36" xmlns="http://www.w3.org/2000/svg"><g fill="none"><path d="M18 0c2.837 0 5.52.656 7.907 1.825C31.884 4.753 36 10.895 36 18c0 9.942-8.058 18-18 18-9.94 0-18-8.057-18-18C0 8.06 8.06 0 18 0z" fill="#f2f4f7"/><path d="M7.563 19.894V16h.887v3.894h-.886zm17.24-1.455c0-.941-.73-1.525-1.585-1.525-.86 0-1.584.59-1.584 1.525 0 .94.73 1.53 1.584 1.53.855 0 1.585-.595 1.585-1.53zm-.876 0c0 .492-.33.768-.714.768-.384 0-.714-.276-.714-.768 0-.498.33-.763.714-.763.384 0 .714.265.714.763zm-16.72.335c0-.438-.227-.773-.633-.925.384-.21.519-.486.519-.81 0-.569-.411-1.039-1.33-1.034H4V19.9h1.839c.924-.005 1.368-.465 1.368-1.125zm-1.055-1.622c0 .265-.167.416-.492.416h-.735v-.81h.735c.298 0 .492.13.492.394zm.081 1.562c0 .255-.178.422-.508.422h-.8v-.843h.8c.319 0 .508.162.508.422zm8.696-1.005c-.244-.509-.698-.79-1.385-.79-.81 0-1.536.509-1.536 1.52 0 .984.639 1.53 1.525 1.53.622 0 1.147-.249 1.396-.784l-.714-.368a.689.689 0 0 1-.65.39c-.41 0-.675-.292-.675-.768 0-.476.303-.763.67-.763.287 0 .503.13.639.411zm13.07 0c-.244-.509-.698-.79-1.385-.79-.811 0-1.536.509-1.536 1.52 0 .984.639 1.53 1.525 1.53.622 0 1.147-.249 1.395-.784l-.713-.368a.688.688 0 0 1-.65.39c-.41 0-.675-.292-.675-.768 0-.476.303-.763.67-.763.287 0 .503.13.639.411zm-7.436 2.184-.74-1.308h-.569v1.308h-.913V16h1.649c.892 0 1.514.427 1.514 1.265 0 .536-.265.914-.735 1.147l.854 1.481zm-1.303-2.082h.681c.422 0 .628-.238.628-.519 0-.335-.195-.519-.628-.519h-.681v1.039zm-7.398 2.034v-.611a.564.564 0 0 1-.151.021c-.113 0-.173-.06-.173-.162v-1.011c0-.757-.508-1.157-1.346-1.157-.547 0-1.012.2-1.304.46l.492.55a1.1 1.1 0 0 1 .709-.28c.39 0 .573.194.573.513v.092a2.97 2.97 0 0 0-.697-.086c-.709 0-1.169.34-1.169.903 0 .578.384.881.98.881.405 0 .767-.167.956-.384.114.287.363.363.606.363.167.005.362-.022.524-.092zm-1.195-.914c0 .265-.254.438-.546.438-.276 0-.41-.14-.41-.335 0-.206.15-.357.459-.357.19 0 .357.032.497.065zm20.5.962-1.044-1.811.98-1.065h-.985l-1.033 1.146v-2.158h-.881V19.9h.881v-.703l.422-.449.66 1.152h1zm-13.059 0-1.044-1.811.98-1.065h-.996l-1.022 1.146v-2.158h-.881V19.9h.881v-.703l.422-.449.66 1.152h1v-.006zm13.6-.54c.184 0 .292.113.292.286s-.108.287-.292.287-.292-.114-.292-.287.108-.286.292-.286zm0 .535c.146 0 .243-.087.243-.249s-.102-.248-.243-.248c-.146 0-.243.086-.243.248-.006.168.097.249.243.249zm-.114-.395h.12c.07 0 .108.038.108.092 0 .049-.022.076-.06.092l.054.103h-.054l-.049-.092h-.065v.092h-.054zm.054.044v.102h.06c.038 0 .06-.01.06-.048 0-.033-.017-.049-.055-.049h-.065z" fill="#000"/></g></svg>