<svg width="36" height="36" fill="none" xmlns="http://www.w3.org/2000/svg"><path d="M18 0c2.837 0 5.52.656 7.907 1.825C31.884 4.753 36 10.895 36 18c0 9.942-8.058 18-18 18-9.94 0-18-8.057-18-18C0 8.06 8.06 0 18 0z" fill="#F2F4F7"/><g fill="#007DA4"><path d="M14.282 13.455h1.97c.724-.014 1.522.177 1.522 1.055 0 .378-.224.681-.556.85.448.13.724.517.724.994 0 1.003-.738 1.306-1.639 1.306h-2.02v-4.205zm1.093 1.652h.849c.187 0 .448-.098.448-.401 0-.308-.22-.406-.448-.406h-.85v.807zm0 1.676h.882c.345 0 .588-.126.588-.472 0-.368-.262-.494-.588-.494h-.878v.966h-.004zm2.87-2.18h.97v.537h.015c.15-.387.49-.593.92-.593.074 0 .158.005.233.024v.915a1.339 1.339 0 0 0-.383-.061c-.495 0-.756.34-.756.723v1.512H18.24v-3.057h.005zm3.459-.383H20.7v-.765h1.004v.765zm-1.004.383h1.004v3.057H20.7v-3.057zm3.445.649h-.621v1.391c0 .243.14.294.36.294.083 0 .172-.01.26-.01v.738c-.181.005-.363.028-.545.028-.855 0-1.074-.247-1.074-1.078v-1.363h-.509v-.649h.51v-.924h1.003v.924h.616v.65zm1.311-1.032h-1.003v-.765h1.003v.765zm-.999.383h1.004v3.057h-1.004v-3.057zm2.269 2.049a.41.41 0 0 0 .163.341.63.63 0 0 0 .374.107c.196 0 .471-.084.471-.322 0-.233-.313-.284-.49-.322-.63-.158-1.419-.177-1.419-1.003 0-.738.793-.938 1.396-.938.672 0 1.372.196 1.41.99h-.925c0-.132-.047-.21-.13-.267a.615.615 0 0 0-.318-.075c-.163 0-.43.02-.43.23 0 .288.673.34 1.13.442.62.127.78.57.78.827 0 .821-.78 1.092-1.466 1.092-.724 0-1.466-.243-1.498-1.097h.952v-.005zm2.231-3.197h1.003v1.568h.01c.154-.312.564-.508.928-.508 1.018 0 1.102.742 1.102 1.185v1.96h-1.003v-1.48c0-.415.046-.84-.5-.84-.378 0-.541.318-.541.654v1.666h-1.004v-4.205h.005zm-14.675 4.999h1.093v3.262h1.965v.943h-3.058v-4.205zm3.492 2.091c.018-.402.205-.658.476-.822.27-.154.625-.21.97-.21.724 0 1.429.16 1.429 1.027v1.34c0 .261 0 .541.116.784h-1.008c-.037-.093-.046-.187-.06-.29-.262.271-.645.379-1.008.379-.584 0-1.041-.294-1.041-.925 0-.994 1.082-.919 1.778-1.059.173-.037.266-.093.266-.285 0-.228-.275-.317-.486-.317-.275 0-.452.121-.499.383h-.933v-.005zm1.297 1.582c.476 0 .635-.27.612-.9-.14.088-.402.107-.621.163-.224.051-.41.15-.41.387 0 .252.195.35.42.35zm2.012-2.525h.97v.42h.01c.182-.313.598-.509.962-.509 1.017 0 1.101.743 1.101 1.186v1.96h-1.004v-1.48c0-.42.047-.84-.499-.84-.378 0-.541.318-.541.654v1.666h-1.004v-3.057h.005zm6.562 3.058h-.956v-.355h-.015a.982.982 0 0 1-.844.443c-.962 0-1.368-.826-1.368-1.685 0-.793.425-1.55 1.288-1.55.378 0 .668.14.873.42h.014v-1.48h1.008v4.206zm-2.175-1.564c0 .42.154.882.612.882.49 0 .597-.467.597-.854 0-.444-.159-.85-.597-.85-.458.005-.612.434-.612.822zm-12.611.513c-.416.126-.943.327-1.83.616.191-.737.299-1.797.233-2.926-.387-.056-.807-.16-.998-.243.084 1.736-.28 3.459-.397 3.52 0 0-1.39.475-2.983.382-.938-.056-1.96-.322-2.828-.957L4 23.033c.27.238 1.564 1.022 2.94 1.022 1.657.028 3.058-.411 4.416-.864.98-.326 1.503-.522 1.503-.522v-1.06z"/><path d="M4.742 19.915c-.173.14-.331.326-.448.565-.159.326-.205.77-.22 1.012.738.495 1.933.967 3.291.967-.737-.332-1.825-1.083-2.623-2.544z"/><path d="M8.075 22.426s.583-.051 1.241-.21c-1.218-.238-2.968-1.302-3.944-2.633-.004 0-.01 0-.01.005-.125.033-.28.098-.428.196.415.682 1.264 1.774 3.14 2.642zm3.585-1.302c.023 0 .447-.388.867-1.092a1.918 1.918 0 0 0-.807-.612c.037.542.042 1.05-.06 1.704zm-.047.401c.252-.084.812-.27 1.246-.401V20.9a1.25 1.25 0 0 0-.06-.364 2.046 2.046 0 0 0-.099-.234c-.285.458-.64.882-1.087 1.223zm-1.989.163c.024-.06.038-.12.052-.182a4.87 4.87 0 0 0 .046-.261l.042-.317c.014-.122.024-.238.038-.36l.028-.383c.009-.13.014-.256.018-.387.005-.126.01-.247.01-.373 0-.112 0-.229-.005-.341-.01-.261-.051-.518.023-.775a1.25 1.25 0 0 1 .22-.43c.098-.125.242-.247.406-.256.466-.028.999.15 1.115-.084.112-.22.028-.364.01-.434-.056-.14.098-.229.098-.229.121-.102-.024-.214-.024-.214.257-.075.117-.224.117-.224-.051-.066-.056-.234-.056-.234s.098-.075.243-.159c.084-.046.116-.154-.024-.294-.378-.41-.476-.616-.476-.616-.023-.046-.018-.098.024-.121.042-.023.056-.028.056-.065.042-.556-.238-1.074-.44-1.33.066-.052.132-.047.132-.047a1.91 1.91 0 0 0-.626-.439c.556-.373.663-1.083.663-1.083.103-.509.593-.877.593-.877-1.289-.168-1.9.093-1.9.093-.037-.135.06-.266.06-.266-1.39.2-1.726.686-1.74.705-.08-.084-.122-.243-.122-.243-.546.611-.737 1.064-.83 1.34a.748.748 0 0 1-.164-.15c-.308.803-.313 1.321-.294 1.606a.692.692 0 0 1-.22-.08c.047.757.192 1.223.318 1.499-.098.018-.191-.019-.191-.019.07.178.15.35.233.518.07.136.14.266.224.397a2.263 2.263 0 0 0 .276.364c.046.051.102.093.149.14.103.098.14.247.15.387.079 1.065-1.06 1.643-1.868 1.928 1.63 1.718 3.459 2.282 3.636 2.296z"/></g></svg>