<svg width="36" height="36" fill="none" xmlns="http://www.w3.org/2000/svg"><path d="M18 0c2.837 0 5.52.656 7.907 1.825C31.884 4.753 36 10.895 36 18c0 9.942-8.058 18-18 18-9.94 0-18-8.057-18-18C0 8.06 8.06 0 18 0z" fill="#F2F4F7"/><path d="M5.976 19.213H4v-4.145h1.93c.85 0 1.4.437 1.4 1.114v.01a.978.978 0 0 1-.423.842c.445.214.646.525.646.991v.012c-.004.748-.578 1.175-1.579 1.175l.002.001zm-.95-.94h.95c.353 0 .531-.116.531-.344v-.011c0-.345-.42-.345-.56-.345h-.922v.7zm0-1.6h.718c.542 0 .542-.25.542-.332v-.012c0-.265-.264-.321-.486-.321h-.775v.666zm4.906 2.608c-1.25 0-2.192-.915-2.192-2.129v-.011c0-1.2.968-2.141 2.203-2.141 1.25 0 2.193.913 2.193 2.13v.01c-.001 1.202-.966 2.143-2.202 2.141h-.002zm0-3.301c-.63 0-1.105.494-1.105 1.15v.01c0 .662.482 1.16 1.116 1.16.63 0 1.104-.494 1.104-1.15v-.011c0-.662-.479-1.16-1.113-1.16h-.002zm6.308 3.233h-1.233l-.851-1.27h-.553v1.27h-1.048v-4.145h1.903c.977 0 1.586.536 1.586 1.397v.012c0 .591-.285 1.039-.806 1.27l1.001 1.466zm-2.637-2.216h.798c.365 0 .582-.178.582-.475v-.011c0-.397-.326-.48-.6-.48h-.78v.966zm7.405 2.215v-4.146h1.044v3.194h1.98v.952h-3.024zm6.316-2.56v.952h-1.87v.656h2.155v.952h-3.2v-4.146h3.172v.952h-2.127v.634h1.87zm1.832-1.586.788 1.214.793-1.214h1.203l-1.384 2.03L32 19.211h-1.236l-.842-1.29-.848 1.29h-1.208l1.443-2.106-1.383-2.04h1.23zm-9.496 4.147h1.106L19 15.066h-.943l-1.764 4.147h1.075l-1.132 2.768c-.002.005 0 .01.005.012.005 0 .011 0 .013-.005l2.634-3.724h-1.121l.75-1.856 1.141 2.804v.001z" fill="#0082C8"/></svg>