<svg height="36" viewBox="0 0 36 36" width="36" xmlns="http://www.w3.org/2000/svg"><mask id="a" fill="#fff"><path d="M0 0h2.613v3.935H0z" fill-rule="evenodd"/></mask><g fill="none" fill-rule="evenodd"><path d="M18 0c2.837 0 5.52.656 7.907 1.825C31.884 4.753 36 10.895 36 18c0 9.942-8.058 18-18 18-9.94 0-18-8.057-18-18C0 8.06 8.06 0 18 0z" fill="#f2f4f7" fill-rule="nonzero"/><path d="M2.259 2.507a.177.177 0 1 0 .354 0V1.32a.177.177 0 1 0-.354 0zm-.565-.233a.183.183 0 1 0 .365 0V.517a.183.183 0 0 0-.365 0zm-.565-.134a.183.183 0 0 0 .365 0V.182a.183.183 0 0 0-.365 0zm-.564.042c0 .101.08.182.182.182s.183-.081.183-.182V.726a.182.182 0 0 0-.365 0zm.526 1.654a.18.18 0 0 1-.238.082C.295 3.647 0 3.171 0 2.539v-.714c0-.098.08-.177.178-.177s.178.079.178.177v.714c0 .493.219.848.653 1.058a.18.18 0 0 1 .082.239z" fill="#be2bbb" mask="url(#a)" transform="translate(4 16)"/><path d="M28.888 17.304c0 .129-.06.19-.162.19s-.162-.061-.162-.19.059-.193.162-.193.162.064.162.193zm2.844 1.32c0 .397-.14.527-.366.527-.228 0-.367-.13-.367-.527v-.215c0-.398.139-.527.367-.527.227 0 .366.129.366.527zm-.335-.976a.403.403 0 0 0-.382.234h-.012v-.739h-.265v2.21h.265v-.202h.012a.403.403 0 0 0 .382.234c.414 0 .603-.285.603-.746v-.246c0-.461-.19-.745-.603-.745zm-1.188.976c0 .397-.14.527-.366.527s-.367-.13-.367-.527v-.215c0-.398.14-.527.367-.527s.366.129.366.527zm-.335-.976a.403.403 0 0 0-.382.234h-.012v-.739h-.265v2.21h.265v-.202h.012a.403.403 0 0 0 .382.234c.414 0 .603-.285.603-.746v-.246c0-.461-.19-.745-.603-.745zm-1.28 1.705h.265v-1.674h-.265zm-.606-1.674h.265v1.674h-.265v-.215h-.013a.43.43 0 0 1-.41.247c-.313 0-.506-.177-.506-.572v-1.134h.269v1.096c0 .269.11.386.309.386.193 0 .35-.13.35-.455zM26.14 19.15c-.227 0-.366-.13-.366-.527v-.215c0-.398.139-.527.366-.527s.367.129.367.527v.215c0 .397-.14.527-.367.527zm.363-1.27h-.012a.406.406 0 0 0-.382-.233c-.414 0-.603.284-.603.745v.246c0 .46.189.746.603.746.174 0 .31-.086.382-.234h.012v.738h.265v-2.21h-.265zm-1.198.888c0 .395-.272.616-.69.616-.39 0-.712-.19-.753-.613h.294c.034.249.21.366.458.366.28 0 .407-.167.407-.353 0-.628-1.124-.266-1.124-1.09 0-.353.28-.584.672-.584.379 0 .695.187.714.622h-.294c-.025-.268-.196-.375-.423-.375-.268 0-.385.157-.385.325 0 .556 1.124.227 1.124 1.086zm-2.108.123c0 .323-.24.493-.59.493-.354 0-.588-.152-.607-.493h.265c.01.205.162.272.342.272.179 0 .325-.08.325-.253 0-.407-.913-.126-.913-.786 0-.275.202-.477.572-.477.338 0 .562.167.587.492h-.265c-.016-.195-.151-.271-.322-.271-.193 0-.313.088-.313.256 0 .394.919.15.919.767zm-1.421-1.213h.082v.259h-.066c-.265 0-.44.133-.44.484v.93h-.264V17.68h.265v.3h.013a.406.406 0 0 1 .41-.3zm-1.586.203c.215 0 .33.126.334.51h-.7c.003-.384.142-.51.366-.51zm0-.234c-.414 0-.635.297-.635.745v.246c0 .46.22.746.635.746.33 0 .527-.183.593-.497h-.271c-.047.194-.155.263-.322.263-.227 0-.366-.13-.366-.527v-.022h.969v-.21c0-.447-.19-.744-.603-.744zm-.981.03h.268l-.742 2.21h-.274l.186-.522-.543-1.687h.28l.402 1.304h.012zm-1.74-.535h.45v2.21h-.281v-1.904h-.016l-.565 1.538h-.344l-.56-1.538h-.015v1.904h-.277v-2.21h.472l.557 1.535h.016zm-2.824 2.21h.265v-2.21h-.265zm-.548-.73c0 .398-.14.528-.366.528-.228 0-.366-.13-.366-.527v-.215c0-.398.138-.527.366-.527.227 0 .366.129.366.527zm-.366-.975c-.414 0-.635.284-.635.745v.246c0 .46.22.746.635.746.413 0 .634-.285.634-.746v-.246c0-.461-.221-.745-.634-.745zm-1.144.03h.36v.235h-.36v.926c0 .243.063.293.224.293.044 0 .095-.006.136-.01v.228c-.05.009-.117.016-.164.016-.33 0-.461-.13-.461-.486v-.967h-.281v-.234h.28v-.536h.266zm-.612 1.214c0 .323-.24.493-.59.493-.354 0-.587-.152-.606-.493h.265c.009.205.16.272.34.272s.326-.08.326-.253c0-.407-.912-.126-.912-.786 0-.275.2-.477.57-.477.339 0 .563.167.588.492h-.265c-.016-.195-.152-.271-.322-.271-.193 0-.313.088-.313.256 0 .394.919.15.919.767zm-1.442-1.588c0 .129-.06.19-.162.19s-.162-.061-.162-.19.059-.193.162-.193.162.064.162.193zm-.294 2.049h.266v-1.674h-.266zm-.318-1.674h.082v.259h-.067c-.265 0-.44.133-.44.484v.93h-.264V17.68h.265v.3h.013a.406.406 0 0 1 .41-.3zM8.7 18.73c0 .274-.215.375-.53.375h-.36v-.796h.366c.31 0 .524.103.524.386zm-.89-1.34h.325c.309 0 .467.119.467.329v.02c0 .255-.22.336-.507.336H7.81zm.692.78v-.011c.23-.078.373-.216.373-.463v-.038c0-.283-.231-.516-.7-.516h-.65v2.21h.697c.457 0 .77-.23.77-.596v-.023c0-.286-.17-.496-.49-.562z" fill="#595454"/></g></svg>