<svg height="36" viewBox="0 0 36 36" width="36" xmlns="http://www.w3.org/2000/svg"><g fill="none"><path d="M18 0c2.837 0 5.52.656 7.907 1.825C31.884 4.753 36 10.895 36 18c0 9.942-8.058 18-18 18-9.94 0-18-8.057-18-18C0 8.06 8.06 0 18 0z" fill="#f2f4f7"/><g fill="#28539c"><path d="m12.918 10.892-.748-.352.484 1.013-.573 1.233.793-.44.969 1.276-.176-1.585.924-.484-.924-.397.132-1.365zm2.835 12.143a8.462 8.462 0 0 1-6.24-8.191 8.491 8.491 0 1 1 14.653 5.842s-.591-.767-.767-1.03c-.177-.265-.44-.298-.397-.662.053-.439.397-.88.397-.88l.088.352s2.472-2.599 2.201-4.36c-.176-1.144-.88-1.276-.88-1.276s.176-1.057-1.454-1.85c-1.629-.792-2.862-.66-2.862-.66l.705.528s-.848-.151-1.277-.044l-.352.088.456.22s-.93.043-1.557.529c-.49.38-.529.617-.529.617h.353s-.309.528-.397 1.056c-.088.529-.05.672-.05.672s0 .248-.445.578c-.326.242-.644.297-.743.43-.15.199.314.522.314.522s-.033.237-.248.501c-.098.12.248.33.363.38l-.28.231s-.1.1.065.215c.166.115.1.363.034.627-.067.264-.199.677.693.776.892.1.941.264 1.024.38.082.116.594 1.569.33 1.8-.363.318-1.001.224-2.23 1.057-.924.627-.968 1.552-.968 1.552z"/><path d="M18.588 13.639s.297.446.413.528c.115.083.148.198.065.215-.082.016-.66 0-.66 0l.033-.1s-.05-.131 0-.263a.338.338 0 0 1 .182-.182zM8.554 26.293h1.282c.978 0 1.18.925 1.18 1.536 0 .692-.246 1.69-1.205 1.69H8.554v-3.226zm.594 2.669h.59c.494 0 .66-.553.66-1.083 0-.953-.409-1.029-.668-1.029h-.582v2.112zm2.954.557h-.639l1.035-3.226h.7l1.023 3.226h-.66l-.185-.665h-1.072zm.364-1.222h.74l-.36-1.277h-.008zm4.334-2.004h.566v3.226h-.607l-1.184-2.3h-.009v2.3H15v-3.226h.64l1.152 2.246h.008zm2.978-.111c.424 0 1.538.188 1.538 1.732 0 1.545-1.114 1.733-1.538 1.733-.423 0-1.538-.188-1.538-1.733 0-1.544 1.115-1.732 1.538-1.732zm0 2.883c.361 0 .87-.23.87-1.15 0-.922-.509-1.15-.87-1.15-.36 0-.87.228-.87 1.15 0 .92.51 1.15.87 1.15zm4.243-2.772h.566v3.226h-.607l-1.184-2.3h-.008v2.3h-.566v-3.226h.638l1.153 2.246h.008zm3.356.57h-1.138v.679h1.013v.57H26.24v.836h1.207v.57h-1.802v-3.225h1.733z"/></g></g></svg>