<svg width="36" height="36" fill="none" xmlns="http://www.w3.org/2000/svg"><path d="M18 0c2.837 0 5.52.656 7.907 1.825C31.884 4.753 36 10.895 36 18c0 9.942-8.058 18-18 18-9.94 0-18-8.057-18-18C0 8.06 8.06 0 18 0z" fill="#F2F4F7"/><g fill="#EC111A"><path d="M10.804 17.214a1.386 1.386 0 1 0-.003 2.772 1.386 1.386 0 0 0 .003-2.772zm0 1.997a.612.612 0 1 1 .009-1.223.612.612 0 0 1-.01 1.223zm3.15-1.931h-.378v-.819h-.829v.818h-.378v.751h.378v1.89h.83v-1.89h.377v-.75zm.379 0h.828v2.639h-.828v-2.64zm.415-1.28a.462.462 0 1 0-.003.924.462.462 0 0 0 .003-.924zm11.872 1.991a.494.494 0 0 1 .492.493v1.44h.828v-1.542c0-.7-.405-1.157-1.045-1.157-.263 0-.54.115-.768.485v-.42h-.829v2.633h.822v-1.439a.494.494 0 0 1 .5-.493zm4.337 1.929L29.94 18.6l.944-1.321h-.967l-.76 1.07v-2.283h-.828v3.854h.828v-1.088l.834 1.088h.965zM6.57 19.209c.064-.154.094-.32.09-.487a1.003 1.003 0 0 0-.237-.67c-.176-.195-.478-.357-.897-.48a1.41 1.41 0 0 1-.236-.084.594.594 0 0 1-.175-.13.303.303 0 0 1-.076-.215.313.313 0 0 1 .168-.273.813.813 0 0 1 .655 0c.093.034.182.076.267.125l.352-.7a2.018 2.018 0 0 0-.504-.223 2.242 2.242 0 0 0-.56-.072 1.484 1.484 0 0 0-.528.087 1.19 1.19 0 0 0-.402.262 1.22 1.22 0 0 0-.357.888c.01.265.122.516.312.7.182.16.394.279.625.35.11.042.23.08.308.109.08.03.156.068.226.115a.39.39 0 0 1 .121.14.307.307 0 0 1 .027.17.34.34 0 0 1-.118.226.56.56 0 0 1-.38.105 1.151 1.151 0 0 1-.463-.11 3.478 3.478 0 0 1-.368-.205L4 19.56a1.878 1.878 0 0 0 1.797.328c.174-.058.334-.148.474-.265.128-.116.23-.256.3-.413zm24.971-.212a.462.462 0 1 0-.006.924.462.462 0 0 0 .006-.924zm0 .83a.37.37 0 1 1-.003-.738.37.37 0 0 1 .003.739z"/><path d="M31.54 19.535h-.075v.175h-.09v-.504h.192c.093 0 .168.075.168.168a.167.167 0 0 1-.096.147l.106.189h-.109l-.097-.175zm-.075-.084h.107a.077.077 0 0 0 .076-.077.077.077 0 0 0-.076-.077h-.107v.154zm-22.628-.468a.61.61 0 1 1 0-.765l.547-.55a1.378 1.378 0 0 0-1.023-.452c-.763-.002-1.421.543-1.421 1.383s.665 1.387 1.428 1.387c.39 0 .762-.165 1.025-.454l-.556-.549zm9.562.94V17.28h-.806v.28l-.076-.065a1.006 1.006 0 0 0-.7-.28c-.713 0-1.315.634-1.315 1.385 0 .75.604 1.387 1.315 1.387.26 0 .512-.1.7-.28l.076-.066v.28l.806.003zm-1.448-.7a.624.624 0 1 1 .009-1.249.624.624 0 0 1-.009 1.249zm7.951.7V17.28h-.806v.28l-.076-.065a1.01 1.01 0 0 0-.7-.28c-.713 0-1.314.634-1.314 1.385 0 .75.603 1.387 1.314 1.387.26 0 .511-.1.7-.28l.076-.066v.28l.806.003zm-1.442-.7a.625.625 0 1 1-.002-1.25.625.625 0 0 1 .002 1.25zm-3.825.7v-.28l.074.065c.189.18.44.281.7.28.713 0 1.315-.634 1.315-1.386 0-.752-.602-1.386-1.314-1.386-.261 0-.512.1-.7.28l-.075.066v-1.496h-.808v3.857h.808zm.017-1.321a.625.625 0 1 1 .624.62.625.625 0 0 1-.624-.623v.003z"/></g></svg>