<svg height="36" viewBox="0 0 36 36" width="36" xmlns="http://www.w3.org/2000/svg"><g fill="none"><path d="M18 0c2.837 0 5.52.656 7.907 1.825C31.884 4.753 36 10.895 36 18c0 9.942-8.058 18-18 18-9.94 0-18-8.057-18-18C0 8.06 8.06 0 18 0z" fill="#f2f4f7"/><path d="M8.233 19.078H8.7V16h-.468zM11.21 16h-.173c-.603 0-1.051.127-1.332.378-.28.25-.422.646-.422 1.177 0 .275.034.512.103.705.068.19.173.348.313.468.14.121.322.21.54.266.22.056.486.084.793.084h.183c.303 0 .569-.028.79-.084.22-.056.402-.145.543-.266.14-.12.245-.278.313-.468.068-.193.103-.43.103-.705 0-.53-.143-.926-.425-1.176-.282-.252-.73-.379-1.33-.379zm.969 2.357c-.205.171-.537.258-.985.258h-.141c-.449 0-.78-.088-.985-.26-.207-.175-.312-.446-.312-.805 0-.356.106-.63.314-.813.207-.181.54-.274.988-.274h.152c.438.004.764.099.97.282.205.185.31.457.31.81.001.36-.104.63-.311.802zM31.53 16v1.31l-3.169-.002v1.77h.468v-1.305h2.7v1.305H32V16zm-10.572.463h2.586V16h-2.586zm3.597-.085c-.28.25-.422.646-.422 1.177 0 .275.035.512.103.705.068.19.173.348.313.468.14.121.322.21.54.266.22.056.487.084.793.084h1.89v-.463h-1.869c-.448 0-.78-.088-.985-.26-.207-.175-.312-.446-.312-.805 0-.356.106-.63.314-.813.207-.181.54-.274.988-.274h1.864V16h-1.885c-.603 0-1.051.127-1.332.378zM19.9 17.771h3.644v-.464H19.9zm0 1.307h3.644v-.463H19.9zM7.433 16.222a.764.764 0 0 0-.27-.162c-.109-.04-.24-.06-.389-.06H4v.463h2.774c.123 0 .221.035.293.104.072.07.109.176.109.315s-.037.246-.108.318a.395.395 0 0 1-.294.11H4.468v-.002H4v1.77h2.774c.153 0 .286-.02.395-.06.11-.04.2-.095.27-.162a.628.628 0 0 0 .154-.237.858.858 0 0 0 .05-.298v-.264c0-.311-.366-.507-.507-.507a.01.01 0 0 1 0-.02c.142 0 .508-.197.508-.508v-.264a.825.825 0 0 0-.053-.295.647.647 0 0 0-.158-.24zm-.257 1.975c0 .138-.037.244-.108.314a.406.406 0 0 1-.294.104H4.652v.003h-.184v-.847h.184v.002h2.177c.23.023.347.165.347.424z" fill="#3c9673"/><g fill="#becd33"><path d="M18.315 19.078h.468v-2.615h1.585V16H16.73v.463h1.585z"/><path d="M13.554 16v3.078h.468v-2.445l2.724 2.445h.452v-2.026h-.468v1.363L14.044 16z"/></g></g></svg>