<svg width="36" height="36" fill="none" xmlns="http://www.w3.org/2000/svg"><path d="M18 0c2.837 0 5.52.656 7.907 1.825C31.884 4.753 36 10.895 36 18c0 9.942-8.058 18-18 18-9.94 0-18-8.057-18-18C0 8.06 8.06 0 18 0z" fill="#F2F4F7"/><g fill-rule="evenodd" clip-rule="evenodd"><path d="M8 8h20v19.429H8V8z" fill="#fff"/><path d="M8 15.089h20V8H8v7.089z" fill="#093566"/><path d="M8 27.429h20v-7.085H8v7.085z" fill="#74B943"/><path d="M9.411 18.207h.252c.31 0 .468.113.468.306s-.158.305-.468.305h-.252v-.61zM8 19.767h1.997c1.036 0 1.563-.375 1.563-1.083 0-.503-.275-.803-.843-.91.41-.086.65-.376.65-.794 0-.632-.486-1.045-1.364-1.045H8v3.832zm1.411-2.92h.2c.245 0 .374.096.374.267 0 .172-.129.268-.375.268h-.199v-.536zm2.423-.912h1.607v2.036c0 .392.069.621.444.621.369 0 .45-.23.45-.62v-2.037h1.607v2.026c0 .449-.05.804-.262 1.085-.338.45-.988.72-1.795.72-.807 0-1.457-.276-1.794-.72-.213-.281-.257-.636-.257-1.085v-2.025zm4.382 0h1.546l1.312 2.004.002-2.004h1.522v3.832h-1.559l-1.3-1.988-.001 1.988h-1.522v-3.832z" fill="#093566"/><path d="M22.206 17.077h-1.528v-1.142h4.028l-1.828 2.653h1.614v1.178h-4.168l1.882-2.69zm2.5-1.142h1.527v2.588h1.485v1.244h-3.012v-3.832z" fill="#093566"/></g></svg>