<svg height="36" viewBox="0 0 36 36" width="36" xmlns="http://www.w3.org/2000/svg"><mask id="a" fill="#fff"><path d="M0 0h26.085v4.596H0z" fill-rule="evenodd"/></mask><mask id="b" fill="#fff"><path d="M0 0h1.552v4.595H0z" fill-rule="evenodd"/></mask><g fill="none" fill-rule="evenodd"><path d="M18 0c2.837 0 5.52.656 7.907 1.825C31.884 4.753 36 10.895 36 18c0 9.942-8.058 18-18 18-9.94 0-18-8.057-18-18C0 8.06 8.06 0 18 0z" fill="#f2f4f7" fill-rule="nonzero"/><path d="M25.049 0v2.58L23.442 0H22.27v4.596h1.098V2.019l1.66 2.577h1.057V0zm-3.121 1.044V0h-3.74v4.596h3.74v-1.05h-2.661V2.78h2.661V1.73h-2.661v-.686zm-6.855 2.502h1.658V1.044h-1.658zM17.158 0h-3.149v4.596h3.149l.658-.673V.666zm-4.622 4.596h1.086V0h-1.086zm-2.898-1.05V0H8.566v4.596h3.662v-1.05zm-4.314 0h1.802V1.044H5.324zM7.548 0H4.896l-.651.667v3.257l.68.672h2.593l.679-.672V.667zM1.079 1.73h1.716v-.686H1.079zm0 1.816h1.716V2.78H1.079zM3.882.666 3.223 0H0v4.596h3.223l.659-.673V2.559l-.375-.362.375-.381z" fill="#3c577c" mask="url(#a)" transform="translate(5.915 16)"/><path d="M0 3.2h.297l.165.86.178-.86h.27l.192.857.155-.856h.295l-.266 1.394h-.32l-.184-.787-.176.787H.284zM1.159 0v.803A32.986 32.986 0 0 0 .432 0H.075v1.394H.41V.489l.757.905h.31V0zm.318 1.914v-.317H.075v1.395h1.402v-.32H.404v-.218h1.073v-.318H.404v-.222z" fill="#70a0cb" mask="url(#b)" transform="translate(4 16)"/></g></svg>