<svg height="36" viewBox="0 0 36 36" width="36" xmlns="http://www.w3.org/2000/svg"><mask id="a" fill="#fff"><path d="M0 0h28v9.374H0z" fill-rule="evenodd"/></mask><g fill="none" fill-rule="evenodd"><path d="M18 0c2.837 0 5.52.656 7.907 1.825C31.884 4.753 36 10.895 36 18c0 9.942-8.058 18-18 18-9.94 0-18-8.057-18-18C0 8.06 8.06 0 18 0z" fill="#f2f4f7" fill-rule="nonzero"/><path d="M21.599 9.312h2.633v-.719H22.38v-.718h1.663v-.718H22.38V6.44h1.852v-.72h-2.633zm-1.676-2.356c0 .29-.24.491-.617.491h-.643v-.995h.617c.39-.013.643.163.643.504zm.794-.013c0-.769-.53-1.223-1.411-1.223h-1.412v3.592h.78V8.165h.619l.73 1.147h.958l-.894-1.349c.428-.239.63-.59.63-1.02zm2.923-2.23c.063-.102.063-.215-.012-.29-.076-.089-.202-.1-.303-.05a.63.63 0 0 0-.164.15c-.176.215-.34.43-.516.655-.063.076-.126.164-.19.24h.392c.2-.176.415-.353.617-.542a.374.374 0 0 0 .176-.164zm-8.304 3.906a1.097 1.097 0 1 1 1.096-1.097 1.082 1.082 0 0 1-1.096 1.097zm0-2.96a1.858 1.858 0 0 0-1.865 1.85c0 1.022.832 1.853 1.865 1.853A1.857 1.857 0 0 0 17.2 7.51c0-1.02-.831-1.85-1.865-1.85zm-9.88 2.96a1.097 1.097 0 1 1 .002-2.192 1.097 1.097 0 0 1-.002 2.192zm0-2.96a1.857 1.857 0 0 0-1.864 1.85c0 1.022.83 1.853 1.864 1.853A1.858 1.858 0 0 0 7.322 7.51c0-1.02-.845-1.85-1.866-1.85zM1.79 8.592H.782V7.85H1.79c.277 0 .44.126.44.365-.012.252-.176.378-.44.378zM.782 6.44h.894c.252 0 .416.113.416.352 0 .227-.164.353-.416.353H.782zm1.789.995c.189-.15.29-.352.29-.643 0-.629-.43-1.058-1.147-1.058H0v3.592h1.702c.818 0 1.323-.39 1.323-1.097.012-.353-.152-.617-.454-.794zm9.048-1.714h-.782v3.592h2.344v-.719h-1.575V5.72zm-2.848 0H7.99v3.592h2.343v-.719H8.77zm16.142-2.633C23.048 1.222 20.755.163 18.612 0c1.979.504 4.083 1.702 5.885 3.503C26.299 5.304 27.496 7.396 28 9.374c-.164-2.14-1.222-4.422-3.087-6.287zm1.65-2.294-.87 1.487 1.488-.869z" fill="#3a75c4" mask="url(#a)" transform="translate(4 13)"/></g></svg>