<svg width="36" height="36" fill="none" xmlns="http://www.w3.org/2000/svg"><path d="M18 0c2.837 0 5.52.656 7.907 1.825C31.884 4.753 36 10.895 36 18c0 9.942-8.058 18-18 18-9.94 0-18-8.057-18-18C0 8.06 8.06 0 18 0z" fill="#F2F4F7"/><path d="M6 16.079v1.2H4.88v-1.2H4v3.2h.88v-1.281H6v1.281h.881v-3.2h-.88zm3.08 3.28c-.72-.004-1.44-.48-1.44-1.44v-1.84h.88v1.919c0 .4.323.559.562.559.24 0 .562-.161.562-.559v-1.919h.875v1.84c0 .96-.72 1.442-1.44 1.44zm3.68 0c-.92 0-1.68-.72-1.68-1.68S11.84 16 12.76 16c.64 0 1.038.319 1.038.319l-.5.62s-.18-.16-.539-.16c-.48 0-.818.42-.818.9 0 .48.339.88.818.88.401 0 .602-.16.602-.16v-.401h-.68v-.7h1.439V18.8s-.44.56-1.36.56zm3.56-2.56c-.479 0-.818.4-.818.88s.34.88.819.88c.48 0 .818-.4.818-.88s-.338-.88-.818-.88zm0 2.56c-.92 0-1.678-.72-1.678-1.68S15.4 16 16.32 16s1.68.72 1.68 1.68c0 .959-.76 1.678-1.68 1.678zm8.439-2.56c-.48 0-.819.4-.819.88s.339.88.819.88c.48 0 .818-.4.818-.88.003-.48-.339-.88-.818-.88zm0 2.56c-.92 0-1.68-.72-1.68-1.68S23.84 16 24.76 16s1.679.72 1.679 1.68c0 .959-.76 1.678-1.68 1.678zm3.561-1c0 .119-.118.22-.319.22-.44 0-.72-.299-.72-.299l-.48.64s.402.441 1.2.441c.64 0 1.2-.4 1.2-.999 0-.96-1.521-1.041-1.521-1.36 0-.119.16-.22.4-.22.32 0 .5.16.5.16l.46-.62s-.401-.32-1.039-.32c-.6 0-1.12.441-1.12 1-.003.957 1.44.996 1.44 1.357zm-6.12-.84a.88.88 0 0 0-.68-1.44H20v3.2h1.66a.98.98 0 0 0 .98-.98.876.876 0 0 0-.44-.78zm-1.38-.74h.499a.279.279 0 1 1 0 .559h-.5v-.56zm.66 1.78h-.66v-.6h.66a.3.3 0 0 1 0 .601zm9.64-.2c0 .119-.119.22-.32.22-.44 0-.719-.299-.719-.299l-.48.64s.401.441 1.2.441c.64 0 1.199-.4 1.199-.999 0-.96-1.521-1.041-1.521-1.36 0-.119.16-.22.4-.22.32 0 .5.16.5.16l.46-.62s-.4-.32-1.038-.32c-.601 0-1.12.441-1.12 1-.004.957 1.438.996 1.438 1.357z" fill="#000"/></svg>