<svg width="36" height="36" fill="none" xmlns="http://www.w3.org/2000/svg"><path d="M18 0c2.837 0 5.52.656 7.907 1.825C31.884 4.753 36 10.895 36 18c0 9.942-8.058 18-18 18-9.94 0-18-8.057-18-18C0 8.06 8.06 0 18 0z" fill="#F2F4F7"/><path d="M11.93 19.412h-.982v-2.995h.994c.554 0 1.036.179 1.036.744 0 .387-.208.601-.53.685v.006c.357.053.655.291.655.72 0 .62-.488.84-1.173.84zm-.053-2.507h-.37v.744h.352c.34 0 .488-.119.488-.387.006-.244-.155-.357-.47-.357zm-.006 1.197h-.357v.822h.333c.363 0 .56-.114.56-.4-.006-.28-.167-.422-.536-.422zm2.864-.352c-.036-.023-.102-.047-.233-.047-.268 0-.422.232-.476.334v1.375h-.595V17.22h.595v.297c.095-.16.274-.35.554-.35.16 0 .244.029.297.059l-.143.524zm1.208 1.715c-.762 0-1.095-.577-1.095-1.143 0-.56.327-1.155 1.09-1.155.761 0 1.106.578 1.106 1.137 0 .554-.333 1.161-1.101 1.161zm-.012-1.851c-.34 0-.452.285-.452.69 0 .405.137.703.47.703.34 0 .464-.28.464-.69 0-.406-.143-.703-.482-.703zm2.584 1.798a1.347 1.347 0 0 1-.036-.232.799.799 0 0 1-.613.285c-.375 0-.66-.226-.66-.613 0-.572.589-.78 1.166-.78h.078v-.125c0-.19-.078-.304-.358-.304-.28 0-.476.15-.56.209l-.261-.363c.13-.12.416-.316.887-.316.595 0 .88.232.88.81v.786c0 .297.03.506.066.649h-.589v-.006zm-.125-.97h-.077c-.352 0-.596.1-.596.356 0 .161.131.227.262.227a.53.53 0 0 0 .405-.197v-.387h.006zm1.94-1.275c.269 0 .43.095.507.155V16.19h.595v2.596c0 .285.036.506.066.625h-.584a1.397 1.397 0 0 1-.047-.238.766.766 0 0 1-.614.297c-.547 0-.899-.41-.899-1.143 0-.709.417-1.16.977-1.16zm.102 1.822c.214 0 .357-.155.41-.22v-.989a.553.553 0 0 0-.38-.143c-.304 0-.47.256-.47.685-.007.417.13.667.44.667zm2.763-1.239c-.036-.023-.102-.047-.227-.047-.268 0-.422.232-.476.334v1.375h-.595V17.22h.595v.297c.095-.16.274-.35.554-.35.16 0 .25.029.297.059l-.148.524zm.672-.81a.334.334 0 0 1-.339-.332c0-.173.143-.328.34-.328a.33.33 0 1 1 0 .66zm.304.28h-.601v2.192h.601V17.22zm1.309-.053c.269 0 .43.095.507.155V16.19h.595v2.596c0 .285.036.506.066.625h-.59a1.407 1.407 0 0 1-.047-.238.766.766 0 0 1-.614.297c-.547 0-.899-.41-.899-1.143 0-.709.423-1.16.983-1.16zm.102 1.822c.214 0 .357-.155.41-.22v-.989a.553.553 0 0 0-.38-.143c-.304 0-.47.256-.47.685-.006.417.13.667.44.667zm3.465-1.822v.447h-.292a.764.764 0 0 1 .084.351c0 .464-.334.792-.947.792a1.77 1.77 0 0 1-.262-.024c-.036.03-.083.066-.083.131 0 .12.125.137.44.155.453.024 1.03.03 1.03.673 0 .464-.482.791-1.196.791-.602 0-.965-.19-.965-.583 0-.244.149-.417.37-.536a.36.36 0 0 1-.191-.333c0-.209.119-.334.244-.411a.734.734 0 0 1-.393-.655c0-.47.363-.798.97-.798h1.191zm-1.673 2.62c0 .178.12.297.429.297.363 0 .571-.136.571-.321 0-.232-.208-.226-.524-.25a4.61 4.61 0 0 1-.297-.03c-.12.078-.179.173-.179.304zm.887-1.822c0-.256-.149-.405-.393-.405-.244 0-.393.149-.393.405 0 .25.15.405.393.405.244 0 .393-.155.393-.405zm2.089 1.054c.298 0 .465-.101.572-.155l.19.387c-.142.083-.368.208-.815.208-.732 0-1.143-.464-1.143-1.16 0-.691.477-1.138 1.084-1.138.684 0 1.018.476.946 1.286h-1.387c.018.345.19.572.554.572zm.25-.97c-.005-.245-.1-.447-.374-.447-.25 0-.393.16-.435.446h.81zm1.09-.257a.306.306 0 0 1-.303-.31.306.306 0 1 1 .613 0 .315.315 0 0 1-.31.31zm0-.571c-.148 0-.256.107-.256.262 0 .154.108.262.256.262.15 0 .256-.108.256-.262a.255.255 0 0 0-.256-.262zm.084.44-.084-.125c-.017-.024-.03-.036-.053-.036v.161h-.06v-.369h.12c.077 0 .113.048.113.101 0 .054-.036.09-.096.096.012.011.03.023.042.047l.083.12-.065.005zm-.09-.315h-.053v.113h.036c.041 0 .083-.006.083-.054 0-.035-.018-.06-.066-.06zm-22.641-2.34L4 15v5.668h5.043v-5.662zM7.947 18.87v.238c-.553 0-.899-.179-1.119-.399.036.101.077.209.131.31.375.744 1.036 1.125 2 1.137v.31c-1.351-.013-1.982-.72-2.28-1.316a2.975 2.975 0 0 1-.16-.387c-.447 1.101-1.668 1.113-1.685 1.113v-.345c.06 0 1.506-.048 1.506-1.703h.369c0-1.655 1.44-1.667 1.5-1.667v-.345c-.018 0-1.238.018-1.685 1.113a2.975 2.975 0 0 0-.16-.387c-.298-.584-.93-1.292-2.28-1.304v-.155h4.875v2.75H6.703c0 .043.024 1.037 1.244 1.037zm-3.864-3.322c.959.012 1.626.393 2 1.137.054.107.096.208.132.31-.22-.22-.566-.4-1.12-.4v.239c1.221 0 1.245.952 1.245.994H4.083v-2.28z" fill="#00578E"/></svg>