<svg height="36" viewBox="0 0 36 36" width="36" xmlns="http://www.w3.org/2000/svg"><mask id="a" fill="#fff"><path d="M0 0h28v2.136H0z" fill-rule="evenodd"/></mask><g fill="none" fill-rule="evenodd"><path d="M18 0c2.837 0 5.52.656 7.907 1.825C31.884 4.753 36 10.895 36 18c0 9.942-8.058 18-18 18-9.94 0-18-8.057-18-18C0 8.06 8.06 0 18 0z" fill="#f2f4f7" fill-rule="nonzero"/><path d="M27.821 1.957c-.017.017-.025.043-.025.077 0 .025.008.051.025.068.025.017.042.034.077.034.025 0 .05-.017.068-.034A.079.079 0 0 0 28 2.034c0-.034-.009-.06-.034-.077-.018-.017-.043-.034-.068-.034-.035 0-.052.017-.077.034zm-.179-.698a.063.063 0 0 1-.017.043c-.017.008-.025.016-.034.016-.017 0-.034-.008-.076-.025a.526.526 0 0 0-.188-.034.41.41 0 0 0-.221.06.39.39 0 0 0-.17.161.475.475 0 0 0-.068.23.434.434 0 0 0 .221.375.519.519 0 0 0 .238.051.408.408 0 0 0 .18-.034.432.432 0 0 0 .144-.111v-.068a.529.529 0 0 1-.136.119.277.277 0 0 1-.145.034.301.301 0 0 1-.162-.042.355.355 0 0 1-.085-.145.745.745 0 0 1-.025-.204c0-.077.008-.145.034-.213a.405.405 0 0 1 .093-.119.314.314 0 0 1 .145-.043c.068 0 .119.026.17.06a.31.31 0 0 1 .102.179h.026v-.29zm-1.719.017v.017c.026.009.043.009.051.017a.198.198 0 0 1 .051.043l.017.025v.596c0 .043-.008.077-.025.094s-.051.026-.102.026v.025h.306v-.025h-.025a.14.14 0 0 1-.077-.026.136.136 0 0 1-.034-.094v-.536l.57.698h.026v-.698c0-.043 0-.068.008-.085.009-.017.017-.034.026-.034.017-.008.034-.017.076-.026v-.017h-.281v.017c.043 0 .077.018.103.043a.253.253 0 0 1 .017.102v.357l-.409-.519zm-.085.817c-.017 0-.034 0-.051-.008-.017-.009-.026-.017-.026-.034-.008-.009-.008-.034-.008-.077v-.553c0-.043 0-.068.008-.077 0-.017.009-.025.026-.033a.09.09 0 0 1 .051-.018h.034v-.017h-.443v.017h.035a.09.09 0 0 1 .051.018c.016.008.025.016.025.025.009.017.009.042.009.085v.554c0 .042 0 .067-.009.076 0 .017-.009.026-.025.034-.009.009-.034.009-.051.009h-.035v.025h.443v-.025h-.034zm-1.4-1.2v.024a.58.58 0 0 1 .111.038c.012.012.024.024.024.037 0 .024-.037.086-.086.184l-.221.357-.222-.394a.513.513 0 0 1-.074-.172c0-.012.013-.012.025-.025a.107.107 0 0 1 .074-.024h.024V.893h-.578v.024c.037 0 .074.013.098.038a.664.664 0 0 1 .111.184l.295.517v.246c0 .062-.012.099-.012.111a.145.145 0 0 1-.037.049c-.024.013-.049.013-.086.013h-.061v.037h.676v-.037h-.061c-.037 0-.062 0-.086-.013a.163.163 0 0 1-.037-.049c0-.012-.013-.049-.013-.111v-.295l.271-.443c.061-.111.111-.185.135-.209a.721.721 0 0 1 .099-.037V.893zm-1.894.8.184-.406.172.406zm.455.222a.484.484 0 0 0 .024.061c.012.012.012.024.012.037 0 .025-.012.037-.024.049-.012.013-.049.013-.099.013h-.024v.036h.59v-.036c-.036 0-.074-.013-.086-.037-.024-.013-.061-.074-.098-.173l-.443-.996h-.012l-.443.972c-.027.064-.06.126-.098.184a.157.157 0 0 1-.111.05v.036h.406v-.036a.264.264 0 0 1-.123-.025c-.025-.012-.037-.037-.037-.074a.36.36 0 0 1 .025-.098l.049-.111h.43zM21.842.893v.024c.05.013.074.013.099.025a.094.094 0 0 1 .024.062c0 .024-.012.036-.012.061 0 .013-.012.05-.037.111l-.197.517-.221-.578a.803.803 0 0 1-.037-.123c0-.013 0-.025.012-.037 0-.013.013-.013.025-.025.012 0 .049-.013.086-.013V.893h-.578v.024c.037 0 .061.013.086.025.012.013.037.025.049.05.013.024.037.073.061.135l.05.135-.197.456-.234-.591c-.024-.074-.049-.123-.049-.135 0-.025.012-.037.025-.05.012-.012.036-.012.086-.025V.893h-.529v.024a.66.66 0 0 1 .086.038c.012.024.037.085.086.184l.393.997h.037l.332-.787.296.787h.036l.382-1.009a.591.591 0 0 0 .049-.135c.012-.025.037-.037.049-.05.013-.012.037-.012.062-.024V.893zm-2.46.8.185-.406.172.406zm.455.222a.58.58 0 0 0 .025.061c.012.012.012.024.012.037 0 .025-.012.037-.024.049-.013.013-.05.013-.099.013h-.024v.036h.59v-.036a.114.114 0 0 1-.086-.037c-.024-.013-.061-.074-.098-.173L19.69.869h-.013l-.442.972c-.027.064-.06.126-.099.184a.152.152 0 0 1-.11.05v.036h.405v-.036a.27.27 0 0 1-.123-.025c-.024-.012-.036-.037-.036-.074 0-.024.012-.061.024-.098l.049-.111h.431zm-1.316-.395v.382c0 .062-.013.098-.013.111-.012.025-.024.037-.036.049-.025.013-.049.013-.086.013h-.037v.036h.627v-.036h-.037c-.036 0-.061 0-.086-.013a.145.145 0 0 1-.036-.049c0-.013-.013-.049-.013-.111v-.799c0-.062.013-.099.013-.111.012-.025.024-.037.036-.05.025-.012.05-.025.086-.025h.037V.893h-.627v.024h.037c.037 0 .061.013.086.025l.036.037c0 .025.013.061.013.123v.345h-.43V.992a.18.18 0 0 1 .037-.05c.024-.012.048-.025.086-.025h.037V.893h-.628v.024h.037c.037 0 .061.013.086.025l.037.037c.012.025.012.061.012.123v.8c0 .061 0 .098-.012.111a.176.176 0 0 1-.037.049c-.025.013-.05.013-.086.013h-.037v.036h.628v-.036h-.037c-.038 0-.062 0-.075-.013a.096.096 0 0 1-.048-.049V1.52zM16.43.893v.332h.024a.34.34 0 0 1 .099-.209c.037-.037.098-.049.185-.049h.085v.935c0 .061 0 .098-.012.111-.012.025-.025.037-.037.049-.024.013-.049.013-.086.013h-.037v.036h.628v-.036h-.037c-.025 0-.062 0-.074-.013-.025-.012-.037-.024-.037-.049-.012-.013-.012-.05-.012-.111V.967h.086c.061 0 .098 0 .123.012.036.025.074.05.098.074.012.037.037.099.062.173h.024V.893zm-1.033.8.184-.406.185.406zm.467.222a.484.484 0 0 0 .024.061v.037c0 .025 0 .037-.012.049-.024.013-.049.013-.098.013h-.025v.036h.578v-.036a.116.116 0 0 1-.086-.037c-.024-.013-.061-.074-.098-.173l-.443-.996h-.012l-.431.972a.601.601 0 0 1-.11.184c-.025.025-.062.05-.099.05v.036h.394v-.036c-.062 0-.099-.013-.111-.025a.084.084 0 0 1-.049-.074c0-.024.012-.061.024-.098l.062-.111h.418zm-1.838-.827v.661c0 .107 0 .17-.022.192 0 .042-.042.064-.064.085-.021.022-.085.022-.149.022h-.064v.064h1.109v-.064h-.086c-.042 0-.106 0-.127-.022a.166.166 0 0 1-.086-.085V.171c.021-.043.043-.064.064-.085a.301.301 0 0 1 .149-.043h.086V0h-1.109v.043h.064c.064 0 .107.021.149.043.043.021.064.042.064.064.022.042.022.106.022.213V.96h-.747V.363c0-.107 0-.171.022-.192a.297.297 0 0 1 .064-.085.298.298 0 0 1 .149-.043h.064V0H12.47v.043h.085c.042 0 .106.021.128.043a.28.28 0 0 1 .085.064v1.791c-.021.043-.043.064-.064.085-.043.022-.085.022-.149.022h-.085v.064h1.108v-.064h-.064c-.064 0-.107 0-.149-.022-.022-.021-.064-.042-.064-.085-.022-.021-.022-.085-.022-.192v-.661zM11.233.967c.086 0 .147 0 .184.012.062.013.098.05.135.086a.69.69 0 0 1 .074.185h.025V.893h-1.009v.024h.037a.14.14 0 0 1 .099.038c.012 0 .024.024.024.037.012.012.012.049.012.111v.799c0 .062-.012.098-.012.111a.145.145 0 0 1-.037.049c-.025.013-.049.013-.086.013h-.037v.036h1.046l.061-.393h-.036a.527.527 0 0 1-.148.246.47.47 0 0 1-.271.074h-.074c-.036 0-.061 0-.073-.013l-.037-.036c0-.013-.013-.05-.013-.124v-.344a.34.34 0 0 1 .136.024c.037.013.061.05.086.086a.41.41 0 0 1 .037.173h.037v-.628h-.037a.35.35 0 0 1-.062.209c-.036.05-.086.074-.172.074h-.025V.967zM9.855.955c.098 0 .172.024.221.073.037.037.062.111.062.197 0 .074-.012.124-.037.16a.336.336 0 0 1-.098.086.58.58 0 0 1-.185.025h-.049V.955zm-.013.603.394.553h.381v-.036a.116.116 0 0 1-.086-.037.85.85 0 0 1-.073-.086l-.295-.419a.335.335 0 0 0 .172-.086.27.27 0 0 0 .098-.221.306.306 0 0 0-.061-.185.343.343 0 0 0-.173-.123A1.67 1.67 0 0 0 9.88.893h-.566v.025c.049 0 .098.012.111.024a.194.194 0 0 1 .049.037c0 .013.012.062.012.124v.799c0 .062-.012.098-.012.123a.176.176 0 0 1-.049.037c-.013.013-.05.013-.111.013v.036h.615v-.036c-.049 0-.086 0-.111-.013-.012-.012-.037-.024-.037-.037-.012-.025-.012-.061-.012-.123v-.344zm-.651.517c-.037 0-.062 0-.086-.013a.176.176 0 0 1-.037-.049c0-.013-.013-.05-.013-.111v-.799c0-.062.013-.099.013-.111a.18.18 0 0 1 .037-.05c.024-.012.049-.025.086-.025h.037V.893H8.6v.024h.037c.037 0 .061.013.086.025l.037.037c0 .025.013.061.013.123v.8c0 .061-.013.098-.013.111a.145.145 0 0 1-.037.049c-.025.013-.049.013-.086.013H8.6v.036h.628v-.036zM8.059 1.52v.493c-.012.025-.025.037-.037.049-.024.013-.049.013-.086.013h-.037v.036h.628v-.036h-.038c-.037 0-.061 0-.085-.013a.166.166 0 0 1-.038-.049c-.012-.013-.012-.049-.012-.111v-.799c0-.062 0-.099.012-.111.013-.025.025-.037.038-.05.024-.012.049-.025.085-.025h.038V.893h-.628v.024h.037c.037 0 .062.013.074.025a.194.194 0 0 1 .049.037v.468h-.43v-.344c0-.062.012-.099.012-.111a.18.18 0 0 1 .037-.05c.024-.012.049-.025.086-.025H7.8V.893h-.626v.024h.036c.037 0 .062.013.087.025l.036.037c.012.025.012.061.012.123v.8c0 .061 0 .098-.012.111-.012.025-.025.037-.036.049-.025.013-.05.013-.087.013h-.036v.036H7.8v-.036h-.036c-.037 0-.062 0-.074-.013a.098.098 0 0 1-.049-.049c0-.013-.012-.05-.012-.111V1.52zM6.952.869c-.012.036-.025.048-.037.061 0 .012-.012.012-.037.012-.012 0-.036 0-.074-.025-.049-.012-.073-.024-.11-.036S6.62.869 6.583.869a.403.403 0 0 0-.271.098.314.314 0 0 0-.098.246c0 .061.012.111.037.16a.34.34 0 0 0 .111.123c.049.037.123.086.233.135.086.05.136.074.172.099.025.024.05.049.062.074.012.037.025.061.025.086 0 .049-.025.086-.062.123s-.086.061-.16.061c-.086 0-.16-.037-.246-.098a.563.563 0 0 1-.148-.295h-.024v.455h.024c.013-.025.025-.05.038-.062.024-.012.036-.012.061-.012.012 0 .037 0 .062.012.049.025.098.037.135.05a.275.275 0 0 0 .11.012.42.42 0 0 0 .296-.111.371.371 0 0 0 .123-.258.348.348 0 0 0-.074-.222 1.16 1.16 0 0 0-.295-.196c-.099-.05-.16-.087-.185-.099a.198.198 0 0 1-.086-.086c-.012-.025-.024-.037-.024-.074s.024-.074.049-.111A.268.268 0 0 1 6.595.93a.31.31 0 0 1 .222.098c.074.062.11.136.135.247h.037L6.977.869zm-1.144.209c.086-.074.136-.123.16-.136.024-.012.061-.012.098-.025V.893h-.467v.024c.049.013.086.013.098.025.025.013.037.025.037.05 0 .036-.037.073-.098.123l-.443.369V.979L5.23.942a.236.236 0 0 1 .098-.024V.893h-.603v.024h.037c.038 0 .062.013.086.025.013.013.037.025.037.037.013.025.013.061.013.123v.8c0 .061 0 .098-.013.111a.145.145 0 0 1-.037.049c-.024.013-.048.013-.086.013h-.037v.036h.616v-.036c-.05 0-.086 0-.099-.013a.176.176 0 0 1-.049-.037V1.57l.037-.037.283.345c.049.074.086.122.086.147 0 .013-.012.025-.025.037-.012 0-.037.013-.074.013v.036h.628v-.036c-.037 0-.062-.013-.099-.025a.494.494 0 0 1-.16-.16l-.418-.529zM3.938.955c.099 0 .173.024.209.073.049.037.074.111.074.197 0 .074-.012.124-.037.16a.324.324 0 0 1-.098.086.718.718 0 0 1-.185.025H3.84V.955zm-.012.603.394.553h.381v-.036a.113.113 0 0 1-.086-.037c-.012-.013-.049-.038-.086-.086l-.283-.419a.383.383 0 0 0 .172-.086.269.269 0 0 0 .099-.221.252.252 0 0 0-.074-.185.312.312 0 0 0-.16-.123 2.02 2.02 0 0 0-.32-.025h-.566v.025c.049 0 .086.012.111.024.024.013.037.025.037.037.012.013.012.062.012.124v.799c0 .062 0 .098-.012.123 0 .013-.013.025-.037.037-.024.013-.062.013-.111.013v.036h.615v-.036c-.049 0-.086 0-.11-.013-.025-.012-.037-.024-.037-.037a.267.267 0 0 1-.025-.123v-.344zM2.758.967c.098 0 .159 0 .184.012.062.013.098.05.135.086a.325.325 0 0 1 .074.185h.037V.893H2.167v.024h.049a.11.11 0 0 1 .086.038c.013 0 .025.024.037.037v.91c0 .062 0 .098-.012.111 0 .025-.012.037-.037.049-.012.013-.05.013-.074.013h-.049v.036h1.045l.062-.393h-.037a.387.387 0 0 1-.147.246.447.447 0 0 1-.271.074h-.074c-.037 0-.062 0-.074-.013-.012-.012-.024-.024-.024-.036-.013-.013-.013-.05-.013-.124v-.344a.39.39 0 0 1 .136.024c.024.013.049.05.073.086.025.05.037.112.049.173h.037v-.628h-.037a.46.46 0 0 1-.073.209c-.025.05-.086.074-.16.074h-.025V.967zm-1.629.143c.085.042.149.085.192.17a.575.575 0 0 1 .063.256.429.429 0 0 1-.063.234c-.043.064-.085.128-.149.171-.085.021-.15.042-.235.042-.043 0-.085 0-.128-.042-.021-.021-.042-.064-.042-.128v-.746c.17 0 .277.021.362.043zM.767.107c.149 0 .277.022.341.065.064.021.128.064.149.127a.383.383 0 0 1 .064.235c0 .085-.021.171-.064.213a.492.492 0 0 1-.149.149C1.022.939.916.939.767.939zm.959.683c.085-.064.106-.171.106-.256a.426.426 0 0 0-.085-.277.425.425 0 0 0-.235-.192C1.406.022 1.236.001 1.001.001H0v.043c.085 0 .149.021.192.042.042.021.064.043.064.064.021.022.042.107.042.214v1.364a.499.499 0 0 1-.042.234c0 .021-.022.043-.064.064-.043.022-.107.022-.192.022v.064h1.065c.298 0 .533-.064.682-.192a.496.496 0 0 0 .021-.768c-.085-.064-.234-.106-.426-.17.192-.043.32-.107.384-.192z" fill="#2e3192" mask="url(#a)" transform="translate(4 17)"/></g></svg>