<svg width="36" height="36" fill="none" xmlns="http://www.w3.org/2000/svg"><path d="M18 0c2.837 0 5.52.656 7.907 1.825C31.884 4.753 36 10.895 36 18c0 9.942-8.058 18-18 18-9.94 0-18-8.057-18-18C0 8.06 8.06 0 18 0z" fill="#F2F4F7"/><path d="M5.683 20.95H4.108c-.072 0-.108-.037-.108-.109v-3.837c0-.072.036-.108.108-.108h1.485c.36 0 .638.081.848.238.238.18.368.454.368.777a.832.832 0 0 1-.237.606c-.059.058-.126.103-.193.148.166.05.314.13.426.238.21.193.319.466.319.785 0 .4-.149.732-.422.956-.252.202-.597.305-1.019.305zm-.97-3.434v.96h.822c.166 0 .3-.031.404-.112a.437.437 0 0 0 .175-.368c0-.166-.059-.292-.175-.372-.103-.072-.234-.108-.418-.108h-.807zm0 1.544v1.265h.943c.229 0 .404-.05.534-.157.148-.107.22-.283.22-.494 0-.206-.072-.367-.206-.47-.126-.104-.297-.149-.512-.149h-.978v.005zm3.376 1.89h-.48c-.072 0-.108-.037-.108-.108v-1.845c0-.274.08-.476.233-.624.148-.13.364-.202.637-.202h.633c.072 0 .108.036.108.108v.418c0 .071-.036.107-.108.107H8.52c-.215 0-.318.103-.318.314v1.72c-.005.071-.04.111-.112.111zm3.428-.405a1.24 1.24 0 0 1-.987.485c-.386 0-.718-.157-.97-.45-.233-.268-.35-.623-.35-1.022 0-.39.126-.745.35-1.015.247-.291.584-.444.97-.444.404 0 .75.18.987.476l.036-.296c.018-.072.05-.104.112-.104h.364c.072 0 .108.036.108.108v2.558c0 .072-.036.108-.108.108h-.364c-.063 0-.107-.032-.112-.103l-.036-.301zm-1.396-.39a.772.772 0 0 0 .575.246c.229 0 .426-.09.574-.246a.908.908 0 0 0 .216-.597.87.87 0 0 0-.216-.584.78.78 0 0 0-.574-.247.769.769 0 0 0-.575.243.901.901 0 0 0-.215.588c0 .233.08.44.215.597zm2.393.687v-.418c0-.072.036-.107.107-.107h1.15c.08 0 .147-.023.188-.063a.188.188 0 0 0 .05-.126c0-.05-.019-.09-.055-.13a.259.259 0 0 0-.09-.059l-.798-.345a1.012 1.012 0 0 1-.355-.229.64.64 0 0 1-.188-.476c0-.193.063-.359.188-.48.148-.148.377-.233.678-.233h.996c.072 0 .108.036.108.108v.417c0 .072-.036.108-.108.108h-.947a.199.199 0 0 0-.139.049.112.112 0 0 0-.031.085c0 .027.009.059.031.081a.295.295 0 0 0 .108.063l.713.31a.98.98 0 0 1 .35.228.683.683 0 0 1 .202.508.802.802 0 0 1-.22.56.958.958 0 0 1-.682.256h-1.14c-.08 0-.116-.04-.116-.107zm3.114.108h-.48c-.072 0-.108-.037-.108-.109v-3.837c0-.072.036-.108.108-.108h.48c.072 0 .108.036.108.108v2.217h.058l.889-.96c.05-.058.08-.081.162-.081h.61c.045 0 .072.058.045.099l-1.118 1.19 1.185 1.395c.027.036.01.09-.05.09h-.583c-.103 0-.161-.027-.22-.1l-.897-1.072h-.076v1.06c-.005.067-.045.107-.113.107z" fill="#395F6F"/><path d="M18.985 21.03c-.413 0-.776-.153-1.05-.427a1.493 1.493 0 0 1-.413-1.059c0-.39.148-.75.422-1.023a1.43 1.43 0 0 1 1.028-.422c.413 0 .772.153 1.032.431.247.274.39.642.39 1.05v.05c0 .058-.044.103-.09.103h-2.14c.027.18.099.323.206.448.148.158.36.243.615.243.292 0 .561-.13.696-.355.027-.049.063-.076.125-.076h.427c.072 0 .112.054.09.135a1.304 1.304 0 0 1-.526.664 1.44 1.44 0 0 1-.812.238zm-.776-1.827h1.508c-.086-.323-.346-.507-.736-.507a.815.815 0 0 0-.606.238.796.796 0 0 0-.166.27zm3.151 1.747h-.48c-.073 0-.109-.037-.109-.109v-2.558c0-.072.036-.107.108-.107h.292c.08 0 .125.036.139.12l.054.284c.188-.292.493-.44.915-.44h.13c.297 0 .544.103.71.296.044.05.08.108.116.175.184-.314.498-.471.93-.471h.13c.296 0 .538.103.708.296.157.18.238.43.238.736v1.67c0 .071-.036.107-.107.107h-.485c-.072 0-.108-.036-.108-.108v-1.53c0-.346-.175-.539-.476-.539h-.157c-.34 0-.552.22-.552.606v1.468c0 .072-.036.108-.107.108h-.485c-.072 0-.108-.036-.108-.108v-1.53c0-.346-.175-.54-.475-.54h-.158c-.34 0-.552.22-.552.607v1.467c-.004.059-.04.1-.112.1z" fill="#395F6F"/><path d="M26.45 14c-.22 0-.327.251-.165.39l4.607 3.955.243-.21C32.85 16.666 31.732 14 29.4 14h-2.95z" fill="url(#a)"/><path d="M28.908 20.047 26.286 22.3c-.162.14-.055.392.165.392h3.004c2.312 0 3.422-2.642 1.722-4.1l-.285-.246-1.762-1.514c.802.957.834 2.306-.221 3.216h-.001z" fill="url(#b)"/><defs><linearGradient id="a" x1="26.207" y1="16.172" x2="31.965" y2="16.172" gradientUnits="userSpaceOnUse"><stop stop-color="#F25C19"/><stop offset=".599" stop-color="#FBC707"/></linearGradient><linearGradient id="b" x1="31.161" y1="17.877" x2="28.291" y2="23.456" gradientUnits="userSpaceOnUse"><stop stop-color="#1C63B7"/><stop offset=".515" stop-color="#33BDF2"/></linearGradient></defs></svg>