<svg width="36" height="36" fill="none" xmlns="http://www.w3.org/2000/svg"><path d="M18 0c2.837 0 5.52.656 7.907 1.825C31.884 4.753 36 10.895 36 18c0 9.942-8.058 18-18 18-9.94 0-18-8.057-18-18C0 8.06 8.06 0 18 0z" fill="#F2F4F7"/><path d="M6.317 20.873H4V16.09h2.385c.157 0 .526.014.69.041.575.089 1.087.362 1.087 1.1 0 .506-.315.882-.725.964l-.034.007v.075l.034.007c.56.123.868.547.868 1.155 0 .936-.587 1.278-1.25 1.394a6.69 6.69 0 0 1-.738.041zm-.738-3.752v.875h.382c.062 0 .13 0 .199-.007.252-.02.45-.089.45-.424 0-.348-.204-.417-.464-.437-.068-.007-.137-.007-.198-.007h-.37zm5.508 3.848c-1.428 0-2.207-.643-2.207-1.928v-2.89h1.578v2.87c0 .396.178.704.622.704.472 0 .609-.315.609-.704v-2.87h1.572v2.89c0 1.285-.704 1.928-2.174 1.928zm6.41-3.595s-.361-.13-.826-.13c-.738 0-1.21.403-1.21 1.217 0 .8.506 1.21 1.216 1.21.247 0 .63-.028.841-.124v1.292s-.191.123-1.134.123c-1.524 0-2.55-.827-2.55-2.426 0-1.764 1.155-2.536 2.673-2.536.622 0 .998.103.998.103l-.007 1.271zm3.5 3.5V19.04H19.78v1.832H18.2V16.09h1.58v1.73h1.216v-1.73h1.579v4.784h-1.58zm2.405 0v-4.785h3.322v1.203H24.98v.615h1.682v1.094H24.98v.67h1.839v1.202h-3.418zm6.862 0-.574-1.334c-.13-.3-.17-.314-.424-.314h-.157v1.647h-1.585V16.09h1.968c.348 0 .827 0 1.196.116.526.171.957.52.957 1.34 0 .683-.424.998-.683 1.107-.049.02-.144.048-.144.048v.054c.116.034.246.11.382.328.192.308.8 1.791.8 1.791h-1.736zM5.58 18.883v.93h.423c.062 0 .123 0 .192-.007.252-.02.505-.082.505-.485 0-.349-.266-.41-.526-.43-.068-.008-.123-.008-.184-.008h-.41zm23.53-1.66v.984h.335c.055 0 .116 0 .178-.007.232-.02.519-.075.519-.513 0-.396-.3-.437-.54-.458-.061-.006-.11-.006-.17-.006h-.322z" fill="#EE3224"/></svg>