<svg width="36" height="36" fill="none" xmlns="http://www.w3.org/2000/svg"><path d="M18 0c2.837 0 5.52.656 7.907 1.825C31.884 4.753 36 10.895 36 18c0 9.942-8.058 18-18 18-9.94 0-18-8.057-18-18C0 8.06 8.06 0 18 0z" fill="#F2F4F7"/><path d="m4.914 16.015.485.494.484-.494h.908v1.261l-.376-.003-.128.152.128.137h.376v.29H6.3l-.905-.898v.279l.814.827.582.003v.273h-.7c-.235-.215-.46-.467-.696-.683v.266l.63.632.766.004v.272h-.888l-.501-.491-.474.491H4v-1.264l.39-.004.135-.134-.135-.152H4v-.268h.511l.215.208.145-.148-.266-.262H4v-.297h.693l.364.358.14-.142-.41-.414H4v-.292h.914zm13.933 1.421.008.005.356-1.436.896-.005.018.022.337 1.387.012.011c.128-.465.222-.946.332-1.418h1.013l-.771 2.82h-1l-.383-1.357-.377 1.357h-.992l-.784-2.82 1.017.002.318 1.432zm9.003-.324.037.19-.002 1.514h-.916l.003-1.253c-.015-.046-.054-.1-.104-.11a.214.214 0 0 0-.229.07c-.062.068-.052.091-.052.256 0 .35.01 1.005.004 1.039h-.878l.005-1.982h.865c.01.092.016.128.018.248.189-.227.444-.35.75-.305.198.03.405.14.498.333m-2.262-.318-.003.751c-.222-.034-.477-.009-.599.206 0 0-.043.014-.06.15v.916h-.903l.004-1.974.89-.003.012.25a.621.621 0 0 1 .66-.296m-10.268 0-.002.751c-.222-.034-.478-.009-.6.206 0 0-.043.014-.059.15v.916h-.904l.004-1.974.89-.003.013.25a.62.62 0 0 1 .659-.296M32 17.575c-.198-.05-.43-.02-.566.13a.369.369 0 0 0-.08.21l.001.9h-.933v-1.972l.896-.003c.015.075-.004.176.018.241a.635.635 0 0 1 .664-.28v.774zm-2.927-.234a.269.269 0 0 0-.155.255l.467-.003c-.005-.089-.028-.166-.093-.224-.058-.045-.15-.05-.22-.028zm1.057-.108c.124.21.186.418.165.727l-1.388.002a.297.297 0 0 0 .055.24.25.25 0 0 0 .231.098c.09 0 .161-.078.207-.15l.884-.005c-.037.282-.305.52-.563.623-.447.159-1.069.17-1.435-.186-.283-.261-.365-.684-.249-1.056.07-.31.345-.573.638-.68.507-.158 1.16-.101 1.455.387m-17.72.311a.314.314 0 0 0-.218.216.353.353 0 0 0 .094.346c.065.039.13.072.215.057a.29.29 0 0 0 .237-.193c.042-.145.024-.283-.12-.386-.058-.04-.13-.045-.207-.04zm1.128-.116c.163.38.082.862-.208 1.153-.358.356-.96.403-1.409.215-.367-.143-.615-.53-.631-.915.005-.384.205-.737.544-.93.426-.22 1.052-.195 1.43.11.13.107.21.232.274.367m3.052.136a.264.264 0 0 0-.284.064.274.274 0 0 0-.067.277.242.242 0 0 0 .221.18.233.233 0 0 0 .207-.06c.11-.09.105-.197.08-.308a.275.275 0 0 0-.157-.153zm.142-.5c.021-.112.003-.106.015-.205 0 0 .605.002.926-.003l-.002 1.934c.006.29-.214.521-.464.631a1.83 1.83 0 0 1-1.355.027c-.212-.094-.442-.314-.487-.547h.89c.036.052.091.11.152.126a.304.304 0 0 0 .33-.146c.04-.09.04-.19.02-.29a.906.906 0 0 1-.966.085c-.358-.195-.46-.58-.439-.968.013-.324.19-.647.5-.784.271-.127.667-.088.88.14m5.902.49a.316.316 0 0 0-.223.117.313.313 0 0 0-.023.284c.04.072.102.115.174.144a.288.288 0 0 0 .284-.089c.072-.077.079-.212.04-.306-.05-.1-.153-.136-.252-.15zm.248-.527c.012-.093.002-.128.016-.186h.93c.008.605.004 1.309.003 1.976h-.935c-.003-.112-.015-.106-.013-.229-.17.204-.423.333-.71.287a.818.818 0 0 1-.615-.523c-.146-.416-.142-1.006.189-1.336a.8.8 0 0 1 .845-.185.75.75 0 0 1 .29.196m-13.184.688-.002.45c.169-.022.415.074.466-.146.02-.068.02-.154-.022-.21-.09-.144-.288-.08-.442-.094zm-.003-1.048v.392c.159-.022.374.061.452-.118.012-.048.03-.08 0-.16-.074-.179-.295-.093-.451-.114zm.419-.655c.354-.005.73.085.904.429.084.201.076.472-.06.648-.081.133-.218.177-.329.262.203.071.435.169.527.39.125.272.047.61-.152.823-.208.194-.47.255-.76.257l-1.562.001-.005-2.814 1.437.004z" fill="#21307D"/></svg>