<svg width="36" height="36" fill="none" xmlns="http://www.w3.org/2000/svg"><path d="M18 0c2.837 0 5.52.656 7.907 1.825C31.884 4.753 36 10.895 36 18c0 9.942-8.058 18-18 18-9.94 0-18-8.057-18-18C0 8.06 8.06 0 18 0z" fill="#F2F4F7"/><g fill-rule="evenodd" clip-rule="evenodd"><path d="M5 20.854v2.844h2.487c1.599 0 2.513-.004 2.56-.011l.185-.028c.73-.108 1.284-.535 1.431-1.104l.024-.092c.067-.254.065-.68-.005-.954-.122-.477-.47-.83-.911-.925-.04-.009-.031-.02.05-.058.428-.202.707-.811.614-1.341a1.753 1.753 0 0 0-.061-.27c-.159-.507-.563-.799-1.233-.889-.101-.013-.48-.016-2.63-.016H5v2.844zm6.44-2.808c.008.033.018.069.076.257l.06.195a58.392 58.392 0 0 0 .159.52 65.787 65.787 0 0 0 .177.58l.057.189a119.676 119.676 0 0 0 .23.753 11.067 11.067 0 0 1 .103.336c.004.018.021.074.038.124.015.051.033.107.037.125l.06.195.06.195a29.843 29.843 0 0 0 .178.585c.01.036.027.092.038.124l.043.141a71.463 71.463 0 0 1 .299.98l.054.174.032.111.02.068h.956c.623 0 .959-.004.963-.01.004-.007.02-.064.038-.128a14.414 14.414 0 0 1 .087-.323 41.144 41.144 0 0 1 .175-.644 41.374 41.374 0 0 1 .13-.482l.042-.152.03-.114.04-.146.038-.14a27.051 27.051 0 0 1 .137-.505 80.859 80.859 0 0 1 .14-.514 32.78 32.78 0 0 1 .132-.487c.012-.04.03-.047.038-.015.01.043.08.3.138.513l.035.13a256.48 256.48 0 0 0 .095.346l.108.401.096.352a75.135 75.135 0 0 0 .252.927c.006.017.037.134.07.26a32.61 32.61 0 0 0 .188.685l.013.046h1.914l.035-.111.044-.138.048-.157.05-.163.036-.12.06-.2a61.032 61.032 0 0 0 .24-.785 8.513 8.513 0 0 0 .118-.385l.036-.119.07-.233a165.16 165.16 0 0 0 .395-1.3c.016-.047.055-.176.089-.287l.1-.323.038-.123-.026-.028a208.931 208.931 0 0 1-1.097-1.17l-.041-.046h-.333l-.006.03a10.557 10.557 0 0 1-.086.36l-.048.206a105.848 105.848 0 0 0-.137.58 84.372 84.372 0 0 0-.15.634 57.255 57.255 0 0 1-.142.6l-.048.201a46.95 46.95 0 0 0-.12.51 76.313 76.313 0 0 1-.13.552c-.044.191-.046.192-.083.052a224.183 224.183 0 0 1-.307-1.13l-.051-.184-.036-.13-.03-.114-.094-.341c-.025-.09-.078-.285-.108-.401a67.495 67.495 0 0 1-.33-1.208l-.047-.17-.013-.047h-.82c-.452 0-.823.004-.826.009a1.503 1.503 0 0 0-.034.116 20.315 20.315 0 0 1-.103.38l-.041.15a91.833 91.833 0 0 0-.126.464l-.042.154-.049.179a99.41 99.41 0 0 0-.238.872 32.187 32.187 0 0 0-.133.488 45.612 45.612 0 0 0-.13.476c-.01.042-.037.14-.059.217l-.059.218c-.037.144-.04.143-.082-.045l-.093-.395a219.325 219.325 0 0 0-.372-1.574l-.055-.233a40.544 40.544 0 0 1-.07-.295 32.82 32.82 0 0 1-.14-.596 28.7 28.7 0 0 0-.076-.32c-.02-.077-.04-.167-.049-.2l-.013-.06-.935-.002-.934-.003.008.035zm15.23.102a12.781 12.781 0 0 1-.427.577c-.104.133-.427.516-.443.526-.057.035-.018.037.56.04l.572.003.003 2.202.002 2.202h1.929l.002-2.202.003-2.202 1.062-.005 1.061-.006.003-.636.003-.637h-4.234l-.095.138zM8.955 19.246c.318.04.487.202.488.469 0 .266-.172.442-.465.474-.054.006-.504.009-1.063.007l-.97-.003-.002-.466a12.9 12.9 0 0 1 .002-.479c.007-.018 1.869-.02 2.01-.002zm.266 2.096c.306.064.462.245.463.536 0 .286-.13.466-.404.556-.113.038-.207.04-1.278.037l-1.056-.003-.003-.571-.003-.572h1.1c.93 0 1.115.003 1.179.017z" fill="#3E4450"/><path d="M21.136 13.006a.557.557 0 0 1-.119.01c-.215.002-.86.062-1.267.118l-.163.023c-.276.038-.732.12-1.078.195l-.125.027c-.08.017-.374.086-.422.098l-.142.038a15.71 15.71 0 0 0-.557.153l-.07.02a24.241 24.241 0 0 0-1.149.391 13.87 13.87 0 0 0-.943.39c-.003 0-.104.045-.254.115a18.638 18.638 0 0 0-.975.5c-.49.27-1.23.74-1.509.958-.058.046-.031.084.028.04a15.487 15.487 0 0 1 1.606-.998c.17-.09.58-.295.677-.339l.28-.126c.04-.019.114-.05.164-.072l.125-.052c.044-.02.428-.17.509-.2a14.804 14.804 0 0 1 1.251-.39 13.019 13.019 0 0 1 1.988-.347c.706-.07 1.786-.045 2.432.055.271.042.458.076.65.119.192.042.234.052.471.119.42.117.926.32 1.268.508a4.858 4.858 0 0 1 .664.445c.37.288.686.725.826 1.14.033.098.04.126.07.29.02.107.024.443.007.533a2.282 2.282 0 0 1-.289.812 7.41 7.41 0 0 0-.062.107 4.63 4.63 0 0 1-.501.632 38.532 38.532 0 0 0-.379.424c-.043.047-.116.13-.163.184a10.04 10.04 0 0 1-.145.163c-.034.035-.131.145-.218.243a33.195 33.195 0 0 1-.444.499 1.073 1.073 0 0 1-.113.116 1.335 1.335 0 0 1-.165-.168 32.702 32.702 0 0 0-.415-.458 81.94 81.94 0 0 0-1.147-1.26l-.048-.05h-.876c-.482 0-.876.003-.876.006 0 .01.056.073.178.2l.174.184a94.779 94.779 0 0 0 .72.764 97.33 97.33 0 0 0 .488.52l.233.248a156.558 156.558 0 0 0 .663.703c.055.057.1.111.1.118 0 .013-.074.093-.328.355l-.197.206a171.037 171.037 0 0 1-.98 1.029l-.129.135a215.943 215.943 0 0 0-.625.656 35.525 35.525 0 0 0-.412.432l-.121.126.91.002.909.003.186-.192.323-.333.357-.366c.122-.124.224-.23.227-.235.003-.005.14-.147.303-.316.609-.628.546-.572.585-.522.013.016.06.069.107.117l.137.147a205.305 205.305 0 0 0 1.035 1.115 29.468 29.468 0 0 0 .288.31l.134.144c.057.061.105.116.107.121.003.01 1.843.015 1.843.004a.472.472 0 0 0-.057-.062 43.082 43.082 0 0 1-.338-.35 209.421 209.421 0 0 0-1.077-1.115l-.407-.422-.482-.5c-.36-.37-.414-.427-.41-.437.002-.005.223-.23.49-.501.386-.389.778-.79.878-.901l.13-.142c.597-.648 1.058-1.265 1.39-1.858.293-.527.457-1.065.457-1.502 0-1.131-.984-2.075-2.66-2.55a16.55 16.55 0 0 0-.384-.1l-.087-.019a21.88 21.88 0 0 0-.444-.086 12.15 12.15 0 0 0-.276-.044c-.216-.032-.55-.065-.959-.093a31.507 31.507 0 0 0-1.38-.004z" fill="#A7213A"/></g></svg>