<svg width="36" height="36" fill="none" xmlns="http://www.w3.org/2000/svg"><path d="M18 0c2.837 0 5.52.656 7.907 1.825C31.884 4.753 36 10.895 36 18c0 9.942-8.058 18-18 18-9.94 0-18-8.057-18-18C0 8.06 8.06 0 18 0z" fill="#F2F4F7"/><path d="M7.68 19.046c0-.679-.693-1.087-1.19-1.182v-.014c.459-.088 1.01-.42 1.01-1.06 0-.692-.646-1.208-1.955-1.208-.654 0-1.214.107-1.545.264v4.28c.371.17.922.264 1.608.264 1.237 0 2.073-.414 2.073-1.344zm-1.142-2.201c0 .564-.323.85-1.285.829l-.307-.007V16.15c.181-.053.362-.08.6-.08.653 0 .992.258.992.774zm.142 2.187c0 .605-.457.83-1.103.83-.269 0-.458-.028-.63-.09v-1.677l.306-.007c1.025-.02 1.427.299 1.427.944zm2.432-1.712v2.568a.464.464 0 0 1-.465.454h-.482v-3.398c.41-.208 1.41-.42 2.09-.316v.708c-.422-.184-.913-.124-1.143-.016zm10.463 3.021h-.453a.464.464 0 0 1-.464-.464v-2.178c0-.324-.196-.606-.683-.606a.936.936 0 0 0-.677.254v2.994h-.917v-2.663c0-.358-.263-.593-.758-.593-.271 0-.421.035-.602.104v3.152h-.916v-3.518c.406-.18.841-.269 1.518-.269.653 0 1.029.173 1.262.407.27-.227.684-.407 1.3-.407.962 0 1.39.552 1.39 1.139v2.648zm8.57-2.184c0-.742-.308-1.041-.837-1.041-.508 0-.874.326-.918 1.045h1.724l.03-.004zm.898.327-.002.122h-2.667c.106.89.525 1.226 1.227 1.226.336 0 .61-.05.822-.113l.008-.002c.05-.014.252-.055.34.133l.131.3c-.3.144-.758.259-1.404.259-1.207 0-1.971-.674-1.971-1.912 0-1.197.7-1.892 1.813-1.892 1.128 0 1.743.648 1.703 1.879zm2.957.803c0-.429-.189-.796-1.017-1.082-.37-.13-.63-.28-.63-.579 0-.259.213-.482.607-.482.299 0 .551.115.678.203l.236-.483c-.276-.156-.63-.26-1.104-.26-.812 0-1.348.478-1.348 1.063 0 .382.165.763.97 1.028.433.143.624.293.624.605 0 .3-.262.517-.656.517-.347 0-.639-.102-.796-.21l-.252.53c.252.15.678.265 1.175.265.93 0 1.513-.516 1.513-1.115zm-6.935 1.055h-.498a.464.464 0 0 1-.464-.464V15h.962v5.341zm-1.388-1.92c0-1.095-.686-1.795-1.671-1.795-.402 0-.63.067-.837.149V15h-.954v5.144c.268.15.75.265 1.404.265 1.324 0 2.058-.755 2.058-1.986zm-.954.048c0 .872-.308 1.43-1.065 1.43a1.5 1.5 0 0 1-.489-.075v-2.607c.158-.075.316-.109.576-.109.726 0 .978.599.978 1.361zm-9.24 1.674c-.338.156-.875.265-1.538.265-1.16 0-1.734-.408-1.734-1.115 0-.967 1.08-1.245 2.373-1.355v-.197c0-.476-.347-.605-.844-.605a2.85 2.85 0 0 0-1.034.212v-.557a3.928 3.928 0 0 1 1.207-.187c.876 0 1.57.32 1.57 1.266v2.273zm-.9-.3v-1.51c-.906.096-1.466.265-1.466.932 0 .477.332.681.891.681.22 0 .434-.042.576-.102z" fill="#0A3282"/></svg>