<svg height="36" viewBox="0 0 36 36" width="36" xmlns="http://www.w3.org/2000/svg"><mask id="a" fill="#fff"><path d="M0 0h27.176v3.938H0z" fill-rule="evenodd"/></mask><g fill="none" fill-rule="evenodd"><path d="M18 0c2.837 0 5.52.656 7.907 1.825C31.884 4.753 36 10.895 36 18c0 9.942-8.058 18-18 18-9.94 0-18-8.057-18-18C0 8.06 8.06 0 18 0z" fill="#f2f4f7" fill-rule="nonzero"/><g fill="#33348e"><path d="M6.635 17.654a.52.52 0 0 1 0 1.041h-.837v-.073h.893a.304.304 0 1 0 0-.607h-.893v-.361z"/><path d="M6.635 17.137c1.37 0 1.038 1.73 0 1.73h-.837v-.073h.893c.761 0 .872-1.296 0-1.296h-.893v-.36z"/><path d="M27.176 2.586a.496.496 0 0 1-.149.369.492.492 0 0 1-.358.147c-.134 0-.29-.046-.469-.138v-.481h.076c.052.175.125.301.22.379s.177.117.252.117c.051 0 .095-.02.134-.059a.185.185 0 0 0 .058-.138.217.217 0 0 0-.04-.128c-.049-.067-.156-.139-.323-.217-.27-.126-.404-.302-.404-.527a.47.47 0 0 1 .132-.347.448.448 0 0 1 .334-.133c.11 0 .247.036.414.109l.017.433h-.075c-.135-.294-.29-.44-.466-.44a.152.152 0 0 0-.117.054.193.193 0 0 0-.048.127c0 .049.027.099.08.149.08.078.21.164.39.258.034.018.086.046.154.088a.424.424 0 0 1 .188.378zm-1.507-.614V1.91c0-.238-.078-.357-.236-.357-.085 0-.153.05-.206.149a.59.59 0 0 0-.068.269h.51zm.366.686c-.128.296-.32.444-.582.444a.518.518 0 0 1-.452-.251.938.938 0 0 1-.15-.538c0-.215.053-.411.16-.585.122-.199.28-.298.473-.298.162 0 .297.068.404.203a.714.714 0 0 1 .147.455h-.886a.896.896 0 0 0 .12.458c.091.147.215.222.373.222.12 0 .233-.056.335-.168zm-1.325.393h-.647v-.102c.103-.005.154-.069.154-.192v-.833c0-.121-.05-.203-.154-.247v-.058l.414-.189h.055v1.316c0 .077.01.129.031.156s.07.042.147.047zM24.56.797a.317.317 0 0 1-.053.178.163.163 0 0 1-.143.08c-.057 0-.104-.029-.14-.087a.305.305 0 0 1-.052-.171c0-.065.017-.124.052-.174a.16.16 0 0 1 .14-.077c.06 0 .107.026.143.077.035.05.052.109.052.174zm-.61 2.028c-.142.185-.273.277-.394.277-.18 0-.27-.163-.27-.491V1.575h-.148v-.091c.114-.114.187-.19.22-.229.068-.081.126-.172.171-.269h.075v.476h.346v.113h-.346v1.091c0 .157.032.236.096.236.055 0 .12-.049.195-.149zm-.904-1.166a.319.319 0 0 1-.035.152c-.027.056-.066.084-.116.084a.18.18 0 0 1-.13-.057c-.039-.037-.067-.056-.082-.056-.028 0-.063.033-.107.098v.876c0 .083.021.138.062.164.03.02.087.029.172.029v.102h-.747v-.102c.132 0 .198-.055.198-.167v-.814a.286.286 0 0 0-.198-.288v-.061l.448-.189h.065v.283c.035-.051.091-.125.168-.222a.179.179 0 0 1 .134-.061c.052 0 .093.023.123.071.03.047.045.1.045.158zm-1.48.313V1.91c0-.238-.078-.357-.236-.357-.085 0-.154.05-.206.149a.59.59 0 0 0-.068.269h.51zm.366.686c-.128.296-.32.444-.582.444a.518.518 0 0 1-.452-.251.938.938 0 0 1-.15-.538c0-.215.053-.411.16-.585.122-.199.28-.298.473-.298.162 0 .297.068.404.203a.714.714 0 0 1 .147.455h-.886a.896.896 0 0 0 .12.458c.091.147.215.222.373.222.12 0 .233-.056.335-.168zm-1.735-.352c0-.167-.023-.311-.069-.429-.064-.165-.164-.248-.3-.248-.086 0-.175.045-.269.135v1.069c.094.107.183.16.268.16.102 0 .187-.053.253-.16a.738.738 0 0 0 .103-.306c.01-.067.014-.141.014-.221zm.37-.051a.929.929 0 0 1-.185.582.612.612 0 0 1-.51.258.672.672 0 0 1-.312-.08v.629c0 .094.02.152.061.174a.46.46 0 0 0 .185.022v.099h-.767V3.84a.414.414 0 0 0 .14-.025c.033-.023.048-.067.048-.135V1.957c0-.165-.062-.274-.188-.327v-.077c.331-.087.505-.128.521-.123v.2c.151-.134.288-.2.414-.2.183 0 .331.092.445.276.098.162.148.345.148.549zm-1.918.076a2.06 2.06 0 0 0-.048-.476c-.053-.216-.14-.324-.264-.324-.199 0-.298.211-.298.633 0 .184.018.349.055.494.057.223.148.334.274.334.075 0 .141-.053.197-.163.056-.109.084-.275.084-.498zm.353-.076a.965.965 0 0 1-.172.574.57.57 0 0 1-.489.266.588.588 0 0 1-.497-.255.936.936 0 0 1-.17-.57c0-.221.058-.413.177-.575a.596.596 0 0 1 .5-.265c.198 0 .36.087.483.261a.95.95 0 0 1 .168.564zM17.6 1.659a.319.319 0 0 1-.034.152c-.028.056-.066.084-.117.084a.184.184 0 0 1-.13-.057c-.039-.037-.066-.056-.082-.056-.027 0-.063.033-.106.098v.876c0 .083.021.138.062.164.03.02.087.029.171.029v.102h-.747v-.102c.133 0 .2-.055.2-.167v-.814c0-.141-.067-.236-.2-.288v-.061l.45-.189h.064v.283c.034-.051.09-.125.168-.222a.178.178 0 0 1 .133-.061c.053 0 .094.023.123.071.03.047.045.1.045.158zm-1.428-.469c0-.18-.036-.321-.109-.426a.428.428 0 0 0-.37-.178.352.352 0 0 0-.137.022c-.075.034-.113.163-.113.386v.792h.195c.19 0 .326-.048.41-.145.083-.097.124-.247.124-.451zm.377-.004a.678.678 0 0 1-.192.505c-.1.103-.245.164-.434.186a5.9 5.9 0 0 1-.48.011v.77c0 .124.032.205.096.244.04.024.124.04.257.047v.102h-1.01v-.102c.132-.005.215-.023.25-.054.043-.037.065-.122.065-.258V1.012c0-.182-.01-.291-.03-.327-.035-.056-.13-.089-.286-.099V.484h.953c.237 0 .426.053.568.157.162.121.243.302.243.545zm-2.655 1.865h-.664v-.102c.066 0 .111-.014.133-.044.023-.029.035-.078.035-.148V1.88c0-.198-.066-.297-.196-.297-.098 0-.205.071-.32.214v.96c0 .099.026.158.081.178.02.007.051.012.092.014v.102h-.67v-.102c.062 0 .108-.01.136-.032.027-.022.041-.067.041-.135v-.803c0-.156-.059-.257-.178-.306v-.062l.438-.181h.06v.243c.083-.085.15-.143.2-.174a.459.459 0 0 1 .247-.069c.263 0 .394.171.394.512v.83c0 .067.011.114.034.139.023.026.068.038.137.038zm-2.02-.72a2.06 2.06 0 0 0-.048-.476c-.052-.216-.14-.324-.263-.324-.199 0-.298.211-.298.633 0 .184.018.349.055.494.057.223.148.334.273.334.076 0 .142-.053.197-.163.056-.109.084-.275.084-.498zm.353-.076a.965.965 0 0 1-.172.574.57.57 0 0 1-.489.266.59.59 0 0 1-.497-.255.936.936 0 0 1-.17-.57c0-.221.058-.413.177-.575a.596.596 0 0 1 .5-.265c.2 0 .36.087.483.261a.95.95 0 0 1 .168.564zm-1.449.57c-.142.185-.273.277-.394.277-.18 0-.27-.163-.27-.491V1.575h-.148v-.091c.114-.114.187-.19.22-.229a1.15 1.15 0 0 0 .171-.269h.075v.476h.346v.113h-.346v1.091c0 .157.032.236.096.236.055 0 .12-.049.195-.149zm-.942-.239a.5.5 0 0 1-.149.369.492.492 0 0 1-.358.147 1.05 1.05 0 0 1-.469-.138v-.481h.075c.053.175.126.301.22.379.093.078.177.117.253.117.05 0 .095-.02.133-.059a.185.185 0 0 0 .058-.138.21.21 0 0 0-.04-.128c-.049-.067-.156-.139-.322-.217-.27-.126-.405-.302-.405-.527a.47.47 0 0 1 .132-.347.45.45 0 0 1 .334-.133c.11 0 .248.036.415.109l.017.433h-.075c-.135-.294-.29-.44-.466-.44a.146.146 0 0 0-.117.054.188.188 0 0 0-.048.127c0 .049.027.099.08.149.08.078.21.164.39.258.034.018.085.046.154.088a.427.427 0 0 1 .188.378zM8.32 2.331a2.06 2.06 0 0 0-.048-.476c-.053-.216-.14-.324-.263-.324-.199 0-.298.211-.298.633 0 .184.018.349.054.494.058.223.15.334.274.334.076 0 .141-.053.197-.163.056-.109.084-.275.084-.498zm.353-.076a.971.971 0 0 1-.17.574.572.572 0 0 1-.49.266.59.59 0 0 1-.498-.255.936.936 0 0 1-.17-.57c0-.221.058-.413.177-.575a.596.596 0 0 1 .5-.265c.198 0 .36.087.483.261a.95.95 0 0 1 .168.564zm-1.914.127a.808.808 0 0 0-.1-.418.371.371 0 0 0-.339-.2H6v.913c0 .106.032.18.096.221.051.035.13.051.237.051.283 0 .425-.189.425-.567zm-.045-1.236c0-.373-.146-.56-.438-.56-.1 0-.172.021-.213.062s-.06.115-.06.222v.792h.26c.17 0 .29-.041.358-.123.062-.078.093-.209.093-.393zm.431 1.225c0 .453-.247.68-.743.68H5.357v-.102c.118 0 .198-.021.237-.063.04-.043.061-.127.061-.253V.928c0-.138-.018-.23-.053-.275-.036-.045-.117-.067-.245-.067V.484h1.09c.186 0 .34.06.461.181a.635.635 0 0 1 .182.474c0 .339-.159.526-.476.56v.011c.354.084.53.305.53.661zM0 3.046h.49V0H0zm.603 0h.49V0h-.49zm.602 0h.49V0h-.49zM2.635.561c1.974 0 1.637 2.485 0 2.485h-.837v-.072h.893c1.311 0 1.31-2.052-.026-2.052h-.867V.561z" mask="url(#a)" transform="translate(4 16)"/></g></g></svg>