<svg width="36" height="36" fill="none" xmlns="http://www.w3.org/2000/svg"><path d="M18 0c2.837 0 5.52.656 7.907 1.825C31.884 4.753 36 10.895 36 18c0 9.942-8.058 18-18 18-9.94 0-18-8.057-18-18C0 8.06 8.06 0 18 0z" fill="#F2F4F7"/><path d="M26 27.2H10V8h16v19.2z" fill="red"/><path d="m19.923 9.1-.072.072.072.072.072-.072-.072-.071zm-.237.224-.083.083.083.085.085-.085-.085-.083zm.563.102-.072.072.072.072.071-.072-.071-.072zm-.797.121-.097.097.096.097.094-.097-.094-.097zm.56.103-.086.085.085.086.086-.086-.086-.085zm.562.102-.072.071.072.072.072-.072-.072-.071zm-1.36.019-.107.107.107.108.108-.108-.108-.107zm.563.1-.1.099.1.099.1-.1-.1-.099zm.56.099-.088.09.088.089.091-.088-.091-.091zm-1.357.024-.122.122.122.118.121-.118-.121-.122zm1.92.083-.072.075.072.071.071-.071-.071-.075zm-1.36.017-.11.11.11.113.113-.113-.113-.11zm.563.093-.108.108.107.108.108-.108-.108-.108zm-1.358.03-.132.133.132.133.13-.133-.13-.132zm1.92.078-.09.091.09.088.088-.088-.088-.091zm-1.36.02-.124.126.124.124.124-.124-.124-.127zm1.92.088-.072.074.072.072.072-.072-.072-.074zm-1.357.002-.127.127.127.124.124-.124-.124-.127zm-1.36.036-.143.146.143.144.143-.144-.143-.146zm1.92.072-.108.107.108.108.108-.107-.108-.108zm-1.357.025-.14.138.14.14.138-.14-.138-.138zm-7.291.06v1.581h.847c.36 0 .783-.08.783-.458 0-.192-.14-.304-.408-.347v-.006c.225-.059.356-.17.356-.37 0-.271-.28-.4-.654-.4h-.924zm10.499 0v.232h.518v-.232h-.518zm-5.208.003-.508.097v.245h-.306v.284h.295v.519c0 .294.113.46.577.46.13 0 .228-.012.325-.021l-.016-.279a1.058 1.058 0 0 1-.157.016c-.165 0-.21-.076-.21-.226v-.469h.364v-.284h-.364v-.342zm2.56.022-.14.144.14.143.143-.143-.143-.144zm1.36 0-.091.089.09.09.089-.09-.088-.089zm-2.717.067-.133.132.133.132.132-.132-.132-.132zm1.92.04-.125.128.125.124.124-.124-.125-.127zm1.357 0-.072.073.072.071.071-.071-.071-.072zm-2.717.031-.152.152.152.152.151-.152-.151-.152zm.562.08-.085.086c-.394.05-.687.275-.687.634 0 .023 0 .045.003.066l-.08.083.143.144.14-.144v.072l-.107.107c.04.057.091.105.15.147l.143.143.14-.143v.071l-.044.045c.093.029.195.047.304.052v-.077l.16.16.16-.16v.058c.358-.068.623-.289.623-.624v-.005l-.077.077-.14-.143v-.072l.14.143.143-.143-.14-.144a.638.638 0 0 0-.216-.21l-.113-.113-.038.04a1.1 1.1 0 0 0-.235-.061l-.052.052-.064-.064-.077-.002h-.022l-.072-.075zm1.357 0-.102.102h-.168v.15l-.09.09.126.124.124-.124v.072l-.124.124-.036-.033v.4l.127.124.124-.124v.072l-.124.124-.127-.124v.135l-.11-.11-.138.137.138.138.138-.138v.072l-.028.028v.1h.21l-.127.126.132.132.133-.132-.127-.127h.146l-.036-.036v-.072l.122.12.118-.12-.052-.052v-.361a.52.52 0 0 1 .05-.243l-.072-.069v-.072l.099.097.1-.097v.022a.38.38 0 0 1 .146-.024c.14 0 .24.076.24.309v.598h.518v-.772c0-.256-.164-.494-.574-.494-.236 0-.443.079-.546.256h-.008v-.226h-.1l-.102-.102zm-8.454.05h.179c.212 0 .358.017.358.165 0 .137-.146.174-.364.174H12.3v-.34zm6.187.02a.71.71 0 0 0-.105.005l-.107.11-.053-.052a.419.419 0 0 0-.083.063l-.096-.094h-.472v.486l-.1.1.097.096.094-.097v.072l-.09.09v.4l.085.086.085-.085v.072l-.016.016h.35v-.428l-.058-.06v-.072l.11.113.114-.113-.114-.11-.041.038c.03-.154.117-.26.276-.29a.515.515 0 0 1 .096-.008h.034l-.03-.03v-.072l.137.141.138-.14-.094-.094.011-.13a.978.978 0 0 0-.168-.014zm-.124.347-.124.127.124.124.127-.124-.127-.127zm-2.695-.345c-.3 0-.64.118-.64.403 0 .446.736.298.736.507 0 .086-.103.1-.21.1a1.52 1.52 0 0 1-.488-.086l-.027.312c.153.04.31.058.543.058.34 0 .7-.081.7-.411 0-.47-.771-.319-.771-.51 0-.07.127-.086.24-.086.13 0 .293.028.402.083l.042-.298a1.714 1.714 0 0 0-.527-.072zm8.135 0c-.496 0-.872.238-.872.648 0 .408.376.646.872.646.138 0 .295-.017.424-.053l-.01-.32a.834.834 0 0 1-.323.061c-.225 0-.428-.129-.428-.325 0-.214.173-.343.397-.343.124 0 .22.022.315.07l.038-.315a1.11 1.11 0 0 0-.413-.07zm-10.392.03.577.858c-.027.082-.105.121-.232.121a.988.988 0 0 1-.204-.019l-.036.287c.107.014.213.02.323.02.475 0 .59-.218.736-.442l.55-.825h-.52l-.311.56h-.005l-.318-.56h-.56zm7.236.006.107.105.108-.105v.072l-.108.104-.107-.104v-.072zm1.633.002v1.228h.518v-1.228h-.518zm-3.043.05.16.16.16-.16v.072l-.154.154a.42.42 0 0 1 .088-.008c.167 0 .263.082.304.196l.088-.085v.071l-.072.072a.46.46 0 0 1 .008.088c0 .179-.095.342-.328.342a.42.42 0 0 1-.1-.01l-.14.14-.16-.16V11.8l.16.16.086-.088c-.124-.055-.177-.179-.177-.312 0-.029.003-.055.008-.083L19 11.31v-.072l.16.16.097-.096c.003-.004.009-.007.013-.011a.292.292 0 0 1 .122-.06l-.155-.158V11zm1.995.036.085.086.086-.086v.072l-.086.085-.085-.085v-.072zm-3.313.02.118.12.122-.12v.071l-.122.121-.118-.12v-.073zm1.898.035.14.144.144-.144v.072l-.144.143-.14-.143v-.072zm1.989.036.071.072.072-.072v.072l-.072.072-.072-.072v-.072zm-4.11.166.107.107.107-.107v.071l-.107.108-.108-.108v-.071zm3.861.069.086.085.082-.085v.071l-.082.086-.086-.086v-.071zm-2.791.11.16.16.16-.16v.072l-.16.16-.16-.16v-.072zm-6.466.03h.196c.201 0 .394.018.394.193 0 .165-.186.19-.4.19h-.19v-.383zm9.105 0-.093.097.093.096.097-.096-.097-.097zm-.673.006.113.113.11-.113v.072l-.11.113-.113-.114v-.071zm-.844.146.16.16.16-.16v.072l-.16.16-.16-.16v-.072zm-2.557.025-.083.085.083.083.086-.083-.086-.085zm3.84.047-.108.107.108.108.108-.108-.108-.107zm-2.717.093-.124.125.124.127.127-.127-.127-.125zm-.66.034.1.099.096-.1v.075l-.096.097-.1-.097v-.074zm1.86.035.16.16.16-.16v.072l-.16.16-.16-.16v-.072zm-2.629.11.072.072.071-.071v.072l-.071.071-.072-.072V12zm3.114.064-.151.152.151.154.152-.154-.152-.152zm-1.92.011-.107.108.107.107.108-.107-.108-.108zm.56.072-.124.124.124.127.125-.127-.125-.124zm.563.074-.143.141.143.144.14-.144-.14-.14zm-1.92.034-.072.071.072.072.072-.072-.072-.071zm2.48.06-.138.138.138.138.14-.138-.14-.138zm-1.92.014-.088.088.088.091.091-.09-.09-.089zm2.483.069-.144.143.144.147.143-.146-.143-.144zm-1.92.003-.108.107.108.108.107-.108-.107-.107zm.56.072-.124.126.124.124.127-.124-.127-.127zm.563.09-.127.125.127.127.124-.127-.124-.124zm-1.92.017-.072.075.072.071.071-.071-.071-.075zm2.48.066-.133.133.133.132.132-.132-.132-.133zm-1.918.009-.09.088.09.09.089-.09-.089-.088zm.56.071-.107.108.107.107.108-.107-.108-.108zm.56.086-.11.113.11.11.114-.11-.114-.113zm.563.082-.121.12.121.12.119-.12-.119-.12zm-1.92.014L18 12.98l.072.072.072-.072-.072-.072zm.56.072-.088.088.088.091.091-.09-.09-.089zm.563.08-.1.1.1.099.1-.1-.1-.099zm.563.083-.108.107.108.108.107-.108-.107-.107zm-1.36.09-.072.073.072.071.071-.071-.071-.072zm.562.078-.085.086.085.085.086-.085-.086-.086zm.56.077-.096.097.096.096.097-.096-.097-.097zm-.797.171-.072.072.072.072.072-.072-.072-.072zm.563.078-.086.085.086.083.083-.083-.083-.085zm-.237.248-.072.072.072.071.074-.071-.074-.072z" fill="#fff"/></svg>