<svg height="36" viewBox="0 0 36 36" width="36" xmlns="http://www.w3.org/2000/svg"><g fill="none"><path d="M18 0c2.837 0 5.52.656 7.907 1.825C31.884 4.753 36 10.895 36 18c0 9.942-8.058 18-18 18-9.94 0-18-8.057-18-18C0 8.06 8.06 0 18 0z" fill="#f2f4f7"/><path d="M13.431 8.32s-2.068 2.164-2.068 6.348c0 4.184 1.828 6.877 1.828 6.877l-6.685-6.78z" fill="#cc2229"/><g fill="#33348e"><path d="M14.537 14.86c.187-4.324 1.22-7.071 3.862-6.957 2.643.113 3.032 2.248 3.032 2.248s-1.915-.227-2.004 1.84c-.09 2.065 1.929 2.152 1.977 2.154.047.002 1.914-.16 2.367-1.593.61-1.927-.77-4.04-.77-4.04l6.637 6.493-6.829 6.588s.866-1.635.674-3.943c-.125-1.498-2.068-1.78-2.116-1.78-.048 0-2.068 0-2.068 2.068s1.923 1.924 1.923 1.924-.48 2.116-3.126 2.116c-2.645 0-3.559-2.79-3.559-7.118zM6.655 25.195c.245-.375.678-.572 1.126-.572.326 0 .6.101.822.342l.01-.01c-.025-.183.105-.313.298-.313.183 0 .308.126.308.308 0 .164-.039.323-.039.486 0 .13.039.26.039.39 0 .22-.207.332-.405.332-.26 0-.375-.12-.365-.38.005-.14.005-.207-.087-.318-.1-.12-.26-.149-.408-.149-.448 0-.669.284-.669 1.068 0 .736.221 1.039.693 1.039.13 0 .274-.02.37-.11.115-.107.12-.212.12-.357 0-.11 0-.197.063-.293.062-.096.178-.135.293-.135.313 0 .452.226.452.515 0 .726-.687 1.063-1.332 1.063-.438 0-.86-.126-1.169-.457-.288-.313-.413-.837-.413-1.256 0-.38.082-.87.293-1.193zm3.823.929c0 .22-.211.322-.413.322-.236 0-.443-.168-.443-.414 0-.303.308-.577 1.049-.577.24 0 .567.024.779.144.255.145.308.376.308.741v.904c0 .188.029.226.081.226.039 0 .077-.01.116-.01.154 0 .24.13.24.27 0 .27-.269.37-.495.37-.221 0-.467-.08-.548-.307-.226.216-.52.308-.823.308-.438 0-.856-.231-.856-.722 0-1.14 1.491-.548 1.491-1.183 0-.183-.168-.27-.327-.27-.082 0-.159.015-.159.111v.087zm.486.812c-.14.15-.697.077-.697.332 0 .168.134.226.274.226.283 0 .423-.168.423-.452zm2.385-.841h.01c.076-.395.37-.616.773-.616.337 0 .635.255.635.601 0 .246-.154.472-.413.472-.183 0-.337-.12-.337-.313 0-.067.029-.13.058-.187-.539-.04-.553.692-.553 1.077 0 .284.028.336.086.336a.2.2 0 0 0 .072-.019.273.273 0 0 1 .087-.014c.159 0 .212.13.212.274 0 .183-.082.332-.24.332-.26 0-.453-.048-.65-.048-.183 0-.366.048-.539.048-.158 0-.24-.15-.24-.332 0-.144.053-.274.211-.274.034 0 .058.01.087.014.024.005.048.02.072.02.058 0 .087-.048.087-.337v-.693c0-.298-.024-.336-.087-.336-.048 0-.096.033-.159.033-.158 0-.211-.13-.211-.274 0-.183.082-.332.24-.332.14 0 .236.048.332.048.106 0 .207-.048.317-.048.106 0 .15.034.15.207z"/><path d="M15.704 26.095h.01c.077-.395.37-.616.774-.616.337 0 .635.255.635.601 0 .246-.154.472-.414.472-.183 0-.336-.12-.336-.313 0-.067.028-.13.057-.187-.538-.04-.553.692-.553 1.077 0 .284.029.336.087.336.024 0 .048-.01.072-.019a.274.274 0 0 1 .086-.014c.159 0 .212.13.212.274 0 .183-.082.332-.24.332-.26 0-.453-.048-.65-.048-.183 0-.365.048-.538.048-.16 0-.24-.15-.24-.332 0-.144.052-.274.21-.274.035 0 .059.01.087.014.024.005.049.02.073.02.057 0 .086-.048.086-.337v-.693c0-.298-.024-.336-.086-.336-.049 0-.097.033-.16.033-.158 0-.21-.13-.21-.274 0-.183.08-.332.24-.332.139 0 .235.048.331.048.106 0 .207-.048.318-.048.106 0 .15.034.15.207zm2.299.817c-.125 0-.14.02-.14.101a.48.48 0 0 0 .496.481c.168 0 .255-.043.39-.187.154-.164.206-.193.365-.193.188 0 .332.11.332.303 0 .366-.471.683-1.097.683-.788 0-1.279-.529-1.279-1.308 0-.76.471-1.337 1.26-1.337.74 0 1.16.443 1.16 1.154 0 .221-.03.303-.318.303h-1.17zm.572-.533c.111 0 .12-.03.12-.082 0-.13-.12-.298-.36-.298-.245 0-.448.187-.448.312 0 .063.063.068.203.068zm1.5-.13c0-.188-.015-.188-.164-.188-.188 0-.293-.043-.293-.255 0-.197.072-.284.27-.284.182 0 .187-.019.191-.158.02-.525.472-.741.948-.741.159 0 .356.029.495.1.164.087.289.241.289.429 0 .212-.145.375-.361.375-.159 0-.327-.11-.327-.284 0-.052.015-.081.043-.13a.213.213 0 0 0-.096-.02c-.178 0-.24.107-.24.275 0 .154.01.154.163.154.289 0 .342.077.342.26 0 .221-.063.279-.404.279-.087 0-.1.057-.1.187v.88c0 .29.018.337.086.337a.2.2 0 0 0 .076-.019c.025-.005.053-.015.082-.015.159 0 .212.13.212.275 0 .183-.082.332-.284.332-.207 0-.4-.048-.596-.048-.183 0-.366.043-.524.048-.183 0-.265-.15-.265-.332 0-.144.053-.275.212-.275.033 0 .062.01.086.015.029.01.053.02.072.02.077 0 .087-.102.087-.337v-.88z"/><path d="M23.928 26.749c0 .798-.404 1.351-1.246 1.351-.837 0-1.284-.5-1.284-1.322 0-.818.447-1.323 1.28-1.323.788 0 1.25.52 1.25 1.294zm-1.736.029c0 .558.25.717.447.717.168 0 .312-.049.39-.207.071-.15.105-.347.105-.51 0-.558-.211-.717-.47-.717-.227 0-.472.178-.472.717zm2.841.163c0 .101 0 .27.058.366.059.092.16.148.27.149.14 0 .27-.073.345-.192.101-.154.111-.318.111-.496v-.332c0-.26-.02-.336-.087-.336-.024 0-.047.01-.072.014-.029.01-.053.02-.086.02-.16 0-.212-.13-.212-.275 0-.182.082-.332.294-.332.158 0 .264.049.423.049.13 0 .22-.049.341-.049.125 0 .154.053.154.16v1.442c0 .289.034.337.087.337.048 0 .096-.034.159-.034.158 0 .211.13.211.274 0 .183-.081.332-.283.332-.12 0-.231-.048-.342-.048-.106 0-.212.048-.303.048-.12 0-.173-.082-.173-.159v-.192h-.01c-.178.265-.524.414-.846.414-.496 0-.794-.289-.794-.775v-.89c0-.293-.033-.336-.086-.336-.025 0-.048.01-.073.015-.028.009-.052.019-.086.019-.159 0-.212-.13-.212-.274 0-.183.082-.332.308-.332.154 0 .279.048.438.048.149 0 .22-.048.341-.048.125 0 .125.091.125.216v1.197z"/><path d="M28.014 26.095h.01c.077-.395.37-.616.774-.616.337 0 .635.255.635.601 0 .246-.154.472-.414.472-.182 0-.336-.12-.336-.313 0-.067.029-.13.058-.187-.54-.04-.554.692-.554 1.077 0 .284.03.336.087.336a.2.2 0 0 0 .072-.019.273.273 0 0 1 .087-.014c.158 0 .211.13.211.274 0 .183-.081.332-.24.332-.26 0-.452-.048-.65-.048-.182 0-.365.048-.538.048-.159 0-.24-.15-.24-.332 0-.144.052-.274.211-.274.034 0 .058.01.087.014.024.005.048.02.072.02.057 0 .086-.048.086-.337v-.693c0-.298-.024-.336-.086-.336-.048 0-.096.033-.159.033-.159 0-.211-.13-.211-.274 0-.183.081-.332.24-.332.14 0 .236.048.332.048.106 0 .207-.048.317-.048.106 0 .15.034.15.207v.36z"/></g></g></svg>