<svg height="36" viewBox="0 0 36 36" width="36" xmlns="http://www.w3.org/2000/svg"><g fill="none" fill-rule="evenodd"><path d="M18 0c2.837 0 5.52.656 7.907 1.825C31.884 4.753 36 10.895 36 18c0 9.942-8.058 18-18 18-9.94 0-18-8.057-18-18C0 8.06 8.06 0 18 0z" fill="#f2f4f7" fill-rule="nonzero"/><path d="M5 22.527v.153h25v-.153z" fill="#1a171b"/><path d="M24.21 8.136c-.058 1.009-.888 1.688-1.323 2.539-.187.509-.63.809-.946 1.267-.29.294-.557.609-.8.943.043.237.293.3.437.473.321.193.357.558.636.78.164 0 .164.242.343.215.379.406.686.83 1.001 1.272a.914.914 0 0 0 .265.43c.251.365.457.751.715 1.123.036.415.386.693.494 1.08.157.208.222.45.365.658.222.487.372.995.636 1.46.05.107-.014.214-.071.293-.1.078-.179-.065-.293-.043-.587-.214-1.145-.522-1.688-.851-.56-.45-1.174-.773-1.725-1.245-.215-.057-.3-.308-.5-.407-.53-.33-.951-.802-1.488-1.11-.243-.185-.487-.365-.73-.558-.186-.021-.25-.235-.43-.3-.4-.243-.764-.58-1.172-.809-.036.058 0 .143-.036.201-.271.265-.2.673-.393.966-.008.42-.3.73-.422 1.101-.337.601-.63 1.217-.98 1.811-.466.614-.716 1.358-1.374 1.853-.143.178-.308.27-.486.385-.079-.021-.194-.006-.215-.108-.078-.15.021-.38-.086-.515.094-.206.036-.443.078-.671l-.035-.1c.007-.316.164-.58.101-.902.084-.2.12-.423.142-.644.1-.271.186-.565.215-.858.093-.171.13-.393.107-.594.072-.186.086-.408.28-.543.027-.122 0-.244.02-.373.194-.586.43-1.15.58-1.752 0-.043-.043-.057-.072-.065-.422-.022-.815.065-1.209-.042a9.975 9.975 0 0 1-1.91-.222c-.25-.05-.55-.022-.78-.165-.15.008-.32.036-.464-.042-.293-.144-.651-.122-.945-.28-.222.028-.379-.114-.579-.135-.193.013-.3-.15-.435-.258v-.065c.357-.486.928-.622 1.443-.808.51-.158 1.074-.171 1.603-.279.336-.057.7.036 1.037-.021.609.014 1.195.114 1.796.128.2.029.386.122.587.114l-.008-.085-.566-.773c-.214-.5-.607-.922-.743-1.452-.129-.157-.007-.393-.107-.566-.008-.078.058-.135.092-.2.123-.05.258.036.38-.042.365.085.7.215 1.065.286.38.151.766.3 1.103.551.421.3.928.493 1.259.958.085.08.222.094.335.065.101-.015.123-.135.215-.172.443-.28.944-.437 1.382-.744.177-.18.464-.2.571-.443.136-.064.258-.15.401-.187.25-.179.5-.37.772-.514.143-.015.258-.094.373-.173.444-.243.908-.443 1.33-.722.093-.25.372-.193.572-.25.1.021.236.007.28.136" fill="#0097d4"/><path d="M13.6 15.053c.144.1.136.301.266.401l.063.444-.322.472c-.407.214-1.015.307-1.395-.036-.213-.192-.271-.473-.213-.751l.15-.407c.086-.059.199-.073.257-.173.201-.128.458-.1.687-.15.172.057.43-.036.508.2" fill="#fab913"/><path d="M12.542 17.665c.13 0 .222.093.344.071.171.064.149.271.328.321.137.273.222.567.294.86-.051.17.093.272.043.428l.05.03a1.26 1.26 0 0 1-.079.507c.028.3-.122.551-.252.809-.092.057-.134.221-.263.192-.23.073-.25.416-.53.373-.179.135-.422.057-.636.064-.122-.064-.293-.05-.38-.157-.214-.086-.408-.244-.593-.401-.072-.158-.236-.229-.257-.408.064-.214-.072-.407-.015-.622l-.044-.358.137-.615c.229-.122.164-.4.393-.486.143-.33.487-.401.752-.566.1-.02.221.036.3-.057.143-.021.278.129.408.015" fill="#e85426"/><path d="M22.351 26.23c.15-.222.301-.318.596-.318.409 0 .432.36.432.685-.083 0-.186-.018-.282-.018-.546 0-1.155.247-1.155.884 0 .445.403.697.812.697.265 0 .457-.143.662-.294.072.15.252.265.48.294l.452-.36-.09-.09a.592.592 0 0 1-.126.024c-.132 0-.18-.078-.18-.356v-.209c.005-.343.024-.656.024-.873 0-.6-.458-.745-.992-.745a2.725 2.725 0 0 0-.777.108v.571zm1.047 1.468a.721.721 0 0 1-.403.102.478.478 0 0 1-.469-.488c0-.385.289-.528.566-.528.108 0 .222.017.287.029zM8.983 24.709h-.26c-.19-.58-.795-.808-1.325-.808-1.073 0-1.518.863-1.518 1.9 0 1.739 1.258 2.035 1.77 2.035.5 0 .95-.216 1.222-.648l.191.08-.191.685c-.493.092-.803.142-1.203.142-1.838 0-2.646-1.136-2.646-2.245 0-1.27.981-2.208 2.362-2.208.802 0 1.11.135 1.549.247zm1.874 2.101a1.746 1.746 0 0 0-.29-.03c-.277 0-.566.146-.566.531a.48.48 0 0 0 .47.488.724.724 0 0 0 .404-.102zm-1.175-.584v-.572c.252-.073.514-.11.777-.109.535 0 .993.146.993.747 0 .217-.018.532-.023.875v.21c0 .278.047.356.18.356a.55.55 0 0 0 .126-.024l.09.09-.45.361c-.23-.03-.41-.144-.483-.295-.204.15-.397.295-.662.295-.41 0-.813-.253-.813-.698 0-.638.609-.886 1.156-.886.097 0 .199.018.283.018 0-.325-.023-.686-.433-.686-.295 0-.446.095-.597.318zm2.83-1.69c.175 0 .331.125.331.307 0 .18-.156.306-.33.306s-.332-.126-.332-.307c0-.18.156-.307.331-.307zm.296 1.017c0 .253.023.782.023 1.277v.88c0 .205.096.234.236.27v.121c-.182 0-.362-.018-.543-.018-.162 0-.325.012-.488.018v-.12c.144-.037.211-.066.211-.272v-.746c0-.435-.036-.676-.084-.802-.048-.12-.109-.162-.254-.186v-.12c.278-.067.597-.181.778-.302zm.558 2.428c.193-.03.32-.18.398-.283l.584-.747-.692-.94c-.115-.15-.157-.193-.332-.271v-.12c.181.006.368.018.548.018.181 0 .362-.012.543-.019v.12c-.073.037-.127.05-.127.14 0 .041.019.12.071.192l.332.452.295-.391c.061-.085.091-.157.091-.2 0-.114-.072-.156-.17-.192v-.12c.164.006.32.018.484.018.155 0 .318-.012.475-.019v.12c-.235.055-.361.2-.493.368l-.513.65.65.905c.09.12.23.27.38.319v.121c-.18-.007-.356-.02-.535-.02-.182 0-.357.013-.538.02v-.121a.141.141 0 0 0 .121-.133.571.571 0 0 0-.096-.205l-.325-.464-.325.44a.554.554 0 0 0-.084.224c0 .095.047.125.126.138v.121c-.157-.007-.32-.02-.476-.02-.132 0-.26.013-.392.02zm4.126-1.17a1.757 1.757 0 0 0-.29-.03c-.276 0-.566.145-.566.53a.48.48 0 0 0 .47.488.728.728 0 0 0 .404-.102zm-1.175-.585v-.572a2.75 2.75 0 0 1 .777-.109c.536 0 .994.146.994.747 0 .217-.018.532-.024.875v.21c0 .278.048.356.18.356a.58.58 0 0 0 .127-.024l.091.09-.453.361c-.228-.03-.408-.144-.48-.295-.206.15-.399.295-.664.295-.41 0-.814-.253-.814-.698 0-.638.608-.886 1.158-.886.096 0 .198.018.283.018 0-.325-.025-.686-.434-.686-.295 0-.446.095-.597.318zm3.323-.128c.126 0 .222-.006.324-.006.578 0 .914.409.914.956 0 .463-.307.836-.824.836-.372 0-.414-.06-.414-.384zm-.644 1.49c0 .26-.078.35-.343.38v.108h1.035c.084 0 .168.006.246.012.084.006.17.013.247.013.655 0 1.431-.253 1.431-1.029 0-.625-.378-.944-.944-1.1v-.013c.451-.143.872-.475.872-.985 0-.782-.806-1.07-1.479-1.07-.145 0-.283.023-.554.023-.24 0-.487-.023-.787-.023v.131c.162.024.258.079.258.307 0 .54.018 1.305.018 2.026zm.674-3.348c0-.114.072-.12.24-.12.65 0 .897.348.897.878 0 .523-.362.853-.897.853-.077 0-.162-.006-.27-.011zm4.776 1.728c.18 0 .264.101.264.276 0 .191.03.517.03.865v.59c0 .205-.072.228-.222.283v.12c.168 0 .343-.018.511-.018.174 0 .343.012.517.018v-.12c-.162-.019-.222-.066-.222-.282v-.494c0-.47.011-.805.011-1.034 0-.222.385-.283.506-.283.427 0 .493.445.493.77v1.04c0 .205-.048.247-.217.283v.12c.192 0 .38-.018.572-.018.15 0 .294.012.445.018v-.12c-.168-.048-.217-.09-.217-.282v-1.275c0-.511-.234-.866-.83-.866-.252 0-.523.149-.733.288.006-.102.006-.198.012-.3h-.12a2.065 2.065 0 0 1-.8.3zm5.519 2.006c-.18-.053-.397-.246-.475-.336l-.908-1.064.463-.488c.144-.15.342-.288.56-.349v-.12a6.535 6.535 0 0 1-.945 0v.12c.054.025.107.097.107.157 0 .065-.029.157-.155.282l-.494.487v-2.832h-.132c-.216.162-.499.29-.799.368v.137c.15 0 .289.145.3.391.018.229.048.68.048 1.029v1.947c0 .133-.048.241-.228.27v.121c.161-.011.319-.018.481-.018.18 0 .354.018.535.018v-.12c-.145-.03-.205-.102-.205-.281v-.825h.013l.62.68c.101.114.173.253.173.318 0 .06-.042.108-.096.108v.12c.205 0 .41-.018.614-.018.174 0 .349.012.523.018z" fill="#1a171b"/></g></svg>