<svg width="36" height="36" fill="none" xmlns="http://www.w3.org/2000/svg"><path d="M18 0c2.837 0 5.52.656 7.907 1.825C31.884 4.753 36 10.895 36 18c0 9.942-8.058 18-18 18-9.94 0-18-8.057-18-18C0 8.06 8.06 0 18 0z" fill="#F2F4F7"/><path d="m4 19.423 14.734.065s-1.623.973-1.72 1.07c-.097.098-12.657-1.103-13.014-1.135m4.176-2.748c-.217-.227-.823-.385-1.147-.385-.792 0-1.315.409-1.315.927 0 .48.493.888 1.315.888.404 0 .83-.093 1.039-.284h.573c-.13.163-.815.574-1.622.574-1.12 0-1.813-.605-1.813-1.178 0-.708.752-1.217 1.838-1.217.463 0 1.305.22 1.619.675h-.487zm1.982-.611.382-.008 1.5 2.28h-.486l-.495-.755H9.623l-.511.762h-.463l1.51-2.28zm.714 1.241-.543-.892-.54.885 1.083.007zm1.429-1.247h1.11c.556 0 .971.184.971.57 0 .26-.226.425-.55.502v.006c.383.02.69.261.69.567 0 .409-.501.634-1.124.634h-1.097v-2.279zm.434.947h.59c.33 0 .597-.094.597-.342 0-.18-.158-.334-.506-.334h-.681v.676zm0 1.062h.636c.262 0 .69-.065.69-.386 0-.27-.266-.406-.686-.406h-.64v.792zm2.168-2.009h.393v1.99h1.33v.29h-1.723v-2.28zm2.062 0h1.945v.29h-1.537v.679h1.43v.29h-1.43v.73h1.613v.29h-2.021v-2.279z" fill="#2151A8"/><path d="M21.467 17.15c1.164 0 1.906.52 1.737 1.334-.168.813-1.124 1.333-2.289 1.333-1.164 0-1.906-.52-1.737-1.334.168-.814 1.124-1.334 2.289-1.334zm-.464 2.033c.482.013.738-.241.89-.678.14-.408-.091-.844-.533-.84-.523.006-.839.358-.914.795-.054.313.03.707.557.723m2.757-1.973 1.127.004 1.058 1.396.33-1.4 1.059.004-.531 2.539h-1.087l-1.082-1.429-.302 1.416-1.105.013.533-2.544zm4.087.004h3.136l-.108.516h-1.958l-.1.474h1.577l-.108.516h-1.561l-.108.517h1.888l-.107.516h-3.082l.53-2.54zm3.797-.034c.196 0 .356.132.356.294 0 .163-.16.294-.356.294-.196 0-.356-.131-.356-.294 0-.162.16-.294.356-.294zm0 .536c.162 0 .293-.108.293-.242s-.131-.242-.293-.242c-.161 0-.293.108-.293.242s.132.242.293.242zm-.137-.412h.157c.098 0 .144.036.144.101 0 .059-.042.087-.098.093l.106.142h-.078l-.101-.137h-.055v.137h-.075v-.336zm.075.146h.055c.045 0 .096-.002.096-.047s-.05-.048-.096-.047h-.055v.094zM5.363 18.774l13.339.065s-1.623.973-1.72 1.07c-.098.098-11.262-1.103-11.619-1.135" fill="#D41042"/></svg>