<svg width="36" height="36" fill="none" xmlns="http://www.w3.org/2000/svg"><path d="M18 0c2.837 0 5.52.656 7.907 1.825C31.884 4.753 36 10.895 36 18c0 9.942-8.058 18-18 18-9.94 0-18-8.057-18-18C0 8.06 8.06 0 18 0z" fill="#F2F4F7"/><path d="m19.618 14.908-.022-.018c-2.935.119-5.689 1.036-7.54 2.178a3.738 3.738 0 0 0-.263-.35c1.661-1.026 3.98-1.882 5.955-2.14l-.027-.015c-2.114.212-4.18.854-5.651 1.65a2.373 2.373 0 0 0-.213-.313c1.287-.74 2.942-1.336 4.523-1.626l-.023-.016c-1.845.28-3.513.795-4.665 1.448a3.672 3.672 0 0 0-.275-.27 7.61 7.61 0 0 1 .378-.214c.057.059.113.119.166.18l.065-.061a2.533 2.533 0 0 0-.117-.178 12.528 12.528 0 0 1 3.037-1.043l-.025-.016c-.935.167-2.18.45-3.132.906-.782-.928-2.371-1.561-4.68-2.01l-.021.013c2.088.474 3.618 1.184 4.56 2.066-.137.07-.266.144-.387.222-1.108-.91-3.068-1.728-5.65-2.109l-.023.013c2.278.413 4.183 1.235 5.465 2.242a2.43 2.43 0 0 0-.336.304c-1.424-1.008-3.68-1.856-6.696-2.247L4 13.518c2.495.398 5.094 1.278 6.858 2.76-.233.2-.42.409-.552.622l.075.078c.19-.186.41-.368.653-.545.092.078.18.163.268.248-.607.416-1.041.864-1.237 1.297l.08.065c.337-.389.808-.776 1.366-1.146.102.112.198.218.29.334-1.138.75-1.89 1.577-2.057 2.339l.088.06c.48-.81 1.25-1.517 2.172-2.138.143.2.275.406.39.627l.082-.052a2.431 2.431 0 0 0-.252-.711c2.316-1.469 5.473-2.332 7.394-2.448zm-8.779.932c.11-.09.233-.182.366-.271.1.085.196.168.287.253-.129.08-.25.159-.364.245-.092-.08-.188-.151-.289-.227zm.48.394c.116-.081.236-.154.36-.232a5 5 0 0 1 .26.285c-.121.065-.238.138-.35.205a4.533 4.533 0 0 0-.27-.258z" fill="#F04E44"/><path d="M17.913 19.48h.477v.45h-.477v-.45zm.007.812h.463v1.916h-.463v-1.916zm4.75 1.916h.463v-2.789h-.464v2.789zm.967-2.788h.234v1.191h1.022V19.42h.234v2.789h-.234v-1.392h-1.022v1.392h-.234V19.42zm2.159 1.903c0 .71.464.717.55.717a.703.703 0 0 0 .414-.159l.012.244a.847.847 0 0 1-.45.11c-.752 0-.776-.792-.776-.984 0-.654.248-.984.675-.984.474 0 .68.375.68 1.056h-1.105zm.855-.203c0-.412-.167-.652-.426-.652-.293 0-.43.276-.43.652h.856zm2.341 1.088h.227v-2.789h-.227v2.789zm1.048-2.363v.447h.392v.188h-.393v1.263c0 .154.02.3.222.3.091 0 .136-.02.171-.03v.194a.554.554 0 0 1-.22.027c-.332 0-.4-.217-.4-.432V20.48h-.29v-.188h.29v-.384l.227-.063zm-17.14.561c.13-.06.31-.142.578-.142.575 0 .765.284.765.723v.884c0 .138.015.263.025.337h-.417a.802.802 0 0 1-.027-.217h-.006a.692.692 0 0 1-.533.248c-.338 0-.579-.204-.579-.56 0-.519.459-.652.926-.652h.178v-.072c0-.19-.093-.363-.358-.363a.882.882 0 0 0-.526.186l-.026-.372zm.91.866h-.169c-.22 0-.503.066-.503.36 0 .175.115.294.295.294.247 0 .377-.201.377-.446v-.208zm7.061-.866c.13-.06.312-.142.578-.142.576 0 .762.284.762.723v.884c0 .138.016.263.028.337h-.415a.785.785 0 0 1-.027-.217h-.008a.69.69 0 0 1-.532.248c-.338 0-.58-.204-.58-.56 0-.519.46-.652.926-.652h.178v-.072c0-.19-.093-.363-.358-.363-.23 0-.436.11-.525.186l-.027-.372zm.91.866h-.17c-.22 0-.5.066-.5.36 0 .175.115.294.293.294.248 0 .377-.201.377-.446v-.208zm-7.083-.661c0-.12-.004-.23-.015-.319h.417c.004.118.013.15.013.266h.008c.036-.083.125-.293.49-.293.03 0 .052.006.078.01v.428a.581.581 0 0 0-.13-.015c-.19 0-.4.117-.4.474v1.046h-.46v-1.597zm2.754-1.191v2.462c0 .137.004.256.016.326h-.434a2.21 2.21 0 0 1-.014-.248h-.01c-.027.053-.149.28-.513.28-.477 0-.675-.455-.675-.987 0-.625.236-.989.712-.989.31 0 .42.186.448.224h.01V19.42h.46zm-.827 2.48c.273 0 .366-.294.366-.655 0-.371-.106-.642-.358-.642-.259 0-.349.248-.349.63 0 .445.073.668.34.668zm-4.168.255c-.05.018-.195.092-.563.092-.79 0-1.197-.577-1.197-1.337 0-.759.407-1.336 1.182-1.336.34 0 .52.074.579.097l-.026.432c-.045-.027-.186-.134-.493-.134-.394 0-.734.27-.734.941 0 .675.34.943.734.943.232 0 .385-.057.492-.134l.026.436zm6.395-1.544c0-.12-.003-.23-.014-.319h.434c.003.06.013.195.013.243h.007c.039-.058.16-.27.502-.27.4 0 .578.254.578.63v1.313h-.463v-1.24c0-.235-.14-.325-.297-.325-.154 0-.297.085-.297.325v1.24h-.463v-1.597zm11.894-1.191h.229v1.048h.004c.053-.068.17-.2.462-.2.36 0 .559.293.559.56v1.38h-.23v-1.327c0-.255-.15-.427-.393-.427-.244 0-.402.164-.402.427v1.327h-.229v-2.789zM28.26 20.9c0-.264-.095-.432-.418-.432-.26 0-.441.181-.464.2l-.035-.231c.109-.068.268-.17.518-.17.536 0 .628.389.628.59v.924c0 .143.01.285.021.427h-.22l-.012-.231h-.008c-.049.064-.154.257-.52.257-.36 0-.563-.225-.563-.565 0-.488.416-.614.91-.614h.162V20.9zm-.183.344c-.403 0-.65.12-.65.42 0 .19.12.368.374.368.102 0 .458-.04.458-.563v-.225h-.182z" fill="#231F20"/></svg>