<svg width="36" height="36" fill="none" xmlns="http://www.w3.org/2000/svg"><path d="M18 0c2.837 0 5.52.656 7.907 1.825C31.884 4.753 36 10.895 36 18c0 9.942-8.058 18-18 18-9.94 0-18-8.057-18-18C0 8.06 8.06 0 18 0z" fill="#F2F4F7"/><path d="M8.315 16.003c.097-.02.17.07.237.127.062.066.156.155.107.253a.69.69 0 0 1-.26.262c-.072.04-.15-.014-.202-.061-.077-.074-.17-.152-.184-.264.017-.091.09-.157.153-.22a.411.411 0 0 1 .149-.098z" fill="#D71C2E"/><path d="M22.313 16.52c.036-.004.072-.002.107-.002.002.134.001.269.001.403.219.002.438-.001.657.001v.316h-.658c.003.33-.004.657.01.986.005.087-.012.188.045.263.056.047.134.043.203.048.143.001.286-.009.428-.027.014.1.035.198.049.298-.216.073-.441.138-.671.12-.164-.005-.354-.02-.467-.155-.095-.12-.108-.282-.112-.429.002-.368.01-.736.011-1.104l-.289.001.002-.197.573-.44c.036-.028.07-.06.111-.08" fill="#202F5C"/><path d="M7.798 16.95c.219-.037.439-.075.661-.076.041.002.081.013.121.022a.24.24 0 0 1 .041.142c0 .48 0 .959.007 1.439a.334.334 0 0 0 .02.104c.019.025.052.03.08.038.076.02.152.038.229.054 0 .072-.006.144-.017.216-.377-.006-.754.002-1.13-.005-.004-.067-.01-.135-.01-.203.085-.027.174-.046.256-.084.05-.034.06-.1.062-.156.007-.415.017-.83.01-1.245a9.86 9.86 0 0 0-.326 0c-.004-.082-.004-.164-.004-.246m1.805-.036c.283-.072.583-.03.855.066.035.016.078.023.106.052a7.62 7.62 0 0 1-.065.5 4.472 4.472 0 0 0-.179-.018c-.03-.116-.09-.231-.2-.287a.596.596 0 0 0-.408-.043c-.096.024-.152.13-.134.226.037.094.138.134.223.175.237.109.506.184.686.384.132.143.146.36.085.538a.607.607 0 0 1-.386.356c-.37.126-.782.068-1.136-.084.006-.18.023-.36.03-.54h.2a.458.458 0 0 0 .224.343.63.63 0 0 0 .492.03c.117-.041.157-.227.053-.303-.077-.068-.176-.1-.269-.14-.182-.078-.378-.151-.512-.304-.147-.16-.171-.405-.096-.604.072-.18.247-.3.431-.347" fill="#D71C2E"/><path d="M13.383 16.97c.16-.034.32-.072.483-.085a.453.453 0 0 1 .228.024c.056.025.085.089.089.148.005.403-.006.806.007 1.21.004.078.012.165.066.228.052.061.14.066.215.058.157-.023.304-.089.447-.155.019-.4.015-.802.014-1.202-.099-.002-.198 0-.296-.003v-.223c.178-.033.353-.082.535-.088.069-.002.146.004.2.052.044.042.054.105.053.163v.797c.005.22.015.441.02.661.1 0 .2 0 .3.002.01.072.024.144.03.217-.198.092-.42.165-.64.124-.123-.023-.19-.149-.195-.265-.171.147-.372.289-.606.295-.171.002-.36-.012-.5-.124-.11-.094-.14-.247-.145-.385-.001-.408.001-.816-.001-1.223-.102-.003-.204 0-.305-.003a4.069 4.069 0 0 1 0-.223" fill="#202F5C"/><path d="M26.038 17.162a.746.746 0 0 1 .471-.27.923.923 0 0 1 .325.02l-.043.177c-.157-.036-.335-.045-.477.044a.663.663 0 0 0-.273.291c-.005.488 0 .976-.003 1.464h-.203v-1.964a3.42 3.42 0 0 1 .203-.004v.242" fill="#EE4420"/><path d="M5.77 16.925c.296-.008.591-.004.886-.002a3.36 3.36 0 0 0-.011.25c-.076.001-.152.001-.229.004.116.357.235.713.349 1.071.014.035.024.072.041.105.13-.312.256-.625.385-.938a.196.196 0 0 0-.022-.21c-.035-.041-.093-.043-.142-.054a1.175 1.175 0 0 1 0-.226c.235-.008.469-.006.702 0-.004.07-.005.14-.014.21a.827.827 0 0 0-.185.277l-.634 1.465a12.21 12.21 0 0 1-.372.108l-.596-1.637c-.027-.092-.109-.145-.172-.21-.004-.072.008-.143.014-.213" fill="#D71C2E"/><path d="M28.694 16.92c.068 0 .136.001.203.004v1.029c.002.169-.01.34.026.506.023.1.084.199.183.239a.601.601 0 0 0 .404-.002c.17-.051.319-.15.471-.237.002-.511.002-1.023 0-1.534a3.93 3.93 0 0 1 .188-.004c.003.655.002 1.311.001 1.966-.063 0-.126 0-.189-.004a9.679 9.679 0 0 0 0-.229c-.177.12-.367.236-.583.265-.172.021-.364.01-.505-.104-.118-.096-.168-.249-.186-.395-.022-.181-.011-.364-.014-.545l.001-.955m-.37.31a.689.689 0 0 0-.331-.29 1.007 1.007 0 0 0-.54-.044.773.773 0 0 0-.477.296c-.171.227-.216.523-.206.801.006.232.063.472.21.656a.75.75 0 0 0 .484.258c.218.028.452 0 .638-.124a.798.798 0 0 0 .288-.374c.067-.17.085-.354.084-.535-.005-.22-.035-.45-.15-.644zm-.068.874c-.023.188-.083.385-.232.511-.148.123-.356.148-.54.114a.55.55 0 0 1-.356-.229.995.995 0 0 1-.148-.507c-.01-.188.012-.38.081-.557.07-.17.209-.32.392-.363a.68.68 0 0 1 .496.061.622.622 0 0 1 .253.337c.07.203.075.422.054.633zm3.678-.697a.74.74 0 0 0-.286-.393.774.774 0 0 0-.487-.12 1.072 1.072 0 0 0-.506.188 2.943 2.943 0 0 0-.007-.163c-.066.002-.131.002-.196.007.002.917.001 1.834 0 2.75.067.003.133.003.2.002.005-.261-.003-.523.004-.784.16.023.322.023.483.021.244 0 .498-.094.65-.292.127-.162.184-.37.202-.572.02-.216.012-.437-.057-.644zm-.195.873a.624.624 0 0 1-.357.404c-.125.056-.265.053-.398.05a2.817 2.817 0 0 1-.327-.032c-.008-.301-.002-.603-.004-.904.002-.176-.005-.351.006-.527.124-.067.245-.145.385-.177.193-.05.421-.01.56.142.11.124.153.293.173.454.02.197.026.4-.038.59" fill="#EE4420"/><path d="M21.58 17.939c0-.144.006-.29-.023-.432a.75.75 0 0 0-.25-.462c-.16-.13-.373-.167-.574-.163-.239 0-.476.1-.643.272-.224.222-.33.546-.315.858.006.246.052.52.242.695.194.172.468.203.716.209.28.011.563-.048.812-.176-.027-.093-.059-.185-.087-.278a2.752 2.752 0 0 1-.569.06c-.156-.004-.326-.032-.441-.147-.117-.113-.15-.28-.163-.436h1.295zm-1.3-.249c.003-.174.06-.365.212-.466.131-.081.329-.1.44.025.106.12.116.29.12.442h-.773m-7.029-.481a.542.542 0 0 0-.295-.248 1.241 1.241 0 0 0-.91.034c-.002-.245.001-.49-.002-.735a.122.122 0 0 0-.119-.12c-.236-.011-.47.038-.7.086a4.715 4.715 0 0 0 0 .223h.328v1.094c.006.426-.01.852-.013 1.278.22.056.447.092.675.094.265.008.54-.046.755-.208.248-.176.389-.473.41-.773.013-.246-.006-.506-.129-.725zm-.415.841c-.025.2-.124.422-.326.494-.144.058-.3.023-.449.008-.013-.424-.02-.849-.015-1.274.117-.04.24-.054.364-.064a.378.378 0 0 1 .35.196c.108.194.095.426.076.64" fill="#202F5C"/><path d="M5.944 18.553a7.946 7.946 0 0 1-.297 0 17.157 17.157 0 0 1-.025-1.088c.005-.158-.038-.332-.167-.436-.16-.13-.376-.148-.574-.152a2.085 2.085 0 0 0-.756.121c.024.117.055.233.087.348.236-.058.482-.09.724-.057.08.011.166.054.184.14.019.117.007.236.008.353-.305.032-.632.048-.894.223a.554.554 0 0 0-.177.697c.09.169.296.225.475.218.236-.004.443-.145.605-.307.01.075.02.158.073.217.049.057.126.077.198.084a.798.798 0 0 0 .557-.19c.003-.057-.012-.114-.02-.17zm-.817-.125c-.17.051-.352.14-.529.076-.136-.057-.122-.265-.009-.339.157-.109.358-.11.54-.136 0 .133.003.266-.002.399" fill="#D71C2E"/><path d="M25.658 17.185v-.191c-.176-.003-.353.006-.529-.004a.775.775 0 0 0-.31-.125c-.227-.033-.486-.008-.664.151-.18.158-.236.416-.2.645a.54.54 0 0 0 .175.329.92.92 0 0 0 0 .029.948.948 0 0 0-.138.42c-.01.068.02.131.061.184l.046.011c-.104.122-.217.245-.26.404a.486.486 0 0 0 .115.494c.229.201.559.215.845.168a.978.978 0 0 0 .584-.324.593.593 0 0 0 .15-.433c-.007-.157-.116-.292-.248-.368a1.04 1.04 0 0 0-.524-.112c-.18.001-.36-.002-.54.002-.002-.132 0-.264 0-.396.241.11.532.131.778.025a.62.62 0 0 0 .349-.386.783.783 0 0 0-.044-.525c.118.003.236.002.354.002zm-1.386 1.483c.204 0 .41-.01.614.012.144.022.306.065.39.196.069.1.047.236-.017.333-.125.192-.352.297-.576.312a.815.815 0 0 1-.504-.113.346.346 0 0 1-.14-.365c.031-.148.129-.27.233-.375zm.742-.81c-.154.142-.392.157-.582.088a.4.4 0 0 1-.254-.322c-.018-.149-.005-.314.09-.437.06-.08.153-.13.25-.152.14-.03.295-.02.42.054.255.158.283.562.076.768z" fill="#EE4420"/><path d="m19.86 16.876-.57.134c-.18-.124-.405-.156-.619-.152a.838.838 0 0 0-.589.212.68.68 0 0 0-.177.672.531.531 0 0 0 .225.293c-.111.155-.211.327-.238.52h-.284a53.275 53.275 0 0 1-.01-2.197c-.002-.056 0-.116-.027-.165-.036-.053-.106-.054-.163-.055-.216 0-.43.037-.641.074-.002.08-.002.158-.002.237.11.002.22 0 .331.001v.473a1.815 1.815 0 0 0-.506.002.963.963 0 0 0-.586.345c-.187.234-.25.546-.225.84.014.215.065.444.221.602.15.159.38.206.59.201.204-.004.377-.14.502-.291.003.117.046.27.181.294.233.024.465-.059.663-.176.042.04.094.069.151.083a.605.605 0 0 0-.259.251.372.372 0 0 0 .101.46c.13.098.296.13.454.147.345.029.71-.01 1.012-.19.176-.104.327-.277.349-.487.012-.147-.004-.321-.125-.423-.128-.107-.301-.125-.46-.14-.29-.015-.58-.003-.87-.008-.002-.11-.001-.22-.001-.33.244.077.512.09.757.012a.683.683 0 0 0 .439-.38.714.714 0 0 0 .002-.487h.373c0-.124-.001-.248.001-.372zm-2.78 1.547c-.149.064-.32.114-.48.062a.4.4 0 0 1-.251-.234c-.063-.142-.052-.302-.045-.454.015-.19.05-.404.204-.532.17-.128.396-.08.589-.047-.002.402.007.804-.017 1.205zm1.22.425c.221 0 .443-.003.665.002.097.007.22.016.272.113.049.135-.027.294-.152.358-.125.07-.273.067-.412.057a.73.73 0 0 1-.363-.108.25.25 0 0 1-.105-.249c.01-.067.056-.12.095-.172zm.558-.979c-.15.079-.373.047-.46-.11a.578.578 0 0 1-.018-.43.3.3 0 0 1 .223-.199c.093-.02.2-.012.277.05.106.078.138.22.138.346.002.129-.04.276-.16.343" fill="#202F5C"/></svg>