<svg height="36" viewBox="0 0 36 36" width="36" xmlns="http://www.w3.org/2000/svg"><mask id="a" fill="#fff"><path d="M0 0h1v1.01H0z" fill-rule="evenodd"/></mask><mask id="b" fill="#fff"><path d="M0 0h1v1.012H0z" fill-rule="evenodd"/></mask><mask id="c" fill="#fff"><path d="M0 0h1v1.01H0z" fill-rule="evenodd"/></mask><mask id="d" fill="#fff"><path d="M0 .014h1v.972H0z" fill-rule="evenodd"/></mask><mask id="e" fill="#fff"><path d="M0 .02h1v.96H0z" fill-rule="evenodd"/></mask><mask id="f" fill="#fff"><path d="M0 .036h1v.928H0z" fill-rule="evenodd"/></mask><mask id="g" fill="#fff"><path d="M0 .18h1v.64H0z" fill-rule="evenodd"/></mask><mask id="h" fill="#fff"><path d="M0 .057h1v.886H0z" fill-rule="evenodd"/></mask><mask id="i" fill="#fff"><path d="M0 .076h1v.848H0z" fill-rule="evenodd"/></mask><mask id="j" fill="#fff"><path d="M0 0h1v1.023H0z" fill-rule="evenodd"/></mask><mask id="k" fill="#fff"><path d="M0 .095h1v.81H0z" fill-rule="evenodd"/></mask><mask id="l" fill="#fff"><path d="M0 .122h1v.756H0z" fill-rule="evenodd"/></mask><mask id="m" fill="#fff"><path d="M0 .16h1.023v.68H0z" fill-rule="evenodd"/></mask><mask id="n" fill="#fff"><path d="M0 .145h1v.71H0z" fill-rule="evenodd"/></mask><mask id="o" fill="#fff"><path d="M0 .16h1v.68H0z" fill-rule="evenodd"/></mask><mask id="p" fill="#fff"><path d="M0 .216h1v.568H0z" fill-rule="evenodd"/></mask><mask id="q" fill="#fff"><path d="M0 .185h1v.63H0z" fill-rule="evenodd"/></mask><mask id="r" fill="#fff"><path d="M0 .201h1V.8H0z" fill-rule="evenodd"/></mask><mask id="s" fill="#fff"><path d="M0 .244h1v.512H0z" fill-rule="evenodd"/></mask><mask id="t" fill="#fff"><path d="M0 0h1.223v1H0z" fill-rule="evenodd"/></mask><mask id="u" fill="#fff"><path d="M0 .021h1.063v.958H0z" fill-rule="evenodd"/></mask><mask id="v" fill="#fff"><path d="M0 .074h1.045v.852H0z" fill-rule="evenodd"/></mask><mask id="w" fill="#fff"><path d="M0 .101h1.044V.9H0z" fill-rule="evenodd"/></mask><mask id="x" fill="#fff"><path d="M0 .128h1.038v.744H0z" fill-rule="evenodd"/></mask><mask id="y" fill="#fff"><path d="M0 .053h1.032v.894H0z" fill-rule="evenodd"/></mask><mask id="z" fill="#fff"><path d="M0 .12h1v.76H0z" fill-rule="evenodd"/></mask><mask id="A" fill="#fff"><path d="M0 0h22.825v2.058H0z" fill-rule="evenodd"/></mask><g fill="none" fill-rule="evenodd"><path d="M18 0c2.837 0 5.52.656 7.907 1.825C31.884 4.753 36 10.895 36 18c0 9.942-8.058 18-18 18-9.94 0-18-8.057-18-18C0 8.06 8.06 0 18 0z" fill="#f2f4f7" fill-rule="nonzero"/><path d="M29.515 19.93h-.175c-.027-.035-.003-.062.017-.088.211-.26.367-.544.425-.877a.058.058 0 0 1 .025-.035.165.165 0 0 1 .14-.001c.035.025.032.063.025.099a1.942 1.942 0 0 1-.405.863c-.014.017-.034.026-.052.039" fill="#f6ad0a"/><path d="M28.989 19.93h-.176c-.032-.056.013-.082.046-.105.289-.205.465-.485.564-.82.009-.031.022-.061.054-.077a.113.113 0 0 1 .1.003c.026.022.026.052.019.08-.097.376-.284.692-.607.919" fill="#f9b509"/><path d="m28.85 16.306.03-.062h.131c.024.025.026.058.028.091.016.317.137.591.348.826.03.032.06.064.063.111-.004.043-.013.083-.062.097-.154-.088-.244-.233-.33-.38-.126-.21-.174-.444-.208-.683" fill="#fab70a"/><path d="M29.8 18.945c-.01.25-.12.467-.248.674-.065.107-.141.208-.212.31h-.176c-.007-.071.052-.108.09-.152a1.81 1.81 0 0 0 .392-.745c.009-.038.016-.08.054-.104.037-.013.072-.015.1.017" fill="#f7b00a"/><path d="M29.472 18.945a1.644 1.644 0 0 1-.43.766c-.051.05-.112.09-.17.134-.03.023-.058.043-.06.085h-.065c-.015-.028-.048-.047-.045-.085-.013-.045.026-.056.05-.073a1.4 1.4 0 0 0 .56-.784c.007-.024.015-.048.04-.061.043-.014.085-.02.12.018" fill="#fab709"/><path d="M29.69 18.945a1.703 1.703 0 0 1-.396.824c-.045.052-.087.108-.13.16h-.175c.092-.125.223-.214.314-.343.139-.195.23-.408.278-.641.037-.034.073-.034.11 0" fill="#f8b20a"/><path d="M30.613 19.93h-.154c-.024-.031-.011-.062.004-.092.133-.268.216-.552.255-.848a.096.096 0 0 1 .028-.058.128.128 0 0 1 .127-.001c.03.028.03.065.025.1a3.199 3.199 0 0 1-.258.865c-.006.013-.018.023-.027.034" fill="#ee980d"/><path d="M29.932 19.93h-.13c-.034-.04-.013-.076.008-.11.16-.248.264-.517.32-.806a.126.126 0 0 1 .046-.084.109.109 0 0 1 .105.002.073.073 0 0 1 .023.069c-.053.338-.16.654-.372.929" fill="#f3a50b"/><path d="M30.196 19.93h-.132c-.025-.032-.01-.062.007-.091.153-.264.246-.55.296-.85a.1.1 0 0 1 .028-.057.13.13 0 0 1 .125-.001c.036.032.023.073.017.112-.044.28-.14.543-.264.798a.185.185 0 0 1-.077.089" fill="#f1a00c"/><path d="M.73.025C.71.34.597.628.45.904.433.94.406.969.402 1.01H.27C.328.85.434.713.492.55.55.379.6.206.62.025c.037-.033.073-.033.11 0" fill="#f2a20b" mask="url(#a)" transform="translate(29.663 18.92)"/><path d="M.713.026C.705.314.61.58.502.843.478.9.437.948.428 1.012H.296c-.02-.046 0-.087.02-.124a2.71 2.71 0 0 0 .25-.765C.572.083.573.042.608.013c.037-.018.073-.02.105.013" fill="#ef9b0c" mask="url(#b)" transform="translate(30.031 18.918)"/><path d="M.72.025C.695.293.62.548.51.793l-.098.218H.28A3.02 3.02 0 0 0 .61.025c.037-.033.073-.033.11 0" fill="#f09d0c" mask="url(#c)" transform="translate(29.915 18.92)"/><path d="M29.515 19.93c.086-.147.203-.276.272-.435.08-.176.146-.356.167-.551.03-.032.066-.03.103-.014.031.023.028.057.022.089a2.003 2.003 0 0 1-.41.91z" fill="#f5aa0b"/><path d="M29.669 19.93c.023-.106.1-.182.15-.273.124-.225.206-.46.245-.713.037-.033.073-.033.11 0a2.39 2.39 0 0 1-.36.924c-.012.016-.01.04-.013.062z" fill="#f4a80b"/><path d="M29.43 17.282c-.013-.091-.098-.13-.146-.197a1.322 1.322 0 0 1-.273-.841h.088a.09.09 0 0 1 .025.059c.026.318.144.597.364.831.007.008.01.018.016.028.009.06-.007.106-.073.12" fill="#faba0c"/><path d="M.643.488C.58.67.46.818.378.986H.334C.297.94.32.894.338.851.432.621.498.384.525.135.53.083.533.013.622.053A.146.146 0 0 1 .65.12c.017.05.019.103.035.155C.693.35.665.42.643.488" fill="#e17c11" mask="url(#d)" transform="translate(30.63 18.944)"/><path d="M30.613 19.93c.012-.13.09-.237.125-.36.06-.205.119-.411.138-.626.027-.027.056-.026.088-.01.036.039.03.088.024.135a3.436 3.436 0 0 1-.213.755.257.257 0 0 1-.075.106z" fill="#ed950d"/><path d="M.673.942C.463.762.353.525.297.257A.826.826 0 0 1 .275.02h.087C.4.061.392.115.4.164.44.406.527.626.695.81a.11.11 0 0 1 .031.057c0 .036-.007.07-.053.076" fill="#fabc0f" mask="url(#e)" transform="translate(28.824 16.225)"/><path d="M.644.89a1.24 1.24 0 0 1-.35-.853H.38c.032.034.04.078.046.12.028.204.097.389.228.55a.218.218 0 0 1 .051.096c.001.043 0 .086-.06.087" fill="#fbbf12" mask="url(#f)" transform="translate(28.893 16.208)"/><path d="M.647.18h.307C.957.243.909.244.866.252a3.273 3.273 0 0 0-.68.184C.145.453.098.476.052.441.036.41.056.387.075.365.102.337.133.315.162.29A.484.484 0 0 1 .478.191C.534.185.592.205.647.181" fill="#d77301" mask="url(#g)" transform="translate(29.9 16.064)"/><path d="M.626.83a1.334 1.334 0 0 1-.31-.773h.11C.46.307.565.532.683.75.675.785.67.822.626.83" fill="#fbc214" mask="url(#h)" transform="translate(28.957 16.187)"/><path d="M.588.772C.504.617.392.476.36.292.349.22.35.149.347.077h.088c.007.01.02.023.02.037C.474.3.54.469.639.626a.115.115 0 0 1 .016.063C.646.727.65.777.588.772" fill="#fbc417" mask="url(#i)" transform="translate(29.038 16.168)"/><path d="M30.7 19.93a3.78 3.78 0 0 0 .251-.825c.01-.054.01-.108.012-.161a.06.06 0 0 1 .06-.031c.01.005.02.013.024.024a.24.24 0 0 1 .003.13 3.663 3.663 0 0 1-.213.768.258.258 0 0 1-.07.095z" fill="#ea8f0e"/><path d="M30.898 19.93h-.066c-.03-.094.032-.168.06-.246a3.16 3.16 0 0 0 .16-.67.208.208 0 0 1 .03-.092.127.127 0 0 1 .117-.043.09.09 0 0 1 .032.017.038.038 0 0 1-.005.034c-.045.03-.061.074-.067.129a2.931 2.931 0 0 1-.213.8.194.194 0 0 1-.048.07" fill="#e6850f"/><path d="M30.898 19.93c.076-.23.17-.456.207-.698.01-.075.027-.15.033-.225.004-.06.025-.09.086-.086.033.023.05.049.023.088-.035-.02-.06-.008-.061.03-.013.302-.12.579-.221.859-.003.01-.001.02-.001.032z" fill="#e38110"/><path d="M.665.015C.628.365.526.697.401 1.023H.335C.461.743.539.449.594.147.602.105.598.06.599.017.62-.005.642-.005.665.015" fill="#e88a0e" mask="url(#j)" transform="translate(30.43 18.907)"/><path d="M.56.716C.55.636.491.58.457.513A.857.857 0 0 1 .36.095h.087a.1.1 0 0 1 .028.069c.011.16.086.296.165.43.001.06-.012.109-.08.122" fill="#fbc61a" mask="url(#k)" transform="translate(29.112 16.15)"/><path d="M.553.635a.767.767 0 0 1-.18-.513h.088c.045.053.047.12.065.183.024.08.063.154.101.228C.625.583.61.625.553.635" fill="#fbc91c" mask="url(#l)" transform="translate(29.186 16.122)"/><path d="M.076.401c.12.03.207-.06.313-.084C.56.28.722.222.895.204.93.2.96.194.976.16h.022l.025.065C.985.282.923.272.866.282a3.487 3.487 0 0 0-.769.221C.074.513.052.526.025.52-.025.482.011.45.031.416.044.404.057.394.076.401" fill="#da7803" mask="url(#m)" transform="translate(29.878 16.084)"/><path d="M.541.566C.433.446.407.296.386.145h.11c.045.112.062.234.117.342C.608.53.593.565.541.566" fill="#fccb1f" mask="url(#n)" transform="translate(29.26 16.1)"/><path d="M.524.507A.5.5 0 0 1 .414.16h.088C.56.238.564.334.586.423.581.453.536.47.553.51L.544.519a.021.021 0 0 1-.02-.012" fill="#fcce22" mask="url(#o)" transform="translate(29.343 16.084)"/><path d="M.67.236C.553.238.461.3.365.351.307.315.31.268.343.216h.33c.007.006.01.011.005.015C.675.234.672.236.67.236" fill="#fbd52b" mask="url(#p)" transform="translate(29.699 16.028)"/><path d="M.51.446C.442.371.441.276.424.184h.087A.49.49 0 0 1 .575.38l-.04.046-.025.02" fill="#fcd025" mask="url(#q)" transform="translate(29.42 16.06)"/><path d="M.496.397A.26.26 0 0 1 .434.2h.11C.543.248.54.294.568.336a3.89 3.89 0 0 0-.072.06" fill="#fcd327" mask="url(#r)" transform="translate(29.498 16.043)"/><path d="m.41.264.004-.02h.175C.533.287.47.258.41.264" fill="#e18c0d" mask="url(#s)" transform="translate(29.958 16)"/><path d="M31.712 17.713a.759.759 0 0 1 .11.191c.02.09-.043.066-.085.057-.08-.018-.154-.044-.233-.06a1.453 1.453 0 0 0-.684.04c-.034.01-.068.024-.106.024-.071-.039-.12-.09-.1-.179.097-.085.22-.096.338-.11.254-.03.51-.037.76.037" fill="#f7b00a"/><path d="M30.706 17.955c.22-.098.451-.127.69-.1.122.013.242.037.357.081.037.014.065.018.07-.032.063.082.106.177.154.27-.042.032-.084.01-.123-.006a1.473 1.473 0 0 0-1.053-.067c-.073-.022-.114-.065-.095-.146" fill="#f9b409"/><path d="M31.712 17.713c-.026.014-.051.013-.082.008-.303-.045-.604-.054-.902.034a.594.594 0 0 0-.11.046c-.063-.03-.101-.073-.071-.149.054-.057.127-.067.197-.086.238-.066.48-.07.724-.052a.318.318 0 0 1 .156.046c.044.042.057.103.088.153" fill="#f6ad0a"/><path d="M.007.433C.287.317.573.32.86.405c.115.034.228.075.34.113.009.007.016.015.024.023a.232.232 0 0 1-.07.11C1.109.67 1.07.64 1.033.624a1.38 1.38 0 0 0-.864-.09C.132.54.097.549.06.539.014.518-.013.487.007.433" fill="#fab70a" mask="url(#t)" transform="translate(30.777 17.656)"/><path d="M31.446 17.254c.05.042.055.107.086.158-.028.069-.09.047-.139.048-.214.002-.428-.007-.639.05-.087.024-.169.068-.262.069-.066-.022-.093-.067-.08-.136.026-.04.07-.05.111-.064.215-.073.433-.123.662-.113.087.004.175 0 .261-.012" fill="#f4a70b"/><path d="M31.446 17.254c-.018.072-.077.044-.117.042a2.063 2.063 0 0 0-.912.155c-.078-.022-.094-.072-.066-.142.33-.15.674-.2 1.032-.166a.268.268 0 0 1 .063.11" fill="#f3a40b"/><path d="M30.481 17.56a2.26 2.26 0 0 1 .947-.132c.035.002.073.011.104-.016.051.037.06.1.092.148a2.59 2.59 0 0 0-.513-.02 1.455 1.455 0 0 0-.568.131c-.057-.017-.086-.049-.062-.11" fill="#f5aa0b"/><path d="M31.256 16.922c.02.037.042.074.063.11-.013.037-.044.048-.078.05a3.54 3.54 0 0 0-.93.182c-.065-.02-.09-.064-.07-.13.113-.082.247-.11.377-.141.209-.05.42-.101.638-.071" fill="#f19f0c"/><path d="M31.079 16.615c.028.032.055.066.059.112-.03.037-.073.046-.117.049a2.508 2.508 0 0 0-.8.19c-.027.011-.054.021-.084.014-.044-.022-.066-.055-.055-.106a.153.153 0 0 1 .085-.065c.274-.105.553-.189.848-.204a.119.119 0 0 1 .064.01" fill="#ee980d"/><path d="M31.256 16.922c-.16.039-.323.034-.484.065-.183.037-.355.102-.532.157-.06-.007-.062-.047-.052-.094.033-.05.089-.06.139-.081.274-.11.566-.131.855-.17.044.029.042.086.074.123" fill="#f09d0c"/><path d="M31.182 16.8c-.048.054-.116.054-.179.057a2.314 2.314 0 0 0-.814.201c-.05-.01-.075-.037-.053-.09.318-.146.656-.21 1.001-.24l.045.071" fill="#ef9b0d"/><path d="M30.304 17.257c.216-.107.446-.163.685-.179a1.6 1.6 0 0 0 .33-.046.273.273 0 0 1 .064.11.178.178 0 0 1-.094.024 2.149 2.149 0 0 0-.883.145c-.02.008-.043.008-.064.011-.038-.007-.058-.024-.038-.065" fill="#f2a20c"/><path d="M1.063.392C.873.431.677.443.49.503.348.548.204.584.072.657.002.644-.012.6.01.538.287.424.576.351.872.306a.483.483 0 0 1 .142.001c.024.023.04.052.05.085" fill="#ed960d" mask="url(#u)" transform="translate(30.015 16.223)"/><path d="m1.018.292.027.042C.955.376.855.366.76.387.543.437.324.485.118.575a.19.19 0 0 1-.085.014C.008.577-.007.558.003.529.118.434.263.404.4.36.545.314.697.292.849.268a.238.238 0 0 1 .169.024" fill="#e78c0a" mask="url(#v)" transform="translate(29.972 16.17)"/><path d="M1.044.32C.688.322.357.43.031.561-.006.566 0 .542.001.52A.083.083 0 0 1 .024.493C.33.336.66.27.996.234l.048.085" fill="#e38608" mask="url(#w)" transform="translate(29.945 16.143)"/><path d="M.01.477C.303.344.606.257.92.215.954.211.986.2 1.017.193a.743.743 0 0 1 .022.038C1.032.301.974.275.94.28a3.127 3.127 0 0 0-.77.203C.136.497.097.51.072.543L.064.55C.022.544-.007.527.002.478z" fill="#dd7d05" mask="url(#x)" transform="translate(29.885 16.116)"/><path d="M.008.557C.266.455.532.383.803.328.876.314.948.324 1.019.313a.315.315 0 0 1 .013.026A9.314 9.314 0 0 1 .59.424C.438.451.294.504.15.557A.37.37 0 0 1 .025.58C.015.581.005.583 0 .572-.001.568.003.562.008.557" fill="#eb910c" mask="url(#y)" transform="translate(29.997 16.191)"/><path d="M.007.535C.007.49.04.48.076.466.35.366.623.262.92.251.943.251.962.244.975.223l.018.03C.933.304.855.305.786.313A2.467 2.467 0 0 0 .039.53C.029.535.018.534.007.535" fill="#e18207" mask="url(#z)" transform="translate(29.949 16.123)"/><path d="m28.368 17.141.123-.216c.047-.003.062.034.074.067.12.304.319.551.564.763a.122.122 0 0 1 .02.025c-.02.078-.031.16-.113.202-.292-.225-.498-.519-.668-.84" fill="#f5a90b"/><path d="m28.02 17.735.107-.177c.051-.016.077.022.097.053.162.26.377.471.606.67a.085.085 0 0 1 .017.028c.004.074-.032.125-.093.162-.13-.027-.207-.13-.296-.21a3.343 3.343 0 0 1-.437-.526" fill="#ef9b0c"/><path d="M28.839 18.307a2.394 2.394 0 0 1-.571-.587c-.041-.059-.071-.128-.14-.162l.087-.153c.047-.027.068.01.086.04.153.256.35.472.575.668.025.022.046.047.046.083-.01.051-.021.1-.083.111" fill="#f1a00c"/><path d="M29.144 17.78c-.167-.096-.284-.242-.394-.394a1.43 1.43 0 0 1-.205-.381c-.01-.03-.023-.062-.054-.079a7.8 7.8 0 0 1 .089-.155c.063-.023.077.027.088.066.092.293.269.529.479.745.03.031.06.064.06.112-.005.04-.008.083-.063.086" fill="#f6ad0a"/><path d="M28.368 17.141c.097.033.1.135.146.204.132.204.27.401.467.55.026.018.052.041.05.08.02.057-.008.092-.056.12-.141-.053-.224-.175-.321-.277a1.72 1.72 0 0 1-.363-.542.442.442 0 0 1 .077-.135" fill="#f3a50b"/><path d="M28.85 16.306c.073.047.044.125.057.19.065.34.225.625.476.86 0 .05-.012.092-.067.106-.123-.048-.192-.154-.262-.254a1.692 1.692 0 0 1-.288-.667.157.157 0 0 1 0-.086.489.489 0 0 1 .084-.149" fill="#f9b509"/><path d="M28.02 17.735c.061 0 .073.055.1.09.18.242.373.471.63.636.023.062-.01.096-.06.123-.045.011-.077-.014-.107-.04-.235-.203-.46-.417-.633-.68.024-.043.048-.086.07-.129" fill="#ee980d"/><path d="M29.19 17.699c-.042-.123-.16-.185-.232-.284-.124-.171-.246-.341-.307-.547-.012-.039-.012-.092-.072-.097l.08-.132c.084-.023.085.051.1.095.053.164.115.322.217.464.065.088.133.173.212.25.04.037.083.073.085.135-.007.054-.018.105-.084.116" fill="#f7af0a"/><path d="M29.254 17.587c0-.046-.034-.07-.063-.098a1.617 1.617 0 0 1-.457-.743c-.012-.042-.011-.098-.075-.107a.692.692 0 0 1 .107-.184c.059.206.11.414.22.601.092.151.194.291.337.396.024.07.006.116-.07.135" fill="#f8b20a"/><path d="M28.29 17.276c.078.113.156.225.23.34.123.182.29.322.447.471.01.055-.002.098-.065.112-.003-.072-.074-.085-.113-.123a2.78 2.78 0 0 1-.515-.629c-.014-.025-.03-.04-.058-.042a.268.268 0 0 1 .075-.129" fill="#f2a20c"/><path d="M27.95 17.865c.083.04.118.125.175.189.159.18.324.352.512.5.013.01.033.012.05.018.006.038-.01.063-.045.078-.045.01-.074-.02-.106-.042a2.589 2.589 0 0 1-.486-.478c-.046-.06-.096-.12-.135-.183l-.004-.016c-.001-.03.017-.05.039-.066" fill="#ed950d"/><path d="m27.808 18.11.024-.044c.041-.027.062.006.08.03.186.243.402.453.643.64a.087.087 0 0 1 .033.055c0 .023-.007.042-.03.052-.104-.01-.167-.09-.233-.15a3.998 3.998 0 0 1-.47-.486.2.2 0 0 1-.047-.097" fill="#e5850f"/><path d="M28.573 18.792c-.087-.076-.171-.156-.261-.23-.17-.134-.3-.303-.433-.471-.01-.013-.031-.017-.046-.026.016-.032.026-.068.056-.093.109.13.206.27.327.393.098.098.206.184.31.275.036.03.077.056.084.109-.002.022-.006.044-.037.043" fill="#e88a0f"/><path d="M27.808 18.11c.188.23.391.449.623.637.04.032.083.059.124.088.013.022.005.042-.008.06a.07.07 0 0 1-.028.016c-.024.003-.04-.008-.057-.023-.189-.144-.33-.338-.515-.486-.033-.025-.048-.064-.075-.093-.025-.027-.04-.073-.092-.064-.028-.017-.025-.043-.022-.07l.05-.065" fill="#e38010"/><path d="M28.594 18.746c-.146-.136-.3-.264-.437-.409-.102-.11-.222-.212-.268-.365 0-.018.001-.035.021-.04l.005.003c.087.134.194.25.291.375.09.116.22.188.326.285.038.033.088.053.1.11-.003.022-.006.045-.038.041" fill="#ea8e0f"/><path d="M31.842 18.46c0 .037-.02.063-.044.087-.026.043-.063.032-.096.017-.22-.108-.456-.106-.693-.086-.062-.024-.094-.065-.07-.134.078-.063.174-.069.268-.067.227.004.45.033.635.183" fill="#fbbf12"/><path d="M31.842 18.46c-.14-.044-.273-.112-.423-.137a1.108 1.108 0 0 0-.483.03c-.05-.02-.08-.049-.052-.107.232-.106.47-.09.705-.02.11.033.23.054.313.146-.008.038-.039.06-.06.088" fill="#fabc0e"/><path d="M31.002 18.462c.235-.05.465-.034.687.063.035.016.066.048.109.022-.012.051-.045.09-.072.132-.025.022-.055.021-.081.008-.178-.09-.368-.094-.56-.084-.062-.027-.1-.068-.083-.14" fill="#fbc315"/><path d="M31.902 18.372c-.17-.058-.333-.132-.517-.16-.176-.025-.337.012-.502.05-.046-.012-.064-.04-.05-.088.13-.011.256-.044.389-.047a1.42 1.42 0 0 1 .709.18c.005.028-.014.046-.03.065" fill="#faba0c"/><path d="M31.076 18.592a.819.819 0 0 1 .528.046c.04.016.075.046.122.04l-.064.11c-.007.002-.015.006-.021.003a1.563 1.563 0 0 0-.515-.094c-.04-.024-.068-.054-.05-.105" fill="#fbc619"/><path d="M31.122 18.68c.19-.008.375-.002.54.108l-.06.09c-.043.018-.077-.01-.113-.023-.099-.038-.203-.04-.306-.048-.05-.028-.083-.065-.06-.127" fill="#fbc81c"/><path d="M31.175 18.792a.643.643 0 0 1 .426.085c0 .044-.03.074-.052.108a1.076 1.076 0 0 1-.325-.085c-.007 0-.013 0-.02-.002-.03-.03-.053-.062-.029-.106" fill="#fccc20"/><path d="M31.224 18.9a.659.659 0 0 1 .325.084l-.06.09c-.079.031-.157-.034-.236 0l-.006-.066-.023-.087a.074.074 0 0 0 0-.02" fill="#fccf23"/><path d="M31.253 19.073c.079-.095.158-.002.236.001l-.07.131c-.041.032-.084-.012-.126.002-.034-.039-.013-.093-.04-.134" fill="#fcd227"/><path d="M31.293 19.207c.04-.098.085.021.128-.002-.047.077-.086.16-.148.227-.013-.077.022-.149.02-.225" fill="#fcd52c"/><path d="M29.34 18.945c-.025.212-.132.385-.256.553-.105.14-.25.237-.382.347a.136.136 0 0 1-.042-.071c-.03-.07.034-.088.07-.115.139-.105.255-.23.349-.375a.966.966 0 0 0 .104-.23c.016-.047.024-.1.077-.127.03-.008.058-.008.08.018" fill="#faba0c"/><path d="M29.34 18.945h-.088a.186.186 0 0 1-.105.028h-.108l-.087-.001-.066-.001h-.048c-.06-.008-.092.026-.121.074a.9.9 0 0 1-.298.312.308.308 0 0 1-.07-.123c-.003-.007-.006-.017-.002-.02.104-.104.19-.226.306-.32.043-.01.087-.008.13-.008h2.048c.06 0 .126-.014.175.04l-.042.018H29.47z" fill="#fbca1d"/><path d="M27.78 18.244c.015-.01-.01-.09.034-.037.128.156.29.277.415.433.074.094.194.134.254.238-.012.014-.027.018-.044.02-.05-.002-.094-.024-.14-.037a.706.706 0 0 1-.274-.184l-.245-.433" fill="#e17b11"/><path d="M29.143 18.944h.109a1.375 1.375 0 0 1-.405.66c-.062.054-.156.08-.186.17a.15.15 0 0 1-.046-.08c-.025-.05.008-.077.04-.1a1.16 1.16 0 0 0 .444-.589.139.139 0 0 1 .044-.06" fill="#fabd0f"/><path d="M29.143 18.944a1.14 1.14 0 0 1-.466.667c-.03.023-.062.04-.062.082a.276.276 0 0 1-.066-.113c-.013-.039.02-.05.042-.066.175-.137.328-.29.398-.508a.144.144 0 0 1 .044-.062z" fill="#fbbf12"/><path d="M29.033 18.944c-.063.287-.262.47-.484.636l-.052-.086c.2-.142.338-.335.448-.55z" fill="#fbc215"/><path d="M28.419 19.357c-.001-.047.04-.056.067-.078a.855.855 0 0 0 .22-.27c.03-.061.07-.074.129-.065.024.026.02.055.007.082-.086.172-.2.319-.381.4l-.042-.07" fill="#fbc71a"/><path d="M28.945 18.944c-.075.244-.213.436-.448.55-.004-.008-.01-.016-.013-.025-.011-.03.006-.05.027-.065a1.09 1.09 0 0 0 .368-.46z" fill="#fbc417"/><path d="M28.616 18.92c-.04.146-.174.212-.267.313-.023-.018-.045-.036-.041-.07.05-.106.145-.177.218-.264l.003-.002c.033-.01.063-.005.087.023" fill="#fccc21"/><path d="M28.025 18.677c.1.043.176.129.283.16.013.088-.033.123-.114.13-.062-.094-.127-.185-.169-.29" fill="#fcd42a"/><path d="M28.526 18.899c-.042.114-.134.186-.218.265a.161.161 0 0 1-.047-.083c.024-.098.11-.141.178-.201l.045-.001.042.02" fill="#fcce23"/><path d="M28.439 18.88c-.038.086-.12.133-.178.2a.285.285 0 0 1-.066-.113c.048-.034.099-.066.113-.13l.131.043" fill="#fcd126"/><path d="M28.879 18.944a.809.809 0 0 1-.304.434c-.034.027-.07.052-.091.091l-.023-.042c.109-.103.234-.19.312-.324.028-.05.064-.097.062-.159z" fill="#fbc418"/><path d="M28.641 18.637c-.003.024 0 .05-.025.065-.076-.094-.175-.163-.27-.232a.726.726 0 0 1-.178-.177c-.083-.12-.2-.216-.253-.357.115.091.184.222.282.327.133.144.271.28.444.374" fill="#eb910e"/><path d="M15.657 1.202h.32c.193 0 .319.061.319.217 0 .153-.1.231-.32.231h-.32zM17.84.435s.036.135.085.28l.174.527h-.52l.175-.524c.048-.149.086-.283.086-.283zm-2.184-.03h.25c.138 0 .277.044.277.208 0 .16-.12.224-.256.224h-.271zm-3.595 0h.178c.23 0 .365.07.365.264 0 .186-.123.266-.365.266h-.178zm-9.171 0c.343 0 .563.272.563.626 0 .335-.213.622-.563.622-.342 0-.563-.271-.563-.625 0-.336.213-.623.563-.623zM21.225.033v1.989h.432V1.09l.635.932h.533L22.094.955l.663-.922h-.501l-.6.893V.033zm-2.124 0v1.989h.402v-.945c0-.179-.013-.362-.013-.362s.093.159.198.316l.675.991h.385V.033h-.405v.902c0 .179.013.359.013.359s-.093-.159-.198-.316l-.645-.945zm-1.514 0-.708 1.989h.434l.139-.405h.774l.138.405h.467L18.123.033zm-2.361 0v1.989h.76c.355 0 .748-.16.748-.573 0-.257-.164-.431-.425-.464V.982c.205-.064.333-.218.333-.438 0-.432-.381-.511-.728-.511zm-1.815 0v.379h.804l-.823 1.281v.329h1.386V1.64h-.843l.824-1.281V.033zm-1.784 0v1.989h.435v-.724h.135l.424.724h.517l-.49-.8c.257-.097.402-.296.402-.553 0-.403-.227-.636-.827-.636zm-1.804 0v1.989h1.293V1.64h-.86v-.435h.729V.833h-.728V.412h.846V.033zm-2.648 0-.191 1.989h.412L7.485.949c.018-.209.023-.425.023-.425h.006s.049.218.109.415l.336 1.083h.392L8.683.929c.06-.19.106-.405.106-.405h.006s.005.215.023.431l.089 1.067h.44L9.155.033h-.576l-.303.985c-.05.16-.1.365-.1.365s-.052-.204-.104-.368L7.764.033zm-2.772 0-.195 1.989h.412L4.712.949c.019-.209.02-.425.02-.425h.01s.046.218.105.415l.336 1.083h.392L5.91.929c.059-.19.105-.405.105-.405h.007s.004.215.023.431l.089 1.067h.438L6.378.033h-.576l-.303.985c-.048.16-.1.365-.1.365s-.052-.204-.104-.368L4.989.033zM2.898 0C2.305 0 1.86.464 1.86 1.037c0 .582.42 1.021 1.024 1.021.592 0 1.037-.463 1.037-1.037C3.922.44 3.5 0 2.898 0zM1.005 0C.445 0 0 .46 0 1.037c0 .604.438 1.021.978 1.021a.923.923 0 0 0 .73-.319l-.27-.277a.567.567 0 0 1-.433.185c-.317 0-.531-.265-.531-.619 0-.343.219-.616.524-.616.16 0 .297.06.408.168l.28-.29A.915.915 0 0 0 1.005 0z" fill="#000" mask="url(#A)" transform="translate(4 17.248)"/></g></svg>