<svg width="36" height="36" fill="none" xmlns="http://www.w3.org/2000/svg"><path d="M18 0c2.837 0 5.52.656 7.907 1.825C31.884 4.753 36 10.895 36 18c0 9.942-8.058 18-18 18-9.94 0-18-8.057-18-18C0 8.06 8.06 0 18 0z" fill="#F2F4F7"/><path d="M6.31 20.428c-.737 0-1.164-.521-1.164-1.26 0-.736.444-1.275 1.17-1.275.36 0 .653.135.857.358l.572-.975a2.36 2.36 0 0 0-1.423-.45C5 16.825 4 17.761 4 19.151c0 1.34.91 2.338 2.316 2.338.56 0 1.06-.172 1.45-.475l-.565-.977c-.204.246-.507.39-.89.39zm19.248-2.423h-1.123v3.348h-1.192v-3.348h-1.11v-1.042h3.425v1.042zM14.313 19.51v.969h.692c.292 0 .567-.103.567-.499 0-.36-.298-.47-.59-.47h-.67zm0-1.702v.843h.497c.252 0 .487-.098.487-.442 0-.321-.258-.401-.51-.401h-.474zM13.19 21.35v-4.39h1.976c.785 0 1.243.44 1.243 1.083 0 .43-.206.746-.584.934.395.086.894.356.894 1.06 0 .94-.71 1.32-1.479 1.32-.734 0-2.05-.007-2.05-.007zm-2.844-3.04-.47 1.34h.934l-.464-1.34zm-1.049 3.037h-1.22l1.627-4.384 1.312-.006 1.629 4.39h-1.239l-.297-.814H9.59l-.292.814zm10.225-3.468c-.734 0-1.182.545-1.182 1.29s.432 1.273 1.176 1.273c.746 0 1.194-.54 1.194-1.307 0-.705-.46-1.256-1.188-1.256zm-2.34 1.273c0-1.404 1.01-2.35 2.346-2.35 1.375 0 2.34 1.015 2.34 2.31 0 1.421-.998 2.401-2.346 2.401-1.421 0-2.34-1.008-2.34-2.361z" fill="#231F20"/><path d="M28.578 16.963 26.863 14l2.57 1.482-.855 1.481z" fill="#F79210"/><path d="M32 16.963h-3.422l.855-1.48L32 16.962z" fill="#E52F1F"/><path d="m32 16.963-2.567-1.48.855-1.483L32 16.963z" fill="#CF181F"/><path d="M29.433 15.482 26.863 14h3.425l-.855 1.482z" fill="#E85726"/><path d="m26.863 19.927 1.715-2.964.854 1.482-2.569 1.482z" fill="#F9A70D"/><path d="m29.432 18.444-.854-1.48H32l-2.568 1.48z" fill="#E85726"/><path d="m32 16.963-1.712 2.964-.855-1.482L32 16.963z" fill="#CF181F"/><path d="M30.288 19.927h-3.425l2.57-1.482.855 1.482z" fill="#E52F1F"/></svg>