<svg width="36" height="36" fill="none" xmlns="http://www.w3.org/2000/svg"><path d="M18 0c2.837 0 5.52.656 7.907 1.825C31.884 4.753 36 10.895 36 18c0 9.942-8.058 18-18 18-9.94 0-18-8.057-18-18C0 8.06 8.06 0 18 0z" fill="#F2F4F7"/><path d="M4 17.73v-.026a4.618 4.618 0 0 1 4.738-4.698 4.688 4.688 0 0 1 3.583 1.402l-1.272 1.466a3.353 3.353 0 0 0-2.324-1.025c-1.531 0-2.634 1.272-2.634 2.83v.026c0 1.557 1.077 2.855 2.634 2.855 1.039 0 1.675-.415 2.389-1.064l1.272 1.285a4.644 4.644 0 0 1-3.725 1.622A4.586 4.586 0 0 1 4 17.73zm9.818 0v-.026a4.618 4.618 0 0 1 4.737-4.698 4.688 4.688 0 0 1 3.583 1.402l-1.272 1.466a3.353 3.353 0 0 0-2.324-1.025c-1.531 0-2.635 1.272-2.635 2.83v.026c0 1.557 1.078 2.855 2.635 2.855 1.039 0 1.675-.415 2.389-1.064l1.272 1.285a4.644 4.644 0 0 1-3.726 1.622 4.586 4.586 0 0 1-4.66-4.673zm9.797 0v-.026a4.618 4.618 0 0 1 4.738-4.698 4.688 4.688 0 0 1 3.582 1.402l-1.272 1.466a3.353 3.353 0 0 0-2.323-1.025c-1.532 0-2.635 1.272-2.635 2.83v.026c0 1.557 1.077 2.855 2.635 2.855 1.038 0 1.674-.415 2.388-1.064L32 20.78a4.644 4.644 0 0 1-3.725 1.622 4.586 4.586 0 0 1-4.66-4.673z" fill="#222"/></svg>