<svg width="36" height="36" fill="none" xmlns="http://www.w3.org/2000/svg"><path d="M18 0c2.837 0 5.52.656 7.907 1.825C31.884 4.753 36 10.895 36 18c0 9.942-8.058 18-18 18-9.94 0-18-8.057-18-18C0 8.06 8.06 0 18 0z" fill="#F2F4F7"/><path d="M22.46 17.944a2.345 2.345 0 1 0 .001-4.691 2.345 2.345 0 0 0 0 4.69z" fill="#005696"/><path d="M18.963 15.598c-.004-1.634 1.263-3.301 3.497-3.227l-1.334-1.262c-2.57.828-3.687 2.678-3.616 4.49v-.02c-.071 1.812 1.046 3.663 3.616 4.49l1.334-1.263c-2.234.075-3.5-1.592-3.497-3.226v.018z" fill="#005696"/><path d="M15.052 15.58c0-.325-.235-3.461 3.947-6.58l1.28 1.208c-3.73 1.569-3.73 4.543-3.785 5.39v-.018c.055.847.055 3.822 3.785 5.39L19 22.178c-4.182-3.119-3.947-6.255-3.947-6.58v-.018zm-2.812.018 2.451-2.325c-.793 1.261-.757 3.317-.072 4.614l-2.38-2.289z" fill="#005696"/><path d="M9.744 23.881c-.209-.875-.81-1.542-1.834-1.542-.418 0-.901.166-1.251.508-.325.317-.692.85-.692 2.051 0 1.768.992 2.493 2.042 2.493 1.026 0 1.626-.592 1.885-.842l.15.15c-.009.017-.726 1.06-2.26 1.06C6.443 27.759 5 26.958 5 24.88c0-1.866 1.4-2.876 2.834-2.876.742 0 1.285.275 1.468.275.041 0 .316 0 .383-.275h.176l.074 1.876h-.191m2.809 1.527c-1.259.416-1.35.884-1.35 1.167v.017c0 .392.241.65.55.65.183 0 .442-.108.517-.15.259-.125.284-.225.284-.476v-1.208zm1.293 1.9c-.35.409-.609.418-.742.418-.15 0-.5-.009-.542-.609-.308.275-.75.609-1.209.609-.45 0-.884-.309-.884-.867 0-.834.726-1.117 2.084-1.651v-.509c0-.6-.391-.692-.641-.692-.276 0-.592.15-.592.409 0 .125.042.25.042.325a.377.377 0 0 1-.376.359c-.258 0-.358-.234-.358-.367 0-.334.392-.926 1.359-.926 1.242 0 1.242.834 1.242 1.334v1.626c0 .241 0 .483.241.483.176 0 .284-.083.375-.158v.217zm.782-2.484c0-.525-.159-.533-.292-.533-.117 0-.2.017-.266.033v-.142a14.51 14.51 0 0 0 1.167-.374l.058.016v.625c.492-.375.834-.641 1.284-.641.542 0 .8.35.892.7.175-.2.684-.7 1.343-.7.866 0 .983.866.983 1.484v1.717c0 .184-.008.434.358.492l.217.017v.126h-1.825v-.126c.416-.05.55-.066.55-.6v-1.76c0-.425-.009-.917-.609-.917-.458 0-.742.226-.925.509v2.1c0 .634.259.66.6.668v.125h-1.867v-.125c.375-.026.567-.05.567-.592v-1.81c0-.55-.142-.875-.575-.875-.576 0-.96.45-.96.492v2.351c0 .409.275.426.568.434v.126h-1.852v-.126c.334-.008.584-.025.584-.584v-2.11m8.992 1.51c-.083.258-.566 1.392-1.767 1.392-.925 0-1.559-.684-1.559-1.868 0-1.543 1.034-2.05 1.7-2.05.785 0 1.376.433 1.468 1.525h-2.593c.1 1.476.775 1.817 1.326 1.817.742 0 1.1-.567 1.293-.875l.133.059zm-1.008-1.267c-.059-.401-.141-.96-.8-.96-.46 0-.784.226-.918.96h1.718zm4.551 1.349c-.45.952-.992 1.31-1.667 1.31-.668 0-1.56-.543-1.56-1.86 0-1.367.967-2.059 1.868-2.059.3 0 .675.125.883.259.25.175.359.433.359.584 0 .19-.133.35-.383.366-.217.017-.36-.2-.41-.384l-.05-.183c-.066-.25-.108-.4-.55-.4-.308 0-1.075.259-1.075 1.484 0 .958.575 1.593 1.276 1.593.6 0 .909-.36 1.192-.784l.117.074zM31 25.74c0 .826-.584 1.985-1.852 1.985-1.075 0-1.825-.86-1.825-1.985 0-1.024.684-1.934 1.8-1.934 1.093 0 1.877.725 1.877 1.934zm-.75.242c0-1.034-.426-1.943-1.193-1.943-.525 0-.983.434-.983 1.301 0 .617.192 2.151 1.192 2.151.425 0 .984-.316.984-1.509z" fill="#231F20"/></svg>