<svg width="36" height="36" fill="none" xmlns="http://www.w3.org/2000/svg"><path d="M18 0c2.837 0 5.52.656 7.907 1.825C31.884 4.753 36 10.895 36 18c0 9.942-8.058 18-18 18-9.94 0-18-8.057-18-18C0 8.06 8.06 0 18 0z" fill="#F2F4F7"/><path d="M13.87 21.228v-.112h.093c.04 0 .097 0 .097.051s-.032.061-.077.061h-.114zm.16.06a.098.098 0 0 0 .11-.111c0-.079-.05-.124-.16-.124h-.199v.41h.087v-.174h.074l.091.175h.098l-.101-.175zm-.088.347a.379.379 0 1 0 0-.757.379.379 0 0 0 0 .757zm0-.09a.289.289 0 1 1 .279-.291.274.274 0 0 1-.154.261.274.274 0 0 1-.103.027h-.022m-.98-1.711c-.863-.465-2.287-.641-3.428-.641a9.184 9.184 0 0 0-2.406.288 3.728 3.728 0 0 0-1.008.364c-.27-1.096-.558-1.742-1.376-2.377a3.89 3.89 0 0 1 .97-.736c.32.684.765.81.962.832a.792.792 0 0 0 .776-.395 1.02 1.02 0 0 0 .14-.534 1.691 1.691 0 0 0-.212-.776 3.579 3.579 0 0 1 1.212-.274 2.476 2.476 0 0 0-.019.28c0 .515.172.923.494 1.144a.84.84 0 0 0 .962 0c.34-.23.523-.656.523-1.193a1.652 1.652 0 0 0-.015-.263c.407.035.806.134 1.182.293-.14.242-.218.514-.226.793-.003.191.047.38.146.545a.818.818 0 0 0 .829.385c.398-.057.733-.368.936-.844.36.2.685.458.963.763-.868.557-1.112 1.267-1.405 2.343v.003zm-.945 1.102a9.81 9.81 0 0 1-2.485.28 9.828 9.828 0 0 1-2.485-.28c-.642-.173-.828-.356-.861-.422.3-.236.649-.405 1.021-.495a10.314 10.314 0 0 1 2.325-.24 9.904 9.904 0 0 1 2.485.285c.714.192.866.399.866.439 0 .04-.16.247-.866.44v-.007zm2.922-3.608a4.544 4.544 0 0 0-1.581-1.203l-.28-.128-.082.289c-.142.514-.408.73-.61.758a.295.295 0 0 1-.304-.136c-.108-.175-.106-.536.23-1.025l.174-.239-.273-.134a4.466 4.466 0 0 0-1.983-.496L9.89 15l.072.33c.151.701-.02 1.103-.232 1.245a.31.31 0 0 1-.364 0c-.2-.138-.358-.53-.2-1.219l.078-.348-.45.032c-.642.045-1.136.08-1.909.467l-.277.134.175.249c.32.465.32.824.215 1.005a.267.267 0 0 1-.263.14c-.191-.021-.456-.234-.634-.768l-.1-.305-.278.16c-.704.392-1.212.732-1.573 1.25l-.15.216.216.16c.897.62 1.144 1.136 1.468 2.543a.538.538 0 0 0-.042.207c0 .86 2.012 1.253 3.882 1.253s3.88-.393 3.88-1.253a.526.526 0 0 0-.028-.173l.03-.112c.356-1.312.516-1.913 1.498-2.425l.31-.16-.275-.303z" fill="#86764E"/><path d="M9.556 18.029a.277.277 0 1 0 .274.28.276.276 0 0 0-.274-.275m-1.039.112a.277.277 0 1 0 0 .555.277.277 0 0 0 0-.555zm2.105-.009a.277.277 0 1 0 .192.081.278.278 0 0 0-.196-.081m-3.158.169a.277.277 0 1 0-.003.554.277.277 0 0 0 .003-.554zm-1.074.342a.275.275 0 1 0 .006.55.275.275 0 0 0-.006-.55zm5.294-.337a.277.277 0 1 0-.002.555.277.277 0 0 0 .003-.555zm1.075.335a.277.277 0 0 0-.193.472.275.275 0 1 0 .193-.471z" fill="#86764E"/><path d="M18.242 18.414a.628.628 0 0 0-.686-.528c-.31 0-.767.207-.767 1.083 0 .556.22 1.056.767 1.056a.663.663 0 0 0 .686-.582h.642c-.129.674-.571 1.144-1.347 1.144-.825 0-1.415-.557-1.415-1.626 0-1.07.626-1.636 1.424-1.636.927 0 1.302.642 1.338 1.095l-.642-.006zm1.073 2.084h.641v-1.212h.669c.48 0 .503.16.503.587a2.1 2.1 0 0 0 .068.625h.718v-.083c-.14-.051-.14-.16-.14-.617 0-.577-.137-.672-.39-.784a.74.74 0 0 0 .48-.74c0-.267-.15-.875-.973-.875h-1.576v3.1zm.641-1.735v-.829h.802c.377 0 .45.243.45.406 0 .306-.16.424-.496.424h-.756zm2.269.187c0 1.452 1.078 1.629 1.488 1.629.41 0 1.49-.177 1.49-1.63 0-1.452-1.08-1.63-1.49-1.63-.41 0-1.488.176-1.488 1.63zm.642 0c0-.87.492-1.084.841-1.084.35 0 .84.215.84 1.084 0 .869-.49 1.082-.84 1.082s-.841-.216-.841-1.082zm2.371-1.545h.691c.398 1.697.436 1.912.493 2.264.056-.32.102-.641.43-2.264h.687c.37 1.698.403 1.859.472 2.264.053-.291.104-.56.505-2.264h.659l-.871 3.098h-.622c-.32-1.52-.375-1.82-.481-2.416h-.01c-.094.596-.147.82-.48 2.416h-.605l-.868-3.098zm6.157-.005H32v3.098h-.648l-1.265-2.21h-.006v2.21h-.607V17.4h.685l1.227 2.157h.01V17.4z" fill="#00843D"/></svg>