<svg height="36" viewBox="0 0 36 36" width="36" xmlns="http://www.w3.org/2000/svg"><mask id="a" fill="#fff"><path d="M0 0h3.302v4.096H0z" fill-rule="evenodd"/></mask><mask id="b" fill="#fff"><path d="M0 4.096h28V0H0z" fill-rule="evenodd"/></mask><g fill="none" fill-rule="evenodd"><path d="M18 0c2.837 0 5.52.656 7.907 1.825C31.884 4.753 36 10.895 36 18c0 9.942-8.058 18-18 18-9.94 0-18-8.057-18-18C0 8.06 8.06 0 18 0z" fill="#f2f4f7" fill-rule="nonzero"/><g fill="#3067db"><path d="M.996 3.8a1.9 1.9 0 0 1-.738-.736A2.2 2.2 0 0 1 0 2.03c0-.35.092-.72.258-1.014C.424.702.683.463.996.278A2.197 2.197 0 0 1 2.066 0c.443-.018.867.13 1.236.369l-.406.627a1.344 1.344 0 0 0-.83-.295c-.24 0-.48.056-.683.185-.184.11-.35.295-.442.498a1.239 1.239 0 0 0-.148.683c0 .239.056.46.148.664.221.423.645.68 1.125.68.295 0 .59-.11.83-.294l.406.59a2.134 2.134 0 0 1-1.236.388A2.45 2.45 0 0 1 .996 3.8" mask="url(#a)" transform="translate(4 16)"/><path d="M9.09 16.739v1.015h1.42v.59H9.09v1.015h1.717v.627h-2.49v-3.874h2.47v.627zm3.616 1.107h.46c.24 0 .407-.055.536-.147a.454.454 0 0 0 .185-.406c0-.166-.056-.332-.185-.425-.13-.11-.313-.147-.553-.147h-.424zm.24.572h-.24v1.568h-.756v-3.874h1.383c.222 0 .46.037.665.129a1.2 1.2 0 0 1 .498.406.974.974 0 0 1 .184.627.904.904 0 0 1-.258.7 1.419 1.419 0 0 1-.683.389l1.273 1.623h-.922z"/><path d="M11.823 3.985h.756V.111h-.756zm4.28-.977c.24-.222.369-.554.369-.978 0-.405-.13-.72-.37-.96-.24-.22-.59-.35-1.032-.35h-.406v2.62h.406c.46.019.793-.093 1.033-.332M16.287.37c.295.148.554.388.72.683s.258.645.24.996c0 .35-.074.7-.24.996s-.425.534-.72.7c-.35.166-.738.259-1.125.259h-1.254V.13h1.254c.387-.02.775.055 1.125.239m1.993 3.616h.756V.111h-.756zm4.094-1.475L21.802.905 21.23 2.51zm.222.59h-1.568l-.314.886h-.83l1.53-3.874h.776l1.53 3.874h-.83zM28 .112v3.874h-.701l-1.9-2.675v2.675h-.737V.112h.7l1.882 2.674V.112z" mask="url(#b)" transform="translate(4 16)"/></g></g></svg>