<svg height="36" viewBox="0 0 36 36" width="36" xmlns="http://www.w3.org/2000/svg"><mask id="a" fill="#fff"><path d="M0 0h28v7.83H0z" fill-rule="evenodd"/></mask><g fill="none" fill-rule="evenodd"><path d="M18 0c2.837 0 5.52.656 7.907 1.825C31.884 4.753 36 10.895 36 18c0 9.942-8.058 18-18 18-9.94 0-18-8.057-18-18C0 8.06 8.06 0 18 0z" fill="#f2f4f7" fill-rule="nonzero"/><path d="M22.846.295h.47c.804 0 2.106.317 2.106 1.834 0 1.393-1.155 1.863-2.225 1.863h-.685V.612c0-.192.119-.317.334-.317zm5.039 7.327c-.974.101-1.512-1.495-2.004-2.254-.368-.561-1.15-1.132-1.92-1.245 1.269-.075 2.69-.482 2.69-1.92 0-1.166-.72-2.05-3.358-2.05h-3.04c-.04 0-.08.023-.08.068 0 .046.04.074.08.074h.697c.146 0 .288.102.288.385v6.505c0 .136-.101.34-.283.34h-.685a.075.075 0 0 0-.08.068.08.08 0 0 0 .08.074h3.227c.046 0 .085-.023.085-.069 0-.045-.028-.073-.09-.073h-.651c-.085 0-.318-.057-.318-.312V4.139h.334c1.597 0 1.716 1.733 2.509 2.724.679.849 1.568.957 2.072.957.215 0 .363-.006.498-.04.085-.028.102-.176-.051-.158zm-11.97.209c2.48 0 4.044-1.755 4.044-3.912C19.959 1.761 18.413 0 15.916 0c-2.491 0-4.043 1.755-4.043 3.913 0 2.157 1.614 3.918 4.043 3.918zm-2.672-3.918c0-2.078.929-3.76 2.673-3.76 1.71 0 2.672 1.682 2.672 3.76s-.877 3.759-2.672 3.759c-1.738.006-2.673-1.681-2.673-3.759zM8.43.153c-.057 0-.107.023-.107.068 0 .046.027.074.079.074h.639c.148 0 .289.102.289.385v6.505c0 .136-.102.34-.283.34h-.634c-.074 0-.08.057-.08.079 0 .023-.005.063.08.063h3.08c.045 0 .108-.006.108-.051s-.012-.091-.091-.091h-.595c-.085 0-.317-.051-.317-.312V.612c0-.187.12-.312.334-.312h.584c.05 0 .079-.028.079-.067 0-.04-.028-.074-.096-.074H8.43zM2.356 7.316c0 .164.073.215.18.215H3.5c2.373 0 3.233-1.818 3.233-3.641S5.82.3 3.817.3H2.509c-.136 0-.147.114-.147.165zM.085.153H3.72c3.126 0 4.349 1.835 4.349 3.776 0 1.977-1.57 3.738-4.553 3.738H.09c-.062 0-.085-.04-.085-.074 0-.04.04-.074.096-.074h.64c.198 0 .329-.118.329-.339V.651C1.07.487.99.306.73.306H.079c-.05 0-.08-.034-.08-.073 0-.034.013-.08.086-.08z" fill="#000" mask="url(#a)" transform="translate(4 14)"/></g></svg>