<svg width="36" height="36" fill="none" xmlns="http://www.w3.org/2000/svg"><path d="M18 0c2.837 0 5.52.656 7.907 1.825C31.884 4.753 36 10.895 36 18c0 9.942-8.058 18-18 18-9.94 0-18-8.057-18-18C0 8.06 8.06 0 18 0z" fill="#F2F4F7"/><path d="M6.686 19.152a.062.062 0 0 0-.018-.043l-.322-.34a.061.061 0 0 0-.044-.02.06.06 0 0 0-.035.014h-.004c-.218.19-.503.342-.777.342a.755.755 0 0 1-.785-.77c0-.418.3-.77.766-.77.213 0 .492.098.72.269h.003a.058.058 0 0 0 .08-.007l.32-.347a.062.062 0 0 0 .017-.04.06.06 0 0 0-.024-.048A2.116 2.116 0 0 0 5.382 17c-.82.001-1.382.613-1.382 1.333 0 .735.558 1.334 1.4 1.334a1.98 1.98 0 0 0 1.265-.47.06.06 0 0 0 .02-.045zm2.671-1.697c-.235-.245-.581-.377-1.05-.377H7.208a.062.062 0 0 0-.061.062v2.388a.062.062 0 0 0 .061.062h1.097c.497 0 .812-.143 1.032-.358.23-.228.354-.55.354-.9a1.257 1.257 0 0 0-.335-.877zm-.566 1.405c-.111.108-.242.166-.5.166h-.47v-1.381h.47c.278 0 .409.07.52.188a.704.704 0 0 1 .183.508c0 .234-.07.392-.203.519zm3.983.656-1.16-1.44.982-.917a.046.046 0 0 0 .015-.035.046.046 0 0 0-.046-.046h-.714a.06.06 0 0 0-.041.017l-.973.926v-.881a.061.061 0 0 0-.06-.062h-.554a.062.062 0 0 0-.061.062v2.388a.062.062 0 0 0 .06.06h.556a.062.062 0 0 0 .061-.061v-.728l.304-.29.84 1.059a.06.06 0 0 0 .047.023h.71a.046.046 0 0 0 .046-.045.044.044 0 0 0-.012-.03zm3.726-.278v-1.061a.062.062 0 0 0-.061-.062h-1.243a.062.062 0 0 0-.062.06v.4a.062.062 0 0 0 .062.062h.662v.343a1.061 1.061 0 0 1-.535.134c-.489 0-.743-.37-.743-.761 0-.422.289-.77.705-.77.217 0 .515.092.742.26h.002a.06.06 0 0 0 .036.012.06.06 0 0 0 .043-.018l.337-.327a.06.06 0 0 0-.008-.093v-.002c-.369-.259-.786-.397-1.157-.397-.781 0-1.397.597-1.397 1.332 0 .734.604 1.327 1.416 1.327.383 0 .835-.15 1.174-.389a.06.06 0 0 0 .027-.048v-.002zm2.681.309v-.442a.064.064 0 0 0-.018-.044.062.062 0 0 0-.043-.018h-1.351v-1.886a.062.062 0 0 0-.062-.061h-.55a.06.06 0 0 0-.057.038.06.06 0 0 0-.005.023v2.39a.062.062 0 0 0 .062.061h1.963a.061.061 0 0 0 .061-.06v-.001zm11.743 0v-.442a.062.062 0 0 0-.062-.062h-1.35v-1.886a.062.062 0 0 0-.063-.061h-.55a.062.062 0 0 0-.061.06v2.391a.061.061 0 0 0 .061.061h1.963a.061.061 0 0 0 .057-.037.06.06 0 0 0 .004-.024zM20.9 17.018c.8 0 1.442.597 1.442 1.328 0 .743-.642 1.339-1.443 1.339-.8 0-1.428-.597-1.428-1.34 0-.73.627-1.327 1.428-1.327zm0 2.105c.415 0 .742-.354.742-.777a.752.752 0 0 0-.743-.762c-.415 0-.732.346-.732.763 0 .421.32.776.732.776zm4.038-.912c.188-.115.312-.296.312-.492a.536.536 0 0 0-.15-.362c-.155-.165-.405-.261-.738-.261H22.93a.062.062 0 0 0-.061.061v2.389a.061.061 0 0 0 .061.061h1.49c.323 0 .538-.065.723-.238a.759.759 0 0 0 .235-.543c0-.276-.15-.48-.44-.615zm-1.392-.589h.731c.123 0 .176.031.22.073a.204.204 0 0 1 .061.15.215.215 0 0 1-.061.154c-.047.047-.116.07-.22.07h-.731v-.447zm1.062 1.382c-.05.05-.13.077-.242.077h-.82v-.527h.82c.111 0 .18.023.242.085a.256.256 0 0 1 .073.18.26.26 0 0 1-.073.185zm3.818.543a.062.062 0 0 0-.007-.027l-1.108-2.388a.06.06 0 0 0-.056-.035h-.48a.062.062 0 0 0-.054.035l-1.11 2.392a.069.069 0 0 0-.005.025c0 .016.006.032.018.043a.06.06 0 0 0 .043.018h.575a.061.061 0 0 0 .057-.039l.14-.345h1.124l.145.346a.06.06 0 0 0 .057.038h.597a.061.061 0 0 0 .064-.063zm-1.77-.847.335-.804h.023l.334.804h-.692zm5.09.884a.26.26 0 0 1-.184-.447.263.263 0 0 1 .186-.076.262.262 0 0 1 0 .523h-.002zm0-.501a.24.24 0 1 0 .002.001l-.002-.001zm.049.258.083.108h-.05l-.077-.101h-.067v.101h-.039v-.268h.12c.06 0 .102.03.102.08a.08.08 0 0 1-.071.08h-.001zm-.034-.124h-.077v.095h.076c.038 0 .064-.017.064-.048s-.023-.047-.061-.047h-.002z" fill="#000"/></svg>