<svg height="36" viewBox="0 0 36 36" width="36" xmlns="http://www.w3.org/2000/svg"><mask id="a" fill="#fff"><path d="M0 0h27.844v5.189H0z" fill-rule="evenodd"/></mask><g fill="none" fill-rule="evenodd"><path d="M18 0c2.837 0 5.52.656 7.907 1.825C31.884 4.753 36 10.895 36 18c0 9.942-8.058 18-18 18-9.94 0-18-8.057-18-18C0 8.06 8.06 0 18 0z" fill="#f2f4f7" fill-rule="nonzero"/><path d="m5.118 3.915-.003.654h-.552l-.078-.039c-.167-.082-.255-.265-.255-.53 0-.447.31-.728.818-.737l.073-.002zM9.09 2.093c.162.05.296.247.341.506.023.135.027 1.94.004 1.962-.019.018-.41.02-.509.001-.279-.05-.444-.402-.488-1.038-.064-.928.224-1.56.652-1.43m16.28-.04c.196.098.324.398.327.767l.002.153-.495.003c-.569.003-.517.016-.503-.119.066-.617.353-.962.668-.804M13.43 2.06c.192.097.333.452.321.81l-.004.105-.488.003c-.577.003-.524.02-.504-.153.071-.6.358-.926.675-.765m2.785-.576a140.708 140.708 0 0 1 .02 2.015l.006 1.651h.784l.003-1.522.003-1.52h.3c.39 0 .472.036.555.246.073.18.07.136.075 1.527l.004 1.27.39-.004.388-.002.004-1.203c.004-1.283 0-1.45-.05-1.669-.096-.424-.308-.672-.654-.765l-.109-.029h-.857c-.47 0-.859.002-.862.005m8.84-.022c-.686.13-1.122.874-1.122 1.917 0 1.033.394 1.645 1.15 1.788.305.058.867-.008 1.105-.13l.033-.017v-.276c0-.229-.003-.275-.017-.27a2.13 2.13 0 0 1-.746.11c-.4-.02-.637-.236-.727-.662-.029-.138-.047-.362-.03-.379.007-.007.322-.01.86-.01h.847l.01-.034a6.68 6.68 0 0 0-.008-.794c-.135-.919-.636-1.379-1.355-1.243m-3.215-.006c-.86.11-1.396.902-1.363 2.011.027.874.361 1.451.96 1.655.297.101.768.087 1.022-.03l.032-.016v-.597l-.026.008c-.793.23-1.228-.207-1.203-1.207.023-.917.46-1.347 1.153-1.138.08.024.076.035.076-.294V1.55l-.046-.023c-.128-.066-.4-.097-.605-.07m-8.679-.004c-.718.096-1.17.838-1.172 1.921-.002.988.332 1.572 1.008 1.763.34.096.946.048 1.24-.1l.032-.017v-.276c0-.25-.002-.276-.019-.269-.356.137-.846.146-1.089.021-.25-.129-.43-.509-.414-.876l.003-.082.847-.003c.764-.003.847-.005.861-.022.04-.048.027-.668-.02-.94-.133-.785-.617-1.21-1.277-1.12m-11.799.002c-.698.081-1.194.627-1.345 1.48-.028.16-.02.783.012.955.124.651.435 1.068.922 1.231.295.1.74.09 1.007-.022l.043-.018v-.299c0-.165-.004-.3-.008-.3a.4.4 0 0 0-.06.018C1.24 4.74.774 4.272.776 3.337c.001-.924.42-1.386 1.095-1.21a.657.657 0 0 0 .121.024c.004-.003.008-.14.008-.304v-.3l-.06-.028c-.138-.062-.373-.088-.579-.065m3.178-.027a1.818 1.818 0 0 0-.706.23l-.038.023v.256c0 .142.003.258.006.258a.888.888 0 0 0 .091-.04c.685-.32 1.22-.11 1.202.471l-.003.114-.047.003c-.98.06-1.528.507-1.562 1.278-.026.576.277 1.027.747 1.113.068.012.268.015.906.016h.818l-.005-.026c-.039-.186-.054-.637-.054-1.615 0-.957-.004-1.04-.052-1.25-.142-.614-.578-.892-1.303-.83m4.906-.358c-.003.783-.003.783-.062.676-.229-.424-.882-.44-1.255-.03-.323.355-.475.867-.474 1.6 0 .998.304 1.638.858 1.807.054.017.167.02.917.023l.855.004-.008-.073-.02-.18c-.01-.069-.016-.858-.02-2.328L10.228.347 9.84.343 9.45.34zM27.437.305c.058.036.054.115-.009.148-.04.02-.153.022-.173.003-.008-.008-.014-.044-.014-.08s.006-.072.014-.08c.023-.023.14-.017.182.01M27.192.22c-.04.005-.04.007-.036.317l.004.25.038-.004.037-.003.003-.119c.004-.107.006-.12.027-.125.045-.012.066.006.128.11.076.13.086.14.131.14.044 0 .043-.002-.036-.13-.07-.113-.072-.123-.02-.14.128-.042.135-.226.012-.277a.973.973 0 0 0-.288-.019m.325-.1c.381.195.247.8-.176.8-.45 0-.548-.682-.119-.822a.472.472 0 0 1 .295.022m-.314-.104c-.49.141-.476.843.02.976.483.13.834-.506.47-.85a.527.527 0 0 0-.49-.126" fill="#251e24" mask="url(#a)" transform="translate(4 15.25)"/><path d="M7.79 15.23c-.003.008-.004.136-.003.284l.003.27 1.043.003c.76.002 1.047 0 1.059-.01.02-.017.023-.503.003-.539-.015-.029-2.094-.037-2.105-.008" fill="#e21e39"/></g></svg>