<svg height="36" viewBox="0 0 36 36" width="36" xmlns="http://www.w3.org/2000/svg"><mask id="a" fill="#fff"><path d="M0 0h9.627v15.329H0z" fill-rule="evenodd"/></mask><mask id="b" fill="#fff"><path d="M.131 0h.738v1H.131z" fill-rule="evenodd"/></mask><g fill="none" fill-rule="evenodd"><path d="M18 0c2.837 0 5.52.656 7.907 1.825C31.884 4.753 36 10.895 36 18c0 9.942-8.058 18-18 18-9.94 0-18-8.057-18-18C0 8.06 8.06 0 18 0z" fill="#f2f4f7" fill-rule="nonzero"/><path d="m6.226 12.352.02.101.981.579.25.144-.137-.349c.81.239 1.47.252 1.908.046-.763.225-2.656-.413-3.022-.521zm-3-4.572-.84.639.604-1.326v-.001c.096.203.176.436.237.688zm3.9-1.191-2.623.64v-.002.002l5.125-2.217-4.223.517 2.26-1.651-2.422.945.366-.734-1.733 1.248-.015-.026L6.318-.001 2.323 4.728 2.298 2.15.832 5.596.756 4.581.034 7.224v-.001.001s.098-.072.229-.112l.032-.008.004-.001.032-.007.005-.001a.331.331 0 0 1 .033-.004V7.09l.033-.003h.007a.193.193 0 0 1 .038.001l.03.003.006.001a.152.152 0 0 1 .039.008.302.302 0 0 1 .035.009c.247.09.457 0 .457 0s.233.15.233.275h-.001v.001S.94 7.403.94 7.267c0 0-.392-.139-.94.064l1.156.497c-.001-.005-.062-.221.005-.295.02-.026.058-.035.116-.015.02.007.037.005.046-.004.09-.093-.346-.897-.346-.897s-.391-.038-.73.316a1.035 1.035 0 0 0-.067.076v-.001.001c.035-.06.144-.235.328-.387.109-.092.247-.174.41-.221.045-.108-.012-.038.08-.094v-.001c.045-.284.205-1.015.759-1.64a2.65 2.65 0 0 1 .116-.123s-.142.267-.142.453c.004-.004.145-.215.338-.407v-.001l-.005.008c-.036.077-.3.641-.272.806v.004l.535-.49-.002.002c-.016.021-.501.678-.55.903v.002l.809-.577-.001.001a2.994 2.994 0 0 0-.143.218.23.23 0 0 0-.034.078v.005l.436-.187s-.018.023-.05.056l-.161.164-.04.042-.294.298-.006.007-.224.228-.144.146s-.117.122-.131.186c-.014.062.052.101.052.101h-.001a.32.32 0 0 1 .137.147.304.304 0 0 1-.069.341.329.329 0 0 1-.438.015c.01.013.169.214.46.058l.362-.263.015-.013.374-.272c.088.104.17.229.247.371a25.02 25.02 0 0 0-.978.976c-.225.237-.45.488-.642.726l.135-.633.01-.052v.001l-.002.002-.002.001-.004.003a.002.002 0 0 0-.002.002l-.005.002c-.001.001-.001.003-.004.003a.022.022 0 0 1-.005.004.008.008 0 0 1-.004.004l-.006.004c-.002.002-.003.004-.006.005-.002.001-.003.004-.006.004l-.006.007-.008.006-.006.006-.01.008-.007.006c-.002.003-.006.005-.01.008-.001.003-.005.005-.007.008l-.011.01c-.002.002-.004.005-.008.007a.068.068 0 0 1-.012.012.023.023 0 0 0-.007.007l-.008.007-.001.001-.012.013a.022.022 0 0 0-.01.01l-.012.011-.01.011-.01.01-.004.005-.003.003-.007.008-.011.012-.003.003-.004.003a.031.031 0 0 1-.007.009l-.014.015-.012.015a.192.192 0 0 1-.014.015l-.012.015-.015.018-.012.016c-.005.006-.01.011-.015.019l-.013.014-.016.023a.067.067 0 0 0-.011.014l-.021.027-.008.011-.03.042-.001.001c-.01.014-.02.028-.028.042a.091.091 0 0 1-.008.013l-.022.032-.01.016c-.006.011-.013.02-.02.03l-.01.019-.02.031-.011.02c-.006.01-.011.021-.02.032a.186.186 0 0 1-.01.019c-.007.013-.012.024-.02.035l-.01.021a4.572 4.572 0 0 0-.087.172v.001l-.15.025a2.5 2.5 0 0 1 .092-.212l-.243.341.243-.023c-.208.476-.36 1.099-.36 1.987l.198-.125c.174.99.99 1.426.99 1.426l-.001-.006a3.89 3.89 0 0 0 1.768.6v-.001a3.978 3.978 0 0 0 .979-.024l-.001.035c0 .197.11.358.248.371a7.942 7.942 0 0 0-.517 1.133c-.011.029-.034.085-.057.101-.07.016-.076.019-.153.044v-.001c-.025-.026-.251-.068-.48.018l.002.002a.7.7 0 0 0-.345.334c.094-.075.268-.198.41-.18-.168.095-.458.277-.491.54 0 0 1.006-.706 1.503-.576 0 0-.072.082.098.387l.079-.283c.089-.276-.256-.317-.401-.322v-.004l.045-.116c.086-.221.284-.709.502-1.057a.092.092 0 0 0 .009-.023l-.04-.055s.029-.032.045-.056a.416.416 0 0 0 .069-.226.735.735 0 0 0-.077-.307l.129-.06.02.047.007.015.01.031.007.016a.414.414 0 0 1 .01.033c0 .003.003.008.004.011l.737-.222-.163-.135H5.47l-.008-.008-.003-.003-2.787-2.538v.002-.002c.775.377 1.679.816 3.212 1.526a76.613 76.613 0 0 0 2.972 1.309c.073.031.134.055.186.076l.21.083c.008-.005.018-.008.027-.012L3.644 8.995zM1.75 7.02a.198.198 0 0 1-.254-.11c-.003-.007-.007-.014-.008-.022l-.058.019c.049.142.195.219.328.174a.235.235 0 0 0 .086-.053.272.272 0 0 0 .066-.285l-.133.046a.166.166 0 0 1 .014.063c0 .02-.003.037-.011.054l.06.037a.207.207 0 0 1-.09.077zm.845 6.639c.22-.239.482-.508.638-.635A3.906 3.906 0 0 1 3.046 13a16.507 16.507 0 0 0-.983 1.039c-.003.001-.004.005-.007.007a57.88 57.88 0 0 1-.587.161c-.258.072-.488.054-.488.222 0 0-.266.143-.204.356 0 0 .534-.426.99-.498 0 0-.28.181-.253.426 0 0 .376-.562.815-.22 0 0-.196-.266-.115-.412.07-.081.216-.244.382-.422z" fill="#dc0d15" mask="url(#a)" transform="translate(4 10)"/><g fill="#000"><path d="m5.43 16.907.06-.02a.197.197 0 0 0 .261.133.197.197 0 0 0 .09-.077l-.06-.036a.129.129 0 0 0 .01-.055.17.17 0 0 0-.014-.064l.133-.045c.048.142-.02.292-.152.338a.262.262 0 0 1-.328-.174zm1.5.065a2.174 2.174 0 0 0-.247-.37l-.75.55c-.302.16-.462-.06-.462-.06a.325.325 0 0 0 .533-.234.297.297 0 0 0-.025-.12.317.317 0 0 0-.137-.149h.002s-.067-.039-.053-.1c.014-.064.132-.187.132-.187v.001l.368-.375.005-.007.335-.34.161-.164.05-.055-.437.186s-.008-.005.034-.083.144-.22.144-.22l-.809.578c.047-.227.552-.906.552-.906l-.534.49c-.035-.17.277-.818.277-.818-.197.194-.338.408-.338.408 0-.187.141-.454.141-.454-.648.65-.828 1.461-.873 1.762-.094.06-.037-.012-.08.096-.437.123-.684.511-.74.608.353-.436.798-.393.798-.393s.531.981.3.902c-.233-.08-.12.31-.12.31l-.436-.188c.072.142.212.476.132.824-.09.135-.178.301-.257.505l.15-.025a4.664 4.664 0 0 1 .097-.194l.02-.034a.128.128 0 0 1 .011-.02l.018-.032c.004-.007.01-.013.012-.02.006-.01.012-.022.02-.03l.01-.019a.54.54 0 0 0 .02-.03.042.042 0 0 1 .01-.017.292.292 0 0 1 .021-.032l.008-.013a.603.603 0 0 1 .03-.04v-.003a.603.603 0 0 1 .03-.04l.007-.013.021-.027.011-.014.016-.023a.053.053 0 0 0 .012-.014l.016-.02c.004-.005.01-.009.012-.014l.015-.018.012-.015.015-.016.011-.014c.005-.006.01-.01.013-.015.005-.004.008-.01.012-.014l.014-.013.01-.012a.066.066 0 0 0 .014-.015l.01-.01.013-.013.01-.009.012-.014.008-.007.02-.019.008-.007c.002-.004.007-.007.01-.01l.008-.008a.038.038 0 0 0 .01-.009c.003-.002.004-.004.008-.005l.008-.008.006-.006c.003-.002.005-.005.008-.006a.017.017 0 0 0 .006-.006c.003 0 .005-.003.007-.005.002 0 .003-.003.005-.006.004 0 .005-.002.006-.003a.008.008 0 0 0 .004-.004.031.031 0 0 0 .006-.004c.002 0 .003-.002.004-.003L5.446 18c0-.002.001-.002.002-.002 0-.003.002-.003.003-.003 0 0 .002 0 .002-.002.001 0 .002 0 .003-.002h.001l-.01.052-.136.633c.511-.633 1.265-1.367 1.62-1.703zm.096 6.024c.133.022.254.033.254.033l.006-.07s-.119-.01-.249-.032zm1.684-.305a.748.748 0 0 1 .076.308.415.415 0 0 1-.114.281l.084.115a.49.49 0 0 0 .173-.396.873.873 0 0 0-.09-.368zm4.543.18s-1.887-.708-6.582-2.993l2.798 2.55h.001c.251-.105.427-.179.776.024l-.02-.1c.365.108 2.265.75 3.027.52zM6.99 17.093l-.603 1.326.84-.639a3.592 3.592 0 0 0-.237-.687zm-2.05.174c0 .136.306.118.306.118 0-.125-.232-.275-.232-.275s-.21.09-.458 0a.462.462 0 0 0-.292.003c-.118.078-.263.22-.263.22.548-.205.94-.066.94-.066zm21.473 1.009.008-.007.286-.293.043-.044h-1.223v2.112h.893l.008-.007.279-.293.042-.043h-.86v-.656h.264l.008-.008.29-.29.044-.046h-.606v-.425zm-2.226-.119-.011.008v1.126c0 .17-.018.29-.054.356-.031.062-.086.091-.168.091a.353.353 0 0 1-.197-.07l-.023-.015-.013.023-.154.266-.012.022.02.013a.736.736 0 0 0 .379.105.547.547 0 0 0 .552-.428 1.45 1.45 0 0 0 .034-.362V17.91l-.042.03zm4.455-.217-.758.777v-.808l-.04.03-.311.217-.012.008v1.904l.042-.028.31-.219.01-.008v-.637l.038-.036.724.895.014.018.02-.013.267-.18.022-.016-.018-.023-.77-.928.914-.917.043-.044h-.488zm-6.151 1.583a.726.726 0 0 1-.531.215.712.712 0 0 1-.507-.212.722.722 0 0 1-.223-.543c0-.209.073-.387.215-.529a.712.712 0 0 1 .525-.218c.207 0 .383.074.523.218a.73.73 0 0 1 .213.534.742.742 0 0 1-.215.535zm-.517-1.629c-.303 0-.566.108-.782.32-.217.212-.327.47-.327.765 0 .336.12.613.359.821.214.187.462.282.733.282.307 0 .572-.107.788-.318.216-.21.326-.47.326-.773a1.06 1.06 0 0 0-.324-.775 1.058 1.058 0 0 0-.773-.322zm7.658.382h.473v1.792l.04-.028.312-.219.01-.008v-1.537h.474v-.344h-1.31zm-17.611-.04c.134 0 .266.04.394.114l.022.013.013-.022.15-.26.014-.022-.022-.013a1.091 1.091 0 0 0-.55-.153c-.345 0-.63.13-.848.386a1.09 1.09 0 0 0-.266.72c0 .297.108.557.318.768.213.21.472.315.773.315.199 0 .392-.052.573-.154l.012-.009v-.02l-.003-.006-.151-.263-.014-.023-.023.015a.645.645 0 0 1-.391.116.73.73 0 0 1-.729-.744c0-.21.07-.392.21-.537a.689.689 0 0 1 .518-.22zm2.377 1.281a.687.687 0 0 1-.242.141 1.09 1.09 0 0 1-.34.043H13.7v-1.425h.114c.258 0 .455.061.585.181a.694.694 0 0 1 .218.531.689.689 0 0 1-.22.53zm-.101-1.522a1.6 1.6 0 0 0-.5-.063h-.458v2.112h.452c.211 0 .375-.018.493-.059.123-.039.245-.109.358-.209.227-.2.342-.464.342-.788 0-.32-.112-.586-.328-.783a.963.963 0 0 0-.36-.21zm5.022.906v-.655h.112c.285 0 .43.105.43.317 0 .225-.149.338-.443.338zm.405.256a.58.58 0 0 0 .307-.202.608.608 0 0 0 .131-.392.591.591 0 0 0-.209-.47c-.125-.107-.329-.16-.607-.16h-.389v2.135l.04-.028.312-.219.01-.008v-.612h.018l.582.833.014.021.02-.015.25-.18.022-.015-.016-.02zm-2.326-.256h-.1v-.655h.112c.286 0 .43.105.43.317 0 .225-.149.338-.442.338zm.315-.932a1.648 1.648 0 0 0-.398-.037h-.378v2.136l.04-.028.311-.219.011-.008v-.605h.12c.218 0 .396-.058.527-.172a.59.59 0 0 0 .198-.468.614.614 0 0 0-.185-.456.553.553 0 0 0-.246-.143z"/><path d="M.531.211H.418V.36h.113C.568.36.608.331.608.288A.077.077 0 0 0 .531.211zm.07.371L.491.415H.418v.167H.359V.158h.172c.071 0 .138.051.138.13a.125.125 0 0 1-.108.125l.113.169zM.5.056a.313.313 0 1 0 .313.313A.31.31 0 0 0 .5.056zm0 .682a.369.369 0 1 1 0-.737.369.369 0 0 1 0 .737z" mask="url(#b)" transform="translate(31.131 17.893)"/></g></g></svg>