<svg width="36" height="36" fill="none" xmlns="http://www.w3.org/2000/svg"><defs><linearGradient id="a" x1="7.73" y1="20.3" x2="5.407" y2="17.977" gradientUnits="userSpaceOnUse"><stop stop-color="#AECA24"/><stop offset="1" stop-color="#168E44"/></linearGradient><linearGradient id="b" x1="9.311" y1="18.857" x2="4.599" y2="18.857" gradientUnits="userSpaceOnUse"><stop stop-color="#AECA24"/><stop offset=".59" stop-color="#168E44"/><stop offset=".8" stop-color="#168E44"/><stop offset="1" stop-color="#168E44"/></linearGradient><linearGradient id="c" x1="8.008" y1="15.706" x2="9.734" y2="17.432" gradientUnits="userSpaceOnUse"><stop stop-color="#3993D7"/><stop offset="1" stop-color="#27459C"/></linearGradient><linearGradient id="d" x1="6.154" y1="16.876" x2="10.867" y2="16.876" gradientUnits="userSpaceOnUse"><stop stop-color="#3993D7"/><stop offset=".8" stop-color="#27459C"/><stop offset="1" stop-color="#27459C"/></linearGradient><linearGradient id="e" x1="7.04" y1="17.175" x2="8.715" y2="18.85" gradientUnits="userSpaceOnUse"><stop stop-color="#F0431E"/><stop offset=".9" stop-color="#F78F1F"/><stop offset="1" stop-color="#F78F1F"/></linearGradient></defs><path d="M18 0c2.837 0 5.52.656 7.907 1.825C31.884 4.753 36 10.895 36 18c0 9.942-8.058 18-18 18-9.94 0-18-8.057-18-18C0 8.06 8.06 0 18 0z" fill="#F2F4F7"/><path d="M12.174 20.954a.92.92 0 0 1-.68-.267c-.255-.259-.267-.522-.267-1.074 0-.551.012-.814.267-1.073a.922.922 0 0 1 .68-.267c.486 0 .849.289.942.811h-.408c-.06-.27-.24-.455-.534-.455a.512.512 0 0 0-.387.163c-.134.14-.16.3-.16.821 0 .523.026.682.16.823a.514.514 0 0 0 .387.162c.293 0 .479-.185.542-.455h.4c-.093.522-.46.81-.942.81zm2.563-.223a.76.76 0 0 1-.563.223.75.75 0 0 1-.56-.223c-.177-.185-.221-.422-.221-.74 0-.315.044-.552.222-.737a.753.753 0 0 1 .559-.222c.255 0 .44.097.563.222.177.185.222.422.222.737 0 .318-.045.555-.222.74zm-.967-.74c0 .204.015.4.13.514.07.071.163.112.274.112a.38.38 0 0 0 .277-.112c.115-.114.13-.31.13-.514 0-.203-.015-.4-.13-.515a.383.383 0 0 0-.277-.107.374.374 0 0 0-.274.107c-.115.115-.13.311-.13.515zm2.628.94v-1.143c0-.293-.167-.419-.378-.419s-.388.13-.388.419v1.143h-.378v-1.877h.37v.19a.672.672 0 0 1 .5-.212c.193 0 .352.063.463.17.144.141.189.319.189.53v1.2h-.378zm1.425.023c-.307 0-.566-.052-.788-.27l.248-.248c.151.155.355.196.54.196.233 0 .411-.082.411-.26 0-.13-.07-.203-.252-.222l-.3-.026c-.355-.033-.555-.188-.555-.518 0-.37.315-.574.708-.574.285 0 .521.06.695.211l-.236.24c-.119-.099-.286-.136-.463-.136-.23 0-.341.096-.341.24 0 .13.074.197.259.215l.263.022c.389.034.592.204.592.534 0 .392-.333.596-.781.596zm1.679-.023c-.351 0-.515-.252-.515-.522v-1.066h-.214v-.289h.214v-.537h.378v.537h.363v.289h-.363v1.048c0 .137.067.218.208.218h.155v.322h-.226zm.785-.829c0 .326.167.526.478.526a.56.56 0 0 0 .455-.193l.24.226a.88.88 0 0 1-.703.293c-.47 0-.844-.249-.844-.963 0-.61.315-.959.796-.959.504 0 .796.363.796.911v.16h-1.218zm.793-.518a.391.391 0 0 0-.37-.237.391.391 0 0 0-.374.237.587.587 0 0 0-.05.255h.845a.636.636 0 0 0-.052-.255zm1.253 1.347c-.358 0-.514-.24-.514-.518v-2.117h.378v2.095c0 .144.052.218.204.218h.166v.322h-.234zm.996 0c-.36 0-.516-.24-.516-.518v-2.117h.378v2.095c0 .144.052.218.204.218h.166v.322h-.232zm1.568 0v-.17c-.137.137-.266.193-.5.193-.233 0-.389-.056-.504-.17a.58.58 0 0 1-.147-.404c0-.315.219-.54.651-.54h.493v-.134c0-.24-.115-.352-.411-.352-.2 0-.304.052-.412.186l-.244-.234c.174-.207.356-.274.67-.274.519 0 .775.222.775.644v1.255h-.37zm-.007-.829h-.433c-.23 0-.345.096-.345.27 0 .174.108.267.356.267.133 0 .24-.015.34-.108.06-.055.082-.143.082-.277v-.152zm1.343.83c-.352 0-.515-.252-.515-.523v-1.066h-.215v-.289h.215v-.537h.378v.537h.362v.289h-.362v1.048c0 .137.067.218.207.218h.155v.322h-.225zm.508-2.648h.4v.4h-.4v-.4zm.01.77h.379v1.877h-.378v-1.877zm2.062 1.678a.76.76 0 0 1-.563.222.75.75 0 0 1-.559-.223c-.178-.185-.223-.422-.223-.74 0-.315.045-.552.223-.737a.753.753 0 0 1 .559-.222c.256 0 .44.097.563.222.177.185.222.422.222.737 0 .318-.045.555-.222.74zm-.285-1.256a.382.382 0 0 0-.278-.107.375.375 0 0 0-.274.107c-.115.115-.13.312-.13.515 0 .204.015.4.13.514.07.071.163.112.274.112.111 0 .207-.04.277-.112.115-.114.13-.31.13-.514 0-.204-.015-.4-.13-.515zm1.999 1.455v-1.143c0-.293-.166-.419-.377-.419-.212 0-.39.13-.39.419v1.143h-.377v-1.877h.37v.19a.669.669 0 0 1 .5-.212.65.65 0 0 1 .463.17c.144.141.189.319.189.53v1.2h-.378zm.97 0a.16.16 0 0 1-.125-.048l.027-.027c.03.03.059.04.1.04.054 0 .087-.025.087-.068 0-.019-.006-.035-.018-.045-.012-.01-.021-.014-.048-.018l-.043-.007a.132.132 0 0 1-.067-.027.086.086 0 0 1-.028-.069c0-.062.045-.103.118-.103.046 0 .077.011.108.04l-.024.025a.115.115 0 0 0-.086-.031c-.049 0-.077.027-.077.068 0 .018.005.032.016.042.012.01.03.017.05.02l.04.006c.034.005.051.012.067.026.02.017.03.042.03.073 0 .064-.05.103-.126.103zm.464-.003v-.278l-.1.22h-.034l-.102-.22v.278h-.04v-.366h.04l.12.26.116-.26H32v.366h-.039z" fill="#256DB4"/><path d="M4.599 18.817a1.19 1.19 0 0 0-.068.036s-.1.143-.212.32a7.152 7.152 0 0 0-.319.56c.186-.134.414-.21.718-.246.372-.045.807-.037 1.252-.018.391.016.807.042 1.225.063.707.036 1.622-.324 2.116-.814l-.028.017c-.92.532-1.753.416-2.5.28-.562-.102-1.128-.315-1.63-.315a1.24 1.24 0 0 0-.554.117z" fill="url(#a)"/><path d="M4.609 18.812c.61-.292 1.396.06 2.175.202.746.136 1.58.252 2.5-.28l.027-.016s-.19.017-.471.021a16.07 16.07 0 0 1-1.214-.05c-.741-.063-1.3-.105-1.748-.105-.546 0-.926.063-1.27.228zm-.01.005.01-.005-.01.005z" fill="url(#b)"/><path d="M10.748 16.247c-.373.044-.808.037-1.253.018-.39-.017-.807-.043-1.225-.064-.707-.035-1.622.324-2.116.814L6.182 17c.92-.532 1.753-.416 2.5-.28.782.142 1.573.497 2.185.197.023-.011.04-.021.067-.036 0 0 .1-.142.212-.32a7.33 7.33 0 0 0 .286-.494l.033-.066c-.186.135-.413.21-.717.247" fill="url(#c)"/><path d="m6.182 16.998-.028.017s.19-.018.471-.021c.282-.004.862.02 1.215.05 1.645.138 2.392.176 3.017-.123-.611.29-1.397-.061-2.176-.203a5.678 5.678 0 0 0-1.021-.114 2.86 2.86 0 0 0-1.478.394zm4.675-.077z" fill="url(#d)"/><path d="M7.95 17.468c-.761-.059-1.541-.118-2.246-.016-.293.296-.565.602-.816.92.712-.259 1.652-.184 2.623-.108.762.059 1.543.118 2.249.015.174-.163.688-.747.814-.92-.713.26-1.653.185-2.624.11" fill="url(#e)"/></svg>