<svg width="36" height="36" fill="none" xmlns="http://www.w3.org/2000/svg"><path d="M18 0c2.837 0 5.52.656 7.907 1.825C31.884 4.753 36 10.895 36 18c0 9.942-8.058 18-18 18-9.94 0-18-8.057-18-18C0 8.06 8.06 0 18 0z" fill="#F2F4F7"/><path d="M7.957 14c.477 0 1.008.098 1.214.146v1.073a4.397 4.397 0 0 0-1.056-.163c-.889.011-1.355.537-1.468.796-1.051.401-1.485 1.057-1.571 1.338A4.388 4.388 0 0 1 5 16.46C5.108 14.183 7.367 14 7.957 14zm3.261 1.083-.227.444 1.874.13-.217-.574h-1.43zm3.43 0-.082.759 1.863.2a4.619 4.619 0 0 1-.249-.959h-1.538.005zm4.338 1.246.054-1.246h-1.56c-.081.287-.27.807-.352 1.03l1.858.216zm3.282-1.246h-2.475v1.36l2.87.325c.358-.19.445-.612.434-.796 0-.688-.552-.878-.829-.889zm-1.397 1.425.043-.699h.677c.12 0 .352.07.358.352 0 .25-.233.347-.358.347h-.72zm6.12-1.425h-3.108l-.055 1.847 2.741.336.06-.736h-1.587v-.64h1.912l.038-.807zm.629 0h2.22c.385-.01 1.16.217 1.16.97 0 .79-.596 1.072-.894 1.116l.255.541-1.181-.14-.33-.83h.503c.195 0 .488-.145.488-.481 0-.271-.325-.396-.488-.385h-.639l-.07 1.63-1.073-.151.054-2.27h-.005z" fill="#339B47"/><path fill-rule="evenodd" clip-rule="evenodd" d="m10.904 15.723-1.706 3.152h1.322l.487-1.045h1.387l.379 1.045h1.267l-1.148-2.995-1.999-.157h.011zm.937.292-.487 1.018h.84l-.353-1.018zM9.08 17.64l-.174 1.1a5.66 5.66 0 0 1-1.153.135c-.629.011-2.248-.195-2.611-1.37.043-.282.368-.948 1.365-1.409-.136.59-.065 1.76 1.343 1.75.244.005.829-.054 1.23-.206zm5.454-1.582-.265 2.817h.986l.162-2.546.64 2.546h1.018l.818-2.448-.867-.098-.358 1.1-.27-1.192-1.864-.178zm3.434.385-.075 2.432h1.029l.043-2.313-.986-.119h-.01zm1.799.195-.152 2.237h2.438c.308 0 1.056-.238 1.056-1.029 0-.747-.715-.883-1.235-.953l-2.102-.255h-.005zm1.05.726-.048.758h.785c.136 0 .396-.108.39-.379-.005-.303-.26-.38-.39-.38h-.736zm2.969-.163-.087 1.674h3.066l.065-.818h-1.901v-.606h.975l-2.113-.25h-.005zm3.64 1.674.097-1.262 1.084.146-.054 1.116h-1.127zm1.787-1.061 1.176.146.471.915h-1.3l-.347-1.061z" fill="#293492"/><path d="M25.686 19.303c.488.01.943.108 1.11.157v.758a3.292 3.292 0 0 0-.99-.195c-.531-.016-1.274.304-1.257 1.116.01.813.715.856.91.85.162 0 .341-.054.411-.075l.044-.52h-.455l.054-.683h1.403l-.12 1.82c-.173.07-.709.136-.926.136h-.736c-.569 0-1.685-.315-1.63-1.598.064-1.604 1.57-1.788 2.182-1.766zm-13.742.114H9.15l-.19 3.25h2.839l.038-.688h-1.734l.033-.58h1.44l.066-.747h-1.463l.044-.553h1.663l.054-.682h.005zm7.567 0h-2.795l-.19 3.25h2.839l.038-.688H17.67l.032-.58h1.44l.066-.747h-1.463l.044-.553h1.663l.054-.682h.005zm-7.155 3.25.162-3.25h1.29l1.224 2.063.054-2.063h1.029l-.184 3.25h-1.268l-1.245-2.059-.093 2.059h-.975.006zm7.74-3.25-.135 3.25h1.05l.087-2.563h.667c.119.017.357.098.363.342.01.298-.288.39-.488.406h-.417l.666 1.815h1.154l-.672-1.387c.266-.087.797-.396.797-.975 0-.72-.65-.888-1.11-.888h-1.962zm7.15 0 1.138 1.939-.092 1.31h1.137v-1.245l1.463-2.004h-1.203l-.704 1.11-.542-1.11h-1.202.005z" fill="#293492"/></svg>