<svg width="36" height="36" fill="none" xmlns="http://www.w3.org/2000/svg"><path d="M18 0c2.837 0 5.52.656 7.907 1.825C31.884 4.753 36 10.895 36 18c0 9.942-8.058 18-18 18-9.94 0-18-8.057-18-18C0 8.06 8.06 0 18 0z" fill="#F2F4F7"/><g fill="#006E43"><path d="M6.737 25.446h.519v.467a.858.858 0 0 1-.385.073c-.438 0-.727-.26-.727-.639s.286-.631.725-.631c.171 0 .34.038.495.112l.018-.183a1.155 1.155 0 0 0-.51-.113c-.562 0-.93.33-.93.817 0 .487.373.818.937.818.197.005.391-.04.565-.13v-.762h-.707v.171zm2.178-.896-.659 1.59h.206l.147-.369h.84l.147.37H9.8l-.657-1.59h-.227zm-.245 1.057.358-.855.357.855H8.67zm3.246-.507c0-.375-.255-.55-.554-.55h-.702v1.59h.195v-.498h.505l.401.499h.243l-.438-.532a.515.515 0 0 0 .35-.509zm-.576.367h-.489v-.74h.489a.35.35 0 0 1 .38.374.358.358 0 0 1-.378.367h-.002zm2.213-.917h-.65v1.59h.649c.53 0 .803-.306.803-.793.005-.47-.27-.796-.802-.796zm-.011 1.414h-.446v-1.236h.446c.41 0 .617.236.617.62 0 .382-.207.616-.617.616zm1.975-.552h.824v-.176h-.824v-.51h.947v-.175h-1.14v1.59h1.164v-.175h-.971v-.554zm3.18.442-1.082-1.303h-.202v1.59h.195v-1.299l1.08 1.299h.203v-1.59h-.194v1.303zm3.731-.577h-.178a.747.747 0 0 1-.106.462l-.516-.488c-.118-.115-.183-.186-.183-.327 0-.156.147-.228.332-.228a.83.83 0 0 1 .337.073l.024-.17a.95.95 0 0 0-.363-.072c-.293 0-.521.146-.521.403a.462.462 0 0 0 .138.323.511.511 0 0 0-.303.433c0 .284.248.478.593.478a.684.684 0 0 0 .476-.175l.161.152h.26l-.303-.284a.917.917 0 0 0 .152-.58zm-.743.715c-.234 0-.406-.124-.406-.306a.349.349 0 0 1 .212-.314l.54.494a.48.48 0 0 1-.341.126h-.005zm3.673-1.442h-.702v1.59h.196v-.498h.509a.53.53 0 0 0 .555-.542c-.003-.375-.259-.55-.558-.55zm-.023.918h-.488v-.74h.488a.35.35 0 0 1 .38.373.356.356 0 0 1-.234.345.356.356 0 0 1-.146.021zm1.686-.056h.824v-.176h-.824v-.51h.947v-.175h-1.14v1.59h1.165v-.175h-.972v-.554zm1.779-.68h.532v1.409h.192v-1.41h.532v-.18H28.8v.18zM11.295 22.4H9.301v-.86h1.561v-.79h-1.56v-.813h1.915l-.147-.777H8.368v4.017h2.78l.147-.776zm4.255-3.24h-.916v2.572L12.98 19.16h-.945v4.017h.915v-2.572l1.64 2.572h.958V19.16zm.73 0-.136.777h1.186v3.24h1.03v-3.24h1.223l-.163-.777h-3.14zm13.814 3.24v-3.24h-.933v4.017h2.691l.148-.776h-1.906zm-22.729.62v-.91a1.96 1.96 0 0 1-1.125.327c-.668 0-1.3-.41-1.3-1.265 0-.796.542-1.27 1.325-1.27.705 0 1.075.27 1.1.293v-.936a3.269 3.269 0 0 0-1.075-.166C4.867 19.087 4 20.04 4 21.256c0 1.313 1.017 1.994 2.186 1.994.405.008.807-.07 1.179-.23zm19.485-3.86h-.909l-.928 2.512h-.498l-.294.781h.5l-.262.724h.921l.254-.724h1.499l.253.724h.95l-1.487-4.017zm-.946 2.512.477-1.362.482 1.362h-.959zm-3.109-.012c.075-.026.148-.06.217-.098.391-.219.587-.58.587-1.099 0-1.304-1.27-1.304-1.505-1.304h-1.87v4.018h.934v-1.409h.63l.894 1.409h1.108l-.995-1.517zm-.442-.669h-1.196v-1.054h1.196l.35.527-.35.527zm-9.987-3.217h.452v-4.877a5.84 5.84 0 0 0-.452 4.877zm1.043-5.714v5.714h.782v-6.487a5.88 5.88 0 0 0-.782.772zm5.168.54.535-.354 4.562 3.03a5.803 5.803 0 0 0-.207-1.082l-3.643-2.42.534-.355 2.736 1.816a5.865 5.865 0 0 0-1.954-2.248l-.036-.018a5.743 5.743 0 0 0-.807-.452l-4.72 3.128v-.705l4.041-2.684c-.35-.11-.71-.186-1.075-.228l-2.97 1.967v-.709L17.514 10a5.797 5.797 0 0 0-2.63.807l-.097.06v6.907h.788v-3.18l2.292-1.521 2.291 1.52v3.18h.787v-2.658l.587.391v2.267h.787v-1.744l.587.391v1.353h.452a5.864 5.864 0 0 0 .33-1.778l-5.11-3.394z"/><path d="M18.355 15.727h-.984v2.046h.984v-2.046z"/></g></svg>