<svg height="36" viewBox="0 0 36 36" width="36" xmlns="http://www.w3.org/2000/svg"><mask id="a" fill="#fff"><path d="M0 0h2.823v2.824H0z" fill-rule="evenodd"/></mask><mask id="b" fill="#fff"><path d="M0 3h28V0H0z" fill-rule="evenodd"/></mask><g fill="none" fill-rule="evenodd"><path d="M18 0c2.837 0 5.52.656 7.907 1.825C31.884 4.753 36 10.895 36 18c0 9.942-8.058 18-18 18-9.94 0-18-8.057-18-18C0 8.06 8.06 0 18 0z" fill="#f2f4f7" fill-rule="nonzero"/><path d="M9.514 19.89c-.207.051-.434.11-.805.11-.728 0-1.569-.367-1.569-1.4 0-.95.665-1.423 1.564-1.423.278 0 .548.03.81.109l-.03.57c-.236-.128-.49-.14-.74-.14-.517 0-.853.376-.853.884 0 .536.38.86.912.86.238 0 .481-.062.68-.14zm.317-2.667h1.827v.516H10.56v.599h1.076v.516H10.56v1.099h-.728z" fill="#1574c4"/><path d="M2.823 1.412a1.412 1.412 0 1 1-2.824 0 1.412 1.412 0 0 1 2.824 0" fill="#7fcc28" mask="url(#a)" transform="translate(4 17.176)"/><path d="M5.35 19.999h.04c.028 0 .055 0 .083-.002l-.001-.007c.076-.524.296-1.128.933-1.17.518-.034-.316-.034-.316-.034-.265.02-.476.186-.595.516l-.003-.006c.092-.493.324-1.013.914-1.052.518-.034-.316-.035-.316-.035-.341.026-.59.293-.674.836l-.006-.002c-.084-.542-.334-.808-.674-.834 0 0-.834 0-.316.035.589.039.822.558.914 1.05l-.002.01c-.12-.331-.33-.498-.596-.518 0 0-.834 0-.316.034.639.042.858.649.934 1.174z" fill="#fff"/><path d="M5.412 18.575c-.033.022-.154-.347-.163-.392-.045-.239.145-.595.16-.57h.004c.017-.025.207.331.162.57-.01.045-.13.414-.163.392" fill="#fff"/><path d="M8.072 2.953H8.8V.223h-.728zM9.23.915h.642v.376h.007c.142-.293.423-.423.744-.423.555 0 .778.392.778.814v1.27h-.704v-.985c0-.383-.133-.512-.324-.512-.29 0-.44.2-.44.638v.86H9.23zm4.78 2.038h-.649V2.59h-.008c-.09.226-.376.41-.7.41-.606 0-.931-.501-.931-1.103 0-.501.309-1.029.872-1.029.282 0 .52.075.7.309h.008V.223h.708zm-1.134-.493c.235 0 .43-.223.43-.52 0-.309-.172-.532-.43-.532-.274 0-.427.235-.427.504 0 .325.161.548.427.548m3.671.493h-.642v-.375h-.007c-.141.293-.423.422-.744.422-.555 0-.778-.391-.778-.814V.915h.704v.986c0 .384.133.512.325.512.289 0 .438-.199.438-.637V.915h.704zm.398-.563c.164.07.407.14.661.14.145 0 .286-.023.286-.164 0-.344-1.001-.101-1.001-.837 0-.469.462-.661.868-.661.243 0 .49.027.716.118l-.054.488a1.161 1.161 0 0 0-.548-.136c-.153 0-.325.027-.325.14 0 .317 1.048.067 1.048.841 0 .544-.488.681-.95.681-.317 0-.532-.031-.74-.098zM18.76.915h.415V.457l.692-.214v.672h.493v.493h-.493v.75c0 .247.06.372.281.372.071 0 .145-.015.216-.027l.023.458c-.133.016-.266.039-.442.039-.63 0-.782-.277-.782-.763v-.83h-.403zm3.372.563c-.079-.023-.157-.023-.239-.023-.328 0-.512.238-.512.637v.861h-.704V.915h.642v.376h.007c.121-.259.297-.423.602-.423.082 0 .168.012.239.024zm.363-.791h.704V.223h-.704zm0 2.266h.704V.915h-.704zm1.744-.813c.039.28.254.39.598.39.192 0 .411-.042.622-.155v.495c-.226.09-.485.13-.747.13-.672 0-1.185-.395-1.185-1.069 0-.672.458-1.063 1.091-1.063.755 0 1.029.536 1.029 1.142v.13zm.774-.4c0-.235-.109-.426-.391-.426-.254 0-.375.191-.391.426zm.963.65c.164.07.407.14.66.14.146 0 .286-.023.286-.164 0-.344-1.001-.101-1.001-.837 0-.469.462-.661.868-.661.243 0 .489.027.716.118l-.054.488a1.161 1.161 0 0 0-.548-.136c-.153 0-.325.027-.325.14 0 .317 1.048.067 1.048.841 0 .544-.488.681-.95.681-.317 0-.532-.031-.74-.098zM27.361.377h-.109v-.06h.282v.06h-.109V.67h-.064zm.256-.06h.1l.092.239.091-.24h.1V.67h-.064V.4h-.002l-.099.27h-.053L27.683.4h-.002v.27h-.064z" mask="url(#b)" transform="translate(4 17)" fill="#7fcc28"/></g></svg>