<svg width="36" height="36" fill="none" xmlns="http://www.w3.org/2000/svg"><path d="M18 0c2.837 0 5.52.656 7.907 1.825C31.884 4.753 36 10.895 36 18c0 9.942-8.058 18-18 18-9.94 0-18-8.057-18-18C0 8.06 8.06 0 18 0z" fill="#F2F4F7"/><path d="M10.309 16.335c0-.777.338-1.107 1.21-1.107.872 0 1.21.33 1.21 1.107v.668h-.96v-.707c0-.141-.117-.212-.25-.212-.173 0-.252.07-.252.33v2.514c0 .26.079.33.252.33.133 0 .25-.07.25-.212v-.864h.96v.825c0 .777-.338 1.107-1.21 1.107-.873 0-1.21-.33-1.21-1.107v-2.672zm5.758 3.693v-4.706h1.234c.84 0 1.218.212 1.218.959v.557c0 .283-.118.637-.55.707v.016c.392.063.581.33.581.927v1.021c0 .362 0 .44.063.511h-.974a.534.534 0 0 1-.063-.188v-1.603c0-.157-.11-.236-.307-.236h-.243v2.035h-.959zm.959-2.883h.243c.205 0 .283-.063.283-.48 0-.384-.055-.479-.283-.479h-.243v.959zm4.376 2.883h-.629l-.141-.346c-.197.291-.362.432-.778.432-.558 0-.935-.33-.935-.927v-2.852c0-.777.338-1.107 1.21-1.107.927 0 1.265.33 1.265 1.107v.291h-.958v-.283c0-.18-.079-.259-.275-.259-.197 0-.275.07-.275.26v2.663c0 .18.078.259.275.259.196 0 .274-.07.274-.26v-1.013h-.282v-.856h1.241l.008 2.891zm.448-3.693c0-.88.392-1.107 1.241-1.107.848 0 1.241.228 1.241 1.107v2.672c0 .88-.393 1.107-1.241 1.107-.849 0-1.241-.22-1.241-1.107v-2.672zm.958 2.672c0 .18.079.259.275.259.197 0 .275-.07.275-.26v-2.663c0-.18-.079-.259-.275-.259s-.275.07-.275.26v2.663zm2.475-2.829h-.707v-.856h2.38v.856h-.707v3.842h-.966v-3.842zm1.957-.856h1.979v.856h-1.014v.959h.967v.856h-.966v1.17h1.013v.857h-1.98v-4.698zm2.34 1.013c0-.777.338-1.107 1.21-1.107.872 0 1.21.33 1.21 1.107v.668h-.958v-.707c0-.141-.118-.212-.252-.212-.173 0-.251.07-.251.33v2.514c0 .26.078.33.251.33.134 0 .252-.07.252-.212v-.864H32v.825c0 .777-.338 1.107-1.21 1.107-.872 0-1.21-.322-1.21-1.107v-2.672zm-15.202-1.107c-.848 0-1.241.22-1.241 1.1v3.692h.958v-2.003h.55v2.011h.982v-3.692c0-.888-.4-1.1-1.249-1.108zm.283 1.925h-.55v-.676c0-.33.079-.393.275-.393.197 0 .275.063.275.393v.676z" fill="#D52B1E"/><path d="M4 15v5.342h5.342V15H4zm3.818 3.873c-.055-.04-.11-.078-.157-.133-.338-.33-.581-.872-.62-1.493a3.279 3.279 0 0 1 0-.393.14.14 0 0 1 .14-.141c.064 0 .119.047.134.102.008.015.008.047.055.377.04.314.181.613.393.848a.83.83 0 0 0 .44.268 4.49 4.49 0 0 0-.385.565zm.354-1.273a.245.245 0 0 1-.244-.243c0-.134.11-.244.244-.244.133 0 .243.11.243.244a.24.24 0 0 1-.243.243zm.856-1.154c-.471.29-1.116.204-1.61-.205l-.158-.117c-.361-.3-.825-.456-1.139-.456a1.472 1.472 0 0 0 0 2.946c.189 0 .377-.032.55-.102v-.621s-.008 0-.008.008a.752.752 0 0 1-.573.228.72.72 0 0 1-.723-.723c0-.4.322-.723.723-.723.165 0 .33.055.463.157a.912.912 0 0 1 .244.432c.023.087.04.181.047.276.134.738.33 1.194.848 1.586-.133.283-.196.59-.188.896H4.322v-4.706h4.706v1.124z" fill="#000"/></svg>