<svg width="36" height="36" fill="none" xmlns="http://www.w3.org/2000/svg"><path d="M18 0c2.837 0 5.52.656 7.907 1.825C31.884 4.753 36 10.895 36 18c0 9.942-8.058 18-18 18-9.94 0-18-8.057-18-18C0 8.06 8.06 0 18 0z" fill="#F2F4F7"/><path d="M8.168 16.63v.726c-.488.263-1.051.4-1.69.4-.513 0-.963-.1-1.314-.313-.363-.212-.65-.5-.851-.863A2.315 2.315 0 0 1 4 15.39c0-.675.238-1.239.726-1.702.476-.463 1.076-.688 1.777-.688.489 0 1.027.125 1.628.388v.713c-.539-.312-1.077-.463-1.59-.463-.526 0-.976.163-1.327.501-.35.338-.526.751-.526 1.264s.176.926.514 1.252c.35.325.788.488 1.326.488.551 0 1.102-.175 1.64-.513zm.613-3.567h.601v1.99c.25-.313.563-.464.939-.464.2 0 .388.05.55.15.163.1.289.239.364.426.075.176.112.45.112.801v1.74h-.6v-1.89c0-.225-.05-.4-.163-.538a.524.524 0 0 0-.438-.2.764.764 0 0 0-.376.1c-.112.062-.25.188-.388.338v2.19h-.6v-4.643zm5.921 3.167h-2.153c.012.287.113.525.288.7.175.175.413.263.7.263.401 0 .764-.125 1.102-.375v.588a1.996 1.996 0 0 1-.55.263 2.49 2.49 0 0 1-.639.075c-.338 0-.613-.075-.813-.213a1.458 1.458 0 0 1-.501-.563 1.732 1.732 0 0 1-.188-.814c0-.463.138-.838.4-1.139.263-.288.601-.438 1.027-.438.4 0 .726.138.964.426s.363.663.363 1.139v.087zm-2.14-.364H14.1a.881.881 0 0 0-.213-.563.708.708 0 0 0-.513-.2c-.213 0-.4.062-.538.2s-.226.326-.276.563zm5.194-.388v2.216h-.613v-1.69c0-.338-.05-.576-.138-.714-.088-.137-.25-.2-.476-.2a.694.694 0 0 0-.35.088c-.1.062-.225.162-.363.3v2.216h-.589V14.64h.601v.4c.313-.313.614-.463.902-.463.388 0 .688.188.9.55.326-.375.664-.563 1.015-.563.3 0 .538.113.738.326.188.213.288.55.288.989v1.802h-.6v-1.79c0-.25-.05-.45-.151-.588-.1-.138-.25-.2-.45-.2-.264 0-.501.125-.714.375zm3.292-.838v.7l.037-.05c.288-.475.589-.713.877-.713.225 0 .463.113.713.35l-.313.526c-.213-.2-.4-.3-.588-.3-.2 0-.363.088-.5.275a1.07 1.07 0 0 0-.214.664v1.602h-.613V14.64h.6zm2.252-1.277c.101 0 .189.037.251.1.075.063.1.15.1.25a.35.35 0 0 1-.1.25.321.321 0 0 1-.25.1.354.354 0 0 1-.25-.112.322.322 0 0 1-.1-.25c0-.088.037-.176.1-.25a.432.432 0 0 1 .25-.088zM23 14.64h.601v3.054h-.6V14.64zm1.978 0v.388c.275-.3.576-.45.926-.45a1.035 1.035 0 0 1 .901.55c.088.175.126.438.126.813v1.753h-.601v-1.74c0-.313-.05-.538-.138-.663-.1-.138-.25-.2-.475-.2-.288 0-.526.137-.726.425v2.178h-.626V14.64h.613zm2.541 1.064c0-.326.125-.589.363-.777.238-.187.563-.287.976-.287h1.264v.475h-.625c.125.126.2.238.25.338.05.1.075.213.075.338 0 .163-.05.313-.138.476a.941.941 0 0 1-.35.35c-.138.088-.376.15-.701.2-.225.038-.338.113-.338.238 0 .076.038.126.125.176.088.05.238.087.463.137.376.088.614.15.726.188.113.05.2.113.288.2.15.15.226.326.226.551a.771.771 0 0 1-.389.689c-.262.175-.6.262-1.038.262-.439 0-.789-.087-1.04-.262-.262-.176-.387-.414-.387-.701 0-.414.25-.676.763-.802-.2-.125-.3-.262-.3-.387 0-.1.037-.188.125-.263a.837.837 0 0 1 .35-.176c-.463-.2-.688-.525-.688-.963zm.989 2.14c-.2 0-.376.037-.5.125-.126.088-.201.2-.201.338 0 .313.288.476.851.476.263 0 .476-.038.626-.113.15-.075.225-.188.225-.338 0-.138-.087-.263-.275-.35a1.705 1.705 0 0 0-.726-.138zm.15-2.679c-.163 0-.3.05-.413.163a.54.54 0 0 0-.175.4c0 .163.062.289.175.389.113.1.25.15.426.15.175 0 .313-.05.425-.163a.513.513 0 0 0 .175-.388.54.54 0 0 0-.175-.4.738.738 0 0 0-.438-.15z" fill="#00538A"/><path d="M32 13.025h-.613v9.262H32v-9.262z" fill="#7C9BB0"/><path d="M4.563 22.3h-.15v-2.166h.15V22.3zm.588-1.177c.138-.2.276-.275.476-.275.3 0 .526.2.526.588v.876h-.15v-.826c0-.325-.138-.488-.388-.488-.2 0-.338.1-.464.3V22.3h-.15v-1.427h.15v.25zm1.565 0c.138-.2.275-.275.476-.275.3 0 .525.2.525.588v.876h-.15v-.826c0-.325-.138-.488-.388-.488-.2 0-.338.1-.463.3V22.3h-.15v-1.427h.15v.25zm2.065 1.202a.714.714 0 0 1-.726-.739c0-.425.313-.738.726-.738s.726.313.726.738a.714.714 0 0 1-.726.739zm0-1.327c-.325 0-.563.25-.563.588 0 .338.238.588.563.588.326 0 .564-.25.564-.588 0-.338-.238-.588-.564-.588zm1.539 1.327h-.1l-.65-1.452h.15l.538 1.201.513-1.201h.15l-.6 1.451zm1.954-.138-.025.025c-.138.113-.2.125-.263.125-.075 0-.088-.037-.1-.175-.163.125-.3.175-.451.175-.213 0-.388-.162-.388-.363 0-.375.413-.5.838-.525v-.176c0-.187-.1-.288-.312-.288-.15 0-.263.05-.439.176v-.15a.78.78 0 0 1 .464-.15c.175 0 .45.075.45.375v.876c0 .063.013.075.038.075.037 0 .125-.063.2-.125v.125h-.012zm-.388-.613c-.376-.013-.676.15-.676.388 0 .137.125.238.287.238.138 0 .25-.05.401-.188v-.438h-.012zm.888-.701h.4v.125h-.4v.851c0 .25 0 .338.213.338.088 0 .138-.013.263-.075v.15a.637.637 0 0 1-.288.075c-.163 0-.326-.087-.326-.3V21.01h-.388v-.126h.388v-.338l.1-.137h.05v.463h-.012zm.851-.476h-.15v-.263h.15v.263zm0 1.903h-.15v-1.427h.15V22.3zm.576-1.177c.138-.2.275-.275.476-.275.3 0 .525.2.525.588v.876h-.15v-.826c0-.325-.137-.488-.388-.488-.2 0-.338.1-.463.3V22.3h-.15v-1.427h.15v.25zm2.529-.125h-.326c.138.125.2.237.2.375 0 .639-.813.426-.813.701 0 .313.939-.075.939.538 0 .263-.238.413-.639.413-.438 0-.626-.175-.626-.375 0-.175.15-.3.413-.35v-.013c-.15-.038-.237-.1-.237-.2 0-.125.112-.175.287-.238v.012c-.287-.087-.375-.3-.375-.475 0-.238.15-.513.6-.513h.577v.125zm-.601 1.377c-.176 0-.514.025-.514.262 0 .163.176.263.489.263.288 0 .488-.112.488-.275-.013-.2-.2-.25-.463-.25zm-.05-1.377a.369.369 0 0 0-.376.375.38.38 0 0 0 .376.388.377.377 0 0 0 .375-.375c0-.2-.163-.388-.375-.388zm2.052-.125h.4v.125h-.4v.851c0 .25 0 .338.213.338.088 0 .138-.013.263-.075v.15a.636.636 0 0 1-.288.075c-.163 0-.325-.087-.325-.3V21.01h-.388v-.126h.388v-.338l.1-.137h.05v.463h-.013zm1.339 1.452a.714.714 0 0 1-.725-.739c0-.425.313-.738.726-.738s.726.313.726.738a.714.714 0 0 1-.726.739zm0-1.327c-.325 0-.563.25-.563.588 0 .338.238.588.564.588.325 0 .563-.25.563-.588 0-.338-.238-.588-.563-.588zm2.09-.038c.164-.075.276-.112.427-.112.4 0 .7.313.7.738 0 .413-.313.751-.713.751a.835.835 0 0 1-.426-.113v.814h-.15v-2.165h.15v.087h.013zm0 1.114c.151.075.251.113.389.113.338 0 .576-.238.576-.588s-.25-.601-.589-.601a.768.768 0 0 0-.375.1v.976zm2.367-.914c-.138-.125-.2-.162-.288-.162-.138 0-.3.15-.463.413v.901h-.15v-1.44h.15v.376h.012c.163-.263.338-.4.5-.4.1 0 .189.05.326.162l-.087.15zm.826 1.165a.714.714 0 0 1-.726-.739c0-.425.313-.738.726-.738s.726.313.726.738a.714.714 0 0 1-.726.739zm0-1.327c-.326 0-.564.25-.564.588 0 .338.238.588.564.588.325 0 .563-.25.563-.588 0-.338-.238-.588-.563-.588zm1.339-.125h.4v.125h-.4v.851c0 .25 0 .338.213.338.087 0 .137-.013.263-.075v.15a.636.636 0 0 1-.288.075c-.163 0-.326-.087-.326-.3V21.01h-.388v-.126h.388v-.338l.1-.137h.05v.463h-.012zm.776.663c-.05.363.25.651.563.651.188 0 .35-.063.526-.213v.175a.864.864 0 0 1-.55.188c-.414 0-.714-.313-.714-.763 0-.426.275-.726.65-.726.301 0 .64.212.64.688h-1.115zm.939-.125c-.05-.276-.2-.413-.45-.413-.239 0-.426.15-.476.413h.926zm1.489-.326a.771.771 0 0 0-.375-.087c-.313 0-.538.238-.538.6 0 .364.212.589.55.589a1 1 0 0 0 .388-.088v.163c-.162.05-.263.075-.4.075-.426 0-.701-.288-.701-.726 0-.45.288-.763.688-.763.125 0 .226.025.376.075v.163h.012zm.601-.212h.4v.125h-.4v.851c0 .25 0 .338.213.338.088 0 .138-.013.263-.075v.15a.635.635 0 0 1-.288.075c-.163 0-.326-.087-.326-.3V21.01h-.387v-.126h.387v-.338l.1-.137h.05v.463h-.012z" fill="#00538A"/></svg>