<svg height="36" viewBox="0 0 36 36" width="36" xmlns="http://www.w3.org/2000/svg"><g fill="none" fill-rule="evenodd"><path d="M18 0c2.837 0 5.52.656 7.907 1.825C31.884 4.753 36 10.895 36 18c0 9.942-8.058 18-18 18-9.94 0-18-8.057-18-18C0 8.06 8.06 0 18 0z" fill="#f2f4f7" fill-rule="nonzero"/><path d="M4 20.061h28V14H4z" fill="#004380"/><path d="m15.936 20.078-2.054-2.059-2.027 2.06z" fill="#fefefe"/><path d="m11.862 20.078 2.054 2.036 2.022-2.036z" fill="#008d5b"/><path d="M8.229 18.113c-.185.046-.388.097-.715.097-.642 0-1.385-.327-1.385-1.237 0-.84.586-1.26 1.38-1.26.245 0 .485.055.716.125l-.051.52a1.289 1.289 0 0 0-.628-.165c-.457 0-.753.332-.753.78 0 .47.333.757.804.757.212 0 .424-.051.6-.12zm.297-2.353h.642v.922h.756v-.923h.646v2.414h-.646V17.14h-.756v1.034h-.642zm3.117.995h.17c.208 0 .471-.004.471-.277 0-.226-.226-.267-.47-.267h-.172v1.957h-.641v-2.414h1.15c.425 0 .775.193.775.609 0 .323-.152.535-.461.609v.005c.207.055.22.239.342.535l.235.656h-.67l-.138-.44c-.134-.41-.217-.516-.452-.516h-.14zm3.789-.995h.642v.922h.76v-.923h.643v2.414h-.642V17.14h-.761v1.034h-.642zm3.284 1.435h.605l-.29-.942h-.005l-.31.942-.152.457-.189.517h-.647l.91-2.414h.79l.927 2.414h-.706l-.176-.517h-.909zm1.901-1.435h.817l.817 1.638h.005l-.01-1.639h.587v2.414h-.794l-.845-1.648h-.009l.023 1.648h-.59zm2.69 1.81c.167.092.397.157.665.157.203 0 .397-.037.397-.231 0-.452-1.14-.166-1.14-1.043 0-.582.567-.743 1.052-.743.231 0 .457.037.62.092l-.043.498a1.242 1.242 0 0 0-.535-.11c-.162 0-.43.014-.43.22 0 .393 1.141.13 1.141 1.003 0 .623-.527.794-1.062.794-.227 0-.503-.037-.72-.107zm2.083-1.81h1.702v.456h-1.057v.5h.997v.456h-.997v.544h1.094v.457h-1.74zm2.146 0h.817l.817 1.638h.005l-.01-1.639h.586v2.414h-.798l-.84-1.648h-.01l.024 1.648h-.59z" fill="#fefefe"/></g></svg>