<svg width="36" height="36" fill="none" xmlns="http://www.w3.org/2000/svg"><path d="M18 0c2.837 0 5.52.656 7.907 1.825C31.884 4.753 36 10.895 36 18c0 9.942-8.058 18-18 18-9.94 0-18-8.057-18-18C0 8.06 8.06 0 18 0z" fill="#F2F4F7"/><path d="m5.896 16.416.554-.32v1.334l.127.073.126-.074v-1.333l.555.32.126-.219-.807-.466-.808.466.127.22zm-.329 2.929-.554-.32 1.154-.667v-.146l-.126-.073-1.155.666v-.64h-.253v.933l.807.466.127-.22z" fill="#27ADEA"/><path d="M6.577 15 4 16.488v2.975l2.577 1.488 2.576-1.488v-2.975L6.577 15zm-2.324 4.317v-2.683l2.324-1.342L8.9 16.634v2.683l-2.323 1.341-2.324-1.341z" fill="#27ADEA"/><path d="m7.586 16.606.555.32-1.564.903-1.564-.903.554-.32-.127-.219-.807.466v.932h.253v-.64l1.564.904v1.806l-.554-.32-.127.219.808.466.807-.466-.126-.22-.555.32v-1.806l1.564-.903v.64h.254v-.932l-.808-.466-.127.22z" fill="#27ADEA"/><path d="M8.267 18.165v.64l-1.154-.666-.127.073v.146l1.155.667-.554.32.126.219.808-.466v-.933h-.254zm.695 1.736h.048a.056.056 0 0 0 .015-.003.027.027 0 0 0 .012-.01.032.032 0 0 0 .004-.017.027.027 0 0 0-.004-.016.028.028 0 0 0-.01-.009.047.047 0 0 0-.013-.003l-.015-.001h-.037v.06zm-.028-.083h.07c.044 0 .065.018.065.053 0 .017-.004.03-.014.038a.065.065 0 0 1-.035.013l.054.083h-.03l-.051-.08h-.031v.08h-.028v-.187z" fill="#27ADEA"/><path d="M8.995 19.754a.158.158 0 1 0 0 .316.158.158 0 0 0 0-.316zm0 .347a.19.19 0 1 1 0-.38.19.19 0 0 1 0 .38z" fill="#27ADEA"/><path d="M13.45 18.733c-.09.12-.244.285-.437.285h-.43a.43.43 0 0 1-.212-.062 1.13 1.13 0 0 1-.25-.244.346.346 0 0 1-.056-.195v-1.082c0-.065.014-.13.055-.192.042-.059.179-.206.251-.248a.467.467 0 0 1 .213-.061h.43c.192 0 .346.168.435.284.028.038.042.066.072.12l-.35.1s-.103-.127-.154-.158c-.004-.003-.01-.003-.014-.003h-.405a.037.037 0 0 0-.014.003.54.54 0 0 0-.154.151c-.004.007-.004.031-.004.038v1.044c0 .041.106.13.158.158.003.004.02.004.024.004h.391c.004 0 .01 0 .018-.004.072-.034.154-.161.154-.161l.35.092a.626.626 0 0 1-.072.13m.389-.164h.422v.433h-.422v-.433zM15.73 19v-.847h-.749V19h-.36v-2.054h.36v.862h.749v-.862h.36V19h-.36zm.72-.432h.423v.433h-.422v-.433zm2.662-1.144s0-.017-.003-.023c-.021-.038-.076-.107-.11-.11h-.622v.556h.605c.03 0 .1-.065.127-.113 0 0 .003-.007.003-.014v-.296zm.299.509a1.168 1.168 0 0 1-.186.182.32.32 0 0 1-.089.048l.409.838h-.392l-.38-.81h-.396V19h-.36v-2.054h.965c.082 0 .175.028.243.076.048.034.155.144.186.189a.383.383 0 0 1 .062.209v.302a.377.377 0 0 1-.062.21m.827.578s0 .01.004.013a.546.546 0 0 0 .151.148c.007.003.014.003.017.003h.495s.01 0 .017-.003a.548.548 0 0 0 .15-.148c.004-.007.004-.014.004-.014v-1.06s0-.014-.003-.018a.568.568 0 0 0-.151-.15c-.007-.004-.014-.004-.017-.004h-.495s-.014 0-.017.003a.566.566 0 0 0-.151.151c-.004.007-.004.017-.004.017v1.061zm1.144.199a1.325 1.325 0 0 1-.25.247.44.44 0 0 1-.214.062h-.521a.43.43 0 0 1-.213-.062 1.223 1.223 0 0 1-.251-.247.346.346 0 0 1-.055-.196v-1.075a.35.35 0 0 1 .055-.196 1.22 1.22 0 0 1 .25-.247.43.43 0 0 1 .213-.062h.522a.44.44 0 0 1 .213.062c.072.041.206.19.251.247a.35.35 0 0 1 .055.196v1.075a.348.348 0 0 1-.055.196zm1.59-.189v-.244a.037.037 0 0 0-.004-.017c-.03-.055-.096-.117-.127-.117h-.6v.515h.604c.03 0 .1-.061.123-.113 0 0 .004-.01.004-.024zm0-.848v-.244a.058.058 0 0 0-.004-.017c-.03-.055-.096-.12-.127-.12h-.6v.518h.604c.03 0 .1-.062.123-.113 0 0 .004-.007.004-.024zm.302 1.068a1.17 1.17 0 0 1-.182.185.455.455 0 0 1-.247.076h-.965v-2.054h.965c.09 0 .178.031.247.08.048.034.151.14.182.185a.377.377 0 0 1 .058.212v.255c0 .144-.055.22-.133.298.078.08.133.151.133.296v.26a.369.369 0 0 1-.058.207m.546-1.793h.36v2.054h-.36v-2.054zM25.781 19l-.71-1.363v1.364h-.362v-2.054h.389l.704 1.38v-1.38h.36v2.054h-.381zm2.321-.291a1.145 1.145 0 0 1-.25.247.483.483 0 0 1-.213.062h-.598c-.202 0-.347-.165-.436-.285-.027-.038-.034-.055-.062-.107l.34-.113s.069.096.151.158c0 0 .007.003.024.003h.564c.013 0 .02-.003.02-.003.052-.028.155-.13.155-.158v-.203c0-.03-.024-.055-.041-.058l-.893-.254c-.175-.048-.268-.216-.268-.374v-.186a.36.36 0 0 1 .051-.196 1.16 1.16 0 0 1 .255-.247.47.47 0 0 1 .212-.062h.509c.206 0 .346.169.436.285a.652.652 0 0 1 .068.12l-.346.1s-.08-.113-.152-.158c0 0-.003-.003-.02-.003h-.484c-.014 0-.021.003-.021.003-.055.028-.148.124-.148.151v.172c0 .03.02.055.038.058l.897.261c.175.048.267.22.267.375v.216c0 .058-.01.134-.055.196m.804-.199s0 .01.003.013a.545.545 0 0 0 .151.148.045.045 0 0 0 .018.003h.494s.01 0 .017-.003a.548.548 0 0 0 .151-.148c.004-.007.004-.014.004-.014v-1.06s0-.014-.004-.018a.568.568 0 0 0-.15-.15c-.008-.004-.014-.004-.018-.004h-.494s-.014 0-.018.003a.566.566 0 0 0-.15.151c-.004.007-.004.017-.004.017v1.061zm1.143.199a1.325 1.325 0 0 1-.25.247.44.44 0 0 1-.213.062h-.522a.43.43 0 0 1-.213-.062 1.223 1.223 0 0 1-.25-.247.346.346 0 0 1-.056-.196v-1.075a.35.35 0 0 1 .055-.196c.041-.058.179-.206.251-.247a.43.43 0 0 1 .213-.062h.522a.44.44 0 0 1 .213.062c.072.041.206.19.25.247a.342.342 0 0 1 .055.196v1.075a.348.348 0 0 1-.055.196zm1.57.291-.71-1.363v1.364h-.362v-2.054h.389l.703 1.38v-1.38H32v2.054h-.381z" fill="#000"/></svg>