<svg height="36" viewBox="0 0 36 36" width="36" xmlns="http://www.w3.org/2000/svg"><mask id="a" fill="#fff"><path d="M0 0h10.487v8.642H0z" fill-rule="evenodd"/></mask><mask id="b" fill="#fff"><path d="M0 0h17.422v5.98H0z" fill-rule="evenodd"/></mask><g fill="none" fill-rule="evenodd"><path d="M18 0c2.837 0 5.52.656 7.907 1.825C31.884 4.753 36 10.895 36 18c0 9.942-8.058 18-18 18-9.94 0-18-8.057-18-18C0 8.06 8.06 0 18 0z" fill="#f2f4f7" fill-rule="nonzero"/><path d="M11.375 17.203c0 .076-.08.16-.184.29-.355.437-1.146 1.212-1.146 3.135 0 .994.163 1.408.163 1.875 0 .212-.04.321-.15.321-.252 0-.676-1.05-.676-2.309 0-2.638 1.663-3.372 1.92-3.372.051 0 .073.028.073.06m-4.192-.06c.256 0 1.92.734 1.92 3.372 0 1.26-.425 2.31-.675 2.31-.11 0-.152-.11-.152-.321 0-.468.164-.88.164-1.877 0-1.923-.792-2.698-1.147-3.135-.104-.13-.183-.214-.183-.29 0-.03.022-.059.073-.059" fill="#0982c6"/><path d="M8.636 17.672c0 .344.27.623.606.623a.616.616 0 0 0 .609-.623c0-.345-.272-.624-.608-.624s-.607.279-.607.624" fill="#f8971f"/><path d="M5.243 1.786c-.247-.115-.49-.329-.49-.772 0-.424.2-.832.49-1.014.29.183.49.59.49 1.014 0 .443-.242.657-.49.772m5.193 6.801c-.864-.53-2.18-1.083-4.084-1.258-.013.1-.02.199-.02.299 0 .063.01.146.013.163a14.53 14.53 0 0 1 4.082.837c.018.007.035.014.044.014.01 0 .016-.006.016-.014 0-.014-.016-.02-.051-.04M6.23 1.48a.568.568 0 0 1-.174-.636c.09-.292.315-.53.553-.595.162.188.213.512.122.804a.567.567 0 0 1-.501.427m1.403 1.167a.542.542 0 0 1 .188-.604c.224-.19.529-.267.755-.195.033.235-.092.522-.316.713a.543.543 0 0 1-.627.086m.044 1.762a.535.535 0 0 1 .485-.387c.286-.031.576.075.72.257-.102.209-.363.373-.648.404a.532.532 0 0 1-.557-.274m-.507.638a.473.473 0 0 1 .513-.202c.252.048.47.214.546.408-.142.15-.407.222-.658.174a.476.476 0 0 1-.401-.38M5.642 3.38a.681.681 0 0 1-.208-.763c.108-.351.378-.637.664-.714.193.226.254.613.146.964a.68.68 0 0 1-.602.513m.667.388a.614.614 0 0 1 .212-.68c.252-.213.595-.3.85-.22.037.265-.105.589-.357.802a.614.614 0 0 1-.705.098m.445-1.424a.695.695 0 0 1 .009-.808c.204-.312.547-.518.85-.514.126.274.078.672-.126.986a.693.693 0 0 1-.733.336m.9 1.236a.647.647 0 0 1 .412-.628c.317-.144.69-.132.926.023-.04.28-.277.567-.594.71a.644.644 0 0 1-.744-.105M0 8.628c0 .008.006.014.015.014.01 0 .027-.007.045-.014a14.513 14.513 0 0 1 4.08-.837c.004-.017.015-.1.015-.163a2.41 2.41 0 0 0-.02-.3c-1.906.177-3.221.73-4.085 1.26-.036.022-.051.027-.051.04m3.755-7.575c-.09-.292-.04-.615.12-.803.24.065.465.303.556.595a.568.568 0 0 1-.174.636.568.568 0 0 1-.502-.427M2.227 2.56c-.224-.191-.35-.478-.317-.713.227-.072.532.005.756.195a.545.545 0 0 1 .188.604.546.546 0 0 1-.627-.086m.026 2.122c-.286-.031-.547-.195-.65-.405.145-.182.435-.287.722-.256a.534.534 0 0 1 .484.387.532.532 0 0 1-.556.274m.663.743c-.251.049-.516-.023-.658-.174.075-.194.294-.36.545-.407a.475.475 0 0 1 .514.202.474.474 0 0 1-.401.379m1.327-2.559c-.11-.35-.048-.738.145-.964.287.077.556.363.664.714a.683.683 0 0 1-.207.763c-.234-.032-.49-.146-.602-.513m-.771.803c-.252-.213-.394-.537-.356-.8.255-.08.598.005.85.218a.613.613 0 0 1 .21.68.612.612 0 0 1-.704-.098m-.473-1.662c-.204-.314-.252-.71-.125-.986.303-.004.646.202.85.515a.696.696 0 0 1 .009.807.694.694 0 0 1-.734-.336m-.91 1.678c-.318-.144-.555-.43-.594-.71.235-.155.608-.168.925-.023a.645.645 0 0 1 .413.628.645.645 0 0 1-.744.105" fill="#56b948" mask="url(#a)" transform="translate(4 13)"/><path d="M17.301 4.467a.396.396 0 0 1-.291.12.392.392 0 0 1-.29-.12.402.402 0 0 1-.12-.292.4.4 0 0 1 .12-.29.401.401 0 0 1 .29-.12.396.396 0 0 1 .291.12c.081.08.121.177.121.29a.397.397 0 0 1-.121.292zm-.541-.541a.342.342 0 0 0-.103.25c0 .098.035.183.103.252a.34.34 0 0 0 .25.103.342.342 0 0 0 .251-.103c.068-.069.102-.154.102-.252s-.034-.182-.102-.25a.348.348 0 0 0-.251-.105.341.341 0 0 0-.25.105zm.242.022c.056 0 .097.006.123.016.047.021.07.058.07.114 0 .041-.015.072-.043.09a.172.172 0 0 1-.066.022.11.11 0 0 1 .078.045.12.12 0 0 1 .024.069v.033a.364.364 0 0 0 .005.057l.003.006h-.075l-.001-.005-.001-.005-.001-.015V4.34c0-.052-.015-.087-.043-.103a.198.198 0 0 0-.088-.015h-.063V4.4h-.08v-.452zm.086.072a.2.2 0 0 0-.097-.017h-.067v.162h.071a.223.223 0 0 0 .077-.009c.03-.012.046-.036.046-.071 0-.032-.01-.055-.03-.065zm-7.697.558V2.326c0-.301-.027-.88-.035-1.012h.699l.034.458h.014c.081-.128.343-.532.953-.532.738 0 1.147.542 1.147 1.217v2.122h-.778V2.611c0-.415-.23-.728-.627-.728-.409 0-.627.331-.627.728v1.967zm-5.329 0h.779V1.324h-.779zm11.883.001c-.025-.182-.098-.662-.098-1.075V1.388c-.122-.03-.564-.148-1.071-.148-1.321 0-1.887.885-1.887 1.842 0 .88.441 1.57 1.289 1.57.621 0 .898-.401 1.003-.615h.02c.008.102.036.447.045.542h.7zm-.877-1.615c0 .747-.292 1.058-.714 1.058-.427 0-.667-.362-.667-.996 0-.647.372-1.182 1.057-1.182.109-.002.218.01.324.034zm-11.784.818c-.212.1-.551.165-.879.165-.896 0-1.554-.64-1.554-1.615 0-.969.654-1.617 1.554-1.617.445 0 .763.109.879.165V.182C3.088.11 2.771.036 2.322.036.933.036 0 .997 0 2.332c0 1.262.859 2.294 2.322 2.294.429 0 .752-.067.962-.146zm4.488.407v.243c0 .665-.41.924-.919.924-.457 0-.794-.138-.901-.175v.659c.087.023.458.14.988.14.941 0 1.569-.389 1.569-1.72V1.388c-.12-.03-.562-.148-1.07-.148-1.32 0-1.888.885-1.888 1.842 0 .88.443 1.57 1.291 1.57.559 0 .828-.338.916-.463zm-.041-1.225c0 .747-.292 1.058-.715 1.058-.426 0-.664-.362-.664-.996 0-.647.37-1.182 1.055-1.182.142 0 .241.014.324.034zM3.969.473c0 .261.216.473.482.473.267 0 .482-.212.482-.473S4.718 0 4.451 0a.478.478 0 0 0-.482.473z" fill="#0982c6" mask="url(#b)" transform="translate(14.578 15.814)"/></g></svg>