<svg width="36" height="36" fill="none" xmlns="http://www.w3.org/2000/svg"><path d="M18 0c2.837 0 5.52.656 7.907 1.825C31.884 4.753 36 10.895 36 18c0 9.942-8.058 18-18 18-9.94 0-18-8.057-18-18C0 8.06 8.06 0 18 0z" fill="#F2F4F7"/><path d="M16.98 19.675c6.847-.703 11.537-.08 15.02.881.024.003-6.526-.955-14.712.066-7.804.945-13.301 3.387-13.287 3.334 2.259-1.574 6.145-3.331 12.98-4.28z" fill="#009E3D"/><path d="M28.796 18.274c-.332-.026-.532-.514-.543-1.474-.01-.988.23-1.513.546-1.513.245 0 .407.236.563.499l-.003 1.962c-.129.262-.28.518-.558.526h-.005zm.566.337v.26h.61v-5.66h-.61v1.73l-.003-.003c-.155-.17-.365-.344-.657-.339-.615.01-1.066.75-1.072 2.168-.005 1.333.377 2.19 1.072 2.195.299.003.524-.18.657-.354l.003.003zm-2.327.262V15.98c-.012-.512-.07-.791-.195-1.027a.649.649 0 0 0-.585-.357.833.833 0 0 0-.48.184c-.146.114-.202.152-.34.328l-.003.003v-.42h-.612l.003 4.182h.609l.005-2.942c.111-.194.183-.267.294-.394.114-.096.224-.193.35-.193.157 0 .209.092.258.199.055.138.079.34.079.659l.003 2.67h.614zm-5.337-.001v-.644h-1.58v-5.015h-.612l.003 5.659h2.19zm1.722-.889c-.107.188-.272.328-.407.331-.239.006-.318-.253-.309-.66.012-.523.315-.8.716-.928v1.257zm.696.889v-.14c-.07-.07-.081-.225-.081-.558V16.21c0-1.206-.289-1.606-.903-1.61-.645-.002-.907.614-.963 1.236l.62.083c.034-.343.123-.71.323-.705.224.006.297.28.305.84v.086c-1.017.243-1.337.83-1.34 1.638-.003.752.296 1.183.811 1.183.25 0 .471-.15.573-.288v.014a.577.577 0 0 0 .058.184h.597zm-5.943-.889c-.107.188-.272.328-.407.331-.239.006-.318-.253-.308-.66.011-.523.314-.8.715-.928v1.257zm.696.889v-.14c-.07-.07-.081-.225-.081-.558V16.21c0-1.206-.289-1.606-.903-1.61-.645-.002-.907.614-.962 1.236l.619.083c.034-.343.123-.71.323-.705.224.006.297.28.306.84v.086c-1.018.243-1.338.83-1.341 1.638-.003.752.296 1.183.812 1.183.248 0 .47-.15.572-.288v.014a.587.587 0 0 0 .058.184h.597zm-8.233-3.094c.098-.183.159-.287.258-.371.115-.095.183-.111.28-.114.143-.005.28.099.381.34.103.263.147.624.147 1.155 0 .622-.066.974-.156 1.184-.096.175-.204.297-.373.297-.124 0-.219-.067-.313-.154-.083-.105-.137-.144-.224-.33v-2.007zm-.613 4.857h.613v-1.992l.005.003c.065.076.099.116.201.185a.69.69 0 0 0 .396.132c.348.021.652-.23.812-.555.174-.351.279-.91.279-1.633 0-.748-.11-1.279-.276-1.612-.202-.405-.49-.564-.772-.564a.713.713 0 0 0-.419.126c-.115.084-.144.118-.228.212h-.003l.003-.246h-.61v5.944zm-1.281-2.652c-.107.188-.272.328-.407.331-.239.006-.318-.253-.309-.66.012-.523.315-.8.716-.928v1.257zm.696.889v-.14c-.07-.07-.082-.225-.082-.558V16.21c0-1.206-.288-1.606-.902-1.61-.645-.002-.907.614-.962 1.236l.619.083c.034-.343.123-.71.322-.705.225.006.298.28.306.84v.086c-1.017.243-1.337.83-1.34 1.638-.003.752.296 1.183.811 1.183.25 0 .471-.15.573-.288v.014a.574.574 0 0 0 .058.184h.597zm5.6-4.174h-.331v.642h.331v2.448c0 1.016.37 1.152.766 1.196.23.025.487-.173.627-.29l-.157-.643c-.115.146-.193.26-.345.26-.217 0-.283-.262-.283-.973V15.34h.618v-.642h-.618v-.901h-.608v.9zm-.603-.899c-.473-.055-.75.565-1.208 2.368-.445 1.74-.703 2.954-.772 3.936-.014.189.048.385.117.372.152-.029.292-.57.756-1.516 1.014-2.08 1.01-1.805 1.016-2.167.002-.103-.039-.164-.08-.156-.072-.003-.117.053-.941 1.566.202-1.326.714-3.316 1.112-4.403zM6.39 17.148c-.127.486-.326 1.166-.814 1.166-.496 0-.973-.526-.973-2.26 0-1.729.488-2.279.959-2.285.433-.006.64.44.767 1.045l.583-.135c-.197-1.072-.706-1.536-1.33-1.54-.441-.002-.837.254-1.107.707-.28.481-.475 1.261-.475 2.186 0 1.017.19 1.771.492 2.261.262.424.675.66 1.083.66.637 0 1.206-.682 1.398-1.637l-.583-.168z" fill="#004289"/><path d="M15.04 12.675a.675.675 0 1 1-1.349 0 .675.675 0 0 1 1.35 0z" fill="#E40521"/></svg>