<svg width="36" height="36" fill="none" xmlns="http://www.w3.org/2000/svg"><path d="M18 0c2.837 0 5.52.656 7.907 1.825C31.884 4.753 36 10.895 36 18c0 9.942-8.058 18-18 18-9.94 0-18-8.057-18-18C0 8.06 8.06 0 18 0z" fill="#F2F4F7"/><path fill-rule="evenodd" clip-rule="evenodd" d="M5.468 15.01c0 .007.001.013.003.014l.16.01c.18.01.302.039.544.125a2.32 2.32 0 0 1 .347.179.18.18 0 0 1 .056.036c.024.019.05.034.055.034.006 0 .023.014.039.03.015.016.032.029.038.029.006 0 .021.013.034.03.012.015.027.028.032.028.03 0 .386.376.386.408 0 .007.004.013.01.013a2.063 2.063 0 0 1 .201.293c.035.048.221.428.221.449a.54.54 0 0 0 .028.082c.015.038.043.116.061.172l.034.102h.792c.625 0 .791-.003.791-.015 0-.02-.055-.186-.095-.283a.615.615 0 0 1-.033-.095.32.32 0 0 0-.028-.07 12.564 12.564 0 0 0-.16-.317l-.04-.073a1.83 1.83 0 0 0-.082-.126.535.535 0 0 1-.053-.083c0-.005-.013-.02-.029-.036-.016-.015-.029-.032-.029-.037a.113.113 0 0 0-.026-.037 8.678 8.678 0 0 1-.102-.113 2.516 2.516 0 0 0-.287-.276.647.647 0 0 1-.074-.066c-.002-.005-.01-.008-.018-.008-.008 0-.025-.011-.037-.024a.374.374 0 0 0-.077-.055c-.031-.017-.057-.035-.057-.04 0-.005-.01-.01-.022-.01-.013 0-.026-.005-.03-.011-.034-.056-.467-.211-.674-.242-.15-.023-1.879-.038-1.879-.016zm-.152 1.159-.118.02c-.131.024-.459.186-.476.236-.002.006-.01.012-.018.012a1.408 1.408 0 0 0-.38.426c-.046.05-.194.371-.222.484l-.034.13c-.112.419-.084.949.07 1.36a1.877 1.877 0 0 0 .15.328c0 .005.013.025.028.045.015.02.03.043.032.05.016.047.263.331.287.331.007 0 .021.013.032.03.01.015.026.028.035.028.01 0 .018.005.02.01.014.034.215.15.343.197a1.265 1.265 0 0 0 .88-.02c.034 0 .294-.155.294-.175 0-.007.008-.012.018-.012.029 0 .021-.01-.086-.115a1.768 1.768 0 0 1-.154-.17.735.735 0 0 0-.06-.078.663.663 0 0 1-.086-.139 2.557 2.557 0 0 0-.04-.07 2.652 2.652 0 0 1-.14-.335.802.802 0 0 0-.029-.107c-.124-.397-.097-.988.065-1.392.054-.133.106-.25.115-.257a.396.396 0 0 0 .04-.064c.068-.128.15-.235.284-.366l.11-.108-.03-.024c-.261-.206-.638-.31-.93-.255zm2.367 2.975a5.328 5.328 0 0 1-.101.283.56.56 0 0 1-.037.076.149.149 0 0 0-.02.05.207.207 0 0 1-.03.061.239.239 0 0 0-.029.057 1.84 1.84 0 0 1-.163.288.169.169 0 0 0-.025.035.72.72 0 0 1-.116.16c0 .025-.357.407-.38.407a.243.243 0 0 0-.05.035l-.06.05a1.021 1.021 0 0 1-.18.119c-.045.045-.373.19-.486.216a3.1 3.1 0 0 0-.135.035 1.021 1.021 0 0 1-.248.032.597.597 0 0 0-.155.016c0 .006.37.01.862.01.937 0 1.046-.005 1.223-.063a.797.797 0 0 1 .107-.03.328.328 0 0 0 .077-.029 2.094 2.094 0 0 0 .499-.269 2.701 2.701 0 0 0 .455-.438l.088-.105a3.472 3.472 0 0 0 .236-.374c.009-.016.035-.068.058-.117l.07-.146a.335.335 0 0 0 .029-.073c0-.007.015-.048.035-.09a.49.49 0 0 0 .035-.092c0-.009.013-.052.029-.096a.636.636 0 0 0 .03-.096c0-.011-.165-.014-.792-.014h-.792l-.034.102z" fill="#F48C04"/><path fill-rule="evenodd" clip-rule="evenodd" d="M28.52 16.909c-.067.036-.067.177 0 .212.092.047.185-.004.185-.102 0-.104-.095-.16-.186-.11zm-16.293.088a1.31 1.31 0 0 0-.455.16 1.886 1.886 0 0 0-.277.275c-.213.39-.237.728-.077 1.09.249.562.98.754 1.568.411a.348.348 0 0 0 .05-.037 1.576 1.576 0 0 0 .185-.193 1.44 1.44 0 0 0 .114-.242l.007-.038h-.497l-.015.04c-.008.023-.02.041-.026.041-.006 0-.015.01-.02.02-.034.095-.247.192-.417.192-.743 0-.831-1.204-.097-1.323.235-.038.483.072.561.25l.014.032h.497l-.008-.038a.843.843 0 0 0-.17-.299c-.01-.008-.02-.022-.02-.032 0-.009-.004-.017-.009-.017a.357.357 0 0 1-.067-.052.9.9 0 0 0-.269-.163c-.13-.063-.41-.1-.572-.077zm1.372 1.058v1.034h.433V17.02h-.433v1.034zm.795 0v1.034h1.203v-.351h-.771v-.526h.689v-.35h-.689v-.491h.771v-.35h-1.203v1.034zm2.799-.961c-.009.02-.03.077-.048.125a17.542 17.542 0 0 1-.177.47.425.425 0 0 0-.027.08.502.502 0 0 1-.035.089.466.466 0 0 0-.035.092c0 .01-.013.044-.03.078a.344.344 0 0 0-.029.075.407.407 0 0 1-.029.081.396.396 0 0 0-.03.082.335.335 0 0 1-.028.077.352.352 0 0 0-.03.075c0 .007-.015.05-.033.094-.019.044-.048.12-.066.168a5.35 5.35 0 0 1-.06.155.516.516 0 0 0-.027.08.43.43 0 0 1-.03.075c-.044.097-.043.099.059.099.08 0 .087-.002.087-.025 0-.013.016-.058.035-.1a.48.48 0 0 0 .035-.09.39.39 0 0 1 .03-.082.408.408 0 0 0 .029-.082c0-.008.007-.03.017-.049a.875.875 0 0 0 .028-.066l.013-.032h.964l.025.073c.046.135.075.213.092.25.01.02.017.044.017.052s.014.046.032.083l.03.068h.08c.087 0 .093-.006.063-.059a.132.132 0 0 1-.017-.05.32.32 0 0 0-.03-.08.343.343 0 0 1-.03-.076.542.542 0 0 0-.033-.095 4.053 4.053 0 0 1-.065-.166 8.103 8.103 0 0 0-.11-.292.968.968 0 0 1-.036-.1.83.83 0 0 0-.04-.102.397.397 0 0 1-.03-.084.357.357 0 0 0-.03-.078.355.355 0 0 1-.029-.08.158.158 0 0 0-.018-.052.942.942 0 0 1-.04-.1 6.699 6.699 0 0 0-.051-.14 12.52 12.52 0 0 1-.054-.146 1.413 1.413 0 0 0-.071-.172.093.093 0 0 1-.011-.037.314.314 0 0 0-.024-.07l-.024-.054h-.081c-.081 0-.082 0-.098.038zm2.996.172v.199h-.246v.14h.245l.003.604.003.605.029.068c.064.155.175.207.442.207h.155v-.14h-.132c-.205 0-.264-.024-.322-.123-.018-.032-.02-.092-.023-.628l-.004-.593h.48v-.14h-.479v-.397h-.151v.198zm7.442 0v.199h-.246v.14h.245l.003.622.003.622.029.059c.063.13.149.17.395.177l.178.006v-.143h-.126c-.336-.002-.333.007-.338-.762l-.005-.581h.469v-.14h-.467v-.397h-.14v.198zm-10.298.114c.016.034.028.07.028.08 0 .01.013.045.028.078.015.034.03.076.035.093.004.018.02.06.036.094.015.034.03.072.034.084.003.013.022.068.043.123l.06.164c.012.035.03.08.039.099.008.02.02.05.024.07.005.02.02.062.036.096a.577.577 0 0 1 .027.067c0 .003-.194.006-.431.006h-.432l.016-.05c.032-.095.065-.184.094-.249a.374.374 0 0 0 .03-.085.05.05 0 0 1 .01-.03.43.43 0 0 0 .036-.088 1.36 1.36 0 0 1 .047-.125.26.26 0 0 0 .023-.066c0-.01.013-.045.029-.08a.363.363 0 0 0 .03-.078.44.44 0 0 1 .034-.09.48.48 0 0 0 .035-.092c0-.033.052-.13.056-.106a.55.55 0 0 0 .033.085zm6.05.078a.456.456 0 0 0-.127.04.2.2 0 0 1-.057.025c-.022 0-.138.116-.18.18l-.038.058v-.296h-.152v1.624h.151l.004-.529.003-.529.036-.093c.094-.248.242-.351.501-.35.249.001.381.095.462.326.029.082.029.083.032.628l.003.547h.151v-.492c0-.407.004-.507.019-.576.022-.1.084-.239.113-.254.011-.006.02-.019.02-.028 0-.01.013-.023.03-.029.016-.006.029-.016.029-.023a.29.29 0 0 1 .084-.055.617.617 0 0 1 .459-.01c.067.034.193.143.193.168 0 .007.01.031.024.054.05.085.058.176.058.728v.517h.165l-.005-.552-.005-.552-.03-.104c-.098-.33-.382-.49-.75-.424-.146.026-.369.17-.369.236 0 .01-.004.017-.009.017-.012 0-.045.067-.055.111l-.008.035-.028-.058a.402.402 0 0 1-.028-.067c0-.014-.034-.055-.106-.127-.135-.137-.341-.188-.59-.146zm-1.822.006a.797.797 0 0 0-.311.114c-.068.042-.22.192-.22.217 0 .007-.008.021-.018.032a.972.972 0 0 0-.094.245c-.046.185.008.571.094.666.01.01.018.026.018.033 0 .019.186.205.222.223a.8.8 0 0 1 .058.03c.203.114.56.113.777-.002a8.7 8.7 0 0 1 .065-.034c.054-.028.221-.2.221-.228 0-.005.012-.029.026-.053.096-.163.125-.51.058-.712-.13-.394-.443-.58-.896-.53zm4.761 0a.767.767 0 0 0-.291.105.142.142 0 0 1-.044.024c-.013 0-.19.186-.19.2a.338.338 0 0 1-.033.066c-.067.114-.09.223-.09.423 0 .217.019.298.109.462.021.04.128.17.15.184a.242.242 0 0 1 .032.028c.062.061.248.132.383.145a.892.892 0 0 0 .574-.113c.05-.028.218-.203.218-.228 0-.012.004-.022.009-.022.013 0 .042-.064.077-.17.067-.201.032-.601-.063-.732a.131.131 0 0 1-.023-.042.977.977 0 0 0-.188-.195.258.258 0 0 1-.05-.036.666.666 0 0 0-.194-.08 1.431 1.431 0 0 0-.386-.018zm4.778 0a.602.602 0 0 0-.144.035.363.363 0 0 1-.068.024.256.256 0 0 0-.064.035.354.354 0 0 1-.059.035.12.12 0 0 0-.033.026 1.166 1.166 0 0 1-.042.04c-.033.029-.069.072-.069.083 0 .007-.008.019-.017.027-.043.035-.108.203-.128.332-.062.378.083.765.334.895a.187.187 0 0 1 .05.034c.005.006.02.012.034.012.015 0 .031.005.038.01.09.084.67.058.729-.033a.17.17 0 0 1 .043-.028c.118-.06.284-.314.284-.435a.256.256 0 0 0-.077-.002l-.077.003-.031.078a.439.439 0 0 1-.057.106.112.112 0 0 0-.026.036.47.47 0 0 1-.106.095.697.697 0 0 1-.17.078.644.644 0 0 1-.705-.224.715.715 0 0 1-.117-.324v-.061H32v-.126a.85.85 0 0 0-.094-.416c0-.024-.15-.18-.214-.222-.153-.101-.35-.139-.592-.113zM18.331 18c0 .647.003.664.085.832.013.026.12.14.163.172.181.14.643.14.791.002a.481.481 0 0 0 .129-.119.27.27 0 0 1 .03-.05l.029-.043v.296h.151v-1.624h-.15l-.004.523-.004.522-.032.094a.651.651 0 0 1-.078.164c0 .006-.082.087-.122.12-.204.167-.6.104-.748-.12-.092-.137-.1-.202-.1-.796v-.507h-.14V18zm10.176.278v.812h.152v-1.624h-.152v.812zm.397-.782a.33.33 0 0 0 .035.1.35.35 0 0 1 .035.085.22.22 0 0 0 .03.067.258.258 0 0 1 .028.068c0 .01.014.044.03.076a.331.331 0 0 1 .028.074c0 .008.014.039.03.067.016.03.03.06.03.067 0 .008.015.046.034.084.02.039.035.077.035.085 0 .008.013.042.028.076a6.02 6.02 0 0 1 .117.273.67.67 0 0 1 .03.079c0 .004.014.034.03.068a.39.39 0 0 1 .029.07c0 .005.016.043.035.085.02.042.035.081.035.086 0 .057.037.084.115.084h.078l.026-.06a.46.46 0 0 0 .026-.068c0-.004.014-.035.03-.069a.385.385 0 0 0 .029-.072.42.42 0 0 1 .03-.076l.058-.129a.446.446 0 0 0 .029-.076c0-.006.013-.039.029-.072a.432.432 0 0 0 .03-.07c0-.005.015-.043.034-.083a.452.452 0 0 0 .035-.087.3.3 0 0 1 .03-.068.296.296 0 0 0 .029-.068c0-.007.013-.04.029-.071a.346.346 0 0 0 .029-.073.39.39 0 0 1 .028-.076 12.302 12.302 0 0 0 .131-.298c.046-.101.042-.108-.053-.108h-.082l-.016.056a.756.756 0 0 1-.042.105.263.263 0 0 0-.024.06.42.42 0 0 1-.03.076.555.555 0 0 0-.029.071.226.226 0 0 1-.017.045c-.032.07-.09.212-.107.264a.548.548 0 0 1-.04.09.169.169 0 0 0-.023.057c0 .01-.013.044-.029.075a.328.328 0 0 0-.03.07.408.408 0 0 1-.028.077.496.496 0 0 0-.03.074.59.59 0 0 1-.035.081.553.553 0 0 0-.035.082.46.46 0 0 1-.056.123c-.01.006-.06-.087-.06-.11a.447.447 0 0 0-.03-.074.42.42 0 0 1-.029-.076.515.515 0 0 0-.034-.086 1.865 1.865 0 0 1-.094-.227.392.392 0 0 0-.03-.072.389.389 0 0 1-.029-.072.435.435 0 0 0-.029-.075.542.542 0 0 1-.03-.072.448.448 0 0 0-.028-.068 1.568 1.568 0 0 1-.048-.112 2.967 2.967 0 0 0-.081-.205 1.292 1.292 0 0 1-.04-.099l-.018-.052-.08-.004c-.078-.003-.078-.003-.078.028zm-6.987.131a.28.28 0 0 0 .066.026c.033 0 .203.133.203.159 0 .007.007.016.015.019a.392.392 0 0 1 .063.098c.046.088.05.105.08.314a1.31 1.31 0 0 1-.027.263c-.067.387-.62.6-.966.373-.341-.224-.4-.787-.113-1.096a.467.467 0 0 1 .076-.072.174.174 0 0 0 .046-.027.251.251 0 0 1 .061-.035 1.44 1.44 0 0 0 .088-.03.764.764 0 0 1 .408.008zm4.729-.014c.056.02.15.062.2.09.278.164.359.776.133 1.02a.115.115 0 0 0-.026.038.26.26 0 0 1-.054.054c-.333.284-.839.179-1.011-.21-.154-.35.01-.87.3-.955l.087-.03a.776.776 0 0 1 .37-.007zm4.81.01a.574.574 0 0 0 .081.03c.006 0 .028.013.05.029.02.016.04.029.044.029a.34.34 0 0 1 .092.097c.004.01.012.02.018.02.026 0 .093.193.1.289l.009.096h-1.23v-.056c0-.167.15-.412.294-.483a.536.536 0 0 1 .331-.078c.124-.001.149.002.21.028z" fill="#1C242C"/></svg>