<svg height="36" viewBox="0 0 36 36" width="36" xmlns="http://www.w3.org/2000/svg"><mask id="a" fill="#fff"><path d="M0 0h1.282v1.167H0z" fill-rule="evenodd"/></mask><mask id="b" fill="#fff"><path d="M0 0h5.07v3.617H0z" fill-rule="evenodd"/></mask><g fill="none" fill-rule="evenodd"><path d="M18 0c2.837 0 5.52.656 7.907 1.825C31.884 4.753 36 10.895 36 18c0 9.942-8.058 18-18 18-9.94 0-18-8.057-18-18C0 8.06 8.06 0 18 0z" fill="#f2f4f7" fill-rule="nonzero"/><g fill="#1d1d1b"><path d="M20.793 17.247c-.041.08-.154.131-.244.131h-.126l.079-.347h.098c.089 0 .209.028.209.135zm.413-.166c0-.226-.366-.243-.523-.243h-.48l-.326 1.166h.357l.103-.41c.362 0 .869-.035.869-.513zm-2.049.591h.488l.067-.244h-.492zm5.543-.096-.043-.738h-.511l-.275 1.167h.287l.212-.835.043.835h.338l.456-.835-.19.835h.32l.275-1.167h-.52zm-3-.156.236-.323.047.324zm.075-.582c-.302.38-.57.784-.869 1.166h.425l.224-.332h.452l.051.332h.416c-.024-.025-.224-1.057-.235-1.166zm1.565 0h-.393l-.275 1.167h.955l.063-.251h-.562zm-8.83.486-.055.251h.15l-.044.178c-.024.023-.124.03-.157.03-.158 0-.303-.049-.303-.23 0-.3.267-.468.547-.468.138 0 .25.041.381.065l.043-.282c-.149-.007-.294-.054-.448-.054-.452 0-.904.287-.904.77 0 .277.221.45.495.45h.197c.157 0 .324-.029.48-.049l.15-.66zm-3.781-.239c.102 0 .19.035.287.042l.03-.27c-.103-.013-.213-.043-.317-.043-.45 0-.892.28-.892.758 0 .283.246.463.522.463h.138c.088 0 .2-.016.287-.031l.094-.282a1.317 1.317 0 0 1-.287.042h-.137c-.137 0-.232-.117-.232-.243 0-.269.25-.436.507-.436m7.111.919h1.01l.052-.25h-.614l.052-.21h.522l.05-.25h-.518l.05-.209h.619l.063-.248h-1.007zm.07-1.166h-1.166l-.051.247h.38l-.211.92h.38l.22-.92h.382zm-5.774.532c0 .009-.018.065-.021.077-.041.143-.098.232-.245.289a.331.331 0 0 1-.111.029h-.11c-.135 0-.232-.12-.232-.244 0-.244.203-.436.448-.436.109 0 .17.039.236.12.014.017.017.042.035.085zm-.204-.555c-.452 0-.904.293-.904.773 0 .28.274.447.538.447h.153c.34 0 .65-.21.763-.521.018-.05.048-.113.048-.166v-.131c0-.283-.361-.402-.598-.402zm3.876.605.224-.323.063.324zm.53-.582h-.467c-.268.395-.567.789-.861 1.166h.424l.225-.332h.456l.055.332h.409c-.005-.041-.031-.123-.04-.163-.047-.215-.19-.814-.2-1.003zm-3.086 0h-.377l-.276 1.167h.94l.063-.251h-.558zm15.198 1.166h.381l.275-1.167h-.38zm1.93-1.166-.573.873-.106-.873h-.402c.013.3.14.598.17.896l.03.27h.456c.286-.382.54-.792.838-1.166zm-2.484 0h-.38l-.277 1.167h.956l.051-.251h-.562z"/><path d="M0 1.167h1.006l.063-.251H.444L.496.707h.522l.051-.251H.55L.602.248h.617L1.282 0H.275z" mask="url(#a)" transform="translate(30.718 16.837)"/><path d="M26.406 17.764H26.3c-.098 0-.228-.099-.228-.2v-.085c0-.123.14-.31.25-.36a.51.51 0 0 1 .19-.034c.1 0 .197.04.268.178-.004.023.007.055.007.081 0 .193-.168.42-.381.42m.173-.95c-.427 0-.896.284-.896.746 0 .296.242.475.535.475h.153c.354 0 .806-.309.806-.688v-.13c0-.289-.357-.403-.598-.403"/></g><path d="M5.07 1.355S5.002.018 3.475 0h-.487l-.254 1.132.797.004c.315.002.375.261.375.261s.018.272-.284.303l-1.018.001-.442 1.915 1.078.001.179-.764h.087C5.089 2.821 5.07 1.355 5.07 1.355m-5.07 0S.037.018 1.565 0H2.71l-.257 1.132-.945.004c-.315.002-.376.261-.376.261s-.018.272.284.303l.908.001-.261 1.151-.53.001C-.05 2.821 0 1.355 0 1.355" fill="#0071bb" mask="url(#b)" transform="translate(4 16)"/></g></svg>