<svg width="36" height="36" fill="none" xmlns="http://www.w3.org/2000/svg"><path d="M18 0c2.837 0 5.52.656 7.907 1.825C31.884 4.753 36 10.895 36 18c0 9.942-8.058 18-18 18-9.94 0-18-8.057-18-18C0 8.06 8.06 0 18 0z" fill="#F2F4F7"/><path d="M6 14.782c0-.411.063-.784.19-1.119.117-.32.299-.61.535-.855.236-.239.52-.425.834-.545a2.936 2.936 0 0 1 1.08-.19c.272-.004.544.027.81.09.221.051.432.138.625.258.162.1.297.237.396.4.093.158.14.34.138.523a1.16 1.16 0 0 1-.07.425 1.066 1.066 0 0 1-.179.31.684.684 0 0 1-.5.248.385.385 0 0 1-.18-.034c-.042-.023-.087-.077-.135-.166-.156-.293-.316-.51-.479-.65a.818.818 0 0 0-.793-.17.733.733 0 0 0-.408.333 1.383 1.383 0 0 0-.143.359 2.06 2.06 0 0 0-.057.52c0 .48.109.85.327 1.112.218.263.555.393 1.012.393.197 0 .393-.025.584-.074.179-.044.35-.113.511-.204a.54.54 0 0 1 .248-.075c.034 0 .067.006.099.017a.273.273 0 0 1 .184.19.68.68 0 0 1 .03.218 1.107 1.107 0 0 1-.374.808c-.162.15-.379.28-.65.388-.27.107-.614.161-1.031.161A3.364 3.364 0 0 1 7.56 17.3a2.105 2.105 0 0 1-.823-.488 2.29 2.29 0 0 1-.54-.832c-.13-.333-.195-.732-.197-1.197zm5.162-2.569c0-.1.058-.158.174-.175a3.677 3.677 0 0 1 .506-.038h.285c.267 0 .444.033.532.1.088.067.131.19.131.372v4.357c0 .07.002.135.005.193.003.058.004.107.004.147 0 .1-.058.157-.174.175a4.041 4.041 0 0 1-.506.034h-.285a2.12 2.12 0 0 1-.332-.021.452.452 0 0 1-.206-.08.278.278 0 0 1-.1-.148.845.845 0 0 1-.026-.223v-4.357a3.66 3.66 0 0 0-.004-.191 3.363 3.363 0 0 1-.004-.145zm2.216 3.209c0-.334.057-.63.171-.89.107-.25.265-.472.465-.654.204-.18.443-.316.703-.399.284-.091.58-.137.88-.135.27-.002.54.04.798.127.238.08.456.208.641.377.188.177.333.395.423.636.102.257.152.556.152.896 0 .34-.059.641-.177.904-.11.251-.274.475-.48.655-.2.168-.43.294-.68.373a2.677 2.677 0 0 1-.83.125 2.603 2.603 0 0 1-.816-.125 1.796 1.796 0 0 1-.656-.375 1.753 1.753 0 0 1-.435-.628 2.267 2.267 0 0 1-.159-.887zm1.664-.398a2.484 2.484 0 0 0 .038.471c.045.283.11.506.192.668.084.162.194.244.333.244h.058a.176.176 0 0 0 .056-.008.287.287 0 0 0 .209-.191 1.15 1.15 0 0 0 .062-.412 2.07 2.07 0 0 0-.015-.222l-.032-.274a2.212 2.212 0 0 0-.171-.637c-.075-.153-.185-.23-.329-.23a.63.63 0 0 0-.057.005.318.318 0 0 0-.082.021c-.175.068-.262.256-.262.565zm2.812-1.429c0-.082.055-.131.166-.148.066-.012.133-.019.2-.022.068-.003.157-.004.268-.004h.182a7.56 7.56 0 0 1 .464.017c.09.007.178.034.257.079.067.04.111.117.134.227.07.372.145.743.223 1.115.078.371.157.714.236 1.03h.056c.087-.315.17-.659.246-1.03l.238-1.182c.018-.083.043-.139.075-.168a.284.284 0 0 1 .147-.062 6.462 6.462 0 0 1 .566-.026h.128a7.823 7.823 0 0 1 .447.017c.1.012.169.038.208.079.04.04.06.103.06.185-.004.091-.02.181-.047.268l-.115.421-.183.566c-.07.21-.15.43-.238.661-.088.231-.182.47-.283.717-.1.247-.206.49-.317.728a.458.458 0 0 1-.306.255 3.257 3.257 0 0 1-.23.038c-.094.014-.19.021-.285.021h-.11a3.73 3.73 0 0 1-.25-.008 2.174 2.174 0 0 1-.223-.026c-.192-.028-.335-.09-.427-.187a1.656 1.656 0 0 1-.279-.467 11.77 11.77 0 0 1-.234-.596l-.238-.672-.23-.685-.195-.634a4.882 4.882 0 0 1-.081-.307.994.994 0 0 1-.03-.2zm4.573 1.839c0-.325.047-.617.14-.877a1.81 1.81 0 0 1 .407-.657c.18-.182.4-.323.64-.413.25-.095.53-.143.842-.143.549 0 .98.152 1.296.454.315.302.474.743.474 1.325v.115c0 .043-.003.086-.008.128-.006.083-.024.14-.055.17-.031.032-.083.05-.154.056-.111.006-.24.01-.388.013a493.524 493.524 0 0 1-.74.012c-.088 0-.178 0-.268-.004a30.62 30.62 0 0 0-.532-.004.786.786 0 0 0 .433.463c.206.09.469.136.789.136.142 0 .283-.009.424-.026.102-.014.205-.022.308-.026.116 0 .174.066.174.197a.66.66 0 0 1-.07.296.981.981 0 0 1-.154.234c-.163.172-.36.309-.579.4-.235.103-.548.154-.94.154a2.532 2.532 0 0 1-.81-.125 1.685 1.685 0 0 1-1.076-1.002 2.336 2.336 0 0 1-.153-.876zm1.553-.518h.485c.173 0 .339-.004.498-.01a1.131 1.131 0 0 0-.15-.444c-.099-.163-.23-.244-.39-.244a.479.479 0 0 0-.103.009.352.352 0 0 0-.27.24 1.324 1.324 0 0 0-.07.448zm2.778-1.284c0-.1.058-.16.175-.176a3.997 3.997 0 0 1 .502-.034h.246c.222 0 .367.023.437.07.07.048.116.136.139.265l.034.203h.017c.133-.223.276-.381.427-.476a.928.928 0 0 1 .496-.14.564.564 0 0 1 .406.168c.115.112.172.312.172.598 0 .083-.004.166-.014.248-.01.079-.026.156-.05.232-.022.077-.052.128-.09.15a.256.256 0 0 1-.135.035.604.604 0 0 1-.149-.021 2.286 2.286 0 0 0-.244-.026 2.466 2.466 0 0 0-.738.047v2.059c0 .07.001.134.004.192.002.058.004.106.004.146 0 .098-.058.156-.174.173a3.908 3.908 0 0 1-.506.034h-.29a2.135 2.135 0 0 1-.33-.02.451.451 0 0 1-.206-.078.276.276 0 0 1-.1-.148.833.833 0 0 1-.026-.222v-2.934c0-.072-.002-.137-.004-.196a3.267 3.267 0 0 1-.003-.149zm-20.681 6.24a.252.252 0 0 1 .053-.163c.036-.045.09-.07.164-.075a9.653 9.653 0 0 1 .583-.017h.294c.062 0 .125.002.187.008.144.012.246.05.304.113.058.064.087.18.087.351v1.566h.562c.19 0 .381.002.574.008v-1.23c0-.184-.004-.37-.013-.561a.251.251 0 0 1 .053-.163c.036-.045.092-.07.169-.075a9.34 9.34 0 0 1 .582-.017h.29c.063 0 .127.002.19.008.145.012.247.05.305.113.058.064.088.18.088.351v3.927c0 .193.003.386.009.578a.243.243 0 0 1-.054.162c-.035.043-.09.067-.163.072a8.407 8.407 0 0 1-.587.018h-.29a1.95 1.95 0 0 1-.187-.009c-.145-.011-.246-.053-.304-.126-.058-.072-.087-.193-.087-.364v-1.4c-.187-.005-.378-.01-.57-.012H7.75v1.098c0 .184.003.371.008.561a.25.25 0 0 1-.051.162c-.034.043-.09.067-.166.072a8.462 8.462 0 0 1-.582.018h-.294a1.75 1.75 0 0 1-.187-.009c-.145-.011-.247-.049-.305-.113-.057-.064-.087-.18-.087-.35v-3.94c0-.182-.003-.37-.009-.562zm5.076 3.03c0-.325.047-.618.14-.877.087-.246.225-.47.407-.657.18-.183.4-.323.64-.413.25-.095.53-.142.842-.142.548 0 .98.15 1.296.453.316.302.474.744.474 1.325v.115c0 .043-.003.086-.008.128-.006.082-.024.14-.056.17-.03.032-.082.05-.154.056-.11.005-.24.01-.387.013l-.48.008a7.886 7.886 0 0 1-.528 0 33.936 33.936 0 0 0-.532-.004.788.788 0 0 0 .432.464c.206.09.469.135.789.136.141 0 .283-.01.423-.026.103-.014.205-.023.309-.026.116 0 .174.066.174.197a.66.66 0 0 1-.07.296.99.99 0 0 1-.154.233c-.163.173-.36.31-.579.4-.235.103-.549.155-.94.155a2.526 2.526 0 0 1-.809-.126 1.682 1.682 0 0 1-1.076-1.001 2.338 2.338 0 0 1-.153-.877zm1.553-.52h.485c.173 0 .339-.003.498-.009a1.132 1.132 0 0 0-.15-.444c-.098-.163-.229-.244-.39-.244a.507.507 0 0 0-.103.009.352.352 0 0 0-.27.24 1.327 1.327 0 0 0-.07.448zm2.654 1.326c0-.423.137-.72.409-.89.272-.172.656-.257 1.152-.258.225 0 .404.016.537.047v-.099c0-.277-.251-.416-.753-.415-.122 0-.245.011-.366.03a3.402 3.402 0 0 0-.366.078 2.681 2.681 0 0 1-.103.033.35.35 0 0 1-.106.016.165.165 0 0 1-.162-.1.607.607 0 0 1-.046-.257c0-.277.122-.513.365-.706.145-.116.341-.207.588-.274.27-.07.546-.104.825-.1.308 0 .576.034.802.104.212.06.404.177.555.337.132.149.23.324.287.514.058.193.087.445.087.757l.014.974c0 .263.11.405.328.428.093.006.14.073.14.203a.659.659 0 0 1-.25.519c-.205.171-.47.257-.798.257-.25 0-.45-.037-.6-.111a.84.84 0 0 1-.348-.308.954.954 0 0 1-.351.297 1.2 1.2 0 0 1-.56.12 1.63 1.63 0 0 1-.485-.073 1.108 1.108 0 0 1-.689-.603 1.217 1.217 0 0 1-.105-.52zm1.396-.052c0 .135.04.23.12.29a.488.488 0 0 0 .582-.02v-.646a1.134 1.134 0 0 0-.254-.021.503.503 0 0 0-.327.098c-.08.066-.12.166-.12.3zm3.238-3.976c0-.099.058-.157.174-.174a3.812 3.812 0 0 1 .506-.038h.285c.266 0 .444.033.532.1.088.067.132.19.131.372v4.356c0 .071.002.136.005.194.003.058.004.107.004.146 0 .1-.058.158-.174.175a4.117 4.117 0 0 1-.506.034h-.285a2.109 2.109 0 0 1-.332-.021.453.453 0 0 1-.206-.078.277.277 0 0 1-.1-.149.828.828 0 0 1-.025-.223v-4.357c0-.071-.002-.135-.005-.192a3.06 3.06 0 0 1-.004-.144zm2.012 2.152c0-.105.004-.204.013-.296a.803.803 0 0 1 .047-.224c.028-.077.1-.168.217-.273l1.004-.874a.78.78 0 0 1 .164-.117.634.634 0 0 1 .201-.057c.072-.011.145-.017.217-.018.069 0 .144.004.226.01.04.003.078.015.113.036.03.019.044.065.044.14v.793h.553c.208 0 .38-.003.52-.009.056 0 .097.01.12.028.024.018.04.058.045.12.006.051.01.103.009.155v.156c0 .076-.004.153-.013.23a.596.596 0 0 1-.06.199.366.366 0 0 1-.167.166.616.616 0 0 1-.25.044h-.757v.788c0 .17.008.34.026.508a.501.501 0 0 0 .15.33c.07.06.156.1.248.117a1.759 1.759 0 0 0 .477.028 1.69 1.69 0 0 1 .129-.004h.012c.125 0 .188.071.188.215a.735.735 0 0 1-.354.652c-.235.154-.553.23-.953.23-.57 0-.967-.13-1.19-.39-.213-.248-.32-.622-.32-1.118v-.077l.026-1.279h-.493c-.128-.002-.192-.072-.192-.21zm3.995-2.152c0-.099.058-.157.174-.174a3.817 3.817 0 0 1 .502-.038h.29c.266 0 .444.033.532.1.088.067.132.19.131.372v1.34c.156-.15.34-.268.543-.346.204-.08.42-.122.64-.122.553 0 .905.192 1.055.575.05.135.082.276.096.419.02.2.03.4.027.602v1.888c0 .071.002.136.005.194.003.058.004.107.004.146 0 .1-.058.158-.174.175a4.117 4.117 0 0 1-.506.034h-.29c-.11.002-.22-.006-.33-.021a.45.45 0 0 1-.204-.078.278.278 0 0 1-.1-.149.84.84 0 0 1-.026-.223v-1.766c0-.256-.029-.426-.087-.51-.058-.086-.154-.129-.287-.13a.862.862 0 0 0-.366.092v2.236c0 .071.002.136.005.194.003.058.004.107.004.146 0 .1-.058.158-.175.175a2.87 2.87 0 0 1-.248.026 4.35 4.35 0 0 1-.257.008h-.29a2.07 2.07 0 0 1-.33-.021.451.451 0 0 1-.204-.078.28.28 0 0 1-.1-.149.84.84 0 0 1-.026-.223v-4.357c0-.071-.001-.135-.004-.192a3.25 3.25 0 0 1-.004-.144z" fill="#124D42"/></svg>