<svg width="36" height="36" fill="none" xmlns="http://www.w3.org/2000/svg"><path d="M18 0c2.837 0 5.52.656 7.907 1.825C31.884 4.753 36 10.895 36 18c0 9.942-8.058 18-18 18-9.94 0-18-8.057-18-18C0 8.06 8.06 0 18 0z" fill="#F2F4F7"/><path d="M6.359 16.172A1.623 1.623 0 0 0 5 16.126l.708.569.72.578h.791a1.632 1.632 0 0 0-.86-1.101z" fill="#A7E0FF"/><path d="M5 16.126a1.633 1.633 0 0 0-.951 1.9l.494-.396 1.165-.935L5 16.126z" fill="#5DB8FD"/><path d="M7.22 17.987h-.793l-.72.578.651.522a1.63 1.63 0 0 0 .862-1.1z" fill="#1E3896"/><path d="m5.708 18.565-1.165-.935-.494.396a1.633 1.633 0 0 0 2.31 1.062l-.651-.523z" fill="#196EEF"/><path d="M8.722 16.987h-.495v-.17h1.177v.17h-.497v1.459h-.185v-1.459zm.917-.299h.18v.747a.472.472 0 0 1 .418-.218c.078 0 .15.012.213.037a.439.439 0 0 1 .264.277.677.677 0 0 1 .035.228v.687h-.187v-.678a.409.409 0 0 0-.092-.281c-.062-.07-.153-.105-.272-.105a.374.374 0 0 0-.267.11.376.376 0 0 0-.08.125.427.427 0 0 0-.03.16v.669H9.64v-1.758zm2.01 1.782a.686.686 0 0 1-.263-.048.568.568 0 0 1-.33-.329.668.668 0 0 1 .136-.693.612.612 0 0 1 .45-.183.64.64 0 0 1 .244.046.58.58 0 0 1 .322.32.635.635 0 0 1 .047.247v.083h-1.064a.426.426 0 0 0 .282.364.516.516 0 0 0 .176.028.46.46 0 0 0 .243-.06.458.458 0 0 0 .16-.172l.156.092a.7.7 0 0 1-.227.225c-.09.054-.2.08-.333.08zm-.007-1.09a.458.458 0 0 0-.294.106.455.455 0 0 0-.152.266h.872a.42.42 0 0 0-.136-.272.424.424 0 0 0-.29-.1zm2.275 1.088a.827.827 0 0 1-.837-.837.821.821 0 0 1 .245-.594.827.827 0 0 1 .592-.242.808.808 0 0 1 .42.114.862.862 0 0 1 .298.297l-.16.098a.675.675 0 0 0-.229-.241.6.6 0 0 0-.329-.092.623.623 0 0 0-.256.053.656.656 0 0 0-.393.608.662.662 0 0 0 .185.463.635.635 0 0 0 .462.192.62.62 0 0 0 .578-.354l.165.087a.885.885 0 0 1-.3.324.82.82 0 0 1-.441.124zm1.006-1.78h.182v1.758h-.182v-1.758zm1.106 1.782a.63.63 0 0 1-.445-.18.626.626 0 0 1-.18-.447.629.629 0 0 1 .181-.446.615.615 0 0 1 .444-.18.634.634 0 0 1 .446.18.634.634 0 0 1 .18.446.626.626 0 0 1-.378.578.618.618 0 0 1-.248.05zm0-.173a.445.445 0 0 0 .316-.131.446.446 0 0 0 .126-.323.476.476 0 0 0-.034-.179.434.434 0 0 0-.408-.275.435.435 0 0 0-.44.454c0 .066.011.126.034.181a.436.436 0 0 0 .232.238.436.436 0 0 0 .174.035zm.923-1.056h.176v.228a.342.342 0 0 1 .127-.183.367.367 0 0 1 .217-.062.38.38 0 0 1 .2.044l-.075.174a.186.186 0 0 0-.061-.028.332.332 0 0 0-.086-.01c-.101 0-.18.03-.235.09-.054.061-.082.158-.082.292v.66h-.18v-1.205zm1.41 1.23a.63.63 0 0 1-.445-.181.625.625 0 0 1-.18-.447.63.63 0 0 1 .181-.446.613.613 0 0 1 .444-.18.633.633 0 0 1 .446.18.632.632 0 0 1 .18.446.624.624 0 0 1-.626.627zm0-.174a.443.443 0 0 0 .316-.131.45.45 0 0 0 .126-.323.476.476 0 0 0-.034-.179.436.436 0 0 0-.582-.24.426.426 0 0 0-.232.24.476.476 0 0 0-.034.18c0 .065.011.125.034.18a.44.44 0 0 0 .232.238.438.438 0 0 0 .174.035zm1.184-.467-.453-.589h.223l.346.455.346-.455h.22l-.454.59.481.615h-.227l-.368-.475-.361.475h-.228l.475-.616zm2.268.638a.827.827 0 0 1-.836-.837.846.846 0 0 1 .244-.595.825.825 0 0 1 .592-.24.808.808 0 0 1 .42.113.865.865 0 0 1 .299.297l-.161.098a.675.675 0 0 0-.229-.241.6.6 0 0 0-.329-.092.652.652 0 0 0-.649.66.66.66 0 0 0 .186.465.634.634 0 0 0 .461.191.62.62 0 0 0 .578-.354l.165.087a.879.879 0 0 1-.3.324.822.822 0 0 1-.44.124zm1.564.002a.632.632 0 0 1-.445-.18.628.628 0 0 1-.18-.447.636.636 0 0 1 .181-.446.614.614 0 0 1 .444-.18.633.633 0 0 1 .446.18.612.612 0 0 1 .18.447.624.624 0 0 1-.378.577.618.618 0 0 1-.248.05zm0-.173a.445.445 0 0 0 .316-.131.449.449 0 0 0 .126-.323.476.476 0 0 0-.127-.324.437.437 0 0 0-.315-.13.436.436 0 0 0-.313.13.476.476 0 0 0-.126.324c0 .066.01.126.033.181a.438.438 0 0 0 .232.238.437.437 0 0 0 .174.035zm.89-1.056h.181v.177a.414.414 0 0 1 .155-.148.471.471 0 0 1 .231-.053c.107 0 .196.023.266.068.07.045.12.106.154.182a.448.448 0 0 1 .17-.182.497.497 0 0 1 .262-.068c.168 0 .296.047.382.142a.54.54 0 0 1 .13.378v.709h-.186v-.707a.377.377 0 0 0-.088-.26c-.059-.066-.144-.1-.255-.1a.386.386 0 0 0-.14.025.307.307 0 0 0-.11.072.342.342 0 0 0-.074.117.438.438 0 0 0-.027.159v.693h-.183v-.724a.352.352 0 0 0-.085-.249c-.058-.062-.14-.093-.247-.093a.336.336 0 0 0-.254.103.397.397 0 0 0-.098.285v.678h-.183v-1.204zm2.9 1.23a.585.585 0 0 1-.256-.06.46.46 0 0 1-.194-.173v.72h-.18V17.24h.177v.221a.479.479 0 0 1 .197-.18.581.581 0 0 1 .495-.02.59.59 0 0 1 .327.328.65.65 0 0 1 .048.253.65.65 0 0 1-.179.452.575.575 0 0 1-.195.13.627.627 0 0 1-.24.045zm-.015-.172a.442.442 0 0 0 .317-.131.44.44 0 0 0 .093-.145.483.483 0 0 0 .034-.182.477.477 0 0 0-.034-.18.438.438 0 0 0-.41-.277.461.461 0 0 0-.416.28.464.464 0 0 0 .095.502.446.446 0 0 0 .32.133zm1.452.171a.629.629 0 0 1-.24-.045.576.576 0 0 1-.325-.328.653.653 0 0 1-.048-.253c0-.092.016-.177.048-.253a.61.61 0 0 1 .327-.328.622.622 0 0 1 .238-.046c.088 0 .174.021.257.063.083.041.149.1.196.176v-.214h.178v1.204h-.18v-.214a.488.488 0 0 1-.195.175.59.59 0 0 1-.256.063zm.016-.171a.447.447 0 0 0 .415-.278.477.477 0 0 0 0-.357.437.437 0 0 0-.237-.243.436.436 0 0 0-.353-.001.451.451 0 0 0-.235.242.477.477 0 0 0-.034.18.47.47 0 0 0 .034.181.434.434 0 0 0 .41.276zm.953-1.058h.178v.201a.477.477 0 0 1 .42-.225c.078 0 .15.012.212.037a.438.438 0 0 1 .264.278.677.677 0 0 1 .036.227v.687H30.5v-.678a.406.406 0 0 0-.094-.281c-.062-.07-.152-.105-.27-.105a.382.382 0 0 0-.27.11.377.377 0 0 0-.08.125.428.428 0 0 0-.029.16v.669h-.183V17.24zm1.5 1.716.246-.57-.504-1.146h.198l.404.933.383-.933H32l-.744 1.716h-.181z" fill="#000"/></svg>