<svg width="36" height="36" fill="none" xmlns="http://www.w3.org/2000/svg"><path d="M18 0c2.837 0 5.52.656 7.907 1.825C31.884 4.753 36 10.895 36 18c0 9.942-8.058 18-18 18-9.94 0-18-8.057-18-18C0 8.06 8.06 0 18 0z" fill="#F2F4F7"/><path fill-rule="evenodd" clip-rule="evenodd" d="M8.194 19.277a1.523 1.523 0 0 1-.988.32c-1.017 0-1.692-.777-1.692-2.014 0-1.257.669-2.024 1.692-2.024.334-.01.662.087.935.278l.76-1.03c-.473-.315-.936-.51-1.834-.51C5.114 14.297 4 15.615 4 17.583c0 2.018 1.165 3.276 3.067 3.276 1.214 0 1.685-.416 1.901-.564l-.774-1.018zm13.773-.01c-.285.224-.64.342-1.003.334-1.016 0-1.691-.778-1.691-2.015 0-1.256.674-2.024 1.691-2.024.334-.01.662.088.935.279l.76-1.03c-.473-.316-.936-.51-1.834-.51-1.95 0-3.067 1.318-3.067 3.285 0 2.018 1.165 3.276 3.067 3.276 1.214 0 1.685-.415 1.901-.563l-.76-1.032zm-7.246-4.854c1.4 0 2.14.561 2.14 1.622 0 .768-.5 1.162-.982 1.358l-.003.013c.564.16 1.225.526 1.225 1.532 0 1.166-.863 1.808-2.429 1.808h-2.227v-6.333h2.276zm-.19 3.584h-.614v1.64h.633c.638 0 1.062-.25 1.062-.802 0-.583-.42-.838-1.08-.838zm0-2.53h-.614v1.47h.577c.557 0 .959-.223.959-.728 0-.34-.207-.743-.921-.743zM9.62 20.746h1.467v-6.333H9.621v6.333zm19.942-6.471a.668.668 0 0 0-.568-.274h-2.361a.668.668 0 0 1 .574.282c.238.317 2.433 3.3 2.433 3.3s-2.195 2.982-2.433 3.3a.669.669 0 0 1-.574.28h2.361a.668.668 0 0 0 .568-.273L32 17.584l-2.438-3.308z" fill="#C41F3E"/><path fill-rule="evenodd" clip-rule="evenodd" d="m27.814 15.102-.607-.82a.668.668 0 0 0-.574-.281.67.67 0 0 0-.569.274l-2.438 3.308 2.438 3.307a.67.67 0 0 0 .57.273.668.668 0 0 0 .573-.281l.607-.82-1.828-2.48 1.828-2.48z" fill="#8B1D41"/></svg>