<svg height="36" viewBox="0 0 36 36" width="36" xmlns="http://www.w3.org/2000/svg"><mask id="a" fill="#fff"><path d="M0 0h27.997v27.979H0z" fill-rule="evenodd"/></mask><g fill="none" fill-rule="evenodd"><path d="M18 0c2.837 0 5.52.656 7.907 1.825C31.884 4.753 36 10.895 36 18c0 9.942-8.058 18-18 18-9.94 0-18-8.057-18-18C0 8.06 8.06 0 18 0z" fill="#f2f4f7" fill-rule="nonzero"/><path d="M27.997 13.989c0 7.726-6.268 13.99-13.999 13.99C6.268 27.979 0 21.715 0 13.989S6.268 0 13.998 0c7.731 0 13.999 6.263 13.999 13.989" fill="#a93630" mask="url(#a)" transform="translate(4 4)"/><path d="M26.486 17.989c0 4.689-3.8 8.491-8.487 8.491S9.51 22.678 9.51 17.989a8.489 8.489 0 1 1 16.975 0" fill="#fefefe"/><path d="M25.853 17.987c0 4.338-3.518 7.855-7.857 7.855s-7.857-3.517-7.857-7.855 3.518-7.855 7.857-7.855 7.857 3.517 7.857 7.855" fill="#60341e"/><g fill="#fefefe"><path d="M7.183 18.159a.333.333 0 1 1-.666 0 .333.333 0 0 1 .666 0m22.433 0a.333.333 0 1 1-.666 0 .333.333 0 0 1 .666 0m-11.002-2.78c-.293.09-.34.393-.715.397s-.58-.013-.62-.17c-.041-.157-.058-.185-.19-.29-1.663 0-2.311.26-2.593 1.167 0 0 .017.115-.032.35-.05.237-.083.766-.092 1.047-.008.28-.008 1.52-.008 1.52s1.195 1.824 1.848 2.639c.14.202.409.595.83.657s.795.05 1.303.1c.509.049 1.294.024 1.848-.397 0 0-.004-.08.083-.1l-.298-.227c-.194-.15-.34-.27-.442-.318-.103-.05-.182-.058-.235-.157-.055-.1-.195-.2-.29-.187-.095.013-.236.063-.231-.057.003-.12-.017-.368-.013-.538.004-.17.046-.438-.033-.52-.078-.083-.153-.1-.182-.245-.03-.144-.083-.483-.021-.57s.252-.38.339-.546c.087-.165.815-1.013.815-1.67 0-.628-.765-1.513-1.071-1.885m2.762-1.728c.004-.22-.244-.53-.344-.864 0 0-.397.012-.801.04-.406.03-.658.237-.658.237-.074.107-.26.244-.26.244-.042.058-.273.264-.273.264s.008.083-.01.215c-.015.133-.11.426-.106.616.003.145.174.319.174.319.252.037.789.045.789.045s-.033.145-.09.273c-.058.128-.434.182-.434.182s.177.302.235.442c.058.14.244.273.244.273.31.546.483.852.483 1.15 0 .297-.186.64-.186.64 0 .215-.144.463-.276.653-.133.19-.224.327-.29.459s-.182.323-.256.455c-.075.132-.227.28-.306.335s-.075.099-.075.099.26.33.26.484c0 .083-.032.128-.032.276 0 .265.103.352.103.352.137-.03.174.029.257.082.14.075.38.228.459.273.078.046.649.472.78.563s.294.09.43.173c.084.058.323.054.323.306 0 .199-.293.695-.455.893a.438.438 0 0 1-.218.145c-.241.277-.307.269-.307.269-.087-.004-.206.024-.318.04-.211.042-.376-.016-.533.005-.195.037-.32.013-.43.004-.112-.008-.608.02-.934.025-.327.004-.29 0-.46-.03-.17-.028-.293-.106-.367-.11-.1.004-.265.012-.405-.062-.141-.075-.344-.137-.571-.17s-.281-.041-.372-.215c-.091-.173-.512-.856-1.174-1.72-.661-.864-.992-1.41-1.054-1.604s-.178-.83-.182-1.215c-.004-.384-.013-.84-.013-1.265s.108-.5.124-.645c.02-.298.087-.364.104-.475-.017-.17.033-.298.033-.298.165-.133.616-.723.996-.968.315-.231.897-.128 1.327-.256a.922.922 0 0 0-.698-.306c-.232 0-.335.075-.356.029-.02-.045.182-.107.248-.19.095-.12.21-.107.368-.215 0 0 .459.095.814.224.356.127.496.09.496.09 1.216-1.08 2.249-1.84 2.249-1.84.484-.107 1.439-.19 1.439-.19s.124.063.306.075c.182.013.198.095.198.095.087.157.158.169.207.244.103.186.4.393.4.632 0 .356-.176.906-.176.906s-.232.033-.422.033h-.331c-.15 0-.153-.058-.153-.058s.347-.24.48-.463"/><path d="M16.183 21.206s.046-.06.092-.008.081.065.081.065.021-.117-.2-.387c0 0-.077-.1-.115-.181-.037-.081-.102-.171-.181-.298-.079-.128-.088-.16-.14-.37-.052-.21-.259-.632-.259-.632s-.008-.077-.035-.19c-.027-.112-.102-.346-.102-.542s.019-.455.019-.701-.011-.436.025-.518c.035-.081.029-.258.054-.306s.213-.282.213-.282.06-.002.248-.05.805-.22 1.089-.22.768.103.899.116c.131.012.269.108.401.21.131.103.248.176.248.176s.019.05-.027.133a.791.791 0 0 0-.096.223s-.156.322-.267.516c-.153.263-.207.459-.207.459s-.102.2-.2.423-.14.359-.207.493c-.016.03-.043.215 0 .517.044.303.04.28.084.416.044.135.177.746.546 1.479 0 0-.041.037-.129 0-.133-.046-.123-.111-.219-.174-.096-.062-.167-.104-.282-.25-.142-.148-.177-.301-.277-.37 0 0-.014-.101-.083-.268s-.284-.512-.37-.681c-.085-.17-.25-.448-.369-.654-.119-.207-.128-.253-.128-.466.019-.327-.016-.461-.016-.622 0-.16.011-.258.048-.363.037-.104.008-.29.211-.334 0 0 .144-.01.267.007.123.016.298.006.298.006s.311.148.294.256c-.017.109-.046.232-.04.385 0 0-.001.08-.043.17-.042.09-.244.493-.244.493v-.257c0-.102-.105-.208-.203-.208s-.208.035-.277.296c0 0-.025.037.039.298.065.26.163.457.389.457.225 0 .277-.24.281-.342s.071-.23.1-.294c.03-.065.136-.303.205-.444.069-.142.175-.418.175-.535 0-.292-.24-.744-.559-.744-.311 0-.517-.005-.709.046-.193.05-.414.1-.499.118-.086.019-.1.1-.135.332-.036.232-.074.345-.074.493s.013.187.002.26c-.01.074-.054.159-.054.343 0 .183.034.267.119.446.025.06.038.173.152.309 0 0 .115.184.19.37.075.189.157.306.257.437s.179.48.455.808c.041.06.15.262.238.375.087.113.106.165.333.343.084.068.119.143.194.218.076.075.601.372.92.372.295 0 .391-.157.261-.274-.129-.116-.288-.267-.382-.488-.116-.238-.187-.532-.25-.657s-.135-.275-.202-.53a2.81 2.81 0 0 1-.115-.74c0-.255.031-.478.202-.74.219-.316.267-.504.267-.504s.142-.152.178-.35c.271-.215.597-.877.597-1.015 0-.137-.12-.154-.159-.27-.04-.113-.251-.21-.3-.297-.051-.088-.193-.35-.385-.35-.152 0-.112.183-.367.183-.254 0-.605-.008-1.312-.263 0 0-.083-.027-.275.025-.192.053-.503.06-.803.088-.301.027-.495.16-.524.455-.03.294-.18.744-.18 1.195v1.146c0 .436.33.86.374.999 0 0 .164.244.44.613.275.37.515.6.515.6M7.58 12.708l-.285-.628c-.728.206-1.183 1.016-1.183 1.636 0 .972.802 1.666 1.728 1.666 1.054 0 1.671-.95 1.671-1.69a1.51 1.51 0 0 0-.149-.687l-.612.224s.091.252.091.492c0 .537-.475.938-.955.938s-1.087-.36-1.087-.98.55-.885.781-.97m.818-3.011-.504.521 2.348 2.262.496-.522-.852-.826 1.038-1.009.872.806.381-.476-2.299-2.253-.45.418 1.066 1.087L9.47 10.77zm3.924-3.092-.542.29 1.526 2.877.545-.294zm3.278-.389-.513.095.199.955s.157-.029.533-.103.537-.257.537-.496c0-.24-.149-.567-.756-.45zM15.496 8.9l-.632.108-.637-3.18s1.526-.293 1.687-.293c.761 0 1.191.533 1.191 1.137s-.484.955-1.034 1.08-.756.168-.756.168zm4.564-2.806c-.772 0-.97.699-.97 1.046 0 .587.483 1.046 1.07 1.046.513 0 .935-.467.935-1.05s-.496-1.042-1.034-1.042m1.803 1.12c0 .869-.654 1.658-1.637 1.658-.984 0-1.906-.752-1.906-1.786 0-.674.45-1.674 1.66-1.674.973 0 1.883.752 1.883 1.803m3.93.578L23.43 6.387l-.314.476.964.57-1.394 2.282.558.327 1.418-2.282.802.512zM27.58 9.5l-.441-.509-2.456 2.162 1.476 1.737.517-.389-1.137-1.286zm2.353 5.304.533-.194-.88-2.233-3.059 1.133.892 2.291.563-.203-.699-1.674.558-.22.513 1.303.566-.195-.508-1.298.855-.335zM6.69 21.763l1.098-.415-.552.746.907.204-1.098.418.145.38 1.689-.641-.147-.408-.88-.177.542-.706-.158-.404-1.682.635zm3.108 2.827.291-.205-.77-1.127-1.488 1.013.773 1.144.294-.197-.545-.816.301-.21.478.698.301-.197-.478-.703.295-.204zm1.148.698-.341-.308-.158 1.064-1.083.261.34.304.707-.184-.114.73.355.314.153-1.114 1.04-.244-.34-.308-.67.177zm1.966 1.582-.338-.214-.96 1.535.344.215zm1.94 1.439.344-.201c-.187-.3-.485-.555-.906-.555-.575 0-.94.485-.94.957 0 .592.512.936.973.936.271 0 .455-.127.455-.127l-.147-.338s-.16.087-.348.087c-.187 0-.515-.15-.515-.535s.298-.602.552-.602.438.187.532.378m1.991.321-.301.548.475.06zm.799 1.448-.411-.05-.117-.425-.76-.094-.207.392-.408-.054.98-1.722.375.053zm1.378-1.873-.375.04.18 1.796.399-.044-.114-1.13.98 1.047.342-.027-.184-1.806-.395.037.114 1.104zm4.098-.592.11-.392s-.107-.046-.307-.046c-.58 0-1.014.444-1.014.95 0 .505.375.96.906.96.533 0 .884-.385 1.014-.666l-.324-.719-.71.314.138.321.364-.167.107.234s-.204.298-.535.298-.552-.304-.552-.595.24-.542.565-.542c.128 0 .238.05.238.05m1.712-1.345-.344.264.311.408.324-.26s.131-.094.131-.225c0-.13-.138-.254-.238-.254s-.147.04-.184.067m.224-.468c.355 0 .586.364.586.582a.56.56 0 0 1-.098.337l.743.238-.368.298-.659-.224-.237.187.348.458-.315.251-1.107-1.435.666-.522c.154-.11.281-.17.441-.17m.997-1.187-.26.297 1.367 1.182.268-.31zm.826-1.185-.204.338 1.562.923.652-1.127-.314-.18-.45.772zm.893-1.926-.126.378 1.712.568.405-1.24-.341-.111-.285.853z"/></g></g></svg>