<svg height="36" viewBox="0 0 36 36" width="36" xmlns="http://www.w3.org/2000/svg"><mask id="a" fill="#fff"><path d="M0 0h9.31v7.687H0z" fill-rule="evenodd"/></mask><mask id="b" fill="#fff"><path d="M0 13.6h28V0H0z" fill-rule="evenodd"/></mask><g fill="none" fill-rule="evenodd"><path d="M18 0c2.837 0 5.52.656 7.907 1.825C31.884 4.753 36 10.895 36 18c0 9.942-8.058 18-18 18-9.94 0-18-8.057-18-18C0 8.06 8.06 0 18 0z" fill="#f2f4f7" fill-rule="nonzero"/><path d="M4.89 7.674C2.524 7.674 0 6.672 0 3.837 0 1.059 2.523 0 4.89 0h4.408v2.441H4.773a1.396 1.396 0 1 0 0 2.793H9.31v2.453z" fill="#1d1d1b" mask="url(#a)" transform="translate(4 14.176)"/><path d="M25.017 2.535H28V0h-2.983z" fill="#c2281a" mask="url(#b)" transform="translate(4 11)"/><path d="M25.017 3.178v2.583h-3.958V3.178h-2.983V7.59l-4.112-3.963c-.252-.263-.818-.448-1.476-.448h-2.414v7.664h2.983V6.517l3.977 3.703c.252.264 1.06.621 1.717.621h.002l.002.002h2.304V8.15h3.958v2.694H28V3.178zM.594 13.551h.609v-1.84H.594zm3.429-.001-.945-1.202h-.01l.014 1.203H2.53v-1.84h.647l.94 1.2h.01l-.013-1.2h.55v1.84zm3.554-.924a.48.48 0 0 0-.064-.26.486.486 0 0 0-.17-.163.813.813 0 0 0-.243-.087 1.611 1.611 0 0 0-.28-.025h-.279v1.075h.265c.101 0 .198-.01.291-.027s.175-.048.246-.09a.494.494 0 0 0 .17-.166.478.478 0 0 0 .064-.257m.583 0c0 .16-.037.3-.112.417a.916.916 0 0 1-.299.288 1.36 1.36 0 0 1-.418.166 2.084 2.084 0 0 1-.472.054h-.865v-1.84h.84c.163 0 .325.016.484.046s.301.08.426.15a.852.852 0 0 1 .302.282.792.792 0 0 1 .114.437m3.105.534a.69.69 0 0 1-.218.233 1.076 1.076 0 0 1-.342.153 1.699 1.699 0 0 1-.444.054c-.165 0-.314-.018-.447-.054a1.041 1.041 0 0 1-.336-.153.632.632 0 0 1-.287-.536v-1.146h.602v1.109c0 .051.01.099.027.144s.045.085.081.12a.387.387 0 0 0 .145.085c.061.02.134.031.22.031a.691.691 0 0 0 .216-.031.404.404 0 0 0 .147-.085.31.31 0 0 0 .082-.12.427.427 0 0 0 .025-.144v-1.109h.605v1.146a.611.611 0 0 1-.076.303m2.738-.97a.58.58 0 0 0-.215-.117.829.829 0 0 0-.504-.005.275.275 0 0 0-.088.058.115.115 0 0 0-.035.088c0 .032.009.058.028.08a.217.217 0 0 0 .082.053.971.971 0 0 0 .129.043c.05.013.106.027.168.04.09.022.184.044.28.07.099.024.187.058.267.1.08.041.146.093.199.154a.343.343 0 0 1 .078.23c0 .105-.028.197-.084.274s-.132.141-.226.191c-.095.051-.204.088-.326.112s-.248.036-.378.036c-.19 0-.374-.022-.55-.069a1.31 1.31 0 0 1-.443-.195l.42-.297a.964.964 0 0 0 .711.184.411.411 0 0 0 .118-.034.212.212 0 0 0 .08-.06.16.16 0 0 0 .03-.095.124.124 0 0 0-.036-.089.379.379 0 0 0-.107-.066 1.05 1.05 0 0 0-.173-.054l-.234-.054c-.085-.018-.168-.04-.25-.067s-.152-.06-.216-.1a.516.516 0 0 1-.153-.148.374.374 0 0 1-.058-.212c0-.102.029-.19.09-.263a.682.682 0 0 1 .235-.179c.098-.047.207-.08.33-.103a1.933 1.933 0 0 1 .829.025c.156.038.293.095.41.17zm2.632-.1v1.46h-.605v-1.46h-.708v-.38h2.02v.38zm3.03.216a.18.18 0 0 0-.04-.121.253.253 0 0 0-.102-.072.532.532 0 0 0-.14-.034 1.28 1.28 0 0 0-.149-.01h-.344v.494h.306c.053 0 .107-.003.163-.01a.618.618 0 0 0 .151-.038.283.283 0 0 0 .112-.078.197.197 0 0 0 .043-.13zm.026 1.245-.51-.562h-.287v.561h-.629v-1.84h1.016c.128 0 .253.01.375.028.121.019.231.049.327.092a.625.625 0 0 1 .231.171.406.406 0 0 1 .087.266c0 .125-.047.295-.123.37a.756.756 0 0 1-.384.222l.65.692zm1.798 0h.609v-1.84h-.609zm2.818-1.349-.319.632h.631zm.673 1.349-.195-.362h-.97l-.185.362h-.658l1.051-1.84h.59l1.04 1.84zm1.29-.001v-1.84h.61v1.454h1.083v.387z" mask="url(#b)" transform="translate(4 11)" fill="#1d1d1b"/></g></svg>