<svg width="36" height="36" fill="none" xmlns="http://www.w3.org/2000/svg"><path d="M18 0c2.837 0 5.52.656 7.907 1.825C31.884 4.753 36 10.895 36 18c0 9.942-8.058 18-18 18-9.94 0-18-8.057-18-18C0 8.06 8.06 0 18 0z" fill="#F2F4F7"/><path d="M6.68 20.357c.036 0 .069.014.097.042l.263.286c-.145.18-.325.32-.538.416a1.855 1.855 0 0 1-.768.144c-.267 0-.507-.046-.72-.137a1.586 1.586 0 0 1-.893-.963A2.185 2.185 0 0 1 4 19.406c0-.27.043-.518.13-.743a1.65 1.65 0 0 1 .926-.96 1.86 1.86 0 0 1 .72-.136c.263 0 .495.043.698.13.204.086.377.199.52.338l-.225.311a.203.203 0 0 1-.05.052.145.145 0 0 1-.087.023.164.164 0 0 1-.077-.021 1.07 1.07 0 0 1-.087-.053 3.297 3.297 0 0 0-.11-.068.899.899 0 0 0-.144-.068 1.181 1.181 0 0 0-.44-.074c-.16 0-.308.029-.442.086a.96.96 0 0 0-.344.249 1.14 1.14 0 0 0-.224.398c-.053.157-.08.335-.08.536 0 .203.029.383.086.54.057.158.135.29.233.398.098.108.213.19.346.248.132.057.275.086.428.086.09 0 .173-.005.247-.015.074-.01.142-.026.204-.048a.902.902 0 0 0 .177-.083 1.13 1.13 0 0 0 .165-.126.232.232 0 0 1 .052-.036.127.127 0 0 1 .058-.013m1.88.413c.213 0 .37-.072.472-.214.102-.143.153-.352.153-.627 0-.276-.051-.485-.153-.63-.102-.144-.26-.216-.472-.216-.215 0-.375.072-.479.218-.103.145-.155.354-.155.628s.052.482.155.626c.104.143.264.215.48.215zm0-2.157c.19 0 .361.03.517.092.155.061.287.148.398.26.11.114.195.251.255.414.06.162.09.344.09.545 0 .202-.03.385-.09.547a1.113 1.113 0 0 1-.653.68 1.391 1.391 0 0 1-.517.091c-.19 0-.364-.03-.52-.092a1.11 1.11 0 0 1-.655-.679 1.559 1.559 0 0 1-.091-.547c0-.2.03-.383.09-.545a1.111 1.111 0 0 1 .657-.674 1.41 1.41 0 0 1 .52-.092zm1.867 2.592v-2.09l-.222-.035a.26.26 0 0 1-.115-.05.126.126 0 0 1-.044-.104v-.251h.38v-.19a1.1 1.1 0 0 1 .067-.392.817.817 0 0 1 .189-.296.82.82 0 0 1 .3-.187 1.15 1.15 0 0 1 .398-.065 1.1 1.1 0 0 1 .328.047l-.012.309a.097.097 0 0 1-.02.056.11.11 0 0 1-.046.032.25.25 0 0 1-.066.015.797.797 0 0 1-.08.004.735.735 0 0 0-.195.024.33.33 0 0 0-.236.236.78.78 0 0 0-.032.238v.169h.665v.438h-.645v2.092h-.614m2.321-2.553v2.553h-.617v-2.552h.617zm.085-.744a.35.35 0 0 1-.033.15.41.41 0 0 1-.211.205.386.386 0 0 1-.428-.083.402.402 0 0 1-.083-.122.385.385 0 0 1 .083-.428.398.398 0 0 1 .274-.115.41.41 0 0 1 .366.239c.021.048.032.1.032.154zm.568 3.297v-2.553h.376c.08 0 .132.038.157.112l.042.202a1.21 1.21 0 0 1 .344-.256.925.925 0 0 1 .206-.073c.073-.016.152-.024.239-.024.139 0 .262.023.37.07a.733.733 0 0 1 .27.2.875.875 0 0 1 .164.306c.038.118.056.249.056.391v1.625h-.614V19.58a.554.554 0 0 0-.107-.362c-.072-.085-.18-.128-.326-.128a.64.64 0 0 0-.299.073 1.07 1.07 0 0 0-.263.196v1.846H13.4m3.469-2.553v2.553h-.617v-2.552h.617zm.084-.744a.35.35 0 0 1-.032.15.41.41 0 0 1-.366.236.4.4 0 0 1-.357-.236.387.387 0 0 1 .083-.428.398.398 0 0 1 .274-.115.412.412 0 0 1 .366.239c.022.048.032.1.032.154zm.569 3.297v-2.553h.375c.08 0 .132.038.157.112l.04.19a1.5 1.5 0 0 1 .14-.137.895.895 0 0 1 .336-.178.798.798 0 0 1 .21-.026c.162 0 .294.043.398.13a.786.786 0 0 1 .232.347.78.78 0 0 1 .346-.365.9.9 0 0 1 .228-.085c.08-.018.161-.027.242-.027.141 0 .267.021.376.064a.72.72 0 0 1 .276.19.833.833 0 0 1 .17.303c.04.12.06.256.06.41v1.625h-.615V19.58c0-.162-.036-.284-.107-.366-.072-.083-.176-.124-.314-.124a.468.468 0 0 0-.175.033.419.419 0 0 0-.238.246.595.595 0 0 0-.035.211v1.625h-.617V19.58c0-.17-.034-.295-.103-.373-.069-.078-.17-.117-.302-.117a.497.497 0 0 0-.25.066.838.838 0 0 0-.216.18v1.87h-.614m4.209-.001v-2.553h.376c.08 0 .132.038.157.112l.04.19a1.29 1.29 0 0 1 .14-.137.9.9 0 0 1 .336-.178.798.798 0 0 1 .21-.026c.161 0 .293.043.397.13a.786.786 0 0 1 .233.347.78.78 0 0 1 .345-.365.9.9 0 0 1 .228-.085 1.09 1.09 0 0 1 .243-.027c.14 0 .266.021.375.064a.72.72 0 0 1 .277.19.834.834 0 0 1 .17.303c.039.12.059.256.059.41v1.625h-.615V19.58c0-.162-.036-.284-.107-.366-.071-.083-.176-.124-.314-.124a.47.47 0 0 0-.175.033.419.419 0 0 0-.238.246.593.593 0 0 0-.034.211v1.625h-.617V19.58c0-.17-.035-.295-.104-.373-.069-.078-.17-.117-.302-.117a.497.497 0 0 0-.25.066.836.836 0 0 0-.215.18v1.87h-.615m5.334-.436c.212 0 .37-.072.472-.214.102-.143.153-.352.153-.627 0-.276-.051-.485-.153-.63-.102-.144-.26-.216-.472-.216-.216 0-.375.072-.479.218-.103.145-.155.354-.155.628s.052.482.155.626c.104.143.264.215.48.215zm0-2.157c.19 0 .361.03.516.092.155.061.288.148.399.26.11.114.195.251.255.414.06.162.09.344.09.545 0 .202-.03.385-.09.547a1.113 1.113 0 0 1-.653.68 1.391 1.391 0 0 1-.517.091c-.19 0-.364-.03-.52-.092a1.11 1.11 0 0 1-.655-.679 1.558 1.558 0 0 1-.091-.547c0-.2.03-.383.09-.545a1.111 1.111 0 0 1 .657-.674 1.41 1.41 0 0 1 .52-.092z" fill="#4F4242"/><path d="M29.735 15.862a.62.62 0 0 1 0 1.24.639.639 0 0 1-.62-.62.62.62 0 0 1 .62-.62z" fill="#ED114E"/><path d="M30.101 17.636c-1.013 0-1.566-.45-1.566-1.122 0-.448.21-.74.613-1.02a.104.104 0 0 0 .015-.16l-.31-.304a.103.103 0 0 0-.126-.015c-.507.303-.889.873-.889 1.504 0 1.342 1.128 1.78 2.121 1.78.994 0 1.963-.013 1.963-.013a.077.077 0 0 0 .055-.132l-.51-.508a.103.103 0 0 0-.073-.03l-1.293.02" fill="#ED114E"/></svg>