<svg width="36" height="36" fill="none" xmlns="http://www.w3.org/2000/svg"><path d="M18 0c2.837 0 5.52.656 7.907 1.825C31.884 4.753 36 10.895 36 18c0 9.942-8.058 18-18 18-9.94 0-18-8.057-18-18C0 8.06 8.06 0 18 0z" fill="#F2F4F7"/><path fill-rule="evenodd" clip-rule="evenodd" d="M11.202 25.795v.56a2.664 2.664 0 0 1-1.293.305c-.397 0-.734-.08-1.01-.24a1.756 1.756 0 0 1-.657-.658A1.79 1.79 0 0 1 8 24.853c0-.517.185-.952.554-1.305.369-.353.824-.53 1.365-.53.373 0 .788.098 1.245.294v.546c-.416-.237-.823-.356-1.22-.356-.407 0-.745.129-1.014.386a1.28 1.28 0 0 0-.403.965c0 .39.132.712.397.962.265.251.603.377 1.015.377.431 0 .852-.132 1.263-.397zm1.578-1.522c.356 0 .652.115.888.345.236.23.354.519.354.866 0 .338-.12.618-.36.842-.239.222-.54.334-.903.334-.35 0-.645-.113-.88-.34a1.13 1.13 0 0 1-.354-.848c0-.343.12-.628.357-.857.239-.228.538-.342.898-.342zm-.026.418a.732.732 0 0 0-.547.218.766.766 0 0 0-.214.557.73.73 0 0 0 .22.549.77.77 0 0 0 .561.213.759.759 0 0 0 .56-.216.74.74 0 0 0 .217-.55.737.737 0 0 0-.227-.553.788.788 0 0 0-.57-.218zm3.433 1.381v.458c-.232.087-.46.13-.682.13-.366 0-.658-.108-.876-.325-.218-.218-.327-.508-.327-.873 0-.369.106-.666.318-.89.212-.227.49-.34.837-.34.12 0 .229.012.324.035.096.023.215.066.356.128v.494c-.235-.15-.452-.224-.652-.224a.666.666 0 0 0-.514.22.8.8 0 0 0-.201.562c0 .239.072.429.217.57.146.14.34.21.587.21.178 0 .383-.051.613-.155zm.413-3.008h.463v1.522a.896.896 0 0 1 .72-.354.78.78 0 0 1 .42.117.712.712 0 0 1 .276.324c.06.137.09.342.09.613v1.334h-.463v-1.448a.64.64 0 0 0-.126-.414.407.407 0 0 0-.332-.157.563.563 0 0 0-.287.079c-.09.053-.19.14-.298.263v1.677H16.6v-3.556zm2.522 0h.463v3.556h-.463v-3.556zm3.023 2.425H20.5a.762.762 0 0 0 .225.535.742.742 0 0 0 .536.199c.305 0 .587-.095.845-.285v.452a1.554 1.554 0 0 1-.424.204c-.14.041-.304.062-.492.062-.259 0-.467-.054-.627-.16a1.175 1.175 0 0 1-.383-.432 1.321 1.321 0 0 1-.143-.628c0-.356.1-.646.302-.869.202-.223.464-.335.787-.335.31 0 .558.11.743.326.185.218.277.508.277.873v.058zm-1.636-.277h1.178c-.012-.184-.067-.327-.165-.427a.533.533 0 0 0-.397-.15.572.572 0 0 0-.409.15.745.745 0 0 0-.207.427zm3.504 0v.995c0 .08.028.12.082.12.056 0 .143-.041.262-.125v.283a1.53 1.53 0 0 1-.253.139.552.552 0 0 1-.2.037c-.198 0-.316-.08-.351-.235a1.01 1.01 0 0 1-.629.23.554.554 0 0 1-.57-.568.57.57 0 0 1 .16-.396 1.07 1.07 0 0 1 .451-.276l.593-.204v-.125c0-.281-.141-.422-.423-.422-.252 0-.498.131-.738.392v-.506c.18-.212.439-.319.777-.319.252 0 .455.067.608.2.05.042.096.098.137.169a.6.6 0 0 1 .078.21c.01.071.016.204.016.4zm-.455.944v-.694l-.31.119a1.05 1.05 0 0 0-.335.19.32.32 0 0 0-.098.238c0 .097.03.175.093.237a.33.33 0 0 0 .24.091c.148 0 .284-.06.41-.18zm1.6-1.878v.537l.026-.04c.224-.362.448-.543.672-.543.175 0 .357.089.547.265l-.244.407c-.161-.152-.31-.229-.448-.229-.15 0-.279.071-.388.214a.81.81 0 0 0-.164.506v1.225h-.466v-2.342h.466zm1.912.53h-.109v-.558h-.212v-.096h.534v.096h-.213v.558zm.387 0h-.1v-.654h.16l.166.522.16-.521H28v.653h-.1v-.549l-.168.549h-.098l-.177-.558v.558z" fill="#2C2C2B"/><path fill-rule="evenodd" clip-rule="evenodd" d="M24.478 12.359a1.515 1.515 0 0 0-.973-.233 2.078 2.078 0 0 0-.774-.992c-.443-.295-.982-.388-1.56-.304-.236-.565-.594-1.03-1.08-1.354-2-1.333-5.381.229-7.554 3.488-2.172 3.26-2.312 6.981-.312 8.315 1.547 1.03 3.92.329 5.922-1.55.921.088 2.018-.36 3.009-1.218.99.12 2.279-.648 3.165-1.977 1.091-1.637 1.161-3.506.157-4.175zm-10.056 7.767c-1.674-.917-1.786-3.931-.25-6.732 1.536-2.8 4.138-4.326 5.812-3.408.373.205.668.514.885.902-1.178.285-2.474 1.251-3.434 2.691-1.522 2.284-1.62 4.894-.219 5.828.143.096.297.169.459.223-1.145.768-2.338.999-3.253.496zm4.16-1.455c-1.208-.662-1.289-2.836-.181-4.856 1.108-2.02 2.985-3.12 4.192-2.459.314.173.55.448.711.795-.884.15-1.887.863-2.618 1.96-1.09 1.635-1.16 3.504-.157 4.173.077.052.159.093.244.129-.777.474-1.573.598-2.192.258zm2.92-.969c-.833-.456-.875-1.98-.095-3.402.78-1.422 2.088-2.206 2.92-1.749.832.457.874 1.979.093 3.402-.78 1.423-2.087 2.206-2.919 1.75z" fill="#F9B330"/></svg>