<svg height="36" viewBox="0 0 36 36" width="36" xmlns="http://www.w3.org/2000/svg"><g fill="none"><path d="M18 0c2.837 0 5.52.656 7.907 1.825C31.884 4.753 36 10.895 36 18c0 9.942-8.058 18-18 18-9.94 0-18-8.057-18-18C0 8.06 8.06 0 18 0z" fill="#f2f4f7"/><path d="M9.651 16.396c-1.017 0-1.812.773-1.812 1.806s.775 1.8 1.812 1.8 1.826-.78 1.826-1.806c0-1.02-.775-1.8-1.826-1.8zm.007 2.86c-.58 0-1.004-.45-1.004-1.054 0-.61.418-1.06.997-1.06.586 0 1.01.456 1.01 1.06 0 .605-.424 1.055-1.003 1.055zm2.04-2.074h.506v2.753h.808v-3.472H11.7zm-5.893-.04a.92.92 0 0 1 .89.65h.855c-.155-.832-.842-1.396-1.738-1.396-1.017 0-1.812.773-1.812 1.806 0 1.034.775 1.8 1.812 1.8.876 0 1.576-.564 1.731-1.404h-.849a.911.911 0 0 1-.882.659c-.586 0-.997-.45-.997-1.055 0-.61.404-1.06.99-1.06zm21.251.725-.593-.087c-.283-.04-.485-.135-.485-.356 0-.242.263-.363.62-.363.39 0 .64.168.694.443h.781c-.088-.698-.626-1.107-1.455-1.107-.855 0-1.421.436-1.421 1.054 0 .59.37.933 1.118 1.04l.593.087c.29.04.451.155.451.37 0 .275-.283.39-.673.39-.479 0-.748-.196-.789-.49h-.794c.074.677.606 1.154 1.576 1.154.882 0 1.468-.403 1.468-1.095 0-.617-.424-.94-1.091-1.04zm-14.448-2.833c-.296 0-.519.214-.519.51s.222.51.52.51c.295 0 .518-.215.518-.51s-.223-.51-.519-.51zm11.862 2.618c0-.752-.458-1.255-1.428-1.255-.916 0-1.428.463-1.53 1.175h.802c.04-.276.256-.504.714-.504.411 0 .613.181.613.403 0 .289-.37.362-.828.41-.62.067-1.388.281-1.388 1.087 0 .625.465 1.027 1.206 1.027.58 0 .943-.242 1.125-.624.027.342.283.564.64.564h.471v-.719h-.397v-1.564zm-.795.873c0 .463-.404.805-.896.805-.303 0-.56-.127-.56-.396 0-.342.412-.436.789-.476.364-.034.566-.114.667-.269zm-4.29-2.129c-.452 0-.83.188-1.099.504V15h-.808v4.935h.795v-.457c.27.33.653.524 1.111.524.97 0 1.704-.766 1.704-1.8 0-1.033-.747-1.806-1.704-1.806zm-.122 2.86c-.58 0-1.004-.45-1.004-1.054 0-.604.431-1.06 1.01-1.06.587 0 .997.45.997 1.06 0 .605-.424 1.055-1.003 1.055zm-3.718-2.86c-.526 0-.87.215-1.071.517v-.45h-.802v3.471h.808v-1.886c0-.53.337-.906.835-.906.465 0 .755.328.755.805v1.988h.808v-2.048c0-.873-.45-1.49-1.333-1.49zM32 18.088c0-.993-.727-1.691-1.704-1.691-1.037 0-1.799.778-1.799 1.805 0 1.081.815 1.8 1.812 1.8.842 0 1.502-.497 1.67-1.202h-.841c-.122.309-.418.483-.815.483-.52 0-.91-.322-.997-.886H32v-.309zm-2.627-.268c.128-.484.492-.719.91-.719.457 0 .808.262.888.719z" fill="#0052ff"/></g></svg>