<svg width="36" height="36" fill="none" xmlns="http://www.w3.org/2000/svg"><path d="M18 0c2.837 0 5.52.656 7.907 1.825C31.884 4.753 36 10.895 36 18c0 9.942-8.058 18-18 18-9.94 0-18-8.057-18-18C0 8.06 8.06 0 18 0z" fill="#F2F4F7"/><path d="M7.132 17.15a1.59 1.59 0 1 0 0 .78h-.671a.955.955 0 1 1 0-.78h.671zm3.324.39a1.59 1.59 0 1 0-3.18 0 1.59 1.59 0 0 0 3.18 0zm-.636 0a.954.954 0 1 1-1.907 0 .954.954 0 0 1 1.906 0m1.54-2.54h-.697v4.052h.697V15zm3.221 2.683c.004-.052.007-.105.006-.159.002-1.176-.892-1.574-1.51-1.574s-1.512.397-1.51 1.574c-.002.977.707 1.606 1.51 1.606a1.489 1.489 0 0 0 1.437-1.084h-.684a.849.849 0 0 1-.753.48c-.42 0-.798-.325-.864-.843h2.368zm-1.504-1.16a.856.856 0 0 1 .823.622h-1.647a.856.856 0 0 1 .824-.623m2.894 2.601c-.804 0-1.266-.387-1.266-1.063v-.013h.63v.014c.027.36.253.534.691.534.364 0 .59-.149.59-.388 0-.203-.153-.279-.456-.354l-.445-.113a1.659 1.659 0 0 1-.694-.3.678.678 0 0 1-.231-.554.835.835 0 0 1 .306-.672c.248-.18.55-.27.857-.255a1.42 1.42 0 0 1 .893.264.862.862 0 0 1 .326.697v.005h-.623v-.005c-.017-.29-.23-.444-.619-.444-.305 0-.494.12-.494.315 0 .216.187.302.49.37l.377.085c.619.144.954.327.954.882a.889.889 0 0 1-.335.73c-.28.19-.614.284-.952.265" fill="#EC1C24"/><path d="M17.906 17.528a1.165 1.165 0 0 0 1.204 1.198 1.15 1.15 0 0 0 .841-.346c.213-.23.332-.532.334-.846a1.294 1.294 0 0 0-.273-.786 1.105 1.105 0 0 0-.914-.418 1.165 1.165 0 0 0-1.192 1.193v.005zm2.774 1.153c0 .568-.184.93-.446 1.181a1.675 1.675 0 0 1-1.137.463c-.746 0-1.292-.43-1.481-.97h.473c.086.158.208.293.357.396.194.137.424.213.662.217a1.162 1.162 0 0 0 1.16-1.192v-.384a1.296 1.296 0 0 1-1.21.718 1.53 1.53 0 0 1-1.565-1.576 1.534 1.534 0 0 1 1.565-1.588 1.327 1.327 0 0 1 1.215.702v-.618h.407v2.651zm7.756.346h-.39v-.535c-.167.39-.574.624-1.108.618-.936-.017-1.265-.651-1.265-1.381v-1.7h.407v1.622c0 .646.29 1.08.963 1.075.624-.006.98-.379.98-1.003V16.03h.413v2.997zm3.152-1.504a1.171 1.171 0 0 0-1.204-1.198 1.186 1.186 0 0 0-.847.35c-.217.233-.337.54-.334.859a1.169 1.169 0 0 0 1.192 1.192 1.171 1.171 0 0 0 1.192-1.198v-.005zm-2.769-1.493h.39v.624a1.379 1.379 0 0 1 1.253-.708c1.009 0 1.538.819 1.538 1.593 0 .836-.607 1.571-1.538 1.571-.662 0-1.091-.384-1.23-.696v1.75h-.412V16.03zm-5.014-.084a1.58 1.58 0 1 0 0 3.158 1.58 1.58 0 0 0 0-3.158zm0 .4a1.179 1.179 0 1 1 0 2.357 1.179 1.179 0 0 1 0-2.357z" fill="#404041"/><path d="m22.832 15.947.002-.001h-.42c-.35.01-.74.128-.957.574v-.49h-.39v2.856h.406v-1.492c0-.676.32-1.038.895-1.041.131-.16.288-.298.464-.406zm-2.193 3.987c-.048.062-.1.12-.155.175a1.09 1.09 0 0 1-.062.054h8.07v-.229h-7.854z" fill="#404041"/></svg>