<svg width="36" height="36" fill="none" xmlns="http://www.w3.org/2000/svg"><path d="M18 0c2.837 0 5.52.656 7.907 1.825C31.884 4.753 36 10.895 36 18c0 9.942-8.058 18-18 18-9.94 0-18-8.057-18-18C0 8.06 8.06 0 18 0z" fill="#F2F4F7"/><path d="M5.504 18.008c.14.14.14.35 0 .49l-.122.122c-.14.14-.35.14-.49 0l-.787-.787a.338.338 0 0 1 0-.49l.122-.122c.14-.14.35-.14.49 0l.787.787zm-.087-1.504a.338.338 0 0 0-.49 0l-.122.122c-.14.14-.14.35 0 .49l.787.787c.14.14.35.14.49 0l.122-.122c.14-.14.14-.35 0-.49l-.787-.787zm2.098.7a.338.338 0 0 0-.49 0l-.122.122c-.14.14-.14.35 0 .49l.787.787c.14.14.35.14.49 0l.122-.123c.14-.14.14-.35 0-.49l-.787-.786zm.717-.717a.338.338 0 0 0-.49 0l-.122.122c-.14.14-.14.35 0 .49l.787.787c.14.14.35.14.49 0l.122-.123c.14-.14.14-.35 0-.49l-.787-.786zm-1.311-.77c.14-.14.14-.35 0-.49l-.123-.122a.338.338 0 0 0-.49 0l-.786.787c-.14.14-.14.35 0 .49l.122.122c.14.14.35.14.49 0l.787-.787zm.7.7c.14-.14.14-.35 0-.49l-.123-.122a.338.338 0 0 0-.49 0l-.787.787c-.14.14-.14.35 0 .49l.123.122c.14.14.35.14.49 0l.786-.787zm-.7 2.063c.14-.14.14-.35 0-.49l-.123-.122a.338.338 0 0 0-.49 0l-.786.787c-.14.14-.14.35 0 .49l.122.122c.14.14.35.14.49 0l.787-.787zm.7.7c.14-.14.14-.35 0-.49l-.123-.122a.338.338 0 0 0-.49 0l-.77.804c-.14.14-.14.35 0 .49l.123.122c.14.14.35.14.49 0l.77-.804zm5.736-.682c.017.035.122.192.122.192-.052.245-.21.577-.21.577l-.017.018c-.577.227-1.487.42-2.449.035a1.875 1.875 0 0 1-1.154-1.277 2.081 2.081 0 0 1 .332-1.801c.42-.56 1.085-.875 1.994-.927.35-.018 1.05.07 1.434.297h.035s.018.962 0 .997l-.017.052-.28.018-.018-.105c-.052-.28-.175-1.014-1.207-.962-.437.018-.804.245-1.066.595-.333.437-.42 1.014-.28 1.679.14.63.63 1.032.997 1.189.157.052.647.175 1.014 0 .315-.157.63-.402.77-.577zm3.532 1.014v-3.305c0-.105 0-.28-.104-.402a5.913 5.913 0 0 0-.175-.14v-.14l.892-.175.087.052v3.55c.018.333.245.368.245.368v.21l-.945-.018zm3.936-.227c-.158-.035-.245-.175-.245-.402v-2.1l-.07-.034-.892.175v.14s.157.122.175.14c.105.122.105.297.105.402v1.242c-.298.227-.56.297-.753.21-.14-.07-.227-.245-.227-.49v-1.784l-.07-.035-.892.175v.14s.158.122.175.14c.123.122.123.297.105.402v1.067c0 .21.018.28.035.367a.606.606 0 0 0 .385.455c.315.122.77 0 1.242-.315v.297h.979v-.192h-.052zm4.442 0c-.158-.035-.228-.175-.245-.402v-1.277c0-.297-.157-.857-.735-.857-.437 0-.717.262-.874.402a.663.663 0 0 0-.63-.402c-.28 0-.524.105-.77.315V16.8l-.087-.052-.892.175v.14s.158.122.175.14c.105.122.105.297.105.402v1.871h.98v-.192l-.053-.018c-.157-.035-.227-.157-.227-.402V17.36a.69.69 0 0 1 .524-.157c.14.017.298.122.298.647v1.609h.962v-.193l-.053-.017c-.157-.035-.227-.158-.245-.402V17.57c0-.035 0-.14-.017-.21a.625.625 0 0 1 .524-.157c.14.017.298.122.298.647v1.609h.962v-.193.018zm-8.692-1.154c0-.403-.14-.77-.385-1.015-.263-.262-.63-.402-1.084-.402-.84 0-1.47.612-1.47 1.417 0 .857.578 1.416 1.47 1.416.42 0 .804-.14 1.066-.402.263-.28.403-.63.403-1.014zm-1.47 1.101c-.542 0-.699-.42-.699-1.119 0-.507.157-1.12.7-1.12.542 0 .7.613.7 1.12 0 .7-.158 1.12-.7 1.12zm13.45-3.34a.37.37 0 0 1 .367-.367.37.37 0 0 1 .367.367c0 .21-.157.367-.367.367a.37.37 0 0 1-.367-.367zm.035 3.585v-1.889c0-.105 0-.28-.105-.402a6.073 6.073 0 0 0-.175-.14v-.14l.892-.175.087.053v2.099c0 .227.088.367.228.402l.052.017v.193l-.98-.018zm-.508-2.081c-.192-.332-.437-.542-.734-.612-.42-.105-.84.087-1.102.227v-1.626l-.087-.053-.892.175v.14s.157.123.175.14c.105.122.105.28.105.402v3.096l.034.017c.508.263 1.172.298 1.662.105.542-.227.787-.612.874-.892.175-.437.105-.874-.035-1.119zm-.734 1.47c-.157.261-.472.419-.717.349s-.385-.332-.385-.735v-1.137s.018 0 .035-.017c.158-.07.437-.227.805-.035.192.105.35.297.42.542.087.333.034.7-.158 1.032zm4.635.331-.053-.017c-.035 0-.105-.105-.105-.262v-1.242c0-.367-.122-.647-.332-.787-.193-.14-.455-.158-.77-.053-.367.123-.91.595-.997.7l-.017.017v.035c0 .035.052.088.07.123l.017.017h.613v-.175c0-.244.157-.367.297-.384.14-.018.227-.018.297.035.088.07.14.244.14.524v.158l-1.277.56-.017.017v.017c-.123.35-.088.63.07.822.262.298.91.333 1.854.123.07-.018.227-.035.227-.035-.017-.018-.017-.193-.017-.193zm-.823-1.031v.961c-.21.14-.42.158-.577.035-.157-.14-.192-.384-.087-.63l.665-.366z" fill="#1987C7"/></svg>