<svg height="36" viewBox="0 0 36 36" width="36" xmlns="http://www.w3.org/2000/svg"><mask id="a" fill="#fff"><path d="M0 0h6.308v6.326H0z" fill-rule="evenodd"/></mask><mask id="b" fill="#fff"><path d="M0 0h28v6.326H0z" fill-rule="evenodd"/></mask><g fill="none" fill-rule="evenodd"><path d="M18 0c2.837 0 5.52.656 7.907 1.825C31.884 4.753 36 10.895 36 18c0 9.942-8.058 18-18 18-9.94 0-18-8.057-18-18C0 8.06 8.06 0 18 0z" fill="#f2f4f7" fill-rule="nonzero"/><path d="M3.154 6.326c1.73 0 3.154-1.425 3.154-3.171A3.17 3.17 0 0 0 3.154 0 3.16 3.16 0 0 0 0 3.155a3.163 3.163 0 0 0 3.154 3.171" fill="#fff" mask="url(#a)" transform="translate(4 15)"/><path d="M4.698.696h.424c-.12-.102-.203-.153-.34-.238H1.528a2.71 2.71 0 0 0-.357.255h2.052c.272 0 .56-.12.814-.12.255 0 .509.086.662.103zm-.373 1.272c.644 0 1.306.068 1.44.084h.34c-.033-.084-.068-.152-.101-.237l-.238.017c-.271.017-.644.085-1.441.085h-.51a11.92 11.92 0 0 1-1.56-.102H.306c-.05.085-.067.152-.101.237h1.899c.288-.034.933-.085 1.713-.085h.509zm-.136-.458c.645 0 1.238.034 1.509.068l.187.016c-.051-.101-.084-.135-.136-.22l-.17.017c-.135 0-.745.068-1.373.068h-.271c-1.018 0-1.357-.085-1.577-.085H.56a1.123 1.123 0 0 0-.153.238H2.12a14.536 14.536 0 0 1 1.815-.102zm1.17-.611c.085.085.136.153.204.237L5.41 1.12c-.271 0-.576-.051-1.204-.051l-.255-.017c-.746 0-1.356.102-1.543.102H.713C.797 1.069.848 1 .933.916h1.83C3.02.95 3.376 1 3.953 1h.254c.509 0 .797-.051.95-.068zM4.325 2.425c.627 0 1.068.085 1.323.085h.576c-.017-.102-.034-.152-.051-.237h-.441c-.136.017-.73.102-1.407.085l-.51.017c-.525 0-1.237-.068-1.56-.102H.136a1.233 1.233 0 0 0-.067.237h2.12c.118 0 1-.085 1.628-.085zm-.373.44c-.51 0-1.188.103-1.408.103H.017c0-.084 0-.17.017-.254h2.442c.272.017.73.102 1.476.102h.254c.814 0 1.137-.085 1.289-.085l.78-.017c0 .085.017.152.017.254l-.916-.017c-.237 0-.661-.084-1.17-.084h-.254zm.424-2.61a3.096 3.096 0 0 0-2.46 0zm.678 2.9c-.424 0-.73.1-.983.1-.255 0-.594-.083-.798-.083H0a3.16 3.16 0 0 0 3.155 3.154c1.73 0 3.137-1.424 3.137-3.171zm19.809.882c.05.22.339.238.424.238.034 0 .22 0 .305-.103.05-.033.068-.067.068-.118 0-.136-.254-.204-.678-.288-.255-.052-.781-.17-.781-.645 0-.204.068-.373.187-.492.169-.186.475-.271.865-.271.66 0 1.034.254 1.085.729h-.73c0-.085-.067-.203-.372-.203-.153 0-.221.033-.254.067-.034.017-.034.034-.034.068 0 .136.237.186.49.237.069.018.12.034.188.034.254.069.78.17.78.679 0 .22-.068.39-.221.525-.237.255-.61.306-.9.306-.337 0-.61-.068-.795-.203a.716.716 0 0 1-.34-.577zm-2.188.186a.422.422 0 0 0 .322-.118c.118-.12.17-.288.17-.527 0-.237-.068-.423-.17-.525a.422.422 0 0 0-.322-.12.42.42 0 0 0-.322.12c-.12.119-.187.306-.187.525 0 .17.034.39.17.527.085.085.203.118.339.118zm1.22.509h-.643l-.085-.203v-.017.017a.937.937 0 0 1-.662.27c-.305 0-.542-.101-.746-.287a1.377 1.377 0 0 1-.34-.916c0-.39.136-.73.357-.95.187-.186.44-.288.763-.288.255 0 .475.085.628.237v.017l.084-.187h.645zM19.42 3.578c0-.22-.068-.406-.187-.525-.068-.085-.186-.12-.322-.12a.446.446 0 0 0-.322.12c-.102.102-.17.288-.17.525 0 .239.068.408.17.527.085.085.203.118.339.118s.238-.033.322-.118c.136-.136.17-.357.17-.527zm-.967 1.934h-.746V2.425h.627l.085.17v.017-.017a.944.944 0 0 1 .644-.237c.305 0 .56.102.763.288.22.22.34.56.34.95 0 .356-.12.695-.34.916a1.01 1.01 0 0 1-.73.288.944.944 0 0 1-.643-.237v-.017zm9.09-2.578H28v-.51h-.458v-.66h-.746v.66h-.39v.51h.39v1.239a.62.62 0 0 0 .135.406c.17.17.458.187.645.187.17 0 .289-.017.39-.034H28v-.593l-.051.016c-.067.017-.118.017-.186.017a.414.414 0 0 1-.187-.033.366.366 0 0 1-.034-.17zM20.42 4.732h.747V1.578h-.747zm-6.495 0h.746V1.578h-.746zm1.916-.627c.085.085.204.118.339.118.153 0 .255-.033.34-.118.153-.136.169-.357.169-.527 0-.17-.016-.39-.17-.525-.067-.085-.186-.12-.34-.12-.134 0-.253.035-.32.12-.153.136-.17.356-.17.525 0 .17.016.39.152.527zm.339-1.747c.39 0 .696.118.933.356.22.203.322.509.322.864 0 .357-.102.662-.322.866-.237.237-.542.356-.933.356-.373 0-.695-.12-.915-.356-.221-.204-.323-.51-.323-.866 0-.355.102-.661.323-.881.22-.221.542-.34.915-.34zm-4.104 1.747c.085.085.204.118.339.118.136 0 .255-.033.34-.118.135-.136.169-.357.169-.527 0-.17-.034-.39-.17-.525-.084-.085-.186-.12-.34-.12a.462.462 0 0 0-.338.12c-.135.136-.17.356-.17.525 0 .17.035.39.17.527zm.339-1.747c.373 0 .696.118.916.356.22.203.339.509.339.864 0 .357-.118.662-.34.866-.22.237-.542.356-.915.356s-.695-.12-.916-.356c-.22-.204-.34-.51-.34-.866 0-.355.12-.661.34-.881.22-.221.543-.34.916-.34zM10.973 3.46l-.017.068c-.068.78-.645 1.289-1.46 1.289-.456 0-.863-.153-1.152-.441a1.666 1.666 0 0 1-.475-1.187c0-.51.17-.916.475-1.222.289-.288.696-.44 1.153-.44.78 0 1.357.458 1.442 1.136v.068h-.78l-.017-.051c-.034-.272-.322-.492-.645-.492a.741.741 0 0 0-.542.204c-.17.169-.272.457-.272.797 0 .304.102.577.272.746a.741.741 0 0 0 .542.204c.374 0 .628-.221.679-.628V3.46z" fill="#2f5693" mask="url(#b)" transform="translate(4 15)"/></g></svg>