<svg height="36" viewBox="0 0 36 36" width="36" xmlns="http://www.w3.org/2000/svg"><mask id="a" fill="#fff"><path d="M0 0h1.464v2.521H0z" fill-rule="evenodd"/></mask><mask id="b" fill="#fff"><path d="M0 0h3.418v3.418H0z" fill-rule="evenodd"/></mask><g fill="none" fill-rule="evenodd"><path d="M18 0c2.837 0 5.52.656 7.907 1.825C31.884 4.753 36 10.895 36 18c0 9.942-8.058 18-18 18-9.94 0-18-8.057-18-18C0 8.06 8.06 0 18 0z" fill="#f2f4f7" fill-rule="nonzero"/><g fill="#968f86"><path d="M9.852 16.485a2.405 2.405 0 0 0-.526-.054c-.29 0-.962.1-.962 1.037v.48c0 .964.737 1.039.962 1.039.268 0 .487-.043.528-.054.032-.01.097-.03.097-.11v-.217c0-.067-.038-.106-.101-.106h-.01c-.071.006-.317.027-.508.027-.295 0-.438-.19-.438-.578v-.481c0-.393.139-.576.438-.576.19 0 .437.019.512.026h.006c.063 0 .1-.04.1-.104v-.22c0-.08-.067-.101-.098-.11m.884 1.003c0-.407.135-.589.438-.589.305 0 .44.182.44.59v.441c0 .41-.135.591-.44.591-.303 0-.438-.182-.438-.59zm.438-1.057c-.624 0-.968.376-.968 1.057v.442c0 .682.344 1.058.968 1.058.626 0 .97-.376.97-1.058v-.442c0-.68-.344-1.057-.97-1.057zm2.673 2.096h-.602c-.172 0-.22-.053-.22-.246v-1.723a.1.1 0 0 0-.1-.1H12.6a.1.1 0 0 0-.1.1v1.723c0 .627.422.707.79.707.181 0 .465-.024.564-.047.056-.012.094-.033.094-.103v-.209a.1.1 0 0 0-.1-.102m.867-1.625c.07-.005.195-.01.255-.01.316 0 .456.097.456.315v.03c0 .253-.12.344-.456.344-.046 0-.182-.005-.255-.008zm.807 1.02c.28-.123.427-.36.427-.686v-.029c0-.5-.347-.776-.98-.776-.231 0-.467.016-.646.043-.058.01-.135.032-.135.134v2.252c0 .057.046.102.1.102h.329a.1.1 0 0 0 .098-.102v-.85c.015.002.03.002.048.003.069.004.149.01.207.01h.025l.46.854.005.006c.016.034.038.08.094.08h.399c.044 0 .074-.033.074-.077 0-.008 0-.027-.01-.043zm2.559-1.464h-.324a.098.098 0 0 0-.1.098v1.469c0 .385-.105.515-.41.515-.308 0-.41-.13-.41-.515v-1.469a.098.098 0 0 0-.102-.098h-.324a.098.098 0 0 0-.1.098v1.469c0 .64.313.963.935.963.621 0 .936-.323.936-.963v-1.469a.098.098 0 0 0-.1-.098m2.17 0h-.36c-.05 0-.083.041-.096.075l-.392.975c-.013.033-.023.041-.023.044-.003-.003-.012-.011-.025-.044l-.393-.974c-.013-.035-.046-.076-.095-.076h-.364c-.05 0-.088.036-.088.084 0 .013.004.025.009.041l.495 1.136c.055.128.118.207.196.248v.893a.1.1 0 0 0 .098.102h.328a.1.1 0 0 0 .098-.102v-.893c.079-.041.14-.12.196-.248l.499-1.139.002-.005c.003-.009.007-.018.007-.033 0-.047-.041-.084-.092-.084m1.886 0h-1.6a.1.1 0 0 0-.103.098v.258c0 .055.044.095.102.095h.537v1.951a.1.1 0 0 0 .101.102h.324a.1.1 0 0 0 .101-.102v-1.951h.538c.057 0 .101-.04.101-.095v-.258a.099.099 0 0 0-.1-.098m1.758.016a4.542 4.542 0 0 0-.594-.033c-.257 0-.856.104-.856 1.067v.406c0 .68.311 1.067.856 1.067.254 0 .404-.018.546-.037l.045-.006a.097.097 0 0 0 .087-.096v-1.104c0-.056-.039-.098-.092-.098h-.032c-.052 0-.091.042-.091.098v1.01a4.097 4.097 0 0 1-.463.024c-.42 0-.641-.296-.641-.858v-.406c0-.712.349-.86.641-.86.243 0 .347.01.577.032h.019c.057 0 .085-.029.085-.085v-.033c0-.035-.015-.079-.087-.088m.756.187c.1-.008.26-.011.386-.011.51 0 .71.139.71.495v.016c0 .37-.18.495-.71.495l-.217-.001-.17-.002zm.75 1.177c.383-.08.562-.297.562-.677v-.016c0-.493-.277-.704-.926-.704-.14 0-.397.008-.514.014a.102.102 0 0 0-.088.099v2.31c0 .055.04.098.09.098h.034c.05 0 .092-.043.092-.098v-1.001l.386.002h.12l.689 1.054c.013.016.046.043.078.043h.043c.052 0 .088-.035.088-.085a.136.136 0 0 0-.022-.064zm1.801.934c-.437 0-.658-.288-.658-.858v-.406c0-.569.22-.859.658-.859s.658.29.658.86v.406c0 .57-.221.857-.658.857m0-2.332c-.564 0-.875.38-.875 1.068v.406c0 .688.31 1.067.875 1.067.563 0 .873-.379.873-1.067v-.406c0-.688-.31-1.068-.873-1.068m2.789.018h-.033c-.05 0-.092.043-.092.098v1.506c0 .494-.182.714-.593.714-.406 0-.595-.227-.595-.714v-1.506c0-.054-.042-.098-.092-.098h-.032c-.052 0-.092.043-.092.098v1.506c0 .601.28.919.811.919.53 0 .81-.318.81-.919v-1.506c0-.055-.04-.098-.092-.098"/><path d="M.537 1.293c-.099 0-.225-.005-.322-.01V.207C.303.202.413.199.537.199c.505 0 .711.145.711.502v.055c0 .382-.206.537-.711.537M.537 0C.402 0 .219.009.088.017A.102.102 0 0 0 0 .114v2.308c0 .056.041.099.092.099h.032c.052 0 .091-.043.091-.099v-.94c.068.004.192.011.322.011.624 0 .927-.242.927-.737V.701C1.464.236 1.152 0 .537 0" mask="url(#a)" transform="translate(30.536 16.44)"/><path d="M2.248 1.709a.539.539 0 1 1-.355-.507l.494-1.06a1.709 1.709 0 1 0 .987 1.187H2.092a.536.536 0 0 1 .156.38" mask="url(#b)" transform="translate(4 16)"/></g></g></svg>