<svg width="36" height="36" fill="none" xmlns="http://www.w3.org/2000/svg"><defs><linearGradient id="a" x1="8.568" y1="23.583" x2="28.343" y2="8.223" gradientUnits="userSpaceOnUse"><stop offset=".5" stop-color="#00406E"/><stop offset=".91" stop-color="#6593B9"/><stop offset="1" stop-color="#00406E"/></linearGradient></defs><path d="M18 0c2.837 0 5.52.656 7.907 1.825C31.884 4.753 36 10.895 36 18c0 9.942-8.058 18-18 18-9.94 0-18-8.057-18-18C0 8.06 8.06 0 18 0z" fill="#F2F4F7"/><path d="M31.84 16.247a13.735 13.735 0 0 1-1.017 6.544c-2.856 6.76-10.503 9.864-17.071 6.92-6.576-2.944-9.592-10.8-6.736-17.56a12.928 12.928 0 0 1 13.511-7.928 13.912 13.912 0 0 0-15.36 8.424c-3.087 7.296.16 15.776 7.249 18.936 7.096 3.176 15.343-.168 18.415-7.472a14.528 14.528 0 0 0 1.008-7.864z" fill="#929292"/><path d="M18.4 29.583c6.627 0 12-5.373 12-12s-5.373-12-12-12c-6.628 0-12 5.373-12 12s5.372 12 12 12z" fill="url(#a)"/><path d="M10.864 17.335c0 1.256.376 1.672 1.336 1.672h1.888v.976h-1.944c-.664 0-1.168-.048-1.704-.496-.56-.456-.84-1.184-.84-2.208 0-1.976.816-2.896 2.576-2.896h1.92v.96H12.2c-.96 0-1.336.6-1.336 1.992zm6.336-.552H20v3.2h-2.552c-.68 0-1.216-.04-1.784-.496-.584-.456-.864-1.184-.864-2.208 0-1.976.848-2.896 2.648-2.896H20v.968h-2.552c-.944 0-1.328.608-1.328 1.88 0 1.192.376 1.744 1.328 1.744h1.336v-.992H17.2v-1.2zm6.8 1.896-1.448-4.296h-1.753v5.6h1.216l-.12-4.4 1.505 4.4h1.264l1.455-4.36-.096 4.36H27.2v-5.6h-1.752L24 18.679z" fill="#fff"/></svg>