<svg height="36" viewBox="0 0 36 36" width="36" xmlns="http://www.w3.org/2000/svg"><mask id="a" fill="#fff"><path d="M0 6.295h28V0H0z" fill-rule="evenodd"/></mask><g fill="none" fill-rule="evenodd"><path d="M18 0c2.837 0 5.52.656 7.907 1.825C31.884 4.753 36 10.895 36 18c0 9.942-8.058 18-18 18-9.94 0-18-8.057-18-18C0 8.06 8.06 0 18 0z" fill="#f2f4f7" fill-rule="nonzero"/><g fill="#1d1d1b"><path d="M6.523 19.83c-.173.08-.45.13-.713.13-.774 0-1.196-.471-1.196-1.096 0-.702.486-1.12 1.206-1.12.286 0 .533.063.7.138l.131-.457c-.129-.07-.43-.155-.855-.155C4.73 17.27 4 17.94 4 18.89c0 .928.656 1.55 1.718 1.55.428 0 .763-.085.91-.158z"/><path d="M7.855 20.024c-.359 0-.622-.296-.622-.74 0-.384.198-.747.634-.747.431 0 .618.381.618.737 0 .483-.278.75-.626.75zm-.005.417c.637 0 1.245-.4 1.245-1.188 0-.65-.482-1.133-1.205-1.133-.75 0-1.257.48-1.257 1.181 0 .697.537 1.14 1.212 1.14zm1.44-.055h.585v-1.279c0-.058.007-.125.026-.17a.526.526 0 0 1 .49-.347c.336 0 .476.25.476.6v1.196h.585v-1.269c0-.762-.468-.997-.86-.997a.875.875 0 0 0-.765.411h-.014l-.03-.356h-.51c.01.19.018.411.018.67zm3.57-.362c-.36 0-.622-.296-.622-.74 0-.384.198-.747.635-.747.43 0 .617.381.617.737 0 .483-.278.75-.625.75zm-.005.417c.637 0 1.245-.4 1.245-1.188 0-.65-.482-1.133-1.205-1.133-.751 0-1.257.48-1.257 1.181 0 .697.537 1.14 1.212 1.14zm3.282-.556a1.297 1.297 0 0 1-.507.099c-.409 0-.745-.255-.745-.709-.003-.405.28-.708.743-.708.23 0 .382.047.486.099l.107-.432a1.672 1.672 0 0 0-.614-.114c-.842 0-1.323.522-1.323 1.185 0 .672.48 1.136 1.23 1.136.315 0 .576-.067.707-.128zm1.319.139c-.36 0-.622-.296-.622-.74 0-.384.197-.747.634-.747.43 0 .618.381.618.737 0 .483-.278.75-.626.75zm-.005.417c.637 0 1.245-.4 1.245-1.188 0-.65-.482-1.133-1.205-1.133-.751 0-1.258.48-1.258 1.181 0 .697.537 1.14 1.213 1.14zm3.809-.055h.584V19.09c0-.064.004-.12.026-.17a.527.527 0 0 1 .485-.327c.344 0 .482.252.482.6v1.194h.584v-1.27c0-.76-.465-.996-.849-.996a.876.876 0 0 0-.719.38h-.009v-1.367h-.584zm2.8-2.554c.214 0 .344-.147.344-.322-.003-.177-.132-.32-.342-.32s-.344.145-.344.32.13.322.338.322zm-.292 2.554h.584v-2.21h-.584z"/><path d="M20.753 5.386h.584V2.133h-.584zm1.032 0h.584V2.133h-.584zm1.278-2.554c.214 0 .344-.147.344-.322-.002-.177-.132-.32-.342-.32s-.344.145-.344.32.13.322.338.322zm-.292 2.554h.584v-2.21h-.584zm1.615-1.224c0-.043.01-.09.021-.134a.596.596 0 0 1 .58-.457c.405 0 .624.325.624.701 0 .45-.25.726-.64.726a.589.589 0 0 1-.572-.435.743.743 0 0 1-.013-.142zm-.584 2.132h.584V5.125h.01c.13.201.396.316.703.316.552 0 1.107-.399 1.107-1.2 0-.7-.487-1.12-1.016-1.12-.387 0-.674.153-.856.417h-.009l-.028-.363h-.514c.011.215.02.462.02.745zm2.504-1.017c.184.095.44.164.74.164.64 0 .954-.31.954-.699-.002-.343-.197-.544-.636-.675-.302-.09-.426-.158-.426-.305 0-.142.12-.235.329-.235.222 0 .427.085.523.138l.115-.405a1.424 1.424 0 0 0-.641-.14c-.555 0-.893.311-.893.703-.003.274.198.517.665.65.294.086.395.157.395.31 0 .14-.111.247-.382.247-.218 0-.488-.092-.625-.177zM15.479 2.664c.065-.013.193-.028.375-.028.408 0 .684.161.684.515 0 .361-.282.566-.733.566-.136 0-.243-.009-.326-.032zM14.9 5.385h.579V4.14c.086.02.197.027.32.027.443 0 .805-.108 1.046-.335.18-.164.272-.412.272-.695a.859.859 0 0 0-.318-.686c-.199-.162-.51-.257-.947-.257-.43 0-.734.03-.952.064z" mask="url(#a)" transform="translate(4 15)"/></g><path d="M17.488 0c-.79.275-.999.547-1.425.89-1.21.318-2.27-.192-3.195-.614.437.315.868.985 1.051 1.934.697-.21 1.537-.774 2.277-1.301a3.866 3.866 0 0 0 1.292-.91" fill="#e63137" mask="url(#a)" transform="translate(4 15)"/></g></svg>