<svg width="36" height="36" fill="none" xmlns="http://www.w3.org/2000/svg"><path d="M18 0c2.837 0 5.52.656 7.907 1.825C31.884 4.753 36 10.895 36 18c0 9.942-8.058 18-18 18-9.94 0-18-8.057-18-18C0 8.06 8.06 0 18 0z" fill="#F2F4F7"/><path d="M15.893 19.83a1.98 1.98 0 0 1-1.022.264c-1.158 0-1.839-.805-1.839-2.17 0-.97.37-1.61.865-1.948a1.98 1.98 0 0 1 1.042-.312 1.81 1.81 0 0 1 .817.188c.149.08.286.18.409.296l-.535.723a1.063 1.063 0 0 0-.665-.329c-.494 0-.715.427-.715 1.414 0 .55.074.88.205 1.061a.636.636 0 0 0 .5.229c.287-.014.558-.137.758-.343l.066-.06.496.675a1.69 1.69 0 0 1-.382.312zm3.667-.329a1.721 1.721 0 0 1-1.39.584c-1.143 0-1.89-.856-1.89-2.178s.755-2.203 1.89-2.203a1.766 1.766 0 0 1 1.43.634c.337.394.484.854.484 1.536 0 .724-.163 1.216-.525 1.627zm-.898-2.76a.583.583 0 0 0-.476-.224.593.593 0 0 0-.566.428 2.96 2.96 0 0 0-.119.938c-.018.359.03.718.141 1.06a.613.613 0 0 0 .558.345c.476 0 .683-.429.683-1.43.002-.56-.072-.93-.22-1.118zm4.52 3.369a.977.977 0 0 1-.327-.409 1.58 1.58 0 0 1-1.11.409c-.592 0-1.1-.28-1.242-.683a2.531 2.531 0 0 1-.09-.837v-2.706l1.085-.204v2.703c-.018.234.012.47.09.69a.444.444 0 0 0 .387.205.818.818 0 0 0 .682-.408v-2.96l1.053-.222v3.214a1.22 1.22 0 0 0 .255.764l-.783.444zm4.316-.503a1.5 1.5 0 0 1-1.126.479 1.768 1.768 0 0 1-.878-.223c.014.114.02.23.016.345v1.316l-1.06.278v-4.866a5.357 5.357 0 0 0-.066-1.06l.977-.172c.038.129.063.26.073.395a1.408 1.408 0 0 1 1.036-.395c.3 0 .592.09.84.256.454.302.783.846.783 1.816-.01.904-.16 1.363-.595 1.831zm-.723-2.656a.509.509 0 0 0-.525-.354 1.022 1.022 0 0 0-.732.321v2.044c.172.146.387.232.613.245.544 0 .756-.37.756-1.33a3.012 3.012 0 0 0-.112-.924v-.002zm4.651 3.257a1.18 1.18 0 0 1-.59-.508 2.04 2.04 0 0 1-.256.22 1.441 1.441 0 0 1-.846.231c-.938 0-1.447-.476-1.447-1.316 0-.985.683-1.447 2.021-1.447.082-.001.165.002.247.01v-.173c0-.468-.09-.626-.492-.626-.354 0-.764.174-1.226.479l-.47-.79c.215-.136.444-.252.682-.344a2.829 2.829 0 0 1 1.15-.248c.708 0 1.192.264 1.358.732.073.245.098.502.073.756l-.024 1.414c0 .46.024.656.394.936l-.574.674zm-.936-2.043c-.764 0-1.022.139-1.022.64a.502.502 0 0 0 .486.551.8.8 0 0 0 .575-.288l.016-.903h-.055zm-19.918-.832a9.866 9.866 0 0 0-.409-.184c.135-.027.274-.06.409-.098.95-.257 1.557-.666 1.412-.926-.145-.26-.95-.27-1.86-.055a6.45 6.45 0 0 0-.38.102 4.31 4.31 0 0 0 .184-.29c.384-.676.458-1.255.205-1.363-.254-.108-.77.27-1.214.905a4.435 4.435 0 0 0-.18.289c-.029-.107-.063-.205-.102-.32-.256-.719-.67-1.213-.944-1.17-.274.043-.362.637-.152 1.395.033.113.068.223.109.33a3.151 3.151 0 0 0-.366-.176c-.879-.421-1.741-.583-1.96-.368-.218.214.31.776 1.245 1.242.136.067.269.128.398.184-.153.027-.314.06-.478.098-1.226.293-2.3.818-2.29 1.177.01.36 1.178.37 2.509 0a8.9 8.9 0 0 0 .504-.153c-.102.129-.204.27-.308.409-.817 1.185-1.277 2.49-.897 2.72.38.229 1.396-.773 2.123-2.04a6.99 6.99 0 0 0 .245-.468c.033.16.074.325.12.499.379 1.355 1.08 2.475 1.497 2.301.416-.174.298-1.471-.162-2.73a7.516 7.516 0 0 0-.184-.456c.137.082.282.16.433.237 1.122.564 2.148.752 2.248.409.1-.343-.715-1.001-1.755-1.5z" fill="#44B6E8"/><path d="M7.533 17.727a5.763 5.763 0 0 1-1.465.307c-.911.705-1.545 1.475-1.367 1.77.178.294 1.067-.023 2.027-.654.15-.39.344-.763.58-1.108.076-.112.152-.216.225-.315zm-.208-.861a5.227 5.227 0 0 1-.31-.144 3.878 3.878 0 0 1-.734-.466c-.926-.028-1.694.117-1.805.377-.11.259.48.543 1.378.692a5.546 5.546 0 0 1 1.107-.382c.119-.03.247-.055.364-.078zm.515-.7a3.651 3.651 0 0 1-.09-.263 2.453 2.453 0 0 1-.104-.683c-.513-.454-1.022-.699-1.245-.587-.223.113-.116.542.25 1.063.313.072.617.18.905.323.1.047.194.098.284.147zm1.661.178a5.1 5.1 0 0 1 .305-.084c.267-.067.541-.107.817-.118.484-.444.69-.854.509-1.005-.182-.152-.646-.031-1.191.271a2.411 2.411 0 0 1-.284.7c-.054.073-.103.16-.156.236zm-1.077 1.844a5.638 5.638 0 0 1-.858 1.28c-.106 1.192.074 2.218.478 2.247.405.028.775-.9.95-2.021a4.83 4.83 0 0 1-.484-1.139 7.79 7.79 0 0 1-.086-.367zm.29-2.212a3.124 3.124 0 0 1 .601-.77c-.014-.574-.182-.983-.409-1.008-.226-.024-.472.31-.613.834.146.21.26.44.34.683.03.086.057.174.081.261zm3.699 1.354c-.039-.246-.631-.497-1.416-.632-.268.15-.555.264-.852.341-.11.03-.219.055-.327.078.106.04.204.09.323.143.289.138.564.305.821.496.881.012 1.494-.163 1.451-.427zm-3.013.573c.046.109.091.221.134.342.12.335.206.682.253 1.036.779.77 1.555 1.21 1.782.946.227-.264-.153-.991-.778-1.75a4.695 4.695 0 0 1-1.055-.394c-.124-.063-.235-.118-.337-.18z" fill="#248DCD"/><path d="M10.962 17.756a4.966 4.966 0 0 0-.833-.496 4.878 4.878 0 0 0-.323-.145c.108-.02.216-.045.327-.076.3-.076.59-.19.86-.341.239-.143.358-.288.3-.397-.057-.108-.316-.171-.666-.16-.276.013-.55.053-.817.12a4.373 4.373 0 0 0-.305.083c.053-.075.102-.155.15-.237.132-.216.228-.452.286-.699.044-.223.016-.384-.092-.43-.109-.048-.317.036-.532.226a2.798 2.798 0 0 0-.603.772 3.149 3.149 0 0 0-.08-.26 2.6 2.6 0 0 0-.355-.684c-.149-.204-.302-.308-.423-.286-.12.023-.204.204-.204.476.002.232.037.461.104.683.027.09.057.178.09.263-.09-.049-.184-.1-.284-.147a4.166 4.166 0 0 0-.911-.325c-.313-.067-.556-.06-.644.033-.088.094.014.307.274.527.226.183.472.339.733.466.104.053.205.1.31.143-.116.023-.238.047-.365.078a5.535 5.535 0 0 0-1.105.382c-.366.176-.595.364-.58.509.014.145.334.23.798.204a5.766 5.766 0 0 0 1.463-.306 9.282 9.282 0 0 0-.224.314 5.338 5.338 0 0 0-.58 1.108c-.15.409-.172.734-.017.817.155.084.503-.118.854-.504a5.638 5.638 0 0 0 .858-1.28c.025.119.055.241.092.368.111.396.272.776.478 1.13.22.362.45.573.614.51.163-.064.235-.434.173-.914a5.044 5.044 0 0 0-.386-1.378c.102.062.204.12.329.18.337.174.694.307 1.063.395.355.077.613.059.658-.078.045-.137-.143-.38-.485-.644z" fill="#fff"/></svg>