<svg height="36" viewBox="0 0 36 36" width="36" xmlns="http://www.w3.org/2000/svg"><g fill="none" fill-rule="evenodd"><path d="M18 0c2.837 0 5.52.656 7.907 1.825C31.884 4.753 36 10.895 36 18c0 9.942-8.058 18-18 18-9.94 0-18-8.057-18-18C0 8.06 8.06 0 18 0z" fill="#f2f4f7" fill-rule="nonzero"/><path d="M4.148 22.898h27.704V12.149H4.148z" fill="#fefefe"/><path d="M4.805 22.24h26.388v-9.434H4.805z" fill="#bc0e0d"/><path d="M4.635 22.411h26.73v-9.776H4.635zm.342-.341h26.047v-9.092H4.977z" fill="#b99400"/><path d="M4 23.046h28V12H4zm.148-.147h27.704v-10.75H4.148z" fill="#b99400"/><path d="M29.04 15.828c-.25-.452.085-.8.404-.7.289.092.335.4.195.586-.17.224-.745.447-.745.447-.046 0 .199-.237.146-.333" fill="#14120f"/><path d="M8.828 15.217c.695-.47 1.441-.901 2.095-1.007.148-.024.274-.035.386-.027.079.006.248.017.439.103.3.154.355.564-.008 1.009-.302.369-1.104.784-1.577.939-.199.064-.855.252-1.465.34-.572.763-.833 1.086-1.164 1.976-.248.664-.168 1.293.349 1.405.193.043.379-.06.574-.212.137-.108.267-.236.367-.357.084-.102.318-.508.363-.615.518-1.207-.201-1.096-.54-.537-.22.364-.131.688-.232.7-.063.01-.108-.29-.066-.525.106-.594.63-1.165 1.159-1.06.313.063.38.429.3.875-.12.673-.7 1.464-1.094 1.75-.212.154-.711.48-1.301.363-.361-.072-.842-.388-.939-1.117a2.696 2.696 0 0 1 .248-1.485c.199-.424.44-.846.751-1.248a1.208 1.208 0 0 1-.444-.26c-.514-.516-.121-1.001.045-1.11.33-.215.973-.135.967 0-.003.063-.672.023-.755.532-.056.343.134.53.359.624.32-.378.707-.735 1.183-1.056zm.13 1.023c.289-.04.576-.111.917-.23.249-.084.522-.187.793-.354.524-.32 1.221-.973.742-1.171-.314-.13-1.04.279-1.742.94-.114.105-.625.719-.688.788-.007.006-.009.01-.022.027zm12.578.925c.251-.09.542-.148.709-.098.374.112.413.449.319.812l.352-.044c-.001-.372.394-.81.796-.945.467-.158 1.121-.121 1.22.2.114.379-.393.639-.713.745-.079.024-.155.052-.203.06-.093.022-.188.04-.283.06.174.225.567.205.635.23-.015.032-.159.298-.159.298-.108-.01-.529.036-.783.198-.317.202-.603.589-.415.809.215.252.631-.04.917-.264.329-.26.525-.461.834-.95.731-1.337 1.819-3.306 1.852-3.323h.777s-2.126 3.884-2.169 3.976c-.112.233-.328.554-.108.607.067.015.176.019.407-.238.122-.138.279-.35.481-.672.691-1.221 2.039-3.653 2.076-3.673h.81s-2.125 3.884-2.169 3.976c-.112.233-.306.574-.115.633.374.117 1.576-1.752 1.964-2.404l.826-.102c-.117.957-.029.928-.041 1.492-.009.43-.158.877-.397 1.198.485.02.947-.045 1.005-.03.164.05-.245.464-.479.532-.318.092-.728-.035-.89-.163a.867.867 0 0 1-.096.049c-.355.156-.714.186-1.018.084-.212-.071-.449-.2-.491-.388-.323.304-.624.485-.887.43-.304-.061-.451-.341-.484-.588-.321.337-.727.655-1.074.602-.421-.063-.547-.55-.423-.807a7.493 7.493 0 0 1-.299.28c-.365.312-.634.423-.793.475-.551.182-.788-.083-.873-.364-.208-.696.993-1.47 1.355-1.524 0 0-.353-.085-.502-.24a5.086 5.086 0 0 0-.569.139 3.553 3.553 0 0 1-.141.283c-.394.71-.975 1.445-1.487 1.675-.76.342-.94-.196-.96-.31-.098-.55.192-1.46.601-2.188a8.932 8.932 0 0 1-.61.245c-.13.749-.679 1.975-1.515 2.297-.551.213-.642-.448-.582-.7l-.92 2.106s-.708-.002-.71-.006c.391-.848 1.329-2.976 1.329-2.983-.359.639-.656 1.174-1 1.444-.269.212-.872.358-.938-.158-.067-.52 1.11-2.212.572-2.212-.294 0-.466.495-.562.717l-.811 1.842h-.716c.661-1.56.815-1.814.995-2.282.065-.17-.068-.282-.158-.277-.312.017-.613.867-1.353 2.559h-.717l.77-1.774c-.26.345-.975 1.609-1.597 1.764-.325.08-.544-.298-.49-.732-.184.373-.949 1.093-1.471.523-.423-.462.202-1.593.535-1.99.274-.327.839-.8 1.271-.896.337-.074.546.066.643.296.044-.114.094-.232.097-.234h.743c-.822 1.857-1.165 2.322-1.055 2.432.048.046.135-.075.295-.268.186-.225.402-.546.61-.87.305-.476.499-.75.746-1.177h.913l-.057.137c.347-.307.526-.298.703-.263.235.046.301.186.324.263.036-.03.628-.581 1.159-.343.357.159.072.84-.131 1.282-.114.247-.318.753-.468 1.069-.188.393.013.324.266-.026.184-.255.323-.502.559-.903.386-.657.853-1.444 1.078-1.922l.808.002-.223.513a.724.724 0 0 1 .714-.148c.199.064.356.284.372.56.34-.105.608-.201.83-.294.389-.621.96-1.476 1.537-2.014a3.02 3.02 0 0 1 .556-.44c.322-.18.623-.168.789.034.398.485-.517 1.299-1.202 1.784a8.78 8.78 0 0 1-.841.51zm-9.5.853c.099-.22.177-.39.085-.505-.168-.208-.668.294-1.027.9-.251.425-.607 1.069-.363 1.212.13.076.325-.114.504-.345.19-.218.641-.938.801-1.262zm6.316.136-.245.556c-.051.116-.349.798-.158.958.219.182.708-.5.958-.985.237-.462.509-1.1.197-1.202-.268-.088-.579.285-.752.673zm3.525-1.56c.521-.355.989-.666 1.263-1.134.05-.085.134-.417-.079-.376-.22.043-.707.735-1.184 1.51zm-1.03 1.823c-.137.312-.517 1.08-.2 1.172.333.092.646-.46.863-.892.214-.427.508-1.092.206-1.207-.236-.088-.535.332-.68.565-.072.135-.136.257-.189.362zm2.809-.755.083-.032c.39-.155.786-.403.612-.54-.131-.103-.65.2-.695.572zm4.515 1.963c.124-.126.227-.282.252-.446.069-.44.042-.79.056-1.13-.393.49-.793 1.027-1.172 1.45.229-.015.551.057.864.126z" fill="#090500"/><g fill="#fefefe"><path d="M8.625 15.014c.95-.642 2.014-1.132 2.769-.983.425.084.562.549.143 1.06-.302.37-1.104.785-1.577.94-.2.065-.83.265-1.465.34-.572.763-.832 1.086-1.164 1.976-.248.665-.162 1.326.355 1.437.447.1 1.01-.63 1.132-.865.813-1.574-.005-1.495-.374-.887-.22.363-.131.687-.232.7-.063.009-.085-.266-.043-.503.105-.593.607-1.188 1.136-1.083.313.063.396.426.317.872-.121.673-.717 1.468-1.111 1.753-.211.154-.711.48-1.301.364-.361-.072-.842-.39-.94-1.118a2.71 2.71 0 0 1 .249-1.484c.199-.425.44-.847.75-1.25a1.196 1.196 0 0 1-.442-.258c-.515-.517-.122-1.001.044-1.11.33-.216.974-.136.967 0-.003.062-.671.022-.755.53-.056.35.139.527.367.616a5.796 5.796 0 0 1 1.175-1.047m.082 1.083a4.384 4.384 0 0 0 1.77-.636c.524-.32 1.209-.98.73-1.178-.314-.131-1.04.278-1.742.939-.113.105-.624.72-.688.788l-.07.087m20.166-.436c-.25-.453.084-.8.404-.7a.373.373 0 0 1 .195.586c-.169.223-.745.447-.745.447-.046 0 .199-.237.146-.333"/><path d="m21.482 16.709.075-.052c.614-.429 1.066-.862 1.38-1.4.05-.085.134-.417-.08-.377-.25.05-.843.935-1.375 1.829m-.838 1.505c-.137.312-.516 1.081-.2 1.171.334.093.647-.459.864-.891.213-.427.507-1.092.205-1.207-.236-.088-.535.332-.68.565a27.8 27.8 0 0 0-.19.362m2.812-.646a4.07 4.07 0 0 0 .174-.064c.39-.155.765-.468.59-.605-.144-.115-.815.254-.764.669m4.513 1.853c.125-.126.228-.281.253-.445.067-.428.043-.771.055-1.102-.387.48-.78 1.004-1.154 1.42.229-.009.542.061.846.127m-16.07-1.553c.098-.194.12-.438.029-.553-.168-.208-.67.295-1.028.899-.25.425-.567 1.095-.323 1.238.212.124.552-.261.758-.576.205-.312.403-.682.565-1.008m6.25.083-.244.556c-.051.116-.35.798-.16.957.22.184.71-.499.959-.984.237-.462.509-1.1.198-1.201-.268-.089-.583.303-.753.672m4.579-.204c-.097-.38.35-.801.794-.95.466-.158 1.13-.22 1.23.102.114.379-.416.627-.736.732-.08.026-.155.053-.203.063l-.283.058c.174.225.567.205.635.23-.01.034-.158.298-.158.298-.108-.01-.53.037-.784.198-.317.201-.602.589-.415.809.216.252.63-.04.916-.263.33-.26.527-.461.836-.951.73-1.337 1.818-3.306 1.85-3.322h.778s-2.125 3.882-2.17 3.975c-.11.233-.326.58-.106.633.1.024.362.056.952-.903.69-1.221 2.007-3.686 2.044-3.705h.778s-2.126 3.882-2.17 3.975c-.111.233-.305.573-.115.633.372.117 1.702-1.766 2.099-2.429l.707-.087c-.206 1.038-.065.983-.098 1.591-.023.425-.143.818-.351 1.108.496.019.987-.053 1.046-.036.164.05-.268.465-.501.533-.322.092-.737-.038-.895-.167a.88.88 0 0 1-.114.059c-.355.155-.715.186-1.02.084-.206-.069-.437-.194-.486-.375-.323.302-.624.482-.885.428-.306-.063-.455-.35-.49-.601-.32.338-.726.657-1.074.604-.42-.064-.546-.549-.423-.807-.091.089-.195.192-.3.28-.363.312-.633.422-.793.475-.55.182-.787-.082-.872-.364-.208-.696.993-1.468 1.355-1.525 0 0-.353-.085-.502-.238-.222.045-.42.089-.57.138a3.391 3.391 0 0 1-.14.283c-.393.711-.988 1.424-1.5 1.653-.76.343-.926-.174-.946-.288-.1-.551.19-1.461.6-2.188a9.965 9.965 0 0 1-.61.245c-.13.75-.68 1.974-1.515 2.297-.551.213-.641-.448-.581-.7l-.885 2.028s-.752.004-.754 0a765.19 765.19 0 0 0 1.337-2.91c-.36.638-.655 1.173-1 1.443-.268.212-.872.358-.938-.158-.066-.52 1.11-2.212.572-2.212-.294 0-.466.495-.562.717l-.78 1.772h-.707c.66-1.558.775-1.744.955-2.212.065-.17-.068-.283-.158-.277-.312.017-.571.798-1.311 2.489h-.73l.74-1.704c-.26.345-.961 1.641-1.595 1.765-.33.063-.544-.299-.491-.733-.184.372-.95 1.093-1.471.523-.423-.462.203-1.593.536-1.989.596-.714 1.11-.891 1.316-.94.236-.055.494.046.603.25l.066-.145h.768c-.821 1.858-1.16 2.317-1.054 2.431.272.298 1.526-1.624 1.869-2.431h.739l-.124.279c.105-.093.53-.425.844-.394.273.028.337.307.359.416.036-.029.515-.57 1.005-.391.368.135.073.841-.131 1.283-.113.247-.336.745-.468 1.068-.107.263.082.406.364.078.687-.798 1.044-1.674 1.632-2.925h.715l-.37.846c.224-.227.61-.494.898-.418.218.057.337.246.337.562l-.001.044c.277-.085.518-.166.728-.244.717-1.176 1.358-1.779 1.594-2.006.542-.525 1.155-.85 1.389-.573.407.477-.516 1.298-1.201 1.783a9.037 9.037 0 0 1-.841.51l-.112.193c.249-.163.606-.349.819-.286.42.126.416.536.278.947.122-.019.26-.038.407-.064m6.958 3.13v-.136h.09c.047 0 .097.01.097.065 0 .067-.051.071-.107.071zm0 .057h.077l.115.19h.075l-.125-.193c.065-.008.114-.042.114-.12 0-.088-.051-.126-.155-.126h-.167v.44h.066zm.08.352a.38.38 0 1 0 0-.763.382.382 0 1 0 0 .763zm-.31-.383c0-.18.136-.316.31-.316.173 0 .309.136.309.316a.308.308 0 0 1-.308.32.308.308 0 0 1-.311-.32z"/></g></g></svg>