<svg width="36" height="36" fill="none" xmlns="http://www.w3.org/2000/svg"><path d="M18 0c2.837 0 5.52.656 7.907 1.825C31.884 4.753 36 10.895 36 18c0 9.942-8.058 18-18 18-9.94 0-18-8.057-18-18C0 8.06 8.06 0 18 0z" fill="#F2F4F7"/><mask id="a" style="mask-type:alpha" maskUnits="userSpaceOnUse" x="8" y="13" width="24" height="11"><path d="M8.859 23.466H32V13H8.859v10.466z" fill="#fff"/></mask><g mask="url(#a)" fill-rule="evenodd" clip-rule="evenodd"><path d="M31.715 18.232c-1.405 2.887-7.62 5.238-13.833 5.238-6.22 0-10.143-2.35-8.738-5.238C10.544 15.356 16.763 13 22.977 13c6.22 0 10.142 2.356 8.738 5.232z" fill="#032B76"/><path d="M22.838 13.112c6.043 0 9.847 2.283 8.472 5.075-1.369 2.798-7.418 5.082-13.45 5.082-6.042 0-9.846-2.284-8.477-5.082.888-1.8 3.702-3.38 7.204-4.286.249-.067.504-.122.759-.184a25.681 25.681 0 0 1 5.492-.605z" fill="#0A0A08"/><path d="M22.747 13.263c5.967 0 9.73 2.204 8.383 4.895-1.348 2.7-7.31 4.9-13.272 4.9-5.967 0-9.73-2.2-8.383-4.9 1.343-2.69 7.31-4.895 13.272-4.895z" fill="#969998"/></g><path fill-rule="evenodd" clip-rule="evenodd" d="M21.796 13.723c5.39 0 8.784 1.971 7.558 4.382-1.221 2.415-6.618 4.386-11.998 4.386-5.391 0-8.784-1.971-7.563-4.386.792-1.554 3.303-2.918 6.427-3.7.222-.058.45-.106.676-.159a23.636 23.636 0 0 1 4.9-.523z" fill="#0A0A08"/><g fill-rule="evenodd" clip-rule="evenodd"><path d="M28.47 16.128c.258.43.306.913.1 1.42a3.304 3.304 0 0 1-.739.997c-1.7 1.571-5.528 2.743-9.35 2.743-4.507 0-7.35-1.628-6.323-3.625.706-1.374 3.097-2.624 5.96-3.242.336-.072.679-.129 1.026-.181-.674.068-1.333.166-1.98.306-3.175.7-5.866 1.831-6.65 3.397-1.135 2.277 2.012 4.134 7.012 4.134 4.097 0 8.2-1.245 10.17-2.952.223-.191.483-.462.688-.75.084-.117.158-.235.22-.354.353-.685.285-1.333-.135-1.893z" fill="#0D5DB8"/><path d="M7.124 17.746a1.21 1.21 0 0 1-.284.33l-.004.003a.663.663 0 0 1-.42.128c-.111 0-.188-.023-.209-.06-.002-.006-.052-.144.102-.642.103-.315.222-.54.354-.67a.748.748 0 0 1 .557-.241c.067 0 .124.01.158.029.025.014.045.026.053.119l.032.363h1.713c-.107.143-.2.296-.273.457H7.242l-.118.184zm4.154.106c-.064.203-.146.351-.238.427-.094.075-.173.109-.256.109a.164.164 0 0 1-.035-.003c-.004-.023-.009-.102.048-.285.055-.185.135-.326.232-.407a.408.408 0 0 1 .292-.102c.004.026.006.1-.043.261zm4.092-.004c-.053.18-.123.314-.2.377-.06.052-.113.077-.159.077H15a.784.784 0 0 1 .04-.199c.071-.23.15-.33.206-.372a.348.348 0 0 1 .172-.085.91.91 0 0 1-.046.198l-.001.004zm12.04-1.788.454-1.457-2.335.969-.06.025-.144.463h-.463l-.019.06a1.417 1.417 0 0 0-1.034-.06H21.98l-.346 1.106c0-.046 0-.092-.004-.139a.969.969 0 0 0-.237-.598c-.17-.195-.41-.32-.713-.373-.225-.045-.53-.066-.96-.066a4.89 4.89 0 0 0-.725.053 2.167 2.167 0 0 0-.619.17c-.228.1-.417.22-.561.358a1.955 1.955 0 0 0-.356.451 1.603 1.603 0 0 0-.104-.336c-.149-.317-.482-.695-1.23-.695-.185 0-.36.023-.533.07l.001-.001h-1.998l-.288.919a1.438 1.438 0 0 0-.13-.275c-.301-.474-.857-.713-1.652-.713-.653 0-1.233.174-1.726.519-.09.064-.178.132-.258.204v-.006c0-.678-.184-1.157-.563-1.466-.33-.281-.816-.418-1.486-.418-.8 0-1.504.215-2.093.64-.586.427-1.002 1.035-1.238 1.807-.19.602-.212 1.12-.064 1.538.16.436.423.747.783.924.324.162.765.244 1.312.244.454 0 .852-.064 1.182-.19.332-.12.647-.31.936-.561a3.7 3.7 0 0 0 .41-.443c.07.328.242.56.375.697.326.326.81.491 1.439.491.66 0 1.248-.176 1.746-.524.123-.087.239-.182.343-.283l-.593 1.894h2.09l.379-1.202c.182.076.392.115.624.115.487 0 .942-.163 1.354-.484.117-.092.228-.198.328-.316.038.152.112.29.22.41.23.263.59.39 1.103.39.337 0 .654-.05.94-.15a2.15 2.15 0 0 0 .144-.057l.046.138h3.605l.407-1.301c.169-.539.324-.754.401-.834.075-.066.125-.076.168-.076.004 0 .05.002.164.052l.28.124.134-.161h.393l-.172.552c-.135.41-.18.704-.143.922a.854.854 0 0 0 .404.621c.19.116.464.17.863.17.29 0 .616-.034.966-.103l.17-.033.09-.018.35-1.716-.626.184.179-.578h.686l.515-1.647h-.682z" fill="#fff"/></g><path fill-rule="evenodd" clip-rule="evenodd" d="m7.3 17.668-.086.135a1.32 1.32 0 0 1-.313.359c-.127.1-.29.15-.485.15-.157 0-.259-.038-.302-.115-.014-.024-.076-.175.094-.723.108-.333.237-.573.382-.715a.856.856 0 0 1 .63-.271c.088 0 .158.014.209.042.06.034.097.078.108.203L7.56 17H9.4c-.18.2-.325.424-.428.668H7.3zm4.08.215c-.072.227-.164.387-.273.477a.511.511 0 0 1-.323.134c-.096 0-.115-.034-.128-.056-.005-.009-.047-.09.04-.37.062-.207.15-.36.265-.456a.517.517 0 0 1 .335-.128c.088 0 .103.026.12.055.002.003.045.076-.037.343zm3.558.189c.063-.203.146-.35.242-.424a.421.421 0 0 1 .273-.11c.049 0 .052.006.063.026.01.016.022.109-.045.313-.059.203-.14.351-.232.43-.082.068-.156.101-.228.101-.086 0-.1-.024-.11-.04 0 0-.033-.067.037-.296zm2.352-.052c.042-.151.071-.298.086-.438l.554.056a1.676 1.676 0 0 0-.498.256c-.05.04-.098.081-.142.126zm10.21-.42.448-1.436h-.682l.43-1.378-2.14.888-.153.49h-.463l-.033.105a1.361 1.361 0 0 0-.653-.174c-.153 0-.296.023-.427.07h-1.77l-1.048 3.35-.01-.06a1.204 1.204 0 0 1-.024-.245c.003-.036.016-.111.063-.27l.42-1.343a1.46 1.46 0 0 0 .067-.564.861.861 0 0 0-.21-.534c-.154-.177-.374-.29-.653-.34-.22-.044-.519-.064-.941-.064-.247 0-.479.017-.71.051a2.08 2.08 0 0 0-.59.162 1.803 1.803 0 0 0-.533.338 2.017 2.017 0 0 0-.4.54l-.102.187c0-.235-.043-.451-.128-.646-.135-.288-.44-.632-1.133-.632-.242 0-.47.043-.694.13l.019-.06h-1.777l-.39 1.246a1.34 1.34 0 0 0-.197-.653c-.28-.44-.805-.663-1.561-.663-.63 0-1.19.168-1.665.5a2.78 2.78 0 0 0-.425.366v-.254c0-.644-.171-1.097-.523-1.384-.311-.265-.776-.394-1.42-.394-.777 0-1.46.208-2.031.62-.567.413-.97 1.002-1.199 1.751-.184.581-.206 1.077-.065 1.472.15.41.395.7.73.865.31.154.735.233 1.265.233.441 0 .826-.062 1.144-.183.321-.117.626-.3.905-.542.186-.167.39-.405.552-.64.012.43.208.725.378.901.304.304.763.459 1.363.459.639 0 1.206-.17 1.685-.506.268-.188.49-.41.662-.666l-.707 2.259h1.869l.391-1.243.072.033c.177.081.384.123.617.123.463 0 .896-.156 1.289-.462.177-.14.336-.31.473-.51a.84.84 0 0 0 .219.616c.21.24.544.355 1.024.355.326 0 .63-.048.906-.144.078-.028.159-.062.24-.102l.06.177h3.45l.385-1.227c.168-.536.327-.774.429-.878a.345.345 0 0 1 .24-.105c.022 0 .084.005.207.06l.208.092.115-.138.586.001-.215.688c-.13.396-.175.674-.14.874a.75.75 0 0 0 .355.547c.172.106.43.155.808.155.284 0 .602-.034.945-.1l.191-.038.301-1.475-.465.136a2.58 2.58 0 0 1-.18.047l.26-.834h.686z" fill="#0A0A08"/><path fill-rule="evenodd" clip-rule="evenodd" d="M8.77 17.96c-.143.33-.458.73-.724.969a2.58 2.58 0 0 1-.81.485c-.293.112-.644.165-1.044.165-.49 0-.868-.07-1.135-.203-.271-.133-.463-.367-.586-.703-.117-.33-.096-.762.07-1.284.213-.697.58-1.23 1.092-1.603.516-.373 1.134-.565 1.859-.565.564 0 .975.107 1.23.325.347.282.421.746.421 1.162H7.828c-.017-.187-.086-.336-.256-.432a.716.716 0 0 0-.352-.08 1.15 1.15 0 0 0-.836.357c-.181.176-.33.453-.453.831-.144.463-.17.783-.07.959.096.17.283.261.555.261.266 0 .49-.075.666-.213a1.6 1.6 0 0 0 .378-.431h1.31zm2.888.01c-.09.288-.213.49-.368.618a.797.797 0 0 1-.506.197c-.176 0-.304-.07-.378-.197-.08-.133-.075-.33.01-.602.08-.272.203-.469.362-.602a.807.807 0 0 1 .518-.192c.17 0 .292.064.367.192.08.128.075.325-.005.586zm1.182-1.055c-.223-.352-.66-.527-1.315-.527-.57 0-1.071.15-1.497.447-.432.304-.72.688-.863 1.15-.16.502-.086.907.213 1.216.245.245.628.372 1.156.372.585 0 1.092-.154 1.518-.452a2.18 2.18 0 0 0 .857-1.151c.134-.415.107-.767-.069-1.055zm2.912 1.045c-.08.271-.192.457-.325.57a.643.643 0 0 1-.416.17c-.165 0-.287-.059-.357-.176-.074-.117-.069-.298.005-.538.08-.261.192-.453.336-.565a.705.705 0 0 1 .458-.175c.144 0 .25.053.315.17.069.117.064.298-.017.543zm1.241-1.109c-.144-.309-.431-.463-.868-.463a1.62 1.62 0 0 0-.645.133c-.154.064-.34.191-.565.383l.139-.447h-1.167l-1.316 4.203h1.258l.458-1.454a.777.777 0 0 0 .34.272c.14.063.304.095.496.095.394 0 .767-.133 1.108-.399.346-.272.597-.655.757-1.162.144-.463.144-.846.005-1.16zm2.738 1.391a1.032 1.032 0 0 1-.187.357.96.96 0 0 1-.324.229.988.988 0 0 1-.421.096c-.133 0-.224-.032-.272-.091-.053-.058-.064-.133-.032-.224a.401.401 0 0 1 .17-.213c.086-.064.267-.122.539-.186.202-.048.394-.096.585-.155l-.058.187zm1.502-1.188a.571.571 0 0 0-.139-.362c-.111-.129-.276-.208-.49-.246-.212-.042-.51-.058-.883-.058a4.44 4.44 0 0 0-.666.048 1.793 1.793 0 0 0-.512.138c-.186.08-.34.176-.458.288a1.739 1.739 0 0 0-.34.464l1.155.116a.786.786 0 0 1 .277-.271c.123-.059.283-.09.49-.09.16 0 .261.026.309.085.043.058.043.16 0 .303-.175.053-.336.101-.485.139-.154.032-.474.096-.97.186-.415.07-.718.181-.91.33a1.124 1.124 0 0 0-.394.57c-.08.251-.043.459.106.624.15.17.416.255.805.255.292 0 .564-.042.809-.127.181-.064.379-.17.586-.315a1.88 1.88 0 0 0-.016.192c0 .043.01.1.037.181h1.167a1.477 1.477 0 0 1-.027-.314c.006-.08.033-.192.075-.336l.421-1.348a1.15 1.15 0 0 0 .053-.452zm1.039-.597h1.167l-.155.495c.182-.213.347-.362.49-.442a.917.917 0 0 1 .48-.122c.186 0 .367.053.554.16l-.645.83a.83.83 0 0 0-.324-.084.635.635 0 0 0-.443.186c-.18.181-.352.512-.506 1.001l-.32 1.023h-1.252l.954-3.047zm4.96-1.161-.362 1.161h.681l-.266.853h-.687l-.336 1.081c-.043.128-.053.213-.043.256.022.064.08.101.187.101.09 0 .229-.027.41-.08l-.165.81a4.683 4.683 0 0 1-.89.096c-.313 0-.532-.037-.655-.112a.458.458 0 0 1-.218-.341c-.027-.154.016-.4.128-.74l.335-1.071h-.463l.266-.853h.464l.176-.564 1.438-.597z" fill="#fff"/></svg>