<svg width="36" height="36" fill="none" xmlns="http://www.w3.org/2000/svg"><path d="M18 0c2.837 0 5.52.656 7.907 1.825C31.884 4.753 36 10.895 36 18c0 9.942-8.058 18-18 18-9.94 0-18-8.057-18-18C0 8.06 8.06 0 18 0z" fill="#F2F4F7"/><path d="M30.063 16.391c-.093.556-.392.948-.415.985-.854-.285-1.218-.765-1.218-.765a1.28 1.28 0 0 1-.453.863c.023.005.285.06.495-.117a.637.637 0 0 0 .042.406.685.685 0 0 0 .36-.214.639.639 0 0 0 .102.48.612.612 0 0 0 .336-.294.61.61 0 0 0 .163.514.726.726 0 0 0 .29-.346.667.667 0 0 0 .256.5c.06-.117.518-1.046.042-2.012z" fill="#7CBC27"/><path d="M31.977 12c-.364.443-1.083 1.055-1.96 1.647-.332.224-.659.425-.966.598a1.802 1.802 0 0 0-.924-.332c-.033-.004-.075-.004-.108-.004-.294 0-.546.144-.634.35-.085.177-.267.322-.528.373l-1.39.177c-.01 0-.02.01-.02.019 0 .014.01.023.024.023l1.302-.084c.052 0 .098.005.14.01.13.023.243.084.317.163a.706.706 0 0 0 .36.191c.229.052.401.192.457.369.224.78.793 1.39 1.517 1.629.22-.332.48-.999.275-1.741.154-.037.76-.266.882-.915.028-.014.378-.205.308-.49.108-.004.406-.154.406-.527h-.07a.694.694 0 0 0 .402-.649h-.183c.07-.051.523-.42.393-.807z" fill="#7CBC27"/><path d="M28.98 13.773c.014-.247-.093-.452-.242-.462h-.014a.959.959 0 0 0 .051-.27c.019-.294-.08-.546-.228-.612-.01.332-.08.775-.201 1.288.215.038.42.117.602.224a.63.63 0 0 0 .032-.168z" fill="#7CBC27"/><path d="M6.51 15.542A2.511 2.511 0 0 0 4 18.052c0 .659.266 1.28.747 1.75a2.513 2.513 0 0 0 1.764.724c.499 0 1.008-.168 1.428-.467l.009-.004v-.658l-.033.032c-.401.388-.919.607-1.423.607-1.06 0-1.96-.915-1.96-1.997 0-1.083.891-1.998 1.946-1.998.523 0 1.045.22 1.437.607l.033.033v-.658l-.01-.005a2.28 2.28 0 0 0-1.427-.476zm3.36.901-1.75 3.97h.505s.443-1.044.452-1.068h1.582l.444 1.069h.508L9.89 16.4l-.018.042zm.01 1.036c.033.079.579 1.39.602 1.437H9.269c.018-.047.578-1.358.611-1.437zm4.163 2.048c-.033-.079-1.377-3.178-1.377-3.178l-.014.061-.77 4.004h.467s.462-2.431.48-2.515c.038.079 1.209 2.697 1.209 2.697s1.176-2.623 1.213-2.702c.014.084.48 2.515.48 2.515h.468l-.78-4.064c.005.01-1.344 3.103-1.376 3.182zm4.853-2.454c-.448-.383-.915-.458-1.48-.458h-.727v3.804h.718c.593 0 1.05-.08 1.503-.481.406-.364.62-.854.62-1.419-.004-.592-.224-1.092-.634-1.446zm-.29 2.529c-.34.317-.713.383-1.175.383h-.285V17.04h.285c.448 0 .816.06 1.157.36.308.27.485.676.485 1.115a1.487 1.487 0 0 1-.466 1.087zm1.41-2.992v3.804h1.988v-.425h-1.53v-1.442h1.483v-.424h-1.484V17.04h1.53v-.43h-1.988zm5.624 0v2.89l-2.936-3.076v3.99h.457v-2.87l2.935 3.07v-3.999h-.457v-.004zm.937 3.678v.014c0 .056.037.075.07.075.042 0 .075-.019.075-.07 0-.094-.192-.084-.192-.215 0-.075.056-.117.127-.117.079 0 .12.038.116.126h-.056c0-.046-.014-.079-.065-.079-.033 0-.066.019-.066.06 0 .094.192.08.192.215 0 .089-.06.122-.13.122-.127 0-.127-.094-.127-.136h.056v.005zm.303.126h-.05v-.425h.088l.107.36h.005l.107-.36h.089v.425h-.056v-.378l-.117.378h-.051l-.121-.378v.378zM12.437 23.27c-.172-.005-.345-.005-.518-.005-.182 0-.36 0-.541.005v-.051c.103.004.187-.02.187-.136v-1.031c0-.145-.08-.145-.187-.145v-.051c.098 0 .191.005.28.005.093 0 .187 0 .29-.005v.051c-.108 0-.187.005-.187.145v.943c0 .149.032.214.322.214.238 0 .317-.056.382-.256l.047.009-.075.308zm.154-.056h.038c.056 0 .098 0 .098-.065v-.551c0-.089-.033-.103-.108-.145v-.032c.098-.028.21-.066.22-.075.014-.01.028-.01.037-.01.01 0 .014.015.014.029v.779c0 .065.047.065.103.065h.032v.052c-.07 0-.14-.005-.214-.005-.075 0-.145 0-.224.005v-.047h.004zm.22-1.19c-.052 0-.098-.047-.098-.103 0-.051.046-.098.098-.098a.1.1 0 0 1 .098.098.1.1 0 0 1-.098.103zm.452.556c-.06-.155-.08-.16-.158-.16v-.05c.065 0 .135.004.205.004.07 0 .14-.005.21-.005v.052c-.093 0-.117.004-.117.056 0 .032.033.093.066.19l.144.388.168-.42a.577.577 0 0 0 .042-.159c0-.041-.023-.046-.107-.055v-.052c.047 0 .098.005.145.005.06 0 .12-.005.186-.005v.052c-.093 0-.126.056-.163.144l-.294.733h-.051l-.276-.719zm.864.634h.037c.056 0 .098 0 .098-.065v-.551c0-.089-.033-.103-.107-.145v-.032c.098-.028.21-.066.219-.075.014-.01.028-.01.037-.01.01 0 .014.015.014.029v.779c0 .065.047.065.103.065h.033v.052c-.07 0-.14-.005-.215-.005-.075 0-.145 0-.22.005v-.047zm.219-1.19c-.051 0-.098-.047-.098-.103 0-.051.047-.098.098-.098.051 0 .098.042.098.098a.1.1 0 0 1-.098.103zm.448.583c0-.074-.023-.098-.117-.135v-.037a2.77 2.77 0 0 0 .27-.098c.006 0 .015.004.015.018v.131c.117-.084.215-.154.35-.154.173 0 .233.126.233.285v.522c0 .066.047.066.103.066h.037v.051c-.07 0-.144-.005-.214-.005s-.145 0-.22.005v-.051h.038c.056 0 .098 0 .098-.066v-.527c0-.117-.07-.173-.187-.173a.54.54 0 0 0-.238.098v.602c0 .066.047.066.103.066h.037v.051c-.07 0-.145-.005-.215-.005-.074 0-.144 0-.22.005v-.051h.038c.056 0 .098 0 .098-.066v-.532h-.01zm1.886-.117-.201-.009a.255.255 0 0 1 .05.154c0 .15-.125.313-.377.313a.519.519 0 0 1-.112-.014c-.037.028-.06.056-.06.103 0 .032.009.093.144.093h.28c.173 0 .28.051.28.205 0 .08-.107.392-.541.392-.257 0-.383-.116-.383-.228 0-.131.112-.21.238-.234v-.004c-.084-.024-.177-.084-.177-.178 0-.023 0-.046.009-.065.056-.033.14-.075.168-.103-.112-.06-.191-.135-.191-.27 0-.178.13-.313.382-.313.06 0 .13.014.178.028.056.014.112.033.196.033.037 0 .065 0 .116-.01v.108zm-.435.78c-.13 0-.336 0-.336.191 0 .14.126.206.27.206.127 0 .356-.052.356-.234-.005-.149-.182-.163-.29-.163zm-.088-.877c-.126 0-.178.126-.178.233 0 .117.052.27.192.27s.196-.111.196-.237-.07-.266-.21-.266zm1.544.097h.27c.164 0 .164-.125.174-.172h.042a2.96 2.96 0 0 0-.01.229c0 .065.01.158.01.224h-.042c0-.196-.066-.196-.224-.196h-.22v.345c0 .224.01.285.21.285h.126c.2-.01.29-.038.369-.257l.047.01a2.208 2.208 0 0 0-.084.312c-.206 0-.406-.005-.612-.005-.15 0-.303 0-.452.005v-.051c.177 0 .19-.033.19-.229v-.905c0-.168-.032-.173-.19-.182v-.052c.135.005.275.005.41.005.196 0 .388 0 .588-.005v.304l-.042.009c-.032-.191-.121-.247-.326-.247h-.238v.574h.004zm.803.724c.117 0 .159-.01.238-.107.056-.07.14-.16.22-.257-.061-.075-.22-.299-.309-.392-.037-.037-.08-.037-.107-.037v-.052c.07 0 .14.005.21.005.075 0 .15-.005.224-.005v.052c-.051 0-.107 0-.107.032 0 .028.177.238.2.27.047-.06.206-.223.206-.26 0-.043-.066-.043-.094-.043v-.05c.075 0 .145.004.22.004.05 0 .102-.005.158-.005v.052c-.107 0-.158.027-.228.102-.066.08-.145.163-.224.257.056.06.303.401.335.415a.11.11 0 0 0 .07.019h.047v.051c-.08 0-.154-.005-.228-.005-.075 0-.15 0-.224.005v-.051c.074 0 .107 0 .107-.028 0-.014-.187-.243-.215-.28-.028.037-.228.252-.228.28 0 .032.05.032.12.032v.052c-.06 0-.13-.005-.19-.005-.066 0-.131 0-.196.005v-.056h-.005zm1.918-.126a.535.535 0 0 1-.397.21c-.21 0-.406-.205-.406-.42 0-.294.21-.541.504-.541.103 0 .275.032.275.14 0 .046-.027.088-.079.088-.084 0-.08-.163-.27-.163-.178 0-.267.196-.267.35 0 .21.136.397.355.397a.385.385 0 0 0 .247-.094l.038.033zm.261-.383a.432.432 0 0 0 0 .117c.014.191.136.35.299.35.112 0 .2-.06.275-.135l.028.028c-.093.126-.21.228-.378.228-.322 0-.387-.312-.387-.443 0-.401.27-.518.41-.518.164 0 .341.103.346.317v.038l-.019.014h-.574v.004zm.36-.065c.05 0 .056-.028.056-.051 0-.103-.066-.187-.178-.187-.126 0-.21.093-.233.238h.355zm.354.574h.038c.056 0 .098 0 .098-.066v-1.133c0-.131-.033-.136-.108-.16v-.032c.08-.028.168-.065.21-.088.023-.014.037-.024.047-.024.014 0 .014.014.014.028v1.405c0 .065.046.065.102.065h.033v.052c-.07 0-.14-.005-.215-.005-.074 0-.144 0-.224.005v-.047h.005zm.542 0h.037c.056 0 .098 0 .098-.066v-1.133c0-.131-.033-.136-.108-.16v-.032c.08-.028.168-.065.21-.088.024-.014.038-.024.047-.024.014 0 .014.014.014.028v1.405c0 .065.047.065.103.065h.032v.052c-.07 0-.14-.005-.214-.005-.075 0-.145 0-.224.005v-.047h.005zm.704-.509a.432.432 0 0 0 0 .117c.014.191.136.35.299.35.112 0 .2-.06.275-.135l.028.028c-.093.126-.21.228-.378.228-.322 0-.387-.312-.387-.443 0-.401.27-.518.41-.518.164 0 .341.103.346.317v.038l-.019.014h-.574v.004zm.364-.065c.051 0 .056-.028.056-.051 0-.103-.065-.187-.177-.187-.126 0-.21.093-.233.238h.354zm.476-.033c0-.074-.023-.098-.117-.135v-.037a2.65 2.65 0 0 0 .271-.098c.005 0 .014.004.014.018v.131c.117-.084.215-.154.35-.154.173 0 .233.126.233.285v.522c0 .066.047.066.103.066h.038v.051c-.07 0-.145-.005-.215-.005-.075 0-.145 0-.22.005v-.051h.038c.056 0 .098 0 .098-.066v-.527c0-.117-.07-.173-.187-.173a.54.54 0 0 0-.238.098v.602c0 .066.047.066.103.066h.037v.051c-.07 0-.145-.005-.215-.005-.074 0-.144 0-.219.005v-.051h.038c.056 0 .098 0 .098-.066v-.532h-.01zm1.769.481a.535.535 0 0 1-.397.21c-.21 0-.406-.205-.406-.42 0-.294.21-.541.504-.541.103 0 .276.032.276.14 0 .046-.028.088-.08.088-.084 0-.08-.163-.27-.163-.173 0-.267.196-.267.35 0 .21.136.397.355.397a.386.386 0 0 0 .248-.094l.037.033zm.257-.383a.432.432 0 0 0 0 .117c.014.191.135.35.298.35.112 0 .2-.06.276-.135l.027.028c-.093.126-.21.228-.377.228-.323 0-.388-.312-.388-.443 0-.401.27-.518.41-.518.164 0 .341.103.346.317v.038l-.018.014h-.574v.004zm.363-.065c.052 0 .056-.028.056-.051 0-.103-.065-.187-.177-.187-.126 0-.21.093-.233.238h.354z" fill="#003378"/></svg>