<svg width="36" height="36" fill="none" xmlns="http://www.w3.org/2000/svg"><path d="M18 0c2.837 0 5.52.656 7.907 1.825C31.884 4.753 36 10.895 36 18c0 9.942-8.058 18-18 18-9.94 0-18-8.057-18-18C0 8.06 8.06 0 18 0z" fill="#F2F4F7"/><path d="M27.07 18c0 .477.108.671.374.671.226 0 .335-.219.335-.671 0-.472-.11-.701-.335-.701-.311 0-.374.28-.374.7zm-.628-.034c0-.458.095-.775.288-.968a.708.708 0 0 1 .48-.204.82.82 0 0 1 .612.272l.022.028.049-.181a.152.152 0 0 1 .143-.118h.263c.064 0 .114.05.114.113v1.71c0 .168-.015.354.049.548h-.416c-.07 0-.105-.036-.119-.12l-.027-.162-.026.037c-.121.175-.363.28-.648.28-.334 0-.784-.128-.784-1.235zM7.82 17.97c0 .482.124.715.383.715.26 0 .388-.233.388-.714 0-.474-.127-.704-.388-.704-.258 0-.384.23-.384.704zm-.6.006c0-.758.368-1.21.987-1.21.616 0 .984.453.984 1.21 0 .779-.36 1.225-.984 1.225-.637 0-.987-.435-.987-1.225zm4.085-.901a.871.871 0 0 1 .622-.309c.362 0 .579.242.579.648v1.752h-.49a.115.115 0 0 1-.115-.114v-1.56c0-.147-.098-.225-.196-.225-.227 0-.374.199-.374.507v1.392h-.49a.115.115 0 0 1-.114-.114v-1.56c0-.147-.099-.225-.196-.225-.228 0-.374.199-.374.507v1.392h-.49a.115.115 0 0 1-.115-.114v-2.251h.402c.08 0 .11.056.12.104l.042.182.024-.026a.87.87 0 0 1 .608-.295c.253 0 .439.108.525.304l.013.028.019-.023zm2.247.906c0 .477.11.71.339.71.314 0 .378-.284.378-.71 0-.482-.11-.679-.378-.679-.228 0-.339.222-.339.68zm.01-.88a.645.645 0 0 1 .546-.335c.342 0 .796.13.796 1.25 0 .463-.095.782-.291.979-.1.1-.28.206-.485.206a.643.643 0 0 1-.519-.245l-.032-.04v1.232h-.49a.113.113 0 0 1-.115-.114V16.8h.371c.067 0 .128.05.146.119l.039.177.011.052.023-.048zm3.403-.3c.063 0 .115.051.115.115v2.25h-.401c-.081 0-.11-.056-.12-.104l-.043-.18-.023.024a.899.899 0 0 1-.663.296c-.367 0-.613-.241-.613-.599v-1.802h.49c.063 0 .114.051.114.114v1.56c0 .139.095.225.246.225.229 0 .408-.222.408-.507v-1.392h.49zm6.156 1.909c.149 0 .234-.07.24-.2.008-.18-.158-.265-.35-.364l-.119-.062c-.234-.129-.473-.305-.473-.63 0-.428.3-.703.766-.703.29 0 .49.084.702.172l.006.002-.114.305c-.014.035-.054.115-.13.088l-.074-.03a.854.854 0 0 0-.336-.085c-.149 0-.216.106-.216.211 0 .142.137.21.31.298l.105.053c.26.141.528.334.528.7 0 .356-.215.737-.816.737-.26 0-.636-.12-.828-.194l.115-.37c.014-.04.035-.07.062-.082a.09.09 0 0 1 .072 0l.11.041c.144.056.29.114.44.114zm1.651-2.983c.063 0 .115.052.115.117v1.217l.032-.034a.814.814 0 0 1 .588-.26c.358 0 .588.234.588.598v1.802h-.489a.115.115 0 0 1-.115-.115v-1.56c0-.147-.076-.224-.22-.224-.227 0-.384.208-.384.506v1.393h-.49a.115.115 0 0 1-.114-.115v-3.325h.489zm4.66 1.347c.13-.184.272-.308.546-.308.09 0 .122.06.122.118v.432c-.213-.01-.369.034-.476.135-.127.118-.185.311-.185.607v1.108h-.49a.115.115 0 0 1-.115-.114l-.001-2.251h.382c.067 0 .128.05.145.119l.05.186.022-.032zm-7.822 0c.13-.184.272-.308.544-.308.09 0 .123.06.123.118v.432c-.214-.01-.37.034-.477.135-.125.118-.184.311-.184.607v1.108h-.49a.115.115 0 0 1-.114-.114L21.01 16.8h.382c.067 0 .128.05.146.119l.05.186.022-.032zm-3.643-1.064c.055-.002.09.006.112.027.022.02.032.056.032.114v.65h.398c.065 0 .114.05.114.114v.357h-.512v1.168c0 .133.06.21.167.21a.664.664 0 0 0 .162-.018c.074-.018.097.013.11.073l.069.397a1.69 1.69 0 0 1-.56.1c-.371 0-.553-.195-.553-.595v-2.595l.46-.001zm12.165 1.966c0-.735.373-1.21.949-1.21.61 0 .919.419.919 1.244 0 .065-.05.115-.115.115h-1.118v.018c0 .287.024.592.32.592.182 0 .285-.105.313-.319h.574c-.064.578-.464.785-.819.785-.68 0-1.023-.412-1.023-1.225zm.635-.241v.017h.643v-.017c0-.333-.105-.503-.315-.503-.15 0-.328.088-.328.503zm-11.985.241c0-.735.373-1.21.949-1.21.61 0 .92.419.92 1.244a.114.114 0 0 1-.116.115h-1.118v.018c0 .287.024.592.32.592.182 0 .285-.105.314-.319h.573c-.064.578-.463.785-.82.785-.678 0-1.022-.412-1.022-1.225zm.635-.241v.017h.643v-.017c0-.333-.105-.503-.314-.503-.15 0-.33.088-.33.503zM5.725 19.4c-.46-.206-.716-.69-.716-1.245 0-.27.06-.558.187-.84.311-.69.978-1.025 1.453-1.103l.165-.029.061.382-.18.026c-.392.064-.929.39-1.183.953-.11.243-.162.492-.162.723 0 .46.206.858.58 1.026.432.195.931.032 1.308-.424l.05.062c-.448.523-1.046.703-1.563.47z" fill="#821E67"/><path d="M5.439 19.6c-.6-.27-.935-.89-.935-1.598 0-.331.073-.681.229-1.024.39-.863 1.237-1.277 1.845-1.369l.141-.023.063.387-.157.024c-.555.09-1.257.496-1.577 1.205a2.21 2.21 0 0 0-.201.906c0 .22.036.433.11.628.131.347.376.616.689.757.563.253 1.215.069 1.706-.481l.046.058c-.561.62-1.31.823-1.96.53z" fill="#821E67"/><path d="m6.632 15 .058.371-.15.02c-.66.082-1.554.576-1.956 1.469a2.673 2.673 0 0 0-.243 1.096c0 .767.366 1.441 1.02 1.736.694.314 1.498.106 2.102-.54l.045.056c-.675.716-1.576.944-2.356.591-1.075-.484-1.463-1.872-.884-3.157.44-.976 1.442-1.522 2.24-1.63L6.632 15z" fill="#821E67"/></svg>