<svg width="36" height="36" fill="none" xmlns="http://www.w3.org/2000/svg"><path d="M18 0c2.837 0 5.52.656 7.907 1.825C31.884 4.753 36 10.895 36 18c0 9.942-8.058 18-18 18-9.94 0-18-8.057-18-18C0 8.06 8.06 0 18 0z" fill="#F2F4F7"/><path d="m27.335 15-.543 2.016h.924L28.374 15h-1.039zm-10.841.532v1.182h-.846v.862h.86v1.854c0 .952.246 1.436 1.338 1.436.23 0 .588-.04.804-.14v-.851c-.13.084-.37.126-.552.126-.462 0-.574-.252-.574-.661v-1.775h1.126v-.863h-1.126v-1.17h-1.03zm13.059 1.064c-.82 0-1.641.412-1.641 1.313 0 1.549 2.206.888 2.206 1.725 0 .33-.386.47-.68.47-.437 0-.706-.201-.974-.495l-.68.635c.41.46.962.625 1.59.625.834 0 1.77-.345 1.77-1.31 0-1.574-2.207-.989-2.207-1.714 0-.308.336-.431.605-.431a.93.93 0 0 1 .806.42l.666-.61c-.336-.46-.91-.628-1.461-.628zm-23.277.017h-.042c-1.248 0-2.234.862-2.234 2.133 0 1.272.988 2.12 2.22 2.134.359 0 1.05-.151 1.473-.571l-.677-.728a1 1 0 0 1-.796.383c-.756 0-1.204-.582-1.204-1.218a1.176 1.176 0 0 1 1.202-1.218c.282 0 .54.166.784.406l.716-.7a2.017 2.017 0 0 0-1.442-.621zm3.78 0c-.658 0-1.285.19-1.747.644l.54.532c.3-.27.69-.418 1.093-.415.548 0 .932.266.932.762v.112h-.252c-1.03 0-2.582.092-2.582 1.414 0 .798.728 1.218 1.487 1.218.552 0 1.028-.204 1.31-.66h.029v.56h.924v-2.34c.008-.582.008-1.828-1.736-1.828h.002zm4.704 0c-.523 0-.985.28-1.204.75h-.014v-.65h-1.036v4.066h1.025v-2.173c0-.23.14-1.027 1.1-1.027.17.006.34.031.505.075v-.98a1.272 1.272 0 0 0-.376-.061zm6.508 0c-1.232 0-2.232.851-2.232 2.133 0 1.272.988 2.134 2.232 2.134a2.128 2.128 0 0 0 1.73-.812l-.728-.546a1.34 1.34 0 0 1-1.109.546 1.062 1.062 0 0 1-1.1-.966h3.13v-.28c0-1.408-.784-2.21-1.923-2.21zm4.757 0c-.54 0-1 .28-1.218.75h-.011v-.65h-1.028v4.066h1.028v-2.173c0-.23.14-1.027 1.103-1.027.168 0 .333.036.498.075v-.98a1.275 1.275 0 0 0-.37-.061h-.002zm5.645.151a.328.328 0 0 0-.306.204.33.33 0 1 0 .306-.204zm0 .064c.14 0 .268.112.268.266a.262.262 0 0 1-.268.27.26.26 0 0 1-.27-.27.26.26 0 0 1 .27-.266zm-.13.065v.364h.08v-.149h.05l.09.152h.075l-.101-.152c.05 0 .09-.039.09-.1 0-.079-.04-.115-.13-.115h-.153zm.08.075h.05c.039 0 .09 0 .09.05 0 .051-.051.051-.09.051h-.05v-.1zm-10.495.406c.644 0 1.036.37 1.036.966h-2.1c.075-.585.448-.966 1.064-.966zm-10.517 1.574h.218v.224c0 .574-.333.93-1.036.93-.336 0-.722-.168-.722-.532 0-.588.98-.622 1.54-.622z" fill="#00A9E0"/></svg>