<svg width="36" height="36" fill="none" xmlns="http://www.w3.org/2000/svg"><path d="M18 0c2.837 0 5.52.656 7.907 1.825C31.884 4.753 36 10.895 36 18c0 9.942-8.058 18-18 18-9.94 0-18-8.057-18-18C0 8.06 8.06 0 18 0z" fill="#F2F4F7"/><g fill-rule="evenodd" clip-rule="evenodd"><path d="M21.866 15.746c.522-.314.957-.436 1.532-.383-1.445-1.08-2.002.662-3.517.209-.575-.174-.906-.662-1.602-.557-.906.121-1.55 1.131-2.978.313.801 1.132 1.828.818 2.542.4.349-.208 1.08-.557 1.48-.33.122.07.192.156.279.243.087.088.174.175.261.227.07.052.122.087.192.122-.714.278-1.376.905-2.577.209.8 1.131 1.828.818 2.542.4.348-.209 1.08-.557 1.48-.33.122.069.192.156.279.243.087.087.174.174.26.226.645.453 1.411.244 2.038-.122.522-.313.958-.435 1.532-.383-1.445-1.08-2.002.662-3.517.21-.296-.088-.54-.262-.784-.401.157-.087.366-.192.558-.296z" fill="#0047BA"/><path d="M6.264 19.96h.33c-.034.296-.174.54-.4.731-.226.192-.505.279-.836.279-.4 0-.731-.122-.975-.383-.244-.244-.383-.575-.383-.975s.122-.732.366-.975c.243-.244.574-.366.975-.366.313 0 .592.087.818.261.227.174.366.4.4.662h-.348a.856.856 0 0 0-.313-.453.995.995 0 0 0-.557-.157c-.296 0-.54.087-.732.279-.174.192-.26.435-.26.749 0 .313.086.557.278.748.174.192.435.279.731.279.227 0 .418-.07.592-.191.157-.105.261-.28.314-.488zm.748.923v-3.448h.314v1.376c.122-.174.278-.296.453-.383.174-.088.383-.14.61-.14.33 0 .574.07.73.227.157.156.244.383.244.714v1.636h-.33v-1.41c0-.313-.053-.54-.157-.662-.105-.122-.279-.191-.54-.191-.296 0-.523.087-.714.244a.75.75 0 0 0-.279.609V20.9h-.33v-.017zm5.503-.314v.279a.538.538 0 0 1-.14.035c-.052 0-.086.017-.139.017a.345.345 0 0 1-.244-.087c-.052-.052-.087-.156-.087-.313a1.264 1.264 0 0 1-.47.348c-.174.07-.383.105-.627.105-.313 0-.54-.07-.713-.192-.175-.14-.244-.313-.244-.557 0-.105.017-.21.07-.296a.607.607 0 0 1 .19-.227.838.838 0 0 1 .28-.122c.121-.034.33-.07.609-.104.07 0 .157-.017.261-.035.418-.052.61-.174.61-.366a.332.332 0 0 0-.175-.313c-.121-.07-.296-.104-.522-.104-.296 0-.505.052-.662.139a.536.536 0 0 0-.243.435h-.331c.017-.296.122-.522.33-.662.192-.139.488-.226.854-.226.244 0 .435.017.575.07a.81.81 0 0 1 .348.226c.052.07.087.14.104.227.018.087.035.209.035.383v1.097a.5.5 0 0 0 .035.209c.017.034.052.034.104.034h.192zm-.627-1.062a.751.751 0 0 1-.278.087 4.27 4.27 0 0 1-.593.105c-.365.052-.592.122-.696.191-.105.07-.14.157-.14.296 0 .14.053.244.175.331.122.087.278.122.47.122.313 0 .557-.07.766-.226a.68.68 0 0 0 .296-.575v-.33zm1.41 1.376h-.33v-2.525h.33v.418a.954.954 0 0 1 .314-.383.817.817 0 0 1 .453-.14c.052 0 .104 0 .156.018.053.017.105.035.175.052v.314a.506.506 0 0 0-.157-.035c-.052 0-.087-.018-.14-.018a.745.745 0 0 0-.487.157c-.14.105-.226.261-.296.488v1.654h-.018zm1.411 0v-3.448h.33v3.448h-.33zm1.219-1.463h1.95a.888.888 0 0 0-.296-.61c-.174-.156-.4-.226-.679-.226s-.505.07-.68.227a.854.854 0 0 0-.295.61zm2.229.662c-.07.278-.21.487-.436.662a1.381 1.381 0 0 1-.818.243c-.4 0-.731-.122-.975-.365-.244-.244-.366-.575-.366-.976 0-.4.122-.73.366-.975.244-.243.575-.365.975-.365s.731.122.975.365c.244.244.366.575.366.976v.07H15.91c.018.313.122.539.28.713.173.174.4.244.696.244a.99.99 0 0 0 .557-.157.87.87 0 0 0 .33-.418h.384v-.017zm.348 0h.33c.018.191.105.33.262.418.14.087.348.139.627.139s.505-.035.644-.122c.157-.087.227-.191.227-.348 0-.105-.035-.192-.105-.244a.74.74 0 0 0-.366-.122l-.731-.104c-.296-.035-.488-.122-.627-.227-.122-.104-.191-.26-.191-.47 0-.226.104-.4.296-.54.191-.139.47-.191.818-.191s.627.07.836.209c.209.14.296.348.313.61h-.33a.488.488 0 0 0-.244-.384c-.14-.087-.349-.122-.61-.122-.226 0-.418.035-.54.105a.347.347 0 0 0-.191.313c0 .105.035.192.122.244.087.052.226.105.452.14l.645.104c.278.035.487.122.61.226a.577.577 0 0 1 .19.453c0 .261-.104.47-.313.61-.209.139-.522.208-.923.208-.365 0-.644-.07-.835-.226-.227-.174-.331-.4-.366-.68zm4.214.8h-.33v-2.524h.33v.418a.954.954 0 0 1 .313-.383.817.817 0 0 1 .453-.14c.052 0 .105 0 .157.018.052.017.104.035.174.052v.314a.506.506 0 0 0-.157-.035c-.052 0-.087-.018-.14-.018a.745.745 0 0 0-.487.157c-.139.105-.226.261-.296.488v1.654h-.017zm1.41-3.046v-.383h.331v.383h-.33zm0 3.047v-2.525h.331v2.525h-.33zm1.742 0-1.15-2.525h.384l.94 2.194.957-2.194h.366l-1.15 2.525h-.347zm1.933-1.48h1.95a.888.888 0 0 0-.296-.61c-.174-.156-.4-.226-.68-.226-.278 0-.504.07-.678.226a.854.854 0 0 0-.297.61zm2.228.661c-.07.279-.209.488-.435.662a1.381 1.381 0 0 1-.818.244c-.4 0-.732-.122-.976-.366-.243-.244-.365-.574-.365-.975 0-.4.122-.731.366-.975.243-.244.574-.366.975-.366.4 0 .73.122.975.366.243.244.365.575.365.975v.07h-2.333c.017.313.122.54.279.714.174.174.4.244.696.244.21 0 .4-.053.557-.157a.87.87 0 0 0 .331-.418h.383v-.018zm.871.801h-.33v-2.524h.33v.417a.954.954 0 0 1 .313-.383.817.817 0 0 1 .453-.139c.052 0 .105 0 .157.017.052.018.104.035.174.053v.313a.509.509 0 0 0-.157-.035c-.052 0-.087-.017-.139-.017a.745.745 0 0 0-.488.157c-.139.104-.226.26-.296.487v1.654h-.017z" fill="#000"/></g></svg>