<svg width="36" height="36" fill="none" xmlns="http://www.w3.org/2000/svg"><path d="M18 0c2.837 0 5.52.656 7.907 1.825C31.884 4.753 36 10.895 36 18c0 9.942-8.058 18-18 18-9.94 0-18-8.057-18-18C0 8.06 8.06 0 18 0z" fill="#F2F4F7"/><path d="m12.893 20.483-.005-.001a.012.012 0 0 1-.008-.013v-.742l-.002-.003-.003-.001h-.238l-.006-.001a.014.014 0 0 1-.004-.003.012.012 0 0 1-.003-.005v-.118a.012.012 0 0 1 .007-.013h.655l.004.003a.012.012 0 0 1 .004.01v.113a.013.013 0 0 1-.004.01.012.012 0 0 1-.01.004h-.238a.007.007 0 0 0-.003.002l-.002.003v.747a.012.012 0 0 1-.013.008h-.13m1.456-.887a.012.012 0 0 1 .008-.013h.574a.012.012 0 0 1 .008.013v.119a.012.012 0 0 1-.008.008h-.422l-.002.002a.007.007 0 0 0-.002.006v.222c0 .001 0 .002.002.003l.002.002h.357l.005.004a.012.012 0 0 1 .003.004v.126a.013.013 0 0 1-.008.008h-.357l-.002.002-.002.003v.233c0 .001 0 .002.002.003l.002.002h.422l.005.003a.013.013 0 0 1 .003.01v.121a.012.012 0 0 1-.013.008h-.564a.012.012 0 0 1-.013-.008v-.88zm1.655.437a.695.695 0 0 1 .024-.244.303.303 0 0 1 .313-.22.317.317 0 0 1 .306.197l-.001.005a.012.012 0 0 1-.007.006l-.113.055a.012.012 0 0 1-.01 0 .013.013 0 0 1-.004-.002.011.011 0 0 1-.003-.005.179.179 0 0 0-.168-.116.16.16 0 0 0-.162.119.653.653 0 0 0-.016.205.654.654 0 0 0 .016.205.16.16 0 0 0 .162.12.178.178 0 0 0 .168-.117c0-.002.001-.003.003-.004a.013.013 0 0 1 .004-.003l.005-.001a.01.01 0 0 1 .005.002l.113.054.004.002a.012.012 0 0 1 .003.004v.01a.317.317 0 0 1-.305.193.303.303 0 0 1-.313-.222.694.694 0 0 1-.024-.243zm1.716-.437a.012.012 0 0 1 .008-.013h.135a.01.01 0 0 1 .005 0c.002 0 .004.002.005.003a.014.014 0 0 1 .003.005v.362l.003.003a.007.007 0 0 0 .005.002h.347l.002-.002.002-.003v-.357a.012.012 0 0 1 .008-.013h.141a.012.012 0 0 1 .008.013v.874a.012.012 0 0 1-.008.013h-.135a.012.012 0 0 1-.014-.008v-.371l-.002-.003-.003-.002h-.349l-.003.002-.001.003v.366l-.001.005a.012.012 0 0 1-.013.009h-.13a.012.012 0 0 1-.012-.009l-.001-.005v-.874zm1.798 0v-.006a.012.012 0 0 1 .013-.008h.122a.023.023 0 0 1 .022.014l.368.62h.005v-.62a.012.012 0 0 1 .008-.013h.121a.012.012 0 0 1 .013.007v.879a.012.012 0 0 1-.008.013l-.005.001h-.122c-.004 0-.009 0-.013-.003a.024.024 0 0 1-.01-.01l-.367-.62h-.006v.625a.012.012 0 0 1-.008.007l-.005.001h-.12a.012.012 0 0 1-.008-.014v-.873zm2.113.901a.309.309 0 0 1-.318-.217.732.732 0 0 1-.024-.248.733.733 0 0 1 .024-.247.308.308 0 0 1 .318-.218.31.31 0 0 1 .319.218c.022.08.03.164.024.247a.73.73 0 0 1-.024.248.31.31 0 0 1-.32.217zm0-.79a.162.162 0 0 0-.167.119.69.69 0 0 0-.016.206c-.005.07 0 .14.016.207a.161.161 0 0 0 .167.118.163.163 0 0 0 .168-.118.71.71 0 0 0 .016-.207.699.699 0 0 0-.016-.206.164.164 0 0 0-.168-.118zm1.442-.111a.012.012 0 0 1 .009-.013h.135a.013.013 0 0 1 .013.007v.747l.002.003.003.002h.416l.005.001a.012.012 0 0 1 .008.008v.124a.012.012 0 0 1-.013.008h-.569a.012.012 0 0 1-.009-.013v-.874zm1.933.901a.308.308 0 0 1-.318-.217.735.735 0 0 1-.023-.248.733.733 0 0 1 .023-.247.308.308 0 0 1 .318-.218.31.31 0 0 1 .32.218c.021.08.03.164.023.247a.73.73 0 0 1-.024.248.31.31 0 0 1-.319.217zm0-.79a.162.162 0 0 0-.167.119.699.699 0 0 0-.016.206c-.005.07 0 .14.016.207a.162.162 0 0 0 .167.118.163.163 0 0 0 .168-.118.7.7 0 0 0 .016-.207.692.692 0 0 0-.016-.206.163.163 0 0 0-.168-.118zm1.417.325a.728.728 0 0 1 .023-.247.31.31 0 0 1 .322-.218.317.317 0 0 1 .314.191.014.014 0 0 1 0 .01.015.015 0 0 1-.005.008l-.111.05a.014.014 0 0 1-.018-.007.192.192 0 0 0-.181-.111.163.163 0 0 0-.17.118.703.703 0 0 0-.016.207.679.679 0 0 0 .016.206.163.163 0 0 0 .17.118.17.17 0 0 0 .17-.113.374.374 0 0 0 .013-.122l-.003-.002h-.157a.014.014 0 0 1-.004-.004.014.014 0 0 1-.003-.004v-.117c0-.002.002-.003.003-.004a.012.012 0 0 1 .005-.003l.005-.001h.303a.012.012 0 0 1 .009.014v.078a.745.745 0 0 1-.022.196.313.313 0 0 1-.318.222.31.31 0 0 1-.322-.217.73.73 0 0 1-.023-.248zm1.964.451-.005-.001a.012.012 0 0 1-.009-.013v-.355l-.26-.518c-.003-.007.001-.014.01-.014h.134a.02.02 0 0 1 .018.014l.177.349h.004l.177-.35a.018.018 0 0 1 .019-.013h.128c.011 0 .014.007.011.014l-.26.518v.355a.012.012 0 0 1-.01.013l-.005.001h-.129" fill="#D02144"/><path d="M31.748 16.776a.251.251 0 0 1-.06-.495.255.255 0 0 1 .23.059.25.25 0 0 1-.17.436zm0-.459a.209.209 0 1 0-.001.417.209.209 0 0 0 .001-.417zm.084.335h-.024a.017.017 0 0 1-.012-.01l-.04-.087h-.05v.084l-.002.005a.016.016 0 0 1-.003.004.014.014 0 0 1-.01.004h-.017a.014.014 0 0 1-.01-.004.014.014 0 0 1-.003-.01v-.228c0-.003.001-.006.004-.01a.014.014 0 0 1 .01-.003h.098a.08.08 0 0 1 .072.126.073.073 0 0 1-.042.028l.02.04.021.041a.013.013 0 0 1 .002.006c0 .002 0 .005-.002.006a.014.014 0 0 1-.012.008zm-.128-.216v.08h.069a.04.04 0 0 0 .03-.012.04.04 0 0 0 .008-.013.04.04 0 0 0 .003-.016c0-.005 0-.01-.002-.016a.038.038 0 0 0-.04-.024h-.067zm-18.908 2.376h-.37l1.117-2.557h.367l1.117 2.557h-.385l-.267-.636h-1.308l-.271.636zm.923-2.172-.524 1.221h1.052l-.528-1.221zm1.838 2.172h-.367v-2.538h1.126c.265-.016.526.074.726.249.136.144.21.336.204.535v.007a.745.745 0 0 1-.594.752l-.064.018.696.977h-.428l-.647-.918h-.652v.918zm0-2.212v.98h.725c.358 0 .59-.191.59-.487v-.01c0-.302-.222-.483-.593-.483h-.722zm2.425 2.212h-.367v-2.538h1.126c.265-.016.526.074.726.249.136.144.21.336.204.535v.007a.79.79 0 0 1-.16.49.843.843 0 0 1-.445.288c-.164.04-.333.057-.502.052h-.582v.918zm0-2.212v.98h.725c.358 0 .59-.191.59-.487v-.01c0-.302-.222-.483-.593-.483h-.722zm3.686 1.091v-.319h-1.32v-.78h1.49v-.318H19.98v2.538h1.876v-.318h-1.509v-.803h1.321m2.719 1.122v-2.54h-.36v1.913l-1.482-1.912h-.357v2.538h.36v-1.965l1.523 1.965h.316zm2.32-2.539h-2.042v.334h.835v2.205h.371v-2.205h.836v-.334zm1.952 1.417v-.319h-1.32v-.78h1.49v-.318H26.97v2.538h1.876v-.318h-1.509v-.803h1.32m.889 1.121h-.367v-2.538h1.126c.265-.016.526.074.726.249.136.144.21.336.204.535v.007a.744.744 0 0 1-.594.752l-.065.018.697.977h-.429l-.646-.918h-.652v.918zm0-2.212v.98h.725c.358 0 .59-.191.59-.487v-.01c0-.302-.222-.483-.594-.483h-.721z" fill="#101517"/><path d="M7.212 18.21a.941.941 0 1 1 0-1.331l.261-.261a1.31 1.31 0 1 0 0 1.854l-.261-.261z" fill="#D02144"/><g fill="#D02144"><path d="M6.548 19.272v-.29a1.448 1.448 0 1 1 1.439-1.446h.29a1.738 1.738 0 1 0-1.728 1.736"/><path d="M4.162 17.54a2.385 2.385 0 1 1 2.37 2.392v.163A2.548 2.548 0 1 0 4 17.538h.162"/></g><path d="M4.397 17.534a2.136 2.136 0 0 0 .63 1.518l.161-.162a1.914 1.914 0 1 1 2.71-.006l.16.161a2.143 2.143 0 1 0-3.661-1.51z" fill="#D02144"/><path d="M12.153 18.21a.942.942 0 1 1 0-1.332l.261-.26a1.31 1.31 0 1 0 0 1.854l-.261-.262z" fill="#101517"/></svg>