<svg width="36" height="36" fill="none" xmlns="http://www.w3.org/2000/svg"><path d="M18 0c2.837 0 5.52.656 7.907 1.825C31.884 4.753 36 10.895 36 18c0 9.942-8.058 18-18 18-9.94 0-18-8.057-18-18C0 8.06 8.06 0 18 0z" fill="#F2F4F7"/><path d="M25.044 18.14h-.654v.972h.654a.486.486 0 1 0 0-.972zm-16.34 4.27h19.294V27H8V7h20v14.105h-.703c-.659 0-1.221-.06-1.784-.642l-.675-.701h-.448v1.296h-.703v-3.566h1.421a1.133 1.133 0 0 1 1.144 1.134 1.122 1.122 0 0 1-.578.989l.356.367c.454.47 1.012.482 1.264.482V7.702H8.704V22.41zm13.424-2.648h-.72v1.296h-.703v-3.566h1.422a1.135 1.135 0 1 1 0 2.269h.001zm-.065-1.62h-.655v.971h.653a.486.486 0 1 0 0-.972h.002zm-4.04 2.517.389-.52c.318.25.572.298.734.298.27 0 .395-.145.395-.329 0-.579-1.405-.557-1.405-1.654 0-.62.518-1.015 1.053-1.015.335 0 .686.076.989.383l-.416.53a.891.891 0 0 0-.568-.238.31.31 0 0 0-.302.186.312.312 0 0 0-.027.122c0 .524 1.404.535 1.404 1.637 0 .627-.49 1.054-1.188 1.054-.416 0-.859-.211-1.059-.454zm-.406-3.166v3.566h-.704v-3.567l.704.001zm-3.459.647h-.653v.972h.653a.486.486 0 1 0 0-.972zm.47 2.323-.675-.701h-.448v1.296h-.702v-3.566h1.42a1.133 1.133 0 0 1 1.144 1.134 1.122 1.122 0 0 1-.578.989l.356.367c.454.47 1.01.482 1.265.482v.648c-.66 0-1.221-.065-1.783-.648h.001zm-5.417-1.188a1.838 1.838 0 0 1 3.16-1.276l-.503.465a1.12 1.12 0 0 0-.82-.35c-.644 0-1.136.518-1.136 1.16 0 .644.492 1.162 1.135 1.162a1.12 1.12 0 0 0 .821-.35l.503.464a1.837 1.837 0 0 1-3.16-1.275z" fill="#231F20"/><path d="M9.481 24.17h.42v1.336h.31v-1.337h.421v-.263h-1.15v.263zm1.834-.264h-.308v1.6h.308V24.8h.635v.706h.307v-1.6h-.307v.637h-.635v-.637zm1.681.264h.697v-.264H12.69v1.6h1.03v-.262h-.723v-.436h.635v-.262h-.635v-.377z" fill="#fff"/><path fill-rule="evenodd" clip-rule="evenodd" d="M14.12 25.506h.307v-.61h.22l.33.61h.357l-.37-.662a.453.453 0 0 0 .283-.444.461.461 0 0 0-.227-.415c-.109-.06-.219-.077-.502-.077h-.398v1.6-.002zm.307-1.337h.089c.209 0 .251.005.316.04a.21.21 0 0 1 .103.189c0 .177-.098.234-.395.234h-.113v-.463zm1.109 1.337h.314l.1-.334h.564l.099.334h.32l-.543-1.6h-.312l-.541 1.6h-.002zm.491-.596.204-.652.207.652h-.41zm1.192.596h.311v-.598h.094c.137.007.274-.005.408-.034.192-.054.314-.232.314-.46a.464.464 0 0 0-.46-.497 3.172 3.172 0 0 0-.293-.011h-.374v1.6zm.307-1.337h.112c.298 0 .394.06.394.241 0 .166-.096.236-.324.236h-.18v-.478l-.002.001z" fill="#fff"/><path d="M18.976 24.17h.699v-.264h-1.006v1.6h1.032v-.262h-.725v-.436h.636v-.262h-.636v-.377zm1.036.66c0 .232.012.309.06.41.095.189.302.297.572.297.27 0 .481-.108.57-.298.051-.1.06-.177.06-.41v-.923h-.306v.918c0 .058-.002.116-.008.173-.016.178-.129.273-.319.273a.304.304 0 0 1-.271-.124c-.045-.068-.052-.125-.052-.322v-.918h-.31v.923h.004zm1.615-.66h.42v1.336h.31v-1.337h.421v-.263h-1.15v.263zm1.845-.264h-.307v1.6h.307v-1.6zm1.078-.029c-.425 0-.705.331-.705.832 0 .502.283.828.722.828.357 0 .552-.211.571-.623h-.276c-.019.24-.12.356-.305.356-.24 0-.388-.213-.388-.56 0-.348.149-.57.386-.57.164 0 .267.102.298.287h.264c-.022-.354-.224-.55-.564-.55h-.003zm1.97.276c-.082-.173-.271-.276-.504-.276-.321 0-.542.192-.542.468a.414.414 0 0 0 .081.254c.06.084.15.14.362.228l.196.081c.135.06.19.113.19.192 0 .101-.104.17-.255.17-.199 0-.309-.103-.328-.309h-.298c.015.377.23.576.624.576.35 0 .571-.192.571-.492a.42.42 0 0 0-.072-.252.382.382 0 0 0-.105-.1.657.657 0 0 0-.135-.073 3.337 3.337 0 0 0-.18-.074l-.155-.06c-.144-.06-.189-.101-.189-.173 0-.098.1-.173.233-.173a.24.24 0 0 1 .261.235h.295a.498.498 0 0 0-.048-.223h-.002z" fill="#fff"/><path d="M27.497 27.714c.087 0 .172.023.248.065a.505.505 0 1 1-.685.688.505.505 0 0 1 .189-.688.516.516 0 0 1 .248-.065zm0 .084a.43.43 0 0 0-.206.054.422.422 0 0 0 .207.785.416.416 0 0 0 .365-.212.422.422 0 0 0-.157-.573.43.43 0 0 0-.209-.055zm-.22.697v-.542h.186a.445.445 0 0 1 .138.015.13.13 0 0 1 .068.053c.016.023.025.05.025.079a.147.147 0 0 1-.042.103.167.167 0 0 1-.113.05.136.136 0 0 1 .046.029.524.524 0 0 1 .08.107l.067.106h-.108l-.048-.086a.432.432 0 0 0-.091-.126.11.11 0 0 0-.07-.018h-.051v.23h-.087zm.087-.304h.106a.172.172 0 0 0 .104-.023.078.078 0 0 0 .014-.103.078.078 0 0 0-.037-.029.279.279 0 0 0-.087-.009h-.1v.164z" fill="#231F20"/></svg>