<svg width="36" height="36" fill="none" xmlns="http://www.w3.org/2000/svg"><path d="M18 0c2.837 0 5.52.656 7.907 1.825C31.884 4.753 36 10.895 36 18c0 9.942-8.058 18-18 18-9.94 0-18-8.057-18-18C0 8.06 8.06 0 18 0z" fill="#F2F4F7"/><g fill="#231F20"><path d="M7.974 14s.579 1.184.475 1.676c0 0 1.52.493 1.685 1.305 0-.01.83-1.098-2.16-2.981zm-.587 1.771c.146.311.216.648.302.994l-.864-.329c.078-.527-.432-1.322-.432-1.322l.994.657zm-1.538.812c.095.25.207.57.259.847l-.778-.19c.078-.527-.414-1.158-.414-1.158l.933.501z"/><path d="M7.55 15.322s3.482 2.445 3.716 3.395c.172.717-.329 1.374-.329 1.374s-.268-1.866-6.937.967c.674-.751 1.045-1.719.942-2.756a3.441 3.441 0 0 0-.329-1.192l1.564.82c0 .027 0 .053.009.079.06.63.017 1.252-.13 1.822a4.25 4.25 0 0 0 .398-2.237 4.134 4.134 0 0 0-.355-1.357l1.668 1.115c.008.052.008.112.017.164.07.7 0 1.383-.181 2.005a4.287 4.287 0 0 0 .5-2.445 4.31 4.31 0 0 0-.552-1.754zm4.251 3.11c0 1.002.83 1.702 1.884 1.659.63-.026 1.002-.26 1.131-.32v-.864h-.13c-.12.527-.44.968-.993.968-.682 0-1.21-.666-1.21-1.443 0-.778.536-1.443 1.21-1.443.553 0 .873.432.994.968h.13v-.864c-.13-.06-.502-.285-1.132-.32-1.054-.043-1.884.657-1.884 1.659zm4.968-1.659c-.924 0-1.642.743-1.642 1.668 0 .915.717 1.667 1.642 1.667.924 0 1.641-.743 1.641-1.667 0-.925-.717-1.668-1.641-1.668zm0 3.128c-.579 0-.968-.683-.968-1.47 0-.777.39-1.468.968-1.468.579 0 .968.683.968 1.469 0 .777-.39 1.469-.968 1.469zm5.408-2.445c0-.268.277-.484.562-.493.31 0 .622.139.786.743h.086v-.726c-.13-.043-.44-.207-.881-.207-.536 0-1.071.329-1.071.942 0 1.097 1.503.89 1.503 1.624 0 .372-.225.544-.57.544-.337 0-.726-.276-.855-.829h-.113v.795c.138.043.493.25.95.25.795 0 1.184-.527 1.184-1.002.009-1.175-1.58-.82-1.58-1.641zm5.979-.285c0-.07.043-.13.095-.165l.207-.112v-.052h-1.235v.052l.207.112c.06.035.095.096.095.165v2.53c0 .07-.043.13-.095.165l-.207.112v.052h1.235v-.052l-.207-.112a.185.185 0 0 1-.096-.164V17.17zm-9.72-.329v.052l.208.112c.06.035.095.096.095.165v2.53c0 .07-.044.13-.095.165l-.208.112v.052h1.236v-.052l-.208-.112a.185.185 0 0 1-.095-.164V17.17c0-.044.018-.078.035-.113.017-.026.043-.034.078-.034h.397c.242 0 .501.285.501.639v.181c0 .355-.233.597-.501.597h-.242s.778 1.339.899 1.486c.172.215.743.5 1.183.406-.432-.234-.838-.977-1.175-1.599a.9.9 0 0 1-.38-.138c.683 0 .855-.561.855-.838 0-.752-.527-.907-1.123-.907h-1.46v-.009zm10.281 0v.052l.207.112c.06.035.095.096.095.165v2.53c0 .07-.043.13-.095.165l-.207.112v.052h1.236v-.052l-.208-.112a.185.185 0 0 1-.095-.164V17.17c0-.044.017-.078.035-.113.017-.026.043-.034.077-.034h.398c.242 0 .5.285.5.639v.181c0 .355-.232.597-.5.597h-.242s.777 1.339.898 1.486c.173.215.743.5 1.184.406-.432-.234-.838-.977-1.175-1.599a.9.9 0 0 1-.38-.138c.682 0 .855-.561.855-.838 0-.752-.527-.907-1.123-.907h-1.46v-.009zm-1.866 3.024a.224.224 0 0 1-.086-.095l-1.175-2.929h-.38l-1.175 2.929a.157.157 0 0 1-.087.095l-.207.112v.052h.95v-.052l-.181-.095a.196.196 0 0 1-.104-.172.18.18 0 0 1 .017-.07l.26-.639h1.105l.26.64c.008.017.008.043.008.06 0 .06-.026.112-.069.147-.009.008-.017.008-.026.017l-.207.112v.052h1.304v-.052l-.207-.112zm-2.09-1.097.457-1.14.458 1.14h-.916z"/></g></svg>