<svg height="36" viewBox="0 0 36 36" width="36" xmlns="http://www.w3.org/2000/svg"><g fill="none"><path d="M18 0c2.837 0 5.52.656 7.907 1.825C31.884 4.753 36 10.895 36 18c0 9.942-8.058 18-18 18-9.94 0-18-8.057-18-18C0 8.06 8.06 0 18 0z" fill="#f2f4f7"/><g fill="#da1b1b"><path d="M6.269 8.047c0 .051.378.816.423.855.009.01.048.07.087.135.039.066.105.153.14.195a.346.346 0 0 1 .07.093c0 .01.027.051.063.09l.216.252a11.273 11.273 0 0 0 1.638 1.515.33.33 0 0 0 .09.06c.009 0 .054.03.093.066.108.096.216.171.783.55.525.347.534.356.747.482.075.045.153.102.174.123.02.021.054.04.069.04.02 0 .324.17.477.27a.717.717 0 0 0 .12.065c.108.054.708.417.885.537.51.343 1.155.928 1.35 1.219.081.123.135.162.135.096 0-.04-.123-.264-.171-.321-.021-.021-.039-.054-.039-.07 0-.032-.18-.326-.234-.383a1.241 1.241 0 0 1-.09-.12c-.081-.123-.18-.235-.486-.544-.369-.366-.411-.399-.93-.786a29.64 29.64 0 0 1-.465-.348 2.096 2.096 0 0 0-.15-.096 1.204 1.204 0 0 1-.135-.09c-.01-.009-.07-.05-.135-.09s-.255-.159-.42-.267a5.93 5.93 0 0 0-.486-.306c-.04-.02-.07-.048-.07-.063 0-.012-.014-.024-.03-.024a.573.573 0 0 1-.158-.093 51.964 51.964 0 0 0-.6-.423 1.057 1.057 0 0 1-.117-.093.332.332 0 0 0-.081-.05.346.346 0 0 1-.093-.07 7.447 7.447 0 0 0-.261-.21c-.102-.078-.204-.159-.225-.18s-.114-.096-.204-.168c-.387-.303-1.707-1.569-1.84-1.764-.056-.084-.14-.135-.14-.084z"/><path d="M9.083 8.59c-.024.024.009.132.039.132.015 0 .027.015.027.036 0 .045.216.477.264.528.018.021.036.051.036.066 0 .04.258.411.384.552.3.336.846.843 1.056.981.042.027.117.087.165.13.05.044.144.116.21.161s.147.105.177.132c.033.03.114.09.18.135.069.048.15.108.18.135.033.03.114.09.18.135.069.045.129.09.138.1l.225.18c.117.09.225.176.243.194l.267.24c.438.393.774.76.978 1.065.198.3.276.433.453.775.093.186.231.432.3.549.072.117.162.267.201.336a.92.92 0 0 0 .114.165c.021.02.04.054.04.069s.014.045.03.066c.017.02.158.23.317.47.507.769 1.203 1.38 1.887 1.654.324.129 1.002.18 1.89.14.618-.023 1.326-.005 1.45.04a.677.677 0 0 0 .194.027c.07.003.18.02.246.045.066.024.147.045.18.045s.1.02.147.045a.39.39 0 0 0 .13.045c.047 0 .212.072.593.258.55.273.994.597 1.462 1.068.312.315.324.324.342.246.024-.093-.006-.411-.045-.483a24.52 24.52 0 0 1-.1-.204c-.074-.168-.215-.37-.425-.612-.081-.1-.138-.195-.138-.237 0-.123-.117-.315-.255-.417-.174-.13-.709-.4-.79-.4a.423.423 0 0 1-.114-.044.417.417 0 0 0-.14-.045.286.286 0 0 1-.106-.027 2.465 2.465 0 0 0-.276-.093c-.41-.123-.675-.216-.768-.273a.452.452 0 0 1-.192-.321c0-.078.114-.432.15-.468a.118.118 0 0 0 .03-.075c0-.027.018-.084.042-.13.024-.041.057-.173.078-.29.1-.582-.216-.954-1.23-1.461a12.789 12.789 0 0 0-.495-.225c-.033-.012-.123-.051-.2-.084a.726.726 0 0 0-.187-.063c-.024 0-.054-.015-.063-.03-.009-.019-.039-.03-.066-.03a.449.449 0 0 1-.138-.043 9.958 9.958 0 0 0-.576-.198 16.8 16.8 0 0 1-.528-.18.747.747 0 0 0-.165-.048.464.464 0 0 1-.147-.042.419.419 0 0 0-.135-.042 1.02 1.02 0 0 1-.165-.048 3.61 3.61 0 0 0-.195-.06c-.075-.018-.189-.048-.255-.063a2.753 2.753 0 0 1-.18-.057 1.02 1.02 0 0 0-.165-.048.725.725 0 0 1-.15-.042 2.938 2.938 0 0 0-.27-.09 3.312 3.312 0 0 1-.27-.087.68.68 0 0 0-.15-.048.555.555 0 0 1-.135-.042 1.915 1.915 0 0 0-.255-.093 1.808 1.808 0 0 1-.255-.09 1.885 1.885 0 0 0-.225-.09 1.2 1.2 0 0 1-.222-.096.147.147 0 0 0-.072-.024c-.06 0-.342-.129-1.056-.477-.501-.246-.963-.498-1.065-.579-.015-.012-.138-.093-.27-.18l-.27-.18-.312-.234c-.543-.405-1.332-1.164-1.665-1.605-.063-.084-.117-.153-.12-.159-.006-.003-.015.003-.024.012zM22.5 17.68c.306.103.405.18.477.364.072.177-.048.219-.195.066a1.181 1.181 0 0 0-.192-.156 1.182 1.182 0 0 1-.144-.102.137.137 0 0 0-.081-.04c-.04 0-.075-.062-.075-.137 0-.054.042-.054.21.006zm-15.571-7.2c0 .033.255.537.3.591.018.021.08.102.14.186.22.294.562.645 1.018 1.035.114.1.426.333.525.396.042.027.096.07.12.09.024.024.096.075.162.114.066.04.126.081.135.09.018.024.903.55 1.185.706.222.126.462.246 1.305.657.495.243.588.29.951.51.273.165.711.507.93.726.123.123.228.222.234.222.01 0-.003-.033-.02-.075-.019-.042-.046-.075-.06-.075-.013 0-.025-.018-.025-.04 0-.023-.027-.074-.06-.113l-.081-.102c-.219-.288-.399-.462-.951-.93-.075-.066-.57-.402-.801-.546a17.202 17.202 0 0 0-.927-.526 5.901 5.901 0 0 1-.195-.114c-.027-.02-.156-.09-.585-.324-.27-.144-.954-.567-1.065-.657-.015-.015-.084-.06-.15-.099s-.132-.084-.15-.096a45.784 45.784 0 0 0-.36-.267c-.18-.135-.336-.255-.345-.264a1.7 1.7 0 0 0-.165-.135c-.168-.126-.384-.324-.786-.72-.153-.15-.28-.258-.28-.24zm3.408 5.374c-.03.03.474.498.807.747l.33.246c.078.06.348.216.372.216.015 0 .048.018.069.036.02.02.087.06.144.09.399.189.57.264.612.264.024 0 .051.012.06.024.024.039.969.336 1.074.336.03 0 .078.012.108.03a.872.872 0 0 0 .186.057c.261.057.405.093.465.12.033.015.162.057.285.096s.237.078.255.093c.015.012.045.024.07.024s.083.018.134.042c.492.213.624.264.642.249.01-.012-.02-.051-.069-.087-.075-.06-.207-.177-.492-.444a12.51 12.51 0 0 0-.18-.162c-.15-.13-.78-.597-.915-.678a1.204 1.204 0 0 1-.135-.09.206.206 0 0 0-.06-.042 5.838 5.838 0 0 1-.225-.123 8.99 8.99 0 0 0-.78-.387 2.842 2.842 0 0 1-.165-.075.545.545 0 0 0-.144-.045c-.051-.012-.102-.036-.111-.051-.012-.015-.048-.027-.084-.027-.066.003-.066.003-.006.036a.302.302 0 0 1 .075.054c.009.009.075.054.15.099.159.093.45.35.45.399 0 .018-.021.05-.045.072-.036.03-.123.027-.435-.012a3.618 3.618 0 0 1-.459-.078c-.036-.012-.141-.048-.231-.075-.468-.141-1.41-.663-1.683-.93-.027-.024-.057-.036-.07-.024z"/><path d="M15.464 17.402c.561.516 1.998 1.983 2.088 2.127.036.054-.006.114-.075.114a.665.665 0 0 1-.183-.06 1.103 1.103 0 0 0-.14-.06c-.04 0-.337-.19-.415-.261-.09-.084-.138-.09-.084-.012.087.126.522.555.795.789.123.105.45.33.561.384.18.09.198.105.198.162 0 .05-.015.054-.165.036-.09-.01-.165-.01-.165.006 0 .02.177.108.39.189.156.063.591.054.714-.012a.324.324 0 0 1 .162-.045c.066.009.072.018.165.219.114.246.378.585.453.585.015 0 .045.018.063.042.036.042.447.153.471.129.01-.01-.048-.063-.123-.123-.21-.16-.312-.31-.315-.456a.48.48 0 0 1 .204-.396c.201-.153.324-.195.618-.198.24 0 .288.006.393.072a.738.738 0 0 1 .16.12c.056.069.155.297.155.363 0 .102.057.06.078-.057.042-.228.03-.474-.027-.54-.08-.09-.3-.147-.636-.171-.573-.036-.864-.132-1.122-.366-.267-.24-.255-.267.126-.285.27-.015.501-.063.696-.144a13.85 13.85 0 0 0 .6-.27c.504-.24.813-.312 1.33-.312.375 0 .474-.021.336-.063-.033-.01-.06-.033-.06-.048s-.012-.027-.027-.027c-.024 0-.282-.156-.381-.231a3.778 3.778 0 0 0-.448-.24 14.999 14.999 0 0 1-.26-.132.25.25 0 0 0-.082-.027.448.448 0 0 1-.114-.036 4.164 4.164 0 0 0-.564-.165c-.306-.072-1.455-.07-1.965 0-.759.105-.89.117-1.245.102a2.74 2.74 0 0 1-.855-.147 2.531 2.531 0 0 1-.453-.171 1.432 1.432 0 0 0-.156-.063c-.012 0-.108-.054-.216-.12a2.501 2.501 0 0 0-.21-.12c-.015 0-.267-.171-.423-.291-.204-.153-.129-.051.153.21zM5.381 23.6a1.347 1.347 0 0 0-.528.297c-.135.126-.294.396-.294.498 0 .024-.012.054-.03.063-.036.024-.04.576-.003.597.012.01.033.063.042.12.045.273.41.651.726.747.183.057.63.07.66.021.009-.015.045-.03.078-.03.12 0 .477-.219.477-.29 0-.06-.057-.049-.162.03a1.339 1.339 0 0 1-.198.12c-.12.056-.474.14-.522.125a2.796 2.796 0 0 0-.201-.045c-.414-.08-.741-.447-.807-.9-.066-.468.114-.894.474-1.122a1.36 1.36 0 0 1 .555-.168c.159 0 .468.087.597.168.117.075.204.093.204.042 0-.039-.21-.171-.366-.225-.153-.054-.57-.084-.702-.048zm5.313-.009c-.387.102-.684.327-.837.642a2.089 2.089 0 0 0-.096.318.794.794 0 0 0 .003.435c.027.123.075.282.11.354.12.246.508.573.685.573.03 0 .066.012.075.03.024.04.516.04.54 0 .009-.018.045-.03.078-.03.18 0 .59-.342.699-.579.138-.3.165-.603.081-.915-.042-.153-.075-.219-.213-.396-.153-.198-.165-.207-.55-.396-.062-.03-.488-.057-.575-.036zm.489.12c.32.093.56.303.714.627.045.093.057.186.057.435 0 .285-.01.333-.084.483-.096.192-.315.426-.474.507a1.42 1.42 0 0 1-.303.102.606.606 0 0 1-.372 0 1.886 1.886 0 0 1-.28-.093c-.158-.072-.401-.333-.497-.534-.078-.162-.087-.21-.087-.48 0-.282.006-.309.099-.48.054-.099.129-.213.162-.249.123-.132.339-.273.468-.303a.572.572 0 0 0 .144-.045c.036-.036.288-.018.453.03zm8.328-.069a.72.72 0 0 0-.216.16 4.18 4.18 0 0 1-.093.12c-.045.053-.069.272-.048.404.024.141.198.336.375.423.057.027.21.1.34.16.128.06.257.131.284.158.087.087.156.21.156.276 0 .057-.066.186-.135.258a.612.612 0 0 1-.327.132c-.156 0-.468-.132-.53-.222-.034-.042-.103-.003-.175.096l-.063.09.147.093c.081.048.195.1.255.111.06.01.117.03.126.045.021.036.453.036.477 0 .01-.015.054-.036.102-.048.16-.036.342-.249.378-.447.06-.309-.087-.549-.429-.708-.45-.213-.516-.249-.618-.348-.12-.117-.132-.192-.06-.336.07-.14.207-.225.393-.24.135-.012.19 0 .357.084.108.051.201.09.204.084a.53.53 0 0 0 .057-.102c.045-.087.045-.099-.003-.138-.123-.105-.267-.15-.53-.165-.24-.012-.289-.003-.424.06zm-11.988-.018c-.051.012-.054.093-.054 1.152 0 1.056.003 1.14.05 1.131.046-.009.049-.057.043-.48-.006-.444-.003-.47.054-.5.063-.037.555-.043.639-.01a.5.5 0 0 1 .132.171c.102.186.285.528.375.696.066.126.177.18.177.084 0-.024-.012-.045-.027-.045s-.042-.036-.06-.084a4.111 4.111 0 0 0-.168-.32 3.563 3.563 0 0 1-.168-.325c-.018-.045-.045-.08-.06-.08s-.027-.034-.027-.076c0-.054.02-.084.072-.105.219-.08.36-.315.36-.6 0-.159-.015-.219-.078-.315-.102-.162-.177-.225-.315-.264-.117-.033-.852-.057-.945-.03zm1.032.198c.18.138.246.34.186.567a.552.552 0 0 1-.351.387c-.144.042-.75.036-.795-.009-.051-.05-.051-.957 0-1.008.024-.024.165-.036.432-.036h.396zm5.547-.096a1.12 1.12 0 0 0-.078.216.755.755 0 0 1-.045.156 3.61 3.61 0 0 0-.06.195 8.239 8.239 0 0 1-.075.285c-.093.33-.141.516-.171.645a.468.468 0 0 1-.057.162.174.174 0 0 0-.027.096.521.521 0 0 1-.033.153l-.033.084-.072-.084a.308.308 0 0 1-.072-.165.761.761 0 0 0-.033-.186 4.61 4.61 0 0 1-.072-.27c-.024-.09-.063-.246-.09-.345a58.74 58.74 0 0 1-.177-.69 4.837 4.837 0 0 0-.057-.204c-.012-.027-.027-.072-.036-.096-.021-.072-.075-.051-.075.027 0 .039.027.156.06.258.033.102.06.213.06.243 0 .033.012.081.03.111.015.027.042.117.06.201.078.336.105.45.123.48a.591.591 0 0 1 .039.15c.012.066.033.16.048.21.018.048.06.195.096.321.048.171.078.234.114.234.075 0 .141-.09.165-.225a.445.445 0 0 1 .045-.15.789.789 0 0 0 .054-.165 6.48 6.48 0 0 1 .078-.3c.024-.09.06-.225.078-.3a1.18 1.18 0 0 1 .057-.18.777.777 0 0 0 .048-.18.777.777 0 0 1 .048-.18.787.787 0 0 0 .042-.186c.021-.159.048-.192.126-.147.033.018.066.096.087.22.04.212.096.428.132.518.015.033.042.12.06.195.018.075.054.21.078.3.027.09.06.22.075.285.015.066.042.147.057.18a.94.94 0 0 1 .054.18c.021.105.036.12.114.13.084.008.09 0 .123-.136.018-.078.057-.222.081-.315.027-.096.07-.249.093-.339l.183-.669c.024-.093.06-.23.075-.306a.833.833 0 0 1 .057-.183c.045-.084.07-.327.033-.327-.05 0-.126.213-.216.63-.018.075-.042.162-.057.195s-.039.12-.057.195a6.25 6.25 0 0 1-.075.3l-.087.33c-.066.255-.123.405-.153.405s-.096-.165-.159-.405c-.024-.09-.06-.234-.084-.315-.02-.084-.057-.21-.075-.285a1.432 1.432 0 0 0-.06-.195 4.676 4.676 0 0 1-.126-.465.728.728 0 0 0-.054-.165.402.402 0 0 1-.042-.126c-.033-.144-.099-.147-.165-.006zm2.436-.102-.069.012v2.283l.58-.012c.53-.012.584-.018.71-.08.141-.076.45-.37.45-.433a.4.4 0 0 1 .051-.126c.042-.072.051-.168.051-.48.003-.456-.036-.576-.273-.828-.165-.177-.312-.255-.579-.315a4.138 4.138 0 0 0-.92-.021zm1.056.156c.381.135.645.54.645.993s-.246.85-.62 1c-.18.071-.889.11-.994.053-.066-.036-.066-.039-.066-1.032 0-.738.01-1.008.036-1.035.024-.024.165-.036.435-.036.318 0 .435.012.564.057zm3.55-.087c-.007.048 0 .102.017.12.018.018.186.03.396.03.306 0 .37.01.384.048.01.027.018.492.018 1.035v.99l.138-.009.139-.009-.003-.99c-.003-.546.006-1.005.02-1.026.016-.024.148-.039.412-.045l.39-.009v-.21l-.949-.009-.95-.006zm2.64 1.041c-.006.732.003 1.143.02 1.155a.356.356 0 0 0 .145.024h.11v-.408c0-.222.016-.432.03-.465.028-.048.067-.057.27-.057h.238l.078.111a.5.5 0 0 1 .075.147c0 .021.009.042.024.048.012.003.078.123.15.264.18.357.183.36.348.36.075 0 .138-.012.138-.03 0-.015-.042-.099-.093-.186s-.102-.18-.117-.204-.075-.138-.135-.255a1.113 1.113 0 0 0-.141-.228c-.036-.024-.003-.147.039-.147a.6.6 0 0 0 .144-.105.73.73 0 0 0 .213-.498.802.802 0 0 0-.195-.474c-.162-.15-.31-.183-.85-.183h-.485zm1.02-.84c.144.084.216.216.216.4 0 .191-.075.323-.234.407-.138.075-.651.084-.696.012-.033-.048-.04-.693-.012-.804.018-.063.033-.066.327-.066.237 0 .33.012.399.051zm1.497-.27c-.012.009-.021.531-.021 1.155v1.134h.3v-2.31h-.13c-.071 0-.14.009-.15.021zm1.329-.006v2.265c0 .03.147.042.216.015.03-.012.036-.117.03-.498-.006-.342 0-.492.027-.525.036-.045.315-.06.375-.018.039.027.312.477.312.516 0 .015.018.045.039.066.024.021.06.075.084.12.024.042.075.141.114.216.072.135.078.138.216.138.156 0 .2-.033.135-.096a.315.315 0 0 1-.06-.108c-.012-.036-.033-.066-.048-.066-.012 0-.04-.036-.057-.084a1.528 1.528 0 0 0-.072-.14c-.021-.034-.102-.175-.186-.31-.261-.432-.255-.36-.057-.69.096-.159.183-.297.198-.3.012-.006.024-.027.024-.045s.06-.123.135-.234c.075-.111.135-.21.135-.219 0-.009-.063-.018-.144-.018-.105 0-.156.015-.195.06a.284.284 0 0 0-.051.078c0 .033-.22.387-.246.396-.012.006-.024.027-.024.045a.99.99 0 0 1-.12.222l-.117.19h-.165c-.273 0-.258.026-.258-.514v-.477h-.12c-.066 0-.12.006-.12.015zm2.43 1.14v1.155h1.44v-.21h-.549c-.387 0-.561-.012-.585-.036s-.036-.15-.036-.372c0-.447-.012-.435.459-.429.345.003.363 0 .387-.06.051-.138.015-.153-.399-.153-.351 0-.387-.006-.417-.057-.036-.069-.042-.66-.006-.714.018-.027.168-.039.516-.045l.495-.009.009-.114.009-.111H30.06z"/></g></g></svg>