<svg width="36" height="36" fill="none" xmlns="http://www.w3.org/2000/svg"><path d="M18 0c2.837 0 5.52.656 7.907 1.825C31.884 4.753 36 10.895 36 18c0 9.942-8.058 18-18 18-9.94 0-18-8.057-18-18C0 8.06 8.06 0 18 0z" fill="#F2F4F7"/><path d="M8.423 17.663a2.446 2.446 0 0 0-1.117-2.058l.22-.261-.105-.058a2.264 2.264 0 0 0-2.246.025A2.402 2.402 0 0 0 4 17.282v1.3l4.067 1.359v.347H4.522v-1h-.19v1H4v.196h4.257v-.686l-.493-.165v-.294c.423-.449.66-1.05.658-1.676zm3.586-1.502c.286 0 .57.035.848.104l-.066.516a4.562 4.562 0 0 0-.763-.08c-.408 0-.539.142-.539.478v1.212c0 .336.131.478.539.478a4.55 4.55 0 0 0 .763-.08l.066.516a3.516 3.516 0 0 1-.848.104c-.777 0-1.11-.336-1.11-.914v-1.42c0-.578.333-.914 1.11-.914zm2.276.847c.782 0 .993.436.993.91v.582c0 .473-.21.909-.993.909-.782 0-.993-.436-.993-.91v-.582c0-.473.211-.909.993-.909zm6.348-.847c.272.002.543.038.805.109l-.032.236a3.718 3.718 0 0 0-.764-.094c-.618 0-.702.151-.702.544 0 .512.014.535.67.701.819.208.866.327.866.923 0 .516-.173.829-.965.829-.3 0-.598-.05-.88-.152l.051-.227c.272.083.554.127.839.128.533 0 .679-.161.679-.564 0-.487-.005-.54-.698-.7-.754-.175-.839-.313-.839-.947 0-.516.188-.786.97-.786zm4.73.847c.59 0 .825.237.825.668v1.686h-.235l-.018-.18a1.43 1.43 0 0 1-.773.227c-.403 0-.59-.232-.59-.644 0-.488.22-.64.67-.64h.674v-.45c0-.316-.164-.42-.538-.42a3.506 3.506 0 0 0-.675.075l-.042-.232c.23-.058.465-.089.702-.09zm3.77 0c.642 0 .83.365.83.838v.445h-1.41v.29c0 .411.14.586.595.586a2.84 2.84 0 0 0 .721-.109l.047.223a2.48 2.48 0 0 1-.787.128c-.642 0-.848-.336-.848-.838v-.725c0-.473.211-.838.853-.838zm2.193 0c.218 0 .435.026.646.08l-.028.233a3.585 3.585 0 0 0-.637-.067c-.398 0-.454.105-.454.356 0 .317.018.35.44.459.67.17.707.28.707.71 0 .417-.15.63-.759.63-.228 0-.455-.04-.67-.119l.047-.222c.197.06.4.091.605.095.421 0 .506-.08.506-.374 0-.332-.01-.365-.53-.488-.571-.137-.618-.28-.618-.7 0-.384.183-.593.745-.593zm-12.863 0c.38 0 .515.27.515.682v1.671h-.571v-1.61c0-.122-.052-.184-.183-.184-.14 0-.389.085-.595.194v1.6h-.571v-2.305h.435l.057.194a2.26 2.26 0 0 1 .913-.242zm4.034-.932v1.183c.244-.118.642-.25.913-.25.356 0 .483.203.483.52v1.832h-.272v-1.865c0-.17-.089-.232-.248-.232-.188 0-.59.114-.876.265v1.832h-.271v-3.248l.271-.037zm5.4.932.033.27a5.07 5.07 0 0 0-.721.426v1.657h-.272v-2.305h.244l.014.35c.243-.16.487-.317.702-.398zm-11.495.048v2.305h-.571v-2.305h.571zm9.514 1.316h-.665c-.314 0-.407.095-.407.398 0 .27.056.393.374.393.251-.009.494-.091.698-.237v-.554zm-11.63-.871c-.305 0-.422.137-.422.397v.62c0 .261.117.398.421.398.305 0 .422-.137.422-.397v-.62c0-.261-.117-.398-.422-.398zm14.848-.256c-.427 0-.581.204-.581.592v.208h1.143v-.208c0-.388-.136-.592-.562-.592zm-12.732-1.184v.668h-.571v-.668h.571zM7.573 19.57 4.19 18.44v-1.153a2.208 2.208 0 0 1 1.03-1.775 2.079 2.079 0 0 1 2.004-.109L6.23 16.59a.812.812 0 0 0-.9.385.866.866 0 0 0 .09 1 .805.805 0 0 0 .953.209l1.2 1.16v.226zM6.31 17.412a.282.282 0 0 1-.169.26.268.268 0 0 1-.298-.06.288.288 0 0 1-.06-.308.274.274 0 0 1 .253-.174c.152 0 .274.126.274.282zm1.355 1.752-1.123-1.086a.856.856 0 0 0 .313-.741.846.846 0 0 0-.435-.673l.76-.909a2.246 2.246 0 0 1 1.052 1.908 2.24 2.24 0 0 1-.567 1.5z" fill="#3D4757"/></svg>