<svg height="36" viewBox="0 0 36 36" width="36" xmlns="http://www.w3.org/2000/svg"><g fill="none"><path d="M18 0c2.837 0 5.52.656 7.907 1.825C31.884 4.753 36 10.895 36 18c0 9.942-8.058 18-18 18-9.94 0-18-8.057-18-18C0 8.06 8.06 0 18 0z" fill="#f2f4f7"/><path d="M8 8h20v20H8z" fill="#00008f"/><path d="M19.245 17.877h1.149L28 8h-1.123z" fill="#ff1721"/><path d="M23.282 22.285c.349.975 1.067 3.513 1.352 3.715H22.75a3.145 3.145 0 0 0-.089-.665c-.081-.29-.763-2.485-.763-2.485H18.9l-.47.668s.565 1.77.6 1.857c.061.157.331.625.331.625h-1.807s-.047-.27-.065-.383c-.014-.09-.17-.59-.17-.59s-.41.45-.522.658a6.432 6.432 0 0 0-.163.315h-1.413s-.048-.27-.065-.383c-.014-.09-.187-.629-.187-.629s-.396.48-.508.688c-.112.208-.16.324-.16.324h-1.399s.395-.376.533-.538c.233-.274 1.101-1.408 1.101-1.408l-.348-1.204h-2.973s-1.695 2.227-1.761 2.296c-.068.068-.562.777-.573.854H8v-.56a.422.422 0 0 1 .035-.034 96.434 96.434 0 0 0 2.44-3.121 144.472 144.472 0 0 0 2.098-2.773c.207-.3.506-.95.506-.95h1.537s.047.597.092.742c.04.128.976 3.2.998 3.234l.518-.662-.885-2.725s-.207-.512-.275-.59h1.795c-.006.166.014.33.059.489.073.225.458 1.613.458 1.613s1.224-1.534 1.296-1.645a.995.995 0 0 0 .151-.456h1.496s-.274.2-.754.807l-1.74 2.212.204.704c.019.067.031.112.031.117 0 .002.035-.04.095-.117.408-.517 2.261-2.948 2.374-3.156.09-.168.224-.359.302-.567h1.46s.033.436.077.556zm-2.22-2.301c-.215.46-1.476 1.996-1.476 1.996h1.997s-.387-1.192-.455-1.461a2.133 2.133 0 0 1-.039-.522c0-.025-.004-.064-.028-.013zm-7.675 0c-.215.46-1.476 1.996-1.476 1.996h1.998s-.387-1.192-.455-1.461a2.133 2.133 0 0 1-.039-.522c0-.025-.005-.064-.028-.013zm3.007 4.655.55-.755c-.05-.054-.36-.993-.36-.993l-.532.69z" fill="#fff"/></g></svg>