<svg width="36" height="36" xmlns="http://www.w3.org/2000/svg" xmlns:xlink="http://www.w3.org/1999/xlink"><defs><path id="a" d="M.165.214h27.642V15.96H.165z"/></defs><g fill="none" fill-rule="evenodd"><path d="M18 0c2.837 0 5.52.656 7.907 1.825C31.884 4.753 36 10.895 36 18c0 9.942-8.058 18-18 18-9.94 0-18-8.057-18-18C0 8.06 8.06 0 18 0z" fill="#F2F4F7" fill-rule="nonzero"/><path fill="#C4122E" fill-rule="nonzero" d="M13.183 24.237h-1.13v-4.482h1.13v4.482z"/><g transform="matrix(1 0 0 -1 4.034 26.126)"><mask id="b" fill="#fff"><use xlink:href="#a"/></mask><g mask="url(#b)" fill-rule="nonzero"><path d="M18.268 5.087c-.047.023-.41.24-.952.24-.73 0-1.238-.51-1.238-1.196 0-.666.485-1.197 1.238-1.197.532 0 .902.212.952.238V1.97c-.142-.04-.528-.16-1.03-.16-1.273 0-2.39.878-2.39 2.322 0 1.338 1.01 2.32 2.39 2.32.53 0 .923-.13 1.03-.161V5.087zm-11.805 0c-.045.023-.409.24-.95.24-.732 0-1.239-.51-1.239-1.196 0-.666.486-1.197 1.24-1.197.531 0 .9.212.95.238V1.97c-.141-.04-.527-.16-1.032-.16-1.271 0-2.386.878-2.386 2.322 0 1.338 1.01 2.32 2.386 2.32.532 0 .925-.13 1.031-.161V5.087zm15.362.222c-.67 0-1.169-.528-1.169-1.178 0-.652.498-1.18 1.17-1.18.67 0 1.17.528 1.17 1.18 0 .65-.5 1.178-1.17 1.178m2.368-1.178c0-1.282-.99-2.321-2.368-2.321-1.379 0-2.367 1.039-2.367 2.321 0 1.28.988 2.32 2.366 2.32 1.379 0 2.369-1.04 2.369-2.32M13.438 5.352a3.87 3.87 0 0 1-.884.137c-.454 0-.7-.152-.7-.367 0-.273.332-.368.518-.427l.312-.1c.735-.233 1.069-.736 1.069-1.281 0-1.126-.99-1.505-1.856-1.505-.601 0-1.165.111-1.22.123v1.032c.1-.026.574-.167 1.068-.167.562 0 .821.164.821.418 0 .227-.224.358-.504.446-.068.023-.172.056-.242.078-.63.2-1.155.57-1.155 1.312 0 .838.628 1.4 1.67 1.4.551 0 1.069-.133 1.103-.142v-.956z" fill="#C4122E"/><path d="M1.846 11.187a.56.56 0 0 1-1.123 0v-1.176a.562.562 0 0 1 1.123 0v1.176zm3.084 1.544a.562.562 0 1 1-1.123 0v-2.72a.562.562 0 1 1 1.123 0v2.72zm3.085 2.113a.561.561 0 0 1-1.124 0V8.893a.562.562 0 0 1 1.124 0v5.951zm3.083-2.113a.562.562 0 1 1-1.123 0v-2.72a.562.562 0 1 1 1.123 0v2.72zm3.081-1.544a.559.559 0 1 1-1.12 0v-1.176a.56.56 0 0 1 1.12 0v1.176zm3.086 1.544a.56.56 0 0 1-1.12 0v-2.72a.56.56 0 1 1 1.12 0v2.72zm3.086 2.113a.56.56 0 0 1-1.12 0V8.893a.56.56 0 1 1 1.12 0v5.951zm3.085-2.113c0 .31-.25.56-.567.56a.56.56 0 0 1-.56-.56v-2.72a.56.56 0 0 1 .56-.561.56.56 0 0 1 .567.56v2.722zm3.08-1.544a.56.56 0 1 1-1.12 0v-1.176a.56.56 0 1 1 1.12 0v1.176z" fill="#15495D"/><path d="M25.868 2.927v-.124h-.2V1.89h-.082v.913h-.2v.124h.482zm.042 0h.129l.176-.851h.003l.171.85h.126V1.89h-.084v.85h-.003l-.179-.85h-.078l-.174.85h-.004v-.85h-.083v1.037z" fill="#C4122E"/></g></g></g></svg>