<svg width="36" height="36" fill="none" xmlns="http://www.w3.org/2000/svg"><path d="M18 0c2.837 0 5.52.656 7.907 1.825C31.884 4.753 36 10.895 36 18c0 9.942-8.058 18-18 18-9.94 0-18-8.057-18-18C0 8.06 8.06 0 18 0z" fill="#F2F4F7"/><g fill-rule="evenodd" clip-rule="evenodd"><path d="m5.605 16.534.957 1.052c.169.185.097.577-.012.742l-.95-1.034c-.161-.213-.089-.56.005-.76z" fill="#FDC400"/><path d="m4.597 17.658 1.365.733c.19.103.258.554.257.753l-1.459-.77c-.185-.116-.195-.527-.163-.716zM7.18 16l.347 1.347c.05.196-.22.445-.363.566l-.34-1.328c-.061-.233.161-.47.356-.585z" fill="#E95D0F"/><path d="m4 19.248 1.62.018c.267.004.496.34.608.549H4.512c-.229-.023-.44-.375-.512-.567zm4.713-2.989-.094 1.212c-.016.203-.379.295-.526.337l.09-1.13c.018-.233.337-.372.53-.419zM6.74 19.782h.264c-.124-.375-.074-.753.122-.964.416-.43.867-.343 1.387-.092l.209-.247c-.557-.506-1.467-.572-1.975.023-.17.197-.336.797-.007 1.28zm4.62-2.482c.307.007.566.182.74.474l-.27.168c-.345-.337-.659-.393-.93-.053-.272.341-.268.99-.02 1.34.275.367.714.269.97-.082l.25.212c-.195.355-.477.483-.87.464-1.155-.093-1.27-2.49.13-2.523zm1.783.604a1.189 1.189 0 0 0-.547.138l.13.311c.228-.142.527-.212.735.015.04.043.028.093.03.148v.181c-.475-.153-.796-.072-.997.243-.122.25-.054.576.113.735.233.21.613.188.887-.05v.144h.319v-1.39c-.035-.347-.345-.48-.67-.475zm-.015 1.025c.104 0 .225.014.362.05v.312c-.302.294-.616.255-.713.062-.103-.26.041-.422.351-.424zm2.003-.967c-.203-.007-.373.046-.47.17v-.163h-.338v1.804h.337v-1.29c.201-.28.642-.233.695.11v1.18h.337v-1.224c-.027-.356-.277-.588-.561-.587zm1.68-.058a1.174 1.174 0 0 0-.543.138l.127.311c.228-.142.526-.212.735.015.04.043.031.093.033.148v.181c-.475-.153-.795-.072-.996.243-.123.25-.054.576.112.735.233.21.613.188.887-.05v.144h.315v-1.39c-.034-.347-.345-.48-.67-.475zm-.01 1.025c.103 0 .224.014.362.05v.312c-.303.294-.616.255-.714.062-.103-.26.041-.422.351-.424zm4.544-1.025a1.173 1.173 0 0 0-.543.138l.127.311c.228-.142.526-.212.735.015.04.043.031.093.033.148v.181c-.474-.153-.795-.072-.996.243-.123.25-.054.576.112.735.233.21.613.188.887-.05v.144h.315v-1.39c-.034-.347-.344-.48-.67-.475zm-.01 1.025c.103 0 .225.014.362.05v.312c-.302.294-.616.255-.714.062-.102-.26.042-.422.352-.424zm8.474-1.025a1.189 1.189 0 0 0-.547.138l.127.311c.228-.142.526-.212.735.015.04.043.031.093.033.148v.181c-.475-.153-.795-.072-.996.243-.123.25-.054.576.112.735.233.21.613.188.887-.05v.144h.319v-1.39c-.035-.347-.345-.48-.67-.475zm-.015 1.025c.104 0 .226.014.363.05v.312c-.302.294-.616.255-.714.062-.103-.26.041-.422.351-.424zm-6.468-.967c-.2-.007-.369.045-.467.167v-.16h-.34v1.804h.34V18.48c.203-.276.639-.228.692.112v1.181h.337v-1.224c-.028-.356-.277-.588-.562-.587zm-3.463 1.81h.337v-1.803h-.337v1.802zm.178-2.476a.23.23 0 0 1 0 .46.23.23 0 0 1 0-.46zm-.698-.022-.337.2v.764c-.076-.195-.276-.277-.525-.268-.285-.001-.534.234-.562.59a3.822 3.822 0 0 0 0 .684v.004c.03.354.278.587.562.587.249.009.448-.075.525-.268v.25h.337v-2.543zm-.74 1.036a.44.44 0 0 1 .403.282v.62c-.158.386-.688.41-.75.036v-.004a1.72 1.72 0 0 1 0-.644c.03-.193.183-.29.348-.29zm13.075-.344a.424.424 0 0 0-.37.224v-.22h-.337v1.803h.337v-1.264c.099-.158.286-.312.612-.134l.08-.326a.627.627 0 0 0-.322-.083zm-3.354-.491.338-.2v2.542h-.338v-2.342zm-1.213.447c-.434 0-.79.435-.79.967 0 .533.356.967.79.967.434 0 .786-.434.786-.967 0-.532-.352-.967-.786-.967zm0 .377c.265 0 .478.265.478.59 0 .326-.213.59-.478.59s-.482-.264-.482-.59c0-.325.217-.59.482-.59zm-2.215-.912c.442-.125.752.03 1.013.284l-.228.266c-.312-.287-.666-.37-.88-.082a.112.112 0 0 0-.02.046c-.046.25.049.41.661.542.37.127.662.409.502.955-.143.346-.46.526-.982.454a.972.972 0 0 1-.639-.396l.241-.246c.297.298.642.408.915.251.306-.279.123-.597-.356-.727-.428-.111-.645-.276-.7-.51-.072-.424.15-.724.473-.837z" fill="#CA041A"/></g></svg>