<svg width="36" height="36" fill="none" xmlns="http://www.w3.org/2000/svg"><path d="M18 0c2.837 0 5.52.656 7.907 1.825C31.884 4.753 36 10.895 36 18c0 9.942-8.058 18-18 18-9.94 0-18-8.057-18-18C0 8.06 8.06 0 18 0z" fill="#F2F4F7"/><path d="m14.22 21.579.135 2.916c-1.055.314-2.132.494-3.096.494C7.625 24.989 5 22.813 5 18.416 5.045 14.692 7.154 12 11.259 12c1.637 0 2.737.449 3.028.583l-.18 2.76c-.403-.225-1.39-.718-2.444-.718-2.154 0-3.163 1.39-3.163 3.836 0 2.153 1.189 3.813 3.297 3.813a4.536 4.536 0 0 0 2.423-.695zm6.932-3.948-1.503-.673c-1.122-.494-1.436-.785-1.436-1.436 0-.763.606-1.189 1.615-1.189.965 0 1.997.314 2.58.628l.135-2.468c-1.01-.403-2.199-.493-3.14-.493-2.67 0-4.555 1.346-4.555 3.724 0 1.772.628 2.894 2.692 3.701l.74.292c.965.381 1.526.606 1.526 1.436 0 .785-.449 1.346-1.728 1.346-1.21 0-2.422-.516-2.826-.763l-.202 2.737c.628.157 1.84.493 3.343.493 2.916 0 4.89-1.39 4.89-4.15 0-1.862-.987-2.67-2.131-3.185zm6.169 4.576v-9.983h-3.365v12.54H31v-2.557h-3.679zm1.727-9.624.225.673h.224l.224-.673v.673h.27v-1.032h-.382l-.224.606-.225-.606h-.403v1.032h.269v-.673h.022zm-.964.673h.269v-.807h.291v-.225h-.852v.225h.292v.807z" fill="#FC211A"/></svg>