<svg width="36" height="36" fill="none" xmlns="http://www.w3.org/2000/svg"><path d="M18 0c2.837 0 5.52.656 7.907 1.825C31.884 4.753 36 10.895 36 18c0 9.942-8.058 18-18 18-9.94 0-18-8.057-18-18C0 8.06 8.06 0 18 0z" fill="#F2F4F7"/><path fill-rule="evenodd" clip-rule="evenodd" d="M17.933 7.024c-.014.014-.198.031-.409.039-.492.017-.74.04-.74.07 0 .014-.065.025-.145.025-.08 0-.146.012-.146.026 0 .015-.047.027-.105.027-.059 0-.106.012-.106.026 0 .015-.036.027-.08.027-.043 0-.079.012-.079.026 0 .015-.047.026-.105.026-.059 0-.106.012-.106.027 0 .014-.036.026-.08.026-.043 0-.079.012-.079.027 0 .014-.024.026-.053.026-.029 0-.052.012-.052.027 0 .014-.036.026-.08.026-.043 0-.079.012-.079.027 0 .014-.03.026-.066.026-.036 0-.066.012-.066.026 0 .015-.024.027-.053.027-.03 0-.053.012-.053.026 0 .015-.024.027-.053.027-.029 0-.053.012-.053.026 0 .015-.023.027-.053.027-.029 0-.052.011-.052.026 0 .014-.024.026-.053.026-.03 0-.053.012-.053.027 0 .014-.024.026-.053.026-.029 0-.053.012-.053.027 0 .014-.024.026-.053.026-.029 0-.053.012-.053.027 0 .014-.023.026-.052.026-.03 0-.053.011-.053.025 0 .013-.027.033-.06.043a.893.893 0 0 0-.17.094.582.582 0 0 1-.133.076c-.012 0-.04.024-.06.053-.021.029-.055.053-.075.053-.02 0-.07.035-.11.079-.041.043-.088.08-.105.08a.6.6 0 0 0-.16.131.618.618 0 0 1-.158.133c-.025 0-.121.093-.557.543a.565.565 0 0 0-.104.127.528.528 0 0 1-.106.122c-.058.056-.105.116-.105.133s-.036.065-.08.105c-.043.041-.079.09-.079.11 0 .02-.024.054-.053.075-.029.021-.053.057-.053.08 0 .022-.023.058-.053.079-.029.02-.052.055-.052.075 0 .02-.021.057-.047.08a.508.508 0 0 0-.086.122.436.436 0 0 1-.056.093 2.448 2.448 0 0 0-.208.44c0 .02-.012.036-.026.036-.015 0-.027.035-.027.08 0 .043-.012.078-.026.078-.015 0-.027.024-.027.053 0 .03-.011.053-.026.053s-.026.024-.026.053c0 .029-.012.053-.027.053-.014 0-.026.029-.026.064 0 .036-.012.072-.027.081-.014.01-.026.046-.026.081 0 .036-.012.065-.027.065-.014 0-.026.035-.026.079 0 .043-.012.08-.027.08-.014 0-.026.035-.026.078 0 .044-.012.08-.026.08-.015 0-.027.047-.027.106 0 .058-.012.105-.026.105-.015 0-.027.048-.027.106 0 .058-.011.106-.026.106s-.027.065-.027.145c0 .08-.011.145-.026.145s-.026.08-.026.185c0 .106-.012.185-.027.185-.017 0-.026.291-.026.82 0 .528.01.82.026.82.015 0 .027.079.027.184 0 .106.01.185.026.185.015 0 .027.06.027.132 0 .073.011.133.026.133.014 0 .026.052.026.117s.012.125.027.134c.014.009.026.044.026.079s.012.07.027.08c.014.008.026.056.026.107 0 .05.012.09.027.09.014 0 .026.036.026.08 0 .043.012.08.026.08.015 0 .027.023.027.052 0 .029.012.053.026.053.015 0 .027.036.027.08 0 .043.012.078.026.078.015 0 .027.024.027.053 0 .03.011.053.026.053.014 0 .026.035.026.077 0 .043.01.081.021.086.012.005.067.107.124.227.057.12.113.218.124.218.012 0 .022.024.022.053 0 .029.01.053.02.053s.049.06.085.132c.035.073.074.132.085.132.012 0 .022.016.022.035 0 .019.023.06.053.091.029.031.052.067.052.08a.35.35 0 0 0 .08.107c.043.046.079.09.079.099 0 .008.047.06.106.117a.43.43 0 0 1 .105.13c0 .016.063.094.14.173.468.483.634.648.653.648a.36.36 0 0 1 .103.073c.14.125.159.139.19.139.016 0 .063.035.104.079.04.044.09.08.11.08.02 0 .054.023.075.052.02.03.053.053.072.053.018 0 .034.012.034.027 0 .014.017.026.04.026.021 0 .039.012.039.026 0 .015.018.027.04.027.021 0 .04.01.04.022 0 .012.056.051.125.086a.54.54 0 0 1 .134.083c.005.011.032.02.06.02.027 0 .05.012.05.027 0 .014.024.026.053.026.03 0 .053.012.053.026 0 .015.024.027.053.027.029 0 .053.012.053.026 0 .015.023.027.053.027.029 0 .052.012.052.026 0 .015.024.027.053.027.03 0 .053.012.053.026 0 .015.012.027.027.027.014 0 .083.025.152.055l.208.093c.046.02.115.037.152.037.038 0 .069.012.069.026 0 .015.036.026.08.026.043 0 .079.012.079.027 0 .014.047.026.105.026.058 0 .106.012.106.027 0 .014.036.026.08.026.043 0 .079.012.079.027 0 .014.053.026.119.026.065 0 .119.012.119.026 0 .015.059.027.132.027.072 0 .132.012.132.026 0 .015.08.027.185.027.106 0 .185.011.185.026 0 .017.273.027.766.027.494 0 .767-.01.767-.027 0-.015.08-.026.185-.026.106 0 .185-.012.185-.027 0-.014.06-.026.132-.026.073 0 .132-.012.132-.027 0-.014.048-.026.106-.026.058 0 .106-.012.106-.026 0-.015.041-.027.092-.027s.093-.012.093-.026c0-.015.035-.027.08-.027.043 0 .078-.012.078-.026 0-.015.036-.027.08-.027.043 0 .079-.01.079-.023 0-.012.057-.03.126-.04.069-.01.196-.053.283-.096a.817.817 0 0 1 .205-.078c.026 0 .047-.012.047-.027 0-.014.024-.026.053-.026.029 0 .052-.012.052-.027 0-.014.024-.026.053-.026.03 0 .053-.012.053-.027 0-.014.024-.026.053-.026.03 0 .053-.012.053-.027 0-.014.024-.026.053-.026.029 0 .053-.012.053-.026 0-.015.023-.027.052-.027.03 0 .053-.012.053-.026 0-.015.024-.027.053-.027.03 0 .053-.011.053-.026s.024-.026.053-.026c.03 0 .053-.01.053-.022 0-.012.041-.038.092-.058.051-.02.093-.046.093-.058 0-.011.015-.021.034-.021.049 0 .177-.062.177-.086 0-.01.036-.02.08-.02.043 0 .079-.012.079-.026 0-.015.036-.027.08-.027.043 0 .079-.012.079-.026 0-.015.047-.027.105-.027.058 0 .106-.011.106-.026s.06-.026.132-.026c.073 0 .132-.012.132-.027 0-.017.225-.026.621-.026.397 0 .622.01.622.026 0 .015.053.027.119.027.065 0 .119.011.119.026s.047.026.105.026c.058 0 .106.012.106.027 0 .014.036.026.08.026.043 0 .078.012.078.027 0 .014.036.026.08.026.043 0 .08.012.08.027 0 .014.023.026.052.026.029 0 .053.012.053.027 0 .014.024.026.053.026.029 0 .052.012.052.026 0 .015.034.027.074.027.043 0 .09.022.112.053.02.029.059.052.085.052.026 0 .047.01.047.02 0 .011.038.038.086.058.047.021.109.06.137.086.028.027.064.048.08.048s.046.024.067.053c.02.029.054.053.073.053.02 0 .062.026.096.06.113.109.201.178.23.178.033 0 .262.234.262.268 0 .023.076.12.178.223.033.034.06.072.06.085 0 .013.035.061.079.107a.365.365 0 0 1 .079.104c0 .012.021.045.048.073.026.028.065.09.085.137.021.048.047.086.058.086.011 0 .02.024.02.053 0 .03.012.053.027.053.014 0 .026.024.026.053 0 .029.012.053.027.053.014 0 .026.023.026.053 0 .029.012.052.027.052.014 0 .026.036.026.08 0 .043.012.079.027.079.014 0 .026.024.026.053 0 .029.012.053.026.053.015 0 .027.035.027.08 0 .043.012.078.026.078.015 0 .027.048.027.106 0 .058.012.106.026.106.015 0 .026.041.026.092s.012.093.027.093.026.07.026.158.012.159.027.159c.016 0 .026.154.026.408 0 .244-.01.415-.026.425-.015.009-.027.093-.027.186 0 .096-.011.17-.026.17s-.026.048-.026.106c0 .058-.012.106-.027.106-.014 0-.026.047-.026.106 0 .058-.012.105-.027.105-.014 0-.026.036-.026.08 0 .043-.012.079-.027.079-.014 0-.026.029-.026.064 0 .036-.012.072-.026.081-.015.01-.027.04-.027.068 0 .028-.012.051-.026.051-.015 0-.027.024-.027.053 0 .03-.01.053-.021.053-.012 0-.038.042-.058.093-.02.05-.046.092-.058.092-.012 0-.021.024-.021.053 0 .029-.012.053-.027.053-.014 0-.026.023-.026.053 0 .029-.012.052-.027.052-.014 0-.026.022-.026.047 0 .026-.024.065-.053.086-.029.02-.053.053-.053.073 0 .019-.03.064-.066.1a.277.277 0 0 0-.066.086c0 .033-.654.692-.687.692-.018 0-.065.036-.106.08-.04.043-.09.079-.11.079-.02 0-.054.024-.075.053-.02.029-.06.053-.085.053-.026 0-.047.011-.047.026 0 .014-.016.026-.035.026-.019 0-.058.021-.086.047a.74.74 0 0 1-.29.138c-.021 0-.038.01-.038.021 0 .011-.057.036-.126.055-.07.018-.146.045-.172.058a.246.246 0 0 1-.097.025c-.028 0-.059.012-.068.026-.009.015-.045.027-.08.027-.034 0-.07.012-.079.026-.009.015-.069.027-.133.027-.065 0-.118.012-.118.026 0 .015-.07.027-.158.027s-.159.011-.159.026c0 .016-.154.026-.408.026-.244 0-.415-.01-.424-.026-.01-.015-.08-.026-.16-.026-.077 0-.149-.012-.158-.027-.009-.014-.069-.026-.133-.026-.065 0-.118-.012-.118-.027 0-.014-.035-.026-.078-.026-.042 0-.085-.012-.094-.027-.009-.014-.057-.026-.107-.026-.05 0-.09-.012-.09-.027 0-.014-.019-.026-.04-.026a.224.224 0 0 1-.087-.024 2.32 2.32 0 0 0-.151-.067 1.954 1.954 0 0 1-.152-.069.218.218 0 0 0-.086-.025c-.022 0-.04-.012-.04-.026 0-.015-.021-.027-.047-.027s-.064-.024-.085-.053c-.021-.029-.06-.052-.085-.052-.026 0-.047-.012-.047-.027 0-.014-.02-.026-.043-.026-.023 0-.075-.036-.116-.08-.04-.043-.088-.079-.106-.079-.017 0-.11-.083-.207-.185-.202-.212-.348-.24-.348-.068 0 .023-.012.042-.026.042-.015 0-.026.035-.026.079s-.012.08-.027.08c-.014 0-.026.023-.026.052 0 .03-.012.053-.027.053-.014 0-.026.036-.026.08 0 .043-.012.079-.027.079-.014 0-.026.023-.026.052 0 .03-.012.053-.026.053-.015 0-.027.024-.027.053 0 .03-.009.053-.02.053-.01 0-.05.066-.086.145a.536.536 0 0 1-.081.146.978.978 0 0 0-.114.197 1.162 1.162 0 0 1-.123.213c-.014.009-.025.036-.025.061s-.024.063-.053.084c-.03.02-.053.055-.053.075 0 .02-.02.057-.046.08a.494.494 0 0 0-.084.116c-.02.04-.047.072-.06.072-.012 0-.021.012-.021.027a.524.524 0 0 1-.106.138c-.058.062-.106.134-.106.16 0 .052.165.23.213.23.017 0 .064.036.104.08.041.043.09.079.11.079.02 0 .054.024.075.053.021.029.05.053.063.053.013 0 .081.041.152.092a.55.55 0 0 0 .169.093c.021 0 .04.012.04.026 0 .015.023.027.052.027.03 0 .053.012.053.026 0 .015.024.027.053.027.029 0 .053.011.053.026s.023.026.053.026c.029 0 .052.012.052.027 0 .014.024.026.053.026.03 0 .053.012.053.027 0 .014.024.026.053.026.03 0 .053.012.053.026 0 .015.024.027.053.027.029 0 .053.012.053.026 0 .015.023.027.052.027.03 0 .053.012.053.026 0 .015.03.027.065.027s.072.012.08.026c.01.015.046.026.082.026.035 0 .064.012.064.027 0 .014.036.026.08.026.043 0 .079.012.079.027 0 .014.035.026.079.026s.08.012.08.027c0 .014.035.026.079.026.043 0 .079.012.079.027 0 .014.047.026.106.026.058 0 .105.012.105.026 0 .015.06.027.133.027.072 0 .132.012.132.026 0 .015.064.027.143.027.08 0 .152.012.16.026.01.015.146.027.32.027.183 0 .302.01.302.026s.119.026.304.026.304-.01.304-.026.119-.026.304-.026.304-.01.304-.027c0-.015.07-.026.158-.026s.159-.012.159-.027c0-.014.06-.026.132-.026.073 0 .132-.012.132-.027 0-.014.048-.026.106-.026.058 0 .105-.012.105-.026 0-.015.041-.027.091-.027.05 0 .099-.012.108-.026.009-.015.045-.027.08-.027.036 0 .065-.012.065-.026 0-.015.036-.027.08-.027.043 0 .079-.012.079-.026 0-.015.035-.027.079-.027s.08-.011.08-.026c0-.014.035-.026.079-.026.043 0 .079-.012.079-.027 0-.014.024-.026.053-.026.029 0 .053-.012.053-.027 0-.014.023-.026.052-.026a.407.407 0 0 0 .146-.053.417.417 0 0 1 .133-.053c.021 0 .039-.012.039-.026 0-.015.018-.027.04-.027.021 0 .039-.011.039-.026s.024-.026.053-.026c.029 0 .053-.012.053-.027 0-.014.024-.026.053-.026.029 0 .052-.012.052-.027 0-.014.018-.026.04-.026.05 0 .225-.084.225-.108 0-.01.035-.033.08-.05.043-.019.078-.044.078-.057 0-.013.024-.023.053-.023.03 0 .053-.012.053-.027 0-.014.016-.026.036-.026.02 0 .073-.036.119-.08a.435.435 0 0 1 .099-.079.378.378 0 0 0 .09-.079c.04-.044.088-.08.105-.08a.6.6 0 0 0 .159-.131.614.614 0 0 1 .158-.133c.038 0 .635-.593.635-.63a.38.38 0 0 1 .093-.121c.05-.05.092-.106.092-.122 0-.017.036-.064.08-.104.043-.041.079-.089.079-.106 0-.018.035-.065.079-.106.043-.04.08-.093.08-.116 0-.024.011-.043.026-.043.014 0 .026-.017.026-.04 0-.021.012-.039.027-.039.014 0 .026-.018.026-.04 0-.021.012-.04.026-.04.015 0 .027-.017.027-.039 0-.021.012-.04.026-.04.015 0 .027-.023.027-.052 0-.03.01-.053.022-.053.03 0 .295-.529.295-.588 0-.026.011-.047.025-.047.013 0 .032-.053.042-.118.01-.066.029-.12.041-.12.013 0 .024-.023.024-.052 0-.03.012-.053.026-.053.015 0 .027-.036.027-.08 0-.043.012-.079.026-.079.015 0 .027-.047.027-.105 0-.059.012-.106.026-.106.015 0 .026-.036.026-.08 0-.043.012-.079.027-.079.014 0 .026-.06.026-.132 0-.073.012-.132.027-.132.014 0 .026-.054.026-.119s.012-.119.027-.119.026-.08.026-.185c0-.106.011-.185.027-.185.017 0 .026-.317.026-.899 0-.581-.01-.898-.026-.898s-.027-.08-.027-.185c0-.106-.011-.185-.026-.185s-.027-.06-.027-.133c0-.072-.012-.132-.026-.132-.015 0-.027-.047-.027-.105 0-.059-.012-.106-.026-.106-.015 0-.027-.042-.027-.093 0-.05-.011-.092-.026-.092-.014 0-.026-.036-.026-.08 0-.043-.012-.079-.027-.079-.014 0-.026-.035-.026-.079s-.012-.08-.027-.08c-.014 0-.026-.035-.026-.079 0-.043-.01-.079-.023-.079-.014 0-.032-.045-.042-.1a1.051 1.051 0 0 0-.096-.242.764.764 0 0 1-.077-.178c0-.02-.012-.035-.026-.035-.015 0-.027-.024-.027-.053 0-.029-.012-.053-.026-.053-.015 0-.027-.024-.027-.053 0-.029-.012-.052-.026-.052-.015 0-.027-.022-.027-.047 0-.026-.023-.065-.052-.086-.03-.02-.053-.059-.053-.085 0-.026-.012-.047-.027-.047-.014 0-.026-.02-.026-.047 0-.026-.024-.064-.053-.085-.029-.02-.053-.057-.053-.08 0-.022-.024-.058-.053-.078-.029-.021-.053-.054-.053-.072 0-.019-.011-.034-.026-.034-.014 0-.026-.015-.026-.034 0-.019-.024-.051-.053-.072-.03-.02-.053-.048-.053-.06a.495.495 0 0 0-.106-.125c-.058-.056-.106-.118-.106-.139 0-.043-.667-.728-.78-.801a1.169 1.169 0 0 1-.21-.163c-.036-.033-.082-.06-.104-.06-.021 0-.046-.024-.055-.053-.01-.029-.034-.053-.055-.053-.021 0-.076-.035-.121-.079-.046-.044-.097-.08-.113-.08-.017 0-.047-.023-.068-.052-.021-.03-.06-.053-.085-.053-.026 0-.047-.012-.047-.027 0-.014-.021-.026-.047-.026s-.065-.024-.085-.053c-.021-.029-.06-.053-.086-.053-.026 0-.047-.012-.047-.026 0-.015-.023-.027-.053-.027-.029 0-.052-.011-.052-.026s-.024-.026-.053-.026c-.03 0-.053-.012-.053-.027 0-.014-.023-.026-.05-.026-.029 0-.055-.01-.06-.02-.011-.027-.357-.192-.401-.192a.1.1 0 0 1-.059-.023 1.045 1.045 0 0 0-.347-.109c-.034 0-.061-.012-.061-.026 0-.015-.036-.027-.08-.027-.043 0-.079-.012-.079-.026 0-.015-.029-.027-.064-.027-.036 0-.072-.012-.081-.026-.01-.015-.057-.026-.106-.026-.049 0-.096-.012-.105-.027-.01-.014-.07-.026-.134-.026-.065 0-.118-.012-.118-.027 0-.014-.06-.026-.132-.026-.072 0-.132-.012-.132-.027s-.084-.026-.198-.026c-.115 0-.198-.011-.198-.026 0-.017-.252-.027-.7-.027-.45 0-.701.01-.701.027 0 .015-.084.026-.197.026-.108 0-.204.012-.213.026-.009.015-.07.027-.134.027s-.117.012-.117.026c0 .015-.048.027-.106.027-.058 0-.106.012-.106.026 0 .015-.047.027-.105.027-.058 0-.106.011-.106.026 0 .014-.036.026-.08.026-.043 0-.079.012-.079.027 0 .014-.035.026-.079.026s-.08.012-.08.027c0 .014-.024.026-.055.026-.07 0-.324.085-.336.113-.005.01-.032.02-.06.02-.028 0-.05.011-.05.026 0 .014-.02.026-.045.026-.058 0-.484.213-.484.242 0 .012-.024.023-.053.023-.029 0-.053.011-.053.026 0 .014-.023.026-.053.026-.029 0-.052.012-.052.027 0 .014-.024.026-.053.026-.03 0-.053.01-.053.022 0 .011-.042.038-.093.057-.05.02-.092.047-.092.058 0 .012-.024.022-.053.022-.03 0-.053.012-.053.026 0 .015-.036.027-.08.027-.043 0-.078.012-.078.026 0 .015-.036.027-.08.027-.044 0-.08.011-.08.026s-.035.026-.078.026c-.044 0-.08.012-.08.027 0 .014-.035.026-.079.026s-.08.012-.08.027c0 .014-.052.026-.117.026-.064 0-.124.012-.133.027-.01.014-.105.026-.213.026-.114 0-.197.011-.197.026 0 .016-.097.027-.238.027-.14 0-.238-.01-.238-.027 0-.015-.083-.026-.197-.026-.108 0-.204-.012-.213-.026-.009-.015-.069-.027-.133-.027-.065 0-.118-.012-.118-.026 0-.015-.047-.027-.105-.027-.059 0-.106-.012-.106-.026 0-.015-.036-.027-.08-.027-.043 0-.079-.011-.079-.026s-.035-.026-.079-.026-.08-.012-.08-.027c0-.014-.023-.026-.052-.026-.03 0-.053-.012-.053-.027 0-.014-.024-.026-.053-.026-.029 0-.053-.012-.053-.027 0-.014-.03-.026-.066-.026-.036 0-.066-.012-.066-.027 0-.014-.024-.026-.053-.026-.029 0-.053-.01-.053-.022 0-.013-.056-.051-.125-.086a1.05 1.05 0 0 1-.177-.11c-.028-.025-.067-.046-.086-.046-.019 0-.035-.01-.035-.022 0-.012-.032-.039-.072-.06a.668.668 0 0 1-.129-.09 1.185 1.185 0 0 0-.21-.172c-.02 0-.25-.234-.25-.255 0-.018-.01-.032-.17-.2a.456.456 0 0 1-.094-.122.352.352 0 0 0-.079-.106c-.044-.046-.08-.1-.08-.123 0-.022-.011-.04-.026-.04-.014 0-.026-.015-.026-.034 0-.02-.024-.06-.053-.092-.03-.03-.053-.069-.053-.084a.027.027 0 0 0-.026-.027c-.015 0-.027-.024-.027-.053 0-.03-.012-.053-.026-.053-.015 0-.027-.024-.027-.053 0-.03-.011-.053-.026-.053-.014 0-.026-.024-.026-.053 0-.029-.012-.053-.027-.053-.014 0-.026-.035-.026-.079s-.012-.08-.027-.08c-.014 0-.026-.023-.026-.052 0-.03-.011-.053-.025-.053-.013 0-.032-.078-.042-.172a.51.51 0 0 0-.042-.187c-.013-.008-.023-.06-.023-.117 0-.056-.012-.11-.027-.119-.014-.009-.026-.087-.026-.173 0-.087-.012-.157-.027-.157-.016 0-.026-.15-.026-.397 0-.246.01-.396.026-.396.015 0 .027-.074.027-.17 0-.094.01-.177.024-.185.013-.008.03-.06.038-.114.04-.274.08-.456.1-.456.013 0 .023-.03.023-.066 0-.037.012-.066.026-.066.015 0 .027-.024.027-.053 0-.03.012-.053.026-.053.015 0 .027-.024.027-.053 0-.029.011-.053.026-.053.014 0 .026-.024.026-.053 0-.029.012-.053.027-.053.014 0 .026-.023.026-.052 0-.03.012-.053.027-.053.014 0 .026-.024.026-.053 0-.03.012-.053.027-.053.014 0 .026-.021.026-.047s.024-.064.053-.085c.029-.021.053-.057.053-.08 0-.022.023-.058.053-.079.029-.02.053-.054.053-.074 0-.02.047-.081.105-.137a.626.626 0 0 0 .106-.118c0-.009.074-.093.165-.187.091-.094.195-.206.231-.25.037-.043.082-.078.102-.079.02 0 .07-.036.11-.08.04-.043.09-.08.11-.08.02 0 .054-.023.075-.052.02-.03.056-.053.08-.053.022 0 .057-.024.079-.053.02-.029.059-.053.085-.053.025 0 .047-.011.047-.026s.023-.027.052-.027c.03 0 .053-.011.053-.026 0-.014.015-.026.033-.026.019 0 .092-.03.164-.066a.687.687 0 0 1 .165-.067c.019 0 .035-.011.035-.026 0-.014.029-.026.064-.026.036 0 .072-.012.081-.027.01-.014.045-.026.08-.026.034 0 .07-.012.079-.027.009-.014.051-.026.094-.026.043 0 .078-.012.078-.027 0-.014.052-.026.117-.026.064 0 .125-.012.134-.026.009-.015.08-.027.16-.027.079 0 .144-.012.144-.026 0-.017.167-.027.449-.027.282 0 .45.01.45.027 0 .014.064.026.143.026.08 0 .151.012.16.027.01.014.057.026.106.026.05 0 .097.012.106.026.009.015.057.027.107.027.05 0 .091.012.091.026 0 .015.036.027.08.027.043 0 .079.012.079.026 0 .015.023.027.05.027.03 0 .06.012.069.026.009.015.045.026.08.026.036 0 .065.012.065.027 0 .014.023.026.051.026.028 0 .058.011.067.025.008.013.05.032.094.042.043.009.079.028.079.041 0 .014.02.024.047.024.026 0 .064.024.085.053.02.03.06.053.085.053.026 0 .047.012.047.027 0 .014.019.026.042.026.023 0 .076.036.117.08.04.043.087.079.104.079.036 0 .768.737.768.773 0 .014.035.058.08.099.043.04.078.093.078.116 0 .024.012.043.027.043.014 0 .026.02.026.047 0 .025.024.064.053.085.03.02.053.059.053.085 0 .026.012.047.026.047.015 0 .027.024.027.053 0 .029.012.053.026.053.015 0 .027.023.027.053 0 .029.009.052.02.053.023 0 .085.128.085.176 0 .02.012.035.027.035.014 0 .026.03.026.066 0 .036.012.066.027.066.014 0 .026.036.026.08 0 .043.01.079.021.079.012 0 .037.08.055.178l.062.31c.039.183.058 1.335.022 1.335-.015 0-.028.059-.028.13 0 .073-.012.139-.026.148-.015.009-.026.063-.026.12v.105h.184c.106 0 .186-.012.186-.027 0-.016.096-.026.237-.026s.238-.011.238-.027c0-.017.225-.026.621-.026.397 0 .622.01.622.026s.1.027.25.027.252.01.252.026c0 .015.024.027.053.027.035 0 .052-.018.052-.053 0-.03.012-.053.027-.053s.026-.093.026-.225.011-.225.027-.225c.017 0 .026-.207.026-.568s-.01-.568-.026-.568-.027-.092-.027-.223c0-.123-.012-.23-.026-.24-.015-.009-.027-.068-.027-.132s-.011-.123-.026-.132c-.014-.009-.026-.07-.026-.134s-.012-.117-.027-.117c-.014 0-.026-.048-.026-.106 0-.058-.012-.105-.027-.105-.014 0-.026-.036-.026-.08 0-.043-.012-.08-.026-.08-.015 0-.027-.047-.027-.105 0-.058-.012-.106-.026-.106-.015 0-.027-.023-.027-.052 0-.03-.012-.053-.026-.053-.015 0-.027-.03-.027-.065s-.012-.072-.026-.08c-.015-.01-.026-.046-.026-.082 0-.035-.012-.064-.027-.064-.014 0-.026-.024-.026-.053 0-.029-.012-.053-.027-.053-.014 0-.026-.024-.026-.053 0-.029-.011-.052-.024-.052-.014 0-.033-.048-.042-.106-.01-.058-.029-.106-.042-.106-.014 0-.024-.024-.024-.053 0-.029-.012-.053-.027-.053-.014 0-.026-.023-.026-.05 0-.028-.01-.055-.02-.06a.602.602 0 0 1-.086-.14 1.076 1.076 0 0 0-.112-.184c-.026-.028-.047-.064-.047-.08s-.023-.046-.052-.067c-.03-.021-.053-.057-.053-.08 0-.022-.024-.058-.053-.079-.03-.02-.053-.051-.053-.068 0-.016-.036-.067-.08-.113-.043-.045-.079-.096-.079-.111a.432.432 0 0 0-.105-.13c-.059-.057-.106-.116-.106-.134 0-.039-.73-.765-.769-.765a.437.437 0 0 1-.13-.106c-.056-.058-.115-.106-.132-.106-.018 0-.065-.036-.106-.08-.04-.043-.085-.078-.099-.078-.013 0-.046-.024-.072-.053-.027-.03-.063-.053-.08-.053s-.053-.024-.08-.053c-.025-.03-.061-.053-.08-.053-.017 0-.046-.018-.064-.04a.123.123 0 0 0-.083-.04c-.027 0-.05-.011-.05-.026 0-.014-.023-.026-.052-.026-.03 0-.053-.012-.053-.026 0-.015-.022-.027-.047-.027-.026 0-.065-.024-.085-.053-.021-.029-.06-.053-.086-.053-.026 0-.047-.012-.047-.026 0-.015-.023-.026-.053-.026-.029 0-.052-.012-.052-.027 0-.014-.03-.026-.067-.026-.036 0-.066-.012-.066-.027 0-.014-.023-.026-.052-.026-.03 0-.053-.012-.053-.027 0-.014-.023-.026-.052-.026-.028 0-.058-.012-.067-.026-.01-.015-.046-.027-.081-.027-.036 0-.065-.012-.065-.026 0-.015-.035-.027-.079-.027-.043 0-.08-.012-.08-.026 0-.015-.035-.027-.079-.027-.043 0-.079-.012-.079-.026 0-.015-.035-.027-.08-.027-.043 0-.078-.011-.078-.026 0-.014-.036-.026-.08-.026-.043 0-.079-.012-.079-.027 0-.014-.053-.026-.117-.026-.065 0-.125-.012-.134-.027-.009-.014-.057-.026-.106-.026-.049 0-.096-.012-.105-.027-.01-.014-.093-.026-.187-.026-.096 0-.17-.012-.17-.026 0-.017-.145-.027-.382-.027-.226 0-.388-.01-.398-.026-.02-.034-.153-.035-.186-.002zm-7.929 9.84-.151.077a.231.231 0 0 1-.086.023c-.022 0-.04.012-.04.027 0 .014-.024.026-.053.026-.03 0-.053.012-.053.026 0 .015-.024.027-.053.027-.029 0-.053.012-.053.026 0 .015-.02.027-.047.027-.025 0-.064.023-.085.052-.02.03-.059.053-.085.053-.026 0-.047.012-.047.027 0 .014-.024.026-.053.026-.029 0-.053.012-.053.027 0 .014-.015.026-.034.026-.02 0-.06.024-.092.053-.03.029-.069.053-.084.053a.027.027 0 0 0-.028.026c0 .015-.017.027-.04.027-.021 0-.039.012-.039.026 0 .015-.018.027-.04.027-.021 0-.04.01-.04.021 0 .013-.032.04-.072.06a.872.872 0 0 0-.17.137c-.053.054-.113.099-.134.099a.513.513 0 0 0-.16.119.688.688 0 0 1-.147.119c-.027 0-.397.388-.453.475a1.55 1.55 0 0 1-.152.175.505.505 0 0 0-.112.144c0 .017-.036.064-.08.104-.043.041-.079.088-.079.103 0 .016-.01.03-.022.03-.012 0-.038.032-.059.072a.705.705 0 0 1-.084.124c-.025.028-.046.061-.046.074 0 .012-.024.048-.053.08-.029.03-.053.072-.053.09 0 .02-.012.035-.026.035-.015 0-.027.024-.027.053 0 .03-.012.053-.026.053-.015 0-.026.024-.026.053 0 .029-.012.053-.027.053-.014 0-.026.024-.026.053 0 .029-.012.052-.027.052-.014 0-.026.023-.026.051 0 .028-.01.055-.021.06-.03.013-.153.28-.193.425-.02.069-.045.125-.056.125-.012 0-.021.036-.021.08 0 .043-.012.079-.026.079-.015 0-.027.035-.027.08 0 .043-.012.078-.026.078-.015 0-.027.036-.027.08 0 .043-.012.079-.026.079-.015 0-.027.047-.027.106 0 .058-.011.105-.026.105s-.026.042-.026.093c0 .05-.012.092-.027.092s-.026.071-.026.159c0 .088-.012.159-.027.159-.014 0-.026.07-.026.158s-.012.159-.027.159c-.017 0-.026.317-.026.899 0 .581.01.898.026.898.015 0 .027.075.027.17 0 .094.012.178.026.187.015.009.027.07.027.134s.012.117.026.117c.015 0 .027.048.027.106 0 .058.011.105.026.105s.026.048.026.106c0 .058.012.106.027.106.014 0 .026.036.026.08 0 .043.012.079.027.079.014 0 .026.035.026.079 0 .043.012.08.027.08.014 0 .026.035.026.079 0 .043.012.079.026.079.015 0 .027.026.027.06 0 .061.08.293.113.326.01.01.02.04.02.067 0 .027.011.049.026.049.014 0 .026.024.026.053 0 .029.012.053.026.053.015 0 .027.027.027.06 0 .034.02.085.046.114.065.075.112.162.112.209 0 .022.012.04.027.04.014 0 .026.018.026.04 0 .021.012.039.027.039.014 0 .026.021.026.047s.024.064.053.085c.029.021.053.057.053.08 0 .022.024.058.053.079.029.02.053.056.053.079s.023.058.052.08c.03.02.053.054.053.074 0 .02.036.07.08.11.043.041.079.087.079.103s.047.078.106.138a.47.47 0 0 1 .105.139c0 .035.683.704.72.704.013 0 .07.047.126.106.056.058.116.105.133.105s.064.036.105.08c.04.043.086.079.1.079.014 0 .04.018.059.04.018.022.076.06.129.085a.506.506 0 0 1 .109.062.57.57 0 0 0 .223.104c.022 0 .04.012.04.026 0 .015.022.027.048.027.026 0 .064.023.085.053.02.029.06.052.085.052.026 0 .047.012.047.027 0 .014.036.026.08.026.043 0 .079.012.079.027 0 .014.018.026.04.026.021 0 .039.012.039.026 0 .015.023.027.051.027.029 0 .059.012.068.026.009.015.045.027.08.027.036 0 .065.012.065.026 0 .015.024.027.053.027.03 0 .053.012.053.026 0 .015.036.026.08.026.043 0 .079.012.079.027 0 .014.035.026.079.026s.08.012.08.027c0 .014.047.026.105.026.058 0 .106.012.106.027 0 .014.04.026.09.026.05 0 .099.012.108.027.009.014.056.026.106.026.049 0 .096.012.105.026.01.015.069.027.133.027.063 0 .123.012.132.026.009.015.092.027.185.027.092 0 .176.012.185.026.01.016.176.027.411.027.246 0 .395.01.395.026 0 .014.04.026.09.026.05 0 .1-.012.108-.026.01-.016.163-.026.372-.026.219 0 .355-.01.355-.027 0-.015.074-.026.17-.026.094 0 .178-.012.187-.027.009-.014.07-.026.134-.026s.117-.012.117-.027c0-.014.047-.026.106-.026.058 0 .105-.012.105-.026 0-.015.048-.027.106-.027.058 0 .106-.012.106-.026 0-.015.036-.027.08-.027.043 0 .079-.012.079-.026 0-.015.035-.027.079-.027.043 0 .08-.012.08-.026 0-.015.023-.027.052-.027.029 0 .053-.011.053-.026 0-.014.029-.026.064-.026.036 0 .072-.012.081-.027.01-.014.04-.026.068-.026.028 0 .051-.012.051-.027 0-.014.03-.026.066-.026.037 0 .066-.012.066-.027 0-.014.024-.026.053-.026.03 0 .053-.012.053-.026 0-.015.024-.027.053-.027.029 0 .053-.012.053-.026 0-.015.023-.027.053-.027.029 0 .052-.011.052-.026s.024-.026.053-.026c.03 0 .053-.012.053-.027 0-.014.024-.026.053-.026.03 0 .053-.011.053-.025 0-.014.027-.033.06-.043a.933.933 0 0 0 .173-.094.668.668 0 0 1 .132-.076c.011 0 .037-.024.058-.053.02-.03.054-.053.074-.053.02 0 .07-.036.11-.08.042-.043.09-.079.107-.079s.064-.035.105-.079c.041-.044.088-.08.104-.08.038 0 .98-.94.98-.98 0-.015.036-.062.08-.103.043-.04.079-.088.079-.106 0-.017.035-.065.079-.105.043-.041.08-.09.08-.11 0-.02.023-.054.052-.075.03-.021.053-.055.053-.076 0-.02.021-.056.047-.08a.569.569 0 0 0 .095-.135c.026-.051.082-.152.124-.225a.614.614 0 0 0 .077-.178c0-.026.012-.046.027-.046.014 0 .026-.024.026-.053 0-.03.012-.053.027-.053.014 0 .026-.024.026-.053 0-.03.012-.053.027-.053.014 0 .026-.024.026-.053 0-.029.012-.053.027-.053.014 0 .026-.035.026-.079s.009-.08.02-.08c.027 0 .086-.13.086-.19 0-.026.012-.047.026-.047.015 0 .026-.036.026-.08 0-.043.012-.079.027-.079.014 0 .026-.035.026-.079s.012-.08.027-.08c.014 0 .026-.035.026-.079 0-.043.012-.079.027-.079.014 0 .026-.047.026-.106 0-.058.012-.105.027-.105.014 0 .026-.048.026-.106 0-.058.012-.106.026-.106.015 0 .027-.065.027-.145 0-.08.012-.145.026-.145.015 0 .027-.08.027-.186 0-.105.011-.185.026-.185.017 0 .027-.255.027-.713 0-.458-.01-.714-.027-.714-.015 0-.026-.075-.026-.174 0-.115-.013-.186-.038-.211-.043-.043-.174-.052-.174-.011 0 .015-.092.026-.224.026-.133 0-.225.011-.225.026 0 .017-.225.027-.621.027-.397 0-.621-.01-.621-.027 0-.015-.097-.026-.238-.026s-.238-.01-.238-.026c0-.015-.08-.027-.185-.027h-.185v.091c0 .05.012.098.026.107.015.01.027.07.027.134 0 .065.012.118.026.118.016 0 .027.091.027.223 0 .122.011.23.026.24.014.008.026.098.026.199 0 .105-.011.183-.026.183s-.026.092-.026.223c0 .123-.012.23-.027.24-.014.009-.026.07-.026.134s-.012.117-.027.117c-.014 0-.026.048-.026.106 0 .058-.012.106-.027.106-.014 0-.026.03-.026.066 0 .036-.01.087-.023.112-.03.061-.085.216-.102.29-.007.033-.024.06-.037.06-.013 0-.023.03-.023.066 0 .037-.012.066-.026.066-.015 0-.027.021-.027.047s-.024.064-.053.085c-.029.021-.053.06-.053.085 0 .026-.012.048-.026.048-.015 0-.027.02-.027.047 0 .025-.023.064-.052.085-.03.02-.053.056-.053.079s-.024.058-.053.08c-.03.02-.053.054-.053.073 0 .02-.047.082-.106.138a.671.671 0 0 0-.105.116c0 .022-.387.412-.409.412a.564.564 0 0 0-.12.106c-.056.058-.118.106-.137.106-.02 0-.054.024-.074.053-.021.029-.057.053-.08.053-.022 0-.058.023-.08.053-.02.029-.058.052-.084.052-.026 0-.047.012-.047.027 0 .014-.024.026-.053.026-.03 0-.053.012-.053.027 0 .014-.023.026-.05.026-.029 0-.055.009-.06.02-.012.027-.2.112-.248.112-.021 0-.039.012-.039.027 0 .014-.035.026-.079.026-.043 0-.08.012-.08.026 0 .015-.035.027-.078.027-.044 0-.08.012-.08.026 0 .015-.04.027-.09.027-.05 0-.099.012-.108.026-.009.015-.056.027-.106.027-.049 0-.096.012-.105.026-.01.015-.081.027-.16.027-.08 0-.144.011-.144.026 0 .017-.168.026-.45.026-.282 0-.449-.01-.449-.026 0-.015-.07-.026-.159-.026-.088 0-.158-.012-.158-.027 0-.014-.041-.026-.091-.026-.05 0-.098-.012-.107-.027-.01-.014-.058-.026-.108-.026-.05 0-.09-.012-.09-.027 0-.014-.036-.026-.08-.026-.043 0-.08-.01-.08-.02 0-.012-.055-.038-.122-.058a1.702 1.702 0 0 1-.192-.068 4.926 4.926 0 0 0-.154-.069c-.048-.02-.086-.045-.086-.056 0-.01-.019-.02-.041-.02-.023 0-.066-.024-.098-.053-.03-.029-.072-.052-.09-.052-.02 0-.036-.012-.036-.027 0-.014-.019-.026-.042-.026-.023 0-.075-.036-.116-.08-.041-.043-.088-.079-.105-.079-.018 0-.077-.048-.133-.106-.056-.058-.116-.105-.133-.105-.034 0-.23-.199-.34-.344a1.637 1.637 0 0 0-.142-.163c-.04-.038-.072-.084-.072-.101 0-.018-.036-.065-.08-.106-.043-.04-.079-.093-.079-.116 0-.024-.012-.043-.026-.043-.015 0-.027-.02-.027-.047 0-.026-.024-.064-.053-.085-.029-.02-.052-.06-.052-.085 0-.026-.012-.047-.027-.047-.014 0-.026-.024-.026-.053 0-.029-.012-.053-.027-.053-.014 0-.026-.023-.026-.053 0-.029-.012-.052-.027-.052-.014 0-.026-.03-.026-.067 0-.036-.012-.066-.027-.066-.014 0-.026-.023-.026-.053 0-.029-.012-.052-.026-.052-.015 0-.027-.036-.027-.08 0-.043-.012-.079-.026-.079-.015 0-.027-.036-.027-.08 0-.043-.012-.078-.026-.078-.015 0-.027-.047-.027-.104 0-.057-.011-.108-.026-.112-.014-.005-.034-.167-.043-.36-.01-.192-.029-.35-.042-.35-.014 0-.019-.081-.011-.191.043-.588.075-.88.097-.888.014-.005.025-.043.025-.086 0-.042.012-.077.027-.077.014 0 .026-.047.026-.106 0-.058.012-.105.027-.105.014 0 .026-.024.026-.053 0-.03.012-.053.027-.053.014 0 .026-.036.026-.08 0-.043.012-.079.026-.079.015 0 .027-.024.027-.053 0-.029.012-.052.026-.052.015 0 .027-.024.027-.053 0-.03.012-.053.026-.053.015 0 .027-.024.027-.053 0-.03.009-.053.02-.053.01 0 .037-.039.058-.086a.597.597 0 0 1 .085-.137c.027-.028.048-.067.048-.086 0-.019.01-.035.022-.035.012 0 .039-.032.06-.072.02-.04.07-.107.11-.149a.316.316 0 0 0 .072-.1c0-.049.608-.656.656-.656a.354.354 0 0 0 .107-.08c.045-.043.098-.079.117-.079.019 0 .051-.024.072-.053.02-.029.06-.053.085-.053.026 0 .047-.01.047-.021 0-.012.042-.038.093-.058.05-.02.092-.046.092-.058 0-.012.024-.021.053-.021.03 0 .053-.012.053-.027 0-.014.024-.026.053-.026.029 0 .053-.012.053-.027 0-.014.023-.026.053-.026.029 0 .052-.012.052-.026 0-.015.024-.027.053-.027.03 0 .053-.012.053-.026 0-.015.036-.027.08-.027.043 0 .079-.012.079-.026 0-.015.042-.027.094-.027.156 0 .234-.144.117-.217-.029-.018-.053-.05-.053-.069 0-.02-.047-.08-.105-.137-.059-.055-.106-.117-.106-.137 0-.02-.024-.053-.053-.074-.03-.021-.053-.057-.053-.08 0-.022-.024-.058-.053-.079-.029-.02-.053-.056-.053-.079s-.024-.058-.053-.08c-.029-.02-.052-.056-.052-.078 0-.023-.024-.059-.053-.08-.03-.02-.053-.06-.053-.085 0-.026-.011-.047-.024-.047-.014 0-.032-.034-.041-.076a.333.333 0 0 0-.069-.13c-.028-.031-.051-.074-.051-.097 0-.022-.012-.04-.027-.04-.014 0-.026-.024-.026-.053 0-.03-.012-.053-.026-.053-.015 0-.027-.024-.027-.053 0-.03-.012-.053-.026-.053-.015 0-.027-.024-.027-.053 0-.029-.012-.053-.026-.053-.015 0-.027-.024-.027-.053 0-.029-.011-.053-.026-.053s-.027-.021-.027-.047c0-.254-.208-.38-.436-.264z" fill="#04B4EC"/></svg>