<svg width="36" height="36" fill="none" xmlns="http://www.w3.org/2000/svg"><path d="M18 0c2.837 0 5.52.656 7.907 1.825C31.884 4.753 36 10.895 36 18c0 9.942-8.058 18-18 18-9.94 0-18-8.057-18-18C0 8.06 8.06 0 18 0z" fill="#F2F4F7"/><path fill-rule="evenodd" clip-rule="evenodd" d="M8.036 27.998c-.025-.007-.034-.024-.034-.048L8 27.802V8.227c0-.248-.029-.22.218-.22 6.525 0 13.05 0 19.575.002.066 0 .14-.034.197.032a3.297 3.297 0 0 0-.04.004H8.243c-.223 0-.203-.018-.203.203v19.708l-.004.043z" fill="#7680AC"/><path fill-rule="evenodd" clip-rule="evenodd" d="m27.95 8.045.042-.004c.002.06.006.12.006.18v19.575c0 .24.036.209-.207.209H8.216c-.06 0-.12-.004-.18-.006l.004-.042c.065.003.13.009.196.009H27.75c.238 0 .21.026.21-.21V8.242c0-.066-.006-.131-.01-.197z" fill="#767391"/><path fill-rule="evenodd" clip-rule="evenodd" d="M18.005 27.598h9.354c.253 0 .232.031.232-.226V8.648c0-.247.027-.222-.217-.222H8.65c-.26 0-.232-.03-.232.224v18.725c0 .25-.02.222.217.223h9.37zM27.95 8.044c.003.066.009.131.009.197v19.514c0 .236.028.21-.21.21H8.236c-.066 0-.131-.006-.197-.009V13.788l.001-5.54c0-.22-.02-.204.203-.204H27.95z" fill="#F1C352"/><path fill-rule="evenodd" clip-rule="evenodd" d="M11.397 12.743c-.013.03-.024.05-.03.07-.056.18-.056.18-.235.187-.02 0-.043-.005-.063.025.05.059.12.112.147.182.03.079-.051.16-.044.244.022.013.038.01.05 0 .14-.112.279-.133.416.005.003.003.017-.006.034-.012-.01-.04-.015-.084-.033-.123-.038-.084-.018-.143.058-.194.042-.03.09-.058.111-.113-.084-.035-.18.02-.242-.037-.058-.053-.09-.135-.133-.204-.005-.009-.016-.014-.036-.03zM21.97 9.358c-.04-.002-.072-.009-.104-.004-.102.015-.162-.03-.203-.121-.02-.047-.04-.102-.101-.137-.016.048-.036.092-.045.137-.016.087-.055.136-.154.122-.039-.006-.084-.015-.134.022.027.03.049.06.077.083.08.062.102.133.058.229-.016.035-.039.08.008.132.14-.13.288-.154.437-.013.01.01.021.004.025-.013.003-.08-.068-.155-.043-.232.026-.078.121-.106.171-.17.003-.004.003-.01.008-.035zm-1.15 9.249c.06.068.129.117.155.182.03.076-.035.155-.044.235 0 .007.01.016.024.037.142-.14.297-.145.457-.03.015-.044.001-.086-.016-.126-.036-.084-.011-.143.063-.194.04-.027.093-.05.107-.131-.195.059-.297-.034-.358-.195-.007-.018-.025-.032-.038-.047-.012.01-.023.017-.027.026-.033.068-.02.16-.08.209-.06.048-.149 0-.242.034zm3.315 1.566c.019-.046.003-.077-.009-.106-.043-.099-.03-.176.069-.237.038-.023.089-.045.09-.115-.034 0-.067-.004-.098.001-.108.019-.175-.025-.217-.126-.019-.044-.035-.102-.093-.124-.048.078-.03.18-.093.231-.063.053-.158-.005-.238.034.024.083.121.112.148.188.03.085-.055.163-.034.252.014.001.025.005.034.002.077-.029.137-.101.22-.106.083-.005.132.091.221.106zm-8.458-5.018c.005-.013.01-.026.013-.04-.008-.03-.011-.064-.025-.092-.05-.106-.027-.184.073-.248.032-.02.094-.04.07-.119-.185.06-.278-.04-.341-.19-.01-.024-.023-.05-.067-.05-.004.191-.1.284-.298.255-.004-.001-.01.015-.025.036.165.094.187.234.11.399-.002.006.008.017.02.039.152-.127.31-.182.47.01zm3.196-2.903c-.054 0-.087-.005-.12 0-.106.018-.175-.022-.217-.123-.02-.047-.036-.105-.099-.126-.024.073-.032.156-.075.215-.054.076-.153.017-.23.037-.012.002-.018.007-.018.032.034.065.128.098.148.178.022.085-.052.164-.04.26.068-.012.12-.053.172-.087.064-.042.118-.042.178.005.04.03.08.069.138.071.01-.062-.012-.11-.03-.152-.032-.075-.01-.12.05-.167.047-.034.1-.065.143-.143zM9.309 16.17c-.044-.028-.078-.022-.109-.018-.1.012-.165-.025-.207-.118-.021-.047-.04-.102-.095-.132-.05.064-.037.154-.083.212-.059.075-.155.019-.232.041-.008.003-.013.015-.022.027.05.056.118.105.147.172.033.076-.034.155-.042.236 0 .007.01.016.018.03.03-.015.061-.025.086-.045.108-.087.212-.1.316.004.016.016.039.02.063.015.028-.083-.06-.16-.027-.237.035-.08.135-.108.187-.187zm10.736 7.225c.063.074.134.128.163.199.031.078-.056.16-.034.25.04 0 .068-.017.093-.037.108-.088.212-.099.316.005.017.018.04.036.076.024.01-.086-.072-.167-.038-.249.033-.08.135-.105.18-.182-.018-.029-.049-.025-.074-.02-.127.022-.206-.03-.254-.147-.016-.038-.023-.101-.091-.096-.075.231-.075.231-.338.253zm-9.532-4.168c-.033-.032-.075-.021-.11-.017-.1.01-.165-.026-.206-.12-.02-.047-.042-.099-.09-.13-.013.015-.023.02-.026.03-.07.21-.07.21-.28.22-.013 0-.026.012-.045.021.055.061.12.11.154.175.04.078-.034.156-.034.237 0 .01.008.019.02.042.14-.118.29-.176.44-.02.004.005.018-.001.027-.003.015-.041-.005-.077-.018-.111-.038-.094-.02-.165.066-.224.039-.026.084-.05.102-.1zm14.11-7.083h-.003c-.016-.46-.032-.92-.05-1.38-.003-.092.034-.209-.026-.27-.064-.062-.176-.003-.266.005l-.033.002c-.892.059-1.785.053-2.678.021-.854-.03-1.706-.1-2.56-.12-.955-.021-1.893.079-2.804.372-1.823.586-3.22 1.699-4.14 3.388-.509.937-.781 1.946-.875 3.005-.075.853-.04 1.698.171 2.529.513 2.014 1.671 3.533 3.508 4.518 1.146.613 2.385.882 3.674.955.84.047 1.675-.03 2.51-.107a11.606 11.606 0 0 1 2.132.03c.158.014.159.018.23-.115.438-.815.877-1.63 1.312-2.447.024-.045.099-.102.031-.153-.085-.064-.11.04-.145.082-.338.415-.72.782-1.164 1.082-.744.501-1.57.762-2.457.849a7.39 7.39 0 0 1-2.908-.267c-2.361-.72-4.234-2.681-4.551-5.574a8.967 8.967 0 0 1-.01-1.723 7.477 7.477 0 0 1 .436-2.016c.53-1.414 1.456-2.47 2.836-3.106.9-.414 1.854-.585 2.839-.608a14.51 14.51 0 0 1 1.919.096c.735.081 1.464.2 2.188.35.112.023.163.07.195.18.187.63.382 1.257.574 1.885.013.042.024.084.041.124.016.038.053.033.085.03.035-.002.042-.028.042-.057v-.066l-.053-1.494zm-6.618 15.455h-9.37c-.238 0-.218.028-.218-.223V8.652c0-.254-.027-.224.232-.224h18.725c.244 0 .217-.025.217.222v18.724c0 .257.02.225-.232.225h-9.354z" fill="#4F5C8F"/><path fill-rule="evenodd" clip-rule="evenodd" d="M19.26 10.628a8.601 8.601 0 0 0-2.6.341c-1.518.449-2.787 1.273-3.715 2.566-1.18 1.646-1.581 3.491-1.295 5.484.191 1.332.763 2.496 1.67 3.488 1.003 1.098 2.256 1.773 3.685 2.133 1.056.265 2.129.333 3.212.266.017 0 .033-.002.05-.003.038-.004.059-.023.059-.063s-.02-.06-.06-.06c-.038-.001-.076-.002-.114-.001-.439.006-.876-.015-1.312-.063a8.797 8.797 0 0 1-2.153-.5c-2.67-1.004-4.203-3.292-4.37-5.945a7.488 7.488 0 0 1 .361-2.802c.401-1.237 1.072-2.299 2.082-3.13 1.156-.954 2.51-1.4 3.983-1.536.464-.043.93-.037 1.396-.039l.131-.001c.04-.001.056-.026.057-.064 0-.038-.01-.065-.052-.068-.038-.003-.077-.003-.115-.003h-.9zm5.363 1.515.052 1.495v.066c0 .029-.005.055-.04.057-.033.003-.07.008-.086-.03-.017-.04-.028-.082-.041-.125-.192-.628-.387-1.255-.573-1.884-.033-.11-.084-.157-.196-.18a23.556 23.556 0 0 0-2.188-.35 14.51 14.51 0 0 0-1.919-.096c-.985.023-1.94.193-2.839.608-1.38.636-2.306 1.692-2.836 3.106a7.471 7.471 0 0 0-.436 2.016 8.96 8.96 0 0 0 .01 1.723c.317 2.892 2.19 4.855 4.55 5.574a7.39 7.39 0 0 0 2.909.267c.887-.088 1.714-.348 2.457-.85a5.44 5.44 0 0 0 1.164-1.081c.035-.043.06-.147.145-.082.068.051-.007.108-.03.153-.436.817-.875 1.632-1.313 2.447-.071.133-.072.129-.23.114-.71-.067-1.42-.093-2.132-.029-.835.076-1.67.154-2.51.107-1.289-.074-2.528-.342-3.674-.956-1.837-.984-2.995-2.503-3.508-4.517-.211-.832-.246-1.677-.171-2.529.094-1.06.366-2.069.876-3.005.92-1.69 2.316-2.802 4.139-3.389.91-.293 1.85-.392 2.804-.37.854.019 1.706.088 2.56.119a26.374 26.374 0 0 0 2.711-.023c.09-.008.202-.067.266-.005.06.06.023.178.027.27l.049 1.38h.003z" fill="#FBFBFA"/><path fill-rule="evenodd" clip-rule="evenodd" d="M10.513 19.227c-.018.05-.063.074-.102.1-.087.059-.104.13-.066.224.014.034.033.07.018.111-.009.002-.023.008-.027.004-.15-.157-.3-.098-.44.02-.012-.024-.02-.033-.02-.043 0-.08.075-.159.034-.236-.034-.066-.099-.115-.154-.175.019-.01.032-.021.046-.022.209-.01.209-.01.279-.22.003-.01.013-.015.026-.029.048.03.07.083.09.13.04.093.106.13.206.119.035-.004.077-.015.11.017zm9.532 4.168c.262-.022.262-.022.337-.253.068-.005.075.058.09.096.05.117.128.17.255.147.025-.005.056-.009.074.02-.044.077-.147.102-.18.182-.033.082.048.163.038.25-.035.011-.06-.007-.076-.025-.104-.104-.208-.093-.316-.005a.145.145 0 0 1-.093.037c-.022-.09.065-.172.034-.25-.029-.07-.1-.125-.163-.2zM9.31 16.17c-.052.078-.153.106-.187.186-.033.078.054.154.026.237a.068.068 0 0 1-.062-.015c-.105-.104-.209-.091-.317-.004-.024.02-.056.03-.085.045-.009-.014-.019-.023-.018-.03.007-.081.075-.16.041-.236-.029-.066-.097-.116-.147-.172.01-.012.015-.024.023-.027.076-.022.173.034.231-.04.046-.059.033-.149.083-.213.055.03.074.085.095.132.042.093.107.13.207.118.031-.004.066-.01.11.018zm9.563-3.92c-.043.079-.096.11-.142.144-.061.046-.083.092-.05.167.017.043.04.09.029.152-.058-.002-.098-.04-.137-.07-.06-.048-.114-.048-.178-.006-.053.034-.105.075-.174.087-.01-.096.063-.175.042-.26-.02-.08-.115-.112-.148-.178-.001-.025.006-.03.017-.032.077-.02.176.04.23-.037.043-.058.052-.142.076-.215.063.02.078.079.098.126.043.101.111.141.218.123.032-.005.065 0 .12 0zm-3.196 2.904c-.16-.191-.318-.136-.47-.01-.012-.022-.022-.033-.02-.039.077-.165.056-.305-.11-.399.014-.02.02-.037.025-.036.198.03.294-.063.298-.255.044 0 .057.026.067.05.063.15.156.25.341.19.024.08-.038.099-.07.12-.1.063-.123.141-.073.247.014.029.017.062.025.093l-.013.04zm8.458 5.018c-.09-.015-.138-.112-.222-.107-.082.005-.142.078-.219.107-.009.003-.02-.001-.034-.003-.02-.088.064-.166.034-.252-.027-.076-.123-.105-.148-.187.08-.04.175.019.238-.034.063-.052.045-.153.093-.231.058.022.074.08.093.124.043.1.109.145.217.126.031-.006.064-.001.099-.001-.002.07-.053.092-.091.115-.099.06-.112.138-.069.236.012.03.028.06.01.107z" fill="#F1F1F3"/><path fill-rule="evenodd" clip-rule="evenodd" d="M20.821 18.605c.093-.033.181.015.242-.034.06-.047.047-.14.08-.208.005-.01.015-.015.027-.026.013.015.03.029.038.047.061.161.163.253.359.195-.015.08-.068.103-.108.13-.074.052-.099.111-.063.195.017.04.03.082.016.127-.16-.116-.315-.11-.457.029-.014-.021-.024-.03-.024-.037.01-.08.075-.159.044-.235-.026-.066-.094-.114-.154-.183z" fill="#FBFBFA"/><path fill-rule="evenodd" clip-rule="evenodd" d="m21.97 9.357-.007.035c-.05.064-.146.092-.171.17-.026.077.045.152.043.232-.005.017-.015.023-.026.013-.149-.141-.298-.117-.437.013-.046-.053-.023-.097-.007-.132.043-.096.02-.167-.059-.23-.028-.022-.05-.052-.076-.082.049-.037.094-.028.133-.022.1.014.138-.035.155-.122.008-.045.028-.089.044-.137.062.035.08.09.102.137.04.091.1.136.202.121.032-.005.065.002.104.004zm-10.573 3.384c.02.017.03.021.036.03.044.069.075.151.133.205.061.057.158.001.242.036-.02.055-.069.084-.111.113-.076.051-.096.11-.058.195.018.038.023.082.033.122-.017.006-.031.015-.034.012-.137-.137-.276-.117-.416-.005-.012.01-.028.014-.05 0-.007-.083.074-.165.044-.244-.027-.07-.097-.123-.147-.181.02-.03.043-.025.063-.026.179-.007.179-.007.235-.187.006-.02.017-.04.03-.07z" fill="#F1F1F3"/><path fill-rule="evenodd" clip-rule="evenodd" d="M19.26 10.626h.9c.038 0 .077 0 .115.003.042.003.053.03.052.068-.001.039-.016.063-.057.064-.043.002-.088.002-.131.002-.466.001-.931-.004-1.396.038-1.473.136-2.827.583-3.983 1.536-1.01.832-1.68 1.893-2.082 3.13a7.489 7.489 0 0 0-.36 2.803c.167 2.652 1.699 4.94 4.369 5.944.695.262 1.415.42 2.153.5.436.048.873.069 1.312.063l.115.001c.039 0 .06.02.06.06-.001.04-.022.06-.06.063a1.58 1.58 0 0 1-.05.003c-1.083.068-2.156 0-3.211-.266-1.43-.36-2.683-1.035-3.686-2.132-.907-.993-1.479-2.157-1.67-3.488-.286-1.993.116-3.838 1.296-5.484.927-1.294 2.196-2.118 3.714-2.567.88-.259 1.78-.36 2.6-.34z" fill="#515E91"/></svg>