<svg width="36" height="36" fill="none" xmlns="http://www.w3.org/2000/svg"><path d="M18 0c2.837 0 5.52.656 7.907 1.825C31.884 4.753 36 10.895 36 18c0 9.942-8.058 18-18 18-9.94 0-18-8.057-18-18C0 8.06 8.06 0 18 0z" fill="#F2F4F7"/><path d="m17.2 20.837.06-.226h-.78l-.003.01-.275 1.024h.788l.06-.225h-.54l.05-.184h.467l.061-.223h-.467l.047-.176h.532zm2.63-.226-.165.612-.28-.612h-.225l-.003.011-.275 1.024h.248l.17-.632.292.632h.208l.278-1.035h-.248zm2.905.226.061-.226h-.78l-.003.01-.276 1.024h.789l.06-.225h-.54l.05-.184h.467l.06-.223h-.466l.047-.176h.531zm2.75.091a.296.296 0 0 0-.082-.212c-.072-.071-.178-.105-.33-.105h-.377l-.003.01-.275 1.024h.251l.087-.322h.145l.155.322h.284l-.174-.348a.477.477 0 0 0 .222-.12.345.345 0 0 0 .096-.248zm-.26.02a.125.125 0 0 1-.038.09c-.039.04-.109.062-.192.062h-.178l.07-.26h.174c.068 0 .113.014.136.037a.09.09 0 0 1 .027.07zm2.532.31h.222l-.04.138a.402.402 0 0 1-.167.035c-.137 0-.242-.078-.243-.227 0-.202.16-.379.366-.38.122.001.196.05.254.113l.01.01.184-.163-.008-.01c-.073-.096-.206-.18-.422-.18a.634.634 0 0 0-.643.617c0 .31.252.451.487.452.153 0 .272-.04.372-.097l.154-.528h-.466l-.06.22zm3.078-.647-.332.4-.113-.4h-.277l.214.624-.11.41h.25l.105-.387.569-.647h-.306zm-.493.624z" fill="#C5683B"/><path d="M4 18.01c0-1.207 1-2.179 2.178-2.179.813 0 1.261.372 1.516.813l-.8.565c-.185-.282-.386-.482-.799-.482-.551 0-1.061.6-1.061 1.282 0 .476.317.78.723.78.325 0 .559-.132.835-.366l.537.682c-.386.345-.779.572-1.406.572C4.716 19.677 4 19.015 4 18.01zm5.625.826c.276 0 .517-.083.82-.297l.483.648c-.332.276-.793.49-1.42.49-1.062 0-1.71-.62-1.71-1.64 0-1.07.869-2.207 2.192-2.207.959 0 1.51.62 1.51 1.441 0 .262-.07.558-.186.84h-2.53c.034.435.29.725.84.725zm.854-1.379a.85.85 0 0 0 .035-.241c0-.303-.18-.544-.607-.544-.475 0-.862.317-1.033.785h1.605zm17.908 1.551.607-.626c.386.386.8.496 1.13.496.276 0 .442-.118.442-.324 0-.138-.173-.234-.428-.345-.579-.248-1.074-.49-1.074-1.082 0-.738.564-1.296 1.481-1.296.6 0 1.151.262 1.455.53l-.566.663c-.358-.283-.662-.393-.964-.393-.255 0-.407.117-.407.31 0 .145.179.248.489.386.483.214 1.013.469 1.013 1.047 0 .807-.634 1.303-1.517 1.303-.558 0-1.226-.214-1.66-.669zm-12.131-1.04c0-1.103.951-2.137 2.137-2.137 1.096 0 1.778.723 1.778 1.71 0 1.102-.951 2.136-2.136 2.136-1.097 0-1.779-.724-1.779-1.71zm2.888-.4c0-.538-.324-.841-.8-.841-.64 0-1.061.689-1.061 1.213 0 .538.324.841.8.841.64 0 1.061-.69 1.061-1.213zm-4.238 2.564.675-2.523c.062-.235.124-.497.124-.704 0-.668-.375-1.005-1.037-1.005h-2.003l-.986 3.694h.69c.258 0 .417-.218.483-.467l.433-1.608.002-.007.195-.73h.603c.323 0 .51.158.51.454 0 .09-.02.228-.049.331l-.812 3.031h.69c.257 0 .415-.217.482-.466zM27.863 15.9c-.175.046-.333.14-.413.28l-.349 1.297-.33 1.235h-.603c-.324 0-.51-.158-.51-.455 0-.09.02-.227.048-.33l.545-2.027h-.71c-.176.046-.334.14-.413.281l-.456 1.704c-.062.234-.124.496-.124.703 0 .669.413 1.006 1.075 1.006h1.965l.985-3.694h-.71zM24.47 15h-.096a.578.578 0 0 0-.496.31l-1.866 3.05-.13-1.939c-.026-.26-.216-.521-.474-.521h-.637l.447 3.722h.952L25.191 15h-.72z" fill="#365860"/></svg>