<svg width="36" height="36" fill="none" xmlns="http://www.w3.org/2000/svg"><path d="M18 0c2.837 0 5.52.656 7.907 1.825C31.884 4.753 36 10.895 36 18c0 9.942-8.058 18-18 18-9.94 0-18-8.057-18-18C0 8.06 8.06 0 18 0z" fill="#F2F4F7"/><path d="m27.007 16.41.028 2.766 2.464-1.362-2.492-1.405z" fill="#021660"/><path d="m27.035 19.176 2.469 1.358 2.403-1.358-2.403-1.362-2.469 1.362z" fill="#27BDBE"/><path d="M32 16.41 29.504 15l-2.497 1.41 2.497 1.404L32 16.409z" fill="#ED3030"/><path d="M5.442 18.495a.752.752 0 0 1-.751-.756.75.75 0 0 1 .746-.765c.313 0 .565.177.677.466l.639-.256c-.21-.509-.695-.859-1.325-.859-.807 0-1.428.616-1.428 1.414 0 .793.616 1.414 1.432 1.414.649 0 1.102-.364 1.335-.868l-.649-.266c-.112.28-.354.476-.676.476zm3.01-2.17c-.817 0-1.433.63-1.433 1.414 0 .779.62 1.414 1.432 1.414.821 0 1.442-.635 1.442-1.414a1.422 1.422 0 0 0-1.442-1.414zm.004 2.17a.749.749 0 0 1-.747-.76c0-.425.327-.761.747-.761.41 0 .746.34.746.76a.75.75 0 0 1-.746.76zm2.814-.28-.672-1.834h-.733l1.045 2.72h.69l1.07-2.72h-.724l-.676 1.834zm2.869-1.89c-.812 0-1.428.63-1.428 1.419 0 .793.565 1.409 1.442 1.409.602 0 .98-.248 1.255-.63l-.57-.332a.75.75 0 0 1-.676.364c-.401 0-.69-.219-.779-.574h2.16v-.26c0-.808-.587-1.396-1.404-1.396zm-.737 1.11a.755.755 0 0 1 .732-.522c.364 0 .625.187.714.523h-1.446zm3.807 1.064c-.177 0-.299-.098-.299-.387v-1.12h.714v-.616h-.713v-.989l-.686.402v.587h-.504v.616h.504v1.143c0 .742.33 1.013.9 1.013.252 0 .471-.075.649-.205l-.318-.546a.321.321 0 0 1-.247.102zm1.708-1.703v-.42h-.686v2.72h.69v-1.432c0-.457.234-.64.588-.64.154 0 .29.043.364.099l.252-.686a1.002 1.002 0 0 0-.457-.107c-.345 0-.616.144-.751.466zm3.27 1.078c0 .425-.242.658-.569.658-.373 0-.555-.238-.555-.62v-1.536h-.71v1.633c0 .714.388 1.144 1.06 1.144a.94.94 0 0 0 .784-.397v.34l.695-.004v-2.72l-.704.004v1.498zm2.59-.448c-.396-.084-.62-.13-.62-.303 0-.15.13-.261.4-.261.253 0 .426.107.533.289l.634-.257c-.252-.364-.592-.578-1.166-.578-.672-.005-1.115.392-1.115.849 0 .574.508.714.966.812.345.07.639.116.639.312 0 .164-.15.299-.434.299-.29 0-.504-.126-.625-.369l-.672.262c.22.434.625.676 1.269.676.788.005 1.166-.471 1.166-.896.014-.587-.522-.741-.975-.835zm6.532 2.804v-.34h-.126v-.047h.308v.047h-.126v.34h-.056zm.23 0v-.387h.074l.093.275c.01.024.014.047.019.056.004-.014.009-.032.023-.06l.093-.266h.07v.387h-.046v-.322l-.112.322h-.047l-.112-.331v.331l-.056-.005z" fill="#021660"/></svg>