<svg width="36" height="36" fill="none" xmlns="http://www.w3.org/2000/svg"><defs><linearGradient id="a" x1="4" y1="18.197" x2="32" y2="18.197" gradientUnits="userSpaceOnUse"><stop stop-color="#E45F13"/><stop offset=".517" stop-color="#ED8100"/><stop offset="1" stop-color="#FEA300"/></linearGradient></defs><path d="M18 0c2.837 0 5.52.656 7.907 1.825C31.884 4.753 36 10.895 36 18c0 9.942-8.058 18-18 18-9.94 0-18-8.057-18-18C0 8.06 8.06 0 18 0z" fill="#F2F4F7"/><path d="m8.512 19.56.94.813a3.085 3.085 0 0 1-2.285 1.02c-1.699.011-3.156-1.41-3.167-3.108-.01-1.697 1.428-3.127 3.15-3.139a3.068 3.068 0 0 1 2.24.956l.098.116-.582.998a2.94 2.94 0 0 0-.409-.39 2.255 2.255 0 0 0-1.35-.479c-.97.007-1.774.89-1.767 1.929.007 1.05.822 1.923 1.791 1.916a1.815 1.815 0 0 0 1.341-.632zm21.412-2.068c-.903-.26-1.211-.373-1.214-.754-.002-.335.373-.534.863-.537.599.017 1.18.201 1.68.531l.575-1.031A4.162 4.162 0 0 0 29.566 15c-1.311.009-2.218.777-2.211 1.897.019 1.062.831 1.426 2.11 1.753.674.18 1.188.327 1.19.789.003.369-.383.613-.942.618a3.33 3.33 0 0 1-1.977-.679l-.62.985a4.192 4.192 0 0 0 2.583.884c1.378-.01 2.308-.755 2.301-1.898-.009-1.247-1.082-1.586-2.076-1.857zm-6.506 1.151 3.106-.02c-.014-2.206-1.084-3.596-2.908-3.584-1.676.011-2.99 1.336-2.978 3.126.012 1.836 1.412 3.131 3.099 3.12.855-.006 1.879-.383 2.388-.94l-.884-.918c-.328.349-.976.607-1.524.61v.002c-.781.005-1.37-.487-1.592-1.21-.006-.007-.136-.258-.125-.805l.006-.073c.016-.136.076-.373.076-.373.2-.786.824-1.287 1.6-1.292.832-.006 1.337.522 1.502 1.271l-2.35.016.584 1.07zm-10.228 1.48a1.901 1.901 0 0 1-1.37-.538 3.8 3.8 0 0 1-.234-.248s-.475.714-.751.975l.021.029a3.235 3.235 0 0 0 2.353 1.012c.855-.005 1.879-.377 2.388-.928l-.884-.906c-.327.345-.976.608-1.523.603zm-2.333.218c-.014-.011.03.04 0 0zm2.265-5.262c-.902.006-1.72.426-2.107.838-.798.848-.806 1.415-1.827 2.86-.009.01.693.539.919.733.966-1.076.914-1.918 1.716-2.672a1.666 1.666 0 0 1 1.296-.572c.76-.005 1.422.562 1.648 1.332l-2.447.017.537 1.04 3.283-.014v-.002h.003a2.97 2.97 0 0 0 .037-.49c-.01-1.676-1.418-3.08-3.057-3.07zm7.82.034c-.867-.186-1.68-.139-2.59.455-.832.543-1.236 1.1-1.304 2.43l.048 3.221 1.39-.01-.018-2.876c-.007-1.057.569-1.957 1.71-1.92.21-.53.38-.91.764-1.3z" fill="url(#a)"/></svg>