<svg width="36" height="36" fill="none" xmlns="http://www.w3.org/2000/svg"><path d="M18 0c2.837 0 5.52.656 7.907 1.825C31.884 4.753 36 10.895 36 18c0 9.942-8.058 18-18 18-9.94 0-18-8.057-18-18C0 8.06 8.06 0 18 0z" fill="#F2F4F7"/><path d="m12.182 14.484 5.817-3.367V4L6 10.935l6.182 3.549z" fill="#5090CA"/><path d="m18.02 31.681-.01-7.112 5.828-3.362L30 17.647v7.113l-11.98 6.92zm-.025-20.564 5.828 3.362 6.158-3.56L17.999 4l-.004 7.117z" fill="#3374AE"/><path d="m18.01 24.569-5.828-3.362-6.158 3.56 12 6.91-.014-7.108z" fill="#5090CA"/><path d="M12.182 21.207v-6.723L6 10.935l.02 13.836 6.162-3.564z" fill="#3374AE"/><path d="m18 11.117 5.827 3.362v6.729l-5.828-3.363v-6.728z" fill="#808184"/><path d="M18 11.117v6.729l-5.818 3.362v-6.724l5.817-3.367" fill="#58595B"/></svg>