<svg width="36" height="36" fill="none" xmlns="http://www.w3.org/2000/svg"><path d="M18 0c2.837 0 5.52.656 7.907 1.825C31.884 4.753 36 10.895 36 18c0 9.942-8.058 18-18 18-9.94 0-18-8.057-18-18C0 8.06 8.06 0 18 0z" fill="#F2F4F7"/><path d="M31.694 18c0 7.569-6.125 13.694-13.694 13.694-7.569 0-13.694-6.125-13.694-13.694 0-7.569 6.125-13.694 13.694-13.694 7.569 0 13.694 6.125 13.694 13.694zM18 5.138A12.828 12.828 0 0 0 5.138 18c0 7.131 5.774 12.863 12.862 12.863 7.131 0 12.863-5.776 12.863-12.863A12.827 12.827 0 0 0 18 5.138z" fill="url(#a)"/><path d="M18 5.137A12.827 12.827 0 0 0 5.137 18c0 7.131 5.776 12.863 12.863 12.863 7.131 0 12.863-5.776 12.863-12.863A12.828 12.828 0 0 0 18 5.137zm0 24.894C11.35 30.031 5.969 24.65 5.969 18S11.35 5.969 18 5.969 30.031 11.35 30.031 18 24.65 30.031 18 30.031z" fill="url(#b)"/><path opacity=".4" d="M18 31.694c7.569 0 13.694-6.125 13.694-13.694 0-7.569-6.125-13.694-13.694-13.694-7.569 0-13.694 6.125-13.694 13.694 0 7.569 6.125 13.694 13.694 13.694zM18 4c7.7 0 14 6.3 14 14s-6.3 14-14 14S4 25.7 4 18 10.3 4 18 4z" fill="url(#c)"/><path d="M4.963 18.044C4.963 10.869 10.78 4.963 18 4.963c7.219 0 13.038 5.862 13.038 13.08 0 7.176-5.82 12.995-13.038 12.995-7.219 0-13.037-5.82-13.037-12.994zM9.03 9.03c-2.317 2.32-3.76 5.514-3.76 9.014a12.7 12.7 0 0 0 3.719 8.968c2.318 2.276 5.512 3.72 9.012 3.72 3.5 0 6.694-1.4 8.969-3.72 2.319-2.274 3.718-5.468 3.718-8.968S29.244 11.35 26.97 9.03A12.558 12.558 0 0 0 18 5.27a12.56 12.56 0 0 0-8.969 3.762z" fill="#fff"/><path opacity=".4" d="M18 30.075a11.98 11.98 0 0 1-8.531-3.544A11.98 11.98 0 0 1 5.925 18a11.98 11.98 0 0 1 3.544-8.531A11.98 11.98 0 0 1 18 5.925a11.98 11.98 0 0 1 8.531 3.544A11.98 11.98 0 0 1 30.075 18a11.98 11.98 0 0 1-3.544 8.531A11.98 11.98 0 0 1 18 30.075zm0-.35c3.106 0 6.081-1.225 8.269-3.413 2.231-2.23 3.412-5.162 3.412-8.268 0-3.107-1.225-6.082-3.412-8.269C24.038 7.544 21.106 6.363 18 6.363a11.687 11.687 0 0 0-8.269 3.412C7.5 11.92 6.275 14.894 6.275 18s1.225 6.081 3.413 8.269A11.723 11.723 0 0 0 18 29.725z" fill="url(#d)"/><path d="M6.231 23.425c-.306-.7-2.056-4.113-.131-10.675h-.744c-.393 1.313-.7 2.1-.875 3.281 0 0-.087.438-.131.919-.044.481-.044.744-.044 1.05 0 2.625.657 4.156.657 4.156.7 2.188 1.925 4.157 3.587 5.644 1.444 1.269 3.675 2.231 5.512 2.581-.306-.044-5.556-2.275-7.83-6.956z" fill="url(#e)"/><path d="M22.375 5.006C26.969 6.756 31.3 11.57 31.3 17.65c0 7.35-5.863 13.344-13.3 13.344v.7c7.438 0 13.694-6.125 13.694-13.694 0-6.037-3.85-11.113-9.319-12.994z" fill="url(#f)"/><path d="M29.725 12.838C26.662 5.794 19.75 5.4 19.356 5.356h-.044c5.294.963 8.663 4.419 9.844 8.05v.044c.525 1.4.788 2.887.832 4.506.043 1.532-.307 3.238-.963 4.813-.044.219-.087.481-.131.481h.7c2.1-3.938 1.181-7.919.131-10.412z" fill="url(#g)"/><path d="M28.631 23.688c-.218-.175-8.662-6.87-8.662-6.87L18 5.576a.747.747 0 0 0-.394.35l-1.4 10.937L7.5 23.556s-.175.219-.263.35c-.043.088-.043.219-.043.35l10.762-4.419 10.763 4.42c.087-.22 0-.438-.088-.57z" fill="#fff"/><path d="M18.087 18.35 18 20.362l9.887 3.982c.35.175.613.087.875-.088l-10.543-5.95c-.044-.044-.132 0-.132.044z" fill="#565F64"/><path d="M18.087 18.35s.57 1.006 1.226 1.706c.918 1.006 2.143 1.706 2.143 1.706l6.431 2.582c.35.175.613.087.875-.088l-10.543-5.95c-.044-.044-.132 0-.132.044z" fill="url(#h)"/><path d="M28.719 23.863c0-.044-.044-.088-.088-.175L19.62 17.08l-1.225.788s.087.044.131 0c.131-.044.394-.088.656 0 .219.087 9.538 6.037 9.538 6.037v-.043z" fill="#A4AAAE" fill-opacity=".6"/><path d="m28.413 23.469-8.4-6.65-.394.262 9.012 6.65a1.173 1.173 0 0 0-.218-.262z" fill="#333E46"/><path d="m18.219 17.694-.044.044s0 .087.087.043c.044-.043 1.313-.7 1.75-.962l-1.53-10.5c-.044-.394-.22-.569-.526-.7l.175 12.162.088-.087z" fill="#565F64"/><path d="M17.475 6.319v.569l-.963 9.668c0 .131.044.263.175.35l.57.438.393-10.675.044-.831c-.131.087-.175.262-.219.48zm-.525 11.2-.525-.438-8.881 6.431s-.263.175-.306.35l.306-.174 9.319-5.863c.175-.087.218-.175.087-.306z" fill="#A4AAAE" fill-opacity=".6"/><path d="M17.869 18.35c0-.044-.044-.088-.088-.044L7.194 24.3c.262.175.525.219.875.087l9.887-3.98-.087-2.057z" fill="#565F64"/><path d="m18.175 17.738.044-.044-.044.044s0 .043.044.043h.043c.044-.043 1.313-.7 1.75-.962l-.175-1.269-1.356-9.231c0-.175-.044-.306-.131-.394 0 0 .656 8.838.656 9.8 0 1.269-.831 2.013-.831 2.013z" fill="url(#i)"/><path d="M17.869 18.35c0-.044-.044-.088-.088-.044L7.194 24.3c.262.175.525.219.875.087l9.887-3.98-.087-2.057z" fill="url(#j)" fill-opacity=".8"/><path d="m8.069 24.344 9.887-3.982-.087-1.924c-.175.524-.482 1.093-1.313 1.53-.612.35-6.475 3.238-8.575 4.244-.131.088-.306.132-.393.175.175.088.306.044.48-.043z" fill="url(#k)"/><path d="m18.219 17.694-.044.044s0 .087.087.043c.044-.043 1.313-.7 1.75-.962l-1.53-10.5c-.044-.394-.22-.569-.526-.7l.175 12.162.088-.087z" fill="url(#l)"/><path d="m18.219 17.694-.044.044s0 .087.087.043c.044-.043 1.313-.7 1.75-.962l-1.53-10.5c-.044-.394-.22-.569-.526-.7l.175 12.162.088-.087z" fill="url(#m)"/><path d="M18.175 18.262h-.394c.044 0 .088 0 .088.044l.087 2.013H18l.087-2.013c0-.044.044-.087.088-.044z" fill="url(#n)"/><path d="m7.456 23.6 8.925-6.431c.482.262 1.269.612 1.357.612.087.044.087-.043.087-.043l-1.094-.92a.398.398 0 0 1-.175-.35l1.05-10.543c-.044.044-.044.131-.087.175-.044.088-.044.131-.044.219l-1.531 10.543-8.4 6.607c-.044.043-.088.087-.088.131z" fill="#333F47"/><path d="M4.963 18.044C4.963 10.869 10.78 4.963 18 4.963c7.219 0 13.038 5.862 13.038 13.08 0 7.176-5.82 12.995-13.038 12.995-7.219 0-13.037-5.82-13.037-12.994zM9.03 9.03c-2.317 2.32-3.76 5.514-3.76 9.014a12.7 12.7 0 0 0 3.719 8.968c2.318 2.276 5.512 3.72 9.012 3.72 3.5 0 6.694-1.4 8.969-3.72 2.319-2.274 3.718-5.468 3.718-8.968S29.244 11.35 26.97 9.03A12.558 12.558 0 0 0 18 5.27a12.56 12.56 0 0 0-8.969 3.762z" fill="#FBFBFB"/><defs><linearGradient id="a" x1="7.5" y1="9.206" x2="28.5" y2="26.794" gradientUnits="userSpaceOnUse"><stop stop-color="#fff"/><stop offset=".1" stop-color="#CDD0D0"/><stop offset=".2" stop-color="#A5ACAF"/><stop offset=".3" stop-color="#98A0A4"/><stop offset=".4" stop-color="#828A8F"/><stop offset=".5" stop-color="#667075"/><stop offset=".6" stop-color="#535C63"/><stop offset=".7" stop-color="#475158"/><stop offset=".8" stop-color="#434D54"/><stop offset="1" stop-color="#475157"/></linearGradient><linearGradient id="b" x1="8.156" y1="9.731" x2="27.844" y2="26.269" gradientUnits="userSpaceOnUse"><stop stop-color="#0B1F2A"/><stop offset=".2" stop-color="#333F47"/><stop offset=".5" stop-color="#81898D"/><stop offset=".7" stop-color="#B3B8B8"/><stop offset=".8" stop-color="#DEE0DD"/><stop offset="1" stop-color="#FBFBFB"/></linearGradient><linearGradient id="c" x1="22.8" y1="31.172" x2="13.219" y2="4.834" gradientUnits="userSpaceOnUse"><stop stop-color="#E1E3E1"/><stop offset=".1" stop-color="#C1C5C4"/><stop offset=".3" stop-color="#9BA1A2"/><stop offset=".5" stop-color="#7D8487"/><stop offset=".7" stop-color="#687074" stop-opacity="0"/><stop offset=".8" stop-color="#5B6469" stop-opacity="0"/><stop offset="1" stop-color="#576065" stop-opacity="0"/></linearGradient><linearGradient id="d" x1="11.963" y1="7.544" x2="24.038" y2="28.456" gradientUnits="userSpaceOnUse"><stop stop-color="#E1E3E1"/><stop offset=".1" stop-color="#C1C5C4"/><stop offset=".3" stop-color="#9BA1A2"/><stop offset=".5" stop-color="#7D8487"/><stop offset=".7" stop-color="#687074" stop-opacity="0"/><stop offset=".8" stop-color="#5B6469" stop-opacity="0"/><stop offset="1" stop-color="#576065" stop-opacity="0"/></linearGradient><linearGradient id="e" x1="3.825" y1="18.394" x2="16.031" y2="25.438" gradientUnits="userSpaceOnUse"><stop stop-color="#25323B" stop-opacity="0"/><stop offset=".1" stop-color="#27343C"/></linearGradient><linearGradient id="f" x1="24.869" y1="5.006" x2="24.869" y2="31.694" gradientUnits="userSpaceOnUse"><stop stop-color="#6B7378"/><stop offset=".2" stop-color="#333F47"/><stop offset=".5" stop-color="#27343C"/><stop offset=".8" stop-color="#333F47"/><stop offset="1" stop-color="#434D54"/></linearGradient><linearGradient id="g" x1="29.069" y1="7.544" x2="23.163" y2="16.206" gradientUnits="userSpaceOnUse"><stop offset=".7" stop-color="#49545B"/><stop offset=".8" stop-color="#fff" stop-opacity="0"/></linearGradient><linearGradient id="h" x1="18.067" y1="13.972" x2="15.32" y2="16.761" gradientUnits="userSpaceOnUse"><stop stop-color="#27343C"/><stop offset="1" stop-color="#00111E" stop-opacity="0"/></linearGradient><linearGradient id="i" x1="44.169" y1="22.679" x2="43.754" y2="18.073" gradientUnits="userSpaceOnUse"><stop offset=".1" stop-color="#02131F"/><stop offset=".9" stop-color="#02131F" stop-opacity="0"/></linearGradient><linearGradient id="j" x1="28.85" y1="9.649" x2="24.986" y2="10.327" gradientUnits="userSpaceOnUse"><stop offset=".2" stop-color="#02131F"/><stop offset=".9" stop-color="#02131F" stop-opacity="0"/></linearGradient><linearGradient id="k" x1="18.661" y1="17.393" x2="17.494" y2="15.588" gradientUnits="userSpaceOnUse"><stop stop-color="#02131F"/><stop offset=".1" stop-color="#02131F"/><stop offset="1" stop-color="#02131F" stop-opacity="0"/></linearGradient><linearGradient id="l" x1="24.173" y1="14.085" x2="14.004" y2="21.665" gradientUnits="userSpaceOnUse"><stop offset=".3" stop-color="#02131F"/><stop offset=".8" stop-color="#02131F" stop-opacity="0"/></linearGradient><linearGradient id="m" x1="24.632" y1="14.013" x2="18.254" y2="19.284" gradientUnits="userSpaceOnUse"><stop offset=".4" stop-color="#27343C"/><stop offset="1" stop-color="#3B474E" stop-opacity="0"/></linearGradient><linearGradient id="n" x1="19.176" y1="24.889" x2="19.176" y2="4.482" gradientUnits="userSpaceOnUse"><stop offset=".3" stop-color="#A5ABAF"/><stop offset="1" stop-color="#A5ABAF" stop-opacity="0"/></linearGradient></defs></svg>