<svg height="36" viewBox="0 0 36 36" width="36" xmlns="http://www.w3.org/2000/svg"><g fill="none"><path d="M18 0c2.837 0 5.52.656 7.907 1.825C31.884 4.753 36 10.895 36 18c0 9.942-8.058 18-18 18-9.94 0-18-8.057-18-18C0 8.06 8.06 0 18 0z" fill="#f2f4f7"/><path d="m9.2 19.853-2.5-1.204V16zm.2.46-2.7-1.14v1.14z" fill="#98002e"/><path d="M4.198 19.853 6.7 16v2.649zm-.198.46h2.7v-1.14z" fill="#e31937"/><path d="M9.96 19.521a.518.518 0 1 1-.002 1.037.518.518 0 0 1 .001-1.037m0 .961a.444.444 0 1 0 .002-.887.444.444 0 0 0-.002.887m-.114-.145H9.77v-.598h.231c.136 0 .189.059.189.166 0 .11-.07.156-.151.17l.178.262h-.085l-.179-.262h-.108zm0-.33h.097c.082 0 .171-.003.171-.102 0-.077-.07-.1-.134-.1h-.134v.203z" fill="#98002e"/><path d="M11.506 19.853h1.214c1.247 0 1.992-.646 1.992-1.719 0-1.072-.745-1.717-1.992-1.717h-1.214zm.767-2.84h.446c.81 0 1.215.4 1.215 1.121 0 .722-.405 1.122-1.215 1.122h-.446zm5.046 1.35h1.46v-.596h-1.46v-.754h1.65v-.596H16.55v3.436h2.471v-.597H17.32zm6.076.893h-1.48v-2.84h-.77v3.437h2.25zm4.145-2.84h-3.085v.597h1.157v2.84h.771v-2.84h1.157zM32 19.854h-.804l-.337-.861h-1.397l-.336.86h-.751l1.437-3.45h.775zm-1.359-1.436-.48-1.22-.48 1.22z" fill="#003d79"/></g></svg>