<svg width="36" height="36" fill="none" xmlns="http://www.w3.org/2000/svg"><path d="M18 0c2.837 0 5.52.656 7.907 1.825C31.884 4.753 36 10.895 36 18c0 9.942-8.058 18-18 18-9.94 0-18-8.057-18-18C0 8.06 8.06 0 18 0z" fill="#F2F4F7"/><g fill-rule="evenodd" clip-rule="evenodd"><path d="M20.466 19.59c0 .252.002.355.004.229a15.99 15.99 0 0 0 0-.46c-.002-.126-.004-.022-.004.23zm-6.258 3.368c0 .575.002.81.004.523.002-.288.002-.758 0-1.046-.002-.287-.004-.052-.004.523z" fill="#000"/><path d="M6 12.58c0 .548.002.58.024.572.693-.266 1.692-.246 2.303.046l.137.065.096-.04c.843-.348 1.955-.34 2.592.017.68.381 1.08 1.303.825 1.898-.096.223-.085.247.276.633.725.775.77.973.239 1.05-.293.041-.335.125-.171.338.12.154.1.273-.054.34l-.053.022.073.059c.17.137.168.226-.01.369-.118.094-.114.148.02.288.137.142.157.224.087.363-.106.213-.311.3-.778.33-.634.04-.892.077-.997.14-.14.086-.21.616-.117.886.066.193.163.29.59.586a.208.208 0 0 1 .057.05c0 .015-.065.011-.083-.005l-.242-.183c-.393-.293-.503-.607-.381-1.083.084-.327.155-.361.867-.417.592-.046.619-.05.715-.08.186-.06.305-.161.344-.296.03-.105.018-.138-.102-.265-.159-.17-.159-.212.002-.365.141-.133.141-.146.002-.275-.117-.11-.118-.123-.013-.173.127-.061.135-.129.031-.267-.186-.248-.128-.366.202-.41.47-.061.43-.222-.233-.935-.403-.433-.416-.464-.315-.717.194-.49-.038-1.218-.524-1.636-.488-.422-1.272-.573-2.141-.413-.24.044-.61.152-.72.21l-.034.018.085.061c.536.383.87 1.267.658 1.741-.115.26-.107.283.241.65.746.789.793.987.255 1.068-.292.045-.329.128-.157.354.117.154.086.259-.1.344-.008.003.004.02.026.036.198.15.204.233.028.389-.134.117-.13.155.032.314.13.128.141.229.042.383-.133.204-.281.256-.861.296-.55.04-.762.071-.884.133-.179.092-.227.748-.073 1.01.059.1.118.155.36.332.127.093.23.174.23.18 0 .021-.056.01-.096-.021l-.223-.165c-.19-.14-.255-.203-.31-.298-.162-.28-.116-.957.074-1.075.105-.064.362-.104.962-.148.465-.034.599-.071.725-.2.144-.15.142-.294-.004-.416-.154-.128-.156-.246-.005-.365.144-.113.143-.174-.003-.289-.107-.085-.11-.116-.008-.16.131-.059.142-.13.04-.263-.19-.246-.131-.372.195-.417.45-.062.423-.234-.13-.825-.522-.559-.532-.58-.413-.842.158-.347.036-.927-.285-1.364-.504-.685-1.539-.908-2.732-.588L6 13.204v7.411h8.708V12H6v.58z" fill="#005FAC"/><path d="M26.758 19.523v1.065h.4v-.41c0-.548.028-.665.178-.74.137-.068.265-.035.323.082l.037.076.005.497.004.496.195-.004.196-.004.004-.479c.005-.646-.012-.741-.158-.888-.177-.178-.514-.175-.713.006l-.071.066-.004-.411-.003-.41-.197-.004-.196-.004v1.066zm-10.326-.904c-.003.01-.005.456-.003.99l.003.972.28.005c.96.014 1.327-.215 1.392-.87.058-.586-.22-.982-.753-1.073-.212-.036-.907-.054-.919-.024zm6.301.156-.183.062v.272l-.136.004-.137.004v.293l.136.003.135.004.005.423c.006.468.01.497.105.625.091.124.32.18.562.137l.093-.017-.01-.155c-.01-.18-.006-.17-.072-.15-.24.072-.272.018-.278-.488l-.005-.376h.336l-.004-.15-.004-.15-.163-.003-.163-.004v-.199c0-.151-.004-.199-.017-.198-.009 0-.099.029-.2.063zm-5.436.22c.498.205.512.948.022 1.196-.086.043-.092.044-.284.049l-.197.004v-1.31l.17.006a.596.596 0 0 1 .289.054zm1.758.113c-.53.16-.666 1.01-.217 1.362.208.163.618.195.913.07l.083-.035v-.165c0-.177 0-.177-.061-.14-.34.208-.747.116-.81-.181l-.01-.043h1.001v-.037c-.001-.422-.16-.719-.437-.819a.996.996 0 0 0-.462-.012zm5.053-.016c-.3.055-.472.273-.424.535.033.183.119.255.423.355.178.06.214.087.214.167 0 .157-.197.207-.47.12a2.33 2.33 0 0 0-.132-.04c-.014 0-.027.307-.014.32.024.025.284.066.414.066.387-.001.62-.181.62-.48 0-.25-.126-.375-.483-.475-.107-.03-.161-.077-.161-.14 0-.12.19-.166.433-.104a.441.441 0 0 0 .11.02c.01-.01.034-.286.025-.295-.032-.031-.45-.069-.555-.05zm1.573.013c-.385.103-.577.491-.48.968.087.427.5.638 1.007.514l.07-.017-.008-.154c-.01-.19-.005-.184-.14-.148-.302.082-.491-.033-.532-.324-.054-.385.16-.606.507-.521a.35.35 0 0 0 .102.016c.014-.014.045-.294.033-.306-.043-.043-.431-.063-.56-.028zm3.437-.001c-.59.16-.688 1.136-.14 1.42.22.115.545.124.805.021l.104-.04v-.165a.825.825 0 0 0-.009-.165.223.223 0 0 0-.05.026c-.33.204-.82.09-.82-.19v-.035l.496-.004.496-.003-.004-.12c-.02-.561-.391-.876-.878-.745zm-8.639.024c-.02.052.002 1.095.024 1.162.119.35.547.437.865.176l.063-.052.004.084.004.083h.372v-1.464h-.386l-.006.447-.007.446-.05.102c-.123.248-.4.254-.478.01a5.03 5.03 0 0 1-.023-.526l-.008-.48-.184-.003c-.145-.003-.184 0-.19.015zm-1.076.287c.065.03.114.09.144.178.037.11.058.103-.285.103a5.63 5.63 0 0 1-.307-.004c0-.02.047-.153.065-.187.054-.1.256-.147.383-.09zm10.052 0a.276.276 0 0 1 .152.236v.045h-.3c-.334 0-.318.005-.284-.095a.318.318 0 0 1 .432-.186zm-15.64 3.536v1.059h.387l-.003-1.055-.004-1.055-.19-.004-.19-.004v1.06zm-1.011-.825v.193h.4v-.386h-.4v.193zm2.01 0v.193h.4l-.003-.19-.004-.19-.196-.003-.196-.004v.194zm14.267-.1a.936.936 0 0 0-.858.752c-.175.953.493 1.459 1.587 1.203l.117-.027v-1.076h-.813v.333h.413v.239c0 .28.016.257-.18.265-.484.018-.8-.342-.709-.808.097-.493.487-.664 1.115-.489.04.012.074.018.078.015.012-.012.031-.33.02-.34-.06-.054-.487-.09-.77-.066zm-23.054.997v.987h.444c.485 0 .545-.008.68-.087.26-.153.344-.517.17-.744-.053-.07-.164-.154-.203-.154-.092 0-.098-.027-.015-.068.33-.165.331-.66.002-.83-.142-.074-.174-.078-.642-.084l-.436-.006v.986zm20.538-.86a101.248 101.248 0 0 1-.452 1.15c-.055.14-.1.26-.1.266 0 .006-.028.078-.062.158-.033.08-.072.175-.085.21l-.024.063h.434l.068-.173a2.27 2.27 0 0 0 .083-.232l.015-.034h.777l.03.09c.017.049.053.146.08.216l.049.126.228.004.228.004-.017-.057a16.693 16.693 0 0 0-.287-.73 10.02 10.02 0 0 1-.114-.294 9.193 9.193 0 0 0-.116-.3 40.094 40.094 0 0 1-.158-.397l-.072-.187-.227-.004-.227-.003-.05.123zm-16.444.015c-.044.016-.122.04-.173.053-.13.035-.127.03-.127.19v.138h-.28v.293h.278l.006.436c.007.552.037.64.247.724.082.033.373.042.462.015l.04-.013-.004-.15c-.004-.18.007-.166-.099-.138-.102.027-.168.01-.215-.053-.027-.036-.029-.055-.033-.43l-.004-.391h.335v-.293h-.333v-.2c0-.228.005-.22-.1-.181zm-3.3.239c.111.047.149.206.073.31-.057.079-.117.098-.302.098H6.44v-.442l.163.005a.686.686 0 0 1 .217.029zm20.09.288a10.975 10.975 0 0 1 .175.514c.006.016-.032.019-.255.019h-.263l.01-.03a12.352 12.352 0 0 1 .14-.416l.102-.285c.008-.028.01-.025.09.198zm-18.54-.172c-.34.06-.535.335-.535.757 0 .33.088.518.31.655.195.122.643.134.883.025l.06-.027v-.16c0-.186.01-.179-.153-.107-.264.118-.484.104-.632-.04-.048-.047-.059-.07-.088-.189l-.008-.036h1.001v-.04c0-.342-.128-.647-.314-.75a.842.842 0 0 0-.525-.088zm3.135-.006c-.508.077-.754.697-.477 1.205.16.293.67.408 1.08.242l.082-.034v-.158c0-.184.004-.18-.127-.118-.267.127-.534.117-.663-.027a.564.564 0 0 1-.102-.213c0-.008.19-.013.501-.013h.5l-.008-.123c-.033-.436-.164-.647-.457-.734a1.158 1.158 0 0 0-.33-.027zm4.714.006c-.563.094-.707 1.133-.196 1.42l.089.05h.193c.219 0 .28-.02.393-.133l.054-.054-.004.074c-.026.406-.297.535-.74.351-.114-.047-.11-.051-.127.12a5.453 5.453 0 0 0-.016.165c0 .042.314.11.513.11.343 0 .566-.111.677-.336.091-.186.091-.188.098-1.006l.006-.735h-.388v.162l-.066-.06a.554.554 0 0 0-.486-.128zm4.173 0a.652.652 0 0 0-.296.149l-.05.05v-.173h-.373v1.451h.4v-.407c0-.326.004-.423.02-.49.064-.253.315-.363.458-.2.064.072.067.109.068.621v.476h.4v-.512c0-.329-.006-.537-.016-.582-.06-.288-.294-.433-.61-.382zm1.615.006c-.594.129-.681 1.232-.114 1.444.19.071.463.023.603-.106l.057-.053-.007.106c-.026.382-.288.483-.771.298-.079-.03-.072-.04-.092.146-.017.175-.02.17.074.201.346.118.796.063.992-.12.186-.174.205-.283.206-1.17v-.72l-.19-.003-.189-.004v.163l-.067-.06a.539.539 0 0 0-.502-.122zm1.896-.007c-.326.059-.499.262-.45.528.034.183.136.273.388.344.198.056.253.098.253.194 0 .161-.284.21-.522.09-.084-.042-.087-.039-.097.106l-.011.162c-.003.038.009.042.211.073.503.078.83-.095.836-.442.004-.252-.098-.363-.44-.475-.182-.06-.237-.12-.19-.207.045-.084.25-.11.432-.052a.349.349 0 0 0 .096.021 2.25 2.25 0 0 0 .03-.27c.001-.049-.38-.1-.536-.072zm-11.1.752v.726h.4v-1.451h-.4v.725zm2.01 0v.726h.4l-.003-.722-.004-.723-.196-.003-.196-.004v.726zm2.93-.202c0 .626.016.715.153.85.168.167.55.15.747-.031l.058-.054v.163h.387v-1.451h-.397l-.006.422c-.006.414-.006.425-.041.53-.092.28-.421.315-.487.052a5.06 5.06 0 0 1-.015-.53v-.474h-.4v.523zm-9.074-.23c.05.03.108.11.134.182.037.104.055.097-.288.097H8.21l.008-.036c.048-.224.28-.35.452-.243zm3.073-.012a.35.35 0 0 1 .163.245l.009.046h-.308a6.23 6.23 0 0 1-.308-.004c0-.079.1-.236.178-.278a.482.482 0 0 1 .266-.01zm4.828.025c.226.115.241.664.022.793-.243.142-.472-.065-.458-.413.012-.313.218-.492.436-.38zm5.805 0c.212.107.243.6.049.77-.209.183-.472.003-.485-.331-.014-.346.2-.56.436-.44zm-15.661.294c.173.024.259.092.278.22.03.195-.097.293-.396.308l-.157.008v-.55h.085c.047 0 .133.006.19.014z" fill="#646567"/><path d="M7.005 12.968C6.6 12.993 6 13.119 6 13.18c0 .024-.016.027.266-.046 1.135-.294 2.158-.06 2.649.608.321.437.442 1.017.285 1.364-.12.263-.11.283.413.842.553.592.58.763.13.825-.326.045-.385.17-.196.417.103.134.092.204-.04.263-.1.044-.099.075.01.16.145.115.146.176.002.29-.075.058-.096.085-.116.147-.013.04.054.162.12.217.147.122.149.267.005.416-.126.13-.26.166-.725.2-.6.044-.858.084-.963.149-.19.117-.235.794-.073 1.074.055.095.12.158.31.299l.222.164c.041.03.098.043.098.021 0-.006-.104-.087-.232-.18-.24-.176-.3-.232-.36-.332-.153-.262-.105-.918.074-1.01.122-.062.333-.093.884-.132.58-.041.728-.092.86-.297.1-.154.09-.255-.041-.383-.162-.16-.166-.196-.032-.314.176-.156.17-.239-.028-.389-.022-.016-.034-.033-.027-.036.187-.085.218-.19.101-.343-.172-.226-.135-.31.157-.354.538-.082.49-.28-.255-1.068-.348-.368-.356-.392-.24-.65.21-.475-.123-1.358-.66-1.742l-.084-.06.034-.018c.11-.058.48-.166.72-.21.869-.16 1.652-.01 2.141.412.486.418.718 1.146.523 1.636-.1.253-.087.284.316.717.663.714.703.874.233.936-.33.043-.388.162-.202.41.104.137.096.205-.03.266-.106.05-.105.063.012.173.139.13.139.142-.002.276-.16.153-.161.195-.002.364.12.127.133.16.102.266-.039.134-.158.236-.344.295-.096.03-.123.034-.716.08-.71.056-.782.09-.866.417-.122.476-.012.79.38 1.083l.243.183c.018.016.084.02.083.005a.208.208 0 0 0-.056-.05c-.428-.297-.525-.392-.591-.586-.093-.27-.023-.8.117-.885.105-.064.363-.1.997-.14.467-.03.672-.117.778-.33.07-.14.05-.221-.087-.364-.134-.14-.138-.194-.02-.288.178-.143.18-.232.01-.37l-.073-.058.053-.023c.154-.065.173-.185.054-.339-.165-.212-.122-.296.17-.338.532-.077.487-.275-.238-1.05-.361-.386-.372-.41-.276-.633.254-.595-.146-1.516-.825-1.898-.637-.358-1.75-.365-2.592-.016l-.096.04-.137-.066c-.373-.178-.842-.26-1.322-.23z" fill="#F8FBFC"/></g></svg>