<svg width="36" height="36" fill="none" xmlns="http://www.w3.org/2000/svg"><path d="M18 0c2.837 0 5.52.656 7.907 1.825C31.884 4.753 36 10.895 36 18c0 9.942-8.058 18-18 18-9.94 0-18-8.057-18-18C0 8.06 8.06 0 18 0z" fill="#F2F4F7"/><path fill-rule="evenodd" clip-rule="evenodd" d="M10.458 8.022c-1.287.221-2.208 1.134-2.425 2.402-.035.21-.047 14.918-.011 15.103l.045.236c.014.075.053.211.087.303l.084.23c.263.726 1.074 1.399 1.98 1.645l.177.048 7.51.006c4.634.003 7.562-.003 7.648-.015a2.869 2.869 0 0 0 2.43-2.43c.03-.212.017-15.16-.014-15.241a1.77 1.77 0 0 1-.05-.172 3.259 3.259 0 0 0-.273-.682 2.878 2.878 0 0 0-2.068-1.426c-.204-.034-14.924-.04-15.12-.007zm6.99 9.988c0 7.34 0 7.628-.037 7.628-.03 0-.043-.03-.065-.162-.17-1.025-1.247-1.207-2.519-.424-1.596.982-3.664.439-4.646-1.22-1.69-2.853-.162-7.147 2.545-7.149.943 0 1.628.538 1.945 1.53a.46.46 0 0 0 .065.152c.01 0 .017-1.796.017-3.992v-3.991h2.696v7.628zm3.804-3.63c0 2.2.006 4.005.014 4.012.007.008.039-.064.07-.158.353-1.045.987-1.548 1.954-1.55 1.983-.002 3.578 2.557 3.209 5.15-.329 2.312-1.688 3.7-3.625 3.7-.577 0-.927-.102-1.722-.504-.729-.367-1.062-.48-1.422-.478-.532 0-.947.34-1.046.856l-.036.183c-.005.026-.023.047-.04.047-.027 0-.03-.905-.03-7.628v-7.628h2.674v3.998zm-8.073 2.606c-.686.173-.85.955-.85 4.078-.001 3.123.194 4.028.925 4.3.412.152.998-.067 1.22-.457.272-.475.282-.622.274-3.762l-.006-2.498-.086-.251c-.347-1.013-.912-1.551-1.477-1.41zm9.274-.002c-.447.107-.902.741-1.148 1.598l-.053.185v2.375c0 2.367.01 2.788.075 3.138.118.645.372.97.851 1.09.922.23 1.38-.513 1.478-2.397.048-.928.02-3.894-.042-4.462-.127-1.16-.523-1.68-1.161-1.526z" fill="#343434"/></svg>