<svg width="36" height="36" fill="none" xmlns="http://www.w3.org/2000/svg"><path d="M18 0c2.837 0 5.52.656 7.907 1.825C31.884 4.753 36 10.895 36 18c0 9.942-8.058 18-18 18-9.94 0-18-8.057-18-18C0 8.06 8.06 0 18 0z" fill="#F2F4F7"/><g fill-rule="evenodd" clip-rule="evenodd"><path d="M5.33 20.73h5.332v-5.387H5.329v5.387z" fill="#fff"/><path d="m10.488 20.56-1.935-1.639s-.262-.258-.557-.258c-.297 0-.559.258-.559.258l-1.934 1.64-.006-.006L7.12 18.6s.255-.264.255-.564c0-.298-.255-.562-.255-.562l-1.623-1.956.006-.007 1.934 1.64s.262.26.56.26c.294 0 .556-.26.556-.26l1.935-1.64.008.008-1.627 1.955s-.253.264-.253.562c0 .3.253.564.253.564l1.627 1.954-.008.007zm.905-2.524c0-.53.022-1.006.41-1.84.113-.243.362-.597-.005-1.01-.297-.3-.636-.25-.864-.117a.697.697 0 0 0-.118-.875c-.408-.37-.76-.119-.998-.004-.827.394-1.295.415-1.822.415-.528 0-.996-.021-1.822-.415-.24-.114-.593-.365-1 .004-.297.301-.247.644-.116.875a.679.679 0 0 0-.866.118c-.366.412-.116.766-.006 1.009.392.834.413 1.31.413 1.84 0 .532-.021 1.008-.413 1.842-.11.24-.36.597.006 1.01.298.298.637.249.866.117-.131.231-.181.574.116.872.407.372.76.12 1 .006.826-.393 1.294-.414 1.822-.414.527 0 .995.02 1.821.414.24.114.591.366 1-.006.297-.298.247-.64.117-.871.228.13.567.182.864-.119.367-.412.118-.768.006-1.01-.39-.834-.41-1.31-.41-1.841z" fill="#F33"/><path d="M17.707 21.164c.663-.24 1.484-1.384 1.348-3.184-.13-1.742-.788-3.11-2.539-3.24 0 0-.331-.023-.61-.024-.297-.003-.361-.013-.383.309-.038.601-.05 5.286-.011 5.962.004.093.014.315.396.354.699.068 1.277.013 1.799-.177zm-.677-6.72c1.481-.007 3.43 1.02 3.423 3.582-.005 2.229-1.599 3.602-3.07 3.602h-3.738l.005-.079c.21-.038.446-.17.486-.311.123-.537.095-5.451.02-6.26-.023-.254-.221-.417-.461-.457l-.008-.077s3.01.002 3.343 0zm8.194 5.423c.03-1.544-1.091-1.953-2.251-2.017-.025-.002-.015-.06.003-.063.377-.015 1.875-.19 1.815-1.637-.061-1.41-1.12-1.44-1.507-1.447a7.234 7.234 0 0 0-.518.003c-.224.01-.28.026-.28.273 0 .03-.049 2.538-.078 4.301-.014.958-.018 1.696-.018 1.696.006.176-.016.354.412.374.442.022 1.012.04 1.41-.045.366-.079.987-.349 1.012-1.438zm-.459-2.076c1.743.437 1.848 1.707 1.824 2.065-.08 1.59-1.416 1.773-1.953 1.773h-4.112l.005-.08c.299-.042.523-.207.523-.737l.024-5.48c.007-.593-.148-.775-.474-.814l-.007-.074h3.109c.57 0 2.289-.114 2.435 1.481.117 1.277-1.272 1.81-1.374 1.866zm6.704-3.325h.07l.025 1.28-.078-.001c-.125-.521-.62-1.013-1.616-1.064-1.174-.062-1.682.645-1.69 1.314-.006.889.68 1.073 1.698 1.324.48.118 2.256.352 2.114 2.369-.099 1.408-1.303 2.078-3.007 2.025 0 0-.709-.024-1.698-.301-.183-.053-.232.01-.305.146l-.08.004.002-1.38.078.004c.039.14.05.4.3.62.184.163.613.565 1.555.576.925.012 1.691-.382 1.794-1.43.028-.282-.002-.927-.625-1.22-.488-.231-1.842-.383-2.498-.964 0 0-.779-.548-.656-1.57.172-1.446 1.367-1.807 2.44-1.829 0 0 .96-.01 1.724.19 0 0 .187.051.342-.008a.215.215 0 0 0 .11-.085z" fill="#000"/></g></svg>