<svg height="36" viewBox="0 0 36 36" width="36" xmlns="http://www.w3.org/2000/svg"><g fill="none" fill-rule="evenodd"><path d="M18 0c2.837 0 5.52.656 7.907 1.825C31.884 4.753 36 10.895 36 18c0 9.942-8.058 18-18 18-9.94 0-18-8.057-18-18C0 8.06 8.06 0 18 0z" fill="#f2f4f7" fill-rule="nonzero"/><path d="M6.98 15c.859 0 1.735.185 2.558.583a5.47 5.47 0 0 1 .002 4.218c-.826.401-1.699.584-2.559.584s-1.732-.183-2.559-.584A5.445 5.445 0 0 1 4 17.694c0-.699.132-1.416.423-2.111A5.859 5.859 0 0 1 6.98 15" fill="#2d7d2f"/><path d="M4.601 19.633a5.23 5.23 0 0 1 .001-3.883c.714-.335 1.53-.523 2.378-.523s1.663.188 2.377.523a5.21 5.21 0 0 1 .373 1.944 5.21 5.21 0 0 1-.37 1.94 5.606 5.606 0 0 1-2.38.522 5.588 5.588 0 0 1-2.379-.523" fill="#fd0"/><path d="m19.528 18.875-1.166-1.317v1.317h-.448v-1.934h.445l1.17 1.304v-1.304h.45v1.934zm9.714-1.103c.093 0 .248-.028.248-.22 0-.136-.09-.215-.248-.215h-.82v.434zm.765 1.103h-.542l-.54-.707h-.527v.707h-.449v-1.934h1.268c.437 0 .697.232.697.621 0 .233-.13.494-.47.576zm-7.83-2.414c.86 0 1.373.458 1.373 1.224 0 .55-.359 1.19-1.373 1.19h-1.084v-2.414h.518zm-.634.4v1.615h.634c.344 0 .922-.107.922-.815 0-.51-.336-.8-.922-.8zm9.118 1.618v-.374h1.036v-.395h-1.036v-.373H32v-.396h-1.786v1.934H32v-.396zm-4.348 0v-.374h1.035v-.395h-1.035v-.373h1.338v-.396h-1.787v1.934h1.787v-.396zm-2.085 0v-.374h1.034v-.395h-1.034v-.373h1.337v-.396H23.78v1.934h1.786v-.396zM17.1 16.941v.77h-1.167v-.77h-.448v1.934h.448v-.769H17.1v.77h.448V16.94zm-3.033 1.584c-.262 0-.704-.08-.704-.623 0-.388.257-.61.704-.61s.702.222.702.61c0 .541-.439.623-.702.623zm-1.15-.602c0 .46.3.997 1.15.997s1.151-.537 1.151-.997c0-.643-.43-1.027-1.15-1.027s-1.152.384-1.152 1.027zm-1.972.492s.253.091.54.091c.303 0 .492-.04.598-.149.088-.088.124-.235.118-.45v-1.444h.45v1.506c-.008.666-.33.951-1.086.951-.367 0-.622-.058-.622-.058v-.447zm-1.722 1.093c-.15-.248-.352-.447-.354-.449l-.042-.014c-.427-.132-.708-.23-.833-.295-.17-.088-.35-.303-.369-.328a2.516 2.516 0 0 0-.526.008l-.102.013c-.193.025-.393.052-.589.021a2.755 2.755 0 0 1-.39-.107c-.208-.067-.419-.137-.66-.136h-.012l.005.008c.055.107.272.432.544.521a.37.37 0 0 1 .122.045l.133.27a3.243 3.243 0 0 1-1.116-.857l-.013-.128c.252-.095.817-.148.881-.155h.004l.003-.007c.034-.298.104-.536.236-.797.004-.008.006-.016.006-.02s0-.01-.004-.014c-.008-.014-.025-.017-.025-.017l-.386-.067-.04-.128a7.1 7.1 0 0 1 .815-.243c.034-.052.043-.08.043-.116a.089.089 0 0 0-.043-.074c-.138-.094-.576-.037-1.019.132l-.002-.004c.092-.069.256-.172.378-.228l.005-.002v-.005c-.035-.11-.25-.196-.274-.206l.001-.008c.22-.015.366.087.41.161l.002.003h.004c.028-.01.128-.04.236-.055h.006l-.002-.006c-.036-.188-.215-.314-.277-.352l.005-.007c.212.017.41.2.452.354l.002.005h.004c.057.002.127.007.172.015l.005.001.002-.003a.33.33 0 0 0 .026-.13.571.571 0 0 0-.176-.383l.006-.008c.28.107.35.308.35.495 0 .13-.036.256-.058.335l-.009.033.438-.053a1.006 1.006 0 0 1-.312.246l-.184-.023-.005-.001v.003c-.013.038-.122.381-.122.633 0 .093.027.166.078.216.094.09.247.094.354.09.458-.017.815.011 1.063.085l.014.005.002-.003a.238.238 0 0 0 .027-.126c0-.11-.043-.274-.192-.461l.003-.003c.024.013.425.24.48.585l-.193.078.005.005c.17.177.228.393.274.564.038.136.082.223.142.274.068.06.328.183.405.22.065.092.176.264.257.398a5.083 5.083 0 0 0-.072-3.435 5.481 5.481 0 0 0-4.483 0 5.061 5.061 0 0 0-.002 3.633 5.482 5.482 0 0 0 2.243.476 5.456 5.456 0 0 0 2.243-.476z" fill="#2d7d2f"/></g></svg>