<svg height="36" viewBox="0 0 36 36" width="36" xmlns="http://www.w3.org/2000/svg"><mask id="a" fill="#fff"><path d="M0 0h28v3.97H0z" fill-rule="evenodd"/></mask><g fill="none" fill-rule="evenodd"><path d="M18 0c2.837 0 5.52.656 7.907 1.825C31.884 4.753 36 10.895 36 18c0 9.942-8.058 18-18 18-9.94 0-18-8.057-18-18C0 8.06 8.06 0 18 0z" fill="#f2f4f7" fill-rule="nonzero"/><g fill="#2f474c"><path d="M1.07 1.014h.437c.64 0 1.065.354 1.065.965v.011c0 .616-.425.965-1.065.965H1.07zM21.776.992h.7c.36 0 .58.153.58.453v.01c0 .28-.21.453-.574.453h-.706zM20.704.076v3.817h1.07V2.737h.47l.778 1.156h1.237l-.922-1.33c.48-.202.795-.59.795-1.173v-.01c0-.377-.116-.672-.343-.89-.26-.262-.667-.414-1.258-.414zm-4.011 0v3.817h3.135v-.9h-2.075V2.39h1.653v-.835h-1.653V.976H19.8v-.9zm-4.274 0v3.817h1.07V2.346l1.33 1.547h1.288l-1.725-1.908L16.089.076h-1.27l-1.33 1.548V.076zm-8.047 0v3.817h3.135v-.9H5.43v-.605h1.654v-.834H5.43V.976h2.048v-.9zM0 .076v3.817h1.468c1.39 0 2.203-.817 2.203-1.92v-.01C3.67.861 2.87.076 1.49.076zM26.305.01c-.926 0-1.495.513-1.495 1.222v.011c0 .785.635 1.014 1.457 1.2.525.12.65.207.65.365v.011c0 .164-.153.262-.44.262-.447 0-.872-.158-1.253-.458l-.596.704c.474.42 1.126.632 1.81.632.939 0 1.562-.464 1.562-1.244v-.01c0-.715-.552-.999-1.44-1.19-.536-.119-.668-.196-.668-.37v-.01c0-.138.127-.246.386-.246.342 0 .729.13 1.082.375l.535-.747c-.42-.332-.932-.507-1.59-.507zM10.092 0c-1.17 0-2.037.872-2.037 1.985v.01c0 1.14.889 1.975 1.993 1.975.856 0 1.346-.366 1.71-.862l-.805-.567c-.232.278-.47.464-.872.464-.541 0-.922-.448-.922-1.02v-.01c0-.558.38-1.01.922-1.01.369 0 .624.174.844.447l.806-.616C11.389.327 10.88 0 10.09 0z" mask="url(#a)" transform="translate(4 14)"/><path d="M9.932 20.831h.597c.297 0 .441.106.441.287 0 .194-.156.294-.413.294h-.625zM4 20.792h4.271v-.328h-4.27zm23.687-.019h4.31v-.328h-4.31zm-11.226-.719.37.846h-.737zm5.811-.09h.422c.45 0 .744.305.744.721 0 .418-.294.717-.744.717h-.422zm-9.305 0h.548c.278 0 .443.12.443.352 0 .22-.172.358-.44.358h-.55zm-3.035-.01h.542c.242 0 .376.1.376.273 0 .196-.162.29-.403.29h-.515zm11.963-.33v2.117h.8c.673 0 1.138-.462 1.138-1.06s-.465-1.057-1.139-1.057zm-3.22 0v2.117h.371v-1.506l1.181 1.506h.315v-2.117h-.37v1.464l-1.148-1.464zm-6.085 0v2.117h.377v-.737h.47l.527.737h.444l-.579-.8c.301-.083.512-.295.512-.645 0-.415-.304-.672-.796-.672zm-3.028 0v2.117h.992c.477 0 .792-.202.792-.583 0-.29-.174-.432-.425-.517.16-.082.306-.215.306-.475 0-.333-.273-.542-.704-.542zm6.731-.015-.943 2.132h.385l.221-.51h1.013l.217.51h.398l-.943-2.132zm9.39-.015c-.425 0-.73.248-.73.617 0 .393.256.526.712.635.398.09.483.172.483.327 0 .163-.147.27-.379.27-.267 0-.472-.1-.677-.276l-.226.266c.257.227.566.338.894.338.45 0 .765-.235.765-.634 0-.354-.236-.515-.689-.623-.41-.097-.508-.17-.508-.336 0-.143.128-.254.35-.254.195 0 .388.075.581.218l.202-.282a1.196 1.196 0 0 0-.778-.266z"/></g></g></svg>