<svg width="36" height="36" fill="none" xmlns="http://www.w3.org/2000/svg"><path d="M18 0c2.837 0 5.52.656 7.907 1.825C31.884 4.753 36 10.895 36 18c0 9.942-8.058 18-18 18-9.94 0-18-8.057-18-18C0 8.06 8.06 0 18 0z" fill="#F2F4F7"/><path d="M29.077 19.425a.062.062 0 0 0 .017-.033v-.74a.053.053 0 0 0-.05-.05h-3.44c-.017 0-.026.008-.034.016a.062.062 0 0 0-.016.033v.75c0 .016.008.024.016.032a.062.062 0 0 0 .033.017h1.16v3.12c0 .017.01.025.017.033a.062.062 0 0 0 .033.016h.881c.041 0 .09-.016.14-.049a.214.214 0 0 0 .074-.173v-2.955h1.145s.008-.009.024-.017zm-6.133 2.404c0-.016-.008-.025-.017-.033a.063.063 0 0 0-.032-.016H20.72v-.881h1.877c.017 0 .025-.008.033-.017a.062.062 0 0 0 .017-.033v-.74c0-.017-.009-.025-.017-.034a.062.062 0 0 0-.033-.016H20.73v-.617h2.174c.016 0 .024-.009.033-.017a.062.062 0 0 0 .016-.033v-.757c0-.017-.008-.025-.016-.033a.062.062 0 0 0-.033-.017h-3.31c-.016 0-.025.009-.033.017a.062.062 0 0 0-.016.033v3.507c0 .148.074.263.173.346.098.082.23.123.329.123h2.684c.058 0 .107-.033.148-.066.025-.016.033-.04.05-.057.008-.008.008-.017.016-.025 0-.008.008-.008.008-.033v-.6h-.008zm3.458.008c0-.016-.009-.024-.017-.033a.062.062 0 0 0-.033-.016h-1.901v-3.137c0-.016-.009-.024-.017-.033a.062.062 0 0 0-.033-.016h-1.046a.053.053 0 0 0-.049.05v3.489c0 .173.074.296.173.37a.55.55 0 0 0 .313.107h2.42c.05 0 .09-.032.132-.074a.282.282 0 0 0 .058-.14v-.568zm-8.044-1.482-.996-1.407a1.243 1.243 0 0 0-.19-.214.91.91 0 0 0-1.498.7v3.136c0 .017.008.025.017.033a.062.062 0 0 0 .033.016h1.07c.016 0 .025-.008.033-.016a.062.062 0 0 0 .016-.033v-2.429l1.145 1.647h-.741c-.017 0-.025.008-.033.016a.063.063 0 0 0-.017.033v.741c0 .017.009.025.017.033a.062.062 0 0 0 .033.017h1.4a.682.682 0 0 0 .56-1.07c0-.009-.413-.585-.849-1.203zm12.72-1.835a.95.95 0 0 0-.593.214 1.293 1.293 0 0 0-.19.214c-.098.148-.559.798-.995 1.407-.437.618-.848 1.194-.848 1.194a.704.704 0 0 0-.124.395c0 .38.305.684.684.684h1.416c.016 0 .024-.009.032-.017a.063.063 0 0 0 .017-.033v-.74c0-.017-.008-.025-.017-.034a.062.062 0 0 0-.032-.016h-.741l1.144-1.647v2.437c0 .017.008.025.016.033a.063.063 0 0 0 .033.017h1.07c.017 0 .025-.009.034-.017a.063.063 0 0 0 .016-.033v-3.136a.931.931 0 0 0-.922-.922zM9.244 14 4 22.62h10.464L9.244 14zm.997 7.624c-.247 0-.47-.075-.66-.198-.007 0-.007.008-.016.008-.592.412-1.243.675-1.836.675h-.09c-.445-.016-.782-.197-.996-.436a1.242 1.242 0 0 1-.321-.774v-.058c.008-.732.51-1.53 1.202-2.181.675-.65 1.572-1.136 2.445-1.145h.016c.404 0 .758.132.988.37.239.24.362.577.354.931 0 .247-.057.51-.164.766.189.214.304.502.304.807 0 .683-.543 1.235-1.226 1.235zm.411-3.417c-.14-.14-.354-.239-.667-.239h-.008c-.7 0-1.523.428-2.149 1.021-.642.585-1.07 1.334-1.062 1.844v.041c.008.14.066.338.206.486.14.148.346.272.683.288h.074c.445 0 .997-.206 1.515-.551a1.207 1.207 0 0 1-.23-.7 1.23 1.23 0 0 1 1.227-1.227c.197 0 .378.05.543.132.057-.173.09-.33.09-.477 0-.272-.082-.47-.222-.618z" fill="#009FE8"/></svg>