<svg width="36" height="36" fill="none" xmlns="http://www.w3.org/2000/svg"><path d="M18 0c2.837 0 5.52.656 7.907 1.825C31.884 4.753 36 10.895 36 18c0 9.942-8.058 18-18 18-9.94 0-18-8.057-18-18C0 8.06 8.06 0 18 0z" fill="#F2F4F7"/><path d="M31.43 16c.318 0 .57.25.57.572v3.817a.565.565 0 0 1-.57.573h-.038a221.902 221.902 0 0 0-26.784 0H4.57a.566.566 0 0 1-.57-.573v-3.817c0-.321.253-.572.57-.572l.038.002a223.136 223.136 0 0 0 26.784 0L31.43 16z" fill="#CACBCC"/><path d="m31.43 16.203-.025.001a224.121 224.121 0 0 1-26.809 0c-.01-.002-.018-.002-.026-.002a.365.365 0 0 0-.367.37v3.817c0 .206.16.37.367.37.008 0 .017 0 .024-.002A225.39 225.39 0 0 1 18 20.355c4.451 0 8.96.136 13.403.402.01.002.019.002.027.002a.366.366 0 0 0 .368-.37v-3.816a.369.369 0 0 0-.368-.37" fill="#FE0"/><path d="M18.687 17.434c-.613 0-.968.383-.968 1.048 0 .587.262 1.047.915 1.047a1 1 0 0 0 .526-.142l.067.103h.33v-1.036h-.767v.321h.218v.279a.623.623 0 0 1-.241.05c-.307 0-.455-.223-.455-.644 0-.382.138-.602.344-.602.162 0 .24.105.282.299l.58-.1c-.084-.407-.377-.623-.831-.623zm-10.127 0c-.61 0-.942.43-.942 1.048 0 .619.332 1.047.942 1.047.609 0 .94-.428.94-1.047 0-.617-.331-1.048-.94-1.048zm-3.081.038v.393h.205v1.625h.673c.65 0 1.129-.224 1.129-.989 0-.837-.424-1.03-1.19-1.03H5.48zm4.235 0v2.018h1.38l.026-.392h-.849v-1.626h-.557zm1.58 0v2.018h1.381l.026-.392h-.849v-1.626h-.557zm2.126 0-.11.393-.53 1.625h.545l.109-.37h.672l.121.37h.584l-.727-2.018h-.664zm1.557 0 .001 2.018h.557v-.67h.15l.224.361c.08.128.146.2.22.254a.54.54 0 0 0 .321.09.69.69 0 0 0 .303-.073l.035-.367a.295.295 0 0 1-.159.048c-.083 0-.13-.029-.191-.124l-.163-.259c.227-.093.38-.3.38-.621 0-.245-.1-.434-.297-.545-.14-.08-.344-.112-.624-.112h-.757zm4.833 0v2.018h1.399l.025-.392h-.866v-.438h.65v-.389h-.65v-.406h.794v-.393H19.81zm1.616 0v2.018h.459v-1.1a.514.514 0 0 0 .087.133l.816.967h.35v-2.018h-.455v1.109a.61.61 0 0 0-.093-.14l-.823-.97h-.34zm2.006 0v2.018h1.4l.025-.392h-.866v-.438h.648v-.389h-.648v-.406h.792v-.393h-1.351zm1.617 0v2.018h.558v-.67h.149l.224.361c.08.128.147.2.22.254.083.058.184.09.323.09a.686.686 0 0 0 .302-.073l.036-.367a.304.304 0 0 1-.16.048c-.083 0-.131-.029-.192-.124l-.162-.259c.226-.093.38-.3.38-.621 0-.245-.1-.434-.298-.545-.14-.08-.344-.112-.625-.112h-.755zm2.532 0-.11.393-.529 1.625h.545l.108-.37h.674l.122.37h.583l-.727-2.018h-.666zm1.534 0v2.018h1.38l.025-.392h-.847v-1.626h-.558zm-20.556.39c.223 0 .348.185.348.62 0 .437-.125.619-.348.619-.224 0-.348-.182-.348-.62 0-.434.124-.62.348-.62zm-2.318.003h.12c.342 0 .537.096.537.598 0 .398-.07.638-.488.638h-.17v-1.236zm9.293 0h.16c.153 0 .253.014.31.072.047.049.073.12.073.223 0 .217-.086.313-.306.313h-.237v-.608zm10.072 0h.159c.153 0 .252.014.31.072.048.049.073.12.073.223 0 .217-.086.313-.306.313h-.236v-.608zm-11.862.093h.005c.004.08.039.19.076.304l.157.485h-.443l.14-.487c.034-.121.06-.231.065-.302zm14.161 0h.007c.004.08.039.19.076.304l.157.485h-.443l.14-.487a1.48 1.48 0 0 0 .063-.302z" fill="#1C1B1B"/></svg>