<svg height="36" viewBox="0 0 36 36" width="36" xmlns="http://www.w3.org/2000/svg"><g fill="none"><path d="M18 0c2.837 0 5.52.656 7.907 1.825C31.884 4.753 36 10.895 36 18c0 9.942-8.058 18-18 18-9.94 0-18-8.057-18-18C0 8.06 8.06 0 18 0z" fill="#f2f4f7"/><path d="M4.688 16.865 4 17.494l2.305 2.07 2.305-2.07-.688-.629s-1.41 1.353-1.617 1.546c-.208-.193-1.617-1.546-1.617-1.546zm13.835 0c-1.306 0-2.122.206-2.122.206v2.27s.829.205 2.122.205c1.285 0 2.117-.205 2.117-.205v-.77s-.898.176-2.129.176c-.597 0-.992-.073-1.205-.094v-.894c.239-.024.641-.094 1.217-.094 1.198.004 2.117.182 2.117.182v-.776s-.82-.206-2.117-.206zm-9.296.041v2.587h.94v-2.587zm5.251 0v1.611s-.671-.5-1.658-1.01a6.681 6.681 0 0 0-1.623-.595v2.582h.9v-1.382c.215.087.448.186.723.329a10.936 10.936 0 0 1 1.658 1.052h.9v-2.587zm7.167 0v2.587h.941v-2.587z" fill="#00327d"/><path d="M27.56 14.384a.362.362 0 0 0-.358.364v1.07c0 .334-.255.621-.365.735a1.213 1.213 0 0 1-.876.36h-1.293v2.128h2.128v-1.294c.001-.472.244-.767.359-.876.114-.11.401-.365.735-.365h1.07c.2 0 .365-.16.365-.358v-1.4a.367.367 0 0 0-.365-.364zm3.21 2.428c-.699 0-1.257.572-1.257 1.253 0 .124.058.358.058.458a.97.97 0 0 1-.97.97h-1.04a.357.357 0 0 0-.359.36v1.404a.358.358 0 0 0 .359.36h1.399c.2 0 .365-.16.365-.36v-1.04a.97.97 0 0 1 .97-.97c.1 0 .334.052.458.052.68 0 1.247-.558 1.247-1.258a1.229 1.229 0 0 0-.353-.87 1.23 1.23 0 0 0-.876-.359z" fill="#e1001b"/></g></svg>