<svg width="36" height="36" fill="none" xmlns="http://www.w3.org/2000/svg"><path d="M18 0c2.837 0 5.52.656 7.907 1.825C31.884 4.753 36 10.895 36 18c0 9.942-8.058 18-18 18-9.94 0-18-8.057-18-18C0 8.06 8.06 0 18 0z" fill="#F2F4F7"/><path fill-rule="evenodd" clip-rule="evenodd" d="M7.85 14.03c-2.75.381-4.503 3.218-3.62 5.858.165.493.253.607.184.24-.54-2.895 2.774-6.243 5.663-5.72.396.073.116-.087-.43-.244a4.992 4.992 0 0 0-1.797-.133zm8.593 1.168-.166.038c-1.218.279-1.728 1.823-.932 2.824.53.667 1.58.84 2.298.38l.09-.057.107.094c.06.052.125.112.145.134.037.041.914.065.914.025 0-.012-.573-.512-.719-.627-.037-.029-.036-.031.04-.148.562-.87.18-2.134-.768-2.532-.266-.113-.795-.18-1.01-.13zm10.385 1.585.005 1.407.043.105c.146.36.658.503 1.098.306l.11-.05v-.242c0-.133-.006-.242-.013-.241-.008 0-.061.017-.118.037-.205.072-.41.039-.497-.082-.038-.05-.04-.079-.045-.748l-.006-.695h.84l-.254-.254-.254-.254h-.33v-.696h-.584l.005 1.407zM9.234 15.688c-1.732.186-3.384 1.87-3.55 3.618-.148 1.554 1.11 2.337 2.766 1.723.301-.111 1.021-.514 1.018-.57 0-.006-.203-.218-.45-.472l-.45-.461.926-.01.925-.009.098-.142c.843-1.227.885-2.698.095-3.33-.329-.263-.875-.4-1.378-.347zm7.77.094c.691.178 1.086 1.163.701 1.75l-.03.045-.422.005-.423.005.228.196.228.196-.064.034c-.522.28-1.225.049-1.489-.492-.465-.951.295-1.991 1.272-1.74zm5.66.262c-.81.182-1.22 1.158-.825 1.967.366.75 1.451.923 2.079.33l.11-.104-.167-.168-.167-.168-.134.102c-.491.375-1.15.185-1.263-.364l-.013-.06.929-.006.928-.005-.002-.225c-.01-.891-.678-1.48-1.475-1.3zm2.468.02c-.361.097-.584.36-.601.708-.02.404.17.612.72.787.502.16.598.214.623.35.066.348-.548.395-1.07.08l-.072-.043-.166.178-.167.178.04.033c.703.565 1.801.425 1.96-.25.115-.487-.086-.737-.784-.976-.455-.155-.542-.213-.542-.363 0-.254.36-.31.804-.125l.14.058.178-.176c.204-.203.208-.18-.042-.301-.313-.153-.748-.211-1.021-.138zm-6.138.916c0 .986.004 1.037.106 1.253.263.558 1.112.62 1.514.112l.073-.093v.38h.584v-2.56h-.584v.72c0 .789-.012.932-.089 1.073-.22.404-.836.36-.978-.07-.027-.081-.033-.21-.039-.909l-.007-.814h-.58v.908zm4.183-.414c.169.071.33.3.366.518l.01.06h-1.27l.013-.07c.079-.424.501-.668.881-.508zm-10.776-.032c-.005.006-.003.042.006.08.265 1.143-.154 2.7-1.02 3.788-.052.067-.053.065.302.421l.318.32.135-.207c.82-1.25.96-2.87.367-4.248-.066-.155-.083-.179-.108-.154zm2.99 2.976c-.006.007-.012.477-.012 1.045v1.032h.438c.319 0 .47-.008.555-.028 1.102-.26 1.054-1.835-.06-2.033-.156-.028-.896-.04-.92-.016zm2.217.014a.322.322 0 0 0-.004.099l.006.072.099.006.099.006v-.209h-.095c-.064 0-.098.008-.105.026zm10.289.077v.106l.098-.006.1-.006v-.188l-.1-.006-.098-.005v.105zm-1.07.871.006.901.05.077c.136.205.618.236.618.04 0-.07-.003-.076-.042-.064-.423.13-.485.042-.485-.695v-.518h.535l-.074-.075-.073-.076h-.387l-.005-.24-.005-.24-.071-.005-.071-.006.005.901zm4.408-.872c-.015.041.008.067.06.067.045 0 .046.003.046.16 0 .158 0 .16.047.16s.047-.002.047-.16v-.16h.057c.047 0 .056-.007.056-.047 0-.057-.291-.076-.313-.02zm.363-.014a.97.97 0 0 0-.012.207v.194h.047c.043 0 .047-.007.049-.09l.001-.089.039.09c.054.127.099.117.156-.033l.044-.113.001.117c.002.105.006.118.04.118.035 0 .037-.012.037-.208v-.209l-.051.006c-.045.006-.058.024-.101.135l-.05.129-.043-.11c-.06-.151-.107-.194-.157-.144zm-15.253.11c.898.233.867 1.521-.041 1.713a2.647 2.647 0 0 1-.44.027h-.315v-1.769h.344c.244 0 .375.008.452.028zm4.126.355a.723.723 0 0 0-.554.823c.094.583.812.806 1.235.383l.106-.106-.01.188c-.031.552-.558.764-1.078.435l-.09-.057-.054.051c-.07.068-.072.065.064.146.423.251.973.193 1.194-.127.114-.166.119-.205.119-1.003v-.721h-.151v.28l-.092-.092a.725.725 0 0 0-.69-.2zm1.988-.007a.611.611 0 0 0-.31.187l-.069.076v-.244h-.169v1.524h.169v-.485c0-.525.008-.577.1-.712.175-.258.58-.282.768-.045.094.117.111.237.111.766v.476h.153l-.006-.56c-.006-.557-.006-.56-.054-.664-.118-.25-.4-.38-.693-.319zm1.698 0c-.399.08-.684.505-.614.915.152.885 1.386.879 1.532-.007.09-.543-.385-1.013-.918-.908zm4.916.006c-.763.199-.813 1.286-.07 1.536.271.091.547.027.777-.181l.076-.068-.051-.053-.05-.053-.087.072c-.476.396-1.096.04-1.015-.585a.587.587 0 0 1 .982-.374c.096.089.105.09.16.032.058-.062.052-.078-.068-.172a.782.782 0 0 0-.654-.154zm-10.41.006c-.062.014-.28.086-.314.104-.027.014-.029.024-.01.067.035.085.043.086.175.033.332-.133.667-.06.772.166.057.122.065.285.013.269-.464-.146-.989-.005-1.088.293-.176.53.591.866 1.043.458l.078-.07v.211h.173l-.008-.55c-.01-.638-.018-.679-.166-.826-.135-.136-.438-.206-.667-.155zm7.004.016c-.183.065-.283.201-.283.384 0 .216.099.304.472.422.357.112.422.16.422.317 0 .278-.365.36-.732.164l-.14-.075-.053.051c-.067.064-.055.082.12.17.488.246.974.075.974-.342 0-.188-.13-.31-.432-.405-.384-.121-.471-.18-.471-.313 0-.237.328-.329.644-.18l.124.057.049-.05c.064-.068.063-.07-.04-.122-.205-.104-.487-.138-.654-.078zm4.803 0c-.18.066-.283.207-.283.386 0 .213.093.294.487.424.356.118.442.19.413.343-.048.257-.373.319-.728.14l-.145-.074-.053.055c-.06.064-.055.072.097.15.51.265 1.017.08.986-.358-.015-.203-.12-.286-.527-.416-.275-.088-.352-.142-.367-.255-.032-.245.312-.355.637-.203l.125.058.049-.05c.064-.068.063-.07-.041-.122-.204-.104-.487-.137-.65-.077zm-12.85.753v.762h.169v-1.524h-.17v.762zm10.295 0v.762h.17v-1.524h-.17v.762zm-3.375-.593c.252.11.411.416.365.7a.6.6 0 0 1-1.195-.098c-.004-.468.423-.778.83-.602zm-3.659 0c.582.218.445 1.036-.182 1.087-.54.043-.838-.635-.434-.99a.628.628 0 0 1 .616-.097zm-1.628.601.08.022v.131c0 .52-.906.698-.974.192-.042-.317.385-.482.894-.345zm-9.022.7c-1.033.8-2.452 1.19-3.512.967-.261-.055-.275-.02-.033.086a4.416 4.416 0 0 0 3.715-.103c.3-.152.667-.38.668-.416 0-.02-.643-.67-.66-.666-.004 0-.085.06-.178.133z" fill="#497133"/></svg>