<svg height="36" viewBox="0 0 36 36" width="36" xmlns="http://www.w3.org/2000/svg"><mask id="a" fill="#fff"><path d="M.2 0h.6v1H.2z" fill-rule="evenodd"/></mask><mask id="b" fill="#fff"><path d="M0 9.35h28V0H0z" fill-rule="evenodd"/></mask><g fill="none" fill-rule="evenodd"><path d="M18 0c2.837 0 5.52.656 7.907 1.825C31.884 4.753 36 10.895 36 18c0 9.942-8.058 18-18 18-9.94 0-18-8.057-18-18C0 8.06 8.06 0 18 0z" fill="#f2f4f7" fill-rule="nonzero"/><g fill="#00205b"><path d="M5.427 14.2H4.14s-.127.024-.11.096c.015.07.07.094.197.094v3.57l-.055.055s-.135 0-.166.079c-.032.079.071.103.15.103h1.832s1.113-.048 1.113-.782V14.92s-.15-.696-.884-.72zm.474.183c.11.023.095.102.095.102s-.008 2.796 0 3.183c-.056.37-.648.34-.648.34v-3.625zm1.927 2.013c.166 0 .3-.126.3-.284s-.134-.285-.3-.285-.3.127-.3.285.134.284.3.284m4.217 0c.166 0 .3-.126.3-.284s-.134-.285-.3-.285-.3.127-.3.285a.302.302 0 0 0 .3.284M9.96 14.382H9.7v1.721h.48s.12-.008.12-.158v-1.453s-.032-.118-.158-.118c-.12.008-.182.008-.182.008zm.71-.166c.206 0 .578.348.609.624.024.182.032.411.032.568 0 .6-.561.743-.561.743.095.031.308.04.498.158.189.11.236.371.236.371v1.287l.056.048h.189c.032 0 .047-.008.055.07.008.111-.095.104-.095.104H10.52c-.126 0-.221-.222-.221-.222v-1.516c0-.118-.23-.134-.23-.134h-.38v1.642l.033.04h.142c.024 0 .072-.024.072.078.007.12-.048.087-.048.087H8.397c-.04 0-.071-.008-.071-.07 0-.056.07-.096.07-.096H8.5l.079-.078v-3.49l-.055-.048h-.12c-.086 0-.046-.032-.046-.11-.008-.072.07-.056.07-.056zm10.385.166h-.26v1.721h.481s.118-.008.118-.158v-1.453s-.03-.118-.157-.118c-.127.008-.182.008-.182.008zm.71-.166c.206 0 .577.348.61.624.022.182.03.411.03.568 0 .6-.553.743-.553.743.095.031.308.04.498.158.19.11.237.371.237.371v1.287l.055.048h.19c.031 0 .047-.008.055.07.008.111-.095.104-.095.104h-1.16c-.127 0-.222-.222-.222-.222v-1.516c0-.118-.237-.134-.237-.134h-.379v1.642l.032.04h.142c.024 0 .071-.024.071.078.008.12-.047.087-.047.087H19.5c-.039 0-.07-.008-.07-.07 0-.056.07-.096.07-.096h.103l.08-.078v-3.49l-.056-.048h-.119c-.087 0-.047-.032-.055-.11-.008-.072.071-.056.071-.056zm-7.455 2.116h.254l.055.047s-.008 1.682 0 1.746c.008.063.055.071.055.071h1.224c.072 0 .103-.048.103-.07s-.008-.11-.134-.11-.111-.088-.111-.088-.008-3.436 0-3.49 0-.064.103-.064.119-.024.119-.079-.08-.095-.08-.095h-1.24c-.04 0-.047.071-.047.071v1.674l-.055.055h-.569l-.055-.055v-1.674s-.008-.07-.047-.07h-1.24s-.08.04-.08.094.017.08.12.08c.102 0 .094.007.102.062s0 3.491 0 3.491.008.087-.11.087c-.12 0-.135.087-.135.11s.032.071.103.071h1.224s.047-.008.055-.07c.008-.065 0-1.747 0-1.747l.055-.047zm3.452 1.761c.418 0 .355-.22.355-.22v-3.294c0-.299-.245-.316-.339-.316h-.056c-.086 0-.363.017-.363.316v3.293s-.07.221.348.221zm-.047.12c-.695 0-.9-.103-1.145-.333-.237-.229-.277-.67-.293-.86-.015-.182-.015-.308-.015-.956 0-.513.04-.774.126-1.129.11-.466.308-.553.553-.664.237-.11.797-.118.797-.118l.08-.008s.505.016.741.126c.245.111.443.206.553.664.087.355.127.616.127 1.13 0 .647 0 .765-.016.955-.016.181-.047.623-.293.86-.236.23-.426.332-1.12.332zm8.884-.12c.41 0 .355-.22.355-.22v-3.294c0-.299-.252-.316-.34-.316h-.055c-.086 0-.363.017-.363.316v3.293s-.071.221.348.221zm-.055.12c-.695 0-.901-.103-1.145-.333-.237-.229-.277-.67-.293-.86-.015-.182-.015-.308-.015-.956 0-.513.039-.774.126-1.129.11-.466.308-.553.553-.664.237-.11.797-.118.797-.118l.079-.008s.506.016.743.126c.245.111.442.206.552.664.087.355.127.616.127 1.13 0 .647 0 .765-.016.955-.016.181-.055.623-.292.86-.237.23-.427.332-1.13.332z"/><path d="M23.874 14.208h1.366s.055.047.055.087v.418s-.007.095-.086.095c-.08.008-.095-.03-.095-.11-.008-.087 0-.127 0-.127h-.648s-.078-.008-.078.063v3.302s-.008.08.134.08c.079 0 .079.03.079.086 0 .054-.024.086-.087.086h-1.406c-.063 0-.087-.032-.087-.086 0-.056-.007-.087.07-.087.143 0 .136-.079.136-.079v-3.302c0-.07-.08-.063-.08-.063H22.5s.008.048 0 .127c-.008.087-.023.126-.095.11-.078-.008-.087-.095-.087-.095v-.418c0-.04.056-.087.056-.087zm6.136 3.989h.9V14.43s-.024-.055.095-.055c.118 0 .118-.072.118-.103 0-.032-.047-.08-.102-.08h-.514s-.079 0-.079.088c0 .07.024.103.063.103.04 0 .111-.008.12.055.007.087 0 2.298 0 2.298l-.956-2.322s.023-.04.094-.04.111-.04.111-.102-.04-.08-.07-.08h-1.454s-.079.032-.079.088c0 .055 0 .087.063.087s.134.016.134.047v3.546s.024.055-.095.055c-.118 0-.118.07-.118.103 0 .03.047.079.102.079h.514s.08 0 .08-.087c0-.071-.025-.102-.064-.102-.04 0-.11.007-.119-.056-.008-.08 0-2.906 0-2.906z"/><path d="M.508.269c.031 0 .047-.008.047-.04C.555.198.516.19.492.19H.445v.079zM.445.458H.374V.135h.118c.087 0 .134.024.134.094 0 .063-.031.08-.078.087l.078.142H.548L.476.324H.445zM.5.063C.382.063.287.159.287.292c0 .143.095.229.213.229S.713.427.713.292C.713.159.618.063.5.063zm0 .538a.29.29 0 0 1-.3-.3C.2.111.342 0 .5 0s.3.111.3.301a.29.29 0 0 1-.3.3z" mask="url(#a)" transform="translate(31.2 14.255)"/><path d="M.006.276h27.212V0H.006zm3.08 6.547c-.024.104-.048.206-.071.316l-.04.205-.047.198-.284.008-.285.007-.173.008-.174.009.008-.017a8.255 8.255 0 0 1 .916-.883c.063-.048.142-.095.229-.151a3.688 3.688 0 0 0-.08.3m.648 1.524c-.016 0-.023.016-.031.04a.78.78 0 0 1-.12.198c-.054.062-.11.126-.172.18a.893.893 0 0 1-.19.127 1.718 1.718 0 0 1-.024-.292c.008-.245.032-.513.07-.805l.009-.08V7.7l.222-.023.228-.025h.04c.055-.008.079-.023.063-.055-.008-.023-.04-.04-.08-.047a3.43 3.43 0 0 0-.425 0h-.024l.008-.016.047-.284c.024-.143.064-.316.11-.537a.287.287 0 0 0 0-.166.373.373 0 0 0-.126-.15c-.063-.048-.11-.071-.157-.071-.024 0-.048.016-.087.039l-.04.032c-.047.039-.118.087-.197.157a6.773 6.773 0 0 0-.285.246l-.418.363-.474.427c-.008 0-.016.007-.031.023h-.024a5.068 5.068 0 0 1-.355.016h-.253c-.048-.008-.095 0-.15-.024.039.072.07.126.094.166.024.039.048.055.072.079a.262.262 0 0 0 .095.055c.03.016.07.016.102.016.016 0 .04 0 .087-.008l.079-.008h.016l-.008.008a1.829 1.829 0 0 1-.182.18 1.072 1.072 0 0 1-.103.096c-.04.04-.102.095-.165.166a1.848 1.848 0 0 1-.135.127c-.04.039-.071.063-.087.086-.418.396-.568.309-.671.467-.031.055.032.165.11.228a.503.503 0 0 0 .277.087.286.286 0 0 0 .15-.048c.04-.031.103-.085.174-.165.087-.094.616-.718.418-.49-.055.072.063-.054.324-.394l.166-.205.166-.205.3-.033.3-.031.213-.023.214-.025-.04.26-.04.262c-.04.253-.047.434-.023.56a.332.332 0 0 0 .03.11.697.697 0 0 0 .112.167c.055.063.11.11.166.15.063.039.11.055.15.055s.07-.024.11-.055c.198-.222.34-.474.427-.767.008-.04.016-.062.008-.078 0-.04-.016-.048-.04-.048m3.396-.6a.723.723 0 0 1 .269-.086c.023 0 .039.008.047.024.008.023 0 .07-.04.133-.04.064-.102.19-.26.245-.142.046-.34.023-.395-.024.079-.07.26-.23.379-.292m1.974.214a.81.81 0 0 1 .119-.19l.095-.12c.023-.038.03-.07.023-.101a.253.253 0 0 0-.08-.103.24.24 0 0 0-.11-.04.258.258 0 0 0-.134.048 2.379 2.379 0 0 0-.244.206l-.253.22A1.47 1.47 0 0 0 8.393 8l-.182.182c.047-.12.103-.213.158-.285l.157-.22a.114.114 0 0 0 .017-.12.208.208 0 0 0-.08-.102.189.189 0 0 0-.11-.04c-.024 0-.04 0-.047.009a.252.252 0 0 0-.048.063l-.031.063a1.898 1.898 0 0 1-.451.458c-.07.055-.395.308-.56.379-.213.087-.324.087-.45.07a.254.254 0 0 1-.135-.078c-.031-.04-.04-.07-.015-.134.023-.063.063-.15.095-.143.094.032.18.08.347.086a.434.434 0 0 0 .292-.07.671.671 0 0 0 .229-.198c.07-.103.11-.19.087-.284a.216.216 0 0 0-.056-.103c-.04-.03-.078-.063-.126-.079-.055-.016-.11-.016-.142-.016a.595.595 0 0 0-.268.064 1.575 1.575 0 0 0-.34.197 1.031 1.031 0 0 0-.284.308c-.024 0-.055.009-.087.017-.19.032-.347.095-.482.19.07-.19.166-.372.3-.563.024-.03.024-.062.008-.094a.239.239 0 0 0-.08-.103.191.191 0 0 0-.11-.039c-.023 0-.055.016-.094.04a5.176 5.176 0 0 0-.3.244l-.261.221a4.257 4.257 0 0 0-.26.261l.063-.15c.016-.04.03-.07.047-.095s.032-.055.048-.079c.015-.032.063-.102.126-.206.032-.047.039-.087.032-.118a.265.265 0 0 0-.071-.087.22.22 0 0 0-.111-.039.237.237 0 0 0-.12.047 5.606 5.606 0 0 0-.425.348 5.12 5.12 0 0 0-.42.394c.064-.134.12-.228.175-.323l.04-.079c.039-.087.03-.103.055-.182.008-.015.023-.095.008-.158a.214.214 0 0 0-.055-.095c-.016-.008-.032-.023-.063-.03-.024-.009-.08-.024-.087.015-.01.023.165.023.03.22l-.188.238c-.103.134-.19.284-.27.458-.062.142-.078.245-.054.3a.3.3 0 0 0 .087.102.228.228 0 0 0 .118.048c.024 0 .039 0 .048-.008a.296.296 0 0 0 .039-.063c.087-.174.19-.33.308-.474.119-.134.245-.237.363-.292.032-.016.048-.016.055-.016.009 0 .017 0 .024.008 0 .008 0 .016-.007.031l-.017.024-.015.024c-.12.221-.182.403-.197.536 0 .033 0 .056.007.072a.316.316 0 0 0 .103.11c.047.032.079.048.119.048.023 0 .047-.016.062-.048a1.5 1.5 0 0 1 .293-.474c.142-.157.268-.268.387-.315.039-.016.055-.023.07-.023s.024.007.024.015 0 .016-.007.024l-.016.023a1.833 1.833 0 0 0-.111.237c-.04.103-.071.182-.08.237a.287.287 0 0 0 0 .166.27.27 0 0 0 .096.102.25.25 0 0 0 .134.048c.016 0 .032 0 .04-.008a.19.19 0 0 0 .024-.04c0-.008.007-.015.015-.03s.016-.032.024-.057a.873.873 0 0 1 .197-.3.737.737 0 0 1 .229-.133.69.69 0 0 1 .127-.04c-.048.12-.064.237-.024.316a.42.42 0 0 0 .213.23c.095.04.277.04.427.006.22-.046.347-.157.442-.236.102-.079.3-.26.37-.324.064-.047.15-.15.246-.22a3.654 3.654 0 0 0-.277.56c-.015.047-.023.087-.008.118a.358.358 0 0 0 .095.102c.048.04.095.056.127.056.03 0 .063-.03.102-.102a1.92 1.92 0 0 1 .395-.545 1.31 1.31 0 0 1 .379-.238c-.04.072-.047.12-.04.143.017.04.056.071.11.102a.56.56 0 0 0 .206.064c-.015-.017-.023-.04-.031-.056-.032-.023-.032-.063-.016-.11m14.293-.26a.64.64 0 0 1-.158.213 1.69 1.69 0 0 1-.521.355.647.647 0 0 1-.197.064c-.024 0-.04-.008-.04-.024 0-.007 0-.024.008-.047a.883.883 0 0 1 .213-.27 1.43 1.43 0 0 1 .514-.3.53.53 0 0 1 .142-.03c.023 0 .03.008.039.016.008.007.008.015 0 .023m-5.085.182h-.024c-.142-.008-.284-.016-.442-.016-.174 0-.348.008-.513.016a5.325 5.325 0 0 0-.916.126l-.024.007-.024.009.008-.016.055-.095.07-.11.072-.111.024-.008.04-.015c.078-.025.18-.056.323-.08.143-.032.277-.047.41-.063.135-.015.246-.023.348-.023.166 0 .3.015.41.054.112.04.175.087.199.15a.236.236 0 0 1-.016.175m-.98.663c-.213.079-.457.15-.718.205s-.474.087-.624.087c-.23 0-.355-.047-.387-.134-.016-.048-.008-.103.04-.158a.525.525 0 0 1 .205-.15v.016a.343.343 0 0 0 .016.22.262.262 0 0 0 .11.135l.024-.04.22-.41.009-.015.008-.017a5.391 5.391 0 0 1 1.216-.26c.229-.024.466-.04.695-.04h.11c-.19.22-.497.403-.923.56m7.588-.828c.119-.055.205-.087.277-.087.023 0 .039.008.047.023.008.025 0 .07-.04.135-.04.063-.102.189-.26.245-.142.047-.34.023-.395-.024a1.96 1.96 0 0 1 .37-.292m2.212-.19a.229.229 0 0 0-.08-.102.226.226 0 0 0-.11-.04.25.25 0 0 0-.133.047 2.255 2.255 0 0 0-.245.206l-.253.22a1.592 1.592 0 0 0-.126.119l-.182.182c.047-.118.103-.213.158-.284l.158-.222c.032-.04.032-.078.016-.118a.261.261 0 0 0-.08-.103.194.194 0 0 0-.11-.04c-.023 0-.04 0-.047.009s-.024.024-.048.063l-.031.063a1.869 1.869 0 0 1-.45.458c-.071.056-.395.308-.561.379-.213.087-.323.087-.45.07a.245.245 0 0 1-.134-.078c-.032-.04-.04-.071-.016-.134s.063-.15.095-.142c.095.03.182.079.347.087a.437.437 0 0 0 .293-.071.69.69 0 0 0 .229-.198c.07-.102.11-.19.087-.284a.227.227 0 0 0-.056-.102c-.04-.032-.08-.064-.127-.08-.055-.015-.11-.015-.142-.015a.728.728 0 0 0-.268.063 1.561 1.561 0 0 0-.34.198 1.05 1.05 0 0 0-.276.292c-.023 0-.055.007-.095.015-.071.008-.126.024-.166.03a1.763 1.763 0 0 0-.386.16c.023-.08.055-.142.079-.198.03-.055.07-.126.126-.205.142-.214.466-.482.608-.632l.308-.347c.039-.04.087-.103.063-.142-.032-.055-.08-.063-.12-.063-.03 0-.093.047-.133.087-.15.126-.331.292-.331.292-.127.126-.498.458-.577.568l-.008.008a.251.251 0 0 0-.11-.111.38.38 0 0 0-.166-.04.519.519 0 0 0-.142.025 1.71 1.71 0 0 0-.364.18 2.107 2.107 0 0 0-.268.19c-.158.072-.316.15-.332.167-.11.055-.316.157-.45.22.04-.125.11-.26.206-.402.039-.063.087-.134.142-.197.055-.071.102-.135.158-.198.047-.063.094-.111.134-.15l.213-.221c.04-.04.095-.087.079-.126-.008-.016-.016-.024-.024-.04-.031-.032-.055-.032-.087-.032-.031 0-.063.024-.102.056-.055.047-.253.19-.72.727-.03.039-.062.079-.086.118-.102.079-.244.189-.41.292-.213.142-.403.276-.395.26.03-.118.15-.34.205-.434l.016-.023c.063-.087.095-.134.103-.151.023-.031.039-.055.039-.07 0-.017 0-.032-.008-.064a.643.643 0 0 0-.063-.094c-.032-.024-.063-.04-.087-.04-.023 0-.055.016-.08.047l-.157.246c-.102.07-.268.197-.434.315-.213.15-.268.197-.395.26 0 0-.055.049.008-.071.008-.015.103-.212.174-.315.008-.016.023-.032.032-.048a.224.224 0 0 1 .039-.055c.016-.024.024-.04.03-.047.049-.08.08-.12.08-.12a.097.097 0 0 0 0-.062c-.007-.031-.04-.063-.086-.095a.235.235 0 0 0-.127-.047c-.031 0-.055.016-.08.055-.07.103-.117.182-.157.237-.04.055-.087.119-.142.182s-.095.11-.126.142c-.032.032-.08.079-.15.142-.04.03-.087.07-.142.118a.543.543 0 0 1-.142.095c-.016.008-.032.016-.048.016s-.031-.008-.031-.024c-.008-.023.007-.087.047-.181a2.05 2.05 0 0 1 .182-.308c.039-.056.07-.11.102-.158.032-.047.047-.08.055-.095.009-.016.009-.031.009-.04 0-.008 0-.023-.01-.04a.185.185 0 0 0-.077-.094.159.159 0 0 0-.103-.04c-.032 0-.063.017-.095.056l-.19.332c-.063.087-.11.174-.15.26a.984.984 0 0 0-.268-.086c0-.032.063-.182-.103-.356-.268-.276-.742-.23-.742-.23.86-.394.308-.867-.213-.883-.971-.023-1.571.71-1.571.71 1.579-1.09 1.8-.323 1.8-.323.047.126-.063.332-.324.434-.118.047-.158.055-.268.087-.063.016-.206.047-.237.055l-.284.048h-.016l.007-.008a.29.29 0 0 0 .048-.071 2.284 2.284 0 0 1 .205-.277c.032-.04.04-.08.032-.102-.008-.032-.056-.072-.142-.111a.188.188 0 0 0-.095-.032c-.032 0-.063.025-.103.064-.11.133-.205.26-.292.394-.08.127-.158.253-.23.379a3.754 3.754 0 0 0-.18.356l-.008.015a1.71 1.71 0 0 0-.467.174c-.126.079-.173.174-.126.284.032.079.087.166.166.253s.166.158.253.214a.743.743 0 0 0 .347.102c.324 0 .719-.071 1.185-.221.229-.071.419-.142.576-.213.15-.071.292-.15.41-.245.088-.063.159-.134.23-.213s.11-.143.119-.19h.015c.095.016.174.032.22.047h.009c-.015.033-.024.056-.04.079-.04.095-.062.159-.071.198a.156.156 0 0 0 .009.103.463.463 0 0 0 .118.142.251.251 0 0 0 .158.07.186.186 0 0 0 .11-.047 3.09 3.09 0 0 0 .379-.371l.182-.197c.008-.008.024-.024.056-.047a1.906 1.906 0 0 0-.127.323.365.365 0 0 0-.024.19s.055.07.11.11c.056.04.096.056.127.056a.061.061 0 0 0 .04-.016c.007-.008.047-.032.07-.071.08-.103.143-.174.167-.205.063-.08.086-.111.15-.166.165-.174.3-.261.418-.348-.063.11-.102.19-.134.253a1.26 1.26 0 0 0-.087.276.286.286 0 0 0 0 .119c.016.032.047.063.11.102.056.032.096.056.127.056a.056.056 0 0 0 .039-.016c.008-.008.04-.032.072-.071.078-.103.142-.174.165-.205.064-.08.087-.111.15-.174a2.12 2.12 0 0 1 .403-.332c-.016.04-.04.079-.055.11a1.677 1.677 0 0 0-.15.404.196.196 0 0 0 0 .118.23.23 0 0 0 .11.102c.056.032.095.056.127.056.015 0 .03-.008.039-.016s.032-.024.055-.063c.08-.103.127-.174.15-.205.064-.072.15-.151.214-.205a2.88 2.88 0 0 1 .213-.143c-.102.134-.134.253-.095.356a.524.524 0 0 0 .135.189c.063.056.126.087.173.087a.176.176 0 0 0 .087-.024c.032-.016.079-.047.142-.094.198-.143.395-.34.608-.585l.016-.016-.008.016a1.402 1.402 0 0 0-.158.427.282.282 0 0 0 0 .118.233.233 0 0 0 .11.102c.056.032.096.056.127.056a.056.056 0 0 0 .039-.016.453.453 0 0 0 .048-.071c.07-.126.126-.205.166-.261a.897.897 0 0 1 .158-.141c.095-.064.213-.112.355-.143-.055.126-.071.245-.031.332.03.07.078.165.213.229.094.04.276.04.426.007.22-.046.347-.157.442-.236.103-.08.3-.261.37-.324.065-.047.152-.15.246-.221a3.78 3.78 0 0 0-.276.56c-.016.048-.024.088-.008.119s.048.063.095.102a.21.21 0 0 0 .126.056c.032 0 .063-.032.103-.102a1.9 1.9 0 0 1 .395-.545c.103-.095.229-.174.379-.245-.04.07-.047.118-.04.142.016.039.056.07.11.103a.578.578 0 0 0 .206.062c-.016-.015-.024-.04-.031-.055a.171.171 0 0 1 0-.126.818.818 0 0 1 .118-.19l.095-.118c.023-.031.03-.064.023-.095m-14.696.221a.773.773 0 0 1-.158.214 1.59 1.59 0 0 1-.52.348.74.74 0 0 1-.198.062c-.024 0-.04-.009-.04-.024-.008-.023.016-.063.063-.133.032-.049.08-.096.134-.152.055-.054.12-.101.182-.15.063-.047.126-.079.19-.11a1.1 1.1 0 0 1 .173-.079.42.42 0 0 1 .142-.032c.024 0 .032.008.04.016-.008.016-.008.023-.008.04m.782.236c-.032 0-.095.008-.174.024a1.52 1.52 0 0 0-.45.142.88.88 0 0 1 .08-.158l.086-.149c.015-.033.023-.056.008-.079a.11.11 0 0 0-.063-.056c.04-.056.047-.103.031-.143a.19.19 0 0 0-.095-.11.287.287 0 0 0-.158-.047.962.962 0 0 0-.37.103c-.159.063-.3.141-.427.236a1.87 1.87 0 0 0-.26.214c-.167.174-.348.323-.57.387-.094.031-.363.11-.418-.016-.023-.048.008-.11.055-.213.166-.363.537-.467.57-.482.007 0 .031-.008.04 0 .014.015-.088.134-.065.181a.729.729 0 0 1 .213-.197c.048-.03.072-.063.056-.095a.199.199 0 0 0-.079-.079.238.238 0 0 0-.126-.03.512.512 0 0 0-.127.022c-.079.024-.15.056-.213.087a2.383 2.383 0 0 0-.198.118c-.039.025-.07.056-.102.08-.087.055-.276.158-.482.308-.213.15-.269.197-.395.26.056-.134.15-.339.205-.434l.016-.024c.064-.087.095-.134.103-.149.024-.033.04-.056.04-.072 0-.015 0-.03-.009-.063-.015-.039-.039-.063-.07-.095-.032-.023-.064-.039-.087-.039-.024 0-.055.016-.079.047l-.206.332-.008.008a7.107 7.107 0 0 0-.197.363 1.26 1.26 0 0 0-.087.277.28.28 0 0 0 0 .117c.016.034.047.065.111.104.055.031.095.055.126.055a.056.056 0 0 0 .04-.016c.007-.008.04-.03.071-.07.08-.104.142-.175.166-.206.063-.079.086-.11.15-.166.15-.15.268-.245.378-.316a.721.721 0 0 0-.079.142c-.039.102-.047.197-.015.276s.087.197.213.261a.54.54 0 0 0 .371.04c.142-.024.292-.087.474-.269 0 .024.008.04.016.055.023.064.071.127.142.182s.126.087.182.087c.04 0 .102-.032.181-.095.174-.134.355-.315.561-.537l.047-.047-.024.055a5.516 5.516 0 0 0-.118.308.295.295 0 0 0-.016.157c.016.041.064.08.134.12.048.023.08.04.111.04.024 0 .04-.009.048-.017a.14.14 0 0 0 .023-.048.863.863 0 0 1 .111-.244.689.689 0 0 1 .355-.276c.08-.033.174-.048.268-.064.056-.008.08-.023.072-.047-.032-.024-.056-.04-.087-.04m.569-.843c.024-.04.04-.072.04-.11a.098.098 0 0 0-.033-.08.166.166 0 0 0-.086-.04.357.357 0 0 0-.19.071c-.102.071-.142.213-.26.355-.102.118-.221.174-.221.205 0 .024.016.04.04.04.038 0 .117-.032.243-.102a2.037 2.037 0 0 0 .466-.34m.727.435a.124.124 0 0 0-.079-.024c-.07 0-.18.024-.332.063-.11.03-.213.07-.323.118a1.014 1.014 0 0 0-.237.15c-.04.04-.055.08-.04.119.016.048.055.079.12.102.038.017.141.025.291.025.111 0 .19.008.253.015-.103.039-.182.063-.229.087a7.615 7.615 0 0 0-.443.198.69.69 0 0 0-.149.094c-.024.024-.024.047-.017.072.008.023.032.054.08.079a.148.148 0 0 0 .08.03c.014 0 .03-.007.046-.023.071-.055.213-.126.411-.237.173-.087.268-.134.426-.197 0 0 .126-.04.04-.126a.253.253 0 0 0-.087-.048 1.94 1.94 0 0 0-.206-.023c-.047 0-.094-.008-.15-.016a.6.6 0 0 1-.11-.024c-.016-.008-.032-.016-.04-.032-.008-.015 0-.023.024-.04a.73.73 0 0 1 .355-.15l.237-.047c.095-.016.111-.04.126-.055.008-.015.016-.023 0-.055 0-.016-.023-.04-.047-.055" mask="url(#b)" transform="translate(4 13)"/><path d="M21.39 7.186a.13.13 0 0 0 .087.032.125.125 0 0 0 .063-.024 1.83 1.83 0 0 0 .102-.078c.04-.033.063-.056.087-.072.04-.032.056-.063.04-.087a.207.207 0 0 0-.079-.086c-.04-.024-.07-.04-.11-.04-.04 0-.095.04-.167.126-.063.08-.086.134-.07.174 0 .016.023.039.047.055m-11.308.04c.032.016.056.031.079.031.016 0 .04-.008.064-.023.023-.016.055-.04.102-.079.04-.032.063-.056.087-.072.04-.031.055-.062.04-.086a.212.212 0 0 0-.08-.087c-.04-.024-.071-.039-.11-.039s-.095.039-.166.126c-.063.079-.087.134-.071.173a.174.174 0 0 0 .055.056" mask="url(#b)" transform="translate(4 13)"/></g></g></svg>