<svg height="36" viewBox="0 0 36 36" width="36" xmlns="http://www.w3.org/2000/svg"><mask id="a" fill="#fff"><path d="M0 0h7.29v4.193H0z" fill-rule="evenodd"/></mask><mask id="b" fill="#fff"><path d="M0 0h19.75v1.476H0z" fill-rule="evenodd"/></mask><g fill="none" fill-rule="evenodd"><path d="M18 0c2.837 0 5.52.656 7.907 1.825C31.884 4.753 36 10.895 36 18c0 9.942-8.058 18-18 18-9.94 0-18-8.057-18-18C0 8.06 8.06 0 18 0z" fill="#f2f4f7" fill-rule="nonzero"/><path d="M7.258.832C7.005-.012 5.328-.254 3.51.292a5.733 5.733 0 0 0-.253.082C4.882-.003 6.293.245 6.517.99c.245.816-1.029 1.92-2.845 2.465l-.124.036.846-2.924H4.39h.002l-.22.015a7.016 7.016 0 0 0-1.31.264C1.046 1.392-.222 2.517.032 3.362c.253.843 1.932 1.085 3.748.539.086-.026.17-.053.254-.081-1.625.376-3.036.128-3.26-.616C.53 2.387 1.802 1.283 3.62.738l.115-.034L2.9 3.626l.222-.015a7.057 7.057 0 0 0 1.307-.263c1.817-.546 3.084-1.673 2.83-2.516" fill="#005295" mask="url(#a)" transform="translate(4 16)"/><path d="M10.338.25h.011c.01.089.018.206.029.286l.046.311h-.512l.233-.311c.063-.084.133-.197.193-.286zm-6.075 0h.011c.01.089.021.206.031.286l.043.311h-.511l.236-.311c.063-.084.13-.197.19-.286zM1.112.247c.413 0 .615.126.615.357a.532.532 0 0 1-.246.451c-.155.11-.398.168-.673.168-.088 0-.161-.005-.221-.011l.3-.955a1.84 1.84 0 0 1 .225-.01zM18.856.243c.204 0 .364.051.364.168 0 .143-.2.243-.475.243h-.208l.122-.401c.042-.006.101-.01.197-.01zM15.634.007l-.451 1.458h1.456l.082-.267h-.948l.111-.354h.84l.086-.261h-.851l.1-.312h.894l.086-.264zm-3.122 0-.454 1.458h.508l.189-.614h.862l-.186.614h.508l.45-1.458h-.511l-.175.565h-.862l.179-.565zm-2.41 0L8.94 1.462h.544l.278-.375h.683l.05.375h.533L10.753.007zm-3.665 0-.451 1.458h.472l.157-.51c.071-.232.126-.437.151-.58h.01c.064.177.127.309.233.508l.332.582h.526l.45-1.458h-.475l-.161.529c-.063.214-.1.377-.111.526h-.01a4.01 4.01 0 0 0-.215-.501L7.03.007zm-2.411 0L2.864 1.462h.544l.279-.375h.683l.05.375h.533L4.677.007zM18.859 0c-.236 0-.474.012-.633.036l-.443 1.429h.5l.176-.575h.153c.201 0 .301.052.326.229.021.179.046.308.068.346h.522c-.042-.06-.062-.253-.093-.418-.021-.131-.084-.226-.225-.264V.775c.306-.06.54-.194.54-.411 0-.136-.11-.226-.265-.282-.166-.065-.4-.082-.626-.082zM1.084 0C.861 0 .648.01.443.032L0 1.448c.12.012.369.028.654.028.515 0 .863-.06 1.138-.196.292-.145.486-.402.486-.687 0-.205-.117-.349-.318-.447C1.766.045 1.468 0 1.084 0z" fill="#4a4a4c" mask="url(#b)" transform="translate(12.25 17.734)"/></g></svg>