<svg width="36" height="36" fill="none" xmlns="http://www.w3.org/2000/svg"><path d="M18 0c2.837 0 5.52.656 7.907 1.825C31.884 4.753 36 10.895 36 18c0 9.942-8.058 18-18 18-9.94 0-18-8.057-18-18C0 8.06 8.06 0 18 0z" fill="#F2F4F7"/><path d="M18.043 11.25a14.31 14.31 0 0 0-5.56 1.25c-.546.25-1.04.5-1.483.75v2.367a13.852 13.852 0 0 1 1.588-1.527c1.25-1.022 3.207-2.25 5.437-2.25a6.919 6.919 0 0 1 2.943.72 11.643 11.643 0 0 1 2.602 1.725c.509.437.987.909 1.43 1.412V13.22c-.48-.298-.982-.56-1.5-.785a13.913 13.913 0 0 0-5.457-1.185z" fill="#003A65"/><path d="M23.33 14.56a11.272 11.272 0 0 0-2.52-1.67 6.554 6.554 0 0 0-2.785-.685c-1.17 0-3.022.375-5.202 2.158A13.48 13.48 0 0 0 11 16.178v6.895h14v-6.805a14.42 14.42 0 0 0-1.67-1.708z" fill="#003A65"/><path d="M12.335 12.165a14.678 14.678 0 0 1 5.707-1.29c1.93.024 3.835.44 5.6 1.22.467.204.92.436 1.358.695V8H11v4.818c.405-.22.852-.44 1.335-.653z" fill="#003A65"/><path d="M20.133 16.275c-1.313-1.29-1.923-1.43-2.123-1.43-.795 0-2.415 1.535-3.375 2.75a7.86 7.86 0 0 1 .5-.295 6.13 6.13 0 0 1 2.895-.7 6.028 6.028 0 0 1 3.258.94 16.88 16.88 0 0 0-1.155-1.265z" fill="#009B97"/><path d="M22.795 21.525a7.173 7.173 0 0 0-4.77-1.72 7.138 7.138 0 0 0-4.775 1.71c-.52.45-.967.979-1.322 1.567h12.13a5.97 5.97 0 0 0-1.263-1.557z" fill="#003A65"/><path d="M18.025 16.968a5.765 5.765 0 0 0-2.722.657 6.458 6.458 0 0 0-2 1.67A9.723 9.723 0 0 0 11.5 23.08a6.871 6.871 0 0 1 1.5-1.845 7.5 7.5 0 0 1 5-1.797 7.542 7.542 0 0 1 5.04 1.812 6.281 6.281 0 0 1 1.443 1.837h.017a8.528 8.528 0 0 0-1.71-3.7c-.887-1.105-2.435-2.42-4.765-2.42z" fill="#009B97"/><path d="M13.33 24.442a2.25 2.25 0 0 1 .717.113 1.533 1.533 0 0 1 .953.915 2.448 2.448 0 0 1 0 1.632 1.532 1.532 0 0 1-.965.915 2.25 2.25 0 0 1-.717.113H11V28c.107 0 .16-.042.16-.125v-3.18c0-.083-.053-.125-.16-.125v-.125l2.33-.003zm-.283 3.085c.194.003.386-.015.575-.055a.9.9 0 0 0 .408-.2.875.875 0 0 0 .25-.382c.107-.395.107-.81 0-1.205a.875.875 0 0 0-.25-.383.903.903 0 0 0-.407-.2 2.607 2.607 0 0 0-.575-.055h-1.085v2.483l1.085-.003zm6.353-2.832c0-.083-.052-.125-.155-.125v-.125h1.08v.125a.135.135 0 0 0-.087.033.114.114 0 0 0-.038.095v3.18a.115.115 0 0 0 .038.095c.024.02.055.032.087.032v.125H19.25V28c.103 0 .155-.041.155-.125V26.56h-2.25v1.318a.115.115 0 0 0 .037.095c.025.02.056.032.088.032v.125h-1.07V28c.088 0 .133-.041.133-.125v-3.18c0-.083-.045-.125-.133-.125v-.125h1.057v.125a.135.135 0 0 0-.087.033.114.114 0 0 0-.038.095v1.192h2.25l.008-1.195zM23.69 28v.125h-1.08V28a.135.135 0 0 0 .088-.033.115.115 0 0 0 .037-.095v-2.785H21.58a.25.25 0 0 0-.122.035.142.142 0 0 0-.06.133h-.125v-.98h.125a.14.14 0 0 0 .06.132.25.25 0 0 0 .122.035h3.113a.25.25 0 0 0 .122-.035.143.143 0 0 0 .06-.132H25v.975h-.125a.142.142 0 0 0-.06-.133.251.251 0 0 0-.123-.035h-1.157v2.795c0 .082.052.123.155.123z" fill="#003A65"/><path d="M13.25 21.5a7.137 7.137 0 0 1 4.775-1.703 7.174 7.174 0 0 1 4.77 1.72c.52.454.956.995 1.29 1.598h.415a6.274 6.274 0 0 0-1.462-1.865 7.543 7.543 0 0 0-5.013-1.823 7.5 7.5 0 0 0-5 1.798 6.866 6.866 0 0 0-1.527 1.885h.412a6.521 6.521 0 0 1 1.34-1.61z" fill="#fff"/><path d="M11.488 23.112c.32-1.393.943-2.7 1.825-3.825a6.46 6.46 0 0 1 2-1.67 5.766 5.766 0 0 1 2.712-.66c2.328 0 3.875 1.315 4.763 2.42a8.514 8.514 0 0 1 1.712 3.735h.372a8.887 8.887 0 0 0-1.797-3.965 7.812 7.812 0 0 0-.767-.827 13.38 13.38 0 0 0-1.92-2.32c-.713-.7-1.706-1.535-2.383-1.535-.4 0-1.147.267-2.445 1.537a11.37 11.37 0 0 0-1.89 2.343c-.23.223-.445.46-.645.71a10.134 10.134 0 0 0-1.918 4.057h.38zM18 14.835c.2 0 .81.14 2.122 1.43.406.402.79.824 1.153 1.265a6.028 6.028 0 0 0-3.25-.94 6.131 6.131 0 0 0-2.895.7c-.167.09-.333.188-.5.295.962-1.215 2.582-2.75 3.37-2.75z" fill="#fff"/></svg>