<svg width="36" height="36" fill="none" xmlns="http://www.w3.org/2000/svg"><path d="M18 0c2.837 0 5.52.656 7.907 1.825C31.884 4.753 36 10.895 36 18c0 9.942-8.058 18-18 18-9.94 0-18-8.057-18-18C0 8.06 8.06 0 18 0z" fill="#F2F4F7"/><g fill="#005A9C"><path d="M27.027 19.112c.421.191.842.268 1.511.268.517 0 .995-.096.995-.517 0-.975-2.87-.363-2.87-2.256 0-1.263 1.435-1.607 2.64-1.607.574 0 1.263.096 1.683.21l-.42.995a3.236 3.236 0 0 0-1.129-.172c-.402 0-1.09.038-1.09.478 0 .841 2.869.287 2.869 2.161 0 1.358-1.32 1.721-2.678 1.721a7.28 7.28 0 0 1-1.817-.23m-2.581-.821v-1.186h2.505v-.995h-2.506v-1.09h2.506v-.975h-4.131v1.683c-.402-1.3-1.703-1.683-3.462-1.683h-2.219v.956l1.626 1.664v-1.588h.631c1.186 0 1.894.536 1.894 1.588 0 1.033-.67 1.587-1.894 1.587h-.63v-1.587l-1.608 1.645v.975h2.2c1.721 0 3.06-.478 3.462-1.76v1.76h4.13v-.994"/><path fill-rule="evenodd" clip-rule="evenodd" d="M12.836 17.869c.038.803.44 1.51 1.377 1.51.918 0 1.32-.707 1.377-1.51h1.664c-.076 1.568-1.128 2.543-3.04 2.543-1.588 0-2.64-.726-2.908-1.874v1.779H9.68v-1.779c-.401 1.3-1.74 1.779-3.461 1.779H4v-2.448h1.626v1.415h.63c1.148 0 1.818-.478 1.875-1.415m4.705-.325c.038-.823.44-1.492 1.377-1.492.918 0 1.32.67 1.377 1.492h1.664c-.076-1.588-1.11-2.544-3.04-2.544-1.607 0-2.583.67-2.927 1.779v-1.683H9.66v1.702c-.382-1.3-1.702-1.702-3.462-1.702H4v2.448h1.626v-1.416h.63c1.11 0 1.799.479 1.875 1.416"/><path d="M32 20.183c0 .21-.172.364-.363.364-.21 0-.383-.153-.383-.364 0-.21.172-.363.383-.363.21 0 .363.153.363.363zm-.65 0c0 .153.114.287.287.287.153 0 .267-.134.267-.287a.282.282 0 0 0-.287-.287.278.278 0 0 0-.267.287zm.23.172h-.077v-.363c.038 0 .076-.02.134-.02.076 0 .095.02.114.04.02.018.039.037.039.076a.082.082 0 0 1-.077.076c.038.02.057.038.057.096.02.057.02.076.02.095h-.058c-.019-.019-.019-.038-.019-.095 0-.039-.038-.058-.076-.058h-.039v.153h-.019zm0-.19h.038c.038 0 .076-.02.076-.058 0-.038-.02-.058-.076-.058h-.039v.115z"/></g></svg>