<svg width="36" height="36" viewBox="0 0 36 36" fill="none" xmlns="http://www.w3.org/2000/svg"><defs><linearGradient id="a" x1="6.664" y1="17.476" x2="29.346" y2="17.476" gradientUnits="userSpaceOnUse"><stop stop-color="#4047FF"/><stop offset="1" stop-color="#04006C"/></linearGradient></defs><path d="M18 0c2.837 0 5.52.656 7.907 1.825C31.884 4.753 36 10.895 36 18c0 9.942-8.058 18-18 18-9.94 0-18-8.057-18-18C0 8.06 8.06 0 18 0z" fill="#F2F4F7"/><path d="M29.354 13.187c-.164 1.172-.72 5.04-3.558 8.824-2.88 3.908-6.644 5.8-7.796 6.377-1.131-.576-4.916-2.469-7.796-6.377-2.818-3.764-3.373-7.631-3.538-8.824l1.707-.926v-1.275l1.708-.926V8.785C12.426 7.654 15.017 6.934 18 6.522c2.983.391 5.574 1.132 7.92 2.263v1.275l1.707.926v1.275l1.727.926z" fill="url(#a)"/><path d="M29.17 11.356v-1.275l-1.708-.926V7.818l-.864-.411c-2.489-1.173-5.225-1.954-8.392-2.386L18 5l-.206.02c-3.147.433-5.903 1.214-8.372 2.407l-.863.412v1.337l-1.708.905v1.275L5 12.343l.144 1.05c.494 3.537 1.79 6.746 3.847 9.523 2.077 2.818 4.875 5.122 8.33 6.85l.679.35.679-.35c3.456-1.728 6.253-4.032 8.33-6.85 2.058-2.777 3.353-5.986 3.847-9.524L31 12.343l-1.83-.987zm.184 1.83c-.164 1.173-.72 5.04-3.558 8.825-2.88 3.908-6.644 5.8-7.796 6.377-1.131-.576-4.916-2.469-7.796-6.377-2.818-3.764-3.373-7.631-3.538-8.824l1.707-.926v-1.275l1.708-.926V8.785C12.426 7.653 15.017 6.934 18 6.522c2.983.391 5.574 1.131 7.92 2.263v1.275l1.707.926v1.275l1.727.926z" fill="#FFC200"/><path d="m15.47 9.608.082 10.387-.082.041c-1.09-2.777-1.748-6.232-1.954-9.708-.535.246-1.111.534-1.707.905.246 3.147.781 5.903 1.748 8.536l-.555.309c-1.46-2.037-2.407-4.505-3.045-7.447-.452.412-.884.864-1.337 1.358.844 3.517 2.201 6.191 4.155 8.351l1.502-.905c.74 1.543 1.769 3.065 2.92 4.279V9.299c-.575.062-1.151.165-1.727.309zm9.709 5.368c.617-.679.74-1.172.74-1.769 0-.843-.7-1.604-1.728-2.262-.617-.391-1.563-.864-2.941-1.255a10.838 10.838 0 0 0-2.468-.37v16.435c3.455-1.77 7.549-6.644 7.57-9.133.04-.761-.35-1.255-1.173-1.646zm-4.67-3.702c.844 0 3.6.864 3.6 1.974 0 .391-.35.967-1.44 1.543l-2.16 1.152v-4.67zm2.14 9.112c-.494.555-1.276 1.42-2.14 2.078v-4.71s3.127-1.75 3.23-1.832c.925.247.884.926.884.988 0 .864-.884 2.2-1.974 3.476z" fill="#FFC200"/></svg>