<svg height="36" viewBox="0 0 36 36" width="36" xmlns="http://www.w3.org/2000/svg"><mask id="a" fill="#fff"><path d="M0 0h28v9.139H0z" fill-rule="evenodd"/></mask><mask id="b" fill="#fff"><path d="M0 9.139h28V0H0z" fill-rule="evenodd"/></mask><g fill="none" fill-rule="evenodd"><path d="M18 0c2.837 0 5.52.656 7.907 1.825C31.884 4.753 36 10.895 36 18c0 9.942-8.058 18-18 18-9.94 0-18-8.057-18-18C0 8.06 8.06 0 18 0z" fill="#f2f4f7" fill-rule="nonzero"/><path d="M23.43 9.139a4.57 4.57 0 0 0 0-9.139H4.57a4.57 4.57 0 1 0 0 9.139z" fill="#255398" mask="url(#a)" transform="translate(4 13)"/><path d="M27.36 21.592a4.02 4.02 0 0 0 0-8.038H8.624a4.02 4.02 0 0 0 0 8.038z" fill="#fff"/><path d="M27.38 20.745a3.177 3.177 0 1 0 0-6.353H8.654a3.177 3.177 0 1 0 0 6.353z" fill="#255398"/><path d="M6.584 3.006h2.209v-.191H6.584zm16.987-.227c0-.295.305-.417.556-.417.256 0 .551.14.551.435 0 .286-.29.421-.542.421-.269 0-.565-.131-.565-.439zm1.107 2.367c0 .139-.012.277.131.36v.613h-1.281v-.613c.135-.083.126-.204.126-.342v-.808c0-.14.013-.279-.126-.361v-.612h1.15zm-2.927-1.642a1.27 1.27 0 0 1 .695-.178c.214.009.4.079.505.183.186.178.208.378.208.612v1.025c0 .135-.013.286.121.36v.613h-1.089c-.061-.279-.057-.57-.057-.852v-.799c0-.017.013-.143-.03-.243-.07-.104-.183-.182-.352-.104v1.025c0 .135-.013.286.126.36v.613h-1.276v-.613c.134-.078.126-.204.126-.342V3.37c.003-.139.012-.287-.131-.361v-.612h1.155v1.107zm-1.432-.121h-1.125v.156a1.108 1.108 0 0 0-.677-.213c-.613 0-.765.374-.765.969v1.029c0 .599.296.851.812.851.196 0 .422-.061.604-.2v.174c0 .156.026.426-.2.426-.082 0-.13-.044-.16-.105a.528.528 0 0 1-.031-.199h-.951v.655c.4.222.743.291 1.199.291.312 0 .707-.039.942-.269.239-.231.226-.647.226-.955V4.334c0-.139-.009-.257.126-.339zM19.168 5.35a.402.402 0 0 1-.182.048c-.209 0-.209-.239-.209-.387v-.603c0-.156 0-.339.204-.339.065 0 .135.021.187.056zm-3.266-1.798c.278-.187.522-.234.739-.226.213.009.399.079.504.183.187.178.208.378.208.612v1.025c0 .135-.013.286.122.36v.613h-1.09c-.061-.279-.056-.57-.056-.852v-.799c0-.017.012-.143-.031-.243-.069-.104-.182-.182-.352-.104v1.025c0 .135-.013.286.126.36v.613h-1.277v-.613c.135-.078.126-.204.126-.342v-.83c0-.148.005-.243-.126-.339v-.612h1.108v.169zm-1.372.812c0-.347-.022-.677-.351-.877-.239-.139-.656-.161-.934-.161-.308 0-.642.027-.89.222-.256.2-.261.521-.261.816v.713c0 .36 0 .694.335.916.238.16.638.182.92.182.313 0 .678-.026.925-.239s.256-.556.256-.859zm-1.411.009c0-.152-.026-.409.196-.409.221 0 .191.261.191.409v.791c0 .147.013.373-.195.373-.205 0-.192-.226-.192-.373zM9.12 6.119v-.66c.139-.087.126-.226.126-.366V3.422c0-.139.013-.278-.126-.365v-.66h1.411v.66c-.138.087-.126.226-.126.365v1.907h.113c.295 0 .291-.179.291-.413v-.604h1.021v1.807zM6.454 5.12c0 .33.013.633.299.846.226.169.647.24 1.064.209.421-.03.843-.156 1.068-.352v-.686H7.861v.1c0 .139-.014.3-.192.3s-.195-.178-.19-.313v-.252h1.406v-.647c.018-.669-.23-1.003-1.238-.999-.959.005-1.211.304-1.193 1.051zm1.424-.773h-.399v-.104c0-.109.017-.279.199-.279.183 0 .2.17.2.279zm-4.603-1.95v.66c.135.057.143.165.148.296v1.811c-.005.126-.018.238-.148.295v.66h1.642c.351 0 .681-.022.946-.274.282-.264.3-.547.3-.912V3.539c0-.356-.031-.695-.335-.933-.265-.205-.629-.209-.946-.209zm1.307.812h.091c.252 0 .33.091.33.361v1.402c0 .27-.078.361-.33.361h-.091z" fill="#fff" mask="url(#b)" transform="translate(4 13)"/></g></svg>