<svg width="36" height="36" fill="none" xmlns="http://www.w3.org/2000/svg"><path d="M18 0c2.837 0 5.52.656 7.907 1.825C31.884 4.753 36 10.895 36 18c0 9.942-8.058 18-18 18-9.94 0-18-8.057-18-18C0 8.06 8.06 0 18 0z" fill="#F2F4F7"/><g fill-rule="evenodd" clip-rule="evenodd"><path d="M9.776 7.024a.36.36 0 0 0-.035.133c-.007.057-.038.26-.07.451-.033.191-.071.462-.086.602-.016.14-.042.27-.059.29a.962.962 0 0 0-.067.262 2.03 2.03 0 0 1-.072.312c-.02.047-.05.16-.068.25a.927.927 0 0 1-.08.243.329.329 0 0 0-.048.117c0 .07-.281.758-.35.857a.294.294 0 0 0-.043.076 4.9 4.9 0 0 1-.285.559 2.535 2.535 0 0 0-.115.192c-.028.054-.205.326-.393.604a8.476 8.476 0 0 0-.342.527c0 .012-.03.064-.067.116a1.945 1.945 0 0 0-.13.216c-.035.068-.081.15-.104.182a.443.443 0 0 0-.057.15.865.865 0 0 1-.069.197c-.149.298-.157 1.306-.013 1.715.025.07.057.174.072.23a.568.568 0 0 0 .067.163c.022.032.063.105.09.162.214.448.988 1.074 1.178.954.021-.014.007-.043-.053-.11-.125-.14-.284-.407-.31-.521-.108-.486-.11-.565-.024-.957.06-.273.267-.69.51-1.021a.894.894 0 0 0 .1-.165.949.949 0 0 1 .107-.171.74.74 0 0 0 .093-.143c0-.011.024-.059.054-.106.03-.048.073-.144.095-.214a.91.91 0 0 1 .06-.15c.083-.109.29-.795.36-1.189.069-.398.177-.359.247.09.04.25.149.652.222.817.027.062.05.127.05.145 0 .018.05.129.111.247s.124.248.138.29a.581.581 0 0 0 .076.14c.072.092.253.378.253.4 0 .01.046.09.1.176.056.087.145.237.198.334.053.097.112.19.13.205.02.016.036.056.036.09 0 .033.02.15.046.257.048.21.061.582.024.68a.984.984 0 0 0-.034.19c-.012.138-.141.397-.294.592-.195.248.08.197.443-.082.279-.214.428-.354.52-.491a1.87 1.87 0 0 1 .157-.202c.035-.036.063-.078.063-.094 0-.015.037-.1.081-.189a.897.897 0 0 0 .082-.2c0-.021.025-.11.056-.196.18-.502.112-1.452-.138-1.932a1.038 1.038 0 0 1-.08-.18c0-.04-.249-.462-.397-.674a16.965 16.965 0 0 1-.402-.604 8.782 8.782 0 0 0-.115-.174 2.099 2.099 0 0 1-.13-.217.397.397 0 0 0-.076-.113c-.02-.018-.038-.042-.038-.054 0-.023-.34-.709-.37-.748a.306.306 0 0 1-.035-.08 2.518 2.518 0 0 0-.082-.21c-.06-.14-.223-.645-.347-1.076a7.352 7.352 0 0 1-.173-.822 5.5 5.5 0 0 1-.094-.839c-.015-.309-.025-.35-.074-.29zm12.3 2.89c-.302.02-.388.03-.8.102-.623.11-1.073.211-1.185.269a.415.415 0 0 1-.15.044.327.327 0 0 0-.127.032 2.204 2.204 0 0 1-.185.079 4.635 4.635 0 0 0-.274.116c-.083.039-.202.092-.265.119a3.402 3.402 0 0 0-.301.16c-.103.062-.23.135-.285.162-.054.028-.098.059-.098.069 0 .01-.04.04-.088.067a6.043 6.043 0 0 0-.491.347c-.116.09-.744.724-.797.806a4.043 4.043 0 0 1-.188.242 3.334 3.334 0 0 0-.382.556 1.05 1.05 0 0 1-.106.17c-.03.035-.055.078-.055.095a.203.203 0 0 1-.042.085c-.036.048-.099.179-.282.587-.084.187-.18.442-.197.521a.566.566 0 0 1-.043.127 6.859 6.859 0 0 0-.2.741c-.08.433-.1.616-.107 1.054-.006.356 0 .522.027.668.02.106.044.315.055.464.01.15.032.297.05.328.05.094.11.412.081.436-.095.078-1.314.056-1.553-.028a1.287 1.287 0 0 0-.208-.049 9.006 9.006 0 0 1-1.036-.255 1 1 0 0 0-.19-.047 1.223 1.223 0 0 1-.225-.06 2.222 2.222 0 0 0-.256-.077 1.194 1.194 0 0 1-.214-.07.665.665 0 0 0-.174-.05.664.664 0 0 1-.164-.046 1.72 1.72 0 0 0-.232-.076 6.132 6.132 0 0 1-.276-.08 20.134 20.134 0 0 0-1.077-.258 4.246 4.246 0 0 0-.428-.07c-.095-.009-.33-.035-.52-.059-.895-.112-2.012-.112-2.45 0-.098.024-.26.055-.358.068a1.05 1.05 0 0 0-.249.057 4.944 4.944 0 0 1-.238.103c-.251.102-.51.258-.604.364-.046.052-.1.1-.12.108-.06.022-.089.255-.054.43.011.055.034.079.105.107.05.02.145.073.212.116.285.19.423.285.534.373.066.052.137.104.159.117.104.058.874.803 1.064 1.03.225.268.342.422.468.612.074.114.174.263.22.33.12.178.248.39.328.55.039.076.127.242.196.37.07.127.142.267.163.312.097.211.248.504.287.556.053.07.365.556.44.683.03.05.092.14.139.197.046.057.12.156.162.22.043.063.113.157.155.208.094.114.361.442.423.52.415.526 1.634 1.713 2.062 2.008.057.04.164.124.237.186.074.063.197.15.275.193a.978.978 0 0 1 .179.122.57.57 0 0 0 .13.09c.051.026.173.103.27.17.098.069.26.168.36.221.1.053.213.121.252.151.04.03.08.055.09.055.01 0 .206.092.437.205a12.223 12.223 0 0 0 .768.349.58.58 0 0 0 .115.047c.051.016.212.076.357.132.145.056.328.116.405.134.078.017.199.053.269.078.136.05.418.124.683.18.089.018.252.054.363.08.111.026.294.057.405.07.339.04.597.088.605.113.01.031.514.032.514.001 0-.053-.28-.104-.822-.15a2.547 2.547 0 0 1-.452-.07 2.112 2.112 0 0 0-.354-.07 1.126 1.126 0 0 1-.307-.068 1.17 1.17 0 0 0-.294-.073c-.13-.02-.253-.05-.273-.068a.633.633 0 0 0-.185-.07 4.316 4.316 0 0 1-.52-.16 2.09 2.09 0 0 0-.185-.066 2.574 2.574 0 0 1-.41-.168 2.238 2.238 0 0 0-.209-.09c-.181-.067-.523-.233-.572-.277a.967.967 0 0 0-.184-.092 1.243 1.243 0 0 1-.22-.113c-.084-.063-.26-.155-.294-.155a.519.519 0 0 1-.13-.081.519.519 0 0 0-.13-.081.433.433 0 0 1-.118-.078 1.474 1.474 0 0 0-.187-.128 2.197 2.197 0 0 1-.152-.09 2.938 2.938 0 0 0-.137-.087 1.532 1.532 0 0 1-.196-.152 2.673 2.673 0 0 0-.268-.207 3.055 3.055 0 0 1-.282-.218c-.328-.292-.382-.34-.458-.395a4.179 4.179 0 0 1-.304-.284 39.14 39.14 0 0 0-.437-.433 3.782 3.782 0 0 1-.274-.29 4.17 4.17 0 0 0-.165-.202 7.233 7.233 0 0 1-.163-.192 3.282 3.282 0 0 0-.116-.136 4.861 4.861 0 0 1-.174-.21 8.144 8.144 0 0 0-.198-.242 2.204 2.204 0 0 1-.152-.203 2.601 2.601 0 0 0-.133-.185c-.132-.162-.686-1.047-.686-1.095a.342.342 0 0 0-.057-.094 1.25 1.25 0 0 1-.114-.205c-.032-.071-.069-.13-.082-.13-.014 0-.025-.021-.025-.047 0-.068-.347-.733-.506-.969-.074-.11-.206-.307-.292-.44a5.067 5.067 0 0 0-.236-.331.437.437 0 0 1-.077-.113c0-.012-.05-.07-.11-.131a5.71 5.71 0 0 1-.266-.296 1.646 1.646 0 0 0-.226-.231.472.472 0 0 1-.119-.122.358.358 0 0 0-.109-.109 1.342 1.342 0 0 1-.192-.155 4.18 4.18 0 0 0-.347-.28l-.298-.215a5.827 5.827 0 0 0-.539-.34c-.125-.055-.113-.26.02-.34a.277.277 0 0 0 .102-.1.341.341 0 0 1 .105-.11l.146-.104c.081-.06.236-.135.41-.197.076-.027.19-.07.254-.094.256-.098 1.425-.23 1.81-.205.416.027.807.064.957.09.07.012.257.028.416.036.18.01.347.032.441.06.179.052.392.09.518.09.05 0 .107.014.128.03.02.018.156.055.302.084.147.028.288.063.313.077.025.013.13.048.234.076a2 2 0 0 1 .232.075.83.83 0 0 0 .193.04.53.53 0 0 1 .208.06.585.585 0 0 0 .192.068c.073.013.178.044.233.069a1.8 1.8 0 0 0 .296.083c.107.021.207.049.223.06a.665.665 0 0 0 .162.052c.073.016.236.057.362.09a1.8 1.8 0 0 0 .348.062c.07 0 .14.015.17.035.072.05.244.078.666.104.204.013.459.033.567.045.156.018.217.015.296-.012a.638.638 0 0 1 .155-.033c.115 0 .186-.095.156-.21a2.126 2.126 0 0 1-.04-.219.507.507 0 0 0-.047-.165c-.106-.165-.147-1.86-.055-2.265.026-.115.058-.266.071-.336.013-.07.053-.221.09-.336a3.96 3.96 0 0 0 .082-.297.781.781 0 0 1 .067-.186 1.1 1.1 0 0 0 .08-.214 2.11 2.11 0 0 1 .204-.456c.011-.015.06-.115.11-.222.049-.107.124-.246.166-.309a.553.553 0 0 0 .077-.143c0-.015.032-.058.07-.094.038-.037.07-.079.07-.093 0-.112 1.046-1.306 1.146-1.308a.33.33 0 0 0 .103-.081c.044-.045.09-.081.104-.081a.666.666 0 0 0 .151-.104.833.833 0 0 1 .145-.104.44.44 0 0 0 .104-.079c.048-.043.134-.102.191-.131a1.17 1.17 0 0 0 .139-.08 4.25 4.25 0 0 1 .44-.226c.044-.02.159-.072.254-.117.096-.045.216-.094.267-.11.05-.015.129-.046.173-.068.045-.022.144-.053.22-.067a2.5 2.5 0 0 0 .267-.07c.07-.024.19-.05.266-.058a.765.765 0 0 0 .221-.058c.056-.029.159-.048.313-.058.257-.017.411-.045.565-.102.09-.033.218-.038.961-.037l.857.001.185.06c.102.034.28.072.397.085a.937.937 0 0 1 .267.058c.03.02.11.042.18.052.071.008.186.036.256.06.07.025.174.058.231.073a.967.967 0 0 1 .174.065c.038.021.13.056.206.077.074.022.168.059.208.082.04.023.16.076.269.117.108.041.235.099.281.128.047.03.115.06.15.07.037.009.134.057.217.108l.208.126.185.11c.07.042.17.099.22.125.051.026.145.09.209.14l.162.127.15.116c.058.045.166.125.242.178.075.053.322.285.55.516l.537.546c.07.07.147.17.172.22a.59.59 0 0 0 .095.138.646.646 0 0 1 .1.133c.027.048.057.088.068.088.01 0 .04.044.068.098.051.1.135.228.164.25.021.016.343.66.343.687 0 .01.02.037.046.06a.139.139 0 0 1 .046.089c0 .027.03.097.064.156a.973.973 0 0 1 .094.222.532.532 0 0 0 .06.15c.015.02.042.093.06.163.016.07.055.173.085.229a.47.47 0 0 1 .054.204c0 .06.022.145.056.21a.88.88 0 0 1 .071.249c.02.168.077.406.107.443.012.014.031.176.043.358.021.353.058.564.109.624.045.054.045 1.772 0 1.825-.044.053-.085.254-.108.538a2.625 2.625 0 0 1-.078.44 2.445 2.445 0 0 0-.073.332.8.8 0 0 1-.057.22.994.994 0 0 0-.064.256 1.218 1.218 0 0 1-.07.277 2.199 2.199 0 0 0-.085.231c-.095.314-.137.435-.186.533a.83.83 0 0 0-.069.214.395.395 0 0 1-.07.174.554.554 0 0 0-.084.168.648.648 0 0 1-.072.162 2.564 2.564 0 0 0-.142.278c-.055.12-.156.313-.224.427a6.475 6.475 0 0 0-.187.338 1.11 1.11 0 0 1-.124.2.708.708 0 0 0-.093.15.349.349 0 0 1-.07.111.391.391 0 0 0-.074.103 2.785 2.785 0 0 1-.296.39.975.975 0 0 0-.105.146c-.058.098-.25.33-.47.567-.066.07-.142.154-.168.185-.07.083-.465.444-.513.47a.767.767 0 0 0-.122.105 2.785 2.785 0 0 1-.185.169l-.189.156a.413.413 0 0 1-.102.07c-.01 0-.034.016-.055.036-.109.105-.46.338-.823.545-.14.08-.318.184-.394.231-.076.047-.18.099-.231.115a.462.462 0 0 0-.14.07.33.33 0 0 1-.104.057c-.031.01-.128.052-.215.095a2.544 2.544 0 0 1-.302.122 2.325 2.325 0 0 0-.286.116.71.71 0 0 1-.193.072.385.385 0 0 0-.123.032 2.93 2.93 0 0 1-.432.143.333.333 0 0 0-.106.035 1.19 1.19 0 0 1-.243.053c-.12.018-.26.055-.31.081-.067.035-.157.052-.325.063a1.843 1.843 0 0 0-.358.056c-.19.062-.222.067-.585.093-.648.046-.976.162-.46.162.156 0 .28-.01.28-.022 0-.037.142-.067.44-.094.16-.014.4-.05.533-.081.134-.03.295-.063.359-.07a.944.944 0 0 0 .218-.06c.056-.024.176-.055.266-.069.166-.024.938-.26 1.171-.357.07-.029.154-.06.185-.07.29-.083 1.64-.8 1.828-.97.022-.02.051-.036.065-.036a.46.46 0 0 0 .128-.087 3.49 3.49 0 0 1 .2-.156c.146-.104.397-.305.566-.455l.31-.273c.251-.223.847-.88.976-1.078.033-.051.13-.18.216-.285a1.58 1.58 0 0 0 .156-.212.47.47 0 0 1 .076-.112c.079-.097.145-.207.358-.592l.142-.254c.113-.194.37-.709.398-.795.016-.049.057-.14.093-.204a.873.873 0 0 0 .08-.197.473.473 0 0 1 .05-.134 2.89 2.89 0 0 0 .178-.506c.017-.066.057-.185.09-.266a4.19 4.19 0 0 0 .133-.471 9.63 9.63 0 0 1 .12-.475 3.2 3.2 0 0 0 .077-.41 1.74 1.74 0 0 1 .073-.347c.08-.177.067-2.767-.016-2.866a1.466 1.466 0 0 1-.06-.303 2.896 2.896 0 0 0-.078-.403 1.665 1.665 0 0 1-.059-.255 1.228 1.228 0 0 0-.071-.26.715.715 0 0 1-.056-.19.745.745 0 0 0-.055-.19 6.422 6.422 0 0 1-.13-.367c-.04-.127-.1-.27-.13-.318a.54.54 0 0 1-.055-.1c0-.02-.091-.225-.13-.288a10.776 10.776 0 0 1-.17-.324c-.115-.227-.247-.43-.528-.82a6.338 6.338 0 0 1-.113-.163c-.109-.163-.57-.674-.844-.934a6.02 6.02 0 0 0-.831-.67 2.138 2.138 0 0 1-.153-.121c-.082-.07-.407-.272-.738-.458a7.443 7.443 0 0 0-.702-.345c-.08-.03-.2-.082-.265-.115a3.41 3.41 0 0 0-.48-.186 4.154 4.154 0 0 1-.22-.081 2.066 2.066 0 0 0-.267-.081 1.499 1.499 0 0 1-.196-.056 3.186 3.186 0 0 0-.336-.078c-.16-.031-.357-.072-.44-.091-.344-.079-1.05-.102-1.748-.059zm.82.214a7.054 7.054 0 0 1-.567.026 8.53 8.53 0 0 0-.67.035c-.307.055-.491.1-.586.145-.083.039-.112.043-.146.022-.07-.044-.226-.033-.293.019a.255.255 0 0 1-.146.046.961.961 0 0 0-.261.07c-.096.038-.188.07-.205.07a.178.178 0 0 0-.078.032.852.852 0 0 1-.174.072 7.063 7.063 0 0 0-.984.488 1.43 1.43 0 0 1-.16.096 1.015 1.015 0 0 0-.18.125 2.158 2.158 0 0 1-.17.135 4 4 0 0 0-.182.14 8.944 8.944 0 0 1-.176.138c-.042.032-.087.07-.101.085a47.04 47.04 0 0 0-.175.192 3.98 3.98 0 0 1-.196.205c-.285.246-.744.848-.912 1.197-.037.076-.11.211-.163.3a.91.91 0 0 0-.095.194c0 .018-.035.09-.078.162a.806.806 0 0 0-.094.234.34.34 0 0 1-.05.142.291.291 0 0 0-.047.128 1.08 1.08 0 0 1-.067.217 1.17 1.17 0 0 0-.07.278.61.61 0 0 1-.038.177c-.098.124-.199 1.521-.127 1.759.007.024.024.193.038.376.016.225.038.367.068.44.024.059.056.174.07.255.039.208.237.79.344 1.01.14.285.257.382.464.382.205 0 .334.023.269.048a.803.803 0 0 1-.188.02c-.19.002-.217.014-.215.102.002.187.538.85.993 1.23l.286.239c.066.055.19.134.275.177.085.043.19.105.234.138a.34.34 0 0 0 .099.06 1.6 1.6 0 0 1 .194.078c.233.104.423.177.463.177.018 0 .1.03.184.067.426.19.832.203.96.03.12-.16.182-.171.119-.02-.047.113-.011.194.096.214.242.046 1.08-.004 1.362-.08.493-.134.53-.146.67-.215.075-.037.185-.078.243-.091a1.34 1.34 0 0 0 .28-.124c.095-.055.236-.134.312-.175.216-.117.239-.134.617-.467.694-.613.902-1.003.7-1.313a.485.485 0 0 1-.055-.131c-.023-.103.05-.084.09.023a.17.17 0 0 0 .096.105c.038.016.069.038.069.05 0 .113.126-.046.15-.19a.873.873 0 0 1 .075-.213.897.897 0 0 0 .079-.3c.012-.106.04-.233.061-.284.053-.123.051-.917-.003-1.16a6.814 6.814 0 0 1-.063-.334c-.058-.367-.168-.716-.295-.936a9.255 9.255 0 0 1-.123-.218.764.764 0 0 0-.074-.116.28.28 0 0 1-.048-.086c-.023-.076-.111-.145-.211-.166-.088-.018-.092-.023-.085-.1.007-.083-.199-.3-.284-.3-.015 0-.042-.024-.058-.055-.05-.094-.719-.439-.907-.468a.894.894 0 0 1-.217-.074.841.841 0 0 0-.313-.076l-.48-.044c-.198-.019-.305-.02-.358-.003a2.266 2.266 0 0 1-.273.05 1.956 1.956 0 0 0-.324.072l-.3.103a.84.84 0 0 0-.22.102.558.558 0 0 1-.14.082.59.59 0 0 0-.15.092c-.218.203-.264.243-.276.243-.05 0-.397.463-.49.655a1.492 1.492 0 0 1-.088.164c-.011.014-.056.12-.099.234l-.077.209v.625c0 .588.002.631.049.73.027.056.055.13.063.162a.67.67 0 0 0 .083.162.5.5 0 0 1 .07.13c0 .014.017.04.037.056.02.016.072.084.117.15.1.153.456.45.538.45.017 0 .048.02.07.042a.36.36 0 0 0 .13.071c.051.016.147.055.213.088.172.083 1.098.077 1.235-.009a.585.585 0 0 1 .181-.067.53.53 0 0 0 .18-.07c.045-.03.118-.07.164-.09.1-.042.347-.274.392-.37.018-.038.053-.1.078-.139.07-.107.084-.147.139-.395.058-.262.059-.266.025-.392a1.03 1.03 0 0 1-.026-.208 1.192 1.192 0 0 0-.124-.49.717.717 0 0 1-.06-.143c0-.04-.186-.243-.287-.312a1.734 1.734 0 0 1-.13-.096 1.816 1.816 0 0 0-.278-.126c-.588-.228-1.203-.018-1.381.472l-.094.255c-.14.375.135.914.524 1.03.187.055.264.12.19.16-.097.052-.313-.002-.469-.117-.127-.093-.321-.295-.321-.332a.886.886 0 0 0-.06-.18c-.174-.412.093-1.187.475-1.382.33-.168.687-.217.939-.128.09.032.186.057.214.058.029 0 .102.024.162.055l.214.107c.058.029.129.071.159.095.053.042.056.041.13-.015.105-.08.11-.075.092.094-.014.137-.01.159.042.237a.837.837 0 0 1 .088.179c.016.05.049.13.073.177.112.216.101 1.308-.015 1.393a.487.487 0 0 0-.115.164c-.071.159-.302.383-.54.523a1.31 1.31 0 0 1-.446.186.445.445 0 0 0-.141.06c-.056.05-.476.082-.714.055a3.84 3.84 0 0 0-.326-.023.347.347 0 0 1-.173-.036.868.868 0 0 0-.19-.08.763.763 0 0 1-.304-.156.108.108 0 0 0-.062-.029.546.546 0 0 1-.153-.104.56.56 0 0 0-.152-.104c-.016 0-.047-.026-.067-.057a.342.342 0 0 0-.128-.097c-.074-.033-.092-.054-.104-.123a1.55 1.55 0 0 0-.187-.42 1.12 1.12 0 0 1-.088-.255 4.746 4.746 0 0 0-.084-.298c-.02-.055-.031-.27-.035-.669-.007-.677 0-.64-.122-.66-.114-.018-.185-.107-.085-.107.032 0 .092.021.134.047a.43.43 0 0 0 .09.046c.023 0 .187-.271.252-.417.162-.364.672-.925.984-1.083.189-.096.297-.352.187-.443-.06-.05-.051-.196.01-.159.036.023.046.054.046.146 0 .194.162.24.474.132.43-.147 1.364-.15 1.84-.005l.32.095a.687.687 0 0 1 .18.07c.007.01.059.02.115.02.08 0 .108.01.127.048a.31.31 0 0 0 .123.09c.053.023.123.07.154.105a.56.56 0 0 0 .128.098c.13.068.566.467.567.52 0 .009.04.062.087.119.103.121.134.173.324.534.08.151.145.299.145.328a.75.75 0 0 0 .069.2c.038.08.07.182.07.227 0 .153.043.256.117.282.082.028.082.017.006.21l-.062.157.05.1c.084.167.067.657-.03.918a1.48 1.48 0 0 0-.058.3c-.018.205-.034.266-.082.325a.564.564 0 0 0-.056.162c-.062.28-.413.905-.68 1.212-.167.191-.199.237-.23.327-.025.075-.045.09-.153.127a.522.522 0 0 0-.14.062 2.64 2.64 0 0 1-.433.351 1.066 1.066 0 0 0-.162.104c-.092.075-.605.322-.83.399a2.967 2.967 0 0 0-.244.092 1.073 1.073 0 0 1-.224.055 1.617 1.617 0 0 0-.227.049c-.257.098-1.471.129-1.773.045a2.972 2.972 0 0 0-.378-.07 1.062 1.062 0 0 1-.348-.09 1.135 1.135 0 0 0-.245-.083.999.999 0 0 1-.237-.083.76.76 0 0 0-.162-.066c-.039 0-.585-.276-.69-.349a5.722 5.722 0 0 1-.162-.119.72.72 0 0 0-.13-.08c-.053-.022-.216-.155-.376-.309a6.944 6.944 0 0 0-.177-.163c-.14-.12-.563-.628-.617-.74a1.54 1.54 0 0 0-.104-.165.557.557 0 0 1-.077-.129.616.616 0 0 0-.08-.136.615.615 0 0 1-.082-.137c0-.022-.136-.3-.178-.364a2.315 2.315 0 0 1-.088-.236c-.093-.276-.135-.309-.352-.274-.359.057-1.417.004-1.694-.085a1.015 1.015 0 0 0-.245-.048.796.796 0 0 1-.234-.055 1.88 1.88 0 0 0-.323-.085.99.99 0 0 1-.231-.059 2.376 2.376 0 0 0-.336-.1l-.463-.117a1.509 1.509 0 0 1-.243-.08.459.459 0 0 0-.174-.037c-.057 0-.176-.026-.265-.057a2.091 2.091 0 0 0-.343-.082.902.902 0 0 1-.258-.07.824.824 0 0 0-.271-.069 1.836 1.836 0 0 1-.326-.068.818.818 0 0 0-.201-.047c-.064 0-.178-.023-.523-.103a2.806 2.806 0 0 0-.348-.048 6.342 6.342 0 0 1-.472-.06c-.39-.065-1.372-.055-1.486.015-.01.006-.13.022-.268.034a3.055 3.055 0 0 0-.378.055c-.411.107-.537.145-.676.204a1.103 1.103 0 0 1-.183.065c-.016 0-.045.016-.065.035-.02.02-.092.078-.159.13-.198.153-.187.247.045.376.142.08.41.26.448.301.027.03.188.155.244.188.068.041.26.205.38.325.064.064.153.14.197.17.045.031.196.19.336.356.14.166.298.346.35.401.053.055.13.158.17.228.04.071.092.142.115.158.023.016.064.07.092.122.027.05.112.18.188.29.077.107.172.258.211.335.04.076.09.165.11.197.021.032.073.13.115.22.042.089.095.198.119.243.047.088.134.265.225.458.032.068.098.17.148.227.05.058.09.122.09.144 0 .021.037.085.081.14a.426.426 0 0 1 .081.131.7.7 0 0 0 .104.168c.058.076.105.145.105.152 0 .023.144.23.28.402.073.092.139.187.146.21a.159.159 0 0 0 .07.074c.031.016.069.06.084.097a.206.206 0 0 0 .07.09.282.282 0 0 1 .085.101c.022.043.104.15.183.237.133.148.185.208.48.551a.81.81 0 0 0 .166.156c.03.014.065.053.08.088a.398.398 0 0 0 .112.128.865.865 0 0 1 .143.14.526.526 0 0 0 .115.111 2.1 2.1 0 0 1 .208.176c.083.078.179.156.213.175a.32.32 0 0 1 .093.077c.029.042.26.234.524.438.071.054.134.107.141.118.024.035.261.188.293.188.017 0 .05.019.072.042.091.091.733.498 1.015.643.165.084.352.183.416.218.063.036.162.084.22.106.057.022.12.052.139.067.019.016.123.062.231.104.108.042.213.09.233.108.02.017.047.032.058.032.012 0 .118.036.236.081.118.044.233.08.256.08.024 0 .093.026.155.058.061.03.181.067.266.08a.92.92 0 0 1 .258.082.885.885 0 0 0 .255.08.903.903 0 0 1 .224.058c.039.02.112.036.163.036.086 0 .212.026.512.104.07.018.235.039.366.046.131.007.319.035.417.062.338.093 2.569.098 2.992.007a4.77 4.77 0 0 1 .404-.06 6.76 6.76 0 0 0 .486-.068c.14-.025.358-.061.483-.08a1.06 1.06 0 0 0 .26-.058.922.922 0 0 1 .211-.069c.363-.085.606-.157.716-.213a.885.885 0 0 1 .208-.072 2.45 2.45 0 0 0 .499-.19.274.274 0 0 1 .088-.034c.058 0 1.081-.52 1.156-.588.023-.02.054-.037.07-.037a.527.527 0 0 0 .146-.092.621.621 0 0 1 .138-.093c.03 0 .22-.13.34-.236a.497.497 0 0 1 .124-.088.993.993 0 0 0 .176-.135c.085-.075.201-.167.258-.206.168-.113 1.159-1.123 1.251-1.275a4.09 4.09 0 0 1 .19-.261c.257-.329.285-.464.15-.74a1.292 1.292 0 0 1-.084-.232 2.62 2.62 0 0 0-.198-.485 5.822 5.822 0 0 1-.104-.208c-.101-.212-.337-.61-.402-.677a2.936 2.936 0 0 1-.137-.183 3.148 3.148 0 0 0-.213-.266.522.522 0 0 1-.105-.14c0-.014-.03-.037-.066-.05a.486.486 0 0 1-.154-.129.435.435 0 0 0-.107-.106c-.022 0-.113-.085-.113-.105 0-.027.13.023.157.06.016.024.08.07.142.104a.378.378 0 0 1 .137.116.24.24 0 0 0 .107.09c.045.018.082.042.082.052 0 .017.133.18.182.223.11.094.304.323.304.357 0 .013.048.088.106.167.058.079.117.171.132.205.015.034.056.102.092.152.035.05.064.11.064.134 0 .024.025.082.055.13.031.047.085.159.12.248.034.089.07.172.08.185.01.013.024.067.033.12.04.244.295.339.348.13.008-.035.06-.132.115-.215.055-.083.128-.208.163-.278a.702.702 0 0 1 .084-.14c.026-.017.308-.59.343-.7.016-.047.04-.1.056-.115.03-.03.109-.243.166-.446.019-.063.053-.152.077-.197a1.01 1.01 0 0 0 .073-.207c.017-.07.054-.175.083-.233.03-.058.064-.173.078-.255.013-.082.04-.191.058-.242a.672.672 0 0 0 .035-.187c0-.051.01-.103.02-.115.03-.034.116-.444.129-.618a.76.76 0 0 1 .047-.224c.076-.147.12-1.505.07-2.213-.024-.364-.17-.776-.274-.776a.922.922 0 0 1-.181-.102c-.26-.17-.746-.397-.908-.423a1.117 1.117 0 0 1-.221-.07 1.12 1.12 0 0 0-.382-.077c-.183-.014-.282-.033-.347-.067l-.092-.048h.307c.295 0 .813.069.872.116.012.01.111.046.22.08.108.034.248.095.311.136.315.201.565.155.464-.086a.514.514 0 0 1-.035-.158.592.592 0 0 0-.037-.169 2.65 2.65 0 0 1-.08-.282 1.139 1.139 0 0 0-.077-.243.694.694 0 0 1-.061-.17.792.792 0 0 0-.055-.161.849.849 0 0 1-.058-.15.518.518 0 0 0-.058-.14.86.86 0 0 1-.106-.28c0-.02-.02-.054-.044-.076a.238.238 0 0 1-.058-.112.43.43 0 0 0-.067-.143 1.265 1.265 0 0 1-.107-.188.845.845 0 0 0-.094-.162.316.316 0 0 1-.057-.099 1.003 1.003 0 0 0-.132-.196 3.256 3.256 0 0 1-.178-.243c-.192-.306-.523-.679-.993-1.117-.401-.374-.45-.417-.472-.417-.023 0-.082-.039-.286-.19a6.756 6.756 0 0 0-.474-.331 1.756 1.756 0 0 0-.214-.127.778.778 0 0 1-.138-.073l-.12-.074-.16.041a1.011 1.011 0 0 0-.26.109.474.474 0 0 1-.125.067.344.344 0 0 0-.108.073c-.077.067-.086.07-.12.035-.036-.036-.033-.04.035-.053.04-.008.074-.024.074-.036 0-.011.027-.03.059-.043a.354.354 0 0 0 .087-.047.937.937 0 0 1 .104-.07c.222-.131.132-.256-.309-.427a1.893 1.893 0 0 1-.22-.1.795.795 0 0 0-.195-.072 1.18 1.18 0 0 1-.162-.045 2.91 2.91 0 0 0-.589-.19.507.507 0 0 1-.188-.056.846.846 0 0 0-.255-.068c-.12-.018-.27-.05-.334-.071a2.398 2.398 0 0 0-.429-.057 7.254 7.254 0 0 1-.416-.035.31.31 0 0 0-.117-.004zm.325.097c.16.008.347.028.417.046s.231.049.359.068c.127.02.286.056.353.082a.705.705 0 0 0 .178.046c.058 0 .366.099.765.245l.384.14c.228.08.426.199.426.253 0 .043-.2.204-.335.27-.324.158-1.053.848-1.267 1.2-.067.108-.159.25-.205.314-.104.146-.25.415-.289.534a.568.568 0 0 1-.07.142.375.375 0 0 0-.057.128.714.714 0 0 1-.059.155c-.078.147-.206.501-.206.57 0 .142-.172.236-.253.138-.015-.017-.073-.039-.13-.047a1.847 1.847 0 0 1-.264-.072c-.496-.173-1.353-.187-1.909-.03-.09.026-.213.052-.273.058l-.108.012-.025-.089a.74.74 0 0 1-.025-.116.69.69 0 0 0-.048-.139c-.163-.38-.233-1.586-.112-1.965.012-.04.03-.164.041-.278a.922.922 0 0 1 .068-.302.8.8 0 0 0 .064-.22c.01-.081.031-.137.06-.16a.425.425 0 0 0 .08-.174.638.638 0 0 1 .066-.173 1.42 1.42 0 0 0 .102-.185c.131-.27.2-.328.425-.348.106-.01.29-.034.412-.054.268-.045.764-.08.984-.07l.451.021zm-2.392.21c.07.02.088.105.03.149a.269.269 0 0 0-.07.121.38.38 0 0 1-.08.142.315.315 0 0 0-.07.145.543.543 0 0 1-.073.174.854.854 0 0 0-.091.22 1.553 1.553 0 0 1-.067.205 1.38 1.38 0 0 0-.055.293 1.207 1.207 0 0 1-.058.292c-.09.175-.11 1.373-.027 1.706.085.345.111.445.134.51.075.217.056.257-.191.404-.344.204-.728.645-.974 1.12-.134.259-.145.274-.203.262a1.53 1.53 0 0 1-.391-.13c-.285-.131-.677-.341-.735-.393a1.973 1.973 0 0 0-.154-.113 1.833 1.833 0 0 1-.204-.166.396.396 0 0 0-.127-.093.605.605 0 0 1-.156-.133 5.13 5.13 0 0 0-.178-.18 4.501 4.501 0 0 1-.465-.509.704.704 0 0 0-.11-.134c-.016-.01-.03-.032-.03-.048a.617.617 0 0 0-.058-.144c-.079-.156-.05-.264.162-.61.388-.63.528-.81 1.042-1.33.204-.207.417-.41.475-.45.057-.04.166-.126.243-.188.428-.353 1.16-.733 1.863-.967.096-.031.242-.081.325-.11.16-.058.214-.066.293-.045zm5.848.926c.092.046.189.104.216.128a.9.9 0 0 0 .143.096c.052.028.181.112.287.186.48.334.556.396.968.796.146.142.288.277.315.3.075.067.288.324.451.546l.23.312c.083.113.133.193.286.463.05.086.114.194.143.238.053.082.176.357.208.463.01.032.04.105.069.163.121.245.451 1.313.451 1.46v.073l-.12-.015a.615.615 0 0 1-.297-.117c-.25-.205-1.765-.418-2.088-.293a2.67 2.67 0 0 1-.323.062 1.69 1.69 0 0 0-.386.096 1.02 1.02 0 0 1-.209.07.857.857 0 0 0-.209.08.674.674 0 0 1-.155.065.556.556 0 0 0-.14.058.546.546 0 0 1-.14.058c-.016 0-.052.021-.078.048a.453.453 0 0 1-.141.08.623.623 0 0 0-.163.092c-.038.032-.082.058-.099.058s-.043.015-.058.033a.76.76 0 0 1-.36.175c-.093 0-.127-.054-.127-.2 0-.364-.54-1.353-.917-1.68a2.15 2.15 0 0 1-.186-.18.558.558 0 0 0-.146-.115.461.461 0 0 1-.115-.08.638.638 0 0 0-.158-.094l-.129-.06.015-.19c.01-.14.027-.207.063-.255a.712.712 0 0 0 .082-.197.526.526 0 0 1 .081-.181.495.495 0 0 0 .08-.16.514.514 0 0 1 .067-.148.428.428 0 0 0 .058-.095c.014-.031.06-.111.1-.178l.149-.243c.04-.068.1-.149.133-.18.032-.03.059-.069.059-.086 0-.017.076-.117.168-.222.093-.104.203-.234.244-.287.078-.1.357-.347.568-.5a2.48 2.48 0 0 0 .177-.143.351.351 0 0 1 .11-.07.423.423 0 0 0 .116-.068c.297-.246.462-.284.707-.162zm-1.06.274c-.046.033-.08.028-.08-.011 0-.012.027-.022.062-.022.059 0 .06.002.017.033zm-.361.291a.41.41 0 0 1-.119.093c-.013 0 .001-.024.032-.053a.33.33 0 0 0 .072-.092.07.07 0 0 1 .062-.04c.038 0 .03.016-.047.092zm-.345.32c0 .01-.015.039-.034.063-.033.045-.034.045-.035-.003 0-.026.007-.055.015-.063.021-.022.054-.02.054.003zm-4.573 1.413c-.038.038-.047-.161-.036-.737l.01-.429.018.577c.011.318.015.583.008.589zm-3.943.658a.229.229 0 0 1 .077.105.607.607 0 0 0 .101.165c.048.058.105.132.127.164.177.257.405.532.44.532.013 0 .081.058.152.13.152.152.181.178.35.312.278.22.319.25.452.32l.263.14c.068.04.165.081.214.095.05.013.128.05.174.08a.323.323 0 0 0 .137.057c.118 0 .13.046.112.418-.02.442.02.905.098 1.092.03.073.054.158.054.189 0 .03.047.146.105.256a.94.94 0 0 1 .104.275c0 .097.018.12.117.152a.635.635 0 0 1 .179.113c.263.236.456.365.665.445.329.125.377.138.497.14.121.001.384.052.411.078a.54.54 0 0 1-.025.17 1.28 1.28 0 0 0-.038.207c0 .029-.025.078-.056.111a.342.342 0 0 0-.07.162.41.41 0 0 1-.063.162.588.588 0 0 0-.078.17c-.017.06-.066.174-.108.253l-.206.393c-.277.535-.43.724-.588.724-.14 0-.407-.054-.618-.125a1.207 1.207 0 0 0-.235-.06c-.03 0-.068-.014-.083-.032a.193.193 0 0 0-.09-.047 1.394 1.394 0 0 1-.202-.082l-.243-.117c-.264-.125-.613-.33-.694-.407a7.162 7.162 0 0 0-.232-.2c-.185-.155-.377-.341-.409-.396a2.589 2.589 0 0 0-.176-.2 1.655 1.655 0 0 1-.194-.24 1.31 1.31 0 0 0-.089-.143c-.147-.2-.118-.233.226-.252a4.48 4.48 0 0 0 .538-.071c.14-.03.296-.062.346-.07a.742.742 0 0 0 .174-.056 1.12 1.12 0 0 1 .23-.07.694.694 0 0 0 .209-.07.631.631 0 0 1 .18-.07c.066-.015.125-.042.132-.06.006-.017.07-.048.14-.068.14-.04.16-.057.137-.114-.018-.048-.107-.033-.279.047a.601.601 0 0 1-.193.056.428.428 0 0 0-.169.055.897.897 0 0 1-.298.081 1.977 1.977 0 0 0-.295.06c-.051.018-.2.044-.33.058a9.43 9.43 0 0 0-.447.059c-.315.05-.48.037-.567-.047a1.532 1.532 0 0 1-.264-.463 3.679 3.679 0 0 0-.094-.278 4.308 4.308 0 0 1-.124-.405l-.086-.359c-.112-.461-.111-.456-.113-1.285l-.002-.798.077-.29c.185-.693.22-.809.277-.92a.444.444 0 0 0 .051-.142c0-.162.072-.193.212-.089zm5.938.327c.167.018.34.049.382.068.043.02.145.053.228.074.189.048.506.182.666.282a.928.928 0 0 0 .137.076c.023 0 .216.144.283.21a.605.605 0 0 0 .112.088c.029.015.052.048.052.073 0 .048-.024.057-.218.08a.484.484 0 0 0-.165.045.962.962 0 0 1-.233.071.88.88 0 0 0-.237.077 2.72 2.72 0 0 1-.135.088 2.178 2.178 0 0 0-.272.25c-.188.194-.227.222-.255.177-.014-.023-.34-.183-.464-.229-.354-.13-.882-.13-1.131-.002-.505.261-.71.618-.71 1.24 0 1.152 1.674 1.46 1.901.35.085-.413-.156-.463-.282-.058-.188.608-1 .576-1.232-.048-.272-.734.432-1.467 1.176-1.226.064.021.163.05.22.065.22.057.566.384.636.601.018.058.05.151.071.209.088.242.077 1.1-.015 1.13-.013.005-.043.053-.066.107-.067.157-.309.398-.49.489a.888.888 0 0 0-.17.1c-.007.012-.046.029-.088.037a3.752 3.752 0 0 0-.26.075c-.291.092-.868.083-1.145-.018-.412-.15-.67-.338-.982-.716-.411-.498-.481-1.643-.14-2.286a.947.947 0 0 0 .08-.176c.002-.027.045-.086.247-.344.194-.248.446-.474.653-.588a4.92 4.92 0 0 0 .21-.121.776.776 0 0 1 .174-.076 2.64 2.64 0 0 0 .236-.082c.28-.111.726-.145 1.226-.092zm2.08 1.1c.113.043.447.663.555 1.032.095.322.1.352.128.659.015.158.035.304.046.324.035.067.048.313.027.487-.091.732-.1.775-.186 1.008a1.873 1.873 0 0 0-.049.162c-.05.201-.084.192-.25-.065-.214-.328-.574-.688-.69-.688a.251.251 0 0 1-.096-.056.408.408 0 0 0-.134-.073.403.403 0 0 1-.134-.071c-.053-.045-.092-.055-.213-.055-.183 0-.206-.03-.187-.239.04-.442.042-.614.005-.775-.02-.09-.037-.19-.037-.223s-.063-.201-.139-.373c-.167-.376-.173-.345.147-.664.187-.187.234-.221.37-.269a.987.987 0 0 0 .207-.096c.092-.072.463-.087.63-.025zm-6.378.094a.941.941 0 0 0 .14.087c.057.026.056.026-.019.028-.055.001-.095-.018-.143-.067a.344.344 0 0 0-.127-.084c-.032-.008-.054-.023-.047-.033.018-.03.108.002.196.069zm-9.895.22c.022.087.003.107-.058.06-.035-.027-.05-.055-.04-.08.021-.057.082-.045.098.02zm10.283-.012c.022.012.095.039.162.06.13.04.164.07.126.108-.058.058-.352-.079-.352-.164 0-.032.012-.033.064-.004zm-10.142.222c.02.052.002.055-.045.007-.034-.036-.035-.043-.005-.043.02 0 .042.016.05.036zm2.981.032c.008.012-.018.044-.056.07-.077.055-.097.023-.032-.05.043-.046.069-.052.088-.02zm16.701-.001c.025.015.023.022-.008.034-.051.02-.486.02-.466 0 .041-.042.42-.069.474-.034zm.78.117c.254.03.784.168.81.21.008.013.032.023.055.023.054 0 .412.189.61.322.088.058.195.125.238.148.1.053.131.142.195.549.053.344.068 1.565.022 1.829-.012.07-.033.215-.045.324-.053.455-.158 1.003-.244 1.278-.03.098-.056.213-.056.256 0 .042-.008.087-.02.099-.01.012-.074.183-.14.38a10.147 10.147 0 0 1-.582 1.413.919.919 0 0 0-.047.093c-.06.137-.31.57-.355.615-.02.02-.036.047-.036.06 0 .048-.098.158-.14.158-.048 0-.095-.075-.162-.264a2.953 2.953 0 0 0-.195-.454.542.542 0 0 1-.06-.115c-.051-.137-.353-.617-.505-.804a4.985 4.985 0 0 0-.56-.597 9.934 9.934 0 0 1-.238-.206.643.643 0 0 0-.131-.093 2.798 2.798 0 0 1-.228-.138 2.113 2.113 0 0 0-.301-.165 9.641 9.641 0 0 1-.448-.193.55.55 0 0 0-.176-.05 1.21 1.21 0 0 1-.25-.061c-.245-.082-.732-.105-.842-.04l-.069.04.086.028c.048.016.222.034.389.04.247.01.32.021.397.062a.721.721 0 0 0 .183.063c.078.012.244.084.483.21a5 5 0 0 0 .162.08c.051.026.119.07.15.098.032.028.105.078.163.111.229.132.632.515.855.813.066.088.135.174.153.193.018.018.034.042.034.054 0 .011.057.11.128.22.07.11.137.222.148.25.01.029.078.173.15.322.07.148.13.28.13.292 0 .012.024.073.055.134.03.062.063.148.072.19.009.044.041.132.071.197.077.165.074.293-.01.39a3.535 3.535 0 0 0-.109.136l-.182.243c-.541.722-1.561 1.636-2.383 2.134l-.205.128a4.957 4.957 0 0 1-.35.194 1.237 1.237 0 0 0-.22.126c-.005.011-.024.02-.044.02-.02 0-.131.046-.248.102a3.841 3.841 0 0 1-.317.137c-.057.02-.151.057-.207.081-.185.083-.415.167-.456.167a.65.65 0 0 0-.162.057.988.988 0 0 1-.244.072.407.407 0 0 0-.155.045.59.59 0 0 1-.185.057 2.66 2.66 0 0 0-.255.058 3.562 3.562 0 0 1-.313.07c-.114.02-.317.058-.45.084-.865.167-2.707.247-3.416.148a21.67 21.67 0 0 0-.568-.07 6.884 6.884 0 0 1-.486-.07 18.654 18.654 0 0 0-.43-.079 2.08 2.08 0 0 1-.302-.066 1.095 1.095 0 0 0-.203-.05 1.059 1.059 0 0 1-.221-.06 1.667 1.667 0 0 0-.234-.078 8.867 8.867 0 0 1-.542-.169 11.656 11.656 0 0 0-.209-.07 2.489 2.489 0 0 1-.363-.144 1.17 1.17 0 0 0-.147-.06c-.038 0-1.268-.63-1.446-.74a15.016 15.016 0 0 0-.278-.17.578.578 0 0 1-.104-.072 1.075 1.075 0 0 0-.127-.096c-.476-.321-.52-.352-.748-.542a12.386 12.386 0 0 1-1.6-1.484 31.34 31.34 0 0 0-.378-.44c-.258-.295-.302-.347-.347-.414a1.268 1.268 0 0 0-.063-.086 3.515 3.515 0 0 1-.094-.123 7.65 7.65 0 0 0-.148-.191c-.069-.086-.15-.2-.222-.315a51.08 51.08 0 0 0-.197-.3c-.196-.297-.189-.284-.242-.408a.956.956 0 0 0-.108-.179 7.825 7.825 0 0 1-.448-.87c-.008-.028-.025-.052-.037-.052-.012 0-.022-.012-.022-.026 0-.03-.292-.54-.333-.583a2.184 2.184 0 0 1-.127-.19 4.421 4.421 0 0 0-.196-.287 3.128 3.128 0 0 1-.142-.2c-.174-.281-1.126-1.276-1.326-1.385a1.649 1.649 0 0 1-.156-.118 2.953 2.953 0 0 0-.174-.134 8.516 8.516 0 0 0-.46-.3c-.222-.122-.084-.318.33-.47a2.63 2.63 0 0 0 .223-.091.998.998 0 0 1 .24-.057c.1-.014.19-.03.202-.038.282-.174 2.1-.18 2.938-.01.121.024.283.052.359.06.076.009.196.035.265.06.069.023.194.053.278.065.083.013.22.044.302.07.184.056.58.155.799.199.089.018.2.047.245.065.045.018.15.045.231.059.082.014.224.051.317.083.092.03.187.056.21.056.023 0 .114.026.202.056.088.03.223.068.3.082.076.015.216.052.312.082.095.03.22.062.278.071.057.009.182.035.278.058.095.023.236.048.312.057.077.008.215.03.307.05.206.043 1.01.033 1.135-.015.14-.053.33.136.33.33 0 .044.414.866.452.898.02.017.058.072.085.124.163.321.776.973 1.197 1.275.307.22.81.505.982.556.064.019.139.05.167.068.028.018.115.05.195.07.079.02.197.059.263.085.123.049.225.074.698.17.703.142 1.922.051 2.489-.184.07-.03.159-.06.197-.07.308-.07 1.04-.503 1.343-.795a.518.518 0 0 1 .373-.145 2.29 2.29 0 0 0 .298-.03l.162-.029-.165-.05c-.264-.08-.266-.127-.02-.41.228-.263.59-.92.59-1.071 0-.025.027-.096.06-.157a.93.93 0 0 0 .08-.23c.012-.064.044-.21.072-.325.044-.184.05-.276.053-.796l.003-.587.125-.113a.518.518 0 0 1 .16-.113c.021 0 .05-.02.066-.045.016-.025.073-.057.127-.072a.274.274 0 0 0 .128-.07.247.247 0 0 1 .119-.067.426.426 0 0 0 .141-.07c.03-.025.066-.046.081-.046a.84.84 0 0 0 .165-.067c.075-.037.173-.075.218-.084a.795.795 0 0 0 .162-.057c.366-.183 1.123-.262 1.77-.187zm-6.532 1.192c-.05.334-.273.578-.566.622-.196.03-.176-.085.027-.153.218-.073.335-.224.47-.606.031-.086.086.024.069.137zm1.26.938a.36.36 0 0 1 .15.063c.059.053.344.247.481.328.05.03.091.067.091.082 0 .016.035.07.078.12.043.05.1.133.129.184l.083.15c.251.442.186.636-.405 1.207-.39.377-.441.421-.6.527-.232.155-.713.407-.824.432a1.437 1.437 0 0 0-.215.085c-.148.07-.337.124-.723.205l-.321.069a4.603 4.603 0 0 1-.5.028c-.52.007-.558-.02-.366-.256a.88.88 0 0 0 .12-.208c.023-.06.066-.15.098-.202.063-.102.182-.363.182-.399a.21.21 0 0 1 .043-.078.394.394 0 0 0 .06-.136c.01-.045.043-.136.074-.202s.067-.183.08-.26a.776.776 0 0 1 .07-.222.633.633 0 0 0 .064-.273l.014-.189.092-.043a1.11 1.11 0 0 1 .255-.066c.09-.012.21-.041.267-.064.057-.024.166-.06.243-.082.277-.08.686-.402.814-.642.077-.143.187-.213.297-.19.038.009.114.023.168.032zm-4.343.296c-.058.01-.058.047 0 .084.045.029.18-.023.18-.069 0-.032-.065-.037-.18-.015zm5.384.476c-.01.05-.01.05-.034-.007-.013-.032-.019-.072-.012-.09.018-.047.057.033.046.097zm-6.722.083c.015.024-.362.08-.47.069-.12-.012-.118-.061.002-.072.201-.018.456-.017.468.003zm2.987 1.722c-.038.123-.057.156-.088.156-.02 0-.03-.017-.025-.04.03-.157.036-.168.082-.168.038 0 .044.01.031.052zm5.89.293c.017.01.023.025.012.032-.031.019-.148-.01-.134-.033.016-.025.081-.025.122 0zm-6.086.054c0 .09-.023.146-.072.177-.068.042-.075.019-.021-.07a.325.325 0 0 0 .047-.118c0-.023.011-.04.024-.04.012 0 .023.023.022.051zm6.321.134c0 .044-.003.045-.058.009a.215.215 0 0 1-.058-.047c0-.005.026-.009.058-.009.043 0 .058.012.058.047z" fill="#263A53"/><path d="M21.901 9.979a.867.867 0 0 0-.196.04c-.075.038-.284.074-.531.09a.898.898 0 0 0-.313.059.766.766 0 0 1-.221.058 1.503 1.503 0 0 0-.267.058 3.04 3.04 0 0 1-.266.07 1.07 1.07 0 0 0-.22.067 1.34 1.34 0 0 1-.173.068 2.822 2.822 0 0 0-.267.11 10.3 10.3 0 0 1-.254.116 4.224 4.224 0 0 0-.44.227c-.02.015-.082.05-.14.08a1.06 1.06 0 0 0-.19.13.44.44 0 0 1-.104.08.83.83 0 0 0-.145.104.666.666 0 0 1-.151.104c-.014 0-.06.036-.104.08a.328.328 0 0 1-.103.082c-.1.002-1.147 1.196-1.147 1.308 0 .014-.031.056-.07.092-.038.037-.069.08-.069.095s-.035.08-.077.143a2.734 2.734 0 0 0-.167.309 2.783 2.783 0 0 1-.109.221 2.1 2.1 0 0 0-.204.456 1.093 1.093 0 0 1-.08.215.786.786 0 0 0-.068.186 3.547 3.547 0 0 1-.082.297 3.694 3.694 0 0 0-.089.336c-.013.07-.045.22-.071.335-.092.405-.05 2.1.055 2.266a.513.513 0 0 1 .047.165c.008.064.026.162.04.218.03.116-.04.21-.156.21-.03 0-.1.016-.155.034-.08.027-.14.03-.296.012a15.157 15.157 0 0 0-.567-.045c-.422-.027-.594-.053-.666-.104a.353.353 0 0 0-.17-.035c-.066 0-.223-.028-.348-.061a10.447 10.447 0 0 0-.363-.091.663.663 0 0 1-.162-.052 1.07 1.07 0 0 0-.223-.06 1.799 1.799 0 0 1-.295-.083 1.263 1.263 0 0 0-.233-.07.583.583 0 0 1-.192-.067.53.53 0 0 0-.208-.06.837.837 0 0 1-.193-.04 2.006 2.006 0 0 0-.232-.075 1.852 1.852 0 0 1-.234-.076 2.171 2.171 0 0 0-.313-.077 1.34 1.34 0 0 1-.302-.083c-.02-.017-.078-.031-.128-.031a2.16 2.16 0 0 1-.518-.09 2.146 2.146 0 0 0-.44-.06 4.684 4.684 0 0 1-.417-.037 12.87 12.87 0 0 0-.957-.09c-.385-.025-1.554.108-1.81.206-.064.024-.178.067-.255.094a1.746 1.746 0 0 0-.555.3.342.342 0 0 0-.105.111.277.277 0 0 1-.103.1c-.132.079-.144.285-.019.34.071.03.411.245.54.34l.297.216c.12.085.276.21.347.279.072.067.158.137.192.155a.356.356 0 0 1 .11.109.472.472 0 0 0 .118.122c.039.025.14.13.226.231.086.102.205.235.266.296.06.06.11.119.11.13a.44.44 0 0 0 .077.114c.043.05.148.2.235.332l.293.44c.16.235.506.9.506.968 0 .026.011.047.025.047.013 0 .05.059.082.13.031.072.083.164.114.205a.342.342 0 0 1 .057.093c0 .05.554.933.686 1.096.034.042.094.125.133.185.038.06.107.151.152.203.045.052.135.161.198.242.064.081.142.176.174.21.032.035.084.095.116.135.032.04.105.127.163.193.057.067.132.157.165.202.033.044.156.175.274.29.118.114.314.309.437.433.122.123.259.251.304.284.076.056.13.102.458.395.073.065.2.162.282.218.083.055.203.148.268.206.064.059.152.128.196.153.043.026.105.064.137.086.033.022.1.063.152.09.05.028.135.086.187.129a.433.433 0 0 0 .119.077c.012 0 .07.037.129.081a.512.512 0 0 0 .13.081c.035 0 .21.093.294.156.04.03.139.08.22.113a.97.97 0 0 1 .184.092c.049.043.39.21.572.277.08.03.175.071.21.09.1.055.284.13.409.168.063.02.147.048.185.065.091.04.333.115.52.161.082.02.166.052.186.07.02.018.142.049.272.068.13.02.263.052.294.073.033.021.165.05.307.068.138.017.297.049.354.07.06.022.255.052.451.07.543.046.823.097.823.15 0 .038 2.037.03 2.069-.009.04-.047.358-.104.728-.13.362-.026.393-.031.582-.093.07-.023.232-.048.36-.056.167-.011.256-.029.323-.063.051-.027.191-.063.311-.081.12-.018.23-.042.243-.053a.335.335 0 0 1 .106-.035c.09-.017.318-.093.432-.143a.388.388 0 0 1 .123-.032.71.71 0 0 0 .193-.072 2.31 2.31 0 0 1 .287-.116 2.56 2.56 0 0 0 .3-.122c.087-.043.185-.085.216-.095a.33.33 0 0 0 .105-.058.46.46 0 0 1 .139-.07c.05-.015.155-.067.231-.114.076-.047.253-.15.393-.23.363-.208.715-.441.824-.546.02-.02.045-.036.055-.036.01 0 .056-.031.102-.07.047-.039.131-.11.189-.156.057-.048.14-.124.185-.17a.762.762 0 0 1 .122-.105c.048-.026.442-.387.513-.47a10.6 10.6 0 0 1 .168-.184c.22-.237.412-.47.47-.568a.982.982 0 0 1 .104-.144c.082-.085.26-.318.297-.392a.391.391 0 0 1 .074-.102.35.35 0 0 0 .07-.11.704.704 0 0 1 .093-.15c.033-.04.089-.13.124-.201.035-.071.12-.223.187-.338a5.43 5.43 0 0 0 .224-.428c.055-.12.119-.245.142-.277a.651.651 0 0 0 .072-.163.556.556 0 0 1 .085-.168.396.396 0 0 0 .07-.174.829.829 0 0 1 .068-.214c.05-.097.091-.218.185-.532.021-.07.06-.174.085-.23.026-.058.058-.183.07-.279.013-.096.042-.21.065-.255a.8.8 0 0 0 .057-.22c.009-.077.041-.226.073-.332.032-.106.067-.304.078-.44.023-.284.064-.485.108-.538.045-.053.045-1.772 0-1.825-.05-.06-.088-.271-.11-.624a1.788 1.788 0 0 0-.042-.359c-.03-.036-.087-.274-.107-.442a.884.884 0 0 0-.072-.248.517.517 0 0 1-.055-.212.469.469 0 0 0-.054-.203 1.18 1.18 0 0 1-.086-.23.58.58 0 0 0-.06-.162.536.536 0 0 1-.059-.15 1.004 1.004 0 0 0-.093-.222.446.446 0 0 1-.065-.157.14.14 0 0 0-.046-.09c-.026-.02-.046-.048-.046-.058 0-.027-.322-.671-.343-.687a1.177 1.177 0 0 1-.164-.25c-.027-.054-.058-.098-.068-.098-.01 0-.041-.04-.068-.088a.64.64 0 0 0-.1-.133.557.557 0 0 1-.095-.138 1.119 1.119 0 0 0-.172-.22l-.538-.546a7.046 7.046 0 0 0-.55-.516 7.453 7.453 0 0 1-.24-.178 10.665 10.665 0 0 0-.151-.116 7.808 7.808 0 0 1-.162-.127 1.593 1.593 0 0 0-.209-.14 4.521 4.521 0 0 1-.22-.125 7.282 7.282 0 0 0-.185-.11 11.413 11.413 0 0 1-.208-.126c-.083-.05-.18-.1-.216-.109a.65.65 0 0 1-.15-.07 2.127 2.127 0 0 0-.282-.127 2.65 2.65 0 0 1-.27-.117 1.19 1.19 0 0 0-.207-.082 1.343 1.343 0 0 1-.206-.077.956.956 0 0 0-.174-.065 3.793 3.793 0 0 1-.231-.073 1.51 1.51 0 0 0-.255-.06.561.561 0 0 1-.181-.052.939.939 0 0 0-.267-.059 2.469 2.469 0 0 1-.397-.082c-.197-.062-1.451-.1-1.84-.055zm1.528.187a2.4 2.4 0 0 1 .429.058c.063.02.214.053.334.071.12.018.235.049.255.068a.537.537 0 0 0 .188.055c.125.018.387.102.589.19.025.011.098.032.162.045a.794.794 0 0 1 .195.072 1.9 1.9 0 0 0 .22.101c.44.17.531.295.309.427a.943.943 0 0 0-.104.07.353.353 0 0 1-.087.047c-.032.012-.059.032-.059.043 0 .011-.033.028-.074.036-.069.013-.071.017-.036.053.035.035.044.032.121-.036a.346.346 0 0 1 .108-.073.47.47 0 0 0 .124-.066 1.01 1.01 0 0 1 .26-.109l.161-.041.12.073c.066.04.128.074.138.074.01 0 .106.057.214.127.192.124.24.157.474.33.204.152.263.191.286.191.023 0 .07.043.472.417.47.438.801.81.993 1.117.034.054.114.163.178.242a1 1 0 0 1 .132.197.317.317 0 0 0 .057.1.834.834 0 0 1 .094.161c.03.064.077.148.107.187.029.04.06.104.067.144a.24.24 0 0 0 .058.112c.024.021.044.055.044.075 0 .05.071.239.106.281a.52.52 0 0 1 .058.139.852.852 0 0 0 .058.15.8.8 0 0 1 .055.162.75.75 0 0 0 .061.17c.02.029.054.138.078.242.023.105.059.232.079.283.02.05.036.127.036.169a.528.528 0 0 0 .036.158c.1.241-.149.287-.463.085a1.602 1.602 0 0 0-.312-.135 1.586 1.586 0 0 1-.22-.08c-.059-.047-.577-.116-.872-.116h-.307l.091.048c.066.034.165.053.348.067.187.015.289.035.382.076.07.03.169.063.221.071.162.026.649.253.908.423a.918.918 0 0 0 .18.102c.105 0 .25.412.276.776.048.708.005 2.066-.07 2.213a.758.758 0 0 0-.048.224c-.013.174-.099.584-.129.618a.263.263 0 0 0-.02.115.676.676 0 0 1-.035.187c-.019.05-.045.16-.058.242a1.079 1.079 0 0 1-.078.255 1.2 1.2 0 0 0-.082.232 1.03 1.03 0 0 1-.074.208 1.185 1.185 0 0 0-.076.197c-.058.203-.138.416-.167.445a.39.39 0 0 0-.056.116c-.036.11-.317.683-.344.7a.708.708 0 0 0-.083.14 3.31 3.31 0 0 1-.163.278c-.055.083-.107.18-.116.215-.052.209-.307.114-.347-.13a.43.43 0 0 0-.033-.12 1.65 1.65 0 0 1-.08-.185 1.75 1.75 0 0 0-.12-.249.344.344 0 0 1-.055-.13.345.345 0 0 0-.064-.133 1.093 1.093 0 0 1-.092-.152 1.625 1.625 0 0 0-.132-.205.844.844 0 0 1-.106-.167c0-.034-.195-.263-.304-.357a1.243 1.243 0 0 1-.182-.223c0-.01-.037-.034-.082-.053a.228.228 0 0 1-.107-.09.378.378 0 0 0-.137-.116.553.553 0 0 1-.143-.102c-.027-.038-.156-.089-.156-.061 0 .02.091.104.113.104.01 0 .06.048.107.107a.482.482 0 0 0 .154.13c.036.012.066.035.066.05 0 .014.047.077.105.139.058.062.154.182.213.266.06.084.122.167.137.183.065.067.3.464.402.677.04.082.086.176.104.208.072.131.176.386.198.485a1.3 1.3 0 0 0 .085.233c.134.275.106.41-.15.739a4.16 4.16 0 0 0-.191.261c-.092.152-1.083 1.161-1.25 1.275a3.334 3.334 0 0 0-.26.205.989.989 0 0 1-.175.136.5.5 0 0 0-.124.088c-.12.105-.31.236-.34.236a.626.626 0 0 0-.138.092.527.527 0 0 1-.146.093c-.016 0-.047.016-.07.036-.075.069-1.098.59-1.156.59a.274.274 0 0 0-.088.033 2.451 2.451 0 0 1-.499.19.883.883 0 0 0-.208.072c-.11.055-.353.128-.716.213a.915.915 0 0 0-.211.069 1.067 1.067 0 0 1-.26.059c-.126.018-.343.054-.483.08-.14.025-.359.055-.486.067-.128.012-.31.04-.404.06-.423.09-2.654.085-2.992-.007a2.41 2.41 0 0 0-.417-.062 2.401 2.401 0 0 1-.366-.046c-.3-.078-.426-.104-.512-.104a.423.423 0 0 1-.163-.037.904.904 0 0 0-.224-.058.882.882 0 0 1-.255-.08.928.928 0 0 0-.258-.081 1.08 1.08 0 0 1-.266-.08.541.541 0 0 0-.155-.057 1.6 1.6 0 0 1-.256-.081 2.438 2.438 0 0 0-.236-.081c-.011 0-.037-.015-.058-.032a1.376 1.376 0 0 0-.233-.108 1.666 1.666 0 0 1-.231-.104.753.753 0 0 0-.14-.067 2.04 2.04 0 0 1-.22-.106c-.063-.036-.25-.134-.415-.219-.282-.145-.924-.55-1.015-.642-.023-.023-.055-.042-.072-.042-.032 0-.269-.153-.293-.189a1.473 1.473 0 0 0-.14-.117c-.265-.204-.496-.396-.526-.438a.319.319 0 0 0-.092-.077 1.676 1.676 0 0 1-.213-.175 2.102 2.102 0 0 0-.208-.176.526.526 0 0 1-.115-.111.862.862 0 0 0-.143-.14.402.402 0 0 1-.113-.128.186.186 0 0 0-.08-.088.81.81 0 0 1-.165-.156 26.088 26.088 0 0 0-.48-.552 1.708 1.708 0 0 1-.184-.236.283.283 0 0 0-.083-.101.206.206 0 0 1-.071-.09.223.223 0 0 0-.084-.097.16.16 0 0 1-.07-.074 1.373 1.373 0 0 0-.145-.21c-.137-.173-.281-.38-.281-.403 0-.007-.047-.075-.105-.151a.7.7 0 0 1-.104-.168.437.437 0 0 0-.08-.13.394.394 0 0 1-.082-.142.39.39 0 0 0-.09-.143 1.202 1.202 0 0 1-.148-.227c-.091-.193-.178-.37-.225-.459a7.688 7.688 0 0 1-.12-.243 2.57 2.57 0 0 0-.114-.22c-.02-.031-.07-.12-.11-.196a3.709 3.709 0 0 0-.21-.336 4.1 4.1 0 0 1-.19-.29.446.446 0 0 0-.091-.121.68.68 0 0 1-.115-.158 1.404 1.404 0 0 0-.17-.228 12.8 12.8 0 0 1-.35-.4 3.193 3.193 0 0 0-.336-.356 1.731 1.731 0 0 1-.197-.171 3.07 3.07 0 0 0-.38-.325 2.096 2.096 0 0 1-.245-.188 3.48 3.48 0 0 0-.447-.301c-.232-.13-.243-.223-.045-.377a2.81 2.81 0 0 0 .159-.129c.02-.02.05-.035.065-.035s.098-.03.183-.066c.14-.058.265-.096.676-.203.07-.018.24-.043.377-.055.138-.012.26-.028.27-.034.113-.07 1.096-.08 1.485-.015.145.024.358.051.472.06.115.008.271.03.348.047.345.081.459.104.523.104.037 0 .128.02.2.046.074.026.22.057.327.07a.81.81 0 0 1 .271.067.903.903 0 0 0 .258.07c.1.014.254.051.343.082a.99.99 0 0 0 .265.058.46.46 0 0 1 .174.037c.038.02.148.056.243.08l.463.116c.16.04.31.085.336.101.025.016.13.043.231.06.102.016.247.054.323.084.075.03.18.055.234.055.053 0 .164.021.245.047.277.09 1.335.143 1.694.086.217-.035.259-.002.352.274.038.113.078.22.088.236.042.063.177.342.178.364 0 .013.037.074.081.137a.612.612 0 0 1 .081.136c0 .012.035.07.077.129.042.059.089.133.104.165.054.112.478.62.617.74.038.032.118.106.177.163.16.154.323.287.377.308.026.01.084.046.13.08.044.035.117.089.162.12.104.072.65.349.69.349.016 0 .089.03.161.066.073.037.18.074.237.083.057.009.168.046.245.083.098.046.205.073.348.09.113.012.283.044.378.07.302.083 1.516.052 1.773-.045.033-.013.136-.035.227-.049.091-.014.192-.039.224-.055s.141-.058.243-.092c.226-.077.74-.324.83-.4.038-.03.11-.076.163-.103a2.71 2.71 0 0 0 .434-.351.518.518 0 0 1 .139-.062c.108-.037.128-.053.153-.127.031-.09.063-.136.23-.327.267-.307.618-.932.68-1.212a.56.56 0 0 1 .056-.162c.048-.06.063-.12.082-.325.01-.108.036-.243.057-.3.098-.26.115-.75.031-.918l-.05-.1.062-.157c.076-.193.076-.182-.006-.21-.074-.026-.117-.13-.117-.282a.717.717 0 0 0-.07-.228.747.747 0 0 1-.07-.2c0-.028-.064-.176-.144-.327-.19-.362-.221-.413-.324-.535a.639.639 0 0 1-.087-.118c-.002-.054-.436-.452-.567-.52a.557.557 0 0 1-.128-.099.545.545 0 0 0-.154-.104.297.297 0 0 1-.123-.09c-.02-.037-.048-.048-.127-.048-.056 0-.108-.01-.115-.021a.687.687 0 0 0-.18-.07 28.47 28.47 0 0 1-.32-.094c-.476-.145-1.41-.142-1.84.005-.312.107-.474.062-.474-.132 0-.092-.01-.123-.047-.146-.06-.038-.068.11-.009.159.11.091.001.347-.188.443-.311.158-.82.719-.983 1.083-.065.146-.229.417-.251.417a.43.43 0 0 1-.091-.047.32.32 0 0 0-.134-.046c-.1 0-.03.09.085.107.122.02.115-.017.122.66.004.398.015.614.035.668.016.045.054.18.084.299.03.12.07.234.088.255.052.06.172.33.187.42.012.068.03.09.104.122a.35.35 0 0 1 .128.097c.02.032.05.058.067.058.016 0 .085.047.152.104a.544.544 0 0 0 .153.104c.017 0 .045.013.062.03a.763.763 0 0 0 .303.155.8.8 0 0 1 .19.08c.028.02.098.035.174.035.07 0 .217.012.326.024.238.027.657-.005.714-.055a.444.444 0 0 1 .14-.06 1.31 1.31 0 0 0 .447-.186c.238-.14.469-.365.54-.524a.486.486 0 0 1 .115-.164c.116-.084.127-1.176.015-1.393a1.339 1.339 0 0 1-.073-.176.836.836 0 0 0-.088-.18c-.052-.078-.056-.099-.042-.236.018-.17.013-.175-.093-.094-.073.056-.076.056-.13.015a1.175 1.175 0 0 0-.158-.095l-.214-.107a.517.517 0 0 0-.162-.056 1.09 1.09 0 0 1-.214-.057c-.252-.09-.61-.04-.939.127-.382.195-.65.97-.476 1.383.033.079.06.16.06.18 0 .037.195.239.322.332.156.115.372.169.47.117.073-.04-.004-.105-.19-.16-.39-.116-.665-.655-.525-1.03.02-.051.061-.166.094-.255.178-.49.793-.7 1.38-.473.134.052.26.109.279.126.02.018.078.061.13.097.1.069.286.27.286.312a.72.72 0 0 0 .06.143c.075.146.123.336.125.49.001.063.013.157.026.208.034.125.033.13-.025.392-.055.248-.07.288-.14.395-.024.038-.059.1-.077.139-.045.096-.291.328-.392.37-.046.019-.12.06-.164.09a.531.531 0 0 1-.18.07.587.587 0 0 0-.18.067c-.139.086-1.064.092-1.236.008a1.886 1.886 0 0 0-.213-.087.361.361 0 0 1-.13-.07c-.022-.024-.053-.043-.07-.043-.082 0-.437-.297-.538-.45a1.022 1.022 0 0 0-.117-.15c-.02-.017-.036-.042-.037-.057a.5.5 0 0 0-.07-.129.667.667 0 0 1-.083-.162 1.12 1.12 0 0 0-.063-.163c-.047-.098-.05-.141-.05-.73v-.624l.078-.209a1.93 1.93 0 0 1 .1-.235c.011-.014.05-.088.087-.163.093-.192.44-.655.49-.655.012 0 .058-.04.276-.243a.59.59 0 0 1 .15-.092.555.555 0 0 0 .14-.082.838.838 0 0 1 .22-.103c.095-.031.23-.078.3-.102.07-.025.216-.058.324-.072.108-.014.231-.037.273-.05.053-.017.16-.016.359.003l.48.044a.841.841 0 0 1 .312.076.887.887 0 0 0 .216.074c.189.03.858.374.908.468.016.03.043.056.058.056.085 0 .291.216.284.298-.007.078-.003.082.085.1.1.022.188.09.21.167.009.026.03.065.049.086.018.02.051.073.074.116.023.043.078.14.123.218.127.22.237.569.295.936.016.096.044.245.063.333.054.244.056 1.038.003 1.161-.022.05-.05.178-.061.283a.895.895 0 0 1-.08.301.873.873 0 0 0-.074.214c-.024.143-.15.301-.15.188 0-.011-.031-.033-.07-.049a.176.176 0 0 1-.096-.105c-.039-.107-.113-.126-.09-.024.01.04.034.1.055.132.184.281.006.669-.537 1.168-.41.376-.56.494-.779.612-.076.041-.217.12-.312.175-.096.055-.222.11-.28.124a1.347 1.347 0 0 0-.243.09c-.14.07-.177.082-.67.215-.282.077-1.12.126-1.362.08-.107-.02-.143-.1-.096-.213.063-.152.001-.14-.119.02-.128.173-.534.16-.96-.03a.968.968 0 0 0-.184-.068c-.04 0-.23-.072-.463-.176a1.592 1.592 0 0 0-.195-.078.358.358 0 0 1-.098-.06 1.879 1.879 0 0 0-.234-.138 1.728 1.728 0 0 1-.275-.177l-.286-.239c-.455-.38-.991-1.044-.994-1.23 0-.088.025-.1.216-.103a.8.8 0 0 0 .188-.019c.064-.025-.064-.049-.27-.049-.206 0-.323-.096-.463-.382a6.123 6.123 0 0 1-.343-1.01 1.567 1.567 0 0 0-.071-.255c-.03-.073-.052-.215-.068-.44a4.481 4.481 0 0 0-.038-.375c-.072-.238.029-1.635.127-1.76a.611.611 0 0 0 .037-.176c.009-.083.04-.208.07-.278.03-.07.06-.168.067-.217a.293.293 0 0 1 .048-.128.342.342 0 0 0 .05-.142.806.806 0 0 1 .094-.234.654.654 0 0 0 .078-.162c0-.018.043-.105.095-.194.053-.089.126-.224.163-.3.168-.35.627-.951.912-1.197.025-.022.113-.114.196-.205l.175-.193c.014-.014.059-.052.1-.084.042-.032.122-.094.177-.139a5.03 5.03 0 0 1 .182-.139c.046-.032.122-.093.17-.135a1.01 1.01 0 0 1 .18-.125 7.058 7.058 0 0 1 1.145-.585.848.848 0 0 0 .172-.071.178.178 0 0 1 .079-.033c.017 0 .11-.031.205-.07a.96.96 0 0 1 .26-.069.254.254 0 0 0 .147-.046c.067-.053.223-.063.293-.02.034.022.063.018.146-.021.095-.045.278-.09.585-.145.064-.012.366-.027.671-.035.306-.008.56-.02.567-.026.007-.007.06-.005.117.003.057.009.244.025.416.035zm2.107 1.457c0 .04.035.045.08.011.043-.03.042-.032-.017-.032-.035 0-.063.01-.063.021zm-.295.25a.335.335 0 0 1-.072.093c-.03.029-.045.053-.032.053a.411.411 0 0 0 .119-.093c.077-.077.085-.093.047-.093a.07.07 0 0 0-.062.04zm-.384.37c-.008.008-.015.036-.015.063.001.047.002.047.035.003.049-.064.033-.12-.02-.067zm-4.555.678c-.008.432-.003.721.015.74.029.028.03-.063.013-.59l-.019-.578-.009.428zM17.84 15.77c-.007.01.015.025.047.033a.34.34 0 0 1 .127.084c.048.05.088.068.143.067.075-.002.076-.002.018-.028a.941.941 0 0 1-.139-.088c-.088-.066-.178-.098-.197-.068zm-9.798.27c-.01.023.005.052.041.08.061.045.08.026.058-.062-.016-.064-.077-.076-.099-.019zm10.318.01c0 .086.294.223.352.165.038-.039.004-.068-.126-.109a1.324 1.324 0 0 1-.162-.06c-.052-.028-.064-.027-.064.005zm-10.123.226c.047.048.065.045.044-.007a.057.057 0 0 0-.049-.036c-.03 0-.029.006.005.043zm2.938.046c-.065.072-.045.104.032.05.038-.028.064-.06.056-.071-.02-.033-.045-.026-.088.02zm16.429-.021c-.173.028-.136.048.092.048.238 0 .322-.016.268-.05-.035-.022-.217-.021-.36.002zm-5.46 1.17c-.136.383-.253.534-.471.607-.203.068-.223.182-.027.152.293-.044.515-.288.566-.621.017-.113-.038-.223-.068-.137zm2.323 1.752c-.007.017-.001.057.012.09.024.056.024.056.034.006.01-.064-.027-.145-.046-.096zm-7.144.176c-.12.01-.121.06-.003.072.109.01.486-.045.471-.07-.012-.019-.267-.02-.468-.002zm3.363 1.736-.021.104c-.012.06.054.05.077-.011.054-.143.054-.156.005-.156-.033 0-.052.019-.061.063zm5.86.281c-.015.023.103.052.134.033.025-.016-.031-.053-.082-.053-.022 0-.045.009-.052.02zm-6.01.043a.325.325 0 0 1-.047.119c-.054.089-.047.112.02.07.066-.042.107-.23.05-.23-.012 0-.023.02-.023.041zm6.251.108c0 .005.026.026.058.047.055.036.058.035.058-.01 0-.034-.015-.046-.058-.046-.032 0-.058.004-.058.009z" fill="#404040"/></g></svg>