<svg height="36" viewBox="0 0 36 36" width="36" xmlns="http://www.w3.org/2000/svg"><mask id="a" fill="#fff"><path d="M0 0h1.914v5.302H0z" fill-rule="evenodd"/></mask><g fill="none" fill-rule="evenodd"><path d="M18 0c2.837 0 5.52.656 7.907 1.825C31.884 4.753 36 10.895 36 18c0 9.942-8.058 18-18 18-9.94 0-18-8.057-18-18C0 8.06 8.06 0 18 0z" fill="#f2f4f7" fill-rule="nonzero"/><path d="M31.123 18.695h.27v-.606l.607-.92h-.308l-.434.677-.425-.677h-.317l.607.924zm-1.928 0h.27v-1.278h.487v-.252h-1.237v.247h.485v1.283zm-1.792 0h1.069v-.242h-.803v-1.288h-.266zm-.984-.606-.261-.612-.262.612zm-.383-.934h.248l.672 1.536h-.285l-.154-.369h-.724l-.158.37h-.276zm-2.212 1.54h1.143v-.237h-.872v-.41h.765v-.239h-.765v-.397h.863v-.238h-1.13zm-1.092-.774c.19 0 .317-.098.317-.252v-.005c0-.163-.116-.252-.317-.252h-.387v.513zm-.658-.756h.677a.609.609 0 0 1 .443.154.453.453 0 0 1 .126.317v.024c0 .252-.15.4-.364.462l.41.578h-.317l-.373-.536h-.336v.531h-.266zm-2.496 1.526h1.068v-.243h-.798v-1.283h-.266zm-1.013-.607-.261-.61-.262.61zm-.383-.929h.248l.672 1.536h-.281l-.154-.369h-.728l-.158.37h-.276zm-1.573 1.536h.266v-1.274h.486v-.248h-1.237v.248h.485zm-1.264 0h.266v-1.526h-.266zm-2.04-.757c0 .444.318.784.794.784a.958.958 0 0 0 .634-.237v-.64h-.648v.234h.387v.284a.634.634 0 0 1-.364.117h-.005c-.308 0-.518-.228-.518-.546v-.005c0-.293.215-.536.495-.536h.019c.158 0 .303.06.41.163l.169-.2a.805.805 0 0 0-.59-.206h-.008a.776.776 0 0 0-.774.78v.013zm-.793.761h.266V17.17h-.266zm-1.311-.247c.322 0 .527-.215.527-.514v-.004c0-.298-.205-.518-.527-.518h-.3v1.036zm-.565-1.279h.57c.48 0 .812.327.812.756v.005c0 .43-.332.765-.812.765h-.57z" fill="#6f7271"/><path d="m8.508 18.584-.327.065v-1.321l.327.024zm-.332.536-.326.099v-.505l.326-.065zm-.653-2.057.327.037v.485l-.327-.005zm0 1.946-.327.079v-1.041l-.326.023v-.504l.326.005v.476l.327-.024zm-.658-.089-.326.065v-.592l.326-.038zm-.326-2.226.326.046v.546l-.326-.018zm.653-.756.327.098v.541l-.327-.065zm.984-.164v.448l.327.098v.453l-.327-.065v-.393l-.326-.079v-.597l-.985-.383v.906l-.326-.079v-.957L6.212 15v5.441l.327-.135v-.696l.326-.097v.662l1.965-.803v-3.351z" fill="#378aca"/><path d="M0 .994v3.299l1.914 1.009V0z" fill="#1d48a4" mask="url(#a)" transform="translate(4 15.056)"/></g></svg>