<svg height="36" viewBox="0 0 36 36" width="36" xmlns="http://www.w3.org/2000/svg"><mask id="a" fill="#fff"><path d="M.198.16h.604v.68H.198z" fill-rule="evenodd"/></mask><g fill="none" fill-rule="evenodd"><path d="M18 0c2.837 0 5.52.656 7.907 1.825C31.884 4.753 36 10.895 36 18c0 9.942-8.058 18-18 18-9.94 0-18-8.057-18-18C0 8.06 8.06 0 18 0z" fill="#f2f4f7" fill-rule="nonzero"/><path d="M17.446 17.242v2.625c-.018.65-.03.664-.042.685-.024.024-.035.052-.07.087-.028.024-.07.077-.115.088-.035.024-.066.049-.087.049 0 .01-.014.01-.035.01 0 0-.014.01-.025.01-.01.015-.01.015 0 .025h1.996v-.025c-.014-.01-.014-.01-.035-.01-.025-.01-.035-.024-.077-.045-.035-.025-.08-.078-.112-.102-.045-.045-.056-.087-.07-.108-.01-.025-.02-.035-.02-1.041v-5.051l-1.734 1.72c.112-.05.272-.021.35.073.076.084.076.269.076 1.01" fill="#231f20"/><path d="M12.98 15.967c0-.173.009-.344.026-.512l4.43-4.429a5.087 5.087 0 0 1 1.218.024l-5.624 5.624a4.997 4.997 0 0 1-.05-.707m1.72 3.759a4.876 4.876 0 0 1-.612-.632l2.712-2.711c.11-.048.316-.022.392.072.055.076.055.139.062.717zm6.375-7.619c.228.185.44.39.631.612l-2.735 2.736v-1.244zm-.962-.612c.273.133.533.29.775.468l-6.944 6.945a4.876 4.876 0 0 1-.468-.776zm-1.178-.397c.33.067.648.166.951.294l-6.514 6.514a4.927 4.927 0 0 1-.294-.951zM13.06 15.07a4.971 4.971 0 0 1 3.99-3.99z" fill="#6bc856"/><path d="M21.83 19.018c-.185.23-.388.443-.609.638l-2.257-2.257v-1.246zm.622-.928c-.13.27-.255.506-.431.748l-3.05-3.05.589-.59zm.389-1.183a4.932 4.932 0 0 1-.288.953l-2.829-2.828.622-.62zm-1.543-3.447.56-.561c.479.609.832 1.317.984 2.107zm-.165.165 1.769 1.77a5.132 5.132 0 0 1-.014 1.229l-2.377-2.377z" fill="#0faa4b"/><g fill="#0a974b"><path d="m23.367 22.636-.417 2.011-.878.001.414-2.01-.81.001.146-.695h2.493l-.142.692zM30.193 24l1.16-.002-.133.647h-2.044l.56-2.704h2.007l-.133.645-1.125.001-.074.362h1.041l-.135.645h-1.04zm-2.44 0h1.16l-.133.646h-2.043l.558-2.705h2.008l-.133.646h-1.123l-.075.363h1.04l-.135.645h-1.04zm-2.671-.332-.203.98h-.88l.562-2.706h1.289c.437 0 .562.058.673.14a.551.551 0 0 1 .214.454.835.835 0 0 1-.518.772c.147.091.223.24.223.426l-.001.052-.03.423c-.001.023-.003.045-.003.07 0 .06.007.135.03.267l.017.1h-.098l-.739.001h-.064l-.016-.065a.647.647 0 0 1-.022-.176c0-.039.002-.086.006-.145l.036-.423.002-.03c0-.094-.036-.14-.165-.14zm.133-.646h.337a.301.301 0 0 0 .303-.236.26.26 0 0 0 .005-.047.146.146 0 0 0-.035-.1c-.021-.027-.04-.047-.158-.047h-.362zm-14.409.936h1.09l-.142.69h-1.97l.56-2.705h.878zm2.22 0h1.09l-.142.688-1.97.001.56-2.704h.878zm-4.886.761h-.016c-.159 0-.217-.014-.257-.023-.01-.003-.014-.003-.017-.005-.276-.047-.469-.161-.613-.344-.126-.161-.206-.38-.206-.669 0-.124.014-.259.044-.408.18-.859.806-1.384 1.6-1.385.436 0 .69.125.873.335.148.169.24.395.24.706 0 .126-.015.266-.047.42a1.757 1.757 0 0 1-.504.935c-.275.264-.597.435-1.098.438m.112-.674c.203 0 .497-.153.621-.759.025-.118.036-.219.035-.303 0-.339-.164-.427-.326-.427-.215 0-.51.155-.637.766a1.512 1.512 0 0 0-.036.311c0 .327.153.412.343.412M4 24.65l.561-2.703 1.281-.001c.391 0 .72.17.878.394.101.144.166.352.166.608 0 .109-.012.228-.039.355-.096.47-.313.8-.571 1.013a1.465 1.465 0 0 1-.976.334zm1.015-.648L5.202 24a.69.69 0 0 0 .528-.217 1.049 1.049 0 0 0 .275-.705c-.001-.32-.183-.48-.483-.48h-.217zm13.603-.335-.203.978-.877.001.559-2.705h1.289c.437 0 .562.058.674.14a.553.553 0 0 1 .212.454.832.832 0 0 1-.517.772.471.471 0 0 1 .223.426c0 .017 0 .035-.002.052l-.03.423-.002.07c0 .06.007.135.03.267l.017.1h-.901l-.015-.064a.607.607 0 0 1-.023-.177c0-.038.002-.085.007-.143l.035-.424.002-.03c0-.094-.035-.14-.165-.14zm.133-.647h.338a.3.3 0 0 0 .302-.235.198.198 0 0 0 .005-.047.146.146 0 0 0-.034-.1c-.021-.026-.041-.048-.158-.048l-.363.001zm-3.366 1.11-.295.517h-.877l1.646-2.705h.92l.508 2.704h-.912l-.085-.516zm.373-.646.425.001c-.026-.18-.055-.432-.077-.65-.09.183-.2.392-.348.65z"/><path d="M.716.252a.296.296 0 0 1 .085.21c0 .085-.03.159-.088.216A.298.298 0 0 1 .286.674.299.299 0 0 1 .29.247a.302.302 0 0 1 .427.005zM.321.278a.258.258 0 1 0 .361.367.242.242 0 0 0 .076-.177.261.261 0 0 0-.074-.186A.255.255 0 0 0 .5.205a.25.25 0 0 0-.179.073zm.186.01C.602.289.65.322.65.382.65.43.623.463.574.474L.65.627H.57L.501.485H.45v.14H.377V.289zM.45.44h.048C.55.44.575.425.575.389.575.35.55.334.493.334H.45z" mask="url(#a)" transform="translate(31.2 23.88)"/></g></g></svg>