<svg height="36" viewBox="0 0 36 36" width="36" xmlns="http://www.w3.org/2000/svg"><g fill="none" fill-rule="evenodd"><path d="M18 0c2.837 0 5.52.656 7.907 1.825C31.884 4.753 36 10.895 36 18c0 9.942-8.058 18-18 18-9.94 0-18-8.057-18-18C0 8.06 8.06 0 18 0z" fill="#f2f4f7" fill-rule="nonzero"/><path d="M4 25.329h28.001V11H4z" fill="#007481"/><path d="M25.882 21.386h-2.094V18.33h2.385c1.04 0 1.766.585 1.766 1.422 0 .405 0 1.634-2.057 1.634zm-2.094-6.443h1.772c.623 0 1.089.106 1.384.314.193.136.449.394.449 1.056 0 1.186-.934 1.278-1.22 1.278h-2.385zm4.669 5.9c.147-.312.22-.68.22-1.091 0-.625-.265-1.187-.75-1.584a2.288 2.288 0 0 0-.413-.27l-.04-.02.034-.03c.285-.251.624-.721.624-1.535 0-.744-.256-1.303-.762-1.66-.428-.302-1.02-.45-1.81-.45h-2.271a.24.24 0 0 0-.24.24v7.442c0 .133.107.24.239.24h2.594c.817 0 1.472-.175 1.946-.52.275-.2.486-.456.629-.761zm-7.412 1.317a.216.216 0 0 0 .071-.012.224.224 0 0 0 .156-.215V11h-.74v9.45l-4.874-6.212a.229.229 0 0 0-.254-.081.226.226 0 0 0-.156.215v10.957h.741v-9.47l4.872 6.208a.23.23 0 0 0 .184.093m-10.807-.774H8.584v-6.443h1.654c.608 0 1.46.158 2.072.908.657.806.708 2.01.708 2.36 0 .523-.092 1.513-.708 2.268-.612.75-1.464.907-2.072.907m2.645-.44c.76-.932.874-2.113.874-2.734 0-.528-.085-1.861-.874-2.828a3.072 3.072 0 0 0-1.25-.92 3.69 3.69 0 0 0-1.395-.26H8.084a.24.24 0 0 0-.24.24v7.44c0 .134.108.24.24.24h2.154a3.69 3.69 0 0 0 1.394-.26c.496-.2.917-.508 1.251-.918" fill="#fefefe"/></g></svg>