<svg width="36" height="36" fill="none" xmlns="http://www.w3.org/2000/svg"><path d="M18 0c2.837 0 5.52.656 7.907 1.825C31.884 4.753 36 10.895 36 18c0 9.942-8.058 18-18 18-9.94 0-18-8.057-18-18C0 8.06 8.06 0 18 0z" fill="#F2F4F7"/><path d="M31.657 13.648c-3.325-1.402-8.188-2.175-13.608-2.175s-10.283.773-13.608 2.175v9.16c3.325 1.403 8.188 2.176 13.608 2.176s10.283-.773 13.608-2.175v-9.16z" fill="#fff"/><path d="M4.862 14.045C8.112 12.78 12.775 11.83 18 11.83s9.888.95 13.139 2.216v8.293C27.887 23.604 23.224 24.52 18 24.52s-9.888-.915-13.138-2.18v-8.294zm26.876-.658C28.37 12.012 23.492 11 18 11c-5.492 0-10.37 1.012-13.738 2.387L4 13.495v9.394l.262.107C7.63 24.372 12.508 25.348 18 25.348c5.492 0 10.371-.976 13.738-2.352L32 22.89v-9.394l-.262-.108z" fill="#EE3124"/><path d="M9.955 16.646h.811c.951 0 1.59.618 1.59 1.552 0 .91-.639 1.52-1.59 1.52h-.81v-3.072zm.811-1.515H8.26v6.103h2.506c1.938 0 3.345-1.283 3.345-3.068 0-1.758-1.407-3.035-3.345-3.035zm8.179 3.153-2.483-3.153h-1.495v6.103h1.678v-3.267l2.576 3.267h1.402v-6.103h-1.678v3.153zm5.877 1.543c-.94 0-1.702-.737-1.702-1.644 0-.909.762-1.645 1.702-1.645s1.701.736 1.701 1.645c0 .907-.762 1.644-1.701 1.644zm.008-4.794c-1.88 0-3.352 1.384-3.352 3.165 0 1.787 1.433 3.134 3.335 3.134 1.88 0 3.353-1.383 3.353-3.166 0-1.786-1.434-3.133-3.336-3.133z" fill="#005288"/><path d="M14.317 22.392h.77v.157h-.588v.26h.52v.159h-.52v.27h.595v.157h-.777v-1.004zm1.013.856.109-.126c.1.083.2.13.328.13.112 0 .184-.051.184-.126v-.003c0-.071-.042-.11-.235-.153-.22-.051-.345-.115-.345-.3v-.002c0-.172.148-.291.354-.291.152 0 .272.044.377.126l-.098.133a.482.482 0 0 0-.282-.103c-.107 0-.169.053-.169.119v.003c0 .077.047.112.248.157.22.052.332.128.332.294v.003c0 .188-.153.3-.37.3a.653.653 0 0 1-.434-.161zm1.292-.694h-.329v-.163h.843v.164h-.33v.84h-.184v-.84zm1.016.327h.552v.17h-.552v-.17zm1.224-.318-.186.05-.039-.143.28-.086h.127v1.01h-.182v-.831zm1.097.15v-.002c0-.105-.084-.185-.217-.185-.129 0-.206.083-.206.186v.003c0 .105.083.18.212.18.132 0 .211-.084.211-.182zm.007.221a.307.307 0 0 1-.245.108c-.22 0-.367-.125-.367-.319v-.002c0-.197.157-.347.387-.347a.39.39 0 0 1 .29.106c.075.075.124.185.124.383v.002c0 .323-.165.546-.445.546a.503.503 0 0 1-.332-.12l.099-.135a.36.36 0 0 0 .237.095c.184 0 .25-.184.252-.317zm.88-.388h-.522v-.155h.73v.133l-.467.87h-.207l.466-.848zm.622.017-.187.05-.039-.143.28-.086h.127v1.01h-.181v-.831z" fill="#EE3124"/></svg>