<svg height="36" viewBox="0 0 36 36" width="36" xmlns="http://www.w3.org/2000/svg"><mask id="a" fill="#fff"><path d="M0 0h27v9.491H0z" fill-rule="evenodd"/></mask><g fill="none" fill-rule="evenodd"><path d="M18 0c2.837 0 5.52.656 7.907 1.825C31.884 4.753 36 10.895 36 18c0 9.942-8.058 18-18 18-9.94 0-18-8.057-18-18C0 8.06 8.06 0 18 0z" fill="#f2f4f7" fill-rule="nonzero"/><path d="M14.854 13.363c-.037-.066-.185-.026-.295.046s-.199.189-.14.25.136-.076.246-.148c.109-.072.226-.082.189-.148m.43-.317c.842 0 1.528.656 1.528 1.46s-.686 1.462-1.528 1.462c-.841 0-1.528-.656-1.528-1.461s.687-1.461 1.528-1.461" fill="#009a42"/><path d="M3.625 5.4c.454 0 .824.392.824.872s-.37.871-.824.871-.824-.391-.824-.871.37-.872.824-.872zm7.723 3.959H8.289l.001-6.27h.246c.289.331.756.547 1.282.547.527 0 .994-.216 1.284-.547h.246zm7.989 0h-3.059v-3.66c0-.246-.151-.37-.452-.37s-.452.124-.452.37v3.66h-3.059V3.043h2.936v.806a2.24 2.24 0 0 1 .411-.462c.41-.318.917-.476 1.519-.476.835 0 1.423.234 1.766.7.26.352.39.855.39 1.507zm4.295-4.1c.503 0 .914.393.914.874 0 .482-.411.874-.914.874-.504 0-.914-.392-.914-.874 0-.481.41-.874.914-.874zm0-2.346C25.487 2.913 27 4.36 27 6.133c0 1.774-1.513 3.221-3.368 3.221s-3.367-1.446-3.367-3.221c0-1.773 1.512-3.22 3.367-3.22zM7.247 9.359H4.311v-.767a2.814 2.814 0 0 1-.473.45 2.401 2.401 0 0 1-1.416.449c-.821 0-1.43-.29-1.827-.872C.198 8.038 0 7.232 0 6.201 0 5.153.232 4.342.697 3.77c.466-.573 1.164-.859 2.095-.859.342 0 .677.079 1.005.238.11.053.24.136.39.251V0h3.06z" fill="#e30613" mask="url(#a)" transform="translate(5 13)"/></g></svg>