<svg height="36" viewBox="0 0 36 36" width="36" xmlns="http://www.w3.org/2000/svg"><mask id="a" fill="#fff"><path d="M0 0h15.176v7.856H0z" fill-rule="evenodd"/></mask><g fill="none"><path d="M18 0c2.837 0 5.52.656 7.907 1.825C31.884 4.753 36 10.895 36 18c0 9.942-8.058 18-18 18-9.94 0-18-8.057-18-18C0 8.06 8.06 0 18 0z" fill="#f2f4f7"/><path d="M15.757 18.173c0 .355-.07.702-.51.702s-.439-.409-.439-.725v-1.349h-.848v1.519c0 .74.155 1.303 1.018 1.303.416 0 .694-.224.802-.44h.007v.378h.818v-2.76h-.848zm-3.03-.686c.177 0 .331.093.416.208l.563-.585c-.27-.27-.655-.37-.98-.37-.847 0-1.526.57-1.526 1.441 0 .879.679 1.45 1.527 1.45.324 0 .717-.1.979-.37l-.563-.594a.525.525 0 0 1-.416.208c-.424 0-.679-.285-.679-.702 0-.408.255-.686.679-.686zm-3.3 1.396c-.424 0-.678-.286-.678-.702s.254-.694.678-.694c.424 0 .679.286.679.694 0 .416-.255.702-.679.702zm0-2.143c-.848 0-1.526.57-1.526 1.441 0 .879.678 1.45 1.526 1.45s1.534-.571 1.534-1.45c-.007-.879-.686-1.441-1.534-1.441zm-4.086 2.004H4.88v-2.382h.524c.748 0 1.38.37 1.38 1.156 0 .91-.617 1.226-1.442 1.226zm-.015-3.2H4v4.01h1.442c1.195 0 2.258-.694 2.258-1.997 0-1.457-1.079-2.012-2.374-2.012" fill="#2c59a8"/><path d="M14.536 6.576v-.162h.077c.062 0 .139 0 .139.077s-.07.077-.139.077zm.316-.077c0-.108-.061-.17-.2-.17h-.224v.57h.108v-.23h.077l.139.23h.108l-.147-.238c.085-.008.14-.062.14-.162zm-.231.532c-.224 0-.409-.185-.409-.409s.185-.408.409-.408c.231 0 .409.185.409.408a.402.402 0 0 1-.41.409zm0-.91a.5.5 0 1 0 0 1.002.5.5 0 1 0 0-1.002zm-.131-1.835c0-.069-.077-.2-.177-.2-.062 0-.802.902-1.118.902-.27 0 0-.563 0-.925 0-.378-.062-.702-.44-.702-.509 0-1.24.655-1.41.756.077-.147.1-.216.1-.316 0-.193-.247-.417-.44-.417-.17 0-1.064.463-1.064 1.049 0 .146.532-.37.756-.3-.17.215-.61.731-.61.924 0 .077.016.147.047.193h-.247v.277h1.342V5.25h-.632c.5-.347 1.387-1.31 1.85-1.31.324 0-.03.924.247 1.31h-.84v.277h1.348v-.13c.409-.124 1.288-.74 1.288-1.11zM6.912 2.112c.17 0 .3-.146.3-.331 0-.178-.138-.324-.3-.324a.318.318 0 0 0-.309.324c.008.185.14.331.309.331zm6.915 3.138h1.349v.277h-1.35zm-9.876 0h1.35v.277H3.95zM7.035 7.3c-.085 0-.139-.038-.139-.23 0-.625 1.303-1.512 1.758-1.512-.27.57-1.38 1.743-1.619 1.743zm.493-2.466c-.146-.147 1.334-1.326 1.774-1.265-.162.517-1.627 1.411-1.774 1.265zm-6.175.682.178-.082zm7.902-.204c.2-.262.764-1.635.764-1.835 0-.332-.301-.509-.625-.509-1.072 0-2.798 1.827-3.16 1.827-.41 0 .223-.871.223-1.218 0-.224-.2-.463-.363-.463-.316 0-1.31.949-1.965 1.165.146-.247.215-.51.215-.656 0-1.164-3.307-.732-3.307-1.387 0-.586 2.066-1.604 3.284-1.604.17 0 1.288.07 1.288.463 0 .146-.24.192-.24.339 0 .146.124.17.27.17.216 0 .363-.193.363-.44C6.002.2 5.139 0 4.445 0 2.656 0 .528 1.557.528 2.259c0 .925 3.015.755 3.015 1.58 0 .617-1.241 1.203-2.19 1.611v-.2H.004v.277h1.172c-.44.193-.863.378-.863.448 0 .246.17.223.362.216.37 0 1.226-.34 1.958-.664h.694V5.25H3.25c1.195-.632 2.32-1.372 2.482-1.534.023.509-.193.994-.193 1.21 0 .216.155.494.386.509v.092h1.349v-.285h-.902c.193-.13.432-.308.717-.462-.023.17.123.44.316.44.416 0 1.68-1.026 1.92-1.196-.054.463-.355.995-.525 1.203a1.452 1.452 0 0 0-.408-.054.576.576 0 0 0-.224.062h-.277v.17c-.602.439-1.396 1.402-1.396 1.919 0 .27.147.532.417.532.37 0 1.711-1.11 2.197-2.228.216.023.57.185.57.015 0-.162-.231-.285-.424-.331" fill="#000" mask="url(#a)" transform="translate(16.824 14.072)"/></g></svg>