<svg width="36" height="36" fill="none" xmlns="http://www.w3.org/2000/svg"><path d="M18 0c2.837 0 5.52.656 7.907 1.825C31.884 4.753 36 10.895 36 18c0 9.942-8.058 18-18 18-9.94 0-18-8.057-18-18C0 8.06 8.06 0 18 0z" fill="#F2F4F7"/><path d="M16.375 4h3.25v1.723a13 13 0 0 1 11.35 12.09h-3.258a9.75 9.75 0 0 0-8.092-8.8v1.65A8.124 8.124 0 0 1 25.962 17h-2.51a5.687 5.687 0 0 0-10.904 0H10.03a8.126 8.126 0 0 1 6.346-6.338V9.014a9.75 9.75 0 0 0-8.093 8.8h-3.25a13 13 0 0 1 11.343-12.09V4z" fill="#EF8114"/><path d="M22.843 25.125a8.184 8.184 0 0 0 2.16-2.438h-5.378V20.25h6.321c.17-.8.222-1.622.155-2.438H9.899a8.473 8.473 0 0 0 .163 2.438h6.313v2.438h-5.379a8.185 8.185 0 0 0 2.162 2.437h3.217v3.136a9.75 9.75 0 0 1-8.125-8.823H5c.398 6.8 6.061 12.187 13 12.187s12.602-5.387 13-12.188h-3.25a9.75 9.75 0 0 1-8.125 8.824v-3.136h3.218z" fill="#033C90"/></svg>