<svg width="36" height="36" fill="none" xmlns="http://www.w3.org/2000/svg"><path d="M18 0c2.837 0 5.52.656 7.907 1.825C31.884 4.753 36 10.895 36 18c0 9.942-8.058 18-18 18-9.94 0-18-8.057-18-18C0 8.06 8.06 0 18 0z" fill="#F2F4F7"/><path d="M18.352 18.837c-.009-.187-.014-.378-.023-.575l.252.014c.084.005.168.005.252.005.084 0 .168-.005.252-.01.084-.009.168-.009.252-.009.122 0 .243.014.355.038a.82.82 0 0 1 .294.116c.084.056.15.127.2.215a.71.71 0 0 1 .075.332c0 .14-.032.26-.093.364a.864.864 0 0 1-.233.252 1.264 1.264 0 0 1-.294.154 1.65 1.65 0 0 1-.285.074c.037.042.084.108.145.187.06.08.13.168.205.262.075.093.154.195.238.298.084.103.163.206.238.299.075.093.15.182.215.261.065.08.121.14.163.182-.047-.004-.089-.009-.13-.009h-.257a.99.99 0 0 0-.126.01c-.042-.061-.112-.155-.201-.28a22.27 22.27 0 0 0-.299-.398c-.107-.14-.22-.28-.331-.42a5.397 5.397 0 0 0-.313-.354h-.168v.322c0 .196.005.387.01.574.009.187.013.373.023.555a3.018 3.018 0 0 0-.215-.009c-.075 0-.15.005-.215.01.01-.183.019-.37.024-.556.009-.187.009-.378.009-.574v-.761a22.31 22.31 0 0 0-.019-.57zm.51.84c.046.004.102.004.163.004.093 0 .186-.009.284-.032a.765.765 0 0 0 .27-.108.663.663 0 0 0 .206-.205.596.596 0 0 0 .08-.327.571.571 0 0 0-.066-.285.5.5 0 0 0-.163-.177.639.639 0 0 0-.22-.088 1.365 1.365 0 0 0-.233-.024c-.102 0-.186 0-.256.005l-.173.014c-.005.163-.014.322-.019.48-.005.16-.01.318-.01.477v.252l.136.014zm1.992-.85c-.01-.187-.014-.378-.023-.565l.396.014c.131.005.262.005.397.005.131 0 .262 0 .392-.005l.392-.014a.624.624 0 0 0 0 .262c-.093-.005-.182-.014-.256-.019a15.944 15.944 0 0 0-.532-.032c-.103-.005-.23-.005-.37-.005-.004.093-.004.182-.009.27-.004.085-.004.183-.004.29v.336c0 .107.005.191.005.247.13 0 .247 0 .35-.004.102-.005.196-.005.284-.01a29.342 29.342 0 0 0 .444-.028.636.636 0 0 0 0 .266c-.075-.009-.164-.014-.266-.023-.103-.005-.201-.01-.304-.01-.102 0-.196-.004-.284-.004h-.215c0 .028 0 .056-.005.084v.971c0 .107.005.191.005.247h.308c.112 0 .22 0 .331-.004.108-.005.21-.01.304-.02.093-.008.177-.018.247-.032a.282.282 0 0 0-.01.07v.07c0 .047.005.084.015.117-.13-.005-.266-.01-.397-.01h-.803c-.13 0-.266.005-.401.01.01-.187.018-.378.023-.565.01-.187.01-.378.01-.574v-.76a11.844 11.844 0 0 1-.024-.575zm4.57 2.469c-.043-.004-.08-.009-.117-.009h-.234c-.037 0-.074.005-.116.01a3.156 3.156 0 0 0-.084-.248c-.038-.093-.075-.196-.117-.299-.042-.102-.084-.21-.13-.317a10.48 10.48 0 0 0-.127-.308c-.093-.005-.191-.005-.284-.005h-.56c-.09 0-.178.005-.271.005-.093.229-.182.448-.257.658a7.346 7.346 0 0 0-.172.513 1.708 1.708 0 0 0-.164-.009c-.06 0-.112.005-.163.01.238-.514.471-1.027.7-1.536.229-.509.453-1.027.686-1.555h.084c.07.173.15.355.229.556l.252.602c.084.205.172.406.256.607.084.2.164.387.243.56.075.173.145.327.206.462.05.13.098.233.14.303zm-1.96-1.372c.074 0 .153 0 .237.005.084.005.164.005.238.005h.248c.084 0 .163-.005.247-.005l-.49-1.12-.48 1.115zm2.258-1.087c-.01-.187-.014-.378-.023-.575l.112.014c.037.005.07.005.107.005.038 0 .07 0 .108-.005l.112-.014c-.01.197-.019.383-.024.575-.009.186-.009.378-.009.574 0 .373 0 .69.005.966.004.27.004.518.009.733.21 0 .41 0 .602-.005s.397-.023.616-.051a.553.553 0 0 0-.023.13c0 .033.01.07.023.122-.135-.005-.27-.01-.406-.01h-.83c-.131 0-.267.005-.407.01.01-.182.019-.37.024-.556.009-.186.009-.378.009-.574v-.76c.005-.201 0-.393-.005-.58zm2.301-.346h-.242c-.084 0-.168.005-.252.01l-.243.014c-.08.004-.15.014-.21.023a.547.547 0 0 0 .023-.14c0-.033-.01-.08-.023-.136l.57.014c.186.005.373.005.569.005.196 0 .383 0 .57-.005l.569-.014a.713.713 0 0 0-.024.14c0 .038.01.084.024.136-.061-.01-.131-.014-.21-.023a71.25 71.25 0 0 0-.243-.015 4.514 4.514 0 0 0-.252-.009h-.243c-.01.303-.014.607-.014.915v.76c0 .197.005.388.01.575.009.187.013.373.023.555-.07-.004-.14-.009-.215-.009-.075 0-.15.005-.215.01.01-.183.019-.37.024-.556.009-.187.009-.378.009-.574v-.761c.01-.303.005-.611-.005-.915zm2.418 1.349-.191-.317c-.07-.117-.145-.238-.22-.37l-.22-.368-.186-.313-.126-.21.122.014c.042.005.079.005.12.005.043 0 .085 0 .122-.005l.122-.014a54.312 54.312 0 0 0 .84 1.53c.065-.106.14-.223.21-.349a9.69 9.69 0 0 0 .22-.387 6.95 6.95 0 0 0 .21-.402c.07-.135.13-.265.19-.392.075.014.131.024.173.024.042 0 .098-.01.173-.024l-.378.584c-.112.173-.21.331-.294.471-.084.14-.159.271-.224.383a5.513 5.513 0 0 0-.168.308v.35c0 .122.005.247.005.364.004.121.004.229.009.332l.014.247c-.07-.005-.14-.01-.215-.01-.075 0-.15.005-.215.01a5.85 5.85 0 0 0 .033-.555c.005-.22.005-.448.005-.687-.028-.05-.075-.126-.13-.219z" fill="#409629"/><path d="M10.544 20.844a1.254 1.254 0 0 1-.402.41.985.985 0 0 1-.522.14c-.308 0-.542-.088-.71-.27-.168-.182-.247-.481-.247-.901 0-.22.004-.415.014-.583.01-.169.014-.337.014-.505 0-.14-.005-.289-.01-.448-.004-.163-.023-.49-.023-.49.588.145.859.061.915.052a6.904 6.904 0 0 0-.047.756c-.01.308-.014.658-.014 1.05 0 .27.042.471.131.597s.21.192.373.192a.432.432 0 0 0 .406-.252c.085-.168.131-.402.131-.7v-.262c0-.261-.005-.509-.01-.742-.004-.233-.008-.64-.022-.64.443.094.849-.046.905-.055-.019.233-.033.466-.042.695-.005.229-.01.476-.01.742v.262c0 .261.005.513.01.746.005.234.019.458.042.672a1.718 1.718 0 0 0-.22-.013h-.439c-.07 0-.149.004-.228.014l.024-.467h-.02zm-6.507-3.146c-.009-.28-.023-.56-.037-.84.075.009.154.014.238.023a5.112 5.112 0 0 0 .77-.01c.178-.009.406-.013.696-.013.373 0 .71.032 1.012.102.304.066.565.182.79.341.219.159.391.373.513.644.121.27.182.612.182 1.022 0 .36-.061.682-.178.971-.121.29-.28.537-.485.742a2.093 2.093 0 0 1-.714.472c-.27.107-.56.163-.864.163-.322 0-.602 0-.83-.005-.23-.004-.43-.004-.598-.004h-.29c-.088 0-.167.004-.237.014a28.995 28.995 0 0 0 .051-1.778v-.883c-.005-.364-.01-.681-.019-.961zm.971 2.31v.388c0 .126 0 .238.005.345 0 .103.005.173.005.2l.233.015c.089.004.2.004.336.004.49 0 .873-.168 1.157-.5.285-.33.43-.835.43-1.507a2.28 2.28 0 0 0-.107-.718 1.569 1.569 0 0 0-.304-.542 1.37 1.37 0 0 0-.467-.345 1.499 1.499 0 0 0-.606-.122 6.193 6.193 0 0 0-.672.033c0 .028 0 .098-.005.2 0 .103-.005.22-.005.35v2.199zm7.122-1.918c-.009-.355-.018-.878-.037-1.242.056.01.126.02.215.024.084.004.177.01.27.01.094 0 .187-.006.271-.01.085-.005.16-.014.215-.024-.01.182-.014.364-.023.551l-.019.794c-.005.233-.01.056-.01.359 0 .299-.004.509-.004.924 0 .06 0 .098.005.117 0 .018.014.028.028.028.018 0 .06-.033.126-.103.065-.065.154-.163.261-.29.108-.125.229-.275.369-.447.14-.178.294-.369.462-.588.051.009.103.014.154.023.051.005.098.01.154.01.047 0 .098-.005.154-.01.056-.005.126-.014.206-.023-.057.065-.14.154-.248.266-.112.112-.224.228-.34.345-.117.117-.23.233-.332.34-.103.108-.177.188-.229.239.019.028.056.088.112.182.056.093.131.21.21.34.084.131.168.271.262.42.088.15.177.29.256.43.08.135.15.257.21.355.061.102.099.168.117.196a2.527 2.527 0 0 0-.261-.014h-.5c-.079 0-.163.005-.242.014a.949.949 0 0 1-.108-.164 31.568 31.568 0 0 1-.168-.294c-.06-.112-.126-.224-.196-.345a6.387 6.387 0 0 0-.354-.579c-.047-.065-.08-.098-.098-.098-.02 0-.029.014-.038.038a1.97 1.97 0 0 0-.01.238v.364c0 .056 0 .126.005.205 0 .084.005.163.005.247 0 .084.005.164.014.238a.612.612 0 0 0 .024.15 1.966 1.966 0 0 0-.234-.014h-.467c-.079 0-.154.005-.233.014.019-.35.028-.7.037-1.055.01-.355.014-.742.014-1.167v-.42c.005-.42 0-.22-.004-.574z" fill="#000"/><path d="M15.949 20.246c.032.15.088.28.158.392a.748.748 0 0 0 .659.35c.298 0 .564-.098.798-.29l.079.057-.145.364c-.107.084-.238.15-.387.196-.15.051-.35.075-.598.075-.21 0-.41-.028-.602-.089a1.296 1.296 0 0 1-.504-.29 1.486 1.486 0 0 1-.345-.508 1.934 1.934 0 0 1-.126-.738c0-.28.037-.522.112-.732.075-.206.182-.379.313-.518a1.3 1.3 0 0 1 .476-.313c.182-.07.382-.103.597-.103.43 0 .756.126.98.378.229.252.341.602.341 1.064v.136c0 .037 0 .065-.005.08h-1.857c.004.176.023.34.056.49zm.826-1.554c-.07-.196-.191-.29-.36-.29a.324.324 0 0 0-.238.098.696.696 0 0 0-.154.248c-.037.103-.07.215-.088.345a3.454 3.454 0 0 0-.038.378h1c-.01-.326-.047-.583-.122-.78z" fill="#000"/><path d="M10.016 15s.518.938.546 1.162c.056.397-.154.728-.546.728-.392-.004-.602-.331-.546-.728.028-.22.546-1.162.546-1.162zM8.15 16.834s1.068-.051 1.283.014c.383.122.588.458.415.813-.177.354-.56.396-.896.172-.182-.121-.803-.999-.803-.999zm3.733 0s-1.068-.051-1.283.014c-.383.122-.588.458-.416.813.178.354.56.396.897.172.186-.121.802-.999.802-.999z" fill="#409629"/></svg>