<svg height="36" viewBox="0 0 36 36" width="36" xmlns="http://www.w3.org/2000/svg"><g fill="none" fill-rule="evenodd"><path d="M18 0c2.837 0 5.52.656 7.907 1.825C31.884 4.753 36 10.895 36 18c0 9.942-8.058 18-18 18-9.94 0-18-8.057-18-18C0 8.06 8.06 0 18 0z" fill="#f2f4f7" fill-rule="nonzero"/><path d="m29.59 14-.058.035-.056.052-2.772 5.713-.019.018-.038.035h-.132l-.038-.035V19.8l-2.241-4.588-.095-.158-.095-.158-.113-.141-.134-.122-.132-.106-.152-.123-.133-.07-.132-.088-.172-.053-.152-.071-.171-.052-.151-.018-.152-.035-.171-.017h-7.555l-.19.035-.19.035-.19.052-.171.071-.151.071-.152.07-.153.105-.132.105-.133.106-.113.123-.115.14-.114.141-.076.158-.075.177-.152-.177-.152-.158-.171-.141-.153-.122-.189-.123-.171-.124-.208-.105-.209-.105-.228-.07-.209-.071-.246-.071-.21-.052-.247-.035L9.999 14H4.57l-.095.017-.133.053-.114.088-.095.071-.076.122-.038.14L4 14.58v1.054l.019.035.038.036v.035l.058.018.037.017.076.018h4.366l.247.017.228.035.209.035.208.053.209.088.19.088.171.123.17.122.153.159.133.158.113.194.095.192.076.229.058.228.037.264.019.264-.019.282-.037.263-.058.246-.076.211-.095.211-.113.176-.133.158-.153.158-.17.141-.171.123-.19.087-.417.142-.209.035-.229.035H7.018l-.095-.018-.037-.017-.038-.018-.019-.035-.019-.035-.019-.054v-2.302l-.019-.14-.038-.123-.057-.124-.057-.087-.094-.088-.134-.07-.133-.036H4.152l-.037.018-.058.035v.018l-.038.052-.019.035v4.641l.019.035.038.036.019.035.039.017.037.035h5.733l.418-.052.38-.089.208-.052.19-.053.171-.053.152-.07.171-.088.171-.088.171-.088.132-.105.152-.106.133-.105.133-.123.133-.123.113-.123.114-.141.095-.141.114-.158.076-.14.075-.176.096-.158.075-.176.058-.193.057-.176.038-.193.057-.194.038-.387.152.089.151.052.171.088.209.053.171.052.209.018.209.035h3.72l.152.017.114.035.114.054.095.07.095.088.057.123.038.141.018.158-.018.158-.038.141-.057.105-.095.087-.095.089-.114.053-.151.035h-3.835l-.096.017-.038.018-.018.017-.038.035-.019.053-.019.035v.95l.019.175.038.141.056.106.077.105.113.071.115.052.132.035h4.576l.246-.035.228-.052.246-.071.209-.088.209-.105.209-.124.171-.14.171-.175.133-.177.132-.21.115-.211.075-.247.077-.263.018-.281.019-.299-.019-.299-.018-.281-.077-.264-.075-.246-.115-.228-.113-.212-.152-.175-.171-.159-.171-.158-.209-.123-.209-.105-.209-.071-.246-.087-.228-.053-.246-.018h-3.512l-.152-.018-.134-.035-.113-.07-.095-.07-.095-.088-.057-.124-.038-.122-.019-.158.019-.141.038-.141.038-.105.095-.106.094-.088.114-.052.153-.035.152-.017h4.707l.171.017.19.035.171.035.171.052.171.088.133.124.075.052.057.088.058.07.056.089 2.6 5.185.038.071.058.087.075.088.096.07.113.07.133.054.133.052h2.26l.151-.052.133-.054.095-.07.114-.07.057-.088.076-.087.037-.071L32 14.334v-.212l-.038-.052-.056-.053-.038-.017z" fill="#002664"/></g></svg>