<svg width="36" height="36" fill="none" xmlns="http://www.w3.org/2000/svg"><defs><linearGradient id="a" x1="13.809" y1="13.232" x2="14.476" y2="13.053" gradientUnits="userSpaceOnUse"><stop stop-color="#94703F"/><stop offset=".4" stop-color="#C39647"/><stop offset=".6" stop-color="#C39647"/><stop offset="1" stop-color="#94703F"/></linearGradient><linearGradient id="b" x1="13.803" y1="13.258" x2="14.413" y2="13.258" gradientUnits="userSpaceOnUse"><stop stop-color="#723C1E"/><stop offset=".5" stop-color="#94451F"/><stop offset="1" stop-color="#723C1E"/></linearGradient><linearGradient id="c" x1="15.486" y1="19.142" x2="22.041" y2="16.627" gradientUnits="userSpaceOnUse"><stop stop-color="#29436E"/><stop offset=".3" stop-color="#29436E"/><stop offset=".33" stop-color="#253B5E"/><stop offset=".45" stop-color="#29436E"/><stop offset=".47" stop-color="#29436E"/><stop offset=".51" stop-color="#253B5E"/><stop offset=".72" stop-color="#253B5E"/><stop offset=".75" stop-color="#29436E"/><stop offset=".89" stop-color="#29436E"/><stop offset=".92" stop-color="#253B5E"/><stop offset="1" stop-color="#29436E"/></linearGradient><linearGradient id="d" x1="14.295" y1="15.563" x2="20.985" y2="13.389" gradientUnits="userSpaceOnUse"><stop stop-color="#29436E"/><stop offset=".23" stop-color="#29436E"/><stop offset=".26" stop-color="#253B5E"/><stop offset=".33" stop-color="#29436E"/><stop offset=".7" stop-color="#29436E"/><stop offset=".78" stop-color="#253B5E"/><stop offset=".88" stop-color="#29436E"/><stop offset="1" stop-color="#29436E"/></linearGradient></defs><path d="M18 0c2.837 0 5.52.656 7.907 1.825C31.884 4.753 36 10.895 36 18c0 9.942-8.058 18-18 18-9.94 0-18-8.057-18-18C0 8.06 8.06 0 18 0z" fill="#F2F4F7"/><path fill-rule="evenodd" clip-rule="evenodd" d="M5.032 21.566c.243.018.436.087.573.199.155.136.236.335.236.597 0 .26-.08.479-.249.634a.938.938 0 0 1-.566.23v-.093a.636.636 0 0 0 .342-.168c.118-.125.18-.317.18-.572 0-.255-.068-.454-.198-.566a.706.706 0 0 0-.33-.156l.012-.105zM4 23.232v-.074h.025c.106-.007.168-.019.186-.038.02-.018.032-.08.032-.18v-1.082c0-.1-.007-.162-.032-.18-.024-.02-.08-.038-.186-.038H4v-.075h.616l.199-.006h.093c.037 0 .08 0 .118.006v.106a1.707 1.707 0 0 0-.31-.025h-.2v1.3c0 .1.013.156.038.168a.59.59 0 0 0 .273.044.817.817 0 0 0 .212-.025v.093c-.038 0-.069.006-.112.006H4zm2.805-.074v.074h-.753v-.074h.025c.106-.007.168-.019.187-.038.019-.018.025-.08.025-.18v-1.082c0-.1-.006-.162-.025-.18-.019-.02-.087-.038-.187-.038h-.025v-.075h.76v.075h-.026c-.105.006-.168.019-.186.037a.358.358 0 0 0-.031.18v1.083a.358.358 0 0 0 .03.18c.02.025.082.031.187.038h.019zm.964-1.512.05-.1h.087l.678 1.4c.03.062.068.125.112.18a.22.22 0 0 0 .124.038h.031v.074h-.715v-.074h.025c.118 0 .186-.013.186-.044a.441.441 0 0 0-.056-.174l-.105-.224h-.417v-.087h.367l-.367-.759v-.23zm-.417 1.07-.112.224a.548.548 0 0 0-.062.168c0 .037.056.05.168.05h.025v.074h-.504v-.074h.025a.354.354 0 0 0 .137-.025.837.837 0 0 0 .106-.193l.634-1.287v.224l-.373.752h.373v.087h-.417zm3.085.535-1.163-1.393v1.082c0 .1.006.162.025.18a.386.386 0 0 0 .187.038h.024v.074h-.597v-.074h.025a.47.47 0 0 0 .187-.038c.018-.012.03-.08.03-.18v-1.082c0-.1-.005-.162-.03-.18-.025-.02-.081-.038-.187-.038h-.025v-.075h.436l1.07 1.294v-1.007a.358.358 0 0 0-.032-.18c-.018-.026-.08-.038-.186-.038h-.025v-.075h.597v.075h-.025c-.106.006-.168.019-.186.037-.02.019-.032.081-.032.18v1.4h-.093zm1.325-1.605.056-.1h.087l.678 1.4c.03.062.068.125.112.18a.23.23 0 0 0 .13.038h.038v.074h-.722v-.074h.025c.118 0 .187-.013.187-.044a.41.41 0 0 0-.056-.174l-.106-.224h-.417v-.087h.374l-.367-.759-.007.007-.012-.237zm-.41 1.07-.113.224a.616.616 0 0 0-.062.168c0 .037.056.05.168.05h.019v.074h-.504v-.074h.031a.324.324 0 0 0 .13-.025.98.98 0 0 0 .113-.193l.628-1.287v.224l-.367.752h.367v.087h-.41zm2.468.479v-.317h.137l.007.018c0 .038.006.069.006.087 0 .056.03.106.08.137.094.05.206.075.312.069.1.006.192-.025.267-.087a.274.274 0 0 0 .1-.23.283.283 0 0 0-.063-.2.721.721 0 0 0-.242-.161l-.137-.069c-.292-.143-.442-.298-.442-.472a.4.4 0 0 1 .162-.317.608.608 0 0 1 .398-.125c.075 0 .156.006.23.019.081.012.168.03.261.056v.298h-.143v-.018c-.006-.038-.006-.069-.006-.087a.139.139 0 0 0-.074-.137.491.491 0 0 0-.25-.044.303.303 0 0 0-.223.081.235.235 0 0 0-.087.205c0 .069.019.131.062.187a.754.754 0 0 0 .218.15l.136.068c.137.062.268.143.38.242.068.069.1.162.1.261a.414.414 0 0 1-.18.342.65.65 0 0 1-.449.137c-.106 0-.199-.006-.292-.018-.1-.032-.187-.05-.268-.075zm1.86-.784v.529c0 .1.006.162.025.18.019.019.087.031.187.038h.024v.074h-.752v-.074h.025c.105-.007.168-.019.186-.038.019-.018.031-.08.031-.18v-1.082c0-.1-.006-.162-.03-.18-.025-.02-.082-.038-.187-.038h-.025v-.075h.759v.075h-.025c-.106.006-.168.019-.187.037-.018.02-.025.081-.025.18v.461h.92v-.46c0-.1-.005-.162-.024-.18-.019-.02-.087-.038-.187-.038h-.024v-.075h.752v.075h-.025c-.106.006-.168.019-.186.037a.358.358 0 0 0-.031.18v1.083a.358.358 0 0 0 .03.18c.02.025.081.031.187.038h.025v.074h-.759v-.074h.025c.106-.007.168-.019.187-.038.018-.018.025-.08.025-.18v-.529h-.92zm2.301.747v.074h-.752v-.074h.025c.105-.007.168-.019.186-.038.019-.018.025-.08.025-.18v-1.082c0-.1-.006-.162-.025-.18-.018-.02-.087-.038-.186-.038h-.025v-.075h.752v.075h-.025c-.105.006-.168.019-.186.037a.358.358 0 0 0-.031.18v1.083a.358.358 0 0 0 .03.18c.02.025.082.031.188.038h.024zm.933-1.599h.031c.373 0 .56.143.56.442a.442.442 0 0 1-.205.404.847.847 0 0 1-.386.118v-.087a.571.571 0 0 0 .174-.087c.087-.075.125-.186.125-.342 0-.13-.031-.224-.094-.28a.36.36 0 0 0-.205-.074v-.094zm-.305.977v.404c0 .1.007.155.032.18.025.025.08.038.186.038h.056v.074H18.1v-.074h.025c.1-.007.168-.019.187-.038.019-.018.025-.08.025-.18v-1.082c0-.1-.006-.162-.025-.18-.019-.02-.087-.038-.187-.038H18.1v-.075h.572l.186-.006h.056v.087c-.037-.006-.08-.006-.118-.006h-.186v.821h.099a.817.817 0 0 0 .212-.025v.087c-.075.013-.15.013-.224.013h-.087zm1.829-.977h.037c.373 0 .56.143.56.442a.455.455 0 0 1-.205.404.872.872 0 0 1-.392.118v-.087a.39.39 0 0 0 .305-.429c0-.13-.031-.224-.1-.28a.31.31 0 0 0-.205-.074v-.094zm-.298.977v.404c0 .1.006.155.03.18.025.025.081.038.187.038h.056v.074h-.79v-.074h.025c.106-.007.168-.019.187-.038.018-.018.025-.08.025-.18v-1.082c0-.1-.007-.162-.025-.18-.019-.02-.087-.038-.187-.038h-.025v-.075h.572l.187-.006h.056v.087c-.037-.006-.075-.006-.118-.006h-.18v.821h.093a.77.77 0 0 0 .205-.025v.087c-.075.013-.143.013-.218.013h-.08zm1.772.622v.074h-.759v-.074h.025c.1-.007.168-.019.187-.038.018-.024.03-.08.03-.18v-1.082c0-.1-.005-.162-.03-.18-.025-.02-.081-.038-.187-.038h-.025v-.075h.759v.075h-.025c-.106.006-.168.019-.186.037-.02.025-.032.081-.032.18v1.083c0 .1.013.162.032.18.024.019.08.031.186.038h.025zm1.642.093-1.17-1.393v1.082a.358.358 0 0 0 .032.18c.018.019.08.031.186.038h.025v.074h-.603v-.074h.025a.47.47 0 0 0 .186-.038c.02-.012.025-.08.025-.18v-1.082c0-.1-.006-.162-.025-.18-.018-.02-.08-.038-.186-.038h-.025v-.075h.442l1.075 1.294v-1.007a.43.43 0 0 0-.024-.18c-.013-.02-.087-.038-.187-.038h-.025v-.075h.604v.075h-.025c-.106.006-.168.019-.187.037-.019.019-.025.081-.025.18v1.4h-.118zm2.12-.062a3.05 3.05 0 0 1-.627.08c-.287 0-.517-.08-.678-.236a.826.826 0 0 1-.255-.64c0-.274.08-.485.248-.64.168-.156.399-.231.697-.231.106 0 .205.006.311.025.106.012.205.037.305.062v.305h-.15v-.025c0-.025-.006-.044-.006-.069a.198.198 0 0 0-.124-.167.752.752 0 0 0-.33-.056c-.217 0-.38.068-.497.211-.118.143-.168.336-.168.597 0 .243.062.43.193.566.13.137.31.205.535.205.093 0 .186-.018.273-.037v-.323c0-.1-.012-.168-.03-.187-.02-.019-.082-.031-.188-.037h-.018v-.069h.752v.069h-.025c-.105.006-.167.018-.186.037-.019.019-.031.08-.031.187v.373zm1.885-.031v.074H26.8v-.074h.025c.106-.007.168-.019.187-.038.019-.018.031-.08.031-.18v-1.082c0-.1-.006-.162-.031-.18-.025-.02-.08-.038-.187-.038h-.024v-.075h.758v.075h-.025c-.105.006-.168.019-.186.037-.019.02-.025.081-.025.18v1.083c0 .1.006.162.025.18.018.019.087.031.186.038h.025zm1.642.093-1.169-1.393v1.082c0 .1.006.162.031.18.025.019.08.031.187.038h.024v.074h-.603v-.074h.025a.48.48 0 0 0 .187-.038c.018-.018.025-.08.025-.18v-1.082c0-.1-.007-.162-.025-.18-.019-.02-.087-.038-.187-.038h-.025v-.075h.442l1.07 1.294v-1.007a.43.43 0 0 0-.025-.18c-.013-.02-.087-.038-.187-.038h-.031v-.075h.603v.075h-.025c-.105.006-.168.019-.186.037-.019.019-.025.081-.025.18v1.4h-.106zm2.127-.112a1.405 1.405 0 0 1-.615.13c-.299 0-.53-.08-.697-.236-.168-.155-.255-.367-.255-.64 0-.274.08-.485.249-.64.168-.156.392-.231.69-.231.2.006.398.037.597.087v.317h-.162v-.087a.197.197 0 0 0-.118-.174.716.716 0 0 0-.323-.062.59.59 0 0 0-.473.217c-.118.144-.174.336-.174.579 0 .242.069.43.205.566.137.137.324.199.566.199.18 0 .355-.044.51-.125v.1z" fill="#4579AD"/><path d="M31.677 22.953H32v.28h-.323v-.28z" fill="#4579AD"/><path fill-rule="evenodd" clip-rule="evenodd" d="m13.84 13.331-.038-.143c-.013-.043.006-.056.056-.087a.89.89 0 0 1 .354-.1c.137-.006.187.007.187.056 0 .05.025.15.025.15l-.585.124z" fill="url(#a)"/><path fill-rule="evenodd" clip-rule="evenodd" d="M14 13.356c-.117.012-.186 0-.155-.05s.218-.143.398-.15c.18-.005.2.038.162.07-.118.099-.286.117-.404.13z" fill="url(#b)"/><path fill-rule="evenodd" clip-rule="evenodd" d="m15.518 20.595-.248-1.12-1.294-6.076s-.037-.087 0-.124c.037-.037.13-.069.23-.069s.075.044.1.119c.025.074.143.678.143.678l1.418 6.605-.349-.013z" fill="#94703F"/><path fill-rule="evenodd" clip-rule="evenodd" d="M15.295 17.349s-.007-.616-.056-1.064a6.1 6.1 0 0 0-.33-1.368c-.124-.342-.342-.896-.342-.896.155-.025.305-.03.46-.025.218.013.616.088.765.299.15.211.224.354.492.41.69.119 1.393.137 2.09.056.914-.112 1.206.013 1.336.069.137.074.262.174.361.292.069.075.218.41.367.43.174.005.38-.038.554-.057 0 0 .037.255.074.392.038.137.162.703.237.908.074.205.168.467.26.66.094.192.243.379.243.379s-.572.08-.945.143c-.373.062-1.287.056-1.723.018-.435-.037-1.206-.099-1.455-.118-.249-.018-.423-.124-.516-.267-.094-.143-.405-.255-.554-.274a7.038 7.038 0 0 0-.958.007 1.17 1.17 0 0 1-.36.006z" fill="#fff"/><path fill-rule="evenodd" clip-rule="evenodd" d="M15.755 14.382s.143.398.255.722c.112.323.472 1.107.61 1.405.136.299.472.902.472.902s.124.386.261.48c.137.092.765.086.746.018-.018-.069.013-.342-.105-.64-.118-.3-.523-.567-.678-.76a6.079 6.079 0 0 1-.585-.989c-.286-.628-.373-.939-.976-1.138z" fill="#fff"/><path fill-rule="evenodd" clip-rule="evenodd" d="M15.761 14.395s.15.398.261.715c.112.317.473 1.1.604 1.4.13.298.466.901.466.901s.124.38.261.473c.137.093.74.087.715.018-.024-.068.007-.342-.112-.634-.118-.292-.516-.566-.665-.753a6.636 6.636 0 0 1-.585-.995c-.267-.622-.36-.926-.945-1.125z" fill="#FBFBFB"/><path fill-rule="evenodd" clip-rule="evenodd" d="M15.773 14.4s.15.399.262.716c.112.317.472 1.095.603 1.4.13.304.46.895.46.895s.13.38.255.473c.125.093.715.08.69.012-.024-.068 0-.342-.124-.634-.124-.293-.504-.56-.647-.753a6.742 6.742 0 0 1-.572-.982c-.273-.616-.367-.927-.927-1.126z" fill="#F9F9F9"/><path fill-rule="evenodd" clip-rule="evenodd" d="M15.78 14.42s.149.391.26.709c.113.317.474 1.094.604 1.386.13.293.46.89.46.89s.131.38.255.473c.125.093.684.08.66.012-.025-.069-.007-.342-.125-.634-.118-.293-.491-.554-.634-.747a6.642 6.642 0 0 1-.566-.976c-.274-.616-.373-.92-.914-1.114z" fill="#F8F8F7"/><path fill-rule="evenodd" clip-rule="evenodd" d="M15.786 14.432s.15.392.261.71c.112.316.473 1.088.603 1.38.131.292.454.89.454.89s.131.379.25.472c.117.093.652.08.627.006-.025-.075-.006-.336-.137-.628-.13-.292-.478-.553-.615-.746a6.527 6.527 0 0 1-.56-.97c-.261-.622-.36-.927-.883-1.114z" fill="#F4F4F4"/><path fill-rule="evenodd" clip-rule="evenodd" d="M15.798 14.438s.15.392.262.709c.118.311.472 1.082.603 1.38.13.3.448.884.448.884s.136.373.248.473c.112.1.629.068.597.006-.03-.062-.012-.336-.136-.628-.125-.293-.467-.554-.604-.74a7.751 7.751 0 0 1-.553-.964c-.268-.629-.367-.933-.865-1.12z" fill="#F2F2F2"/><path fill-rule="evenodd" clip-rule="evenodd" d="m15.805 14.45.267.704c.118.31.466 1.082.597 1.368.13.286.442.883.442.883s.136.373.248.466c.112.094.597.069.573.007-.025-.063-.025-.336-.15-.629-.124-.292-.454-.547-.59-.733a6.998 6.998 0 0 1-.548-.964c-.255-.61-.354-.915-.84-1.101z" fill="#EEE"/><path fill-rule="evenodd" clip-rule="evenodd" d="m15.81 14.463.268.703c.118.31.467 1.076.597 1.368.13.292.442.877.442.877s.137.373.242.46c.106.087.566.075.548.006-.019-.068-.025-.335-.156-.628-.13-.292-.441-.547-.578-.734-.2-.31-.38-.628-.535-.964-.268-.603-.36-.908-.827-1.088z" fill="#ECECEC"/><path fill-rule="evenodd" clip-rule="evenodd" d="M15.823 14.476s.15.385.268.696c.118.311.466 1.07.597 1.362.13.293.441.871.441.871s.137.373.243.466c.106.094.541.063.516-.006-.025-.068-.037-.33-.155-.622-.119-.292-.436-.535-.566-.727a7.942 7.942 0 0 1-.535-.952c-.268-.603-.373-.908-.809-1.088z" fill="#E8E8E8"/><path fill-rule="evenodd" clip-rule="evenodd" d="M15.83 14.488s.155.385.273.696c.118.311.473 1.064.597 1.356.125.293.435.87.435.87s.137.374.237.461c.1.087.516.062.491-.006-.025-.068-.037-.33-.162-.616-.124-.286-.422-.54-.553-.727a7.856 7.856 0 0 1-.523-.952c-.267-.61-.373-.908-.796-1.082z" fill="#E6E6E6"/><path fill-rule="evenodd" clip-rule="evenodd" d="M15.836 14.5s.155.386.273.697c.118.311.473 1.064.597 1.35.125.286.43.864.43.864s.136.373.236.454c.1.081.485.062.454-.006-.031-.068-.044-.33-.168-.616-.125-.286-.41-.535-.535-.721a7.33 7.33 0 0 1-.522-.945c-.255-.604-.361-.902-.765-1.076z" fill="#E3E3E2"/><path fill-rule="evenodd" clip-rule="evenodd" d="m15.848 14.513.28.69c.118.311.466 1.057.597 1.344.13.286.423.858.423.858s.137.367.236.454c.1.087.454.056.43-.007-.026-.062-.057-.33-.175-.615-.118-.286-.398-.529-.522-.715a9.19 9.19 0 0 1-.516-.94c-.268-.603-.374-.901-.753-1.07z" fill="#E1E1E0"/><path fill-rule="evenodd" clip-rule="evenodd" d="M15.854 14.519s.156.38.28.69c.125.311.467 1.052.597 1.338.13.286.423.858.423.858s.143.367.23.454c.087.087.43.056.404-.013-.024-.068-.055-.323-.18-.615-.124-.293-.392-.523-.504-.71a8.384 8.384 0 0 1-.503-.932c-.28-.597-.386-.902-.747-1.07z" fill="#DFDFDF"/><path fill-rule="evenodd" clip-rule="evenodd" d="m15.86 14.531.28.684c.125.305.467 1.052.597 1.331.131.28.423.859.423.859s.137.36.23.447c.094.087.398.056.374-.012-.025-.068-.063-.33-.187-.616s-.38-.522-.491-.703a9.686 9.686 0 0 1-.504-.932c-.268-.591-.373-.89-.722-1.058z" fill="#DBDBDB"/><path fill-rule="evenodd" clip-rule="evenodd" d="m15.873 14.544.28.678c.124.305.466 1.045.597 1.325.13.28.417.845.417.845s.143.367.223.454c.081.087.374.05.343-.018a4.314 4.314 0 0 0-.193-.61c-.118-.28-.361-.522-.473-.703a8.8 8.8 0 0 1-.491-.926c-.268-.585-.38-.883-.703-1.045z" fill="#D9D9D9"/><path fill-rule="evenodd" clip-rule="evenodd" d="m15.88 14.556.279.684a43.977 43.977 0 0 0 1.008 2.158s.143.361.223.448c.081.087.343.044.318-.018a5.353 5.353 0 0 0-.2-.61c-.117-.28-.36-.516-.466-.697-.18-.298-.342-.609-.491-.92-.255-.59-.367-.877-.672-1.045z" fill="#D5D5D5"/><path fill-rule="evenodd" clip-rule="evenodd" d="m15.892 14.569.28.678a43.6 43.6 0 0 0 .995 2.152s.149.36.223.441c.075.081.311.044.287-.018a6.993 6.993 0 0 0-.2-.61c-.124-.28-.341-.51-.454-.697a10.014 10.014 0 0 1-.478-.92c-.262-.572-.373-.864-.653-1.026z" fill="#D3D3D3"/><path fill-rule="evenodd" clip-rule="evenodd" d="M15.898 14.575s.162.373.286.678c.124.305.46 1.032.59 1.306l.405.84s.15.36.218.441c.068.081.286.038.26-.024-.024-.063-.086-.324-.204-.604-.119-.28-.336-.503-.436-.684-.1-.18-.33-.597-.472-.914-.268-.585-.386-.87-.647-1.039z" fill="#CFCFCF"/><path fill-rule="evenodd" clip-rule="evenodd" d="M15.904 14.594s.162.373.286.671c.124.299.46 1.027.591 1.3l.398.834s.15.354.218.441c.068.087.255.038.23-.025-.025-.062-.087-.323-.212-.597-.124-.273-.323-.503-.422-.684-.1-.18-.324-.597-.467-.908-.267-.584-.38-.877-.622-1.032z" fill="#CDCDCD"/><path fill-rule="evenodd" clip-rule="evenodd" d="M15.91 14.606s.162.367.286.665c.125.299.46 1.02.591 1.294l.392.827s.155.361.218.442c.062.08.23.037.205-.025-.025-.062-.1-.323-.218-.597-.118-.274-.31-.504-.41-.684-.1-.18-.311-.591-.454-.902-.268-.585-.386-.87-.61-1.02z" fill="#CBCBCB"/><path fill-rule="evenodd" clip-rule="evenodd" d="m15.923 14.612.286.666c.124.292.46 1.014.585 1.287.124.274.398.821.398.821.062.15.13.299.211.442.062.08.199.03.174-.031-.025-.063-.106-.324-.224-.597-.118-.274-.298-.498-.398-.678-.1-.18-.31-.585-.454-.902-.255-.566-.38-.852-.578-1.008z" fill="#C7C7C7"/><path fill-rule="evenodd" clip-rule="evenodd" d="m15.929 14.625.292.66c.13.292.46 1.013.585 1.287.124.273.392.82.392.82.062.15.13.293.211.436.056.08.168.031.143-.037-.025-.069-.105-.317-.224-.597-.118-.28-.292-.492-.385-.672-.094-.18-.299-.585-.442-.89-.267-.572-.386-.858-.572-1.007z" fill="#C5C5C5"/><path fill-rule="evenodd" clip-rule="evenodd" d="M15.518 20.595c-.093-.435-.161-.765-.26-1.2-.424-1.978-.847-3.962-1.27-5.946 0-.012-.037-.118-.006-.168a.314.314 0 0 1 .218-.068c.093 0 .075.037.1.118.03.118.161.746.167.796.46 2.158.927 4.316 1.387 6.48-.118-.005-.23-.018-.336-.012z" fill="#97713F"/><path fill-rule="evenodd" clip-rule="evenodd" d="M15.518 20.596c-.1-.454-.168-.822-.273-1.276-.41-1.94-.827-3.88-1.238-5.827-.006-.025-.043-.143-.025-.2a.263.263 0 0 1 .212-.074c.093 0 .074.038.1.125.037.161.18.808.198.901.454 2.121.902 4.217 1.362 6.338-.105.019-.242-.025-.336.013z" fill="#9B7541"/><path fill-rule="evenodd" clip-rule="evenodd" d="M15.518 20.596c-.105-.486-.18-.877-.28-1.362a4182.4 4182.4 0 0 1-1.212-5.698c-.006-.037-.05-.167-.031-.242.025-.037.118-.068.205-.075.087-.006.068.038.093.119.056.211.193.883.224 1.026.442 2.077.89 4.148 1.331 6.225-.1.025-.23-.03-.33.007z" fill="#9D7742"/><path fill-rule="evenodd" clip-rule="evenodd" d="M15.518 20.595c-.112-.503-.18-.933-.292-1.449-.392-1.847-.79-3.707-1.188-5.56-.006-.056-.056-.2-.037-.28.025-.043.112-.075.199-.075.087 0 .068.031.093.119.062.255.212.951.249 1.15l1.306 6.09c-.1.018-.236-.026-.33.005z" fill="#A07842"/><path fill-rule="evenodd" clip-rule="evenodd" d="M15.518 20.596c-.118-.535-.192-1.002-.304-1.53a2953.45 2953.45 0 0 1-1.157-5.43 1.011 1.011 0 0 1-.05-.33.199.199 0 0 1 .187-.074c.08-.006.068.03.093.124.075.299.23 1.02.28 1.269.423 1.99.852 3.974 1.275 5.958-.1.025-.237-.018-.324.013z" fill="#A47C43"/><path fill-rule="evenodd" clip-rule="evenodd" d="M15.518 20.595c-.124-.56-.199-1.057-.317-1.617-.373-1.76-.752-3.526-1.132-5.299a1.81 1.81 0 0 1-.056-.36c.019-.05.094-.081.175-.081.08 0 .074.03.093.118.087.348.248 1.095.31 1.4.411 1.94.828 3.88 1.245 5.82l-.318.02z" fill="#A77E44"/><path fill-rule="evenodd" clip-rule="evenodd" d="M15.518 20.595c-.124-.584-.205-1.113-.33-1.704a759.65 759.65 0 0 0-1.1-5.162 2.182 2.182 0 0 1-.068-.41c.018-.044.087-.075.168-.081.08-.007.068.024.093.118.1.398.261 1.175.336 1.524l1.212 5.684c-.093.031-.23.006-.31.031z" fill="#AA8043"/><path fill-rule="evenodd" clip-rule="evenodd" d="M15.518 20.595c-.136-.615-.211-1.175-.342-1.79-.354-1.674-.709-3.347-1.07-5.026a2.821 2.821 0 0 1-.08-.448c.012-.05.08-.08.155-.087.075-.006.069.025.094.124.105.448.28 1.244.36 1.649.392 1.847.79 3.7 1.188 5.541-.087.031-.224.006-.305.037z" fill="#AB8143"/><path fill-rule="evenodd" clip-rule="evenodd" d="M15.518 20.595c-.136-.64-.217-1.237-.354-1.878-.342-1.623-.697-3.253-1.051-4.888a4.402 4.402 0 0 1-.087-.486c.012-.056.074-.087.149-.087s.068.025.087.118c.118.498.299 1.319.392 1.78.38 1.797.765 3.6 1.15 5.398-.068.03-.205.012-.286.043z" fill="#B08545"/><path fill-rule="evenodd" clip-rule="evenodd" d="M15.518 20.595c-.149-.665-.217-1.306-.36-1.971-.342-1.586-.678-3.166-1.02-4.746a5.094 5.094 0 0 1-.106-.535.13.13 0 0 1 .137-.087c.068-.006.062.019.087.125.137.553.31 1.399.423 1.915.373 1.754.752 3.508 1.126 5.256-.075.025-.218.018-.287.043z" fill="#B38945"/><path fill-rule="evenodd" clip-rule="evenodd" d="M15.518 20.595c-.155-.696-.23-1.368-.379-2.064-.33-1.524-.647-3.06-.983-4.603a4.737 4.737 0 0 1-.112-.578c.007-.056.056-.087.125-.087.068 0 .062.018.087.124.143.597.33 1.48.454 2.046.36 1.704.721 3.415 1.088 5.113-.068.025-.211.018-.28.05z" fill="#B58A46"/><path fill-rule="evenodd" clip-rule="evenodd" d="M15.518 20.596c-.155-.728-.236-1.431-.391-2.159-.311-1.48-.629-2.966-.952-4.453a8.475 8.475 0 0 1-.124-.622c.006-.056.056-.087.118-.093.062-.006.062.019.087.124.155.653.348 1.561.485 2.183.348 1.661.703 3.315 1.057 4.97l-.28.05z" fill="#B88D47"/><path fill-rule="evenodd" clip-rule="evenodd" d="M15.518 20.596c-.168-.76-.242-1.5-.404-2.252-.305-1.43-.61-2.867-.92-4.304a7.429 7.429 0 0 1-.137-.665.102.102 0 0 1 .106-.093c.056-.007.062.006.087.124.168.709.367 1.642.51 2.32.342 1.61.678 3.215 1.032 4.82-.068.012-.211.025-.274.05z" fill="#BB8E47"/><path fill-rule="evenodd" clip-rule="evenodd" d="M15.518 20.595c-.174-.783-.255-1.567-.423-2.35a548.28 548.28 0 0 0-.889-4.149c-.05-.211-.106-.491-.15-.709-.005-.05.038-.093.088-.093h.012c.056-.007.063.006.087.124.18.759.386 1.723.541 2.463.33 1.561.66 3.11.996 4.665.03.056-.087.05-.262.05z" fill="#BD8F48"/><path fill-rule="evenodd" clip-rule="evenodd" d="M15.605 20.583c-.18-.815-.354-1.623-.522-2.438-.28-1.331-.566-2.662-.858-3.993-.056-.23-.112-.522-.162-.765a.09.09 0 0 1 .08-.1h.007c.056-.006.056.007.087.131.193.815.405 1.804.572 2.606.318 1.505.635 3.004.964 4.51-.056.012-.111.03-.168.049z" fill="#C09348"/><path fill-rule="evenodd" clip-rule="evenodd" d="M15.612 20.577c-.187-.846-.361-1.692-.541-2.538a328.761 328.761 0 0 0-.828-3.844 31.012 31.012 0 0 1-.168-.808c-.006-.062.025-.093.075-.1.05-.006.056.007.087.125.205.87.423 1.89.604 2.755.31 1.45.615 2.898.926 4.347-.05.025-.105.044-.155.063z" fill="#C5974A"/><path fill-rule="evenodd" clip-rule="evenodd" d="M15.618 20.57c-.193-.876-.373-1.753-.56-2.624-.261-1.225-.522-2.457-.796-3.688-.062-.261-.124-.585-.187-.858-.006-.069.013-.094.063-.106.05-.013.056 0 .087.13.217.927.441 1.978.634 2.899.299 1.4.591 2.798.89 4.192-.038.018-.088.037-.131.056z" fill="#C7984A"/><path fill-rule="evenodd" clip-rule="evenodd" d="M15.624 20.558c-.199-.908-.392-1.816-.584-2.718-.25-1.175-.492-2.345-.76-3.526-.061-.28-.13-.616-.192-.908-.019-.069 0-.1.044-.1.043 0 .056-.006.087.13.236.983.466 2.066.671 3.048.28 1.344.566 2.68.859 4.024a.74.74 0 0 1-.125.05z" fill="#CA9A4A"/><path fill-rule="evenodd" clip-rule="evenodd" d="M15.624 20.552c-.205-.94-.404-1.878-.597-2.817-.23-1.12-.473-2.233-.728-3.359-.074-.298-.136-.653-.211-.958-.012-.074 0-.1.037-.105.038-.007.056-.007.087.13.25 1.045.492 2.158.71 3.203.273 1.288.54 2.581.82 3.863a.9.9 0 0 0-.118.043z" fill="#CC9D4B"/><path fill-rule="evenodd" clip-rule="evenodd" d="M15.63 20.546c-.217-.977-.416-1.947-.615-2.917-.224-1.064-.454-2.12-.697-3.19-.075-.324-.143-.691-.218-1.014-.018-.069-.006-.106.025-.106s.056-.006.087.13c.262 1.108.504 2.246.747 3.359.26 1.225.516 2.463.783 3.688-.043.013-.074.031-.112.05z" fill="#CF9E4C"/><path fill-rule="evenodd" clip-rule="evenodd" d="M15.637 20.533c-.436-2.015-.828-4.017-1.294-6.032-.08-.342-.15-.728-.23-1.064-.025-.075-.025-.1.012-.112.038-.012.05-.006.087.137.554 2.332 1.008 4.696 1.524 7.04l-.1.031z" fill="#D3A24C"/><path fill-rule="evenodd" clip-rule="evenodd" d="M18.827 18.083s.187-.566.112-1.063c-.075-.498-.211-.747-.242-.933-.032-.187.056-.504.33-.143.273.36.602.914.851 1.318s.572.846.572.846c-.286.08-.584.112-.883.106-.522-.013-.74-.131-.74-.131z" fill="#fff"/><path fill-rule="evenodd" clip-rule="evenodd" d="M18.846 18.089s.186-.566.112-1.051c-.075-.485-.205-.734-.236-.92-.032-.187.05-.492.31-.138.262.355.585.896.84 1.3.255.405.56.84.56.84-.28.075-.572.112-.865.1-.51-.02-.721-.131-.721-.131z" fill="#FBFBFB"/><path fill-rule="evenodd" clip-rule="evenodd" d="M18.864 18.095s.18-.56.106-1.045c-.074-.485-.199-.727-.23-.908-.03-.18.056-.478.311-.124s.572.877.815 1.275c.242.398.553.827.553.827a2.75 2.75 0 0 1-.84.1c-.503-.013-.715-.125-.715-.125z" fill="#F9F9F9"/><path fill-rule="evenodd" clip-rule="evenodd" d="M18.883 18.095s.174-.553.106-1.032c-.069-.479-.193-.71-.23-.896-.038-.186.05-.466.298-.118.25.348.56.865.796 1.256.237.392.541.821.541.821a2.628 2.628 0 0 1-.82.094c-.486-.013-.69-.125-.69-.125z" fill="#F6F6F6"/><path fill-rule="evenodd" clip-rule="evenodd" d="M18.896 18.101s.174-.553.105-1.026c-.068-.473-.186-.697-.217-.877-.031-.18.043-.454.292-.112s.541.852.777 1.238c.237.385.529.808.529.808a2.496 2.496 0 0 1-.802.1c-.48-.025-.684-.13-.684-.13z" fill="#F4F4F4"/><path fill-rule="evenodd" clip-rule="evenodd" d="M18.914 18.101s.168-.553.1-1.02c-.069-.466-.18-.69-.218-.864-.037-.174.044-.442.28-.106.236.336.522.833.752 1.213.23.38.523.796.523.796a2.362 2.362 0 0 1-.777.093c-.46-.006-.66-.112-.66-.112z" fill="#F0F0F0"/><path fill-rule="evenodd" clip-rule="evenodd" d="M18.933 18.108s.168-.547.1-1.008c-.069-.46-.175-.684-.212-.858-.037-.174.043-.423.28-.087.236.336.51.815.727 1.188.218.373.51.79.51.79-.248.068-.503.1-.758.087-.448-.013-.647-.112-.647-.112z" fill="#EEE"/><path fill-rule="evenodd" clip-rule="evenodd" d="M18.951 18.108s.162-.541.1-.995c-.062-.454-.168-.672-.205-.84-.038-.168.037-.417.267-.087.23.33.492.802.71 1.175.217.373.503.778.503.778a2.31 2.31 0 0 1-.746.087c-.442-.013-.628-.118-.628-.118z" fill="#EAEAEA"/><path fill-rule="evenodd" clip-rule="evenodd" d="M18.97 18.114s.156-.541.094-.989c-.063-.448-.162-.66-.2-.827-.037-.168.038-.398.262-.068s.479.777.69 1.15c.212.373.491.765.491.765-.236.069-.479.1-.727.087-.423-.018-.61-.118-.61-.118z" fill="#E8E8E8"/><path fill-rule="evenodd" clip-rule="evenodd" d="M18.989 18.114s.155-.535.093-.977c-.062-.441-.155-.646-.199-.814-.043-.168.038-.392.255-.069.218.323.46.765.666 1.126.205.36.485.759.485.759-.23.062-.467.093-.703.087-.423-.013-.597-.112-.597-.112z" fill="#E4E4E4"/><path fill-rule="evenodd" clip-rule="evenodd" d="M19.008 18.114s.155-.529.093-.964c-.062-.436-.15-.635-.187-.802-.037-.168.038-.374.243-.056.205.317.448.746.647 1.1.199.355.472.747.472.747a2.252 2.252 0 0 1-.678.087c-.422-.013-.59-.112-.59-.112z" fill="#E3E3E2"/><path fill-rule="evenodd" clip-rule="evenodd" d="M19.02 18.114s.155-.529.093-.958a4.417 4.417 0 0 0-.186-.79c-.038-.162.037-.367.236-.056.2.311.436.74.628 1.088.193.349.46.74.46.74a2.198 2.198 0 0 1-.665.088c-.392-.013-.566-.112-.566-.112z" fill="#E1E1E0"/><path fill-rule="evenodd" clip-rule="evenodd" d="M19.039 18.114s.149-.522.087-.951a4.262 4.262 0 0 0-.18-.778c-.038-.155.037-.348.23-.037.192.31.416.715.609 1.063s.454.728.454.728a2.015 2.015 0 0 1-.64.08c-.392-.006-.56-.105-.56-.105z" fill="#DDD"/><path fill-rule="evenodd" clip-rule="evenodd" d="M19.057 18.114s.143-.523.087-.933a4.551 4.551 0 0 0-.174-.765c-.037-.15.031-.336.218-.031.187.305.404.703.585 1.045.18.342.441.721.441.721-.199.062-.41.087-.616.075-.379-.013-.54-.112-.54-.112z" fill="#DBDBDB"/><path fill-rule="evenodd" clip-rule="evenodd" d="M19.076 18.114s.137-.516.087-.927a3.87 3.87 0 0 0-.168-.752c-.043-.15.031-.324.212-.025.18.298.385.684.566 1.026.18.342.429.709.429.709a1.625 1.625 0 0 1-.597.075c-.373-.007-.529-.106-.529-.106z" fill="#D7D7D7"/><path fill-rule="evenodd" clip-rule="evenodd" d="M19.095 18.12s.137-.516.087-.92a3.697 3.697 0 0 0-.168-.735c-.037-.155.03-.31.205-.018.174.292.367.672.547 1.001.18.33.423.697.423.697-.186.062-.38.087-.578.074-.367-.006-.516-.1-.516-.1z" fill="#D5D5D5"/><path fill-rule="evenodd" clip-rule="evenodd" d="M19.107 18.12s.137-.516.08-.914a4.14 4.14 0 0 0-.155-.721c-.043-.15.025-.299.193-.007.168.293.361.653.529.983.168.33.41.69.41.69a1.42 1.42 0 0 1-.56.075c-.348-.019-.497-.106-.497-.106z" fill="#D1D1D1"/><path fill-rule="evenodd" clip-rule="evenodd" d="M19.132 18.12s.13-.51.08-.902a3.44 3.44 0 0 0-.155-.709c-.043-.143.025-.292.187 0s.342.64.504.964c.161.324.404.678.404.678a1.214 1.214 0 0 1-.535.069c-.348-.013-.485-.1-.485-.1z" fill="#CFCFCF"/><path fill-rule="evenodd" clip-rule="evenodd" d="M19.144 18.12s.125-.504.075-.89a3.308 3.308 0 0 0-.15-.696c-.043-.143.026-.28.181.006.156.286.323.622.491.94.168.317.392.665.392.665-.168.056-.342.08-.522.068-.33-.006-.467-.093-.467-.093z" fill="#CDCDCD"/><path fill-rule="evenodd" clip-rule="evenodd" d="M19.157 18.12s.124-.504.08-.883a3.721 3.721 0 0 0-.142-.684c-.044-.137.024-.262.168.018.143.28.31.604.466.92.155.318.38.66.38.66-.162.056-.33.08-.498.069-.317-.013-.454-.1-.454-.1z" fill="#C9C9C9"/><path fill-rule="evenodd" clip-rule="evenodd" d="M19.175 18.114s.125-.498.075-.87c-.05-.374-.087-.536-.137-.673-.05-.136.025-.248.168.025.143.274.293.597.442.902.15.305.373.647.373.647-.15.056-.311.08-.473.068-.317-.006-.448-.1-.448-.1z" fill="#C7C7C7"/><path fill-rule="evenodd" clip-rule="evenodd" d="M19.194 18.114s.118-.492.075-.859a2.705 2.705 0 0 0-.137-.659c-.044-.137.025-.236.155.031.131.268.28.579.423.877.143.299.361.64.361.64a1.044 1.044 0 0 1-.46.07c-.292-.013-.417-.1-.417-.1z" fill="#C5C5C5"/><path fill-rule="evenodd" clip-rule="evenodd" d="M19.53 14.7s.38.64.554 1.05c.174.41.814 1.45 1.038 1.686.224.236.653.497.653.497s.038-.024-.03-.168a4.102 4.102 0 0 1-.337-.733c-.168-.467-.802-1.543-.802-1.543s-.348-.261-.448-.348a5.732 5.732 0 0 0-.354-.261l-.274-.18z" fill="#fff"/><path fill-rule="evenodd" clip-rule="evenodd" d="M19.549 14.706s.373.628.547 1.05c.174.424.808 1.431 1.032 1.674.224.242.647.497.647.497s.038-.03-.037-.168a5.482 5.482 0 0 1-.336-.727c-.168-.46-.796-1.537-.796-1.537s-.342-.26-.448-.348a8.95 8.95 0 0 0-.342-.255c-.093-.068-.18-.124-.267-.186z" fill="#FBFBFB"/><path fill-rule="evenodd" clip-rule="evenodd" d="M19.567 14.724s.373.622.548 1.033c.174.41.802 1.418 1.026 1.66.186.193.404.36.634.498.006 0 .038-.031-.037-.174a4.403 4.403 0 0 1-.336-.716c-.174-.454-.79-1.53-.79-1.53s-.342-.26-.441-.354a3.738 3.738 0 0 0-.343-.255c-.099-.05-.18-.112-.26-.162z" fill="#F8F8F7"/><path fill-rule="evenodd" clip-rule="evenodd" d="M19.58 14.73c.199.33.38.672.547 1.027.168.404.784 1.405 1.008 1.654.186.193.398.36.628.498 0 0 .025-.038-.044-.174a4.142 4.142 0 0 1-.342-.71c-.18-.447-.784-1.517-.784-1.517s-.342-.267-.441-.355c-.1-.087-.336-.26-.336-.26-.068-.057-.155-.107-.236-.163z" fill="#F6F6F6"/><path fill-rule="evenodd" clip-rule="evenodd" d="M19.598 14.743c.2.33.38.666.542 1.014.167.404.783 1.393 1 1.642.187.193.393.36.623.504.006-.007.025-.038-.05-.18a5.647 5.647 0 0 1-.342-.703c-.18-.436-.777-1.512-.777-1.512s-.33-.267-.43-.354c-.1-.087-.33-.262-.33-.262-.08-.043-.161-.1-.236-.149z" fill="#F2F2F2"/><path fill-rule="evenodd" clip-rule="evenodd" d="M19.61 14.755c.2.324.38.66.542 1.002.168.404.777 1.38.995 1.635.18.193.392.361.616.504 0-.006.018-.043-.056-.186a5.935 5.935 0 0 1-.342-.69c-.187-.436-.778-1.5-.778-1.5s-.33-.273-.423-.36c-.093-.087-.323-.255-.323-.255-.075-.05-.15-.1-.23-.15z" fill="#EEE"/><path fill-rule="evenodd" clip-rule="evenodd" d="M19.63 14.762c.198.323.379.653.534.995.168.404.765 1.368.983 1.623.18.193.386.367.616.504 0-.006.012-.044-.056-.187a4.686 4.686 0 0 1-.342-.684c-.187-.423-.765-1.486-.765-1.486s-.33-.28-.423-.361a10.07 10.07 0 0 0-.324-.255c-.074-.05-.155-.1-.224-.15z" fill="#EAEAEA"/><path fill-rule="evenodd" clip-rule="evenodd" d="M19.642 14.774c.199.317.38.647.535.989.168.398.759 1.356.97 1.61a2.6 2.6 0 0 0 .603.504c.007-.006.013-.05-.062-.186a6.866 6.866 0 0 1-.348-.672c-.187-.423-.759-1.48-.759-1.48l-.417-.36a12.72 12.72 0 0 0-.31-.256 1.632 1.632 0 0 0-.212-.15z" fill="#E8E8E8"/><path fill-rule="evenodd" clip-rule="evenodd" d="M19.654 14.78s.361.579.535.983c.174.404.753 1.337.964 1.605.175.199.373.367.597.503.007-.006.007-.05-.062-.186a6.175 6.175 0 0 1-.354-.666c-.187-.41-.753-1.467-.753-1.467s-.317-.287-.41-.367a15.44 15.44 0 0 0-.311-.255c-.063-.056-.13-.1-.206-.15z" fill="#E4E4E4"/><path fill-rule="evenodd" clip-rule="evenodd" d="M19.673 14.793c.193.31.373.634.529.97.174.398.746 1.324.957 1.592.168.199.367.367.585.504.006-.013.006-.056-.068-.193a6.1 6.1 0 0 1-.355-.66c-.187-.404-.746-1.461-.746-1.461l-.404-.373a8.057 8.057 0 0 0-.305-.255 3.37 3.37 0 0 1-.193-.124z" fill="#E3E3E2"/><path fill-rule="evenodd" clip-rule="evenodd" d="M19.692 14.805c.192.311.373.628.528.958.174.392.734 1.318.946 1.586.168.199.367.367.584.504 0-.013-.006-.056-.074-.193-.069-.137-.162-.249-.355-.647-.193-.398-.74-1.455-.74-1.455l-.404-.373a7.46 7.46 0 0 0-.299-.25c-.062-.049-.124-.086-.186-.13z" fill="#E1E1E0"/><path fill-rule="evenodd" clip-rule="evenodd" d="M19.698 14.812c.193.304.373.622.529.951.174.392.727 1.306.932 1.58.206.273.573.522.579.504.006-.019-.006-.063-.081-.2-.075-.136-.162-.242-.355-.64-.192-.398-.733-1.443-.733-1.443l-.398-.373-.293-.249a2.277 2.277 0 0 0-.18-.13z" fill="#DDD"/><path fill-rule="evenodd" clip-rule="evenodd" d="M19.717 14.824a8.7 8.7 0 0 1 .528.939c.174.392.715 1.287.927 1.567.211.28.566.523.566.504 0-.019-.013-.062-.087-.2-.075-.136-.156-.242-.36-.627-.206-.386-.729-1.437-.729-1.437s-.31-.299-.391-.373a12.846 12.846 0 0 0-.287-.249 1.47 1.47 0 0 0-.167-.124z" fill="#DBDBDB"/><path fill-rule="evenodd" clip-rule="evenodd" d="M19.729 14.836c.193.299.367.61.522.927.268.541.579 1.057.92 1.561.212.28.555.523.567.504.012-.019-.019-.068-.087-.199-.069-.13-.156-.243-.36-.628-.206-.386-.722-1.425-.722-1.425s-.305-.304-.392-.379c-.087-.074-.28-.249-.28-.249-.056-.037-.112-.08-.168-.112z" fill="#D7D7D7"/><path fill-rule="evenodd" clip-rule="evenodd" d="M19.748 14.842c.192.293.367.604.522.92.268.536.572 1.058.908 1.55.205.28.547.522.554.503.006-.018-.025-.068-.094-.199-.068-.13-.155-.236-.36-.616-.206-.379-.716-1.418-.716-1.418s-.298-.304-.385-.379a12.914 12.914 0 0 1-.274-.249 3.324 3.324 0 0 1-.155-.112z" fill="#D5D5D5"/><path fill-rule="evenodd" clip-rule="evenodd" d="M19.76 14.855c.193.292.367.597.523.908.174.392.69 1.256.895 1.542.205.287.541.523.547.504.007-.018-.024-.074-.093-.199-.068-.124-.155-.236-.36-.61-.206-.372-.71-1.405-.71-1.405s-.298-.31-.379-.386l-.267-.248c-.056-.038-.106-.075-.156-.106z" fill="#D3D3D3"/><path fill-rule="evenodd" clip-rule="evenodd" d="M19.773 14.861c.192.286.36.591.516.902.267.529.566 1.039.895 1.53.206.286.535.523.535.51a.988.988 0 0 0-.1-.211c-.074-.137-.155-.23-.36-.597s-.703-1.4-.703-1.4-.298-.31-.373-.392c-.075-.08-.261-.248-.261-.248a.607.607 0 0 1-.15-.094z" fill="#D1D1D1"/><path fill-rule="evenodd" clip-rule="evenodd" d="M19.785 14.873c.187.287.36.579.516.884.262.522.554 1.032.883 1.517.206.293.53.535.535.517.006-.02-.03-.081-.105-.212-.075-.13-.156-.23-.367-.59-.212-.362-.697-1.388-.697-1.388s-.292-.31-.373-.392l-.255-.248-.137-.088z" fill="#CDCDCD"/><path fill-rule="evenodd" clip-rule="evenodd" d="M19.797 14.886c.187.28.361.572.51.877.262.522.548 1.026.871 1.511.2.299.523.535.523.516 0-.018-.038-.087-.106-.211-.069-.125-.156-.23-.367-.585-.212-.354-.69-1.38-.69-1.38s-.293-.324-.367-.392a9.364 9.364 0 0 1-.25-.25.898.898 0 0 0-.124-.086z" fill="#CBCBCB"/><path fill-rule="evenodd" clip-rule="evenodd" d="M19.816 14.892c.187.28.36.572.51.87a16.8 16.8 0 0 0 .858 1.5c.206.298.51.535.523.516.012-.019-.038-.087-.112-.218-.075-.13-.156-.224-.373-.572-.218-.348-.684-1.368-.684-1.368s-.287-.324-.361-.392a9.285 9.285 0 0 1-.249-.249c-.037-.03-.075-.062-.112-.087z" fill="#C9C9C9"/><path fill-rule="evenodd" clip-rule="evenodd" d="M19.828 14.898c.187.274.355.566.504.859.255.51.541 1.013.859 1.492.199.299.503.535.51.517.006-.02-.044-.087-.119-.218-.074-.13-.155-.224-.373-.566-.218-.342-.678-1.362-.678-1.362s-.28-.323-.36-.398a6.526 6.526 0 0 1-.243-.249l-.1-.075z" fill="#C7C7C7"/><path fill-rule="evenodd" clip-rule="evenodd" d="M19.84 14.917c.188.274.355.553.505.846.18.373.64 1.175.84 1.48.198.305.497.535.503.516.006-.018-.05-.087-.124-.217-.075-.131-.156-.218-.373-.554-.218-.336-.672-1.356-.672-1.356s-.28-.323-.348-.398c-.069-.074-.237-.249-.237-.249l-.093-.068z" fill="#C5C5C5"/><path fill-rule="evenodd" clip-rule="evenodd" d="M15.662 17.343a1.454 1.454 0 0 1-.367.006s-.007-.616-.056-1.064a6.1 6.1 0 0 0-.33-1.368c-.124-.342-.342-.896-.342-.896s.18.175.317.336c.187.224.473.554.616 1.076.143.523.261 1.026.261 1.356.006.187-.031.38-.1.554z" fill="#fff"/><path fill-rule="evenodd" clip-rule="evenodd" d="M15.65 17.343a1.307 1.307 0 0 1-.35.006s-.012-.616-.055-1.064a6.302 6.302 0 0 0-.33-1.368l-.342-.89s.174.181.311.343c.187.224.46.553.603 1.063.143.51.262 1.014.262 1.344 0 .199-.038.385-.1.566z" fill="#FDFDFD"/><path fill-rule="evenodd" clip-rule="evenodd" d="M15.63 17.342a1.26 1.26 0 0 1-.342.007s-.006-.616-.056-1.064a6.095 6.095 0 0 0-.33-1.368 50.68 50.68 0 0 0-.335-.883c.106.112.211.23.305.348.18.224.447.541.59 1.063.143.523.262 1.002.262 1.331 0 .193-.031.386-.094.566z" fill="#FBFBFB"/><path fill-rule="evenodd" clip-rule="evenodd" d="M15.612 17.349a1.41 1.41 0 0 1-.324 0s-.012-.61-.056-1.064a6.096 6.096 0 0 0-.33-1.368 66.984 66.984 0 0 0-.335-.877s.168.187.298.355c.175.23.436.54.579 1.063.143.522.255.989.255 1.319a1.8 1.8 0 0 1-.087.572z" fill="#F8F8F7"/><path fill-rule="evenodd" clip-rule="evenodd" d="M15.6 17.349a1.293 1.293 0 0 1-.312 0s-.006-.61-.05-1.064a6.457 6.457 0 0 0-.329-1.368c-.13-.336-.33-.87-.33-.87s.168.186.293.36c.168.23.423.535.566 1.051.143.516.248.983.248 1.306a2.33 2.33 0 0 1-.087.585z" fill="#F6F6F6"/><path fill-rule="evenodd" clip-rule="evenodd" d="M15.587 17.349c-.1.012-.2.019-.299.006 0 0-.006-.616-.056-1.07a6.102 6.102 0 0 0-.33-1.368c-.124-.336-.323-.864-.323-.864s.162.192.286.367c.168.23.405.528.554 1.045.143.522.249.964.249 1.293a2.655 2.655 0 0 1-.081.591z" fill="#F4F4F4"/><path fill-rule="evenodd" clip-rule="evenodd" d="M15.568 17.349a1.408 1.408 0 0 1-.28.006s-.012-.616-.056-1.07a6.1 6.1 0 0 0-.33-1.368c-.124-.336-.323-.858-.323-.858s.162.192.28.367c.162.23.398.528.541 1.044.143.523.243.952.243 1.282a3.129 3.129 0 0 1-.075.597z" fill="#F2F2F2"/><path fill-rule="evenodd" clip-rule="evenodd" d="M15.556 17.349c-.087.012-.18.012-.268.006 0 0-.012-.616-.056-1.07a6.1 6.1 0 0 0-.33-1.368 87.63 87.63 0 0 0-.323-.852s.156.199.274.38c.155.23.386.522.529 1.038.143.522.236.945.236 1.269 0 .199-.025.404-.062.597z" fill="#EEE"/><path fill-rule="evenodd" clip-rule="evenodd" d="M15.537 17.349a1.164 1.164 0 0 1-.255.006s-.012-.616-.056-1.07a6.102 6.102 0 0 0-.33-1.368c-.124-.336-.323-.846-.323-.846s.156.206.268.386c.155.23.373.516.516 1.032.143.517.236.927.236 1.257.006.205-.012.404-.056.603z" fill="#ECECEC"/><path fill-rule="evenodd" clip-rule="evenodd" d="M15.525 17.35a1.105 1.105 0 0 1-.237.005s-.012-.615-.056-1.07a6.213 6.213 0 0 0-.33-1.368c-.124-.336-.316-.84-.316-.84s.149.206.26.386c.156.237.361.517.505 1.033.143.516.23.92.23 1.25a4.942 4.942 0 0 1-.056.603z" fill="#EAEAEA"/><path fill-rule="evenodd" clip-rule="evenodd" d="M15.506 17.349c-.075.006-.15.012-.224.006 0 0-.012-.616-.056-1.07a6.22 6.22 0 0 0-.33-1.368 75.655 75.655 0 0 0-.317-.833s.15.211.262.391c.143.23.342.504.49 1.027.144.522.231.901.231 1.237-.006.205-.019.41-.056.61z" fill="#E6E6E6"/><path fill-rule="evenodd" clip-rule="evenodd" d="M15.494 17.349a1.196 1.196 0 0 1-.212.006s-.012-.616-.056-1.07a6.097 6.097 0 0 0-.33-1.368c-.124-.336-.31-.827-.31-.827s.143.217.248.398c.143.236.33.504.473 1.02.143.516.23.896.23 1.225 0 .205-.012.41-.043.616z" fill="#E4E4E4"/><path fill-rule="evenodd" clip-rule="evenodd" d="M15.481 17.349c-.062.006-.13.012-.199.006 0 0-.012-.616-.056-1.07a6.095 6.095 0 0 0-.33-1.368c-.124-.336-.31-.82-.31-.82s.143.217.248.404c.137.23.324.497.467 1.013.143.516.217.883.217 1.213 0 .212-.012.417-.037.622z" fill="#E3E3E2"/><path fill-rule="evenodd" clip-rule="evenodd" d="M15.469 17.35c-.063.005-.125.011-.187.005 0 0-.012-.615-.056-1.07a6.096 6.096 0 0 0-.33-1.368c-.124-.336-.31-.815-.31-.815s.136.224.242.411c.137.236.305.498.448 1.014.143.516.218.87.218 1.206 0 .336-.025.616-.025.616z" fill="#DFDFDF"/><path fill-rule="evenodd" clip-rule="evenodd" d="M15.456 17.349c-.056.006-.112.006-.168.006 0 0-.012-.616-.056-1.07a6.1 6.1 0 0 0-.33-1.368c-.124-.336-.304-.809-.304-.809s.137.23.23.417c.193.311.342.653.442 1.008.143.516.217.858.217 1.188 0 .33-.03.628-.03.628z" fill="#DDD"/><path fill-rule="evenodd" clip-rule="evenodd" d="M15.444 17.349c-.05.006-.106.006-.156.006 0 0-.006-.616-.056-1.07a6.443 6.443 0 0 0-.323-1.368c-.13-.336-.305-.802-.305-.802s.13.23.23.416c.125.237.28.486.423 1.002.143.516.212.846.212 1.175 0 .33-.025.64-.025.64z" fill="#D9D9D9"/><path fill-rule="evenodd" clip-rule="evenodd" d="M15.431 17.349h-.143s-.006-.61-.05-1.064a6.457 6.457 0 0 0-.33-1.368c-.13-.336-.304-.796-.304-.796s.13.23.224.423c.18.311.317.647.41.995.144.523.212.84.212 1.17 0 .329-.019.64-.019.64z" fill="#D5D5D5"/><path fill-rule="evenodd" clip-rule="evenodd" d="M15.413 17.35h-.125s-.012-.61-.056-1.064a6.1 6.1 0 0 0-.33-1.369c-.124-.335-.298-.79-.298-.79s.125.237.218.43c.168.317.305.646.398.995.143.522.199.82.199 1.157 0 .335-.006.64-.006.64z" fill="#D3D3D3"/><path fill-rule="evenodd" clip-rule="evenodd" d="M15.406 17.35h-.118s-.012-.617-.056-1.064a6.1 6.1 0 0 0-.33-1.369c-.124-.342-.298-.79-.298-.79s.125.243.212.442c.167.311.298.64.391.983.143.522.2.814.2 1.144v.653z" fill="#CFCFCF"/><path fill-rule="evenodd" clip-rule="evenodd" d="M15.394 17.349h-.1s-.006-.616-.05-1.064a6.095 6.095 0 0 0-.329-1.368c-.13-.342-.298-.777-.298-.777s.118.242.205.441a5.7 5.7 0 0 1 .373.983c.143.516.199.802.199 1.126v.659z" fill="#CBCBCB"/><path fill-rule="evenodd" clip-rule="evenodd" d="M15.382 17.349h-.088s-.012-.616-.056-1.064a6.1 6.1 0 0 0-.33-1.368 41.027 41.027 0 0 0-.291-.771s.118.249.199.442a6.2 6.2 0 0 1 .36.982c.143.523.193.79.193 1.12 0 .33.013.659.013.659z" fill="#C7C7C7"/><path fill-rule="evenodd" clip-rule="evenodd" d="M15.363 17.349h-.069s-.006-.616-.056-1.064a6.095 6.095 0 0 0-.33-1.368c-.123-.342-.285-.771-.285-.771s.112.249.193.454c.143.317.255.64.348.976.143.517.187.778.187 1.107 0 .33.012.666.012.666z" fill="#C5C5C5"/><path fill-rule="evenodd" clip-rule="evenodd" d="M15.294 17.337s-.006.23-.006.385c0 .081-.012.162-.025.243 0 0 .038-.006.2-.038.161-.03.808-.149 1.237-.074.43.074.666.155.778.26.111.107.087.3.379.33.292.032.516.025.97.05.454.025.722.112 1.02.13.299.02.94-.068 1.319-.142.286-.062.578-.1.87-.112a.283.283 0 0 1 .2.062s-.156-.211-.28-.386l-.15-.217s-.13-.069-.392-.037c-.26.03-.746.161-1.181.192-.436.031-.728.006-.995-.056-.268-.062-.76-.056-1.095-.074-.336-.019-.597-.025-.703-.087-.106-.063-.137-.156-.18-.25-.044-.092-.112-.167-.336-.23-.224-.061-.46-.068-.82-.061a4.51 4.51 0 0 0-.81.111z" fill="url(#c)"/><path fill-rule="evenodd" clip-rule="evenodd" d="M22.067 18.363c.05.006.1.018.144.037.037.031.062.118.006.137a.181.181 0 0 1-.1.006.366.366 0 0 0-.012-.08.274.274 0 0 0-.038-.1z" fill="#223655"/><path fill-rule="evenodd" clip-rule="evenodd" d="m14.573 14.034-.249-.61c.2-.03.405-.025.597.007.299.05.51.155.629.323.068.1.118.211.143.33.149.074.304.13.472.167a5.19 5.19 0 0 0 1.12.069c.423-.019.933-.069 1.293-.093.361-.025.622-.056.846.062.168.08.299.224.373.392.063.136.156.304.156.304.124.019.255.025.38.007.136-.013.267-.05.391-.106l.106-.056.168.684a1.5 1.5 0 0 1-.392.075 1.25 1.25 0 0 1-.305-.007 1.03 1.03 0 0 1-.137-.224c-.08-.167-.136-.304-.33-.429-.192-.124-.36-.155-.932-.118-.572.037-1.3.106-1.779.094-.491-.02-.784-.075-.933-.125a1.675 1.675 0 0 1-.23-.087c-.037-.019-.025-.056-.062-.155a.613.613 0 0 0-.286-.349 1.025 1.025 0 0 0-.535-.168 2.323 2.323 0 0 0-.36-.006l-.144.019z" fill="url(#d)"/><path fill-rule="evenodd" clip-rule="evenodd" d="M18.112 16.528h-.056l-.006-.056a3.178 3.178 0 0 0-.336.031 1.375 1.375 0 0 0-.442.15s-.074-.23-.124-.374a2.822 2.822 0 0 1-.069-.217c.168.062.343.112.523.149.124.019.255.031.386.037l-.007-.056h.056a3.53 3.53 0 0 0-.217-.553 1.879 1.879 0 0 0-.168-.261l.584-.044a2.98 2.98 0 0 0-.012.473c.006.13.018.26.037.391h.069l.012.056c.143 0 .286-.018.423-.05a1.4 1.4 0 0 0 .354-.117s.075.217.119.36c.043.143.062.218.062.218a2.7 2.7 0 0 0-.436-.13c-.26-.057-.335-.063-.385-.063h-.075l.006.056h-.055c.055.18.124.36.205.535a2.1 2.1 0 0 0 .217.36l-.615-.024c.018-.125.03-.255.024-.38 0-.13-.012-.254-.037-.379-.018-.05-.037-.112-.037-.112z" fill="#29436E"/></svg>