<svg height="36" viewBox="0 0 36 36" width="36" xmlns="http://www.w3.org/2000/svg"><radialGradient id="a" cx="50%" cy="50%" gradientTransform="matrix(1 0 0 .95416 0 .023)" r="51.215%"><stop offset="0" stop-color="#52738d"/><stop offset=".502" stop-color="#52738d"/><stop offset="1" stop-color="#182431"/></radialGradient><radialGradient id="c" cx="50%" cy="50.001%" gradientTransform="matrix(1 0 0 .96367 0 .018)" r="50.951%"><stop offset="0" stop-color="#3b5a75"/><stop offset=".336" stop-color="#3b5a75"/><stop offset=".669" stop-color="#182431"/><stop offset="1" stop-color="#3b5a75"/></radialGradient><radialGradient id="e" cx="49.999%" cy="50%" gradientTransform="matrix(.9104 0 0 1 .045 0)" r="52.518%"><stop offset="0" stop-color="#3b5a75"/><stop offset=".358" stop-color="#3b5a75"/><stop offset=".714" stop-color="#182431"/><stop offset="1" stop-color="#3b5a75"/></radialGradient><radialGradient id="g" cx="37.365%" cy="64.571%" gradientTransform="matrix(1 0 0 .95415 0 .03)" r="65.547%"><stop offset="0" stop-color="#fff"/><stop offset=".5" stop-color="#fff"/><stop offset=".608" stop-color="#fff"/><stop offset="1" stop-color="#52738d"/></radialGradient><radialGradient id="h" cx="1.457%" cy="79.291%" gradientTransform="matrix(1 0 0 .96305 0 .03)" r="106.935%"><stop offset="0" stop-color="#fff"/><stop offset=".466" stop-color="#fff"/><stop offset=".553" stop-color="#fff"/><stop offset=".871" stop-color="#283b4e"/><stop offset="1" stop-color="#52738d"/></radialGradient><radialGradient id="i" cx="62.351%" cy="112.143%" gradientTransform="matrix(.9104 0 0 1 .056 0)" r="117.98%"><stop offset="0" stop-color="#fff"/><stop offset=".242" stop-color="#fff"/><stop offset=".406" stop-color="#fff"/><stop offset=".637" stop-color="#28465d"/><stop offset=".673" stop-color="#28465d"/><stop offset=".792" stop-color="#52738d"/><stop offset="1" stop-color="#52738d"/></radialGradient><linearGradient id="j" x1="27.914%" x2="53.635%" y1="60.185%" y2="39.428%"><stop offset="0" stop-color="#52738d"/><stop offset=".176" stop-color="#52738d"/><stop offset=".255" stop-color="#52738d"/><stop offset=".467" stop-color="#bbd2dc"/><stop offset=".55" stop-color="#bbd2dc"/><stop offset=".885" stop-color="#52738d"/><stop offset="1" stop-color="#52738d"/></linearGradient><linearGradient id="k" x1="60.506%" x2="34.5%" y1="46.898%" y2="-15.437%"><stop offset="0" stop-color="#3b5a75"/><stop offset=".124" stop-color="#3b5a75"/><stop offset=".533" stop-color="#d2e2e8"/><stop offset=".796" stop-color="#7092a9"/><stop offset="1" stop-color="#7092a9"/></linearGradient><linearGradient id="l" x1="-20.245%" x2="96.614%" y1="35.275%" y2="89.21%"><stop offset="0" stop-color="#28465d"/><stop offset=".06" stop-color="#28465d"/><stop offset=".175" stop-color="#f1f0f1"/><stop offset=".473" stop-color="#f1f0f1"/><stop offset=".622" stop-color="#f1f0f1"/><stop offset="1" stop-color="#28465d"/></linearGradient><linearGradient id="m" x1="58.262%" x2="31.281%" y1="127.24%" y2="-33.389%"><stop offset="0" stop-color="#28465d"/><stop offset=".104" stop-color="#28465d"/><stop offset=".284" stop-color="#d2e2e8"/><stop offset=".396" stop-color="#d2e2e8"/><stop offset=".725" stop-color="#28465d"/><stop offset=".824" stop-color="#9fbfcf"/><stop offset=".885" stop-color="#9fbfcf"/><stop offset="1" stop-color="#28465d"/></linearGradient><radialGradient id="n" cx="37.652%" cy="99.244%" gradientTransform="matrix(1 0 0 .92618 0 .073)" r="144.378%"><stop offset="0" stop-color="#3b5a75"/><stop offset=".484" stop-color="#fff"/><stop offset=".709" stop-color="#fff"/><stop offset=".772" stop-color="#fff"/><stop offset="1" stop-color="#fff"/></radialGradient><mask id="b" fill="#fff"><path d="M1.411 3.447c-.782-.034-1.448-.206-1.41-.33.038-.122.347-.102.752-.102.74 0 1.471-.139 1.641-.334.29-.333-.172-1.096-1.616-2.15C.508.334.33.186.286.096.266.056.279.004.33.001c.1-.006.254.037.56.185 1.25.606 2.65 1.81 2.367 2.657-.155.463-.89.61-1.605.61a5.45 5.45 0 0 1-.242-.006" fill-rule="evenodd"/></mask><mask id="d" fill="#fff"><path d="M1.22 3.936c-.318-.486.299-1.166.848-1.815.464-.548.953-1.068.749-1.372C2.654.506 1.58.489 1.219.469.781.447.171.459.06.4-.008.361-.095.223.28.155A10.17 10.17 0 0 1 1.997 0c.733 0 1.591.109 1.77.718.134.453-.338.963-.783 1.502-.478.578-.975 1.013-.935 1.422.033.332.671.362 1.708.38.14.002.626-.004.55.151-.055.114-.342.17-.726.233a5.49 5.49 0 0 1-.86.072c-.596 0-1.225-.119-1.502-.542" fill-rule="evenodd"/></mask><mask id="f" fill="#fff"><path d="M2.474 4.222c-.65-.034-1.535-.24-1.51-.356.03-.177.695-.119.927-.119.644 0 1.669-.043 1.836-.475.34-.875-1.983-2.51-2.528-2.341-.262.08.47 1.29.697 1.672.144.24.34.603.191.623-.181.025-.446-.375-.563-.537C1.111 2.117.697 1.506.358.864.253.666-.095.092.025.014.11-.04.633.058 1.308.325c2.125.842 3.059 1.924 3.315 2.83.087.307-.102.578-.28.701-.389.266-1.028.374-1.618.374a4.08 4.08 0 0 1-.25-.007" fill-rule="evenodd"/></mask><g fill="none" fill-rule="evenodd"><path d="M18 0c2.837 0 5.52.656 7.907 1.825C31.884 4.753 36 10.895 36 18c0 9.942-8.058 18-18 18-9.94 0-18-8.057-18-18C0 8.06 8.06 0 18 0z" fill="#f2f4f7" fill-rule="nonzero"/><path d="M7.758 13.932c.783-.035 1.709.121 1.881.638.283.846-1.15 2.08-2.4 2.686-.305.148-.49.189-.568.179-.074-.01-.085-.079-.061-.126.044-.089.245-.27.515-.467 1.406-1.027 1.863-1.78 1.598-2.086-.17-.195-.883-.331-1.623-.331-.201 0-.73.044-.783-.13-.045-.143.664-.329 1.441-.363M6.009 17.79c.65-.034 1.44.067 1.884.372.221.15.376.43.286.748-.256.905-1.212 2-3.336 2.842-.676.268-1.207.37-1.318.298-.12-.077.228-.674.333-.872.34-.643.763-1.268 1.176-1.84.152-.21.387-.576.6-.547.19.026-.033.415-.18.661-.246.415-.925 1.566-.701 1.634.495.153 2.818-1.431 2.475-2.313-.158-.41-1.167-.448-1.802-.448-.289 0-.92.06-.955-.137-.038-.183.959-.368 1.538-.398" fill="#0b1217"/><path d="M11.08 16.72c.393.065.714.114.788.265.082.17-.346.18-.562.184-1.036.018-1.66.037-1.691.355-.041.41.442.821.92 1.4.435.527.93 1.047.788 1.533-.178.604-.998.732-1.78.732a10.65 10.65 0 0 1-1.754-.161c-.37-.066-.316-.232-.217-.285.11-.06.741-.061 1.18-.085.36-.019 1.407-.018 1.57-.26.2-.297-.29-.806-.74-1.338-.561-.663-1.178-1.349-.852-1.85.423-.647 1.659-.602 2.35-.49" fill="#0b1217"/><g fill-rule="nonzero"><path d="M26.905 18.6c.825 0 1.143-.258 1.273-.855l.196-.929c.013-.062-.028-.08-.08-.08h-.398l-.11.534-.063.284-.052.248c-.073.336-.311.488-.715.488-.445 0-.564-.148-.494-.488l.023-.111.092-.421.11-.535h-.4c-.05 0-.1.019-.113.081l-.196.93c-.134.654.223.854.927.854m-14.008 1.008c-.06.256.16.38.605.634.488.276.6.297.554.443-.036.118-.164.123-.383.123h-.869c-.098 0-.156.037-.173.117l-.035.163h1.095c.502 0 .816-.028.93-.308a.357.357 0 0 0-.08-.418 1.2 1.2 0 0 0-.311-.206c-.626-.323-.79-.36-.75-.517.022-.089.089-.092.324-.092h.734c.1 0 .157-.037.174-.118l.036-.17h-.93c-.525 0-.841.003-.921.349m4.829 0c-.06.256.16.38.605.634.488.276.6.297.554.443-.036.118-.164.123-.383.123h-.868c-.1 0-.156.037-.174.117l-.034.163h1.095c.501 0 .815-.028.929-.308a.355.355 0 0 0-.08-.418 1.204 1.204 0 0 0-.311-.206c-.626-.323-.79-.36-.75-.517.022-.089.089-.092.324-.092h.735c.098 0 .156-.037.173-.118l.036-.17h-.929c-.526 0-.842.003-.922.349m12.238 0c-.06.256.16.38.605.634.488.276.6.297.554.443-.035.118-.163.123-.382.123h-.869c-.099 0-.156.037-.173.117l-.035.163h1.095c.501 0 .815-.028.93-.308a.356.356 0 0 0-.08-.418 1.198 1.198 0 0 0-.312-.206c-.626-.323-.79-.36-.75-.517.022-.089.09-.092.325-.092h.734c.099 0 .156-.037.173-.118l.037-.17h-.93c-.526 0-.841.003-.922.349m-7.226-1.357a.356.356 0 0 0-.08-.418 1.206 1.206 0 0 0-.312-.206c-.626-.324-.789-.36-.75-.518.023-.088.09-.091.325-.091h.734c.099 0 .156-.037.174-.118l.036-.17h-.93c-.526 0-.842.003-.922.349-.06.256.16.38.606.633.487.277.598.298.554.444-.036.118-.164.122-.383.122h-.869c-.099 0-.156.038-.173.118l-.035.163h1.095c.501 0 .816-.028.93-.308m-2.333 0a.357.357 0 0 0-.08-.418 1.219 1.219 0 0 0-.312-.206c-.626-.324-.789-.36-.75-.518.023-.088.09-.091.325-.091h.734c.099 0 .156-.037.173-.118l.037-.17h-.93c-.526 0-.842.003-.922.349-.06.256.16.38.606.633.487.277.599.298.554.444-.036.118-.164.122-.384.122h-.867c-.1 0-.157.038-.174.118l-.035.163h1.095c.502 0 .816-.028.93-.308m10.184-1.516c-.099 0-.154.03-.17.1l-.038.183h.785l-.327 1.541h.352c.099 0 .156-.037.176-.13l.3-1.41h.655c.093 0 .126-.038.142-.112l.036-.172zm-17.107.507c-.05 0-.087.031-.093.062l-.267 1.255h1.18c.662 0 1.12-.224 1.264-.923.107-.52-.14-.9-.814-.9h-1.428l-.006.023c-.032.122-.015.258.21.258h1.039c.5 0 .57.228.47.631-.097.395-.268.599-.643.63h-.711l.22-1.036zM30.31 18.39c.016-.08-.014-.111-.094-.111h-1.07l.315-1.481c.006-.031-.018-.062-.061-.062h-.427l-.388 1.824h1.688zm-3.186.875h-.452l-.874.711-.572-.71h-.452c-.074 0-.114.042-.13.117l-.363 1.706h.384c.08 0 .125-.037.14-.105l.271-1.277.44.575a.12.12 0 0 0 .106.056h.198a.192.192 0 0 0 .13-.056l.684-.575-.271 1.277c-.015.068.014.105.095.105h.383l.363-1.706c.016-.075-.006-.118-.08-.118m-4.778.118-.362 1.706h1.842l.04-.182c.015-.075-.005-.1-.097-.1h-1.224l.104-.489h1.082c.03 0 .053-.018.058-.043l.042-.194c.005-.025-.01-.044-.04-.044h-1.083l.104-.488h1.181c.056 0 .111 0 .126-.068l.045-.216h-1.663c-.086 0-.137.037-.155.118m5.471 0-.362 1.706h1.842l.039-.182c.016-.075-.004-.1-.096-.1h-1.225l.104-.489h1.082c.031 0 .054-.018.059-.043l.041-.194c.006-.025-.01-.044-.04-.044H28.18l.104-.488h1.18c.057 0 .112 0 .126-.068l.046-.216h-1.663c-.087 0-.137.037-.155.118m-11.05-.056-.177.83c-.309.087-1.11.246-.985-.341l.117-.55h-.42c-.05 0-.087.03-.094.06l-.106.502c-.203.952.783.822 1.422.643l-.132.618h.352c.1 0 .157-.037.177-.13l.36-1.694h-.427c-.043 0-.08.03-.087.062m5.263.11.037-.171h-1.91c-.1 0-.155.03-.17.098l-.04.184h.786l-.327 1.541h.352c.099 0 .156-.037.176-.13l.3-1.41h.655c.093 0 .126-.038.141-.113m-5.494-1.933c.075-.356.301-.484.705-.484.427 0 .54.146.47.484l-.024.11c-.008.037-.027.135-.138.135h-1.065zm-.602 1.057h.377l.11-.53h1.175l-.11.53h.377c.05 0 .097-.018.11-.08l.196-.921c.144-.7-.287-.848-.869-.848-.696 0-1.094.16-1.246.848l-.196.92c-.013.063.026.081.076.081m7.93-1.057c.074-.356.3-.484.705-.484.427 0 .539.146.47.484l-.024.11c-.009.037-.028.135-.138.135H23.81zm-.603 1.057h.378l.11-.53h1.174l-.11.53h.378c.049 0 .096-.018.11-.08l.195-.921c.145-.7-.287-.848-.868-.848-.697 0-1.095.16-1.247.848l-.195.92c-.013.063.026.081.075.081" fill="#0b4476"/><g fill="url(#a)" mask="url(#b)" transform="matrix(1 0 0 -1 6.347 17.412)"><path d="M1.411 3.447c-.782-.034-1.448-.206-1.41-.33.038-.122.347-.102.752-.102.74 0 1.471-.139 1.641-.334.29-.333-.172-1.096-1.616-2.15C.508.334.33.186.286.096.266.056.279.004.33.001c.1-.006.254.037.56.185 1.25.606 2.65 1.81 2.367 2.657-.155.463-.89.61-1.605.61a5.45 5.45 0 0 1-.242-.006"/></g><g fill="url(#c)" mask="url(#d)" transform="matrix(1 0 0 -1 7.532 21.161)"><path d="M1.22 3.936c-.318-.486.299-1.166.848-1.815.464-.548.953-1.068.749-1.372C2.654.506 1.58.489 1.219.469.781.447.171.459.06.4-.008.361-.095.223.28.155A10.17 10.17 0 0 1 1.997 0c.733 0 1.591.109 1.77.718.134.453-.338.963-.783 1.502-.478.578-.975 1.013-.935 1.422.033.332.671.362 1.708.38.14.002.626-.004.55.151-.055.114-.342.17-.726.233a5.49 5.49 0 0 1-.86.072c-.596 0-1.225-.119-1.502-.542"/></g><g fill="url(#e)" mask="url(#f)" transform="matrix(1 0 0 -1 3.535 22.042)"><path d="M2.474 4.222c-.65-.034-1.535-.24-1.51-.356.03-.177.695-.119.927-.119.644 0 1.669-.043 1.836-.475.34-.875-1.983-2.51-2.528-2.341-.262.08.47 1.29.697 1.672.144.24.34.603.191.623-.181.025-.446-.375-.563-.537C1.111 2.117.697 1.506.358.864.253.666-.095.092.025.014.11-.04.633.058 1.308.325c2.125.842 3.059 1.924 3.315 2.83.087.307-.102.578-.28.701-.389.266-1.028.374-1.618.374a4.08 4.08 0 0 1-.25-.007"/></g><path d="M1.411 3.448C.63 3.413-.037 3.24.001 3.116c.016-.05.47-.02.787-.02 1.035 0 1.623-.027 1.912-.36.291-.334-.342-1.164-1.781-2.23C.638.3.385.136.327.076.298.045.286.002.33 0c.08-.006.225.022.56.185 1.25.606 2.65 1.81 2.367 2.657-.155.464-.89.61-1.605.61a5.45 5.45 0 0 1-.242-.005" fill="url(#g)" transform="matrix(1 0 0 -1 6.347 17.412)"/><path d="M1.217 3.936c-.317-.486.364-1.217.95-1.834.492-.52 1.083-1.106.87-1.423-.205-.304-1.392-.3-1.794-.297C.787.387.181.392.058.365.018.356-.008.315.002.287.02.24.092.19.278.157A10.17 10.17 0 0 1 1.995 0c.733 0 1.591.109 1.77.718.139.469-.406 1.06-.913 1.618-.504.555-1.003.937-.962 1.346.034.344.61.409 1.7.408.563 0 .765-.02.715.083-.055.114-.342.17-.727.233a5.465 5.465 0 0 1-.859.072c-.596 0-1.225-.119-1.502-.542" fill="url(#h)" transform="matrix(1 0 0 -1 7.534 21.161)"/><path d="M2.474 4.222c-.65-.034-1.535-.24-1.51-.356.015-.093.555-.013 1.007-.013.721 0 1.816-.02 2.018-.539C4.372 2.33 1.63.501 1.01.726c-.278.102.426 1.275.821 1.877.155.234.407.603.257.623-.181.025-.446-.375-.563-.537C1.111 2.117.697 1.506.358.864.253.666-.095.092.025.014.11-.04.633.058 1.308.325c2.125.842 3.059 1.924 3.315 2.83.087.307-.102.578-.28.701-.389.266-1.028.374-1.618.374a4.08 4.08 0 0 1-.25-.007" fill="url(#i)" transform="matrix(1 0 0 -1 3.535 22.042)"/><path d="M.358.864C.253.666-.095.092.025.014.11-.04.633.058 1.308.325a9.9 9.9 0 0 1 .993.455l-.423.16c-.376-.184-.701-.274-.87-.213-.109.04-.065.249.053.522l-.4.151A10.92 10.92 0 0 1 .359.864" fill="url(#j)" transform="matrix(1 0 0 -1 3.535 22.042)"/><path d="M2.163 1.804C2.655 1.284 3.248.7 3.035.382 2.83.08 1.645.08 1.244.084.787.09.18.094.058.067.023.06-.002.027 0 0c0 .026.023.054.058.062C.181.09.822.058 1.278.053 1.71.048 2.868.02 3.101.368c.214.317-.343.883-.835 1.402C1.69 2.377.89 3.136 1.217 3.637c-.316-.485.361-1.216.946-1.833" fill="url(#k)" transform="matrix(1 0 0 -1 7.534 20.863)"/><path d="M.085 3.2c.058-.074.57-.004 1-.004.722 0 1.816-.018 2.018-.538C3.485 1.674.743-.154.123.072-.152.173.55 1.343.946 1.945c.154.234.405.604.259.626.146-.022-.188-.455-.341-.689C.496 1.324-.231.208.073.037c.587-.332 3.465 1.648 3.08 2.639-.202.52-1.214.567-1.936.567-.431 0-1.064-.113-1.133-.042" fill="url(#l)" transform="matrix(1 0 0 -1 4.42 21.387)"/><path d="M1.725 3.267C.627 3.297.044 3.253.002 2.829c-.04-.41.523-.84 1.027-1.396.459-.506.948-.997.935-1.433.014.444-.474.977-.934 1.483-.5.55-.995.945-.955 1.346.034.34.607.405 1.692.405.563 0 .765-.016.715.086.056-.114-.264-.066-.757-.053" fill="url(#m)" transform="matrix(1 0 0 -1 9.357 20.308)"/><path d="M.88 3.05C.563 3.043.02 2.99 0 3.04c.019-.05.47-.025.787-.025 1.035 0 1.618-.023 1.907-.355.291-.335-.337-1.164-1.777-2.23C.637.224.384.06.325 0c.059.06.342.2.626.404 1.481 1.068 2.083 1.92 1.816 2.274-.212.279-.713.376-1.564.376-.103 0-.21-.002-.324-.004" fill="url(#n)" transform="matrix(1 0 0 -1 6.348 17.337)"/></g></g></svg>