<svg height="36" width="36" xmlns="http://www.w3.org/2000/svg"><g fill="none" fill-rule="evenodd"><path d="M18 0a18 18 0 1 1 0 36 18 18 0 0 1 0-36z" fill="#f2f4f7" fill-rule="nonzero"/><path d="M22.57 18.75c.69 0 1.15.37 1.27 1.02l.02.14-.47.04h-.04c-.1-.46-.36-.7-.79-.7-.6 0-1 .56-1 1.44s.4 1.42 1.02 1.42c.43 0 .7-.25.79-.75l.02-.14.52.03c-.06.89-.52 1.37-1.32 1.37-1 0-1.63-.76-1.63-1.93 0-.67.2-1.2.57-1.55.28-.25.65-.39 1.04-.39zm-5.8.07h.57v2.16a8 8 0 0 0 0 .26l.02.18c.01.13.04.21.08.3.11.25.39.4.74.4.4 0 .68-.18.78-.47a.97.97 0 0 0 .06-.32v-2.51h.58v2.58c-.02.25-.05.38-.12.52-.2.44-.68.7-1.3.7-.61 0-1.1-.26-1.3-.7-.05-.13-.09-.24-.1-.42l-.01-.22zm9.02 0v1.5H26l1.23-1.5h.68l-1.46 1.74 1.58 1.99h-.76l-1.3-1.74h-.2v1.74h-.58v-3.73h.59zm-14.66 0v.5h-1v3.23h-.57V19.3h-.99v-.49h2.56zm2.36 0h.33c.4.02.59.06.79.15.36.17.57.53.57.96s-.2.76-.58.97l-.14.06.93 1.59h-.69l-.85-1.5h-.58v1.5h-.59v-3.68c.25-.05.55-.05.81-.05zm.16.5h-.38v1.23h.51l.18-.01c.1-.01.17-.03.25-.06.23-.08.36-.28.36-.56 0-.23-.1-.42-.29-.5a.89.89 0 0 0-.39-.1zM4 13.05v3.68h.87l.31-.01c.42-.02.63-.08.87-.21.52-.3.83-.91.83-1.65s-.33-1.4-.87-1.68A2.2 2.2 0 0 0 4.97 13h-.2c-.18 0-.44 0-.64.03zM30.1 13h.34c.39.02.58.06.78.15.36.17.57.53.57.95 0 .44-.2.77-.58.97l-.13.07.92 1.59h-.68l-.86-1.5h-.58v1.5h-.58v-3.68c.24-.06.54-.05.8-.05zm-16.52 0v3.73H13V13h.6zm8.56 0v3.23h1.62l-.04.5h-2.19V13h.6zm5.42 0 .03.5h-1.65v1.04h1.03v.5h-1.03v1.19h1.7l-.04.5h-2.24V13zm-17.54 0 1.28 3.73h-.6l-.28-.88H9.05l-.29.88h-.6L9.46 13zm6.56 0 1 2.63L18.6 13h.76l.22 3.73h-.53l-.19-2.95-1.12 2.95h-.3l-1.12-2.95-.18 2.95h-.53L15.8 13h.77zm-12 3.23v-2.75h.46l.22.01c.23.02.34.07.49.15.34.21.52.66.52 1.21s-.17 1-.48 1.2c-.2.12-.37.17-.75.17h-.46zm5.15-2.55-.53 1.68h1.06zm20.53-.19h-.38v1.24h.52l.18-.01c.1-.01.17-.03.24-.06.24-.08.37-.29.37-.56 0-.23-.1-.42-.3-.5a.75.75 0 0 0-.22-.08l-.17-.02h-.24z" fill="#000"/></g></svg>