<svg width="36" height="36" fill="none" xmlns="http://www.w3.org/2000/svg"><path d="M18 0c2.837 0 5.52.656 7.907 1.825C31.884 4.753 36 10.895 36 18c0 9.942-8.058 18-18 18-9.94 0-18-8.057-18-18C0 8.06 8.06 0 18 0z" fill="#F2F4F7"/><g fill="#00468E"><path d="M26.777 19.293a.586.586 0 0 0-.588-.537h-.793v2.968h-1.408V14.61h3.02c.64 0 1.177.538 1.177 1.177v1.331c0 .435-.256.845-.64 1.05.384.204.64.588.64 1.023v2.533h-1.407v-2.43zm0-2.2v-.845a.586.586 0 0 0-.588-.537h-.793v1.919h.844a.578.578 0 0 0 .538-.537zM13.19 12h1.407v1.305H13.19V12zm2.815 0h1.407v1.305h-1.407V12z"/><path d="M5 12h7.012v1.305H6.407v9.724h23.186v-9.724H18.589V12H31v12.335H5V12z"/><path d="M10.016 20.598c.307 0 .563-.256.588-.563V16.3c-.025-.307-.281-.563-.588-.563h-.794v4.862h.794zM7.789 14.61h3.046c.64 0 1.151.512 1.177 1.126v4.81a1.19 1.19 0 0 1-1.177 1.178H7.789V14.61zm5.4 6.014V14.61h1.407v5.4a.58.58 0 0 0 .589.588h.205a.615.615 0 0 0 .614-.563V14.61h1.407v6.014a1.19 1.19 0 0 1-1.177 1.177h-1.868c-.64 0-1.177-.512-1.177-1.177zm8.215-1.331a.586.586 0 0 0-.59-.537h-.792v2.968h-1.408V14.61h3.02c.64 0 1.177.537 1.177 1.177v1.33c0 .436-.256.845-.64 1.05.384.205.64.588.64 1.024v2.533h-1.433v-2.431h.026zm0-2.2v-.845a.586.586 0 0 0-.59-.538h-.792v1.92h.844c.282-.026.486-.256.538-.538z"/></g></svg>