<svg width="36" height="36" fill="none" xmlns="http://www.w3.org/2000/svg"><path d="M18 0c2.837 0 5.52.656 7.907 1.825C31.884 4.753 36 10.895 36 18c0 9.942-8.058 18-18 18-9.94 0-18-8.057-18-18C0 8.06 8.06 0 18 0z" fill="#F2F4F7"/><g fill-rule="evenodd" clip-rule="evenodd"><path d="M17.974 16.042a106.541 106.541 0 0 0-.561 1.28 9.848 9.848 0 0 1-.11.248 2.245 2.245 0 0 0-.062.14c0 .005-.033.078-.073.165a3.09 3.09 0 0 0-.073.165c0 .005-.02.051-.044.104a8.035 8.035 0 0 0-.157.353c0 .003-.028.067-.062.14a9.463 9.463 0 0 0-.11.25c-.027.062-.074.17-.105.237a9.52 9.52 0 0 0-.09.205 15.45 15.45 0 0 1-.153.354c-.066.15-.12.279-.12.288 0 .01.153.017.352.017h.353l.14-.316c.078-.174.216-.488.308-.7a42.587 42.587 0 0 1 .273-.622 3 3 0 0 1 .073-.164c.04-.087.073-.16.073-.164a2.3 2.3 0 0 1 .062-.141c.034-.074.084-.186.11-.249l.1-.228c.079-.174.217-.494.229-.53.016-.049.04-.039.067.027.033.08.243.559.364.825.03.068.056.127.056.13a13.874 13.874 0 0 1 .189.433c.035.086.094.22.13.298.036.078.065.144.065.148 0 .004.033.078.073.164.04.087.073.161.073.165 0 .003.028.067.062.14.034.074.084.186.11.25l.1.228c.03.062.071.157.094.21l.041.096h.354c.195 0 .355-.008.355-.017 0-.02-.04-.116-.121-.291a2.33 2.33 0 0 1-.062-.14 2.99 2.99 0 0 0-.073-.165 3.097 3.097 0 0 1-.073-.165 2.3 2.3 0 0 0-.062-.14 10.034 10.034 0 0 1-.11-.248 59.077 59.077 0 0 0-.223-.512c-.218-.494-.212-.482-.28-.633a2.013 2.013 0 0 1-.057-.131c0-.004-.028-.067-.062-.14a10.197 10.197 0 0 1-.11-.25 10.231 10.231 0 0 0-.102-.232 9.402 9.402 0 0 1-.1-.229 9.756 9.756 0 0 0-.1-.224 27.584 27.584 0 0 1-.129-.292L18.718 16h-.364c-.36 0-.364 0-.38.04zm2.303-.018c0 .02.075.215.128.333.01.02.072.177.139.348.067.17.132.335.146.365l.327.814a98.447 98.447 0 0 0 .413 1.024 66.406 66.406 0 0 0 .326.814l.104.256h.762l.072-.173a162.375 162.375 0 0 1 .811-2.018c.042-.113.189-.478.23-.57.051-.117.474-1.186.474-1.2 0-.01-.162-.017-.373-.017h-.372l-.042.106-.064.16a270.642 270.642 0 0 0-.649 1.573c-.009.02-.075.18-.146.356a46.682 46.682 0 0 1-.26.631c-.067.163-.02.247-.48-.869a67.683 67.683 0 0 0-.193-.466l-.1-.247a10.369 10.369 0 0 0-.111-.268.39.39 0 0 1-.026-.068.91.91 0 0 0-.043-.107 32.348 32.348 0 0 1-.188-.448l-.144-.352h-.37c-.288 0-.371.005-.371.023z" fill="#127CBD"/><path d="M4 17.996v1.995l.9-.008c1.08-.01 1.271-.036 1.694-.234 1.215-.57 1.372-2.566.265-3.357-.45-.32-.819-.391-2.04-.391H4v1.995zm3.877-1.98c0 .01.147.254.326.545.18.29.508.825.732 1.188l.405.661v1.578h.695v-1.583l.137-.22a78.374 78.374 0 0 0 .522-.85c.047-.07.687-1.115.726-1.183a.41.41 0 0 1 .062-.088c.08-.05.01-.063-.346-.063h-.362l-.538.896c-.296.493-.543.896-.548.896-.006 0-.253-.403-.549-.896L8.602 16H8.24c-.2 0-.363.007-.363.016zm4.152 1.978v1.994h.329c.325 0 .329 0 .339-.041.005-.023.008-.67.005-1.436-.003-.767 0-1.395.007-1.395s.212.258.456.572a253.356 253.356 0 0 0 .913 1.173l.164.213.292.377c.115.15.257.331.316.404l.108.133h.729V16h-.677v1.472c0 .81-.006 1.472-.014 1.471a.699.699 0 0 1-.105-.122c-.05-.068-.137-.18-.193-.251a188.36 188.36 0 0 1-1.182-1.52c-.34-.44-.712-.918-.764-.981L12.696 16h-.667v1.993zm13.68-1.875c-.03.065-.075.168-.1.228a13.391 13.391 0 0 1-.165.376l-.154.344a2.047 2.047 0 0 0-.057.132c0 .003-.03.07-.066.15a108.015 108.015 0 0 1-.64 1.456 9.142 9.142 0 0 1-.11.247 2.088 2.088 0 0 0-.061.141c0 .004-.02.05-.045.104a7.781 7.781 0 0 0-.157.352c0 .004-.033.078-.073.165-.04.087-.073.161-.073.166 0 .004.165.008.366.008.212 0 .366-.007.366-.017a.98.98 0 0 1 .062-.151c.034-.074.083-.185.11-.248.046-.11.105-.245.177-.403l.035-.077h.994c.774 0 .999.005 1.012.022.015.02.225.491.351.787l.037.087h.357c.197 0 .358-.007.358-.015a.447.447 0 0 0-.035-.087 41.72 41.72 0 0 1-.359-.813 39.813 39.813 0 0 0-.246-.558c0-.006-.063-.146-.157-.352a1.146 1.146 0 0 1-.044-.104 38.15 38.15 0 0 1-.466-1.063 2.39 2.39 0 0 1-.065-.145c0-.003-.028-.067-.062-.14a10.008 10.008 0 0 1-.112-.253 8.521 8.521 0 0 0-.19-.42c-.012-.023-.078-.029-.374-.033l-.36-.005-.054.119zm2.741-.086.243.374c.195.296.398.607.898 1.372l.106.161-.677 1.014a69.005 69.005 0 0 0-.677 1.024c0 .006.187.008.416.005l.416-.004.128-.193c.121-.183.195-.296.656-1.002.107-.163.203-.293.213-.286.01.006.079.103.152.215.23.35.45.687.645.987l.189.288H32l-.06-.09c-.032-.05-.336-.507-.676-1.015-.34-.508-.617-.932-.617-.943 0-.02.053-.104.43-.677.267-.409.515-.786.692-1.055a2.57 2.57 0 0 0 .122-.197c0-.006-.186-.01-.413-.01h-.412l-.44.667c-.243.367-.45.668-.462.667-.01 0-.218-.3-.459-.667l-.439-.666h-.416c-.392-.001-.416 0-.4.03zm-22.557.641c.722.18 1.004.548 1.005 1.311.001.612-.194.983-.63 1.195-.287.14-.37.154-1.02.163l-.571.008v-2.733l.535.01c.45.008.558.016.681.046zm20.436.614c.102.23.185.42.185.424 0 .003.033.077.073.163.04.087.073.161.073.165a6.476 6.476 0 0 0 .183.402c0 .005-.322.01-.715.01h-.714l.013-.04c.012-.04.055-.14.404-.928.096-.215.18-.409.188-.43.043-.112.099-.212.112-.2.007.009.097.204.198.434z" fill="#97C93C"/></g></svg>