<svg height="36" viewBox="0 0 36 36" width="36" xmlns="http://www.w3.org/2000/svg"><mask id="a" fill="#fff"><path d="M0 0h14.741v4.281H0z" fill-rule="evenodd"/></mask><mask id="b" fill="#fff"><path d="M0 0h1.704v2.088H0z" fill-rule="evenodd"/></mask><g fill="none" fill-rule="evenodd"><path d="M18 0c2.837 0 5.52.656 7.907 1.825C31.884 4.753 36 10.895 36 18c0 9.942-8.058 18-18 18-9.94 0-18-8.057-18-18C0 8.06 8.06 0 18 0z" fill="#f2f4f7" fill-rule="nonzero"/><path d="m7 25.665 2.837 1.075v-5.448L7 20.252zm0-11.011 2.837 1.075v-5.448L7 9.24z" fill="#174175"/><path d="M2.837 4.281c.547-.302 2.357-1.29 2.938-1.56 1.574-.734 2.236-.988 4.017-1.425.744-.182 2.467-.36 3.399-.202.758.13.936.245 1.55.509-.168-.134-1.09-.615-1.47-.792-1.175-.547-2.202-.812-4.064-.812-.61 0-1.09.068-1.58.144C6.88.27 6.15.47 5.467.705 3.47 1.391 1.806 2.405 0 3.24z" fill="#759fcd" mask="url(#a)" transform="translate(7 6)"/><path d="M19.523 9.998c.898.225 1.7.404 2.405.82 2.237 1.312 3.092 4.22 2.885 7.945-.053.902-.254 1.877-.37 2.597h-3.2c.171-.441.359-.888.493-1.377.567-2.05.39-5.67-.35-7.403a7.997 7.997 0 0 0-1.042-1.728c-.149-.196-.677-.71-.82-.854" fill="#174175"/><g fill="#759fcd"><path d="M1.291 1.042c0 .22-.014.436-.139.56-.077.078-.183.12-.302.12s-.221-.042-.298-.12c-.125-.124-.14-.34-.14-.56C.413.82.428.605.553.48.63.404.73.365.85.365s.225.039.302.115c.125.125.14.336.14.562m.412 0c0-.341-.048-.6-.24-.802A.825.825 0 0 0 .85 0a.836.836 0 0 0-.61.24C.048.44 0 .7 0 1.042c0 .345.048.605.24.806a.81.81 0 0 0 .61.24c.278 0 .48-.106.614-.24.192-.201.24-.46.24-.806" mask="url(#b)" transform="translate(15.664 27.912)"/><path d="M23.594 28.786h-.916a.609.609 0 0 1 .052-.278c.062-.154.216-.26.408-.26s.34.106.403.26a.777.777 0 0 1 .053.278zm.408.287v-.182c0-.58-.317-.983-.869-.983-.523 0-.869.383-.869 1.041 0 .778.408 1.046.917 1.046.36 0 .557-.11.768-.316l-.264-.245a.61.61 0 0 1-.495.21c-.336 0-.518-.22-.518-.57zM13.74 24.326c0 .394-.005.707-.155.87-.12.133-.283.19-.489.19h-.528V23.3h.528c.206 0 .365.063.49.192.149.173.153.442.153.835m.437 0c0-.412.02-.835-.288-1.142-.182-.182-.441-.269-.744-.269h-1.008v2.87h1.008c.297 0 .562-.09.744-.269.307-.311.288-.772.288-1.19m1.829.268h-.917a.688.688 0 0 1 .053-.278c.062-.153.216-.26.408-.26s.34.107.403.26a.688.688 0 0 1 .053.278zm.408.283v-.182c0-.581-.316-.984-.869-.984-.523 0-.868.384-.868 1.042 0 .777.407 1.046.92 1.046.361 0 .557-.11.77-.317l-.265-.245a.607.607 0 0 1-.495.211c-.336 0-.518-.22-.518-.57zm9.657 5.098V28.67c0-.23-.047-.422-.206-.576a.714.714 0 0 0-.504-.187.721.721 0 0 0-.542.23v-.206h-.403v2.045h.412v-1.244c0-.316.192-.455.423-.455s.413.139.413.455v1.244zm-4.286 0V28.67c0-.23-.048-.422-.206-.576a.713.713 0 0 0-.505-.187.72.72 0 0 0-.541.23v-.206h-.404v2.045h.413v-1.244c0-.316.192-.455.422-.455.231 0 .413.139.413.455v1.244zm-2.213 0v-1.32c0-.442-.254-.749-.71-.749a.696.696 0 0 0-.528.23v-1.031h-.408v2.87h.413v-1.253c0-.307.187-.446.413-.446.23 0 .412.139.412.446v1.253zm-4.478-2.87-.504 2.049-.576-2.05h-.35l-.577 2.05-.499-2.05h-.46l.753 2.87h.375l.58-2.01.586 2.01h.379l.749-2.87zm10.959-1.32v-1.32c0-.442-.255-.75-.711-.75a.701.701 0 0 0-.528.23v-1.03H24.4v2.87h.413v-1.258c0-.307.187-.446.418-.446.23 0 .412.139.412.446v1.252h.409zm-2.127-.269-.284-.269c-.129.14-.23.191-.388.191a.45.45 0 0 1-.38-.182c-.09-.11-.12-.263-.12-.499 0-.24.034-.384.12-.494a.46.46 0 0 1 .38-.182c.163 0 .264.053.388.191l.284-.273a.834.834 0 0 0-.672-.288c-.46 0-.912.278-.912 1.046s.451 1.047.912 1.047a.82.82 0 0 0 .672-.288m-1.935-.36c0-.364-.225-.543-.609-.577l-.322-.028c-.216-.019-.283-.115-.283-.235 0-.154.125-.264.37-.264.192 0 .374.039.504.149l.26-.264c-.188-.163-.452-.23-.76-.23-.426 0-.768.225-.768.623 0 .36.221.533.606.566l.326.03c.197.014.274.105.274.24 0 .192-.198.283-.447.283-.202 0-.423-.044-.59-.216l-.269.269c.24.24.523.292.859.292.49.014.85-.211.85-.638m-1.969.629v-.35h-.167c-.154 0-.226-.087-.226-.24v-1.104h.393v-.317h-.393v-.62h-.413v.62h-.235v.317h.235v1.122c0 .293.178.566.561.566h.245zm-1.507 0V23.74h-.412v1.243c0 .316-.192.456-.423.456-.23 0-.413-.14-.413-.456V23.74h-.412v1.305c0 .23.048.423.206.577.12.115.293.186.504.186a.72.72 0 0 0 .542-.23v.207zm9.725-.903v-.182c0-.582-.316-.984-.868-.984-.524 0-.87.384-.87 1.041 0 .778.41 1.047.917 1.047.36 0 .557-.11.769-.317l-.264-.244a.614.614 0 0 1-.495.21c-.336 0-.518-.22-.518-.57zm-.408-.288h-.917a.619.619 0 0 1 .053-.278c.062-.154.216-.26.408-.26s.342.106.404.26a.619.619 0 0 1 .052.278z"/></g></g></svg>