<svg height="36" viewBox="0 0 36 36" width="36" xmlns="http://www.w3.org/2000/svg"><mask id="a" fill="#fff"><path d="M0 0h6.841v4.779H0z" fill-rule="evenodd"/></mask><g fill="none" fill-rule="evenodd"><path d="M18 0c2.837 0 5.52.656 7.907 1.825C31.884 4.753 36 10.895 36 18c0 9.942-8.058 18-18 18-9.94 0-18-8.057-18-18C0 8.06 8.06 0 18 0z" fill="#f2f4f7" fill-rule="nonzero"/><g fill="#000"><path d="M2.216 2.39c0-.865-.688-1.547-1.544-1.547H0v3.09h.672c.856 0 1.544-.682 1.544-1.543zm1.208.5L2.33 4.78h2.181zm0-1.002L4.511 0H2.33zm1.201.502c0 .86.688 1.543 1.544 1.543h.672V.843h-.672c-.856 0-1.544.682-1.544 1.547z" mask="url(#a)" transform="translate(4 16)"/><path d="m31.42 19.457.58-1.452h-.412l-.292.78-.317-.782h-.436l.544 1.272-.032.08c-.051.124-.115.164-.216.164a.86.86 0 0 1-.132-.015v.336c.047.008.103.013.174.013.302 0 .435-.128.54-.396zm-1.717-.498c-.177 0-.3-.147-.3-.32s.123-.325.3-.325c.184 0 .307.15.307.324s-.123.321-.307.321zm.71.337v-1.293h-.396v.186a.46.46 0 0 0-.4-.218c-.37 0-.616.287-.616.667 0 .378.255.645.62.645.166 0 .322-.08.39-.196v.22c0 .18-.094.28-.286.28-.17 0-.262-.078-.28-.193h-.397c.022.282.245.483.667.483.469 0 .697-.21.697-.58zm-2.244-.337c-.182 0-.3-.145-.3-.32 0-.178.118-.325.3-.325s.302.147.302.324c0 .176-.12.321-.302.321zm0 .347c.442 0 .705-.307.705-.668 0-.363-.263-.67-.705-.67-.436 0-.702.307-.702.67 0 .361.266.668.702.668zm-1.296-.036h.4v-1.839h-.4zm-.898-.31c-.181 0-.3-.146-.3-.322 0-.177.119-.324.3-.324.182 0 .302.147.302.324 0 .176-.12.321-.302.321zm0 .346c.442 0 .704-.307.704-.668 0-.363-.262-.67-.704-.67-.437 0-.702.307-.702.67 0 .361.265.668.702.668zm-2.16-.036h.4v-.662c0-.178.084-.294.246-.294.17 0 .226.106.226.258v.698h.4v-.728c0-.358-.157-.57-.48-.57-.188 0-.325.082-.396.214v-.183h-.395zm-1.524 0h.4v-.662c0-.178.084-.294.246-.294.17 0 .226.106.226.258v.698h.4v-.728c0-.358-.158-.57-.48-.57-.185 0-.321.082-.391.214v-.755h-.401zm-.18-.779c-.048-.295-.267-.523-.65-.523-.43 0-.69.307-.69.67 0 .361.26.668.69.668.383 0 .602-.229.65-.523h-.401a.248.248 0 0 1-.246.184c-.177 0-.29-.15-.29-.329s.113-.33.29-.33c.125 0 .209.072.243.183zm-2.124-.238c.152 0 .25.096.265.245h-.538c.015-.154.123-.245.272-.245zm.625.633h-.38c-.041.076-.115.13-.24.13-.182 0-.273-.116-.28-.275h.922a1.06 1.06 0 0 0 .01-.15c0-.336-.233-.623-.652-.623-.432 0-.668.302-.668.67 0 .366.238.668.673.668.345 0 .552-.185.615-.42zm-2.324-.883v.314h.199v.515c0 .348.167.46.469.46.11 0 .194-.012.25-.022v-.32a1.238 1.238 0 0 1-.16.014c-.103 0-.16-.034-.16-.162v-.485h.29v-.314h-.29v-.376h-.4v.376zm-.542 1.035a.255.255 0 1 0 .51 0 .255.255 0 1 0-.51 0zm-.98.265c.509 0 .786-.304.84-.692h-.42a.403.403 0 0 1-.41.322c-.316 0-.48-.253-.48-.545s.164-.545.48-.545c.219 0 .37.137.41.322h.42c-.054-.388-.331-.692-.84-.692-.566 0-.895.432-.895.915s.329.915.896.915zm-1.376-.033h.486l-.572-.887.567-.878h-.476l-.351.581-.356-.58h-.483l.569.877-.574.887h.473l.36-.588zm-2.108-1.407c.326 0 .513.255.513.525 0 .267-.187.525-.513.525h-.214v-1.05zm-.63 1.407h.649c.589 0 .918-.43.918-.882s-.331-.883-.918-.883h-.648z"/></g></g></svg>