<svg width="36" height="36" fill="none" xmlns="http://www.w3.org/2000/svg"><path d="M18 0c2.837 0 5.52.656 7.907 1.825C31.884 4.753 36 10.895 36 18c0 9.942-8.058 18-18 18-9.94 0-18-8.057-18-18C0 8.06 8.06 0 18 0z" fill="#F2F4F7"/><path d="M14.301 19.866a.094.094 0 0 0-.07-.027.093.093 0 0 0-.068.034 1.408 1.408 0 0 1-1.132.5c-.798 0-1.338-.573-1.428-1.35H15.5a.096.096 0 0 0 .088-.06.097.097 0 0 0 .007-.036c-.038-2.044-1.258-2.918-2.597-2.918-1.496 0-2.587 1.114-2.587 2.666 0 1.552 1.114 2.677 2.62 2.677a2.692 2.692 0 0 0 1.901-.722.093.093 0 0 0 .028-.067.093.093 0 0 0-.028-.066l-.63-.631zm-1.292-2.879a1.319 1.319 0 0 1 1.328 1.216h-2.734c.135-.72.652-1.215 1.406-1.215zm-4.757 3.488c-.27.506-.956.877-1.699.877C5.08 21.352 4 20.227 4 18.675s1.057-2.666 2.53-2.666c.753 0 1.463.383 1.744.889-.011-.349-.011-.765-.011-1.159v-1.645A.094.094 0 0 1 8.357 14h.925a.093.093 0 0 1 .067.028.094.094 0 0 1 .027.066v7.03a.094.094 0 0 1-.094.093h-.937a.093.093 0 0 1-.066-.027.094.094 0 0 1-.028-.067v-.649zm-3.105-1.8c0 .967.641 1.71 1.575 1.71.921 0 1.574-.743 1.574-1.71s-.652-1.698-1.574-1.698c-.934 0-1.575.73-1.575 1.698zm17.352.697v-3.134a.094.094 0 0 1 .094-.094h.937a.095.095 0 0 1 .067.027.096.096 0 0 1 .027.067v2.988c0 .799.529 1.159 1.192 1.159.664 0 1.193-.36 1.193-1.159v-2.988a.094.094 0 0 1 .094-.094h.925a.095.095 0 0 1 .087.058.094.094 0 0 1 .007.036v3.134c0 1.069-.843 1.98-2.305 1.98-1.462 0-2.317-.911-2.317-1.98zm8.342.427c0-.36-.293-.494-.945-.72l-.293-.1c-.877-.304-1.439-.686-1.439-1.496 0-.844.787-1.474 1.9-1.474a2.895 2.895 0 0 1 1.866.638.095.095 0 0 1 .013.132l-.495.632a.094.094 0 0 1-.13.017 2.143 2.143 0 0 0-1.242-.485c-.416 0-.752.192-.752.484 0 .27.18.382.63.54l.595.214c1.013.36 1.451.854 1.451 1.608 0 .72-.64 1.564-2.058 1.564a3.081 3.081 0 0 1-1.967-.685.096.096 0 0 1-.016-.13l.486-.67a.093.093 0 0 1 .063-.037.095.095 0 0 1 .07.02c.387.323.862.522 1.364.568.63 0 .9-.305.9-.62h-.001zm-9.428.623a.094.094 0 0 1 0 .133l-.663.662a.094.094 0 0 1-.133 0l-1.526-1.526a.2.2 0 0 1-.066-.16v-1.7a.2.2 0 0 1 .066-.161l1.526-1.526a.094.094 0 0 1 .133 0l.663.662a.094.094 0 0 1 0 .133l-1.404 1.404a.182.182 0 0 0-.067.16v.354a.183.183 0 0 0 .067.16l1.404 1.405zm-3.763-1.404a.184.184 0 0 0 .066-.16v-.354a.183.183 0 0 0-.067-.16l-1.404-1.405a.094.094 0 0 1 0-.133l.663-.662a.094.094 0 0 1 .133 0l1.526 1.526a.201.201 0 0 1 .067.16v1.7a.2.2 0 0 1-.067.161l-1.526 1.526a.094.094 0 0 1-.133 0l-.662-.663a.094.094 0 0 1 0-.132l1.404-1.404z" fill="#414141"/></svg>