<svg height="36" viewBox="0 0 36 36" width="36" xmlns="http://www.w3.org/2000/svg"><mask id="a" fill="#fff"><path d="M0 0h23.296v6.052H0z" fill-rule="evenodd"/></mask><g fill="none" fill-rule="evenodd"><path d="M18 0c2.837 0 5.52.656 7.907 1.825C31.884 4.753 36 10.895 36 18c0 9.942-8.058 18-18 18-9.94 0-18-8.057-18-18C0 8.06 8.06 0 18 0z" fill="#f2f4f7" fill-rule="nonzero"/><path d="M0 .146h4.192v1.422H1.859v.51h2.005v1.677H1.859v.51h2.333v1.677H0zm21.255 5.796h2.041L21.51.146h-2.443l-1.203 3.937h-1.531V.146h-1.859v2.042A3.01 3.01 0 0 0 11.557 0a3.005 3.005 0 0 0-3.026 3.026 3.006 3.006 0 0 0 3.026 3.026 3.012 3.012 0 0 0 2.917-2.187v2.077h5.359l.584-1.86h-.73l.584-1.894z" fill="#000" mask="url(#a)" transform="translate(4 15)"/><path d="M27.442 15.146h2.698c.856-.003 1.596.817 1.604 1.458-.008.635-.349 1.137-.729 1.349.744.312.995 1.086.984 1.53.011.422-.285 1.47-1.422 1.459h-3.135zm-16.187 0c-1.603-.014-2.908 1.292-2.917 2.917a2.946 2.946 0 0 0 2.917 2.916h1.458v-1.713h-1.458a1.192 1.192 0 0 1-1.204-1.203 1.21 1.21 0 0 1 1.204-1.24h1.458v-1.677z" fill="#000"/><path d="m15.958 18.536.912.802-.766-.91a.29.29 0 0 1 .073-.11l1.166 1.02-1.13-1.276c.01 0 .014-.019 0-.036.014-.024.01-.045 0-.073l1.094-1.24-1.13 1.021a.326.326 0 0 1-.073-.11l.766-.91-.912.765a.337.337 0 0 1-.109-.073l1.021-1.167-1.24 1.13c-.035-.009-.053-.013-.073 0-.021-.013-.042-.008-.073 0l-1.239-1.093 1.02 1.13a.27.27 0 0 1-.109.073l-.911-.766.765.911a.235.235 0 0 1-.073.11l-1.167-1.02 1.131 1.24c-.008.034-.011.052 0 .072-.011.021-.007.043 0 .073l-1.094 1.24 1.167-1.022a.171.171 0 0 0 .072.11l-.801.911.911-.765c.041.013.08.037.109.072l-1.02 1.167 1.276-1.13c.001.007.019.011.036 0 .024.011.045.007.073 0l1.24 1.094-1.021-1.167c.039-.003.078-.027.109-.073zm13.489-2.042c.256.015.46.22.474.474a.454.454 0 0 1-.474.438h-.51v-.912zm.183 2.08c.265-.013.494.216.51.508a.546.546 0 0 1-.51.511h-.693v-1.02z" fill="#fff"/></g></svg>