<svg width="36" height="36" fill="none" xmlns="http://www.w3.org/2000/svg"><path d="M18 0c2.837 0 5.52.656 7.907 1.825C31.884 4.753 36 10.895 36 18c0 9.942-8.058 18-18 18-9.94 0-18-8.057-18-18C0 8.06 8.06 0 18 0z" fill="#F2F4F7"/><path d="M7.333 18.978h-2.31a.46.46 0 0 1-.455-.438v-.486h2.304a.183.183 0 0 0 .182-.182v-.18a.182.182 0 0 0-.182-.181H4.568v-.87H7.26a.186.186 0 0 0 .186-.185v-.17a.186.186 0 0 0-.186-.186H4.202a.203.203 0 0 0-.202.203v2.215a1.007 1.007 0 0 0 1.006 1.006h2.327a.18.18 0 0 0 .181-.18v-.184a.18.18 0 0 0-.179-.18m9.657-.349-.284-.142a.135.135 0 0 0-.186.041c-.227.362-.627.546-1.186.546-.933 0-1.469-.462-1.469-1.266 0-.803.536-1.265 1.47-1.265.558 0 .943.173 1.175.53a.151.151 0 0 0 .205.052l.246-.126a.162.162 0 0 0 .088-.103.143.143 0 0 0-.02-.109c-.333-.515-.917-.788-1.69-.788-1.268 0-2.055.693-2.055 1.81 0 1.116.781 1.809 2.04 1.809.763 0 1.373-.287 1.721-.81a.114.114 0 0 0 .02-.098.142.142 0 0 0-.077-.08m8.575-2.534h-.274a.176.176 0 0 0-.156.094l-1.316 2.481c-.024.047-.05.076-.076.076-.023 0-.05-.029-.076-.076l-1.313-2.476a.186.186 0 0 0-.165-.1h-.262a.165.165 0 0 0-.146.242l1.561 2.946a.446.446 0 0 0 .787 0l1.57-2.964a.152.152 0 0 0-.134-.223zm1.477 0h-.21a.183.183 0 0 0-.182.182v3.062a.18.18 0 0 0 .18.18h.21a.181.181 0 0 0 .181-.181v-3.064a.18.18 0 0 0-.18-.18m3.203 1.395c-.682-.054-1.288-.129-1.288-.455a.294.294 0 0 1 .096-.215c.206-.204.674-.277 1.043-.277h.024c.492.004.927.151 1.223.407a.178.178 0 0 0 .13.052.116.116 0 0 0 .076-.033l.227-.197a.16.16 0 0 0 .045-.11.148.148 0 0 0-.056-.108c-.412-.353-1.019-.556-1.667-.556-1.186 0-1.727.544-1.727 1.05 0 .746.95.923 1.779.994.86.075 1.268.162 1.268.474 0 .348-.43.557-1.15.557-.62 0-1.114-.175-1.554-.55a.13.13 0 0 0-.104-.035.126.126 0 0 0-.08.048l-.217.228a.132.132 0 0 0-.04.092.129.129 0 0 0 .052.096c.543.44 1.224.676 1.923.666 1.065 0 1.753-.443 1.753-1.129 0-.757-.844-.926-1.756-.998m-18.143-1.395h-.193a.186.186 0 0 0-.185.185v2.406l-2.49-2.56a.336.336 0 0 0-.587.24v2.947a.187.187 0 0 0 .186.188h.188a.188.188 0 0 0 .188-.188v-2.424l2.383 2.454.006.008c.014.016.036.037.066.067l.033.033a.39.39 0 0 0 .26.106.33.33 0 0 0 .134-.028.334.334 0 0 0 .192-.32V16.28a.182.182 0 0 0-.183-.182m8.009.236a.446.446 0 0 0-.786 0l-1.57 2.964a.153.153 0 0 0 .003.15.152.152 0 0 0 .13.073h.278a.177.177 0 0 0 .157-.094l1.316-2.481c.024-.047.051-.076.076-.076.023 0 .05.029.076.076l1.313 2.476a.187.187 0 0 0 .165.1h.26a.164.164 0 0 0 .165-.16.165.165 0 0 0-.02-.082l-1.563-2.946z" fill="#005E72"/></svg>