<svg width="36" height="36" fill="none" xmlns="http://www.w3.org/2000/svg"><path d="M18 0c2.837 0 5.52.656 7.907 1.825C31.884 4.753 36 10.895 36 18c0 9.942-8.058 18-18 18-9.94 0-18-8.057-18-18C0 8.06 8.06 0 18 0z" fill="#F2F4F7"/><path d="M20.587 19.804h-3.903l.481-1.85h1.85c.647-1.331-.019-1.83-.574-1.85-2.016 0-2.552 2.405-2.81 3.237-.278.87-.5 1.443-.149 1.924.37.518 2.59.37 3.736.222l-.795 2.016h-3.366c-2.09-.093-2.682-1.665-2.497-2.479a19.68 19.68 0 0 1 1.22-3.569 5.604 5.604 0 0 1 5.198-3.2c2.274.167 2.552 1.295 2.607 2.183.056.703-.647 2.552-.998 3.347v.019zm2.219-3.385-2.515 7.084h2.515l1.294-3.7h2.774l.592-1.849h-2.774l.518-1.035c.185-.592.814-.814 1.11-.814h2.885l.795-1.85h-3.662c-2.256 0-3.18 1.295-3.514 2.164h-.018z" fill="#005A9B"/><path d="M18.96 13.423c.092.13.165.315.184.537l.906-.074c-.037-.37-.13-.722-.351-1.018-.333-.499-.888-.74-1.48-.832-.629-.092-1.35 0-2.108.185-1.535.389-3.366 1.295-5.141 2.59a16.034 16.034 0 0 0-4.05 4.198c-.426.684-.722 1.35-.833 1.978-.13.61-.074 1.24.278 1.72.499.74 1.424.925 2.404.851 1.017-.074 2.22-.444 3.495-1.073l-.388-.832a9.246 9.246 0 0 1-3.144.98c-.888.074-1.406-.148-1.628-.462-.148-.222-.221-.555-.129-1.017.092-.462.333-1.036.721-1.665a15.11 15.11 0 0 1 3.81-3.883 14.704 14.704 0 0 1 4.808-2.46c.703-.185 1.295-.222 1.757-.167.463.074.74.24.888.463v-.019z" fill="#FFC95B"/><path d="M7.678 16.086a15.092 15.092 0 0 0 4.568 4.439l-.5.777-.776-.555a16.015 16.015 0 0 1-4.07-4.161c-.425-.685-.721-1.369-.832-1.98a2.22 2.22 0 0 1 .277-1.738c.333-.48.87-.74 1.48-.813.573-.093 1.276-.037 2.016.148 1.48.351 3.255 1.202 4.993 2.44l-.518.76a14.277 14.277 0 0 0-4.66-2.294 4.53 4.53 0 0 0-1.683-.13c-.444.056-.703.222-.87.444-.148.222-.203.555-.129.999.092.48.333 1.036.74 1.664h-.037z" fill="#FFC95B"/></svg>