<svg height="36" viewBox="0 0 36 36" width="36" xmlns="http://www.w3.org/2000/svg"><mask id="a" fill="#fff"><path d="M0 0h26v15.552H0z" fill-rule="evenodd"/></mask><g fill="none" fill-rule="evenodd"><path d="M18 0c2.837 0 5.52.656 7.907 1.825C31.884 4.753 36 10.895 36 18c0 9.942-8.058 18-18 18-9.94 0-18-8.057-18-18C0 8.06 8.06 0 18 0z" fill="#f2f4f7" fill-rule="nonzero"/><path d="M25.446 13.826a.398.398 0 0 0-.374-.271c-.212 0-.375.154-.375.356 0 .115.049.21.133.277.073.055.16.097.341.172.199.085.259.118.332.19a.457.457 0 0 1 .136.333c0 .383-.308.67-.718.67a.812.812 0 0 1-.504-.169c.045-.143.051-.175.06-.268h.03c.082.18.275.304.472.304.24 0 .425-.182.425-.416a.336.336 0 0 0-.106-.267c-.072-.066-.118-.09-.329-.177-.368-.15-.501-.301-.501-.567 0-.157.075-.317.193-.418a.71.71 0 0 1 .45-.137c.17 0 .305.042.446.141a1.21 1.21 0 0 0-.08.248h-.031zM22.6 15.501c-.377.007-.271.003-.32.007-.115 0-.133 0-.2.004.016-.138.022-.28.028-.566l.009-.749c0-.042-.003-.193-.009-.377-.003-.174-.009-.25-.015-.344.076.006.093.01.209.01l.413.003.238-.004c.117 0 .132-.003.196-.009-.012.085-.013.079 0 .175-.084-.009-.139-.012-.235-.018l-.266-.01c-.072-.002-.109-.002-.172-.002-.012 0-.055 0-.1.003-.003.036-.003.013-.006.123-.018.51-.018.517-.018.562 0 .005 0 .033.003.06.052.003.094.003.117.003.05 0 .291-.006.291-.006.175-.006.205-.006.317-.02a.441.441 0 0 0-.012.096c0 .03.002.048.012.081a4.982 4.982 0 0 0-.526-.024c-.074 0-.126 0-.202.006a.374.374 0 0 1 .003.05l-.003.222.013.59c.05.004.096.004.115.004.057 0 .096 0 .258-.006.263-.011.306-.014.426-.033-.005.042-.009.058-.009.097 0 .027.004.047.01.083-.332-.008-.387-.01-.445-.01zm-2.354-2.013a.842.842 0 0 0 .148-.012 6.15 6.15 0 0 0-.017.344 18.988 18.988 0 0 0 .018 1.692 1.044 1.044 0 0 0-.296 0 5.28 5.28 0 0 0 .02-.346c.004-.07.004-.196.006-.362.004-.215.004-.392.004-.456 0-.187-.004-.344-.01-.546a6.329 6.329 0 0 0-.02-.326.86.86 0 0 0 .147.012zm-3.554-.048.03.03c.037.037.124.136.245.269.096.106.19.208.287.307l.296.311c.035.04.153.164.307.333.148.157.227.238.324.331l.005-.284c.003-.177.003-.216.003-.37 0-.253-.003-.564-.008-.721l-.013-.17c.052.01.078.013.103.013a.493.493 0 0 0 .105-.013c-.009.095-.012.13-.02.242-.012.187-.02.374-.025.561a28.055 28.055 0 0 0-.004 1.273h-.044c-.097-.12-.181-.213-.393-.45-.142-.16-.305-.333-.423-.46-.703-.744-.684-.722-.684-.722l-.004.017c-.005.566-.005.774-.005.774 0 .15.005.452.015.621.003.063.006.097.012.18a.567.567 0 0 0-.211 0c.012-.098.018-.177.027-.358.016-.346.012-.254.021-.688 0 0 .006-.316.01-.356v-.407c0-.152 0-.182-.004-.263zm-2.787 1.152s.124.004.32.004c.178 0 .206 0 .335-.004-.021-.054 0-.005-.063-.153l-.142-.338-.118-.262zm.435-1.143.724 1.702c.085.193.093.214.163.361a1.102 1.102 0 0 0-.302 0 10.889 10.889 0 0 0-.151-.397 9.183 9.183 0 0 0-.163-.398c-.437 0-.76.003-.76.003-.142.337-.136.325-.296.792a.599.599 0 0 0-.103-.01.76.76 0 0 0-.111.01c.07-.131.123-.25.236-.497.235-.521.469-1.044.703-1.566zm-3.115 1.017c.066.01.111.012.16.012.406 0 .62-.166.62-.486 0-.277-.165-.411-.508-.411-.091 0-.161.006-.252.022-.01.126-.012.172-.012.217 0 0-.008.363-.008.42zm.002.531.012.368c.003.048.006.075.013.147-.106-.01-.118-.01-.15-.01-.022 0-.038 0-.147.01.01-.125.016-.21.019-.36a22.238 22.238 0 0 0 .003-1.364 4.391 4.391 0 0 0-.022-.312c.094.01.142.012.232.012.133-.003.312-.01.423-.012.441 0 .667.17.667.498a.55.55 0 0 1-.262.483c-.149.087-.317.123-.585.123l-.205-.002.002.419zm-3.964-1.548.561 1.08c.172.318.215.396.287.516l.01-.015A257.856 257.856 0 0 1 9 13.45h.039c.01.054.005.027.017.15l.094.891.082.679c.018.157.03.235.048.343a1.467 1.467 0 0 0-.142-.01c-.036 0-.066.002-.145.01 0-.114-.006-.207-.024-.4-.04-.468-.04-.47-.118-1.126-.06.094-.075.121-.157.272l-.32.594c-.202.392-.25.486-.307.63h-.025c-.03-.072-.035-.081-.123-.256-.036-.068.039.082-.242-.47a8.21 8.21 0 0 0-.18-.348l-.22-.394c-.034.241-.045.337-.094.787a7.136 7.136 0 0 0-.054.711.872.872 0 0 0-.112-.01.633.633 0 0 0-.1.01c.021-.105.034-.171.058-.327.081-.527.057-.381.07-.45.086-.655.15-1.12.171-1.286zm-3.644.407c-.112.158-.167.372-.167.638 0 .268.055.479.167.639.138.206.377.323.654.323a.766.766 0 0 0 .652-.323c.112-.163.166-.37.166-.64 0-.265-.054-.477-.166-.637a.773.773 0 0 0-.652-.322.77.77 0 0 0-.654.322zm1.77.638c0 .654-.425 1.058-1.116 1.058-.693 0-1.12-.404-1.12-1.058 0-.652.427-1.057 1.12-1.057.691 0 1.116.405 1.116 1.057zm-3.622.7-.042.177c-.175.12-.405.181-.674.181-.639 0-1.052-.407-1.052-1.044 0-.328.114-.61.329-.8.202-.184.468-.271.823-.271.227 0 .456.045.619.123a.971.971 0 0 0-.06.23l-.021.01a.776.776 0 0 0-.582-.252.762.762 0 0 0-.607.287c-.139.17-.203.384-.203.67 0 .287.073.51.215.676.144.17.35.259.588.259.242 0 .45-.082.652-.255zM14.613.86c.675.03.95.033 1.283.033.2 0 1.037.002 1.17-.006l.092-.003a1.192 1.192 0 0 0-.024.398c-.161-.018-.342-.021-.587-.035-.674-.041-.867-.031-1.082-.031-.089 0-.161-.003-.287.005l-.009.87c-.008.128-.008.283-.008.469 0 .252.008.497.008.497s-.002.01.01.013l.692.003c.09-.003.22-.01.545-.016.305-.007.48-.02.55-.021a1.18 1.18 0 0 0-.016.194c-.005.098.012.196.011.196-.281-.014-.832-.046-1.31-.055a7.217 7.217 0 0 0-.475.005l-.008.013v.491l.017.566c0 .282.011.464.011.516 0 .12.018.372.032.58l.013.014a1.2 1.2 0 0 0 .235.013c.585 0 1.458-.096 1.726-.121-.002 0-.021.122-.021.196 0 .09.001.176.009.22l-1.117-.009-.907.008c-.322.006-.49.014-.663.023.003 0 .065-.583.06-.979l.02-.649.01-.912s-.033-2.182-.07-2.486zm-3.485 0c.674.03.95.033 1.283.033.2 0 1.037.002 1.17-.006l.091-.003c-.009.053-.027.144-.027.203 0 .06 0 .194.003.195-.16-.017-.34-.021-.586-.035-.674-.041-.867-.031-1.081-.031-.09 0-.163-.003-.288.006l-.01.87c-.007.127-.007.282-.007.468 0 .252.007.497.007.497s-.001.01.01.013l.693.003c.09-.003.22-.01.545-.016.305-.007.48-.018.548-.021-.003 0-.008.086-.015.194-.004.098.013.196.012.196-.28-.014-.832-.046-1.31-.055a7.217 7.217 0 0 0-.475.005l-.008.013v.492l.016.565c0 .282.012.464.012.517 0 .119.018.371.032.58l.013.013c.056.013.137.013.234.013.586 0 1.46-.096 1.727-.121-.002 0-.021.122-.021.197 0 .09.001.175.009.22l-1.118-.009-.906.008c-.322.005-.49.014-.662.022.002 0 .064-.582.06-.979l.018-.648.012-.913s-.034-2.181-.071-2.486zm-.114-.554h2.631V0h-2.631zM.115.86c.674.03.95.033 1.283.033.201 0 1.036.002 1.17-.006l.091-.003c-.01.053-.027.144-.027.203 0 .06 0 .194.003.195-.16-.017-.34-.021-.587-.035-.673-.041-.866-.031-1.081-.031-.089 0-.162-.003-.287.006l-.01.87c-.007.127-.007.282-.007.468 0 .252.007.497.007.497s-.001.01.01.013l.693.003c.09-.003.22-.01.545-.016.304-.007.48-.018.548-.021-.002 0-.009.086-.015.194a1.06 1.06 0 0 0 .013.196c-.282-.014-.832-.046-1.31-.055a7.224 7.224 0 0 0-.476.005l-.008.013v.492l.017.565c0 .282.012.464.012.517 0 .119.018.371.03.58l.014.013a1.2 1.2 0 0 0 .235.013c.585 0 1.46-.096 1.726-.121-.002 0-.02.122-.02.197 0 .09 0 .175.008.22l-1.117-.009-.908.008c-.32.005-.488.014-.661.022.001 0 .065-.582.06-.979l.019-.648.01-.913S.064 1.165.027.86zm8.677.354-.033.833-.016.99s-.019.497-.008 1.02c.012.522.013 1.414.064 1.825 0-.004-.217-.026-.38-.026-.156 0-.339.024-.339.025.042-.4.075-.84.075-1.812l-.001-1.025-.012-1.01s-.018-.612-.03-.813l-.01-.009-.799.019c-.419.021-.515.04-.8.062a.92.92 0 0 0 .027-.214c.003-.1 0-.076-.022-.195.064.01 1.848.028 1.848.028h.222c.617 0 1.778-.028 1.778-.028-.009.04-.015.1-.02.188a.906.906 0 0 0 .032.218 8.474 8.474 0 0 0-.868-.064l-.698-.017zm-3.907-.213c-.626.007-1.003.353-.99.9.007.38.162.668.571.862.156.067.427.19.67.27.825.27 1.167.664 1.167 1.283 0 .923-.788 1.616-1.8 1.616a2.02 2.02 0 0 1-1.254-.426s.092-.394.13-.567c0 0 .504.782 1.246.771.712-.009 1.14-.537 1.14-1.134 0-.507-.298-.807-1.045-1.065-.734-.253-1.07-.54-1.212-.79a1.19 1.19 0 0 1-.162-.606c0-.802.652-1.386 1.598-1.38.765.007 1.141.374 1.141.376-.077.192-.135.3-.202.55 0 0-.286-.666-.998-.66zm18.483 8.58c.565 0 .773-.07 1.025-.22.281-.167.54-.508.516-.924-.031-.525-.342-.927-1.19-.93-.298 0-.654.04-.74.08-.01.006-.009.015-.009.015l.002 1.958c.09.023.255.022.396.022zm-.396.257c-.006.134-.005.661.001.895l.025.721.034.75.007.068a3.343 3.343 0 0 0-.397-.03c-.118 0-.212 0-.331.023l.037-.752c.027-.572.03-1.092.03-1.973 0-.573.004-.876-.028-1.517l-.04-.756c.178.02.332.023.533.023.145 0 .37-.013.576-.022.356-.014.565-.013.625-.014 1.2-.024 1.55.551 1.55 1.145 0 .659-.601 1.19-1.599 1.381 0 0 0 .009.007.02l1.01 1.268.555.69c.238.29.285.39.433.539l-.423-.001c-.16 0-.276.003-.37.01-.003 0-.9-1.22-.9-1.22-.223-.289-1-1.254-1.036-1.248zm-21.95 2.127c.132.003.248-.004.382-.004.275 0 .424-.014.604-.022.408-.023.668-.056.771-.067 0 0-.013.156-.015.208a1.14 1.14 0 0 0 .007.193l-.78-.025a34.283 34.283 0 0 0-1.347 0c-.404.007-.6.02-.638.02A45.73 45.73 0 0 0 .079 9.78c0-.952-.073-2.54-.073-2.54.118.016.268.027.367.027.13 0 .364-.026.364-.028C.618 8.413.653 9.448.653 9.448s.012 1.837.047 2.355c0 .008.008.118.015.136.006.014.134.023.307.026zM18.89 7.24c.675.03.95.032 1.284.032.2 0 1.036.003 1.17-.005l.091-.003c-.01.054-.028.144-.028.203 0 .06 0 .194.004.194-.16-.016-.34-.02-.587-.035-.674-.04-.867-.03-1.082-.03-.089 0-.16-.002-.287.005l-.009.87c-.007.126-.007.282-.007.468 0 .253.007.497.007.497s-.002.011.01.014c.128.002.252.002.692.003.09-.003.22-.01.545-.017.304-.007.48-.018.55-.02-.005 0-.01.086-.016.193-.004.099.013.197.011.197-.28-.015-.83-.045-1.309-.055a7.245 7.245 0 0 0-.476.004l-.008.014v.49l.017.567c0 .281.011.464.011.515 0 .12.019.374.032.58l.014.015c.055.013.137.013.234.013.585 0 1.46-.096 1.726-.121a1.403 1.403 0 0 0-.012.416l-1.117-.009-.907.008c-.322.005-.49.016-.662.022.002 0 .064-.583.06-.979l.02-.648.01-.912s-.033-2.182-.07-2.486zm-4.012 4.754c.32-.006.639-.011.81-.044.444-.08.694-.178 1.067-.544.41-.405.622-1.008.605-1.736-.019-.735-.189-1.423-.716-1.803-.401-.287-.623-.34-1.427-.366-.342-.011-.816.039-1.146.084l-.064.019c-.001.148-.028.869-.028 1.407v.736l-.008.743.008.683c.012.36.017.55.048.781.222.052.762.041.85.04zM13.9 7.3c.089 0 .215 0 .378-.008l.585-.026s.515-.008.612-.008c.994 0 1.417.108 1.884.547.474.445.744 1.025.744 1.776 0 .883-.402 1.612-.994 2.108-.523.439-1.072.59-2.372.566-.23-.005-.327-.007-.424-.007l-.577-.004c-.24.006-.404.037-.4.022.033-.108.06-1.195.062-1.442.002-.26.014-.825.014-1.278 0-.27 0-1.042-.035-1.465-.02-.253-.045-.813-.046-.814.226.028.376.033.569.033zM5.088 8.433c-.124.249-.673 1.513-.673 1.513s-.002.017.017.017h1.65c.008 0 .012-.013.012-.014l-.468-1.076c-.244-.56-.356-.799-.374-.786 0 .001-.092.2-.164.346zm.439-1.353s.202.513.371.898c.261.59.72 1.643.901 2.052.187.423.62 1.385.62 1.385l.399.847c-.135-.003-.232-.025-.383-.026-.148 0-.222.01-.398.025l-.518-1.312a61.34 61.34 0 0 0-.304-.698c-.002 0-.002-.01-.012-.01H4.31s-.01 0-.014.008l-.273.669c-.358.875-.478 1.37-.478 1.37a.85.85 0 0 0-.26-.037c-.092 0-.137 0-.26.022 0 0 .154-.364.309-.705.24-.525.559-1.205.81-1.77.404-.905.806-1.812 1.207-2.718zm2.902.191c.142 0 .216-.006.35-.03-.029.337-.045.717-.06 1.546-.007.448 0 .829-.003 1.044-.006.655.053 1.082.122 1.242.227.517.682.984 1.489.96.7-.02 1.184-.236 1.478-.813.2-.396.232-.689.24-1.717l-.002-.67c-.006-.564-.032-.935-.075-1.59 0 .004.188.03.26.03.087-.003.172 0 .262-.03-.03.216-.053 1.47-.053 1.47a25.91 25.91 0 0 0-.013.76c-.003 1.028-.044 1.255-.157 1.607a1.826 1.826 0 0 1-.427.677c-.365.403-.916.605-1.601.605-.65 0-1.245-.187-1.582-.5-.375-.349-.507-.693-.501-1.48 0-.082-.023-.468-.008-1.073 0-.246-.01-.47-.01-.663 0-.508-.05-1.105-.072-1.404.133.023.198.03.363.03z" fill="#1a3b73" mask="url(#a)" transform="translate(5 10)"/></g></svg>