<svg width="36" height="36" fill="none" xmlns="http://www.w3.org/2000/svg"><path d="M18 0c2.837 0 5.52.656 7.907 1.825C31.884 4.753 36 10.895 36 18c0 9.942-8.058 18-18 18-9.94 0-18-8.057-18-18C0 8.06 8.06 0 18 0z" fill="#F2F4F7"/><path d="M29.235 20.526h.125v.332h.057v-.332h.123v-.05h-.305v.05zm.445.332v-.346h.003l.104.346h.047l.106-.346h.003v.346H30v-.382h-.1l-.084.284h-.002l-.091-.284h-.1v.382h.058zm-7.764-2.672c-.434 0-.617 1.305-.617 1.521 0 .193.068.284.237.284.434 0 .617-1.311.617-1.522 0-.21-.078-.284-.237-.284zm-8.61.218c-.223.26-.356.869-.356 1.256 0 .21.06.302.206.302.127 0 .343-.218.369-.32l.289-1.366a.207.207 0 0 0-.128-.041c-.078 0-.229-.005-.38.169z" fill="#0067B1"/><path d="M30 12 6 16.211l1.379 7.694L30 19.902V12zm-19.99 8.648H7.486l.895-4.208h2.448l-.268.887H9.275l-.151.707h1.05l-.181.859H8.942l-.182.856h1.443l-.192.9zm1.122.079c-.887 0-.809-.458-.676-1.082l.452-2.128c.154-.72.167-.95.162-1.126l1.092-.182c.013.15-.024.47-.091.78l-.494 2.312c-.115.549-.128.695.109.695a.374.374 0 0 0 .114-.018l.032.652a2.239 2.239 0 0 1-.7.097zm2.702.041c-.127-.067-.218-.255-.236-.37a1.186 1.186 0 0 1-.81.344c-.634 0-.9-.398-.9-1.064 0-.663.266-1.352.672-1.758.356-.356.736-.47 1.287-.47.43 0 .96.072 1.192.187a5.963 5.963 0 0 0-.237.855l-.237 1.124a.562.562 0 0 0 .12.47l-.85.682zm2.56-.117.424-1.992c.054-.242.023-.351-.151-.351-.17 0-.302.085-.434.288l-.443 2.055h-1.05l.416-1.964c.096-.47.132-.749.086-1.056l.93-.174c.024.101.05.21.055.338.237-.213.599-.34.945-.34.78 0 .858.442.762.894l-.49 2.302h-1.05zm2.583.078c-.87 0-1.293-.556-1.07-1.607.224-1.056.864-1.668 1.782-1.668.448 0 .69.115.942.37l-.616.634c-.091-.127-.248-.228-.393-.228-.242 0-.424.192-.557.827-.133.634-.12.894.182.894.237 0 .453-.114.63-.278l.314.617c-.405.33-.832.44-1.214.44zm4.286-2.17c0 .818-.452 2.17-1.909 2.17-.736 0-1.155-.406-1.155-1.123 0-.804.435-2.152 1.91-2.152.652 0 1.154.32 1.154 1.106z" fill="#0067B1"/></svg>