<svg height="36" viewBox="0 0 36 36" width="36" xmlns="http://www.w3.org/2000/svg"><mask id="a" fill="#fff"><path d="M0 .076h1v.848H0z" fill-rule="evenodd"/></mask><mask id="b" fill="#fff"><path d="M0 8.505h28V0H0z" fill-rule="evenodd"/></mask><g fill="none" fill-rule="evenodd"><path d="M18 0c2.837 0 5.52.656 7.907 1.825C31.884 4.753 36 10.895 36 18c0 9.942-8.058 18-18 18-9.94 0-18-8.057-18-18C0 8.06 8.06 0 18 0z" fill="#f2f4f7" fill-rule="nonzero"/><path d="M21.166 21.445v.824h.562v-.091h-.458v-.293h.437v-.088h-.437v-.262h.46v-.09zm.769 0 .005.816h.098v-.816zm.34.118h.098v-.118h-.098zm0 .698h.098v-.591h-.098z" fill="#394d55"/><path d="M.403.379C.327.436.107.379.107.525c0 .064.056.087.115.087.129 0 .181-.078.181-.134zm.153.299a.133.133 0 0 1-.07.015C.436.693.403.667.403.602a.253.253 0 0 1-.207.09C.089.693 0 .649 0 .528c0-.12.1-.163.2-.18C.3.329.399.333.399.26c0-.074-.061-.1-.127-.1C.207.16.128.187.124.274H.028c0-.147.118-.197.25-.197.134 0 .219.025.219.16v.305c0 .046 0 .067.031.067a.079.079 0 0 0 .028-.01z" fill="#394d55" mask="url(#a)" transform="translate(22.573 21.58)"/><path d="M19.728 8.506h.076V7.362h-.076z" fill="#ff7300" mask="url(#b)" transform="translate(4 14)"/><path d="M20.919 7.55h-.327l-.044.232a.199.199 0 0 1 .15-.058.25.25 0 0 1 .262.277.266.266 0 0 1-.261.271h-.022a.239.239 0 0 1-.259-.215l-.001-.017h.098a.161.161 0 0 0 .171.147.173.173 0 0 0 .173-.172l-.002-.02a.176.176 0 0 0-.167-.186h-.016a.2.2 0 0 0-.15.076h-.085l.076-.42h.4zm.491.639c.165 0 .167-.207.167-.327s0-.327-.168-.327c-.167 0-.166.217-.166.327 0 .109 0 .327.166.327m0-.74c.253 0 .271.236.271.413s-.018.412-.27.412-.27-.233-.27-.412.016-.412.27-.412m.482-.005H22v.352h.436v-.352h.107v.816h-.107v-.376H22v.376h-.11zm1.286.463a.17.17 0 1 0-.34 0zm.094.166a.235.235 0 0 1-.253.2c-.188 0-.278-.131-.284-.31a.284.284 0 0 1 .258-.306l.021-.001c.218 0 .273.194.267.338h-.437a.175.175 0 0 0 .158.193h.028a.14.14 0 0 0 .152-.114zm.188-.404h.09v.124a.219.219 0 0 1 .22-.138v.103c-.155 0-.22.087-.22.237v.265h-.095zm.593 0h.118v.084h-.118v.367c0 .046.013.054.074.054h.044v.086h-.075c-.1 0-.141-.023-.141-.129v-.378h-.101V7.67h.1v-.177h.099zm.25.508.358-.437h-.334v-.084h.458v.084l-.359.437h.372v.085H24.3z" fill="#394d55" mask="url(#b)" transform="translate(4 14)"/><path d="M25.405 8.506h.079V7.362h-.079z" fill="#ff7300" mask="url(#b)" transform="translate(4 14)"/><path d="M26.148 7.445h.565v.09h-.456v.262h.423v.088h-.423v.293h.458v.09h-.567zm1.396.714a.333.333 0 0 1-.262.122.392.392 0 0 1-.39-.394v-.018a.398.398 0 0 1 .39-.437c.17-.02.324.096.352.264h-.11a.219.219 0 0 0-.242-.18c-.198 0-.281.173-.281.346a.294.294 0 0 0 .281.327.244.244 0 0 0 .262-.266h-.262v-.091h.352v.435h-.068zm.347.102H28v-.816h-.109zM9.997 4.767c-.055-.296-.18-.449-.464-.449a.457.457 0 0 0-.484.431v.018zm-.949.369c.018.37.2.538.521.538a.482.482 0 0 0 .461-.274h.512a.956.956 0 0 1-.992.713 1.034 1.034 0 0 1-1.09-1.115 1.065 1.065 0 0 1 1.005-1.12c.028-.001.056-.002.085-.001.722 0 1.07.609 1.027 1.259zm1.933.918h.583V3.127h-.583zm1.092-.009h.582V3.927h-.582zm0-2.447h.582v-.48h-.582zm2.404 1.426a1.166 1.166 0 0 1-.484.122c-.181.037-.345.098-.345.312s.168.271.358.271a.437.437 0 0 0 .47-.489zm-1.346-.436c.033-.545.522-.71.997-.71.423 0 .93.095.93.603v1.101c-.01.161.015.322.075.472h-.584a1.032 1.032 0 0 1-.042-.203.976.976 0 0 1-.713.261c-.401 0-.722-.2-.722-.636 0-.478.363-.594.722-.644.36-.05.689-.04.689-.277s-.172-.288-.377-.288-.364.09-.386.321zm5.079.38c0-.342-.118-.654-.495-.654-.329 0-.471.285-.471.602 0 .316.113.645.471.645s.495-.288.495-.593zm.554.95c0 .349-.124.94-1.09.94-.419 0-.905-.195-.934-.68h.578c.05.194.238.319.436.29.323 0 .472-.217.467-.523v-.28a.719.719 0 0 1-.654.333c-.635 0-.905-.485-.905-1.067 0-.547.314-1.05.909-1.05a.652.652 0 0 1 .63.34v-.285h.554zm.508-1.982h.554v.393a.754.754 0 0 1 .676-.452.437.437 0 0 1 .129.022v.541a1.066 1.066 0 0 0-.218-.02c-.436 0-.574.306-.574.681v.953h-.567zm2.595 1.738c.397 0 .515-.34.515-.676s-.118-.68-.515-.68c-.396 0-.512.34-.512.68s.117.676.512.676m0-1.797a1.04 1.04 0 0 1 1.091 1.121 1.09 1.09 0 0 1-2.18 0 1.04 1.04 0 0 1 1.09-1.12m3.5 2.176h-.554V5.76h-.015a.757.757 0 0 1-.655.354c-.617 0-.774-.349-.774-.873v-1.31h.582v1.193c0 .347.103.52.374.52.316 0 .45-.177.45-.607v-1.1h.583zM27.416 5c0-.336-.135-.683-.508-.683s-.504.341-.504.683c0 .343.13.674.508.674s.504-.33.504-.674zM25.85 3.936h.554v.27a.7.7 0 0 1 .63-.329c.666 0 .964.54.964 1.141 0 .564-.311 1.09-.931 1.09a.749.749 0 0 1-.634-.32v1.01h-.583z" mask="url(#b)" transform="translate(4 14)" fill="#394d55"/><path d="M9.41 1.993c-.314-.559-1.217-.735-2.1-.388a2.087 2.087 0 0 0-1.3 1.32l-.586.084c.055-.149.13-.29.217-.423A3.773 3.773 0 0 1 9.188.996a1.31 1.31 0 0 1 1.17.936zm13.111-.563-9.098.336-1.91.102-.469.027-.592.033C10.3 1.315 9.81.888 9.022.78c-1.278-.17-2.75.56-3.51 1.463a1.996 1.996 0 0 0-.437.816l-.559.08c.297-1.092 1.51-2.2 3.097-2.727 1.466-.486 2.835-.338 3.581.283-.687-.744-2.24-.929-3.91-.369C5.54.903 4.231 2.093 3.997 3.2l-1.832.281L0 3.785v.011l3.967-.106c0 .045.013.091.022.137.12.58.765.873 1.406 1.066-.39-.233-.83-.48-.924-.929a1.654 1.654 0 0 1-.03-.272l.272-.024h.246c.096.6.713 1.103 1.614 1.17.404.017.81-.033 1.197-.15v-.257a4.18 4.18 0 0 1-1.308.133c-.77-.04-1.248-.41-1.398-.905l1.11-.03a.523.523 0 0 0 .056.048c.306.357.903.501 1.547.375v-.35c-.72.151-1.355-.017-1.492-.427-.157-.469.397-1.075 1.237-1.354.84-.279 1.64-.129 1.792.34a.591.591 0 0 1-.026.412l3.49-.33.641-.054 9.325-.85z" fill="#ff7300" mask="url(#b)" transform="translate(4 14)"/></g></svg>