<svg height="36" viewBox="0 0 36 36" width="36" xmlns="http://www.w3.org/2000/svg"><mask id="a" fill="#fff"><path d="M0 0h6.425v5.56H0z" fill-rule="evenodd"/></mask><mask id="b" fill="#fff"><path d="M0 0h7.67v5.748H0z" fill-rule="evenodd"/></mask><g fill="none" fill-rule="evenodd"><path d="M18 0c2.837 0 5.52.656 7.907 1.825C31.884 4.753 36 10.895 36 18c0 9.942-8.058 18-18 18-9.94 0-18-8.057-18-18C0 8.06 8.06 0 18 0z" fill="#f2f4f7" fill-rule="nonzero"/><g fill="#4a627b"><path d="M19.3 17.87c1.457 0 .915 1.185.915 1.185h-3.129s.671-1.184 2.214-1.184zm2.052 2.329s1.657-3.358-1.879-3.358c-3.098 0-4.113 2.719-4.294 3.38-.356 1.305.274 2.374 1.907 2.374s2.464.002 2.464.002l.327-1.123-2.294-.003s-1.658.062-1-1.272zM23.835 14l-2.72 8.605h1.415L25.25 14zm1.385 3.063-1.761 5.542h1.415l1.762-5.542zm1.715-1.186H25.52l.464-1.527H27.4z"/><path d="m3.527 1.094 2.523-.01.375-1.076L3.764.001S2.127-.085 1.399 1.266C.643 2.67 1.849 3.23 2.713 3.23h1.138c.138 0 .579.051.414.523-.141.404-.627.645-.934.658-.188.008-2.935 0-2.935 0L0 5.56h3.079c.258 0 2.025-.015 2.46-1.82.372-1.543-1.276-1.577-1.53-1.577h-.894c-.159 0-.912.04-.513-.57.244-.374.633-.498.925-.498" mask="url(#a)" transform="translate(25.575 17.062)"/></g><path d="m15.631 16.448-.009-.01c-.04-.047-.074-.074-.077-.077-.026-.025-2.178-2.018-2.345-2.18l-.088-.069c-.179-.115-.404-.112-.404-.112H8.37c-.072 0-.115.002-.127.004a.269.269 0 0 0-.202.092l-.01.012c-.092.115-.068.315.054.434.162.16 1.486 1.454 1.844 1.805.312.306.293.505.296.514a.326.326 0 0 1-.033.17 1.118 1.118 0 0 1-.246.35l-.18.18-.079.076c-.39.384-1.043 1.021-1.39 1.362l-.207.202c-.135.131-.15.354-.03.466a.28.28 0 0 0 .183.076c.043.002.082.004.125.004h4.341s.223.003.403-.11l.09-.07a482.09 482.09 0 0 1 2.344-2.18.555.555 0 0 0 .073-.073l.007-.008a.667.667 0 0 0 .17-.422v-.02a.665.665 0 0 0-.164-.416" fill="#ed1c24"/><path d="M4.368 3.283c-.04 0-.08-.002-.119-.004l-.028-.001a.675.675 0 0 1-.652-.677.78.78 0 0 1 .234-.565l.15-.145.057-.057L5.401.473l.054-.054.012-.011C5.344.293 5.254.21 5.227.182L5.138.113C4.96-.002 4.733 0 4.733 0H.394a.88.88 0 0 0-.127.005.27.27 0 0 0-.202.092L.056.109C-.037.224-.012.424.11.543l1.845 1.804c.312.307.293.506.296.515a.33.33 0 0 1-.034.168 1.086 1.086 0 0 1-.245.352c-.062.061-.15.15-.259.256L.322 5l-.208.202c-.134.132-.15.354-.03.467.042.04.102.07.183.075.043.002.083.004.126.004h4.34s.224.003.404-.111l.09-.071c.165-.16 2.317-2.153 2.344-2.179a.6.6 0 0 0 .073-.073l.007-.007.02-.024z" fill="#21b5b0" mask="url(#b)" transform="translate(4 16.873)"/></g></svg>