<svg width="36" height="36" fill="none" xmlns="http://www.w3.org/2000/svg"><path d="M18 0c2.837 0 5.52.656 7.907 1.825C31.884 4.753 36 10.895 36 18c0 9.942-8.058 18-18 18-9.94 0-18-8.057-18-18C0 8.06 8.06 0 18 0z" fill="#F2F4F7"/><g fill="#0025AE"><path d="M26.506 23.987c-.467 0-1.105-.07-1.492-.4-.695-.593-.55-1.815-.546-1.866.098-.788.522-1.819 1.991-2.257.667-.2 1.432-.238 1.945-.252.065 0 .303-.005.33-.102.033-.098-.177-.266-.307-.36-.401-.275-1.39-.746-3.577-.746h-.298c-.933 0-2.16.164-2.803.555-.149.089-.238.192-.252.322-.018.224.187.401.21.42l.005.005c.2.153.42.275.56.34l.06.028c.345.168.989.48 1.278 1.133.158.36.224.742.196 1.105-.224 2.043-2.523 2.066-2.621 2.066h-.01a3.442 3.442 0 0 1-2.047-.667c-.004-.005-.643-.396-.895-1.18-.005-.023-.051-.163-.056-.186-.028-.117-.093-.378-.154-.387-.098-.01-.256.317-.308.41-.107.2-.242.439-.289.504-.251.415-.904 1.506-1.893 1.506a1.63 1.63 0 0 1-.783-.22c-.64-.349-.821-.88-.97-1.305-.042-.116-.075-.242-.112-.364-.159-.485-.191-.498-.555-.167-.345.317-.68.624-.975.853-.466.368-1.408 1.007-2.448 1.142a6.221 6.221 0 0 1-.76.056c-.97 0-1.688-.28-2.131-.82a4.39 4.39 0 0 1-.807-1.544c-.107-.354-.14-.303-.433-.364-.355-.07-.616-.111-1.031-.205a.673.673 0 0 1-.42-.303.706.706 0 0 1-.093-.522.675.675 0 0 1 .648-.555c.047 0 .093.005.14.014l.187.042c.158.037.466.098.573.112l.06.004c.215.01.22-.009.29-.275.01-.028.014-.065.023-.102.313-1.245 1.194-2.197 2.406-2.658.294-.112.77-.206 1.297-.206.466 0 1.1.084 1.487.415.672.574.681 1.409.63 1.861-.06.513-.387 1.753-2.07 2.257-.523.154-1.134.233-1.982.252-.117 0-.238-.01-.276.065-.055.108.066.275.075.29.182.316.625.857 1.534.857a2.9 2.9 0 0 0 .513-.05c.821-.155 1.53-.593 2.099-1.046a11.35 11.35 0 0 0 1.23-1.165c.015-.019.08-.084.131-.2a.831.831 0 0 0 .056-.22.982.982 0 0 0-.014-.303c-.014-.065-.214-1.352-.228-1.45-.117-.919-.15-1.67-.13-2.145 0-.028.018-2.397 1.445-2.938.014-.005.214-.08.518-.07.508.01.97.196 1.258.531.649.76.625 1.637.532 2.313-.224 1.628-.788 3.087-1.683 4.332a.535.535 0 0 0-.098.48c.107.416.233.892.382 1.316.005.018.168.499.508.513.29.01.807-.826.807-.826.024-.037 1.227-1.809 1.352-3.534 0-.019.029-.317-.013-.704 0-.01-.052-.402.14-.64.097-.12.251-.181.447-.181.676 0 .746.802.75.835l.015.2c.019.242.186 2.355.289 3.227 0 .019.205 1.847 1.646 1.851.014 0 .06.005.135.005.858 0 1.371-.355 1.376-.942.01-.084.01-.466-.77-.877-.237-.116-.745-.429-.974-.63l-.042-.037c-.942-.797-.643-1.655-.532-1.902.387-.825 1.325-1.362 2.794-1.6.7-.112 1.347-.13 1.674-.13.112 0 .186-.005.219 0 4.01.005 4.915 1.46 5.055 1.753.102.21.186.43.256.648.047.159.052.224.29.233.116.005.21.02.293.024.22.014.35.028.723.102a.63.63 0 0 1 .406.294c.098.159.13.355.093.541a.675.675 0 0 1-.797.522c-.238-.041-.331-.05-.453-.065-.032-.005-.07-.005-.112-.01-.018 0-.032-.004-.046-.004-.238 0-.257.047-.29.233a3.861 3.861 0 0 1-2.453 2.915c-.28.107-.722.196-1.328.2zm2.07-3.38c-1.385.032-2.108.21-2.485.606-.168.182-.27.405-.303.685 0 .01-.033.266.12.466.103.136.262.21.472.22h.056c.303 0 1.837-.075 2.397-1.558.009-.023.102-.238.018-.359-.032-.047-.135-.065-.26-.065 0 .005-.01.005-.015.005zM9.57 17.939a2.1 2.1 0 0 0-.802.173c-.723.303-1.236.806-1.478 1.455-.01.023-.117.27-.047.363.051.066.159.061.28.061h.014c1.235-.028 2.145-.154 2.56-.68.014-.015.373-.44.33-.822a.505.505 0 0 0-.214-.363 1.08 1.08 0 0 0-.643-.187zm4.42-1.898c-.004.415.033 1.045.103 1.688.033.327.08.532.103.625.01.047.028.052.028.052.014 0 .018-.005.042-.028.093-.098.214-.425.289-.616a8.754 8.754 0 0 0 .555-2.108c.014-.088.126-.91-.117-1.25-.06-.088-.144-.172-.238-.181-.009 0-.032-.005-.065-.005-.186 0-.639.14-.676 1.203 0 0-.023.494-.023.62z"/><path d="M18.135 13.817c-.41 0-.727.326-.737.755-.009.476.355.9.812.952a.56.56 0 0 0 .088.004c.41 0 .733-.326.737-.755.01-.476-.354-.9-.811-.951-.028 0-.056-.005-.089-.005z"/></g></svg>