<svg width="36" height="36" fill="none" xmlns="http://www.w3.org/2000/svg"><path d="M18 0c2.837 0 5.52.656 7.907 1.825C31.884 4.753 36 10.895 36 18c0 9.942-8.058 18-18 18-9.94 0-18-8.057-18-18C0 8.06 8.06 0 18 0z" fill="#F2F4F7"/><path d="M4 21.421h6.42V15H4v6.421zm4.115-5.93a2.87 2.87 0 0 1 0 5.44v-5.44zm-.906-.146c.205 0 .423.027.605.063 0 1.455-1.407 2.652-2.859 2.652h-.607c.1-1.492 1.334-2.715 2.86-2.715zm-2.253 3.018c1.451 0 2.858 1.196 2.858 2.65a3.335 3.335 0 0 1-.605.064c-1.528-.002-2.803-1.229-2.86-2.714h.607zm7.612.412v-.405h1.336v-.516h-1.336v-.751h1.421v-.515h-1.968v2.163c0 .547.233.921.78.998.01.003.021.005.031.005h.01c.056.006.114.01.174.01h1.011v-.514H13.02c-.174 0-.452-.085-.452-.475zm1.848.99h.547v-3.178h-.547v3.178zm2.153-2.37c-.692 0-1.21.476-1.21 1.218v.018c0 .724.5 1.19 1.223 1.19.348 0 .673-.095.971-.411l-.33-.32a.796.796 0 0 1-.622.265c-.408 0-.678-.238-.696-.605h1.794c.01-.091.01-.192.01-.192 0-.646-.454-1.163-1.14-1.163zm-.65.97c.022-.279.306-.503.65-.503.32 0 .581.229.581.504h-1.232zm3.327-.48c.247 0 .43.091.586.252l.339-.353a1.213 1.213 0 0 0-.925-.399c-.696 0-1.255.518-1.255 1.223 0 .705.559 1.223 1.255 1.223.343 0 .66-.114.925-.398l-.34-.353a.773.773 0 0 1-.585.252.7.7 0 0 1-.71-.724.7.7 0 0 1 .71-.723zm1.812.89v-.81h.497v-.498h-.497v-.88h-.547v2.22h.002c.015.517.25.869.778.943.01.003.021.005.031.005h.01c.056.006.113.01.173.01h.058l.002-.514h-.055c-.174 0-.452-.086-.452-.475zm1.5-.966v-.342h-.543v2.298h.543v-1.208c0-.378.241-.616.62-.616.086 0 .164.01.228.023v-.529a1.188 1.188 0 0 0-.164-.013c-.329 0-.575.15-.684.387zm2.185-.41c-.697 0-1.253.528-1.253 1.217 0 .689.556 1.218 1.253 1.218.693 0 1.254-.53 1.254-1.218s-.561-1.217-1.254-1.217zm0 1.938a.703.703 0 0 1-.71-.72c0-.407.304-.721.71-.721.402 0 .711.314.711.72 0 .406-.31.72-.71.72zm1.59.428h.547v-3.178h-.547v3.178zm2.52-.962c0 .365-.214.52-.501.52-.287 0-.502-.155-.502-.515v-1.34h-.55v1.386c0 .656.478.97 1.048.97.575 0 1.058-.319 1.058-.984v-1.373h-.552v1.336zm2.622.227-.345-.482.427-.582.366-.499h-.598l-.497.689-.501-.689h-.593l.34.465.454.62-.476.662-.395.551h.588l.583-.811.584.811H32l-.525-.735z" fill="#041E41"/></svg>