<svg width="36" height="36" fill="none" xmlns="http://www.w3.org/2000/svg"><path d="M18 0c2.837 0 5.52.656 7.907 1.825C31.884 4.753 36 10.895 36 18c0 9.942-8.058 18-18 18-9.94 0-18-8.057-18-18C0 8.06 8.06 0 18 0z" fill="#F2F4F7"/><path fill-rule="evenodd" clip-rule="evenodd" d="M10.486 13.003c-2.145.068-3.584 1.445-4.33 3.09 2.858-.89 7.08-.813 9.265.622-.544-1.948-1.995-3.481-4.25-3.691a5.495 5.495 0 0 0-.685-.021zm4.684 4.26c-1.961 0-4.03.716-4.621 2.097-.632 1.472.313 3.028 2.018 2.787 1.943-.275 3.17-2.558 2.99-4.873a7.763 7.763 0 0 0-.387-.01z" fill="#00559D"/><path fill-rule="evenodd" clip-rule="evenodd" d="M4 19.781h3.62c1.119-1.76 2.69-3.067 5.502-3.134-3.858-1.004-7.87.417-9.122 3.134z" fill="#F5CE11"/><path d="M16.702 15.141v4.031h2.379v-.491h-1.83v-1.454h1.333v-.47h-1.333v-1.12h1.861v-.496h-2.41zm4.25 1.03c-.302 0-.556.133-.757.397l-.173-.345h-.34v2.95h.523v-2.176a.732.732 0 0 1 .251-.267c.118-.08.23-.12.335-.12a.69.69 0 0 1 .433.126c.11.084.163.2.163.345v2.091h.522v-2.18a.627.627 0 0 1 .23-.267.605.605 0 0 1 .356-.115c.402 0 .601.232.601.696v1.866h.523v-1.97c0-.328-.084-.579-.25-.76-.168-.18-.402-.27-.707-.27a1.16 1.16 0 0 0-.496.109.67.67 0 0 0-.325.282c-.169-.262-.466-.392-.888-.392zm4.601 0c-.361 0-.677.13-.94.392-.296.294-.445.684-.445 1.171 0 .468.146.842.434 1.12.258.25.571.376.941.376.257 0 .492-.038.7-.115a.981.981 0 0 0 .372-.21l-.22-.376c-.2.174-.448.261-.747.261a.888.888 0 0 1-.643-.245c-.19-.186-.288-.45-.288-.795h2.128c.028-.097.042-.203.042-.319 0-.376-.114-.677-.345-.904-.239-.237-.568-.356-.989-.356zm3.3 0c-.377 0-.662.172-.853.523v-.47h-.523v2.948H28v-1.689c0-.24.07-.446.21-.617.138-.17.3-.256.486-.256.116 0 .231.041.345.12l.214-.512a2.325 2.325 0 0 0-.402-.047zm1.694 0c-.16 0-.328.026-.502.084a1.295 1.295 0 0 0-.413.209l.22.439c.176-.176.425-.267.752-.267.426 0 .643.24.643.717a1.177 1.177 0 0 0-.376-.074c-.405 0-.742.108-1.004.314-.262.207-.392.46-.392.758 0 .25.086.46.256.628.17.168.37.25.601.25.431 0 .752-.13.962-.392a.51.51 0 0 0 .225.299c.106.06.268.088.481.088v-.261c-.154-.086-.23-.26-.23-.518V17.39c0-.424-.1-.73-.293-.925-.194-.195-.503-.293-.93-.293zm-4.973.44c.25 0 .447.075.591.23a.743.743 0 0 1 .199.527h-1.631a.817.817 0 0 1 .256-.533.814.814 0 0 1 .585-.225zm5.323 1.06c.066 0 .184.016.35.053v.716c-.204.252-.441.377-.706.377-.36 0-.543-.154-.543-.46 0-.186.084-.346.25-.482.167-.136.384-.203.649-.203z" fill="#00559D"/></svg>