<svg width="36" height="36" fill="none" xmlns="http://www.w3.org/2000/svg"><path d="M18 0c2.837 0 5.52.656 7.907 1.825C31.884 4.753 36 10.895 36 18c0 9.942-8.058 18-18 18-9.94 0-18-8.057-18-18C0 8.06 8.06 0 18 0z" fill="#F2F4F7"/><path d="M4.638 15c0-.678-.014-.776-.397-.818l-.102-.014c-.038-.028-.028-.144.014-.163.28.014.5.019.765.019h1.223c.416 0 .799 0 .878-.02.037.113.08.58.103.864-.028.038-.13.052-.164.015-.098-.304-.154-.533-.494-.617-.136-.032-.346-.037-.63-.037h-.468c-.196 0-.196.014-.196.261v1.298c0 .182.02.182.215.182h.378c.271 0 .476-.014.551-.037.08-.028.122-.065.154-.229l.052-.266c.032-.037.144-.037.168.005 0 .154-.028.41-.028.658 0 .233.028.48.028.626-.028.046-.136.046-.168.004l-.061-.252c-.028-.116-.07-.215-.2-.247-.09-.028-.248-.033-.5-.033h-.374c-.196 0-.215.005-.215.177v.915c0 .346.02.565.122.677.08.08.215.15.784.15.5 0 .691-.028.831-.098.117-.066.294-.294.462-.63.047-.033.136-.015.164.046-.047.229-.21.729-.294.901a72.47 72.47 0 0 0-1.742-.018h-.579c-.28 0-.5.004-.882.018-.037-.018-.051-.121-.014-.163l.215-.019c.369-.033.401-.13.401-.812v-2.344zm6.466 1.582c.15.303.294.602.448.891h.014c.178-.303.336-.644.5-.975l.611-1.242c.294-.593.481-.948.495-1.247.22.019.36.019.486.019.163 0 .378-.005.579-.019.037.028.037.136.004.164l-.135.014c-.411.037-.462.163-.453.616.014.69.019 1.89.07 2.829.019.327.014.5.317.527l.21.02c.038.037.033.135-.014.163a15.635 15.635 0 0 0-1.55 0c-.046-.033-.05-.122-.013-.164l.186-.018c.318-.033.318-.136.318-.551l-.019-2.713h-.014c-.047.07-.294.593-.42.845l-.579 1.14a20.54 20.54 0 0 0-.7 1.48c-.014.018-.038.027-.066.027-.014 0-.046-.004-.06-.028-.112-.345-.42-.98-.575-1.298l-.583-1.26c-.135-.299-.27-.635-.416-.934h-.014c-.028.402-.046.78-.065 1.158-.019.397-.047.976-.047 1.527 0 .48.038.583.295.602l.247.018c.047.038.037.145-.005.164a11.805 11.805 0 0 0-1.382 0c-.037-.033-.05-.13-.014-.163l.145-.02c.27-.037.364-.078.402-.531.037-.43.07-.785.112-1.429.032-.541.06-1.092.07-1.447.014-.41-.038-.509-.434-.56l-.103-.014c-.033-.038-.028-.136.028-.164.196.014.35.019.513.019.15 0 .327 0 .542-.019-.028.252.135.659.336 1.074l.733 1.499zm5.737.756c0 .681.014.766.43.812l.177.019c.038.033.029.145-.014.163a20.304 20.304 0 0 0-.845-.018c-.27 0-.508.004-.793.018-.037-.018-.051-.121-.014-.163l.135-.019c.378-.051.388-.13.388-.812v-2.4c0-.55-.014-.663-.304-.695l-.233-.028c-.047-.038-.038-.136.014-.164.345-.046.747-.051 1.288-.051.542 0 .943.07 1.247.261.299.187.518.528.518.976 0 .598-.369.897-.649 1.032-.285.135-.63.196-.896.196-.047-.019-.047-.117-.005-.13.7-.132.957-.528.957-1.093 0-.63-.369-1.041-1.046-1.041-.345 0-.35.028-.35.233v2.904h-.005zm3.931-2.325c0-.69-.014-.798-.396-.83l-.164-.015c-.037-.028-.028-.144.014-.163a17.46 17.46 0 0 0 1.625 0c.037.019.051.135.014.163l-.164.014c-.382.033-.396.145-.396.831v2.316c0 .69.014.78.396.826l.164.019c.037.028.028.145-.014.163a17.365 17.365 0 0 0-1.625 0c-.037-.018-.051-.121-.014-.163l.163-.019c.383-.047.397-.135.397-.826v-2.316zm3.702.925c0 .116 0 .186.02.214.018.019.116.033.447.033.234 0 .481-.028.668-.168.177-.135.327-.364.327-.808 0-.513-.318-.999-1.041-.999-.402 0-.42.028-.42.21v1.518zm-.532-.93c0-.616-.018-.728-.285-.76l-.21-.028c-.046-.033-.046-.136.005-.164a16.26 16.26 0 0 1 1.447-.051c.402 0 .785.033 1.083.196.313.163.542.453.542.91 0 .616-.486.957-.812 1.083-.033.038 0 .103.032.154.518.84.864 1.359 1.308 1.728.111.098.27.168.448.182.032.014.037.065.004.093-.06.019-.163.033-.285.033-.55 0-.882-.163-1.344-.817-.168-.243-.434-.691-.635-.98-.098-.145-.2-.21-.462-.21-.294 0-.303.004-.303.144v.817c0 .682.013.761.387.813l.135.018c.038.033.028.145-.014.163a16.595 16.595 0 0 0-1.587 0c-.037-.018-.051-.116-.014-.163l.163-.018c.379-.047.388-.131.388-.813v-2.33h.01zM29.11 15c0-.678-.014-.776-.397-.818l-.102-.014c-.038-.028-.028-.144.014-.163.28.014.5.019.765.019h1.223c.416 0 .799 0 .878-.02.038.113.08.58.103.864-.028.038-.13.052-.164.015-.098-.304-.154-.533-.494-.617-.136-.032-.346-.037-.63-.037h-.468c-.196 0-.196.014-.196.261v1.298c0 .182.02.182.215.182h.378c.271 0 .477-.014.551-.037.08-.028.122-.065.154-.229l.052-.266c.032-.037.144-.037.168.005 0 .154-.028.41-.028.658 0 .233.028.48.028.626-.028.046-.136.046-.168.004l-.061-.252c-.028-.116-.07-.215-.2-.247-.09-.028-.248-.033-.5-.033h-.379c-.196 0-.214.005-.214.177v.915c0 .346.018.565.121.677.08.08.215.15.784.15.5 0 .691-.028.831-.098.117-.066.295-.294.463-.63.046-.033.135-.015.163.046-.047.229-.21.729-.294.901a72.478 72.478 0 0 0-1.741-.018h-.584c-.28 0-.5.004-.882.018-.038-.018-.052-.121-.014-.163l.214-.019c.37-.033.402-.13.402-.812v-2.344h.01zM5.026 20.648c-.01.014-.042.014-.052.005-.028-.098-.098-.234-.308-.234-.2 0-.406.145-.406.472 0 .34.21.504.416.504.2 0 .289-.135.331-.238.014-.014.042-.01.047.005a.674.674 0 0 1-.075.242l-.056.014a.985.985 0 0 1-.247.038.713.713 0 0 1-.407-.108.496.496 0 0 1-.224-.438c0-.187.084-.332.201-.42a.742.742 0 0 1 .439-.136c.089 0 .2.014.275.037l.047.01c0 .037.005.13.019.247zm1.241.224c0 .22.094.518.365.518.182 0 .326-.135.326-.452 0-.243-.107-.519-.36-.519-.158 0-.33.117-.33.453zm.91.038a.539.539 0 0 1-.56.546c-.359 0-.564-.252-.564-.537 0-.322.233-.565.57-.565.363 0 .555.266.555.556zm2.288.48c.014.005.014.042-.004.047-.07-.005-.131-.005-.196-.005-.075 0-.145 0-.215.005-.014-.005-.019-.037-.005-.047l.042-.01c.066-.008.07-.022.07-.13v-.649h-.004c-.042.089-.066.136-.094.201l-.135.28c-.056.112-.136.29-.164.364-.004.005-.028.005-.042 0a3.88 3.88 0 0 0-.13-.322l-.14-.303a3.373 3.373 0 0 1-.094-.215H8.35c-.005.08-.005.2-.01.27-.004.099-.004.239-.004.37 0 .102 0 .13.07.14l.051.009c.01.01.01.042 0 .047-.06-.005-.107-.005-.168-.005-.051 0-.107 0-.168.005-.014-.01-.014-.038-.005-.047l.028-.005c.075-.01.089-.032.098-.13.01-.099.014-.206.024-.37.004-.107.014-.237.014-.335 0-.075-.024-.108-.084-.117l-.056-.01c-.01-.009-.01-.041.004-.046.047.005.089.005.15.005.056 0 .112 0 .172-.005.005.093.047.177.09.266l.176.369.075.145.084-.164.15-.303c.05-.103.102-.201.13-.304.042.005.094.005.131.005.065 0 .121 0 .168-.005.019.005.019.038.005.047l-.052.01c-.07.008-.084.037-.084.12 0 .234.005.472.014.705.005.108.024.117.075.127l.037-.01zm1.228-.77c0-.145 0-.168-.07-.178l-.056-.004c-.01-.01-.01-.038 0-.047.112-.014.206-.014.35-.014.15 0 .262.023.332.065a.272.272 0 0 1 .135.238c0 .243-.229.308-.355.308h-.042c-.009-.009-.014-.032-.004-.041.144-.028.196-.136.196-.267 0-.13-.084-.242-.229-.242-.08 0-.08.004-.08.065v.696c0 .168.015.172.09.182l.06.004c.01.01.01.042-.005.047-.093-.005-.163-.005-.233-.005s-.14 0-.206.005c-.014-.005-.014-.033-.004-.047l.023-.004c.075-.01.089-.014.089-.187v-.574h.01zm2.12.35c.046 0 .051-.004.037-.042l-.065-.191c-.028-.084-.038-.117-.047-.126h-.005l-.046.126-.066.187c-.014.046-.014.046.024.046h.168zm-.192.07c-.042 0-.042 0-.056.042l-.065.192c-.033.093-.024.098.033.107l.046.01c.01.009.01.041-.004.046-.052-.005-.103-.005-.168-.005-.052 0-.103 0-.16.005-.008-.01-.013-.033 0-.047l.047-.009c.047-.01.066-.019.09-.075.018-.042.046-.107.079-.196l.219-.565c.019-.05.033-.088.028-.116.056-.01.107-.075.112-.075.014 0 .019.005.028.014l.07.22.229.667c.037.107.046.117.126.13l.023.005c.014.01.014.038 0 .047-.065-.005-.126-.005-.205-.005-.07 0-.14.005-.196.005-.014-.01-.014-.037-.005-.047l.033-.004c.056-.01.065-.019.042-.084l-.075-.215c-.014-.042-.019-.042-.065-.042h-.206v-.005zm2.666.122c0 .046 0 .242.005.28-.014.018-.033.023-.056.023a3.183 3.183 0 0 0-.187-.22l-.374-.424c-.102-.117-.154-.178-.182-.201-.004 0-.004.019-.004.103v.308c0 .121 0 .266.028.313.014.023.042.032.079.042l.033.004c.014.01.014.042-.005.047-.06-.005-.121-.005-.182-.005-.065 0-.112 0-.163.005-.014-.01-.014-.033-.005-.047l.033-.01c.028-.004.06-.008.07-.036.018-.052.018-.187.018-.313v-.378c0-.126 0-.15-.051-.196a.264.264 0 0 0-.084-.033l-.024-.005c-.009-.01-.009-.042.005-.046.06.004.15.004.187.004.033 0 .07 0 .112-.004.028.07.2.27.257.331l.159.173c.065.074.214.242.228.252.005-.005.005-.014.005-.038v-.308c0-.121 0-.266-.028-.312-.014-.024-.042-.038-.08-.042l-.037-.005c-.014-.01-.014-.042.005-.047.06.005.121.005.182.005.07 0 .112 0 .168-.005.014.01.014.033.005.047l-.038.01c-.028.004-.056.009-.07.037-.023.05-.023.186-.023.312v.378h.014zm1.493-.052a.335.335 0 0 0-.05-.196l-.192-.378c-.037-.07-.047-.084-.121-.103l-.042-.01c-.01-.009-.005-.041.004-.046.07.005.136.005.201.005.07 0 .168 0 .206-.005.013.005.013.033.004.047l-.046.009c-.024.005-.033.01-.033.019 0 .014.005.028.028.084.06.135.121.266.187.383.065-.122.126-.234.186-.35a.328.328 0 0 0 .042-.108c0-.014-.014-.019-.037-.023l-.047-.01c-.009-.009-.009-.037.005-.046a2.7 2.7 0 0 0 .168.004c.051 0 .098 0 .15-.004.013.009.013.032.004.046l-.047.01c-.07.014-.088.042-.172.182-.056.088-.103.177-.15.266a.36.36 0 0 0-.06.224v.093c0 .168.014.173.093.182l.06.005c.01.01.01.042-.004.047-.098-.005-.168-.005-.238-.005-.075 0-.145 0-.229.005-.014-.005-.014-.038-.005-.047l.052-.005c.075-.009.088-.014.088-.182v-.093h-.004zm3.185.06c0 .08.004.136.028.164.018.023.046.033.173.033.177 0 .2-.01.275-.173.014-.01.042-.005.051.01a1.72 1.72 0 0 1-.065.228c-.065-.005-.206-.005-.383-.005h-.163c-.08 0-.159 0-.23.005-.013-.005-.018-.037-.004-.047l.047-.009c.075-.014.089-.014.089-.182v-.584c0-.163-.014-.168-.089-.182l-.047-.004c-.01-.01-.01-.042.005-.047.08.005.15.005.224.005.07 0 .14 0 .21-.005.014.005.014.037.005.047l-.033.004c-.075.014-.089.014-.089.182v.56h-.004zm1.82.033c0 .168.014.173.09.182l.032.005c.01.01.01.042-.005.047-.07-.005-.14-.005-.21-.005-.07 0-.145 0-.215.005-.014-.005-.014-.038-.004-.047l.032-.005c.075-.009.089-.014.089-.182v-.593c0-.168-.014-.172-.089-.182l-.032-.004c-.01-.01-.01-.042.004-.047.07.005.14.005.215.005.07 0 .14 0 .21-.005.014.005.014.033.005.047l-.033.004c-.075.01-.089.014-.089.182v.593zm2.517.187c.014.005.014.042-.005.047-.07-.005-.13-.005-.196-.005-.075 0-.145 0-.215.005-.014-.005-.018-.037-.004-.047l.042-.01c.065-.008.07-.022.07-.13v-.649h-.005c-.042.089-.065.136-.093.201l-.136.28c-.056.112-.135.29-.163.364-.005.005-.028.005-.042 0a3.894 3.894 0 0 0-.13-.322l-.141-.303c-.028-.066-.075-.168-.093-.215h-.005c-.005.08-.005.2-.01.27-.004.099-.004.239-.004.37 0 .102 0 .13.07.14l.051.009c.01.01.01.042 0 .047-.06-.005-.107-.005-.168-.005-.051 0-.107 0-.168.005-.014-.01-.014-.038-.004-.047l.028-.005c.074-.01.088-.032.098-.13.009-.099.014-.206.023-.37.005-.107.014-.237.014-.335 0-.075-.023-.108-.084-.117l-.056-.01c-.01-.009-.01-.041.005-.046.046.005.088.005.149.005.056 0 .112 0 .168-.005.005.093.047.177.089.266l.177.369.075.145.084-.164.15-.303c.05-.103.102-.201.13-.304.042.005.093.005.13.005.066 0 .122 0 .169-.005.018.005.018.038.004.047l-.05.01c-.071.008-.085.037-.085.12 0 .234.005.472.014.705.005.108.023.117.075.127l.042-.01zm1.382-.187c0 .168.014.173.088.182l.033.005c.01.01.01.042-.005.047-.07-.005-.14-.005-.21-.005-.07 0-.145 0-.215.005-.014-.005-.014-.038-.004-.047l.033-.005c.074-.009.088-.014.088-.182v-.593c0-.168-.014-.172-.088-.182l-.033-.004c-.01-.01-.01-.042.005-.047a3 3 0 0 0 .214.005c.07 0 .14 0 .21-.005.014.005.014.033.005.047l-.033.004c-.074.01-.088.014-.088.182v.593zm1.573-.69c0-.066 0-.07-.042-.07h-.089c-.145 0-.191.018-.247.144-.01.01-.047.005-.052-.009.028-.084.052-.187.061-.243.005-.004.01-.004.019-.004.004 0 .014 0 .014.004.01.042.028.042.14.042h.649c.08 0 .102-.004.121-.042.005-.004.014-.004.019-.004.01 0 .018.004.018.009-.014.065-.028.2-.023.252-.01.014-.033.014-.051.005-.019-.126-.052-.154-.22-.154h-.088c-.042 0-.042.004-.042.07v.686c0 .168.014.173.088.182l.056.005c.01.009.01.042-.004.046-.094-.004-.164-.004-.234-.004s-.145 0-.247.004c-.014-.004-.014-.037-.005-.046l.066-.01c.074-.009.088-.009.088-.177v-.686h.005zm1.755.097c0-.167-.014-.177-.088-.186l-.024-.005c-.01-.01-.01-.042.005-.046.06.004.135.004.205.004h.304c.102 0 .196 0 .214-.004.005.028.014.154.024.219-.005.014-.038.014-.052.005-.023-.094-.05-.131-.098-.145a.552.552 0 0 0-.126-.014h-.107c-.07 0-.07.005-.07.093v.271c0 .042 0 .042.037.042h.075c.14 0 .163 0 .177-.07l.01-.056c.014-.01.042-.01.051 0 0 .042-.005.098-.005.159 0 .06.005.117.005.168-.01.01-.037.01-.051 0l-.01-.066c-.009-.065-.037-.07-.177-.07h-.075c-.037 0-.037.005-.037.042v.201c0 .08.005.14.028.164.019.023.047.032.177.032.201 0 .238-.042.294-.172.014-.01.043-.005.052.009a1.22 1.22 0 0 1-.066.229c-.07-.005-.205-.005-.392-.005h-.182c-.07 0-.168 0-.238.005-.014-.005-.014-.033-.005-.047l.061-.005c.075-.01.089-.014.089-.182v-.57h-.005zm2.04.528c0 .154.01.238.182.238.285 0 .411-.2.411-.471 0-.318-.182-.467-.448-.467a.3.3 0 0 0-.13.023c-.01.01-.015.042-.015.117v.56zm-.186-.518c0-.154 0-.177-.075-.182l-.033-.005c-.01-.01-.01-.037 0-.046.117-.01.243-.014.397-.014.15 0 .261.014.373.056.192.07.327.238.327.476a.5.5 0 0 1-.285.457.9.9 0 0 1-.396.075c-.098 0-.173-.01-.23-.01-.06 0-.13 0-.2.005-.014-.004-.014-.032-.005-.046l.033-.005c.075-.01.089-.014.089-.182v-.579h.005zm.952-1.237H4.059v.051h27.759v-.051z" fill="#565454"/></svg>