<svg height="36" viewBox="0 0 36 36" width="36" xmlns="http://www.w3.org/2000/svg"><g fill="none"><path d="M18 0c2.837 0 5.52.656 7.907 1.825C31.884 4.753 36 10.895 36 18c0 9.942-8.058 18-18 18-9.94 0-18-8.057-18-18C0 8.06 8.06 0 18 0z" fill="#f2f4f7"/><path d="M20.34 16.853a.164.164 0 0 0 .205-.16v-.006a.218.218 0 0 0-.098-.17c-.159-.11-.401-.152-.612-.152-.212 0-.435.053-.574.159a.532.532 0 0 0-.212.447c0 .348.258.601.766.706.224.047.469.162.469.362 0 .101-.048.21-.13.27-.13.095-.32.114-.413.115a1.013 1.013 0 0 1-.477-.117l-.023-.013a.176.176 0 0 0-.222.265c.015.02.033.037.055.05.219.152.531.175.673.175.134 0 .264-.028.408-.072a.78.78 0 0 0 .266-.139.653.653 0 0 0 .173-.22.79.79 0 0 0 .071-.314c0-.467-.414-.651-.776-.722-.308-.064-.463-.196-.463-.346a.19.19 0 0 1 .032-.113.244.244 0 0 1 .084-.077.416.416 0 0 1 .12-.042.874.874 0 0 1 .173-.013c.104 0 .326.047.421.094a.426.426 0 0 0 .085.033zm-1.706-.183c-.262-.308-.684-.305-.77-.305-.08 0-.498.003-.75.305a.97.97 0 0 0-.192.419c-.04.166-.044.32-.044.484 0 .31.026.666.236.907.21.24.512.304.76.304.274 0 .572-.022.79-.174a.217.217 0 0 0 .099-.171.17.17 0 0 0-.233-.159c-.01.004-.025.013-.055.029-.162.09-.317.132-.601.126-.191 0-.371-.052-.49-.2-.11-.14-.127-.36-.13-.603h1.427a.193.193 0 0 0 .194-.193c0-.52-.24-.77-.24-.77zm-1.37.63c-.001-.039-.006-.311.217-.478a.603.603 0 0 1 .375-.108c.09 0 .262-.003.413.11.223.17.225.438.224.476zm-.678-.698a.183.183 0 1 0-.365 0v1.716a.08.08 0 0 1-.046.069c-.024.01-.125.05-.47.05a.585.585 0 0 1-.468-.218c-.113-.15-.127-.41-.127-.677v-.94a.183.183 0 1 0-.365 0v.94c0 .328.02.68.234.939.186.225.498.304.726.304.145 0 .461.01.746-.096.079-.026.135-.128.135-.215zm-2.124.096a.198.198 0 0 0-.115-.18 2.203 2.203 0 0 0-.817-.152c-.241 0-.55.062-.76.304-.21.24-.24.608-.24.937 0 .328.03.63.24.871s.511.307.76.307c.229 0 .481-.103.56-.19v.314c0 .168-.04.301-.12.395a.424.424 0 0 1-.338.139 1.23 1.23 0 0 1-.293-.037 2.184 2.184 0 0 1-.324-.132c-.06-.029-.169-.007-.219.073-.05.08-.016.2.062.243.078.043.178.102.386.156.133.034.264.05.388.05a.89.89 0 0 0 .361-.067.732.732 0 0 0 .416-.471 1.14 1.14 0 0 0 .053-.35zm-.376 1.328a.37.37 0 0 1-.117.279c-.077.072-.248.131-.439.131s-.371-.055-.49-.203c-.12-.15-.134-.36-.134-.627 0-.266.015-.542.134-.691.119-.148.303-.201.49-.201.145 0 .343.031.507.09.029.009.05.036.05.068v1.154zm-2.538.131a.061.061 0 0 1-.055.035c-.029 0-.05-.03-.057-.04-.058-.084-.512-1.342-.61-1.615a.18.18 0 0 0-.231-.106.18.18 0 0 0-.107.23l.59 1.564c.069.185.169.29.315.343l-.359.95a.181.181 0 0 0 .34.128l1.129-2.983a.181.181 0 0 0-.104-.232.181.181 0 0 0-.233.105zm-1.295-1.555a.183.183 0 1 0-.365 0v1.716c0 .03-.023.06-.046.069s-.125.05-.47.05a.585.585 0 0 1-.468-.218c-.113-.15-.127-.41-.127-.677v-.94a.183.183 0 1 0-.365 0v.94c0 .328.02.68.234.939.186.225.498.304.726.304.145 0 .461.01.746-.096.079-.026.135-.128.135-.215zm-2.308.072c-.21-.245-.512-.309-.76-.309s-.55.064-.76.309c-.21.244-.24.565-.24.879 0 .314.03.679.24.923s.512.309.76.308c.248 0 .55-.064.76-.308.21-.244.24-.59.24-.923s-.03-.635-.24-.88zm-.27 1.553c-.12.15-.3.209-.49.209s-.371-.059-.49-.21c-.12-.15-.134-.403-.134-.673s.014-.48.134-.63c.119-.15.299-.21.49-.21s.37.06.49.21c.119.15.133.36.133.63s-.014.522-.134.674zM5.691 16.67c-.21-.242-.512-.305-.76-.305-.229 0-.481.1-.561.187v-1.094a.185.185 0 1 0-.37 0v2.988c0 .088.055.164.133.194.304.126.643.144.799.144.24 0 .55-.062.76-.303.21-.24.24-.578.24-.906s-.03-.665-.24-.905zm-.27 1.566c-.12.148-.303.2-.49.2a1.65 1.65 0 0 1-.511-.09.066.066 0 0 1-.045-.062v-1.163c0-.131.055-.22.117-.278.077-.072.248-.129.439-.129.19 0 .37.053.49.2.119.15.133.395.133.661s-.014.511-.134.66z" fill="#009dcc"/><path d="M27.714 22.179c.74.511 2.207-.325 3.275-1.87 1.067-1.547 1.332-3.213.59-3.725-.74-.511-2.17.282-3.237 1.828-1.068 1.546-1.369 3.255-.628 3.767z" fill="#ea5b0f"/><path d="M25.865 22.179c-.74.511-2.207-.325-3.274-1.87-1.068-1.547-1.332-3.213-.591-3.725.74-.511 2.17.282 3.238 1.828 1.067 1.546 1.368 3.255.627 3.767z" fill="#0055a4"/><g fill="#009dcc" transform="translate(4 13.67)"><ellipse cx="22.789" cy="1.628" rx="3.405" ry="1.628"/><path d="M16.517 6.092h-.043c-.016 0-.03-.012-.03-.026v-.274l-.118.283a.03.03 0 0 1-.026.016h-.044a.03.03 0 0 1-.026-.016l-.122-.285v.276c0 .014-.013.026-.028.026h-.044c-.016 0-.029-.012-.029-.026v-.507c0-.014.013-.025.029-.025h.044c.01 0 .02.005.026.015l.172.409.17-.41a.029.029 0 0 1 .026-.014h.043c.016 0 .029.011.029.025v.507c0 .014-.013.026-.029.026zm-.997-.508a.253.253 0 0 0-.167-.06.253.253 0 0 0-.166.06c-.063.055-.073.113-.073.228s.01.172.073.228a.25.25 0 0 0 .166.06.25.25 0 0 0 .167-.06c.063-.056.072-.113.072-.228s-.009-.173-.072-.228zm-.077.397c-.023.021-.056.032-.09.032s-.066-.01-.09-.032c-.032-.029-.046-.06-.046-.17 0-.109.014-.14.046-.169a.135.135 0 0 1 .09-.032c.035 0 .067.011.09.032.033.03.046.06.046.17 0 .11-.013.14-.046.17zm-.78-.058-.044-.008c-.013-.002-.027.005-.032.016a.106.106 0 0 1-.034.052.135.135 0 0 1-.09.032.135.135 0 0 1-.09-.032c-.033-.03-.046-.06-.046-.17 0-.11.013-.142.046-.17a.135.135 0 0 1 .09-.033c.035 0 .067.012.09.033a.106.106 0 0 1 .034.05.03.03 0 0 0 .032.017l.045-.007a.03.03 0 0 0 .02-.013.024.024 0 0 0 .003-.022.183.183 0 0 0-.057-.084.252.252 0 0 0-.167-.059.252.252 0 0 0-.167.059c-.062.056-.072.113-.072.228s.01.174.072.23a.26.26 0 0 0 .167.058c.062 0 .123-.02.167-.059a.182.182 0 0 0 .057-.083.024.024 0 0 0-.003-.023.031.031 0 0 0-.02-.012zm-.916.169h-.348c-.016 0-.029-.012-.029-.026v-.507c0-.014.013-.025.03-.025h.347c.016 0 .029.011.029.025V5.6c0 .014-.013.026-.03.026h-.274v.14h.23c.016 0 .028.01.028.024v.04c0 .013-.012.025-.028.025h-.23v.144h.275c.016 0 .029.012.029.026v.04c0 .015-.013.027-.03.027zm-.828 0h-.347c-.016 0-.029-.012-.029-.026v-.507c0-.014.013-.025.029-.025h.043c.016 0 .03.011.03.025V6h.274c.016 0 .03.012.03.026v.04c0 .015-.014.027-.03.027zm-.903 0h-.347c-.016 0-.029-.012-.029-.026v-.507c0-.014.013-.025.029-.025h.347c.016 0 .03.011.03.025V5.6c0 .014-.014.026-.03.026h-.275v.14h.23c.016 0 .03.01.03.024v.04c0 .013-.014.025-.03.025h-.23v.144h.275c.016 0 .03.012.03.026v.04c0 .015-.014.027-.03.027zm-1.028 0h-.044c-.016 0-.028-.012-.028-.026v-.44h-.142c-.016 0-.029-.012-.029-.026v-.04c0-.015.013-.026.029-.026h.385c.016 0 .029.011.029.025V5.6c0 .014-.013.026-.029.026h-.142v.44c0 .014-.013.026-.03.026z"/></g></g></svg>