<svg height="36" viewBox="0 0 36 36" width="36" xmlns="http://www.w3.org/2000/svg"><g fill="none" fill-rule="evenodd"><path d="M18 0c2.837 0 5.52.656 7.907 1.825C31.884 4.753 36 10.895 36 18c0 9.942-8.058 18-18 18-9.94 0-18-8.057-18-18C0 8.06 8.06 0 18 0z" fill="#f2f4f7" fill-rule="nonzero"/><path d="M7.904 17.471c.211 0 .281.111.281.211 0 .434-1.302 1.304-2.397 1.304-.231 0-.421-.087-.473-.152.756-.755 1.956-1.363 2.589-1.363M10.451 14c-3.068 0-6.054 2.463-6.054 2.88 0 .061.041.087.088.087.08 0 .176-.136.396-.342 1.555-1.456 3.845-2.313 5.434-2.313 1.149 0 1.641.592 1.641 1.315 0 2.077-4.206 5.159-6.378 5.159-.566 0-.942-.264-.942-.715 0-.253.109-.52.289-.781.135.118.396.219.729.219 1.411 0 2.974-1.101 2.97-1.861-.001-.219-.195-.456-.621-.456-.706 0-1.958.571-2.862 1.375-.108-.261.075-.678.415-1.039.705-.745 2.051-1.445 2.769-1.445.07 0 .1.036.1.076 0 .063-.092.097-.092.179 0 .045.038.081.091.081.126 0 .304-.199.304-.373 0-.133-.11-.226-.313-.226-.746 0-2.245.659-3.132 1.521-.53.516-.841 1.169-.589 1.671C4.276 19.489 4 20.02 4 20.553c0 .668.507 1.137 1.414 1.137 1.549 0 3.257-.829 4.611-1.963l.041-.192.181-.001c1.334-1.184 2.272-2.653 2.272-3.854 0-.852-.556-1.68-2.068-1.68" fill="#fdbf57"/><path d="M7.904 17.471c.211 0 .281.111.281.211 0 .434-1.302 1.304-2.397 1.304-.231 0-.421-.087-.473-.152.756-.755 1.956-1.363 2.589-1.363zM10.451 14c-3.068 0-6.054 2.463-6.054 2.88 0 .061.041.087.088.087.08 0 .176-.136.396-.342 1.555-1.456 3.845-2.313 5.434-2.313 1.149 0 1.641.592 1.641 1.315 0 2.077-4.206 5.159-6.378 5.159-.566 0-.942-.264-.942-.715 0-.253.109-.52.289-.781.135.118.396.219.729.219 1.411 0 2.974-1.101 2.97-1.861-.001-.219-.195-.456-.621-.456-.706 0-1.958.571-2.862 1.375-.108-.261.075-.678.415-1.039.705-.745 2.051-1.445 2.769-1.445.07 0 .1.036.1.076 0 .063-.092.097-.092.179 0 .045.038.081.091.081.126 0 .304-.199.304-.373 0-.133-.11-.226-.313-.226-.746 0-2.245.659-3.132 1.521-.53.516-.841 1.169-.589 1.671C4.276 19.489 4 20.02 4 20.553c0 .668.507 1.137 1.414 1.137 1.549 0 3.257-.829 4.611-1.963l.041-.192.181-.001c1.334-1.184 2.272-2.653 2.272-3.854 0-.852-.556-1.68-2.068-1.68z" stroke="#fdbf57" stroke-width=".058"/><path d="M17.966 21.54h.938l.2-.94h.204c.188 0 .262.102.256.237-.01.227-.048.505-.028.703h.94c-.034-.398.022-.692.022-.92a.432.432 0 0 0-.323-.414l.002-.008c.217-.04.62-.263.62-.678 0-.317-.27-.613-.792-.613h-1.479zm1.265-1.535.107-.502h.25c.168 0 .244.096.244.207 0 .163-.154.295-.375.295zm3.727 1.534h1.267c1.005 0 1.66-.718 1.66-1.585 0-.56-.454-1.047-1.279-1.047h-1.088zm1.372-2.037h.182c.266 0 .394.208.394.454 0 .425-.19.988-.705.988h-.178zm-8.24.961h.253c.18 0 .258.1.258.213 0 .183-.163.301-.375.301h-.245zm-1.165 1.077h1.435c.608 0 1.12-.335 1.12-.856a.559.559 0 0 0-.355-.516l.002-.01c.171-.048.55-.2.55-.65 0-.28-.253-.599-.815-.599h-1.379zm1.588-2.068c.169 0 .247.098.247.207 0 .174-.148.29-.344.29h-.22l.105-.497zm-7.223-.566h1.952l-.137.656h-1.017l-.07.33h.989l-.134.644h-.991l-.074.347h1.09l-.13.656H8.732zm20.758 0H32l-.137.656h-1.017l-.07.33h.989l-.134.644h-.991l-.074.347h1.09l-.13.656h-2.038zm-2.221 1.155h1.22l-.285 1.336a3.44 3.44 0 0 1-1.205.212c-.824 0-1.23-.46-1.23-1.06 0-.835.722-1.705 1.737-1.705.92 0 1.154.514 1.095.884h-.928c.009-.078-.041-.22-.255-.22-.361 0-.651.478-.651 1.042 0 .258.143.422.385.422.157 0 .244-.036.276-.046l.075-.346h-.344zm-15.843-1.153h1.15l.335 1.76h.014l.37-1.76h.776l-.56 2.632h-1.138l-.342-1.77h-.014l-.376 1.77h-.775zm9.684 0h.992l-.56 2.632h-.992z" fill="#e03a3e"/><path d="M17.966 21.54h.938l.2-.94h.204c.188 0 .262.102.256.237-.01.227-.048.505-.028.703h.94c-.034-.398.022-.692.022-.92a.432.432 0 0 0-.323-.414l.002-.008c.217-.04.62-.263.62-.678 0-.317-.27-.613-.792-.613h-1.479zm1.265-1.535.107-.502h.25c.168 0 .244.096.244.207 0 .163-.154.295-.375.295zm3.727 1.534h1.267c1.005 0 1.66-.718 1.66-1.585 0-.56-.454-1.047-1.279-1.047h-1.088zm1.372-2.037h.182c.266 0 .394.208.394.454 0 .425-.19.988-.705.988h-.178zm-8.24.961h.253c.18 0 .258.1.258.213 0 .183-.163.301-.375.301h-.245zm-1.165 1.077h1.435c.608 0 1.12-.335 1.12-.856a.559.559 0 0 0-.355-.516l.002-.01c.171-.048.55-.2.55-.65 0-.28-.253-.599-.815-.599h-1.379zm1.588-2.068c.169 0 .247.098.247.207 0 .174-.148.29-.344.29h-.22l.105-.497zm-7.223-.566h1.952l-.137.656h-1.017l-.07.33h.989l-.134.644h-.991l-.074.347h1.09l-.13.656H8.732zm20.758 0H32l-.137.656h-1.017l-.07.33h.989l-.134.644h-.991l-.074.347h1.09l-.13.656h-2.038zm-2.221 1.155h1.22l-.285 1.336a3.44 3.44 0 0 1-1.205.212c-.824 0-1.23-.46-1.23-1.06 0-.835.722-1.705 1.737-1.705.92 0 1.154.514 1.095.884h-.928c.009-.078-.041-.22-.255-.22-.361 0-.651.478-.651 1.042 0 .258.143.422.385.422.157 0 .244-.036.276-.046l.075-.346h-.344zm-15.843-1.153h1.15l.335 1.76h.014l.37-1.76h.776l-.56 2.632h-1.138l-.342-1.77h-.014l-.376 1.77h-.775zm9.684 0h.992l-.56 2.632h-.992z" stroke="#e03a3e" stroke-width=".058"/></g></svg>