<svg width="36" height="36" fill="none" xmlns="http://www.w3.org/2000/svg"><path d="M18 0c2.837 0 5.52.656 7.907 1.825C31.884 4.753 36 10.895 36 18c0 9.942-8.058 18-18 18-9.94 0-18-8.057-18-18C0 8.06 8.06 0 18 0z" fill="#F2F4F7"/><path d="M30.781 15.242c-.36-.077-.713-.163-1.252-.163-.9 0-1.734.422-1.734 1.374 0 1.597 2.001 1.005 2.001 1.872 0 .43-.462.544-.753.544-.393 0-.774-.114-1.135-.292l-.069.944a5.1 5.1 0 0 0 1.305.19c.936 0 1.856-.413 1.856-1.442 0-1.597-2.002-1.151-2.002-1.852 0-.377.369-.49.677-.49.421 0 .677.068 1.03.19l.076-.875zm-5.527 3.622a.974.974 0 0 0 .806-.393c.19-.25.24-.567.24-.912h-.5c-.514 0-1.276.086-1.276.766 0 .377.316.54.73.54zm-1.35-3.452a3.937 3.937 0 0 1 1.536-.337c1.35 0 1.905.56 1.905 1.864v.568c0 .446.008.782.016 1.106.008.337.024.645.053.989H26.4c-.045-.231-.045-.523-.053-.66h-.016c-.268.49-.843.761-1.366.761-.782 0-1.544-.47-1.544-1.313 0-.66.316-1.045.758-1.26.438-.215 1.005-.26 1.483-.26h.636c0-.713-.316-.952-.997-.952-.49 0-.976.19-1.365.483l-.033-.99zm-2.127 1.933c0-.754-.292-1.374-.96-1.374-.783 0-1.03.721-1.03 1.398 0 .6.316 1.341.977 1.341.721 0 1.013-.628 1.013-1.365zm-5.734 1.52a.974.974 0 0 0 .806-.394c.19-.25.24-.567.24-.912h-.5c-.514 0-1.28.086-1.28.766.004.377.32.54.734.54zm-1.35-3.453a3.952 3.952 0 0 1 1.536-.337c1.35 0 1.905.56 1.905 1.864v.568c0 .446.008.782.016 1.106.008.337.024.645.053.989h-1.014c-.044-.231-.044-.523-.052-.66h-.016c-.268.49-.843.761-1.366.761-.782 0-1.544-.47-1.544-1.313 0-.66.32-1.045.758-1.26.438-.215 1.005-.26 1.483-.26h.636c0-.713-.316-.952-.997-.952-.49 0-.976.19-1.365.483l-.033-.99zm-5.037 4.19h1.151v-2.164c0-.567.182-1.467 1.013-1.467.738 0 .746.73.746 1.268v2.363h1.15v-2.788c0-.997-.453-1.735-1.503-1.735-.6 0-1.09.2-1.45.706h-.017v-.6h-1.09v4.417zm-.827-.247c-.421.23-.903.352-1.52.352-1.458 0-2.309-.843-2.309-2.29 0-1.28.677-2.334 2.05-2.334 1.642 0 2.104 1.127 2.104 2.671H6.098c.053.713.551 1.118 1.26 1.118.56 0 1.038-.206 1.467-.445v.928h.004zm-.774-2.395c-.032-.56-.291-1.038-.936-1.038-.644 0-.968.446-1.02 1.038h1.956zm13.774-1.78h1.099v3.992c0 .268 0 .158-.017.349.005 4.826-3.91 8.74-8.736 8.74a8.74 8.74 0 0 1-8.697-7.84H6.67a7.558 7.558 0 0 0 15.063-.9c.02-.385.032-.223.044-.624h-.016c-.215.377-.73.705-1.374.705-1.305 0-1.803-1.05-1.803-2.233 0-1.066.55-2.294 1.872-2.294.583 0 1.037.199 1.357.706h.017v-.6z" fill="#0A71A4"/><path d="M5.669 14.334C6.743 10.674 10.126 8 14.134 8s7.392 2.675 8.465 6.334h-1.24a7.645 7.645 0 0 0-7.225-5.147 7.634 7.634 0 0 0-7.221 5.15H5.669v-.003z" fill="#A1C440"/></svg>