<svg height="36" viewBox="0 0 36 36" width="36" xmlns="http://www.w3.org/2000/svg"><g fill="none" fill-rule="evenodd"><path d="M18 0c2.837 0 5.52.656 7.907 1.825C31.884 4.753 36 10.895 36 18c0 9.942-8.058 18-18 18-9.94 0-18-8.057-18-18C0 8.06 8.06 0 18 0z" fill="#f2f4f7" fill-rule="nonzero"/><g fill="#0af"><path d="M32 15.902c-3.752-2.504-8.646-4.02-14-4.02-5.353 0-10.247 1.516-14 4.02 3.732-1.24 8.094-2.01 14-2.01 5.906 0 10.269.77 14 2.01"/><path d="M7.436 17.095c-1.845 0-3.18.919-3.18 2.42 0 2.132 3.136 2.782 5.432 1.99.218-.075.416-.232.353-.475-.056-.216-.232-.298-.496-.24-1.86.4-3.988-.027-3.988-1.343 0-.994.922-1.399 1.649-1.458.762-.06 1.357.1 1.665.418.191.199.137.47-.238.492-.347.02-.997.041-1.537.062-.308.011-.471.175-.471.397 0 .174.13.376.484.377.506.003 1.793.01 2.43.012.422 0 .63-.235.63-.72 0-.768-.697-1.932-2.733-1.932zm12.884 0c-1.912 0-3.446.913-3.446 2.388 0 1.575 1.528 2.346 3.433 2.346 2.128 0 3.164-1.158 3.164-2.17 0-.516-.262-.713-.704-.713-.421 0-1.72.01-2.553.013-.403 0-.504.218-.504.397 0 .156.109.358.485.377.574.031 1.303.064 1.64.082.454.023.46.256.306.456-.308.4-1.057.663-1.833.663-1.017 0-2.134-.578-2.134-1.494 0-.859.956-1.806 3.8-1.406.249.035.494-.01.556-.241.065-.246-.095-.404-.417-.489a6.85 6.85 0 0 0-1.793-.21zm4.305 0c-.556 0-.718.435-.712.7 0 .05.007.189.015.359 0 .039.036.075.083.07l1.263-.206a.073.073 0 0 0 .062-.07c.003-.058.005-.12.005-.148.008-.258-.158-.705-.716-.705zm4.387 0c-1.845 0-3.18.919-3.18 2.42 0 2.132 3.135 2.782 5.432 1.99.218-.075.415-.232.352-.475-.055-.216-.232-.298-.496-.24-1.86.4-3.987-.027-3.987-1.343 0-.994.922-1.399 1.648-1.458.762-.06 1.358.1 1.665.418.191.199.138.47-.238.492-.347.02-.996.041-1.537.062-.307.011-.471.175-.471.397 0 .174.132.376.485.377.506.003 1.792.01 2.43.012.422 0 .63-.235.63-.72 0-.768-.697-1.932-2.733-1.932zm-17.535.109c-.358 0-.702.221-.702.764v3.366c0 .262.186.43.407.43.243 0 .401-.163.436-.4 0 0 .26-1.603.293-1.782.036-.207.07-.37.27-.433.181-.056.352.05.608.273.252.22 2.387 2.148 2.387 2.148a.684.684 0 0 0 .514.194c.21 0 .59-.087.59-.727v-3.352c0-.312-.192-.481-.427-.481-.275 0-.416.224-.452.496-.041.301-.2 1.346-.235 1.612-.02.159-.032.325-.186.393-.155.068-.342-.036-.502-.172l-2.531-2.154a.714.714 0 0 0-.47-.175zm13.742 1.27-1.21.196a.072.072 0 0 0-.06.072c.04 1.161.15 2.125.18 2.462.04.436.266.56.492.56.217 0 .447-.114.487-.556.033-.373.143-1.522.197-2.658.003-.06-.039-.085-.086-.076z" fill-rule="nonzero"/></g></g></svg>