<svg height="36" viewBox="0 0 36 36" width="36" xmlns="http://www.w3.org/2000/svg"><mask id="a" fill="#fff"><path d="M0 0h19.629v16.358H0z" fill-rule="evenodd"/></mask><mask id="b" fill="#fff"><path d="M0 0h16.826v13.536H0z" fill-rule="evenodd"/></mask><g fill="none" fill-rule="evenodd"><path d="M18 0c2.837 0 5.52.656 7.907 1.825C31.884 4.753 36 10.895 36 18c0 9.942-8.058 18-18 18-9.94 0-18-8.057-18-18C0 8.06 8.06 0 18 0z" fill="#f2f4f7" fill-rule="nonzero"/><path d="M18.889 16.358a.74.74 0 0 0 .74-.74V.74a.74.74 0 0 0-.74-.74H.74A.741.741 0 0 0 0 .74v14.878c0 .408.332.74.74.74z" fill="#ffd912" mask="url(#a)" transform="translate(8 13.642)"/><g fill="#000"><path d="M17.548 25.73V30h.636v-4.058c.347-.413.968-.727 1.442-.727.568 0 .85.21.851.92L20.482 30h.612v-3.946c0-.852-.398-1.354-1.42-1.354-.61 0-1.272.328-2.126 1.03"/><path d="M17.174 25.556c.849-.732 1.705-1.197 2.585-1.197 1.112 0 1.73.553 1.709 1.695V30h.61v-3.948c.033-1.271-.614-2.152-2.211-2.152-.961 0-2.143.462-3.303 1.503L16.566 30h.608zm6.982-.931.406-.094V30h.583l-.007-5.916c0-.174-.1-.26-.3-.205l-1.266.345V30h.584zm.202-2.098a.82.82 0 1 0-.002-1.64.82.82 0 0 0 .002 1.64M10.7 27.101c.029-1.557.927-2.728 2.384-2.728 1.074 0 1.741.565 1.883 1.533.108.742-.022 1.195-.88 1.193l-3.019.14c.067 2.08 1.423 2.776 3.085 2.76h1.053l-.007-.477h-1.022c-1.532-.047-2.395-.7-2.444-1.872l2.798-.145c.591-.023 1.02-.293 1.021-1.04.001-1.326-.728-2.578-2.452-2.576-1.58.001-2.939 1.128-2.939 3.236 0 1.185.386 2.26 1.183 2.875h.92c-1.009-.448-1.59-1.45-1.564-2.899"/><path d="M14.6 25.96c-.118-.806-.623-1.262-1.517-1.262-1.099 0-1.846.873-1.99 2.214l2.912-.138c.56-.027.682-.214.595-.814m-.523.047c-.002.167-.09.304-.41.32l-1.903.1c.058-.638.531-1.213 1.26-1.213.812 0 1.047.468 1.053.793"/></g><path d="M19.723 7.876c0-.082-.104-.205-.186-.247-.494-.288-.99.083-1.484.083-.187 0-.373.04-.516-.063 0-.082.082-.103.082-.185-.122 0-.268-.04-.411-.061 0 0-.31-.02-.496-.082-.681-.29-1.32-.435-2.103-.063-.247.103-.495.206-.763.206-.124 0 .185.248.144.37-.411.063-.784.186-1.133.518v.02c.246.31.618.35.99.35.122 0 .349.289.927.371.845.165 1.34-.31 1.938-.062-.041-.104-.041-.165-.041-.247.702.186 1.258.164 1.795-.103.494-.125.722-.826 1.257-.805" fill="#d40026"/><path d="M8.93 5.176c-.072-.095-.044-.249-.12-.17-.16.158-.131.398-.112.604.01.101-.068.09-.1.06-.18-.171-.247-.308-.33-.535-.205.061-.228.214-.236.38-.007.143.113.362-.01.34-.227-.04-.33-.41-.35-.679-.082 0-.142.05-.235.219-.062.123-.096.318-.28.297-.187-.02-.247-.283-.267-.497-.007-.111-.121 0-.162.04-.09.09-.238.292-.335.457-.145-.165-.145-.412-.165-.701-.001-.01-.021-.002-.021-.002-.226.104-.494.847-.825.847-.041 0-.056-.041-.041-.062.157-.232.147-.495.127-.785-.006-.094-.052-.26-.118-.193 0 0-.27.305-.38.4-.1.086-.29.248-.474.289 0-.164.33-.558.143-1.174-.143.164-.205.297-.636.422a.899.899 0 0 1-.624-.061c-.015.183-.058.413-.223.57 0 0-.57-.294-.735-.274-.145.021-.358.6-.46.95-.248.008-.555-.228-.607-.482-.197.521-.183 1.152-.065 1.772.307 1.62.853 2.69 1.163 4.543.119.715-.66 1.188-.948 1.777.33 0 .616.016.987.002.093-.004.232-.105.258-.219.08-.344.098-.754.22-1.105.351-.06.453-.474.763-.66.021-.123-.164-.144-.185-.287.103-.104.248-.228.35-.373.041-.124-.165-.145-.165-.246 0-.104.037-.15.08-.212.082-.117.294-.133.189-.294-.099-.152-.288-.092-.392-.217.062-.206.247-.452.433-.535a.71.71 0 0 0-.62-.248v-.432c0-.058.063-.02.063-.02.289.143.496.246.784.37-.021.248.061.475.103.7.04.35.276.575.228.97-.034.261-.308.38-.473.513-.069.055-.189.106-.189.23.186.247.493.442.719.647.171-.208.252-.545.395-.771.144-.04.268-.061.372-.124.082-.041.164-.041.246-.083-.061-.205-.267-.309-.41-.432.08-.083.208-.078.328-.104.068-.015.144-.04.186-.123-.144-.043-.31-.145-.33-.31.165-.123.434-.267.495-.536-.082-.102-.226-.102-.33-.164-.021-.146.038-.312.069-.44.017-.068.064-.135.127-.135.432.081.89.058 1.3-.003 0 0 .18-.037.149.125-.124.537-.305 1.03-.387 1.586-.185.227-.433.331-.62.494-.143.125-.329.145-.39.352l.825.665c.149-.175.288-.479.391-.686.041-.082 0-.206.083-.29.185.022.371-.041.535-.06.022-.187-.144-.269-.226-.414.145-.04.33-.005.453-.08.08-.046.187-.147.187-.249h-.146c-.04 0-.102 0-.081-.061.246-.063.516-.105.68-.33a.115.115 0 0 1-.103-.062c.017-.058.103-.083.103-.083.165-.062.31-.247.31-.412-.145 0-.33-.043-.372-.185a.55.55 0 0 1 .413-.25c.227.518.535.991.884 1.445a.21.21 0 0 1 .022.165l-.784.948c-.04.042-.04.125.022.125l1.113-.041c.079-.01.145-.042.165-.103.02-.31.02-.62.061-.929.166-.125.29-.393.517-.393-.023-.122-.145-.144-.227-.226-.02-.166.123-.248.204-.371-.102-.061-.246.083-.348.022.102-.083.184-.124.267-.31.02-.051-.02-.04-.02-.04-.103.04-.194.008-.268-.021-.098-.049-.186-.125-.186-.229.061-.205.23-.367.373-.511.058-.054.117-.079.145-.018.063.166.1.304.204.449.02.101.02.225.082.309.267.164.515.39.741.68.105.186.27.329.229.556l-.66.99c-.03.042-.017.089-.017.089.007.03.045.083.09.073l1.04-.244s.035-.007.052-.026c.01-.012.01-.035.01-.035l-.04-.765c.102-.123.267-.185.391-.31-.041-.062-.084-.081-.124-.124 0-.123.124-.164.206-.225-.042-.124-.226-.105-.268-.248.165-.102.289-.247.31-.453-.062-.042-.202-.004-.284-.002-.079.003-.405-.037-.508-.143-.078-.082-.095-.267-.116-.432 0 0 .002-.053.042-.042.782.248 1.587.453 2.39.6 0 0 .108.016.146.082.33.577.659 1.102 1.014 1.669.083.133.142.254.171.37-.186.33-.472.542-.741.853-.102.137.03.254.112.24l.99-.165s.069-.007.083-.084c.022-.244.103-.472.061-.72.083-.143.288-.143.371-.289a1.014 1.014 0 0 0-.326-.274c-.25-.136-.305-.407-.358-.577-.133-.424.252-.303.252-.572a1.664 1.664 0 0 0-.269-.266c0-.145.124-.185.248-.227a.281.281 0 0 0-.144-.166c-.083-.042-.207-.063-.29-.122-.04-.103.31-.185.268-.496-.103.062-.268.02-.37-.02-.124-.103.082-.207.02-.31a4.504 4.504 0 0 1-.72-.33c-.162-.087-.236-.34-.31-.515-.29-.722-.516-1.443-1.032-2.062-.123-.144-.165-.166-.329-.29-.054-.04-.033-.129.079-.219a.917.917 0 0 0 .25-.316c.228-.453.207-1.113-.042-1.546-.287-.537-.7-.722-1.195-.722-.763 0-1.257.619-1.526 1.257-.33.806-.227 1.203-.762 1.594a.38.38 0 0 1-.477-.088c-.08-.104-.183-.27-.122-.413.062.042.126.153.202.208a.255.255 0 0 0 .272.02.345.345 0 0 0 .167-.308.51.51 0 0 0-.187-.374c-.165-.144-.434-.123-.619-.019-.248.123-.392.39-.35.7.02.207.136.35.218.556.023.056-.001.117-.095.125a.371.371 0 0 1-.35-.165M3.402 2.02l.557-.308c.104.02.104.123.165.186.145-.042.083-.249.165-.352.083 0 .083.124.144.186.144 0 .103-.226.167-.33.08-.123.309-.081.267-.287L4.66.185c-.025-.11-.084-.16-.124-.144-.741.269-1.319.537-2.02.783a.685.685 0 0 1-.227.021L1.155 0c.061.495.123.95.164 1.237.021.063 0 .084-.041.084-.226 0-.432.185-.577.39-.165.352-.37.64-.701.784a.488.488 0 0 0 .31.268c.102.042.206.02.309.082 0 .041-.021.064-.041.103C.31 3.423.72 4.062.206 4.414c.227.101.495 0 .682-.207.02 0 .04 0 .04.02-.144.33-.207.707-.186 1.073 0 0 .016.085-.02.192 0 0-.04.12-.062.18.661-.109.91-.958.962-1.103.007-.02.014-.022.022-.019.012.006.006.027.006.027s-.191.621 0 .887c.042.06.117.12.189.113.078-.297.244-.67.512-.875.246.02.496.144.743.246.144-.35-.124-.844-.124-.844-.005-.007 0-.01.002-.01.009-.005.018.01.018.01s.206.225.31.31c.122.082.495.163.7.04.074-.043.186-.143.207-.227-.66.042-.703-.784-1.011-1.175l.021-.02c.165.082.248.308.412.391l.902.186c.06.012.084-.083.084-.083.007-.03.092-.355.045-.515-.102-.063-.144.103-.227.103-.226-.062-.37-.083-.618-.186l-.413-.824c-.03-.063 0-.084 0-.084m7.254 3.14.026-.025c.474-.495.743-1.32.948-1.712.246-.453.496-.66.865-.68.312-.02.723.247.846.557.125.267.042.619-.103.825-.164.247-.473.308-.743.247a.979.979 0 0 1-.432-.268c-.187.289-.433.618-.722.803-.206.145-.455.289-.68.289-.025 0-.02-.02-.005-.035M3.073 1.485a.238.238 0 0 1-.248.247c-.124 0-.228-.103-.228-.247 0-.144.104-.248.228-.248.145 0 .248.104.248.248" fill="#000" mask="url(#b)" transform="translate(8.98 6)"/></g></svg>