<svg height="36" viewBox="0 0 36 36" width="36" xmlns="http://www.w3.org/2000/svg"><mask id="a" fill="#fff"><path d="M0 0h4.724v2.69H0z" fill-rule="evenodd"/></mask><mask id="b" fill="#fff"><path d="M.262 0h.476v1H.262z" fill-rule="evenodd"/></mask><g fill="none" fill-rule="evenodd"><path d="M18 0c2.837 0 5.52.656 7.907 1.825C31.884 4.753 36 10.895 36 18c0 9.942-8.058 18-18 18-9.94 0-18-8.057-18-18C0 8.06 8.06 0 18 0z" fill="#f2f4f7" fill-rule="nonzero"/><path d="M6.363 20.847c-.926 0-1.771-.53-2.17-1.373a.293.293 0 0 1 .529-.251c.313.66.987 1.067 1.717 1.037a1.811 1.811 0 0 0 1.568-1.04.292.292 0 1 1 .528.25 2.392 2.392 0 0 1-2.072 1.375c-.034.002-.067.002-.1.002" fill="#ed7022"/><path d="M4.432 2.69H.292a.293.293 0 0 1 0-.586h3.823A1.819 1.819 0 0 0 2.324.585a1.81 1.81 0 0 0-1.609.974.294.294 0 0 1-.519-.272A2.397 2.397 0 0 1 2.324 0a2.404 2.404 0 0 1 2.4 2.397.293.293 0 0 1-.292.293" fill="#ed7022" mask="url(#a)" transform="translate(4 16)"/><g fill="#5f6265"><path d="M12.255 19.509h-1.536v-.85h1.09a.265.265 0 1 0 0-.53h-1.09v-.733h1.425a.265.265 0 0 0 0-.53h-1.69a.265.265 0 0 0-.264.265v2.643c0 .146.119.264.265.264h1.8a.265.265 0 1 0 0-.53m18.637.001h-1.535v-.85h1.089a.265.265 0 1 0 0-.53h-1.089v-.733h1.424a.265.265 0 0 0 0-.53h-1.689a.265.265 0 0 0-.265.265v2.643c0 .146.119.264.265.264h1.8a.265.265 0 1 0 0-.53m-5.482.162-.306-.726-.001-.002-.807-1.914-.005-.008a.196.196 0 0 0-.006-.014l-.006-.011-.008-.011-.007-.011-.008-.01-.009-.01-.008-.01-.01-.008-.009-.01c-.004-.001-.007-.004-.011-.006l-.01-.008a.075.075 0 0 0-.012-.007l-.01-.006-.014-.007-.008-.004-.002-.001-.014-.005-.011-.003-.012-.003a.21.21 0 0 0-.056-.008l-.008-.001h-.006a.31.31 0 0 0-.06.009c-.004 0-.007.002-.011.003l-.011.003-.013.005h-.002l-.01.006-.012.006-.012.006-.01.007-.012.008-.009.007-.011.01-.008.007-.01.01-.008.01-.008.01-.008.01-.006.012-.007.01-.007.015a.03.03 0 0 1-.004.008L23 18.942l-.001.003-.306.726a.265.265 0 1 0 .488.205l.238-.564h1.265l.238.564a.264.264 0 0 0 .347.142.265.265 0 0 0 .141-.347zm-1.768-.89.41-.968.409.969zm-8.124 1.258h-.067a.262.262 0 0 1-.21-.102l-1.643-2.107v1.944a.265.265 0 0 1-.53 0v-2.642c0-.146.118-.265.264-.265h.056c.082 0 .159.038.209.102l1.656 2.123v-1.96a.265.265 0 0 1 .53 0v2.642a.265.265 0 0 1-.265.265m6.342-3.172a.265.265 0 0 0-.264.265v1h-1.51v-1a.265.265 0 1 0-.53 0v2.642a.265.265 0 0 0 .53 0V18.66h1.51v1.114a.265.265 0 1 0 .53 0v-2.642a.265.265 0 0 0-.265-.265m5.135 3.229c-.399 0-.809-.157-1.091-.44a.264.264 0 1 1 .373-.374c.282.28.71.335.986.244.121-.04.271-.124.297-.301.023-.15-.058-.29-.525-.491-.044-.02-.082-.034-.114-.051a1.726 1.726 0 0 0-.111-.046c-.296-.12-.912-.367-.901-.937.006-.35.218-.642.565-.782.484-.196 1.095-.061 1.486.328a.265.265 0 0 1-.374.375c-.273-.272-.666-.312-.914-.212-.153.062-.231.163-.234.3-.004.206.369.356.57.436.058.024.109.044.15.064.019.01.051.024.086.038.281.12.939.405.84 1.057-.052.34-.291.605-.655.725a1.381 1.381 0 0 1-.434.067m-10.116-.058a.265.265 0 0 1-.265-.265v-2.642c0-.146.12-.265.265-.265h1.087c.594 0 1.024.416 1.024.99 0 .573-.43.99-1.024.99h-.822v.927a.265.265 0 0 1-.265.265zm.265-1.723h.822c.301 0 .495-.18.495-.46 0-.279-.194-.46-.495-.46h-.822z"/><path d="M.738.237a.238.238 0 1 1-.476 0 .238.238 0 0 1 .476 0zm-.039 0a.199.199 0 1 0-.398 0c0 .115.085.206.199.206S.699.352.699.237zM.45.379H.411V.096H.52c.063 0 .092.028.092.079 0 .049-.033.072-.066.079l.079.125H.581L.505.254H.45zM.494.221c.037 0 .079.002.079-.047C.573.134.541.129.511.129H.45v.092z" mask="url(#b)" transform="translate(31.258 19.566)"/></g></g></svg>