<svg height="36" viewBox="0 0 36 36" width="36" xmlns="http://www.w3.org/2000/svg"><mask id="a" fill="#fff"><path d="M0 0h28v4.424H0z" fill-rule="evenodd"/></mask><mask id="b" fill="#fff"><path d="M0 0h28v4.34H0z" fill-rule="evenodd"/></mask><g fill="none" fill-rule="evenodd"><path d="M18 0c2.837 0 5.52.656 7.907 1.825C31.884 4.753 36 10.895 36 18c0 9.942-8.058 18-18 18-9.94 0-18-8.057-18-18C0 8.06 8.06 0 18 0z" fill="#f2f4f7" fill-rule="nonzero"/><path d="M26.653 1.683a8.354 8.354 0 0 1-.663-.32c-.096-.061-.144-.142-.144-.24 0-.263.239-.395.717-.395.34 0 .708.08 1.104.238v-.81C27.134.052 26.727 0 26.446 0c-.51 0-.924.11-1.242.329-.321.22-.482.542-.482.963 0 .328.111.599.331.813.171.163.537.36 1.098.59.313.129.507.23.583.3a.33.33 0 0 1 .111.254c0 .27-.254.404-.764.404-.368 0-.793-.075-1.272-.226v.842c.433.102.877.154 1.323.155.518 0 .939-.098 1.265-.295.402-.242.603-.595.603-1.057 0-.322-.103-.583-.308-.786-.172-.171-.518-.372-1.039-.603zm-3.529 1.246L21.66.074h-1.381v4.264h.84V1.445l1.503 2.893h1.342V.074h-.84zm-5.585-.417h1.66v-.704h-1.66V.846h1.907V.074h-3.055v4.264h3.104v-.815h-1.956zm-4.807.286L11.659.074h-1.544v4.264h.839v-3.02l1.226 3.063h.739l1.251-3.062v3.019h1.129V.074h-1.467zm-5.351-.286h1.66v-.704h-1.66V.846h1.907V.074H6.233v4.264h3.104v-.815H7.381zM3.949 4.338H5.14V.074H3.949zM1.93 1.683a8.074 8.074 0 0 1-.662-.32c-.097-.061-.145-.142-.145-.24 0-.263.239-.395.717-.395.34 0 .708.08 1.104.238v-.81C2.411.052 2.005 0 1.723 0 1.213 0 .799.11.482.329.16.549 0 .87 0 1.292c0 .328.11.599.331.813.17.163.536.36 1.097.59.312.129.507.23.583.3a.332.332 0 0 1 .112.254c0 .27-.255.404-.764.404-.37 0-.793-.075-1.273-.226v.842a5.84 5.84 0 0 0 1.323.155c.518 0 .94-.098 1.265-.295.402-.242.603-.595.603-1.057 0-.322-.103-.583-.308-.786-.172-.171-.519-.372-1.039-.603z" fill="#099" mask="url(#a)" transform="translate(4 13)"/><path d="M23.864.042h-.713l1.945 2.317.337-.447zm4.136 0h-.683l-1.855 2.461a1.248 1.248 0 0 0-.254.759v1.036h.546V3.262c0-.156.05-.306.144-.43zM21.882.035C21.51.014 21.132 0 20.75 0s-.76.014-1.131.035a1.274 1.274 0 0 0-1.207 1.267v1.736a1.273 1.273 0 0 0 1.207 1.267c.372.021.75.035 1.13.035s.76-.014 1.132-.035a1.273 1.273 0 0 0 1.207-1.267V1.89h-2.8v.56h2.254v.588a.725.725 0 0 1-.683.72c-.367.022-.737.036-1.11.036s-.741-.014-1.108-.036a.725.725 0 0 1-.683-.72V1.302a.725.725 0 0 1 .683-.72c.367-.021.737-.036 1.109-.036s.742.015 1.109.036a.725.725 0 0 1 .683.72V1.4h.546v-.098A1.274 1.274 0 0 0 21.882.035zm-6.213 1.267v2.996h.546V1.302c0-.383.314-.714.693-.714h1.113V.042h-1.132c-.594 0-1.22.516-1.22 1.26zM13.692.035C13.32.014 12.942 0 12.56 0s-.76.014-1.131.035a1.274 1.274 0 0 0-1.207 1.267v1.736a1.273 1.273 0 0 0 1.207 1.267c.372.021.75.035 1.13.035s.76-.014 1.132-.035a1.273 1.273 0 0 0 1.207-1.267V2.94h-.546v.098a.726.726 0 0 1-.683.72c-.367.022-.737.036-1.11.036s-.741-.014-1.108-.036a.726.726 0 0 1-.683-.72V1.302a.726.726 0 0 1 .683-.72c.367-.021.737-.036 1.109-.036s.742.015 1.109.036a.726.726 0 0 1 .683.72v.588h-2.254v.56h2.8V1.302A1.274 1.274 0 0 0 13.692.035zM8.374.042C8.072.017 7.764 0 7.458 0s-.615.017-.915.042a1.274 1.274 0 0 0-1.157 1.26v2.996h.546V1.302a.728.728 0 0 1 .68-.722c.278-.019.56-.034.846-.034s.568.015.846.034a.728.728 0 0 1 .68.722v2.996h.546V1.302A1.274 1.274 0 0 0 8.374.042zM3.469.035C3.097.014 2.719 0 2.338 0s-.76.014-1.131.035A1.274 1.274 0 0 0 0 1.302v1.736a1.273 1.273 0 0 0 1.207 1.267c.372.021.75.035 1.13.035s.76-.014 1.132-.035a1.272 1.272 0 0 0 1.207-1.267V2.94H4.13v.098a.725.725 0 0 1-.683.72 18.51 18.51 0 0 1-1.11.036c-.371 0-.741-.014-1.108-.036a.726.726 0 0 1-.683-.72V1.302a.726.726 0 0 1 .683-.72c.367-.021.737-.036 1.109-.036.373 0 .742.015 1.109.036a.725.725 0 0 1 .683.72v.588H1.876v.56h2.8V1.302A1.273 1.273 0 0 0 3.469.035z" fill="#641e8c" mask="url(#b)" transform="translate(4 18.264)"/></g></svg>