<svg height="36" viewBox="0 0 36 36" width="36" xmlns="http://www.w3.org/2000/svg"><mask id="a" fill="#fff"><path d="M0 0h26.438v5.025H0z" fill-rule="evenodd"/></mask><mask id="b" fill="#fff"><path d="M0 9.071h28V0H0z" fill-rule="evenodd"/></mask><g fill="none" fill-rule="evenodd"><path d="M18 0c2.837 0 5.52.656 7.907 1.825C31.884 4.753 36 10.895 36 18c0 9.942-8.058 18-18 18-9.94 0-18-8.057-18-18C0 8.06 8.06 0 18 0z" fill="#f2f4f7" fill-rule="nonzero"/><path d="M2.345 2.604V1.74H.902v-.17c0-.57.351-.827 1.49-.694V.041C.769-.168 0 .421 0 1.513V4.94h.902V2.604zm18.938-1.443h.902V.287h-.902zm4.311 3.778h.844V1.74h-.844v.333c-.266-.285-.627-.418-1.025-.418-.95 0-1.643.683-1.643 1.69 0 1.006.684 1.68 1.643 1.68.398 0 .759-.133 1.025-.427zm-20.192 0h.845V1.74h-.845v.304c-.247-.266-.579-.389-1.026-.389-.949 0-1.642.683-1.642 1.69 0 1.006.684 1.68 1.642 1.68.437 0 .779-.124 1.026-.389zM19.423 2.49c.313 0 .494.086.693.218l.389-.683c-.294-.237-.664-.36-1.158-.36-.94 0-1.718.626-1.718 1.68 0 1.053.759 1.68 1.765 1.68.504 0 .855-.114 1.149-.38l-.398-.655a1.04 1.04 0 0 1-.694.238c-.522 0-.911-.333-.911-.864 0-.55.389-.874.883-.874zm-2.525 2.136-.38-.646c-.228.171-.484.286-.892.286-.38 0-.693-.124-.864-.38l2.221-.703c-.085-.978-.636-1.519-1.547-1.519-.978 0-1.642.674-1.642 1.671 0 1.035.731 1.69 1.832 1.69.551 0 .978-.143 1.272-.399zm-5.658-1.49V4.94h.902V3.202c0-.503.275-.702 1.111-.674v-.835c-1.415-.105-2.013.427-2.013 1.443zM21.283 4.94h.902v-3.2h-.902zM10.366 3.47V1.74h-.901v1.624c0 .493-.181.844-.693.844-.513 0-.693-.35-.693-.844V1.74h-.902v1.728c0 .911.541 1.557 1.595 1.557 1.053 0 1.594-.646 1.594-1.557zm5.061-1.055c.341 0 .512.152.588.333l-1.396.474c.01-.493.323-.807.808-.807zm8.42.94c0-.588.351-.92.854-.92.484 0 .883.36.883.882 0 .58-.399.94-.883.94-.503 0-.854-.38-.854-.902zm-20.192 0c0-.588.351-.92.855-.92.483 0 .882.36.882.873 0 .588-.399.95-.882.95-.504 0-.855-.38-.855-.903z" fill="#243a8d" mask="url(#a)" transform="translate(5.405 13)"/><path d="M0 2.604h.826V1.74H0z" fill="#e60672" mask="url(#b)" transform="translate(4 13)"/><path d="M4.361 8.521h.29V7h-.29zm-.049-1.913c0-.107.078-.185.191-.185a.18.18 0 0 1 .188.185.18.18 0 0 1-.188.186c-.113 0-.191-.078-.191-.186zm.785.644c0-.087 0-.168-.003-.252h.284v.189h.003c.07-.128.261-.236.475-.236.351 0 .565.224.565.617v.95h-.29v-.872c0-.263-.092-.443-.359-.443-.26 0-.385.197-.385.389v.927h-.29m1.681-.253h.617c.197 0 .313-.012.313-.159 0-.128-.093-.148-.284-.195l-.197-.048c-.281-.07-.475-.128-.475-.458 0-.13.044-.224.113-.285.099-.086.235-.124.44-.124h.562l-.02.252h-.553c-.18 0-.267.018-.267.148 0 .128.064.147.27.197l.203.05c.257.062.486.124.486.44 0 .173-.063.275-.162.338-.116.073-.264.096-.458.096h-.588m2.767-.764c0-.315-.183-.551-.487-.551s-.487.239-.487.55c0 .328.18.566.487.566.304 0 .487-.238.487-.565zm-1.243-.504c0-.087 0-.168-.003-.252h.293c0 .06-.003.127-.003.194h.006a.625.625 0 0 1 .513-.241c.449 0 .74.339.74.815 0 .468-.312.805-.746.805a.635.635 0 0 1-.516-.23c.003.067.006.226.006.375v.324h-.29zm1.889 1.269h.29V7h-.29zm-.049-1.913c0-.107.078-.185.191-.185a.18.18 0 0 1 .188.185.18.18 0 0 1-.188.186c-.113 0-.191-.078-.191-.186zm.785.644c0-.087 0-.168-.003-.252h.281v.193h.003c.05-.141.188-.231.362-.231.038 0 .058.003.08.006v.266a.69.69 0 0 0-.106-.008c-.275 0-.327.206-.327.492v.803h-.29m.988 0h.29V7h-.29zm-.049-1.913c0-.107.078-.185.191-.185a.18.18 0 0 1 .189.185.181.181 0 0 1-.189.186c-.113 0-.191-.078-.191-.186zm.785.644c0-.087 0-.168-.003-.252h.284v.189h.003c.07-.128.26-.236.475-.236.351 0 .565.224.565.617v.95h-.29v-.872c0-.263-.093-.443-.359-.443-.26 0-.385.197-.385.389v.927h-.29m2.904-.82c0-.284-.186-.499-.484-.499-.29 0-.47.221-.47.499 0 .274.18.489.47.489a.47.47 0 0 0 .484-.489m-1.24 1.106.188-.214c.136.125.31.22.548.22.275 0 .504-.131.504-.49 0-.031 0-.087.003-.118h-.006a.724.724 0 0 1-.527.234c-.435 0-.724-.318-.724-.744s.306-.742.73-.742c.234 0 .408.09.509.218h.003V7h.276c-.003.081 0 .127 0 .211v1.127c0 .53-.374.733-.791.733-.267 0-.52-.09-.713-.264m2.665-1.555c0-.087 0-.168-.003-.252h.284v.189h.003c.07-.128.252-.236.466-.236.224 0 .39.093.481.26h.007c.07-.11.238-.26.533-.26.35 0 .559.224.559.617v.95h-.29v-.872c0-.263-.086-.443-.353-.443-.261 0-.376.197-.376.389v.927H18v-.873c0-.263-.087-.443-.354-.443-.261 0-.376.197-.376.389v.927h-.29m3.953-.757c0-.319-.2-.56-.5-.56-.297 0-.497.241-.497.56 0 .324.197.556.498.556.302 0 .499-.232.499-.556m-1.298.003c0-.49.33-.815.799-.815.47 0 .8.325.8.815 0 .477-.321.805-.8.805-.477 0-.8-.328-.8-.805m3.185-.011c0-.315-.183-.551-.487-.551s-.487.238-.487.55c0 .328.18.565.487.565.304 0 .487-.237.487-.564m-.971.576v.189h-.272V6.449h.29v.307c0 .154 0 .284-.003.438h.006a.625.625 0 0 1 .513-.241c.449 0 .74.339.74.815 0 .468-.312.804-.746.804a.64.64 0 0 1-.528-.24m1.617.189h.29V7h-.29zm-.049-1.913c0-.107.078-.185.191-.185a.18.18 0 0 1 .188.185.18.18 0 0 1-.188.186c-.113 0-.191-.078-.191-.186zm.785 1.912h.29V6.449h-.29zm.736.001h.29V7h-.29zm-.049-1.913c0-.107.078-.185.191-.185a.18.18 0 0 1 .189.185.181.181 0 0 1-.189.186c-.113 0-.191-.078-.191-.186zm.858.644h-.194V7h.194v-.415h.29V7h.432v.252h-.432V8.52h-.29m1.364.01L26.528 7h.307l.293.825c.05.144.092.272.13.394h.006c.05-.142.081-.255.133-.403L27.69 7H28l-.81 2.043h-.297" mask="url(#b)" transform="translate(4 13)" fill="#243a8d"/></g></svg>