<svg height="36" viewBox="0 0 36 36" width="36" xmlns="http://www.w3.org/2000/svg"><mask id="a" fill="#fff"><path d="M0 0h8.859v8.166H0z" fill-rule="evenodd"/></mask><g fill="none" fill-rule="evenodd"><path d="M18 0c2.837 0 5.52.656 7.907 1.825C31.884 4.753 36 10.895 36 18c0 9.942-8.058 18-18 18-9.94 0-18-8.057-18-18C0 8.06 8.06 0 18 0z" fill="#f2f4f7" fill-rule="nonzero"/><g fill="#ef402f"><path d="M30.561 15.758c-1.33 0-2.839 1.423-3.671 1.423-.49 0-.506-.521-.506-.676v-.35c-.21-.117-.637-.132-.855-.132-.296 0-.513.047-.576.062-.14.023-.163.07-.194.132-.545 1.229-1.291 3.329-1.618 4.402v-.007c-.062.232-.109.373-.14.489l-.101.405c-.031.14-.031.21.085.272.039.016.436.218.802.218.303 0 .552-.063.731-.257.163-.18.537-.606 1.026-1.15 1.128-1.167 2.847-2.777 3.936-2.777.257 0 .334.186.334.443 0 .327-.365 1.478-.661 2.334-.132.388-.249.746-.311.932a.21.21 0 0 0 .054.218c.203.156.607.296 1.152.296.303 0 .529-.04.653-.358.054-.148.194-.537.366-1.043.389-1.166.933-2.931.933-3.584 0-.568-.265-1.292-1.439-1.292m-15.143 2.458c0 .194-.226.73-.257.809-.202.505-.739.583-1.12.583-.568 0-.754-.202-.754-.521 0-.25.21-.677.233-.74.257-.582.708-.644 1.159-.644.381 0 .739.163.739.513"/><path d="M3.508 3.687c.163-.164 1.82-1.603 2.769-1.603.288 0 .303.522.303.895 0 .692-.07.817-.817.817H3.64c-.163-.008-.257.016-.132-.109m3.889 2.45c-.591 0-1.517.093-1.517.093-.054.062-.226.28-.497.358h-.016a1.684 1.684 0 0 1-.926.256c-.327 0-.622-.085-.863-.225-.521-.303-.824-.84-.824-1.245 0-.084.108-.069.249-.062 0 0 1.75.039 2.629.039h.87c1.245 0 2.357-.357 2.357-2.178C8.859 2.326 8.657 0 7.195 0 5.569-.007 0 2.155 0 5.032c0 .568.257 1.09.7 1.556.894.933 2.536 1.578 4.293 1.578 1.673 0 3.656-.956 3.819-1.578 0 0 .008-.023.008-.047 0-.334-.848-.404-1.423-.404" mask="url(#a)" transform="translate(4 14)"/><path d="M19.524 20.386c-.163.171-.443.163-.622.163-.303 0-.537.024-.537-.31 0-.484.335-2.21.832-2.902.133-.187.428-.218.622-.218.506 0 .522.093.522.358.008.373-.374 2.45-.817 2.91m3.61-3.36c0-1.285-1.464-1.472-2.638-1.472-2.854 0-3.686 1.603-3.88 2.085-.46 1.12-1.02 2.31-1.02 2.956v-.008h-.008c.024 1.4 1.727 1.431 2.49 1.431 1.392 0 2.652-.03 3.647-1.354 0-.077.008-.03.008-.039.008-.008.008-.038.016-.038.116-.156.248-.366.357-.576.241-.482 1.027-2.193 1.027-2.986"/></g></g></svg>