<svg height="36" viewBox="0 0 36 36" width="36" xmlns="http://www.w3.org/2000/svg"><mask id="a" fill="#fff"><path d="M0 0h24.351v2.347H0z" fill-rule="evenodd"/></mask><g fill="none" fill-rule="evenodd"><path d="M18 0c2.837 0 5.52.656 7.907 1.825C31.884 4.753 36 10.895 36 18c0 9.942-8.058 18-18 18-9.94 0-18-8.057-18-18C0 8.06 8.06 0 18 0z" fill="#f2f4f7" fill-rule="nonzero"/><path d="M23.169 1.222c-.012.068.005.121.044.156a.234.234 0 0 0 .157.053c.103 0 .22-.033.241-.153.048-.274-1.033-.056-.917-.715.077-.436.551-.563.905-.563.37 0 .791.085.75.536h-.614a.148.148 0 0 0-.043-.123.186.186 0 0 0-.129-.042c-.117 0-.198.036-.213.121-.042.237 1.061.078.949.714-.063.354-.397.595-1.021.595-.389 0-.797-.121-.752-.579zm-2.05-.513c.032-.181.165-.296.367-.296.16 0 .275.14.247.296zm1.229.344c.118-.616-.185-1.052-.815-1.052-.546 0-1.028.358-1.126.916-.101.572.266.884.812.884.396 0 .85-.141 1.041-.562h-.647a.328.328 0 0 1-.279.149c-.179 0-.311-.133-.276-.335zM19.5.7a.221.221 0 0 0-.041-.176c-.034-.045-.088-.068-.163-.068-.253 0-.342.263-.378.464-.045.257.022.426.221.426.175 0 .265-.121.308-.253h.681c-.149.516-.598.708-1.069.708-.55 0-.917-.309-.816-.884.103-.582.571-.916 1.133-.916.455 0 .849.195.809.699zM17.077.05h.613l-.06.344h.007c.14-.267.328-.394.592-.394.029 0 .057.008.086.011l-.12.676c-.044-.007-.09-.021-.135-.021-.277 0-.44.13-.504.498l-.104.588h-.676zm-.629 1.702h-.627l.045-.25c-.21.234-.387.299-.667.299-.37 0-.571-.228-.485-.715L14.898.05h.675l-.162.919c-.042.234.027.309.189.309.194 0 .282-.147.329-.41l.144-.818h.676zM13.591.455c.177-.008.255.179.21.429-.056.322-.192.462-.373.462-.173 0-.268-.14-.211-.462.034-.191.143-.429.374-.429zM12.535.92c-.103.582.267.881.813.881.545 0 1.019-.292 1.129-.917.094-.529-.215-.883-.815-.883-.576 0-1.023.328-1.127.919zm-1.402.302c-.011.068.005.121.045.156a.23.23 0 0 0 .156.053c.104 0 .22-.033.242-.153.048-.274-1.033-.056-.917-.715.076-.436.551-.563.905-.563.37 0 .79.085.75.536h-.615a.145.145 0 0 0-.043-.123c-.03-.029-.077-.042-.129-.042-.117 0-.198.036-.212.121-.042.237 1.061.078.949.714-.063.354-.397.595-1.021.595-.39 0-.798-.121-.753-.579zM9.084.709c.031-.181.165-.296.366-.296a.25.25 0 0 1 .247.296zm1.228.344c.119-.616-.185-1.052-.815-1.052-.545 0-1.028.358-1.126.916-.101.572.266.884.812.884.397 0 .85-.141 1.041-.562h-.646a.33.33 0 0 1-.28.149c-.178 0-.311-.133-.275-.335zM7.208.05h.614l-.061.344h.007C7.909.127 8.097 0 8.36 0c.029 0 .057.008.086.011l-.119.676C8.282.68 8.236.666 8.19.666c-.276 0-.438.13-.503.498l-.104.588h-.675zM5.377.502c.215 0 .255.179.222.367-.033.182-.142.361-.348.351-.182-.003-.238-.162-.208-.331.039-.221.13-.391.334-.387zM4.284 1.857c-.011.251.199.49.801.49.838 0 .966-.399 1.057-.909l.241-1.37h-.594l-.04.223a.526.526 0 0 0-.468-.273c-.559 0-.839.445-.913.864-.076.436.128.806.599.806a.764.764 0 0 0 .52-.185l-.025.139c-.043.244-.136.332-.331.332-.068 0-.114-.017-.139-.042-.024-.026-.032-.056-.029-.075zM3.252.473c.177-.01.254.179.21.429-.057.322-.192.462-.374.462-.172 0-.268-.14-.211-.462.034-.192.144-.429.375-.429zM2.195.938c-.102.581.267.88.813.88s1.019-.292 1.13-.916c.093-.53-.215-.884-.816-.884-.575 0-1.023.328-1.127.92zM.729.727C.761.544.895.431 1.096.431a.25.25 0 0 1 .247.296zm1.229.344C2.076.453 1.773.018 1.143.018.597.018.115.375.017.934c-.102.572.266.884.812.884.396 0 .849-.139 1.041-.562h-.647a.33.33 0 0 1-.28.15c-.178 0-.311-.134-.275-.335z" fill="#373535" mask="url(#a)" transform="translate(7.648 19.491)"/><path d="M6.925 17.484a1.754 1.754 0 0 1-.124-1.011A2.315 2.315 0 0 1 7.7 15c-.901.108-1.695.9-1.847 1.859-.057.363-.085.926.499 1.513.352.355.71.741.607 1.43-.106.705-.733 1.274-1.403 1.272-.671-.004-1.116-.576-1.026-1.283.117-.906 1.089-1.185 1.18-1.745.036-.215-.016-.436-.067-.621-.077-.251-.22-.662-.044-1.164 0 0-.52.403-.647 1.25a1.188 1.188 0 0 1-.331.709 2.31 2.31 0 0 0-.602 1.254c-.14 1.032.518 1.868 1.496 1.873.979.004 1.89-.828 2.049-1.858.136-.891-.43-1.543-.64-2.005" fill="#e43539"/><path d="M5.557 20.722h.003c.491 0 .972-.444 1.051-.972.074-.501-.148-.778-.509-1.13-.363-.354-.353-.523-.38-.757.007.507.03.823-.25 1.088-.276.26-.543.5-.593.885-.033.263.03.5.175.667a.65.65 0 0 0 .503.219" fill="#373535"/></g></svg>