<svg width="36" height="36" fill="none" xmlns="http://www.w3.org/2000/svg"><path d="M18 0c2.837 0 5.52.656 7.907 1.825C31.884 4.753 36 10.895 36 18c0 9.942-8.058 18-18 18-9.94 0-18-8.057-18-18C0 8.06 8.06 0 18 0z" fill="#F2F4F7"/><g fill="#3883BE"><path d="M15.723 17.144c-1.63 0-2.727.984-2.926 2.288-.01.059-.014.116-.02.173.3-.052.607-.114.92-.19 0 0-.3.194-.928.379-.013 1.12.773 1.927 2.246 1.927 1.63 0 2.727-.985 2.926-2.29.198-1.303-.59-2.287-2.218-2.287zm.947 2.288c-.106.683-.641 1.322-1.505 1.322-.864 0-1.202-.64-1.097-1.322.105-.683.641-1.321 1.505-1.321.864 0 1.202.639 1.097 1.32zM4.003 15a6.58 6.58 0 0 0 0 .425c.007.126.04.502.204.693.988 1.093 2.302 1.772 3.289 2.137-.828-.423-2.505-1.692-3.493-3.255z"/><path d="M5.59 18.952c3.35 1.467 6.185.843 6.584.741a.065.065 0 0 0 .055-.061c.222-1.535-.367-2.49-2.028-2.49-1.092 0-1.925.443-2.435 1.118a.065.065 0 0 0 .006.084.065.065 0 0 0 .027.016c.287.098.595.19.92.27a.055.055 0 0 0 .019 0 .066.066 0 0 0 .053-.026 1.591 1.591 0 0 1 1.277-.6c.814 0 1.044.63 1.008.863 0 0 .004.14-.102.158-2.272.384-5.727-1.322-6.892-2.532.017.262.052.523.107.78.058.236.212 1.103 1.4 1.675"/><path d="M7.243 19.93a.065.065 0 0 1 .065-.066h.015c.394.092.815.18 1.193.231a.065.065 0 0 1 .053.04c.16.383.592.616 1.078.616.885 0 1.338-.41 1.511-.584a.065.065 0 0 1 .047-.02.06.06 0 0 1 .032.009l.828.454a.064.064 0 0 1 .031.055.07.07 0 0 1-.02.047c-.465.486-1.266 1.031-2.58 1.008-1.467-.025-2.188-.767-2.253-1.79zM24 21.617h1.08a.065.065 0 0 0 .065-.054l.655-4.238v-.014a.065.065 0 0 0-.065-.065h-1.039a.112.112 0 0 0-.112.076l-.351 2.272c-.082.526-.45 1.104-1.364 1.104-.546 0-.82-.208-.817-.674.018-.985.325-2.358.402-2.701v-.015a.065.065 0 0 0-.064-.065h-.995a.12.12 0 0 0-.113.076c-.092.344-.454 1.786-.454 3.202.033.95.858 1.196 1.618 1.196.686 0 1.207-.233 1.522-.536h.024l-.056.36v.008a.065.065 0 0 0 .04.063.064.064 0 0 0 .025.005zm6.022-3.037a.064.064 0 0 1-.097-.02c-.13-.267-.477-.553-1.136-.553-.564-.009-.948.164-.989.423-.117.76 3.15.113 2.896 1.762-.163 1.054-1.318 1.529-2.47 1.529-1.127 0-1.86-.325-2.256-.734a.064.064 0 0 1-.018-.046c0-.011.002-.022.007-.031a.065.065 0 0 1 .022-.024l.884-.537a.08.08 0 0 1 .04-.013.065.065 0 0 1 .052.026c.237.324.717.495 1.333.495.576 0 1.015-.276 1.052-.51.114-.742-3.089-.13-2.832-1.788.151-.984 1.201-1.415 2.443-1.415 1.123 0 1.68.468 1.909.74a.065.065 0 0 1 .008.07.067.067 0 0 1-.02.024l-.828.602zm-9.305-3.027c-.165.48-.726 2.392-.9 6a.07.07 0 0 1-.068.066h-1.094a.065.065 0 0 1-.046-.02.065.065 0 0 1-.02-.045c.176-3.61.736-5.476.901-5.957a.208.208 0 0 1 .205-.13h.96a.064.064 0 0 1 .053.027.064.064 0 0 1 .01.059zm10.825 2.605a.473.473 0 1 1-.027-.945.473.473 0 0 1 .027.945zm0-.876a.404.404 0 1 0 .39.404.398.398 0 0 0-.39-.404z"/><path d="M31.76 17.936a.068.068 0 0 1-.018-.03.167.167 0 0 1-.006-.043v-.05a.15.15 0 0 0-.02-.079.107.107 0 0 0-.055-.044.138.138 0 0 0 .055-.045.12.12 0 0 0 .022-.072.139.139 0 0 0-.046-.113.205.205 0 0 0-.134-.04h-.194v.53h.077v-.227h.13a.081.081 0 0 1 .065.026.091.091 0 0 1 .024.065v.048a.29.29 0 0 0 .004.049.065.065 0 0 0 .02.038h.076v-.014.001zm-.124-.296a.13.13 0 0 1-.085.022h-.108v-.179h.115a.109.109 0 0 1 .078.023.102.102 0 0 1 0 .134z"/></g></svg>