<svg width="36" height="36" fill="none" xmlns="http://www.w3.org/2000/svg"><path d="M18 0c2.837 0 5.52.656 7.907 1.825C31.884 4.753 36 10.895 36 18c0 9.942-8.058 18-18 18-9.94 0-18-8.057-18-18C0 8.06 8.06 0 18 0z" fill="#F2F4F7"/><path d="M27.576 20.499h-.51v3.18h1.954v-.443h-1.444V20.5zm-2.094 2.203c0-.38-.331-.55-.66-.55h-.465v1.099h.48c.321 0 .645-.17.645-.55zm-1.125-.967h.34c.23 0 .475-.105.475-.4 0-.301-.248-.409-.48-.409h-.335v.809zm1.635.967c0 .641-.541.977-1.075.977h-1.05v-3.18h.885c.45 0 .93.293.93.836a.678.678 0 0 1-.252.543.909.909 0 0 1 .562.824zm-4.085-.272c-.367-.893-.35-.84-.43-1.076-.056.16-.043.123-.435 1.076h.865zm-.317-1.975 1.377 3.224h-.523l-.352-.824-.003-.007H20.86l-.35.83h-.513l1.377-3.223h.216zm-3.507 3.224h.51V20.94h1.06v-.442h-2.63v.442h1.06v2.738zm-2.215-3.18h-.51v3.18h.51v-3.18zm-3.135 2.78c-.518 0-.815-.279-.815-.766V20.5h-.51v2.053c0 .706.533 1.18 1.325 1.18.801 0 1.32-.463 1.32-1.18V20.5h-.5v2.014c0 .487-.299.767-.82.767zm-2.879-1.186a1.197 1.197 0 0 0-1.214-1.2 1.203 1.203 0 1 0-.023 2.406h.023a1.199 1.199 0 0 0 1.214-1.206zm.647 1.721.16-.062-.377.51-.016.004a.738.738 0 0 1-.199.026c-.32 0-.634-.084-.912-.242a10.525 10.525 0 0 0-.64-.3l-.053-.023-.004-.001c-.77-.07-1.55-.656-1.55-1.642 0-1.029.88-1.643 1.73-1.643s1.729.614 1.729 1.643a1.543 1.543 0 0 1-1.1 1.506l-.036.01.035.013c.067.024.138.054.218.092.413.192.716.225 1.015.11zm4.749-8.84c.2-.314.376-.643.525-.984.1-.22.221-.431.362-.629a.735.735 0 0 1-.653-.47c-.237.09-.593.24-.71.531a60.2 60.2 0 0 0-.754 2.066v-.002a4.802 4.802 0 1 1 8.678-1.686c-1.668-2.373-3.722-1.215-3.92-1.11a.372.372 0 0 0-.205.298s2.233-1.673 4.094.952c0 0-.066.252-.114.39-2.398-3.242-5.736-.491-4.016 3.241a4.917 4.917 0 0 1-.787.023h-.01c-.487-1.136-.677-2.91.488-4.315-.774-.011-1.238.322-1.443.536l-.004.003a.03.03 0 0 1-.041 0 .03.03 0 0 1-.004-.036l.002-.003c.271-.431.572-.816 1.132-.798-.063-.063-.324-.31-.861-.09-.285.117-.562.509-.82.971-.242.436-.416.899-.58 1.191-.17.302-.281.438-.594.53-.086.023-.275.008-.235.223a.343.343 0 0 0 .337.27c.086.005.091.039.126.168.03.117.11.14.135.11.243-.373.466-.76.665-1.16l.003-.006a.012.012 0 0 1 .023.009l-.002.007a12.268 12.268 0 0 0-.399 1.793 4.825 4.825 0 0 1-1.405-1.182c.2-.447.307-.742.316-.896.01-.199.002-.312-.001-.548a.086.086 0 0 1 .114.056c.066.155.097.498.28.723.15.017.278-.177.278-.177zm4.035-4.167a.279.279 0 0 0-.077-.174c-.06-.074-.262-.31-.3-.355-.032-.037.054-.099.022-.27a1.708 1.708 0 0 0-.217-.485.48.48 0 0 0-.143-.402.592.592 0 0 0-.5-.233c-.128-.09-.313-.167-.754-.167a1.732 1.732 0 0 0-.625.108.93.93 0 0 0-.57.612c-.3.148-.438.426-.402.796a.586.586 0 0 0-.343.515c.014.374.35.48.397.4a.428.428 0 0 1-.266-.394.459.459 0 0 1 .32-.426c-.046-.196.072-.327.145-.322a.38.38 0 0 0 .15.42.51.51 0 0 0 .224.052c.044-.076.092-.15.145-.222 0 0-.365.016-.236-.307a.493.493 0 0 1 .089-.138.313.313 0 0 0 .469.071c.232-.238.2-.17.31-.17a.064.064 0 0 0 .068-.084c-.065-.274.123-.335.123-.335-.008-.004-.189-.12-.324.207a.103.103 0 0 1-.198-.04.412.412 0 0 1 .15-.31c-.488-.06-.655.48-.667.522-.104-.289.151-.605.463-.725.185-.068.38-.102.577-.1.398 0 .566.063.683.146a.25.25 0 0 0 .132.028.399.399 0 0 1 .333.171c.068.097.166.19.111.332-.004.012.011.034.02.05.091.141.16.294.207.455a.252.252 0 0 1-.012.136.172.172 0 0 0 .018.194c.1.118.202.234.3.353a.167.167 0 0 1 .047.09.213.213 0 0 1-.162.198c-.048.011-.064.036-.056.079a.262.262 0 0 0 .029.08c.048.083.049.108-.02.173-.036.035-.036.057 0 .091.037.034.06.09.024.124-.076.071-.054.137-.017.213a.16.16 0 0 1-.06.221.528.528 0 0 1-.35.086 4.646 4.646 0 0 1-.459-.038c.003.208.049.413.134.602a1.217 1.217 0 0 1-.011-.466s.212.022.36.022a.703.703 0 0 0 .404-.11.296.296 0 0 0 .1-.374.242.242 0 0 1-.02-.05.2.2 0 0 0 .069-.15.229.229 0 0 0-.04-.123.22.22 0 0 0 .006-.274.344.344 0 0 0 .2-.303zm-.816.148c.024-.243-.159-.306-.298-.396-.14-.09-.04-.199.09-.319.133-.121.046-.172-.089-.297a.143.143 0 0 0-.107-.053c-.147.018-.29.064-.42.135a.332.332 0 0 1-.136.035.125.125 0 0 1-.112-.06 1 1 0 0 1 .398-.247c.152-.066.316-.105.482-.114a.262.262 0 0 0-.229-.097c-.377 0-.944.345-1.472 1.138.06.011.12-.016.15-.069.007-.01.27-.426.741-.426a.659.659 0 0 1 .313.073c.048.04-.083.085-.205.178a.294.294 0 0 0-.095.303.384.384 0 0 1-.009.134.073.073 0 0 1-.068.046c-.064 0-.074-.067-.076-.074a.132.132 0 0 0-.17-.104c-.013.005-.119.058.006.264.128.21.283.23.329.21.03-.014.028-.045.037-.085.007-.035.027-.037.032-.037a.74.74 0 0 1 .043.136c.114.464.778.466.778.466-.147-.363.063-.497.087-.74zm.37-.07a.174.174 0 0 0 .088-.034c.043-.028.052-.058.02-.096l-.174-.198c-.019.008-.03.042-.025.079.01.074.026.166.03.188.007.037.026.061.06.061zm-2.755.301a.527.527 0 0 1-.242-.008.484.484 0 0 0 .842.414.166.166 0 0 0-.081-.02c-.1 0-.115.061-.241.061-.155 0-.337-.112-.278-.447zm.243-.123a.31.31 0 0 0 .57-.012c-.084-.012-.135.04-.24.04a.223.223 0 0 1-.214-.155.777.777 0 0 1-.116.127zm-.439-.532c-.237.13-.168.377.03.382h.005c.1-.014.19-.07.248-.152a.382.382 0 0 1-.283-.23zm1.442.968a.308.308 0 0 0-.222-.136.084.084 0 0 0-.083.061s-.107.629-.348.905c-.191.22-.933.47-1.042.507.046.13.186.364.592.406.408-.502.816-.61 1.092-.61.094 0 .187.013.277.039-.255-.65-.058-.895-.266-1.172zm1.636 5.998c.32-.053.63-.148.924-.282-1.353-2.335.698-4.482 2.365-2.18.095-.185.178-.375.249-.57-2.507-3.3-5.15-.096-3.538 3.032zm-1.464-3.729a.026.026 0 0 0-.035-.035h-.001c-.235.157-.907.794-1.242 3.101-.018.13-.036.266-.053.407.162.066.327.124.495.172.012-2.271.518-3.144.836-3.644v-.001zm4.688 1.38c-1.553-2.154-3.38-.138-1.96 1.909a4.739 4.739 0 0 0 1.96-1.909zm2.896 10.764c.19 0 .377.049.544.141v.332a1.063 1.063 0 0 0-.533-.181.386.386 0 0 0-.22.055.169.169 0 0 0-.08.145c0 .073.05.14.148.202.028.019.134.07.32.155.132.055.25.14.343.25.07.094.108.21.105.328a.502.502 0 0 1-.18.402.69.69 0 0 1-.463.153 1.1 1.1 0 0 1-.319-.04 1.387 1.387 0 0 1-.3-.141v-.368a.938.938 0 0 0 .584.257.376.376 0 0 0 .221-.06.184.184 0 0 0 .085-.157.25.25 0 0 0-.147-.219 7.249 7.249 0 0 0-.314-.159.922.922 0 0 1-.34-.242.493.493 0 0 1-.113-.32.47.47 0 0 1 .18-.389.745.745 0 0 1 .48-.144zm-1.783 0a1.7 1.7 0 0 1 .708.16v.34a1.517 1.517 0 0 0-.691-.178.812.812 0 0 0-.377.085.607.607 0 0 0-.255.242.7.7 0 0 0-.09.354.616.616 0 0 0 .197.476c.143.125.33.19.52.18a.917.917 0 0 0 .361-.073v-.32h-.319v-.292h.693v.796c-.105.071-.22.124-.342.156a1.536 1.536 0 0 1-.416.056 1.206 1.206 0 0 1-.554-.126.942.942 0 0 1-.526-.859.953.953 0 0 1 .532-.87c.173-.086.365-.13.56-.127zm-2.966.025 1.148 1.348v-1.348h.365v1.932h-.32l-1.156-1.37v1.37h-.365v-1.932h.328zm-.853 1.932h-.373v-1.932h.373v1.932zm-1.922-.292a.674.674 0 0 0 .497-.186.734.734 0 0 0-.001-.981.703.703 0 0 0-.509-.181h-.384v1.348h.397zm.039-1.64c.186-.004.37.039.536.123.153.078.28.198.365.346a.975.975 0 0 1 .13.5.963.963 0 0 1-.13.503.879.879 0 0 1-.372.34 1.22 1.22 0 0 1-.552.12h-.786v-1.932h.809zm-2.196 0v1.64h.938v.292h-1.311v-1.932h.373zm-2.591.967c-.002.12.028.24.087.345.056.101.14.184.242.238.109.058.23.087.352.085a.672.672 0 0 0 .49-.187.642.642 0 0 0 .19-.481.697.697 0 0 0-.086-.347.597.597 0 0 0-.243-.238.78.78 0 0 0-.707 0 .59.59 0 0 0-.241.238.704.704 0 0 0-.085.347zm.681-.992c.188-.003.373.04.54.124a.976.976 0 0 1 .005 1.73c-.345.171-.75.17-1.093-.002a.956.956 0 0 1-.52-.86c0-.176.048-.349.138-.5a.947.947 0 0 1 .377-.363c.17-.088.361-.133.553-.129zm-2.834.025v.813h1.002v-.813h.374v1.932h-.374v-.816h-1.002v.816h-.374v-1.932h.373zm19.66-3.634h1.355v-.443h-1.355v-.919h1.57V20.5h-2.08v3.18H32v-.442h-1.68v-.934zm-25.812.934h1.643v.442H4v-3.18h2.044v.442H4.509v.92h1.32v.442h-1.32v.934z" fill="#002677"/></svg>