<svg width="36" height="36" fill="none" xmlns="http://www.w3.org/2000/svg"><path d="M18 0c2.837 0 5.52.656 7.907 1.825C31.884 4.753 36 10.895 36 18c0 9.942-8.058 18-18 18-9.94 0-18-8.057-18-18C0 8.06 8.06 0 18 0z" fill="#F2F4F7"/><path d="M22.887 13.61v3.105l-.72.247v-3.6l-2.161-.743v5.086l-.72.248V12.37l-1.08-.37-1.08.371v5.582l-.721-.248v-5.086l-2.16.743v3.6l-.72-.247V13.61l-.72.247v3.361l2.16.743v-4.095l.72-.248v4.59l2.16.743v-6.076l.36-.124.36.124v6.076l2.16-.743v-4.59l.721.248v4.095l2.16-.743v-3.36l-.72-.248z" fill="#FF2A0C"/><path d="M5.388 23.531h1.281v-.343H5.388v-.74h1.91v-.34H5v2.61h2.366v-.337H5.388v-.85zm10.112.147c0 .466-.313.775-.78.775-.451 0-.734-.313-.734-.775v-1.564h-.384v1.58c0 .713.523 1.101 1.116 1.101.877 0 1.162-.59 1.162-1.1v-1.581h-.38v1.564zm2.896-1.571h-.38v2.612h.38v-2.612zm4.544 2.046-1.881-2.046h-.377v2.612h.38v-2.064l1.886 2.064h.372v-2.612h-.38v2.046zm3.07-2.046h-.382v2.612h.381v-2.612zm3.7 1.194 1.104-1.197h-.47l-.877.939-.852-.94h-.497l1.065 1.199-1.331 1.416h.486l1.092-1.162 1.042 1.162H31L29.71 23.3zM10.26 22c-.79.006-1.4.595-1.4 1.416l.001.01c0 .817.624 1.393 1.408 1.387a1.47 1.47 0 0 0 .618-.144l.217.245h.442l-.378-.428c.31-.232.505-.615.505-1.089v-.01c0-.812-.626-1.392-1.413-1.387zm1.017 1.41c0 .37-.121.61-.342.815l-.207-.235h-.441l.362.408a1.012 1.012 0 0 1-.372.077c-.568.004-1.02-.447-1.02-1.061v-.01c0-.625.424-1.066.995-1.07.57-.003 1.025.445 1.025 1.066v.01z" fill="#000"/></svg>