<svg width="36" height="36" fill="none" xmlns="http://www.w3.org/2000/svg"><path d="M18 0c2.837 0 5.52.656 7.907 1.825C31.884 4.753 36 10.895 36 18c0 9.942-8.058 18-18 18-9.94 0-18-8.057-18-18C0 8.06 8.06 0 18 0z" fill="#F2F4F7"/><path d="M4.002 17.242h2.345v.901H4.002v-.9z" fill="#4897A2"/><path opacity=".7" d="M6.586 17.242h1.33v.902h-1.33v-.902z" fill="#54ABB7"/><path d="M4.002 16.074c0-.04.025-.074.077-.074h2.268v.901H4.002v-.827z" fill="#4897A2"/><path opacity=".7" d="M6.586 16h1.23c.104 0 .1.057.1.152v.75h-1.33V16zm.664 3.39c.386 0 .698-.21.698-.468 0-.257-.312-.467-.697-.467-.385 0-.697.21-.697.467 0 .258.312.468.697.468z" fill="#54ABB7"/><path d="M6.345 19.374H4.106c-.103 0-.106-.027-.106-.122v-.78h2.345v.902z" fill="#4897A2"/><path d="M9.342 18.867v-2.4h1.478v.229H9.597v.846h1.043v.23H9.597v.866h1.223v.229H9.342zm2.765.742v-.938c-.134.172-.284.216-.465.216a.57.57 0 0 1-.401-.145c-.167-.168-.2-.445-.2-.704 0-.26.033-.536.2-.705a.57.57 0 0 1 .401-.145c.18 0 .334.04.468.216v-.196h.237v2.4h-.24zm-.411-2.205c-.358 0-.415.31-.415.634 0 .323.057.634.415.634.357 0 .41-.31.41-.634s-.053-.634-.41-.634zm2.074 1.463v-.185a.6.6 0 0 1-.465.205.581.581 0 0 1-.425-.155c-.117-.114-.167-.273-.167-.465v-1.059h.24v1.022c0 .293.155.442.402.442.247 0 .41-.152.41-.442v-1.022h.242v1.659h-.238zm.636-2.404h.271v.273h-.27v-.273zm.014.745h.24v1.659h-.24v-1.659zm1.14 1.659c-.28 0-.42-.199-.42-.445v-1.018h-.208v-.185h.208v-.52h.24v.52h.283l.068.185h-.35v1.011c0 .152.07.243.223.243h.127v.209h-.17zm.953.411a.489.489 0 0 1-.117.195.45.45 0 0 1-.32.115h-.105v-.216h.074c.167 0 .217-.054.27-.206l.118-.323-.592-1.625h.26l.452 1.331.448-1.331h.26l-.748 2.06zm2.669-.411-.542-1.066h-.572v1.066h-.254v-2.4h.913c.415 0 .705.252.705.667 0 .35-.21.58-.518.644l.565 1.089h-.297zm-.479-2.171h-.634v.88h.634c.278 0 .475-.145.475-.438 0-.294-.197-.442-.475-.442zm1.123 1.406c0 .364.17.573.485.573.19 0 .3-.058.43-.19l.165.146c-.168.168-.321.256-.602.256-.434 0-.719-.263-.719-.85 0-.535.258-.849.675-.849.425 0 .676.31.676.802v.112h-1.11zm.819-.459a.409.409 0 0 0-.384-.25.409.409 0 0 0-.385.25.703.703 0 0 0-.05.276h.87a.703.703 0 0 0-.051-.276zm1.132 1.244c-.278 0-.495-.064-.676-.24l.16-.16c.131.137.308.191.512.191.27 0 .438-.098.438-.293 0-.145-.083-.226-.274-.243l-.27-.023c-.322-.027-.492-.172-.492-.445 0-.304.254-.486.605-.486.234 0 .444.057.592.179l-.157.158a.698.698 0 0 0-.438-.131c-.241 0-.368.104-.368.273 0 .141.08.226.287.243l.264.023c.288.027.485.138.485.448 0 .32-.27.506-.668.506zm.947-2.424h.27v.273h-.27v-.273zm.014.745h.24v1.659h-.24v-1.659zm1.626 1.659v-.199c-.134.175-.288.219-.468.219a.57.57 0 0 1-.402-.145c-.167-.169-.2-.445-.2-.704 0-.26.033-.536.2-.705a.569.569 0 0 1 .402-.145c.18 0 .33.04.464.212v-.933h.24v2.4h-.236zm-.415-1.463c-.358 0-.414.31-.414.634 0 .323.056.633.414.633s.411-.31.411-.633c0-.324-.053-.634-.41-.634zm1.223.698c0 .364.17.573.484.573.19 0 .301-.058.431-.19l.164.146c-.167.168-.32.256-.601.256-.435 0-.719-.263-.719-.85 0-.535.257-.849.675-.849.425 0 .675.31.675.802v.112h-1.11zm.819-.459a.409.409 0 0 0-.385-.25.409.409 0 0 0-.384.25.701.701 0 0 0-.05.276h.869a.701.701 0 0 0-.05-.276zm1.663 1.224v-1.021c0-.294-.157-.442-.404-.442-.248 0-.408.152-.408.442v1.021h-.24v-1.659h.24v.182a.59.59 0 0 1 .461-.202c.177 0 .32.054.421.155.117.115.17.27.17.462v1.062h-.24zm1.095 0c-.28 0-.421-.199-.421-.445v-1.018h-.207v-.185h.207v-.52h.24v.52h.351v.185h-.35v1.011c0 .152.07.243.223.243h.127v.209h-.17zm.443-2.404h.27v.273h-.27v-.273zm.013.745h.241v1.659h-.24v-1.659zm1.576 1.659v-.158c-.133.134-.254.178-.474.178-.228 0-.361-.044-.465-.152a.48.48 0 0 1-.124-.337c0-.29.2-.478.569-.478h.494v-.159c0-.242-.12-.364-.42-.364-.211 0-.318.05-.415.189l-.164-.152c.147-.192.314-.246.582-.246.44 0 .658.192.658.553v1.126h-.24zm0-.765h-.461c-.247 0-.368.101-.368.293 0 .192.117.283.378.283.14 0 .264-.01.368-.111.057-.054.083-.148.083-.287v-.178zm1.045.765c-.287 0-.418-.189-.418-.442v-1.958h.241v1.948c0 .162.054.243.22.243H32v.209h-.174z" fill="#808990"/></svg>