<svg height="36" viewBox="0 0 36 36" width="36" xmlns="http://www.w3.org/2000/svg"><mask id="a" fill="#fff"><path d="M0 0h28v8.16H0z" fill-rule="evenodd"/></mask><g fill="none" fill-rule="evenodd"><path d="M18 0c2.837 0 5.52.656 7.907 1.825C31.884 4.753 36 10.895 36 18c0 9.942-8.058 18-18 18-9.94 0-18-8.057-18-18C0 8.06 8.06 0 18 0z" fill="#f2f4f7" fill-rule="nonzero"/><path d="M11.73 4.08c0-1.504 1.224-2.754 2.754-2.754s2.728 1.25 2.728 2.754v.025h1.327V4.08A4.092 4.092 0 0 0 14.459 0c-2.245 0-4.081 1.836-4.081 4.08s1.811 4.08 4.055 4.08V6.834A2.747 2.747 0 0 1 11.73 4.08zm8.772-2.55H28V.204h-7.498zm-17.749 0h4.718V.204H2.753zm0 3.188h4.718V3.392H2.753zm0 3.212h4.718V6.604H2.753zM0 7.93h1.326V.205H0zm23.588 0h1.326V2.959h-1.326zm-6.11.14-3.264-3.263.937-.938 3.265 3.264z" fill="#ff6c2c" mask="url(#a)" transform="translate(4 14)"/></g></svg>