<svg height="36" viewBox="0 0 36 36" width="36" xmlns="http://www.w3.org/2000/svg"><mask id="a" fill="#fff"><path d="M0 0h2.525v2.524H0z" fill-rule="evenodd"/></mask><mask id="b" fill="#fff"><path d="M0 0h2.525v2.525H0z" fill-rule="evenodd"/></mask><mask id="c" fill="#fff"><path d="M0 5.513h28V0H0z" fill-rule="evenodd"/></mask><g fill="none" fill-rule="evenodd"><path d="M18 0c2.837 0 5.52.656 7.907 1.825C31.884 4.753 36 10.895 36 18c0 9.942-8.058 18-18 18-9.94 0-18-8.057-18-18C0 8.06 8.06 0 18 0z" fill="#f2f4f7" fill-rule="nonzero"/><path d="M5.671 18.333a.603.603 0 1 1 1.207-.001.603.603 0 0 1-1.207.001" fill="#959ecc"/><path d="M1.318 1.921c0-.659-.055-.715-.714-.715A.602.602 0 1 1 .604 0c.334 0 .603.269.603.603 0 .659.056.714.715.714.334 0 .603.27.603.604a.603.603 0 1 1-1.207 0" fill="#084897" mask="url(#a)" transform="translate(4 17.989)"/><path d="M8.13 18.558c0-.66-.055-.715-.714-.715a.601.601 0 0 1-.603-.604.602.602 0 1 1 1.206 0c0 .66.056.715.715.715a.603.603 0 1 1-.604.604" fill="#576eaf"/><path d="M1.318 1.921c0-.659-.056-.715-.714-.715A.603.603 0 1 1 .604 0c.334 0 .603.269.603.604 0 .659.055.714.715.714a.603.603 0 1 1 0 1.206.603.603 0 0 1-.604-.603" fill="#f5822b" mask="url(#b)" transform="translate(7.13 15)"/><path d="M6.895 19.785a.603.603 0 1 1 1.207 0 .603.603 0 1 1-1.207 0" fill="#f5822b"/><path d="M4.258 16.983a.603.603 0 1 1 1.207 0 .603.603 0 1 1-1.207 0" fill="#f8a464"/><g fill="#084897"><path d="M5.402 15.753a.603.603 0 1 1 1.206-.002.603.603 0 0 1-1.206.002m8.1 3.786a2.028 2.028 0 0 1-.847.165c-.805 0-1.451-.476-1.451-1.646 0-.805.323-1.39 1.237-1.39.939 0 1.116.628 1.116 1.188h-1.738c0 .574.256 1.525 1.128 1.525.189 0 .372-.036.555-.122zm-.55-1.963c0-.225-.078-.652-.535-.652-.476 0-.567.488-.58.652zm3.165 1.372h-.013c-.097.213-.37.756-1.01.756-.514 0-.733-.427-.733-.848v-2.121h.616v1.817c0 .365.055.695.366.695.61 0 .78-.951.78-1.311v-1.201h.616v2.9h-.622zm1.646-2.213h.616v.738h.012c.195-.39.408-.762.94-.805v.64c-.593.018-.952.219-.952 1v1.329h-.616zm1.947 1.451c0-.981.426-1.518 1.28-1.518.853 0 1.286.537 1.286 1.518 0 .982-.433 1.518-1.287 1.518-.853 0-1.28-.536-1.28-1.518m1.28 1.262c.55 0 .616-.732.616-1.262s-.067-1.262-.616-1.262c-.542 0-.609.732-.609 1.262s.067 1.262.61 1.262m2.255-2.397h-.506v-.317h.506v-.274c0-.537.128-1.097 1.104-1.097.25 0 .47.036.615.066v.421c-.128-.055-.292-.134-.542-.134-.5 0-.56.36-.56.67v.348h.822v.317h-.823v2.585h-.616z"/><path d="M21.385 1.04h.665V.43h-.665zm.024 3.596h.616V1.734h-.616zm1.616-2.902h.616v.69h.012c.098-.214.378-.757 1.018-.757.512 0 .732.427.732.848v2.121h-.616V2.82c0-.365-.055-.695-.366-.695-.609 0-.78.951-.78 1.311v1.201h-.616zm4.792.574c-.208-.14-.439-.287-.731-.287-.196 0-.415.086-.415.305 0 .524 1.329.573 1.329 1.5 0 .622-.488.878-1.103.878-.372 0-.628-.08-.775-.128v-.567c.177.122.464.304.805.304.353 0 .5-.182.5-.365 0-.512-1.311-.616-1.311-1.445 0-.44.293-.835 1.018-.835.311 0 .579.085.683.116z" mask="url(#c)" transform="translate(4 15)"/></g></g></svg>