<svg height="36" viewBox="0 0 36 36" width="36" xmlns="http://www.w3.org/2000/svg"><mask id="a" fill="#fff"><path d="M0 0h4.557v2.547H0z" fill-rule="evenodd"/></mask><mask id="b" fill="#fff"><path d="M0 5.945h28V0H0z" fill-rule="evenodd"/></mask><g fill="none" fill-rule="evenodd"><path d="M18 0c2.837 0 5.52.656 7.907 1.825C31.884 4.753 36 10.895 36 18c0 9.942-8.058 18-18 18-9.94 0-18-8.057-18-18C0 8.06 8.06 0 18 0z" fill="#f2f4f7" fill-rule="nonzero"/><g fill="#000"><path d="M4.211 1.165A.603.603 0 0 0 4.557.6.583.583 0 0 0 3.96.002a.628.628 0 0 0-.252.032L.377 1.354A.644.644 0 0 0 0 1.918a.623.623 0 0 0 .628.628.628.628 0 0 0 .252-.062z" mask="url(#a)" transform="translate(27.443 16.7)"/><path d="M4 16.985v2.985h2.2v-.692H4.88v-.47h1.257v-.692H4.88v-.44H6.2v-.69z"/><path d="M5.688 4.97h.848V1.985h-.848zm-.817-1.508a.88.88 0 0 0 .314-.66.846.846 0 0 0-.817-.817H2.766V4.97h.88V2.676h.44a.267.267 0 0 1 .282.251.303.303 0 0 1-.283.284h-.44v.66h.44l.41 1.1h.847l-.47-1.289c-.009-.026-.022-.042-.033-.063-.038-.028-.064-.104.032-.157m12.821-1.477V4.97h.88V3.367l.942 1.603h.943V1.985h-.848v1.571l-.912-1.57zm-1.759.565c.339.016.608.42.597.913.01.504-.258.908-.597.91-.326-.002-.595-.406-.597-.91.002-.493.27-.897.597-.912v-.66c-.8.003-1.452.708-1.446 1.572-.006.875.647 1.58 1.446 1.57.812.01 1.464-.695 1.477-1.57-.013-.864-.665-1.57-1.477-1.572zm-9.083.88c.006 1.397 1.299 1.593 1.54 1.604.217-.011.56-.027 1.006-.157v-.692c-.805.347-1.64.15-1.634-.754-.006-.896.878-1.157 1.57-.66v-.723c-.381-.183-.741-.151-.973-.157-.227.006-1.503.153-1.508 1.54m4.839-.754V2.08c-.264-.126-.678-.134-.911-.126-.257-.008-.896.09-1.037.566-.12.474.027.98.534 1.13.507.179.835.277.723.567-.085.266-.756.184-1.163.03l-.094.63c.534.13 1.074.163 1.477.062a.964.964 0 0 0 .69-.785c.053-.358-.062-.735-.44-.88-.407-.15-.506-.15-.784-.283-.278-.128-.18-.472.25-.471.24-.017.536.065.755.157m15.964-1.509A.612.612 0 0 0 28 .603a.578.578 0 0 0-.597-.598.491.491 0 0 0-.252.032l-3.331 1.32a.631.631 0 0 0-.377.565.63.63 0 0 0 .628.629.84.84 0 0 0 .252-.063zM14.141 2.677V2.08c-.277-.126-.69-.134-.943-.126-.238-.008-.876.09-1.005.566-.133.474.014.98.534 1.13.495.179.822.277.723.567-.097.266-.768.184-1.163.03l-.094.63c.522.13 1.062.163 1.477.062.403-.13.632-.456.691-.785.04-.358-.075-.735-.47-.88-.39-.15-.489-.15-.755-.283-.29-.128-.192-.472.251-.471.228-.017.523.065.754.157m13.513 1.885A.594.594 0 0 0 28 3.997a.59.59 0 0 0-.597-.598.413.413 0 0 0-.252.063l-3.331 1.32a.588.588 0 0 0-.377.566.612.612 0 0 0 .88.534z" mask="url(#b)" transform="translate(4 15)"/></g></g></svg>