<svg width="36" height="36" fill="none" xmlns="http://www.w3.org/2000/svg"><path d="M18 0c2.837 0 5.52.656 7.907 1.825C31.884 4.753 36 10.895 36 18c0 9.942-8.058 18-18 18-9.94 0-18-8.057-18-18C0 8.06 8.06 0 18 0z" fill="#F2F4F7"/><g fill="#010101"><path fill-rule="evenodd" clip-rule="evenodd" d="m10.799 13.043.009.009.005.009.01.018v.014l.008.02-.009.05-.014.066-.027.093-.02.136-.003.07-.01.107-.01.122-.009.107-.009.079-.005.023-.01.028-.008.015-.01.009-.022.009-.029-.01-.02-.008-.003-.024-.01-.028v-.023l-.01-.075-.009-.094-.032-.102-.032-.051-.043-.052-.07-.052-.102-.032-.136-.032-.196-.029-.065-.009h-.112l-.145-.005h-.485l-.136-.01h-.163l-.014.01-.018.005-.01.01-.01.028v2.071l.01.028.01.015.009.009h.733l.186-.01h.304l.084-.008.172-.014.127-.029.084-.056.036-.037.023-.023.024-.02.019-.013h.032l.01.01.01.003.009.02v.023l-.01.046-.01.085-.023.116-.018.164-.009.097-.014.122v.107l-.01.084v.103l-.01.05-.018.035-.032.009h-.02l-.014-.01-.018-.014v-.02l-.009-.022v-.07l-.005-.084-.018-.084-.029-.052-.032-.06-.052-.051-.064-.043-.113-.032-.136-.018-.11-.005-.146-.01-.168-.009-.186-.01h-.182l-.16-.009h-.228l-.018.009-.01.02-.01.009v1.917l.01.154.028.127.043.102.06.075.093.06.117.042.154.028.196.015H9.9l.158-.01.173-.005.168-.028.136-.041.12-.052.084-.074.07-.103.048-.136.046-.158.004-.043.02-.037.009-.013.018-.02h.043l.003.02.01.004.01.02v.119l-.01.09-.014.112-.019.135-.018.127-.023.11-.02.085-.032.094-.052.06-.073.023-.113.01-.163.01-.434-.01h-.364l-.313-.01-.266-.01-.21-.008-.177-.005h-.14l-.098-.01-.042.01H8.34l-.117.005h-.136l-.144.009h-.308l-.042-.01-.023-.004-.009-.018-.01-.024v-.009l.01-.02.018-.008.014-.005h.028l.117-.01.122-.027.083-.023.06-.071.043-.084.032-.102.02-.116.013-.178.01-.22.01-.256.008-.285v-3.084l-.009-.117v-.187l-.009-.075v-.07l-.02-.134-.032-.113-.066-.075-.093-.06-.14-.042-.083-.005-.103-.01H7.49l-.013-.008h-.02l-.017-.01-.006-.019v-.032l.015-.014.028-.018h.032l.052-.01.163.01h.336l.154.009h.126l.098.009h1.535l.164-.01h.195l.145-.008.116-.01.084-.014.038-.01.023-.018.023-.01.038-.008zM13.702 13l.223.01.206.018.168.015.163.036.098.014.08.01.051.01h.084l.023.008.02.01.009.014v.061l-.01.064-.01.113-.009.145-.004.186v.229l-.01.103-.018.047-.032.018h-.02l-.014-.01-.009-.014-.009-.018-.01-.023v-.028l-.019-.084-.023-.104-.023-.102-.047-.075-.014-.041-.041-.043-.06-.06-.076-.056-.102-.052-.13-.06-.16-.042-.196-.029-.228-.004-.206.004-.187.047-.168.075-.144.093-.121.127-.093.144-.061.168-.014.187.004.135.028.126.052.121.075.117.102.127.125.13.165.14.205.163.228.177.229.159.266.197.229.195.186.168.154.177.116.164.095.158.06.164.042.168.023.158.01.182-.01.117-.014.145-.041.159-.07.162-.084.169-.127.159-.154.163-.186.144-.224.117-.239.084-.242.06-.257.033-.265.01-.28-.01-.281-.032-.27-.061-.257-.093-.066-.042-.032-.042-.02-.075v-.331l.011-.186.013-.16.01-.125.01-.094v-.047l.008-.032.015-.023.018-.01.02-.009h.022l.018.01.01.018.005.023v.153l.028.15.052.173.083.14.112.122.117.102.144.075.165.061.166.041.179.024.18.009.25-.018.209-.052.186-.075.164-.107.125-.12.094-.145.075-.141.046-.163.005-.154-.005-.186-.037-.16-.065-.159-.093-.153-.13-.154-.16-.149-.196-.173-.238-.186-.364-.272-.266-.21-.22-.196-.172-.186-.145-.177-.098-.168-.079-.163-.043-.168-.023-.16-.009-.173.014-.227.061-.211.084-.186.13-.178.159-.144.187-.136.224-.102.243-.066.275-.05.294-.02zm3.892 0 .224.01.196.018.177.015.163.036.099.014.07.01.06.01h.084l.023.008.02.01.009.014v.061l-.01.064-.01.113-.009.145-.003.186v.229l-.01.103-.019.047-.032.018h-.02l-.014-.01-.009-.014-.009-.018-.009-.023v-.028l-.02-.084-.023-.104-.032-.102-.037-.075-.015-.041-.041-.043-.06-.06-.076-.056-.102-.052-.13-.06-.16-.042-.196-.029-.228-.004-.205.004-.188.047-.168.075-.143.093-.131.127-.084.144-.06.168-.015.187.004.135.028.126.052.121.075.117.102.127.125.13.165.14.195.163.238.177.229.159.261.197.224.195.187.168.154.177.126.164.084.158.07.164.042.168.023.158.01.182-.01.117-.014.145-.041.159-.07.162-.084.169-.127.159-.154.163-.186.144-.225.117-.238.084-.242.06-.257.033-.265.01-.28-.01-.281-.032-.27-.061-.256-.093-.067-.042-.032-.042-.02-.075v-.331l.011-.186.01-.16.013-.125.01-.094v-.047l.008-.032.015-.023.018-.01.02-.009h.023l.018.01.009.018.005.023v.153l.028.15.05.173.085.14.103.122.126.102.145.075.162.061.168.041.179.024.181.009.243-.018.215-.052.186-.075.164-.107.126-.12.093-.145.075-.141.046-.163.005-.154-.005-.186-.037-.16-.065-.159-.093-.153-.132-.154-.158-.149-.196-.173-.238-.186-.363-.272-.267-.21-.22-.196-.172-.186-.145-.177-.098-.168-.079-.163-.042-.168-.024-.16-.009-.173.015-.227.06-.211.084-.186.131-.178.158-.144.187-.136.224-.102.243-.066.276-.05.293-.02zm5.278.043.018.009.01.009.01.018v.034l-.01.05-.019.066-.018.093-.023.136v.07l-.01.107-.01.122-.003.107-.01.079-.01.023-.009.028-.009.015-.014.009-.02.009-.027-.01-.014-.008-.02-.024v-.028l-.008-.023v-.075l-.014-.094-.028-.102-.032-.051-.043-.052-.07-.052-.102-.032-.14-.032-.192-.029-.074-.009h-.112l-.145-.005h-.481l-.134-.01h-.165l-.019.01-.014.005-.01.01v.028l-.008.023v2.025l.009.023v.028l.009.015.014.009h.732l.188-.01h.299l.093-.008.168-.014.122-.029.093-.056.023-.037.033-.023.02-.02.022-.013h.038l.009.01.004.003.01.02v.023l-.01.046-.013.085-.02.116-.023.164-.009.097-.009.122-.01.107v.084l-.01.06v.043l-.003.05-.01.035-.037.009h-.023l-.02-.01-.005-.014-.009-.02v-.092l-.009-.084-.028-.084-.013-.052-.034-.06-.05-.051-.08-.043-.102-.032-.136-.018-.107-.005-.145-.01-.181-.009-.179-.01h-.177l-.163-.009h-.229l-.018.009-.014.02v.009l-.01.014v1.903l.019.154.023.127.043.102.06.075.083.06.127.042.154.028.197.015h.382l.163-.01.168-.005.163-.028.145-.041.107-.052.093-.074.07-.103.052-.136.041-.158.01-.043.01-.037.014-.013.018-.02h.032l.02.02.009.004v.02l.005.026v.093l-.014.09-.01.112-.022.135-.02.127-.018.11-.014.085-.047.094-.046.06-.08.023-.112.01-.159.01-.382-.01h-.34l-.29-.01H21.3l-.21-.01-.178-.008-.145-.005h-.121l-.094-.01-.04.01h-.085l-.122.005h-.144l-.145.009h-.302l-.034-.01-.027-.004-.015-.018v-.033l.004-.02.01-.008.019-.005h.023l.13-.01.117-.027.084-.023.06-.071.043-.084.027-.102.024-.116.02-.178.008-.22.005-.256v-3.589l-.005-.084v-.075l-.009-.07-.02-.134-.032-.113-.06-.075-.093-.06-.145-.042-.084-.005-.102-.01h-.084l-.02-.008h-.018l-.014-.01-.01-.019-.008-.014.009-.018.018-.014.023-.018h.034l.05-.01.164.01h.34l.145.009h.126l.094.009h1.54l.158-.01h.206l.144-.008.117-.01.089-.014.023-.01.032-.018.029-.01.023-.008zm1.073.059.103.01h.28l.149.01h.145l.13.008h.201l.112-.009h.136l.154-.009h.154l.145-.01.075.01.032.01.028.014.01.018-.01.023-.01.01-.018.019h-.014l-.029.008h-.144l-.074.015-.034.018-.027.02-.014.014-.01.027-.008.023v.028l.009.075.023.084.041.084.258.425.26.429.28.443.299.458.071-.094.084-.111.102-.145.113-.15.107-.172.12-.168.118-.168.12-.168.104-.154.093-.145.075-.111.06-.09.024-.051.05-.103.029-.074.005-.088-.014-.048-.052-.05-.07-.038-.093-.014h-.154l-.023-.01h-.02l-.014-.019-.009-.009-.009-.023.018-.024.043-.018.084-.01.154.01h.154l.144.01h.117l.093.008h.127l.121-.009.154-.009h.168l.168-.01.047.01h.023l.023.01.018.008.02.015v.029l-.02.012-.018.01-.023.01-.023.008h-.08l-.102.01-.094.023-.135.06-.117.085-.121.126-.117.145-.13.177-1.308 1.778.043.061.06.093.085.126.093.154.111.168.127.187.125.192.136.204.14.21.136.206.125.195.127.188.111.168.103.143.085.127.06.084.042.061.103.098.102.093.117.08.163.055.107.028.103.01.07.009h.023l.029.005.009.02.005.017-.005.023-.018.01-.02.014-.032.009h-.724l-.303-.01-.307-.005-.169-.321-.672-1.083-.723-1.101-1.255 1.946-.061.117-.043.111-.009.094.02.06.046.047.061.028.084.01.079.009h.023l.018.014.02.02v.031l-.02.018-.018.006-.023.009h-.266l-.135-.01h-.136l-.126-.005h-.093l-.061-.008-.061.009h-.102l-.136.005h-.145l-.149.009h-.182l-.014-.01-.018-.005-.01-.018v-.032l.019-.02.014-.014h.113l.11-.018.117-.018.113-.042.112-.061.102-.084.108-.099.112-.143.126-.173 1.47-2.095-1.297-1.975-.113-.162-.112-.141-.126-.12-.125-.095-.155-.065-.102-.028-.103-.014-.084-.01h-.06l-.024-.008-.019-.01-.018-.01-.005-.013v-.02l.005-.023.046-.018.084-.01zM4.696 21.545h.143l.038.009.046-.01h.155l.103.01.075.014.05.02.047.023.014.018.033.042.037.061.01.074-.02.121-.05.099-.084.079-.103.042-.126.015h-.047l-.005-.006v-.009l.015-.009h.027l.103-.02.093-.05.052-.075.023-.103-.009-.056-.014-.089-.06-.084-.094-.05-.08-.024h-.074l-.023.01h-.02l-.008.008v.878l.009.084v.028l.009.019.01.014.013.018h.029l.023.01h.052l.009.005-.01.009h-.009l-.01.009h-.093l-.065-.01h-.07l-.06.01h-.074l-.01-.01v-.014h.037l.024-.009h.019l.005-.018.009-.014.009-.02v-.027l.009-.084v-.854l-.01-.024-.017-.018-.014-.009-.029-.01h-.032l-.02-.004h-.004l-.009-.01h.01l.003-.01h.01zm1.456 0h.145l.032.009.032-.01h.154l.102.01.102.018.084.041.052.042.041.07.019.092-.01.085-.032.084-.06.084-.085.093.122.145.112.125.094.113.075.07.07.023.051.018h.069l.009.009-.01.009-.008.009h-.145l-.075-.01-.052-.008-.041-.018-.061-.042-.07-.075-.084-.102-.052-.06-.041-.07-.041-.052-.033-.042-.009-.009h-.215l-.009.01v.168l.01.112v.084l.009.023.009.018.009.019.018.018h.023l.023.009h.056v.018h-.01l-.017.009H6.43l-.07-.01h-.092l-.052.01h-.061l-.008-.01v-.017h.036l.023-.008h.018l.018-.018v-.018l.01-.019.008-.023v-.084l.01-.113v-.593l-.01-.06v-.086l-.009-.023-.009-.018-.023-.01-.023-.009h-.037l-.018-.009h-.009l-.009-.009h.01l.008-.009.01-.002zm.354.051h-.084l-.018.01-.01.008-.008.01v.49l.009.009.009.009.032.009.06.009.07.009.033-.01h.023l.033-.008.023-.018.052-.052.032-.075.01-.102-.02-.126-.05-.093-.085-.06-.111-.019zm1.819-.07.168.018.145.052.126.075.093.113.06.145.024.159-.018.135-.042.126-.07.116-.093.093-.121.075-.136.042-.154.018-.154-.018-.125-.033-.102-.06-.084-.085-.07-.084-.041-.102-.024-.102-.009-.102.01-.102.023-.093.04-.102.07-.094.085-.075.112-.07.126-.04.161-.005zm-.009.052-.125.01-.113.04-.093.07-.07.093-.051.126-.018.154.023.159.041.145.084.112.102.084.122.052.136.018h.06l.07-.018.07-.023.075-.052.061-.06.052-.094.041-.116.01-.145-.019-.168-.052-.136-.075-.113-.102-.075-.112-.051-.117-.012zm1.274-.033h.145l.033.009.05-.01h.155l.103.01.075.014.05.02.043.023.018.018.033.042.037.061.005.074-.014.121-.052.099-.084.079-.102.042-.13.015h-.042l-.005-.006v-.009l.005-.009h.036l.099-.02.098-.05.046-.075.029-.103-.01-.056-.018-.089-.065-.084-.084-.05-.08-.024h-.075l-.028.01h-.014l-.009.008v.878l.01.084v.028l.008.019.005.014.019.018h.028l.023.01h.052l.01.005-.01.009h-.01l-.01.009h-.092l-.065-.01h-.071l-.061.01H9.6l-.01-.01v-.014h.034l.027-.009h.02l.003-.018.01-.014.01-.02v-.027l.008-.084v-.854l-.009-.024-.019-.018-.013-.009-.028-.01H9.6l-.02-.004h-.003l-.01-.01h.01l.004-.01h.009zm2.068-.01v.033l-.01.02v.068l-.009.023v.042l-.009.01h-.01l-.004-.01v-.041l-.009-.023-.01-.01-.01-.01-.008-.009-.024-.009-.028-.009-.032-.005h-.22l-.01.014v.407l.01.018h.251l.038-.01h.024l.02-.014.008-.009.004-.009h.01v.042l-.01.023v.08l-.004.014v.061h-.019v-.034l-.01-.027-.008-.014-.01-.009-.005-.02-.028-.008-.032-.006h-.229l-.01.006v.391l.01.061.033.032.05.024h.17l.08-.013.023-.02.018-.018.015-.033.009-.042.009-.02h.02v.049l-.01.041-.01.052-.01.032v.014l-.013.01-.01.008h-.321l-.08-.009h-.144l-.024.01h-.042l-.01-.01-.008-.009.009-.005h.032l.02-.009h.014l.018-.018.009-.014v-.02l.009-.027v-.084l.01-.107v-.687l-.01-.032v-.029l-.01-.023-.008-.018-.018-.009-.034-.01h-.033l-.017-.004H11v-.01l.01-.01h.163l.032.01h.084l.09-.01h.237l.014-.009h.028zm.77.01h.145l.032.009.024-.01h.164l.093.01.102.018.093.041.042.042.04.07.019.092-.009.085-.032.084-.052.084-.093.093.116.145.113.125.102.113.075.07.07.023.041.018h.074v.018l-.018.009h-.122l-.075-.01-.052-.008-.041-.018-.07-.042-.07-.075-.075-.102-.051-.06-.052-.07-.042-.052-.032-.042-.009-.009h-.215v.29l.01.084v.023l.009.018.009.019.018.018h.023l.023.009h.051l.009.009v.009h-.01l-.017.009h-.084l-.075-.01h-.092l-.042.01h-.059l-.01-.01v-.017h.033l.024-.008h.018l.009-.018.009-.018.009-.019v-.023l.009-.084v-.83l-.01-.023-.008-.023-.01-.018-.018-.01-.023-.009h-.041l-.018-.009h-.01v-.009l.01-.009.02-.002zm.36.051h-.09l-.018.01-.009.008v.509l.01.009.04.009.062.009.07.009.023-.01h.032l.023-.008.033-.018.04-.052.033-.075.018-.102-.018-.126-.06-.093-.085-.06-.104-.019zm1.11-.07h.028l.014.01.028.008h.112l.015.01h.597l.043-.01h.064l.029-.009h.023v.145l-.005.033v.019l-.01.009-.008-.009v-.02l-.01-.014-.01-.037-.032-.023-.052-.019-.093-.009h-.205v.873l.01.084.01.027v.02l.017.014.014.018h.02l.023.01h.06v.014h-.01l-.013.008h-.09l-.075-.009h-.06l-.065.01h-.07l-.01-.01-.01-.009.01-.005h.037l.014-.009h.02l.013-.018.01-.014v-.02l.01-.027v-.084l.008-.107v-.766h-.238l-.075.01-.05.008-.038.033-.005.02-.009.008-.009.01v.004l-.01.01-.01.009v-.01l-.008-.009.009-.023.009-.052.02-.05v-.024l.008-.01v-.018h.005zm1.456.019h.134l.024.009.01-.01h.135v.01h.009l-.009.01h-.01l-.004.004-.018.01-.01.018.01.024.018.037.014.032.037.052.043.065.05.084.043.08.05.074.034.052.018.032.024-.041.032-.067.043-.078.051-.084.05-.075.038-.061.024-.033.019-.032.01-.028v-.042l-.01-.009-.02-.01-.018-.004h-.005v-.02h.108l.02.01.022-.01h.145l.01.01-.01.01h-.014l-.02.004-.023.01-.027.01-.023.017-.02.006-.018.027-.023.023-.034.043-.04.07-.053.084-.06.084-.05.084-.043.07-.019.042-.023.074v.356l.01.027.003.019.01.014.019.018h.023l.028.01h.052l.004.005-.004.009h-.01l-.01.009h-.084l-.078-.01h-.066l-.061.01h-.074l-.01-.01v-.014h.033l.028-.009.014-.009.02-.02.008-.022.01-.027v-.347l-.019-.052-.02-.042-.013-.023-.038-.05-.041-.081-.061-.084-.047-.074-.046-.07-.032-.047-.024-.038-.037-.032-.024-.024-.019-.018-.023-.009-.029-.01-.013-.004h-.019v-.01l.01-.01h.01zm2.548-.019h.019l.023.01.028.008h.098l.028.01h.589l.082-.01.052-.009h.023v.197h-.009v.009l-.005-.009-.009-.01v-.024l-.009-.037-.032-.023-.061-.019-.093-.009h-.197v.873l.01.084v.027l.008.02.006.014.019.018h.027l.023.01h.052l.01.004-.01.01h-.009l-.01.008h-.083l-.075-.009h-.07l-.06.01h-.076l-.009-.01v-.014h.033l.028-.009h.018l.005-.018.01-.014.009-.02v-.027l.009-.084v-.873h-.228l-.09.01-.051.008-.023.033-.018.02v.008l-.006.01v.004l-.009.01-.009.009-.009-.01v-.032l.018-.052.01-.05.005-.024v-.01l.009-.018h.009zm1.606.019h.145l.032.009.032-.01h.154l.102.01.102.018.084.041.052.042.042.07.018.092-.01.085-.032.084-.06.084-.094.093.126.145.112.125.093.113.075.07.07.023.052.018h.069l.008.009-.008.009-.01.009h-.135l-.075-.01-.052-.008-.041-.018-.07-.042-.061-.075-.084-.102-.052-.06-.052-.07-.04-.052-.024-.042-.01-.009h-.212l-.009.01v.168l.01.112v.084l.008.023v.018l.018.019.019.018h.018l.023.009h.056v.018h-.01l-.017.009h-.085l-.07-.01h-.087l-.052.01h-.059l-.01-.01v-.017h.037l.023-.008h.018l.009-.018.01-.018.008-.019.01-.023v-.937l-.01-.023-.018-.018-.018-.01-.023-.009h-.036l-.019-.009h-.009l-.009-.009h.01l.008-.009.01-.002zm.36.051h-.081l-.018.01-.01.008-.008.01v.49l.009.009.009.009.032.009.061.009.07.009.032-.01h.023l.033-.008.023-.018.052-.052.032-.075.01-.102-.019-.126-.052-.093-.084-.06-.115-.019zm1.18-.051h.145l.04.009.033-.01h.136l.01.01v.01h-.01l-.014.004h-.027l-.025.01-.009.01-.018.017v.024l-.01.028v.532l.01.144.027.099.034.07.05.06.075.052.08.023h.083l.095-.009.084-.042.07-.052.05-.102.033-.126.01-.145v-.439l-.01-.033v-.06l-.009-.024-.01-.018-.023-.009-.027-.01h-.035l-.017-.004h-.005l-.01-.01h.01l.005-.01h.145l.037.01.013-.01h.132l.004.01h.009l-.01.01h-.012l-.018.004h-.01l-.023.01-.02.01-.008.017-.005.024v.06l-.01.033v.542l-.028.121-.041.107-.075.094-.111.07-.113.032-.098.01h-.061l-.084-.02-.093-.023-.088-.06-.057-.07-.041-.075-.029-.111-.009-.14v-.477l-.009-.033v-.06l-.005-.024-.01-.018-.028-.009-.023-.01h-.032l-.02-.004h-.009l-.009-.01h.01l.008-.01h.01zm2.198-.019h.079l.065.01.028.008h.043v.169l-.01.019v.013h-.019v-.013l-.005-.02v-.023l-.009-.018-.01-.014-.008-.02-.034-.027-.06-.023-.094-.009-.073.01-.061.031-.043.061-.018.065.01.06.031.061.061.061.093.075.043.033.093.075.07.07.043.07.023.065v.126l-.023.06-.043.066-.07.07-.107.041-.13.02-.103-.01-.098-.033-.02-.009-.009-.009v-.136l.01-.06v-.024h.019v.015l.004.028v.032l.037.07.052.043.064.032.08.01.099-.03.07-.04.041-.056.02-.08-.01-.065-.033-.07-.052-.057-.088-.079-.075-.051-.102-.093-.06-.085-.033-.075-.01-.073.02-.09.04-.075.07-.06.095-.033.107-.009zm.909 0h.02l.023.01.027.008h.103l.024.01h.588l.05-.01h.057l.038-.009h.013v.197h-.004v.009l-.01-.009-.01-.01v-.024l-.009-.037-.032-.023-.06-.019-.094-.009h-.196v.873l.009.084v.027l.01.02.009.014.014.018h.027l.024.01h.052l.008.004-.009.01h-.009l-.009.008h-.084l-.075-.009h-.07l-.056.01h-.08l-.008-.01v-.014h.037l.023-.009h.019l.008-.018.006-.014.009-.02v-.027l.009-.084v-.873h-.228l-.084.01-.052.008-.028.033-.013.02v.008l-.01.01v.004l-.01.01-.008.009-.01-.01v-.032l.019-.052.009-.05.01-.024v-.01l.004-.018h.009zm1.335.957.01.01.009.009.009.019.014.023.01.018v.033l-.01.023-.009.02-.014.05-.043.06-.041.047-.01.01-.008.01-.01-.01v-.014l.01-.009.023-.043.009-.037.009-.032-.009-.024-.01-.018-.004-.014-.01-.02-.019-.009v-.009l-.009-.009.01-.023.019-.023.023-.02.027-.009.025-.009zm1.46-.938h.131l.032.009.034-.01h.131l.004.01h.01l-.01.01h-.004l-.02.004h-.018l-.023.01-.02.01-.008.017-.004.024v.06l-.01.033v.654l.01.107v.084l.004.028.009.019.01.014.018.018h.023l.029.01h.046v.014h-.005l-.018.009h-.084l-.07-.01h-.066l-.07.01h-.064l-.01-.01-.01-.008.01-.006h.033l.018-.009h.014l.018-.018.01-.014v-.02l.01-.027.004-.084v-.793l-.004-.032v-.037l-.01-.024-.019-.018-.023-.01h-.028l-.024-.004h-.009v-.01l.01-.01h.014zm1.2-.019h.01l.009.01.009.008.014.02.009.004.023.028.048.042.056.065.088.09.084.088.103.093.098.112.093.093.099.094.082.093.066.066.042.04-.013-.76-.01-.074-.018-.042-.042-.028h-.052l-.023-.004h-.009v-.02h.163l.032.01.02-.01h.139v.01l-.005.01h-.018l-.02.004h-.012l-.029.01-.014.018-.009.023v.084l-.009.873v.103l-.01.009h-.01l-.003-.01-.01-.009-.019-.009-.02-.014-.022-.028-.033-.024-.018-.027-.043-.033-.06-.061-.065-.065-.08-.07-.074-.075-.08-.075-.097-.11-.103-.108-.093-.095-.07-.07-.043-.05.02.718.003.094.029.05.032.03.029.008h.055v.015l-.004.008h-.093l-.06-.009h-.061l-.052.01h-.084l-.01-.01v-.014h.052l.028-.009.023-.028.02-.056v-.102l.003-.864v-.061l.01-.009h.01zm2.347 0h.108l.121.018.16.02.018.004.009.01v.01l-.01.017v.056l-.009.06v.113l-.009.014h-.014v-.032l-.02-.084-.05-.071-.075-.042-.112-.023-.126-.018-.135.01-.103.022-.08.047-.046.032-.07.084-.041.093-.029.104v.107l.018.145.052.125.084.113.121.093.136.06.158.015.113-.01.084-.013.078-.052.015-.028.02-.024.008-.028.01-.023.004-.024v-.009l.01-.009h.009l.009.01v.032l-.01.06-.018.057-.005.05-.009.02-.009.01-.01.008-.013.005-.08.018-.102.02h-.104l-.168-.01-.135-.033-.121-.05-.098-.071-.099-.102-.055-.117-.029-.112-.009-.108.01-.093.028-.102.052-.107.093-.113.075-.06.102-.052.135-.033.163-.009zm.831.984h.033l.018.01.029.014.004.028.01.023-.01.029-.004.023-.02.018-.027.014h-.057l-.027-.009-.014-.014-.01-.018-.01-.014v-.047l.01-.014.01-.02.014-.012.027-.01h.024z"/><path d="M32 20.047H4v.06h28v-.06z"/></g></svg>