<svg width="36" height="36" fill="none" xmlns="http://www.w3.org/2000/svg"><path d="M18 0c2.837 0 5.52.656 7.907 1.825C31.884 4.753 36 10.895 36 18c0 9.942-8.058 18-18 18-9.94 0-18-8.057-18-18C0 8.06 8.06 0 18 0z" fill="#F2F4F7"/><path d="M13.634 18.029a1.895 1.895 0 0 0-1.253-1.789 2.72 2.72 0 0 0-4.877-2.111 1.446 1.446 0 0 0-2.24 1.647A1.922 1.922 0 0 0 4 17.57a1.897 1.897 0 0 0 1.26 1.792 2.714 2.714 0 0 0 4.87 2.1 1.443 1.443 0 0 0 2.24-1.64 1.92 1.92 0 0 0 1.264-1.796" fill="#fff"/><path d="m7.788 17.134 2.108.962 2.128-1.863a2.377 2.377 0 0 0-4.293-1.81l-.355 1.832.412.879z" fill="#FEC514"/><path d="M5.605 19.366a2.384 2.384 0 0 0 4.308 1.815l.352-1.83-.469-.895-2.116-.965-2.075 1.875z" fill="#00BFB3"/><path d="m5.593 15.718 1.444.34.317-1.642a1.14 1.14 0 0 0-1.761 1.302z" fill="#F04E98"/><path d="M5.467 16.062a1.61 1.61 0 0 0-1.095 1.512 1.593 1.593 0 0 0 1.028 1.49l2.027-1.832-.372-.795-1.588-.375z" fill="#1BA9F5"/><path d="M10.285 21.181a1.14 1.14 0 0 0 1.757-1.3l-1.443-.335-.314 1.635z" fill="#93C90E"/><path d="m10.578 19.166 1.59.371a1.608 1.608 0 0 0 1.094-1.512 1.591 1.591 0 0 0-1.027-1.486l-2.079 1.82.422.807z" fill="#07C"/><path d="m17.47 19.742.194-.02.013.393c-.429.065-.861.1-1.295.106-.478 0-.816-.138-1.016-.415-.199-.276-.298-.707-.298-1.29 0-1.165.463-1.747 1.388-1.747.448 0 .782.125 1.002.375.22.25.33.642.332 1.176l-.027.379h-2.19c0 .367.066.64.199.816.133.177.364.266.693.266.33 0 .665-.012 1.006-.038zm-.178-1.44c0-.407-.066-.695-.196-.863-.13-.168-.343-.252-.637-.252-.295 0-.516.088-.664.265-.148.177-.225.46-.23.85h1.727zm1.192 1.893v-4.368h.498v4.368h-.498zm3.633-2.357v1.674c0 .168.413.159.413.159l-.025.44c-.35 0-.64.03-.813-.14a2.893 2.893 0 0 1-1.194.25c-.306 0-.538-.087-.698-.26-.16-.172-.24-.42-.239-.745 0-.323.082-.561.246-.714.164-.152.42-.246.77-.28l1.042-.099v-.285c0-.224-.048-.386-.145-.485a.542.542 0 0 0-.4-.146h-1.307v-.438h1.275c.376 0 .65.086.82.259.17.173.255.443.255.81zm-2.046 1.354c0 .407.168.61.504.61.303 0 .604-.052.89-.152l.152-.054v-1.095l-.98.093c-.2.018-.343.075-.432.173-.088.097-.133.238-.134.425zm3.989-1.978c-.482 0-.723.168-.723.504 0 .155.056.265.168.329.112.063.364.13.756.199.394.069.673.165.837.289.163.123.245.355.246.696 0 .342-.11.592-.33.75-.218.16-.538.24-.958.24-.275 0-1.19-.102-1.19-.102l.026-.431c.526.05.907.088 1.164.088.257 0 .452-.041.587-.123.135-.082.202-.219.202-.412 0-.192-.056-.323-.172-.392-.117-.068-.368-.133-.757-.195-.389-.063-.666-.153-.83-.273-.163-.119-.245-.34-.245-.664 0-.323.111-.56.342-.716.23-.157.512-.233.852-.233.27 0 1.207.069 1.207.069v.434c-.494-.022-.899-.057-1.181-.057zm3.683.052h-1.055v1.587c0 .38.027.63.082.75.056.12.187.18.395.18l.591-.04.034.411c-.224.041-.45.066-.678.073-.345 0-.584-.084-.717-.252-.133-.169-.199-.49-.199-.963v-1.746h-.469v-.43h.472v-1.017h.49v1.016h1.054v.431zm.692-.855v-.578h.498v.578h-.498zm0 3.784v-3.36h.498v3.36h-.498zm2.655-3.426c.248.01.496.037.74.08l.16.02-.02.404a7.784 7.784 0 0 0-.784-.06c-.376 0-.631.09-.766.27-.135.179-.203.51-.203.995s.063.823.19 1.013c.125.19.389.285.789.285l.784-.06.02.412a6.882 6.882 0 0 1-.923.093c-.517 0-.875-.133-1.072-.398-.197-.266-.295-.714-.295-1.344 0-.63.106-1.073.318-1.328.213-.255.567-.382 1.062-.382z" fill="#1C1E23"/></svg>