<svg width="36" height="36" fill="none" xmlns="http://www.w3.org/2000/svg"><path d="M18 0c2.837 0 5.52.656 7.907 1.825C31.884 4.753 36 10.895 36 18c0 9.942-8.058 18-18 18-9.94 0-18-8.057-18-18C0 8.06 8.06 0 18 0z" fill="#F2F4F7"/><path fill-rule="evenodd" clip-rule="evenodd" d="M4 16.013c-.014.014.98 1.02 1.008 1.02.008 0 .012-.23.01-.511l-.006-.512-.499-.006a4.956 4.956 0 0 0-.513.01zm2.144.003c-.005.008.223.247.506.53l.516.516V16H6.66c-.278 0-.51.007-.516.016zm14.31.502c-.815.17-1.076 1.407-.421 1.996.472.424 1.268.268 1.542-.303.086-.178.086-.181-.03-.181h-.095l-.059.117c-.37.733-1.36.514-1.505-.332-.179-1.044 1.035-1.61 1.497-.697l.054.107h.093c.107 0 .114-.017.054-.148a1.012 1.012 0 0 0-1.13-.56zm-11.322.011c-.007.008-.013.503-.013 1.102v1.088h1.417v-.172l-.598-.005-.599-.005-.005-.426-.005-.426H10.5l-.006-.091-.006-.091-.579-.005-.58-.005v-.784l.59-.005.588-.005v-.173l-.68-.005a9.51 9.51 0 0 0-.695.008zm1.647 0a.242.242 0 0 0-.013.096v.083h.747v2.011h.21v-2.011h.749l-.006-.09-.006-.091-.834-.006c-.459-.002-.84.001-.847.009zm2.05 0a21.86 21.86 0 0 0-.014 1.102v1.088h.19l.006-.512.005-.512.646-.006.646-.005v1.036h.21v-1.091l.001-1.091-.046-.012a.343.343 0 0 0-.1-.005l-.055.006-.005.484-.006.483h-1.3l-.005-.483-.006-.484-.077-.005c-.042-.003-.083 0-.09.008zm2.315 0a23.89 23.89 0 0 0-.013 1.102v1.088h1.417v-.172l-.598-.005-.598-.005-.005-.426-.006-.426h1.171l-.006-.091-.006-.091-.579-.005-.579-.005v-.784l.589-.005.589-.005v-.173l-.681-.005a9.51 9.51 0 0 0-.695.008zm1.857 0c-.007.008-.012.503-.012 1.102v1.088h.21v-.938h.604l.288.464.288.464.12.006.118.006-.15-.245a38.216 38.216 0 0 0-.29-.461c-.156-.246-.169-.273-.133-.273.236-.002.467-.294.467-.592 0-.34-.178-.535-.55-.606-.144-.028-.935-.04-.96-.014zm5.593.06c-.016.04-.053.132-.081.206l-.07.172c-.009.021-.115.297-.235.613a90.154 90.154 0 0 1-.364.943 2.912 2.912 0 0 0-.069.187c0 .006.049.008.108.005l.108-.006.128-.335.127-.335.584-.005.585-.005.043.11.06.15c.01.02.05.123.09.229l.075.191.109.006.108.006-.05-.12a9.706 9.706 0 0 1-.074-.188 36.72 36.72 0 0 0-.21-.546c-.014-.032-.13-.338-.26-.68-.27-.715-.247-.67-.354-.67-.118 0-.124-.027.136.652.13.342.238.632.238.645 0 .019-.112.024-.498.024-.273 0-.497-.002-.497-.005s.018-.052.04-.11l.103-.277c.118-.321.315-.833.334-.87.024-.044-.005-.06-.112-.06-.066 0-.075.008-.102.073zm1.645-.06c-.007.008-.013.503-.013 1.102v1.088h.211v-.843h.292c.783 0 1.077-.186 1.077-.68 0-.38-.182-.577-.601-.652-.151-.027-.942-.038-.966-.014zm1.992 0a24.26 24.26 0 0 0-.013 1.102v1.088h.191l-.005-1.096-.005-1.097-.077-.005c-.042-.003-.083 0-.09.008zm.574 0a.242.242 0 0 0-.013.096v.083h.747v2.011h.21v-2.011h.749l-.006-.09-.006-.091-.834-.006c-.459-.002-.84.001-.847.009zm2.346.012c-.017.02-.104.24-.3.751a534.358 534.358 0 0 1-.52 1.356l-.025.073.106-.006.107-.006.133-.34.134-.34.585.005.586.005.122.325c.143.38.128.359.25.351l.096-.006-.142-.363a28.98 28.98 0 0 1-.217-.565 16.125 16.125 0 0 1-.077-.201c-.04-.107-.051-.135-.25-.651-.164-.43-.153-.412-.258-.412-.117 0-.122-.025.109.575a343.537 343.537 0 0 1 .275.713c.013.031-.018.033-.498.033s-.51-.002-.498-.033a21.383 21.383 0 0 1 .227-.598c.027-.07.085-.22.128-.336a8.3 8.3 0 0 1 .106-.271c.022-.053.022-.062-.004-.072-.05-.02-.154-.012-.175.013zm1.618-.012c-.007.007-.014.503-.014 1.102v1.088H32v-.172l-.512-.005-.512-.005-.01-1.005-.01-1.006-.086-.005c-.048-.003-.094 0-.101.008zm-12.794.2c.43.118.462.694.045.829-.076.024-.175.031-.46.031h-.36v-.88h.349c.192 0 .384.009.426.02zm7.315.026c.223.08.315.207.315.432 0 .376-.167.482-.78.494l-.388.007v-.98h.363c.336 0 .372.004.49.047zm-19.588.47-.362.362.362.365c.198.2.368.365.377.365.008 0 .015-.328.015-.728 0-.4-.006-.727-.015-.727a6.95 6.95 0 0 0-.377.363zm.943 1.45a13.83 13.83 0 0 0-.513.527c0 .027 1.015.017 1.026-.01a7.93 7.93 0 0 0 .004-.526l-.005-.503-.512.513zm-2.145 0c-.271.272-.493.505-.493.518 0 .02.109.023.503.02l.502-.006.005-.512a4.451 4.451 0 0 0-.01-.512c-.008 0-.236.222-.507.493z" fill="#000"/></svg>