<svg height="36" viewBox="0 0 36 36" width="36" xmlns="http://www.w3.org/2000/svg"><mask id="a" fill="#fff"><path d="M0 0h28v7.512H0z" fill-rule="evenodd"/></mask><g fill="none" fill-rule="evenodd"><path d="M18 0c2.837 0 5.52.656 7.907 1.825C31.884 4.753 36 10.895 36 18c0 9.942-8.058 18-18 18-9.94 0-18-8.057-18-18C0 8.06 8.06 0 18 0z" fill="#f2f4f7" fill-rule="nonzero"/><path d="M7.828 5.52c-.056.192-.109.372-.169.564l-.006-.01c-.139.479-.282.96-.432 1.435h3.591c-.189-.664-.381-1.326-.576-1.988zm10.665-3.018a1.53 1.53 0 0 0-.557.116c-.362.185-.624.42-.786.8l-.003-.008c-.012.053-.032.085-.047.138-.015.038-.033.077-.041.119-.09.324-.068.739.06 1.04h.006c.007.018.017.047.025.059.177.38.47.643.873.767.584.177 1.195-.037 1.522-.426.045-.052.094-.117.138-.162h.003v-.02h-.003c.339-.463.297-1.254 0-1.725-.026-.015-.035-.047-.05-.081h-.006c-.2-.267-.452-.48-.799-.57a1.103 1.103 0 0 0-.335-.047zm-9.435-1.05c-.048.14-.092.299-.134.446-.004 0-.003-.002-.003-.006-.181.644-.399 1.297-.579 1.957h1.399a82.677 82.677 0 0 1-.209-.767h-.007c-.158-.54-.304-1.082-.467-1.63zM20.71.017v7.496h2.252l.012-4.67c.158.525.328 1.064.482 1.579.004.03.01.07.025.082.155.524.298 1.055.464 1.575.049.188.114.373.159.56h.007c.079.294.171.58.254.87H28L27.994.017H25.73l-.01 4.675a30.892 30.892 0 0 1-.344-1.16l-.006.005c-.355-1.191-.709-2.337-1.059-3.52zM10.327.01l-.003 2.154 2.195.006v5.342h3.507c-.599-.403-1.127-1.13-1.409-1.845-.388-.921-.403-2.223-.022-3.15.015-.018.002-.058.025-.062.019-.086.065-.184.106-.263.181-.395.43-.77.705-1.067a.35.35 0 0 1 .15-.132L15.565.99a1.65 1.65 0 0 1 .229-.213c.023-.02.035-.04.069-.047V.717a2.484 2.484 0 0 1 .448-.3c.271-.177.596-.308.942-.398zM0 0v7.5h4.355c.211-.674.432-1.357.64-2.04.014-.014.014-.053 0-.065H2.602v-.62h2.599c.222-.69.42-1.368.639-2.035H2.633v-.585l3.382-.01.376-1.211c.003 0 .003.008.003.012.079-.32.185-.633.275-.946z" fill="#0067cd" mask="url(#a)" transform="translate(4 14)"/></g></svg>