<svg width="36" height="36" fill="none" xmlns="http://www.w3.org/2000/svg"><defs><linearGradient id="a" x1="8.304" y1="22.459" x2="4.508" y2="15.883" gradientUnits="userSpaceOnUse"><stop offset=".25" stop-color="#8026FF"/><stop offset=".75" stop-color="#FF1A58"/></linearGradient></defs><path d="M18 0c2.837 0 5.52.656 7.907 1.825C31.884 4.753 36 10.895 36 18c0 9.942-8.058 18-18 18-9.94 0-18-8.057-18-18C0 8.06 8.06 0 18 0z" fill="#F2F4F7"/><path d="M25.545 17.827v.527a.768.768 0 0 0-.34-.076c-.212 0-.815.093-.815 1.32v1.089h-.56v-2.849h.56v.44c.122-.322.462-.515.86-.515a.785.785 0 0 1 .295.064zm-5.817 2.245.255.442a1.24 1.24 0 0 1-.689.213c-.583 0-.869-.318-.869-.979v-1.41H18v-.5h.423v-.894h.556v.894h.904v.502h-.902v1.425c0 .307.215.422.394.422.142 0 .278-.074.353-.115zm-5.38-.608h-2.48c.08.507.461.79.957.79.369 0 .628-.116.795-.364h.605c-.218.53-.737.87-1.4.87-.899 0-1.533-.632-1.533-1.498s.632-1.499 1.533-1.499c.9 0 1.521.632 1.521 1.5l.001.2zm-.577-.49c-.11-.456-.484-.703-.945-.703-.473 0-.83.253-.94.703h1.885zm9.528.49h-2.48c.081.507.462.79.957.79.37 0 .628-.116.795-.364h.606c-.22.53-.738.87-1.4.87-.9 0-1.534-.632-1.534-1.498s.632-1.499 1.533-1.499c.9 0 1.522.632 1.522 1.5v.2zm-.577-.49c-.11-.456-.484-.703-.945-.703-.472 0-.83.253-.94.703h1.885zm5.999.311v1.193c0 1.095-.67 1.521-1.51 1.521-.698 0-1.245-.294-1.441-.95h.559c.132.328.467.472.881.472.584 0 .969-.277.969-1.02v-.352c-.195.369-.594.588-1.072.588-.738 0-1.441-.507-1.441-1.475 0-.865.632-1.5 1.533-1.5.901 0 1.52.607 1.52 1.523h.002zm-.542-.023c0-.576-.392-.991-.98-.991s-.984.415-.984.991c0 .577.392.963.98.963s.981-.387.981-.963h.003zm1.036 1.786h.547c.133.323.416.473.827.473.53 0 .87-.254.87-.9v-.43c-.183.35-.528.544-.955.544-.709 0-1.313-.443-1.313-1.44v-1.459h.548v1.459c0 .616.34.928.858.928.508 0 .86-.323.86-.928v-1.459H32v2.771c0 .992-.628 1.39-1.418 1.39-.655.002-1.202-.303-1.37-.949h.003zM15.417 17.84l-.003.432c.18-.352.525-.507.951-.507.71 0 1.313.467 1.313 1.464v1.458h-.549V19.23c0-.617-.34-.928-.858-.928-.508 0-.859.322-.859.928v1.458h-.547v-2.849l.552.002z" fill="#231F20"/><path d="M4.157 18.208c.2-.826.857-1.29 1.724-1.29.846 0 1.534.454 1.735 1.29h-3.46zm4.958-1.335A3.743 3.743 0 0 0 4 15.502l.472.817c.436-.224.92-.338 1.41-.333 1.65 0 2.792 1.164 2.792 2.75v.37h-4.55c.15.932.847 1.45 1.757 1.45.677 0 1.153-.212 1.458-.667h1.11a2.495 2.495 0 0 1-1.18 1.279l.474.82a3.743 3.743 0 0 0 1.37-5.116h.002z" fill="url(#a)"/></svg>