<svg width="36" height="36" fill="none" xmlns="http://www.w3.org/2000/svg"><defs><linearGradient id="a" x1="15.971" y1="12.477" x2="12.434" y2="21.632" gradientUnits="userSpaceOnUse"><stop stop-color="#243796"/><stop offset="1" stop-color="#1768A1"/></linearGradient><linearGradient id="b" x1="14.286" y1="18.86" x2="9.828" y2="26.352" gradientUnits="userSpaceOnUse"><stop stop-color="#1768A0"/><stop offset="1" stop-color="#1268A5"/></linearGradient><linearGradient id="c" x1="21.291" y1="8.002" x2="21.291" y2="17.128" gradientUnits="userSpaceOnUse"><stop stop-color="#69B246"/><stop offset="1" stop-color="#80BE3F"/></linearGradient></defs><path d="M18 0c2.837 0 5.52.656 7.907 1.825C31.884 4.753 36 10.895 36 18c0 9.942-8.058 18-18 18-9.94 0-18-8.057-18-18C0 8.06 8.06 0 18 0z" fill="#F2F4F7"/><path d="m17.428 12.003-.291 2.829c-.823.068-2.88.668-4.537 2.514-1.657 1.857-.8 4.069-.166 4.943-1.154-.389-3.2-2.012-2.137-5.417 1.063-3.406 5.2-4.663 7.131-4.87z" fill="url(#a)"/><path d="m17.428 18.86-.114 2.035c-.588.051-3.131.8-4.343 2.263-2.36 2.857 1.777 4.034 2.514 4.268-.948 0-5.325.297-4.142-4.686.657-2.725 4.691-3.708 6.085-3.88z" fill="url(#b)"/><path d="m24.286 14.294-.469 2.091c-.606-.046-3.314.309-4.783 1.623-2.897 2.572 1.092 4.486 1.794 4.852-.96-.16-5.502-.663-3.44-5.635 1.132-2.72 5.458-2.994 6.898-2.931z" fill="#9CC742"/><path d="m26 8.025-.766 2.697c-.931-.08-3.331.132-5.48 1.63-2.148 1.502-1.526 3.81-.948 4.776-1.235-.588-3.28-2.537-1.56-5.657 1.72-3.12 6.554-3.6 8.754-3.446z" fill="url(#c)"/></svg>