<svg width="36" height="36" fill="none" xmlns="http://www.w3.org/2000/svg"><path d="M18 0c2.837 0 5.52.656 7.907 1.825C31.884 4.753 36 10.895 36 18c0 9.942-8.058 18-18 18-9.94 0-18-8.057-18-18C0 8.06 8.06 0 18 0z" fill="#F2F4F7"/><path d="M7.39 17.82c.806 1.018 2.023 1.764 3.393 1.858v-.306c-1.305-.097-2.457-.823-3.206-1.805l-.184-.26a4.63 4.63 0 0 1-.326-.593l-.15-.372a4.547 4.547 0 0 1-.245-1.34H6.37A2.7 2.7 0 0 1 4 17.566v.309a3.017 3.017 0 0 0 2.488-1.935c.06.261.142.52.241.763l.15.32c.097.19.208.378.327.551l.184.247z" fill="#F27121"/><path d="M7.898 17.02c.638.942 1.688 1.657 2.885 1.756v-.306c-1.157-.105-2.162-.832-2.732-1.78l-.184-.351A3.583 3.583 0 0 1 7.547 15h-.313a3.552 3.552 0 0 1-.508 1.694c-.57.947-1.569 1.668-2.726 1.776v.306c1.197-.1 2.241-.809 2.88-1.75a3.898 3.898 0 0 0 .51-1.087c.08.272.19.539.323.783l.185.298z" fill="#D0202A"/><path d="M8.414 15h-.306a4.438 4.438 0 0 1-.395 1.716 4.307 4.307 0 0 1-.507.851c-.752.985-1.901 1.708-3.206 1.805v.306c1.373-.094 2.587-.837 3.393-1.855a4.966 4.966 0 0 0 .664-1.126c.099-.244.181-.497.24-.758a3.017 3.017 0 0 0 2.489 1.935v-.31A2.7 2.7 0 0 1 8.414 15z" fill="#58595B"/><g fill="#59595B"><path d="M31.589 17.431a.412.412 0 1 1 0-.823.412.412 0 0 1 0 .823zm0-.74a.33.33 0 1 0 0 .658.33.33 0 0 0 0-.658z"/><path d="M31.796 17.227h-.117c-.002 0-.002 0-.002-.003a1.867 1.867 0 0 0-.054-.108c-.006-.011-.012-.023-.023-.034a.068.068 0 0 0-.037-.02c-.014-.003-.031 0-.045 0v.162h-.11v-.429h.172c.02 0 .04 0 .06.006a.179.179 0 0 1 .05.017c.023.011.04.031.046.057a.14.14 0 0 1 0 .076.101.101 0 0 1-.05.063.102.102 0 0 0-.026.011h-.003c.005.003.011.003.017.006a.072.072 0 0 1 .034.031c.011.014.02.031.028.048.023.037.04.074.06.117 0-.003 0-.003 0 0zm-.275-.242h.045c.011 0 .023 0 .031-.002a.051.051 0 0 0 .031-.029.11.11 0 0 0 0-.042.036.036 0 0 0-.028-.029c-.011-.002-.02-.005-.031-.005h-.051v.107h.003z"/></g><path d="M11.345 18.728c.005.411.218.91.76.91.411 0 .636-.24.726-.59h.281c-.122.525-.425.829-1.007.829-.735 0-1.044-.565-1.044-1.223 0-.61.31-1.223 1.044-1.223.743 0 1.038.65 1.016 1.3h-1.776v-.003zm1.495-.239c-.014-.425-.278-.825-.735-.825-.462 0-.718.403-.76.825h1.495zm.442-.995h.312l.726 2.03h.009l.718-2.03h.29l-.863 2.312h-.301l-.89-2.312zm2.403 1.234c.006.411.218.91.76.91.412 0 .636-.24.727-.59h.28c-.122.525-.425.829-1.007.829-.734 0-1.044-.565-1.044-1.223 0-.61.31-1.223 1.044-1.223.744 0 1.039.65 1.016 1.3h-1.776v-.003zm1.495-.239c-.014-.425-.278-.825-.735-.825-.462 0-.717.403-.76.825h1.495zm.653-.995h.26v.541h.01a.856.856 0 0 1 .873-.573v.284c-.51-.028-.86.349-.86.828v1.232h-.28v-2.312h-.003z" fill="#59595B"/><path d="M19.322 16.608h.38v1.198h.009c.125-.256.42-.366.74-.366.712 0 1.067.564 1.067 1.217 0 .655-.35 1.205-1.058 1.205-.239 0-.58-.09-.75-.363h-.008v.31h-.38v-3.2zm1.075 1.163c-.51 0-.706.44-.706.874 0 .457.207.877.729.877.519 0 .695-.443.695-.897 0-.43-.224-.854-.718-.854zm1.438-.281h.358v.489h.008c.185-.372.44-.556.851-.542v.403c-.612 0-.836.349-.836.936v1.03h-.38V17.49zm1.969-.416h-.38v-.466h.38v.466zm-.38.417h.38v2.315h-.38V17.49zm2.886 2.314h-.38v-.314h-.01c-.124.255-.42.368-.74.368-.712 0-1.067-.564-1.067-1.22 0-.655.35-1.205 1.059-1.205.238 0 .578.088.749.363h.008v-1.192h.38v3.2zm-1.076-.28c.51 0 .71-.44.71-.874 0-.457-.208-.877-.73-.877-.519 0-.695.443-.695.897-.003.43.222.854.715.854zm3.506.085c0 .752-.346 1.138-1.075 1.138-.434 0-.936-.174-.959-.681h.38c.018.278.35.377.602.377.496 0 .695-.357.695-.88v-.153h-.009c-.124.281-.43.42-.72.42-.69 0-1.036-.542-1.036-1.174 0-.548.27-1.223 1.07-1.223.292 0 .55.13.69.386h.005v-.33h.357v2.12zm-.377-1.007c0-.409-.179-.829-.658-.829-.488 0-.687.4-.687.843 0 .417.154.882.656.882.502-.002.69-.462.69-.896zm2.772.468c-.102.51-.471.789-.99.789-.74 0-1.09-.511-1.112-1.22 0-.695.456-1.206 1.089-1.206.82 0 1.07.766 1.047 1.325h-1.734c-.014.403.216.76.721.76.315 0 .533-.153.601-.45h.378v.002zm-.37-.644a.665.665 0 0 0-.666-.655c-.4 0-.635.3-.664.655h1.33z" fill="#CF202A"/></svg>