<svg height="36" viewBox="0 0 36 36" width="36" xmlns="http://www.w3.org/2000/svg"><mask id="a" fill="#fff"><path d="M0 0h10.189v10.151H0z" fill-rule="evenodd"/></mask><mask id="b" fill="#fff"><path d="M0 0h11.304v10.375H0z" fill-rule="evenodd"/></mask><g fill="none" fill-rule="evenodd"><path d="M18 0c2.837 0 5.52.656 7.907 1.825C31.884 4.753 36 10.895 36 18c0 9.942-8.058 18-18 18-9.94 0-18-8.057-18-18C0 8.06 8.06 0 18 0z" fill="#f2f4f7" fill-rule="nonzero"/><path d="M8.255 0h1.934c-.656 3.323-1.525 6.753-2.231 10.151H5.987C5.325 7.85 4.47 5.744 3.755 3.495a178.04 178.04 0 0 0-1.561 6.656H0C.807 6.782 1.597 3.393 2.38 0h2.157c.728 2.195 1.489 4.36 2.194 6.582C7.318 4.465 7.739 2.186 8.255 0" fill="#242022" mask="url(#a)" transform="translate(21.811 13.111)"/><path d="M8.776 0h2.528a722.32 722.32 0 0 1-6.618 10.374c-.931.003-2.146-.003-3.198 0C1.045 6.888.357 3.447 0 0h3.942c.362 1.966.641 4.018 1.004 5.987C6.241 4.158 7.468 1.937 8.776 0" fill="#ec1e25" mask="url(#b)" transform="translate(12.552 13)"/><path d="M6.454 13.111h5.652c-.136.595-.294 1.167-.446 1.748H8.127c-.272.742-.404 1.627-.631 2.417.884-.005 2.201.015 3.271.015-.161.612-.286 1.108-.446 1.695H7.086a63.145 63.145 0 0 0-.595 2.38c1.39-.004 2.897 0 4.31.001-.169.613-.326 1.268-.48 1.895H4c.793-3.408 1.65-6.754 2.454-10.15" fill="#242022"/></g></svg>