<svg height="36" viewBox="0 0 36 36" width="36" xmlns="http://www.w3.org/2000/svg"><mask id="a" fill="#fff"><path d="M0 0h9.976v9.975H0z" fill-rule="evenodd"/></mask><g fill="none" fill-rule="evenodd"><path d="M18 0c2.837 0 5.52.656 7.907 1.825C31.884 4.753 36 10.895 36 18c0 9.942-8.058 18-18 18-9.94 0-18-8.057-18-18C0 8.06 8.06 0 18 0z" fill="#f2f4f7" fill-rule="nonzero"/><path d="M17.94 17.94c-.048-.565-.399-.841-.759-.841-.427 0-.74.379-.764.842zm-1.533.395c.03.734.415 1.042.786 1.042.3 0 .563-.16.807-.545l.424.242c-.332.499-.748.748-1.217.748-.689 0-1.323-.547-1.323-1.576 0-.977.602-1.535 1.285-1.535.608 0 1.074.426 1.214 1.067.048.215.058.383.06.557zm15.133-.671c-.18-.333-.392-.53-.7-.53-.423 0-.782.38-.782 1.111 0 .674.334 1.125.781 1.125.318 0 .564-.2.73-.59l.43.231c-.266.524-.615.81-1.157.81-.752 0-1.326-.608-1.326-1.553 0-.929.588-1.556 1.337-1.556.508 0 .87.262 1.134.765zm-3.046.276c-.05-.566-.4-.842-.76-.842-.426 0-.742.38-.764.842zm-1.534.394c.03.734.415 1.042.787 1.042.298 0 .563-.158.806-.545l.425.242c-.333.5-.749.748-1.218.748-.689 0-1.323-.547-1.323-1.576 0-.977.602-1.535 1.285-1.535.608 0 1.073.426 1.214 1.067.047.215.058.383.06.557zm-2.039-1.565v-1.048h.52v1.048h.666v.426h-.667v1.761c0 .255.108.403.373.42a1.78 1.78 0 0 0 .294-.019v.451c-.084.007-.207.024-.32.024-.196 0-.362-.022-.49-.08-.244-.11-.376-.365-.376-.735v-1.822h-.499v-.426zm-1.304 1.464c0-.692-.316-1.104-.796-1.104-.538 0-.818.47-.818 1.137 0 .696.315 1.131.808 1.131.463 0 .806-.409.806-1.164zm-2.144.035c0-.979.573-1.563 1.317-1.563.798 0 1.357.623 1.357 1.572 0 .988-.622 1.544-1.305 1.544-.777 0-1.369-.6-1.369-1.553zm-1.776 1.494-.982-2.993h.551l.702 2.283.72-2.283h.545l-.992 2.993z" fill="#666"/><path d="M9.976 8.188A1.783 1.783 0 0 1 8.19 9.975a1.783 1.783 0 0 1-1.787-1.787 1.786 1.786 0 0 1 3.05-1.264c.35.349.525.807.525 1.264M7.944 3.966A3.957 3.957 0 0 1 6.78 6.78a3.959 3.959 0 0 1-2.808 1.164c-1.017 0-2.033-.388-2.81-1.164S0 4.988 0 3.972c0-1.017.388-2.034 1.164-2.81A3.959 3.959 0 0 1 3.972 0 3.96 3.96 0 0 1 6.78 1.164a3.957 3.957 0 0 1 1.163 2.802" fill="#01009a" mask="url(#a)" transform="translate(4 13)"/></g></svg>