<svg width="36" height="36" fill="none" xmlns="http://www.w3.org/2000/svg"><path d="M18 0c2.837 0 5.52.656 7.907 1.825C31.884 4.753 36 10.895 36 18c0 9.942-8.058 18-18 18-9.94 0-18-8.057-18-18C0 8.06 8.06 0 18 0z" fill="#F2F4F7"/><path d="M28 10.918V8.022h-4.063v.068h-1.66v-.068h-5.994v.068h-.202v-.068h-3.053v.068h-.202v-.068H8v2.896h.067v.202H8V24.7h.067v.202H8v3.12h4.826v-.067h.202v.067h7.295v-.067h2.2v.067H28v-2.985h-.067V24.7H28v-3.928h-.067v-.202H28v-6.285c-.022-.023-.045-.068-.067-.09v-2.11H28v-.965h-.067v-.202H28z" fill="#8A8E8B"/><path d="M28 24.7h-5.634l.337-3.928H28v-.202h-5.275l.224-2.694h.158a4.958 4.958 0 0 0 4.803-3.726c.023.045.068.068.09.113v-2.2a6.79 6.79 0 0 0-.27-.965H28v-.202h-.36A5.003 5.003 0 0 0 23.916 8h-1.661a4.967 4.967 0 0 0-3.704 2.896h-2.267V8h-.202v2.896h-3.053V8h-.202v2.896H8v.202h4.826v13.58H8v.202h4.826V28h.202v-3.12h1.706a8.626 8.626 0 0 0 5.59 3.12h2.199c2.2-.27 4.13-1.392 5.477-2.985V24.7zm-.584-13.782h-3.838l.247-2.694c1.594.225 2.94 1.28 3.591 2.694zm-4.31-2.76c.158 0 .337 0 .494.022l-.247 2.716h-4.556c.763-1.594 2.402-2.739 4.31-2.739zm-3.838 7.9c-.202.876-.785 1.28-1.818 1.28h-1.167v-4.49a8.184 8.184 0 0 1 2.02-1.167c-.09.382-.157.808-.157 1.212 0 1.212.426 2.312 1.122 3.165zm-2.985-3.456v-.966h1.638a9.233 9.233 0 0 0-1.638.966zm-3.255-.966h1.122v3.255a8.791 8.791 0 0 0-1.122 2.716v-5.97zm1.145 3.66v8.417a8.322 8.322 0 0 1-1.123-4.198c0-1.526.404-2.985 1.123-4.22zm-1.145 6.082a8.791 8.791 0 0 0 1.122 2.716v.09h-1.122v-2.806zm8.395 6.51a8.421 8.421 0 0 1-6.42-2.963h7.116l-.27 2.963h-.426zm.674-.023.269-2.94h5.5c-1.437 1.66-3.48 2.76-5.77 2.94zm.426-7.295h-.584s0 .135-.044.539c-.27 1.93-1.302 3.097-2.829 3.097h-2.783v-6.083h1.145c1.638 0 1.93.629 1.93 1.976v.157h.763v-3.367c.741.561 1.661.92 2.649.988l-.247 2.693zm.247-2.896a4.565 4.565 0 0 1-2.649-1.055v-1.526h-.763v.157c0 .157 0 .292-.022.427l-.023.112a4.695 4.695 0 0 1-.965-2.85c0-.45.067-.876.18-1.28h.493c1.37 0 2.178.74 2.402 2.177.045.27.023.539.023.539h.808l-.247-3.232c.449.022.875.09 1.302.202l-.54 6.33zm.337 0h-.135l.561-6.307a8.371 8.371 0 0 1 4.22 2.604 4.745 4.745 0 0 1-4.646 3.703zm4.758-4.758c0 .27-.022.538-.067.785a8.615 8.615 0 0 0-4.242-2.559v-.044h3.95c.247.583.36 1.19.36 1.818z" fill="#fff"/></svg>