<svg width="36" height="36" fill="none" xmlns="http://www.w3.org/2000/svg"><defs><linearGradient id="a" x1="8.788" y1="20.52" x2="5.807" y2="17.538" gradientUnits="userSpaceOnUse"><stop stop-color="#AECA24"/><stop offset="1" stop-color="#168E44"/></linearGradient><linearGradient id="b" x1="10.819" y1="18.667" x2="4.768" y2="18.667" gradientUnits="userSpaceOnUse"><stop stop-color="#AECA24"/><stop offset=".59" stop-color="#168E44"/><stop offset=".8" stop-color="#168E44"/><stop offset="1" stop-color="#168E44"/></linearGradient><linearGradient id="c" x1="9.145" y1="14.622" x2="11.361" y2="16.838" gradientUnits="userSpaceOnUse"><stop stop-color="#3993D7"/><stop offset="1" stop-color="#27459C"/></linearGradient><linearGradient id="d" x1="6.765" y1="16.125" x2="12.816" y2="16.125" gradientUnits="userSpaceOnUse"><stop stop-color="#3993D7"/><stop offset=".8" stop-color="#27459C"/><stop offset="1" stop-color="#27459C"/></linearGradient><linearGradient id="e" x1="7.903" y1="16.509" x2="10.053" y2="18.659" gradientUnits="userSpaceOnUse"><stop stop-color="#F0431E"/><stop offset=".9" stop-color="#F78F1F"/><stop offset="1" stop-color="#F78F1F"/></linearGradient></defs><path d="M18 0c2.837 0 5.52.656 7.907 1.825C31.884 4.753 36 10.895 36 18c0 9.942-8.058 18-18 18-9.94 0-18-8.057-18-18C0 8.06 8.06 0 18 0z" fill="#F2F4F7"/><path d="M31.635 20.498h-.08v.158h.08c.05 0 .087-.033.087-.079 0-.045-.037-.08-.087-.08zm.09.372-.102-.172h-.069v.172h-.046v-.415h.132c.068 0 .128.052.128.122 0 .061-.039.1-.094.116l.105.177h-.054zm-.1-.537a.33.33 0 0 0 0 .66.33.33 0 0 0 0-.66zm0 .705a.374.374 0 1 1 0-.75.374.374 0 0 1 0 .75zm-1.575-.045v-1.825c0-.466-.266-.668-.602-.668-.337 0-.62.207-.62.668v1.825h-.603v-2.995h.59v.302c.208-.225.497-.337.798-.337.307 0 .56.1.738.271.23.225.301.509.301.845v1.914h-.602zm-3.137-2.321a.61.61 0 0 0-.443-.172.593.593 0 0 0-.437.172c-.183.183-.207.496-.207.82 0 .326.024.64.207.822a.6.6 0 0 0 .437.177c.177 0 .33-.065.443-.177.183-.183.207-.496.207-.821 0-.325-.024-.638-.207-.821zm.454 2.001c-.195.201-.49.355-.897.355-.408 0-.697-.154-.892-.355-.283-.294-.354-.672-.354-1.18 0-.502.07-.88.354-1.176.195-.2.484-.354.892-.354.407 0 .703.154.897.354.284.296.355.674.355 1.176 0 .508-.07.886-.355 1.18zm-2.807.32c-.573 0-.821-.384-.821-.827v-3.378h.602v3.343c0 .23.083.347.326.347h.265v.515h-.372zm-2.03-2.15a.622.622 0 0 0-.591-.378.626.626 0 0 0-.597.378c-.059.13-.07.225-.077.407h1.347c-.012-.182-.024-.277-.083-.407zm-1.265.827c0 .52.266.838.762.838.336 0 .514-.095.726-.306l.384.36c-.306.307-.596.466-1.122.466-.75 0-1.346-.395-1.346-1.535 0-.975.502-1.53 1.27-1.53.802 0 1.27.579 1.27 1.453v.254h-1.944zm-1.428 1.323-.626-1.022-.631 1.022h-.727l1.028-1.53-.987-1.465h.727l.59.975.585-.975h.726l-.98 1.465 1.022 1.53h-.727zm-5.055 0v-4.205h2.687v.572H15.42v1.23h1.748v.566H15.42v1.264h2.05v.573h-2.688z" fill="#2C6CBE"/><path d="M4.768 18.616c-.03.015-.052.027-.086.047 0 0-.13.182-.272.41-.132.21-.276.457-.367.635L4 19.793c.24-.173.531-.27.921-.317.479-.057 1.037-.048 1.608-.023.502.021 1.037.055 1.573.081.907.046 2.082-.416 2.717-1.045l-.036.021c-1.182.684-2.251.535-3.21.36-.721-.131-1.449-.404-2.092-.404-.252 0-.491.042-.713.15z" fill="url(#a)"/><path d="M4.781 18.61c.784-.374 1.794.078 2.793.26.958.174 2.027.323 3.209-.36a3.89 3.89 0 0 1 .036-.021s-.245.023-.606.027a20.637 20.637 0 0 1-1.558-.064c-.951-.08-1.669-.134-2.244-.134-.7 0-1.189.08-1.63.292zm-.013.006.013-.006-.013.006z" fill="url(#b)"/><path d="M12.662 15.316c-.478.058-1.036.048-1.607.024-.502-.022-1.037-.055-1.573-.082-.907-.045-2.082.416-2.717 1.045l.036-.02c1.182-.684 2.25-.535 3.209-.36 1.005.182 2.02.638 2.806.253.03-.014.052-.027.086-.046 0 0 .13-.183.272-.41a9.363 9.363 0 0 0 .41-.72c-.24.173-.531.27-.922.316" fill="url(#c)"/><path d="m6.801 16.282-.036.021s.244-.022.606-.027c.36-.005 1.106.025 1.558.064 2.112.178 3.072.227 3.874-.157-.784.373-1.794-.079-2.793-.26-.416-.076-.854-.147-1.312-.148a3.67 3.67 0 0 0-1.897.507zm6.002-.1.013-.006-.013.007z" fill="url(#d)"/><path d="M9.071 16.886c-.977-.076-1.979-.152-2.884-.021-.375.38-.725.773-1.047 1.18.915-.332 2.121-.235 3.367-.139.979.076 1.981.152 2.887.02.225-.21.884-.959 1.046-1.18-.915.333-2.122.236-3.369.14" fill="url(#e)"/></svg>