<svg width="36" height="36" fill="none" xmlns="http://www.w3.org/2000/svg"><path d="M18 0c2.837 0 5.52.656 7.907 1.825C31.884 4.753 36 10.895 36 18c0 9.942-8.058 18-18 18-9.94 0-18-8.057-18-18C0 8.06 8.06 0 18 0z" fill="#F2F4F7"/><path d="M22.247 14.042c.02-.019.04-.048.073-.041 1.653-.001 3.306 0 4.96.001l-2.265 2.267h-2.798l.722-.723h-1c.27-.273.543-.544.814-.817h-1.2c.23-.23.463-.457.694-.687zm-1.55 1.543.855-.855.006 2.02c-.008.057.022.13-.028.174l-.833.84v-2.179z" fill="red"/><path d="M19.026 16.241c.052-.037.12-.033.18-.035.206.002.411-.002.616.002.058-.005.08.058.076.105-.001.314-.021.628-.02.942v3.182c.003.047-.001.115.054.135.11.024.217-.024.327-.027.04.005.06.05.052.088-.043.062-.12.085-.188.108a3.224 3.224 0 0 1-.567.102c-.056.007-.128 0-.156-.056-.021-.087.03-.181-.013-.265-.134.058-.26.132-.402.17-.38.108-.803.096-1.16-.078a1.177 1.177 0 0 1-.588-.618 1.357 1.357 0 0 1 .031-1.058c.129-.278.358-.504.628-.646a1.514 1.514 0 0 1 1.293-.053c.051.017.106.053.162.035.051-.026.045-.093.049-.14v-1.449c0-.057-.008-.121-.055-.16-.09-.076-.215-.071-.315-.125-.06-.03-.057-.123-.004-.159zm-.554 2.062a.925.925 0 0 0-.658.458 1.312 1.312 0 0 0-.088 1.072.953.953 0 0 0 .601.583c.267.086.561.108.833.035.097-.032.219-.076.242-.188.035-.152.028-.309.032-.463-.002-.308.012-.62-.048-.925-.037-.18-.115-.368-.275-.472-.187-.122-.425-.13-.64-.1zm-14.354-1.87a.548.548 0 0 1 .146-.015c.336.002.673.023 1.01.027.591-.01 1.183-.026 1.775-.027.036 0 .08.003.097.04.024.05.019.107.022.161-.001.227.001.454-.001.68.013.078-.11.077-.13.015-.065-.136-.107-.282-.186-.41-.073-.108-.207-.144-.327-.168-.304-.052-.614-.047-.921-.052-.084.003-.18 0-.246.062-.062.066-.06.163-.065.248V18.2c.002.047-.002.105.04.137.06.043.137.042.207.047.234.004.468.002.701.002.118.002.248-.03.323-.129.102-.122.1-.29.161-.43.027-.072.148-.054.156.021.014.095 0 .192-.006.287-.026.292-.015.585.006.877.001.087.016.176-.004.26-.028.068-.136.046-.157-.017-.063-.157-.046-.338-.125-.49-.058-.108-.187-.14-.3-.157-.222-.027-.447-.024-.67-.025-.093.004-.19 0-.275.044-.059.032-.055.107-.057.164v1.38c0 .087.008.197.095.241.12.06.259.055.39.063.228.005.457.014.685-.012a.674.674 0 0 0 .415-.176c.145-.148.26-.323.353-.507.027-.05.06-.12.129-.107.042-.001.063.047.05.083-.054.23-.089.462-.134.692-.017.075-.02.155-.06.222-.03.046-.091.05-.141.05h-2c-.284.003-.569 0-.852.024-.061.003-.127.01-.183-.017-.06-.028-.047-.125.014-.143.163-.05.335-.072.497-.125.1-.033.14-.145.137-.243.002-1.096 0-2.192 0-3.288 0-.071-.007-.156-.072-.2-.16-.098-.36-.08-.527-.157-.064-.033-.041-.13.03-.138zm27.408.728a.375.375 0 0 1 .323.069.398.398 0 0 1 .148.357.393.393 0 0 1-.201.3.374.374 0 0 1-.36-.003.393.393 0 0 1 .09-.723zm.039.035a.358.358 0 0 0-.273.301c-.03.193.134.4.334.393.171-.005.31-.163.32-.329.015-.201-.174-.406-.381-.365z" fill="#000"/><path d="M31.419 17.328c.101.008.216-.025.308.028.075.06.018.166-.055.198.05.068.102.134.16.195-.12.02-.153-.116-.212-.19h-.063c0 .052 0 .104.002.157l.07.025a1.167 1.167 0 0 1-.206 0l.068-.025a5.5 5.5 0 0 0 0-.361 4.538 4.538 0 0 1-.072-.027zm.138.015v.2c.033-.006.07 0 .102-.015.042-.029.047-.092.032-.137-.022-.053-.089-.04-.134-.047zm-8.594.243c.04-.02.11-.009.118.044.018.129-.006.26.013.39.015.042.069.04.105.042.25.002.499 0 .748 0 .046 0 .105.006.122.057.02.065.022.14 0 .204-.021.046-.078.048-.121.049-.235 0-.469-.002-.703 0-.059.003-.13.003-.17.054-.04.062-.034.14-.037.212-.002.46-.02.92-.02 1.381-.002.134.03.287.149.367.145.094.329.088.494.07.105-.01.2-.08.306-.062.054.01.058.08.027.116-.087.127-.238.191-.383.23-.199.047-.41.047-.61.008a.547.547 0 0 1-.39-.271c-.088-.167-.088-.362-.085-.546.001-.468.014-.936.012-1.404.003-.043-.014-.096-.062-.104-.087-.017-.176-.002-.263-.012-.051-.014-.048-.084-.009-.11.089-.07.2-.107.296-.166.192-.105.322-.293.417-.485.013-.022.024-.048.046-.064zm-11.363.401c.075-.048.126-.131.212-.161.054-.017.098.037.094.087 0 .152-.07.31-.01.458.1-.023.187-.077.28-.115a1.687 1.687 0 0 1 1.075-.066c.29.075.55.272.685.541.16.305.197.67.106 1.001a1.405 1.405 0 0 1-.71.886c-.303.16-.661.198-.996.139a1.107 1.107 0 0 1-.319-.108c-.039-.017-.084-.051-.126-.022-.03.02-.024.063-.026.095v1.165c-.002.055.014.118.07.142.145.069.312.051.467.082.05.005.077.067.05.108-.025.037-.075.039-.114.044-.227.012-.453-.02-.679-.017-.264-.006-.529.033-.792.013-.074-.002-.11-.12-.034-.147.153-.043.337-.015.462-.13.06-.06.072-.147.072-.227v-3.118c-.003-.074.001-.165-.067-.213-.09-.061-.21-.038-.306-.087-.054-.03-.02-.1.027-.117.188-.092.41-.105.58-.233zm.66.425c-.126.023-.264.045-.366.131-.042.034-.053.088-.05.139.001.483-.001.966.001 1.45.001.122.089.221.183.287.156.108.341.17.53.192.327.019.667-.118.871-.378.17-.213.239-.494.225-.762a1.122 1.122 0 0 0-.579-.913 1.385 1.385 0 0 0-.814-.146zm15.622-.575c.044-.032.122-.006.123.053.012.121-.009.244.014.365.006.044.058.049.087.022.132-.095.25-.212.399-.28a.568.568 0 0 1 .544.018c.16.106.157.375 0 .482a.422.422 0 0 1-.276.068c-.135-.02-.244-.112-.373-.149a.274.274 0 0 0-.29.105.59.59 0 0 0-.094.358v1.252c0 .079-.005.16.014.236.017.07.072.124.136.15.15.065.315.053.474.065.06.002.092.085.056.13-.037.037-.094.032-.142.035-.234 0-.467-.031-.7-.026-.192.004-.383.024-.574.026-.054-.001-.116-.001-.159-.04-.042-.043-.005-.127.053-.133.101-.027.222-.04.286-.134.078-.124.071-.277.077-.418.002-.373.001-.747 0-1.121 0-.14-.035-.299-.16-.38-.043-.037-.127-.067-.11-.138.07-.08.18-.108.26-.179.135-.105.22-.262.355-.367zm-12.778.297a1.21 1.21 0 0 1 1.004-.151c.286.08.523.297.645.566a.845.845 0 0 1 .09.462c-.007.067-.083.08-.137.078h-1.714c-.02.21-.015.425.019.634.038.222.132.445.311.588.185.148.428.196.66.198.165 0 .341-.02.48-.118.067-.045.112-.115.18-.159.052-.025.115.038.074.087-.14.25-.4.417-.675.486a1.36 1.36 0 0 1-.881-.071c-.294-.133-.498-.412-.588-.716a1.92 1.92 0 0 1 .045-1.251c.1-.25.262-.481.487-.633zm.25.165c-.156.137-.287.326-.3.54.091.04.193.032.29.036.225.001.45.01.675-.013.1-.014.209-.028.289-.096.077-.069.083-.183.074-.28-.02-.168-.16-.3-.316-.35a.755.755 0 0 0-.711.163zm6.146-.348c.028-.025.095-.022.088.03.002.124-.027.247-.027.371v1.954c.002.067.004.15.066.191.108.067.241.074.354.128.053.042.002.115-.054.115-.174.02-.35-.01-.524-.017-.243-.014-.484.027-.726.024-.04 0-.092-.009-.103-.054-.015-.046.025-.085.066-.097.118-.039.253-.045.352-.129.083-.072.09-.19.091-.293v-1.472c.002-.055-.008-.116-.056-.15-.071-.052-.164-.05-.242-.085-.043-.016-.055-.084-.012-.107.095-.05.206-.062.3-.117.148-.086.284-.194.426-.292zm3.926-.002c.291-.04.597.007.853.155.392.222.66.639.719 1.084a1.7 1.7 0 0 1-.201 1.028 1.234 1.234 0 0 1-.83.595c-.339.066-.704.044-1.018-.107a1.191 1.191 0 0 1-.594-.68 1.853 1.853 0 0 1-.028-1.142c.09-.305.283-.586.559-.752.163-.1.35-.158.54-.181zm.025.18c-.294.078-.481.354-.569.629-.126.41-.142.867.019 1.271.087.221.22.437.427.564.215.133.504.1.703-.047.198-.146.312-.378.375-.61.092-.362.102-.752-.02-1.108-.084-.245-.22-.488-.442-.632a.611.611 0 0 0-.493-.067zm4.695-.176c.155-.026.314-.014.47-.01.128.01.262.016.376.08.068.04.1.12.105.195a3.04 3.04 0 0 1-.002.38c-.005.03-.005.073-.039.088-.061.013-.108-.04-.135-.087-.07-.125-.121-.268-.237-.36a.579.579 0 0 0-.538-.072.401.401 0 0 0-.259.383c-.005.151.106.271.217.358.269.208.584.346.85.557.15.119.29.272.322.466a.775.775 0 0 1-.387.781c-.248.139-.543.146-.819.125-.166-.016-.338-.033-.492-.104-.065-.031-.138-.083-.14-.162a10.87 10.87 0 0 1 .001-.439c.005-.047.005-.115.06-.133.057-.02.081.05.1.09a.92.92 0 0 0 .347.47c.19.126.448.113.643.006a.429.429 0 0 0 .217-.39c.002-.153-.095-.285-.212-.372-.3-.229-.685-.334-.945-.616-.24-.258-.211-.682-.006-.952a.779.779 0 0 1 .503-.282zM7.75 18.18c-.052-.052 0-.133.066-.128.264-.011.528.022.792.006.126.002.255-.025.38.005.05.008.077.08.03.11-.083.05-.206.04-.264.13-.039.076.036.145.07.208.119.177.248.35.396.504.03.025.061.07.106.055.07-.029.108-.1.146-.16.087-.154.18-.304.263-.46.023-.056.062-.133.02-.188-.08-.054-.186-.038-.268-.085-.04-.033-.026-.113.03-.12.156-.02.315.003.472.004.205.01.41-.022.615-.008.046.005.118.02.117.08.005.065-.075.065-.119.076-.211.039-.435.113-.565.297l-.525.662c-.024.032-.052.065-.055.106.019.064.06.118.097.173.18.256.386.492.578.739.085.112.168.23.288.307.085.06.187.09.276.143.033.016.036.056.045.088-.093.034-.194.023-.29.018-.228-.016-.456-.034-.683-.01-.099.007-.2.029-.299.004-.041-.007-.074-.061-.04-.095.077-.073.199-.085.263-.173.027-.035-.005-.073-.024-.103-.151-.201-.293-.41-.438-.616-.02-.026-.04-.054-.073-.064-.065.015-.11.07-.152.117-.114.134-.21.284-.281.445-.033.07-.049.16.002.227.06.096.184.106.269.17.04.031.013.096-.035.097-.139.019-.278-.013-.417-.017-.191-.013-.382.01-.572.023-.075-.001-.163.006-.223-.047-.022-.06.042-.097.09-.113.155-.059.322-.115.436-.244.208-.23.41-.468.605-.71.035-.046.074-.09.1-.142-.002-.05-.038-.09-.066-.127l-.803-.975c-.05-.06-.097-.13-.175-.152-.06-.023-.13-.022-.185-.058z" fill="#000"/></svg>