<svg height="36" viewBox="0 0 36 36" width="36" xmlns="http://www.w3.org/2000/svg"><g fill="none" fill-rule="evenodd"><path d="M18 0c2.837 0 5.52.656 7.907 1.825C31.884 4.753 36 10.895 36 18c0 9.942-8.058 18-18 18-9.94 0-18-8.057-18-18C0 8.06 8.06 0 18 0z" fill="#f2f4f7" fill-rule="nonzero"/><path d="M4 23.805h28V12H4z" fill="#009"/><g fill="#fff"><path d="M11.833 17.632c0-.732-.67-1.784-1.967-1.784-1.174 0-1.967 1.006-1.967 2.043 0 1.235.854 2.12 2.318 2.12h2.775a3.664 3.664 0 0 1-3.11 1.676 3.761 3.761 0 0 1-3.752-3.765c0-2.074 1.678-3.767 3.751-3.767a3.774 3.774 0 0 1 3.766 3.767c0 .411-.076.807-.182 1.173H9.271v-.412l1.48-.045c.747-.03 1.082-.412 1.082-1.006m.902 4.061v-.31h.093l.056.211.056-.21h.094v.31h-.058v-.245l-.062.244h-.06l-.06-.244v.244zm-.194 0v-.258h-.092v-.052h.246v.052h-.09v.258zm4.287-5.668a.56.56 0 0 0-.577-.523c-.344 0-.577.295-.577.599 0 .362.251.622.68.622h.814a1.077 1.077 0 0 1-.912.49c-.609 0-1.1-.495-1.1-1.103s.491-1.105 1.1-1.105a1.107 1.107 0 0 1 1.051 1.449h-1.23v-.12l.434-.014c.219-.01.317-.121.317-.295"/><path d="M24.745 20.452c.313 0 .585-.272.585-.653 0-.38-.271-.653-.584-.653-.31 0-.586.273-.586.653 0 .381.277.653.586.653zm-.555-1.284c.153-.32.425-.465.702-.465.501 0 .957.425.957 1.096s-.456 1.095-.957 1.095c-.277 0-.549-.143-.702-.464-.008-.019-.022-.014-.022.003v1.257h-.536v-2.928h.537v.402c0 .017.014.022.022.005zm-1.8 1.735c-.524 0-.86-.317-.86-.782v-1.359h.537v1.318c0 .206.135.341.336.341.183 0 .322-.14.322-.336v-1.323h.536v1.36c0 .464-.362.781-.871.781zm-2.22-1.722c-.32 0-.585.27-.585.618s.264.617.585.617c.323 0 .586-.269.586-.617 0-.349-.263-.618-.586-.618zm.005-.487a1.106 1.106 0 0 1 0 2.21 1.107 1.107 0 0 1-1.109-1.105c0-.609.496-1.105 1.11-1.105zm-1.713.068v.451c0 .01.01.013.014 0 .071-.37.232-.51.51-.51h.05v.563h-.243c-.219 0-.33.17-.33.412v1.158h-.537v-2.074zm-2.025.384c-.309 0-.577.268-.577.644s.269.643.578.643c.304 0 .577-.267.577-.643s-.274-.644-.578-.644zm.568 1.27c0-.018-.012-.023-.022-.005-.152.322-.42.466-.693.466-.496 0-.948-.42-.948-1.087s.451-1.087.947-1.087c.273 0 .541.144.693.465.01.018.024.013.024-.004v-.402h.536v1.954c0 .576-.398 1.023-1.086 1.023a1.4 1.4 0 0 1-.966-.362l.322-.349c.214.17.384.26.635.26.393 0 .559-.277.559-.622zm11.695-4.96c-.313 0-.586.273-.586.653 0 .381.273.654.586.654.309 0 .586-.273.586-.654 0-.38-.278-.653-.587-.653zm.555 1.284c-.153.322-.426.465-.702.465-.501 0-.957-.424-.957-1.095s.456-1.096.957-1.096c.276 0 .549.143.702.465.009.018.022.014.022-.005v-.402h.535v2.075h-.536v-.403c0-.017-.013-.02-.022-.004zm-2.464.407h.537v-2.075h-.537zm-.045-2.678c0-.17.143-.313.313-.313s.312.143.312.313-.143.313-.313.313-.313-.143-.313-.313zm-1.453.987c-.313 0-.586.273-.586.653 0 .381.273.654.586.654.308 0 .586-.273.586-.654 0-.38-.279-.653-.587-.653zm.555 1.284c-.153.322-.425.465-.703.465-.501 0-.957-.424-.957-1.095s.456-1.096.957-1.096c.278 0 .55.143.703.465.008.018.022.014.022-.005v-1.3h.535v2.973h-.536v-.403c0-.017-.014-.02-.022-.004zm-2.366-.715a.56.56 0 0 0-.577-.523c-.345 0-.577.295-.577.6 0 .361.25.621.68.621h.813a1.075 1.075 0 0 1-.912.491c-.608 0-1.1-.496-1.1-1.104s.492-1.105 1.1-1.105a1.107 1.107 0 0 1 1.05 1.45H22.73v-.122l.433-.013c.22-.009.318-.12.318-.295zm-2.951.738c.313 0 .586-.273.586-.653s-.274-.653-.587-.653c-.308 0-.586.273-.586.653s.279.653.587.653zm-.555-1.284c.152-.322.425-.465.703-.465.5 0 .957.425.957 1.096s-.456 1.095-.957 1.095c-.278 0-.551-.143-.703-.465-.008-.017-.022-.013-.022.005v1.257h-.537v-2.93h.537v.403c0 .018.014.022.022.004zm-1.7.21.421-.617h.581l-.716.998.774 1.077h-.617l-.46-.67-.466.67h-.58l.76-1.05-.739-1.025h.617zm8.164 3.381v-.31h.092l.057.211.055-.21h.094v.31h-.058v-.244l-.062.243h-.06l-.06-.243v.243zm-.195 0v-.257h-.092v-.053h.246v.053h-.09v.257z"/></g></g></svg>