<svg width="36" height="36" fill="none" xmlns="http://www.w3.org/2000/svg"><path d="M18 0c2.837 0 5.52.656 7.907 1.825C31.884 4.753 36 10.895 36 18c0 9.942-8.058 18-18 18-9.94 0-18-8.057-18-18C0 8.06 8.06 0 18 0z" fill="#F2F4F7"/><path d="M8.428 15.13H7.403a.55.55 0 0 1-.552-.552v-1.026A.552.552 0 0 1 7.403 13h1.025a.552.552 0 0 1 .552.552v1.026a.552.552 0 0 1-.552.552" fill="#426DA9"/><path d="M5.775 17.429H4.62a.62.62 0 0 1-.621-.62v-1.155a.621.621 0 0 1 .621-.621h1.154a.62.62 0 0 1 .62.62v1.155a.62.62 0 0 1-.62.62" fill="#6D2077"/><path d="M5.665 19.824H4.96a.381.381 0 0 1-.38-.38v-.704c0-.21.17-.38.38-.38h.705c.21 0 .38.17.38.38v.704a.38.38 0 0 1-.38.38" fill="#AF1685"/><path d="M7.557 22.05h-.833a.448.448 0 0 1-.449-.448v-.833c0-.248.201-.449.449-.449h.833c.248 0 .449.2.449.449v.833a.449.449 0 0 1-.449.449zm3.054-6.5h-.577a.31.31 0 0 1-.31-.311v-.577a.31.31 0 0 1 .31-.31h.577a.31.31 0 0 1 .31.31v.577a.31.31 0 0 1-.31.31" fill="#E63888"/><path d="M23.245 15.934a.332.332 0 1 0 0-.664.332.332 0 0 0 0 .665z" fill="#004691"/><path d="M11.1 19.484a.264.264 0 0 1-.225.115.324.324 0 0 1-.154-.038.292.292 0 0 1-.122-.238.24.24 0 0 1 .038-.129l.772-1.215-.772-1.216a.264.264 0 0 1 .232-.405c.09 0 .18.038.232.116l.63.997.636-.997a.275.275 0 0 1 .232-.116.265.265 0 0 1 .27.27.254.254 0 0 1-.038.135l-.772 1.216.772 1.215a.232.232 0 0 1 .038.13.292.292 0 0 1-.122.237.323.323 0 0 1-.155.038.264.264 0 0 1-.225-.115l-.636-.99-.63.99zm2.752-2.747a1.643 1.643 0 0 1 1.106-.424 1.658 1.658 0 0 1 1.666 1.666c0 .913-.74 1.653-1.666 1.653-.424 0-.817-.161-1.106-.425v1.422c0 .141-.129.263-.276.263-.136 0-.27-.122-.27-.263v-4.027c0-.141.135-.263.27-.263.147 0 .276.122.276.263v.135zm1.106.13a1.1 1.1 0 0 0-1.106 1.112c0 .617.489 1.106 1.106 1.106a1.1 1.1 0 0 0 1.113-1.106 1.1 1.1 0 0 0-1.113-1.113zm6.375.81v1.665c0 .142-.135.264-.27.264-.148 0-.277-.122-.277-.264v-2.74c0-.141.129-.263.277-.263.129 0 .263.115.27.25.225-.173.514-.27.83-.276.173 0 .302.135.302.27 0 .148-.135.283-.302.283-.431.013-.83.167-.83.81zm1.916-1.338c-.148 0-.276.122-.276.263v2.74c0 .142.128.264.276.264.135 0 .27-.122.27-.264v-2.74c0-.141-.135-.263-.27-.263zm3.493.263c0-.141.128-.263.276-.263.135 0 .27.122.27.263v2.74c0 .142-.135.264-.27.264-.148 0-.276-.122-.276-.264v-.135a1.656 1.656 0 0 1-1.107.424 1.657 1.657 0 0 1-1.666-1.665c0-.913.74-1.653 1.666-1.653.425 0 .81.16 1.107.425v-.136zm-1.107 2.476a1.1 1.1 0 0 0 1.107-1.112 1.1 1.1 0 0 0-1.107-1.106 1.1 1.1 0 0 0-1.112 1.106 1.1 1.1 0 0 0 1.112 1.112zm4.438-1.37a.876.876 0 0 0-.855-.855c-.444 0-.856.18-.856.823v1.666c0 .142-.135.264-.27.264-.148 0-.276-.122-.276-.264v-2.74c0-.141.128-.263.276-.263.129 0 .264.115.27.25a1.37 1.37 0 0 1 .849-.276c.746 0 1.409.585 1.409 1.318v1.711c0 .142-.135.264-.27.264-.149 0-.277-.122-.277-.264v-1.634zm-19.626.168c-.013-.843-.766-1.563-1.653-1.563a1.655 1.655 0 0 0-1.541 2.292 1.658 1.658 0 0 0 1.54 1.027c.445 0 .856-.174 1.152-.47a.284.284 0 0 0 .097-.206.283.283 0 0 0-.277-.276c-.084 0-.16.051-.219.11-.186.198-.463.288-.752.288a1.102 1.102 0 0 1-1.1-.906h2.496l.014-.003.028-.006a.297.297 0 0 0 .215-.287zM8.794 16.86c.499 0 .913.32 1.054.766H7.733a1.101 1.101 0 0 1 1.06-.766zm11.53 1.016c-.014-.843-.766-1.563-1.654-1.563a1.655 1.655 0 0 0-1.541 2.292 1.659 1.659 0 0 0 1.541 1.027c.444 0 .856-.174 1.152-.47a.284.284 0 0 0 .096-.206.283.283 0 0 0-.276-.276c-.084 0-.161.051-.22.11-.186.198-.462.288-.751.288a1.102 1.102 0 0 1-1.1-.906h2.495l.022-.005c.004 0 .008 0 .011-.002a.296.296 0 0 0 .224-.289zM18.67 16.86c.5 0 .913.32 1.055.766H17.61a1.101 1.101 0 0 1 1.061-.766zm12.53 2.748a.045.045 0 0 1-.045-.044V19.1h-.105a.045.045 0 0 1-.04-.029.044.044 0 0 1-.004-.017c0-.026.019-.045.044-.045h.3c.025 0 .044.02.044.045a.045.045 0 0 1-.044.046h-.105v.464a.045.045 0 0 1-.014.032.045.045 0 0 1-.032.012zm.535 0c-.024 0-.039-.018-.044-.035l-.13-.38v.37a.045.045 0 0 1-.013.033.045.045 0 0 1-.014.009.045.045 0 0 1-.018.003.046.046 0 0 1-.032-.013.046.046 0 0 1-.013-.031v-.49a.07.07 0 0 1 .068-.068c.029 0 .056.02.066.05l.13.383.13-.383a.071.071 0 0 1 .067-.05.07.07 0 0 1 .068.068v.49a.045.045 0 0 1-.013.032.044.044 0 0 1-.032.012.045.045 0 0 1-.033-.013.045.045 0 0 1-.013-.031v-.37l-.076.225-.052.154c-.01.024-.025.036-.046.036z" fill="#1D4F91"/></svg>