<svg width="36" height="36" fill="none" xmlns="http://www.w3.org/2000/svg"><path d="M18 0c2.837 0 5.52.656 7.907 1.825C31.884 4.753 36 10.895 36 18c0 9.942-8.058 18-18 18-9.94 0-18-8.057-18-18C0 8.06 8.06 0 18 0z" fill="#F2F4F7"/><g fill="#409"><path d="M4 15v4.517l1.13-1.134v-2.254h4.152V15H4z"/><path d="M6.258 17.253h2.277v1.13H6.258v-1.13zM4 19.512l1.13 1.133h4.152v-1.133H4zm7.545-3.382h2.45v.35h-2.068v1.157h1.848v.35h-1.848v1.185h2.09v.35h-2.472v-3.393zm3.938 2.113-.947-1.232h.429l.742.97.742-.97h.415l-.952 1.218.99 1.283h-.435l-.774-1.022-.775 1.022h-.415l.98-1.269zm2.155.607v-1.512h-.35v-.327h.35v-.751h.374v.756h.797v.326h-.797v1.46c0 .304.172.416.42.416a.76.76 0 0 0 .364-.089v.322a.98.98 0 0 1-.453.107c-.401-.004-.705-.2-.705-.709zm1.825-1.839h.373v.653c.187-.415.546-.718 1.022-.695v.401h-.028c-.546 0-.994.392-.994 1.148v.999h-.373V17.01zm3.686 1.101c-.042-.457-.303-.844-.798-.844-.434 0-.76.354-.812.844h1.61zm-.728 1.134c.345 0 .588-.14.788-.35l.234.21c-.252.28-.56.471-1.031.471-.691 0-1.246-.527-1.246-1.306 0-.723.508-1.307 1.199-1.307.742 0 1.166.588 1.166 1.326 0 .037 0 .07-.004.13h-1.983c.051.523.434.826.877.826zm1.764-2.235h.373v.42c.163-.247.387-.476.807-.476a.85.85 0 0 1 .803.5c.177-.276.443-.5.877-.5.574 0 .928.387.928 1.003v1.55H27.6v-1.461c0-.48-.243-.756-.649-.756-.377 0-.695.28-.695.775v1.441h-.368v-1.474c0-.471-.248-.742-.644-.742-.397 0-.695.327-.695.789v1.423h-.374l.01-2.492zm6.415 1.101c-.042-.457-.303-.844-.798-.844-.434 0-.76.354-.811.844h1.61zm-.732 1.134c.345 0 .588-.14.788-.35l.234.21c-.253.28-.56.471-1.032.471-.686 0-1.245-.527-1.245-1.306 0-.723.508-1.307 1.199-1.307.742 0 1.166.588 1.166 1.326 0 .037 0 .07-.005.13h-1.982c.046.523.438.826.877.826zm1.376-2.501H31.1v-.075h.364v.075h-.144v.378h-.08v-.378h.005zm.308-.075h.084l.14.215.14-.215H32v.453h-.08v-.327l-.144.215h-.005l-.144-.21v.322h-.08l.005-.453z"/></g></svg>