<svg height="36" viewBox="0 0 36 36" width="36" xmlns="http://www.w3.org/2000/svg"><mask id="a" fill="#fff"><path d="M2.344 0C.71.076-.155 1.126.023 1.567l1.105 1.819c.564.928 1.452.949 1.745.949h3.062L2.364 0z" fill-rule="evenodd"/></mask><mask id="b" fill="#fff"><path d="M0 0h28v6.277H0z" fill-rule="evenodd"/></mask><g fill="none" fill-rule="evenodd"><path d="M18 0c2.837 0 5.52.656 7.907 1.825C31.884 4.753 36 10.895 36 18c0 9.942-8.058 18-18 18-9.94 0-18-8.057-18-18C0 8.06 8.06 0 18 0z" fill="#f2f4f7" fill-rule="nonzero"/><path d="M2.344 0C.71.076-.155 1.126.023 1.567l1.105 1.819c.564.928 1.452.949 1.745.949h3.062L2.364 0z" mask="url(#a)" transform="translate(15 16)"/><path d="M26.908 2.36v1.219c0 .148.035.261.105.353.071.091.163.14.275.14.092 0 .219-.042.374-.127a.208.208 0 0 1 .105-.035c.057 0 .113.035.162.106.05.07.071.148.071.225 0 .149-.085.296-.247.43a1.87 1.87 0 0 1-1.247.438c-.388 0-.698-.107-.93-.325s-.352-.507-.352-.86V2.255c0-.057-.007-.092-.021-.106s-.049-.021-.106-.021h-.359c-.071 0-.113-.015-.134-.036s-.029-.077-.029-.162v-.162c0-.07.029-.126.085-.162L26.316.564a.338.338 0 0 1 .155-.036h.296c.063 0 .099.015.12.042.021.029.028.085.028.163v.486c0 .07.014.12.035.141s.07.035.148.035h.669c.092 0 .148.014.177.049.027.036.042.099.042.211v.212c0 .113-.015.197-.05.24-.035.042-.098.063-.183.063h-.655c-.07 0-.113.014-.134.035-.042.043-.056.085-.056.155m-4.291.359h.366c.155 0 .233-.07.233-.211a.44.44 0 0 0-.113-.317.37.37 0 0 0-.296-.12.376.376 0 0 0-.317.163.51.51 0 0 0-.105.302c0 .071.013.12.049.156a.528.528 0 0 0 .183.027m1.606.677h-1.698c-.077 0-.113.035-.113.098 0 .156.085.304.254.445.169.14.352.211.55.211.112 0 .246-.021.387-.064.141-.042.261-.099.352-.162.085-.056.148-.084.198-.084.063 0 .127.035.183.112a.367.367 0 0 1 .092.241c0 .175-.106.337-.325.5-.38.289-.824.429-1.324.429-.507 0-.93-.148-1.275-.444a1.844 1.844 0 0 1-.62-1.381c0-.401.119-.768.366-1.092.211-.282.479-.486.81-.627.247-.106.515-.155.796-.155.458 0 .846.127 1.17.388.162.127.289.281.387.465.113.204.17.401.17.591a.728.728 0 0 1-.099.388c-.071.092-.155.141-.261.141M19.228 0c.267 0 .542.021.824.07.226.036.395.092.493.163.099.07.148.162.148.281a.268.268 0 0 1-.056.177.855.855 0 0 1-.232.154c-.142.071-.219.156-.24.254-.021.099-.042.479-.056 1.135a46.416 46.416 0 0 1-.021 1.148 3.4 3.4 0 0 1-.043.373c-.07.353-.211.627-.423.832a1.81 1.81 0 0 1-.669.387 2.667 2.667 0 0 1-.859.141 3.17 3.17 0 0 1-.804-.105c-.267-.071-.5-.17-.697-.289a1.081 1.081 0 0 1-.388-.409 1.1 1.1 0 0 1-.148-.55c0-.239.078-.444.226-.599a.78.78 0 0 1 .57-.239c.226 0 .416.063.571.197s.233.303.233.5c0 .05-.015.134-.042.254-.008.022-.008.049-.008.077 0 .078.029.142.085.191a.31.31 0 0 0 .218.07c.163 0 .289-.07.388-.218.098-.148.148-.339.148-.571l-.007-.331-.007-.888a19.832 19.832 0 0 0-.049-.951c-.015-.099-.036-.176-.085-.232-.036-.05-.071-.078-.099-.092s-.105-.035-.225-.07a.257.257 0 0 1-.148-.099.283.283 0 0 1-.064-.176c0-.127.05-.233.155-.31.106-.078.268-.141.501-.19.267-.057.535-.085.81-.085m-4.129 3.192-.479 1.31c-.12.324-.24.592-.359.796-.12.205-.254.381-.409.528-.31.296-.691.451-1.134.451-.36 0-.649-.091-.867-.281a.702.702 0 0 1-.254-.55.65.65 0 0 1 .176-.464.583.583 0 0 1 .437-.191c.177 0 .31.057.423.176a.477.477 0 0 1 .099.142c.014.042.042.133.077.267.028.106.085.162.183.162.078 0 .134-.035.19-.098a.352.352 0 0 0 .078-.241c0-.112-.063-.302-.19-.57l-.874-1.853a1.957 1.957 0 0 0-.204-.359c-.049-.05-.148-.106-.303-.177a.27.27 0 0 1-.127-.112.313.313 0 0 1-.05-.163c0-.21.212-.359.642-.436.282-.049.606-.078.972-.078.254 0 .458.029.606.078.197.07.296.19.296.359a.374.374 0 0 1-.084.212c-.057.077-.078.148-.078.204s.014.119.035.183c.028.063.078.169.162.317.092.169.169.254.24.254.077 0 .155-.078.232-.226a.916.916 0 0 0 .12-.43c0-.112-.028-.204-.091-.267-.092-.106-.141-.205-.141-.282 0-.12.084-.219.246-.296.162-.071.381-.113.656-.113.514 0 .768.12.768.367a.319.319 0 0 1-.078.218c-.049.057-.148.106-.282.155a.558.558 0 0 0-.275.218c-.098.148-.218.416-.359.79M9.575 1.409c.12 0 .317.028.592.077.056.008.098.015.134.015.042 0 .12-.021.239-.064a.46.46 0 0 1 .141-.035c.113 0 .226.07.338.211.092.113.17.24.226.374.057.134.084.253.084.352s-.035.176-.098.24a.403.403 0 0 1-.479.035 2.691 2.691 0 0 1-.317-.268c-.155-.148-.282-.225-.381-.225a.242.242 0 0 0-.176.077.242.242 0 0 0-.077.176c0 .12.112.226.338.332.409.183.719.38.937.599a.912.912 0 0 1 .275.669c0 .338-.148.613-.444.839-.254.197-.564.296-.93.296-.092 0-.268-.015-.515-.05-.232-.029-.366-.042-.394-.042s-.071.007-.106.013c-.07.007-.119.015-.155.015a.394.394 0 0 1-.268-.085 1.304 1.304 0 0 1-.275-.423 1.276 1.276 0 0 1-.126-.493c0-.219.084-.331.261-.331.07 0 .126.022.183.064.056.041.176.162.359.359.099.105.183.176.247.219.063.042.134.055.211.055s.141-.02.19-.063a.21.21 0 0 0 .07-.169c0-.106-.091-.204-.281-.296-.387-.19-.67-.388-.839-.592s-.26-.436-.26-.704c0-.289.084-.536.26-.74.254-.282.599-.437 1.036-.437M5.749 3.502a.363.363 0 0 0-.275.126.452.452 0 0 0-.119.311c0 .112.028.211.084.281a.263.263 0 0 0 .219.106c.19 0 .289-.162.289-.486 0-.134-.015-.219-.043-.268-.021-.043-.077-.07-.155-.07m.247-2.093c.423 0 .775.106 1.064.317.155.113.261.239.324.387s.091.346.091.6l-.006.535c0 .373.028.613.077.726.028.056.05.085.077.098a.529.529 0 0 0 .156.042c.077.015.112.064.112.156a.611.611 0 0 1-.141.359 1.128 1.128 0 0 1-.359.317 1.13 1.13 0 0 1-.571.163c-.253 0-.451-.085-.599-.261-.049-.064-.098-.092-.141-.092-.049 0-.112.028-.19.092a1.345 1.345 0 0 1-.817.261c-.317 0-.571-.072-.768-.206a.968.968 0 0 1-.303-.351.94.94 0 0 1-.113-.451.87.87 0 0 1 .303-.662c.317-.304.789-.459 1.416-.459.141 0 .226-.014.261-.042s.057-.092.057-.19c0-.254-.029-.444-.078-.557-.057-.113-.141-.169-.261-.169a.305.305 0 0 0-.19.064 1.076 1.076 0 0 0-.211.239c-.212.303-.437.458-.67.458a.404.404 0 0 1-.289-.106.352.352 0 0 1-.112-.275.56.56 0 0 1 .141-.345c.091-.113.218-.218.38-.302.43-.233.881-.346 1.36-.346M1.74 2.719h.367c.155 0 .232-.07.232-.211a.436.436 0 0 0-.113-.317.37.37 0 0 0-.296-.12.374.374 0 0 0-.316.163.505.505 0 0 0-.106.302c0 .071.014.12.049.156a.498.498 0 0 0 .183.027m1.606.677H1.641c-.077 0-.112.035-.112.098 0 .156.085.304.254.445.168.14.352.211.549.211.113 0 .247-.021.388-.064.141-.042.26-.099.352-.162.085-.056.148-.084.197-.084.064 0 .127.035.183.112a.367.367 0 0 1 .092.241c0 .175-.106.337-.324.5a2.133 2.133 0 0 1-1.325.429c-.507 0-.93-.148-1.275-.444a1.754 1.754 0 0 1-.409-.521A1.856 1.856 0 0 1 0 3.297c0-.401.12-.768.366-1.092a1.997 1.997 0 0 1 1.607-.782c.457 0 .845.127 1.169.388.162.127.289.281.388.465.112.204.169.401.169.591a.728.728 0 0 1-.099.388c-.07.092-.155.141-.254.141" fill="#f60" mask="url(#b)" transform="translate(4 15)"/></g></svg>