<svg height="36" viewBox="0 0 36 36" width="36" xmlns="http://www.w3.org/2000/svg"><mask id="a" fill="#fff"><path d="M0 7.48h28V0H0z" fill-rule="evenodd"/></mask><mask id="b" fill="#fff"><path d="M0 0h1.79v2.409H0z" fill-rule="evenodd"/></mask><mask id="c" fill="#fff"><path d="M0 0h2.263v2.05H0z" fill-rule="evenodd"/></mask><g fill="none" fill-rule="evenodd"><path d="M18 0c2.837 0 5.52.656 7.907 1.825C31.884 4.753 36 10.895 36 18c0 9.942-8.058 18-18 18-9.94 0-18-8.057-18-18C0 8.06 8.06 0 18 0z" fill="#f2f4f7" fill-rule="nonzero"/><g fill="#211c1c"><path d="M10.134 18.113h.325c.495 0 .687-.342.687-.774a.94.94 0 0 0-.154-.541c-.096-.13-.252-.242-.53-.242h-.328zm-.461-1.982h.727c.285 0 .7.029.972.416.168.22.236.489.236.785 0 .679-.341 1.208-1.174 1.208h-.761z"/><path d="M7.814 4.539h.461V2.13h-.461zm1.7-1.836-.325.978h.66zM8.125 5.265 9.332 2.13h.406l.906 2.409h-.504l-.167-.473H9.07zm2.643-.725V2.13h.646l.565 1.89.556-1.89h.65v2.41h-.429l.012-1.856-.79 2.502-.798-2.502.013 1.856zm3.045-1.205c0 .439.3.823.746.823.464 0 .737-.423.737-.82 0-.403-.273-.826-.74-.826-.458 0-.743.397-.743.82zm-.462.02c0-.772.564-1.27 1.202-1.27.693 0 1.205.566 1.205 1.25s-.508 1.25-1.208 1.25c-.703 0-1.199-.583-1.199-1.228zm4.015.445-.009-1.67h.442v3.055l-1.465-2.313.01 1.667h-.443V2.13h.412zm1.096.313h.326c.495 0 .687-.342.687-.774a.94.94 0 0 0-.155-.541c-.096-.13-.25-.242-.529-.242h-.329zm-.46-1.982h.727c.285 0 .7.029.972.416.167.22.235.489.235.785 0 .679-.34 1.208-1.173 1.208h-.762zm2.539 1.982h.326a.516.516 0 0 0 .213-.036c.094-.042.165-.124.165-.276 0-.14-.068-.225-.161-.267-.074-.033-.152-.033-.232-.033h-.31zm0-1.02h.257a.491.491 0 0 0 .199-.032c.09-.05.13-.127.13-.241 0-.123-.062-.198-.127-.228a.463.463 0 0 0-.204-.036h-.254zm-.462-.962h.753c.223 0 .396.048.514.142.155.108.223.283.223.483 0 .22-.108.393-.282.494.384.136.4.475.4.58 0 .218-.087.423-.248.54-.182.146-.328.17-.653.17h-.707zm2.677.572-.325.978h.66zm-.61 1.837h-.5l.927-2.41h.406l1.18 3.139-.945-1.202h-.904zm3.88-.808a1.158 1.158 0 0 1-1.12.853c-.7 0-1.202-.583-1.202-1.253 0-.642.473-1.247 1.198-1.247.66.002 1.034.514 1.124.866h-.486c-.072-.166-.276-.437-.64-.44-.447 0-.735.394-.735.821 0 .439.3.826.737.826.41 0 .594-.338.638-.426z" mask="url(#a)" transform="translate(4 14)"/></g><path d="M0 0h.461v1.116L1.219 0h.487l-.83 1.201.914 1.208h-.564L.461 1.328v1.081H0z" fill="#211c1c" mask="url(#b)" transform="translate(30.21 16.13)"/><path d="m7.364 16.414-.704 2.718 2.435-2.8L8.08 15.16l-1.264-.055zm-3.044-.07 2.298 2.69-.574-2.702z" fill="#221f20"/><path d="M1.605 0 .984.75 0 .804l.881.322-.337.924.703-.84 1.016-.047-.909-.36z" fill="#d52128" mask="url(#c)" transform="translate(4 14)"/></g></svg>