<svg width="36" height="36" fill="none" xmlns="http://www.w3.org/2000/svg"><path d="M18 0c2.837 0 5.52.656 7.907 1.825C31.884 4.753 36 10.895 36 18c0 9.942-8.058 18-18 18-9.94 0-18-8.057-18-18C0 8.06 8.06 0 18 0z" fill="#F2F4F7"/><g fill="#1A64B7"><path d="M26.939 19.058h-.773l.93-1.893h.015l-.172 1.893zm-16.866 0h-.772l.929-1.893h.015l-.171 1.893zm19.55.714.966-3.37h-1.333l-1.099 3.83-.025-3.83h-1.606l-2.183 3.75 1.076-3.75h-1.265l-.545 2.352h-.024l-.365-2.352h-1.376l-.967 3.37h-1.903l.26-.908h1.667l.24-.839h-1.666l.225-.784h1.72l.24-.839h-6.338l-.107.376c-.195-.294-.615-.473-1.263-.473-1.035 0-1.796.404-2.022 1.194-.106.37-.036.627.146.84.188.212.49.375.852.548.306.157.666.291.564.644a.58.58 0 0 1-.571.42c-.422 0-.467-.214-.398-.455l.085-.297-1.235.001-.086.3-.02-3.098H9.661l-.92 1.582.247-.866H6.776l.285-.992h2.404L9.788 15H5.61L4 20.61h1.774l.68-2.366h2.135L7.21 20.61h1.34l.393-.811h1.045l-.043.811h1.348l-.002-.408c.168.297.6.505 1.385.505 1.108 0 1.843-.448 2.074-1.255.146-.51.044-.79-.205-1.001-.25-.213-.64-.359-1.074-.594-.232-.134-.371-.263-.261-.515.084-.184.276-.297.546-.28.438.023.326.358.271.605h1.228a1.34 1.34 0 0 0 .086-.426h.786l-.967 3.37h1.333l.967-3.37h.906l-.966 3.37h4.505l.552-2.346.018-.012.37 2.357h2.572l.392-.812h1.046l-.045.812h4.2l.24-.838h-1.629zm1.942-3.018v-.128h.085c.043 0 .09.01.09.06 0 .064-.047.068-.1.068h-.075zm.133.05c.06-.009.107-.04.107-.114 0-.08-.048-.117-.146-.117h-.156v.411h.062v-.177h.072l.109.177h.07l-.118-.18z"/><path d="M31.64 17.076a.288.288 0 0 1-.291-.297.29.29 0 0 1 .292-.297c.16 0 .288.127.288.297a.287.287 0 0 1-.288.297zm0-.653a.356.356 0 1 0 0 .711.354.354 0 1 0 0-.711z"/></g></svg>