<svg width="36" height="36" xmlns="http://www.w3.org/2000/svg"><defs><linearGradient x1="13.88%" y1="55.93%" x2="89.14%" y2="58.69%" id="a"><stop stop-color="#0064E1" offset="0%"/><stop stop-color="#0064E1" offset="40%"/><stop stop-color="#0073EE" offset="83%"/><stop stop-color="#0082FB" offset="100%"/></linearGradient><linearGradient x1="54.32%" y1="82.78%" x2="54.32%" y2="39.31%" id="b"><stop stop-color="#0082FB" offset="0%"/><stop stop-color="#0064E0" offset="100%"/></linearGradient></defs><g fill="none"><path d="M18 0a18 18 0 1 1 0 36 18 18 0 0 1 0-36z" fill="#F2F4F7"/><path d="M6.24 21.14a5 5 0 0 0 .58 2.56c.43.7 1.07.99 1.73.99.84 0 1.62-.21 3.1-2.27 1.2-1.65 2.6-3.97 3.55-5.42l1.6-2.47c1.12-1.7 2.4-3.6 3.88-4.9A5.88 5.88 0 0 1 24.5 8c2.2 0 4.3 1.27 5.9 3.66a16.75 16.75 0 0 1 2.6 9.32c0 2.02-.4 3.5-1.08 4.68a4.5 4.5 0 0 1-4.08 2.27v-3.24c1.84 0 2.3-1.69 2.3-3.62 0-2.76-.64-5.82-2.06-8-1-1.56-2.3-2.5-3.74-2.5-1.55 0-2.8 1.17-4.2 3.25a62.03 62.03 0 0 0-2.36 3.98l-.95 1.67c-1.9 3.37-2.38 4.14-3.33 5.4-1.66 2.22-3.08 3.06-4.95 3.06a4.86 4.86 0 0 1-4.5-2.41A8.73 8.73 0 0 1 3 21.02l3.24.12z" fill="#0081FB"/><path d="M2.55 3.9C4.05 1.6 6.18 0 8.65 0c1.42 0 2.83.42 4.31 1.63 1.62 1.32 3.34 3.5 5.5 7.07l.76 1.29c1.86 3.1 2.92 4.7 3.54 5.45.8.96 1.36 1.25 2.08 1.25 1.84 0 2.3-1.69 2.3-3.62l2.86-.1c0 2.03-.4 3.51-1.08 4.69a4.5 4.5 0 0 1-4.08 2.27 5.08 5.08 0 0 1-3.82-1.53c-1-.95-2.18-2.63-3.09-4.14l-2.69-4.5a30.9 30.9 0 0 0-3.3-4.7c-.78-.81-1.77-1.8-3.35-1.8-1.28 0-2.37.9-3.28 2.27L2.55 3.89z" fill="url(#a)" transform="translate(3 8)"/><path d="M8.6 3.26c-1.29 0-2.38.9-3.29 2.27a14.45 14.45 0 0 0-2.07 7.61 5 5 0 0 0 .58 2.56l-2.76 1.82A8.73 8.73 0 0 1 0 13.02c0-3.2.88-6.55 2.55-9.13C4.05 1.6 6.18 0 8.65 0l-.06 3.26z" fill="url(#b)" transform="translate(3 8)"/></g></svg>