<svg width="36" height="36" fill="none" xmlns="http://www.w3.org/2000/svg"><path d="M18 0c2.837 0 5.52.656 7.907 1.825C31.884 4.753 36 10.895 36 18c0 9.942-8.058 18-18 18-9.94 0-18-8.057-18-18C0 8.06 8.06 0 18 0z" fill="#F2F4F7"/><path d="M10.976 16.311h1.53v.222h-1.29v.76h1v.22h-1v.928h-.24v-2.13m1.422 1.351v-.006c0-.444.347-.822.821-.822a.81.81 0 0 1 .819.816v.006c0 .444-.35.821-.825.821a.806.806 0 0 1-.815-.815zm1.4 0v-.006c0-.338-.253-.615-.585-.615-.34 0-.575.277-.575.609v.006c0 .338.25.611.581.611.341 0 .578-.273.578-.605m.481-.794h.234v.41c.116-.261.344-.45.642-.438v.253h-.018c-.344 0-.623.246-.623.721v.627h-.235v-1.573m1.147-.475h.235v.475h.499v.207h-.5v.918c0 .192.107.262.265.262a.49.49 0 0 0 .229-.055v.201a.59.59 0 0 1-.283.067c-.253 0-.445-.125-.445-.444m.957-.18v-.976h.234v.919c0 .292.159.474.435.474.268 0 .472-.197.472-.493v-.9h.231v1.573h-.231v-.274a.6.6 0 0 1-.539.307c-.38 0-.602-.255-.602-.63m1.762-.976h.234v.274a.596.596 0 0 1 .538-.308c.38 0 .603.256.603.63v.977h-.234v-.919c0-.292-.159-.475-.435-.475-.271 0-.472.198-.472.493v.901h-.234v-1.573m2.444 1.406a.651.651 0 0 0 .496-.222l.146.13a.81.81 0 0 1-.648.295c-.432 0-.785-.331-.785-.821 0-.456.32-.822.755-.822.465 0 .733.372.733.834 0 .021 0 .046-.003.082h-1.247c.033.332.276.524.553.524zm.46-.712c-.028-.286-.192-.53-.502-.53-.271 0-.478.226-.511.53h1.013zm1.477-1.259h.906c.244 0 .436.07.557.189a.474.474 0 0 1 .137.34v.007c0 .277-.17.42-.338.493.253.076.457.222.457.514v.006c0 .365-.308.581-.773.581h-.946v-2.13zm.867.95c.289 0 .49-.131.49-.38v-.007c0-.21-.168-.347-.472-.347h-.648v.734h.63zm.085.964c.323 0 .523-.143.523-.38v-.006c0-.232-.194-.366-.565-.366h-.673v.752h.715m1.101-1.357h.234v.41c.116-.261.344-.45.642-.437v.252h-.018c-.344 0-.624.247-.624.721v.627h-.234V16.86m.954 1.116v-.006c0-.337.274-.514.672-.514.201 0 .341.027.481.067v-.049c0-.28-.17-.426-.465-.426-.186 0-.332.046-.478.113l-.07-.192c.173-.079.34-.134.572-.134.222 0 .396.061.508.174.11.11.164.261.164.462v.962h-.231v-.235a.69.69 0 0 1-.566.268c-.295 0-.587-.167-.587-.49zm1.156-.121v-.146a1.611 1.611 0 0 0-.46-.067c-.291 0-.459.127-.459.316v.006c0 .198.183.314.396.314.289 0 .523-.174.523-.423m.599-.995h.235v.273a.596.596 0 0 1 .538-.307c.38 0 .603.256.603.63v.977h-.235v-.92c0-.291-.158-.474-.435-.474-.27 0-.471.198-.471.493v.9h-.235V16.86m1.657.791v-.006c0-.514.374-.818.751-.818.292 0 .481.158.603.334v-.95h.234v2.222h-.234v-.317c-.128.19-.314.35-.603.35-.377 0-.751-.298-.751-.815zm1.363-.003v-.006a.585.585 0 0 0-.57-.606c-.303 0-.553.226-.553.606v.006c0 .371.256.608.554.608.292 0 .569-.246.569-.608zm.482.584.118-.167c.171.128.36.2.545.2.189 0 .326-.097.326-.249v-.006c0-.158-.186-.22-.392-.277-.247-.07-.521-.155-.521-.444v-.006c0-.271.225-.45.536-.45.191 0 .404.067.566.173l-.107.176a.89.89 0 0 0-.466-.152c-.185 0-.304.098-.304.229v.006c0 .149.195.206.405.27.243.073.505.168.505.45v.007c0 .298-.246.471-.56.471-.225 0-.474-.088-.651-.23M6.683 16.09l2.597 2.25c.067-.23.103-.474.103-.728 0-1.46-1.254-2.612-2.695-2.612C5.213 15 4 16.172 4 17.654c0 .24.034.47.097.69l2.586-2.255m-2.555 2.352c.353 1.067 1.403 1.825 2.56 1.825a2.692 2.692 0 0 0 2.561-1.825H4.127z" fill="#29307C"/><path d="M11.343 19.417h.134l.36.824h-.152l-.084-.198h-.386l-.084.198h-.148l.36-.824zm.206.499-.141-.327-.14.327h.281zm.726-.528h.142v.331a.222.222 0 0 1 .192-.108c.14 0 .22.093.22.237v.392h-.141v-.35c0-.096-.048-.15-.132-.15-.082 0-.14.057-.14.152v.348h-.14v-.852m.672.548v-.003c0-.176.14-.322.33-.322a.32.32 0 0 1 .328.32v.002c0 .176-.14.322-.33.322a.32.32 0 0 1-.328-.32zm.516 0v-.003c0-.108-.078-.198-.189-.198-.113 0-.186.089-.186.196v.002c0 .108.079.2.188.2.115 0 .187-.09.187-.197m.268-.312h.141v.093c.04-.055.094-.106.188-.106.09 0 .151.043.184.108a.251.251 0 0 1 .209-.108c.134 0 .216.085.216.236v.393h-.141v-.35c0-.098-.046-.15-.126-.15-.077 0-.132.053-.132.152v.349h-.14v-.352c0-.096-.047-.15-.126-.15-.078 0-.132.058-.132.154v.348h-.141v-.617m1.058.311v-.003c0-.176.125-.321.302-.321.196 0 .295.154.295.332l-.002.04h-.453c.015.1.086.156.177.156a.224.224 0 0 0 .167-.074l.083.074a.312.312 0 0 1-.252.116.308.308 0 0 1-.317-.32zm.457-.046c-.01-.091-.063-.162-.157-.162-.086 0-.147.066-.16.162h.317zm.975.351v-.075a.25.25 0 0 1-.2.088c-.117 0-.22-.066-.22-.19v-.002c0-.137.107-.203.25-.203a.5.5 0 0 1 .171.026v-.012c0-.085-.053-.131-.152-.131a.427.427 0 0 0-.176.038l-.039-.113a.53.53 0 0 1 .235-.052c.182 0 .271.096.271.26v.366h-.14zm.003-.258a.404.404 0 0 0-.14-.024c-.09 0-.142.036-.142.096v.002c0 .058.052.091.119.091.093 0 .163-.052.163-.13v-.035m.288-.358h.141v.095a.222.222 0 0 1 .193-.108c.139 0 .22.093.22.237v.393h-.142v-.351c0-.096-.048-.15-.132-.15-.082 0-.139.056-.139.152v.349h-.141v-.617m.675.309v-.002c0-.204.139-.32.286-.32.102 0 .166.051.21.109v-.332h.142v.852h-.142v-.102a.247.247 0 0 1-.21.115c-.145 0-.286-.115-.286-.32zm.499 0v-.002c0-.12-.084-.198-.18-.198-.096 0-.177.075-.177.198v.002c0 .12.082.198.178.198.095 0 .179-.08.179-.198zm.58.227.063-.096c.067.05.139.076.202.076.061 0 .096-.025.096-.066v-.002c0-.048-.066-.065-.138-.087-.091-.026-.193-.063-.193-.181v-.002c0-.117.097-.188.22-.188.077 0 .161.026.227.07l-.056.1a.358.358 0 0 0-.175-.058c-.054 0-.086.026-.086.062v.002c0 .045.067.063.139.087.09.028.191.069.191.18v.002c0 .13-.1.194-.229.194a.434.434 0 0 1-.261-.093m.583-.225v-.003c0-.176.125-.321.301-.321.196 0 .296.154.296.332a.43.43 0 0 1-.002.04h-.454c.015.1.087.156.178.156a.224.224 0 0 0 .167-.074l.083.074a.312.312 0 0 1-.253.116.308.308 0 0 1-.316-.32zm.457-.046c-.01-.091-.063-.162-.157-.162-.086 0-.147.066-.16.162h.317zm.231.047v-.003c0-.175.135-.322.32-.322.116 0 .19.043.246.106l-.087.095c-.044-.046-.09-.077-.16-.077-.103 0-.178.089-.178.196v.002c0 .11.076.199.185.199.066 0 .115-.031.16-.077l.085.084a.312.312 0 0 1-.252.116.315.315 0 0 1-.32-.32m.677.081v-.392h.141v.35c0 .096.048.15.132.15.082 0 .14-.056.14-.152v-.349h.14v.617h-.14v-.095a.222.222 0 0 1-.193.108c-.14 0-.22-.093-.22-.237m.714-.392h.14v.139c.04-.093.11-.156.22-.15v.149h-.009c-.123 0-.21.08-.21.244v.235h-.141v-.617m.467-.229h.152v.134h-.152v-.134zm.006.229h.14v.616h-.14v-.616zm.337.446v-.325h-.078v-.121h.078v-.17h.142v.17h.165v.121h-.165v.303c0 .055.027.077.075.077a.19.19 0 0 0 .088-.02v.115a.247.247 0 0 1-.127.031c-.104 0-.178-.045-.178-.18m.412.322.048-.105a.173.173 0 0 0 .083.024c.04 0 .064-.018.088-.072l-.257-.616h.15l.176.457.16-.457h.147l-.245.634c-.05.126-.104.173-.203.173a.287.287 0 0 1-.146-.038m.997-.457v-.003c0-.175.135-.322.32-.322.117 0 .19.043.247.106l-.088.095c-.043-.046-.089-.077-.16-.077-.103 0-.178.089-.178.196v.002c0 .11.076.199.185.199.066 0 .115-.031.16-.077l.085.084a.313.313 0 0 1-.252.116.315.315 0 0 1-.32-.32m.633.001v-.003c0-.176.14-.322.33-.322a.32.32 0 0 1 .328.32v.002c0 .176-.14.322-.331.322a.32.32 0 0 1-.327-.32zm.516 0v-.003c0-.108-.078-.198-.189-.198-.113 0-.186.089-.186.196v.002c0 .108.079.2.188.2.115 0 .187-.09.187-.197m.267-.312h.142v.093c.04-.055.094-.106.188-.106.089 0 .15.043.183.108a.252.252 0 0 1 .21-.108c.134 0 .216.085.216.236v.393h-.142v-.35c0-.098-.045-.15-.125-.15-.077 0-.132.053-.132.152v.349h-.141v-.352c0-.096-.047-.15-.125-.15s-.132.058-.132.154v.348h-.142v-.617m1.092 0h.142v.103a.246.246 0 0 1 .209-.116c.146 0 .287.116.287.32v.002c0 .205-.14.32-.287.32a.251.251 0 0 1-.21-.108v.282h-.14v-.803zm.495.31v-.003c0-.12-.08-.198-.177-.198-.095 0-.18.08-.18.198v.002c0 .12.085.198.18.198.097 0 .177-.076.177-.198zm.648.306v-.075a.25.25 0 0 1-.2.088c-.117 0-.22-.066-.22-.19v-.002c0-.137.107-.203.25-.203a.5.5 0 0 1 .171.026v-.012c0-.085-.053-.131-.152-.131a.43.43 0 0 0-.176.038l-.039-.113a.53.53 0 0 1 .235-.052c.182 0 .271.096.271.26v.366h-.14zm.003-.258a.404.404 0 0 0-.141-.024c-.089 0-.142.036-.142.096v.002c0 .058.053.091.12.091.093 0 .163-.052.163-.13v-.035m.288-.358h.141v.095a.221.221 0 0 1 .193-.108c.139 0 .22.093.22.237v.393H27.5v-.351c0-.096-.048-.15-.132-.15-.082 0-.139.056-.139.152v.349h-.141v-.617m.67.769.048-.105a.173.173 0 0 0 .083.024c.04 0 .064-.018.088-.072l-.258-.616h.151l.175.457.16-.457h.148l-.246.634c-.049.126-.104.173-.203.173a.287.287 0 0 1-.146-.038" fill="#5C5E65"/></svg>