<svg width="36" height="36" fill="none" xmlns="http://www.w3.org/2000/svg"><path d="M18 0c2.837 0 5.52.656 7.907 1.825C31.884 4.753 36 10.895 36 18c0 9.942-8.058 18-18 18-9.94 0-18-8.057-18-18C0 8.06 8.06 0 18 0z" fill="#F2F4F7"/><path d="M30.01 20.736H5.99A1.99 1.99 0 0 1 4 18.746V14.99c0-1.1.89-1.99 1.99-1.99h24.02A1.99 1.99 0 0 1 32 14.99v3.756a1.99 1.99 0 0 1-1.99 1.99z" fill="#155BA0"/><path d="M8.382 23.753c0 .09-.017.152-.05.178a.266.266 0 0 1-.132.045 3.001 3.001 0 0 1-.353.013h-.819v-.47h.819c.197 0 .319.005.387.013a.2.2 0 0 1 .094.036c.035.024.054.088.054.184zm-.137-.53c-.023.013-.105.035-.398.035h-.819v-.43h.819c.158 0 .27.004.341.012.033.003.06.014.082.03.032.025.048.083.048.173 0 .093-.024.152-.073.18zm.233.134a.263.263 0 0 0 .085-.09.516.516 0 0 0 .048-.251.507.507 0 0 0-.05-.242c-.064-.118-.18-.185-.345-.198a4.763 4.763 0 0 0-.37-.01H6.74v1.685h1.107c.14 0 .25-.003.34-.01.195-.015.322-.057.389-.126.066-.069.099-.186.099-.359 0-.136-.022-.233-.066-.298a.281.281 0 0 0-.131-.101m6.176-.529.46.821h-.973l.469-.821h.044zm-.221-.263-.956 1.686h.327l.193-.34h1.261l.192.34h.322l-.953-1.686h-.386zm7.961 1.414-1.411-1.414h-.41v1.686h.288v-1.406l1.406 1.406h.415v-1.686h-.288v1.413zm5.91-.591 1.255-.823h-.51l-1.045.694h-.233v-.694h-.287v1.686h.287v-.73h.233l1.105.73h.514l-1.319-.863z" fill="#4F4C4D"/><path d="M6.667 14.813H9.68v.615H7.44v1.13h2.12v.613H7.44v1.738h-.773v-4.095zm4.633 4.095h-.774v-4.095h.774v4.095zm.987 0v-4.095h.958l1.27 1.756c.329.456.613.93.839 1.374h.015a15.574 15.574 0 0 1-.08-1.701v-1.429h.768v4.095h-.863l-1.285-1.798c-.313-.45-.641-.954-.883-1.415l-.021.006c.036.528.043 1.069.043 1.743v1.465h-.761zm7.558-1.73h-2.118v1.124l2.24-.008v.621h-3.014V14.82h3.014v.614h-2.24v1.128h2.118v.616zm7.456 1.173c-.895 0-1.622-.471-1.622-1.497 0-1.025.727-1.497 1.622-1.497.896 0 1.621.67 1.621 1.497 0 .827-.725 1.497-1.62 1.497zm0-3.62c-1.323 0-2.396.798-2.396 2.123 0 1.325 1.073 2.123 2.396 2.123s2.395-.95 2.395-2.123c0-1.172-1.072-2.123-2.395-2.123zm-2.996 3.468c-.277.096-.588.15-.917.15-1.157 0-2.094-.468-2.094-1.488s.938-1.488 2.094-1.488c.337 0 .655.057.938.158l.186-.623a3.74 3.74 0 0 0-1.124-.17c-1.584 0-2.868.798-2.868 2.123 0 1.458 1.103 2.122 2.868 2.122.391 0 .764-.058 1.104-.163l-.187-.621z" fill="#FABD25"/></svg>