<svg height="36" viewBox="0 0 36 36" width="36" xmlns="http://www.w3.org/2000/svg"><mask id="a" fill="#fff"><path d="M0 0h13.541v2.574H0z" fill-rule="evenodd"/></mask><mask id="b" fill="#fff"><path d="M.128 0h.744v1H.128z" fill-rule="evenodd"/></mask><mask id="c" fill="#fff"><path d="M0 .075h1v.85H0z" fill-rule="evenodd"/></mask><mask id="d" fill="#fff"><path d="M0 .074h1v.852H0z" fill-rule="evenodd"/></mask><g fill="none" fill-rule="evenodd"><path d="M18 0c2.837 0 5.52.656 7.907 1.825C31.884 4.753 36 10.895 36 18c0 9.942-8.058 18-18 18-9.94 0-18-8.057-18-18C0 8.06 8.06 0 18 0z" fill="#f2f4f7" fill-rule="nonzero"/><path d="m13.541 0-.492.779c-.017.026-.041.027-.066.03l-1.865.256-2.044.282-2.069.283-2.051.283-2.052.28-2.069.285c-.276.038-.553.075-.833.096L13.541 0" fill="#1c439a" mask="url(#a)" transform="translate(18.587 14)"/><path d="M26.303 18.333c-.002.258.128.438.363.503a.676.676 0 0 0 .835-.497c.071-.31-.082-.583-.366-.654a.674.674 0 0 0-.832.648m1.052.761a.996.996 0 0 1-.646.235.908.908 0 0 1-.9-.769 1.187 1.187 0 0 1 1.142-1.382.735.735 0 0 1 .567.237l.042.042.014.002c.027-.052.021-.113.031-.17.006-.036.012-.056.055-.056.14.003.28.003.42 0 .067 0 .047.041.043.074-.04.287-.079.575-.123.862l-.163 1.106c-.085.57-.533.83-.967.87-.335.027-.655-.015-.933-.228a1 1 0 0 1-.173-.177c-.032-.04-.023-.058.021-.079a5.03 5.03 0 0 0 .335-.172c.047-.026.076-.02.118.012.247.196.521.218.804.095.207-.09.285-.273.313-.502" fill="#02a951"/><path d="m20.881 16.537 10.608-1.39c-.045.07-.08.13-.118.187-.1.157-.203.311-.299.47-.032.052-.07.072-.13.076a647.128 647.128 0 0 0-3.014.204c-.544.036-1.087.072-1.63.11-.55.036-1.099.074-1.648.111l-1.384.093-1.904.13-.477.03-.004-.02" fill="#02afee"/><path d="M23.383 18.056h.461c.092 0 .095-.005.058-.086a.511.511 0 0 0-.5-.305c-.225.007-.457.159-.532.344-.023.057.013.047.043.047zm.223.38c-.254 0-.508 0-.762-.002-.058 0-.072.015-.062.072a.452.452 0 0 0 .42.395.735.735 0 0 0 .548-.146c.042-.033.074-.036.12-.01.107.06.215.118.326.168.07.032.057.057.015.102a1.178 1.178 0 0 1-.746.36 1.412 1.412 0 0 1-.485-.023c-.4-.096-.647-.375-.71-.801-.088-.603.301-1.203.892-1.337.901-.203 1.386.49 1.297 1.158-.007.052-.024.065-.074.065-.259-.003-.519-.001-.779-.001z" fill="#02a951"/><path d="M14.385 18.124h.453c.102 0 .106-.004.062-.094a.494.494 0 0 0-.491-.292.594.594 0 0 0-.534.338c-.028.054.008.048.04.048zm.223.383c-.248 0-.497.001-.745-.002-.065 0-.09.008-.075.084.052.266.279.423.575.39a.79.79 0 0 0 .4-.159c.029-.022.053-.034.09-.013.12.066.242.13.365.188.05.025.036.044.009.074a1.16 1.16 0 0 1-.73.375 1.361 1.361 0 0 1-.527-.024c-.43-.108-.688-.44-.706-.904a1.199 1.199 0 0 1 .998-1.25c.724-.127 1.31.457 1.199 1.185-.01.053-.032.056-.073.056h-.78z" fill="#1c439a"/><path d="M19.376 18.056a.504.504 0 0 0-.522-.391c-.252.007-.502.185-.544.39h1.001zm-.312.38c-.257 0-.514.002-.77-.002-.062-.001-.07.019-.063.073a.45.45 0 0 0 .386.39c.212.03.41-.01.581-.142.043-.034.075-.035.121-.01a7 7 0 0 0 .333.173c.05.024.056.04.017.084a1.155 1.155 0 0 1-.748.372 1.264 1.264 0 0 1-.655-.075c-.359-.148-.558-.478-.557-.917a1.202 1.202 0 0 1 .89-1.168c.757-.194 1.402.366 1.312 1.14-.008.06-.026.085-.094.084-.25-.005-.502-.002-.753-.002z" fill="#02a951"/><path d="m8.18 18.124 1.023.001c.073 0 .033-.043.024-.066a.512.512 0 0 0-.505-.323c-.249.01-.477.17-.543.388m1.403.897a1.153 1.153 0 0 1-.762.422c-.18.028-.359.021-.535-.024-.419-.106-.66-.404-.702-.86a1.208 1.208 0 0 1 .911-1.28c.75-.176 1.38.387 1.287 1.148-.008.064-.033.082-.097.081-.499-.003-.999.001-1.499-.004-.087 0-.093.03-.08.1.048.253.288.408.577.374a.784.784 0 0 0 .4-.16c.026-.022.047-.032.082-.012.136.073.273.141.418.215" fill="#1c439a"/><path d="M20.856 17.428c.07-.048.131-.094.197-.133a.774.774 0 0 1 .56-.102c.313.064.5.335.47.674-.036.406-.105.808-.157 1.212-.007.059-.02.119-.023.178-.003.053-.019.074-.076.072a7.096 7.096 0 0 0-.386 0c-.05 0-.067-.005-.059-.064.053-.364.101-.73.15-1.093.012-.096.031-.192.02-.29-.02-.182-.19-.272-.389-.206a.548.548 0 0 0-.36.37c-.08.24-.1.49-.136.739-.023.162-.046.322-.064.483-.005.047-.019.062-.067.06a6.47 6.47 0 0 0-.394 0c-.06.003-.064-.021-.057-.07l.143-1.04c.042-.305.086-.61.125-.915.007-.054.023-.071.078-.07.125.004.251.004.377 0 .055-.001.077.013.065.07-.009.039-.01.078-.017.125m7.372 2.668c.169-.3.32-.586.49-.861a.42.42 0 0 0 .04-.402c-.174-.502-.331-1.01-.5-1.515-.021-.067-.015-.09.06-.085.12.006.24.004.36 0 .052-.001.073.016.089.066.12.373.244.746.367 1.118l.017.045c.02-.034.037-.057.052-.083.208-.36.417-.72.623-1.08.027-.048.056-.068.112-.066.157.005.314.002.47.002.012.032-.012.049-.023.07-.524.91-1.05 1.82-1.572 2.73-.023.042-.047.063-.1.062-.155-.004-.311-.001-.485-.001" fill="#02a951"/><path d="M5.892 17.306c.066 0 .132.002.197-.001.045-.001.056.009.05.057-.054.375-.103.75-.153 1.126a1.167 1.167 0 0 0-.008.102c-.005.202.084.33.256.369a.383.383 0 0 0 .453-.217c.073-.167.088-.347.113-.525.04-.284.08-.57.117-.854.005-.042.016-.06.061-.058.137.002.274.002.412 0 .037 0 .05.012.044.049-.073.46-.095.93-.208 1.385a.934.934 0 0 1-1.336.632c-.284-.138-.418-.378-.426-.687-.006-.252.04-.5.074-.748.026-.183.057-.366.08-.55.007-.063.03-.088.094-.081.06.005.12 0 .18 0" fill="#1c439a"/><path d="m22.578 16.778 8.328-.597-.319.523c-.017.028-.045.019-.07.02l-.547.009-1.705.01-1.893.018-1.798.017c-.642.006-1.285.01-1.927.017-.019 0-.039.007-.069-.017" fill="#02a951"/><path d="M12.052 19.46c-.332-.008-.62-.076-.84-.319-.231-.257-.276-.565-.218-.888.113-.631.626-1.026 1.283-1.001.338.012.619.136.825.413.04.054.05.084-.022.118a3.672 3.672 0 0 0-.31.166c-.04.023-.062.024-.1-.013-.21-.218-.467-.237-.733-.141-.27.097-.413.309-.44.589-.041.419.265.626.638.593a.663.663 0 0 0 .46-.215c.02-.025.039-.026.065-.007.11.08.222.16.335.236.045.031.019.049-.003.073a1.228 1.228 0 0 1-.764.38c-.065.009-.13.012-.176.016M5.45 16.988c-.061-.037-.11-.074-.17-.086-.094-.018-.157.013-.183.107-.022.08-.033.166-.053.25-.01.04.007.048.043.047l.222-.001c.036-.001.05.006.043.048a8.015 8.015 0 0 0-.043.347c-.004.04-.021.053-.06.05-.062-.001-.126.006-.188-.001-.062-.006-.083.016-.091.076-.068.502-.14 1.004-.207 1.506-.007.05-.021.075-.078.074a8.625 8.625 0 0 0-.394-.001c-.044 0-.058-.01-.051-.06.07-.501.137-1.003.209-1.505.01-.072-.002-.093-.078-.09-.138.006-.137 0-.117-.135.012-.082.022-.164.03-.246.005-.042.017-.063.068-.064.163-.002.16-.005.19-.171.02-.11.04-.22.074-.325a.548.548 0 0 1 .859-.261c.017.012.03.024.028.047l-.053.394m11.378 2.414c-.06 0-.12-.004-.18.001-.064.006-.082-.01-.073-.079.104-.742.205-1.484.306-2.226.025-.177.051-.355.072-.533.007-.052.026-.07.081-.068.128.004.257.003.385 0 .048 0 .065.01.058.062l-.229 1.658c-.049.358-.1.716-.145 1.075-.01.08-.027.127-.121.112-.05-.008-.103-.002-.154-.002m-6.588 0c-.07 0-.137-.002-.206.001-.046.002-.056-.013-.05-.06.05-.358.097-.716.146-1.075.078-.566.157-1.133.234-1.7.006-.052.02-.073.076-.07.128.003.257.003.385 0 .055-.003.066.012.059.066-.062.437-.12.874-.18 1.312-.065.482-.134.964-.197 1.446-.01.07-.034.086-.096.081-.057-.004-.114 0-.171 0m5.682-.001c-.068 0-.137-.002-.206.001-.048.003-.055-.017-.05-.06.125-.89.247-1.783.37-2.674.023-.17.024-.17.2-.17.09 0 .183.003.274-.002.058-.003.066.02.059.07l-.16 1.15c-.071.524-.145 1.048-.213 1.574-.011.09-.036.127-.128.113-.048-.008-.098-.002-.146-.002" fill="#1c439a"/><g fill="#02a951"><path d="M25.245 17.462c.048-.052.093-.107.145-.154a.453.453 0 0 1 .394-.12c.054.009.088.025.056.094-.054.116-.098.237-.145.355-.012.029-.02.054-.06.04-.112-.033-.193.023-.264.098-.11.118-.147.268-.179.419-.074.35-.1.709-.15 1.064-.008.052-.02.074-.077.072-.134-.004-.268-.002-.402-.001-.038 0-.054-.005-.047-.052.07-.496.136-.992.204-1.488.021-.153.044-.305.06-.457.007-.071.025-.106.107-.1.105.009.211.004.316.002.047-.001.06.013.05.059-.01.053-.012.107-.017.16 0 .01-.003.02-.004.03.015 0 .01-.013.013-.021m-5.185 4.039c.169.002.278-.103.278-.265a.26.26 0 0 0-.268-.271.27.27 0 0 0-.28.271c-.002.16.105.264.27.265m.266-.582c-.003-.105.072-.067.124-.069.029-.001.026.025.026.045-.006.241.014.483-.014.725a.323.323 0 0 1-.241.289c-.236.075-.471-.017-.558-.219-.005-.009-.005-.02-.008-.031.079-.016.14-.01.196.062.066.085.227.102.34.055.102-.042.136-.098.134-.23a.447.447 0 0 1-.397.072.389.389 0 0 1-.211-.153.41.41 0 0 1 .032-.498c.147-.164.325-.18.577-.048m6.906.582c.173.002.276-.098.276-.266a.257.257 0 0 0-.266-.27.275.275 0 0 0-.282.271c-.003.155.11.264.272.265m.27.045c-.258.135-.472.11-.604-.069a.412.412 0 0 1 .042-.533.41.41 0 0 1 .556-.014c.024-.025-.015-.088.06-.085.068.003.091.015.09.089-.007.196-.003.392-.003.589 0 .227-.107.366-.305.401-.244.044-.429-.052-.514-.268.077-.006.142-.013.2.065.062.086.227.101.341.055.1-.041.138-.105.136-.23m-21.484-.581a.273.273 0 0 0-.276.284.275.275 0 0 0 .278.276.28.28 0 0 0 .273-.283.274.274 0 0 0-.275-.277m-.267-.035c.226-.144.427-.133.575.029a.426.426 0 0 1 .021.54c-.142.182-.332.203-.6.06 0 .096-.002.186.001.275.003.054-.006.08-.07.08-.073.002-.069-.035-.069-.084.001-.296 0-.592.002-.887 0-.034-.034-.09.044-.096.062-.004.107.003.096.083m1.23.035a.27.27 0 0 0-.271.279.27.27 0 0 0 .272.28.283.283 0 0 0 .28-.285.276.276 0 0 0-.28-.274m-.266.586v.276c0 .05.007.089-.07.089-.083-.001-.067-.048-.067-.094v-.888c0-.036-.025-.09.053-.087.059 0 .1.005.08.095a.408.408 0 0 1 .36-.108.387.387 0 0 1 .242.15.423.423 0 0 1-.021.543c-.117.13-.35.198-.577.024m14.05-.409c.157 0 .304.002.452 0 .065-.001.031-.04.017-.062a.253.253 0 0 0-.25-.115c-.107.009-.176.068-.219.177m.317.132c-.089 0-.177.004-.266-.001-.072-.004-.075.025-.053.08.038.09.1.154.2.167a.278.278 0 0 0 .283-.118c.018-.026.021-.07.08-.043.073.032.076.062.033.123a.429.429 0 0 1-.526.139c-.172-.077-.266-.288-.216-.49.046-.193.216-.313.43-.301.193.01.344.157.371.36.008.057.002.09-.07.086-.089-.007-.178-.002-.266-.002m4.557-.132h.416c.021 0 .05.013.062-.012.013-.025-.01-.05-.025-.067-.131-.165-.404-.115-.453.079m.309.132c-.091 0-.183.003-.274-.001-.058-.003-.062.022-.047.066.035.095.095.164.199.18a.282.282 0 0 0 .286-.112c.02-.028.022-.077.086-.047.075.034.07.065.03.123a.429.429 0 0 1-.519.14.423.423 0 0 1-.225-.485.396.396 0 0 1 .416-.31.395.395 0 0 1 .385.347c.01.064.011.11-.08.1-.085-.008-.171-.001-.257-.001m-2.098-.132h.438c.06.002.056-.021.031-.06a.254.254 0 0 0-.248-.117c-.107.008-.179.064-.222.177m.316.132c-.088 0-.177.004-.265-.001-.073-.005-.075.026-.053.08.037.092.1.153.198.168a.276.276 0 0 0 .283-.12c.02-.027.027-.07.083-.041.064.03.077.057.034.118a.428.428 0 0 1-.525.144c-.173-.076-.267-.28-.222-.48.046-.202.212-.323.43-.312.194.008.345.155.373.358.01.065-.006.093-.079.087-.085-.006-.17-.001-.257-.001m-10.448-.132h.205c.042.002.051-.012.03-.05a.252.252 0 0 0-.226-.13.24.24 0 0 0-.227.125c-.022.037-.02.058.03.056.063-.002.125-.001.188-.001m.078.132c-.089 0-.177.005-.265-.001-.08-.006-.078.03-.055.085.038.09.101.15.201.164a.28.28 0 0 0 .277-.117c.018-.025.021-.076.08-.047.08.04.085.049.035.124a.427.427 0 0 1-.526.139.424.424 0 0 1-.217-.483c.054-.21.22-.324.441-.308a.397.397 0 0 1 .361.362c.007.062-.007.088-.075.083-.085-.006-.17-.001-.257-.001m-3.375-.132a.248.248 0 0 0-.226-.177.24.24 0 0 0-.244.119c-.013.022-.04.056.014.057.15.003.298 0 .456 0m-.184.133-.282-.001c-.045-.001-.054.013-.04.055.03.096.087.168.19.189a.279.279 0 0 0 .3-.115c.021-.031.032-.07.088-.04.062.032.066.059.03.114a.429.429 0 0 1-.533.145c-.172-.078-.266-.296-.213-.493.058-.207.232-.321.457-.297.186.02.33.183.342.38.004.048-.005.066-.056.064-.094-.004-.188-.001-.283-.001m9.142-.028a.274.274 0 0 0-.27-.28.275.275 0 0 0-.284.28.28.28 0 0 0 .278.278.277.277 0 0 0 .276-.278m-.009-.317c-.014-.092.042-.08.095-.08.073 0 .045.052.045.084.002.205.002.41 0 .615 0 .032.03.085-.04.091-.056.003-.11.007-.103-.077-.26.142-.455.12-.599-.068a.42.42 0 0 1 .025-.533c.147-.16.351-.176.577-.032m-1.629.036a.28.28 0 0 0-.275.28c0 .154.125.28.276.279a.272.272 0 0 0 .27-.276.274.274 0 0 0-.27-.283m0 .69a.407.407 0 0 1-.417-.414.41.41 0 0 1 .412-.413.402.402 0 0 1 .414.416.398.398 0 0 1-.409.41m4.592-.689a.278.278 0 0 0-.275.279c0 .152.119.276.267.28a.275.275 0 0 0 .279-.276.28.28 0 0 0-.271-.283m.002-.137a.407.407 0 0 1 .409.423.401.401 0 0 1-.417.404c-.234-.001-.41-.178-.41-.413s.183-.416.418-.414m-10.323.137a.276.276 0 0 0-.272.28.274.274 0 0 0 .267.279.277.277 0 0 0 .278-.277.28.28 0 0 0-.273-.282m-.002.69a.4.4 0 0 1-.41-.42.405.405 0 0 1 .413-.407c.238 0 .41.178.41.42a.398.398 0 0 1-.413.407m12.767-.716c.095-.073.176-.114.276-.11.137.005.249.089.273.224.034.18.014.364.017.546 0 .065-.053.033-.083.039-.04.008-.055-.01-.054-.051 0-.136-.003-.273-.006-.41-.004-.142-.051-.208-.154-.216a.234.234 0 0 0-.248.189c-.028.136-.011.272-.013.409-.001.05 0 .084-.07.082-.062-.001-.074-.02-.073-.078.004-.213.002-.427.002-.641 0-.038-.013-.083.055-.074.047.005.107-.013.078.09m-13.662.717c-.204 0-.372-.12-.418-.3a.42.42 0 0 1 .194-.47c.168-.095.417-.07.543.056.072.072.067.1-.014.14-.045.022-.055-.014-.075-.032a.322.322 0 0 0-.408-.03.277.277 0 0 0-.042.407.306.306 0 0 0 .442.012c.052-.054.082-.033.127-.004.037.024.026.041.006.068-.071.096-.203.154-.355.153m16.998-.266.185-.427c.053-.12.053-.12.196-.108l-.134.314c-.098.224-.2.446-.292.672-.028.07-.07.075-.13.073-.044-.001-.049-.017-.033-.051.035-.08.07-.162.107-.242a.128.128 0 0 0 0-.12c-.088-.19-.172-.382-.257-.575-.01-.023-.027-.044-.023-.071.134-.013.134-.013.188.106l.193.429M7.74 20.858c.112-.037.162.008.198.104.051.135.117.264.177.396.002.005.007.01.017.021l.186-.427c.05-.115.05-.115.19-.096-.06.143-.122.282-.184.423l-.253.577c-.02.047-.107.077-.147.054-.027-.017-.009-.035-.002-.052.032-.078.065-.157.102-.233a.133.133 0 0 0 .001-.127c-.097-.21-.19-.425-.285-.64m7.725-.003c-.124.28-.243.555-.362.828l-.052.117c-.053.12-.053.12-.195.107.04-.09.075-.18.117-.265a.168.168 0 0 0 0-.16c-.083-.18-.163-.362-.242-.545-.011-.025-.057-.07-.014-.082s.112-.038.145.04c.058.14.122.276.184.414l.037.076.185-.422c.052-.121.052-.121.197-.108m-10.033.278c-.004.082.008.179-.015.274-.043.174-.164.257-.365.248-.168-.007-.286-.111-.307-.276-.022-.162-.006-.325-.01-.487-.003-.06.04-.042.07-.043.033-.001.07-.011.068.046 0 .145 0 .29.006.436.005.118.082.186.2.188.124.002.202-.063.208-.188.008-.138.007-.28.003-.418 0-.054.015-.068.067-.066.048.002.082 0 .076.066-.006.068 0 .137 0 .22m10.906.303c.03.023.06.052.095.07.064.035.14.013.17-.046.033-.068-.01-.106-.06-.137-.044-.028-.091-.05-.133-.078-.116-.077-.152-.204-.09-.31.06-.106.203-.14.324-.074.02.01.04.02.056.038.018.02.077.027.033.074-.031.032-.056.097-.116.029a.14.14 0 0 0-.084-.04c-.043-.005-.08.007-.101.047-.024.044-.003.079.03.104.047.033.098.059.147.089.134.083.178.213.11.332-.062.114-.212.156-.343.097-.131-.058-.138-.097-.038-.195"/><path d="M.2.69c.048.034.082.079.141.087C.402.785.448.765.473.709.498.652.464.616.421.587.374.557.322.533.274.502.158.423.124.299.187.192.25.085.387.053.51.119a.32.32 0 0 1 .064.042C.6.18.637.198.594.238.561.266.543.323.488.264A.154.154 0 0 0 .407.222C.36.212.321.223.298.267S.295.347.33.371c.05.035.102.062.153.093.093.057.147.133.13.247a.22.22 0 0 1-.17.193C.328.932.221.909.145.817.088.748.187.737.2.69" mask="url(#b)" transform="translate(4 20.743)"/><path d="M12.494 20.854c.133-.013.133-.013.188.106.056.122.113.243.17.363.002.005.007.009.015.017.044-.047.057-.108.084-.162.036-.071.073-.142.098-.217.032-.097.086-.14.192-.104.01.014-.004.027-.01.04l-.314.683c-.01.023-.012.059-.052.058-.034-.002-.036-.034-.046-.055l-.314-.681c-.007-.015-.018-.03-.01-.048m10.747-.157a3 3 0 0 1-.054-.012c-.036-.01-.08-.028-.105.004-.032.04-.021.094-.012.14.006.037.047.015.073.018.04.004.083-.013.083.06-.001.066-.033.07-.08.063-.07-.01-.083.02-.082.085.005.174-.001.348.004.522 0 .058-.025.062-.071.062-.048.001-.071-.005-.07-.063.004-.18 0-.359.002-.539 0-.04 0-.074-.057-.067-.05.007-.043-.03-.043-.062-.001-.03-.005-.067.045-.06.047.007.059-.015.055-.057a.822.822 0 0 1 0-.086.184.184 0 0 1 .282-.148c.052.035.009.09.03.14m-6.277.613c0-.09-.003-.182 0-.272.003-.051-.01-.076-.065-.067-.046.007-.071-.004-.072-.061 0-.061.028-.068.073-.061.054.009.07-.014.065-.065-.004-.05.002-.098-.002-.146-.004-.054.01-.075.069-.073.054 0 .08.012.073.07-.004.026 0 .052-.001.077-.007.084-.011.16.114.138.055-.01.034.039.037.065.002.028.006.065-.04.055-.12-.024-.114.05-.112.133.004.159-.002.319.003.479.002.064-.035.056-.075.057s-.071.002-.068-.055c.004-.09 0-.182 0-.273m-9.435-.223c0-.154.002-.308-.001-.462-.002-.057.017-.071.072-.07.05.001.069.011.069.065-.003.32-.004.639 0 .957 0 .061-.028.061-.073.062-.05.002-.07-.009-.068-.065.003-.162 0-.325 0-.487m10.725.163v-.333c0-.022-.016-.061.019-.065.04-.006.097-.027.118.011.023.04.03.025.05.007a.189.189 0 0 1 .145-.042c.035.005.095.011.086.046-.01.039-.02.11-.103.094-.08-.016-.118.045-.143.107-.032.077-.027.161-.028.244-.001.082-.003.165 0 .247.003.054-.01.075-.07.074-.056 0-.078-.012-.075-.075.005-.105 0-.211 0-.315m-8.915-.009.001-.325c0-.023-.016-.06.017-.065.04-.005.098-.028.116.013.021.045.031.025.051.01a.19.19 0 0 1 .175-.04c.024.005.07.01.058.044-.01.036-.023.087-.074.092-.139.017-.175.053-.192.193a2.538 2.538 0 0 0-.01.41c.002.062-.026.064-.076.065-.05.002-.069-.01-.067-.065.004-.11.001-.222.001-.332m17.054-.001.001-.324c0-.023-.016-.06.017-.065.04-.005.098-.028.116.013.021.045.031.025.051.01a.192.192 0 0 1 .176-.04c.023.005.068.008.057.044-.01.037-.024.087-.074.092-.137.018-.176.055-.192.193a2.79 2.79 0 0 0-.01.41c.002.063-.027.064-.076.065-.05.002-.069-.01-.067-.065.004-.11.001-.222.001-.333m-12.154.001v-.324c0-.023-.015-.062.018-.066.039-.006.099-.028.116.012.022.051.034.02.05.007a.196.196 0 0 1 .169-.038c.026.007.075.01.059.052-.013.034-.022.085-.078.086-.112.004-.154.037-.18.15-.03.14-.008.283-.014.425-.001.05.015.097-.072.095-.09 0-.067-.053-.068-.1v-.299"/><path d="M.45.745C.396.745.367.702.39.645.416.585.448.523.468.459c.02-.063.048-.06.1-.036.056.025.063.048.03.099C.557.58.528.645.494.708.486.725.48.746.45.745" mask="url(#c)" transform="translate(8.196 21.01)"/><path d="M.434.745C.396.743.367.702.387.653.417.582.45.513.474.44.495.381.528.405.56.423.587.44.644.44.606.503.564.57.53.641.492.712.483.729.475.748.434.745" mask="url(#d)" transform="translate(15.152 21.009)"/></g><path d="M26.303 18.333a.674.674 0 0 1 .832-.648c.284.071.437.344.366.654a.676.676 0 0 1-.835.497c-.235-.065-.365-.245-.363-.503m-2.92-.277h-.47c-.03 0-.066.01-.043-.047.075-.185.307-.337.532-.344a.511.511 0 0 1 .5.305c.037.08.034.086-.058.086zm-8.998.068h-.47c-.032 0-.068.006-.04-.048a.594.594 0 0 1 .534-.338.494.494 0 0 1 .49.292c.045.09.04.094-.061.094zm4.991-.068h-1.065c.041-.206.291-.384.543-.391a.504.504 0 0 1 .522.39m-11.196.069c.065-.219.293-.379.542-.388a.512.512 0 0 1 .505.323c.01.023.05.066-.024.066H8.18m17.065-.663c-.003.008.002.02-.013.02l.004-.028.01.008m-5.186 4.039c-.165-.001-.272-.105-.27-.265a.27.27 0 0 1 .28-.271.26.26 0 0 1 .268.271c0 .162-.11.267-.278.265m7.172 0c-.162-.001-.275-.11-.272-.265a.275.275 0 0 1 .282-.271.257.257 0 0 1 .266.27c0 .168-.103.268-.276.266m-21.215-.536a.274.274 0 0 1 .275.277.28.28 0 0 1-.273.283.275.275 0 0 1-.278-.276.273.273 0 0 1 .276-.284m.963 0c.157 0 .278.119.28.274a.283.283 0 0 1-.28.285.27.27 0 0 1-.271-.28.27.27 0 0 1 .272-.28m13.784.178c.043-.11.112-.168.22-.177a.253.253 0 0 1 .25.115c.013.023.047.06-.018.062-.148.002-.295 0-.452 0m4.874 0c.049-.194.322-.244.453-.08.015.019.038.043.025.068-.012.025-.041.012-.062.012h-.416m-1.789 0c.042-.113.114-.17.221-.177a.254.254 0 0 1 .248.117c.025.039.028.062-.03.06h-.44m-10.132 0c-.063 0-.125-.001-.188 0-.05.003-.052-.018-.03-.055a.24.24 0 0 1 .227-.124.252.252 0 0 1 .226.13c.021.037.012.05-.03.05-.068-.002-.137-.001-.205-.001m-3.297 0c-.158 0-.307.002-.456-.001-.055-.001-.027-.035-.014-.057a.24.24 0 0 1 .244-.12.248.248 0 0 1 .226.178m8.958.104a.277.277 0 0 1-.276.278.28.28 0 0 1-.278-.279.275.275 0 0 1 .283-.28.274.274 0 0 1 .271.281m-1.638-.281a.274.274 0 0 1 .27.283.272.272 0 0 1-.269.276.278.278 0 0 1-.276-.28.28.28 0 0 1 .275-.28m4.593.001a.28.28 0 0 1 .27.283.275.275 0 0 1-.278.276.278.278 0 0 1-.267-.28.278.278 0 0 1 .275-.28m-10.321.001a.28.28 0 0 1 .273.282.277.277 0 0 1-.278.277.274.274 0 0 1-.267-.278.276.276 0 0 1 .272-.281" fill="#fdfefe"/></g></svg>