<svg width="36" height="36" fill="none" xmlns="http://www.w3.org/2000/svg"><path d="M18 0c2.837 0 5.52.656 7.907 1.825C31.884 4.753 36 10.895 36 18c0 9.942-8.058 18-18 18-9.94 0-18-8.057-18-18C0 8.06 8.06 0 18 0z" fill="#F2F4F7"/><path d="M14.98 15.792v.89h1.847v.861H14.98v1.678h-1.031v-4.32h2.878v.891H14.98zm3.282-.467a.549.549 0 0 1-.351.506.59.59 0 0 1-.222.043.561.561 0 0 1-.574-.55.531.531 0 0 1 .165-.387.65.65 0 0 1 .183-.119.548.548 0 0 1 .226-.04.598.598 0 0 1 .406.158.555.555 0 0 1 .168.39zm-.072.858h-1.002v3.038h1.001v-3.038zm2.332.897a1.12 1.12 0 0 0-.288-.196.795.795 0 0 0-.348-.079.61.61 0 0 0-.26.055.192.192 0 0 0-.118.189c0 .085.043.146.131.183.138.052.28.092.424.122.119.025.235.06.348.104.113.043.218.102.314.176a.79.79 0 0 1 .311.647.912.912 0 0 1-.418.806c-.128.082-.27.142-.418.176a2.012 2.012 0 0 1-.464.055c-.248 0-.494-.04-.729-.119a1.53 1.53 0 0 1-.595-.35l.562-.592c.094.1.205.183.33.243.128.065.27.099.414.098a.54.54 0 0 0 .24-.058.208.208 0 0 0 .12-.204c0-.094-.049-.163-.146-.208a2.644 2.644 0 0 0-.458-.141 2.37 2.37 0 0 1-.318-.098 1 1 0 0 1-.283-.165.784.784 0 0 1-.284-.622.888.888 0 0 1 .415-.78c.124-.083.261-.144.406-.18.144-.038.292-.056.44-.056.227 0 .453.035.668.106.206.064.395.173.553.32l-.55.567zm2.758 0a1.125 1.125 0 0 0-.289-.196.79.79 0 0 0-.347-.079.61.61 0 0 0-.26.055.193.193 0 0 0-.119.189c0 .085.044.146.131.183.139.051.28.092.424.122.119.025.235.06.348.104.113.043.219.102.314.176a.79.79 0 0 1 .311.647.908.908 0 0 1-.418.806 1.313 1.313 0 0 1-.417.176 2.013 2.013 0 0 1-.464.055c-.248 0-.494-.04-.73-.119a1.53 1.53 0 0 1-.594-.35l.561-.592c.094.1.206.183.33.243.128.065.27.099.415.098.083 0 .166-.02.24-.058a.208.208 0 0 0 .12-.204c0-.094-.05-.163-.147-.208-.148-.06-.3-.108-.457-.141a2.34 2.34 0 0 1-.319-.098 1 1 0 0 1-.282-.165.821.821 0 0 1-.205-.256.786.786 0 0 1-.08-.366.884.884 0 0 1 .117-.467.975.975 0 0 1 .299-.314c.124-.082.261-.143.405-.18a1.73 1.73 0 0 1 .441-.055c.227 0 .453.035.669.106.205.064.394.173.552.32l-.55.567zm1.839-1.755a.555.555 0 0 1-.35.506.593.593 0 0 1-.222.043.562.562 0 0 1-.532-.34.523.523 0 0 1-.042-.21.537.537 0 0 1 .165-.387.551.551 0 0 1 .409-.16.6.6 0 0 1 .405.16.518.518 0 0 1 .166.389zm-.073.858h-1v3.038h1v-3.038zm3.604 1.507c.003.231-.042.461-.134.674-.085.194-.21.369-.366.512a1.667 1.667 0 0 1-.537.327c-.42.154-.883.154-1.303 0a1.626 1.626 0 0 1-.537-.327 1.527 1.527 0 0 1-.363-.512 1.646 1.646 0 0 1-.134-.675c-.004-.23.042-.46.134-.671a1.504 1.504 0 0 1 .9-.825 1.99 1.99 0 0 1 1.303 0c.198.07.38.178.537.318.156.141.28.314.366.507.092.212.138.44.134.671zm-.964 0a.866.866 0 0 0-.049-.287.715.715 0 0 0-.367-.421.754.754 0 0 0-.622 0 .684.684 0 0 0-.357.42.925.925 0 0 0 0 .575c.03.092.076.177.137.253a.672.672 0 0 0 .226.18.756.756 0 0 0 .622 0 .674.674 0 0 0 .226-.18.792.792 0 0 0 .137-.253.924.924 0 0 0 .047-.288zm3.111 1.531v-1.66c0-.081-.007-.163-.021-.244a.683.683 0 0 0-.071-.204.368.368 0 0 0-.137-.142.437.437 0 0 0-.223-.052.472.472 0 0 0-.403.195.646.646 0 0 0-.1.211.897.897 0 0 0-.034.248v1.648h-1.006v-3.04h.97v.422h.012a1 1 0 0 1 .143-.192.872.872 0 0 1 .207-.161c.083-.046.17-.083.26-.11a.981.981 0 0 1 .3-.043c.178-.005.356.032.518.11a.993.993 0 0 1 .344.283c.09.119.154.255.19.4.038.147.057.298.057.45v1.881h-1.006zM15.7 20.298h.348c.047 0 .093.004.139.01a.484.484 0 0 1 .106.028.274.274 0 0 1 .18.242.306.306 0 0 1-.154.318.872.872 0 0 1-.098.035l.315.52h-.26a.034.034 0 0 1-.022-.005.035.035 0 0 1-.015-.017c-.09-.162-.181-.323-.273-.484a.054.054 0 0 0-.019-.022v.502c0 .02-.006.027-.027.026h-.22v-1.153zm.247.497c.063-.006.124-.007.183-.017a.11.11 0 0 0 .098-.106c.01-.078-.015-.137-.074-.161a.524.524 0 0 0-.207-.024v.308zm-1.98-.495h.247v.672c0 .042.005.085.015.126a.202.202 0 0 0 .187.166.436.436 0 0 0 .13-.006c.093-.018.154-.089.169-.191a.819.819 0 0 0 .007-.107v-.659h.245v.734a.697.697 0 0 1-.024.165.347.347 0 0 1-.252.255.778.778 0 0 1-.451 0c-.158-.047-.24-.16-.264-.318a1.01 1.01 0 0 1-.01-.143v-.66l.001-.034zm5.085 1.156h-.224c-.005 0-.01-.007-.013-.013a.05.05 0 0 1 0-.017V20.3l.02-.002h.219c.011 0 .022.006.03.015.169.22.592.825.598.838-.004.008-.01-.843-.01-.852h.237v1.129c0 .02-.005.029-.027.028h-.197a.046.046 0 0 1-.031-.015c-.175-.226-.607-.84-.613-.853l.011.868zm-.804 0h-.259a.026.026 0 0 1-.03-.02l-.077-.206a.028.028 0 0 0-.031-.021h-.406a.024.024 0 0 0-.028.02c-.022.068-.045.134-.066.202-.006.018-.013.025-.033.025h-.239a13328.62 13328.62 0 0 1 .43-1.138.027.027 0 0 1 .012-.015.027.027 0 0 1 .018-.005h.243a.025.025 0 0 1 .028.02l.43 1.114a.32.32 0 0 0 .008.024zm-.597-.954c-.03.177-.106.339-.156.51h.319c-.055-.171-.13-.33-.163-.508v-.002zm3.899-.208h.245v.668c0 .05.008.1.022.148a.2.2 0 0 0 .185.147.39.39 0 0 0 .104 0c.114-.019.18-.094.193-.216a.764.764 0 0 0 .005-.086v-.66h.244v.015c0 .247 0 .497-.002.745a.534.534 0 0 1-.023.142.361.361 0 0 1-.289.263.829.829 0 0 1-.374-.001.372.372 0 0 1-.303-.34.897.897 0 0 1-.007-.11v-.715zm-.7 1.155h-.245v-1.155h.245v1.155zm3.458-.917c.036.297.071.604.109.912h.242l-.181-1.186h-.264l-.007.023c-.086.272-.195.537-.258.81a1.354 1.354 0 0 0-.03-.135c-.073-.227-.15-.451-.22-.68a.025.025 0 0 0-.01-.015.025.025 0 0 0-.02-.004h-.224c-.007 0-.013 0-.02.002l-.181 1.184h.242l.106-.919.004.017c.011.048.02.097.035.144l.241.742a.023.023 0 0 0 .01.015.023.023 0 0 0 .017.004h.102c.016 0 .023-.005.028-.02.039-.12.08-.238.117-.358.057-.182.132-.359.162-.536z" fill="#58595B"/><path d="M24.308 20.532c-.03.177-.106.354-.163.536-.037.12-.078.238-.117.357-.005.016-.012.022-.028.02h-.102a.023.023 0 0 1-.023-.01.023.023 0 0 1-.004-.008c-.08-.247-.161-.494-.24-.742-.016-.047-.024-.096-.036-.144a.041.041 0 0 0-.004-.017l-.106.92h-.243l.18-1.185.021-.002h.225a.024.024 0 0 1 .019.004.024.024 0 0 1 .01.016c.073.226.149.452.222.68.012.044.022.089.03.135.063-.274.172-.539.258-.811l.007-.023h.264l.18 1.186h-.241l-.109-.912zm3.842.923a.589.589 0 1 1 .599-.59.595.595 0 0 1-.599.59zm.354-.61a.84.84 0 0 0-.025-.114.343.343 0 0 0-.565-.15c-.11.102-.138.232-.11.374.064.315.402.347.562.212.094-.078.133-.18.137-.322zm-1.434-.26a1.735 1.735 0 0 0-.153-.085.421.421 0 0 0-.456.089.378.378 0 0 0-.095.247.446.446 0 0 0 .045.238.323.323 0 0 0 .269.173.482.482 0 0 0 .389-.123v.222a.038.038 0 0 1-.015.027c-.214.121-.563.121-.77-.09a.576.576 0 0 1-.162-.484.571.571 0 0 1 .538-.517.8.8 0 0 1 .397.064.03.03 0 0 1 .021.035l-.007.185v.02zm2.528.865h-.248v-1.148h.022c.114 0 .228-.003.343 0a.82.82 0 0 1 .19.026c.149.04.223.152.217.314a.293.293 0 0 1-.242.282l-.013.005.315.52-.028.001h-.23a.036.036 0 0 1-.021-.005.036.036 0 0 1-.014-.016l-.271-.481a.06.06 0 0 0-.02-.023v.525zm.002-.96v.306c.064-.006.126-.009.187-.02a.105.105 0 0 0 .09-.098.316.316 0 0 0-.002-.08.11.11 0 0 0-.08-.09.596.596 0 0 0-.195-.019zm1.46.522v.438h-.247v-1.146l.007-.003c.125 0 .251 0 .377.006a.53.53 0 0 1 .141.03.273.273 0 0 1 .191.218.456.456 0 0 1 0 .188c-.033.147-.132.225-.272.255-.05.008-.1.013-.15.014-.013.001-.029 0-.047 0zm.003-.53v.336c.088.012.169-.012.197-.063a.197.197 0 0 0 0-.209c-.044-.071-.123-.061-.198-.064zm.801.724a.136.136 0 0 1 .097.23.135.135 0 0 1-.096.038.132.132 0 0 1-.1-.036.137.137 0 0 1-.041-.098.135.135 0 0 1 .141-.134z" fill="#58595B"/><path d="M9.164 18.01v.005l2.535-1.487-1.328-.794-1.207.705v1.57z" fill="#D3E27E"/><path d="M9.164 17.972v.037a1.358 1.358 0 0 1-.644 1.156l2.53 1.461v-1.545l-1.886-1.11z" fill="#8DC63F"/><path d="M7.804 19.369c-.234 0-.464-.061-.668-.177v2.895l1.363-.731v-2.178c-.21.125-.45.191-.695.191z" fill="#21A567"/><path d="M6.445 18.023 4 19.457l1.327.794 1.811-1.056a1.359 1.359 0 0 1-.693-1.172z" fill="#42A2C3"/><path d="M7.136 14.75v3.24a.695.695 0 0 0 1.39 0V14l-1.39.75z" fill="#006894"/><path d="M6.445 16.396 4.649 15.36v1.545l1.796 1.056v-1.564z" fill="#007DB0"/></svg>