<svg width="36" height="36" fill="none" xmlns="http://www.w3.org/2000/svg"><path d="M18 0c2.837 0 5.52.656 7.907 1.825C31.884 4.753 36 10.895 36 18c0 9.942-8.058 18-18 18-9.94 0-18-8.057-18-18C0 8.06 8.06 0 18 0z" fill="#F2F4F7"/><path fill-rule="evenodd" clip-rule="evenodd" d="M6.374 18.277H4.758v-.163c0-.266.216-.482.482-.482h1.997V17H5.145C4.514 17 4 17.514 4 18.145v1.653h.758v-.932h1.616v-.589zm9.018-1.27h-.758v1.696c0 .307-.367.497-.958.497-.59 0-.958-.19-.958-.497v-1.697h-.758v1.784c0 .6.69 1.004 1.716 1.004 1.027 0 1.716-.404 1.716-1.004v-1.784zm1.339 0h.758v2.71h-.758v-2.71z" fill="#001A70"/><path d="M20.727 17.006h-1.9v2.712h1.99c.427 0 .823-.122 1.115-.343.339-.254.51-.585.51-.984 0-.841-.673-1.385-1.715-1.385zm.923 1.374c0 .149-.058.3-.162.426a.947.947 0 0 1-.716.322h-1.187v-1.531h1.183c.511 0 .882.33.882.783zm5.443-.393v-.078c0-.54-.436-.903-1.086-.903H23.7v2.712h.758v-.855l1.293.001c.041.002.094.002.154 0 .251.002.408.114.408.295v.558h.75v-.54a.828.828 0 0 0-.22-.577c.166-.149.25-.355.251-.613zm-2.636-.39h1.474c.253 0 .412.112.412.294v.076c-.002.195-.15.307-.408.307h-1.477v-.677z" fill="#001A70"/><path fill-rule="evenodd" clip-rule="evenodd" d="M9.014 18.563v-1.557H8.26v1.531c0 .642.522 1.164 1.163 1.164h1.704v-.677H9.46a.46.46 0 0 1-.446-.46z" fill="#001A70"/><path d="m31.87 18.854.037-.023-.284-.473-.037.022a2.486 2.486 0 0 1-.253.137l-.84-1.503h-.874l-1.51 2.696h.774l.108-.193c.41-.562 1.032-.501 1.592-.4a2.114 2.114 0 0 0 .332.04l.31.552H32l-.396-.71c.08-.038.168-.086.266-.145zm-1.82-1.233.528.935a3.44 3.44 0 0 0-.587-.057c-.148 0-.305.013-.463.047l.522-.925z" fill="#001A70"/></svg>