<svg width="36" height="36" fill="none" xmlns="http://www.w3.org/2000/svg"><path d="M18 0c2.837 0 5.52.656 7.907 1.825C31.884 4.753 36 10.895 36 18c0 9.942-8.058 18-18 18-9.94 0-18-8.057-18-18C0 8.06 8.06 0 18 0z" fill="#F2F4F7"/><path d="M18.275 16.131v3.76a.53.53 0 0 1-.52.535.532.532 0 0 1-.534-.535v-3.76h-2.568a1.57 1.57 0 0 0-1.605 1.574c0 .887.718 1.575 1.605 1.605h.978c.29 0 .52.23.52.52a.53.53 0 0 1-.52.535h-.978a2.672 2.672 0 0 1-2.614-2.66 2.622 2.622 0 0 1 2.599-2.629h4.722c.306 0 .52.23.52.535a.53.53 0 0 1-.52.535l-1.085-.015zM5.055 19.89a.53.53 0 0 1-.52.536C4.245 20.41 4 20.18 4 19.89v-4.295c0-.29.23-.535.52-.535h2.476c.29 0 .535.23.535.52 0 .29-.245.535-.535.535H5.055v3.775zm.733-2.766a.454.454 0 0 0-.474.459c0 .26.214.458.459.458H6.95a.45.45 0 0 0 .458-.458.45.45 0 0 0-.458-.459H5.788zm4.096 1.437c.26 0 .474.199.474.459s-.214.458-.474.458h-.642a.463.463 0 0 1-.473-.458c0-.26.214-.474.473-.459h.642zM8.6 16.27l-1.635 3.377a.53.53 0 0 0 .245.703.53.53 0 0 0 .703-.244l1.635-3.378 1.635 3.378c.123.26.444.367.704.244a.53.53 0 0 0 .244-.703l-1.62-3.377-.504-1.024S9.9 15 9.548 15a.507.507 0 0 0-.458.245l-.49 1.024zm15.086 2.75a1.33 1.33 0 0 1-1.33 1.33h-1.85a.542.542 0 0 1-.534-.536c0-.29.244-.504.535-.535h1.757a.273.273 0 0 0 .306-.275c0-.107-.046-.198-.122-.244l-2.033-1.376c-.122-.107-.443-.305-.443-.932 0-.78.626-1.406 1.406-1.406h1.528c.29 0 .535.23.535.535a.52.52 0 0 1-.535.52h-1.559c-.168 0-.306.152-.306.32 0 .107.031.138.092.214l2.064 1.437c.305.214.489.505.489.948zm3.454-1.91a.45.45 0 0 1 .458.458.45.45 0 0 1-.458.458h-1.177a.45.45 0 0 1-.459-.458c0-.26.199-.459.474-.459h1.162zm-2.965-1.514c0-.29.229-.535.52-.52h6.77c.306 0 .52.23.52.535a.53.53 0 0 1-.52.535h-1.1v3.745a.53.53 0 0 1-.52.535.532.532 0 0 1-.535-.535v-3.76h-4.08v3.164h1.94c.29 0 .535.244.535.535 0 .29-.244.535-.535.535h-2.476a.542.542 0 0 1-.535-.535l.016-4.234zm7.305 4.83a.528.528 0 0 1-.52-.535c0-.29.23-.535.52-.535.29 0 .52.244.52.535a.53.53 0 0 1-.52.535zm0-1.009a.463.463 0 0 0-.458.474c0 .26.199.458.458.458a.46.46 0 0 0 .459-.458c0-.245-.214-.474-.459-.474zm.092.52.107.229h-.076l-.092-.214h-.138v.214h-.06V19.6h.198c.122 0 .183.092.183.184-.015.061-.046.138-.122.153zm-.076-.26h-.123v.214h.123c.091 0 .122-.061.122-.107 0-.061-.03-.107-.122-.107z" fill="#00AEEF"/></svg>