<svg width="36" height="36" fill="none" xmlns="http://www.w3.org/2000/svg"><path d="M18 0c2.837 0 5.52.656 7.907 1.825C31.884 4.753 36 10.895 36 18c0 9.942-8.058 18-18 18-9.94 0-18-8.057-18-18C0 8.06 8.06 0 18 0z" fill="#F2F4F7"/><path d="M5.521 15.1c.267-.098.556-.106.837-.097.124.003.248.009.37.03a.541.541 0 0 1 .181.058c.05.029.084.086.079.144-.009.108-.015.217-.024.325-.007.062-.01.127-.04.182a.098.098 0 0 1-.088.05c-.216.002-.433-.034-.648-.003a.628.628 0 0 0-.415.224c-.125.161-.162.372-.17.571-.006.168-.002.336-.003.503h.875c.064.002.134.014.18.061.043.045.052.11.053.17v.337c0 .059-.012.123-.057.166-.05.048-.122.059-.189.06H5.6v2.94c0 .065-.018.14-.075.18-.051.037-.118.04-.18.039h-.488c-.06 0-.128-.015-.17-.063-.04-.046-.048-.11-.049-.168V17.88H4.24c-.06-.001-.128-.008-.175-.05-.05-.044-.063-.113-.065-.175v-.338a.23.23 0 0 1 .058-.17.237.237 0 0 1 .17-.06h.41c-.004-.368 0-.742.103-1.098.058-.205.151-.404.294-.566.13-.148.3-.259.486-.325zm25.403-.094c.048-.006.108-.015.146.022.03.038.026.092.029.138v4.48c.003.132.006.266.038.396a.415.415 0 0 0 .133.231c.082.065.19.084.291.085.098.004.195-.016.293-.005.053.006.081.059.089.106.018.118.034.236.05.355.008.048.015.102-.013.145-.042.069-.123.1-.197.12-.16.038-.326.04-.49.037a1.417 1.417 0 0 1-.636-.149.851.851 0 0 1-.343-.344 1.548 1.548 0 0 1-.162-.56c-.031-.262-.024-.527-.025-.79v-3.829c0-.062.002-.13.042-.18.043-.056.113-.08.178-.1.192-.056.382-.116.577-.158zm-6.536.401a.599.599 0 0 1 .584.262c.1.148.12.346.051.51a.59.59 0 0 1-.989.16.613.613 0 0 1-.055-.669.537.537 0 0 1 .409-.263zM7.5 17.286c.324-.213.722-.282 1.103-.275.346.005.704.072.995.267.173.115.315.275.414.458.112.205.175.433.21.664.031.22.042.442.03.664-.01.104-.023.216-.09.3-.056.069-.147.092-.232.092H7.753c.003.202.024.42.149.587.116.157.307.236.494.271a2.79 2.79 0 0 0 1.275-.09c.062-.017.124-.043.19-.045.046.009.075.051.1.087.063.1.105.21.14.323.016.057.034.124-.003.178-.055.084-.15.129-.24.168a2.66 2.66 0 0 1-.695.16 3.884 3.884 0 0 1-.86-.004 2.21 2.21 0 0 1-.708-.192 1.315 1.315 0 0 1-.426-.321 1.475 1.475 0 0 1-.282-.516 2.931 2.931 0 0 1-.125-.778c-.017-.418.009-.847.156-1.243.112-.303.31-.579.583-.755zm.872.515a.647.647 0 0 0-.452.264c-.138.204-.164.46-.166.7h1.548a1.616 1.616 0 0 0-.045-.471.67.67 0 0 0-.283-.403c-.179-.11-.4-.12-.602-.09zm3.616-.736c.28-.059.568-.065.851-.043.09.01.184.02.263.068a.119.119 0 0 1 .055.122c-.018.145-.05.287-.072.432-.011.058-.029.128-.088.156-.062.025-.13.005-.194 0-.323-.04-.664.005-.946.173v2.835c-.001.061-.011.128-.054.174a.224.224 0 0 1-.162.058h-.536c-.06 0-.127-.016-.167-.065-.04-.05-.043-.117-.045-.178v-3.233a2.63 2.63 0 0 1 1.095-.5zm2.595.015a2.71 2.71 0 0 1 .653-.069c.136.001.273.004.406.031.059.014.122.032.162.08.024.031.023.072.018.109-.02.131-.046.262-.067.393-.01.052-.02.107-.054.148a.126.126 0 0 1-.104.04c-.086-.003-.17-.02-.256-.023a1.443 1.443 0 0 0-.817.184v2.824c-.001.063-.008.13-.05.18-.041.048-.108.063-.168.063h-.538c-.065 0-.138-.021-.174-.08-.04-.066-.033-.147-.034-.221v-3.176a2.603 2.603 0 0 1 1.023-.482zm2.915-.056c.25-.021.503-.018.752.015.234.034.468.1.672.223.135.08.256.187.353.311.13.165.218.359.276.559.066.227.095.463.108.698.012.304.004.61-.049.909-.06.343-.19.69-.445.939-.151.15-.342.258-.544.325a2.42 2.42 0 0 1-.686.112 3.02 3.02 0 0 1-.756-.06 1.585 1.585 0 0 1-.552-.232 1.3 1.3 0 0 1-.395-.429 2.023 2.023 0 0 1-.23-.677 4.317 4.317 0 0 1-.035-1.028c.032-.377.119-.764.344-1.076.175-.246.44-.418.728-.502a2.26 2.26 0 0 1 .46-.087zm.164.769a.797.797 0 0 0-.38.116.616.616 0 0 0-.229.307 1.943 1.943 0 0 0-.097.556 5.04 5.04 0 0 0 .02.815c.024.17.06.343.156.489a.56.56 0 0 0 .3.224c.15.048.31.053.468.047.163-.008.335-.04.466-.143a.684.684 0 0 0 .22-.353c.06-.21.073-.43.08-.648.002-.297.004-.6-.072-.89-.045-.173-.14-.346-.304-.431-.192-.1-.417-.102-.628-.09zm9.14-.715c.263-.064.534-.075.803-.063.445.02.89.109 1.296.298.076.036.152.076.223.123v2.418c.002.116-.01.236.031.346.025.067.08.122.15.141.113.036.232.002.348.011.055.004.084.058.092.107.023.128.042.256.058.384a.163.163 0 0 1-.027.124.335.335 0 0 1-.18.108 1.495 1.495 0 0 1-.42.042.815.815 0 0 1-.514-.178.716.716 0 0 1-.229-.356c-.249.296-.624.466-1.003.517-.243.03-.492.023-.731-.031a1.34 1.34 0 0 1-.549-.26 1.329 1.329 0 0 1-.342-.426c-.11-.21-.172-.44-.209-.674a4.253 4.253 0 0 1-.034-.879c.025-.377.1-.762.297-1.09.097-.158.223-.298.373-.407.17-.123.365-.206.567-.255zm.117.821c-.16.091-.253.262-.297.436-.07.283-.069.578-.068.868.007.254.021.516.122.753a.612.612 0 0 0 .362.35c.194.063.406.054.602.003a.835.835 0 0 0 .503-.37c.017-.025.008-.056.01-.085v-1.922a1.645 1.645 0 0 0-.574-.14c-.223-.013-.462-.007-.66.107zm-7.079-.749c.035-.046.098-.063.155-.063h.617c.078 0 .163.023.213.086.057.074.077.168.108.254l.785 2.384.85-2.494c.024-.069.05-.144.112-.189.062-.043.14-.042.213-.04.174 0 .348-.002.523 0 .098.003.181.11.14.206-.077.21-.164.418-.245.628l-1.143 2.907c-.023.058-.045.12-.09.165-.04.038-.098.046-.151.046h-.467a.245.245 0 0 1-.179-.063c-.066-.067-.091-.16-.126-.246l-1.258-3.223c-.026-.073-.064-.142-.08-.218-.01-.047-.008-.1.023-.14zm4.346-.06c.178-.005.355-.001.533-.003.065-.002.137.01.184.058.047.049.058.12.06.184v3.48c-.002.066-.015.141-.07.186-.05.043-.122.046-.186.045h-.5c-.065-.001-.136-.024-.172-.082-.04-.062-.036-.138-.036-.208v-3.408c0-.064.007-.133.048-.184a.199.199 0 0 1 .14-.069z" fill="#EBB701"/></svg>