<svg width="36" height="36" fill="none" xmlns="http://www.w3.org/2000/svg"><path d="M18 0c2.837 0 5.52.656 7.907 1.825C31.884 4.753 36 10.895 36 18c0 9.942-8.058 18-18 18-9.94 0-18-8.057-18-18C0 8.06 8.06 0 18 0z" fill="#F2F4F7"/><path d="M17.578 22.426c.271.39.496.798.847 1.12a.899.899 0 0 1-.417.042c-.254-.03-.432-.186-.573-.402-.148-.225-.298-.448-.443-.675-.043-.067-.086-.098-.165-.094-.139.008-.278.003-.435.003.087-.16.165-.31.248-.457.008-.015.045-.016.069-.015.246.002.495.032.74.003a.34.34 0 0 0 .226-.544.369.369 0 0 0-.288-.148c-.385-.008-.77-.005-1.154-.006-.005 0-.01.006-.026.014v.087c0 .473-.004.945.002 1.417.003.19.024.379.047.566.01.073.046.14.071.215h-.717c.088-.246.086-.453.09-.686.008-.533.005-1.065.001-1.598a.967.967 0 0 0-.1-.457c.034-.005.007-.01.028-.01.565 0 1.13-.003 1.696.001.23.003.454.051.642.206.253.209.321.493.257.814-.061.313-.262.49-.541.575-.031.01-.062.017-.105.029zm8.012 0c.272.39.497.798.848 1.12a.898.898 0 0 1-.417.042c-.254-.03-.432-.186-.573-.402-.148-.225-.299-.448-.443-.675-.043-.067-.087-.098-.166-.094-.138.008-.277.003-.434.003.086-.16.164-.31.247-.457.009-.015.046-.016.07-.015.246.002.495.032.739.003a.34.34 0 0 0 .227-.544.37.37 0 0 0-.288-.148c-.385-.008-.77-.005-1.154-.006-.006 0-.01.006-.026.014v.087c0 .473-.004.945.002 1.417.003.19.024.379.047.566.009.073.046.14.071.215h-.717c.088-.246.086-.453.09-.686.008-.533.005-1.065.001-1.598a.965.965 0 0 0-.1-.457c.034-.005.007-.01.028-.01.565 0 1.13-.003 1.696.001.23.003.454.051.642.206.253.209.32.493.257.814-.062.313-.263.49-.541.575-.032.01-.062.017-.106.029zm-17.983.677v-.75c.367-.005.945.004 1.18.083v-.6c-.227.076-.81.08-1.181.072v-.67c.06 0 .86-.006 1.194.019a.498.498 0 0 1 .333.129c-.022-.317.01-.598.01-.598s-2.095-.004-2.13 0c.071.126.083.31.083.47v1.383c0 .307.02.539-.065.904-.004.005-.005.008-.003.008l2.101.001s-.044-.243.006-.587c-.244.191-.925.138-1.528.136zm5.827 0v-.75c.368-.005.946.004 1.18.083v-.6c-.226.076-.81.08-1.18.072l-.002-.67c.062 0 .86-.006 1.195.019a.498.498 0 0 1 .333.129 3.68 3.68 0 0 1 .01-.598s-2.095-.004-2.13 0c.072.126.083.31.083.47v1.383c0 .307.02.539-.065.904-.004.005-.005.008-.002.008l2.1.001s-.044-.243.006-.587c-.244.191-.924.138-1.528.136zm14.217 0v-.75c.368-.005.945.004 1.18.083v-.6c-.226.076-.81.08-1.181.072v-.67c.06 0 .859-.006 1.194.019a.499.499 0 0 1 .333.129c-.022-.317.01-.598.01-.598s-2.095-.004-2.13 0c.072.126.082.31.083.47v1.383c0 .307.02.539-.065.904-.004.005-.005.008-.003.008l2.1.001s-.043-.243.006-.587c-.243.191-.924.138-1.527.136zm2.813 0v-.75c.367-.005.945.004 1.18.083v-.6c-.227.076-.81.08-1.181.072l-.001-.67c.061 0 .86-.006 1.195.019a.497.497 0 0 1 .332.129c-.021-.317.011-.598.011-.598s-2.096-.004-2.13 0c.071.126.082.31.082.47v1.383c0 .307.021.539-.065.904-.003.005-.004.008-.002.008l2.1.001s-.043-.243.006-.587c-.244.191-.924.138-1.527.136zM11.91 21.86a12.5 12.5 0 0 1 .476-1.064h-.675c.055.182.004.346-.06.505a78.54 78.54 0 0 1-.634 1.52l-.627-1.48c-.071-.17-.123-.348-.08-.54h-.753c.1.193.21.375.293.57.156.363.308.728.458 1.094l.457 1.089h.451l.695-1.693zm11.203-1.569h-3.048c.04.191.05.361.03.617.157-.123.435-.123.607-.123h.583s.007 1.636 0 2.13c-.003.202-.018.433-.151.637h.937c-.134-.204-.149-.434-.152-.637-.007-.49 0-2.13 0-2.13h.555c.171 0 .45 0 .607.123a2.028 2.028 0 0 1 .032-.617zm-4.009 1.751a.687.687 0 0 1 .114-.05c.182-.057.374-.053.554-.042.104.007.215.017.32.007.064-.006.15-.01.28-.085-.009.135-.107.39-.272.495-.145.092-.34.104-.52.105-.17.002-.779-.012-.775-.018.074-.127.145-.328.3-.412zM4.707 20.776H5.7c.367.003.533.02.863.203-.022-.34.01-.612.021-.691h-2.56c.078.159.094.39.094.562v1.596l-.001.076c-.002.343-.003.697-.116 1.03h.819c-.138-.35-.137-.703-.136-1.076v-.397c.213-.01 1.203-.032 1.52.076v-.6c-.304.1-1.3.073-1.518.062 0-.423.002-.842.002-.842h.02zm16.596-6.739c.014-.135.13-.217.13-.217a.35.35 0 0 0-.347.254c0-.072.005-.112-.001-.181 0-.03-.005-.208-.058-.437.048.026.102.04.172-.022.112-.099-.04-.285-.057-.384-.017-.099.07-.189.07-.189-.194.055-.243.239-.255.35a1.784 1.784 0 0 0-.215-.464c.248-.01.14-.341.107-.47-.034-.134.012-.212.012-.212s-.15.11-.213.285a.485.485 0 0 0-.023.245c-.11-.147-.2-.2-.206-.192-.002 0 .29.291.436.763 0 0-.072-.152-.237-.16-.028 0-.084.005-.118-.011-.057-.027-.089-.08-.089-.08s-.016.068.017.154c.025.065.09.146.142.183.124.086.247.044.324.14 0 0 .205.272.016 1.192-.01-.167-.143-.224-.184-.263-.044-.042-.013-.118-.013-.118-.065.068-.101.179-.095.34.005.162.127.188.151.288.013.051-.012.182-.093.309a.954.954 0 0 1-.347.326c.057-.123.114-.266.144-.404.082-.36.102-.728.074-1.073a.151.151 0 0 0 .16-.049c.146-.157-.002-.37.142-.44 0 0-.282-.019-.328.27a2.934 2.934 0 0 0-.322-1.002c.12-.006.151-.086.16-.148.013-.081-.07-.203-.125-.302-.042-.076-.03-.177-.03-.177a.487.487 0 0 0-.12.444 1.652 1.652 0 0 0-.37-.376.617.617 0 0 0-.161-.096c-.007.005-.003.008.016.024.03.027.102.073.196.168-.056-.032-.09-.04-.169-.023-.127.027-.209.08-.267-.023-.004-.007.01.183.212.268.204.086.234-.068.321-.064.054.002.133.091.185.16a2.497 2.497 0 0 1 .278.638.396.396 0 0 0-.125-.152c-.114-.068-.243.006-.294-.158 0 0-.042.274.144.428.145.12.267.068.314.038.076.337.104.72.066 1.106a.241.241 0 0 0-.093-.134c-.118-.083-.152-.158-.156-.245 0 0-.023.099-.043.15-.021.051-.137.232-.008.386.096.115.194.118.246.114a2.549 2.549 0 0 1-.043.203c-.03.123-.064.234-.118.344.009-.139-.129-.237-.187-.282-.065-.05-.006-.164-.006-.164-.084.069-.135.147-.152.339-.017.192.107.228.153.29.024.035.002.139-.036.189-.14.187-.426.47-.961.665a.31.31 0 0 0 .166-.239c.023-.113-.013-.209-.013-.209-.025.144-.162.122-.322.175-.162.053-.158.226-.158.226.013.085.079.106.132.11-.048.01-.096.017-.146.022 0 0-.466.057-.466-.027s.106-.072.28-.175c.102-.06.323-.238.52-.472.032.048.11.137.225.088.15-.065.275-.295.42-.264 0 0-.212-.161-.468-.065a1.45 1.45 0 0 0 .089-.158l.022-.038.015-.035a1.05 1.05 0 0 0 .356-.263s.312-.368.33-.991c.012.016.035.024.072.023.184-.008.197-.234.189-.303-.014-.105.081-.177.081-.177s-.046.02-.114.034c-.04.009-.091.01-.152.044-.046.027-.067.054-.098.092-.056-.495-.242-.777-.24-.773-.012 0 .056.176.108.435a.184.184 0 0 0-.141-.066c-.1 0-.12.073-.215-.032 0 0-.008.274.153.344.107.047.179.043.228.03.007.011.055.176.017.493a1.45 1.45 0 0 1-.275.688.547.547 0 0 1-.219.182 2.968 2.968 0 0 0 .122-.655c.03-.009.194-.07.214-.254.022-.202.034-.245.123-.296-.002-.001-.25-.045-.349.153a4.558 4.558 0 0 0-.202-.872c.049.026.131.047.192-.056.05-.087-.002-.238-.023-.333-.021-.095.045-.179.045-.179-.21.028-.264.205-.281.306a1.266 1.266 0 0 1-.068-.56c.003-.02.01-.038.004-.04-.008-.002-.01.006-.016.019-.027.07-.066.34.037.687.033.135.07.288.106.449-.027-.047-.064-.084-.114-.083-.13.002-.157-.057-.174-.137 0 0-.07.308.093.445.12.101.202.027.237-.019a2.624 2.624 0 0 1-.017 1.127c-.004-.14-.117-.211-.14-.24-.028-.032-.023-.112-.023-.112-.061.063-.166.21-.14.374.026.164.174.191.204.205.008.003.024.012.015.033-.043.114-.066.152-.104.226a1.769 1.769 0 0 1-.191.273c-.205.213-.433.372-.597.435-.17.064-.121-.145-.091-.248.03-.102.064-.201.163-.247a.38.38 0 0 1 .066-.023c.018-.003.035-.003.046.003.036.02.107.08.234.033s.233-.218.261-.293c0 0-.093.05-.143.045-.055-.005-.106-.07-.21-.05a1.9 1.9 0 0 0 .148-.176c.163-.248.185-.621.187-.676.002-.056.015-.085.03-.099.042-.04.138-.091.13-.232-.002-.062-.061-.16-.13-.223-.087-.078-.14-.142-.121-.262 0-.006-.175.175-.109.384.053.167.159.271.14.456-.018.184-.055.41-.2.598a2.235 2.235 0 0 1-.399.359c-.041.017-.113-.017-.139-.087a.488.488 0 0 1-.026-.183c0-.065.009-.15.039-.182.03-.033.136-.125.21-.22l.003-.005c.037.022.166.079.27-.039.135-.151.055-.215.19-.25 0 0-.133-.067-.313.053a1.47 1.47 0 0 0 .141-.714 1.775 1.775 0 0 0-.065-.42.235.235 0 0 0 .18-.11c.072-.108.015-.254.005-.38-.01-.126.093-.179.093-.179s-.152.015-.254.115c-.078.074-.097.22-.1.29a1.85 1.85 0 0 1-.063-.267c-.033-.258.024-.43.005-.433 0 0-.006.001-.01.015-.016.053-.05.21-.037.423.02.27.166.598.155.948a1.1 1.1 0 0 1 0 .094c-.013-.075-.041-.155-.094-.201-.12-.103-.21-.173-.182-.278.001-.006-.15.235-.029.468.076.146.252.127.247.259a.788.788 0 0 1-.037.184c-.093.217-.309.47-.353.483-.044.013-.064 0-.088-.057-.05-.114-.179-.426-.244-.548-.039-.074-.078-.164-.054-.198.011-.016.095-.028.159-.064a.484.484 0 0 0 .156-.157.819.819 0 0 0 .122-.466c0-.142-.021-.172-.088-.357-.066-.187.118-.207.125-.338.008-.141-.07-.166-.13-.251-.058-.086.043-.19.043-.19-.314.139-.227.525-.134.7a.959.959 0 0 1 .102.345c0 .03.005.09.001.122a.446.446 0 0 1-.019.125c-.01-.14-.076-.407-.438-.396 0 0 .084.055.093.165.01.11.011.16.065.21.053.049.142.093.224.056.02.046-.022.137-.051.19a.074.074 0 0 1-.011.014c-.164.226-.56.211-.703-.06a.39.39 0 0 0 .239-.044c.072-.048.087-.145.089-.217a.442.442 0 0 1 .032-.143s-.146.03-.262.133a.49.49 0 0 0-.13.21 1.027 1.027 0 0 1-.036-.08.842.842 0 0 1-.045-.327c.207.06.262-.135.26-.197-.001-.1.029-.116.029-.12a.392.392 0 0 0-.265.153c.03-.15.074-.223.094-.282a.43.43 0 0 0-.019-.32c-.059-.114-.04-.197-.015-.224 0 0-.222.16-.195.4.013.12.172.167.12.289a.194.194 0 0 0-.013.03.768.768 0 0 0-.066.172c-.066-.148-.22-.158-.22-.158.055.074.004.222.05.325.033.075.108.082.146.08.009.182.082.335.088.348a.781.781 0 0 0 .31.31c.028.014.057.049.093.165.037.117.084.19.164.398.08.207.142.425.073.488-.05.047-.209.017-.424-.087a1.156 1.156 0 0 1-.135-.085c.054-.002.146-.028.174-.206a.384.384 0 0 0-.126-.341.3.3 0 0 0-.138-.074c.084.125-.02.154-.087.266a.206.206 0 0 0-.02.183 1.557 1.557 0 0 1-.035-.037 1.339 1.339 0 0 1-.25-.51l-.01-.04c.124.002.224-.076.277-.216.074-.196-.063-.48-.063-.48.006.047-.05.165-.152.214a.322.322 0 0 0-.107.084c.012-.28.09-.548.133-.769a1.275 1.275 0 0 0-.009-.56c-.002-.008-.01-.003-.01-.003-.016 0 .048.227-.035.552l-.018.068c-.041-.22-.282-.329-.282-.329.16.156-.038.384.03.527.05.104.132.1.172.091-.069.263-.124.57-.05.883.02.102.052.202.091.297-.187-.095-.319.034-.319.034.154.012.08.13.232.268.122.112.225.04.26.008l.02.027c.149.181.294.312.45.399.102.053.224.119.287.144.116.048.156.197.125.358-.051.268-.106.545-.237.54a1.137 1.137 0 0 1-.256-.043l-.037-.01c-.01-.001-.004-.014-.002-.023a.82.82 0 0 0-.065-.453c.134.007.195-.102.182-.226-.018-.157-.29-.384-.29-.384s.031.098.017.181c-.01.056-.062.095-.046.198-.007-.01-.078-.069-.114-.099-.105-.084-.154-.123-.242-.232-.19-.208-.28-.43-.31-.646-.025-.226.06-.267.115-.414.08-.211-.051-.41-.051-.41 0 .06-.029.128-.127.17a.28.28 0 0 0-.173.285c.007.129.128.19.16.203-.003.041-.007.09.003.191.01.102.074.418.245.66.02.03.082.1.104.127a.267.267 0 0 0-.144-.034c-.097.012-.173.063-.27-.047 0 0 .031.266.213.354.167.08.336.02.332-.125.128.134.247.245.262.374a.656.656 0 0 1 .017.253c-.002.014-.002.037-.017.032-.014-.006-.018-.006-.032-.013a1.7 1.7 0 0 1-.889-.84 2.216 2.216 0 0 1-.094-.26c.044.014.174.041.235-.077.074-.145.02-.377-.097-.514 0 0 .025.12-.034.168-.048.038-.141.08-.16.19a2.344 2.344 0 0 1-.02-.967c.015-.042.041-.092.083-.085.07.012.183.036.266-.078a.545.545 0 0 0 .102-.413s-.022.107-.12.128c-.067.014-.181-.003-.252.096.028-.101.058-.197.089-.285.156-.438.105-.758.096-.752-.001 0-.01-.002-.01.007-.002.023.003.08-.006.153a2.085 2.085 0 0 1-.087.385c-.003-.168-.11-.329-.347-.327 0 0 .121.073.102.208-.019.135-.07.34.14.327a.097.097 0 0 0 .05-.017 3.6 3.6 0 0 0-.241.873c-.03-.036-.103-.116-.177-.122-.115-.01-.155.024-.155.024s.154.04.104.251c-.025.11.073.252.206.217.002.14.016.28.047.422.015.103.031.182.06.282-.05-.01-.108-.016-.174-.097-.141-.166-.235-.394-.28-.696a2.7 2.7 0 0 1-.018-.656c.03.032.111.085.231.03a.417.417 0 0 0 .222-.37s-.07.056-.123.04c-.05-.017-.188-.08-.314.13a.976.976 0 0 1 .018-.085c.054-.225.152-.35.138-.359.001 0-.008-.003-.019.009a1.123 1.123 0 0 0-.186.348c-.039.12-.066.233-.083.392-.183-.228-.36-.103-.36-.103.124.006.066.186.096.291.03.105.13.133.192.118a.14.14 0 0 0 .073-.043c0 .066.003.132.009.199.03.32.12.64.282.855a.575.575 0 0 0 .363.221c.045.14.104.238.18.348-.282-.182-.488.042-.488.042.213-.011.199.175.342.24.166.076.242-.05.266-.103.186.252.39.483.814.658.078.027.093.032.096.046 0 .003-.007.009-.028.009-.057 0-.305 0-.605-.078.043-.036.096-.107.034-.215-.127-.218-.391-.058-.436-.228 0 0-.074.2.054.342a2.226 2.226 0 0 1-.518-.266 1.762 1.762 0 0 1-.495-.531c.48-.128.078-.686.078-.686.008.095-.044.16-.131.257a.305.305 0 0 0-.065.206 2.462 2.462 0 0 1-.176-.585c.056.027.157.044.27-.081.172-.192-.03-.464-.03-.464.008.024 0 .125-.12.16-.085.023-.127.1-.144.143a3.383 3.383 0 0 1 .113-1.09c.028.01.164.049.26-.04a.534.534 0 0 0 .173-.436s-.027.085-.112.103c-.07.014-.153-.013-.224.06a3.3 3.3 0 0 1 .286-.55c.048-.064.101-.086.126-.06.04.044.11.114.225.072.116-.042.272-.144.308-.26 0 0-.078.059-.138.041-.058-.016-.147-.1-.374.023l.01-.01c.18-.192.34-.267.335-.277a.184.184 0 0 0-.08.02 1.1 1.1 0 0 0-.29.205 1.562 1.562 0 0 0-.216.25c.076-.232-.123-.405-.123-.406.04.137-.055.25-.122.353-.066.103-.028.219.05.24.04.011.063.008.085-.002-.077.1-.154.257-.213.407a2.724 2.724 0 0 0-.163.597.38.38 0 0 0-.121-.213c-.114-.093-.243-.057-.243-.057s.074.05.053.187c-.02.132.028.358.277.305-.045.38-.013.728-.013.728.025.49.204.794.204.794a1.628 1.628 0 0 1-.36-.375.85.85 0 0 1-.122-.299.104.104 0 0 0 .04.009c.09 0 .185-.116.145-.284-.04-.164-.061-.317.036-.386 0 0-.35.11-.295.526-.092-.336-.081-.717-.033-1.053.01-.06.021-.117.034-.174.03-.095.07-.169.117-.15.05.021.245.043.338-.13.093-.173.063-.337.063-.337s-.05.095-.143.105c-.08.008-.17.015-.246.102.057-.169.1-.254.172-.367.15-.223.289-.36.281-.367 0 0-.001-.01-.012-.002-.017.012-.05.045-.087.077a1.508 1.508 0 0 0-.202.215c.085-.279-.156-.541-.156-.541.081.23-.137.325-.11.496.026.17.138.165.192.152a2.528 2.528 0 0 0-.244.568c-.014-.269-.235-.472-.235-.472.1.232-.08.31-.045.517.03.189.196.155.226.148a4.111 4.111 0 0 0-.033.146 3.501 3.501 0 0 0-.054.46c-.072-.252-.337-.288-.337-.288.201.186.04.281.107.456.064.17.22.097.23.092a1.877 1.877 0 0 0 .166.692c-.285-.201-.477-.05-.477-.05.198-.03.197.232.344.329.146.096.24-.016.24-.016a.112.112 0 0 0 .024-.04c.164.235.379.405.582.503.227.347.73.933 1.647 1.15 0 0 .242.064.337.11.095.045.053.201.016.361-.038.16-.057.419.022.67.08.25.293.627-.106.874-.28.175-.736.324-1.568.366 0 0-.577.023-.706.026-.129.004-.235.007-.254.065-.023.068.07.082.79.082l2.236.001h.19l2.235-.001c.72 0 .813-.014.79-.082-.02-.058-.125-.06-.255-.065a152.69 152.69 0 0 1-.706-.026c-.675 0-1.094-.285-1.375-.46-.363-.225-1.054-1.176-.208-1.79a.892.892 0 0 1 .114-.048c.504-.172 1.352-.357 1.782-1.074l.013-.021c.008-.013.014-.012.032-.02.088-.04.382-.188.613-.564.174.079.321-.097.375-.189.055-.093.183-.097.183-.097s-.02-.02-.158-.04a.403.403 0 0 0-.28.08 2.08 2.08 0 0 0 .168-.604c.236.007.226-.228.24-.36zm-3.052 4.952c.002.001.002.002.002.003l-.003.002s-.239-.076-.451-.307a1.347 1.347 0 0 1-.318-.676 1.63 1.63 0 0 1-.03-.285 1.11 1.11 0 0 1 .304-.729h.003V17c-.156.273-.206.48-.206.634 0 .279.164.382.165.384a.904.904 0 0 0-.007.113c0 .564.54.858.541.858z" fill="#000"/></svg>