<svg width="36" height="36" fill="none" xmlns="http://www.w3.org/2000/svg"><path d="M18 0c2.837 0 5.52.656 7.907 1.825C31.884 4.753 36 10.895 36 18c0 9.942-8.058 18-18 18-9.94 0-18-8.057-18-18C0 8.06 8.06 0 18 0z" fill="#F2F4F7"/><path d="M29.45 28.253a.802.802 0 0 1 .245.598.842.842 0 1 1-1.685 0 .847.847 0 0 1 1.168-.786.804.804 0 0 1 .272.188zm.1-.097a.952.952 0 0 0-.698-.286.98.98 0 1 0 .697 1.672.983.983 0 0 0 0-1.388v.002zm-.552.648a.49.49 0 0 1-.182.023h-.169v-.39h.164c.104 0 .182.013.226.04.044.025.073.08.073.155a.166.166 0 0 1-.112.17v.002zm-.54.577h.189v-.421h.15c.1 0 .172.01.211.034.068.041.102.122.102.247v.085l.002.034a.08.08 0 0 1 .003.013c0 .005.003.008.005.008h.177l-.005-.01a.114.114 0 0 1-.01-.055v-.159a.298.298 0 0 0-.063-.169c-.039-.057-.101-.09-.185-.106a.444.444 0 0 0 .156-.052c.07-.047.104-.12.104-.213 0-.136-.052-.227-.166-.274a.81.81 0 0 0-.294-.038h-.377v1.076z" fill="#E4002B"/><path d="M29.924 21.123c.07-1.386-.188-2.88-1.394-4.233-1.24-1.336-3.333-2.47-7.636-2.735.223-.696.418-1.336.624-1.989 2.574.091 4.864.276 6.812.528.156-.697.239-1.378.398-2.038-.198-.29-.408-.57-.63-.843-.925-.109-1.85-.338-2.844-.468a51.876 51.876 0 0 0-4.274-.366 2224.828 2224.828 0 0 0-3.383 10.153c6.401.553 8.866 2.28 8.723 4.713-.13 1.316-1.329 2.51-2.912 2.652-1.877.128-2.738-.634-3.302-1.466-.513-.768-1.022-1.54-1.526-2.314-.143-.24-.333-.083-.505.083a236 236 0 0 1-1.141 1.1c-.244.213-.19.398-.104.577.338.798.681 1.594 1.03 2.387.559.343 3.195.811 5.166.666a8.754 8.754 0 0 0 4.386-1.67c1.365-1.058 2.358-2.482 2.512-4.737z" fill="#fff"/><path d="M7.53 25.7c.246.334.508.655.785.964 2.596.44 5.22.694 7.852.76l-.026-.898c-1.765-.099-2.577-.37-2.717-.718-.12-.278-.14-.694-.164-1.102a135.21 135.21 0 0 1-.13-8.593c.988-.018 1.971-.026 3.003-.039.5-.226.97-.452 1.47-.676l.002-1.022c-1.529.006-2.98.032-4.436.073.042-1.24.091-2.381.164-3.497.052-.733.559-1.269 1.082-1.31.84-.034 1.59.301 2.321.624.4.195.799.39 1.21.598.197.052.431.099.571-.07.245-.292.476-.56.715-.84.13-.193.076-.302.021-.372a73.69 73.69 0 0 0-1.513-1.16c-.307-.208-.793-.252-1.274-.252-.19 0-.38.005-.559.01-.491.027-1.118.105-2.142.357-2.31.621-5.08 2.23-5.375 4.862-.037.432-.07.864-.096 1.297-.652.052-1.248.102-1.807.156-.04.499-.07.998-.09 1.498.566-.034 1.159-.065 1.82-.094a59.527 59.527 0 0 0 .251 8.068c.045.387.086.772.037 1.02-.042.236-.424.36-.975.355z" fill="#fff"/><path d="M28.73 10.656c-.161.657-.244 1.341-.398 2.038-1.95-.252-4.238-.437-6.812-.528-.208.65-.403 1.293-.624 1.99 4.303.264 6.396 1.398 7.637 2.734 1.206 1.352 1.46 2.848 1.39 4.233-.155 2.255-1.146 3.68-2.511 4.735-1.378 1.04-3.05 1.555-4.386 1.67-1.968.145-4.602-.323-5.164-.666-.348-.794-.692-1.59-1.03-2.387-.085-.18-.14-.364.105-.578.381-.365.762-.731 1.141-1.1.172-.166.361-.322.504-.082.53.816 1.027 1.567 1.524 2.314.564.831 1.425 1.593 3.307 1.466 1.578-.14 2.782-1.337 2.91-2.652.137-2.434-2.325-4.16-8.729-4.714 1.23-3.708 2.429-7.296 3.386-10.148a51.71 51.71 0 0 1 4.274.37c.993.124 1.919.356 2.844.462A13 13 0 0 0 5 17.995 12.938 12.938 0 0 0 7.53 25.7c.551.005.933-.12.975-.356.05-.25.008-.632-.037-1.02a59.945 59.945 0 0 1-.254-8.067c-.607.026-1.214.058-1.82.094.026-.513.052-.996.093-1.498.562-.055 1.155-.104 1.807-.156.026-.442.057-.866.096-1.295.294-2.633 3.066-4.246 5.375-4.864a11.322 11.322 0 0 1 2.142-.354c.18-.008.37-.013.562-.013.478 0 .962.044 1.271.252.5.375.988.746 1.513 1.16.052.07.11.182-.02.372l-.713.84c-.14.168-.374.124-.572.072-.41-.21-.806-.405-1.209-.598-.728-.325-1.482-.66-2.322-.624-.522.04-1.03.575-1.081 1.308a110.328 110.328 0 0 0-.164 3.497c1.456-.041 2.907-.067 4.438-.075l-.003 1.024c-.499.224-.97.45-1.471.676-1.032.013-2.015.02-3.003.04-.048 2.864-.005 5.73.13 8.592.026.408.047.824.164 1.1.14.35.951.619 2.72.72l.025.895a54.95 54.95 0 0 1-7.852-.755 13 13 0 0 0 20.41-16.013v.003z" fill="#E4002B"/></svg>