<svg height="36" viewBox="0 0 36 36" width="36" xmlns="http://www.w3.org/2000/svg"><mask id="a" fill="#fff"><path d="M0 0h4.035v4.264H0z" fill-rule="evenodd"/></mask><mask id="b" fill="#fff"><path d="M0 6.307h28V0H0z" fill-rule="evenodd"/></mask><g fill="none" fill-rule="evenodd"><path d="M18 0c2.837 0 5.52.656 7.907 1.825C31.884 4.753 36 10.895 36 18c0 9.942-8.058 18-18 18-9.94 0-18-8.057-18-18C0 8.06 8.06 0 18 0z" fill="#f2f4f7" fill-rule="nonzero"/><g fill="#000"><path d="M11.807 18.77c.122-.667.194-1.125.255-1.65.328.006.658.03.987.03.546 0 1.016-.012 1.17-.03-.024.072-.048.144-.068.251-.022.125-.021.178-.026.268a30.807 30.807 0 0 0-1.246-.072c-.107.434-.185.863-.264 1.298.486-.012.845-.024 1.273-.048a1.63 1.63 0 0 0-.076.268c-.012.065-.011.12-.017.244a14.938 14.938 0 0 0-1.255-.054c-.046.25-.098.507-.144.763-.046.25-.087.506-.12.744.419 0 .852-.023 1.29-.077-.025.083-.047.143-.07.268-.022.125-.022.184-.024.256-.2-.006-.457-.03-.97-.03-.908 0-1.062.018-1.186.03.128-.524.223-.983.344-1.65zm2.858 0c.122-.667.194-1.125.256-1.65.12.012.268.03.452.03s.337-.018.462-.03c-.129.525-.224.983-.345 1.65l-.146.81a24.765 24.765 0 0 0-.256 1.65c-.12-.013-.268-.03-.451-.03-.185 0-.339.017-.464.03.13-.525.224-.983.346-1.65zm1.783 0c.122-.667.194-1.125.255-1.65.328.006.658.03.987.03.546 0 1.016-.012 1.17-.03-.024.072-.048.144-.067.251-.023.125-.022.178-.027.268a30.807 30.807 0 0 0-1.246-.072c-.108.434-.185.863-.264 1.298.486-.012.845-.024 1.273-.048a1.63 1.63 0 0 0-.076.268c-.012.065-.01.12-.017.244a14.938 14.938 0 0 0-1.255-.054l-.056.304c-.12.667-.193 1.126-.255 1.65-.12-.012-.267-.03-.45-.03s-.339.018-.464.03c.13-.524.223-.983.345-1.65zm2.787 0c.12-.667.193-1.125.255-1.65.328.006.658.03.987.03.546 0 1.016-.012 1.17-.03a1.601 1.601 0 0 0-.068.251c-.023.125-.022.178-.027.268a30.807 30.807 0 0 0-1.246-.072c-.107.434-.185.863-.264 1.298.487-.012.846-.024 1.274-.048a1.659 1.659 0 0 0-.077.268c-.012.065-.01.12-.016.244a14.944 14.944 0 0 0-1.256-.054l-.055.304a24.78 24.78 0 0 0-.255 1.65c-.121-.012-.268-.03-.452-.03s-.338.018-.462.03c.129-.524.223-.983.344-1.65zm4.529-1.679c-.074.012-.145.03-.217.03-.073 0-.136-.018-.206-.03A143.024 143.024 0 0 1 21 21.231c.108-.014.195-.032.284-.032s.169.018.256.031c.18-.41.377-.817.6-1.22.197-.007.388-.014.583-.014.24 0 .472.006.71.013.066.404.12.815.164 1.221.157-.013.322-.03.479-.03.155 0 .308.017.484.03-.247-.97-.57-2.782-.796-4.139m-1.414 2.566c.249-.482.508-.952.782-1.417.093.465.164.935.238 1.417z"/><path d="M3.69.965C3.521.608 3.208.369 2.701.369c-.69 0-1.516.614-1.743 1.865-.172.946.193 1.661 1.052 1.661.19 0 .525-.042.626-.108.034-.095.061-.244.093-.417.117-.642.132-.911.147-1.023.07.012.18.029.407.029.267 0 .382-.017.457-.029-.05.125-.157.619-.227 1-.045.25-.097.565-.102.655-.512.149-1.045.262-1.535.262-1.282 0-2.06-.78-1.839-1.995C.312.757 1.447 0 2.757 0c.562 0 .918.131 1.278.358a5.444 5.444 0 0 0-.267.607z" mask="url(#a)" transform="translate(24.933 17.043)"/><path d="M29.588 18.77c.122-.667.193-1.125.255-1.65.328.006.659.03.987.03.546 0 1.016-.012 1.17-.03-.024.072-.048.144-.068.251-.022.125-.021.178-.026.268a30.807 30.807 0 0 0-1.246-.072c-.107.434-.185.863-.264 1.298.486-.012.845-.024 1.273-.048a1.771 1.771 0 0 0-.077.268c-.011.065-.01.12-.016.244a14.938 14.938 0 0 0-1.255-.054c-.046.25-.098.507-.144.763-.046.25-.087.506-.12.744.419 0 .852-.023 1.29-.077-.025.083-.047.143-.07.268-.022.125-.022.184-.024.256-.2-.006-.457-.03-.97-.03-.908 0-1.062.018-1.187.03.129-.524.223-.983.345-1.65z"/></g><path d="M10.57 15H5.994l-1.077 1.077h4.578v4.31l1.077-1.078z" fill="#ee3224"/><path d="M0 2.963h4.686V1.886H0zm0 1.615h4.686V3.501H0zm0 1.617h4.686V5.118H0z" fill="#ee3224" mask="url(#b)" transform="translate(4 15)"/></g></svg>