<svg width="36" height="36" fill="none" xmlns="http://www.w3.org/2000/svg"><path d="M18 0c2.837 0 5.52.656 7.907 1.825C31.884 4.753 36 10.895 36 18c0 9.942-8.058 18-18 18-9.94 0-18-8.057-18-18C0 8.06 8.06 0 18 0z" fill="#F2F4F7"/><path d="M18 32c7.732 0 14-6.268 14-14S25.732 4 18 4 4 10.268 4 18s6.268 14 14 14z" fill="#1A1818"/><path d="M19.992 23.799H6.705l1.935-1.994h10.416l3.252-3.923-4.453-5.992-4.44 5.993 2.516 3.002-2.56.048-2.542-3.032 7.038-9.18 7.014 9.181-4.89 5.896zm1.371 0 1.678-2h4.397l1.855 2h-7.93z" fill="#fff"/></svg>