<svg height="36" viewBox="0 0 36 36" width="36" xmlns="http://www.w3.org/2000/svg"><g fill="none" fill-rule="evenodd"><path d="M18 0c2.837 0 5.52.656 7.907 1.825C31.884 4.753 36 10.895 36 18c0 9.942-8.058 18-18 18-9.94 0-18-8.057-18-18C0 8.06 8.06 0 18 0z" fill="#f2f4f7" fill-rule="nonzero"/><path d="M24.466 17h-1.262a.056.056 0 0 0-.055.056c0 .017.008.031.02.041l-.001.001 1.261 1.26v-.001c.01.009.023.015.037.015.03 0 .055-.025.055-.055v-1.261a.056.056 0 0 0-.055-.056" fill="#15549e"/><path d="M24.828 17.448v1.464c0 .105-.014.196-.041.27s-.065.134-.113.18a.457.457 0 0 1-.172.104.767.767 0 0 1-.45 0 .436.436 0 0 1-.28-.284.795.795 0 0 1-.04-.27V18.1l-.342-.342v1.17c0 .14.02.267.063.375.04.11.1.205.178.28a.76.76 0 0 0 .282.176c.108.038.23.057.364.057.13 0 .252-.02.36-.06a.847.847 0 0 0 .284-.177.8.8 0 0 0 .185-.281c.043-.11.064-.234.064-.37v-1.481z" fill="#1a171b"/><path d="M4.342 19.771H4v-2.333h1.405v.318H4.342v.716h.957v.318h-.957zm2.694 0H5.63v-2.333h.343v2.016h1.063zm1.006.037c-.133 0-.255-.02-.364-.058a.759.759 0 0 1-.282-.174.805.805 0 0 1-.179-.282 1.055 1.055 0 0 1-.062-.374v-1.482h.342v1.464a.8.8 0 0 0 .041.271.483.483 0 0 0 .111.18.411.411 0 0 0 .168.102.767.767 0 0 0 .45 0 .44.44 0 0 0 .285-.282.777.777 0 0 0 .041-.27v-1.465h.343v1.482c0 .136-.022.26-.065.368a.765.765 0 0 1-.469.458 1.011 1.011 0 0 1-.36.062m2.373 0a1.295 1.295 0 0 1-.864-.328 1.158 1.158 0 0 1-.38-.874c0-.18.036-.348.107-.496a1.24 1.24 0 0 1 .666-.622c.145-.057.294-.086.444-.086a1.424 1.424 0 0 1 .484.077c.068.025.135.055.196.09.062.034.048.034.048.034v.393l-.05-.042a1.333 1.333 0 0 0-.326-.17 1.026 1.026 0 0 0-.349-.064.874.874 0 0 0-.363.072.787.787 0 0 0-.268.194.834.834 0 0 0-.167.282.984.984 0 0 0-.058.338.892.892 0 0 0 .257.632.886.886 0 0 0 .626.255c.105 0 .202-.012.288-.036a.957.957 0 0 0 .233-.096v-.468l-.539-.008v-.319h.881v.955l-.02.015a1.388 1.388 0 0 1-.382.202c-.137.047-.293.07-.464.07m2.904-.037h-.342v-1.024H11.88v1.024h-.343v-2.333h.343v.991h1.096v-.991h.342zm.921-.921h.672l-.336-.786zm1.438.92h-.37l-.264-.617h-.935l-.265.618h-.36l1.046-2.372h.104zm.509.001h-.342v-2.333h1.406v.318h-1.064v.716h.957v.318h-.957zm2.695 0h-1.406v-2.333h1.406v.318h-1.064v.673h.957v.318h-.957v.707h1.064zm2.008.037-1.373-1.645v1.608h-.342V17.4h.124l1.358 1.621v-1.582H21v2.37z" fill="#15549e"/><path d="M23.144 19.78h-1.737l-.002-.086 1.23-1.928h-1.144v-.318h1.59l.087.086-1.233 1.929h1.209zm4.273.001h.343v-2.333h-.343zM32 19.78h-.344v-1.023H30.56v1.024h-.342v-2.333h.342v.99h1.096v-.99H32zm-4.784.003h-.42l-.01-.013-.867-1.246h.195c.396 0 .573-.12.573-.386 0-.256-.187-.376-.588-.376h-.246v2.02h-.345v-2.335h.578c.187 0 .422 0 .615.11a.657.657 0 0 1 .314.569c0 .335-.212.599-.522.659zm2.686-.479a1.477 1.477 0 0 1-.31.133 1.007 1.007 0 0 1-.687-.014.784.784 0 0 1-.447-.458.966.966 0 0 1-.06-.349c0-.126.018-.244.057-.35a.768.768 0 0 1 .433-.461.997.997 0 0 1 .682-.014c.114.035.218.08.311.133l.03.017v-.374a1.847 1.847 0 0 0-.214-.088 1.321 1.321 0 0 0-.429-.068c-.174 0-.339.031-.49.092a1.175 1.175 0 0 0-.745 1.113 1.176 1.176 0 0 0 .35.863c.11.106.242.19.392.25.15.058.315.088.493.088.153 0 .298-.023.43-.068.077-.027.147-.056.212-.088v-.36z" fill="#1a171b"/></g></svg>