<svg height="36" viewBox="0 0 36 36" width="36" xmlns="http://www.w3.org/2000/svg"><mask id="a" fill="#fff"><path d="M0 0h2.971v6.288H0z" fill-rule="evenodd"/></mask><mask id="b" fill="#fff"><path d="M0 0h3.385v4.352H0z" fill-rule="evenodd"/></mask><g fill="none" fill-rule="evenodd"><path d="M18 0c2.837 0 5.52.656 7.907 1.825C31.884 4.753 36 10.895 36 18c0 9.942-8.058 18-18 18-9.94 0-18-8.057-18-18C0 8.06 8.06 0 18 0z" fill="#f2f4f7" fill-rule="nonzero"/><g fill="#1a1a1a"><path d="M.622 3.803V1.898c0-.202 0-.404.089-.606.105-.25.299-.452.533-.565A1 1 0 0 1 1.68.63c.17 0 .347.04.5.12.104.058.201.13.282.219l.51-.38a1.635 1.635 0 0 0-1.107-.58C1.807 0 1.744 0 1.686 0a1.72 1.72 0 0 0-.759.178 1.748 1.748 0 0 0-.743.727 1.45 1.45 0 0 0-.152.46c-.017.105-.034.21-.034.323v4.6h.63V4.417h1.478v-.613z" mask="url(#a)" transform="translate(4 15)"/><path d="M6.826 17.414v3.867h.638l-.008-3.867zm.161-1.268a.42.42 0 0 0-.258.38.414.414 0 0 0 .758.225.428.428 0 0 0 0-.459.413.413 0 0 0-.5-.146m5.958 5.135h.63l.008-6.063h-.638zm5.934-3.561a1.405 1.405 0 0 0-.274-.412 1.394 1.394 0 0 0-.824-.395 1.346 1.346 0 0 0-.791.161 1.795 1.795 0 0 0-.371.323c-.05-.048-.09-.096-.137-.145a1.161 1.161 0 0 0-.291-.202 1.397 1.397 0 0 0-.888-.097 1.375 1.375 0 0 0-.638.348 1.258 1.258 0 0 0-.347.645 2.121 2.121 0 0 0-.041.388v2.93h.622v-2.939c0-.105 0-.217.024-.322a.644.644 0 0 1 .275-.388.772.772 0 0 1 .516-.105c.202.024.38.138.493.307a.733.733 0 0 1 .12.428v3.011h.63v-2.938c0-.114.009-.226.04-.34a.69.69 0 0 1 .357-.395.73.73 0 0 1 .936.339c.065.13.072.266.072.412v2.914h.622V18.44c0-.12 0-.235-.016-.356a1.176 1.176 0 0 0-.09-.363m4.054 2.349c-.291.355-.743.565-1.203.565s-.912-.218-1.203-.573a1.561 1.561 0 0 1-.355-.985 1.64 1.64 0 0 1 .355-.993 1.568 1.568 0 0 1 1.938-.38c.411.22.702.614.791 1.074.089.452-.032.937-.323 1.292m.694-2.042a2.238 2.238 0 0 0-.654-.703 2.134 2.134 0 0 0-1.179-.396 2.177 2.177 0 0 0-1.106.267c-.363.193-.662.5-.856.864-.153.282-.25.605-.266.928s.041.645.162.944c.145.348.379.662.686.897.355.274.807.42 1.259.435.404.017.8-.096 1.147-.29.169-.096.315-.217.452-.355v.662h.621v-1.994c0-.17-.007-.347-.016-.517a1.714 1.714 0 0 0-.25-.742m3.884-.541a1.68 1.68 0 0 0-.776-.493 1.792 1.792 0 0 0-.969 0 1.705 1.705 0 0 0-1.162 1.227 2.14 2.14 0 0 0-.04.388v2.665h.613v-2.689c0-.13.032-.26.081-.38.105-.242.298-.46.541-.573.298-.137.653-.13.952.033.202.105.372.282.468.484.082.16.105.339.105.517v2.608h.614v-2.528c0-.194-.016-.395-.065-.581a1.496 1.496 0 0 0-.363-.678"/><path d="M3.302 1.163a1.702 1.702 0 0 0-.46-.719A1.645 1.645 0 0 0 1.865.01a1.705 1.705 0 0 0-.937.17 1.724 1.724 0 0 0-.742.724c-.073.145-.13.3-.154.46-.016.105-.032.21-.032.323v2.664h.614V1.898c0-.21 0-.412.088-.614.105-.242.299-.46.541-.573a1.09 1.09 0 0 1 1.421.516c.081.162.105.34.105.517v2.608h.614V1.825a1.816 1.816 0 0 0-.081-.662" mask="url(#b)" transform="translate(28.615 16.929)"/><path d="M8.642 18.794a2.22 2.22 0 0 1 .226-.549c.186-.283.452-.5.775-.62.339-.123.719-.13 1.058-.01.291.105.541.291.734.541.154.202.227.388.283.63zm3.342-.904a2.166 2.166 0 0 0-3.156-.484 2.278 2.278 0 0 0-.71 1.01 2.276 2.276 0 0 0-.033 1.274c.073.307.226.573.428.808.226.266.508.484.832.622.371.153.783.201 1.178.136a2.05 2.05 0 0 0 .953-.41c.226-.17.403-.388.565-.607l-.541-.322a1.244 1.244 0 0 1-.234.306c-.234.218-.517.38-.832.428a1.53 1.53 0 0 1-.855-.097 1.621 1.621 0 0 1-.791-.718 1.362 1.362 0 0 1-.138-.436h3.674c.024-.178.032-.364.007-.54a1.92 1.92 0 0 0-.347-.97z"/></g></g></svg>