<svg height="36" viewBox="0 0 36 36" width="36" xmlns="http://www.w3.org/2000/svg"><mask id="a" fill="#fff"><path d="M0 14.063h28V0H0z" fill-rule="evenodd"/></mask><g fill="none" fill-rule="evenodd"><path d="M18 0c2.837 0 5.52.656 7.907 1.825C31.884 4.753 36 10.895 36 18c0 9.942-8.058 18-18 18-9.94 0-18-8.057-18-18C0 8.06 8.06 0 18 0z" fill="#f2f4f7" fill-rule="nonzero"/><g fill="#f60"><path d="m28.714 14.192-1.063 7.989-1.065-7.99h-1.658l1.534 9.748h2.359l1.552-9.747zm1.498 9.747h1.787v-1.787h-1.787zM4.92 14.191H4v1.295h.92v8.453h1.617v-8.453h1.135v-1.295H6.537V12.21c0-.289.06-.51.2-.662.14-.149.354-.22.645-.22h.29V10h-.585c-.717 0-1.41.151-1.739.465-.329.313-.428.798-.428 1.49z"/><path d="M4.177 13.939h1.621V4.191H4.177zm14.651-8.745V4.19h-1.477v9.748h1.594V7.145c0-.526.17-.87.467-1.076.283-.194.63-.259 1.071-.266V4.078c-.845.018-1.21.185-1.639 1.08zM9.441 8.397C8.212 7.33 8.117 7.175 8.117 6.38c0-.678.06-1.09.667-1.09.61 0 .688.407.688 1.098v.9h1.562V5.82c-.004-1.154-.893-1.74-2.284-1.74-1.37 0-2.265.456-2.272 2.3-.002.313 0 .313 0 .191.002.58.004 1.498 1.437 2.727l.411.352c1.055.89 1.17.998 1.166 2.056 0 .653-.04 1.148-.726 1.148s-.728-.498-.728-.806V10.8h-1.64v1.287c0 1.584 1.031 1.976 2.365 1.976 1.337 0 2.368-.396 2.368-2.434v-.169c-.003-1.424-.26-1.806-1.69-3.063zm3.84-2.108c0-.55.143-1.119.901-1.119.757 0 .91.561.91 1.118v2.015h-1.81zm0 3.327h3.378V6.612c-.004-1.797-.868-2.534-2.505-2.534-1.702 0-2.5.735-2.5 2.546v4.937c.005 1.646 1.002 2.5 2.5 2.5s2.501-.702 2.505-2.5v-.78h-1.565l.002.924c0 .66-.247 1.116-.91 1.116-.664 0-.905-.46-.905-1.117z" mask="url(#a)" transform="translate(4 10)"/></g></g></svg>