<svg width="36" height="36" fill="none" xmlns="http://www.w3.org/2000/svg"><path d="M18 0c2.837 0 5.52.656 7.907 1.825C31.884 4.753 36 10.895 36 18c0 9.942-8.058 18-18 18-9.94 0-18-8.057-18-18C0 8.06 8.06 0 18 0z" fill="#F2F4F7"/><g fill="#000"><path d="M7.246 18.868h2.92c.055-.4.16-.791.312-1.165H6v6.73h1.246V21.68h2.705v-1.164H7.246v-1.647zm4.713-.001a3.089 3.089 0 0 1 4.133-2.224 3.92 3.92 0 0 1 7.78.008 3.54 3.54 0 0 1 4.924 3.257c0 1.043-.367 1.818-.933 2.544h1.37A4.516 4.516 0 0 0 30 19.908a4.734 4.734 0 0 0-5.274-4.715 5.124 5.124 0 0 0-9.51.043 4.309 4.309 0 0 0-4.483 3.631h1.226zm-.026.519h-1.21v5.05h1.21v-5.05z"/><path d="M12.452 19.386h1.31l1.22 3.348h.026l1.147-3.348h1.328l-2.047 5.047h-.947l-2.037-5.047zm11.299 5.047 1.492-2.275a1.254 1.254 0 0 1-.327.027c-.956-.009-1.993-.846-1.993-2.192 0-1.429 1.1-2.42 2.33-2.42 1.21 0 2.337.936 2.337 2.41-.003.286-.055.57-.154.838a3.935 3.935 0 0 1-.392.755l-1.873 2.857h-1.42zm1.51-5.714c-.736 0-1.128.636-1.128 1.164 0 .683.467 1.183 1.129 1.183.727 0 1.119-.637 1.119-1.137 0-.662-.483-1.208-1.12-1.208v-.002zm-4.166 4.251c-.236.334-.605.52-1.084.52-.866 0-1.337-.71-1.392-1.038h3.922c.046-.2.07-.404.072-.61 0-1.273-1.01-2.656-2.611-2.656-1.555 0-2.656 1.31-2.656 2.738a2.654 2.654 0 0 0 2.667 2.675c1.126 0 2.054-.766 2.387-1.628h-1.305zm-1.084-2.674c.6 0 1.228.373 1.365 1.183h-2.793c.228-.938.982-1.183 1.428-1.183zm6.912 3.723a.566.566 0 0 1 .582-.588c.366 0 .6.256.6.58a.59.59 0 0 1-1.181.008h-.001zM28 24.01c0-.275-.186-.484-.496-.482a.487.487 0 0 0 .01.974c.307-.004.485-.214.485-.492zm-.69-.304h.232a.199.199 0 0 1 .216.194.185.185 0 0 1-.108.178l.134.246h-.118l-.11-.226h-.138v.224h-.106l-.002-.616zm.225.303a.106.106 0 0 0 .075-.18.106.106 0 0 0-.075-.032h-.117v.212h.117z"/></g></svg>