<svg height="36" viewBox="0 0 36 36" width="36" xmlns="http://www.w3.org/2000/svg"><mask id="a" fill="#fff"><path d="M0 0h28v13.63H0z" fill-rule="evenodd"/></mask><g fill="none" fill-rule="evenodd"><path d="M18 0c2.837 0 5.52.656 7.907 1.825C31.884 4.753 36 10.895 36 18c0 9.942-8.058 18-18 18-9.94 0-18-8.057-18-18C0 8.06 8.06 0 18 0z" fill="#f2f4f7" fill-rule="nonzero"/><path d="M22.083 5.665v-.793c0-.11-.719-.275-1.174-.28-.33-.003-2.243.075-2.243 1.749 0 1.374 1.445 1.917 1.634 2.01.189.096 1.249.566 1.249 1.133 0 .738-.628 1.107-1.383 1.107-.754 0-1.368-.488-1.54-.636-.013-.011.26 1.13.26 1.13s.681.174 1.257.174c.267 0 2.53 0 2.53-1.791 0-1.36-1.391-1.846-1.666-1.98-.253-.122-1.234-.503-1.234-1.21 0-.565.676-1.037 1.179-1.037.708 0 .959.228 1.131.424zM11.488 2.734c.226.492.868.866 1.553.866A1.8 1.8 0 1 0 11.683.618l.013.954c.057-.654.767-1.024 1.345-1.01.683.02 1.238.556 1.238 1.239 0 .684-.555 1.238-1.238 1.238a1.23 1.23 0 0 1-1.037-.582l-.058-.11c-.246-.457-.747-.81-1.325-.81a1.49 1.49 0 1 0 1.164 2.417v-.67l-.537.448a1.16 1.16 0 0 1-.627.205.912.912 0 0 1 0-1.822c.372 0 .677.23.857.599zm5.449 2.648v5.217c.016.346.377.487.377.487h-1.869s.377-.157.377-.487h.002c.002-1.673.005-4.377.001-5.216h-1.244c-.394 0-.613.439-.613.439l.377-1.162h4.384l-.268 1.068s-.015-.345-.392-.345zm-3.394 5.217c.017.346.378.487.378.487h-1.87s.377-.157.377-.487h.002c.003-1.948.006-5.27-.002-5.453-.016-.345-.377-.486-.377-.486h1.87s-.378.157-.378.486zm-1.885-5.94s-.377.158-.377.487v6.788s-.019 1.179-2.011 1.697c-.041.01.896-.99.896-1.697 0-.471.011-6.536 0-6.788-.016-.345-.377-.486-.377-.486zm-4.902 6.566c-1.354-.005-2.294-.831-2.294-1.68V5.132c0-.314-.378-.471-.378-.471h1.855s-.377.157-.377.455v4.43c0 .424.591.968 1.163.964.56-.004 1.131-.535 1.131-.963V5.115c0-.33-.377-.455-.377-.455h1.854s-.377.126-.377.455v4.43c0 .827-.938 1.684-2.2 1.68zm18.666 0c-1.353-.005-2.294-.831-2.294-1.68V5.132c0-.314-.377-.471-.377-.471h1.854s-.377.157-.377.455v4.43c0 .424.592.968 1.163.964.56-.004 1.131-.535 1.131-.963V5.123c0-.33-.377-.456-.377-.456H28s-.377.126-.377.456v4.423c-.001.826-.939 1.683-2.201 1.679zm-23.584-.123H0s.345-.173.345-.503V5.13c0-.376-.345-.47-.345-.47h3.849v1.084s-.094-.362-.392-.362H1.492v1.776h1.996v.99s-.063-.235-.346-.235h-1.65v2.67c0 .362.346.519.346.519z" fill="#cf4037" mask="url(#a)" transform="translate(4 11)"/></g></svg>