<svg width="36" height="36" fill="none" xmlns="http://www.w3.org/2000/svg"><defs><linearGradient id="a" x1="14.325" y1="10.001" x2="14.325" y2="15.425" gradientUnits="userSpaceOnUse"><stop stop-color="#2A5D5A"/><stop offset="1" stop-color="#2C7D31"/></linearGradient><linearGradient id="b" x1="13.122" y1="16.453" x2="13.122" y2="20.702" gradientUnits="userSpaceOnUse"><stop stop-color="#31921F"/><stop offset="1" stop-color="#44BC05"/></linearGradient></defs><path d="M18 0c2.837 0 5.52.656 7.907 1.825C31.884 4.753 36 10.895 36 18c0 9.942-8.058 18-18 18-9.94 0-18-8.057-18-18C0 8.06 8.06 0 18 0z" fill="#F2F4F7"/><path d="M21.548 13.912c.21-.02.42.01.629-.025.262.374.515.754.776 1.129.041.06.082.12.119.185-.287.006-.573.003-.86.002-.04.006-.058-.037-.079-.062-.277-.41-.56-.817-.838-1.227.084.006.169.006.253-.002zm-5.92-.185c.154.007.308.037.462.022.11-.011.22-.019.332-.018.083.221.212.433.411.568.497.347 1.236.324 1.693-.083.18.186.364.368.538.56-.676.648-1.793.711-2.58.23a1.88 1.88 0 0 1-.796-1.015c-.026-.086-.065-.172-.06-.264zm-1.306-.156c.257-.033.516-.008.774-.017v1.648c-.258.003-.515.003-.773 0-.002-.544 0-1.088-.001-1.631zm-1.408-.017c.26.008.52-.004.78-.009v1.657c-.693.004-1.386.002-2.079.002a2.144 2.144 0 0 1-1.826-1.105c-.059-.119-.127-.238-.145-.372.269.006.556.076.81-.04.222.447.713.74 1.211.737.417-.002.833.002 1.25-.002l-.001-.868zm6.673-.06c.011.094.021.188.026.283.237.01.475-.012.71.02.013-.101.026-.202.037-.303.01.568 0 1.137.004 1.705-.26.008-.522.008-.783 0 .006-.568-.005-1.137.006-1.705zm-12.17-.11c.12.005.238-.052.358-.023v1.841a31.15 31.15 0 0 1-.774 0c-.002-.61-.001-1.22 0-1.831.139-.014.277.007.415.012zm14.487-2.238c.023-.026.04-.073.082-.069.29-.002.58 0 .871 0-.43.633-.874 1.257-1.309 1.888.208.309.422.613.629.922-.209.034-.42.005-.629.026-.084.007-.17.007-.253 0-.218-.316-.436-.632-.652-.95.416-.609.843-1.21 1.261-1.817zm-5.598.366c.789-.617 2.026-.59 2.76.103-.176.191-.36.376-.54.563a1.36 1.36 0 0 0-1.102-.312c-.335.044-.666.212-.854.5-.261.398-.287.917-.149 1.365-.11 0-.22.007-.331.018-.155.015-.308-.015-.462-.022l-.019-.002a2.748 2.748 0 0 1 .021-1.126 1.96 1.96 0 0 1 .676-1.087zm-5.667-.217a2.093 2.093 0 0 1 1.205-.232c.47.046.919.266 1.245.607.372.375.59.896.605 1.423v.452c-.26.005-.52.017-.78.01v-.413c0-.47-.269-.93-.682-1.156a1.288 1.288 0 0 0-1.023-.09c-.35.115-.641.387-.784.725-.146.337-.138.737.03 1.065-.256.117-.543.047-.812.04h-.017a2.144 2.144 0 0 1 .021-1.25c.163-.502.527-.934.992-1.18zm8.944-1.293h.78c-.002 1.164.005 2.328-.003 3.492l-.036.303c-.236-.032-.474-.01-.71-.02a4.392 4.392 0 0 0-.028-.283c-.009-1.164-.002-2.329-.003-3.492zm-5.259 0 .77-.001c.004 1.184.002 2.369.002 3.553-.258.01-.518-.016-.774.017.001-1.19-.004-2.38.002-3.57zM7 10.966c.005-.504.45-.953.953-.966.643 0 1.286.002 1.93-.001.009.258.003.516.002.774-.618.004-1.236 0-1.855.001a.245.245 0 0 0-.232.136c-.029.057-.023.122-.024.184.003.442-.001.884.002 1.326.49 0 .98-.002 1.469 0 .003.26.003.52 0 .78H7.776a8.37 8.37 0 0 0-.001.16c-.12-.029-.238.029-.358.022-.139-.005-.277-.026-.416-.012-.002-.801 0-1.603 0-2.404z" fill="url(#a)"/><path d="M28.206 15.476c.264-.006.53-.006.794 0-.083.41-.2.812-.293 1.22-.273 1.106-.549 2.212-.825 3.319-.034.16-.079.324-.186.453a.686.686 0 0 1-.568.258.712.712 0 0 1-.673-.482c-.032-.095-.05-.193-.069-.291-.099-.532-.201-1.063-.3-1.594a.942.942 0 0 0-.024-.07c-.124.608-.225 1.221-.356 1.828a.777.777 0 0 1-.338.506.658.658 0 0 1-.706.001 1.041 1.041 0 0 1-.358-.433c-.118-.25-.227-.506-.354-.753-.2.303-.443.581-.74.794a2.757 2.757 0 0 1-2.478.355 2.011 2.011 0 0 1-.961-.7c-.322-.442-.434-1.011-.382-1.549.04-.474.22-.949.563-1.287.532-.548 1.402-.698 2.105-.424.476.182.836.603.995 1.081.14.39.143.812.133 1.221-.997.01-1.994-.002-2.99.007.055.316.244.607.518.777.41.253.927.295 1.39.183.482-.116.91-.433 1.168-.857.096-.155.155-.332.26-.483.157-.217.49-.263.71-.12a.504.504 0 0 1 .191.22c.135.275.266.552.4.829.044.095.087.193.147.28.078-.307.119-.623.184-.933l.22-1.163a.685.685 0 0 1 .277-.439c.293-.216.757-.15.966.151.115.152.133.346.168.526.116.606.227 1.214.345 1.82.037-.072.055-.152.073-.23.259-1.024.51-2.05.76-3.077.08-.315.149-.631.234-.945zm-7.42 1.921a1.08 1.08 0 0 0-.572.757c.717.003 1.434.004 2.152 0a1.136 1.136 0 0 0-.327-.64.998.998 0 0 0-.625-.24 1.264 1.264 0 0 0-.628.123zM8.59 15.264a2.2 2.2 0 0 1 .938-.008 2.095 2.095 0 0 1 1.325.951 2.08 2.08 0 0 1-.717 2.86c.072.124.168.232.25.348.22.3.444.597.665.896.081.11.17.215.236.336-.257.015-.515 0-.772.008-.072-.006-.168.018-.213-.055-.238-.316-.472-.637-.708-.955-.078-.102-.147-.211-.236-.304-.253.03-.509.015-.763.018-.272.003-.545-.005-.817.004-.007.428.003.857-.004 1.285-.255.009-.511.01-.766 0-.01-1.128 0-2.256-.005-3.383a1.966 1.966 0 0 1 .29-1.047c.28-.475.759-.829 1.297-.955zm-.155.893a1.313 1.313 0 0 0-.618.815c-.055.204-.04.417-.04.625 0 .326-.004.652.001.977.434.012.868.002 1.303.005a1.296 1.296 0 1 0-.646-2.422z" fill="#C9C9C9"/><path d="M18.194 19.72c.258-.01.517.013.773-.025-.001.32.008.642-.005.963-.255-.002-.51-.003-.765 0-.007-.312-.002-.625-.003-.938zm-2.629-.687c.257.003.515.003.772.005 0 .539.003 1.078 0 1.617-.258.003-.514.002-.77 0-.005-.54-.003-1.08-.002-1.622zm-4.192.005c.257-.037.517-.028.777-.025l.017.006c.046.127.09.255.17.366.185.289.517.455.85.5.39.06.81-.044 1.108-.31.179.186.36.37.536.559a1.956 1.956 0 0 1-1.084.52 2.223 2.223 0 0 1-1.557-.33c-.44-.288-.723-.775-.817-1.286zm.874-2.267c.426-.262.952-.335 1.44-.246.388.07.754.275 1 .585.232.283.364.637.417.997.042.272.03.548.029.822h-2.976l-.007.084c-.26-.003-.52-.012-.777.025-.085-.434-.05-.89.098-1.307.142-.395.417-.742.776-.96zm.394.675c-.252.157-.413.425-.485.708h1.916c.083.001.167.004.249-.008-.05-.208-.126-.416-.272-.575a.905.905 0 0 0-.534-.284c-.298-.046-.618-.006-.874.16zm3.454-.563c.623-.517 1.591-.545 2.245-.071.357.247.62.652.628 1.093 0 .597.002 1.193 0 1.79-.257.038-.516.016-.773.025-.003-.58 0-1.16-.002-1.74a.582.582 0 0 0-.148-.385c-.278-.325-.763-.422-1.157-.277-.213.08-.414.227-.504.442-.058.134-.045.284-.046.426v.852c-.258-.002-.516-.002-.773-.005-.003-.367 0-.735-.001-1.102.005-.408.218-.795.531-1.048z" fill="url(#b)"/><path d="M25.202 22.634c.252-.227.595-.327.929-.335.548-.035 1.081.227 1.45.622-.188.18-.375.361-.57.533-.212-.215-.496-.38-.804-.378-.178.002-.375.029-.505.161-.155.153-.2.428-.054.602.1.116.261.138.404.159.318.04.65.046.946.181.226.1.416.279.523.502.18.357.136.797-.052 1.143a1.234 1.234 0 0 1-.748.604 1.812 1.812 0 0 1-1.23-.078 2.044 2.044 0 0 1-.666-.477c.189-.177.374-.356.566-.53.215.203.487.367.79.376.197.004.424-.03.554-.196.106-.137.166-.338.084-.501-.064-.126-.214-.163-.341-.188-.36-.06-.742-.044-1.074-.214a1.133 1.133 0 0 1-.598-.779 1.274 1.274 0 0 1 .396-1.207zm-3.746.094a1.923 1.923 0 0 1 1.217-.442c.423-.013.858.102 1.192.368.337.264.549.663.639 1.076.074.328.068.666.061 1-.995-.004-1.99-.004-2.984 0 .064.314.247.615.53.777.495.289 1.18.253 1.612-.135.184.184.368.37.54.563-.633.598-1.641.695-2.412.319a1.86 1.86 0 0 1-.832-.806c-.271-.512-.322-1.126-.187-1.686a1.92 1.92 0 0 1 .624-1.034zm.617.514c-.25.155-.413.421-.482.703.72.003 1.44.001 2.16 0-.046-.214-.128-.428-.281-.59a.9.9 0 0 0-.516-.27 1.259 1.259 0 0 0-.881.157zm-10.243-.668a2.086 2.086 0 0 1 1.45-.357c.37.044.727.196 1.018.429a2.15 2.15 0 0 1 .799 1.659v2.047h-2.023a2.142 2.142 0 0 1-1.307-.433 2.092 2.092 0 0 1-.712-.972 2.067 2.067 0 0 1 .775-2.373zm.274.786a1.29 1.29 0 0 0-.38.92 1.27 1.27 0 0 0 .485.993c.237.192.54.298.845.303.418.006.838 0 1.257.004.01-.297.001-.594.005-.891-.005-.258.024-.522-.06-.77A1.308 1.308 0 0 0 13.248 23a1.297 1.297 0 0 0-1.144.359zm7.479-2.207c.26-.005.52-.005.78 0l.001 5.198c-.26.003-.521.003-.782 0v-5.198zm-4.01-.002c.258-.002.518-.002.777 0 .002.403 0 .805.002 1.208.472-.167 1-.175 1.476-.019.42.135.798.412 1.03.788.207.327.313.713.33 1.098.027.507-.096 1.03-.394 1.446a1.92 1.92 0 0 1-1.007.706c-.363.11-.755.127-1.127.053a1.944 1.944 0 0 1-1.087-.618c-.006-1.554-.003-3.108 0-4.662zm.779 2.082c0 .748-.005 1.495.003 2.243.42.274.988.29 1.431.061.295-.15.497-.444.575-.76.097-.402.063-.847-.148-1.207a1.124 1.124 0 0 0-.656-.498 1.43 1.43 0 0 0-1.205.161z" fill="#47C200"/></svg>