<svg width="36" height="36" fill="none" xmlns="http://www.w3.org/2000/svg"><path d="M18 0c2.837 0 5.52.656 7.907 1.825C31.884 4.753 36 10.895 36 18c0 9.942-8.058 18-18 18-9.94 0-18-8.057-18-18C0 8.06 8.06 0 18 0z" fill="#F2F4F7"/><path d="M4.328 17.298v.308h.536v.257h-.536v.527H4v-1.36h1.002v.268h-.674zm2.799.824v.268h-.894v-1.36h.328v1.092h.566zm1.33.07a.852.852 0 0 1-.15-.487c0-.358.19-.695.606-.695.189 0 .338.06.447.208.1.13.149.328.149.487 0 .159-.04.347-.13.466a.54.54 0 0 1-.466.229.506.506 0 0 1-.456-.209zm.238-.765a.896.896 0 0 0-.04.278c0 .168.03.436.258.436.11 0 .169-.05.209-.158.03-.07.04-.189.04-.278 0-.1-.01-.219-.05-.308-.04-.09-.1-.129-.199-.129-.119 0-.179.06-.218.159zm3.672.963h-.327l-.229-.894-.218.894h-.318l-.367-1.36h.338l.218.913.228-.913h.298l.238.913.01-.06.209-.853h.268l-.348 1.36zm5.707 0h-.178v-1.211h-.397v-.15h.973v.15h-.398v1.21zm2.422 0-.258-.586h-.387v.586h-.178v-1.36h.526c.119 0 .228.01.317.08a.38.38 0 0 1 .149.297c0 .159-.1.308-.258.347l.278.626h-.189v.01zm-.317-.725c.089 0 .168-.01.238-.08a.24.24 0 0 0 .07-.178c0-.08-.03-.149-.1-.189-.06-.04-.119-.04-.198-.04h-.348v.487h.338zm2.789.725h-.179l-.139-.397h-.516l-.129.397h-.149l.457-1.36h.198l.457 1.36zm-.576-1.182-.218.655h.427l-.209-.655zm1.886-.178h.447c.198 0 .347.04.486.188a.73.73 0 0 1 .169.487c0 .168-.05.327-.15.466a.52.52 0 0 1-.446.219h-.496v-1.36h-.01zm.437 1.21c.158 0 .288-.039.387-.168.07-.1.099-.238.099-.367a.635.635 0 0 0-.129-.397c-.1-.12-.209-.14-.357-.14h-.258v1.073h.258zm2.908.15h-.903v-1.36h.883v.149h-.715v.427h.566v.138h-.566v.497h.735v.149zm2.094 0-.258-.586h-.387v.586h-.179v-1.36h.526c.12 0 .229.01.318.08.09.069.149.178.149.297 0 .159-.1.308-.258.347l.278.626h-.189v.01zm-.317-.725c.089 0 .168-.01.238-.08a.24.24 0 0 0 .07-.178c0-.08-.03-.149-.1-.189-.06-.04-.12-.04-.199-.04h-.347v.487h.337zm1.657.318c.06.188.218.277.417.277.08 0 .189-.02.248-.069.05-.04.09-.11.09-.179 0-.139-.12-.188-.239-.218l-.228-.06a.538.538 0 0 1-.258-.109.338.338 0 0 1-.11-.248c0-.258.229-.377.477-.377.238 0 .427.11.496.328l-.158.04c-.03-.15-.199-.239-.348-.239-.129 0-.298.07-.298.218 0 .15.12.189.258.219l.209.05a.59.59 0 0 1 .258.109.32.32 0 0 1 .129.268.38.38 0 0 1-.159.307c-.1.08-.238.1-.367.1-.288 0-.477-.12-.566-.388l.15-.03z" fill="#303030"/><path fill-rule="evenodd" clip-rule="evenodd" d="M15.812 18.4h-1.39v-1.39h1.39v1.39z" fill="#E92126"/></svg>