<svg width="36" height="36" fill="none" xmlns="http://www.w3.org/2000/svg"><path d="M18 0c2.837 0 5.52.656 7.907 1.825C31.884 4.753 36 10.895 36 18c0 9.942-8.058 18-18 18-9.94 0-18-8.057-18-18C0 8.06 8.06 0 18 0z" fill="#F2F4F7"/><path d="M24.405 17.107a5.473 5.473 0 0 0 5.33-4.177 5.593 5.593 0 0 0-2.665-6.24 5.473 5.473 0 0 0-6.673 1.08 5.569 5.569 0 0 0-.625 6.77c-.576.336-1.2.576-1.896.672a4.73 4.73 0 0 1-1.776-.672 5.57 5.57 0 0 0-1.2-7.346 5.474 5.474 0 0 0-8.883 4.129 5.57 5.57 0 0 0 4.73 5.69 5.495 5.495 0 0 0 3.84-.961 5.2 5.2 0 0 1 .672 1.848 4.165 4.165 0 0 1-.576 1.92 5.45 5.45 0 0 0-7.37.841 5.57 5.57 0 0 0 3.841 9.146 5.45 5.45 0 0 0 5.738-4.729 5.57 5.57 0 0 0-.889-3.913 4.677 4.677 0 0 1 1.873-.624c.72.072 1.392.312 1.992.672a5.617 5.617 0 0 0 1.057 7.49 5.522 5.522 0 0 0 9.074-4.177 5.618 5.618 0 0 0-4.945-5.69 5.521 5.521 0 0 0-3.89 1.057 4.801 4.801 0 0 1-.503-1.945 4.973 4.973 0 0 1 .504-1.968 5.468 5.468 0 0 0 3.24 1.128zm-7.873 7.25a5.113 5.113 0 0 1-3.89 4.921 5.017 5.017 0 0 1-5.689-2.665 5.137 5.137 0 0 1 1.273-6.193 5.041 5.041 0 0 1 6.241-.168l-.24.432-2.64 2.593h-.12a1.055 1.055 0 0 0-.289.048 8.406 8.406 0 0 0-.864-.96c-.96-.913-1.944-1.44-2.16-1.2-.24.24.36 1.2 1.344 2.112.288.288.624.552.96.792-.04.1-.064.205-.072.312a1.105 1.105 0 0 0 1.104 1.08l.264-.048c.265.336.577.648.889.96.96.913 1.944 1.44 2.16 1.2.24-.24-.36-1.2-1.344-2.112a8.388 8.388 0 0 0-.96-.792c.031-.101.047-.206.048-.312v-.072l2.64-2.64.408-.24c.6.887.913 1.92.913 2.952h.024zm-.84-10.01c-.433-.24-.889-.505-1.32-.793l-1.825-1.8.024-.192a1.056 1.056 0 0 0-.048-.24c.36-.24.672-.552.96-.864.936-1.009 1.464-1.969 1.2-2.209-.24-.24-1.176.384-2.064 1.368-.288.288-.528.6-.768.913a1.056 1.056 0 0 0-.36-.048 1.057 1.057 0 0 0-.889.432 1.08 1.08 0 0 0-.12 1.008c-.336.24-.648.552-.936.864-.912.984-1.44 1.969-1.2 2.209s1.2-.384 2.088-1.369c.288-.336.576-.672.816-1.032l.24.048 2.641 2.593.288.48a4.993 4.993 0 0 1-6.721-.84 5.089 5.089 0 0 1 3.456-8.354 4.993 4.993 0 0 1 5.306 4.225c.216 1.248-.072 2.544-.745 3.6h-.024zm5.065 7.393 2.568 2.52v.073c0 .144.024.24.072.36l-.912.888c-.912.96-1.44 1.969-1.2 2.185.24.24 1.176-.36 2.088-1.369a8.15 8.15 0 0 0 .793-1.008l.24.048a1.082 1.082 0 0 0 1.104-1.104l-.048-.216c.336-.264.672-.552.96-.888.912-.96 1.44-1.969 1.2-2.209s-1.2.384-2.088 1.368c-.264.288-.528.6-.744.937a1.055 1.055 0 0 0-.48-.072l-2.881-2.833-.072-.12a4.993 4.993 0 0 1 6.793.648 5.089 5.089 0 0 1-3.432 8.426 4.993 4.993 0 0 1-5.282-4.345c-.168-1.272.12-2.544.865-3.6l.456.311zm-.577-7.44a5.137 5.137 0 0 1 1.2-6.794 5.041 5.041 0 0 1 6.794.6 5.138 5.138 0 0 1-3.312 8.546 5.041 5.041 0 0 1-3.505-1.08V15.5l2.953-2.88a1.08 1.08 0 0 0 .504-.073c.264.336.576.672.888.96.96.937 1.968 1.465 2.184 1.225.24-.24-.36-1.2-1.344-2.113a7.606 7.606 0 0 0-1.104-.864l.048-.24a1.105 1.105 0 0 0-.672-.984 1.078 1.078 0 0 0-.409-.096h-.168a8.407 8.407 0 0 0-.864-.913c-.96-.888-1.92-1.464-2.16-1.2-.24.288.36 1.2 1.344 2.113l.84.696a1.078 1.078 0 0 0-.072.384v.096l-1.992 1.968-1.152.72z" fill="#000"/></svg>