<svg height="36" viewBox="0 0 36 36" width="36" xmlns="http://www.w3.org/2000/svg"><mask id="a" fill="#fff"><path d="M0 0h2.388v2.995H0z" fill-rule="evenodd"/></mask><mask id="b" fill="#fff"><path d="M0 0h2.78v2.791H0z" fill-rule="evenodd"/></mask><mask id="c" fill="#fff"><path d="M0 .052h1v.896H0z" fill-rule="evenodd"/></mask><mask id="d" fill="#fff"><path d="M.128 0h.744v1H.128z" fill-rule="evenodd"/></mask><mask id="e" fill="#fff"><path d="M.241 0H.76v1H.24z" fill-rule="evenodd"/></mask><g fill="none" fill-rule="evenodd"><path d="M18 0c2.837 0 5.52.656 7.907 1.825C31.884 4.753 36 10.895 36 18c0 9.942-8.058 18-18 18-9.94 0-18-8.057-18-18C0 8.06 8.06 0 18 0z" fill="#f2f4f7" fill-rule="nonzero"/><path d="M2.014 1.491c-.01-.138-.01-.289-.043-.435a1.345 1.345 0 0 0-.076-.243c-.09-.21-.211-.392-.44-.47a.71.71 0 0 0-.89.36c-.185.352-.184.732-.144 1.114.023.215.09.416.218.593a.695.695 0 0 0 1.136-.007c.19-.272.228-.582.239-.913m.37.01c.013.322-.027.634-.19.916-.247.43-.628.617-1.117.571C.64 2.946.33 2.703.167 2.31A2.068 2.068 0 0 1 .156.71a1.136 1.136 0 0 1 1.84-.392c.263.253.352.59.388.94.008.08 0 .162 0 .243" fill="#272324" mask="url(#a)" transform="translate(25.53 16.058)"/><path d="M29.401 16.959v.423c.001.035-.015.086.047.084.203-.006.411.03.605-.062.207-.1.312-.32.276-.581-.03-.21-.15-.332-.386-.361-.16-.02-.324-.008-.486-.013-.06-.002-.056.035-.056.074zm1.533 2c-.415.029-.41.026-.595-.308-.139-.254-.25-.521-.436-.752-.132-.166-.296-.135-.462-.133-.063 0-.039.055-.039.088 0 .334-.004.667.001 1 .002.09-.023.116-.114.115-.27-.004-.27 0-.27-.275 0-.804.002-1.608-.002-2.412 0-.102.018-.142.13-.136.307.015.616-.02.922.02.3.038.544.16.628.479.087.33.03.627-.234.864a1.03 1.03 0 0 1-.322.19c.27.15.328.434.467.663.114.189.212.388.326.597" fill="#272324"/><path d="M13.929 17.544c0-.428.002-.856-.002-1.284-.001-.09.024-.115.114-.114.458.004.916.004 1.374 0 .084-.001.12.021.108.106a.229.229 0 0 0 0 .064c.017.107-.015.148-.136.145-.32-.01-.641 0-.962-.006-.097-.002-.124.026-.121.121.007.218.007.437 0 .655-.002.093.018.126.118.123.278-.008.557.001.835-.005.089-.002.117.021.113.112-.006.173-.001.173-.18.173-.256 0-.512.004-.77-.002-.085-.002-.118.018-.116.111.006.269.005.54 0 .809-.001.084.026.109.109.108.364-.005.728.001 1.092-.005.093-.002.136.018.12.118a.553.553 0 0 0 0 .115c.007.065-.024.079-.082.079-.51-.002-1.02-.004-1.528.001-.098.001-.086-.054-.086-.115v-1.309" fill="#252223"/><path d="M2.78 2.518c0 .292 0 .292-.286.258-.87-.103-1.556-.512-2.045-1.239a2.673 2.673 0 0 1-.45-1.41C-.002.036.025.006.115.011.246.02.41-.03.503.032.599.093.549.272.57.4c.16.987.983 1.733 2.03 1.84.18.017.18.017.18.202z" fill="#ed4044" mask="url(#b)" transform="translate(4 16.108)"/><path d="M16.72 17.545c0-.428.002-.855-.002-1.284 0-.09.022-.116.113-.116.458.006.916.006 1.373 0 .093 0 .114.028.111.116-.006.197 0 .197-.192.197-.308 0-.616.002-.924-.002-.08-.002-.1.023-.099.1.005.236.004.47 0 .706-.002.075.023.092.094.092.286-.004.573 0 .86-.004.08-.001.121.015.106.103a.196.196 0 0 0 0 .064c.015.092-.016.124-.116.12-.278-.007-.556 0-.834-.003-.076-.002-.113.008-.11.099.006.274.006.548 0 .822-.003.09.03.105.11.104.363-.004.727.002 1.09-.004.098-.002.131.025.117.119a.5.5 0 0 0 0 .116c.002.05-.01.078-.07.078-.518-.002-1.036-.003-1.553 0-.095 0-.074-.063-.074-.114v-1.31m6.131.001c-.004.318.035.603.187.862a.76.76 0 0 0 .961.304c.118-.052.2-.136.216-.266.01-.079.044-.103.116-.092.013.002.026 0 .04 0 .23 0 .242.015.152.23-.133.318-.397.45-.72.462-.746.028-1.204-.364-1.31-1.113-.056-.389-.052-.778.102-1.148.288-.694.991-.843 1.56-.638.247.089.36.3.41.548.002.017.008.045.002.049-.087.047-.18.01-.272.022-.048.007-.064-.016-.074-.063-.048-.213-.137-.293-.352-.327-.535-.084-.887.191-.987.772a2.017 2.017 0 0 0-.03.398" fill="#272324"/><path d="M8.39 17.562c0-.437.002-.873-.002-1.309-.001-.083.02-.108.106-.107.46.004.923.004 1.385 0 .087 0 .117.026.105.11a.295.295 0 0 0 0 .09c.014.09-.02.115-.111.113-.33-.005-.658.001-.987-.003-.085 0-.122.016-.12.11.006.253.004.505 0 .758-.001.077.022.103.102.101.278-.004.556.002.834-.003.093-.002.137.012.13.121-.01.172-.002.173-.18.173-.257 0-.513.004-.77-.002-.088-.002-.117.022-.116.113.005.341-.001.684.004 1.026 0 .09-.023.116-.114.115-.266-.003-.266.001-.266-.264v-1.142" fill="#282425"/><path d="M20.634 17.709c0 .38-.002.762.001 1.142.001.086-.015.12-.11.118-.26-.003-.26.002-.26-.261 0-.715-.002-1.43.003-2.143 0-.097-.025-.121-.12-.118-.243.008-.487 0-.731.004-.082.002-.122-.018-.108-.105a.395.395 0 0 0 0-.103c-.008-.07.013-.096.09-.096.693.002 1.385.002 2.078 0 .071 0 .104.015.095.09a.557.557 0 0 0 0 .13c.008.07-.026.084-.089.084-.248-.003-.497.002-.745-.004-.084-.001-.107.024-.106.107.004.385.002.77.002 1.155" fill="#292526"/><path d="M11.105 17.55c0-.431.002-.863-.002-1.295 0-.083.022-.11.107-.11.28 0 .28-.003.28.282 0 .698.003 1.396-.003 2.093-.001.117.034.142.144.14.39-.007.779.004 1.168-.007.13-.003.167.038.147.156a.284.284 0 0 0 0 .077c.006.06-.016.082-.08.082-.56-.003-1.121-.003-1.681 0-.091 0-.081-.051-.081-.107v-1.31z" fill="#252122"/><path d="M6.78 17.569c-.01.317.067.284-.284.234-.787-.111-1.376-.771-1.43-1.566-.006-.09.018-.122.11-.117.125.008.265-.033.368.013.116.053.057.218.096.33.167.479.499.757.996.825.122.016.166.048.146.166-.006.037-.001.076-.001.115" fill="#ed4044"/><path d="M.497.117C.602.122.741.09.805.144c.07.057.02.2.024.306.003.077-.004.154.002.23.007.087-.025.114-.11.1A.665.665 0 0 1 .162.237C.15.159.156.112.253.12c.081.008.162.002.244.002V.117" fill="#ed4246" mask="url(#c)" transform="translate(5.953 16)"/><path d="M.798.37C.797.193.674.065.506.066a.295.295 0 0 0-.298.301.308.308 0 0 0 .303.313C.674.68.799.543.798.37m.074.015A.356.356 0 0 1 .5.74.37.37 0 0 1 .129.365.379.379 0 0 1 .514 0c.209.003.362.167.358.384" fill="#343233" mask="url(#d)" transform="translate(31.128 16.155)"/><path d="M.371.071C.351.07.32.07.321.128c0 .054.013.078.07.073.05-.004.1-.01.098-.072C.487.072.435.075.371.071m.191.365C.465.447.462.368.427.328.403.3.392.25.343.266.303.281.33.326.321.357.313.385.342.433.287.437.22.441.247.385.245.354.241.3.245.244.245.187c0-.188.03-.21.221-.17.087.02.144.13.08.181C.448.276.498.325.546.39.552.4.553.412.561.436" fill="#302e2f" mask="url(#e)" transform="translate(31.241 16.3)"/></g></svg>