<svg width="36" height="36" fill="none" xmlns="http://www.w3.org/2000/svg"><path d="M18 0c2.837 0 5.52.656 7.907 1.825C31.884 4.753 36 10.895 36 18c0 9.942-8.058 18-18 18-9.94 0-18-8.057-18-18C0 8.06 8.06 0 18 0z" fill="#F2F4F7"/><path fill-rule="evenodd" clip-rule="evenodd" d="M17.722 23.165v.04c.128.011.139.026.128.215l-.016.292c-.008.137-.02.22-.027.264-.01.053-.04.068-.115.073v.04h.355v-.04c-.1-.008-.13-.02-.137-.073a1.832 1.832 0 0 1-.004-.25l.01-.368h.006l.328.714h.045l.34-.742h.006l.006.546c.001.16-.003.162-.12.173v.04h.418v-.04c-.122-.011-.126-.014-.13-.173l-.016-.498c-.002-.156.004-.162.125-.173v-.04h-.283l-.313.678-.33-.678h-.276zm1.688 0v.04c.117.008.13.02.13.173v.498c0 .153-.013.165-.13.173v.04h.423v-.04c-.114-.008-.126-.02-.126-.173v-.498c0-.153.012-.165.126-.173v-.04h-.422zm.874 0v.04c.123.008.156.043.156.208v.278c0 .162-.008.242-.014.285-.007.05-.046.07-.12.073v.04h.364v-.04c-.095-.005-.137-.022-.145-.073a2.119 2.119 0 0 1-.013-.285v-.307h.003l.617.717h.068v-.538c0-.162.008-.241.014-.284.007-.051.046-.071.121-.074v-.04h-.365v.04c.096.006.138.023.145.074a2.1 2.1 0 0 1 .014.284v.27h-.003l-.598-.668h-.244zm1.506 0v.04c.114.008.126.02.126.173v.498c0 .153-.012.165-.14.173v.04h.73c.012-.04.045-.185.05-.233l-.044-.009a.448.448 0 0 1-.077.144c-.031.036-.1.041-.175.041-.063 0-.117-.001-.144-.018-.026-.019-.032-.058-.032-.14v-.234h.128c.13 0 .132.006.147.118h.048v-.301h-.048c-.015.109-.018.118-.147.118h-.128v-.302c0-.051.003-.051.06-.051h.074c.093 0 .141.008.167.033.022.02.04.06.055.129l.045-.003c-.01-.088-.015-.193-.018-.216h-.677zm1.5.105c0-.045.003-.05.075-.05.096 0 .203.05.203.198 0 .068-.02.137-.08.182-.04.029-.081.037-.141.037h-.057v-.367zm-.29-.105v.04c.113.008.125.02.125.173v.498c0 .153-.012.165-.131.173v.04h.422v-.04c-.114-.008-.126-.02-.126-.173v-.19h.048c.045 0 .063.014.087.053.043.074.093.165.14.23.059.08.11.12.273.132l.063.002.006-.037c-.044-.01-.068-.03-.104-.065a1.538 1.538 0 0 1-.124-.158c-.048-.064-.106-.163-.13-.203.121-.043.2-.127.2-.246a.205.205 0 0 0-.1-.18.463.463 0 0 0-.247-.049H23zm1.726 0-.303.74c-.052.127-.069.133-.161.144v.04h.332v-.04l-.042-.004c-.066-.007-.078-.026-.05-.1.02-.06.047-.14.067-.183h.276c.032.074.068.162.083.205.018.054.015.068-.042.077l-.042.005v.04h.394v-.04c-.087-.008-.108-.018-.159-.145-.057-.142-.123-.318-.19-.492l-.103-.264-.06.017zm-.024.219h.004l.117.313h-.238l.117-.313z" fill="#6F8F9D"/><mask id="a" style="mask-type:alpha" maskUnits="userSpaceOnUse" x="4" y="20" width="24" height="5"><path d="M4 20.07h23.463v4.037H4V20.07z" fill="#fff"/></mask><g mask="url(#a)" fill-rule="evenodd" clip-rule="evenodd"><path d="M25.658 23.165v.04c.12.008.132.02.132.173v.498c0 .153-.012.165-.138.173v.04h.703c.011-.042.044-.187.053-.233l-.048-.009a.422.422 0 0 1-.073.144c-.031.036-.103.041-.172.041-.048 0-.097-.003-.123-.02-.025-.017-.034-.056-.034-.139v-.495c0-.153.012-.165.132-.173v-.04h-.432zm1.767.209a2.96 2.96 0 0 1-.03-.192c-.018-.007-.04-.01-.063-.018a.459.459 0 0 0-.137-.02c-.2 0-.318.122-.318.272 0 .139.125.214.224.263l.048.022c.118.056.159.113.159.192 0 .088-.06.161-.157.161-.155 0-.235-.158-.265-.232l-.045.014c.015.087.033.184.045.22.018.006.044.018.086.03a.499.499 0 0 0 .15.025c.202 0 .341-.12.341-.289 0-.148-.107-.223-.224-.273l-.039-.017c-.115-.05-.175-.102-.175-.182s.054-.15.152-.15c.126 0 .173.1.2.183l.048-.009z" fill="#6F8F9D"/><path d="M3.996 20.07v.104c.277.023.307.052.307.455v1.304c0 .402-.03.432-.307.454v.104h1.101v-.104c-.344-.022-.374-.052-.374-.454v-.582h.374c.322 0 .33.015.367.295h.12v-.764h-.12c-.037.276-.045.298-.367.298h-.374v-.827c0-.134.007-.134.15-.134h.194c.232 0 .352.022.416.085.056.056.101.16.138.332l.113-.015c-.023-.216-.038-.492-.045-.551H3.996z" fill="#1A1919"/></g><path fill-rule="evenodd" clip-rule="evenodd" d="M5.889 20.07v.104c.292.022.322.052.322.454v1.304c0 .402-.03.432-.322.455v.104h1.056v-.104c-.285-.023-.315-.053-.315-.455v-1.304c0-.402.03-.432.315-.454v-.105H5.889zm1.958.275c0-.12.008-.134.188-.134.24 0 .509.134.509.522 0 .178-.053.357-.202.476-.098.075-.202.097-.352.097h-.143v-.961zm-.726-.276v.105c.285.022.315.052.315.454v1.304c0 .402-.03.432-.33.455v.104h1.056v-.104c-.285-.023-.315-.053-.315-.455v-.5h.12c.113 0 .158.038.217.142.109.194.233.433.352.604.146.209.274.313.682.343l.157.007.015-.097c-.108-.026-.168-.082-.258-.171a3.98 3.98 0 0 1-.311-.414c-.12-.167-.266-.428-.326-.532.304-.112.498-.332.498-.645a.543.543 0 0 0-.247-.473c-.15-.097-.344-.127-.618-.127H7.121zm3.743.548a7.977 7.977 0 0 1-.075-.503c-.045-.018-.098-.026-.158-.048a1.1 1.1 0 0 0-.34-.052c-.502 0-.798.32-.798.711 0 .365.315.563.562.69l.12.06c.295.144.396.293.396.502 0 .231-.15.421-.393.421-.385 0-.588-.413-.662-.607l-.113.037c.038.227.083.48.113.578.045.014.112.044.217.078.097.033.232.063.374.063.506 0 .854-.313.854-.756 0-.388-.27-.585-.562-.715l-.097-.045c-.288-.13-.438-.268-.438-.477 0-.212.135-.391.382-.391.314 0 .43.26.498.477l.12-.023zm.326.041c.046-.179.09-.276.136-.328.06-.067.157-.111.479-.111h.127v1.713c0 .403-.03.432-.36.455v.104h1.154v-.104c-.345-.023-.375-.052-.375-.455V20.22h.195c.232 0 .352.022.416.093.056.055.1.152.138.346l.113-.007a15.995 15.995 0 0 1-.045-.678h-.06c-.06.074-.083.097-.18.097h-1.543c-.104 0-.142-.008-.194-.097h-.068c-.007.193-.03.44-.045.685h.113zm5.807 2.589c-.33-.145-1.04-.588-1.3-.763.51-.16.866-.615.866-1.248 0-.727-.536-1.222-1.183-1.222-.88 0-1.311.696-1.311 1.307 0 .649.445 1.178 1.123 1.222.476.343.76.459.869.485.086.03.707.286.917.294l.019-.075zm-1.775-.868c-.43-.093-.666-.573-.666-1.177 0-.66.296-1.04.715-1.04.505 0 .805.437.805 1.212 0 .603-.221.927-.54 1.002a1.032 1.032 0 0 1-.078-.049l-.236.052zm1.473-2.309v.104c.3.022.33.044.33.447v.86c0 .44.082.708.28.868.188.153.435.198.667.198.262 0 .528-.1.693-.28.206-.22.273-.529.273-.89v-.265c0-.424.019-.633.034-.745.018-.134.116-.186.303-.193v-.105h-.913v.105c.24.015.344.06.363.193.015.112.033.32.033.745v.224c0 .652-.224.995-.677.995-.442 0-.637-.332-.637-.924v-.786c0-.403.03-.425.307-.447v-.105h-1.056zm3.435 0-.757 1.937c-.13.335-.172.35-.404.38v.104h.831v-.104l-.105-.011c-.164-.019-.194-.067-.127-.265.053-.156.12-.365.168-.477h.693c.079.194.169.425.206.537.045.141.038.179-.105.2l-.105.016v.104h.985v-.104c-.217-.023-.27-.049-.397-.38-.142-.373-.307-.835-.475-1.29l-.259-.692-.15.045zm-.06.573h.011l.292.82h-.595l.292-.82zm1.305-.573v.104c.306.022.389.111.389.544v.73c0 .424-.019.633-.034.745-.018.134-.116.186-.303.194v.104h.913v-.104c-.24-.015-.344-.06-.363-.194a5.756 5.756 0 0 1-.033-.745v-.805h.007l1.543 1.878h.172v-1.409c0-.424.019-.633.034-.745.018-.134.116-.186.303-.193v-.105h-.914v.105c.24.015.345.06.364.193.015.112.033.32.033.745v.708h-.007l-1.494-1.75h-.61zm2.798.588c.045-.179.09-.276.135-.328.06-.067.157-.111.479-.111h.127v1.713c0 .403-.03.432-.36.455v.104h1.154v-.104c-.345-.023-.374-.052-.374-.455V20.22h.194c.232 0 .352.022.416.093.056.055.101.152.138.346l.113-.007a15.83 15.83 0 0 1-.045-.678h-.06c-.06.074-.082.097-.18.097h-1.543c-.104 0-.142-.008-.194-.097h-.068c-.007.193-.03.44-.045.685h.113zm2.094-.588v.104c.3.022.33.044.33.447v.86c0 .44.081.708.28.868.187.153.434.198.667.198.261 0 .527-.1.692-.28.206-.22.273-.529.273-.89v-.265c0-.424.02-.633.034-.745.019-.134.116-.186.303-.193v-.105h-.913v.105c.24.015.344.06.363.193.015.112.034.32.034.745v.224c0 .652-.225.995-.678.995-.442 0-.637-.332-.637-.924v-.786c0-.403.03-.425.308-.447v-.105h-1.056zm2.674 0v.104c.322.03.348.067.322.562l-.041.768a6.175 6.175 0 0 1-.068.689c-.026.141-.1.179-.288.194v.104h.887v-.104c-.247-.023-.325-.053-.34-.194a5.053 5.053 0 0 1-.012-.652l.027-.965h.015l.82 1.87h.112l.85-1.945h.015l.015 1.431c.004.417-.008.425-.3.455v.104H32v-.104c-.303-.03-.314-.038-.326-.455l-.037-1.304c-.008-.41.007-.425.31-.454v-.105h-.707l-.783 1.777-.827-1.777h-.689z" fill="#1A1919"/><path fill-rule="evenodd" clip-rule="evenodd" d="m19.669 15.626.994-.992-.776-.775.537-.536 1.314 1.31-2.075 2.06-.787-.786-.802.8-.536-.535 1.34-1.337.79.79z" fill="#C7832B"/><path fill-rule="evenodd" clip-rule="evenodd" d="m19.084 13.061-.992-.99-.778.777-.537-.535L18.094 11l2.06 2.063-.789.788.8.797-.538.537-1.337-1.334.794-.79z" fill="#C7832B"/><path fill-rule="evenodd" clip-rule="evenodd" d="m16.522 13.635-.994.992.777.774-.538.537-1.314-1.31 2.075-2.06.787.785.802-.8.536.536-1.34 1.336-.79-.79z" fill="#C7832B"/><path fill-rule="evenodd" clip-rule="evenodd" d="m17.096 16.2.992.99.78-.777.536.535-1.317 1.313-2.061-2.064.79-.787-.8-.797.538-.537 1.337 1.333-.795.79z" fill="#C7832B"/></svg>