<svg width="36" height="36" fill="none" xmlns="http://www.w3.org/2000/svg"><path d="M18 0c2.837 0 5.52.656 7.907 1.825C31.884 4.753 36 10.895 36 18c0 9.942-8.058 18-18 18-9.94 0-18-8.057-18-18C0 8.06 8.06 0 18 0z" fill="#F2F4F7"/><path d="M32 22.134h-3.045c-1.66 0-3.421-1.123-3.421-4.144 0-2.473 1.602-3.99 3.42-3.99H32v2.627h-2.223c-.404 0-1.328.155-1.328 1.405 0 1.265.939 1.447 1.328 1.447H32v2.655zm-20.408-2.57c1.068 0 1.385-.59 1.385-1.307 0-.716-.317-1.306-1.385-1.306H10.09v-.703h3.363v-2.234h-6.35v2.937H5.385C4.318 16.95 4 17.54 4 18.257c0 .717.303 1.307 1.386 1.307h1.688v2.585h3.017v-2.585h1.5zm9.396 2.571 1.328-5.859v5.859h2.655v-8.12h-2.814c-1.689 0-1.848.828-2.079 1.826l-.563 2.64-.548-2.64c-.23-.998-.39-1.827-2.078-1.827h-2.815v8.135h2.656V16.29l1.328 5.859h2.93v-.014z" fill="#EF3E33"/></svg>