<svg height="36" viewBox="0 0 36 36" width="36" xmlns="http://www.w3.org/2000/svg"><mask id="a" fill="#fff"><path d="M0 0h28v5.988H0z" fill-rule="evenodd"/></mask><g fill="none" fill-rule="evenodd"><path d="M18 0c2.837 0 5.52.656 7.907 1.825C31.884 4.753 36 10.895 36 18c0 9.942-8.058 18-18 18-9.94 0-18-8.057-18-18C0 8.06 8.06 0 18 0z" fill="#f2f4f7" fill-rule="nonzero"/><path d="M20.8 3.03c.465 0 .793-.258.793-.826v-1.05h-.47v1.05c0 .251-.106.404-.317.404-.214 0-.32-.156-.32-.404v-1.05h-.472v1.05c0 .571.328.826.787.826zm-1.566-.029h.472V1.154h-.472zm-.723 0h.388V1.154h-.45v1.008l-.711-1.008h-.42v1.847h.448V1.943zm-2.812 0h1.396v-.407h-.934v-.361h.582v-.401h-.582V1.56h.87v-.406h-1.332zm-1.002.029c.465 0 .753-.195.753-.594 0-.364-.246-.493-.655-.588-.256-.061-.325-.095-.325-.18 0-.071.045-.129.215-.129a.8.8 0 0 1 .485.172l.25-.346a1.069 1.069 0 0 0-.714-.24c-.417 0-.705.224-.705.57 0 .366.22.482.633.578.28.066.346.11.346.198 0 .103-.075.145-.266.145a.92.92 0 0 1-.523-.188l-.251.341c.174.153.457.261.757.261zm-2.246-.029h1.396v-.407h-.934v-.361h.582v-.401h-.582V1.56h.87v-.406H12.45zm-.764 0-.311-.636h-.262v.636h-.46V1.154h.84c.404 0 .692.174.692.596 0 .277-.127.449-.341.541l.365.71zm-.206-1.449h-.367v.428h.362c.169 0 .243-.077.243-.219 0-.132-.074-.209-.238-.209zm-1.918.014v.284h.652v.409h-.652v.742h-.465V1.154h1.377v.412zM22.517 3.03c.464 0 .752-.195.752-.594 0-.364-.245-.493-.655-.588-.255-.061-.325-.095-.325-.18 0-.071.046-.129.214-.129.182 0 .339.063.486.172l.25-.346a1.066 1.066 0 0 0-.714-.24c-.417 0-.705.224-.705.57 0 .366.222.482.633.578.28.066.346.11.346.198 0 .103-.074.145-.267.145a.924.924 0 0 1-.522-.188l-.251.341c.174.153.457.261.758.261zM11.269 5.768h1.396v-.406h-.934V5h.58v-.401h-.58v-.272h.869v-.406h-1.331zm14.56 0-.31-.635h-.261v.635H24.8V3.925h.837c.404 0 .69.173.69.595 0 .276-.127.447-.34.54l.365.708zm-.205-1.446h-.366v.426h.36c.169 0 .244-.076.244-.218 0-.131-.075-.208-.238-.208zm-1.51 1.446-.107-.353h-.61l-.107.353h-.494l.679-1.843h.464l.679 1.843zm-.595-.74h.367l-.182-.595zm-1.16-.461.425-.174c-.124-.311-.314-.498-.73-.498-.493 0-.836.369-.836.951 0 .559.304.951.828.951.403 0 .614-.208.74-.456l-.392-.216c-.101.171-.177.253-.34.253-.24 0-.354-.233-.354-.532 0-.308.114-.532.349-.532.168 0 .244.097.31.253zm-3.322 1.201h1.32V5.35h-.85V3.925h-.47zm-.684 0-.108-.353h-.61l-.106.353h-.496l.68-1.843h.463l.68 1.843zm-.595-.74h.366l-.182-.595zm-1.161-.461.425-.174c-.124-.311-.314-.498-.73-.498-.493 0-.835.369-.835.951 0 .559.302.951.827.951.403 0 .614-.208.74-.456l-.392-.216c-.101.171-.177.253-.34.253-.24 0-.353-.233-.353-.532 0-.308.113-.532.347-.532.169 0 .245.097.31.253zm-1.865 1.201h.472V3.925h-.472zm-1.24 0h-.582V3.925h.625c.56 0 .938.229.938.913 0 .68-.385.93-.98.93zm.035-1.433h-.147v1.022h.134c.339 0 .482-.155.482-.513 0-.351-.127-.509-.47-.509zm-3.061 1.433v-.937l-.464.992-.464-.992v.937h-.44V3.925h.432l.478 1.034.468-1.034h.432v1.843zm16.138 0H28v-.406h-.934V5h.582v-.401h-.582v-.272h.87v-.406h-1.332zM1.507 2.464l2.329.491 2.332-.491-.738 1.179-1.594.41-1.594-.41zm2.329 3.524-.823-1.321.823.224.826-.224zm0-5.328L7.674 0l-.807 1.29-3.031.662L.802 1.29 0 0z" fill="#005394" mask="url(#a)" transform="translate(4 15)"/></g></svg>