<svg width="36" height="36" fill="none" xmlns="http://www.w3.org/2000/svg"><path d="M18 0c2.837 0 5.52.656 7.907 1.825C31.884 4.753 36 10.895 36 18c0 9.942-8.058 18-18 18-9.94 0-18-8.057-18-18C0 8.06 8.06 0 18 0z" fill="#F2F4F7"/><path d="M13.827 17.791h1.72v.413H14.49v.688h.86v.37h-.86v1.015h-.664v-2.486zm2.296 0h.663v2.486h-.663v-2.486zm2.019.413h.337c.588 0 .698.464.698.811 0 .416-.145.85-.715.85-.104 0-.207-.01-.32-.024v-1.637zm-.664 2.073h1.234c.643 0 1.17-.412 1.17-1.286 0-.99-.705-1.2-1.05-1.2h-1.354v2.486zm2.899-2.486h1.698v.413H21.04v.605h.85v.371h-.85v.685h1.118v.412h-1.782v-2.486zm2.369 0h.664v2.074h1.118v.412h-1.782v-2.486zm2.22 0h.663v2.486h-.663v-2.486zm1.938.416h-.9v-.416h2.465v.416h-.901v2.07h-.664v-2.07zm2.581 1.025-.84-1.441h.72l.574.983.578-.983h.481l-.85 1.44v1.046h-.663v-1.045zm-15.052 2.886-.413-.594a.298.298 0 0 1-.02-.036c-.008-.011-.01-.018-.013-.02a.193.193 0 0 1-.013-.031v.673H13.8v-.92h.212l.405.606.01.02c.005.01.007.015.01.017l.008.025.008.016v-.683h.175v.927h-.194zm1.034-.383h-.223l.11-.333.114.333zm.32.375-.35-.92h-.165l-.35.92h.193l.08-.226h.322l.077.226h.193zm.621-.77v.77h-.184v-.77h-.29v-.15h.764v.15h-.29zm.644-.15h.184v.92h-.184v-.92zm1.33.46a.311.311 0 0 1-.315.325.312.312 0 0 1-.317-.324c0-.186.134-.325.317-.325.18 0 .315.14.315.325zm.196 0c0-.283-.207-.476-.511-.476-.306 0-.514.193-.514.477.002.28.212.477.514.477.3 0 .511-.198.511-.477zm.946.468-.414-.594a.385.385 0 0 1-.02-.036l-.012-.02a.1.1 0 0 1-.013-.031v.673h-.175v-.92h.212l.405.606c0 .003.006.01.01.02l.009.017.008.025.009.016v-.683h.174v.927h-.193zm1.068-.383h-.224l.11-.333.114.333zm.319.375-.35-.92h-.165l-.35.92h.194l.079-.226h.322l.077.226h.193zm.319 0v-.92h.184v.772h.394v.148h-.578zm1.598-.77v.237h.339v.148h-.34v.385h-.184v-.92h.598v.15h-.413zm.759-.15h.185v.92h-.185v-.92zm1.203.928-.414-.594a.338.338 0 0 1-.02-.036l-.011-.02a.141.141 0 0 1-.014-.031v.673h-.175v-.92h.212l.405.606c0 .003.006.01.01.02l.009.017.009.025.008.016v-.683h.174v.927h-.193zm1.032-.383H25.6l.11-.333.113.333zm.319.375-.35-.92h-.165l-.35.92h.194l.078-.226h.324l.076.226h.193zm.915.008-.414-.594a.298.298 0 0 1-.02-.036c-.008-.011-.01-.018-.012-.02-.006-.01-.01-.016-.013-.031v.673h-.176v-.92h.212l.406.606c0 .003.005.01.01.02.003.01.007.015.008.017l.01.025.008.016v-.683h.174v.927h-.193zm1.264-.716a.383.383 0 0 0-.222-.064c-.186 0-.318.125-.318.299 0 .197.137.327.347.327.07 0 .126-.01.212-.043l.034.147a.621.621 0 0 1-.285.06.5.5 0 0 1-.35-.114.486.486 0 0 1-.014-.711.486.486 0 0 1 .364-.129c.123 0 .219.029.303.088l-.07.14zm.426-.212h.184v.92h-.184v-.92zm.996.545h-.223l.11-.333.113.333zm.32.375-.35-.92h-.165l-.35.92h.193l.079-.226h.323l.076.226h.193zm.295 0v-.92h.184v.772h.394v.148h-.578zM8.111 13v2.883h-.806v.84h-.592v-1.53h-1.12v4.991a732 732 0 0 1-.593 0V22.1h8.109v-1.11h-.877v-2.125h-1.077v2.124h-.558v-2.494h-1.08v2.494H8.96v-2.121H7.881v2.122h-.645v-2.364l2.82-2.203 2.175 1.625v-3.825h-1.58V13h-2.54z" fill="#0C2F59"/><path d="M10.418 13.234v1.223h1.579v3.123l-1.944-1.452-3.497 2.732h.446v2.364h1.113v-2.122h.61v2.121h1.026V18.73h.611v2.494h1.027V19.1H12v2.125h.876v.641h-7.64v-1.447h.593v-4.992h.651v1.531h1.06v-.84h.806v-2.883h2.073z" fill="#6399BB"/><path d="M12.799 20.84a.306.306 0 1 1 0-.612.306.306 0 0 1 0 .612zm0-.542a.236.236 0 1 0 0 .472.236.236 0 0 0 0-.472zm.042.413-.077-.136h-.014v.136h-.08v-.352h.127c.094 0 .137.034.137.107 0 .06-.03.097-.082.105l.082.14h-.093zm-.053-.288h-.038v.1h.038c.038 0 .06-.02.06-.05 0-.032-.022-.05-.06-.05m17.64.22v.24h-.097v-.24h-.086v-.073h.27v.073h-.087zm.473.24v-.209h-.006l-.005.043-.075.166h-.086l-.067-.173-.006-.042h-.006v.215h-.086v-.313h.141l.062.19.005.025h.007l.006-.025.067-.19H31v.313h-.099z" fill="#0C2F59"/></svg>