<svg height="36" viewBox="0 0 36 36" width="36" xmlns="http://www.w3.org/2000/svg"><mask id="a" fill="#fff"><path d="M0 0h6.1v5.31H0z" fill-rule="evenodd"/></mask><g fill="none" fill-rule="evenodd"><path d="M18 0c2.837 0 5.52.656 7.907 1.825C31.884 4.753 36 10.895 36 18c0 9.942-8.058 18-18 18-9.94 0-18-8.057-18-18C0 8.06 8.06 0 18 0z" fill="#f2f4f7" fill-rule="nonzero"/><path d="M15.253 18.353h-2.095c0 .357.024.47.108.554.081.081.182.106.55.106h.145c.361 0 .46-.017.55-.107a.301.301 0 0 0 .086-.158h.648c-.106.612-.426.845-1.132.845h-.45c-.417 0-.676-.079-.87-.274-.194-.194-.27-.438-.27-.866v-.763c0-.429.073-.676.27-.872.195-.195.453-.274.87-.274h.45c.417 0 .675.079.871.268.196.191.27.427.27.878zm-1.292-1.23h-.146c-.58 0-.655.065-.657.584v.084h1.46v-.084c.002-.519-.076-.584-.657-.584zm-2.121 1.23H9.745c0 .357.024.47.108.554.08.081.182.106.549.106h.146c.36 0 .46-.017.549-.107a.302.302 0 0 0 .087-.158h.648c-.106.612-.426.845-1.132.845h-.45c-.417 0-.676-.079-.871-.274-.193-.194-.27-.438-.27-.866v-.763c0-.429.074-.676.27-.872.195-.195.454-.274.87-.274h.45c.418 0 .676.079.872.268.196.191.269.427.269.878zm-1.292-1.23h-.146c-.581 0-.655.065-.657.584v.084h1.459v-.084c.003-.519-.075-.584-.656-.584z" fill="#96ca00"/><path d="M22.06 18.353h-2.094c0 .357.024.47.108.554.08.081.182.106.55.106h.145c.36 0 .46-.017.55-.107a.308.308 0 0 0 .086-.158h.648c-.106.612-.426.845-1.132.845h-.45c-.417 0-.676-.079-.871-.274-.193-.194-.27-.438-.27-.866v-.763c0-.429.074-.676.27-.872.196-.195.454-.274.872-.274h.449c.417 0 .675.079.87.268.197.191.27.427.27.878zm-1.291-1.23h-.145c-.582 0-.656.065-.658.584v.084h1.459v-.084c.003-.519-.075-.584-.656-.584zm3.957 2.463h-.621c-.417 0-.669-.079-.87-.274-.196-.196-.269-.437-.269-.866V17.15h-.376v-.596h.376v-.746h.635v.746h.864l-.078.596h-.786v1.296c0 .46.113.555.656.544h.469zm-7.239-3.033c.417 0 .67.079.871.274.195.19.27.437.27.865v1.893h-.636v-1.781c0-.35-.023-.46-.108-.548-.084-.084-.182-.107-.548-.107h-.73v2.436h-.635v-3.032z" fill="#061120"/><g fill="#96ca00"><path d="M5.87 17.148h-.859v2.437h-.635v-2.437H4v-.595h.376c.007-.445.076-.661.269-.85.201-.194.453-.273.871-.273h.62v.595h-.469c-.542-.01-.643.06-.655.528h.941zm.608 2.436v-3.032h1.12c.812 0 1.125.295 1.139 1.01h-.641c-.01-.137-.04-.234-.111-.307-.088-.09-.204-.107-.564-.107h-.308v2.436z"/><path d="M2.377 1.165c-.194-.042-.404-.124-1.09-.479C.38.215.178.185.06.376c-.157.252-.014.89.612 2.066.41.77 1.05 1.76 1.164 1.891.027.031.057.033.083.019.028-.015.037-.039.017-.076a21.29 21.29 0 0 1-.581-1.228c-.36-.862-.441-1.154-.318-1.22.032-.017.078-.006.178.047.347.184 1.105.77 1.237 1.174.057.178.087.388.099 1.117.015.967.089 1.145.326 1.145.313 0 .835-.435 1.618-1.526.512-.715 1.112-1.726 1.178-1.884.016-.036.003-.061-.023-.075-.028-.016-.055-.011-.08.024-.118.165-.593.783-.853 1.082-.623.721-.854.932-.977.866-.032-.017-.044-.06-.045-.167-.002-.372.165-1.276.475-1.584.136-.135.317-.264.99-.638.708-.392.936-.567.94-.717V.681a.215.215 0 0 0-.036-.106C5.906.323 5.24.119 3.833.035 2.91-.021 1.669.001 1.489.027c-.041.006-.058.029-.058.057-.001.03.018.049.062.052.213.012 1.026.087 1.434.145.983.142 1.295.223 1.295.355 0 .034-.034.066-.133.119-.345.188-1.27.506-1.712.41" mask="url(#a)" transform="translate(25.9 15)"/></g></g></svg>