<svg width="36" height="36" fill="none" xmlns="http://www.w3.org/2000/svg"><path d="M18 0c2.837 0 5.52.656 7.907 1.825C31.884 4.753 36 10.895 36 18c0 9.942-8.058 18-18 18-9.94 0-18-8.057-18-18C0 8.06 8.06 0 18 0z" fill="#F2F4F7"/><path d="M13.11 16.278h-.396v-.098h2.184l.061.891h-.06c-.07-.35-.15-.513-.3-.649-.111-.102-.228-.14-.415-.144h-.56v1.428h.089c.518-.005.593-.08.602-.588h.065v1.311h-.06l-.01-.07c-.028-.457-.126-.56-.536-.56-.042 0-.07 0-.159.005v1.466h.401v.093H12.71v-.093h.396v-2.992h.005zm3.147 3.127c-.64 0-1.177-.635-1.177-1.391s.537-1.391 1.177-1.391c.634 0 1.176.635 1.176 1.39 0 .757-.541 1.392-1.176 1.392zm.438-2.52a.622.622 0 0 0-.438-.164c-.276 0-.5.15-.58.378-.064.192-.083.43-.083.924 0 .72.047.966.224 1.13.112.107.27.163.443.163.271 0 .5-.15.575-.378.065-.187.084-.425.084-.92 0-.723-.052-.966-.225-1.134zm1.503-.135h-.336v-.08h.934c.448 0 .527.01.7.06.103.033.196.08.27.15a.53.53 0 0 1 .178.406c-.005.369-.317.62-.826.653.317.043.55.197.663.44a.878.878 0 0 1 .074.405v.084c-.004.056-.004.098-.004.117 0 .2.065.308.186.308.038 0 .07-.01.16-.042l.027.07a.701.701 0 0 1-.294.065.526.526 0 0 1-.509-.359c-.042-.121-.046-.168-.051-.443-.01-.313-.047-.434-.168-.518-.103-.075-.2-.094-.448-.094h-.131v1.316h.34v.08h-1.105v-.08h.336V16.75h.004zm.58 1.129c.289 0 .42-.024.527-.103.116-.084.186-.252.186-.462 0-.21-.07-.378-.182-.462-.116-.084-.215-.107-.513-.107h-.163v1.13h.144v.004zm2.16-1.129h-.336v-.08h1.942l.028.737h-.052c-.056-.228-.102-.354-.191-.457-.126-.168-.229-.2-.653-.2h-.313v1.213h.08c.438-.005.503-.07.508-.5h.056v1.111h-.051l-.01-.06c-.023-.388-.107-.472-.452-.472-.038 0-.061 0-.136.005v1.241h.518c.336 0 .411-.023.528-.2.08-.126.126-.229.196-.472l.023-.088h.056l-.075.84h-2.007v-.08h.336V16.75h.005zm3.781.592h-.06c-.052-.383-.295-.62-.65-.62-.303 0-.527.205-.527.485 0 .168.075.28.238.345.093.037.196.07.397.121.368.099.457.145.578.29a.816.816 0 0 1 .168.532c0 .532-.336.915-.802.915a.888.888 0 0 1-.607-.234l-.15.196h-.083v-.835h.06c.038.229.08.35.168.471a.735.735 0 0 0 .612.308c.35 0 .588-.233.588-.574 0-.2-.089-.364-.243-.443-.089-.042-.14-.06-.406-.13-.387-.108-.504-.164-.616-.314a.7.7 0 0 1-.122-.41c0-.462.323-.817.747-.817.173 0 .332.051.5.168l.144-.168h.056v.714h.01zm1.251-.592h-.047c-.28 0-.355.027-.471.167-.126.163-.192.322-.243.598h-.06l.027-.85h2.03l.029.85h-.061c-.056-.28-.122-.44-.247-.598-.113-.14-.192-.168-.472-.168h-.047v2.535h.383v.079h-1.195v-.08h.374V16.75zm1.717 1.75-.261.784h.355v.079h-.654v-.08h.196l.91-2.613h.117l.873 2.614h.285v.079h-1.093v-.08h.35L28.5 18.5h-.812zm.406-1.205-.382 1.12h.756l-.374-1.12zm1.881-.545h-.336v-.08h.934c.448 0 .527.01.7.06.103.033.196.08.27.15a.53.53 0 0 1 .178.406c-.005.369-.317.62-.826.653.317.043.55.197.663.44a.878.878 0 0 1 .074.405v.084c-.004.056-.004.098-.004.117 0 .2.065.308.186.308.038 0 .07-.01.159-.042l.028.07a.681.681 0 0 1-.29.065.526.526 0 0 1-.508-.359c-.042-.121-.047-.168-.052-.443-.009-.313-.046-.434-.167-.518-.103-.075-.201-.094-.449-.094h-.13v1.316h.34v.08h-1.106v-.08h.336V16.75zm.574 1.129c.29 0 .42-.024.528-.103.116-.084.186-.252.186-.462 0-.21-.07-.378-.181-.462-.117-.084-.215-.107-.514-.107h-.163v1.13h.144v.004z" fill="#000"/><path d="M8.742 20.114c.01.005.023 0 .033-.005a.038.038 0 0 0 .01-.05c-.006-.006-.015-.01-.02-.015-.714-.173-1.638-.117-2.46.047a.316.316 0 0 1 .136-.196l.868-.64a.623.623 0 0 1 .682 0l.9.658c.187.14.187.36 0 .5l-.882.63a.623.623 0 0 1-.681 0l-.929-.677c-.434.14-.854.336-1.255.588l-.201-.144a6.125 6.125 0 0 1 1.302-.56c.023-.005.047-.015.07-.02.78-.21 1.722-.242 2.427-.116zm-2.828-.471c0 .01.004.023.014.028.018.014.042.01.051-.01.005-.004.005-.013.01-.023-.057-.732-.397-1.596-.803-2.329a.312.312 0 0 1 .228.066l.878.63c.186.135.284.43.21.649l-.35 1.059c-.075.22-.285.29-.476.154l-.873-.635a.625.625 0 0 1-.21-.648l.354-1.093A5.54 5.54 0 0 0 4 16.48l.075-.234c.35.317.681.69.933 1.064a5.96 5.96 0 0 1 .905 2.334zm4.163-2.068c.005-.01.01-.023.005-.032-.005-.02-.028-.028-.047-.024-.01.005-.014.01-.019.014-.387.626-.62 1.522-.718 2.357a.315.315 0 0 1-.145-.187l-.336-1.026a.616.616 0 0 1 .21-.65l.905-.648c.187-.135.402-.065.472.154l.331 1.027a.619.619 0 0 1-.215.649l-.928.677c0 .457.056.914.168 1.376l-.201.145a6.055 6.055 0 0 1-.13-1.41c0-.023.004-.046.004-.07a6.058 6.058 0 0 1 .644-2.352zM8.07 15.508c-.01-.01-.019-.014-.028-.014a.039.039 0 0 0-.037.037c0 .01.004.019.009.024.476.56 1.256 1.059 2.016 1.41a.346.346 0 0 1-.224.083l-1.078.005a.61.61 0 0 1-.55-.402l-.341-1.06c-.07-.218.06-.4.294-.4h1.078c.233 0 .48.181.55.4l.355 1.093c.434.145.887.229 1.363.261l.075.234a6.133 6.133 0 0 1-1.447-.336 6.028 6.028 0 0 1-2.035-1.335zm-2.59 1.288a.057.057 0 0 0-.024.023c-.004.019.005.042.024.047.009.005.018 0 .023 0 .681-.28 1.395-.868 1.965-1.484a.32.32 0 0 1 .01.238l-.327 1.026a.617.617 0 0 1-.551.402l-1.116-.005c-.233 0-.364-.182-.29-.401l.337-1.027a.63.63 0 0 1 .555-.402h1.149c.27-.368.494-.77.672-1.213h.247c-.191.43-.448.859-.723 1.218a6.067 6.067 0 0 1-1.951 1.578z" fill="#365B42"/></svg>