<svg height="36" viewBox="0 0 36 36" width="36" xmlns="http://www.w3.org/2000/svg"><g fill="none"><path d="M18 0c2.837 0 5.52.656 7.907 1.825C31.884 4.753 36 10.895 36 18c0 9.942-8.058 18-18 18-9.94 0-18-8.057-18-18C0 8.06 8.06 0 18 0z" fill="#f2f4f7"/><g fill="#002885"><path d="M31 23.59h-3.555c-.033 0-.093-.144-.11-.174-.489-.882-.978-1.77-1.464-2.65-.52.938-1.026 1.891-1.545 2.83-1.164.004-2.318-.005-3.472-.002.13-.244.27-.483.409-.723.97-1.678 1.927-3.378 2.9-5.057-1.034-1.805-2.083-3.596-3.122-5.397-.003 0-.01-.011-.003-.01h3.572c.44.799.868 1.608 1.3 2.412.449-.797.882-1.61 1.327-2.412h3.453c.003.014-.007.03-.014.041-1.008 1.771-2.04 3.548-3.046 5.322 1.118 1.942 2.258 3.882 3.37 5.82z"/><path d="M22.369 16.747c.09.37.143.776.143 1.204 0 1.335-.386 2.324-.924 3.128a5.071 5.071 0 0 1-1.32 1.379c-.265.188-.54.359-.846.502a5.12 5.12 0 0 1-2.19.509c-1.325 0-2.303-.404-3.095-.958a5.357 5.357 0 0 1-1.828-2.218 5.577 5.577 0 0 1-.365-3.438 5.47 5.47 0 0 1 1.084-2.293 5.323 5.323 0 0 1 1.88-1.491 4.97 4.97 0 0 1 .992-.358c.362-.09.763-.151 1.197-.151h.007c.423-.02.872.048 1.225.127.367.08.706.204 1.01.34.937.424 1.637 1.058 2.2 1.85.37.519.65 1.141.83 1.868zm-4.265 3.704c.035-.136.025-.311.025-.492v-4.108c0-.176-.02-.312-.072-.44a.957.957 0 0 0-.204-.31c-.167-.17-.417-.321-.73-.297a.834.834 0 0 0-.39.129.96.96 0 0 0-.427.597c-.032.135-.031.307-.031.485v4.108c0 .088-.004.173.007.249.03.216.127.39.253.518a.89.89 0 0 0 .744.27.927.927 0 0 0 .825-.709zm-6.138-4.993H8.19c-.016.469-.003.987-.007 1.46 1.02.008 2.056 0 3.084.002v3.06c-1.035.004-2.078-.004-3.107.004.001 1.213.007 2.405.007 3.619 0 .004-.002.005-.003.007H5.015c-.005.001-.005-.003-.01-.003-.007-3.727-.007-7.479 0-11.207 0-.004 0-.01.002-.01h6.745c.004 0 .006 0 .007.003.071 1.02.14 2.043.207 3.065z"/></g></g></svg>