<svg height="36" viewBox="0 0 36 36" width="36" xmlns="http://www.w3.org/2000/svg"><mask id="a" fill="#fff"><path d="M0 0h27.257v4.718H0z" fill-rule="evenodd"/></mask><g fill="none" fill-rule="evenodd"><path d="M18 0c2.837 0 5.52.656 7.907 1.825C31.884 4.753 36 10.895 36 18c0 9.942-8.058 18-18 18-9.94 0-18-8.057-18-18C0 8.06 8.06 0 18 0z" fill="#f2f4f7" fill-rule="nonzero"/><path d="M27.257 1.5a114.792 114.792 0 0 0-8.428-.317c-4.867 0-10.363.332-15.376 1.37C2.613 1.492 1.59.658.023 0L0 .046c1.386 1.507 2.272 2.808 2.9 4.672 7.027-2.619 15.848-3.105 22.509-3.105.638 0 1.244.008 1.832.015z" fill="#38748b" mask="url(#a)" transform="translate(4 19.412)"/><path d="M11.124 12a32.603 32.603 0 0 1-2.006 5.459h-.015c-.227-1.484-.34-3.62-.34-5.459h-2.44c.077 2.906.584 5.474 1.152 7.752h2.347C11.147 17.36 12.39 14.786 13.35 12zM32 15.968c0-1.5-.97-2.106-2.599-2.106-1.966 0-3.164.902-3.164 3.96 0 1.499.971 2.105 2.6 2.105 1.966 0 3.163-.879 3.163-3.959zm-16.302-2.06c-1.468 0-2.263.28-2.907.968-.613.652-.938 1.803-.938 3.022 0 1.06.264 1.937 1.575 1.937.597 0 1.12-.225 1.605-.506h.022l-.053.423h1.992l.711-5.806a49.236 49.236 0 0 0-2.007-.038zm8.277 4.498c.422 0 .991-.099 1.438-.228l-.258 1.409c-.53.135-1.279.211-1.946.211-2.126 0-2.717-.924-2.717-2.135 0-3.097 1.332-3.801 3.164-3.801 1.44 0 2.331.697 2.331 2.03 0 .582-.119 1.105-.202 1.468H22.62c0 .667.217 1.046 1.355 1.046zm-4.28 1.346H17.59L18.544 12h2.106zm10.055-2.786c-.158 1.469-.378 1.773-.8 1.773-.388 0-.539-.281-.539-.894 0-.265.03-.636.076-1.022.16-1.469.38-1.772.801-1.772.387 0 .538.28.538.893 0 .265-.03.636-.076 1.022zm-14.672 1.242c-.137.099-.34.212-.568.212-.432 0-.492-.363-.492-.795 0-.507.136-1.408.287-1.764.228-.545.538-.696 1.038-.696.014 0 .053 0 .106.007zm8.866-2.06c.038-.181.07-.332.07-.544 0-.409-.259-.576-.532-.576-.447 0-.68.265-.786 1.12z" fill="#99ca3c"/></g></svg>