<svg height="36" viewBox="0 0 36 36" width="36" xmlns="http://www.w3.org/2000/svg"><mask id="a" fill="#fff"><path d="M0 0h15.556v4.752H0z" fill-rule="evenodd"/></mask><mask id="b" fill="#fff"><path d="M0 0h16.968v10.786H0z" fill-rule="evenodd"/></mask><g fill="none" fill-rule="evenodd"><path d="M18 0c2.837 0 5.52.656 7.907 1.825C31.884 4.753 36 10.895 36 18c0 9.942-8.058 18-18 18-9.94 0-18-8.057-18-18C0 8.06 8.06 0 18 0z" fill="#f2f4f7" fill-rule="nonzero"/><g fill="#001689"><path d="M0 3.501.649 0h1.685l-.08.43H1.2L.994 1.536h1.032l-.08.43H.915L.63 3.501zm2.007 0L2.469.999h.588l-.088.477.191-.244c.074-.097.135-.163.182-.2a.42.42 0 0 1 .262-.094c.13 0 .256.066.382.192l-.289.448a.797.797 0 0 0-.248-.052.472.472 0 0 0-.336.141c-.074.069-.14.187-.205.35a2.12 2.12 0 0 0-.126.434l-.196 1.05zm3.883 0h-.593l.08-.42a2.054 2.054 0 0 1-.355.303 1.007 1.007 0 0 1-.546.178.607.607 0 0 1-.509-.243c-.135-.182-.205-.421-.205-.714 0-.271.056-.533.173-.785.135-.298.326-.527.569-.685.196-.126.397-.192.602-.192.191 0 .35.061.472.177a.962.962 0 0 1 .126.164l.051-.28h.593zM5.2 1.326c-.178 0-.341.089-.491.261a1.304 1.304 0 0 0-.27.579 1.917 1.917 0 0 0-.047.434c0 .177.033.313.093.411.061.097.15.149.262.149.238 0 .448-.173.621-.517a2.263 2.263 0 0 0 .233-.92.373.373 0 0 0-.117-.289c-.07-.076-.163-.108-.284-.108zm1.036 3.426.695-3.748h.588l-.088.476c.126-.149.233-.256.331-.332a.91.91 0 0 1 .569-.2c.224 0 .397.079.518.234.136.176.206.415.206.718 0 .28-.061.551-.187.812a1.568 1.568 0 0 1-.574.677 1.04 1.04 0 0 1-.569.173.895.895 0 0 1-.631-.266l-.27 1.456zm1.829-3.394c-.261 0-.485.21-.672.635a2.69 2.69 0 0 0-.191.65c-.014.087-.024.139-.024.153-.013.07-.023.107-.023.117 0 .009.005.019.01.027.004.005.009.01.013.019a.516.516 0 0 0 .439.23c.215 0 .406-.131.57-.393.158-.257.242-.546.242-.873 0-.378-.121-.565-.364-.565zM10.74.943c.228 0 .424.066.593.192.279.215.415.527.415.929 0 .247-.052.48-.159.705a1.453 1.453 0 0 1-.532.601c-.205.126-.43.192-.672.192-.299 0-.546-.098-.742-.29-.224-.214-.336-.5-.336-.849 0-.271.07-.523.21-.766a1.36 1.36 0 0 1 .579-.559c.2-.104.415-.155.644-.155zm-.08.36c-.144 0-.275.065-.396.2a1.228 1.228 0 0 0-.234.406 1.592 1.592 0 0 0-.089.546c0 .215.033.388.103.524a.39.39 0 0 0 .369.223c.252 0 .443-.158.574-.48a1.89 1.89 0 0 0 .135-.729c0-.462-.154-.69-.462-.69zm1.191 2.198.462-2.502h.587l-.088.477.191-.244a1.25 1.25 0 0 1 .182-.2.425.425 0 0 1 .262-.094c.13 0 .256.066.382.192l-.289.448a.797.797 0 0 0-.248-.052.471.471 0 0 0-.335.141c-.075.069-.141.187-.206.35a2.12 2.12 0 0 0-.126.434l-.196 1.05zm2.156-2.166.06-.336h.313l.112-.606.607-.145-.14.751h.597l-.06.336h-.598l-.224 1.214a2.716 2.716 0 0 0-.056.383c0 .154.075.233.224.233.084 0 .201-.023.336-.065l.033.322c-.22.093-.434.14-.63.14-.178 0-.318-.038-.415-.113-.108-.084-.159-.2-.159-.359 0-.066.023-.229.07-.49l.228-1.26h-.298z" mask="url(#a)" transform="translate(16.444 17.28)"/><path d="M9.947 10.025c-.028.01-.042-.005-.052-.019a4.444 4.444 0 0 1-.555-1.549c-.08-.514-.047-.99.103-1.424.182-.54.541-1.008 1.064-1.39.49-.36 1.125-.64 1.876-.827a10.664 10.664 0 0 1 2.021-.28c1.232-.056 2.226.07 2.278.08.014 0 .037.01.037.036 0 .02-.019.033-.037.033-.01 0-.943.051-2.077.262-1.027.186-2.427.541-3.272 1.171-1.713 1.28-1.354 3.846-1.349 3.87-.005.014-.023.027-.037.037m-3.394.728c0-.005.197-.476.318-1.087.112-.566.178-1.364-.135-1.97-.22-.435-.607-.714-1.139-.84-.47-.112-1.046-.085-1.713.074-.532.126-1.12.341-1.755.63A15.025 15.025 0 0 0 .211 8.625c-.005.004-.033.023-.019.05.01.02.033.015.047.01.033-.014 3.146-1.47 4.69-1.068 1.676.433 1.55 3.103 1.545 3.131 0 .014.005.038.037.038.015 0 .033-.015.042-.033M.001 7.127c-.005-.015.005-.034.023-.039.028-.013 2.945-1.264 3.687-2.459.178-.284.23-.569.15-.844-.164-.57-.83-.92-.859-.934-.01-.005-.019-.018-.014-.037.01-.019.033-.023.046-.019.038.005.374.061.743.191.36.126.826.36 1.003.733.131.276.098.588-.107.93-.224.382-.607.751-1.139 1.096a8.84 8.84 0 0 1-1.545.78 14.061 14.061 0 0 1-1.946.625c-.01 0-.033.004-.042-.023M7.865 2.74a5.004 5.004 0 0 0 1.494-.68 4.69 4.69 0 0 0 .952-.86 4.31 4.31 0 0 0 .686-1.153c0-.004.014-.023-.005-.042-.009-.009-.028-.004-.042.01-.023.023-1.362 1.484-3.089 1.955-1.643.448-2.983-.196-3.048-.229-.01-.005-.024-.009-.042.005-.019.01-.019.028-.014.042.032.09.21.513.658.775.284.168.611.275.97.317.117.014.243.02.365.02.35 0 .723-.053 1.115-.16m5.736.602c-.26 0-.504-.014-.723-.037-.626-.07-1.088-.243-1.368-.513a.795.795 0 0 1-.256-.663c.047-.5.518-1.037.91-1.4.42-.392.835-.668.84-.673.005-.004.028-.018.047-.004.014.014.014.033.004.042-.009.01-.9.966-.863 1.717a.739.739 0 0 0 .256.537c.481.425 1.666.532 2.572.546 1.008.02 1.895-.07 1.905-.07.013 0 .037.005.042.023.004.033-.024.038-.033.042a16.83 16.83 0 0 1-2.245.388 9.47 9.47 0 0 1-1.088.065" mask="url(#b)" transform="translate(4 10)"/></g></g></svg>