<svg width="36" height="36" fill="none" xmlns="http://www.w3.org/2000/svg"><path d="M18 0c2.837 0 5.52.656 7.907 1.825C31.884 4.753 36 10.895 36 18c0 9.942-8.058 18-18 18-9.94 0-18-8.057-18-18C0 8.06 8.06 0 18 0z" fill="#F2F4F7"/><g fill-rule="evenodd" clip-rule="evenodd"><path d="M22.114 24.274s.04-.04.04-.118c0-.117-.119-.078-.314-.196-.04 0-.079-.04-.118-.078-.196-.196-.118-.392-.196-.628l-.118-.276s.275.118.706.394c.51.314.354.823.354.823s.275.157.431-.078c.079-.118.157-.275.236-.392.196-.432.118-.864.118-.864s-.04-.157-.157-.432c-.118-.235-.352-.47-.352-.47-.59-.511-1.492-.393-2.238-.668a3.246 3.246 0 0 1-.706-.432s-.196-.118-.313-.196l-.236-.079s-.275-.078-.628 0c-.196.08-.392.236-.392.236s.314-.08.51.156c.157.196.196.353.274.55.118.196.276.235.276.235s-.197.079-.433.236c-.314.235-.431.51-.431.51s.353-.196.667 0c.235.156.431.156.431.156s-.352.196-.588.51c-.235.276-.118.512-.118.512s.04-.118.197-.157c.157-.078.353 0 .353 0s-.196.078-.354.392a.84.84 0 0 1-.392.314s.079.118.354.118c.275.04.47-.118.588-.196.156-.118.314-.157.314-.157-.196.628.157.823.157.823s.078-.235.353-.51c.353-.314.785-.314.785-.314s.196-.04.51.04c.273.04.43.236.43.236z" fill="#fff"/><path d="M22.114 24.274s.04-.04.04-.118c0-.117-.119-.078-.314-.196-.04 0-.079-.04-.118-.078-.196-.196-.118-.392-.196-.628l-.118-.276s.275.118.706.394c.51.314.354.823.354.823s.275.157.431-.078c.079-.118.157-.275.236-.392.196-.432.118-.864.118-.864s-.04-.157-.157-.432c-.118-.235-.352-.47-.352-.47-.59-.511-1.492-.393-2.238-.668a3.246 3.246 0 0 1-.706-.432s-.196-.118-.313-.196l-.236-.079s-.275-.078-.628 0c-.196.08-.392.236-.392.236s.314-.08.51.156c.157.196.196.353.274.55.118.196.276.235.276.235s-.197.079-.433.236c-.314.235-.431.51-.431.51s.353-.196.667 0c.235.156.431.156.431.156s-.352.196-.588.51c-.235.276-.118.512-.118.512s.04-.118.197-.157c.157-.078.353 0 .353 0s-.196.078-.354.392a.84.84 0 0 1-.392.314s.079.118.354.118c.275.04.47-.118.588-.196.156-.118.314-.157.314-.157-.196.628.157.823.157.823s.078-.235.353-.51c.353-.314.785-.314.785-.314s.196-.04.51.04c.273.04.43.236.43.236z" fill="#fff"/><path d="M21.722 23.843c-.196-.196-.118-.392-.236-.667-.078-.236-.118-.196-.118-.196s.275.117.746.393c.51.314.353.823.353.823s0 .04.157.04c.117.04.196-.04.156 0 .04.04.079.156.079.156s.157.628-.236.864c-.314.196-.824.118-.824.118s.432-.078.471-.55c.04-.275-.156-.549-.156-.549s.078-.078.04-.156c-.04-.119-.236-.04-.432-.276zm-9.536-6.003c.158.195.197.353.197.353-.157.118-.157.392 0 .589.156.235.196.47.196.47s-.118.157-.079.354c.04.353.196.667.51 1.02.432.47.51.745.51.745s-.117.196.04.47c.196.315.746.55.902.785.08.314.55.353.59.549.039.237.313.432.47.511.118 0 .236.079.236.196.04.275.589.353.863.51 0 0-1.295.47-2.354.942-1.02.47-1.648-.275-1.648-.275s.197 1.256 1.412 1.452c.628.118 1.178 0 1.178 0s-.314.314-.785.59c-.51.274-.824.156-.824.156s.275.47 1.138.274c.432-.078.745-.313.745-.313s0 .235-.392.47c-.353.236-.51.274-.51.274s.236.04.589.236c.235.156.588.274 1.02.235.353-.04.746-.352.746-.352s-.08.196-.08.274c0 .196.08.274.08.274s.04-.548 1.177-.117c1.177.432 1.726.117 1.726.117s-.196-.117-.314-.235c-.04-.118-.04-.236-.04-.236s.354.314 1.335.079c.746-.157 1.256-.706 1.256-.706s-.864-.118-1.413-1.492c-.314-.784-.196-1.256 0-1.57.196-.353.51-.47.51-.47s-.47 0-.823.352c-.236.236-.314.47-.314.47s-.353-.195-.196-.784c0 0-.157 0-.314.118-.078.118-.274.236-.55.236-.274-.04-.353-.157-.353-.157s.236-.04.392-.314c.158-.314.314-.392.314-.392s-.156-.04-.314 0a.426.426 0 0 0-.235.157s-.079-.196.118-.47c.275-.355.627-.512.627-.512s-.196-.04-.47-.196c-.314-.196-.667 0-.667 0s.156-.274.47-.47c.236-.196.433-.275.433-.275s-.158 0-.276-.197c-.078-.196-.157-.392-.274-.549-.196-.235-.51-.196-.51-.196s.196-.157.392-.196c.354-.118.628-.04.628-.04s-1.02-1.138-1.57-2.746a2.684 2.684 0 0 1-.157-.392c-.823-3.021-1.059-3.178-1.059-3.178-.196 0-.196.274-.196.274s-.275-.196-1.137-1.766c-.354-.667-.668-1.766-.707-1.766-.157.08-.236.236-.275.511v.51s-.55-.588-1.02-1.765c-.314-.785-.55-1.883-.667-1.805-.196.079-.353.314-.314.745.04.393.432 1.57.432 1.57h-.041s-.55-.51-.942-1.255c-.392-.746-.745-1.844-.824-1.844-.235.078-.431.627.118 1.883.275.706.55 1.177.55 1.177s-.746-.275-1.256-1.609-.588-2.12-.588-2.12-.157-.078-.275.236c-.157.275-.157 1.06.196 2.04.314.982.588 1.335.588 1.335s-.47-.196-.863-.785c-.432-.628-.706-1.609-.706-1.609s-.079.04-.157.158c-.079.157-.196.667.118 1.53.196.471.549 1.06.549 1.06s-.314-.158-.51-.393c-.196-.196-.432-.471-.432-.471-.235.078-.04.784.196 1.216.197.471.432.706.785 1.02.353.392.314.627.314.627-.118.157.393.707.59.824.313.236.43.314.43.314s-.274.118.354.667c.196.118.236.196.236.196s-.471.158.588 1.02c.314.236.353.353.353.353-.196.197-.118.314.079.59.078.117.117.313.117.313s-.196.079 0 .432c0 .04.038.12.038.159zm8.32 3.453c.745.274 1.647.157 2.236.706 0 0-.04-.118-.079-.353-.04-.432.04-.471.471-1.139.824-1.098 3.453-3.884 3.885-4.905.196-.431.392-1.177.589-1.883.235-.941.392-1.804.392-1.804-.236-.157-.471.392-.667.98-.08.236-.157.433-.157.433s-.04-.196.157-.981c.156-.667.275-.864.275-.864-.157-.117-.51.079-.746.824-.117.432-.235.785-.235.785s-.04 0-.04-.353c-.04-.353.079-.55.079-.55s-.275 0-.51.51c-.118.276-.196.746-.196.746-.157-.118-.157-.432-.157-.432-.118 0-.314.236-.393.588-.117.275-.117.668-.117.668-.118-.079-.118-.275-.118-.275s-.236.157-.393.706c-.078.354-.078.51-.078.51-.117-.077-.117-.274-.117-.274-.197.078-.393.431-.511.98 0 0-.196-.039-.353.158-.118.196-.235.667-.47.824-.157-.078-.275.079-.315.118-.117.196-.235.47-.392.588-.079-.04-.236 0-.314.04-.157.117-.275.47-.392.549-.079-.04-.236 0-.314.078-.118.118-.157.275-.275.432-.117-.04-.196 0-.275.117-.156.157-.156.275-.235.393-.158-.04-.236.04-.314.157-.078.078-.118.235-.196.392-.354.078-.471 1.099-.471 1.099s.313.235.745.431z" fill="#B59537"/></g></svg>