<svg height="36" viewBox="0 0 36 36" width="36" xmlns="http://www.w3.org/2000/svg"><mask id="a" fill="#fff"><path d="M0 0h28v4.024H0z" fill-rule="evenodd"/></mask><g fill="none" fill-rule="evenodd"><path d="M18 0c2.837 0 5.52.656 7.907 1.825C31.884 4.753 36 10.895 36 18c0 9.942-8.058 18-18 18-9.94 0-18-8.057-18-18C0 8.06 8.06 0 18 0z" fill="#f2f4f7" fill-rule="nonzero"/><path d="M26.821 4.024c.728 0 1.179-.306 1.179-.931 0-.57-.385-.774-1.026-.922-.401-.095-.509-.15-.509-.281 0-.112.07-.203.335-.203.285 0 .53.099.762.269l.393-.542c-.294-.241-.642-.377-1.122-.377-.653 0-1.105.352-1.105.894 0 .575.348.757.993.906.439.104.543.174.543.31 0 .162-.116.228-.418.228a1.46 1.46 0 0 1-.82-.293l-.393.533c.273.24.716.409 1.188.409zm-2.691 0c.728 0 1.241-.405 1.241-1.294V1.083h-.736V2.73c0 .393-.166.633-.497.633-.335 0-.501-.244-.501-.633V1.083h-.741V2.73c0 .894.514 1.294 1.234 1.294zm-2.456-.045h.741V1.083h-.741zm-1.134 0h.609V1.083h-.704v1.58l-1.117-1.58h-.658v2.896h.703v-1.66zm-4.408 0h2.189V3.34h-1.465v-.566h.912v-.63h-.912V1.72h1.364v-.637h-2.088zm-1.57.045c.728 0 1.179-.306 1.179-.931 0-.57-.385-.774-1.026-.922-.401-.095-.509-.15-.509-.281 0-.112.07-.203.335-.203.285 0 .53.099.761.269l.393-.542c-.293-.241-.641-.377-1.121-.377-.653 0-1.105.352-1.105.894 0 .575.348.757.994.906.438.104.542.174.542.31 0 .162-.117.228-.418.228-.273 0-.613-.128-.82-.293l-.393.533c.273.24.716.409 1.188.409zm-3.522-.045h2.189V3.34h-1.465v-.566h.912v-.63h-.912V1.72h1.364v-.637H11.04zM9.519 1.707c.257 0 .373.12.373.327 0 .224-.116.344-.381.344h-.567v-.671zm.323 2.272h.819l-.571-1.113c.335-.145.534-.414.534-.848 0-.662-.451-.935-1.084-.935H8.224v2.896h.72v-.997h.41zM6.511 1.728v.447h1.022v.64H6.511V3.98h-.728V1.083h2.159v.645zM0 2.873h1.803V2.19H0zm0 1.106h.716v-.683H0zM0 .684h3.98V0H0zm0 1.082h2.892v-.683H0z" fill="#1b1655" mask="url(#a)" transform="translate(4 16)"/></g></svg>