<svg width="36" height="36" fill="none" xmlns="http://www.w3.org/2000/svg"><path d="M18 0c2.837 0 5.52.656 7.907 1.825C31.884 4.753 36 10.895 36 18c0 9.942-8.058 18-18 18-9.94 0-18-8.057-18-18C0 8.06 8.06 0 18 0z" fill="#F2F4F7"/><g fill-rule="evenodd" clip-rule="evenodd"><path d="m4.136 19.94 10.957-4.241a.22.22 0 0 1 .281.118.211.211 0 0 1 0 .158l.433 1.076c.391.728 1.154.455 1.545-.456.085-.193.277-.276.475-.273-.222-.033-.36-.202-.134-.577.468-.514.252-1.065.5-1.618a.219.219 0 0 1 .284-.11l13.364 5.789a.21.21 0 0 1 .111.28.219.219 0 0 1-.285.109l-13.069-5.663-.064-.029c-.125.512.328.926-.038 1.515-.068.186-.354.31-.59.31.335.043.645.323.436.723-.763 1.73-2.577 1.912-2.937.455-.14-.392-.309-.898-.45-1.297L4.297 20.334a.22.22 0 0 1-.281-.118.211.211 0 0 1 .12-.276z" fill="#ED2735"/><path d="M6.755 20.126h1.796v.575H6.964c-.276-.05-.396.079-.363.386v.181h1.952v.528l-1.972-.009v1.143h-.553v-1.998c.037-.422.28-.691.727-.806zm2.908 1.125h1.36c.104-.007.181-.04.233-.103a.29.29 0 0 0 .074-.2.273.273 0 0 0-.084-.19c-.054-.056-.135-.083-.242-.077l-1.34-.002v.572zm-.579 1.679v-2.804h1.956c.204.017.348.06.434.129.087.07.178.173.275.31.082.14.121.302.117.486a.904.904 0 0 1-.19.524c.063.082.109.16.136.228.027.07.042.169.042.3v.827h-.553l-.006-.68c-.001-.157-.02-.267-.057-.328-.036-.062-.115-.09-.237-.081l-1.33.001v1.088h-.587zm3.784-2.804h1.796v.575h-1.587c-.276-.05-.396.079-.363.386v.181h1.953v.528l-1.953-.009v.2c-.05.29.102.424.458.404h1.492v.539h-1.702c-.502-.07-.777-.371-.822-.903v-1.095c.038-.422.282-.691.728-.806zm4.26 1.664-1.038-.01a1.726 1.726 0 0 1-.364-.084.582.582 0 0 1-.334-.267.757.757 0 0 1-.146-.442c0-.151.031-.297.091-.432a.91.91 0 0 1 .274-.275c.087-.05.234-.1.437-.154h1.67v.57l-1.592.004c-.107-.01-.19.014-.247.072a.28.28 0 0 0-.087.194.273.273 0 0 0 .08.196c.054.06.14.085.254.078l1.04.007c.094.009.216.04.363.096a.616.616 0 0 1 .334.275.8.8 0 0 1 .146.447c.001.152-.03.298-.09.434a.951.951 0 0 1-.277.276 1.95 1.95 0 0 1-.434.155h-1.973v-.573l1.895-.004c.108.015.19-.006.25-.062a.278.278 0 0 0 .09-.193.292.292 0 0 0-.08-.207c-.054-.064-.143-.1-.262-.1zm1.127-1.67 1.91-.002c.517.046.81.315.877.807v2.003h-.522v-1.814c.005-.312-.125-.462-.392-.45l-1.305-.002v2.262l-.57.006.002-2.81zm3.434.006h.552v2.804h-.552v-2.804zm.714 2.085v-2.085h.568v1.898c.008.13.038.221.093.27.056.05.151.08.287.087h1.247v.547h-1.4a.9.9 0 0 1-.523-.212.865.865 0 0 1-.272-.505zm2.42 0v-2.085h.568v1.898c.007.13.038.221.093.27.056.05.15.08.287.087h1.246v.547h-1.4a.9.9 0 0 1-.522-.212.864.864 0 0 1-.272-.505zm5.19.003c-.064.454-.328.69-.798.71l-1.148.006c-.263-.012-.455-.089-.58-.232-.122-.142-.2-.337-.235-.586l-.004-1.182c.031-.492.301-.759.81-.804h1.139c.496.03.77.266.82.71l-.005 1.378zm-.566-1.19c.002-.135-.025-.229-.078-.282-.054-.055-.154-.08-.301-.077h-.89c-.163 0-.27.035-.32.107-.05.072-.076.187-.08.347l.005.904c-.002.13.027.222.084.275.059.054.164.08.314.079h.89c.152 0 .251-.025.3-.077.048-.052.072-.146.072-.281l.004-.994m2.016.83a.539.539 0 0 1 0 1.074.539.539 0 0 1 0-1.074zm0 .084a.453.453 0 1 1-.452.452c0-.248.203-.451.452-.451zm.147.46a.189.189 0 0 0 .093-.05.153.153 0 0 0 .042-.11.174.174 0 0 0-.025-.091.136.136 0 0 0-.068-.059.36.36 0 0 0-.124-.016h-.271v.611h.08v-.27h.18l.177.27h.101l-.185-.285zm-.272-.056h.173a.263.263 0 0 0 .087-.012.095.095 0 0 0 .047-.036.098.098 0 0 0 .017-.055.09.09 0 0 0-.032-.071c-.02-.02-.054-.028-.1-.028h-.192v.202z" fill="#231F20"/></g></svg>