<svg width="36" height="36" fill="none" xmlns="http://www.w3.org/2000/svg"><path d="M18 0c2.837 0 5.52.656 7.907 1.825C31.884 4.753 36 10.895 36 18c0 9.942-8.058 18-18 18-9.94 0-18-8.057-18-18C0 8.06 8.06 0 18 0z" fill="#F2F4F7"/><g fill="#05466B"><path d="M14.5 16.96h-2.478v.838h1.336v.58h-1.336v1.206h-.735v-3.18h3.212v.555zm4.56 2.624h-1.064l-1.278-1.2h-.703v1.2h-.729v-3.18h2.723c.477 0 .716.207.716.613v.742c0 .31-.123.497-.368.574-.097.026-.348.045-.761.045l1.464 1.206zm-1.051-2v-.38c0-.11-.033-.174-.09-.206a.509.509 0 0 0-.24-.045h-1.664v.883h1.665a.429.429 0 0 0 .238-.045c.065-.026.09-.097.09-.206zm5.108 2h-3.283v-3.18h3.258v.542h-2.516v.71h1.464v.542h-1.464v.787h2.541v.6zm4.516-3.18-1.645 1.736v1.438h-.742v-1.42l-1.651-1.754h.987l1.09 1.22 1.096-1.22h.865zM32 19.584h-1.058l-1.277-1.2h-.703v1.2h-.73v-3.18h2.723c.477 0 .716.207.716.613v.742c0 .31-.123.497-.368.574-.097.026-.348.045-.76.045L32 19.584zm-1.045-2v-.38c0-.11-.032-.174-.09-.206a.51.51 0 0 0-.239-.045h-1.664v.883h1.664a.43.43 0 0 0 .239-.045c.058-.026.09-.097.09-.206zM7.823 21.306c.703-.206 1.29-.76 1.664-1.528.645-1.33.303-2.826-.761-3.342a1.316 1.316 0 0 0-.168-.07s.368-.098 1.11.386c0 0-1.026-1.38-2.503-.264 0 0 1.464-.13 2.116 1.038 0 0-1.007-1.141-2.11-.393 0 0 1.445-.032 1.665 1.213.219 1.245-.658 2.025-1.078 2.29 0 0 1.574-.465 1.426-2.432.006 0 .98 1.348-1.361 3.102z"/><path d="M10.003 15.675c-.529-.503-1.303-.729-2.154-.664-1.477.103-2.593 1.154-2.51 2.335l.02.18s-.271-.27-.226-1.148c0 0-.67 1.58 1.032 2.297 0 0-.851-1.2-.168-2.348 0 0-.483 1.445.723 2.019 0 0-.755-1.232.213-2.045.96-.813 2.083-.452 2.522-.226 0 0-1.193-1.129-2.819-.006 0-.013.677-1.536 3.367-.394z"/><path d="M4.056 16.617c-.162.71.032 1.497.516 2.2.838 1.213 2.31 1.651 3.29.98.051-.032.096-.07.142-.11 0 0-.097.368-.878.775 0 0 1.703-.22 1.458-2.052 0 0-.606 1.336-1.942 1.33 0 0 1.49-.317 1.374-1.646 0 0-.683 1.271-1.87.852-1.187-.42-1.452-1.561-1.477-2.051 0 0-.368 1.6 1.419 2.438 0 0-1.658.187-2.032-2.716z"/></g></svg>