<svg width="36" height="36" fill="none" xmlns="http://www.w3.org/2000/svg"><path d="M18 0c2.837 0 5.52.656 7.907 1.825C31.884 4.753 36 10.895 36 18c0 9.942-8.058 18-18 18-9.94 0-18-8.057-18-18C0 8.06 8.06 0 18 0z" fill="#F2F4F7"/><path d="M14.422 12.322a.2.2 0 0 1-.281.061.206.206 0 0 1-.062-.281.2.2 0 0 1 .282-.062.2.2 0 0 1 .061.282zm-.677.066a.2.2 0 0 0-.281.061.199.199 0 0 0 .061.282.2.2 0 0 0 .282-.062.204.204 0 0 0-.062-.281zm1.337-.354a.2.2 0 0 0-.281.061.2.2 0 0 0 .061.282.2.2 0 0 0 .282-.062.21.21 0 0 0-.062-.281zm-1.728.928a.2.2 0 0 0-.282.061.2.2 0 0 0 .062.282.2.2 0 0 0 .281-.062.205.205 0 0 0-.061-.281zm2.35-.616a.2.2 0 0 0-.281.062.2.2 0 0 0 .062.28.2.2 0 0 0 .281-.06.21.21 0 0 0-.062-.282zm-2.423 1.32a.2.2 0 0 0-.281.06.199.199 0 0 0 .061.282.2.2 0 0 0 .282-.061.203.203 0 0 0-.062-.282zm2.66-.77a.201.201 0 0 0-.15.244c.026.11.127.182.237.158a.201.201 0 0 0 .151-.244.197.197 0 0 0-.237-.158zm-.529.763c.08-.014.158-.025.237-.031v-.037a1.019 1.019 0 0 0-1.05-.977 1.017 1.017 0 0 0-.856 1.478 7.767 7.767 0 0 1 1.669-.433z" fill="#FED306"/><path d="M20.491 14.244c-.22-.117-2.148-1.062-5.165-.629-2.753.396-4.274 2.07-4.365 2.186-.14.14-.006.257.104.178.677-.495 2.13-1.399 4.505-1.74 2.584-.371 4.952.183 4.952.183.066.024.165-.08-.03-.178z" fill="#57AA46"/><path d="M21.364 14.947c-1.972-.416-3.296-.158-4.213.062-.305.072-.25.25.018.237.56-.03 2.258.013 3.969.312 1.63.288 2.962.794 3.626 1.11.092.05.165-.054.079-.127-.517-.497-1.757-1.229-3.479-1.594zm-13.34 3.815v-.525c0-.258-.19-.451-.482-.451h-.367v3.962h.842v-2.247c0-.715.477-1.093.983-1.051.378.03.739.042.922-.721-1.014-.09-1.667.367-1.898 1.033zm12.461 2.924v-2.631c0-.88-.708-1.392-1.436-1.392-.447 0-.941.178-1.216.55v-2.065c0-.251-.183-.447-.47-.447h-.361v5.983h.835v-2.476c0-.653.557-.982.952-.982a.86.86 0 0 1 .862.873v2.587h.834zm-8.591-3.961a1.928 1.928 0 0 0-1.385.45c-.434.372-.671.935-.702 1.502-.03.526.123 1.062.45 1.465.172.213.397.384.647.5a2.043 2.043 0 0 0 1.495.043c.251-.093.482-.233.671-.416.086-.08.165-.213.086-.306-.042-.055-.128-.061-.196-.041-.068.02-.123.068-.182.103-.33.22-.77.275-1.148.147a1.416 1.416 0 0 1-.842-.793 1.887 1.887 0 0 1-.123-.843h2.667c.017-.457-.073-.945-.372-1.3-.253-.31-.662-.48-1.066-.511zm-1.166 1.374c.042-.19.104-.372.207-.537.14-.22.367-.391.629-.422.25-.03.501.08.666.268.165.19.238.447.213.69h-1.715zm5.282.384c-.165-.116-.354-.178-.537-.237-.292-.097-.697-.207-.842-.506a.415.415 0 0 1-.013-.36c.147-.313.605-.3.886-.233.196.048.348.182.537.25a.176.176 0 0 0 .171-.037c.068-.08-.006-.203-.079-.282-.33-.316-.831-.422-1.27-.323-.451.097-.836.416-.946.866-.073.306-.024.654.202.887.14.151.323.257.512.347.282.134.58.244.825.427.257.195.391.59.134.842-.165.165-.433.202-.66.195a1.52 1.52 0 0 1-.738-.206c-.124-.073-.368-.269-.502-.11-.085.103.007.257.104.347.402.391 1.02.526 1.563.416.457-.093.917-.354 1.13-.78.159-.33.128-.698-.03-1.008a1.57 1.57 0 0 0-.447-.495zm-8.86-3.591c-.316-.316-.81-.422-1.244-.33-.017 0-.037.007-.048.007-.653.147-1.075.622-1.148 1.313-.024.237-.037.69-.055.952H4v.433h.666v3.492h.862v-3.492H6.56a.424.424 0 0 0-.426-.427H5.52s-.024-.958.097-1.306a.918.918 0 0 1 .227-.371.745.745 0 0 1 .835-.134c.128.061.25.147.385.195.055.018.127.007.165-.037.068-.099.002-.216-.077-.295z" fill="#296241"/><path d="M23.385 17.718c-.567 0-.996.22-1.275.574v-.031c0-.25-.183-.447-.47-.447h-.362v5.458h.282c.306 0 .55-.244.55-.55v-3.318c0-.697.446-1.11.996-1.11s.996.415.996 1.405-.513 1.684-1.179 1.684c-.123 0-.347.018-.347.202 0 .196.202.196.206.203.086.013.172.013.3.013 1.116 0 1.983-.996 1.983-2.223 0-1.03-.752-1.86-1.68-1.86zm4.2.007a1.928 1.928 0 0 0-1.386.45c-.433.372-.67.935-.7 1.502a2.13 2.13 0 0 0 .45 1.465c.171.213.396.384.646.5a2.043 2.043 0 0 0 1.495.043c.251-.093.482-.233.671-.416.086-.08.165-.213.086-.306-.042-.055-.128-.061-.196-.041-.068.017-.123.068-.182.103-.33.22-.77.275-1.148.147a1.415 1.415 0 0 1-.842-.793 1.886 1.886 0 0 1-.123-.843h2.667c.017-.457-.073-.945-.372-1.3-.253-.31-.657-.48-1.066-.511zm-1.166 1.374c.042-.19.104-.372.207-.537.14-.22.367-.391.629-.422.25-.03.501.08.666.268.165.19.238.447.213.69H26.42zm5.441 1.928c-.038-.042-.097-.068-.179-.042-.158.049-.257.203-.402.275-.22.117-.55.055-.63-.206a.847.847 0 0 1-.023-.207l.006-2.584h1.148v-.409h-1.154V16.56h-.182a.276.276 0 0 0-.251.203c0 .013-.007.024-.007.041-.11.63-.391 1.038-1.031 1.179v.281h.622v2.35c0 .148-.007.289.018.434a.886.886 0 0 0 .312.556c.415.337 1.031.244 1.447-.037.147-.106.464-.336.305-.539z" fill="#57AA46"/><path d="M31.23 17.054c0-.22.172-.378.385-.378.213 0 .385.158.385.378a.382.382 0 0 1-.385.378.378.378 0 0 1-.385-.378zm.708 0a.307.307 0 0 0-.323-.323.314.314 0 0 0-.323.323.31.31 0 0 0 .323.323.314.314 0 0 0 .323-.323zm-.158.213h-.068l-.08-.11c-.012 0-.023.007-.037.007h-.055v.103h-.061v-.433h.116c.128 0 .19.073.19.165a.142.142 0 0 1-.093.14l.088.128zm-.189-.154c.097 0 .127-.041.127-.11 0-.068-.03-.123-.127-.123h-.048v.233h.048z" fill="#57AA46"/></svg>