<svg height="36" viewBox="0 0 36 36" width="36" xmlns="http://www.w3.org/2000/svg"><mask id="a" fill="#fff"><path d="M0 0h1.076v1.6H0z" fill-rule="evenodd"/></mask><mask id="b" fill="#fff"><path d="M0 0h26.677v7.227H0z" fill-rule="evenodd"/></mask><mask id="c" fill="#fff"><path d="M0 0h26.136v5.107H0z" fill-rule="evenodd"/></mask><g fill="none" fill-rule="evenodd"><path d="M18 0c2.837 0 5.52.656 7.907 1.825C31.884 4.753 36 10.895 36 18c0 9.942-8.058 18-18 18-9.94 0-18-8.057-18-18C0 8.06 8.06 0 18 0z" fill="#f2f4f7" fill-rule="nonzero"/><g fill="#2e2b28"><path d="M23.264 21.72h-.178l.004-.206c.003-.112.004-.269.004-.469l-.001-.152-.001-.155-.004-.002a6.88 6.88 0 0 0-.147.09l-.208.128-.065-.1.29-.203c.103-.07.16-.112.176-.12l.13.09-.003.338-.001.204v.328l.004.23"/><path d="M.862.36c.02.047.029.098.029.153a.516.516 0 0 1-.046.222.73.73 0 0 1-.126.19.767.767 0 0 1-.304-.084.437.437 0 0 1-.171-.143.333.333 0 0 1-.059-.192C.185.457.194.41.212.363a.33.33 0 0 1 .185-.19.37.37 0 0 1 .387.067.356.356 0 0 1 .078.12m.166.394a.623.623 0 0 0 .048-.248.507.507 0 0 0-.038-.211.47.47 0 0 0-.277-.259A.645.645 0 0 0 .542 0 .558.558 0 0 0 .15.159a.594.594 0 0 0-.109.158.473.473 0 0 0-.041.2c0 .092.02.17.061.236.04.065.092.119.154.161.059.04.124.072.196.097.073.024.143.04.211.05l.001.002-.198.197-.233.23.135.11.243-.255c.126-.134.229-.25.307-.349C.945.91.995.829 1.028.754" mask="url(#a)" transform="translate(24.57 20.534)"/><path d="M27.698 21.051a.318.318 0 0 1 .065.195.423.423 0 0 1-.025.146.31.31 0 0 1-.183.191.37.37 0 0 1-.142.027.368.368 0 0 1-.135-.023.324.324 0 0 1-.189-.187.387.387 0 0 1-.03-.158.614.614 0 0 1 .172-.412.901.901 0 0 1 .287.076.495.495 0 0 1 .18.145m.207.39a.516.516 0 0 0 .044-.207.444.444 0 0 0-.07-.246.554.554 0 0 0-.204-.183c-.056-.03-.116-.055-.18-.073s-.12-.03-.169-.037v-.002l.22-.225.216-.223-.13-.106-.236.25c-.089.096-.182.2-.278.314a1.22 1.22 0 0 0-.197.3.663.663 0 0 0-.048.244.5.5 0 0 0 .144.359.515.515 0 0 0 .183.114.652.652 0 0 0 .423-.003.55.55 0 0 0 .282-.277m2.273.278h-.214l-.294-.001h-.524l-.043-.127c.064-.031.139-.071.223-.12.085-.046.152-.088.2-.126a.947.947 0 0 0 .172-.165.302.302 0 0 0 .059-.186.26.26 0 0 0-.037-.141.255.255 0 0 0-.105-.092.457.457 0 0 0-.141-.044 1.005 1.005 0 0 0-.17-.014c-.02 0-.043 0-.07.002l-.067.003.016-.152.058-.003.082-.001c.083 0 .156.005.22.017s.126.03.182.058a.368.368 0 0 1 .222.348.406.406 0 0 1-.047.19.665.665 0 0 1-.117.156c-.048.047-.106.094-.175.139s-.137.084-.204.116l.002.007.122-.01.145-.003.317-.005.188-.001zM4.63 15.308H4v6.245h17.46v-.629H4.63z"/><path d="M0 0v.629h26.048v6.598h.629V0z" mask="url(#b)" transform="translate(5.323 14)"/></g><path d="M0 .676h.676V0H0z" fill="#f73a25" mask="url(#c)" transform="translate(4 14)"/><path d="M2.032 5.107V2.329h1.625v.47H2.554v.618h.893v.474h-.893v1.216zm3.296-.004V2.33h1.654v.47H5.85v.6h.91v.473h-.91v.757h1.246v.474zm5.29-1.396c0 .676-.437.926-.952.926h-.323V2.799h.39c.525 0 .885.379.885.908zM8.821 2.326v2.78h.757c.966 0 1.6-.503 1.6-1.388 0-.911-.678-1.392-1.512-1.392zm4.097 2.777V2.33h1.653v.47H13.44v.6h.91v.473h-.91v.757h1.246v.474zm4.768-1.918c0 .276-.184.412-.577.412h-.176v-.798h.191c.397 0 .562.155.562.386zm-.698.886 1.044 1.036h.72L17.57 4.023c.364-.092.668-.316.668-.841 0-.75-.716-.856-1.253-.856h-.573v2.78h.522V4.072zm4.067.088.416-.882.422.882zm1.047.437.243.511h.584l-1.455-2.903-1.455 2.903h.58l.243-.511zm2.351.507V2.325h.522V4.63h1.16v.474z" mask="url(#c)" transform="translate(4 14)" fill="#2e2b28"/></g></svg>