<svg width="36" height="36" fill="none" xmlns="http://www.w3.org/2000/svg"><path d="M18 0c2.837 0 5.52.656 7.907 1.825C31.884 4.753 36 10.895 36 18c0 9.942-8.058 18-18 18-9.94 0-18-8.057-18-18C0 8.06 8.06 0 18 0z" fill="#F2F4F7"/><path d="M25.859 19.074c-.014.01-.14.117-.392.117-.36 0-.374-.275-.374-.345 0-.127.042-.253.215-.323.103-.037.233-.06.546-.074v.625h.005zm.714.107-.042-.046a.15.15 0 0 1-.103.032c-.182 0-.182-.154-.182-.28 0-.144.014-.503.014-.802 0-.21-.01-.387-.093-.514-.098-.14-.262-.238-.588-.238-.448 0-.649.267-.691.407l.065.037a.528.528 0 0 1 .458-.238c.196 0 .354.065.415.247.028.084.028.238.028.369v.182c-.266 0-.579.014-.756.06-.373.103-.401.374-.401.49 0 .084.014.514.592.514a.698.698 0 0 0 .579-.276c0 .173.121.271.303.271.178-.005.29-.084.402-.215zm-3.71-1.208c-.033.004-.094.01-.145.01a1.12 1.12 0 0 1-.317-.034v-1.288s.098-.018.224-.018c.294 0 .709.07.709.644 0 .452-.22.648-.471.686zm1.619 1.39v-.06c-.191-.005-.387-.173-.607-.416-.275-.298-.76-.84-.76-.84.345-.102.658-.359.658-.798 0-.186-.056-.583-.602-.714-.182-.042-.425-.042-.532-.042-.173 0-.252.014-.579.014-.121 0-.36-.018-.36-.018v.065c.09.01.16.037.197.07.084.07.098.14.098.476v1.53c0 .374-.005.5-.084.58a.324.324 0 0 1-.224.097v.066c.196-.019.35-.019.508-.019.159 0 .318.01.495.019v-.066a.367.367 0 0 1-.196-.07c-.084-.07-.098-.14-.098-.476v-.62h.322c.112.15.625.77.747.905.242.266.373.34.662.34.182-.004.318-.023.355-.023zM13.88 17.04c-.02-.201-.015-.533-.015-.533h-1.18c-.257 0-.42 0-.672-.014v.066c.107.009.168.032.214.083.075.08.08.145.08.467v1.521c0 .374-.005.5-.084.584a.346.346 0 0 1-.224.103v.06c.196-.018.415-.018.578-.018.159 0 .35.009.528.018v-.065c-.038 0-.252-.014-.327-.117-.047-.06-.06-.15-.06-.425v-.807h.499c.172 0 .294.01.364.08.079.074.088.168.088.242h.08c-.005-.102-.014-.135-.014-.406 0-.275.009-.317.009-.415h-.075c-.004.07-.004.173-.084.247-.07.07-.163.084-.359.084h-.509V16.68h.56c.182 0 .318 0 .406.08.066.05.112.144.117.284h.08v-.005zm1.231-.383c0-.136-.102-.22-.242-.22-.15 0-.252.09-.252.23 0 .134.102.218.242.218.15 0 .252-.088.252-.228zm.28 2.716v-.06c-.154-.015-.233-.075-.261-.113-.047-.065-.056-.163-.056-.438v-.607c0-.327.005-.654.019-.808l-.014-.014c-.052.024-.14.038-.224.052a2.636 2.636 0 0 1-.467.037v.075c.047.005.177.005.243.093.046.066.051.173.051.444v.592c0 .373-.005.504-.084.583-.07.075-.159.09-.243.099v.06c.196-.018.392-.018.528-.018.163.004.331.013.508.023zm2.109-1.881v-.033c-.046-.037-.14-.102-.335-.102-.322 0-.5.2-.551.26v-.274l-.019-.014a1.03 1.03 0 0 1-.224.05 2.355 2.355 0 0 1-.438.038v.075c.051.005.182.005.247.093.047.066.051.168.051.444v.592c0 .374-.004.5-.084.579a.346.346 0 0 1-.224.103v.06c.196-.018.388-.018.546-.018.159 0 .374.009.551.018v-.06c-.07 0-.266-.01-.34-.112-.047-.066-.057-.164-.057-.44v-1.068a.48.48 0 0 1 .285-.088c.252 0 .36.14.392.186h.037l.164-.29zm1.797 1.311c0-.308-.224-.438-.42-.546l-.298-.168c-.108-.06-.252-.14-.252-.312 0-.07.009-.308.378-.308.219 0 .331.102.359.135.028.037.084.103.089.224h.079c-.01-.065-.005-.103-.01-.224 0-.005.005-.182.015-.233 0 0-.243-.042-.528-.042-.14 0-.308.018-.415.07-.261.12-.29.35-.29.476 0 .26.169.396.337.494l.312.182c.173.103.299.178.299.36 0 .33-.34.326-.41.326-.173 0-.309-.028-.416-.154a.428.428 0 0 1-.103-.256h-.079c.014.12.023.186.023.392v.088c.052.019.243.084.546.084.313 0 .784-.088.784-.588zm1.956.416-.028-.066s-.126.061-.29.061c-.378 0-.424-.21-.424-.522v-1.134h.742v-.168h-.742v-.467h-.061s-.22.336-.369.453a.894.894 0 0 1-.256.14v.042h.289c-.005.396-.01.7-.01 1.096 0 .117 0 .313.033.41.075.23.229.341.565.341.383-.004.55-.186.55-.186zm10.061-.126c-.173.112-.387.102-.41.102-.71 0-.747-.648-.747-.811 0-.393.098-.892.676-.892.322 0 .462.145.481.168v1.433zm.686.215v-.07c-.047-.005-.177-.005-.243-.094-.046-.06-.051-.168-.051-.443v-1.694c0-.332.005-.654.019-.812l-.014-.01a1.38 1.38 0 0 1-.22.052 3.215 3.215 0 0 1-.471.037v.07c.047.005.177.005.243.093.046.066.051.173.051.448v.5a1.904 1.904 0 0 0-.471-.052c-.49 0-.836.23-.999.57a1.24 1.24 0 0 0-.117.541c0 .565.35.966.938.966.388 0 .635-.224.658-.242v.233l.019.01c.051-.024.14-.038.229-.052.182-.042.373-.052.429-.052zm-2.665.065v-.061a.38.38 0 0 1-.196-.07c-.084-.075-.098-.135-.098-.48v-.607c0-.117-.009-.294-.028-.364-.065-.28-.28-.458-.676-.458-.388 0-.64.21-.677.248v-.238l-.019-.014a1.03 1.03 0 0 1-.224.05 2.357 2.357 0 0 1-.438.038v.075c.051.005.182.005.247.093.047.066.051.173.051.444v.592c0 .374-.004.5-.084.579a.346.346 0 0 1-.224.103v.06c.196-.018.346-.018.504-.018.159 0 .313.009.49.018v-.06a.381.381 0 0 1-.196-.07c-.084-.075-.098-.136-.098-.481v-1.12a.936.936 0 0 1 .453-.103c.369 0 .48.206.509.434.018.164.018.322.018.48 0 .122 0 .286-.004.365-.01.177 0 .322-.098.415a.397.397 0 0 1-.206.084v.06c.196-.018.341-.018.5-.018.158.005.312.014.494.024z" fill="#231815"/><path d="M10.29 17.79c0-1.339-1.33-2.426-2.963-2.426S4.364 16.45 4.364 17.79s1.33 2.427 2.963 2.427c1.634 0 2.964-1.087 2.964-2.427z" fill="#F0F1F1"/><path d="M6.81 16.078c-.225.27.027.532.05.83a.974.974 0 0 1-.144.56c.033.02.275.07.434-.078.154-.14.07-.378.07-.378.126.125.107.387-.033.527.229-.019.43-.173.43-.397 0-.126-.047-.196-.047-.196.154.093.159.34.089.453.028 0 .266-.117.261-.369-.01-.392-.471-.28-.719-.518-.135-.13-.112-.313-.112-.313-.186-.004-.28-.12-.28-.12z" fill="#231815"/><path d="M7.953 16.801c.144.238.088.752-.178 1.027.15-.01.322-.065.378-.093l-.037.07s.13.028.327 0c.21-.028.364-.108.429-.042.06.065-.01.158-.08.172.066.033.337.014.36-.177l.056.084s.051-.07.042-.14c-.019-.168-.252-.243-.406-.135-.462-.094-.658-.243-.728-.29a.77.77 0 0 0 .369-.093c.004.037-.005.08-.005.08.177-.061.373-.327.448-.547.06.014.103.075.112.14.065-.051.163-.21-.005-.331l.154.033c0-.098-.112-.178-.224-.178-.121 0-.247.084-.247.29-.285.252-.705.14-.765.13zm-.84 1.335s.186.163.186.425c0 0 .257-.033.243.182-.014.172-.233.228-.233.228.07.187.364.462.779.542.07-.07.154-.08.205-.033.047.042.014.112-.018.14.088.019.219-.005.28-.093a.25.25 0 0 1 .154.046.304.304 0 0 0-.089-.214c-.107-.108-.331-.112-.462-.084-.266-.098-.373-.299-.373-.299.205-.103.504-.555.275-.798-.243-.266-.882-.065-.947-.042z" fill="#231815"/><path d="M7.906 17.338a.712.712 0 0 1-.397.247l.024-.07c-.178.131-.514.122-.514.122l.056-.089a.574.574 0 0 1-.289.033c-.103.462-.48.21-.625.611a.136.136 0 0 0-.01.042c-.116.08-.354.215-.513.215-.098 0-.168-.056-.187-.145-.028-.126.042-.313.271-.42.075-.037.163-.07.257-.107.354-.145.756-.303.756-.654 0-.303-.224-.396-.341-.4-.215 0-.35.247-.593.004-.014.08 0 .172.089.233l-.06.01s.28.359.718-.028a.282.282 0 0 1 .056.181c0 .257-.355.402-.672.532a4.881 4.881 0 0 0-.261.112c-.29.14-.383.393-.341.57.033.15.159.247.317.247.173 0 .378-.107.509-.191a.541.541 0 0 0 .145.266.538.538 0 0 1-.528.182c-.014.121.089.205.136.238l-.07.023c.298.41.84.495.882.518.042.023-.019.089-.042.107.102.033.256.01.359-.07.056 0 .126.038.163.075a.179.179 0 0 0-.046-.196c-.126-.13-.392-.075-.392-.075s-.612-.205-.369-.531c0 0 .733.111.807-.243.066-.327-.275-.588-.312-.626.896-.004.994-.643 1.017-.723zm-.425-1.045c.154-.089.308-.01.308-.01a.085.085 0 0 1-.032.085l.009.018c.065-.037.243-.22.233-.322-.009-.098-.312-.13-.312-.13s-.075-.075-.243-.098a.49.49 0 0 0-.299.05s-.06-.018-.154-.018a.323.323 0 0 0-.177.056c.047.108.173.192.373.173a.373.373 0 0 0 .047.308c.089.13.29.145.336.154.047.01.084.06.121.06.07 0 .187-.177.187-.177l-.014-.018c-.154.07-.299.028-.383-.131zm-.112-.313c.056.014.14.024.22.033l-.094.084c-.042-.028-.046-.075-.126-.117z" fill="#231815"/><path d="M10.655 17.79c0 1.54-1.489 2.791-3.328 2.791-1.838 0-3.327-1.25-3.327-2.79S5.489 15 7.327 15c1.839.005 3.328 1.25 3.328 2.79zm-.364 0c0-1.339-1.33-2.426-2.964-2.426-1.633 0-2.963 1.087-2.963 2.427 0 1.339 1.33 2.426 2.963 2.426 1.634 0 2.964-1.087 2.964-2.426zm15.568 1.284c-.014.01-.14.117-.392.117-.36 0-.374-.275-.374-.345 0-.127.042-.253.215-.323.103-.037.233-.06.546-.074v.625h.005zm.714.107-.042-.046a.15.15 0 0 1-.103.032c-.182 0-.182-.154-.182-.28 0-.144.014-.503.014-.802 0-.21-.01-.387-.093-.514-.098-.14-.262-.238-.588-.238-.448 0-.649.267-.691.407l.065.037a.528.528 0 0 1 .458-.238c.196 0 .354.065.415.247.028.084.028.238.028.369v.182c-.266 0-.579.014-.756.06-.373.103-.401.374-.401.49 0 .084.014.514.592.514a.698.698 0 0 0 .579-.276c0 .173.121.271.303.271.178-.005.29-.084.402-.215zm-3.71-1.208c-.033.004-.094.01-.145.01a1.12 1.12 0 0 1-.317-.034v-1.288s.098-.018.224-.018c.294 0 .709.07.709.644 0 .452-.22.648-.471.686zm1.619 1.39v-.06c-.191-.005-.387-.173-.607-.416-.275-.298-.76-.84-.76-.84.345-.102.658-.359.658-.798 0-.186-.056-.583-.602-.714-.182-.042-.425-.042-.532-.042-.173 0-.252.014-.579.014-.121 0-.36-.018-.36-.018v.065c.09.01.16.037.197.07.084.07.098.14.098.476v1.53c0 .374-.005.5-.084.58a.324.324 0 0 1-.224.097v.066c.196-.019.35-.019.508-.019.159 0 .318.01.495.019v-.066a.367.367 0 0 1-.196-.07c-.084-.07-.098-.14-.098-.476v-.62h.322c.112.15.625.77.747.905.242.266.373.34.662.34.182-.004.318-.023.355-.023zM13.88 17.04c-.02-.201-.015-.533-.015-.533h-1.18c-.257 0-.42 0-.672-.014v.066c.107.009.168.032.214.083.075.08.08.145.08.467v1.521c0 .374-.005.5-.084.584a.346.346 0 0 1-.224.103v.06c.196-.018.415-.018.578-.018.159 0 .35.009.528.018v-.065c-.038 0-.252-.014-.327-.117-.047-.06-.06-.15-.06-.425v-.807h.499c.172 0 .294.01.364.08.079.074.088.168.088.242h.08c-.005-.102-.014-.135-.014-.406 0-.275.009-.317.009-.415h-.075c-.004.07-.004.173-.084.247-.07.07-.163.084-.359.084h-.509V16.68h.56c.182 0 .318 0 .406.08.066.05.112.144.117.284h.08v-.005zm1.231-.383c0-.136-.102-.22-.242-.22-.15 0-.252.09-.252.23 0 .134.102.218.242.218.15 0 .252-.088.252-.228zm.28 2.716v-.06c-.154-.015-.233-.075-.261-.113-.047-.065-.056-.163-.056-.438v-.607c0-.327.005-.654.019-.808l-.014-.014c-.052.024-.14.038-.224.052a2.636 2.636 0 0 1-.467.037v.075c.047.005.177.005.243.093.046.066.051.173.051.444v.592c0 .373-.005.504-.084.583-.07.075-.159.09-.243.099v.06c.196-.018.392-.018.528-.018.163.004.331.013.508.023zm2.109-1.881v-.033c-.046-.037-.14-.102-.335-.102-.322 0-.5.2-.551.26v-.274l-.019-.014a1.03 1.03 0 0 1-.224.05 2.355 2.355 0 0 1-.438.038v.075c.051.005.182.005.247.093.047.066.051.168.051.444v.592c0 .374-.004.5-.084.579a.346.346 0 0 1-.224.103v.06c.196-.018.388-.018.546-.018.159 0 .374.009.551.018v-.06c-.07 0-.266-.01-.34-.112-.047-.066-.057-.164-.057-.44v-1.068a.48.48 0 0 1 .285-.088c.252 0 .36.14.392.186h.037l.164-.29zm1.797 1.311c0-.308-.224-.438-.42-.546l-.298-.168c-.108-.06-.252-.14-.252-.312 0-.07.009-.308.378-.308.219 0 .331.102.359.135.028.037.084.103.089.224h.079c-.01-.065-.005-.103-.01-.224 0-.005.005-.182.015-.233 0 0-.243-.042-.528-.042-.14 0-.308.018-.415.07-.261.12-.29.35-.29.476 0 .26.169.396.337.494l.312.182c.173.103.299.178.299.36 0 .33-.34.326-.41.326-.173 0-.309-.028-.416-.154a.428.428 0 0 1-.103-.256h-.079c.014.12.023.186.023.392v.088c.052.019.243.084.546.084.313 0 .784-.088.784-.588zm1.956.416-.028-.066s-.126.061-.29.061c-.378 0-.424-.21-.424-.522v-1.134h.742v-.168h-.742v-.467h-.061s-.22.336-.369.453a.894.894 0 0 1-.256.14v.042h.289c-.005.396-.01.7-.01 1.096 0 .117 0 .313.033.41.075.23.229.341.565.341.383-.004.55-.186.55-.186zm10.061-.126c-.173.112-.387.102-.41.102-.71 0-.747-.648-.747-.811 0-.393.098-.892.676-.892.322 0 .462.145.481.168v1.433zm.686.215v-.07c-.047-.005-.177-.005-.243-.094-.046-.06-.051-.168-.051-.443v-1.694c0-.332.005-.654.019-.812l-.014-.01a1.38 1.38 0 0 1-.22.052 3.215 3.215 0 0 1-.471.037v.07c.047.005.177.005.243.093.046.066.051.173.051.448v.5a1.904 1.904 0 0 0-.471-.052c-.49 0-.836.23-.999.57a1.24 1.24 0 0 0-.117.541c0 .565.35.966.938.966.388 0 .635-.224.658-.242v.233l.019.01c.051-.024.14-.038.229-.052.182-.042.373-.052.429-.052zm-2.665.065v-.061a.38.38 0 0 1-.196-.07c-.084-.075-.098-.135-.098-.48v-.607c0-.117-.009-.294-.028-.364-.065-.28-.28-.458-.676-.458-.388 0-.64.21-.677.248v-.238l-.019-.014a1.03 1.03 0 0 1-.224.05 2.357 2.357 0 0 1-.438.038v.075c.051.005.182.005.247.093.047.066.051.173.051.444v.592c0 .374-.004.5-.084.579a.346.346 0 0 1-.224.103v.06c.196-.018.346-.018.504-.018.159 0 .313.009.49.018v-.06a.381.381 0 0 1-.196-.07c-.084-.075-.098-.136-.098-.481v-1.12a.936.936 0 0 1 .453-.103c.369 0 .48.206.509.434.018.164.018.322.018.48 0 .122 0 .286-.004.365-.01.177 0 .322-.098.415a.397.397 0 0 1-.206.084v.06c.196-.018.341-.018.5-.018.158.005.312.014.494.024z" fill="#231815"/><path d="M10.29 17.79c0-1.339-1.33-2.426-2.963-2.426S4.364 16.45 4.364 17.79s1.33 2.427 2.963 2.427c1.634 0 2.964-1.087 2.964-2.427z" fill="#F0F1F1"/><path d="M6.81 16.078c-.225.27.027.532.05.83a.974.974 0 0 1-.144.56c.033.02.275.07.434-.078.154-.14.07-.378.07-.378.126.125.107.387-.033.527.229-.019.43-.173.43-.397 0-.126-.047-.196-.047-.196.154.093.159.34.089.453.028 0 .266-.117.261-.369-.01-.392-.471-.28-.719-.518-.135-.13-.112-.313-.112-.313-.186-.004-.28-.12-.28-.12z" fill="#231815"/><path d="M7.953 16.801c.144.238.088.752-.178 1.027.15-.01.322-.065.378-.093l-.037.07s.13.028.327 0c.21-.028.364-.108.429-.042.06.065-.01.158-.08.172.066.033.337.014.36-.177l.056.084s.051-.07.042-.14c-.019-.168-.252-.243-.406-.135-.462-.094-.658-.243-.728-.29a.77.77 0 0 0 .369-.093c.004.037-.005.08-.005.08.177-.061.373-.327.448-.547.06.014.103.075.112.14.065-.051.163-.21-.005-.331l.154.033c0-.098-.112-.178-.224-.178-.121 0-.247.084-.247.29-.285.252-.705.14-.765.13zm-.84 1.335s.186.163.186.425c0 0 .257-.033.243.182-.014.172-.233.228-.233.228.07.187.364.462.779.542.07-.07.154-.08.205-.033.047.042.014.112-.018.14.088.019.219-.005.28-.093a.25.25 0 0 1 .154.046.304.304 0 0 0-.089-.214c-.107-.108-.331-.112-.462-.084-.266-.098-.373-.299-.373-.299.205-.103.504-.555.275-.798-.243-.266-.882-.065-.947-.042z" fill="#231815"/><path d="M7.906 17.338a.712.712 0 0 1-.397.247l.024-.07c-.178.131-.514.122-.514.122l.056-.089a.574.574 0 0 1-.289.033c-.103.462-.48.21-.625.611a.136.136 0 0 0-.01.042c-.116.08-.354.215-.513.215-.098 0-.168-.056-.187-.145-.028-.126.042-.313.271-.42.075-.037.163-.07.257-.107.354-.145.756-.303.756-.654 0-.303-.224-.396-.341-.4-.215 0-.35.247-.593.004-.014.08 0 .172.089.233l-.06.01s.28.359.718-.028a.282.282 0 0 1 .056.181c0 .257-.355.402-.672.532a4.881 4.881 0 0 0-.261.112c-.29.14-.383.393-.341.57.033.15.159.247.317.247.173 0 .378-.107.509-.191a.541.541 0 0 0 .145.266.538.538 0 0 1-.528.182c-.014.121.089.205.136.238l-.07.023c.298.41.84.495.882.518.042.023-.019.089-.042.107.102.033.256.01.359-.07.056 0 .126.038.163.075a.179.179 0 0 0-.046-.196c-.126-.13-.392-.075-.392-.075s-.612-.205-.369-.531c0 0 .733.111.807-.243.066-.327-.275-.588-.312-.626.896-.004.994-.643 1.017-.723zm-.425-1.045c.154-.089.308-.01.308-.01a.085.085 0 0 1-.032.085l.009.018c.065-.037.243-.22.233-.322-.009-.098-.312-.13-.312-.13s-.075-.075-.243-.098a.49.49 0 0 0-.299.05s-.06-.018-.154-.018a.323.323 0 0 0-.177.056c.047.108.173.192.373.173a.373.373 0 0 0 .047.308c.089.13.29.145.336.154.047.01.084.06.121.06.07 0 .187-.177.187-.177l-.014-.018c-.154.07-.299.028-.383-.131zm-.112-.313c.056.014.14.024.22.033l-.094.084c-.042-.028-.046-.075-.126-.117z" fill="#231815"/><path d="M10.655 17.79c0 1.54-1.489 2.791-3.328 2.791-1.838 0-3.327-1.25-3.327-2.79S5.489 15 7.327 15c1.839.005 3.328 1.25 3.328 2.79zm-.364 0c0-1.339-1.33-2.426-2.964-2.426-1.633 0-2.963 1.087-2.963 2.427 0 1.339 1.33 2.426 2.963 2.426 1.634 0 2.964-1.087 2.964-2.426z" fill="#231815"/></svg>