<svg width="36" height="36" fill="none" xmlns="http://www.w3.org/2000/svg"><path d="M18 0c2.837 0 5.52.656 7.907 1.825C31.884 4.753 36 10.895 36 18c0 9.942-8.058 18-18 18-9.94 0-18-8.057-18-18C0 8.06 8.06 0 18 0z" fill="#F2F4F7"/><path d="M8.67 17.493c-.09-.197-.137-.299-.2-.452-.059.153-.079.2-.189.464l-.216.53h.85l-.244-.542zm-.848 1.198-.303.668h-.885l1.541-3.245h.747l1.54 3.245H9.59l-.33-.668H7.823zm4.844-1.17c.18 0 .255-.012.33-.052a.385.385 0 0 0 .192-.329.389.389 0 0 0-.193-.33c-.07-.039-.145-.047-.329-.047h-1.08v.75l1.08.007zm-1.08 1.838h-.814v-3.245h2.118c.377 0 .581.047.774.164a.854.854 0 0 1 .396.727c0 .385-.2.672-.565.823.322.115.42.295.428.802.016.405.04.523.137.73h-.895c-.06-.18-.07-.254-.063-.565 0-.471-.13-.617-.546-.617h-.97v1.181zm6.277 0v-3.245h2.97v.658h-2.156v.61h1.905v.658h-1.905v.668h2.156v.659l-2.97-.008zm5.328 0h-.813v-2.59h-1.124v-.658h3.056v.659h-1.12v2.59zm5.103-1.269c-.232.924-.864 1.387-1.913 1.387-1.194 0-1.949-.664-1.949-1.709 0-1.07.778-1.768 1.968-1.768.57 0 1.018.149 1.372.468.24.2.407.473.475.777h-.876c-.165-.411-.487-.613-.974-.613-.653 0-1.104.46-1.104 1.12 0 .644.448 1.093 1.088 1.093.519 0 .83-.232 1.018-.755h.895zm2.896-1.976v1.265h-1.673v-1.265h-.813v3.245h.813v-1.324h1.67v1.324H32v-3.245h-.81zM4 19.359v-3.245h2.848v.658H4.813v.61H6.68v.658H4.813v1.32H4zm10.595 0v-3.245h2.849v.658h-2.036v.61h1.87v.658h-1.87v1.32h-.813z" fill="#000"/></svg>