<svg width="36" height="36" fill="none" xmlns="http://www.w3.org/2000/svg"><defs><linearGradient id="a" x1="14.273" y1="4.468" x2="21.775" y2="31.341" gradientUnits="userSpaceOnUse"><stop stop-color="#EABB0C"/><stop offset=".51" stop-color="#FEDE07"/><stop offset="1" stop-color="#EABB0C"/></linearGradient></defs><path d="M18 0c2.837 0 5.52.656 7.907 1.825C31.884 4.753 36 10.895 36 18c0 9.942-8.058 18-18 18-9.94 0-18-8.057-18-18C0 8.06 8.06 0 18 0z" fill="#F2F4F7"/><path d="m15.645 4.188-2.128 5.038a13.969 13.969 0 0 0-7.474 16.04 13.996 13.996 0 0 1 9.602-21.078zm1.203-.14L10.046 19.5l1.036 1.231c.644.224 1.875.476 2.435.56l2.687-6.354c2.688-1.232 6.55-.504 8.146 0a12.849 12.849 0 0 0-6.634-3.5l1.764-3.722c3.359-.896 6.802-.28 8.201.168a13.94 13.94 0 0 0-10.805-3.835h-.028zm13.297 6.97a14.136 14.136 0 0 1-7.642 15.9l-2.044 4.843a13.996 13.996 0 0 0 9.686-20.743zm-10.861 20.91 6.802-15.284-1.036-1.147a14.615 14.615 0 0 0-2.52-.56l-2.742 6.354c-2.548 1.064-6.439.448-8.062 0 1.343 1.736 4.926 3.08 6.55 3.527l-1.596 3.583a17.635 17.635 0 0 1-8.09-.027 13.94 13.94 0 0 0 10.694 3.555z" fill="url(#a)"/></svg>