<svg width="36" height="36" fill="none" xmlns="http://www.w3.org/2000/svg"><path d="M18 0c2.837 0 5.52.656 7.907 1.825C31.884 4.753 36 10.895 36 18c0 9.942-8.058 18-18 18-9.94 0-18-8.057-18-18C0 8.06 8.06 0 18 0z" fill="#F2F4F7"/><path d="M32 20.181h-.137v-.137H32v.137z" fill="#3773AD"/><path d="M12.602 18.982c-.205-.137-.411-.96-.857-.96-.48 0-.65.96-1.2.96-.479 0-.65-.96-1.267-.96a.553.553 0 0 0-.309.103v-.377a.552.552 0 0 1 .309-.103c.617 0 .788.96 1.268.96.548 0 .72-.96 1.2-.96.445 0 .65.823.856.96v.377z" fill="#F9DB52"/><path d="M12.602 19.599c-.205-.137-.411-.96-.857-.96-.48 0-.65.96-1.2.96-.479 0-.65-.96-1.267-.96a.555.555 0 0 0-.309.103v-.412a1.01 1.01 0 0 1 .309-.068c.617 0 .788.96 1.268.96.548 0 .72-.96 1.2-.96.445 0 .65.823.856.96v.377z" fill="#F9DB52"/><path d="M12.602 18.365c-.205-.137-.411-.96-.857-.96-.48 0-.65.96-1.2.96-.479 0-.65-.96-1.267-.96a.554.554 0 0 0-.309.103v-.377a.552.552 0 0 1 .309-.103c.617 0 .788.96 1.268.96.548 0 .72-.96 1.2-.96.445 0 .65.823.856.96v.377z" fill="#F9DB52"/><path d="M4 20.18v-.24h.48c.171 0 .205-.034.205-.17v-3.29c0-.138-.034-.172-.206-.172h-.445v-.24h4.01l.069.892-.275.034-.102-.48c-.035-.137-.069-.137-.206-.137H5.542v1.405h1.405c.103 0 .138-.034.172-.137l.034-.171.171.034v.994l-.17.034-.07-.274c-.034-.069-.067-.103-.17-.103H5.542v1.611c0 .137.034.171.205.171h.514v.24H4M10.649 16c1.714 0 2.468.96 2.468 2.125 0 1.13-.755 2.124-2.468 2.124-1.68 0-2.434-.993-2.434-2.124C8.215 16.96 8.97 16 10.65 16zm.137 4.01c1.268 0 1.508-.926 1.508-1.782 0-.891-.24-1.817-1.508-1.817-1.302 0-1.542.926-1.542 1.817 0 .856.24 1.782 1.542 1.782zm2.399.17v-.24h.445c.172 0 .206-.034.206-.17v-3.29c0-.138-.034-.172-.206-.172h-.445v-.24H16.2c.823 0 1.336.412 1.336 1.097 0 .343-.102.685-.616.891-.275.103-.343.103-.343.137 0 .069.172.069.309.274l.994 1.371c.068.069.137.103.274.103h.24v.24h-1.303l-.96-1.542c-.136-.24-.308-.343-.548-.343h-.89v1.474c0 .137.033.17.205.17h.48v.24h-2.194zm1.508-2.192c.171 0 .48.034.857.034.857 0 1.062-.274 1.062-.891s-.445-.823-1.302-.823c-.206 0-.48 0-.617.035v1.645m4.867 1.953c.171 0 .205-.034.205-.171v-3.393h-.925c-.172 0-.206.034-.24.137l-.206.788-.308-.034.171-1.2h3.907l.172 1.2-.309.034-.24-.788c0-.103-.068-.137-.205-.137h-.96v3.393c.034.137.069.171.24.171h.446v.24H19.08v-.24h.48m3.118.239v-.24h.48c.171 0 .205-.034.205-.17v-3.29c0-.138-.034-.172-.205-.172h-.48v-.24h2.228v.24h-.48c-.171 0-.205.035-.205.172v3.29c0 .137.034.171.205.171h.48v.24h-2.228m3.017-1.405c.137.96.582 1.2 1.37 1.2.823 0 1.234-.378 1.234-.892 0-1.062-2.742 0-2.742-1.85 0-.754.411-1.234 1.61-1.234.549 0 .995.068 1.474.24v.822h-.24c0-.137-.068-.445-.24-.616-.171-.138-.445-.172-.89-.172-.892 0-1.132.274-1.132.651 0 1.268 2.673.103 2.708 1.885 0 .857-.651 1.44-1.748 1.44-.514 0-1.337-.172-1.576-.309l-.07-1.13.242-.035zm3.769 1.405h-.171v-.891h.171v.891zm.926-.891h.171v.891h-.171l-.549-.72v.72h-.137v-.891h.172l.514.72v-.72zm1.13.275c-.034-.172-.205-.172-.308-.172-.172 0-.343.103-.343.342 0 .206.103.377.343.377.103 0 .274-.034.308-.274h.137c-.034.343-.376.377-.445.377-.24 0-.48-.137-.48-.48 0-.273.172-.48.48-.48.274 0 .411.172.445.31h-.137z" fill="#3773AD"/></svg>