<svg height="36" viewBox="0 0 36 36" width="36" xmlns="http://www.w3.org/2000/svg"><mask id="a" fill="#fff"><path d="M0 0h24v19.402H0z" fill-rule="evenodd"/></mask><g fill="none" fill-rule="evenodd"><path d="M18 0c2.837 0 5.52.656 7.907 1.825C31.884 4.753 36 10.895 36 18c0 9.942-8.058 18-18 18-9.94 0-18-8.057-18-18C0 8.06 8.06 0 18 0z" fill="#f2f4f7" fill-rule="nonzero"/><g fill="#c5281c"><path d="M18.135 12.03c.054-.134.134-.215.269-.242l1.318-.296-.107-1.184v-.027c-.028-.162-.136-.619-.754-.673-2.368-.188-2.905-.537-3.498-.914l-.027-.028c-.618-.403-1.237-.403-1.29-.403-.674 0-1.508.27-1.59.296-.214.054-.402.135-.59.189-.754.241-1.373.457-2.449.403H9.23l-.054.188c-.027.136-.35 1.346-.054 2.1-.27.214-.27.43-.27.484 0 .268-.053.323-.08.35-.134.133-.538.133-.887.133H7.75l-.081.108c-.215.297-.673.377-.969.297-.134-.405-.134-.7 0-.888.162-.216.458-.242.593-.242h.08c.323 0 .565-.27.565-.566V8.99c.108-.134.162-.323.243-.511.51-.08.914-.51.914-1.049a.997.997 0 0 0-.16-.564c.483-.243.886-.7.886-1.319 0-.62-.322-.915-.618-1.076.08-.243.215-.647.323-1.077l.403-1.48c.189-.592.673-.969 1.238-.969h7.318c-.323.431-.753.647-1.372.647h-4.386l-.242.484h3.983c-.324.484-.78.726-1.427.726h-2.879l-.242.484h2.556c-.323.485-.753.7-1.398.7h-1.561l-.242.485h1.64c.028.026.055.107.055.295 0 .324-.27.565-.592.565A.81.81 0 0 1 12 5.223c-.08-.027-.135-.054-.215-.081l-.377.35c.081.027.135.054.216.08.322.135.51.216.753.216.296 0 .565-.135.78-.323.27.026.727.054 1.184.081.538.053 1.022.08 1.292.107.134 0 .241 0 .376.028.215 0 .43.026.619.026.996 1.614 1.507 1.83 3.444 2.072.134.242.269.511.377.78v3.39c-.082.08-.377.215-.458.242l-1.641.674c-.215-.297-.296-.593-.215-.835zm-.35.861h-3.229l1.372-1.453c.27-.295.377-.645.242-.968-.053-.189-.242-.565-.43-.969.538.242 1.372.484 3.067.618.216.028.27.082.296.27l.08.726-.887.189a.828.828 0 0 0-.646.537c-.107.323-.054.7.135 1.05zm-5.812 0c-.081-.35-.054-.619.108-.807.16-.188.376-.215.564-.215l.942.16h.162l.672-.725c.108-.135.458-.539.108-1.05l-.888-1.453c.135-.027.296-.027.43-.027s.458 0 .943.27c.053.134.16.323.241.538.189.376.432.86.485 1.049.027.054.08.242-.135.484l-1.694 1.803h-1.938zm-.269-1.13c-.188.216-.35.565-.242 1.13h-3.04c.323-.026.564-.108.726-.269.188-.216.215-.484.215-.7 0-.026.027-.08.188-.16l.27-.109-.162-.242c-.269-.403-.134-1.264-.054-1.749h.028c1.021 0 1.694-.215 2.394-.43a4.59 4.59 0 0 0 .565-.189c.188-.08.215-.054.485-.134l.995 1.64v.029c.108.133.108.241-.08.43l-.485.538-.808-.162c-.35-.053-.753.108-.995.377zm-5.38-.108c-.216.296-.243.726-.082 1.238H5.73V8.91c.188-.027.377-.08.565-.161 0 .16-.027.323-.054.483 0 .055-.027.082-.027.136l-.054.295h.296c.431 0 .753-.08 1.022-.187v1.668c0 .053-.026.08-.08.08h-.08c-.431-.027-.808.135-.996.43zm-1.104.808-2.34-.62-2.342.62V8.29l2.341-.619 2.341.619zm-4.359.43 2.045-.538 2.045.538zm.807-6.134c.108-.162.323-.27.592-.243l.215.027.081-.188a.596.596 0 0 1 .08-.135c.055-.054.162-.08.27-.08.296 0 .673.215.968.538.108.107.215.268.296.404.027.026.027.053.054.08a.403.403 0 0 1 .054.08c0 .027.161.243.161.27.108-.135.215-.296.297-.43v-.028c-.028-.053-.082-.134-.108-.187L4.6 6.837s-.027-.026-.027-.054a.845.845 0 0 0-.107-.161l.645-1.023c.162.027.296.027.377.027h.027c.914 0 1.856-.537 1.856-1.399v-.026c0-.243-.054-.458-.08-.647-.028-.133-.054-.241-.054-.295 0-.108.134-.216.323-.216h.296l-.135-.753c.404-.296.673-.807.645-1.264.458.35.754.94.808 1.56.027.188-.027.43-.08.7l-.028.107c-.107.43-.27.888-.349 1.103l-.081.189.188.108c.323.188.538.322.538.753 0 .511-.457.888-.888.968l-.618.108.51.35a.6.6 0 0 1 .27.484c0 .323-.27.565-.592.565h-.188l-.054.162c-.188.591-.377.888-1.023.968v-.888l-.027-.565-.403.403c-.135.135-.377.243-.646.297v-.485L2.88 7.159l-.995.27c-.216-.215-.27-.592-.216-.672zm3.068-1.83c0-.027.026-.054.054-.054l.43.027c.51-.027 1.05-.243 1.103-.78 0-.377-.269-.727-.619-.727-.188 0-.43.135-.673.297-.162.107-.295.187-.377.187-.053 0-.107-.054-.107-.08V3.77l.27-.377-.243-.161c-.053-.027-.135-.108-.135-.135 0-.027.028-.054.028-.08.107-.108.215-.243.323-.431.08-.107.107-.161.215-.161.107 0 .215.08.215.215 0 .08.08.134.188.134s.162-.08.216-.134c0 0 .241-.215.107-.323-.135-.108-.726.135-.565-.403l.054-.08c.054-.082.35-.297.915-.297.107 0 .215 0 .35.027h.08L7.803.811c0 .026.027.054.027.054.054.376-.162.806-.538 1.022l-.161.08.107.565c-.323.108-.539.35-.539.646 0 .107.027.243.054.376.027.189.081.377.081.565 0 .592-.807.97-1.48.942h-.027c-.026 0-.458-.026-.565-.107-.026.027-.026 0-.026-.027zm1.022-3.875c.08-.108.215-.215.35-.323.107-.08.27-.161.43-.188.242-.054.511-.054.78 0l-.888.539c-.107 0-.215-.028-.322-.028-.162 0-.296 0-.404.028.027 0 .027 0 .054-.028zM19.103.944h3.282c-.322.431-.752.647-1.371.647h-2.45c.216-.189.405-.404.54-.647zm-.188 1.857h-2.448c.215-.188.403-.43.538-.726h3.308c-.268.484-.726.726-1.398.726zm-1.938 1.184H14.53c.216-.188.377-.43.511-.7h3.31c-.27.485-.726.7-1.373.7zm.566 1.884c.78.134 1.399.484 1.883 1.022.107.108.189.242.296.376-1.292-.16-1.749-.35-2.475-1.452.108 0 .188.026.296.054zm5.193 5.327c.054.08.08.162.134.215.053.081.107.162.161.27-.377-.028-.672-.243-.914-.62.215-.107.51-.026.619.135zM19.64 12.89l.511-.188c.727-.297.834-.485.781-.969V9.797c.538 1.399 1.076 2.367 2.126 2.367.134 0 .296-.026.457-.053l.403-.081-.295-.323c-.189-.188-.27-.35-.377-.538-.054-.081-.081-.161-.135-.242-.242-.404-.834-.538-1.318-.323-.215-.43-.43-.996-.7-1.695l-.054-.135c-.054-.108-.08-.215-.134-.323v-.026c-.161-.378-.35-.727-.539-1.077a5.094 5.094 0 0 0-.591-.834c-.566-.645-1.292-1.05-2.18-1.21a11.734 11.734 0 0 0-1.614-.162c-.108 0-.242 0-.35-.027-.242-.026-.753-.054-1.265-.107-.35-.027-.672-.054-.94-.081.026-.081.026-.162.026-.242 0-.108 0-.215-.027-.297h3.551c.915 0 1.588-.403 1.965-1.21.915 0 1.56-.43 1.964-1.211h.134c.942 0 1.614-.43 2.019-1.291l.134-.243h-12c-.78 0-1.453.511-1.722 1.319v.027C9.255 1.213 8.906.73 8.421.433 7.75.03 6.995-.105 6.404.083a2.095 2.095 0 0 0-.565.243c-.135.107-.35.242-.484.43a3.16 3.16 0 0 0-.404.646.448.448 0 0 0-.161.162l-.136.27v.026c-.16.376-.376.645-.537.86-.161.189-.161.377-.161.485.026.134.08.242.16.323a.517.517 0 0 0-.08.269c0 .322.269.565.618.565.243 0 .458-.107.673-.27.08-.053.323-.215.404-.215.108 0 .188.081.188.189 0 .27-.323.404-.564.404l-.486.054c-.348.026-.51.215-.51.376s.08.27.134.323l.028.027.133.108-.565.86c-.376-.349-.806-.537-1.183-.565-.242 0-.457.054-.62.216a.448.448 0 0 0-.106.134c-.404 0-.727.215-.888.458-.189.268-.108.727.107 1.076l-1.345.376v6.242H24v-1.237h-4.359zm2.691 2.476v.215h.51v3.606h-.51v.187h1.641v-.187h-.538v-3.606h.538v-.215zm-11.031.187c1.022 0 1.425-.053 1.587 1.211h.107v-1.398h-4.09v.187h.109c.134 0 .484 0 .51.323v2.314l-1.91-2.824h-1.05v.187h.162c.216 0 .484 0 .512.323v2.96c0 .296-.43.404-.62.404v.134h1.427v-.134c-.188 0-.619-.108-.619-.404v-2.61c.754 1.077 2.18 3.148 2.207 3.148h.08v-3.498c.027-.295.35-.323.511-.323h.458v3.634h-.539v.187h2.906v-1.479h-.134c-.135 1.13-.43 1.292-1.238 1.292H11.3v-1.75h.215c.35 0 .565.215.645.834h.135v-1.83h-.135s-.026.781-.645.781h-.189v-1.669zm6.026 2.395.592-1.722.62 1.722zm-2.26-.7h-.646v-1.667h.834c.485.08.512.645.512.807 0 .43-.188.86-.7.86zm6.915.647c-.134 1.13-.43 1.292-1.237 1.292h-.054v-3.606h.511v-.189h-1.669v.189h.512v3.632h-.404l-1.48-3.928h-.215s-1.238 3.551-1.238 3.579c0 0-.08.294-.295.35-.189 0-.162-.082-.162-.135v-.7c0-.19-.027-.592-.188-.78-.215-.216-.565-.216-.565-.242 0 0 .915-.189.915-1.05 0-.618-.43-.915-1.13-.941h-1.991v.187h.51v3.634h-.51v.187h1.641v-.187h-.512v-1.75h.673c1.184.108-.215 1.937 1.345 1.937h.969v-.187c-.053 0-.403 0-.43-.244-.027-.187.242-.833.242-.833h1.345s.404 1.077.43 1.077h-.457v.187h3.632v-1.479zm-18.538-.62H1.857v.189h.538v1.292c-.082.323-.592.457-.727.457-1.023 0-.942-1.48-.942-1.883 0-.35-.027-1.884.942-1.884.7 0 1.05.672 1.184 1.291h.108v-1.452s-.485.35-.485.322c0 0-.215-.322-.834-.322C.457 15.286 0 16.47 0 17.304c0 .753.35 2.071 1.641 2.071.404 0 .672-.216.834-.43l.511.403v-1.91h.431v-.162zm1.157-.053v-1.641c1.023 0 1.399-.054 1.588 1.21h.107v-1.399H3.47v.189h.485v3.632h-.539v.189h2.906v-1.48H6.19c-.135 1.13-.43 1.291-1.238 1.291h-.377v-1.75h.216c.349 0 .565.217.645.835h.135v-1.83h-.135s-.027.78-.645.78H4.6z" mask="url(#a)" transform="translate(6 8)"/><path d="m8.637 18.577-1.56.404v.511l1.56-.404zm.51.511 1.562.404v-.51l-1.561-.405zm0-1.022 1.562.403v-.511l-1.561-.403zm-.51-.511-1.56.403v.511l1.56-.403zm0-1.023-1.56.404v.512l1.56-.405zm.51.511 1.562.405v-.512l-1.561-.404z"/></g></g></svg>