<svg width="36" height="36" fill="none" xmlns="http://www.w3.org/2000/svg"><path d="M18 0c2.837 0 5.52.656 7.907 1.825C31.884 4.753 36 10.895 36 18c0 9.942-8.058 18-18 18-9.94 0-18-8.057-18-18C0 8.06 8.06 0 18 0z" fill="#F2F4F7"/><path d="M14.705 20.959v2.794l7.126-2.794h-7.126z" fill="#BFC9D0"/><path d="M32 19.835v-2.794l-7.121 2.794H32zm-23.575-2.88h2.604v.605c0 .466-.922.99-2.241.99-2.074 0-3.158-1.255-3.158-2.488 0-1.516 1.337-2.57 3.25-2.57 1.302 0 1.907.53 2.304.882l.248.213 1.158-1.043-.225-.19C11.847 12.904 10.77 12 8.76 12 6.05 12 4 13.717 4 15.998c0 2.61 2.443 4.022 4.736 4.022 2.293 0 3.929-1.008 3.929-2.397v-2.149h-4.24v1.48zm11.229 1.429H16.34v-1.7h3.313c1.238 0 1.411.409 1.411.847 0 .363-.15.853-1.412.853zm-3.313-4.748h3.313c1.014 0 1.014.542 1.014.715 0 .702-.554.852-1.014.852H16.34v-1.567zm5.375 2.132c.386-.369.593-.882.588-1.417 0-1.516-1.325-2.196-2.656-2.196h-4.95v7.71h4.95c1.85 0 3.047-.917 3.047-2.334a2.14 2.14 0 0 0-.979-1.763zm4.834 3.053v-6.666h-1.688v7.323" fill="#1A2B48"/></svg>