<svg width="36" height="36" fill="none" xmlns="http://www.w3.org/2000/svg"><path d="M18 0c2.837 0 5.52.656 7.907 1.825C31.884 4.753 36 10.895 36 18c0 9.942-8.058 18-18 18-9.94 0-18-8.057-18-18C0 8.06 8.06 0 18 0z" fill="#F2F4F7"/><path d="M4 17.654c0 .309.062.679.54.679h1.166v-.828h-.914v.342h.562v.16h-.738c-.277 0-.236-.269-.236-.348 0-.196.036-.303.22-.303h1.106V17h-1.1c-.435 0-.606.257-.606.654zm2.037.679h1.486v-.326H6.409v-.16h1.114v-.323H6.409v-.14h1.114V17H6.037v1.333zm3.072-.351L8.36 17h-.506v1.333h.347v-.983l.748.983h.506V17H9.11v.982zm.721.351h1.486v-.326h-1.114v-.16h1.114v-.323h-1.114v-.14h1.114V17H9.831v1.333zm3.48-.858c0-.185-.004-.475-.446-.475h-1.216v1.333h.358v-.39h.555l.311.39h.463l-.333-.428c.243-.036.308-.21.308-.43zm-.548.142h-.757v-.25h.762c.102 0 .174.03.174.113 0 .082-.017.137-.179.137zM15.861 17h-.37v1.333h1.336v-.326h-.966V17zm-1.741 0-.749 1.333h.407l.147-.262h.871l.146.262h.407L14.601 17h-.482zm-.011.742.251-.449.252.449h-.503zM19.05 17h-1.1v1.333h1.167c.447 0 .539-.282.539-.68 0-.396-.17-.653-.605-.653zm-.01 1.007h-.738v-.651h.754c.206 0 .22.129.22.303 0 .16.004.348-.236.348zm3.82-.025L22.11 17h-.506v1.333h.347v-.983l.748.983h.506V17h-.347v.982zM24.116 17l-.749 1.333h.407l.147-.262h.871l.146.262h.407L24.597 17h-.482zm-.011.742.251-.449.252.449h-.503zm-3.545-.168L20.085 17h-.484l.765.872v.46h.38v-.46L21.51 17h-.484l-.466.574zm5.935.354-.44-.928h-.572v1.333h.346v-1.017l.507 1.017h.319l.506-1.017v1.017h.347V17h-.573l-.44.928zM27.909 17v1.333h.374L28.28 17h-.371zm.635.654c0 .397.091.679.54.679h1.05v-.324l-.974-.002c-.24 0-.236-.188-.236-.348 0-.174.014-.303.22-.303h.99V17h-.985c-.435 0-.605.257-.605.654zm3.063-.133h-.804c-.057 0-.122-.016-.122-.08 0-.063.065-.08.122-.08h1.153v-.325h-1.24c-.317 0-.394.163-.394.405 0 .243.077.406.393.406h.803c.058 0 .123.016.123.08s-.064.08-.122.08l-1.153.002v.324h1.24c.317 0 .394-.163.394-.406 0-.243-.077-.405-.393-.405z" fill-rule="evenodd" clip-rule="evenodd" fill="#231F20"/></svg>