<svg height="36" viewBox="0 0 36 36" width="36" xmlns="http://www.w3.org/2000/svg"><g fill="none" fill-rule="evenodd"><path d="M18 0c2.837 0 5.52.656 7.907 1.825C31.884 4.753 36 10.895 36 18c0 9.942-8.058 18-18 18-9.94 0-18-8.057-18-18C0 8.06 8.06 0 18 0z" fill="#f2f4f7" fill-rule="nonzero"/><path d="M17.999 32C25.732 32 32 25.732 32 18.001S25.732 4 17.999 4C10.268 4 4 10.27 4 18.001S10.268 32 17.999 32" fill="#fff"/><path d="M18.001 32C10.283 32 4 25.757 4 18.001 4 10.281 10.283 4 18.001 4 25.717 4 32 10.281 32 18.001 32 25.757 25.717 32 18.001 32m0-27.34c-7.368 0-13.34 5.97-13.34 13.34 0 7.369 5.972 13.34 13.34 13.34 7.367 0 13.339-5.971 13.339-13.34 0-7.33-5.972-13.34-13.339-13.34m11.862 17.332c-.005.013-.027.029-.071.014-.034-.012-.041-.027-.041-.05.001-.021.468-1.402.464-2.984-.004-1.71-.698-2.757-1.588-2.757-.544 0-.932.389-.932.972 0 1.047 1.279 1.125 1.279 3.413 0 .929-.193 1.821-.502 2.791-1.436 4.846-6.013 7.096-10.47 7.096-2.057 0-3.518-.423-3.952-.617-.017-.011-.034-.044-.02-.079.01-.025.04-.045.058-.037.176.067 1.43.463 2.982.463 1.706 0 2.715-.698 2.715-1.552a.96.96 0 0 0-.969-.97c-1.047 0-1.127 1.319-3.376 1.319-.969 0-1.822-.194-2.83-.505-4.81-1.474-7.1-6.01-7.098-10.508.002-2.192.616-3.938.626-3.954.009-.011.036-.024.07-.011.034.011.041.039.04.05-.056.182-.463 1.432-.463 2.984 0 1.708.697 2.715 1.59 2.715a.918.918 0 0 0 .929-.93c0-1.048-1.281-1.164-1.281-3.414 0-.97.196-1.823.505-2.831 1.474-4.809 6.013-7.063 10.473-7.097 2.072-.016 3.885.604 3.955.659.012.011.024.037.012.069-.016.037-.041.041-.052.039-.022-.002-1.201-.495-2.986-.495-1.668-.002-2.715.697-2.715 1.59 0 .503.389.93.969.93 1.047 0 1.125-1.279 3.376-1.279.966 0 1.82.191 2.828.503 4.849 1.473 7.055 6.049 7.097 10.471.023 2.266-.615 3.979-.622 3.992m-6.668-3.331c-1.318 0-2.325.97-2.325 2.133 0 .97.583 1.745 1.356 1.745.274 0 .545-.156.545-.503 0-.507-.669-.628-.619-1.382.034-.497.502-.83.968-.83.929 0 1.364.902 1.364 1.831-.038 1.437-1.095 2.434-2.334 2.434-1.629 0-2.676-1.55-2.676-3.218 0-2.484 1.63-3.453 2.483-3.684.008 0 2.23.395 2.161-.585-.032-.431-.673-.596-1.136-.614-.515-.02-1.035.165-1.035.165-.269-.137-.457-.405-.572-.714 1.589-1.203 2.714-2.365 2.714-3.684 0-.698-.466-1.318-1.358-1.318-1.59 0-2.793 2.016-2.793 3.839 0 .309 0 .62.08.891-1.009.736-1.759 1.195-3.115 2.01 0-.17.036-.609.15-1.175.464-.505 1.102-1.261 1.102-1.843 0-.271-.153-.505-.466-.505-.775 0-1.355 1.165-1.511 1.979-.349.429-1.047.971-1.63.971-.464 0-.621-.426-.66-.583 1.474-.504 3.297-2.521 3.297-4.343 0-.387-.155-1.241-1.318-1.241-1.745 0-3.217 2.599-3.217 4.613-.623 0-.854-.658-.854-1.163s.194-1.007.194-1.163-.078-.349-.312-.349c-.58 0-.929.776-.929 1.668.04 1.241.853 2.019 1.939 2.095.155.737.813 1.436 1.627 1.436.505 0 1.125-.156 1.552-.543-.038.271-.075.505-.116.737-1.707.893-2.948 1.513-4.073 2.521-.889.815-1.394 1.9-1.394 2.753 0 1.165.736 2.25 2.248 2.25 1.783 0 3.142-1.435 3.802-3.413.309-.93.433-2.284.512-3.527 1.782-1.01 2.628-1.591 3.559-2.252.116.194.233.349.387.464-.813.427-2.752 1.63-2.752 4.46 0 2.017 1.356 4.267 4.033 4.267 2.21 0 3.722-1.823 3.722-3.568 0-1.589-.892-3.062-2.6-3.062m-10.664 5.428c-.58.026-.968-.345-.968-.965 0-1.666 2.311-3.257 4.057-4.111-.31 2.325-1.096 4.986-3.089 5.076m1.281-9.154c0-1.28 1.263-3.712 2.034-3.455.912.304-.755 2.757-2.034 3.455m7.329-.58c0-1.592 1.077-3.136 1.665-2.845.671.336-.502 1.835-1.665 2.845" fill="#3b73b9"/></g></svg>