<svg width="36" height="36" fill="none" xmlns="http://www.w3.org/2000/svg"><path d="M18 0c2.837 0 5.52.656 7.907 1.825C31.884 4.753 36 10.895 36 18c0 9.942-8.058 18-18 18-9.94 0-18-8.057-18-18C0 8.06 8.06 0 18 0z" fill="#F2F4F7"/><path fill-rule="evenodd" clip-rule="evenodd" d="M12.398 19.69c-.611.158-1.087.158-1.449.158-.996 0-2.15-.498-2.15-1.901 0-1.404.996-1.947 2.354-1.947.249 0 .77.023 1.132.181v.815c-.295-.181-.77-.249-.996-.249-.815 0-1.472.34-1.472 1.222 0 .725.52 1.177 1.245 1.177.136 0 .272-.045.362-.068v-.747h-.588v-.724h1.54v2.083m.882-3.622h2.603v.702h-1.63v.77h1.54v.7h-1.54v.861h1.698v.702h-2.671v-3.735zm4.414 2.15h.294c.34 0 .747.045.747.43s-.385.43-.747.43h-.294v-.86zm-.974 1.585h1.585c.656 0 1.449-.181 1.449-1.087 0-.453-.25-.724-.77-.815v-.022c.407-.136.657-.408.657-.883 0-.634-.521-.95-1.223-.95h-1.698v3.757zm.974-3.034h.294c.34 0 .656.023.656.363 0 .317-.339.407-.656.407h-.294v-.77zm2.761-.701h2.626v.702h-1.63v.77h1.54v.7h-1.54v.861h1.698v.702h-2.694v-3.735zm4.437.702h.249c.385 0 .747.067.747.407 0 .43-.408.43-.747.43h-.25v-.837zm-1.019 3.033h.996V18.33h.204c.362 0 .498.181.679.815l.226.657h1.019l-.362-.996c-.181-.453-.204-.747-.52-.838.497-.113.724-.453.724-.95 0-.634-.521-.951-1.2-.951h-1.788v3.735h.022z" fill="#000"/><path d="M28.627 16.068h-.996v3.735h.996v-3.735z" fill="#000"/><path fill-rule="evenodd" clip-rule="evenodd" d="M30.099 16.792h-.928v-.724H32v.724h-.928v3.01h-.973v-3.01z" fill="#000"/><path d="M7.735 16.068H4v3.735h3.735v-3.735z" fill="#0072BA"/></svg>