<svg width="36" height="36" fill="none" xmlns="http://www.w3.org/2000/svg"><path d="M18 0c2.837 0 5.52.656 7.907 1.825C31.884 4.753 36 10.895 36 18c0 9.942-8.058 18-18 18-9.94 0-18-8.057-18-18C0 8.06 8.06 0 18 0z" fill="#F2F4F7"/><path d="M6.488 17.976c.479.015.906-.336.92-.84.009-.357-.129-.633-.446-.806a1.03 1.03 0 0 0-.719-.09c-.317.064-.558.237-.66.553-.105.32-.066.626.167.884.19.21.435.298.738.3zm.909.736c-.028-.006-.036.005-.045.015-.222.238-.5.372-.816.425-.546.092-1.07.023-1.55-.266-.566-.34-.886-.846-.966-1.502a2.146 2.146 0 0 1 .15-1.15c.286-.645.788-1.031 1.471-1.18.372-.08.746-.07 1.112.04.262.079.483.222.658.434.011.014.019.034.051.041 0-.102-.002-.203.001-.303.002-.061-.029-.138.016-.18.038-.036.113-.01.171-.011h1.165c.087 0 .09-.012.09.082-.001 1.188 0 2.376-.002 3.564 0 .324-.05.642-.158.949-.194.547-.566.923-1.098 1.145-.297.123-.61.181-.93.206-.479.036-.952 0-1.42-.104a3.015 3.015 0 0 1-.889-.341c-.014-.009-.028-.018-.042-.025-.042-.02-.048-.044-.025-.086.061-.112.118-.227.177-.341.105-.205.21-.41.316-.613l.032-.054c.206.143.428.237.664.303.317.09.639.121.966.09a1.3 1.3 0 0 0 .335-.078.8.8 0 0 0 .51-.561c.048-.163.051-.33.056-.499zm16.723-3.186.06-.049c.347-.314.76-.457 1.224-.469.249-.006.493.014.73.094.575.196.922.597 1.055 1.186.044.193.064.39.064.587v2.429c0 .127.01.109-.112.109h-1.353c-.027.001-.043-.01-.043-.04v-2.122c0-.128-.009-.256-.032-.382-.086-.465-.413-.62-.812-.562-.382.054-.623.303-.692.693a1.7 1.7 0 0 0-.024.295v1.994c0 .02-.002.04 0 .06.007.053-.019.065-.068.065h-1.382c-.05 0-.075-.013-.068-.066.002-.016 0-.033 0-.05v-4.106c0-.133-.014-.117.114-.117h1.265c.055-.009.065.02.064.068a5.842 5.842 0 0 0 0 .296c0 .025-.007.052.01.087z" fill="#132A42"/><path d="M10.925 16.825h1.742c-.04-.413-.394-.723-.843-.736a.84.84 0 0 0-.9.736zm.024.816a.836.836 0 0 0 .198.36c.156.168.352.26.576.295.295.047.584.033.861-.087a1.34 1.34 0 0 0 .333-.21c.034-.028.055-.03.088.005.237.251.477.5.716.75.047.05.046.052-.02.116-.235.229-.512.39-.825.486-.262.08-.531.117-.806.125a3.24 3.24 0 0 1-1.042-.123c-.565-.174-1.022-.491-1.323-1.01a2.131 2.131 0 0 1-.281-.996c-.027-.632.156-1.188.598-1.648.284-.296.63-.495 1.026-.6.585-.155 1.168-.144 1.731.089.72.297 1.14.84 1.28 1.605.046.258.038.517.017.776-.004.043-.02.059-.061.056-.023-.002-.046 0-.07 0h-2.882c-.035 0-.072-.006-.114.01zm19.126.008c-.099 0-.197-.002-.296 0a.868.868 0 0 0-.392.084.355.355 0 0 0-.186.219c-.07.236.049.456.293.533a.855.855 0 0 0 .41.021.714.714 0 0 0 .561-.431.242.242 0 0 0 .024-.105c-.002-.085-.004-.17 0-.256.004-.056-.02-.067-.069-.066-.115.002-.23 0-.345 0zm.404-.808a.62.62 0 0 0-.434-.604 1.352 1.352 0 0 0-.466-.068c-.33.002-.645.077-.94.23-.051.026-.101.057-.153.087-.043-.06-.066-.126-.096-.187-.13-.259-.257-.518-.385-.778-.03-.061-.03-.062.03-.096a3.18 3.18 0 0 1 .932-.335c.439-.092.88-.107 1.325-.056.28.032.549.103.8.231.452.23.723.599.839 1.087.047.2.068.402.069.606v2.37c-.001.084-.001.085-.087.085H30.68c-.088 0-.088 0-.088-.093v-.406c-.02-.014-.026-.004-.03.004-.166.27-.409.434-.713.505-.432.1-.863.09-1.28-.067-.364-.138-.644-.374-.774-.752-.123-.36-.117-.72.07-1.06.146-.266.382-.428.661-.533.224-.083.456-.123.693-.143.384-.034.77-.014 1.154-.02.036 0 .072.007.107-.007z" fill="#142B42"/><path d="m17.857 17.69.266.135.807.415c.1.051.1.052.053.15a1.76 1.76 0 0 1-.794.824c-.322.171-.668.25-1.031.266a2.97 2.97 0 0 1-1.042-.125c-.588-.188-1.05-.534-1.342-1.089a2.197 2.197 0 0 1-.24-1.125c.016-.426.136-.821.387-1.172.29-.406.681-.672 1.152-.821a2.888 2.888 0 0 1 1.766-.018c.48.15.86.434 1.102.884.02.038.038.077.055.116.03.07.03.07-.035.104l-.755.386c-.1.051-.2.1-.297.155-.042.023-.063.015-.084-.026-.052-.1-.12-.188-.197-.27-.412-.443-1.284-.33-1.501.35a1.25 1.25 0 0 0 .036.915c.151.337.424.51.792.526.36.017.625-.144.817-.44.028-.044.054-.09.085-.14z" fill="#132A42"/><path d="M21.697 16.844v1.727c0 .061.012.114.046.166.084.13.16.265.246.393.053.079.043.162.043.247 0 .023-.014.036-.037.037h-2.458c-.124 0-.122 0-.125-.123a.267.267 0 0 1 .047-.157c.087-.136.169-.274.255-.41a.217.217 0 0 0 .033-.122l-.001-2.161c0-.082-.002-.082-.082-.083h-.276c-.074-.002-.075-.003-.076-.08-.001-.056.002-.112-.001-.168-.003-.045.014-.071.055-.092.22-.11.439-.225.658-.338.406-.208.813-.417 1.219-.627a.34.34 0 0 1 .178-.044c.073.003.145.002.217 0 .041 0 .062.015.06.058-.002.023 0 .046 0 .07v1.707z" fill="#B4A789"/></svg>