<svg width="36" height="36" fill="none" xmlns="http://www.w3.org/2000/svg"><path d="M18 0c2.837 0 5.52.656 7.907 1.825C31.884 4.753 36 10.895 36 18c0 9.942-8.058 18-18 18-9.94 0-18-8.057-18-18C0 8.06 8.06 0 18 0z" fill="#F2F4F7"/><path d="m11.494 16.094-.005.214h-.03l-.127-.21h-.355l.261-1.2.184-.09-1.18-.164-.167.17.062.024s.474.453.735.342a.18.18 0 0 1 .092.073l-.139.103-.15.647a1.728 1.728 0 0 0-.628.294l-.078.234-.4-1.235.817-1.272h2.177l.818 1.272-.13.043-.31.958a1.732 1.732 0 0 0-.63-.294l-.13.095-.195-.845a.184.184 0 0 1 .093-.073c.26.11.735-.342.735-.342l.095-.031-.162-.162-1.18.163.257 1.179h-.264l-.066.107zm-1.18-2.949a.364.364 0 0 1 .305.192c.087.156.192.3.312.432l-.197-.082a.935.935 0 0 1-.56-.4l-.269-.15s.2.008.409.008zm1.897 3.179s.613.207.607.474l-.117.04c-.012.203-.236.406-.353.499l-.572-.365-.155.051v-.427l.568-.094.022-.178zm-.743.778.747.51-.178.054c-.124.146-.358.387-.55.387-.191 0-.425-.24-.55-.387l-.215-.053.746-.51zm.465 1.181-.091.238c.007.183.155.353.146.598a.551.551 0 0 1-.226.38l-.214.135c.276-.299-.39-.99.385-1.35zm.633-.639-.096.205c.005.431.21.521.218.969a.692.692 0 0 1-.251.52l-.271.168c.54-.56-.596-1.45.4-1.862zm.377-.487.025.267c.308.477.695.99.18 1.542l-.213.252c.427-1.066-.507-1.157.008-2.061zm.305-.712.019.316c.083.223.862.643.57 1.246l-.108.396c.09-.459-.67-1.098-.61-1.606a1.01 1.01 0 0 1 .13-.352h-.001zm.77-.83c.068.206.106.421.112.638l-.14-.287c-.075-.07-.19-.124-.23-.196a.837.837 0 0 1-.047-.269l-.136-.254c.166.097.315.221.44.367zm-.97-2.478-.24.15a.936.936 0 0 1-.558.4l-.229.081c.12-.131.226-.276.313-.431a.364.364 0 0 1 .305-.192c.208 0 .409-.008.409-.008zm-.79.008-.206.143c-.055.098-.214.348-.326.371l-.163.11c.117-.179-.018-.624.33-.624h.365zm1.942.452a1.41 1.41 0 0 1-.016.47l-.079-.243a.649.649 0 0 0-.321-.184c-.251-.04-.522.04-.903.158l-.148-.009c.25-.256.475-.767.85-.767.359 0 .592.172.617.575zm-1.352.46c.217.1.634-.156.906-.057a.553.553 0 0 1 .377.592l-.177-.228c-.124-.091-.716-.008-.87-.155l-.236-.153zm.378.512c.225.17.796.062.905.39.037.155.04.316.008.472l-.1-.249c-.049-.082-.485-.33-.527-.394l-.286-.22zm.215 1.27s.525.458.618.734c.077.207.102.43.072.648l-.102-.287c-.154-.22-.48-.38-.508-.61a1.008 1.008 0 0 1 .005-.213l-.085-.273zM8.88 13.823l-.108.243a1.365 1.365 0 0 1-.016-.47c.025-.403.26-.574.616-.574.376 0 .6.51.85.767l-.117.009c-.38-.118-.652-.2-.903-.158a.649.649 0 0 0-.322.184v-.001zm.065 1.358-.13.25a1.081 1.081 0 0 1 .008-.471c.11-.33.683-.22.906-.392l-.258.22c-.042.064-.477.312-.527.394h.001zm.05.785-.169.284c.004-.216.04-.43.11-.635.125-.146.274-.27.44-.367l-.105.254a.831.831 0 0 1-.047.269c-.041.072-.155.127-.23.196zm-.04.969-.132.286a1.32 1.32 0 0 1 .072-.647c.093-.276.618-.735.618-.735l-.055.273a1 1 0 0 1 .005.212c-.028.23-.354.39-.508.61zm.192 1.073.075.386.002.01a1.11 1.11 0 0 1-.28-.584c-.078-.677.674-.87.761-1.374l.012.316c-.038.521-.54.963-.57 1.245zm.688.958.183.253c-1.157-.678-.418-1.427-.008-2.062l.005.268c.159.663-.41.728-.18 1.54v.001zm.72.372.232.168c-.419-.097-.634-.317-.657-.687-.032-.538.23-.585.257-1.175l.134.205c.428.38-.182.924.033 1.49zm.666.16.184.136a.587.587 0 0 1-.545-.527c-.021-.293.183-.535.16-.823l.121.238c.32.222-.051.675.08.977zM9.03 14.366l-.206.227a.551.551 0 0 1 .376-.59c.272-.1.69.157.906.055l-.206.152c-.154.146-.745.064-.87.155v.001zm1.665-1.22h.365c.347 0 .212.445.33.623l-.132-.109c-.112-.023-.271-.274-.326-.37l-.237-.144zm-.069 4.192-.024.14s-.484-.318-.484-.68c-.005-.267.608-.474.608-.474l-.095.217.013.101.103-.14.569.094-.117.139v.237l-.573.366z" fill="#002659"/><path d="M10.012 14.912c.04.038.488.476.813.444l-.15.647a1.725 1.725 0 0 0-.628.294l-.31-.958.275-.427zm1.245-1.252c-.112-.023-.27-.274-.326-.371h.152c.175 0 .113.205.174.37m-1.359.551c-.153.145-.745.063-.87.154a.498.498 0 0 1 .25-.235c.162-.055.337.06.62.081m1.242 4.312c.321.223-.05.675.08.977a.55.55 0 0 1-.225-.38c-.009-.245.14-.415.146-.597m-.621-.672c.428.38-.181.923.034 1.489a.69.69 0 0 1-.251-.52c.008-.448.213-.538.217-.97zm-.686 1.116c-.515-.551-.127-1.064.18-1.54.159.663-.41.727-.18 1.54zm-.118-2.204c-.038.521-.54.963-.57 1.246-.291-.604.487-1.023.57-1.246zm-.258-.65a1 1 0 0 1 .004.212c-.028.23-.354.39-.508.61a1.3 1.3 0 0 1 .072-.292c.114-.2.26-.378.432-.53zm-.401-.41a.897.897 0 0 1 .214-.2.832.832 0 0 1-.047.269c-.04.072-.155.127-.23.195a1.5 1.5 0 0 1 .063-.264m.413-.914c-.042.064-.477.312-.526.394a.715.715 0 0 1 .015-.177c.04-.15.406-.179.511-.217m1.264-1.101a.936.936 0 0 1-.56-.4l.164.001a.174.174 0 0 1 .151.065c.014.02.179.254.245.334m-.632.112c-.38-.118-.652-.2-.903-.158a.649.649 0 0 0-.321.184c.005-.456.132-.628.454-.655.268-.022.535.387.77.629m1.74 4.723c-.32.223.052.675-.08.977a.553.553 0 0 0 .226-.38c.008-.245-.14-.415-.146-.597m.628-.672c-.428.38.181.923-.033 1.489a.69.69 0 0 0 .25-.52c-.008-.448-.213-.538-.217-.97zm.679 1.116c.514-.551.127-1.064-.181-1.54-.158.663.41.727.18 1.54zm.118-2.204c.037.521.54.963.569 1.246.292-.604-.487-1.023-.57-1.246zm.258-.65a1 1 0 0 0-.005.212c.028.23.354.39.508.61a1.312 1.312 0 0 0-.07-.292 2.137 2.137 0 0 0-.433-.53zm.401-.41a.893.893 0 0 0-.214-.2.855.855 0 0 0 .047.269c.041.072.155.127.23.195a1.515 1.515 0 0 0-.063-.264m-.414-.914c.042.064.477.312.527.394a.714.714 0 0 0-.015-.177c-.04-.15-.406-.179-.512-.217m-.428-.578c.153.145.745.063.87.154a.497.497 0 0 0-.25-.235c-.162-.055-.337.06-.62.081m-.834-.523c.23-.058.43-.2.558-.4l-.163.001a.176.176 0 0 0-.152.065c-.014.02-.177.254-.244.334m-.524-.027c.112-.023.271-.274.326-.371H11.9c-.174 0-.112.205-.173.37m1.153.14c.38-.118.652-.2.903-.158a.65.65 0 0 1 .321.184c-.005-.456-.132-.628-.454-.655-.268-.022-.535.387-.77.629m-.179 3.021c-.012.22-.236.424-.353.517l-.572-.364v-.238l.555-.092.012-.102c.154.07.36.184.358.28zm-.664.847c-.125.146-.359.386-.55.386-.191 0-.425-.24-.55-.386l.55-.376.55.376zm-1.394-1.024.555.092v.238l-.572.364c-.12-.095-.353-.308-.353-.517-.002-.095.204-.208.358-.279l.012.102z" fill="#B4975A"/><path d="m11.483 16.086-.065-.108h-.263l.257-1.178-1.18-.164-.167.171.405-.63h2.028l.4.622-.162-.162-1.18.163.256 1.178h-.263l-.066.108z" fill="#B4975A"/><path d="m12.949 14.882.287.448-.31.958a1.724 1.724 0 0 0-.63-.294l-.149-.649c.32.01.76-.425.802-.464" fill="#B4975A"/><path d="M30 22.952H6.002v.177H30v-.177z" fill="#002659"/><path d="M6 22.953h10.145V25.6H6v-2.647zm4.22.894c-.378 0-.807.187-.807.62 0 .435.429.622.806.622.378 0 .807-.187.807-.621s-.429-.62-.806-.62zm1.617 1.143c0 .038-.036.046-.08.05v.032h1.314c.024 0 .054.011.054.069h.036v-.418h-.036c0 .058-.03.069-.054.069h-.828v-.846c0-.038.036-.047.078-.05v-.032h-.565v.032c.046.003.081.012.081.05v1.044zm2.127 0c0 .038-.036.046-.079.05v.032h.907c.447 0 .629-.28.629-.604 0-.324-.182-.605-.629-.605h-.906v.033c.042.002.078.011.078.05v1.044zm-5.749-.301c-.154.04-.313.06-.473.058-.295 0-.65-.144-.65-.477 0-.332.294-.489.616-.489.281 0 .616.09.616.148a.075.075 0 0 1-.006.034l.04.021.22-.405-.04-.013a.063.063 0 0 1-.048.025c-.027 0-.135-.052-.247-.08a1.827 1.827 0 0 0-.551-.074c-.565 0-1.1.27-1.1.827 0 .557.535.827 1.1.827.376.01.75-.07 1.09-.23v-.037h-.017c-.034 0-.04-.025-.04-.053v-.51c0-.034.013-.049.054-.052v-.037H7.78c-.037 0-.047-.015-.05-.055h-.041v.43h.04c.004-.037.014-.061.051-.061h.437l-.002.203zM6.007 16.43a5.214 5.214 0 0 1 3.372-4.878 4.983 4.983 0 1 0 7.024 5.435 5.213 5.213 0 0 1-10.396-.557" fill="#002659"/><path d="M6.449 16.058a5.058 5.058 0 1 1 10.116 0 5.058 5.058 0 0 1-10.116 0zm.174 0a4.883 4.883 0 1 0 9.767 0 4.883 4.883 0 0 0-9.767 0z" fill="#B4975A"/><path d="M8.823 14.586c.315-.297 1.138.07 1.283-.535l-.207.153c-.154.146-.745.063-.87.154l-.206.228zm-.053-.524a.86.86 0 0 1 .46-.317c.29-.049.842.16.846.16l.145-.122-.118.01c-.38-.118-.652-.2-.903-.159a.648.648 0 0 0-.321.184l-.11.244zm.7.718c-.042.064-.477.312-.526.395l-.13.249c.26-.32.841-.54.914-.864l-.258.22zm-.647 1.465c.125-.205.457-.336.497-.488.03-.171.05-.345.056-.519l-.106.255a.827.827 0 0 1-.047.268c-.04.072-.155.127-.23.196l-.17.288zm0 .965c.337-.487.7-.507.73-.92a1.877 1.877 0 0 0-.04-.463l-.055.273a1 1 0 0 1 .004.212c-.028.23-.354.391-.508.61l-.131.288zm.401 1.18c-.09-.459.67-1.097.609-1.606a1.012 1.012 0 0 0-.128-.351l.011.315c-.038.522-.54.964-.57 1.246l.078.397zm.794.814c-.427-1.066.507-1.158-.009-2.062l.006.268c.158.663-.411.728-.18 1.54l.182.254zm.769.286c-.54-.56.596-1.45-.4-1.862l.133.204c.428.38-.181.925.034 1.49l.233.168zm.353-.985c.32.222-.05.675.08.976l.185.136c-.276-.299.389-.99-.385-1.35l.12.238zm-1.235-5.367c.218.26.401.697 1.027.632l-.198-.083a.937.937 0 0 1-.56-.4l-.269-.149zm.79.008c.216.326.357.687.693.623l-.13-.109c-.113-.023-.272-.274-.327-.371l-.236-.143zm1.238 5.121c-.023.288.181.53.16.823a.589.589 0 0 1-.545.527l.214-.136a.553.553 0 0 0 .226-.38c.008-.244-.14-.414-.146-.596l.09-.238zm.504 1.055a.691.691 0 0 0 .25-.52c-.008-.448-.213-.537-.217-.97l.096-.204c.027.59.29.637.257 1.175-.023.37-.239.59-.658.687l.272-.168zm.711-.372c.515-.55.127-1.063-.18-1.54l-.025-.267c.41.635 1.149 1.383-.008 2.061l.213-.253z" fill="#CEBA90"/><path d="M13.836 17.994c.292-.603-.487-1.023-.57-1.246l-.018-.315c.087.504.839.697.762 1.374a1.107 1.107 0 0 1-.28.584l.106-.397zm-.324-3.214c.042.064.477.312.527.395l.099.249c-.26-.32-.841-.54-.915-.864l.29.22zm.618-.194c-.315-.297-1.139.07-1.283-.535l.236.153c.154.146.745.063.87.154l.177.228zm.053-.524a.86.86 0 0 0-.461-.317c-.29-.049-.842.16-.846.16l-.145-.122.149.01c.38-.118.652-.2.903-.159a.649.649 0 0 1 .32.184l.08.244zm-1.136-.924c-.217.26-.401.697-1.026.632l.228-.083c.23-.057.43-.2.559-.4l.24-.149zm-.789.008c-.217.326-.357.687-.694.623l.162-.109c.112-.023.271-.274.326-.371l.206-.143zm1.872 3.099c-.126-.205-.458-.336-.498-.488a3.689 3.689 0 0 1-.056-.519l.136.255c0 .091.016.182.047.268.04.072.154.127.23.196l.14.288zm0 .965c-.338-.487-.7-.507-.73-.92a1.884 1.884 0 0 1 .04-.463l.085.273a1 1 0 0 0-.005.212c.029.23.355.391.508.61l.102.288zm-3.41.39s.395.55.748.55.747-.55.747-.55l-.178.052c-.124.146-.358.387-.55.387-.191 0-.425-.24-.55-.387l-.216-.053zm.468-.877v.237l-.573.364-.024.141.714-.454v-.427l-.117.139zm-.558-.193.013.101.104-.14-.022-.179-.094.218zm-.636-.266c.188-.14.402-.24.629-.294l.15-.647.139-.103-.195.846c-.246.025-.684.234-.8.433l.077-.235zm2.264-.294c.228.055.442.155.629.295l.31-.958.13-.043-.4 1.235c-.117-.199-.554-.408-.8-.433l.131-.095zm-1.072-1.104-1.035-.143c0 .005-.067.083-.067.083l-.062-.023.166-.171 1.18.163-.182.09zm.251 1.41.127-.21h.355l-.261-1.2 1.034-.143c0 .005.067.083.067.083l.096-.031-.162-.162-1.18.163.257 1.179h-.264l-.064.108-.005.213zm.131.715.713.455s.484-.318.484-.68l-.117.038c-.012.204-.237.407-.353.5l-.573-.364-.154.051z" fill="#CEBA90"/><path d="M10.167 24.138c.229 0 .413.127.413.33s-.184.33-.413.33c-.23 0-.414-.127-.414-.33s.184-.33.414-.33zm4.149-.011h.218c.308 0 .44.093.44.34 0 .248-.132.341-.44.341h-.218v-.681zm5.817-.264v.033c.06.002.097.01.097.05v1.043c0 .038-.036.047-.097.05v.032h.598v-.032c-.06-.003-.097-.012-.097-.05v-1.043c0-.038.036-.047.097-.05v-.032h-.598zm1.918.967v-.272h.568c.024 0 .054.011.054.064h.036v-.357h-.036c0 .052-.03.063-.054.063h-.568v-.222h.883c.024 0 .054.01.054.066h.036v-.368h-.036c0 .048-.03.06-.054.06H21.56v.033c.042.002.085.01.085.05v1.042c0 .038-.043.047-.085.05v.032h1.348c.049 0 .063.009.085.058h.03v-.367h-.036a.078.078 0 0 1-.078.069h-.859zm1.876.16c0 .038-.036.047-.08.05v.032h1.313c.024 0 .054.01.054.069h.037v-.418h-.037c0 .058-.03.069-.054.069h-.827v-.846c0-.038.036-.047.078-.05v-.032h-.565v.033c.046.002.081.01.081.05v1.043zm2.532-.863h.217c.309 0 .442.093.442.34 0 .248-.133.341-.442.341h-.217v-.68zm-.405.863c0 .038-.037.046-.08.05v.032h.907c.448 0 .629-.28.629-.605 0-.324-.181-.604-.629-.604h-.906v.032c.042.003.078.011.078.05v1.044zm2.142.03.033.008a.11.11 0 0 1 .07-.038c.213.054.432.087.652.099.462 0 .665-.187.665-.401 0-.478-.988-.278-.988-.473 0-.12.27-.12.345-.12a.751.751 0 0 1 .417.1c0 .012-.003.023-.003.031l.039.016.181-.346-.032-.01a.105.105 0 0 1-.067.032 4.34 4.34 0 0 0-.601-.072c-.493 0-.671.24-.671.41 0 .461.988.252.988.466 0 .108-.2.119-.276.119-.244 0-.592-.072-.592-.143 0-.014.003-.022.003-.03l-.039-.017-.124.369zm-8.82-1.65h-.041c-.01.071-.024.087-.06.087h-1.733v.037c.084.006.094.027.094.055v1.434c0 .027-.01.049-.094.055v.037h.71v-.037c-.084-.006-.094-.028-.094-.055v-.514h.751c.037 0 .05.015.06.083h.041v-.517h-.04c-.01.055-.023.07-.06.07h-.752v-.273h1.117c.037 0 .05.015.06.074h.041v-.535z" fill="#002659"/></svg>