<svg width="36" height="36" fill="none" xmlns="http://www.w3.org/2000/svg"><path d="M18 0c2.837 0 5.52.656 7.907 1.825C31.884 4.753 36 10.895 36 18c0 9.942-8.058 18-18 18-9.94 0-18-8.057-18-18C0 8.06 8.06 0 18 0z" fill="#F2F4F7"/><path d="M6.042 17.589c0-.864.704-1.565 1.572-1.565.868 0 1.57.7 1.57 1.565 0 .864-.702 1.564-1.57 1.564-.868 0-1.572-.7-1.572-1.564zm-.235.008c0 1.02.7 1.701 1.609 1.799h-2.94A3.615 3.615 0 0 1 4 17.597h1.807zm.006-.22v-2.9a3.608 3.608 0 0 1 1.8-.477l.001 1.798c-.93 0-1.696.682-1.801 1.58zm2.009-1.582h2.918c.308.528.485 1.147.486 1.801H9.42a1.81 1.81 0 0 0-1.598-1.801zm1.595 1.982v2.937a3.607 3.607 0 0 1-1.804.48l-.001-1.8c.94 0 1.71-.708 1.806-1.616m2.712.228h.676v-2.2h-.676v2.2zm3.397-2.201v1.65l-1.323-1.65h-1.066v2.201h.634v-1.653l1.323 1.653h1.065v-2.2h-.633zm3.103 2.2c.52 0 .735-.159.735-.63 0-.39-.182-.446-.475-.489.27-.069.389-.155.389-.511 0-.406-.218-.568-.683-.568H16.52v2.197h2.11zm-1.446-1.716h1.227c.125 0 .195.062.195.184 0 .169-.1.199-.274.199h-1.148v-.383zm0 .818h1.22c.199 0 .288.036.288.188 0 .195-.12.215-.297.215h-1.211v-.403zm4.636-.149c0 .195 0 .323-.073.413-.099.119-.283.105-.636.105-.706 0-.772.02-.772-.528v-1.155h-.677v1.353c0 .9.469.871 1.564.871.347 0 .617-.003.806-.066.33-.109.464-.346.464-.772v-1.385h-.676v1.164zm2.794.48c.234 0 .29.086.29.278v.29h.677v-.396c0-.402-.199-.4-.45-.449.3-.088.476-.128.476-.66 0-.507-.192-.696-.735-.696h-2.046v2.201h.676v-.568h1.112zm-1.112-1.098h1.056c.29 0 .376.023.376.26 0 .248-.027.307-.34.307-.033 0-.053-.003-.086-.003h-1.006v-.564zm4.981.14c-.003-.257-.013-.425-.207-.568-.178-.128-.462-.128-.967-.128-.472 0-.796.023-.934.04-.423.049-.56.234-.56.67 0 .725.375.646 1.672.656.25.003.42 0 .42.197 0 .199-.13.202-.75.202-.234 0-.4-.007-.455-.01-.234-.02-.205-.135-.208-.234h-.663c.003.264-.027.445.184.597.149.105.48.125.993.125.525 0 .875-.023.994-.036.402-.046.577-.207.577-.666 0-.65-.33-.677-1.062-.677-.09 0-.191.004-.284.004-.155 0-.337-.007-.531-.01-.139-.003-.225-.06-.225-.168 0-.245.195-.182.763-.211.033-.004.052-.004.086-.004.392 0 .491.017.5.221h.657zm2.777 1.526H32l-1.2-2.2h-.905l-1.228 2.2h.746l.218-.4h1.422l.208.4zm-1.395-.854.476-.872.468.872h-.944z" fill="#041E41"/></svg>