<svg width="36" height="36" fill="none" xmlns="http://www.w3.org/2000/svg"><path d="M18 0c2.837 0 5.52.656 7.907 1.825C31.884 4.753 36 10.895 36 18c0 9.942-8.058 18-18 18-9.94 0-18-8.057-18-18C0 8.06 8.06 0 18 0z" fill="#F2F4F7"/><path d="M6.208 15.019c-.173.011-.327.03-.46.057a2.05 2.05 0 0 0-.708.268c-.69.404-1.04 1.21-1.04 2.398 0 .49.057.908.17 1.244a2.069 2.069 0 0 0 .922 1.141c.127.074.271.134.428.177.158.044.337.076.532.094.196.018.426.028.687.028h2.084V17.25H6.117v.938h1.657v1.297h-.925c-.222 0-.412-.009-.565-.027a1.647 1.647 0 0 1-.393-.09.863.863 0 0 1-.273-.16 1.289 1.289 0 0 1-.223-.267 1.675 1.675 0 0 1-.232-.553 2.8 2.8 0 0 1-.05-.357l-.004-.06c-.006-.09-.01-.134-.01-.22-.011-.812.205-1.357.64-1.617.066-.04.13-.072.19-.096.058-.024.127-.044.205-.058a1.98 1.98 0 0 1 .286-.03 8.99 8.99 0 0 1 .435-.008h1.968v-.94H6.779c-.207 0-.4.006-.571.016zm3.341 5.407h1.049v-5.423h-1.05v5.423zm2.821-1.261a.827.827 0 0 1-.175-.378 3.592 3.592 0 0 1-.055-.734v-3.042h-1.05v3.24c0 .203.01.386.026.544.016.162.042.309.075.435.035.13.083.249.144.354a1.65 1.65 0 0 0 .925.717c.266.082.615.124 1.036.124h1.414v-.94h-1.244c-.528 0-.898-.108-1.096-.32zm7.671-1.502c0-.454-.056-.848-.166-1.173a2.28 2.28 0 0 0-.902-1.171 1.667 1.667 0 0 0-.43-.191 2.94 2.94 0 0 0-.554-.097 8.147 8.147 0 0 0-.735-.028h-2.157v5.422h2.238c.224 0 .417-.004.57-.012.159-.008.3-.023.422-.044.126-.023.24-.053.338-.09.101-.039.204-.088.303-.148.356-.203.627-.517.806-.935.177-.41.267-.927.267-1.533zm-1.099.118c0 .275-.023.527-.072.749a1.534 1.534 0 0 1-.228.546.974.974 0 0 1-.452.384c-.194.082-.452.123-.765.123h-1.279v-3.738h1.222c.314 0 .567.033.75.098a.947.947 0 0 1 .434.307c.12.16.217.371.287.632.069.265.104.567.104.899zm3.49-2.778a.604.604 0 0 0-.348.121c-.173.126-.276.357-.305.448l-2.068 4.854h1.106l.433-1.037c.053-.129.128-.26.156-.285a.266.266 0 0 1 .168-.049c.025 0 .047.002.064.004h2.189l.431 1.074a.665.665 0 0 0 .135.21c.067.06.17.087.332.087l.057-.001.698-.005-2.213-5.42h-.835zm1.047 3.213h-1.753l.726-1.742.065-.163.102-.25.86 2.155zm6.128.596-2.262-3.27-.008-.008a5.775 5.775 0 0 0-.388-.414c-.057-.05-.168-.114-.472-.114-.05 0-.083 0-.105.003L25.825 15v5.425h1.01v-3.794l2.241 3.207c.078.126.274.424.426.504.152.08.351.083.39.083h.723v-5.422h-1.008v3.81zm2.122-3.402c0-.114-.07-.162-.206-.162h-.215v.565h.092v-.241h.088l.145.241h.106l-.16-.248c.086-.01.15-.053.15-.154zm-.329.082v-.164h.112c.057 0 .125.008.125.076 0 .08-.063.088-.134.088H31.4z" fill="#1E4897"/><path d="M31.501 15.011a.495.495 0 0 0-.501.51c0 .29.208.51.501.51a.493.493 0 0 0 .499-.51.494.494 0 0 0-.499-.51zm0 .932c-.241 0-.393-.19-.393-.421 0-.248.172-.421.393-.421.218 0 .392.173.392.42 0 .25-.174.422-.392.422z" fill="#1E4897"/></svg>