<svg height="36" viewBox="0 0 36 36" width="36" xmlns="http://www.w3.org/2000/svg"><mask id="a" fill="#fff"><path d="M0 0h11.017v14.743H0z" fill-rule="evenodd"/></mask><mask id="b" fill="#fff"><path d="M0 16.307h28V0H0z" fill-rule="evenodd"/></mask><g fill="none" fill-rule="evenodd"><path d="M18 0c2.837 0 5.52.656 7.907 1.825C31.884 4.753 36 10.895 36 18c0 9.942-8.058 18-18 18-9.94 0-18-8.057-18-18C0 8.06 8.06 0 18 0z" fill="#f2f4f7" fill-rule="nonzero"/><path d="M6.816 6.235c-.15.415-.313.826-.458 1.243.46.216.936.44 1.297.809-.226.578-.453 1.156-.689 1.73a3.691 3.691 0 0 0-1.242-.835c-.255.675-.504 1.352-.754 2.029-.654.001-1.308 0-1.962 0 .292-.782.582-1.565.873-2.348a1.9 1.9 0 0 0-1.634.851c-.147.229-.237.504-.2.777.036.578.334 1.121.78 1.485.608.504 1.406.709 2.178.767.64.044 1.293.006 1.904-.2a2.932 2.932 0 0 0 1.415-.965c.468-.592.651-1.373.598-2.117-.052-.57-.189-1.128-.294-1.69-.12-.634-.22-1.275-.22-1.921a6.276 6.276 0 0 1-1.592.385M4.73 2.333c-.152.337-.169.74-.004 1.076.177.371.46.715.841.884.077-.177.141-.36.211-.54.107-.287.24-.57.274-.877.037-.256-.002-.537-.169-.742a.689.689 0 0 0-.732-.202.726.726 0 0 0-.42.401M5.23 0h.455c.453.038.906.164 1.285.422.454.299.778.779.913 1.305.17.654.1 1.359-.14 1.987-.078.222-.158.443-.238.664.368-.096.727-.265.99-.547.283-.289.427-.68.52-1.068.667-.003 1.335-.001 2.002-.002-.345.917-.599 1.886-.582 2.873.006 1.139.422 2.22.535 3.346.084.762.06 1.546-.158 2.284a4.451 4.451 0 0 1-1.066 1.85 4.969 4.969 0 0 1-1.8 1.182c-.864.337-1.8.465-2.723.446-1.1-.023-2.217-.274-3.162-.854-.817-.495-1.49-1.248-1.827-2.15a3.644 3.644 0 0 1 .093-2.796A3.286 3.286 0 0 1 1.88 7.389c.828-.399 1.774-.5 2.681-.406.127-.33.251-.66.38-.988-.763-.327-1.457-.868-1.857-1.609-.612-1.113-.474-2.618.404-3.552A2.633 2.633 0 0 1 5.23 0" fill="#1e3e83" mask="url(#a)" transform="translate(4 11.563)"/><path d="M14.018 13.598c1.008-.767 1.52-1.195 1.846-1.76.46-.799.181-1.474-.4-1.739a1.098 1.098 0 0 0-1.447.52 1.098 1.098 0 0 0-1.445-.52c-.582.265-.86.94-.401 1.738.326.566.838.994 1.847 1.761" fill="#dc1218"/><g fill="#1e3e83"><path d="M16.763 22.235h.327l.36.582.363-.582h.326v1.376h-.3v-.898l-.388.587h-.008l-.383-.582v.893h-.297zm2.269 1.004v-.053a.457.457 0 0 0-.191-.04c-.127 0-.206.052-.206.146v.004c0 .08.066.128.163.128.14 0 .234-.077.234-.185m-.687.069v-.004c0-.23.176-.336.425-.336.106 0 .183.018.258.043v-.018c0-.123-.077-.192-.226-.192a.762.762 0 0 0-.291.057l-.075-.228a.931.931 0 0 1 .409-.085c.163 0 .28.043.356.118.079.079.114.195.114.336v.612h-.29v-.114a.408.408 0 0 1-.318.134c-.198 0-.362-.115-.362-.323m1.197-1.133h.3v.765l.35-.384h.357l-.402.415.416.64h-.347l-.269-.434-.106.113v.32h-.299z"/><path d="M16.691 13.611h.299v-1.054h-.299zm-.008-1.171h.314v-.265h-.314zm.558.117h.3v.149c.068-.088.156-.17.307-.17.226 0 .358.15.358.393v.682h-.298v-.588c0-.141-.067-.214-.18-.214s-.188.073-.188.214v.588h-.299zm1.96.476v-.004c0-.143-.112-.244-.257-.244-.146 0-.256.1-.256.244v.004c0 .145.11.244.256.244.145 0 .257-.101.257-.244m-.759.786.103-.224a.686.686 0 0 0 .356.096c.204 0 .3-.098.3-.286v-.052a.412.412 0 0 1-.344.17c-.245 0-.468-.178-.468-.49v-.004c0-.314.227-.492.468-.492.163 0 .26.069.34.158v-.138h.3v.816c0 .189-.046.327-.135.415-.098.098-.249.14-.454.14a.998.998 0 0 1-.466-.11m1.884-1.583h1.048v.275h-.746v.293h.657v.274h-.657v.534h-.302zm1.994.855v-.005c0-.155-.113-.29-.278-.29-.17 0-.273.131-.273.286v.005c0 .154.112.29.277.29.171 0 .273-.131.273-.286m-.845 0v-.005c0-.303.243-.548.572-.548.326 0 .568.241.568.544v.005a.553.553 0 0 1-.572.548.547.547 0 0 1-.568-.545m2.121.001v-.005c0-.155-.112-.29-.277-.29-.17 0-.273.131-.273.286v.005c0 .154.112.29.277.29.171 0 .273-.131.273-.286m-.845 0v-.005c0-.303.243-.548.572-.548.326 0 .568.241.568.544v.005a.553.553 0 0 1-.572.548.547.547 0 0 1-.568-.545m2.092-.003v-.004c0-.175-.116-.291-.256-.291s-.257.114-.257.29v.005c0 .175.118.29.257.29.14 0 .256-.115.256-.29m-.812 0v-.004c0-.352.23-.544.48-.544.159 0 .257.072.328.157v-.52h.299v1.436h-.3v-.151a.388.388 0 0 1-.327.17c-.246 0-.48-.192-.48-.544m-10.725 2.077c.152 0 .24-.09.24-.208v-.004c0-.136-.094-.208-.246-.208h-.234v.42zm-.542-.694h.562c.328 0 .527.195.527.476v.004c0 .318-.248.484-.557.484h-.23v.413h-.302zm1.934.767c-.018-.134-.096-.225-.222-.225-.124 0-.205.09-.228.225zm-.743.088v-.003c0-.301.214-.55.521-.55.352 0 .513.275.513.573 0 .024-.002.05-.004.079h-.733c.03.136.124.207.258.207.1 0 .172-.032.255-.11l.171.153a.526.526 0 0 1-.43.196.527.527 0 0 1-.55-.544zm2.021 0v-.004c0-.155-.112-.29-.277-.29-.171 0-.273.131-.273.286v.004c0 .155.112.291.277.291.171 0 .273-.132.273-.287m-.845 0v-.004c0-.303.243-.549.572-.549.326 0 .568.242.568.545v.004a.553.553 0 0 1-.572.548c-.327 0-.568-.242-.568-.544m2.135-.004v-.004c0-.175-.118-.29-.258-.29-.139 0-.255.115-.255.29v.004c0 .175.116.291.255.291.14 0 .258-.114.258-.29zm-.808-.529h.299v.152a.385.385 0 0 1 .328-.172c.245 0 .479.193.479.545v.004c0 .352-.23.544-.479.544a.403.403 0 0 1-.328-.157v.452h-.299zm1.311 1.054h.299V14.41h-.299zm1.242-.609c-.017-.134-.096-.225-.221-.225-.124 0-.205.09-.228.225zm-.742.088v-.003c0-.301.214-.55.52-.55.353 0 .514.275.514.573 0 .024-.002.05-.004.079h-.733c.029.136.123.207.257.207a.345.345 0 0 0 .256-.11l.17.153a.526.526 0 0 1-.43.196.527.527 0 0 1-.55-.544zm1.818-.855h.303v1.1h.686v.276h-.99zm1.931.855v-.004c0-.155-.112-.29-.277-.29-.171 0-.273.131-.273.286v.004c0 .155.112.291.277.291.17 0 .273-.132.273-.287m-.845 0v-.004c0-.303.243-.549.572-.549.326 0 .568.242.568.545v.004a.553.553 0 0 1-.572.548c-.327 0-.568-.242-.568-.544m1.173-.532h.316l.236.706.238-.706h.311l-.415 1.062h-.27zm1.878.444c-.018-.134-.097-.225-.222-.225s-.206.09-.229.225zm-.743.088v-.003c0-.301.214-.55.52-.55.353 0 .514.275.514.573 0 .024-.002.05-.004.079h-.733c.029.136.123.207.257.207a.345.345 0 0 0 .256-.11l.17.153a.528.528 0 0 1-.43.196.527.527 0 0 1-.55-.544zM12.7 5.779V5.77a1.45 1.45 0 0 1 1.48-1.461c.509 0 .816.137 1.11.387l-.391.473c-.218-.182-.411-.287-.738-.287-.452 0-.812.399-.812.88v.008c0 .516.356.896.856.896a.99.99 0 0 0 .585-.17v-.404h-.625v-.536h1.226v1.225c-.29.246-.69.448-1.206.448-.88 0-1.485-.617-1.485-1.452m4.644.154c-.036-.274-.197-.459-.456-.459-.254 0-.42.181-.468.46zm-1.525.182v-.008c0-.618.44-1.126 1.069-1.126.723 0 1.054.561 1.054 1.174 0 .05-.005.105-.01.161h-1.504c.06.28.254.424.529.424.206 0 .355-.064.524-.222l.35.311c-.2.25-.491.404-.882.404-.65 0-1.13-.456-1.13-1.118zm2.578-1.093h.613v.307c.14-.182.323-.347.634-.347.464 0 .734.306.734.803v1.4h-.613V5.976c0-.29-.137-.44-.371-.44s-.384.15-.384.44v1.207h-.613zm3.933.911c-.035-.274-.197-.459-.455-.459-.254 0-.42.181-.468.46zm-1.524.182v-.008c0-.618.44-1.126 1.069-1.126.722 0 1.053.561 1.053 1.174 0 .05-.004.105-.008.161h-1.505c.06.28.254.424.529.424.205 0 .355-.064.524-.222l.35.311c-.201.25-.491.404-.883.404-.65 0-1.13-.456-1.13-1.118zm2.578-1.093h.613v.436c.125-.3.327-.493.69-.476v.64h-.032c-.408 0-.658.247-.658.764v.799h-.613zm2.865 1.4v-.11a.959.959 0 0 0-.392-.08c-.262 0-.423.106-.423.299v.008c0 .166.137.262.335.262.286 0 .48-.157.48-.38m-1.408.143v-.01c0-.471.359-.69.87-.69.219 0 .376.038.53.09v-.036c0-.254-.158-.395-.464-.395a1.6 1.6 0 0 0-.597.116l-.154-.467a1.91 1.91 0 0 1 .84-.174c.334 0 .576.089.73.242.16.16.234.399.234.69v1.255h-.593v-.234a.834.834 0 0 1-.654.274c-.407 0-.742-.234-.742-.661m2.546.62H28V4.237h-.613zm-14.562 1.07h.67l.743 1.194.742-1.194h.67v2.825h-.617V9.232l-.795 1.207h-.017l-.787-1.194v1.832h-.61zm3.465 2.824h.613V8.913h-.613zm-.015-2.401h.646v-.544h-.646zm1.234 2.401h.613V8.131h-.613zm1.219 0h.613V8.131h-.613zm1.02-.286.262-.403c.234.169.48.258.682.258.178 0 .26-.065.26-.162v-.008c0-.133-.21-.177-.45-.25-.302-.09-.645-.23-.645-.65v-.008c0-.44.355-.686.791-.686a1.5 1.5 0 0 1 .807.25l-.234.424c-.214-.125-.428-.202-.585-.202-.149 0-.226.065-.226.15v.008c0 .12.206.177.44.258.302.1.653.246.653.642v.008c0 .48-.359.698-.827.698-.303 0-.64-.101-.928-.327" mask="url(#b)" transform="translate(4 10)"/></g></g></svg>