<svg width="36" height="36" fill="none" xmlns="http://www.w3.org/2000/svg"><path d="M18 0c2.837 0 5.52.656 7.907 1.825C31.884 4.753 36 10.895 36 18c0 9.942-8.058 18-18 18-9.94 0-18-8.057-18-18C0 8.06 8.06 0 18 0z" fill="#F2F4F7"/><path d="M8.772 18.043v.188c0 1.254-.82 2.371-2.302 2.371-1.472 0-2.47-1.195-2.47-2.559 0-1.423 1.037-2.549 2.48-2.549.77 0 1.521.326 2.015.958l-.434.415a1.99 1.99 0 0 0-1.571-.81c-1.107 0-1.838.87-1.838 1.966 0 1.058.682 2.006 1.858 2.006.948 0 1.55-.701 1.59-1.462H6.747v-.524h2.025zm1.393-2.006a.42.42 0 0 0-.415-.424.42.42 0 0 0-.415.424.41.41 0 0 0 .415.405.403.403 0 0 0 .415-.405zm-.108 4.456v-3.122h-.603v3.122h.602zm2.025-1.116-.9-2.006h-.7l1.58 3.25 1.58-3.25h-.67l-.89 2.006zm15.64.652h-.03c-.207.326-.593.553-1.067.553-.958 0-1.521-.74-1.521-1.66 0-.86.612-1.61 1.521-1.61.445 0 .83.188 1.067.553h.02v-.484h.553v3.122h-.553v-.474h.01zm-1.028.04c.672 0 1.018-.524 1.018-1.137 0-.612-.356-1.126-1.018-1.126-.622 0-.988.543-.988 1.126 0 .593.356 1.137.988 1.137zm-10.275-.04h-.02c-.207.326-.602.553-1.067.553-.958 0-1.521-.74-1.521-1.66 0-.86.612-1.61 1.521-1.61.445 0 .83.188 1.067.553h.02v-.484h.553v3.122h-.553v-.474zm-1.017.04c.671 0 1.017-.524 1.017-1.137 0-.612-.355-1.126-1.017-1.126-.623 0-.988.543-.988 1.126 0 .593.355 1.137.988 1.137zm7.38 0c.662 0 1.018-.524 1.018-1.137 0-.612-.356-1.126-1.018-1.126-.622 0-.988.543-.988 1.126-.01.613.306 1.137.988 1.137zm.998-.03h-.02c-.198.326-.632.543-1.067.543-.958 0-1.512-.74-1.512-1.64 0-.88.613-1.63 1.512-1.63.445 0 .84.197 1.067.553h.02V15h.573v5.503h-.573v-.464zm-5.316-2.668h-.612v1.858c0 .138.01.286.03.385.108.632.602.998 1.304.998.701 0 1.195-.366 1.304-.998.02-.099.03-.247.03-.385V17.37h-.613v1.887c0 .484-.198.82-.721.82-.524 0-.722-.345-.722-.82V17.37zm11.471.405v-.405h-.603v3.122h.603v-1.62c0-.158.01-.336.03-.474.069-.366.375-.613.77-.613.396 0 .623.208.652.603.01.079.01.158.01.227v1.887H32v-2.025c0-.129-.01-.297-.03-.405-.108-.465-.474-.78-1.086-.78-.386 0-.761.216-.92.483h-.029z" fill="#000"/></svg>