<svg height="36" viewBox="0 0 36 36" width="36" xmlns="http://www.w3.org/2000/svg"><g fill="none"><path d="M18 0c2.837 0 5.52.656 7.907 1.825C31.884 4.753 36 10.895 36 18c0 9.942-8.058 18-18 18-9.94 0-18-8.057-18-18C0 8.06 8.06 0 18 0z" fill="#f2f4f7"/><path d="M13.134 15.885c-.295-.121-.605-.204-.885-.204-.409 0-.613.09-.613.242 0 .454 1.823.09 1.823 1.052 0 .4-.37.703-1.127.703-.447 0-.795-.09-1.196-.31l.167-.356c.348.197.673.28 1.029.28.446 0 .681-.128.681-.317 0-.492-1.824-.13-1.824-1.03 0-.386.37-.658 1.045-.658.4 0 .741.09 1.059.25zm2.028 1.809c-.726 0-1.332-.485-1.332-1.211 0-.72.606-1.211 1.332-1.211.734 0 1.324.492 1.324 1.21.008.727-.59 1.212-1.324 1.212m0-2.029c-.53 0-.893.356-.893.818 0 .469.348.825.893.825s.886-.356.886-.825c.007-.462-.341-.818-.886-.818m3.065 2.029c-.764 0-1.34-.485-1.34-1.211 0-.712.583-1.211 1.34-1.211.454 0 .772.129 1.067.34l-.227.333a1.333 1.333 0 0 0-.825-.28c-.56 0-.908.356-.908.81 0 .47.348.817.908.817.348 0 .628-.113.84-.272l.227.333c-.287.22-.628.34-1.082.34m1.514-2.338h.454v2.27h-.454zm1.059 2.27v-2.27h2.119v.379h-1.665v.53h1.287v.378h-1.287v.605h1.74v.378zm3.784-1.891v1.891h-.454v-1.891h-.908v-.379h2.27v.379zm1.286 1.891v-2.27h2.044v.379h-1.665v.53h1.286v.378H26.25v.605h1.74v.378zm-13.432 2.71c.234 0 .492-.053.643-.137v-.68h.454v.9c-.303.197-.704.31-1.097.31-.765 0-1.347-.484-1.347-1.21 0-.712.582-1.204 1.34-1.204.438 0 .771.121 1.059.34l-.227.334a1.33 1.33 0 0 0-.825-.273c-.56-.015-.908.348-.908.802 0 .485.348.818.908.818m1.627.317v-2.27h2.119v.379h-1.665v.53h1.286v.378H14.52v.605h1.74v.378zm2.951 0h-.378v-2.27h.431l1.491 1.726c-.023-.432-.038-.78-.038-1.12v-.606h.454v2.27h-.454l-1.483-1.71-.023.008c.015.34 0 .938 0 1.127zm2.573 0v-2.27h2.043v.379h-1.664v.53h1.286v.378h-1.286v.605h1.74v.378zm3.678-.832h-.65v.832h-.455v-2.27h1.468c.485 0 .787.303.787.734 0 .409-.295.643-.658.696l.681.848h-.53zm.318-.378c.265 0 .416-.137.416-.333 0-.22-.129-.348-.37-.348h-1.015v.68zm1.725.68-.265.53h-.461l1.112-2.27h.447l1.112 2.27h-.454l-.265-.53zm.174-.378h.878l-.439-.923zm2.127.908v-2.27h.378v1.892h1.514v.378zm2.194 0v-2.27h2.12v.379h-1.666v.53h1.287v.378h-1.287v.605H32v.378z" fill="#231f20"/><path d="M4 15.28h5.524v2.8H4z" fill="#e90031"/><path d="M4 18.004h5.524v2.724H4z" fill="#231f20"/><path d="M4.984 17.852H8.54v.303H4.984z" fill="#fff"/></g></svg>