<svg width="36" height="36" fill="none" xmlns="http://www.w3.org/2000/svg"><path d="M18 0c2.837 0 5.52.656 7.907 1.825C31.884 4.753 36 10.895 36 18c0 9.942-8.058 18-18 18-9.94 0-18-8.057-18-18C0 8.06 8.06 0 18 0z" fill="#F2F4F7"/><path opacity=".2" d="M29.154 15.934a.769.769 0 0 1 .344-.148.675.675 0 0 1 .079-.128 1.253 1.253 0 0 0-.378-.338 2.202 2.202 0 0 0-.713-.254 5.018 5.018 0 0 0-1.387-.033 12.04 12.04 0 0 0-2.635.606c-.857.293-1.692.65-2.497 1.065-.816.416-1.595.902-2.327 1.452-.371.28-.722.587-1.049.918a4.253 4.253 0 0 0-.837 1.15 1.5 1.5 0 0 0-.151.716.896.896 0 0 0 .307.619c.168.142.367.243.581.296.209.055.422.088.637.098.862.04 1.726-.128 2.57-.355a16.73 16.73 0 0 0 2.479-.911c-.81.326-1.643.587-2.494.781-.838.182-1.693.3-2.494.217-.391-.047-.79-.146-1.026-.384a.604.604 0 0 1-.185-.431c.005-.182.054-.36.142-.519.206-.363.47-.69.783-.967a9.03 9.03 0 0 1 1.019-.81 15.04 15.04 0 0 1 2.276-1.274c.78-.358 1.586-.656 2.411-.894.79-.236 1.604-.382 2.427-.434.37-.024.742.003 1.105.082a.776.776 0 0 1 .496.345c.04.076.21-.047.236.002.062-.125-.031-.265.091-.343a.731.731 0 0 1 .19-.124z" fill="#0B273B"/><path d="M29.442 16.381c.243-.226.28-.58.084-.79-.197-.21-.554-.198-.797.028s-.28.58-.083.79c.197.21.553.198.796-.028zM6.64 18.273v.198a1.178 1.178 0 0 1-.353.889 1.255 1.255 0 0 1-.91.34 1.348 1.348 0 0 1-1.28-.817A1.27 1.27 0 0 1 4 18.372a1.287 1.287 0 0 1 .388-.948 1.301 1.301 0 0 1 .959-.387c.23-.003.455.053.657.163.19.1.35.25.463.433l-.434.248a.682.682 0 0 0-.277-.256.866.866 0 0 0-.413-.098.813.813 0 0 0-.84.845.802.802 0 0 0 .535.78.87.87 0 0 0 .342.054.853.853 0 0 0 .487-.13.646.646 0 0 0 .262-.356h-.778v-.446h1.288zm.957.893h.98v.482H7.092v-2.56h.507v2.078zm3.363.148a1.29 1.29 0 0 1-.947.386 1.29 1.29 0 0 1-.946-.386 1.284 1.284 0 0 1-.387-.945 1.281 1.281 0 0 1 .387-.946 1.286 1.286 0 0 1 .946-.386 1.296 1.296 0 0 1 .947.386 1.283 1.283 0 0 1 .389.946 1.278 1.278 0 0 1-.39.945zm-1.538-.344a.806.806 0 0 0 .59.236.808.808 0 0 0 .83-.837.816.816 0 0 0-.83-.841.808.808 0 0 0-.772.515.815.815 0 0 0-.057.326.809.809 0 0 0 .239.601zm3.927-.65a.634.634 0 0 1 .338.586.683.683 0 0 1-.231.534.819.819 0 0 1-.57.208h-1.09v-2.56h1.013a.801.801 0 0 1 .557.203.667.667 0 0 1 .225.518.622.622 0 0 1-.242.512zm-.54-.76h-.507v.563h.507a.263.263 0 0 0 .197-.08.275.275 0 0 0 .079-.201.278.278 0 0 0-.168-.263.262.262 0 0 0-.108-.019zm.077 1.617a.287.287 0 0 0 .278-.187.298.298 0 0 0 .02-.117.291.291 0 0 0-.298-.3h-.583v.604h.583zm2.912.471-.164-.46H14.58l-.154.46h-.547l.9-2.56h.627l.906 2.56h-.513zm-1.054-.932h.723l-.37-1.046-.353 1.046zm2.416.45h.98v.482h-1.487v-2.56h.507v2.078z" fill="#27AA67"/><path d="m22.53 17.088-.068.483h-.694l-.292 2.077h-.507l.293-2.077h-.69l.068-.483h1.89z" fill="#0B273B"/><path d="M24.606 19.314c-.273.248-.63.386-1.001.385a1.118 1.118 0 0 1-1.145-1.33 1.5 1.5 0 0 1 .521-.946c.273-.25.63-.387 1-.386a1.124 1.124 0 0 1 1.148 1.331c-.05.37-.237.706-.523.946z" fill="#27AA67"/><path d="m28.11 17.089-.361 2.56h-.503l.235-1.661-.893 1.188-.059.002-.554-1.184-.233 1.654h-.507l.36-2.56h.522l.566 1.21.904-1.21h.523zm.569 0h.507l-.361 2.56h-.508l.362-2.56zm1.926 2.611a1.118 1.118 0 0 1-.905-.384 1.156 1.156 0 0 1-.244-.948c.048-.368.23-.705.512-.949.276-.25.638-.387 1.012-.382.218-.004.433.052.622.162a.973.973 0 0 1 .398.441l-.472.252a.554.554 0 0 0-.233-.268.734.734 0 0 0-.383-.098.925.925 0 0 0-.637.235.964.964 0 0 0-.315.607.737.737 0 0 0 .144.603.7.7 0 0 0 .57.235.901.901 0 0 0 .412-.096.805.805 0 0 0 .308-.266l.4.253a1.472 1.472 0 0 1-.52.44 1.444 1.444 0 0 1-.67.163zm-11.128-1.577.126.593h.514l-.223-1.046-.44.343.023.11z" fill="#0B273B"/><path d="m19.802 19.648-.098-.46h-1.055l-.22.46h-.546l1.26-2.56h.628l.545 2.56h-.514zm-.922-.932h.723l-.223-1.046-.5 1.046z" fill="#0B273B"/></svg>