<svg width="36" height="36" fill="none" xmlns="http://www.w3.org/2000/svg"><path d="M18 0c2.837 0 5.52.656 7.907 1.825C31.884 4.753 36 10.895 36 18c0 9.942-8.058 18-18 18-9.94 0-18-8.057-18-18C0 8.06 8.06 0 18 0z" fill="#F2F4F7"/><path d="M6.226 20.001C4.854 20.001 4 18.832 4 17.573c0-1.326.764-2.405 2.226-2.405 1.079 0 1.91.629 1.978 1.55H7.26c-.045-.426-.495-.764-1.012-.764-.764 0-1.259.585-1.259 1.664 0 .742.382 1.574 1.26 1.574.808 0 1.1-.405 1.1-1.035H6.34v-.741h1.888v.764c-.023 1.057-.495 1.821-2.001 1.821zm2.518-.158V15.28h.876v4.563h-.876zm1.303-1.933c.068-.742.742-1.416 1.484-1.484 1.17-.112 1.934.607 1.934 1.754 0 1.056-.652 1.753-1.709 1.753-1.169 0-1.82-.854-1.709-2.023zm2.518.27c0-.675-.27-1.012-.809-1.012-.54 0-.81.337-.81 1.012 0 .674.27 1.011.81 1.011s.81-.337.81-1.011zm1.305 1.663V15.28h.876v1.663c.247-.36.585-.517.99-.517.854 0 1.37.72 1.37 1.731 0 1.125-.606 1.799-1.438 1.799-.405 0-.72-.157-.922-.495v.405h-.877v-.023zm2.338-1.64c0-.675-.248-1.035-.765-1.035-.495 0-.742.36-.742 1.08 0 .561.337.966.742.966.45 0 .764-.427.764-1.012zm3.507 1.64a1.316 1.316 0 0 1-.045-.292c-.203.225-.562.382-1.012.382-.764 0-1.124-.382-1.124-.921 0-.967.652-1.08 1.529-1.192.45-.067.562-.157.562-.382s-.225-.337-.562-.337c-.405 0-.562.202-.607.494h-.832c.022-.697.405-1.169 1.461-1.169 1.057 0 1.416.472 1.416 1.327v2.113h-.786v-.023zm-.045-1.64c-.09.09-.248.134-.562.202-.495.09-.675.247-.675.517 0 .247.157.382.427.382.45 0 .787-.337.81-.72v-.382zm3.62 1.64V17.82c0-.517-.158-.652-.563-.652-.472 0-.674.248-.674.765v1.91h-.877v-3.35h.81v.495c.201-.382.539-.584 1.078-.584.63 0 1.102.382 1.102 1.124v2.316h-.877zm3.439-1.258c-.023.36-.18.584-.517.584-.36 0-.517-.247-.517-.674v-1.372h1.371v-.697h-1.371v-.831h-.877v2.99c0 .72.382 1.349 1.371 1.349.945 0 1.35-.63 1.35-1.35h-.81z" fill="#000"/><path d="M28.617 15.033c-.09-.068-.225-.023-.292.067-.023.045-.045.112-.023.157l.405.585a3.434 3.434 0 0 1 0 3.8l-.405.584c-.022.112.023.225.135.247.045.023.113 0 .158-.022l3.305-2.518a.253.253 0 0 0 .045-.36c-.023-.023-.023-.045-.046-.045l-3.282-2.495z" fill="#BFD732"/></svg>