<svg height="36" viewBox="0 0 36 36" width="36" xmlns="http://www.w3.org/2000/svg"><mask id="a" fill="#fff"><path d="M2.344 0C.71.076-.155 1.126.023 1.567l1.105 1.819c.564.928 1.452.949 1.745.949h3.062L2.364 0z" fill-rule="evenodd"/></mask><g fill="none" fill-rule="evenodd"><path d="M18 0c2.837 0 5.52.656 7.907 1.825C31.884 4.753 36 10.895 36 18c0 9.942-8.058 18-18 18-9.94 0-18-8.057-18-18C0 8.06 8.06 0 18 0z" fill="#f2f4f7" fill-rule="nonzero"/><path d="M2.344 0C.71.076-.155 1.126.023 1.567l1.105 1.819c.564.928 1.452.949 1.745.949h3.062L2.364 0z" mask="url(#a)" transform="translate(15 16)"/><path d="M24.8 18.43H32V14h-7.2zm-13.995 1.121.15.236.613-.32-.17-.292z" fill="#f58800"/><path d="M11.2 20.974c-.32 0-.452.122-.452.235 0 .104.066.207.217.207.16 0 .348-.13.348-.442zm.113-.349c0-.263-.113-.292-.329-.292-.067 0-.199.02-.283.047-.095.03-.217.066-.217.066l-.038-.349c.038-.028.311-.122.613-.122.462 0 .707.142.707.641 0 .283-.01.518-.019.763l.311.03v.281l-.302.028h-.395v-.103c0-.114.018-.17.018-.17-.094.226-.348.321-.509.321-.386 0-.546-.236-.546-.5 0-.245.235-.424.377-.47.179-.057.273-.114.612-.114zm10.283.858a.845.845 0 0 0 .442.123c.311 0 .453-.152.453-.33 0-.197-.142-.291-.415-.376-.32-.095-.48-.255-.48-.462 0-.235.197-.472.583-.472.142 0 .255.038.359.075v.18a.7.7 0 0 0-.396-.113c-.245 0-.377.14-.377.302 0 .188.151.263.414.348.331.104.491.236.491.49 0 .273-.236.49-.641.49-.16 0-.311-.038-.433-.095zm-1.461.095c.377 0 .565-.312.565-.699 0-.385-.188-.697-.565-.697s-.566.312-.566.697c0 .387.189.7.566.7zm0-1.575c.508 0 .801.35.801.821 0 .527-.302.914-.801.914-.509 0-.802-.348-.802-.82-.009-.527.293-.914.802-.914zm-2.715.594c0 .235.198.414.443.414.293 0 .472-.186.472-.432 0-.17-.123-.405-.453-.405-.264.009-.462.179-.462.424zm.321 1.16c-.038 0-.377.093-.377.32 0 .263.396.301.565.301.208 0 .556-.066.556-.34 0-.15-.141-.197-.292-.216zm1.055-1.527h-.151a1.74 1.74 0 0 1-.226-.02c.133.132.16.274.16.406 0 .377-.32.603-.716.603-.066 0-.31.037-.31.16 0 .085.075.114.292.142l.452.075c.264.047.462.142.462.414 0 .397-.406.575-.839.575-.406 0-.811-.132-.811-.462 0-.253.208-.367.434-.414V21.7c-.132-.029-.264-.104-.264-.264 0-.18.17-.217.311-.255v-.009a.55.55 0 0 1-.433-.575c0-.349.292-.612.706-.612.095 0 .217.019.293.038h.631v.207zm-2.846.725c-.358 0-.726.067-.726.302 0 .18.114.264.274.264.16-.01.452-.095.452-.566zm-.876-.592-.057-.255a1.46 1.46 0 0 1 .566-.122c.443 0 .688.15.688.602 0 .152-.01.585-.01.896l.293.028v.179l-.293.028h-.283v-.066c0-.104.01-.255.01-.255a.585.585 0 0 1-.547.358c-.198 0-.537-.075-.518-.49.019-.366.462-.546 1.027-.546v-.103c0-.322-.132-.407-.396-.407a.984.984 0 0 0-.376.085 2.187 2.187 0 0 0-.104.067zm-1.923 1.036c.066.047.17.075.301.075.311 0 .481-.301.481-.631 0-.32-.113-.547-.358-.547-.254 0-.415.227-.415.632v.47zm-.659-1.358.32-.037h.329c0 .122-.027.349-.027.349.084-.235.273-.387.574-.387.368 0 .632.302.632.82 0 .566-.311.98-.829.98-.123 0-.236-.02-.34-.056l-.009.858h-.359l.01-2.262-.301-.028zm-3.412-.47-.302-.047v-.265l.33-.037h.415v2.187l.282.037v.283H8.778v-.283l.302-.037zm-1.64 1.423c-.311 0-.406.066-.406.188 0 .085.057.17.208.17s.302-.095.302-.358zm.085-.368c0-.207-.114-.273-.217-.273-.142 0-.179.018-.264.047l-.019.179h-.33v-.518c.17-.075.349-.113.66-.113.462 0 .716.16.716.66 0 .282-.009.47-.018.716l.282.028v.358l-.32.029h-.424v-.123c0-.114 0-.076.009-.142 0 0-.16.293-.443.293-.386 0-.575-.236-.575-.5 0-.245.17-.405.349-.471s.273-.113.603-.113v-.057zm-2.423-.16h1.066v.424l-.142.019v.698c-.33.112-.537.15-.81.15-.811 0-1.216-.424-1.216-1.178 0-.641.471-1.207 1.253-1.207.377 0 .594.039.773.104v.717h-.537l-.028-.228a.547.547 0 0 0-.179-.018c-.302 0-.584.188-.584.603 0 .35.122.631.584.631.028 0 .075 0 .113-.009v-.255l-.293-.038z" fill="#00463e"/></g></svg>