<svg width="36" height="36" fill="none" xmlns="http://www.w3.org/2000/svg"><path d="M18 0c2.837 0 5.52.656 7.907 1.825C31.884 4.753 36 10.895 36 18c0 9.942-8.058 18-18 18-9.94 0-18-8.057-18-18C0 8.06 8.06 0 18 0z" fill="#F2F4F7"/><mask id="a" style="mask-type:alpha" maskUnits="userSpaceOnUse" x="5" y="14" width="8" height="8"><path d="M5.162 14.65h7.447v6.64H5.162v-6.64z" fill="#fff"/></mask><g mask="url(#a)"><path fill-rule="evenodd" clip-rule="evenodd" d="M5.853 16.07a.132.132 0 0 1 .179.047.129.129 0 0 1-.048.177.132.132 0 0 1-.18-.048.129.129 0 0 1 .049-.177zm-.178 3.739a.156.156 0 0 1-.213-.056.153.153 0 0 1 .057-.21.156.156 0 0 1 .212.056.153.153 0 0 1-.056.21zm1.833 1.13.258.012a.25.25 0 0 1 .044-.108l-.771-.661a.155.155 0 0 1-.136.031l-.149.353a.25.25 0 0 1 .007.439.256.256 0 0 1-.348-.092.25.25 0 0 1 .093-.343.256.256 0 0 1 .202-.023l.15-.353a.153.153 0 0 1 .005-.264.156.156 0 0 1 .21.057c.03.05.028.111-.001.158l.77.661a.256.256 0 0 1 .395.057.25.25 0 0 1-.092.343.256.256 0 0 1-.381-.206l-.258-.013a.156.156 0 0 1-.286.044.153.153 0 0 1 .056-.21.157.157 0 0 1 .232.117zm.152-5.228-.263.476a.198.198 0 0 1-.017.334.202.202 0 0 1-.275-.073.198.198 0 0 1 .074-.272l.007-.004-.3-.794a.202.202 0 0 1-.221-.094.198.198 0 0 1 .073-.272.202.202 0 0 1 .275.073.197.197 0 0 1-.074.271l-.007.004.3.795a.203.203 0 0 1 .121.009l.264-.476a.153.153 0 0 1 .017-.255.156.156 0 0 1 .213.057.153.153 0 0 1-.057.21.157.157 0 0 1-.13.011zm-.497 3.766a2.951 2.951 0 0 1-.152 0c-.313-.009-.515-.064-.551-.169l-.003-.006c-.032-.122.12-.303.4-.51a1.473 1.473 0 0 0 .306.685zm.551.186a7.7 7.7 0 0 0 .726-.139 9.991 9.991 0 0 0 1.897-.662 1.43 1.43 0 0 1-.211.39.296.296 0 0 0-.26.016.29.29 0 0 0-.136.333 1.974 1.974 0 0 1-.732.25.325.325 0 0 0-.59.02 1.735 1.735 0 0 1-.694-.208zm2.04-2.893a.322.322 0 0 0 .48.325.318.318 0 0 0 .119-.437.325.325 0 0 0-.497-.076 1.929 1.929 0 0 0-1.199-.129.325.325 0 0 0-.437-.109.318.318 0 0 0-.156.336 2.722 2.722 0 0 0-.82.728.316.316 0 0 0-.225.035.309.309 0 0 0-.154.304l-.449.126-.007-.014a.165.165 0 0 0-.09-.074l.124-.716a.202.202 0 0 0 .11-.027.198.198 0 0 0 .074-.271.202.202 0 0 0-.275-.073.198.198 0 0 0 .042.362l-.125.717a.165.165 0 0 0-.148.084l-.486-.178a.234.234 0 0 0-.024-.177.242.242 0 0 0-.328-.087.236.236 0 0 0-.088.324.241.241 0 0 0 .423-.013l.486.178a.162.162 0 0 0 .018.115.167.167 0 0 0 .226.06.163.163 0 0 0 .082-.163l.445-.125a.303.303 0 0 0 .08.135 1.826 1.826 0 0 0-.117.588c-.436.298-.671.598-.607.838l.007.025c.074.21.356.317.772.329.115.003.24 0 .376-.011.061.05.127.095.198.136.226.133.5.22.814.248a.323.323 0 0 0 .624-.02 2.18 2.18 0 0 0 .842-.293.296.296 0 0 0 .422-.146l.601.177c-.007.043 0 .09.024.132a.202.202 0 0 0 .275.072h.001l.335.43a.13.13 0 0 0-.027.047l-1.035-.127a.202.202 0 0 0-.302-.172.198.198 0 0 0-.085.249l-.931.531a.156.156 0 0 0-.198-.036.153.153 0 0 0-.057.21.156.156 0 0 0 .212.056.153.153 0 0 0 .068-.187l.931-.531a.18.18 0 0 0 .043.04l-.263.477a.157.157 0 0 0-.13.011.153.153 0 0 0-.057.21.156.156 0 0 0 .212.057.153.153 0 0 0 .018-.255l.264-.475a.205.205 0 0 0 .174-.013.199.199 0 0 0 .094-.123l1.036.127a.13.13 0 0 0 .017.056.132.132 0 0 0 .18.047.129.129 0 0 0 .047-.177.132.132 0 0 0-.172-.051l-.334-.431a.198.198 0 0 0-.063-.325l.17-.583a.167.167 0 0 0 .175-.103l.388.087c-.006.049.003.1.03.146a.242.242 0 0 0 .328.087.236.236 0 0 0 .088-.324.242.242 0 0 0-.435.043l-.388-.087a.162.162 0 0 0-.022-.094.166.166 0 0 0-.226-.06.163.163 0 0 0 .014.29l-.17.585a.202.202 0 0 0-.215.116l-.6-.177a.287.287 0 0 0-.02-.174c.15-.187.259-.41.32-.669.612-.317 1.157-.723 1.049-1.132a.445.445 0 0 0-.008-.025c-.058-.164-.245-.266-.525-.308a.279.279 0 0 0-.026-.049c-.082-.126-.288-.14-.374-.086-.265.166-.092.62.297.456.088-.038.066-.055.087-.09.18.025.293.075.32.15l.002.007c.064.239-.31.524-.776.777.008-.168-.03-.289-.105-.37a.28.28 0 0 0-.038-.167.29.29 0 0 0-.512.027 2.536 2.536 0 0 0-.434.084c-.423.115-.888.326-1.195.476a.29.29 0 0 0-.334-.032.283.283 0 0 0-.105.389.29.29 0 0 0 .393.104.284.284 0 0 0 .143-.27c.3-.147.751-.35 1.155-.462.132-.036.259-.062.371-.07a.29.29 0 0 0 .413.144l.001-.002c.027.052.036.12.025.206a1.55 1.55 0 0 1-.009.063c-.54.267-1.124.48-1.285.532a9.68 9.68 0 0 1-.751.213 6.858 6.858 0 0 1-.94.162 1.243 1.243 0 0 1-.382-.805 7.863 7.863 0 0 1 2.192-.954c.089.096.26.103.346.05.086-.055.1-.098.115-.163a.273.273 0 0 0-.041-.213l-.001-.001-.002-.003v-.001h-.001v-.001l-.004-.004v-.001l-.003-.004a.275.275 0 0 0-.36-.065.258.258 0 0 0-.119.182 8.16 8.16 0 0 0-2.116.896 1.577 1.577 0 0 1 .087-.354.315.315 0 0 0 .181-.04.308.308 0 0 0 .093-.455 2.52 2.52 0 0 1 .748-.66c.101.086.25.103.37.034a.32.32 0 0 0 .16-.236 1.703 1.703 0 0 1 1.05.108zm.997-.426h.002l-.203-.502a.157.157 0 0 1-.187-.122l-.59.013a.252.252 0 0 1-.126.2.256.256 0 0 1-.347-.093.247.247 0 0 1-.034-.119l-.598-.043a.156.156 0 0 1-.286.041.153.153 0 0 1 .057-.21.156.156 0 0 1 .121-.013l.233-.48a.198.198 0 0 1 .008-.34.202.202 0 0 1 .275.073.198.198 0 0 1-.074.272.202.202 0 0 1-.164.016l-.233.48a.154.154 0 0 1 .066.112l.599.043a.251.251 0 0 1 .123-.175.257.257 0 0 1 .262.004l.388-.5a.153.153 0 0 1 .035-.238.156.156 0 0 1 .212.056.152.152 0 0 1-.056.21.157.157 0 0 1-.152.002l-.388.5a.249.249 0 0 1 .079.153l.589-.013a.156.156 0 0 1 .288-.056.153.153 0 0 1-.054.209l.203.5a.194.194 0 0 1 .106.004l.27-.571a.152.152 0 0 1 .01-.26.156.156 0 0 1 .213.056.153.153 0 0 1-.057.21.158.158 0 0 1-.12.015l-.27.57a.19.19 0 0 1 .074.09l1.03-.265a.154.154 0 0 1 .078-.148.157.157 0 0 1 .212.056.153.153 0 0 1-.09.224l.151 1.1a.201.201 0 0 1 .176.099.198.198 0 0 1-.073.271.202.202 0 0 1-.275-.072.197.197 0 0 1 .031-.24l-.5-.627-.003.002a.202.202 0 0 1-.275-.073.198.198 0 0 1 .073-.271.202.202 0 0 1 .275.073.197.197 0 0 1-.03.239l.5.627.002-.002a.202.202 0 0 1 .05-.02l-.15-1.1a.155.155 0 0 1-.139-.09l-1.03.264a.19.19 0 0 1-.095.189.193.193 0 0 1-.262-.07.19.19 0 0 1 .07-.26z" fill="#1F49AF"/></g><mask id="b" style="mask-type:alpha" maskUnits="userSpaceOnUse" x="14" y="15" width="17" height="6"><path d="M14.588 15.788h16.236v4.684H14.587v-4.684z" fill="#fff"/></mask><g mask="url(#b)"><path fill-rule="evenodd" clip-rule="evenodd" d="m29.838 17.32.986-1.49h-.5l-.702 1.097-.695-1.097h-.514l.986 1.5v.976h.44v-.987zm-1.8.986-.901-1.266.865-1.21h-.5l-.62.888-.617-.888h-.514l.868 1.217-.904 1.26h.5l.656-.938.652.937h.514zm-3.553-.983h-.854l.425-.99.43.99zm-.22-1.51h-.404l-1.091 2.493h.446l.255-.598h1.174l.251.598h.461l-1.092-2.494zm-3.647 2.493h1.74v-.396h-1.304v-2.08h-.436v2.476zm-1.468-.983h-.854l.425-.99.429.99zm-.22-1.51h-.404l-1.092 2.493h.447l.255-.598h1.173l.252.598h.46l-1.091-2.494zm11 4.64h.765v-.174h-.573v-.914h-.192v1.088zm-2.162-.431h-.375l.187-.436.188.436zm-.096-.664h-.178l-.48 1.095h.196l.113-.262h.515l.11.262h.203l-.48-1.095zm-2.565.184h.346v-.177h-.884v.178h.345v.91h.193v-.91zm-2.536.911h.192v-1.088h-.192v1.088zm-1.852-.15v-.457h-.464v.166h.279v.204a.455.455 0 0 1-.415.052.35.35 0 0 1-.193-.205.44.44 0 0 1 0-.304.404.404 0 0 1 .076-.123.349.349 0 0 1 .112-.083c.043-.02.09-.03.14-.03a.458.458 0 0 1 .24.068c.023.014.044.03.064.048l.122-.144a.68.68 0 0 0-.18-.11.617.617 0 0 0-.239-.038.562.562 0 0 0-.405.167.552.552 0 0 0-.157.397c0 .08.013.154.04.223a.529.529 0 0 0 .293.295.683.683 0 0 0 .687-.127zm-3.047.15h.192v-1.088h-.192v1.088zm-2.036-.542a.393.393 0 0 1-.027.148.342.342 0 0 1-.195.193.43.43 0 0 1-.157.027h-.214v-.74h.214c.057 0 .11.01.156.029a.339.339 0 0 1 .196.194.393.393 0 0 1 .027.149zm.2-.003a.547.547 0 0 0-.041-.215.503.503 0 0 0-.12-.172.553.553 0 0 0-.183-.114.643.643 0 0 0-.235-.042h-.406v1.088h.406a.635.635 0 0 0 .235-.041.562.562 0 0 0 .183-.116.506.506 0 0 0 .12-.173.552.552 0 0 0 .042-.215zm1.073-1.945v-1.04h-1.056v.379h.634v.463a.94.94 0 0 1-.267.136 1.044 1.044 0 0 1-.332.052.857.857 0 0 1-.345-.068.8.8 0 0 1-.438-.467 1.013 1.013 0 0 1 .002-.693.906.906 0 0 1 .17-.28.789.789 0 0 1 .255-.189.737.737 0 0 1 .317-.069.98.98 0 0 1 .393.072.948.948 0 0 1 .157.084c.05.033.098.07.145.11l.277-.33a1.584 1.584 0 0 0-.197-.143 1.254 1.254 0 0 0-.46-.17 1.726 1.726 0 0 0-.297-.022 1.28 1.28 0 0 0-.922.38 1.25 1.25 0 0 0-.264.409 1.32 1.32 0 0 0-.093.495c0 .181.03.35.092.506.061.155.148.29.26.405.113.114.248.203.406.268.158.065.334.098.528.098a1.568 1.568 0 0 0 1.035-.386z" fill="#192130"/></g></svg>