<svg height="36" viewBox="0 0 36 36" width="36" xmlns="http://www.w3.org/2000/svg"><g fill="none" fill-rule="evenodd"><path d="M18 0c2.837 0 5.52.656 7.907 1.825C31.884 4.753 36 10.895 36 18c0 9.942-8.058 18-18 18-9.94 0-18-8.057-18-18C0 8.06 8.06 0 18 0z" fill="#f2f4f7" fill-rule="nonzero"/><path d="M8 27.997h20V8H8z" fill="#22559e"/><path d="M15.647 15.404h1.143v-.53c0-.52 0-2.01-1.912-2.01-1.87 0-1.87 1.701-1.87 2.01v3.903c0 1.14.418 1.887 1.498 1.894.639 0 1.084-.398 1.179-.55v.398l1.105.01V16.46h-1.798v.904h.655v1.19c0 .601-.189 1.012-.75 1.012-.563 0-.742-.437-.742-1.013v-3.68c0-.298 0-.98.742-.98.75 0 .75.692.75.98zm2.317-2.385h1.69l.828 5.497.845-5.497H23v7.51h-1.115v-5.656l-.939 5.657h-.963l-.906-5.657v5.646h-1.113zm-4.962 9.996h10.006v-1.623H13.002z" fill="#fff"/></g></svg>