<svg height="36" viewBox="0 0 36 36" width="36" xmlns="http://www.w3.org/2000/svg"><mask id="a" fill="#fff"><path d="M0 0h21.458v4.792H0z" fill-rule="evenodd"/></mask><g fill="none" fill-rule="evenodd"><path d="M18 0c2.837 0 5.52.656 7.907 1.825C31.884 4.753 36 10.895 36 18c0 9.942-8.058 18-18 18-9.94 0-18-8.057-18-18C0 8.06 8.06 0 18 0z" fill="#f2f4f7" fill-rule="nonzero"/><path d="M9.272 15.024c-.422.21-.625.662-.452 1.008s.655.456 1.077.246.625-.661.452-1.007c-.173-.347-.655-.457-1.077-.247m1.842-.917c-.422.21-.624.66-.452 1.007.172.347.655.457 1.077.247.422-.211.624-.662.452-1.008-.173-.346-.655-.456-1.077-.246m-2.333 3.02c0-.47-.314-.853-.7-.853-.387 0-.701.383-.701.854 0 .472.314.854.7.854.387 0 .7-.382.7-.854m0 2.058c0-.471-.313-.853-.7-.853-.386 0-.7.382-.7.853 0 .472.314.855.7.855.387 0 .7-.383.7-.855" fill="#919090"/><path d="M4.525 15.37c.425.204.905.086 1.073-.262.167-.35-.042-.797-.467-1.001s-.906-.087-1.073.262.042.797.467 1" fill="#29817b"/><path d="M6.38 16.26c.425.204.905.086 1.073-.263.167-.348-.042-.797-.467-1.001-.425-.203-.906-.086-1.073.263s.042.797.467 1" fill="#919090"/><path d="M19.321 2.291v1.633c.166.217.485.383.785.383.216 0 .459-.116.574-.282.115-.172.223-.484.223-1.02 0-.421-.051-.669-.185-.855-.121-.171-.351-.274-.6-.274a.933.933 0 0 0-.573.198c-.154.109-.147.114-.224.217zM19.245 0c.064.275.083.46.083.792V1.5c0 .159-.007.312-.013.351.313-.306.574-.428.912-.428.759 0 1.231.619 1.231 1.614 0 1.021-.504 1.71-1.262 1.71-.333 0-.696-.185-.875-.421a.88.88 0 0 1-.089.344h-.497c.069-.152.095-.363.095-.79V.861c0-.337-.045-.586-.127-.752zm-1.971 3.057c-.109-.007-.16-.014-.249-.014-.485 0-.753.09-.912.256-.122.127-.179.287-.179.504 0 .376.185.58.549.58a.871.871 0 0 0 .772-.497zm-1.78-1.219c.421-.28.874-.428 1.333-.428.44 0 .746.173.88.498.058.141.071.249.071.542v.16l-.026 1.046c-.006.045-.006.096-.006.147 0 .388.057.529.261.632l-.255.357a.654.654 0 0 1-.434-.466c-.306.306-.555.427-.918.427-.402 0-.6-.102-.766-.255-.179-.166-.255-.446-.255-.65 0-.722.619-1.143 1.684-1.143.076 0 .114 0 .223.007v-.224c0-.28-.013-.395-.102-.497-.102-.115-.23-.173-.427-.173-.186 0-.377.038-.613.141a1.305 1.305 0 0 0-.402.236zm-4.976-.307.485-.114c.064.128.114.312.114.446v.026c.147-.153.211-.198.39-.306.204-.121.363-.173.536-.173a.8.8 0 0 1 .631.319c.044.064.07.103.109.21.306-.325.695-.529 1.02-.529.473 0 .798.358.798.861V4.67h-.51V2.322c0-.305-.141-.465-.409-.465a.808.808 0 0 0-.465.172 3.29 3.29 0 0 0-.319.268l-.058.052V4.67h-.504V2.412c0-.274-.006-.319-.089-.408-.077-.09-.179-.128-.325-.128-.243 0-.479.121-.81.421V4.67h-.479V2.304c0-.441-.013-.511-.115-.773zm-3.412.02.484-.134c.083.179.115.312.115.497.332-.332.663-.491 1.002-.491.344 0 .65.185.778.466.05.115.076.242.076.37V4.67h-.504V2.52c0-.337-.019-.427-.114-.529-.071-.083-.205-.135-.351-.135-.256 0-.651.205-.881.448V4.67h-.485V2.304c0-.441-.012-.511-.12-.753zM4.375 2.788h1.454c-.006-.344-.05-.555-.146-.708-.109-.172-.332-.28-.574-.28-.453 0-.708.331-.734.988zm1.716 1.237.191.32c-.28.255-.663.395-1.071.395-.881 0-1.41-.637-1.41-1.69 0-.536.108-.887.383-1.199.255-.3.568-.447.95-.447.345 0 .651.121.861.351.275.281.351.581.364 1.34v.07H4.375v.076c0 .3.038.529.147.696.178.274.472.389.791.389.306 0 .555-.097.778-.301zM3.017.69l-.236.325c-.357-.243-.612-.338-.95-.338-.511 0-.913.236-1.092.74a3.341 3.341 0 0 0-.171 1.109c0 .575.108 1.04.306 1.327.197.288.644.466 1.059.466.274 0 .51-.057.695-.172V2.813h-.88l-.102-.433h1.473v2.042c-.313.204-.784.331-1.231.331-.549 0-1.014-.191-1.346-.549C.172 3.803 0 3.261 0 2.508 0 1.672.217 1.072.676.67.988.39 1.365.256 1.818.256c.465 0 .867.147 1.199.434z" fill="#29817b" mask="url(#a)" transform="translate(10.541 17.241)"/></g></svg>