<svg width="36" height="36" fill="none" xmlns="http://www.w3.org/2000/svg"><path d="M18 0c2.837 0 5.52.656 7.907 1.825C31.884 4.753 36 10.895 36 18c0 9.942-8.058 18-18 18-9.94 0-18-8.057-18-18C0 8.06 8.06 0 18 0z" fill="#F2F4F7"/><path d="M6.933 19.229c-.802-.475-1.832-.284-2.382-.613-.236-.14-.292-.283-.254-.418h-.253a2.658 2.658 0 0 0 2.598 2.179c.236-.001.472-.034.7-.099.105-.38.051-.777-.41-1.05zM5 17.658H4v.027c0 .082 0 .163.013.243h.506c.148-.11.31-.201.48-.27zm1.697-1.056c-.07.079-.14.164-.212.253 0 0-.016.02-.032.046-.042.067-.095.215.182.31a2 2 0 0 0 .495.086h.009l.144.007h.604l.516-.03c.285-.016.571-.027.84-.018v-.007a2.425 2.425 0 0 0-.152-.553c-.42.058-.843.08-1.266.066h-.047a1.214 1.214 0 0 1-.437-.127c-.153-.082-.222-.166-.24-.247v-.028a.298.298 0 0 1 .063-.193l.023-.027.014-.016a.852.852 0 0 1 .067-.069H4.55a2.447 2.447 0 0 0-.18.271h2.595a5.36 5.36 0 0 0-.253.266H4.233c-.04.087-.076.176-.106.267h1.956c.276-.175.61-.285.614-.253v-.003zm1.401-.97-.216.267c-.011.014-.2.231.144.326.28.059.566.068.848.028a2.669 2.669 0 0 0-.68-.738H5.09a2.755 2.755 0 0 0-.314.27H7.67c.253-.123.467-.189.427-.152zM6.642 15a2.58 2.58 0 0 0-1.104.253h2.208A2.59 2.59 0 0 0 6.643 15zm2.628 2.952c-.886-.298-2.544.087-3.266-.303-.02-.01-.038-.021-.056-.032l-.014-.008-.035-.026-.016-.011-.026-.02-.014-.013-.023-.02-.01-.012a.152.152 0 0 1-.019-.021l-.009-.01-.01-.023s0-.006-.006-.008a.259.259 0 0 1-.026-.054.292.292 0 0 1 .05-.253H4.06c-.02.089-.034.179-.042.27h1.44c-.135.141-.262.29-.38.446l-.016.022c-.04.055-.127.211.147.32.054.021.11.04.167.054.902.235 2.851.05 3.687.526a2.675 2.675 0 0 0 .214-.822l-.007-.002z" fill="#D7282F"/><path d="M11.528 17.836h.478v.423a.923.923 0 0 1-.884.111.752.752 0 0 1-.414-.44.964.964 0 0 1-.057-.337.846.846 0 0 1 .218-.59.785.785 0 0 1 .24-.178.685.685 0 0 1 .3-.067c.067 0 .136.006.203.018.058.012.115.029.17.05.05.022.1.048.146.079.047.031.094.067.14.105l.014.012.29-.346-.014-.013a1.77 1.77 0 0 0-.188-.144 1.283 1.283 0 0 0-.452-.166 1.695 1.695 0 0 0-.29-.023 1.239 1.239 0 0 0-1.164.781 1.276 1.276 0 0 0-.094.484v.006c-.001.17.03.337.091.495a1.165 1.165 0 0 0 .654.66 1.488 1.488 0 0 0 1.33-.142c.07-.042.136-.09.199-.144l.007-.006v-1.031h-1.066l.143.403zm2.009-.789a.793.793 0 0 0-.213.253v-.342h-.455v1.85h.455v-.706a.98.98 0 0 1 .042-.307.587.587 0 0 1 .127-.218.505.505 0 0 1 .188-.126.675.675 0 0 1 .24-.046h.044v-.475h-.018a.6.6 0 0 0-.41.117zm1.886.954a.443.443 0 0 1-.106.316.368.368 0 0 1-.279.112.338.338 0 0 1-.27-.108.463.463 0 0 1-.096-.314v-1.043h-.454v1.169a.76.76 0 0 0 .172.518.616.616 0 0 0 .495.195.59.59 0 0 0 .352-.098.857.857 0 0 0 .192-.184v.244h.456v-1.844h-.456l-.006 1.037zm2.534-.825a.829.829 0 0 0-.592-.25.679.679 0 0 0-.38.1.933.933 0 0 0-.216.201v-.263h-.456v2.392h.456v-.793c.062.071.134.133.213.185a.67.67 0 0 0 .38.098.83.83 0 0 0 .596-.248.914.914 0 0 0 .193-.301c.049-.13.073-.268.07-.408a1.05 1.05 0 0 0-.073-.407.895.895 0 0 0-.194-.3l.003-.006zm-.689.153a.47.47 0 0 1 .351.152.554.554 0 0 1 .108.177.645.645 0 0 1 .04.231.66.66 0 0 1-.04.236.484.484 0 0 1-.815.174.572.572 0 0 1-.152-.41.631.631 0 0 1 .04-.23.618.618 0 0 1 .111-.177.486.486 0 0 1 .357-.153zm2.818-.122a.976.976 0 0 0-.702-.28.99.99 0 0 0-.702.284.958.958 0 0 0-.28.679v.007c0 .127.024.253.073.37a.92.92 0 0 0 .205.303.99.99 0 0 0 .31.206c.251.1.532.1.783 0a.97.97 0 0 0 .52-.513.956.956 0 0 0-.204-1.047l-.003-.009zm-.7 1.255a.483.483 0 0 1-.38-.171.59.59 0 0 1-.15-.398.65.65 0 0 1 .036-.216.505.505 0 0 1 .487-.34c.074 0 .147.015.215.044.063.029.12.07.168.12a.577.577 0 0 1 .15.399v.007a.636.636 0 0 1-.036.214.53.53 0 0 1-.105.177.507.507 0 0 1-.385.165m2.562-.971-.72-1.117h-.476v2.433h.454V17.14l.721 1.08h.035l.727-1.087v1.675h.456v-2.433h-.477l-.72 1.117zm5.137-.528h-.487l-.409.581-.402-.573-.005-.008h-.498l.653.91-.678.934h.488l.432-.618.435.618h.5l-.682-.946.653-.898zm.703 0h-.456v1.846h.456v-1.846zm.007-.721h-.468v.43h.468v-.43zm4.135 1.268a.947.947 0 0 0-.515-.51 1.028 1.028 0 0 0-.392-.075.972.972 0 0 0-.392.078.954.954 0 0 0-.593.88v.007a.933.933 0 0 0 .589.878c.251.102.532.102.783 0a.971.971 0 0 0 .309-.204.986.986 0 0 0 .205-.305.958.958 0 0 0 .003-.743l.003-.006zm-.911.948a.492.492 0 0 1-.38-.17.568.568 0 0 1-.149-.398c0-.074.012-.147.035-.217a.505.505 0 0 1 .486-.34.506.506 0 0 1 .384.164.579.579 0 0 1 .15.4v.007a.602.602 0 0 1-.141.39.512.512 0 0 1-.385.165m-6.88-1.737h.364l.43-.398h-.531l-.263.398zm5.195 1.567a.486.486 0 0 1-.157.121.453.453 0 0 1-.206.044.437.437 0 0 1-.2-.044.551.551 0 0 1-.262-.306.685.685 0 0 1-.004-.434.512.512 0 0 1 .1-.177.468.468 0 0 1 .36-.163c.07-.002.14.014.202.044a.495.495 0 0 1 .227.222h.463a.95.95 0 0 0-.221-.386.904.904 0 0 0-.665-.28.877.877 0 0 0-.37.076.885.885 0 0 0-.3.204.982.982 0 0 0-.266.678v.008a.959.959 0 0 0 .262.673.922.922 0 0 0 1.559-.41h-.444a.544.544 0 0 1-.083.133m-4.636-.003a.45.45 0 0 1-.15.128.431.431 0 0 1-.197.043.416.416 0 0 1-.343-.17.58.58 0 0 1-.126-.279h1.354a1.033 1.033 0 0 0-.06-.491.97.97 0 0 0-.184-.302.857.857 0 0 0-.64-.282.824.824 0 0 0-.359.077.909.909 0 0 0-.47.514 1.005 1.005 0 0 0-.068.372v.007c0 .127.022.252.066.37a.908.908 0 0 0 .468.509.886.886 0 0 0 .715 0 .894.894 0 0 0 .284-.208.975.975 0 0 0 .186-.304h-.457l-.019.027v-.01zm-.794-.612a.492.492 0 0 1 .246-.295.431.431 0 0 1 .195-.044.451.451 0 0 1 .345.164.563.563 0 0 1 .11.208h-.904c0-.011 0-.021.008-.033z" fill="#53575A"/></svg>