<svg height="36" viewBox="0 0 36 36" width="36" xmlns="http://www.w3.org/2000/svg"><mask id="a" fill="#fff"><path d="M0 0h12.934v12.877H0z" fill-rule="evenodd"/></mask><mask id="b" fill="#fff"><path d="M0 0h12.921v12.87H0z" fill-rule="evenodd"/></mask><g fill="none" fill-rule="evenodd"><path d="M18 0c2.837 0 5.52.656 7.907 1.825C31.884 4.753 36 10.895 36 18c0 9.942-8.058 18-18 18-9.94 0-18-8.057-18-18C0 8.06 8.06 0 18 0z" fill="#f2f4f7" fill-rule="nonzero"/><g fill="#e8711f"><path d="M11.851 12.877c-.285 0-.551-.114-.76-.322L2.507 4.001c-.133-.114-.342-.038-.342.151v7.608a1.11 1.11 0 0 1-1.063 1.117A1.086 1.086 0 0 1 0 11.798V1.105C0 .727.19.367.513.16a1.094 1.094 0 0 1 1.33.151l8.584 8.554a.197.197 0 0 0 .341-.133V1.105c0-.586.475-1.098 1.064-1.098a1.07 1.07 0 0 1 1.102 1.06V11.76c0 .397-.209.776-.532.966a1.166 1.166 0 0 1-.551.151" mask="url(#a)" transform="translate(19.067 12)"/><path d="M11.838 5.356h-3.19c-.589 0-1.102.473-1.102 1.06A1.052 1.052 0 0 0 8.61 7.495h1.881c.152 0 .285.132.285.284v2.668a.292.292 0 0 1-.285.284H6.54c-2.507 0-4.52-2.044-4.388-4.542a4.32 4.32 0 0 1 4.311-4.05H11.8c.608 0 1.121-.454 1.121-1.06S12.446 0 11.838 0H6.56C3.102 0 .177 2.668.006 6.132c-.17 3.671 2.792 6.738 6.457 6.738h5.375c.608 0 1.083-.493 1.083-1.079V6.435a1.08 1.08 0 0 0-1.083-1.079" mask="url(#b)" transform="translate(4 12.008)"/></g></g></svg>