<svg width="36" height="36" fill="none" xmlns="http://www.w3.org/2000/svg"><path d="M18 0c2.837 0 5.52.656 7.907 1.825C31.884 4.753 36 10.895 36 18c0 9.942-8.058 18-18 18-9.94 0-18-8.057-18-18C0 8.06 8.06 0 18 0z" fill="#F2F4F7"/><path fill-rule="evenodd" clip-rule="evenodd" d="M22.678 21.037c-.875 2.45-2.636 4.13-4.678 4.13s-3.803-1.68-4.678-4.13c-2.45-.724-4.072-2.001-4.072-3.454 0-1.452 1.627-2.73 4.072-3.453C14.197 11.68 15.958 10 18 10s3.803 1.68 4.678 4.13c1.389.408 2.52 1.003 3.232 1.703h-1.843a7.519 7.519 0 0 0-1.039-.431c.105.513.175 1.05.205 1.598h3.43a2 2 0 0 1 .087.583c0 1.453-1.628 2.73-4.072 3.454zm-1.382.332C20.555 22.962 19.353 24 18 24c-1.353 0-2.555-1.038-3.296-2.63a17.85 17.85 0 0 0 3.296.297c1.167 0 2.28-.105 3.296-.298zm.455-1.248A17.97 17.97 0 0 1 18 20.5a17.69 17.69 0 0 1-3.75-.38 9.625 9.625 0 0 1-.333-2.537c0-.898.116-1.755.332-2.537 1.108-.24 2.386-.38 3.751-.38 1.365 0 2.648.14 3.75.38A9.43 9.43 0 0 1 22.067 17H18v.292c0 .484.39.875.875.875h3.19a9.443 9.443 0 0 1-.314 1.954zm1.283-.35c1.202-.414 2.065-.974 2.398-1.604h-2.2a10.614 10.614 0 0 1-.204 1.598l.006.006zm-1.744-5.98A17.751 17.751 0 0 0 18 13.5a17.89 17.89 0 0 0-3.296.297c.741-1.592 1.943-2.63 3.296-2.63 1.353 0 2.555 1.038 3.296 2.63l-.006-.005zm-8.324 1.605c-1.563.536-2.55 1.312-2.55 2.187 0 .87.992 1.651 2.556 2.182a10.742 10.742 0 0 1 0-4.363l-.006-.006zM4 15.25h5.338a3.278 3.278 0 0 0-.788 1.167H5.295c-.35-.018-.508-.129-.612-.275L4 15.25zm22.663 0H32l-.683.898c-.105.14-.268.251-.612.269H27.45a3.277 3.277 0 0 0-.787-1.167zM5.09 17h3.366c-.1.385-.076.758-.059.997v.17H6.392c-.345-.024-.508-.129-.613-.275L5.091 17zm22.452 0h3.366l-.682.892c-.105.146-.269.257-.613.275h-2.018c0-.041 0-.1.012-.164.011-.245.034-.618-.065-1.003zM6.228 18.75h2.345c.105.508.473.997.677 1.167H7.47c-.332-.024-.49-.129-.588-.275l-.654-.892zm21.216 0h2.345l-.653.892c-.1.146-.257.251-.584.275h-1.785a2.51 2.51 0 0 0 .677-1.167z" fill="#B9A154"/></svg>