<svg width="36" height="36" fill="none" xmlns="http://www.w3.org/2000/svg"><path d="M18 0c2.837 0 5.52.656 7.907 1.825C31.884 4.753 36 10.895 36 18c0 9.942-8.058 18-18 18-9.94 0-18-8.057-18-18C0 8.06 8.06 0 18 0z" fill="#F2F4F7"/><path d="M8.209 22.932c-1.134-.1-2.126-.55-2.88-1.303-.71-.712-1.148-1.614-1.296-2.681a6.747 6.747 0 0 1-.015-1.155 4.52 4.52 0 0 1 .974-2.39c.149-.187.458-.502.636-.65.943-.782 2.134-1.163 3.422-1.095.608.032 1.026.107 1.493.267.324.111.79.347.934.472l.036.031-.004.354-.004.353-.154-.094c-.706-.435-1.6-.664-2.584-.664a4.06 4.06 0 0 0-2.258.655 3.86 3.86 0 0 0-1.478 1.826c-.403 1.022-.34 2.27.163 3.279.574 1.149 1.632 1.888 2.944 2.057.386.05.955.027 1.36-.054 1.324-.266 2.154-1.171 2.33-2.54.02-.143.026-.315.027-.689l.002-.498-1.564-.004-1.564-.003v-.703h3.823v.633c0 .715-.015 1.088-.058 1.388-.127.902-.463 1.621-1.018 2.176-.562.562-1.282.892-2.205 1.011a8.03 8.03 0 0 1-1.062.021zm17.836-8.392V13h.718v2.603l-.062.028c-.129.058-.31.182-.638.435-.014.011-.018-.296-.018-1.526zm-1.085.558V13h.718v3.358l-.112.12a11.156 11.156 0 0 0-.593.704 88.52 88.52 0 0 1-.012-2.084z" fill="#00B14F"/><path d="M8.4 21.84c-.902-.071-1.661-.42-2.259-1.035a3.1 3.1 0 0 1-.411-.512c-.5-.758-.695-1.749-.524-2.67.218-1.18 1.033-2.16 2.174-2.616.29-.115.649-.2.99-.235a6.78 6.78 0 0 1 1.047.022c.754.103 1.428.336 1.967.68l.128.082v.348c0 .317-.002.349-.026.361-.02.01-.065-.011-.208-.102a4.36 4.36 0 0 0-1.875-.652 6.096 6.096 0 0 0-1.055-.008c-1.295.187-2.217 1.118-2.381 2.405-.045.35-.015.844.073 1.186.194.765.665 1.387 1.295 1.712.428.22.804.31 1.306.31.703 0 1.268-.2 1.656-.585.251-.25.398-.553.431-.891l.01-.106H8.73v-.747h2.754v.299c0 .46-.037.734-.14 1.044a2.4 2.4 0 0 1-1.266 1.416c-.398.19-.821.282-1.346.294a5.49 5.49 0 0 1-.332 0zm19.94.008c-.57-.051-1.07-.302-1.499-.752a2.466 2.466 0 0 1-.619-1.093c-.055-.225-.072-.181.241-.612.153-.21.282-.383.287-.384.005 0 .014.07.02.157.012.219.032.353.076.523.196.757.745 1.304 1.43 1.423.182.032.495.02.67-.024.63-.163 1.05-.64 1.21-1.377a3.33 3.33 0 0 0 0-.875 1.848 1.848 0 0 0-.453-.892c-.316-.333-.731-.503-1.226-.503-.636 0-1.099.258-1.708.952a38.936 38.936 0 0 0-2.085 2.65l-.178.253v-1.182l.254-.344c.139-.19.383-.512.542-.718.159-.205.38-.492.49-.637.508-.666.836-1 1.253-1.277.86-.57 1.991-.585 2.811-.036.838.56 1.24 1.656 1.016 2.765-.181.895-.754 1.585-1.547 1.863-.171.06-.368.101-.578.12a1.657 1.657 0 0 1-.407 0zm-6.002-.954c0-1.593-.003-1.868-.022-2-.072-.483-.295-.885-.63-1.137a1.665 1.665 0 0 0-.752-.313 1.985 1.985 0 0 0-.713.031c-.65.172-1.12.703-1.26 1.429-.041.207-.037.598.007.806.145.683.578 1.177 1.188 1.352.536.154 1.276.039 1.732-.271l.085-.057-.004.377-.004.378-.147.076a2.92 2.92 0 0 1-1.362.29c-.787-.052-1.42-.41-1.84-1.038-.45-.67-.564-1.64-.291-2.46.36-1.082 1.37-1.743 2.523-1.65.625.05 1.094.26 1.506.672.38.382.584.794.682 1.378.024.14.026.324.031 2.07l.005 1.915h-.734v-1.848zm-8.218-.046c0-1.942.007-2.202.058-2.455.133-.65.519-1.168 1.083-1.452.133-.067.41-.155.573-.183.489-.082.997-.008 1.358.199l.076.044-.06.098a4.654 4.654 0 0 0-.162.307 5.624 5.624 0 0 1-.103.209l-.142-.05a1.553 1.553 0 0 0-.933-.06 1.307 1.307 0 0 0-.717.466 1.814 1.814 0 0 0-.251.53l-.04.146-.004 2.048-.004 2.047h-.732v-1.894z" fill="#00B14F"/><path d="M13.05 20.724c0-2.017.004-2.18.053-2.48.152-.923.636-1.677 1.357-2.115.686-.417 1.597-.56 2.473-.388.312.062.7.213.939.366l.096.062-.171.17a5.49 5.49 0 0 0-.238.248l-.066.078-.086-.044c-.288-.145-.775-.252-1.15-.252-1.178 0-2.097.685-2.385 1.776-.099.375-.094.26-.1 2.535l-.005 2.062h-.717v-2.018zm15.178 2.214c-1.1-.1-2.011-.628-2.57-1.49a3.345 3.345 0 0 1-.273-.547l-.018-.06.255-.347.254-.347.013.049a2.692 2.692 0 0 0 1.036 1.51c.158.112.446.265.637.338.479.181 1.01.225 1.526.125a2.822 2.822 0 0 0 1.015-.434c.172-.122.49-.438.606-.602a3.2 3.2 0 0 0 .546-1.389c.034-.235.035-.71 0-.944-.119-.813-.489-1.468-1.086-1.92-.503-.382-1.211-.58-1.887-.527-1.023.079-1.727.544-2.741 1.81-.104.13-.377.486-.607.792l-.422.563c-.003.003-.005-.234-.005-.528v-.534l.245-.344c.521-.729.746-1.007 1.102-1.362.37-.369.667-.587 1.063-.784a3.423 3.423 0 0 1 1.047-.324 5.094 5.094 0 0 1 1.055 0c.807.124 1.45.451 1.992 1.014.531.552.85 1.236.97 2.087.026.186.026.867 0 1.054a3.884 3.884 0 0 1-.58 1.605 3.352 3.352 0 0 1-2.346 1.509 6.53 6.53 0 0 1-.827.027zm-7.955-.008c-1.588-.145-2.813-1.261-3.12-2.84-.057-.299-.066-.41-.066-.805 0-.484.032-.733.147-1.129.3-1.035 1.063-1.893 2.035-2.29.465-.19.868-.266 1.4-.264a3.46 3.46 0 0 1 1.325.233c.46.176.832.421 1.18.778.508.52.81 1.145.941 1.945.03.188.031.232.036 2.188l.005 1.996h-.734v-1.835c0-1.14-.006-1.901-.015-2.01-.062-.725-.358-1.363-.842-1.822-.543-.514-1.34-.785-2.12-.722-1.342.108-2.339 1.028-2.575 2.375-.065.376-.054.877.03 1.293.06.3.214.695.365.94.316.514.782.89 1.353 1.09.49.173 1.05.217 1.527.12.273-.056.598-.18.76-.293l.067-.046v.728l-.084.055c-.24.159-.592.274-.963.317a3.963 3.963 0 0 1-.652-.002z" fill="#00B14F"/></svg>