<svg width="36" height="36" fill="none" xmlns="http://www.w3.org/2000/svg"><path d="M18 0c2.837 0 5.52.656 7.907 1.825C31.884 4.753 36 10.895 36 18c0 9.942-8.058 18-18 18-9.94 0-18-8.057-18-18C0 8.06 8.06 0 18 0z" fill="#F2F4F7"/><path d="M14.432 19.873h-.039c-.123 0-.177.058-.177.178v.378h-.15v-.698h.141v.123c.039-.093.104-.142.197-.142h.039v.161h-.011zm.426.246.47-.008v-.057c0-.227-.112-.358-.311-.358-.197 0-.32.142-.32.366 0 .246.123.377.32.377.161 0 .281-.093.312-.235h-.15c-.02.077-.077.112-.151.112-.104 0-.17-.065-.17-.197zm.32-.095h-.33c.007-.123.065-.178.169-.178.112 0 .17.055.161.178zm1.094.404v-.47c0-.17-.038-.262-.235-.262a.243.243 0 0 0-.216.112v-.093h-.145v.697h.15v-.396c0-.112.066-.178.17-.178.076 0 .123.046.123.131v.46h.153zm.659-.716c-.216 0-.34.131-.34.366 0 .236.124.367.34.367.216 0 .339-.131.339-.367 0-.224-.123-.366-.34-.366zm.019.134c.123 0 .189.077.189.235 0 .15-.066.235-.189.235-.131 0-.197-.076-.197-.235-.003-.15.063-.235.197-.235zm.574-.115.255.697h.15l.246-.697h-.15l-.17.528-.17-.528h-.16zm1.357.613c0 .065.046.104.13.104.028 0 .047 0 .077-.009v-.104h-.027c-.027 0-.038-.027-.038-.065v-.34c0-.141-.093-.207-.282-.207-.178 0-.282.085-.282.216v.008h.143v-.008c0-.066.046-.104.142-.104.093 0 .142.038.142.104 0 .058-.027.066-.15.077-.19.027-.293.065-.293.235 0 .131.076.208.216.208.09 0 .167-.039.222-.115zm0-.263v.085c0 .104-.085.17-.19.17-.076 0-.111-.047-.111-.104 0-.058.038-.093.104-.104.065-.009.13-.009.197-.047zm.661-.585h-.15v.952h.142v-.093a.25.25 0 0 0 .216.112c.178 0 .3-.142.3-.367 0-.235-.122-.377-.292-.377a.243.243 0 0 0-.216.112v-.35.011zm.186.34c.112 0 .178.084.178.245 0 .15-.066.235-.178.235-.123 0-.189-.084-.189-.235.003-.15.058-.235.19-.246zm.65-.348v.94h.151v-.943h-.15v.003zm.643.631.47-.008v-.057c0-.227-.111-.358-.31-.358-.2 0-.32.142-.32.366 0 .246.122.377.32.377.16 0 .28-.093.31-.235h-.15c-.019.077-.076.112-.15.112-.104 0-.17-.065-.17-.197zm.329-.095h-.331c.008-.123.065-.178.17-.178.106 0 .171.055.16.178zm.877-.085.132-.008c0-.131-.113-.216-.282-.216-.17 0-.274.093-.274.216 0 .112.066.161.216.197l.104.027c.066.02.104.038.104.085 0 .057-.057.093-.142.093-.104 0-.15-.038-.161-.123h-.15c0 .15.103.246.292.246.197 0 .3-.093.3-.235 0-.131-.065-.17-.215-.208l-.085-.02c-.076-.008-.112-.037-.112-.084 0-.038.046-.077.123-.077.093.003.14.041.15.107zM7.412 15.706c0-.943-.762-1.706-1.706-1.706A1.708 1.708 0 0 0 4 15.706c0 .944.763 1.707 1.706 1.707a1.71 1.71 0 0 0 1.706-1.707z" fill="#CCD700"/><path d="M14.13 17.177a1.108 1.108 0 0 0-.065.397c0 .15.02.281.066.396a.859.859 0 0 0 .197.32.891.891 0 0 0 .312.208.93.93 0 0 0 .404.076c.208 0 .386-.038.536-.093v-.697h-.574v-.396h1.047l-.008 1.413a1.828 1.828 0 0 1-.451.15c-.17.039-.35.058-.574.058-.216 0-.424-.038-.605-.104a1.47 1.47 0 0 1-.462-.292 1.418 1.418 0 0 1-.312-.451 1.448 1.448 0 0 1-.104-.586c0-.216.039-.415.113-.593.076-.17.177-.33.311-.443a1.34 1.34 0 0 1 .462-.282c.178-.065.378-.104.586-.104.216 0 .423.039.604.093.178.058.33.15.443.247l-.331.358a.962.962 0 0 0-.697-.274c-.15 0-.274.028-.397.077a.9.9 0 0 0-.3.216c-.077.08-.154.194-.2.306zm3.742-.142a.56.56 0 0 0-.331.104.749.749 0 0 0-.216.262h-.009v-.309h-.443l.009 1.849h.462v-.99a.556.556 0 0 1 .096-.3.442.442 0 0 1 .15-.143.48.48 0 0 1 .254-.057c.027 0 .047.008.066.008.019 0 .038 0 .076.008v-.424c-.019 0-.038-.008-.057-.008h-.057zm2.318.558c.028.142.047.281.047.45v.058c0 .02 0 .039-.008.058h-1.406a.37.37 0 0 0 .058.178.34.34 0 0 0 .122.142.444.444 0 0 0 .17.093.615.615 0 0 0 .49-.028.564.564 0 0 0 .196-.17l.312.247c-.178.246-.443.366-.793.366-.15 0-.273-.019-.396-.065a.77.77 0 0 1-.312-.197.78.78 0 0 1-.208-.301.93.93 0 0 1-.076-.405c0-.15.027-.281.076-.404.058-.123.123-.227.208-.312a.945.945 0 0 1 .312-.197c.123-.046.246-.077.385-.077.123 0 .246.02.35.066a.702.702 0 0 1 .282.189.88.88 0 0 1 .191.309zm-.413.243a.524.524 0 0 0-.104-.312.417.417 0 0 0-.142-.104.453.453 0 0 0-.197-.038.498.498 0 0 0-.35.123.49.49 0 0 0-.161.32l.954.011zm2.732-.563a.641.641 0 0 0-.528-.235.566.566 0 0 0-.358.104.586.586 0 0 0-.216.246h-.008v-.296h-.443l.008 1.838h.462v-1.017c0-.058.008-.123.027-.178a.516.516 0 0 1 .077-.161.313.313 0 0 1 .131-.113.34.34 0 0 1 .197-.046c.077 0 .131.008.178.047a.437.437 0 0 1 .104.123.515.515 0 0 1 .057.16c0 .058.009.113.009.17v1.029h.462v-1.152a.836.836 0 0 0-.039-.281.612.612 0 0 0-.12-.238zm2.669.32c.019.142.046.281.046.45v.058c0 .02 0 .039-.008.058h-1.405a.37.37 0 0 0 .057.178.34.34 0 0 0 .123.142.444.444 0 0 0 .17.093.616.616 0 0 0 .489-.028.564.564 0 0 0 .197-.17l.312.247c-.178.246-.443.366-.793.366-.15 0-.274-.019-.397-.065a.77.77 0 0 1-.312-.197.78.78 0 0 1-.207-.301.93.93 0 0 1-.077-.405c0-.15.027-.281.077-.404.057-.123.123-.227.207-.312a.945.945 0 0 1 .312-.197c.123-.046.246-.077.386-.077.123 0 .246.02.35.066a.702.702 0 0 1 .281.189.987.987 0 0 1 .192.309zm-.424.243a.524.524 0 0 0-.104-.312.418.418 0 0 0-.142-.104.453.453 0 0 0-.197-.038.498.498 0 0 0-.35.123.49.49 0 0 0-.161.32l.954.011zm2.176-.801a.56.56 0 0 0-.33.104.748.748 0 0 0-.216.262h-.009v-.309h-.445l.008 1.849h.462v-.99a.559.559 0 0 1 .096-.3.443.443 0 0 1 .15-.143.48.48 0 0 1 .254-.057c.028 0 .047.008.066.008.02 0 .038 0 .077.008v-.424c-.02 0-.039-.008-.058-.008h-.055zm2.046.05.434.007v1.68c0 .169-.019.32-.057.45a.859.859 0 0 1-.528.555 1.3 1.3 0 0 1-.462.077 1.82 1.82 0 0 1-.235-.019c-.085-.008-.17-.038-.246-.058a2.487 2.487 0 0 1-.235-.092.728.728 0 0 1-.197-.132l.262-.358c.085.085.197.15.312.197a.88.88 0 0 0 .34.066.62.62 0 0 0 .28-.047.527.527 0 0 0 .179-.131.47.47 0 0 0 .093-.197c.019-.077.027-.161.027-.254v-.131h-.006a.609.609 0 0 1-.254.207.833.833 0 0 1-.35.077.92.92 0 0 1-.377-.077.922.922 0 0 1-.282-.207.796.796 0 0 1-.177-.312 1.004 1.004 0 0 1-.066-.378c0-.13.019-.265.066-.377a.975.975 0 0 1 .177-.312.956.956 0 0 1 .282-.207.804.804 0 0 1 .377-.077c.142 0 .255.027.367.076a.658.658 0 0 1 .265.255h.008v-.282h.003zm-.03.932a.6.6 0 0 0-.039-.227.598.598 0 0 0-.104-.189.445.445 0 0 0-.169-.123.319.319 0 0 0-.216-.066.44.44 0 0 0-.227.047.825.825 0 0 0-.17.123.673.673 0 0 0-.142.424c0 .076.009.15.039.216a.75.75 0 0 0 .104.188.438.438 0 0 0 .169.132.423.423 0 0 0 .216.046.44.44 0 0 0 .227-.046.825.825 0 0 0 .17-.123.473.473 0 0 0 .103-.19.551.551 0 0 0 .039-.212zm2.573-.925-.462 1.348h-.009l-.508-1.348h-.509l.763 1.857-.093.235a1.616 1.616 0 0 1-.057.123.168.168 0 0 1-.058.093c-.027.027-.046.047-.084.058-.039.008-.077.019-.123.019-.02 0-.047 0-.077-.008-.038 0-.058-.009-.093-.02l-.038.397c.046.008.085.008.123.019a1.008 1.008 0 0 0 .386-.03.616.616 0 0 0 .196-.104.612.612 0 0 0 .142-.17c.039-.065.066-.142.104-.226L32 17.092h-.481zM8.703 14.735c-.385 0-.755.058-1.102.17.104.246.162.509.162.793a2.058 2.058 0 0 1-2.054 2.053c-.17 0-.34-.019-.5-.057a3 3 0 0 0-.047.585 3.535 3.535 0 0 0 3.541 3.544 3.54 3.54 0 0 0 3.544-3.544c.008-1.958-1.594-3.544-3.544-3.544z" fill="#1D5632"/></svg>