<svg height="36" viewBox="0 0 36 36" width="36" xmlns="http://www.w3.org/2000/svg"><mask id="a" fill="#fff"><path d="M0 0h28v3.97H0z" fill-rule="evenodd"/></mask><mask id="b" fill="#fff"><path d="M0 0h3.022v2.68H0z" fill-rule="evenodd"/></mask><g fill="none" fill-rule="evenodd"><path d="M18 0c2.837 0 5.52.656 7.907 1.825C31.884 4.753 36 10.895 36 18c0 9.942-8.058 18-18 18-9.94 0-18-8.057-18-18C0 8.06 8.06 0 18 0z" fill="#f2f4f7" fill-rule="nonzero"/><path d="M27.917 3.689c-.004-.076-.009-.168-.009-.234h-.001c-.02.062-.041.13-.069.206l-.096.262h-.053l-.088-.257a2.434 2.434 0 0 1-.062-.211h-.002a8.252 8.252 0 0 1-.011.239l-.014.233h-.067l.038-.543h.09l.092.263c.023.066.041.126.055.183h.002c.014-.055.033-.115.058-.183l.096-.263h.09l.034.543h-.07zm-.794-.245h-.166v-.06h.402v.06h-.166v.483h-.07zM0 1.996C0 3.875 1.922 3.97 2.307 3.97c1.276 0 1.815-.344 1.837-.36a.336.336 0 0 0 .177-.307V2.006a.217.217 0 0 0-.217-.216H2.501c-.119 0-.198.097-.198.216v.135c0 .119.079.217.198.217h.928c.089 0 .162.073.162.162l-.001.605c-.183.075-1.017.318-1.687.159C.931 3.051.855 2.249.855 2.008c0-.201.06-1.211 1.254-1.313.967-.083 1.603.307 1.609.311.114.059.231.017.295-.103l.12-.244c.05-.101.034-.204-.089-.287C4.036.367 3.359 0 2.308 0 .064 0 0 1.792 0 1.996zm16.834.254c-.05.091-.134.09-.184 0L15.558.244a.3.3 0 0 0-.274-.169h-.592a.19.19 0 0 0-.19.189v3.484c0 .104.068.175.19.175h.368c.105 0 .18-.066.18-.167 0-.047.001-2.533.005-2.533s1.363 2.532 1.363 2.532c.049.093.17.093.22.001 0 0 1.37-2.526 1.374-2.526.005 0 .003 2.454.003 2.526 0 .101.08.167.185.167h.424c.104 0 .189-.052.189-.19V.264a.19.19 0 0 0-.189-.189h-.568a.307.307 0 0 0-.284.165zM25.941.075c-.104 0-.188.069-.188.169l.001 2.231c0 .105-.059.128-.131.053L23.389.21a.442.442 0 0 0-.322-.135h-.42c-.132 0-.19.07-.19.141v3.568c0 .071.068.139.172.139h.421c.104 0 .178-.057.178-.153l.002-2.351c0-.103.059-.127.131-.052l2.329 2.422a.42.42 0 0 0 .324.134h.316c.104 0 .19-.086.19-.19V.264a.19.19 0 0 0-.19-.189zM12.223 1.749c-.118.027-.249.032-.249.032a9.636 9.636 0 0 1-.38.009h-.885a.191.191 0 0 1-.19-.19V.893a.19.19 0 0 1 .19-.189h.885c.105 0 .275.004.38.007 0 0 .131.005.249.033.116.027.21.064.277.113a.422.422 0 0 1 .147.173.528.528 0 0 1 .044.216.524.524 0 0 1-.044.216.422.422 0 0 1-.147.173.768.768 0 0 1-.277.114zm.359.709c-.06-.086-.027-.18.073-.21 0 0 .398-.12.588-.29.19-.171.286-.418.286-.741 0-.21-.037-.386-.11-.531-.073-.143-.178-.261-.315-.351s-.301-.157-.491-.198c-.191-.042-.448-.054-.448-.054a12.042 12.042 0 0 0-.38-.008h-1.91a.19.19 0 0 0-.19.189v3.487c0 .105.085.172.19.172h.452c.104 0 .19-.067.19-.172l.001-1.386.001-.002.857-.002a.41.41 0 0 1 .299.155l.89 1.253c.082.11.161.154.266.154h.59c.105 0 .121-.098.085-.15l-.924-1.315zm7.71-2.187v3.49c0 .096.086.162.19.162h.46c.105 0 .19-.067.19-.172V.264c0-.104-.067-.189-.172-.189h-.478c-.104 0-.19.064-.19.196zM6.219 2.832c-.105 0-.154-.078-.11-.172l.663-1.421c.044-.095.116-.095.159 0l.646 1.422c.043.094-.007.172-.111.172zM7.282.244a.336.336 0 0 0-.274-.169h-.213a.33.33 0 0 0-.271.171L4.84 3.763c-.047.093.004.16.109.16h.389c.154 0 .224-.07.266-.156l.152-.309c.024-.051.098-.082.202-.082l1.812.001c.104 0 .171.019.202.081.02.041.113.208.158.298a.28.28 0 0 0 .273.167h.565c.104 0 .15-.08.112-.153L7.282.244z" fill="#000" mask="url(#a)" transform="translate(4 17.568)"/><path d="M2.77 2.68H.251a.245.245 0 0 1-.217-.125.241.241 0 0 1 0-.251L1.293.124A.244.244 0 0 1 1.511 0c.092 0 .171.045.217.125l1.26 2.179a.247.247 0 0 1 0 .252.247.247 0 0 1-.219.125" fill="#007cc2" mask="url(#b)" transform="translate(26.96 14)"/></g></svg>