<svg height="36" viewBox="0 0 36 36" width="36" xmlns="http://www.w3.org/2000/svg"><g fill="none" fill-rule="evenodd"><path d="M18 0c2.837 0 5.52.656 7.907 1.825C31.884 4.753 36 10.895 36 18c0 9.942-8.058 18-18 18-9.94 0-18-8.057-18-18C0 8.06 8.06 0 18 0z" fill="#f2f4f7" fill-rule="nonzero"/><path d="M7 29h22V7H7z" fill="#64a8f0"/><path d="M10.901 8.323V9.6h-.157c-.134-.628-.426-1.099-.829-1.121-.27-.023-.426.135-.56.359-.136.268-.203.829-.203 1.501 0 .629.023 1.099.09 1.437.045.157.157.403.448.403.157 0 .27-.045.336-.135.112-.134.134-.404.134-.582v-.606c0-.224-.066-.358-.179-.426-.09-.045-.224-.045-.292-.066v-.158h1.256v3.207h-.158c-.066-.247-.112-.427-.224-.628s-.314-.426-.65-.426c-.358-.023-.628.201-.628.538 0 .45.27.562.763.83.47.269 1.076.492 1.076 1.278 0 .762-.65 1.233-1.39 1.233H8.548v-1.547h.157c.202 1.166.696 1.367 1.032 1.367.427 0 .628-.268.628-.65-.022-.493-.358-.673-.83-.92-.672-.38-.986-.56-.986-1.188.023-.538.45-.875.92-1.01-.987-.111-1.278-1.008-1.255-1.973 0-.964.56-1.995 1.659-1.995zm7.85 5.742c0-.628-.336-.943-.83-.898-.246.023-.448.135-.56.293v-.875h-.763v2.063c0 .762-.538 1.48-1.077 1.457-.38 0-.47-.291-.516-.605-.067-.45-.067-.964-.023-1.525.046-.358.135-.65.404-.65.202 0 .225.135.135.223-.09.113-.224.225-.157.47.067.27.494.314.694.113.158-.18.135-.47.023-.65-.135-.224-.359-.315-.695-.315-.426 0-1.233.382-1.233 1.593 0 1.3.83 1.524 1.302 1.524.538 0 1.008-.47 1.143-.851v.807h.763v-2.265c0-.224.044-.359.157-.47.09-.067.2-.09.269-.067.18.045.18.27.18.538v2.264h.784zm-5.876.358-.247.157c-.246.158-.291.358-.314.583-.022.18-.022.358 0 .605 0 .27.158.313.292.247.18-.067.269-.337.269-.674zm.449-1.121c.2.135.313.292.313.695v2.242h-.716v-.336c-.09.225-.337.382-.674.382-.291 0-.74-.112-.74-.808 0-.65.427-.785.875-.986.448-.202.493-.225.493-.382v-.492c0-.224-.112-.315-.336-.293-.089 0-.246.046-.246.158-.023.157.134.157.157.358.023.292-.224.404-.45.404-.157-.022-.335-.112-.358-.359-.023-.38.427-.717 1.055-.717.29 0 .469.043.627.134zm10.652-3.073-.247.157c-.247.157-.292.359-.314.584-.023.18-.023.335 0 .605.022.246.18.292.314.246.157-.066.247-.358.247-.673zm.448-1.122c.202.113.337.293.337.697v2.22h-.74v-.336c-.09.246-.336.404-.673.404-.27 0-.74-.136-.74-.83 0-.65.426-.784.897-.986.426-.179.47-.201.47-.381V9.4c0-.2-.112-.291-.336-.291-.088.023-.246.067-.246.179-.022.135.135.135.158.336.022.315-.225.427-.45.404a.344.344 0 0 1-.357-.335c-.023-.405.426-.74 1.054-.74.29-.004.47.064.626.153zm-7.467.158c.157.224.157.762.157 1.188 0 .449.023 1.032-.157 1.279-.067.09-.135.135-.247.135-.157 0-.247-.18-.292-.47-.022-.27-.022-.607-.022-.965 0-.605.045-1.278.335-1.278.113-.001.159.044.226.11zm.92 2.757V8.39h-.786v.852c-.067-.157-.224-.269-.448-.269-.562 0-1.01.584-1.032 1.48-.023.605.179 1.615.963 1.615.314 0 .494-.18.561-.336v.291h.741zm-3.566.001h.784V8.39h-.784zm7.781 0V9.847c0-.627-.336-.92-.83-.897a.757.757 0 0 0-.628.427c-.112-.315-.358-.448-.717-.427a.722.722 0 0 0-.605.404v-.336h-.696v3.006h.762V9.758c0-.224.023-.358.158-.47.09-.067.18-.09.246-.067.18.045.18.27.18.538v2.264h.762V9.735c0-.2.046-.335.157-.448.09-.067.18-.09.247-.067.18.045.201.269.201.538v2.264zm-.987 1.144v.808h-.157c-.09-.336-.224-.628-.582-.65-.224-.023-.427.112-.45.314-.022.2.046.38.45.605.515.292.92.426.92 1.032 0 .65-.562.963-1.032.963h-.898v-1.122h.157c.112.584.292.942.717.964.27 0 .47-.157.47-.447 0-.293-.18-.471-.604-.719-.47-.292-.763-.47-.763-.874 0-.54.382-.875.987-.875h.785zm-8.118-2.647c0 .561 0 1.01-.09 1.234-.066.111-.134.178-.29.178a.272.272 0 0 1-.27-.178c-.112-.224-.112-.674-.112-1.234 0-.538 0-1.009.112-1.233a.272.272 0 0 1 .27-.18c.156 0 .223.067.29.18.113.224.09.695.09 1.233zm.292-1.3a1.011 1.011 0 0 0-.673-.27c-.27 0-.47.113-.673.27-.314.269-.515.762-.515 1.3 0 .561.2 1.032.515 1.301.201.157.404.269.673.269s.493-.112.673-.269c.336-.27.516-.74.516-1.3 0-.54-.18-1.032-.516-1.301zm12.962 2.802h-.762V9.018h.717v.336a.724.724 0 0 1 .605-.404c.493-.022.83.27.83.898v2.174h-.785V9.758c0-.27 0-.493-.18-.538-.066-.023-.18 0-.269.067-.111.111-.157.246-.157.47z" fill="#fff"/></g></svg>