<svg height="36" viewBox="0 0 36 36" width="36" xmlns="http://www.w3.org/2000/svg"><g fill="none"><path d="M18 0c2.837 0 5.52.656 7.907 1.825C31.884 4.753 36 10.895 36 18c0 9.942-8.058 18-18 18-9.94 0-18-8.057-18-18C0 8.06 8.06 0 18 0z" fill="#f2f4f7"/><path d="m25.519 14.699.175-.139c.112-.09.207-.168.284-.232a.107.107 0 0 0-.013-.014h-.005l-.014-.012a43.87 43.87 0 0 1-.277.216l-.233.176a9.562 9.562 0 0 0-3.202.241c-1.663.402-2.574 1.207-2.475 1.734.138.705 1.534.556 2.77-.059a17.54 17.54 0 0 0 2.46-1.511c2.832.285 5.02 1.968 5.02 1.968l.43-.805c-1.913-.936-3.492-1.416-4.92-1.563zm-2.482 1.481c-3.126 1.599-3.987-.014-.703-.884a7.375 7.375 0 0 1 2.549-.207c-.59.407-1.206.772-1.846 1.091z" fill="#f7921e"/><g fill="#58595b"><path d="M22.507 17.677h.483v-.958h.626v.958h.946v.536h-.944V19.5c0 .192.076.402.44.402.18-.007.36-.034.535-.08v.553c-.224.037-.45.057-.676.06-.597 0-.925-.192-.925-.787v-1.435h-.483zm5.483.003h.626v.403h.016c.136-.223.408-.496.95-.496a1.41 1.41 0 0 1 .222.01v.677a1.355 1.355 0 0 0-.384-.05c-.799.005-.799.535-.804.723v1.44h-.626zm-6.12.832c-.096-.126-.313-.424-.885-.424-.453 0-.604.177-.604.328 0 .211.262.247.635.297.74.096 1.416.207 1.416.877 0 .796-.912.885-1.35.885-.934 0-1.226-.372-1.458-.66l.53-.308c.217.353.595.464.987.464.333 0 .636-.1.636-.338 0-.206-.151-.227-.817-.317-1.021-.129-1.233-.456-1.233-.871 0-.282.223-.863 1.276-.863.307 0 .978.071 1.387.644z"/><path d="M18.739 16.723h1v3.67h-1zm-6.561-.003h.624v1.242c.268-.191.52-.373 1.04-.373.894 0 1.455.606 1.455 1.43 0 .919-.661 1.464-1.43 1.464a1.419 1.419 0 0 1-1.076-.44v.35h-.616zm.624 2.833c.241.187.495.394.924.394.483 0 .935-.313.935-.91 0-.61-.475-.914-.955-.914-.455 0-.712.218-.904.374zM7.904 16.72h.626v3.674h-.626zm.931 2.309c0-.728.439-1.448 1.52-1.448 1.08 0 1.52.717 1.52 1.448 0 1.08-.778 1.448-1.52 1.448s-1.52-.368-1.52-1.448zm2.404-.01c0-.637-.41-.9-.885-.9s-.885.263-.885.9c0 .575.322.923.885.923s.885-.348.885-.924zM5.566 18.5v.576h1.287c-.17.516-.563.764-1.272.764-.778 0-1.368-.445-1.368-1.314 0-.51.273-1.287 1.425-1.287.844 0 1.04.434 1.126.621h.737c-.177-.925-1.101-1.239-1.945-1.239-1.465 0-2.056.955-2.056 1.936 0 1.459 1.137 1.919 2.076 1.919.472.011.936-.128 1.324-.397v.315h.626V18.5zm12.169-.828a2.438 2.438 0 0 0-.707-.089c-.505 0-1.228.127-1.379.864h.652c.034-.146.156-.358.732-.358.515 0 .702.147.702.353v.122c-.874.05-2.238.182-2.238 1.095 0 .667.692.818 1.05.818.536 0 .925-.211 1.188-.362v.279h.627v-1.8c0-.29-.017-.734-.627-.922zm-1.096 2.321c-.308 0-.46-.146-.455-.379.006-.232.188-.369.576-.459.32-.078.646-.123.975-.137v.621c-.243.147-.621.354-1.096.354zm10.348-2.321a2.435 2.435 0 0 0-.707-.089c-.505 0-1.228.127-1.379.864h.652c.034-.146.156-.358.732-.358.515 0 .702.147.702.353v.122c-.875.05-2.238.182-2.238 1.095 0 .667.693.818 1.05.818.536 0 .925-.211 1.188-.362v.279h.626v-1.8c0-.29-.016-.734-.626-.922zm-1.097 2.321c-.308 0-.459-.146-.454-.379.005-.232.187-.369.576-.459.32-.078.646-.123.975-.137v.621c-.243.147-.621.354-1.097.354zm.895-5.953a.829.829 0 0 1-.402-.11.83.83 0 0 1-.112-.402c0-.016-.03-.016-.031 0a.83.83 0 0 1-.111.402.83.83 0 0 1-.403.11c-.008 0-.014.01-.014.018 0 .008.007.014.014.014.19.01.367.073.403.112a.83.83 0 0 1 .11.402.014.014 0 0 0 .03 0 .828.828 0 0 1 .111-.402c.039-.04.217-.101.402-.112.009 0 .014-.01.014-.017a.014.014 0 0 0-.011-.014zm5.706 2.917c-.591-.03-1.509-.232-1.637-.36-.128-.128-.33-1.046-.362-1.638a.008.008 0 0 0-.008-.008h-.01a.009.009 0 0 0-.008.008c-.03.59-.233 1.51-.361 1.638-.13.129-1.046.33-1.638.36a.008.008 0 0 0-.008.01v.008c0 .006 0 .01.008.01.591.03 1.51.232 1.638.361s.33 1.046.36 1.637c0 .005.005.009.01.009h.01a.008.008 0 0 0 .007-.01c.032-.59.234-1.508.362-1.636.129-.128 1.046-.33 1.637-.361a.009.009 0 0 0 .009-.01v-.009a.009.009 0 0 0-.009-.009z"/></g></g></svg>