<svg width="36" height="36" fill="none" xmlns="http://www.w3.org/2000/svg"><path d="M18 0c2.837 0 5.52.656 7.907 1.825C31.884 4.753 36 10.895 36 18c0 9.942-8.058 18-18 18-9.94 0-18-8.057-18-18C0 8.06 8.06 0 18 0z" fill="#F2F4F7"/><g fill-rule="evenodd" clip-rule="evenodd"><path d="M16.243 15.01a11.28 11.28 0 0 0-.618.021 3.379 3.379 0 0 1-.345.018 10.426 10.426 0 0 0-.589.025.982.982 0 0 0-.175.016 2.321 2.321 0 0 1-.277.018 2.223 2.223 0 0 0-.271.017 1.805 1.805 0 0 1-.242.018 1.97 1.97 0 0 0-.249.017 1.522 1.522 0 0 1-.216.018 1.56 1.56 0 0 0-.215.017.949.949 0 0 1-.165.017 2.04 2.04 0 0 0-.18.014c-.016.004-.077.01-.137.013a.34.34 0 0 0-.108.015.884.884 0 0 1-.175.017 1.023 1.023 0 0 0-.18.018.844.844 0 0 1-.164.017.83.83 0 0 0-.163.018.69.69 0 0 1-.149.017.873.873 0 0 0-.155.018.44.44 0 0 1-.105.016l-.134.013a2.48 2.48 0 0 1-.114.013c-.04.004-.073.011-.073.016a.516.516 0 0 1-.13.017.694.694 0 0 0-.144.018.594.594 0 0 1-.128.018.54.54 0 0 0-.123.016.555.555 0 0 1-.122.022 5.048 5.048 0 0 0-.298.042c-.016.003-.06.01-.1.014a.318.318 0 0 0-.08.017.496.496 0 0 1-.112.017.602.602 0 0 0-.11.016.624.624 0 0 1-.106.021c-.1.015-.27.045-.356.062a4.831 4.831 0 0 1-.145.025.438.438 0 0 0-.1.023.327.327 0 0 1-.087.016.378.378 0 0 0-.093.018.337.337 0 0 1-.088.017.397.397 0 0 0-.087.016c-.012.008-.126.03-.22.045-.023.003-.043.01-.043.015 0 .005-.037.013-.082.017-.045.005-.081.012-.081.017 0 .005-.033.013-.072.017a.282.282 0 0 0-.085.018.254.254 0 0 1-.076.019.397.397 0 0 0-.082.018 1.35 1.35 0 0 1-.181.042.15.15 0 0 0-.047.016.269.269 0 0 1-.073.017c-.034.005-.061.012-.061.018 0 .005-.032.013-.07.017-.039.005-.07.012-.07.017 0 .006-.03.013-.065.018-.035.004-.064.011-.064.016 0 .005-.03.015-.067.023l-.099.021c-.018.004-.032.011-.032.016 0 .005-.029.013-.064.017-.036.005-.064.012-.064.018 0 .005-.027.013-.059.018-.032.004-.061.012-.065.018-.003.006-.018.01-.032.01a.15.15 0 0 0-.056.017.325.325 0 0 1-.074.024.33.33 0 0 0-.066.019l-.045.022a.309.309 0 0 1-.07.02c-.026.003-.047.011-.047.016 0 .005-.024.013-.052.018-.03.004-.053.012-.053.018 0 .005-.012.01-.026.01a.153.153 0 0 0-.058.017.325.325 0 0 1-.067.024c-.02.004-.038.012-.042.018-.004.006-.02.011-.035.011-.016 0-.029.005-.029.011 0 .006-.018.015-.04.02-.023.003-.045.011-.048.017-.004.006-.014.01-.024.01s-.042.011-.072.024a2.919 2.919 0 0 1-.157.066c-.03.012-.055.025-.055.03 0 .003-.017.01-.036.015a.324.324 0 0 0-.067.024.146.146 0 0 1-.046.016c-.008 0-.015.006-.015.012 0 .007-.006.012-.014.012a.896.896 0 0 0-.173.084.098.098 0 0 1-.038.015c-.017.005-.032.013-.032.018 0 .005-.015.013-.035.017-.019.004-.035.011-.035.016 0 .005-.014.014-.032.022a.758.758 0 0 0-.131.074.092.092 0 0 1-.032.016c-.015.004-.026.012-.026.017 0 .006-.013.013-.03.017-.016.005-.029.013-.029.02 0 .006-.005.01-.012.01a.701.701 0 0 0-.134.085c-.011.01-.137.103-.185.137a.766.766 0 0 0-.068.062.395.395 0 0 1-.048.043 1.16 1.16 0 0 0-.155.16c-.093.099-.25.358-.25.414 0 .011-.004.023-.01.027-.04.024-.044.43-.006.555.029.096.056.163.066.163a1.411 1.411 0 0 0 .13.219l.054.063c.082.1.336.337.36.337.004 0 .02.012.037.026.044.04.246.172.264.172.009 0 .016.004.016.01 0 .005.02.02.043.032a.181.181 0 0 1 .054.037c.005.008.02.014.032.014s.022.005.022.011c0 .006.016.014.035.018.02.005.035.013.035.018 0 .005.016.013.035.018.02.004.035.011.035.016 0 .005.036.027.08.048l.109.054c.017.009.04.016.05.016.01 0 .018.005.018.01 0 .006.016.015.035.019.02.004.035.011.035.015 0 .01.051.033.096.044.018.004.032.012.032.018 0 .006.01.01.02.01a.253.253 0 0 1 .068.024.238.238 0 0 0 .067.023c.011 0 .02.005.02.012 0 .006.01.011.022.011a.06.06 0 0 1 .032.01c.006.006.066.03.133.054.068.024.132.048.143.054.011.006.026.01.033.01.007 0 .03.008.05.017.02.01.063.025.095.036a.972.972 0 0 1 .078.03.28.28 0 0 0 .068.018c.026.004.047.012.047.017 0 .005.023.012.052.016.03.005.053.013.053.018 0 .005.029.013.064.017.035.005.064.013.064.02 0 .005.013.01.029.01.015 0 .031.005.035.011.004.006.03.015.06.019.028.004.054.012.058.018.003.005.032.013.064.017.032.005.06.013.064.018.003.005.032.013.064.017.032.005.061.013.064.018a.172.172 0 0 0 .065.017c.032.005.06.013.064.018.004.006.019.01.034.01.015 0 .03.005.034.01.004.006.036.015.07.02.036.004.068.012.071.017.004.006.035.014.07.018.036.005.067.012.07.018.004.005.04.013.082.017.042.005.076.012.076.017 0 .006.031.013.07.018.038.004.07.013.07.018 0 .006.018.01.04.01.022 0 .043.006.047.012.003.006.04.014.082.019a.234.234 0 0 1 .082.017.24.24 0 0 0 .082.018.233.233 0 0 1 .082.017.258.258 0 0 0 .087.018c.045.004.081.012.081.017 0 .004.035.012.079.016a.332.332 0 0 1 .09.018c.012.01.025.012.187.038a.645.645 0 0 1 .105.023.452.452 0 0 0 .094.016.37.37 0 0 1 .093.017.43.43 0 0 0 .102.018c.05.004.093.012.097.017.003.005.05.013.105.018a.344.344 0 0 1 .105.018c.004.006.027.01.053.01.025 0 .055.006.066.012a.6.6 0 0 0 .12.024c.24.03.31.041.32.048a.697.697 0 0 0 .126.017.386.386 0 0 1 .114.017.49.49 0 0 0 .128.017c.07.005.128.013.128.019 0 .005.03.01.064.01.035 0 .066.005.07.01a.529.529 0 0 0 .135.02.56.56 0 0 1 .134.017.66.66 0 0 0 .146.018c.077.004.14.012.14.017 0 .005.066.012.146.017.08.005.148.013.152.018a.822.822 0 0 0 .163.018.68.68 0 0 1 .157.017c0 .005.039.012.085.016.245.018.436.037.447.044.006.004.094.011.195.016a.998.998 0 0 1 .184.017c0 .005.094.013.21.018.116.004.213.012.216.017.003.005.108.013.233.018.125.004.228.013.228.019 0 .005.055.01.121.01.067 0 .135.005.15.01.015.006.148.015.296.02.147.004.27.012.273.017.003.005.158.012.344.017.186.005.341.013.344.018.004.005.224.013.49.017.33.006.49.013.501.022.023.018 3.313.019 3.325 0 .006-.009.16-.016.492-.021.267-.005.487-.013.49-.018.004-.005.159-.013.345-.018a3.52 3.52 0 0 0 .344-.017c.003-.005.13-.013.28-.017a2.49 2.49 0 0 0 .294-.02.623.623 0 0 1 .143-.01.38.38 0 0 0 .123-.01c0-.006.105-.015.234-.02.128-.004.236-.012.239-.017.003-.005.097-.012.21-.017.112-.005.204-.013.204-.018 0-.004.082-.012.183-.017.1-.004.19-.012.2-.018a1.37 1.37 0 0 1 .189-.023l.254-.019c.046-.004.084-.01.084-.016 0-.005.071-.013.158-.017a.847.847 0 0 0 .163-.018.728.728 0 0 1 .152-.017.615.615 0 0 0 .146-.018.59.59 0 0 1 .146-.017.652.652 0 0 0 .146-.017.59.59 0 0 1 .137-.023c.239-.024.26-.027.26-.036a.46.46 0 0 1 .128-.018.49.49 0 0 0 .128-.017c0-.005.051-.013.114-.017a.697.697 0 0 0 .125-.017c.011-.007.08-.017.321-.048a.599.599 0 0 0 .12-.024.174.174 0 0 1 .066-.011c.026 0 .05-.005.053-.01a.345.345 0 0 1 .105-.02.286.286 0 0 0 .1-.017c0-.005.044-.013.099-.017a.3.3 0 0 0 .1-.018c0-.005.044-.013.098-.017a.285.285 0 0 0 .1-.018c0-.005.039-.013.087-.017a.274.274 0 0 0 .094-.019c.004-.006.027-.01.053-.01.025 0 .046-.006.046-.011 0-.006.039-.015.087-.02.048-.004.088-.011.088-.017 0-.005.036-.012.081-.017.045-.004.082-.012.082-.017 0-.005.037-.013.082-.017.045-.005.081-.012.081-.018 0-.005.037-.013.082-.017.045-.005.082-.013.082-.02 0-.005.018-.01.04-.01.022 0 .043-.005.047-.01.003-.006.038-.015.076-.02.039-.004.07-.011.07-.016 0-.005.031-.013.07-.017a.235.235 0 0 0 .076-.018.204.204 0 0 1 .076-.018c.038-.005.07-.013.07-.019s.012-.01.028-.01a.795.795 0 0 0 .176-.048.42.42 0 0 1 .076-.017.218.218 0 0 0 .064-.017.268.268 0 0 1 .064-.021c.087-.02.157-.039.181-.048a.942.942 0 0 1 .162-.048c.01 0 .02-.005.02-.01 0-.006.025-.015.057-.019.033-.004.061-.012.065-.018.003-.005.026-.013.052-.017.026-.004.05-.012.052-.017a.148.148 0 0 1 .059-.017c.029-.005.052-.012.052-.018 0-.005.018-.012.04-.015a.413.413 0 0 0 .09-.031.436.436 0 0 1 .088-.031c.022-.005.04-.012.04-.017 0-.005.023-.013.052-.017.029-.004.052-.012.052-.018 0-.005.021-.013.047-.017.026-.005.047-.013.047-.018 0-.005.014-.012.032-.017.044-.01.096-.034.096-.043 0-.004.021-.01.047-.014.025-.005.046-.013.046-.02 0-.006.01-.011.02-.011.012 0 .042-.01.068-.023a.256.256 0 0 1 .061-.023c.008 0 .015-.006.015-.012 0-.007.01-.012.023-.012s.023-.005.023-.01c0-.006.019-.014.041-.018.023-.005.041-.013.041-.018 0-.006.016-.014.035-.018.02-.004.035-.012.035-.018 0-.005.016-.013.035-.017.02-.004.035-.013.035-.019s.008-.01.019-.01a.253.253 0 0 0 .098-.048.104.104 0 0 1 .034-.017.13.13 0 0 0 .045-.024.063.063 0 0 1 .038-.016c.013 0 .023-.005.023-.011 0-.006.012-.015.026-.02a.091.091 0 0 0 .032-.015.498.498 0 0 1 .117-.071c.007 0 .015-.007.019-.016.003-.01.019-.02.034-.024.016-.004.029-.012.029-.019 0-.006.005-.011.012-.011.014 0 .08-.045.106-.073.01-.011.024-.02.03-.02.006 0 .02-.01.032-.024.012-.013.027-.023.033-.023a.206.206 0 0 0 .056-.047.216.216 0 0 1 .056-.047 1.532 1.532 0 0 0 .233-.244.533.533 0 0 0 .048-.059.453.453 0 0 1 .03-.04.42.42 0 0 0 .034-.056c.013-.024.027-.044.032-.044.005 0 .01-.005.01-.012 0-.013.038-.106.058-.142a.115.115 0 0 0 .011-.048c0-.015.007-.033.015-.041.01-.01.015-.078.015-.253s-.004-.242-.015-.253a.058.058 0 0 1-.015-.035c0-.012-.004-.021-.01-.021-.005 0-.013-.021-.017-.047-.004-.025-.012-.046-.018-.046-.006 0-.014-.015-.018-.032a.098.098 0 0 0-.016-.038.397.397 0 0 1-.037-.063.462.462 0 0 0-.053-.081.93.93 0 0 1-.055-.068 3.476 3.476 0 0 0-.254-.26l-.077-.063a.275.275 0 0 0-.073-.049c-.007 0-.013-.005-.013-.01 0-.007-.02-.024-.044-.038a.542.542 0 0 1-.067-.049.401.401 0 0 0-.073-.046c-.027-.013-.05-.029-.05-.034 0-.005-.007-.01-.017-.01a.056.056 0 0 1-.032-.016.124.124 0 0 0-.044-.024.191.191 0 0 1-.058-.037c-.016-.015-.039-.028-.05-.028-.011 0-.02-.004-.02-.01s-.015-.014-.032-.018c-.018-.005-.035-.012-.038-.017a2.478 2.478 0 0 0-.311-.153c-.009 0-.016-.005-.016-.012 0-.006-.007-.012-.015-.012a.255.255 0 0 1-.061-.023.239.239 0 0 0-.066-.023c-.011 0-.021-.004-.024-.009a.277.277 0 0 0-.109-.05c-.01 0-.017-.004-.017-.01s-.021-.014-.047-.019c-.025-.004-.046-.012-.046-.017 0-.006-.017-.014-.036-.018a.33.33 0 0 1-.067-.024.143.143 0 0 0-.046-.016.096.096 0 0 1-.035-.011.466.466 0 0 0-.124-.048.034.034 0 0 1-.024-.01c-.004-.006-.028-.015-.054-.019-.025-.004-.046-.012-.046-.017 0-.005-.024-.013-.053-.017-.029-.005-.052-.013-.052-.018 0-.005-.021-.013-.047-.017a.309.309 0 0 1-.07-.019l-.046-.023a.313.313 0 0 0-.07-.019.132.132 0 0 1-.054-.017c-.003-.005-.03-.013-.058-.017-.029-.004-.055-.012-.058-.018a.147.147 0 0 0-.058-.017c-.03-.004-.053-.012-.053-.017 0-.005-.029-.013-.064-.017-.035-.004-.064-.013-.064-.019s-.015-.01-.034-.01c-.02 0-.038-.006-.042-.012-.003-.006-.033-.015-.065-.019s-.06-.012-.064-.017c-.003-.006-.032-.014-.064-.018a.165.165 0 0 1-.064-.017c-.003-.005-.035-.013-.07-.017a.198.198 0 0 1-.07-.018c-.003-.006-.038-.014-.076-.018-.038-.004-.07-.012-.07-.018 0-.005-.015-.01-.034-.01-.019 0-.037-.005-.04-.01-.004-.006-.035-.015-.069-.02a.258.258 0 0 1-.072-.017.283.283 0 0 0-.076-.017.28.28 0 0 1-.076-.018.306.306 0 0 0-.082-.017.303.303 0 0 1-.081-.017.295.295 0 0 0-.082-.018.3.3 0 0 1-.082-.017.166.166 0 0 0-.052-.016 1.564 1.564 0 0 1-.216-.044 1.781 1.781 0 0 0-.257-.047.658.658 0 0 1-.105-.022.736.736 0 0 0-.105-.023 6.25 6.25 0 0 1-.134-.025 5.33 5.33 0 0 0-.146-.025.636.636 0 0 1-.105-.022.617.617 0 0 0-.114-.016.306.306 0 0 1-.102-.018.35.35 0 0 0-.11-.017.38.38 0 0 1-.112-.017.688.688 0 0 0-.19-.027c-.017 0-.032-.004-.032-.009 0-.005-.027-.012-.06-.015a2.593 2.593 0 0 1-.307-.045.803.803 0 0 0-.137-.016.47.47 0 0 1-.126-.017.471.471 0 0 0-.125-.017.696.696 0 0 1-.137-.017.329.329 0 0 0-.088-.017 2.505 2.505 0 0 1-.117-.013 11.27 11.27 0 0 1-.32-.04 1.489 1.489 0 0 0-.148-.012c-.037 0-.07-.005-.073-.01a.731.731 0 0 0-.164-.02.707.707 0 0 1-.158-.017.942.942 0 0 0-.18-.018.931.931 0 0 1-.182-.017.302.302 0 0 0-.102-.016 1.687 1.687 0 0 1-.137-.012 2.682 2.682 0 0 0-.187-.014.933.933 0 0 1-.163-.017 1.557 1.557 0 0 0-.216-.017 1.517 1.517 0 0 1-.216-.018 1.923 1.923 0 0 0-.248-.018 1.617 1.617 0 0 1-.236-.017c0-.005-.122-.012-.271-.017a2.328 2.328 0 0 1-.284-.018.903.903 0 0 0-.17-.016 10.535 10.535 0 0 0-.589-.025 3.623 3.623 0 0 1-.35-.017c-.067-.03-2.722-.043-4.037-.021zm2.958.278a59.025 59.025 0 0 1 3.542.182 47.27 47.27 0 0 1 2.357.262l.286.042a25.025 25.025 0 0 1 .934.15 35.193 35.193 0 0 1 1.01.198 21.022 21.022 0 0 1 1.546.393 13.018 13.018 0 0 1 .992.337c2.02.81 2.354 1.688.948 2.495a6.442 6.442 0 0 1-.838.405c-.354.156-1.363.476-1.867.59a14.783 14.783 0 0 1-.508.121l-.11.026a23.767 23.767 0 0 1-.636.132 36.716 36.716 0 0 1-1.027.182c-.154.025-.292.046-.496.075-.096.013-.21.03-.251.037a4.902 4.902 0 0 1-.157.022l-.415.051c-.37.046-.553.068-.81.095l-.28.029a9.084 9.084 0 0 1-.188.018l-.192.017a66.934 66.934 0 0 1-1.768.128c-.234.015-.62.032-1.074.048l-.636.023c-.407.015-2.702.014-3.127 0a57.537 57.537 0 0 1-3.974-.246 9.842 9.842 0 0 1-.216-.022l-.268-.03a35.33 35.33 0 0 1-1.818-.245l-.178-.03a19.374 19.374 0 0 1-.624-.11 39.4 39.4 0 0 1-.84-.17c-.26-.056-.866-.205-1.109-.274a13.581 13.581 0 0 1-1.529-.518 8.787 8.787 0 0 0-.151-.066c-.655-.277-1.201-.683-1.369-1.015-.253-.503.128-1.018 1.118-1.509.224-.111.38-.178.782-.334a15.276 15.276 0 0 1 1.132-.363c.116-.035.634-.166.834-.21l.152-.035c.038-.01.093-.022.122-.028l.222-.047a12.064 12.064 0 0 1 .344-.07 20.02 20.02 0 0 1 .8-.146 1.91 1.91 0 0 0 .105-.017c.029-.006.11-.02.18-.03.071-.01.155-.024.187-.03a25.387 25.387 0 0 0 .344-.05 38.316 38.316 0 0 1 1.792-.217c.283-.03 1.01-.094 1.365-.118a61.62 61.62 0 0 1 5.362-.128zm-2.695.322a51.538 51.538 0 0 0-1.897.07c-.09.003-.24.011-.332.017l-.444.03a49.643 49.643 0 0 0-2.929.28 29.382 29.382 0 0 0-.91.128 31.847 31.847 0 0 0-1.325.232 18.62 18.62 0 0 0-.612.13 18.765 18.765 0 0 0-1.366.374c-.076.023-.28.095-.425.148-2.02.745-2.078 1.747-.144 2.506l.144.058c.038.017.21.077.414.145.683.226 1.563.44 2.503.608l.163.03.129.022.216.035a22.059 22.059 0 0 0 .682.106c.158.025.625.085 1.045.134l.239.029c.051.006.127.014.17.017l.168.018c.122.014.403.041.66.064l.332.03c.423.038 1.392.1 2.095.133a66.68 66.68 0 0 0 6.413-.029 55.76 55.76 0 0 0 2.736-.221l.263-.03.256-.03c.058-.005.119-.013.135-.016a2.86 2.86 0 0 1 .134-.018 10.476 10.476 0 0 0 .443-.058c.052-.006.125-.017.164-.023l.198-.03a28.593 28.593 0 0 0 1.768-.315l.134-.03.175-.04.204-.047c.117-.028.24-.058.368-.093l.175-.047a8.848 8.848 0 0 0 1.658-.606c1.717-.871 1.07-1.887-1.675-2.631l-.175-.048a24.095 24.095 0 0 0-.98-.229 28.52 28.52 0 0 0-1.955-.336l-.374-.053a5.199 5.199 0 0 0-.18-.023 12.56 12.56 0 0 1-.234-.028 11.618 11.618 0 0 0-.455-.053 29.717 29.717 0 0 0-.566-.06 58.161 58.161 0 0 0-2.777-.198 66.575 66.575 0 0 0-4.43-.052zm7.632 1.604c.175.057.85.081 2.281.081 1.071 0 1.345-.013 1.427-.065.02-.012.056-.016.136-.013l.11.003-.09.222-.09.222-.126.003-.125.003.008-.044a.513.513 0 0 1 .017-.068c.034-.092-.277-.124-.958-.098-.559.02-.536-.004-.536.554 0 .323.006.483.035.957.022.376.026.38.44.398l.178.008v.155h-.761c-.42 0-.846.001-.948.005l-.187.006v-.164l.057-.008c.032-.004.137-.014.233-.021.26-.02.268-.03.29-.368.012-.2.005-1.313-.01-1.392-.022-.117-.091-.127-.839-.115-.584.01-.594.012-.69.15l-.03.044h-.109c-.137 0-.135.005-.048-.153.181-.327.196-.35.216-.342l.119.04zm-11.13.054c.015.1.023.095-.186.1-.302.006-.3.001-.288.482l.008.345 1.29-.003 1.29-.003.009-.337c.01-.482.017-.473-.326-.484l-.219-.008.004-.07a.23.23 0 0 1 .012-.076c.004-.003.313-.004.687-.002l.68.003v.051c0 .106-.007.112-.137.112-.143 0-.172.02-.214.151-.026.083-.023 1.564.004 1.623.036.08.118.116.262.116h.073v.162l-.68-.004-.68-.004-.003-.077-.003-.077h.208c.332 0 .322.013.327-.448a5.26 5.26 0 0 0-.003-.365l-.006-.027-1.328.003-1.327.003-.003.32c-.005.46.008.502.152.502.035 0 .12.004.188.008l.124.008v.136l-.53.003-.646.003h-.113v-.152l.099-.009c.117-.011.171-.036.2-.09.046-.089.061-1.458.018-1.625-.034-.134-.082-.172-.213-.172-.082 0-.086-.005-.087-.107 0-.07-.076-.063.686-.06l.662.003.01.066zm-2.868-.032c.125.015.398.043.646.066.099.01.266.017.37.017h.192v.06c0 .047-.013.085-.066.195a14.918 14.918 0 0 0-.128.27c-.015.016-.093-.062-.128-.128-.107-.202-.205-.248-.659-.31-1.17-.16-2.197.244-2.197.864 0 .595.685.987 1.719.986.636 0 .936-.083 1.166-.32l.052-.053h.115c.136 0 .132-.018.043.197l-.08.195c-.008.02-.024.026-.086.033a3.863 3.863 0 0 0-.253.042c-1.424.282-2.903-.054-3.23-.734a.76.76 0 0 1-.04-.517c.149-.434.792-.75 1.753-.86l.14-.018c.053-.009.564.003.67.015zm8.258.138a136.721 136.721 0 0 0 .958 1.247c.171.224.369.47.415.515.094.091.183.127.35.139l.107.008v.146l-.685-.002-.686-.001v-.175l.127-.014c.238-.027.236-.053-.017-.342-.224-.256-.174-.244-1.02-.245-.64 0-.645 0-.794.175a6.23 6.23 0 0 1-.094.11c-.241.254-.217.302.162.316l.207.008v.073c0 .091.026.085-.304.074a14.64 14.64 0 0 0-.639-.002l-.364.007v-.166h.09c.196 0 .288-.048.425-.22.048-.062.198-.247.331-.41a269.295 269.295 0 0 0 .972-1.199l.16-.201h.178l.12.159zm4.293-.131c.468.063.748.276.733.559-.014.26-.212.417-.67.533-.08.02-.083.027-.041.08.086.108.363.309.707.512.53.312.797.411 1.112.411h.109l-.004.055-.003.056-.076.02a1.414 1.414 0 0 1-.605.01l-.119-.03c-.476-.122-1.189-.492-1.482-.77-.21-.2-.286-.237-.548-.263-.125-.013-.509-.008-.523.006a5.982 5.982 0 0 0-.011.359c-.007.478-.011.47.306.493l.175.012.004.08.003.08-.097-.007a20.244 20.244 0 0 0-.69-.007h-.592l.003-.073.004-.073.11-.013c.165-.02.21-.049.248-.153.02-.059.019-1.51-.002-1.573-.025-.074-.123-.13-.287-.16l-.075-.015v-.134l.703-.003 1.094-.006c.284-.002.425.002.514.014zm-1.396.157a.135.135 0 0 0-.05.061c-.019.054-.019.689 0 .724l.013.024.527-.006c.834-.01 1.075-.063 1.172-.258.108-.216-.04-.395-.389-.474-.368-.083-1.18-.128-1.273-.071zm-3.248.412-.195.237-.245.297a.555.555 0 0 0-.074.1c0 .025.886.04 1.042.019l.056-.008-.165-.204-.272-.336c-.115-.143-.115-.143-.147-.105zm13.311 2.946c-.017.003-.032.01-.032.016s-.012.011-.026.011c-.03 0-.137.064-.137.082 0 .006-.008.012-.017.012-.009 0-.03.017-.046.038l-.04.05a.157.157 0 0 0-.02.04c-.005.016-.014.032-.02.036-.006.004-.014.03-.017.056-.004.026-.011.048-.017.048a.382.382 0 0 0-.01.123c0 .067.005.122.01.122.006 0 .014.021.018.047.004.026.012.046.018.046.006 0 .014.017.019.037.009.04.145.185.174.185.01 0 .018.005.018.01 0 .006.014.015.032.019.017.004.036.014.04.022.013.02.35.019.357-.001.003-.008.016-.015.03-.015.046 0 .23-.148.23-.186 0-.007.005-.012.01-.012.007 0 .016-.015.02-.032a.087.087 0 0 1 .019-.04c.018-.012.035-.176.027-.273a.49.49 0 0 0-.26-.39 2.254 2.254 0 0 1-.08-.039 1.266 1.266 0 0 0-.3-.012zm.33.168c.252.154.267.468.033.66a.395.395 0 0 1-.05.03c-.153.08-.318.054-.453-.071a.233.233 0 0 1-.055-.067c0-.009-.004-.016-.009-.016-.012 0-.036-.056-.044-.105a.309.309 0 0 0-.02-.068c-.01-.019-.01-.03-.001-.035.007-.004.015-.036.02-.071a.193.193 0 0 1 .016-.07.131.131 0 0 0 .023-.039c.018-.04.098-.125.117-.125.008 0 .015-.006.015-.012s.013-.015.029-.019.029-.011.029-.017c0-.042.272-.023.35.025zm-.438.084a3.585 3.585 0 0 0-.003.283l.003.268.056.004.055.003v-.222h.047c.06 0 .093.033.165.172.026.05.132.075.156.037a.747.747 0 0 0-.125-.21c-.005 0-.01-.008-.01-.017 0-.01.007-.018.014-.018.008 0 .028-.016.046-.035a.165.165 0 0 0-.06-.264c-.045-.02-.336-.021-.344-.001zm.269.121c.047.047.019.08-.073.084l-.085.003v-.106h.07c.048 0 .074.006.088.019z" fill="#0E4A86"/><path d="M16.628 15.289c-.826.016-1.82.061-2.789.127a47.574 47.574 0 0 0-3.5.385c-.033.006-.117.02-.188.03a5.515 5.515 0 0 0-.285.047 4.64 4.64 0 0 0-.146.024l-.158.029a20.02 20.02 0 0 0-.84.163l-.222.047a8.279 8.279 0 0 0-.122.027l-.152.035a23.465 23.465 0 0 0-1.021.265 15.2 15.2 0 0 0-.945.308 8.372 8.372 0 0 0-.782.335c-.99.49-1.372 1.006-1.118 1.509.168.332.714.737 1.369 1.015l.151.066a12.162 12.162 0 0 0 1.53.518 28.067 28.067 0 0 0 1.236.302 39.402 39.402 0 0 0 1.336.253l.178.028a35.33 35.33 0 0 0 1.818.245l.268.03c.055.007.152.017.216.023l.31.029a57.526 57.526 0 0 0 3.664.216c.425.015 2.72.015 3.127 0l.636-.023a47.893 47.893 0 0 0 2.842-.175l.192-.018a37.237 37.237 0 0 0 1.278-.141l.414-.051a4.91 4.91 0 0 0 .158-.022c.042-.007.155-.024.25-.037a19.338 19.338 0 0 0 .684-.105 36.728 36.728 0 0 0 1.015-.187c.101-.02.368-.076.46-.098l.112-.024a14.81 14.81 0 0 0 .507-.121c.306-.07.93-.252 1.29-.377.149-.051.523-.19.577-.214a6.442 6.442 0 0 0 .837-.405c1.407-.807 1.074-1.685-.947-2.495a4.95 4.95 0 0 0-.28-.105 13.018 13.018 0 0 0-.83-.268 20.11 20.11 0 0 0-1.429-.357l-.128-.029a35.17 35.17 0 0 0-1.54-.279 24.519 24.519 0 0 0-.275-.04 22.785 22.785 0 0 1-.285-.042 5.345 5.345 0 0 0-.164-.023l-.222-.03a38.494 38.494 0 0 0-1.108-.128l-.525-.052-.339-.03-.356-.03c-.5-.041-1.55-.1-2.316-.127a73.18 73.18 0 0 0-3.443-.023zm2.696.32a51.22 51.22 0 0 1 1.978.071 58.206 58.206 0 0 1 2.41.18 40.625 40.625 0 0 0 .566.06l.21.023.245.03c.074.01.179.022.233.028.055.006.136.016.181.023l.374.054a28.52 28.52 0 0 1 2.415.437 23.979 23.979 0 0 1 .695.175c2.745.743 3.392 1.76 1.675 2.631a8.849 8.849 0 0 1-1.658.606l-.175.047a11.528 11.528 0 0 1-.572.14l-.175.04-.134.03-.17.034-.233.047a28.548 28.548 0 0 1-1.564.264 10.47 10.47 0 0 1-.607.081 2.87 2.87 0 0 0-.134.018 2.29 2.29 0 0 1-.134.016l-.256.03a18.717 18.717 0 0 1-.479.052 38.68 38.68 0 0 1-1.225.112c-.285.024-.629.047-1.295.087a66.68 66.68 0 0 1-6.413.03 65.846 65.846 0 0 1-2.095-.134l-.332-.03a32.978 32.978 0 0 1-.829-.082 6.068 6.068 0 0 1-.17-.017l-.238-.029a38.771 38.771 0 0 1-2.072-.297l-.163-.03c-.94-.168-1.82-.382-2.503-.608a8.083 8.083 0 0 1-.558-.203c-1.934-.76-1.877-1.762.144-2.506a12.305 12.305 0 0 1 .583-.199 18.765 18.765 0 0 1 1.995-.487 31.847 31.847 0 0 1 2.2-.344l.24-.03c.09-.01.202-.023.25-.03l.205-.022.28-.029c.09-.01.254-.025.366-.035l.245-.023c.089-.012.787-.066 1.203-.093l.444-.03.332-.018a65.7 65.7 0 0 1 4.715-.07zm4.614 1.666c-.152.269-.208.375-.202.384.003.006.055.01.115.01h.108l.032-.044c.095-.139.105-.14.69-.15.747-.012.816-.003.838.115.015.078.022 1.192.01 1.392-.022.338-.03.349-.29.368a7.29 7.29 0 0 0-.233.02l-.057.01v.162l.186-.006c.103-.003.53-.005.949-.005l.761.001v-.156l-.178-.007c-.415-.02-.418-.022-.44-.399-.053-.868-.05-1.336.008-1.416.063-.087.526-.126 1.106-.095.32.017.37.031.345.099a.511.511 0 0 0-.017.068l-.008.044.125-.003.125-.004.09-.221.09-.222-.11-.003c-.079-.003-.116 0-.135.013-.082.052-.356.065-1.427.065-1.694 0-2.152-.023-2.4-.121-.015-.006-.032.016-.08.1zM11.664 17.2c-.013.004-.016.096-.005.139.007.023.015.026.08.026.131 0 .18.038.213.172.043.167.028 1.536-.018 1.624-.028.055-.083.08-.2.09l-.1.01v.152h.114l.645-.003.531-.003v-.136l-.124-.008a4.095 4.095 0 0 0-.188-.008c-.144 0-.157-.043-.152-.501l.003-.321 1.327-.003 1.328-.003.006.026c.004.015.005.18.003.366-.005.46.005.448-.328.448h-.207l.003.077.004.077.68.004.68.004v-.162h-.074c-.144 0-.226-.037-.262-.116-.027-.06-.03-1.54-.004-1.623.042-.13.07-.15.214-.151.13 0 .137-.006.137-.112v-.051l-.68-.004c-.374-.001-.683 0-.687.003a.237.237 0 0 0-.012.076l-.004.07.219.007c.343.012.337.003.325.485l-.007.337-1.29.003-1.291.003-.008-.346c-.011-.48-.014-.475.288-.481.209-.005.2 0 .186-.1l-.01-.066-.661-.003a30.452 30.452 0 0 0-.674.002zm-2.194.02-.14.017c-1.254.145-1.945.642-1.758 1.262.228.756 1.751 1.151 3.275.85.097-.02.21-.038.252-.043.063-.006.079-.012.087-.032l.08-.196c.089-.214.093-.196-.043-.196h-.115l-.052.053c-.177.182-.429.281-.787.309-1.022.08-1.773-.167-2.025-.666-.381-.756.722-1.365 2.124-1.173.454.062.552.108.66.31.034.066.112.143.127.127a16.603 16.603 0 0 1 .128-.27c.053-.11.066-.147.066-.195v-.059h-.191c-.105 0-.272-.008-.37-.017a42.801 42.801 0 0 1-.647-.066 7.66 7.66 0 0 0-.671-.015zm8.47.195-.304.378c-.345.425-.438.54-.668.82a55.06 55.06 0 0 0-.332.41c-.137.173-.228.22-.424.22h-.09v.167l.364-.008c.2-.004.488-.003.64.002.33.012.303.018.303-.073v-.073l-.207-.008c-.379-.014-.403-.062-.162-.317.007-.007.05-.056.094-.109.149-.174.154-.176.793-.175.847.001.797-.011 1.02.244.254.29.256.316.018.343l-.127.014v.175l.686.001.685.001v-.145l-.108-.008c-.166-.012-.255-.048-.349-.14a9.042 9.042 0 0 1-.415-.515l-.157-.204a507.118 507.118 0 0 1-.801-1.043l-.121-.159H18.1l-.16.202zm3.144-.181-.703.003v.134l.075.015c.164.03.262.085.287.16.02.063.022 1.514.002 1.572-.037.105-.084.134-.247.154l-.111.013-.004.073-.003.072h.593c.326 0 .636.004.69.008l.096.008-.003-.081-.004-.08-.175-.013c-.317-.021-.313-.014-.306-.492a8.53 8.53 0 0 1 .01-.36c.015-.014.4-.018.524-.006.262.027.338.063.548.263.293.278 1.006.65 1.482.77.042.011.095.025.119.03.157.042.433.037.605-.01l.076-.02.003-.055.004-.055h-.109c-.315 0-.581-.099-1.112-.412-.344-.202-.621-.403-.707-.511-.042-.053-.039-.06.042-.08.456-.116.655-.274.669-.533.01-.207-.132-.375-.407-.48-.213-.081-.351-.096-.84-.093l-1.094.006zm1.007.166c.66.065.925.19.9.427-.03.29-.264.363-1.205.375l-.527.006-.013-.024c-.02-.035-.019-.67 0-.724.032-.092.315-.113.845-.06zm-3.896.516.272.336.165.204-.056.008c-.156.021-1.043.006-1.042-.019 0-.007.033-.052.074-.1l.245-.297c.215-.263.215-.263.227-.263.005 0 .057.059.115.131z" fill="#fff"/></g></svg>