<svg width="36" height="36" fill="none" xmlns="http://www.w3.org/2000/svg"><path d="M18 0c2.837 0 5.52.656 7.907 1.825C31.884 4.753 36 10.895 36 18c0 9.942-8.058 18-18 18-9.94 0-18-8.057-18-18C0 8.06 8.06 0 18 0z" fill="#F2F4F7"/><path d="M4 17.969C4 15.225 6.31 13 9.159 13c2.313 0 4.271 1.466 4.926 3.486l-1.964-.006c-.557-1.028-1.674-1.728-2.962-1.728-1.846 0-3.342 1.44-3.342 3.217 0 1.777 1.497 3.217 3.342 3.217a3.424 3.424 0 0 0 1.668-.43l-.49 2.05a5.304 5.304 0 0 1-1.178.131C6.309 22.937 4 20.713 4 17.97zm16.406-.311h-1.704l-.603 2.715c-.14.705-.462 1.188-1.184 1.188-.39 0-.562-.232-.562-.521 0-.202.024-.403.07-.6l.592-2.782h-1.703l-.672 3.043c-.066.263-.1.532-.101.802 0 .271.14 1.314 1.557 1.314.702 0 1.324-.27 1.703-.83h.02l-.15.685h1.635l1.102-5.014zm.18 5.014h1.704l.5-2.3c.171-.85.533-1.419 1.466-1.419.26-.002.52.031.772.098l.331-1.45c-.17-.077-.34-.086-.572-.086-.692 0-1.284.376-1.635.966h-.02l.19-.82h-1.654l-1.082 5.01zm7.472-6.898h-1.703l-.271 1.256h1.703l.271-1.256zm-3.2 6.898h1.705l1.084-5.013h-1.704l-1.085 5.013zm6.39-6.522h-1.704l-.331 1.51h-.865l-.23 1.062h.862l-.4 1.816c-.131.59-.202.976-.202 1.323 0 .764.823.87 1.616.87.331 0 .652-.038.993-.058l.26-1.226c-.18.01-.35.029-.53.029-.293 0-.533-.02-.533-.26a2.88 2.88 0 0 1 .09-.6l.412-1.894h1.083L32 17.66h-1.073l.32-1.51z" fill="#0A2F78"/><path d="m11.65 22.189.696-2.98h-2.329l.34-1.561h3.957l-1.106 5.013h-1.665l.108-.472z" fill="#0A2F78"/></svg>