<svg width="36" height="36" fill="none" xmlns="http://www.w3.org/2000/svg"><path d="M18 0c2.837 0 5.52.656 7.907 1.825C31.884 4.753 36 10.895 36 18c0 9.942-8.058 18-18 18-9.94 0-18-8.057-18-18C0 8.06 8.06 0 18 0z" fill="#F2F4F7"/><path d="M6.035 15.274v.077c-.133.019-.114.17-.114.342l.02.266c-.039.02-.096.02-.134.038a2.43 2.43 0 0 1-.628.114C4.533 16.111 4 15.77 4 15.065 4 14.4 4.495 14 5.198 14c.248 0 .514.057.761.133-.038.152-.038.286-.057.438h-.076c0-.19.038-.248-.133-.343a1.026 1.026 0 0 0-.476-.114c-.57 0-.913.361-.913.875 0 .59.343.99.932.99.229 0 .38-.039.419-.115.019-.095 0-.4 0-.456 0-.057-.133-.057-.323-.076v-.096h.703v.038zm.475-.874c0-.229 0-.248-.284-.267v-.095c.17 0 .323.02.494.02.171 0 .342 0 .514-.02.4-.019.59.19.59.438 0 .323-.286.513-.571.551l.665.856c.038.058.115.077.172.077v.095c-.057 0-.133-.02-.19-.02-.058 0-.134 0-.19.02l-.115-.172-.685-.894-.019-.019c.095 0 .171 0 .267-.019.209-.038.38-.19.38-.4 0-.303-.228-.399-.457-.399-.095 0-.209.02-.285.039-.019.057-.019.114-.019.209v1.331c0 .229 0 .248.285.267v.095c-.133 0-.285-.02-.418-.02s-.285 0-.418.02v-.095c.285-.02.285-.038.285-.267V14.4zm2.207 1.274c0 .095 0 .171.02.247.114.02.247.02.399.02.152 0 .323 0 .475-.058a.358.358 0 0 0 .038-.152l.02-.152h.095a.71.71 0 0 0-.038.228v.247a3.527 3.527 0 0 1-.476.02c-.171 0-.342-.02-.514-.02-.17 0-.342 0-.532.02v-.096c.152 0 .247-.076.247-.266v-1.313c0-.228 0-.247-.285-.266v-.095c.171 0 .342.02.532.02.172 0 .362 0 .533-.02.19 0 .38 0 .476.02-.039.094-.039.19-.039.284v.172h-.095c0-.114-.019-.19-.038-.286a1.623 1.623 0 0 0-.437-.057c-.133 0-.266 0-.362.02-.019.075-.019.132-.019.246v.533c.628 0 .666.038.685-.247h.095v.666h-.095c0-.324-.019-.305-.685-.286v.571zm3.043 0c.039.095.077.19.153.266.038.038.095.038.152.057v.096c-.133 0-.247-.02-.38-.02s-.267 0-.38.02v-.096c.075 0 .152 0 .209-.038.038-.019.038-.076.019-.114l-.172-.418h-.818c-.038.076-.19.418-.19.494 0 .095.133.076.248.095v.096c-.115 0-.229-.02-.343-.02-.114 0-.228 0-.342.02v-.096c.171-.038.19 0 .247-.152l.133-.304.4-.875c.095-.21.19-.419.266-.628h.095l.704 1.617zm-.456-.4-.361-.874-.361.874h.722zm1.579-.798c0-.115 0-.21-.019-.286l-.437.02c-.057 0-.095.018-.095.094a.684.684 0 0 0-.039.21h-.095v-.172c0-.095 0-.209-.019-.304.286 0 .552.02.837.02.286 0 .552 0 .837-.02 0 .114-.019.21-.019.304v.172h-.095c0-.076-.019-.152-.038-.229.02-.076-.019-.076-.076-.076l-.457-.019c0 .095 0 .171-.019.286v1.255c0 .228 0 .247.286.266v.095c-.133 0-.286-.019-.419-.019s-.285 0-.418.02v-.096c.285-.019.285-.038.285-.266v-1.255zm1.103.951h-.019l.076-.21h.761l.02.02-.096.19h-.742zm1.161-1.066-.02-.076c-.037-.133-.056-.152-.19-.152H14.9v-.095c.114 0 .247.02.36.02.134 0 .248 0 .362-.02v.095c-.285-.019-.247.095-.209.21l.057.285.228 1.008.362-.913.266-.704h.095l.095.266.495 1.35.228-.798.133-.514c.038-.114.076-.209-.228-.19v-.095c.095 0 .21.02.304.02.096 0 .21 0 .305-.02v.095c-.114 0-.133 0-.19.114l-.419 1.389-.114.456h-.152l-.21-.608-.36-.99-.514 1.294-.115.304h-.152a2.368 2.368 0 0 0-.076-.304l-.304-1.427zm3.272 1.313c0 .095 0 .171.018.247.115.02.248.02.4.02.152 0 .323 0 .476-.058a.358.358 0 0 0 .038-.152l.018-.152h.096a.71.71 0 0 0-.038.228v.247c-.114.02-.305.02-.476.02-.171 0-.342-.02-.514-.02-.17 0-.342 0-.532.02v-.096c.152 0 .247-.076.247-.266v-1.313c0-.228 0-.247-.285-.266v-.095c.171 0 .342.02.532.02s.362 0 .533-.02c.19 0 .38 0 .476.02-.039.094-.039.19-.039.284v.172h-.095c0-.114-.019-.19-.038-.286a1.623 1.623 0 0 0-.437-.057c-.133 0-.266 0-.361.02-.02.075-.02.132-.02.246v.533c.628 0 .666.038.685-.247h.095v.666h-.095c0-.324-.019-.305-.684-.286v.571zm2.339-1.141c0-.114 0-.19-.038-.229-.076-.114-.285-.17-.418-.17-.248 0-.438.17-.438.418 0 .627 1.16.114 1.16.837 0 .494-.437.742-.875.742a1.11 1.11 0 0 1-.494-.115c.019-.114.019-.247.019-.361v-.076h.095v.133c0 .057 0 .114.038.152.114.095.304.133.457.133.266 0 .513-.152.513-.437 0-.704-1.141-.038-1.141-.894 0-.4.342-.647.704-.647.19 0 .38.057.57.133 0 .038-.019.095-.019.133 0 .095-.019.171-.019.267h-.114v-.02zm1.084-.057c0-.115 0-.21-.019-.286l-.437.02c-.057 0-.095.018-.095.094a.956.956 0 0 0-.038.229h-.095v-.171c0-.096 0-.21-.02-.305.286 0 .552.02.837.02.286 0 .552 0 .837-.02 0 .114-.019.21-.019.304v.172h-.095a.956.956 0 0 0-.038-.229c0-.076-.038-.076-.095-.095l-.456-.019c0 .095 0 .171-.02.286v1.255c0 .228 0 .247.286.266v.096c-.133 0-.285-.02-.419-.02-.133 0-.285 0-.418.02v-.096c.285-.019.285-.038.285-.266v-1.255h.02z" fill="#231F20"/><path d="m5.96 20.41.018.247c.267.02.609.02.913.02.343 0 .704-.02 1.047-.115.019-.057.038-.133.057-.209l.152-.552.209.02c-.019.095-.038.266-.057.437l-.076.685c-.21.038-.628.019-1.008.038-.362-.02-.723-.038-1.104-.038-.38 0-.741.019-1.103.038v-.19c.305-.058.343-.248.343-.761v-2.797c0-.494 0-.551-.61-.59v-.19c.286.039.59.039.895.039.323 0 .628-.02.932-.038v.19c-.628.038-.609.076-.609.59v3.176zm3.956-.21c0 .495 0 .553.608.59v.19c-.304-.018-.608-.037-.932-.037-.323 0-.627.019-.913.038v-.19c.628-.038.609-.076.609-.59v-2.968c0-.494 0-.551-.609-.59v-.19c.286.02.59.039.913.039.324 0 .628-.02.932-.038v.19c-.627.038-.608.076-.608.59V20.2zm1.56-2.967c0-.494 0-.551-.61-.59v-.19c.4.02.78.039 1.18.039.4 0 .8-.02 1.18-.038.399 0 .855 0 1.065.038a1.8 1.8 0 0 0-.095.627c0 .134-.02.248-.02.38h-.209c0-.246-.038-.437-.095-.627-.304-.095-.646-.114-.97-.114-.285 0-.59 0-.799.038-.019.114-.038.228-.038.419v1.331c1.408.019 1.503.095 1.503-.552h.21v1.484h-.21c0-.723-.038-.685-1.503-.647v1.35c0 .495 0 .552.609.59v.19c-.304-.018-.609-.037-.932-.037-.324 0-.628.019-.913.038v-.19c.627-.038.608-.076.608-.59v-2.948h.039zm4.204 2.854c0 .228 0 .38.037.551.248.038.571.038.875.038.343 0 .704-.019 1.047-.114a1.61 1.61 0 0 0 .076-.323l.057-.361h.209c-.02.133-.057.323-.057.532v.533c-.247.038-.666.019-1.065.038-.38-.02-.761-.038-1.16-.038-.4 0-.78.019-1.161.038v-.19c.323-.02.552-.153.552-.59v-2.968c0-.494 0-.551-.609-.59v-.19c.4.02.78.039 1.18.039.399 0 .798-.02 1.179-.038.4 0 .856 0 1.065.038a1.798 1.798 0 0 0-.095.627c0 .134-.02.248-.02.38h-.209c0-.246-.037-.437-.095-.627-.304-.095-.646-.114-.97-.114-.285 0-.59 0-.799.038a3.857 3.857 0 0 0-.038.533v1.217c1.408.019 1.503.095 1.503-.552h.21v1.484h-.21c0-.723-.038-.685-1.503-.647v1.256zm6.771.609c-.4.228-1.046.38-1.465.38-1.426 0-2.625-.837-2.625-2.377 0-1.503 1.218-2.34 2.492-2.34.57 0 1.141.133 1.674.285-.057.324-.095.647-.133.97h-.19c-.02-.418.076-.57-.305-.742a2.17 2.17 0 0 0-1.046-.247c-1.065 0-1.807.761-1.807 1.921 0 1.294.837 2.188 2.13 2.188.457 0 .933-.152 1.313-.4l.057.058-.095.304zm5.289-2.112a2.464 2.464 0 0 1-2.493 2.492c-1.312 0-2.301-.913-2.301-2.378 0-1.312.932-2.358 2.434-2.34 1.389.02 2.36.78 2.36 2.226zm-.686.19c0-1.274-.57-2.13-1.769-2.13-1.122 0-1.636.78-1.636 1.845 0 1.122.533 2.32 1.807 2.32 1.066-.075 1.598-.836 1.598-2.035z" fill="#9A8347"/><path d="M28.424 19.802c0 .152 0 .17.19.17v.058c-.095 0-.19-.02-.285-.02-.095 0-.19 0-.267.02v-.057c.19-.02.19-.02.19-.171v-.895c0-.152 0-.17-.19-.17v-.058c.096 0 .172.02.267.02.095 0 .19 0 .285-.02v.057c-.19.02-.19.02-.19.171v.895zm1.522.018v-.97c0-.114-.038-.133-.152-.133h-.039v-.057c.076 0 .153.02.229.02.076 0 .152 0 .228-.02v.057h-.038c-.114 0-.152.02-.152.133v1.199l-.152-.02-.933-1.14v.95c0 .115.039.134.153.134h.038v.057c-.076 0-.152-.02-.229-.02-.076 0-.152 0-.228.02v-.057h.038c.114 0 .152-.02.152-.133v-.97c0-.115-.038-.134-.133-.134h-.019v-.057c.057 0 .114.02.171.02.058 0 .115 0 .172-.02l.894 1.142zm1.578.115c-.114.076-.323.114-.437.114-.438 0-.78-.248-.78-.704 0-.457.362-.704.742-.704.171 0 .342.038.495.095-.02.095-.039.19-.039.285h-.057c0-.133.02-.17-.095-.228a.648.648 0 0 0-.304-.076c-.323 0-.533.229-.533.57 0 .381.248.648.647.648a.75.75 0 0 0 .4-.114l.018.018-.056.096zm.248-.019c0-.057.057-.114.114-.114s.114.057.114.114a.123.123 0 0 1-.114.114.123.123 0 0 1-.114-.114z" fill="#231F20"/></svg>