<svg width="36" height="36" fill="none" xmlns="http://www.w3.org/2000/svg"><path d="M18 0c2.837 0 5.52.656 7.907 1.825C31.884 4.753 36 10.895 36 18c0 9.942-8.058 18-18 18-9.94 0-18-8.057-18-18C0 8.06 8.06 0 18 0z" fill="#F2F4F7"/><path d="m19.481 17.69 3.171 4.741h-2.946l-1.77-2.8-1.785 2.8h-2.88l3.171-4.702-3.039-4.543h2.946l1.626 2.601 1.665-2.602h2.88l-3.039 4.504zM8.97 13C6.114 13 4 15.113 4 17.808v.027c0 2.8 2.14 4.781 5.021 4.781 1.692 0 3.04-.62 4.018-1.44V17.03H9.708l-1.289 1.875h2.188v1.123c-.37.251-.846.383-1.48.383-1.467 0-2.51-1.07-2.51-2.575v-.027c0-1.413 1.03-2.523 2.365-2.523.644 0 1.153.154 1.626.434l1.341-1.95c-.811-.494-1.762-.769-2.98-.769zM32 17.782v.026c0 2.655-2.093 4.808-4.885 4.808-2.791 0-4.86-2.127-4.86-4.782v-.026c0-2.655 2.094-4.808 4.886-4.808C29.932 13 32 15.127 32 17.782zm-2.572.026c0-1.347-.93-2.496-2.313-2.496s-2.3 1.136-2.3 2.47v.026c0 1.334.943 2.496 2.326 2.496 1.37 0 2.287-1.135 2.287-2.47v-.026z" fill="#FF3A00"/></svg>