<svg width="36" height="36" fill="none" xmlns="http://www.w3.org/2000/svg"><path d="M18 0c2.837 0 5.52.656 7.907 1.825C31.884 4.753 36 10.895 36 18c0 9.942-8.058 18-18 18-9.94 0-18-8.057-18-18C0 8.06 8.06 0 18 0z" fill="#F2F4F7"/><path fill-rule="evenodd" clip-rule="evenodd" d="M6 11h24v14.461H6V11z" fill="#004990"/><path fill-rule="evenodd" clip-rule="evenodd" d="M24.992 19.018a11.333 11.333 0 0 0-.143-.355h-.67c-.071 0-.102-.01-.122.06-.143.367-.183.519-.183.57 0 .091.071.101.162.101.02 0 .183-.01.214.03.01.011.01.021.01.031 0 .041-.01.072-.061.072-.02 0-.06-.01-.457-.01-.204 0-.204.01-.224.01-.04 0-.04-.051-.04-.072 0-.06.101-.06.131-.06.061 0 .082-.031.122-.153.204-.59.458-1.3.783-2.104.01-.03.02-.04.05-.04h.021c.04 0 .05.01.071.05.02.052.58 1.566.803 2.094.05.122.081.153.213.153.02 0 .112.01.112.05 0 .03-.01.082-.05.082-.041 0-.031-.01-.427-.01-.448 0-.468.01-.498.01-.03 0-.03-.061-.03-.071 0-.061.121-.061.151-.061.143 0 .163-.02.163-.061 0-.031-.04-.163-.101-.316zm-.529-1.422-.01.02c-.06.132-.112.274-.162.406a5.887 5.887 0 0 0-.153.478c0 .02 0 .02.01.02.03.01.071.01.102.01h.549l-.336-.934zm-1.768-2.155a6.27 6.27 0 0 0-.142-.356h-.67c-.072 0-.092-.01-.123.061-.142.366-.183.508-.183.57 0 .09.071.101.163.101.02 0 .183-.01.213.03.01.01.01.021.01.031 0 .04-.01.071-.05.071-.031 0-.072-.01-.468-.01-.203 0-.203.01-.224.01-.04 0-.04-.05-.04-.07 0-.062.101-.062.132-.062.06 0 .081-.03.122-.162.203-.58.457-1.291.782-2.094.01-.03.02-.04.051-.04h.02c.041 0 .051.01.072.05.02.051.579 1.565.802 2.094.051.122.082.152.214.152.02 0 .111.01.111.051 0 .03-.01.081-.05.081-.03 0-.03-.01-.427-.01-.447 0-.468.01-.498.01-.03 0-.03-.06-.03-.08 0-.052.121-.052.152-.052.142 0 .162-.02.162-.06 0-.031-.04-.163-.101-.316zm-.528-1.423-.01.02c-.061.133-.112.275-.163.407a5.884 5.884 0 0 0-.152.478c0 .02 0 .02.01.02.03.01.07 0 .101 0h.55l-.336-.925zm-1.83 6.87c-.04.03-.04.092-.04.234v.772c0 .061.01.112.172.112.356 0 .62-.203.62-.58 0-.335-.213-.568-.528-.568-.132 0-.193.01-.224.03zm-.406 1.982c.01-.163.01-.386.01-.529v-.803c0-.233 0-.314-.01-.467 0-.183-.03-.213-.264-.213-.051 0-.051-.03-.051-.061 0-.02.01-.061.04-.061.031 0 .255.01.458.01.03 0 .294-.01.467-.01.803 0 .895.528.895.67 0 .478-.336.722-.793.722-.132 0-.254 0-.386-.03v.7c.01.123.02.204.355.204.041 0 .102 0 .112.04v.051c-.01.02-.02.03-.04.03h-1.129c-.03 0-.04-.01-.04-.03v-.05c.01-.041.07-.041.101-.041.265 0 .275-.061.275-.132zm-4.553-2.165c.712 0 1.24.427 1.24 1.28 0 .468-.335 1.18-1.24 1.18-.904 0-1.24-.712-1.24-1.159 0-.813.6-1.3 1.24-1.3zm0 2.348c.762 0 .823-.722.823-1.118 0-.468-.223-1.118-.823-1.118-.752 0-.813.843-.813 1.118 0 .457.214 1.118.813 1.118zm-3.19-.183c0-.163.01-.386.01-.529v-.803c0-.233-.01-.314-.01-.467 0-.183-.052-.213-.285-.213-.051 0-.051-.03-.051-.061 0-.02.01-.061.04-.061.031 0 .265.01.478.01.082 0 .285-.01.478-.01.386 0 .874.132.874.62 0 .376-.244.508-.56.63l-.01.01c0 .02.163.315.468.69.071.082.163.204.244.265.06.05.112.061.213.061.02 0 .031.01.031.04v.01c0 .042-.01.062-.05.062h-.529c-.02 0-.03-.01-.051-.03-.132-.174-.254-.377-.356-.54-.06-.08-.101-.152-.142-.213a.978.978 0 0 0-.112-.142c-.122-.122-.193-.132-.315-.132v.274c0 .142 0 .366.01.529 0 .07.01.132.265.132.03 0 .101 0 .101.04l.01.01v.041c-.01.02-.02.03-.04.03h-1.006c-.02 0-.03-.01-.041-.03v-.04l.01-.01c0-.041.071-.041.102-.041.203 0 .213-.05.223-.132zm.365-1.789v.864h.254c.386 0 .528-.254.528-.549 0-.294-.183-.538-.548-.538-.204 0-.234.02-.234.223zm4.96-.01c0 .152-.011.234-.011.467v.6c0 .437.183.813.732.813.376 0 .7-.203.7-.986v-.66c0-.224-.02-.335-.08-.386-.061-.051-.163-.061-.336-.061-.03 0-.04-.01-.04-.04v-.021c0-.03 0-.061.04-.061.051 0 .275.01.488.01.102 0 .356-.01.406-.01.051 0 .062.02.062.071 0 .02-.01.05-.041.05-.163 0-.234.011-.285.052-.05.04-.071.132-.071.325v.793c0 .894-.57 1.138-.965 1.138-.752 0-.966-.498-.966-.874v-1.22c-.01-.183-.05-.213-.335-.213-.051 0-.051-.03-.051-.061 0-.02.01-.061.04-.061s.316.01.529.01c.213 0 .498-.01.518-.01.04 0 .051.04.051.06 0 .032 0 .062-.05.062-.285 0-.336.03-.336.213zm-7.297 1.972c.396 0 .63-.041.63-.265v-.589c0-.071-.03-.102-.346-.102-.03 0-.223.01-.244-.05-.01 0-.01-.01-.01-.01v-.02c0-.062.03-.062.092-.062h1.29c.03 0 .041.01.041.04v.021c0 .071-.02.081-.091.081-.305 0-.326.061-.326.163v.529c0 .101.112.111.112.172 0 .051-.03.061-.071.072-.274.101-.742.152-1.25.152-1.057 0-1.453-.844-1.453-1.372 0-.945.701-1.514 1.453-1.514.498 0 .813.06 1.087.254.01 0 .041.02.051.02.02 0 .082-.071.122-.071h.02c.021.02.021.071.021.091v.092c0 .417.02.467.02.528 0 .041-.06.051-.091.051-.051 0-.122-.274-.132-.295-.102-.294-.427-.548-.996-.548-.468 0-1.067.457-1.067 1.382 0 .853.61 1.25 1.138 1.25zm16.046-3.78c.01-.163.01-.377.01-.52v-.812c0-.234 0-.315-.01-.468 0-.183-.04-.203-.315-.203-.04 0-.05-.04-.05-.071 0-.02.01-.06.05-.06.02 0 .295.02.498.02.213 0 .508-.02.528-.02.04 0 .04.04.04.06 0 .03 0 .071-.05.071-.284 0-.325.02-.325.203-.01.153-.01.234-.01.468v.813c0 .142 0 .356.01.518 0 .102.071.122.335.122.508 0 .742-.01.895-.477.01-.031.01-.051.02-.072 0-.02.01-.03.04-.03.041 0 .082 0 .082.06 0 0-.01.021-.01.062l-.03.132a5.39 5.39 0 0 0-.092.427c0 .03-.02.04-.041.04-.04 0-.081-.01-1.372-.01-.488 0-.467.01-.488.01-.03 0-.04-.01-.04-.04v-.02c0-.062.02-.072.091-.072.254 0 .234-.05.234-.132zm-6.352-2.155c.031.02.061.04.122.04h1.779c.122 0 .152-.081.203-.081.02 0 .03.01.04.02.01.02.021.051.031.112.041.142.092.285.143.427v.01c.01.04-.041.061-.061.061a.056.056 0 0 1-.051-.03c-.163-.285-.315-.397-.55-.397h-.406c-.04 0-.06.02-.06.193v1.28c0 .143 0 .357.01.52 0 .08.01.131.264.131.04 0 .102 0 .112.04v.052c0 .031-.02.041-.041.041-.02 0-.04-.01-.529-.01-.487 0-.497.01-.518.01-.03 0-.04-.01-.04-.04v-.053c.01-.04.07-.04.101-.04.265 0 .275-.052.275-.133 0-.162.01-.376.01-.518v-1.28c0-.102-.01-.153-.03-.173-.021-.02-.041-.02-.102-.02h-.366c-.234 0-.397.192-.518.396-.02.01-.031.02-.051.02h-.02c-.02 0-.062-.01-.062-.03v-.02l.031-.062c.02-.05.06-.162.132-.376.01-.03.01-.132.061-.132.04 0 .061.02.091.04zm-1.676 1.86c.07.253.233.477.569.477.294 0 .447-.183.447-.437 0-.244-.122-.345-.59-.59-.274-.142-.508-.274-.508-.63 0-.355.234-.69.732-.69.132 0 .254.03.376.05a.2.2 0 0 0 .071.01c.02 0 .041-.02.051-.03.02-.02.03-.03.04-.03.031 0 .041.03.041.06 0 .255.051.519.051.54 0 .02-.02.05-.05.05h-.02a.058.058 0 0 1-.052-.03c-.091-.265-.223-.498-.528-.498-.224 0-.417.152-.417.406 0 .214.132.305.254.376.183.122.407.213.58.335a.583.583 0 0 1 .304.529c0 .488-.355.701-.813.701-.01 0-.579-.02-.61-.06-.01-.011-.01-.031-.01-.041-.03-.356-.05-.488-.05-.509 0-.04.05-.04.08-.04.021 0 .042.01.042.03l.01.02zm-.519.548h-1.382c-.487 0-.498.01-.518.01-.03 0-.04-.01-.04-.04v-.02c0-.062.02-.072.08-.072.255 0 .265-.05.275-.132 0-.162.01-.376.01-.518v-.813c0-.234-.01-.315-.01-.468 0-.183-.05-.203-.315-.203-.04 0-.05-.04-.05-.071 0-.02.01-.06.05-.06.02 0 .315.02.518.02.387 0 .874-.02 1.108-.02.04 0 .132-.011.142.04.041.152.082.264.102.335l.03.091.01.031.01.01c0 .04-.04.04-.07.04-.03 0-.051-.03-.071-.05l-.03-.03a2.366 2.366 0 0 0-.275-.265.345.345 0 0 0-.224-.07c-.081 0-.366.01-.488.02-.06 0-.08.05-.08.233v.752h.202c.112 0 .346-.01.376-.173 0-.01.03-.223.061-.244l.01-.01c.041 0 .092 0 .092.041v.488c0 .203.02.315.02.396 0 .03-.03.04-.06.04-.041 0-.062-.01-.062-.05-.05-.346-.101-.366-.416-.366h-.224v.843c0 .123.03.163.142.163h.793c.112 0 .305-.315.376-.406.01-.01.02-.02.05-.02.021 0 .062 0 .062.03 0 .02-.163.488-.204.518zm-3.76-.254c.01-.162.01-.376.01-.518v-1.281c-.01-.183-.05-.203-.315-.203-.05 0-.05-.04-.05-.071 0-.02 0-.06.04-.06.03 0 .295.02.508.02.214 0 .498-.02.519-.02.04 0 .05.04.05.06 0 .03 0 .071-.05.071-.285 0-.336.02-.336.203 0 .153-.01.234-.01.468v.813c0 .142.01.356.01.518.01.102.082.122.336.122.508 0 .742-.01.894-.477.01-.031.02-.051.02-.072.01-.02.02-.03.041-.03.04 0 .081 0 .081.06 0 0 0 .021-.01.062l-.03.132c-.02.112-.061.264-.082.427-.01.03-.03.04-.05.04-.041 0-.072-.01-1.373-.01-.477 0-.497.01-.518.01-.03 0-.04-.01-.04-.04v-.02c0-.062.03-.072.091-.072.254 0 .264-.05.264-.132zm-.64.254h-1.382c-.478 0-.498.01-.518.01-.03 0-.04-.01-.04-.04v-.02c0-.062.02-.072.08-.072.265 0 .275-.05.275-.132 0-.162.01-.376.01-.518v-.813c0-.234-.01-.315-.01-.468 0-.183-.051-.203-.305-.203-.05 0-.05-.04-.05-.071 0-.02 0-.06.04-.06.03 0 .315.02.518.02.386 0 .874-.02 1.118-.02.03 0 .122-.011.132.04.05.152.081.264.112.335l.03.091v.031c.01 0 .01.01.01.01 0 .04-.04.04-.06.04-.031 0-.061-.03-.082-.05l-.03-.03a2.355 2.355 0 0 0-.275-.265.315.315 0 0 0-.213-.07c-.091 0-.376.01-.498.02-.06 0-.081.05-.081.233v.752h.203c.122 0 .345-.01.376-.173 0-.01.03-.223.06-.244.011-.01.011-.01.021-.01.03 0 .082 0 .082.041v.488c0 .203.02.315.02.396 0 .03-.03.04-.061.04-.03 0-.051-.01-.061-.05-.05-.346-.102-.366-.417-.366h-.223v.843c0 .123.03.163.142.163h.793c.111 0 .304-.315.376-.406.01-.01.03-.02.05-.02.031 0 .072 0 .072.03 0 .02-.163.488-.214.518zm-3.1-.07c.295 0 .671-.163.895-.641.01-.03.03-.04.071-.04.03 0 .061.01.061.06 0 .051-.06.437-.06.518 0 .041-.021.072-.062.082-.203.06-.518.142-1.077.142-1.057 0-1.453-.833-1.453-1.362 0-.945.7-1.524 1.453-1.524.335 0 .529.04.65.071.072.02.112.04.143.05.04.021.06.021.091.021.03 0 .051-.01.071-.02l.02-.02c.01-.01.031-.02.062-.02h.01c.02.01.03.04.03.06 0 .234.071.59.071.62 0 .05-.06.071-.091.071-.03-.01-.04-.02-.05-.04-.164-.427-.407-.66-.905-.66-.468 0-1.067.446-1.067 1.371 0 .854.61 1.26 1.138 1.26zm15.173-5.54c-.02-.06-.193-.223-.254-.223h-.122c-.03 0-.04-.02-.05-.05v-.021c0-.04.01-.06.05-.06.02 0 .254.01.315.01.051 0 .244-.01.295-.01h.01l.02.02c.386.436.905 1.056 1.636 1.808.01-.315.03-.874.03-1.189 0-.498-.121-.508-.395-.508-.051 0-.061-.03-.061-.06 0-.041.01-.072.05-.072.051 0 .387.01.478.01.071 0 .417-.01.437-.01.03 0 .04.03.04.061 0 .03-.01.071-.05.071-.254 0-.305.03-.346.264-.02.112-.06 1.667-.06 1.982 0 .05-.031.05-.062.05h-.02c-.03-.02-.05-.05-.081-.08a162.543 162.543 0 0 0-1.728-1.89c0 .274-.01.548-.01.822 0 .488.02.773.02.834 0 .101.061.152.244.152.02 0 .153-.01.173.04.01 0 .01.01.01.01 0 .052-.01.082-.05.082-.031 0-.041-.01-.448-.01-.376 0-.406.01-.427.01-.04 0-.05-.02-.05-.05v-.031c0-.051.132-.051.162-.051.082 0 .193-.02.214-.132 0-.061.04-.691.04-1.647 0-.02 0-.121-.01-.131zm-1.412 1.78c.01-.163.01-.377.01-.52v-1.28c-.01-.182-.051-.203-.336-.203-.05 0-.05-.04-.05-.07 0-.021.01-.062.04-.062s.315.01.529.01c.213 0 .497-.01.518-.01.04 0 .05.04.05.061 0 .03 0 .071-.05.071-.285 0-.335.02-.335.203 0 .153-.01.234-.01.468v.813c0 .142.01.356.01.518.01.082.02.132.274.132.03 0 .091 0 .102.04v.052c0 .021-.01.041-.041.041-.02 0-.03-.01-.518-.01s-.478.01-.498.01c-.03 0-.04-.02-.04-.04v-.052c.01-.04.07-.04.1-.04.265 0 .245-.052.245-.133zm-3.801-.662v-.416H18.66v.416c0 .173.01.427.01.62.01.092.021.153.326.153.05 0 .122 0 .122.07v.042c0 .02-.02.041-.04.041-.031 0-.052-.01-.62-.01-.58 0-.59.01-.62.01-.031 0-.041-.02-.041-.04v-.041c0-.071.07-.071.122-.071.305 0 .315-.061.315-.153.01-.193.02-.447.02-.62v-.945c0-.274-.01-.376-.01-.548-.01-.224-.061-.254-.396-.254-.051 0-.061-.041-.061-.072 0-.03.01-.07.05-.07.03 0 .376.02.62.02s.59-.02.62-.02c.041 0 .041.04.041.07 0 .03 0 .072-.05.072-.336 0-.397.03-.397.254 0 .172-.01.274-.01.548v.376h1.514v-.924c-.01-.224-.061-.254-.396-.254-.051 0-.061-.041-.061-.072 0-.03.01-.07.05-.07.03 0 .366.02.62.02.244 0 .58-.02.61-.02.05 0 .05.04.05.07 0 .03 0 .072-.05.072-.346 0-.396.03-.396.254 0 .172-.01.274-.01.548v.945c0 .173.01.427.01.62.01.092-.02.153.294.153.051 0 .112 0 .122.07v.041c-.01.02-.02.041-.05.041-.03 0-.01-.01-.58-.01-.579 0-.589.01-.62.01-.03 0-.04-.02-.04-.04v-.041c0-.071.071-.071.122-.071.305 0 .315-.061.315-.153.01-.193.01-.447.01-.62zm-4.157.915h-1.372c-.487 0-.498.01-.528.01-.02 0-.03-.02-.04-.04v-.02c0-.062.02-.072.09-.072.255 0 .265-.05.265-.132.01-.163.01-.376.01-.518v-.813c0-.234 0-.315-.01-.468 0-.182-.04-.203-.305-.203-.05 0-.05-.04-.05-.071 0-.02.01-.06.04-.06s.315.01.528.01c.387 0 .864-.01 1.108-.01.03 0 .132-.011.142.04.041.152.082.264.102.335l.03.092.01.02v.02c0 .04-.04.04-.06.04-.03 0-.061-.03-.072-.05l-.04-.03a1.358 1.358 0 0 0-.274-.265.315.315 0 0 0-.214-.07c-.091 0-.366.01-.498.02-.06 0-.081.05-.081.233v.752h.203c.122 0 .356-.02.386-.173 0-.01.02-.223.061-.254h.01c.04 0 .092 0 .092.03v.499c0 .203.01.315.01.396 0 .03-.03.04-.051.04-.04 0-.061-.01-.071-.05-.04-.346-.102-.366-.417-.366H14.8v.844c0 .121.03.152.152.152h.782c.112 0 .305-.305.377-.396.02-.02.03-.03.05-.03.03 0 .071 0 .071.04 0 .02-.162.477-.213.518zm-2.957-.772V14.8h-1.28v.884c.01.081.02.132.274.132.03 0 .091 0 .102.04l.01.021v.03c-.01.02-.02.041-.04.041-.031 0-.041-.01-.53-.01-.487 0-.497.01-.528.01-.02 0-.03-.02-.03-.04l-.01-.02v-.011l.01-.02c.01-.041.07-.041.101-.041.254 0 .265-.05.275-.132 0-.163.01-.376.01-.518v-.813c0-.234-.01-.315-.01-.468 0-.182-.051-.203-.336-.203-.05 0-.05-.04-.05-.071 0-.02.01-.06.04-.06s.315.01.529.01c.213 0 .498-.01.528-.01.03 0 .04.04.04.06 0 .03 0 .071-.05.071-.284 0-.335.02-.335.203v.793h1.28v-.325c0-.234 0-.315-.01-.468 0-.182-.04-.203-.335-.203-.041 0-.041-.04-.041-.071 0-.02 0-.06.04-.06.02 0 .316.01.529.01.203 0 .488-.01.518-.01.04 0 .04.04.04.06 0 .03 0 .071-.05.071-.284 0-.325.02-.325.203-.01.153-.01.234-.01.468v.813c0 .142 0 .355.01.518 0 .081.01.132.264.132.04 0 .102 0 .112.04v.053c0 .02-.02.041-.04.041-.021 0-.041-.01-.519-.01-.498 0-.508.01-.528.01-.03 0-.041-.02-.041-.04v-.053c.01-.041.071-.041.102-.041.264 0 .274-.05.274-.132.01-.163.01-.376.01-.518zm-4.36-1.636c.031.02.061.03.122.03h1.779c.122 0 .152-.081.213-.081.01 0 .02.02.03.03.01.02.021.051.031.112.04.142.092.284.142.427v.01c.01.04-.04.05-.06.05-.02 0-.041 0-.051-.03-.163-.284-.316-.386-.55-.386h-.406c-.04 0-.06.02-.06.193v1.28c0 .143 0 .356.01.519 0 .081.01.132.264.132.04 0 .101 0 .111.04v.052c0 .02-.02.041-.04.041s-.04-.01-.529-.01c-.487 0-.498.01-.518.01-.03 0-.04-.02-.04-.04v-.053c.01-.041.07-.041.101-.041.264 0 .274-.05.274-.132.01-.163.01-.376.01-.518v-1.28c0-.102-.01-.153-.03-.173-.02-.02-.04-.02-.102-.02h-.365c-.234 0-.397.192-.519.385-.02.02-.03.03-.05.03h-.02c-.021 0-.062-.01-.062-.04l.01-.02.02-.051c.02-.05.062-.163.133-.376.01-.03.01-.142.06-.142.042 0 .062.03.092.05zm13.892 5.731c.01-.162.01-.376.01-.518v-1.281c-.01-.183-.05-.203-.335-.203-.05 0-.05-.04-.05-.071 0-.02.01-.06.04-.06s.315.02.529.02c.203 0 .497-.02.518-.02.04 0 .05.04.05.06 0 .03-.01.071-.05.071-.285 0-.335.02-.335.203 0 .153-.01.234-.01.468v.813c0 .142.01.356.01.518.01.081 0 .132.254.132.04 0 .101 0 .111.041v.05c-.01.031-.02.041-.04.041-.031 0-.02-.01-.509-.01-.488 0-.498.01-.528.01-.02 0-.04-.01-.04-.04v-.051c.01-.04.07-.04.111-.04.254 0 .264-.052.264-.133z" fill="#000"/><path fill-rule="evenodd" clip-rule="evenodd" d="M6.71 11.69h22.58v13.08H6.71V11.69zm-.265-.274h23.11v13.628H6.445V11.416z" fill="#fff"/><path fill-rule="evenodd" clip-rule="evenodd" d="M24.9 18.937a6.191 6.191 0 0 0-.142-.356h-.67c-.072 0-.092-.01-.123.061-.142.356-.183.508-.183.559 0 .102.082.112.163.112.02 0 .183-.01.213.03.01.01.01.02.01.03 0 .042-.01.062-.05.062h-.691c-.041 0-.041-.04-.041-.071 0-.051.102-.051.142-.051.051 0 .071-.04.122-.163.193-.589.447-1.3.773-2.103.01-.02.02-.03.05-.03h.02c.041 0 .061 0 .072.04.03.06.579 1.575.813 2.104.05.111.08.152.203.152.02 0 .111 0 .111.05 0 .031-.01.072-.05.072h-.915c-.04 0-.03-.051-.03-.071 0-.061.122-.051.152-.051.132 0 .163-.02.163-.061 0-.04-.05-.173-.112-.315zm-.528-1.423-.01.02a2.78 2.78 0 0 0-.153.407 6.558 6.558 0 0 0-.162.478c0 .01 0 .01.01.02h.651l-.336-.925zm-1.768-2.154c-.051-.143-.112-.285-.143-.366h-.67c-.072 0-.092-.01-.122.06-.143.367-.183.52-.183.57 0 .101.08.112.162.112.02 0 .193-.01.214.03.01.01.01.02.01.02 0 .051-.01.072-.051.072-.03 0-.071-.01-.468-.01-.203 0-.203.01-.223.01-.04 0-.04-.041-.04-.072 0-.05.1-.05.141-.05.051 0 .071-.041.122-.163.193-.59.458-1.3.773-2.104.01-.02.02-.03.05-.04h.031c.04 0 .05.01.061.05.03.062.58 1.576.813 2.104.05.112.081.153.203.153.02 0 .112 0 .112.05 0 .03-.01.072-.051.072-.03 0-.02-.01-.427-.01-.447 0-.467.01-.488.01-.03 0-.03-.051-.03-.072 0-.06.122-.05.152-.05.133 0 .163-.02.163-.061 0-.041-.05-.173-.111-.315zm-.529-1.433-.01.02c-.061.132-.102.275-.152.417a6.66 6.66 0 0 0-.163.477c0 .01 0 .01.01.02h.651l-.336-.934zm-1.83 6.88c-.03.03-.04.091-.04.234v.762c0 .07.01.111.173.111.356 0 .62-.203.62-.569 0-.335-.214-.569-.529-.569-.132 0-.193 0-.223.03zm-.406 1.971c.01-.162.01-.376.01-.518v-.813c0-.234 0-.315-.01-.468 0-.182-.03-.203-.264-.203-.04 0-.05-.03-.05-.07 0-.021.01-.062.05-.062.02 0 .244.02.447.02.03 0 .305-.02.478-.02.793 0 .884.529.884.67 0 .489-.335.732-.793.732a2.61 2.61 0 0 1-.386-.03c0 .508 0 .6.01.701 0 .122.01.193.356.193.03 0 .091 0 .102.051v.04c0 .031-.02.041-.041.041-.02 0-.112-.01-.61-.01-.477 0-.498.01-.518.01-.02 0-.04-.01-.04-.04v-.04c.01-.052.07-.052.11-.052.255 0 .265-.05.265-.132zm-4.552-2.154c.711 0 1.24.417 1.24 1.28 0 .458-.336 1.18-1.24 1.18a1.19 1.19 0 0 1-1.24-1.17c0-.802.6-1.29 1.24-1.29zm0 2.347c.772 0 .823-.721.823-1.118 0-.477-.224-1.118-.823-1.118-.752 0-.813.844-.813 1.118 0 .458.223 1.118.813 1.118zm-3.191-.193c0-.162.01-.376.01-.518v-.813c0-.234-.01-.315-.01-.468 0-.182-.051-.203-.285-.203-.04 0-.05-.03-.05-.07 0-.021.01-.062.05-.062.02 0 .264.02.468.02.091 0 .284-.02.487-.02.376 0 .864.132.864.62 0 .376-.244.518-.559.64l-.01.01c0 .01.163.316.468.681.07.082.162.214.244.275.06.04.111.05.213.05.02 0 .03.02.04.041v.02c0 .041-.02.061-.06.061-.01 0-.03-.01-.265-.01-.203 0-.223.01-.233.01h-.02c-.031 0-.041-.01-.051-.03a6.372 6.372 0 0 1-.366-.539c-.051-.081-.102-.162-.143-.223a1.017 1.017 0 0 0-.101-.133c-.132-.132-.203-.132-.325-.132v.275c0 .142 0 .355.01.518 0 .082.01.132.264.132.04 0 .102 0 .112.051v.04c0 .031-.02.041-.041.041-.02 0-.04-.01-.528-.01-.437 0-.447.01-.468.01-.03 0-.04-.01-.04-.04v-.04c.01-.052.07-.052.101-.052.203 0 .224-.05.224-.132zM12.462 21v.864h.254c.386 0 .528-.254.528-.55 0-.304-.183-.538-.549-.538-.193 0-.233.01-.233.224zm4.959-.02v1.067c0 .436.183.813.721.813.376 0 .712-.204.712-.986v-.65c0-.234-.03-.346-.092-.397-.06-.05-.162-.05-.335-.05-.03 0-.04-.021-.04-.041v-.02c0-.031.01-.072.04-.072.06 0 .274.02.488.02.101 0 .366-.02.406-.02.051 0 .061.03.061.071 0 .03-.01.061-.04.061-.163 0-.234 0-.285.04-.051.052-.061.143-.061.336v.783c0 .904-.58 1.148-.976 1.148-.741 0-.955-.508-.955-.874v-.762c0-.234-.01-.315-.01-.468 0-.182-.05-.203-.335-.203-.041 0-.051-.03-.051-.07 0-.021.01-.062.05-.062.021 0 .316.02.519.02.213 0 .498-.02.528-.02.03 0 .041.04.041.061 0 .04 0 .071-.05.071-.286 0-.326.02-.336.203zm-7.297 1.981c.396 0 .63-.05.63-.264v-.6c0-.06-.03-.101-.345-.101-.03 0-.214.01-.244-.041v-.04c0-.051.02-.061.081-.061.02 0 .132.01.701.01.55 0 .57-.01.59-.01.03 0 .04.01.05.04v.02c0 .072-.03.082-.101.082-.305 0-.315.07-.315.162v.539c0 .102.102.112.102.163 0 .06-.03.07-.072.08-.274.102-.742.153-1.25.153-1.056 0-1.453-.843-1.453-1.372 0-.945.712-1.524 1.453-1.524.498 0 .824.071 1.088.254.01.01.04.03.06.03.021 0 .082-.081.112-.081l.02.01c.031.02.021.061.031.081v.102c0 .417.01.457.01.518 0 .051-.06.051-.09.051-.042 0-.123-.264-.133-.284-.091-.305-.427-.55-.996-.55-.467 0-1.057.448-1.057 1.373 0 .854.61 1.26 1.128 1.26zm16.047-3.78c.01-.173.01-.387.01-.529v-1.27c-.01-.183-.051-.213-.315-.213-.051 0-.051-.03-.051-.072 0-.01 0-.05.04-.05.031 0 .295.01.509.01.213 0 .497-.01.518-.01.04 0 .05.04.05.05 0 .041-.01.072-.05.072-.285 0-.335.03-.335.213 0 .152-.01.234-.01.467v.803c0 .142.01.356.01.529.01.101.08.122.335.122.508 0 .742-.02.894-.478.01-.04.01-.06.02-.071.01-.02.02-.03.041-.03.04 0 .082 0 .082.05 0 .01-.01.03-.01.061l-.031.132a3.27 3.27 0 0 0-.081.427c-.01.03-.031.04-.051.04h-1.86c-.02 0-.04-.01-.04-.03v-.02c0-.061.03-.071.09-.071.265 0 .235-.061.235-.132zm-6.352-2.165c.03.02.061.04.132.04h1.779c.111 0 .142-.08.203-.08.02 0 .03.01.03.03.01.02.02.05.04.102.042.142.082.294.133.426l.01.02c0 .031-.05.052-.06.052-.031 0-.041-.01-.062-.03-.152-.285-.315-.387-.548-.387h-.407c-.04 0-.061.01-.061.193v1.27c0 .143 0 .356.01.529 0 .071.01.132.275.132.03 0 .091 0 .101.04v.052c0 .02-.01.03-.04.03h-1.048c-.03 0-.04-.01-.04-.03v-.05c.01-.041.07-.041.11-.041.255 0 .265-.06.265-.132.01-.173.01-.386.01-.529v-1.27c0-.112-.01-.152-.03-.173-.01-.02-.04-.02-.102-.02h-.356c-.243 0-.396.193-.528.386-.01.02-.03.03-.05.03h-.021c-.02 0-.061-.01-.061-.04l.01-.02.02-.051c.02-.061.061-.163.133-.376.01-.03.02-.142.06-.142.041 0 .062.02.092.04zm-1.677 1.87c.082.254.234.478.57.478.294 0 .446-.183.446-.447 0-.234-.122-.336-.589-.59-.274-.142-.508-.274-.508-.63s.234-.68.732-.68c.142 0 .254.02.386.05.02 0 .04.01.06.01.021 0 .041-.03.052-.04.02-.01.03-.02.04-.02.03 0 .041.03.041.06 0 .254.05.508.05.539 0 .02-.02.04-.04.04h-.03c-.02 0-.041 0-.041-.03-.092-.254-.224-.498-.529-.498-.223 0-.426.163-.426.407 0 .213.132.304.254.386.193.122.406.203.579.325.183.122.315.274.315.528 0 .498-.366.702-.813.702-.02 0-.59-.01-.62-.061-.01-.01-.01-.02-.01-.04-.02-.346-.05-.489-.05-.499 0-.04.05-.05.08-.05s.041.01.051.03v.03zm-.518.539-1.382.01h-.518c-.03 0-.04-.01-.04-.03v-.021c0-.06.02-.071.08-.071.265 0 .275-.061.275-.132 0-.173.01-.387.01-.529v-.803c0-.233-.01-.314-.01-.467 0-.183-.051-.213-.305-.213-.05 0-.05-.03-.05-.072 0-.01 0-.05.04-.05.03 0 .315.01.518.01.386 0 .874-.01 1.118-.01.03 0 .122-.01.132.03.05.152.081.264.112.346l.03.08v.031c.01.01.01.01.01.02 0 .031-.04.031-.06.031-.031 0-.062-.02-.082-.04l-.03-.041a4.443 4.443 0 0 0-.275-.254.317.317 0 0 0-.213-.081c-.092 0-.376.02-.498.02-.061.01-.081.05-.081.244v.742h.203c.122 0 .345-.01.376-.163 0-.02.03-.223.06-.254h.021c.03-.01.081-.01.081.03v.499c0 .193.02.315.02.396 0 .03-.03.04-.06.04s-.051-.01-.061-.05c-.051-.346-.102-.366-.417-.366h-.224v.843c0 .123.031.153.143.153h.792c.112 0 .305-.315.376-.396.01-.02.03-.031.051-.031.03 0 .071 0 .071.04 0 .01-.162.478-.213.509zm-3.75-.244c0-.173.01-.387.01-.529v-.803c0-.233-.01-.314-.01-.467 0-.183-.05-.213-.315-.213-.05 0-.05-.03-.05-.072 0-.01.01-.05.04-.05s.305.01.508.01c.213 0 .498-.01.528-.01.03 0 .041.04.041.05 0 .041 0 .072-.05.072-.285 0-.326.03-.336.213v1.27c0 .142 0 .356.01.529 0 .101.071.122.325.122.508 0 .742-.02.894-.478.01-.04.02-.06.02-.071.01-.02.021-.03.041-.03.041 0 .082 0 .082.05 0 .01 0 .03-.01.061l-.031.132c-.02.112-.05.265-.081.427-.01.03-.03.04-.051.04h-1.89c-.02 0-.04-.01-.04-.03v-.02c0-.061.03-.071.09-.071.265 0 .265-.061.275-.132zm-.65.244-1.372.01h-.529c-.02 0-.03-.01-.04-.03v-.021c0-.061.02-.071.081-.071.264 0 .274-.061.274-.132.01-.173.01-.387.01-.529v-.803c0-.233 0-.315-.01-.467 0-.183-.04-.213-.304-.213-.051 0-.051-.031-.051-.072 0-.01.01-.05.04-.05s.315.01.529.01c.386 0 .864-.01 1.108-.01.03 0 .132-.01.142.03.04.152.071.264.101.345l.03.082.011.03v.02c0 .031-.04.031-.06.031a.086.086 0 0 1-.072-.04l-.04-.041c-.051-.051-.122-.132-.275-.254a.317.317 0 0 0-.213-.082c-.092 0-.376.02-.498.02-.061.01-.082.052-.082.245v.741h.204c.122 0 .355-.01.376-.162.01-.02.03-.224.07-.254h.011c.04-.01.092-.01.092.03v.498c0 .194.01.315.01.397 0 .03-.03.04-.051.04-.04 0-.061-.01-.071-.05-.04-.346-.102-.366-.417-.366h-.223v.843c0 .122.03.152.152.152h.783c.111 0 .304-.314.376-.396.02-.02.03-.03.05-.03.03 0 .071 0 .071.04 0 .01-.162.478-.213.509zm-3.1-.071c.295 0 .671-.163.894-.63.01-.031.031-.041.072-.041.03 0 .06 0 .06.06 0 .041-.06.428-.06.509 0 .04-.01.071-.061.081-.204.071-.519.153-1.078.153-1.056 0-1.453-.844-1.453-1.372 0-.945.712-1.525 1.453-1.525.336 0 .529.041.661.082.06.02.102.03.142.05.03.01.061.02.082.02.03 0 .05-.01.07-.03l.021-.01c.02-.01.04-.03.06-.03l.011.01c.02.01.03.03.03.05 0 .244.072.6.072.63 0 .051-.061.062-.082.062-.04 0-.05-.02-.06-.041-.163-.427-.407-.66-.905-.66-.468 0-1.057.457-1.057 1.381 0 .854.61 1.25 1.128 1.25zm15.173-5.539c-.02-.06-.194-.223-.254-.223h-.122c-.03 0-.041-.01-.041-.041v-.02c0-.041 0-.062.04-.062.02 0 .265.01.316.01.05 0 .244-.01.294-.01h.02l.01.01c.397.448.905 1.057 1.637 1.81.02-.316.03-.874.03-1.18 0-.497-.122-.518-.396-.518-.05 0-.06-.03-.06-.06 0-.031.01-.062.05-.062.05 0 .386.01.478.01.081 0 .416-.01.437-.01.03 0 .04.031.04.051 0 .03 0 .072-.04.072-.265 0-.316.03-.356.264-.02.111-.06 1.666-.06 1.981 0 .051-.032.061-.062.061l-.02-.01c-.03-.02-.051-.05-.071-.071-.061-.06-.143-.162-.275-.305-.264-.284-.711-.782-1.453-1.585-.01.274-.01.549-.01.813 0 .488.01.772.01.843 0 .092.06.153.244.153.03 0 .162-.01.183.03v.02c0 .041 0 .072-.051.072-.02 0-.04-.01-.447-.01-.376 0-.407.01-.427.01-.04 0-.05-.02-.05-.051v-.02c0-.051.142-.051.162-.051.081 0 .203-.02.213-.132 0-.071.041-.691.041-1.647 0-.02 0-.122-.01-.142zm-1.403 1.789c0-.173.01-.387.01-.529v-.813c0-.234-.01-.305-.01-.457 0-.183-.05-.214-.335-.214-.04 0-.051-.03-.051-.071 0-.02.01-.05.05-.05.021 0 .316.01.52.01.213 0 .497-.01.527-.01.031 0 .041.03.041.05 0 .04 0 .071-.05.071-.285 0-.326.03-.336.214v1.27c0 .142 0 .356.01.529 0 .07.01.132.265.132.04 0 .101-.01.111.04v.04c0 .031-.02.041-.04.041s-.041-.01-.529-.01c-.488 0-.478.01-.498.01-.02 0-.04-.01-.04-.04v-.04c.01-.051.07-.041.111-.041.254 0 .234-.061.244-.133zm-3.8-.66v-.428h-1.515v.427c0 .163 0 .417.01.61 0 .101.01.162.315.162.051 0 .122 0 .122.061v.041c0 .03-.01.04-.04.04s-.04-.01-.62-.01c-.57 0-.59.01-.61.01-.03 0-.05-.01-.05-.04v-.04c0-.061.07-.061.121-.061.305 0 .315-.061.325-.163 0-.193.01-.447.01-.61v-.955c0-.275-.01-.366-.01-.55 0-.213-.06-.243-.396-.243-.05 0-.05-.04-.05-.081 0-.02 0-.061.05-.061.03 0 .366.01.61.01s.59-.01.62-.01c.04 0 .05.04.05.06 0 .041-.01.082-.06.082-.336 0-.386.03-.397.244v.935h1.515v-.386c0-.275-.01-.366-.01-.55 0-.213-.061-.243-.397-.243-.05 0-.05-.04-.05-.081 0-.02 0-.061.04-.061.03 0 .376.01.62.01s.59-.01.62-.01c.04 0 .05.04.05.06 0 .041-.01.082-.06.082-.336 0-.386.03-.397.244 0 .183-.01.274-.01.549v.955c0 .163.01.417.02.61 0 .101-.02.162.285.162.05 0 .122 0 .122.061v.041c0 .03-.02.04-.05.04-.021 0 0-.01-.58-.01-.569 0-.59.01-.62.01-.02 0-.04-.01-.04-.04v-.04c0-.061.07-.061.122-.061.304 0 .315-.061.325-.163 0-.193.01-.447.01-.61zm-4.167.904h-1.372c-.488 0-.498.01-.518.01-.03 0-.041-.01-.041-.041v-.02c0-.051.02-.061.081-.061.254 0 .264-.061.264-.132.01-.173.01-.386.01-.529v-1.27c-.01-.183-.05-.214-.315-.214-.04 0-.05-.03-.05-.07 0-.021.01-.052.05-.052.02 0 .305.01.519.01.386 0 .874-.01 1.107-.01.031 0 .133-.01.143.03.04.153.081.265.101.346l.031.082.01.03v.02c0 .03-.03.03-.06.03-.031 0-.052-.02-.072-.05l-.03-.03c-.051-.051-.133-.143-.275-.265a.345.345 0 0 0-.223-.07c-.082 0-.366.02-.498.02-.051 0-.082.05-.082.243v.742h.214c.112 0 .346-.01.376-.162 0-.02.03-.224.061-.254l.01-.01c.04 0 .092 0 .092.04v.498c0 .193.01.305.01.386 0 .04-.03.04-.051.04-.04 0-.061-.01-.061-.04-.051-.356-.102-.366-.417-.366h-.233v.834c0 .121.04.162.152.162h.783c.121 0 .315-.315.375-.406.02-.01.031-.02.061-.02.02 0 .061 0 .061.04 0 .01-.162.478-.213.509zm-2.957-.773v-.356h-1.28v.356c0 .143 0 .356.01.529 0 .07.01.132.264.132.04 0 .101-.01.111.04v.041c0 .03-.02.04-.04.04s-.04-.01-.529-.01c-.488 0-.498.01-.518.01-.03 0-.04-.01-.04-.04v-.04c.01-.051.07-.041.101-.041.264 0 .274-.061.274-.132 0-.173.01-.386.01-.529v-.813c0-.234-.01-.305-.01-.457 0-.183-.04-.214-.335-.214-.04 0-.05-.03-.05-.07 0-.021.01-.052.05-.052.02 0 .315.01.518.01.214 0 .498-.01.529-.01.04 0 .04.03.04.051 0 .04 0 .071-.05.071-.285 0-.326.03-.336.214v.782h1.28v-.782c-.01-.183-.05-.214-.335-.214-.05 0-.05-.03-.05-.07 0-.021 0-.052.04-.052.03 0 .315.01.528.01.204 0 .498-.01.519-.01.04 0 .05.03.05.051 0 .04-.01.071-.05.071-.295 0-.336.03-.336.214-.01.152-.01.223-.01.457v.813c0 .143 0 .356.01.529 0 .07.01.132.274.132.03 0 .092-.01.102.04v.041c0 .03-.01.04-.04.04-.021 0-.031-.01-.519-.01s-.508.01-.528.01c-.02 0-.04-.01-.04-.04v-.04c.01-.051.07-.041.11-.041.255 0 .265-.061.265-.132.01-.173.01-.387.01-.529zM8.61 13.44c.03.02.06.04.132.04h1.778c.112 0 .143-.08.204-.08.02 0 .03.01.03.03.01.01.02.05.04.101.041.143.082.295.133.427l.01.02c0 .031-.05.051-.06.051-.031 0-.042-.01-.062-.03-.152-.285-.315-.386-.549-.386H9.87c-.04 0-.071.01-.071.193v1.27c0 .142 0 .356.01.529 0 .07.01.132.275.132.03 0 .09-.01.101.04v.04c0 .031-.01.041-.04.041-.02 0-.031-.01-.53-.01-.477 0-.497.01-.517.01-.02 0-.041-.01-.041-.04v-.04c.01-.051.071-.041.112-.041.254 0 .264-.061.264-.133.01-.172.01-.386.01-.528v-1.27c0-.112-.01-.152-.03-.173-.01-.02-.041-.02-.102-.02h-.356c-.244 0-.396.193-.528.386-.01.02-.03.02-.05.02h-.021c-.02 0-.061 0-.061-.03l.01-.02.02-.051c.02-.061.061-.173.132-.377.01-.03.02-.142.061-.142.041 0 .062.02.092.04zm13.902 5.742c0-.173.01-.387.01-.529v-.803c0-.233-.01-.314-.01-.467 0-.183-.05-.213-.335-.213-.051 0-.051-.03-.051-.072 0-.01.01-.05.04-.05.031 0 .316.01.529.01.213 0 .498-.01.529-.01.03 0 .04.04.04.05 0 .041 0 .072-.05.072-.285 0-.326.03-.336.213v1.27c0 .142 0 .356.01.529 0 .07-.01.132.244.132.04 0 .102 0 .112.04v.051c0 .02-.01.03-.041.03h-1.037c-.02 0-.03-.01-.03-.03v-.05c.01-.041.071-.041.102-.041.254 0 .264-.061.274-.132z" fill="#fff"/><path fill-rule="evenodd" clip-rule="evenodd" d="M23.356 23.012c-.041-.05-.061-.173-.061-.254 0-.772 1.25-.813 1.25-.813a1.02 1.02 0 0 1-.02-.163c0-.436.447-.589.782-.589.579 0 .854.305 1.626.305.467 0 .416-.152.569-.152.091 0 .183.122.183.304 0 .702-.66 1.708-2.124 1.708-1.006 0-1.21-.58-1.027-.956.204-.02.417-.01.793.051 1.148.183 1.717-.305 1.596-.427-.092-.091-.376.326-1.515.204-1.209-.133-1.839.08-1.839.61 0 .233.132.314.132.406 0 .05-.03.112-.132.112-.345 0-.691-.356-.691-.783 0-.417.112-.61.112-.61s-.387-.05-.397-.396c-.04-.854 1.23-1.006 1.22-1.31 0-.123.01-.174.101-.184.143 0 .468.163.488.793.03.63-.549 1.108-.996 1.118h-.122s-.132.132-.132.569c0 .172.04.335.204.457z" fill="#000"/><path fill-rule="evenodd" clip-rule="evenodd" d="M23.305 22.92c-.04-.05-.061-.173-.061-.254 0-.762 1.25-.803 1.25-.803-.01-.06-.02-.132-.02-.172 0-.437.447-.59.782-.59.58 0 .854.305 1.626.305.467 0 .417-.152.569-.152.102 0 .183.122.183.304 0 .702-.65 1.708-2.124 1.708-.996 0-1.21-.58-1.026-.955.203-.02.416-.01.792.05 1.159.183 1.718-.304 1.596-.426-.092-.092-.376.325-1.514.203-1.2-.132-1.84.081-1.84.61 0 .243.132.315.132.406 0 .061-.03.112-.132.112-.345 0-.69-.356-.69-.783 0-.416.11-.61.11-.61s-.385-.05-.395-.396c-.031-.853 1.24-1.006 1.219-1.31 0-.123.01-.174.112-.184.132 0 .457.163.477.793.031.63-.548 1.108-.985 1.118-.061.01-.133 0-.133 0s-.132.132-.132.57c0 .182.041.334.204.456z" fill="#A7AF39"/></svg>