<svg height="36" viewBox="0 0 36 36" width="36" xmlns="http://www.w3.org/2000/svg"><mask id="a" fill="#fff"><path d="M0 0h22.123v5.284H0z" fill-rule="evenodd"/></mask><g fill="none" fill-rule="evenodd"><path d="M18 0c2.837 0 5.52.656 7.907 1.825C31.884 4.753 36 10.895 36 18c0 9.942-8.058 18-18 18-9.94 0-18-8.057-18-18C0 8.06 8.06 0 18 0z" fill="#f2f4f7" fill-rule="nonzero"/><path d="M18.728 3.199c0 .104-.086.19-.19.19h-.078a.191.191 0 0 1-.19-.19V1.972c0-.104.086-.19.19-.19h.078c.104 0 .19.086.19.19zm.241-2.077c-.073-.018-.268-.046-.468-.046s-.396.032-.468.046c-.409.091-.645.245-.645.7v1.526c0 .455.236.61.645.701a2.4 2.4 0 0 0 .936 0c.409-.091.645-.246.645-.701V1.827c-.005-.46-.241-.608-.645-.705zm-4.288 2.272h-.21a.191.191 0 0 1-.19-.19V1.972c0-.104.086-.19.19-.19h.21zm.849-2.272h-1.5a.659.659 0 0 0-.658.659v1.604c0 .364.295.658.658.658h.65v.386a.154.154 0 0 1-.155.155h-.091a.154.154 0 0 1-.154-.155v-.123a.063.063 0 0 0-.064-.064h-.786a.063.063 0 0 0-.064.064v.232c0 .455.236.609.645.7.072.018.268.046.468.046.199 0 .395-.031.468-.046.409-.091.645-.245.645-.7V1.186a.064.064 0 0 0-.062-.064zm1.572 2.272h-.155a.191.191 0 0 1-.19-.19V1.913h.345a.063.063 0 0 0 .064-.064v-.663a.063.063 0 0 0-.064-.064h-.345V.587a.063.063 0 0 0-.064-.064h-.749a.063.063 0 0 0-.064.064v2.799c0 .364.296.658.659.658h.563a.063.063 0 0 0 .064-.064v-.521c-.001-.037-.028-.065-.064-.065zm-7.824 0h-.154a.191.191 0 0 1-.191-.19V1.913h.345a.063.063 0 0 0 .064-.064v-.663a.063.063 0 0 0-.064-.064h-.345V.587a.063.063 0 0 0-.064-.064H8.12a.063.063 0 0 0-.064.064v2.799c0 .364.296.658.659.658h.563a.063.063 0 0 0 .064-.064v-.521a.065.065 0 0 0-.064-.065zM5.23 1.186a.062.062 0 0 0-.064-.064H4.38a.063.063 0 0 0-.064.064v2.203h-.209a.192.192 0 0 1-.191-.19V1.186a.062.062 0 0 0-.063-.064h-.791a.062.062 0 0 0-.063.064v2.199c0 .364.295.658.658.658H5.12a.1.1 0 0 0 .099-.1V1.186zm.323 2.799c0 .035.027.064.064.064h.786a.063.063 0 0 0 .064-.064V1.782h.209c.104 0 .191.086.191.19v2.013c0 .035.027.064.064.064h.79a.063.063 0 0 0 .064-.064V1.786a.659.659 0 0 0-.659-.658H5.664a.1.1 0 0 0-.1.099v2.758zm14.338 0c0 .035.026.064.064.064h.786a.063.063 0 0 0 .064-.064V1.782h.209c.104 0 .191.086.191.19v2.013c0 .035.026.064.063.064h.791a.063.063 0 0 0 .064-.064V1.786a.659.659 0 0 0-.659-.658h-1.463a.1.1 0 0 0-.099.099v2.758zm-9.018 0c0 .035.026.064.063.064h.787a.063.063 0 0 0 .064-.064V1.782h.209c.104 0 .19.086.19.19v2.013c0 .035.027.064.064.064h.791a.063.063 0 0 0 .064-.064V1.786a.659.659 0 0 0-.659-.658h-1.462a.1.1 0 0 0-.1.099v2.758zM2.627 0H1.76a.063.063 0 0 0-.064.064v1.453h-.7V.064A.063.063 0 0 0 .932 0H.064A.063.063 0 0 0 0 .064v3.925c0 .036.027.064.064.064h.868a.063.063 0 0 0 .064-.064v-1.59h.7v1.59c0 .036.027.064.064.064h.867a.062.062 0 0 0 .064-.064V.064A.063.063 0 0 0 2.627 0zm7.932 3.985a.063.063 0 0 1-.064.064h-.804a.063.063 0 0 1-.064-.064V1.186c0-.036.027-.064.064-.064h.809c.036 0 .063.027.063.064z" fill="#776f67" mask="url(#a)" transform="translate(9.877 15.217)"/><path d="m8.266 19.524.527-.305c.051-.031.096-.094.096-.15V16.44c0-.051-.042-.118-.096-.15l-.527-.305zm-3.643-3.539-.528.305c-.05.031-.095.095-.095.15v2.631c0 .05.041.117.095.149l.528.305zm.849-.491-.619.359v3.807l.619.353v-1.825l1.708-.986v-1.844L6.557 15v1.831l-1.085.627zm.236 2.812v1.845l.618.358v-1.831l1.086-.627v1.962l.622-.353v-3.812l-.622-.354v1.827zm.85.495v1.708l.623-.358v-1.708zm-.232-2.094V15l-.618.358v1.708z" fill="#66bd29"/></g></svg>