<svg height="36" viewBox="0 0 36 36" width="36" xmlns="http://www.w3.org/2000/svg"><mask id="a" fill="#fff"><path d="M0 0h22v22H0z" fill-rule="evenodd"/></mask><g fill="none" fill-rule="evenodd"><path d="M18 0c2.837 0 5.52.656 7.907 1.825C31.884 4.753 36 10.895 36 18c0 9.942-8.058 18-18 18-9.94 0-18-8.057-18-18C0 8.06 8.06 0 18 0z" fill="#f2f4f7" fill-rule="nonzero"/><path d="M7 29h22V7H7z" fill="#ee7125"/><g fill="#fff"><path d="M13.839 15.057c-.136-.135-.154-.16-.322-.073-.062.033-.127.033-.179-.019-.105-.106.008-.233.023-.248l.963-.963 2.324 2.322c.134.135.153.162.32.074.062-.033.128-.033.18.018.106.106-.007.233-.022.248l-1.033 1.033c-.015.015-.114.1-.22-.006-.051-.051-.06-.11-.028-.171.088-.168.042-.166-.092-.3zm.65-1.468c.347-.347.588-.516.858-.588.432-.11.778.025 1.085.332.307.305.442.653.332 1.085-.073.27-.24.511-.588.858l-.212-.212c.175-.256.037-.416-.141-.596l-.552-.55c-.164-.165-.347-.283-.57-.118zm-1.004 3.443c.113-.193.04-.405-.065-.577-.045-.08-.081-.16-.004-.237.113-.113.226.036.256.066l.789.788c.029.03.18.143.065.256-.076.076-.157.04-.237-.004-.172-.105-.384-.179-.577-.065zm1.3 1.3c.259-.332.285-.76.09-1.15-.028-.08-.065-.161 0-.227.118-.116.217.004.231.018l.73.73-.838.84zm-2.52-2.52L13.08 15l.741.74c.018.019.084.09-.026.2-.062.063-.116.046-.189.009-.391-.201-.756-.194-1.129.075zm-1.128 1.128.964-.963 2.732 2.73-.965.965c-.014.014-.143.127-.248.021-.05-.05-.05-.116-.018-.178.088-.168.062-.186-.073-.322l-1.913-1.913c-.135-.135-.153-.16-.32-.074-.064.034-.129.034-.18-.017-.107-.105.006-.234.021-.249zm-1.361 1.362c.613-.628 1.562-.715 2.549.183.898.817.788 1.942.182 2.548l-.212-.212c.194-.252-.003-.471-.143-.608l-1.554-1.557c-.14-.14-.359-.336-.61-.143zm3.526-6.8-1.117-1.118-1.434-.71-.014.014 2.189 2.189c.708.915.04 1.076.32 1.357.201.2.454-.079.525-.15l.739-.738c.07-.072.348-.323.147-.524-.279-.28-.44.387-1.355-.32zm5.076-3.427c-.09-.09-.207-.091-.318-.033-.298.155-.33.11-.57-.13l-3.405-3.404c-.24-.24-.286-.272-.13-.57.058-.11.058-.228-.033-.319-.188-.188-.414.013-.44.039l-1.711 1.71 1.397 2.59-.014.013-2.686-1.3-1.645 1.646c-.077.078-.273.272-.072.473.156.157.344-.006.428-.077.117-.104.222-.052.377-.013.136.033.266.098.396.164l5.373 2.665.188-.187-2.628-4.86L15.9 9.5c.24.24.286.274.13.572-.06.11-.058.227.034.318.187.188.414-.013.441-.039l1.835-1.834c.026-.026.225-.253.037-.441zm-7.16 7.005c.194-.414.025-.635-.139-.798l-3.363-3.364c-.163-.163-.384-.331-.799-.137l-.376-.377c1.497-1.25 3.25-.781 4.541.511 1.293 1.293 1.762 3.045.511 4.542zm-4.592-4.008c-.195.415-.025.635.137.798l3.364 3.364c.163.163.383.331.798.137l.377.378c-1.498 1.25-3.25.78-4.543-.512-1.291-1.292-1.76-3.044-.51-4.541zm11.147-.767.525-.525.212.211c-.055.325.135.617.296.843.07.092.145.205.043.307a.155.155 0 0 1-.226.015zm3.125-1.424a.156.156 0 0 1-.015.226c-.102.102-.215.026-.306-.044-.226-.16-.519-.35-.843-.294l-.212-.212.525-.526zm-2.435.735.894-.895 2.322 2.322c.135.135.154.161.32.073v.425l-.874.875c-.015.014-.143.129-.249.022-.05-.05-.05-.116-.018-.18.088-.167.062-.185-.073-.32zm-6.12 11.582L11.54 22h-.426c.01-.025.025-.051.038-.08.049-.09-.058-.182-.112-.237L9.126 19.77c-.055-.054-.146-.16-.237-.112-.099.047-.18.105-.271.015-.095-.095-.015-.198.058-.27l.935-.935zm6.03-18.092c.2-.343.07-.72-.119-1.025-.077-.143-.143-.286-.007-.422.201-.2.404.066.455.118l1.403 1.402c.052.052.318.254.118.454-.137.137-.28.07-.423-.007-.306-.188-.681-.317-1.025-.118zM22 3.753v1.103l-.94.938-.375-.376c.46-.59.503-1.349.16-2.043-.053-.143-.118-.286-.002-.402.208-.208.383.006.409.033zM17.14 0h1.017l.81.81c.032.032.15.163-.046.356-.11.11-.207.078-.337.013-.694-.359-1.343-.345-2.005.134l-.377-.376zM14.2 2.94l1.71-1.711 4.86 4.857-1.711 1.711c-.027.026-.254.228-.442.039-.09-.091-.09-.208-.033-.318.156-.299.111-.331-.13-.572L15.05 3.543c-.24-.24-.272-.285-.571-.13-.11.058-.227.058-.317-.032-.189-.189.012-.417.038-.442zM4.856 22h-.748l.006-.012c.155-.297.11-.33-.13-.57L.58 18.015c-.242-.241-.274-.287-.572-.131L0 17.888v-.75l1.563-1.562c.026-.025.253-.227.441-.04.09.093.092.209.033.319-.155.3-.11.331.13.572l3.404 3.403c.24.241.273.286.572.13.11-.058.227-.058.317.033.189.188-.013.415-.039.441zm.025-4.585-.572.572-.375-.378.57-.57-1.475-1.474c-.24-.24-.272-.286-.571-.131-.11.059-.228.058-.318-.033-.188-.188.013-.414.04-.441l1.833-1.834c.026-.025.252-.226.441-.04.09.093.091.21.033.32-.156.298-.11.33.13.57L8.02 17.38c.24.241.272.286.572.13.11-.058.226-.058.318.033.187.188-.014.415-.039.442l-1.834 1.833c-.026.026-.253.227-.442.039-.09-.092-.09-.208-.033-.319.156-.297.11-.33-.13-.57z" mask="url(#a)" transform="translate(7 7)"/><path d="M28.138 28.063c.088 0 .165-.007.165-.115 0-.09-.076-.106-.148-.106h-.14v.221zm-.122.402h-.102l-.001-.714h.258c.16 0 .24.062.24.202 0 .128-.076.184-.176.197l.192.315h-.114l-.18-.31h-.117zm.123.158c.266 0 .476-.22.476-.517 0-.294-.21-.514-.476-.514-.268 0-.478.22-.478.514 0 .297.21.517.478.517zm-.596-.517a.6.6 0 0 1 .596-.616c.32 0 .594.261.594.616 0 .359-.273.62-.594.62a.603.603 0 0 1-.596-.62zM16.155 11.104c.106-.181.037-.38-.062-.542-.04-.075-.075-.15-.003-.223.106-.106.213.034.24.062l.742.741c.027.027.168.134.062.24-.073.073-.148.038-.224-.003-.161-.1-.36-.168-.542-.061zm1.222 1.222c.243-.312.268-.713.086-1.081-.028-.076-.062-.151 0-.213.109-.11.202.004.216.017l.687.687-.79.79zM15.01 9.958l.765-.765.696.697c.018.017.079.085-.023.188-.059.059-.11.042-.178.007-.368-.188-.712-.182-1.061.072zm-1.061 1.06.906-.905 2.567 2.567-.906.906c-.013.014-.133.12-.233.02-.048-.047-.048-.11-.017-.167.082-.158.058-.176-.069-.303l-1.798-1.798c-.128-.127-.145-.151-.303-.07-.058.032-.12.032-.167-.016-.1-.099.006-.22.02-.233zm.133 2.593-.302.302-.2-.2.303-.301-.78-.78c-.126-.126-.143-.15-.302-.068-.058.03-.119.03-.167-.017-.1-.1.006-.22.02-.234l.972-.97c.013-.015.133-.12.233-.022.048.049.048.11.017.169-.082.157-.059.174.069.302l1.798 1.798c.127.128.144.151.302.069.059-.031.12-.031.168.017.1.1-.007.22-.02.233l-.972.972c-.013.014-.133.12-.233.02-.048-.047-.048-.11-.017-.168.082-.158.058-.175-.069-.302zm.364 1.276c.127.128.144.151.302.069.059-.03.12-.03.168.017.1.1-.007.22-.02.234l-.972.971c-.013.014-.133.12-.233.02-.048-.048-.048-.11-.017-.167.082-.158.058-.176-.069-.303l-1.798-1.798c-.128-.127-.145-.151-.303-.069-.058.031-.12.031-.168-.017-.099-.1.007-.22.021-.233l.971-.971c.015-.014.134-.12.234-.02.048.047.048.108.016.167-.081.158-.057.175.07.302zM8.987 15.98l.495-.494.2.2c-.053.304.126.579.276.792.066.086.138.192.042.288a.146.146 0 0 1-.213.014zm2.939-1.338a.147.147 0 0 1-.014.213c-.096.096-.203.023-.289-.042-.213-.15-.487-.33-.792-.278l-.2-.199.495-.494zm-2.29.689.841-.84 2.183 2.182c.127.128.144.151.302.069.058-.03.12-.03.168.017.1.1-.007.22-.02.234l-.971.972c-.014.013-.135.119-.234.02-.048-.049-.048-.11-.017-.169.082-.158.058-.175-.069-.302zm16.75 5.512c.109-.234.014-.358-.078-.45l-1.89-1.891c-.093-.091-.217-.186-.45-.078l-.212-.21c.844-.706 1.83-.442 2.556.284.727.727.99 1.712.286 2.557zm-2.582-2.253c-.11.233-.015.357.076.449l1.891 1.89c.092.092.216.187.45.078l.212.211c-.844.706-1.83.443-2.556-.284-.728-.727-.99-1.713-.286-2.557z"/></g></g></svg>