<svg width="36" height="36" fill="none" xmlns="http://www.w3.org/2000/svg"><path d="M18 0c2.837 0 5.52.656 7.907 1.825C31.884 4.753 36 10.895 36 18c0 9.942-8.058 18-18 18-9.94 0-18-8.057-18-18C0 8.06 8.06 0 18 0z" fill="#F2F4F7"/><path fill-rule="evenodd" clip-rule="evenodd" d="M6.75 12.007c0 .018 11.443 19.827 11.453 19.827.01 0 11.439-19.785 11.45-19.822.004-.009-3.1-.012-11.449-.012-6.3 0-11.454.003-11.454.007zm23.428.035c-.436.175-.32.813.148.813.372 0 .56-.426.311-.705a.46.46 0 0 0-.459-.108zm.28.093c.253.118.26.476.01.603-.235.119-.51-.094-.461-.356.039-.213.262-.335.45-.247zm-.28.3v.23h.088v-.088c0-.084.001-.087.025-.087.02 0 .034.017.072.087l.046.087h.109l-.05-.091-.05-.091.029-.019a.144.144 0 0 0 .053-.134c-.017-.094-.068-.122-.216-.122h-.105v.229zm.21-.123c.049.044.006.102-.075.102h-.047v-.12h.05c.033 0 .06.007.072.018zm-1.656.17-5.268 9.125c-2.886 5-5.25 9.093-5.255 9.098-.004.004-2.372-4.086-5.261-9.09l-5.275-9.133-.021-.035h21.102l-.022.035zm-18.627.678v.18h.915v1.236c0 1.14.003 1.3.027 1.206.043-.176.303-.587.414-.656l.038-.024V13.34h.915v-.36h-2.309v.18zm2.67.629.004.809.025.074a.258.258 0 0 0 .183.183l.075.026h1.677l.075-.026a.274.274 0 0 0 .182-.17l.027-.065.003-.82.003-.82h-.48v1.547h-1.307V12.98h-.47l.004.809zm2.667.144v.953h.468v-.708h.215l.215.001.391.354.39.353h.338c.271 0 .336-.002.327-.013a22.427 22.427 0 0 0-.437-.352l-.425-.337.182-.008c.454-.02.492-.066.492-.597 0-.41-.016-.47-.145-.535-.113-.058-.085-.056-1.083-.06l-.928-.005v.954zm2.276-.773v.18h.915v1.546h.48V13.34h.914v-.36h-2.309v.18zm2.669.773v.953h1.96v-.36h-1.48V12.98h-.48v.953zm2.255 0v.953H24.7v-.36h-1.59v-.457h.915v-.338h-.915v-.402h1.568v-.349h-2.036v.953zm-5.552-.59c.061.027.073.065.073.237 0 .27.043.254-.684.259l-.569.003v-.525l.57.003c.51.003.573.005.61.022zm-4.97 2.878v.954l.896-.004c.98-.004.955-.002 1.09-.07.158-.08.187-.146.187-.428 0-.284-.052-.391-.22-.453-.058-.021-.082-.037-.057-.037.075 0 .223-.122.248-.205.02-.067.017-.42-.005-.492-.033-.11-.129-.183-.277-.207a19.36 19.36 0 0 0-.966-.011h-.896v.953zm2.527 0v.953h2.069v-.371h-1.59v-.446h.915v-.338h-.915v-.403h1.569v-.348h-2.048v.953zm2.773-.006c-.309.521-.562.95-.562.953 0 .003.107.006.237.006h.237l.117-.207.118-.207h1.246l.118.207.118.207h.266c.146 0 .266-.002.266-.005s-.257-.43-.57-.95l-.57-.946-.23-.003-.228-.003-.563.948zm2.643-.931c-.284.052-.302.117-.294 1.033.008.915-.065.86 1.146.854.802-.004.807-.004.904-.072.1-.07.126-.148.134-.41l.005-.198-.227-.045a6.174 6.174 0 0 0-.241-.046c-.01 0-.014.048-.014.202v.201h-1.231v-1.176h1.231v.174c0 .096.004.175.01.175l.235-.033.232-.033c.014 0-.008-.357-.026-.419a.284.284 0 0 0-.195-.192l-.076-.025-.757-.003c-.593-.002-.774.001-.836.013zm2.285.937v.953h.479v-.795h1.427v1l.046.04c.123.104.411.565.411.658 0 .006.005.012.011.012.007 0 .01-.478.01-1.41v-1.411h-.479v.718h-1.426v-.719h-.48v.954zm-8.648-.626c.1.019.113.04.117.198.005.241.049.226-.665.226h-.564v-.435h.527c.313 0 .55.004.585.01zm4.702.42c.116.208.208.38.206.381-.002.003-.19.003-.419.002l-.415-.003.204-.378c.112-.208.206-.378.209-.378.003 0 .1.17.215.376zm-4.646.355c.062.028.074.063.074.216 0 .247.04.233-.678.237l-.564.003v-.481l.564.003c.499.003.568.006.604.022zm4.338 1.233c-.051.034-.056.042-.083.127-.032.101-.048.117-.059.06-.008-.045-.015-.047-.05-.018-.024.02-.024.023-.011.06a.153.153 0 0 1 .007.072c-.006.027 0 .041.032.08.047.059.048.053-.002.11l-.04.047-.058-.032c-.072-.041-.083-.037-.058.019.043.095.041.098-.022.05-.067-.05-.06-.052-.106.013l-.036.05.115.057c.083.04.115.063.115.077 0 .033-.025.032-.18-.009l-.15-.04-.039.04c-.048.048-.058.042.17.121l.177.062v.047c0 .06.019.062-.21-.028-.23-.09-.196-.085-.225-.036-.024.04-.024.04-.002.057.211.165.285.226.285.238 0 .008-.004.012-.008.01-.345-.191-.335-.188-.357-.115-.044.15-.026.177.166.256l.117.049-.108-.006-.107-.006.007.057c.003.031.007.081.007.111 0 .054.003.058.158.256l.157.2v.058c0 .106-.022.09-.279-.19l-.227-.248-.299-.223a73.434 73.434 0 0 0-.332-.247l-.033-.024-.271.068c-.245.061-.273.07-.281.094-.014.038-.013.038.162.007.195-.034.243-.036.242-.01 0 .038-.018.046-.182.085-.158.038-.166.041-.16.064.013.043.024.043.177-.003.179-.052.201-.055.196-.021-.003.02-.033.034-.205.094-.267.094-.266.092-.04.07.09-.008.164-.013.165-.011a.407.407 0 0 1 .01.054l.006.05-.106.096c-.123.111-.117.103-.091.136l.02.025.2-.166c.192-.158.23-.18.237-.141.004.02 0 .024-.213.214l-.155.138.027.026.026.027.147-.139c.131-.124.15-.137.17-.127.042.023.024.05-.126.186-.156.141-.157.143-.079.158.039.007.044.004.144-.086.107-.097.149-.116.149-.069 0 .018-.027.05-.09.106l-.088.08.037.032c.065.055.066.055.136-.004.075-.062.077-.063.094-.026.011.025.008.032-.032.073-.04.043-.044.052-.05.123l-.007.077.087.086c.1.1.104.115.043.174l-.044.043.082.082c.1.101.107.138.026.158-.024.006-.036-.002-.09-.064-.05-.056-.07-.072-.094-.072-.052 0-.061-.008-.28-.249a2.223 2.223 0 0 0-.247-.25c-.409-.176-.678-.274-.782-.285-.152-.015-.156-.015-.17.017-.021.046-.016.06.022.06.07 0 .241.031.25.045.017.026.01.028-.059.013-.099-.021-.113-.02-.298.03-.17.047-.194.063-.153.104.002.001.049-.01.105-.024.11-.028.131-.024.131.022 0 .023-.006.026-.081.033-.098.01-.134.034-.091.064.035.025.06.022.18-.02.119-.043.17-.05.164-.021-.002.012-.048.034-.142.067-.133.047-.139.05-.139.08 0 .045.048.05.155.016l.085-.026v.026c0 .022-.01.028-.077.049-.09.027-.092.032-.019.057a.64.64 0 0 1 .115.057c.069.045.063.045.125.006.086-.056.102-.03.061.1-.046.147-.028.174.037.054.061-.114.068-.121.083-.093.01.02.005.039-.031.117l-.043.094.043.086c.047.093.036.085.163.117.036.009.038.013.039.053 0 .039.02.091.033.091a.336.336 0 0 0 .045-.016.145.145 0 0 1 .041-.014c.002.002.02.058.043.126.059.177.082.175.082-.006 0-.15.013-.187.054-.15.02.018.023.032.023.155v.134h.168l.106-.111c.086-.091.109-.109.117-.096.016.023.015.025-.021.06-.04.038-.04.046-.007.142l.025.076.119.029c.065.016.233.055.372.086l.254.057v.037c0 .02-.004.036-.008.036l-.358-.066-.35-.067-.184.051c-1.332.37-1.312.362-1.535.549l-.102.085c-.007.004.036.072.048.076a.44.44 0 0 0 .102-.078c.151-.136.45-.29.447-.231 0 .01-.603.476-.836.646-.014.01-.008.04.014.067a.324.324 0 0 0 .067-.025l.111-.05.047-.02-.04.057-.067.091c-.03.039-.026.042.052.052l.048.006.13-.178.132-.18.168-.123c.2-.147.18-.137.197-.095.012.03.012.036-.001.044-.164.093-.33.235-.43.363-.13.17-.127.16-.065.196l.051.028.04-.033c.05-.04.06-.04.05 0-.016.078.075.047.164-.054.06-.069.082-.087.106-.087.042 0 .038.019-.016.073-.053.054-.054.053.027.06l.062.007.09-.124c.121-.167.157-.177.085-.024-.053.113-.054.106.005.106h.048l.08-.134c.08-.133.112-.163.12-.115.002.017-.014.053-.047.102a4.3 4.3 0 0 0-.058.09c-.006.01.004.013.034.013h.042l.065-.131c.096-.196.123-.203.069-.018-.038.127-.038.123.002.133.028.007.029.006.076-.157.032-.109.053-.164.063-.164.01 0 .013.009.008.03-.01.051-.039.24-.039.258 0 .012.012.017.043.017.05 0 .047.011.066-.24.018-.24.017-.236.057-.244.044-.009.043-.027.013.195a6.846 6.846 0 0 0-.026.21c0 .01.025.013.091.013.063 0 .093-.004.097-.013.003-.008.013-.062.024-.12.023-.13.012-.128.223-.04l.16.066.114-.045c.115-.044.117-.045.297-.208.201-.181.225-.192.224-.105 0 .06.006.054-.158.182l-.141.11-.388.629c-.244.394-.384.63-.376.635.007.004.034.01.061.015.027.003.057.01.067.012.013.003.04-.044.113-.197.053-.111.1-.202.104-.202.034 0 .032.035-.005.16-.046.154-.05.148.058.08.1-.064.093-.05.111-.237.016-.162.024-.161.042.003l.014.127.038-.006c.05-.008.046.001.053-.122.008-.147.01-.157.041-.157.023 0 .027.007.039.079.024.137.018.128.082.128h.058l.007-.112c.011-.178.016-.204.04-.204.02 0 .02.01.02.13 0 .136.003.142.055.142.018 0 .02-.017.024-.21.005-.22.013-.258.053-.258.045 0 .06-.02.081-.103.021-.085.05-.11.065-.06.007.021.043.029.067.013.007-.005.017-.038.02-.073.02-.158.019-.162.104.402l.067.447-.36.817-.36.816.016.349c.022.483.024.448-.021.463-.163.054-.443.355-.662.711a.68.68 0 0 1-.082.116c-.01.005-.014.017-.01.03.014.04 1.854 3.22 1.864 3.22.01 0 1.791-3.07 1.791-3.088.001-.02-.04-.005-.123.045-.12.072-.158.09-.17.083-.027-.016-.005-.06.072-.153.153-.182.2-.267.145-.267-.058 0-.341.247-.467.407-.218.278.194-.479.483-.885.12-.171.155-.203.308-.29.247-.137.318-.227.275-.35-.026-.075-.078-.05-.209.102-.256.297-.474.573-.519.657-.06.111-.103.163-.139.163-.052 0-.1.032-.218.145-.12.114-.175.154-.207.147-.018-.003.021-.06.154-.22.116-.142.322-.578.322-.684 0-.071-.02-.13-.042-.126-.042.008-.198.302-.268.508-.05.147-.096.223-.139.228-.038.005-.048-.027-.025-.081.01-.023.051-.142.092-.265.04-.123.109-.299.152-.39.092-.2.101-.269.034-.247-.029.009-.045.041-.116.23a8.09 8.09 0 0 1-.434 1c-.069.123-.068.122-.082.108-.02-.02.012-.095.07-.168.122-.152.131-.175.093-.236-.028-.046-.056-.046-.104.002a.176.176 0 0 1-.067.044c-.108.022-.127.035-.268.188-.083.09-.098.076-.029-.028a2.32 2.32 0 0 1 .409-.39c.027-.015.01-.037-.028-.037-.02 0-.063.021-.12.06-.123.084-.147.096-.162.078-.024-.03.031-.085.152-.154.193-.11.197-.114.193-.146-.007-.06-.048-.056-.173.023a6.043 6.043 0 0 1-.176.105l-.063.036.026-.07c.014-.037.13-.35.256-.695l.23-.627-.119-1.278a95.892 95.892 0 0 1-.115-1.283.317.317 0 0 1 .062-.01l.058-.006.06.2c.046.152.067.208.092.236l.032.037.063-.22c.071-.25.063-.232.101-.223.024.007.028.012.023.036-.007.037-.05.372-.05.395 0 .016.074.06.084.05a1.56 1.56 0 0 0 .047-.196c.012-.058.015-.062.043-.062h.03l-.014.09-.02.125-.007.037.056-.004.056-.003.037-.12a.627.627 0 0 0 .037-.232c0-.15.025-.155.058-.011l.021.094-.034.139c-.038.15-.037.155.006.14.024-.008.039-.033.083-.138.042-.098.06-.128.075-.128.024 0 .026-.018-.014.163-.039.18-.043.154.04.256.076.096.071.099.103-.062.023-.117.028-.128.05-.128.02 0 .024.007.03.075l.008.075.062.047a.25.25 0 0 0 .144.06c.098.015.09.023.07-.071-.034-.166-.001-.157.112.031l.085.142h.044c.042 0 .047.004.107.08.122.156.171.133.122-.058-.018-.068-.015-.076.02-.076.032 0 .057.028.082.094a.162.162 0 0 0 .056.078l.037.025.003-.033c.006-.053.082-.05.108.005.011.023.026.038.039.038.025 0 .076.025.095.048.028.034.034.016.03-.094-.004-.162.046-.155.073.01.01.06.03.06.127.003.09-.054.085-.054.122.005.038.06.045.064.073.05.033-.018.033-.018-.126-.232-.15-.202-.154-.21-.096-.214.006 0 .056.057.111.129.105.137.131.157.166.125.03-.026.034-.02-.154-.253l-.165-.207-.107-.04c-.059-.021-.336-.15-.617-.285l-.51-.245-.48-.163c-.389-.133-.515-.171-.674-.204l-.196-.041-.008-.048a.24.24 0 0 1-.006-.05c.002 0 .137.027.302.062l.3.063.087-.022.13-.033.042-.01-.007-.052a6.611 6.611 0 0 0-.014-.102l-.007-.052h.034c.031 0 .056.04.056.091a.26.26 0 0 0 .03.058l.03.048.076-.003.076-.003.01-.096c.01-.095.01-.096.038-.093.02.002.03.01.03.025l.01.094.007.073.063.034c.12.063.137.047.098-.09-.011-.038-.012-.054-.003-.063.017-.016.054.043.063.1.007.038.01.04.057.047.078.01.084.009.105-.026.013-.022.028-.033.045-.033.047 0 .038-.017-.022-.047-.121-.06-.028-.127.1-.072.065.028.068.028.128-.016.06-.042.061-.042-.059-.081-.09-.03-.1-.037-.091-.06.014-.036.183.004.206.049.03.059.136.034.136-.032 0-.027-.029-.044-.166-.095-.096-.036-.144-.065-.133-.082.006-.01.043 0 .27.072.145.047.215.058.245.039.036-.023 0-.04-.17-.073-.2-.04-.302-.07-.373-.112l-.049-.028-.425-.008c-.57-.01-.582-.012-.547-.083.022-.045.043-.052.114-.037.12.024.22-.01.22-.075 0-.021.027-.008.127.061.088.062.105.07.125.06.037-.02.023-.056-.03-.074-.056-.018-.112-.069-.112-.1 0-.03.023-.03.114 0 .09.03.104.021.104-.062 0-.07.013-.08.107-.08h.065l.04-.1c.048-.122.05-.117-.064-.156-.137-.048-.133-.073.02-.122.15-.05.145-.047.126-.057a.823.823 0 0 0-.11-.028l-.095-.02.018-.03c.02-.037.026-.038.09-.015.054.02.305.062.314.053.01-.01-.033-.037-.16-.099-.095-.045-.123-.064-.12-.078.006-.031.063-.02.206.045.163.073.185.08.227.062.056-.023.04-.076-.022-.076-.11 0-.382-.133-.32-.157.038-.015.078-.003.258.071.199.083.252.093.337.065.1-.033.077-.067-.077-.11a2.084 2.084 0 0 1-.303-.105c.003-.003.418.055.478.068.029.006.03.004.03-.037 0-.05.01-.047-.174-.074-.149-.022-.168-.032-.075-.042.131-.013.151-.018.163-.04.019-.036.011-.036-.237-.005-.24.03-.445.077-1.069.24l-.188.05-.302.18-.302.182-.171.17-.172.17-.035-.036-.035-.035.15-.15.15-.15-.028-.08-.027-.079.079-.036c.304-.14.305-.14.282-.178-.007-.01-.017-.01-.05.004-.051.021-.047.028-.052-.08-.004-.105-.023-.093.173-.112.16-.016.16-.021-.002-.054-.097-.02-.125-.03-.12-.04a.542.542 0 0 0 .012-.042c.008-.031.03-.033.205-.015.127.012.126.012.083-.036-.049-.056-.044-.077.027-.117.04-.023.06-.041.06-.055 0-.026.023-.031-.185.038-.099.033-.194.06-.212.06h-.034l.04-.037c.04-.037.082-.053.322-.123.06-.017.069-.023.075-.05.01-.043.018-.043-.183.014-.226.064-.242.049-.036-.032.128-.05.15-.063.169-.095.025-.043.03-.042-.103-.014-.127.026-.115.025-.115.006 0-.01.08-.073.177-.143a2.25 2.25 0 0 0 .18-.136.887.887 0 0 0-.168.05l-.232.082c-.084.03-.07.02.183-.12l.225-.127v-.038c0-.051.027-.063-.494.226-.596.33-.63.356-.846.64-.168.223-.155.212-.206.178l-.036-.025.217-.265c.216-.265.216-.266.216-.32 0-.04-.003-.051-.013-.045a4.122 4.122 0 0 0-.093.06c-.091.062-.112.066-.112.022 0-.027.105-.122.21-.189.012-.007-.009-.092-.024-.101a.253.253 0 0 0-.073.037c-.078.05-.142.069-.13.04a.215.215 0 0 0 .006-.06c0-.039.002-.04.098-.092.107-.057.11-.06.076-.09-.022-.02-.024-.018-.125.032-.164.081-.196.049-.052-.052.088-.061.09-.064.055-.108l-.025-.03-.103.075c-.16.118-.225.113-.08-.007.064-.053.07-.06.067-.096-.003-.037 0-.04.095-.1.091-.058.118-.09.096-.11-.005-.006-.055.02-.111.055a.445.445 0 0 1-.112.058c-.023-.014-.004-.039.06-.078.063-.037.069-.043.056-.06-.013-.019-.023-.016-.137.041-.104.052-.124.06-.137.047-.014-.014.073-.082.25-.196.031-.02-.007-.017-.083.006-.117.037-.135.017-.04-.047.065-.045.074-.058.055-.087-.008-.013-.023-.01-.089.02a.282.282 0 0 1-.085.027c-.003-.004-.001-.009.005-.011.061-.023.136-.085.136-.114 0-.044-.021-.04-.093.018-.06.048-.06.049-.053.019.015-.063.025-.077.077-.107l.056-.033c.009-.007-.013-.081-.024-.08a.31.31 0 0 0-.067.036zm.36 4.48c.011.08.008.078.094.06a.41.41 0 0 1 .079-.012c.002.003.019.582.038 1.29l.036 1.285-.345.742-.345.742-.157.034c-.209.045-.19.05-.19-.057v-.09l.147-.091c.196-.123.245-.167.283-.256.046-.107.002-.149-.06-.056-.043.063-.05.064-.223.056l-.156-.008-.006-.122c-.004-.066-.01-.26-.013-.431l-.006-.31.284-.732c.339-.872.316-.719.186-1.26a35.844 35.844 0 0 1-.1-.426c-.003-.016.009-.029.042-.047l.047-.026v-.076c0-.067.002-.075.02-.075.023 0 .028.015.04.11.01.088.017.094.064.065.044-.027.045-.033.028-.164-.01-.072-.009-.084.008-.096.028-.02.03-.018.048.053.02.086.027.081.085-.046.055-.122.06-.127.071-.057zM16.47 25.77c-.07.067-.366.488-.355.506.007.014.026-.005.086-.086a.527.527 0 0 1 .221-.197c.11-.06.192-.195.146-.24-.027-.027-.056-.022-.098.017zm1.324.061c0 .018-.046.068-.077.084-.055.028-.065.022-.065-.038v-.055h.07c.04 0 .072.004.072.01zm-.654.097c0 .024-.012.037-.061.068-.095.06-.166.125-.322.293-.123.133-.146.153-.149.132-.011-.077.326-.436.472-.502.057-.026.06-.026.06.01zm.011.246v.112l-.065.062c-.07.068-.09.074-.12.038-.026-.033-.061-.01-.107.072-.052.09-.129.094-.098.004.017-.046.363-.416.38-.405.005.003.01.056.01.117zm-.918.068c-.079.043-.079.103 0 .242.075.132.07.13.098.038.065-.208.018-.342-.098-.28zm.915.285c-.018.018-.019.017-.019-.004 0-.028.012-.04.026-.026.008.008.006.017-.007.03zm2.334.057a.444.444 0 0 1-.049.079 1.55 1.55 0 0 0-.1.175c-.053.108-.069.127-.069.08 0-.038.017-.08.06-.143.02-.03.053-.087.075-.128.036-.066.083-.102.083-.063zm-2.494.051c0 .009-.016.024-.034.034-.019.01-.051.03-.072.043-.069.046-.09.029-.033-.026.072-.069.139-.093.139-.05z" fill="#241C24"/></svg>