<svg width="36" height="36" fill="none" xmlns="http://www.w3.org/2000/svg"><path d="M18 0c2.837 0 5.52.656 7.907 1.825C31.884 4.753 36 10.895 36 18c0 9.942-8.058 18-18 18-9.94 0-18-8.057-18-18C0 8.06 8.06 0 18 0z" fill="#F2F4F7"/><path d="M7.227 18.527h.44c.277 0 .284.285.284.285v1.517h2.503v-.708s-.539-.123-.539-.532c0-.338-.008-1.548-.008-1.925 0-.378.547-.555.547-.555v-.608H7.96v1.517c0 .247-.27.27-.27.27h-.924s-.27-.023-.27-.27v-1.517H4v.608s.547.177.547.555c0 .377-.008 1.586-.008 1.925 0 .409-.539.532-.539.532v.709h2.503v-1.518s.008-.285.285-.285h.44zm9.471-1.21h-1.65v-.426s-.021-.263-.274-.263h-.972s-.269.03-.269.268v1.008h1.524s.198.01.198.197v.188s-.02.205-.205.205h-1.502v.808s-.01.283.284.283h.952s.289-.02.289-.289v-.238h1.625l.002 1.271h-5.641v-.708s.539-.123.539-.532c0-.339.008-1.548.008-1.925 0-.378-.547-.555-.547-.555v-.608h5.64l-.001 1.316zm.629 3.013v-.71s.54-.123.54-.53c0-.34.007-1.549.007-1.926 0-.378-.547-.555-.547-.555v-.608h3.078v.709s-.54.123-.54.531c0 .34-.007 1.548-.007 1.926 0 .377.546.554.546.554v.608h-3.077zm4.435-.016a.972.972 0 0 1-.973-.972v-2.37c0-.537.435-.972.973-.972h4.222v1.306h-1.701v-.415s-.04-.268-.268-.268h-1.028s-.256.015-.256.33v2.389s.04.285.295.285h1.115s.203-.011.203-.285v-.273h1.65v1.245h-4.232zm8.284-3.324c0-.2-.162-.362-.362-.362h-.762c-.2 0-.362.162-.362.361v2.376c0 .2.162.362.362.362h.762c.2 0 .361-.162.361-.362V16.99zM32 19.341a.972.972 0 0 1-.972.972h-3.524a.972.972 0 0 1-.973-.972v-2.37c0-.537.436-.972.973-.972h3.524c.537 0 .972.435.972.972v2.37z" fill="#293180"/></svg>