<svg height="36" viewBox="0 0 36 36" width="36" xmlns="http://www.w3.org/2000/svg"><mask id="a" fill="#fff"><path d="M0 0h8.378v7.996H0z" fill-rule="evenodd"/></mask><g fill="none" fill-rule="evenodd"><path d="M18 0c2.837 0 5.52.656 7.907 1.825C31.884 4.753 36 10.895 36 18c0 9.942-8.058 18-18 18-9.94 0-18-8.057-18-18C0 8.06 8.06 0 18 0z" fill="#f2f4f7" fill-rule="nonzero"/><path d="M22.038 11.2a.292.292 0 0 0-.277-.201h-2.765l-.854-2.63a.294.294 0 0 0-.557 0l-.855 2.63h-2.764a.292.292 0 0 0-.172.528l2.237 1.626-.855 2.63a.298.298 0 0 0 .107.325.296.296 0 0 0 .344.001l2.237-1.626L20.1 16.11c.1.07.24.075.344-.001a.294.294 0 0 0 .107-.327l-.855-2.63 2.237-1.624a.293.293 0 0 0 .105-.328" fill="#000"/><path d="M8.363 3.033a.294.294 0 0 0-.277-.203H5.321L4.467.2a.294.294 0 0 0-.557 0l-.855 2.63H.291a.293.293 0 0 0-.172.53l2.237 1.625-.855 2.63a.298.298 0 0 0 .107.326.296.296 0 0 0 .344 0l2.236-1.625 2.237 1.626c.1.07.24.075.344-.001a.294.294 0 0 0 .107-.326l-.855-2.63L8.258 3.36a.294.294 0 0 0 .105-.327" fill="#fff" mask="url(#a)" transform="translate(13.675 8)"/><path d="M15.539 15.683c-.02.015-.046.015-.066 0s-.03-.038-.021-.061l.889-2.735-2.326-1.69a.054.054 0 0 1-.02-.062.055.055 0 0 1 .052-.04h2.875l.888-2.733a.058.058 0 0 1 .054-.04c.025 0 .046.018.053.04l.888 2.734h2.876c.023 0 .045.015.053.039a.054.054 0 0 1-.021.062l-2.326 1.69.889 2.734c.007.024-.001.047-.021.062s-.047.015-.066 0l-2.325-1.69z" fill="#ed1c24"/><g fill="#048743"><path d="M5.674 19.888a.101.101 0 0 0-.101.1v1.144c0 .177.055.296.152.339.052.022.166.075.23.104.044.02.046.066.039.124l-.026.252c-.006.06-.052.084-.141.084H4.173c-.084 0-.136-.014-.143-.084l-.027-.26c-.007-.067.006-.1.046-.118.056-.027.177-.081.229-.105.103-.047.146-.186.146-.333V18.31c0-.158-.044-.285-.16-.34a9.841 9.841 0 0 1-.214-.098c-.043-.02-.056-.061-.047-.12l.027-.193c.009-.068.059-.083.143-.083H5.75c.084 0 .132.015.14.083.009.055.02.142.029.194.008.058-.003.098-.046.12l-.186.103c-.068.037-.113.114-.114.296v.824a.1.1 0 0 0 .1.1h.884a.1.1 0 0 0 .1-.1v-.824c-.001-.182-.046-.26-.113-.296a7.716 7.716 0 0 1-.186-.103c-.042-.022-.054-.062-.046-.12l.027-.194c.01-.068.058-.083.142-.083h1.577c.084 0 .134.015.143.083l.027.194c.009.058-.003.099-.047.119a9.888 9.888 0 0 1-.215.099c-.114.054-.16.18-.16.339v2.825c0 .147.044.286.147.333.052.024.173.078.228.105.04.018.054.05.047.118l-.027.26c-.007.07-.06.084-.143.084H6.404c-.09 0-.135-.024-.141-.084l-.027-.252c-.006-.058-.004-.103.04-.124a9.04 9.04 0 0 1 .23-.104c.097-.043.15-.162.15-.34l.002-1.142a.101.101 0 0 0-.101-.101zm21.822 1.06c-.183.184-.424.368-.66.443-.221.07-.855.126-1.041-.397-.04-.113-.008-.148.095-.178.153-.046.546-.161.962-.318.377-.14.714-.313.819-.383.189-.124.216-.298.133-.486-.264-.595-.863-1.218-1.86-1.03-.79.152-1.356.864-1.356 1.68 0 1.008.607 1.598 1.38 1.78.716.17 1.558-.176 1.917-.76.143-.223-.26-.49-.39-.351zm-1.791-.794c-.047-.13-.043-.414.044-.65.059-.158.147-.281.3-.343a.486.486 0 0 1 .438.016c.133.076.228.228.289.432.04.14.032.292-.014.347-.067.082-.172.123-.296.167a6.763 6.763 0 0 1-.284.096c-.281.088-.412.112-.477-.065zm-5.273.794c-.184.184-.424.368-.66.443-.222.07-.855.126-1.041-.397-.041-.113-.008-.148.095-.178.152-.046.546-.161.962-.318.377-.14.713-.313.818-.383.19-.124.217-.298.134-.486-.264-.595-.863-1.218-1.86-1.03-.79.152-1.356.864-1.356 1.68 0 1.008.607 1.598 1.38 1.78.716.17 1.558-.176 1.917-.76.143-.223-.26-.49-.39-.351zm-1.792-.794c-.046-.13-.043-.414.045-.65.059-.158.146-.281.3-.343a.485.485 0 0 1 .438.016c.133.076.228.228.288.432.042.14.033.292-.013.347-.068.082-.172.123-.296.167a6.763 6.763 0 0 1-.284.096c-.28.088-.412.112-.478-.065zm-7.474.794c-.185.184-.424.368-.66.443-.222.07-.856.126-1.042-.397-.04-.113-.008-.148.095-.178.153-.046.547-.161.962-.318.377-.14.714-.313.819-.383.188-.124.216-.298.133-.486-.264-.595-.863-1.218-1.86-1.03-.79.152-1.356.864-1.356 1.68 0 1.008.608 1.598 1.38 1.78.717.17 1.558-.176 1.917-.76.143-.223-.26-.49-.388-.351zm-1.792-.794c-.078-.215-.016-.87.344-.993.38-.13.613.065.727.448.042.14.032.292-.014.347-.067.082-.187.13-.295.167l-.284.094c-.28.096-.413.114-.478-.063zm14.853-5.475-.154.344.172.369h-.207l-.12-.328h-.001v.328h-.193v-.713h.193v.303l.107-.303zm-.908.713-.107-.297-.001.002.002.105v.19h-.193v-.713h.186c.168 0 .289.049.289.237 0 .079-.034.148-.111.179l.144.297zm-.094-.383c.052 0 .079-.045.079-.091 0-.062-.038-.09-.091-.086v.176zm-.572.383-.014-.092h-.13l-.016.092h-.198l.17-.713h.236l.152.713zm-.037-.243-.021-.165-.014-.135h-.002c-.005.044-.01.09-.017.135l-.027.165zm-.648.243-.018-.448h-.002c-.008.05-.015.104-.024.155l-.055.293h-.157l-.067-.448h-.002c-.001.052 0 .105-.003.157l-.016.29h-.207l.083-.712h.24l.056.379c.007-.045.012-.088.02-.132l.046-.247h.238l.069.713zm-8.12-.713h.359v.168h-.165v.1h.148v.168h-.148v.108h.165v.169h-.358zm-.708 0h.156c.219 0 .337.138.337.354 0 .329-.207.359-.324.359h-.17zm.193.54c.088 0 .103-.11.103-.177 0-.077-.015-.185-.103-.185zm-.57.173-.013-.092h-.13l-.016.092h-.2l.172-.713h.236l.15.713zm-.036-.243-.021-.165c-.006-.045-.01-.091-.014-.135h-.002c-.005.044-.01.09-.018.135l-.026.165zm-.658.243-.107-.297-.002.002.003.105v.19h-.193v-.713h.186c.167 0 .288.049.288.237 0 .079-.033.148-.11.179l.144.297zm-.094-.383c.05 0 .078-.045.078-.091 0-.062-.037-.09-.09-.086v.176zm-.728.383v-.54h-.106v-.173h.409v.174h-.11v.539z"/><path d="M32 17.72a.65.65 0 1 1-1.301 0 .65.65 0 0 1 1.3 0zm-.132 0a.518.518 0 1 0-1.038 0 .519.519 0 1 0 1.038 0zm-.248.156c.01.076.046.13.064.17h-.174c-.033-.073-.04-.124-.057-.176-.023-.075-.07-.096-.151-.096h-.06v.273h-.16v-.7h.335c.078 0 .212.046.212.194 0 .094-.051.159-.104.179.058.038.083.08.095.156zm-.156-.325c0-.057-.06-.076-.108-.076h-.113v.16h.129c.055 0 .092-.036.092-.084zm-.222 1.992c0-.591-.268-.815-.578-.915-.358-.113-.79.074-1.011.176-.091.042-.174.085-.174.085-.057-.134-.088-.172-.173-.172h-1.048c-.084 0-.133.015-.143.083-.007.055-.02.14-.026.192-.008.055-.001.096.042.122l.128.072c.07.039.133.14.134.356v1.609c0 .177-.06.285-.132.326l-.185.103c-.043.024-.055.057-.047.12l.026.25c.007.07.059.085.142.085h1.47c.095 0 .136-.023.142-.084.005-.053.02-.188.024-.24.006-.072.003-.104-.043-.13l-.185-.102c-.095-.055-.135-.195-.135-.322v-1.28c0-.333.164-.52.387-.548.149-.018.34.074.34.336v1.723c0 .49.417.679.744.679.347 0 .642-.16.775-.437.04-.088-.01-.154-.053-.202-.05-.054-.093-.103-.173-.061-.08.04-.162.119-.21.092-.035-.02-.038-.05-.038-.127zm-14.274 0c0-.591-.267-.815-.577-.915-.358-.113-.79.074-1.012.176a6.956 6.956 0 0 0-.174.085c-.057-.134-.087-.172-.172-.172h-1.048c-.084 0-.133.015-.143.083l-.027.192c-.007.055-.001.096.043.122l.127.072c.07.039.134.14.134.356v1.609c0 .177-.06.285-.131.326l-.186.103c-.042.024-.054.057-.047.12l.026.25c.007.07.059.085.143.085h1.47c.094 0 .135-.023.142-.084l.024-.24c.006-.072.003-.104-.044-.13l-.184-.102c-.095-.055-.135-.195-.135-.322v-1.28c0-.333.163-.52.387-.548.149-.018.339.074.339.336v1.723c0 .49.417.679.744.679.347 0 .643-.16.775-.437.042-.088-.01-.154-.052-.202-.05-.054-.094-.103-.174-.061-.078.04-.161.119-.21.092-.034-.02-.038-.05-.038-.127zm-4.46-2.16a.58.58 0 0 0-.59.569c0 .315.265.57.59.57s.59-.255.59-.57a.58.58 0 0 0-.59-.57zm.627 3.778c0 .17.058.275.134.318l.185.102c.046.026.049.058.043.13-.004.052-.018.187-.024.24-.006.06-.047.084-.141.084H11.86c-.084 0-.135-.014-.143-.084-.008-.083-.016-.167-.026-.25-.006-.064.005-.097.047-.121.062-.035.124-.07.186-.103.073-.041.13-.15.13-.326v-1.61c0-.215-.063-.316-.133-.355a4.978 4.978 0 0 0-.127-.072c-.043-.026-.05-.067-.042-.122l.026-.192c.01-.068.059-.083.143-.083h1.114c.054 0 .098.044.098.098zm10.267-1.364.763 1.38c.125.228.264.29.453.398.049.028.064.046.055.137l-.023.236c-.007.078-.063.087-.141.087h-.883c-.112 0-.156-.023-.195-.095l-.781-1.42-.28.265v.372c.003.169.08.279.157.322l.185.102c.046.026.049.058.043.13-.005.052-.02.187-.024.24-.006.06-.047.084-.142.084h-1.47c-.083 0-.136-.014-.143-.084l-.025-.25c-.008-.064.004-.097.047-.121.06-.035.123-.07.186-.103.072-.04.13-.15.13-.326v-2.87c0-.2-.075-.29-.134-.322l-.187-.105c-.041-.024-.05-.07-.041-.123l.024-.172c.009-.072.057-.083.142-.083h1.062c.09 0 .19.066.19.192v2.194l.685-.617c.063-.056.045-.116.009-.132a4.3 4.3 0 0 0-.167-.077c-.042-.018-.064-.042-.057-.111l.024-.224c.006-.066.029-.092.137-.092h1.297c.082 0 .109.028.115.08.005.06.02.187.026.249.004.048-.03.076-.101.102-.188.069-.27.118-.523.363-.158.153-.413.394-.413.394z"/></g></g></svg>