<svg height="36" viewBox="0 0 36 36" width="36" xmlns="http://www.w3.org/2000/svg"><mask id="a" fill="#fff"><path d="M0 0h12.433v4.024H0z" fill-rule="evenodd"/></mask><mask id="b" fill="#fff"><path d="M0 0h13.182v4.025H0z" fill-rule="evenodd"/></mask><mask id="c" fill="#fff"><path d="M0 0h14v7.542H0z" fill-rule="evenodd"/></mask><g fill="none" fill-rule="evenodd"><path d="M18 0c2.837 0 5.52.656 7.907 1.825C31.884 4.753 36 10.895 36 18c0 9.942-8.058 18-18 18-9.94 0-18-8.057-18-18C0 8.06 8.06 0 18 0z" fill="#f2f4f7" fill-rule="nonzero"/><path d="m12.433 2.624-.297 1.4H7.088C4.146 4.024.184 3.195 0 3.156L.665 0c2.627 1.333 4.333 2.64 6.917 2.625z" fill="#e0058c" mask="url(#a)" transform="translate(5.566 13)"/><path d="M5.45 16.674h.027c.362.076 4.263.875 7.178.875h4.936l-.298 1.4h-5.418c-2.76 0-6.403.716-7.09.857z" fill="#00a886"/><path d="M6.499.051A31.583 31.583 0 0 1 8.317 0h4.865l-.298 1.401H8.031C5.528 1.401 3.212 2.76 0 4.026L.669.875S3.754.237 6.499.051" fill="#009bdb" mask="url(#b)" transform="translate(4 19.474)"/><path d="M10.556.14h.29c.09 0 .168.042.168.168 0 .123-.081.209-.228.209h-.309zm-2.114 0h.289c.091 0 .169.042.169.168 0 .123-.081.209-.228.209h-.309zm-4.388 0h.283c.102 0 .202.027.202.155 0 .074-.038.203-.254.203h-.308zm8.895-.024c.19 0 .293.149.293.339 0 .245-.145.507-.417.507-.206 0-.303-.137-.303-.336 0-.247.141-.51.427-.51zM10.441.025l-.215 1.028h.137l.089-.421h.306c.302 0 .392-.196.392-.324 0-.187-.108-.283-.304-.283zm-2.114 0-.215 1.028h.137l.089-.421h.305c.303 0 .393-.196.393-.324 0-.187-.107-.283-.305-.283zm-2.223 0-.128.604c-.059.287.072.448.373.448.174 0 .332-.069.4-.239.017-.04.035-.118.052-.197l.128-.616h-.136l-.13.616c-.04.193-.089.321-.314.321-.199 0-.289-.099-.243-.298l.135-.639zm-2.163 0-.217 1.028h.137l.091-.439h.304c.059 0 .197-.026.154.218a.468.468 0 0 0-.002.221h.142c-.041-.082-.007-.17-.001-.264.009-.103-.016-.196-.106-.223V.563a.275.275 0 0 0 .232-.277c0-.202-.164-.261-.338-.261zM12.949 0c-.351 0-.564.294-.564.626 0 .284.16.451.44.451.343 0 .553-.299.553-.622 0-.254-.162-.455-.429-.455zM2.059 0c-.352 0-.565.294-.565.626 0 .284.161.451.441.451.111 0 .229-.04.307-.126l.008.102h.087l.112-.542h-.448l-.023.115h.328c-.049.199-.154.336-.371.336-.206 0-.304-.137-.304-.336 0-.247.141-.51.428-.51.15 0 .276.071.276.229h.137C2.472.107 2.286 0 2.059 0zm7.147 2.822h.779c.608 0 .886.323.777.838-.218 1.015-.922 1.014-1.308 1.014h-.645zm3.975-.162h.015l.181 2.956h-1.645zm-4.513-.368-1.125 5.25h.652l.501-2.338h.882c.334 0 .724.044.622.765l-.13.816c-.04.257-.072.647.015.757h.7l.758-1.529h1.853l.102 1.529h.503l-.44-5.25h-.591L10.795 6.54l.118-.718c.067-.449-.112-.824-.561-.875l.003-.015c.647-.147.976-.75 1.099-1.324.178-.83-.245-1.316-1.074-1.316zm-3.291 0-1.124 5.25h3.031l.186-.868H5.506l.302-1.411h1.779l.186-.868H5.994l.265-1.235h1.89l.186-.868zm-4.252 0L0 7.542h1.483l.453-2.117h.712l-.454 2.117h1.483l1.124-5.25H3.319l-.407 1.897h-.71l.405-1.897z" fill="#231f20" mask="url(#c)" transform="translate(18 13.332)"/></g></svg>