<svg height="36" viewBox="0 0 36 36" width="36" xmlns="http://www.w3.org/2000/svg"><mask id="a" fill="#fff"><path d="M0 0h28v16.701H0z" fill-rule="evenodd"/></mask><g fill="none" fill-rule="evenodd"><path d="M18 0c2.837 0 5.52.656 7.907 1.825C31.884 4.753 36 10.895 36 18c0 9.942-8.058 18-18 18-9.94 0-18-8.057-18-18C0 8.06 8.06 0 18 0z" fill="#f2f4f7" fill-rule="nonzero"/><g fill="#00704a"><path d="M26.794 11.975v-7.25c0-1.42-.048-1.664-2.184-2.264-4.021-1.129-7.572-1.35-10.415-1.354V0H28v16.702H14.195v-1.01A38.573 38.573 0 0 0 24.61 14.24c2.136-.6 2.184-.843 2.184-2.264m-25.589 0v-7.25c0-1.42.048-1.664 2.184-2.264 4.021-1.129 7.572-1.35 10.414-1.354V0H0v16.702h13.803v-1.01A38.572 38.572 0 0 1 3.389 14.24c-2.136-.6-2.184-.843-2.184-2.264" mask="url(#a)" transform="translate(4 10)"/><path d="M28.37 17.585h-2.718v-.75h3.659v-1.51h-4.113c-.847 0-1.083.197-1.083 1.24v1.344c0 1.21.235 1.186 1.083 1.186h2.719v.752h-3.802v1.513h4.256c.847 0 1.083-.196 1.083-1.24v-1.31c0-1.212-.234-1.224-1.083-1.224m-5.824 0h-2.72v-.75h3.66v-1.51h-4.113c-.846 0-1.083.197-1.083 1.24v1.344c0 1.21.234 1.186 1.083 1.186h2.719v.752H18.29v1.513h4.257c.846 0 1.083-.196 1.083-1.24V18.81c0-1.212-.234-1.224-1.083-1.224m-4.842-.75v-1.51h-3.763c-.798 0-1.065.178-1.065 1.234v3.568c0 1.056.267 1.233 1.065 1.233h3.763v-1.513h-3.291v-.752h3.29v-1.51h-3.29v-.75zm-7.012-1.51v2.26H8.11v-2.26H6.544v6.035H8.11v-2.265h2.582v2.265h1.568v-6.034z"/></g></g></svg>