<svg height="36" viewBox="0 0 36 36" width="36" xmlns="http://www.w3.org/2000/svg"><mask id="a" fill="#fff"><path d="M0 0h26v23.706H0z" fill-rule="evenodd"/></mask><g fill="none" fill-rule="evenodd"><path d="M18 0c2.837 0 5.52.656 7.907 1.825C31.884 4.753 36 10.895 36 18c0 9.942-8.058 18-18 18-9.94 0-18-8.057-18-18C0 8.06 8.06 0 18 0z" fill="#f2f4f7" fill-rule="nonzero"/><path d="M25.602 4.248c-.408-.673-1.454-1.01-2.392-1.346-1.773-.656-1.933-.904-2.801-1.294-.993-.532-1.984-.922-2.942-1.152C15.394-.058 13.782-.075 12.56.1 9.44.544 6.251 2.28 4.107 4.655c-.48.55-.922 1.063-1.312 1.666C1.714 7.97.934 10.026.739 12.028c-.107 1.205.124 2.286-.32 3.58C.013 16.76-.2 17.91.26 19.08c.214.566.55 1.028 1.241 1.47.94.586 1.897.586 2.819 1.011.248.106 1.47.904 2.126 1.17.762.319 1.311.477 1.754.584 1.046.266 2.18.39 3.385.39a13.59 13.59 0 0 0 5.76-1.312c1.559-.726 3.242-1.842 4.571-3.207.674-.673 1.135-1.347 1.542-1.95.514-.762.94-1.594 1.241-2.338a14.53 14.53 0 0 0 .85-2.907c.284-1.576.284-3.047.284-4.093 0-.886.212-1.63.16-2.393 0-.407-.107-.779-.39-1.258" fill="#fff" mask="url(#a)" transform="translate(5 6)"/><path d="M14.085 9.344c-2.41 1.383-1.506.053.195-.85 2.694-1.418 5.618-.958 5.618-.958s-2.836.107-5.813 1.808m16.269 1.223a1.773 1.773 0 0 0-.532-.602c-.035-.018-.053-.036-.106-.053-.019-.018-.036-.018-.054-.036-.407-.23-.886-.354-1.364-.532-.107-.035-.177.036-.107.106 1.135 1.312 1.24 2.34-.035.798-3.402-4.11-9.303-3.916-9.693-3.88a9.808 9.808 0 0 0-1.01.105c-3.03.48-5.955 2.109-8.046 4.395a13.365 13.365 0 0 0-1.312 1.684c-1.045 1.595-1.736 3.438-1.949 5.333-.142 1.189.195 2.624-.283 3.74-.692 1.648-.515 3.793 1.346 4.52.23.087.55.194.78.265.674.195 1.364.212 2.003.55.124.052.248.124.354.194.124.07.23.124.355.195.478.284.956.567 1.488.78.018.017.036.017.07.036.037.017.09.035.125.053 1.4.567 2.89.815 4.36.85.23 0 .46 0 .69-.018.108 0 .231-.017.338-.017l.673-.053c.23-.036.46-.054.673-.107.107-.018.23-.035.337-.053a13.529 13.529 0 0 0 3.562-1.24c.141-.07.266-.142.408-.213.123-.072.266-.16.39-.23.266-.16.513-.32.761-.479.39-.266.745-.532 1.081-.815.178-.142.337-.302.497-.444.319-.3.638-.62.921-.956.425-.496.815-1.028 1.17-1.577.921-1.454 1.542-3.101 1.896-4.838.018-.089.036-.16.036-.23.017-.071.035-.16.035-.231.195-1.187.265-2.41.195-3.668.018-1.24.585-2.145-.053-3.332" fill="#9c3"/><g fill="#693"><path d="M10.346 25.4c-.195-.213-.478-.496-.655.16-.248.885-1.134.85-1.56.78-.053-.018-.106-.036-.142-.036a3.438 3.438 0 0 1-.673-.23c-1.86-.71-2.145-2.783-1.453-4.432 0 0-1.56 3.404 1.046 4.75.85.443 1.825.443 2.676.904.248.124.478.266.708.407.478.267.958.568 1.471.78.053.036.125.053.195.088 3.438 1.365 7.354 1.01 10.615-.655.567-.283 1.063-.62 1.577-.921 1.01-.603 1.967-1.489 1.967-1.489-2.162 1.4-10.172 6.114-15.772-.107"/><path d="M6.89 23.663c.444-.32.745.124.957.46.23.337.16.604-.088.763-.248.16-.656-.018-.886-.373-.23-.336-.177-.585-.107-.726zm16.198-4.448c-.106-.674-.514-.94-1.152-.815-.054.018-.124.018-.177.035.018-.052.018-.09-.018-.09-.142.02-.32.16-.372.214-.035.036-.107.09-.177.177a1.44 1.44 0 0 0-.461 1.082c0 .708.443 1.08.868 1.418.426.319.78.585.78 1.027 0 .373-.23.514-.443.568-.32.052-.461-.143-.461-.533v-.282c0-.107-.07-.16-.177-.143l-.106.018-.178-.124-.265.249a.189.189 0 0 0-.053.123v.337c0 .744.46 1.187 1.223 1.062.248-.035.46-.14.655-.265.018-.017.018-.017.036-.017.177-.124.318-.284.478-.497.017-.036-.036-.088-.036-.106.036-.106.106-.247.125-.478l-.036.017v-.124c0-.673-.39-1.046-.904-1.453-.443-.354-.726-.585-.726-.975 0-.249.124-.479.408-.53.265-.055.406.105.406.6v.143c0 .071.054.123.125.107l.478-.09a.136.136 0 0 0 .072-.035c.105-.054.265-.212.3-.265.053-.09-.07-.125-.07-.179.035.019-.053-.14-.142-.176m-8.382.567c-.018 0-.053.018-.106.036-.036-.036-.072-.036-.125-.036l-1.577.266-.106-.142-.195.177c-.035.036-.07.071-.088.106a.248.248 0 0 0-.037.107v4.643c0 .107.072.16.178.142l.46-.09c.037 0 .054-.017.09-.017.017 0 .017-.017.035-.017.07-.036.248-.248.248-.248s-.106-.23-.106-.284c0-.018-.035-.053-.072-.089V22.83c0-.035.037-.07.072-.088l.761-.124c.036 0 .054-.018.09-.036.07-.035.265-.248.265-.248s.035-.177.035-.23c0 0-.106-.249-.14-.249a.454.454 0 0 0-.125.072c-.036-.018-.07-.037-.125-.018l-.761.124c-.035.017-.072-.018-.072-.053v-1.223c0-.036.037-.07.072-.089l1.098-.195a.13.13 0 0 0 .07-.036c.036-.035.285-.265.285-.265s.106-.106.018-.23c0 .052-.107-.16-.142-.16m1.594 1.949-.248.036c-.035.018-.07-.017-.07-.053v-1.418c0-.035.035-.07.07-.09l.249-.035c.371-.052.478.09.478.71 0 .585-.107.78-.478.85m1.24 1.879c-.036 0-.036-.018-.071.018l-.443-1.417c-.018-.036-.106-.23-.07-.25.39-.265.655-.442.655-1.221 0-.85-.195-1.454-1.17-1.295l-.815.141a.926.926 0 0 0 .053-.122c-.16.017-.106-.108-.23.017-.054.07-.16.142-.212.195-.054.053-.09.105-.09.16v4.66c0 .107.072.16.178.142l.478-.09c.018 0 .054-.016.071-.016.053-.019.248-.23.248-.23s.089-.09.106-.16c0 0-.123-.107-.23-.178V22.51c0-.035.035-.07.071-.089l.16-.035c.035-.018.07.019.088.054l.496 1.753a.2.2 0 0 0 .23.124l.443-.088c.054-.017.072-.017.09-.036.088-.052.23-.195.23-.195s.053-.07.053-.087c-.036.016-.283-.302-.319-.302m2.782-.478h-.053c0-.053-.017-.105-.054-.089l-1.133.195c-.036.019-.07-.016-.07-.052V21.82c0-.035.034-.07.07-.089l.726-.124c.036-.017.071-.017.107-.052.088-.054.23-.214.248-.25a.251.251 0 0 0 .035-.105c.017-.09-.124-.09-.213-.09v-.052c0-.072-.035-.124-.106-.142h-.053l-.727.124c-.035.018-.07-.017-.07-.054v-1.204c0-.036.035-.071.07-.088l1.081-.195c.035-.019.053-.019.09-.035.105-.07.247-.214.265-.266.035-.054-.053-.108-.053-.178 0 0-.054-.017-.142-.036v-.07c0-.106-.088-.16-.177-.141l-1.613.282-.036-.16-.265.25a.202.202 0 0 0-.053.14v4.643c0 .108.088.16.177.143l1.772-.32c.053-.018.088-.018.107-.035.07-.035.3-.248.3-.248s.054-.07.054-.142c-.018.054-.248-.195-.284-.195m6.026-.956s-.09-.09-.142-.125v-4.147c0-.106-.071-.158-.178-.14l-.283.052-.053-.142-.195.195c-.054.053-.107.107-.107.177v1.861c0 .036-.035.07-.07.088l-.745.125c-.035.018-.07-.018-.07-.053v-1.86c0-.108-.071-.16-.178-.143l-.283.053-.035-.159-.232.213c-.053.035-.088.123-.088.177v4.643c0 .106.088.159.177.141l.426-.07a.35.35 0 0 0 .16-.09.953.953 0 0 0 .194-.176c.106-.09.053-.107.053-.107a.3.3 0 0 0-.053-.23l-.018-.018c-.035-.089-.053-.16-.07-.16-.018 0-.036.018-.054.018v-1.364c0-.035.036-.07.071-.089l.745-.123c.035-.018.07.017.07.052v1.914c0 .107.07.16.178.142l.478-.089c.107-.017.372-.318.372-.318s-.088-.195-.07-.248"/><path d="M24.966 16.309a1.36 1.36 0 0 1-.23.32c-.088.07-.301.159-.425.034-.55-.532-.532-2.746-.018-3.668.177-.337.443-.443.62-.461.195 0 .319.213.355.284.407.762.141 2.658-.302 3.49zm-2.817-5.033c.425.107-.16 2.87-.71 3.952-.177-1.896.213-4.076.71-3.952zm-2.641.053c.425.106-.177 3.083-.708 4.094-.195-1.843.23-4.218.708-4.094zm-4.112 4.43a5.208 5.208 0 0 1 .426-1.382 1.19 1.19 0 0 1 .212-.3c.09-.09.16-.16.25-.178.034-.018.07-.018.105-.018h.053c.017 0 .017.018.017.018s.02 0 .02.018c.017 0 .017.017.017.017.053.036.106.125.123.23a.986.986 0 0 1 .018.32c-.018.106-.035.23-.053.354-.053.23-.16.407-.283.585a.725.725 0 0 1-.23.23 1.34 1.34 0 0 1-.32.142c-.053.018-.124.018-.177.018-.018 0-.089-.018-.16-.018v-.035zm10.155.585c.673-1.276.763-3.739-.283-4.164-.195-.089-.39-.107-.567-.089l-.036-.106a1.681 1.681 0 0 0-.407.23c-.178.142-.373.337-.408.426-.337.407-.532 1.028-.656 1.771-.036.285-.16.656-.266.958-.319.939-1.134 2.675-1.382.513.656-.92 1.914-4.767.673-5.245l.018-.16-.106-.053s-.177-.017-.32.053c-.159.09-.372.337-.46.48-.017.017-.017.017-.017.035-.337.513-.55 1.417-.62 2.321-.09 1.028-.107 1.914.088 2.622.089.337.052.462 0 .55-.373.567-1.684 1.878-1.861-.478.602-.833 1.843-4.945.602-5.353l.018-.035-.425-.035-.23.23c-.869.763-1.1 3.74-.798 5.299 0 .017.054.248.054.301l-.037-.035c-.088.106-1.169 1.754-2.161 1.489-.248-.054-.443-.25-.531-.638-.054-.195-.072-.515-.09-.727v-.355c.036.018.07.018.107.018.07.018.159.018.23.018.16.018.337 0 .514-.054.177-.053.408-.159.567-.3l.053-.054c.036-.035.195-.177.266-.266.071-.088.142-.266.142-.266l-.07.018a.25.25 0 0 0 .035-.106c.017-.035.017-.089.035-.124.017-.018.017-.036.017-.053v-.09a1.97 1.97 0 0 0-.088-.903c-.089-.212-.354-.53-.78-.513l.195-.178c-.16-.035-.638.213-.638.213s-.46.372-.69.673a3.484 3.484 0 0 0-.71 1.542c-.213-.018-.425-.036-.656-.053l-.088-.018-.017-.018c.017-1.063.053-2.463.088-3.615.017-.319-.142-.46-.32-.514l.037-.053.176-.088c-.159.035-.443-.09-.531-.036a.634.634 0 0 0-.248.23c-.018.036-.035.054-.018.071.053.514.089 2.251.053 3.97a9.32 9.32 0 0 0-1.223.053c-.105.018-.23.035-.318.053.035-1.01.088-2.18.088-2.18.018-.407-.213-.531-.46-.567l.177-.088c-.09-.018-.355-.177-.532 0l-.142.141c-.018.019-.036.036-.036.054.036.371.054 1.701.036 2.835a8.142 8.142 0 0 0-.904.408c-.017.017-.035.017-.07.035h-.09s-.14.107-.247.213c-.178.142-.178.372-.124.532a.312.312 0 0 0 .124.177c.035.018.053.018.089 0 .035-.018.23-.142.318-.195.036-.035.09-.053.125-.09.053-.034.106-.052.158-.087.195-.107.338-.213.585-.32 0 .178-.017.337-.017.515-.036.78-.088 2.977-.088 2.977-.054 1.151.495.956.938.885.018 0 .036-.017.036-.017.053-.018.195-.159.248-.23.036-.036-.053-.16-.089-.213l-.142-.09-.053.055c-.053-.886-.053-2.322-.017-3.456 0-.23 0-.479.017-.744l.373-.107a8.223 8.223 0 0 1 1.17-.195c-.018.603-.037 1.507-.054 2.11-.053 1.08.461.815.887.743.017 0 .035-.017.053-.017.052-.054.123-.106.23-.23.035-.036-.035-.125-.053-.196l-.23-.16c-.037-.637-.037-1.452-.037-2.268l.25.019c.14.017.3.017.46.017 0 .071-.018.124-.018.195 0 .124 0 .266.018.39.017.248.07.514.141.744.09.23.195.46.355.656.089.088.177.177.301.248 1.489.744 2.676-1.311 2.888-1.701l.019.035c.656 2.694 2.498.372 2.693-.106.443 1.134.94 1.258 1.4.85.177-.124.408-.372.408-.372s.053-.07 0-.106h-.036c.195-.319.39-.744.532-1.187.124.833.337 1.382 1.028 1.453.177.035.39 0 .602-.09a.473.473 0 0 0 .178-.105l.035-.035c.035-.036.089-.072.124-.107l.248-.248s.088-.213.088-.23c.125.088.107.088.107.088z"/></g><path d="M25.214 16.078c-.088.16-.159.248-.23.32-.088.07-.301.159-.425.035-.55-.532-.532-2.747-.018-3.669.177-.336.443-.443.62-.46.195 0 .32.212.355.283.408.745.141 2.658-.302 3.491zm-3.527-1.098c-.158-1.896.232-4.077.71-3.952.425.124-.16 2.871-.71 3.952zm-1.931-3.9c.425.108-.177 3.085-.708 4.095-.195-1.843.23-4.218.708-4.094zm-4.13 4.431a5.208 5.208 0 0 1 .426-1.382c.054-.107.124-.212.214-.302.088-.088.158-.158.247-.176.036-.019.071-.019.106-.019h.053c.019 0 .019.02.019.02s.017 0 .017.017c.018 0 .018.017.018.017.053.036.106.124.124.23a.97.97 0 0 1 .017.32c-.017.106-.035.23-.053.354-.053.23-.16.407-.283.585a.716.716 0 0 1-.23.23c-.09.053-.195.106-.32.142-.053.018-.123.018-.177.018-.018 0-.088-.018-.159-.018v-.036zm9.89-3.597c-.408-.178-.745-.089-1.08.142-.586.39-.87 1.134-.994 2.09-.035.302-.16.656-.265.957-.32.94-1.135 2.676-1.383.515.691-.958 2.003-5.033.531-5.281-.85-.16-1.293 1.311-1.417 2.747-.089 1.063-.053 1.949.106 2.658-.123.177-1.63 2.728-1.843.018.603-.85 1.86-5.015.567-5.37-1.346-.355-1.771 3.58-1.381 5.44-.178.284-1.206 1.967-2.145 1.72-.248-.054-.443-.249-.531-.639-.054-.195-.072-.513-.09-.726v-.355a.228.228 0 0 0 .107.018c.07.018.16.018.23.018.16.017.338 0 .514-.053.177-.053.408-.16.567-.302.142-.124.266-.283.337-.443.036-.088.07-.159.089-.248.017-.035.017-.088.035-.123.018-.019.018-.037.018-.054v-.053a1.973 1.973 0 0 0-.089-.904c-.106-.248-.443-.62-.957-.479-.371.09-.85.55-.956.674a3.48 3.48 0 0 0-.71 1.542c-.23-.018-.478-.036-.726-.053v-.035c.018-1.064.053-2.446.088-3.599.036-.726-.726-.53-.921-.46l-.035.035c.053.514.088 2.269.053 3.987a7.01 7.01 0 0 0-1.223.072c-.106.017-.23.035-.319.053.036-1.01.088-2.18.088-2.18.036-.744-.743-.55-.938-.496-.037.017-.037.035-.037.053.037.372.054 1.72.037 2.853a8.09 8.09 0 0 0-.905.408c-.088.053-.23.124-.336.212-.23.142-.23.39-.177.585a.319.319 0 0 0 .123.178c.036.017.054.017.09 0 .035-.018.23-.142.318-.195.036-.036.089-.053.124-.09.053-.035.106-.052.16-.088.195-.106.336-.212.585-.32 0 .178-.019.338-.019.515-.035.78-.088 2.977-.088 2.977-.053 1.152.496.957.939.886a.037.037 0 0 0 .036-.035c-.107-.762-.089-2.534-.054-3.898 0-.231 0-.48.018-.745l.372-.107a8.094 8.094 0 0 1 1.17-.194c-.017.602-.035 1.506-.053 2.109-.053 1.08.461.814.886.744.036 0 .053-.036.036-.054-.089-.656-.089-1.753-.089-2.835h.106c.16.018.373.018.585.036 0 .07-.017.124-.017.194 0 .125 0 .267.017.39.018.25.07.515.142.745.089.23.195.46.354.656.09.088.177.177.302.247 1.506.745 2.694-1.364 2.889-1.718l.017.053c.656 2.693 2.5.372 2.693-.106.78 2.002 1.773.886 2.323-.763.123.833.318 1.365 1.027 1.418.177.036.39 0 .602-.089 1.312-.443 1.826-4.306.497-4.855z" fill="#fff"/><path d="m14.706 19.57-1.826.319a.206.206 0 0 0-.177.195v4.643c0 .106.071.16.177.14l.48-.088a.205.205 0 0 0 .176-.195v-1.967c0-.035.036-.07.071-.088l.762-.124a.207.207 0 0 0 .177-.195v-.373c0-.106-.07-.159-.177-.141l-.762.124c-.035.017-.071-.018-.071-.054v-1.222c0-.035.036-.07.071-.089l1.099-.195a.205.205 0 0 0 .177-.195v-.371c.018-.09-.07-.143-.177-.125m1.825 1.914-.248.036c-.036.018-.071-.018-.071-.054v-1.417c0-.036.035-.071.071-.089l.248-.035c.372-.053.478.088.478.708s-.088.798-.478.85zm.726.479c-.018-.035.018-.09.035-.107.39-.265.532-.585.532-1.364 0-.85-.195-1.453-1.17-1.293l-1.116.194a.207.207 0 0 0-.177.195v4.644c0 .105.09.158.177.14l.479-.088a.206.206 0 0 0 .177-.195v-1.843c0-.035.035-.07.071-.088l.16-.036c.034-.018.07.018.088.054l.496 1.754a.204.204 0 0 0 .23.124l.461-.089a.163.163 0 0 0 .124-.195zm3.208.833-1.134.195c-.036.018-.071-.019-.071-.054v-1.364c0-.035.035-.071.07-.089l.728-.124a.206.206 0 0 0 .176-.195v-.354c0-.106-.07-.16-.176-.141l-.727.123c-.036.018-.071-.018-.071-.053v-1.205c0-.035.035-.07.07-.088l1.081-.195a.206.206 0 0 0 .178-.195v-.373c0-.106-.088-.16-.178-.142l-1.789.32a.206.206 0 0 0-.177.195v4.643c0 .106.088.16.177.142l1.843-.32a.206.206 0 0 0 .177-.195v-.39c-.018-.088-.089-.16-.177-.14m2.055-2.429c-.442-.355-.726-.585-.726-.975 0-.247.125-.478.408-.532.266-.052.408.106.408.603v.142c0 .07.053.124.123.106l.48-.088c.087-.018.158-.088.158-.178v-.16c0-.939-.443-1.275-1.169-1.15-.85.159-1.205.78-1.205 1.416 0 .71.443 1.081.868 1.418.425.32.78.585.78 1.028 0 .373-.23.515-.443.568-.32.052-.46-.143-.46-.533v-.283c0-.107-.072-.16-.178-.142l-.425.07c-.107.02-.178.108-.178.196v.337c0 .745.461 1.187 1.223 1.063.726-.124 1.223-.708 1.223-1.488.018-.656-.372-1.01-.887-1.418m3.757-2.853-.478.088c-.106.019-.177.107-.177.195v1.862c0 .035-.035.07-.07.087l-.745.125c-.036.018-.071-.017-.071-.053v-1.86c0-.107-.07-.161-.177-.143l-.479.089a.205.205 0 0 0-.177.195v4.643c0 .106.088.16.177.14l.479-.087c.106-.018.177-.107.177-.194v-1.915c0-.035.035-.07.07-.09l.745-.122c.036-.018.07.017.07.052v1.915c0 .106.072.16.178.141l.478-.09a.205.205 0 0 0 .178-.194v-4.642c0-.107-.07-.16-.178-.142" fill="#fff"/></g></svg>