<svg height="36" viewBox="0 0 36 36" width="36" xmlns="http://www.w3.org/2000/svg"><g fill="none" fill-rule="evenodd"><path d="M18 0c2.837 0 5.52.656 7.907 1.825C31.884 4.753 36 10.895 36 18c0 9.942-8.058 18-18 18-9.94 0-18-8.057-18-18C0 8.06 8.06 0 18 0z" fill="#f2f4f7" fill-rule="nonzero"/><path d="M12.132 22.765v2.536h1.611v-.535h-1.02v-.496h.93v-.511h-.93v-.453h1.02v-.54zm-1.083 0v.995h-.98v-.995h-.59v2.536h.59v-1.016h.98V25.3h.591v-2.536zm-4.049 0v.54h.766v1.996h.589v-1.996h.765v-.54zm3.832 3.636-1.198 2.557h.6l.192-.46h.88l.191.46h.615l-1.2-2.557zm.036 1.038.25.61h-.504zm2.983 1.519-.433-.827c-.035.003-.067.003-.101.003-.087 0-.136-.003-.22-.007v.831h-.59v-2.513c.216-.024.452-.042.75-.042.794 0 1.106.379 1.106.842a.852.852 0 0 1-.438.734l.598.98zm-.525-2.028a1.4 1.4 0 0 0-.228.016v.7c.077.006.119.01.188.01.281 0 .461-.135.461-.39 0-.21-.166-.336-.42-.336zm3.881-.51v2.54h.59v-.923h.876v-.517h-.876v-.557h1.022v-.542zm8.3 2.56c-.298 0-.466-.015-.778-.043v-2.492c.295-.03.5-.042.755-.042 1.056 0 1.55.548 1.55 1.264-.001.747-.47 1.311-1.527 1.311m.057-2.047c-.102 0-.154.003-.244.013v1.494c.108.012.153.015.281.015.556 0 .802-.313.802-.785 0-.46-.291-.737-.84-.737m-10.899-.511v.54h.765v1.997h.59v-1.996h.765v-.54zm-5.999 0v.995h-.98v-.994h-.59v2.536h.59V27.94h.98v1.017h.59v-2.536zM20.473 29c-.79 0-1.293-.565-1.293-1.308 0-.748.528-1.312 1.316-1.312.787 0 1.295.564 1.295 1.312 0 .743-.534 1.308-1.318 1.308zm.011-2.094c-.403 0-.675.328-.675.786 0 .453.272.785.675.785s.674-.332.674-.785c0-.458-.271-.786-.675-.786zm3.138 2.052-.434-.827c-.035.003-.067.003-.1.003-.087 0-.137-.003-.22-.007v.83h-.591v-2.512a6.58 6.58 0 0 1 .75-.042c.793 0 1.106.379 1.106.842a.852.852 0 0 1-.438.734l.598.979zm-.525-2.027c-.09 0-.145.002-.228.015v.7c.076.007.118.01.187.01.28 0 .462-.135.462-.39 0-.211-.167-.335-.421-.335z" fill="#822b2f"/><path d="M14.983 15.725v1.72c.917-.022 1.83-.03 2.732-.018 1.73-.73 3.351-1.392 5.16-1.66a1.3 1.3 0 0 0 .03-.042z" fill="#eff4f9"/><path d="M21.32 16.883c.243-.15.313-.2.618-.292.048-.014.251-.143.287-.163.053-.028.114-.173.171-.23a3.61 3.61 0 0 1 .427-.373.36.36 0 0 0 .05-.058c-1.807.268-3.429.929-5.158 1.66.467.005.93.018 1.391.034.948-.34 1.957-.418 2.215-.578m-6.338 1.657c.963-.36 1.861-.745 2.732-1.113a76.607 76.607 0 0 0-2.732.017v1.096z" fill="#deeaf3"/><path d="M17.244 19.729c-.034-1.289.883-1.918 1.862-2.268-.46-.016-.923-.029-1.391-.034-.87.368-1.77.753-2.733 1.113v2.395a13.49 13.49 0 0 0 2.461.138 3.72 3.72 0 0 1-.203-.766 1.447 1.447 0 0 1-.011-.43c.008-.061.015-.12.015-.148" fill="#cee1ee"/><path d="M24.61 21.051c.02.207.022.328.09.483.02.046.094.579.152.792.056-.015.13-.04.239-.079.012-.25.023-.988.031-1.071l.005-.067c.001-.013-.005-.058-.011-.108a2.723 2.723 0 0 1-.505.05m-.727.88c-.069-.115-.121-.338-.217-.35-.093.07-.309.142-.52.196 0 0-.08.061-.377.104l-.237.033c-.114.016-.244.049-.366.05-.057 0-.11.003-.161.006-.026.118-.004.215-.131.249-.171.044-.513-.092-.858.07a.606.606 0 0 0-.133.189c-.124.28-.142.31-.248.447-.03.042-.301.322-.333.354a.887.887 0 0 0-.223.364c1.67-.32 3.171-.704 4.116-1.09a7.04 7.04 0 0 0-.173-.38c-.063-.08-.07-.124-.139-.241M26.315 20c-.04.236-.086.47-.198.827 0 0-.127.334-.178.44-.078.165-.122.396-.192.61a2.661 2.661 0 0 1-.062.151c.33-.123.648-.241.728-.261V19.84a.612.612 0 0 0-.098.16m-7.75 2.534c-.083-.08-.181-.144-.266-.22a3.058 3.058 0 0 1-.77-1.042 3.398 3.398 0 0 1-.086-.201 13.42 13.42 0 0 1-2.46-.138v3.4a46.055 46.055 0 0 0 3.94-.485c.009-.086.014-.16.017-.172 0-.004.019-.437.005-.452-.127-.213-.214-.527-.38-.69" fill="#bbd6e9"/><path d="M28.075 7.497c.077.185.377.827.34 1.009-.014.07-.045.255-.07.3-.01.017-.06.106-.115.1-.11-.008-.12-.345-.155-.449-.049-.135-.137-.239-.247-.362-.035-.038-.116-.098-.155-.131-.246-.218-.555-.666-.91-.749-.002 0-.004-.002-.007.002-.001.004.003.015.009.021.013.013.096.077.267.253.097.1.23.23.309.342.093.134.328.343.409.463a.834.834 0 0 1 .146.34c.01.08.01.106-.037.116-.031.009-.232-.068-.541-.091-.028 0-.287-.023-.315-.023-.39-.045-.367-.027-.699-.132-.221-.07-.492-.167-.734-.216-.03-.006-.35-.116-.368-.093-.015.016.092.083.114.093.095.042.368.143.473.193.132.065.251.116.37.162.183.074.357.139.577.19-.02.265-.071.709-.177.9-.21.381-.503.752-.81 1.041-.066.062-.13.152-.218.232-.076.071-.175.185-.248.202-.046.01-.107-.004-.16.007-.074.015-.13.056-.194.047-.063-.01-.084-.066-.139-.094a1.16 1.16 0 0 0-.28-.07c-.068-.007-.095 0-.083-.061 0-.003.004-.006.007-.046.015-.201.017-.39.016-.533-.01-.584-.376-1.048-.595-1.443-.053-.097-.166-.317-.254-.418-.097-.11-.04.08-.024.14.02.07.08.15.1.21.016.032.028.08.04.114.115.345.41.81.454 1.227.003.026.009.06.008.078-.027.273-.068.616-.324.67a.213.213 0 0 1-.054.01c-.405-.003-.756-.558-.935-.85a3.891 3.891 0 0 1-.433-.943c-.053-.173-.077-.685-.094-.87-.003-.03-.006-.22-.007-.246 0-.011-.005-.026-.012-.026-.021 0-.053.173-.064.219-.038.147-.048.468-.048.6 0 .365.108.73.257 1.05.088.193.282.58.392.764.033.055.114.16.108.201-.011.094-.19.092-.246.108-.281.042-.655.006-.983-.086-.317-.087-.611-.19-.873-.355-.028-.021-.06-.04-.077-.067-.35-.275-.559-.903-.634-1.383a2.03 2.03 0 0 1-.017-.203l.087-.023c.37-.092.865-.414 1.142-.586.094-.058.187-.119.272-.19.01-.009.014-.014.011-.017-.001-.002-.01-.002-.02.002-.399.126-.932.456-1.304.552-.027.007-.132.035-.2.047l.003-.124-.002-.12c.042-.03.086-.074.145-.12.319-.252.532-.972.75-1.328.003-.003.01-.015.007-.018-.002-.002-.008.001-.016.006-.385.18-.568.974-.911 1.2-.28.186-.631.328-.82.59-.022.03-.07.144-.107.154-.016.003-.072.054-.101.038-.103-.062-.195-.259-.265-.369-.1-.162-.074-.632-.052-.806.032-.27.253-.617.383-.839.003-.005.004-.007.003-.01l-.01.003a1.07 1.07 0 0 0-.199.158c-.181.206-.414.551-.432.837-.02.27.055.87.23 1.048a.65.65 0 0 0 .103.1c.214.191.314.479.424.757a1 1 0 0 0 .132.247c.197.294.57.454.903.62.317.157.688.319 1.043.431.224.072.52.144.79.193.1.021.19.04.241.082.036.031.06.158.08.222.026.08.056.16.078.22.06.165.095.324.157.444.087.16.292.229.481.298.025.004.142.04.277.032.087-.003.098.101.093.15-.004.07.007.118.005.188-.004.18.012.18-.011.336-.005.036-.047.144-.075.233-.006.014-.015.028-.017.04-.018.088-.029.25-.057.338-.026.092-.14.374-.167.803a1.44 1.44 0 0 1-.155.506c-.036.077-.03.12-.06.208-.029.093-.046.163-.077.212a.71.71 0 0 1-.095.12 3.68 3.68 0 0 0-.426.373c-.058.057-.117.2-.171.23-.036.02-.24.149-.288.163-.304.091-.375.142-.617.292-.522.324-4.144.309-4.076 2.846 0 .028-.007.087-.015.147-.014.126-.018.262.011.43.057.36.157.691.29.967.225.468.435.74.77 1.042.084.075.181.14.265.22.166.163.253.477.38.69.014.015-.005.447-.005.452-.003.012-.008.086-.018.171a45.76 45.76 0 0 1-3.939.486v.967h11.43v-3.535c-.08.02-.398.137-.728.261l.02-.044.042-.108c.07-.213.114-.444.193-.609.05-.106.177-.439.177-.44a5.53 5.53 0 0 0 .198-.827c.007-.051.179-.264.179-.264.05-.067.091-.157.149-.238 0 0 .276-.576.269-1.074-.003-.092.025-.503.022-.862.002-.02.006-.038.006-.062 0-.068-.007-.13-.015-.193l-.001-.017c-.002-.014-.001-.03-.003-.043-.014-.092.007-.273.002-.355-.006-.108-.044-.096-.052-.207-.005-.075-.03-.134-.05-.205-.013-.051-.043-.098-.067-.144a.75.75 0 0 1-.007-.062c.013-.386-.243-.845-.25-.86-.122-.28-.109-.291-.088-.635-.014-.421-.083-.65-.126-.756a4.43 4.43 0 0 1-.19-.38.17.17 0 0 1-.011-.118c.028-.12.237-.154.32-.212a.469.469 0 0 0 .14-.194.06.06 0 0 0 .004-.022v-.128c0-.01-.007-.018-.008-.027-.004-.02.002-.049 0-.07 0-.007 0-.014.002-.02.074-.226.15-.427-.067-.54-.088-.048-.208-.068-.202-.157.002-.068.09-.093.141-.127a.918.918 0 0 0 .308-.3c.032-.055.032-.202.071-.24.028-.028.104-.05.155-.078.164-.084.325-.14.471-.224.396-.226.823-.66 1.128-.973.15-.154.39-.432.502-.632.088-.162.167-.557.178-.772.003-.05.015-.22.014-.23 0-.008 0-.017-.004-.017s-.009.003-.01.008c-.105.257-.206.724-.371.941-.123.16-.49.57-.671.687l-.025.015a.325.325 0 0 0 .017-.046.245.245 0 0 0 .016-.063c.042-.258.162-.442.162-.881 0-.042.08-.12.1-.154.14-.236.155-.559.116-.8-.026-.16-.26-.573-.346-.672-.008-.01-.143-.174-.162-.153-.009.007.006.04.013.053m-8.518 1.372c.088-.11.292-.23.371-.28.01-.005.02-.013.027-.017-.011.093-.017.18-.023.218l-.202.073c-.048.017-.11.055-.18.075-.055.013-.016-.04.007-.07m.234 1.276a.548.548 0 0 1-.086-.086c-.095-.085-.169-.241-.21-.394-.077-.3-.159-.24.025-.424a.77.77 0 0 1 .2-.14c.052-.026.124-.062.172-.075.015-.004.02-.006.046-.011.002.031.006.078.007.133.03.492.11.873.316 1.236a4.346 4.346 0 0 1-.47-.239m3.664 1.451c-.021-.018-.11-.032-.087-.102.008-.022.057-.039.07-.04.147-.027.387.043.308.181 0 0-.126.087-.133.087 0 0-.058-.023-.071-.03-.034-.024-.064-.079-.087-.096M20.08 23.644a.877.877 0 0 1 .223-.364c.032-.032.303-.312.334-.355.106-.138.124-.168.247-.447a.622.622 0 0 1 .134-.189c.343-.163.686-.026.857-.07.127-.034.106-.131.13-.249.051-.003.105-.005.163-.005.121-.001.251-.035.366-.05l.236-.033c.298-.043.378-.104.378-.104.211-.054.425-.126.52-.197.095.013.147.235.216.351.07.118.077.16.14.242.006.008.089.183.173.38-.946.386-2.446.77-4.117 1.09m5.042-2.467c-.008.083-.02.82-.031 1.071a3.9 3.9 0 0 1-.24.079c-.058-.213-.132-.746-.151-.792-.068-.155-.07-.276-.09-.483.173-.004.349-.017.505-.05.007.05.013.096.012.108zm2.77-10.861c-.122.306-.543.557-.892.677-.099.033-.307.154-.372.11-.025-.02.11-.132.14-.157.303-.243.7-.428 1.003-.658.073-.059.138-.109.153-.124-.003.031-.003.086-.031.152m-.004-.505c-.3.373-.933.564-1.274.803-.09.062-.16.143-.286.224-.038.023-.164.101-.248.14-.01.004-.052.04-.061.022-.02-.027.117-.182.13-.2.349-.448.667-.885.735-1.56.013-.155.02-.28.013-.389l.102.003c.427.02.994.062 1.052.485.027.2-.077.364-.163.472" fill="#822b2f"/><path d="M19.252 18.52c-.033.024-.053.046-.092.068l.001.003c.011.021.057.032.076.032.048-.005.114-.097.118-.122a.12.12 0 0 0-.04-.008c-.02 0-.038.008-.063.026zm.095.203c-.086.003-.15.039-.147.098.001.014.004.03.013.047l.026-.013.003-.001a.167.167 0 0 0 .058-.008c.067-.088.253-.15.283-.196a.184.184 0 0 0-.011-.05c-.01-.026-.018-.033-.043-.034-.013.031-.098.16-.145.165-.009-.002-.016-.003-.023-.007h-.015zm-.666 1.974c.065.002.104-.124.174-.15.076-.021.144-.059.212-.091a.104.104 0 0 1 .096-.058c.057 0 .119.028.183.027a.194.194 0 0 0 .072-.014h.007a.533.533 0 0 0 .14-.017l.024-.008-.01.023a.197.197 0 0 1-.093.102.111.111 0 0 1-.069.02c-.045.001-.098-.014-.136-.014-.045.063-.164.063-.158.145.002.01.003.023.007.032.01.022.029.03.055.03a.14.14 0 0 0 .032-.005c.073-.164.352.002.452-.206.063-.183.306-.316.376-.34.004-.002.004-.006.004-.01 0-.015-.035-.044-.038-.079a.05.05 0 0 1 .018-.042l.035-.026.006.003c.059.03.104.07.16.087a.372.372 0 0 0 .06.007c.083-.003.115-.045.114-.075-.001-.024-.022-.047-.075-.047h-.022c-.03-.009-.072-.01-.106-.021-.013-.005-.023-.003-.029-.02 0-.01.004-.012.012-.02.042-.017.083-.03.127-.048.234-.091.11-.154.191-.224a.116.116 0 0 1 .08-.025c.035 0 .076.006.114.006.046-.001.09-.01.125-.055.016-.02.033-.04.03-.063a.06.06 0 0 0-.012-.037c-.007-.004-.013-.012-.02-.019l-.002-.004v-.004c.016-.107.052-.141.047-.219 0-.024-.039-.034-.051-.074-.08.04-.085.066-.145.116.004.067.017.081.037.145l.004.014h-.025c-.02 0-.02 0-.04.02l.017.067-.02-.005a.182.182 0 0 0-.064-.01c-.084 0-.137.058-.185.118-.058.075-.104.15-.22.15h-.015c-.016.041-.037.058-.078.08l-.033.015c-.04.018-.085.04-.1.089v.007h-.007c-.137.015-.09.121-.132.213l-.003.005h-.006l-.043.006-.06.043c-.097.02-.227.065-.344.067a.402.402 0 0 1-.118-.018c-.006.008-.018.03-.04.03a.031.031 0 0 1-.016-.003l-.024-.011a.094.094 0 0 0-.043-.012.083.083 0 0 0-.038.012c-.09.004-.08.066-.13.123-.03.032-.052.05-.074.05-.035-.002-.054-.034-.085-.064-.035-.03-.06-.044-.095-.044-.017 0-.035.004-.05.007-.053.087-.134.086-.183.145 0 .001-.018.037-.015.06.002.012.002.014.016.015.007 0 .02-.003.04-.009a.331.331 0 0 1 .137-.062h.004l.004.003a.035.035 0 0 1 .018.03c-.001.037-.039.08-.039.115.025.02.045.027.062.027zm2.167-.36a.17.17 0 0 1-.106.095l-.033.017c-.04.02-.055.027-.054.058l.003.021.023.015.02.013a.064.064 0 0 1 .054-.027h.044l.027-.003c.033-.063.12-.073.112-.124a.12.12 0 0 0-.007-.03c-.01-.023-.059-.034-.083-.035zm.321.398c-.059-.004-.124.032-.097.078.043.072.12.034.185.03l.01-.025c-.022-.013-.03-.014-.05-.027a.113.113 0 0 1-.048-.056zm.019-.201c-.019.035-.012.055.007.093l.019-.016c.049-.038.162.013.168-.11-.054-.015-.093-.045-.155-.025a.225.225 0 0 0-.04.058zm.353-.288c-.1.016-.187-.023-.249.074l.038.032c.089.048.167-.002.244-.031.011-.037 0-.049-.033-.075zm-1.146.361-.02.024-.02.023a.542.542 0 0 1-.044.052l.063.055c.09-.045.135-.11.14-.201h-.009a.166.166 0 0 0-.11.047zm-.805.112c-.052.025-.056.065-.051.114l.002.036c.033.028.056.036.089.016l.018-.011.018-.012c.025-.021-.002-.004.049-.033.052-.03.027-.052-.03-.08-.027-.013-.063-.018-.095-.03zm.36-.19c-.05-.023-.046.04-.093.055l-.03.005c-.055.016-.053.022-.022.099.105.056.155.002.188-.108 0 0 .008-.032-.043-.052zm3.582-8.619c-.009-.008-.007-.036-.014-.048-.052-.064-.118-.083-.181-.125-.051-.032-.096-.085-.152-.127-.15-.118-.318-.27-.511-.315-.04-.008-.132-.012-.143 0-.032.04.054.232.063.268.008.03 0 .061.008.095.033.143.142.363.19.498.03.09.03.154.069.195.059.06.257.111.38.128.03.002.12.014.134.007.019-.009.079-.14.056-.173-.038-.053-.206.012-.286.007-.119-.004-.08-.056-.117-.164-.041-.123-.147-.21-.198-.34-.012-.036-.013-.088-.03-.142-.006-.014-.061-.093-.025-.118.02-.015.11.09.127.124.007.017.034.196.063.192.031-.006.025-.2.07-.175.02.01-.014.177.023.205.023.017.066-.008.081-.047.018-.013-.003-.067.022-.07.053.006.025.236.112.204.038-.014 0-.109.031-.118.03-.01.07.135.07.15.002.01-.002.062 0 .063.061.041.053-.125.072-.135.007-.002.135.109.134.104.005.04-.091.074-.094.085-.021.065.07.13.087.126.041-.004.06-.115.085-.126.019-.009.039-.055.017-.078-.022-.103-.089-.097-.144-.15zm1.199-.125-.078-.057a.573.573 0 0 0-.234-.093c-.221-.029-.35.05-.477.202l.025.014c.051-.083.105-.092.192-.13.05-.006.189-.041.229.025-.086.018-.228.039-.264.136a.293.293 0 0 1 .22-.043c.041.02.087.054.133.086.01.008.023.013.035.021-.008.003-.019.007-.022.012-.046.103.109.104.107.025a.179.179 0 0 0 .154-.016c.072-.062.01-.144-.02-.182z" fill="#fff"/></g></svg>