<svg height="36" viewBox="0 0 36 36" width="36" xmlns="http://www.w3.org/2000/svg"><mask id="a" fill="#fff"><path d="M0 0h28v7.536H0z" fill-rule="evenodd"/></mask><g fill="none" fill-rule="evenodd"><path d="M18 0c2.837 0 5.52.656 7.907 1.825C31.884 4.753 36 10.895 36 18c0 9.942-8.058 18-18 18-9.94 0-18-8.057-18-18C0 8.06 8.06 0 18 0z" fill="#f2f4f7" fill-rule="nonzero"/><path d="M28 6.617a.917.917 0 0 1-.918.918.916.916 0 0 1-.92-.918c0-.504.406-.919.92-.919a.93.93 0 0 1 .918.92zm-5.531-.76c-.187-.228-.276-.524-.276-.889 0-.356.089-.643.276-.86a.84.84 0 0 1 .682-.326c.286 0 .513.108.69.326.189.217.278.504.278.86 0 .365-.09.661-.277.888a.848.848 0 0 1-.691.326.829.829 0 0 1-.682-.326zm1.61 1.204v.366h1.58V2.488h-1.68v.306c-.295-.266-.71-.395-1.184-.395-.652 0-1.185.247-1.61.721-.414.475-.622 1.097-.622 1.848 0 .76.217 1.382.632 1.856s.948.711 1.61.711c.504.01.978-.158 1.274-.474zm-4.602-4.188a1.784 1.784 0 0 0-1.235-.484c-.306 0-.593.07-.83.209a1.254 1.254 0 0 0-.483.454 1.404 1.404 0 0 0-.504-.454 1.615 1.615 0 0 0-.8-.208c-.494 0-.9.167-1.195.513V2.53h-1.512v4.878h1.61V4.73c0-.286.06-.504.168-.64a.534.534 0 0 1 .445-.209c.474 0 .523.415.523.72v2.806h1.61V4.68c0-.256.059-.463.168-.602a.524.524 0 0 1 .445-.207c.464 0 .513.415.513.721v2.815h1.61v-3.12c-.01-.613-.188-1.087-.533-1.414zm-6.983-.336h-1.906L9.402 4.12V.227h-1.61v7.18h1.61V5.69l1.166 1.719h2.035L10.607 4.87zM7.14.978a.917.917 0 0 1-.92.92.917.917 0 0 1-.917-.92c0-.503.404-.918.918-.918s.919.414.919.919zm-1.72 6.43h1.61v-4.87H5.42zM2.895 2.242c-.514 0-.93.167-1.225.483V0H0v7.409h1.67V4.662c0-.286.069-.514.207-.672a.655.655 0 0 1 .534-.238c.444 0 .652.259.652.802v2.863H4.73v-3.22c0-.632-.178-1.116-.533-1.452a1.863 1.863 0 0 0-1.304-.503z" fill="#ff5c57" mask="url(#a)" transform="translate(4 14)"/></g></svg>