<svg width="36" height="36" fill="none" xmlns="http://www.w3.org/2000/svg"><path d="M18 0c2.837 0 5.52.656 7.907 1.825C31.884 4.753 36 10.895 36 18c0 9.942-8.058 18-18 18-9.94 0-18-8.057-18-18C0 8.06 8.06 0 18 0z" fill="#F2F4F7"/><path d="M17.844 18.848c-.267-.216-.637-.307-1.2-.307h-1.25l.176.602v2.881h1.023c.404 0 .722-.05.96-.164.535-.24.785-.745.785-1.586 0-.699-.153-1.154-.494-1.426zm-.552 2.529c-.159.102-.397.159-.682.159h-.392v-2.512h.33c.364 0 .614.057.773.17.244.17.34.478.34 1.069.006.608-.107.937-.369 1.113zm7.371-.444c-.005.029-.017.063-.022.097a.79.79 0 0 0-.029-.097l-.693-2.398h-.62l.188.625-.557 1.796-.017.063a.418.418 0 0 0-.023-.08l-.704-2.41h-.643l1.04 3.478h.58l.591-1.943.563 1.943h.602l1.006-3.478h-.614l-.648 2.404zM8.251 18.535H7.228l.176.591-.949 2.887h.642l.239-.745h1.25l.256.745h.665L8.25 18.535zm-.745 2.205.41-1.279a.39.39 0 0 0 .022-.085.404.404 0 0 0 .029.091l.443 1.273h-.904zm12.617-2.25c-.932 0-1.444.636-1.444 1.784 0 1.154.512 1.784 1.444 1.784.932 0 1.443-.636 1.443-1.784 0-1.148-.511-1.784-1.443-1.784zm0 3.063c-.33 0-.773-.131-.773-1.273 0-1.143.443-1.273.773-1.273s.772.13.772 1.273c0 1.142-.437 1.273-.772 1.273zM4.17 18.54v3.478h1.995l.16-.483H4.817V18.54H4.17zm7.724 2.324a1.614 1.614 0 0 0-.108-.165l-1.552-2.165H9.61l.176.597v2.887h.569v-2.325c.028.052.056.103.096.154l1.552 2.165h.46v-3.484h-.568v2.336zm16.423.006a1.614 1.614 0 0 0-.108-.165l-1.551-2.165h-.449v3.483h.568V19.7c.029.051.057.102.097.154l1.551 2.165h.46v-3.484h-.75l.177.597.005 1.739zm-14.116-.892c-.358-.125-.67-.24-.67-.557 0-.375.403-.432.641-.432.216 0 .45.04.671.119l.16-.477-.035-.012a2.955 2.955 0 0 0-.83-.125c-.755 0-1.227.381-1.227 1 0 .7.528.881.994 1.046.37.13.688.244.688.58 0 .29-.244.46-.665.46-.267 0-.58-.08-.835-.204l-.165.494.028.011c.296.125.648.2.99.2.425 0 .766-.109.982-.313a.942.942 0 0 0 .279-.7c.005-.738-.534-.926-1.006-1.09zM8.893 14.05H7.87l.176.597-.949 2.893h.642l.24-.745h1.25l.255.745h.665l-1.256-3.49zm-.75 2.21.41-1.278c.01-.023.016-.057.022-.09.005.033.017.062.028.09l.443 1.279h-.903zm15.219-2.21h-1.023l.176.597-.949 2.893h.642l.239-.745h1.25l.256.745h.665l-1.256-3.49zm-.745 2.21.41-1.278a.349.349 0 0 0 .022-.09.413.413 0 0 0 .029.09l.443 1.279h-.904zm3.348 1.28 1.034-3.49h-.642l-.66 2.45-.034.119-.034-.12-.83-2.449h-.676l1.188 3.49h.654zM14.843 15.8l.136.46h.353v.626a.963.963 0 0 1-.591.188c-.574 0-.853-.432-.853-1.319 0-.801.284-1.245.796-1.245.335 0 .523.165.62.54l.01.04.654-.114-.005-.045c-.114-.591-.574-.932-1.262-.932-.938 0-1.478.653-1.478 1.79 0 1.16.506 1.796 1.427 1.796.335 0 .614-.08.835-.244l.114.193h.38v-1.733h-1.136zm-1.938 1.25c-.108 0-.199-.039-.273-.164l.052.09-.057-.096-.012-.023-.272-.488-.114-.205c.46-.153.705-.511.705-1.051 0-.358-.131-.642-.381-.819-.227-.164-.54-.238-1.012-.238h-1.284l.176.602v2.887h.648v-1.284h.489l.13.227.091.16.268.454c.193.324.357.483.647.483a.932.932 0 0 0 .336-.074v-.483c-.051.011-.097.023-.137.023zm-1.324-1.25h-.506v-1.26h.415c.318 0 .517.045.631.153.102.097.153.256.153.455 0 .443-.221.654-.693.654zm7.308 1.25c-.108 0-.198-.039-.272-.164l.05.09-.056-.096-.011-.023-.273-.488-.114-.205c.46-.153.705-.511.705-1.051 0-.358-.13-.642-.381-.819-.227-.164-.54-.238-1.011-.238H16.24l.176.602v2.887h.648v-1.284h.489l.13.227.091.16.268.454c.193.324.358.483.648.483a.932.932 0 0 0 .335-.074v-.483a.57.57 0 0 1-.137.023zm-1.318-1.25h-.506v-1.26h.415c.318 0 .517.045.63.153.103.097.154.256.154.455-.005.443-.221.654-.693.654zM6.142 14.05v1.49H4.824v-1.49H4l.176.602v2.888h.648v-1.472h1.318v1.472h.648v-3.49h-.648zm24.852 1.45c-.358-.126-.67-.24-.67-.558 0-.375.403-.431.642-.431.216 0 .449.04.67.119l.16-.478-.035-.01a2.951 2.951 0 0 0-.83-.126c-.755 0-1.227.38-1.227 1 0 .7.529.887.995 1.052.369.13.687.244.687.58 0 .295-.244.46-.665.46-.267 0-.58-.08-.835-.205l-.165.494.029.012c.295.125.647.199.988.199.427 0 .768-.108.983-.313A.945.945 0 0 0 32 16.59c0-.738-.534-.926-1.006-1.09zm-3.71-1.455v3.495h2.028l.16-.49h-1.547v-1.045h1.182l.142-.477h-1.324v-1h1.466l.143-.483h-2.25zm-7.815 0v3.495h1.813l.159-.49h-1.33v-1.045h1.182l.137-.477h-1.32v-1h1.466l.142-.483h-2.25z" fill="#071D49"/></svg>