<svg width="36" height="36" fill="none" xmlns="http://www.w3.org/2000/svg"><path d="M18 0c2.837 0 5.52.656 7.907 1.825C31.884 4.753 36 10.895 36 18c0 9.942-8.058 18-18 18-9.94 0-18-8.057-18-18C0 8.06 8.06 0 18 0z" fill="#F2F4F7"/><g fill-rule="evenodd" clip-rule="evenodd"><path d="M5.696 16h1.876l-1.169 1.95h.307L7.882 16h1.887L8.6 17.95h1.31l-.53.866H8.073l1.018 1.4H7.206l-1.017-1.4h-.322l1.017 1.4H5.02L4 18.816 5.696 16z" fill="#111465"/><path d="M12.162 19.559h.58v-1.136h1.065v1.136h.58v-2.634h-.58v1.011h-1.066v-1.01h-.579v2.633zm3.63-.739c0 .115-.015.44-.424.44-.17 0-.321-.048-.321-.244 0-.191.147-.247.31-.28.162-.03.347-.033.435-.11v.195zm-.686-.582c.018-.206.148-.288.347-.288.184 0 .339.034.339.259 0 .214-.299.203-.62.25-.324.045-.649.148-.649.58 0 .39.288.571.65.571.232 0 .475-.063.641-.236a.771.771 0 0 0 .037.184h.531c-.048-.077-.066-.25-.066-.424v-.992c0-.457-.458-.542-.837-.542-.428 0-.867.148-.897.638h.524zm1.38 1.992h.524v-.907h.007a.677.677 0 0 0 .572.287c.557 0 .837-.476.837-.985 0-.542-.27-1.025-.867-1.025-.236 0-.442.092-.568.295h-.007v-.243h-.498v2.578zm.962-1.015c-.339 0-.457-.295-.457-.604 0-.31.11-.616.454-.616.335 0 .457.313.457.616 0 .31-.11.604-.454.604zm2.317-.395c0 .115-.015.44-.424.44-.17 0-.321-.048-.321-.244 0-.191.148-.247.31-.28.162-.03.347-.033.435-.11v.195zm-.686-.582c.018-.206.148-.288.347-.288.184 0 .339.034.339.259 0 .214-.299.203-.62.25-.324.045-.649.148-.649.58 0 .39.288.571.65.571.232 0 .475-.063.641-.236a.776.776 0 0 0 .037.184h.531c-.048-.077-.066-.25-.066-.424v-.992c0-.457-.458-.542-.838-.542-.427 0-.866.148-.896.638h.524zm3.287-.586h-.498v.254h-.008c-.125-.221-.317-.306-.568-.306-.534 0-.818.45-.818.944 0 .524.243.96.815.96.228 0 .457-.097.571-.296h.008v.25c.003.274-.13.473-.42.473-.185 0-.344-.066-.392-.262h-.52c.026.435.465.612.841.612.878 0 .989-.53.989-.844v-1.785zm-.945 1.456c-.32 0-.424-.298-.424-.571 0-.284.13-.542.424-.542.34 0 .447.276.447.586 0 .273-.148.527-.447.527zm1.089-.331h1.11v-.45h-1.11v.45zm1.25.782h1.863v-.487h-1.284v-2.147h-.579v2.634zm1.985 0h.523v-2.634h-.523v2.634zm.641-.952c0 .605.388 1.003.985 1.003.601 0 .989-.398.989-1.003 0-.609-.388-1.007-.989-1.007-.597 0-.985.398-.985 1.007zm.524 0c0-.306.107-.612.461-.612.358 0 .465.306.465.612 0 .302-.107.608-.465.608-.354 0-.46-.306-.46-.608z" fill="#000"/><path d="M30.2 17.652h-.542l-.417 1.305h-.007l-.432-1.305h-.56l.671 1.789c.06.15 0 .339-.18.357-.104.004-.207-.01-.307-.018v.431c.107.012.214.019.321.019.362 0 .542-.125.657-.432l.796-2.146zm1.302 1.907H32v-2.634h-.524v.96h-.007.004a.667.667 0 0 0-.568-.285c-.561 0-.845.476-.845.989 0 .527.28 1.021.856 1.021.243 0 .457-.088.579-.295h.007v.244zm-.007-.96c0 .314-.104.617-.45.617-.325 0-.461-.314-.461-.613 0-.313.118-.608.46-.608.34 0 .45.295.45.605z" fill="#000"/></g></svg>