<svg height="36" viewBox="0 0 36 36" width="36" xmlns="http://www.w3.org/2000/svg"><g fill="none" fill-rule="evenodd"><path d="M18 0c2.837 0 5.52.656 7.907 1.825C31.884 4.753 36 10.895 36 18c0 9.942-8.058 18-18 18-9.94 0-18-8.057-18-18C0 8.06 8.06 0 18 0z" fill="#f2f4f7" fill-rule="nonzero"/><g fill="#000"><path d="M4 13v10.377h28V13zm.492.457h27.051v9.463H4.492z"/><path d="M12.724 17.13c0 .12.003.123.176.151l.179.028v1.685c-.003.929-.01 1.692-.017 1.702a.91.91 0 0 1-.18.036c-.161.017-.161.017-.151.144l.01.127h1.724l.01-.127.01-.127-.175-.024-.18-.025v-3.69h-1.406zm14.908-.124a2.56 2.56 0 0 0-.721.395 1.367 1.367 0 0 1-.205.137c-.01 0-.017-.12-.017-.264v-.264h-1.407v.271l.176.025.176.024v3.366l-.078.022a.885.885 0 0 1-.176.02c-.091 0-.098.011-.098.142v.141l.89-.008.886-.01v-.123c0-.12-.003-.124-.183-.151l-.186-.033v-2.873l.309-.151c.27-.134.334-.152.556-.152.21 0 .27.014.39.095.293.194.32.366.328 1.882v1.199l-.183.033c-.183.027-.187.031-.187.151v.123l.866.01c.942.011.939.011.89-.186-.018-.067-.053-.089-.194-.106l-.172-.025v-1.361c0-.886-.014-1.435-.04-1.565-.08-.394-.351-.707-.688-.791-.23-.06-.704-.046-.932.027zm-4.647.233a.683.683 0 0 1 .323.211c.292.317.405.763.405 1.565 0 1.263-.317 1.815-1.024 1.802-.608-.015-.928-.63-.932-1.785-.003-.794.116-1.273.387-1.568.247-.264.489-.331.84-.225zm-.676-.313c-.355.077-.626.179-.844.33-.538.374-.82.929-.855 1.688-.045 1.158.394 1.855 1.33 2.101.324.084 1.129.084 1.439-.004.675-.186 1.15-.615 1.368-1.23.07-.198.092-.338.106-.68.028-.752-.141-1.255-.552-1.664-.412-.408-.845-.566-1.531-.559a6.64 6.64 0 0 0-.461.018zm-3.412-.989a9.247 9.247 0 0 1-.446.141l-.31.092v.836l-.376.011-.38.011v.316l.359.018.358.018.015 1.494c.014 1.559.02 1.64.175 1.868.236.352 1.006.409 1.9.138.236-.074.236-.074.236-.204v-.131l-.43.011c-.506.011-.633-.031-.75-.26-.066-.131-.07-.208-.07-1.527V17.38l.469-.011.464-.01v-.345l-.464-.011-.468-.01-.011-.556c-.01-.619.004-.591-.271-.5zm-3.64-.425c0 .116.003.119.175.14l.176.025v5.026l-.077.018c-.046.008-.12.021-.17.025-.073.01-.087.031-.097.141l-.011.13.883.004h.883l-.01-.131c-.011-.113-.025-.134-.1-.144a1.855 1.855 0 0 1-.164-.025l-.081-.018v-5.311h-1.407zm-1.935-.043c-.264.183-.348.461-.215.722.257.506 1.059.334 1.059-.226 0-.341-.225-.573-.548-.573a.492.492 0 0 0-.296.077zm-6.894.064c0 .123.01.14.084.14.045 0 .133.011.193.021l.109.022v4.942l-.11.025c-.06.01-.147.02-.192.02-.078 0-.084.015-.084.159v.159h1.864v-.307l-.176-.024-.176-.025-.004-1.027c0-.567-.006-1.07-.01-1.126l-.007-.095h2.483v2.248l-.214.025-.211.024.01.145.01.144h1.865l.01-.151c.01-.138.004-.149-.073-.149-.05 0-.137-.01-.197-.02l-.11-.025v-4.942l.11-.022c.06-.01.148-.021.193-.021.074 0 .085-.017.085-.14v-.141h-1.9v.271l.21.025.212.024v2.107h-.077c-1.822.004-2.367 0-2.374-.014-.007-.01-.011-.489-.011-1.059v-1.034l.176-.024.176-.025v-.271H6.428z"/></g></g></svg>