<svg height="36" viewBox="0 0 36 36" width="36" xmlns="http://www.w3.org/2000/svg"><mask id="a" fill="#fff"><path d="M0 0h28v3.404H0z" fill-rule="evenodd"/></mask><g fill="none" fill-rule="evenodd"><path d="M18 0c2.837 0 5.52.656 7.907 1.825C31.884 4.753 36 10.895 36 18c0 9.942-8.058 18-18 18-9.94 0-18-8.057-18-18C0 8.06 8.06 0 18 0z" fill="#f2f4f7" fill-rule="nonzero"/><path d="m24.053 1.754 1.223.006-.619-.978zm-.017 1.537h-2.027v-.433l.43-.057c.152-.02.212-.14.229-.167.017-.026.989-1.601 1.074-1.742.084-.141-.005-.249-.116-.269-.077-.014-.561-.063-.561-.063V.122h2.474c.156.004.251.178.251.178l1.422 2.175c.114.175.202.303.343.325.141.02.443.056.443.056L28 3.29h-2.74l.002-.43.346-.044c.165-.022.304-.094.167-.294-.137-.202-.134-.2-.134-.2l-1.942.004-.155.238c-.094.145.006.237.145.254l.348.043v.43zM9.603 1.7c0-.821-.41-1.092-1.13-1.092-.719 0-1.13.271-1.13 1.092 0 .833.411 1.098 1.13 1.098s1.13-.265 1.13-1.098zm11.199.002c0-.797-.323-.974-1.095-.974h-.811v1.939h.811c.772 0 1.095-.16 1.095-.965zM.001 3.29 0 2.867l.42-.051c.16-.019.215-.122.215-.303V.905c0-.162-.04-.275-.211-.3C.365.596.001.555.001.555V.121h2.535l-.003.432s-.377.042-.427.05c-.13.018-.203.101-.204.283v.502h1.954V.897C3.857.74 3.81.622 3.663.602a45.425 45.425 0 0 0-.442-.053l.001-.428h2.536l-.002.432s-.303.035-.437.052-.196.12-.195.289v1.65c0 .182.102.25.185.261.084.011.45.052.45.052l-.001.432H3.222l.003-.433s.386-.044.435-.053c.173-.035.197-.153.196-.297v-.484H1.902v.507c.002.214.102.275.199.288.123.016.435.05.435.05v.422H.001zm11.2 0v-.432s.379-.042.439-.053c.143-.025.195-.12.194-.27V.882c0-.161-.071-.251-.224-.268L11.2.567V.122L13.438.12c.12.001.202.058.265.139l1.671 2.208V.9c0-.149-.052-.261-.204-.279L14.74.57V.122h2.028v.445s-.355.038-.429.049c-.175.028-.203.145-.204.271V3.29h-1.591a.348.348 0 0 1-.267-.121L12.595.945v1.613c.001.145.072.235.201.25l.433.05v.432zm8.991-.011-3.174-.003.001-.416s.322-.038.453-.055c.13-.017.182-.128.181-.251l.002-1.689c0-.144-.066-.228-.207-.248-.142-.02-.434-.05-.434-.05V.122h3.178c1.442 0 2.066.702 2.066 1.538 0 .928-.624 1.619-2.066 1.619zm-11.715.125c-1.79 0-2.591-.69-2.591-1.714C5.886.698 6.687 0 8.477 0c1.782 0 2.582.694 2.582 1.69 0 1.024-.797 1.714-2.582 1.714z" fill="#cc2229" mask="url(#a)" transform="translate(4 16)"/></g></svg>