<svg height="36" viewBox="0 0 36 36" width="36" xmlns="http://www.w3.org/2000/svg"><mask id="a" fill="#fff"><path d="M0 21.906h28.021V0H0z" fill-rule="evenodd"/></mask><g fill="none" fill-rule="evenodd"><path d="M18 0c2.837 0 5.52.656 7.907 1.825C31.884 4.753 36 10.895 36 18c0 9.942-8.058 18-18 18-9.94 0-18-8.057-18-18C0 8.06 8.06 0 18 0z" fill="#f2f4f7" fill-rule="nonzero"/><path d="M18.285 7.16c2.483 1.791 6.112 2.88 8.921 2.944l.294.023v3.718h4.511v8.095h-2.772l-.272.277-.678.603c-3.046 2.704-7.282 5.952-10.167 6.075h-.024c-2.213-.072-5.945-2.277-10.237-6.036l-.65-.569-.333-.347H4.011v-8.092h4.606v-3.727l.299-.014c3.648-.17 6.421-1.08 8.988-2.957l.182-.14z" fill="#fff"/><path d="M18.285 7.16c2.483 1.791 6.112 2.88 8.921 2.944l.294.023v3.718h4.511v8.095h-2.772l-.272.277-.678.603c-3.046 2.704-7.282 5.952-10.167 6.075h-.024c-2.213-.072-5.945-2.277-10.237-6.036l-.65-.569-.333-.347H4.011v-8.092h4.606v-3.727l.299-.014c3.648-.17 6.421-1.08 8.988-2.957l.182-.14z" stroke="#000" stroke-width=".021"/><path d="M18.086 7.411c2.492 1.932 5.88 2.761 9.091 3.013v2.63c-.68-.038-1.235.676-1.235 1.11h5.746v7.46h-5.325c.126.691 1.047.996 1.71.96-3.539 3.145-7.447 5.888-9.97 5.997-2.302-.075-6.19-2.584-10.04-5.958 1.595.026 1.738-.997 1.738-.997H4.324V14.17h5.73c-.03-.543-.53-1.053-1.127-1.112V10.43c3.416-.162 6.365-.98 9.16-3.018" fill="#000"/><path d="M26.517 10.995v1.65c-.627.131-1.263.982-1.263 1.525h-.518c.05-1.03.627-1.53 1.263-1.873v-.818c-2.741-.067-5.936-1.246-7.921-2.584-1.806 1.215-5.177 2.514-7.947 2.584v.821a2.213 2.213 0 0 1 1.193 1.87h-.543c-.118-.818-.585-1.252-1.157-1.57v-1.57c3.13-.176 6.653-1.389 8.459-2.786 1.73 1.414 5.357 2.518 8.434 2.75" fill="#f60"/><path d="M19.307 10.303 19.3 11l-.882-.434v3.604h-.691v-3.604l-.863.43.006-.687s.997-.502 1.215-.66c.23.164 1.22.654 1.22.654m-5.676 3.867c0-.347.017-.926-.067-1.021-.171.31-.32.694-.462.982-.146-.292-.297-.636-.482-.874l-.02.914h-.627v-2.296c.342-.06.443-.09.622-.118l.493 1.067.518-1.271a6.13 6.13 0 0 1 .647-.15v2.765zm2.572-2.595c0-.373-.79.08-.84.134-.16.163-.12 1.207-.115 1.647 0 .098.051.213.174.213.2 0 .49.005.655 0a.12.12 0 0 0 .13-.107c0-.011 0-.025-.003-.036zm.602-.283v2.338c-.005.543-.19.529-1.114.535-.759.006-1.008.016-1.017-.745v-1.596c.014-.605.171-.574.86-.918 1.072-.521 1.24-.345 1.271.386zm3.691.224c-.291-.086-.487-.137-.487.182v1.45c0 .468.241.42.504.42.182 0 .448.043.445-.238v-1.42c.003-.338-.277-.341-.462-.394m1.073.124v1.926c0 .602-.213.602-1.053.602-.792 0-1.143 0-1.143-.602v-2.394c0-.871.706-.5 1.241-.286.507.202.955.286.955.754m1.108.56v.634c.392.02.49.023.762.04.218 0 .168-.429.106-.507-.045-.067-.537-.132-.868-.168m1.367-.244c.302.333.232 1.2-.03 1.288.276.207.214.93.214.93h-.593c0-.72-.14-.734-.487-.73-.252-.007-.182 0-.476 0v.73h-.599v-2.73c.828.176 1.808.333 1.971.512" fill="#f60"/><path d="M1.024 13.899h26V7.867h-26zm6.121.725a1.777 1.777 0 0 1-.672 1.403c2.54 2.274 5.964 4.208 7.65 4.32 1.71-.112 5.043-2.175 7.59-4.336-.512-.454-.657-.838-.66-1.387h.504c.045.658.742 1.19 1.033 1.313-3.738 3.088-6.104 4.598-8.501 4.915-2.492-.348-4.905-1.84-8.526-4.886.504-.225 1.014-.748 1.01-1.345z" fill="#f60" mask="url(#a)" transform="translate(4 7)"/><path d="M23.774 15.234h.04v-.098h.033c.016 0 .033.003.047.009a.063.063 0 0 1 .023.056v.033h.042v-.059a.071.071 0 0 0-.014-.039.07.07 0 0 0-.045-.025.17.17 0 0 0 .036-.011.06.06 0 0 0 .025-.051c.003-.028-.014-.052-.039-.064a.14.14 0 0 0-.067-.008h-.089v.252zm.126-.137c-.014.006-.028.006-.042.006h-.045v-.09h.04c.02 0 .036.003.052.008.02.015.026.042.01.065-.004.005-.01.008-.015.011zm.126-.148c-.09-.09-.235-.09-.322 0s-.09.235 0 .322a.228.228 0 0 0 .39-.163.205.205 0 0 0-.068-.159zm-.023.019a.196.196 0 0 1 0 .281.196.196 0 0 1-.335-.141.196.196 0 0 1 .335-.14zM1.596 13.422h24.922V8.377H1.596z" fill="#000" mask="url(#a)" transform="translate(4 7)"/><path d="M22.167 9.57v.745h-.568c0-.468 0-.773-.224-.76-.193 0-.16.225-.163.393 0 .498.258.59.518.784.348.26.468.429.47 1.165 0 .543-.181.96-.772.96-.695 0-.79-.313-.79-1.498h.574v.577c0 .1-.02.339.216.339.143 0 .196-.118.196-.454 0-.384-.112-.504-.241-.6-.255-.192-.74-.382-.74-.973 0-.535-.083-1.345.79-1.336.519.006.737.29.734.658m-19.239.89h.415V9.01h.568v3.811H3.34v-1.588h-.406v1.588h-.577v-3.81h.568c.003 0 .003 1.45.003 1.45m5.398 1.724h.568v.636H7.716v-3.81h.607zm1.877-2.573h-.577v.888h.572v.666h-.573v1.013h.57v.642H9.02V9.01h1.18zm.66-.602c.076.403.143.8.263 1.246.13-.448.163-.818.29-1.243h.562c-.157.804-.365 1.498-.572 2.243v1.53h-.574v-1.541c-.19-.751-.408-1.482-.562-2.232zm6.068-.03c.07.738.146 1.517.224 2.256 0 0 .182-1.59.272-2.257h.565l-.529 3.811h-.608l-.504-3.81h.577zm1.17 0h.574l.003 3.81h-.577zm6.765 0c.126.582.241 1.178.37 1.746l-.023-1.747h.574v3.777h-.672a131.92 131.92 0 0 0-.392-2.09l.017 2.09h-.605V8.98zm-1.938.733v2.269c0 .327.4.417.4.055V9.715c.006-.256-.397-.265-.4-.002m.985-.011v2.445c0 .4-.386.744-.783.739-.33-.006-.743-.183-.743-.748v-2.45c0-.734.468-.801.793-.804.3-.003.733.115.733.818m-10.154-.116v2.593h.204a.16.16 0 0 0 .14-.179v-.003c0-.468-.005-2.086-.005-2.232 0-.257-.34-.179-.34-.179zm.417-.577c.297 0 .5.21.504.656 0 .81 0 1.79.006 2.479a.662.662 0 0 1-.644.676h-.857V9.01zm5.547.575h-.187v2.595c.334 0 .373-.013.376-.18V9.793a.215.215 0 0 0-.19-.21zm.109-.605c.288 0 .619.168.619.672v2.517c0 .41-.247.622-.733.622h-.79V8.98zm-13.314.636v1.01h.224c.059 0 .126-.044.123-.196.006-.173 0-.436 0-.602.003-.21-.123-.21-.347-.212zm.358-.605c.555 0 .619.652.619 1.053 0 .182.014.524-.286.823.188.168.286.302.289.717v1.224h-.376c-.066 0-.232-.057-.23-.17V11.62c0-.235-.14-.261-.27-.261H6.52v1.462h-.615l.008-3.811zm8.741.784-.126 1.361h.259a11.824 11.824 0 0 0-.132-1.36zm.896 2.993h-.538c-.063-.308-.088-.608-.144-.92h-.406l-.113.92h-.542c.112-1.26.327-2.554.453-3.81h.817zM4.874 9.783l-.067 1.375h.221c-.042-.482-.073-.88-.154-1.375zm.462-.773c.148 1.232.28 2.469.417 3.81h-.529c-.045-.338-.09-.693-.118-.912h-.392l-.106.913h-.544c.132-1.255.27-2.51.39-3.811zm6.544 2.155h1.047v-.473H11.88z" mask="url(#a)" transform="translate(4 7)" fill="#fff"/><path d="M10.785 15.674h.047l.465-1.047h.762l-.966 1.881v2.017l-.7-.406v-1.602l-.754-1.89h.765zm-2.735.954 1.643 1.084v-.775l-.022-.102-.983-.57-.048-.04a.128.128 0 0 1-.08-.107v-.763a.127.127 0 0 1 .125-.122h.736v-.607H8.365a.51.51 0 0 0-.52.498v1.107c0 .16.076.305.204.397m5.891 2.402-.668-.248-.252-.09a.226.226 0 0 1-.15-.207v-3.026a.227.227 0 0 1 .234-.222h.837v-.607H12.67a.509.509 0 0 0-.521.498v3.579c0 .159.078.307.21.4.109.089.4.24 1.573.62v-.69h.009zm1.062-4.403h-.717v5.062a6.577 6.577 0 0 0 1.677-.478v-.661l-.957.303zm2.825.607v-.607h-1.179a.51.51 0 0 0-.521.498v3.256c.014.689.63.39.667.365l1.044-.645v-.73l-.759.426c-.294.167-.238-.213-.238-.213v-.891h.754v-.585h-.754v-.561l-.002-.097a.222.222 0 0 1 .226-.219h.759v.003zm1.185 0a.11.11 0 0 0-.112.106v.146a.11.11 0 0 0 .112.106h.77a.39.39 0 0 1 .403.371v.534c-.048.311-1.988 1.381-1.988 1.381l-.006-.726.818-.462c.832-.47.202-.453.202-.453h-.636a.366.366 0 0 1-.381-.356v-.899c0-.195.188-.358.42-.358h1.52v.607z" fill="#f60" mask="url(#a)" transform="translate(4 7)"/></g></svg>