<svg height="36" viewBox="0 0 36 36" width="36" xmlns="http://www.w3.org/2000/svg"><mask id="a" fill="#fff"><path d="M0 0h20.978v5.321H0z" fill-rule="evenodd"/></mask><mask id="b" fill="#fff"><path d="M0 0h5.466v5.495H0z" fill-rule="evenodd"/></mask><g fill="none" fill-rule="evenodd"><path d="M18 0c2.837 0 5.52.656 7.907 1.825C31.884 4.753 36 10.895 36 18c0 9.942-8.058 18-18 18-9.94 0-18-8.057-18-18C0 8.06 8.06 0 18 0z" fill="#f2f4f7" fill-rule="nonzero"/><path d="M11.167 15.082c-.553-.567-1.236-.843-2.064-.843-.8 0-1.483.29-2.05.872-.568.553-.844 1.236-.844 2.035 0 .814.277 1.498.844 2.05.567.582 1.25.872 2.05.872v.93c-1.062 0-1.963-.377-2.719-1.133-.756-.77-1.134-1.672-1.134-2.72 0-1.06.378-1.961 1.134-2.732.756-.756 1.657-1.134 2.72-1.134 1.06 0 1.961.378 2.717 1.134.77.77 1.15 1.672 1.15 2.733h-.96c0-.8-.277-1.497-.844-2.064" fill="#cc2229"/><path d="M18.826 3.533v1.701h-.916V2.995c0-.421-.145-.625-.421-.625-.218 0-.407.101-.567.32a1.51 1.51 0 0 0-.247.843v1.701h-.916v-3.49h.858l-.029.597c.217-.48.61-.727 1.162-.727.538 0 .873.247.989.727.247-.48.625-.727 1.163-.727.713 0 1.076.393 1.076 1.177v2.443h-.916V2.995c0-.422-.146-.626-.422-.626-.203 0-.377.102-.538.32-.189.219-.276.51-.276.844zm-4.957 1.7h.901V1.744h-.901zm.451-3.997c-.378 0-.567-.189-.567-.567 0-.393.189-.582.567-.582s.567.189.567.582c0 .378-.189.567-.567.567zm-3.766 2.355c0-1.323.611-1.977 1.847-1.977l.726.087a7.179 7.179 0 0 1-.087.814l-.639-.116c-.596 0-.887.363-.887 1.105 0 .683.29 1.017.857 1.017.247-.043.48-.087.698-.159l.058.784c-.32.117-.639.175-.959.175-1.076 0-1.614-.581-1.614-1.73zM8.911 5.234h.901V0h-.901zm-.755-1.847c0-1.177-.553-1.773-1.672-1.773-.538 0-.974.174-1.309.538-.334.363-.509.814-.509 1.381 0 1.192.553 1.788 1.672 1.788.538 0 .974-.175 1.308-.538.335-.363.51-.829.51-1.396zm-.96.059c0 .741-.262 1.105-.77 1.105-.538 0-.815-.364-.815-1.105 0-.713.277-1.076.815-1.076.508 0 .77.363.77 1.076zM2.994 2.341V.392h.916v4.842h-.916V3.14H.959v2.094H0V.392h.959v1.949z" fill="#929496" mask="url(#a)" transform="translate(11.022 18.629)"/><path d="M5.466 2.748 2.718-.002 1.817.93l2.748 2.748zm-1.817 1.86L.93 1.848l-.93.9 2.747 2.749z" fill="#000" mask="url(#b)" transform="translate(4 12)"/></g></svg>