<svg height="36" viewBox="0 0 36 36" width="36" xmlns="http://www.w3.org/2000/svg"><mask id="a" fill="#fff"><path d="M0 5.27h28.05V0H0z" fill-rule="evenodd"/></mask><g fill="none" fill-rule="evenodd"><path d="M18 0c2.837 0 5.52.656 7.907 1.825C31.884 4.753 36 10.895 36 18c0 9.942-8.058 18-18 18-9.94 0-18-8.057-18-18C0 8.06 8.06 0 18 0z" fill="#f2f4f7" fill-rule="nonzero"/><path d="M6.27 15.026v1.705h-.982v-1.694H4.025v4.069h1.252v-1.857h.993v1.878h1.252v-4.101z" fill="#e30f1a"/><path d="M4.025 15.036h1.263v1.694h.982v-1.705h1.252v4.101H6.27v-1.878h-.993v1.857H4.025z" stroke="#e30f1a" stroke-width=".05"/><path d="M9.516 16.038s.407-.023.734.105c.328.129.573.274.8.666s.256.96.095 1.422a1.432 1.432 0 0 1-.702.805c-.216.117-.555.178-.888.178s-.76-.073-1.046-.301c-.286-.23-.48-.48-.567-.817-.088-.34-.141-.946.22-1.425.36-.48.816-.567 1.026-.604.187-.033.31-.03.328-.03m.419.686c.036.09.072.264.074.494.005.404.005.88-.004.979-.016.19-.083.467-.245.603-.162.135-.36.079-.482-.106-.123-.184-.166-.36-.157-.882s-.02-.885.08-1.1c.098-.214.2-.302.293-.32.198-.04.347.093.44.332" fill="#e30f1a"/><path d="M9.516 16.038s.407-.023.734.105c.328.129.573.274.8.666s.256.96.095 1.422a1.432 1.432 0 0 1-.702.805c-.216.117-.555.178-.888.178s-.76-.073-1.046-.301c-.286-.23-.48-.48-.567-.817-.088-.34-.141-.946.22-1.425.36-.48.816-.567 1.026-.604.187-.033.31-.03.328-.03zm.419.685c.036.09.072.264.074.494.005.404.005.88-.004.979-.016.19-.083.467-.245.603-.162.135-.36.079-.482-.106-.123-.184-.166-.36-.157-.882s-.02-.885.08-1.1c.098-.214.2-.302.293-.32.198-.04.347.093.44.332z" stroke="#e30f1a" stroke-width=".05"/><path d="M12.759 16.97v2.139l-1.171-.001v-2.971h1.177v.4s.156-.234.393-.347c.238-.114.65-.22 1.07-.042a.8.8 0 0 1 .497.698l.002 2.262H13.57V17.04c0-.072 0-.2-.095-.313-.066-.08-.256-.128-.416-.042s-.324.263-.301.286" fill="#e30f1a"/><path d="M12.759 16.97v2.139l-1.171-.001v-2.971h1.177v.4s.156-.234.393-.347c.238-.114.65-.22 1.07-.042a.8.8 0 0 1 .497.698l.002 2.262H13.57V17.04c0-.072 0-.2-.095-.313-.066-.08-.256-.128-.416-.042s-.324.263-.301.286z" stroke="#e30f1a" stroke-width=".05"/><path d="M16.306 17.408s-.007-.388.026-.574.137-.338.228-.404c.111-.08.334-.092.456.033.123.124.148.228.165.282.016.054.049.228.047.395a3.192 3.192 0 0 0 0 .268zm-1.043-.565c.232-.469.828-.844 1.56-.807.732.038 1.153.305 1.411.796.221.421.189.972.186.972l-2.112-.006v.605s.021.122.069.186.239.311.812.22c.635-.1.617-.552.63-.552l.502-.002s-.006.3-.214.498a1.78 1.78 0 0 1-.992.447c-.414.041-1 .053-1.472-.34a1.552 1.552 0 0 1-.483-.709c-.1-.285-.13-.839.103-1.308z" fill="#e30f1a"/><path d="M16.306 17.408s-.007-.388.026-.574.137-.338.228-.404c.111-.08.334-.092.456.033.123.124.148.228.165.282.016.054.049.228.047.395a3.192 3.192 0 0 0 0 .268zm-1.043-.565c.232-.469.828-.844 1.56-.807.732.038 1.153.305 1.411.796.221.421.189.972.186.972l-2.112-.006v.605s.021.122.069.186.239.311.812.22c.635-.1.617-.552.63-.552l.502-.002s-.006.3-.214.498a1.78 1.78 0 0 1-.992.447c-.414.041-1 .053-1.472-.34a1.552 1.552 0 0 1-.483-.709c-.1-.285-.13-.839.103-1.308z" stroke="#e30f1a" stroke-width=".05"/><path d="M26.963 17.408s-.007-.388.026-.574.136-.338.228-.404c.11-.08.334-.092.456.033.123.124.148.228.165.282.016.054.049.228.047.395a3.192 3.192 0 0 0 0 .268zm-1.043-.565c.232-.469.828-.844 1.56-.807.732.038 1.153.305 1.41.796.222.421.188.972.184.972l-2.11-.006v.605s.022.122.07.186.239.311.812.22c.635-.1.617-.555.63-.555l.503.001s-.007.3-.215.498a1.783 1.783 0 0 1-.992.447c-.414.041-1 .053-1.472-.34a1.552 1.552 0 0 1-.483-.709c-.1-.285-.13-.839.103-1.308z" fill="#e30f1a"/><path d="M26.963 17.408s-.007-.388.026-.574.136-.338.228-.404c.11-.08.334-.092.456.033.123.124.148.228.165.282.016.054.049.228.047.395a3.192 3.192 0 0 0 0 .268zm-1.043-.565c.232-.469.828-.844 1.56-.807.732.038 1.153.305 1.41.796.222.421.188.972.184.972l-2.11-.006v.605s.022.122.07.186.239.311.812.22c.635-.1.617-.555.63-.555l.503.001s-.007.3-.215.498a1.783 1.783 0 0 1-.992.447c-.414.041-1 .053-1.472-.34a1.552 1.552 0 0 1-.483-.709c-.1-.285-.13-.839.103-1.308z" stroke="#e30f1a" stroke-width=".05"/><path d="M18.318 16.137h1.276l.545 1.413.583-1.413 1.606.004.516 1.665.455-1.669h1.025l.504 1.644.45-1.644h.528l-.818 2.974h-.962l-.537-1.735-.475 1.735h-.987l-.88-2.87-1.235 3.027s-.177.496-.396.69c-.22.194-.46.338-.856.27-.396-.07-.553-.278-.582-.522s.095-.5.376-.553c.28-.054.463.053.529.19.066.136.078.288.04.375s-.098.141-.098.141.157.041.3-.112c.146-.153.229-.368.253-.455.025-.086.025-.115.025-.115z" fill="#e30f1a"/><path d="M18.318 16.137h1.276l.545 1.413.583-1.413 1.606.004.516 1.665.455-1.669h1.025l.504 1.644.45-1.644h.528l-.818 2.974h-.962l-.537-1.735-.475 1.735h-.987l-.88-2.87-1.235 3.027s-.177.496-.396.69c-.22.194-.46.338-.856.27-.396-.07-.553-.278-.582-.522s.095-.5.376-.553c.28-.054.463.053.529.19.066.136.078.288.04.375s-.098.141-.098.141.157.041.3-.112c.146-.153.229-.368.253-.455.025-.086.025-.115.025-.115z" stroke="#e30f1a" stroke-width=".05"/><path d="M25.425 4.113h1.125V.027h-1.125z" fill="#e30f1a" mask="url(#a)" transform="translate(4 15)"/><path d="M25.425 4.113h1.125V.027h-1.125z" mask="url(#a)" stroke="#e30f1a" stroke-width=".05" transform="translate(4 15)"/><path d="M26.901 4.118h1.125V.032h-1.125z" fill="#e30f1a" mask="url(#a)" transform="translate(4 15)"/><path d="M26.901 4.118h1.125V.032h-1.125z" mask="url(#a)" stroke="#e30f1a" stroke-width=".05" transform="translate(4 15)"/></g></svg>