<svg height="36" viewBox="0 0 36 36" width="36" xmlns="http://www.w3.org/2000/svg"><mask id="a" fill="#fff"><path d="M0 0h28v28H0z" fill-rule="evenodd"/></mask><g fill="none" fill-rule="evenodd"><path d="M18 0c2.837 0 5.52.656 7.907 1.825C31.884 4.753 36 10.895 36 18c0 9.942-8.058 18-18 18-9.94 0-18-8.057-18-18C0 8.06 8.06 0 18 0z" fill="#f2f4f7" fill-rule="nonzero"/><g fill="#0096d6"><path d="M28 14c0-7.732-6.268-14-14-14-.211 0-.421.005-.629.015l-2.864 7.871h2.494c1.484 0 2.284 1.142 1.775 2.537l-3.532 9.708-2.966-.001 3.791-10.404h-2.23L6.048 20.13H3.081L7.538 7.886h.001L10.22.517C4.324 2.166 0 7.578 0 14c0 6.612 4.585 12.154 10.75 13.62l2.598-7.14h.002l4.583-12.594h5.463c1.485 0 2.284 1.142 1.776 2.537l-3.104 8.526c-.236.65-.994 1.181-1.686 1.181h-3.937l-2.861 7.863c.138.004.277.007.416.007 7.732 0 14-6.269 14-14" mask="url(#a)" transform="translate(4 4)"/><path d="M26.471 13.718h-2.229l-3.122 8.565h2.23z"/></g></g></svg>