<svg height="36" viewBox="0 0 36 36" width="36" xmlns="http://www.w3.org/2000/svg"><mask id="a" fill="#fff"><path d="M0 0h28v10.012H0z" fill-rule="evenodd"/></mask><g fill="none" fill-rule="evenodd"><path d="M18 0c2.837 0 5.52.656 7.907 1.825C31.884 4.753 36 10.895 36 18c0 9.942-8.058 18-18 18-9.94 0-18-8.057-18-18C0 8.06 8.06 0 18 0z" fill="#f2f4f7" fill-rule="nonzero"/><path d="M5.342 0C2.475 0 .363 1.648 0 4.12v1.576c.396 2.782 2.854 4.316 5.641 4.316h16.868c3.119 0 5.491-2.223 5.491-5.099C28 2.54 26.169 0 22.714 0z" fill="#fff" mask="url(#a)" transform="translate(4 13)"/><path d="m28.17 17.072.43-1.55c.057-.15.132-.43.132-.43l-.3-.02c-.448.076-.784 0-1.064-.017l-.02.149c.02 0 .039.037.076.075.038.038-.037.224-.056.317l-.915 3.307.299.038c.205-.057.653-.057 1.045 0l.02-.131c-.094-.057-.076-.15-.076-.206zm-9.656-1.158c.056-.112-.168-.261-.355-.261-.691-.02-1.121.69-1.494 1.176l-.02.019.113-.467-.205-.038c-.43.094-.916 0-1.01 0l-.018.13c.15.057.075.17.056.282l-.598 2.148.28.038c.094-.038.449-.038.542-.038l.542.038.019-.131c-.112-.075-.075-.17-.056-.28 0 0 .318-1.252.448-1.44.299-.671 1.177-1.008 1.009-.41l.037.038c.037-.02.579-.58.71-.804zm-5.1.486c-.205.074-.41.243-.541.542-.243.466-.43 1.12-.318 1.606.056.187.224.225.355.205.355-.093.69-.672.84-1.064.075-.243.244-.822.038-1.196-.075-.093-.187-.15-.373-.093zm1.402.187c.392.579.074 1.53-.617 2.035-.411.299-.897.43-1.476.41a1.6 1.6 0 0 1-.933-.316c-.3-.225-.411-.691-.374-.896.112-.804.84-1.532 1.83-1.682.542-.074 1.252.038 1.57.449zm10.348-.168c-.392.074-.542.41-.617.634h.859c.075-.13.13-.335.075-.485-.075-.112-.168-.168-.317-.15zm1.326.074c.168.262.112.579.037.822H24.49c-.093.336-.186.803.13 1.12.319.244.767.132 1.029 0 .162-.071.313-.164.448-.28.056.057.187.207.187.207-.523.41-1.215.784-2.036.616-.411-.057-.785-.374-.897-.673-.224-.784.26-1.531.99-1.942.56-.3 1.7-.468 2.148.13zm-17.801.934-.3 1.12c-.018.057-.074.169.038.243v.15c-.411-.037-.878-.056-1.083 0l-.28-.037.99-3.512c.037-.112.056-.205.037-.3 0-.036-.037-.074-.056-.092l.019-.131c.205.018.635.075 1.027 0l.318.037s-.075.262-.112.43L8.8 17.09c.317-.243.953-.561 1.308-.598l.298-1.084c.037-.093.075-.298.056-.355-.037-.018-.056-.037-.074-.037l.018-.15c.187.019.747.076 1.084 0l.28.038s-.075.262-.131.43l-.486 1.718-.392 1.494c-.02.075-.093.169.056.243l-.037.15c-.392-.056-.86-.056-1.084 0l-.261-.037.542-1.925c-.337 0-.915.169-1.29.449z" fill="#cc2229"/><path d="M18.794 16.362a12.06 12.06 0 0 1-1.008.56v.112c.037 0 .074.056.056.15-.15.541-.486 1.718-.486 1.718l.28.037c.094-.037.523-.056 1.065 0l.019-.149-.038-.019c-.056-.055-.037-.13 0-.262l.262-.915c.074-.224.112-.728.579-1.008.074-.037.149-.037.205-.037.299.037.149.43.112.58l-.448 1.605-.037.168.26.037c.262-.074.729-.037 1.084 0l.019-.13-.02-.038c-.073-.037-.073-.094-.017-.262 0 0 .28-1.027.373-1.363.075-.242.355-.672.729-.597.112.037.187.167.13.411l-.541 1.942.28.037c.299-.074.766-.018 1.065 0l.037-.13c-.037-.019-.056-.038-.056-.056-.056-.076 0-.187.019-.299 0 0 .373-1.308.373-1.644a.83.83 0 0 0-.205-.486c-.168-.168-.392-.205-.542-.224-.597-.074-1.12.318-1.326.58 0 0-.056-.188-.112-.262a.663.663 0 0 0-.411-.28c-.654-.187-1.01.168-1.364.541l.094-.243c.056-.242-.056-.299-.43-.074" fill="#cc2229"/><path d="M18.663 16.212c.523-.504 1.027-1.027 1.233-1.53a1.3 1.3 0 0 0 .074-.674c-.074-.41-.26-.448-.373-.43-.057 0-.187.075-.206.225-.074-.13-.28-.225-.43-.075 0 0-.149.112-.074.355a.293.293 0 0 0-.373.205c-.038.168.037.318.242.355.243.056.561.374.261.99-.074.168-.354.467-.392.504-.018.038 0 .094.038.075" fill="#33a457"/><path d="M17.131 19.93c-.112.019-.205.112-.261.262-.113.223-.206.54-.15.784.019.094.112.112.168.094.169-.037.337-.318.393-.524.037-.111.131-.391.037-.58-.056-.036-.093-.073-.187-.036zm.673.094c.186.279.037.747-.299.99-.206.148-.43.205-.71.205a.86.86 0 0 1-.448-.15.552.552 0 0 1-.187-.448c.075-.392.411-.747.896-.822.243-.037.598.019.748.225zm-1.812-.038h-.673l.131-.467h.617c.093 0 .187.094.187.149h.093l.093-.373s-1.288 0-1.55-.018l-.019.074c.019 0 .019.018.037.018 0 .019-.018.113-.018.169l-.448 1.644.111.019c.094-.04.318-.02.505 0v-.076c-.056-.037-.019-.074-.019-.111l.224-.785h.355c.094 0 .187.094.187.149h.094zm3.157-.056c-.094.019-.187.112-.262.262-.112.223-.205.54-.149.784.018.094.112.112.168.094.168-.037.336-.318.392-.524.038-.111.131-.391.038-.58-.057-.036-.094-.073-.187-.036zm.672.094c.187.279.038.747-.298.99-.206.148-.43.205-.711.205a.86.86 0 0 1-.448-.15c-.15-.112-.205-.355-.168-.448.056-.392.392-.747.878-.822.243-.037.598.019.747.225zm2.298.859c.149.093.28.15.485.15.224.018.374-.038.411-.17.056-.204-.822-.242-.71-.634.038-.15.15-.262.318-.336.187-.075.355-.094.542-.094.168 0 .336.019.485.057l-.075.242a.647.647 0 0 0-.373-.131c-.074 0-.336.02-.355.15-.037.093.149.15.224.167.112.039.225.076.318.15.112.075.205.169.149.318-.112.392-.579.486-.934.486-.187 0-.373-.056-.541-.094zm-.729-.916.131-.448c.019-.037.037-.131.019-.15-.019-.018-.019-.037-.038-.037l.019-.055c.131 0 .28.037.485 0l.131.018s-.037.112-.056.187l-.224.82-.187.73c0 .019-.018.056.038.093l-.019.057a1.95 1.95 0 0 0-.486 0h-.093l.075-.318c-.094.206-.318.337-.468.337-.168 0-.279-.04-.373-.131a.742.742 0 0 1-.13-.467c.056-.411.317-.73.784-.804.131-.018.336.019.392.168zm-.131.505c.113-.374-.018-.523-.168-.485-.074.018-.168.074-.242.223-.113.225-.243.524-.15.71.056.113.205.094.28.019.056-.056.206-.168.262-.393z" fill="#cc2229"/><g fill="#33a457"><path d="M11.602 22.414h14.87c2.707 0 4.93-1.849 4.93-4.483 0-2.279-1.775-4.315-4.595-4.333h-4.875c.15.018.224.261.15.336h4.407c2.877 0 4.315 1.718 4.315 3.979 0 2.092-1.81 3.66-4.37 3.66H13.375c-.616.374-.82.524-1.774.785-.037 0-.037.056 0 .056"/><path d="M19.784 15.615c.093-.056.168-.112.262-.15.709-.355 1.008-.056 1.008-.056.243.15.168.411.168.411.224.056.374-.056.43-.149.056-.13.037-.243.037-.243.336.037.41-.243.41-.243.057-.28-.205-.374-.205-.374.337-.168.225-.467 0-.485-.205-.019-.41.074-.578.168-.281.131-1.046.672-1.57 1.083-.055.057-.037.094.038.038m1.009-2.485s-.243 0-.262.28c0 0-.224-.205-.411-.018-.056.056-.037.131-.02.205 0 0 .413.654-.092 1.401v.02c-.075.092-.075.13.038.036l.186-.149c.953-.766 1.4-.878 1.4-.878a.303.303 0 0 0 .132-.075c.038-.075-.02-.149-.075-.187 0 0-.074-.056-.205-.037 0 0 .168-.206-.02-.374 0 0-.186-.13-.373.02 0 0-.056-.244-.298-.244m-9.62 8.387c-.598.076-.71.056-1.812.056-2.148 0-4.222-1.363-4.222-3.624v-.018c0-2.69 1.943-3.997 4.203-3.997h9.228c-.057-.15.037-.28.149-.337h-9.47c-2.858 0-4.726 1.887-4.726 4.334 0 2.99 2.54 4.483 4.95 4.483a6.79 6.79 0 0 0 2.186-.355c.896-.298 1.774-.934 2.559-1.643.056-.075.018-.113-.057-.057-.934.673-2.148 1.065-2.988 1.158"/></g></g></svg>