<svg height="36" viewBox="0 0 36 36" width="36" xmlns="http://www.w3.org/2000/svg"><mask id="a" fill="#fff"><path d="M.003 0h.994v1.465H.003z" fill-rule="evenodd"/></mask><mask id="b" fill="#fff"><path d="M0 0h1.67v1.526H0z" fill-rule="evenodd"/></mask><mask id="c" fill="#fff"><path d="M0 0h3.377v2.457H0z" fill-rule="evenodd"/></mask><g fill="none" fill-rule="evenodd"><path d="M18 0c2.837 0 5.52.656 7.907 1.825C31.884 4.753 36 10.895 36 18c0 9.942-8.058 18-18 18-9.94 0-18-8.057-18-18C0 8.06 8.06 0 18 0z" fill="#f2f4f7" fill-rule="nonzero"/><g fill="#2f1218"><path d="M10.033 21.635H9.89a.042.042 0 0 0-.042.042v.577h-.764v-.577a.042.042 0 0 0-.043-.042h-.142a.042.042 0 0 0-.043.042v1.38c0 .024.019.043.043.043h.142a.043.043 0 0 0 .043-.043v-.607h.764v.607c0 .024.019.043.042.043h.143a.042.042 0 0 0 .042-.043v-1.38a.042.042 0 0 0-.042-.042m5.712 0h-.142a.042.042 0 0 0-.043.042v.577h-.764v-.577a.042.042 0 0 0-.042-.042h-.142a.042.042 0 0 0-.043.042v1.38c0 .024.019.043.043.043h.142a.043.043 0 0 0 .043-.043v-.607h.763v.607c0 .024.02.043.042.043h.143a.042.042 0 0 0 .043-.043v-1.38a.042.042 0 0 0-.043-.042m-9.269 0h-.143a.042.042 0 0 0-.042.042v.577h-.764v-.577a.042.042 0 0 0-.043-.042h-.142a.042.042 0 0 0-.043.042v1.38c0 .024.02.043.043.043h.142a.043.043 0 0 0 .043-.043v-.607h.764v.607c0 .024.02.043.042.043h.143a.042.042 0 0 0 .042-.043v-1.38a.042.042 0 0 0-.042-.042"/><path d="M.946 0H.047a.042.042 0 0 0-.042.042v.112c0 .024.02.043.042.043h.336v1.225c0 .024.02.043.042.043h.143a.042.042 0 0 0 .042-.043V.197h.336A.042.042 0 0 0 .988.154V.042A.042.042 0 0 0 .946 0" mask="url(#a)" transform="translate(4 21.635)"/><path d="M7.883 21.832a.042.042 0 0 0 .042-.042v-.113a.042.042 0 0 0-.042-.042h-.851a.042.042 0 0 0-.042.042v1.38c0 .024.02.043.042.043h.851a.042.042 0 0 0 .042-.042v-.113a.042.042 0 0 0-.042-.042h-.666v-.452h.555a.042.042 0 0 0 .042-.042v-.113a.042.042 0 0 0-.042-.042h-.555v-.422zm20.743-.155a.042.042 0 0 0-.042-.042h-.143a.043.043 0 0 0-.043.042v.96l-.895-1.01c-.014-.02-.052-.023-.077-.017-.017.003-.036.02-.038.037v1.41c0 .024.02.043.043.043h.142a.043.043 0 0 0 .043-.043v-.963l.895.996c.015.019.053.022.078.016.017-.004.036-.021.037-.04z"/><path d="M1.396.046c-.012-.05-.109-.07-.139-.005L.835 1.13.413.041C.383-.024.286-.005.274.046L0 1.452c0 .023.019.042.042.042h.143a.042.042 0 0 0 .043-.042L.396.516l.361.937.02.037c.015.03.035.036.056.036h.004c.021 0 .041-.006.056-.036l.02-.037.36-.937.169.936c0 .023.019.042.043.042h.142a.042.042 0 0 0 .043-.042z" mask="url(#b)" transform="translate(22.635 21.605)"/><path d="M11.442 21.832a.042.042 0 0 0 .042-.042v-.113a.042.042 0 0 0-.042-.042h-.851a.042.042 0 0 0-.042.042v1.38c0 .024.02.043.042.043h.851a.042.042 0 0 0 .042-.042v-.113a.042.042 0 0 0-.042-.042h-.666v-.452h.555a.042.042 0 0 0 .042-.042v-.113a.042.042 0 0 0-.042-.042h-.555v-.422zm5.7 0a.042.042 0 0 0 .042-.042v-.113a.042.042 0 0 0-.042-.042h-.851a.042.042 0 0 0-.042.042v1.38c0 .024.019.043.042.043h.851a.042.042 0 0 0 .042-.042v-.113a.042.042 0 0 0-.042-.042h-.666v-.452h.555a.042.042 0 0 0 .042-.042v-.113a.042.042 0 0 0-.042-.042h-.555v-.422zm-5.035.498v-.498h.407c.125 0 .226.098.225.244 0 .167-.1.255-.225.255h-.002zm.537.15a.439.439 0 0 0 .3-.415.43.43 0 0 0-.41-.43h-.612a.042.042 0 0 0-.042.042v1.38c0 .024.02.043.042.043h.143a.042.042 0 0 0 .042-.042v-.53h.304l.266.53c.012.024.02.042.046.042h.168c.036.003.053-.026.036-.055zm12.576-.15h-.334v-.498h.333c.125 0 .227.098.226.244 0 .167-.1.255-.226.255m.43-.266a.426.426 0 0 0-.414-.43h-.534a.042.042 0 0 0-.042.042v1.38c0 .024.02.043.042.043h.143a.042.042 0 0 0 .042-.042v-.53h.347l.011-.001c.225-.015.405-.233.405-.462m-7.083-.43h-.167a.038.038 0 0 0-.033.018l-.374.53-.373-.53a.04.04 0 0 0-.034-.018h-.166a.035.035 0 0 0-.03.055l.49.706v.66c0 .025.019.044.042.044h.143a.042.042 0 0 0 .042-.043v-.66l.489-.707a.035.035 0 0 0-.03-.055m11.514 0h-.167a.038.038 0 0 0-.033.018l-.374.53-.373-.53a.04.04 0 0 0-.034-.018h-.166c-.029 0-.046.032-.029.055l.489.706v.66c0 .025.019.044.041.044h.144a.042.042 0 0 0 .042-.043v-.66l.489-.707a.035.035 0 0 0-.029-.055m-8.458 1.279a.551.551 0 0 1 0-1.1.551.551 0 0 1 0 1.1m0-1.297a.747.747 0 1 0-.001 1.494.747.747 0 0 0 .001-1.494m-1.546 1.297a.55.55 0 1 1 .367-.96.04.04 0 0 0 .057-.001l.08-.08a.043.043 0 0 0-.001-.062.75.75 0 0 0-1.249.505.748.748 0 0 0 1.253.597.042.042 0 0 0 .003-.06l-.076-.084a.042.042 0 0 0-.06-.003.543.543 0 0 1-.374.148m6.08-.322.257-.577.257.577zm.936.437-.517-1.163-.093-.21c-.024-.064-.103-.076-.137.003l-.095.207-.516 1.163c-.023.042.006.071.03.071h.129c.04 0 .047-.025.059-.05l.116-.261h.69l.116.261c.012.025.018.05.058.05h.13c.023 0 .052-.029.03-.071zm-13.096-.645c-.136-.075-.344-.154-.429-.212a.18.18 0 0 1-.087-.164c0-.111.091-.196.201-.201a.526.526 0 0 1 .323.088.041.041 0 0 0 .056-.01l.071-.092a.042.042 0 0 0-.009-.06.662.662 0 0 0-.454-.123.398.398 0 0 0-.196.735c.115.065.251.129.394.193a.201.201 0 0 1 .121.184.2.2 0 0 1-.2.2h-.002a.68.68 0 0 1-.395-.134.042.042 0 0 0-.057.009l-.072.094a.041.041 0 0 0 .007.058.768.768 0 0 0 .52.17.398.398 0 0 0 .208-.735m-8.135-9.28v2.94h-.556v-2.94h-1.3V20.8h1.3v-3.665h.555V20.8h1.3v-7.694zm1.905 0V20.8h2.398v-1.116H9.066v-2.485h.956v-1.1h-.956v-1.876h1.017v-1.117zm11.766-.004v2.94h-.556V13.1h-1.301v7.695h1.301V17.13h.556v3.665h1.3V13.1zm1.905 0v7.695h2.398V19.68h-1.097v-2.485h.956v-1.1h-.956v-1.876h1.017V13.1zm-8.998 2.81a.279.279 0 0 1-.278.279h-.243v-1.94h.243c.153 0 .278.125.278.279zm1.196 3.698v-1.833c0-.555-.157-1.026-.63-1.134v-.003c.4-.107.648-.436.648-1.144v-1.182c0-.77-.484-1.207-1.106-1.207h-1.954v7.694h1.272v-3.624h.24c.193 0 .288.095.288.339-.026 1.44-.086 2.967.165 3.285h1.545a1.723 1.723 0 0 1-.468-1.191zm13.616-6.507h-1.072L25.782 16l-.409-2.898h-1.319l.936 5.341v2.353h1.307v-2.37zm-10.66 3.737-.677-.769c-.254-.267-.483-.516-.494-.996v-.669c.007-.194.117-.238.268-.238.15 0 .242.08.243.273v1.107h1.213v-1.27c-.02-.79-.469-1.276-1.44-1.276-.842 0-1.516.439-1.516 1.287l-.005.965c0 .817.376 1.206.685 1.595l.701.799c.26.269.357.412.37.893l-.002.976.001.004a.277.277 0 0 1-.553 0V18.05h-1.253v1.59c.02.794.637 1.287 1.495 1.287.852 0 1.558-.48 1.558-1.332v-1.138c0-.879-.29-1.242-.595-1.619"/></g><path d="M29.811 18.857c-.5-.48-.969-1.008-1.079-1.64-.005-.039-.034-.059-.063-.059-.028 0-.057.02-.063.06-.109.631-.577 1.158-1.078 1.64-1.045.916-.689 1.92.004 1.92h2.275c.692 0 1.048-1.004.004-1.92" fill="#2f1218"/><path d="M1.642.729C.466.909.006 1.259 0 2.002v.404a.05.05 0 0 0 .095.025c.263-.426.578-.619 1.277-.728.922-.134 1.722-.284 2.005-.643V0C3.1.393 2.372.584 1.642.729" fill="#a9acb0" mask="url(#c)" transform="translate(28.627 14.427)"/></g></svg>