<svg height="36" viewBox="0 0 36 36" width="36" xmlns="http://www.w3.org/2000/svg"><mask id="a" fill="#fff"><path d="M0 0h28v8.029H0z" fill-rule="evenodd"/></mask><g fill="none" fill-rule="evenodd"><path d="M18 0c2.837 0 5.52.656 7.907 1.825C31.884 4.753 36 10.895 36 18c0 9.942-8.058 18-18 18-9.94 0-18-8.057-18-18C0 8.06 8.06 0 18 0z" fill="#f2f4f7" fill-rule="nonzero"/><path d="m26.131 6.224.466-.53h-.479l-.442.505-.39-.505h-.695v.126h.037c.228.025.291.063.43.253l.291.379-.468.529h.48l.202-.24.454.593h.531l-.847-1.11zm.908-1.048v.518h-.302v.2h.302v1.012c0 .44.279.466.619.466.089 0 .177-.012.265-.025h.038v-.202h-.051c-.036.013-.075.013-.126.013-.277 0-.289-.076-.289-.303v-.96H28v-.201h-.505v-.518zm-3.256.656c.24 0 .304.177.316.34h-.658c.014-.125.09-.34.342-.34zm.77.505c0-.454-.253-.681-.757-.681-.557 0-.846.264-.846.807 0 .569.367.909.984.909.266 0 .48-.063.556-.087l.026-.013v-.215l-.038.013a1.226 1.226 0 0 1-.367.062c-.479 0-.656-.403-.67-.757h1.112zm-2.059-1.35h-.454v1.78c-.087-.14-1.173-1.78-1.173-1.78h-1.048v.126l.087.025c.279.038.292.05.292.315v1.88h.493V5.467c.087.14 1.237 1.868 1.237 1.868h.593V4.987zm-8.899.189v.518h-.302v.2h.302v1.012c0 .44.278.466.619.466.088 0 .177-.012.265-.025h.026v-.202h-.039c-.038.013-.088.013-.138.013-.265 0-.278-.076-.278-.303v-.96h.505v-.201h-.505v-.518zm4.306.656c.252 0 .315.177.315.34h-.645c0-.125.078-.34.33-.34zm.77.505c0-.454-.253-.681-.746-.681-.568 0-.845.264-.845.807 0 .569.365.909.971.909.278 0 .481-.063.557-.087l.024-.013v-.215l-.037.013a1.124 1.124 0 0 1-.354.062c-.481 0-.67-.403-.67-.77h1.1zm-2.538-.681a.696.696 0 0 0-.619.353V4.885h-.038l-.719.102v.126h.025c.227 0 .278.05.278.278v1.943h.454V6.5c0-.315.227-.555.417-.555.252 0 .252.189.252.353v1.035h.455V6.249c0-.176 0-.593-.505-.593zm-4.886.176c.24 0 .303.177.303.34h-.644c.013-.125.077-.34.341-.34zm.758.505c0-.454-.252-.681-.745-.681-.568 0-.846.264-.846.807 0 .569.366.909.985.909.185 0 .368-.03.543-.087l.025-.013v-.215l-.038.013a1.122 1.122 0 0 1-.353.062c-.48 0-.67-.403-.67-.77h1.099zm-1.78-.315V5.68l-.038-.013c-.063-.012-.139-.012-.215-.012-.252 0-.391.189-.454.328v-.341l-.038.013-.72.113v.126h.026c.227.013.278.05.278.266v1.173h.454v-.845c0-.14.051-.467.467-.467.051 0 .114.013.164.025l.076.026zm-2.121-.57c.152 0 .278-.112.278-.25 0-.127-.126-.241-.278-.241-.151 0-.278.114-.278.24 0 .139.127.252.278.252zm-.53.317v.126h.025c.227.013.278.05.278.266v1.173h.442V5.643l-.025.013zm-1.149.139c.303 0 .341.329.341.58 0 .43-.114.644-.341.644-.29 0-.353-.277-.353-.504v-.152c0-.164.038-.568.353-.568zm.126-.252c-.164 0-.328.076-.479.227v-.24l-.038.013-.72.113v.126h.038c.215.013.265.05.265.266v1.868h.455v-.846c.076.102.214.189.467.189.467 0 .719-.302.719-.883 0-.531-.252-.833-.707-.833zm-1.994.656c-.177-.088-.328-.164-.328-.29 0-.14.164-.152.239-.152.19 0 .354.1.43.139l.063.05v-.34l-.051-.013c-.088-.012-.239-.05-.416-.05-.417 0-.682.176-.682.492 0 .265.265.404.505.517.177.089.354.164.354.303 0 .127-.114.19-.304.19a.942.942 0 0 1-.492-.164l-.05-.04v.355h.025c.101.025.265.063.505.063.454 0 .732-.19.732-.504 0-.303-.278-.442-.53-.556zM2.79 5.656c-.329 0-.531.227-.619.366v-.38l-.038.014-.719.113v.127h.025c.227.012.277.05.277.265v1.173h.455v-.858c0-.227.214-.53.442-.53.214 0 .227.189.227.48v.908h.455V6.16c0-.33-.177-.505-.505-.505zM.896 4.949 0 5.025v.138h.038c.353.039.353.039.353.303v1.868h.543V4.949zM15.931 2.84a2.513 2.513 0 0 1-.139-.808c0-.404.076-.783.265-1.111s.492-.581.859-.72a3.153 3.153 0 0 1 2.374.064c.364.164.643.492.718.883l.039.24h-1.049c-.012-.101-.024-.202-.063-.29a.706.706 0 0 0-.466-.442 1.703 1.703 0 0 0-.442-.063c-.177 0-.342.025-.493.088a.87.87 0 0 0-.555.555 2.235 2.235 0 0 0-.038 1.452.896.896 0 0 0 .543.606c.177.063.354.1.543.1.163 0 .315-.024.466-.075a.741.741 0 0 0 .442-.391c.051-.126.076-.265.076-.404h1.06c-.012.114-.024.24-.05.353a1.18 1.18 0 0 1-.707.834 3.127 3.127 0 0 1-1.287.265c-.354 0-.695-.051-1.023-.151-.48-.152-.909-.506-1.073-.985zM6.627 3.888h.998V.1h-.998zM2.802.1v1.515h2.02V.1h1.01v3.788h-1.01V2.222h-2.02v1.667h-1.01S1.805.1 1.792.1zm22.61 3.787h1.01V.1h-1.01zM13.583.745l-.707 1.717h1.401zm2.386 3.144h-1.124l-.328-.821h-1.881l-.328.82h-1.111L12.964.102h1.225zM12.068.1v.644h-1.54v3.144h-1.01V.745H7.99V.1zm9.518 0v1.515h2.032S23.606.1 23.618.1h.998v3.788h-.998V2.222h-2.032v1.667h-.997V.1z" fill="#4d4d4d" mask="url(#a)" transform="translate(4 14)"/><path d="M31.04 19.176h-.48l.581-.669h.48z" fill="#d40000"/></g></svg>