<svg width="36" height="36" fill="none" xmlns="http://www.w3.org/2000/svg"><path d="M18 0c2.837 0 5.52.656 7.907 1.825C31.884 4.753 36 10.895 36 18c0 9.942-8.058 18-18 18-9.94 0-18-8.057-18-18C0 8.06 8.06 0 18 0z" fill="#F2F4F7"/><path d="M17.982 9C10.25 9 4 12.92 4 17.766s6.251 8.766 13.982 8.766c7.73 0 14.018-3.92 14.018-8.766C32 12.921 25.712 9 17.982 9zm0 16.46c-7.99 0-13.538-3.255-13.538-7.694 0-4.623 5.733-7.693 13.538-7.693 7.989 0 13.537 3.255 13.537 7.693 0 4.587-5.733 7.694-13.537 7.694z" fill="#1769B2"/><path d="M20.977 13.66h-5.03c-.666 0-.703.333-.703.556v1.257h2.22v6.14h1.96v-6.14h2.22v-1.258c.036-.222-.038-.554-.666-.554zM8.845 17.655c0 1.221.925 2.183 2.146 2.183 1.22 0 2.108-.962 2.108-2.183 0-1.22-.925-2.182-2.145-2.182-1.184 0-2.109.962-2.109 2.182zm-1.997 0a4.136 4.136 0 0 1 4.143-4.142 4.136 4.136 0 0 1 4.143 4.142 4.136 4.136 0 0 1-4.143 4.143c-2.293-.037-4.143-1.886-4.143-4.143zm18.975 4.105c1.48-.036 2.367-.665 2.811-1.146.074-.074-.296-.925-.666-1.331-.296-.333-.703-.111-.85.037-.333.222-.63.444-1.295.48-.85 0-1.553-.517-1.886-1.22h2.33v-1.85h-2.33a2.086 2.086 0 0 1 1.923-1.22c.518 0 .888.185 1.184.37.184.11.554.333.85.037.37-.407.74-1.258.666-1.332-.555-.48-1.258-.999-2.7-1.036-2.256-.073-4.18 1.776-4.18 4.143 0 2.33 1.924 4.069 4.143 4.069z" fill="#1769B2"/></svg>