<svg width="36" height="36" fill="none" xmlns="http://www.w3.org/2000/svg"><path d="M18 0c2.837 0 5.52.656 7.907 1.825C31.884 4.753 36 10.895 36 18c0 9.942-8.058 18-18 18-9.94 0-18-8.057-18-18C0 8.06 8.06 0 18 0z" fill="#F2F4F7"/><path d="M7.032 15.315v2.238H4.976v-2.239H4v5.345h.976v-2.166h2.056v2.166h.976v-5.344h-.976zm4.1 3.616a.808.808 0 0 1-1.615 0v-2.289h-.926v2.29a1.732 1.732 0 0 0 3.464 0v-2.29h-.922v2.29zm6.86-2.053c0-.47.311-.618.651-.618.274 0 .636.208.873.462l.607-.715c-.303-.41-.917-.693-1.42-.693-1.004 0-1.73.589-1.73 1.564 0 1.81 2.21 1.235 2.21 2.248 0 .312-.303.588-.65.588-.547 0-.725-.268-.976-.55l-.673.699c.43.528.961.797 1.597.797.954 0 1.722-.596 1.722-1.527 0-2.008-2.212-1.384-2.212-2.255h.002zm13.682 2.927c-.547 0-.702-.237-.702-.6v-1.604h.85v-.813h-.85v-1.073l-.94.422v3.268c0 .836.578 1.258 1.369 1.258.124.002.248-.009.37-.03L32 19.79a4.98 4.98 0 0 1-.326.014zm-17.017-3.136c-.459 0-.779.133-1.088.436v-1.759h-.928v3.26c0 1.221.883 2.057 1.874 2.057 1.1 0 2.068-.85 2.068-1.997 0-1.131-.89-1.997-1.926-1.997zm-.006 3.061a1.054 1.054 0 0 1-.972-1.455 1.053 1.053 0 1 1 .972 1.455zm10.075-1.112c0-1.148-.965-1.997-2.067-1.997-.991 0-1.874.836-1.874 2.057v3.262h.927v-1.762c.31.303.63.437 1.088.437 1.035 0 1.926-.865 1.926-1.997zm-.878-.012a1.053 1.053 0 1 1-2.105 0 1.053 1.053 0 0 1 2.105 0z" fill="#33475B"/><path d="M27.722 16.576v-.932a.716.716 0 0 0 .414-.646v-.022a.717.717 0 0 0-.717-.717h-.022a.717.717 0 0 0-.717.717v.022a.718.718 0 0 0 .413.646v.932c-.353.054-.687.2-.966.425l-2.555-1.99a.803.803 0 0 0 .03-.201.808.808 0 1 0-.81.807.8.8 0 0 0 .398-.109l2.516 1.958a2.038 2.038 0 0 0 .031 2.296l-.765.765a.657.657 0 0 0-.192-.031.664.664 0 1 0 .665.664.653.653 0 0 0-.031-.19l.757-.758a2.042 2.042 0 1 0 1.551-3.636zm-.314 3.064a1.047 1.047 0 1 1 0-2.094 1.047 1.047 0 0 1 .002 2.094" fill="#FF7A59"/></svg>