<svg width="36" height="36" fill="none" xmlns="http://www.w3.org/2000/svg"><path d="M18 0c2.837 0 5.52.656 7.907 1.825C31.884 4.753 36 10.895 36 18c0 9.942-8.058 18-18 18-9.94 0-18-8.057-18-18C0 8.06 8.06 0 18 0z" fill="#F2F4F7"/><path d="M11.826 16.364a.164.164 0 0 0-.168.168v3.278a3.94 3.94 0 0 1-.766.096c-.574 0-.765-.215-.765-.838v-2.536c0-.096-.072-.168-.144-.168H9.12v2.704c0 1.269.67 1.676 1.747 1.676a7.14 7.14 0 0 0 1.795-.264v-4.116h-.837zm13.186 4.332c.072 0 .168-.072.168-.168v-3.302c.239-.048.502-.096.765-.096.575 0 .766.215.766.838v2.56c0 .096.072.168.144.168h.861v-2.729c0-1.268-.67-1.675-1.747-1.675a7.14 7.14 0 0 0-1.795.264v4.14h.838zm-3.446-4.404c-1.125 0-1.819.599-1.819 1.915v.646c0 1.436.766 1.914 1.58 1.914.406 0 .837-.287.957-.454v.263c0 .072.072.144.143.144h.862v-4.188c.024 0-.814-.24-1.723-.24zm.742 3.35c-.192.168-.335.264-.742.264-.575.024-.814-.335-.814-1.077v-.598c0-.838.311-1.077.814-1.077.407 0 .646.024.742.048v2.44zm7.945-3.35c-1.125 0-1.819.599-1.819 1.915v.646c0 1.436.766 1.914 1.604 1.914.406 0 .837-.287.957-.454v.263c0 .072.072.144.143.144H32v-4.188s-.838-.24-1.747-.24zm.742 3.35c-.192.168-.335.264-.742.264-.574 0-.814-.335-.814-1.077v-.598c0-.862.311-1.077.814-1.077.407 0 .646.024.742.048v2.44zM4 20.697h.91a.154.154 0 0 0 .143-.144V18.16h1.675a.46.46 0 0 1 .479.455v1.938c0 .072.072.144.143.144h.91V15h-.91a.154.154 0 0 0-.143.144v2.153H5.484a.403.403 0 0 1-.407-.406v-1.747c-.024-.048-.072-.144-.168-.144H4v5.696zm13.474-4.404c-.48 0-.934.192-1.15.335-.31-.239-.741-.335-1.268-.335-.79 0-1.46.24-1.555.287v4.14h.861c.096 0 .144-.071.144-.167v-3.326c.215-.048.383-.072.527-.072.598 0 .741.24.741.837v2.561c0 .072.048.168.144.168h.718c.096 0 .143-.072.143-.168v-3.207c.168-.12.383-.191.599-.191.454 0 .646.215.646.766v2.632c0 .072.048.168.143.168h.862v-2.944c.024-1.1-.67-1.484-1.555-1.484z" fill="#4E8416"/></svg>