<svg width="36" height="36" fill="none" xmlns="http://www.w3.org/2000/svg"><path d="M18 0c2.837 0 5.52.656 7.907 1.825C31.884 4.753 36 10.895 36 18c0 9.942-8.058 18-18 18-9.94 0-18-8.057-18-18C0 8.06 8.06 0 18 0z" fill="#F2F4F7"/><path d="M14.59 12.279V9.603l2.325-1.367 2.367 1.361v2.682l-.838.481 1.026.587.838-.482V8.981L16.936 7l-3.393 1.963.02 3.902 1.027-.586zm.01 2.167v2.676l2.325 1.367 2.367-1.361v-2.682l-.838-.481 1.027-.587.837.482v3.884l-3.372 1.981-3.393-1.963.02-3.956.326-.187 1.053.587-.352.24z" fill="#000"/><path d="m13.563 12.865 3.352 1.958 1.005-.586-1.476-.89.47-.273 1.54.89 1.027-.586-2.566-1.529-1.498.9-.827-.47-1.027.586z" fill="#168080"/><path d="M8 23.634h.936v2.063h1.33v-2.064h.904v5.266h-.878v-2.308h-1.36v2.308h-.901L8 23.634zm5.096.01h.935v4.021s.16.49.67.49c.511 0 .704-.49.704-.49v-4.02h.923v4.053c0 .138-.16 1.287-1.606 1.287-1.447 0-1.633-1.17-1.633-1.309l.007-4.032zm7.817-.021v.904h-1.069v4.393h-.988v-4.393h-1.07v-.904h3.127zm4.602 2.531a1.4 1.4 0 0 0 .404-1.015c0-.866-.473-1.569-1.468-1.569-.941 0-1.468.703-1.468 1.569 0 .413.149.758.394 1.006-.274.223-.444.615-.445 1.286-.003.867.685 1.57 1.53 1.57.846 0 1.523-.703 1.532-1.57.008-.643-.18-1.042-.479-1.277zm-1.071-1.69c.48 0 .486.292.486.654 0 .36-.007.627-.486.627-.445 0-.486-.266-.486-.627 0-.362.061-.654.485-.654zm.007 3.655c-.399 0-.555-.31-.555-.73s.124-.76.555-.76c.473 0 .554.34.554.76 0 .421-.06.73-.556.73h.002zm1.938-4.688a.066.066 0 0 0-.026-.056.35.35 0 0 0-.092-.04.634.634 0 0 1-.105-.044c-.071-.038-.107-.09-.106-.154a.15.15 0 0 1 .028-.09.185.185 0 0 1 .082-.061.305.305 0 0 1 .12-.023c.04 0 .08.008.118.025a.18.18 0 0 1 .11.168h-.128a.083.083 0 0 0-.027-.067.11.11 0 0 0-.075-.024.118.118 0 0 0-.073.02.063.063 0 0 0-.026.052.06.06 0 0 0 .03.051c.028.017.059.03.09.038a.386.386 0 0 1 .16.082.162.162 0 0 1 .05.122.149.149 0 0 1-.061.126.268.268 0 0 1-.165.046.32.32 0 0 1-.13-.026.208.208 0 0 1-.09-.073.185.185 0 0 1-.032-.106h.129c0 .069.041.103.123.103a.12.12 0 0 0 .071-.019.06.06 0 0 0 .025-.05zm.471-.459.16.451.158-.45h.168v.621h-.13v-.17l.014-.293-.168.463h-.088l-.168-.462.013.292v.17h-.127v-.622h.167z" fill="#000"/></svg>