<svg width="36" height="36" fill="none" xmlns="http://www.w3.org/2000/svg"><path d="M18 0c2.837 0 5.52.656 7.907 1.825C31.884 4.753 36 10.895 36 18c0 9.942-8.058 18-18 18-9.94 0-18-8.057-18-18C0 8.06 8.06 0 18 0z" fill="#F2F4F7"/><path d="m22 22 4-2V10l-4 2v10z" fill="url(#a)"/><path d="m16 18 4-2V6l-4 2v10z" fill="url(#b)"/><path d="m16 30 4-2V18l-4 2v10z" fill="url(#c)"/><path d="m10 28 4-2V16l-4 2v10z" fill="url(#d)"/><defs><linearGradient id="a" x1="25.57" y1="13.996" x2="15.28" y2="30.37" gradientUnits="userSpaceOnUse"><stop stop-color="#FCB415"/><stop offset=".59" stop-color="#F17387"/></linearGradient><linearGradient id="b" x1="214.198" y1="170.424" x2="-263.166" y2="397.172" gradientUnits="userSpaceOnUse"><stop stop-color="#FCB415"/><stop offset=".59" stop-color="#F17387"/></linearGradient><linearGradient id="c" x1="18" y1="18" x2="18" y2="30" gradientUnits="userSpaceOnUse"><stop stop-color="#F17585"/><stop offset=".51" stop-color="#D96D90"/><stop offset="1" stop-color="#BD679C"/></linearGradient><linearGradient id="d" x1="12" y1="16" x2="12" y2="28" gradientUnits="userSpaceOnUse"><stop stop-color="#F17585"/><stop offset=".505" stop-color="#D96D90"/><stop offset="1" stop-color="#BD679C"/></linearGradient></defs></svg>