<svg width="36" height="36" fill="none" xmlns="http://www.w3.org/2000/svg"><path d="M18 0c2.837 0 5.52.656 7.907 1.825C31.884 4.753 36 10.895 36 18c0 9.942-8.058 18-18 18-9.94 0-18-8.057-18-18C0 8.06 8.06 0 18 0z" fill="#F2F4F7"/><path d="M26.592 18.247v4.27l5.402-8.9-5.402 4.63z" fill="#CD232D"/><path d="M26.587 18.249v4.275l2.255-6.041 1.75-.553L32 13.611l-5.413 4.638zM4 22.552l.098-.265h1.203l3.256-8.782H7.355l.098-.265h3.875l-.099.265h-1.202L6.77 22.287h1.203l-.099.265H4zm19.796.188c.047-.2-.123-.427-.498-.427-.413 0-1.289.452-2.411.452-2.433 0-3.3-2.235-2.323-4.869.977-2.634 3.501-4.869 5.934-4.869.868 0 1.281.4 1.976.4.24 0 .555-.2.645-.373h.268l-1.085 2.927h-.268c.67-1.81-.486-2.688-1.635-2.688-.588 0-1.162.107-1.774.533-.8.572-1.703 1.889-2.512 4.07-.81 2.183-.884 3.5-.507 4.072.296.425.79.532 1.379.532 1.724 0 3.348-1.211 3.99-2.94h.267l-1.18 3.18h-.266zm-10.146-.188.1-.265h1.228l.008-2.688H11.86l-1.985 2.688h1.23l-.1.265H8.36l.098-.265h1.136L16.418 13h.187l.214 9.287h.858l-.099.265h-3.927zm1.394-7.29-2.992 4.07h2.952l.04-4.07z" fill="#244479"/><path d="M6.396 19.332h5.37l-.197.267H6.297l.099-.267zm13.254 0-.032.123-.035.144h-4.596l.018-.267h4.645z" fill="#CD232D"/></svg>