<svg width="36" height="36" fill="none" xmlns="http://www.w3.org/2000/svg"><path d="M18 0c2.837 0 5.52.656 7.907 1.825C31.884 4.753 36 10.895 36 18c0 9.942-8.058 18-18 18-9.94 0-18-8.057-18-18C0 8.06 8.06 0 18 0z" fill="#F2F4F7"/><path d="M8.12 12.956h2.039v7.768H8.12v-7.768zm2.792 3.876a4.015 4.015 0 0 1 6.218-3.356v-.52h2.038v7.768H17.13v-.536a4.015 4.015 0 0 1-6.218-3.356zm1.842 0c0 1.199.975 2.174 2.173 2.174a2.176 2.176 0 0 0 2.174-2.174 2.176 2.176 0 0 0-2.174-2.174 2.176 2.176 0 0 0-2.173 2.174zm7.21 0a4.022 4.022 0 0 1 4.018-4.018h4.001v2.037h-.507A3.99 3.99 0 0 1 28 16.832a4.024 4.024 0 0 1-2.683 3.789 3.125 3.125 0 0 1 1.82 2.836c0 1.722-1.4 3.122-3.122 3.122a3.125 3.125 0 0 1-3.122-3.122c0-1.246.734-2.323 1.792-2.824a4.024 4.024 0 0 1-2.721-3.801zm5.306 6.625c0-.692-.563-1.256-1.256-1.256a1.257 1.257 0 0 0 0 2.512c.693 0 1.256-.564 1.256-1.256zm-3.44-6.625c0 1.186.965 2.151 2.152 2.151a2.154 2.154 0 0 0 2.151-2.151 2.154 2.154 0 0 0-2.151-2.152 2.154 2.154 0 0 0-2.152 2.152zM9.14 12.28a1.14 1.14 0 1 0 0-2.28 1.14 1.14 0 0 0 0 2.28z" fill="#592C82"/></svg>