<svg width="36" height="36" fill="none" xmlns="http://www.w3.org/2000/svg"><defs><linearGradient id="a" x1="5.767" y1="19.022" x2="3.997" y2="19.022" gradientUnits="userSpaceOnUse"><stop stop-color="#D81222"/><stop offset="1" stop-color="#960B1A"/></linearGradient></defs><path d="M18 0c2.837 0 5.52.656 7.907 1.825C31.884 4.753 36 10.895 36 18c0 9.942-8.058 18-18 18-9.94 0-18-8.057-18-18C0 8.06 8.06 0 18 0z" fill="#F2F4F7"/><path d="M7.42 19.994h-.448v-2.168h.449v2.168zm1.69-1.514c.105.087.155.23.155.43v1.084h-.43v-.973a.495.495 0 0 0-.031-.193c-.044-.08-.119-.124-.237-.124-.143 0-.237.062-.293.18a.652.652 0 0 0-.043.244V20h-.418v-1.608h.405v.237a.993.993 0 0 1 .15-.18.547.547 0 0 1 .33-.1c.168 0 .305.043.411.13zm.36.224v-.299h.225v-.449h.417v.45h.262v.298h-.262v.848c0 .068.006.105.025.124.019.019.069.025.156.025h.087v.312l-.212.006c-.2.006-.336-.025-.405-.106-.05-.05-.068-.125-.068-.224v-.985H9.47zm2.194-.28c.112.05.205.13.28.236a.818.818 0 0 1 .13.33c.013.076.02.181.013.319h-1.171c.006.162.062.274.168.336a.454.454 0 0 0 .23.062.342.342 0 0 0 .231-.075.333.333 0 0 0 .087-.112h.43a.543.543 0 0 1-.155.293c-.144.156-.343.237-.605.237a.887.887 0 0 1-.567-.2c-.162-.13-.243-.348-.243-.641 0-.28.075-.492.224-.642a.77.77 0 0 1 .574-.224c.137.006.261.03.374.08zm-.63.361a.404.404 0 0 0-.112.25h.723a.35.35 0 0 0-.112-.256.379.379 0 0 0-.25-.087.334.334 0 0 0-.249.093zm2.187-.43h.038v.43c-.025 0-.05-.006-.069-.006h-.05c-.168 0-.28.056-.343.162a.655.655 0 0 0-.05.287v.766h-.423v-1.601h.399v.28a.771.771 0 0 1 .168-.218.45.45 0 0 1 .305-.1c.013-.006.019-.006.025 0zm.916.667a.879.879 0 0 0 .168-.038c.063-.025.094-.062.094-.118 0-.069-.025-.112-.069-.137a.43.43 0 0 0-.205-.038c-.1 0-.175.025-.212.075a.328.328 0 0 0-.063.15h-.405a.615.615 0 0 1 .119-.35c.112-.142.305-.211.573-.211.175 0 .336.037.474.106.137.068.205.2.205.392v.923a.21.21 0 0 0 .025.112.17.17 0 0 0 .062.05V20h-.454a.41.41 0 0 1-.025-.094c-.007-.03-.007-.062-.013-.1a.841.841 0 0 1-.2.163.643.643 0 0 1-.31.08.541.541 0 0 1-.362-.124.446.446 0 0 1-.143-.355c0-.2.074-.343.23-.43a1.08 1.08 0 0 1 .374-.106l.137-.012zm.255.193c-.024.018-.056.03-.08.043-.025.013-.063.02-.113.032l-.093.018a.941.941 0 0 0-.193.056c-.069.038-.1.1-.1.181 0 .075.019.125.062.156.038.03.088.05.15.05a.429.429 0 0 0 .255-.081c.075-.056.119-.15.119-.293v-.162h-.006zm1.738-.25a.305.305 0 0 0-.061-.162.261.261 0 0 0-.218-.1c-.144 0-.237.07-.293.213a.95.95 0 0 0-.044.299.75.75 0 0 0 .044.286c.05.131.143.2.286.2.1 0 .168-.025.212-.081a.373.373 0 0 0 .075-.206h.43a.716.716 0 0 1-.137.361c-.131.181-.324.275-.586.275-.262 0-.449-.075-.573-.231-.125-.156-.18-.355-.18-.598 0-.274.068-.492.198-.642.138-.156.318-.23.561-.23.2 0 .368.043.492.137.125.093.206.249.231.48h-.436zm.568-.261v-.299h.224v-.449h.418v.45h.261v.298h-.261v.848c0 .068.006.105.024.124.02.019.069.025.156.025h.088v.312l-.206.006c-.2.006-.337-.025-.405-.106-.05-.05-.069-.125-.069-.224v-.985h-.23zm1.607-.504h-.423v-.387h.423v.386zm-.43.192h.424V20h-.424v-1.608zm1.795.001h.448L19.54 20h-.442l-.574-1.607h.474l.336 1.183.337-1.183zm1.676.031c.112.05.205.13.28.236a.818.818 0 0 1 .131.33c.012.076.019.181.012.319H20.6c.005.162.061.274.167.336a.454.454 0 0 0 .23.062.342.342 0 0 0 .231-.075.333.333 0 0 0 .088-.112h.43a.543.543 0 0 1-.156.293c-.143.156-.343.237-.605.237a.887.887 0 0 1-.567-.2c-.162-.13-.243-.348-.243-.641 0-.28.075-.492.225-.642a.77.77 0 0 1 .573-.224c.137.006.262.03.374.08zm-.63.361a.404.404 0 0 0-.112.25h.723a.35.35 0 0 0-.112-.256.379.379 0 0 0-.25-.087.334.334 0 0 0-.248.093zm1.328-.953h.934c.256 0 .436.075.542.224a.527.527 0 0 1 .094.312.473.473 0 0 1-.293.46.71.71 0 0 1 .25.144c.099.094.142.224.142.393a.611.611 0 0 1-.13.38c-.131.168-.343.255-.63.255h-.922v-2.168h.013zm.828.916a.73.73 0 0 0 .293-.05c.112-.056.162-.15.162-.293s-.056-.236-.174-.286a.852.852 0 0 0-.293-.044h-.53v.673h.542zm.1.997c.18 0 .311-.05.386-.156a.383.383 0 0 0 .075-.237.324.324 0 0 0-.212-.324.798.798 0 0 0-.299-.043h-.586v.76h.636zm1.065-1.328h.25v.274a.52.52 0 0 1 .15-.193.4.4 0 0 1 .28-.112h.024c.013 0 .032 0 .063.006v.28c-.019 0-.031-.005-.044-.005h-.044c-.13 0-.236.043-.305.13a.441.441 0 0 0-.106.3v.91h-.268v-1.59zm2.125.156c.137.137.212.337.212.598 0 .256-.063.468-.187.63-.125.168-.312.249-.573.249a.641.641 0 0 1-.511-.218.89.89 0 0 1-.193-.592c0-.268.068-.474.199-.636a.668.668 0 0 1 .536-.236.769.769 0 0 1 .517.205zm-.168 1.053a1.025 1.025 0 0 0 .03-.803c-.074-.144-.198-.219-.38-.219a.375.375 0 0 0-.348.187.856.856 0 0 0-.112.449c0 .168.037.305.112.417.075.113.187.169.349.169.168 0 .287-.069.349-.2zm.673-1.794h.255v1.259l.68-.673h.336l-.605.585.642.991h-.336l-.499-.804-.218.212v.592h-.255v-2.162zm2.411.628c.106.05.187.12.237.206.05.081.087.175.106.28.018.076.024.188.024.35H28.3a.709.709 0 0 0 .112.386c.069.1.18.143.324.143.137 0 .25-.043.33-.137a.491.491 0 0 0 .1-.187h.262a.559.559 0 0 1-.069.194.637.637 0 0 1-.13.174.637.637 0 0 1-.3.162.777.777 0 0 1-.218.025.665.665 0 0 1-.498-.212c-.137-.143-.206-.343-.206-.598 0-.255.069-.461.206-.617a.686.686 0 0 1 .536-.237.609.609 0 0 1 .33.069zm.1.624a.759.759 0 0 0-.075-.274c-.075-.131-.193-.193-.362-.193a.405.405 0 0 0-.305.13.51.51 0 0 0-.13.337h.872zm.585-.667h.25v.274a.52.52 0 0 1 .149-.193.401.401 0 0 1 .28-.112h.025c.013 0 .031 0 .063.006v.28c-.02 0-.032-.005-.044-.005h-.044c-.13 0-.236.043-.305.13a.44.44 0 0 0-.106.3v.91h-.268v-1.59zm1.159 1.084a.384.384 0 0 0 .069.206c.068.087.187.13.355.13.1 0 .187-.018.268-.061a.211.211 0 0 0 .112-.2c0-.068-.031-.118-.094-.156a1.66 1.66 0 0 0-.23-.074l-.212-.056a.986.986 0 0 1-.305-.113c-.119-.074-.175-.168-.175-.299a.46.46 0 0 1 .162-.361c.106-.093.256-.137.443-.137.243 0 .417.068.523.212.069.087.1.187.1.286h-.25a.306.306 0 0 0-.062-.162c-.062-.068-.168-.106-.324-.106-.1 0-.18.02-.23.056a.183.183 0 0 0-.081.15c0 .069.037.125.106.162.037.025.1.044.174.062l.18.044c.194.044.325.093.393.137.106.069.156.174.156.318a.478.478 0 0 1-.162.361c-.106.1-.274.156-.492.156-.237 0-.405-.056-.505-.162a.625.625 0 0 1-.162-.399h.243v.006z" fill="#000"/><path d="M4 19.994V18.05l1.77 1.944H4z" fill="url(#a)"/><path d="M5.52 19.053a.53.53 0 1 0 0-1.06.53.53 0 0 0 0 1.06zM4 18.05v1.944L5.77 16 4 18.05z" fill="#D81222"/></svg>