<svg width="36" height="36" fill="none" xmlns="http://www.w3.org/2000/svg"><path d="M18 0c2.837 0 5.52.656 7.907 1.825C31.884 4.753 36 10.895 36 18c0 9.942-8.058 18-18 18-9.94 0-18-8.057-18-18C0 8.06 8.06 0 18 0z" fill="#F2F4F7"/><path d="M15.221 27.957h1.218v-6.02h-1.218v6.02zm5.407-5.275c.602 0 .984.147 1.199.269l.083.048.287-.977-.057-.028c-.286-.144-.855-.312-1.512-.312-.95 0-1.763.312-2.348.903-.567.572-.88 1.385-.88 2.288 0 .905.283 1.675.819 2.23.539.558 1.292.853 2.179.853.76 0 1.402-.194 1.72-.36l.05-.028-.214-.946-.084.037a2.95 2.95 0 0 1-1.279.285c-1.173 0-1.961-.85-1.961-2.119 0-.6.182-1.139.513-1.518.357-.41.87-.625 1.485-.625zm4.715-.097c.401 0 .724.122.962.365.38.385.436.963.441 1.217h-2.953c.097-.625.517-1.582 1.55-1.582zm2.079.097c-.437-.662-1.127-1.012-1.995-1.012-.842 0-1.56.327-2.074.945-.486.584-.752 1.398-.752 2.295 0 .898.27 1.66.785 2.2.526.554 1.278.846 2.176.846.94 0 1.597-.209 1.982-.383l.057-.026-.217-.91-.082.034c-.364.154-.81.297-1.595.297-.547 0-1.013-.158-1.347-.458-.366-.328-.563-.808-.588-1.427h4.111l.013-.116c.014-.112.033-.264.033-.457 0-.32-.05-1.135-.507-1.828" fill="#000"/><path d="M8 8v20h3.963v-2.273h-1.69V10.273H25.77v8.538H28V8H8z" fill="#73C7E8"/></svg>