<svg height="36" viewBox="0 0 36 36" width="36" xmlns="http://www.w3.org/2000/svg"><mask id="a" fill="#fff"><path d="M2.344 0C.71.076-.155 1.126.023 1.567l1.105 1.819c.564.928 1.452.949 1.745.949h3.062L2.364 0z" fill-rule="evenodd"/></mask><mask id="b" fill="#fff"><path d="M0 6.618h28V0H0z" fill-rule="evenodd"/></mask><g fill="none" fill-rule="evenodd"><path d="M18 0c2.837 0 5.52.656 7.907 1.825C31.884 4.753 36 10.895 36 18c0 9.942-8.058 18-18 18-9.94 0-18-8.057-18-18C0 8.06 8.06 0 18 0z" fill="#f2f4f7" fill-rule="nonzero"/><path d="M2.344 0C.71.076-.155 1.126.023 1.567l1.105 1.819c.564.928 1.452.949 1.745.949h3.062L2.364 0z" mask="url(#a)" transform="translate(15 16)"/><g fill="#1a2a57"><path d="M7.956 18.664c-.035-.034-.092-.032-.13.006l-.157.157c-.037.037-.04.095-.005.129l1.776 1.777c.035.035.093.033.13-.006l.157-.157a.092.092 0 0 0 .006-.13zm-2.778-2.779c-.035-.034-.093-.032-.13.005l-.157.158c-.038.037-.04.095-.005.13l1.776 1.776c.035.035.093.032.13-.006l.157-.157c.037-.037.04-.095.005-.129zm1.484 2.779c.035-.034.093-.032.13.006l.157.157c.037.037.04.095.005.129l-1.776 1.777c-.035.035-.093.033-.13-.006l-.157-.157a.091.091 0 0 1-.005-.13zm2.778-2.779c.034-.034.092-.032.13.005l.157.158c.037.037.04.095.005.13l-1.776 1.776c-.035.035-.093.032-.13-.006l-.157-.157c-.038-.037-.04-.095-.006-.129zm-1.925 1.597-.11-2.386c0-.053-.044-.095-.097-.095s-.095.042-.095.095l-.112 2.386a.207.207 0 0 0 .414 0m0 1.654-.11 2.386c0 .052-.044.095-.097.095s-.095-.043-.095-.095l-.112-2.386a.207.207 0 0 1 .414 0m-1.034-1.033-2.386.11a.096.096 0 0 0 0 .191l2.386.113a.207.207 0 0 0 0-.414m1.655-.001 2.386.111a.096.096 0 0 1 0 .192l-2.386.111a.207.207 0 0 1 0-.414"/><path d="M7.548 4.677h.234V1.989h-.234zm2.472-.902c0-.415-.294-.728-.703-.728-.415 0-.704.32-.704.728 0 .407.293.726.704.726.409 0 .703-.31.703-.726zm.206-1.863v2.765h-.218V4.33a.814.814 0 0 1-.716.376c-.507 0-.902-.394-.902-.93 0-.539.395-.934.902-.934.329 0 .572.15.716.376V1.912zM12.3 3.666c-.032-.375-.288-.63-.627-.63-.367 0-.622.263-.664.63zm.218.188h-1.511c.032.42.328.663.696.663.252 0 .45-.1.61-.256l.118.148a.97.97 0 0 1-.741.297c-.528 0-.908-.38-.908-.931 0-.545.386-.933.894-.933.482 0 .842.382.847.922 0 .032-.003.063-.005.09zm2.047-.079c0-.415-.294-.728-.703-.728-.415 0-.703.32-.703.728 0 .407.292.726.703.726.41 0 .703-.313.703-.726zm.208-.904v1.806h-.22v-.349c-.15.242-.405.378-.716.378-.507 0-.902-.394-.902-.93 0-.54.395-.934.902-.934.313 0 .57.136.716.378v-.349zm2.321.699v1.108h-.22V3.637c0-.365-.21-.588-.58-.588a.585.585 0 0 0-.604.6v1.029h-.22V2.87h.218v.317c.142-.242.396-.346.645-.346.453 0 .76.28.76.728m2.189.206a.703.703 0 0 0-.716-.728.703.703 0 0 0-.714.728c0 .42.309.726.714.726a.702.702 0 0 0 .716-.726m-1.653 0c0-.532.4-.933.937-.933s.94.401.94.933-.404.931-.94.931-.937-.399-.937-.93m5.461-.206v1.108h-.218V3.637c0-.365-.213-.588-.582-.588a.585.585 0 0 0-.605.6v1.029h-.22V3.637c0-.365-.21-.588-.58-.588a.585.585 0 0 0-.604.6v1.029h-.218V2.87h.217v.317c.142-.242.395-.346.645-.346.338 0 .593.156.703.42.134-.295.422-.42.7-.42.454 0 .763.28.763.728m.677 1.109h.219V2.871h-.219zm-.047-2.457c0-.088.067-.159.155-.159s.158.071.158.159c0 .089-.07.156-.158.156s-.155-.067-.155-.156zm.819 1.554c0-.532.383-.933.926-.933.267 0 .506.1.667.28l-.142.148a.73.73 0 0 0-.531-.223c-.395 0-.696.307-.696.728 0 .42.3.726.696.726.214 0 .4-.09.536-.225l.137.15c-.164.18-.4.28-.667.28-.543 0-.925-.399-.925-.93m1.935.699.104-.165a.99.99 0 0 0 .643.202c.326 0 .553-.109.553-.334 0-.167-.138-.269-.42-.298l-.232-.025c-.408-.046-.586-.226-.586-.484 0-.332.288-.527.704-.527.288 0 .546.084.71.201l-.097.171a1.137 1.137 0 0 0-.612-.18c-.281 0-.481.123-.481.324 0 .165.132.261.413.292l.23.027c.377.046.595.2.595.485 0 .342-.313.541-.78.541-.262 0-.535-.07-.744-.23" mask="url(#b)" transform="translate(4 15)"/></g></g></svg>