<svg width="36" height="36" fill="none" xmlns="http://www.w3.org/2000/svg"><path d="M18 0c2.837 0 5.52.656 7.907 1.825C31.884 4.753 36 10.895 36 18c0 9.942-8.058 18-18 18-9.94 0-18-8.057-18-18C0 8.06 8.06 0 18 0z" fill="#F2F4F7"/><path d="m9.642 14-2.09 7.453H4L6.072 14h3.57zm10.798 2.018c-.523 0-.856.41-.856.532h2.847l-.269.82h-9.7l-.138.605h9.692l-.243.857h-2.624c.07.331.475.614.714.61h1.72l-.361 1.332 2.907-2.8h1.968l.192-.604H24.46c-.487-.923-.974-1.872-1.48-2.76l-.412 1.416-2.128-.008zM10.216 14h3.222c1.167.157 1.95 1.22 2.194 2.299.023.093.052.174.052.279.366-.75.784-1.446 1.463-1.968.453-.331.975-.518 1.55-.588h7.54l.661 1.145 1.219-1.145H32l-3.657 3.722 1.863 3.797h-3.465l-.8-1.394-1.463 1.394H17.93c-1.01-.053-1.933-.871-2.246-1.777a2.802 2.802 0 0 1-.226-.819c-.14.227-.21.436-.33.645-.541.975-1.55 1.933-2.84 1.863h-4.16L10.217 14z" fill="#007DC3"/></svg>