<svg width="36" height="36" fill="none" xmlns="http://www.w3.org/2000/svg"><path d="M18 0c2.837 0 5.52.656 7.907 1.825C31.884 4.753 36 10.895 36 18c0 9.942-8.058 18-18 18-9.94 0-18-8.057-18-18C0 8.06 8.06 0 18 0z" fill="#F2F4F7"/><g fill="#111"><path d="M10.617 16.672c0-.333-.225-.43-.724-.468v-.082h1.353v3.247h-.63v-2.697zm1.54.018c0-.385-.101-.419-.724-.486v-.082h1.448l2.272 2.634h.015v-2.634h.376v3.247h-.55l-2.447-2.832h-.014v2.832h-.376V16.69zm4.285-.062c0-.275-.102-.367-.732-.424v-.082h3.417l.036.588h-.224c-.073-.25-.066-.4-.666-.4h-.76c-.413 0-.442.058-.442.318v.95h.92c.6 0 .65-.173.709-.4h.166v.999H18.7c-.073-.28-.094-.41-.71-.41h-.919v1.602h-.63v-2.74zm3.562.044c0-.333-.224-.43-.724-.468v-.082h1.354v3.247h-.63v-2.697zm4.348 2.615c-.447.1-.904.146-1.361.135-1.361 0-2.1-.806-2.1-1.786 0-.878.442-1.568 1.926-1.568 1.093 0 1.484.381 1.535.71h-.71c-.036-.15-.159-.493-.868-.493-.768 0-1.173.488-1.173 1.226 0 .684.203 1.693 1.788 1.693.324-.007.647-.048.963-.12v.203zm.129-1.54c0-1.032.456-1.679 1.897-1.679 1.447 0 1.882.72 1.882 1.68 0 1.022-.45 1.674-1.882 1.674-1.492 0-1.897-.715-1.897-1.675zm3.07 0c0-.607-.051-1.49-1.173-1.49-1.108 0-1.188.825-1.188 1.49 0 .604.051 1.486 1.188 1.486 1.092 0 1.172-.825 1.172-1.486z"/><path d="M28.613 16.69c0-.385-.102-.419-.724-.486v-.082h1.448l2.273 2.634h.014v-2.634H32v3.247h-.55l-2.447-2.832h-.014v2.832h-.376V16.69z"/></g><g fill="#1E4171"><path d="M6.678 19.52v-1.905c-.024-.96-.04-1.274-1.063-1.352-.16.15-.311.308-.454.474-1.237 1.445-1.503 3.133-.713 3.696.487.347 1.325.23 2.186-.249.03-.22.045-.441.044-.663z"/><path d="M8.233 18.843c1.198-1.432 1.476-3.084.695-3.64a1.256 1.256 0 0 0-.78-.2.906.906 0 0 1-1.465.47 5.491 5.491 0 0 0-.92.656h2.47v2.714z"/></g></svg>