<svg height="36" viewBox="0 0 36 36" width="36" xmlns="http://www.w3.org/2000/svg"><mask id="a" fill="#fff"><path d="M0 0h28v8.703H0z" fill-rule="evenodd"/></mask><g fill="none" fill-rule="evenodd"><path d="M18 0c2.837 0 5.52.656 7.907 1.825C31.884 4.753 36 10.895 36 18c0 9.942-8.058 18-18 18-9.94 0-18-8.057-18-18C0 8.06 8.06 0 18 0z" fill="#f2f4f7" fill-rule="nonzero"/><path d="M28 .081A.08.08 0 0 0 27.919 0h-9.683a.08.08 0 0 0-.081.079v2.31c0 .046.035.08.082.08h1.049a.077.077 0 0 1 .074.072v3.507a.072.072 0 0 1-.059.06h-1.065a.08.08 0 0 0-.081.081v2.432a.08.08 0 0 0 .082.082h6.321a.08.08 0 0 0 .079-.082V6.189a.08.08 0 0 0-.079-.081h-1.521a.078.078 0 0 1-.06-.048v-.898c0-.041.034-.074.077-.078l1.467-.003a.08.08 0 0 0 .079-.08V3.604a.08.08 0 0 0-.079-.08l-1.466-.003a.077.077 0 0 1-.078-.07v-.904a.08.08 0 0 1 .075-.079h2.224a.08.08 0 0 1 .077.072v.572a.08.08 0 0 0 .08.081h2.486A.08.08 0 0 0 28 3.114V.08M17.26.081A.079.079 0 0 0 17.183 0H7.497a.08.08 0 0 0-.08.08v2.309c0 .046.035.08.08.08h1.048a.08.08 0 0 1 .077.072v3.507a.077.077 0 0 1-.061.06H7.497a.082.082 0 0 0-.08.081v2.432a.08.08 0 0 0 .08.082h6.321a.081.081 0 0 0 .08-.082V6.189a.081.081 0 0 0-.08-.081h-1.52a.076.076 0 0 1-.059-.048v-.898c0-.041.034-.074.076-.078l1.469-.003a.08.08 0 0 0 .079-.08V3.604a.08.08 0 0 0-.079-.08l-1.466-.003a.078.078 0 0 1-.079-.07v-.904c0-.043.033-.076.074-.079h2.228a.079.079 0 0 1 .074.072v.572a.08.08 0 0 0 .079.081h2.489c.044 0 .08-.037.08-.081L17.261.08M5.347 2.469h1.057a.078.078 0 0 0 .078-.079V.081A.079.079 0 0 0 6.405 0H.081A.08.08 0 0 0 0 .079v2.31c0 .046.035.08.081.08H1.13a.076.076 0 0 1 .075.072v3.507a.071.071 0 0 1-.058.06H.082a.08.08 0 0 0-.081.081v2.432a.08.08 0 0 0 .081.082h6.323a.08.08 0 0 0 .078-.082V6.189a.08.08 0 0 0-.078-.081H5.33a.077.077 0 0 1-.058-.048V2.548c0-.043.032-.076.075-.079" fill="#244ba6" mask="url(#a)" transform="translate(4 14)"/></g></svg>