<svg height="36" viewBox="0 0 36 36" width="36" xmlns="http://www.w3.org/2000/svg"><mask id="a" fill="#fff"><path d="M0 0h28v4.485H0z" fill-rule="evenodd"/></mask><g fill="none" fill-rule="evenodd"><path d="M18 0c2.837 0 5.52.656 7.907 1.825C31.884 4.753 36 10.895 36 18c0 9.942-8.058 18-18 18-9.94 0-18-8.057-18-18C0 8.06 8.06 0 18 0z" fill="#f2f4f7" fill-rule="nonzero"/><path d="M26.352 1.031c-.246 0-.27.023-.36.385h-.142l.105-.528h1.772l.062.093L26.192 3.2h1.137c.252 0 .292-.03.385-.402h.142l-.108.546h-1.93l-.05-.087 1.618-2.226zM24.5 2.953h.007V1.264c0-.242-.027-.262-.274-.262V.888h.686v.114c-.23 0-.254.021-.254.262v2.109h-.214l-1.373-2.195h-.007v1.789c0 .242.024.262.263.262v.115h-.686v-.115c.242 0 .265-.02.265-.262V1.262c0-.243-.02-.26-.268-.26V.888h.582zm-4.296-.387-.128.414c-.066.211-.054.249.15.249v.115h-.565v-.115c.122 0 .167-.031.219-.185L20.623.84h.168l.82 2.157c.073.197.117.232.24.232v.115h-.72v-.115c.21 0 .22-.05.157-.221l-.157-.442zm.444-1.317h-.012l-.382 1.173h.824zM18.44 2.953h.007V1.264c0-.242-.027-.262-.275-.262V.888h.687v.114c-.23 0-.255.021-.255.262v2.109h-.213l-1.374-2.195h-.007v1.789c0 .242.024.262.264.262v.115h-.686v-.115c.242 0 .264-.02.264-.262V1.262c0-.243-.02-.26-.267-.26V.888h.58zm-3.321-1.69c0-.239-.017-.261-.308-.261V.888h.927v.114c-.29 0-.307.022-.307.261v1.705c0 .24.017.261.309.261v.115h-.93v-.115c.292 0 .309-.021.309-.261zm-1.551 1.248h-.138c0-.318-.031-.345-.178-.345h-.567v.803c0 .242.015.26.349.26v.115h-.945v-.115c.263 0 .284-.021.284-.261V1.262c0-.239-.023-.26-.284-.26V.888h1.769l.119.54h-.141c-.092-.36-.13-.397-.315-.397h-.71c-.116 0-.126.021-.126.167v.825h.569c.14 0 .176-.046.176-.339h.138zm-3.49.88c-.335 0-.61-.099-.801-.315-.177-.201-.286-.513-.286-.961s.116-.784.328-.997C9.52.92 9.79.84 10.08.84s.56.08.76.278c.213.213.33.549.33.997s-.11.76-.286.961c-.192.216-.466.315-.804.315zM10.075.975a.676.676 0 0 0-.535.238c-.14.172-.227.45-.227.902 0 .381.076.694.226.895a.703.703 0 0 0 .539.247.702.702 0 0 0 .538-.247c.15-.201.226-.514.226-.895 0-.452-.087-.73-.226-.902a.68.68 0 0 0-.537-.238zM8.098.888v.114c-.242 0-.257.023-.257.265v1.699c0 .241.019.263.258.263v.115h-.813v-.115c.23 0 .243-.023.243-.263V1.259H7.52l-.77 2.102h-.115l-.797-2.107h-.007v1.712c0 .24.015.263.236.263v.115h-.646v-.115c.237 0 .252-.023.252-.263V1.253c0-.231-.015-.251-.253-.251V.888h.57l.769 2.015h.009L7.507.888zm-3.51 0v.114c-.241 0-.257.023-.257.265v1.699c0 .241.019.263.259.263v.115h-.813v-.115c.23 0 .243-.023.243-.263V1.259h-.008l-.77 2.102h-.115L2.33 1.254h-.007v1.712c0 .24.015.263.236.263v.115h-.647v-.115c.237 0 .253-.023.253-.263V1.253c0-.231-.016-.251-.254-.251V.888h.57l.769 2.015h.009L3.998.888zm-4.134.375c0-.239-.018-.261-.31-.261V.888h.929v.114c-.291 0-.308.022-.308.261v1.705c0 .24.017.261.309.261v.115h-.93v-.115c.292 0 .31-.021.31-.261zM0 4.485h28v-.068H0zM0 .068h28V0H0z" fill="#001451" mask="url(#a)" transform="translate(4 16)"/></g></svg>