<svg width="36" height="36" fill="none" xmlns="http://www.w3.org/2000/svg"><path d="M18 0c2.837 0 5.52.656 7.907 1.825C31.884 4.753 36 10.895 36 18c0 9.942-8.058 18-18 18-9.94 0-18-8.057-18-18C0 8.06 8.06 0 18 0z" fill="#F2F4F7"/><path d="M30.764 15.162c-.095.33-.142.378-.19.378-.047 0-.094-.095-.094-.142-.094-.142-.189-.047-.189-.047-.094.047.047.472.047 1.04.19 1.322-.472 3.496-.614 4.063-.236.52-.567.567-.756 1.37-.189.19-.992 1.606-1.417 2.032-.047.141-1.134 1.7-1.607 2.22-.472.52-2.315 2.032-2.598 2.127-.331.236-1.56.52-2.268.945-.378.33-1.796.425-2.221.567-.425.189-.803.094-1.229.189-.236.189-2.551.236-2.74.283-.33.095-3.355-.236-3.638-.52-.095-.094-.378-.094-.331-.33.047-.19.709.142.992 0 .19-.095.142 0 .284-.095.047 0-.095-.047-.236-.094-.19.047-.237-.142-.473-.142-.33-.047-.709-.236-.992-.378-.473-.189-1.418-.756-1.701-.945-.33-.142-1.04-.473-1.276-.709-.283-.236-1.04-1.606-1.134-1.843-.378-.425-.472-1.512-.52-1.842 0-.095-.047-.19-.047-.284 0-.141-.094-.567-.142-.992-.094-.378-.236-.992-.283-1.04-.047-.047-.047 0-.142-.047-.189-.047-.189-.425-.236-.52-.047-.66.047-1.322.094-1.7.048-.331.473-2.174.71-2.74.14-.379.424-1.466.802-2.269.331-.661.945-1.7 1.323-2.031.331-.331 2.08-1.938 3.213-3.26.567-.615 2.41-1.56 3.97-2.221 1.511-.662 2.125-.71 2.314-.662.095 0 1.087-.047 1.37-.142.237-.047 1.654-.378 1.796-.378 0 0 .756.048.898 0 .283-.047 2.646.426 2.882.473.425.142 2.315.898 2.504.992.378.236.945.898 1.37 1.323.473.425 1.607 2.315 1.796 2.74.189.473.756 1.607.945 3.213-.189.237-.142 1.04-.236 1.418zM12.809 10.2l-.567.094-.047.047-.425.284c-.331.189-.615.378-.804.756a4.79 4.79 0 0 1-.33.709c-.142.33-.331.614-.426.992 0 .378.236.661.52.898.803.425 1.937.094 2.646-.426l.284.142a.761.761 0 0 1 .33.19c0 .613-.472.991-.945 1.417-.378.283-.756.614-.897 1.04v.094c.047.945.614 1.795 1.511 2.315.615.52.993 1.37.993 2.268 0 .142 0 .33-.047.52a2.057 2.057 0 0 0-.284.33c-.189.237-.33.426-.567.52-.33-.047-.567-.425-.756-.709l-.047-.094c-.426-.425-.898-.236-1.323-.095l-.378.095c-.52.283-.709.898-.898 1.417l-.047.237c-.19.425 0 .708.142.944.094.19.236.331.189.52v.095l.094.047c.284.095.52.236.756.378.425.284.898.52 1.465.425.661.142 1.323.095 1.89-.236 1.228-.614 2.976-1.607 3.638-3.307.283-.52.236-1.134.283-1.701l.048-.473v-.142c0-.472-.048-.85-.284-1.18-.142-.237-.283-.473-.33-.71-.142-.283-.426-.472-.662-.614-.236-.142-.425-.283-.567-.52 0-.189-.047-.283-.047-.425 0-.189.094-.425.236-.661a3.33 3.33 0 0 0 .236-.615l.047-.094c.095-.236.19-.567.378-.662.378.142.71.284.993.473.33.189.661.189 1.04.33l1.606.19c2.173 0 3.496-.52 4.914-1.56l.047-.047v-.189c-.52-1.086-1.56-1.559-2.599-1.984l-.614-.236c-.803-.237-1.701-.048-2.504.094l-.615.095c-.283.094-.614.188-.897.283-.378.142-.756.284-1.182.33-.472-.094-.756-.472-.992-.897-.142-.189-.236-.378-.378-.567-1.04-.945-2.598-.662-3.827-.425zm10.537 5.622c-.615.048-1.087 0-1.749.142-.236.047-.425.047-.708.047-.567 0-1.182.048-1.701.378a1.291 1.291 0 0 0-.19.662c0 .378.19.709.331 1.04.095.236.237.472.284.66.047.851.094 1.135.094 1.844 0 .378-.236 1.134-.236 1.559v1.228c0 .662 0 1.276.425 1.843.426.803 1.37 1.087 2.127 1.087 1.7-.378 2.646-1.087 2.882-2.221v-.142a.653.653 0 0 0-.284-.52c-.094-.283-.378-.377-.614-.425-.142-.047-.236-.094-.33-.141-.142-.284-.19-.567-.19-.898v-.378c0-.047.898-3.638.898-3.638.047-.19.142-.378.236-.615.142-.236.284-.52.284-.85v-.236c0-.237-.236-.284-.425-.331h-.095c-.142 0-.283-.047-.425-.095-.236 0-.425-.047-.614 0z" fill="#0166CE"/><path d="M11.77 11.287c-.615.71-.851 1.418-.71 2.08.048.283.379.52.662.472.426.047.756-.142 1.087-.33.236-.143.425-.237.662-.284.141.094.283.141.425.189.378.094.567.189.614.52a.6.6 0 0 1 .047.283c0 .472-.378.803-.803 1.134-.425.33-.85.661-.945 1.228-.047.095-.047.19-.047.284 0 .614.52 1.04.945 1.417.189.19.425.331.567.52.425.52.85 1.323.85 2.174 0 .283-.047.614-.189.897-.283.567-.898.756-1.37.803-.284 0-.425-.236-.614-.425a1.438 1.438 0 0 0-.378-.378c-.473-.141-.992 0-1.37.331-.237.425-.378.803-.378 1.181 0 .284.094.567.283.756.425.662 1.181 1.04 2.032.992.141 0 .283-.047.425-.047.189-.047.33-.047.473-.047h.094c1.181-.19 2.22-.756 3.118-1.654.662-.85 1.37-1.937 1.37-3.165 0-.378-.047-.756-.188-1.134-.142-.71-.662-1.134-1.182-1.56-.236-.189-.425-.378-.614-.567a.908.908 0 0 1-.189-.567c0-.378.236-.803.52-1.18.094-.143.189-.332.283-.473.142-.284.237-.615.237-.898 0-.756-.378-1.465-.52-1.748-.614-1.04-1.795-1.512-2.41-1.701-1.276.047-2.173.33-2.787.897m10.583 4.962c-.378.047-.708.094-1.086.047h-.095c-.189.047-.425.047-.614.047-.236 0-.52 0-.756.095h-.047v.047c-.331.567-.095 1.181.094 1.7.095.237.19.473.236.71.19.85.095 1.748-.047 2.598l-.047.331v.047c-.095 1.087-.236 2.457.425 3.355.662.567 1.796.661 2.552.283.756-.094 1.37-.85 1.512-1.464v-.095c-.142-.378-.52-.33-.756-.283h-.331c-.095 0-.142-.095-.19-.284-.046-.047-.046-.142-.094-.189-.047-.33-.047-.661-.047-.945 0-.992.236-1.984.473-2.93l.141-.66c.048-.237.142-.426.284-.662.142-.284.33-.567.33-.898 0-.189-.094-.425-.283-.661-.52-.378-1.087-.284-1.654-.19" fill="#000"/><path d="m12.053 11.665-.047.048c-.236.425-.473.897-.19 1.464l.048.095h.095c.33.047.566-.142.803-.284.141-.094.236-.189.378-.236.567-.189 1.134 0 1.7.567.095.19.19.473.19.756 0 .19 0 .33-.095.473-.047.567-.52.945-.945 1.37a3.769 3.769 0 0 0-.614.614l-.047.047v.142c0 .236.047.473.236.662 1.134.945 2.173 1.984 2.22 3.449-.047 1.087-.85 2.173-1.89 2.551-.803 0-1.322-.236-1.559-.756v-.047h-.047c-.141-.095-.33-.142-.472-.047a.57.57 0 0 0-.331.33c-.047.142-.095.237-.095.378 0 .331.19.615.284.71.425.33.898.613 1.512.613.992-.047 1.89-.378 2.93-1.18l.33-.379c.662-.756 1.323-1.559 1.323-2.598v-.19l-.047-.425c-.047-.52-.095-1.04-.473-1.465l-.141-.094c-.52-.33-1.087-.661-1.276-1.276-.095-.189-.095-.33-.095-.52 0-.52.378-1.039.71-1.511l.094-.142c.141-.236.189-.473.189-.709 0-.52-.237-1.04-.426-1.417-.141-.378-.472-.898-.945-1.04-.945-.661-2.362-.614-3.307.047m10.111 5.151c-.283.047-.567.047-.803.047h-.284c-.33 0-.614 0-.85.236l-.047.047s.52 1.512.567 1.512c.047.331.047.615.047.945 0 .567-.047 1.182-.142 1.749-.047.52-.141 1.04-.141 1.559v.472c0 .567 0 1.229.661 1.607.709.236 1.56.047 2.41-.473l.094-.047v-.33l-.236-.048c-.33-.047-.662-.142-.756-.425a4.569 4.569 0 0 1-.189-1.37c0-.85.189-1.654.33-2.505 0 0 .143-.85.19-.897l.709-2.032-.142-.047c-.425-.048-.945 0-1.418 0" fill="red"/><path d="M23.204 12.658v-.047c-.567-.142-1.181-.237-1.796-.19l-.425.048c-.142 0-.284.047-.425.094v.047c-.047.804.094 1.276.094 1.276v.047a5.86 5.86 0 0 0 2.41-.094v-.047c.095 0 .189-.52.142-1.134" fill="#8EC9FF"/><path d="M25.613 13.319c-.047-.189-.094-.425-.33-.567-.662-.378-1.323-.803-2.127-1.087-.944-.283-1.842 0-2.74.237-.378.094-.803.236-1.228.283h-.048l-.85.52a.667.667 0 0 1-.19.142c-.14.047-.283.141-.283.283-.047.095 0 .189.095.33 1.7 1.324 4.11 1.654 6.19.851h-.048c.142-.047.284-.142.426-.236.189-.189.33-.236.52-.095l.047.048.047-.048c.378 0 .52-.283.52-.661zm-1.275.047-.047.048a5.54 5.54 0 0 1-1.134.425 5.894 5.894 0 0 1-2.41.094c-.19-.047-.33-.047-.52-.094l-.236-.095a3.411 3.411 0 0 1-.945-.425l-.142-.095.142-.094c.425-.378.992-.52 1.56-.614.14-.047.283-.047.424-.047l.426-.048c.614-.047 1.228 0 1.795.19a4.01 4.01 0 0 1 1.04.425.291.291 0 0 1 .047.33" fill="#000"/></svg>