<svg height="36" viewBox="0 0 36 36" width="36" xmlns="http://www.w3.org/2000/svg"><mask id="a" fill="#fff"><path d="M0 0h24.633v6.336H0z" fill-rule="evenodd"/></mask><mask id="b" fill="#fff"><path d="M0 0h1v1H0z" fill-rule="evenodd"/></mask><g fill="none" fill-rule="evenodd"><path d="M18 0c2.837 0 5.52.656 7.907 1.825C31.884 4.753 36 10.895 36 18c0 9.942-8.058 18-18 18-9.94 0-18-8.057-18-18C0 8.06 8.06 0 18 0z" fill="#f2f4f7" fill-rule="nonzero"/><path d="M4.138 21.236h.736v-3.903h-.736z" fill="#ffb441"/><path d="M21.864 3.268c.274-.212.549-.45 1.11-.45.636 0 .935.426.935.824v.162h-.548c-1.185 0-2.146.35-2.146 1.348 0 .76.624 1.172 1.347 1.172.599 0 1.035-.187 1.372-.7h.013c0 .2.012.4.024.6h.662a5.946 5.946 0 0 1-.038-.711V3.518c0-.674-.474-1.297-1.634-1.297-.548 0-1.135.187-1.546.573zm2.058 1.085v.25c0 .523-.287 1.135-1.11 1.135-.511 0-.836-.188-.836-.636 0-.624.861-.75 1.559-.75zm-6.935-2.02h.736v.599h.013c.187-.412.686-.7 1.284-.7.761 0 1.422.45 1.422 1.498v2.518h-.748V3.942c0-.736-.424-1.01-.886-1.01-.624 0-1.085.398-1.085 1.297v2.008h-.748V2.333zm-1.833 3.904h.749V2.333h-.749zM8.232 2.333h.698v.61h.013c.075-.236.548-.71 1.247-.71.573 0 .973.249 1.222.723a1.432 1.432 0 0 1 1.235-.723c1.197 0 1.484.86 1.484 1.733v2.27h-.736v-2.17c0-.6-.124-1.134-.848-1.134-.723 0-.997.485-.997 1.185v2.13h-.749V4.205c0-.736-.112-1.272-.823-1.272-.536 0-1.01.398-1.01 1.284v2.032h-.724zm-.948 3.904h-.736v-.6h-.013c-.187.412-.685.699-1.284.699-.761 0-1.422-.45-1.422-1.497v-2.52h.748v2.308c0 .737.425 1.01.886 1.01.624 0 1.085-.398 1.085-1.297V2.333h.748v3.904zM2.021 0h.748v6.237h-.736zM0 0h.749v6.237H.013z" fill="#616161" mask="url(#a)" transform="translate(6.108 15)"/><path d="M.5.001C.224.001 0 .226 0 .5s.225.499.5.499a.499.499 0 0 0 0-.998" fill="#ffb441" mask="url(#b)" transform="translate(4 15.46)"/><path d="M31.015 17.158c0-.237.2-.437.437-.437.236 0 .436.2.436.437s-.2.437-.436.437a.443.443 0 0 1-.437-.437zm-.087 0c0 .299.237.536.536.536.3 0 .536-.237.536-.536s-.236-.536-.536-.536a.532.532 0 0 0-.536.536zm.436-.225h.088c.074 0 .149 0 .149.088 0 .075-.075.087-.149.087h-.088zm-.112.524h.112v-.25h.088l.149.25h.112l-.162-.261c.088-.013.15-.063.15-.163 0-.112-.075-.187-.212-.187h-.237z" fill="#616161"/></g></svg>