<svg height="36" viewBox="0 0 36 36" width="36" xmlns="http://www.w3.org/2000/svg"><mask id="a" fill="#fff"><path d="M0 0h22.019v5.87H0z" fill-rule="evenodd"/></mask><mask id="b" fill="#fff"><path d="M0 0h10.244v9.472H0z" fill-rule="evenodd"/></mask><g fill="none" fill-rule="evenodd"><path d="M18 0c2.837 0 5.52.656 7.907 1.825C31.884 4.753 36 10.895 36 18c0 9.942-8.058 18-18 18-9.94 0-18-8.057-18-18C0 8.06 8.06 0 18 0z" fill="#f2f4f7" fill-rule="nonzero"/><path d="M1.272 3.125a.65.65 0 1 1 0-.001zM20.307.018h.26v2.345h1.364v.242h-1.624zm-1.45.363-.517 1.358h1.033zm-.848 2.224h-.257L18.746 0h.232l.994 2.605h-.267l-.239-.627h-1.219zm-.895 0h.264V.017h-.264zM15.67 1.373c.364 0 .613-.047.613-.557s-.26-.559-.619-.559h-.632v1.116zm.984 1.231h-.306l-.635-.997h-.68v.997h-.26V.017h.897c.596 0 .874.21.874.792 0 .469-.196.694-.546.765zm-3.852 0h1.518v-.241h-1.258V1.357h.962v-.242h-.96V.259h1.257V.018h-1.519zm-1.287-1.2c.363 0 .612-.061.612-.571 0-.509-.26-.577-.62-.577h-.666v1.147zM10.58.018h.934c.595 0 .873.228.873.808s-.289.816-.88.816h-.668v.962h-.26zM8.911 1.847 9.754.532v2.073h.261V.017h-.228L8.804 1.5 7.825.017h-.228v2.587h.246V.532l.844 1.314zm-2.178.757h.263V.017h-.263zm14.25 3.266c-.399 0-.795-.068-.918-.104l.083-.45c.108.025.587.098.838.098.374 0 .49-.052.49-.325 0-.244-.077-.262-.508-.348-.719-.144-.895-.255-.895-.827 0-.551.352-.738.952-.738.32 0 .763.054.878.09l-.083.446a5.597 5.597 0 0 0-.798-.075c-.306 0-.414.068-.414.284 0 .248.083.277.497.359.691.137.914.223.914.82 0 .59-.33.77-1.037.77zm-2.559-.465c.46 0 .636-.189.636-.794v-.172c0-.608-.176-.798-.636-.798h-.454v1.764zm-.983-2.196h.986c.78 0 1.19.183 1.19 1.316s-.41 1.317-1.19 1.317h-.986zm-2.795 2.633h.507V4.054l1.23 1.787h.453V3.208h-.508v1.676l-1.157-1.676h-.525zM12.957 3.88s-.385 1.052-.389 1.052h.773zm-.723 1.961h-.529l1.022-2.65h.485l1.022 2.65h-.558l-.176-.474h-1.09zM10.362 4.56c.284 0 .442-.049.442-.452 0-.406-.176-.464-.449-.464h-.518v.916zm1.143 1.281h-.603l-.565-.838h-.5v.838h-.525V3.208h1.05c.651 0 .972.155.972.893 0 .514-.164.712-.468.788zm-3.592-.44c.202 0 .36-.052.36-.34s-.158-.359-.36-.359h-.659v.7zm-.068-1.114c.201 0 .36-.032.36-.316 0-.287-.163-.33-.36-.33h-.59v.646zM6.733 3.208h1.112c.575 0 .891.123.891.677 0 .367-.14.525-.388.586.26.047.457.223.457.633 0 .54-.273.737-.892.737h-1.18z" fill="#4b3c32" mask="url(#a)" transform="translate(9.98 15.08)"/><path d="M7.253 4.102c.296.203.476.536.482.895.004.05.038.093.086.108l1.444.442s.06.01.09.01a.352.352 0 0 0 .333-.248v-.004a.35.35 0 0 0-.218-.428l-1.15-.354 1.48-.791V3.73a.375.375 0 0 0 .158-.507l-.003-.005a.378.378 0 0 0-.512-.154l-1.46.778.341-1.114.001-.005a.351.351 0 0 0-.67-.205L7.21 3.97a.121.121 0 0 0 .042.132m-4.369-.503 2.713.827a.124.124 0 0 0 .124-.038c.2-.29.524-.467.874-.478h.001a.125.125 0 0 0 .108-.083l.824-2.702h-.003A.536.536 0 0 0 7.16.479L7.15.476a.534.534 0 0 0-.648.336l-.54 1.767L4.741.306a.58.58 0 1 0-1.023.549l1.194 2.239-1.716-.524s-.09-.016-.134-.016a.539.539 0 0 0-.18 1.046m7.34 3.287a.474.474 0 0 0-.294-.585V6.3l-2.266-.694a.124.124 0 0 0-.125.04 1.11 1.11 0 0 1-.9.475.125.125 0 0 0-.11.085l-.695 2.27h.002a.474.474 0 0 0 .32.57h.005c.24.07.493-.058.58-.292h.001l.475-1.558 1.071 2.005h.002a.51.51 0 0 0 .692.209h.001a.511.511 0 0 0 .208-.693L8.14 6.745l1.511.462a.474.474 0 0 0 .571-.32m-4.234-.972a1.106 1.106 0 0 1-.463-.884.12.12 0 0 0-.075-.1l-3.005-.92s-.09-.014-.138-.014a.58.58 0 0 0-.2 1.126l1.906.585L.305 7.68h.001-.002a.628.628 0 0 0 .594 1.106l3.67-1.95L4 8.69a.585.585 0 0 0 .394.702l.006.002a.585.585 0 0 0 .713-.363l.916-2.994a.125.125 0 0 0-.04-.122" fill="#f07300" mask="url(#b)" transform="translate(4 13)"/></g></svg>