<svg width="36" height="36" fill="none" xmlns="http://www.w3.org/2000/svg"><path d="M18 0c2.837 0 5.52.656 7.907 1.825C31.884 4.753 36 10.895 36 18c0 9.942-8.058 18-18 18-9.94 0-18-8.057-18-18C0 8.06 8.06 0 18 0z" fill="#F2F4F7"/><path d="M4.364 21.608a1.21 1.21 0 0 1-.355-.854V17.62a.043.043 0 0 1 .079-.025 2.528 2.528 0 0 0 3.848.33 2.139 2.139 0 0 1 3.508.736.043.043 0 0 0 .079 0 2.14 2.14 0 0 1 3.403-.834l.056.052a1.986 1.986 0 0 1 .614 1.45v2.998a.045.045 0 0 1-.043.043.043.043 0 0 1-.04-.027 2.18 2.18 0 0 0-.583-.832 2.145 2.145 0 0 0-2.811 0 2.12 2.12 0 0 0-.596.84.043.043 0 0 1-.063.019.043.043 0 0 1-.016-.018 2.141 2.141 0 0 0-3.508-.736 2.524 2.524 0 0 1-3.572-.009zM6.15 14a2.14 2.14 0 1 0-.018 4.281A2.14 2.14 0 0 0 6.15 14z" fill="#039BE5"/><path d="M17.606 17.392h1.006v4.893h-1.006v-4.893zm10.864 0h1.281c1.316 0 2.249.542 2.249 2.433 0 1.891-.945 2.46-2.249 2.46h-1.282v-4.893zm1.373 4.048c.848 0 1.145-.437 1.145-1.62 0-1.144-.297-1.587-1.15-1.587h-.364v3.211l.37-.004zm-3.681.106c-.59 0-.873-.603-.875-1.71-.002-1.106.285-1.709.875-1.709.422 0 .636.263.764.9h.974c-.178-.985-.64-1.732-1.745-1.732-1.104 0-1.878.774-1.878 2.537s.753 2.539 1.878 2.539c1.124 0 1.574-.747 1.745-1.732h-.974c-.128.641-.342.907-.764.907zm-5.828-4.154h-.937v4.893h.879V18.82h.014c.079.28.173.555.28.825l.58 1.48h.676l.582-1.453a7.2 7.2 0 0 0 .281-.814h.014v3.427h.951v-4.893h-1.217l-.886 2.379-.958-2.38h-.259z" fill="#54565B"/></svg>