<svg width="36" height="36" fill="none" xmlns="http://www.w3.org/2000/svg"><path d="M18 0c2.837 0 5.52.656 7.907 1.825C31.884 4.753 36 10.895 36 18c0 9.942-8.058 18-18 18-9.94 0-18-8.057-18-18C0 8.06 8.06 0 18 0z" fill="#F2F4F7"/><path d="M26.528 12.957a16.033 16.033 0 0 0-2.042-.995c.072-.25.145-.5.223-.749a10.9 10.9 0 0 0-1.307.359A15.914 15.914 0 0 0 20.978 11c.426.332.839.684 1.236 1.056-.44.212-.863.45-1.267.714a16.277 16.277 0 0 1 1.84-.15c.42.43.82.884 1.199 1.36.095-.446.2-.889.313-1.329.753.052 1.494.153 2.23.306z" fill="#83C8EF"/><path d="M29.464 16.249c.52.157 1.033.338 1.536.542a15.988 15.988 0 0 0-1.707-1.813c-.087-.45-.202-.89-.342-1.318l-.008-.003c-.177.192-.357.382-.54.57a16.274 16.274 0 0 0-1.875-1.27c.49.552.956 1.147 1.375 1.774-.325.32-.658.635-.997.941.601.091 1.196.212 1.784.362a16.616 16.616 0 0 1 .792 1.67 11.097 11.097 0 0 0-.018-1.455z" fill="#1C63B7"/><path d="M25.89 16.923a9.121 9.121 0 0 0-.137-.258 31.21 31.21 0 0 0 1.153-.993 18.122 18.122 0 0 0-1.841-.18 17.82 17.82 0 0 0-1.08-1.512c-.105.496-.199.995-.282 1.499-.673.02-1.347.077-2.02.174.636.27 1.258.57 1.864.893-.08.63-.145 1.263-.19 1.902a32.727 32.727 0 0 0 1.551-1.113 23.35 23.35 0 0 1 1.708 1.172 18.446 18.446 0 0 0-.726-1.584z" fill="#1C8CD5"/><path d="M28.393 22.114a5.162 5.162 0 0 0-.642-.04c-.269 0-.468.048-.6.144a.47.47 0 0 0-.195.402c0 .166.054.295.164.39.11.092.304.14.582.14a3.037 3.037 0 0 0 .69-.073v-.963zm.939 1.51a6.306 6.306 0 0 1-.683.18 4.776 4.776 0 0 1-1.003.092c-.29 0-.537-.03-.742-.088a1.399 1.399 0 0 1-.503-.245.906.906 0 0 1-.28-.381 1.364 1.364 0 0 1-.09-.506c0-.38.138-.681.41-.903.274-.222.71-.334 1.31-.334a5.582 5.582 0 0 1 .642.04v-.168a.744.744 0 0 0-.069-.34.52.52 0 0 0-.18-.206.739.739 0 0 0-.27-.1 1.882 1.882 0 0 0-.333-.028c-.24 0-.472.028-.694.084a5.444 5.444 0 0 0-.526.157v-.787a2.995 2.995 0 0 1 .574-.177 4.8 4.8 0 0 1 .402-.068c.142-.019.287-.028.437-.028.577 0 .99.134 1.233.4.243.27.365.646.365 1.133v2.273zm-5.26-2.9a7.7 7.7 0 0 0-.274-.035 3.384 3.384 0 0 0-.806.008c-.137.018-.25.042-.342.068V23.8h-.939v-3.701a4.46 4.46 0 0 1 1.606-.281 4.299 4.299 0 0 1 .755.064v.843zm-4.734-.16c-.274 0-.498.083-.671.25-.174.166-.274.395-.301.69h1.862c0-.273-.073-.497-.22-.674-.148-.177-.371-.265-.67-.265zm1.557 3.019a14.16 14.16 0 0 1-.273.116 2.697 2.697 0 0 1-.723.185 3.865 3.865 0 0 1-.49.028c-.626 0-1.117-.174-1.473-.522-.356-.348-.534-.845-.534-1.493 0-.32.047-.61.14-.867a1.79 1.79 0 0 1 .403-.65c.173-.176.384-.313.63-.41.246-.096.522-.144.826-.144.311 0 .577.05.8.148a1.52 1.52 0 0 1 .866 1.004c.068.228.1.467.1.718a5.645 5.645 0 0 1-.015.426h-2.794c.005.129.029.252.072.37a.842.842 0 0 0 .209.317.994.994 0 0 0 .377.22c.155.054.346.08.57.08.295 0 .554-.037.779-.112.225-.074.404-.144.538-.209l-.008.795zm-5.999-2.866a2.409 2.409 0 0 0-.778.137v2.055c.09.043.196.076.317.1.12.024.263.036.43.036.342 0 .615-.1.818-.3.204-.201.305-.5.305-.896 0-.358-.1-.637-.3-.835-.202-.198-.466-.297-.792-.297zm-1.718-.498c.214-.096.471-.187.771-.273.3-.085.643-.128 1.028-.128.337 0 .63.055.879.164.249.11.455.257.618.438.163.183.285.392.365.63.08.238.12.486.12.742 0 .338-.05.638-.152.9a1.883 1.883 0 0 1-.421.662c-.18.18-.388.317-.627.414a2.021 2.021 0 0 1-.766.144 2.187 2.187 0 0 1-.875-.16v1.878h-.94v-5.411zm-6.495-.144a8.117 8.117 0 0 1 .759-.169 6.58 6.58 0 0 1 .477-.064 5.19 5.19 0 0 1 .498-.024c.257 0 .497.026.72.076.22.05.396.136.525.253.16-.075.35-.149.57-.22.22-.073.481-.11.786-.11.498 0 .86.115 1.084.342.225.228.338.561.338 1V23.8h-.94v-2.465c0-.225-.055-.389-.164-.494-.11-.104-.302-.156-.574-.156a2.098 2.098 0 0 0-.779.144c.016.065.028.141.036.23.008.088.012.175.012.26V23.8h-.94v-2.44c0-.258-.057-.434-.172-.53-.115-.096-.31-.145-.582-.145a3.046 3.046 0 0 0-.715.088V23.8h-.939v-3.725zm23.36-2.029h.94V23.8h-.94v-5.754zm-5.561 1.876h.939V23.8h-.94v-3.877zM5 18.046h.939V23.8H5v-5.754z" fill="#1C63B7"/></svg>