<svg width="36" height="36" fill="none" xmlns="http://www.w3.org/2000/svg"><path d="M18 0c2.837 0 5.52.656 7.907 1.825C31.884 4.753 36 10.895 36 18c0 9.942-8.058 18-18 18-9.94 0-18-8.057-18-18C0 8.06 8.06 0 18 0z" fill="#F2F4F7"/><path d="M9.97 15H6.014a.136.136 0 0 0-.096.04L4.05 16.903l-.026.026a.082.082 0 0 0 .058.14h3.814c.075 0 .135.061.135.136v3.805c0 .073.09.11.14.058l.813-.81 1.082-1.08a.136.136 0 0 0 .04-.095v-3.948A.135.135 0 0 0 9.97 15zm21.302 4.051H32V15.23h-.728v3.821zm-1.805-.443c-.258 0-.429-.091-.429-.348 0-.256.188-.342.568-.428.182-.042.38-.085.508-.16v.412c0 .267-.23.524-.647.524zm.728.443h.701v-.026c-.064-.049-.096-.171-.096-.38V17.25c0-.641-.332-1.01-1.156-1.01-.804 0-1.163.422-1.184.903h.648c.021-.262.187-.385.53-.385.305 0 .46.128.46.326 0 .209-.208.246-.663.31-.611.086-1.104.278-1.104.882 0 .545.396.84.959.84.471 0 .67-.161.809-.37h.01c.016.123.043.252.086.305zm-2.93-3.17h.729v-.652h-.729v.653zm0 3.17h.729V16.31h-.729v2.742zm-2.228-2.742h-.712v2.742h.728v-1.555c0-.374.236-.63.557-.63.306 0 .477.207.477.502v1.683h.728v-1.79c0-.6-.38-1.027-.948-1.027-.375 0-.626.155-.814.45h-.016v-.375zm-2.485 2.267c-.45 0-.696-.359-.696-.893 0-.535.246-.898.696-.898.445 0 .696.363.696.898 0 .534-.251.893-.696.893zm0 .555c.852 0 1.435-.63 1.435-1.448s-.583-1.449-1.435-1.449c-.851 0-1.435.631-1.435 1.449 0 .818.584 1.448 1.435 1.448zm-2.512-.08h.729V15.23h-.729v3.821zm-1.783-.475c-.45 0-.697-.359-.697-.893 0-.535.247-.898.697-.898.444 0 .696.363.696.898 0 .534-.252.893-.696.893zm0 .555c.851 0 1.435-.63 1.435-1.448s-.584-1.449-1.435-1.449c-.852 0-1.436.631-1.436 1.449 0 .818.584 1.448 1.436 1.448zm-3.257 0c.53 0 .9-.16 1.162-.406a1.35 1.35 0 0 0 .424-.903h-.76c-.05.4-.37.673-.826.673-.643 0-1.05-.56-1.05-1.341 0-.76.338-1.347 1.045-1.347.45 0 .739.251.809.636h.77c-.08-.727-.637-1.288-1.58-1.288-1.13 0-1.836.866-1.836 1.999 0 1.149.766 1.977 1.842 1.977z" fill="#00AAB3"/></svg>