<svg width="36" height="36" fill="none" xmlns="http://www.w3.org/2000/svg"><path d="M18 0c2.837 0 5.52.656 7.907 1.825C31.884 4.753 36 10.895 36 18c0 9.942-8.058 18-18 18-9.94 0-18-8.057-18-18C0 8.06 8.06 0 18 0z" fill="#F2F4F7"/><g fill="#2F63B6"><path d="M17.79 19.34c-.511.236-.772.295-1.185.295-.58 0-1.143-.446-1.143-1.146 0-.729.534-1.167 1.177-1.167.353 0 .678.062 1.008.237.033.02.06.025.06-.014v-.77a4.11 4.11 0 0 0-1.183-.179c-1.256 0-2.132.814-2.132 1.894 0 1.078.863 1.89 2.168 1.89.625 0 1.113-.137 1.287-.22v-.8c0-.039-.034-.039-.056-.02m8.267-1.255c.009-.236.239-.82.825-.82.691 0 .823.607.823.82h-1.648zm2.446 1.2a2.801 2.801 0 0 1-1.444.38c-.776 0-1.027-.54-1.027-.856h2.687v-.244c0-1.133-.681-1.966-1.837-1.966-1.206 0-1.92.812-1.92 1.89 0 1.096.863 1.893 2.052 1.893.816 0 1.346-.222 1.557-.304v-.771c0-.04-.043-.04-.068-.021M7.72 20.26h1.018v-5.251H7.72v5.25z"/><path d="M24.398 19.516c-.336.153-.743.17-.9.053-.105-.078-.153-.214-.153-.405v-1.691h1.095v-.715h-1.095v-1.283c0-.027-.027-.036-.05-.029l-1.008.499a8.86 8.86 0 0 1-2.354 8.328 8.868 8.868 0 0 1-12.54-12.54 8.857 8.857 0 0 1 8.339-2.351l.017-.065a9.33 9.33 0 0 0-9.016 2.416 9.335 9.335 0 1 0 15.779 8.295c.03.037.065.071.103.103.331.276 1.124.332 1.83.144v-.746c0-.022-.03-.024-.047-.012"/><path d="M29.267 11.734a9.334 9.334 0 0 0-15.863 5.458c-.229-.388-.666-.6-1.303-.6-.465 0-.966.263-1.265.534v-.368h-.93v3.501h1.018v-2.35c.158-.17.56-.553.978-.553.416 0 .674.289.674.589v2.314h1.041a8.852 8.852 0 0 1 2.45-7.865 8.867 8.867 0 0 1 12.54 0 8.865 8.865 0 0 1-.001 12.54 8.856 8.856 0 0 1-8.338 2.351l-.017.066a9.33 9.33 0 0 0 9.016-2.417 9.336 9.336 0 0 0 0-13.2"/><path d="m21.086 16.758-.964 1.885-.942-1.885h-1.034l1.48 2.855-1.336 2.616h1.016l2.795-5.47h-1.015"/></g></svg>