<svg height="36" viewBox="0 0 36 36" width="36" xmlns="http://www.w3.org/2000/svg"><mask id="a" fill="#fff"><path d="M0 0h16.139v5.46H0z" fill-rule="evenodd"/></mask><mask id="b" fill="#fff"><path d="M0 0h10.795v6.964H0z" fill-rule="evenodd"/></mask><mask id="c" fill="#fff"><path d="M0 0h10.795v6.97H0z" fill-rule="evenodd"/></mask><mask id="d" fill="#fff"><path d="M0 .016h3.617v.968H0z" fill-rule="evenodd"/></mask><g fill="none" fill-rule="evenodd"><path d="M18 0c2.837 0 5.52.656 7.907 1.825C31.884 4.753 36 10.895 36 18c0 9.942-8.058 18-18 18-9.94 0-18-8.057-18-18C0 8.06 8.06 0 18 0z" fill="#f2f4f7" fill-rule="nonzero"/><path d="M15.308 0h-.203l-.01.07c-.014.103-.054.277-.172.277a.616.616 0 0 1-.213-.059A3.74 3.74 0 0 0 13.317 0c-.873 0-1.665.312-2.231.881a2.785 2.785 0 0 0-.8 2.001c.004.735.293 1.341.885 1.85.596.51 1.264.728 2.236.728.808 0 1.272-.116 1.982-.497l.124-.067V3.522c0-.584.072-.675.548-.695l.078-.003V2.62h-2.326v.204l.078.003c.529.021.629.116.629.6v1.271c-.393.26-.68.359-1.04.359a1.91 1.91 0 0 1-1.372-.571c-.426-.427-.635-1.049-.635-1.753 0-.756.202-1.403.617-1.818A1.76 1.76 0 0 1 13.36.4c.449 0 .969.192 1.325.475.29.238.44.468.555.847l.017.058h.198zm-6.67 3.58s-.046-.214-.053-.335V1.674C8.575.758 8.7.302 7.899.306V.1h1.843v.206c-.825-.004-.722.452-.726 1.368v3.669l-.263-.003-3.98-4.164s.046.215.053.335v2.572c-.022.938.094 1.053.698 1.041v.215H3.603v-.215c.606.001.725-.079.724-1.117v.062-2.535l-.005-.403c.023-.521-.17-.823-.757-.818V.107h1.768zM.174.315c.21 0 .357.044.448.136.102.101.147.27.147.545v3.44c0 .476-.1.688-.688.688H0v.211h2.646v-.21l-.08-.001c-.583-.007-.681-.219-.681-.688V.996c0-.275.046-.442.148-.544.09-.092.24-.137.456-.137h.157V.101H0v.214z" fill="#1a3b73" mask="url(#a)" transform="translate(4 15.655)"/><g fill="#fff"><path d="M29.493 20.976c.129-.02.267-.017.37-.11.436.065.88-.042 1.223-.284.18-.144.34-.312.475-.5.117-.163.208-.314.267-.497.045-.113.08-.23.106-.349.124-.568.059-1.2-.126-1.74a3.007 3.007 0 0 0-.114-.29c-.23-.476-.544-.989-1.026-1.29a2.047 2.047 0 0 1-.676-.704c-.083-.075-.164-.174-.271-.192.029.048.062.096.069.153l-.005.008c-.116.003-.205-.057-.284-.13l.087-.079c-.033-.017-.071-.023-.107-.03-.33-.039-.601.114-.894.187l-.005.016c.18.08.218.28.323.413.026-.032.069-.009.106-.012.052.003.1.041.152.028 0-.044-.023-.079-.031-.118.03-.015.068 0 .103 0 .094.056.246-.01.306.118-.11.006-.21.03-.311.054.007.041.047.074.044.114a1.04 1.04 0 0 0-.275-.07l-.005.015a.948.948 0 0 0 .463.28c.247.056.465-.06.703-.02.586.268 1.086.882 1.304 1.464l.03.085c.183.532.217 1.185.035 1.74-.098.23-.204.448-.376.636a1.288 1.288 0 0 1-.214.21.964.964 0 0 1-.861.191c-.02-.014-.06-.018-.052-.05l.03-.14c.054-.272.074-.548.062-.826l-.001-.035a3.174 3.174 0 0 0-.248-1.122 3.866 3.866 0 0 0-.352-.618c-.171-.235-.382-.438-.655-.54-.167-.044-.373-.052-.5.087a.335.335 0 0 0-.113.301 1.036 1.036 0 0 1-.471.152c-.042.003-.085.02-.13.018a.708.708 0 0 1-.121-.004 1.21 1.21 0 0 1-.576-.265l-.012-.255a.31.31 0 0 1-.173-.244l.008-.008a.676.676 0 0 1 .146.07 1.055 1.055 0 0 0-.11-.364c-.06-.025-.117-.045-.173-.074a.285.285 0 0 1-.114-.19c.057.056.157.037.2.095-.076-.227-.078-.487-.204-.695-.063-.153-.23-.224-.345-.337-.044-.054-.062-.129-.142-.137-.065-.017-.07-.09-.081-.137.04.004.075.032.109.04-.095-.253-.178-.533-.435-.693l-.044.028c-.1.015-.206.021-.306.024.044-.065.123-.093.185-.122a.44.44 0 0 0-.221-.082.458.458 0 0 1-.214.094l-.01-.007c-.001-.059-.014-.13.075-.146-.085-.04-.226-.024-.313 0-.024.064-.095.121-.09.197-.05.052-.086.122-.138.16-.002-.126.052-.242.074-.348-.073.027-.148.067-.22.101a3.083 3.083 0 0 0-.362-.185c-.011-.005-.036-.01-.031.012.106.076.065.22.076.33l-.067-.055c-.033-.084-.127-.144-.143-.236a1.232 1.232 0 0 0-.286.095l-.014.008c.077 0 .142.06.18.121-.117.006-.22-.039-.334-.05-.012-.012-.021-.026-.04-.024-.056.021-.105.062-.156.101-.113.112-.227.235-.281.382.037.006.085.005.112.027-.062.038-.115.102-.176.138-.021.085-.018.181-.023.275-.048.072-.111.135-.142.215a3.216 3.216 0 0 0-.113 1.066c-.033.032-.075.052-.106.076l.003.333h.008c.015-.07.098-.109.149-.157h.017a2.444 2.444 0 0 0-.02.228l-.095.078c-.095.083-.015.21-.023.314.007.028.012.07.03.076.013-.04.049-.07.072-.107.04-.01.076-.042.114-.047a1.698 1.698 0 0 1-.082.24.28.28 0 0 0-.05.041.122.122 0 0 0-.033.061c.073.387.189.77.322 1.134-.09.152-.141.332-.216.488a.99.99 0 0 0-.03.068c-.074.19-.097.403-.191.585a.492.492 0 0 0-.631.051.435.435 0 0 0-.322.06.421.421 0 0 0-.143.174.355.355 0 0 0-.026.155.383.383 0 0 0-.137.208.644.644 0 0 0 .13.496z"/><path d="m25.526 19.338.03.015c.067-.032.135-.067.205-.093.11-.03.194.093.286.015.035-.025.063.011.09.031.04.072.131.067.2.087-.035-.093-.077-.22-.197-.237-.047-.02-.103-.018-.148-.047-.127-.138-.208.115-.345.052-.05.055-.11.106-.121.177zm-.086.675h.019c.087-.055.213-.014.298-.07.046-.026.05.04.082.058.081.05.09.196.203.161.136.072.101.237.107.358l.126-.079c-.012-.064.023-.14-.017-.197-.03-.07-.116-.076-.157-.134.05-.084-.062-.122-.085-.183l.007-.008.172.023c.06.036.08.101.1.162.134.023.167.176.215.275.027-.067.04-.14.068-.205 0-.054-.071-.054-.107-.078a.29.29 0 0 0-.121-.213c-.15-.037-.282-.12-.448-.12l-.137.042c-.075.017-.156-.005-.213.047-.085.007-.091.1-.112.161zm.017-2.3c.063.084.158.147.266.126-.055-.054-.12-.11-.123-.188.017-.146-.143-.157-.222-.232.026.098.023.207.079.294zm-.132 2.01h.012c.098-.078.214-.105.33-.138.03.012.01.046.038.06.07-.03.157-.024.229-.048.086.004.157.005.227.043.055.073.16.065.232.114l-.012-.114c-.151-.179-.388-.192-.607-.189l-.005-.022a.4.4 0 0 0-.16.034c-.071.003-.138.037-.205.06-.031.061-.056.136-.08.2zm-.003-1.326c.163.12.324.258.553.208.016-.012.044-.01.047-.032-.067-.043-.14-.075-.208-.114l-.078-.115H25.6c-.09.03-.183.041-.278.053zm-.103-.347c.058.077.187.051.26.027-.034-.058-.145-.093-.164-.156a1.505 1.505 0 0 0-.072-.326c-.057.14-.127.305-.025.455zm-.2.111a1.192 1.192 0 0 1-.078-.353c-.05.058-.1.096-.146.157-.02.121.151.15.224.196zm-.174 1.007a.365.365 0 0 0 .21.114c-.014-.017.008 0 .011-.01l-.099-.216c-.048.002-.099.011-.145.008a.437.437 0 0 0 .023.104zm-.102-.77a.16.16 0 0 0 .03.084c.126.045.14.201.257.26.077.034.165-.008.232-.04-.05-.057-.108-.096-.157-.157-.034-.015-.069-.036-.067-.078zm-.322-.382.048.216c.114-.094.138-.23.135-.373-.066.075-.104.121-.183.157zm-.204 1.158.122.16a.249.249 0 0 0 .205-.023l-.044-.146a.575.575 0 0 1-.283.01zm-.16-.2a1.67 1.67 0 0 0 .297-.123c.061-.086.152-.165.166-.266-.076.021-.14-.004-.21.031-.043.076-.07.163-.151.22-.013.054-.073.092-.101.137zm.15-.832c.008-.082-.026-.177-.036-.26-.048-.033-.117-.03-.167-.063.002.13.104.24.202.323zm-.537-.637a.943.943 0 0 0 .152.354l.02-.245zm.017 1.205c.087.016.18 0 .26-.024.117-.028.181-.156.22-.255h-.146l-.157.153c-.062.033-.12.082-.177.126zm-.398-1.056c.073.108.196.23.322.263-.015-.137-.132-.232-.193-.35l-.003-.039a.6.6 0 0 0-.154-.1c-.008.077.013.153.028.226zm-.034 1.043c.113.007.223.03.315-.034l.091-.295c-.029 0-.059-.014-.087-.005a.707.707 0 0 1-.319.334zm-.053-.23.073-.075a.466.466 0 0 0 .146-.259c-.053-.03-.12-.01-.172.008-.018.107-.045.212-.047.326zm-.298-.538c.015.051.033.114.042.168.046-.1.137-.147.217-.23a.404.404 0 0 0-.154-.056v-.003c-.036.036-.09.072-.105.121zm.003 1.2.02.03c.081-.005.156-.04.236-.039.053.033.124.031.18.06.043.06.091.128.156.17.133.02.206.161.252.265v-.05a.346.346 0 0 0-.028-.215c-.033-.033-.08-.055-.114-.084-.007-.022-.002-.032.004-.05-.05-.055-.126-.085-.188-.127-.086-.126-.253-.092-.385-.126zm-.157.321a.106.106 0 0 0 .034.056c.074-.02.144-.07.23-.039.11.097.223.197.356.25l.048-.008c.03.01.062.011.081.044.02.044-.028.07-.042.106.073.054.044.151.09.216l.118-.157c-.028-.069.001-.186-.107-.192a.107.107 0 0 1-.059-.096c-.07-.063-.157-.09-.227-.156-.057-.047-.09-.116-.165-.133a.606.606 0 0 0-.165-.056c-.11-.015-.12.115-.192.165zm-.094.376c.037.012.071-.019.11-.003.15.056.307.114.42.24l.134.34.067-.21-.044-.115c-.037-.082-.14-.075-.211-.078-.03-.033.002-.07.012-.1.034-.118-.108-.11-.165-.159.003-.07-.082-.046-.13-.05l-.016-.02c-.01-.017-.034-.017-.048-.005-.003-.005-.01-.008-.006-.016l-.036.008a.231.231 0 0 0-.086.168zm-.44.971c.008.015 0 .041.016.044.024-.137.136-.226.196-.347.03-.04.028-.098.076-.13.063 0 .11.046.171.051.02.015-.01.028-.01.044-.013.111-.056.204-.048.318h.012c.086-.09.145-.19.209-.294l.01-.093c.016-.112-.105-.184-.184-.23l.07-.09-.098-.034a.454.454 0 0 0-.298.15c-.1.182-.115.388-.122.611zm-.404-.564c-.064.191-.112.426-.035.627.044-.028.09-.056.13-.097-.007-.154-.03-.319.062-.446.08.025.135.102.165.177a.299.299 0 0 0 .05-.256c.004-.07-.078-.054-.117-.085.013-.06.011-.13.075-.165l-.197.021c-.05.071-.106.141-.133.224zm-.404.175c-.01.127 0 .245.008.37.026.04.074.087.121.091l.008-.084c.02-.116-.042-.239.023-.338a.782.782 0 0 1 .131.06c.02-.108-.008-.234-.112-.3zm2.598-3.068.1-.095a.02.02 0 0 1 .018.01l-.008.18a.248.248 0 0 0 .168.062c.005-.049.043-.083.064-.126.018-.034.007-.085.043-.109l.011.011c.012.054.008.115.036.162l.011.082a.398.398 0 0 0 .193-.043c-.003-.062.02-.113.028-.17.015-.02-.018-.055.023-.054.023.05.064.1.086.152a.631.631 0 0 0 .158-.353c-.028-.038-.07-.038-.103-.062-.278-.09-.635-.108-.903.031a.418.418 0 0 0 .075.322zm4.404-.042c-.002.043-.033.09-.005.126.04-.044.105-.042.157-.062.145-.013.285.033.421.066-.035-.054-.058-.114-.096-.164-.075-.019-.189.033-.202-.078-.046-.039-.118-.012-.165-.009a.385.385 0 0 0-.11.121z"/><path d="m22.905 15.504.129-.075v-.192c-.054.034-.084.089-.126.133zm-.063.51.094.295c-.002-.167.075-.306.059-.476l.07-.105-.15.046a.549.549 0 0 0-.073.24zm3.01 1.543c.075.093.19.055.297.059v-.012l-.163-.138a.43.43 0 0 0-.134.09zm-.091.585c.054.09.159.146.243.207a.4.4 0 0 0 .232.024 1.459 1.459 0 0 1-.193-.192c-.023-.033-.028-.073-.06-.103-.076.014-.162.013-.222.064zm-.204 1.993c.052.044.106.119.188.11.1.048.059.18.115.252l.058-.053-.005-.003.009-.008.003.005c.016-.05-.006-.137-.034-.193-.038-.027-.082.002-.118-.024-.005-.051-.037-.078-.075-.11-.026-.02-.061.006-.09.005z"/><path d="M25.558 15.802c-.032.04-.08.05-.118.059a.559.559 0 0 0 .047-.444c.036-.012.076-.02.11-.04l-.003-.002.09-.078c.119-.082.073-.238.118-.353-.06-.092-.077-.204-.162-.281l.004-.003c-.067-.085-.188-.075-.28-.117-.12-.041-.214.042-.301.098-.037.006-.014.056-.055.054-.023.06-.051.126-.067.192-.162-.022-.337-.004-.466.087-.07-.05-.152-.06-.232-.083-.06-.011-.126.01-.168-.023-.062-.07-.076-.198-.183-.216-.037-.013-.045-.054-.045-.09-.07-.011-.133-.044-.201-.06-.105-.046-.188.029-.267.08-.034.015-.073.019-.106.039a1.602 1.602 0 0 0-.152.286.609.609 0 0 0 .09.228c.038.106.156.189.255.232a.97.97 0 0 0 0 .518l-.003.002-.005.005c-.015 0-.032.003-.045-.005h-.002a.706.706 0 0 0 .215.41c.043.015.033.066.05.099.012.014.014.045.009.058a1.292 1.292 0 0 0-.687.172c-.052.026-.03.098-.034.149.144-.095.299-.165.47-.196.074-.005.158-.023.228-.004l.008.14c-.194.103-.407.16-.573.328.003.05-.007.11.008.152l.148-.121c.144-.11.295-.203.46-.263a.564.564 0 0 0 .149.14c.099-.063.208-.111.322-.14.06-.036.157-.004.196-.075l.028-.15c-.005-.003-.008-.01-.016-.007-.077-.045-.128-.121-.121-.212a.198.198 0 0 1-.087.023c-.026-.006-.05-.012-.062-.04-.002-.031-.018-.081.015-.105.106-.066.243-.07.378-.06.099.014.243.009.277.127-.004.034-.001.072-.036.095-.035.02-.076-.002-.11-.017-.025.08-.07.17-.16.197l.012.094c.012.043.015.113.082.099.155.037.292.117.429.204.045-.046.08-.098.114-.145.242.08.45.263.65.43l.009-.136a2.246 2.246 0 0 0-.62-.381c.008-.045.018-.087.02-.134.26.014.506.095.72.22l-.003-.117a1.606 1.606 0 0 0-.742-.205.08.08 0 0 1-.011-.05c.13-.022.224-.157.255-.275.067-.077.163-.16.14-.275l.01-.03c.009-.027.016-.057.007-.084"/><path d="M29.622 15.38c.087.009.148.086.208.15.073.012.13.064.173.118l-.027-.087a.572.572 0 0 0-.129-.222.638.638 0 0 0-.225.042zm-.639-.153a.338.338 0 0 0 .134.045.172.172 0 0 1 .121-.02c.06.039.134-.008.204-.005a.738.738 0 0 0-.204-.13c-.092.02-.165.086-.255.11zm.48 4.477.117.16c.05-.08.05-.198.03-.295-.01-.018-.032-.047-.062-.034-.044.046-.05.116-.086.169zm-.202.258c.05.1.162.178.173.294.026-.031.044-.067.062-.101-.002-.032-.04-.032-.055-.06-.014-.042.01-.08.015-.117a.316.316 0 0 0-.128-.153zm-.6-.715c.064-.018.104-.09.172-.095a.32.32 0 0 1 .264.134c.04.026.031.094.082.094-.015-.082.011-.155.008-.237-.069-.114-.239-.025-.302-.16l-.12.009c-.088.02-.065.122-.077.19-.01.022-.029.038-.027.065zm-.028-.531c.021.045.046.117.086.122.097-.042.237-.07.345-.023.036.007.036.047.028.073.055.034.123.059.181.095l-.015-.098c-.004-.106-.138-.116-.146-.221a.653.653 0 0 0-.348-.02c-.038.035-.092.03-.138.04-.003.013.005.02.007.032zm-.04.772c-.01.027-.037.073.013.087.105.003.24-.051.321.03.028.022.015.066.013.094l.137.114c.013-.068.038-.131.04-.204a.236.236 0 0 0-.083-.138c-.09 0-.143-.105-.24-.091-.05-.012-.094.033-.145.033-.023.022-.036.05-.056.075zm-.054-.973c.035.036.092.03.141.036l.142-.055c.002-.026-.042-.032-.033-.062.04-.044.094-.013.143-.031.068-.01.14-.078.207-.027 0 .007.004.019-.003.027-.02.05.015.08.054.102.08.014.156.087.236.054-.009-.066-.026-.128-.043-.192-.067-.012-.115-.068-.177-.09-.027.025-.063.046-.098.042-.126-.03-.277-.107-.403-.027-.046.055-.128.039-.19.063.003.056.01.109.024.16zm-.075-.364c0-.005 0-.01.005-.012.015.014-.002.045.023.05.043-.02.082-.05.121-.077.11 0 .175-.106.282-.106.181.033.36.068.516.157-.01-.107-.103-.203-.196-.251-.052-.018-.093.01-.13.04-.11.068-.053-.1-.13-.104-.1.032-.203.066-.314.056-.065.024-.112.085-.185.079-.003.054-.012.119.008.168zm-.003-.337a.297.297 0 0 0 .118-.052c.11-.1.268-.033.395-.035a.99.99 0 0 0-.089-.126c-.046-.017-.089-.04-.14-.04-.113-.064-.187.045-.272.099-.024.045-.035.11-.012.154zm-.114 2.059c.046.02.104-.018.15-.043.04-.01.074.012.104.034.014.026 0 .05.005.075a.978.978 0 0 1 .282.12l.027-.027c.007-.07-.048-.12-.1-.16-.035-.02-.086-.008-.11-.04.016-.026.016-.065.014-.094a.236.236 0 0 1-.132-.043c-.028-.008-.052-.03-.076 0-.08.056-.086.138-.164.178zm-.393-1.196c.003.015.01.028.016.043.064.105.125.212.17.326-.014-.122.067-.272-.04-.365-.015-.04-.064-.026-.095-.023zm-.38-.78c.145.149.251.296.408.439.003-.064-.005-.123-.008-.185-.024-.044-.066-.077-.102-.11-.116-.011-.176-.167-.299-.143zm-.153 1.162c.083.077.054.189.047.29-.013.064.066.028.09.06.051.075.022.185.003.266.045-.066.096-.126.13-.2-.002-.026.034-.04.033-.074.014-.048-.04-.026-.064-.031-.019-.005-.04-.02-.035-.044.043-.082.004-.18-.013-.262-.019-.067.01-.157-.023-.216-.052.073-.208.089-.168.21zm-.078-.886c.067.04.143.1.18.17.057.168.148.319.215.48.025.113.044.214.075.325.012.029.005.087.051.082.013-.124.038-.243.04-.373-.042-.054-.095-.076-.146-.11v-.011c.007-.027.03-.061.064-.055.014-.017.058-.033.04-.062-.086-.085-.08-.232-.217-.258-.047-.02-.059-.068-.064-.114a.384.384 0 0 0-.238-.074zm-.11.435.085.165c.037-.005.062-.041.091-.066.024-.07-.037-.114-.055-.17-.015-.038 0-.091-.028-.125-.02-.013-.046-.034-.07-.03zm-.224.389c-.012.077.073.087.11.13.03.035-.02.06-.02.094.062.08.098.172.098.279.025-.1.062-.196.075-.298-.006-.072-.12-.058-.103-.138.033-.082-.006-.162-.027-.235-.007-.012-.02-.034-.035-.03-.029.069-.103.117-.098.198zm-.005-.745c-.008.068.037.126.087.16.018-.041.047-.075.05-.121a.296.296 0 0 0-.118-.182c-.01.046-.024.09-.019.143zm-.403-.502c.084.065.22.072.318.039a1.025 1.025 0 0 1-.18-.118zm-.029 1.673.025.053c.025.17.132.327.073.514.05.034.064.092.095.137h.008c.038-.142.012-.29-.008-.432.015-.13-.116-.204-.193-.272zm-.339-1.443c.112.068.256.133.407.109.016-.007.044-.006.046-.026-.092-.032-.19-.126-.288-.145-.054-.083-.125.02-.193.014.001.02.021.035.028.048zm-.088-.761c.026.035.032.079.056.11.045.03.11.025.164.02.05-.011.08.042.126.01-.057-.035-.092-.101-.146-.147-.064-.051-.132-.007-.2.007zm-.022-.48c.063.072.126.185.24.15-.01-.047-.036-.086-.052-.13-.03-.033-.039-.131-.098-.097-.044-.03-.055-.08-.084-.118-.012.06-.005.136-.006.196zm-.338-.517.133-.043.015-.074c.038-.11-.042-.192-.082-.28z"/></g><path d="m25.213 14.734.145-.046c.084.04.162.088.239.144.06.11.05.262.023.386-.044.049-.141 0-.177.078h-.006c-.055-.153-.208-.291-.35-.361.023-.078.047-.155.126-.201zm-.353 1.853h.196l-.025.103-.196-.084c-.005-.016.013-.021.025-.02zm-.154-1.01c.04-.056.103-.061.162-.073l.424.008c.017.016-.017.03-.017.05-.026.026-.063.032-.086.055-.056.002-.051.067-.091.095-.06.06-.15.033-.22.023a.191.191 0 0 1-.062-.07l-.02.019c.024.092.018.193.036.286l.1.067c.003.15.179.11.257.194a.487.487 0 0 1-.094.145.549.549 0 0 0-.208-.126c-.006-.088-.102-.141-.156-.185-.015-.16-.018-.324-.044-.48zm.059-.437c.093-.017.088.104.173.109.015.02.036.038.028.067-.05.02-.121.01-.177.023-.074-.041-.026-.168-.142-.16-.006-.01-.02-.03-.003-.036a.26.26 0 0 1 .12-.003zm-.656.053c.07-.022.146-.07.22-.047-.053.054-.095.125-.137.19l-.224-.005a.324.324 0 0 1 .14-.138zm-.286 1.366c.07.01.143-.021.204.013-.013.023-.047.033-.075.039l-.11.05c-.041-.01-.017-.074-.02-.102zm-.18-1.066c.149-.013.293.008.446-.005a.194.194 0 0 1 .095.086c-.005.177-.06.346-.067.527-.067.028-.133.084-.15.157-.06.018-.113.054-.172.08-.026-.054-.021-.137.024-.183.064-.09.229-.07.216-.211.043-.07.002-.157.004-.23-.017-.053-.033.019-.06.017-.051.01-.105.015-.151-.011-.035-.036-.077-.066-.087-.115a.263.263 0 0 1-.122-.106zm-.123-.83.047.006c.128.063.334.096.346.28-.13.052-.254.12-.357.224-.078-.08-.237-.036-.263-.176.025-.133.072-.3.227-.333z" fill="#db812e"/><path d="M7.417 6.964h.873c.13-.02.266-.017.37-.11.436.066.88-.042 1.222-.283.181-.144.341-.312.476-.5.116-.163.208-.315.267-.497.044-.113.08-.229.105-.35.125-.567.06-1.2-.125-1.74a2.759 2.759 0 0 0-.115-.289c-.23-.476-.543-.99-1.026-1.29A2.053 2.053 0 0 1 8.79 1.2c-.084-.075-.164-.175-.272-.193.03.05.062.096.07.153l-.006.01c-.115.002-.205-.059-.283-.132L8.385.96c-.033-.016-.07-.023-.107-.03-.33-.038-.602.114-.894.187l-.005.016c.18.081.218.278.322.413.026-.032.07-.009.107-.012.052.003.101.041.151.028.002-.044-.022-.078-.03-.118.03-.015.068 0 .103 0 .094.056.246-.009.305.118a1.686 1.686 0 0 0-.31.054c.006.041.047.074.044.115a1.013 1.013 0 0 0-.275-.07l-.005.014a.957.957 0 0 0 .463.28c.247.057.464-.06.703-.02.585.268 1.085.882 1.303 1.464l.031.085c.182.532.217 1.185.034 1.74-.097.23-.204.448-.375.636a1.334 1.334 0 0 1-.215.21.961.961 0 0 1-.86.191c-.019-.014-.059-.017-.052-.05a3.464 3.464 0 0 0 .092-.964c0-.012 0-.025-.002-.037a3.156 3.156 0 0 0-.247-1.122 3.873 3.873 0 0 0-.353-.618c-.17-.235-.382-.438-.654-.54-.167-.044-.373-.052-.499.087a.336.336 0 0 0-.115.301 1.024 1.024 0 0 1-.47.152c-.043.004-.086.02-.13.02a.692.692 0 0 1-.12-.006 1.206 1.206 0 0 1-.577-.265c-.004-.085-.009-.165-.012-.255a.308.308 0 0 1-.173-.244l.008-.008c.053.017.098.043.145.07a1.06 1.06 0 0 0-.109-.364c-.059-.025-.118-.044-.174-.074a.285.285 0 0 1-.114-.19c.057.056.157.037.202.096-.078-.228-.079-.488-.205-.696-.064-.153-.23-.223-.345-.337-.045-.053-.062-.128-.142-.137-.066-.016-.07-.09-.082-.137.041.004.075.032.11.04C4.76.73 4.677.45 4.42.29l-.044.028c-.1.015-.206.021-.305.024.044-.065.122-.092.184-.122a.44.44 0 0 0-.22-.082.46.46 0 0 1-.215.093L3.813.225c0-.059-.015-.13.073-.146-.085-.04-.225-.024-.312 0-.025.064-.095.121-.09.197-.05.052-.086.122-.139.16 0-.126.052-.243.075-.348-.074.027-.148.066-.22.101a3.097 3.097 0 0 0-.363-.185c-.01-.005-.036-.01-.03.011.105.077.064.221.075.331L2.815.29C2.783.207 2.688.147 2.672.055a1.24 1.24 0 0 0-.285.095l-.015.008c.077 0 .143.06.18.12-.116.007-.219-.039-.333-.05-.012-.012-.022-.025-.04-.023-.057.021-.106.062-.157.101-.112.111-.227.234-.28.381.037.007.084.006.112.028-.062.038-.116.102-.177.138-.02.085-.018.181-.023.274-.047.072-.11.136-.142.216-.1.33-.127.693-.113 1.066-.033.031-.075.051-.106.076l.003.333h.008c.015-.07.1-.11.15-.157h.016c-.008.075-.018.15-.02.227l-.095.08c-.094.082-.014.208-.022.312.006.03.011.07.031.076.011-.04.047-.07.07-.106.041-.01.077-.043.114-.048a1.63 1.63 0 0 1-.082.241.254.254 0 0 0-.049.041.11.11 0 0 0-.034.061c.074.387.19.77.322 1.134-.09.152-.14.331-.216.488l-.029.068c-.075.19-.098.402-.19.584a.494.494 0 0 0-.632.051.435.435 0 0 0-.323.06.43.43 0 0 0-.143.175.352.352 0 0 0-.026.155.384.384 0 0 0-.137.207.645.645 0 0 0 .13.496h7.278z" fill="#fff" mask="url(#b)" transform="translate(21.205 14)"/><path d="M10.605 3.484a2.759 2.759 0 0 0-.115-.289c-.23-.476-.543-.99-1.026-1.29A2.061 2.061 0 0 1 8.79 1.2c-.084-.075-.164-.175-.272-.193.03.05.062.096.07.153l-.006.01c-.115.002-.205-.059-.283-.132L8.385.96c-.033-.016-.07-.023-.107-.03-.33-.038-.602.114-.894.187l-.005.016c.18.08.218.278.322.413.026-.032.071-.009.107-.012.052.003.101.041.151.028.002-.044-.022-.078-.03-.118.03-.015.068-.002.103 0 .094.056.246-.009.305.118a1.686 1.686 0 0 0-.31.054c.006.041.047.074.044.115a1.013 1.013 0 0 0-.275-.07l-.005.014a.957.957 0 0 0 .463.28c.247.057.464-.06.703-.02.586.268 1.086.882 1.303 1.464l.031.085c.182.532.217 1.185.034 1.74-.097.23-.204.448-.375.635a1.3 1.3 0 0 1-.215.211.961.961 0 0 1-.86.191c-.019-.014-.059-.017-.052-.05a3.464 3.464 0 0 0 .092-.964c0-.013 0-.025-.002-.037a3.156 3.156 0 0 0-.247-1.122 3.873 3.873 0 0 0-.353-.618c-.17-.235-.382-.438-.654-.54-.167-.044-.373-.052-.499.087a.336.336 0 0 0-.115.301 1.024 1.024 0 0 1-.47.152c-.043.004-.086.02-.13.02a.692.692 0 0 1-.12-.006 1.206 1.206 0 0 1-.577-.265c-.004-.085-.009-.165-.012-.255a.308.308 0 0 1-.173-.244l.008-.008c.053.017.098.043.145.07a1.06 1.06 0 0 0-.109-.364c-.059-.025-.118-.044-.174-.074a.285.285 0 0 1-.114-.19c.057.056.157.037.202.096-.078-.228-.079-.488-.205-.696-.064-.153-.23-.223-.345-.337-.045-.053-.062-.129-.142-.137-.066-.016-.07-.09-.082-.137.041.004.075.032.11.04C4.76.73 4.677.45 4.42.29l-.044.028c-.1.015-.206.021-.306.024.045-.065.123-.092.185-.122a.44.44 0 0 0-.22-.082.46.46 0 0 1-.215.093L3.813.225c0-.059-.015-.13.073-.146-.085-.04-.225-.024-.312 0-.025.064-.094.121-.09.197-.05.052-.086.122-.139.16 0-.126.052-.243.075-.348-.074.027-.148.066-.22.101a3.097 3.097 0 0 0-.363-.185c-.01-.005-.036-.01-.03.011.105.077.064.221.075.331L2.815.29C2.783.207 2.688.147 2.672.055a1.24 1.24 0 0 0-.285.095l-.015.008c.077 0 .143.06.18.12-.116.007-.219-.039-.333-.05-.012-.012-.022-.025-.04-.023-.057.021-.106.062-.157.101-.112.111-.227.234-.28.381.037.007.084.005.112.028-.062.038-.116.102-.177.138-.02.085-.018.181-.023.274-.047.072-.11.136-.142.216-.1.33-.127.693-.113 1.066-.033.031-.075.051-.106.075l.003.334h.008c.015-.07.1-.11.15-.157h.016c-.008.075-.018.15-.02.227l-.095.08c-.094.082-.014.208-.022.312.006.03.011.07.031.076.011-.04.047-.07.07-.106.041-.01.077-.043.114-.048a1.58 1.58 0 0 1-.082.24.305.305 0 0 0-.049.042.11.11 0 0 0-.034.061c.074.387.19.77.322 1.134-.09.152-.14.331-.216.488l-.029.067c-.075.191-.098.403-.19.585a.491.491 0 0 0-.632.051.435.435 0 0 0-.323.06.438.438 0 0 0-.143.175.338.338 0 0 0-.025.155.38.38 0 0 0-.138.207.645.645 0 0 0 .13.496h2.89a.853.853 0 0 1-.112-.18c-.062-.094-.02-.226-.027-.335a6.29 6.29 0 0 1 .186-.354l.042-.069.132-.05c.07 0 .13-.052.196-.033.091.09.091-.09.177-.099.203-.026.404-.006.518.165 0 .023.036.023.028.045-.026.008-.05-.009-.078-.009-.125-.03-.27-.109-.393-.039-.005.03-.01.06-.017.09a.7.7 0 0 0-.014.09.5.5 0 0 1 .208.142c.041-.08.127-.116.204-.142.068.014.141.016.196.058.104.096.053.257.043.378.093.053.196.082.291.133-.045.04-.103.056-.157.075l-.157-.03c-.018-.014-.049-.014-.056-.037a.87.87 0 0 0-.148.201h2.24c-.03-.067-.064-.119-.105-.182-.046-.097-.027-.232-.033-.337l.21-.318c.114-.002.244-.044.368-.023l.018-.01c.051-.035.067-.118.144-.108.137-.038.242.025.345.087a.106.106 0 0 1-.01.021c-.044.07-.125-.008-.184.014-.024.025.012.056.017.085.021.03-.02.027-.036.032a.11.11 0 0 1-.098-.032c-.007-.007-.002-.017-.015-.019-.029.05-.072.094-.083.15.037.036.088.071.106.117.038.054-.03.094-.042.142-.006.01-.02.01-.025 0-.034-.019-.064-.068-.1-.056-.035.146.01.291-.01.437.064.015.14-.003.208 0l.028-.308c.03-.199.147-.366.286-.518.15-.103.247.1.358.171.018.003.011.022.02.034-.002.032-.036.046-.059.056-.069.024-.12-.05-.162-.096-.04.045-.059.103-.106.138l.016.004c.054.055.106.112.118.184a.211.211 0 0 1-.098.162 1.581 1.581 0 0 1-.11-.236c.002.004-.002.005-.005.01-.09.023-.114.124-.129.207.005.08-.056.112-.039.192H8.29c.13-.02.266-.017.37-.11.436.066.88-.042 1.222-.283.181-.144.341-.312.476-.5.116-.163.208-.315.267-.497.044-.113.08-.229.105-.35.125-.566.06-1.199-.125-1.739" fill="#db812e" mask="url(#c)" transform="translate(21.205 14)"/><path d="M3.342.298c.036.046.047.108.102.15A.31.31 0 0 0 3.48.195L3.432.15c.06-.015.124-.02.185-.032-.026.087-.076.165-.067.267.001.147.026.295.04.448h-.18C3.343.69 3.277.553 3.282.385c.02-.029.033-.064.06-.087zM.862.35C.892.31.905.24.967.232c.045.001.085.007.12.04.056.071 0 .163-.02.234a2.573 2.573 0 0 1-.1.327H.803zM.512.192h.013l.156.142L.704.33a7.724 7.724 0 0 0-.023.504h-.17C.477.671.421.501.426.326.456.282.476.227.511.192zM.008.388C.073.348.176.338.191.242.165.223.142.198.113.192l-.068.02C.05.171.071.127.085.085L.3.016C.271.113.26.236.25.35c.02.167.044.345.13.484H.146C.121.68-.04.57.01.388z" fill="#db812e" mask="url(#d)" transform="translate(24.297 20.131)"/><path d="m25.528 19.328.031.015c.068-.032.135-.068.205-.094.109-.03.194.094.286.015.034-.025.064.01.09.03.039.073.131.068.2.088-.035-.093-.078-.221-.197-.236-.047-.021-.103-.02-.148-.047-.126-.14-.208.115-.346.052-.049.054-.109.105-.121.177zm-.086.673h.019c.087-.054.213-.013.298-.07.047-.025.051.042.083.059.081.049.09.196.203.162.136.07.101.236.107.356l.126-.078c-.012-.064.024-.141-.017-.196-.031-.071-.116-.077-.157-.135.049-.083-.062-.123-.085-.183l.007-.008.173.024c.059.035.08.1.098.162.136.022.168.175.216.274.027-.067.039-.14.067-.205.002-.054-.071-.054-.106-.078a.29.29 0 0 0-.121-.212c-.151-.038-.283-.121-.449-.121l-.137.042c-.075.018-.156-.005-.212.047-.086.007-.092.1-.113.16zm.017-2.3c.063.085.158.148.266.127-.055-.054-.119-.111-.123-.187.016-.146-.143-.158-.222-.233.026.098.023.208.079.294zm-.132 2.01h.012c.098-.077.214-.104.33-.136.031.01.011.045.04.059.069-.03.155-.024.227-.048.086.004.157.005.227.043.056.073.16.064.232.114l-.012-.114c-.151-.18-.388-.192-.607-.19l-.005-.021a.395.395 0 0 0-.161.034c-.07.003-.137.037-.204.059-.031.062-.056.137-.079.2zm-.003-1.325c.163.119.324.258.552.208.017-.012.045-.011.048-.032-.067-.043-.139-.075-.208-.114l-.078-.114h-.036a1.422 1.422 0 0 1-.278.052zm-.103-.347c.059.077.188.05.26.028-.035-.058-.145-.093-.165-.157-.01-.11-.034-.22-.07-.325-.057.139-.127.304-.025.454zm-.199.11a1.225 1.225 0 0 1-.078-.351c-.049.058-.1.096-.146.156-.021.12.151.15.224.196zm-.174 1.009a.377.377 0 0 0 .209.114c-.013-.018.008 0 .012-.011l-.099-.216c-.048.002-.1.012-.145.009a.522.522 0 0 0 .023.104zm-.101-.772c.001.03.01.06.027.085.128.045.141.2.259.259.077.036.165-.007.231-.04-.049-.055-.107-.095-.156-.156-.034-.015-.069-.035-.067-.078zm-.323-.381.048.216c.114-.093.138-.23.135-.373-.066.075-.104.12-.183.157zm-.204 1.158.122.16a.253.253 0 0 0 .205-.022l-.044-.147a.564.564 0 0 1-.283.009zm-.16-.201a1.79 1.79 0 0 0 .298-.121c.06-.087.151-.165.165-.267-.076.022-.141-.004-.211.03-.043.078-.069.164-.151.22-.013.056-.073.093-.101.138zm.148-.831c.011-.082-.024-.177-.034-.26-.048-.033-.117-.03-.168-.063.003.129.105.24.202.323zm-.535-.636a.945.945 0 0 0 .152.353l.019-.244zm.017 1.205a.57.57 0 0 0 .26-.025c.117-.028.18-.156.22-.255h-.146l-.157.154a1.06 1.06 0 0 0-.177.126zm-.399-1.057c.074.108.197.229.322.264-.014-.138-.131-.232-.192-.35l-.003-.04a.627.627 0 0 0-.154-.101c-.008.079.013.154.027.227zm-.033 1.043c.113.007.223.03.315-.034l.091-.294c-.029-.002-.059-.014-.087-.005a.705.705 0 0 1-.319.333zm-.054-.23.074-.075a.467.467 0 0 0 .146-.258c-.053-.031-.121-.01-.172.008-.018.106-.046.21-.048.325zm-.297-.538c.015.05.033.114.042.169.046-.102.137-.148.216-.231a.392.392 0 0 0-.153-.055v-.004c-.036.036-.091.072-.105.12zm.003 1.2.02.03c.082-.004.155-.04.235-.04.054.034.125.033.18.06.044.06.092.13.157.17.132.02.206.163.252.267v-.05a.355.355 0 0 0-.028-.216c-.033-.033-.08-.055-.115-.083-.006-.022-.001-.032.005-.052-.05-.054-.126-.083-.188-.126-.086-.126-.253-.091-.386-.126zm-.157.322a.105.105 0 0 0 .034.055c.074-.02.145-.07.229-.04.11.098.224.199.357.25l.048-.007c.029.01.062.01.081.044.018.044-.028.07-.042.107.073.053.044.15.089.215l.118-.157c-.027-.068.002-.186-.106-.192a.107.107 0 0 1-.059-.095c-.07-.064-.157-.092-.227-.157-.058-.046-.092-.116-.165-.133a.64.64 0 0 0-.165-.055c-.11-.017-.12.114-.192.165zm-.095.376c.038.01.072-.02.11-.004.15.056.307.114.42.24l.134.34.067-.21-.044-.114c-.038-.082-.141-.075-.211-.08-.029-.031.002-.07.012-.1.034-.117-.108-.11-.165-.157.003-.07-.082-.046-.13-.052l-.016-.02c-.01-.015-.034-.015-.048-.004-.003-.004-.009-.008-.006-.015l-.036.007a.236.236 0 0 0-.087.169zm-.44.97c.009.016 0 .04.017.045.024-.138.136-.227.196-.348.03-.041.028-.098.076-.13.063 0 .109.047.171.052.019.015-.01.027-.011.044-.013.11-.056.203-.048.317h.012c.086-.09.145-.19.209-.294l.011-.093c.015-.112-.106-.183-.184-.23l.07-.09-.098-.034a.45.45 0 0 0-.298.15c-.1.182-.116.389-.123.61zm-.403-.564c-.064.19-.112.426-.035.628.045-.03.09-.057.129-.098-.007-.153-.029-.318.062-.445.08.024.135.1.165.176a.3.3 0 0 0 .051-.255c.004-.072-.078-.055-.117-.086.012-.06.011-.13.075-.165l-.196.02c-.051.072-.107.143-.134.225zm-.405.176c-.009.126 0 .244.009.368.026.04.073.089.121.092l.008-.084c.02-.115-.042-.24.023-.337a.78.78 0 0 1 .131.059c.019-.107-.008-.233-.112-.3zm2.599-3.07.099-.093c.008 0 .014.002.019.008l-.008.18a.25.25 0 0 0 .168.063c.005-.048.043-.083.064-.126.018-.034.007-.085.043-.11l.011.013c.011.054.008.114.036.16l.011.083a.403.403 0 0 0 .193-.042c-.003-.062.018-.113.028-.17.015-.02-.019-.056.023-.054.023.049.063.099.086.152a.636.636 0 0 0 .157-.354c-.027-.037-.07-.037-.103-.062-.278-.09-.634-.107-.902.032a.416.416 0 0 0 .075.32zm4.404-.04c-.002.042-.033.09-.005.126.04-.044.104-.043.157-.062.146-.014.285.032.42.065-.034-.054-.057-.114-.095-.163-.075-.02-.189.032-.202-.08-.046-.038-.118-.011-.165-.007a.364.364 0 0 0-.11.12z" fill="#fff"/><path d="m22.907 15.493.13-.075v-.192c-.055.033-.084.089-.127.133zm-.063.51.094.295c-.002-.167.075-.306.06-.476l.07-.105-.15.046a.536.536 0 0 0-.074.24zm3.01 1.543c.075.093.191.055.297.058v-.011l-.163-.138a.43.43 0 0 0-.134.09zm-.09.585c.053.09.158.145.241.208.07.03.16.039.233.022a1.451 1.451 0 0 1-.193-.191c-.023-.033-.028-.073-.059-.103-.077.015-.164.013-.223.064zm-.205 1.993c.052.044.106.119.188.109.101.048.06.182.115.252l.058-.052-.005-.003.01-.008.002.005c.016-.05-.006-.136-.035-.194-.037-.026-.08.002-.117-.022-.005-.053-.038-.08-.076-.112-.025-.02-.06.006-.089.004z" fill="#fff"/><path d="M25.56 15.79c-.03.041-.079.051-.118.059a.556.556 0 0 0 .047-.443c.036-.013.075-.02.11-.039l-.003-.004.09-.078c.12-.082.073-.237.117-.353-.059-.092-.076-.203-.162-.28l.005-.003c-.067-.085-.188-.075-.28-.118-.12-.041-.214.043-.3.098-.038.007-.015.056-.056.054-.023.061-.05.126-.067.193-.162-.023-.337-.004-.466.087-.069-.051-.152-.061-.232-.084-.06-.011-.126.01-.169-.023-.062-.069-.075-.197-.182-.215-.037-.013-.045-.054-.045-.09-.07-.011-.133-.044-.2-.059-.106-.047-.19.028-.268.079-.034.014-.073.019-.106.039a1.54 1.54 0 0 0-.152.286.582.582 0 0 0 .09.227c.037.106.155.19.255.232a.973.973 0 0 0 0 .519l-.003.001-.005.005c-.016 0-.032.004-.046-.005a.711.711 0 0 0 .214.411c.043.015.033.066.051.098a.079.079 0 0 1 .008.059 1.283 1.283 0 0 0-.687.172c-.052.026-.029.098-.034.149.144-.096.3-.165.471-.197.073-.004.157-.023.227-.003l.008.141c-.194.101-.407.16-.573.327.003.05-.007.109.007.152l.15-.121c.143-.11.294-.203.46-.263.043.052.09.108.148.14.1-.064.208-.111.322-.14.061-.036.157-.004.196-.075l.028-.149c-.005-.004-.008-.01-.017-.009a.227.227 0 0 1-.12-.211.197.197 0 0 1-.087.023c-.026-.006-.05-.013-.062-.039 0-.033-.019-.082.015-.106.106-.066.244-.069.377-.059.1.013.244.008.28.126-.007.034-.003.072-.038.094-.035.02-.076-.001-.109-.016-.026.08-.07.17-.16.197l.011.094c.011.043.015.113.082.099.155.037.292.117.428.204.046-.046.082-.099.114-.146.243.082.452.264.652.432l.008-.137a2.223 2.223 0 0 0-.62-.381c.008-.044.018-.087.02-.135.26.015.506.096.721.221l-.004-.118c-.226-.12-.472-.2-.742-.204a.088.088 0 0 1-.012-.05c.131-.022.225-.157.256-.275.067-.077.163-.161.14-.275l.01-.03c.008-.028.016-.058.007-.085" fill="#fff"/><path d="M29.625 15.37c.086.007.149.084.208.148.073.012.128.064.172.118l-.027-.087a.56.56 0 0 0-.13-.222.637.637 0 0 0-.223.042zm-.64-.154a.347.347 0 0 0 .135.044.172.172 0 0 1 .12-.02c.06.04.135-.008.205-.005a.762.762 0 0 0-.204-.129c-.092.02-.165.085-.256.11zm.48 4.476.117.16c.05-.08.05-.197.03-.294-.01-.019-.031-.048-.061-.034-.044.045-.051.116-.086.168zm-.201.26c.05.1.162.176.173.292.026-.03.044-.067.062-.1-.002-.033-.04-.033-.054-.06-.015-.043.008-.08.014-.118a.313.313 0 0 0-.13-.153zm-.6-.717c.063-.018.104-.088.173-.095a.32.32 0 0 1 .263.135c.039.025.03.093.082.093-.015-.08.01-.154.008-.236-.068-.114-.24-.026-.302-.16l-.121.008c-.087.021-.064.123-.076.191-.01.022-.03.037-.027.064zm-.03-.53c.023.044.047.117.088.121.097-.042.237-.069.345-.023.036.007.036.047.028.073.055.034.123.06.182.095l-.017-.098c-.003-.106-.137-.116-.145-.22a.643.643 0 0 0-.348-.02c-.038.034-.092.03-.138.04-.003.012.005.021.006.031zm-.038.771c-.01.028-.037.073.014.087.104.003.238-.05.32.03.028.022.015.067.013.094l.137.114c.013-.068.038-.13.04-.204a.232.232 0 0 0-.083-.138c-.091 0-.143-.105-.24-.09-.05-.013-.094.032-.145.032-.023.022-.036.051-.056.075zm-.054-.972c.035.036.092.03.14.036l.143-.056c.002-.026-.042-.032-.032-.062.039-.044.093-.012.142-.03.068-.01.139-.079.208-.028-.003.007.003.02-.004.027-.021.051.015.082.054.102.08.014.155.088.235.055-.008-.067-.026-.129-.042-.193-.067-.01-.115-.067-.177-.09-.027.026-.063.046-.098.043-.126-.03-.277-.108-.403-.028-.046.055-.128.04-.19.063a.72.72 0 0 0 .024.161zm-.075-.365c0-.005 0-.01.005-.01.015.012-.002.043.023.05a.71.71 0 0 0 .12-.079c.11 0 .176-.106.283-.106.18.033.359.07.516.157-.012-.107-.103-.203-.196-.25-.053-.019-.094.01-.132.04-.11.068-.052-.1-.128-.104-.101.031-.203.066-.314.055-.066.025-.112.085-.185.08-.003.053-.011.118.008.167zm-.003-.337c.04-.012.083-.022.118-.052.109-.099.268-.033.396-.034a.956.956 0 0 0-.09-.126c-.046-.018-.09-.039-.141-.039-.112-.066-.186.044-.272.098-.023.044-.034.11-.011.153zm-.115 2.06c.047.02.105-.018.149-.044.04-.01.076.013.106.034.014.026 0 .051.006.075.098.028.194.065.28.121l.028-.027c.007-.07-.048-.12-.101-.16-.034-.02-.085-.009-.11-.04.017-.026.017-.066.015-.095a.243.243 0 0 1-.132-.042c-.028-.009-.053-.03-.076 0-.081.056-.086.137-.165.177zm-.392-1.197c.003.016.01.03.017.043.063.105.124.213.168.326-.013-.122.068-.272-.04-.365-.014-.039-.063-.026-.095-.023zm-.381-.778c.146.148.252.295.409.438.003-.065-.006-.123-.008-.186-.023-.044-.065-.076-.102-.109-.116-.012-.177-.168-.3-.143zm-.152 1.16c.083.077.054.19.047.291-.013.063.066.027.09.06.05.075.022.184.004.266.044-.067.095-.126.129-.2-.002-.027.034-.04.033-.075.014-.047-.041-.026-.064-.03-.02-.006-.041-.019-.034-.045.042-.082.003-.18-.013-.262-.02-.067.008-.157-.023-.216-.053.073-.21.09-.17.211zm-.08-.886a.48.48 0 0 1 .18.172c.058.166.15.317.217.48.025.112.044.213.075.323.012.03.005.087.05.082.014-.124.038-.243.04-.373-.041-.054-.094-.076-.146-.109v-.012c.007-.027.03-.06.065-.055.014-.016.058-.033.039-.062-.085-.085-.08-.232-.216-.258-.047-.02-.06-.068-.064-.114a.385.385 0 0 0-.24-.074zm-.108.435.085.165c.037-.005.062-.04.09-.066.024-.07-.036-.114-.055-.169-.014-.039 0-.092-.027-.126-.021-.013-.046-.034-.07-.028zm-.224.39c-.012.076.073.087.109.13.029.035-.02.06-.02.093a.44.44 0 0 1 .099.28c.024-.1.062-.196.075-.299-.006-.072-.121-.057-.103-.137.033-.082-.007-.162-.028-.236-.006-.01-.021-.034-.034-.028-.03.067-.103.115-.098.197zm-.005-.746c-.008.068.037.126.087.16.017-.04.047-.075.05-.12a.299.299 0 0 0-.118-.183c-.011.046-.024.09-.02.143zm-.404-.502c.085.065.22.072.319.04a1.08 1.08 0 0 1-.181-.118zm-.028 1.674.025.052c.025.171.132.327.073.514.049.034.064.092.095.138h.008c.038-.143.012-.29-.008-.432.015-.129-.116-.205-.193-.272zm-.34-1.444c.113.068.257.133.407.11.017-.008.045-.006.048-.026-.094-.033-.191-.126-.29-.145-.053-.084-.124.02-.192.014 0 .02.02.034.027.047zm-.087-.76c.025.034.032.078.056.11.045.03.11.024.164.02.049-.012.08.042.126.01-.057-.036-.092-.1-.146-.148-.064-.05-.132-.007-.2.008zm-.022-.479c.063.07.126.183.239.15-.01-.049-.035-.088-.051-.13-.03-.035-.04-.133-.098-.099-.045-.029-.056-.078-.084-.117-.012.06-.005.135-.006.196zm-.338-.519.133-.042.016-.075c.037-.11-.043-.192-.083-.278z" fill="#fff"/><path d="m25.215 14.723.145-.046c.084.04.164.088.239.144.061.11.051.26.023.386-.044.049-.141 0-.177.078h-.006c-.054-.153-.208-.291-.35-.361.023-.078.047-.156.126-.201zm-.354 1.853h.197l-.025.103-.196-.084c-.005-.016.013-.021.024-.02zm-.153-1.01c.041-.057.103-.062.162-.073l.423.008c.018.016-.016.03-.016.05-.026.026-.063.032-.086.054-.056.002-.051.068-.091.096-.06.06-.149.032-.219.022a.184.184 0 0 1-.063-.07l-.02.02c.024.092.018.193.036.286l.101.067c.002.15.178.11.256.193a.48.48 0 0 1-.094.146.537.537 0 0 0-.208-.126c-.007-.09-.103-.141-.156-.185-.015-.161-.018-.324-.044-.48zm.059-.437c.093-.017.088.104.173.109.015.019.036.037.028.067-.049.02-.121.01-.177.022-.074-.04-.026-.167-.142-.16-.007-.01-.019-.03-.003-.035a.26.26 0 0 1 .121-.003zm-.656.053c.07-.022.146-.07.221-.047-.054.054-.097.124-.138.19l-.224-.005a.324.324 0 0 1 .141-.138zm-.286 1.366c.07.01.143-.022.204.013-.013.023-.047.033-.075.039l-.11.05c-.041-.01-.018-.074-.019-.102zm-.18-1.066c.149-.013.293.008.446-.005a.194.194 0 0 1 .095.086c-.005.177-.059.346-.067.527-.067.028-.133.084-.149.157-.06.018-.114.054-.173.08-.026-.054-.021-.137.024-.183.064-.09.229-.07.216-.211.043-.07.002-.157.004-.23-.017-.053-.033.019-.059.018-.052.01-.106.014-.152-.012-.034-.036-.077-.066-.087-.114a.265.265 0 0 1-.122-.107zm-.123-.83.048.006c.127.063.333.096.345.28-.13.052-.254.12-.357.224-.078-.08-.237-.035-.263-.176.024-.133.072-.3.227-.333z" fill="#db812e"/></g></svg>