<svg height="36" viewBox="0 0 36 36" width="36" xmlns="http://www.w3.org/2000/svg"><mask id="a" fill="#fff"><path d="M0 .072h1v.856H0z" fill-rule="evenodd"/></mask><mask id="b" fill="#fff"><path d="M0 .074h1v.852H0z" fill-rule="evenodd"/></mask><mask id="c" fill="#fff"><path d="M0 .039h1.589V.96H0z" fill-rule="evenodd"/></mask><mask id="d" fill="#fff"><path d="M0 0h1.343v1.729H0z" fill-rule="evenodd"/></mask><mask id="e" fill="#fff"><path d="M0 .04h1.557v.92H0z" fill-rule="evenodd"/></mask><mask id="f" fill="#fff"><path d="M0 .075h1v.85H0z" fill-rule="evenodd"/></mask><mask id="g" fill="#fff"><path d="M0 .06h1v.88H0z" fill-rule="evenodd"/></mask><g fill="none" fill-rule="evenodd"><path d="M18 0c2.837 0 5.52.656 7.907 1.825C31.884 4.753 36 10.895 36 18c0 9.942-8.058 18-18 18-9.94 0-18-8.057-18-18C0 8.06 8.06 0 18 0z" fill="#f2f4f7" fill-rule="nonzero"/><path d="M4.309 21.267h.383v-5.959h-.383zm6.604-5.959v5.425h-.017l-4.45-5.425h-.483v5.96h.383v-5.426h.018l4.448 5.425h.485v-5.959zm12.677 0-2.428 5.475-2.429-5.475h-.435l2.646 5.96h.435l2.647-5.96zm1.13 5.959h.383v-5.959h-.384zm4.424-.2c1.795 0 2.78-1.353 2.78-2.78s-.985-2.779-2.78-2.779-2.78 1.352-2.78 2.78.985 2.78 2.78 2.78m0-5.894c2.42 0 3.165 1.944 3.165 3.113 0 1.17-.744 3.114-3.165 3.114s-3.163-1.938-3.163-3.114c0-1.175.742-3.113 3.163-3.113" fill="#626263"/><path d="m12.811 17.19-.446-.19a.083.083 0 0 0-.107.042.078.078 0 0 0 .036.105c.002 0 .004 0 .006.002l.446.19z" fill="#0063a6"/><path d="m14.837 15.718.048.484c.01.045.053.073.098.063a.082.082 0 0 0 .064-.078l-.055-.485z" fill="#5eaf36"/><path d="M.557.715.605.23A.084.084 0 0 0 .53.141a.083.083 0 0 0-.088.074L.395.699z" fill="#5eaf36" mask="url(#a)" transform="translate(14.942 15.003)"/><path d="m13.38 16.41.322.364a.085.085 0 0 0 .117 0 .084.084 0 0 0 0-.116l-.317-.36zm.536-.393-.248-.419a.08.08 0 1 0-.14.082l.249.42zm2.507 0-.248.42a.08.08 0 0 0 .027.11h.002c.039.023.088.01.112-.028l.246-.42zm.534.393.324-.368a.083.083 0 0 0 0-.115.084.084 0 0 0-.116 0l-.33.37z" fill="#5eaf36"/><g fill="#0063a6"><path d="m17.527 17.19-.446.192a.082.082 0 0 0-.058.1.082.082 0 0 0 .123.048l.446-.19zm.204.63.475-.105c.045-.009.072-.053.063-.097s-.052-.071-.095-.062l-.002.001-.475.105zm0 .97-.475-.106a.08.08 0 1 0-.034.158l.475.105zm-.204.629.446.19a.083.083 0 0 0 .107-.041.08.08 0 0 0-.036-.105l-.446-.19zm-.57.784-.322-.358a.08.08 0 0 0-.116.003.08.08 0 0 0-.006.105l.322.364zm-.534.39.246.419a.08.08 0 0 0 .114.018.08.08 0 0 0 .027-.1l-.248-.42zm-.923.298-.047-.475a.082.082 0 0 0-.098-.062.082.082 0 0 0-.064.078l.046.484z"/><path d="M.44.29.406.767a.081.081 0 1 0 .162.016L.596.304z" mask="url(#b)" transform="translate(14.397 20.602)"/><path d="m13.916 20.593.246-.42a.08.08 0 0 0-.027-.11h-.002a.08.08 0 0 0-.11.027l-.246.42zm-.536-.39-.322.364a.082.082 0 0 0-.003.116.08.08 0 0 0 .116.003l.009-.01.322-.365zm-.569-.784.446-.19a.082.082 0 0 0 .042-.107.084.084 0 0 0-.107-.042l-.446.19zm-.206-.629-.475.1a.081.081 0 0 0-.062.098c.01.045.054.072.098.062l.475-.106zm0-.97.477.105a.08.08 0 0 0 .095-.061.08.08 0 0 0-.06-.097l-.476-.105z"/></g><path d="M14.328 15.77c-.084.238-.113.718-.549.966.45-.103.627-.44.732-.854.105-.414.326-.746.792-.72a.789.789 0 0 0-.216-.032c-.381 0-.648.321-.763.64" fill="#5eaf36"/><path d="M12.586 18.432c.217.132.688.458.711.84.046-.489-.27-.84-.637-1.055-.259-.153-.652-.527-.582-.905-.139.433.11.88.508 1.12m1.669 2.227c-.312.258-.704.406-1.066.11.33.418.82.312 1.145.09.21-.142.516-.512 1.016-.454a.887.887 0 0 0-.358-.078 1.18 1.18 0 0 0-.74.332m2.884-.763c.147.381.164.797-.23 1.045.501-.18.554-.679.446-1.059-.07-.244-.325-.652-.11-1.106-.342.391-.26.721-.106 1.12m.105-3.001c.3-.03.837.037 1.003.382-.139-.426-.623-.637-1.087-.595-.252.023-.816.044-1.055-.258.252.422.714.515 1.145.47m-1.442 3.833c-.101.394-.332.742-.797.716.513.144.847-.23.98-.6.086-.24.116-.72.555-.965-.456.1-.631.435-.738.85m1.881-2.311c.342.22.6.55.428.983.3-.44.05-.876-.26-1.12-.191-.153-.647-.343-.74-.832-.05.464.214.736.572.97" fill="#0063a6"/><path d="M15.814 15.803c-.19.168-.632.515-1.013.416.452.191.881 0 1.2-.29.23-.202.708-.463 1.043-.282a.789.789 0 0 0-.469-.147 1.195 1.195 0 0 0-.763.303m-2.823.926c.073.245.332.649.124 1.106.078-.09.147-.082.19-.164.129-.253.048-.593-.098-.953-.147-.361-.174-.796.217-1.05-.5.19-.545.687-.431 1.065" fill="#5eaf36"/><path d="M13.163 19.909c.253-.021.818-.038 1.055.266-.25-.424-.712-.522-1.145-.482-.297.029-.835-.04-1.001-.381.137.425.62.64 1.083.603" fill="#0063a6"/><path d="M13.254 15.685a1.117 1.117 0 0 1 1.097.21c.345.315.496.452.994.408-.347-.015-.616-.362-.853-.549a1.127 1.127 0 0 0-.69-.256.9.9 0 0 0-.548.191" fill="#5eaf36"/><path d="M14.198 20.733c.094.454.49.782.954.79a1.112 1.112 0 0 1-.746-.826c-.09-.456-.14-.65-.572-.912.271.22.282.658.36.954m3.024-.992c-.46-.06-.664-.084-1.045.24.294-.19.713-.06 1.013-.044a.992.992 0 0 0 1.05-.655 1.121 1.121 0 0 1-1.02.459" fill="#0063a6"/><path d="M18.176 19.259c-.116.252-.572.512-.971.486.404.062.806-.117 1.03-.457.163-.326-.057-.796-.381-1.008.343.29.448.706.322.979m-1.902.664c-.322.168-.425.584-.47.805.066-.303.245-.57.5-.746a.974.974 0 0 1 .563-.053c.106.014.213.018.319.015-.227-.011-.44-.084-.64-.084a.574.574 0 0 0-.272.063" fill="#0063a6"/><path d="M.754.956c.36.052.736-.304.835-.68-.168.416-.528.648-.826.616C.466.858.105.492 0 .116c.063.403.355.732.748.84" fill="#0063a6" mask="url(#c)" transform="translate(14.398 20.567)"/><path d="M12.598 18.15c-.395.244-.692.612-.52 1.156-.063-.382.286-.75.54-.906.367-.219.775-.503.745-1.064a.766.766 0 0 1-.252.458 2.847 2.847 0 0 1-.513.356m.486 1.543c.316.016.582.014.805.218s.202.54.313.822c-.09-.32-.044-.656-.267-.872a.748.748 0 0 0-.542-.19c-.103.002-.207.01-.309.024" fill="#0063a6"/><path d="M12.079 19.306c.082.354.54.637.923.608-.328-.024-.774-.242-.865-.623-.08-.34.208-.674.482-.89-.404.262-.614.571-.54.905m1.171-1.667c-.145.238-.4.34-.652.51.294-.157.542-.125.652-.333a.812.812 0 0 0 .105-.394.713.713 0 0 1-.076.19" fill="#0063a6"/><path d="M13.254 15.685c-.32.174-.412.681-.265 1.043-.114-.434.038-.835.3-.986.26-.15.762-.082 1.073.163a1.05 1.05 0 0 0-.751-.296.758.758 0 0 0-.357.076m3.894 1.01c-.163.395-.321.807.038 1.24-.22-.315.032-.815.128-1.05.173-.432.19-.905-.27-1.237.277.267.218.763.104 1.047m-1.923-.397c.363.048.62-.215.784-.37-.263.176-.477.336-.774.304-.298-.033-.485-.315-.742-.476.263.205.425.5.732.542" fill="#5eaf36"/><path d="M15.946 15.702c.279-.17.763-.263 1.068 0 .265.224.233.664.14 1.002.169-.452.154-.826-.104-1.047a.737.737 0 0 0-.484-.159.983.983 0 0 0-.62.204" fill="#5eaf36"/><path d="M17.09 17.671c.038.363.418.62.605.746-.134-.116-.513-.353-.547-.746a1.797 1.797 0 0 1 .175-.786c-.14.3-.256.552-.233.786" fill="#0063a6"/><path d="M.008 0C.389.117.68.428.771.816c.093.455.135.655.572.913-.276-.203-.293-.651-.374-.94A.993.993 0 0 0 .015.007H0" fill="#5eaf36" mask="url(#d)" transform="translate(15.148 15.075)"/><path d="M12.953 19.72a.993.993 0 0 0 .307 1.2 1.114 1.114 0 0 1-.116-1.108c.19-.422.267-.609.074-1.073.09.338-.158.7-.265.981m2.039.555c.35.021.612.37.845.562a.995.995 0 0 0 1.238.085 1.12 1.12 0 0 1-1.095-.225c-.303-.286-.454-.428-.842-.428h-.146" fill="#0063a6"/><path d="M17.039 20.863c-.244.138-.773.072-1.072-.176.289.288.721.38 1.102.236.325-.168.428-.573.296-.982.101.443-.065.777-.326.922m-2.659-.302a.92.92 0 0 1 .718-.21c.277.031.481.32.735.485-.26-.208-.418-.507-.725-.553a.932.932 0 0 0-.729.286m-1.119.351c.263.254.723.19 1-.013-.382.2-.731.168-.954-.036s-.298-.708-.157-1.07c-.185.362-.142.8.11 1.12m-.075-2.051c.055.272-.155.556-.231.85.116-.313.345-.557.296-.864a.792.792 0 0 0-.468-.555c.246.191.342.273.403.572" fill="#0063a6"/><path d="M0 .635A.804.804 0 0 1 .782.112c.279.029.672.382.775.763A1.042 1.042 0 0 0 .793.048a.75.75 0 0 0-.789.595" fill="#5eaf36" mask="url(#e)" transform="translate(14.366 15.035)"/><path d="M17.712 18.186c-.364.224-.71.483-.713 1.01.05-.359.52-.624.736-.764.393-.248.688-.618.511-1.158.067.382-.278.752-.534.91m-1.32-1.449a.824.824 0 0 0 .674.172.82.82 0 0 1-.628-.221c-.208-.191-.28-.508-.393-.788.092.322.122.622.347.837" fill="#0063a6"/><path d="M17.09 18.936a.857.857 0 0 0 0 .794.858.858 0 0 1 .052-.764c.158-.22.365-.404.604-.534-.29.161-.532.298-.65.5m1.164-1.648c-.05-.347-.486-.6-.88-.6.445.05.764.32.814.606.049.286-.208.74-.55.936.412-.19.662-.642.618-.953m-5.084-.584c-.465-.034-.921.09-1.1.63.17-.344.67-.441.968-.414.426.036.866.06 1.172-.41-.235.303-.788.213-1.04.19" fill="#0063a6"/><path d="M12.079 17.319a.81.81 0 0 0 .319.975.833.833 0 0 1-.265-.954c.135-.321.572-.422.913-.435h-.116c-.421 0-.728.13-.851.417" fill="#0063a6"/><path d="M13.975 16.626c-.254.095-.526.13-.795.103.272.054.554.035.816-.057a.82.82 0 0 0 .479-.66.917.917 0 0 1-.5.614" fill="#5eaf36"/><path d="M.597.702.555.192A.064.064 0 0 0 .49.131a.099.099 0 0 0-.083.123L.45.717z" fill="#5eaf36" mask="url(#f)" transform="translate(14.395 15)"/><path d="m15.337 15.702-.046.485a.071.071 0 0 0 .065.076h.01a.073.073 0 0 0 .086-.055l.001-.006.046-.484zm-1.835.596-.322-.364a.073.073 0 0 0-.103-.005l-.004.005a.076.076 0 0 0-.017.106s0 .002.002.003l.322.368zm.275-.198.238.41c.023.037.067.035.105.012.038-.022.057-.057.036-.095l-.24-.41z" fill="#5eaf36"/><path d="m16.835 20.311.322.365c.03.032.063.013.092-.023a.097.097 0 0 0 0-.124l-.292-.326zm-.273.199-.257-.438a.064.064 0 0 0-.087-.022.057.057 0 0 0-.014.013.099.099 0 0 0-.021.122l.24.408z" fill="#0063a6"/><path d="m.398.318.047.45c0 .046.044.061.084.042A.1.1 0 0 0 .602.702L.56.302z" fill="#0063a6" mask="url(#g)" transform="translate(14.94 20.589)"/><path d="m14.992 20.907.055-.49c0-.044-.023-.071-.076-.066a.091.091 0 0 0-.088.077l-.046.458z" fill="#0063a6"/><path d="m16.562 16.1.258-.443a.058.058 0 0 0-.017-.08.058.058 0 0 0-.022-.008c-.047-.012-.09 0-.112.03l-.246.418zm.273.198-.338.382a.066.066 0 0 0 .01.09.091.091 0 0 0 .013.009.09.09 0 0 0 .122-.015l.315-.353z" fill="#5eaf36"/><path d="m13.777 20.51-.24.405c-.021.038-.008.069.043.086a.09.09 0 0 0 .113-.03l.223-.38zm-.275-.199.322-.364c.03-.034.02-.063-.024-.09a.09.09 0 0 0-.117 0l-.303.338zm4.09-2.971.524-.23s0-.028-.044-.068a.092.092 0 0 0-.116-.038l-.429.19zm.105.322-.458.1a.06.06 0 0 0-.042.093c.016.042.06.067.105.059l.43-.094zm-4.95 1.61-.505.22c-.016.01.013.036.043.068a.12.12 0 0 0 .119.036l.408-.176zm-.105-.324.443-.1a.074.074 0 0 0 .056-.088l-.001-.004a.077.077 0 0 0-.086-.066h-.004l-.446.1zm5.055 0 .46.103c.043.01.062-.03.057-.074a.1.1 0 0 0-.077-.097l-.406-.09zm-.105.324-.435-.19a.063.063 0 0 0-.084.03.07.07 0 0 0-.006.018.091.091 0 0 0 .054.111l.406.176zm-4.95-1.61-.488-.107c-.078-.017-.082 0-.08.065s.013.086.057.095l.475.105zm.105-.322.446.19c.04.018.069-.013.086-.055a.095.095 0 0 0-.055-.112l-.412-.176zm.158-.59.262-.061s.539.06.79-.055a1.95 1.95 0 0 0 .343-.191 1.36 1.36 0 0 1-.382.35 1.468 1.468 0 0 1-.33.097z" fill="#0063a6"/><path d="M15.986 15.85h.126s.063.19.095.323c.033.134.143.52.31.655a2.381 2.381 0 0 1-.34-.26 5.4 5.4 0 0 1-.191-.719m1.343.661v.319l-.117.345c-.088.25-.1.52-.034.778a1.108 1.108 0 0 1-.206-.488c.006-.13.03-.26.073-.382z" fill="#5eaf36"/></g></svg>