<svg height="36" viewBox="0 0 36 36" width="36" xmlns="http://www.w3.org/2000/svg"><mask id="a" fill="#fff"><path d="M0 0h1.444v4.59H0z" fill-rule="evenodd"/></mask><mask id="b" fill="#fff"><path d="M0 0h4.052v1H0z" fill-rule="evenodd"/></mask><g fill="none" fill-rule="evenodd"><path d="M18 0c2.837 0 5.52.656 7.907 1.825C31.884 4.753 36 10.895 36 18c0 9.942-8.058 18-18 18-9.94 0-18-8.057-18-18C0 8.06 8.06 0 18 0z" fill="#f2f4f7" fill-rule="nonzero"/><path d="M14.669 20.795h.871v-4.679h-.871zm4.415 0h-.765v-2.22c0-.463-.203-.712-.574-.74-.231-.02-.597.036-.863.095v2.865h-.764v-3.41s.93-.206 1.77-.205c.363 0 .653.129.87.347.218.217.326.52.326.909zm3.318-3.075c0-.566-.276-.848-.828-.848H20.6v1.68h.96c.264 0 .47-.073.62-.219s.222-.35.222-.614m.9 0c0 .477-.149.86-.443 1.148-.295.29-.695.434-1.2.434H20.6v1.494h-.856v-4.68h1.858c.547 0 .967.143 1.26.427.293.285.44.677.44 1.177m2.731 1.311c0-.352-.082-.63-.244-.834a.786.786 0 0 0-.649-.309.782.782 0 0 0-.647.312c-.163.207-.244.484-.244.83 0 .351.081.628.244.834a.787.787 0 0 0 .647.308.79.79 0 0 0 .65-.308c.161-.206.243-.483.243-.834m.8-.003c0 .56-.157 1.011-.47 1.353s-.722.513-1.223.513c-.499 0-.907-.17-1.22-.513-.315-.342-.47-.793-.47-1.353s.155-1.01.47-1.35c.313-.34.721-.51 1.22-.51.505 0 .914.17 1.226.51.311.34.467.79.467 1.35m3.327.644c0 .353-.138.642-.412.868-.274.228-.634.34-1.083.34-.698 0-1.238-.208-1.62-.624l.586-.493c.293.288.635.43 1.027.43.217 0 .39-.041.517-.127s.191-.194.191-.324c0-.147-.073-.25-.219-.305-.085-.033-.312-.076-.68-.132-.444-.065-.76-.161-.949-.291-.222-.157-.332-.393-.332-.708 0-.32.134-.586.403-.801.27-.216.628-.324 1.076-.324.543 0 1.005.179 1.388.535l-.46.486a1.4 1.4 0 0 0-.95-.368c-.453 0-.678.127-.678.382 0 .148.103.25.311.305.292.046.582.095.871.146.675.125 1.012.46 1.012 1.006" fill="#414042"/><path d="M1.43 4.541a1.615 1.615 0 0 1-.396.049c-.437 0-.726-.097-.865-.291C.056 4.146 0 3.856 0 3.431V0h.765v1.009h.679v.624H.765v1.749c0 .204.026.339.078.403.061.083.191.125.389.125.057 0 .122-.005.198-.014z" fill="#414042" mask="url(#a)" transform="translate(30.556 16.254)"/><g fill="#ffcb04"><path d="M4.052.5s-.907.351-2.026.351S0 .5 0 .5.907.149 2.026.149 4.052.5 4.052.5" mask="url(#b)" transform="translate(4 17.95)"/><path d="M10.854 13.293s-.804-.541-1.43-1.45C8.799 10.933 8.588 10 8.588 10s.804.542 1.43 1.451c.624.909.835 1.842.835 1.842m-2.052 2.225s-.969-.108-1.957-.623c-.987-.515-1.62-1.242-1.62-1.242s.97.108 1.956.623c.988.515 1.621 1.242 1.621 1.242m1.914 4.497c.586-.18 1.083-.437 1.083-.437s-1.381-.385-1.28-1.827c.317-2.367 2.234-4.226 4.633-4.525a5.403 5.403 0 0 0-.78-.052c-2.967.013-5.362 2.382-5.348 5.292.013 2.908 2.43 5.257 5.398 5.243.247 0 .49-.02.729-.051-2.106-.264-3.82-1.72-4.435-3.643m.139 3.571s-.804.54-1.43 1.45c-.625.91-.836 1.843-.836 1.843s.804-.541 1.43-1.45a5.957 5.957 0 0 0 .835-1.843m-2.052-2.225s-.969.107-1.957.623c-.987.515-1.62 1.241-1.62 1.241s.97-.107 1.956-.623a6.105 6.105 0 0 0 1.621-1.24"/></g></g></svg>