<svg width="36" height="36" fill="none" xmlns="http://www.w3.org/2000/svg"><path d="M18 0c2.837 0 5.52.656 7.907 1.825C31.884 4.753 36 10.895 36 18c0 9.942-8.058 18-18 18-9.94 0-18-8.057-18-18C0 8.06 8.06 0 18 0z" fill="#F2F4F7"/><path d="M22.334 16.552C21.502 12.249 17.721 9 13.184 9c-4.538 0-8.319 3.249-9.151 7.552h5.374a4.166 4.166 0 0 1 7.462 0h5.465z" fill="#FDB813"/><path d="M22.334 16.552C21.502 12.249 17.721 9 13.184 9c-4.538 0-8.319 3.249-9.151 7.552h5.374a4.166 4.166 0 0 1 7.462 0h5.465z" stroke="#231F20" stroke-width=".15" stroke-miterlimit="3.864"/><path d="M22.165 20.376c-.832 4.303-4.917 7.398-8.981 7.398-4.538 0-8.319-3.095-9.151-7.398h5.375c.682 1.37 2.096 2.22 3.73 2.22 1.212 0 2.88-.85 3.562-2.22h5.465z" fill="#FDB813"/><path d="M22.165 20.376c-.832 4.303-4.917 7.398-8.981 7.398-4.538 0-8.319-3.095-9.151-7.398h5.375c.682 1.37 2.096 2.22 3.73 2.22 1.212 0 2.88-.85 3.562-2.22h5.465z" stroke="#231F20" stroke-width=".15" stroke-miterlimit="3.864"/><path d="M4 20.094h1.343V16.83H4v3.263zm4.002-.001-1.117-1.492v1.492H5.58v-3.262h1.192l1.018 1.342-.003-1.342h1.305v3.262h-1.09zm18.616.001h1.379V16.83h-1.38v3.263z" fill="#231F20"/><path d="M26.618 20.094h2.593v-1.055h-2.593v1.055zm2.789 0h1.378V16.83h-1.378v3.263z" fill="#231F20"/><path d="M29.407 20.094H32v-1.055h-2.593v1.055zm-19.178 0h1.28V16.83h-1.28v3.263z" fill="#231F20"/><path d="M9.32 17.861h3.098v-1.03H9.32v1.03zm3.272 2.233h1.305V16.83h-1.305v3.263z" fill="#231F20"/><path d="M12.592 17.85h2.523v-1.018h-2.523v1.017zm0 2.244h2.523v-1.018h-2.523v1.018zm0-1.367h2.523v-.553h-2.523v.553z" fill="#231F20"/><path fill-rule="evenodd" clip-rule="evenodd" d="M17.473 18.301c.299 0 .304-.204.304-.308 0-.111-.006-.316-.304-.316h-.653v.624h.653zm-2.058-1.47h1.405v3.262h-1.405v-3.262zm1.405 0h1.065c.741 0 1 .533 1 1.12a.972.972 0 0 1-.782.97l1.152 1.172h-1.32l-1.115-1.038V16.83zm4.525 1.47c.298 0 .304-.204.304-.308 0-.111-.006-.316-.304-.316h-.653v.624h.653zm-2.058-1.47h1.405v3.262h-1.405v-3.262zm1.405 0h1.064c.742 0 1.001.533 1.001 1.12a.972.972 0 0 1-.782.97l1.151 1.172h-1.32l-1.114-1.038V16.83z" fill="#231F20"/><path fill-rule="evenodd" clip-rule="evenodd" d="M25.114 19.035a.434.434 0 0 1-.868 0l.002-1.199a.432.432 0 1 1 .865 0l.001 1.199zm-2.246-.541a1.788 1.788 0 1 1 3.576 0 1.788 1.788 0 0 1-3.576 0z" fill="#231F20"/></svg>