<svg height="36" viewBox="0 0 36 36" width="36" xmlns="http://www.w3.org/2000/svg"><g fill="none"><path d="M18 0c2.837 0 5.52.656 7.907 1.825C31.884 4.753 36 10.895 36 18c0 9.942-8.058 18-18 18-9.94 0-18-8.057-18-18C0 8.06 8.06 0 18 0z" fill="#f2f4f7"/><g fill="#0e7dc2"><path d="M17.3 25.228c-5.533.51-11.3-.294-12.107-4.618-.395-2.131.577-4.392 1.865-5.797v-.75c-2.32 2.035-3.578 4.61-2.853 7.652.925 3.902 5.873 6.111 13.428 5.378 2.99-.29 6.9-1.252 9.621-2.746v-2.121c-2.469 1.47-6.552 2.686-9.954 3.002zm14.576-11.216C30.564 7.605 18.123 7.2 10.103 12.081v.539c8.01-4.119 19.373-4.094 20.407 1.809.347 1.952-.752 3.987-2.717 5.158v1.531c2.363-.867 4.788-3.67 4.083-7.106z"/><path d="M26.807 13.08h-1.45v6.46c0 .758.365 1.416 1.45 1.521zM9.533 15.438H8.08v4.22c0 .76.366 1.418 1.453 1.522zM8.08 13.276h1.45v1.375H8.08zm10.141 7.838c-1.174 0-1.67-.816-1.67-1.62v-5.605h1.437v1.55h1.083V16.6h-1.083v2.805c0 .328.156.51.498.51h.585v1.199zm2.646-2.388c0 .736.46 1.277 1.275 1.277.638 0 .952-.177 1.32-.541l.89.846c-.57.563-1.167.905-2.22.905-1.377 0-2.696-.75-2.696-2.94 0-1.873 1.153-2.93 2.663-2.93 1.536 0 2.419 1.238 2.419 2.864v.52h-3.65m1.168-2.195c-.492 0-.87.253-1.03.595a1.486 1.486 0 0 0-.139.618h2.217c-.028-.618-.309-1.213-1.048-1.213zm-8.597.068c.422 0 .597.209.597.547v3.975h1.439V17.14c0-.808-.43-1.699-1.694-1.699l-2.97-.001v5.683h1.438V16.6zm14.929-2.366a.574.574 0 0 1-.575-.577c0-.318.255-.578.575-.578.318 0 .58.26.58.578a.58.58 0 0 1-.58.577zm0-1.058a.48.48 0 1 0 .482.48.485.485 0 0 0-.482-.48zm.256.827h-.108a.024.024 0 0 1-.022-.015l-.146-.248a.043.043 0 0 0-.02-.011h-.067v.247c0 .012-.009.027-.025.027h-.097c-.014 0-.024-.015-.024-.027v-.623c0-.037.012-.052.044-.057a2.3 2.3 0 0 1 .177-.008c.18 0 .286.053.286.22v.012c0 .103-.051.16-.13.185l.152.258a.046.046 0 0 1 .003.018c0 .01-.005.022-.023.022zm-.14-.495c0-.07-.043-.092-.136-.092h-.092v.198l.092.003c.093 0 .136-.03.136-.097z"/></g></g></svg>