<svg width="36" height="36" fill="none" xmlns="http://www.w3.org/2000/svg"><defs><linearGradient id="a" x1="16.94" y1="15.538" x2="4.536" y2="15.657" gradientUnits="userSpaceOnUse"><stop stop-color="#73A434"/><stop offset=".92" stop-color="#CADB2F"/></linearGradient><linearGradient id="b" x1="5.787" y1="18.052" x2="12.197" y2="19.166" gradientUnits="userSpaceOnUse"><stop stop-color="#73A434"/><stop offset="1" stop-color="#CADB2F"/></linearGradient></defs><path d="M18 0c2.837 0 5.52.656 7.907 1.825C31.884 4.753 36 10.895 36 18c0 9.942-8.058 18-18 18-9.94 0-18-8.057-18-18C0 8.06 8.06 0 18 0z" fill="#F2F4F7"/><path d="M12.716 16.378c-4.027 1.596-7.489.154-8.716-.769 4.867 4.677 8.626 3.247 10.354 1.698 1.4-1.251 2.818-2.026 3.348-2.264-1.418-.256-3.348.685-4.986 1.335z" fill="url(#a)"/><path d="M13.175 18.403c-3.17 1.8-6.244.096-7.388-.977.37.793 2.21 2.95 4.23 2.914 1.62-.03 2.782-1.305 3.158-1.937z" fill="url(#b)"/><path fill-rule="evenodd" clip-rule="evenodd" d="M13.532 18.874a.298.298 0 1 1 .596 0v2.383a.298.298 0 0 1-.596 0v-2.383zm3.872 0c0 .166.131.297.298.297h.596v2.085a.298.298 0 0 0 .596 0v-2.085h.595a.298.298 0 0 0 0-.595h-1.787a.298.298 0 0 0-.298.298zm12.51-.298a.298.298 0 0 0-.297.298v2.383a.298.298 0 1 0 .596 0v-.894h1.191v.893a.298.298 0 0 0 .596 0v-2.382a.298.298 0 1 0-.596 0v.893h-1.191v-.893a.298.298 0 0 0-.298-.298zm-15.19.298a.298.298 0 0 1 .553-.15l1.234 1.68v-1.53a.298.298 0 0 1 .595 0v2.383a.298.298 0 0 1-.292.297.256.256 0 0 1-.208-.083.299.299 0 0 1-.06-.072l-1.227-1.668v1.525a.298.298 0 0 1-.596 0v-2.382zm8.34 1.191a1.49 1.49 0 1 1-2.98 0 1.49 1.49 0 0 1 2.98 0zm-.596 0a.894.894 0 1 1-1.787 0 .894.894 0 0 1 1.787 0zm1.787-1.191a.298.298 0 0 0-.595 0v1.489a1.192 1.192 0 0 0 2.383 0v-1.49a.298.298 0 0 0-.596 0v1.49a.596.596 0 0 1-1.192 0v-1.49zm4.891 2.263c.108-.1.09-.268-.024-.369-.13-.12-.333-.083-.476.018a.894.894 0 1 1-.024-1.466c.143.096.328.12.459.018.119-.101.143-.28.024-.381a1.49 1.49 0 0 0-2.467 1.108 1.49 1.49 0 0 0 2.508 1.072z" fill="#463738"/></svg>