<svg width="36" height="36" fill="none" xmlns="http://www.w3.org/2000/svg"><path d="M18 0c2.837 0 5.52.656 7.907 1.825C31.884 4.753 36 10.895 36 18c0 9.942-8.058 18-18 18-9.94 0-18-8.057-18-18C0 8.06 8.06 0 18 0z" fill="#F2F4F7"/><path d="m8.086 18.321.474-.475a.255.255 0 0 0 0-.36l-1.408-1.412a.255.255 0 0 0-.36 0l-.475.475-.474-.474c-.1-.1-.26-.1-.36 0l-1.409 1.411a.255.255 0 0 0 0 .36l.475.475-.475.475a.257.257 0 0 0 0 .361l1.41 1.41c.099.1.26.1.359 0l.474-.474.474.475c.1.1.26.1.36 0l1.409-1.41a.255.255 0 0 0 0-.36l-.474-.477z" fill="#9FCC3B"/><path d="M5.78 19.555a.255.255 0 0 1-.068-.24l.122-.51-.509.122a.254.254 0 0 1-.24-.068l-.536-.538-.475.475a.257.257 0 0 0 0 .361l1.41 1.41c.099.1.26.1.359 0l.474-.474-.537-.538z" fill="#00A651"/><path d="M6.649 18.177a.253.253 0 0 0-.188-.188l-1.136-.274a.254.254 0 0 0-.24.068l-.536.538.537.538a.254.254 0 0 0 .24.068l1.135-.274a.255.255 0 0 0 .188-.188l.033-.144-.033-.144z" fill="#109447"/><path d="M6.173 17.989a.255.255 0 0 0-.187.188l-.274 1.138a.255.255 0 0 0 .068.24l.537.538.537-.538a.255.255 0 0 0 .068-.24l-.274-1.138a.253.253 0 0 0-.187-.188l-.144-.034-.144.034z" fill="#109447"/><path d="M5.986 18.465a.251.251 0 0 0 .187.188l1.136.274a.254.254 0 0 0 .24-.068l.537-.538-.538-.538a.254.254 0 0 0-.239-.068l-1.136.274a.253.253 0 0 0-.187.188l-.035.144.035.144z" fill="#65BC46"/><path d="M6.461 18.653a.253.253 0 0 0 .187-.188l.274-1.137a.255.255 0 0 0-.068-.24l-.537-.538-.537.538a.255.255 0 0 0-.068.24l.274 1.137a.255.255 0 0 0 .187.188l.144.035.144-.035z" fill="#65BC46"/><path d="M5.986 18.465a.251.251 0 0 0 .187.188l.144.035.144-.035a.251.251 0 0 0 .188-.188l.15-.626-.626.15a.253.253 0 0 0-.187.188l-.035.144.035.144z" fill="#3EAF49"/><path d="M6.461 18.653a.253.253 0 0 0 .188-.188l.035-.144-.035-.144a.251.251 0 0 0-.188-.188l-.627-.15.15.628a.255.255 0 0 0 .188.187l.144.035.145-.036z" fill="#0F8140"/><path d="M6.173 17.989a.255.255 0 0 0-.187.188l-.035.144.035.144a.253.253 0 0 0 .187.188l.625.15-.15-.627a.253.253 0 0 0-.187-.188l-.144-.034-.144.035z" fill="#0F8140"/><path d="M6.649 18.177a.253.253 0 0 0-.188-.188l-.144-.034-.144.034a.255.255 0 0 0-.187.188l-.152.628.627-.15a.255.255 0 0 0 .188-.189l.033-.144-.033-.145z" fill="#0F8140"/><path d="M6.649 18.177a.253.253 0 0 0-.188-.188l-.144-.034-.144.034a.255.255 0 0 0-.187.188l-.035.144.035.144a.251.251 0 0 0 .187.188l.144.034.144-.034a.255.255 0 0 0 .188-.188l.033-.144-.034-.144z" fill="#0F743B"/><path d="M9.763 17.061c0-.108.09-.176.206-.176.116 0 .206.07.206.176v.017c0 .108-.09.18-.206.18-.116 0-.206-.072-.206-.18v-.017z" fill="#9FCC3B"/><path d="M9.791 17.647c0-.101.078-.181.18-.181a.18.18 0 0 1 .18.181v1.247c0 .102-.08.18-.18.18a.178.178 0 0 1-.18-.18v-1.247zm.715.001c0-.102.078-.182.18-.182a.18.18 0 0 1 .18.181v.078c.102-.147.247-.275.492-.275.354 0 .56.239.56.602v.841c0 .102-.078.18-.18.18a.178.178 0 0 1-.18-.18v-.73c0-.245-.123-.385-.337-.385-.208 0-.354.147-.354.39v.725c0 .102-.08.18-.182.18a.178.178 0 0 1-.179-.18v-1.245zm2.329 1.44h-.017c-.098 0-.164-.063-.206-.157l-.524-1.203c-.008-.026-.02-.056-.02-.09a.18.18 0 0 1 .179-.172c.098 0 .149.056.179.13l.403 1.045.41-1.05c.027-.062.076-.124.17-.124.098 0 .176.074.176.173a.218.218 0 0 1-.021.086l-.524 1.205c-.04.092-.107.157-.205.157z" fill="#000101"/><path d="M13.761 17.061c0-.108.09-.176.206-.176.116 0 .205.07.205.176v.017c0 .108-.09.18-.205.18-.116 0-.206-.072-.206-.18v-.017z" fill="#9FCC3B"/><path d="M13.788 17.647c0-.101.077-.181.179-.181a.18.18 0 0 1 .181.181v1.247c0 .102-.08.18-.181.18a.178.178 0 0 1-.18-.18v-1.247zm.772.976v-.829h-.059a.155.155 0 0 1-.154-.155c0-.086.069-.155.155-.155h.059v-.27a.18.18 0 0 1 .181-.179.18.18 0 0 1 .18.18v.269h.282c.086 0 .157.069.157.155a.157.157 0 0 1-.157.155h-.283v.772c0 .14.072.196.194.196.04 0 .077-.008.09-.008.08 0 .15.065.15.149a.157.157 0 0 1-.095.14.72.72 0 0 1-.247.043c-.265 0-.452-.117-.452-.463zm2-.131v-.108a1.007 1.007 0 0 0-.358-.063c-.232 0-.369.098-.369.263v.006c0 .153.134.239.306.239.239 0 .42-.137.42-.337zm-1.079.114V18.6c0-.34.265-.507.65-.507.175 0 .301.027.423.066v-.04c0-.223-.136-.342-.39-.342a.932.932 0 0 0-.348.063.194.194 0 0 1-.057.009.15.15 0 0 1-.15-.15c0-.065.044-.122.097-.143a1.34 1.34 0 0 1 .506-.092c.235 0 .411.063.521.176.116.114.17.28.17.486v.775a.172.172 0 0 1-.176.174c-.104 0-.175-.072-.175-.152v-.059a.638.638 0 0 1-.512.229c-.297-.001-.559-.17-.559-.487zm1.797.017v-.829h-.06a.154.154 0 0 1-.154-.155c0-.086.068-.155.154-.155h.06v-.27a.18.18 0 0 1 .36 0v.27h.283c.086 0 .157.069.157.155a.157.157 0 0 1-.157.155h-.283v.772c0 .14.071.196.194.196.04 0 .077-.008.09-.008.08 0 .151.065.151.149a.157.157 0 0 1-.095.14.72.72 0 0 1-.247.043c-.266 0-.453-.117-.453-.463z" fill="#000101"/><path d="M18.262 17.061c0-.108.09-.176.206-.176.116 0 .206.07.206.176v.017c0 .108-.09.18-.206.18-.116 0-.206-.072-.206-.18v-.017z" fill="#9FCC3B"/><path d="M18.289 17.647c0-.101.077-.181.179-.181a.18.18 0 0 1 .181.181v1.247c0 .102-.08.18-.181.18a.178.178 0 0 1-.18-.18v-1.247zm1.938.633v-.006c0-.277-.2-.508-.483-.508-.289 0-.473.227-.473.502v.006c0 .274.2.504.48.504.29 0 .476-.226.476-.498zm-1.316 0v-.006c0-.45.356-.823.84-.823.482 0 .836.367.836.817v.006c0 .447-.357.82-.843.82a.813.813 0 0 1-.833-.814zm1.939-.632c0-.102.077-.182.179-.182a.18.18 0 0 1 .181.181v.078c.102-.147.247-.275.491-.275.355 0 .56.239.56.602v.841c0 .102-.077.18-.179.18a.178.178 0 0 1-.181-.18v-.73c0-.245-.122-.385-.337-.385-.207 0-.354.147-.354.39v.725c0 .102-.08.18-.181.18a.178.178 0 0 1-.18-.18v-1.245z" fill="#000101"/><path d="M22.899 16.983c0-.063.05-.116.112-.116.066 0 .116.053.116.116v.802a.584.584 0 0 1 .528-.301c.371 0 .589.25.589.618v.855a.115.115 0 1 1-.229 0v-.8c0-.285-.155-.465-.426-.465-.264 0-.462.194-.462.484v.781a.112.112 0 0 1-.113.117.115.115 0 0 1-.116-.117v-1.974zm2.92 1.313v-.006c0-.331-.247-.602-.572-.602-.334 0-.563.27-.563.596v.006c0 .33.245.6.569.6.334 0 .566-.27.566-.594zm-1.37 0v-.006c0-.436.34-.806.802-.806.463 0 .801.365.801.8v.006a.8.8 0 0 1-.806.806.79.79 0 0 1-.798-.8zm1.826-.678a.115.115 0 1 1 .23 0v.158c.101-.152.238-.292.497-.292.25 0 .411.134.495.308.11-.17.273-.308.542-.308.354 0 .572.239.572.62v.853a.115.115 0 1 1-.229 0v-.8c0-.297-.149-.465-.4-.465-.231 0-.421.174-.421.478v.787a.115.115 0 1 1-.23 0v-.805c0-.29-.152-.46-.396-.46-.243 0-.428.203-.428.486v.778c0 .066-.047.117-.112.117a.115.115 0 0 1-.116-.117v-1.338h-.004zm3.772.586c-.025-.282-.184-.525-.492-.525-.267 0-.47.224-.5.525h.992zm-.457.89c-.422 0-.768-.324-.768-.802v-.006c0-.445.314-.802.74-.802.455 0 .714.373.714.781 0 .063-.05.108-.107.108h-1.114c.032.335.267.523.541.523.192 0 .33-.074.445-.18a.103.103 0 0 1 .065-.026.1.1 0 0 1 .101.098.102.102 0 0 1-.036.075.787.787 0 0 1-.58.231zm.81-.2a.104.104 0 0 1-.04-.083.1.1 0 0 1 .101-.099.09.09 0 0 1 .057.019.863.863 0 0 0 .489.163c.185 0 .318-.095.318-.245v-.006c0-.155-.181-.214-.384-.271-.241-.07-.51-.153-.51-.435v-.006c0-.266.22-.441.524-.441.163 0 .342.05.491.13.03.019.057.052.057.096a.1.1 0 0 1-.1.098.119.119 0 0 1-.051-.012.824.824 0 0 0-.402-.118c-.181 0-.297.095-.297.224v.006c0 .146.19.202.395.265.238.072.495.164.495.441v.006c0 .292-.24.463-.548.463a1.06 1.06 0 0 1-.594-.195zm1.235-1.384v.03h.06v.158h.034v-.158h.06v-.03h-.154zm.33 0-.058.089-.057-.09h-.036v.19h.032v-.136l.06.09h.001l.06-.09v.135H32v-.189h-.035z" fill="#9FCC3B"/></svg>