<svg height="36" viewBox="0 0 36 36" width="36" xmlns="http://www.w3.org/2000/svg"><mask id="a" fill="#fff"><path d="M0 0h5.51v1.135H0z" fill-rule="evenodd"/></mask><mask id="b" fill="#fff"><path d="M0 0h5.565v1.193H0z" fill-rule="evenodd"/></mask><mask id="c" fill="#fff"><path d="M0 0h8.721v6.415H0z" fill-rule="evenodd"/></mask><mask id="d" fill="#fff"><path d="M0 .225h1.479v.55H0z" fill-rule="evenodd"/></mask><mask id="e" fill="#fff"><path d="M0 .224h1.468v.552H0z" fill-rule="evenodd"/></mask><mask id="f" fill="#fff"><path d="M0 .015h1v.97H0z" fill-rule="evenodd"/></mask><mask id="g" fill="#fff"><path d="M0 .19h1v.62H0z" fill-rule="evenodd"/></mask><mask id="h" fill="#fff"><path d="M0 .147h1v.706H0z" fill-rule="evenodd"/></mask><mask id="i" fill="#fff"><path d="M0 .134h1v.732H0z" fill-rule="evenodd"/></mask><mask id="j" fill="#fff"><path d="M0 .15h1v.7H0z" fill-rule="evenodd"/></mask><mask id="k" fill="#fff"><path d="M0 .167h1v.666H0z" fill-rule="evenodd"/></mask><mask id="l" fill="#fff"><path d="M0 .166h1v.668H0z" fill-rule="evenodd"/></mask><g fill="none" fill-rule="evenodd"><path d="M18 0c2.837 0 5.52.656 7.907 1.825C31.884 4.753 36 10.895 36 18c0 9.942-8.058 18-18 18-9.94 0-18-8.057-18-18C0 8.06 8.06 0 18 0z" fill="#f2f4f7" fill-rule="nonzero"/><path d="M5.51.225c-.094.229-.094.479-.158.713-.018.066.007.147-.063.197-.044-.044-.1-.026-.15-.026H.184C.157.781.054.466.006.142-.011.033.006 0 .115 0 1.913.003 3.712.003 5.51.004z" fill="#212c64" mask="url(#a)" transform="translate(26.489 15.255)"/><path d="M5.565.063C3.765.062 1.967.062.169.059.059.059.043.092.059.2c.05.325.152.639.179.967l-.001.026C.183 1.185.2 1.137.194 1.106.133.797.083.486.012.18-.025.023.025-.008.168.003c.15.011.304.002.456.002H5.36c.069 0 .137-.003.205-.005z" fill="#495175" mask="url(#b)" transform="translate(26.435 15.196)"/><path d="M.792.015c.215 0 .43.008.646-.003.126-.007.17.035.19.158.143.86.294 1.718.442 2.576l.312 1.785c.01.059-.018.159.082.158.084 0 .068-.094.08-.15.307-1.351.609-2.704.915-4.056.09-.397.2-.481.608-.482.247-.001.495-.002.74 0 .352.003.47.099.547.439a2550.37 2550.37 0 0 0 .928 4.133c.01.046 0 .12.077.116.077-.004.058-.076.066-.123.26-1.469.519-2.937.772-4.407.02-.124.068-.148.18-.146.406.006.81.005 1.215.001.104-.002.149.009.12.135-.435 1.947-.865 3.894-1.3 5.842-.073.334-.181.42-.52.422-.336.003-.672.001-1.01.001-.443-.001-.528-.07-.627-.51l-.811-3.579c-.012-.055.01-.147-.077-.15-.091-.003-.07.093-.082.146-.27 1.192-.534 2.386-.801 3.58-.016.071-.032.143-.054.214-.054.172-.172.285-.352.289a29.84 29.84 0 0 1-1.371-.001c-.231-.006-.33-.128-.39-.402L.939 4.31C.63 2.926.325 1.542.01.16-.02.033.007.008.13.013c.22.009.44.002.662.002" fill="#222d64" mask="url(#c)" transform="translate(13.783 15.19)"/><path d="m8.668 17.271-.07.006c-.098.031-.055.115-.055.174-.002 1.308-.003 2.615 0 3.923 0 .12-.026.167-.156.163a19.337 19.337 0 0 0-.993 0c-.138.004-.182-.042-.182-.181.004-1.98.004-3.96 0-5.94 0-.124.033-.165.16-.161.518.016 1.037-.021 1.555.024l-.01.003.01-.004c.012.054.052.063.098.063l-.008.013.008-.013c-.002.024.008.034.032.029l.002.003c-.004.023.005.033.029.031l-.01.006.01-.005c-.003.023.007.034.029.036l-.008.004.007-.006a.902.902 0 0 0 .255.443l-.001-.002c.018.133.07.246.18.326l.007.012c.006.097.029.186.128.233l-.007.005.006-.006c.006.147.089.252.192.346l-.008.004.007-.006a.51.51 0 0 0 .19.348l-.01.006.01-.007c.003.096.03.178.124.225l-.001-.002c-.008.032-.005.058.035.062l-.01.007.009-.008c.02.139.075.26.192.346a.027.027 0 0 0-.008.007l.008-.007c.01.117.043.223.156.285l-.01.009.009-.01c.015.116.045.224.16.284l-.01-.001.009.002c.064.238.186.445.347.63l-.011.009.01-.009c.006.1.032.19.135.234l.008.007c.038.081.075.056.108-.003.03-.054.02-.113.02-.17 0-1.208.003-2.415-.002-3.623 0-.125.035-.163.16-.16.336.008.673.01 1.008-.001.144-.004.187.059.189.182.002.084 0 .168 0 .252v5.625c0 .215-.007.229-.22.22-.466-.02-.94.068-1.398-.076l-.005-.005c.005-.023-.004-.032-.027-.025l-.004-.004c.009-.039-.017-.045-.046-.048v.001c-.095-.249-.254-.463-.374-.699-.055-.108-.097-.229-.205-.302l.008-.007-.008.008c.009-.032.008-.059-.036-.06l.013-.006-.013.005a.337.337 0 0 0-.156-.284c.02-.014-.003.003 0 0-.016-.089-.025-.18-.124-.222l.009-.008-.01.009c-.004-.095-.027-.18-.125-.223l.005-.01-.004.011c-.018-.119-.051-.231-.166-.295l-.021-.043c-.017-.117-.044-.229-.163-.29l.014-.006-.014.005c-.024-.102-.033-.211-.147-.262v.001c-.01-.101-.027-.198-.134-.246l.006-.009-.006.009c.008-.031.007-.058-.035-.059l.01-.006-.011.005c.009-.102-.043-.17-.124-.223l.012-.008-.011.009a1.024 1.024 0 0 0-.282-.507l.007-.004-.006.005a.517.517 0 0 0-.193-.346l.013-.005-.013.006c.008-.039.02-.084-.048-.048" fill="#e12627"/><path d="M4.003 18.398c0-1.008.003-2.016-.003-3.024-.001-.145.042-.174.177-.171.399.008.798.006 1.197 0 .105-.001.133.032.132.135-.002 2.038-.003 4.076.001 6.113 0 .11-.04.13-.137.13a40.874 40.874 0 0 0-1.213 0c-.125.003-.157-.035-.156-.158.004-1.008.002-2.016.002-3.025" fill="#e02929"/><path d="M23.74 21.534c-.001-.053-.005-.104-.005-.157 0-2.002.002-4.004-.004-6.005-.001-.145.04-.173.175-.17.398.01.798.004 1.197.002.076 0 .127.001.126.104-.004 2.07-.005 4.14-.006 6.21 0 .005-.003.01-.003.016z" fill="#222c63"/><path d="M28.482 21.53c-.003-.394-.008-.786-.01-1.179-.001-.45-.001-.902.002-1.353 0-.046-.033-.104.027-.14.047.047.108.025.164.026l1.285.001c.002.674.006 1.348.007 2.022 0 .21-.005.418-.007.626-.49 0-.98-.003-1.468-.004" fill="#222d63"/><path d="M27.677 18.16c-.07-.35-.139-.698-.212-1.047-.024-.116.057-.086.112-.086l2.016-.001c.446 0 .893.002 1.34-.002.096-.001.125.015.103.122-.068.318-.122.639-.185.957-.007.035.01.089-.05.099-.03-.067-.092-.041-.14-.041h-2.984" fill="#252f65"/><path d="M8.926 15.28c-.518-.046-1.037-.009-1.555-.025-.127-.004-.159.037-.159.16.003 1.981.003 3.961 0 5.941 0 .14.044.185.181.181.331-.008.662-.009.993 0 .13.004.157-.043.157-.163a733.229 733.229 0 0 1 0-3.924c0-.059-.044-.142.055-.173 0 1.37-.004 2.74.002 4.111.001.162-.045.203-.202.198a23.815 23.815 0 0 0-1.102-.002c-.102.001-.135-.028-.135-.133.003-2.037.002-4.074 0-6.11 0-.098.017-.144.128-.142.441.006.882 0 1.323.005.107.002.222 0 .314.075m2.155 6.178c.46.144.933.056 1.4.076.212.009.22-.005.22-.221v-5.876c-.004-.123-.046-.187-.19-.182a17.83 17.83 0 0 1-1.008.001c-.125-.003-.16.035-.16.16.004 1.208.003 2.415.002 3.623 0 .057.01.116-.02.17-.034.06-.07.084-.108.002.132-.012.082-.116.082-.182.003-1.04.002-2.08.002-3.12 0-.19.004-.38 0-.569-.004-.1.025-.138.132-.136.388.004.777.004 1.166-.003.111-.002.14.034.14.143-.007.49-.004.977-.004 1.466 0 1.535-.002 3.07.004 4.603 0 .142-.039.178-.176.174-.352-.01-.704-.002-1.056-.004-.153-.001-.306-.008-.426-.125" fill="#c34647"/><path d="M27.677 18.16h2.984c.048 0 .11-.025.14.042-.105.003-.209.01-.314.01-.885 0-1.77.002-2.655-.002-.05-.001-.13.05-.155-.05" fill="#1a2050"/><path d="M26.672 16.39v-.027h4.956c.05 0 .106-.018.149.026-.635.001-1.271.005-1.906.005-1.066 0-2.133-.003-3.2-.005" fill="#040d34"/><path d="M10.42 20.375c.108.073.15.194.206.302.12.236.278.45.373.7-.143-.138-.21-.323-.306-.49-.096-.168-.204-.33-.273-.512" fill="#c34647"/><path d="M0 .705 1.479.704c-.009.059-.056.038-.087.038C.957.744.521.744.085.742.055.742.008.764 0 .705" fill="#0e1844" mask="url(#d)" transform="translate(23.74 20.83)"/><path d="m0 .7 1.468.004c-.014.065-.067.038-.102.038C.949.744.532.744.115.742.075.742.017.772 0 .7" fill="#0e1843" mask="url(#e)" transform="translate(28.482 20.83)"/><path d="m29.95 18.886-1.286-.001c-.055-.001-.116.02-.164-.027l1.392-.008c.026 0 .054 0 .057.036" fill="#111a41"/><g fill="#c34647"><path d="M11.075 18.97a1.583 1.583 0 0 1-.348-.63c.132.2.25.41.348.63m-2.168-1.307c.145.14.235.312.282.508a2.963 2.963 0 0 1-.282-.508"/><path d="M.627.707A.906.906 0 0 1 .372.264c.116.13.19.284.255.443" mask="url(#f)" transform="translate(8.743 15.175)"/><path d="M9.876 16.796c-.103-.095-.186-.199-.192-.347.084.105.145.222.192.347m.19.346a.512.512 0 0 1-.192-.347c.085.104.144.222.192.347m-1.351.177a.515.515 0 0 1 .193.346 1.278 1.278 0 0 1-.193-.346m1.699.451a.486.486 0 0 1-.191-.345c.08.106.143.222.19.346m-.863-1.565a.454.454 0 0 1-.181-.326c.08.098.138.21.182.326m.263 3.087c.115.064.148.176.166.295a1.146 1.146 0 0 1-.166-.295m-.184-.333c.119.061.146.173.163.29a.988.988 0 0 1-.163-.29m.94-.904c-.113-.062-.145-.167-.156-.285a.872.872 0 0 1 .156.285"/><path d="M10.728 18.339c-.115-.06-.144-.167-.159-.284a.969.969 0 0 1 .16.284m-.5 1.692a.334.334 0 0 1 .156.284.973.973 0 0 1-.156-.284m-.746-1.334c.114.051.123.16.147.262a.807.807 0 0 1-.147-.262"/><path d="M9.348 18.452c.107.048.125.146.136.246a.684.684 0 0 1-.136-.246m1.861.752c-.104-.044-.13-.134-.134-.234.063.067.098.151.134.234m-1.02-1.838c-.093-.047-.121-.13-.124-.225a.52.52 0 0 1 .124.225m-.504-.916c-.1-.046-.122-.134-.128-.232a.586.586 0 0 1 .128.233m.294 3.136c.098.043.12.128.126.223a.595.595 0 0 1-.126-.223"/><path d="M10.104 19.809c.1.042.109.134.125.223a.567.567 0 0 1-.125-.223m-.915-1.639c.08.052.133.12.124.222a.602.602 0 0 1-.124-.222"/><path d="M.549.341C.503.341.463.332.451.278a.117.117 0 0 1 .098.063" mask="url(#g)" transform="translate(8.475 15)"/><path d="M8.668 17.271c.068-.036.056.009.048.048zm.645 1.122c.043.001.043.028.036.06l-.036-.06m.91-.967c-.04-.004-.042-.03-.035-.062.024.014.033.036.035.062m.162 2.89c.043.001.044.027.036.06l-.036-.06"/><path d="M.476.623c.03.003.055.009.046.048C.498.663.482.649.476.623" mask="url(#h)" transform="translate(10.523 20.752)"/><path d="M.514.384C.492.382.482.371.486.348c.01.012.02.024.028.036" mask="url(#i)" transform="translate(8.602 15.057)"/><path d="M.515.365C.492.367.482.357.485.334l.03.03" mask="url(#j)" transform="translate(8.572 15.04)"/><path d="M.516.347C.493.351.482.342.485.318l.03.029" mask="url(#k)" transform="translate(8.54 15.023)"/><path d="M.486.654C.51.648.518.657.513.68L.486.654" mask="url(#l)" transform="translate(10.564 20.772)"/></g></g></svg>