<svg width="36" height="36" fill="none" xmlns="http://www.w3.org/2000/svg"><path d="M18 0c2.837 0 5.52.656 7.907 1.825C31.884 4.753 36 10.895 36 18c0 9.942-8.058 18-18 18-9.94 0-18-8.057-18-18C0 8.06 8.06 0 18 0z" fill="#F2F4F7"/><path d="M4.007 19.235a.523.523 0 0 1 0-.173h.605c.01 0 .03-.01.03-.029v-4.649c0-.02-.01-.029-.03-.029h-.605a.467.467 0 0 1 0-.163h2.296c.01 0 .01.173 0 .173h-.605c-.029 0-.039.01-.039.029v4.64c0 .019.01.028.039.028h.605c.01 0 .01.173 0 .173H4.007zm11.95-5.043-1.68 5.15c-.01.018-.164.018-.173 0l-2.027-4.957c-.01-.02-.02-.03-.058-.03h-.653a.523.523 0 0 1 0-.172h2.478c.01 0 .01.173 0 .173h-.663c-.019 0-.038.01-.029.028l1.422 3.574 1.23-3.766c.01-.038.163-.028.153 0zm7.666 0h-1.44c-.03 0-.03.173 0 .173h.585c.03 0 .039.01.039.03v3.14l-1.96-3.218c-.048-.096-.096-.125-.144-.125h-1.73c-.018 0-.018.173 0 .173h.587c.038 0 .038.01.038.03v4.639c0 .02 0 .029-.038.029h-.461a.106.106 0 0 1-.048-.01l-1.768-4.966c-.01-.02-.154-.02-.163 0l-1.768 5.14c-.01.018.144.018.154 0l.557-1.605h1.46l.452 1.422c.01 0-.01.01-.03.01h-.585c-.01 0-.01.172 0 .172h3.064c.01 0 .01-.173 0-.173h-.605c-.029 0-.029-.01-.029-.029V14.48l3.026 4.842c.02.029.173.02.173 0v-4.938c0-.019.01-.028.039-.028h.595c.01 0 .01-.164 0-.164zm-7.502 3.257.691-2.046.654 2.046H16.12zM27.37 19.34c-.01-.085-.106-.21-.298-.21-.317 0-.836.23-1.22.23-1.278 0-2.238-1.23-2.238-2.642s.922-2.641 2.2-2.641c.326 0 .778.192 1.095.192.192 0 .317-.096.336-.173 0-.01.154-.01.154 0v1.739c0 .01-.154.01-.154 0 0-.702-.759-1.585-1.431-1.585-.308 0-.5.067-.683.259-.297.327-.403 1.028-.403 2.219 0 1.191.106 1.883.403 2.21.183.201.414.259.721.259.817 0 1.518-.922 1.518-1.854 0-.01.163-.01.163 0v1.998h-.163zm4.61-.105h-3.995a.523.523 0 0 1 0-.172h.605c.019 0 .038-.01.038-.03v-4.649c0-.019-.01-.029-.038-.029h-.605a.523.523 0 0 1 0-.172h3.63c.04 0 .04.01.04.019v1.575c0 .01-.174.01-.174 0 0-.663-.346-1.421-1.19-1.421h-.616c-.038 0-.048.01-.048.028v2.171h.125c.538 0 .807-.48.807-.97 0-.01.154-.01.154 0v2.104c0 .01-.154.01-.154 0 0-.48-.26-.97-.807-.97h-.125v2.305c0 .02.01.029.048.029h.644c1.114 0 1.527-.836 1.527-1.566 0-.01.154-.01.154 0v1.71c0 .029-.01.038-.02.038z" fill="#033C5A"/><path d="M4.612 20.734h.615c.154 0 .279.048.356.125a.318.318 0 0 1 .096.23c0 .164-.096.25-.192.308.163.057.269.144.269.336 0 .25-.202.375-.51.375h-.634v-1.374zm.567.576c.154 0 .26-.057.26-.182 0-.106-.087-.173-.24-.173h-.346v.365h.326v-.01zm.077.586c.163 0 .269-.067.269-.192 0-.115-.096-.182-.279-.182h-.384v.374h.394zm1.354-1.162h.24v1.374h-.24v-1.374zm1.105.692c0-.394.298-.72.72-.72a.7.7 0 0 1 .721.71c0 .384-.298.71-.72.71a.698.698 0 0 1-.72-.7zm1.182 0c0-.27-.192-.49-.47-.49-.27 0-.462.22-.462.49 0 .269.192.49.47.49a.48.48 0 0 0 .462-.49zm1.373-.471h-.432v-.221h1.115v.22h-.433v1.154h-.24v-1.153h-.01zm1.48-.221h.24v.576h.653v-.576h.24v1.374h-.24v-.577h-.653v.577h-.24v-1.374zm2.065 0h1.019v.22h-.779v.356h.692v.221h-.692v.365h.788v.212h-1.028v-1.374zm1.883 0h.615c.173 0 .307.048.394.134a.398.398 0 0 1 .115.298c0 .23-.134.365-.327.413l.375.529h-.288l-.336-.48h-.298v.48h-.24v-1.374h-.01zm.596.682c.173 0 .278-.087.278-.23 0-.145-.105-.231-.288-.231h-.355v.46h.365zm1.911-.691h.221l.606 1.383h-.26l-.144-.336h-.653l-.144.336h-.25l.624-1.383zm.346.835-.24-.547-.24.547h.48zm1.269-.826h.547c.317 0 .518.182.518.461 0 .307-.25.47-.547.47h-.269v.443h-.24v-1.374h-.01zm.518.71c.182 0 .298-.105.298-.249 0-.163-.116-.25-.298-.25h-.279v.5h.279zm1.345-.71H22.7v.22h-.778v.356h.692v.221h-.692v.365h.788v.212h-1.028v-1.374zm1.854.788v-.798h.24v.779c0 .259.134.393.346.393.211 0 .346-.134.346-.384v-.797h.24v.778c0 .413-.23.615-.596.615-.355.019-.576-.183-.576-.586zm2.392-.567h-.432v-.221h1.114v.22h-.432v1.154h-.24v-1.153h-.01zm1.479-.221h.24v1.374h-.24v-1.374zm1.105.692c0-.394.298-.72.71-.72a.73.73 0 0 1 .539.21l-.154.183a.532.532 0 0 0-.384-.173c-.26 0-.452.221-.452.49s.192.49.452.49c.173 0 .278-.067.394-.183l.153.154a.69.69 0 0 1-.557.24.674.674 0 0 1-.701-.691zm1.998.48.144-.173c.135.115.26.183.432.183.154 0 .24-.068.24-.173 0-.096-.057-.154-.307-.212-.298-.067-.46-.153-.46-.413 0-.24.191-.403.47-.403.201 0 .355.058.5.173l-.135.182a.613.613 0 0 0-.375-.144c-.144 0-.22.077-.22.164 0 .105.066.153.326.22.288.068.442.173.442.404 0 .26-.202.413-.49.413a.879.879 0 0 1-.567-.221z" fill="#4C9D45"/><path d="M9.963 18.506A2.007 2.007 0 0 1 7.6 15.864c-.01.067-.01.134-.01.211-.01 1.316 1.057 2.392 2.373 2.43z" fill="#82BD41"/><path d="M9.761 18.726a2.007 2.007 0 0 1-2.363-2.642c-.01.068-.01.135-.01.212a2.44 2.44 0 0 0 2.373 2.43z" fill="#A1CD71"/><path d="M9.57 18.947a1.994 1.994 0 0 1-.481.058 2.009 2.009 0 0 1-1.893-2.7c-.01.068-.01.135-.01.212a2.436 2.436 0 0 0 2.383 2.43z" fill="#C1DEA0"/><path d="M9.368 19.11a2.007 2.007 0 0 1-2.363-2.642c-.01.068-.01.135-.01.212-.01 1.316 1.047 2.392 2.373 2.43z" fill="#E0EED0"/><path d="M9.166 19.303a2.007 2.007 0 0 1-2.363-2.642c-.01.067-.01.135-.01.211-.01 1.317 1.057 2.392 2.373 2.43z" fill="#ECF5E3"/><path d="M11.884 16.719a2.722 2.722 0 0 1-2.718 2.718h-.067c.98-.24 1.7-1.124 1.7-2.17 0-1.24-1-2.24-2.238-2.24-.961 0-1.787.606-2.104 1.461a2.72 2.72 0 0 1 5.427.23z" fill="#033C5A"/></svg>