<svg width="36" height="36" fill="none" xmlns="http://www.w3.org/2000/svg"><path d="M18 0c2.837 0 5.52.656 7.907 1.825C31.884 4.753 36 10.895 36 18c0 9.942-8.058 18-18 18-9.94 0-18-8.057-18-18C0 8.06 8.06 0 18 0z" fill="#F2F4F7"/><path d="M16.513 18.996c-.05.001-.096.003-.148.003h-2.277V15h2.204v.003c.957 0 1.945.59 1.945 1.987 0 1.364-.784 1.93-1.724 2.005zm3.819-5.4a4.654 4.654 0 0 0-1.13-.823 5.33 5.33 0 0 0-2.455-.677 3.447 3.447 0 0 0-.177-.005h-5.952v12.517h3.467v-.002h.003v-2.694l2.556-.003a5.164 5.164 0 0 0 2.227-.495 6.415 6.415 0 0 1 1.46-7.817z" fill="#83BAD8"/><path d="M30.984 18.037a6.229 6.229 0 0 0-.049-.503 9.512 9.512 0 0 0-.02-.16H26.57l-1.373-.002v.001H24.8v2.916h2.198a3.064 3.064 0 1 1-.515-4.248l.013.008 2.564-2.212a6.414 6.414 0 0 0-8.728-.24c.703.703 1.229 1.725 1.271 3.202.003.057.004.116.005.174l.001.017v.002l.002.1c0 1.92-1.102 3.543-2.74 4.322a6.435 6.435 0 0 0 5.695 3.447 6.435 6.435 0 0 0 5.689-3.437l.001.007a4.44 4.44 0 0 0 .23-.49 6.39 6.39 0 0 0 .505-2.289 3.773 3.773 0 0 0-.007-.615z" fill="#095AA5"/><path d="m21.611 17.093-.002-.1v-.019a5.027 5.027 0 0 0-.006-.175c-.042-1.477-.568-2.499-1.271-3.202a6.415 6.415 0 0 0-1.46 7.817c1.637-.78 2.74-2.402 2.74-4.322z" fill="#052147"/><path d="m5 12.122.014 12.486H8.46l-.015-12.486H5z" fill="#83BAD8"/></svg>