<svg width="36" height="36" fill="none" xmlns="http://www.w3.org/2000/svg"><path d="M18 0c2.837 0 5.52.656 7.907 1.825C31.884 4.753 36 10.895 36 18c0 9.942-8.058 18-18 18-9.94 0-18-8.057-18-18C0 8.06 8.06 0 18 0z" fill="#F2F4F7"/><path d="M16.292 10.033 6 15.673l1.101 1.835s5.83-3.162 9.388-5.237c1.575-.918 1.102-2.238 2.012-3.255.402-.451 2.647-1.644 3.713-2.188L21.113 5c-.904.438-2.76 1.638-2.965 2.894-.197 1.264-1.32 1.948-1.856 2.139z" fill="#3256A4"/><path d="m8.71 20.092-1.15-1.828 9.84-5.435a2.33 2.33 0 0 0 .84-1.123c.261-.678.48-1.313.967-1.878.318-.374.685-.67 1.101-.931.939-.58 2.414-1.306 2.414-1.306l1.101 1.835s-3.416 1.723-4.574 2.541c-.494.353-.875.706-1.044 1.06-.148.324-.106.684-.22 1.023a3.748 3.748 0 0 1-1.792 1.877L8.71 20.092z" fill="#3256A4"/><path d="m10.214 22.69-1.101-1.836 7.581-4.165c.882-.564 1.355-.705 1.659-1.475a4.483 4.483 0 0 1 2.11-2.93 258.876 258.876 0 0 1 3.763-2.152l1.101 1.835s-4.73 2.52-5.774 3.247c-1.038.734-1.299 1.461-1.299 1.73 0 1.1-1.292 1.983-2.365 2.59l-5.675 3.155z" fill="#3256A4"/><path d="m11.774 25.28-1.157-1.835s4.849-2.633 6.423-3.53a4.603 4.603 0 0 0 1.158-.826c.409-.437.487-1.01.734-1.539a4.461 4.461 0 0 1 1.73-1.976l5.124-2.852 1.101 1.835s-5.45 2.986-6.776 3.756c-1.328.776-1.66 1.645-1.66 1.983-.042 1.306-1.757 2.287-2.66 2.746l-4.017 2.238z" fill="#98C13D"/><path d="m13.278 27.82-1.101-1.778c1.044-.565 3.19-1.73 4.517-2.464.875-.48 1.906-.846 2.21-2.117.324-1.37 1.411-2.23 2.011-2.584l6.424-3.508 1.108 1.779-8.188 4.518c-.558.352-.932.706-1.172 1.023-.318.41-.325.798-.452 1.27-.282 1.067-1.376 1.695-1.94 1.977l-3.417 1.885z" fill="#98C13D"/><path d="m14.887 30.412-1.101-1.779c.868-.473 2.88-1.574 3.96-2.188a3.269 3.269 0 0 0 1.13-1.017c.296-.444.338-.946.557-1.419a3.84 3.84 0 0 1 1.73-1.82l7.736-4.278L30 19.739l-8.753 4.828c-.48.268-.988.508-1.412.861-.437.367-.91.904-.931 1.483-.043 1.051-1.158 1.891-1.709 2.18l-2.3 1.32h-.008z" fill="#98C13D"/></svg>