<svg height="36" viewBox="0 0 36 36" width="36" xmlns="http://www.w3.org/2000/svg"><mask id="a" fill="#fff"><path d="M0 0h22.314v6.135H0z" fill-rule="evenodd"/></mask><g fill="none" fill-rule="evenodd"><path d="M18 0c2.837 0 5.52.656 7.907 1.825C31.884 4.753 36 10.895 36 18c0 9.942-8.058 18-18 18-9.94 0-18-8.057-18-18C0 8.06 8.06 0 18 0z" fill="#f2f4f7" fill-rule="nonzero"/><path d="M7.644 14s-5.506 1.981-.908 3.956c0 0-5.485-1.952.908-3.956" fill="#003874"/><path d="M7.644 14s-5.506 1.981-.908 3.956c0 0-5.485-1.952.908-3.956" fill="#052c56"/><path d="M7.644 14s-5.506 1.981-.908 3.956c0 0-5.485-1.952.908-3.956z" stroke="#052c56" stroke-linecap="round" stroke-linejoin="round" stroke-width=".123"/><path d="M4.946 21.487s5.574-1.835.957-3.9c0 0 5.51 2.064-.957 3.9" fill="#003874"/><path d="M4.946 21.487s5.574-1.835.957-3.9c0 0 5.51 2.064-.957 3.9" fill="#052c56"/><path d="M4.946 21.487s5.574-1.835.957-3.9c0 0 5.51 2.064-.957 3.9z" stroke="#052c56" stroke-linecap="round" stroke-linejoin="round" stroke-width=".123"/><path d="M4 18.294s5.574-1.835.957-3.9c0 0 5.51 2.064-.957 3.9" fill="#008ccf"/><path d="M4 18.294s5.574-1.835.957-3.9c0 0 5.51 2.064-.957 3.9z" fill="#0572af"/><path d="M4 18.294s5.574-1.835.957-3.9c0 0 5.51 2.064-.957 3.9z" stroke="#0572af" stroke-linecap="round" stroke-linejoin="round" stroke-width=".123"/><path d="M8.554 16.917s-5.507 1.982-.908 3.956c0 0-5.484-1.952.908-3.956" fill="#008ccf"/><path d="M8.554 16.917s-5.507 1.982-.908 3.956c0 0-5.484-1.952.908-3.956" fill="#0572af"/><path d="M8.554 16.917s-5.507 1.982-.908 3.956c0 0-5.484-1.952.908-3.956z" stroke="#0572af" stroke-linecap="round" stroke-linejoin="round" stroke-width=".123"/><path d="M8.253 15.835c.11.258.012.528-.286.642-.244.102-.458-.119-.509-.287-.05-.258.234-.437.541-.49.111-.007.205.038.254.136" fill="#0572af"/><path d="M21.542 5.315c0 .166.118.296.319.296.238 0 .299-.132.366-.132.032 0 .065.025.065.071 0 .079-.222.201-.433.201-.345 0-.496-.241-.496-.498 0-.264.183-.499.486-.499.295 0 .465.24.465.474 0 .057-.022.087-.099.087zm.593-.121c0-.14-.089-.301-.286-.301-.222-.007-.301.152-.307.301zm-1.358-.354c0-.053.035-.086.09-.086s.089.033.089.086v.082h.004c.041-.075.141-.168.245-.168.062 0 .099.037.099.082 0 .046-.037.076-.112.088-.106.017-.235.088-.235.277v.464c0 .052-.035.086-.09.086s-.09-.034-.09-.086zm-.246.831c0 .057-.048.08-.083.08-.036 0-.083-.023-.083-.08v-.067h-.004a.363.363 0 0 1-.295.147c-.305 0-.476-.241-.476-.498 0-.259.171-.499.476-.499.124 0 .211.047.295.13h.004v-.051c0-.057.047-.079.083-.079.035 0 .083.022.083.079zm-.465-.06c.219 0 .296-.193.296-.358 0-.166-.077-.36-.296-.36s-.297.194-.297.36c0 .164.077.358.297.358zm-.9-.857c.183 0 .29.057.29.123 0 .033-.03.067-.073.067-.069 0-.096-.051-.217-.051-.222 0-.31.194-.31.36 0 .164.088.358.31.358.126 0 .158-.055.215-.055.041 0 .069.024.069.068 0 .06-.099.127-.284.127-.33 0-.489-.241-.489-.498 0-.259.159-.499.489-.499zm-1.442-.2c0-.052.035-.086.089-.086.055 0 .09.034.09.086v.211h.073c.059 0 .089.026.089.07 0 .043-.03.069-.089.069h-.073v.761c0 .052-.034.086-.09.086-.055 0-.089-.034-.089-.086v-.761h-.073c-.059 0-.089-.026-.089-.069 0-.044.03-.07.089-.07h.073zm-1.161.286c0-.053.035-.086.09-.086s.089.033.089.086v.038l.004.004a.391.391 0 0 1 .299-.128c.167 0 .376.095.376.371v.54c0 .052-.034.086-.089.086s-.09-.034-.09-.086v-.532c0-.171-.132-.24-.25-.24-.117 0-.25.069-.25.24v.532c0 .052-.034.086-.089.086s-.09-.034-.09-.086zm-.953.475c0 .166.118.296.319.296.238 0 .299-.132.366-.132.032 0 .065.025.065.071 0 .079-.221.201-.433.201-.345 0-.496-.241-.496-.498 0-.264.183-.499.486-.499.294 0 .465.24.465.474 0 .057-.022.087-.099.087zm.594-.121c0-.14-.09-.301-.287-.301-.222-.007-.301.152-.307.301zm-1.043-.77c.061 0 .11.044.11.099 0 .056-.049.1-.11.1s-.11-.044-.11-.1c0-.055.049-.099.11-.099zm.089 1.241c0 .052-.034.086-.089.086s-.09-.034-.09-.086V4.84c0-.053.035-.086.09-.086s.089.033.089.086zm-.661-1.111c0-.052.035-.086.09-.086s.089.034.089.086v.211h.073c.06 0 .09.026.09.07 0 .043-.03.069-.09.069h-.073v.761c0 .052-.034.086-.089.086s-.09-.034-.09-.086v-.761h-.073c-.058 0-.089-.026-.089-.069 0-.044.031-.07.089-.07h.073zm-.302 1.117c0 .057-.049.08-.084.08-.036 0-.083-.023-.083-.08v-.067h-.004a.361.361 0 0 1-.295.147c-.305 0-.476-.241-.476-.498 0-.259.171-.499.476-.499.124 0 .211.047.295.13h.004v-.051c0-.057.047-.079.083-.079.035 0 .084.022.084.079zm-.466-.06c.22 0 .297-.193.297-.358 0-.166-.077-.36-.297-.36s-.297.194-.297.36c0 .164.077.358.297.358zM12.26 4.84c0-.053.034-.086.09-.086.054 0 .088.033.088.086v.047h.004c.052-.088.147-.133.289-.133.293 0 .462.24.462.499 0 .257-.169.498-.462.498a.369.369 0 0 1-.289-.132h-.004v.43c0 .053-.034.086-.088.086-.056 0-.09-.033-.09-.086zm.457.771c.22 0 .297-.193.297-.358 0-.166-.077-.36-.297-.36-.219 0-.297.194-.297.36 0 .164.078.358.297.358zm-1.634-.771c0-.053.034-.086.089-.086s.089.033.089.086v.082h.005c.04-.075.14-.168.243-.168.064 0 .1.037.1.082 0 .046-.036.076-.111.088-.106.017-.236.088-.236.277v.464c0 .052-.035.086-.09.086s-.089-.034-.089-.086zm-.675-.086c.304 0 .475.24.475.499 0 .257-.171.498-.475.498-.305 0-.476-.241-.476-.498 0-.259.171-.499.476-.499zm0 .857c.219 0 .297-.193.297-.358 0-.166-.078-.36-.297-.36-.22 0-.297.194-.297.36 0 .164.077.358.297.358zm-.73.054c0 .052-.034.086-.089.086S9.5 5.717 9.5 5.665v-.761h-.074c-.059 0-.09-.026-.09-.069 0-.044.031-.07.09-.07H9.5v-.228c0-.142.106-.211.237-.211h.055c.046 0 .102.025.102.069s-.031.069-.098.069h-.045c-.055 0-.073.025-.073.065v.236h.112c.059 0 .089.026.089.07 0 .043-.03.069-.089.069h-.112zM7.82 4.84c0-.053.034-.086.09-.086.054 0 .089.033.089.086v.038l.004.004a.389.389 0 0 1 .299-.128c.166 0 .376.095.376.371v.54c0 .052-.035.086-.09.086-.054 0-.089-.034-.089-.086v-.532c0-.171-.132-.24-.25-.24s-.25.069-.25.24v.532c0 .052-.035.086-.089.086-.056 0-.09-.034-.09-.086zm-.675-.086c.305 0 .476.24.476.499 0 .257-.171.498-.476.498s-.476-.241-.476-.498c0-.259.171-.499.476-.499zm0 .857c.22 0 .297-.193.297-.358 0-.166-.077-.36-.297-.36-.219 0-.297.194-.297.36 0 .164.077.358.297.358zm-.764-1.187c.06 0 .109.044.109.099 0 .056-.049.1-.109.1-.061 0-.11-.044-.11-.1 0-.055.049-.099.11-.099zm.089 1.241c0 .052-.034.086-.089.086s-.089-.034-.089-.086V4.84c0-.053.034-.086.089-.086s.089.033.089.086zm-.66-1.111c0-.052.034-.086.089-.086s.089.034.089.086v.211h.074c.059 0 .089.026.089.07 0 .043-.03.069-.089.069h-.074v.761c0 .052-.034.086-.089.086s-.089-.034-.089-.086v-.761h-.074c-.058 0-.089-.026-.089-.069 0-.044.031-.07.089-.07h.074zm-.304 1.117c0 .057-.048.08-.083.08-.036 0-.083-.023-.083-.08v-.067h-.004a.361.361 0 0 1-.295.147c-.305 0-.476-.241-.476-.498 0-.259.171-.499.476-.499.124 0 .211.047.295.13h.004v-.051c0-.057.047-.079.083-.079.035 0 .083.022.083.079zm-.465-.06c.22 0 .297-.193.297-.358 0-.166-.077-.36-.297-.36s-.297.194-.297.36c0 .164.077.358.297.358zm-1.395-.716a.2.2 0 0 1-.018-.066c0-.047.039-.076.081-.076.06 0 .08.027.094.063l.246.675h.004l.246-.675c.014-.036.035-.062.093-.062.043 0 .082.028.082.075a.177.177 0 0 1-.018.066l-.311.786c-.019.047-.037.07-.094.07s-.075-.023-.093-.07zm-.585-.141c.305 0 .476.24.476.499 0 .257-.171.498-.476.498s-.476-.241-.476-.498c0-.259.171-.499.476-.499zm0 .857c.22 0 .297-.193.297-.358 0-.166-.077-.36-.297-.36s-.297.194-.297.36c0 .164.077.358.297.358zM1.528 4.84c0-.053.035-.086.09-.086.054 0 .089.033.089.086v.038l.004.004a.39.39 0 0 1 .299-.128c.167 0 .376.095.376.371v.54c0 .052-.034.086-.089.086s-.09-.034-.09-.086v-.532c0-.171-.132-.24-.25-.24s-.25.069-.25.24v.532c0 .052-.035.086-.089.086-.055 0-.09-.034-.09-.086zm-1.104 0c0-.053.035-.086.09-.086s.089.033.089.086v.038l.004.004a.39.39 0 0 1 .299-.128c.167 0 .376.095.376.371v.54c0 .052-.034.086-.089.086s-.089-.034-.089-.086v-.532c0-.171-.133-.24-.25-.24-.119 0-.251.069-.251.24v.532c0 .052-.034.086-.089.086s-.09-.034-.09-.086zm-.246.825c0 .052-.034.086-.089.086S0 5.717 0 5.665V4.51c0-.052.034-.086.089-.086s.089.034.089.086zm20.885-1.977c-.352 0-.611-.147-.876-.446-.193-.218-2.212-2.534-2.212-2.534h-.019v2.98h-.679V.005h1.356c.209 0 .464.036.67.276.183.214 2.298 2.647 2.298 2.647h.02V.005h.685v3.683zm-8.286-.006V0h4.024v.477h-2.16c-.247 0-.386.09-.386.387v.723h2.113s-.037.473-.621.473h-1.492v.759c0 .293.145.388.37.388h2.176v.475zm-.454-.762c0 .413-.118.768-.963.768H7.997v-.476h2.5c.213 0 .352-.127.352-.336v-.422c0-.277-.119-.394-.371-.394H8.521c-.659 0-.855-.324-.855-.716L7.665.673c.002-.404.314-.668.856-.668h3.254s-.036.472-.62.472H9.52c-.311 0-.382.178-.382.381v.348c0 .221.089.381.363.381l1.898-.001c.735 0 .924.284.924.811zM.015 3.688H1.49V.005H.015zM6.223.005H2.218v3.683h1.475V2.387h2.53c.616 0 .985-.138.985-.745V.751c0-.613-.369-.746-.985-.746zM5.734 1.48c0 .304-.084.434-.393.434H3.693V.904c.001-.279.134-.427.502-.427h1.146c.305 0 .396.129.393.424z" fill="#052c56" mask="url(#a)" transform="translate(9.686 15.724)"/></g></svg>