<svg width="36" height="36" fill="none" xmlns="http://www.w3.org/2000/svg"><path d="M18 0c2.837 0 5.52.656 7.907 1.825C31.884 4.753 36 10.895 36 18c0 9.942-8.058 18-18 18-9.94 0-18-8.057-18-18C0 8.06 8.06 0 18 0z" fill="#F2F4F7"/><path d="M16.063 15.003a2.314 2.314 0 0 0-2.186 2.43 2.316 2.316 0 0 0 2.964 2.097h.002l.174.33a.272.272 0 1 0 .482-.252l-.154-.296a2.313 2.313 0 0 0-1.282-4.31zm1.029 3.824-.197-.375a.272.272 0 1 0-.483.253l.171.328h-.002a1.767 1.767 0 0 1-2.158-1.628 1.767 1.767 0 0 1 1.67-1.856 1.767 1.767 0 0 1 1.856 1.67 1.77 1.77 0 0 1-.858 1.608zm-4.579.785a.275.275 0 0 1-.274-.274v-4.051a.274.274 0 0 1 .548 0v4.051a.278.278 0 0 1-.274.274z" fill="#00AAE7"/><path d="M25.478 19.612a.275.275 0 0 1-.274-.274v-4.051a.274.274 0 0 1 .548 0v4.051c0 .15-.122.274-.274.274zm-3.89 0a.27.27 0 0 1-.241-.145l-2.123-4.054a.272.272 0 1 1 .482-.253l1.882 3.595 1.92-3.597a.274.274 0 0 1 .482.257l-2.163 4.052a.267.267 0 0 1-.239.145z" fill="#004A7C"/><g fill="#004A7C"><path d="M30.251 18.691h-1.317a.275.275 0 0 1 0-.548h1.317a.274.274 0 0 1 0 .548z"/><path d="M31.727 19.612a.27.27 0 0 1-.241-.147l-1.882-3.595-1.919 3.597a.274.274 0 0 1-.483-.258l2.163-4.051a.274.274 0 0 1 .483 0l2.12 4.051a.272.272 0 0 1-.114.368.246.246 0 0 1-.127.035z"/></g><path d="M10.655 18.85h-1.34a2.556 2.556 0 0 1-.324.464h1.664a.232.232 0 0 0 0-.463zm0-.885h-1.02a3.214 3.214 0 0 1-.129.464h1.151a.232.232 0 0 0 .232-.232.235.235 0 0 0-.234-.232zm0-.885h-.963a3.4 3.4 0 0 1-.003.465h.966a.232.232 0 0 0 .232-.232.232.232 0 0 0-.232-.234zm0-.886H9.514c.051.147.093.304.124.464h1.017a.233.233 0 0 0 0-.464zm0-.886h-1.64c.119.138.224.295.316.464h1.326a.233.233 0 0 0 .232-.232.235.235 0 0 0-.234-.232z" fill="#004A7C"/><path d="M6.224 19.085c0-.129.105-.232.232-.232h-.914a.233.233 0 0 0 0 .464h.916a.235.235 0 0 1-.234-.232z" fill="#00AAE7"/><path d="M9.314 18.85H6.456a.232.232 0 0 0 0 .464H8.99c.122-.135.23-.292.323-.463z" fill="#668BB3"/><path d="M5.575 18.248a.233.233 0 0 1 .227-.28h-.916a.232.232 0 0 0-.232.231c0 .127.105.232.232.232h.923a.239.239 0 0 1-.234-.183z" fill="#00AAE7"/><path d="M9.635 17.965H5.802a.234.234 0 0 0-.227.281.239.239 0 0 0 .234.183h3.695c.054-.148.099-.302.131-.464z" fill="#668BB3"/><path d="M4.92 17.36a.233.233 0 0 1 .228-.28h-.916a.232.232 0 0 0 0 .463h.923a.234.234 0 0 1-.234-.183z" fill="#00AAE7"/><path d="M4.921 17.36a.239.239 0 0 0 .234.183H9.69c.005-.082.01-.162.01-.246 0-.075-.003-.148-.007-.22H5.148a.237.237 0 0 0-.227.283z" fill="#668BB3"/><path d="M5.24 16.426c0-.13.105-.232.232-.232h-.914a.232.232 0 0 0 0 .464h.916a.233.233 0 0 1-.234-.232z" fill="#00AAE7"/><path d="M9.514 16.194h-4.04a.232.232 0 0 0 0 .464H9.64a3.004 3.004 0 0 0-.126-.464z" fill="#668BB3"/><path d="M6.929 15.589a.233.233 0 0 1 .227-.281H6.24a.233.233 0 0 0-.232.232c0 .126.106.232.232.232h.923a.239.239 0 0 1-.234-.183z" fill="#00AAE7"/><path d="M9.014 15.308H7.156a.234.234 0 0 0-.227.28.239.239 0 0 0 .234.184h2.165a2.602 2.602 0 0 0-.314-.464z" fill="#668BB3"/></svg>