<svg width="36" height="36" fill="none" xmlns="http://www.w3.org/2000/svg"><path d="M18 0c2.837 0 5.52.656 7.907 1.825C31.884 4.753 36 10.895 36 18c0 9.942-8.058 18-18 18-9.94 0-18-8.057-18-18C0 8.06 8.06 0 18 0z" fill="#F2F4F7"/><path d="m31.139 20.001.06-.278a.788.788 0 0 1-.244.234.59.59 0 0 1-.299.078c-.178 0-.301-.067-.37-.2-.069-.134-.078-.31-.03-.53a1.22 1.22 0 0 1 .29-.58.673.673 0 0 1 .651-.214c.041.012.08.029.116.052a.54.54 0 0 1 .116.115l.175-.796H32l-.465 2.119h-.396zm.238-1.087a.351.351 0 0 0-.125-.127.297.297 0 0 0-.14-.034c-.104 0-.194.052-.268.155a.96.96 0 0 0-.158.364.598.598 0 0 0 0 .329c.03.081.092.122.184.122.058 0 .12-.02.187-.062a.947.947 0 0 0 .192-.164l.128-.583zm-2.792 1.087.323-1.472h.395l-.06.276a.92.92 0 0 1 .29-.24.642.642 0 0 1 .28-.07c.116 0 .208.037.275.111.068.075.084.193.048.354L29.907 20h-.395l.207-.944a.39.39 0 0 0 .014-.163.115.115 0 0 0-.047-.065.143.143 0 0 0-.08-.023.394.394 0 0 0-.183.055.963.963 0 0 0-.24.212L28.98 20h-.395zm-.669-.156a1.1 1.1 0 0 1-.174.118.61.61 0 0 1-.292.072c-.131 0-.228-.04-.289-.122a.355.355 0 0 1-.052-.302.592.592 0 0 1 .257-.363c.139-.097.341-.145.606-.145h.106l.03-.133c.019-.09.007-.15-.036-.182a.301.301 0 0 0-.18-.046c-.151 0-.316.043-.493.13l.06-.275c.195-.068.381-.103.559-.103.109 0 .202.015.282.045.079.03.137.075.175.138.038.061.043.154.016.278l-.144.652c-.017.08-.015.129.006.147a.104.104 0 0 0 .069.026.487.487 0 0 0 .055-.004l-.04.222a.894.894 0 0 1-.233.037.39.39 0 0 1-.181-.037c-.048-.024-.078-.075-.09-.153h-.017zm.046-.213.066-.3h-.094a.573.573 0 0 0-.304.069.278.278 0 0 0-.133.173c-.013.057-.003.104.027.14a.15.15 0 0 0 .123.055.373.373 0 0 0 .149-.035.776.776 0 0 0 .166-.102zm-2.488.369.436-1.986h.742c.152 0 .263.02.334.057a.313.313 0 0 1 .15.173c.03.078.034.165.012.263a.744.744 0 0 1-.173.33.867.867 0 0 1-.336.236l.447.927h-.504l-.315-.81h-.227l-.178.81h-.388zm.626-1.085h.095c.17 0 .296-.036.378-.11a.475.475 0 0 0 .154-.252c.017-.081.005-.145-.037-.193-.043-.048-.146-.072-.308-.072h-.144l-.138.627zm-2.007 1.085.465-2.119h.396l-.466 2.119h-.395zm-.717 0 .466-2.119h.396l-.466 2.119h-.396zm-.94.034a.729.729 0 0 1-.39-.093.45.45 0 0 1-.2-.275.831.831 0 0 1 0-.402c.032-.147.09-.28.176-.4a.847.847 0 0 1 .32-.276.967.967 0 0 1 .432-.095c.16 0 .291.032.392.095.1.063.166.155.199.275a.832.832 0 0 1 0 .4 1.078 1.078 0 0 1-.177.403.85.85 0 0 1-.321.275.974.974 0 0 1-.431.093zm.054-.247c.112 0 .208-.05.286-.149a.912.912 0 0 0 .167-.374.692.692 0 0 0-.003-.374c-.034-.1-.108-.15-.22-.15a.353.353 0 0 0-.285.15.913.913 0 0 0-.167.374.694.694 0 0 0 .003.374c.034.1.108.15.219.15zm-2.036.168.064-.293c.179.083.338.125.477.125a.35.35 0 0 0 .188-.047.186.186 0 0 0 .093-.12.112.112 0 0 0-.026-.106.43.43 0 0 0-.134-.082l-.122-.053a.671.671 0 0 1-.266-.184c-.052-.067-.066-.153-.042-.26a.516.516 0 0 1 .219-.317c.117-.083.278-.125.483-.125.12 0 .258.018.415.053l-.06.279a1.09 1.09 0 0 0-.377-.084.38.38 0 0 0-.194.042.17.17 0 0 0-.085.11.106.106 0 0 0 .02.092c.02.027.061.053.124.08l.105.044c.174.072.283.143.327.21.043.07.053.152.032.248a.555.555 0 0 1-.232.327.816.816 0 0 1-.496.14c-.173 0-.344-.027-.513-.08zM19.46 20l.324-1.472h.395l-.06.277a.808.808 0 0 1 .243-.227.566.566 0 0 1 .367-.08l-.078.357a.405.405 0 0 0-.15-.03c-.08 0-.155.02-.228.059a.76.76 0 0 0-.212.18l-.205.936h-.396zm-.214-.05c-.2.056-.384.084-.551.084a.81.81 0 0 1-.399-.09.448.448 0 0 1-.214-.278.835.835 0 0 1-.006-.413 1.08 1.08 0 0 1 .166-.382.901.901 0 0 1 .299-.276.814.814 0 0 1 .408-.102c.187 0 .324.06.41.18.085.121.091.345.02.672h-.904a.477.477 0 0 0 .015.236.28.28 0 0 0 .115.136.443.443 0 0 0 .235.051c.131 0 .287-.032.467-.095l-.061.277zm-.73-.829h.52c.03-.136.03-.233-.003-.292a.16.16 0 0 0-.152-.088.288.288 0 0 0-.21.096.709.709 0 0 0-.155.284zm-2.194 1.332.094-.29a.938.938 0 0 0 .438.115c.137 0 .247-.03.33-.087.081-.058.138-.162.17-.31l.045-.2a.784.784 0 0 1-.237.23.57.57 0 0 1-.309.089.445.445 0 0 1-.281-.086.404.404 0 0 1-.142-.258.986.986 0 0 1 .015-.384c.049-.222.145-.406.289-.555a.688.688 0 0 1 .652-.208c.04.01.08.027.114.05.035.022.075.06.12.114l.073-.145h.355L17.8 19.65c-.065.296-.137.496-.217.599a.737.737 0 0 1-.313.232c-.128.052-.27.078-.422.078a1.44 1.44 0 0 1-.527-.106zm1.128-1.004.12-.545a.365.365 0 0 0-.13-.13.292.292 0 0 0-.132-.033c-.098 0-.186.045-.265.137a.83.83 0 0 0-.17.372.553.553 0 0 0 .002.315c.03.077.09.115.178.115a.38.38 0 0 0 .194-.058.872.872 0 0 0 .203-.173zM14.767 20l.323-1.472h.396l-.06.276a.919.919 0 0 1 .29-.24.642.642 0 0 1 .28-.07c.116 0 .207.037.275.111.067.075.083.193.048.354L16.089 20h-.395l.207-.944a.385.385 0 0 0 .014-.163.114.114 0 0 0-.046-.065.145.145 0 0 0-.08-.023.394.394 0 0 0-.184.055.968.968 0 0 0-.239.212l-.203.928h-.396zm-.722 0 .436-1.986h.412L14.456 20h-.41zm-.181-3.308c-.31-1.524-2.76-2.13-5.476-1.354-.562.16-1.09.369-1.574.61h.333a6.659 6.659 0 0 1 1.262-.505c2.254-.645 4.322.021 4.62 1.488.171.84-.278 1.761-1.117 2.516l-.08.376c1.409-.902 2.242-2.095 2.032-3.131zm-3.115 3.556a6.642 6.642 0 0 1-1.263.505c-2.253.644-4.322-.021-4.62-1.487-.17-.843.28-1.765 1.122-2.52l.079-.375c-1.41.903-2.245 2.097-2.035 3.133.31 1.524 2.761 2.13 5.476 1.354a9.206 9.206 0 0 0 1.574-.61h-.333zm-1.055-2.542.174-.826c.446.005.801-.014.72.368-.103.494-.277.449-.894.458zm-2.037 2.296h1.554l.309-1.469c.588-.019.788.048.725.346l-.236 1.123h1.547l.26-1.233c.034-.164.119-.567-.559-.75.689-.187.838-.581.896-.854.134-.64-.389-.97-1.195-.97h-2.5l-.8 3.807zm-1.314-3.808h1.65l-.802 3.808H5.542l.801-3.808z" fill="#D52B1E"/></svg>