<svg width="36" height="36" fill="none" xmlns="http://www.w3.org/2000/svg"><path d="M18 0c2.837 0 5.52.656 7.907 1.825C31.884 4.753 36 10.895 36 18c0 9.942-8.058 18-18 18-9.94 0-18-8.057-18-18C0 8.06 8.06 0 18 0z" fill="#F2F4F7"/><path d="M5.49 15c-.456 0-.826.35-.826.78 0 .43.37.78.825.78.456 0 .826-.35.826-.78 0-.43-.37-.78-.826-.78zm11.84.056-.831 3.716c-.295 1.316.643 2.28 2.196 2.28 1.74 0 2.892-.709 3.22-2.181.317-1.421-.785-2.378-2.212-2.378-.33 0-.897.079-1.086.177l.36-1.614H17.33zm11.758 0-.85 3.83c-.25 1.121.593 2.162 2.567 2.162.017 0 .05-.003.05-.003l.334-1.498c-.623.09-1.425-.132-1.282-.774l.215-.957h1.454l.3-1.342h-1.454l.317-1.418h-1.651zm-22.015 0-.317 1.418H8.2c.294 0 .482.229.42.508-.063.28-.352.5-.646.5H6.51c-1.063.035-1.899.708-2.17 1.922L4 20.924h1.746l.764-3.441 1.96 3.442h2.053l-1.322-2.312c.35-.183 1.156-.69 1.373-1.653.209-.925-.353-1.903-1.583-1.903H7.073zm6.747 1.437c-1.558 0-2.907.874-3.22 2.28-.312 1.406.654 2.279 2.175 2.279 1.864 0 2.956-.873 3.263-2.28.308-1.405-.66-2.279-2.218-2.279zm11.77 0c-1.559 0-2.907.874-3.22 2.28-.312 1.406.654 2.279 2.174 2.279 1.864 0 2.956-.873 3.264-2.28.308-1.405-.66-2.279-2.218-2.279zm-12.062 1.322c.683 0 .983.392.857.957s-.597.957-1.285.957c-.689 0-.984-.389-.853-.97s.591-.944 1.28-.944zm5.89 0c.684 0 .994.392.868.957-.127.565-.613.957-1.301.957-.689 0-.96-.414-.829-.995.132-.581.573-.919 1.263-.919zm5.88 0c.683 0 .983.392.857.957s-.597.957-1.286.957c-.688 0-.983-.389-.852-.97.132-.581.591-.944 1.28-.944zm6.322-2.705c.21 0 .38.166.38.365 0 .2-.17.362-.38.362a.373.373 0 0 1-.382-.362c0-.199.172-.364.383-.364zm0 .667a.31.31 0 0 0 .317-.302.311.311 0 0 0-.316-.303c-.174 0-.32.137-.32.303 0 .167.146.302.32.302zm.202-.104h-.078l-.133-.163h-.068v.163h-.069v-.408h.153c.117 0 .16.063.16.122 0 .064-.045.106-.104.117l.14.17zm-.197-.353h-.082v.138h.08c.062 0 .092-.024.092-.069 0-.03-.014-.069-.09-.069z" fill="#64A70B"/></svg>