<svg height="36" viewBox="0 0 36 36" width="36" xmlns="http://www.w3.org/2000/svg"><mask id="a" fill="#fff"><path d="M0 0h22.182v1.08H0z" fill-rule="evenodd"/></mask><g fill="none" fill-rule="evenodd"><path d="M18 0c2.837 0 5.52.656 7.907 1.825C31.884 4.753 36 10.895 36 18c0 9.942-8.058 18-18 18-9.94 0-18-8.057-18-18C0 8.06 8.06 0 18 0z" fill="#f2f4f7" fill-rule="nonzero"/><path d="M6.454 16.907v-.014zm-.435.196h.014z" fill="#fff"/><path d="m6.37 15-.183.309.701 1.43-.784-1.262-.043.056.687 1.416-.785-1.234-.042.056.617 1.29-.701-1.121-.056.07.533 1.121-.617-.939-.057.07.464.939-.533-.771-.057.07.365.757-.449-.603-.055.085.336.687-.407-.561-.056.098.308.617-.378-.491-.07.099.295.574-.352-.448-.069.112.252.533-.309-.421-.069.126.28.547-.337-.462-.083.126.266.532-.309-.434-.084.14.238.476-.28-.378-.084.127.168.364-.21-.267-.099.141.113.21h-.014l-.126-.154-.295.547 4.753-.014z" fill="#2c6397"/><g fill="#0c0e0f"><path d="M10.618 19.066c0 .028-.014.042-.042.042h-.154v.1h.743v-.1h-.182c-.084 0-.084-.112-.084-.448v-.379h.224c.59.926.631.926.701.926h.365v-.098h-.07c-.099 0-.21-.099-.744-.87.295-.056.505-.224.505-.519 0-.406-.365-.547-.645-.547h-.897v.1h.196c.084 0 .084.125.084.447zm.281-.883v-.842c0-.042.042-.056.07-.056h.154c.252 0 .491.197.491.491 0 .31-.28.407-.56.407zm-.827.393c0 .378 0 .518.098.518h.21v.113h-.856v-.113h.17c.041 0 .055-.028.055-.055v-1.557c0-.379 0-.533-.098-.533h-.225v-.098h.87v.098h-.169c-.042 0-.056.028-.056.07v1.557z"/><path d="M21.737 17.174h.743v.098h-.14c-.042 0-.057.028-.057.056v1.206c0 .477.31.603.547.603.66 0 .673-.505.673-.757v-.771c0-.155-.014-.337-.098-.337h-.168v-.098h.575v.098H23.7c-.042 0-.069.014-.069.07v1.136c0 .49-.323.785-.814.785-.77 0-.799-.49-.799-.827v-.715c0-.323-.014-.45-.098-.45h-.182zm-.996 2.089c.631 0 1.066-.49 1.066-1.108 0-.616-.364-1.037-1.009-1.037s-1.066.505-1.066 1.108c0 .617.364 1.037 1.01 1.037zm-.014-2.047c.38 0 .8.309.8 1.038 0 .574-.295.91-.716.91-.378 0-.813-.307-.813-1.036 0-.576.295-.912.73-.912zm-1.079-.266h-.155c-.042 0-.056.028-.056.07v1.556c0 .378 0 .519.098.519h.21v.112h-.855v-.112h.17c.041 0 .055-.028.055-.056v-1.837h-.014l-.827 1.963c-.015.029-.015.029-.07.029-.014 0-.029-.043-.056-.084l-.87-1.866-.014.014v1.444c0 .168.014.393.126.393h.197v.112H16.9v-.112h.14c.042 0 .084-.014.084-.07v-1.641c0-.294-.028-.434-.21-.434h-.113v-.098h.603l.897 1.85.828-1.85h.52zm-3.744 1.808v-1.15c0-.154 0-.336-.098-.336h-.169v-.098h.59v.098H16.1c-.042 0-.07.014-.07.07v1.837c0 .042 0 .056-.028.056-.014 0-.028-.014-.042-.028l-.042-.056-1.388-1.668v1.29c0 .154 0 .336.098.336h.17v.098h-.59v-.098h.126c.042 0 .07-.014.07-.056v-1.416c0-.253-.028-.365-.183-.365h-.098v-.098h.463zm-2.832.505c.631 0 1.065-.49 1.065-1.108 0-.616-.364-1.037-1.009-1.037-.63 0-1.066.505-1.066 1.108 0 .617.365 1.037 1.01 1.037zm-.014-2.047c.378 0 .813.309.813 1.038 0 .574-.295.91-.729.91-.379 0-.813-.307-.813-1.036 0-.576.294-.912.73-.912z"/><path d="M26.897 18.66c0 .336.014.448.098.448h.238v.099h-.897v-.1h.238c.042 0 .056-.012.056-.041v-1.78h-.084c-.378 0-.561.07-.588.168 0 .014-.015.042-.043.042s-.042-.014-.042-.028.056-.168.099-.294h1.584c.042.126.098.28.098.294s-.028.028-.042.028c-.028 0-.043-.028-.043-.042-.027-.098-.21-.168-.588-.168h-.084zm-1.346.098h.014v-1.15c0-.154-.014-.336-.112-.336h-.168v-.098h.588v.098h-.112c-.042 0-.084.014-.084.07v1.837c0 .042 0 .055-.014.055s-.028-.013-.056-.027l-.028-.057-1.39-1.668h-.012v1.29c0 .155.013.336.112.336h.168v.099h-.59v-.1h.113c.042 0 .084-.012.084-.054v-1.417c0-.252-.028-.364-.182-.364h-.098v-.098h.463z"/><path d="M28.495 18.449c.126.379.21.604.21.632 0 .027-.014.027-.042.027h-.168v.099h.715v-.099h-.098c-.084 0-.126-.042-.197-.238-.154-.435-.546-1.5-.546-1.64 0-.056.056-.056.056-.098a.031.031 0 0 0-.028-.029.783.783 0 0 0-.196.043l-.813 1.92c-.015.043-.057.043-.113.043h-.056v.098h.645v-.098h-.21c-.042 0-.071-.014-.071-.084 0-.085.113-.393.183-.575h.729zm-.056-.111h-.631l.351-.856z"/><path d="M31.678 18.758h.014v-1.15c0-.154-.014-.336-.098-.336h-.183v-.098h.59v.098h-.113c-.042 0-.07.014-.07.07v1.837c0 .042-.014.056-.028.056s-.028-.014-.042-.028l-.042-.056-1.388-1.67h-.015v1.292c0 .154.015.336.113.336h.168v.098h-.589v-.098h.126c.028 0 .07-.014.07-.056v-1.417c0-.252-.028-.364-.182-.364h-.098v-.098h.462zm-2.005-.098c0 .336.014.449.084.449h.182v.098h-.743v-.098h.154c.042 0 .057-.014.057-.042V17.72c0-.322-.015-.448-.099-.448h-.182v-.098h.743v.098h-.154c-.028 0-.042.028-.042.056z"/></g><path d="M9.637 19.754h22.195" stroke="#0c0e0f" stroke-width=".117"/><path d="M21.172.084h.098c.042 0 .042.057.042.225v.672c0 .014 0 .029-.028.029h-.07v.042h.435c.336 0 .533-.239.533-.533a.49.49 0 0 0-.533-.491h-.477zm.281.043c0-.028.013-.028.126-.028.224 0 .448.139.448.49 0 .182-.098.407-.378.407h-.126c-.057 0-.07 0-.07-.196zM19.42.309c0-.168 0-.225-.043-.225h-.098V.028h.813c-.014.155-.028.155-.042.155s-.014 0-.014-.029c0-.013-.028-.055-.281-.055h-.167c-.015 0-.029 0-.029.027v.351h.182c.169 0 .225-.014.225-.056v-.07h.042v.28h-.042V.562c0-.043-.014-.043-.196-.043h-.21V.8c0 .195.013.195.07.195h.098c.28 0 .336-.042.364-.084.014-.014.014-.014.028-.014 0 0 .014 0 .014.014 0 .015-.028.084-.042.141h-.771V1.01h.084c.014 0 .014-.015.014-.029V.309zm-1.543.476c0 .154 0 .225.042.225h.126v.042h-.448V1.01h.112a.03.03 0 0 0 .028-.029V.099h-.042c-.183 0-.281.028-.295.069a.03.03 0 0 1-.028.028s-.014 0-.014-.013c0-.015.028-.084.042-.155h.8a.64.64 0 0 1 .042.155c0 .013 0 .013-.014.013s-.014-.013-.014-.028c-.028-.042-.113-.069-.309-.069h-.028zM16.152.673c.057.196.113.308.113.322 0 0-.014.015-.029.015h-.084v.042h.351V1.01h-.042c-.042 0-.057-.029-.098-.126-.084-.211-.281-.758-.281-.814 0-.042.028-.042.028-.056s0-.014-.014-.014-.056.014-.098.014l-.407.967c0 .014-.027.029-.056.029h-.028v.042h.323V1.01h-.098c-.029 0-.042-.015-.042-.042 0-.042.055-.211.098-.295zm-.028-.056h-.322l.182-.434zm-2.341.364a.03.03 0 0 1-.028.029h-.084v.042h.378V1.01h-.084c-.042 0-.056-.071-.056-.225V.589h.126c.295.463.309.463.351.463h.182V1.01h-.042c-.042 0-.098-.057-.364-.435.139-.028.252-.126.252-.266 0-.197-.182-.281-.323-.281h-.448v.056h.084c.042 0 .056.057.056.225zm.126-.434V.112c0-.013.028-.013.042-.013h.084c.127 0 .239.084.239.238s-.141.21-.281.21zm-1.879.533c.323 0 .533-.253.533-.547 0-.322-.183-.533-.505-.533s-.532.252-.532.561c0 .308.182.519.504.519zm0-1.024c.183 0 .392.155.392.519 0 .294-.139.463-.35.463-.196 0-.406-.154-.406-.519 0-.294.14-.463.364-.463zM9.675.084h.098c.042 0 .042.057.042.225v.672c0 .014 0 .029-.014.029h-.084v.042h.378V1.01h-.098c-.042 0-.042-.071-.042-.225v-.21c.042.014.098.014.14.014.225 0 .351-.14.351-.28 0-.197-.169-.281-.322-.281h-.449zm.28.028c0-.013.014-.013.056-.013.266 0 .309.154.309.238 0 .126-.112.21-.238.21-.043 0-.085-.014-.127-.028zM7.908.981a.03.03 0 0 1-.028.029h-.084v.042h.378V1.01H8.09c-.042 0-.056-.071-.056-.225V.589h.126c.295.463.309.463.351.463h.182V1.01h-.042c-.042 0-.098-.057-.365-.435.141-.028.253-.126.253-.266 0-.197-.182-.281-.323-.281h-.448v.056h.084c.042 0 .056.057.056.225zm.126-.434V.112c0-.013.028-.013.042-.013h.084c.127 0 .239.084.239.238s-.141.21-.281.21zm-1.879.533c.323 0 .533-.253.533-.547C6.688.211 6.506 0 6.183 0c-.322 0-.532.252-.532.561 0 .308.182.519.504.519zm0-1.024c.183 0 .393.155.393.519 0 .294-.14.463-.351.463-.196 0-.406-.154-.406-.519 0-.294.14-.463.364-.463zm-1.64.14c-.014 0-.014-.013-.014-.028C4.487.099 4.36.056 4.262.056 3.968.056 3.8.28 3.8.562c0 .307.224.461.42.461.14 0 .309-.055.323-.154 0-.014 0-.027.014-.027s.014.013.014.027c0 .015 0 .028-.014.141a.996.996 0 0 1-.364.07c-.323 0-.547-.169-.547-.491 0-.351.294-.589.63-.589.099 0 .183.028.267.056 0 .127 0 .14-.028.14zM2.356.827V.253c0-.07 0-.169-.057-.169h-.084V.028h.295v.056h-.056c-.014 0-.042 0-.042.028v.926c0 .014 0 .028-.014.028l-.014-.014-.028-.029-.687-.827v.646c0 .07 0 .168.042.168h.084v.042h-.294V1.01h.069c.016-.001.027-.013.029-.029V.267c0-.126-.014-.182-.085-.182h-.055V.028h.238zM.281.785c0 .154 0 .225.042.225h.084v.042H.042V1.01h.07C.128 1.009.139.997.14.981V.309C.14.141.14.084.098.084H0V.028h.379v.056H.295C.28.084.28.099.28.112v.673z" fill="#0c0e0f" mask="url(#a)" transform="translate(9.693 20.595)"/></g></svg>