<svg width="36" height="36" fill="none" xmlns="http://www.w3.org/2000/svg"><path d="M18 0c2.837 0 5.52.656 7.907 1.825C31.884 4.753 36 10.895 36 18c0 9.942-8.058 18-18 18-9.94 0-18-8.057-18-18C0 8.06 8.06 0 18 0z" fill="#F2F4F7"/><path d="M4.606 17.334h-.485v2.562h.485v-2.563zm-.242-.607a.355.355 0 0 0 .363-.363.355.355 0 0 0-.363-.364.355.355 0 0 0-.364.364c0 .19.173.363.364.363zM8 18.268c.606-.103.97-.467.97-1.09 0-.728-.52-1.109-1.316-1.109H6.199v3.81h.52v-1.593h.744l1.022 1.593h.589L8 18.269zm-1.281-.415V16.52h.917c.537 0 .849.242.849.658 0 .415-.294.675-.849.675H6.72zm6.061-1.767v1.628h-2.044v-1.628h-.52v3.81h.52v-1.749h2.043v1.749h.502v-3.81h-.502zm3.081 1.749-1.09-1.749h-.555l1.386 2.217v1.593h.502v-1.593l1.385-2.217h-.537l-1.09 1.75zm5.178-1.298v-.45h-2.823l-.277.45h1.3v3.359h.501v-3.36h1.299zm3.463-.451v1.628H22.46v-1.628h-.52v3.81h.52v-1.749h2.043v1.749h.502v-3.81h-.502zm4.156 3.81 1.177-3.134v3.134h.468v-3.81h-.675l-1.16 3.135-1.16-3.135h-.693v3.81h.485v-3.134l1.16 3.134h.398zm2.944-3.012a.392.392 0 0 1-.398-.398c0-.225.173-.399.398-.399.225 0 .398.174.398.399a.392.392 0 0 1-.398.398zm0-.745a.347.347 0 0 0-.346.347.347.347 0 0 0 .692 0 .337.337 0 0 0-.346-.347zm.104.537-.122-.173h-.086v.173h-.052v-.398h.173c.087 0 .139.052.139.121 0 .07-.07.104-.104.104l.121.173h-.07zm-.087-.363h-.104v.138h.104c.052 0 .087-.017.087-.07 0-.034-.035-.069-.087-.069z" fill="#383EBD"/></svg>