<svg height="36" viewBox="0 0 36 36" width="36" xmlns="http://www.w3.org/2000/svg"><mask id="a" fill="#fff"><path d="M0 0h28v24.363H0z" fill-rule="evenodd"/></mask><mask id="b" fill="#fff"><path d="M0 0h28v24.363H0z" fill-rule="evenodd"/></mask><g fill="none" fill-rule="evenodd"><path d="M18 0c2.837 0 5.52.656 7.907 1.825C31.884 4.753 36 10.895 36 18c0 9.942-8.058 18-18 18-9.94 0-18-8.057-18-18C0 8.06 8.06 0 18 0z" fill="#f2f4f7" fill-rule="nonzero"/><path d="M20.568 23.705c6.827-2.177 9.42-9.1 5.793-15.464C22.734 1.877 14.259-1.52 7.433.658.606 2.834-1.988 9.758 1.64 16.122c3.627 6.364 12.1 9.759 18.928 7.583" fill="#fff" mask="url(#a)" transform="translate(4 6)"/><path d="M15.59 14.52c-.232.768-.786 1.487-1.561 2.027-.773.54-1.678.837-2.546.837H7.98l.028-.093.049-.159.696-2.296.028-.093.016-.052h2.246l.04.002c.515 0 .933-.366.933-.817a.746.746 0 0 0-.183-.486l-.066-.076-1.675-2.042-.055-.067.002-.001c-.42-.556-.527-1.27-.3-2.025.234-.768.789-1.489 1.563-2.028.774-.54 1.678-.837 2.546-.837h3.496l-.028.094-.048.158-.696 2.296-.028.094-.016.051h-2.277v.002c-.515 0-.934.366-.934.817 0 .176.064.344.184.486l.152.182 1.584 1.931.05.062-.001.002c.425.555.533 1.273.304 2.031m10.77-6.279a14.75 14.75 0 0 0-1.072-1.617l-.68 2.238-.027.094-.016.051h-2.277v.002c-.515 0-.933.366-.933.817 0 .176.063.344.183.486l.152.182 1.585 1.932.052.064-.002.001c.423.555.53 1.272.302 2.028-.233.769-.787 1.488-1.562 2.028-.774.539-1.678.836-2.546.836h-3.502l.029-.092.047-.16.697-2.296.028-.092.016-.052h2.245l.04.002c.515 0 .934-.366.934-.817a.746.746 0 0 0-.183-.486l-.067-.076-1.674-2.042-.053-.065.002-.001c-.422-.555-.53-1.271-.3-2.027.232-.768.787-1.489 1.56-2.028.775-.54 1.679-.837 2.547-.837h3.16C21.719 2.176 16.204-.253 10.982.021l-.816 2.692-.03.093-.014.051h-3.51l.029-.093.048-.159.573-1.891C.564 2.951-1.958 9.811 1.639 16.122c.19.331.392.655.607.97L5.47 6.453l.028-.093.016-.052h3.509l-.028.094-.048.159-3.241 10.692-.03.093-.015.052H2.46c3.972 5.53 11.753 8.332 18.108 6.307 6.826-2.177 9.42-9.1 5.793-15.464" fill="#007bb4" mask="url(#b)" transform="translate(4 6)"/></g></svg>