<svg height="36" viewBox="0 0 36 36" width="36" xmlns="http://www.w3.org/2000/svg"><mask id="a" fill="#fff"><path d="M0 0h28v6.421H0z" fill-rule="evenodd"/></mask><g fill="none" fill-rule="evenodd"><path d="M18 0c2.837 0 5.52.656 7.907 1.825C31.884 4.753 36 10.895 36 18c0 9.942-8.058 18-18 18-9.94 0-18-8.057-18-18C0 8.06 8.06 0 18 0z" fill="#f2f4f7" fill-rule="nonzero"/><path d="M9.023 4.431h-.161c-.513 0-1.477.032-1.444.577 0 .803 1.605.546 1.605-.385zm1.092-.899v2.73h-.996l-.032-.419c-.29.386-.802.514-1.316.514-.74 0-1.477-.385-1.477-1.252-.032-1.38 1.54-1.477 2.536-1.477h.193v-.064c0-.45-.29-.707-.867-.707-.417 0-.802.161-1.124.45l-.642-.674c.578-.482 1.188-.643 1.862-.643 1.285 0 1.863.61 1.863 1.542zm13.679.16c-.032-.513-.418-.867-.964-.835-.545.032-.931.386-.995.835zm1.124.867h-3.083c.096.546.514.867 1.027.867.514.032.803-.128 1.157-.514l.738.58c-.514.64-1.156.865-1.862.865-1.252 0-2.184-.866-2.184-2.184 0-1.316.932-2.183 2.15-2.183 1.318 0 2.057.803 2.057 2.248zM5.748 5.78a5.04 5.04 0 0 1-2.537.642C1.349 6.357 0 5.202 0 3.243S1.349.033 3.21 0c.933 0 1.767.225 2.442.804l-.803.802a2.564 2.564 0 0 0-1.702-.514c-1.188.065-1.895.9-1.895 2.088C1.22 4.431 1.99 5.3 3.21 5.33c.578.032.996-.064 1.349-.225V3.821H3.275l.097-1.06h2.376zm7.546-3.692-.097.963h-.321c-.61 0-.931.514-.931.995v2.216H10.82V2.087h1.06l.032.513c.225-.353.61-.513 1.09-.513zm2.6 3.178-.064.964a3.442 3.442 0 0 1-.802.097c-1.06 0-1.381-.483-1.381-1.446V.931h1.124v1.156h1.124l-.065.963h-1.06v1.734c0 .385.097.61.515.61.16 0 .353-.032.61-.129zm4.303.996h-1.124V4.045c0-.449-.031-1.027-.706-1.027-.61 0-.867.45-.867.963v2.28h-1.124V2.087h1.06v.546c.224-.354.642-.643 1.252-.643 1.156 0 1.509.803 1.509 1.638zM28 2.087l-.097.963h-.385c-.642 0-.963.514-.963.995v2.216H25.43V2.087h1.06l.032.513c.225-.353.61-.513 1.092-.513z" fill="#000" mask="url(#a)" transform="translate(4 15)"/></g></svg>