<svg height="36" viewBox="0 0 36 36" width="36" xmlns="http://www.w3.org/2000/svg"><g fill="none" fill-rule="evenodd"><path d="M18 0c2.837 0 5.52.656 7.907 1.825C31.884 4.753 36 10.895 36 18c0 9.942-8.058 18-18 18-9.94 0-18-8.057-18-18C0 8.06 8.06 0 18 0z" fill="#f2f4f7" fill-rule="nonzero"/><path d="m9.956 6-.205.004-.2.017-.199.026-.194.034-.192.045-.188.054-.184.063-.178.072-.177.079-.17.09-.166.096-.16.104-.155.112-.15.12-.144.125-.136.132-.132.14-.124.144-.117.151-.11.157-.102.163-.096.167-.087.174-.08.176-.07.182-.063.185-.052.19-.045.194-.034.197-.026.2-.016.203-.004.207v16l.004.204.016.204.026.2.034.196.045.194.052.191.063.185.07.181.08.179.087.17.096.168.101.163.111.156.117.151.124.145.132.14.136.132.144.125.15.12.154.11.161.104.165.096.17.088.178.081.178.07.184.064.188.054.192.045.194.034.2.026.199.016.205.005H25.77l.205-.005.2-.016.199-.026.195-.034.191-.045.188-.054.184-.063.179-.07.175-.082.17-.088.167-.096.16-.104.155-.11.148-.12.145-.125.136-.132.132-.14.123-.145.12-.15.108-.157.103-.163.094-.168.089-.17.08-.179.069-.181.063-.185.052-.19.045-.195.035-.195.024-.201.017-.204.005-.205v-16l-.005-.206-.017-.203-.024-.2-.035-.197-.045-.193-.052-.19-.063-.186-.07-.182-.08-.176-.088-.174-.094-.167-.103-.163-.108-.157-.12-.151-.123-.145-.132-.14-.136-.13-.145-.127-.148-.12-.155-.111-.16-.104-.167-.096-.17-.09-.175-.079-.179-.072-.184-.063-.188-.054-.19-.045-.196-.034-.2-.026-.199-.017L25.77 6z" fill="#1a5493"/><path d="m25.24 17.997-1.111 1.618h1.286l1.568-1.618zm-13.689.002V20h-.84v1.367h.84v2.438l.002.076.002.072.001.074.003.071.004.07.006.07.006.067.007.067.008.065.009.065.01.062.012.062.011.06.014.06.014.056.014.058.017.055.018.054.018.053.018.05.021.052.022.048.02.047.025.046.024.045.025.043.027.043.028.041.028.04.03.037.03.037.032.035.03.03.03.03.03.028.031.03.035.025.034.028.036.027.037.025.038.025.04.025.04.022.04.024.044.021.043.021.046.021.045.018.047.02.048.017.05.016.047.015.051.014.052.013.052.012.054.01.053.011.055.009.054.005.056.006.057.006.059.004.057.001.06.002.097-.002.09-.003.085-.004.077-.006.073-.008.066-.008.064-.011.058-.012.056-.012.052-.014.05-.015.048-.015.092-.032.09-.035v-1.394l-.023.01-.032.009-.037.008-.046.008-.051.008-.058.004-.063.004-.067.002-.059-.002-.055-.002-.053-.006-.05-.01-.048-.01-.045-.013-.042-.014-.04-.018-.037-.02-.036-.02-.034-.026-.03-.025-.029-.03-.027-.03-.025-.033-.022-.035-.02-.037-.02-.04-.018-.04-.017-.043-.013-.047-.013-.047-.01-.05-.011-.051-.007-.055-.008-.056-.006-.058-.004-.06-.003-.063-.003-.062-.002-.067v-2.192h1.145V20h-1.145v-2.002zm14.37 2.005v3.567l-.003.051-.005.05-.007.047-.007.048-.01.045-.014.046-.016.041-.014.035-.017.034-.017.035-.018.034-.019.034-.021.033-.022.035-.024.033-.025.033-.025.033-.029.033-.028.032-.028.03-.032.03-.033.029-.035.028-.035.027-.036.027-.038.024-.038.024-.042.021-.041.02-.043.02-.045.016-.045.017-.048.014-.05.012-.05.009-.05.008-.054.006-.053.004h-.056l-.069-.001-.066-.005-.065-.008-.063-.012-.059-.013-.058-.018-.054-.021-.052-.024-.05-.025-.049-.03-.045-.034-.044-.035-.04-.039-.04-.041-.035-.043-.034-.047-.033-.05-.029-.052-.028-.056-.026-.056-.022-.06-.023-.064-.018-.065-.017-.068-.015-.07-.012-.072-.011-.076-.009-.078-.008-.08-.005-.082-.002-.083-.001-.088v-3.172h-1.8v3.593l.002.087.003.082.005.082.006.081.007.08.01.076.008.077.012.073.012.072.013.07.016.07.016.067.018.066.018.065.02.061.022.061.023.06.022.06.026.056.025.056.025.054.028.053.028.052.028.05.03.048.032.049.032.045.033.045.034.044.034.041.036.04.036.041.04.038.037.038.04.034.04.034.042.033.042.032.043.03.045.028.043.027.047.026.046.025.047.022.05.023.048.02.051.02.052.018.05.016.053.016.052.014.055.013.053.013.055.012.057.008.055.01.057.007.059.006.057.006.06.004.059.002.06.002h.166l.05-.002.05-.004.052-.004.049-.004.048-.004.048-.008.046-.007.046-.008.047-.008.043-.01.044-.01.042-.011.043-.012.042-.013.08-.026.078-.029.074-.03.073-.03.07-.033.066-.032.065-.037.06-.035.058-.038.056-.038.055-.039.051-.038.049-.041.045-.043.044-.041.041-.043.04-.043.037-.041.034-.04.033-.04.031-.038.028-.037.026-.035.023-.036.232.852h1.461v-5.995zm-6.783 3.783v.073l-.004.038-.002.039-.005.038-.004.039-.007.037-.009.037-.003.014-.006.02-.003.017-.005.012-.006.015-.006.016-.016.037-.018.036-.019.036-.02.036-.024.034-.024.037-.024.033-.027.034-.028.033-.028.033-.032.032-.032.031-.033.03-.034.028-.037.029-.037.027-.04.025-.037.026-.042.022-.041.022-.043.022-.045.018-.045.018-.047.016-.047.014-.048.013-.05.011-.05.009-.052.007-.052.005-.054.004h-.1l-.046-.003-.045-.002-.045-.007-.042-.008-.042-.006-.041-.011-.04-.012-.038-.012-.038-.015-.036-.016-.034-.02-.035-.017-.03-.02-.031-.023-.028-.023-.028-.025-.026-.028-.025-.026-.022-.03-.021-.032-.02-.031-.019-.035-.016-.034-.013-.036-.013-.04-.01-.038-.01-.04-.008-.044-.003-.043-.004-.046v-.098l.005-.05.007-.05.009-.048.012-.045.015-.044.018-.043.02-.041.021-.041.024-.038.027-.037.029-.036.031-.035.035-.031.035-.031.039-.03.04-.03.04-.028.046-.025.046-.026.047-.024.05-.022.05-.021.054-.02.056-.02.057-.015.058-.017.06-.016.062-.014.063-.014.064-.011.067-.011.062-.009.065-.01.066-.007.068-.007.067-.005.072-.006.07-.003.074-.003.044-.001.045-.002h.275zm-1.052-3.959h-.105l-.104.003-.103.005-.099.006-.097.006-.097.009-.095.01-.094.011-.09.014-.088.013-.088.015-.086.017-.084.016-.081.018-.08.02-.079.02-.076.02-.073.02-.071.024-.07.023-.069.022-.064.024-.064.024-.062.025-.059.024-.057.025-.055.026-.054.025-.05.026-.048.025-.047.026-.045.026.348 1.178.04-.023.042-.024.042-.025.044-.023.047-.022.047-.022.048-.023.051-.02.053-.022.053-.02.053-.022.055-.019.055-.018.057-.02.056-.018.059-.016.058-.017.06-.014.06-.015.06-.014.062-.014.062-.011.06-.011.063-.01.06-.01.063-.007.062-.007.061-.005.062-.005.06-.004.064-.002h.06l.098.002.094.004.09.008.082.01.08.013.077.014.071.018.066.02.065.022.059.025.054.025.05.027.048.028.044.03.042.031.037.032.034.034.032.034.03.033.024.034.023.037.02.035.018.033.016.034.013.035.01.033.01.033.008.032.005.032.003.03.003.028v.09l-.22.003-.217.005-.21.011-.206.016-.198.02-.192.025-.19.028-.18.034-.175.038-.167.044-.164.047-.156.053-.148.057-.142.061-.137.066-.128.072-.122.074-.114.079-.108.084-.1.09-.093.094-.085.097-.077.103-.07.106-.062.111-.054.117-.047.12-.036.127-.03.129-.023.134-.011.14-.005.142.002.085.005.085.01.086.016.083.019.085.022.084.027.082.031.082.034.078.04.08.043.075.047.075.05.074.055.07.06.07.061.065.066.063.07.06.075.057.076.055.083.05.085.048.09.044.093.039.096.036.1.032.105.026.106.023.111.018.115.013.119.008.121.003.074-.002.073-.003.072-.002.07-.006.07-.008.07-.01.068-.01.068-.011.066-.016.066-.015.065-.016.064-.019.062-.02.062-.02.06-.024.06-.024.058-.025.058-.027.057-.027.055-.03.053-.031.051-.033.053-.034.049-.034.048-.036.048-.038.046-.039.043-.04.043-.04.042-.043.04-.043.037-.045h.022l.201.622h1.502v-3.546l-.003-.135-.007-.132-.01-.13-.015-.13-.02-.126-.024-.126-.028-.12-.034-.12-.04-.116-.044-.112-.05-.11-.055-.106-.061-.104-.065-.1-.073-.095-.076-.091-.083-.088-.091-.081-.097-.08-.102-.073-.109-.069-.115-.062-.122-.059-.129-.052-.134-.048-.144-.041-.15-.036-.157-.03-.165-.022-.172-.017-.18-.01zM7.976 26h1.845v-8.001H7.976z" fill="#fff212"/></g></svg>