<svg width="36" height="36" fill="none" xmlns="http://www.w3.org/2000/svg"><path d="M18 0c2.837 0 5.52.656 7.907 1.825C31.884 4.753 36 10.895 36 18c0 9.942-8.058 18-18 18-9.94 0-18-8.057-18-18C0 8.06 8.06 0 18 0z" fill="#F2F4F7"/><path d="M5 12.708C5 11.768 5.665 11 6.735 11c1.125 0 1.729.806 1.729 1.753 0 1.042-.763 1.673-1.721 1.673-1.044 0-1.743-.711-1.743-1.718zm.009 3.145c0-.16.09-.275.269-.275H8.2c.154 0 .256.122.256.272v4.48c0 .764.435 1.653 1.777 1.653 1.308 0 1.984-.814 1.984-2.475v-.349l1.388 2.642.179.895s-1.362 1.316-3.83 1.316c-1.225 0-4.945-.2-4.945-4.27v-3.889z" fill="#00BECA"/><path d="m13.784 22.696 1.388-3.582.447-.447v.626c0 1.508.732 2.668 2.624 2.668 1.726 0 2.94-.978 2.94-2.495 0-.77-.373-1.383-.373-1.383l1.958.978.171 2.381S21.636 24 17.961 24c-2.869 0-4.177-1.303-4.177-1.303z" fill="#8C7B11"/><path d="M13.784 22.696s-1.567-1.198-1.567-3.437v-6.413c0-.515.333-.962 1.72-.962 1.516 0 1.682.59 1.682 1.033v2.66h2.687c.194 0 .268.114.268.293v1.588c0 .15-.061.268-.237.268H16.56c-.461 0-.94-.179-.94-.179v1.075c0 1.34-.347 2.708-1.836 4.074z" fill="#000"/><path d="m22.94 21.442.426-4.686.193-.815s.85 1.24 3.02 5.233c1.377-2.504 2.255-5.496 2.255-5.496.062-.205.225-.254.462-.192l1.486.46c.18.064.279.135.177.47-1.237 3.6-3.173 6.568-3.173 6.568-.373.552-.753 1.021-2.01 1.021-1.016 0-1.37-.345-1.723-.873l-1.114-1.69z" fill="#FFAB00"/><path d="m22.94 21.442-2.318-3.652c-.14-.26-.245-.418-.245-.727.001-.454.238-.783 1.038-1.284.173-.114.797-.362 1.302-.362.681 0 1.19.705 1.19 2.18 0 2.4-.968 3.845-.968 3.845z" fill="#C80063"/></svg>