<svg width="36" height="36" fill="none" xmlns="http://www.w3.org/2000/svg"><path d="M18 0c2.837 0 5.52.656 7.907 1.825C31.884 4.753 36 10.895 36 18c0 9.942-8.058 18-18 18-9.94 0-18-8.057-18-18C0 8.06 8.06 0 18 0z" fill="#F2F4F7"/><path d="M7.066 13 4 22.49h.487L7.553 13h-.487zm.774 0-3.038 9.49h.458L8.327 13H7.84zm.774 0-3.037 9.49h.457L9.101 13h-.487zm.774 0L6.35 22.49h.458L9.875 13h-.487zm.945 0-.601 1.858h3.009l-2.436 7.632h2.837l2.465-7.631h2.464L18.673 13h-8.34z" fill="#414141"/><path fill-rule="evenodd" clip-rule="evenodd" d="M29.192 13H32l-4.986 9.49h-2.665l.114-5.116v-.371s.029-.2.029-.344c.028-.2.057-.428.057-.428s-.115.257-.172.485c-.086.2-.2.4-.2.4-.058.086-.201.344-.201.344l-2.723 5.03h-2.78l.373-9.49h2.866l-.373 4.145s-.03.2-.03.343c0 0-.027.2-.084.458-.03.229-.144.657-.144.657s.115-.372.2-.571c.144-.287.201-.43.287-.63.115-.2.23-.457.23-.457l.171-.257L23.947 13h2.923l-.172 3.916v.229c-.028.229-.028.543-.086.83-.028.285-.085.685-.085.685s.085-.2.17-.457a34.7 34.7 0 0 1 .402-.943L29.192 13zm2.063.43H29.48l-3.124 6.402-.058.114c-.057.086-.115.115-.144.057-.017-.017-.013-.055-.008-.114.004-.038.008-.086.008-.142l.26-6.318h-2.18l-2.407 4.431-.171.315s-.202.4-.402.742l-.516 1.029c-.057.115-.172.086-.143 0 0-.057 0-.2.057-.514.03-.314.086-.8.143-1.172.03-.372.115-1.144.144-1.6.057-.486.172-1.802.172-2.002l.115-1.229h-1.95l-.343 8.604h2.063l.258-.457.172-.315s.917-1.658 1.29-2.315c.172-.343.83-1.572 1.06-1.972.2-.4.688-1.344.774-1.487.057-.172.258-.514.286-.543.03-.057.115-.114.115.115v.342l-.143 6.633h1.948l4.5-8.605z" fill="#414141"/></svg>