<svg width="36" height="36" fill="none" xmlns="http://www.w3.org/2000/svg"><path d="M18 0c2.837 0 5.52.656 7.907 1.825C31.884 4.753 36 10.895 36 18c0 9.942-8.058 18-18 18-9.94 0-18-8.057-18-18C0 8.06 8.06 0 18 0z" fill="#F2F4F7"/><path d="M4 17.048h.507v2.572H4v-2.572zm.921 0h.565l.67 1.983.67-1.983h.57l-.955 2.572h-.565l-.955-2.572zm3.343 1.51h.603l-.304-.849-.299.85zm.767.488h-.94l-.199.574h-.569l.96-2.572h.565l.955 2.572h-.57l-.202-.574zm1.703-.966v1.54h-.506v-2.253l-.179-.285v-.034h.603l1.177 1.694v-1.694h.507v2.572h-.507l-1.095-1.54zm4.021.488h-1.221v1.052h-.507v-2.572h.507v1.033h1.22v-1.033h.507v2.572h-.506v-1.052zm2.385.589c.463 0 .81-.362.81-.82a.804.804 0 0 0-.81-.826.807.807 0 0 0-.81.825c0 .459.352.82.81.82zm0-2.157a1.31 1.31 0 0 1 1.336 1.336c0 .758-.579 1.332-1.336 1.332a1.304 1.304 0 0 1-1.332-1.332c0-.762.575-1.336 1.332-1.336zm1.853 2.62v-2.572h1.458v.488H19.5v.545h.873v.487H19.5v.565h.95v.487h-1.457zm3.604 0-.907-2.008v2.008h-.265V17.1h.309l.98 2.186.979-2.186H24v2.519h-.27v-2.008l-.897 2.008h-.237zm2.229-2.519h.265v2.519h-.265V17.1zm1.37.623v1.896h-.265v-2.24l-.174-.255v-.024h.328l1.53 2.064v-2.064h.265v2.518h-.265l-1.419-1.896zm2.4 1.896V17.1h1.332v.246h-1.066v.883h.994v.246h-.994v.893h1.066v.25h-1.332zm3.298-2.104a.854.854 0 0 0-.555-.203c-.285 0-.468.16-.468.386 0 .145.073.251.232.353l.473.303c.313.194.424.377.424.633 0 .352-.265.675-.782.675-.265 0-.477-.087-.617-.164v-.319a.958.958 0 0 0 .608.227c.338 0 .506-.197.506-.405 0-.15-.091-.28-.28-.4l-.467-.304c-.28-.17-.382-.353-.382-.594 0-.313.218-.642.768-.642.226 0 .415.063.54.14v.314z" fill="#EE3042"/></svg>