<svg height="36" viewBox="0 0 36 36" width="36" xmlns="http://www.w3.org/2000/svg"><mask id="a" fill="#fff"><path d="M0 0h3.111v3.806H0z" fill-rule="evenodd"/></mask><mask id="b" fill="#fff"><path d="M0 0h3.806v3.807H0z" fill-rule="evenodd"/></mask><g fill="none" fill-rule="evenodd"><path d="M18 0c2.837 0 5.52.656 7.907 1.825C31.884 4.753 36 10.895 36 18c0 9.942-8.058 18-18 18-9.94 0-18-8.057-18-18C0 8.06 8.06 0 18 0z" fill="#f2f4f7" fill-rule="nonzero"/><g fill="#193989"><path d="m18.296 8-2.195.439-1.319 2.198-.877 1.764-1.757 1.758v.88l-1.315 1.319-.44-.439-3.514 1.76-.878.438L6 19.895l.96.48 1.675-.844 2.198.347v1.762l1.318.441 1.754-1.76h1.317v.877l-.44.88.615.88 2.024-.878-.441-1.32.437-2.199.88-.002-.001.879 1.319.441.439 1.322.88.88.875-.877 2.634-.885-.878-.879-.878-1.76h-.878l.438 1.322.44.438-.878.882h-.878l-.879-1.761v-.88l-1.756-1.762.877-.88-1.752-1.758.875-.88v-1.76l.88-.881 1.316 1.32-.44 1.319.879.88 1.756 2.642 1.756.878 2.197 2.2 1.318.44-.002.883h.878l.879-.882-1.757-.882-.437-1.319-1.32-.439-2.634-1.76-2.634-2.641v-1.76l-1.758-1.76V8zM6.003 23.436v4.594h.96v-5.075zm4.96 4.594h-.96v-1.977c0-.653-.223-.848-.62-.848-.396 0-.625.195-.625.828v1.997h-.961v-3.653h.96v.243c.167-.174.474-.32.856-.32.933 0 1.35.64 1.35 1.67zm3.933-3.653-1.315 3.653h-.988l-1.315-3.653h1.058l.536 1.691c.088.279.187.625.23.8.041-.182.138-.515.228-.8l.537-1.691zm1.984 3.73c-1.065 0-1.827-.745-1.827-1.9 0-1.12.78-1.906 1.74-1.906 1.02 0 1.664.862 1.664 1.906 0 .14-.005.192-.015.306h-2.405c.067.477.464.689.843.689a.86.86 0 0 0 .679-.323l.738.539c-.397.543-1.03.689-1.417.689zm.616-2.317c-.049-.351-.275-.654-.738-.654-.361 0-.643.285-.705.654z"/><path d="M1.593 2.985c.36 0 .576-.146.576-.323 0-.256-.388-.3-.565-.334C.884 2.193.04 2.058.04 1.131.041.441.751 0 1.566 0c.459 0 .987.195 1.348.424l-.49.66C2.12.932 1.77.82 1.55.82c-.417 0-.573.11-.573.259 0 .257.525.305.799.37.668.158 1.334.345 1.334 1.168 0 .763-.792 1.189-1.573 1.189-.579 0-1.149-.252-1.538-.509l.474-.649c.345.18.714.336 1.12.336" mask="url(#a)" transform="translate(18.932 24.301)"/><path d="M24.361 25.226c-.54 0-.928.441-.928.981s.388.974.928.974a.901.901 0 0 0 .78-.432l.77.562a1.903 1.903 0 0 1-1.55.796 1.9 1.9 0 0 1-1.903-1.9c0-1.052.852-1.906 1.903-1.906a1.9 1.9 0 0 1 1.554.805l-.771.566a.898.898 0 0 0-.783-.446"/><path d="M3.807 1.907a1.9 1.9 0 0 1-1.903 1.9C.852 3.807 0 2.959 0 1.907S.852 0 1.904 0c1.05 0 1.903.855 1.903 1.907m-.975 0c0-.54-.388-.981-.928-.981-.541 0-.93.441-.93.981s.389.975.93.975c.54 0 .928-.435.928-.975" mask="url(#b)" transform="translate(26.194 24.3)"/></g></g></svg>