<svg height="36" viewBox="0 0 36 36" width="36" xmlns="http://www.w3.org/2000/svg"><mask id="a" fill="#fff"><path d="M.168 0h.514v1.26H.168z" fill-rule="evenodd"/></mask><mask id="b" fill="#fff"><path d="M.028 0h.794v1.325H.028z" fill-rule="evenodd"/></mask><g fill="none" fill-rule="evenodd"><path d="M18 0c2.837 0 5.52.656 7.907 1.825C31.884 4.753 36 10.895 36 18c0 9.942-8.058 18-18 18-9.94 0-18-8.057-18-18C0 8.06 8.06 0 18 0z" fill="#f2f4f7" fill-rule="nonzero"/><path d="M7.425 11.198c-.15 0-.326.01-.54.028-.164.016-.338.036-.518.06v9.854a7.05 7.05 0 0 0 1.071.099c.283 0 .64-.034 1.059-.1v-9.853a11.886 11.886 0 0 0-.512-.06 6.672 6.672 0 0 0-.56-.028m19.265-.085c-.74 0-1.41.129-1.992.384-.577.251-1.07.61-1.464 1.06a4.799 4.799 0 0 0-.91 1.625 6.473 6.473 0 0 0-.318 2.057c0 .738.102 1.429.304 2.053.2.619.505 1.156.908 1.597.4.443.907.794 1.506 1.043.6.25 1.314.378 2.123.378.386 0 .85-.034 1.383-.099a7.044 7.044 0 0 0 1.488-.355v-4.89a7.969 7.969 0 0 0-1.058-.084c-.164 0-.345.009-.538.028-.148.014-.315.034-.505.06v3.417l-.159.033c-.154.03-.33.046-.525.046-.87 0-1.536-.277-1.982-.823-.438-.534-.659-1.343-.659-2.404 0-1.069.225-1.891.672-2.444.457-.566 1.11-.852 1.939-.852a4.451 4.451 0 0 1 .924.09c.15.029.308.07.47.118.113.035.235.073.361.116.103-.218.204-.472.299-.76a4.07 4.07 0 0 0 .194-.95 5.63 5.63 0 0 0-1.186-.346 8.113 8.113 0 0 0-1.276-.098" fill="#648080"/><g fill="#0099c3"><path d="M.168.007A.356.356 0 0 1 .212.002L.257 0a.769.769 0 0 1 .088.007v1.246a.342.342 0 0 1-.042.005c-.015.002-.03.002-.046.002s-.031 0-.046-.002a.307.307 0 0 1-.043-.005z" mask="url(#a)" transform="translate(6 23.948)"/><path d="M6.636 24.312c.013-.002.026-.005.037-.005a.526.526 0 0 1 .074 0c.01 0 .022.003.034.005a.91.91 0 0 1 .011.07c.003.03.006.054.006.074a.28.28 0 0 1 .044-.058.337.337 0 0 1 .061-.054.304.304 0 0 1 .179-.053c.102 0 .176.03.225.088.048.058.073.144.073.26v.562a.304.304 0 0 1-.043.005c-.017.002-.031.002-.045.002-.012 0-.026 0-.041-.002a.307.307 0 0 1-.043-.005v-.517a.332.332 0 0 0-.038-.18c-.026-.04-.066-.059-.122-.059a.239.239 0 0 0-.091.018.187.187 0 0 0-.076.054.265.265 0 0 0-.053.094.42.42 0 0 0-.02.14v.45a.307.307 0 0 1-.043.005c-.015.002-.03.002-.042.002-.013 0-.027 0-.044-.002a.304.304 0 0 1-.043-.005zm1.034.137h-.134l-.007-.024.297-.333h.015v.22h.224c.005.02.008.041.008.066 0 .013 0 .024-.002.036a.497.497 0 0 1-.006.035h-.224v.406c0 .048.002.087.006.115a.17.17 0 0 0 .02.067.07.07 0 0 0 .04.031.281.281 0 0 0 .118.003.49.49 0 0 0 .048-.009.28.28 0 0 1 .014.072.905.905 0 0 1 .003.064.288.288 0 0 1-.349-.043c-.047-.042-.07-.109-.07-.201zm1.266.25a.32.32 0 0 0-.015-.099.237.237 0 0 0-.045-.083.21.21 0 0 0-.076-.058.263.263 0 0 0-.109-.02c-.083 0-.146.022-.19.068a.327.327 0 0 0-.08.192zm-.518.138c.003.105.033.18.09.228.055.05.138.073.25.073a.835.835 0 0 0 .274-.045.356.356 0 0 1 .038.147.735.735 0 0 1-.147.038.986.986 0 0 1-.178.013.718.718 0 0 1-.245-.036.397.397 0 0 1-.265-.259.632.632 0 0 1-.001-.396.423.423 0 0 1 .244-.269.54.54 0 0 1 .22-.04.49.49 0 0 1 .19.034.37.37 0 0 1 .22.232.52.52 0 0 1 .028.176c0 .017 0 .035-.002.054l-.004.05zm.804-.525c.012-.002.024-.005.035-.005l.037-.002c.014 0 .025 0 .038.002l.035.005a1.068 1.068 0 0 1 .015.14.368.368 0 0 1 .097-.102.255.255 0 0 1 .153-.043.338.338 0 0 1 .054.003.251.251 0 0 1 .007.07l-.003.043c-.002.015-.003.029-.006.043a.108.108 0 0 0-.029-.003h-.023a.338.338 0 0 0-.089.012.2.2 0 0 0-.13.137.443.443 0 0 0-.02.147v.442a.307.307 0 0 1-.042.005c-.016.002-.03.002-.043.002-.012 0-.027 0-.042-.002a.35.35 0 0 1-.044-.005zm.644 0c.013-.002.025-.005.037-.005l.037-.002a.2.2 0 0 1 .036.002l.036.005a.98.98 0 0 1 .015.144.369.369 0 0 1 .105-.112.307.307 0 0 1 .179-.053c.102 0 .177.03.226.088.049.058.072.144.072.26v.562a.304.304 0 0 1-.043.005c-.016.002-.03.002-.043.002-.013 0-.027 0-.043-.002a.307.307 0 0 1-.042-.005v-.517c0-.082-.012-.142-.039-.18-.024-.04-.065-.059-.12-.059a.239.239 0 0 0-.092.018c-.03.011-.055.029-.077.054s-.039.056-.052.094a.421.421 0 0 0-.02.14v.45a.307.307 0 0 1-.042.005c-.017.002-.03.002-.043.002-.013 0-.027 0-.043-.002a.304.304 0 0 1-.044-.005zm1.564.508-.078-.008a.892.892 0 0 0-.079-.003.37.37 0 0 0-.193.042c-.044.029-.066.072-.066.131 0 .037.007.066.022.087a.164.164 0 0 0 .057.048.214.214 0 0 0 .074.021.763.763 0 0 0 .174 0 .705.705 0 0 0 .09-.015zm0-.181c0-.073-.02-.124-.06-.153a.311.311 0 0 0-.179-.043 1.003 1.003 0 0 0-.254.037.27.27 0 0 1-.039-.146.888.888 0 0 1 .153-.031 1.09 1.09 0 0 1 .161-.012.49.49 0 0 1 .31.085c.07.056.106.147.106.271v.597c-.048.01-.106.02-.174.03a1.293 1.293 0 0 1-.208.017.835.835 0 0 1-.18-.017.369.369 0 0 1-.136-.054.243.243 0 0 1-.087-.095.298.298 0 0 1-.03-.14.272.272 0 0 1 .132-.24.437.437 0 0 1 .14-.06.67.67 0 0 1 .168-.02 1.71 1.71 0 0 1 .177.01zm.367-.19h-.136l-.006-.024.298-.333h.014v.22h.225c.004.02.007.041.007.066l-.002.036c0 .012-.003.023-.005.035h-.225v.406c0 .048.001.087.006.115a.17.17 0 0 0 .02.067.07.07 0 0 0 .04.031.297.297 0 0 0 .119.003.52.52 0 0 0 .047-.009.28.28 0 0 1 .014.072.905.905 0 0 1 .003.064.29.29 0 0 1-.349-.043c-.048-.042-.07-.109-.07-.201zm.615-.333a.204.204 0 0 1-.005-.045v-.044a.653.653 0 0 1 .005-.086 1.04 1.04 0 0 1 .057-.005l.053-.002a.798.798 0 0 1 .108.008.653.653 0 0 1 .006.086v.043a.29.29 0 0 1-.006.045.765.765 0 0 1-.054.006l-.052.001-.055-.001a1.039 1.039 0 0 1-.057-.006zm.044.331h-.132a.152.152 0 0 1-.006-.032l-.002-.035a.408.408 0 0 1 .008-.069h.33v.89a.381.381 0 0 1-.05.005l-.049.001-.048-.001a.44.44 0 0 1-.05-.006zm.861.696c.094 0 .163-.03.208-.093.044-.062.067-.148.067-.258s-.023-.196-.067-.258c-.045-.06-.114-.093-.208-.093s-.163.032-.207.093c-.044.062-.066.147-.066.258s.022.196.066.258c.044.062.113.093.207.093m0 .148a.55.55 0 0 1-.214-.039.417.417 0 0 1-.244-.263.627.627 0 0 1-.03-.197c0-.071.01-.136.03-.198a.42.42 0 0 1 .244-.264c.06-.026.132-.04.214-.04s.153.014.214.04a.42.42 0 0 1 .244.264.668.668 0 0 1 0 .395.417.417 0 0 1-.244.263.55.55 0 0 1-.214.039m.566-.979c.013-.002.024-.005.037-.005a.526.526 0 0 1 .072 0c.012 0 .023.003.036.005a.882.882 0 0 1 .015.145.318.318 0 0 1 .046-.06.337.337 0 0 1 .06-.053.304.304 0 0 1 .179-.053c.102 0 .177.03.226.088.048.058.073.144.073.26v.562a.337.337 0 0 1-.044.005c-.017.002-.03.002-.044.002-.012 0-.026 0-.042-.002a.277.277 0 0 1-.042-.005v-.517a.332.332 0 0 0-.038-.18c-.026-.04-.067-.059-.122-.059a.239.239 0 0 0-.092.018.187.187 0 0 0-.075.054.28.28 0 0 0-.054.094.421.421 0 0 0-.02.14v.45a.307.307 0 0 1-.042.005c-.016.002-.03.002-.042.002-.013 0-.028 0-.044-.002a.304.304 0 0 1-.043-.005zm1.564.508-.077-.008a.93.93 0 0 0-.08-.003.372.372 0 0 0-.193.042c-.044.029-.066.072-.066.131 0 .037.008.066.023.087a.153.153 0 0 0 .056.048.214.214 0 0 0 .074.021.763.763 0 0 0 .175 0 .688.688 0 0 0 .088-.015zm0-.181c0-.073-.021-.124-.061-.153a.31.31 0 0 0-.177-.043 1.003 1.003 0 0 0-.255.037.27.27 0 0 1-.04-.146.888.888 0 0 1 .154-.031 1.1 1.1 0 0 1 .16-.012c.137 0 .24.028.31.085s.107.147.107.271v.597c-.048.01-.106.02-.174.03a1.293 1.293 0 0 1-.208.017.841.841 0 0 1-.18-.017.369.369 0 0 1-.136-.054.251.251 0 0 1-.087-.095.298.298 0 0 1-.031-.14c0-.053.013-.1.036-.14a.292.292 0 0 1 .097-.1.434.434 0 0 1 .14-.06.656.656 0 0 1 .168-.02 1.71 1.71 0 0 1 .177.01zm.33-.709a.307.307 0 0 1 .042-.005l.043-.001a.383.383 0 0 1 .085.007v1.001a.26.26 0 0 0 .009.077.105.105 0 0 0 .022.042c.01.01.023.016.035.019a.176.176 0 0 0 .043.005.293.293 0 0 0 .07-.008c.01.041.015.085.015.132a.564.564 0 0 1-.123.014c-.034 0-.065-.004-.094-.012s-.054-.022-.076-.04a.19.19 0 0 1-.052-.075.305.305 0 0 1-.019-.116zm.838.025a.327.327 0 0 1 .048-.005l.053-.002a.961.961 0 0 1 .095.007l.213 1.038.257-1.038a.344.344 0 0 1 .046-.005l.048-.002c.013 0 .03 0 .046.002.017 0 .033.002.045.005l.259 1.048.217-1.048a.162.162 0 0 1 .04-.005l.042-.002a.955.955 0 0 1 .094.007l-.3 1.246a.384.384 0 0 1-.049.005c-.018.002-.035.002-.05.002-.016 0-.034 0-.054-.002a.478.478 0 0 1-.053-.005l-.246-.976-.25.976a.482.482 0 0 1-.053.005c-.02.002-.036.002-.052.002-.015 0-.03 0-.048-.002a.355.355 0 0 1-.047-.005zm2.059 1.188c.094 0 .163-.03.208-.093.044-.062.067-.148.067-.258s-.023-.196-.067-.258c-.045-.06-.114-.093-.208-.093s-.163.032-.207.093c-.044.062-.066.147-.066.258s.022.196.066.258c.044.062.113.093.207.093m0 .148a.55.55 0 0 1-.214-.039.417.417 0 0 1-.244-.263.627.627 0 0 1-.029-.197c0-.071.01-.136.03-.198a.42.42 0 0 1 .243-.264c.061-.026.132-.04.214-.04s.153.014.214.04a.42.42 0 0 1 .244.264.668.668 0 0 1 0 .395.417.417 0 0 1-.244.263.55.55 0 0 1-.214.039m.566-.979c.013-.002.025-.005.037-.005a.502.502 0 0 1 .075 0c.013 0 .024.003.034.005.003.018.008.04.011.069a.71.71 0 0 1 .005.071.352.352 0 0 1 .096-.102.255.255 0 0 1 .153-.043.338.338 0 0 1 .054.003.383.383 0 0 1 .006.033l.001.037c0 .013 0 .028-.003.043-.002.015-.003.029-.006.043a.102.102 0 0 0-.028-.003h-.024a.343.343 0 0 0-.09.012.191.191 0 0 0-.075.047.212.212 0 0 0-.053.09.44.44 0 0 0-.02.147v.442a.307.307 0 0 1-.043.005c-.016.002-.03.002-.043.002-.013 0-.027 0-.042-.002a.37.37 0 0 1-.044-.005zm.895.428.333-.428c.017-.002.035-.005.053-.005l.054-.002c.021 0 .04 0 .059.002.018 0 .037.003.056.005l-.332.415.389.474a.674.674 0 0 1-.055.005c-.018.002-.036.002-.056.002-.019 0-.037 0-.057-.002a.623.623 0 0 1-.056-.005zm-.257-.81a.422.422 0 0 1 .05-.004c.019-.002.035-.002.05-.002a.553.553 0 0 1 .102.007v1.27a.418.418 0 0 1-.051.005c-.019.002-.036.002-.051.002s-.031 0-.05-.002a.421.421 0 0 1-.05-.005zm1.098 1.126a.488.488 0 0 0 .08.017.88.88 0 0 0 .106.005c.048 0 .093-.006.134-.02s.076-.034.105-.061a.3.3 0 0 0 .069-.106.4.4 0 0 0 .026-.15.357.357 0 0 0-.061-.22c-.04-.054-.105-.08-.196-.08a.29.29 0 0 0-.181.062.236.236 0 0 0-.06.078.264.264 0 0 0-.022.114zm-.202-.744c.014-.002.028-.005.042-.005l.044-.002a.8.8 0 0 1 .043.002c.014 0 .029.003.042.005a.522.522 0 0 1 .011.06l.007.04a.246.246 0 0 1 .003.025.339.339 0 0 1 .207-.133.522.522 0 0 1 .281.014.353.353 0 0 1 .222.22.558.558 0 0 1 .032.197.455.455 0 0 1-.146.358c-.097.086-.235.128-.413.128a.844.844 0 0 1-.173-.018v.407l-.052.005-.05.002-.05-.002a2.76 2.76 0 0 1-.05-.005zm1.021-.382a.291.291 0 0 1 .043-.005l.042-.001a.37.37 0 0 1 .085.007v1.001c0 .033.003.058.008.077a.105.105 0 0 0 .024.042.07.07 0 0 0 .034.019.171.171 0 0 0 .043.005.293.293 0 0 0 .07-.008c.01.041.015.085.015.132a.574.574 0 0 1-.123.014.331.331 0 0 1-.094-.012.206.206 0 0 1-.076-.04.19.19 0 0 1-.052-.075.305.305 0 0 1-.019-.116zm1.082.89-.078-.008a.892.892 0 0 0-.08-.003.372.372 0 0 0-.192.042c-.044.029-.066.072-.066.131 0 .037.008.066.022.087a.164.164 0 0 0 .057.048.214.214 0 0 0 .074.021.763.763 0 0 0 .174 0 .676.676 0 0 0 .089-.015zm0-.181c0-.073-.021-.124-.061-.153a.31.31 0 0 0-.177-.043 1.003 1.003 0 0 0-.255.037.27.27 0 0 1-.04-.146.888.888 0 0 1 .154-.031 1.1 1.1 0 0 1 .16-.012c.137 0 .24.028.31.085s.107.147.107.271v.597c-.048.01-.106.02-.174.03a1.293 1.293 0 0 1-.208.017.841.841 0 0 1-.18-.017.369.369 0 0 1-.136-.054.251.251 0 0 1-.087-.095.298.298 0 0 1-.031-.14.272.272 0 0 1 .133-.24.437.437 0 0 1 .14-.06.67.67 0 0 1 .168-.02 1.71 1.71 0 0 1 .177.01zm.926.407c.01.017.017.037.024.06a.25.25 0 0 1 .012.076.64.64 0 0 1-.233.04c-.148 0-.26-.042-.335-.125a.492.492 0 0 1-.112-.34.59.59 0 0 1 .027-.184.395.395 0 0 1 .218-.246.467.467 0 0 1 .19-.036.81.81 0 0 1 .128.009.58.58 0 0 1 .105.027.362.362 0 0 1-.029.137.595.595 0 0 0-.194-.03c-.089 0-.155.03-.2.09a.38.38 0 0 0-.065.233c0 .11.025.192.074.243a.27.27 0 0 0 .205.078.571.571 0 0 0 .185-.032m.887-.347a.32.32 0 0 0-.014-.099.237.237 0 0 0-.045-.083.214.214 0 0 0-.075-.058.271.271 0 0 0-.11-.02c-.083 0-.146.022-.19.068a.327.327 0 0 0-.081.192zm-.517.138c.003.105.033.18.089.228.056.05.139.073.25.073a.835.835 0 0 0 .275-.045c.01.018.02.04.027.067.006.027.01.053.012.08a.763.763 0 0 1-.148.038.986.986 0 0 1-.178.013.718.718 0 0 1-.245-.036.397.397 0 0 1-.265-.259.632.632 0 0 1-.001-.396.423.423 0 0 1 .244-.269.54.54 0 0 1 .22-.04c.07 0 .135.011.189.034.054.022.1.052.137.091s.064.086.083.141a.52.52 0 0 1 .029.176l-.002.054-.004.05zm1.949-.28a.667.667 0 0 1 .043-.006l.045-.002a.49.49 0 0 1 .087.008v.607a.678.678 0 0 1-.17.044l-.094.01-.088.003a.66.66 0 0 1-.25-.043.506.506 0 0 1-.304-.325.82.82 0 0 1-.04-.268c0-.099.013-.188.041-.268a.565.565 0 0 1 .12-.206.505.505 0 0 1 .183-.13.581.581 0 0 1 .236-.047c.066 0 .123.004.172.013a.749.749 0 0 1 .13.036.279.279 0 0 1-.014.073.87.87 0 0 1-.027.072 1.037 1.037 0 0 0-.104-.027.65.65 0 0 0-.142-.013c-.06 0-.116.011-.166.033s-.094.055-.129.096a.445.445 0 0 0-.082.156.705.705 0 0 0-.03.212c0 .083.01.153.03.213s.05.109.087.149c.036.04.08.07.13.088.05.02.106.029.167.029a.662.662 0 0 0 .169-.021zm.445-.245c.013-.002.025-.005.036-.005a.526.526 0 0 1 .036-.002.23.23 0 0 1 .038.002c.014 0 .025.003.035.005.004.018.007.04.011.069a.849.849 0 0 1 .005.071.368.368 0 0 1 .097-.102.255.255 0 0 1 .153-.043.338.338 0 0 1 .053.003.208.208 0 0 1 .005.033.394.394 0 0 1-.007.123.108.108 0 0 0-.028-.003h-.023a.338.338 0 0 0-.09.012.191.191 0 0 0-.075.047.222.222 0 0 0-.055.09.443.443 0 0 0-.02.147v.442a.307.307 0 0 1-.042.005c-.016.002-.03.002-.042.002s-.028 0-.043-.002a.35.35 0 0 1-.044-.005zm1.052.831c.094 0 .163-.03.208-.093.045-.062.067-.148.067-.258s-.022-.196-.067-.258c-.045-.06-.114-.093-.208-.093s-.163.032-.207.093c-.044.062-.066.147-.066.258s.022.196.066.258c.044.062.113.093.207.093m0 .148a.55.55 0 0 1-.214-.039.417.417 0 0 1-.244-.263.668.668 0 0 1 0-.395.435.435 0 0 1 .244-.264c.06-.026.132-.04.214-.04s.153.014.214.04a.42.42 0 0 1 .244.264c.02.062.029.127.029.198 0 .07-.01.137-.03.197a.417.417 0 0 1-.244.263.55.55 0 0 1-.213.039m.556-.979c.013-.002.027-.005.043-.005l.042-.002c.013 0 .027 0 .043.002.017 0 .031.003.044.005v.487c0 .056.005.101.015.138s.026.065.047.085a.17.17 0 0 0 .076.044.53.53 0 0 0 .255-.007v-.747c.012-.002.027-.005.042-.005l.043-.002a.31.31 0 0 1 .042.002c.016 0 .03.003.043.005v.862c-.041.01-.089.022-.145.032a.97.97 0 0 1-.334 0 .288.288 0 0 1-.223-.185.577.577 0 0 1-.033-.215z"/><path d="M.23.764a.488.488 0 0 0 .08.017.868.868 0 0 0 .106.005.425.425 0 0 0 .134-.02.28.28 0 0 0 .105-.06C.685.676.707.642.725.6S.75.508.75.45A.357.357 0 0 0 .69.23C.65.176.583.15.492.15a.29.29 0 0 0-.18.063C.286.232.266.258.252.29S.23.36.23.404zM.028.02.07.015a.623.623 0 0 1 .087 0L.2.02c.002.003.003.01.006.022A.522.522 0 0 1 .21.08l.007.04A.246.246 0 0 1 .22.145.339.339 0 0 1 .427.012a.522.522 0 0 1 .281.014.353.353 0 0 1 .222.22.56.56 0 0 1 .031.198.455.455 0 0 1-.145.358C.72.888.581.93.403.93A.83.83 0 0 1 .23.911v.408l-.052.005-.05.001-.05-.001a2.76 2.76 0 0 1-.05-.005z" mask="url(#b)" transform="translate(29.15 24.291)"/></g><path d="M17.385 18.11c-.23-.41-.48-.797-.721-1.173l-.008-.013c-.13-.199-.262-.405-.39-.611-.065-.106-.128-.223-.195-.345l-.003-.006-.134-.242c-.23-.4-.324-.738-.316-1.127a2.09 2.09 0 0 1 .321-1.108 2.139 2.139 0 0 1 1.507-.992 2.237 2.237 0 0 1 1.475.282c.294.174.53.404.72.706.215.34.315.68.325 1.105.006.255-.043.477-.085.618-.036.126-.098.25-.17.395-.028.054-.055.11-.081.165-.184.385-.427.758-.663 1.118-.341.524-.7 1.094-1.016 1.72l-.153.302-.152-.303c-.081-.16-.169-.325-.26-.49zm-2.846-1.704c-.101.164-.206.327-.304.477a17.698 17.698 0 0 0-1.017 1.718l-.153.303-.152-.303c-.08-.16-.168-.326-.26-.49-.23-.412-.48-.8-.722-1.174a33.486 33.486 0 0 1-.397-.624 8.485 8.485 0 0 1-.195-.345c-.046-.082-.09-.165-.137-.248-.23-.4-.324-.738-.317-1.127.009-.415.113-.778.322-1.108a2.141 2.141 0 0 1 1.506-.992 2.245 2.245 0 0 1 1.475.282c.076.044.15.095.225.154l.106.083-.055.122a3.647 3.647 0 0 0-.315 1.43 3.47 3.47 0 0 0 .397 1.676l.043.085zm4 4.89c.298-1.442.954-2.53 1.658-3.61.25-.383.534-.816.759-1.291l.066-.136.004-.006c.089-.179.19-.383.263-.63.106-.353.154-.714.146-1.072a3.529 3.529 0 0 0-.553-1.855 3.602 3.602 0 0 0-1.213-1.186 3.766 3.766 0 0 0-2.444-.469 3.573 3.573 0 0 0-1.699.733l-.105.083-.106-.083a3.652 3.652 0 0 0-.379-.264 3.766 3.766 0 0 0-2.444-.469 3.583 3.583 0 0 0-2.529 1.662 3.575 3.575 0 0 0-.547 1.861c-.016.86.283 1.488.51 1.885l.117.21.006.013c.073.133.148.27.235.411.13.21.259.41.414.651.24.373.467.723.672 1.093.47.843.774 1.629.955 2.47.294.047.53.068.738.068.2 0 .45-.023.745-.07.255-1.248.777-2.24 1.48-3.335l.143-.223.144.223c.175.273.36.564.528.867.47.843.774 1.63.954 2.468.294.049.53.07.738.07.2 0 .45-.023.745-.07z" fill="#648080"/></g></svg>