<svg width="36" height="36" fill="none" xmlns="http://www.w3.org/2000/svg"><path d="M18 0c2.837 0 5.52.656 7.907 1.825C31.884 4.753 36 10.895 36 18c0 9.942-8.058 18-18 18-9.94 0-18-8.057-18-18C0 8.06 8.06 0 18 0z" fill="#F2F4F7"/><path d="M10.034 26.284a.2.2 0 0 1-.053.143.169.169 0 0 1-.246.003.196.196 0 0 1-.057-.146.19.19 0 0 1 .055-.143.175.175 0 0 1 .126-.054c.047 0 .087.018.122.054a.196.196 0 0 1 .053.143zm-.039 2.068c0 .095-.034.143-.102.143h-.067c-.069 0-.103-.048-.103-.143V26.9c0-.094.034-.122.103-.122h.067c.068 0 .102.028.102.122v1.45zm2.377 0c0 .095-.034.143-.102.143h-.072c-.068 0-.102-.048-.102-.143v-1.135c0-.068-.03-.133-.09-.157a.768.768 0 0 0-.256-.03h-.445a.833.833 0 0 0-.262.028c-.062.024-.092.09-.092.16v1.134c0 .095-.034.143-.101.143h-.072c-.067 0-.1-.048-.1-.143v-1.218c0-.16.047-.233.142-.314.103-.088.264-.068.484-.068h.446c.21 0 .366-.017.468.066.103.084.154.186.154.347v1.187zm1.332-1.581v-.343c0-.094.033-.14.1-.14h.072c.067 0 .1.046.1.14v.343h.53c.067 0 .101.047.101.141v-.007c0 .095-.034.108-.102.108h-.528l-.01 1.224.598.002c.043 0 .07.256.003.256h-.124c-.04 0-.35-.003-.554-.002-.128 0-.186-.146-.186-.228v-1.494zm3.127 1.58c0 .096-.034.144-.101.144h-.072c-.067 0-.1-.048-.1-.143v-1.025c0-.09-.03-.151-.087-.185-.058-.034-.108-.05-.237-.05h-.804v1.26c0 .095-.033.143-.1.143h-.072c-.067 0-.1-.048-.1-.143v-1.924c0-.094.033-.14.1-.14h.072c.067 0 .1.046.1.14v.343h.739c.26 0 .401.043.508.13.102.082.154.222.154.421v1.03zm2.262-.695a.29.29 0 0 1-.02.11c-.012.032-.031.049-.056.049h-1.315c-.002.164-.023.272.153.347.119.05.457.097.815.064h.17c.067 0 .135-.004.135.091v.035c0 .095-.034.143-.1.143H18.7c-.124 0-.886-.014-.972-.043a.47.47 0 0 1-.2-.118.562.562 0 0 1-.151-.389v-.639c0-.17.058-.304.176-.402.117-.1.276-.148.478-.148h.511c.153 0 .281.04.383.118a.434.434 0 0 1 .168.364v.418zm-.309-.174v-.213c0-.05-.036-.094-.11-.132a.386.386 0 0 0-.216-.058h-.396a.522.522 0 0 0-.243.047c-.084.035-.126.087-.126.156v.2h1.091zm3.176.467a.548.548 0 0 1-.102.346.477.477 0 0 1-.246.16c-.087.026-.186.04-.3.04h-.359l-.668-.01v-2.08c0-.095.034-.116.101-.116h.072c.067 0 .1.013.1.108v.374h.755c.217 0 .38.048.49.145.105.091.157.223.157.394v.639zm-.273-.014v-.618a.18.18 0 0 0-.084-.155.492.492 0 0 0-.286-.069h-.759v1.07l.429.011h.328c.14 0 .233-.012.28-.037.061-.033.092-.1.092-.202zm2.527.047c0 .083-.014.16-.042.227a.454.454 0 0 1-.177.215c-.1.064-.229.07-.388.07h-.454c-.157 0-.287-.012-.389-.073a.483.483 0 0 1-.193-.214.544.544 0 0 1-.052-.234v-.692c0-.142.048-.264.142-.367.116-.128.28-.157.491-.157h.455c.21 0 .363.003.46.094.098.091.147.23.147.417v.714zm-.278-.026v-.67c0-.069-.03-.12-.092-.155a.496.496 0 0 0-.244-.052h-.392c-.125 0-.22.027-.285.081a.196.196 0 0 0-.078.155v.64c0 .056.023.102.07.14.065.053.163.08.294.08h.392a.4.4 0 0 0 .257-.075c.052-.041.078-.09.078-.144zm2.419.28a.187.187 0 0 1 .057.133.13.13 0 0 1-.032.09.108.108 0 0 1-.085.036h-.082a.084.084 0 0 1-.03-.009.09.09 0 0 1-.03-.019l-.61-.625-.618.625a.13.13 0 0 1-.029.017.086.086 0 0 1-.03.01h-.085a.106.106 0 0 1-.085-.036.13.13 0 0 1-.032-.09.181.181 0 0 1 .058-.132l.61-.61-.603-.61a.187.187 0 0 1-.056-.133c0-.036.01-.066.031-.09a.107.107 0 0 1 .086-.036h.086a.08.08 0 0 1 .03.009.112.112 0 0 1 .03.019l.608.623.595-.622a.09.09 0 0 1 .028-.019.082.082 0 0 1 .032-.01h.082c.036 0 .064.012.085.036.02.024.03.054.03.09a.179.179 0 0 1-.013.068.195.195 0 0 1-.041.063l-.589.608.602.614z" fill="#E4011A" stroke="#E40826" stroke-width=".1"/><path d="m18.012 25.026 8.342-2.413C27.352 22.393 28 21.73 28 20.8v-8.68c0-.931-.734-1.462-1.646-1.681L18.012 8" fill="#B50A37"/><path fill-rule="evenodd" clip-rule="evenodd" d="m17.97 18.645.262-1.235c-.044-2.27.068-4.619.195-6.975.035-.559.977-.438.945-.13.071 2.118.135 4.204.033 6.323.957-1.043 1.564-1.97 2.281-2.934.24-.717.804.207.522.522-.267.96-1.165 2.708-2.183 3.89 2.327 4.904 5.873 2.653 6.713-.11.102-.54.192-.463.261-.455.064.02.118-.012.033.488.012 1.669-1.462 3.98-3.75 4.032-1.272.03-3.05-.655-4.008-2.858.042.673.046 1.347.066 2.02-.014.485-1.04.592-1.074-.12-.002-.47-.03-.729 0-1.417-.08.136-.109.19-.263.429l-.032-1.47z" fill="#D0DCDB"/><path d="M18.032 25.026 9.66 22.613C8.654 22.393 8 21.73 8 20.8v-8.68c0-.93.74-1.461 1.66-1.68L18.033 8" fill="#E51837"/><path fill-rule="evenodd" clip-rule="evenodd" d="M9.927 12.763c.01-.208.633-.338.749.177.497 1.614.75 3.23.836 4.844.048-.636.134-1.32.378-1.816.35-.713 1.006-1.074 1.66-.569.092.058.081-.019.108-.11l.056-.19c.066-.185.711-.206.673.028.077.6-.308 2.604-.322 4.043.046.601.504.474.643.124-.44-2.809.771-5.497 1.737-5.21.816-.165 1.803 1.409 1.05 3.28-.172.25-.85.11-.837-.159.074-.749-.009-1.047-.037-1.491-.065-.359-.285-.524-.705 0-.594 1.514-.369 6.524 2.116 2.647v1.712c-.272.627-1.912 1.47-2.732.045-.425.81-1.316.766-1.718-.044-.035.37-1.373 1.755-1.982-1.233.272 1.448-.118 2.704-1.145 2.73-1.169.009-1.566-1.21-1.673-2.158 0-.108.277-.195.338-.059.314.632.537 1.22 1.046 1.11.627-.054.742-1.532-.239-7.7z" fill="#FFFFFD"/><path fill-rule="evenodd" clip-rule="evenodd" d="M13.085 16.206c.278-.086.177 3.526-.23 3.486-.64.122-.75-3.709.23-3.486z" fill="#E51837"/></svg>