<svg height="36" viewBox="0 0 36 36" width="36" xmlns="http://www.w3.org/2000/svg"><mask id="a" fill="#fff"><path d="M0 0h4.015v3.377H0z" fill-rule="evenodd"/></mask><mask id="b" fill="#fff"><path d="M0 0h2.356v4.384H0z" fill-rule="evenodd"/></mask><mask id="c" fill="#fff"><path d="M0 0h4.13v6.153H0z" fill-rule="evenodd"/></mask><g fill="none" fill-rule="evenodd"><path d="M18 0c2.837 0 5.52.656 7.907 1.825C31.884 4.753 36 10.895 36 18c0 9.942-8.058 18-18 18-9.94 0-18-8.057-18-18C0 8.06 8.06 0 18 0z" fill="#f2f4f7" fill-rule="nonzero"/><g fill="#231f20"><path d="M3.514.216C3.387.122 3.139.008 2.771.008c-.107 0-.389-.008-.469-.006 0 0-1.374-.008-2.063.006C.133.011 0 .078 0 .238l.002 1.395L0 3.204c0 .173.142.173.207.173h2.142c.066 0 .201 0 .201-.124l.003-.663c1.337 0 1.462-.9 1.462-1.286 0-.499-.209-.872-.501-1.088zM.317 2.228l.013-.015c.044-.056.145-.175.227-.27l.001-.002a6.02 6.02 0 0 0 .124-.147c.011-.013.08-.1.083-.118.003-.01-.007-.023-.03-.046H.734l-.007-.01a2.406 2.406 0 0 1-.094-.12c-.03-.038-.059-.078-.096-.122a3.999 3.999 0 0 0-.13-.143c-.074-.08-.158-.17-.168-.197C.218.986.243.957.255.947S.282.931.297.931a.05.05 0 0 1 .031.01c.038.026.249.28.345.397.019.024.036.05.053.073.017.025.036.05.055.074l.03.032.03.032.02.023c.018.02.038.042.047.063.016.042-.014.077-.043.111l-.009.01c-.101.121-.275.337-.389.481l-.001.001-.114.141a.06.06 0 0 1-.044.017H.292a.057.057 0 0 1-.041-.036c-.013-.04.036-.098.065-.132zm1.277.843c-.024.021-.063.028-.091-.005a2.435 2.435 0 0 1-.153-.209c-.038-.055-.077-.113-.118-.165-.002-.003-.005-.005-.008-.005-.004.001-.007.002-.009.005-.083.108-.289.361-.301.375a.109.109 0 0 1-.078.04H.832a.061.061 0 0 1-.046-.025c-.037-.053.001-.106.052-.165l.013-.016.108-.132.005-.005.114-.14.002-.002a.313.313 0 0 1 .063-.063.14.14 0 0 1 .077-.023.11.11 0 0 1 .083.034c.024.03.049.064.073.098l.002.004.025.034.092.127.011.015.099.138c.025.035.01.067-.011.085zm.003-.639c-.025.021-.064.03-.092-.005-.072-.085-.14-.177-.207-.267l-.078-.104c-.002-.003-.005-.004-.009-.004-.002 0-.006.001-.008.004l-.073.084c-.101.117-.289.333-.383.446-.069.083-.211.263-.295.371l-.064.08a.097.097 0 0 1-.067.033H.315a.068.068 0 0 1-.048-.03c-.024-.036-.012-.08.01-.108l.119-.134c.099-.11.235-.263.3-.339.138-.165.437-.502.461-.519a.155.155 0 0 1 .084-.027c.029 0 .054.011.071.032l.154.208.002.002c.053.073.109.15.141.191.025.035.009.068-.012.086zM1.585 1.1l-.003.004-.086.105-.004.006c-.075.091-.159.194-.182.218-.024.028-.062.053-.1.053a.084.084 0 0 1-.037-.009c-.036-.01-.068-.053-.097-.09-.014-.018-.028-.036-.04-.047l-.131-.158L.9 1.174C.809 1.064.716.951.631.854l-.1-.12L.528.732C.461.652.391.57.33.493L.303.463C.285.442.266.422.254.4.24.384.232.367.235.331a.063.063 0 0 1 .029-.05.079.079 0 0 1 .07-.009C.356.28.385.316.408.344a.086.086 0 0 0 .014.018c.006.008.659.807.783.965.002.002.005.004.008.004a.014.014 0 0 0 .009-.004l.032-.038.18-.212.017-.02.038-.045.008-.009a.11.11 0 0 1 .045-.037h.001c.027-.006.055.013.071.033.02.036.002.063-.028.1zM1.582.436 1.579.44l-.053.065-.002.003-.064.077-.142.171a.134.134 0 0 1-.084.046.194.194 0 0 1-.024.002.104.104 0 0 1-.082-.04.555.555 0 0 1-.035-.046L1.064.681C1.034.642 1.001.604.969.567L.968.565.895.478.864.441a1.415 1.415 0 0 1-.05-.059C.793.354.796.324.822.302A.048.048 0 0 1 .863.287.115.115 0 0 1 .9.308c.008.007.047.048.063.067l.051.066.049.065.035.041.001.001.034.038c.008.011.057.066.068.077l.009.003a.008.008 0 0 0 .007-.004l.032-.034.002-.002A.397.397 0 0 0 1.285.59c.022-.028.047-.053.07-.078.023-.024.047-.049.069-.075l.044-.056A.712.712 0 0 1 1.51.327c.015-.019.039-.04.064-.043.013 0 .025.004.037.014L1.612.3h.001c.043.04.011.085-.031.136zm1.055 1.356h-.032c-.02 0-.054-.016-.054-.067 0-.085.004-.249.004-.408 0-.209-.004-.409-.004-.409 0-.037.028-.067.064-.067h.102c.135 0 .227.042.274.077a.483.483 0 0 1 .184.401c0 .141-.046.473-.538.473z" mask="url(#a)" transform="translate(24.402 12)"/><path d="M20.775 19.554c.004-.07.142-.032.36-.062.3-.039.462-.114.618-.187.316-.147.605-.352.84-.609.46-.5.706-1.206.608-1.878-.066-.45-.293-.889-.672-1.14-.285-.19-.635-.264-.978-.276-.343-.013-.685.03-1.027.052-.327.021-.635.058-.96.023a27.263 27.263 0 0 0-.296-.027c-.174-.017-.255-.037-.314.116-.063.161.097.302.245.321.182.022.719.022.719.022s.006 4.081.013 6.068c0 .071 0 .162-.02.206-.005.015-.152.024-.224.016a.582.582 0 0 0-.236.004c-.064.025-.077.118-.034.17.029.035.08.041.127.04.498-.027.949-.043 1.47-.003.05.004.115.011.152-.019.05-.04.099-.167.023-.21-.05-.028-.108-.013-.173-.008-.05.004-.204-.03-.204-.03s-.037-.094-.04-.208a35.093 35.093 0 0 1-.022-1.114c0-.312-.004-.604.012-.915.005-.083.005-.233.013-.352zm-.037-2.792c-.007-.232-.027-.465-.005-.746.005-.066.042-.133.149-.137.137-.005.256-.012.373.007.374.057.74.236.957.545.23.326.268.754.202 1.146a2.18 2.18 0 0 1-.483 1.07 1.733 1.733 0 0 1-1.01.584.168.168 0 0 1-.096-.003c-.064-.029-.072-.114-.071-.184a43.4 43.4 0 0 0-.015-2.282zm8.688 5.285c-.102-.029-.161.118-.248.184-.102.077-.253.024-.332-.08-.078-.105-.102-.243-.12-.375-.127-.992.044-1.994.067-2.994l.005-.163s.055-.013.128-.017c.137-.008.26 0 .4.007.215.011.418-.016.469-.079a.289.289 0 0 0 .064-.184c.002-.134-.077-.147-.233-.138-.301.017-.795.077-.795.077s.006-.054.004-.157a4.963 4.963 0 0 0-.058-.688c-.031-.204-.105-.412-.245-.548-.122-.12-.821-.32-.837-.02-.004.072.106.122.15.155.13.097.16.291.189.444.035.184.055.371.066.558.007.113-.003.325-.003.325l-.486.06c-.065.008-.09.05-.103.105-.02.08.039.167.113.191.076.023.22.008.349-.014l.122-.02s-.03.652-.04.807c-.022.308-.047.615-.07.923-.04.55-.06 1.11.04 1.655.052.28.154.581.388.718.177.104.4.091.582 0 .183-.09.33-.25.445-.426a.357.357 0 0 0 .068-.162c.005-.06-.024-.127-.08-.144z"/><path d="M2.237.061c-.114.009-.193.183-.193.183s-.428-.318-.88-.228C.508.145.074.818.28 1.457c.102.313.312.579.53.825s.451.484.616.769c.075.132.136.276.147.427a.535.535 0 0 1-.138.419.501.501 0 0 1-.55.084.698.698 0 0 1-.366-.444c-.024-.084-.035-.173-.072-.253-.036-.08-.106-.153-.193-.16-.082-.008-.16.044-.203.115a.433.433 0 0 0-.05.235.946.946 0 0 0 .472.77c.272.158.615.179.912.077.3-.102.55-.322.71-.592.121-.203.192-.44.174-.676-.024-.316-.207-.6-.419-.837-.213-.237-.46-.442-.658-.691a2.241 2.241 0 0 1-.308-.512C.84.915.803.808.83.705.861.589.967.506 1.078.459a.604.604 0 0 1 .348-.041.41.41 0 0 1 .281.2c.076.144.051.341.172.451.098.09.275.071.351-.038.083-.118.041-.279.035-.423A.76.76 0 0 1 2.3.279c.018-.044.07-.097.054-.142C2.333.078 2.3.056 2.237.061z" mask="url(#b)" transform="translate(29.644 17.811)"/><path d="M27.193 20.795c-.067-.008-.106.063-.143.123-.102.162-.235.33-.395.428a.595.595 0 0 1-.533.046c-.34-.148-.477-.619-.528-.963-.02-.142-.044-.464 0-.536.028-.044.134-.039.184-.043.372-.03.583-.043.891-.05.14-.004.294-.01.4-.108.098-.09.124-.24.134-.376a2.57 2.57 0 0 0-.043-.684 1.228 1.228 0 0 0-.216-.528.354.354 0 0 0-.035-.042c-.217-.239-.574-.304-.878-.21-.665.207-.927.928-1.04 1.575-.023.12-.024.14-.106.147-.062.006-.183.018-.163.095.018.07.151.107.168.182.03.121-.01.32-.018.471-.006.183.008.365.04.545.044.253.142.497.3.697.172.217.42.377.688.406a1.05 1.05 0 0 0 .645-.154c.194-.114.36-.277.503-.457.07-.086.134-.177.188-.275a.332.332 0 0 0 .053-.164c-.002-.058-.04-.119-.096-.125zm-1.398-2.139c.065-.17.19-.493.417-.45.032.006.06.02.085.038a.479.479 0 0 1 .14.247c.083.31.071.635.06.955-.005.08-.042.108-.117.11-.156.004-.312.02-.469.012-.176-.009-.296.002-.296-.08-.003-.256.095-.607.18-.832zm-1.152 2.565c-.035.001-.06.031-.083.061-.11.148-.216.304-.354.424-.14.12-.32.202-.496.171a.593.593 0 0 1-.365-.256 1.42 1.42 0 0 1-.187-.429 2.77 2.77 0 0 1-.11-.57c-.01-.13-.02-.247.02-.29.034-.034.17-.033.308-.04.362-.02.573-.033.9-.056a.382.382 0 0 0 .194-.05c.083-.058.112-.17.128-.276a2.21 2.21 0 0 0-.13-1.133 1.062 1.062 0 0 0-.205-.343.557.557 0 0 0-.05-.046c-.218-.182-.537-.17-.79-.049a1.696 1.696 0 0 0-.711.685 2.535 2.535 0 0 0-.206.502c-.028.094-.038.2-.055.297-.014.078-.01.23-.063.23-.046 0-.13 0-.173.011-.042.011-.094.048-.042.137.046.078.19.114.19.17 0 .152-.004.432.003.583.016.348.105.701.3.982.195.28.509.48.838.478.21-.002.416-.085.594-.206.274-.187.488-.47.602-.794a.251.251 0 0 0 .019-.117c-.007-.04-.037-.078-.075-.077zm-1.519-1.444a2.42 2.42 0 0 1 .14-.602c.064-.17.143-.378.302-.475.06-.037.14-.048.2-.01.06.04.086.114.104.182.077.294.089.604.058.907-.007.063-.02.134-.071.17-.028.018-.065.021-.1.024-.147.012-.239.014-.387.024-.087.006-.192.016-.237.002-.043-.012-.015-.146-.008-.222zm6.662-1.749c.101-.031.218-.146.286-.222.109-.123.215-.3.215-.468a.171.171 0 0 0-.05-.13.243.243 0 0 0-.189-.053c-.167.013-.342.095-.39.265-.028.097-.02.653.128.608m-24.792-.37c0-1.051 1.193-2.187 1.193-3.344 0-.873-.781-1.533-1.505-1.668a1.16 1.16 0 0 1 .511.95C5.193 14.67 4 15.742 4 17.049c0 1.029.731 1.554 1.37 1.66-.22-.162-.376-.545-.376-1.05"/><path d="M1.049.873c.3-.068.606-.1.914-.097h.981v1.831c0 2.051-.824 2.906-2.944 2.906v.641c2.882 0 4.13-1.073 4.13-3.278V0H1.049z" mask="url(#c)" transform="translate(5.002 17.683)"/><path d="M11.07 17.683H9.58v2.525c0 1.009-.075 1.517-.339 2.111h1.812c1.443 0 2.375-1.008 2.375-2.397 0-1.074-.702-2.239-2.358-2.239m-.014 3.861h-.382c.072-.441.103-.887.092-1.335v-1.751h.362c.568 0 1.092.494 1.092 1.454 0 .822-.297 1.632-1.164 1.632m4.542 0h-.725a9.27 9.27 0 0 0 .048-1.067v-.145h.356c.306-.007.613.023.913.087v-.9a4.07 4.07 0 0 1-.914.086h-.356v-1.147h.56a3.96 3.96 0 0 1 .913.097v-.872h-2.659v2.818c0 .84-.051 1.333-.22 1.817h2.999v-.873c-.3.07-.608.102-.915.1"/></g></g></svg>