<svg width="36" height="36" fill="none" xmlns="http://www.w3.org/2000/svg"><path d="M18 0c2.837 0 5.52.656 7.907 1.825C31.884 4.753 36 10.895 36 18c0 9.942-8.058 18-18 18-9.94 0-18-8.057-18-18C0 8.06 8.06 0 18 0z" fill="#F2F4F7"/><path d="M8 26.225h20V10H8v16.225z" fill="#fff"/><path d="M8 26.195h20V10.03H8v16.163z" fill="#0068A2"/><path d="M19.67 22.383h-.23v-1.01h.192c.334 0 .535.16.535.502 0 .325-.165.508-.498.508zm.062-1.436h-.842v3.05h.553v-1.189h.318c.58 0 .977-.329.977-.933 0-.626-.412-.928-1.006-.928zm1.221.453h.604v2.598h.557V21.4h.626v-.453h-1.787v.453zm2.244 2.598h.562v-3.051h-.562v3.05zm1.159 0h.562v-1.446l.901 1.446h.677l-1.098-1.62 1.012-1.431h-.645l-.847 1.322v-1.322h-.562v3.05zm-13.129 0h1.628v-.44h-1.074v-.919h.965v-.434h-.965v-.819h1.03v-.44h-1.584v3.052zm-1.735-.023c.114.036.247.073.36.073.632 0 .779-.44.779-.979v-2.122h-.564v2.131c0 .247-.022.499-.32.499a.655.655 0 0 1-.228-.06l-.027.458zm17.337-8.708-.013-.181a22.696 22.696 0 0 0-8.809-1.77c-3.12 0-6.114.638-8.823 1.77l-.013.18a29.757 29.757 0 0 1 17.658 0zm-13.431 8.731h.485v-2.402l.933 2.402h.73v-3.051h-.488v2.406l-.928-2.406h-.732v3.05zm3.818-.371c-.505 0-.606-.613-.606-1.152 0-.471.08-1.153.606-1.153.553 0 .607.672.607 1.153 0 .466-.065 1.152-.607 1.152zm0-2.726c-.865 0-1.18.824-1.18 1.574 0 .763.268 1.573 1.18 1.573.872 0 1.189-.81 1.189-1.573 0-.76-.267-1.574-1.19-1.574z" fill="#fff"/></svg>