<svg width="36" height="36" fill="none" xmlns="http://www.w3.org/2000/svg"><path d="M18 0c2.837 0 5.52.656 7.907 1.825C31.884 4.753 36 10.895 36 18c0 9.942-8.058 18-18 18-9.94 0-18-8.057-18-18C0 8.06 8.06 0 18 0z" fill="#F2F4F7"/><g fill="#2EAB47"><path fill-rule="evenodd" clip-rule="evenodd" d="M6.72 21.353c-.083.47-.53.853-1.002.853s-.788-.382-.705-.853c.08-.471.53-.854 1.001-.854.47 0 .788.383.706.854zm3.561 1.197.707-3.626H9.586l-.706 3.625h1.401zm.94-4.74a.872.872 0 0 1-.827.705c-.39 0-.65-.315-.583-.705a.874.874 0 0 1 .827-.704c.39 0 .651.315.583.704z"/><path d="M14.21 18.82c-.619.024-1.201.35-1.27.39l.055-.286h-1.402l-.706 3.626h1.401l.48-2.456c.321-.331.7-.369 1.015-.314.23.043.268.198.262.312l-.477 2.458h1.402l.538-2.774.005-.026a.912.912 0 0 0 .013-.154c-.01-.598-.715-.8-1.317-.775"/><path fill-rule="evenodd" clip-rule="evenodd" d="m16.692 20.199.885-.899.305-1.55H16.48l-.943 4.8h1.402l.347-1.774-.594-.577z"/><path fill-rule="evenodd" clip-rule="evenodd" d="m18.711 20.2 2.535-2.448h-1.793l-2.415 2.447 2.415 2.35h1.793l-2.535-2.35zM7.764 17.772s-.4 2.041-.594 3.003c-.149.75-.379 1.586-1.288 1.643a1.232 1.232 0 0 1-.812-.212c.186.23.486.361.812.418.596.11 1.3-.023 1.705-.27.734-.434.946-1.15 1.1-1.922.132-.66.525-2.66.525-2.66H7.764"/><path fill-rule="evenodd" clip-rule="evenodd" d="M23.095 21.385a1.11 1.11 0 0 1-1.124-1.237 1.382 1.382 0 0 1 1.348-1.236 1.11 1.11 0 0 1 1.124 1.236c-.063.683-.667 1.237-1.348 1.237zm.342-3.753c-1.389 0-2.617 1.126-2.745 2.516-.127 1.39.896 2.517 2.286 2.517 1.388 0 2.615-1.128 2.744-2.517.128-1.39-.896-2.516-2.285-2.516z"/></g><path d="M23.984 16.268a.636.636 0 0 0-.186-.206 1.071 1.071 0 0 0-.279-.147 1.739 1.739 0 0 0-.323-.084 2.617 2.617 0 0 1-.934-.324.265.265 0 0 1-.08-.085.239.239 0 0 1-.043-.123c0-.146.026-.292.074-.439a.941.941 0 0 1 .188-.342c.121-.138.342-.257.66-.358a3.424 3.424 0 0 1 1.074-.156c.238 0 .422.019.551.056.131.035.195.092.195.168 0 .124-.016.22-.05.288a.299.299 0 0 1-.11.134 1.611 1.611 0 0 1-.204.091 2.031 2.031 0 0 0-.469.227.325.325 0 0 1-.101.056l-.024-.02c0-.028.028-.071.088-.128a.871.871 0 0 1 .215-.15c.092-.048.138-.078.138-.091 0-.022-.051-.033-.152-.033-.306 0-.588.027-.848.082a1.966 1.966 0 0 0-.612.216c-.151.088-.226.179-.226.273 0 .058.032.098.095.122.06.024.197.064.41.12.21.056.4.121.566.194.24.102.418.209.534.32.115.11.173.234.173.371a.66.66 0 0 1-.068.283.842.842 0 0 1-.2.263 1.22 1.22 0 0 1-.303.195 2.51 2.51 0 0 1-.367.117 4.306 4.306 0 0 1-.975.116c-.29 0-.52-.027-.699-.082-.175-.055-.264-.137-.264-.248 0-.049.031-.127.09-.232a.474.474 0 0 1 .21-.211.678.678 0 0 1 .207-.049c.066-.004.099.003.099.023l-.008.016-.017.013-.02.01a.898.898 0 0 1-.081.03l-.05.022-.018.032c0 .034.171.052.514.052.298 0 .541-.011.73-.033.19-.021.358-.061.503-.116a1.42 1.42 0 0 0 .397-.233m1.796-.722a7.665 7.665 0 0 0-.351.225c-.098.066-.18.134-.248.203a.556.556 0 0 0-.136.207c-.04.185-.062.285-.062.3 0 .109.076.162.23.162.069 0 .188-.06.355-.183a.612.612 0 0 1-.042-.222c0-.104.022-.21.063-.32.045-.107.108-.232.192-.372zm.512.651v.167c-.11.1-.197.166-.263.199a.573.573 0 0 1-.285.039c-.216.256-.403.382-.569.382a.396.396 0 0 1-.251-.091.619.619 0 0 1-.183-.252.881.881 0 0 1-.069-.353c0-.106.036-.224.106-.353a1.57 1.57 0 0 1 .273-.36c.112-.112.23-.2.358-.27a.76.76 0 0 1 .355-.103.4.4 0 0 1 .182.036c.046.023.067.057.067.1 0 .033-.018.072-.055.114.062.012.104.034.129.065.022.03.034.088.034.168 0 .08-.02.18-.057.3a1.55 1.55 0 0 1-.152.34l.046.044h.036a.194.194 0 0 0 .084-.02.768.768 0 0 0 .072-.045l.142-.107" fill="#7AC251"/><path d="M26.73 15.73a2.78 2.78 0 0 0 .25-.287 3.598 3.598 0 0 0 .392-.675.626.626 0 0 0 .061-.22c0-.039-.012-.057-.039-.057-.01 0-.03.008-.058.027-.1.082-.213.245-.34.484a2.936 2.936 0 0 0-.266.727zm.742.446v.183c-.347.457-.626.687-.843.687-.118 0-.21-.065-.276-.191a1.092 1.092 0 0 1-.102-.506c0-.168.04-.368.118-.6a4.628 4.628 0 0 1 .734-1.332c.143-.177.277-.302.399-.373a.254.254 0 0 1 .115-.044c.035 0 .059.015.07.046.011.03.017.082.017.157 0 .23-.093.512-.28.847a5.134 5.134 0 0 1-.781 1.024 1.224 1.224 0 0 0-.024.198.46.46 0 0 0 .067.259.22.22 0 0 0 .19.099.254.254 0 0 0 .133-.049c.048-.032.1-.073.151-.12.054-.047.158-.144.312-.285" fill="#7AC251"/><path d="M28.926 15.486c-.43.197-.737.364-.917.501-.184.137-.275.28-.275.425 0 .052.009.096.026.13.02.033.044.05.075.05a.25.25 0 0 0 .097-.034c.174-.103.333-.236.476-.4.143-.165.316-.389.518-.672zm-1.187.274c.25-.228.494-.398.732-.508.235-.111.418-.166.546-.166.035 0 .066.013.097.042a.31.31 0 0 1 .07.102.226.226 0 0 1 .027.085c0 .028-.012.05-.035.065a.855.855 0 0 1-.12.05l.043.102.043.1a.23.23 0 0 1 .016.068c0 .04-.042.115-.121.222a4.58 4.58 0 0 0-.17.24.35.35 0 0 0-.049.188c0 .122.057.183.17.183.115 0 .296-.109.542-.325v.151c-.417.465-.717.697-.898.697-.063 0-.11-.02-.137-.065a.353.353 0 0 1-.041-.185c0-.131.048-.32.142-.568a12.4 12.4 0 0 1-.537.571c-.117.113-.215.17-.291.17-.036 0-.08-.031-.135-.094a.912.912 0 0 1-.209-.556.76.76 0 0 1 .022-.195.486.486 0 0 1 .088-.159 2.03 2.03 0 0 1 .205-.215" fill="#7AC251"/><path d="M29.483 16.393v-.16c.09-.106.157-.196.204-.27a.307.307 0 0 1-.116-.067c-.024-.027-.036-.066-.036-.119a.5.5 0 0 1 .075-.227c.049-.09.11-.176.184-.254a.538.538 0 0 1 .198-.153l.065-.018c.035 0 .05.015.05.048a.449.449 0 0 1-.076.17c.34-.052.555-.08.645-.08.035 0 .058.004.072.01.027.016.05.05.069.104.02.055.027.11.027.164a.187.187 0 0 1-.046.113c-.03.04-.084.1-.158.177a1.49 1.49 0 0 0-.22.307.625.625 0 0 0-.09.25c0 .078.049.117.144.117.1 0 .277-.102.526-.308v.167c-.138.143-.25.258-.34.34a1.673 1.673 0 0 1-.248.196.38.38 0 0 1-.203.075c-.068 0-.126-.033-.173-.097a.465.465 0 0 1-.07-.276.67.67 0 0 1 .055-.243c.036-.091.089-.19.16-.296a3.78 3.78 0 0 1 .236-.32 9.529 9.529 0 0 1-.34.065l-.148.028c-.1.205-.25.39-.446.557" fill="#7AC251"/></svg>