<svg width="36" height="36" fill="none" xmlns="http://www.w3.org/2000/svg"><path d="M18 0c2.837 0 5.52.656 7.907 1.825C31.884 4.753 36 10.895 36 18c0 9.942-8.058 18-18 18-9.94 0-18-8.057-18-18C0 8.06 8.06 0 18 0z" fill="#F2F4F7"/><path fill-rule="evenodd" clip-rule="evenodd" d="m24.076 17.264-.585.154v.942a.607.607 0 0 0-.384-.115c-.571 0-.962.485-.962 1.19 0 .7.36 1.144.932 1.144a.754.754 0 0 0 .462-.145c.02.038.046.068.07.087h.467v-3.257zm.847.08a.326.326 0 0 0-.326.323.321.321 0 0 0 .642 0 .32.32 0 0 0-.316-.323zm-6.905.074-.625.166v2.408c0 .33-.013.454-.062.565-.053.122-.198.272-.355.369l.285.317c.277-.105.625-.344.713-.718.031-.123.043-.201.043-.598v-2.509zm3.337.78-.59.157v2.166h.59v-1.458a.3.3 0 0 1 .088-.225.391.391 0 0 1 .272-.1c.066 0 .115.006.18.02l.155-.494a.452.452 0 0 0-.22-.05.629.629 0 0 0-.214.052c-.1.046-.168.091-.261.17v-.238zm3.86 0-.59.157v2.166h.59v-2.323zm1.166 0-.59.157v2.166h.59v-1.47c0-.224.218-.313.34-.312.154 0 .268.061.268.317v1.465h.58v-1.646a.926.926 0 0 0-.044-.321c-.071-.194-.291-.326-.542-.326a.93.93 0 0 0-.404.096c-.097.052-.11.066-.198.127v-.253zm-6.908.02c-.207 0-.353.036-.581.136-.101.05-.182.1-.268.16l.218.366c.197-.108.39-.177.551-.177.215 0 .264.084.264.335v.093c-.048-.005-.088-.004-.132-.004-.718 0-1.083.245-1.083.774 0 .448.282.699.729.699.184 0 .395-.065.522-.184.01.03.05.085.078.105h.466v-1.505c.004-.242-.009-.313-.039-.404-.088-.252-.347-.394-.725-.394zm9.488 0c-.3 0-.523.098-.708.305-.198.22-.282.488-.282.894 0 .709.418 1.165 1.064 1.165.318 0 .59-.101.85-.312l-.23-.352a.881.881 0 0 1-.572.225c-.303 0-.474-.198-.474-.546l1.302-.018v-.136c0-.471-.092-.775-.3-.987-.144-.15-.39-.238-.65-.238zm2.179 0c-.573-.012-.887.295-.905.684-.015.296.165.568.743.73.39.11.421.26.403.353-.032.125-.19.175-.33.17-.184-.01-.376-.068-.662-.203l-.189.37c.26.163.608.284.944.278.43-.007.777-.214.844-.568.063-.325-.118-.657-.625-.805-.498-.147-.515-.265-.505-.378.018-.088.09-.204.355-.184.143.015.355.075.543.16l.185-.373c-.234-.123-.5-.227-.801-.234zm-2.17.432c.118 0 .202.044.259.132.054.084.07.172.07.339v.027h-.682c0-.32.129-.498.354-.498zm-5.791.066c.105 0 .207.047.312.138v1.091a.422.422 0 0 1-.282.136c-.308 0-.408-.159-.408-.643 0-.502.113-.722.378-.722zm-3.558.82h.036v.466c-.09.09-.216.17-.326.17-.149 0-.259-.117-.259-.294 0-.269.14-.343.55-.343z" fill="#3C4144"/><path d="M12.896 14.264c-.004 0-.007 0-.011.002-.015.005-.013.02-.01.036a.215.215 0 0 0 .005.025c.025.101.166.744.144 1.317-.05 1.35-.585 2.44-1.93 3.838-1.484 1.541-2.527 2.322-2.733 5.666l.517-.478c.096-.385.408-1.543.824-2.138.223-.318.59-.922 1.916-1.717 2.457-1.47 3.612-2.816 3.87-5.37 0-.002.021-.15.027-.352 0-.012-.01-.028-.022-.028a.023.023 0 0 0-.018.007l-1.233 1.242s-.29-1.016-1.304-2.023c-.018-.018-.03-.027-.042-.027zm-.835.343-1.627.402.637 1.15.99-1.552zm-.99 1.552.639 1.15.988-1.553-1.627.403zm0 0-1.626.402.637 1.151.99-1.553zm-.989 1.553.64 1.15.988-1.552-1.628.402zm0 0-1.627.403.638 1.15.99-1.553zm-.989 1.553.638 1.15.99-1.553-1.628.404zm0 0-1.627.402.638 1.15.99-1.552zm-1.627.402.989-1.552-1.626.402.637 1.15zm-.637-1.15.989-1.552-1.628.403.639 1.15zm.989-1.552.989-1.552-1.628.403.639 1.15zm0 0 .637 1.15.99-1.553-1.627.403zm1.627-.404.989-1.552-1.627.404.638 1.148zm-3.047-.858c-.003 0-.008 0-.011.002-.011.003-.022.014-.032.022-.698.56-1.342 1.366-1.513 2.668l-.805-.485a.032.032 0 0 0-.015-.005.021.021 0 0 0-.022.022l.001.006c.143.67.92 2.614 3.832 3.31l.103-.161c-.274-.182-3.112-2.162-1.53-5.326.003-.008.01-.023.01-.033 0-.014-.008-.02-.018-.02z" fill="#03437B"/><path d="M13.95 10c-.27 0-.54.006-.812.022l-1.401 4.104.382-.095 3.15-3.957A12.317 12.317 0 0 0 13.95 10zm-1.335.064c-.64.063-1.285.173-1.924.33l-.168 4.033.342-.085 1.75-4.278zm-2.416.462a13.374 13.374 0 0 0-1.626.582l.784 3.607.321-.079.521-4.11zm-2.069.785c-.49.236-.952.499-1.383.783l1.494 2.898.32-.08-.43-3.6zm-1.748 1.036c-.394.284-.757.585-1.088.902l1.847 2.015.306-.076-1.065-2.84z" fill="#AF0333"/></svg>