<svg width="36" height="36" fill="none" xmlns="http://www.w3.org/2000/svg"><path d="M18 0c2.837 0 5.52.656 7.907 1.825C31.884 4.753 36 10.895 36 18c0 9.942-8.058 18-18 18-9.94 0-18-8.057-18-18C0 8.06 8.06 0 18 0z" fill="#F2F4F7"/><path d="m15.643 16-.268.077v1.618h.268v-.73a.501.501 0 0 1 .143-.126.51.51 0 0 1 .267-.09c.09 0 .149.024.18.072a.363.363 0 0 1 .033.183v.69h.268v-.713a.68.68 0 0 0-.045-.291c-.056-.108-.18-.161-.374-.161a.75.75 0 0 0-.472.171V16zm12.673 0-.268.077v1.618h.268v-.73a.5.5 0 0 1 .144-.126.51.51 0 0 1 .266-.09c.09 0 .15.024.18.072a.363.363 0 0 1 .033.183v.69h.268v-.713a.68.68 0 0 0-.045-.291c-.056-.108-.18-.161-.373-.161a.751.751 0 0 0-.473.171V16zm-14.884.077v.962a.44.44 0 0 1-.122.316.412.412 0 0 1-.292.105.412.412 0 0 1-.291-.118.395.395 0 0 1-.104-.173l-.257.073a.678.678 0 0 0 .652.484.674.674 0 0 0 .476-.177.7.7 0 0 0 .205-.505v-.967h-.267zm9.32 0v1.618h.268V16.54l.552 1.154h.178l.551-1.154v1.154h.268v-1.618h-.299l-.609 1.274-.61-1.274h-.3zm3.792.123-.268.076v.286h-.207v.214h.207v.569c0 .072.006.132.016.18a.24.24 0 0 0 .11.163c.049.027.124.04.225.04.094 0 .191-.012.29-.037l-.049-.207a.48.48 0 0 1-.169.03c-.078 0-.125-.02-.14-.06a.691.691 0 0 1-.015-.185v-.493h.328v-.214h-.328V16.2zm.948 0-.268.076v.286h-.207v.214h.207v.569c0 .072.005.132.016.18.018.077.054.131.11.163a.48.48 0 0 0 .225.04c.094 0 .19-.012.29-.037l-.049-.207a.48.48 0 0 1-.17.03c-.077 0-.124-.02-.14-.06a.688.688 0 0 1-.014-.185v-.493h.328v-.214h-.328V16.2zm-8.848.329a.63.63 0 0 0-.339.077.278.278 0 0 0-.13.252c0 .095.035.168.105.218.064.046.166.091.305.136l.15.048c.033.01.062.023.087.04a.086.086 0 0 1 .038.076c0 .092-.088.138-.264.138a.91.91 0 0 1-.41-.098l-.07.23c.13.055.293.082.486.082.355 0 .532-.119.532-.355a.297.297 0 0 0-.032-.144.31.31 0 0 0-.115-.11 2.366 2.366 0 0 0-.39-.145.35.35 0 0 1-.118-.054.08.08 0 0 1-.03-.063c0-.076.07-.114.21-.114a.92.92 0 0 1 .334.063l.056-.222a1.472 1.472 0 0 0-.405-.055zm-4.096 0c-.29 0-.483.096-.58.287a.677.677 0 0 0-.072.314c0 .075.011.148.033.217a.505.505 0 0 0 .127.215c.11.11.27.166.483.166.212 0 .373-.056.482-.166a.586.586 0 0 0 .16-.433.585.585 0 0 0-.16-.435c-.11-.11-.268-.165-.473-.165zm2.961 0a.71.71 0 0 0-.488.192v-.16h-.254v1.134h.268v-.73a.522.522 0 0 1 .146-.125.515.515 0 0 1 .267-.09c.087 0 .146.023.177.07.023.035.034.096.034.182v.692h.267v-.713a.674.674 0 0 0-.044-.292c-.056-.107-.18-.16-.373-.16zm2.44 0c-.288 0-.482.096-.58.287a.677.677 0 0 0-.071.314c0 .075.011.148.033.217a.505.505 0 0 0 .127.215c.11.11.27.166.483.166.212 0 .373-.056.482-.166a.586.586 0 0 0 .16-.433.585.585 0 0 0-.16-.435c-.11-.11-.268-.165-.473-.165zm1.573 0a.71.71 0 0 0-.489.192v-.16h-.253v1.134h.268v-.73a.522.522 0 0 1 .146-.125.515.515 0 0 1 .267-.09c.087 0 .146.023.177.07a.364.364 0 0 1 .033.182v.692h.268v-.713a.675.675 0 0 0-.044-.292c-.056-.107-.18-.16-.373-.16zm3.863 0a1.5 1.5 0 0 0-.246.02 1.84 1.84 0 0 0-.203.05l-.059.018.066.218a1.04 1.04 0 0 1 .41-.092c.11 0 .185.017.227.053.033.028.05.072.05.13v.044a6.703 6.703 0 0 0-.216.008c-.214.013-.367.046-.46.1a.332.332 0 0 0-.172.308c0 .228.143.342.43.342.205 0 .352-.05.441-.152v.119h.249v-.69a2.53 2.53 0 0 0-.003-.136.386.386 0 0 0-.046-.171c-.07-.113-.226-.17-.468-.17zm4.633 0c-.211 0-.367.058-.469.176a.649.649 0 0 0-.14.438c0 .263.1.438.301.525.092.04.215.06.37.06.18 0 .346-.03.497-.087l-.08-.208a.874.874 0 0 1-.376.08c-.186.001-.313-.042-.38-.128a.302.302 0 0 1-.06-.178h.908c.004-.067.007-.113.007-.137a.595.595 0 0 0-.079-.317c-.092-.15-.259-.224-.498-.224zm.659.033.503 1.133-.233.436h.293l.76-1.569h-.284l-.389.859-.354-.859h-.296zm-.663.178c.142 0 .238.04.288.12a.372.372 0 0 1 .044.15h-.666a.39.39 0 0 1 .034-.13c.047-.093.146-.14.3-.14zm-15.469.002c.129 0 .223.04.286.12a.425.425 0 0 1 .077.267c0 .11-.026.199-.077.265-.063.08-.16.12-.292.12-.134 0-.231-.04-.293-.12a.424.424 0 0 1-.077-.265c0-.112.026-.2.077-.267.063-.08.162-.12.3-.12zm5.403 0c.128 0 .223.04.285.12a.425.425 0 0 1 .077.267c0 .11-.026.199-.077.265-.063.08-.16.12-.292.12-.134 0-.231-.04-.292-.12a.423.423 0 0 1-.077-.265c0-.112.025-.2.077-.267.062-.08.161-.12.299-.12zm5.686.426v.124a.199.199 0 0 1-.007.061.183.183 0 0 1-.065.08.468.468 0 0 1-.286.08c-.148 0-.222-.048-.222-.144 0-.097.084-.157.252-.18.068-.01.178-.017.328-.021zm4.964 1.003c-.081 0-.14.023-.174.07-.027.035-.04.089-.04.163v.071h-.131v.093h.13v.513h.117v-.513h.19v-.093h-.19V18.4a.2.2 0 0 1 .017-.096c.016-.027.047-.04.095-.04.026 0 .056.004.088.013l.022-.09a.496.496 0 0 0-.124-.016zm-5.78.012-.115.032v.866h.116v-.408a.35.35 0 0 1 .088-.07.308.308 0 0 1 .156-.05c.051 0 .086.012.105.038.013.02.02.054.02.102v.388h.115v-.38a.648.648 0 0 0-.005-.097c-.008-.056-.032-.095-.073-.117a.296.296 0 0 0-.14-.03.427.427 0 0 0-.266.101v-.375zm5.011 0-.116.032v.866h.116v-.898zm-16.95.032v.866H13v-.866h-.12zm2.482.015a.081.081 0 0 0-.073.042.065.065 0 0 0-.007.03c0 .018.007.035.02.048a.077.077 0 0 0 .059.024.078.078 0 0 0 .07-.042.066.066 0 0 0 .007-.03.067.067 0 0 0-.02-.048.077.077 0 0 0-.056-.024zm.826 0a.081.081 0 0 0-.073.042.065.065 0 0 0-.006.03.065.065 0 0 0 .02.049.077.077 0 0 0 .058.023c.02 0 .037-.006.051-.018a.066.066 0 0 0 .026-.054.067.067 0 0 0-.02-.048.077.077 0 0 0-.056-.024zm3.423 0a.081.081 0 0 0-.072.042.065.065 0 0 0-.007.03c0 .018.007.035.02.048a.077.077 0 0 0 .058.024.08.08 0 0 0 .052-.018.066.066 0 0 0 .026-.054.067.067 0 0 0-.02-.048.076.076 0 0 0-.057-.024zm8.067 0a.081.081 0 0 0-.073.042.065.065 0 0 0-.007.03c0 .018.007.035.02.048a.077.077 0 0 0 .058.024.08.08 0 0 0 .052-.018.066.066 0 0 0 .026-.054.067.067 0 0 0-.02-.048.077.077 0 0 0-.056-.024zm2.398 0a.081.081 0 0 0-.073.042.066.066 0 0 0-.006.03c0 .018.007.035.02.048a.077.077 0 0 0 .058.024.078.078 0 0 0 .051-.018.066.066 0 0 0 .026-.054.067.067 0 0 0-.02-.048.077.077 0 0 0-.056-.024zm-16.526.227a.42.42 0 0 0-.273.109v-.091h-.11v.606h.116v-.408a.366.366 0 0 1 .088-.07.31.31 0 0 1 .157-.05c.05 0 .085.012.104.038.013.02.02.054.02.102v.388h.116v-.38a.649.649 0 0 0-.006-.097c-.008-.056-.032-.095-.073-.117a.293.293 0 0 0-.14-.03zm.604 0a.313.313 0 0 0-.172.04.143.143 0 0 0-.065.129.13.13 0 0 0 .055.113.651.651 0 0 0 .159.07l.082.028a.14.14 0 0 1 .048.027c.013.012.02.029.02.05 0 .062-.051.092-.154.092a.399.399 0 0 1-.207-.054l-.038.1a.563.563 0 0 0 .246.047c.18 0 .27-.063.27-.189 0-.052-.017-.09-.053-.116a.532.532 0 0 0-.144-.067l-.085-.029a.237.237 0 0 1-.055-.024.055.055 0 0 1-.027-.05c0-.05.04-.074.123-.074a.42.42 0 0 1 .172.038l.031-.097a.622.622 0 0 0-.206-.034zm.723 0a.33.33 0 0 0-.232.09v-.072h-.109v.903l.116-.033v-.278a.39.39 0 0 0 .17.032c.114 0 .2-.035.257-.104a.356.356 0 0 0 .074-.236.342.342 0 0 0-.056-.206c-.047-.064-.12-.096-.22-.096zm1.92 0a.42.42 0 0 0-.274.109v-.091h-.11v.606h.116v-.408a.36.36 0 0 1 .089-.07.31.31 0 0 1 .156-.05c.05 0 .086.012.104.038.014.02.02.054.02.102v.388h.116v-.38a.648.648 0 0 0-.006-.097c-.007-.056-.032-.095-.073-.117a.293.293 0 0 0-.139-.03zm.693 0c-.125 0-.216.037-.274.11a.38.38 0 0 0-.074.243c0 .083.019.15.056.198.045.06.117.09.216.09a.311.311 0 0 0 .22-.085v.03a.376.376 0 0 1-.026.163c-.025.05-.084.073-.175.073a.559.559 0 0 1-.196-.033l-.034.096c.073.02.151.03.234.03a.45.45 0 0 0 .162-.024.197.197 0 0 0 .128-.127.94.94 0 0 0 .023-.25v-.475a1.049 1.049 0 0 0-.26-.039zm1.023 0a.314.314 0 0 0-.171.04.143.143 0 0 0-.066.129.13.13 0 0 0 .056.113.648.648 0 0 0 .159.07l.081.028a.13.13 0 0 1 .048.027c.014.012.02.029.02.05 0 .062-.05.092-.153.092a.399.399 0 0 1-.207-.054l-.039.1a.563.563 0 0 0 .246.047c.18 0 .271-.063.271-.189 0-.052-.018-.09-.053-.116a.533.533 0 0 0-.144-.067l-.086-.029a.24.24 0 0 1-.054-.024.054.054 0 0 1-.028-.05c0-.05.041-.074.123-.074.059 0 .116.012.172.038l.032-.097a.62.62 0 0 0-.207-.034zm.679 0c-.1 0-.177.024-.232.072-.069.058-.103.144-.103.258 0 .098.027.174.08.228.055.056.139.084.25.084.09 0 .168-.018.234-.052l-.04-.094a.347.347 0 0 1-.179.053c-.08 0-.139-.024-.177-.07a.232.232 0 0 1-.05-.154.24.24 0 0 1 .062-.174.212.212 0 0 1 .16-.058c.06 0 .12.015.177.044l.033-.095a.545.545 0 0 0-.215-.042zm.927 0c-.108 0-.188.03-.242.092a.344.344 0 0 0-.075.233c0 .103.028.181.086.235.058.055.146.082.263.082a.602.602 0 0 0 .258-.055l-.041-.09a.404.404 0 0 1-.197.052.377.377 0 0 1-.139-.021.165.165 0 0 1-.081-.069.213.213 0 0 1-.031-.111h.499a.741.741 0 0 0 .003-.056.324.324 0 0 0-.04-.165c-.049-.084-.137-.127-.264-.127zm.83 0a.42.42 0 0 0-.274.109v-.091h-.109v.606h.116v-.408a.362.362 0 0 1 .088-.07.308.308 0 0 1 .156-.05c.051 0 .086.012.104.038.014.02.02.054.02.102v.388h.116v-.38a.648.648 0 0 0-.005-.097c-.008-.056-.032-.095-.073-.117a.294.294 0 0 0-.14-.03zm.676 0a.34.34 0 0 0-.231.072c-.069.058-.103.144-.103.258 0 .098.027.174.08.228.055.056.139.084.25.084a.5.5 0 0 0 .233-.052l-.04-.094a.347.347 0 0 1-.178.053c-.08 0-.14-.024-.178-.07a.231.231 0 0 1-.049-.154.24.24 0 0 1 .062-.174.212.212 0 0 1 .159-.058c.061 0 .12.015.177.044l.034-.095a.545.545 0 0 0-.216-.042zm.619 0c-.107 0-.188.03-.241.092a.344.344 0 0 0-.075.233c0 .103.028.181.085.235.059.055.146.082.264.082a.601.601 0 0 0 .258-.055l-.042-.09a.404.404 0 0 1-.196.052.376.376 0 0 1-.139-.021.166.166 0 0 1-.082-.069.213.213 0 0 1-.03-.111h.498a.877.877 0 0 0 .003-.056.324.324 0 0 0-.038-.165c-.05-.084-.138-.127-.265-.127zm1.253 0c-.108 0-.188.03-.242.092a.344.344 0 0 0-.075.233c0 .103.029.181.086.235.058.055.146.082.263.082a.603.603 0 0 0 .259-.055l-.042-.09a.404.404 0 0 1-.196.052.377.377 0 0 1-.14-.021.165.165 0 0 1-.081-.069.211.211 0 0 1-.031-.111h.499a.733.733 0 0 0 .003-.056.324.324 0 0 0-.039-.165c-.05-.084-.138-.127-.264-.127zm.821 0a.42.42 0 0 0-.273.109v-.091h-.11v.606h.116v-.408a.363.363 0 0 1 .09-.07.31.31 0 0 1 .155-.05c.051 0 .086.012.104.038.014.02.02.054.02.102v.388h.116v-.38a.66.66 0 0 0-.005-.097c-.008-.056-.032-.095-.073-.117a.294.294 0 0 0-.14-.03zm1.43 0a.632.632 0 0 0-.27.055l.035.095a.496.496 0 0 1 .223-.057c.061 0 .104.01.127.033.018.017.027.045.027.083v.028l-.107.005a.645.645 0 0 0-.25.053.177.177 0 0 0-.099.165c0 .121.075.182.224.182.113 0 .194-.028.241-.084v.066h.108v-.449a.201.201 0 0 0-.024-.087c-.035-.059-.113-.088-.236-.088zm.808 0a.421.421 0 0 0-.273.109v-.091h-.11v.606h.116v-.408a.36.36 0 0 1 .089-.07.309.309 0 0 1 .156-.05c.051 0 .086.012.104.038.014.02.02.054.02.102v.388h.116v-.38a.648.648 0 0 0-.005-.097c-.008-.056-.033-.095-.073-.117a.295.295 0 0 0-.14-.03zm.68 0a.337.337 0 0 0-.23.072c-.07.058-.104.144-.104.258 0 .098.027.174.08.228.056.056.139.084.25.084.09 0 .168-.018.234-.052l-.04-.094a.347.347 0 0 1-.178.053c-.08 0-.14-.024-.178-.07a.232.232 0 0 1-.05-.154c0-.074.02-.132.062-.174a.213.213 0 0 1 .16-.058c.06 0 .12.015.177.044l.033-.095a.546.546 0 0 0-.215-.042zm1.05 0a.421.421 0 0 0-.274.109v-.091h-.11v.606h.116v-.408a.362.362 0 0 1 .089-.07.309.309 0 0 1 .156-.05c.05 0 .085.012.104.038.013.02.02.054.02.102v.388h.116v-.38a.643.643 0 0 0-.006-.097c-.008-.056-.032-.095-.073-.117a.294.294 0 0 0-.139-.03zm.693 0c-.125 0-.216.037-.273.11a.38.38 0 0 0-.075.243c0 .083.019.15.056.198.045.06.117.09.216.09a.311.311 0 0 0 .22-.085v.03a.374.374 0 0 1-.026.163c-.025.05-.084.073-.175.073a.558.558 0 0 1-.196-.033l-.034.096c.073.02.151.03.234.03.066 0 .12-.008.161-.024a.197.197 0 0 0 .129-.127.941.941 0 0 0 .023-.25v-.475a1.049 1.049 0 0 0-.26-.039zm2.082 0c-.107 0-.188.03-.242.092a.343.343 0 0 0-.075.233c0 .103.029.181.086.235.059.055.146.082.264.082a.6.6 0 0 0 .258-.055l-.042-.09a.403.403 0 0 1-.196.052.377.377 0 0 1-.139-.021.167.167 0 0 1-.082-.069.211.211 0 0 1-.03-.111h.498a.701.701 0 0 0 .003-.056.325.325 0 0 0-.038-.165c-.05-.084-.138-.127-.265-.127zm-15.064.013a.466.466 0 0 0-.3.114v-.109h-.11v.606h.116v-.39a.432.432 0 0 1 .289-.124l.005-.097zm-.694.005v.606h.116v-.606h-.115zm.827 0v.606h.115v-.606h-.115zm3.423 0v.606h.116v-.606h-.116zm8.066 0v.606h.116v-.606h-.116zm2.399 0v.606h.115v-.606h-.115zm-9.898.074c.079 0 .133.026.164.079.012.02.02.05.026.09h-.389a.274.274 0 0 1 .02-.078c.03-.06.089-.09.179-.09zm2.125 0c.079 0 .134.026.165.079.012.02.02.05.025.09h-.389a.285.285 0 0 1 .02-.078c.03-.06.09-.09.18-.09zm1.253 0c.079 0 .133.026.164.079a.24.24 0 0 1 .026.09h-.389a.281.281 0 0 1 .02-.078c.03-.06.089-.09.179-.09zm7.564 0c.08 0 .134.026.165.079.012.02.02.05.025.09h-.388a.279.279 0 0 1 .02-.078c.029-.06.088-.09.178-.09zm-16.207.002c.06 0 .106.019.137.057a.234.234 0 0 1 .043.15.289.289 0 0 1-.049.17c-.037.052-.097.078-.181.078a.3.3 0 0 1-.153-.036v-.24c0-.03.004-.055.012-.073a.177.177 0 0 1 .076-.077.231.231 0 0 1 .115-.03zm2.632 0c.046 0 .095.007.147.021v.254a.26.26 0 0 1-.003.05.15.15 0 0 1-.035.063.211.211 0 0 1-.165.067c-.114 0-.17-.066-.17-.199 0-.076.018-.138.054-.183.04-.05.096-.073.172-.073zm11.489 0c.046 0 .095.007.147.021v.254a.26.26 0 0 1-.003.05.151.151 0 0 1-.035.063.211.211 0 0 1-.165.067c-.114 0-.17-.066-.17-.199 0-.076.018-.138.054-.183.039-.05.096-.073.172-.073zm-3.084.23v.098a.103.103 0 0 1-.004.034.1.1 0 0 1-.038.045.277.277 0 0 1-.167.048c-.087 0-.13-.031-.13-.094s.05-.101.15-.116a1.99 1.99 0 0 1 .189-.015zm-3.173.187-.037.247h.073l.073-.247h-.109zM5.975 16.092v1.78a.755.755 0 0 1-1.478.213L4 18.23a1.268 1.268 0 0 0 1.22.915c.702 0 1.26-.57 1.272-1.272v-1.78h-.517zm1.034 0v3.004h.52v-1.943l1.077 1.942h.578l1.078-1.942v1.942h.52v-3.003h-.52l-1.367 2.46-1.367-2.46H7.01z" fill="#1E22AA"/></svg>