<svg height="36" viewBox="0 0 36 36" width="36" xmlns="http://www.w3.org/2000/svg" xmlns:xlink="http://www.w3.org/1999/xlink"><linearGradient id="b" x1=".396%" x2="100%" y1="49.373%" y2="49.373%"><stop offset="0" stop-color="#eb712a"/><stop offset=".231" stop-color="#ef8528"/><stop offset=".471" stop-color="#f29426"/><stop offset=".624" stop-color="#f39a24"/></linearGradient><linearGradient id="a"><stop offset="0" stop-color="#343434"/><stop offset=".545" stop-color="#696968"/><stop offset="1" stop-color="#696968"/></linearGradient><linearGradient id="c" x1=".358%" x2="100.704%" xlink:href="#a" y1="50.834%" y2="50.834%"/><linearGradient id="d" x1=".123%" x2="100.383%" xlink:href="#a" y1="50.1%" y2="50.1%"/><linearGradient id="e" x1="-.677%" x2="99.535%" xlink:href="#a" y1="50.1%" y2="50.1%"/><g fill="none"><path d="M18 0c2.837 0 5.52.656 7.907 1.825C31.884 4.753 36 10.895 36 18c0 9.942-8.058 18-18 18-9.94 0-18-8.057-18-18C0 8.06 8.06 0 18 0z" fill="#f2f4f7"/><g transform="translate(4 14.9)"><path d="M26.535 0c-.812 0-1.466.654-1.466 1.465s.654 1.466 1.466 1.466c.81 0 1.465-.654 1.465-1.466C28 .628 27.346 0 26.535 0z" fill="url(#b)"/><path d="M26.613 3.35c-.052.183-.078.34-.13.444l-.027.053a.255.255 0 0 1-.262.21h-.078c-.052 0-.105-.027-.157-.08-.026-.052-.052-.104-.052-.156l.078-.524c0-.026.026-.078.052-.104a1.714 1.714 0 0 1-1.308-1.675c0-.131.026-.236.026-.367H22.61a.255.255 0 0 1-.261-.209l-.105-.445C22.191.34 22.06.21 21.877.21h-.628a.207.207 0 0 0-.21.21c0 .13.105.209.21.209h.34c.13 0 .235.079.261.21l.838 3.401c.052.157.183.288.366.288h3.428c.183 0 .314-.105.367-.288l.287-1.151a2.098 2.098 0 0 1-.55.13c.053.08.053.105.027.132zm-3.847-.943c-.026-.13-.078-.261-.104-.366l-.026-.105c-.027-.052 0-.104.026-.157.026-.052.104-.078.157-.078h.235c.131 0 .236.078.236.21l.078.47c0 .053 0 .105-.052.157-.026.053-.105.079-.157.079h-.131c-.13-.026-.235-.105-.262-.21zm.812 1.57c-.027.053-.105.08-.157.08h-.027a.255.255 0 0 1-.261-.21l-.026-.053c-.027-.13-.079-.287-.131-.47-.026-.053 0-.105.026-.158.026-.052.105-.078.157-.078h.13c.132 0 .236.078.262.21l.079.523c0 .052 0 .13-.052.157zm.968-.104c0 .105-.079.183-.183.183s-.21-.078-.21-.183l-.078-.55c0-.052 0-.104.052-.157.026-.052.105-.078.157-.078h.079c.13 0 .235.105.235.235v.55zm0-1.492a.235.235 0 0 1-.236.236h-.183a.255.255 0 0 1-.262-.21l-.052-.497c0-.052 0-.104.052-.157.053-.052.105-.078.157-.078h.314c.131 0 .21.104.21.235zm.994.942-.078.55c-.026.105-.105.183-.21.183a.179.179 0 0 1-.183-.183v-.55c0-.13.105-.235.236-.235h.078c.053 0 .105.026.157.078z" fill="url(#c)"/><path d="m26.535.21.366.732.837.13-.602.577.131.81-.732-.366-.733.367.13-.811-.575-.576.811-.13z" fill="#fff"/><circle cx="23.29" cy="5.548" fill="url(#d)" r="1"/><circle cx="26.325" cy="5.548" fill="url(#e)" r="1"/><path d="M7.118 4.92c-.288.209-.733.287-1.335.287H4.527a2.02 2.02 0 0 1-.392-.052c-.131-.026-.262-.078-.367-.105a.941.941 0 0 1-.314-.209 1.076 1.076 0 0 1-.21-.34 1.319 1.319 0 0 1-.078-.497V1.02h.785v2.957c0 .314.288.47.89.47h1.073c.576 0 .864-.156.864-.47V1.02h.785v3.01c-.027.392-.157.706-.445.89zm6.359.34V2.512l-1.701 2.512a.796.796 0 0 1-.21.21.442.442 0 0 1-.261.078c-.184 0-.34-.078-.471-.262L9.133 2.486V5.26h-.785V1.465c0-.157.052-.261.13-.34a.433.433 0 0 1 .315-.13c.183 0 .34.078.444.209l2.12 3.035 2.093-3.01a.472.472 0 0 1 .42-.235c.13 0 .235.053.313.131.079.079.131.21.131.367v3.742h-.837zm1.57-.026V1.02h.785v4.213zm6.123.026-.654-1.152h-2.46l-.628 1.152h-.942l2.355-3.952c.105-.183.262-.287.445-.287s.34.104.445.287l2.303 3.952zm-1.884-3.193-.759 1.256h1.518zM2.381 3.35c0 1.282-.47 1.831-1.308 2.014C.262 5.521 0 5.521 0 5.521v-.863c.314-.026.811-.079 1.125-.183.288-.105.497-.393.497-1.125l.027-1.544V1.02h.785z" fill="#0f0e0e"/></g></g></svg>