<svg height="36" viewBox="0 0 36 36" width="36" xmlns="http://www.w3.org/2000/svg"><mask id="a" fill="#fff"><path d="M0 0h28v4.995H0z" fill-rule="evenodd"/></mask><g fill="none" fill-rule="evenodd"><path d="M18 0c2.837 0 5.52.656 7.907 1.825C31.884 4.753 36 10.895 36 18c0 9.942-8.058 18-18 18-9.94 0-18-8.057-18-18C0 8.06 8.06 0 18 0z" fill="#f2f4f7" fill-rule="nonzero"/><path d="M1.022 2.82c.056.305.103.613.103.885 0 .582-.196 1.001-.476 1.001-.227 0-.227-.245-.227-.409 0-.5.256-1.026.6-1.477zM1 2.706a4.484 4.484 0 0 0-.177.234C.546 2.67.324 2.09.324 1.613c0-1.178.783-1.512.823-1.512.058 0 .041.014.041.094 0 .12-.339.68-.339 1.468 0 .276.078.651.151 1.04zm2.113-.73c-.156-.01-.298-.04-.298-.14 0-.035.027-.062.071-.062.104 0 .179.09.227.201zm1.032-.517C4.142 1.13 4.118.204 4.368.204c.097 0 .111.107.111.293 0 .395-.145.72-.333.962zm4.278 1.077c.025.095.041.196.041.297 0 .084-.044.146-.093.146-.054 0-.071-.053-.071-.14 0-.09.046-.194.12-.303zm2.021-.598a.584.584 0 0 1-.125.014c-.12 0-.191-.049-.191-.129 0-.036.04-.08.084-.08.097 0 .176.084.233.193zm3.809.751.002-.003c-.077-.188-.213-.369-.489-.369-.075 0-.116.066-.116.147 0 .146.232.24.446.24.044 0 .098-.006.157-.015zm1.71.132h-.001c-.343.451-.599.977-.599 1.475 0 .165 0 .41.227.41.28 0 .476-.419.476-1a5.1 5.1 0 0 0-.103-.885zm2.09-.846c-.047-.113-.122-.2-.225-.2-.045 0-.072.026-.072.061 0 .1.141.13.297.14zm1.033-.514c.188-.244.333-.568.333-.964 0-.186-.013-.293-.11-.293-.251 0-.226.93-.223 1.257zm4.278 1.074h-.002a.576.576 0 0 0-.121.303c0 .088.017.141.071.141.049 0 .093-.062.093-.146 0-.1-.016-.203-.041-.298zm-7.662.495c-.111-.084-.213-.229-.37-.335-.132-.09-.48.008-.783.063-.027.174-.087.346-.147.346-.039 0-.056-.138-.105-.298l-.003-.003c-.135.025-.25.042-.319.042-.209 0-.689-.092-.689-.408 0-.178.2-.249.391-.249.218 0 .565.155.65.324.022-.302-.196-.467-.196-.516s.236-.137.258-.137c.093 0 .174.426.174.73l-.001.044c.239-.048.496-.099.663-.076-.16-.227-.28-.538-.28-.97C14.945.493 16.035 0 16.204 0c.075 0 .093.018.093.063 0 .097-.142.195-.142.943 0 .517.058.958.107 1.332.435-.452.896-.763 1.178-.763.009 0 .014.017.014.036 0 .031-.285.164-.285.591 0 .334.205.637.472.637.302 0 .476-.322.476-.557a.824.824 0 0 0-.017-.156c-.423-.01-.557-.169-.557-.32 0-.102.102-.222.235-.222.161 0 .386.122.47.396h.082c.091 0 .251-.066.421-.19v-.002a27.565 27.565 0 0 1-.007-.498c0-.636.214-1.214.578-1.215.187 0 .284.156.284.356 0 .428-.212.88-.519 1.208l-.002.003c-.002.544-.02.84.059.84.093 0 .387-.948.761-.948.391 0 .071 1.21.235 1.21.2 0 .658-1.227.966-1.227.427 0 .133 1.027.28 1.027.151 0 .378-1.027.774-1.027.502 0 .031 1.307.289 1.307.196 0 .694-1.357.805-1.357.089 0-.044.107.298.597.014.02.028.041.04.063h.001c.355-.327.827-.61 1.173-.61.063 0 .098.01.098.053 0 .102-.307.187-.307.694 0 .311.214.565.454.565.307 0 .467-.308.467-.543a.764.764 0 0 0-.036-.21l-.002-.002a.773.773 0 0 1-.203.03c-.262 0-.373-.187-.373-.325 0-.103.098-.2.227-.2a.53.53 0 0 1 .465.303l.001.001c.278-.12.532-.353.704-.353.422 0 .182.916.28.916.107 0 .432-.952.77-.952.266 0 .244.356.244.516 0 .365-.084.86.049.86.093 0 .329-.388.36-.388.032 0 .036.01.036.05 0 .074-.383.648-.592.648-.302 0-.276-.463-.276-.609 0-.116.036-.712-.053-.712-.066 0-.24.387-.4.672-.165.29-.245.613-.409.613-.218 0-.174-.302-.174-.595 0-.392.049-.77-.075-.77-.058 0-.212.136-.415.232a.88.88 0 0 1 .032.244c0 .25-.129.89-.73.89a.753.753 0 0 1-.76-.77c0-.405.227-.529.356-.672-.221.037-.584.263-.864.522l-.001.003c.068.173.073.345.073.406 0 .29-.182.49-.369.49-.125 0-.249-.08-.249-.24 0-.127.089-.295.23-.47V2.41c-.072-.193-.172-.334-.226-.334-.111 0-.436 1.046-.845 1.046-.449 0-.138-1.273-.289-1.273-.147 0-.578 1.273-.827 1.273-.352 0-.036-1.25-.192-1.25-.2 0-.662 1.25-.974 1.25-.44 0-.111-1.232-.293-1.232-.098 0-.259.333-.409.667-.129.267-.205.547-.343.547-.129 0-.156-.049-.156-.463 0-.13-.008-.42-.016-.718h-.001a1.21 1.21 0 0 1-.477.191v.001c.003.032.005.065.005.1 0 .297-.12.924-.734.924-.462 0-.716-.35-.716-.8 0-.24.116-.4.227-.534-.243.146-.52.371-.779.644l-.001.004c.028.221.051.417.051.59 0 1.311-.574 1.952-.881 1.952-.192 0-.294-.254-.294-.512 0-.456.228-.978.548-1.453zm.062-.089c.055-.079.114-.157.174-.232l.003-.008c-.073-.388-.151-.762-.151-1.038 0-.787.342-1.348.342-1.468 0-.08.014-.094-.044-.094-.04 0-.823.334-.823 1.513 0 .475.221 1.057.499 1.327zm9.621-1.003h.001c-.056-.11-.136-.195-.233-.195-.044 0-.084.044-.084.08 0 .08.076.13.191.13a.584.584 0 0 0 .125-.015zM2.117 1.805c-.111.134-.231.294-.231.534 0 .45.258.8.72.8.614 0 .734-.627.734-.925 0-.035-.002-.068-.005-.1a1.22 1.22 0 0 0 .478-.192c.008.3.016.588.016.72-.004.413.027.462.156.462.138 0 .213-.28.343-.547.151-.334.311-.667.409-.667.182 0-.147 1.232.293 1.232.311 0 .774-1.25.974-1.25.156 0-.16 1.25.187 1.25.253 0 .685-1.273.832-1.273.151 0-.16 1.273.289 1.273.405 0 .734-1.046.845-1.046.053 0 .154.14.225.332v.005c-.141.176-.229.344-.229.47 0 .16.124.24.249.24.187 0 .369-.2.369-.49 0-.06-.005-.233-.073-.406v-.002c.28-.259.641-.485.86-.522-.124.142-.351.267-.351.672 0 .435.334.77.761.77.6 0 .729-.64.729-.89a.889.889 0 0 0-.032-.246l-.001.001c.204-.096.358-.232.416-.232.124 0 .075.378.075.771 0 .292-.044.595.174.595.164 0 .244-.324.409-.614.16-.284.333-.67.4-.67.09 0 .054.595.054.71 0 .147-.027.61.275.61.205 0 .588-.575.588-.65 0-.04 0-.049-.032-.049-.031 0-.267.387-.36.387-.134 0-.049-.494-.049-.859 0-.16.022-.515-.245-.515-.338 0-.667.951-.769.951-.098 0 .142-.916-.28-.916-.172 0-.428.234-.707.354h.002a.53.53 0 0 0-.465-.305c-.129 0-.227.098-.227.2 0 .138.111.325.369.325.071 0 .14-.012.206-.03l.003.001a.77.77 0 0 1 .036.211c0 .236-.16.543-.467.543-.24 0-.454-.253-.454-.565 0-.507.307-.59.307-.694 0-.044-.035-.053-.102-.053-.343 0-.815.283-1.169.611h-.001a.516.516 0 0 0-.04-.064c-.342-.489-.209-.596-.298-.596-.111 0-.609 1.357-.805 1.357-.258 0 .213-1.308-.289-1.308-.396 0-.623 1.028-.774 1.028-.147 0 .146-1.028-.28-1.028-.307 0-.766 1.228-.966 1.228-.169 0 .156-1.21-.235-1.21-.374 0-.668.947-.761.947-.078 0-.061-.296-.058-.839l.001-.003c.307-.33.52-.78.52-1.208 0-.2-.098-.356-.285-.356-.364 0-.578.578-.578 1.215 0 .138.003.315.007.497l-.001.002c-.169.125-.329.19-.42.19l-.082.001c-.084-.275-.31-.397-.474-.397a.24.24 0 0 0-.231.222c0 .151.134.311.556.32l.001.001c.01.051.016.103.017.155 0 .236-.174.557-.481.557-.266 0-.466-.303-.466-.637 0-.427.284-.56.284-.59 0-.019-.004-.037-.013-.037-.283 0-.743.311-1.178.763a9.634 9.634 0 0 1-.108-1.332c0-.748.138-.845.138-.943C1.352.017 1.339 0 1.263 0 1.094 0 0 .493 0 1.588 0 2.43.463 2.803.761 3.03c-.32.476-.548.997-.548 1.453 0 .258.103.512.294.512.303 0 .881-.64.881-1.953a4.97 4.97 0 0 0-.051-.59V2.45c.259-.273.537-.499.78-.645z" fill="#cf4044" mask="url(#a)" transform="translate(4 16)"/></g></svg>