<svg width="36" height="36" fill="none" xmlns="http://www.w3.org/2000/svg"><path d="M18 0c2.837 0 5.52.656 7.907 1.825C31.884 4.753 36 10.895 36 18c0 9.942-8.058 18-18 18-9.94 0-18-8.057-18-18C0 8.06 8.06 0 18 0z" fill="#F2F4F7"/><path d="M17.735 20.144h.171l.885 1.22v-1.22h.152v1.482H18.8l-.912-1.26v1.26h-.152v-1.482zm1.587 0h.978v.148h-.822v.492h.803v.148h-.803v.55h.83v.144h-.986v-1.482zm1.774.152h-.558v-.148h1.271v.148h-.558v1.334h-.16v-1.334h.005zm.904-.152h.164l.39 1.225.397-1.225h.137l.397 1.225.394-1.225h.152l-.475 1.494h-.14l-.402-1.236-.398 1.235h-.136L22 20.145zm2.172.741c0-.526.269-.764.744-.764.476 0 .749.238.749.764 0 .53-.273.764-.749.764-.475.004-.744-.234-.744-.764zm1.333.004c0-.402-.187-.616-.589-.616-.401 0-.585.214-.585.616 0 .401.184.62.585.62.402-.004.589-.219.589-.62zm1.075.132h-.443v.605h-.157v-1.482h.64c.343 0 .499.137.499.433 0 .257-.12.405-.378.44l.358.609h-.167l-.351-.605zm.048-.144c.21 0 .339-.062.339-.296 0-.23-.125-.289-.347-.289h-.483v.59h.49v-.005zm1.282-.035-.296.324v.464h-.152v-1.482h.152v.819l.749-.819h.183l-.53.577.604.9h-.18l-.53-.783zm.838.636.082-.121c.18.113.351.148.53.148.309 0 .441-.086.441-.289 0-.21-.175-.241-.44-.288-.32-.055-.535-.11-.535-.41 0-.284.184-.397.535-.397.233 0 .397.05.514.132l-.085.13a.81.81 0 0 0-.433-.118c-.265 0-.378.074-.378.25 0 .187.155.222.417.273.323.058.557.105.557.424 0 .293-.187.437-.592.437a1.103 1.103 0 0 1-.613-.171zm2.757-7.458c-2.082 0-2.172.931-2.172 2.249v3.232h.492v-3.232c0-.994-.04-1.79 1.68-1.79.183 0 .347.008.495.028v-.468a6.405 6.405 0 0 0-.495-.02zm-24.3 3.38v-3.271h.503v3.282c0 .944-.008 1.74 1.719 1.74 1.72 0 1.68-.796 1.68-1.79v-3.232h.491v3.232c0 1.317-.09 2.25-2.171 2.25-2.094 0-2.222-.933-2.222-2.211zm9.618-1.17v3.271h-.503v-3.279c0-.943.011-1.739-1.72-1.739-1.719 0-1.68.796-1.68 1.79v3.232h-.491v-3.236c0-1.318.09-2.25 2.171-2.25 2.094 0 2.223.936 2.223 2.211zm.912-2.094h.48v5.365h-.48v-5.365zm1.38 0h2.51c1.248 0 1.81.62 1.81 1.72 0 1.107-.558 1.781-1.817 1.781h-2.023v1.864h-.48v-5.365zm2.519 3.022c.869 0 1.298-.421 1.298-1.279 0-.854-.464-1.26-1.322-1.26h-2.015v2.539h2.039zm2.362-.358c0-1.584.452-2.8 2.476-2.8 2.093 0 2.163 1.403 2.152 2.889H24.48c.011 1.306.335 2.28 2.035 2.28.904 0 1.317-.245 1.758-.569l.277.363c-.492.363-1.072.647-2.035.647-2.125 0-2.519-1.228-2.519-2.81zm.495-.363h3.657c-.05-1.073-.117-1.985-1.68-1.985-1.505 0-1.918.815-1.977 1.985zm-20.304 4.23c2.082 0 2.172-.932 2.172-2.25V14.13h-.492v4.288c0 .994.04 1.79-1.68 1.79-.066 0-.129 0-.187-.004v.464h.187zM30.9 19.528a.34.34 0 1 1 0-.679.34.34 0 0 1 0 .68zm0-.635a.296.296 0 1 0 0 .592.296.296 0 0 0 0-.592z" fill="#000"/><path d="M30.924 19.232h-.11v.148h-.05v-.39h.172c.097 0 .136.04.136.117 0 .063-.027.105-.093.117l.09.152h-.055l-.09-.144zm.012-.047c.054 0 .082-.015.082-.074 0-.055-.032-.07-.086-.07h-.121v.14h.125v.004z" fill="#000"/></svg>