<svg width="36" height="36" fill="none" xmlns="http://www.w3.org/2000/svg"><path d="M18 0c2.837 0 5.52.656 7.907 1.825C31.884 4.753 36 10.895 36 18c0 9.942-8.058 18-18 18-9.94 0-18-8.057-18-18C0 8.06 8.06 0 18 0z" fill="#F2F4F7"/><path d="m13.606 23.18-.048-.254h.036c.311 0 .523-.084.636-.253.097-.143.145-.59.145-1.34 0-1.02-.026-2.092-.076-3.214.148.013.317.02.506.02s.359-.007.506-.02a31.965 31.965 0 0 0-.053 2.774c.008.27.011.46.011.569 0 .341-.026.607-.079.801a1.17 1.17 0 0 1-.336.577c-.258.242-.604.361-1.037.361a1.47 1.47 0 0 1-.21-.021m2.531-1.156c.072-.248.138-.526.198-.83h.078c.112.492.404.737.875.737a.697.697 0 0 0 .49-.168.573.573 0 0 0 .181-.442c0-.16-.06-.3-.178-.416-.084-.076-.254-.183-.51-.32-.406-.222-.681-.407-.824-.556a1.066 1.066 0 0 1-.288-.766c0-.362.127-.659.382-.888.255-.23.6-.344 1.031-.344.365 0 .686.095.963.285-.084.239-.15.46-.198.666h-.066a.835.835 0 0 0-.307-.43.83.83 0 0 0-.498-.156.607.607 0 0 0-.426.148.492.492 0 0 0-.163.383c0 .152.057.284.168.393.084.08.245.182.486.308.17.087.341.175.512.261.169.087.29.168.362.245.212.221.317.494.317.815 0 .406-.136.733-.409.984-.273.25-.639.373-1.1.373-.473 0-.832-.093-1.076-.282m4.075.206a57.172 57.172 0 0 0-1.253-4.11 6.38 6.38 0 0 0 1.018-.001 43.53 43.53 0 0 0 .808 3.002 191.08 191.08 0 0 0 1.024-3.002 2.236 2.236 0 0 0 .608 0c.285.95.608 1.936.97 2.96.337-.958.63-1.944.88-2.96.08.013.172.02.276.02.1 0 .191-.007.272-.02a137.36 137.36 0 0 0-1.363 4.11 1.85 1.85 0 0 0-.312-.03 2.08 2.08 0 0 0-.314.03c-.276-.927-.6-1.9-.97-2.915-.357.92-.7 1.89-1.03 2.916a1.825 1.825 0 0 0-.307-.03c-.093 0-.194.01-.307.03zm5.582-.185c.066-.231.127-.489.183-.77h.072c.104.456.375.683.811.683a.64.64 0 0 0 .453-.156.528.528 0 0 0 .17-.41.517.517 0 0 0-.166-.385 2.713 2.713 0 0 0-.47-.297c-.378-.206-.634-.377-.767-.515a.991.991 0 0 1-.267-.71c0-.337.118-.612.355-.824.236-.213.555-.32.956-.32.339 0 .636.089.893.264a6.193 6.193 0 0 0-.184.619h-.061a.772.772 0 0 0-.284-.4.773.773 0 0 0-.463-.144.566.566 0 0 0-.395.137c-.1.091-.15.21-.15.355 0 .142.052.263.155.365.078.074.228.169.45.286.16.08.319.162.475.242.158.08.27.156.337.228.196.204.294.457.294.755 0 .377-.127.68-.38.912-.253.232-.592.346-1.02.346-.438 0-.77-.086-.997-.261zm3.726-1.305c.223.01.39.014.497.014.108 0 .274-.003.497-.011-.146-.443-.308-.87-.486-1.279-.182.394-.352.82-.508 1.276zm-1.056 1.495a50.688 50.688 0 0 0 1.558-3.893c.078.013.152.02.223.02a.906.906 0 0 0 .201-.02A67.09 67.09 0 0 0 32 22.235a4.293 4.293 0 0 0-.48-.023c-.175 0-.336.008-.481.023-.086-.269-.208-.644-.368-1.126a13.921 13.921 0 0 0-.654-.011c-.29 0-.507.004-.653.011-.175.516-.307.89-.396 1.126a1.563 1.563 0 0 0-.24-.016 2.31 2.31 0 0 0-.263.016z" fill="#211E1E"/><path fill-rule="evenodd" clip-rule="evenodd" d="M7.794 13.432c.098.53.675.906.809 1.465.075.309-.269.656-.43 1.015-.63 1.397-.561 2.832.283 4.434-2.114-2.157-1.85-4.842-.662-6.914z" fill="#F37319"/><path fill-rule="evenodd" clip-rule="evenodd" d="M10.845 14.871c-1.532 1.103-2.086 2.309-2.212 3.56-.275-1.8.475-3.8 2.952-5.431-.236.527.013 1.095-.2 1.512-.106.136-.372.238-.54.359z" fill="#F37319"/><path fill-rule="evenodd" clip-rule="evenodd" d="M9.645 17.421c.258-1.31 2.812-2.909 4.177-2.87a2.233 2.233 0 0 0-.381.452c-.12.194-.13.385-.339.51-.294.176-.66.1-1.147.25-.898.28-1.707.874-2.31 1.658" fill="#F37319"/><path fill-rule="evenodd" clip-rule="evenodd" d="M13.598 16.884c-.553-.446-1.251-.603-2.085-.532 1.37-.479 2.656-.141 3.435.723-.62-.11-.669.175-1.014.106-.121-.055-.197-.2-.336-.297zM4 17.688c.7.456 1.302.5 1.86.6.295.052.49.103.613.282.203.274.356.716.637 1.284.913 1.808 3.073 3.265 4.773 3.328-3.002.44-6.922-1.644-7.883-5.494" fill="#F37319"/></svg>