<svg width="36" height="36" fill="none" xmlns="http://www.w3.org/2000/svg"><path d="M18 0c2.837 0 5.52.656 7.907 1.825C31.884 4.753 36 10.895 36 18c0 9.942-8.058 18-18 18-9.94 0-18-8.057-18-18C0 8.06 8.06 0 18 0z" fill="#F2F4F7"/><path d="M6.696 19.101c-.04.129-.069.277-.069.376 0 .385.296.632.919.632.82 0 1.135-.297 1.313-.929l.534-1.827h-.76l-.534 1.807c-.06.198-.178.287-.415.287-.217 0-.296-.109-.247-.296l.533-1.808h-.76l-.514 1.758zm10.262.969h1.798l.187-.643h-1.037l.119-.415h.918l.178-.622h-.909l.129-.425h1.037l.177-.612h-1.797l-.8 2.716zm11.772-2.756c-.74 0-1.293.088-1.658 1.461-.06.237-.1.445-.1.622 0 .435.238.712.988.712a2 2 0 0 0 .603-.09l.188-.631s-.198.049-.514.049c-.346 0-.434-.109-.434-.287 0-.108.03-.227.069-.365.187-.73.395-.81.77-.81.316 0 .494.05.494.05l.197-.652a4.79 4.79 0 0 0-.602-.06zM4.128 20.05c.11.029.376.059.593.059.968 0 1.363-.267 1.58-1.008l.524-1.748h-.76l-.455 1.56c-.03.05-.06.149-.099.228-.128.227-.375.286-.662.286-.286 0-.533-.04-.533-.04l-.188.662zm18.924.02h.75l.267-.91h.208l.227.91h.82l-.307-1.038c.227-.069.494-.148.672-.75.05-.159.07-.326.07-.415 0-.326-.198-.524-.682-.524h-1.225l-.8 2.726zm1.185-1.482.178-.613h.346c.128 0 .197.07.197.178 0 .257-.128.435-.385.435h-.336zm-9.985-.089h-1.018l-.148.503h.326l-.128.435s-.109.02-.237.02c-.277 0-.316-.119-.316-.297 0-.108.03-.237.06-.375.187-.73.404-.82.78-.82.394 0 .7.08.7.08l.198-.633c-.108-.04-.454-.098-.8-.098-.74 0-1.294.078-1.66 1.451a2.55 2.55 0 0 0-.088.623c0 .434.257.72.998.72.355 0 .73-.059.908-.118l.425-1.491zm5.708-1.146h.761l-.8 2.716h-.76l.8-2.716zm-10.123 0h.642l.395 1.452h.01s.06-.237.118-.435l.297-1.007h.75l-.8 2.716h-.642l-.404-1.432h-.01s-.06.217-.119.444l-.296.988h-.75l.809-2.726zm11.338 0h.642l.395 1.452h.01s.06-.237.119-.435l.296-1.007h.75l-.8 2.716h-.641l-.405-1.432h-.01s-.06.217-.119.444l-.296.988h-.75l.81-2.726zm5.175 0h.761l-.8 2.716h-.77l.81-2.716zm-11.328 0h.76l-.315 1.057h.74l.316-1.057h.76l-.8 2.716h-.76l.307-1.037h-.751l-.306 1.037h-.76l.81-2.716zm14.706 0h.76l-.315 1.057h.75l.317-1.057H32l-.81 2.716h-.76l.306-1.037h-.74l-.307 1.037h-.77l.81-2.716z" fill="#000"/><path d="M6.923 17.116 5.768 16 4 17.116h.998l-.603 2.025s.198.03.474.03c.217 0 .346-.07.405-.168.03-.06.04-.08.07-.178l.513-1.719h1.066v.01z" fill="#E30613"/></svg>