<svg width="36" height="36" fill="none" xmlns="http://www.w3.org/2000/svg"><path d="M18 0c2.837 0 5.52.656 7.907 1.825C31.884 4.753 36 10.895 36 18c0 9.942-8.058 18-18 18-9.94 0-18-8.057-18-18C0 8.06 8.06 0 18 0z" fill="#F2F4F7"/><path fill-rule="evenodd" clip-rule="evenodd" d="M8.486 21.188c0 .041-.033.083-.074.083H6.798c-.041 0-.09-.009-.115-.058l-.848-1.62h-.304v1.552c0 .076-.057.126-.14.126h-1.25c-.083 0-.141-.05-.141-.126v-5.728c0-.134.041-.217.173-.242L5.31 15h.05c.098 0 .172.041.172.167v3.406h.304l.939-1.603c.033-.066.074-.074.116-.074h.042l1.438.025c.059 0 .075.05.075.082 0 .017-.008.026-.008.034l-1.312 1.958 1.353 2.141a.065.065 0 0 1 .008.033v.019zm3.716.049a5.76 5.76 0 0 1-1.226.107c-1.062 0-2.067-.165-2.067-1.433 0-1.029.716-1.21 1.219-1.284l1.382-.16v-.202c0-.198-.033-.313-.155-.378-.1-.058-.29-.083-.52-.083-.493 0-1.152.181-1.317.23-.024.009-.04.009-.065.009-.05 0-.083-.025-.09-.074l-.15-.659c-.007-.016-.007-.033-.007-.049 0-.082.049-.115.107-.14a6.032 6.032 0 0 1 1.885-.313c.568 0 .987.082 1.276.247.403.222.568.585.568 1.07v2.24c0 .65-.288.74-.84.872zm-.692-1.991-.664.108c-.274.041-.489.108-.489.548 0 .456.357.53.606.53.274 0 .547-.066.547-.066v-1.12zm5.028-1.34c-.457 0-.871.058-.871.058v3.182c0 .075-.059.125-.141.125h-1.322c-.084 0-.142-.05-.142-.125v-3.7c0-.3.292-.382.817-.482a7.908 7.908 0 0 1 1.483-.141h.15c.126 0 .175.05.175.19v.693c0 .1 0 .2-.174.2h.025zm10.14 1.413c0 .133-.034.275-.242.275H23.91c0 .292.117.575.4.674.176.067.425.1.75.1.5 0 .975-.158 1.109-.19h.025c.058 0 .125.057.15.149l.125.533c0 .025.008.042.008.059 0 .083-.05.141-.108.158-.233.1-.809.291-1.592.291-1.625 0-2.417-.533-2.417-2.258 0-1.733.576-2.334 2.176-2.334.8 0 1.333.16 1.658.492.358.367.483.85.483 1.65v.401zm-1.527-.733c0-.149-.017-.202-.034-.318-.067-.382-.244-.506-.584-.506-.448 0-.588.166-.63.456-.025.166-.025.277-.025.5h1.264c.009-.04.009-.09.009-.132zM32 21.154c0 .05-.033.117-.083.117h-1.408c-.059 0-.109-.042-.134-.092l-.925-1.392-.8 1.384c-.033.058-.075.1-.142.1h-1.416c-.042 0-.075-.067-.075-.117 0-.017 0-.033.008-.042l1.458-2.033-1.283-1.975a.16.16 0 0 1-.017-.058c0-.075.076-.15.109-.15H28.6c.084 0 .133.008.192.108l.792 1.317.65-1.308c.05-.109.108-.117.2-.117h1.283c.033 0 .108.075.108.15 0 .017 0 .041-.016.058l-1.267 1.975 1.45 2.033c.008.009.008.025.008.042zm-12.104-.814s-.216.05-.407.05c-.556 0-.705-.124-.705-1.336 0-1.162.133-1.203.639-1.203.174 0 .473.041.473.041v2.448zm1.368-5.236c-.016 0-.032.009-.049.009l-1.148.17c-.139.025-.171.098-.171.237v1.46a3.825 3.825 0 0 0-.945-.124c-1.401 0-1.702.96-1.702 2.297 0 1.776.643 2.19 2.248 2.19.448 0 1.026-.056 1.466-.195.432-.138.464-.44.464-.643v-5.237c0-.115-.073-.164-.163-.164z" fill="#507295"/></svg>