<svg height="36" viewBox="0 0 36 36" width="36" xmlns="http://www.w3.org/2000/svg"><mask id="a" fill="#fff"><path d="M0 0h8.632v8.632H0z" fill-rule="evenodd"/></mask><mask id="b" fill="#fff"><path d="M0 0h24.998v3.937H0z" fill-rule="evenodd"/></mask><mask id="c" fill="#fff"><path d="M0 0h8.296v6.186H0z" fill-rule="evenodd"/></mask><g fill="none" fill-rule="evenodd"><path d="M18 0c2.837 0 5.52.656 7.907 1.825C31.884 4.753 36 10.895 36 18c0 9.942-8.058 18-18 18-9.94 0-18-8.057-18-18C0 8.06 8.06 0 18 0z" fill="#f2f4f7" fill-rule="nonzero"/><path d="M4.316 8.632a4.316 4.316 0 1 0 0-8.633 4.316 4.316 0 0 0 0 8.633" fill="#00acef" mask="url(#a)" transform="translate(14.327 8)"/><path d="M15.827.236a5.668 5.668 0 0 1-4.133 1.783A5.728 5.728 0 0 1 8.217.835C3.504 1.328 0 2.029 0 2.029v1.908l24.998-.001V0s-4.282-.026-9.171.235" fill="#00acef" mask="url(#b)" transform="translate(6 15.573)"/><g fill="#0b325e"><path d="M2.97 3.86v2.326H0V0h2.97v2.784h.017L4.735 0h3.56L5.689 3.197l2.46 2.989H4.751L2.99 3.86z" mask="url(#c)" transform="translate(6 21.23)"/><path d="M31 27.16c-.7.213-1.621.34-2.446.34-2.937 0-5.095-.836-5.095-3.264 0-2.196 2.09-3.15 4.949-3.15.794 0 1.804.09 2.592.34v2.127c-.586-.356-1.17-.575-2.008-.575-1.09 0-2.18.536-2.18 1.316s1.084 1.316 2.18 1.316c.824 0 1.422-.229 2.007-.566zm-16.218-5.931h6.003c1.56 0 2.07.607 2.07 1.55 0 1.058-.944 1.517-1.914 1.569v.018c.997.077 1.967.19 1.967 1.437 0 .814-.511 1.612-2.226 1.612h-5.9zm2.97 4.929H19.3c.58 0 .779-.241.779-.596s-.2-.61-.772-.61h-1.555zm0-2.307h1.48c.571 0 .795-.23.795-.587 0-.407-.226-.61-.754-.61h-1.521z"/></g></g></svg>