<svg width="36" height="36" fill="none" xmlns="http://www.w3.org/2000/svg"><path d="M18 0c2.837 0 5.52.656 7.907 1.825C31.884 4.753 36 10.895 36 18c0 9.942-8.058 18-18 18-9.94 0-18-8.057-18-18C0 8.06 8.06 0 18 0z" fill="#F2F4F7"/><path fill-rule="evenodd" clip-rule="evenodd" d="M7.102 14.79a5.436 5.436 0 0 1 1.734-2.54c.106-.252.215-.505.181-.524a.01.01 0 0 0-.007-.001c-.062.013-.308.398-.486.646.06-.262.133-.558.097-.57h-.004c-.044.004-.186.336-.303.587-.002-.31.044-.892-.012-.9-.052-.007-.153.499-.234.807-.04-.271-.079-.593-.119-.591-.04.002-.054.354-.072.634-.114-.294-.273-.825-.327-.812-.053.013.042.547.075.862-.134-.236-.29-.532-.333-.532h-.003c-.037.017.07.334.154.597-.208-.232-.522-.633-.577-.622a.01.01 0 0 0-.003.001c-.046.032.248.514.388.794a3.018 3.018 0 0 0-.518-.391c-.002 0-.004 0-.006.002-.028.028.178.276.35.49-.265-.137-.657-.367-.733-.363a.014.014 0 0 0-.011.004c-.032.047.426.398.656.607a4.048 4.048 0 0 0-.634-.185c-.008 0-.013.003-.015.007-.016.036.261.19.496.326-.258-.028-.622-.085-.755-.078-.03.001-.048.006-.05.015-.012.055.542.217.831.329l-.375.02c-.169.01-.304.023-.305.05-.002.04.316.083.586.125-.308.083-.775.181-.768.232.008.055.573.007.884.005-.26.12-.626.27-.613.313.013.038.336-.04.606-.1-.258.189-.66.452-.635.497.026.048.515-.19.807-.308-.199.206-.48.472-.452.506.028.034.315-.17.55-.324-.172.27-.462.672-.422.706.028.023.199-.144.377-.321" fill="#FFCF00"/><path d="M15.077 14.76h-1.33v1.387h1.33V14.76z" fill="#0D672F"/><path d="M15.065 12.366h-1.057v1.056h1.057v-1.056z" fill="#1A1818"/><path d="M16.343 12.807h-.552v.551h.552v-.551z" fill="#8DBADC"/><path d="M17.114 12.956h-.344v.344h.344v-.344z" fill="#1A1818"/><path d="M17.416 13.616h-.725v.724h.725v-.724z" fill="#071F46"/><path d="M17.228 14.66h-1.205v1.206h1.205v-1.205z" fill="#8DBADC"/><path d="M15.973 13.73h-.521v.522h.521v-.522zm2.096.757h-.406v.406h.405v-.406z" fill="#0D672F"/><path d="M15.872 12.07h-.388v.39h.388v-.39z" fill="#071F46"/><path d="M15.012 13.896h-.521v.521h.521v-.521z" fill="#8DBADC"/><g fill="#003E6A"><path d="M11.021 14.311a12.18 12.18 0 0 0 3.325.03 11.222 11.222 0 0 1-3.234-.31 2.027 2.027 0 0 0-.09.28zm3.793 5.272c-.508.054-1.02.071-1.531.053-2.214 0-4.189-.669-5.084-1.596a5.58 5.58 0 0 1 .465-4.164 4.183 4.183 0 0 1-.698-.462 5.395 5.395 0 0 0-.775 4.706c.867.962 2.921 1.69 5.187 1.69a10.36 10.36 0 0 0 2.436-.227z"/><path d="M8.167 13.168a5.441 5.441 0 0 0 2.127.997 4.659 4.659 0 0 0-.259.885c-.261 1.407-.186 2.839.235 3.692a9.279 9.279 0 0 1 .071-3.31c.357-1.862 1.405-3.095 2.355-3.696-.737.153-1.686.945-2.251 2.09a4.672 4.672 0 0 1-1.308-.684c.827-1.073 2.178-1.97 3.659-2.14a5.769 5.769 0 0 0-4.63 2.167zm.679 6.334a4.185 4.185 0 0 1-1.426-.751c.957 2.085 3.049 3.365 5.127 3.371.172 0 .442.01.607-.004a5.647 5.647 0 0 1-4.308-2.616zm8.752-.716s-.702 2.047-2.812 2.978c0 0 2.576-.81 3.443-3.552a5.737 5.737 0 0 1-.631.574z"/></g><path d="m23.225 20.27-.006-.004c.308-.371.476-.84.472-1.322v-.023c0-1.044-.75-2.097-2.424-2.097H16.79l-2.528 2.803v-2.803h-1.575v7.44h1.575v-2.982l2.882 2.982h4.243a3.18 3.18 0 0 0 1.721-.42 2.095 2.095 0 0 0 .992-1.818v-.025a2.07 2.07 0 0 0-.874-1.73zm-7.78.072 3.11-3.44v6.676l-3.11-3.236zm7.05 1.684c0 .67-.553.952-1.427.952h-.948V18.11h.912c.732 0 1.138.293 1.138.812v.023c0 .585-.485.834-1.251.834h-.398v1.297h.675c.835 0 1.298.334 1.298.925l.001.025z" fill="#003E6A"/><path d="m29.957 24.263-1.847-3.479a1.995 1.995 0 0 0 1.154-1.84v-.023c0-1.044-.75-2.097-2.424-2.097h-2.752v7.439h1.57v-6.154h.946c.732 0 1.138.293 1.138.813v.022c0 .586-.485.834-1.251.834h-.432v1.297h.557l1.71 3.189 1.63-.001zm-.902-7.142a.472.472 0 1 1 .945-.002.472.472 0 0 1-.945.002zm.884 0a.41.41 0 1 0-.822-.002.41.41 0 0 0 .822.002zm-.612-.292h.226a.17.17 0 0 1 .19.174.16.16 0 0 1-.114.163l.17.239h-.13l-.157-.229h-.071v.229h-.114v-.576zm.208.264a.09.09 0 0 0 .093-.09.09.09 0 0 0-.058-.084.09.09 0 0 0-.035-.006h-.094v.18h.094z" fill="#003E6A"/></svg>