<svg width="36" height="36" fill="none" xmlns="http://www.w3.org/2000/svg"><path d="M18 0c2.837 0 5.52.656 7.907 1.825C31.884 4.753 36 10.895 36 18c0 9.942-8.058 18-18 18-9.94 0-18-8.057-18-18C0 8.06 8.06 0 18 0z" fill="#F2F4F7"/><g fill="#F71C1C"><path d="M31.667 16.68a.328.328 0 0 1-.335-.34.33.33 0 0 1 .335-.34.33.33 0 0 1 .333.34.33.33 0 0 1-.333.34zm0-.62c-.148 0-.262.115-.262.28 0 .155.1.281.262.281.145 0 .26-.114.26-.28 0-.166-.114-.282-.26-.282zm-.068.475h-.061v-.377h.142c.091 0 .138.032.138.109 0 .068-.042.096-.099.102l.106.166h-.07l-.097-.161h-.059v.161zm.07-.214c.046 0 .087-.004.087-.059 0-.046-.044-.051-.082-.051H31.6v.11h.07zm-19.81-.163v2.215l-1.655-2.215h-.599v3.03h.566v-2.25l1.684 2.25h.57v-3.03h-.566zm.898 0v3.03H14.8v-.493h-1.477v-.79h1.42v-.493h-1.42v-.76H14.8v-.494h-2.043zm9.545 0h-.494l-1.346 3.03h.6l.385-.874h1.21l.385.875h.605l-1.345-3.031zm-.245.66.403 1.038h-.81l.407-1.038z"/><path d="M25.871 16.158v2.214l-1.655-2.214h-.598v3.03h.565v-2.25l1.684 2.25h.57v-3.03h-.566zm.892 0v3.03h2.043v-.493H27.33v-.79h1.421v-.493h-1.42v-.76h1.476v-.494h-2.043zm3.515 1.199-.14-.04-.038-.01c-.168-.048-.45-.129-.45-.373 0-.158.166-.378.48-.378.233 0 .505.106.505.402v.03h.615v-.03c0-.507-.461-.861-1.12-.861-.756 0-1.095.492-1.095.841 0 .238.1.457.269.586.184.14.32.19.817.34l.069.02c.245.073.522.156.522.44 0 .285-.234.475-.582.475-.582 0-.589-.49-.589-.51v-.03h-.614v.03c0 .666.623.97 1.203.97.704 0 1.197-.384 1.197-.934 0-.675-.582-.837-1.05-.968zM7.807 16.096a1.581 1.581 0 1 0 0 3.163 1.581 1.581 0 0 0 0-3.163zm0 2.631c-.564 0-1.02-.47-1.02-1.05 0-.579.456-1.049 1.02-1.049.563 0 1.02.47 1.02 1.05 0 .58-.457 1.05-1.02 1.05zm9.753-1.035c-.007.573-.46 1.035-1.02 1.035-.563 0-1.02-.47-1.02-1.05 0-.579.457-1.048 1.02-1.049v-.532a1.582 1.582 0 1 0 1.582 1.596h-.562zm3.052 1.409h.065l-.042-.049-.863-.983c.277-.038.893-.204.893-.93a.941.941 0 0 0-.33-.725c-.22-.18-.503-.256-.944-.256h-1.105v3.031h.567v-1.425l1.185 1.425h.64L20.6 19.1h.012zm-1.76-2.487h.506c.547 0 .741.283.741.525 0 .362-.294.552-.733.553h-.513v-1.078zm-14.29-.456H4v3.03h.562v-3.03z"/><path d="M5.94 16.157 4.525 17.66l1.413 1.53h.743L5.27 17.66l1.41-1.502h-.738z"/></g></svg>