<svg width="36" height="36" fill="none" xmlns="http://www.w3.org/2000/svg"><path d="M18 0c2.837 0 5.52.656 7.907 1.825C31.884 4.753 36 10.895 36 18c0 9.942-8.058 18-18 18-9.94 0-18-8.057-18-18C0 8.06 8.06 0 18 0z" fill="#F2F4F7"/><path d="M30.722 14v6.68h-.784V14h.784zm-15.843 2.124a1.242 1.242 0 0 0-1.314 1.112h-.038v-1.01h-.784v4.454h.783v-2.773c0-.75.4-1.094 1.069-1.094.766 0 1.11.38 1.11 1.134v2.733h.783v-2.836c-.001-1.063-.603-1.72-1.61-1.72zm-4.795 4.437h-.025l-1.36-4.334h-.812l1.44 4.453h.72l-.735 2.227h.783l2.156-6.68h-.811l-1.356 4.334zm17.196 0h-.025l-1.36-4.334h-.813l1.44 4.453h.72l-.734 2.227h.782l2.156-6.68h-.812L27.28 20.56zM5.631 18.454l1.934-2.227h-.953l-1.804 2.15h-.024V14H4v6.68h.784v-2.185h.744l1.506 2.185h.907l-1.558-2.226H5.63zm17.597-1.218h-.038v-1.01h-.784v4.454h.784V17.9c0-.75.425-1.025 1.154-1.025a2.11 2.11 0 0 1 .486.053v-.758a1.145 1.145 0 0 0-.372-.047 1.202 1.202 0 0 0-1.23 1.114zM20.616 14h.783v6.68h-.783v-1.008h-.038c-.075.621-.552 1.112-1.456 1.112-1.102 0-1.885-.875-1.885-2.33 0-1.456.783-2.33 1.886-2.33.903 0 1.38.49 1.455 1.112h.038V14zm0 3.865c0-.75-.566-1.052-1.268-1.052-.74 0-1.294.46-1.294 1.64s.554 1.641 1.294 1.641c.702 0 1.268-.302 1.268-1.052v-1.177zm10.456 2.345v.053h.142v.417h.067v-.417h.143v-.053h-.352zm.784 0-.117.464h-.001l-.112-.464h-.129l-.013.47h.063l.014-.464h.001l.116.464h.117l.123-.464h.001l.014.464H32l-.015-.47h-.129z" fill="#FF462D"/></svg>