<svg width="36" height="36" fill="none" xmlns="http://www.w3.org/2000/svg"><path d="M18 0c2.837 0 5.52.656 7.907 1.825C31.884 4.753 36 10.895 36 18c0 9.942-8.058 18-18 18-9.94 0-18-8.057-18-18C0 8.06 8.06 0 18 0z" fill="#F2F4F7"/><path d="M16.912 17.757c-.019-.202-.146-.318-.346-.318-.225 0-.36.191-.36.567 0 .274.06.53.384.53.206 0 .303-.142.327-.33h.615c-.057.504-.417.807-.931.807-.644 0-1.033-.395-1.033-1.028 0-.63.427-1.023.97-1.023.596 0 .929.295.98.795m.108.513c0 .483.352.732.807.732.454 0 .806-.243.806-.763 0-.44-.309-.736-.809-.736-.479 0-.804.273-.804.766zm.812-.388c.146-.008.238.149.238.357 0 .268-.092.384-.243.384-.144 0-.244-.116-.244-.384 0-.16.057-.357.249-.357zm.958-.338h.51v.287h.006c.079-.223.217-.328.436-.328.024 0 .048.006.073.008v.563c-.038-.006-.079-.016-.117-.016-.23 0-.346.108-.346.414v.49h-.562m1.098-1.419v1.9h.563v-.623a.437.437 0 0 0 .362.181c.317 0 .663-.202.663-.76 0-.39-.205-.738-.633-.738-.163 0-.365.078-.444.251H21v-.21h-.505zm.782 1.028c-.146 0-.23-.135-.23-.332 0-.19.092-.32.227-.32.149 0 .247.105.247.33 0 .196-.095.322-.244.322zm.917-.301c0 .483.352.732.806.732.455 0 .807-.243.807-.763 0-.44-.309-.736-.81-.736-.478 0-.803.273-.803.766zm.811-.388c.147-.008.239.149.239.357 0 .268-.092.384-.244.384-.143 0-.243-.116-.243-.384 0-.16.057-.357.248-.357zm.958-.338h.512v.287h.005c.078-.223.217-.328.436-.328.024 0 .049.006.073.008v.563c-.038-.006-.08-.016-.117-.016-.23 0-.346.108-.346.414v.49h-.563m2.695-.001v-.027c-.073-.06-.076-.1-.076-.181v-.663c0-.338-.04-.587-.711-.587-.56 0-.774.176-.774.476h.541c.013-.122.119-.138.197-.138.06 0 .184.013.184.117 0 .264-1.009-.027-1.009.616 0 .295.239.427.507.427.21 0 .373-.043.532-.191l.027.151h.582zm-.887-.279c-.111 0-.179-.049-.179-.118 0-.185.243-.141.427-.23.014.194-.05.348-.248.348zm1.96.279c-.738.04-.827-.01-.827-.5v-.593h-.2v-.324h.208v-.442h.555v.442h.27v.324h-.27v.514c0 .13.019.176.175.176h.09m.222-1.596h.562v.4h-.562v-.4zm.562 2h-.562v-1.418h.562v1.417zm.185-.692c0 .483.35.732.806.732.454 0 .806-.243.806-.763 0-.44-.309-.736-.809-.736-.479 0-.804.273-.804.766zm.811-.388c.146-.008.238.149.238.357 0 .268-.092.384-.243.384-.144 0-.244-.116-.244-.384 0-.16.057-.357.25-.357zm.947-.338h.514v.222c.127-.171.265-.263.479-.263.373 0 .549.22.549.608v.85h-.562v-.749c0-.141-.038-.265-.199-.265-.172 0-.219.11-.219.292v.722h-.562" fill="#E51D37"/><path d="M4 19.69h11.085v-3.006H4v3.007z" fill="#767575"/><path d="M8.24 18.395c.009-.52-.311-.886-.842-.886-.459 0-.811.301-.811.771 0 .482.355.744.814.744.334 0 .695-.117.793-.473H7.65a.227.227 0 0 1-.213.126.276.276 0 0 1-.282-.282H8.24zm-1.085-.29c0-.153.096-.248.265-.248.134 0 .252.117.252.248m.746-.554v1.92h.569v-.63a.44.44 0 0 0 .366.183c.32 0 .67-.205.67-.768 0-.394-.207-.746-.64-.746-.164 0-.369.079-.448.254H8.93v-.213h-.512zm.79 1.039c-.147 0-.232-.137-.232-.337 0-.191.093-.322.23-.322.15 0 .249.106.249.333 0 .197-.096.326-.246.326zm1.007-1.039v1.92h.569v-.63a.44.44 0 0 0 .366.183c.32 0 .67-.205.67-.768 0-.394-.208-.746-.64-.746-.164 0-.37.079-.448.254h-.006v-.213h-.511zm.79 1.039c-.148 0-.233-.137-.233-.337 0-.191.094-.322.23-.322.15 0 .25.106.25.333 0 .197-.097.326-.247.326zm2.625-.195c.008-.52-.312-.886-.843-.886-.459 0-.812.301-.812.771 0 .482.356.744.815.744.333 0 .695-.117.793-.473h-.544a.227.227 0 0 1-.213.126.277.277 0 0 1-.282-.282h1.085zm-1.086-.29c0-.153.096-.248.265-.248.134 0 .252.117.252.248m.769.878h.568v-1.969h-.569v1.969z" fill="#fff"/><path d="m6.552 17.028.79-1.027h.609l-.773 1.027" fill="#E51D37"/><path d="m5.252 17.913.674-.88h.623l-.665.89.643 1.055h-.63m-1.199 0h.546v-1.942h-.546v1.942z" fill="#fff"/><path d="M6.818 16.682 7.342 16h.608l-.508.682" fill="#E51D37"/></svg>