<svg height="36" viewBox="0 0 36 36" width="36" xmlns="http://www.w3.org/2000/svg"><mask id="a" fill="#fff"><path d="M0 0h19.7v22H0z" fill-rule="evenodd"/></mask><g fill="none" fill-rule="evenodd"><path d="M18 0c2.837 0 5.52.656 7.907 1.825C31.884 4.753 36 10.895 36 18c0 9.942-8.058 18-18 18-9.94 0-18-8.057-18-18C0 8.06 8.06 0 18 0z" fill="#f2f4f7" fill-rule="nonzero"/><path d="M16.096 17.4c.373 0 .59-.371.311-.776l-4.506-5.935 4.413-5.314c.31-.403.062-.776-.31-.776h-3.481c-.435 0-.684.186-.9.496L7.52 10.38V5.127a.506.506 0 0 0-.528-.528h-3.17a.505.505 0 0 0-.528.528v11.745c0 .311.217.529.528.529h3.17c.31 0 .528-.218.528-.529v-5.78l4.102 5.812c.217.31.466.497.9.497zM0 21.473c0 .31.218.528.528.528h18.644a.506.506 0 0 0 .529-.528v-1.46a.506.506 0 0 0-.529-.53H.528a.506.506 0 0 0-.528.53zM0 1.988c0 .311.218.529.528.529h18.644a.506.506 0 0 0 .529-.529V.528A.506.506 0 0 0 19.172 0H.528A.506.506 0 0 0 0 .528z" fill="#ed6b00" mask="url(#a)" transform="translate(8 7)"/></g></svg>