<svg height="36" viewBox="0 0 36 36" width="36" xmlns="http://www.w3.org/2000/svg"><mask id="a" fill="#fff"><path d="M0 0h4.856v6.095H0z" fill-rule="evenodd"/></mask><g fill="none" fill-rule="evenodd"><path d="M18 0c2.837 0 5.52.656 7.907 1.825C31.884 4.753 36 10.895 36 18c0 9.942-8.058 18-18 18-9.94 0-18-8.057-18-18C0 8.06 8.06 0 18 0z" fill="#f2f4f7" fill-rule="nonzero"/><g fill="#000"><path d="M4.51 19.639c-.183 0-.401.033-.451.033-.067 0-.034-.05-.034-.05-.033.017.268-.084.285-.217v-2.563c-.017-.134-.335-.234-.301-.218 0 0-.034-.049.033-.049.05 0 .285.033.469.033s.452-.033.502-.033.017.049.017.049c.05-.016-.268.084-.268.218v2.563c0 .133.318.234.268.217 0 0 .033.05-.017.05s-.318-.033-.502-.033"/><path d="M24.906 19.639c-.184 0-.435.017-.502.017-.05 0-.017-.034-.017-.034-.05.017.285-.084.285-.217v-2.546c0-.151-.318-.268-.268-.234 0 0-.034-.05.017-.05.05 0 .3.033.485.033s.452-.033.502-.033c.05 0 .017.05.017.05.05-.017-.301.1-.301.218v2.562c0 .133.334.234.284.217 0 0 .034.034-.017.034-.05 0-.3-.017-.485-.017zm-1.741 0c-.184 0-.402.017-.452.017-.067 0-.017-.034-.017-.034-.05.017.25-.084.25-.217v-2.579c0-.118-.317-.235-.267-.218 0 0-.033-.051.017-.051.067 0 .284.034.469.034.184 0 .435-.034.502-.034.05 0 .017.051.017.051.05-.017-.268.084-.285.218v2.579c0 .117.319.234.268.217 0 0 .034.034-.016.034-.051 0-.302-.017-.486-.017zm-7.904-3.064v.585s0 .017-.033.034c-.034 0-.067-.05-.084-.067 0-.033-.134-.301-.285-.352-.184-.083-.251-.117-.536-.117-.251 0-1.038.301-1.038 1.407 0 1.122.637 1.473 1.072 1.473.436 0 .552-.168.552-.168v-.987s-.05-.168-.284-.168c0 0-.235-.016-.235-.05 0-.016-.016-.034.034-.034s.184.034.586.034c.25 0 .519-.016.536-.016s.033.016.017.033c-.017.017-.184.05-.184.201v1.088s-.151.269-1.038.269c-.888 0-1.625-.403-1.625-1.642 0-1.256.904-1.624 1.624-1.624.72 0 .92.101.92.101zm-5.46.016c-.05 0 0 .017-.2.017-.184 0-.418-.033-.468-.033-.051 0-.017.049-.017.049-.05-.033.25.068.25.185v2.578c0 .101-.317.252-.267.218 0 0-.033.051.017.051s.3-.017.486-.017c.184 0 .385.017.452.017.05 0 .017-.051.017-.051.05.016-.285-.101-.352-.235v-2.092s1.858 2.26 1.942 2.344c.034.05.084.1.134.1s.067-.083.067-.083v-2.78c.034-.134.352-.268.302-.251 0 0 .033-.05-.017-.05s-.302.033-.486.033-.418-.033-.485-.033c-.051 0-.017.05-.017.05-.034-.033.318.1.35.234v1.725zM7.81 19.639c-.184 0-.42.017-.486.017-.05 0-.017-.034-.017-.034-.05.017.268-.084.268-.217v-2.563c0-.134-.318-.234-.268-.218 0 0-.033-.049.017-.049.067 0 .3.033.486.033.184 0 .402-.033.469-.033.05 0 .016.049.016.049.05-.016-.234.084-.251.218v2.563c.017.133.319.234.268.217 0 0 .033.05-.017.05s-.301-.033-.485-.033zm-3.048-1.608 1.072 1.323c.05.051.117.117.117.184 0 .05-.15.067-.15.067s-.034.051.016.051.318-.034.503-.034c.184 0 .435.034.485.034s.017-.051.017-.051-.184-.017-.285-.151c-.1-.133-1.306-1.54-1.306-1.54l.837-1.022c.234-.184.519-.267.519-.267s.034-.05-.016-.05c-.051 0-.302.016-.486.016s-.402-.016-.47-.016c-.05 0-.016.05-.016.05s.15.016.15.1c0 .101-.032.151-.066.185l-.921 1.104z"/><path d="M26.63 18.014V16.86c0-.135-.368-.252-.318-.235 0 0-.034-.067.017-.067h2.076c.05 0 .067.067.067.067l.017.435s-.034.051-.05.018c-.017-.05-.034-.218-.235-.235-.218-.017-1.122-.034-1.122-.034v2.646s.904-.033 1.122-.05c.201 0 .251-.302.268-.335.017-.05.05 0 .05 0l-.05.535s-.017.068-.067.068h-2.043c-.066 0-.033-.068-.033-.068-.033.018.301-.099.301-.216zm-3.349.134h1.591v-.318h-1.59z"/><path d="M19.966 19.572c.034.033.452.2.954.2.318 0 1.09-.1 1.09-.887 0-.82-.604-.987-.805-1.088-.2-.083-.603-.117-.737-.418a.557.557 0 0 1 .57-.703c.552 0 .636.4.67.4.033 0 .05-.032.05-.032v-.47s-.234-.116-.687-.116c-.469 0-1.004.167-1.004.904.016.653.887.954.887.954s.62.218.62.67c0 .436-.318.62-.653.62-.369 0-.804-.252-.938-.653 0 0-.017-.033-.067-.033-.033 0-.033.033-.033.066 0 .017.083.586.083.586zm9.946-1.557s1.04.167 1.04-.636c0-.771-1.04-.57-1.04-.57zm-.385-1.44.988-.017c.988.017.905.737.905.737 0 .636-.52.87-.52.87s.653 1.156.737 1.29c.1.134.351.168.351.168s.034.033-.016.033h-.754l-.736-1.39-.586.017v1.122c.016.134.318.234.267.218 0 0 .034.033-.016.033s-.302-.017-.486-.017c-.167 0-.418.017-.468.017-.05 0-.018-.033-.018-.033-.049.016.285-.084.285-.218v-2.562c0-.134-.167-.235-.217-.235 0 0-.034-.033-.034-.05s.318.017.318.017zm-1.356 1.289s0-.285.017-.352c0-.05-.034-.033-.034-.033s-.05.268-.334.284h-.788v.235l.804-.017c.285.017.318.285.318.285s.034.017.034-.034c-.017-.066-.017-.368-.017-.368z"/></g><path d="M1.29 2.06C.888 3.7.302 5.727.302 5.727s-.117.385-.234.368c-.084 0-.067-.385-.067-.385s.301-2.344.536-3.733C.771.586 1.391-.016 2.513 0c1.088.017 2.343.536 2.343.536S4.288.402 3.651.352C2.964.302 2.194.335 1.826.754c-.369.435-.536 1.306-.536 1.306" fill="#4484bf" mask="url(#a)" transform="translate(16.18 15)"/><path d="M19.078 16.055a.3.3 0 0 0 .302-.298v-.003c0-.184-.135-.318-.302-.318a.308.308 0 0 0-.318.318c0 .167.134.301.318.301" fill="#000"/><path d="M18.626 16.457c.385.184.72.57.703 1.206-.033 1.19-1.975 2.26-1.975 2.26s1.19-1.005 1.19-2.194c0-.585-.219-.904-.62-1.054-.403-.135-.989-.117-1.776.067 0 0 1.557-.72 2.478-.285" fill="#eabc4d"/></g></svg>