<svg height="36" viewBox="0 0 36 36" width="36" xmlns="http://www.w3.org/2000/svg"><mask id="a" fill="#fff"><path d="M0 0h18.968v4.227H0z" fill-rule="evenodd"/></mask><mask id="b" fill="#fff"><path d="M0 0h18.969v1.387H0z" fill-rule="evenodd"/></mask><g fill="none" fill-rule="evenodd"><path d="M18 0c2.837 0 5.52.656 7.907 1.825C31.884 4.753 36 10.895 36 18c0 9.942-8.058 18-18 18-9.94 0-18-8.057-18-18C0 8.06 8.06 0 18 0z" fill="#f2f4f7" fill-rule="nonzero"/><path d="M8.009 14 4 16.314v2.031l4.009-2.314 2.314 1.338v-2.033z" fill="#6e6e6e"/><path d="M6.315 19.683 4 18.346v2.034l2.314 1.335 4.01-2.314v-2.032z" fill="#a77556"/><path d="M14.648.093v4.065h1.103V1.835l1.034 1.58h.023l1.039-1.592v2.335h1.121V.093h-1.191l-.969 1.574-.97-1.574zm-5.051 0v4.065h1.127V2.613h1.445v1.545h1.127V.093h-1.127v1.521h-1.445V.093zm-6.875 0L1.159 2.075l1.597 2.083h1.35L2.514 2.072 4.043.093zM0 4.158h1.126V.093H0zM6.63 0C5.37 0 4.441.929 4.441 2.114v.011c0 1.231.947 2.102 2.212 2.102.738 0 1.336-.273 1.766-.628V2.114H7.35v.975c-.168.11-.377.168-.65.168-.645 0-1.103-.47-1.103-1.126v-.012c0-.621.452-1.115 1.039-1.115.401 0 .691.14.981.383l.662-.795C7.85.22 7.344 0 6.63 0z" fill="#a77556" mask="url(#a)" transform="translate(13.033 15.244)"/><path d="m9.067.653.117.299h-.236zM16.6.573h.119c.174 0 .289.098.289.267v.002c0 .169-.115.266-.289.266H16.6zM.291.56h.136c.106 0 .169.048.169.138v.003c0 .083-.064.137-.167.137H.291zM2.206.556c.161 0 .27.133.27.284v.003c0 .152-.106.282-.267.282-.159 0-.268-.133-.268-.285V.838c0-.152.106-.282.265-.282zM16.309.315v1.051h.399c.379 0 .599-.226.599-.528V.835c0-.304-.218-.52-.593-.52zM0 .315v1.051h.291v-.3h.144c.261 0 .452-.131.452-.379V.684C.887.452.716.315.45.315zm18.058 0v.246h.509l-.527.593v.212h.929V1.12h-.527l.527-.593V.315zm-3.418 0v1.051h.852v-.248h-.564V.952h.505v-.23h-.505V.563h.557V.315zm-1.153 1.051h.292V.315h-.292zM11.51.315v1.051h.286V.765l.267.409h.006l.269-.412v.604h.289V.315h-.308l-.25.407-.251-.407zm-4.678 0v1.051h.291v-.272L7.23.975l.264.391h.35L7.432.767 7.83.315h-.345l-.362.427V.315zm-3.239 0v1.051h.8v-.255h-.509V.315zM8.929.307l-.447 1.059h.306l.075-.188h.405l.077.188h.312L9.21.307zM5.562.298c-.252 0-.407.14-.407.335v.003c0 .216.173.28.397.33.142.034.177.058.177.101v.003c0 .045-.042.072-.12.072a.545.545 0 0 1-.341-.126l-.162.194a.73.73 0 0 0 .492.173c.256 0 .425-.126.425-.341v-.003c0-.197-.15-.275-.392-.327C5.485.678 5.45.658 5.45.609V.606c0-.037.034-.067.105-.067a.53.53 0 0 1 .294.103l.145-.205a.657.657 0 0 0-.432-.139zM2.209.295a.549.549 0 0 0-.567.545v.003c0 .302.24.544.564.544s.568-.245.568-.547V.838a.546.546 0 0 0-.565-.543zM18.565 0l-.162.243h.211l.223-.16z" fill="#6e6e6e" mask="url(#b)" transform="translate(13.029 20.339)"/></g></svg>