<svg height="36" viewBox="0 0 36 36" width="36" xmlns="http://www.w3.org/2000/svg"><mask id="a" fill="#fff"><path d="M0 0h6.28v4.455H0z" fill-rule="evenodd"/></mask><g fill="none" fill-rule="evenodd"><path d="M18 0c2.837 0 5.52.656 7.907 1.825C31.884 4.753 36 10.895 36 18c0 9.942-8.058 18-18 18-9.94 0-18-8.057-18-18C0 8.06 8.06 0 18 0z" fill="#f2f4f7" fill-rule="nonzero"/><path d="M16.449 18.219v-.786c-.226-.002-.45-.001-.675 0v-.857h-.893v.856h-.37v.787h.37c.002.24 0 .479 0 .719v.105c0 .139 0 .279.003.419.007.377.144.78.462 1.002.279.2.627.237.96.233-.274-.287-.44-.705-.504-1.041l-.002-.01-.002-.01a2.545 2.545 0 0 1-.02-.317l-.004-.08-.001-.204c-.002-.272 0-.544 0-.815l.676-.001m-2.105-1.397a51.746 51.746 0 0 1 0-.788c-.441-.073-.95-.045-1.302.26-.316.284-.378.736-.367 1.139h-.386v.787h.326l.062-.001h.002v.43h-.002c0 .645.002 1.289 0 1.933h.907v-2.363h.605v-.787h-.61c.009-.177-.011-.39.134-.52.176-.147.42-.1.63-.09m-3.287 3.76h.886c-.005-.675.006-1.349-.005-2.024-.007-.396-.157-.834-.535-1.021-.54-.268-1.172-.207-1.747-.115-.003.286-.001.573-.002.86.37-.08.775-.164 1.142-.027.17.059.234.239.26.401-.256-.032-.517-.094-.775-.041-.307.038-.611.188-.785.451-.28.419-.2 1.052.215 1.354.389.297.954.265 1.349-.004l-.003.166m-.037-.682c-.23.071-.51.15-.721-.011-.192-.136-.167-.462.04-.569.214-.113.463-.073.688-.028a2.63 2.63 0 0 1-.007.608M6.42 16.311c.361.002.723 0 1.084 0-.529.712-1.047 1.433-1.579 2.142.474.709.94 1.422 1.418 2.128-.374.003-.749-.001-1.124.002-.417-.634-.835-1.267-1.251-1.901-.001.633-.001 1.267.001 1.9H4v-4.27c.323-.002.646 0 .968-.002-.001.672-.001 1.344.001 2.016.481-.673.968-1.343 1.451-2.015m1.148 1.131h.914c0 .2-.002.4-.005.601a1.07 1.07 0 0 1 .82-.607c.001.298.004.597-.003.895-.389.047-.788.336-.802.755-.01.498-.002.997-.003 1.496h-.92v-3.14" fill="#003a70"/><g fill="#e1251b"><path d="M23.782 19.944c-.127.05-.153.077-.306.127a.785.785 0 0 1-.484 0c-.483-.203-.178-.942-.178-.942 1.987-.484 1.707-1.554 1.172-1.605-.33 0-1.529.05-2.089 1.426-.076.204-.61 1.656.586 1.758.255 0 .535-.026.79-.153.23-.127.407-.28.56-.484.128-.23-.05-.127-.05-.127m-.28-2.038c.152.05-.23.815-.23.815-.153.05-.306.102-.408.102.051-.102.331-1.07.637-.917m4.918 2.318c-.027-.026-.077-.026-.103-.05-.153-.103-.025-.384 0-.536l.458-1.63c.026-.103.205-.638-.509-.536a2.326 2.326 0 0 0-1.045.484c.052-.152.102-.382 0-.433-.127-.05-.866.18-1.044.331-.05 0-.128.077-.05.154.076.101.102.177.05.356-.102.306-.407 1.376-.484 1.58-.076.203-.179.586 0 .713.127.102.662-.127.74-.178a.544.544 0 0 0 .178-.102c.102-.102-.051-.153.102-.688 0-.026.178-.56.306-1.019a.863.863 0 0 1 .586-.586c.204-.026.153.153.127.28-.178.561-.382 1.402-.458 1.605-.077.204-.205.611 0 .688.178.128.993-.229 1.07-.28.152-.102.152-.153.076-.153"/><path d="M25.312 20.224c-.051-.026-.077-.026-.102-.05-.153-.103-.051-.384 0-.536l.484-1.63c.026-.179.127-.409 0-.485-.153-.05-.892.18-1.07.331-.026 0-.102.077-.026.154.077.101.077.177.026.356a31.209 31.209 0 0 1-.51 1.605c-.076.204-.178.611.052.688.178.128.942-.204 1.044-.28.178-.077.178-.153.102-.153m-.154-3.082c.051.102.51-.102.74-.23.025-.025.126-.101.152-.178.051-.178.076-.254.102-.382.025-.051.025-.127-.05-.153-.103-.025-.715.05-.867.306-.052.102-.23.586-.077.637m6.828 1.783c-.076-.28-.535-.357-.713-.204-.102.102-.153.306-.128.357.433-.128.51.255.433.407-.153.23-.203.306-.407.306H29.82c-.025-.025-.051-.051 0-.102.077-.102 1.402-1.91 1.453-1.987.026-.051.102-.178-.077-.178h-1.477c-.153 0-.23.05-.357.178-.102.127-.23.51-.306.765 0 0 0 .1.154-.026.025-.026.076-.127.152-.127h.892c.28 0-1.197 1.4-1.656 2.139-.076.128.05.128.127.128h1.937c.484 0 .407.076.662-.281 0 0 .789-1.02.662-1.375"/><path d="m5.058 3.498.535-2.064c.357-1.25.56-1.3.688-1.427H5.44c-.305 0-.535.433-.585.714L4.498 2.02h-.764s.458-1.656.51-1.835c.025-.076.025-.178-.128-.178-.025 0-1.63-.051-2.14.128-.23.076-.561.28-.663.586-.076.178-.178.509.052 1.12.025.077.076.128.1.154.077.05.74-.051.715-.051.05 0 .076-.026.025-.128-.051-.127-.203-.356-.23-.585-.101-.892.536-1.02.638-1.045a1.26 1.26 0 0 1 .433 0c.05 0 .179.025.204.077.05.1-.025.28-.076.484-.052.153-.485 1.732-.612 2.165-.076.33-.407 1.045-.738 1.147a.534.534 0 0 1-.281 0 .947.947 0 0 1-.28-.128c-.204-.204-.331-.611-.357-.917-.025-.382.05-.662-.025-.662-.133 0-.577.175-.757.304H.123C.05 2.71.046 2.72.046 2.72l-.01.01c-.045.08-.042.366-.021.54.077.382.28.815.586 1.019.815.56 2.243-.46 2.395-.561a1.48 1.48 0 0 0 .433-.688c.077-.255.204-.688.204-.688h.764s-.305 1.147-.382 1.427c-.076.229-.127.61.076.586.765 0 1.07-.28 1.096-.306.025-.025.025-.077 0-.102a.376.376 0 0 1-.13-.458" mask="url(#a)" transform="translate(16.279 16.293)"/></g></g></svg>