<svg height="36" viewBox="0 0 36 36" width="36" xmlns="http://www.w3.org/2000/svg"><mask id="a" fill="#fff"><path d="M0 6.561h28V0H0z" fill-rule="evenodd"/></mask><g fill="none" fill-rule="evenodd"><path d="M18 0c2.837 0 5.52.656 7.907 1.825C31.884 4.753 36 10.895 36 18c0 9.942-8.058 18-18 18-9.94 0-18-8.057-18-18C0 8.06 8.06 0 18 0z" fill="#f2f4f7" fill-rule="nonzero"/><g fill="#1e2867"><path d="M28.848 16.212h.23v.987c0 .38.232.463.506.463.21 0 .357-.042.504-.168l-.084-.106a.45.45 0 0 1-.294.106c-.148 0-.232-.063-.232-.295v-1.008h.526v-.126h-.526v-.484h-.126c-.084.336-.21.484-.504.505zm-.714 1.051c0 .21 0 .252-.211.252v.105h.82v-.105c-.19 0-.21-.042-.21-.252v-2.018l-.042-.02a1.892 1.892 0 0 1-.568.146v.105c.21 0 .21.042.21.232zm-.905.063a.366.366 0 0 1-.294.147c-.084 0-.168-.02-.21-.063a.36.36 0 0 1-.063-.21c0-.148.084-.232.189-.295a.844.844 0 0 1 .378-.147zm.4-.757c0-.168-.021-.294-.126-.378-.084-.105-.231-.168-.504-.168-.232 0-.38.042-.463.084-.126.084-.21.167-.21.273 0 .063.042.126.147.126s.147-.042.168-.105c.042-.063.063-.127.106-.168.063-.042.126-.084.21-.084.105 0 .189.042.23.105a.755.755 0 0 1 .043.231v.147l-.21.042c-.253.042-.421.105-.547.19-.167.104-.23.23-.23.398 0 .126.063.232.147.316a.69.69 0 0 0 .336.105c.252 0 .399-.105.525-.21.042.126.126.19.315.19a.614.614 0 0 0 .295-.064l-.021-.105c-.042 0-.063.021-.106.021-.063 0-.105-.063-.105-.232zm-2.46.126c0-.189.022-.336.085-.42a.225.225 0 0 1 .189-.126c.085 0 .126.042.169.126.063.084.084.252.084.42zm.926.147c0-.252-.063-.462-.168-.609a.581.581 0 0 0-.484-.21.665.665 0 0 0-.483.19c-.126.124-.21.335-.21.587 0 .294.063.505.168.652.147.147.336.21.567.21a.606.606 0 0 0 .589-.379l-.105-.063c-.042.084-.105.147-.147.211a.423.423 0 0 1-.274.084.328.328 0 0 1-.273-.168c-.084-.148-.105-.316-.105-.526zm-3.258-1.324c0-.168 0-.21.106-.21h.315c.252 0 .42.063.525.147.127.084.169.21.169.337a.458.458 0 0 1-.19.4c-.125.082-.315.145-.588.145h-.357zm.799.925a.994.994 0 0 0 .546-.21.596.596 0 0 0 .21-.462.506.506 0 0 0-.273-.463c-.21-.126-.441-.168-.861-.168h-1.156v.147c.294 0 .315.021.315.273v1.661c0 .231-.021.273-.315.273v.126h1.03v-.126c-.274 0-.295-.02-.295-.273v-.715h.379l.799 1.135h.63v-.147c-.17 0-.232-.02-.4-.23zm-3.51-.273c.127 0 .232.042.295.126.084.126.147.294.147.567s-.063.442-.147.547c-.063.084-.147.126-.295.126-.126 0-.231-.042-.294-.126-.084-.106-.126-.274-.126-.547s.042-.44.126-.567c.063-.084.168-.126.294-.126zm0 1.492c.274 0 .484-.042.63-.189.148-.126.232-.336.232-.63 0-.274-.084-.484-.231-.61-.168-.147-.357-.21-.631-.21-.252 0-.441.063-.588.19-.168.146-.252.356-.252.63 0 .315.084.525.252.651.147.126.336.19.588.19zm-1.113-.42a.518.518 0 0 1-.168.19.318.318 0 0 1-.232.083c-.126 0-.231-.063-.315-.189-.063-.105-.105-.274-.105-.505s.042-.399.105-.504c.084-.105.168-.168.273-.168s.168.063.21.168a.32.32 0 0 0 .085.147c.02.021.063.042.104.042.085 0 .127-.063.127-.147s-.042-.168-.127-.21c-.084-.084-.231-.126-.42-.126-.231 0-.441.063-.567.231-.126.126-.211.315-.211.567 0 .273.084.505.232.652.126.126.294.19.525.19a.624.624 0 0 0 .378-.106.832.832 0 0 0 .232-.252zm-1.556-.652c0-.21-.042-.336-.126-.42a.506.506 0 0 0-.378-.147c-.252 0-.42.126-.588.294a.457.457 0 0 0-.147-.189.535.535 0 0 0-.337-.105c-.252 0-.42.126-.567.273l-.021-.23-.042-.043a1.62 1.62 0 0 1-.547.147v.105c.21 0 .21.042.21.252v.736c0 .231 0 .252-.21.252v.105h.799v-.105c-.168 0-.19-.02-.19-.232v-.819c.169-.168.295-.273.42-.273.085 0 .169.042.19.105.063.063.063.168.063.294v.694c0 .19 0 .231-.168.231v.105h.757v-.105c-.168 0-.19-.02-.19-.252v-.799c.127-.168.253-.273.42-.273.085 0 .169.042.21.105s.043.168.043.294v.694c0 .19-.021.231-.168.231v.105h.756v-.105c-.168 0-.19-.042-.19-.23zm-3.068-.546-.042-.02a2.09 2.09 0 0 1-.567.146v.105c.189 0 .21.021.21.252v.736c0 .231-.021.252-.21.252v.126h.798v-.126c-.188 0-.188-.02-.188-.252v-1.219zm-.231-.694c-.126 0-.21.105-.21.252 0 .17.084.253.21.253s.23-.085.23-.253c0-.147-.104-.252-.21-.252zm-1.703.736.673-.63c.147-.148.21-.169.358-.169v-.147h-.8v.147c.232 0 .232.063.043.252l-.862.841v-.82c0-.252.02-.273.273-.273v-.147h-.987v.147c.273 0 .294.021.294.273v1.661c0 .231-.021.273-.294.273v.126h.987v-.126c-.252 0-.273-.042-.273-.294v-.589l.273-.273.883 1.282h.63v-.126c-.168 0-.231-.042-.4-.294z"/><path d="M.018 6.428h6.253v-.303H.018zM3.9.313h1.868L3.843 2.896 5.768 5.48H3.9L2.082 2.896zM0 0h2.228v2.173L3.757.001h2.594L4.217 2.896l2.134 2.896H3.757L2.228 3.619v2.173H0zm.296 5.48h1.636V.313H.296zm25.549-.79c0-.21-.063-.336-.147-.42-.105-.084-.231-.126-.42-.126-.211 0-.421.105-.589.294h-.021v-.273l-.063-.021a1.394 1.394 0 0 1-.525.147v.105c.188 0 .21.021.21.252v.736c0 .21-.022.252-.21.252v.105h.777v-.105c-.168 0-.168-.042-.168-.252v-.778c.147-.189.315-.294.462-.294.105 0 .168.021.211.063.063.063.084.168.084.294v.715c0 .21-.021.252-.168.252v.105h.735v-.105c-.147 0-.168-.042-.168-.252zm-2.816-.399c.126 0 .231.042.294.126.105.126.148.294.148.568 0 .273-.064.441-.148.546-.063.084-.147.126-.294.126a.381.381 0 0 1-.294-.126c-.084-.105-.126-.273-.126-.546 0-.274.042-.442.126-.568.063-.084.168-.126.294-.126zm0 1.492c.273 0 .483-.042.631-.189.147-.126.231-.336.231-.63 0-.274-.084-.484-.231-.61-.169-.147-.358-.21-.631-.21-.252 0-.441.063-.588.189-.169.147-.253.357-.253.631 0 .315.084.525.253.651.147.126.336.189.588.189zm-1.177-1.618-.042-.021c-.21.084-.378.126-.567.147v.105c.189 0 .21.021.21.252v.736c0 .231-.021.252-.21.252v.126h.798v-.126c-.168 0-.189-.021-.189-.252zm-.21-.694c-.126 0-.231.105-.231.252 0 .169.105.253.231.253s.21-.084.21-.253c0-.147-.084-.252-.21-.252zm-1.723.862h.231v.988c0 .378.252.462.504.462.211 0 .358-.042.505-.168l-.063-.105a.574.574 0 0 1-.316.105c-.125 0-.231-.063-.231-.294V4.312h.526v-.126h-.526v-.483h-.105c-.105.336-.231.483-.525.504zm-.694 1.114a.368.368 0 0 1-.294.147c-.084 0-.168-.021-.21-.063a.35.35 0 0 1-.063-.21c0-.147.084-.231.189-.294a.84.84 0 0 1 .378-.147zm.399-.757c0-.168-.021-.294-.126-.378-.084-.105-.23-.168-.504-.168-.231 0-.378.042-.462.084-.126.084-.21.168-.21.273 0 .063.042.126.147.126s.147-.042.168-.105c.042-.063.063-.126.105-.168.063-.042.126-.085.21-.085.105 0 .19.043.231.106a.725.725 0 0 1 .043.231v.147l-.211.042c-.252.042-.42.106-.546.189-.168.105-.231.232-.231.4 0 .126.063.231.147.315a.697.697 0 0 0 .336.105c.252 0 .4-.105.526-.211.041.127.125.19.314.19a.611.611 0 0 0 .295-.063l-.021-.105c-.042 0-.063.02-.105.02-.063 0-.106-.063-.106-.23zm-2.269-.273-.021-.252-.042-.021a1.633 1.633 0 0 1-.546.147v.105c.188 0 .209.042.209.231v.757c0 .231-.021.252-.209.252v.105h.861v-.105c-.231 0-.252-.042-.252-.252v-.778c.126-.168.231-.273.357-.273.063 0 .084.021.126.105.042.106.084.148.168.148s.127-.063.127-.169a.254.254 0 0 0-.085-.189.336.336 0 0 0-.231-.084c-.168 0-.315.084-.462.273zm-1.639-.126c.126 0 .21.042.294.126.084.126.126.294.126.568 0 .273-.042.441-.126.546-.063.084-.168.126-.294.126-.127 0-.232-.042-.295-.126-.084-.105-.147-.273-.147-.546 0-.274.042-.442.126-.568a.415.415 0 0 1 .294-.126zm0 1.492c.252 0 .462-.042.609-.189.147-.126.231-.336.231-.63 0-.274-.084-.484-.231-.61-.147-.147-.336-.21-.609-.21-.274 0-.463.063-.61.189-.147.147-.231.357-.231.631 0 .315.084.525.231.651a.939.939 0 0 0 .588.189zM13.53 4.522c.105-.105.21-.21.357-.21.105 0 .21.063.273.168.063.084.085.253.085.463 0 .252-.022.42-.085.525-.084.126-.168.168-.273.168-.147 0-.252-.084-.357-.21zm0 1.093h.021c.105.105.231.168.441.168a.696.696 0 0 0 .505-.21c.126-.147.167-.357.167-.63 0-.274-.063-.484-.188-.61a.651.651 0 0 0-.462-.189.581.581 0 0 0-.484.21l-.021-.189-.042-.021a1.327 1.327 0 0 1-.526.147v.106c.19 0 .19.041.19.251v1.556c0 .21 0 .231-.19.231v.126h.778v-.126c-.168 0-.189-.021-.189-.231zm-1.471-1.198-.021-.252-.042-.021a1.62 1.62 0 0 1-.546.147v.105c.189 0 .21.042.21.231v.757c0 .231 0 .252-.21.252v.105h.861v-.105c-.231 0-.252-.042-.252-.252v-.778c.126-.168.252-.273.357-.273.063 0 .105.021.126.105.042.106.084.148.168.148s.147-.063.147-.169c0-.063-.042-.126-.084-.189a.45.45 0 0 0-.252-.084c-.168 0-.294.084-.462.273zm-1.639-.126c.125 0 .231.042.294.126.084.126.126.294.126.568 0 .273-.042.441-.126.546-.063.084-.169.126-.294.126-.127 0-.232-.042-.295-.126-.084-.105-.126-.273-.126-.546 0-.274.042-.442.126-.568.063-.084.168-.126.295-.126zm0 1.492c.252 0 .462-.042.63-.189.126-.126.21-.336.21-.63 0-.274-.084-.484-.231-.61-.147-.147-.336-.21-.609-.21-.274 0-.463.063-.61.189-.147.147-.231.357-.231.631 0 .315.084.525.231.651a.96.96 0 0 0 .61.189zm-1.24-.735c-.084.168-.21.315-.337.399a.874.874 0 0 1-.525.168.944.944 0 0 1-.652-.294c-.189-.231-.273-.526-.273-.862s.126-.63.294-.82a.989.989 0 0 1 .694-.273c.21 0 .357.063.462.126.106.084.147.232.211.484l.168-.042c-.042-.231-.084-.379-.105-.568-.106-.042-.211-.084-.316-.105-.147-.021-.294-.042-.462-.042-.442 0-.778.147-1.009.337-.252.252-.357.567-.357.924 0 .421.105.736.336.988.21.21.525.336.946.336.273 0 .504-.063.694-.189a1.3 1.3 0 0 0 .399-.483zM26.991 2.62l-.147.357c-.063.147-.189.336-.336.336-.084 0-.126-.042-.169-.126-.021-.063-.062-.105-.168-.105-.084 0-.126.042-.126.126 0 .063.042.126.106.169.063.063.168.084.294.084a.44.44 0 0 0 .336-.127 1.2 1.2 0 0 0 .231-.336l.756-1.66c.084-.147.106-.168.232-.168v-.126h-.525v.126c.147 0 .168.021.126.126l-.4.903h-.021l-.399-.84c-.063-.147-.042-.189.126-.189v-.126h-.799v.126c.126 0 .147.021.253.21z" mask="url(#a)" transform="translate(4 15)"/></g></g></svg>