<svg height="36" viewBox="0 0 36 36" width="36" xmlns="http://www.w3.org/2000/svg"><mask id="a" fill="#fff"><path d="M0 0h28v2.221H0z" fill-rule="evenodd"/></mask><g fill="none" fill-rule="evenodd"><path d="M18 0c2.837 0 5.52.656 7.907 1.825C31.884 4.753 36 10.895 36 18c0 9.942-8.058 18-18 18-9.94 0-18-8.057-18-18C0 8.06 8.06 0 18 0z" fill="#f2f4f7" fill-rule="nonzero"/><path d="M17.532 15.704a.487.487 0 0 0-.195-.061c-.228-.032-.606-.013-.855.27-.412.472-.093.868-.093.868s.032-.128.155-.194c.128-.067.268-.046.426-.139.159-.094.179-.16.282-.411.103-.25.196-.268.26-.273.089-.008.039-.051.02-.06m.286-.366c0-.125-.081-.543-.344-.814-.258-.264-.504-.267-.701-.22-.198.045-.316.256-.316.256.246-.043.338.187.338.187s.158.294.26.383c.105.089.269.088.409.095.139.009.178.019.22.045a.27.27 0 0 1 .083.096c.019.033.05.026.05-.028m.18.572a.207.207 0 1 0 .027-.414h-.03a.207.207 0 0 0 .004.414M18 13a2.71 2.71 0 0 0-.001 5.418A2.709 2.709 0 1 0 18 13m0 5.061a2.353 2.353 0 1 1-.1-4.705 2.353 2.353 0 0 1 .1 4.705m.083-1.839c-.006-.051-.017-.14-.08-.14-.071 0-.072.096-.075.137-.004.042-.003.199-.03.517s-.12.72-.12.72.114.001.223.031c.112.028.226.084.226.084s-.05-.256-.088-.565c-.037-.306-.052-.729-.057-.784m1.339-.328c-.402-.437-.97-.177-.996-.164-.025.014-.03.028.003.038.029.012.15.029.202.121.05.091.1.382.286.528.185.145.44.144.52.233.082.09.098.168.098.168s.357-.408-.113-.924m-.155-1.232a.312.312 0 0 1 .212-.109c.067-.008.119.01.119.01s-.028-.206-.343-.258c-.326-.056-.534.05-.761.268-.226.22-.294.677-.3.726-.005.049-.008.087.027.094.036.006.029-.083.117-.115.116-.045.546-.032.687-.181.142-.149.168-.356.242-.435" fill="#e53138"/><path d="M8.283 1.463 7.02.013h-.223v2.201h.38V.761l1.266 1.452h.219V.011H8.28zm-4.181.758h.385V0h-.384zm8.358-.757L11.199.011h-.225v2.202h.38V.761l1.266 1.452h.22V.011h-.38zm3.07-.173h.834V.93h-.833V.372h1.377V.011h-1.756v2.202h1.842v-.361h-1.461zm7.677.93h.385V0h-.385zm-3.188-.622L19.255.011h-.417L19.9 2.213h.239L21.205.011h-.422zM.712 1.151l-.331.29v.772H0V.008h.38v.965L1.49.008h.524L.975.919l1.124 1.293h-.464zm25.902 0-.331.29v.772h-.381V.008h.38v.965L27.39.008h.525l-1.038.911L28 2.212h-.464z" fill="#565755" mask="url(#a)" transform="translate(4 20.479)"/></g></svg>