<svg height="36" viewBox="0 0 36 36" width="36" xmlns="http://www.w3.org/2000/svg"><mask id="a" fill="#fff"><path d="M0 .234h1v.532H0z" fill-rule="evenodd"/></mask><mask id="b" fill="#fff"><path d="M0 .242h1v.516H0z" fill-rule="evenodd"/></mask><mask id="c" fill="#fff"><path d="M0 .246h1v.508H0z" fill-rule="evenodd"/></mask><mask id="d" fill="#fff"><path d="M0 .119h1V.88H0z" fill-rule="evenodd"/></mask><mask id="e" fill="#fff"><path d="M0 .248h1v.504H0z" fill-rule="evenodd"/></mask><mask id="f" fill="#fff"><path d="M0 .196h1v.608H0z" fill-rule="evenodd"/></mask><mask id="g" fill="#fff"><path d="M0 .188h1v.624H0z" fill-rule="evenodd"/></mask><mask id="h" fill="#fff"><path d="M0 .185h1v.63H0z" fill-rule="evenodd"/></mask><mask id="i" fill="#fff"><path d="M0 .192h1v.616H0z" fill-rule="evenodd"/></mask><mask id="j" fill="#fff"><path d="M0 .02h1v.96H0z" fill-rule="evenodd"/></mask><mask id="k" fill="#fff"><path d="M0 .018h1v.964H0z" fill-rule="evenodd"/></mask><mask id="l" fill="#fff"><path d="M0 7.242h28V.246H0z" fill-rule="evenodd"/></mask><g fill="none" fill-rule="evenodd"><path d="M18 0c2.837 0 5.52.656 7.907 1.825C31.884 4.753 36 10.895 36 18c0 9.942-8.058 18-18 18-9.94 0-18-8.057-18-18C0 8.06 8.06 0 18 0z" fill="#f2f4f7" fill-rule="nonzero"/><path d="M18.197 15.802c0-.002.001-.003.003-.004v.009l-.002-.001c-.002 0-.002-.002 0-.004" fill="#7e7171"/><path d="m17.075 16.594.023-.049.004-.011v-.002H17.1l-.012.003-.085.038-.806.348-.213.093-.01.005h-.004v-.003l.004-.01.123-.26.324-.68.298-.627.257-.541.301-.634a.047.047 0 0 0 .005-.01c.008.001.004.006.004.01l-.005.03-.012.072-.01.074-.013.071-.01.071-.009.05-.013.077-.012.073-.01.072-.013.072c-.004.024-.008.048-.01.071l-.014.076-.01.071-.013.074-.01.069-.014.077a2.06 2.06 0 0 1-.01.071 11.246 11.246 0 0 1-.023.144l-.014.077-.01.071-.013.072-.008.048-.012.078c-.004.023-.008.045-.01.068a2.219 2.219 0 0 0-.014.08v.004c0 .002.002.003.003.003l.011-.005.43-.184.601-.259a.196.196 0 0 0 .014-.006c.002-.001.003-.001.003.001v.003c0 .003-.003.006-.004.009l-.192.412-.326.698-.366.784-.113.242-.006.012.001.003h.002l.01-.004.577-.253.245-.107.01-.004.002.001.001.001-.004.008-.237.444-.203.38c-.16.303-.322.605-.484.906l-.31.583-.382.715-.326.611-.068.127-.005.008c-.006 0-.005-.003-.003-.007l.011-.029.268-.696.281-.728c.08-.205.157-.409.236-.614l.136-.353a.058.058 0 0 0 .005-.014c-.002-.003 0-.006 0-.008l.061-.158a.04.04 0 0 1 .005-.009.018.018 0 0 0 .004-.005l.023-.059v-.004h-.003l-.01.004-.127.055-.756.329c-.004.002-.009.005-.014.005l-.002-.002.005-.01.108-.233c.11-.232.218-.465.326-.698l.37-.79.175-.377.007-.016v-.004l.003-.006.001-.004.002-.003.001-.001v-.002l.003-.005.001-.003.003-.004.001-.003.002-.004.001-.003a.008.008 0 0 0 .002-.005l.002-.002.002-.005.002-.005.001-.004.001-.002.002-.003.003-.005.001-.003v-.002l.003-.004.001-.003.002-.005.002-.002.002-.004.001-.003.003-.006.002-.005.001-.004.001-.001.002-.003.002-.005.001-.004.001-.001.002-.005.002-.002.002-.004.001-.003.003-.005.003-.007a.019.019 0 0 0 .002-.007l.001-.003.001-.002.002-.003.003-.005.001-.003.001-.002.002-.005.002-.003c.001-.004.005-.005.006-.008" fill="#c1352c"/><path d="m16.156 21.106.005-.015.325-.838.064-.165a.403.403 0 0 1 .014-.03l.34-.638.538-1.003c.127-.24.255-.477.382-.714l.009-.017.017-.008.17-.074a.03.03 0 0 1 .01-.004l.002.002-.007.014-.126.234-.42.787-.59 1.106c-.19.355-.38.71-.568 1.065l-.155.29-.007.012c-.003 0-.005-.001-.003-.004m2.041-5.304.001.004c0 .006-.004.012-.006.017l-.09.191c-.17.364-.342.727-.512 1.092l-.248.527c-.008.018-.004.014-.022.022l-.157.067-.01.004-.003-.001v-.001l.006-.013.329-.705.516-1.105c.003-.006.004-.014.01-.018.004-.004.01-.006.016-.008l.166-.071.005-.002m-.775-1.286-.005.036-.013.08-.012.074-.011.076-.012.074-.012.074-.012.075-.011.074-.012.075-.012.075-.012.074-.015.097-.015.094-.012.075-.012.074a1.837 1.837 0 0 1-.011.073l-.015.096-.012.075-.012.074-.002.015c0 .003-.002.004-.004.006l-.007.003a3.019 3.019 0 0 0-.1.044l-.01.003c-.001 0-.002 0-.002-.002v-.006l.017-.104.015-.092.012-.073.015-.093.012-.073.012-.072.01-.073.013-.074c.004-.023.008-.046.01-.071l.013-.074.012-.071c.004-.025.008-.05.01-.074l.013-.072.013-.076.01-.073a.067.067 0 0 1 .008-.024c.05-.107.1-.215.152-.322a.008.008 0 0 0 .002-.004c.007 0 .005.004.004.007m-.445 2.269-.012.005-.769.333c-.005.002-.009.005-.014.006-.003-.003-.003 0-.002-.002a.069.069 0 0 1 .003-.008l.078-.164.003-.008a.037.037 0 0 1 .016-.009l.635-.277c.05-.02.098-.042.146-.063.008-.003.01 0 .007.006-.002.002 0 .005-.003.007a.008.008 0 0 0-.002.005c0 .001 0 .003-.002.004s-.002.003-.003.005a.014.014 0 0 0-.002.005.008.008 0 0 1-.002.004c0 .003-.003.006-.004.01 0 .001 0 .003-.002.004s0 .005-.003.007c-.002.001-.002.005-.004.006 0 .002 0 .004-.002.006v.003l-.005.005h.001c-.002.002-.002.003-.002.005 0 .001 0 .002-.002.003-.002.002 0 .006-.003.008-.002.002 0 .005-.004.007 0 .002 0 .005-.003.007-.002.002 0 .005-.003.007l-.002.005c0 .002 0 .003-.002.004l-.003.004a.008.008 0 0 0-.002.005v.003c-.004.003-.002.007-.005.01-.002.001 0 .004-.003.006-.002.002 0 .005-.003.007l-.004.007c-.002.001 0 .004-.003.006 0 0 0 .002-.002.003v.003c-.004.002-.003.006-.004.008-.003.002-.006.001-.008.002m-.101 1.805c0 .004 0 .007-.002.01l-.03.08-.024.061-.01.024-.008.002-.152.066a81.675 81.675 0 0 0-.445.194c-.002 0-.003-.002-.002-.002l.001-.005.077-.164.001-.003a.016.016 0 0 1 .008-.008c.004 0 .007-.003.011-.005.188-.08.375-.163.563-.245a.014.014 0 0 1 .006-.002l.003-.002h.003" fill="#000"/><path d="M.502.724C.503.727.502.73.505.73.505.736.501.74.5.745.495.745.494.745.495.74.497.735.498.729.502.724" fill="#d16760" mask="url(#a)" transform="translate(15.372 20.476)"/><path d="M.501.733a.008.008 0 0 0 .004.004.091.091 0 0 0-.007.014H.494C.496.745.497.738.501.733" fill="#da8782" mask="url(#b)" transform="translate(15.366 20.484)"/><path d="M.5.264.499.259c0-.002 0-.004-.002-.005A.069.069 0 0 1 .5.246L.502.245c.002 0 0 .001 0 .001C.505.253.505.259.5.264" fill="#d6746e" mask="url(#c)" transform="translate(16.785 14)"/><path d="M17.07 16.605c-.002-.006-.002-.006-.008-.007a.013.013 0 0 1 .013-.004c0 .004-.002.009-.006.01" fill="#9a7774"/><path d="M.5.39C.498.386.5.383.496.381L.5.374h.004C.503.38.503.385.5.39" fill="#5a4f4f" mask="url(#d)" transform="translate(16.922 14.127)"/><path d="M.5.744h.003L.5.751v.001C.496.752.495.75.495.75.496.747.497.745.5.744" fill="#e7b4b0" mask="url(#e)" transform="translate(15.36 20.49)"/><path d="M.503.692c0 .004-.002.006-.005.009L.495.699A.01.01 0 0 1 .5.692C.5.69.502.69.503.692" fill="#888b8b" mask="url(#f)" transform="translate(15.646 20.437)"/><path d="M.504.687.501.693C.499.695.498.695.496.693.497.689.498.685.5.683c.002 0 .003.002.004.004" fill="#595555" mask="url(#g)" transform="translate(15.652 20.43)"/><path d="M.5.69C.498.69.497.687.496.686.496.683.497.68.5.68l.003.004C.504.686.501.687.5.69" fill="#3b3838" mask="url(#h)" transform="translate(15.656 20.426)"/><path d="M.5.689h.003A.049.049 0 0 1 .5.696H.496A.01.01 0 0 1 .5.689" fill="#5f5f5f" mask="url(#i)" transform="translate(15.649 20.434)"/><path d="M16.978 16.785c.002-.003.005-.003.007-.004.001.001.002.002.001.004l-.003.004a.018.018 0 0 1-.005-.004" fill="#b6c6c5"/><path d="M16.875 18.591c0 .002-.001.002-.003.002 0-.002.001-.003.003-.002" fill="#c1352c"/><path d="M16.546 15.96v-.004l.025-.052.002-.002c.008-.01.02-.007.03-.007.02 0 .02-.002.022-.023 0-.015-.004-.03.005-.045.022-.008.045-.003.067-.004h.07c.023.001.046-.002.069.003l.005.004c.004.02.002.037.001.055 0 .012-.01.015-.02.015l-.096.001c-.023 0-.024.001-.025.025 0 .013.004.028-.004.041-.02.01-.043.003-.065.005h-.07c-.008 0-.019.001-.017-.013" fill="#fdfbf9"/><path d="M17.405 18.2c0 .007-.004.012-.007.017-.009.014-.016.03-.025.046 0 .003-.002.006-.005.008-.03-.004-.06.004-.092.002-.013-.001-.018.005-.018.018 0 .014.003.029-.002.043 0 .002-.003.004-.005.004-.046.004-.092.003-.138.003l-.049-.001c-.007 0-.013 0-.019-.004a.116.116 0 0 1 0-.07c.012-.006.025-.003.04-.003h.133c.03 0 .03 0 .031-.031 0-.011-.003-.024.004-.036.023-.008.047-.003.071-.004h.064c.006 0 .015-.002.017.009" fill="#dc8569"/><path d="m16.116 16.883-.003.001c-.006 0-.006-.003-.004-.007.002-.002.002-.006.003-.008l.002-.006.027-.055c.001-.003.002-.007.005-.009.025-.004.05 0 .075 0 .01-.002.019 0 .029 0 .025-.002.025-.002.025-.027 0-.04 0-.04.041-.04.011 0 .023.001.035-.003.015-.003.031 0 .046-.002.018 0 .018 0 .02-.019 0-.015-.005-.03.005-.044a.02.02 0 0 1 .013-.004c.056.001.111-.002.167-.004.008 0 .016 0 .022.006l-.016.01c-.023.01-.046.02-.07.028l-.09.04c-.019.007-.037.016-.056.024a2.652 2.652 0 0 1-.094.04c-.02.01-.04.017-.06.026a.867.867 0 0 1-.063.028l-.032.014-.006.001c-.003.002-.006.001-.008.004-.001.002-.004.001-.006.003h-.003l-.004.003" fill="#e4a78e"/><path d="M16.915 17.921a.084.084 0 0 0 .017-.005l.023-.01a.588.588 0 0 0 .044-.02l.032-.014a.39.39 0 0 0 .02-.009l.034-.014h.008a.228.228 0 0 1 .09-.004c.002 0 .004.002.005.004a.486.486 0 0 1 0 .054c0 .007-.002.013-.008.017-.021.006-.042.002-.064.003h-.07a.384.384 0 0 1-.048 0c-.013 0-.018.005-.017.018l-.001.03c0 .012-.006.018-.019.02-.018 0-.036-.004-.054.001-.04.003-.08.001-.121.001a.023.023 0 0 1-.011-.003c-.002-.01.006-.008.011-.009a.15.15 0 0 1 .03 0c.013 0 .017-.006.017-.018 0-.015-.003-.03.004-.045.019-.009.065-.007.078.003" fill="#d1533e"/><path d="M16.908 16.175v.012c0 .001.002.003.003.002l.028-.012.114-.049.038-.016.02-.007a.272.272 0 0 1 .056-.002c.008 0 .015 0 .021.005a.127.127 0 0 1 0 .067.019.019 0 0 1-.014.005c-.043 0-.085.006-.127.003h-.042c-.024 0-.024.001-.025.024 0 .013.004.028-.004.04-.024.007-.048.002-.07.003h-.05c-.006 0-.013 0-.019-.004a.118.118 0 0 1 0-.067c.005-.007.013-.005.02-.006h.045c.002 0 .004 0 .006.002" fill="#f0cdbb"/><path d="M17.086 16.732a.102.102 0 0 1 .008-.021l.022-.047c0-.002.003-.003.004-.005.04.006.08-.004.12-.002.008 0 .012-.004.012-.013v-.03c0-.007 0-.015.006-.021l.006-.002c.043-.002.086-.004.129 0a.018.018 0 0 1 .005.005c.005.019.003.037.002.057-.001.012-.01.014-.02.014-.018 0-.036-.002-.055.003h-.05c-.011 0-.015.005-.016.016-.001.016.005.033-.005.048-.006.004-.013.003-.02.003-.042 0-.085-.001-.128.004-.007 0-.017.003-.02-.01" fill="#de8f73"/><path d="M16.704 18.534c-.009.007-.02.01-.03.013-.029 0-.058.006-.087.005-.026 0-.032.008-.024.033l.003.009a.016.016 0 0 1-.007.004l-.044.019c-.026.004-.051.002-.077.002-.007 0-.015 0-.021-.004a.121.121 0 0 1 0-.068c.007-.006.015-.004.023-.005.016-.001.032.002.048-.002.017-.003.034-.001.05-.001.012 0 .016-.005.016-.017.001-.015-.004-.032.005-.047.004-.003.008-.003.013-.003.04 0 .079-.002.119 0 .002 0 .004 0 .006.003.006.008.004.018.005.027 0 .01 0 .02.002.032" fill="#dc876c"/><path d="M16.418 18.614h.093l.004.003-.035.016-.043.018-.04.018-.036.015a2.312 2.312 0 0 1-.11.049l-.025.01-.068.03c-.009.004-.018.009-.028.01-.002 0-.002 0-.002-.002l.004-.011.005-.01.03-.062a.022.022 0 0 1 .005-.011l.007-.006c.011-.003.021-.001.032-.002h.112c.022 0 .022-.001.023-.023 0-.013-.002-.026.002-.04a.008.008 0 0 1 .004-.004c.022-.004.044-.008.066.002" fill="#dd8c70"/><path d="M17.046 18.334h.067c-.002.01-.01.008-.016.01h-.031c-.011 0-.014.004-.015.014-.001.016.004.033-.004.047-.008.005-.016.006-.024 0v-.007c0-.002-.001-.002-.002-.002l-.037.016a.543.543 0 0 1-.07.03l-.07.032-.013.005a.353.353 0 0 1-.046.001c-.007 0-.014 0-.02-.004a.135.135 0 0 1 0-.072c.015-.008.03-.004.044-.005l.028.001h.112c.02 0 .02-.002.02-.02.002-.017-.004-.034.01-.048a.118.118 0 0 1 .067.002" fill="#dc876c"/><path d="M17.744 17.562a.02.02 0 0 1-.004.015c-.008.01-.013.024-.02.036a.1.1 0 0 1-.01.02c-.003.003-.002.008-.006.01-.025.004-.05 0-.075.002-.019 0-.02 0-.02.02v.028c-.002.013-.008.018-.02.018-.019 0-.038-.002-.057.003-.023.002-.047 0-.07 0-.019-.001-.039.006-.057-.004l.001-.002a.047.047 0 0 0 .015-.006l.015-.006.034-.015c.017-.01.033-.015.051-.022l.004-.002c.01-.005.02-.01.03-.013.012-.005.024-.012.038-.017l.006-.003.053-.023.003-.001c.015-.007.03-.015.046-.021l.021-.01a.05.05 0 0 0 .017-.006l.005-.001z" fill="#d04c39"/><path d="M16.697 15.966v-.062c0-.004.004-.007.009-.008h.126c.003 0 .006-.003.006-.007v-.061c.006-.006.013-.005.02-.005h.108l-.001.01-.007.043-.002.006c-.001.015-.01.02-.023.02-.032.001-.063.003-.094.002h-.051c-.011 0-.016.004-.015.016l-.001.03c0 .006 0 .012-.005.017a.112.112 0 0 1-.07 0" fill="#fdf7f4"/><path d="m16.943 16.525-.007.004-.131.057-.104.044-.066.03c-.003 0-.006 0-.008.002-.002-.023-.006-.046.003-.07.022-.006.044-.001.066-.002a.417.417 0 0 1 .05 0c.012 0 .017-.004.017-.017a.122.122 0 0 1 0-.027c0-.01 0-.017.008-.024.023-.006.045-.002.068-.003h.085c.007 0 .014 0 .019.006" fill="#e5a991"/><path d="M17.294 18.409a.015.015 0 0 1-.004.01c-.008.012-.013.025-.02.037-.004.008-.007.015-.012.02l-.013.005c-.043 0-.085.002-.128-.002a.005.005 0 0 1-.005-.003c0-.024-.005-.048.004-.072.023-.008.047-.002.071-.003h.088c.008 0 .017-.003.02.008" fill="#e0947a"/><path d="M17.143 18.692c-.002.007-.006.013-.009.02l-.024.044c0 .002-.003.003-.004.005-.02-.003-.04-.001-.062-.002-.023-.001-.047.005-.07-.004-.006-.024-.01-.048.004-.073.005-.003.011-.003.018-.003h.12c.01 0 .021-.003.031.005v.004c-.002 0-.003.002-.004.004" fill="#e6ac95"/><path d="M17.563 16.524v.005l-.029.059-.004.007a.032.032 0 0 1-.019.005h-.097c-.007 0-.014 0-.019-.005a.115.115 0 0 1 0-.071c.013-.01.028-.004.043-.005h.106c.007 0 .014 0 .02.005" fill="#df9176"/><path d="m17.022 16.867.001-.005.028-.058.004-.007c.036.004.071 0 .107.002.008 0 .018-.002.025.005a.105.105 0 0 1 0 .07c-.005.005-.012.005-.019.005h-.12l-.018-.001c-.005-.001-.01-.003-.008-.011" fill="#db8367"/><path d="M17.217 18.553a.021.021 0 0 1-.004.01l-.023.045c-.002.003-.003.007-.007.008-.022.004-.044.001-.067.002-.022 0-.045.002-.068-.002-.002 0-.003 0-.004-.003a.158.158 0 0 1 0-.065.012.012 0 0 1 .004-.005c.02-.004.04 0 .058-.002.03 0 .06.001.09-.003.01 0 .02-.005.024.008-.002.002 0 .005-.003.007" fill="#e3a087"/><path d="M17.076 17.569a.151.151 0 0 1-.013.029l-.016.035c0 .002-.003.004-.004.006-.013.009-.028.004-.042.006l-.02-.001h-.057c-.005 0-.011 0-.016-.004a.142.142 0 0 1-.001-.071c.013-.01.027-.004.04-.005a.16.16 0 0 1 .032 0h.078c.007 0 .014 0 .019.005" fill="#d95c5f"/><path d="m16.6 17.77.014-.032a.21.21 0 0 1 .015-.028c.005-.004.011-.004.018-.004h.102c.02 0 .023.003.023.022 0 .016.002.03-.002.047 0 .002-.003.003-.005.005-.006.003-.014.002-.02.002h-.126c-.008 0-.02.005-.02-.011" fill="#d95d60"/><path d="m16.955 17.011.001-.003c.01-.02.018-.043.03-.063l.002-.004h.003c.034.001.068-.006.102-.005.008 0 .016-.001.023.004l.004.005c.001.022.006.045-.003.067-.007.005-.015.004-.023.004-.04.001-.082 0-.123.003-.006 0-.014.002-.016-.008" fill="#d9775c"/><path d="M16.21 18.684h-.037l.025-.055.029-.06a.036.036 0 0 0 .004-.011c.002-.003.003-.006.006-.008.012-.014.029-.007.044-.009.022.002.045-.002.068.002l.004.005a.114.114 0 0 1-.002.066c-.007.006-.016.005-.024.005h-.09c-.02 0-.021.003-.022.02-.001.016.004.03-.005.045" fill="#db8064"/><path d="m17.207 17.29-.011.022-.01.023a.119.119 0 0 1-.013.025.025.025 0 0 1-.015.005 1.601 1.601 0 0 1-.098 0 .023.023 0 0 1-.014-.004c-.008-.024-.011-.049.002-.073.023-.007.046-.002.069-.003h.071c.007 0 .014 0 .019.005" fill="#d04b39"/><path d="m17.553 17.925-.021.042a.153.153 0 0 1-.016.025 1.2 1.2 0 0 1-.12 0 .018.018 0 0 1-.005-.004c0-.023-.005-.047.004-.07.022-.009.045-.004.068-.005a.913.913 0 0 1 .074 0c.007 0 .018-.002.016.012" fill="#d66c52"/><path d="M16.979 17.777c0 .003-.001.006-.003.007-.01.003-.02.002-.03.002-.035 0-.032-.003-.033.033 0 .01.003.02-.005.03-.023.008-.046.003-.07.004-.023-.002-.047.004-.07-.004-.01-.021-.005-.044-.004-.066 0-.002.002-.004.004-.006.009-.007.02-.005.03-.005a.47.47 0 0 1 .039 0c.037.008.074-.003.11 0 .009 0 .018-.001.027.002a.022.022 0 0 1 .005.003" fill="#cf3a32"/><path d="M17.63 16.38v.003c-.01.023-.02.047-.032.07h-.001c-.011.01-.024.005-.036.005a.13.13 0 0 1-.028 0h-.048c-.007 0-.014.001-.02-.004a.113.113 0 0 1 0-.068c.005-.004.01-.004.017-.004.046 0 .092.001.138-.005.004 0 .008 0 .01.003" fill="#e29d83"/><path d="M17.07 18.83c-.003.01-.008.017-.013.025l-.02.038-.004.006c-.02-.004-.04-.002-.06-.003h-.048c-.006 0-.012 0-.017-.004a.117.117 0 0 1-.001-.067c.007-.007.016-.005.024-.005h.11l.007-.003c.009.001.022-.006.022.012" fill="#eabaa4"/><path d="M16.63 16.595v.053a.028.028 0 0 1-.003.013l-.003.001h-.062c-.007.004-.015.003-.023.003h-.117l-.001-.003c0-.002.003-.003.005-.004.014-.002.027 0 .04 0 .013 0 .018-.006.018-.018v-.03c0-.006 0-.012.005-.017.023-.007.047-.003.07-.003h.052c.007 0 .014 0 .019.005" fill="#e6ae96"/><path d="M17.143 17.424v.004c-.005.007-.007.015-.01.022l-.012.021a.058.058 0 0 0-.005.014l-.007.013c-.02.01-.042.003-.063.005h-.049c-.006 0-.013 0-.019-.004a.113.113 0 0 1 0-.068c.004-.004.01-.004.015-.005.047 0 .094.002.14-.004.004 0 .007 0 .01.002" fill="#cf3a31"/><path d="M16.891 17.149a.092.092 0 0 1 .01-.023l.017-.038c.003-.003.002-.01.007-.013.032.004.065 0 .097.002.01 0 .017-.001.024.005.01.019.005.04.003.06 0 .01-.009.01-.017.012-.015 0-.03-.002-.045.002a.057.057 0 0 1-.013 0c-.022.003-.044.002-.066.002-.006-.001-.015 0-.017-.01" fill="#d66b51"/><path d="M16.465 18.059c.005-.011.012-.021.015-.033l.006-.012c.004-.008.008-.015.01-.022l.003-.003c.02-.01.04-.004.06-.005h.05c.005 0 .012 0 .018.004a.113.113 0 0 1 0 .068c-.007.007-.016.005-.025.005-.038.001-.075-.002-.112.003-.009 0-.018.002-.025-.005" fill="#d04a39"/><path d="M16.828 17.284c0-.003 0-.006.002-.008l.012-.024c.004-.008.008-.016.01-.024.002-.003.003-.006.006-.008.039-.002.079-.006.118-.005h.052c.006 0 .012 0 .017.005 0 .01-.008.007-.014.008h-.034c-.012 0-.016.005-.016.016-.001.017.004.032-.005.048-.017.008-.036.003-.054.004h-.075c-.008 0-.016 0-.022-.005v-.004l.003-.003" fill="#d45e47"/><path d="m16.411 16.242.001-.005.03-.061c0-.002.002-.003.003-.004.031.006.062-.004.093-.002h.021c.023.002.046-.003.07.004v.006c-.015.007-.03.002-.046.003-.017 0-.018.002-.019.02 0 .015.004.03-.005.044-.006.004-.013.004-.02.004h-.114c-.007 0-.016.004-.014-.01" fill="#f5dfd2"/><path d="m16.943 16.525-.105-.001a.106.106 0 0 1-.001-.066c.007-.006.015-.005.022-.005.016-.001.033.002.05-.003.022-.002.044-.001.066-.001.022 0 .045-.003.068.002.001 0 .003.003.003.005-.009.01-.022.006-.033.007-.036 0-.033-.002-.033.03 0 .007 0 .012-.005.017a.11.11 0 0 1-.033.015" fill="#e7ae97"/><path d="M17.254 16.043a.05.05 0 0 1 .02-.009.582.582 0 0 1 .119 0l.005.004a.127.127 0 0 1-.002.067c-.008.005-.018.003-.027.003-.014.001-.03-.002-.044.003a.353.353 0 0 1-.065 0c-.003 0-.005-.002-.007-.003a.47.47 0 0 1 0-.065" fill="#efcbb9"/><path d="m17.761 16.1-.001.006-.027.057-.005.008c-.006.009-.015.009-.024.009h-.031l-.051-.001c-.007 0-.014 0-.019-.003a.113.113 0 0 1-.001-.068.024.024 0 0 1 .016-.005c.045-.001.091.002.137-.004.002 0 .004 0 .006.002" fill="#e8b59e"/><path d="M17.335 17.011a.155.155 0 0 1-.008.023.378.378 0 0 0-.017.035c-.002.003-.002.007-.005.01-.004.004-.008.007-.014.007-.034 0-.068.003-.101-.002-.002 0-.004-.002-.005-.004-.006-.018-.003-.038-.002-.056 0-.007.004-.013.01-.016.02-.004.04-.002.062-.002h.06c.008 0 .015 0 .02.005" fill="#d6684e"/><path d="M17.395 15.983a.176.176 0 0 1 .037-.017.59.59 0 0 1 .084-.004c.007 0 .014 0 .02.004.002.024.006.048-.003.072-.022.008-.045.003-.067.005h-.052c-.007 0-.013 0-.02-.005a.07.07 0 0 1 0-.055" fill="#f0cfbd"/><path d="M17.113 18.476h.003c.01.02.005.04.004.06 0 .008-.008.008-.014.008-.02 0-.04-.002-.06.002a.113.113 0 0 1-.077 0c0-.006.003-.01.005-.015l.015-.041.007-.014c.004-.004.01-.005.015-.005h.087c.005 0 .011 0 .015.005" fill="#e0967c"/><path d="M16.27 18.476a.61.61 0 0 1 .028-.058c.002-.004.002-.01.006-.012a.019.019 0 0 1 .014-.005c.033 0 .066-.002.099 0 .002 0 .004.002.005.004.003.019 0 .039 0 .059a.016.016 0 0 1-.007.014c-.021.006-.043.002-.064.003h-.061c-.007 0-.014 0-.02-.005" fill="#d77459"/><path d="m16.965 15.823-.004.003a.005.005 0 0 1-.005.003h-.118c-.01-.02-.006-.041-.004-.062.001-.006.008-.01.013-.011.021-.004.041-.002.062-.002a.338.338 0 0 1 .045 0c.02 0 .021.003.018.023v.013a.172.172 0 0 1-.007.033" fill="#fdfbf9"/><path d="M17.89 15.826s0 .003-.002.004l-.028.06s0 .002-.002.003c-.003.006-.009.008-.015.008-.033.002-.066.006-.098.004-.023-.001-.046.002-.068-.002l-.004-.005c.004-.007.011-.006.017-.007h.034c.011 0 .016-.004.015-.015 0-.014 0-.027-.002-.04.006-.005.013-.007.021-.01.041-.004.082-.001.123-.002.003 0 .006 0 .008.002" fill="#f0cfbd"/><path d="M16.693 17.569c.005-.011.011-.021.015-.033a.442.442 0 0 1 .016-.031l.003-.003c.018-.01.038-.006.057-.008.017-.002.035-.001.053 0 .022 0 .045-.005.067.004.001.009-.007.008-.012.009h-.032c-.013 0-.018.004-.018.017 0 .016.004.03-.004.046-.022.009-.045.003-.068.004a.542.542 0 0 1-.057 0c-.007 0-.014 0-.02-.005" fill="#cf3f33"/><path d="M17.183 16.524c0-.004.002-.01.004-.013a.183.183 0 0 0 .014-.028l.01-.024c.003-.003.003-.006.006-.01.037.005.073-.003.109 0 .023 0 .046-.004.069.004 0 .01-.01.009-.014.009h-.033c-.013 0-.018.004-.018.018-.001.015.004.03-.005.046-.022.008-.045.002-.067.004h-.055c-.007 0-.014 0-.02-.006" fill="#e2a087"/><path d="M17.046 18.546a.01.01 0 0 1 .007-.003h.055c.006 0 .008-.003.008-.009v-.058h.139l.003.001-.002.006-.033.061-.002.002c-.002 0-.003-.003-.006-.003-.01 0-.021 0-.031.002-.005.002-.01.001-.015.001z" fill="#e19b81"/><path d="M17.294 18.409c0-.002-.003-.003-.006-.003h-.102c-.009-.02-.005-.041-.003-.061 0-.008.007-.008.014-.008.02-.001.038.002.057-.002a.13.13 0 0 1 .073-.002c.003 0 .005.003.004.006-.002.008-.006.015-.01.022-.008.013-.014.026-.02.038-.003.004-.004.008-.007.01" fill="#de8f74"/><path d="m17.466 16.733-.001.003c-.01.02-.018.043-.03.063l-.002.004c-.004.002-.007.005-.011.005-.031 0-.063.003-.094-.002l-.005-.004c-.006-.02-.003-.04-.002-.06 0-.004.003-.008.007-.011.022-.007.045-.003.067-.003l.052-.001c.007 0 .014 0 .019.006" fill="#db7f64"/><path d="M16.351 16.733a.01.01 0 0 1-.007.003h-.054c-.008 0-.009.002-.009.01l-.001.036v.016c0 .002-.003.004-.005.004h-.125l-.004-.003.002-.005.027-.058a.03.03 0 0 1 .005-.007c.033.002.067-.004.101-.001.022 0 .045-.004.068.002l.002.003" fill="#e5ac94"/><path d="M17.258 16.595v.052l-.001.01c0 .001-.003.004-.005.004H17.2a.077.077 0 0 0-.015.002.03.03 0 0 1-.009.002h-.049c-.005 0-.007-.003-.008-.007l.001-.004.024-.051a.022.022 0 0 1 .005-.008.021.021 0 0 1 .013-.005c.03 0 .06-.003.09.001l.005.004" fill="#e09479"/><path d="m16.213 16.659.002-.007c.01-.02.018-.04.028-.058l.004-.006c.026.004.054.002.081.002.008 0 .016-.001.023.005a.106.106 0 0 1 .001.066c-.005.007-.012.006-.02.006-.016 0-.033-.001-.049.002h-.006a.217.217 0 0 1-.05 0c-.007 0-.017.002-.014-.01" fill="#e9b8a2"/><path d="m17.187 17.804.031-.014a.114.114 0 0 1 .026-.009.149.149 0 0 1 .081 0 .1.1 0 0 1 0 .067c-.005.004-.01.004-.016.004-.034 0-.069.002-.103.001-.007 0-.014 0-.019-.005a.046.046 0 0 1 0-.044" fill="#d1513d"/><path d="M17.395 16.595h.135l-.006.017-.025.05c-.017.008-.036.006-.054.008a.417.417 0 0 1-.05 0h-.052c-.006 0-.013 0-.019-.005a.01.01 0 0 1 .008-.004h.055c.006 0 .008-.002.008-.007v-.059" fill="#de8b70"/><path d="M16.774 15.48v-.005a.957.957 0 0 0 .027-.056l.003-.003c.005-.007.012-.007.019-.01.029-.003.057-.002.086-.002h.066a.02.02 0 0 1 .008.005c-.002.009-.01.008-.016.009h-.037c-.012 0-.016.003-.017.016 0 .016.004.03-.003.046l-.006.003c-.038.002-.076.002-.115.002-.005 0-.011-.001-.015-.005" fill="#efc9b6"/><path d="M17.187 16.803h-.124c-.004 0-.006-.003-.007-.007v-.002c.009-.02.018-.042.029-.061l.001-.001c.001.002.003.004.005.004.009 0 .018.001.027-.002.005-.002.011-.001.016-.001h.12v.003c-.012.008-.027.004-.04.005-.022 0-.022 0-.022.022 0 .013.002.025-.003.038l-.002.002" fill="#dd896e"/><path d="m17.535 15.922.008-.005.049-.02h.004c.019-.003.038-.003.057-.003.007.001.015 0 .021.006a.097.097 0 0 1 0 .067c-.003.003-.008.004-.012.004l-.105.001a.03.03 0 0 1-.013-.003c-.008-.007-.006-.017-.006-.026a.082.082 0 0 0-.003-.02" fill="#f0cfbd"/><path d="m16.837 15.345.001-.005.027-.057.006-.008a.016.016 0 0 1 .014-.008c.03 0 .058-.003.088.002a.008.008 0 0 1 .004.004c.006.018.003.036.003.054 0 .012-.008.015-.018.016-.018.001-.036-.002-.054.002a.281.281 0 0 1-.07 0" fill="#eabaa3"/><path d="M16.63 17.706a.592.592 0 0 1 .03-.064c.002 0 .003-.002.004-.003l.002-.002a.291.291 0 0 1 .102.001.102.102 0 0 1 0 .07c-.046 0-.092.001-.138-.002" fill="#cd2c2c"/><path d="M17.184 16.42c-.006.005-.014.007-.021.01-.016.008-.033.014-.05.021a.014.014 0 0 1-.006.002c-.02.005-.041.011-.061 0a.106.106 0 0 1-.001-.066c0-.002.003-.003.005-.004.042-.002.084-.002.125-.002.004 0 .008.002.01.004.01.012.01.024-.001.035" fill="#e6ae96"/><path d="M16.908 15.48v-.061c0-.003.003-.006.006-.006h.056l.008-.001.004-.003c.012-.01.026-.006.04-.003.011 0 .01.01.007.017v.014a.86.86 0 0 1-.01.05l-.005-.001c-.014-.003-.028-.001-.042-.002h-.046c-.006 0-.013 0-.018-.004" fill="#f0cebc"/><path d="m17.63 16.38-.005.002-.02.002c-.006.002-.012.002-.018.002h-.121v-.003c.012-.009.026-.005.039-.005.022 0 .023 0 .023-.023 0-.014-.004-.029.005-.04.023-.008.047-.003.07-.004.02.002.04-.005.058.005l-.001.004-.025.053-.004.007" fill="#e3a289"/><path d="M17.553 17.925c-.001-.004-.002-.007-.006-.007h-.085c-.009-.02-.005-.043-.002-.064 0-.004.004-.007.009-.009.021-.005.042-.002.064-.002h.043c.006 0 .013 0 .017.005v.003l-.003.004c-.001.006-.004.011-.007.016-.008.013-.014.027-.021.04l-.006.01-.003.004" fill="#d5664d"/><path d="M17.143 17.424c-.004.002-.008.004-.013.004s-.01 0-.016.002l-.015.001h-.12v-.003c.012-.01.026-.005.04-.005.021 0 .021 0 .022-.022 0-.013-.002-.026.003-.039h.129a.087.087 0 0 0-.01.024l-.012.022-.008.016" fill="#d04234"/><path d="M17.533 16.453h.064a.069.069 0 0 1-.003.008l-.01.021-.012.028c-.003.005-.004.01-.01.013h-.096c-.01-.019-.005-.04-.004-.06 0-.008.008-.008.014-.008.019 0 .038.002.057-.002" fill="#e1967c"/><path d="M16.56 17.989h-.06c.003-.014.01-.026.017-.04l.01-.022c.001-.003.002-.006.005-.008a.019.019 0 0 1 .014-.005.84.84 0 0 1 .071 0 .02.02 0 0 1 .013.004c.01.02.005.04.003.062 0 .008-.008.007-.014.007-.02 0-.04-.002-.06.002" fill="#cf4134"/><path d="M17.046 17.498h.064l-.008.017-.005.012-.02.04a.002.002 0 0 1-.001.001h-.097c-.01-.019-.005-.04-.004-.06 0-.008.008-.008.014-.008.019 0 .038.002.057-.002" fill="#ce2f2e"/><path d="m16.78 19.034.004-.01.02-.054.003-.003c.004-.005.008-.008.014-.008.028 0 .057-.003.085.002a.018.018 0 0 1 .005.004c.005.018.002.038.002.056-.001.01-.008.014-.018.014h-.053a.014.014 0 0 1-.006.003c-.02 0-.037.006-.055-.004" fill="#edc4b0"/><path d="M17.046 17.081h-.115c-.004 0-.005-.003-.006-.007l.003-.008.008-.017a.094.094 0 0 0 .01-.023.029.029 0 0 1 .009-.015c.002.002.003.003.006.003h.013c.006-.003.012-.003.018-.003h.124v.003c-.012.01-.027.005-.041.005-.024 0-.024 0-.024.024 0 .013.002.024-.003.036l-.002.002" fill="#d77156"/><path d="M17.184 16.42c.002-.005.004-.009.003-.015v-.019s.002 0 .003-.002c.03-.005.06-.002.09-.003.016 0 .03-.004.045.005a.097.097 0 0 1 0 .067h-.055c-.006 0-.011 0-.017.002l-.008.002h-.02c-.005 0-.007-.003-.008-.008 0-.005.004-.009.007-.014l.012-.028v-.005a.002.002 0 0 0-.001-.002l-.005.001-.038.016-.008.003" fill="#e4a88f"/><path d="M16.838 15.9h.055l.01-.001c.01-.004.02-.003.03-.003h.008c.003 0 .007 0 .009-.002.002-.002.002-.005.003-.008l.003-.004-.001.01-.011.069a.017.017 0 0 1-.002.005c-.01.008-.023.005-.034.006l-.051-.001c-.007 0-.014 0-.02-.004a.097.097 0 0 1 0-.067" fill="#fbefe9"/><path d="m16.959 19.037-.003.008-.031.058-.003.004c-.028 0-.057.002-.085.001-.022 0-.045.003-.067-.002a.005.005 0 0 1-.003-.005c.01-.01.023-.005.034-.005.034 0 .031.001.032-.033 0-.01-.003-.02.005-.03.004-.003.008-.002.013-.002.029.002.058-.002.088-.003.007 0 .017-.003.02.01" fill="#f0cebc"/><path d="M17.113 18.476h-.117v-.002a.96.96 0 0 1 .027-.068h.023a.094.094 0 0 1 .07 0v.055c0 .006 0 .01-.003.015" fill="#df9074"/><path d="M16.975 18.892h.05c.004 0 .007.003.007.008 0 .002 0 .004-.002.006l-.03.056c0 .002-.003.003-.004.005-.025.002-.05.001-.074.001a.024.024 0 0 1-.014-.005c-.01-.02-.005-.041-.004-.061.001-.008.008-.008.014-.008.02-.001.038.002.057-.002" fill="#ecc1ac"/><path d="M16.972 15.063v-.005l.029-.058c0-.003.003-.005.005-.007a.03.03 0 0 1 .02-.006h.053c.018 0 .02.004.018.022l-.001.009a.326.326 0 0 1-.005.033l-.002.014-.002.006c-.014-.004-.03-.003-.043-.003h-.053c-.007 0-.014 0-.02-.005" fill="#e29c82"/><path d="M16.546 15.96c0 .003.003.006.008.006h.079c.001.024.005.05-.004.071-.017.01-.035.003-.052.005h-.055c-.006-.002-.014-.002-.01-.013l.001-.005.03-.06c0-.003.001-.004.002-.005" fill="#fcf6f2"/><path d="M17.674 16.175h.038a.03.03 0 0 0 .016-.004v.004a2.037 2.037 0 0 0-.034.07c-.007.005-.014.005-.022.005-.022 0-.043.002-.065-.002-.002 0-.003-.002-.005-.003-.007-.019-.003-.039-.003-.057 0-.01.007-.012.015-.012.02 0 .04.003.06 0" fill="#e7ae96"/><path d="m17.761 16.1-.009.004h-.005c-.011.005-.022.004-.033.004h-.111v-.003c.013-.01.028-.005.042-.005.023-.001.023-.001.024-.023 0-.014-.004-.03.005-.041.022-.007.044-.002.066-.003.017 0 .035-.005.051.005l-.008.019-.019.04-.003.004" fill="#eabba5"/><path d="M17.207 17.29h-.091c-.009-.02-.005-.042-.003-.062.001-.009.01-.009.018-.01.018 0 .036.002.055-.002a.203.203 0 0 1 .055 0 .069.069 0 0 1-.003.008l-.012.025c-.005.01-.011.02-.014.03l-.005.011" fill="#d2523e"/><path d="M17.187 17.081h.102c.005 0 .011 0 .016-.003a.069.069 0 0 1-.003.008l-.011.022-.007.017a.063.063 0 0 1-.013.023.041.041 0 0 1-.028.01h-.056c-.023-.003-.047.003-.07-.005-.001-.01.008-.009.014-.01h.035c.012 0 .016-.004.016-.016.001-.016-.004-.03.005-.046" fill="#d46149"/><path d="M16.646 19.383v-.004c.01-.02.017-.043.025-.064l.002-.003c.007-.006.016-.005.024-.005l.052.001c.006 0 .013 0 .018.003.01.021.005.044.003.066 0 .002-.003.003-.004.005-.03.005-.059.001-.089.002-.01.001-.02.003-.03 0" fill="#f8e8de"/><path d="m17.405 18.2-.006-.002-.01-.001h-.065a.112.112 0 0 1 0-.07c.012-.01.026-.004.04-.005a.16.16 0 0 1 .03 0h.033c.006 0 .014-.001.015.009l-.003.009c-.01.02-.02.04-.032.059l-.002.002" fill="#da7f63"/><path d="M16.885 19.175a.021.021 0 0 1-.004.01l-.03.056-.003.004a.349.349 0 0 1-.079 0 .008.008 0 0 1-.004-.005.188.188 0 0 1 0-.067.012.012 0 0 1 .004-.005c.023-.005.046 0 .07-.002a.182.182 0 0 1 .032 0c.005.001.013 0 .014.01" fill="#f4dbcd"/><path d="M17.395 17.989h.116c.002 0 .004.002.005.004-.003.01-.009.02-.014.03l-.017.032c-.002.003-.003.006-.006.008-.007-.001-.014-.003-.02-.002h-.048c-.006 0-.012 0-.017-.005a.103.103 0 0 1 .001-.067" fill="#d77357"/><path d="M16.418 18.406h-.114l.002-.008.01-.02.01-.021a.025.025 0 0 1 .008-.015c.006-.01.016-.012.026-.012h.06c.022.002.045-.004.068.004 0 .01-.008.009-.014.01h-.034c-.013-.001-.017.005-.017.017 0 .016.004.03-.005.045" fill="#d76d53"/><path d="M16.824 17.29h.097c-.009.013-.008.028-.008.044 0 .01.002.02-.006.028-.022.007-.046.002-.069.003h-.03c-.006 0-.013.001-.014-.009a.234.234 0 0 1 .012-.03l.018-.036" fill="#d35843"/><path d="M16.368 18.268a.672.672 0 0 1 .028-.061c.002-.003.002-.007.006-.01a.019.019 0 0 1 .013-.005c.025.002.05-.005.074.005.009.019.005.04.003.06-.001.01-.01.01-.018.012-.017 0-.034-.002-.05.002h-.006c-.017 0-.034.006-.05-.003" fill="#d46048"/><path d="M16.975 17.22h-.052c-.006 0-.01 0-.017.002l-.008.001h-.033a.01.01 0 0 1-.008-.004l.001-.005c.01-.018.018-.038.027-.057.002-.003.003-.006.006-.008a.005.005 0 0 0 .005.003l.012.001h.067a.094.094 0 0 1 0 .066" fill="#d5664d"/><path d="m16.411 16.242.001.003c0 .002.002.003.004.003.007-.003.015-.002.023-.002h.12v.003c-.013.01-.027.005-.04.005-.024 0-.025.002-.026.024 0 .014.004.027-.005.039-.022.009-.044.003-.066.004a.16.16 0 0 1-.03 0c-.007-.001-.014 0-.015-.01l.002-.005.028-.058.004-.006" fill="#f3d9cb"/><path d="M17.01 15.55c0 .004 0 .008-.002.012a1.03 1.03 0 0 1-.008.05c0 .004 0 .01-.002.013 0 .002 0 .004-.002.006-.007-.007-.014-.009-.024-.007-.02.003-.043.001-.065.001-.022 0-.045.004-.067-.003-.002-.002-.003-.003-.002-.005.013-.008.028-.005.042-.005.022 0 .023 0 .023-.022.001-.013-.002-.025.003-.038l.004-.005c.021-.005.043 0 .065-.002.012.001.024-.003.034.005" fill="#f5e0d4"/><path d="M16.56 16.175h-.056c-.006 0-.01 0-.017.002l-.008.001h-.027c-.005 0-.007-.003-.007-.007l.002-.007c.01-.019.02-.04.028-.06l.003-.004a.057.057 0 0 0 .018.003h.045c.007 0 .013 0 .02.005a.103.103 0 0 1-.002.067" fill="#f7e6dd"/><path d="M16.569 19.583v-.005l.022-.054c0-.002 0-.003.002-.003.01-.009.023-.005.034-.005a.504.504 0 0 1 .055 0c.007 0 .017 0 .015.011-.002.001-.002.005-.003.007-.003.001-.002.004-.004.006s-.001.005-.003.007l-.004.007-.002.004c-.003.001-.003.004-.004.006-.003.001-.002.004-.003.007-.003.001-.002.004-.004.007-.002.001-.002.004-.003.006a.018.018 0 0 1-.016.008c-.022 0-.045.002-.067 0-.006 0-.014.001-.015-.009" fill="#fefbfa"/><path d="M17.335 17.011h-.081c-.01-.02-.005-.04-.003-.062 0-.009.01-.009.019-.009.018-.001.036.002.054-.002.015-.002.03-.006.044.003v.002a.456.456 0 0 1-.032.067l-.001.001" fill="#d76d53"/><path d="M17.332 18.338c-.001 0-.003-.003-.005-.003h-.073v-.062c0-.002.004-.005.007-.005h.059c.01-.005.02-.004.029-.004.007 0 .013.003.019.007-.011.022-.022.044-.035.065a.002.002 0 0 1-.002.002" fill="#dd8a6e"/><path d="M16.908 15.966h.034v.012l-.008.043-.003.01c-.002.003-.003.01-.009.01-.028 0-.057.005-.085-.004a.106.106 0 0 1 0-.066c.015-.006.031-.002.047-.003.008 0 .016.002.024-.002" fill="#f8e7dd"/><path d="M16.697 19.528c0-.004-.003-.007-.008-.007h-.063c-.007-.024-.01-.05.003-.072.022-.007.045-.003.067-.004h.027c.005 0 .013 0 .014.009 0 0 0 .003-.002.005l-.035.065c0 .002-.002.003-.003.004" fill="#fdf8f5"/><path d="M16.27 18.476h.08c.01.02.006.043.004.064a.008.008 0 0 1-.004.004c-.023.002-.046-.002-.07.002h-.03a.023.023 0 0 0-.013.004v-.005l.03-.062.004-.007" fill="#d97a5e"/><path d="M17.077 15.13c0 .015-.004.028-.005.043l-.006.034a.011.011 0 0 1-.003.008c-.005-.007-.011-.012-.021-.01-.022-.002-.044.004-.066-.004-.01-.02-.005-.043-.004-.064 0-.002.002-.004.004-.005.015-.006.03-.002.046-.003.007 0 .014 0 .02-.002h.007c.009 0 .019-.005.028.003" fill="#e6ad95"/><path d="M17.744 15.9h.053l.015-.002c.004-.002.008-.002.012-.002h.021a.028.028 0 0 0 .013-.003v.005a1.574 1.574 0 0 1-.033.065c-.002.003-.004.006-.008.006-.024.003-.049.007-.074-.002a.103.103 0 0 1 .001-.067" fill="#eec8b4"/><path d="M16.767 17.639h-.104c0-.004 0-.007.002-.011l.01-.017c.004-.011.01-.021.013-.032l.005-.01h.077c.004.013.001.026.002.04 0 .02.001.022.023.022h.033c.005 0 .013-.001.012.01a.114.114 0 0 1-.073-.002" fill="#ce3530"/><path d="M16.838 17.498h-.055l-.011.001c-.01.003-.02.002-.03.002h-.015a.117.117 0 0 1 .009-.024l.009-.019a.107.107 0 0 0 .01-.022.016.016 0 0 1 .006-.008c.022-.004.045-.002.067-.002a.03.03 0 0 1 .012.005.118.118 0 0 1-.002.067" fill="#d04938"/><path d="M16.314 16.447c0-.002 0-.005.002-.007a2.37 2.37 0 0 0 .024-.05c0-.003.003-.005.004-.006.004-.001.008-.002.012-.001h.048c.006 0 .013-.001.019.003a.13.13 0 0 1 0 .068c-.007.006-.015.005-.022.005-.017 0-.033-.002-.05.002a.088.088 0 0 1-.028 0c-.005 0-.012 0-.012-.007.002-.002 0-.005.003-.007" fill="#efccb9"/><path d="M17.325 16.803h.108l-.007.019a1.99 1.99 0 0 1-.023.047l-.001.001c-.004.007-.011.008-.02.008h-.056a.02.02 0 0 1-.008-.004c.002-.018.002-.037.002-.055 0-.006 0-.012.005-.016" fill="#d9795e"/><path d="M16.838 17.848h.07c.013-.008.025-.008.037 0 0 .004-.002.007-.003.011-.01.016-.015.035-.025.05-.002.005-.002.008-.002.012h-.003c-.002-.002-.005-.003-.01-.003h-.064l-.002-.002a.12.12 0 0 1 .002-.068" fill="#d04737"/><path d="M16.351 16.595h-.097c-.004 0-.007-.003-.007-.008l.002-.006.027-.057.004-.007c.017.003.033.002.05.002.007 0 .015 0 .022.005a.142.142 0 0 1 .001.068l-.002.003" fill="#ebbfaa"/><path d="M16.975 18.892c-.002.003-.004.004-.007.004h-.052c-.006 0-.008.003-.008.009v.058h-.084c-.006 0-.012 0-.017.003l.001-.008.023-.058.003-.004c.002-.003.004-.006.007-.007.023-.002.045-.006.067.003z" fill="#ebbda8"/><path d="M16.975 15.2h.071c-.002.01-.01.009-.016.009h-.035c-.01 0-.015.006-.015.015v.03c0 .007 0 .013-.005.017h-.087a.033.033 0 0 0-.017.004l.001-.005.027-.057a.04.04 0 0 1 .005-.01c.002-.001.004-.004.008-.005.021-.002.042-.006.063.003" fill="#e7b29b"/><path d="M16.838 16.037h.082c.004 0 .006-.002.008-.005 0 0 .002 0 .003-.002v.008l-.008.046a.019.019 0 0 1-.002.007c-.004.017-.007.02-.027.021h-.057c-.021 0-.042.004-.063-.004-.002-.009.007-.008.01-.009h.03c.014 0 .018-.005.018-.017 0-.015-.002-.029.003-.043 0 0 0-.002.002-.002" fill="#f5dfd2"/><path d="M17.254 16.595h-.104v-.004l.003-.004c.002-.009.006-.016.01-.024a.378.378 0 0 1 .017-.035l.003-.004h.074c.002.024.006.048-.003.071" fill="#e19b80"/><path d="M16.972 15.063h.074a.097.097 0 0 1 0 .067c-.017.004-.034 0-.051.002-.006 0-.013-.002-.02 0a.033.033 0 0 1-.037 0v-.002l.03-.063.004-.004" fill="#e4a38a"/><path d="M17.533 17.71c.002-.003.004-.004.007-.004h.055c.006 0 .008-.003.008-.009v-.052c0-.002.004-.005.005-.005h.087c.004 0 .007 0 .009.003l-.01.02-.024.044-.003.003c-.013.01-.028.004-.042.005h-.073c-.007 0-.014 0-.02-.005" fill="#d1523d"/><path d="M16.969 18.546h.077v.067a.005.005 0 0 1-.005.003c-.033.002-.066.004-.1 0l.009-.024.016-.042.003-.004" fill="#e29c82"/><path d="M17.395 16.665h.063c.01-.004.02-.003.03-.004h.011c0 .003 0 .006-.002.008l-.01.021-.013.028a.04.04 0 0 1-.008.014h-.07a.097.097 0 0 1 0-.067" fill="#dc8569"/><path d="M16.63 17.918h-.097v-.007c.013-.02.02-.044.032-.066.023-.004.044-.002.066-.002.02.001.04-.004.062.003.002.01-.007.01-.011.01h-.03c-.013 0-.017.004-.017.017 0 .014.002.028-.003.043l-.002.002" fill="#ce3630"/><path d="M16.774 15.48h.13c0 .009-.007.007-.013.008h-.028c-.018 0-.02.002-.02.02 0 .014.002.027-.002.04l-.005.004c-.022.006-.045.002-.068.003-.01 0-.02.002-.028-.005 0-.002 0-.004.002-.005l.028-.06a.022.022 0 0 1 .004-.005" fill="#f0d0be"/><path d="M17.096 15.01V15c0-.006-.003-.008-.008-.008h-.083l.001-.004a1.243 1.243 0 0 1 .03-.06c.005-.008.013-.011.023-.011a.228.228 0 0 1 .037 0c.005 0 .013 0 .013.008s0 .016-.002.023l-.004.03-.004.027-.002.004" fill="#e0957a"/><path d="M16.213 16.659c.001.004.003.007.008.007h.06a.087.087 0 0 1 0 .067h-.058c-.005 0-.009 0-.014.002a.07.07 0 0 1-.025 0c-.003 0-.004-.003-.005-.006l.002-.007.028-.056.004-.007" fill="#e8b39b"/><path d="m16.627 19.66-.002.005-.032.06-.003.003c-.023.01-.046.005-.07.003-.004 0-.008-.004-.004-.01v-.006l.023-.057c0-.002.002-.003.003-.005.024-.002.048 0 .072 0 .005 0 .01.001.013.006" fill="#faeee7"/><path d="M16.837 15.345c.005-.003.01-.004.016-.003h.055l.002.002c.004.022.007.044-.002.064h-.055c-.006 0-.01 0-.017.002-.005.003-.01.002-.016.002a.05.05 0 0 0-.017.003l.002-.005.028-.058.004-.007" fill="#ecc1ac"/><path d="M16.908 15.62h.046c.008 0 .017.001.025-.003h.011c.002 0 .004.002.005.004l.001.01c0 .012-.004.024-.005.036a.528.528 0 0 1-.005.027c-.006 0-.01-.003-.016-.002h-.046c-.006 0-.012 0-.017-.005a.103.103 0 0 1 .001-.067" fill="#f8eae1"/><path d="M16.975 15.27v-.059c0-.003.003-.006.006-.006h.052l.008-.001c.002 0 .003-.002.005-.003h.011c.002 0 .004.003.005.005l.001.009a.083.083 0 0 1-.003.022l-.005.034a.019.019 0 0 1-.002.008c-.019-.004-.038-.002-.056-.002-.008-.001-.016 0-.022-.006z" fill="#e8b69f"/><path d="M16.627 19.66c-.006-.002-.012-.002-.018-.002h-.057c-.004 0-.008 0-.01-.005a.03.03 0 0 1 .002-.008l.022-.057c0-.002.002-.003.003-.005 0 .002.003.004.005.004h.005l.073.001c.006 0 .01-.002.015-.004 0 .003-.001.005-.004.007a.013.013 0 0 1-.01.004c-.016 0-.02.008-.018.023a.067.067 0 0 1-.008.04z" fill="#fdf8f5"/><path d="M16.697 19.312h-.023v-.005l.024-.06c0-.002.002-.003.003-.005a.097.097 0 0 1 .067 0c.009.019.005.04.003.06 0 .009-.008.008-.014.009-.02 0-.04-.002-.06 0" fill="#f5e0d3"/><path d="M17.593 17.848h-.06c-.01-.021-.006-.042-.004-.062.001-.01.01-.01.017-.01l.052-.001.006-.001c.01 0 .02-.006.026.007l-.002.003c0 .002 0 .002-.002.003a.365.365 0 0 1-.014.028l-.018.032" fill="#d46048"/><path d="M16.975 15.27h.07a.012.012 0 0 1 .008.009c0 .013-.004.023-.005.036l-.003.019-.003.008c-.012.008-.026.004-.039.005h-.076c-.007 0-.014 0-.019-.005.002-.003.004-.004.007-.004h.052c.006 0 .008-.003.008-.008v-.059" fill="#ebbfa9"/><path d="M16.697 15.828h-.067c-.007.006-.015.007-.024.004v-.005l.03-.06c0-.002.002-.004.004-.006.004-.007.01-.008.019-.008h.038c.023.001.046-.004.069.004.002.001.002.003 0 .005-.013.007-.028.004-.043.004-.02.001-.02.001-.021.022-.001.014.004.027-.005.04" fill="#faf0e9"/><path d="M16.908 18.963h.082c.003 0 .005.002.007.004-.004.012-.01.021-.016.033l-.018.033-.003.004c-.002-.002-.003-.004-.006-.004h-.117c.002-.003.005-.003.008-.003h.055c.006 0 .008-.003.008-.008v-.059" fill="#eec8b4"/><path d="m16.673 15.69.001-.004.029-.06.004-.005.005-.003a.163.163 0 0 1 .054 0 .008.008 0 0 1 .004.005.142.142 0 0 1-.002.065c-.009.007-.019.005-.029.005-.014 0-.028-.001-.042.002-.008 0-.017.003-.024-.004" fill="#f5dfd2"/><path d="M17.607 16.245h.087l-.008.02-.021.043-.004.007h-.057c-.007-.023-.012-.048.003-.07" fill="#e4a78f"/><path d="M16.838 16.108h.056a.052.052 0 0 0 .018-.003c.005-.002.006-.004.007-.01 0-.001 0-.003.003-.004l-.001.012a1.459 1.459 0 0 1-.01.065l-.002.007h-.004a.31.31 0 0 1-.068 0 .097.097 0 0 1 0-.067" fill="#f3d7c8"/><path d="M16.979 18.684a.04.04 0 0 0-.003.015v.055c-.01.009-.021.005-.032.006l-.034-.001c-.008 0-.015.002-.021-.005v-.003l.025-.064c0-.001 0-.002.002-.003.019-.01.038-.005.058-.003.002 0 .004 0 .005.003" fill="#e5a890"/><path d="M16.515 19.722c.001.004.002.007.006.007h.068v.005l-.034.06c0 .003-.002.004-.003.005-.019.01-.038.006-.058.004-.005-.001-.009-.004-.006-.011l.002-.008.022-.058.003-.004" fill="#f8e5db"/><path d="M16.63 17.706h.138c.024-.002.048-.006.07.003a.102.102 0 0 1 0 .067h-.07v-.05l-.001-.01c0-.003-.003-.006-.005-.006h-.132v-.004" fill="#d34344"/><path d="M17.254 16.043c.002.001.003.003.004.006v.046a.021.021 0 0 1-.003.012.097.097 0 0 1-.067 0h-.068c-.004 0-.007 0-.01-.002.01-.006.022-.01.032-.015l.096-.04c.006-.003.01-.006.016-.007" fill="#f1d0bf"/><path d="M17.674 15.9h-.064l-.008-.001a.005.005 0 0 1-.005-.003c0-.001 0-.002.002-.002l.129-.056a.03.03 0 0 0 .009-.002c.005 0 .007.002.007.007v.048c0 .002-.003.004-.005.005h-.056c-.003 0-.007 0-.01.004" fill="#f2d3c3"/><path d="M16.489 18.197h-.087c0-.002 0-.005.002-.008l.01-.02.009-.02c.003-.007.006-.015.012-.022.017-.01.034-.005.052-.003l.004.004a.152.152 0 0 1 0 .067l-.002.002" fill="#d25842"/><path d="M16.975 15.688h.002c.006 0 .006 0 .008.007.001.012-.003.023-.004.035a.475.475 0 0 1-.009.047v-.014c0-.002-.004-.004-.006-.004l-.01-.001h-.048c-.01-.02-.005-.04-.004-.06.001-.008.008-.008.014-.008.02-.001.038.002.057-.002" fill="#fcf4f0"/><path d="M17.89 15.826a.037.037 0 0 1-.016.003h-.107c-.003 0-.007 0-.009-.003.008-.005.018-.008.027-.012l.08-.034c.003-.002.007-.005.013-.005.002-.001.005-.001.007-.003s.005-.001.007-.003l.002-.001c.003-.001.006-.001.008-.003.002-.001.005-.001.007-.003.007-.002.01 0 .007.007-.003 0-.002.004-.004.007h.001c-.003 0-.003.004-.004.007v-.001c-.004.002 0 .008-.004.01-.002.002 0 .006-.003.007l-.003.006c-.003.002-.002.005-.004.007s0 .005-.003.007c-.002.002-.002.005-.003.007z" fill="#f2d6c6"/><path d="M16.838 19.034v.061c0 .002-.003.005-.006.005h-.06l-.005.004c-.004.004-.01.004-.013 0V19.1l.025-.063c0-.001 0-.003.002-.004z" fill="#efcab7"/><path d="M16.697 19.312a.01.01 0 0 1 .007-.003h.055c.006 0 .008-.003.008-.01v-.057h.076c.002 0 .004.002.005.004l-.002.005-.03.055-.004.007c-.015.007-.03.008-.044-.001z" fill="#f6e3d8"/><path d="M17.744 15.966h.065c.005.001.011 0 .016-.003v.003l-.032.068-.002.003h-.05a.097.097 0 0 1 0-.069c.001 0 .002 0 .003-.002" fill="#ecc1ac"/><path d="M16.697 19.45h-.067c-.003.002-.006.006-.011.004 0-.002 0-.005.002-.007l.023-.06.003-.003a.03.03 0 0 1 .016-.004h.105c-.002.009-.01.008-.016.008h-.035c-.011 0-.015.005-.015.015v.03a.026.026 0 0 1-.005.017" fill="#faede6"/><path d="M17.325 17.78h-.081l.017-.007c.005-.003.009-.006.015-.007l.003-.001.045-.021.022-.01a.095.095 0 0 1 .02-.008l.015-.007a.036.036 0 0 1 .01-.002c.01.02.008.04.003.06-.023.01-.046.005-.07.004" fill="#d14c3a"/><path d="M17.392 17.777v-.061l.003-.002c.004-.001.007-.004.01-.003h.058a.103.103 0 0 1 0 .067.115.115 0 0 1-.071-.001" fill="#d1513c"/><path d="M17.462 18.056h.01c.004 0 .006.003.007.007a.021.021 0 0 1-.004.01c-.008.012-.014.026-.02.039a.094.094 0 0 1-.013.018.005.005 0 0 0-.005-.003l-.009-.001h-.033c-.01-.019-.005-.04-.004-.06.001-.008.008-.008.014-.008.02-.001.038.002.057-.002" fill="#d97a5e"/><path d="M16.885 19.175c-.002-.002-.004-.004-.007-.004h-.041a.091.091 0 0 1 .001-.067h.046c.007 0 .013 0 .02-.002.003-.002.007 0 .011 0s.006.002.006.006c0 .002 0 .005-.003.006l-.03.057c0 .002-.002.003-.003.004" fill="#f2d5c6"/><path d="M17.187 17.153h.05c.008 0 .016 0 .024-.003l.01-.001-.001.005c-.01.02-.018.042-.029.062-.005.002-.009.004-.014.003h-.04l-.002-.002a.108.108 0 0 1 .002-.064" fill="#d35842"/><path d="M16.492 16.108h-.007c-.004 0-.006-.003-.007-.008l.002-.006.029-.06.003-.004c.001.005.003.008.007.008h.04a.1.1 0 0 1 .001.066c-.015.005-.031 0-.047.002-.007 0-.014-.002-.021.002" fill="#faefe9"/><path d="M16.368 18.268h.05a.084.084 0 0 1 0 .066h-.058a.038.038 0 0 0-.023.006h-.003v-.004l.028-.056.006-.012" fill="#d5664c"/><path d="M16.828 17.43h-.058c-.004 0-.007 0-.01-.002l.003-.008c.004-.008.008-.015.01-.023.004-.005.006-.011.009-.017.003-.008.006-.016.012-.023.002.002.004.004.006.004h.038c.01.019.005.04.004.06-.001.009-.01.007-.014.01" fill="#d2523e"/><path d="M16.488 19.792c.001.004.003.007.008.007h.056l-.003.006-.03.057c0 .002-.002.003-.003.004-.014.008-.029.008-.044.008-.006 0-.014-.002-.01-.012l.001-.008.022-.058.003-.004" fill="#f5dccf"/><path d="M16.767 18.476h.055c.003 0 .006 0 .01.003-.013.007-.027.01-.039.017-.004 0-.008.003-.013.005l-.044.019-.026.012c-.002 0-.004 0-.006.002-.005-.001-.007-.003-.007-.008v-.05a.094.094 0 0 1 .07 0" fill="#dd8a6e"/><path d="M17.11 14.925c-.001 0-.003-.003-.006-.003h-.038a.05.05 0 0 0-.03.006v-.005l.028-.057c0-.003.003-.005.005-.008.015-.014.032-.008.049-.007.005 0 .004.007.002.011l-.002.021c-.002.012-.005.023-.005.035a.01.01 0 0 1-.003.007" fill="#de8e72"/><path d="M16.975 15.342h.067v.011l-.009.052v.012l-.004.006v-.01c0-.002-.004-.004-.006-.004h-.048a.094.094 0 0 1 0-.067" fill="#eec7b4"/><path d="M16.351 16.386c-.003 0-.005 0-.007-.003l.002-.007.028-.058.004-.006c.001.002.003.004.005.004h.039a.1.1 0 0 1 0 .066c-.016.005-.033.001-.05.003-.007 0-.014-.002-.021.001" fill="#f2d4c4"/><path d="M16.908 18.892h-.058a.03.03 0 0 0-.016.004c.001-.009.005-.016.008-.024l.016-.042.003-.004.005-.004c.013-.001.027-.003.04.002l.002.002z" fill="#e8b59e"/><path d="M16.697 19.45v-.06c0-.003.003-.006.006-.006h.052l.008-.001c.002 0 .003-.002.005-.003.004-.002.007-.002.007.004-.003 0-.002.004-.004.006l-.002.006-.03.054-.002.004c-.002-.003-.004-.004-.007-.004z" fill="#fbf2ec"/><path d="M17.325 16.873h.06c.007 0 .012 0 .017-.003l-.002.008a.29.29 0 0 1-.01.018l-.01.022c-.001.006-.003.012-.008.016-.002.001-.002.004-.003.006h-.044l-.002-.002a.11.11 0 0 1 .002-.065" fill="#d87257"/><path d="M16.63 17.848h-.055a.014.014 0 0 1-.01-.004l.004-.008.008-.017c.008-.015.014-.03.02-.044 0-.002.002-.003.003-.004 0 .003.002.006.006.006h.162v.004c-.007.005-.015.005-.022.005h-.082c-.03 0-.028 0-.03.028 0 .012.004.023-.004.034" fill="#d34243"/><path d="M16.351 16.524h-.063c-.005 0-.007-.002-.008-.007l.002-.005.025-.052.004-.006a.008.008 0 0 0 .007.004h.033l.002.002a.13.13 0 0 1 0 .062l-.002.002" fill="#eec7b3"/><path d="M16.767 19.242H16.7l.001-.003a1.514 1.514 0 0 1 .025-.064c.013-.012.027-.011.041-.003z" fill="#f3d7c8"/><path d="M16.938 15.133h.037v.067h-.055a.045.045 0 0 0-.016.003l.002-.004.027-.059.005-.007" fill="#e5a990"/><path d="m16.461 19.863.001.003c.001.002.002.004.005.004.007 0 .015 0 .023-.002l.01-.001h.016l-.003.007c-.01.019-.02.04-.032.059 0 .002-.002.003-.003.004-.012.008-.025.006-.038.004-.003-.001-.007-.003-.006-.008l.002-.008.022-.058.003-.004" fill="#f3d6c7"/><path d="M16.945 17.848h-.037v-.052l.001-.01c0-.002.002-.004.004-.004l.003-.001h.052a.01.01 0 0 1 .007.003c0 .002 0 .005-.002.007l-.01.02-.009.02c-.002.007-.004.013-.009.017" fill="#cf4034"/><path d="M17.046 16.453h.06a.099.099 0 0 1-.025.013 1.052 1.052 0 0 0-.07.03c-.01.004-.02.01-.031.013l-.005.001v-.048c0-.002.003-.005.005-.005h.062l.004-.004" fill="#e5aa92"/><path d="M17.395 15.983v.055h-.105l-.011-.001-.004-.002a.041.041 0 0 1 .01-.007l.094-.04.006-.001c.002-.002.005-.001.007-.003l.003-.001" fill="#f1d2c2"/><path d="M17.117 18.614h.058c.003 0 .007 0 .009.003l-.023.045c-.004.008-.007.015-.013.022h-.031a.105.105 0 0 1 0-.07" fill="#e5a991"/><path d="M16.975 18.684h-.06c0-.006.004-.011.006-.017l.017-.046.003-.004a.045.045 0 0 1 .016-.003h.09c-.003.008-.01.008-.017.008h-.035c-.01 0-.015.004-.015.015v.03a.026.026 0 0 1-.005.017" fill="#e3a187"/><path d="m16.979 17.64.064-.001-.001.005c-.01.019-.017.039-.027.058-.002.002-.003.006-.006.008-.024.01-.035.005-.034-.021 0-.017-.005-.033.004-.05" fill="#cd2c2d"/><path d="M16.566 18.593h-.003a.009.009 0 0 1-.007-.009v-.031a.009.009 0 0 1 .006-.006l.008-.001h.043c.006 0 .013 0 .018-.002l.007-.001h.028c.003 0 .006.001.007.003l-.003.003c-.022.01-.044.02-.066.028l-.032.015-.006.001" fill="#de8c71"/><path d="M17.63 17.78a.01.01 0 0 0-.007-.003h-.02a.094.094 0 0 1 0-.066h.064a.015.015 0 0 1-.004.01c-.007.01-.01.02-.017.03l-.012.025c0 .002-.003.003-.004.005" fill="#d35b44"/><path d="m17.07 18.83-.001-.004c-.001-.003-.002-.004-.005-.004h-.018a.097.097 0 0 1 0-.068h.048l.006.001c.004 0 .006.003.007.006l-.027.051c-.003.006-.005.012-.01.017" fill="#e9b69f"/><path d="M16.434 19.933c.002.002.004.004.007.004h.037v.004l-.034.062c0 .002-.002.003-.003.004-.008.006-.017.006-.025.005-.006-.002-.012-.003-.008-.012l.003-.008a.83.83 0 0 1 .02-.053l.003-.006" fill="#f0cdbb"/><path d="M16.71 15.62h-.004l.001-.005.03-.06c0-.002.002-.003.003-.005h.027c.01.02.005.042.003.063 0 .002-.002.004-.004.005-.019.002-.037-.002-.056.002" fill="#f2d5c5"/><path d="m17.12 14.862-.001-.005-.002-.003c-.011.002-.023 0-.034 0a.035.035 0 0 0-.014.004l.001-.005.028-.058a.047.047 0 0 0 .005-.01c.008-.006.017-.008.025-.002.006.005.004.013.002.018a.085.085 0 0 1-.003.023.329.329 0 0 0-.004.03.01.01 0 0 1-.003.008" fill="#dc866a"/><path d="M17.022 16.867c.001.005.003.007.007.007h.017c.01.019.005.04.003.06 0 .006-.004.009-.01.009-.017-.001-.034.002-.05-.002.001-.01.006-.017.01-.026a.991.991 0 0 1 .022-.047l.001-.001" fill="#da8064"/><path d="M16.606 15.832a.03.03 0 0 1 .016-.004h.008v.057l-.001.01c0 .001-.003.003-.005.003l-.01.001h-.027l-.015.003c0-.002 0-.003.002-.005l.029-.06c0-.003.002-.004.003-.005" fill="#fcf6f3"/><path d="m17.535 15.922.003.001c.002.001.004.002.004.005l.001.015v.023c-.002.002-.005.003-.007 0h-.059a.088.088 0 0 0-.016.002.053.053 0 0 1-.025.001l-.004-.003c.002-.002.005 0 .007-.003l.012-.006.068-.029c.002 0 .005 0 .007-.002s.005 0 .007-.003h.002" fill="#f1d3c3"/><path d="M16.673 15.69h.024a.097.097 0 0 1 0 .068h-.043a.04.04 0 0 0-.015.003l.002-.004.028-.06.004-.006" fill="#f7e5da"/><path d="M17.01 15.55h-.035c-.009-.02-.005-.043-.003-.064l.004-.004c.014 0 .03-.002.042.001a.008.008 0 0 1 .001.004c.001.012-.003.024-.004.036a.79.79 0 0 0-.003.02l-.003.007" fill="#f4d9cb"/><path d="M16.489 18.126h-.054v-.005c.01-.02.019-.042.03-.062h.024a.097.097 0 0 1 0 .067" fill="#d14f3b"/><path d="M17.046 15.13v-.067h.033c.005 0 .007.003.008.007a.076.076 0 0 1-.003.021l-.005.031c0 .003 0 .006-.002.008z" fill="#e4a78e"/><path d="M16.865 18.826h-.003v-.004l.024-.061.003-.006h.02c.009.02.004.043.003.064l-.004.004c-.014.003-.03-.002-.043.003" fill="#e6ad95"/><path d="M16.408 20c.001.005.003.007.007.007h.026l-.015.031-.016.03-.005.006c-.014.012-.022.01-.024-.004.001-.008.005-.015.008-.022l.016-.043.003-.005" fill="#edc7b3"/><path d="M17.187 17.804v.044h-.094a.042.042 0 0 1 .017-.01l.011-.005c.014-.008.03-.012.045-.02l.021-.009" fill="#d14c39"/><path d="M16.774 19.383c-.002-.003-.004-.004-.007-.004v-.067l.045.001-.003.008c-.01.02-.02.04-.032.058l-.003.004" fill="#faede6"/><path d="M16.767 19.171h-.026a.037.037 0 0 0-.015.003l.003-.009.022-.057.002-.004h.014a.097.097 0 0 1 0 .067z" fill="#f0cebc"/><path d="M16.381 20.07c.001.006.002.008.007.009a.033.033 0 0 0 .017-.004c-.001.006-.004.01-.006.014l-.026.048a.022.022 0 0 1-.005.008l-.003.004c-.007.003-.014.004-.011-.008l.002-.008.022-.058.003-.004" fill="#ebbda8"/><path d="M16.979 17.64v.065c0 .002.003.004.005.004h.025l-.001.007-.03.06h-.002c-.01-.01-.005-.023-.006-.034v-.083a.03.03 0 0 1 .006-.02l.003.001" fill="#ce3731"/><path d="M17.13 14.801c0-.017 0-.018-.017-.017h-.01c.011-.023.021-.047.034-.071.002 0 .001-.005.003-.006.009.002.004.008.004.013-.001.007-.001.013-.003.019a.254.254 0 0 0-.004.029l-.005.029a.008.008 0 0 1-.002.004" fill="#da7e63"/><path d="M16.62 19.453c.002 0 .006-.004.01-.004a.04.04 0 0 0-.004.015v.056h-.033l.001-.005.022-.058.003-.004" fill="#fbf3ef"/><path d="M16.627 19.659c-.001-.007.004-.013.003-.02v-.04c0-.005.002-.007.008-.007h.025l-.001.005-.032.059-.003.003" fill="#faf0eb"/><path d="M16.354 20.14c0 .006.003.009.008.009h.003c-.001.003-.001.006-.003.008l-.031.059c-.007 0-.005-.004-.004-.007a.558.558 0 0 0 .009-.023l.015-.04.003-.005" fill="#e7b29c"/><path d="M.499.494V.486C.499.484.497.482.495.481c0-.006.003-.009.006-.013L.504.467.505.47a.054.054 0 0 0-.003.019L.501.492.499.494" fill="#d0604b" mask="url(#j)" transform="translate(16.645 14.226)"/><path d="M16.327 20.21a.01.01 0 0 0 .003.006l-.01.02h-.003l.001-.007.002-.003c.002-.006.003-.013.007-.017" fill="#db8e7b"/><path d="M17.916 15.769c0-.005-.003-.007-.007-.008.003-.003.007-.004.01-.005h.003a.023.023 0 0 1-.006.013" fill="#f0cfbd"/><path d="M16.317 20.236h.004l-.007.014h-.001l-.002-.002a.034.034 0 0 1 .006-.012" fill="#d57766"/><path d="M17.05 16.645a.027.027 0 0 1 .006-.014l.001.003c0 .005-.003.008-.005.01 0 .002-.002.002-.003 0" fill="#856664"/><path d="M16.11 16.877c0 .003 0 .005.003.007l-.006.003c-.002 0-.003-.002-.002-.004s.001-.005.004-.006" fill="#e0977f"/><path d="M17.029 16.692c-.001-.004 0-.007.004-.01v.004c0 .002-.001.005-.004.006" fill="#836461"/><path d="M17.905 15.791c0-.003 0-.008.004-.01 0 .004 0 .008-.004.01" fill="#f0cfbd"/><path d="M17.005 16.742c0-.004.001-.008.004-.01l.001.002v.001a.008.008 0 0 1-.005.007" fill="#81615e"/><path d="m16.987 16.785-.001-.004c0-.003 0-.004.003-.006 0 .004 0 .007-.002.01" fill="#8c5f5c"/><path d="M16.112 16.87c0 .002 0 .005-.003.007 0-.003.001-.006.003-.008m.018.008c.001-.003.003-.004.006-.004-.002.003-.004.004-.007.004" fill="#e0977f"/><path d="M17.902 15.765c-.002.003-.005.003-.008.003.002-.003.005-.003.008-.003m-.01.004a.01.01 0 0 1-.007.003c.002-.003.004-.004.007-.003" fill="#f0cfbd"/><path d="M17.217 18.553c0-.003 0-.005.003-.007 0 .003 0 .006-.003.007" fill="#e19b81"/><path d="M17.913 15.776c0-.003 0-.006.003-.007 0 .003 0 .005-.003.007m-.028-.004c-.002.003-.004.003-.007.003.001-.003.004-.003.007-.003" fill="#f0cfbd"/><path d="M16.992 16.77c0-.004 0-.006.003-.008.001.004 0 .006-.003.008" fill="#85605c"/><path d="M16.995 16.763c0-.003 0-.006.003-.007.001.003 0 .005-.003.007" fill="#8a6d6a"/><path d="M16.999 16.756c0-.003 0-.006.003-.007 0 .003 0 .005-.003.007" fill="#946f6c"/><path d="M17.002 16.75c0-.004 0-.007.003-.008.001.003 0 .006-.003.007" fill="#9d706c"/><path d="M16.123 16.88c.002-.003.004-.003.007-.003a.01.01 0 0 1-.007.003" fill="#e0977f"/><path d="M17.91 15.783c0-.003 0-.006.002-.007 0 .002 0 .005-.003.007" fill="#f0cfbd"/><path d="M17.01 16.736v-.006c0-.002.001-.002.002-.001 0 .003 0 .006-.003.007" fill="#ad6f6a"/><path d="M17.368 16.94a.01.01 0 0 1 .003-.006c0 .003 0 .006-.003.007" fill="#d76d53"/><path d="M17.902 15.798a.01.01 0 0 1 .003-.007c0 .003 0 .006-.003.007" fill="#f0cfbd"/><path d="M17.012 16.726c0-.003.001-.006.003-.008.002.002.002.003.001.004a.008.008 0 0 1-.004.004" fill="#7f5f5c"/><path d="M17.016 16.722v-.006c0-.002.002-.002.003 0 0 .002-.001.005-.003.006" fill="#b86862"/><path d="M17.899 15.805a.01.01 0 0 1 .003-.007c0 .003 0 .006-.003.007" fill="#f0cfbd"/><path d="M17.019 16.712c0-.003 0-.006.003-.007 0 .003 0 .006-.003.007" fill="#906560"/><path d="M17.022 16.705c0-.003 0-.006.003-.007.001.003 0 .006-.003.007" fill="#96726f"/><path d="M17.026 16.699c0-.003 0-.006.003-.007 0 .003 0 .006-.003.007" fill="#9f736f"/><path d="M17.909 15.761c-.001.003-.004.004-.007.004.002-.003.004-.004.007-.004" fill="#f0cfbd"/><path d="M17.033 16.686v-.007c0-.001.002-.002.003 0 0 .003 0 .005-.003.007" fill="#af716c"/><path d="M17.036 16.675c0-.003 0-.006.003-.007.002.001.002.002 0 .004s-.001.003-.003.003" fill="#80615e"/><path d="M17.04 16.672v-.004c-.002 0 0-.002 0-.003h.002a.01.01 0 0 1-.003.007" fill="#ba6a65"/><path d="M17.896 15.812c0-.003 0-.005.003-.007 0 .003 0 .006-.003.007" fill="#f0cfbd"/><path d="M.501.48c0 .001 0 .004-.003.005 0-.002 0-.005.003-.006" fill="#d0604b" mask="url(#k)" transform="translate(16.639 14.228)"/><path d="M17.042 16.661c0-.003 0-.005.003-.007.001.003 0 .006-.003.007" fill="#926763"/><path d="M17.046 16.656c0-.004 0-.006.003-.008 0 .004 0 .006-.003.008" fill="#997571"/><path d="M17.892 15.819c0-.003 0-.005.003-.007 0 .003 0 .006-.003.007" fill="#f0cfbd"/><path d="M17.056 16.635v-.007h.003c0 .003 0 .005-.003.007" fill="#b0736f"/><path d="M17.889 15.826c0-.003 0-.005.003-.007 0 .003 0 .006-.003.007" fill="#f0cfbd"/><path d="M17.06 16.625c0-.004 0-.006.002-.008.002.001.002.003.001.004a.008.008 0 0 1-.004.004" fill="#826461"/><path d="M17.063 16.621v-.006c0-.002.002-.002.003 0 0 .002-.001.005-.003.006" fill="#bb6d67"/><path d="M16.667 19.584c0-.003 0-.005.004-.007-.001.003-.001.006-.004.007" fill="#fdf8f5"/><path d="M17.066 16.612c0-.003 0-.006.003-.007 0 .003 0 .006-.003.007" fill="#946966"/><path d="M16.67 19.578c0-.004 0-.006.004-.008 0 .003 0 .006-.004.008" fill="#fdf8f5"/><path d="M16.314 16.447c0 .003 0 .006-.003.007a.01.01 0 0 1 .003-.007" fill="#eec7b3"/><path d="M16.77 19.39c0-.003 0-.006.005-.007 0 .003-.001.005-.004.007" fill="#faede6"/><path d="M17.392 15.984c-.002.003-.004.003-.007.003a.01.01 0 0 1 .007-.003m.047-.021c-.002.003-.004.003-.007.003a.01.01 0 0 1 .007-.003m.094-.04c-.002.003-.004.003-.007.003a.01.01 0 0 1 .007-.003" fill="#f0cfbd"/><path d="M16.694 19.534c0-.003 0-.006.004-.007-.001.003-.001.005-.004.007m-.004.006c0-.003.001-.005.004-.006 0 .002 0 .005-.004.006m-.003.007a.01.01 0 0 1 .003-.007c0 .003-.001.006-.003.007m-.004.007a.01.01 0 0 1 .003-.007.01.01 0 0 1-.003.007m-.009.018c0-.003 0-.006.004-.007-.001.003-.001.005-.004.007m.003-.007c0-.003 0-.006.004-.007 0 .003 0 .005-.004.007m.003-.007c0-.002.002-.003.004-.004 0 .002-.001.004-.003.004" fill="#fdf8f5"/><path d="M17.153 16.587c0 .002 0 .003-.003.004l.003-.004" fill="#e09479"/><path d="M17.066 16.615h-.003c0-.001.001-.003.003-.003z" fill="#946966"/><path d="M17.06 16.628h-.003c0-.002 0-.003.003-.004z" fill="#826461"/><path d="M17.05 16.645h.002c0 .002 0 .003-.003.004v-.004" fill="#a17571"/><path d="M17.043 16.665h-.003c0-.002 0-.003.003-.004z" fill="#926763"/><path d="M17.036 16.68h-.003c0-.003.001-.004.003-.005z" fill="#80615e"/><path d="M17.02 16.716h-.004c0-.002.001-.004.003-.004z" fill="#906560"/><path d="m17.143 18.692.003-.004c0 .002 0 .003-.003.004" fill="#e5a991"/><path d="M17.012 16.729h-.003c0-.001.001-.003.003-.003z" fill="#7f5f5c"/><path d="M16.173 18.684h.003l-.004.003.001-.003" fill="#dc866b"/><path d="M16.99 16.773c0-.002 0-.003.002-.004v.004h-.003" fill="#85605c"/><path d="M16.365 20.149c0-.002 0-.003.003-.004 0 .002-.001.004-.003.004" fill="#e7b29c"/><path d="m17.59 17.855.003-.004-.003.004" fill="#d46048"/><path d="m16.32 20.226-.002.003.002-.003" fill="#d57766"/><path d="m16.67 18.55.003-.004c0 .002-.001.003-.003.003" fill="#dc876c"/><path d="M16.116 16.883c.001-.002.002-.003.004-.003-.001.002-.002.003-.004.003" fill="#e0977f"/><path d="m16.828 17.284-.003.003.003-.003" fill="#d35843"/><path d="m17.744 17.562.001-.001c.001 0 .001 0 0 0z" fill="#d04c39"/><path d="m17.395 17.713-.003.003z" fill="#d14c3a"/><path d="m17.627 17.784.003-.003v.003h-.003m0 0h.003l-.003.004v-.004" fill="#d35b44"/><path d="M16.99 16.773h.002c0 .002-.002.003-.004.003z" fill="#8c5f5c"/><path d="M16.767 15.762v-.004c.001 0 .002 0 .002-.002.022-.006.045-.002.067-.003.005.001.01.002.012.005l-.003.002c-.006.002-.008.007-.008.013l.001.028v.027h-.07a.094.094 0 0 1 0-.066" fill="#fdf7f4"/><path d="M16.63 16.037v-.057c0-.005 0-.009.003-.014h.134v.003l-.001.003-.002.001c-.014.002-.028.001-.042.002-.018 0-.02.001-.02.02-.001.014.004.03-.005.042a.12.12 0 0 1-.065.002.002.002 0 0 0-.002-.002" fill="#fbf1ec"/><path d="M16.767 15.762v.066h-.07v-.062c.001 0 .002-.003.004-.003h.01z" fill="#fbf3ef"/><path d="M17.117 18.406h-.071v-.061c0-.003.003-.006.007-.006h.053a.01.01 0 0 0 .008-.004h.14a.01.01 0 0 1-.008.004h-.05c-.005 0-.007.003-.007.008l-.001.012v.047z" fill="#dd8a6f"/><path d="M17.325 18.126v.07h-.071a.109.109 0 0 1-.07.002.15.15 0 0 1 .003-.073c.022-.008.045-.003.067-.004h.052c.007 0 .014 0 .019.005" fill="#d97a5e"/><path d="M17.184 18.197h.07v.063c0 .003-.004.007-.007.007h-.135c0-.023-.004-.048.005-.071a.103.103 0 0 1 .067 0" fill="#db7f63"/><path d="M17.117 18.197v.057a.035.035 0 0 1-.003.014h-.067a.12.12 0 0 1-.07 0c-.001-.01.008-.008.014-.01h.035c.01 0 .015-.003.016-.014 0-.016-.006-.032.004-.048a.112.112 0 0 1 .07 0" fill="#d97b5f"/><path d="M16.975 18.268h.071v.066h-.068c-.002.002-.004 0-.005-.001a.149.149 0 0 1 0-.063l.002-.002" fill="#da7f63"/><path d="M16.422 16.665v.053l-.001.01-.003.003-.01.001h-.058c-.009-.02-.004-.042-.003-.063l.003-.005.01-.004h.05c.004 0 .008.002.011.005z" fill="#e6ae96"/><path d="M16.774 17.989h.134l.002.003c.004.02.008.044-.002.065a.505.505 0 0 1-.14 0c-.01-.021-.007-.044-.003-.067.003-.003.006-.003.009-.001" fill="#d35842"/><path d="M17.187 17.848h.138v.003c-.008.007-.017.005-.026.005-.045 0-.039-.005-.04.04 0 .008.001.016-.005.023-.021.008-.043.003-.065.003-.004 0-.007-.001-.009-.004a.025.025 0 0 0 .004-.014v-.042c0-.005 0-.01.003-.014" fill="#d35942"/><path d="M17.18 17.918h.007c.007.024.01.05-.003.072l-.008.003c-.042.001-.084.002-.126 0l-.005-.005v-.003l.002-.002c.014-.005.03-.003.043-.003.02 0 .02-.002.021-.02.001-.015-.003-.029.005-.042z" fill="#d45e46"/><path d="M16.774 17.989h-.007a.102.102 0 0 1-.069 0c-.002-.01.006-.007.011-.008l.029-.001c.024 0 .024 0 .024-.023.001-.013-.003-.028.005-.04a.108.108 0 0 1 .071.002v.059c-.001.004-.003.007-.007.007h-.05a.01.01 0 0 0-.007.004" fill="#d14d3b"/><path d="M16.908 17.989a.01.01 0 0 1 .007-.003h.052c.005-.001.008-.003.008-.008v-.047l.001-.007c0-.002.002-.004.004-.005h.066a.097.097 0 0 1 0 .067c-.007.006-.016.004-.024.004-.015 0-.03-.001-.044.003-.018.003-.036 0-.055 0-.005 0-.01 0-.015-.004z" fill="#d35842"/><path d="M17.046 17.986v-.067h.07v.059c0 .003-.004.007-.007.007h-.01z" fill="#d25a43"/><path d="M17.046 16.178h.057c.005 0 .01 0 .014-.002.005-.002.009 0 .013 0h.057a.1.1 0 0 1 .066-.003c.002.011-.006.01-.011.01h-.03c-.018.001-.02.002-.02.02-.001.014.004.03-.005.043-.023.008-.047.003-.07.004h-.055c-.006 0-.012 0-.017-.004a.1.1 0 0 1 0-.068" fill="#eec5b1"/><path d="M16.905 16.245h.07c.003 0 .004 0 .005.002v.055c0 .005 0 .01-.005.015-.022.007-.044.002-.067.003-.023 0-.048.005-.071-.004-.008-.019-.004-.04-.003-.06 0-.009.008-.009.015-.009.018 0 .037.002.056-.002" fill="#eec6b2"/><path d="M16.905 16.245a.01.01 0 0 1-.007.003h-.035l-.017.001c-.006 0-.008.002-.008.008v.058a.108.108 0 0 1-.071.001c-.007-.024-.011-.049.003-.073a.113.113 0 0 1 .068.002z" fill="#efcab7"/><path d="M17.254 16.175h-.067v-.067h.07a.11.11 0 0 1 .002.065c0 .002-.003.003-.005.002" fill="#eec9b5"/><path d="M16.838 16.245h-.067c-.002.001-.004.001-.005-.002a.148.148 0 0 1-.001-.063c0-.002.002-.004.004-.005.023-.002.046-.006.069.003z" fill="#f1d2c1"/><path d="M16.979 16.245h-.003v-.063l.004-.003h.066v.066a.097.097 0 0 1-.067 0" fill="#efc9b6"/><path d="M16.838 16.178h-.071c0-.002 0-.004.002-.005a.109.109 0 0 1 .069.002h.067c-.001.001-.003.003-.005.003h-.01z" fill="#f2d5c5"/><path d="M17.254 16.595v-.057c0-.005.001-.009.003-.014h.068a.105.105 0 0 1 .07 0v.071h-.138z" fill="#e0967c"/><path d="M17.395 16.665v.067h-.067a.117.117 0 0 1-.074 0v-.053l.001-.01.003-.003h.066z" fill="#dc896d"/><path d="M16.693 18.476h-.134l-.002-.002a.168.168 0 0 1 0-.067c0-.002.002-.003.004-.004.02-.005.038-.003.058-.002.025 0 .05-.003.074.002.002 0 .004.002.005.004.006.018.003.038.003.057 0 .005-.003.009-.008.012" fill="#db7f63"/><path d="M16.693 18.476a.037.037 0 0 0 .003-.015v-.055a.097.097 0 0 1 .071 0v.07h-.07z" fill="#db8367"/><path d="M16.56 18.476v.053c0 .004 0 .007-.002.009 0 .002-.002.003-.003.004h-.067l-.002-.002a.13.13 0 0 1 .002-.065.115.115 0 0 1 .071 0z" fill="#db8266"/><path d="M16.35 18.614v-.067a.103.103 0 0 1 .068 0v.067z" fill="#dc8468"/><path d="M16.418 18.546h-.067s-.002 0 0-.002c.005-.006.012-.007.02-.007h.1c.005 0 .012.001.017.006 0 .001-.003.003-.005.003h-.012z" fill="#db8266"/><path d="M16.21 18.684v-.063c0-.003.005-.006.007-.007h.134v.064c-.001.003-.003.006-.006.006h-.013z" fill="#dc866b"/><path d="M16.767 18.406h-.07c-.008-.024-.01-.05.002-.072l.006-.003c.043-.001.087-.003.13 0l.005.006a.125.125 0 0 1-.003.069z" fill="#d97c60"/><path d="M16.838 18.406v-.071c.005-.005.012-.005.019-.005h.1c.007 0 .013 0 .019.005h.003a.035.035 0 0 0-.003.014v.044c0 .01-.002.013-.013.013z" fill="#db8266"/><path d="M17.603 17.71v.066c-.045 0-.09.01-.136.004-.002 0-.004-.002-.005-.004v-.066h.071z" fill="#d25540"/><path d="M16.838 15.9v.066l-.002.002a.125.125 0 0 1-.07-.002c0-.017 0-.035.002-.052v-.01c0-.001.002-.003.004-.003l.01-.001z" fill="#fcf3ef"/><path d="M16.63 16.595h-.071a.115.115 0 0 1 0-.07c.01-.009.024-.005.036-.006h.035c.023.002.046-.004.068.005a.108.108 0 0 1-.001.071z" fill="#e7b29b"/><path d="M16.697 16.595v-.07c.022-.01.046-.005.069-.004.002 0 .003.002.005.003a.078.078 0 0 0-.004.026.17.17 0 0 1 0 .032v.008l-.004.004-.01.001z" fill="#e6ae96"/><path d="M16.77 16.524h-.002c-.01-.02-.005-.041-.004-.062 0-.005.006-.008.012-.01.02 0 .04-.002.06.003 0 0 0 .002.002.003v.066z" fill="#e8b39b"/><path d="M16.975 18.684v-.061c0-.002.003-.005.006-.005l.012-.001h.048l.005-.003h.07v.07h-.138z" fill="#e4a58c"/><path d="M16.908 18.822v-.067h.138v.067c-.032.004-.063 0-.095.002-.014 0-.029.002-.043-.002" fill="#e8b29a"/><path d="M17.395 16.524h-.07v-.06c0-.003.002-.006.006-.006h.052l.008-.001.004-.003a.1.1 0 0 1 .07 0h.068a.01.01 0 0 1-.008.004h-.051c-.006 0-.008.002-.008.007v.059z" fill="#e29b81"/><path d="M17.325 16.803v.055c0 .007-.002.011-.007.015-.003.004-.008.005-.013.005a1.873 1.873 0 0 1-.106 0 .016.016 0 0 1-.01-.003l-.002-.002v-.07c.006-.005.012-.005.019-.006h.1c.007.001.014.001.019.006z" fill="#da7e62"/><path d="M16.989 16.94h.054l.002-.003.001-.008v-.055h.141c.009.02.005.043.003.065l-.005.004c-.023.003-.046.007-.069-.002h-.051c-.006 0-.012 0-.017.002h-.052a.01.01 0 0 1-.007-.002" fill="#da7c60"/><path d="M16.838 17.569v-.061c0-.002.003-.005.006-.005l.015-.001h.039a.01.01 0 0 0 .007-.003.112.112 0 0 1 .07-.001c0 .01-.008.008-.013.009h-.034c-.01 0-.015.004-.014.015v.03c-.001.006-.001.012-.005.017l-.001.07h-.002c-.002 0-.003-.002-.004-.004-.003-.014-.002-.03-.002-.045 0-.011-.005-.015-.017-.016-.015-.001-.031.005-.045-.005" fill="#cf3931"/><path d="M16.908 17.569v-.055c0-.01.001-.011.011-.012h.05a.01.01 0 0 0 .006-.003h.071a.011.011 0 0 1-.008.003h-.053c-.004 0-.006.004-.006.006v.061z" fill="#ce3430"/><path d="M16.976 17.639v.071c-.022.009-.044.004-.066.003l-.005-.003c-.001-.002-.002-.004-.001-.007v-.045c0-.006 0-.013.005-.02z" fill="#d34042"/><path d="M17.325 16.94a.01.01 0 0 1-.007.004h-.055c-.006 0-.008.003-.008.009v.01l-.001.048h-.06a.113.113 0 0 1-.077 0v-.067c.017-.003.034 0 .05-.001.007-.001.014 0 .02-.002.006-.005.012-.005.019-.005h.1c.007 0 .014 0 .019.005" fill="#d77157"/><path d="M17.187 16.94c-.001.003-.003.004-.006.004h-.065v-.003z" fill="#d9775b"/><path d="M16.351 18.543v.003h-.071l.006-.003h.012z" fill="#da7e62"/><path d="M17.187 17.22a.01.01 0 0 1-.007.003h-.055c-.006 0-.008.003-.008.01l-.001.01v.047h-.067a.117.117 0 0 1-.074 0v-.049l.001-.01c0-.004.002-.008.006-.008h.06l.004-.004a.002.002 0 0 0 .002-.002c.007-.003.014-.003.022-.003h.095c.008 0 .016 0 .022.005" fill="#d25842"/><path d="M16.975 17.29h.074a.023.023 0 0 0-.004.014v.056h.001c-.01.008-.022.005-.033.005a.24.24 0 0 1-.038 0h-.048c-.007 0-.014 0-.019-.005v-.062c.001-.002.002-.004.004-.004.004 0 .007 0 .01-.004z" fill="#d1523d"/><path d="M17.395 17.918v.057a.028.028 0 0 1-.003.013c-.01.008-.022.005-.032.005a.204.204 0 0 1-.035 0c-.024 0-.047.005-.07-.004 0-.01.008-.008.013-.009h.035c.012 0 .016-.005.017-.017 0-.016-.004-.03.004-.046.021-.008.044-.004.066-.003l.005.004" fill="#d5674e"/><path d="M17.395 17.918h-.003a.1.1 0 0 1 0-.07.022.022 0 0 1 .005-.004c.024 0 .048-.006.072.004l-.004.003c0 .002-.003.004-.003.005v.062z" fill="#d4634a"/><path d="M17.325 17.989h.07v.067c-.022.01-.045.005-.068.003l-.004-.005a.11.11 0 0 1 .002-.065" fill="#d76f55"/><path d="M16.905 17.71h.07v.066h-.064c-.006 0-.012 0-.017.002a.019.019 0 0 1-.008.002h-.028c-.004 0-.007 0-.01-.002s-.007 0-.01-.002v-.066a.103.103 0 0 1 .067 0" fill="#cd312e"/><path d="M16.63 17.848v-.062c0-.002.003-.005.006-.005h.132v.067l-.003.002c-.024.003-.048.007-.071-.002z" fill="#ce302f"/><path d="M16.838 17.918h-.071a.002.002 0 0 0-.002-.002c-.003-.023-.007-.046.002-.068h.07z" fill="#cf4335"/><path d="M17.466 16.453h-.141v-.067a.002.002 0 0 0 .002-.002c.023-.005.046 0 .069-.003h.05c.008 0 .015 0 .02.005z" fill="#e3a289"/><path d="M16.908 18.822h.138l-.006.003a.057.057 0 0 1-.013 0h-.119v-.003" fill="#e9b69f"/><path d="M16.56 16.524v.07h-.07a.106.106 0 0 1-.069.002c-.009-.022-.005-.046-.002-.07l.004-.004c.022-.006.045-.003.068-.003.022 0 .044-.003.066.003l.002.002" fill="#e9b8a1"/><path d="M16.421 16.595h.067v.063l-.004.002-.01.001h-.053c-.003.004-.007 0-.01.004h-.054c0-.002-.003-.002-.005-.002l-.002-.002.001-.066a.097.097 0 0 1 .07 0" fill="#e8b39c"/><path d="M16.411 16.665c.002-.004.006-.003.01-.004v.004z" fill="#e7ae97"/><path d="M16.979 17.498h-.141v-.067c.009-.007.019-.005.029-.005h.093c.007.001.014 0 .019.005z" fill="#d04235"/><path d="M17.187 17.081v.061a.006.006 0 0 1-.006.006h-.052a.02.02 0 0 0-.008.001c-.002 0-.003.002-.005.003-.007.007-.016.005-.025.005h-.088c-.006 0-.013 0-.017-.005.001-.003.004-.004.007-.004h.045c.006 0 .008-.003.008-.008v-.059c.005-.005.012-.005.019-.005h.103c.007 0 .014 0 .019.005z" fill="#d5664d"/><path d="M16.986 17.153h.06a.084.084 0 0 1 0 .066h-.07v-.066z" fill="#d4624a"/><path d="M16.489 18.126v-.067c.009-.003.018-.003.028-.003h.11c.022-.01.044-.005.067-.003a.008.008 0 0 1 .004.004c0 .002-.002.004-.004.005-.01.003-.02.002-.03.002-.035 0-.032-.002-.032.034-.001.01.002.021-.006.03a.04.04 0 0 1-.018.004h-.098c-.008 0-.015 0-.021-.006z" fill="#d2543f"/><path d="M16.767 17.918v.061c0 .002-.003.005-.006.005l-.012.001h-.048l-.005.003a.094.094 0 0 1-.07 0h-.067a.01.01 0 0 1 .007-.003h.055c.006 0 .008-.003.008-.008v-.059c.006-.005.012-.005.02-.006h.1c.006.001.013.001.018.006z" fill="#d04837"/><path d="M16.626 17.989h.141v.067s-.002 0-.002.002c-.023.003-.046.007-.069-.002h-.07v-.067" fill="#d1523d"/><path d="M16.767 16.175v.003c-.013.01-.028.005-.042.005-.023.001-.023.001-.024.023 0 .014.003.028-.003.04-.022.008-.044.004-.066.002a.012.012 0 0 1-.005-.005c-.003-.02-.007-.044.002-.065v-.003l.003-.003c.022-.006.046 0 .07-.002h.046c.007 0 .014 0 .02.005" fill="#f3d8c9"/><path d="M16.56 16.175v-.067l.001-.002c.024-.003.047-.007.07.002a.103.103 0 0 1 0 .067z" fill="#f7e3d8"/><path d="M16.63 16.178v.067a.097.097 0 0 1-.071 0v-.063c.002-.001.003-.003.005-.003l.01-.001z" fill="#f4dbcd"/><path d="M16.975 16.453h-.067c-.022.004-.045.001-.067.002-.003 0-.004 0-.006-.003a.172.172 0 0 1 0-.064.008.008 0 0 1 .004-.004.845.845 0 0 1 .133 0 .012.012 0 0 1 .005.004.11.11 0 0 1-.002.065" fill="#e9b7a0"/><path d="M16.975 16.453v-.067a.108.108 0 0 1 .071 0v.067z" fill="#e7b29a"/><path d="M16.838 16.453h.07a.005.005 0 0 1-.005.003l-.012.001h-.053l-.001-.003" fill="#e8b39b"/><path d="M17.258 16.175v-.067h.067c.023-.004.045 0 .068-.002l.005.004c.003.022.007.044-.003.066a.657.657 0 0 1-.133.002c-.002 0-.003-.002-.004-.003" fill="#edc4af"/><path d="M17.395 16.037h.071c.01.02.005.04.003.06 0 .006-.007.01-.014.01-.019.001-.038.004-.057-.002 0 0-.002 0-.003-.002zm0 .071h-.07a.005.005 0 0 1 .005-.003l.012-.001h.053l.001.003" fill="#eec8b4"/><path d="M17.674 16.175a.01.01 0 0 1-.007.003h-.055c-.006 0-.008.003-.008.01v.01l-.001.047c-.008.007-.018.005-.028.005h-.092c-.005 0-.012 0-.018-.004-.008-.02-.005-.04-.003-.06 0-.012.01-.012.019-.013.02 0 .039.003.058-.002.022 0 .044-.007.064.004z" fill="#e8b49d"/><path d="M17.603 16.175h-.064c-.024.003-.049.001-.073.001-.01-.022-.006-.044-.003-.066l.004-.005c.042-.004.084-.003.126-.002.003 0 .007.002.01.005z" fill="#eabba5"/><path d="M17.187 17.081h-.141v-.06c0-.003.003-.006.006-.006h.06c.002 0 .003-.003.005-.004h.077l-.004.004c-.001.001-.003.003-.003.005v.01z" fill="#d76d53"/><path d="M17.536 15.966h.138v.003c-.007.008-.016.006-.024.006-.04.001-.04 0-.042.042 0 .008.001.014-.004.021a.146.146 0 0 1-.069.001l-.002-.002v-.056a.04.04 0 0 1 .003-.015" fill="#efc9b6"/><path d="M17.395 16.108v-.004h.063c.003 0 .007-.004.007-.007v-.01l.001-.05h.067c.01.02.005.04.003.06 0 .009-.007.009-.014.009-.019 0-.038-.002-.056.002a.097.097 0 0 1-.07 0" fill="#edc4b0"/><path d="M16.56 18.476h-.072a.102.102 0 0 1-.073 0 .04.04 0 0 0 .003-.015v-.042c0-.005.001-.01.003-.013.005-.005.011-.006.017-.006h.104c.006 0 .012 0 .017.006z" fill="#d97a5e"/><path d="M16.56 18.406h-.143v-.061c0-.003.003-.006.006-.006h.053l.008-.001c.002 0 .003-.002.004-.003.008-.007.017-.005.026-.005h.045c.022.002.045-.004.066.004.001.01-.008.009-.013.01h-.033c-.01 0-.015.004-.015.015v.029a.029.029 0 0 1-.005.018z" fill="#d87257"/><path d="M16.415 18.476h.074v.067h-.138v-.067z" fill="#da7e62"/><path d="M16.848 15.758h-.01a.114.114 0 0 1-.002-.066c.006-.007.014-.005.022-.005h.045l.005.001h.068a.011.011 0 0 1-.008.003h-.035l-.017.001c-.005 0-.007.002-.007.007l-.001.012v.047z" fill="#faf1eb"/><path d="M17.744 15.9v.066a.102.102 0 0 1-.07 0V15.9z" fill="#efcbb9"/><path d="M16.838 17.569h.062c.002 0 .004.003.004.005v.065a.088.088 0 0 1-.063 0 .01.01 0 0 0-.007-.003h-.056l-.005-.001c-.002 0-.005-.002-.005-.004v-.004l-.001-.045c0-.005.002-.01.004-.013z" fill="#cd2f2e"/><path d="M17.325 16.803h-.138v-.061c0-.003.003-.005.007-.006h.053a.011.011 0 0 0 .008-.003h.073a.028.028 0 0 0-.003.013z" fill="#dc8569"/><path d="M16.351 16.665v.067h-.071v-.067a.281.281 0 0 1 .071 0" fill="#e7ae97"/><path d="M16.351 16.665h-.071l.006-.003h.065l.001.002-.001.001" fill="#e8b39c"/><path d="M17.462 17.777h.003c0 .01-.009.008-.015.009h-.035c-.01 0-.015.005-.015.014v.03a.026.026 0 0 1-.005.018.102.102 0 0 1-.07 0v-.067a.005.005 0 0 1 .005-.003l.01-.001h.051z" fill="#d25641"/><path d="M16.838 15.55v-.061c0-.003.003-.005.006-.006h.054a.01.01 0 0 0 .007-.003h.071v.003c-.013.008-.027.005-.041.005-.02 0-.021 0-.022.021 0 .014.004.028-.004.041a.102.102 0 0 1-.071 0" fill="#f1d3c2"/><path d="M16.975 15.342v.066h-.067v-.066z" fill="#edc4b0"/><path d="M16.841 17.639h.067v.059c0 .003 0 .006-.003.008-.009-.011-.005-.024-.005-.037 0-.02-.002-.021-.02-.021-.04.001-.038-.008-.037.04 0 .01.005.013.014.013h.03c.005 0 .012 0 .018.005v.003l-.067.001h-.057a.025.025 0 0 1-.014-.004v-.067z" fill="#d85a5d"/><path d="M17.187 16.386h-.138c.001-.008.008-.007.013-.008h.02c.029 0 .029 0 .03-.03 0-.01-.002-.02.002-.03a.008.008 0 0 1 .004-.004c.023-.006.046-.002.07-.003.022.001.045-.005.067.004.008.02.004.041.003.06 0 .009-.008.009-.015.01-.019 0-.037-.003-.056.001" fill="#e7b29a"/><path d="M17.117 16.316v.061a.006.006 0 0 1-.006.006h-.055a.01.01 0 0 0-.007.003h-.073c-.003-.023-.007-.048.003-.071l.006-.003c.041-.002.081-.002.122 0 .004 0 .007 0 .01.004" fill="#e9b7a0"/><path d="M16.975 15.483v-.003h.036c.003 0 .006 0 .007.003z" fill="#f2d6c7"/><path d="M17.533 16.245h.074a.024.024 0 0 0-.004.015v.055h-.07a.1.1 0 0 1-.068.001c-.008-.019-.004-.04-.003-.06 0-.009.008-.009.015-.009.018 0 .037.002.056-.002" fill="#e5ac93"/><path d="M17.466 16.316h.067v.061a.006.006 0 0 1-.006.006h-.055a.01.01 0 0 0-.006.003h-.07l-.004-.005c-.001-.022-.006-.044.004-.066a.112.112 0 0 1 .07 0" fill="#e4a78e"/><path d="M17.395 17.848v-.061c0-.003.003-.006.006-.006h.052l.008-.001c.002 0 .003-.002.005-.003h.137c-.002.003-.004.004-.007.004h-.055c-.006 0-.008.003-.008.008v.059h-.064z" fill="#d35b44"/><path d="M16.979 17.43h-.07c0-.008.009-.007.015-.007l.032-.001c.01 0 .015-.004.015-.014a.16.16 0 0 1 0-.031c0-.006 0-.011.005-.016h.07v.06a.006.006 0 0 1-.006.006l-.015.001h-.04a.01.01 0 0 0-.006.003" fill="#d04737"/><path d="M17.395 16.316v.067c-.017.004-.034 0-.05.002-.008 0-.014-.002-.02 0h-.138a.01.01 0 0 1 .007-.002h.052c.006 0 .008-.003.008-.008v-.059a.005.005 0 0 1 .005-.003c.042-.003.083-.002.124-.002a.02.02 0 0 1 .01.003l.002.002" fill="#e5ac94"/><path d="M16.908 15.966a.007.007 0 0 1-.006.004h-.065v-.004z" fill="#f9ebe2"/><path d="M16.767 19.171v-.067h.071v.067z" fill="#f1d2c2"/><path d="M16.56 16.104v-.066h.07a.106.106 0 0 1 .001.066c-.023.005-.046 0-.069.002l-.003-.002" fill="#f9ece4"/><path d="M17.466 16.108c.002-.003.004-.004.007-.004h.052c.006 0 .008-.002.008-.008v-.058h.07a.094.094 0 0 1 .07 0v.058c0 .005-.002.008-.005.008h-.052a.02.02 0 0 0-.008 0c-.002 0-.003.003-.004.004z" fill="#ecc0ab"/><path d="M17.674 16.037h-.071v-.061c0-.003.003-.006.007-.006h.06l.004-.004h.07a.025.025 0 0 0-.003.014v.057z" fill="#edc5b0"/><path d="M17.046 17.22v-.067h.141v.066z" fill="#d45e46"/><path d="M17.325 18.056h.138a.011.011 0 0 1-.008.003h-.051c-.006 0-.008.003-.008.009v.058h-.142c-.01-.02-.005-.041-.003-.061 0-.008.008-.01.014-.01.02 0 .04-.002.06 0" fill="#d8765a"/><path d="M16.56 18.334h-.143v-.066h.003l.003-.002c.037.002.074-.004.111-.004.008 0 .017 0 .024.005a.097.097 0 0 1 0 .067" fill="#d66b50"/><path d="M16.975 17.36v.062c0 .002-.003.005-.006.005h-.054a.01.01 0 0 0-.007.004h-.08l.003-.003c.005-.001.006-.005.006-.01v-.056h.071z" fill="#d14c3a"/><path d="M16.56 18.268h-.139a.01.01 0 0 1 .008-.004h.051c.006 0 .008-.003.008-.01v-.01c.001-.016 0-.032 0-.047a.021.021 0 0 1 .013-.005c.041 0 .082-.002.124.002.002 0 .004 0 .005.003a.104.104 0 0 1 .002.058c0 .01-.009.014-.018.014l-.052-.001z" fill="#d5654c"/><path d="M16.56 16.245h.07c.007.024.01.05-.003.072-.022.007-.045.002-.067.003-.023 0-.046.003-.069-.003 0 0-.002 0-.003-.002v-.053c0-.009.004-.014.013-.014h.054l.004-.003" fill="#f2d5c5"/><path d="M16.421 16.383v-.067h.067a.103.103 0 0 1 .001.067c-.02.01-.043.005-.066.002l-.002-.002" fill="#f1d1c0"/><path d="M16.838 15.55h.07v.063a.008.008 0 0 1-.004.003l-.01.001h-.056l-.002-.003a.108.108 0 0 1 .002-.064z" fill="#f4dccf"/><path d="M16.908 15.688h-.003a.3.3 0 0 1-.067 0c-.01-.021-.006-.043-.003-.064l.003-.003h.07z" fill="#f7e6dc"/><path d="M16.908 15.55v-.054l.001-.009.003-.003h.063v.066z" fill="#f2d6c7"/><path d="M16.838 15.617v.003a.097.097 0 0 1-.071 0l-.001-.002a.097.097 0 0 1 .072 0z" fill="#f4dccf"/><path d="M16.492 16.108c.001-.002.003-.003.006-.003l.01-.001h.051c.001 0 .002.002.001.003h-.001z" fill="#f9ece4"/><path d="M16.838 15.97v.067a.102.102 0 0 1-.071 0 .097.097 0 0 1 0-.067.281.281 0 0 1 .07 0z" fill="#f9ebe2"/><path d="M16.975 15.133c.001 0 .003-.003.006-.003h.064a.005.005 0 0 1-.005.003h-.012z" fill="#e4a78e"/><path d="M16.421 16.453v-.067h.003c.021-.002.043 0 .065-.002a.15.15 0 0 1 .07.002.113.113 0 0 1 .001.068c-.01.007-.024.004-.036.004l-.035.001c-.022-.003-.044.002-.066-.004l-.002-.002" fill="#eec7b3"/><path d="M16.35 16.457a.007.007 0 0 1 .007-.004h.065v.003l-.005.004c-.022.001-.044.006-.066-.003z" fill="#eec7b3"/><path d="M16.351 16.386c.001 0 .003-.003.006-.003h.065l.001.002-.002.001h.001z" fill="#f1d1c0"/><path d="M17.325 16.94h-.138v-.066h.138z" fill="#d9775b"/><path d="M16.421 16.595h-.07v-.07a.108.108 0 0 1 .07 0z" fill="#ebbca6"/><path d="M16.767 16.175H16.7a.097.097 0 0 1 0-.067.128.128 0 0 1 .074 0h.064v.067z" fill="#f5dcce"/><path d="M16.774 16.108H16.7v-.003c.012-.01.027-.005.04-.005.022-.001.022-.001.022-.023.001-.012-.002-.026.003-.037l.002-.002h.071v.058c-.001.005-.003.008-.007.008h-.05c-.003 0-.005 0-.007.004" fill="#f6e2d7"/><path d="M16.767 17.918h-.138v-.049l.001-.012c0-.003.002-.005.006-.006h.05a.01.01 0 0 0 .007-.003h.074z" fill="#cf3c33"/><path d="M16.838 15.617h-.071v-.067h.07z" fill="#f3d9ca"/><path d="M16.838 15.688h.067a.005.005 0 0 1-.005.003h-.062c-.013.009-.028.005-.042.005-.023 0-.023 0-.024.023 0 .014.004.028-.004.039h-.071v-.067c0-.001.003-.003.006-.003h.065a.094.094 0 0 1 .07 0" fill="#f8e9e0"/><path d="M16.838 15.688h-.07v-.067h.07z" fill="#f6e2d7"/><path d="M16.767 15.617v.003h-.057c.001-.002.003-.003.006-.003h.013z" fill="#f3d9ca"/><path d="M16.626 18.197h-.138v-.07h.138c.002-.001.004 0 .005.002v.053c0 .005 0 .01-.005.015" fill="#d35d45"/><path d="M16.908 18.822v.004h-.044a.01.01 0 0 1 .008-.004z" fill="#e8b29a"/><path d="M16.422 16.524h-.071v-.066h.07a.094.094 0 0 1 0 .066z" fill="#edc4af"/><path d="M16.767 15.758v-.053l.001-.009c0-.002.002-.003.003-.004h.067v.066z" fill="#f9ede5"/><path d="M16.767 15.97v.067a.12.12 0 0 1-.068.002l-.003-.002.001-.053v-.01c.001-.001.002-.003.004-.003l.01-.001z" fill="#faeee7"/><path d="M16.63 16.104v-.066h.067c.01.019.005.04.004.06a.012.012 0 0 1-.012.01c-.02 0-.038.004-.056-.001z" fill="#f8e8df"/><path d="M16.838 15.97h-.071v-.004h.07z" fill="#faeee7"/><path d="M17.117 18.197h-.07l-.003-.002a.134.134 0 0 1 .002-.07c.023-.007.047-.002.07-.003h.053c.006 0 .013 0 .019.005v.056c0 .005-.001.01-.004.014z" fill="#d87459"/><path d="M17.187 18.126h-.071a.106.106 0 0 1-.001-.066c.005-.006.013-.005.02-.005.016 0 .033.001.05-.002.002 0 .004 0 .006-.002h.116c.007 0 .013 0 .018.005a.011.011 0 0 1-.008.003h-.038l-.017.001c-.005 0-.008.002-.008.007v.059z" fill="#d76f55"/><path d="M17.046 18.197v.061a.006.006 0 0 1-.006.006h-.052a.02.02 0 0 0-.008 0c-.002 0-.003.003-.005.004-.004.004-.009.005-.015.005h-.102a.02.02 0 0 1-.012-.004c-.004-.01.005-.008.009-.01h.026c.021 0 .022 0 .022-.021v-.024c.001-.007.001-.013.006-.018l.006-.003c.041-.002.081-.002.122 0 .003 0 .006.002.009.004z" fill="#d9765b"/><path d="M16.845 18.268h.13v.066h-.138a.11.11 0 0 1-.002-.065c.003-.003.006-.004.01-.001" fill="#d97c60"/><path d="M16.351 16.665v-.004c.003.001.005.001.007.004z" fill="#e7ae97"/><path d="M16.767 18.056h.141v.003c-.013.01-.028.005-.042.005-.023 0-.023 0-.024.023 0 .014.004.029-.005.04a.017.017 0 0 1-.01.004c-.042 0-.084.002-.126-.001l-.006-.004a.11.11 0 0 1 .001-.067c.017-.003.035 0 .052-.001.006-.001.013 0 .02-.002" fill="#d35e46"/><path d="M16.908 17.989h.071a.25.25 0 0 1 .067 0c.01.02.005.044.002.065 0 .002-.002.004-.004.005-.042.003-.084.002-.126.002-.003 0-.007-.002-.01-.005v-.067" fill="#d45f47"/><path d="M17.325 17.918v.061c0 .002-.003.005-.006.005l-.012.001h-.048l-.005.003c-.021.01-.043.005-.065.004-.002 0-.004-.002-.005-.004a.028.028 0 0 0 .003-.013v-.057h.067a.097.097 0 0 1 .07 0" fill="#d4634a"/><path d="M17.325 17.918h-.071v-.061c0-.003.003-.005.007-.006h.059a.008.008 0 0 0 .004-.003h.07a.028.028 0 0 0-.003.013v.057z" fill="#d45e46"/><path d="M17.184 17.989h.003a.087.087 0 0 1 0 .067c-.023.004-.047 0-.07.002-.024.004-.047.008-.071-.002v-.067z" fill="#d5644c"/><path d="M17.046 17.989h-.067a.005.005 0 0 1 .005-.003h.062z" fill="#d25a43"/><path d="M17.117 16.316h-.141v-.056c0-.006 0-.01.003-.014h.137a.105.105 0 0 1 0 .07z" fill="#ebc0aa"/><path d="M17.258 16.175h.138v.003c-.013.01-.028.004-.042.005-.023.001-.023.001-.024.023-.001.014.004.028-.005.04-.003.002-.006.004-.01.004-.042 0-.082.002-.123 0l-.006-.005v-.049l.001-.01c0-.004.002-.007.006-.008h.054a.011.011 0 0 0 .008-.003z" fill="#ecbfaa"/><path d="M17.187 16.245h.003c.002.023.006.047-.003.07h-.07v-.07z" fill="#eabba6"/><path d="M16.767 16.316h.141c.01.02.005.04.004.06 0 .009-.008.008-.015.009-.019 0-.04-.003-.059 0-.004.004-.007.006-.01.006-.043 0-.085.003-.128-.001l-.004-.005c.003-.007.011-.007.017-.007h.032c.012 0 .017-.003.017-.017s-.002-.028.003-.043l.002-.002" fill="#ecc1ab"/><path d="M16.838 16.386a.01.01 0 0 1 .007-.003h.055c.006 0 .008-.003.008-.009v-.058h.072v.056c0 .005-.001.01-.003.014z" fill="#ebbca7"/><path d="M16.767 16.245h.003a.033.033 0 0 0-.003.015v.055a.115.115 0 0 1-.07.001c-.007-.024-.012-.049.003-.072a.103.103 0 0 1 .067.001" fill="#f0cdbb"/><path d="M16.767 16.245h-.071l.001-.053v-.01c.001 0 .002-.003.004-.003h.066z" fill="#f2d5c5"/><path d="M16.56 18.406v-.061c0-.003.002-.006.005-.006h.055c.002 0 .004-.001.006-.004.023-.01.046-.004.07-.003a.022.022 0 0 1 .004.003.035.035 0 0 0-.003.014v.057z" fill="#d8775c"/><path d="M16.7 18.334h-.003c-.01-.02-.005-.043-.003-.064l.004-.005c.023-.005.047-.002.07-.002h.051c.007 0 .013 0 .02.005v.066z" fill="#d8755a"/><path d="M16.838 16.453v.004h-.056l-.01.001c-.002 0-.003.002-.004.003v.01l-.001.052h-.137c-.01-.019-.006-.04-.003-.06 0-.01.01-.01.017-.01.018-.002.036.001.053-.003.043-.004.086-.002.129-.002.004 0 .009.002.012.005z" fill="#e9b7a0"/><path d="M16.697 16.453c-.002.003-.004.004-.007.004h-.052c-.006 0-.008.002-.008.008v.058h-.071c-.01-.019-.005-.04-.003-.06.002-.01.01-.01.018-.01.017-.002.034.001.052-.003.023-.002.046-.005.069.001l.002.002" fill="#eabba5"/><path d="M17.187 18.056v-.067h.138v.067z" fill="#d66b51"/><path d="M17.325 16.386s.003-.003.006-.003h.065v.003z" fill="#e4a88f"/><path d="M16.626 16.453c-.002.003-.004.004-.007.004h-.052c-.006 0-.008.002-.008.008v.058h-.138v-.066c.017-.004.033 0 .05-.002.005 0 .012.002.017-.002h.071a.097.097 0 0 1 .067 0" fill="#ebbfaa"/><path d="M16.697 18.059v.067a.087.087 0 0 1-.067 0h-.004v-.062a.008.008 0 0 1 .005-.004l.01-.001z" fill="#d35942"/><path d="M16.767 18.056c0 .002-.003.003-.006.003h-.065v-.003z" fill="#d35942"/><path d="M16.697 16.245h.003a.033.033 0 0 0-.003.015v.055c-.021.01-.043.005-.065.004-.002 0-.004-.002-.006-.004a.02.02 0 0 0 .004-.013v-.057z" fill="#f1d0bf"/><path d="M16.7 16.108v.067h-.07v-.067l.002-.002c.023 0 .045-.002.068.002" fill="#f6e0d3"/><path d="M16.56 16.108v-.004h.07l.001.003z" fill="#f8e8df"/><path d="M16.838 16.453h-.141a.097.097 0 0 1 0-.067h.14z" fill="#ebbca6"/><path d="M17.395 16.108h.071v.067a.108.108 0 0 1-.07 0v-.067" fill="#ecc0aa"/><path d="M17.395 16.175h.144c0 .002-.004.003-.007.003h-.058c-.006 0-.008.003-.008.01v.057c-.01.008-.024.004-.036.005a.13.13 0 0 1-.028 0h-.057c-.006 0-.013 0-.018-.003 0 0-.002 0-.003-.002l.001-.049v-.01c0-.004.002-.007.006-.008h.06a.008.008 0 0 0 .004-.003" fill="#e9b9a2"/><path d="M17.402 16.245h.131a.01.01 0 0 1-.007.003h-.035l-.017.001c-.006 0-.008.002-.008.008v.058h-.071c-.01-.019-.004-.04-.003-.06 0-.006.006-.008.01-.01" fill="#e7b098"/><path d="M16.697 18.268v.066h-.138v-.066l.003-.002c.038.003.075-.005.113-.004.008 0 .016-.001.022.006" fill="#d77056"/><path d="M16.905 17.706h-.058c-.006 0-.01-.002-.01-.008v-.047s0-.003.002-.005l.003-.002h.055c.006 0 .008.001.008.007v.012z" fill="#d95d5f"/><path d="M17.187 16.316v-.056c0-.006.001-.01.003-.014h.135c.009.017.005.037.003.055-.002.01-.012.009-.019.01-.018 0-.035-.003-.051.005h-.004z" fill="#e9b9a2"/><path d="M17.258 16.316a.035.035 0 0 1 .027-.01h.027l.008-.001c.002 0 .004-.002.005-.005v-.054h.077l-.003.004c-.002 0-.003.003-.003.004v.062z" fill="#e8b39c"/><path d="M16.697 18.268h-.138a.01.01 0 0 1 .008-.004h.051c.006 0 .009-.003.01-.007a.03.03 0 0 0 .002-.01v-.05c.02-.01.043-.005.065-.002a.008.008 0 0 1 .004.004.125.125 0 0 1-.002.069" fill="#d66a50"/><path d="M16.697 18.197h-.071v-.056c0-.005 0-.01.004-.014h.07c.002.023.006.048-.003.07" fill="#d46249"/><path d="M16.489 16.383v-.067h.07a.106.106 0 0 1 .002.066c-.023.005-.046.001-.07.002h-.002" fill="#f0cebc"/><path d="M16.56 16.383v-.067h.07c.01.02.005.041.003.061 0 .007-.006.01-.012.01-.02 0-.04.003-.059-.002 0 0-.002 0-.003-.002" fill="#efcbb8"/><path d="M16.421 16.386v-.003h.067c.001.001.002.001.001.002v.001z" fill="#f0cebc"/><path d="M16.697 16.386v.067h-.138v-.067h.003c.037.001.074-.005.11-.005.009 0 .018-.001.025.005z" fill="#edc1ac"/><path d="M16.489 16.386v-.003h.07l.002.002-.001.001z" fill="#efcbb8"/><path d="M16.489 16.453c-.001.002-.003.003-.006.003l-.01.001h-.051v-.004z" fill="#edc4af"/><path d="M16.63 16.108v-.004h.053l.01-.001.003-.003v-.062h.072v.048l-.001.01c0 .005-.002.008-.006.008h-.053c-.003 0-.006 0-.007.004z" fill="#f7e5db"/><path d="M17.046 18.056h.07c.002 0 .002 0 .002.002h-.001v.068h-.071a.108.108 0 0 1-.071 0c-.01-.018-.005-.04-.003-.06 0-.008.007-.008.014-.008.02-.001.04.002.06-.002" fill="#d56a50"/><path d="M16.975 18.126h.071v.07h-.138a.002.002 0 0 1-.002-.002.124.124 0 0 1 .002-.069.103.103 0 0 1 .067.001" fill="#d76f54"/><path d="M17.117 18.059v-.003h.07a.005.005 0 0 1-.005.003h-.012z" fill="#d66b51"/><path d="M16.838 18.268h-.071c.002-.01.01-.008.016-.01h.034c.01 0 .016-.004.016-.015v-.031c0-.006 0-.011.005-.016a.115.115 0 0 1 .07 0v.061c0 .005-.002.008-.006.008h-.05c-.003 0-.005 0-.007.004z" fill="#d77257"/><path d="M16.697 18.197v-.056c0-.005 0-.01.003-.014h.138s0 .002.002.003a.123.123 0 0 1 0 .054.023.023 0 0 1-.01.016c-.024.006-.05.002-.073.003h-.043c-.006 0-.012-.001-.017-.006z" fill="#d5664d"/><path d="M16.975 18.126h-.067a.097.097 0 0 1-.07 0v-.061c0-.002.002-.005.006-.005h.06l.004-.004h.138a.011.011 0 0 1-.008.003H17l-.017.001c-.006 0-.008.002-.008.007v.012z" fill="#d4644b"/><path d="M16.56 16.386v-.003h.065c.002 0 .003-.003.004-.004v-.01l.001-.053h.137v.06c0 .004-.003.006-.006.007h-.051a.02.02 0 0 0-.008.001l-.004.002z" fill="#edc6b2"/><path d="M16.697 18.197h.134c.003-.002.005-.002.007 0v.054c0 .009-.003.013-.013.013h-.045a.02.02 0 0 0-.008 0c-.002 0-.003.003-.005.004h-.07v-.071" fill="#d66e54"/><path d="M16.838 18.197h-.007l.004-.007a.076.076 0 0 0 .003-.021v-.042h.07v.07z" fill="#d66b50"/><path d="M27.856 5.536H28v-.162h-.144zm-.242-.526c-.012-.045-.029-.137-.15-.137-.069 0-.173.053-.173.273 0 .143.052.267.173.267.081 0 .133-.052.15-.143h.144c-.029.169-.127.285-.3.285-.178 0-.311-.142-.311-.41 0-.272.139-.408.317-.408a.28.28 0 0 1 .294.273zm-.709-.253h.133v.779h-.144l-.282-.56v.56h-.133v-.78h.15l.27.54h.006zm-.703.779h.144v-.78h-.144zm1.101-2.08-.029-.526v-.728h.639v2.3h-.622l-.732-1.253.029.526v.728h-.639V2.202h.622zm-2.656-.56-.208.82h.421zm-1.066 1.607.732-2.301h.679l.727 2.3h-.663l-.081-.305h-.662l-.081.306zm-.225.007h-.426l-.029-.228c-.109.149-.293.279-.616.279-.519 0-.985-.377-.985-1.182 0-.735.409-1.236 1.066-1.236.489 0 .887.286.967.852H22.7c-.052-.19-.173-.293-.346-.293-.259 0-.386.267-.386.677 0 .324.092.623.426.623.139 0 .312-.104.346-.266h-.294v-.501h.911V4.51zm-3.531-1.314h.265c.207 0 .317-.058.317-.221 0-.162-.116-.233-.271-.233h-.311zm0 .507v.8h-.669V2.202h.962c.68 0 .905.208.905.656 0 .267-.104.488-.34.56.213.09.346.149.346.61 0 .3-.012.403.069.403v.072h-.68a2.317 2.317 0 0 1-.029-.403c0-.298-.046-.396-.357-.396h-.207zm-2.42-.363c0 .292.081.663.397.663.288 0 .404-.286.404-.663 0-.313-.116-.644-.409-.637-.3 0-.392.344-.392.637zm1.469 0c0 .779-.467 1.22-1.072 1.22-.639 0-1.065-.447-1.065-1.227 0-.721.432-1.19 1.065-1.19.732 0 1.072.592 1.072 1.197zm-4.753 1.163V2.202h.807l.357 1.436.363-1.436h.806v2.3h-.599v-.701l.006-.358.034-.416h-.005l-.369 1.476h-.467l-.368-1.476h-.006l.029.339.011.356v.78zm-3.416-1.307h.259c.207 0 .317-.058.317-.221 0-.162-.11-.233-.265-.233h-.312v.454zm0 .507v.8h-.669V2.202h.962c.68 0 .905.208.905.656 0 .267-.109.488-.346.56.213.09.346.149.346.61 0 .3-.006.403.069.403v.072h-.674a1.693 1.693 0 0 1-.035-.403c0-.298-.046-.396-.357-.396h-.201zm-2.674.8V2.202h1.665v.54H8.7v.324h.841v.54H8.7v.358h1.031v.539zm-1.567-.54h.144c.311 0 .479-.182.479-.617 0-.481-.139-.604-.496-.604h-.127zm-.668.54V2.202h.893c.657 0 1.066.345 1.066 1.105 0 .865-.426 1.196-1.083 1.196zm-.997-1.046-.023-.527v-.728h.64v2.3h-.628L4.062 3.25l.023.526v.728h-.64V2.202h.628zM2.368 4.503h.668V2.202h-.668zM0 2.202h.668v.74l.588-.74h.784l-.744.864.824 1.437h-.801L.83 3.587l-.162.188v.728H0z" fill="#000" mask="url(#l)" transform="translate(4 14)"/></g></svg>