<svg width="36" height="36" fill="none" xmlns="http://www.w3.org/2000/svg"><path d="M18 0c2.837 0 5.52.656 7.907 1.825C31.884 4.753 36 10.895 36 18c0 9.942-8.058 18-18 18-9.94 0-18-8.057-18-18C0 8.06 8.06 0 18 0z" fill="#F2F4F7"/><path d="M4.856 16.255H4v.754s.631-.072.631.225v3.83s-.036.138-.32.145c-.282.007-.282 0-.282 0v.769h7.123v-.783l-.413.007s-1.88-1.98-1.894-2.06c-.014-.08 0-.435 0-.435s.022-.153.11-.218c.086-.065 1.428-1.472 1.428-1.472h.508v-.77H9.077v-.688s.08-.5-.398-.5c0 0-.341-.052-.341.529v.645h-.922s-.043-.769-.841-.769c0 0-.486.051-.892-.007-.34-.048-.529-.303-.522-.457 0 0-.777.428-.305 1.255z" fill="#E5E6E7"/><path d="M7.205 16.884c.199.09.41.123.6.225.158.086.212.162.09.337-.214.306-.16.664.1.863.267.204.6.16.863-.119.354-.373.707-.748 1.059-1.124.163-.174.318-.358.58-.385.069-.007.113-.047.104-.124-.01-.088-.081-.078-.14-.082-.046-.003-.093 0-.139 0-.46-.002-.849-.004-1.31-.002-.157 0-.235-.05-.243-.223-.01-.244-.048-.488-.075-.732h-.046c-.02.221-.054.441-.055.663-.001.272-.248.299-.248.299h-.726s.261.276.233.457c-.219-.02-.392-.123-.647-.053zm3.04 4.142c-.46-.537-.932-1.063-1.4-1.593-.027-.03-.048-.085-.146-.046v2.051c0 .127.08.15.183.15.253 0 .507.005.76 0 .415-.01.83.027 1.243-.021v-.185c-.274-.01-.466-.153-.64-.356z" fill="#B52B46"/><path d="M6.35 18.962c-.049-.181-.044-.215.037-.29.215-.198.816-.273 1.121-.12-.461-.023-.838.113-1.157.41zm1.716-.39a1.244 1.244 0 0 0-.547-.283c-.364-.098-.727-.073-1.115.037.135-.277.238-.536.111-.811-.169-.367-.135-.699.198-1.04l-2.254.001c-.06 0-.125.004-.13.093-.006.094.06.114.127.135.432.138.492.21.493.646.004 1.085-.003 2.17.004 3.254.003.374-.068.676-.506.742-.071.01-.127.057-.117.145.01.09.08.082.14.082l2.445.003c.066 0 .124-.01.132-.093.007-.076-.033-.117-.1-.131-.06-.012-.124-.008-.183-.023-.142-.036-.286-.073-.354-.227-.164-.372.188-.985.595-1.038.08-.01.157-.003.139.093-.077.41.172.627.466.822.052.035.093.07.092.146-.005.332.179.503.515.487.253-.013.325-.087.325-.34.001-.823.003-1.646.001-2.47 0-.072.027-.152-.05-.245-.138.28-.278.156-.427.015z" fill="#B52B46"/><path d="M5.507 15.985c-.129.088-.528.002-.528.002s.102.29.608.344c.295.032.562-.046.825-.16.203-.087.4-.108.585.043.02.016.108.113.108.113s.065-.137.032-.226a.522.522 0 0 0-.314-.316 1.285 1.285 0 0 0-.592-.073c-.17.016-.34.011-.51.022-.466.028-.57-.314-.636-.317-.25.403.148.54.422.568z" fill="#FAA943"/><path d="M12.575 20.836h-.49v1.07h-.175v-1.07h-.488v-.132h1.153v.132zm.52.397h.156l.152-.003c.052-.003.1-.01.144-.022a.26.26 0 0 0 .109-.059.151.151 0 0 0 .043-.114.161.161 0 0 0-.032-.104.202.202 0 0 0-.082-.06.41.41 0 0 0-.115-.028 1.217 1.217 0 0 0-.129-.007h-.246v.397zm-.176-.53h.378c.071 0 .142.004.212.01a.67.67 0 0 1 .19.045c.055.023.1.056.135.1a.276.276 0 0 1 .053.177.26.26 0 0 1-.099.213.52.52 0 0 1-.271.104l.42.553h-.215l-.402-.54h-.225v.54h-.176v-1.201zm1.974.184h-.004l-.307.59h.604l-.293-.59zm-.079-.183h.165l.629 1.201h-.205l-.15-.295h-.74l-.152.295h-.199l.652-1.201zm1.128 0h.222l.856.998h.004v-.998h.176v1.201h-.222l-.856-.998h-.004v.998h-.176v-1.201zm2.465.212a.25.25 0 0 0-.117-.084.448.448 0 0 0-.152-.026.558.558 0 0 0-.115.011.393.393 0 0 0-.101.036.2.2 0 0 0-.073.063.156.156 0 0 0-.027.092.16.16 0 0 0 .016.072c.01.02.027.04.051.057a.406.406 0 0 0 .096.047c.04.015.09.03.149.044.057.015.112.03.166.048a.61.61 0 0 1 .142.064.308.308 0 0 1 .098.098.272.272 0 0 1 .036.147.27.27 0 0 1-.044.156.358.358 0 0 1-.115.11.562.562 0 0 1-.167.064.882.882 0 0 1-.448-.017.53.53 0 0 1-.111-.051.347.347 0 0 1-.09-.077l.15-.1a.294.294 0 0 0 .134.1.492.492 0 0 0 .399-.02.243.243 0 0 0 .075-.065.146.146 0 0 0 .03-.09.163.163 0 0 0-.023-.09.19.19 0 0 0-.072-.061.61.61 0 0 0-.12-.046l-.172-.048a1.234 1.234 0 0 1-.146-.046.461.461 0 0 1-.116-.065.282.282 0 0 1-.078-.091.272.272 0 0 1-.028-.128.27.27 0 0 1 .042-.151.346.346 0 0 1 .113-.108.566.566 0 0 1 .16-.066.786.786 0 0 1 .189-.022c.083 0 .16.01.228.032a.43.43 0 0 1 .185.11l-.144.101zm.773.317h.297a.42.42 0 0 0 .214-.048.162.162 0 0 0 .082-.15.162.162 0 0 0-.082-.15.42.42 0 0 0-.214-.049h-.297v.397zm-.175-.53h.438c.069 0 .134.006.196.017.062.01.117.029.165.054a.275.275 0 0 1 .158.259c0 .066-.016.12-.047.163a.326.326 0 0 1-.118.101.549.549 0 0 1-.157.053.928.928 0 0 1-.163.015h-.297v.54h-.175v-1.201zm2.064 1.101a.69.69 0 0 0 .237-.04.577.577 0 0 0 .185-.106.49.49 0 0 0 .12-.159.452.452 0 0 0 0-.389.488.488 0 0 0-.12-.158.575.575 0 0 0-.185-.107.695.695 0 0 0-.237-.04.693.693 0 0 0-.238.04.572.572 0 0 0-.184.107.485.485 0 0 0-.12.158.45.45 0 0 0-.043.195.454.454 0 0 0 .162.353c.052.045.114.08.185.107a.695.695 0 0 0 .238.039zm0 .132a.965.965 0 0 1-.31-.047.776.776 0 0 1-.245-.132.595.595 0 0 1-.16-.2.561.561 0 0 1-.058-.252c0-.09.019-.175.057-.252a.594.594 0 0 1 .161-.2c.069-.057.15-.1.245-.132a.968.968 0 0 1 .31-.048.96.96 0 0 1 .31.048.776.776 0 0 1 .244.131.594.594 0 0 1 .161.2.56.56 0 0 1 .058.253c0 .09-.02.174-.058.252a.595.595 0 0 1-.16.2.776.776 0 0 1-.245.131.966.966 0 0 1-.31.048zm1.368-.703h.156l.152-.003c.052-.003.1-.01.144-.022a.26.26 0 0 0 .109-.059.151.151 0 0 0 .043-.114.162.162 0 0 0-.032-.104.202.202 0 0 0-.082-.06.41.41 0 0 0-.115-.028 1.217 1.217 0 0 0-.129-.007h-.246v.397zm-.176-.53h.379c.07 0 .141.004.212.01.07.008.133.022.189.045.055.023.1.056.135.1a.276.276 0 0 1 .053.177.26.26 0 0 1-.099.213.52.52 0 0 1-.271.104l.42.553h-.215l-.401-.54h-.226v.54h-.176v-1.201zm2.369.133h-.488v1.07h-.176v-1.07h-.489v-.132h1.153v.132zm.713.051h-.005l-.307.59h.604l-.292-.59zm-.08-.183h.165l.63 1.201h-.206l-.15-.295h-.74l-.152.295h-.198l.651-1.201zm1.929.132h-.49v1.07h-.175v-1.07h-.489v-.132h1.154v.132zm.344-.132h.176v1.201h-.176v-1.201zm1.368 1.1a.69.69 0 0 0 .238-.04.574.574 0 0 0 .184-.106.488.488 0 0 0 .12-.159.45.45 0 0 0 .043-.194.45.45 0 0 0-.042-.195.487.487 0 0 0-.12-.158.573.573 0 0 0-.185-.107.694.694 0 0 0-.238-.04.694.694 0 0 0-.237.04.571.571 0 0 0-.184.107.486.486 0 0 0-.12.158.45.45 0 0 0-.043.195.454.454 0 0 0 .162.353c.052.045.114.08.185.107a.69.69 0 0 0 .237.039zm0 .132a.965.965 0 0 1-.31-.047.776.776 0 0 1-.244-.132.597.597 0 0 1-.161-.2.561.561 0 0 1-.058-.252c0-.09.02-.175.058-.252a.596.596 0 0 1 .16-.2c.07-.057.151-.1.245-.132a.968.968 0 0 1 .31-.048.97.97 0 0 1 .31.048.778.778 0 0 1 .245.131.595.595 0 0 1 .16.2.561.561 0 0 1 .058.253c0 .09-.019.174-.057.252a.596.596 0 0 1-.16.2.778.778 0 0 1-.245.131.967.967 0 0 1-.31.048zm1.193-1.232h.222l.856.998h.004v-.998h.176v1.201h-.222l-.856-.998h-.004v.998h-.176v-1.201zM20.04 16.507l.406-.065v-.154c-.103.008-1.226.009-1.373 0v.154l.406.065v3.043l-.438.072.003.151c.039-.001 1.29-.01 1.431 0v-.151l-.436-.072v-3.043zm3.741 1.603a14.65 14.65 0 0 1-.714-.03v.156l.398.072v1.073a2.83 2.83 0 0 1-.358.09 1.826 1.826 0 0 1-.327.032c-.434 0-.784-.155-1.052-.464-.267-.308-.401-.714-.401-1.216 0-.458.111-.819.334-1.081.223-.263.529-.394.919-.394a1.535 1.535 0 0 1 .986.353l.171.618.15-.015c0-.03 0-.071.002-.125l.002-.118c0-.15-.003-.286-.01-.406a3.14 3.14 0 0 0-.034-.315 1.96 1.96 0 0 0-.467-.155 2.732 2.732 0 0 0-.541-.05c-.253 0-.484.03-.694.094a2.055 2.055 0 0 0-1.199 1.001 1.89 1.89 0 0 0-.221.889c0 .479.169.874.506 1.186.338.312.769.468 1.292.468.253 0 .504-.034.752-.104.248-.07.495-.174.743-.313v-1.053l.326-.072v-.157a4.041 4.041 0 0 1-.563.035zm4.385-1.603.416-.065v-.154c-.107.009-1.23.01-1.375 0l-.002.154.41.065v1.232h-1.998v-1.232l.406-.065v-.154c-.108.008-1.23.009-1.373 0v.154l.411.065v3.043l-.443.072.003.151c.036-.001 1.281-.01 1.431 0v-.151l-.435-.072v-1.627h1.999v1.627l-.44.072v.151c.14-.01 1.409-.001 1.438 0v-.151l-.448-.072v-3.043zm3.833-.117-.004-.102c-.362.008-2.921.009-3.132 0a5.3 5.3 0 0 0-.08.942v.082h.151l.174-.646a.777.777 0 0 1 .328-.117 3.7 3.7 0 0 1 .59-.037h.08v3.038l-.516.072v.151c.178-.01 1.41-.01 1.573 0v-.151l-.501-.072v-3.038h.095c.17 0 .334.012.493.037.16.025.314.062.464.112l.115.63h.142a9.355 9.355 0 0 0 .028-.902zm-14.453-.164v.154l.41.07.018 2.431s-2.64-2.65-2.714-2.65l.004 2.187-.013 1.057s-.249.047-.413.072a1.483 1.483 0 0 1-.275-.082c-.232-.116-.396-.212-.56-.376a63.104 63.104 0 0 1-1.257-1.367c.238-.2.613-.543.823-.731.21-.188.404-.368.58-.54l.377-.065v-.154c-.092.007-1.2.008-1.307 0l-.002.154.367.06.076.092c-.064.107-.21.271-.437.491-.228.22-.525.486-.892.795v-1.373l.406-.065-.002-.154c-.147.008-1.261.008-1.366 0v.154l.411.065-.005 3.043-.438.072v.151c.02-.002 1.272-.01 1.425 0v-.151l-.431-.072v-1.476l.214.257s.991 1.412 1.735 1.478c.029.001.289-.002.551-.005.064.002.139.002.227 0 .012.001.706-.006.804.004v-.192l-.381-.072-.035-2.364 2.711 2.65.03-3.324.416-.07v-.154c-.085.01-.96.01-1.057 0z" fill="#292929"/></svg>