<svg width="36" height="36" xmlns="http://www.w3.org/2000/svg"><g fill="none"><path d="M18 0c2.837 0 5.52.656 7.907 1.825C31.884 4.753 36 10.895 36 18c0 9.942-8.058 18-18 18-9.94 0-18-8.057-18-18C0 8.06 8.06 0 18 0z" fill="#F2F4F7"/><g fill="#E61A27"><path d="M15.02 21.57c-1.116-.72-2.63-.846-5.074-.168-2.605.612-3.473 1.004-4.614.216-.438-.386-.595-1.01-.478-1.907.272-1.463 1.008-2.87 2.314-4.432.729-.812 1.405-1.51 2.298-1.79.684-.175.62.363.537.44a.662.662 0 0 0-.347.087c-.093.072-.345.302-.359.612-.02.475.472.376.684.116.228-.294.566-.856.3-1.38a.78.78 0 0 0-.542-.36c-.818-.047-1.58.343-2.282.774-1.537 1.067-2.766 2.547-3.462 4.166-.4.977-.763 2.376-.22 3.515.42.79 1.294 1.21 2.336 1.123.73-.077 1.614-.313 2.208-.456.594-.143 3.636-1.188 4.635.632 0 0 .332-.645 1.163-.66.683-.062 1.668.198 2.385.725-.239-.36-.916-.889-1.482-1.254z"/><path d="M10.256 15.463c-.569-.373-1.712.34-2.628 1.564-.837 1.098-1.2 2.374-.806 2.964.586.694 1.673-.316 2.135-.856l.06-.063c.314-.338.556-.744.792-1.134l.226-.373c.133-.025.294-.063.475-.115-.002.008-.693 1.169-.622 1.745.021.176.005.818.632 1.013.835.14 1.503-.508 2.091-1.084l.157-.151-.033.134c-.244.85.085 1.03.292 1.095.623.182 1.368-.724 1.37-.724-.019.285-.075.521.225.71.284.102.571-.053.79-.198.786-.555 1.42-1.422 1.932-2.172h-.327c-.003 0-.805 1.162-1.326 1.414 0 0-.095.049-.15.01-.068-.057-.04-.177 0-.262l2.011-3.487h-.948s-.103.167-.112.178c-.006-.005-.021-.034-.032-.048-.587-.812-1.917.437-2.918 1.886-.386.558-.876 1.185-1.385 1.638 0 0-.754.69-1.076.194-.118-.208-.082-.513-.015-.714.375-1.067 1.02-2.036 1.756-2.62.208-.163.434-.21.545-.14.107.063.124.219.057.326a.528.528 0 0 0-.42.162c-.22.23-.296.453-.226.661.339.483 1.016-.472.983-1.054a.625.625 0 0 0-.289-.502c-.247-.148-.625-.11-.87.008-.327.124-.844.555-1.147.89-.38.42-1.033.886-1.237.834.067-.179.618-1.307.038-1.73zm4.57 1.668c.184-.255.72-.938.852-1.053.44-.388.616-.217.63-.097a86.78 86.78 0 0 1-1.35 2.336c0-.003-.143.217-.143.217-.201.307-.404.57-.734.754-.047.014-.125.02-.177-.019a.187.187 0 0 1-.08-.181c.02-.236.26-.958 1.002-1.957zm-5.157.442s-.008.025-.012.033l-.413.672c-.25.333-.56.75-.948.95-.115.038-.274.063-.355-.038-.172-.206-.083-.492-.012-.722l.026-.082c.206-.56.534-1.054.852-1.513a.042.042 0 0 1 .016-.005l.003.008c.2.384.575.563.855.645.002 0 .004.003.004.008a.13.13 0 0 1-.016.044zm.39-.793c-.001.006-.183.423-.183.423-.026.022-.068.01-.115 0l-.082-.014c-.256-.08-.45-.25-.509-.453-.082-.395.256-.705.404-.818.143-.098.365-.15.494-.049.08.093.11.214.11.346 0 .178-.056.378-.118.565zm11.984 1.273a.558.558 0 0 0-.54-.31c-.75.069-1.485.686-1.87 1.573a4.514 4.514 0 0 0-.386 1.43c.233-.27.71-.711 1.25-.953 0 0 .074-.573.449-1.084.142-.211.425-.551.744-.46.279.093.181.864-.19 1.61a5.176 5.176 0 0 1-1.117 1.477c-.375.318-.93.702-1.415.406-.306-.181-.462-.56-.429-1.048.146-1.386.777-2.566 1.68-3.911.93-1.249 1.957-2.53 3.34-3.214.281-.143.542-.176.768-.088 0 0-1.298.714-1.916 2.034-.157.335-.376.787-.156 1.188.115.209.32.225.484.214.759-.175 1.248-.883 1.649-1.531.232-.491.438-.98.438-1.523 0-.066-.003-.154-.009-.22.362-.192 1.105.148 1.105.148.58.193 1.816 1.14 2.233 1.32.204-.236.538-.592.726-.77l-.272-.168c-.436-.266-.897-.519-1.351-.769-1.03-.562-1.87-.365-2.296-.21-.168.06-.321.112-.321.112-.317-.346-.837-.313-1.22-.22-1.376.395-2.655 1.359-4.025 3.03-1.008 1.31-1.633 2.44-1.966 3.557-.256.752-.334 1.858.292 2.514.533.557 1.24.436 1.739.236 1.08-.533 2.052-1.68 2.536-3 .117-.392.247-.947.046-1.37zm2.485-4.135c-.143 1.64-1.418 2.604-1.734 2.68-.191.04-.518-.046-.226-.734.429-.928 1.161-1.716 1.947-2.12a.42.42 0 0 1 .013.174zm7.568.208c-.686.39-1.398.642-2.259.555-.238.269-.47.546-.685.831 1.209.308 2.49-.376 3.204-1.026.756-.656 1.144-1.482 1.144-1.482s-.567.647-1.404 1.122zm-12.969 1.367h-.9l-.508.825h.9l.508-.825z"/><path d="M29.834 21.645c-.097.066-.233.016-.182-.135.126-.384.63-1.167.63-1.167l1.402-2.488h-.96c-.046.075-.144.248-.144.248a1.32 1.32 0 0 0-.232-.275c-.234-.148-.579-.078-.816.057-1.033.603-1.786 1.797-2.38 2.727 0 0-.626 1.034-.974 1.111-.27.022-.243-.343-.23-.428.104-.615.347-1.2.593-1.73a13.28 13.28 0 0 0 1.585-1.295c1.123-1.073 2.069-2.289 2.207-2.56 0 0-.15.03-.326.035-.864 1.205-2.631 2.956-3.167 3.217.237-.571 1.77-3.296 3.076-4.6l.205-.197c.318-.31.647-.629.903-.681.027-.003.062 0 .092.063.012.242-.078.42-.181.623l-.145.297s.205-.039.34-.083c.156-.293.328-.623.265-1.015a.291.291 0 0 0-.232-.244c-.39-.075-.814.214-1.156.447l-.013.008c-1.755 1.375-3.237 3.357-4.533 6.063-.094.07-.457.156-.518.115.128-.264.289-.618.37-1.002.013-.11.026-.222.026-.332 0-.236-.057-.458-.268-.612-.248-.124-.555-.066-.762.027-.926.385-1.618 1.334-2.117 2.116-.27.497-.537 1.03-.611 1.639-.052.477.054.785.325.938.28.143.631-.005.769-.077.938-.494 1.594-1.484 2.11-2.39.021-.003.303-.01.517-.066.003 0 .004 0 .009.003l-.123.37c-.328.96-.479 1.614-.17 2.001.442.546 1.174-.02 1.77-.766-.128.895.336 1.035.69.966.405-.11.858-.543 1.068-.765-.068.26-.05.727.32.774.253.046.442-.091.662-.21.786-.427 1.727-1.854 1.972-2.267h-.32c-.348.525-.79 1.214-1.346 1.54zm-7.059-.095a.432.432 0 0 1-.068-.243c-.01-.538.57-1.502.978-2.027h.001c.171.375.56.616.793.718-.29.648-1.288 2.035-1.704 1.552zm1.869-1.842c-.028.02-.517-.145-.612-.598-.08-.39.189-.694.448-.848a.45.45 0 0 1 .403-.074c.114.077.145.214.145.362 0 .09-.012.184-.022.27l-.003.018a3.656 3.656 0 0 1-.36.87zm3.922 1.67-.093.081c-.132.118-.268.245-.431.181-.046-.016-.078-.076-.085-.123-.008-.338.144-.65.292-.955l.038-.08c.424-.708.917-1.542 1.64-2.121.122-.088.255-.162.395-.104.032.03.07.082.07.134 0 .017-.016.06-.024.074-.202.327-.395.67-.582 1-.366.65-.746 1.322-1.22 1.912z"/></g></g></svg>