<svg width="36" height="36" fill="none" xmlns="http://www.w3.org/2000/svg"><path d="M18 0c2.837 0 5.52.656 7.907 1.825C31.884 4.753 36 10.895 36 18c0 9.942-8.058 18-18 18-9.94 0-18-8.057-18-18C0 8.06 8.06 0 18 0z" fill="#F2F4F7"/><path d="M4 14h1.209v4.784L7.07 16.78h1.551l-2.074 2.195 2.205 2.639h-1.6l-1.924-2.468h-.02v2.468H4" fill="#1B62B7"/><path d="M8.372 19.197c0 1.52 1.168 2.538 2.628 2.538 1.46 0 2.629-1.018 2.629-2.538 0-1.52-1.168-2.538-2.629-2.538-1.46 0-2.628 1.017-2.628 2.538zm1.208 0c0-.756.534-1.45 1.42-1.45.886 0 1.42.694 1.42 1.45 0 .755-.534 1.45-1.42 1.45-.886 0-1.42-.695-1.42-1.45zm4.607-2.417h1.148v.755h.02c.211-.453.675-.876 1.48-.876.746 0 1.26.292 1.51.896.354-.614.867-.896 1.592-.896 1.29 0 1.742.916 1.742 2.074v2.88h-1.208v-2.739c0-.604-.181-1.128-.896-1.128-.756 0-1.038.625-1.038 1.25v2.617H17.33v-2.88c0-.594-.242-.987-.826-.987-.796 0-1.108.584-1.108 1.229v2.638h-1.208m11.354 0h1.087v-2.78c0-.684 0-2.174-2.064-2.174-.766 0-1.52.231-2.055.775l.635.634a1.901 1.901 0 0 1 1.289-.503c.644 0 1.108.312 1.108.906v.131h-.302c-1.209 0-3.042.111-3.042 1.682 0 .957.866 1.45 1.763 1.45.644 0 1.208-.241 1.55-.785h.03v.664zm-.07-1.892c0 .674-.394 1.107-1.22 1.107-.392 0-.845-.191-.845-.634 0-.695 1.148-.746 1.813-.746h.251m1.829-2.67h1.193l.944 1.288-.616.84m-.009.547.616.84-.935 1.318h-1.194" fill="#1B62B7"/><path d="M30.234 19.185 32 16.778h-1.22l-1.77 2.407 1.77 2.427H32" fill="#ED1C24"/></svg>