<svg height="36" viewBox="0 0 36 36" width="36" xmlns="http://www.w3.org/2000/svg"><mask id="a" fill="#fff"><path d="M0 0h3.023v4.571H0z" fill-rule="evenodd"/></mask><mask id="b" fill="#fff"><path d="M0 0h12.63v10.267H0z" fill-rule="evenodd"/></mask><mask id="c" fill="#fff"><path d="M0 0h8.039v9.903H0z" fill-rule="evenodd"/></mask><g fill="none" fill-rule="evenodd"><path d="M18 0c2.837 0 5.52.656 7.907 1.825C31.884 4.753 36 10.895 36 18c0 9.942-8.058 18-18 18-9.94 0-18-8.057-18-18C0 8.06 8.06 0 18 0z" fill="#f2f4f7" fill-rule="nonzero"/><g fill="#134b97"><path d="M11.581 16.511v-.73h-1.33v4.486h1.363v-2.486c.233-.52.627-.78 1.181-.78.161 0 .323.014.481.047V15.76a1.23 1.23 0 0 0-.425-.064c-.462 0-.886.272-1.27.815m3.697 2.282a1.123 1.123 0 0 1-.28-.774c0-.3.093-.557.28-.768.187-.212.427-.318.72-.318s.533.106.722.318c.188.211.283.468.283.768 0 .303-.095.56-.283.772s-.43.317-.722.317-.533-.105-.72-.315m2.355.882c.439-.447.658-.999.658-1.657 0-.653-.22-1.203-.658-1.65s-.984-.673-1.635-.673-1.196.225-1.633.675c-.438.45-.656 1-.656 1.648s.218 1.198.656 1.65c.437.451.982.677 1.633.677.65.001 1.196-.223 1.635-.67m7.675-2.081c.066-.25.179-.44.338-.577a.834.834 0 0 1 .557-.203c.2 0 .384.08.547.236s.26.338.292.544zm.923-1.898c-.631 0-1.166.22-1.603.66-.438.441-.657.995-.657 1.663 0 .684.21 1.244.629 1.677.419.432.968.65 1.646.65.457 0 .847-.085 1.17-.256a3.16 3.16 0 0 0 .89-.706l-.985-.55c-.255.231-.586.347-.995.347-.586 0-.931-.26-1.034-.779h3.087a.999.999 0 0 1 .008-.11l.012-.128c.003-.038.004-.07.004-.096 0-.658-.203-1.218-.61-1.679-.404-.462-.925-.692-1.562-.693z"/><path d="M2.597 0c-.461 0-.884.272-1.269.816V.084H0v4.487h1.36V2.085c.234-.52.627-.78 1.181-.78.162-.001.324.015.482.048V.064A1.245 1.245 0 0 0 2.597 0" mask="url(#a)" transform="translate(28.977 15.696)"/><path d="M4.94 4.933c.022-.155.033-.31.037-.465h.002c0-1.756 1.429-3.184 3.184-3.184s3.184 1.428 3.184 3.184h1.283A4.472 4.472 0 0 0 8.163 0a4.473 4.473 0 0 0-4.466 4.391h-.002a3 3 0 0 1-.026.378c-.06.456-.23 1.113-.706 1.655-.373.424-.884.711-1.523.861V4.304H0v5.963h1.44V8.596a4.79 4.79 0 0 0 1.224-.38l1.298 2.05h1.723L3.784 7.423a2.93 2.93 0 0 0 .142-.152c.69-.785.933-1.704 1.015-2.338" mask="url(#b)" transform="translate(4 10)"/><path d="M6.473 3.021a.936.936 0 0 1-.726.306c-.295 0-.535-.103-.722-.306s-.281-.456-.281-.759.094-.555.281-.759.427-.305.722-.305c.297 0 .538.101.724.305s.278.456.278.759-.092.556-.276.759zm1.565 2.862V.084H6.741v.382C6.436.156 6.051 0 5.584 0 5.008 0 4.51.217 4.088.65s-.633.97-.633 1.61c0 .638.216 1.169.648 1.595.432.425.925.638 1.48.638a1.934 1.934 0 0 0 1.173-.373v1.764a2.736 2.736 0 0 1-5.473 0H0a4.024 4.024 0 0 0 4.019 4.019 4.023 4.023 0 0 0 4.017-3.901h.001v-.061l.002-.058z" mask="url(#c)" transform="translate(15.358 15.695)"/><path d="M23.834 23.649h.053c.06 0 .11-.021.11-.07 0-.045-.031-.074-.101-.074a.334.334 0 0 0-.062.006zm-.003.27h-.112v-.478a.956.956 0 0 1 .185-.015c.09 0 .13.015.166.036a.133.133 0 0 1 .047.105c0 .053-.04.094-.1.11v.007c.047.018.074.053.088.117.016.074.023.103.036.12h-.12c-.015-.017-.022-.061-.038-.117-.01-.052-.038-.076-.1-.076h-.052zm-.295-.25a.37.37 0 0 0 .373.383c.211 0 .366-.17.366-.38s-.155-.385-.369-.385-.37.172-.37.383zm.861 0a.493.493 0 0 1-.985 0c0-.266.22-.48.494-.48s.491.215.491.48z"/></g></g></svg>