<svg height="36" viewBox="0 0 36 36" width="36" xmlns="http://www.w3.org/2000/svg"><mask id="a" fill="#fff"><path d="M.045 0h.91v1h-.91z" fill-rule="evenodd"/></mask><mask id="b" fill="#fff"><path d="M0 13.569h28V0H0z" fill-rule="evenodd"/></mask><g fill="none" fill-rule="evenodd"><path d="M18 0c2.837 0 5.52.656 7.907 1.825C31.884 4.753 36 10.895 36 18c0 9.942-8.058 18-18 18-9.94 0-18-8.057-18-18C0 8.06 8.06 0 18 0z" fill="#f2f4f7" fill-rule="nonzero"/><path d="m16.472 13.968-.088-.34c-.187-.257-.434-.304-.7-.44l-.038-.088.27.005a.269.269 0 0 0-.032-.154c-.242 0-.443-.004-.695-.084-.317.093-.485.252-.667.485.102.024.186-.018.294 0 .55.066.952.336 1.334.69l.019-.078c-.107-.267-.364-.453-.537-.654.392.192.574.387.84.658M17.574 11c-.374-.014-.743.4-1.102.653-.326.233-.868.28-.947.285.084 0 .705-.005 1.148-.108.476-.112.989-.536 1.213-.648s.466-.042.466-.07c0-.033-.405-.094-.778-.112m2.398.686c-.252-.164-.892-.654-1.526-.425-.63.228-1.055.597-1.35.686-.297.088-.866.098-.866.098s.527.21 1.152.107c.625-.107 1.344-.485 1.95-.411.612.075.55.103.705.122.154.014.266.014.266-.023.004-.042-.08.009-.331-.154m1.675 1.366c-.266-.2-.85-.951-1.685-1.063-.84-.112-2.132.327-2.37.364-.228.037-.695-.056-.7-.042 0 .009.63.252 1.134.354.504.108.462-.004 1.656.098 1.195.103 1.73.509 2.067.57.336.06.565.06.565.018s-.402-.098-.667-.3" fill="#c0995d"/><path d="M14.503 17.463c-.331.154-.966.252-.868.177.084-.07-.546-.303-.924-.583l-.028-.028a12.637 12.637 0 0 0-.685-.639c-.458-.402-.743-.602-.743-.602s.01-.014.024-.042c.056-.089.196-.271.392-.168.084.047.186.102.298.168.323.186.728.438 1.055.644.308.186.546.331.588.336.308.046.298-.01.434-.042-.023.097-.08.13-.196.139a.534.534 0 0 0 .41.005c.192-.084.215-.168.27-.35 0 0 .365.299.692.546.042.028.079.061.116.089-.513.018-.541.257-.835.35m-3.364-1.876c-.16-.004-.205-.177-.173-.331a.781.781 0 0 1 .028-.154c.05-.187.164-.317.392-.289.346.051.49.135.68.289.058.042.113.093.174.149.19.196.233.271.452.495.089.089.21.2.374.35a9.08 9.08 0 0 0-.584-.35 8.891 8.891 0 0 0-.834-.425c.056-.014.153.033.144-.051-.163-.117-.327.014-.448.093-.065.065-.07.229-.205.224m2.319.299c.233.065.163.018.308.088-.215.042-.224.168-.453.019.075-.023.089-.032.145-.107m1.292-1.423a.033.033 0 0 0-.01-.019c.01.005.02.014.029.019.088.079.07.196.093.303-.238.051-.08-.196-.112-.303m1.33.331c.089.079.187.187.28.308.159.21.312.448.434.611l-.28-.084c-.084-.149-.182-.345-.275-.527l-.16-.308m4.41 3.836c-.14-.052-.275-.099-.405-.155-.36-.21-.126-.443-.393-.69.112-.028.112-.257.112-.271a6.305 6.305 0 0 0-2.1.681c-.447-.42-1.115-.634-1.68-.891a6.463 6.463 0 0 1-.465-.275 6.013 6.013 0 0 1-.85-.639 3.677 3.677 0 0 1-.56-.644l.075.284a5.003 5.003 0 0 0-.854-.284 2.392 2.392 0 0 0-.364-.056.163.163 0 0 0 .028.056c.056.079.173.121.257.14-.07.065-.121.056-.224.033-.051-.057-.112-.113-.168-.173-.107-.112-.191-.238-.14-.406.14-.294.513-.131.774-.103l.06-.042c-.083-.074-.21-.061-.325-.093a.346.346 0 0 1-.126-.056c-.117-.08-.23-.182-.155-.303.27-.509.617.13.91.139-.107-.13-.266-.27-.34-.419.042-.07.177-.07.284-.075.042.023.089.052.136.075.359.205.714.438 1.078.639.154.084.307.163.466.233.248.103.429.322.672.406.023.01.047.014.07.019.672.009 1.302.331 1.876.532-.047-.173-.201-.205-.308-.336-.07-.07-.136-.14-.196-.22a3.459 3.459 0 0 1-.374-.644c-.097-.21-.186-.429-.27-.639-.08-.186-.154-.368-.238-.532a18.208 18.208 0 0 0 .204 1.171c.052.239.109.467.165.644.004.015.009.028.013.047a.177.177 0 0 1-.032-.047 9.924 9.924 0 0 0-.518-.644 4.483 4.483 0 0 0-.71-.639c-.051-.037-.102-.07-.153-.107 0 0 .014.042.042.107.06.14.177.406.28.639.065.141.12.271.168.355l-.028.019a.809.809 0 0 0-.551-.332c-.107.052-.196.015-.284-.042-.108-.069-.21-.181-.332-.223l.168-.42c.066-.308-.182-.528-.327-.742l-.452.228c-.247-.107-.336-.312-.392-.569l.224-.168c-.01-.084-.163-.116-.238-.158.294-.126.565-.257.854-.355.382-.163.896-.028 1.246.21l.014-.061-.681-.466c-.197.037-.388.172-.575.158.159-.503.612-.592.612-.592s.62-.168.807-.36c.206-.214.616-.48.616-.504 0-.023-.462-.013-.658.047-.322.121-.476.56-.9.807-.3.154-.556.341-.63.672l-.994.383-.023.103c.13.135.237.401.294.63-.01.051-.08-.019-.108.004-.07-.177-.098-.424-.303-.471l-.014.079c.107.131.154.275.2.448.15.196.476.182.644.378a.642.642 0 0 1 .15.303.475.475 0 0 1-.005.159c-.121-.033-.238-.098-.35-.159-.266-.149-.523-.312-.817-.168-.098.103-.233.126-.354.168-.09.033-.173.075-.224.164-.13.107-.056.256-.024.373-.055.047-.097.075-.13.102a.274.274 0 0 0-.084.168c-.07-.06-.135-.116-.201-.168a2.828 2.828 0 0 0-.578-.349.919.919 0 0 0-.831-.005c-.056.257-.308.042-.425.233-.027.042-.055.084-.074.126h.196a.195.195 0 0 0 .019-.042c.056-.014.074.005.079.042.009.079-.052.243.005.327a.631.631 0 0 0 .093.317c-.061.042-.037.131-.163.056a.487.487 0 0 1-.075-.056c-.21-.191-.056-.443.042-.644h-.196c-.084.154-.14.318-.09.513.015.047.029.089.043.126a.42.42 0 0 0 .229.252.487.487 0 0 0 .504-.084c.238.141.397.294.536.472.155.195.28.41.476.644.22.256.519.536 1.022.825.13.136.499.187.439.472.779-.238 1.58-.714 2.44-.583.112-.005.06-.15.168-.154.448.177.9.326 1.269.62.07.042.019.163.145.191l.4-.238c.379.168.766.322 1.154.467 3.382 1.246 7.04 1.595 7.054 1.549.01-.046-3.065-.56-5.753-1.539" fill="#c0995d"/><path d="M15.562 14.463a.58.58 0 0 1-.051.187c-.061.111-.131.246-.234.223l-.046-.046a.82.82 0 0 0 .168-.365c.018-.088.028-.182.023-.27.061-.042.103.023.149.06-.004 0 .005.098-.009.21m-4.838 1.815c-.21.07-.401-.05-.513-.242-.056-.098-.056-.2-.056-.294 0-.033.005-.066 0-.098.014-.075.089-.168.149-.182a1.484 1.484 0 0 0-.005.28.519.519 0 0 0 .066.191c.084.145.294.215.485.163.065-.014.056-.05.103-.014.027.122-.122.164-.23.196m8.735.934c-.686.21-1.754.793-1.754.793s-.728-.457-1.167-.658a6.621 6.621 0 0 1-.634-.322 5.576 5.576 0 0 1-.924-.639 4.003 4.003 0 0 1-.504-.523s.345.247.812.523c.397.233.881.49 1.316.64.126.041.251.08.368.097.336.07.681.028.966-.047.009.22-.159.3-.341.392.21.02.476-.084.644-.237a.607.607 0 0 0 .126-.21c.075-.2.07-.444.056-.64.252.201.565.42.826.64.08.07.149.126.21.191m4.531-.275c0 .019-.168.056-.392.088a7.426 7.426 0 0 1-1.022.099c-.294-.01-1.05.093-1.75-.1a2.074 2.074 0 0 1-.713-.34 6.707 6.707 0 0 1-.355-.298c-.01-.004-.014-.013-.018-.018a9.073 9.073 0 0 1-1.125-1.269 14.845 14.845 0 0 1-.448-.64c-.322-.49-.513-.854-.537-.896.024.024.392.439.83.896.21.22.435.444.64.64.224.21.425.387.574.489.075.052.163.103.252.155.387.219.89.443 1.339.625l.042.014c.238.093.49.19.662.252.588.205 2.02.26 2.02.303" fill="#c0995d"/><path d="M26.439 16.091c0 .038-3.313.168-5.343-.345a4.648 4.648 0 0 1-.756-.252 4.153 4.153 0 0 1-.653-.387 9.993 9.993 0 0 1-.79-.64 17.028 17.028 0 0 1-1.253-1.259c.042.028.728.452 1.264.685.293.131.788.294 1.473.574a21.16 21.16 0 0 1 2.194 1.05c.168.089.369.168.598.229 1.278.354 3.266.308 3.266.345" fill="#c0995d"/><path d="M24.082 14.939s-.387.177-1.391-.042a5.733 5.733 0 0 1-1.199-.434c-.452-.214-.919-.453-1.554-.658-1.156-.368-1.287-.368-1.707-.606a7.33 7.33 0 0 1-.667-.42c.042.014.504.18.849.228.359.052 2.767.33 3.658.817.425.228.691.462.891.639.136.117.243.21.355.26.275.127.765.16.765.216" fill="#c0995d"/><g fill="#004288"><path d="M.414.425V.22h.023c.07 0 .154.018.154.098C.591.406.479.42.414.425zm.284.21L.694.625.554.439C.624.43.68.383.68.313.68.215.586.173.502.173H.269v.023c.056 0 .056.014.056.066v.363C.32.663.302.672.26.672v.019h.224V.667C.456.667.414.663.414.625V.444h.042l.13.177.047.065h.121V.663C.731.672.712.658.698.635zM.414.425V.22h.023c.07 0 .154.018.154.098C.591.406.479.42.414.425zm.284.21L.694.625.554.439C.624.43.68.383.68.313.68.215.586.173.502.173H.269v.023c.056 0 .056.014.056.066v.363C.32.663.302.672.26.672v.019h.224V.667C.456.667.414.663.414.625V.444h.042l.13.177.047.065h.121V.663C.731.672.712.658.698.635zM.414.425V.22h.023c.07 0 .154.018.154.098C.591.406.479.42.414.425zm.284.21L.694.625.554.439C.624.43.68.383.68.313.68.215.586.173.502.173H.269v.023c.056 0 .056.014.056.066v.363C.32.663.302.672.26.672v.019h.224V.667C.456.667.414.663.414.625V.444h.042l.13.177.047.065h.121V.663C.731.672.712.658.698.635zM.414.425V.22h.023c.07 0 .154.018.154.098C.591.406.479.42.414.425zm.284.21L.694.625.554.439C.624.43.68.383.68.313.68.215.586.173.502.173H.269v.023c.056 0 .056.014.056.066v.363C.32.663.302.672.26.672v.019h.224V.667C.456.667.414.663.414.625V.444h.042l.13.177.047.065h.121V.663C.731.672.712.658.698.635zM.414.425V.22h.023c.07 0 .154.018.154.098C.591.406.479.42.414.425zm.284.21L.694.625.554.439C.624.43.68.383.68.313.68.215.586.173.502.173H.269v.023c.056 0 .056.014.056.066v.363C.32.663.302.672.26.672v.019h.224V.667C.456.667.414.663.414.625V.444h.042l.13.177.047.065h.121V.663C.731.672.712.658.698.635zM.414.425V.22h.023c.07 0 .154.018.154.098C.591.406.479.42.414.425zm.284.21L.694.625.554.439C.624.43.68.383.68.313.68.215.586.173.502.173H.269v.023c.056 0 .056.014.056.066v.363C.32.663.302.672.26.672v.019h.224V.667C.456.667.414.663.414.625V.444h.042l.13.177.047.065h.121V.663C.731.672.712.658.698.635zM.414.425V.22h.023c.07 0 .154.018.154.098C.591.406.479.42.414.425zm.284.21L.694.625.554.439C.624.43.68.383.68.313.68.215.586.173.502.173H.269v.023c.056 0 .056.014.056.066v.363C.32.663.302.672.26.672v.019h.224V.667C.456.667.414.663.414.625V.444h.042l.13.177.047.065h.121V.663C.731.672.712.658.698.635zM.414.425V.22h.023c.07 0 .154.018.154.098C.591.406.479.42.414.425zm.284.21L.694.625.554.439C.624.43.68.383.68.313.68.215.586.173.502.173H.269v.023c.056 0 .056.014.056.066v.363C.32.663.302.672.26.672v.019h.224V.667C.456.667.414.663.414.625V.444h.042l.13.177.047.065h.121V.663C.731.672.712.658.698.635zM.414.425V.22h.023c.07 0 .154.018.154.098C.591.406.479.42.414.425zM.689.63.549.444C.619.434.675.388.675.318.675.22.582.178.498.178H.265v.023C.32.201.32.215.32.266V.63C.316.667.297.677.255.677v.019h.224V.672C.451.672.409.667.409.63V.448h.042l.131.177.046.066H.75V.667C.722.667.703.654.689.63zM.498 0a.45.45 0 0 0-.453.448.4.4 0 0 0 .042.182h.052A.39.39 0 0 1 .092.448a.405.405 0 1 1 .77.182h.051A.4.4 0 0 0 .955.448.46.46 0 0 0 .498 0zM.414.425V.22h.023c.07 0 .154.018.154.098C.591.406.479.42.414.425zm.284.21L.694.625.554.439C.624.43.68.383.68.313.68.215.586.173.502.173H.269v.023c.056 0 .056.014.056.066v.363C.32.663.302.672.26.672v.019h.224V.667C.456.667.414.663.414.625V.444h.042l.13.177.047.065h.121V.663C.731.672.712.658.698.635zM.414.425V.22h.023c.07 0 .154.018.154.098C.591.406.479.42.414.425zm.284.21L.694.625.554.439C.624.43.68.383.68.313.68.215.586.173.502.173H.269v.023c.056 0 .056.014.056.066v.363C.32.663.302.672.26.672v.019h.224V.667C.456.667.414.663.414.625V.444h.042l.13.177.047.065h.121V.663C.731.672.712.658.698.635zM.414.425V.22h.023c.07 0 .154.018.154.098C.591.406.479.42.414.425zm.284.21L.694.625.554.439C.624.43.68.383.68.313.68.215.586.173.502.173H.269v.023c.056 0 .056.014.056.066v.363C.32.663.302.672.26.672v.019h.224V.667C.456.667.414.663.414.625V.444h.042l.13.177.047.065h.121V.663C.731.672.712.658.698.635zM.414.425V.22h.023c.07 0 .154.018.154.098C.591.406.479.42.414.425zm.284.21L.694.625.554.439C.624.43.68.383.68.313.68.215.586.173.502.173H.269v.023c.056 0 .056.014.056.066v.363C.32.663.302.672.26.672v.019h.224V.667C.456.667.414.663.414.625V.444h.042l.13.177.047.065h.121V.663C.731.672.712.658.698.635zM.414.425V.22h.023c.07 0 .154.018.154.098C.591.406.479.42.414.425zm.284.21L.694.625.554.439C.624.43.68.383.68.313.68.215.586.173.502.173H.269v.023c.056 0 .056.014.056.066v.363C.32.663.302.672.26.672v.019h.224V.667C.456.667.414.663.414.625V.444h.042l.13.177.047.065h.121V.663C.731.672.712.658.698.635zM.414.425V.22h.023c.07 0 .154.018.154.098C.591.406.479.42.414.425zm.284.21L.694.625.554.439C.624.43.68.383.68.313.68.215.586.173.502.173H.269v.023c.056 0 .056.014.056.066v.363C.32.663.302.672.26.672v.019h.224V.667C.456.667.414.663.414.625V.444h.042l.13.177.047.065h.121V.663C.731.672.712.658.698.635zM.414.425V.22h.023c.07 0 .154.018.154.098C.591.406.479.42.414.425zm.284.21L.694.625.554.439C.624.43.68.383.68.313.68.215.586.173.502.173H.269v.023c.056 0 .056.014.056.066v.363C.32.663.302.672.26.672v.019h.224V.667C.456.667.414.663.414.625V.444h.042l.13.177.047.065h.121V.663C.731.672.712.658.698.635zM.414.425V.22h.023c.07 0 .154.018.154.098C.591.406.479.42.414.425zm.284.21L.694.625.554.439C.624.43.68.383.68.313.68.215.586.173.502.173H.269v.023c.056 0 .056.014.056.066v.363C.32.663.302.672.26.672v.019h.224V.667C.456.667.414.663.414.625V.444h.042l.13.177.047.065h.121V.663C.731.672.712.658.698.635zM.414.425V.22h.023c.07 0 .154.018.154.098C.591.406.479.42.414.425zm.284.21L.694.625.554.439C.624.43.68.383.68.313.68.215.586.173.502.173H.269v.023c.056 0 .056.014.056.066v.363C.32.663.302.672.26.672v.019h.224V.667C.456.667.414.663.414.625V.444h.042l.13.177.047.065h.121V.663C.731.672.712.658.698.635zM.414.425V.22h.023c.07 0 .154.018.154.098C.591.406.479.42.414.425zm.135.019C.619.434.675.388.675.318.675.22.582.178.498.178H.265v.023C.32.201.32.215.32.266V.63h.089V.453h.042L.582.63h.103zM.862.63a.412.412 0 0 1-.364.22.397.397 0 0 1-.359-.22H.087a.453.453 0 0 0 .826 0zM.414.635.325.63C.32.667.302.677.26.677v.019h.224V.672C.456.672.414.667.414.635zm.284 0L.694.625H.591l.047.066h.121V.667C.731.672.712.658.698.635z" mask="url(#a)" transform="translate(31.045 22.026)"/><path d="M30.722 20.743v2.179h-1.06v-2.179c-.01-.247-.065-.392-.153-.513a.468.468 0 0 0-.322-.16c-.215 0-.434.118-.616.267v2.585h-1.055v-3.387l1.045-.168v.462c.49-.31.733-.401 1.158-.401.574-.005 1.003.396 1.003 1.315m-3.453 2.175h-1.031c-.215 0-.308-.065-.331-.267-.005-.037-.005-.08-.005-.126v-1.31h-.084c-.121 0-.817.153-.817.816 0 .108.042.378.206.434a.905.905 0 0 0 .196.023c.14 0 .28-.042.434-.09-.014.058-.028.16-.042.253a3.65 3.65 0 0 1-.028.206c-.196.065-.364.13-.57.154-.121.01-.181.01-.21.01-.344 0-.695-.113-.895-.365a.846.846 0 0 1-.173-.541c0-1.148 1.983-1.325 1.983-1.325v-.3c0-.115-.028-.592-.63-.592-.331 0-.91.13-1.078.197l.06-.457c.122-.042.673-.21.869-.234.966-.117 1.456.247 1.614.452.14.183.229.49.229.714v1.886c0 .069.014.135.042.195.05.136.149.244.26.267m-3.588-1.871c0 .648-.228 1.25-.671 1.609a1.53 1.53 0 0 1-.868.34c-.121.01-.187.01-.21.01a1.42 1.42 0 0 1-.49-.098 4.237 4.237 0 0 1-.055-.252c-.02-.097-.033-.181-.033-.181.135.055.275.102.42.102.504 0 .802-.453.802-1.385 0-.108-.014-.276-.046-.45-.052-.27-.16-.558-.35-.671-.084-.046-.22-.107-.31-.107-.18 0-.41.07-.591.2v4.368h-1.055v-5.006l1.06-.16v.323c.266-.15.587-.256.854-.28.12-.014.172-.014.196-.014.312 0 .658.102.966.443a2.003 2.003 0 0 1 .363.905c0 .033.005.06.005.094.01.13.014.182.014.21m-3.891.816c0 .238-.07.555-.336.793-.224.2-.598.35-1.195.35a3.15 3.15 0 0 1-1.04-.196l-.042-.154c-.028-.107-.052-.22-.084-.331.177.06.546.238 1.022.238.41 0 .686-.215.686-.476 0-.126-.075-.276-.243-.373-.42-.243-.887-.331-1.283-.761a.608.608 0 0 1-.121-.215.964.964 0 0 1-.047-.284c0-.607.56-1.055 1.418-1.055.495 0 .864.196.864.196s.098.34.135.504c-.322-.154-.597-.252-.896-.252-.168 0-.541.056-.541.387 0 .215.289.35.63.504.49.225 1.073.495 1.073 1.125m-5.217-1.148c0-.256.056-.447.112-.588a.497.497 0 0 1 .453-.321c.457 0 .564.713.564.908v.028c-.004.201-.088.533-.196.677-.116.158-.22.173-.354.173-.448 0-.574-.584-.58-.85zm1.95 1.94c-.662-.354-1.908-.158-1.908-.424 0-.07.098-.247.126-.303.112.018.13.042.392.042 1.17 0 1.52-.83 1.52-1.213v-.014c0-.302-.083-.532-.353-.858l.46.07v-.537h-1.678c-.57 0-1.461.443-1.461 1.26v.065c.015.383.168.705.696 1.032-.276.228-.537.522-.537.789 0 .032.004.064.009.092.052.247.299.388.388.415.518.165 1.049.052 1.577.299.126.056.224.15.247.243v.033c0 .354-.644.475-.952.475-.028 0-.065-.004-.177-.01-.355-.017-.71-.111-1.064-.218.05.168.089.322.14.48.298.099.522.15.9.187l.355.009c.588 0 1.489-.21 1.68-.956a1.27 1.27 0 0 0 .037-.303c.009-.323-.154-.523-.396-.654zm-3.298-1.912v2.179h-1.06V20.84c0-.033 0-.065-.004-.098-.014-.187-.07-.396-.154-.513a.467.467 0 0 0-.326-.16c-.215 0-.435.118-.612.267v2.585h-1.05v-3.387l1.05-.168v.462c.486-.31.733-.401 1.157-.401.57-.005.999.396.999 1.315m-3.77-2.379a.596.596 0 0 1-.597.579c-.322 0-.598-.243-.598-.57 0-.321.224-.587.607-.587.35 0 .588.299.588.578m-.071.999v3.556h-1.05V19.53z"/><path d="M0 11.918h1.031v-4.75H0zm4.027.003H2.706l-.177-.265-1.302-1.914-.191-.289 1.908-2.285h.938L2.086 9.276l.34.467 1.41 1.913z" mask="url(#b)" transform="translate(4 11)"/></g></g></svg>