<svg width="36" height="36" fill="none" xmlns="http://www.w3.org/2000/svg"><path d="M18 0c2.837 0 5.52.656 7.907 1.825C31.884 4.753 36 10.895 36 18c0 9.942-8.058 18-18 18-9.94 0-18-8.057-18-18C0 8.06 8.06 0 18 0z" fill="#F2F4F7"/><path fill-rule="evenodd" clip-rule="evenodd" d="M7.35 18.43c.572.089.65.428.696.743l.008.054.005.036.028.186c.054.354.168 1.09.168 1.474a.67.67 0 0 1-.024.21c-.025.062-.1.122-.204.172-.25.061-.511.095-.78.095l-.085-.002c-.11-.031-.191-.083-.234-.154-.131-.212-.14-.687-.142-1.241v-.064l-.001-.167c-.004-.586-.008-1.092.205-1.274.083-.07.2-.093.36-.068zM6.1 19.708c.125-.007.205.603.22 1.066.012.322-.022.455-.076.503a3.048 3.048 0 0 1-.18-.067.992.992 0 0 1-.09-.332c-.058-.465-.007-1.162.127-1.17zm3.112.912a.39.39 0 0 1-.032.103 3.036 3.036 0 0 1-.334.234c-.037.006-.07.002-.087-.026-.154-.272-.212-1.124-.063-1.198.196-.095.545.74.516.887zM7.2 15c1.743 0 3.16 1.38 3.199 3.097v.087a3.138 3.138 0 0 1-.758 2.035c-.017-.009-.048-.037-.105-.121-.058-.085-.561-.86-.561-1.746 0-.175.25-.447.473-.686.166-.18.323-.349.381-.482.074-.172.022-.292-.06-.332-.073-.037-.184-.01-.262.128a1.091 1.091 0 0 1-.355.415c-.183.15-.475.3-.475.106 0-.106.163-.344.243-.511.082-.17-.007-.292-.176-.292-.332 0-.552.424-.552.57 0 .147.07.167.07.338 0 .172-.364.395-.707.395-.33 0-.522-.067-.602-.256l-.01-.026-.023-.068a3.39 3.39 0 0 0-.241-.591c-.054-.095-.138-.162-.21-.22-.094-.073-.143-.14-.153-.19-.01-.05-.015-.144.146-.36.161-.216.184-.379.103-.462a.196.196 0 0 0-.142-.05c-.113 0-.27.06-.432.225-.25.257-.108.501-.108.608 0 .108-.046.168-.197.314-.152.147-.204.272-.222.777a1.78 1.78 0 0 1-.093.543 1.248 1.248 0 0 0-.01.802c.034.12.07.258.092.489.036.357.023.659-.042.967l-.018.077-.004.023a.44.44 0 0 1-.051.144A3.156 3.156 0 0 1 4 18.171C4 16.42 5.433 15 7.2 15z" fill="#F14635"/><path d="M22.621 17.194c.317 0 .563.112.739.337.175.224.263.532.263.924v.037c0 .383-.09.689-.27.918a.877.877 0 0 1-.727.343.754.754 0 0 1-.582-.249v1.245h-.8v-3.51h.748l.024.229a.753.753 0 0 1 .605-.274zm-5.58 0c.328 0 .587.077.777.23a.79.79 0 0 1 .292.632v1.093c.003.226.04.4.11.52v.038h-.801a.846.846 0 0 1-.076-.22c-.147.177-.353.266-.617.266a.934.934 0 0 1-.618-.211.66.66 0 0 1-.254-.53c0-.268.103-.47.309-.607.206-.137.505-.205.897-.205h.247v-.13c0-.227-.102-.34-.306-.34-.19 0-.285.09-.285.27h-.8c0-.24.105-.433.317-.582.211-.15.48-.224.808-.224zm2.605 0c.339 0 .611.074.817.222a.684.684 0 0 1 .309.581h-.803c0-.198-.109-.296-.325-.296a.332.332 0 0 0-.212.067.206.206 0 0 0-.085.167c0 .069.035.124.104.167.07.043.181.077.334.105.153.027.287.06.402.098.387.128.58.356.58.686 0 .225-.104.408-.312.55-.209.141-.478.212-.809.212a1.45 1.45 0 0 1-.589-.114.979.979 0 0 1-.403-.31.684.684 0 0 1-.145-.413h.748c.003.114.042.197.118.25a.504.504 0 0 0 .292.078c.11 0 .192-.02.246-.064a.201.201 0 0 0 .082-.166c0-.065-.036-.118-.107-.157a1.671 1.671 0 0 0-.406-.123 1.903 1.903 0 0 1-.494-.168.817.817 0 0 1-.296-.252.584.584 0 0 1-.103-.34c0-.226.098-.413.292-.56.195-.146.45-.22.765-.22zm-6.012-.994v1.651l1.133-1.65h1.03l-1.266 1.655 1.169 1.851h-.988l-.736-1.236-.342.36v.876H12.8V16.2h.834zm11.283 1.04v2.467h-.802V17.24h.802zm7.057 0v.415l-1.145 1.46H32v.592h-2.182v-.428l1.14-1.446h-1.343l.535-.593h1.824zm-5.984 1.67a.39.39 0 0 1 .396.382.39.39 0 0 1-.396.382.39.39 0 0 1-.396-.382.39.39 0 0 1 .396-.382zm1.859-2.71v1.842l.08-.102.605-.713h.962l-.902 1.005.961 1.438h-.918l-.562-.91-.226.215v.695h-.803V16.2h.803zm-10.542 2.41h-.232c-.28 0-.418.12-.418.36 0 .07.024.126.073.17.05.043.112.065.188.065.1 0 .182-.02.248-.062a.393.393 0 0 0 .141-.14v-.394zm5.117-.824c-.19 0-.316.066-.38.196v.972c.07.137.198.205.385.205.255 0 .386-.211.394-.634v-.082c0-.438-.133-.657-.399-.657zm2.103-1.587c.219 0 .396.18.396.4 0 .221-.177.4-.396.4a.398.398 0 0 1-.396-.4c0-.22.177-.4.396-.4z" fill="#000"/></svg>