<svg height="36" viewBox="0 0 36 36" width="36" xmlns="http://www.w3.org/2000/svg"><g fill="none" fill-rule="evenodd"><path d="M18 0c2.837 0 5.52.656 7.907 1.825C31.884 4.753 36 10.895 36 18c0 9.942-8.058 18-18 18-9.94 0-18-8.057-18-18C0 8.06 8.06 0 18 0z" fill="#f2f4f7" fill-rule="nonzero"/><g fill="#2e65b0"><path d="M16.441 6.737V19.61H30v-.39H16.831V6.737z"/><path d="M28.632 18.244H17.806V5.368h.39v12.485h10.436z"/><path d="M19.174 4v12.878h8.089v-.392h-7.698V4zM6 19.609h9.58v-.39H6zm1.369-1.365h8.211v-.391H7.37zm1.368-1.366h6.843v-.391H8.737zm4.926 10.258h.445c.233 0 .383-.118.383-.299v-.004c0-.177-.141-.284-.378-.284h-.45zm4.86 0h.445c.234 0 .384-.118.384-.299v-.004c0-.177-.141-.284-.378-.284h-.45zm-3.225.054h.36c.245 0 .41-.129.41-.322v-.003c0-.198-.15-.316-.399-.316h-.371zm4.928.127h.679l-.339-.744zm-7.787-.793c-.321 0-.563.255-.563.594v.003c0 .336.249.6.567.6.32 0 .562-.256.562-.596v-.003c0-.335-.248-.598-.566-.598zm4.82 0c-.321 0-.564.255-.564.594v.003c0 .336.25.6.568.6.32 0 .562-.256.562-.596v-.003c0-.335-.249-.598-.567-.598zm6.955 0c-.32 0-.563.255-.563.594v.003c0 .336.249.6.567.6.321 0 .563-.256.563-.596v-.003c0-.335-.249-.598-.567-.598zm-9.538 1.285h-.156l-.004-.004-.427-.556h-.426v.56h-.123v-1.374h.58c.162 0 .3.048.389.136a.368.368 0 0 1 .105.26v.002c0 .21-.144.356-.387.395zm.622 0h-.123v-1.374h.502c.312 0 .514.166.514.424v.004c0 .305-.27.442-.539.442h-.354zm4.239 0h-.156l-.004-.004-.427-.556h-.426v.56H18.4v-1.374h.58c.163 0 .3.048.389.136a.368.368 0 0 1 .105.26v.002c0 .21-.144.356-.386.395zm1.728 0h-.136l-.002-.006-.17-.372h-.783L20 27.81h-.128l.007-.015.633-1.37h.11l.004.007zm.71 0h-.123v-1.26h-.472v-.114h1.067v.114h-.472v1.26zm.93 0h.124v-1.374h-.124zm3.633 0h-.093l-.003-.004-.933-1.178v1.182h-.119v-1.374h.112l.003.004.914 1.151v-1.155h.119zm-15.693.024c-.39 0-.684-.304-.684-.708v-.003c0-.399.303-.711.688-.711.244 0 .39.088.534.219l.008.009-.087.089-.009-.007a.605.605 0 0 0-.448-.197c-.32 0-.56.255-.56.594v.004c0 .335.247.598.562.598.176 0 .309-.06.458-.208l.008-.007.083.08-.008.008a.73.73 0 0 1-.545.24zm1.594 0c-.394 0-.69-.304-.69-.708v-.003c0-.35.26-.711.694-.711.392 0 .688.302.689.704.003.004.002.007 0 .01-.002.35-.26.708-.693.708zm4.82 0c-.394 0-.69-.304-.69-.708v-.003c0-.35.26-.711.694-.711.391 0 .687.302.689.704.002.004.001.007 0 .01-.002.35-.26.708-.694.708zm6.955 0c-.393 0-.69-.304-.69-.708v-.003c0-.35.26-.711.694-.711.392 0 .688.302.69.704.002.004.001.007 0 .01-.002.35-.261.708-.694.708zm1.469-5.318v-.011c0-.345.318-.618.816-.618.395 0 .75.125 1.106.416l.252-.335a2 2 0 0 0-1.347-.47c-.728 0-1.259.443-1.259 1.046v.01c0 .63.405.914 1.286 1.106.806.17.997.373.997.729v.01c0 .378-.34.652-.855.652-.53 0-.913-.181-1.314-.542l-.268.317c.46.412.958.613 1.566.613.761 0 1.309-.427 1.309-1.083v-.012c0-.585-.394-.897-1.248-1.084-.844-.18-1.04-.382-1.04-.744zm-2 2.896 1.071-3.86H24.3l-.813 3.123-1.034-3.134h-.356l-1.035 3.134-.811-3.123h-.472l1.07 3.86h.362l1.057-3.11 1.05 3.11zm-7.319-.027h2.798v-.394h-2.365v-1.342h2.092v-.395h-2.092v-1.308h2.338v-.394h-2.77zm-.838-1.917c.006-.006.006-.006 0-.01 0-1.058-.783-1.971-1.95-1.971-1.165 0-1.959.925-1.959 1.981v.012c0 1.056.783 1.971 1.95 1.971 1.165 0 1.959-.926 1.959-1.983zm-.448.012c0 .87-.624 1.57-1.501 1.57-.876 0-1.51-.71-1.51-1.582v-.01c0-.87.623-1.571 1.5-1.571s1.51.711 1.51 1.581zm-6.351 1.905h2.59v-.4H9.16v-3.433h-.433z"/></g></g></svg>