<svg width="36" height="36" fill="none" xmlns="http://www.w3.org/2000/svg"><path d="M18 0c2.837 0 5.52.656 7.907 1.825C31.884 4.753 36 10.895 36 18c0 9.942-8.058 18-18 18-9.94 0-18-8.057-18-18C0 8.06 8.06 0 18 0z" fill="#F2F4F7"/><path d="M14.08 20.75h1.536V15h-1.537v5.75zM23.179 15v2.196h-1.357V15h-5.958v1.295h1.402v4.456h1.537v-4.456h1.482v4.456h1.537v-2.26h1.357v2.26h1.536v-5.75H23.18zm2.019 5.75h1.536V15h-1.536v5.75zM11.944 15h-1.537v5.751h3.407v-1.384h-1.87V15zm17.523 2.701.94 3.05L32 20.748 30.147 15h-1.35l-.003.006-.002-.001-1.856 5.746 1.545-.003.986-3.047" fill="#231F20"/><path d="M5.468 15v2.053c.007.675.174.74.873.982l3.437 1.14v.84l-3.532-1.476c-.388-.163-.662-.301-.83-.49-.163-.184-.23-.41-.234-.784V15h.286z" fill="#fff"/><path d="M4.832 15v2.492c.007.674.209.943.98 1.307l3.966 1.952H8.112l-2.389-1.306c-.793-.426-1.17-.928-1.178-1.628V15h.287z" fill="#fff"/><path d="m6.341 18.035 3.437 1.14v-3.819A.356.356 0 0 0 9.422 15H5.469v2.053c.006.675.173.74.872.982z" fill="#0093D0"/><path d="m5.812 18.8 3.966 1.951v-.736l-3.532-1.476c-.388-.163-.662-.301-.83-.49-.163-.184-.23-.41-.234-.784V15h-.35v2.492c.007.674.209.943.98 1.307z" fill="#0093D0"/><path d="M4.545 17.818V15H4v5.395c0 .185.141.337.322.355l.035.002h3.758-.003l-2.388-1.306c-.794-.426-1.172-.928-1.178-1.628" fill="#0093D0"/></svg>