<svg width="36" height="36" fill="none" xmlns="http://www.w3.org/2000/svg"><path d="M18 0c2.837 0 5.52.656 7.907 1.825C31.884 4.753 36 10.895 36 18c0 9.942-8.058 18-18 18-9.94 0-18-8.057-18-18C0 8.06 8.06 0 18 0z" fill="#F2F4F7"/><path fill-rule="evenodd" clip-rule="evenodd" d="M8.085 15.897A8.108 8.108 0 0 1 10.93 15s.08 1.855-1.379 3.783H8.085v-2.886zm-4.084 6.05s-.104-2.397 2.065-4.571a8.11 8.11 0 0 1 1.424-1.137v3.077h1.616a8.423 8.423 0 0 1-5.105 2.63z" fill="#F15A22"/><path d="M13.28 20.783h-.073v-4.685h.072v4.685zm2.44-2.553V16.1h.54v1.737h.778l.073.393h-1.39zm3.374.021-.22-.534h-.927l-.212.512h-.526l.943-2.136h.554l.92 2.078-.532.08zm-.684-1.66-.318.77h.637l-.319-.77zm2.847 1.639-.037-.214a1.37 1.37 0 0 1-.76.239c-.505 0-.798-.21-.798-.714V16.1h.538v1.38c0 .258.12.384.388.384a.936.936 0 0 0 .58-.218V16.1h.543v2.129h-.454zm2.22.021-.624-.831h-.161v.81h-.526V16.1h.806c.559 0 .886.225.886.642a.588.588 0 0 1-.479.586l.646.843-.548.08zm-.558-1.803h-.23v.65h.22c.281 0 .436-.104.436-.325 0-.21-.146-.325-.425-.325h-.001zm1.313 1.782V16.1h1.441v.368h-.908v.468h.684l.07.375h-.754v.551h.943v.368h-1.476zm3.414.021-.22-.534h-.928l-.21.512h-.527l.942-2.136h.555l.92 2.078-.532.08zm-.684-1.66-.318.77h.636l-.318-.77zm2.138-.109v1.748h-.539v-1.748h-.753V16.1h2.018l.069.38H29.1zm.984 1.748V16.1h1.44v.368h-.907v.468h.684l.07.375h-.754v.551h.943v.368h-1.476zm-10.577 2.547-.034-.181a.88.88 0 0 1-.531.2c-.33 0-.547-.149-.547-.486v-.993h.116v.987c0 .27.16.4.438.4a.83.83 0 0 0 .52-.215v-1.172h.116v1.46h-.078zm-3.782.01V19.32h.823v.092h-.71v.56h.571l.014.092h-.584v.631h.733v.092h-.847zm1.551 0h-.413V19.32h.42c.52 0 .84.291.84.731-.001.46-.35.736-.847.736zm.004-1.375h-.304v1.283h.312c.429 0 .716-.219.716-.642.001-.417-.292-.642-.724-.642zm3.269 1.402a.709.709 0 0 1-.73-.759.726.726 0 0 1 .748-.763c.16 0 .317.044.453.128l-.021.106a.788.788 0 0 0-.435-.142.671.671 0 0 0-.006 1.338.82.82 0 0 0 .471-.157l.017.098a.883.883 0 0 1-.497.15zm10.466 0a.709.709 0 0 1-.73-.759.726.726 0 0 1 .748-.763c.16 0 .317.044.453.128l-.021.106a.788.788 0 0 0-.434-.142.671.671 0 0 0-.007 1.338.82.82 0 0 0 .472-.157l.016.098a.883.883 0 0 1-.497.15zm-9.172-1.504h.122l.647 1.467-.114.023-.224-.516h-.743l-.217.501h-.117l.646-1.474zm-.274.883h.665l-.332-.768-.333.768zm1.52-.782v1.376h-.114v-1.375h-.528v-.092h1.164l.014.092h-.536zm.793 1.376V19.32h.113v1.467h-.113zm4.399 0V19.32h.113v1.467h-.113zm-3.261.027a.762.762 0 1 1 .727-.763.715.715 0 0 1-.726.763zm0-1.43c-.358 0-.603.276-.603.667 0 .395.248.672.608.672.361 0 .604-.277.604-.668 0-.395-.248-.671-.608-.671zm2.067 1.403-.997-1.312v1.312h-.109V19.32h.116l.972 1.276V19.32h.109v1.467h-.09zm2.87 0-.998-1.312v1.312h-.108V19.32h.116l.972 1.276V19.32h.108v1.467h-.09zm1.856-1.087a.18.18 0 0 1-.175-.117.179.179 0 0 1-.01-.074.186.186 0 0 1 .225-.177.186.186 0 0 1-.04.368zm.001-.36a.17.17 0 1 0 .16.17.157.157 0 0 0-.096-.158.157.157 0 0 0-.064-.012zm.054.271-.063-.09h-.02v.087h-.035v-.21h.063c.044 0 .074.022.074.061a.057.057 0 0 1-.043.058l.062.087-.038.007zm-.056-.181h-.028v.062h.027c.024 0 .038-.01.038-.031 0-.021-.013-.031-.037-.031z" fill="#261C02"/></svg>