<svg width="36" height="36" fill="none" xmlns="http://www.w3.org/2000/svg"><path d="M18 0c2.837 0 5.52.656 7.907 1.825C31.884 4.753 36 10.895 36 18c0 9.942-8.058 18-18 18-9.94 0-18-8.057-18-18C0 8.06 8.06 0 18 0z" fill="#F2F4F7"/><path d="M30.32 18.358c.245.01.638.026.79.545a1.742 1.742 0 0 1 .026.83c-.126.534-.482.56-.822.566h-.32v-1.941h.325zm-1.105-.777v3.49h.832c.54 0 .859 0 1.141-.122.534-.222.681-.73.739-.957.05-.21.075-.424.073-.64 0-.624-.194-1.068-.424-1.322-.403-.434-.948-.439-1.718-.45h-.643zm-1.404 0v2.083l-1.13-2.084h-.76v3.491h.744v-2.089l1.12 2.09h.775V17.58h-.749zm-3.733 1.147.372 1.232h-.748l.376-1.232zm-.387-1.148-1.12 3.491h.785l.141-.465h1.157l.147.465h.843l-1.178-3.49h-.775zm-2.471 2.042c.105 0 .235.005.34.085a.33.33 0 0 1 .126.28.392.392 0 0 1-.1.27c-.094.095-.235.1-.345.1h-.68v-.735h.659zm-.037-1.312c.142 0 .414.006.414.323 0 .286-.262.29-.398.296h-.65v-.619h.634zm-1.413-.73v3.491h1.617c.31-.005.801-.01 1.01-.529.051-.133.076-.275.074-.418 0-.195-.042-.565-.356-.788a.523.523 0 0 0-.314-.11.578.578 0 0 0 .455-.27.86.86 0 0 0 .126-.455c0-.265-.084-.497-.23-.65-.252-.265-.618-.27-1.021-.27H19.77zm-2.116.778c.246.01.64.026.791.545a1.772 1.772 0 0 1 .026.83c-.125.534-.482.56-.822.566h-.324v-1.941h.33zm-1.11-.777v3.49h.833c.54 0 .858 0 1.141-.122.534-.222.68-.73.738-.957.051-.21.076-.424.074-.64 0-.624-.194-1.068-.424-1.322-.403-.434-.948-.439-1.718-.45h-.643zm-1.827 1.147.372 1.232h-.749l.377-1.232zm-.387-1.148-1.12 3.491h.785l.141-.465h1.157l.147.465h.843l-1.178-3.49h-.775zm-2.697.704c.498-.01.713.465.713 1.047 0 .291-.048.593-.226.804a.61.61 0 0 1-.486.233c-.487 0-.718-.466-.718-1.074 0-.571.241-1 .717-1.01zm0-.762a1.41 1.41 0 0 0-1.01.397c-.487.465-.54 1.074-.54 1.396 0 .476.137.942.43 1.296a1.497 1.497 0 0 0 1.043.516 1.48 1.48 0 0 0 1.093-.394c.487-.471.54-1.085.54-1.397-.006-.978-.576-1.814-1.556-1.814zm-3.392.788c.199 0 .43.006.55.096.052.037.151.137.151.343 0 .138-.047.307-.209.386-.11.059-.24.059-.534.059l-.267-.006v-.878h.309zm-1.1-.73v3.491h.79v-1.174h.404l.565 1.174h.864l-.633-1.322c.424-.153.628-.566.628-1.01 0-.381-.141-.677-.324-.862-.315-.302-.733-.302-1.074-.302l-1.22.006zm-1.675 2.042c.105 0 .236.005.34.085a.331.331 0 0 1 .126.28.393.393 0 0 1-.1.27c-.094.095-.235.1-.345.1h-.68v-.735h.659zm-.037-1.312c.142 0 .414.006.414.323 0 .286-.262.29-.398.296h-.644v-.619h.628zm-1.413-.73v3.491h1.617c.31-.005.802-.01 1.011-.529.05-.133.075-.275.073-.418 0-.195-.042-.565-.356-.788a.523.523 0 0 0-.314-.11.579.579 0 0 0 .456-.27.862.862 0 0 0 .125-.455c0-.265-.084-.497-.23-.65-.251-.265-.618-.27-1.021-.27H4.016z" fill="#004B8D"/><path d="M16.199 14.767h-.634l-.403 1.264-.398-1.264h-.633l.644 1.846c.02.041.031.086.037.132 0 .1-.116.106-.2.111h-.057l-.162.481h.418c.158-.005.367-.005.514-.216a.967.967 0 0 0 .151-.286l.723-2.068zm-2.45.428h.298v-.36h-.304v-.698h-.628v.699h-.246v.36h.246v1.036c.005.333.005.582.576.582.118-.002.235-.013.35-.032v-.47a.546.546 0 0 1-.11.015c-.167 0-.182-.116-.188-.211v-.92h.006zm-.943-.428a.564.564 0 0 0-.204-.037.571.571 0 0 0-.518.301v-.27h-.545v2.016h.587V15.46a.618.618 0 0 1 .445-.164c.08 0 .159.01.235.032v-.561zm-2.88.746c.016-.323.262-.355.357-.355.157 0 .356.085.361.355h-.717zm1.341.391a1.415 1.415 0 0 0-.084-.592.991.991 0 0 0-.916-.592c-.503 0-.974.375-.974 1.036 0 .555.361 1.074 1.037 1.074a1.032 1.032 0 0 0 .869-.44c.02-.036.047-.073.068-.11l-.466-.302a.528.528 0 0 1-.487.328.364.364 0 0 1-.335-.175.503.503 0 0 1-.063-.232l1.351.005zm-2.801-.122c0 .149-.005.566-.346.566-.34 0-.34-.45-.34-.566 0-.238.037-.56.35-.56.325.005.336.412.336.56zm-1.298-1.777v2.777h.575c.006-.032.021-.164.027-.19.094.105.21.238.507.238a.806.806 0 0 0 .535-.196c.23-.206.287-.534.287-.852 0-.254-.036-.603-.246-.835a.72.72 0 0 0-.528-.228.59.59 0 0 0-.524.28v-.994h-.633zm-1.032 2.772h.628v-2.01h-.628v2.01zm0-2.222h.628v-.513h-.628v.513zm-1.408 1.603V14h-.702v2.782h1.822v-.624h-1.12zm11.309-.005-.22.624h15.638l.12-.122c0-.232-.784-.502-.973-.502H16.037zM4 22.357v-.625h27.57v.122c0 .233-.785.503-.973.503H4z" fill="#919195"/></svg>