<svg width="36" height="36" fill="none" xmlns="http://www.w3.org/2000/svg"><path d="M18 0c2.837 0 5.52.656 7.907 1.825C31.884 4.753 36 10.895 36 18c0 9.942-8.058 18-18 18-9.94 0-18-8.057-18-18C0 8.06 8.06 0 18 0z" fill="#F2F4F7"/><mask id="a" style="mask-type:alpha" maskUnits="userSpaceOnUse" x="4" y="4" width="28" height="28"><path d="M4 4h28v27.77H4V4z" fill="#fff"/></mask><g mask="url(#a)"><path fill-rule="evenodd" clip-rule="evenodd" d="M18 31.77c7.732 0 14-6.216 14-13.885C32 10.217 25.732 4 18 4S4 10.217 4 17.885c0 7.67 6.268 13.886 14 13.886z" fill="#EE742B"/></g><path fill-rule="evenodd" clip-rule="evenodd" d="M10.832 20.549h.505v2.126h1.052v.438h-1.557v-2.564z" fill="#fff"/><mask id="b" style="mask-type:alpha" maskUnits="userSpaceOnUse" x="4" y="4" width="28" height="28"><path d="M4 31.77h28V4H4v27.77z" fill="#fff"/></mask><g mask="url(#b)" fill-rule="evenodd" clip-rule="evenodd" fill="#fff"><path d="M12.811 23.113h.506V20.55h-.506v2.564zm1.133-2.536c.244-.036.578-.068.81-.068.587 0 .984.2.984.697 0 .303-.148.47-.365.55v.015c.293.092.425.283.425.613 0 .562-.39.769-1.04.769-.224 0-.565-.024-.814-.06v-2.516zm.89 1.027c.254 0 .39-.083.39-.326 0-.279-.184-.33-.474-.33-.08 0-.184.003-.3.015v.641h.385zm-.067 1.115c.317 0 .518-.056.518-.359 0-.262-.153-.358-.43-.358h-.405v.701c.124.012.232.016.317.016zm1.555-2.17h1.573v.438h-1.068v.597h.907v.43h-.907v.66h1.068v.439h-1.573v-2.564zm2.104.036c.201-.032.558-.072.823-.072.578 0 1 .191 1 .797 0 .414-.197.637-.478.74.152.315.377.705.586 1.055l-.004.008h-.594a17.89 17.89 0 0 1-.51-.983c-.12 0-.229-.008-.317-.02v1.003h-.506v-2.528zm.807 1.154c.321 0 .502-.083.502-.398 0-.31-.18-.394-.494-.394-.096 0-.22.008-.309.016v.76c.096.013.233.016.301.016zm2.096-.752h-.723v-.438h1.951v.438h-.722v2.126h-.506v-2.126zm2.447 1.166a14.12 14.12 0 0 1-.892-1.604h.55c.181.394.382.772.595 1.135h.016c.212-.363.413-.741.594-1.135h.53c-.265.57-.562 1.09-.887 1.604v.96h-.506v-.96zM12.61 24.886c0-.615.24-.994.934-.994.178 0 .36.024.523.058l-.05.324a3.167 3.167 0 0 0-.473-.049c-.458 0-.543.264-.543.658 0 .379.085.685.476.685.076 0 .193-.012.275-.037v-.678h.385v.906c-.183.087-.43.145-.666.145-.623 0-.861-.409-.861-1.018zm1.992-.963h.385v1.618h.8v.333h-1.185v-1.951zm2.291-.031c.63 0 .859.36.859 1.006s-.23 1.006-.859 1.006c-.63 0-.858-.36-.858-1.006 0-.645.229-1.006.858-1.006zm0 1.679c.379 0 .468-.237.468-.673 0-.436-.089-.673-.468-.673s-.467.237-.467.673c0 .436.088.673.467.673zm1.283-1.627c.187-.028.44-.052.617-.052.446 0 .749.152.749.53 0 .23-.113.358-.278.419v.012c.223.07.324.215.324.466 0 .428-.297.585-.792.585-.17 0-.43-.018-.62-.045v-1.915zm.678.781c.193 0 .297-.063.297-.248 0-.212-.14-.252-.36-.252-.062 0-.141.003-.23.012v.488h.293zm-.052.849c.242 0 .395-.043.395-.273 0-.2-.117-.273-.327-.273h-.309v.534c.095.009.177.012.241.012zm1.624-1.652h.507c.214.582.431 1.297.602 1.952h-.394l-.107-.418h-.715l-.107.418h-.387c.17-.655.387-1.37.601-1.952zm.517 1.206c-.083-.3-.175-.596-.26-.857h-.012c-.086.26-.177.557-.263.857h.535zm.933-1.205h.385v1.618h.8v.333h-1.185v-1.951zm-7.077-8.846c-.225-1.1-.057-2.634.673-2.9-.033-.378-.03-.829-.02-1.202.01-.401.037-.699-.099-.68-.162.022-.696 1.095-.812 2.47-.042.497-.005.994.066 1.446.049.292.113.58.192.866zm6.357 0c.079-.285.143-.574.191-.866a6.1 6.1 0 0 0 .067-1.446c-.116-1.375-.65-2.448-.813-2.47-.134-.019-.108.279-.098.68.01.373.013.824-.02 1.201.73.267.898 1.801.673 2.901zm-4.637-2.151c.425 1.012.68 2.109.745 2.356.073-.102.362-.364.713-.364.352 0 .634.262.708.364.065-.247.32-1.344.745-2.356a14.57 14.57 0 0 0-.166-.955c-.083-.38-.47-2.105-1.287-2.105-.816 0-1.21 1.725-1.291 2.105a14.25 14.25 0 0 0-.167.955zm-.187-.326c.139-.826.277-1.317.45-1.773-.326.056-.7.812-.817 1.391.184.12.358.368.367.382zm3.654-.382c-.117-.58-.49-1.335-.816-1.39.172.455.31.946.45 1.772.009-.014.182-.262.366-.382z"/><path d="M20.965 16.942s-.032.02-.033.006c0-.007.04-.039.04-.039.889-.698 1.25-2.025 1.095-2.143-.082-.027-.229.294-.44.684a3.602 3.602 0 0 1-.316.492s-.015.019-.022.016c-.007-.002.004-.022.004-.022.639-1.308.711-2.23.733-2.654.05-.954-.124-1-.193-.69-.081.36-.176.824-.247 1.281-.194 1.26-.74 2.516-1.17 3.2-.065.1-.12.093-.133.074-.011-.016-.003-.039.036-.112 1.24-2.273.714-4.563-.02-4.588-.704-.026-1.377 2.726-1.456 3.028.475.804.588 1.918.554 2.2a.048.048 0 0 1-.047.042.05.05 0 0 1-.05-.046v-.001c0-.513-.393-2.466-1.316-2.466-.924 0-1.316 1.953-1.316 2.466a.049.049 0 0 1-.05.047.048.048 0 0 1-.047-.042c-.034-.282.079-1.396.554-2.2-.08-.302-.752-3.054-1.456-3.028-.733.025-1.26 2.315-.02 4.588.04.073.047.096.035.112-.013.02-.067.027-.131-.073-.432-.685-.976-1.94-1.17-3.2a20.14 20.14 0 0 0-.248-1.282c-.07-.31-.242-.264-.193.69.022.424.094 1.346.732 2.654 0 0 .01.02.005.022-.008.003-.022-.016-.022-.016s-.156-.194-.317-.492c-.21-.39-.356-.711-.439-.684-.155.118.206 1.445 1.095 2.143 0 0 .04.032.04.04 0 .013-.034-.007-.034-.007-.345-.212-.81-.686-.886-.517-.056.196.662 1.03 1.815 1.448 0 0 .08.026.08.042 0 .015-.05 0-.05 0-.165-.05-.704-.256-.842-.236-.15.02-.064.125.078.249.14.122.788.506 1.68.57.007.08.318.358 1.105.358.789 0 1.101-.279 1.108-.359.893-.063 1.54-.447 1.68-.57.143-.123.23-.228.08-.248-.14-.02-.678.186-.843.236 0 0-.05.015-.05 0 0-.016.08-.042.08-.042 1.153-.418 1.87-1.252 1.815-1.448-.076-.169-.541.305-.887.517z"/></g></svg>