<svg height="36" viewBox="0 0 36 36" width="36" xmlns="http://www.w3.org/2000/svg"><mask id="a" fill="#fff"><path d="M0 0h28v4.945H0z" fill-rule="evenodd"/></mask><g fill="none" fill-rule="evenodd"><path d="M18 0c2.837 0 5.52.656 7.907 1.825C31.884 4.753 36 10.895 36 18c0 9.942-8.058 18-18 18-9.94 0-18-8.057-18-18C0 8.06 8.06 0 18 0z" fill="#f2f4f7" fill-rule="nonzero"/><path d="m.892 2.32-.248-.058C.587 2.254.314 2.188.2 2.089.191 2.08.183 2.072.183 2.064.158 2.039.125 2.031.1 2.039c-.033.009-.049.033-.058.066a2.299 2.299 0 0 0-.04.388c0 .017.015.034.032.05l.025.008.017-.008c.123-.016.445-.116.585-.157zm1.336 2.253-.033-.041h-.009c-.865-.858-.973-1.824-.973-1.824s-.197 1.404.536 2.22c0 0 .017.017.025.017H1.8l.552-.083.017-.008c.016-.008.024-.025.033-.033a.075.075 0 0 0-.017-.09c-.033-.034-.09-.083-.156-.158zm-1.97-1.37C.24 3.22.24 3.244.24 3.261c.007.058.05.322.115.478.025.058.082.05.082.05.05 0 .066-.074.083-.124.123-.437.42-.999.42-.999s-.478.256-.684.537zm.7-1.164S.71 1.585.678.99V.933C.678.9.653.867.62.85a.09.09 0 0 0-.09.033c-.1.157-.199.43-.207.446a.073.073 0 0 0 0 .058c.124.289.635.652.635.652zm.247-.033a2.11 2.11 0 0 1 .074-.355C1.535.9 2.096.339 2.327.132c.024-.017.033-.05.024-.083A.089.089 0 0 0 2.27 0l-.486.042a.141.141 0 0 0-.05.016c-.008 0-.016.008-.016.008l-.083.108c-.025.033-.05.066-.066.099-.008 0-.008.007-.008.007l-.042.066c-.123.224-.379.842-.313 1.66zm.388 0c.775-.71 2.102-.966 2.235-.991.024-.008.05-.025.057-.041A.082.082 0 0 0 3.877.9a5.443 5.443 0 0 0-.305-.421C3.555.454 3.522.445 3.49.454l-.008.008h-.008L3.4.487c-.965.371-1.55 1.147-1.806 1.519zm2.49.091c-.024 0-.149-.017-.247-.017-.619 0-2.243.298-2.243.298l2.473.347h.01c.007 0 .007 0 .015-.009.025-.017.025-.041.025-.05.008-.074.033-.33.041-.47 0-.049-.033-.091-.074-.099zm-.396 1.601C2.17 3.294 1.51 2.666 1.51 2.666s.652 1.099 1.666 1.528l.058.025.016.008c.025.008.041.016.058.024h.025c.024 0 .05-.008.058-.024l.337-.405a.08.08 0 0 0 .01-.074.076.076 0 0 0-.05-.05zm15.1.05h-.447l.288-1.123H16.98l-.287 1.123h-.438l.495-1.924c.107-.421.372-.636.791-.636h1.253c.207 0 .355.059.438.167.082.106.1.271.05.486zm-1.692-1.569h1.65l.098-.363c.008-.041.017-.099-.008-.132-.025-.041-.09-.041-.132-.041h-1.262c-.139 0-.222.058-.255.198zm9.755 1.569h-1.253c-.206 0-.347-.05-.429-.157-.083-.107-.099-.272-.04-.479l.33-1.288c.105-.404.378-.618.782-.618h1.261c.2 0 .347.05.422.156.082.107.098.264.05.479l-.339 1.288c-.107.404-.38.619-.784.619zm-.7-2.122c-.149 0-.24.075-.273.207l-.338 1.296c-.016.066-.016.115.008.149.026.033.075.049.141.049h1.261c.14 0 .232-.074.272-.215l.34-1.288c.016-.066.007-.115-.018-.148s-.066-.05-.14-.05zm-2.392 2.122h-1.78l.658-2.542h1.774c.255 0 .42.057.511.165.091.123.098.313.025.602l-.273 1.04c-.132.52-.396.735-.915.735zm-1.254-.421h1.352c.257 0 .34-.074.405-.331l.273-1.039c.04-.141.04-.223.007-.273-.033-.041-.107-.058-.23-.058h-1.36zm-.98.421h-.438l-.157-1.106h-.956l-.288 1.106h-.42l.658-2.542h1.641c.207 0 .347.05.43.156.082.107.098.264.041.479l-.049.173c-.092.355-.297.561-.619.611zM20.08 2.213h1.221c.148 0 .238-.066.271-.207l.051-.182c.016-.066.016-.115-.009-.148-.024-.033-.075-.05-.14-.05H20.23zm-4.313 1.535h-.214l-1.5-1.907-.495 1.907h-.372l.661-2.542h.346l.016.016 1.377 1.8.47-1.816h.372zm-3.686 0h-1.26c-.2 0-.348-.05-.43-.157s-.09-.272-.04-.479l.337-1.288c.107-.404.371-.618.776-.618h1.261c.206 0 .346.05.428.156.083.107.092.264.042.479l-.339 1.288c-.099.404-.37.619-.775.619zm-.709-2.122c-.148 0-.238.075-.27.207l-.34 1.296c-.016.066-.016.115.01.149.023.033.073.049.147.049h1.254c.148 0 .238-.074.271-.215l.34-1.288c.015-.066.015-.115-.01-.148-.024-.033-.074-.05-.149-.05zM9.74 3.748H7.727l.661-2.542h2.02l-.116.42h-1.6l-.148.57h1.526l-.115.421H8.437l-.18.71h1.598zm-2.416 0H5.362l.66-2.542h.42L5.89 3.327h1.541z" fill="#ec0928" mask="url(#a)" transform="translate(4 16)"/></g></svg>