<svg width="36" height="36" fill="none" xmlns="http://www.w3.org/2000/svg"><path d="M18 0c2.837 0 5.52.656 7.907 1.825C31.884 4.753 36 10.895 36 18c0 9.942-8.058 18-18 18-9.94 0-18-8.057-18-18C0 8.06 8.06 0 18 0z" fill="#F2F4F7"/><path fill-rule="evenodd" clip-rule="evenodd" d="M16.442 19.757h1.81a.105.105 0 0 1 .08.043.103.103 0 0 1 .015.09l-.076.438a.164.164 0 0 1-.134.114h-2.951a.107.107 0 0 1-.095-.114l.704-3.751a.139.139 0 0 1 .133-.115h1.01a.117.117 0 0 1 .087.04.117.117 0 0 1 .027.094l-.61 3.16zm4.132-1.047-.21 1.047h1.905a.105.105 0 0 1 .098.086.105.105 0 0 1-.003.047l-.076.438c-.019.057-.076.133-.133.114h-3.047a.096.096 0 0 1-.095-.114l.685-3.751a.163.163 0 0 1 .154-.134h3.008a.084.084 0 0 1 .076.114l-.076.42a.14.14 0 0 1-.133.133H20.84l-.171.953h1.618a.096.096 0 0 1 .096.114l-.077.419a.127.127 0 0 1-.133.114h-1.6zm5.294.742H24.42l-.533.895a.194.194 0 0 1-.19.095h-.647c-.076.02-.095-.057-.076-.114l2.285-3.751c.057-.096.095-.114.229-.114h.683a.126.126 0 0 1 .133.114l.99 3.751c0 .038-.019.114-.095.114h-.97a.127.127 0 0 1-.134-.114l-.228-.876zm-.133-.514-.305-1.257-.743 1.257h1.047zm2.932-2.304c.019-.114.076-.133.153-.153.21-.02.876-.038 1.314-.038.476 0 2.056 0 1.847 1.238-.133.818-.705.933-1.123 1.028l.895 1.638c.019.038.019.095-.076.095h-.99a.235.235 0 0 1-.19-.095L29.81 18.9c-.039-.038-.058-.057-.096-.057h-.228l-.267 1.485a.142.142 0 0 1-.133.114h-1.01c-.076 0-.114-.038-.095-.114l.686-3.694h-.001zm.914 1.771c.267.02 1.104.038 1.238-.686.133-.685-.477-.742-.8-.742a.877.877 0 0 0-.19.019l-.248 1.409z" fill="#000"/><path fill-rule="evenodd" clip-rule="evenodd" d="M9.303 14c-2.438 0-4.799 1.966-5.237 4.424-.419 2.42 1.2 4.424 3.656 4.424a5.217 5.217 0 0 0 3.409-1.342H6.999c-.077.019-.154-.057-.134-.17l1.123-6.05a.218.218 0 0 1 .229-.17h1.657a.158.158 0 0 1 .17.207l-.97 5.124h3.047a4.903 4.903 0 0 0 .837-2.004C13.416 15.966 11.778 14 9.303 14z" fill="#D82A28"/></svg>