<svg width="36" height="36" fill="none" xmlns="http://www.w3.org/2000/svg"><path d="M18 0c2.837 0 5.52.656 7.907 1.825C31.884 4.753 36 10.895 36 18c0 9.942-8.058 18-18 18-9.94 0-18-8.057-18-18C0 8.06 8.06 0 18 0z" fill="#F2F4F7"/><mask id="a" style="mask-type:alpha" maskUnits="userSpaceOnUse" x="4" y="14" width="8" height="8"><path d="M4 14h7.364v7.435H4V14z" fill="#fff"/></mask><g mask="url(#a)"><path fill-rule="evenodd" clip-rule="evenodd" d="M10.06 14.875c1.535 1.238 1.743 3.508.473 5.13-1.264 1.655-3.573 1.925-5.167.539-1.599-1.424-1.83-3.848-.506-5.35 1.329-1.472 3.66-1.588 5.2-.32z" fill="#4CD5F7"/></g><path fill-rule="evenodd" clip-rule="evenodd" d="M12.92 19.251h.78V15.09h-.78v4.161zm2.644-.65a.704.704 0 0 0 .616-.313v-.93a.714.714 0 0 0-.616-.307c-.422 0-.713.353-.713.775 0 .422.291.775.713.775zm-.114.713c-.844 0-1.408-.69-1.408-1.488s.564-1.488 1.408-1.488c.308 0 .564.109.73.268v-.205h.78v2.85h-.78v-.21c-.166.165-.422.273-.73.273zm3.381-.713c.428 0 .718-.353.718-.775 0-.422-.29-.775-.718-.775a.713.713 0 0 0-.616.308v.929a.704.704 0 0 0 .616.313zm.114.713c-.302 0-.564-.109-.73-.274v.211h-.78V15.09h.78v1.516c.166-.16.428-.268.73-.268.844 0 1.408.69 1.408 1.488s-.564 1.488-1.408 1.488zm3.175 0c-.845 0-1.512-.627-1.512-1.488 0-.86.668-1.488 1.511-1.488.593 0 1.106.331 1.351.821l-.678.365a.73.73 0 0 0-.673-.456c-.41 0-.724.32-.724.758 0 .439.314.758.724.758a.73.73 0 0 0 .673-.456l.678.365a1.5 1.5 0 0 1-1.35.82zm3.008-.73c.41 0 .707-.319.707-.758s-.296-.758-.707-.758c-.41 0-.712.32-.712.758 0 .439.302.758.712.758zm0 .73a1.488 1.488 0 1 1 0-2.976 1.488 1.488 0 1 1 0 2.976zm5.35-.713c.427 0 .718-.353.718-.775 0-.422-.29-.775-.718-.775a.713.713 0 0 0-.616.308v.929a.704.704 0 0 0 .616.313zm-1.397-2.2h.781v.205c.166-.16.428-.268.73-.268.844 0 1.408.69 1.408 1.488s-.564 1.488-1.408 1.488c-.302 0-.564-.108-.73-.274v1.317h-.78v-3.956zm-.671-.034c-.297 0-.565.17-.662.376V16.4h-.781v2.85h.781v-1.764c.37-.538.992-.32.992-.32v-.749a1.05 1.05 0 0 0-.33-.051z" fill="#231F20"/><path fill-rule="evenodd" clip-rule="evenodd" d="M10.005 15.236c1.13.912 1.284 2.584.349 3.778-.932 1.219-2.632 1.452-3.806.43-1.177-1.048-1.347-2.867-.372-3.974.978-1.083 2.695-1.169 3.829-.234z" fill="#2998E3"/><path fill-rule="evenodd" clip-rule="evenodd" d="M9.907 15.58c.857.693.973 1.963.264 2.87-.706.927-1.995 1.079-2.885.303-.893-.797-1.022-2.154-.283-2.995.742-.823 2.044-.888 2.904-.178z" fill="#3A5CE9"/></svg>