<svg height="36" viewBox="0 0 36 36" width="36" xmlns="http://www.w3.org/2000/svg"><mask id="a" fill="#fff"><path d="M0 0h5.954v6.298H0z" fill-rule="evenodd"/></mask><mask id="b" fill="#fff"><path d="M0 0h6.39v6.259H0z" fill-rule="evenodd"/></mask><g fill="none" fill-rule="evenodd"><path d="M18 0c2.837 0 5.52.656 7.907 1.825C31.884 4.753 36 10.895 36 18c0 9.942-8.058 18-18 18-9.94 0-18-8.057-18-18C0 8.06 8.06 0 18 0z" fill="#f2f4f7" fill-rule="nonzero"/><g fill="#20242b"><path d="M9.465 21.267H4v-.085c.143-.024.284-.06.42-.112a.777.777 0 0 0 .329-.21.412.412 0 0 0 .072-.15 1.3 1.3 0 0 0 .047-.223 4.909 4.909 0 0 0 .044-.546v-.326c0-.136 0-.286.009-.447.008-.161 0-.328 0-.498v-2.45c0-.095 0-.19-.013-.286a1.68 1.68 0 0 0-.039-.234.392.392 0 0 0-.077-.162.742.742 0 0 0-.319-.222 1.74 1.74 0 0 0-.413-.105v-.084h2.719v.084a4.68 4.68 0 0 0-.264.05 1.11 1.11 0 0 0-.29.113.731.731 0 0 0-.235.218.682.682 0 0 0-.105.37c-.005.199-.01.38-.012.547s-.007.327-.009.486c-.002.158 0 .323 0 .494v2.535c0 .19.012.355.021.518a.75.75 0 0 0 .09.368.33.33 0 0 0 .135.085c.08.032.163.056.248.072.097.02.201.037.315.052.114.014.228.022.342.022h.218a6.328 6.328 0 0 0 .694-.055c.113-.014.225-.038.335-.068.201-.052.393-.135.567-.248a1.79 1.79 0 0 0 .387-.355c.108-.132.2-.278.273-.433.075-.157.144-.32.21-.492l.086.026zm.675 0v-.085a1.69 1.69 0 0 0 .396-.112.828.828 0 0 0 .315-.223.342.342 0 0 0 .065-.144 2.17 2.17 0 0 0 .035-.223c.007-.084.012-.175.016-.27.005-.094 0-.184 0-.276v-.323c0-.137 0-.286.007-.447.008-.161 0-.328 0-.5v-2.461a1.942 1.942 0 0 0-.012-.285 1.588 1.588 0 0 0-.04-.24.398.398 0 0 0-.074-.165.7.7 0 0 0-.296-.211 1.771 1.771 0 0 0-.4-.091v-.084h2.562v.084c-.131.02-.26.05-.384.095a.543.543 0 0 0-.315.272.825.825 0 0 0-.081.369c-.008.147-.008.286-.008.42v3.699c0 .165 0 .323.008.476a.607.607 0 0 0 .077.326.633.633 0 0 0 .324.222c.129.047.263.079.4.095v.085zm8.67-4.663a8.418 8.418 0 0 0-.67-.743 2.45 2.45 0 0 0-.613-.441 2.057 2.057 0 0 0-.526-.112 7.418 7.418 0 0 0-.881-.046h-.197l-.21.009-.193.009h-.131l-.021.105a.94.94 0 0 0-.022.12c-.006.046-.012.105-.018.175s-.01.158-.017.259c0 .2-.01.42-.011.654-.002.233 0 .458 0 .669v.81h.152c.09 0 .192 0 .303-.008.11-.008.223-.013.346-.022.1-.008.202-.023.3-.046.172-.033.336-.094.487-.18a.894.894 0 0 0 .28-.263.99.99 0 0 0 .146-.335c.029-.122.055-.255.078-.396h.105v2.74h-.105a3.978 3.978 0 0 0-.197-.575 1.324 1.324 0 0 0-.307-.466 1.147 1.147 0 0 0-.345-.216 1.474 1.474 0 0 0-.431-.091l-.224-.011h-.585v1.842c.005.184.016.354.029.517.005.126.039.25.099.362a.476.476 0 0 0 .26.182c.173.052.352.079.533.08v.087h-2.726v-.086c.136-.021.27-.058.396-.111a.823.823 0 0 0 .304-.21.416.416 0 0 0 .073-.153c.017-.065.03-.141.046-.223.015-.09.025-.18.03-.27 0-.093.008-.185.008-.277v-.328c0-.136 0-.286.008-.445.009-.16 0-.33 0-.5v-2.476c0-.105-.008-.21-.016-.307a1.6 1.6 0 0 0-.047-.256.355.355 0 0 0-.081-.166.58.58 0 0 0-.272-.174 3.624 3.624 0 0 0-.372-.081v-.084h4.74l.58 1.435z"/><path d="M5.852 2.102a2.84 2.84 0 0 0-.335-.768 2.77 2.77 0 0 0-.52-.622 2.429 2.429 0 0 0-.683-.42 2.13 2.13 0 0 0-.8-.146A2.05 2.05 0 0 0 2.46.41a2.43 2.43 0 0 0-.77.698c-.213.3-.374.633-.478.985a3.865 3.865 0 0 0-.166 1.13c-.004.391.055.78.174 1.151.107.34.276.657.5.933.212.264.478.48.78.631.32.155.67.234 1.023.23.285 0 .567-.055.83-.165.251-.102.486-.244.693-.42.2-.177.371-.385.508-.615.134-.22.231-.46.286-.713h.105L5.92 6.131h-.105a2.63 2.63 0 0 0-.21-.263c-.07-.08-.122-.12-.154-.12a.728.728 0 0 0-.153.09 2.48 2.48 0 0 1-.39.192 3.832 3.832 0 0 1-1.463.267 4.295 4.295 0 0 1-1.43-.222 3.117 3.117 0 0 1-1.089-.64 2.796 2.796 0 0 1-.686-.989 3.246 3.246 0 0 1-.218-1.61A3.334 3.334 0 0 1 .503 1.46 2.98 2.98 0 0 1 .95.901c.185-.182.394-.339.622-.464.256-.139.528-.245.81-.315A3.968 3.968 0 0 1 3.39 0a3.885 3.885 0 0 1 1.532.298c.137.058.268.128.392.21a.776.776 0 0 0 .153.094.162.162 0 0 0 .067-.039c.031-.026.065-.058.105-.095.04-.036.075-.083.111-.127s.076-.097.111-.149h.094v1.911z" mask="url(#a)" transform="translate(18.985 15)"/><path d="M5.203 2.068a3.34 3.34 0 0 0-.405-.957 2.28 2.28 0 0 0-.67-.698 1.646 1.646 0 0 0-.947-.27 1.685 1.685 0 0 0-.959.27 2.19 2.19 0 0 0-.67.698 3.238 3.238 0 0 0-.376.97 4.915 4.915 0 0 0-.123 1.096 4.47 4.47 0 0 0 .136 1.116c.081.336.218.655.405.946.172.266.401.49.671.657.286.17.613.255.945.247a1.6 1.6 0 0 0 .934-.274c.267-.184.493-.424.661-.703.182-.298.317-.623.4-.964a4.34 4.34 0 0 0 0-2.125m.933 2.293a3.165 3.165 0 0 1-.696 1.004 3.067 3.067 0 0 1-1.023.657 3.453 3.453 0 0 1-2.468 0A3.006 3.006 0 0 1 .252 4.405 3.146 3.146 0 0 1 0 3.139 3.177 3.177 0 0 1 .265 1.82c.166-.375.408-.712.712-.988A3.127 3.127 0 0 1 2.028.21 3.661 3.661 0 0 1 3.29 0c.447-.008.89.079 1.3.255.37.16.701.394.977.687.267.288.475.625.614.994a3.3 3.3 0 0 1 .21 1.176 3.12 3.12 0 0 1-.252 1.257" mask="url(#b)" transform="translate(25.61 15.045)"/></g></g></svg>