<svg width="36" height="36" fill="none" xmlns="http://www.w3.org/2000/svg"><path d="M18 0c2.837 0 5.52.656 7.907 1.825C31.884 4.753 36 10.895 36 18c0 9.942-8.058 18-18 18-9.94 0-18-8.057-18-18C0 8.06 8.06 0 18 0z" fill="#F2F4F7"/><path d="M27.253 21.63c-4.454.979-10.328-.019-10.328-.019s13.555 1.264 13.196-3.784c-.364-5.122-19.549-2.963-19.549-2.963 11.759-1.887 17.152-.106 17.58-.027 2.236.595 3.686 1.69 3.82 2.893.356 2.206-2.693 3.455-4.719 3.9z" fill="#A20041"/><path d="M22.043 16.854c.056-.193.104-.37.021-.497-.06-.094-.15-.124-.32-.137-.155-.022-.428-.012-.428-.012-.235.007-.378.05-.496.145-.118.094-.179.194-.277.499l-.824 2.526c-.075.235-.085.4-.028.495.057.095.233.155.514.155.266-.001.515-.011.737-.179.127-.08.19-.236.273-.47l.828-2.525zm-2.514 3.705c-.452 0-.76-.103-.922-.31-.163-.206-.191-.519-.056-.94l.78-2.382c.162-.502.369-.838.622-1.008.253-.169.65-.254 1.189-.254h.552c.54 0 .776.057.98.288.174.198.181.472.02.974l-.777 2.38c-.135.421-.282.77-.577.977-.296.207-.738.275-1.19.275h-.621zM6.74 20.48S4 20.484 4 20.482l1.556-4.745h1.16S5.313 19.95 5.324 19.95h1.594l-.176.53zm4.525-4.206c-.002 0 .176-.535.176-.535H8.72L7.165 20.48H9.88l.178-.531h-1.57c-.005 0 .284-.875.6-1.826h1.365c-.002 0 .175-.535.175-.535H9.266c.163-.495.321-.97.436-1.315h1.563m7.156-.538-1.03 3.176-.433-3.175H15.82l-1.544 4.746h1.137l1.036-3.178s.423 3.13.431 3.176v.002h.66l1.542-4.747h-.662zm8.217 0h-.828l-.987 1.245-.245-1.245-1.216.002.448 2.155-1.973 2.59h.816l1.33-1.75.364 1.749h1.165l-.52-2.64 1.646-2.106zm-12.132.001-1.03 3.176-.433-3.175h-1.136l-1.545 4.745H11.5l1.036-3.177.43 3.175v.002h.66l1.543-4.746h-.662z" fill="#A20041"/></svg>