<svg height="36" viewBox="0 0 36 36" width="36" xmlns="http://www.w3.org/2000/svg"><mask id="a" fill="#fff"><path d="M0 0h28v9.462H0z" fill-rule="evenodd"/></mask><g fill="none" fill-rule="evenodd"><path d="M18 0c2.837 0 5.52.656 7.907 1.825C31.884 4.753 36 10.895 36 18c0 9.942-8.058 18-18 18-9.94 0-18-8.057-18-18C0 8.06 8.06 0 18 0z" fill="#f2f4f7" fill-rule="nonzero"/><path d="m12.14 9.27-.031-.017V7.197l.032-.016c.2-.103.458-.163.713-.163.694 0 1.1.472 1.1 1.206 0 .737-.406 1.21-1.1 1.21-.255 0-.512-.06-.713-.164zm.429-1.829v1.572a.812.812 0 0 0 .288.048c.395 0 .642-.276.642-.837 0-.558-.25-.835-.642-.835a.797.797 0 0 0-.288.052zM7.11 7.064h.456V9h.832v.393H7.11zm1.65 2.328h.457V7.064h-.456zm5.673-2.328h1.387v.363h-.934v.577h.804v.361h-.804v.661h.956v.366h-1.41zm7.46 1.157c0 .518.204.843.564.843.363 0 .564-.325.564-.843 0-.517-.201-.835-.564-.835-.36 0-.564.318-.564.835zm-.455.003c0-.685.35-1.23 1.019-1.23.67 0 1.019.545 1.019 1.23 0 .69-.35 1.238-1.02 1.238-.668 0-1.018-.549-1.018-1.238zm-1.466.02c.312 0 .615-.139.615-.459 0-.217-.133-.42-.452-.42a.953.953 0 0 0-.34.057v1.97h-.444V7.197l.03-.016c.187-.1.499-.163.754-.163.588 0 .9.296.9.756 0 .37-.293.591-.48.65l.569.968h-.537zm-3.04-.014c0-.713.417-1.212 1.146-1.212.254 0 .493.06.658.165l.044.027-.15.333-.056-.035a.93.93 0 0 0-.472-.122c-.461 0-.715.325-.715.838 0 .512.257.85.672.85a.911.911 0 0 0 .31-.05v-.61h-.43v-.347h.865v1.19l-.027.016c-.171.105-.426.165-.707.165-.721 0-1.138-.487-1.138-1.208zm7.02.39V7.064h.457v1.561c0 .26.168.417.43.417.263 0 .434-.157.434-.417v-1.56h.455V8.62c0 .496-.36.818-.89.818-.527 0-.885-.322-.885-.818zm2.792-1.19v.727c.068.008.158.012.236.012.396 0 .564-.165.564-.395 0-.252-.157-.396-.49-.396-.106 0-.231.025-.31.052zm0 1.078v.884h-.45V7.197l.03-.016c.195-.1.475-.163.73-.163.59 0 .945.284.945.756 0 .456-.38.751-1.003.751-.086 0-.178-.008-.252-.017zm-15.2.884V7.736c0-.336-.12-.723-.824-.718a2.163 2.163 0 0 0-.897.182v2.192h.453V7.473c.1-.043.255-.078.414-.075.364.008.399.197.399.417v1.577zM4.35 7.064h1.387v.363H4.8v.577h.804v.361H4.8v.661h.956v.366H4.35zM1.04 9.392H.589V7.458H0v-.394h1.626v.394H1.04zm2.24-1.008h-.853v1.008H1.97V7.064h.455v.96h.853v-.96h.456v2.328h-.456zm6.344-3.667c-.948 0-1.544-.28-1.544-.694 0-.587.94-.894 2.046-.894.458 0 .956.057 1.482.144.206-.209.409-.43.605-.648.39-.434.965-1.057 1.444-1.425.91-.697 2.073-1.2 3.3-1.2 1.527 0 2.749.514 2.749 1.284 0 .442-.434.823-1.21.853l-.023-.14c.162-.077.363-.212.363-.629 0-.548-.615-1.093-1.745-1.093-1.087 0-1.708.51-2.407 1.236-.366.38-.76.851-1.116 1.22a7.706 7.706 0 0 1-.854.75c1.225.247 2.52.535 3.718.535 1.233 0 1.794-.32 2.082-.586l.078.114c-.31.634-1.244 1.173-2.44 1.173-1.53 0-2.896-.43-4.094-.79-.837.5-1.705.79-2.434.79zm1.56-1.043c-.53-.14-1.023-.238-1.481-.238-.482 0-.864.206-.864.525 0 .301.284.48.79.48.52 0 1.05-.323 1.556-.767z" fill="#003867" mask="url(#a)" transform="translate(4 13)"/></g></svg>