<svg height="36" viewBox="0 0 36 36" width="36" xmlns="http://www.w3.org/2000/svg"><mask id="a" fill="#fff"><path d="M0 0h28v15.263H0z" fill-rule="evenodd"/></mask><g fill="none" fill-rule="evenodd"><path d="M18 0c2.837 0 5.52.656 7.907 1.825C31.884 4.753 36 10.895 36 18c0 9.942-8.058 18-18 18-9.94 0-18-8.057-18-18C0 8.06 8.06 0 18 0z" fill="#f2f4f7" fill-rule="nonzero"/><path d="M12.459 6.409a.686.686 0 0 1-.001 1.374.687.687 0 1 1 .001-1.374c-.001 0 0 0 0 0zM28 8.745c-1.082 1.076-4.448 4.032-5.339 6.518l-1.103-.284c.36-1.031 1.447-2.633 2.658-3.868a2.187 2.187 0 0 1-.741.133c-.328 0-.582-.098-.735-.285a.785.785 0 0 1-.165-.514c0-.045.003-.091.009-.142-1.063.648-1.917.94-2.755.94-.652 0-1.201-.285-1.455-.782-1.055.524-2.068.782-2.914.782-.787 0-1.422-.312-1.713-.88-1.066.599-1.975.88-2.697.88-.416 0-.746-.115-.957-.334a.95.95 0 0 1-.25-.626c-.684.451-1.683.96-2.707.96-1.048 0-1.75-.36-2.296-.716a5.799 5.799 0 0 1-2.839.716C1.234 11.243 0 10.925 0 9.828c-.001-.884.921-1.485 2.158-1.485 1.051 0 2.064.442 2.699.903.602-.48 1.235-1.152 1.982-2.101a8.786 8.786 0 0 1-.482.014c-1.429 0-2.623-.422-3.275-1.16a2.022 2.022 0 0 1-.519-1.37c0-1.988 2.513-3.531 4.709-3.759.145.33.274.583.409.885-2.17.252-3.979 1.537-3.979 2.793 0 .825.928 1.654 2.897 1.654.337 0 .676-.033 1.009-.079C9.347 3.725 12.01 0 14.301 0c.678 0 1.033.412 1.033.963 0 1.135-.976 2.356-1.612 2.992-.998 1.004-2.805 2.496-5.326 2.991-.982 1.366-1.788 2.271-2.595 2.925.489.263.948.426 1.494.426 1.358 0 2.675-1.242 3.703-2.297l.036-.034.802.627-.037.044c-.455.521-.874 1.073-.874 1.381 0 .234.199.28.369.28.519 0 1.322-.338 2.265-.917v-.008c.104-2.33 3.285-5.894 5.214-5.894.546 0 .858.271.858.747 0 1.168-2.014 3.673-4.947 5.59v.002c.151.325.501.483 1.093.483.463 0 1.368-.206 2.443-.768.125-1.207.809-2.504 1.677-3.429.87-.925 1.847-1.526 2.69-1.526.521 0 .828.286.828.736 0 1.019-1.183 2.761-4.033 4.585.126.244.37.399.751.399.849 0 2.345-.906 3.51-2.019l.836.649c-.357.434-.719.909-.707 1.184.004.089.063.149.204.149.859 0 2.21-1.134 3.224-2.134zM9.271 5.704c1.258-.403 2.452-1.246 3.342-2.127.823-.815 1.481-1.781 1.481-2.261 0-.11-.078-.175-.178-.175-.381 0-1.103.506-2.076 1.48-.756.757-1.638 1.793-2.569 3.083zM3.896 9.863c-.464-.323-1.179-.604-1.82-.604-.62 0-1.018.244-1.018.553 0 .352.482.507 1.022.507.653 0 1.247-.176 1.816-.456zm10.775-1.165c1.755-1.327 3.599-3.257 3.796-4.049.005-.025.011-.051.011-.074-.002-.053-.032-.099-.098-.099-.555-.001-3.127 2.371-3.709 4.222zm4.654.212c.162-.116.338-.251.501-.379 1.26-1.008 2.224-2.114 2.414-2.726a.48.48 0 0 0 .023-.121c0-.062-.031-.107-.088-.107-.579 0-2.435 1.848-2.884 3.345v.006z" fill="#ed1d24" mask="url(#a)" transform="translate(4 10)"/></g></svg>