<svg height="36" viewBox="0 0 36 36" width="36" xmlns="http://www.w3.org/2000/svg"><mask id="a" fill="#fff"><path d="M0 0h28v5.064H0z" fill-rule="evenodd"/></mask><g fill="none" fill-rule="evenodd"><path d="M18 0c2.837 0 5.52.656 7.907 1.825C31.884 4.753 36 10.895 36 18c0 9.942-8.058 18-18 18-9.94 0-18-8.057-18-18C0 8.06 8.06 0 18 0z" fill="#f2f4f7" fill-rule="nonzero"/><path d="M26.361.156v.479l-.022-.024c-.329-.353-.904-.565-1.41-.565-.691 0-1.318.239-1.767.672-.437.423-.678 1.068-.678 1.817 0 1.424 1.06 2.497 2.464 2.497.428 0 1.016-.103 1.39-.596l.023-.03v.483H28V.156zm-.993 3.55A1.17 1.17 0 0 1 24.2 2.539a1.17 1.17 0 0 1 1.168-1.168c.643 0 1.13.524 1.13 1.168 0 .643-.486 1.167-1.13 1.167zM14.092.058c-.517.008-1.071.254-1.395.743V.189h-1.669v4.7h1.669V2.565c-.003-.853.716-1.062 1.082-1.03.585.051.891.406.891 1.12l.001 2.234h1.668V2.172c0-1.316-.966-2.133-2.247-2.114zM7.486 0C5.974 0 4.639.921 4.639 2.537c0 1.615 1.345 2.527 2.847 2.527 1.503 0 2.847-.912 2.847-2.527C10.333.921 8.998 0 7.486 0zm0 3.706c-.653 0-1.166-.517-1.166-1.175s.513-1.175 1.166-1.175 1.166.517 1.166 1.175-.513 1.175-1.166 1.175zM22.22.215l.016-.021h-5.111v1.32h2.258l-.01.011-2.49 3.348-.016.02h5.197v-1.38h-2.276A1084.152 1084.152 0 0 1 22.22.215zM1.824 3.427h2.475v1.462H0V.106h1.824z" fill="#231f20" mask="url(#a)" transform="translate(4 15)"/></g></svg>