<svg height="36" viewBox="0 0 36 36" width="36" xmlns="http://www.w3.org/2000/svg"><g fill="none"><path d="M18 0c2.837 0 5.52.656 7.907 1.825C31.884 4.753 36 10.895 36 18c0 9.942-8.058 18-18 18-9.94 0-18-8.057-18-18C0 8.06 8.06 0 18 0z" fill="#f2f4f7"/><path d="M5.402 14.5v1.756h.312V14.5zm.488.417v1.334h1.406v3.49h1.279v-4.824zm-1.932.006v4.824h2.68v-1.334H5.234v-3.49zm2.856 3.485v1.76h.311v-1.76z" fill="#19171a"/><path d="M10.244 14.78v5.209h1.131V14.78zm19.94 0v1.729c-.244-.178-.64-.207-.64-.207-1.218-.031-1.737.999-1.734 1.805-.01 1.057.688 1.92 1.73 1.838.242-.026.442-.121.643-.28v.324h1.183V14.78zM13.41 16.04c-.927 0-1.837.762-1.837 1.963 0 1.35.846 2.134 1.963 2.1.853-.028 1.444-.567 1.658-1.323H14.03c-.059.12-.222.262-.563.262a.635.635 0 0 1-.667-.645h2.461c.14-1.403-.763-2.357-1.849-2.357zm8.272.075c-.595 0-1.083.456-1.083.456v-.389h-1.214v3.808H20.6v-1.943c.008-.95 1.083-1.018 1.083-1.018zm.278 0v.888s.105-.026.543-.012c.557.02.492.476.492.476s-.271-.166-.662-.17c-.427-.01-1.284.25-1.284 1.385-.003 1 .799 1.29 1.273 1.29.457 0 .722-.224.722-.224v.242h1.104v-2.595c0-.504-.093-.64-.322-.896-.322-.354-1.084-.384-1.084-.384zm-4.004.062v.399c-.782-.791-2.608-.22-2.543 1.565.056 1.67 1.823 2.172 2.543 1.525v.442c-.003.507-.623.49-.623.49-.54-.026-.656-.368-.656-.368h-1.363c.285 1.902 3.623 1.975 3.78.153v-4.206zm6.455 0v3.813h1.166v-2.25c0-.543.864-.58.864 0v2.25h1.149v-2.85c0-.576-.75-1.422-2.013-.603v-.36zm-11.001.863a.63.63 0 0 1 .629.558h-1.257a.63.63 0 0 1 .628-.558zm3.84.313a.736.736 0 1 1-.733.737c0-.408.327-.737.734-.737zm12.276.031a.737.737 0 0 1 0 1.472.737.737 0 0 1 0-1.472zm-6.959.711a.492.492 0 0 1 0 .981.489.489 0 0 1-.492-.487c0-.27.222-.494.492-.494z" fill="#e0001a"/><path d="M32.295 14.786c-.361 0-.662.3-.662.661a.662.662 0 1 0 .661-.661zm0 .093c.315 0 .57.258.57.568a.567.567 0 0 1-.57.564.565.565 0 1 1 0-1.132zm-.262.213v.695h.093v-.302h.224c.11 0 .127.069.127.127 0 .027 0 .133.016.175h.115v-.017c-.03-.018-.037-.03-.038-.07l-.006-.126c-.004-.097-.043-.116-.083-.131.045-.027.099-.062.099-.165 0-.147-.12-.186-.23-.186zm.093.077h.23c.049 0 .125.014.125.12 0 .103-.07.12-.141.12h-.214z" fill="#888689"/></g></svg>