<svg height="36" viewBox="0 0 36 36" width="36" xmlns="http://www.w3.org/2000/svg"><mask id="a" fill="#fff"><path d="M0 0h15.828v9.4H0z" fill-rule="evenodd"/></mask><g fill="none" fill-rule="evenodd"><path d="M18 0c2.837 0 5.52.656 7.907 1.825C31.884 4.753 36 10.895 36 18c0 9.942-8.058 18-18 18-9.94 0-18-8.057-18-18C0 8.06 8.06 0 18 0z" fill="#f2f4f7" fill-rule="nonzero"/><g fill="#000"><path d="M15.219 6.546h-3.945v-.289l.068-.01c.198-.01.41-.048.518-.307.09-.221.076-.644.076-.894V1.509c0-.634.054-1.144-.564-1.211l-.098-.01V0h2.163v.288l-.1.01c-.213.019-.441.039-.556.308-.098.23-.083.644-.083.903v3.739c0 .183 0 .509.076.663.099.221.404.269.579.269.997 0 1.744-.807 2.262-1.807l.213.125zM3.485 4.563 9.535 9.4l-6.05-3.938L8.275 9.4l-4.79-3.039L7.017 9.4 3.485 7.262 5.757 9.4H0L5.394.057 10.788 9.4z" mask="url(#a)" transform="translate(4 13)"/><path d="M28.718 21.197h-.076l-.01-.022c-.055-.124-.127-.289-.208-.39a.487.487 0 0 0-.397-.194c-.184 0-.328.097-.423.274-.094.176-.122.396-.122.603 0 .192.033.418.134.578.105.167.28.261.459.261.244 0 .47-.175.59-.418l.103.067c-.157.321-.416.491-.731.491-.495 0-.842-.418-.842-.993 0-.533.333-1.002.803-1.002.175 0 .345.06.476.2l.053-.128h.077zm.596-.263c0-.184.016-.332-.178-.348l-.035-.003V20.5h.674v.084h-.026c-.067.005-.136.013-.17.092-.03.067-.026.187-.026.262v.382h.858v-.382c0-.187.017-.335-.18-.35l-.035-.004V20.5h.669v.084h-.024c-.064.01-.134.016-.165.092-.031.067-.026.187-.026.26v1.03c0 .183-.016.332.179.348l.036.003v.084h-.67v-.084h.024c.065-.006.132-.016.166-.093.028-.066.026-.186.026-.258v-.529h-.858v.53c0 .185-.015.331.18.347l.042.003v.083H29.1v-.083h.024c.064-.009.13-.016.165-.093.029-.066.024-.186.024-.258zm-4.722 1.031c.059.172.095.34.284.351v.084h-.672v-.084c.079-.012.187-.03.187-.14 0-.047-.022-.11-.036-.153l-.108-.33h-.614l-.067.21a.926.926 0 0 0-.055.231c0 .14.096.168.21.182v.084h-.641v-.084l.027-.006c.114-.03.155-.063.215-.187.055-.114.115-.3.155-.427l.4-1.197h.222zm-.388-.397-.272-.829-.266.83zm2.44.538c.075.12.145.185.27.21v.084h-.398l-.533-.899h-.334v.461c0 .192-.015.338.186.354h.05v.084h-.706v-.084l.032-.003c.067-.006.138-.01.174-.089.029-.067.024-.187.024-.262v-1.028c0-.192.017-.335-.184-.348l-.046-.003V20.5h.952c.275 0 .572.097.572.488a.48.48 0 0 1-.441.49zm-.637-.722c.107 0 .215-.003.308-.079a.402.402 0 0 0 .136-.32c0-.316-.238-.38-.461-.38-.07 0-.22.008-.282.05-.057.04-.06.087-.06.156v.573zM22.794 21l-.077.036c-.193-.285-.392-.419-.707-.419-.067 0-.18.003-.235.053-.06.053-.062.134-.062.216v.43h.16c.24 0 .287-.068.316-.345h.08v.835h-.08a.579.579 0 0 0-.062-.243c-.063-.11-.154-.117-.26-.117h-.154v.556c0 .055.005.147.036.195.05.078.167.084.244.084.368 0 .585-.176.8-.514l.077.04-.217.594h-1.394v-.084l.023-.003c.065-.008.134-.01.168-.089.029-.064.024-.187.024-.259v-1.03c0-.185.016-.333-.18-.349l-.035-.003V20.5h1.37zm-2.05.005-.076.034c-.136-.252-.327-.446-.597-.446-.151 0-.35.091-.35.294 0 .224.216.28.362.322l.243.067c.26.072.534.161.534.544 0 .404-.335.628-.648.628a.74.74 0 0 1-.512-.189l-.045.142h-.09l-.155-.64.089-.033c.125.307.378.58.686.58.21 0 .438-.139.438-.413 0-.246-.184-.287-.352-.338l-.265-.075a1.176 1.176 0 0 1-.342-.15.454.454 0 0 1-.18-.36c0-.157.067-.299.175-.394a.58.58 0 0 1 .385-.126.68.68 0 0 1 .44.148l.029-.1h.086zm-3.925 1.102c.074.12.144.185.27.21v.084h-.4l-.532-.899h-.335v.461c0 .192-.014.338.187.354h.05v.084h-.706v-.084l.032-.003c.066-.006.138-.01.174-.089.029-.067.024-.187.024-.262v-1.028c0-.192.017-.335-.184-.348l-.046-.003V20.5h.952c.275 0 .57.097.57.488a.48.48 0 0 1-.438.49zm-.64-.722c.109 0 .217-.003.31-.079a.402.402 0 0 0 .137-.32c0-.316-.24-.38-.462-.38-.07 0-.22.008-.282.05-.058.04-.06.087-.06.156v.573zM18.922 21l-.077.036c-.194-.285-.392-.419-.708-.419-.067 0-.18.003-.234.053-.06.053-.062.134-.062.216v.43H18c.24 0 .287-.068.316-.345h.08v.835h-.08a.564.564 0 0 0-.062-.243c-.062-.11-.154-.117-.26-.117h-.154v.556c0 .055.004.147.036.195.05.078.167.084.243.084.369 0 .586-.176.802-.514l.076.04-.217.594h-1.395v-.084l.024-.003c.065-.008.134-.01.168-.089.029-.064.024-.187.024-.259v-1.03c0-.185.016-.333-.18-.349l-.036-.003V20.5h1.37zm12.312-5.983h.14c.13 0 .199.026.199.101 0 .086-.07.13-.211.13h-.128zM31.1 14.9v.73h.133v-.266h.13c.148 0 .199.08.2.265h.144v-.037c0-.16-.045-.243-.18-.28.128-.032.19-.104.19-.2 0-.136-.102-.212-.314-.212zm.272-.19a.566.566 0 0 1 0 1.128.565.565 0 1 1 0-1.129zm-.627.566a.625.625 0 0 0 1.068.444.636.636 0 0 0 .187-.444.631.631 0 0 0-.626-.63.627.627 0 0 0-.63.63zm-5.398 3.05c0 .527.069.883.54.931h.084v.29H24.03v-.29c.517-.058.586-.384.586-.932v-2c0-.538-.076-.894-.556-.932h-.122v-.288l1.165-.212h.244v.663c.335-.45.853-.759 1.432-.759.487 0 .83.173 1.05.76.382-.423.915-.74 1.395-.76a.988.988 0 0 1 .89.481c.168.278.184.605.184.932v2.115c0 .518.06.874.579.932v.29h-1.935v-.29h.06c.488-.048.565-.366.565-.932v-1.903c0-.212 0-.443-.061-.654-.092-.289-.297-.47-.541-.47-.404 0-.808.307-1.143.633v2.394c0 .566.077.884.564.932h.06v.29h-1.98v-.29h.062c.487-.048.563-.366.563-.932v-1.933c0-.528-.03-1.095-.571-1.095-.442 0-.876.308-1.173.634zm-1.378.97c-.19.23-.524.336-.776.326-.373-.01-.716-.22-.83-.693-.45.443-.861.693-1.432.693-.533 0-1.165-.365-1.165-1.134 0-.654.32-.96.753-1.202.405-.23.846-.336 1.28-.394l.564-.077v-.692c-.016-.298-.054-.548-.267-.73-.198-.163-.457-.202-.685-.202-.236 0-.732.144-.732.51v.124c0 .317-.098.577-.388.577-.182 0-.358-.183-.358-.423 0-.404.35-.759.617-.904.32-.172.73-.269 1.074-.278.32-.01.739.125 1.02.317.412.28.45.644.45 1.182v1.884c0 .404.046 1.01.419 1.01.114 0 .22-.068.312-.144zm-1.606-2.144c-.58.067-1.828.27-1.828 1.221 0 .49.328.778.693.778.41 0 .823-.308 1.135-.644z"/></g></g></svg>