<svg width="36" height="36" fill="none" xmlns="http://www.w3.org/2000/svg"><defs><linearGradient id="a" x1="9.752" y1="17.654" x2="11.453" y2="16.926" gradientUnits="userSpaceOnUse"><stop offset=".1" stop-color="#004C98"/><stop offset=".36" stop-color="#2363AA"/><stop offset=".84" stop-color="#618BC8"/></linearGradient><linearGradient id="b" x1="7.953" y1="18.154" x2="7.953" y2="13.999" gradientUnits="userSpaceOnUse"><stop stop-color="#A8141F"/><stop offset=".49" stop-color="#D91A2A"/><stop offset="1" stop-color="#ED1B2F"/></linearGradient><linearGradient id="c" x1="6.856" y1="20.791" x2="4.625" y2="14.662" gradientUnits="userSpaceOnUse"><stop stop-color="#AE1426"/><stop offset=".43" stop-color="#D4192C"/><stop offset=".56" stop-color="#E01A2D"/><stop offset=".76" stop-color="#EA1B2F"/><stop offset="1" stop-color="#ED1B2F"/></linearGradient><linearGradient id="d" x1="4.527" y1="17.35" x2="6.28" y2="15.771" gradientUnits="userSpaceOnUse"><stop offset=".13" stop-color="#E51A2F"/><stop offset=".27" stop-color="#EA4353"/><stop offset=".5" stop-color="#F2838A"/><stop offset=".7" stop-color="#F7B1B2"/><stop offset=".86" stop-color="#FBCDCB"/><stop offset=".95" stop-color="#FCD8D4"/></linearGradient><linearGradient id="e" x1="6.87" y1="16.079" x2="8.263" y2="13.666" gradientUnits="userSpaceOnUse"><stop offset=".03" stop-color="#E23738"/><stop offset="1" stop-color="#FCD3CD"/></linearGradient><linearGradient id="f" x1="9.639" y1="16.867" x2="11.067" y2="16.201" gradientUnits="userSpaceOnUse"><stop stop-color="#5E8BC8"/><stop offset=".24" stop-color="#7098CF"/><stop offset=".7" stop-color="#9EB9E0"/><stop offset=".9" stop-color="#B3C8E8"/></linearGradient><linearGradient id="g" x1="22.578" y1="20.555" x2="22.578" y2="14.614" gradientUnits="userSpaceOnUse"><stop stop-color="#A81324"/><stop offset=".18" stop-color="#AD1424"/><stop offset=".38" stop-color="#BA1625"/><stop offset=".44" stop-color="#C01725"/><stop offset=".49" stop-color="#C81827"/><stop offset=".66" stop-color="#DC1A2B"/><stop offset=".83" stop-color="#E91B2E"/><stop offset="1" stop-color="#ED1B2F"/></linearGradient></defs><path d="M18 0c2.837 0 5.52.656 7.907 1.825C31.884 4.753 36 10.895 36 18c0 9.942-8.058 18-18 18-9.94 0-18-8.057-18-18C0 8.06 8.06 0 18 0z" fill="#F2F4F7"/><path d="M8.503 17.722a1.568 1.568 0 0 1 .388-1.689c.893-.88 2.509-.347 2.623 1.02.07.774-.102 1.55-.49 2.224-.862 1.51-2.702 2.268-4.34 1.747.118.007 1.451.07 1.983-1.072.367-.792.178-1.335-.165-2.23" fill="#004C98"/><path fill-rule="evenodd" clip-rule="evenodd" d="M9.21 16.065c.083-.211.374-.377.754-.366a1.52 1.52 0 0 1 1.485 1.484c.003.256-.011.512-.043.766-.1.548-.303 1.128-.394 1.142-.055.008.144-.292.042-.83-.048-.258-.17-.898-1.367-1.342-.379-.141-.584-.662-.476-.854" fill="url(#a)"/><path d="M7.784 15.365c-.455 1.137.577 1.959.397 2.789-.37-1.067-2.16-.871-2.293-2-.048-.411.158-.793.374-1.081.887-1.184 2.737-1.366 3.762-.656-1.053-.182-1.969.276-2.24.951" fill="url(#b)"/><path d="M7.056 17.788a1.567 1.567 0 0 1 1.02 1.401c.078 1.252-1.384 2.122-2.49 1.312-2.358-1.724-1.906-4.987.17-6.252-.081.085-1.005 1.05-.49 2.201.355.797.89 1.01 1.79 1.338" fill="url(#c)"/><path fill-rule="evenodd" clip-rule="evenodd" d="M5.939 16.002c-.004.862 1.004 1.048 1.706 1.461.22.12.4.304.516.527-.312-1.033-2-.88-2.223-1.988" fill="#970D1A"/><path fill-rule="evenodd" clip-rule="evenodd" d="M7.579 16.137c-.21-.968.154-1.784.968-1.943.051-.01.096-.036.054-.057l-.027-.01c.163-.025.329-.02.49.013.154.027.303.079.44.152-1.444.065-1.983.743-1.858 2.006l-.067-.161z" fill="#F04E53"/><path fill-rule="evenodd" clip-rule="evenodd" d="M5.322 14.67c-.387.669-.323 1.242-.157 1.72.184.53.637.956 1.363 1.294-1.362-.56-2.29-1.67-1.206-3.014" fill="#F15B55"/><path fill-rule="evenodd" clip-rule="evenodd" d="M4.236 16.619c.116-.89.675-1.6 1.069-1.931-.025.031-.07.09-.094.129-.37.522-.436 1.007-.295 1.434.01.036.023.07.039.105.098.223.239.425.414.593.262.259.552.521.917.71.288.148-1.317.097-1.978-.552a1.125 1.125 0 0 1-.073-.49" fill="url(#d)"/><path fill-rule="evenodd" clip-rule="evenodd" d="M4.131 18.052c.21.88.664 1.731 1.373 2.26.624.463 1.29.587 1.953.079.248-.19.407-.488.5-.864-.233.591-.672.873-.994.956-1.535.394-2.646-1.574-2.832-2.429" fill="#970D18"/><path fill-rule="evenodd" clip-rule="evenodd" d="M7.116 21.07c.588-.08 1.04-.304 1.452-.763l-.107.16c-.188.21-.155.194-.328.306-.16.105-.074.137.021.13 1.128-.078 2.782-1.152 3.162-2.493-.431 1.797-2.383 2.71-3.523 2.729a2.734 2.734 0 0 1-.677-.07" fill="#013B82"/><path fill-rule="evenodd" clip-rule="evenodd" d="M6.335 15.137c.376-.46.77-.742 1.196-.892.427-.15 1.008-.253 1.554-.103-.826-.17-1.613.443-1.954 1.274-.388.668-1.356.406-.796-.279z" fill="url(#e)"/><path fill-rule="evenodd" clip-rule="evenodd" d="M9.21 15.949c.92-.552 2.005.033 2.186 1.107.006.035.01.07.01.106 0 .048-.033-.076-.04-.102-.283-1.097-1.414-1.389-2.155-1.111" fill="url(#f)"/><path fill-rule="evenodd" clip-rule="evenodd" d="M18.265 14.614c-1.025.005-2.185.932-2.185 2.947 0 1.88 1.056 2.988 2.185 2.994 1.14 0 2.19-1.108 2.19-2.994 0-2.02-1.164-2.947-2.19-2.947zm0 4.49c-.507.006-.596-.864-.596-1.501 0-.498.065-1.58.596-1.58v-.005c.534 0 .596 1.087.596 1.585 0 .637-.08 1.512-.596 1.501zm2.43-2.993h.864v4.304h1.534v-4.304h.86v-1.404h-3.258v1.404zm-5.998-1.404h-1.543v5.708h2.745V19.06h-1.201l-.001-4.353zm16.134 2.077c-.347-.285-.29-.502-.217-.622.072-.12.202-.175.368-.175.497-.01.896.466.896.466v-1.55c-.369-.176-.736-.29-1.093-.29-.948 0-1.767.684-1.767 1.854 0 1.311 1.445 1.668 1.445 2.217 0 .27-.16.456-.451.452-.404-.015-.948-.507-.948-.507v1.657c.355.163.74.249 1.129.254 1.04 0 1.807-.907 1.807-1.948.001-1.104-.74-1.46-1.17-1.808h.001zm-4.428-2.17c-1.026 0-2.19.927-2.19 2.947 0 1.886 1.056 2.994 2.19 2.994s2.188-1.108 2.188-2.994c0-2.02-1.162-2.947-2.189-2.947zm0 4.49c-.508.01-.601-.864-.601-1.501 0-.498.068-1.58.6-1.585.534-.006.602 1.087.602 1.585 0 .637-.09 1.512-.602 1.501z" fill="url(#g)"/></svg>