<svg width="36" height="36" fill="none" xmlns="http://www.w3.org/2000/svg"><path d="M18 0c2.837 0 5.52.656 7.907 1.825C31.884 4.753 36 10.895 36 18c0 9.942-8.058 18-18 18-9.94 0-18-8.057-18-18C0 8.06 8.06 0 18 0z" fill="#F2F4F7"/><path d="M25.795 13.068c.189.224.241.504.273.792.03.14.09.268.165.39.048.162.087.338.255.438.05.051.086.136.162.15l.142.044c.077.008.134.005.208.005l.008.008c.177-.022.356.002.508-.086.068-.024.158-.003.216-.052.106.006.246.056.307-.056a.222.222 0 0 1 .16-.062c.1-.032.187-.096.295-.108.17-.077.344-.146.512-.234.021-.004.038-.02.064-.016.106-.032.193-.106.282-.178.146-.116.354-.079.503-.19.054-.034.119-.009.182-.022.115-.01.188-.122.315-.105.172 0 .384-.085.523.057.057.052.1.117.122.186.026.166-.12.273-.152.42-.082.161-.302.163-.338.342-.073.086-.187.114-.254.204-.174.163-.392.22-.58.35a.88.88 0 0 1-.295.204c-.064.052-.1.12-.156.178-.158.098-.35.127-.477.29h-.008c-.077.12-.215.127-.29.242a.591.591 0 0 0-.226.212c-.064.095-.188.09-.225.202-.036.066-.155.078-.13.17.019.063-.046.103-.078.146.01.033.02.06.004.092l.017.168c-.003.008-.012.012-.008.021.048.04.114.042.148.105.017.142.186.11.233.239.066.093.076.211.16.298.023.08.05.169.13.216.065.093.127.19.182.287.042.047.096.064.143.099.152.154.214.345.368.498.06.081.163.148.187.251.054.092.121.18.146.281a.245.245 0 0 1 .108.16c.13.076.118.244.217.347a.554.554 0 0 1 .157.26c.124.12.171.28.16.451 0 .145.138.234.126.385a.318.318 0 0 1 0 .244c-.066.049-.045.133-.075.198-.055.112-.155.247-.29.26a.777.777 0 0 0-.306.065.615.615 0 0 1-.352-.125c-.083-.048-.132-.153-.225-.179-.05-.056-.073-.13-.138-.176-.045-.08-.13-.12-.183-.2-.132-.148-.206-.32-.377-.442-.122-.118-.181-.271-.306-.394-.112-.101-.236-.223-.291-.359-.127-.148-.299-.222-.402-.386a.285.285 0 0 0-.122-.073c-.073-.131-.212-.21-.316-.316a.77.77 0 0 0-.095-.035c-.084-.128-.22-.126-.317-.217-.04-.012-.073-.039-.108-.065-.082-.013-.184-.013-.221-.099-.03-.013-.092.012-.109-.04a.224.224 0 0 0-.082.04c-.127-.07-.168.122-.286.117-.05.012-.099.03-.151.035-.078.04-.146.1-.23.125-.055.043-.07.101-.095.16-.096.177-.212.362-.39.485-.093.143-.272.236-.312.403-.048.101-.13.189-.208.278-.037.052-.1.064-.152.095-.102.236-.323.407-.484.61l-.074.065c.004.043 0 .095-.038.126-.17.204-.363.373-.49.593-.053.04-.142.072-.116.161-.021.116-.13.191-.217.273-.022.098-.1.162-.157.246-.097.122-.186.274-.333.347-.04.089-.177.094-.17.204-.06.117-.143.239-.268.303a.806.806 0 0 1-.307.2c-.063-.03-.09.053-.143.06-.125-.068-.225.104-.33-.018a.72.72 0 0 1-.16-.064c-.137-.168-.144-.422-.06-.615.004-.101.073-.185.09-.287.02-.066.08-.114.117-.173.027-.056.039-.118.078-.168.032-.081.057-.163.108-.235.044-.08.035-.184.092-.26.118-.137.178-.298.242-.458.053-.074.129-.135.17-.217.079-.224.306-.386.432-.59a.992.992 0 0 0 .209-.338c.09-.162.274-.264.325-.445.12-.16.262-.318.346-.498.031-.073.095-.132.108-.213.003-.184.157-.305.19-.476.072-.19.103-.398.256-.555.009-.12.12-.2.104-.325-.024-.052-.085-.07-.126-.111-.079-.08-.176-.145-.29-.135a.483.483 0 0 0-.112-.022c-.159-.065-.33-.098-.49-.155-.086-.057-.189-.104-.247-.2l-.108-.086c-.185.025-.31-.129-.494-.117a4.861 4.861 0 0 1-.607-.178c-.108-.12-.289-.089-.372-.241-.076-.044-.174-.069-.208-.165-.021-.031-.02-.08-.013-.116.04-.078.11-.129.173-.192.067-.053.146-.038.23-.046.233-.028.496-.042.718-.121a.986.986 0 0 1 .335-.006c.127.02.277-.014.402-.012.09-.004.177-.011.265.004.118-.006.233-.019.346-.038a.59.59 0 0 0 .416-.057c.128-.048.271-.053.399-.104a.353.353 0 0 1 .26-.16c.046-.077.123-.093.189-.143.047-.076.132-.13.187-.195.01-.066.012-.146.048-.207.158-.114.082-.325.182-.465.038-.119.067-.241.143-.346.03-.046-.005-.116.012-.173.04-.09.139-.158.173-.25.009-.053-.015-.114.005-.165.038-.175.096-.348.255-.464.086-.061.164-.166.287-.113.065.013.137.006.19.048z" fill="#F7931E"/><path d="M15.483 18.528s.186-.006.193-.212c0 0 0-.464-.431-.464 0 0-.425-.02-.704.501-.245.001-.518 0-.558-.01 0 0-.026-.246-.212-.22 0 0-.302.094-.086.365 0 0 .027.034.086.054 0 0 .18.312-.106.465 0 0-.292.185-.285-.472 0 0 .013-1.732-.04-2.13 0 0-.02-.219-.259-.344 0 0-.1-.06-.106.066l-.014 2.707s-.015.221.166.332c0 0 .46.389.863-.12 0 0 .143-.23.033-.511l.451-.002c-.011.044-.02.091-.026.141 0 0-.073.63.55.61 0 0 .413 0 .605-.45 0 0 .04-.173-.12-.027 0 0-.239.378-.537.173 0 0-.158-.151-.116-.449l.653-.003zm-.524-.358s.173-.239.319-.186c0 0 .199.086.092.305 0 0 .007.086-.431.06h-.063c.02-.055.048-.115.083-.18zm2.611-2.139c-.078-.006-.329.003-.335.32l.01 1.857c-.065.184-.305.682-.66.798 0 0-.451.146-.378-.405 0 0 .013-.305.265-.57 0 0 .2-.176.206.092v.087s-.106.04-.06.145c0 0 .087.223.206.138 0 0 .04-.038.046-.088.027-.117.056-.354-.1-.495 0 0-.387-.311-.835.273 0 0-.432.737.186 1.002 0 0 .621.238 1.125-.547l.003.534s-.027.046.106.033c0 0 .206.006.232-.126l.001-.38c.016.029.054.057.125.075 0 0 .187.068.403-.032.168.106.142.363.142.363.02.173 0 2.336.006 2.648.007.312.292.438.292.438.113.067.106-.066.106-.066l-.04-2.8c-.004-.457-.23-.612-.374-.665.034-.027.084-.062.118-.101 0 0 .442-.45-.142-.741 0 0-.294-.121-.634.19l.004-1.948c.001-.03-.024-.029-.024-.029zm.263 2.504s-.12 0-.192.04a.124.124 0 0 0-.053.053v-.357c.128-.114.254-.194.357-.194 0 0 .233-.014.24.225 0 0 0 .273-.352.233zm-5.267.365c-.022-.159 0-2.469 0-2.469s0-.194-.142-.309c0 0-.124-.132-.186-.009 0 0 0 1.027.005 1.906l-.005-.004s-.522-.364-1.009.177c0 0-.257.302-.19.62-.054.063-.168.173-.208.061 0 0-.053-.316-.239-.327 0 0-.086-.041-.256.186 0 0-.08.097-.089-.072 0 0 .01-.344-.256-.318 0 0-.142-.018-.434.425 0 0-.16.168-.186-.044 0 0 .01-.672-.292-.407 0 0-.247.274-.433.486 0 0-.124.107-.142-.088 0 0 0-.779-.23-.779 0 0-.213-.07-.39.708 0 0-.033.47-.38.398 0 0-.623-.11-1.267-.143a.913.913 0 0 0 .064-.14s.186-.424.177-1.017c0 0-.018-3.006-.124-3.315 0 0-.053-.186-.186-.115 0 0-.221-.018-.186 1.335 0 0 .027 2.095.054 2.564 0 0 .05.454-.078.679-.311-.005-.595-.009-.816.082 0 0-.313.171-.009.3 0 0 .507.125.873-.122.22.06.677.114 1.587.167a.365.365 0 0 0 .39-.274c.144-.368.176-.07.176-.07-.009.363.124.389.124.389.15.114.514-.337.514-.337.212-.328.212-.142.212-.142-.018.328.177.399.177.399.239.088.495-.345.495-.345.195-.336.222-.186.222-.186-.01.212.008.424.008.424.071.328.443-.106.443-.106.106-.168.124-.097.124-.097.062.257.238.257.238.257.155.005.303-.178.374-.28.02.037.046.075.078.111 0 0 .318.38.752.115 0 0 .163-.12.33-.36l.006.307s.045.244.258.07c0 0 .053-.019.066-.148 0 0 0-.04-.014-.143zm-.567-.133c-.442.38-.566-.017-.566-.017-.062-.558.549-.62.549-.62a.36.36 0 0 1 .262.082l.002.222c-.142.276-.247.333-.247.333zm-2.424 1.504s1.876-.08 5.389 0c0 0 .238 0 .345.151 0 0-1.284.053-5.433.23 0 0-.824-.018-.54-.292 0 0 .08-.071.239-.089z" fill="#9F9A79"/><path d="M21.361 23.397c-.01-.024.041-.023.014-.044-.052-.011-.126.12-.139.005-.027-.016-.054-.005-.078-.013-.022.007-.025.04-.052.04-.074.03-.078-.083-.13-.087.015.013.01.04.004.055-.008.01-.017.016-.03.013-.014-.026-.051-.037-.03-.073.021-.008.01-.035.026-.043-.01-.018-.042-.007-.048-.035-.004-.065.03-.124-.017-.177.002-.03-.008-.063.017-.083.045.005.004-.048.035-.06-.005-.045-.03-.087-.014-.135.027-.024.05-.06.092-.043.04-.016-.006-.04-.01-.06.063-.039.009-.11.032-.174.024-.033.028-.084.077-.094.013 0 .029.014.04.008.054-.031.016-.084.064-.117-.022-.032-.01-.066-.013-.1.017-.016.032-.037.057-.034.012.026.044.012.06.034.017-.02.042.005.048-.021.031-.013.056-.02.078-.048.011-.053-.072-.051-.048-.104.006-.024.018-.043.043-.051.033-.007.04.043.065.03.039 0-.015-.03-.004-.052a.14.14 0 0 1-.082-.092c.019-.028.013-.07.038-.095-.02-.024-.003-.043.01-.065.05-.034.11-.021.146-.073.012 0 .02.003.027.012.008.034-.024.063 0 .091.001.008-.004.02.004.027.017-.006.024-.03.043-.027a.173.173 0 0 1-.013-.138c-.002-.008-.012-.027-.022-.013a.049.049 0 0 1-.043.013c-.02-.008-.023-.029-.022-.048.046-.02.062-.1.121-.069l.022.017c.009-.016.004-.035.005-.052-.034-.01-.002-.061-.048-.048-.024-.02-.009-.058-.013-.086.03-.02.028-.055.065-.06.054-.04.053-.107.053-.16.016-.033.049-.066.086-.07a.05.05 0 0 0 .034.008c.052-.027-.028-.047.005-.082.027-.028.06-.087.108-.07.017.028.05.041.03.079-.013.037-.045 0-.057.03.01.019.033.034.053.026a.086.086 0 0 0 .034-.07c-.023-.043-.032-.092-.043-.143.02-.033.07-.059.07-.103.043-.028.092-.05.112-.095.02-.032.064.01.066-.04-.024-.012-.009-.044-.032-.056a.226.226 0 0 1 .07-.16c.031 0 .063.012.078.043.001.006-.003.014.004.018.028 0 .014-.032.031-.044a.294.294 0 0 1 .052-.208c.025-.044.096-.016.1-.078-.015-.015-.006-.034.003-.047a.052.052 0 0 1 .044-.013c-.026.049.04.097-.022.133l-.044-.022c-.007.011-.002.027-.003.04.027.041.055-.022.095-.008.025-.017.046-.004.069-.021.004-.018.029-.031.013-.049a.056.056 0 0 1-.043.014c-.023-.027-.009-.051-.026-.079.005-.02.018-.028.034-.038.035.007.054-.042.075-.062-.015-.01-.043.005-.049-.017a.045.045 0 0 1 .017-.043c-.018-.022.017-.013.022-.026.018-.015.036-.045.065-.039.012.013.029.023.021.043-.01.033-.07.025-.055.065.018-.015.047-.002.06-.03-.001-.015-.001-.04.017-.04h.004c.002-.04-.022-.097.005-.138a.584.584 0 0 0 .109-.103c.021-.039.064 0 .077-.048v-.009c-.02-.007-.044.013-.065 0-.032-.052.048-.077.026-.135.026-.015.057-.086.092-.035.08-.05.059-.143.13-.198l.068-.065c.007-.02-.017-.02-.025-.03-.022.007-.053.021-.075.003-.017-.025-.028-.058-.017-.09.019-.016.048-.018.049-.048-.015-.048.025-.084.051-.121.018.007.024-.02.039-.022a.081.081 0 0 1 .062.052c-.018.05-.062.055-.087.096-.003.017 0 .033.016.044.037-.023.028-.069.065-.087l.027-.122c-.017-.013-.026 0-.044 0-.021-.027-.073-.04-.064-.083.01-.02.01-.049.038-.055.009-.001.017 0 .022.008-.014.017-.012.032.004.047l.01.01c.014-.03.004-.069.024-.096.025-.01.044-.04.075-.034.035-.03.072-.064.073-.108.048-.046-.014-.09-.03-.13.023-.046-.001-.11.044-.148a.207.207 0 0 1 .025-.09c.02-.011.05-.038.07-.01.029.058-.015.118-.03.173-.011.02.017.035.025.053.023-.003.008-.03.026-.04a.15.15 0 0 0 .044-.043c.004-.031-.007-.044-.009-.073-.047-.018-.002-.068-.035-.095.015-.06-.04-.102-.03-.165-.025-.023-.025-.06-.017-.092.014-.07.12-.017.108-.103.009-.04-.039-.035-.052-.065-.018-.024-.044-.046-.04-.079.009-.008.035-.01.023-.025.002-.024-.02-.038-.032-.056-.058-.023-.102.037-.16.003-.014-.015-.045-.001-.052-.03-.022-.04.047-.068-.008-.095-.029-.014-.069.03-.091-.008-.024-.018-.042.01-.06.022-.035-.017-.068.012-.1 0-.072-.043-.18-.01-.23-.1-.04-.004-.072-.028-.112-.03-.036-.043.03-.078.017-.122-.038-.05-.081.025-.117-.013-.017-.014-.018-.036-.035-.051-.048.01-.103.037-.151.008-.017-.029-.038-.055-.039-.09-.042-.084-.14.04-.183-.056-.056-.02-.086.051-.146.038-.045-.018-.074-.062-.13-.038-.058.015-.093-.047-.157-.03-.052-.016-.028-.126-.108-.079a.221.221 0 0 1-.174.022c-.032-.034-.049-.123-.116-.095a.304.304 0 0 1-.252.03c-.027-.054-.122-.03-.12-.104.001-.035-.031-.046-.061-.034-.015.018-.038.018-.06.017-.018-.039-.068-.052-.105-.07-.036.02-.07-.013-.087-.038 0-.043-.029-.071-.065-.087a.081.081 0 0 1 .018-.082c.047-.05.058.036.104.026.006.062.104.057.073.129.029.027.052.082.096.052l.009-.008c-.076-.017-.04-.112-.1-.139-.077.005-.064-.095-.135-.103-.008-.011-.016-.03-.034-.022-.028.014-.033.065-.07.047-.022-.018-.011-.054-.008-.078.015-.033.054-.025.082-.038.03-.012-.001-.038.008-.052.027-.016.038-.04.065-.052.041.011.082.043.118 0 .032 0 .053-.025.082-.031.101-.032.21-.083.316-.025.078-.017.188-.08.252 0 .034-.004.056.018.065.047.005.01 0 .029.017.03.084.012.087-.095.164-.099.062-.005.123-.034.169.026.117.018.166-.13.278-.125.085-.017.142.088.225.026.042-.021.097-.04.143-.026.035.002.065.026.087.051 0 .018.01.039.025.049.105.038.16-.075.265-.035.075-.02.063.132.138.048.007-.03 0-.071.039-.079.06-.009.124-.02.178.01.157-.01.255-.16.403-.19.117.008.224-.02.295-.114.027-.08.003-.188.103-.23.063-.04.171.012.212-.06-.002-.04-.082-.04-.055-.091.023-.034.062-.036.099-.022a.09.09 0 0 0 .06.035c.022-.039-.02-.072-.012-.117.027-.062.078-.143.156-.147.02-.017.034-.05.021-.077-.022-.032-.046-.065-.034-.105.018-.078.127-.123.086-.22-.02-.13.047-.24.126-.338.015-.096.019-.193.056-.278.071-.079.053-.195.117-.277.012-.114.025-.24.057-.351.056-.074.135-.128.146-.22.074-.064.151-.137.239-.172.08-.016.137.062.216.045.035.011.076.028.092.065 0 .031.044.04.043.075.015.07-.009.135-.014.203.02.013.047.022.052.047.05.08-.077.08-.043.152.06.053.045.128.035.2-.012.005-.01.018-.022.026.02.008.039.014.052.034 0-.037.027-.047.053-.065.023-.004.037.006.043.026.002.033.002.065-.022.087a.046.046 0 0 1-.056 0c-.01-.005-.006-.018-.018-.017.024.091-.126.092-.082.177.043-.012.06.016.082.043.001.01-.002.023.005.03.012-.019.028-.054.056-.038.022.008.013.036.013.048-.016.013-.038.03-.06.017-.015.058-.09.044-.1.095.054.003.085-.047.125-.078.068.008.08-.09.152-.043.037.028-.006.138.07.113.074.013.084.098.095.16-.03.033-.029.08-.01.116.024.04.074.026.092.066.05-.016.005-.002.029.021-.003.042.007.088-.013.126l.004.047c.048-.006.117-.017.151.032.018-.011.023.02.035.03.002.028.016.056.004.086-.016.039-.083.035-.065.079.102.002.054-.175.178-.135.046.036.102.117.168.082.022-.03.053-.058.087-.065.06.023.13.038.187 0 .07-.012.118.038.186.018.06-.046.153-.079.22-.04.106.007.177-.078.275-.09.045.032.083-.019.113.032.106-.048.073-.115.15-.102.041-.031.102.068.087-.025.022 0 .046-.02.065 0a.049.049 0 0 0 0 .043c.04-.015.058-.054.095-.078.029-.009.058-.033.091-.018.004.033.045.007.047.04.043-.016.026-.07.049-.1.017-.02.03-.05.06-.06.021-.004.05.004.048.03v.013c-.024.018-.041.05-.065.068.027.009.047-.03.073-.038.07-.039.066-.17.165-.139.01.02.027.043.052.039.044-.02.03-.108.103-.087.023.01.008.056.044.052.018-.007.04-.001.053-.022-.005-.05 0-.102.051-.121.036-.017.069-.001.108-.012.04-.063.104-.08.169-.07-.009-.054.064-.052.07-.1.023-.01.047.001.065.013.034-.027.015-.091.068-.095.05.034.062-.046.105-.013.004.023-.029.03-.03.052.023.006.05-.006.069-.025.015-.07.13-.11.205-.119.087-.032.16-.047.239-.084.05-.006.078.047.13.03.036-.034.087-.04.141-.036.059.002.07.1.14.065.018-.008.038.019.051.03l-.018.027c.018.017.047.016.057.043-.006.02-.003.05-.03.052a.283.283 0 0 0-.096.052c.022.031.068.016.1.014.013-.009.027-.086.052-.08.095.07-.108.147.025.2.034.026.01.07 0 .1.005.036-.065.035-.034.077.017.02-.035.069-.045.093a.172.172 0 0 1-.055.048c.028.01.029.038.008.056-.003.008-.012.003-.018.004-.01-.009-.013-.02-.011-.034.003-.006.069-.03.069-.037-.018-.01-.097.02-.109.037.009.016.051.041.048.052-.003.01-.031.056-.065.065-.02.01-.04-.02-.051.008-.002.133-.094.089-.16.163-.063.053-.14-.05-.2.022-.03.061-.086.075-.142.095-.038.027.003.085-.035.113-.062.072-.177-.039-.217.06.016.008.043 0 .043.027-.003.038-.02.08-.055.1-.04.015-.085.034-.108.068-.032.024-.083.004-.1.048-.042.044-.18-.024-.143.092-.026.031-.075.044-.087.09a.092.092 0 0 1-.091.022c-.012-.005-.022-.02-.034-.03-.015.006-.034.003-.043.021-.003.035.021.064.012.095-.054.042-.123.073-.195.048-.045-.002-.043-.075-.09-.061-.009.016.001.024-.009.04.02.014.039.042.025.068-.02.016-.04.035-.065.04-.016-.016-.022-.042-.008-.062-.013-.003-.024-.01-.038-.008-.01.029-.07.043-.044.083.02.012 0 .031 0 .046-.04.084-.148.024-.204.079-.015.05-.069.06-.104.091-.054.024-.112-.033-.156.017-.017-.005-.038-.014-.056-.005-.046.04.039.107-.04.126-.015.005-.034.003-.046.017l.003.035c.026-.012.046.013.074.005.005.006.004.016.004.025-.024.013-.006.043-.03.056-.06-.019-.104.06-.151-.004-.015.008-.016.022-.009.035l.044.03c-.008.028 0 .075-.044.074-.031.006-.053.088-.086.034-.021-.023.041-.044-.005-.044-.023.017-.023.071-.06.053-.02-.021-.015-.055-.022-.083a.086.086 0 0 0-.01.074.116.116 0 0 1 .022.104.128.128 0 0 1-.047.057c-.033.027-.094-.042-.108.025-.033.028-.054-.035-.095-.014-.054-.004.01-.066-.048-.068-.02-.019-.015-.051-.027-.073.043-.017.056.045.092.03.018.005.053.013.078.004.025-.015.046-.05.073-.06v-.009c-.059-.01-.077-.026-.14-.059-.025-.07-.154-.023-.127-.117-.04-.027-.093-.003-.138 0 .02.037.065.103.054.154-.01.025-.073.025-.039.06.008.019-.011.027-.021.036h-.027c.002.028.004.071-.034.086-.024 0-.051-.006-.065.021.006.055.056.005.083.027.03.008.049.032.064.06.014.038-.042.061-.016.095.016-.012.036.002.052.008.014.027.01.051.003.078.064.044.134.089.134.173a.308.308 0 0 1-.043.073l-.038.048c.025.02.075-.023.09.027.01.03-.139.163-.102.187.04.01.086.017.109.056.02.02.01.06.043.07.028-.01.06-.02.091-.008.023.022-.01.038.017.06.012.026-.027.07.022.07.034.01.103-.026.113.03.016.058.045.137.117.151.035.024-.038.117.038.065.015.012.042.01.043.035 0 .018.01.029.005.047.092.008.055.148.156.121a.07.07 0 0 1 .031.07.123.123 0 0 1-.027.052c.033.03.109.035.104.1.009-.017.024-.011.035-.018.024.013.025.04.018.061-.01.004-.016.01-.027.008l-.026-.034c-.033.034-.076.078-.052.134.02.032.052.055.087.06.04-.014.082-.046.126-.021.042.044.12.056.106.125.023-.047-.004.11-.01.099l.018.013c.018-.016.002-.044.012-.06.02-.02.057.02.083.008.046.058.101.041.055.168-.02.02.09-.033.126-.021.032.036.08.077.057.135-.016.02-.044.04-.027.07.038.032.139-.14.171-.092.02.06.084-.014.117.035.047.024-.005.09.047.112.003.028-.088.143-.1.061-.045-.021-.066-.072-.069-.113-.013-.003-.031.031-.04.036.022.075.028.12.046.197.016-.01.052-.07.076-.045.014.062.013.126.013.194.014.03.04-.002.057.009.035.02.035.063.06.09.004.018-.007.04.008.052.013-.013.038-.01.052-.003.02.033.031.067.065.086a.102.102 0 0 1-.03.069c-.03.007-.053-.016-.069-.034-.008.004-.007.026-.008.034.038.02.078.063.134.018.022.01.043.025.048.052.017.064-.126.076-.04.134.008-.021-.003-.052.026-.061a.14.14 0 0 1 .095.095c0 .038.035.07.03.113.018.012.04.015.052.035.007.024-.007.042-.03.043-.014-.002-.03.003-.035.017-.01.028.022.04.035.052.018.003.041.01.043.031-.016.02-.038.05-.06.069.104-.007.007.177.122.095.026.001.03.028.038.048-.014.05-.035.096-.008.147.026.003.058.007.057.04-.008.041-.01.078.016.111.041.028.114.046.114.109.03.005.057.04.073.065.003.052.01-.082.096-.004-.003.035.005.107-.023.125-.021-.004-.038.047-.055.03-.01.03-.017.008-.01.043.038.044.079.09.057.152-.006.047-.063.068-.052.117.015.045-.032.08-.065.108-.033-.003-.049.039-.082.039-.03.04.023.14-.06.156-.082.059-.166-.006-.252.039-.03.017-.05-.011-.074-.022l-.021-.04c-.03.03-.069.02-.104.01-.033-.02-.003-.087-.061-.078-.003.01-.01.015-.017.021-.029.01-.036-.038-.065-.03-.064-.042-.057-.117-.056-.181-.003-.027-.024-.022-.044-.027a.27.27 0 0 1-.103-.12.084.084 0 0 1 .013-.057c.023-.014.045.005.065.017-.013.05 0 .1.039.135.012-.022-.039-.041-.009-.066.02-.005.022-.021.025-.04-.067-.003-.024-.117-.108-.081-.01-.007-.022-.032-.034-.021.014.008.01.03.004.043-.01.014-.028.006-.043.008a.031.031 0 0 1-.014-.03c.011-.01.015-.021.027-.03h.017c-.003-.007.01-.034-.012-.035-.025-.014-.072.03-.065-.022.034-.012.003-.04.012-.056-.033-.035-.078-.07-.06-.121l-.027-.022c-.015.023-.018.067-.06.043-.012-.048-.093-.096-.035-.146.02-.016.035-.035.009-.052-.027-.03-.05-.003-.082-.005-.054-.013-.025-.106-.087-.082-.026.009-.042-.02-.056-.03-.003-.042-.004-.075-.052-.078-.02-.009-.053-.009-.052.021.025.023.08-.014.074.044.013.01.027.014.026.035.006.017-.02.022-.022.038-.02.01-.043.002-.06-.008-.013-.034-.064-.05-.044-.1-.047-.036-.046-.091-.087-.13.016-.05-.02-.093-.06-.122-.01-.007-.027-.003-.04-.003-.013-.031.011-.067-.03-.078-.033.019-.069 0-.104 0-.022-.034-.075-.052-.069-.1-.058-.016-.092-.064-.125-.114-.024-.045.018-.13-.062-.141-.022 0-.047.025-.068.003-.023-.045-.078-.033-.095-.073a.875.875 0 0 0 .021-.147c-.032-.017-.045-.063-.083-.065-.036.002-.064.046-.103.03-.027-.02-.07-.037-.052-.083.007-.016-.012-.023-.021-.026a.13.13 0 0 1 .011-.073c-.01-.015-.025-.04-.046-.04-.019-.018.02-.052-.019-.056-.004.064-.067.016-.09.053-.04.012-.059-.037-.083-.053-.007-.007-.002-.02-.003-.03.01-.024.03.013.034-.017.016-.028.064.01.067-.031.01 0 .013.003.018-.009-.029-.033-.05.006-.081-.008a.05.05 0 0 1-.017.021c-.028-.009-.044-.046-.078-.042-.037-.043-.046.058-.086.017-.039-.03-.041-.076-.07-.108-.039.022-.08.014-.128.002-.022-.015-.019-.038-.022-.062-.013-.034.04-.046-.014-.075a.364.364 0 0 1-.096.009c-.034-.016-.022-.052-.034-.078.007-.012.012-.034.003-.047a.062.062 0 0 0-.046-.013c-.013.016-.003.04-.027.051-.029.01-.046-.014-.065-.03-.003-.03.011-.086-.035-.095-.013 0-.024-.015-.013-.026-.037.011-.039-.05-.077-.022-.031-.006-.017.029-.027.043-.015.01-.034-.01-.038-.025.02-.037-.014-.066-.048-.078-.018-.022.001-.043-.017-.065-.013-.025-.028-.007-.043-.022l-.01.01c.023.01.023.025.041.044a.118.118 0 0 1-.014.047c-.078.01-.122-.057-.19-.027-.032-.017-.086.058-.075-.017-.001-.021-.027-.026-.043-.018a.162.162 0 0 1 .004.052c-.043.002-.07.106-.108.031-.013-.012.006-.021.005-.034-.045-.003-.066.074-.121.034-.057.007-.011.07-.066.087-.02.033-.063.026-.095.021-.003-.008-.012-.003-.018-.005l-.013.014c.023.003.018.032.031.047-.01.02-.016.044-.035.056-.02-.023-.067.012-.065-.03.008-.017.034.001.036-.021-.072-.008-.145.07-.213.016-.012-.022-.038-.01-.057-.016-.054.014-.063.077-.068.116.03-.002.02-.036.034-.051.023-.006.023-.044.052-.035.047.017-.003.05.025.078a.133.133 0 0 1-.025.07c-.04.017-.074.052-.122.038-.03-.006-.02-.073-.056-.03.01.034.063.032.043.073.018 0 .035-.016.052-.005.033.011-.006.032 0 .044a.216.216 0 0 1-.068.043l-.022-.03c-.01.02-.031.035-.048.052.035.013.03.062.018.087-.004.019-.025.035-.044.021-.007-.007-.017-.002-.026-.003-.03.03.004.058-.008.09a.066.066 0 0 1-.035.048c-.037.004-.091-.056-.114.009-.04.016-.09-.036-.111.03-.005.012.006.019.013.026.023-.007.044-.043.068-.017.017.052-.041.043-.056.078-.022-.024-.065-.011-.082-.039-.005-.017.029-.03.005-.043-.016.01-.04.015-.053.008-.01-.027-.038-.013-.055-.004a.388.388 0 0 1-.092.09c-.001.01.002.018.009.022.034-.014.06-.09.104-.043.02.025.06-.015.082.018.003.02-.001.04-.021.047-.011-.007-.027-.003-.039-.003-.01.032-.037.025-.061.038-.023.009-.034-.015-.052-.017-.012.012.012.033-.009.043.015.021.03.004.047.022-.006.03 0 .074-.038.082-.015.005-.027-.006-.03-.017-.001-.015.01-.031 0-.043h-.005c-.008.036-.067.088-.009.117.015.032-.004.062-.016.09-.024.012-.039.012-.066.018.008.011.003.025.005.038-.024.023-.076.005-.074.052-.033.01-.052.088-.087.053-.01-.058.034-.094.03-.148.018-.018.067.004.062-.035-.028-.02-.06.001-.087.005-.024.037.017.114-.053.117-.03.013-.042-.022-.065-.026-.077.03-.013.139-.095.16-.045.024-.078-.041-.117-.004-.02.017-.051-.021-.06.017.03.038-.02.07-.013.104.026-.007.069.005.087-.03-.015-.02-.01-.038-.005-.061l.035-.025c.018.008.015.035.038.043.053.006.05-.06.105-.048.006-.003.008.006.013.008.006.054-.052.071-.031.13-.012.02-.025.05-.052.057-.013-.008-.032-.004-.047-.009-.042.041-.006.098-.048.139-.023.031-.061.035-.095.026-.015-.013-.036-.014-.043.009-.014.062-.015.15-.087.186-.039.005-.061-.021-.087-.048-.021.029-.023.08-.07.083-.016.008-.002.028-.013.039-.023.007-.046.052-.073.016l-.014-.011c-.002.041-.075.06-.03.108l-.003.003c.008.008.013.018.025.014.018-.008.003-.028.014-.04.032-.02.049-.063.091-.052.023.016.06.034.039.07-.026.036-.093.03-.074.086a.127.127 0 0 1-.04.052.115.115 0 0 1-.055-.017c-.021.011-.013.034-.018.052a.05.05 0 0 1 .022.057c-.024.02 0 .089-.052.068-.006-.011-.02-.028-.035-.03 0 .02-.012.056.018.07.009.039.06.065.034.112-.03.018-.054.05-.095.044-.005.115-.134.172-.16.273-.036.059-.162 0-.135.108-.033.097-.18.023-.185.143-.02.061-.098.02-.13.07.012.007.03.017.017.034-.02.02-.04.042-.065.048-.011-.01-.009-.026-.009-.039.012-.032.052-.007.06-.04-.013-.003-.043.008-.056-.008-.038.046-.006.128-.077.151-.022-.003-.047-.007-.057-.03l-.008-.064c-.02-.011-.027.016-.04.025.001.026.017.053.004.078-.051.057-.122.095-.194.078a.136.136 0 0 0-.061.095c.035.044-.018.11.03.149a.136.136 0 0 1-.009.108c-.016.051-.07.03-.103.043.034.02.028.06.021.09a.07.07 0 0 1-.091.022c-.01-.006-.022-.012-.03-.022-.012.022-.052.045-.03.078.023.018.036.053.017.078-.018.017-.038-.015-.052.004 0 .042.007.095-.043.108-.037.017-.087-.013-.126.01-.062.008-.058.087-.104.116.001.008-.003.017.005.022.025-.03.081-.012.065-.07.015-.024.04-.064.073-.06.018.013.021.037.013.057-.032-.001-.029.035-.035.055l.027.01c-.008.026-.017.057-.044.073-.028.002-.022-.04-.047-.03-.014.009-.034.03-.048.012l-.018-.034c-.02.039-.06.035-.09.013-.008-.005-.018.009-.031.004-.01-.006-.014-.024-.03-.017-.015.026-.02.058-.052.074.04.026.029-.058.073-.022.009.024.023.054.005.078-.027.027-.06-.002-.09-.011zm.33-.117h-.005v-.008h.005v.008zm-.723-.585a.086.086 0 0 0 .025-.056c-.008-.007-.006-.03-.025-.022-.017.015-.04.022-.035.048.005.016.014.031.035.03zm1.186-.143c.01-.001.017-.018.008-.025h-.013c-.003.005-.01.01-.008.017.005.003.007.01.013.008zm.022-.043c.028-.012.038-.04.038-.069-.005-.024-.016-.047-.046-.043-.035.014-.025.04-.027.073.01.015.013.038.035.039zm-.823-.39c.015-.03.049-.065.03-.108-.026-.028.004-.07-.03-.095-.018-.011-.04 0-.052.017-.028.035.012.065.017.1-.029.02-.035.041-.025.078.013.018.043.023.06.008zm1.1-.055c.002-.033.042-.024.052-.044-.057-.044.04-.09-.017-.134-.056-.006-.04.058-.06.086a.083.083 0 0 0 .024.092zm.368-.295a.183.183 0 0 0 .065-.04c.001-.009.016-.017.004-.025-.01-.02-.021-.05-.004-.07.008-.014.032-.021.018-.038-.035.051-.09.053-.149.119a.125.125 0 0 1 .066.054zm7.013-.049c.035.002.05-.033.074-.046.011-.031.05-.066.016-.1-.027-.006-.023.034-.052.03-.002.037-.04.01-.056.043-.003.025-.01.062.018.073zm-6.71-.138.013-.03c-.021 0-.04-.034-.06-.008.007.022.034.021.047.038zm6.913-.33c.019-.011.019-.033.017-.055-.012-.012-.014-.04-.039-.035a.04.04 0 0 0-.03.052c.012.02.023.047.052.039zm-1.264-.303c-.055-.033.029-.054.008-.095l-.034-.025-.017.017c-.017.037.017.078.043.103zm-.382-.42v-.068c-.005-.02-.019-.053-.048-.048l-.03.042c.002-.002-.005.086 0 .087.003.006.052-.038.048-.03 0 .02.015.017.03.017zm-.264-.16c0-.009.012-.027-.004-.03-.014.014-.049-.004-.048.026.007.024.046.038.052.005zm.065-.07c.008-.016.013-.041.004-.06-.015-.006-.03-.03-.048-.02.003.035-.01.08.044.08zm-4.292-.133c.024-.042.082-.048.1-.086-.009-.004-.012-.012-.022-.009-.04-.01-.013-.045-.026-.07-.025-.035-.056.006-.07.027.02.042 0 .095 0 .133.008-.003.01.006.018.005zm.381-.065.017-.008c-.002-.011-.02-.024-.026-.014l.01.022zm5.037.31a.132.132 0 0 0-.058-.136c.04.056-.05.085-.02.137 0 .056.056.01.078 0zm-6.584-.483c-.007-.013-.017-.034-.034-.022v.013c-.02.034.044.035.034.009zm1.283-.035a.072.072 0 0 0 .038-.065c-.01-.002-.01-.03-.03-.022-.037.02-.071.062-.06.104.022.003.032-.029.052-.017zm.168-.039c.035-.022.06-.07.105-.07.012-.01.021-.021.017-.038-.046.01-.094.011-.13.047-.005.018-.01.05.008.061zm3.383-.03c.017-.009.02-.033.022-.053-.017-.024-.023-.089-.07-.065.003.032-.04.043-.012.074.031.003.031.046.06.043zm1.604.067c.033-.028-.021-.032-.03-.055-.016-.024-.001-.072-.03-.078.003.031-.003.062-.007.097.013.015.043.042.067.036zm.044-.073-.017-.074c.002.017-.025.022-.022.039.008.012.027.03.039.034zm-1.899-.284c-.002-.008-.012-.004-.017-.004-.007-.002-.014 0-.013.008.006.014.029.01.03-.004zm-.035-.01c.006-.011.011-.034-.003-.043-.009-.006-.03-.01-.035.005.003.017.021.032.038.039zm-2.649.035c.022-.024.062-.02.07-.057.059.011.037-.025.041-.037.018-.042.01-.03-.003-.062-.067.087-.116.016-.13.143.007.008.015.008.022.013zm2.442-.173c.015-.008.046-.005.043-.03-.008-.019-.021-.005-.04-.01-.017.002-.014-.034-.034-.016-.001.024.02.037.031.056zm-3.938-.069c.033-.011.016-.05.027-.074-.003-.008-.011-.016-.022-.013-.026.007-.04.04-.048.065.007.018.024.026.043.022zm.135-.039c.02-.029.05-.084.035-.108-.013.018-.024.066-.057.047.008.02.001.053.022.061zm-.073-.083c-.006-.01-.017-.008-.027-.008v.013c.006.015.027.007.027-.005zm3.2-.233c.017.02.027-.008.048-.005-.005-.018.008-.034.003-.047-.021.007-.016-.02-.03-.027-.011-.013-.029-.01-.043-.016a.044.044 0 0 0-.017.03.216.216 0 0 0 .039.065zm-2.946-.217c.02-.018.047-.036.079-.034.029-.003.026-.038.021-.057-.023-.01-.049-.002-.07.01.019.045-.056.037-.03.081zm2.69-.017c-.004-.012.012-.013.018-.017a.027.027 0 0 1-.017.018zm-2.49-.173c.022-.019.065-.013.069-.048.004-.046-.025-.095-.065-.122v.018c.03.023.013.06.022.09a.155.155 0 0 0-.03.057l.004.005zm-.151-.031c.015-.022.042-.046.043-.077-.006-.033.029-.062.003-.092-.016.005-.042-.01-.051.013.006.05-.06.07-.039.126a.05.05 0 0 0 .044.03zm4.03-.592c.01-.016.08-.097.096-.093.016-.023-.095-.007-.095-.037l-.058.037c-.002.024.022.076.058.093zm-3.853-.213c.014-.009.027-.024.021-.043-.01-.013-.021-.022-.038-.019-.012.004-.018.016-.022.027.008.013.014.043.039.035zm4.153-.122c.018-.005.046-.005.035-.035-.016-.03-.047-.059-.087-.046l.003.043c.006.021.03.034.05.038zm-4.24-.051a.137.137 0 0 0 .052-.04c0-.01 0-.024-.012-.025-.026.02-.053-.004-.084.003-.009.01-.028.01-.021.032.018.02.04.03.065.03zm3.898-.308c.032-.003.029-.04.022-.06h-.035a.034.034 0 0 0-.012.035c.006.01.002.034.025.025zm-5.002-.22c.009-.02 0-.041-.01-.057-.016-.021-.035.004-.056 0-.018.006-.026.03-.021.044.016.03.072.073.087.013zm4.929-.062a.044.044 0 0 0 .021-.03c-.002-.025-.026-.033-.047-.034a.051.051 0 0 0-.012.043c.003.018.022.02.038.021zm-6.048-.273c.055.004.1-.032.149-.055a.043.043 0 0 0-.04.012c-.035.01-.077.02-.109-.008-.016-.084-.104-.02-.13-.038l.019.016c.036-.014.067.006.09.03.015.012.009.037.021.043zm6.221-.042c.009-.009-.001-.02-.005-.03-.013.005-.024-.012-.03.004-.01.014.02.052.035.026zm-.151-.095c-.026-.013-.033-.06-.07-.052v.013c-.028.018-.017.052-.025.078.038.031.068-.023.095-.039zm.33-.179c.01-.025.052.04.064.024.02-.005.03.025.047.012.027-.039-.026-.118-.043-.129a.296.296 0 0 0-.067.093zm.452-.105c.07-.014.062-.09.074-.143l-.01-.008c-.04-.02-.081.012-.111.043.005.04-.01.061-.005.095.012.018.037.002.052.013zm-6.11-.239c.017-.006.027-.027.017-.043a.068.068 0 0 0-.03-.031c-.025-.003-.06-.014-.078.01-.021.049.044.085.09.064zm6.709-.45c-.007-.01-.035-.075-.049-.074-.024.01-.043.095-.052.116.038.026.15.045.1-.043zm.97-.403c-.014-.018-.037-.015-.056-.022l-.005.018c.009.023.057.035.062.004zm.19-.05c.094-.008.057-.09.05-.073-.01-.024-.04-.015-.062-.018-.022.01-.027.039-.03.062a.115.115 0 0 0 .043.03zm.142-.098c.03.008.042-.03.07-.03a.071.071 0 0 0-.014-.07c-.019-.013-.035.009-.051.013a.128.128 0 0 0-.035.087c.003.013.024.013.03 0zm-1.147-.592c.023.012.02-.016.038-.027-.013-.013-.016-.036-.021-.047-.011.009-.03 0-.039.012 0 .023-.015.024.022.062zm1.643-.094-.048-.076c-.014.007-.053.067-.049.089.065.058.083 0 .097-.013zm-4.709-.293c.009-.008.025-.021.022-.038-.007-.006-.013-.017-.025-.013-.032-.011-.023.025-.032.04.01.01.022.014.035.011z" fill="#D5664C"/><path d="M27.748 16.746c-.042-.026-.083.013-.126 0-.058.021-.058.083-.073.13.02.014.056.01.065-.014.038.02.062-.016.087-.038.026-.004.043-.025.055-.043-.006-.007-.012-.015-.021-.018l.013-.017z" fill="#DE765A"/><path d="M26.839 17.008c-.042-.026-.083.013-.125 0-.06.021-.06.083-.074.13.02.014.056.01.065-.014.038.02.062-.016.087-.038.026-.004.044-.025.055-.043a.05.05 0 0 0-.021-.018l.013-.017zm-.619-.888c-.041-.027-.082.012-.124 0-.06.021-.06.082-.074.13.02.014.055.01.065-.014.038.02.062-.017.087-.038.026-.004.043-.025.055-.043a.052.052 0 0 0-.021-.018l.013-.017zm.416.56c-.042-.026-.083.014-.125 0-.06.022-.06.083-.074.13.02.015.055.01.065-.013.037.02.062-.017.087-.038.026-.004.043-.026.055-.044a.05.05 0 0 0-.021-.017l.013-.018z" fill="#C7431F"/><path d="M21 23.228c-.024-.06-.047-.139.005-.192.025-.001.049-.016.073-.004.051.027-.007.109.061.121.08.033.21.04.207.161-.005.043-.052.059-.086.069-.105-.006-.215-.058-.26-.155zm.433-.317c.116-.06.048-.196.091-.295.01-.038.05-.037.079-.048.073-.034.056-.113.051-.182.011-.035.027-.082.07-.094.053-.028.053-.096.099-.117.014-.024.056-.041.091-.048.05-.047.124-.092.113-.168-.002-.103-.097-.148-.115-.239l-.002-.004-.004-.004c-.02-.043-.036-.096-.005-.14a.268.268 0 0 0 .04-.133c-.02-.035-.066-.041-.1-.04-.053.026-.042.082-.044.13l-.064.087c-.01.06.007.12.038.17a.061.061 0 0 1-.025.073c-.012-.002-.027.003-.035-.005-.042-.03.007-.064-.009-.103-.015-.028-.053-.038-.083-.027-.024.037-.07.03-.095.057-.072.095.028.182.057.268a.202.202 0 0 1-.113.121c-.111.064-.046.221-.169.274-.053-.017-.118-.011-.16.026-.034.029-.038.071-.035.117.011.043.042.07.078.1-.025.03-.077.021-.096.068-.048.077-.004.174.031.238.114.166.205-.061.316-.082zm-.169-.156c-.007-.035-.037-.06-.07-.074.021.028.109-.04.13.027 0 .032-.008.068-.038.087-.02-.01.016-.067-.022-.04zm8.217-.935c.062.024.114-.022.16-.057.052.013.117.002.148-.048.053-.068-.054-.065-.073-.112.032-.021.058-.028.086-.061a.14.14 0 0 0 .012-.074l-.043-.051c-.102-.02-.104.034-.205.035-.09 0-.109-.106-.134-.173-.042-.158.05-.347-.031-.485-.047-.037-.098-.038-.152-.06-.12-.057.015-.181-.047-.26-.025-.01-.051 0-.073.009-.043-.022-.006-.077-.035-.105-.013-.026-.04-.038-.07-.038-.028-.012-.03-.044-.046-.065a.205.205 0 0 0-.084-.222c-.04-.057.037-.089.035-.142-.004-.025-.004-.056-.03-.07-.073 0-.061 0-.073.03-.024.04-.006.082-.04.117-.008.005-.02.015-.03.005-.035-.013-.03-.082-.03-.082a.153.153 0 0 0 .013-.148c-.033-.029-.078-.018-.118-.008-.021-.024-.041-.05-.038-.082.048-.035.019-.101.008-.143-.024-.028-.049-.118-.088-.12-.079-.028-.075.015-.1-.047.009-.058-.072-.05-.073-.1-.039-.036-.02-.086-.018-.134-.02-.015-.014-.042-.026-.06.008-.043.063-.043.09-.053-.024.03-.022.07-.035.105.008.044 0 .1.049.117.086.055.081-.081.146-.065-.019.025-.02.058-.03.086.008.024.024.05.057.04.02-.014.055-.025.052-.056.028-.046-.038-.069.021-.1.023-.03.043-.048.062-.078a.079.079 0 0 0-.018-.078c-.071-.011-.108-.079-.174-.104-.04.007-.046.053-.06.082-.018.006-.038.025-.056.018.026-.054-.052-.1 0-.148.012-.046-.018-.072-.039-.104-.043-.018-.09.012-.126.04-.045.044-.005.113-.014.164-.012.069-.09.025-.111.082.01.052-.041.077-.035.126-.015.016.01.052-.022.057a.205.205 0 0 0 .078.163c-.021.096.056.076-.051.108-.044 0-.1.022-.13-.035.006-.096-.04-.16-.06-.247l-.156-.017c-.155-.183-.234-.21-.426-.325-.068-.039-.06-.118-.09-.177-.017-.083-.08-.057-.174-.098-.028-.006-.049.007-.07.021-.041.03-.063.118-.125.096-.11-.115.082-.156.121-.239.005-.036.016-.085-.027-.108-.063-.042-.108.035-.177.021a.14.14 0 0 1-.04-.056c-.009-.031-.004-.071.027-.086.012-.055.056-.133-.005-.178.005-.03-.046-.026-.038-.06-.075-.13.131-.136.135-.244.001-.033-.02-.06-.048-.077s-.05.011-.078.009c-.042.082-.102-.012-.16.021-.098.014-.124.153-.23.134-.031-.006-.038-.053-.069-.052-.077-.08-.157.042-.243.005a.24.24 0 0 0-.087-.117c-.04.017-.098.029-.108.082-.02.048-.064.035-.103.035a.143.143 0 0 0-.096.087c-.046.042.003.109-.044.151-.007-.001-.017.003-.022-.004-.104-.079.035-.178.005-.269-.013-.023-.036-.04-.065-.035-.025.004-.046.03-.056.052-.006.022-.025.054 0 .075.001.02.021.048-.004.065.009.017-.013.032-.026.046-.016.005-.027-.006-.039-.012-.034-.024-.018-.065-.021-.1.044-.092.065-.21 0-.299v-.108c-.003-.096.098-.092.133-.173.01-.038.024-.084-.017-.112-.034-.044-.107-.033-.156-.022-.056 0-.133.075-.195.009-.1-.09.001-.234-.087-.325-.012-.036-.034-.078.005-.108a.493.493 0 0 0 .203-.169c.01-.055.093-.07.087-.133a.468.468 0 0 0-.052-.174c-.01-.043-.006-.094.03-.12.029.004.064-.017.087.016.05.03.06-.033.091-.043.002-.057.045-.097.074-.142.06-.014.073.063.116.086-.003.044.029.074.017.12-.003.004-.006.012-.012.01.006.02.006.03.004.052.024.05.08.08.134.082.033 0 .065-.012.082-.039.014-.082.098-.14.078-.229a.243.243 0 0 1-.026-.246c-.018-.03-.022-.072-.055-.092-.035-.014-.086-.025-.118-.008-.1-.008-.164.088-.212.16-.029.02-.041-.028-.065-.035-.043-.01-.082.015-.116.04l-.03-.03c-.021-.038-.002-.08.011-.113.058.015-.015.037-.003.065.007.021.03.025.046.03.019-.018.02-.041.027-.06-.002-.024.004-.063-.03-.079.006-.048.025-.111 0-.151-.136-.054.04-.15-.021-.243-.025-.036-.072-.05-.106-.082-.002-.035.04-.05.044-.082.023-.044-.046-.095.01-.126l.003.005c.04-.019.043.045.087.03.008-.005.025-.007.021-.022.041-.017.043-.063.052-.1.015-.033.053-.037.078-.068a.129.129 0 0 0 .078-.035.119.119 0 0 0 .014-.07c-.017-.024-.04-.048-.074-.038-.043-.008-.026.049-.065.052-.024-.015-.018-.04-.043-.044-.047-.02-.06-.069-.065-.113-.017-.039.009-.071.03-.099.02-.042.035-.073.013-.117.012-.011-.01-.019-.01-.03a.225.225 0 0 1-.051-.234c-.009-.025-.028-.037-.052-.043-.052.025-.055.079-.082.121-.015.094-.121.028-.151.099-.018.037.01.066.025.096.068.096-.061.106-.095.168-.056.07-.04.165-.03.252-.014.022-.027.05-.062.038-.067-.082.015-.17.031-.25.042-.053.008-.118.022-.174-.013-.08.11-.117.087-.207-.078-.082.052-.131.038-.213a.068.068 0 0 0-.048-.043c-.136.132-.148.325-.216.49-.063.1-.135.211-.087.341a.264.264 0 0 0-.052.274c-.009.052-.064.072-.095.108-.095.083-.038.228-.143.308-.055.055-.143-.009-.199.043-.043.076-.106.15-.086.247-.05.059-.076.126-.113.19-.051.018-.09.063-.135.095-.016.09-.118.076-.164.13-.036.054.025.101.052.142-.01.02-.031.03-.048.043-.112.009-.227-.056-.32.022-.055.062-.071.17-.16.186-.005-.005-.013-.01-.013-.017-.008-.007-.022-.007-.027.004-.012-.009-.015-.02-.025-.03-.006 0-.014-.004-.018.005l-.009-.009c.02-.016.03-.035.044-.053a.088.088 0 0 0-.005-.065c-.017-.042-.065-.025-.099-.038-.078.005-.076.107-.143.121-.046-.048-.083-.107-.156-.095-.045.018-.102.043-.117.095.002.074-.047.129-.095.177-.048.007-.084.042-.126.065-.015.02-.035 0-.047-.012 0-.042.055-.05.073-.083.02-.022.001-.048-.017-.065-.06-.036-.11.026-.161.052-.024.028-.047-.002-.069-.017-.062-.083-.153.01-.23.013a.514.514 0 0 0-.181-.16.186.186 0 0 0-.135.022c-.1.05-.05-.08-.112-.1-.031 0-.067-.019-.091 0-.016.018-.03.039-.03.065.021.055.04.121.025.181.053.062.106.131.183.152.13-.029.188.09.263.168.107-.012.178.095.29.043.087-.043.207-.027.291-.012.042.017.06.066.082.103a.194.194 0 0 0 .087.027c.047-.012.1-.024.121-.065.003-.043.029-.097.073-.117a.05.05 0 0 1 .022.035c-.03.05-.091.093-.073.16.012.012.008.043.035.039.045.047.088.096.095.16.019.048.07.056.108.078.091.031.212.038.29-.03.034-.01.072-.022.1.009.025.08.107.131.173.181.027.041.016.098.044.139.133.11-.034.285.125.38.063.085-.026.233.095.277.036.002.07-.038.1-.011.01.093-.116.108-.182.142-.118.056-.147.186-.143.303.02.084.119.07.181.096.044.024.082.072.14.047.047-.03.068-.093.077-.143.013-.023.042-.047.075-.044.104.065-.037.142.003.221a.095.095 0 0 0 .105.049c.157.098-.02.244-.035.363-.006.031-.012.075.022.095.084.024.123-.06.173-.108.063-.025.101.047.165.022.065-.034.062-.111.086-.169.023-.08.116-.053.164-.1.067-.076.137-.17.248-.169.059.034.12.09.198.074.101-.005.158-.128.273-.083.06-.013.097-.09.144-.125.083.027.134-.076.181-.122.017-.01.043.004.057-.013.037-.025.055.026.082.04.032.038.084.01.126.013.012-.018.03-.042.052-.048.022.012.048.01.065.035.042.113.166.073.268.082.06.037.045.104.078.151.004 0 .011.002.014-.004l.03.026c.105-.016.079.11.155.143.075.02.108-.055.183-.035.088.065-.071.07-.053.144.012.024.01.055.035.073.062.031.092-.116.148-.035.012.07.089.11.142.143.14.041.065.189.091.287.039.087.11-.003.178.025.11.042.023.17.073.248.056.075.157.035.234.052.019.005.021.026.027.043a.14.14 0 0 0 .1.057c.098 0 .067-.111.13-.157.008.017.027.013.038.027.006.033-.038.047-.052.076-.007.038-.042.085-.005.118.058.033.082-.04.13-.04.058.049-.002.137.035.196.023.068.096.05.138.091.096.037.048.15.109.208.028.032.077.013.108.004.02.012 0 .028 0 .043-.015.053.007.101.04.138.021.018.054.01.073-.008.033-.04-.03-.093.022-.121.013.005.034.008.035.021.02.013-.004.035.003.048-.034.134.15.13.143.255.043.058-.04.097-.03.157.047.07.13.124.182.19a.087.087 0 0 1 .035.07c.023.076.11.05.155.1.02.017.02.048.018.068a.154.154 0 0 1-.06.053.1.1 0 0 0-.013.047c.008.078.099.034.147.052.018.005.036.024.034.043.016.022.032.048.062.051zm-7.488-.118a.197.197 0 0 0 .051-.052.076.076 0 0 0-.013-.09c-.032-.029-.06.01-.078.034-.016.023-.039.054-.017.083.01.021.038.03.057.025zm7.236-.082a.095.095 0 0 0 .014-.082c-.007-.013-.026-.031-.043-.018-.04.018-.057.05-.047.095.022.022.051.015.076.005zm.462-.28a.146.146 0 0 0 .022-.083c-.03-.045.014-.093.012-.143-.005-.053-.018-.11-.065-.138-.054-.008-.084.065-.117.104-.08.094.03.185.044.276.03.034.08.015.104-.016zm-7.153-.028a.17.17 0 0 0 .104-.021c.075-.067.192-.034.26-.117a.09.09 0 0 0 .022-.09c-.014-.044-.06-.06-.092-.083-.024-.018-.074-.013-.073-.057-.054-.063-.062-.152-.057-.234.022-.013-.003-.027 0-.043a.088.088 0 0 0-.073-.051c-.027.01-.037.032-.065.043-.042.034-.076-.005-.121-.005-.02-.029-.058-.034-.096-.03-.005.015-.019.006-.03.009-.104.017-.084.141-.116.216-.08.04-.156.108-.162.203.015.063.023.127.083.17.046.046.13.04.187.022.084-.114.164.037.229.068zm-.515-.108c.044-.038-.008-.09-.014-.134-.02-.026-.037.01-.06.004-.01.027-.018.057-.008.087.021.028.055.03.082.043zm1.19-.358c.041.013.087-.006.117-.018.041-.032.113.011.144-.044a.064.064 0 0 0 .026-.065c-.032-.058.012-.15-.04-.199-.035-.03-.078 0-.112.01-.02 0-.05.022-.061-.006-.082-.014-.046-.125-.133-.138-.045-.028-.058-.076-.057-.125.042-.055.043-.13.035-.2.015-.054.098-.103.043-.165-.025-.015-.047-.01-.075-.004-.036.012-.058.097-.103.052-.016-.04.025-.07.048-.1a.345.345 0 0 0 .177-.238c0-.014-.02-.031 0-.043.042.018.068-.026.105-.035.062-.024.102.05.168.018.088-.04.073-.138.13-.2a.18.18 0 0 1 .082.014c.05.002.108-.011.14-.062a.224.224 0 0 0-.027-.182c-.03-.046.004-.086-.005-.133-.026-.05-.021-.148-.108-.14-.053-.017-.08.028-.117.062a.172.172 0 0 0 0 .078c-.008.061-.042.132-.108.151-.05.063-.09.13-.134.195-.07.045-.15.093-.164.182-.018.01-.04.018-.062.008-.075.049-.108.143-.185.2-.034.043-.028.093-.021.147-.01.059-.074.07-.109.104-.03.042-.053.096-.031.147.01.063.09.117.043.182-.05.069-.12 0-.181 0a.11.11 0 0 0-.087.052.12.12 0 0 0 0 .13c.03.019.076.037.113.018.08-.057.184-.042.273-.014.058.028.06.096.099.139.073.029.13.106.148.182l.03.04zm-.156-.105c.011-.023 0-.047-.012-.065-.018-.004-.035-.032-.053-.009 0 .022.001.042.01.06.02.003.035.04.055.014zm-.12-.06c.055-.036.04-.085.03-.139-.029-.059-.09-.033-.139-.04-.023.017-.05.035-.052.065.01.024.036.05.065.049.043.005.053.07.096.065zm6.136-.358c.025-.008.02-.035.021-.057-.006-.038-.034-.073-.078-.051-.016.01-.004.03-.008.046.008.03.029.062.065.062zm-.749-.375c-.018-.046-.087-.078-.056-.139.009-.04.035-.074.052-.112.02-.004.023.016.04.017-.006.09-.015.17.03.252.01.03-.017.057-.009.078l-.013.008c.006.003.005.009.005.014-.033-.01.001.02-.027.021-.059-.026-.014-.097-.022-.14zm.4-.346c.03-.014.036-.044.038-.073-.006-.028-.038-.043-.065-.031-.01.02-.03.036-.03.061.009.02.03.049.057.043zm-5.09-.066c.047-.019.06-.068.065-.112-.02-.03-.046-.015-.074-.013-.031.025-.012.078-.017.117.005.01.016.008.026.008zm1.13-.12c.043.014.075-.022.104-.053.035-.001.07-.001.095.018.038.005.057-.03.083-.052.016-.055.072-.094.069-.156-.047-.105-.101.036-.169-.005-.043.011-.074-.035-.121-.03a.066.066 0 0 0-.035.074c.04.056-.048.093-.043.151.02.016.01.033.018.053zm3.186-.409c.04.015.043-.043.065-.065.013-.032-.004-.062-.017-.086-.039-.022-.067.016-.091.034-.027.008-.034-.03-.057-.03-.054.056-.059-.06-.117-.04-.021.035-.075.016-.081.061.037.025.06.069.095.095.074.042.049-.07.09-.073.01.015.036.024.026.048.016.032.052.062.087.056zm-.312-.2c.076.035.099-.038.147-.073.013-.044-.017-.082-.025-.121-.058-.044.001-.093-.019-.147-.004-.035-.044-.046-.068-.062-.01-.009-.004-.025.003-.035a.088.088 0 0 0-.025-.086.143.143 0 0 0-.091-.025c-.039-.008-.027-.063-.07-.07-.08-.035-.107.062-.173.078-.069.012-.11-.067-.182-.026a.033.033 0 0 0-.013.03c-.01.016.003.044.005.066.095.054.048.138.048.225.012.026.024.053.055.06.053.007.078-.048.118-.074.014 0 .023.017.034.027-.001.067-.094.114-.047.185.023.012.05.024.078.014.075-.066.152.018.225.034zm-3.368-.474c-.024-.061.047-.12.022-.173.075.058.145-.063.208.021.013.026.03.054.018.087-.03.076-.116.091-.183.112-.031-.002-.066-.007-.065-.047zm2.036-.312c.006-.031-.015-.087.035-.083l.013-.016c.047.008.12-.044.138.03.016.033-.008.061-.016.09-.04.058-.09.018-.139.013-.006-.013-.02-.023-.031-.034zm.043-.282a.1.1 0 0 0 .043-.087c-.001-.036-.041-.048-.068-.06-.03.012.002.029.003.043.016.037-.025.052-.03.082.003.028.033.02.052.022zm-.883-.074c.023-.025.064-.022.073-.06.002-.082-.082-.105-.116-.17-.015.008-.027.021-.022.04-.029.037.001.089-.009.13.026.015.037.06.074.06zm1.053-.03c.058-.02.08-.075.112-.122.007-.025.027-.062-.009-.08-.013-.048.049-.08.078-.106-.007-.023.015-.05.005-.073-.013-.037-.048-.064-.087-.052-.033.033-.068.077-.048.122-.026.049-.086.074-.1.13.023.055 0 .1 0 .16.025-.006.026.026.049.021zm.212-.208c.019-.023.007-.058-.022-.068-.031 0-.031.03-.052.046.01.023.05.052.074.022zm-3.457-.241.01-.075c.044-.02.041-.071.086-.09.036-.05.04-.153.13-.143.034 0 .045.031.073.048.05.03.134.037.143.112-.002.075-.086.083-.139.104-.076.015-.17.015-.229.087-.025-.015-.062-.01-.074-.043zm-.082-.4c-.001-.066-.007-.138.057-.173.066.049.003.126.003.187-.015.022-.053.013-.06-.014zm1.178-.068c-.013-.045.02-.076.048-.095.058-.031.129-.04.169-.105 0-.032.026-.064.005-.095-.014-.016-.03-.043-.057-.038-.027-.02-.058 0-.087 0-.014.005-.026.029-.043.017-.029-.029-.018-.087-.009-.121.01-.035.058-.045.06-.079a.17.17 0 0 0 .105-.081c.048-.124-.096-.232-.01-.355.02.003.03-.019.044-.03.175-.014.144.191.191.29v.009c.05.044.093.107.16.112.064.046.078.129.082.207.001.072-.05.13-.108.17-.036.009-.065.034-.108.03-.044-.06-.086-.035-.148-.032-.1.053-.144.153-.242.218-.022.01-.05.01-.052-.022zm-2.932-.091c.034.008.052-.028.07-.047-.015-.037.012-.102-.032-.121-.05-.02-.086.015-.125.038-.012.014.004.026.005.04.029.025.056.063.082.09zm3.162-.217c-.027-.1.055-.176.1-.259.026-.012.049-.048.081-.035.027.03.023.06.022.096-.002.043-.058.033-.057.077.004.036.015.086-.012.113-.018.015-.027.036-.053.039-.027-.01-.068.004-.081-.03zm3.245-.161c.029-.042.091-.073.073-.132.018-.009.029-.04.052-.024.022-.03.065-.018.078-.054-.001-.023.004-.044-.003-.07-.011-.045-.064-.026-.1-.031-.023-.02-.046.028-.061-.01-.01-.022 0-.045.009-.064-.013-.031.027-.052.043-.078.033.025-.026.042 0 .07.02.008.045.004.06-.011.01-.013.02-.03.014-.043-.022-.016-.039-.045-.07-.035.006-.027.037-.049.061-.066.137.046.078-.106.174-.14.074-.076.217.023.281-.071.012-.042-.036-.073-.043-.113.054-.04.146-.01.177-.085-.008-.074.07-.136.126-.18.045-.025.054.033.09.039.006.01.01.028-.004.036-.046.004-.042-.046-.09-.04-.01.036-.054.046-.083.063.005.022.005.046.017.065a.083.083 0 0 0 .06-.03c.02.007.046-.015.065.003.069.014.075-.08.13-.093.04.02.07-.028.114-.023.041.012.06.056.094.078.028.01.056-.002.079-.012.044-.013.022.04.038.058.032.018.058.011.092.024a.145.145 0 0 0 .078-.035c.018-.035.037-.07.017-.106.008-.024-.003-.063.026-.073l-.005-.005c.031-.06.128-.063.139-.136.014-.005.027-.026.043-.015.01.02-.017.026-.025.039-.006.019-.01.049.003.066.017.026.046.024.075.024a.63.63 0 0 0 .177-.075c.03-.04.015-.09.013-.136.002-.018.023-.029.043-.023.028.006.036.033.057.05.064-.033.07.067.134.03.037-.018.103-.03.095-.085-.009-.017-.03-.027-.048-.034-.038.008-.054.053-.091.054-.004-.01.009-.013.005-.023.024-.05.092-.049.143-.048l.021.01c.04-.01.086-.024.104-.064.047-.01.001-.07.021-.104a.175.175 0 0 0 .057-.176c-.037-.053-.041-.134-.13-.14-.017.007-.028.028-.052.023-.027.001-.031.025-.039.043-.011.015-.031.025-.047.019-.023-.042.018-.081.043-.117 0-.036.006-.084-.04-.108-.03-.01-.043-.013-.107-.005-.048.023-.112.011-.164.032-.11.106-.262.117-.408.144-.038.01-.065.037-.065.074-.04.107-.159.023-.233.082a.621.621 0 0 0-.16.156c-.012.044-.068.046-.097.082-.024-.033-.068-.022-.108-.024-.04.02-.067.059-.095.09-.048.01-.055.072-.103.07-.05.07-.088-.031-.139-.02-.058.03-.123.042-.173.086-.017-.004-.034-.005-.048-.016-.11.005-.212.075-.32.036-.086.002-.17-.047-.248-.012a.336.336 0 0 0-.182.05c-.039.007-.078.037-.117.02-.121.012-.245.042-.372.02-.087-.035-.172-.009-.242.039-.03.02-.084-.025-.105.023-.022.02-.006.072-.052.067-.009-.011-.019-.02-.017-.036.01-.031.038-.07.009-.1-.023-.062-.095-.025-.134-.025-.043-.025 0-.066-.026-.097-.012-.034-.05-.04-.083-.047-.034.02-.058.05-.047.09a.2.2 0 0 0 .125.081c.036.028.02.08.018.117.033.025-.01.063.034.083.004.033.036.036.048.066l.026.004c.008.005.01.01.009.02a.084.084 0 0 0 .065.02c.036-.016.072-.03.086-.068.014-.001.015-.013.014-.023.013-.046.073-.042.116-.05.02.016.038.033.044.053a.08.08 0 0 1-.048.044c-.144.022-.217.143-.312.238-.071.01-.038-.065-.078-.09-.025-.008-.053.01-.074.027-.017-.01-.049.008-.06-.02-.008-.055.013-.101.017-.15-.006-.035.001-.089-.043-.11a.092.092 0 0 0-.082.05c-.025.06-.118.048-.13.109-.03.023-.043.067-.087.067-.032-.028-.093-.021-.104-.07-.063.01-.035-.062-.087-.07-.026-.007-.063-.007-.082.014-.026.035-.007.067 0 .102-.025.023-.065.013-.086.043-.03.039-.064.066-.092.098.006.039-.037.059-.035.098.01.023.039.037.065.039a.52.52 0 0 1 .226-.11.545.545 0 0 1 .147.074c.093.038.111.132.173.194.016.033.071.044.065.078.04.046-.081.056-.052.117.023.04.064.005.1.016.04-.022.1-.01.134.003.033-.004.05.025.083.02.035-.002.053-.04.069-.062.025-.044.03-.09-.004-.133.012-.068.057-.124.095-.183.006-.029.004-.061.022-.085a.3.3 0 0 1 .273-.129l.055.074c.017.03.062.025.092.02.044-.045.096-.084.1-.148.032-.042.078-.071.138-.059.12.023.026.127.048.187.03.04.06.096.12.102.023-.008.051-.007.07-.024.028-.03.023-.072.005-.105.014-.023.045-.004.065-.016.01.011.018.027.009.04-.02.042.046.057.068.085.028.066-.082.062-.087.121-.016.048.022.077.062.105-.007.01-.004.023-.005.034-.013.019-.034.023-.057.02-.05.033.028.068-.02.102-.008.028-.007.066.02.08.04.024.044-.02.07-.03.004-.057.071-.05.114-.066a.175.175 0 0 1 .034.055c.065.005.01.047.026.08-.016.02-.037.024-.052.044-.004.027-.018.06 0 .085.022.013.044.028.073.027zm-1.114-.526a.151.151 0 0 0-.014-.107c-.02-.006-.031-.05-.055-.027-.028.04-.102.08-.061.143.021.07.1.044.13-.009zm.998-.358c-.029-.002-.047-.027-.073-.03-.02-.059.023-.138-.022-.19.02-.055-.086-.013-.053-.078.016-.078.092.08.148-.043l.104-.062c.032.01.094.027.1.079-.026.06-.12.093-.096.165.008.021.03.023.047.03.053.005.036-.056.075-.074a.129.129 0 0 1 .06-.04c.028.011.004.034 0 .049-.11.044-.056.167-.125.23-.055-.013-.131.028-.165-.036zm1.684-.816c.002-.032.044-.03.068-.038.052-.03.075-.111.143-.062.008.002.01-.006.009-.012v-.013c.084-.012.137-.095.195-.151.046-.046.072-.117.148-.109.04.035.057.092.046.147-.026.04-.052.102-.108.113-.016.039-.062.01-.078.052-.05.008-.091.04-.147.039-.08.012-.167.006-.23.056-.015-.005-.058.016-.046-.022zm-4.012-.514c.04-.01.03-.062.026-.092l-.043-.004c-.021.02-.037.051-.031.077.007.02.03.02.048.018zm4.9-.036c.036.021.06-.017.085-.038.027-.004.044-.026.056-.043a.051.051 0 0 0-.022-.019c.005-.003.007-.01.013-.008v-.008c-.042-.027-.083.013-.124 0-.06.021-.06.082-.074.13.02.014.055.01.065-.014zm-5.038-.091c.013-.077.045-.15.038-.229.018-.04.071-.062.079-.104.043-.084-.064-.103-.066-.174a.348.348 0 0 1 .044-.065l-.005-.003c.005-.004.007-.011.013-.01l-.003-.017c.033-.045.074-.113.052-.168-.064-.01-.108.065-.139.112-.017.059-.047.124-.108.152a.082.082 0 0 0-.01.083.22.22 0 0 0 0 .203c.056.063-.037.12 0 .195.008.045.08.072.105.025z" fill="#C7431F"/><path d="M25.936 17.922c-.05-.032-.1.016-.15 0-.071.026-.071.1-.088.156.023.017.066.012.078-.016.044.024.073-.02.104-.047.031-.004.051-.03.066-.051a.062.062 0 0 0-.026-.022l.016-.02z" fill="#D5664C"/></svg>