<svg width="36" height="36" fill="none" xmlns="http://www.w3.org/2000/svg"><path d="M18 0c2.837 0 5.52.656 7.907 1.825C31.884 4.753 36 10.895 36 18c0 9.942-8.058 18-18 18-9.94 0-18-8.057-18-18C0 8.06 8.06 0 18 0z" fill="#F2F4F7"/><path d="M12.819 18.43c0 2.448-1.974 4.432-4.41 4.432C5.974 22.862 4 20.878 4 18.43S5.974 14 8.41 14c2.435 0 4.409 1.984 4.409 4.43z" fill="#009354"/><path d="M7.96 15.58H5.83v.575s-.001.095.07.095h.532c.374 0 .535.33.535.459v.743H9.12v-.744c0-.128.16-.457.535-.457h.534c.07 0 .068-.096.068-.096v-.576H7.96M7.402 17.8h-.434v1.052h.91v-.23h-.496V17.8m1.273 0h.467v.23h-.468v.184h.468v.23h-.467v.177h.467v.23h-.881v-1.05h.414m-.695 3.447h2.987c.043-.002.045-.02.071-.065l1.1-1.982s-.539-.31-.604-.344c-.004-.002-.01-.008-.024.008-.664 1.343-1.27 1.484-1.6 1.53-.694 0-.77-.357-.77-.584v-.647H6.968v.727c0 .214-.278.484-.588.484h-.506c-.047 0-.043.026-.043.026v.847h2.13" fill="#fff"/><path d="M14.515 16.51h.42v2.57h1.225v.372h-1.645v-2.943zm3.637 2.942h-.382v-.342h-.008c-.118.245-.403.392-.701.392-.554 0-.801-.345-.801-.923v-1.277h.394v1.113c0 .501.109.746.453.767.449 0 .65-.363.65-.885v-.995h.395v2.15zm.287-2.15h.382v.341h.008c.118-.245.403-.392.7-.392.555 0 .802.346.802.923v1.277h-.394V18.34c0-.502-.11-.747-.453-.768-.45 0-.65.363-.65.886v.994h-.395v-2.15zm3.758 1.846h-.008c-.105.16-.349.354-.73.354-.646 0-.92-.578-.92-1.164 0-.577.303-1.087.924-1.087.373 0 .587.147.709.345h.008V16.29h.395v3.161h-.378v-.303zm-.646.034c.445 0 .63-.443.63-.801 0-.401-.206-.81-.634-.81-.428 0-.596.405-.588.797-.008.337.168.814.592.814zm1.365-2.892h.395v1.306h.008c.122-.198.336-.345.709-.345.62 0 .923.51.923 1.087 0 .59-.273 1.164-.919 1.164-.382 0-.625-.194-.73-.354h-.008v.303h-.378V16.29zm1.028 1.281c-.428 0-.633.409-.633.81 0 .358.184.8.629.8.423 0 .6-.476.591-.813.009-.388-.159-.797-.587-.797zm2.984 1.792c-.151.055-.323.14-.676.14-.759 0-1.107-.465-1.107-1.164 0-.637.399-1.088 1.003-1.088.713 0 .944.523.944 1.214h-1.528c0 .426.332.717.705.717.26 0 .563-.135.659-.215v.396zm-.256-1.193c0-.329-.193-.599-.533-.599-.386 0-.545.32-.575.599h1.108zm.628-.868h.37v.333h.008c.105-.224.331-.384.558-.384.117 0 .176.013.26.03v.354a.581.581 0 0 0-.218-.038c-.353 0-.583.337-.583.877v.977H27.3v-2.15zm3.131 2.057c0 .653-.336 1.028-1.103 1.028-.227 0-.424-.03-.768-.147l.042-.367c.302.14.482.194.772.194.415 0 .663-.282.663-.738v-.21h-.009c-.168.223-.444.332-.717.332-.613 0-.915-.501-.915-1.058 0-.552.31-1.142.957-1.142.377 0 .587.14.705.37h.008v-.32h.365v2.058zm-.394-.957c0-.447-.206-.83-.625-.83-.4 0-.596.434-.596.8 0 .405.226.76.596.76.369 0 .625-.33.625-.73zm.65.628c.155.101.377.152.49.152.181 0 .404-.076.404-.308 0-.392-.928-.358-.928-.961 0-.447.332-.662.756-.662.184 0 .335.038.49.084l-.033.346a1.148 1.148 0 0 0-.415-.11c-.202 0-.378.085-.378.262 0 .438.927.312.927.999 0 .46-.365.67-.747.67-.201 0-.407-.021-.587-.118l.02-.354z" fill="#1C1B19"/></svg>