<svg height="36" viewBox="0 0 36 36" width="36" xmlns="http://www.w3.org/2000/svg"><mask id="a" fill="#fff"><path d="M0 0h1.34v1.983H0z" fill-rule="evenodd"/></mask><mask id="b" fill="#fff"><path d="M0 0h1.406v1.96H0z" fill-rule="evenodd"/></mask><g fill="none" fill-rule="evenodd"><path d="M18 0c2.837 0 5.52.656 7.907 1.825C31.884 4.753 36 10.895 36 18c0 9.942-8.058 18-18 18-9.94 0-18-8.057-18-18C0 8.06 8.06 0 18 0z" fill="#f2f4f7" fill-rule="nonzero"/><path d="m28.728 14.163 1.704.852L32 14.239l-1.699-.801z" fill="#fff3a9"/><path d="m28.466 13.56-1.617.595 1.88.008 1.572-.724z" fill="#fdeb79"/><path d="m25.702 12.824 1.147 1.33 1.617-.593-1.137-1.112z" fill="#fee449"/><path d="m25.702 12.177-1.562.268 1.562.379 1.627-.375z" fill="#fedc04"/><path d="m28.728 14.163 1.704.852-1.237 1.544-1.739-.892z" fill="#ffe5b4"/><path d="m26.848 14.154 1.88.01-1.272 1.503-1.762-.167z" fill="#ffd98d"/><path d="m25.702 12.823 1.146 1.331-1.154 1.346-1.206-1.339z" fill="#fecc67"/><path d="m22.882 13.643 1.606.518 1.214-1.337-1.563-.38z" fill="#febf40"/><path d="m27.456 15.667 1.74.893-1.569.753-1.68-.976z" fill="#fcd4b3"/><path d="m24.144 16.064 1.802.273 1.51-.67-1.762-.167z" fill="#f9bf8b"/><path d="m24.488 14.161 1.206 1.34-1.55.563-1.295-1.336z" fill="#f9ab65"/><path d="m22.882 13.643 1.606.519-1.638.567-1.716-.587z" fill="#f7953f"/><path d="m25.946 16.337 1.682.977-.641 1.907-1.691-1.093z" fill="#fbc4b4"/><path d="m24.144 16.064 1.802.272-.65 1.791-1.894-.35z" fill="#f8a78e"/><path d="m22.85 14.729 1.294 1.336-.742 1.711-1.341-1.44z" fill="#f58468"/><path d="m21.135 14.142 1.714.587-.789 1.608-1.674-.626z" fill="#f16743"/><path d="M4 16.38v3.864h2.424v-.694H4.785v-3.17zm2.783.99h.757v1.77c0 .36.162.54.484.54.453 0 .72-.31.72-.893V17.37H9.5v2.873h-.757l-.115-.249a.971.971 0 0 1-.709.3 1.283 1.283 0 0 1-.787-.212c-.223-.158-.349-.48-.349-.942zm6.124 2.873h-.757v-1.77c0-.36-.164-.54-.484-.54-.452 0-.718.31-.718.891v1.415h-.757V17.37h.757l.114.25a.971.971 0 0 1 .71-.3c.28-.018.56.057.795.213.222.158.347.478.347.94zm2.548-.826a.887.887 0 0 0 .217-.608.897.897 0 0 0-.222-.61.741.741 0 0 0-.588-.249c-.502 0-.74.375-.74.859s.261.858.74.858a.716.716 0 0 0 .593-.25m.16-1.744V16.38h.755v3.863h-.756l-.076-.195a1.118 1.118 0 0 1-.73.245c-.463 0-.817-.142-1.068-.407a1.526 1.526 0 0 1-.375-1.077 1.478 1.478 0 0 1 .39-1.088 1.424 1.424 0 0 1 1.052-.402 1.025 1.025 0 0 1 .807.354m2.194 2.57h-.76v-2.688h.756zm3.378 0h-.756v-1.77c0-.36-.165-.54-.485-.54-.45 0-.718.31-.718.891v1.415h-.756V17.37h.756l.113.25a.96.96 0 0 1 .709-.3c.282-.018.56.057.795.213.224.158.348.478.348.94z" fill="#000"/><path d="M17.808 17.14h-.756v-.756h.756z" fill="#414142"/><g fill="#000"><path d="M5.299 23.14H4.017v-1.936H5.27v.206H4.247v.624h.86v.205h-.86v.698h1.052zm1.514.002h-.215v-.944c0-.142-.033-.327-.312-.327-.311 0-.491.196-.491.532v.739h-.221v-1.444h.217l.053.178a.535.535 0 0 1 .198-.151.55.55 0 0 1 .243-.051c.447 0 .524.267.524.518zm.512-.86h.926a.464.464 0 0 0-.463-.415.47.47 0 0 0-.463.415zm1.142.196H7.313a.468.468 0 0 0 .137.35.472.472 0 0 0 .348.141.517.517 0 0 0 .425-.208l.168.1a.697.697 0 0 1-.593.31.693.693 0 0 1-.281-.05.686.686 0 0 1-.419-.688c0-.39.215-.755.683-.755.467 0 .686.37.686.722zm1.114-.581a.196.196 0 0 0-.092-.023c-.36 0-.5.214-.5.565v.697h-.216v-1.438h.216l.047.158a.482.482 0 0 1 .424-.182.27.27 0 0 1 .122.024z"/><path d="M1.125.75c0-.312-.174-.554-.48-.554S.21.471.21.75c0 .28.142.532.435.532a.494.494 0 0 0 .351-.166.498.498 0 0 0 .129-.366zm.203.507c0 .26-.08.726-.667.726a.934.934 0 0 1-.635-.238l.141-.158a.701.701 0 0 0 .499.2c.35 0 .452-.266.452-.535a.558.558 0 0 1-.462.226C.279 1.478 0 1.175 0 .75 0 .272.336 0 .656 0a.584.584 0 0 1 .425.165l.044-.142h.215z" mask="url(#a)" transform="translate(9.656 21.674)"/><path d="M.797 1.444c-.207.497-.353.516-.633.516v-.198c.273 0 .33-.07.425-.329L0 0h.237l.459 1.163L1.172 0h.234z" mask="url(#b)" transform="translate(11.186 21.698)"/></g></g></svg>