<svg height="36" viewBox="0 0 36 36" width="36" xmlns="http://www.w3.org/2000/svg"><mask id="a" fill="#fff"><path d="M0 0h3.075v2.959H0z" fill-rule="evenodd"/></mask><mask id="b" fill="#fff"><path d="M.248 0h.504v1H.248z" fill-rule="evenodd"/></mask><mask id="c" fill="#fff"><path d="M.112 0h.776v1H.112z" fill-rule="evenodd"/></mask><mask id="d" fill="#fff"><path d="M.03 0h.94v1H.03z" fill-rule="evenodd"/></mask><mask id="e" fill="#fff"><path d="M.068 0h.864v1H.068z" fill-rule="evenodd"/></mask><g fill="none" fill-rule="evenodd"><path d="M18 0c2.837 0 5.52.656 7.907 1.825C31.884 4.753 36 10.895 36 18c0 9.942-8.058 18-18 18-9.94 0-18-8.057-18-18C0 8.06 8.06 0 18 0z" fill="#f2f4f7" fill-rule="nonzero"/><path d="m20.904 17.312-.499 1.509-.499-1.509h-.682l-.512 1.509-.498-1.509h-.854l.984 2.755h.723l.498-1.496.499 1.496h.722l.984-2.755zm7.77-.827h-.04v-.118h.052c.053 0 .066.026.066.052 0 .053-.039.066-.078.066zm.052.039c.065-.013.105-.039.105-.105 0-.065-.052-.118-.132-.118h-.13v.407h.078v-.17c.027 0 .039.013.052.039l.092.131h.092l-.079-.131a.226.226 0 0 1-.078-.053zm-.04.276c-.157 0-.275-.118-.275-.289 0-.17.118-.288.288-.288.158 0 .289.118.276.288-.013.171-.131.289-.289.289zm0-.643c-.197 0-.341.157-.354.354s.157.355.342.355c.196 0 .354-.158.354-.355s-.145-.354-.342-.354zm-.525 3.202c-.288 0-.328-.131-.328-.354v-1.024h.656v-.669h-.656v-.788h-.787v.788h-.407v.669h.407v1.077c0 .471.118 1.023.905 1.023.237 0 .433-.053.657-.118l-.092-.656c-.132.026-.237.052-.355.052zm-5.656-.998c.052-.236.17-.537.512-.537.341 0 .446.341.446.537zm.551-1.194c-.827 0-1.417.578-1.417 1.497 0 .853.512 1.417 1.431 1.417.406 0 .734-.118 1.076-.263l-.118-.656c-.263.118-.526.21-.841.21-.472 0-.669-.196-.695-.485h1.771s.027-.316.027-.381c0-.748-.407-1.339-1.234-1.339zm2.953 1.221c-.118-.039-.236-.078-.38-.118-.276-.079-.381-.119-.381-.237 0-.117.105-.196.354-.196.263 0 .499.052.761.131l.132-.682a3.828 3.828 0 0 0-.88-.119c-.748 0-1.154.381-1.154.906 0 .367.183.604.551.761.105.04.223.092.367.132.289.078.433.118.433.249s-.17.183-.407.183c-.288 0-.551-.052-.826-.157l-.118.683c.34.092.656.157 1.01.157.787 0 1.142-.407 1.142-.919-.013-.354-.158-.616-.604-.774zm-17.678.906c-.342 0-.617-.25-.617-.696 0-.447.262-.682.617-.682.354 0 .616.235.616.682 0 .46-.275.696-.616.696zm0-2.127c-.801 0-1.444.565-1.444 1.444s.643 1.47 1.444 1.47 1.444-.577 1.444-1.47c0-.892-.643-1.444-1.444-1.444zm7.979.014c-.262 0-.511.065-.682.118V16h-.787v4.067h.787v-2.034a1.41 1.41 0 0 1 .499-.104c.301 0 .42.118.42.407v1.731h.787v-1.824c0-.721-.328-1.062-1.024-1.062zm-10.342.695a10.404 10.404 0 0 0-.485-.157c-.459-.132-.604-.197-.604-.407 0-.236.171-.354.591-.354.341 0 .643.091.945.196l.17-.761c-.354-.131-.682-.249-1.089-.249-.945 0-1.47.538-1.47 1.181 0 .486.21.8.683.997.131.053.301.106.472.157.512.159.669.237.669.434 0 .236-.196.367-.603.367-.368 0-.709-.104-1.063-.262L4 19.806c.394.157.774.261 1.247.261.971 0 1.469-.538 1.469-1.193 0-.525-.301-.827-.748-.998zm8.282 1.483c-.289 0-.328-.131-.328-.354v-1.024h.656v-.669h-.656v-.788h-.788v.788h-.394v.656h.394v1.076c0 .473.092 1.023.879 1.023.237 0 .433-.051.657-.117l-.079-.656a1.055 1.055 0 0 1-.341.065zm-2.559-.079a1.907 1.907 0 0 1-.407.039c-.42 0-.512-.143-.512-.42v-1.587h-.787v1.679c0 .749.419 1.09 1.259 1.09.407 0 .788-.079 1.247-.184v-2.585h-.8z" fill="#304cb2"/><path d="M0 1.068V.9a.074.074 0 0 0 0-.051V.813C.007.777.006.74.01.706a.817.817 0 0 1 .212-.46.773.773 0 0 1 .394-.228.734.734 0 0 1 .155-.015c.11-.003.222-.007.333.008a1.182 1.182 0 0 1 .398.14c.024.014.044.012.068 0 .127-.062.256-.117.396-.14a.951.951 0 0 1 .177-.01h.099a.759.759 0 0 1 .586.227.82.82 0 0 1 .242.567l.004.116V.98c.009.2-.048.386-.132.564-.105.223-.25.419-.416.6a5.23 5.23 0 0 1-.91.777.748.748 0 0 1-.074.039h-.007a.33.33 0 0 1-.089-.047 6.286 6.286 0 0 1-.613-.49 3.357 3.357 0 0 1-.602-.7 1.808 1.808 0 0 1-.208-.473C.007 1.19.01 1.129 0 1.068" fill="#cbcbcb" mask="url(#a)" transform="translate(28.922 17.15)"/><path d="M31.17 17.149v.006h-.11c.002-.002.002-.004.002-.006z" fill="#f1f1f1"/><path d="M.745.46h.006v.08H.745V.46" fill="#f1f1f1" mask="url(#b)" transform="translate(31.248 17.599)"/><path d="M28.922 18c.011.018.011.034 0 .051z" fill="#d7d7d7"/><path d="m29.759 18.33-.521-.377c-.056-.04-.11-.08-.166-.118-.026-.017-.031-.035-.024-.063a.671.671 0 0 1 .446-.484c.255-.093.507-.064.754.038a.99.99 0 0 1 .153.076c.013.026-.008.043-.02.061l-.241.345-.344.49c-.01.012-.017.03-.037.031" fill="#e51c23"/><path d="M31.398 18.094c.12.088.234.184.35.276.026.02.05.043.077.062.023.016.023.03.014.055a2.238 2.238 0 0 1-.4.653 3.588 3.588 0 0 1-.24.254c-.01.01-.015.022-.033.008l-.44-.346c-.013-.025.006-.04.017-.056l.26-.372c.115-.164.23-.33.346-.493.012-.018.02-.043.049-.041" fill="#c2161c"/><path d="m30.46 19.09.359.295.182.15c.017.014.022.023 0 .04-.165.14-.333.276-.512.399-.01.007-.022.012-.033.019-.025-.01-.02-.031-.02-.05-.002-.096-.001-.193-.001-.29 0-.17-.001-.34 0-.511 0-.02-.007-.046.025-.052" fill="#283b7f"/><path d="M30.647 17.554c.051.03.1.061.146.096.007.025-.01.041-.023.058l-.325.464-.277.395c-.01.015-.019.031-.038.037l-.138-.103c-.007-.02.006-.032.015-.046.204-.29.407-.583.612-.874.008-.01.014-.023.028-.027" fill="#d91a21"/><path d="M31.03 17.819c.047.027.09.06.131.095.002.016-.009.027-.018.038-.205.296-.414.59-.62.887-.01.014-.019.027-.037.033l-.123-.093c-.015-.025.003-.042.015-.058l.216-.311.39-.556c.012-.016.02-.038.046-.035" fill="#ce181e"/><path d="M29.759 18.33c.15-.217.302-.433.454-.649l.17-.248c.008-.009.017-.019.018-.03.05.025.099.054.146.087 0 .02-.013.031-.022.045-.174.251-.35.5-.524.75a7.269 7.269 0 0 0-.077.108c-.01.013-.017.028-.035.032-.043-.033-.087-.064-.13-.096" fill="#e01b22"/><path d="M31.398 18.094c-.05.057-.088.12-.131.182l-.51.726c-.011.017-.026.032-.03.054a10.246 10.246 0 0 0-.124-.095c-.008-.018.003-.032.013-.046l.57-.814c.017-.025.033-.05.052-.074.01-.013.018-.026.035-.03.044.03.086.063.125.097" fill="#c6171d"/><path d="m31.273 17.997-.386.552-.284.411-.117-.088c.054-.079.106-.157.16-.234.093-.135.19-.268.283-.403l.207-.297c.007-.009.017-.017.026-.025a.899.899 0 0 1 .111.084" fill="#ca171e"/><path d="M31.03 17.819c-.046.05-.08.108-.119.164-.173.244-.343.489-.514.733-.012.02-.03.038-.033.063a10.202 10.202 0 0 0-.125-.094c-.005-.015.004-.026.012-.036.208-.295.414-.592.622-.888.01-.016.022-.034.046-.024a.7.7 0 0 1 .112.082" fill="#d2191f"/><path d="M30.919 17.737c-.015.001-.022.012-.03.023l-.618.884-.032.04-.11-.08c.026-.05.062-.093.094-.138.13-.187.26-.374.392-.56l.178-.256c.042.03.088.052.126.087" fill="#d51920"/><path d="M29.889 18.425c.06-.101.13-.192.197-.288.088-.13.179-.255.269-.383l.17-.244.02-.02c.037.019.07.04.102.064-.022.059-.066.104-.1.155-.091.133-.186.265-.28.397l-.274.395-.104-.076" fill="#dd1b21"/><path d="M.708.207C.76.32.778.44.778.56c0 .064.003.127-.006.192C.77.765.77.778.76.792L.445.567c0-.014.01-.026.019-.038C.53.431.597.335.664.241.674.228.686.21.708.207" fill="#f79d1c" mask="url(#c)" transform="translate(31.112 17.462)"/><path d="M29.701 19.395a.65.65 0 0 1-.087-.087.137.137 0 0 1-.009-.057v-.775c0-.022-.006-.05.023-.062.026.023.058.038.081.065.01.02.014.042.014.065v.789c0 .022.005.049-.022.063" fill="#304db3"/><path d="M31.468 17.31c.04.017.077.037.11.064.011.017.001.03-.008.043l-.276.393c-.008.011-.015.022-.03.024-.038-.019-.073-.043-.108-.067-.003-.015.004-.026.012-.037l.281-.403a.039.039 0 0 1 .02-.017" fill="#f9aa18"/><path d="M29.468 19.148a.662.662 0 0 1-.082-.1.347.347 0 0 1-.007-.079l.001-.67c0-.026-.005-.053.023-.069.024.025.06.04.082.066.006.034.005.068.005.102v.687c0 .022.005.05-.022.063" fill="#3250bc"/><path d="M31.264 17.834c.058-.093.125-.18.187-.27.042-.065.091-.123.127-.19a.308.308 0 0 1 .094.081c.007.016-.003.027-.01.04l-.266.376c-.008.012-.015.025-.03.03a.773.773 0 0 1-.102-.067" fill="#f9a719"/><path d="M29.629 18.413c-.01.017-.008.035-.008.054v.792c0 .016.002.034-.007.05a.547.547 0 0 1-.073-.079c-.01-.015-.008-.033-.008-.049v-.77c0-.02-.01-.049.025-.056a.4.4 0 0 1 .07.058" fill="#314eb6"/><path d="M31.468 17.31c-.006.04-.036.065-.057.096l-.255.362a.993.993 0 0 1-.103-.066c-.002-.015.008-.025.016-.036l.247-.353c.012-.017.023-.035.044-.042a.318.318 0 0 1 .108.04" fill="#faad17"/><path d="M29.557 18.355c-.014.014-.009.032-.009.048v.765a.215.215 0 0 1-.008.062.564.564 0 0 1-.072-.082.208.208 0 0 0 .007-.06v-.744c0-.015-.005-.034.01-.048.023.023.052.036.072.06" fill="#324fb9"/><path d="M.336.693C.351.651.382.62.406.584.483.471.564.36.643.247a.298.298 0 0 1 .08.093C.728.358.718.37.709.383L.473.721C.461.738.45.761.421.751A.6.6 0 0 1 .336.692" fill="#f8a41a" mask="url(#d)" transform="translate(31.03 17.208)"/><path d="m30.203 19.824-.065-.049c-.01-.016-.01-.035-.01-.053 0-.276 0-.55.002-.827 0-.02-.01-.049.02-.058.023.014.043.03.06.05a.136.136 0 0 1 .016.065l-.001.804c0 .024.005.052-.022.068" fill="#2b4193"/><path d="M29.782 18.538a.24.24 0 0 1 .056.045.175.175 0 0 1 .01.057c0 .27 0 .54-.002.81 0 .023.006.05-.022.064a1.56 1.56 0 0 0-.059-.057.152.152 0 0 1-.015-.07V18.6c0-.014 0-.028.003-.04.003-.015.008-.03.03-.022" fill="#2f4aac"/><path d="m30.864 17.589-.152-.09a.064.064 0 0 1 .017-.035c.051-.07.093-.144.15-.207a.77.77 0 0 1 .219-.022c.01.019-.002.033-.011.047-.065.096-.133.19-.199.286a.05.05 0 0 1-.024.02" fill="#fbb514"/><path d="M29.404 18.23c-.01.034-.008.07-.008.104v.67c0 .014.004.031-.01.044a.79.79 0 0 1-.08-.108c.003-.244 0-.488.002-.732 0-.016 0-.033.015-.042.028.021.057.04.08.064" fill="#3351be"/><path d="M30.864 17.589c.025-.061.071-.108.106-.163.041-.064.092-.123.128-.191a.645.645 0 0 1 .152.01c.009.019-.004.033-.013.046-.079.113-.16.225-.237.339-.007.01-.014.02-.027.024l-.109-.065" fill="#fbb215"/><path d="M.384.668C.412.663.42.638.433.618L.686.26a.396.396 0 0 1 .066.12 97.19 97.19 0 0 1-.237.335C.508.726.504.739.489.742z" fill="#f8a11b" mask="url(#e)" transform="translate(31.068 17.289)"/><path d="M29.323 18.166v.709c0 .023 0 .047-.017.064a.663.663 0 0 1-.072-.109c.006-.018 0-.036 0-.054v-.612c0-.02-.004-.042.016-.057.022.023.053.035.073.059" fill="#3452c1"/><path d="M30.151 18.837c-.01.015-.006.03-.006.046v.832c0 .02 0 .04-.008.06l-.05-.042a.103.103 0 0 1-.017-.06l.001-.83c0-.02-.007-.045.024-.051l.056.045" fill="#2c4397"/><path d="M29.168 18.716a.739.739 0 0 1-.079-.174.519.519 0 0 1-.015-.13v-.36c.001-.023 0-.05.023-.068.031.024.066.045.092.075.007.13.002.259.003.388a8.14 8.14 0 0 1 0 .22c0 .02 0 .04-.024.049" fill="#3554c7"/><path d="M30.034 19.691a.285.285 0 0 1-.057-.047.16.16 0 0 1-.008-.054v-.822c0-.012 0-.024.003-.036.003-.012.007-.027.026-.02.02.013.038.027.053.043.003.018.007.036.007.054v.81c0 .026.002.054-.024.072" fill="#2d459e"/><path d="M30.973 17.654c.026-.061.07-.11.106-.163l.171-.246a.422.422 0 0 1 .11.027l-.169.245-.115.163a.06.06 0 0 1-.023.022.404.404 0 0 1-.08-.048" fill="#faaf16"/><path d="M29.782 18.538c-.023.007-.016.027-.016.043v.876c-.024-.019-.047-.037-.065-.062a.201.201 0 0 0 .007-.06l.001-.857c.023.022.053.035.073.06" fill="#304bb0"/><path d="M29.168 18.716c.01-.017.01-.034.01-.053v-.557c0-.017-.006-.035.011-.047.021.014.044.029.061.049v.674c0 .018.004.038-.017.048a.61.61 0 0 1-.065-.114" fill="#3453c4"/><path d="M29.999 18.713c-.022.009-.014.029-.014.044v.834c0 .018.002.036-.007.054a.241.241 0 0 1-.051-.044.068.068 0 0 1-.011-.034c.005-.286 0-.571.002-.857 0-.018-.002-.037.017-.05.02.019.046.032.064.053" fill="#2d46a2"/><path d="M29.824 19.514a.22.22 0 0 0 .008-.062v-.824c0-.014-.005-.031.006-.045a.29.29 0 0 1 .06.05v.89c-.002.015-.007.028-.023.034l-.05-.043" fill="#2e48a8"/><path d="M30.297 19.893a.167.167 0 0 1-.05-.037.101.101 0 0 1-.016-.059v-.816c0-.023-.002-.047.024-.06.019.016.04.028.055.047.006.06.003.12.004.182l-.001.684c0 .02.006.045-.016.06" fill="#2a3f8d"/><path d="M29.876 19.557c.009-.017.007-.035.007-.053v-.823c0-.018-.005-.037.016-.048a.11.11 0 0 1 .036.028l-.001.767c0 .058.004.115-.007.173a.238.238 0 0 1-.051-.044" fill="#2e48a5"/><path d="M30.297 19.893v-.879c0-.016-.004-.034.013-.047.019.014.039.026.054.043v.853c0 .023.007.051-.022.063a.145.145 0 0 1-.045-.033" fill="#293e89"/><path d="M30.341 19.927c.01-.016.007-.032.007-.05v-.817c0-.018-.005-.037.016-.05a.27.27 0 0 1 .052.044c-.002.274 0 .548-.001.82l-.001.055c0 .016-.006.029-.022.035a.208.208 0 0 1-.05-.037" fill="#293d86"/><path d="M30.392 19.964c.01-.016.007-.033.007-.05v-.811c0-.018-.005-.038.016-.05.017.01.032.022.044.037-.01.01-.009.024-.009.038v.833c0 .01 0 .022.005.032-.032.014-.042-.02-.063-.03" fill="#283c83"/><path d="M30.034 19.691c.013-.064.008-.13.008-.194l.001-.697c0-.014-.005-.03.008-.045.017.01.031.022.044.037-.014.014-.009.032-.009.048v.892a.23.23 0 0 1-.052-.04" fill="#2c449a"/><path d="M29.097 17.984c-.017.186-.002.372-.008.558a1.05 1.05 0 0 1-.087-.445c.001-.058.008-.116.012-.18.034.023.06.043.083.067" fill="#3655ca"/><path d="M30.88 17.257c0 .03-.024.046-.039.067-.033.053-.07.103-.106.154-.006.008-.01.02-.023.02a15.267 15.267 0 0 1-.19-.107 1.13 1.13 0 0 1 .357-.134" fill="#fcb912"/><path d="M30.255 18.922a.197.197 0 0 0-.008.064v.87a.159.159 0 0 1-.044-.032c.009-.03.008-.06.008-.09v-.848l.044.036" fill="#2a4090"/></g></svg>