<svg width="36" height="36" fill="none" xmlns="http://www.w3.org/2000/svg"><path d="M18 0c2.837 0 5.52.656 7.907 1.825C31.884 4.753 36 10.895 36 18c0 9.942-8.058 18-18 18-9.94 0-18-8.057-18-18C0 8.06 8.06 0 18 0z" fill="#F2F4F7"/><path d="M18.627 15.688V12H6v12.621h12.627v-3.686h-.867v2.824H6.867V12.867h10.89v2.824l.87-.003z" fill="#BCD85F"/><path d="M9.482 14.787h1.677v5.531h3.849l-.225 1.337H9.482v-6.868zm7.834 4.81c.195.595.665.985 1.81.985 1.075 0 1.378-.332 1.378-.77 0-.478-.313-.742-1.765-.986-2.396-.41-2.825-1.18-2.825-2.107 0-1.376 1.324-2.068 2.955-2.068 2.356 0 3 1.21 3.08 2.01h-1.67c-.098-.342-.333-.8-1.467-.8-.794 0-1.193.253-1.193.706 0 .39.284.595 1.574.819 2.611.465 3.022 1.255 3.022 2.25 0 1.19-.939 2.156-3.247 2.156-2.15 0-3.12-.956-3.334-2.195h1.682zm6.259-4.81h3.814c1.643 0 2.357.8 2.357 1.765 0 .8-.49 1.268-1.027 1.464.665.205 1.281.72 1.281 1.588 0 1.298-.988 2.049-2.68 2.049h-3.745v-6.866zm3.462 2.683c.743 0 .988-.293.988-.712 0-.517-.401-.722-.978-.722h-1.829v1.434h1.82zm-1.819 2.946h1.887c.646 0 1.135-.186 1.135-.868 0-.546-.371-.83-1.105-.83h-1.917v1.698z" fill="#02508D"/><path d="M19.653 23.21h.312v1.424h-.312V23.21zm1.5 0v1.424h-.265l-.304-.774v.774h-.264V23.21h.264l.304.78v-.78h.265zm1.161.375v.674a.373.373 0 0 1-.398.375h-.401V23.21h.4a.378.378 0 0 1 .4.375zm-.311-.014c0-.047-.026-.08-.067-.08h-.11v.862h.109c.042 0 .068-.032.068-.08v-.702zm.653.717V23.21h.312v1.093a.082.082 0 0 0 .081.08.081.081 0 0 0 .082-.08V23.21h.311v1.078a.393.393 0 0 1-.786 0zm1.128-.063v-.06h.315v.1c0 .099.052.129.105.129s.096-.04.096-.125c0-.249-.489-.247-.489-.677 0-.251.155-.412.396-.412a.357.357 0 0 1 .39.38v.1h-.311v-.125a.073.073 0 0 0-.023-.053.072.072 0 0 0-.056-.02c-.044 0-.082.033-.082.11 0 .201.488.195.488.663 0 .265-.16.43-.413.43-.254 0-.416-.171-.416-.44zm1.922-.735h-.245v1.144h-.312V23.49h-.248v-.281h.805v.28zm.834 1.144-.13-.513h-.089v.513h-.311V23.21h.4a.38.38 0 0 1 .369.226c.02.047.031.098.031.15v.16a.371.371 0 0 1-.107.265l.166.623h-.329zm-.221-.794h.108c.043 0 .069-.033.069-.08v-.19c0-.047-.026-.08-.067-.08h-.11v.35zm.878-.63h.311v1.424h-.311V23.21zm.985.28v.31h.242v.28h-.238v.271h.318v.28h-.63V23.21h.63v.28h-.322zm.64.735v-.06h.308v.1c0 .099.052.129.104.129s.097-.04.097-.125c0-.249-.489-.247-.489-.677 0-.251.155-.412.396-.412a.357.357 0 0 1 .39.38v.1h-.311v-.125a.073.073 0 0 0-.023-.053.072.072 0 0 0-.056-.02c-.044 0-.083.033-.083.11 0 .201.49.195.49.663 0 .265-.161.43-.415.43-.253 0-.408-.171-.408-.44z" fill="#606060"/></svg>