<svg height="36" viewBox="0 0 36 36" width="36" xmlns="http://www.w3.org/2000/svg"><mask id="a" fill="#fff"><path d="M.132 0h.736v4.232H.132z" fill-rule="evenodd"/></mask><mask id="b" fill="#fff"><path d="M0 0h2.048v4.232H0z" fill-rule="evenodd"/></mask><mask id="c" fill="#fff"><path d="M0 0h1v4.232H0z" fill-rule="evenodd"/></mask><mask id="d" fill="#fff"><path d="M.132 0h.736v4.232H.132z" fill-rule="evenodd"/></mask><mask id="e" fill="#fff"><path d="M0 0h1v4.232H0z" fill-rule="evenodd"/></mask><mask id="f" fill="#fff"><path d="M0 0h1v4.232H0z" fill-rule="evenodd"/></mask><mask id="g" fill="#fff"><path d="M.132 0h.736v2.01H.132z" fill-rule="evenodd"/></mask><mask id="h" fill="#fff"><path d="M0 0h1v2.012H0z" fill-rule="evenodd"/></mask><mask id="i" fill="#fff"><path d="M.132 0h.736v2.01H.133z" fill-rule="evenodd"/></mask><g fill="none" fill-rule="evenodd"><path d="M18 0c2.837 0 5.52.656 7.907 1.825C31.884 4.753 36 10.895 36 18c0 9.942-8.058 18-18 18-9.94 0-18-8.057-18-18C0 8.06 8.06 0 18 0z" fill="#f2f4f7" fill-rule="nonzero"/><g fill="#68757d"><path d="M9.128 17.443a.32.32 0 0 1-.318.318h-.47a.32.32 0 0 1-.318-.318v-1.259c0-.175.144-.317.317-.317h.471c.174 0 .318.142.318.317zm-.318-2.047h-.47a.788.788 0 0 0-.789.788v1.26c0 .435.353.788.788.788h.471a.787.787 0 0 0 .79-.789v-1.259a.788.788 0 0 0-.79-.788z"/><path d="M.368 0C.2 0 .132.062.132.18v3.87c0 .125.068.182.236.182.167 0 .235-.062.235-.182V.18C.603.058.535 0 .368 0" mask="url(#a)" transform="translate(4 14)"/><path d="m1.576 3.76-.788.002a.32.32 0 0 1-.317-.319v-1.26c0-.174.144-.312.317-.312h.788zM1.812 0c-.168 0-.236.061-.236.18v1.214l-.788.001A.788.788 0 0 0 0 2.183v1.26c0 .435.353.788.788.788H1.84c.147-.006.208-.068.208-.18V.18c0-.125-.068-.182-.236-.182z" mask="url(#b)" transform="translate(12.736 14)"/><path d="M.499 0C.332 0 .264.062.264.18v3.87c0 .125.068.182.235.182.169 0 .237-.062.237-.182V.18C.736.058.668 0 .499 0" mask="url(#c)" transform="translate(17.649 14)"/><path d="M.632 0C.465 0 .396.062.396.18v3.87c0 .125.069.182.236.182.168 0 .236-.062.236-.182V.18C.868.058.8 0 .632 0" mask="url(#d)" transform="translate(31.264 14)"/><path d="M.5 0C.332 0 .265.062.265.18v3.87c0 .125.068.182.234.182.169 0 .236-.062.236-.182V.18C.736.058.669 0 .5 0" mask="url(#e)" transform="translate(30.25 14)"/><path d="M.5 0C.333 0 .264.062.264.18v3.87c0 .125.069.182.236.182.168 0 .236-.062.236-.182V.18C.736.058.668 0 .5 0" mask="url(#f)" transform="translate(18.799 14)"/><path d="M21.791 17.443a.319.319 0 0 1-.317.318h-.788V15.87l.788.002c.174 0 .317.137.317.312zm-.317-2.047-.788-.002V14.18c0-.119-.068-.18-.236-.18h-.001c-.167 0-.235.056-.235.18v3.87c0 .113.061.174.208.18.008.002 1.052.002 1.052.002a.788.788 0 0 0 .787-.789v-1.259a.787.787 0 0 0-.787-.788zm6.924.629c0-.082.072-.153.159-.153h.788c.088 0 .159.071.159.153v.553h-1.106zm1.397 1.735-1.238.001a.16.16 0 0 1-.159-.159v-.553h1.341a.227.227 0 0 0 .237-.236v-.788a.633.633 0 0 0-.631-.629h-.788a.632.632 0 0 0-.63.63v1.576c0 .348.282.63.63.63h1.238c.124 0 .18-.069.18-.236 0-.168-.06-.236-.18-.236zm-3.825-1.893h1.237c.126 0 .18-.068.18-.237 0-.167-.06-.236-.18-.236l-1.236.002a.63.63 0 0 0-.63.629v.318c0 .292.21.564.502.614l.947.174a.163.163 0 0 1 .128.153v.318a.16.16 0 0 1-.16.16l-1.236-.001c-.126 0-.181.067-.181.234 0 .169.06.237.18.237h1.238a.628.628 0 0 0 .629-.63v-.318a.625.625 0 0 0-.501-.614l-.947-.174a.162.162 0 0 1-.127-.153v-.318c0-.087.07-.158.158-.158m-13.785.158a.63.63 0 0 0-.63-.629h-.786a.628.628 0 0 0-.63.63v2.024c0 .125.068.182.235.182.169 0 .236-.06.236-.182v-2.025a.16.16 0 0 1 .159-.158h.786a.16.16 0 0 1 .159.158v2.025c0 .125.068.182.235.182.168 0 .236-.06.236-.182v-.8zm12.137 1.735-.947.001a.16.16 0 0 1-.16-.158v-.394a.16.16 0 0 1 .16-.16h.947zm-.16-2.365h-1.157c-.125 0-.182.068-.182.236s.062.236.182.236h1.158a.16.16 0 0 1 .159.159v.553h-.947a.63.63 0 0 0-.63.63v.394c0 .347.282.63.63.63h1.183a.239.239 0 0 0 .235-.237v-1.97a.63.63 0 0 0-.63-.63zm-8.37.63c0-.082.072-.153.16-.153h.787c.088 0 .16.071.16.153v.553h-1.107zm1.397 1.735-1.238.001a.16.16 0 0 1-.159-.159v-.553h1.342a.225.225 0 0 0 .235-.236v-.788a.632.632 0 0 0-.63-.629h-.788a.632.632 0 0 0-.63.63v1.576c0 .348.282.63.63.63h1.238c.125 0 .182-.069.182-.236 0-.168-.062-.236-.182-.236zM7.122 15.418c-.165-.038-.263.046-.296.142l-.697 1.967-.7-1.97c-.034-.096-.15-.184-.303-.14-.201.057-.178.21-.158.267l.916 2.557-.12.34c0 .001-.031.132-.206.132h-.271c-.084 0-.161.03-.161.232 0 .164.06.231.213.231h.202c.249 0 .52-.05.65-.417l1.089-3.073c.02-.057.032-.224-.158-.268"/></g><path d="M.603 1.829c0 .119-.068.181-.235.181-.168 0-.236-.056-.236-.181V.182C.132.061.2 0 .368 0c.167 0 .235.057.235.182z" fill="#009ad8" mask="url(#g)" transform="translate(4 19.181)"/><path d="M18.382 19.363c0-.125-.068-.182-.236-.182-.167 0-.235.062-.235.182v1.647c0 .125.068.181.235.181.168 0 .236-.061.236-.181zm1.152 0c0-.125-.068-.182-.236-.182s-.235.062-.235.182v1.647c0 .125.067.181.235.181s.236-.061.236-.181z" fill="#009ad8"/><path d="M.736.182C.736.057.668 0 .5 0S.264.062.264.182V1.83c0 .125.068.182.236.182s.236-.061.236-.182z" fill="#009ad8" mask="url(#h)" transform="translate(19.953 19.181)"/><path d="M14.784 19.363c0-.125-.068-.182-.236-.182-.167 0-.236.062-.236.182v1.647c0 .125.069.181.236.181.168 0 .236-.061.236-.181z" fill="#009ad8"/><path d="M.868.182C.868.057.8 0 .632 0S.396.062.396.182v1.647c0 .125.068.181.236.181s.236-.061.236-.181z" fill="#009ad8" mask="url(#i)" transform="translate(31.264 19.181)"/><path d="M30.986 19.363c0-.125-.068-.182-.236-.182-.167 0-.236.062-.236.182v1.647c0 .125.07.181.236.181.168 0 .236-.061.236-.181z" fill="#009ad8"/></g></svg>