<svg width="36" height="36" fill="none" xmlns="http://www.w3.org/2000/svg"><path d="M18 0c2.837 0 5.52.656 7.907 1.825C31.884 4.753 36 10.895 36 18c0 9.942-8.058 18-18 18-9.94 0-18-8.057-18-18C0 8.06 8.06 0 18 0z" fill="#F2F4F7"/><g fill-rule="evenodd" clip-rule="evenodd"><path d="M7.48 13.021a.33.33 0 0 0-.109.058.85.85 0 0 1-.14.09 3.176 3.176 0 0 0-.34.193.5.5 0 0 1-.11.06.282.282 0 0 0-.089.054.743.743 0 0 1-.14.088c-.16.08-.285.15-.323.184a.544.544 0 0 1-.12.066.677.677 0 0 0-.148.09c-.036.03-.078.055-.094.055a.23.23 0 0 0-.09.048 1.215 1.215 0 0 1-.16.1c-.17.087-.276.147-.343.195a.45.45 0 0 1-.123.06.428.428 0 0 0-.146.11l-.087.095.034.083a.523.523 0 0 0 .075.128.401.401 0 0 1 .067.12.526.526 0 0 0 .077.137c.028.034.051.075.051.091s.025.059.055.095c.03.036.07.103.09.149a.546.546 0 0 0 .073.127.305.305 0 0 1 .055.098c.009.03.03.071.048.091.046.053.2.364.186.378a15.25 15.25 0 0 1-.822.012c-.698 0-.817.004-.858.034L4 16.144v1.502c0 1.371.003 1.504.036 1.532.03.024.193.03.85.03.878 0 .91.004.826.103-.056.065-.097.14-.097.176 0 .016-.024.052-.053.079a.27.27 0 0 0-.067.108.44.44 0 0 1-.062.123 1.023 1.023 0 0 0-.08.13 1.056 1.056 0 0 1-.081.134.253.253 0 0 0-.05.1c0 .018-.023.054-.052.082a.266.266 0 0 0-.068.107.43.43 0 0 1-.063.124.605.605 0 0 0-.105.237c-.008.049.135.162.294.234.057.026.103.054.103.063 0 .01.03.03.067.044a.939.939 0 0 1 .152.09c.048.035.1.063.118.063.017 0 .059.023.093.052a.69.69 0 0 0 .148.088.38.38 0 0 1 .098.052.38.38 0 0 0 .161.092c.017 0 .044.015.06.034a.56.56 0 0 0 .139.09c.06.03.115.063.121.072.006.01.05.033.098.053a.57.57 0 0 1 .127.073.8.8 0 0 0 .125.081c.252.133.343.186.369.217a.103.103 0 0 0 .068.034c.022 0 .07.025.106.056.135.115.238.108.297-.019.018-.038.067-.128.108-.2a5.44 5.44 0 0 0 .125-.23.587.587 0 0 1 .067-.11.84.84 0 0 0 .08-.131c.036-.065.094-.174.13-.243a.686.686 0 0 1 .088-.136.25.25 0 0 0 .047-.095c.026-.079.137-.199.187-.2.013 0 .042.045.063.102a.704.704 0 0 0 .09.166.23.23 0 0 1 .051.09c0 .017.024.058.052.092a.513.513 0 0 1 .077.142c.015.044.04.092.058.106.018.015.05.067.072.117a.43.43 0 0 0 .075.119c.02.016.047.065.061.109.015.044.05.108.078.142.028.033.051.074.051.09 0 .127.216.205.305.11a.257.257 0 0 1 .11-.066.261.261 0 0 0 .103-.054c.04-.037.138-.094.355-.208a.845.845 0 0 0 .124-.078.673.673 0 0 1 .126-.074.597.597 0 0 0 .128-.079.26.26 0 0 1 .103-.053.258.258 0 0 0 .11-.066c.027-.03.063-.053.08-.053a.53.53 0 0 0 .143-.077.562.562 0 0 1 .14-.076c.014 0 .054-.024.088-.053a.372.372 0 0 1 .12-.068.294.294 0 0 0 .107-.06.803.803 0 0 1 .15-.098c.153-.078.412-.233.488-.292l.047-.037-.046-.062a.992.992 0 0 1-.086-.154c-.022-.051-.047-.093-.055-.093-.007 0-.032-.042-.054-.093a1.022 1.022 0 0 0-.09-.162.299.299 0 0 1-.051-.09.615.615 0 0 0-.076-.132.614.614 0 0 1-.077-.132.248.248 0 0 0-.051-.082.51.51 0 0 1-.076-.135.518.518 0 0 0-.079-.137c-.055-.065-.096-.205-.067-.233.008-.008.37-.015.806-.015.666 0 .798-.005.839-.033l.049-.033V17.65c0-1.328-.005-1.498-.035-1.528-.03-.03-.147-.036-.847-.045-.755-.01-.812-.014-.81-.05.006-.115.014-.141.063-.198a.482.482 0 0 0 .079-.142.3.3 0 0 1 .063-.112.331.331 0 0 0 .066-.11.594.594 0 0 1 .079-.136.415.415 0 0 0 .064-.109.507.507 0 0 1 .06-.113c.05-.07.12-.193.19-.336a.646.646 0 0 1 .09-.137c.022-.023.04-.05.04-.06 0-.03-.202-.192-.261-.21a.304.304 0 0 1-.098-.056.657.657 0 0 0-.145-.083.386.386 0 0 1-.116-.067.457.457 0 0 0-.117-.075 2.79 2.79 0 0 1-.37-.211.501.501 0 0 0-.127-.066c-.04-.013-.075-.032-.075-.042 0-.01-.051-.044-.114-.076a3.606 3.606 0 0 1-.235-.133 2.808 2.808 0 0 0-.23-.128.561.561 0 0 1-.14-.087c-.015-.02-.04-.035-.056-.035a.496.496 0 0 1-.134-.074.886.886 0 0 0-.151-.087.31.31 0 0 1-.095-.06c-.126-.118-.305-.07-.354.093-.014.046-.033.084-.042.084-.01 0-.042.053-.072.117a.609.609 0 0 1-.087.142.296.296 0 0 0-.06.096.735.735 0 0 1-.078.138.251.251 0 0 0-.05.102c0 .02-.024.063-.054.098a.682.682 0 0 0-.09.154c-.02.05-.043.091-.053.091-.009 0-.037.05-.063.108a.491.491 0 0 1-.063.118c-.036.022-.176-.094-.19-.158a.363.363 0 0 0-.059-.122 2.545 2.545 0 0 1-.207-.364.465.465 0 0 0-.075-.117.379.379 0 0 1-.066-.114.455.455 0 0 0-.071-.123.31.31 0 0 1-.058-.1.727.727 0 0 0-.08-.144.281.281 0 0 1-.05-.09c0-.027-.073-.095-.1-.092a.758.758 0 0 0-.086.021zm1.103 1.968c.022.15.056.303.075.341.02.038.05.164.067.28.018.115.05.245.073.289a1.3 1.3 0 0 1 .102.42c.01.098.025.132.065.158a.174.174 0 0 1 .064.073c.02.065.424.069.527.005a.672.672 0 0 1 .23-.067.73.73 0 0 0 .224-.06.615.615 0 0 1 .2-.057.69.69 0 0 0 .218-.065.579.579 0 0 1 .189-.06.731.731 0 0 0 .198-.058c.1-.049.162-.058.206-.03.03.02-.07.13-.33.365-.313.283-.83.807-.9.91-.103.152-.125.356-.043.388.032.012.058.031.058.043 0 .012.034.056.076.098a.346.346 0 0 1 .077.096c0 .01.024.03.054.043.03.014.055.04.055.057 0 .018.028.05.064.07a.28.28 0 0 1 .09.088c.015.029.04.051.057.051s.04.025.055.055c.013.03.033.055.044.055a.4.4 0 0 1 .103.081c.12.117.392.36.44.394a.101.101 0 0 1 .042.072c0 .024.023.053.054.068.03.013.055.033.055.043 0 .035-.136.018-.189-.024a.444.444 0 0 0-.177-.058.839.839 0 0 1-.222-.064.814.814 0 0 0-.214-.063.59.59 0 0 1-.186-.056.797.797 0 0 0-.229-.063.495.495 0 0 1-.216-.067c-.097-.077-.584-.057-.61.025a.133.133 0 0 1-.064.065c-.042.02-.054.046-.066.146-.02.168-.071.369-.11.43a.976.976 0 0 0-.062.253 1.476 1.476 0 0 1-.072.302 1.54 1.54 0 0 0-.071.327c-.044.359-.052.368-.153.187a.745.745 0 0 1-.098-.272c-.027-.237-.059-.385-.102-.477a1.455 1.455 0 0 1-.074-.311c-.022-.153-.045-.238-.078-.282a.63.63 0 0 1-.084-.332c0-.077-.003-.08-.104-.095-.207-.033-.488-.013-.595.041a.807.807 0 0 1-.237.064.476.476 0 0 0-.198.057.479.479 0 0 1-.178.058.939.939 0 0 0-.228.065c-.06.027-.173.062-.25.077a.508.508 0 0 0-.171.056c-.034.034-.105.038-.124.008-.007-.011.012-.037.043-.057.03-.02.055-.047.055-.06 0-.014.081-.1.18-.19.1-.09.372-.355.606-.59.234-.236.438-.432.453-.437.02-.007.016-.03-.017-.092-.051-.095-.03-.166.05-.17.037-.003.032-.007-.017-.017-.049-.01-.067-.028-.072-.069-.004-.033-.031-.069-.07-.091-.036-.02-.065-.05-.065-.066s-.03-.047-.066-.068c-.037-.022-.065-.057-.065-.081S6.91 17.1 6.89 17.1c-.019 0-.105-.07-.192-.158-.087-.087-.26-.251-.384-.365a6.946 6.946 0 0 1-.348-.338c-.11-.107-.04-.142.126-.065.064.03.18.063.259.076a.62.62 0 0 1 .2.063c.03.022.11.047.176.055a.756.756 0 0 1 .203.058.961.961 0 0 0 .24.064c.093.013.182.04.217.065.063.046.254.058.492.03l.114-.014v-.09a.587.587 0 0 1 .084-.319.638.638 0 0 0 .069-.231c.014-.095.054-.266.089-.38a2.69 2.69 0 0 0 .085-.4.706.706 0 0 1 .064-.263c.024-.037.06-.102.078-.143.051-.112.074-.065.12.243z" fill="#DA7232"/><path d="M20.26 14.544a.313.313 0 0 1-.072.094 6.651 6.651 0 0 0-.39.45 8.843 8.843 0 0 1-.41.486c-.06.066-.18.21-.312.37a40.393 40.393 0 0 0-.79.931 3.248 3.248 0 0 1-.279.311c-.033.031-.06.065-.06.075 0 .01-.027.048-.06.082-.067.071-.101.11-.256.295-.146.175-.259.293-.28.293-.021 0-.173-.156-.277-.284a6.94 6.94 0 0 0-.254-.305 5.474 5.474 0 0 1-.122-.14 7.656 7.656 0 0 0-.126-.145 20.471 20.471 0 0 1-.438-.512c-.208-.249-.366-.43-.511-.588a3.931 3.931 0 0 1-.131-.152 9.038 9.038 0 0 0-.148-.175.599.599 0 0 1-.082-.107.963.963 0 0 0-.119-.14 10.369 10.369 0 0 1-.33-.366 20.517 20.517 0 0 0-.113-.13.617.617 0 0 1-.06-.079c-.039-.066-.225-.26-.25-.26-.013 0-.033.025-.045.056-.035.09-.028 6.008.007 6.077.027.054.03.055.37.06.382.007.448-.009.494-.12.033-.08.02-3.177-.014-3.53-.025-.253-.015-.323.041-.268a.4.4 0 0 0 .08.058.307.307 0 0 1 .092.112c.025.048.055.087.067.087.012 0 .031.025.043.056.022.059.122.19.223.295a.27.27 0 0 1 .06.079c0 .009.024.041.053.071.075.077.193.213.285.328l.132.164.508.61.095.123c.056.076.114.143.227.26.03.03.053.066.053.08 0 .02.1.095.177.133.025.012.266-.257.549-.614.05-.064.135-.163.256-.298a4.2 4.2 0 0 0 .159-.196 8.5 8.5 0 0 1 .38-.458c.027-.03.09-.104.139-.164.048-.06.109-.133.134-.163.025-.03.06-.079.08-.11a.478.478 0 0 1 .085-.094c.027-.022.05-.053.05-.07 0-.016.017-.043.038-.058a.49.49 0 0 0 .091-.116l.058-.095c.003-.004.023.002.044.014.036.02.038.131.04 1.911.001 1.783.003 1.892.04 1.929.064.064.817.079.853.017.03-.052.048-5.952.019-6.092-.016-.075-.093-.14-.093-.078zm8.963.056a.367.367 0 0 0-.035.105.263.263 0 0 1-.051.1.634.634 0 0 0-.08.19.39.39 0 0 1-.059.145.441.441 0 0 0-.065.147.76.76 0 0 1-.074.178.768.768 0 0 0-.074.178.441.441 0 0 1-.065.147.348.348 0 0 0-.057.128.839.839 0 0 1-.08.184.351.351 0 0 0-.051.12c0 .022-.02.073-.042.116a.962.962 0 0 0-.11.251c0 .015-.03.084-.066.152a.622.622 0 0 0-.065.163.291.291 0 0 1-.05.113.738.738 0 0 0-.078.172.843.843 0 0 1-.071.167.928.928 0 0 0-.075.178.374.374 0 0 1-.064.135c-.018.014-.038.062-.046.106a.684.684 0 0 1-.064.171c-.027.05-.067.144-.088.208a.696.696 0 0 1-.076.164.356.356 0 0 0-.053.128.543.543 0 0 1-.065.159.52.52 0 0 0-.065.159.347.347 0 0 1-.055.131.603.603 0 0 0-.073.16c-.018.06-.052.143-.076.186a.611.611 0 0 0-.06.152.511.511 0 0 1-.066.153.68.68 0 0 0-.075.17.671.671 0 0 1-.078.172.318.318 0 0 0-.054.125c0 .025-.03.1-.066.166a.572.572 0 0 0-.064.16c0 .045-.037.12-.08.163-.03.03-.037.065-.03.157.007.088.023.092.381.089.401-.004.493-.025.522-.122.01-.036.047-.124.08-.196.034-.072.068-.155.076-.186.008-.03.049-.125.091-.212l.076-.159h1.364c1.558 0 1.466-.01 1.523.18.018.063.058.163.089.223.03.058.055.13.055.156 0 .027.041.11.092.184l.093.135.425-.003c.305-.002.43-.01.443-.03.031-.045.003-.204-.046-.257a.293.293 0 0 1-.06-.128.489.489 0 0 0-.064-.154.689.689 0 0 1-.075-.17.654.654 0 0 0-.075-.167.472.472 0 0 1-.064-.16.249.249 0 0 0-.058-.124.245.245 0 0 1-.058-.119 1.025 1.025 0 0 0-.087-.217.75.75 0 0 1-.073-.171.245.245 0 0 0-.047-.098.642.642 0 0 1-.074-.171.552.552 0 0 0-.074-.166.212.212 0 0 1-.046-.1.72.72 0 0 0-.076-.186.783.783 0 0 1-.077-.179.298.298 0 0 0-.046-.11 1.194 1.194 0 0 1-.086-.192.538.538 0 0 0-.071-.147.268.268 0 0 1-.047-.114.638.638 0 0 0-.078-.183.435.435 0 0 1-.064-.134.47.47 0 0 0-.084-.2.332.332 0 0 1-.047-.116.754.754 0 0 0-.077-.18.507.507 0 0 1-.063-.157.358.358 0 0 0-.058-.135.579.579 0 0 1-.074-.157.475.475 0 0 0-.063-.138.594.594 0 0 1-.07-.167.581.581 0 0 0-.076-.174.304.304 0 0 1-.055-.126.365.365 0 0 0-.056-.135.812.812 0 0 1-.086-.196c-.024-.079-.052-.144-.062-.144-.023 0-.062-.088-.08-.181a.285.285 0 0 0-.055-.121.345.345 0 0 1-.061-.133.362.362 0 0 0-.152-.239l-.064-.045-.035.074zm-5.618-.025a.324.324 0 0 0-.038.104.422.422 0 0 1-.055.13.581.581 0 0 0-.064.154.686.686 0 0 1-.078.174.587.587 0 0 0-.073.171.367.367 0 0 1-.064.142.314.314 0 0 0-.06.135.516.516 0 0 1-.067.163.298.298 0 0 0-.052.112.75.75 0 0 1-.108.26.392.392 0 0 0-.05.136.402.402 0 0 1-.056.142.763.763 0 0 0-.077.182.43.43 0 0 1-.066.148.345.345 0 0 0-.059.128.84.84 0 0 1-.079.185.35.35 0 0 0-.051.12.371.371 0 0 1-.043.115.959.959 0 0 0-.11.252.7.7 0 0 1-.065.152.618.618 0 0 0-.065.163.288.288 0 0 1-.05.112.753.753 0 0 0-.079.172.631.631 0 0 1-.068.153.569.569 0 0 0-.064.149c-.014.05-.049.138-.078.194a.484.484 0 0 0-.054.135.43.43 0 0 1-.054.13 1.17 1.17 0 0 0-.087.205.517.517 0 0 1-.064.146.413.413 0 0 0-.056.13.742.742 0 0 1-.077.175.517.517 0 0 0-.064.158.353.353 0 0 1-.055.132.683.683 0 0 0-.078.182.609.609 0 0 1-.07.166.476.476 0 0 0-.06.147.565.565 0 0 1-.075.169c-.047.06-.06.17-.026.223.024.039.665.036.784-.003.07-.023.085-.041.124-.149a.789.789 0 0 1 .069-.152.572.572 0 0 0 .057-.14 1.77 1.77 0 0 1 .107-.25l.074-.143 1.352-.006c1.543-.007 1.464-.016 1.53.168.07.199.08.22.097.22.01 0 .028.052.041.114.026.121.1.266.169.327.055.05.852.063.883.014.033-.052.02-.185-.022-.24a.534.534 0 0 1-.07-.15.66.66 0 0 0-.069-.157.774.774 0 0 1-.074-.174.534.534 0 0 0-.065-.15.552.552 0 0 1-.066-.142.81.81 0 0 0-.075-.163.422.422 0 0 1-.054-.137.49.49 0 0 0-.062-.152.939.939 0 0 1-.086-.196c-.021-.069-.047-.125-.057-.125-.021 0-.058-.09-.078-.189a.228.228 0 0 0-.056-.107.247.247 0 0 1-.056-.124.474.474 0 0 0-.064-.16.816.816 0 0 1-.085-.187.516.516 0 0 0-.067-.151.467.467 0 0 1-.064-.149.563.563 0 0 0-.075-.168.21.21 0 0 1-.046-.097c0-.05-.058-.19-.086-.206a.32.32 0 0 1-.052-.116 1.381 1.381 0 0 0-.088-.21.517.517 0 0 1-.057-.142.374.374 0 0 0-.054-.122.393.393 0 0 1-.055-.12c0-.018-.035-.1-.077-.182a.843.843 0 0 1-.076-.182.248.248 0 0 0-.047-.099.858.858 0 0 1-.086-.189 1.797 1.797 0 0 0-.095-.23.521.521 0 0 1-.056-.143.278.278 0 0 0-.055-.11.279.279 0 0 1-.054-.111.531.531 0 0 0-.095-.222.518.518 0 0 1-.06-.148.346.346 0 0 0-.063-.135.318.318 0 0 1-.057-.142c-.022-.148-.184-.293-.244-.219zm5.773 1.98c.038.09.08.214.094.273.013.06.038.125.056.146a.47.47 0 0 1 .063.147.852.852 0 0 0 .072.182c.024.04.055.123.07.187a.441.441 0 0 0 .052.142c.03.03.069.126.09.221a.38.38 0 0 0 .055.122.553.553 0 0 1 .065.165.692.692 0 0 0 .065.172.81.81 0 0 1 .068.165.85.85 0 0 0 .076.175.558.558 0 0 1 .063.166.31.31 0 0 0 .054.133c.09.097.028.103-1.026.11-1.155.008-1.157.007-.966-.297a.805.805 0 0 0 .064-.172.595.595 0 0 1 .074-.175.36.36 0 0 0 .057-.134.932.932 0 0 1 .076-.2c.033-.065.072-.163.086-.217a.294.294 0 0 1 .046-.111.457.457 0 0 0 .056-.142.752.752 0 0 1 .076-.184.69.69 0 0 0 .072-.18.677.677 0 0 1 .077-.187.528.528 0 0 0 .065-.185c.01-.07.04-.15.063-.18a.424.424 0 0 0 .058-.168c.032-.234.07-.229.179.027zm-5.678-.114c.018.045.052.118.076.162a.82.82 0 0 1 .064.192.538.538 0 0 0 .067.177c.024.035.05.1.058.146.007.045.04.135.075.2a.586.586 0 0 1 .062.152c0 .02.03.09.065.155a.646.646 0 0 1 .065.154c0 .018.03.092.066.163a.691.691 0 0 1 .065.171c0 .023.024.087.052.143.029.056.064.141.08.189.014.047.05.13.076.184.027.054.062.143.076.197a.426.426 0 0 0 .06.134c.075.086-.011.095-1.043.101-1.167.008-1.149.015-.942-.344a.609.609 0 0 0 .06-.153.541.541 0 0 1 .057-.145.974.974 0 0 0 .076-.186.545.545 0 0 1 .064-.15.553.553 0 0 0 .062-.159.708.708 0 0 1 .076-.185c.023-.034.05-.1.058-.147a.448.448 0 0 1 .06-.148.717.717 0 0 0 .075-.185 1.13 1.13 0 0 1 .082-.212.64.64 0 0 0 .064-.184.524.524 0 0 1 .057-.165.523.523 0 0 0 .056-.165c.03-.189.079-.223.131-.092z" fill="#626359"/></g></svg>