<svg width="36" height="36" fill="none" xmlns="http://www.w3.org/2000/svg"><path d="M18 0c2.837 0 5.52.656 7.907 1.825C31.884 4.753 36 10.895 36 18c0 9.942-8.058 18-18 18-9.94 0-18-8.057-18-18C0 8.06 8.06 0 18 0z" fill="#F2F4F7"/><path d="m12.839 16.503.701 1.44.702-1.44h1.066v2.88h-1.066v-1.44l-.702 1.44-.701-1.44v1.44h-1.066v-2.88h1.066zm2.82 2.879.823-2.879h1.876l.836 2.88h-1.066l-.135-.475H16.86l-.135.474h-1.066zm1.768-2.452-.432 1.503h.863l-.431-1.503z" fill="#ED192D"/><path fill-rule="evenodd" clip-rule="evenodd" d="M21.515 16.503c.473 0 .85.38.85.838a.845.845 0 0 1-.85.839h-.917v1.202h-1.066v-2.879h1.983zm-.675.332c.243 0 .473.127.473.38a.464.464 0 0 1-.473.474h-.229v-.854h.23z" fill="#ED192D"/><path d="M22.73 16.503h2.833v.475h-1.767v.727h1.767v.475h-1.767v1.202H22.73v-2.879zm7.502 2.405H32v.474h-2.834v-2.879H32v.475h-1.768v.727H32v.475h-1.768v.728z" fill="#ED192D"/><path fill-rule="evenodd" clip-rule="evenodd" d="M28.762 18.655v.727h-1.04v-.727a.482.482 0 0 0-.472-.475h-.23v1.202h-1.092v-2.879h2.118c.392 0 .716.316.716.712a.728.728 0 0 1-.716.728c.392 0 .702.3.716.696v.016zm0-.016v.016-.016zm-1.512-1.804c.23 0 .472.127.472.38a.472.472 0 0 1-.472.474h-.23v-.854h.23z" fill="#ED192D"/><path d="M6.955 15a2.943 2.943 0 0 1 0 5.885A2.946 2.946 0 0 1 4 17.943 2.946 2.946 0 0 1 6.955 15z" fill="#ED192D"/><path d="M6.955 15.269a2.68 2.68 0 0 0-2.672 2.674A2.666 2.666 0 0 0 6.955 20.6a2.654 2.654 0 0 0 2.658-2.658 2.668 2.668 0 0 0-2.658-2.674z" fill="#fff"/><path fill-rule="evenodd" clip-rule="evenodd" d="M7.562 16.867c.068.016.108.079.108.158a.15.15 0 0 1-.04.11l-.594 1.03c-.013.03-.054.063-.08.063-.041 0-.068-.032-.082-.064l-.607-1.028a.25.25 0 0 1-.027-.11c0-.064.04-.127.094-.16.014 0 .014 0 .027-.015a1.76 1.76 0 0 1 .594-.095c.203 0 .405.032.594.095 0 .016.013.016.013.016zm-1.78.332c.053-.032.12-.032.161 0 .04.016.054.032.068.063l.485.839c.014.032.014.063 0 .08-.013.03-.04.046-.067.03l-.972.017a.223.223 0 0 1-.094-.032.167.167 0 0 1-.068-.127v-.015c.027-.159.081-.317.176-.475a1.57 1.57 0 0 1 .31-.38zm2.334 0c-.04-.032-.108-.032-.162 0-.027.016-.054.032-.054.063l-.486.839c-.014.032-.027.063-.014.08.027.03.054.046.081.03l.972.017c.027 0 .054-.016.081-.032.054-.032.08-.08.08-.127v-.015a2.254 2.254 0 0 0-.175-.475 1.358 1.358 0 0 0-.323-.38zM7.09 18.512v.902h-.283v-.902h-1.35a.392.392 0 0 1-.23-.063.446.446 0 0 1-.228-.396c.013-.015.013-.047.013-.063.027-.19.094-.38.202-.553.108-.175.23-.333.378-.46a.523.523 0 0 1 .378-.078.453.453 0 0 1 .23-.285c.026-.016.04-.016.053-.032.216-.079.46-.11.702-.11.243 0 .472.031.702.11.121.063.23.174.283.317a.46.46 0 0 1 .351.063c.149.126.297.3.405.474.094.174.162.364.202.554v.064a.41.41 0 0 1-.216.395.465.465 0 0 1-.242.063H7.09z" fill="#ED192D"/></svg>