<svg width="36" height="36" fill="none" xmlns="http://www.w3.org/2000/svg"><path d="M18 0c2.837 0 5.52.656 7.907 1.825C31.884 4.753 36 10.895 36 18c0 9.942-8.058 18-18 18-9.94 0-18-8.057-18-18C0 8.06 8.06 0 18 0z" fill="#F2F4F7"/><path fill-rule="evenodd" clip-rule="evenodd" d="m13.978 15 2.368 5.438s.357.707.935.964c.229.102.732.07.732.07s.958-.114.98-1.25c.013-.677-.436-.964-.7-1.124-.488-.295-2.33-.804-2.278-2.158.032-.867.776-1.71 1.73-1.71.637 0 .789.28 1.146.28.42 0 .61-.344.61-.344l.179 1.723h-.178s-.382-1.455-1.756-1.455c-.993 0-.99.906-.993 1.009-.026.676.742 1.023 1.603 1.34 1.006.37 1.63 1.174 1.655 1.864.025.69-.605 1.966-2.151 2.023-.89.033-1.184-.35-1.744-.262-.335.054-.483.383-.483.383l-1.082-2.744h-2.1l-.458 1.034s-.331.727-.077 1.085c.255.357.79.294.79.294v.204H9.142v-.204s.407.127.687-.256c.28-.383.23-.715.23-.715v-4.71l-2.317 5.885-2.444-5.77-.025 4.238s.038.893.292 1.123c.255.23.611.23.611.23v.179H4v-.179s.552.047.764-.332c.292-.523.305-1.098.305-1.098v-3.778s-.059-.35-.178-.486c-.204-.23-.687-.28-.687-.28v-.128h2.112l1.859 4.52 1.794-4.52h1.973v.128s-.4.035-.56.153c-.242.179-.255.357-.255.357v5.31l.115-.19s.254-.588.407-.881a31.9 31.9 0 0 0 .726-1.57c.089-.23 1.603-3.69 1.603-3.69zm-1.463 3.843 1.018-2.35.942 2.35h-1.96zm12.816.88s-.344 1.66-2.151 1.724c-1.654.058-1.91-2.055-1.896-2.885.011-.77.152-3.152 1.972-3.166 1.604-.013 1.998 1.519 1.998 1.519h.128l-.115-1.8s-.241.319-.623.37c-.382.051-.535-.306-1.426-.28-.89.025-3.08.637-3.105 3.344-.026 2.643 2.316 3.166 3.003 3.14.357-.013 1.42-.045 2.139-1.136.496-.753.076-.83.076-.83zm1.298-1.314c0-1.707.776-3.077 2.113-3.064 1.425-.026 2.085 1.357 2.085 3.063 0 1.707-.8 3.039-2.098 3.039-1.362-.026-2.1-1.332-2.1-3.038zm-1.17 0c0-1.903 1.483-3.256 3.283-3.256 1.8 0 3.258 1.2 3.258 3.255a3.268 3.268 0 0 1-3.27 3.256c-1.8 0-3.348-1.277-3.272-3.256z" fill="#323E48"/></svg>