<svg width="36" height="36" fill="none" xmlns="http://www.w3.org/2000/svg"><path d="M18 0c2.837 0 5.52.656 7.907 1.825C31.884 4.753 36 10.895 36 18c0 9.942-8.058 18-18 18-9.94 0-18-8.057-18-18C0 8.06 8.06 0 18 0z" fill="#F2F4F7"/><path d="M22.962 14.28c.262 0 .475-.51.475-1.137 0-.628-.213-1.137-.475-1.137-.263 0-.476.51-.476 1.137s.213 1.136.476 1.136zm-4.401 2.245.958 7.354h-.726l-.324-2.504h-1.302l-.304 2.504h-.508l.852-7.255c.191-1.334 1.19-1.327 1.354-.099zm-.905.714-.403 3.31h1.104l-.43-3.31c-.04-.31-.231-.324-.27 0zm4.936-1.612h.733v8.252h-.733v-8.252zm7.618-.013c-.992 0-1.79 1.85-1.79 4.13 0 2.279.798 4.129 1.79 4.129.99 0 1.79-1.85 1.79-4.13s-.8-4.13-1.79-4.13zm.006 7.63c-.515 0-.925-1.565-.925-3.5 0-1.937.416-3.503.925-3.503.515 0 .925 1.566.925 3.502 0 1.936-.41 3.502-.925 3.502zm-4.281-3.038.436-3.555c.159-1.36 1.38-1.374 1.38.113v7.115h-.733v-6.627c0-.343-.178-.33-.224-.013l-.74 6.046c-.106.773-.357.806-.463 0l-.78-6.052c-.026-.251-.138-.37-.138.02v6.626h-.496V16.75c0-1.334 1.024-1.612 1.256-.052l.502 3.508zm-6.132 2.94.073.522c.178.172 2.088.958 2.088-1.95 0-2.754-1.606-2.887-1.606-4.274 0-.707.152-1.473 1.309-1.117v-.594c-1.368-.45-1.963.456-1.963 2.233 0 2.3 1.54 2.233 1.54 4.05 0 1.625-1.018 1.275-1.44 1.13zm-6.501.734-1.764-9.647v9.646h-.495V12.006h1.11l1.394 7.52 1.268-7.52h1.057V23.88h-.925v-9.646l-1.645 9.646z" fill="#000"/><path d="m6.338 18.257.641-3.211h1.85C8.393 13.229 7.547 12 6.583 12c-1.295 0-2.366 2.207-2.55 5.08h1.823l.482 1.177z" fill="#CE0E2D"/><path d="m7.838 16.103-1.17 5.748-1.506-3.7h-1.15c.047 3.185 1.183 5.729 2.57 5.729 1.421 0 2.577-2.663 2.577-5.94 0-.641-.046-1.256-.125-1.837H7.838z" fill="#CE0E2D"/><path d="m6.979 15.046-.64 3.21-.477-1.169h-1.83s-.013.16-.026.49c-.013.33 0 .58 0 .58h1.15l1.506 3.7 1.17-5.747h1.195s-.046-.35-.086-.575a5.607 5.607 0 0 0-.112-.49h-1.85z" fill="#fff"/></svg>