<svg width="36" height="36" fill="none" xmlns="http://www.w3.org/2000/svg"><path d="M18 0c2.837 0 5.52.656 7.907 1.825C31.884 4.753 36 10.895 36 18c0 9.942-8.058 18-18 18-9.94 0-18-8.057-18-18C0 8.06 8.06 0 18 0z" fill="#F2F4F7"/><path d="M8.84 20.877h1.046v-5.859H8.18l-1.24 4.355-1.256-4.355H4v5.858h1.055V16.42l1.32 4.457h1.154l1.31-4.457v4.457zm4.336-1.662c0 .616-.377.952-1.073.952-.44 0-.74-.21-.74-.525 0-.368.255-.539 1.144-.75.368-.085.44-.112.67-.256v.58zm6.047-1.459c0-.282.32-.484.768-.484.476 0 .759.193.871.597h.934c-.09-.853-.781-1.392-1.832-1.392-1.001 0-1.715.57-1.715 1.383 0 .319.121.588.36.799.282.247.78.422 1.575.552.57.099.732.193.732.467 0 .337-.332.552-.826.552-.561 0-.862-.229-.96-.723h-.962l-.027-.009c-.134.413-.336.674-.718.66-.386-.009-.646-.202-.705-.835l-.004-.04V17.28h.875v-.67h-.884V15H15.64v1.612h-.907v.669h.907v1.836c.004.745-.337 1-.727 1-.31 0-.624-.183-.692-.722V18.17c0-.668-.112-1.01-.43-1.293-.293-.255-.809-.404-1.433-.404-.705 0-1.239.194-1.549.553-.184.22-.247.395-.31.835h1.002c.036-.404.34-.633.853-.633.458 0 .772.22.772.552 0 .265-.166.368-.67.43-.52.055-.87.122-1.193.239-.633.229-1.02.687-1.02 1.23 0 .723.715 1.302 1.585 1.302.494 0 .916-.148 1.374-.512l.279-.215c.31.43.754.69 1.32.69a1.73 1.73 0 0 0 1.315-.587c.332.368.776.624 1.306.624.458 0 .871-.184 1.19-.485.337.319.844.485 1.495.485 1.09 0 1.818-.552 1.818-1.392 0-.386-.14-.705-.413-.925-.22-.184-.467-.273-1.109-.386-1.06-.18-1.18-.233-1.18-.52zm6.164 1.01c0 .854-.458 1.428-1.127 1.428-.687 0-1.118-.552-1.118-1.44 0-.872.45-1.433 1.145-1.433.66-.005 1.1.575 1.1 1.446zm1.1 0c0-1.301-.97-2.284-2.236-2.284-1.275 0-2.208.96-2.208 2.262 0 1.311.933 2.254 2.226 2.254 1.28-.005 2.218-.948 2.218-2.231zm3.062 2.11h1.077v-2.742c0-1.002-.588-1.652-1.495-1.652-.503 0-.898.228-1.248.713v-.588h-1.082v4.274h1.082v-2.447c0-.606.35-1.01.89-1.01.475 0 .78.341.78.871v2.581h-.004zm2.065-.166c0 .054-.04.081-.135.081h-.116v-.157h.13c.085 0 .12.023.12.076zm.013.369h.095c-.01-.032-.01-.036-.01-.045l-.004-.023-.004-.036-.005-.036a.121.121 0 0 0-.009-.04.152.152 0 0 0-.013-.036l-.023-.027-.004-.027c.045-.036.058-.063.058-.108 0-.098-.072-.148-.202-.148h-.242v.521h.099v-.21h.116c.104 0 .122.017.13.13.005.058.005.062.018.085zm.274-.256a.42.42 0 0 1-.84 0c0-.234.19-.418.423-.418a.411.411 0 0 1 .417.418zm.099 0a.512.512 0 0 0-.512-.512.509.509 0 1 0 0 1.02.514.514 0 0 0 .512-.508z" fill="#1D68A6"/></svg>