<svg width="36" height="36" xmlns="http://www.w3.org/2000/svg"><g fill="none"><path d="M18 0c2.837 0 5.52.656 7.907 1.825C31.884 4.753 36 10.895 36 18c0 9.942-8.058 18-18 18-9.94 0-18-8.057-18-18C0 8.06 8.06 0 18 0z" fill="#F2F4F7"/><path d="M13.694 15.27c.347 0 .598.193.598.541 0 .193-.077.444-.212.753l-1.487 3.67-1.68-3.805c-.135-.29-.193-.502-.193-.715 0-.231.193-.444.618-.444v-.173H8.866v.173c.502 0 .657.174.946.85l2.376 5.465h.135l2.22-5.407c.27-.637.618-.927.889-.927v-.154h-1.719v.173h-.02zm-9.636-.173v.173c.695 0 .85.174.85.753v4.249c0 .907-.136 1.004-.85 1.004v.174h4.866l.54-1.719-.134-.039c-.522 1.294-.889 1.487-1.99 1.487h-.675c-.85 0-.888-.019-.888-1.062v-3.862c0-.792.154-.965 1.004-.965v-.193H4.058zm20.14.173v-.173h-1.583l-2.317 5.02-2.414-5.02h-1.622v.173c.676 0 .83.213.83.83v4.152c0 .908-.173 1.005-.83 1.005v.173h1.97v-.173c-.676 0-.83-.097-.83-1.005v-4.151l2.452 5.33h.154l2.433-5.33v4.151c0 .908-.135 1.005-.888 1.005v.173H24.2v-.173c-.734 0-.85-.116-.85-1.005v-4.248c0-.56.174-.734.85-.734m2.607 1.004c0-.888.135-1.004.85-1.004v-.173h-2.588v.173c.733 0 .85.116.85 1.004v3.978c0 .889-.136 1.005-.85 1.005v.173h2.587v-.173c-.734 0-.85-.116-.85-1.005v-1.68c0-.173.078-.231.27-.231h2.8c.213 0 .271.077.271.29v1.621c0 .889-.135 1.005-.85 1.005v.173h2.588v-.173c-.734 0-.85-.116-.85-1.005v-3.978c0-.888.136-1.004.85-1.004v-.173h-2.587v.173c.733 0 .85.116.85 1.004v1.487c0 .232-.059.29-.271.29h-2.82c-.193 0-.27-.058-.27-.212v-1.565h.02z" fill="#181818"/></g></svg>