<svg width="36" height="36" fill="none" xmlns="http://www.w3.org/2000/svg"><path d="M18 0c2.837 0 5.52.656 7.907 1.825C31.884 4.753 36 10.895 36 18c0 9.942-8.058 18-18 18-9.94 0-18-8.057-18-18C0 8.06 8.06 0 18 0z" fill="#F2F4F7"/><path d="M31.17 16.073v2.366l-1.356-2.366h-1.076v3.667h.832v-2.43l1.393 2.43H32v-3.667h-.83zm-24.545 0-.73 2.242-.728-2.242H4v3.668h.811v-2.506c.13.433.76 2.505.76 2.505h.616s.665-2.092.794-2.514v2.514h.816v-3.667H6.63m10.783 3.667h-2.71v-3.667h2.71v.711h-1.828v.683h1.675v.71h-1.675v.852h1.828v.71z" fill="#005A8C"/><path d="M10.528 19.077H8.541v.663h1.987v-.663z" fill="#EF8200"/><path d="M13.175 16.073s-.98 1.227-1.122 1.39v-1.39h-.834v3.668h.834v-1.62c.146.175 1.15 1.619 1.15 1.619h1.167s-1.546-1.902-1.602-1.963l1.51-1.704h-1.103zm11.522 1.823c0 1.132.599 1.918 1.734 1.918 1.136 0 1.733-.803 1.733-1.918 0-1.114-.622-1.896-1.738-1.896s-1.734.767-1.734 1.896h.005zm.88 0c0-.556.247-1.125.849-1.125s.85.57.85 1.125-.228 1.145-.85 1.145-.85-.574-.85-1.145zm-5.836-.386c-.4-.106-.778-.17-.786-.429a.238.238 0 0 1 .082-.188c.141-.13.463-.172.717-.153.323.014.638.106.918.269l.18-.747a3.63 3.63 0 0 0-1.334-.26c-.92.01-1.488.462-1.488 1.182s.699.921 1.284 1.09c.382.106.763.163.763.447 0 .284-.46.389-.77.389a2.053 2.053 0 0 1-1.079-.325l-.237.738c.529.208.849.297 1.36.297.559 0 1.019-.154 1.296-.434a1.055 1.055 0 0 0 .309-.769c0-.746-.656-.954-1.214-1.098m3.327-.009c-.401-.106-.778-.17-.789-.429a.249.249 0 0 1 .08-.188c.143-.13.463-.172.716-.153a2 2 0 0 1 .92.269l.178-.746a3.622 3.622 0 0 0-1.334-.26c-.919.01-1.488.462-1.488 1.182s.699.922 1.285 1.09c.38.106.762.163.762.447 0 .284-.46.39-.77.39a2.05 2.05 0 0 1-1.079-.326l-.238.739c.528.207.85.297 1.361.297.556 0 1.019-.155 1.296-.435a1.063 1.063 0 0 0 .308-.768c0-.747-.659-.954-1.214-1.098M9.778 18.694c.292.006.581-.051.849-.169l-.253-.592a.836.836 0 0 1-.437.122c-.43 0-.785-.214-.785-.704s.355-.704.785-.704a.85.85 0 0 1 .437.12l.253-.592a2.026 2.026 0 0 0-.85-.171c-.877 0-1.434.504-1.434 1.345 0 .842.557 1.343 1.435 1.343" fill="#005A8C"/></svg>