<svg height="36" viewBox="0 0 36 36" width="36" xmlns="http://www.w3.org/2000/svg"><mask id="a" fill="#fff"><path d="M0 0h24.385v1.993H0z" fill-rule="evenodd"/></mask><mask id="b" fill="#fff"><path d="M0 0h5.83v5.831H0z" fill-rule="evenodd"/></mask><g fill="none" fill-rule="evenodd"><path d="M18 0c2.837 0 5.52.656 7.907 1.825C31.884 4.753 36 10.895 36 18c0 9.942-8.058 18-18 18-9.94 0-18-8.057-18-18C0 8.06 8.06 0 18 0z" fill="#f2f4f7" fill-rule="nonzero"/><path d="M23.21.458h.409l-.025.186c.123-.136.247-.211.421-.211.297 0 .408.173.359.483l-.124.681h-.458l.111-.595c.025-.111.013-.21-.123-.21s-.186.087-.211.223l-.111.582h-.446zm-1.597.582c-.062.396.186.594.545.594.371 0 .681-.198.755-.619.062-.347-.148-.582-.544-.582-.384 0-.681.211-.756.607zm.706-.31c.124 0 .173.124.148.285-.049.222-.135.309-.259.309-.112 0-.174-.087-.137-.309.025-.124.099-.285.248-.285zM21.13 0h.458l-.062.321h-.445zm-.272 1.597.198-1.139h.446l-.198 1.139zm-.26 0c-.594.037-.668 0-.594-.397l.086-.482h-.16l.036-.26h.174l.062-.347h.445l-.061.347h.21l-.037.26h-.223l-.074.421c-.012.098 0 .136.124.136h.061zm-.928 0v-.013c-.05-.05-.037-.086-.037-.148l.099-.533c.049-.272.049-.47-.483-.47-.458 0-.656.136-.693.383h.433c.025-.098.112-.111.174-.111.049 0 .148.013.135.087-.036.21-.804-.024-.891.495-.049.235.124.347.335.347a.652.652 0 0 0 .458-.161v.124zm-.668-.223c-.1 0-.137-.037-.137-.087.037-.148.223-.124.384-.185-.025.148-.099.272-.247.272zM17.627.458h.409l-.05.235h.013c.086-.173.222-.26.396-.26h.049l-.074.458c-.025-.012-.062-.012-.087-.012-.185 0-.297.087-.346.334l-.062.384h-.458zm-1.597.582c-.062.396.186.594.545.594.371 0 .681-.198.755-.619.062-.347-.136-.582-.544-.582-.384 0-.681.211-.756.607zm.706-.31c.124 0 .173.124.149.285-.038.222-.136.309-.248.309-.124 0-.186-.087-.149-.309.025-.124.099-.285.248-.285zm-2.03-.272-.26 1.535h.446l.086-.508a.298.298 0 0 0 .273.149c.247 0 .557-.161.631-.607.062-.322-.062-.594-.396-.594-.136 0-.31.062-.396.198l.024-.173zm.483.829c-.112 0-.162-.111-.136-.272.024-.149.123-.247.222-.247.124 0 .186.086.161.259-.037.161-.123.26-.247.26zM13.691.458h.421l-.049.235h.012c.086-.173.21-.26.396-.26h.049l-.074.458c-.025-.012-.062-.012-.087-.012-.185 0-.296.087-.346.334l-.062.384h-.458zm-1.585.582c-.062.396.186.594.545.594.371 0 .681-.198.755-.619.062-.347-.136-.582-.544-.582-.384 0-.681.211-.756.607zm.706-.31c.124 0 .173.124.148.285-.037.222-.136.309-.26.309-.111 0-.173-.087-.136-.309.025-.124.1-.285.248-.285zM11.549.631c.013-.16-.074-.247-.235-.247-.186 0-.322.148-.371.445-.037.223-.025.434.235.434.161 0 .26-.124.309-.273h.495a.884.884 0 0 1-.866.656c-.52 0-.78-.322-.681-.829.087-.507.483-.817.916-.817.483 0 .706.235.681.631zm-2.785.619a.094.094 0 0 0 .025.099c.025.025.062.037.111.037.062 0 .136-.025.161-.099.025-.185-.693-.037-.619-.482.05-.285.372-.372.607-.372.247 0 .532.049.495.359h-.409c0-.037 0-.063-.024-.087-.025-.024-.05-.024-.087-.024-.074 0-.136.024-.148.074-.025.161.717.05.643.482-.049.236-.272.397-.681.397-.259 0-.532-.087-.507-.384zM7.848.644c.074-.013.112-.038.149-.062.037-.038.049-.087.062-.149h-.174L7.96.037h.396l-.063.347c-.037.26-.259.445-.47.433zm-.842.519.322-.705h.433l-.544 1.064c-.186.359-.248.47-.656.47-.087 0-.161-.012-.198-.012l.062-.322c.024 0 .061.013.086.013.149 0 .186-.05.161-.174L6.474.458h.458zm-.841.434.272-1.56h-.446l-.099.545C5.818.471 5.719.433 5.583.433c-.273 0-.533.248-.595.619-.061.322.075.582.409.582.148 0 .26-.05.384-.186l-.025.149zm-.595-.285c-.148 0-.148-.149-.136-.26.025-.123.087-.273.248-.273.149 0 .161.137.136.261-.012.136-.087.272-.248.272zM3.54 1.04c-.061.396.186.594.545.594.371 0 .681-.198.755-.619.062-.347-.136-.582-.545-.582-.383 0-.681.211-.755.607zm.706-.31c.124 0 .173.124.149.285-.038.222-.137.309-.261.309-.111 0-.173-.087-.136-.309.025-.124.099-.285.248-.285zm-2.154.31c-.062.396.186.594.545.594.371 0 .68-.198.755-.619.062-.347-.137-.582-.545-.582-.384 0-.681.211-.755.607zm.705-.31c.124 0 .174.124.149.285-.037.222-.136.309-.26.309-.111 0-.173-.087-.136-.309.025-.124.099-.285.247-.285zM0 1.597.272.037h.619l.111.978.446-.978h.619l-.272 1.56h-.471l.087-.471.049-.247.075-.285-.458 1.003H.718L.606.594.582.829l-.025.248-.099.52z" fill="#000" mask="url(#a)" transform="translate(7.615 18.722)"/><path d="M1.387 2.414H.05a1.39 1.39 0 0 0-.038.322h1.375zm2.488 0h-.26l-.124.322h.384zm-.495 0h-.953l.136.322h.693zm1.027.322h1.41c0-.112-.011-.211-.036-.322H4.407zm-2.562-.322H1.61v.322h.37zm-.458-.83H.322a2.478 2.478 0 0 0-.136.323h1.2zm3.02.323h1.238a2.478 2.478 0 0 0-.136-.323H4.408v.323zM2.08 1.584l.136.323H3.59l.136-.323zm-.768-.185h-.086c-.025 0-.025 0-.025-.012v-.05c0-.012.013-.012.013-.012h.755l.074.161h1.72l.062-.161h.768s.012 0 .012.012v.05c0 .012 0 .012-.012.012h-.111c-.05 0-.075.012-.075.087h1.052c-.074-.112-.148-.236-.235-.347H4.74a.637.637 0 0 1-.074.099H1.139c-.012-.025-.05-.062-.062-.099h-.47c-.087.111-.161.235-.236.347h1.016c0-.075-.025-.087-.075-.087zM.458 4.494c.075.098.149.198.223.284h.31c.024-.025.049-.049.074-.086.012-.037.062-.087.074-.124h3.528c.025.037.062.098.087.124.024.037.037.061.062.086h.334a2.42 2.42 0 0 0 .21-.284zM.916.842h3.986s-.025.099-.1.21h.348a3.267 3.267 0 0 0-.347-.359H1.04a2.486 2.486 0 0 0-.36.359h.323a.99.99 0 0 1-.087-.21zM3.974.198A3.012 3.012 0 0 0 2.909 0c-.36 0-.718.074-1.04.198zM1.152.606h3.527a2.57 2.57 0 0 0-.495-.309H1.647a2.57 2.57 0 0 0-.495.309zm3.713 4.271c.025.062.037.1.037.1H.916s0-.038.025-.1H.768c.086.112.198.211.309.297h3.677c.11-.086.21-.185.309-.297zM3.553 2.006h-1.3l.136.322h1.028zm.322 0h-.087l-.136.322h.223zm-2.204 0H1.61v.322h.197zm2.736.321h1.362c-.025-.111-.05-.223-.087-.322H4.407zm-3.02-.321H.149c-.037.098-.062.21-.087.322h1.325zM4.63 5.261H1.2c.137.111.286.198.447.273h2.537c.16-.075.309-.162.446-.273zm-2.773.371c.334.124.68.199 1.052.199s.73-.075 1.052-.199zM5.83 2.835H4.407v.334h1.41c0-.087.014-.173.014-.26zm-4.444 0H0v.074c0 .087.012.173.012.26h1.375zm1.832 0h-.62l.137.334h.334zm.235 0-.136.334h.557v-.334zm-1.436 0H1.61v.334h.544zM1.2 4.395c0-.013 0-.013.025-.013h.062c.062 0 .099 0 .099-.086v-.211H.247c.047.107.1.21.162.31zm3.206-.31v.211c0 .086.037.086.099.086h.087c.012 0 .012 0 .012.013h.817c.062-.1.11-.198.16-.31zm-1.46 0-.137.31h.83c0-.013 0-.013.024-.013h.112c.049 0 .099 0 .099-.086v-.211zm-.286.31-.123-.31H1.61v.211c0 .086.049.086.098.086h.075c.012 0 .012 0 .012.013zm-1.274-.718H.099c.038.111.075.21.112.309h1.176zm3.02 0v.309H5.62c.038-.099.075-.198.1-.309zm-1.3 0-.123.309h.89v-.309zm-.742 0H1.61v.309h.89zm2.042-.409v.322h1.337c.025-.111.05-.222.062-.322zm-3.02 0H.025c.012.099.037.21.062.322h1.3zm1.894 0-.137.322h.73v-.322zm-1.09 0h-.58v.322h.717zm.694.272-.112-.272h.26l-.111.272c0 .013 0 .025-.013.025-.012 0-.012-.012-.024-.025z" fill="#1c74bb" mask="url(#b)" transform="translate(4 12)"/></g></svg>