<svg width="36" height="36" fill="none" xmlns="http://www.w3.org/2000/svg"><path d="M18 0c2.837 0 5.52.656 7.907 1.825C31.884 4.753 36 10.895 36 18c0 9.942-8.058 18-18 18-9.94 0-18-8.057-18-18C0 8.06 8.06 0 18 0z" fill="#F2F4F7"/><path d="m17.347 18.529 1.335-.151c1.49-.18 2.41-1.166 2.41-2.218s-.868-1.82-2.358-1.637l-2.694.321v6.18l1.307-.17V18.53zm0-2.765 1.34-.155c.641-.076 1.066.221 1.066.721 0 .505-.387.892-1.029.967 0 0-.056.005-.391.076-.618.127-.982 1.094-.982 1.094v-2.703h-.004zm5.486 1.689c0-.59.491-.849.91-.9.416-.053.92.094.92.693v2.057c0 .858 1.308.542 1.308.542V16.92c0-.953-.722-1.575-1.883-1.434-.467.057-.99.269-1.255.623V14l-1.306.09v6.232l1.306-.109v-2.76zm-11.624 4.142v-6.241c-.524.052-.977.037-1.406.797-.486.859-1.845 3.571-1.845 3.571L6.415 15.33 4 22.496c.736-.103 1.505-.066 1.868-1.132.425-1.245.68-2.005.68-2.005l1.217 3.482 2.142-4.053v2.982l1.302-.175zm19.026-5.835c-.094.297-.57 1.717-.967 2.906-.014 0-.174.042-.188.042-.887.137-1.279-.099-1.279-.707v-2.119c0-.74-1.307-.367-1.307-.367v3c0 .698.288 1.24.83 1.27.444.023.906-.01 1.723-.355-.194.571-.316.892-.316.892-.16.519-.534.472-1.303.566-.764.094-.608 1.222-.608 1.222 1.816-.25 2.694-.005 3.293-1.821L32 14.797c-.712.095-1.467.029-1.765.963zm-16.266 5.61c.73-.09 1.278-.355 1.745-.826 0 0-.4-.85-1.297-.326a1.219 1.219 0 0 1-.448.137c-.316.038-.557-.028-.75-.203-.203-.193-.293-.495-.293-.972 0-.476.09-.792.293-1.033.193-.222.438-.35.75-.387.344-.042.58.033.854.255l.721-.74c-.467-.36-1.099-.581-1.642-.524-1.056.108-2.297.76-2.297 2.59 0 1.83 1.311 2.156 2.364 2.028z" fill="#004275"/></svg>