<svg height="36" viewBox="0 0 36 36" width="36" xmlns="http://www.w3.org/2000/svg"><mask id="a" fill="#fff"><path d="M0 0h26v9.767H0z" fill-rule="evenodd"/></mask><g fill="none" fill-rule="evenodd"><path d="M18 0c2.837 0 5.52.656 7.907 1.825C31.884 4.753 36 10.895 36 18c0 9.942-8.058 18-18 18-9.94 0-18-8.057-18-18C0 8.06 8.06 0 18 0z" fill="#f2f4f7" fill-rule="nonzero"/><path d="M4.2 4.561V2.568a.564.564 0 0 0-.17-.403.59.59 0 0 0-.41-.169h-.106a.59.59 0 0 0-.412.169.568.568 0 0 0-.17.403V4.56H2.1V2.568a.568.568 0 0 0-.17-.403.59.59 0 0 0-.41-.169h-.107a.586.586 0 0 0-.41.169.565.565 0 0 0-.172.403V4.56H0V2.568c0-.382.159-.73.415-.98a1.42 1.42 0 0 1 .998-.407h.106c.388 0 .741.155.997.407.256-.252.609-.407.998-.407h.105c.389 0 .742.156.999.408.255.25.415.597.415.979V4.56zm7.206-2.565h-.421a.75.75 0 0 0-.528.217.725.725 0 0 0-.22.518v1.83h-.832v-1.83c0-.427.178-.814.464-1.095a1.59 1.59 0 0 1 1.116-.455h.42zm1.75-.793h.338c.734 0 1.347.524 1.473 1.21h-.951c-.108-.272-.378-.53-.691-.53a.736.736 0 0 0-.741.725v.642c0 .4.333.726.741.726a.74.74 0 0 0 .722-.567h.935a1.49 1.49 0 0 1-1.488 1.313h-.338c-.824 0-1.497-.66-1.497-1.468V2.67c0-.807.673-1.468 1.497-1.468zm7.173 0c.346 0 .632.185.892.403V.652c0-.359.3-.652.664-.652h.265v3.409h.006a1.492 1.492 0 0 1-1.489 1.313h-.338c-.823 0-1.497-.66-1.497-1.468V2.67c0-.807.674-1.468 1.497-1.468zm.892 1.274-.032-.064a.742.742 0 0 0-.69-.465.736.736 0 0 0-.742.727v.575c0 .4.334.726.741.726a.74.74 0 0 0 .723-.567zm2.952-1.274h.339c.733 0 1.348.524 1.473 1.21h-.008c.015.083.023.17.023.258v.583c0 .052-.003.104-.008.155H26a1.49 1.49 0 0 1-1.488 1.313h-.347a1.49 1.49 0 0 1-1.487-1.313h.008a1.433 1.433 0 0 1-.008-.155V2.67c0-.089.007-.175.023-.258h-.009c.126-.686.74-1.21 1.473-1.21zm.166.745a.734.734 0 0 0-.737.727v.575c0 .398.331.724.737.726a.735.735 0 0 0 .736-.726v-.575c0-.4-.33-.726-.736-.727zm-7.88-.745h.897c.556 0 1.011.445 1.011.991V3.4c0 .33-.044.49-.26.78a1.36 1.36 0 0 1-1.088.543h-.64c-.58 0-1.054-.465-1.054-1.034v-.081c0-.827.804-1.035 1.521-1.035.185 0 .455-.085.585-.215v-.381c-.1-.12-.295-.175-.562-.175-.44 0-.568.287-.568.514h-.853v-.12c0-.547.456-.992 1.012-.992zm.972 1.813c-.317 0-1.226.163-1.226.652 0 .248.221.45.49.45.406 0 .736-.303.736-.675zM6.207 9.701V5.633c0-.279.484-.517.909-.517v4.585zm1.778 0h.908V6.31h-.908zm0-3.7h.908v-.885h-.908zm2.674 3.7L9.513 6.316h.907l.692 2.272.604-1.98c.055-.207.263-.292.432-.292h.564l-1.146 3.385zm4.4-2.565h-.421a.75.75 0 0 0-.748.735V9.7h-.83V7.87c0-.428.177-.814.463-1.094.286-.282.68-.455 1.115-.455h.422zm1.761-.889h.339a1.5 1.5 0 0 1 1.243.655c.31.458.217.853.263 1.374H16.25v.019c0 .4.332.728.74.728.221 0 .42-.097.555-.248h1.03a1.501 1.501 0 0 1-1.415.992h-.339c-.823 0-1.496-.66-1.496-1.467v-.584c0-.807.673-1.469 1.496-1.469zm.17.681a.736.736 0 0 0-.741.727v.035h1.502c0-.355-.306-.762-.762-.762zM6.997 1.164h.339c.517 0 .974.257 1.243.655.31.456.217.852.263 1.373H6.427v.019a.744.744 0 0 0 1.295.48H8.75c-.203.576-.76.992-1.414.992h-.34c-.822 0-1.495-.66-1.495-1.468v-.583c0-.807.673-1.468 1.496-1.468zm.169.68a.736.736 0 0 0-.74.725v.038h1.501c0-.356-.305-.764-.761-.764z" fill="#262f75" mask="url(#a)" transform="translate(5 18.364)"/><path d="M24.8 12.213c0 2.88-3.362 5.213-7.508 5.213s-7.508-2.333-7.508-5.213S13.146 7 17.292 7s7.507 2.334 7.507 5.213" fill="#262f75"/><path d="M24.445 11.843c0 2.566-3.211 4.646-7.17 4.646s-7.171-2.08-7.171-4.646 3.21-4.646 7.17-4.646 7.17 2.08 7.17 4.646" fill="#fade00"/><path d="m24.534 11.573-.013-.107c-.113-.957-.658-1.859-1.574-2.606l-.066-.053-.074.04c-1.273.702-2.646.733-4.08.09-1.954-.876-2.922.138-2.96.179l-.226.231c-.399-.044-1.453.09-1.63.112-.583-.041-1.3-.273-2.13-.688l-.071-.035-.063.048c-1.002.785-1.582 1.74-1.677 2.765l.125.01-.018.124a8.523 8.523 0 0 1 2.98 1.037l.024.013a.735.735 0 0 0 .767.969.741.741 0 0 0 .43.52c.163.068.35.066.526-.003.08.23.234.403.44.487.175.071.374.07.563 0a.813.813 0 0 0 1.343.333c.076.04.39.193.72.193a.74.74 0 0 0 .564-.228c.335.01.89-.103 1.025-.57.34-.017.857-.192.994-.765.173-.01.51-.059.706-.263a.67.67 0 0 0 .122-.783c.205-.112.888-.392 3.15-1.021z" fill="#262f75"/><g fill="#fefefe"><path d="m16.02 14.513-.02-.194-.167.099a.559.559 0 0 1-.494.056c-.17-.07-.29-.235-.328-.457l-.033-.181-.157.096a.497.497 0 0 1-.45.06c-.163-.067-.275-.235-.3-.453l-.016-.149-.144.044a.479.479 0 0 1-.14.023.485.485 0 0 1-.445-.672l.024-.043a.486.486 0 0 1 .175-.183l.008-.005a.532.532 0 0 1 .098-.042c.007-.001.015-.004.023-.007a.484.484 0 0 1 .537.231l.074.131.114-.097c.168-.141.373-.19.539-.122a.497.497 0 0 1 .28.352l.046.177.148-.106c.18-.13.386-.168.556-.098.261.107.395.432.325.792l-.04.2.196-.055a.553.553 0 0 1 .153-.024.568.568 0 0 1 .557.67.367.367 0 0 1-.014.052l-.012.04a.588.588 0 0 1-.032.07l-.005.01a.574.574 0 0 1-.051.075l-.01.012a.564.564 0 0 1-.994-.302"/><path d="M20.978 13.233c-.128.133-.38.176-.536.186L19.2 12.284c-.049-.049-.11-.083-.159-.034-.047.05.004.133.054.181l1.126 1.123c-.099.557-.624.624-.799.63l-.777-.806c-.046-.052-.113-.103-.164-.056-.051.046.003.119.049.17l.693.847c-.084.353-.533.407-.735.414l-.752-.78c-.047-.051-.108-.097-.16-.05-.05.046-.005.122.041.173l.62.75c-.276.267-.777.065-.935-.01a.309.309 0 0 1 .012-.026c.01-.02.019-.038.027-.058a.799.799 0 0 0 .037-.119l.007-.036a.816.816 0 0 0-.845-.96c.02-.408-.17-.763-.497-.896a.783.783 0 0 0-.658.042.679.679 0 0 0-.062-.107l-.008-.013c-.007-.01-.017-.02-.025-.03a.678.678 0 0 0-.278-.217.746.746 0 0 0-.684.082.747.747 0 0 0-.108-.102c-.003-.002-.004-.005-.007-.006-.02-.016-.044-.027-.066-.04a.72.72 0 0 0-.508-.098l-.023.005a.865.865 0 0 0-.109.033l-.039.017a.68.68 0 0 0-.088.048l-.046.032a.858.858 0 0 0-.117.11l-.015.018-.02-.012a8.818 8.818 0 0 0-2.803-1.024c-.05-.009-.204-.017-.25-.025.118-.888.627-1.773 1.498-2.473l.218.1c.793.379 1.485.59 2.06.629h.013l.013-.001a13.938 13.938 0 0 1 1.403-.121l-.977 1.001.048.083c.168.282.441.366.707.366.371 0 .725-.164.75-.175l.018-.01s.383-.266.903-.62l.146-.099c.496-.34.856-.043.876-.027.02.017 2.151 1.692 2.924 2.337l.291.232a.415.415 0 0 1-.042.557"/><path d="m21.114 12.431-.226-.18a198.62 198.62 0 0 0-2.924-2.335c-.177-.155-.648-.35-1.177.012l-.144.098.07.103-.07-.103c-.474.322-.834.572-.897.614-.084.038-.763.324-1.07-.02l1.013-1.067.259-.265c.008-.01.885-.926 2.677-.123 1.352.606 2.703.634 3.932.086.1-.045.337-.162.434-.213.792.667 1.284 1.481 1.413 2.311-2.315.647-3.093.96-3.29 1.082"/></g></g></svg>