<svg height="36" viewBox="0 0 36 36" width="36" xmlns="http://www.w3.org/2000/svg"><mask id="a" fill="#fff"><path d="M2.344 0C.71.076-.155 1.126.023 1.567l1.105 1.819c.564.928 1.452.949 1.745.949h3.062L2.364 0z" fill-rule="evenodd"/></mask><mask id="b" fill="#fff"><path d="M0 0h19.45v4.179H0z" fill-rule="evenodd"/></mask><mask id="c" fill="#fff"><path d="M0 0h3.265v6.014H0z" fill-rule="evenodd"/></mask><mask id="d" fill="#fff"><path d="M0 0h3.266v6.014H0z" fill-rule="evenodd"/></mask><g fill="none" fill-rule="evenodd"><path d="M18 0c2.837 0 5.52.656 7.907 1.825C31.884 4.753 36 10.895 36 18c0 9.942-8.058 18-18 18-9.94 0-18-8.057-18-18C0 8.06 8.06 0 18 0z" fill="#f2f4f7" fill-rule="nonzero"/><path d="M2.344 0C.71.076-.155 1.126.023 1.567l1.105 1.819c.564.928 1.452.949 1.745.949h3.062L2.364 0z" mask="url(#a)" transform="translate(15 16)"/><path d="M17.462 2.387c0-.06.013-.12.039-.182a.543.543 0 0 1 .3-.297.635.635 0 0 1 .262-.051.59.59 0 0 1 .435.178.559.559 0 0 1 .107.17.498.498 0 0 1 .035.182zm1.578.845a1.89 1.89 0 0 1-.304.17 1.285 1.285 0 0 1-.542.098c-.226 0-.404-.056-.533-.17a.532.532 0 0 1-.199-.396h1.988v-.142c0-.235-.03-.45-.089-.646a1.449 1.449 0 0 0-.265-.507 1.24 1.24 0 0 0-.432-.33c-.17-.079-.369-.119-.595-.119s-.429.041-.607.122c-.179.082-.33.19-.453.325s-.217.292-.282.473a1.626 1.626 0 0 0-.098.562c0 .223.034.426.104.611.069.184.17.342.303.473s.295.234.486.307c.19.073.404.11.642.11.179 0 .338-.017.476-.051.139-.034.259-.073.361-.116.101-.044.183-.089.247-.134a1.83 1.83 0 0 1 .143-.098zm-9.488.101c-.056.04-.115.075-.179.105a.539.539 0 0 1-.226.044c-.115 0-.2-.036-.253-.111a.516.516 0 0 1-.08-.312V1.958h.72v-.673h-.72V.537h-.857v.748h-.442v.673h.442v1.054c0 .175.017.333.053.477a.912.912 0 0 0 .179.365c.083.101.192.18.327.238s.302.087.5.087c.318 0 .612-.107.881-.322zM16.973.291a1.135 1.135 0 0 0-.423-.226A1.712 1.712 0 0 0 16.091 0c-.142 0-.282.023-.419.068a1.022 1.022 0 0 0-.625.563 1.227 1.227 0 0 0-.098.512v.142h-.452v.673h.452v2.119h.851V1.958h.661v-.673H15.8v-.154c0-.139.036-.246.107-.322a.378.378 0 0 1 .286-.113.69.69 0 0 1 .416.137zm-3.767 3.786h.857V1.285h-.857zm-2.988 0h2.612v-.735h-1.713V.107h-.899zm-4.897-1.69c0-.06.013-.12.039-.182a.56.56 0 0 1 .301-.297.627.627 0 0 1 .261-.051.587.587 0 0 1 .435.178.523.523 0 0 1 .143.352zm1.578.845a1.846 1.846 0 0 1-.304.17 1.285 1.285 0 0 1-.542.098c-.226 0-.404-.056-.532-.17a.533.533 0 0 1-.2-.396H7.31v-.142c0-.235-.03-.45-.09-.646a1.432 1.432 0 0 0-.265-.507 1.245 1.245 0 0 0-.431-.33 1.406 1.406 0 0 0-.596-.119 1.389 1.389 0 0 0-1.059.447 1.375 1.375 0 0 0-.282.473 1.733 1.733 0 0 0 .005 1.173 1.306 1.306 0 0 0 .789.78c.19.073.405.11.643.11.178 0 .337-.017.476-.051s.259-.073.36-.116c.101-.044.184-.089.247-.134.063-.046.111-.079.143-.098zM0 4.077h.857L.958 1.5l.869 1.53h.465l.821-1.548.113 2.595h.899L3.94.107h-.857L2.071 1.97 1.035.107H.184zM13.634.966c-.265 0-.483-.218-.483-.483S13.369 0 13.634 0c.271 0 .483.212.483.483a.485.485 0 0 1-.483.483z" fill="#231f20" mask="url(#b)" transform="translate(12.55 15.968)"/><path d="M0 1.949a5.352 5.352 0 0 1 1.006 4.065h1.952c.17 0 .307-.138.307-.308V.309a.307.307 0 0 0-.383-.3A5.315 5.315 0 0 0 0 1.95" fill="#a4ce4e" mask="url(#c)" transform="translate(7.265 15)"/><path d="M2.26 6.014a5.34 5.34 0 0 1 1.006-4.065A5.324 5.324 0 0 0 .384.009a.308.308 0 0 0-.384.3v5.398c0 .17.138.308.308.308z" fill="#009bdb" mask="url(#d)" transform="translate(4 15)"/><path d="M7.265 16.949a5.352 5.352 0 0 0-1.006 4.065h2.012a5.352 5.352 0 0 0-1.006-4.065" fill="#0066a5"/></g></svg>