<svg width="36" height="36" fill="none" xmlns="http://www.w3.org/2000/svg"><path d="M18 0c2.837 0 5.52.656 7.907 1.825C31.884 4.753 36 10.895 36 18c0 9.942-8.058 18-18 18-9.94 0-18-8.057-18-18C0 8.06 8.06 0 18 0z" fill="#F2F4F7"/><path d="M18.006 31.985a13.99 13.99 0 0 0 13.882-15.757l-4.962 4.797-2.962-2.93.74-.773 2.222 2.156 4.715-4.64a13.986 13.986 0 0 0-5.908-8.5h-.46l-.807 10.425-1.02.14.863-10.442-1.917.099.058-.914 1.868-.131A13.922 13.922 0 0 0 9.786 6.683l1.646 9.635L14.79 6.272l.864-.075-.963 11.372-.88.082.518-7.076-2.41 7.224-1.235.14-1.357-7.175-.61 7.406h-.954l.922-10.598a13.955 13.955 0 0 0 .362 21.171l.823-10.59 4.608-.411v1.061l-3.703.288-.403 4.624 3.126-.213v.896l-3.233.272-.296 4.443 3.521-.296-.082.971-2.55.23a13.922 13.922 0 0 0 7.15 1.967zm2.428-14.91-4.238.387.897-11.38 4.353-.386v.995l-3.497.28-.263 3.316 2.945-.206v.848l-3.044.263-.412 5.241 3.333-.271-.082.913h.008zm-5.06.617 1.184-.057 1.794 4.887 2.69-5.299 1.21-.074-3.307 6.402 2.18 5.554-1.086.123-1.819-4.607-2.731 5.035-1.16.083 3.29-6.09-2.245-5.957z" fill="#628F00"/></svg>