<svg width="36" height="36" fill="none" xmlns="http://www.w3.org/2000/svg"><path d="M18 0c2.837 0 5.52.656 7.907 1.825C31.884 4.753 36 10.895 36 18c0 9.942-8.058 18-18 18-9.94 0-18-8.057-18-18C0 8.06 8.06 0 18 0z" fill="#F2F4F7"/><path d="M17.517 20.852c.111 0 .294-.013.389-.024.028-.004.056-.01.056-.075v-.406s0-.036-.016-.03a.999.999 0 0 1-.175.016c-.206 0-.257-.051-.257-.26v-.66s0-.036.035-.036h.433s.035 0 .035-.035v-.451s0-.036-.035-.036h-.433s-.035 0-.035-.035v-.591s0-.036-.036-.036h-.399s-.035 0-.048.033l-.232.596s-.013.033-.049.033h-.205s-.035 0-.035.035v.452s0 .035.035.035h.205s.036 0 .036.036v.821c0 .382.062.618.731.618zm-5.981-.062s0 .036.035.036h.584s.035 0 .035-.035v-1.65s0-.036.004-.036c0 0-.004 0 0 0 0 0 .004 0 .01.035.053.322.086.443.148.664l.27.988s.01.034.045.034h.576s.036 0 .045-.034l.278-.988c.058-.21.103-.382.147-.662h.003s.004 0 .004.035v1.614s0 .035.035.035h.632s.035 0 .035-.035v-2.65s0-.036-.035-.036h-.926s-.035 0-.043.035l-.422 1.811h-.004s-.004 0-.013-.034l-.46-1.778s-.009-.034-.044-.034h-.904s-.035 0-.035.035v2.65zm4.31-1.155h-.543c-.032 0-.027-.024-.024-.035.049-.198.158-.274.294-.274.172 0 .279.074.304.274 0 0 .004.035-.03.035zm.679.387v-.082c0-.982-.559-1.122-.949-1.122-.4 0-1.037.236-1.037 1.026 0 .798.522 1.023 1.063 1.023.316 0 .61-.069.855-.219.01-.005.028-.017.008-.05l-.224-.377s-.018-.03-.048-.013a1.18 1.18 0 0 1-.536.162c-.213 0-.357-.062-.388-.285 0 0-.005-.035.03-.035h1.198s.028 0 .028-.028zm2.495.845c.456 0 .904-.18.904-.703 0-.478-.478-.551-.813-.595-.198-.026-.301-.06-.301-.151 0-.088.08-.125.202-.125.148 0 .341.064.54.175.013.008.041.023.064-.011l.226-.337s.02-.03-.01-.05c-.21-.152-.46-.252-.89-.252-.445 0-.805.225-.805.666 0 .511.474.588.809.636.213.03.305.063.305.166 0 .092-.11.128-.235.128-.213 0-.493-.083-.678-.217-.01-.007-.028-.022-.044.003l-.233.354s-.02.03.009.05c.188.138.49.263.95.263zm2.205-.701s0 .035-.025.06c-.037.034-.14.089-.32.089-.092 0-.162-.044-.162-.14 0-.147.147-.238.484-.253.007 0 .023 0 .023.02v.224zm.752.627c-.027-.066-.042-.21-.042-.445v-.702c0-.556-.232-.828-.813-.828-.505 0-.809.164-.992.32-.01.007-.026.022-.006.05l.257.356s.02.028.05.008a1.04 1.04 0 0 1 .578-.193c.169 0 .216.07.216.165v.013s0 .013-.035.015c-.774.035-1.182.303-1.182.745 0 .386.28.558.563.558.29 0 .493-.114.632-.288 0 0 .022-.028.022.008 0 .064.014.144.034.217.003.011.01.034.043.034h.653s.035 0 .022-.033zm-1.67-2.654c0-.036.035-.036.035-.036h.517c.035 0 .035.036.035.036v.534c0 .035-.035.035-.035.035h-.518c-.035 0-.035-.035-.035-.035v-.534zm.834.534s0 .035.035.035h.518s.035 0 .035-.035v-.534s0-.036-.035-.036h-.518s-.035 0-.035.036v.534z" fill="#393536"/><path d="M7.262 18.465c-.022-.015-1.063-.922-1.053-.914-.01-.008-.017-.008-.016.003v.896c0 .008-.008.007-.01 0l-1.084-2.727c-.003-.006-.01-.005-.01.001v2.728c0 .004-.006.005-.008 0l-1.066-3.428c-.01-.032-.015-.032-.015.002v3.06c0 .017.003.022.015.03l.823.509a.042.042 0 0 0 .026.007h1.375c.008 0 .016.005.02.013l.587 1.495c.005.013.007.02.001.035l-.307.635c-.006.013-.007.02-.002.036l.415 1.053c.005.017.02.024.034.024h.601c.015 0 .029-.007.034-.024l.415-1.053c.005-.016.004-.023-.002-.036l-.307-.635c-.006-.015-.004-.022 0-.035l.589-1.495a.021.021 0 0 1 .02-.013H9.71c.013 0 .02-.003.026-.007l.823-.509c.012-.008.015-.014.015-.03v-3.06c0-.034-.005-.034-.015-.002l-1.066 3.429c-.002.004-.008.003-.008-.001v-2.728c0-.006-.007-.007-.01 0L8.393 18.45c-.003.007-.01.008-.01 0v-.896c0-.01-.007-.011-.017-.003.01-.008-1.03.899-1.053.914-.021.016-.03.015-.051 0z" fill="#85CE26"/><path d="M27.734 20.158s0 .036-.026.06c-.037.034-.14.09-.32.09-.09 0-.16-.044-.16-.14 0-.147.147-.238.482-.252.008 0 .024 0 .024.02v.222zm.749.626c-.027-.066-.042-.209-.042-.444v-.7c0-.554-.23-.825-.81-.825-.504 0-.807.163-.99.319-.009.007-.026.022-.006.05l.256.354s.021.029.05.008c.136-.097.349-.192.576-.192.169 0 .217.07.217.165v.013s0 .013-.036.014c-.771.035-1.178.303-1.178.743 0 .385.279.557.56.557.29 0 .492-.113.631-.287 0 0 .023-.028.023.007a.86.86 0 0 0 .033.217c.003.011.01.034.042.034h.652s.035 0 .022-.033m-4.909-.811c0 .187-.117.293-.392.293h-.322c-.045 0-.045-.044-.045-.044v-.488c0-.044.044-.044.044-.044h.315c.28 0 .4.095.4.282zm-.048-1.049c0 .158-.098.26-.362.26h-.305c-.044 0-.044-.044-.044-.044v-.432c0-.044.044-.044.044-.044h.312c.257 0 .355.099.355.26zm.697-.154c0-.597-.535-.667-.986-.667H22.14c-.044 0-.044.044-.044.044v2.625c0 .044.044.044.044.044h1.14c.458 0 1.008-.162 1.008-.752 0-.45-.25-.608-.536-.66-.043-.007-.043-.01-.043-.01v-.004c.271-.052.513-.228.513-.62m1.517 1.07c0 .312-.084.514-.323.514-.253 0-.322-.227-.322-.514 0-.307.084-.506.322-.506.25 0 .323.22.323.506zm.726-.003c0-.818-.576-1.023-1.049-1.023-.476 0-1.048.205-1.048 1.023 0 .806.575 1.019 1.048 1.019.473 0 1.049-.213 1.049-1.02m2.093-.941c0-.044.044-.044.044-.044h.638c.044 0 .044.044.044.044v.216c0 .044.002.044.002.044h.002a.674.674 0 0 1 .583-.34c.01 0 .037 0 .037.043v.553c0 .045-.015.043-.015.043a1.99 1.99 0 0 0-.169-.013.639.639 0 0 0-.405.152c-.035.027-.035.072-.035.072v1.106c0 .045-.044.045-.044.045h-.638c-.044 0-.044-.045-.044-.045v-1.876zm2.672 1.224s0 .044-.03.075a.444.444 0 0 1-.264.112c-.242 0-.297-.213-.297-.454 0-.279.073-.444.29-.444.112 0 .185.03.271.1.01.008.02.033.02.033s.01.025.01.07v.508zm.766.656c-.026-.058-.04-.201-.04-.436v-2.192s0-.044-.045-.044h-.638s-.044 0-.044.044v.894s0 .044-.025.008c-.11-.158-.286-.235-.55-.235-.448 0-.74.367-.74 1.041 0 .675.289.99.732.99.29 0 .466-.147.559-.286 0 0 .024-.037.024.005 0 .041.01.162.03.223.005.012.021.02.021.02s.017.009.061.009h.628s.045 0 .027-.04" fill="#918F90"/></svg>