<svg height="36" viewBox="0 0 36 36" width="36" xmlns="http://www.w3.org/2000/svg"><mask id="a" fill="#fff"><path d="M0 0h4.722v3.34H0z" fill-rule="evenodd"/></mask><g fill="none" fill-rule="evenodd"><path d="M18 0c2.837 0 5.52.656 7.907 1.825C31.884 4.753 36 10.895 36 18c0 9.942-8.058 18-18 18-9.94 0-18-8.057-18-18C0 8.06 8.06 0 18 0z" fill="#f2f4f7" fill-rule="nonzero"/><g fill="#980a2a"><path d="M4.722.163a.552.552 0 0 0-.495.393c-.11.358-.686 2.243-.855 2.784H3.16L2.328.807 1.46 3.34h-.205C1.101 2.797.504.676.449.476.392.276.195.178 0 .163V0h1.348v.163C1.061.178.97.207.939.249.907.293.929.36.941.407c.036.136.413 1.457.59 2.082L2.357.046h.227l.83 2.498c.135-.463.52-1.821.558-2.04.05-.285-.087-.29-.443-.341V0h1.193z" mask="url(#a)" transform="translate(4 20.802)"/><path d="m12.992 23.132-.063.971h-2.733v-.163c.26-.018.466-.022.466-.285V21.28c0-.24-.182-.274-.467-.314v-.163h2.548v.792h-.17c-.066-.243-.331-.559-.496-.58a3.126 3.126 0 0 0-.4-.018h-.518v1.305h.374c.35 0 .499-.163.542-.536h.17v1.29h-.17c-.053-.473-.248-.56-.542-.56h-.374v.983c0 .204.03.404.266.418.204.011.352.013.545.013.126 0 .393-.024.483-.114.093-.09.16-.218.219-.332.078-.149.128-.26.149-.33zm14.525 0-.062.971h-2.734v-.163c.26-.018.466-.022.466-.285V21.28c0-.24-.18-.274-.466-.314v-.163h2.547v.792h-.17c-.066-.243-.33-.559-.496-.58a3.134 3.134 0 0 0-.399-.018h-.519v1.305h.373c.351 0 .5-.163.543-.536h.171v1.29h-.17c-.054-.473-.249-.56-.544-.56h-.373v.983c0 .204.03.404.266.418.204.011.352.013.545.013.126 0 .393-.024.484-.114.092-.09.16-.218.218-.332.078-.149.128-.26.15-.33zm-9.192-2.167c-.46.076-.523.082-.536.751v2.418h-.203l-1.996-2.7v1.705c0 .19.012.338.036.44.058.245.165.29.554.361v.163h-1.35v-.163c.388-.072.461-.12.505-.319.02-.089.03-.24.03-.457v-1.629c0-.363-.238-.51-.59-.57v-.163h.938l1.85 2.503v-1.563c-.009-.69-.104-.684-.582-.777v-.163h1.343zm4.609.719a1.594 1.594 0 0 0-1.082-.827 2.15 2.15 0 0 0-.459-.055h-1.439v.163c.217.032.435.045.435.315v2.384c0 .245-.166.262-.45.276v.163h1.363c.378 0 .84-.108 1.15-.33.315-.227.55-.564.616-.949.066-.377.037-.793-.134-1.14m-.46 1.38c-.082.316-.268.598-.569.74a1.21 1.21 0 0 1-.517.105c-.17 0-.297-.028-.379-.08-.082-.056-.123-.153-.123-.293v-2.53l.177-.007c.254-.006.501-.003.736.106.32.15.543.435.652.766.118.357.116.83.023 1.193m9.526.06-.07.98h-2.57v-.165c.227-.026.435-.005.435-.284v-2.367c0-.175-.08-.266-.435-.323v-.163h1.39v.163c-.376.044-.458.083-.458.326v2.182c.006.253-.001.393.244.422.133.017.319.016.464.01s.319-.035.392-.085c.087-.06.2-.245.263-.35a2.38 2.38 0 0 0 .175-.346zm-14.572-7.918.118.463.313-1.044-.134-.547zM16.507 12h-.61s.968 3.539 1.195 4.268c.046-.149.3-1.066.3-1.066zm.69 0s.508 1.887.528 1.98c.231-.852.497-1.98.497-1.98zm1.45 0s-.49 1.735-.756 2.628c.105.44.267 1.136.437 1.64L19.345 12zm-1.627 5.502h1.045c-.19-.557-.35-1.198-.52-1.774-.161.55-.357 1.196-.525 1.773m-1.644-4.956c-.102-.312-.272-.482-.575-.537v5.493h1.976c-.2-.56-.6-2.035-.862-2.998-.265-.969-.43-1.623-.539-1.958m4.376 4.957v-5.48c-.429 1.563-.443 1.56-.943 3.515-.236.92-.5 1.964-.5 1.964z"/></g></g></svg>