<svg width="36" height="36" fill="none" xmlns="http://www.w3.org/2000/svg"><path d="M18 0c2.837 0 5.52.656 7.907 1.825C31.884 4.753 36 10.895 36 18c0 9.942-8.058 18-18 18-9.94 0-18-8.057-18-18C0 8.06 8.06 0 18 0z" fill="#F2F4F7"/><path d="M10.158 19.406v-1.562h1.6s-.038-.181-.038-.31c0-.116.038-.31.038-.31h-1.6v-1.562h2.04l.503-.633H9.499v5.087h3.202l-.44-.71h-2.103zm12.444.71v-2.88l.762-.787v3.667h-.762z" fill="#333F48"/><path d="M22.602 17.237v2.879h.762v-3.667l-.762.788zm.013-2.207h1.381l-1.381 1.38v-1.38z" fill="#333F48"/><path d="M22.615 15.03v1.38l1.381-1.38h-1.381zm-7.655 2.813h1.24v1.408c-.995.413-2.028.206-2.583-.581-.62-.891-.387-2.44.762-2.853.568-.207 1.29-.168 1.885-.155l.658-.633c-1.02 0-2.091-.116-2.84.155-2.207.826-2.04 4.17.349 4.88.116.039.4.077.67.077.724.026 1.292-.206 1.821-.413v-2.504H14.96" fill="#333F48"/><path d="M19.84 17.843h1.239v1.408c-.994.4-2.027.193-2.582-.594-.62-.878-.387-2.44.762-2.853.568-.207 1.29-.155 1.897-.155l.659-.62c-1.033 0-2.092-.129-2.84.155-2.22.814-2.04 4.17.335 4.867.13.039.413.078.672.09.735.013 1.29-.206 1.833-.426v-2.504l-1.975.013M7.834 15.03l-1.6 2.039-1.601-2.04H4v5.087h.71v-3.99l1.523 2.053 1.536-2.052v3.989h.698v-5.087h-.633z" fill="#333F48"/><path d="m7.834 15.03-1.6 2.039-1.601-2.04H4v5.087h.71v-3.99l1.523 2.053 1.536-2.052v3.989h.698v-5.087h-.633zm16.886 0-.66.632h1.821v4.454h.71v-4.454h2.853v4.454h.787v-4.454H32v-.633h-7.28z" fill="#333F48"/><path d="m24.72 15.03-.66.632h1.821v4.454h.71v-4.454h2.853v4.454h.787v-4.454H32v-.633h-7.28z" fill="#333F48"/></svg>