<svg width="36" height="36" fill="none" xmlns="http://www.w3.org/2000/svg"><path d="M18 0c2.837 0 5.52.656 7.907 1.825C31.884 4.753 36 10.895 36 18c0 9.942-8.058 18-18 18-9.94 0-18-8.057-18-18C0 8.06 8.06 0 18 0z" fill="#F2F4F7"/><path d="M11.926 18.556h-.356v-1.274l-.518.948h-.207l-.534-.948v1.274h-.355v-1.941h.355l.637 1.126.622-1.126h.356v1.94zm2.134-.045a2.42 2.42 0 0 1-.638.089c-.326 0-.592-.104-.8-.296a.973.973 0 0 1-.296-.711c0-.297.104-.534.311-.726.207-.193.46-.282.785-.282.193 0 .37.015.548.06l-.044.31a3.12 3.12 0 0 0-.46-.044c-.236 0-.429.06-.562.178-.134.118-.193.281-.193.504 0 .192.06.355.193.488a.705.705 0 0 0 .503.193c.104 0 .208-.015.312-.03v-.651h.34v.918zm2.444.045h-.356v-1.274l-.533.948h-.208l-.518-.948v1.274h-.356v-1.941h.356l.637 1.126.622-1.126h.356v1.94zm2.503-1.334A.301.301 0 0 0 18.92 17a.301.301 0 0 0-.223-.089h-.578v.608h.578a.3.3 0 0 0 .223-.09c.059-.044.088-.118.088-.207zm.578 1.334h-.46l-.532-.741h-.474v.74h-.37v-1.94h1.007c.177 0 .34.06.459.178a.57.57 0 0 1 .178.43c0 .118-.03.236-.104.325a.593.593 0 0 1-.282.222l.578.786zm1.704 0h-1.393v-1.941h1.393v.326h-1.022v.46h.963v.325h-.963v.518h1.022v.312zm1.926-.519a.477.477 0 0 1-.223.415c-.148.104-.34.148-.577.148-.297 0-.563-.06-.8-.163l.089-.296c.252.089.503.133.71.133.297 0 .43-.074.43-.237 0-.06-.03-.118-.103-.163-.06-.03-.178-.089-.4-.163-.252-.089-.415-.178-.504-.252-.104-.089-.148-.207-.148-.37 0-.34.252-.504.77-.504.252 0 .49.03.697.09l-.06.295a3.232 3.232 0 0 0-.637-.074.899.899 0 0 0-.326.045c-.059.03-.089.074-.089.148s.045.118.119.178c.06.03.192.089.43.178.251.088.4.177.474.236.103.075.148.193.148.356zm1.822-.444a.777.777 0 0 0-.163-.49c-.104-.133-.252-.192-.444-.192a.515.515 0 0 0-.43.193.748.748 0 0 0-.163.489c0 .192.06.355.163.474.104.133.252.192.444.192a.565.565 0 0 0 .445-.192c.104-.119.148-.282.148-.474zm.37 0a.96.96 0 0 1-.281.71.94.94 0 0 1-.696.297.94.94 0 0 1-.697-.296.96.96 0 0 1-.281-.711.96.96 0 0 1 .281-.712.94.94 0 0 1 .697-.296.94.94 0 0 1 .696.296.96.96 0 0 1 .281.712zm1.66-.371a.302.302 0 0 0-.311-.31h-.578v.607h.578a.3.3 0 0 0 .222-.09c.059-.044.089-.118.089-.207zm.577 1.334h-.459l-.533-.741h-.474v.74h-.37v-1.94h1.007c.177 0 .34.06.459.178a.57.57 0 0 1 .178.43c0 .118-.03.236-.104.325a.593.593 0 0 1-.281.222l.577.786zm1.734-1.616h-.637v1.616h-.37V16.94h-.652v-.326h1.659v.326zm1.807 1.097a.477.477 0 0 1-.222.415c-.148.104-.34.148-.578.148a1.99 1.99 0 0 1-.8-.163l.09-.296c.25.089.503.133.71.133.296 0 .43-.074.43-.237 0-.06-.03-.118-.104-.163a2.795 2.795 0 0 0-.4-.163c-.252-.089-.415-.178-.504-.252-.103-.089-.148-.207-.148-.37 0-.34.252-.504.77-.504.253 0 .49.03.697.09l-.06.295a3.234 3.234 0 0 0-.636-.074.902.902 0 0 0-.326.045c-.06.03-.09.074-.09.148s.045.118.12.178c.059.03.192.089.429.177.252.09.4.178.474.238.104.074.148.192.148.355zm-26.918-.889c0 .46.074.889.31 1.245v-.312c0-.385.312-.651.623-.83-.326.12-.681.045-.933-.103zm.266-.326H4.43c-.015-.059.148-.163.192-.089l-.089.09zm-.326-.044a.51.51 0 0 0 .341.074c.104.074.252-.134.4-.134.222-.03.504-.059.652.134l-.074-.148a1.33 1.33 0 0 1-.548-.178c-.326-.148-.49.326-.77.252zm-.192-.756c.104.03.207.06.31.06.223-.09.282-.267.194-.504a.819.819 0 0 0-.504-.341v.785zm1.481 4.208a.842.842 0 0 0 .104-.119c.593-.77-.563-1.215-.533-1.955.03-.297.192-.519.385-.756l-.015-.015c-.178.178-.252.296-.37.474-.356.726.148 1.734-.37 2.356l.8.015zm2.4-2.608c0 1.067-.503 2-1.289 2.608h2.608v-5.215H6.607a3.256 3.256 0 0 1 1.29 2.607z" fill="#927239"/><path d="M4.015 20.23h.444l.104-.104c.607-.83-.119-1.408-.563-2.06l.015 2.164zm1.229-5.215h-1.23v.089c.12.014.253.059.356.103.252.149.445.386.415.682l.548-.06c.074-.177.104-.459.03-.607a.546.546 0 0 0-.119-.207zm.252 0c.119.163.119.37.134.533.222-.163.489-.267.77-.192-.193-.149-.326-.267-.563-.356l-.34.015zm1.097 2.652-.045.118-.06-.148c-.132.03-.266.074-.34.222-.015.045.015.119-.03.148-.088-.014-.044-.163-.044-.251.104-.104.385-.326.489-.238.03.015.044.09.03.149zM6 18.733c-.074-.059-.044-.163-.044-.237L6 18.452c.074.237.267-.045.415-.015.074-.03.044-.133.118-.119.119.37-.326.297-.533.415zm1.067.045c.059-.49.014-1.008-.341-1.348-.074-.015-.178.03-.237-.045-.163.148-.37.208-.519.37-.163.045-.326-.059-.489-.088v-.06c-.222.149-.162.445-.207.667.06.252.34.356.519.504.281.044.533-.074.77-.163.044.044.104.074.074.133a.847.847 0 0 1-.8.356c.193.37.06.8-.148 1.126h.192c.593-.267 1.141-.682 1.186-1.452z" fill="#927239"/><path d="M7.496 16.778c-.163-.563-.666-1.319-1.333-1.274a.836.836 0 0 0-.593.355c.178.104.37.252.534.4-.015.06.03.134-.045.163-.089-.074-.163-.252-.281-.192.089.192.326.207.503.252.075.074.045.192.193.133.074.015.104.104.119.163-.119.222-.445.074-.623.118.149.06.311.074.445.163.133.09.178-.118.237-.192.237.059.104.31.207.444.504.519.4 1.437.148 2.03.697-.608.637-2 .49-2.563z" fill="#927239"/></svg>