<svg width="36" height="36" fill="none" xmlns="http://www.w3.org/2000/svg"><path d="M18 0c2.837 0 5.52.656 7.907 1.825C31.884 4.753 36 10.895 36 18c0 9.942-8.058 18-18 18-9.94 0-18-8.057-18-18C0 8.06 8.06 0 18 0z" fill="#F2F4F7"/><g fill-rule="evenodd" clip-rule="evenodd"><path d="M7 10.81 10.367 8l2.806 2.249L15.867 8l2.694 2.136L21.143 8l2.806 2.249v5.621l-3.704 2.923V11.71s-.112-1.012-1.684-1.012v16.303h-3.704V11.71s0-1.013-1.571-1.013V27H9.469V12.497S9.581 10.473 7 10.811z" fill="#0D2F8B"/><path d="m26.194 14.858-5.95 4.61v4.497l3.817 3.148L29 23.291l-.224-.225s-1.347 1.35-2.47 1.125c-1.796-.226-2.357-1.35-2.357-3.036v-3.823s1.347 1.462 2.357 1.462c.898 0 1.796-.787 2.694-1.687l-2.806-2.249z" fill="#F41521"/></g></svg>