<svg width="36" height="36" fill="none" xmlns="http://www.w3.org/2000/svg"><path d="M18 0c2.837 0 5.52.656 7.907 1.825C31.884 4.753 36 10.895 36 18c0 9.942-8.058 18-18 18-9.94 0-18-8.057-18-18C0 8.06 8.06 0 18 0z" fill="#F2F4F7"/><path d="M25.117 22.542h-4.76V9.885L25.117 8v14.542zm-5.17-12.494-4.769 1.885v10.609h4.77V10.048zm-5.178 2.048L10 13.982v8.56h4.77V12.096zm-2.232 12.847.13 2.095h.83l-.236-3.47h-1.186l-.234 1.256a5.71 5.71 0 0 0-.077.593c0-.134-.024-.255-.036-.368a4.237 4.237 0 0 0-.044-.314l-.196-1.168h-1.192L10 27.038h.871l.157-2.095.335 2.095h.78l.394-2.095zm3.015-1.376h-1.147l-.833 3.471h.969l.074-.439h.634l.069.44h.969l-.735-3.472zm-.81 2.3.095-.545.066-.427a.545.545 0 0 1 0-.065c0-.036 0-.1.02-.196 0-.044 0-.089.018-.127.018-.039 0-.074 0-.104l.03.326c0 .07.006.126.018.17v.103c.03.228.044.358.047.391a.325.325 0 0 0 0 .06l.06.405-.354.01zm3.403-.272a.872.872 0 0 0 .537-.869 1.102 1.102 0 0 0-.383-.91 1.52 1.52 0 0 0-.951-.249h-.975v3.471h.933v-1.443l.042.124c0 .036.018.062.024.083l.462 1.236h1.014l-.703-1.443zm-.833-1.293h.033c.273 0 .409.128.409.389a.465.465 0 0 1-.11.314.344.344 0 0 1-.27.124h-.062v-.827zm3.311.943.712-1.675h-.99l-.516 1.482.024-1.482h-.937v3.468h.937l-.024-1.6.622 1.6h1.011l-.839-1.793zm2.647 1.796v-.806h-.82v-.56h.71v-.818h-.71v-.483h.817v-.807H21.56v3.471l1.71.003zm1.847-.806h-.744v-2.668h-.89v3.471h1.634v-.803zm-.397-2.146a.64.64 0 1 1 .64.631.629.629 0 0 1-.64-.631zm.64.525a.525.525 0 1 0-.51-.525.507.507 0 0 0 .516.525h-.006zm-.134-.16h-.11v-.727h.297c.172 0 .261.063.261.205a.193.193 0 0 1-.193.201l.208.32h-.122l-.192-.314h-.128l-.02.314zm.134-.41c.092 0 .175 0 .175-.115 0-.116-.08-.11-.157-.11h-.152v.226h.134z" fill="url(#a)"/><defs><linearGradient id="a" x1="13.214" y1="28.064" x2="26.942" y2="11.708" gradientUnits="userSpaceOnUse"><stop stop-color="#A29265"/><stop offset=".12" stop-color="#AA996A"/><stop offset=".32" stop-color="#C0AC77"/><stop offset=".36" stop-color="#C6B17A"/><stop offset=".48" stop-color="#BEAA73"/><stop offset=".68" stop-color="#A8955F"/><stop offset=".93" stop-color="#84753E"/><stop offset="1" stop-color="#786A34"/></linearGradient></defs></svg>