<svg height="36" viewBox="0 0 36 36" width="36" xmlns="http://www.w3.org/2000/svg"><mask id="a" fill="#fff"><path d="M0 0h26v15.537H0z" fill-rule="evenodd"/></mask><g fill="none" fill-rule="evenodd"><path d="M18 0c2.837 0 5.52.656 7.907 1.825C31.884 4.753 36 10.895 36 18c0 9.942-8.058 18-18 18-9.94 0-18-8.057-18-18C0 8.06 8.06 0 18 0z" fill="#f2f4f7" fill-rule="nonzero"/><path d="M17.293 15.305c-.242 0-.427-.119-.427-.365 0-.232.204-.345.427-.345.222 0 .425.113.425.345.005.246-.184.365-.425.365zm-.375-1.226c0-.203.138-.322.38-.322.24 0 .378.119.378.322 0 .204-.19.308-.379.308-.208 0-.379-.118-.379-.308zm.73.407c.166-.09.264-.227.264-.42 0-.346-.279-.517-.615-.517-.34 0-.615.175-.615.516 0 .194.094.33.26.42-.175.082-.322.228-.322.451 0 .341.246.572.677.572.431 0 .677-.241.677-.572-.004-.223-.146-.365-.327-.45zm-2.258.819c-.241 0-.426-.119-.426-.365 0-.232.203-.345.426-.345.222 0 .426.113.426.345 0 .246-.185.365-.426.365zm-.374-1.226c0-.203.133-.322.379-.322.241 0 .379.119.379.322 0 .204-.19.308-.38.308-.207 0-.378-.118-.378-.308zm.729.407c.166-.09.265-.227.265-.42 0-.346-.28-.517-.615-.517-.341 0-.616.175-.616.516 0 .194.096.33.261.42-.176.082-.321.228-.321.451 0 .341.245.572.676.572.43 0 .677-.241.677-.572-.005-.223-.152-.365-.327-.45zm3.204.312.624-.86v.86zm.728-1.216h-.145l-.934 1.292v.176h.97v.449h.251v-.45h.246v-.218l-.246-.023v-1.226h-.131zm-5.99 1.912h.26v-1.912h-.554l-.005.251h.298zm-1.785-.308c-.09 0-.17.076-.17.166 0 .09.076.17.17.17.09 0 .17-.076.17-.17a.174.174 0 0 0-.17-.166zm-1.548.308h.261v-1.742h.606v-.25H9.749v.25h.605zm-1.712-1.136-.01-.004c-.283-.08-.44-.137-.44-.322 0-.184.157-.303.397-.303.199 0 .35.08.417.232l.028.062.213-.124-.019-.046c-.141-.342-.515-.365-.629-.365-.246 0-.658.118-.658.553 0 .384.34.483.643.573.299.085.465.147.465.34 0 .204-.176.336-.45.336-.25 0-.435-.109-.535-.316l-.028-.062-.218.128.024.052c.142.283.406.445.747.445.417 0 .71-.247.71-.597-.004-.392-.364-.497-.657-.582zm-1.458.01h-.927v-.616h.993v-.25H5.996v1.992h1.31v-.247h-1.05v-.633h.928zM25.93 2.158l-.79.289c-.313-.998-1.202-1.643-2.404-1.643-1.311 0-2.168.653-2.168 1.76C20.567 4.942 26 3.683 26 7.029c0 1.595-1.282 2.717-3.194 2.717-1.775 0-2.84-.847-3.574-2.197l.739-.449c.493 1.035 1.392 1.841 2.759 1.841 1.58 0 2.405-.725 2.405-1.926 0-2.39-5.434-1.217-5.434-4.463C19.701.624 21.433 0 22.716 0c1.439 0 2.75.653 3.213 2.158zm-13.36.023c0 .53.356.985 1.131 1.817.914-.533 1.42-1.092 1.42-1.817 0-.71-.477-1.268-1.296-1.268-.763 0-1.254.602-1.254 1.268zm.914 2.826c-1.24.681-1.789 1.23-1.789 2.073 0 .97.876 1.775 1.992 1.775 1.009 0 1.529-.464 2.088-1.364zm4.424 4.78-1.585-1.695c-.573.9-1.353 1.557-2.636 1.557-1.652 0-2.867-1.145-2.867-2.55 0-1.174.724-1.898 2.115-2.688-.79-.79-1.23-1.449-1.23-2.224 0-1.132.955-2.036 2.115-2.036 1.23 0 2.144.9 2.144 2.036 0 1.093-.862 1.826-1.718 2.389L16.21 6.72l1.16-1.883.695.435-1.283 2.087 1.76 1.87zM8.637.123v9.526H7.76v-7.78L4.629 7.955h-.616L.875 1.883V9.65H0V.123h.913L4.326 6.7 7.738.123z" fill="#1d1d1b" mask="url(#a)" transform="translate(5 10)"/></g></svg>