<svg height="36" viewBox="0 0 36 36" width="36" xmlns="http://www.w3.org/2000/svg"><mask id="a" fill="#fff"><path d="M0 0h28v14.483H0z" fill-rule="evenodd"/></mask><g fill="none" fill-rule="evenodd"><path d="M18 0c2.837 0 5.52.656 7.907 1.825C31.884 4.753 36 10.895 36 18c0 9.942-8.058 18-18 18-9.94 0-18-8.057-18-18C0 8.06 8.06 0 18 0z" fill="#f2f4f7" fill-rule="nonzero"/><path d="M12.252 8.4c-.499-1.022-1.2-1.468-1.596-1.61.83-.365 1.264-.86 1.596-1.847zM22.091.32l-2.011 8.1-2.017-8.1H12.24v2.99C11.532.694 8.935.038 6.616.001 3.787-.036.653 1.178.544 4.88h3.912c0-1.118 1.034-1.758 2.01-1.742 1.199-.01 1.75.496 1.778 1.285-.041.684-.449 1.16-1.768 1.16H5.16v2.688h1.195c.678 0 1.623.366 1.66 1.322.045 1.14-.756 1.641-1.741 1.651-1.76-.065-2.213-1.402-2.213-2.553H0c.017.775-.009 5.828 6.356 5.79 3.048.028 5.267-1.241 5.893-2.99v2.68h3.917V5.437l2.165 8.737h3.5l2.173-8.727v8.735H28V.32z" fill="red" mask="url(#a)" transform="translate(4 11)"/></g></svg>