<svg width="36" height="36" fill="none" xmlns="http://www.w3.org/2000/svg"><path d="M18 0c2.837 0 5.52.656 7.907 1.825C31.884 4.753 36 10.895 36 18c0 9.942-8.058 18-18 18-9.94 0-18-8.057-18-18C0 8.06 8.06 0 18 0z" fill="#F2F4F7"/><path d="M22.396 22.904a2.017 2.017 0 0 0 2.008-2.014v-4.861c0-.54-.21-1.05-.58-1.434A2.017 2.017 0 0 0 22.395 14h-4.89a2.018 2.018 0 0 0-2.007 2.029v4.868c.007 1.105.903 2 2.008 2.007" fill="#CF381E"/><path d="M21.011 18.728c-.189.63.12 1.26.77 1.008-.19.454-.504 1.133-.504 1.84 0 0 0 .475.35.594 0 0 .49.119.385-.315a2.092 2.092 0 0 1-.063-.832c.118-.58.3-1.148.538-1.693 0 0 .749-1.56 1.182-2.287 0 0 .182-.371-.189-.371a.364.364 0 0 0-.286.147L22.138 18.7c-.162.294-.315.385-.434.385-.266 0-.21-.427-.168-.58a6.245 6.245 0 0 1 .56-1.511c.188-.413-.19-.448-.19-.448-.237-.063-.42.329-.42.329l-.419.853c-.273.476-.573.93-.895 1.371 0 0-.056.07-.098.042-.042-.035-.021-.105-.021-.105.07-.58.189-1.154.35-1.72.007-.036.014-.063.014-.098a.28.28 0 0 0-.063-.21.245.245 0 0 0-.196-.098c-.189-.021-.28.07-.448.273-.37.454-.804 1.14-1.014 1.448-.021.034-.063.027-.063-.022 0-.14.49-1.65.49-1.65s.056-.21-.112-.28c0 0-.259-.161-.469.154l-1.007 1.37c-.077.106-.119.07-.119.07v-.09l.16-.895c.127-.686-.111-.721-.265-.749a.622.622 0 0 0-.329.098c-.314.154-.552.776-.552.776s-.07.224.084.315a.265.265 0 0 0 .16.042c.224-.014.266-.427.427-.427.028 0 .028.035.028.042l-.517 2.176a.302.302 0 0 0 .126.329c.07.041.146.049.223.034a.328.328 0 0 0 .175-.132l.19-.294c.272-.483.776-1.175.825-1.175.02 0 .027 0 .027.02l-.188 1.28a.263.263 0 0 0 .147.28.359.359 0 0 0 .293-.02.997.997 0 0 0 .26-.308c.104-.168.608-.763.915-1.308.021-.035.042 0 .035.02-.063.288-.112 1.05-.119 1.239-.014.37.273.413.28.413.19.014.37-.07.476-.224" fill="#fff"/><path d="M5.959 19.575h-.56v-1.252a.774.774 0 0 0-.084-.399.31.31 0 0 0-.287-.133.488.488 0 0 0-.266.07.666.666 0 0 0-.202.217v1.497H4v-2.273h.315l.21.307c.056-.049.111-.09.167-.133.056-.035.112-.063.175-.09a.949.949 0 0 1 .616-.056.901.901 0 0 1 .168.076.952.952 0 0 1 .119.12c.042.055.07.104.098.16.042-.042.09-.09.146-.133.056-.042.12-.084.19-.119a.981.981 0 0 1 .21-.105 1.05 1.05 0 0 1 .258-.035c.112 0 .217.029.315.077.09.056.168.126.217.21.056.105.097.21.118.329.028.133.042.266.042.406v1.259h-.566v-1.252a.656.656 0 0 0-.084-.399.298.298 0 0 0-.28-.133.521.521 0 0 0-.266.07.623.623 0 0 0-.21.217m3.232.462h-.496a.489.489 0 0 0-.294.076.307.307 0 0 0-.091.217.28.28 0 0 0 .084.203.336.336 0 0 0 .23.07.589.589 0 0 0 .19-.028.645.645 0 0 0 .16-.063 1 1 0 0 0 .126-.105c.042-.042.07-.084.098-.126l-.007-.244zm0 .783a.89.89 0 0 1-.273.182 1.048 1.048 0 0 1-.412.07.703.703 0 0 1-.525-.196.808.808 0 0 1-.147-.23.797.797 0 0 1-.049-.288c0-.42.329-.692.854-.692h.56v-.126a.21.21 0 0 0-.12-.189.804.804 0 0 0-.364-.07c-.14 0-.28.021-.412.05-.105.027-.21.062-.315.104l-.063-.469c.035-.02.084-.035.147-.056.056-.02.126-.035.189-.055.063-.015.147-.029.23-.043.085-.014.176-.014.266-.014a.995.995 0 0 1 .72.231.893.893 0 0 1 .246.672v1.37h-.399l-.133-.251zm3.155-2.056-.903 1.133 1.029 1.168h-.7l-.951-1.154v1.154h-.553v-3.113h.553v1.959l.846-1.148h.679zm1.238.538c-.07 0-.14.007-.203.028a.399.399 0 0 0-.154.077.304.304 0 0 0-.112.119.592.592 0 0 0-.063.154h.986a.365.365 0 0 0-.028-.147.337.337 0 0 0-.083-.12.574.574 0 0 0-.14-.083.53.53 0 0 0-.203-.028zm.105 1.28c.084 0 .175-.007.258-.028.078-.014.154-.035.224-.063a.862.862 0 0 0 .266-.14l.105.497a2.278 2.278 0 0 1-.378.16 1.811 1.811 0 0 1-.475.064c-.175 0-.35-.028-.518-.084a1.031 1.031 0 0 1-.37-.231.923.923 0 0 1-.231-.357 1.232 1.232 0 0 1-.028-.888c.049-.14.118-.259.216-.37a.933.933 0 0 1 .343-.246c.3-.119.644-.119.944 0a.88.88 0 0 1 .322.231c.084.098.147.21.19.329.034.126.055.259.055.392v.118l-.021.12h-1.546a.526.526 0 0 0 .063.21.422.422 0 0 0 .133.16.4.4 0 0 0 .196.098c.077.028.16.042.252.042v-.014zm11.262-1.462.74-.895h.169v.567h.636v.49h-.636v.936c0 .05.007.105.02.161.015.035.036.07.063.105a.261.261 0 0 0 .099.05c.034.013.07.02.111.02a.524.524 0 0 0 .182-.028.566.566 0 0 0 .154-.049v.497a.745.745 0 0 1-.189.063 1.192 1.192 0 0 1-.587-.021.63.63 0 0 1-.238-.14.658.658 0 0 1-.133-.224.833.833 0 0 1-.042-.294v-1.063h-.364m2.512-.028a1.1 1.1 0 0 1 .321-.35.612.612 0 0 1 .399-.118.375.375 0 0 1 .126 0l.077.014s-.014.126-.098.517c-.042-.007-.084-.014-.126-.007a.638.638 0 0 0-.28.05.528.528 0 0 0-.21.16.755.755 0 0 0-.133.245 1.388 1.388 0 0 0-.042.336v.958h-.56v-2.273h.35m3.609.496a.397.397 0 0 0-.181.028.567.567 0 0 0-.266.196.484.484 0 0 0-.07.133v.643a.45.45 0 0 0 .084.112c.035.035.07.063.112.091a.662.662 0 0 0 .147.063c.14.035.287.028.42-.021a.525.525 0 0 0 .272-.329 1.64 1.64 0 0 0 .042-.266.913.913 0 0 0-.042-.265.593.593 0 0 0-.104-.21.468.468 0 0 0-.175-.133.47.47 0 0 0-.217-.05l-.021.008zm.155-.497a.91.91 0 0 1 .433.091.886.886 0 0 1 .301.26c.077.111.14.237.175.37.035.14.056.287.056.427 0 .146-.021.293-.063.433a.96.96 0 0 1-.483.602.935.935 0 0 1-.412.09c-.14 0-.273-.02-.399-.07a.801.801 0 0 1-.28-.202v1.182h-.56v-3.183h.33l.216.273c.084-.084.19-.154.308-.21a.96.96 0 0 1 .37-.063h.008zm-2.092-.93a.284.284 0 0 0-.286.287c0 .16.125.294.286.294a.29.29 0 0 0 .287-.294.255.255 0 0 0-.084-.203.275.275 0 0 0-.203-.09v.006zm.273 3.204h-.56v-2.273h.56v2.273z" fill="#174880"/></svg>