<svg height="36" viewBox="0 0 36 36" width="36" xmlns="http://www.w3.org/2000/svg"><mask id="a" fill="#fff"><path d="M0 0h6.073v11.179H0z" fill-rule="evenodd"/></mask><g fill="none" fill-rule="evenodd"><path d="M18 0c2.837 0 5.52.656 7.907 1.825C31.884 4.753 36 10.895 36 18c0 9.942-8.058 18-18 18-9.94 0-18-8.057-18-18C0 8.06 8.06 0 18 0z" fill="#f2f4f7" fill-rule="nonzero"/><path d="M32 16.978c0 .274-.412.496-.921.496-.508 0-.921-.222-.921-.496 0-.273.413-.495.92-.495.51 0 .922.222.922.495" fill="#000"/><path d="m1.905 7.159 4.168-3.29-.659-3.87L.592 4.206C.251 4.5-.356 5.218.274 6.234c.238.385.793.697 1.631.926m1.736.562C1.693 7.508.49 7.053.063 6.367c.157.822.425 2.17.641 2.93.046.163.122.336.234.516.498.804 1.263 1.142 2.62 1.29.323.035.629.059.902.077l-.684-3.445-.135-.014" fill="#f37021" mask="url(#a)" transform="translate(4 12)"/><path d="M30.989 20.843h-1.441l.67-3.057h1.44zm-3.597-2.202c-.518 0-.849.303-.935.693-.088.402.078.693.637.693.554 0 .846-.257.942-.693.094-.43-.085-.693-.644-.693zm.43 1.878h-.012c-.322.29-.754.446-1.393.446-.934 0-1.683-.497-1.435-1.63.249-1.136 1.216-1.633 2.149-1.633.588 0 .972.14 1.156.431h.012l.311-1.419h1.44l-.905 4.13h-1.394zm-6.949-2.733h1.395l-.084.38h.012c.192-.195.712-.464 1.403-.464.796 0 1.319.347 1.133 1.196l-.426 1.945h-1.441l.347-1.582c.084-.386-.092-.553-.432-.553-.38 0-.716.218-.828.727l-.308 1.408h-1.44zm-3.177 2.274c.582 0 .88-.257.988-.748.105-.48-.079-.743-.661-.743-.576 0-.882.262-.987.743-.108.491.084.748.66.748zm.525-2.397c1.625 0 2.218.526 1.972 1.65-.247 1.128-1.071 1.652-2.696 1.652-1.624 0-2.218-.524-1.971-1.653.247-1.123 1.07-1.649 2.695-1.649zm-8.674.123h1.394l-.092.42h.011c.287-.286.686-.504 1.286-.504.622 0 .83.206.931.508.257-.279.687-.508 1.27-.508.691 0 1.181.29 1.017 1.034l-.461 2.106h-1.44l.379-1.727c.066-.307-.044-.407-.297-.407-.3 0-.521.14-.603.514l-.355 1.62h-1.394l.378-1.727c.067-.307-.043-.407-.296-.407-.3 0-.521.14-.603.514l-.355 1.621H8.876z" fill="#000"/></g></svg>