<svg width="36" height="36" fill="none" xmlns="http://www.w3.org/2000/svg"><path d="M18 0c2.837 0 5.52.656 7.907 1.825C31.884 4.753 36 10.895 36 18c0 9.942-8.058 18-18 18-9.94 0-18-8.057-18-18C0 8.06 8.06 0 18 0z" fill="#F2F4F7"/><g fill-rule="evenodd" clip-rule="evenodd"><path d="M4 18.474v1.473h.578v-.924c0-.96.002-.991.056-.872.01.02.04.065.067.098a.27.27 0 0 1 .05.077c0 .01.009.021.019.028.01.006.03.03.044.052a.615.615 0 0 0 .05.068c.014.014.047.06.075.101.028.041.065.092.083.112.018.02.033.042.033.048 0 .006.014.028.032.048.018.02.055.07.083.11.028.04.07.1.094.13.024.03.066.089.094.13.09.133.084.13.28.13.165-.001.226-.014.226-.05a.55.55 0 0 1 .09-.126c.014-.015.025-.032.025-.039 0-.007.015-.029.033-.049.018-.02.058-.073.09-.119.032-.045.07-.096.085-.113a.443.443 0 0 0 .047-.071c.011-.022.027-.04.035-.04.007 0 .014-.007.014-.017 0-.009.021-.043.048-.075a.774.774 0 0 0 .067-.096.18.18 0 0 1 .046-.055c.015-.01.027-.025.027-.032 0-.007.042-.07.094-.14l.12-.16c.013-.02.076-.086.14-.15.16-.16.172-.17.189-.17.008 0 .028-.013.044-.028a.419.419 0 0 1 .244-.074h.079V17h-.573l-.02.039a.405.405 0 0 1-.05.07.95.95 0 0 0-.065.085 3.56 3.56 0 0 1-.09.123.34.34 0 0 0-.055.086c0 .009-.006.016-.013.016-.007 0-.028.024-.046.054a.415.415 0 0 1-.05.069.317.317 0 0 0-.044.063.532.532 0 0 1-.056.082.93.93 0 0 0-.065.086.83.83 0 0 1-.058.078.47.47 0 0 0-.087.13c0 .01-.006.016-.013.016-.007 0-.028.024-.046.054a.671.671 0 0 1-.056.077 1.244 1.244 0 0 0-.072.1 1.71 1.71 0 0 1-.09.12.238.238 0 0 0-.04.056c0 .005-.009.018-.019.029a.922.922 0 0 0-.06.08c-.078.116-.074.117-.189-.047a1.446 1.446 0 0 0-.083-.11c-.014-.015-.025-.032-.025-.04a.145.145 0 0 0-.034-.048.72.72 0 0 1-.068-.093.456.456 0 0 0-.05-.07.357.357 0 0 1-.043-.057.707.707 0 0 0-.087-.116.445.445 0 0 1-.079-.12c-.008-.017-.02-.032-.028-.032-.007 0-.017-.011-.022-.025a.224.224 0 0 0-.04-.061 1.929 1.929 0 0 1-.145-.201 1.248 1.248 0 0 0-.105-.138.55.55 0 0 1-.056-.082.3.3 0 0 0-.044-.064.338.338 0 0 1-.045-.057.226.226 0 0 0-.046-.055c-.01-.007-.018-.02-.018-.03 0-.056-.046-.067-.28-.067H4v1.474z" fill="#E40404"/><path d="M9.48 17.061a1.078 1.078 0 0 0-.048.12.484.484 0 0 1-.036.086.695.695 0 0 0-.044.109.692.692 0 0 1-.043.108.683.683 0 0 0-.043.108.384.384 0 0 1-.035.087 2.449 2.449 0 0 0-.121.31.441.441 0 0 1-.042.095.408.408 0 0 0-.038.094 1.058 1.058 0 0 1-.051.13.91.91 0 0 0-.048.122.376.376 0 0 1-.034.087.39.39 0 0 0-.035.087.707.707 0 0 1-.044.108.686.686 0 0 0-.044.108.692.692 0 0 1-.043.109.686.686 0 0 0-.043.108.357.357 0 0 1-.036.087.365.365 0 0 0-.035.087.734.734 0 0 1-.043.108.57.57 0 0 0-.037.094 1.164 1.164 0 0 1-.052.13.94.94 0 0 0-.05.134c-.012.037-.025.068-.03.068-.008 0-.028.054-.063.17l-.01.033h.592l.026-.084a.349.349 0 0 1 .037-.09.388.388 0 0 0 .04-.095c.015-.047.04-.111.055-.143a.955.955 0 0 0 .048-.127c.01-.037.024-.068.03-.068.005 0 .012-.013.017-.03.007-.028.017-.028.704-.025l.697.004.021.072c.012.04.026.076.032.08a.502.502 0 0 1 .044.108.534.534 0 0 0 .043.108.55.55 0 0 1 .044.109.526.526 0 0 0 .043.108c.006.004.015.022.02.04.01.032.013.033.3.033h.29l-.009-.047c-.005-.025-.014-.05-.02-.054a.326.326 0 0 1-.037-.087.917.917 0 0 0-.047-.123 1.048 1.048 0 0 1-.05-.13.388.388 0 0 0-.04-.094.344.344 0 0 1-.037-.09c-.014-.046-.03-.084-.036-.084a.43.43 0 0 1-.044-.111.665.665 0 0 0-.045-.12.391.391 0 0 1-.035-.086.68.68 0 0 0-.043-.109.704.704 0 0 1-.044-.108.343.343 0 0 0-.037-.087.483.483 0 0 1-.041-.107.702.702 0 0 0-.043-.116.767.767 0 0 1-.046-.116.543.543 0 0 0-.043-.109.361.361 0 0 1-.035-.086.69.69 0 0 0-.044-.109.7.7 0 0 1-.043-.108.39.39 0 0 0-.036-.087.376.376 0 0 1-.034-.086.91.91 0 0 0-.048-.123 1.088 1.088 0 0 1-.05-.13.38.38 0 0 0-.04-.094.35.35 0 0 1-.037-.09c-.014-.046-.03-.084-.036-.084a.278.278 0 0 1-.035-.086L10.254 17H9.51l-.03.061zm2.87 1.413v1.474h.579v-.976c0-.64.005-.975.014-.975.008 0 .015.005.015.011 0 .007.025.04.057.076l.093.108c.02.024.07.078.11.12a.56.56 0 0 1 .072.087c0 .005.02.03.043.053.024.024.093.102.153.173l.166.195a.425.425 0 0 1 .057.073c0 .005.021.03.047.055.05.049.065.066.176.199.12.142.13.153.17.192.022.02.04.044.04.052 0 .009.018.032.04.052.022.02.05.05.062.065.035.044.226.265.308.356l.074.083h.427V17h-.578l-.004.969c-.004.968-.004.969-.032.94a3.744 3.744 0 0 1-.203-.232 1.067 1.067 0 0 0-.058-.07 6.975 6.975 0 0 0-.191-.215.448.448 0 0 1-.061-.075.22.22 0 0 0-.043-.053 3.143 3.143 0 0 1-.18-.203 2.446 2.446 0 0 0-.171-.195.173.173 0 0 1-.04-.05.212.212 0 0 0-.042-.056c-.156-.165-.189-.201-.189-.208 0-.007-.088-.108-.16-.184a.224.224 0 0 1-.042-.053.202.202 0 0 0-.04-.05 2.23 2.23 0 0 1-.194-.225l-.026-.04h-.448v1.474zm4.003 0v1.474h.704c.686 0 .971-.016 1-.055a.571.571 0 0 1 .113-.045.347.347 0 0 0 .104-.046c0-.006.02-.017.042-.025.149-.052.457-.34.545-.51a.342.342 0 0 1 .044-.067.335.335 0 0 0 .042-.099c.013-.043.028-.078.033-.078.012 0 .06-.171.06-.214 0-.016.008-.032.018-.036.025-.008.026-.554.001-.604a.96.96 0 0 1-.04-.14.34.34 0 0 0-.035-.104c-.005 0-.018-.029-.029-.064-.016-.057-.066-.143-.177-.306a1.601 1.601 0 0 0-.295-.283c-.02-.01-.035-.021-.035-.028 0-.006-.031-.026-.069-.044a.514.514 0 0 1-.086-.05.375.375 0 0 0-.094-.042.6.6 0 0 1-.09-.035c-.08-.057-.308-.072-1.052-.073h-.704v1.474zm3.829 0v1.474h.563V17h-.563v1.474zm2.63-1.366a.411.411 0 0 1-.044.109c-.005 0-.021.037-.035.082a.66.66 0 0 1-.045.112.595.595 0 0 0-.043.113c-.013.046-.028.083-.034.083a.438.438 0 0 0-.046.116.438.438 0 0 1-.045.115c-.006 0-.021.034-.034.076a.666.666 0 0 1-.043.105.7.7 0 0 0-.044.108.715.715 0 0 1-.044.108.475.475 0 0 0-.035.087c-.01.032-.032.09-.05.13-.018.04-.041.103-.052.141-.011.038-.024.069-.03.069a.257.257 0 0 0-.036.083.413.413 0 0 1-.035.09.526.526 0 0 0-.042.101.777.777 0 0 1-.043.108.869.869 0 0 0-.046.116.662.662 0 0 1-.043.108.407.407 0 0 0-.034.087.702.702 0 0 1-.044.108.713.713 0 0 0-.044.109.71.71 0 0 1-.044.108.681.681 0 0 0-.042.109.438.438 0 0 1-.038.093c-.054.058-.024.066.273.065.33 0 .305.01.35-.13a.58.58 0 0 1 .046-.116.394.394 0 0 0 .04-.094c.015-.047.04-.113.057-.146a.324.324 0 0 0 .03-.078.2.2 0 0 1 .025-.058l.025-.042h.68c.767 0 .7-.01.744.123a.613.613 0 0 0 .042.108.282.282 0 0 1 .03.072c.01.036.034.098.052.138.017.04.045.104.06.144l.028.072.284.004c.267.004.284.003.284-.022 0-.033-.056-.202-.08-.242a.715.715 0 0 1-.042-.112c-.014-.046-.03-.083-.035-.083-.006 0-.019-.03-.03-.069a1.345 1.345 0 0 0-.052-.14 1.56 1.56 0 0 1-.05-.13.22.22 0 0 0-.029-.065.534.534 0 0 1-.043-.109.59.59 0 0 0-.043-.108.627.627 0 0 1-.047-.108 2.666 2.666 0 0 0-.12-.304.707.707 0 0 1-.042-.112c-.014-.046-.03-.083-.035-.083-.006 0-.019-.03-.03-.069a.982.982 0 0 0-.047-.126 1.38 1.38 0 0 1-.056-.143.596.596 0 0 0-.04-.101.527.527 0 0 1-.039-.096.361.361 0 0 0-.036-.086.54.54 0 0 1-.043-.109.547.547 0 0 0-.043-.108.537.537 0 0 1-.044-.108.597.597 0 0 0-.042-.109.374.374 0 0 1-.034-.083c-.04-.125-.018-.119-.433-.119h-.367l-.034.108zm2.903 1.366v1.474h.564v-1.953l.043.03c.024.018.043.039.043.047 0 .009.02.036.043.06.114.12.174.188.174.196 0 .009.082.104.16.184a.243.243 0 0 1 .042.052c0 .005.018.028.04.051.069.073.353.402.459.531.032.039.079.09.104.116.026.024.047.051.047.059s.015.028.033.044c.034.03.163.176.217.244.016.021.043.054.06.072l.07.082.105.116.063.069h.42V17h-.563v1.952l-.03-.016a.091.091 0 0 1-.038-.04.287.287 0 0 0-.05-.068 2.253 2.253 0 0 1-.174-.194 2.23 2.23 0 0 0-.163-.196 9.126 9.126 0 0 1-.212-.244 22.847 22.847 0 0 0-.288-.333 25.123 25.123 0 0 1-.605-.704c-.14-.166-.12-.157-.356-.157h-.208v1.474zm3.893-1.448a.37.37 0 0 0-.107.058.142.142 0 0 1-.045.032c-.034 0-.13.203-.139.294-.005.053-.014.096-.022.096-.007 0-.009.006-.004.014.006.01.193.015.514.015h.505v2.427h.191c.105 0 .235-.005.289-.01l.098-.009v-2.408h.337c.347 0 .471-.013.51-.05.012-.013.03-.023.038-.023.022 0 .14-.12.14-.141 0-.009.01-.021.021-.028.025-.014.066-.161.066-.238V17h-1.16c-1.065.001-1.165.003-1.232.026zm-11.77.546a.283.283 0 0 0 .093.042.26.26 0 0 1 .083.035.999.999 0 0 1 .38.375.39.39 0 0 1 .047.103.317.317 0 0 0 .037.087c.04.027.04.46 0 .512a.55.55 0 0 0-.037.095.326.326 0 0 1-.053.105c-.015.014-.027.035-.027.045 0 .018-.175.205-.238.254a1.082 1.082 0 0 1-.286.13.604.604 0 0 0-.1.03 3.52 3.52 0 0 1-.416.013h-.39v-1.851l.448.005c.305.003.452.01.459.02zm5.442.128a.47.47 0 0 1 .037.095.255.255 0 0 0 .03.072.563.563 0 0 1 .041.105c.018.053.038.1.044.104a.447.447 0 0 1 .044.109.334.334 0 0 0 .041.1c.006 0 .02.032.03.07.01.037.034.097.051.133.017.036.04.095.052.13a.286.286 0 0 0 .038.084c.07.073.055.075-.466.075h-.485l.01-.032a.565.565 0 0 0 .066-.155.582.582 0 0 1 .045-.117.413.413 0 0 0 .038-.094c.016-.047.041-.112.056-.144A.967.967 0 0 0 23 18.11c.01-.038.024-.069.03-.069.005 0 .021-.037.035-.083a.395.395 0 0 1 .036-.09.63.63 0 0 0 .043-.116.544.544 0 0 1 .053-.127.09.09 0 0 0 .02-.05c0-.02.009-.008.023.032.012.035.03.078.04.094zm-13.386-.093a.642.642 0 0 1 .047.108c.078.213.103.276.12.304.01.016.029.066.043.112.013.045.03.083.035.083.005 0 .018.03.03.068.01.038.031.095.047.127.015.032.037.087.05.123.011.035.033.09.047.122a.828.828 0 0 1 .036.09l.01.033h-.485c-.267 0-.485-.002-.485-.004 0-.003.013-.032.029-.065a.308.308 0 0 0 .029-.078c0-.01.012-.042.027-.07.014-.027.038-.086.052-.13a.414.414 0 0 1 .035-.086.688.688 0 0 0 .045-.116c.02-.06.04-.112.046-.116a.436.436 0 0 0 .04-.1.643.643 0 0 1 .042-.108.54.54 0 0 0 .038-.095.36.36 0 0 1 .036-.087.37.37 0 0 0 .036-.086c.015-.044.03-.07.034-.058a.072.072 0 0 0 .016.029zm-2.72.487a.585.585 0 0 0-.127.06.758.758 0 0 0-.173.197.764.764 0 0 1-.04.087c-.021.038-.024.125-.028.776l-.005.734h.58v-1.893l-.054.002a.666.666 0 0 0-.153.037z" fill="#241C24"/></g></svg>