<svg width="36" height="36" fill="none" xmlns="http://www.w3.org/2000/svg"><path d="M18 0c2.837 0 5.52.656 7.907 1.825C31.884 4.753 36 10.895 36 18c0 9.942-8.058 18-18 18-9.94 0-18-8.057-18-18C0 8.06 8.06 0 18 0z" fill="#F2F4F7"/><g fill="#066"><path d="M8 8v20h20V8H8zm19.387 19.387H8.613V8.613h18.774v18.774z"/><path d="M21.627 24.919c1.091 0 1.728-.327 2.136-.852l.181.712h.87v-3.274h-3.257v.98H23.7c-.134.811-.864 1.383-1.891 1.383-1.126 0-2.212-.723-2.212-2.334 0-1.54.922-2.323 2.125-2.323 1.126 0 1.674.525 1.884 1.22h1.209c-.129-.986-1.01-2.294-3.093-2.294-2.008 0-3.345 1.418-3.345 3.397.006 1.908 1.378 3.385 3.251 3.385zM12.295 12.82l2.014 4.914h.992l2.013-4.914v4.914h1.15v-6.507h-1.622l-2.02 4.938-2.013-4.938h-1.622v6.507h1.108V12.82zm5.229 10.43.444-.497-.269-1.09-.822.886a.08.08 0 0 1-.059.026.079.079 0 0 1-.058-.026l-.916-.998a.09.09 0 0 1 .005-.146l.222-.18c.584-.473.87-.928.87-1.448 0-.934-.706-1.587-1.722-1.587-.834 0-1.716.577-1.716 1.64 0 .566.35 1.038.642 1.371l.094.1a.079.079 0 0 1-.006.128l-.105.081c-.671.52-.986.957-.986 1.704 0 .84.647 1.687 1.896 1.687.584 0 1.068-.175 1.663-.764a.087.087 0 0 1 .129-.006l.59.636h1.394l-1.296-1.407a.098.098 0 0 1 .006-.11zm-2.317-4.162c.415 0 .718.292.718.683 0 .292-.163.543-.45.765l-.338.262-.198-.221c-.25-.28-.414-.537-.414-.782a.675.675 0 0 1 .682-.707zm.864 4.325c-.303.327-.595.543-1.01.543-.525 0-.851-.403-.851-.811 0-.473.285-.73.554-.946l.17-.128 1.184 1.29-.047.052z"/></g></svg>