<svg height="36" viewBox="0 0 36 36" width="36" xmlns="http://www.w3.org/2000/svg"><mask id="a" fill="#fff"><path d="M0 0h20v21.877H0z" fill-rule="evenodd"/></mask><mask id="b" fill="#fff"><path d="M0 0h20v21.877H0z" fill-rule="evenodd"/></mask><mask id="c" fill="#fff"><path d="M0 0h20v21.877H0z" fill-rule="evenodd"/></mask><mask id="d" fill="#fff"><path d="M0 0h20v21.877H0z" fill-rule="evenodd"/></mask><mask id="e" fill="#fff"><path d="M0 0h20v21.877H0z" fill-rule="evenodd"/></mask><mask id="f" fill="#fff"><path d="M0 0h20v21.877H0z" fill-rule="evenodd"/></mask><g fill="none" fill-rule="evenodd"><path d="M18 0c2.837 0 5.52.656 7.907 1.825C31.884 4.753 36 10.895 36 18c0 9.942-8.058 18-18 18-9.94 0-18-8.057-18-18C0 8.06 8.06 0 18 0z" fill="#f2f4f7" fill-rule="nonzero"/><path d="M15.367 19.213c.102-.223.006-.382-.108-.178-.086.152-.636.27-.888.19-.132-.041-.167-.122-.167-.384v-.332l.327.044c.276.036.326.022.326-.105 0-.125-.049-.14-.333-.103-.328.045-.332.041-.306-.19.024-.209.064-.24.328-.261.22-.02.347.02.47.141.207.209.25.211.25.016 0-.232-.157-.313-.685-.355-.778-.061-.828-.01-.816.862.013.87.008.865.916.855.547-.007.606-.024.686-.2zm-2.935.052c-.024-.09-.018-.44.014-.776l.057-.612h.27c.148 0 .314.055.369.122.131.158.242.086.188-.122-.04-.152-.112-.162-1.016-.162-.933 0-.975.006-1.041.183-.085.225.026.284.201.108.071-.07.24-.129.377-.129h.247l-.028.698c-.023.551-.004.711.093.773.201.127.315.093.269-.083zm-5.069-.508.025-.63.592.467c.495.39.592.506.592.708 0 .186.021.219.097.143.146-.147.115-2.145-.035-2.23-.092-.052-.106.064-.078.667.02.402.017.73-.004.73-.022 0-.308-.218-.636-.486-.77-.629-.836-.599-.833.373.004 1.185.237 1.398.28.258zm8.719-.552a.32.32 0 0 1 .101-.224c.161-.126.62-.19.68-.094.078.126-.087.258-.456.367-.294.086-.325.081-.325-.049zm1.33.99c-.192-.202-.35-.398-.35-.434 0-.037-.074-.14-.162-.23-.162-.161-.162-.162.02-.207.222-.056.42-.43.303-.57-.094-.113-.88-.066-1.041.063-.078.063-.091.05-.053-.05.064-.168.01-.168-.308-.004-.174.09-.221.15-.151.193.069.043.093.243.074.635-.018.394.009.613.084.704.19.229.254.15.254-.31 0-.371.026-.452.162-.495.224-.07.298-.01.573.478.367.65.525.794.756.684l.191-.09zm-7.149.534c.225-.124.52-.516.716-.953.145-.322.145-.334-.006-.445-.105-.077-.278-.1-.524-.071-.302.035-.395.013-.52-.125l-.151-.169.588.002c.324.002.607-.016.63-.038.021-.023-.075-.1-.214-.173-.22-.113-.324-.116-.763-.032-.656.13-.701.173-.517.514.148.275.153.276.599.232.443-.046.448-.045.39.149-.147.485-.37.89-.49.89-.07 0-.218-.058-.327-.13-.328-.215-.414-.044-.109.217.301.258.43.282.698.132zm-6.316-.975c.012-.911.007-.935-.184-1.026-.177-.083-.225-.062-.47.213a4.57 4.57 0 0 0-.412.528c-.078.123-.16.225-.185.225-.023 0-.143-.16-.266-.354-.307-.485-.506-.652-.704-.588-.143.044-.153.082-.08.293.057.162.058.393.005.706-.058.33-.054.508.01.612.168.268.217.153.217-.515v-.663l.368.502c.327.443.388.49.533.413.09-.05.142-.125.114-.17-.054-.086.491-.97.598-.97.033-.002.049.388.034.865-.03 1.043-.004 1.152.238.982.157-.109.173-.203.184-1.053zm1.208.12c-.21-.296-.355-.985-.184-.88.053.033.152.016.218-.04.183-.151.208-.069.182.587l-.024.602zm.478-.303v-.612h.24c.287 0 .37.186.29.651-.046.276-.299.574-.487.574-.023 0-.043-.276-.043-.613zm.016 1.127c-.023-.232.014-.276.386-.478.351-.192.418-.267.457-.518.025-.161.06-.392.08-.511.045-.29-.141-.431-.538-.407-.316.018-.32.015-.32-.277 0-.237-.028-.289-.142-.267-.079.015-.148.1-.151.19-.018.347-.03.356-.381.327-.52-.042-.634.078-.543.567.041.22.13.482.196.583.092.142.501.492.763.654.015.01-.012.088-.059.176-.097.181-.035.281.15.243.088-.018.12-.103.102-.282zm12.112.811c-.098-.099-.145.064-.082.283l.067.228.031-.232c.017-.127.01-.253-.016-.279zm-.128.39a.081.081 0 1 0-.163-.001.081.081 0 0 0 .163 0zm-.17-.307c.004-.057-.03-.103-.075-.103s-.08.12-.076.266c.005.222.017.239.076.102a.998.998 0 0 0 .075-.265zm-.371.122c.039-.16.022-.225-.056-.225-.076 0-.098.077-.073.25.041.286.055.283.129-.025zM0 10.938V0h20v21.877H0z" fill="#dddc54" mask="url(#a)" transform="translate(8 7)"/><path d="M4.856 1.47c.029-.046-.003-.06-.076-.032-.142.054-.168.113-.05.113.042 0 .1-.037.126-.081zm7.348.326c.028-.045-.005-.06-.078-.032-.141.055-.167.113-.05.113.043 0 .1-.036.128-.08zm1.101 1.428c0-.157.031-.285.069-.285.13 0 .042-.335-.135-.512-.18-.18-.87-.369-1.403-.384-.269-.007-.276-.015-.127-.128.087-.066.12-.12.074-.12-.047 0-.151.074-.232.164-.144.16-.143.163.05.163.11 0 .272.052.36.114.1.07.342.108.627.1.256-.008.447.002.427.022-.02.021.018.12.084.221.076.116.111.324.093.557-.015.207.004.374.043.374.039 0 .07-.128.07-.286zM13.1 4.891c-.042-.19-.015-.295.106-.428.133-.146.152-.244.108-.545-.05-.34-.06-.35-.115-.143a.985.985 0 0 0-.013.41c.033.133-.012.241-.158.379-.196.184-.198.199-.065.382.183.253.203.245.137-.055zm.036.544c.01-.337-.043-.235-.1.198-.033.245-.025.312.023.203.04-.089.075-.27.077-.4zM6.432 6.907a7.131 7.131 0 0 1-.143-.559c-.034-.167-.103-.353-.15-.41-.179-.215-.254-.796-.144-1.11.15-.427.228-1.398.137-1.685a5.87 5.87 0 0 1-.123-.455c-.024-.114-.138-.316-.252-.448-.113-.132-.206-.266-.206-.296 0-.03-.083-.083-.184-.117-.166-.054-.266-.069-.739-.103-.082-.005-.125-.046-.098-.09.055-.09-.41-.022-.612.089-.092.05-.07.069.082.07.113.001.46.056.775.121.626.131.897.349.835.67-.023.12.03.24.157.35.106.091.197.25.202.351.03.542-.009.901-.164 1.501l-.172.664.198.356c.108.197.258.596.334.887.159.622.201.706.285.57.035-.056.026-.216-.018-.356zm3.465 1.048c.027-.132-.002-.383-.06-.557-.06-.174-.089-.373-.062-.442.027-.07.015-.105-.027-.08-.115.071-.126-.339-.023-.81.082-.37.076-.453-.049-.645a.74.74 0 0 1-.107-.514c.02-.163.011-.387-.019-.499-.032-.115-.008-.324.054-.478.114-.287.099-.356-.146-.628-.124-.138-.136-.217-.07-.448.107-.37.104-.813-.005-.813-.048 0-.067-.033-.043-.072.1-.16-.472-.586-.734-.548-.227.033-.241.212-.016.212.322 0 .607.384.626.843.01.218-.028.448-.081.513-.08.095-.055.165.131.36.197.205.218.267.143.43-.124.273-.034 1.61.12 1.786.076.089.101.22.07.369-.099.452-.129 1.03-.059 1.119.04.049.12.281.178.515.083.331.086.472.01.636a1.067 1.067 0 0 0-.095.31c0 .154.212-.291.264-.559zm3.682.27a4.685 4.685 0 0 0-.064-.658c-.028-.125-.023-.273.01-.326.078-.126.093-.711.017-.665-.031.02-.14-.102-.24-.27-.231-.388-.307-.223-.081.178.145.259.158.361.094.764-.056.355-.046.52.04.686a1.1 1.1 0 0 1 .114.415c0 .153.057.304.116.304.003 0 .001-.193-.006-.429zm-7.158 2.401a.595.595 0 0 1-.136-.342c0-.185-.004-.187-.113-.038-.102.14-.09.18.102.365.242.234.356.246.147.015zm7.048-.034c0-.04.027-.054.062-.033.034.02.06-.36.06-.845.002-.486-.026-.866-.06-.845-.034.02-.062.378-.062.794 0 .537-.034.8-.12.913a.59.59 0 0 0-.12.281c0 .092.03.083.12-.036.066-.087.12-.19.12-.23zm-3.96-.118c-.066-.158-.102-.317-.08-.353.023-.037.008-.078-.033-.094-.04-.015-.019-.165.049-.333.068-.169.146-.29.176-.273.028.018.062-.091.072-.241.012-.15-.017-.296-.061-.324-.045-.027-.081.02-.081.103s-.055.224-.12.31a.679.679 0 0 0-.123.338c0 .098-.039.202-.083.23-.13.08-.092.39.075.607.11.142.142.285.114.49l-.041.29.128-.23c.114-.206.115-.263.008-.52zm4.042.745c0-.02-.037-.035-.082-.035a.085.085 0 0 0-.082.086c0 .048.038.064.082.036.045-.028.082-.066.082-.087zm-7.098-.08c-.04-.133-.075-.18-.08-.105-.007.152.08.417.124.373.016-.014-.004-.136-.044-.269zm6.815.855c.088-.142-.012-.172-.123-.037-.065.077-.071.124-.017.124.047 0 .111-.04.14-.087zm-6.655.127c-.174-.506-.168-.38.013.328.059.225.116.352.13.285.013-.069-.051-.344-.143-.613zm.268 1.02c.023-.088.009-.141-.032-.117-.04.026-.074.1-.074.164 0 .17.056.145.106-.046zm2.805.95c-.105-.162-.109-.22-.02-.34.106-.146.086-.321-.102-.894-.077-.233-.081-.235-.088-.04-.003.112.026.32.067.462.054.19.042.302-.046.427-.114.164-.096.258.091.475.154.177.23.109.098-.09zm-2.613-.002c-.007-.108-.04-.18-.073-.158s-.065-.047-.07-.15c-.007-.115-.025-.138-.045-.06-.034.124.095.564.165.564.02 0 .03-.088.023-.196zm2.763.466c-.073-.126-.108-.155-.078-.065.03.089.077.31.107.49.051.319.052.32.078.064a.955.955 0 0 0-.107-.489zm5.531 4.658c.101-.223.005-.382-.108-.179-.085.153-.636.271-.888.191-.132-.041-.167-.122-.167-.384v-.332l.327.045c.276.036.325.02.325-.106 0-.124-.049-.14-.332-.103-.328.045-.332.041-.307-.19.024-.208.064-.24.33-.261.218-.02.347.02.468.141.208.209.25.211.25.016 0-.232-.157-.313-.684-.355-.78-.062-.828-.01-.816.862.012.87.008.866.915.855.547-.007.606-.024.687-.2zm-2.935.052c-.024-.09-.017-.44.014-.776l.058-.612h.269c.147 0 .313.055.369.122.13.158.242.086.187-.122-.039-.152-.11-.163-1.014-.163-.935 0-.977.007-1.042.184-.086.225.025.284.202.108.07-.07.24-.129.376-.129h.247l-.029.697c-.023.552-.004.712.094.775.202.126.314.092.269-.084zm-5.068-.508.023-.63.592.467c.496.39.592.506.592.708 0 .186.022.219.097.143.147-.147.117-2.145-.034-2.23-.093-.052-.107.064-.078.667.02.402.018.73-.004.73s-.308-.218-.637-.486c-.77-.629-.836-.599-.832.373.004 1.185.236 1.398.28.258zm8.718-.552c0-.079.045-.18.102-.224.16-.127.62-.19.679-.094.077.126-.087.257-.457.367-.292.086-.324.081-.324-.049zm1.33.99c-.193-.202-.351-.398-.351-.434 0-.037-.073-.14-.162-.23-.162-.161-.162-.162.021-.207.22-.056.42-.43.304-.57-.095-.113-.88-.066-1.042.063-.078.063-.092.05-.053-.05.065-.168.01-.168-.308-.004-.175.09-.222.15-.152.193.07.043.094.243.076.635-.019.393.007.613.083.704.188.229.254.15.254-.31 0-.371.025-.452.162-.495.223-.071.298-.01.573.479.367.65.525.793.756.683l.192-.09zm-7.15.534c.225-.124.52-.516.717-.953.146-.322.146-.334-.006-.445-.106-.077-.278-.1-.525-.071-.3.035-.394.013-.519-.125l-.152-.169.59.002c.323.002.606-.016.628-.038.022-.022-.074-.1-.213-.172-.22-.114-.324-.117-.764-.033-.656.13-.7.173-.517.514.148.275.154.276.599.232.445-.047.448-.045.39.149-.145.485-.368.89-.488.89-.072 0-.22-.058-.328-.13-.329-.215-.415-.044-.11.217.301.257.43.282.699.132zm-6.315-.975c.012-.911.008-.935-.185-1.026-.177-.084-.225-.062-.47.213a4.8 4.8 0 0 0-.412.528c-.077.123-.16.225-.184.225-.023 0-.144-.16-.266-.354-.307-.486-.506-.652-.705-.588-.142.044-.152.082-.079.292.057.163.058.395.004.707-.056.33-.054.508.012.612.167.268.215.153.215-.515v-.663l.37.502c.325.443.387.49.532.413.09-.05.141-.126.113-.17-.053-.086.492-.971.599-.971.033 0 .048.39.034.865-.031 1.044-.005 1.153.238.983.156-.109.172-.203.184-1.053zm1.208.12c-.21-.296-.355-.985-.185-.88.055.033.153.016.22-.04.182-.151.207-.069.18.587l-.023.602zm.478-.303v-.612h.239c.287 0 .37.185.29.65-.046.277-.298.575-.486.575-.024 0-.043-.276-.043-.613zm.016 1.127c-.023-.232.013-.275.386-.478.351-.192.418-.267.457-.517l.079-.512c.045-.29-.14-.431-.537-.407-.317.018-.32.015-.32-.277 0-.237-.028-.289-.143-.267-.078.015-.146.1-.151.19-.017.347-.028.356-.38.328-.52-.043-.635.076-.543.566.041.22.13.482.195.583.093.142.502.492.763.654.015.01-.011.089-.058.176-.097.181-.036.281.15.243.088-.018.12-.102.102-.282zm12.112.811c-.098-.1-.146.064-.082.283l.066.228.031-.232c.018-.127.011-.253-.015-.279zm-.128.39a.082.082 0 0 0-.082-.083.082.082 0 0 0-.082.082.082.082 0 0 0 .164 0zm-.17-.307c.003-.057-.031-.103-.076-.103-.044 0-.079.12-.075.265.004.223.017.24.075.103.04-.09.073-.21.077-.265zm-.371.122c.038-.16.023-.225-.057-.225-.075 0-.098.077-.072.25.042.285.055.283.129-.025zM0 10.939V-.001h20v21.878H0z" fill="#d0d832" mask="url(#b)" transform="translate(8 7)"/><path d="M21.543 17.796c.156-.599.187-.85.255-2.08.005-.079.04-.16.077-.184.037-.023.039-.17.003-.328-.035-.157-.05-.286-.03-.286.017 0-.02-.082-.085-.183-.066-.102-.138-.46-.162-.797-.023-.336-.096-.722-.164-.857-.124-.249-.095-.719.118-1.877.04-.225.096-.681.121-1.015.027-.333.083-.67.125-.75.062-.114-.013-.233-.371-.597-.46-.467-.562-.523-.663-.36-.035.058-.022.072.037.035.057-.035.096 0 .1.09.005.132.013.13.075-.016.057-.133.072-.137.076-.024.008.166-.154.283-.228.165-.035-.057-.15-.05-.356.02-.167.058-.283.07-.256.025.028-.044-.025-.04-.118.01-.092.05-.218.07-.28.046s-.18.032-.263.123c-.148.163-.147.166.048.166.109 0 .27.05.36.11.088.06.339.11.558.11.6-.003.69.16.674 1.218-.012.748-.033.858-.199 1.035-.163.174-.17.208-.059.3.095.079.122.25.111.686-.012.466.022.644.164.892.156.272.169.365.104.775-.058.37-.047.517.055.71.187.36.154 2.33-.046 2.678-.107.185-.116.253-.038.28.057.02.082.07.057.111-.026.041-.008.075.037.075s.12-.137.163-.306zm.028.729c.045-.178-.01-.341-.117-.341-.046 0-.063.054-.037.123.027.067.02.121-.014.121s-.062.07-.062.154c0 .184.179.14.23-.057zm-.123.767c-.013-.18-.054-.258-.123-.232-.07.027-.085-.007-.046-.112.05-.133.04-.139-.077-.043-.123.1-.121.122.03.285.09.097.147.241.127.32-.02.08-.004.123.036.097.04-.024.065-.167.053-.315zm-6.605-.145a34.275 34.275 0 0 0-.106-1.351c-.032-.273-.018-.429.036-.429.046 0 .084-.07.084-.154 0-.085.056-.26.122-.387.147-.283.16-.658.024-.703-.066-.022-.104-.262-.113-.712-.012-.546.017-.73.147-.952l.162-.274-.239-.307c-.132-.169-.345-.612-.473-.985-.213-.621-.225-.716-.142-1.113.054-.256.064-.553.026-.726-.036-.16-.053-.304-.037-.32.015-.016.046-.247.067-.514.06-.75.13-1.01.262-.96.162.062.142-.195-.03-.378-.181-.193-.664-.323-1.302-.35-.275-.013-.485-.045-.467-.073.028-.046-.527.114-.905.262-.147.057-.143.064.041.07.112.002.462.058.775.124.626.13.897.347.835.669-.023.12.03.24.157.35.106.092.198.25.202.35.03.543-.009.902-.164 1.502l-.171.664.196.357c.294.533.56 1.622.518 2.113-.02.227-.008.43.026.451.033.021.086.306.117.633.053.563.043.616-.191 1.013l-.247.42.17.113c.122.081.18.218.198.476.057.782.094 1.031.22 1.463.074.248.135.541.14.654.004.156.019.172.062.064.03-.076.03-.552 0-1.06zm.23 1.934c-.007-.112-.04-.204-.073-.204s-.065-.064-.07-.143c-.008-.117-.016-.12-.045-.014-.033.125.096.566.165.566.02 0 .03-.092.023-.205zm2.85.674a7.75 7.75 0 0 0-.096-.735c-.028-.126-.009-.275.043-.338.072-.086.065-.196-.025-.46-.082-.238-.095-.406-.043-.545.09-.238.1-.678.014-.678-.033 0-.041-.339-.017-.754.025-.416.018-.866-.013-1l-.108-.477c-.029-.13-.02-.211.021-.185.041.024.137-.11.216-.3.08-.197.163-.394.249-.59.06-.134.171-.418.248-.631l.14-.387-.251-.527c-.216-.45-.24-.565-.171-.796a2.66 2.66 0 0 0 .085-.597c.004-.18.066-.428.137-.55.12-.205.119-.254-.01-.612-.077-.215-.137-.481-.134-.594a8.318 8.318 0 0 0-.087-.856c-.076-.528-.071-.761.024-1.211l.116-.558-.197-.075a1.417 1.417 0 0 0-.427-.075c-.126 0-.27-.05-.322-.112-.075-.09-.043-.122.159-.163.156-.03.23-.084.195-.14-.034-.054-.078-.06-.107-.015-.03.04-.158.073-.288.069-.146-.004-.251.04-.272.116-.031.108-.024.108.06 0 .083-.104.089-.1.048.027-.027.082-.05.168-.05.189s-.035.017-.078-.01c-.117-.073-.574.187-.574.327 0 .072.077.12.19.12.314 0 .6.39.618.845.01.216-.028.447-.081.512-.08.096-.054.165.131.36.197.204.219.268.144.431-.125.272-.035 1.61.118 1.786.077.088.102.22.07.367-.098.453-.127 1.03-.058 1.119.165.21.285.927.193 1.165a3.24 3.24 0 0 0-.142.571c-.028.187-.103.408-.166.49a.646.646 0 0 0-.116.33c-.002.098-.04.201-.084.229-.123.075-.099.348.052.578.136.206.168.535.212 2.17.012.433.05.816.083.85.033.034.006.145-.061.248-.116.179-.093.439.04.439.085 0 .326.707.326.954 0 .103.021.189.047.189.024 0 .024-.23 0-.51zm5.444 4.458c.102-.223.006-.382-.108-.178-.085.152-.636.27-.888.19-.132-.041-.166-.122-.166-.384v-.333l.326.045c.276.036.326.022.326-.105 0-.125-.049-.14-.332-.102-.329.044-.333.04-.307-.191.024-.208.063-.24.328-.261.22-.02.348.02.47.142.207.207.25.21.25.014 0-.23-.157-.312-.685-.353-.778-.063-.828-.01-.816.861.013.87.008.865.915.855.548-.006.606-.024.687-.2zm-2.935.052c-.024-.09-.017-.44.014-.776l.058-.612h.269c.147 0 .314.055.369.122.132.158.243.087.188-.122-.04-.151-.112-.163-1.015-.163-.934 0-.976.007-1.042.183-.085.226.026.285.202.11.07-.071.24-.13.376-.13h.247l-.029.698c-.023.552-.004.712.094.773.202.128.315.093.269-.083zm-5.068-.508.023-.63.592.467c.496.39.593.506.593.707 0 .187.022.22.097.145.146-.148.116-2.147-.034-2.23-.093-.053-.108.063-.079.666.02.4.018.73-.004.73s-.308-.22-.636-.486c-.77-.629-.836-.6-.832.373.003 1.184.236 1.398.28.258zm8.718-.552c0-.08.045-.18.102-.225.16-.125.62-.189.679-.093.078.125-.087.258-.457.367-.292.086-.324.082-.324-.05zm1.33.99c-.193-.202-.35-.398-.35-.434 0-.037-.074-.14-.163-.229-.16-.162-.16-.163.021-.208.22-.056.42-.43.304-.571-.095-.113-.88-.065-1.042.064-.078.063-.091.05-.053-.05.065-.169.01-.169-.308-.004-.175.09-.221.15-.152.194.07.042.094.242.076.634-.019.394.008.613.083.705.19.228.254.149.254-.311 0-.371.026-.452.163-.495.223-.07.297-.01.572.478.367.65.525.793.757.684l.19-.09zm-7.148.534c.224-.124.519-.516.715-.953.146-.322.146-.334-.006-.445-.105-.077-.278-.1-.524-.07-.302.035-.394.012-.52-.126l-.152-.168.59.001c.323.002.606-.016.628-.038.022-.023-.074-.1-.213-.173-.22-.113-.324-.117-.763-.031-.657.129-.7.171-.517.513.148.275.153.277.598.231.445-.045.45-.043.39.15-.145.486-.368.89-.488.89-.072 0-.22-.059-.327-.13-.329-.214-.415-.043-.11.217.301.258.43.282.699.132zm-6.317-.975c.012-.911.008-.935-.184-1.026-.178-.083-.225-.061-.47.212-.15.167-.336.406-.413.528-.076.124-.16.226-.184.226-.023 0-.143-.16-.266-.354-.307-.485-.505-.652-.705-.589-.141.046-.152.083-.079.294.057.162.059.393.004.706-.056.33-.054.508.012.612.167.268.215.154.215-.516v-.661l.37.501c.326.443.387.49.532.413.09-.049.141-.125.114-.17-.054-.086.492-.97.598-.97.033-.002.049.388.034.865-.03 1.042-.004 1.152.238.982.157-.109.173-.204.184-1.053zm1.208.12c-.21-.296-.355-.985-.184-.88.054.033.152.016.218-.04.183-.151.208-.068.182.587l-.024.602zm.478-.303v-.612h.239c.287 0 .37.186.292.651-.047.276-.3.574-.488.574-.023 0-.043-.276-.043-.613zm.016 1.127c-.023-.231.014-.276.386-.478.351-.192.418-.267.457-.518.024-.16.06-.392.08-.51.044-.292-.141-.432-.537-.408-.317.018-.32.015-.32-.277 0-.237-.029-.29-.144-.267-.077.015-.146.101-.151.19-.017.347-.028.356-.38.327-.52-.042-.634.078-.543.567.041.219.13.483.196.583.092.142.5.492.762.654.016.01-.01.088-.058.176-.097.181-.036.281.15.243.088-.018.12-.103.102-.282zm12.112.811c-.098-.099-.146.064-.082.283l.067.228.031-.232c.018-.127.01-.252-.016-.279zm-.128.388a.083.083 0 0 0-.082-.081.083.083 0 0 0-.082.081.082.082 0 0 0 .164 0zm-.17-.306c.003-.055-.03-.102-.076-.102-.044 0-.078.12-.075.266.004.222.017.239.075.102.04-.09.074-.21.077-.266zm-.371.123c.039-.161.023-.225-.056-.225-.076 0-.099.078-.073.25.042.286.055.283.129-.025zM8 17.938V7h20v21.877H8z" fill="#afcd3a"/><path d="M13.755 12.637c.135-.144.2-.234.143-.2-.068.042-.103.008-.103-.101 0-.09-.04-.19-.09-.22-.06-.036-.075-.202-.044-.468.03-.246.014-.455-.038-.517-.062-.075-.05-.252.043-.623.071-.286.13-.718.13-.963s.073-.645.162-.89c.107-.294.136-.472.082-.525-.045-.045-.081-.15-.081-.232s-.06-.268-.135-.413c-.075-.143-.148-.495-.163-.782-.015-.286-.067-.57-.116-.629-.118-.142-.015-1.595.139-1.963.061-.149.111-.451.111-.675s.038-.43.082-.456c.09-.056.112-.765.031-.977-.027-.072-.154-.185-.28-.25-.125-.065-.252-.189-.278-.275-.075-.236-.291-.28-.485-.1-.21.193-.739.418-.985.418-.1 0-.247.073-.33.163-.143.159-.142.163.052.163.109 0 .282.06.384.13a.493.493 0 0 0 .38.082c.234-.059.604.07.741.258.068.093.095.413.08.979-.017.736-.042.865-.198 1.031-.164.175-.167.199-.044.301.11.091.126.205.085.605-.043.423-.021.548.154.892.18.356.194.45.13.857-.057.36-.045.508.056.702.18.346.154 2.352-.034 2.64-.102.157-.11.238-.036.399.104.228.039.733-.117.92-.084.1-.072.203.061.55.091.236.189.43.216.43.028 0 .16-.118.295-.261zm-.248.51c.081-.131-.096-.171-.202-.044-.081.098-.077.121.028.121.07 0 .148-.034.174-.076zm-6.533-.752a16.352 16.352 0 0 0-.067-1.415c-.053-.434-.03-.561.184-1.103.228-.572.235-.622.11-.761-.22-.242-.237-1.17-.031-1.635l.167-.378-.188-.225a4.153 4.153 0 0 1-.38-.593c-.177-.337-.194-.475-.208-1.692-.017-1.346.022-1.575.414-2.486.077-.18-.244-.461-.739-.65-.412-.156-1.069-.112-1.9.127-.509.147-.61.212-.329.212.108 0 .454.054.768.12.627.13.897.346.836.667-.024.122.03.241.156.351.106.092.197.25.203.351.029.542-.01.901-.166 1.501l-.17.664.196.356c.31.563.567 1.64.504 2.11-.029.22-.019.42.023.445.041.025.101.3.132.612.054.53.042.594-.193 1.02-.235.43-.24.458-.097.535.148.079.203.31.28 1.186.023.27.21 1.126.345 1.577.092.308.155-.071.15-.896zm.088 1.666a4.8 4.8 0 0 1-.036-.368c-.008-.196-.169-.18-.169.016 0 .173.137.576.197.576.02 0 .023-.1.008-.224zm2.979.974c0-.126-.04-.442-.087-.7-.064-.349-.062-.499.009-.584.072-.088.067-.196-.025-.464-.074-.22-.094-.418-.052-.532.037-.099.053-.855.036-1.679-.026-1.173-.008-1.54.08-1.695.135-.233.166-.303.394-.891.096-.247.204-.471.24-.498.088-.063-.006-.44-.208-.843-.127-.254-.149-.407-.104-.735.03-.228.059-.57.062-.76.006-.26.045-.357.158-.393.185-.059.185-.064-.003-.701-.084-.286-.155-.593-.157-.682-.001-.09-.047-.451-.1-.802-.073-.485-.074-.72-.002-.98.193-.7.196-.872.017-.872-.09 0-.275-.11-.41-.244-.285-.288-.593-.318-.828-.082-.09.09-.183.163-.207.163-.023 0-.171.054-.329.12-.26.108-.276.134-.181.285a.38.38 0 0 0 .28.166c.285 0 .566.406.589.852.01.213-.024.44-.079.506-.079.095-.054.164.133.358.196.205.217.269.143.433-.121.265-.036 1.609.113 1.78.096.109.099.229.017.723-.07.417-.073.633-.012.73.161.257.294 1.03.206 1.197a2.232 2.232 0 0 0-.14.524c-.032.202-.11.448-.173.548a.777.777 0 0 0-.115.342c0 .088-.037.184-.082.211-.123.076-.098.35.055.582.136.208.153.378.206 2.125.014.458.053.858.087.892.033.035.006.146-.06.247-.118.18-.094.44.04.44.084 0 .325.707.325.954 0 .104.037.19.082.19.045 0 .082-.105.082-.23zm5.326 4.177c.102-.222.006-.381-.108-.178-.085.153-.635.271-.888.191-.132-.042-.167-.123-.167-.384v-.332l.327.044c.276.037.326.021.326-.104 0-.126-.049-.142-.333-.104-.328.045-.332.041-.306-.19.024-.208.064-.24.328-.262.22-.018.348.021.47.142.207.208.25.211.25.016 0-.232-.157-.313-.685-.355-.778-.062-.827-.01-.816.863.013.869.009.864.916.853.547-.006.606-.022.686-.2zm-2.935.053c-.024-.09-.018-.439.014-.776l.058-.611h.269c.148 0 .314.053.369.12.132.159.242.087.188-.12-.04-.152-.112-.164-1.016-.164-.933 0-.975.007-1.041.184-.085.224.026.284.201.108.071-.07.24-.128.377-.128h.247l-.028.696c-.023.553-.004.712.094.775.2.126.314.092.268-.084zm-5.068-.508.024-.63.591.467c.496.39.593.506.593.707 0 .187.022.22.097.144.146-.147.115-2.145-.035-2.23-.092-.052-.106.064-.078.667.02.401.018.73-.004.73s-.308-.219-.636-.486c-.77-.628-.836-.6-.832.373.003 1.184.236 1.398.28.258zm8.718-.552c0-.079.045-.18.102-.224.16-.127.62-.19.679-.094.078.125-.087.258-.456.367-.293.086-.325.082-.325-.049zm1.33.99c-.192-.203-.35-.398-.35-.434 0-.038-.074-.14-.163-.23-.16-.16-.16-.161.02-.207.223-.056.42-.43.305-.57-.095-.113-.88-.065-1.042.063-.078.064-.091.05-.053-.05.065-.168.01-.168-.308-.004-.174.09-.221.15-.152.194.07.042.094.242.075.634-.018.393.009.613.084.704.19.228.254.15.254-.31 0-.372.026-.453.162-.495.224-.071.298-.01.573.479.367.65.525.792.757.683l.19-.09zm-7.148.535c.224-.125.519-.518.715-.954.145-.323.145-.334-.006-.445-.105-.077-.278-.1-.524-.07-.302.035-.395.011-.52-.126l-.15-.169.587.002c.324.002.607-.016.63-.038.021-.022-.075-.1-.214-.172-.22-.114-.324-.117-.763-.032-.657.128-.7.172-.517.513.148.275.153.277.598.232.444-.047.449-.045.39.149-.146.485-.368.89-.488.89-.072 0-.22-.059-.328-.13-.328-.214-.414-.044-.109.217.301.257.43.283.699.133zm-6.317-.976c.012-.91.007-.935-.184-1.025-.178-.084-.225-.063-.47.212-.15.167-.336.404-.412.528-.077.123-.16.224-.185.224-.023 0-.143-.159-.266-.353-.306-.486-.506-.651-.704-.589-.142.046-.152.083-.08.293.057.163.058.395.005.707-.057.33-.055.508.01.611.168.269.217.154.217-.514v-.662l.368.5c.327.445.388.49.533.414.09-.049.142-.125.114-.17-.054-.087.491-.971.598-.971.033 0 .049.389.034.866-.03 1.043-.004 1.152.238.983.157-.11.173-.205.184-1.054zm1.208.12c-.21-.296-.355-.985-.184-.879.053.033.152.015.218-.04.183-.152.208-.07.182.586l-.024.601zm.478-.303v-.612h.24c.287 0 .37.186.29.65-.046.277-.299.574-.487.574-.023 0-.043-.275-.043-.612zm.016 1.128c-.023-.232.014-.277.386-.48.351-.191.418-.267.457-.517.025-.161.06-.392.08-.511.044-.29-.141-.43-.538-.408-.316.02-.32.017-.32-.276 0-.236-.028-.29-.142-.267-.078.015-.148.101-.151.19-.018.347-.03.356-.381.328-.52-.043-.634.077-.543.566.041.22.13.482.196.583.092.143.501.492.763.654.015.01-.012.089-.059.177-.097.18-.035.28.15.242.088-.018.12-.102.102-.281zm12.112.81c-.098-.098-.145.063-.082.283l.067.229.031-.232c.017-.128.01-.254-.016-.28zm-.128.389a.081.081 0 0 0-.082-.082.082.082 0 0 0-.082.082c0 .045.037.082.082.082a.081.081 0 0 0 .082-.082zm-.17-.307c.004-.056-.03-.101-.075-.101s-.079.12-.076.265c.004.223.017.238.076.102.038-.09.073-.21.076-.266zm-.371.123c.039-.16.022-.224-.056-.224-.076 0-.099.077-.073.248.041.287.055.284.129-.024zM0 10.94V-.001h20v21.878H0z" fill="#a5c847" mask="url(#c)" transform="translate(8 7)"/><path d="M13.705 12.924c.248-.464.263-.528.175-.796-.13-.393-.177-1.556-.074-1.827.046-.121.095-.458.11-.75.016-.311.1-.7.204-.937.159-.368.166-.444.073-.776-.057-.203-.087-.372-.066-.374.02-.004-.032-.075-.115-.159-.124-.122-.144-.235-.11-.606a6.16 6.16 0 0 1 .086-.638c.024-.107.005-.184-.047-.184-.05 0-.066-.024-.037-.053.03-.03.013-.103-.036-.163a.257.257 0 0 1-.044-.23c.026-.066.012-.142-.032-.168-.105-.066-.099-.745.008-.945.047-.088.118-.14.157-.115.04.024.053-.135.03-.353-.035-.31-.003-.476.14-.756.108-.211.18-.489.172-.671-.015-.37-.366-1.007-.594-1.08-.09-.028-.18-.15-.205-.276l-.046-.226-.295.15c-.163.084-.338.23-.39.325-.087.167-.582.394-.86.397-.174.002-.576.32-.52.412.025.04.1.05.165.025.067-.025.217.016.334.094a.686.686 0 0 0 .469.1c.262-.04.612.091.757.283.05.065.061.367.03.76-.03.373-.02.698.024.756.078.103-.04.319-.25.452-.138.09-.127.26.024.388.089.072.11.176.074.343-.098.447-.053.78.152 1.135.19.328.198.387.115.782-.077.367-.07.472.058.735.17.355.19 1.467.038 2.226-.05.247-.085.682-.077.968.01.387-.021.558-.125.672-.12.134-.125.196-.035.521.058.206.083.541.058.758-.026.212-.003.534.05.713l.097.327.044-.368c.024-.201.165-.593.314-.871zm-6.513 1.344c-.094-.515-.083-2.407.014-2.565.028-.047 0-.283-.065-.527-.11-.412-.104-.491.08-1.217.211-.836.23-1.046.106-1.203-.044-.056-.055-.233-.025-.394.034-.183.019-.337-.041-.41-.064-.075-.07-.151-.02-.217a1.96 1.96 0 0 0 .181-.362c.095-.24.085-.288-.137-.613a3.492 3.492 0 0 1-.537-1.378c-.03-.224.024-.41.23-.796.148-.276.234-.481.19-.454-.113.07-.294-.211-.352-.55-.039-.226.015-.462.231-1.016.334-.852.3-1.063-.182-1.142a3.783 3.783 0 0 1-.587-.16c-.252-.095-.346-.093-.648.011-.196.068-.434.102-.531.078-.097-.024-.327.029-.511.118-.185.089-.401.163-.482.164a.626.626 0 0 0-.31.133c-.163.13-.163.131 0 .075.166-.058 1.055.073 1.438.212.236.086.421.404.347.597-.028.073.029.186.139.274.246.2.313.965.132 1.535-.232.737-.24.974-.048 1.35.301.59.488 1.369.471 1.96-.009.308.025.596.077.658.05.061.098.353.105.65.013.446-.022.602-.202.926l-.218.389.175.186c.116.123.163.255.138.387a.692.692 0 0 0 .063.39c.061.113.076.243.036.318-.042.077-.01.301.083.575.084.246.207.79.274 1.21.067.418.18.824.25.902a.57.57 0 0 1 .127.33c0 .107.024.17.051.142.028-.029.01-.282-.042-.566zm2.97.575c.103-.802.063-1.356-.125-1.708-.066-.123-.063-.271.013-.567.073-.289.078-.45.015-.589-.066-.145-.057-.248.04-.433.14-.264.141-1.021.002-1.107-.055-.034-.054-.07.006-.107.113-.07.12-.373.01-.373-.131 0-.095-.238.091-.6l.246-.48a.795.795 0 0 0 .07-.295c0-.085.086-.28.19-.433l.192-.281-.231-.568c-.261-.641-.282-.826-.116-1.01.153-.17.271-.625.141-.545-.166.103-.1-.095.12-.356l.213-.254-.212-.305c-.244-.353-.384-1.184-.353-2.097.017-.467.062-.638.248-.925.343-.534.316-.578-.599-.995-.403-.183-.977-.159-1.15.05C8.92.928 8.74.98 8.571.98c-.173 0-.351.054-.409.123-.056.067-.152.123-.214.123s-.112.069-.112.153c0 .154.317.257.79.257.107 0 .252.101.358.25.156.218.174.327.138.819-.034.477-.019.579.099.64.118.064.139.217.14 1.044.002.747.032 1.016.132 1.168.103.156.115.269.055.526-.096.413-.101.964-.01 1.065.04.042.113.252.166.467.076.312.072.431-.019.611a2.55 2.55 0 0 0-.173.631c-.031.225-.088.446-.122.49-.106.137-.283.727-.257.858a.665.665 0 0 0 .143.256c.065.073.115.275.112.448-.011.506.069 2.003.124 2.331.029.17.01.375-.042.472-.074.139-.062.224.062.435.29.492.377.907.274 1.312a3.09 3.09 0 0 0-.093.557c.001.168.02.157.172-.092.111-.182.207-.562.276-1.08zM12.468 19c.012-1.2-.008-1.123.297-1.123.152 0 .323.058.381.127.126.151.27.04.195-.154-.045-.116-.192-.135-1.02-.135-.874 0-.977.014-1.053.157a.784.784 0 0 0-.084.204c0 .09.176.045.298-.076.066-.067.233-.123.369-.123h.247l-.028.698c-.023.551-.004.711.093.773.24.152.301.083.305-.348zm2.859.33c.116-.097.138-.392.028-.392-.04 0-.092.051-.115.112-.054.14-.546.24-.827.168-.18-.045-.209-.097-.209-.38v-.329l.327.044c.276.036.326.022.326-.104s-.05-.14-.333-.104c-.328.045-.332.041-.306-.19.024-.208.064-.24.325-.261.225-.02.341.019.469.157.199.213.293.162.223-.12-.045-.18-.099-.201-.598-.233-.847-.054-.884-.018-.872.853.01.675.025.737.198.824.221.11 1.215.078 1.364-.046zm-7.98-.566v-.656l.347.267c.632.483.878.752.878.957 0 .15.024.177.101.113.154-.128.12-2.14-.037-2.228-.095-.054-.109.055-.08.665.02.402.017.73-.004.73s-.308-.218-.636-.486c-.779-.636-.837-.605-.834.427 0 .429.027.82.057.869.128.208.208-.044.208-.658zm8.735-.559c0-.079.046-.18.102-.225.16-.125.62-.19.68-.093.077.126-.088.258-.457.367-.294.086-.325.081-.325-.049zm1.503 1.457.205-.093-.365-.37c-.2-.203-.363-.4-.363-.437s-.074-.141-.162-.23c-.162-.162-.162-.163.03-.211a.507.507 0 0 0 .289-.26c.147-.324-.013-.421-.585-.353-.27.032-.479.023-.493-.022-.014-.041-.149-.011-.3.067-.186.096-.241.16-.171.203.069.043.092.243.074.635-.018.394.008.613.084.704.189.228.254.15.254-.307 0-.326.033-.453.129-.49.224-.086.271-.058.495.297.137.218.275.435.41.654.218.347.196.337.47.213zm-7.322.067c.225-.124.52-.516.716-.954.146-.321.145-.333-.007-.444-.104-.077-.277-.1-.523-.071-.3.035-.395.013-.517-.122-.148-.163-.145-.164.436-.164.32 0 .603-.02.625-.042.024-.025-.072-.103-.212-.175-.22-.113-.327-.118-.763-.035-.691.132-.746.186-.526.522.172.263.189.269.617.226.434-.045.44-.044.382.15-.147.485-.369.89-.49.89-.07 0-.218-.058-.327-.13-.328-.215-.414-.044-.109.217.301.258.43.282.698.132zm-6.48.07c.13-.099.153-.244.164-1.046.012-.916.008-.933-.19-1.028-.182-.086-.225-.066-.475.213a4.36 4.36 0 0 0-.408.532c-.073.123-.153.224-.177.224-.025 0-.144-.158-.265-.35a3.301 3.301 0 0 0-.408-.524c-.159-.15-.209-.16-.332-.07-.104.077-.126.155-.078.283.036.097.043.404.015.683-.047.473.028.794.183.794.032 0 .07-.285.082-.633l.025-.632.285.404.33.466c.024.035.127.04.228.014.126-.033.17-.089.138-.175-.047-.119.482-.995.6-.995.028 0 .04.44.026.98s.005.977.041.976a.604.604 0 0 0 .216-.117zm1.28-1.102c-.195-.382-.222-.754-.051-.689.063.024.139.004.17-.044.03-.05.088-.068.13-.042.101.063.098 1.098-.004 1.098-.045 0-.155-.145-.245-.323zm.57-.126c0-.596.005-.612.201-.612.268 0 .397.256.33.654-.047.273-.3.57-.488.57-.024 0-.044-.275-.044-.612zm.016 1.124c-.024-.238.008-.276.383-.466.433-.22.402-.16.54-1.038.045-.29-.14-.431-.538-.407-.315.018-.32.014-.32-.27 0-.239-.03-.29-.168-.29-.112 0-.164.049-.154.143.04.386.009.42-.352.39-.52-.042-.634.078-.542.567.04.22.128.482.194.583.093.142.502.492.764.654.015.009-.012.088-.059.176-.097.181-.035.28.15.243.09-.018.12-.103.102-.285zm12.112.814c-.098-.099-.145.064-.081.283l.066.228.031-.232c.017-.127.01-.253-.016-.279zm-.271.4c.02.062.062.09.09.064.062-.056-.126-.482-.213-.483-.034 0-.06.12-.06.265 0 .18.025.23.073.154.059-.094.076-.094.11 0zm-.328-.317c.06-.075.04-.103-.077-.103-.133 0-.152.043-.116.266.03.191.05.22.076.102a.71.71 0 0 1 .117-.265zM0 10.938V0h20v21.877H0z" fill="#4aa34d" mask="url(#d)" transform="translate(8 7)"/><path d="M13.698 12.964c.236-.48.262-.596.214-.959-.036-.266-.018-.5.049-.661.084-.205.083-.312-.007-.583-.096-.293-.092-.36.03-.574.154-.269.182-.6.057-.677-.134-.083-.094-.49.089-.912.268-.62.263-.9-.027-1.408l-.253-.442.127-.474c.108-.403.11-.488.014-.568-.13-.108-.162-1.177-.037-1.254.042-.026.137-.258.212-.515.074-.257.177-.518.227-.58.104-.126.315-.663.309-.786-.021-.428-.101-.725-.218-.811-.081-.06-.116-.145-.081-.201.083-.134-.293-.47-.602-.538-.137-.03-.268-.087-.293-.127-.065-.106-.676.235-.732.408-.044.143-.612.412-.87.412-.17 0-.573.32-.516.411.024.04.098.05.164.025.067-.025.216.017.333.094a.689.689 0 0 0 .47.1c.261-.04.611.091.757.283.05.065.06.367.029.76-.03.373-.02.697.025.756.077.103-.04.319-.249.452-.137.089-.13.22.023.388.1.11.11.208.048.48-.086.38-.033.639.216 1.068.148.253.157.333.077.713-.078.366-.07.47.058.734.17.355.189 1.468.037 2.226a4.93 4.93 0 0 0-.077.921c.008.318-.034.549-.13.71-.122.208-.127.277-.031.564.065.2.089.486.06.734-.026.222-.006.544.046.718l.095.312.044-.327c.025-.179.166-.572.313-.872zm-3.574 2.341c.006-.357.207-1.63.277-1.742.033-.053-.02-.224-.116-.38-.156-.252-.17-.362-.13-1.039a73.84 73.84 0 0 0 .075-1.777c.03-1.065.228-1.87.55-2.245.24-.28.248-.481.043-1.128-.155-.491-.182-.686-.123-.892a2.06 2.06 0 0 0 .075-.463.6.6 0 0 1 .132-.344c.114-.125.118-.2.031-.563-.055-.23-.08-.54-.056-.688.023-.149.003-.31-.046-.36-.118-.117-.147-.987-.039-1.194a.653.653 0 0 1 .195-.23c.06-.036.11-.13.11-.211 0-.158.197-.36.434-.445.162-.058.114-.216-.067-.216-.063 0-.16-.097-.22-.214-.058-.119-.262-.298-.452-.399-.19-.1-.402-.229-.469-.284-.099-.083-.174-.078-.389.023-.145.069-.402.15-.57.181-.165.031-.345.108-.396.17-.052.063-.215.114-.36.114-.147 0-.434.095-.64.21-.296.165-.408.19-.536.122-.088-.048-.292-.087-.452-.087a.648.648 0 0 1-.455-.164L6.365.896l-.404.205c-.236.119-.544.204-.737.204a1.71 1.71 0 0 0-.652.164c-.177.09-.387.165-.467.166a.62.62 0 0 0-.31.134c-.161.13-.161.13 0 .074.167-.059 1.056.073 1.44.212.235.086.42.404.346.597-.027.072.029.186.139.274.246.2.313.965.133 1.535-.233.737-.241.973-.05 1.35.31.606.491 1.368.467 1.962-.015.352.014.584.079.649.06.06.1.325.1.66 0 .448-.042.634-.208.932l-.21.374.17.181c.094.1.172.287.173.417.002.52.059.984.146 1.202.05.126.165.638.255 1.136.09.5.216.966.279 1.037.063.07.131.203.151.292.02.09.015-.02-.012-.245-.028-.224-.037-.904-.021-1.51.04-1.506.04-1.459-.028-1.928-.05-.337-.019-.568.163-1.21.175-.616.206-.832.138-.97-.048-.098-.103-.38-.124-.627-.03-.358.002-.526.153-.825.175-.345.18-.39.065-.555-.395-.564-.64-2.05-.397-2.398.139-.199.166-.549.042-.549-.116 0-.097-.832.022-.984a.66.66 0 0 1 .243-.181c.135-.051.152-.123.182-.781.012-.26.235-.368.6-.293.164.034.36.055.434.045.074-.01.217.098.317.239.158.222.176.328.142.822-.034.465-.018.58.09.64.11.06.135.242.143 1.047.008.734.042 1.02.14 1.169.1.153.111.267.052.523-.096.413-.1.964-.01 1.065.04.042.114.252.165.467.077.312.073.431-.019.611a2.59 2.59 0 0 0-.172.631c-.032.225-.088.446-.122.49-.106.137-.283.727-.257.858.013.068.076.18.139.251.069.077.113.292.109.53-.008.57.066 1.872.129 2.241.03.181.013.385-.04.485-.074.139-.062.224.062.435.314.534.372.881.238 1.41-.068.267-.103.517-.078.557.073.12.428-.543.431-.808zM12.468 19c.012-1.2-.008-1.123.297-1.123.152 0 .323.057.381.127.126.151.268.04.195-.154-.045-.116-.192-.136-1.02-.136-.874 0-.977.015-1.053.158a.798.798 0 0 0-.084.204c0 .09.176.045.298-.076.066-.067.232-.123.369-.123h.247l-.029.697c-.022.552-.003.712.095.774.24.152.3.083.304-.348zm2.86.329c.116-.096.137-.39.027-.39-.04 0-.091.05-.115.11-.054.14-.546.24-.826.17-.182-.046-.21-.098-.21-.382v-.328l.327.044c.276.036.326.021.326-.104s-.05-.14-.333-.104c-.328.045-.333.041-.306-.19.024-.208.064-.24.326-.261.224-.02.34.019.468.157.199.213.293.162.222-.12-.044-.18-.098-.201-.597-.233-.847-.054-.883-.018-.872.853.01.675.025.737.199.824.22.11 1.213.078 1.363-.046zm-7.98-.565v-.656l.346.266c.631.484.878.753.878.958 0 .15.024.177.102.113.153-.128.12-2.14-.038-2.228-.095-.054-.109.055-.08.665.02.402.018.73-.004.73s-.308-.218-.636-.486c-.779-.636-.837-.605-.834.427 0 .429.026.82.057.869.128.208.208-.044.208-.658zm8.734-.559c0-.079.045-.18.102-.224.16-.127.62-.19.679-.094.078.126-.087.257-.457.367-.292.086-.324.081-.324-.049zm1.502 1.457.205-.093-.364-.37c-.2-.203-.363-.4-.363-.437 0-.038-.074-.141-.163-.23-.16-.162-.16-.163.03-.21a.518.518 0 0 0 .29-.26c.147-.325-.013-.421-.585-.354-.27.032-.479.023-.493-.022-.015-.042-.15-.012-.3.067-.186.096-.241.16-.172.203.07.043.094.243.075.635-.018.393.009.613.084.704.19.228.254.15.254-.307 0-.325.033-.453.129-.49.224-.086.272-.058.495.297l.41.654c.218.347.196.337.468.213zm-7.32.067c.224-.124.519-.516.715-.953.145-.322.145-.334-.006-.445-.105-.077-.278-.1-.524-.071-.3.034-.395.013-.516-.122-.149-.164-.146-.164.434-.164.322 0 .604-.02.627-.042.023-.025-.073-.102-.213-.175-.22-.113-.327-.118-.763-.035-.69.132-.746.186-.526.522.172.263.189.269.617.226.435-.046.44-.044.382.15-.147.485-.368.89-.49.89-.071 0-.218-.058-.327-.13-.328-.215-.414-.044-.109.217.301.257.43.282.699.132zm-6.48.07c.13-.1.152-.245.163-1.046.012-.916.008-.933-.189-1.028-.183-.085-.227-.066-.476.213a4.18 4.18 0 0 0-.408.532c-.073.123-.153.224-.178.224-.023 0-.142-.158-.263-.35a3.301 3.301 0 0 0-.409-.524c-.16-.15-.209-.16-.331-.07-.105.077-.127.155-.079.283.036.097.042.404.015.683-.046.473.027.794.183.794.032 0 .07-.285.082-.633l.024-.632.286.404.33.466c.024.035.127.041.229.014.125-.033.17-.09.137-.175-.046-.119.483-.995.6-.995.028 0 .04.44.026.98-.014.538.004.977.04.976.038 0 .135-.053.218-.116zm1.279-1.102c-.195-.383-.223-.754-.051-.689.063.024.139.004.169-.044.03-.05.089-.068.13-.042.103.062.099 1.098-.003 1.098-.044 0-.154-.146-.245-.323zm.57-.126c0-.596.005-.612.201-.612.268 0 .397.255.329.654-.046.273-.3.57-.487.57-.023 0-.043-.275-.043-.612zm.016 1.123c-.024-.236.008-.275.384-.465.431-.22.401-.16.539-1.038.044-.29-.141-.431-.538-.407-.315.018-.32.014-.32-.27 0-.239-.03-.29-.168-.29-.112 0-.163.049-.154.143.04.387.009.42-.352.39-.52-.042-.634.077-.543.567.041.22.13.482.196.583.092.142.501.492.763.654.015.009-.012.088-.059.176-.097.181-.035.28.15.243.09-.018.12-.103.102-.286zm12.112.815c-.098-.1-.145.064-.082.283l.067.228.031-.232c.017-.127.01-.253-.016-.279zm-.272.4c.022.062.063.09.09.065.063-.057-.125-.483-.212-.484-.033 0-.06.119-.06.264.001.182.025.23.072.155.06-.094.077-.094.11 0zm-.327-.317c.06-.075.04-.103-.077-.103-.133 0-.151.043-.116.265.03.192.05.221.076.103a.725.725 0 0 1 .117-.265zm-1.134.067c-.015-.02-.119.05-.23.155l-.202.19-.158-.197c-.223-.273-.31-.135-.1.16.095.133.172.294.172.358 0 .262.11.191.323-.209.122-.232.21-.438.195-.457zm-2.247.625c.029-.249-.136-.363-.373-.26-.134.059-.134.065.005.098.208.048.125.22-.12.249-.251.03-.428-.163-.355-.388.041-.13.122-.167.374-.167.176 0 .32-.036.32-.082 0-.115-.681-.101-.8.016-.128.129-.125.576.004.706.062.061.263.092.51.078.378-.022.411-.04.435-.25zm-3.23-.325c.018-.056.168-.114.333-.128.228-.018.3.005.3.103 0 .094-.086.127-.333.127-.231 0-.324-.032-.3-.102zm.14.265c.033 0 .144.074.248.164.104.09.222.163.263.163s.052-.074.022-.163c-.028-.09-.017-.164.027-.164.042 0 .096-.074.12-.165.068-.258-.151-.406-.601-.406h-.403l.005.47c.004.45.009.46.132.285.07-.1.155-.184.187-.184zm-1.711.245c0-.045-.147-.08-.326-.08-.414 0-.43-.147-.021-.18.168-.014.306-.063.306-.107 0-.046-.138-.093-.306-.108-.412-.033-.391-.178.025-.178.2 0 .311-.032.281-.082-.028-.044-.232-.081-.454-.081h-.403v.898h.449c.246 0 .449-.037.449-.082zm-3.1-.225.002-.306.284.306c.4.43.528.406.528-.097 0-.222-.037-.426-.081-.453-.05-.03-.082.067-.082.24 0 .159-.03.29-.067.29-.035 0-.188-.127-.339-.282-.15-.157-.304-.264-.342-.24-.098.06-.086.849.013.849.045 0 .082-.138.084-.307zm-1.635.225c0-.045-.147-.08-.327-.08-.179 0-.326-.038-.326-.083 0-.045.147-.082.326-.082.18 0 .327-.037.327-.081 0-.046-.127-.082-.281-.082-.405 0-.431-.14-.039-.205.423-.072.31-.225-.139-.188l-.316.026-.026.429-.024.428h.413c.226 0 .412-.037.412-.082zM0 10.939V-.002h20v21.878H0z" fill="#5c5f5f" mask="url(#e)" transform="translate(8 7)"/><path d="M13.407 13.882c-.015-.174.076-.448.27-.818.273-.519.294-.614.318-1.399.016-.519-.01-.9-.065-.988-.07-.112-.055-.215.067-.452a7.78 7.78 0 0 0 .173-.348c.008-.023-.022-.133-.068-.245-.145-.358-.137-.572.037-.964.252-.57.266-1.08.039-1.415-.284-.419-.298-.507-.166-1.017.104-.395.106-.487.014-.559-.135-.105-.14-1.068-.005-1.31.049-.09.133-.337.187-.55.053-.212.148-.427.21-.48a.32.32 0 0 0 .113-.21c0-.063.057-.226.127-.362.089-.17.103-.277.044-.347-.045-.055-.062-.178-.038-.274.03-.113-.01-.222-.118-.313-.09-.078-.145-.192-.12-.256.06-.157-.275-.495-.553-.555-.126-.028-.272-.103-.325-.168-.083-.098-.127-.091-.303.047-.113.089-.255.162-.317.162-.061 0-.111.05-.111.112s-.06.162-.133.222c-.146.121-.656.315-.847.32-.12.004-.572.355-.572.444 0 .024.14.044.31.044.171 0 .35.04.397.088.049.048.28.095.517.106.602.028.654.124.628 1.162-.018.69-.05.87-.177 1.01-.142.158-.145.19-.03.393.088.159.106.313.062.548-.071.382-.024.63.189.992.126.213.144.35.1.741-.039.346-.018.587.077.866.162.476.106 2.157-.083 2.523-.083.16-.094.27-.036.378.098.182.018.744-.127.888-.084.085-.081.17.017.448.069.196.099.444.069.578-.077.352.04 1.296.155 1.255.053-.018.086-.152.074-.297zm-3.508 2.109c.129-.227.354-1.157.382-1.583.034-.486.061-.666.12-.795.04-.089.004-.27-.099-.489-.126-.272-.156-.483-.137-.962.013-.336.05-.675.08-.752.032-.078.038-.531.016-1.008-.038-.788-.023-.907.155-1.31.108-.244.196-.513.196-.599 0-.084.092-.263.204-.397.245-.292.252-.468.04-1.144-.182-.582-.152-1.335.064-1.583.092-.107.107-.226.059-.49a5.536 5.536 0 0 1-.072-.757c-.006-.224-.047-.481-.094-.571-.16-.312-.072-.907.201-1.348.042-.066.096-.184.12-.26.022-.077.181-.211.351-.3.324-.167.323-.17-.118-.301-.056-.017-.102-.096-.102-.176 0-.09-.16-.234-.429-.382a4.649 4.649 0 0 1-.57-.36c-.128-.11-.16-.109-.287.008-.08.071-.321.17-.537.218-.215.048-.475.142-.579.21-.102.068-.247.1-.32.072-.077-.03-.305.056-.552.209-.299.183-.446.232-.508.17-.048-.048-.247-.087-.442-.087-.276 0-.398-.046-.548-.208-.106-.114-.214-.174-.24-.13-.117.187-.728.42-1.108.42-.22 0-.422.034-.447.076-.026.04-.166.1-.311.13-.333.07-.795.282-.795.364 0 .035.156.046.347.026.19-.02.585.02.877.089.598.141.87.371.734.622-.063.12-.036.186.133.319.184.143.217.239.236.677.012.28-.014.602-.06.715A5.57 5.57 0 0 0 5.68 5c-.094.438-.088.489.086.782.315.526.548 1.525.494 2.109-.03.319-.017.516.037.534.047.016.102.27.122.566.03.456.004.599-.171.948-.246.488-.246.494-.065.694.079.087.151.291.162.456.051.735.076.896.205 1.319.074.246.178.743.229 1.102s.142.73.203.824c.06.095.12.294.135.443s.065.284.11.298c.094.031.085-.35-.022-.993-.073-.444-.062-1.909.018-2.225.028-.107.007-.414-.046-.68-.1-.51-.087-.595.265-1.788.147-.494.149-.537.02-.63-.102-.075-.126-.18-.093-.422.023-.177.006-.36-.038-.403-.054-.054-.008-.227.136-.515l.218-.433-.163-.29c-.237-.422-.395-.952-.455-1.527-.043-.418-.024-.557.115-.815.199-.372.21-.518.04-.518-.102 0-.122-.089-.102-.467.022-.427.047-.484.285-.633.177-.112.247-.21.22-.306a.428.428 0 0 1 .037-.284.298.298 0 0 0 .006-.282c-.125-.232.02-.268.836-.207.377.028.612.33.628.804.01.228-.025.465-.075.525-.07.083-.04.16.127.327.195.195.211.251.145.514-.044.17-.046.4-.005.54.04.135.05.424.023.643-.036.302-.016.432.085.542.112.126.12.24.055.787-.042.353-.05.677-.016.723.033.044.108.27.166.501.078.316.083.479.015.653-.05.128-.115.396-.146.596-.03.201-.084.421-.117.49-.161.328-.327.753-.327.837 0 .05.062.162.139.246.098.108.144.324.158.741.046 1.357.092 2.071.144 2.238.032.1.012.248-.045.34-.086.138-.072.225.096.557.215.421.254.909.13 1.596-.08.446.008.5.216.134zm5.564 3.252c.108-.307-.07-.504-.243-.269-.087.117-.22.16-.506.163-.38.005-.388 0-.413-.265-.026-.265-.022-.269.285-.243.287.022.315.006.338-.203.026-.222.02-.225-.306-.173-.301.048-.332.038-.332-.12 0-.243.45-.24.71.005.25.234.423.098.305-.24-.074-.21-.12-.228-.644-.274-.39-.033-.628-.014-.77.058-.196.102-.203.135-.197.859.007.954.04.986 1.002.952.673-.023.694-.03.771-.25zm-2.96-.128a4.282 4.282 0 0 1 .028-.754c.05-.359.078-.402.258-.402.11 0 .26.058.33.128.115.115.142.115.252.005.11-.11.109-.146-.018-.339-.088-.134-.187-.197-.264-.168-.068.027-.5.047-.96.047-.821 0-.84.005-.933.21-.152.332.087.513.315.24.055-.068.193-.123.307-.123h.205l-.045.67c-.05.72.032.903.388.86.138-.017.158-.072.136-.374zm-5.074-.196.04-.62.51.41c.365.292.51.463.51.6 0 .263.114.31.287.119.128-.142.14-.26.088-.985-.038-.555-.027-.86.033-.931.067-.082.036-.15-.128-.278-.12-.094-.243-.154-.276-.134-.032.02-.04.34-.019.712.045.764.118.749-.637.142-.517-.414-.522-.416-.817-.268-.231.116-.248.143-.125.211.12.067.137.18.113.752-.021.49.003.709.086.81.201.243.293.095.335-.54zm8.752-.81c.02-.06.179-.12.356-.135.38-.03.298.101-.118.19-.213.044-.267.032-.238-.054zm1.456 1.603c.3-.156.3-.209-.006-.434-.33-.245-.726-.845-.588-.891.057-.018.161-.146.231-.282.197-.38.024-.504-.723-.518-.75-.013-1.273.218-.948.42.062.038.078.25.048.65-.039.5-.023.616.097.725.287.259.405.165.432-.34.033-.64.189-.652.546-.044.255.432.564.839.64.839.016 0 .138-.057.27-.125zm-7.29.08c.215-.15.6-.706.75-1.08.095-.237.09-.287-.042-.433-.124-.137-.224-.16-.584-.132-.239.02-.453.005-.475-.032-.023-.037.205-.078.505-.09.623-.029.74-.147.34-.347-.234-.117-.34-.122-.823-.036-.305.054-.613.142-.684.195-.116.084-.106.13.092.43.22.332.225.335.622.288l.399-.047-.127.374c-.172.504-.302.604-.561.434-.463-.304-.666-.072-.283.324.298.307.58.357.872.152zm-6.524.057c.178-.137.191-.205.204-1.098l.014-.951-.264-.143c-.244-.13-.272-.132-.367-.007-.058.072-.232.3-.39.503-.157.205-.305.373-.33.375-.023 0-.105-.098-.181-.222a5.095 5.095 0 0 0-.37-.5c-.23-.272-.234-.273-.486-.144-.252.131-.252.134-.125.389.105.211.113.339.042.715-.07.372-.063.494.035.647.192.302.31.17.355-.399L2 18.49l.279.388c.153.214.286.388.294.388s.132-.04.275-.09c.2-.07.239-.115.17-.198-.067-.08-.032-.194.14-.455l.23-.348.022.81c.029 1.096.051 1.144.413.865zm1.3-1.213c-.179-.326-.182-.482-.01-.548.19-.072.207-.034.178.414l-.026.396zm.591-.106c0-.426.02-.49.155-.49.2 0 .27.194.202.562-.05.275-.149.413-.296.417-.034 0-.06-.22-.06-.49zm-.009 1.44a.464.464 0 0 0 .071-.306c-.015-.147.043-.225.244-.326.417-.21.494-.305.55-.67.028-.187.07-.44.093-.561.05-.266-.195-.43-.602-.405-.243.016-.265-.003-.265-.226 0-.279-.097-.365-.33-.292-.12.038-.158.112-.142.271.021.203.001.218-.303.223-.441.005-.836.173-.708.3.053.052.096.204.096.337 0 .343.352.903.707 1.121.165.104.257.201.205.22-.124.041-.123.202.001.327.13.13.269.125.383-.013zm11.437.846c0-.134.038-.245.082-.245.046 0 .083.12.084.265 0 .182.023.23.072.155.059-.094.078-.094.12 0 .043.093.059.093.101 0 .044-.094.062-.094.122 0 .047.073.071.008.072-.196.001-.296-.106-.412-.19-.203-.033.08-.056.08-.115-.002-.087-.124-.571-.2-.633-.1-.024.039-.006.093.04.12.045.03.083.142.083.252 0 .11.036.199.081.199.045 0 .081-.11.081-.245zm-1.385.551c0-.1.074-.275.162-.387.087-.113.16-.232.16-.266.004-.126-.207-.055-.305.102-.056.09-.135.164-.177.164s-.1-.074-.127-.164c-.03-.09-.105-.164-.17-.164-.156 0-.144.083.047.328.087.112.16.286.162.387 0 .108.052.185.123.185.072 0 .124-.077.125-.185zm-1.961-.102c0-.263-.02-.285-.245-.285-.161 0-.245.04-.245.119 0 .077.047.103.134.069.091-.035.121-.016.095.064-.02.062-.08.111-.134.107a18.583 18.583 0 0 0-.259-.02c-.123-.01-.162-.071-.162-.258 0-.236.013-.245.367-.245.202 0 .367-.036.367-.082 0-.115-.763-.1-.882.018-.053.052-.097.21-.097.35 0 .355.131.45.628.45h.433zm-3.245-.306c.018-.056.168-.114.333-.127.228-.02.3.004.3.101 0 .095-.086.128-.333.128-.23 0-.323-.032-.3-.102zm-.02.47c0-.067.069-.123.153-.123.085 0 .2.056.255.123a.393.393 0 0 0 .264.123c.136 0 .147-.022.064-.121-.08-.097-.074-.147.03-.251.155-.155.156-.165.047-.37-.068-.126-.173-.158-.53-.158h-.446v.45c0 .247.036.45.08.45.046 0 .083-.056.083-.123zm-1.551.04c0-.09-.089-.106-.429-.084-.123.008-.224-.024-.224-.073 0-.049.146-.088.326-.088.236 0 .327-.033.327-.122s-.091-.122-.327-.122c-.18 0-.326-.037-.326-.082 0-.046.146-.082.326-.082.18 0 .327-.036.327-.082 0-.045-.202-.082-.45-.082h-.449v.9h.45c.247 0 .449-.038.449-.082zm-3.099-.224.003-.306.271.306c.4.451.54.412.54-.15 0-.33-.03-.446-.104-.42-.059.021-.092.145-.08.293.026.328-.045.323-.377-.03-.392-.415-.502-.38-.502.164 0 .344.029.45.123.45.086 0 .124-.091.126-.307zm-1.554.225c0-.046-.166-.082-.368-.082-.202 0-.367-.037-.367-.082 0-.045.147-.082.326-.082.236 0 .327-.033.327-.122 0-.09-.093-.122-.34-.122-.513 0-.284-.101.36-.158.034-.003.062-.042.062-.088 0-.092-.896-.113-.904-.02-.002.034-.012.236-.02.45l-.015.388h.469c.259 0 .47-.038.47-.082zM0 10.939V-.001h20v21.878H0z" fill="#010100" mask="url(#f)" transform="translate(8 7)"/></g></svg>