<svg width="36" height="36" fill="none" xmlns="http://www.w3.org/2000/svg"><path d="M18 0c2.837 0 5.52.656 7.907 1.825C31.884 4.753 36 10.895 36 18c0 9.942-8.058 18-18 18-9.94 0-18-8.057-18-18C0 8.06 8.06 0 18 0z" fill="#F2F4F7"/><path d="M31.633 16.605zm0 .042a.326.326 0 1 0 0 .652.326.326 0 0 0 0-.652zm.18.53-.055-.003c-.019 0-.037.003-.056.003-.105-.193-.107-.194-.112-.194-.004 0-.004.002-.004.016 0 .06.004.157.006.178a.358.358 0 0 0-.048-.004c-.015 0-.032.003-.048.004 0-.015.006-.076.006-.23a1.73 1.73 0 0 0-.006-.193l.08.002.085-.002c.074 0 .12.044.12.104a.113.113 0 0 1-.1.11l.132.21zm-.192-.39h-.031c-.003.075-.003.12-.003.17.028 0 .098 0 .098-.092 0-.052-.033-.078-.064-.078zm-16.901.871c-.093.674-.133 1.353-.177 2.027a1.15 1.15 0 0 0-.21-.023c-.07 0-.137.01-.209.023.187-1.027.334-2.054.459-3.08a.85.85 0 0 0 .182.022c.058 0 .12-.009.178-.022.324.71.703 1.504 1.027 2.133.352-.665.717-1.424 1.037-2.133a.938.938 0 0 0 .191.022.898.898 0 0 0 .187-.022c.116 1.026.271 2.45.382 3.08a3.246 3.246 0 0 0-.36-.023c-.12 0-.244.01-.37.023-.03-.62-.106-1.38-.177-2.071h-.009c-.334.691-.663 1.379-.983 2.07a.546.546 0 0 0-.084-.008.552.552 0 0 0-.085.009 103.67 103.67 0 0 0-.97-2.027m5.058-1.109c.943 0 1.686.518 1.686 1.593 0 .884-.707 1.603-1.7 1.603-.938 0-1.694-.482-1.694-1.598 0-.88.676-1.598 1.708-1.598zm-.014.255c-.609 0-.965.616-.965 1.383 0 .951.436 1.281.934 1.281.534 0 1.001-.446 1.001-1.42 0-.771-.395-1.244-.97-1.244zm2.252 1.037c0-.5-.01-.843-.036-1.236.098.009.218.022.365.022s.267-.013.365-.022c-.027.393-.036.736-.036 1.236v.608c0 .33.004.669.01.901a8.78 8.78 0 0 0 1.017-.058c-.008.063-.017.107-.017.201 0 .094.009.139.017.192-.16-.004-.368-.022-.778-.022-.725 0-.845.013-.943.022.027-.393.036-.737.036-1.236m2.242-.608c0-.5-.01-.843-.036-1.236.098.009.218.022.365.022.146 0 .267-.013.364-.022-.026.393-.035.736-.035 1.236v.608c0 .5.009.843.035 1.236-.097-.009-.218-.022-.364-.022-.147 0-.267.013-.365.022.026-.393.035-.737.035-1.236m1.481-1.844a1 1 0 0 0 .2.022.997.997 0 0 0 .2-.022c.64.71 1.277 1.415 1.931 2.125 0-.71 0-1.924-.031-2.125.066.013.133.022.2.022s.133-.009.2-.022c-.071 1.299-.071 1.893-.071 3.08a.714.714 0 0 0-.356 0 50.43 50.43 0 0 0-1.944-2.17c-.009.335-.009.706-.009 1.04 0 .715.014.965.027 1.13a1.164 1.164 0 0 0-.21-.022c-.066 0-.137.009-.204.022.023-.13.09-1.281.09-2.192 0-.402-.018-.674-.023-.888zm5.873 3.081c-.143-.009-.267-.022-.392-.022s-.253.013-.378.022a18.497 18.497 0 0 0-.307-.914c-.191-.005-.378-.01-.57-.01-.155 0-.306.005-.462.01-.12.303-.218.607-.302.914-.072-.009-.138-.022-.21-.022-.07 0-.137.013-.222.022.218-.495.885-2.084 1.268-3.102.058.009.111.022.169.022.058 0 .111-.013.17-.022.377 1.018.898 2.375 1.235 3.102zm-1.18-1.178c-.128-.361-.252-.714-.395-1.062-.152.348-.29.7-.418 1.062M15.35 21.233c-.136-.003-.268-.01-.404-.01-.133 0-.268.005-.403.01v.151c0 .298.005.503.021.738-.058-.006-.13-.014-.217-.014-.088 0-.16.008-.217.014.015-.235.02-.44.02-.738v-.362c0-.298-.005-.503-.02-.737.058.006.13.013.217.013s.159-.007.217-.013c-.016.232-.02.436-.02.732.09.003.217.005.405.005.188 0 .3-.002.4-.005 0-.296-.005-.5-.021-.732.058.006.13.013.217.013.088 0 .16-.007.218-.013-.016.234-.021.44-.021.737v.362c0 .298.005.503.02.738-.057-.006-.13-.014-.217-.014s-.159.008-.217.014c.016-.235.021-.44.021-.738m1.023-.362c0-.298-.006-.503-.022-.737.157.003.316.014.473.014.26 0 .482-.006.554-.014a.595.595 0 0 0-.011.112c0 .056.005.08.01.12-.2-.014-.519-.032-.599-.032-.013.194-.013.386-.013.58.23-.006.4-.011.602-.021a.611.611 0 0 0-.013.12c0 .029.005.053.013.108a7.567 7.567 0 0 0-.602-.023c0 .111-.003.226-.003.34 0 .112.003.226.008.333.2 0 .403-.01.608-.035-.006.037-.011.064-.011.12 0 .056.005.082.01.114-.095-.003-.22-.013-.463-.013-.433 0-.504.008-.563.013.016-.234.022-.439.022-.737m3.024.743c-.085-.005-.16-.013-.234-.013-.074 0-.15.008-.225.013a10.9 10.9 0 0 0-.183-.545 12.786 12.786 0 0 0-.615 0c-.072.18-.13.362-.18.545-.043-.005-.082-.013-.125-.013-.042 0-.082.008-.133.013.13-.295.528-1.242.756-1.849.035.005.067.013.1.013.035 0 .067-.008.102-.013.225.607.535 1.416.737 1.85zm-.703-.702c-.077-.216-.151-.426-.236-.634-.09.208-.172.418-.249.634m1.642-.403c0-.298-.006-.503-.022-.737.058.006.13.014.218.014.087 0 .159-.008.217-.014-.016.234-.022.44-.022.737v.362c0 .197.003.4.006.538a5 5 0 0 0 .607-.035c-.005.037-.01.064-.01.12 0 .056.005.082.01.114-.095-.003-.22-.013-.464-.013-.432 0-.504.008-.562.013.016-.234.021-.439.021-.737m1.625-.665c0-.101 0-.197-.009-.234a5.4 5.4 0 0 0-.485.034.597.597 0 0 0 .014-.116.6.6 0 0 0-.014-.118c.242.008.361.014.69.014.328 0 .448-.006.673-.014a.593.593 0 0 0-.013.117c0 .04.005.078.013.117a4.729 4.729 0 0 0-.472-.034c-.005.037-.005.133-.005.234v.665c0 .298.005.503.021.737-.058-.005-.13-.013-.217-.013-.088 0-.16.008-.218.013.016-.234.021-.439.021-.736m2.541-.152c-.135-.003-.268-.01-.403-.01-.133 0-.268.005-.403.01v.151c0 .298.005.503.02.738-.058-.006-.13-.014-.216-.014-.088 0-.16.008-.218.014.016-.235.022-.44.022-.738v-.362c0-.298-.006-.503-.022-.737.059.006.13.013.218.013.087 0 .159-.007.217-.013-.016.232-.02.436-.02.732.089.003.217.005.405.005.188 0 .299-.002.4-.005 0-.296-.005-.5-.022-.732a2.025 2.025 0 0 0 .436 0c-.016.234-.022.44-.022.737v.362c0 .298.006.503.022.738-.059-.006-.13-.014-.218-.014-.087 0-.159.008-.218.014.017-.235.022-.44.022-.738m2.479.428a.892.892 0 0 0-.058.226 1.15 1.15 0 0 1-.541.117c-.615 0-.979-.385-.979-.889 0-.734.496-1.016 1.053-1.016a1.2 1.2 0 0 1 .541.13.987.987 0 0 0-.061.272h-.037c-.132-.165-.268-.237-.456-.237-.284 0-.604.248-.604.812 0 .548.323.763.628.763.17 0 .366-.08.48-.2m1.981.337c-.085-.005-.16-.013-.234-.013-.074 0-.151.008-.225.013-.056-.18-.117-.364-.183-.545a12.85 12.85 0 0 0-.615 0c-.072.18-.13.362-.18.545-.043-.005-.083-.013-.125-.013-.043 0-.083.008-.133.013.13-.295.528-1.242.756-1.849.034.005.066.013.1.013.035 0 .067-.008.102-.013.225.607.535 1.416.736 1.85zm-.703-.702c-.077-.216-.151-.426-.236-.634-.09.208-.172.418-.25.634m2.059-.15h-.025v.11c0 .297.006.502.021.736-.058-.005-.13-.013-.217-.013-.088 0-.16.008-.218.013.016-.234.021-.439.021-.737v-.362c0-.298-.005-.503-.02-.737.058.005.13.013.217.013.095 0 .21-.013.39-.013.268 0 .365.024.458.09a.415.415 0 0 1 .173.352c0 .258-.149.423-.411.49.17.3.371.603.565.904-.08-.005-.16-.013-.24-.013-.079 0-.16.008-.24.013l-.475-.846zm-.017-.838c-.005.242-.008.481-.008.724.021.002.04.005.058.005.234 0 .36-.13.36-.38 0-.315-.12-.35-.41-.35zm1.377.585c0-.298-.006-.503-.021-.737.156.003.315.014.472.014.26 0 .482-.006.554-.014a.597.597 0 0 0-.01.112c0 .056.004.08.01.12-.202-.014-.52-.032-.6-.032-.013.194-.013.386-.013.58.23-.006.4-.011.602-.021a.607.607 0 0 0-.013.12c0 .029.005.053.013.108a7.565 7.565 0 0 0-.602-.023c0 .111-.003.226-.003.34 0 .112.003.226.008.333.2 0 .403-.01.608-.035a.633.633 0 0 0 0 .234c-.096-.003-.22-.013-.464-.013-.433 0-.504.008-.562.013.015-.234.02-.439.02-.737" fill="#2B2E34"/><path d="M13.444 22.116h-2.83s.005-4.053 0-4.46c-.009-.78-.968-1.051-.968-1.051h1.898c.573 0 1.898.239 1.898 1.301l.002 4.21zm-2.407-5.843c.594 0 1.075-.507 1.075-1.133s-.481-1.133-1.075-1.133-1.075.507-1.075 1.133.48 1.133 1.075 1.133z" fill="#009FAB"/><path d="M10.28 22.115H7.456s.006-4.052 0-4.458c-.01-.782-.967-1.052-.967-1.052h1.895c.573 0 1.895.239 1.895 1.301l.003 4.209zm-2.375-5.849c.594 0 1.075-.507 1.075-1.133S8.5 14 7.905 14c-.593 0-1.075.507-1.075 1.133s.482 1.133 1.075 1.133z" fill="#009FAB"/><path d="M7.126 22.12h-2.4s.004-2.64 0-2.945c-.008-.586-.726-.79-.726-.79h1.702c.43 0 1.422.18 1.422.978l.002 2.757zM5.15 18.039c.445 0 .806-.38.806-.85s-.36-.85-.806-.85c-.445 0-.806.38-.806.85s.36.85.806.85z" fill="#009FAB"/></svg>