<svg height="36" viewBox="0 0 36 36" width="36" xmlns="http://www.w3.org/2000/svg"><mask id="a" fill="#fff"><path d="M0 0h28v4.24H0z" fill-rule="evenodd"/></mask><g fill="none" fill-rule="evenodd"><path d="M18 0c2.837 0 5.52.656 7.907 1.825C31.884 4.753 36 10.895 36 18c0 9.942-8.058 18-18 18-9.94 0-18-8.057-18-18C0 8.06 8.06 0 18 0z" fill="#f2f4f7" fill-rule="nonzero"/><path d="M25.876.102c.804 0 1.242.42 1.242.966 0 .528-.462.942-.954 1.055l.864 1.086c.252.312.629.624.972.84h-.552c-.318 0-.516-.078-.696-.3l-.732-.906-.552-.846c.48-.072 1.038-.294 1.038-.857 0-.432-.372-.684-.774-.666a3.31 3.31 0 0 0-.408.047v2.688c0 .275-.036.714.27.82v.02h-1.145v-.02c.305-.106.263-.551.263-.82V.948c0-.276.042-.714-.263-.827V.1zM22.23 3.545l.762.072c.396.036.81-.09 1.11-.353h.018l-.27.785h-2.501V4.03c.306-.108.27-.552.27-.822V.948c0-.276.036-.714-.27-.827V.1h1.92c.101 0 .203.013.281-.03h.018v.703h-.018c-.186-.216-.431-.24-.708-.24-.21 0-.419.006-.611.042v1.116h.713c.097 0 .192 0 .265-.036h.017v.636h-.017c-.097-.174-.349-.17-.535-.17h-.444zm-2.295.072c.407.024.761-.114 1.061-.366h.018l-.312.798h-2.465V4.03c.306-.108.27-.552.27-.822V.948c0-.276.036-.714-.27-.827V.1h1.146v.02c-.306.113-.264.557-.264.827v2.615zM17.698.846a2.084 2.084 0 0 0-1.11-.342c-.827 0-1.403.606-1.403 1.475 0 .882.6 1.667 1.523 1.667.45 0 .9-.161 1.278-.377h.018l-.306.696a2.126 2.126 0 0 1-.906.179c-1.416 0-2.291-.791-2.291-2.075 0-1.241.875-2.063 2.105-2.063.366 0 .738.066 1.092.15zM11.01 3.269c0 .335-.006.576.312.762v.018h-1.061V4.03c.317-.186.317-.427.317-.762V.876c0-.336 0-.576-.311-.756V.102h.875v.006a.372.372 0 0 0 .09.15l.084.12 2.195 2.77V.877c0-.336.006-.576-.312-.756V.102h1.056V.12c-.312.18-.312.42-.312.756V4.24c-.426-.144-.611-.342-.876-.683L11.01.948zm-4.803-1.26c0 .84.594 1.704 1.536 1.704.911 0 1.493-.666 1.493-1.56 0-.875-.558-1.721-1.506-1.721-.929 0-1.523.672-1.523 1.578zm3.713.025c0 1.223-1.014 2.11-2.208 2.11-1.187 0-2.189-.851-2.189-2.08 0-1.14.99-2.094 2.249-2.064C9.032-.006 9.92.954 9.92 2.034zM3.748.48c.048-.126.09-.246.09-.372V.102h1.038V.12c-.144.042-.186.215-.186.353l.396 2.945c.036.282.066.444.306.612v.018H4.234V4.03c.21-.066.246-.246.246-.45L4.138.69 2.794 4.127c-.299-.228-.383-.39-.527-.726L1.127.696.785 3.275c-.048.367-.09.63.192.756v.018H0V4.03c.251-.221.287-.515.335-.84L.677.678C.701.51.767.27.491.12V.1h1.05v.007c0 .097.048.186.084.27l1.127 2.645z" fill="#000" mask="url(#a)" transform="translate(4 16)"/></g></svg>