<svg height="36" viewBox="0 0 36 36" width="36" xmlns="http://www.w3.org/2000/svg"><mask id="a" fill="#fff"><path d="M0 0h28v6.527H0z" fill-rule="evenodd"/></mask><mask id="b" fill="#fff"><path d="M0 0h5.271v3.688H0z" fill-rule="evenodd"/></mask><g fill="none" fill-rule="evenodd"><path d="M18 0c2.837 0 5.52.656 7.907 1.825C31.884 4.753 36 10.895 36 18c0 9.942-8.058 18-18 18-9.94 0-18-8.057-18-18C0 8.06 8.06 0 18 0z" fill="#f2f4f7" fill-rule="nonzero"/><path d="m27.35 2.708.136-.532h.16l.005.363.188-.363h.16l-.135.532h-.1l.107-.419-.213.42h-.103l.002-.42-.107.42zm-.333 0 .114-.442h-.158l.023-.09h.422l-.023.09h-.157l-.113.442zm-.615.56.33-.962c.023-.067.03-.06-.032-.096a2.363 2.363 0 0 0-1.052-.319c-.755-.04-1.42.19-1.905.61-.71.615-.987 1.64-.751 2.541.208.798.832 1.397 1.852 1.378a2.89 2.89 0 0 0 1.033-.224c.058-.023.06-.022.076-.082l.265-.992c.037-.139.04-.127-.096-.066-.26.115-.49.187-.694.2-.495.031-.74-.207-.828-.522-.13-.462.035-1.182.42-1.495a.97.97 0 0 1 .679-.22c.279.02.41.125.563.296.11.125.087.107.14-.047zm-5.067-1.113a15.688 15.688 0 0 0 1.638-.283c.143-.033.145-.054.102.09a31.153 31.153 0 0 0-.95 4.264c-.01.056-.004.051-.061.051h-1.657c-.073 0-.074.012-.05-.059.444-1.337.68-2.588.888-3.989.01-.077.013-.065.09-.074zm.299-.602 1.407-.2c.132-.02.117-.02.15-.149l.286-1.068c.035-.133.064-.149-.095-.129L21.955.19c-.127.017-.127.022-.155.145l-.256 1.144c-.025.113-.022.091.09.075zm-.865.431c-.288.03-.604.036-.93.033-.491-.005-.958-.035-1.414.006a3.17 3.17 0 0 0-1.161.331 2.543 2.543 0 0 0-.99.94 3.206 3.206 0 0 0-.437 1.731c.027.464.22.861.535 1.11.527.415 1.395.341 1.877-.115.07-.066.075-.117.075.004v.253h1.438l1.007-4.293zm-1.754 1.137-.486 1.944c-.041.163-.307.247-.454.261-.176.016-.342-.06-.43-.343-.098-.315-.058-.785.102-1.18.136-.333.37-.614.72-.72.136-.042.297-.052.49-.033.077.007.076-.003.058.071zm-3.454.06.262-.827c.044-.138.036-.125-.097-.19a3.126 3.126 0 0 0-1.571-.287c-.666.055-1.301.342-1.603.99-.188.553-.09.956.165 1.297.158.211.467.333.735.462.196.095.637.321.463.58-.263.394-1.166.13-1.523-.217-.127-.124-.086-.122-.162.06l-.32.767c-.051.123-.08.133.05.201.658.341 1.22.462 1.714.433.86-.049 1.468-.422 1.742-.913a1.36 1.36 0 0 0 .187-.7c-.02-.79-.684-1.155-1.258-1.416-.367-.167-.34-.515.087-.595.165-.032.372 0 .59.093.134.06.255.144.368.255.123.12.11.196.17.006zM9.38 1.935c1.219-.429 2.395.222 2.628 1.453.232 1.231-.567 2.577-1.786 3.006-1.218.43-2.394-.222-2.627-1.453-.232-1.23.567-2.577 1.785-3.006zm.789.93c.322.097.436.747.254 1.451s-.592 1.195-.914 1.097c-.323-.098-.436-.748-.254-1.452s.59-1.195.914-1.097zM.016 6.202 1.545.714c.037-.13.015-.139.152-.139h2.007c.104 0 .11-.008.115.097l.164 3.161c.013.238 0 .222.102.015L5.649.646c.038-.077.033-.07.118-.07h1.998c.08 0 .079-.014.065.067L6.942 6.17c-.02.12-.01.108-.13.108H5.38c-.123 0-.112.013-.086-.108l.863-3.979c.052-.243.069-.265-.05-.027L4.11 6.153c-.063.124-.05.124-.19.124H2.814c-.111 0-.096.004-.101-.108L2.53 2.194c-.013-.289-.01-.235-.072.012l-1.03 3.977c-.024.097-.012.094-.113.094H.063c-.081 0-.068.003-.047-.074z" fill="#1d1d1b" mask="url(#a)" transform="translate(4 14)"/><path d="m13.366 21.783 3.346.861c.196.05.204.024.06.17l-1.724 1.74c-.142.142-.133.105-.313.016-1.204-.588-2.5-1.1-3.565-1.418-.124-.037-.109-.025-.003-.092l.022-.013 2.003-1.248c.071-.044.097-.037.174-.016" fill="#fecb00"/><path d="m2.043.016 3.051.918c.149.045.194.065.172.1-.547.86-1.098 1.879-1.627 2.558-.142.144-.133.107-.314.018C2.277 3.016 1.182 2.424.151 2.034c-.181-.07-.205-.056-.041-.198C.7 1.326 1.451.516 1.869.033c.071-.044.097-.037.174-.017" fill="#d9c616" mask="url(#b)" transform="translate(15.427 22.92)"/><path d="M15.675 20.478c2.23.323 4.526.668 6.703 1.073.12.022.108.043.063.087-.522.504-.94 1.198-1.374 1.78-.049.066-.047.054-.127.03a128.055 128.055 0 0 0-7.156-1.895c-.118-.028-.113-.017-.008-.075l1.77-.976c.056-.03.066-.033.129-.024" fill="#c03228"/><path d="M12.279 20.116c.811-.102 1.788-.064 2.727.04l-.252.121h-2.589l.114-.16" fill="#fefefe"/><path d="M12.279 20.116c.811-.102 1.788-.064 2.727.04l-.252.121h-2.589l.114-.16z" stroke="#fefefe" stroke-width=".029"/><path d="M7.301 22.15c1.48-.678 3.12-1.346 4.78-1.798a1.87 1.87 0 0 1 .414-.065 11.663 11.663 0 0 1 2.452.109c.146.023.094.026.005.068-1.51.71-3.13 1.579-4.52 2.505-.066.044-.07.03-.145.002-.906-.338-1.853-.614-2.943-.704-.268-.021-.317.009-.042-.117" fill="#30574b"/></g></svg>