<svg height="36" viewBox="0 0 36 36" width="36" xmlns="http://www.w3.org/2000/svg"><mask id="a" fill="#fff"><path d="M0 0h26v20.136H0z" fill-rule="evenodd"/></mask><g fill="none" fill-rule="evenodd"><path d="M18 0c2.837 0 5.52.656 7.907 1.825C31.884 4.753 36 10.895 36 18c0 9.942-8.058 18-18 18-9.94 0-18-8.057-18-18C0 8.06 8.06 0 18 0z" fill="#f2f4f7" fill-rule="nonzero"/><path d="M6.959 0c-1.154.049-2.25.798-2.665 1.897v.008c0 .004-.007.005-.007.008L.203 11.285l-.009.008-.007.017a3.13 3.13 0 0 0-.141 1.592v.016l.008.017.57 2.07.734 2.705.008.009v.009l.198.568v.017c.407 1.04 1.45 1.754 2.532 1.824h17.901c1.121-.086 2.15-.897 2.525-1.964v-.009l.007-.016 1.403-5.198.009-.015v-.017c.08-.474.097-1.022-.066-1.518l-.008-.016-.009-.017-1.89-4.248-2.383-5.32c-.001-.004-.007-.005-.008-.01C21.172.844 20.265.213 19.276.058V0z" fill="#fff" mask="url(#a)" transform="translate(5 8)"/><path d="M23.672 8.746c.942.029 1.87.626 2.245 1.509l2.296 5.128 1.82 4.083c.13.388.122.868.052 1.282l-1.352 4.994c-.306.873-1.203 1.577-2.113 1.646l-17.157-.002c-.888-.056-1.786-.671-2.118-1.52l-.188-.548-.71-2.596-.549-1.998a2.68 2.68 0 0 1 .127-1.341l3.939-9.03c.338-.913 1.277-1.566 2.239-1.607z" fill="#005daa"/><path d="M23.747 9.652c.619.048 1.223.563 1.4 1.153l3.618 8.026c.22.455.6 1.004.452 1.615l-.203.83-1.09 4.032c-.142.595-.754 1.075-1.333 1.172l-16.923.004c-.538-.01-1.023-.214-1.349-.675-.327-.536-1.562-5.338-1.562-5.338-.058-.47.13-.88.308-1.27l3.053-6.975.75-1.698c.308-.553.893-.842 1.483-.878z" fill="#fff"/><path d="m17.965 16.886 2.119-5.465 3.22-.002 2.856 9.314h-3.94l-.44-5.114-2.556 5.114-2.493.003-2.585-5.074-.423 5.07-3.936.003 2.77-9.31 3.227-.002z" fill="#ed174f"/><path d="M17.365 22.43c.086.354.134.743.198 1.114h-.404zm-.495-.535-.536 2.598h.635l.09-.454h.611l.075.454h.667l-.568-2.598zm9.342 1.661.001-1.671h.583v2.613h-.857l-.454-1.569v1.57h-.56v-2.614h.855zm-5.284-.631.559.004.004-1.043.636-.002v2.61l-.636.004v-1.016h-.562l-.005 1.01-.64.002.002-2.61.638-.001zm-.872-.48h-.562l-.003 2.049-.622-.001V22.44h-.56v-.556h1.747v.56zm3.447-.064a.367.367 0 0 1 .255.074c.178.312.097.858.083 1.27-.02.102-.044.212-.14.265-.118.053-.3.053-.404-.033-.099-.13-.081-.16-.108-.322-.054-.334-.1-.846.074-1.154a.346.346 0 0 1 .24-.1zm-.083-.545a1.268 1.268 0 0 0-.511.141c-.292.18-.363.505-.388.817.014.528-.095 1.16.288 1.543.34.246.753.235 1.155.13.386-.113.515-.515.537-.873.017-.5.073-1.08-.214-1.486-.224-.212-.557-.292-.867-.272zm-8.224.586a.436.436 0 0 1 .214.05c.109.12.113.324.058.47-.037.052-.054.11-.149.125h-.263v-.636s.063-.012.14-.009zm-.231-.552c-.295 0-.545.025-.545.025v2.598h.619v-.923a.206.206 0 0 1 .174 0l.312.923h.644l-.363-.957-.008-.066c.215-.067.29-.303.33-.494.021-.352.038-.82-.339-1.007-.192-.08-.53-.1-.824-.1zm-1.923.56c.087.354.134.743.198 1.114h-.404zm-.494-.535-.545 2.598h.643l.09-.454h.612l.073.454h.669l-.57-2.598zm-2.139 1.337.28-1.342.815.001.328 2.603h-.633l-.196-1.683c-.104.553-.183 1.127-.273 1.684l-.656.002-.28-1.677c-.079.552-.13 1.12-.197 1.677h-.642l.357-2.608.817.001zm19.122 3.214h.149c.039 0 .07.011.098.024.028.015.05.033.05.074 0 .055-.02.077-.05.091a.291.291 0 0 1-.123.025h-.124zm.47.66-.008-.017-.206-.32a.25.25 0 0 0 .124-.06.209.209 0 0 0 .065-.156c0-.076-.026-.135-.074-.173a.326.326 0 0 0-.206-.058h-.305v.784h.14v-.322h.115l.19.314.008.008zm-.346-.924c.29 0 .52.233.52.536 0 .165-.07.292-.174.388a.507.507 0 0 1-.346.14.51.51 0 0 1-.52-.528.52.52 0 0 1 .52-.536zm0-.132a.667.667 0 0 0-.676.668c0 .387.309.669.676.669a.668.668 0 1 0 0-1.336z" fill="#005daa"/></g></svg>