<svg width="36" height="36" fill="none" xmlns="http://www.w3.org/2000/svg"><path d="M18 0c2.837 0 5.52.656 7.907 1.825C31.884 4.753 36 10.895 36 18c0 9.942-8.058 18-18 18-9.94 0-18-8.057-18-18C0 8.06 8.06 0 18 0z" fill="#F2F4F7"/><path d="M30 11H6l12.016 19.526L30 11z" fill="#004225"/><path d="M19.294 11.288c0-.096.032-.192.032-.288h1.726a.884.884 0 0 1 .032.288.928.928 0 0 1-.927.926c-.447 0-.863-.415-.863-.926zm5.145.575c1.407 1.054 2.717 2.077 3.484 2.556l-.671 1.087c-.512.192-1.087.192-1.63.032-.448.16-.895.192-1.374.128-.256.16-.512.223-.8.223.48.224.8.704.8 1.247 0 .735-.672 1.31-1.566 1.502h-.096c.543.255.895.799.863 1.406 0 .703-.576 1.342-1.438 1.662.383.192.67.575.767 1.022l-1.694 2.78a1.174 1.174 0 0 0-.64-.287v1.342l-.734 1.215c-1.918-.863-1.95-2.461-.863-3.132-1.342-.512-1.662-2.237-.384-2.908-.863-.32-1.438-.959-1.438-1.662-.032-.607.32-1.15.863-1.406h-.096c-.895-.192-1.566-.767-1.566-1.502a1.464 1.464 0 0 1 .831-1.247c-.287 0-.543-.063-.799-.223-.447.064-.926 0-1.374-.128a2.378 2.378 0 0 1-1.63-.032c-.255-.096.352-.064-.447-.096-1.15 0-1.342-.16-1.63-.415.384-.032.767-.16 1.087-.384.67-.32 2.173-1.502 3.803-2.716 1.63-1.215 2.46-.032 2.844.447.32.384.639 1.246.958 1.63l-.032-1.598h.768v1.63c.32-.32.67-1.246.99-1.63.384-.575 1.183-1.758 2.844-.543zm-4.506 6.072-.032-1.95a.661.661 0 0 1-.703.512c-1.086 0-1.693.255-1.693.67-.032.448.543.672 2.428.768zm.032 3.068-.032-1.95c-.799 0-1.693.288-1.757.927-.064.511.67 1.055 1.79 1.023zm0 2.972v-1.79c-1.15.064-1.598 1.566 0 1.79zm.032 2.812v-1.566c-.767.128-1.406 1.023 0 1.566zm.512-4.602-.032 1.79c1.693-.192 1.214-1.758.032-1.79zm1.821-2.205c-.064-.64-.958-.927-1.79-.927l-.031 1.95c1.118.064 1.885-.512 1.821-1.023zm.703-2.812c0-.448-.639-.671-1.694-.671a.708.708 0 0 1-.766-.576v-.031l-.032 2.045c1.885-.096 2.492-.32 2.492-.767z" fill="#598471"/><path d="M17.217 19.021v.064h-1.949s-.032-.032-.032-.064 0-.064.032-.064c.223 0 .351-.031.447-.095.064-.064.128-.224.128-.416v-.16l-.192-4.154-1.566 4.89c0 .031-.032.031-.064.031s-.063 0-.063-.032l-1.918-4.857-.064 3.643c0 .352.064.64.16.863.128.192.288.32.48.32 0 0 .031.032.031.063 0 .032 0 .064-.032.064h-1.534s-.032-.032-.032-.064 0-.064.032-.064a.506.506 0 0 0 .48-.32c.128-.223.191-.478.191-.862l.064-4.186c-.096-.256-.191-.416-.32-.544-.095-.127-.223-.16-.383-.16 0 0-.032-.031-.032-.063s0-.064.032-.064h1.215c.064 0 .128.032.16.096.063.032.127.191.223.415l1.662 4.123 1.438-4.41a.52.52 0 0 1 .096-.192c.032-.032.064-.064.128-.064h1.085s.032.032.032.064 0 .064-.032.064c-.223 0-.415.064-.511.191-.096.128-.16.32-.16.608l.192 4.57c0 .223.032.351.064.447.032.096.064.16.16.192a.854.854 0 0 0 .351.064v.064zm1.693-.318c.033.096.128.16.224.191.096.032.288.064.544.064.032 0 .032.032.032.064s0 .064-.032.064H17.28c-.031 0-.031-.032-.031-.064s0-.064.032-.064a.91.91 0 0 0 .383-.064c.096-.032.128-.095.16-.191s.032-.256.032-.448V13.59c0-.191 0-.351-.032-.447a.326.326 0 0 0-.16-.192 1.19 1.19 0 0 0-.383-.064c-.032 0-.032-.032-.032-.064 0-.031 0-.063.032-.063h.447c.256 0 .48.031.64.031.127 0 .287 0 .479-.031.064 0 .16 0 .287-.032h.384c.575 0 1.055.127 1.374.415.352.288.511.735.511 1.342 0 .416-.095.767-.287 1.055a2.014 2.014 0 0 1-.703.67c-.288.16-.576.225-.895.225-.16 0-.288-.032-.416-.064 0 0-.032-.032-.032-.064v-.064c0-.032.032-.032.032-.032.096.032.192.032.288.032.256 0 .48-.16.671-.448.16-.287.256-.703.256-1.246s-.096-.927-.288-1.246a.964.964 0 0 0-.83-.448c-.16 0-.256.032-.32.128s-.096.256-.096.511v4.602a8 8 0 0 0 .128.608zm2.877-4.155c0 .032-.032.032-.032.032-.032 0-.032 0-.032-.032.032-.255.032-.607.064-1.054.032-.416.032-.735.032-.959 0-.032 0-.064.032-.064s.032.032.032.064c0 .16.16.224.447.224.448.032.927.032 1.534.032.288 0 .607 0 .959-.032h.511c.192 0 .32-.032.416-.064.096-.032.16-.096.16-.192 0-.032.032-.032.064-.032.031 0 .031 0 .031.032 0 .192-.031.511-.063.959-.032.447-.032.799-.032 1.055 0 .031 0 .031-.032.031s-.032 0-.032-.031c-.064-.512-.224-.895-.416-1.151a.911.911 0 0 0-.767-.383c-.16 0-.255.031-.287.127-.064.096-.064.256-.064.48v4.666c0 .223 0 .351.032.447.032.096.095.16.16.192.095.032.223.064.415.064 0 0 .032.032.032.064 0 .031 0 .063-.032.063h-2.141s-.032-.032-.032-.063c0-.032 0-.064.032-.064.192 0 .32-.032.415-.064a.288.288 0 0 0 .192-.192 1.48 1.48 0 0 0 .064-.447V13.59c0-.224-.032-.384-.064-.48-.032-.095-.128-.127-.288-.127-.607.031-1.022.543-1.31 1.565z" fill="#fff"/></svg>