<svg height="36" viewBox="0 0 36 36" width="36" xmlns="http://www.w3.org/2000/svg"><mask id="a" fill="#fff"><path d="M0 0h12.549v8.175H0z" fill-rule="evenodd"/></mask><mask id="b" fill="#fff"><path d="M0 0h11.272v8.171H0z" fill-rule="evenodd"/></mask><mask id="c" fill="#fff"><path d="M0 0h7.641v8.175H0z" fill-rule="evenodd"/></mask><g fill="none" fill-rule="evenodd"><path d="M18 0c2.837 0 5.52.656 7.907 1.825C31.884 4.753 36 10.895 36 18c0 9.942-8.058 18-18 18-9.94 0-18-8.057-18-18C0 8.06 8.06 0 18 0z" fill="#f2f4f7" fill-rule="nonzero"/><g fill="#1c4eff"><path d="M7.159 2.067v.79c0 .2.153.362.339.362h3.425c.448 0 .855.195 1.149.508.277.296.455.698.475 1.144l.002.084v1.48c0 .96-.73 1.74-1.63 1.74H0V6.27h9.766c.187 0 .34-.163.34-.361v-.593c0-.2-.153-.362-.34-.362H6.387c-.892 0-1.622-.78-1.622-1.731V1.73c0-.952.73-1.73 1.622-1.73h4.574c.851 0 1.496.692 1.496 1.545v.16H7.498c-.186 0-.339.163-.339.362" mask="url(#a)" transform="translate(19.45 14)"/><path d="M11.272 1.558v6.613H8.757V2.244H6.881v5.927H4.367V2.244H2.425v5.927H0v-6.43C0 .884.68-.001 1.512-.001h8.247c.832 0 1.513.702 1.513 1.559" mask="url(#b)" transform="translate(4 14)"/><path d="M6.312 0H1.039A1.04 1.04 0 0 0 0 1.04v7.134h2.499V4.953h3.813c.957 0 1.329-.785 1.329-1.745V1.744C7.641.785 7.269 0 6.312 0zM5.189 2.866a.362.362 0 0 1-.361.361H2.499V1.714h2.329c.198 0 .361.163.361.362z" mask="url(#c)" transform="translate(15.989 14)"/></g></g></svg>