<svg width="36" height="36" fill="none" xmlns="http://www.w3.org/2000/svg"><defs><linearGradient id="a" x1="4" y1="17.634" x2="32" y2="17.634" gradientUnits="userSpaceOnUse"><stop stop-color="#1B1464"/><stop offset=".056" stop-color="#172372"/><stop offset=".288" stop-color="#065BA7"/><stop offset=".4" stop-color="#0071BC"/><stop offset=".558" stop-color="#0D8FB7"/><stop offset=".722" stop-color="#17A7B3"/><stop offset=".874" stop-color="#1DB6B1"/><stop offset="1" stop-color="#1FBBB0"/></linearGradient></defs><path d="M18 0c2.837 0 5.52.656 7.907 1.825C31.884 4.753 36 10.895 36 18c0 9.942-8.058 18-18 18-9.94 0-18-8.057-18-18C0 8.06 8.06 0 18 0z" fill="#F2F4F7"/><path d="M9.684 16.666v2.24h-.952v-2.24c0-.392-.308-.7-.7-.7-.392 0-.7.308-.7.7v2.24H6.38v-2.24c0-.392-.308-.7-.7-.7-.392 0-.7.308-.7.7v2.24H4v-2.24a1.661 1.661 0 0 1 2.842-1.176c.294-.294.714-.49 1.176-.49.91 0 1.666.742 1.666 1.666zm14.84.714v-2.24h-.952v2.24c0 .392-.308.7-.7.7a.693.693 0 0 1-.7-.7v-2.24h-.952v2.24c0 .91.742 1.666 1.666 1.666a1.674 1.674 0 0 0 1.638-1.666zm4.214 2.884h1.05L32 15.14h-1.05l-.966 2.31-.868-2.31H28.08l1.372 3.472-.714 1.652zm-8.106-1.708-.63-.728a1.034 1.034 0 0 1-1.708-.784c0-.574.462-1.036 1.036-1.036.238 0 .476.084.672.238l.616-.728a1.98 1.98 0 0 0-1.288-.476 2.002 2.002 0 1 0 0 4.004 2.11 2.11 0 0 0 1.302-.49zm-7.546-.84.672.672c-.42.42-.924.644-1.484.644a2.002 2.002 0 0 1-2.002-2.002c0-1.106.924-1.988 2.016-1.988.504 0 .952.182 1.274.532.35.364.518.868.476 1.428-.014.14-.042.294-.084.434h-2.632c.154.378.532.644.966.644.308 0 .56-.112.798-.364zm-1.764-1.036h1.75a.79.79 0 0 0-.21-.448c-.14-.154-.336-.224-.574-.224-.434 0-.826.28-.966.672zm5.684-.658v-.98c-.742.14-1.246.266-1.54.42-.35.196-.49.406-.588.602-.112.224-.154.518-.154 1.05v1.792h.952v-1.792c0-.546.168-.84.658-.966.504-.112.672-.126.672-.126zm10.556 0v-.98c-.742.14-1.246.266-1.54.42-.35.196-.49.406-.588.602-.112.224-.154.518-.154 1.05v1.792h.952v-1.792c0-.546.168-.84.658-.966.504-.112.672-.126.672-.126z" fill="url(#a)"/></svg>