<svg width="36" height="36" fill="none" xmlns="http://www.w3.org/2000/svg"><path d="M18 0c2.837 0 5.52.656 7.907 1.825C31.884 4.753 36 10.895 36 18c0 9.942-8.058 18-18 18-9.94 0-18-8.057-18-18C0 8.06 8.06 0 18 0z" fill="#F2F4F7"/><path fill-rule="evenodd" clip-rule="evenodd" d="M26.957 22.4c-.786 0-.988.462-.988 1.344 0 .874.202 1.336.988 1.336.787 0 .988-.462.988-1.336 0-.882-.201-1.345-.988-1.345zm0 3.364c-1.624 0-2.042-.897-2.042-2.02 0-1.132.418-2.028 2.042-2.028 1.632 0 2.043.896 2.043 2.028 0 1.123-.411 2.02-2.043 2.02zm-2.11-.179c0 .03-.02.052-.065.052H23.65c-.037 0-.057 0-.094-.044l-1.14-1.54h-.143v1.498c0 .065-.027.086-.1.086h-.902c-.066 0-.088-.02-.088-.086v-4.648c0-.075 0-.09.09-.11l.893-.204c.07-.021.107-.019.107.062v2.743h.143l1.13-1.509c.03-.035.05-.043.086-.043h1.059c.051 0 .077.037.03.087l-1.372 1.736 1.47 1.87c.007.007.029.035.029.05zm-4.31-3.108c-.488 0-.82.085-1.044.156v2.918c0 .065-.03.086-.095.086h-.914c-.053 0-.083-.02-.083-.086v-3.12c0-.117.013-.143.209-.234.227-.105 1.032-.431 1.912-.481.086-.005.117.003.117.087v.585c0 .073-.023.088-.101.088zm-4.811-.077c-.488 0-.975.185-.975 1.089l1.902-.002c0-.468-.153-1.087-.927-1.087zm1.99 1.596c0 .08-.005.136-.172.136H14.76c.023.384.121.928 1.387.928.411 0 .841-.139 1.071-.203.08-.023.112-.01.112.064v.503c0 .06-.014.08-.067.102-.25.103-.796.238-1.38.238-1.675 0-2.2-.714-2.2-2.006 0-1.438.668-2.042 2.124-2.042.75 0 1.91.313 1.91 1.894v.386zm-4.86 1.641h-.904c-.066 0-.093-.02-.093-.086v-2.544c0-.353.027-.578-.282-.578-.479 0-1.057.165-1.057.165v2.957c0 .065-.025.086-.098.086h-.894c-.073 0-.098-.021-.098-.087v-2.543c0-.366.029-.578-.288-.578-.444 0-1.05.163-1.05.163v2.958c0 .066-.032.087-.099.087H7.1c-.073 0-.099-.021-.099-.087v-3.198c0-.143-.003-.151.365-.27a7.77 7.77 0 0 1 2.247-.366c.463 0 .62.134.713.244.615-.163 1.123-.244 1.71-.244.745 0 .915.315.915 1.161v2.674c0 .065-.027.087-.094.087z" fill="#000"/><path fill-rule="evenodd" clip-rule="evenodd" d="M28.62 11c-.464 0-1.61.241-3.094.62-1.288.33-2.943.89-3.75 1.164 0 0-.301.113-.398.113-.126 0-.196-.056-.196-.225v-1.46c0-.144-.085-.212-.198-.212-.464 0-1.61.241-3.094.62-1.288.33-2.943.89-3.75 1.164 0 0-.301.113-.396.113-.126 0-.198-.056-.198-.225v-1.46c0-.144-.085-.212-.198-.212-.464 0-1.61.24-3.095.62-1.05.269-2.249.64-3.05.952-.145.056-.203.162-.203.287v6.272c0 .145.079.22.185.237.543.087 1.815.125 3.088.125 1.273 0 2.548-.038 3.088-.126.11-.017.185-.091.185-.236v-4.065c0-.125.101-.208.227-.208h.636c.126 0 .228.083.228.208v4.065c0 .145.079.22.184.237.543.087 1.815.125 3.088.125 1.273 0 2.548-.038 3.088-.126.11-.017.185-.091.185-.236v-4.065c0-.125.101-.208.228-.208h.636c.125 0 .227.083.227.208v4.065c0 .145.079.22.184.237.543.087 1.816.125 3.088.125 1.273 0 2.548-.038 3.09-.126.11-.017.183-.091.183-.236v-7.92c0-.143-.085-.211-.198-.211z" fill="#006F3D"/></svg>