<svg width="36" height="36" fill="none" xmlns="http://www.w3.org/2000/svg"><path d="M18 0c2.837 0 5.52.656 7.907 1.825C31.884 4.753 36 10.895 36 18c0 9.942-8.058 18-18 18-9.94 0-18-8.057-18-18C0 8.06 8.06 0 18 0z" fill="#F2F4F7"/><path d="M9.37 26.036h.703l1.043 3.061 1.032-3.06h.693v3.62h-.462v-2.506c.003-.17.006-.354.006-.55l-1.033 3.056h-.482l-1.043-3.056v.113c0 .09 0 .225.005.406.007.182.01.316.01.4v2.137H9.37v-3.62zm5.257.92c.188 0 .37.045.545.133.177.09.313.205.405.344.089.131.147.286.175.463.027.123.041.32.041.585h-1.936c.01.267.073.482.19.642.12.162.303.242.55.242a.711.711 0 0 0 .554-.226.805.805 0 0 0 .17-.308h.436a1.014 1.014 0 0 1-.118.323 1.055 1.055 0 0 1-.714.56 1.78 1.78 0 0 1-.365.036 1.12 1.12 0 0 1-.837-.355c-.226-.238-.339-.575-.339-1.006 0-.424.115-.768.344-1.033.229-.265.53-.4.9-.4zm.709 1.17a1.197 1.197 0 0 0-.123-.461c-.124-.212-.328-.319-.612-.319a.684.684 0 0 0-.513.221.827.827 0 0 0-.216.56h1.464zm1.014-2.09h.442v3.621h-.442v-3.62zm1.12.981h.422v.457c.033-.088.118-.196.252-.323a.66.66 0 0 1 .467-.195l.041.005a.95.95 0 0 1 .103.01v.468c-.028-.003-.054-.006-.077-.006a.516.516 0 0 0-.067-.005c-.226 0-.4.073-.519.215a.747.747 0 0 0-.18.494v1.52h-.441v-2.64zm2.714 2.353c.294 0 .496-.11.606-.334.11-.222.165-.469.165-.74 0-.245-.04-.448-.119-.606-.123-.242-.34-.364-.647-.364-.27 0-.468.105-.59.313a1.434 1.434 0 0 0-.185.75c0 .281.061.516.185.703.122.185.318.278.585.278zm.02-2.43c.338 0 .625.116.858.345.235.226.355.558.355.996 0 .425-.106.778-.314 1.058-.205.277-.526.416-.96.416-.363 0-.654-.123-.868-.37-.213-.245-.318-.576-.318-.991 0-.44.113-.794.339-1.058.224-.263.529-.396.909-.396zm2.006 1.89a.66.66 0 0 0 .108.34c.112.143.308.215.585.215a.845.845 0 0 0 .432-.108.358.358 0 0 0 .19-.334.283.283 0 0 0-.154-.256 1.657 1.657 0 0 0-.38-.129l-.35-.087a1.668 1.668 0 0 1-.498-.185.556.556 0 0 1-.287-.498.76.76 0 0 1 .267-.606c.18-.153.423-.231.73-.231.396 0 .683.116.862.349.11.148.162.307.16.477h-.422a.505.505 0 0 0-.108-.277c-.1-.115-.276-.174-.529-.174-.168 0-.295.033-.38.097a.308.308 0 0 0-.128.257c0 .113.056.204.17.272a.946.946 0 0 0 .292.108l.293.072c.317.08.531.155.642.226.17.113.257.291.257.534a.82.82 0 0 1-.268.611c-.178.171-.45.257-.816.257-.39 0-.67-.09-.832-.267a.99.99 0 0 1-.262-.662h.426zm3.356-1.874c.188 0 .37.045.544.133.178.09.314.205.406.344.089.131.147.286.175.463.027.123.041.32.041.585h-1.936c.009.267.073.482.19.642.12.162.303.242.55.242a.713.713 0 0 0 .554-.226.805.805 0 0 0 .17-.308h.436a1.012 1.012 0 0 1-.118.323 1.056 1.056 0 0 1-.714.56 1.78 1.78 0 0 1-.365.036 1.12 1.12 0 0 1-.837-.355c-.226-.238-.339-.575-.339-1.006 0-.424.114-.768.344-1.033.229-.265.53-.4.9-.4zm.709 1.17a1.195 1.195 0 0 0-.123-.461c-.124-.212-.328-.319-.612-.319a.684.684 0 0 0-.513.221.827.827 0 0 0-.216.56h1.464z" fill="#3F3F3F"/><path fill-rule="evenodd" clip-rule="evenodd" d="M27 7v18c-.04.051-.06-.073-.087-.122-1.994-3.463-3.896-7.111-5.867-10.609-1.912 3.57-3.75 7.213-5.66 10.782h-1.16c-.013-.105.079-.191.122-.277.746-1.455 1.563-2.984 2.32-4.447-.694-1.262-1.434-2.48-2.13-3.739C12.663 19.364 10.858 22.208 9 25V7h18z" fill="#00613F"/></svg>