<svg width="36" height="36" fill="none" xmlns="http://www.w3.org/2000/svg"><path d="M18 0c2.837 0 5.52.656 7.907 1.825C31.884 4.753 36 10.895 36 18c0 9.942-8.058 18-18 18-9.94 0-18-8.057-18-18C0 8.06 8.06 0 18 0z" fill="#F2F4F7"/><path d="M31.274 20.778c0-.135.104-.218.239-.218.28 0 .228.3.321.3h.062v-.32h-.083c-.01.01-.02.03-.041.03-.031 0-.104-.083-.26-.083a.385.385 0 0 0-.393.384c0 .519.725.342.725.747 0 .176-.145.28-.31.28-.332 0-.312-.311-.384-.311h-.063v.383h.094c.01-.02.03-.041.052-.041.041 0 .165.073.3.073.26 0 .467-.208.467-.467 0-.56-.726-.405-.726-.757zM9.88 21.846h-.342v-.612h.155c.197 0 .073.145.208.145h.03v-.373h-.02c-.124 0 .01.135-.207.135h-.156v-.55h.3c.291 0 .177.228.312.228h.041v-.352a.32.32 0 0 1-.134.03h-.83v.042c0 .094.114-.02.114.145v1.069c0 .166-.114.062-.114.145v.041h1.047v-.373h-.041c-.166 0 .02.28-.363.28zm.249-2.82v-4.564l-3.06 1.888L4 14.473v4.563h.944V15.51l2.126 1.306 2.063-1.275v3.484h.996zM31.989 13h-1.12v6.036h1.12V13zm-19.288 8.742-.239-.384c-.052-.072-.083-.124-.176-.134.218 0 .436-.125.436-.363 0-.28-.28-.343-.436-.343h-.643v.042c0 .093.114-.02.114.145v1.068c0 .166-.114.063-.114.146v.041h.435v-.041c0-.094-.114.02-.114-.146v-.518h.063c.145 0 .166.052.28.249l.27.446h.31v-.042c-.01-.093-.072.02-.186-.166zm-.54-.58h-.207v-.56h.26c.134 0 .269.082.269.27.01.217-.156.29-.322.29zm-2.032-6.98v-1.14l-3.06 1.887L4 13.04v1.13l3.07 1.94 3.059-1.929zM7.422 20.55c0 .093.114-.021.114.145v.456h-.643v-.456c0-.166.114-.052.114-.145v-.042h-.435v.042c0 .093.114-.021.114.145v1.068c0 .166-.114.062-.114.145v.042h.435v-.042c0-.093-.114.02-.114-.145v-.508h.643v.508c0 .166-.114.062-.114.145v.042h.436v-.042c0-.093-.114.02-.114-.145v-1.068c0-.166.114-.052.114-.145v-.042h-.436v.042zM12.815 13h-1.12v6.036h1.12V13zm-8.67 7.508a.318.318 0 0 1-.135-.031v.363h.042c.166 0-.042-.238.342-.238h.114v1.161c0 .166-.124.062-.124.145v.042h.456v-.042c0-.093-.124.02-.124-.145v-1.162h.114c.373 0 .176.239.342.239h.041v-.363a.318.318 0 0 1-.134.031h-.934zm25.096 1.369c-.342 0-.445-.384-.445-.653 0-.26.072-.664.404-.664.353 0 .27.373.394.373h.052v-.373h-.083c0 .02-.01.031-.031.031-.052 0-.145-.114-.353-.114-.415 0-.612.425-.612.747 0 .383.218.757.633.757.228 0 .363-.094.487-.28l-.072-.052c-.083.104-.176.228-.373.228zm-2.488-1.327c0 .093.114-.021.114.145v1.068c0 .166-.114.062-.114.145v.042h.435v-.042c0-.093-.114.02-.114-.145v-1.068c0-.166.114-.052.114-.145v-.042h-.435v.042zm-4.232 0c0 .103.125-.042.125.248v.675c0 .114-.031.404-.384.404-.228 0-.352-.135-.352-.363v-.83c0-.166.114-.051.114-.145v-.041h-.436v.041c0 .094.114-.02.114.145v.82c0 .321.197.477.53.477.31 0 .528-.166.528-.498v-.695c0-.29.114-.145.114-.249v-.041h-.352v.052zm-2.665 1.296h-.342v-.612h.156c.197 0 .072.145.207.145h.031v-.373h-.031c-.124 0 .01.135-.207.135h-.156v-.55h.3c.291 0 .177.228.312.228h.041v-.352a.32.32 0 0 1-.134.03h-.83v.042c0 .094.114-.02.114.145v1.069c0 .166-.114.062-.114.145v.041h1.047v-.373h-.041c-.156 0 .031.28-.353.28zM23.538 13h-.902c-.426 0-.758.093-.986.28a1.318 1.318 0 0 0-.456.684l-1.286 5.072h1.172l.3-1.079h2.24l.364 1.079h1.089L23.538 13zm-1.93 3.972.633-2.634a.628.628 0 0 1 .146-.301c.072-.083.166-.114.3-.114l.716 3.039h-1.794v.01zM29.574 13H26.14c-1.057 0-1.088 1.006-1.088 1.006h1.794v5.03h1.12v-5.03h1.607V13zm-12.185 7.508h-.643v.042c0 .093.114-.021.114.145v1.068c0 .166-.114.062-.114.145v.042h.436v-.042c0-.093-.114.02-.114-.145v-.487h.249c.238 0 .497-.104.497-.395 0-.28-.238-.373-.425-.373zm-.114.674h-.207v-.59h.259c.104 0 .26.082.26.29 0 .228-.125.3-.312.3zm1.504-5.07c.176-.28.259-.654.259-1.12 0-.706-.176-1.214-.54-1.525-.362-.311-.912-.467-1.659-.467h-2.447v6.036h1.12v-1.97h1.42l.903 1.97h1.213l-1.037-2.272a1.71 1.71 0 0 0 .768-.653zm-1.12-.333c-.156.197-.425.29-.81.29h-1.347v-2.073h1.327c.705 0 1.068.331 1.068 1.005 0 .332-.072.581-.238.778zm6.678 4.73a.318.318 0 0 1-.134-.032v.363h.041c.166 0-.041-.238.342-.238h.114v1.161c0 .166-.124.062-.124.145v.042h.456v-.042c0-.093-.124.02-.124-.145v-1.162h.114c.373 0 .176.239.342.239h.041v-.363a.318.318 0 0 1-.134.031h-.934zm-9.022 1.233-.518-1.244s-.01-.042-.021-.042c-.01 0-.073.042-.073.042-.01.01-.083.041-.083.072 0 .021.021.063.031.083l.021.063-.404.985c-.094.228-.177.124-.177.207v.042h.363v-.042c0-.083-.103-.02-.103-.114 0-.031.02-.083.03-.114l.053-.135h.57l.062.156c.01.03.031.072.031.114 0 .083-.103.02-.103.093v.042h.456v-.042c.01-.093-.052.02-.135-.166zm-.83-.3.239-.602.249.602h-.488z" fill="#4F2A84"/></svg>