<svg width="36" height="36" fill="none" xmlns="http://www.w3.org/2000/svg"><path d="M18 0c2.837 0 5.52.656 7.907 1.825C31.884 4.753 36 10.895 36 18c0 9.942-8.058 18-18 18-9.94 0-18-8.057-18-18C0 8.06 8.06 0 18 0z" fill="#F2F4F7"/><g fill="#D9232E"><path fill-rule="evenodd" clip-rule="evenodd" d="m8.759 16.847.405-.078-.339-.074.178-.215-.31.083.058-.306-.215.14-.1-.397-.087.454-.264-.202.087.272-.248-.044.21.226-.356.07.36.078-.145.162.223-.016-.103.304.247-.251.07.404.078-.404.19.202-.017-.253.273.095-.195-.25zm-.14-.107a.167.167 0 1 1-.048-.12.169.169 0 0 1 .05.12h-.002z"/><path d="M31.715 17.642h.062c.042 0 .051.02.051.042 0 .022-.009.04-.05.042h-.063v-.084zm.054.116a.051.051 0 0 1 .04.013.106.106 0 0 1 .017.06.494.494 0 0 0 .01.05h.04a.388.388 0 0 1-.018-.082.05.05 0 0 0-.04-.055.065.065 0 0 0 .05-.065.076.076 0 0 0-.092-.07h-.096v.27h.035v-.12h.054z"/><path d="M31.96 17.745a.196.196 0 1 1-.39 0 .196.196 0 0 1 .39 0zm-.195-.234a.235.235 0 0 0-.165.4.234.234 0 0 0 .36-.036.234.234 0 0 0-.195-.364zm-25.368-.846-.33 1.146a3.297 3.297 0 0 0-.073.388h-.027l-.403-1.536H4.473L4 19.584h1.026l.124-1.246c.011-.116.02-.236.027-.35h.035a2 2 0 0 0 .066.365l.38 1.231h.619l.419-1.308c.029-.096.052-.193.07-.29h.018l.147 1.598h1.026l-.48-2.919h-1.08zm2.563 1.58v-.716h-1v2.055h1v-.68c.132.473.55.727 1.098.727.172-.006.342-.038.503-.097l.043-.844c-.116.082-.233.159-.387.159a.3.3 0 1 1 .02-.6c.139.01.27.07.368.17v-.832a2.046 2.046 0 0 0-.629-.105 1.034 1.034 0 0 0-1.016.763zm21.491-.755-.357.806-.1.313h-.024l-.008-.313-.104-.806h-1.992l-.02.294h-.026a.561.561 0 0 0-.547-.34c-.498 0-.87.429-1.01.878-.053-.53-.496-.842-1.09-.842a1.388 1.388 0 0 0-1.127.55l.078-.49-.335.016.108-.69h-1.005l-.111.69-.21-.013v-.01h-.977l-.007.244h-.024c-.115-.202-.306-.29-.554-.29-.489 0-.845.394-1 .826l.129-.811c-.335-.008-.526.05-.748.32h-.023l.07-.274h-1.001l-.341.014.109-.69h-1.007l-.109.688-.24-.014-.1.628c-.101-.205-.316-.325-.59-.388l-.231-.055c-.078-.02-.21-.035-.19-.143.019-.12.16-.155.253-.155a.949.949 0 0 1 .578.218l.405-.748a1.535 1.535 0 0 0-.885-.255c-.635 0-1.326.387-1.437 1.08-.07.458.237.698.64.774l.21.04c.093.02.23.03.209.162-.022.132-.194.175-.299.175a.947.947 0 0 1-.62-.268l-.058-.058c-.016-.698-.578-1.07-1.246-1.07-.441 0-.837.162-1.058.474v-.475c-.336-.008-.518.05-.698.321h-.023l.023-.275h-.998v2.056h.999v-.789c0-.256.132-.41.39-.41.046 0 .09.007.132.023a1.258 1.258 0 0 0-.013.174c0 .681.604 1.047 1.246 1.047.288.005.57-.076.812-.232.331.17.697.26 1.07.261.628 0 1.32-.344 1.43-1.041a.84.84 0 0 0 0-.293l.173-.013-.203 1.278h1.007l.202-1.278.335.02-.2 1.27h.996l.125-.79c.04-.255.196-.41.456-.41a.435.435 0 0 1 .266.098c-.004.023-.01.046-.013.07-.079.499.14 1.064.698 1.064.28 0 .465-.123.678-.317h.023l-.073.268h.977l.2-1.264.215-.016-.2 1.28h1.007l.202-1.277.22.013a1.312 1.312 0 0 0-.07.27c-.112.708.427 1.041 1.074 1.041.473 0 1.063-.228 1.273-.724h-.976a.248.248 0 0 1-.228.17c-.21 0-.21-.185-.18-.348H26.2c0 .445.24.87.727.87.236 0 .522-.116.658-.341h.027l-.052.21c-.064.255-.258.452-.529.452a1.008 1.008 0 0 1-.68-.251l-.331.693.095.035c.273.11.564.165.858.163.716 0 1.426-.326 1.553-1.127l.289-1.826.55 1.74-.698 1.054h1.053l1.78-2.91h-1.05zm-16.918 1.37a.28.28 0 1 1 0-.559.28.28 0 0 1 0 .558zm7.933-.317c-.026.159-.127.31-.317.31s-.237-.14-.209-.301a.322.322 0 0 1 .304-.28c.157-.004.247.112.222.271zm3.867-.247v.012h-.5v-.017a.307.307 0 0 1 .229-.274.27.27 0 0 1 .141.012c.028.012.053.03.074.053a.26.26 0 0 1 .056.214zm2.404.23c-.025.154-.127.285-.298.285-.17 0-.262-.123-.236-.29a.338.338 0 0 1 .324-.294c.165 0 .235.143.21.298z"/></g></svg>