<svg height="36" viewBox="0 0 36 36" width="36" xmlns="http://www.w3.org/2000/svg"><mask id="a" fill="#fff"><path d="M0 0h28v5.08H0z" fill-rule="evenodd"/></mask><g fill="none" fill-rule="evenodd"><path d="M18 0c2.837 0 5.52.656 7.907 1.825C31.884 4.753 36 10.895 36 18c0 9.942-8.058 18-18 18-9.94 0-18-8.057-18-18C0 8.06 8.06 0 18 0z" fill="#f2f4f7" fill-rule="nonzero"/><path d="M5.365.255h.59V0H4.364L3.002 3.399 1.635 0H0v.256h.592L.59 4.737H.1v.256h1.443v-.256h-.64V.826L2.51 4.879h.259L4.356.826l-.002 3.912H3.85v.255h2.02v-.255h-.505zm2.509 4.366c-.592 0-1.034-.439-1.034-1.024 0-.412.095-.663.37-.842l1.65 1.62c-.27.184-.615.246-.986.246zm.03-4.112c.33 0 .532.265.532.641 0 .418-.186.778-.586.993-.257-.251-.478-.594-.478-1.006-.001-.369.203-.628.532-.628zm1.83.837h.306s-.002-1.091.994-1.091h.304v4.483h-.477c-.305-.03-.56-.226-.804-.459l-.36-.346a2.27 2.27 0 0 0 .257-.434c.083-.191.143-.548.18-.636a.465.465 0 0 1 .25-.255.532.532 0 0 1 .205-.045h.046v-.259H9.139v.259h.1a.497.497 0 0 1 .495.498c0 .357-.266.649-.266.649L8.1 2.383c.61-.222 1.124-.526 1.124-1.1 0-.604-.461-1.028-1.292-1.028-.843 0-1.404.466-1.404 1.22 0 .496.227.818.448 1.04-.694.269-1.106.621-1.106 1.268 0 .908.819 1.273 1.728 1.273.599 0 1.1-.179 1.489-.466.006-.004.259.407 1.005.407l2.836-.002v-.257h-.546V.255h.304c.993 0 .994 1.091.994 1.091h.306V.001H9.734zm16.818 1.543L27.8 1.526h-.371L25.568 3.58V.001h-.307v4.993h.307V3.952l.785-.849 1.298 1.89H28zm-2.975-1.448c-.635 0-1.105.406-1.32.97v-.885h-.306v3.467h.307V3.254c0-.921.514-1.556 1.262-1.556.585 0 .885.35.885 1.034v2.262h.307V2.669c0-.743-.4-1.228-1.135-1.228zm-2.475 2.204c0 .663-.47 1.192-1.226 1.192-.528 0-.892-.307-.892-.763 0-.485.335-.87 1.676-.913l.442-.014zm-.941-2.204c-.656 0-1.126.364-1.297.892l.27.086c.178-.492.549-.735 1.027-.735.6 0 .942.285.942 1.034v.201l-.457.02c-1.533.051-1.968.528-1.968 1.135 0 .621.499 1.006 1.162 1.006.585 0 1.034-.278 1.262-.778v.693h.3V2.79c0-.935-.456-1.349-1.241-1.349zm-3.438 3.296h-1.377V2.561h1.377c.892 0 1.319.406 1.319 1.084 0 .685-.427 1.092-1.32 1.092zM15.346.257h1.328c.806 0 1.19.392 1.19 1.027s-.384 1.02-1.19 1.02h-1.328zm1.919 2.162c.563-.129.928-.536.928-1.156 0-.756-.492-1.262-1.513-1.262h-1.647v4.993h1.705c1.063 0 1.632-.5 1.632-1.349 0-.678-.406-1.113-1.105-1.226z" fill="#027856" mask="url(#a)" transform="translate(4 15)"/></g></svg>