<svg width="36" height="36" fill="none" xmlns="http://www.w3.org/2000/svg"><path d="M18 0c2.837 0 5.52.656 7.907 1.825C31.884 4.753 36 10.895 36 18c0 9.942-8.058 18-18 18-9.94 0-18-8.057-18-18C0 8.06 8.06 0 18 0z" fill="#F2F4F7"/><path d="M18.857 18.007h1.319v1.321h-1.32v-1.32zm3.911 0h1.32v1.321h-1.32v-1.32zm3.912 0H28v1.321h-1.32v-1.32zm4 0H32v1.321h-1.32v-1.32z" fill="#555959"/><path d="M21.986 20.129c0 .876.151 1.018 1.093 1.027v.368h-3.204v-.368c.942-.009 1.094-.15 1.094-1.027V15.31c-1.084.02-1.717.736-1.81 2.046l-.35-.056.067-2.301h5.203l.066 2.3-.348.057c-.095-1.31-.735-2.027-1.811-2.045v4.817z" fill="#D00069"/><path d="M5.335 17.706h-.124l-.708-2.452v1.768c0 .19.006.303.02.341.04.14.134.212.28.213h.052v.13h-.839v-.13h.065a.243.243 0 0 0 .164-.064.291.291 0 0 0 .087-.18 2.31 2.31 0 0 0 .013-.31v-1.563a.883.883 0 0 0-.01-.184c-.017-.064-.051-.103-.106-.121a.524.524 0 0 0-.138-.016h-.075v-.129h.786l.573 1.983.586-1.983h.791v.129h-.054c-.106.001-.177.022-.215.062a.172.172 0 0 0-.049.111 1.47 1.47 0 0 0-.012.226v1.64c0 .147.006.238.022.274.022.08.108.122.254.125h.054v.13H5.736v-.13h.036c.104 0 .174-.021.213-.063.027-.023.042-.06.05-.112.007-.052.012-.128.012-.224v-1.923l-.712 2.452zm2.675-.959c-.198.003-.345.03-.439.083a.433.433 0 0 0-.192.2.509.509 0 0 0-.046.213c0 .101.023.18.071.236a.236.236 0 0 0 .191.085c.096 0 .182-.04.257-.123a.567.567 0 0 0 .14-.295c.012-.062.018-.157.018-.284v-.115zm.684.468a1.014 1.014 0 0 1-.04.283c-.055.156-.154.233-.295.233a.3.3 0 0 1-.248-.118.51.51 0 0 1-.081-.217c-.141.245-.332.367-.572.367a.472.472 0 0 1-.33-.122.496.496 0 0 1-.162-.386c0-.155.055-.285.163-.388.18-.167.471-.253.881-.257v-.22c0-.148-.022-.257-.065-.321-.062-.09-.168-.137-.316-.137-.116 0-.205.03-.267.09.108.033.164.107.164.221a.217.217 0 0 1-.067.164.23.23 0 0 1-.166.062.217.217 0 0 1-.157-.058.229.229 0 0 1-.065-.167c0-.13.069-.244.206-.34a.718.718 0 0 1 .427-.119c.264 0 .45.08.559.24.06.089.09.24.09.455v.787c0 .102.013.167.035.196a.081.081 0 0 0 .06.028c.04 0 .07-.03.09-.09a1.29 1.29 0 0 0 .026-.186h.13zm.864-1.308c-.093 0-.161.032-.208.095-.069.094-.104.226-.104.396 0 .184.043.32.13.406a.258.258 0 0 0 .19.067c.204 0 .307-.157.307-.47 0-.33-.105-.494-.315-.494zm-.052 1.686c-.256.08-.385.204-.385.372a.3.3 0 0 0 .085.21c.082.087.207.13.372.13.178 0 .312-.05.406-.149a.336.336 0 0 0 .098-.24.241.241 0 0 0-.103-.21c-.066-.047-.176-.078-.333-.097l-.14-.016zm-.189-.65a.75.75 0 0 1-.228-.13.516.516 0 0 1-.197-.413.621.621 0 0 1 .404-.564.683.683 0 0 1 .262-.05c.128 0 .237.023.327.071a.331.331 0 0 1 .071-.172.275.275 0 0 1 .22-.096c.065 0 .116.018.155.056.04.04.059.085.059.139 0 .05-.018.091-.052.124a.152.152 0 0 1-.108.04.145.145 0 0 1-.111-.045.15.15 0 0 1-.016-.174l-.01.005a.071.071 0 0 0-.064.033.21.21 0 0 0-.037.124l.003.032c.155.132.232.284.232.452 0 .13-.038.248-.114.35a.656.656 0 0 1-.346.236 1.343 1.343 0 0 1-.224.033c-.127.011-.21.03-.246.056-.03.02-.045.046-.045.078 0 .027.01.05.032.07.038.035.143.065.314.091.288.042.48.09.574.145a.405.405 0 0 1 .217.37c0 .183-.08.332-.24.446a1.077 1.077 0 0 1-.634.186c-.215 0-.39-.045-.523-.135a.356.356 0 0 1-.173-.31c0-.139.075-.248.224-.328a.93.93 0 0 1 .272-.096.575.575 0 0 1-.226-.087.261.261 0 0 1-.113-.224c0-.148.114-.252.341-.313zm1.173-1.1h.84v.126h-.072c-.108 0-.163.03-.163.089a.31.31 0 0 0 .028.108l.403 1.059.351-.98a.52.52 0 0 0 .037-.16c0-.077-.059-.116-.177-.116h-.089v-.126h.668v.126h-.044a.151.151 0 0 0-.119.056.505.505 0 0 0-.067.133l-.67 1.8a1 1 0 0 1-.21.363.402.402 0 0 1-.292.114.38.38 0 0 1-.25-.085.33.33 0 0 1-.121-.262c0-.065.017-.12.054-.164a.197.197 0 0 1 .161-.072.2.2 0 0 1 .172.083.202.202 0 0 1 .035.116.194.194 0 0 1-.168.199.15.15 0 0 0 .123.056.267.267 0 0 0 .204-.094c.052-.058.111-.178.175-.362l.043-.127-.554-1.494a.623.623 0 0 0-.109-.21c-.034-.034-.086-.05-.155-.05h-.034v-.126zm2.88.904c-.2.003-.345.03-.44.083a.442.442 0 0 0-.192.2.499.499 0 0 0-.047.213c0 .101.023.18.072.236.047.057.11.085.19.085a.34.34 0 0 0 .258-.123.574.574 0 0 0 .14-.295c.012-.062.018-.157.018-.284v-.115zm.683.468a.947.947 0 0 1-.04.283c-.056.156-.154.233-.295.233a.303.303 0 0 1-.249-.118.492.492 0 0 1-.08-.217c-.142.245-.332.367-.573.367a.47.47 0 0 1-.328-.122.493.493 0 0 1-.163-.386c0-.155.054-.285.163-.388.178-.167.471-.253.881-.257v-.22c0-.148-.022-.257-.066-.321-.062-.09-.167-.137-.315-.137-.116 0-.204.03-.267.09.108.033.163.107.163.221a.217.217 0 0 1-.065.164.234.234 0 0 1-.167.062.215.215 0 0 1-.157-.058.226.226 0 0 1-.065-.167c0-.13.069-.244.205-.34a.72.72 0 0 1 .426-.119c.266 0 .453.08.561.24.06.089.09.24.09.455v.787c0 .102.013.167.034.196a.082.082 0 0 0 .06.028c.04 0 .072-.03.091-.09.01-.03.018-.093.026-.186h.13zm.742-1.399-.013.521c.115-.357.282-.536.506-.536a.32.32 0 0 1 .225.082c.052.048.079.11.079.188a.225.225 0 0 1-.073.174.2.2 0 0 1-.137.052.19.19 0 0 1-.146-.062.181.181 0 0 1-.05-.131c0-.065.031-.12.099-.163a.36.36 0 0 0-.055-.009c-.068 0-.13.044-.192.13-.153.217-.228.569-.228 1.057v.134c0 .134.003.21.01.229.022.065.083.097.183.098h.137v.126h-.945v-.126h.065c.077 0 .13-.017.156-.048.032-.034.048-.125.048-.279v-.96c0-.15-.016-.243-.048-.275-.026-.032-.08-.048-.156-.048h-.046v-.127l.581-.027zm-9.593 3.12v2.038c0 .148.007.24.021.274.023.08.109.122.254.124h.094v.13H4.456v-.13h.092c.106 0 .176-.02.216-.06a.185.185 0 0 0 .05-.115c.008-.05.012-.125.012-.223v-2.038H4.74a.58.58 0 0 0-.352.115c-.157.116-.247.348-.27.697L4 19.742l.021-.935h1.997l.015.935-.12.006a1.507 1.507 0 0 0-.139-.515.537.537 0 0 0-.218-.234.638.638 0 0 0-.294-.063h-.06zm1.902 1.482c0-.164-.018-.3-.054-.408-.064-.188-.166-.28-.304-.28-.154 0-.265.115-.33.346-.026.093-.04.208-.041.342h.729zm.373.14H6.37c.001.262.029.455.082.58.073.178.2.266.38.266a.436.436 0 0 0 .348-.168c.052-.06.103-.144.155-.25l.12.062c-.17.342-.397.51-.686.51a.68.68 0 0 1-.52-.215c-.17-.181-.253-.442-.253-.783 0-.315.083-.565.252-.754a.622.622 0 0 1 .48-.224c.277 0 .485.14.624.42.075.15.117.336.125.556zm.748-1.779v2.271c.001.152.018.244.048.28.029.03.08.046.157.048h.066v.124h-.887v-.124h.066c.077-.002.13-.018.155-.048.033-.036.05-.128.05-.28v-1.796c0-.149-.017-.242-.05-.274-.025-.032-.078-.048-.155-.05h-.046v-.123l.596-.028zm1.495 1.639c0-.164-.02-.3-.055-.408-.065-.188-.166-.28-.304-.28-.154 0-.264.115-.33.346-.027.093-.04.208-.042.342h.73zm.372.14H8.985c.001.262.028.455.081.58.075.178.2.266.38.266a.44.44 0 0 0 .35-.168c.05-.06.102-.144.154-.25l.12.062c-.17.342-.398.51-.687.51a.682.682 0 0 1-.52-.215c-.17-.181-.253-.442-.253-.783 0-.315.084-.565.252-.754a.626.626 0 0 1 .481-.224c.277 0 .484.14.625.42.074.15.116.336.124.556zm2.034.944h-.508l-.58-.94-.158.144v.344c0 .152.018.244.05.28.027.03.08.046.157.048h.075v.124h-.897v-.124h.065c.078-.002.13-.018.156-.048.032-.036.048-.128.05-.28v-1.796c-.002-.149-.018-.242-.05-.274-.026-.032-.078-.048-.156-.05h-.046v-.123l.596-.028v1.733l.537-.471c.08-.071.12-.132.12-.185 0-.06-.058-.09-.174-.09h-.061v-.126h.798v.125h-.04a.311.311 0 0 0-.144.03 1.122 1.122 0 0 0-.193.148l-.445.4.488.778c.063.098.108.159.135.182.05.051.114.076.194.075h.031v.124zm.95-1.788a.33.33 0 0 0-.245.112c-.12.125-.18.366-.18.726 0 .584.143.878.425.878.28 0 .42-.29.42-.868 0-.264-.03-.465-.091-.606a.434.434 0 0 0-.166-.197.303.303 0 0 0-.163-.045zm0-.132c.251 0 .455.1.612.3.137.174.206.402.206.686 0 .287-.069.518-.206.693a.748.748 0 0 1-.624.298.728.728 0 0 1-.603-.298c-.137-.175-.205-.404-.205-.69 0-.286.068-.515.205-.689.157-.2.362-.3.615-.3zm3.217 1.92v-1.137c0-.236-.016-.387-.05-.454-.043-.09-.112-.135-.206-.135-.112 0-.203.065-.272.193a.613.613 0 0 0-.074.226c-.01.06-.014.177-.014.347v.508c.001.152.018.244.05.28.026.03.079.046.156.048h.057v.124h-.607v-1.075a3.29 3.29 0 0 0-.012-.358c-.028-.194-.113-.293-.255-.293-.115 0-.206.066-.27.195a.632.632 0 0 0-.07.198 2.56 2.56 0 0 0-.019.373v.508c.001.152.016.244.045.28.029.03.082.046.161.048h.057v.124h-.877v-.124h.064c.075-.002.127-.018.154-.048.034-.034.05-.126.052-.28v-.962c-.002-.149-.018-.24-.052-.273-.027-.033-.079-.048-.154-.048h-.045v-.127l.57-.028v.331a.551.551 0 0 1 .11-.178.479.479 0 0 1 .366-.166c.218 0 .376.124.473.37.119-.246.285-.37.498-.37.117 0 .22.035.31.104a.52.52 0 0 1 .177.309c.013.072.021.174.021.308v.73c.002.152.018.244.049.28.027.03.078.046.156.048h.045v.124h-.594z" fill="#555959"/></svg>