<svg width="36" height="36" fill="none" xmlns="http://www.w3.org/2000/svg"><path d="M18 0c2.837 0 5.52.656 7.907 1.825C31.884 4.753 36 10.895 36 18c0 9.942-8.058 18-18 18-9.94 0-18-8.057-18-18C0 8.06 8.06 0 18 0z" fill="#F2F4F7"/><g fill="#005A84"><path d="M11.315 16.11H9.448l-.8 1.486a8.06 8.06 0 0 0-.348.77h.023c-.008-.3-.017-.576-.033-.754l-.1-1.502H6.711L4 20.333l1.648-.002 1.174-1.788c.192-.29.219-.366.296-.493h.008c.008.39-.014.771-.014 1.067l-.026 1.214H8.57l.718-1.332c.17-.316.323-.64.459-.973h.008c-.025.26-.049.577-.058.795l-.057 1.51h1.536l.138-4.22z"/><path d="m16.103 20.331-.633-4.22h-1.786l-2.85 4.22h1.677l.748-1.087h-.003s.915-1.316 1.004-1.518l.008-.027c0 .163.016.375.033.522l.117 1.023h-.547l-.749 1.088h.73l.691-.001h1.56zm5.549-1.27c-.325 0-.536-.203-.536-.584 0-.837.568-1.145.99-1.145.334 0 .544.22.544.584 0 .496-.349 1.145-.998 1.145zm.706-3.06a2.706 2.706 0 0 0-2.776 2.719c0 1.03.633 1.68 1.9 1.68 1.299 0 2.703-1.063 2.703-2.67 0-1.16-.771-1.73-1.827-1.73zm-2.623.097a2.8 2.8 0 0 0-.804-.097c-1.818 0-2.768 1.299-2.768 2.735 0 1.039.616 1.648 1.907 1.648.298-.015.594-.053.885-.114l.13-1.315a2.058 2.058 0 0 1-.625.098c-.39 0-.682-.211-.682-.601 0-.495.34-1.177 1.055-1.177.181.001.36.037.528.106l.373-1.283zm10.847.012h-1.867l-.8 1.486a8.27 8.27 0 0 0-.348.77h.023c-.008-.3-.017-.576-.033-.754l-.1-1.502h-1.478l-2.712 4.223 1.648-.002 1.175-1.788c.19-.29.218-.366.295-.493h.008c.008.39-.014.771-.014 1.067l-.026 1.214h1.485l.718-1.332c.17-.316.323-.64.459-.973h.008c-.024.26-.049.577-.058.795l-.056 1.51h1.534l.139-4.22zm.722 3.457h.074a.144.144 0 0 1 .09.022.07.07 0 0 1 .026.056.07.07 0 0 1-.027.057.157.157 0 0 1-.096.022h-.067v-.157zm-.156.518h.156v-.247a.114.114 0 0 1 .02-.002.085.085 0 0 1 .06.035c.047.068.087.14.121.214h.185a13.2 13.2 0 0 1-.101-.181.295.295 0 0 0-.05-.064.168.168 0 0 0-.053-.03.24.24 0 0 0 .128-.066.158.158 0 0 0 .041-.11.164.164 0 0 0-.053-.128.254.254 0 0 0-.173-.048h-.28l-.001.627zm.6.021a.474.474 0 1 1-.67-.67.474.474 0 0 1 .67.67zm.173-.628a.586.586 0 1 0-1.014.587.586.586 0 0 0 1.014-.587z"/></g></svg>