<svg height="36" viewBox="0 0 36 36" width="36" xmlns="http://www.w3.org/2000/svg"><mask id="a" fill="#fff"><path d="M0 0h12.341v11.565H0z" fill-rule="evenodd"/></mask><mask id="b" fill="#fff"><path d="M0 0h6.668v11.323H0z" fill-rule="evenodd"/></mask><g fill="none" fill-rule="evenodd"><path d="M18 0c2.837 0 5.52.656 7.907 1.825C31.884 4.753 36 10.895 36 18c0 9.942-8.058 18-18 18-9.94 0-18-8.057-18-18C0 8.06 8.06 0 18 0z" fill="#f2f4f7" fill-rule="nonzero"/><g fill="#005582"><path d="M7.677 1.008c1.78 0 3.41.69 4.625 1.822.028.028.056 0 .028-.027A6.818 6.818 0 0 0 0 6.82c0 1.836.732 3.507 1.906 4.737.027.013.055.013.027-.029a6.882 6.882 0 0 1-1.077-3.7 6.826 6.826 0 0 1 6.82-6.82" mask="url(#a)" transform="translate(4 11)"/><path d="M6.637 11.187a5.673 5.673 0 0 1-2.982-.912 5.672 5.672 0 0 1-1.643-7.842A5.64 5.64 0 0 1 5.353.03c.027 0 .027-.042-.014-.028A5.64 5.64 0 0 0 .921 2.557 5.674 5.674 0 0 0 2.564 10.4a5.7 5.7 0 0 0 3.783.884c.097-.014.193-.042.29-.056.041 0 .041-.041 0-.041" mask="url(#b)" transform="translate(5.564 13.275)"/><path d="M16.882 20.43c-.11.206-.235.4-.373.58a4.72 4.72 0 0 1-1.256 1.131 4.828 4.828 0 0 1-6.67-1.49 4.821 4.821 0 0 1-.634-3.66c.014-.04-.014-.055-.027-.013a4.826 4.826 0 0 0 .276 4.652 4.846 4.846 0 0 0 6.682 1.505 6.88 6.88 0 0 0 .594-.44 4.892 4.892 0 0 0 1.45-2.252c0-.028-.028-.04-.042-.014"/><path d="m22.087 15.03-.331 2.32c-.07.4-.138 1.174.925 1.174.51 0 .98-.207 1.09-.938l.387-2.555h1.118l-.386 2.706c-.18 1.215-1.022 1.78-2.195 1.78-1.712 0-2.112-1.062-2.112-1.628 0-.083.013-.36.055-.663l.33-2.195zm-5.467.913.138-.912h3.934l-.124.912h-1.422l-.524 3.52h-1.12l.526-3.52zm-2.831 3.52h-.662l-.732-2.927-.912 2.928h-1.146l1.45-4.433h1.174l.704 2.816 1.49-2.816h1.147l.22 4.433h-1.076l-.124-2.831z"/></g><path d="M31.973 21.355a.95.95 0 0 0-.317-.083c-.042 0-.083.014-.083.041 0 .124.372.221.372.483 0 .207-.165.36-.414.36a.864.864 0 0 1-.387-.112l.056-.248a.713.713 0 0 0 .303.083c.055 0 .097-.028.097-.055 0-.124-.36-.248-.36-.469 0-.208.167-.359.416-.359.11 0 .22.027.344.11zm-.953.262c.083-.345-.11-.62-.455-.62a.616.616 0 0 0-.608.62c0 .317.222.54.553.54.124 0 .248-.03.386-.084l.07-.277c-.194.07-.318.111-.415.111-.165 0-.276-.11-.262-.29zm-.69-.194c.04-.137.11-.193.22-.193s.18.083.166.193zm-1.243-.276a.578.578 0 0 1 .387-.15c.249 0 .318.22.29.44l-.097.69h-.332l.096-.663c.015-.109-.013-.22-.096-.22s-.166.055-.276.166l-.11.717h-.33l.165-1.104h.332zm-.566-.44a.183.183 0 0 1-.18.178c-.096 0-.165-.083-.165-.179a.16.16 0 0 1 .166-.166c.096 0 .179.07.179.166zm-.207 1.42h-.331l.166-1.104h.317zm-1.173.111c.193.042.303.055.303.138 0 .07-.07.097-.262.097-.166 0-.25-.028-.25-.11 0-.056.057-.112.209-.125zm.773-1.215h-.621c-.318 0-.484.207-.484.414 0 .14.056.25.194.318-.083.028-.111.028-.152.055-.042.042-.083.097-.083.152 0 .083.069.165.152.207-.18.055-.262.138-.262.248 0 .125.096.277.524.277.456 0 .566-.18.566-.36 0-.427-.662-.303-.662-.427 0-.056.04-.056.193-.056.318 0 .469-.207.469-.414a.475.475 0 0 0-.041-.18h.18zm-.47.373c0 .124-.041.25-.18.25-.096 0-.165-.057-.165-.153 0-.166.069-.248.193-.248.083 0 .152.054.152.151zm-1.532-.249a.52.52 0 0 1 .373-.15c.262 0 .33.22.29.44l-.097.69h-.317l.083-.663c.013-.109 0-.22-.097-.22-.07 0-.166.055-.277.166l-.097.717h-.33l.151-1.104h.331zm-1.367-.014h.594l-.041.277h-.595l-.07.441h.872l-.042.276h-1.215l.235-1.67h1.035l-.041.291H24.6zm-1.381.387c0-.317-.234-.524-.552-.524a.63.63 0 0 0-.635.621c0 .303.235.538.552.538a.625.625 0 0 0 .635-.635zm-.345-.014c0 .166-.096.373-.29.373-.097 0-.221-.069-.221-.249 0-.11.069-.358.29-.358.138 0 .22.097.22.234zm-1.311-.33v.013c.096-.139.193-.193.262-.193s.124.041.207.124l-.152.303c-.055-.083-.11-.11-.165-.11-.07 0-.166.083-.194.151l-.097.663h-.331l.166-1.104h.317zm-.622.441c.069-.345-.11-.62-.455-.62a.607.607 0 0 0-.608.62c0 .317.22.54.552.54.11 0 .249-.03.387-.084l.055-.277c-.18.07-.303.111-.4.111-.166 0-.276-.11-.262-.29zm-.704-.194c.055-.137.124-.193.235-.193.11 0 .179.083.165.193zm-.787-.98h-.373l-.814 1.684h.386l.166-.358h.51l.056.358h.359zm-.25.346h.015l.083.745h-.386z" fill="#81a5b6"/></g></svg>