<svg width="36" height="36" fill="none" xmlns="http://www.w3.org/2000/svg"><path d="M18 0c2.837 0 5.52.656 7.907 1.825C31.884 4.753 36 10.895 36 18c0 9.942-8.058 18-18 18-9.94 0-18-8.057-18-18C0 8.06 8.06 0 18 0z" fill="#F2F4F7"/><path d="M5.56 15.655a.297.297 0 1 0-.593 0v4.075l.592-.545v-3.53z" fill="url(#a)"/><path d="M4.592 16.43a.297.297 0 0 0-.592 0v4.188l.592-.544V16.43z" fill="url(#b)"/><path d="M6.525 18.297v-2.984a.297.297 0 1 0-.592 0v3.525l.547-.501.045-.04z" fill="url(#c)"/><path d="M7.493 18.838v-3.527a.297.297 0 0 0-.297-.296.296.296 0 0 0-.296.296v2.985l.046.041.547.501z" fill="url(#d)"/><path d="M8.46 15.655a.297.297 0 1 0-.593 0v3.53l.593.545v-4.075z" fill="url(#e)"/><path d="M9.426 16.43a.297.297 0 0 0-.592 0v3.644l.592.544V16.43z" fill="url(#f)"/><path d="m8.834 20.541-.374-.344-.593-.544-.374-.344-.593-.544-.187-.172-.188.172-.592.544-.374.344-.592.544-.375.344-.592.545 2.713-1.03 2.713 1.03-.592-.545zm5.03-4.647v2.416h-.373l-1.328-1.636v1.636h-.445v-2.416h.373l1.328 1.639v-1.639h.445zm1.146 2.292a1.176 1.176 0 0 1-.466-.445 1.22 1.22 0 0 1-.169-.636 1.22 1.22 0 0 1 .169-.637c.11-.189.272-.343.466-.445a1.462 1.462 0 0 1 1.332 0 1.19 1.19 0 0 1 .635 1.082 1.189 1.189 0 0 1-.635 1.08 1.455 1.455 0 0 1-1.332 0zm1.1-.342a.788.788 0 0 0 .304-.303.872.872 0 0 0 .11-.436.873.873 0 0 0-.11-.438.788.788 0 0 0-.304-.303.922.922 0 0 0-.87 0 .789.789 0 0 0-.303.303.873.873 0 0 0-.11.438.872.872 0 0 0 .11.436.789.789 0 0 0 .303.303.923.923 0 0 0 .87 0zm2.958.466-.494-.708a.807.807 0 0 1-.093 0h-.545v.704h-.449v-2.412h.994c.188-.004.374.031.547.104.147.06.272.164.36.296a.828.828 0 0 1 .124.46.818.818 0 0 1-.133.465.787.787 0 0 1-.381.294l.56.794-.49.003zm-.163-1.912a.69.69 0 0 0-.444-.124h-.525v.962h.525a.683.683 0 0 0 .445-.126.439.439 0 0 0 .152-.357.434.434 0 0 0-.152-.355zm1.595-.124h-.8v-.38h2.05v.38h-.8v2.036h-.45l-.002-2.036zm3.768-.38v2.416h-.449v-1.035h-1.25v1.035h-.448v-2.416h.449v.997h1.25v-.997h.448zm2.495 2.039v.373H24.95v-2.412h1.763v.373H25.4v.628h1.17v.373H25.4v.666l1.364-.001zm2.115.377-.494-.708a.807.807 0 0 1-.093 0h-.545v.704h-.449v-2.412h.994c.188-.004.374.031.547.104.146.06.27.164.357.296a.828.828 0 0 1 .124.46.817.817 0 0 1-.133.465.787.787 0 0 1-.38.297l.56.794h-.488zm-.164-1.912a.69.69 0 0 0-.445-.124h-.525v.962h.525a.683.683 0 0 0 .445-.126.44.44 0 0 0 .152-.357.435.435 0 0 0-.152-.355zM32 15.894v2.416h-.373l-1.328-1.636v1.636h-.445v-2.416h.373l1.328 1.639v-1.639H32zm-20.282 3.648h.653a.947.947 0 0 1 .426.094c.12.058.221.15.29.264a.806.806 0 0 1 0 .787.692.692 0 0 1-.29.264.932.932 0 0 1-.426.093h-.653v-1.502zm.644 1.266c.1.002.2-.02.29-.064a.446.446 0 0 0 .193-.18.575.575 0 0 0 0-.542.452.452 0 0 0-.193-.18.637.637 0 0 0-.29-.064h-.365v1.026l.365.004zm2.509-.111h-.746l-.148.347h-.287l.675-1.502h.28l.677 1.502h-.291l-.16-.347zm-.093-.22-.28-.652-.28.653h.56zm1.384-.699h-.497v-.235h1.274v.235h-.498v1.266h-.28v-1.266zm2.315.919h-.747l-.148.347h-.287l.676-1.502h.274l.676 1.502h-.291l-.153-.347zm-.094-.22-.28-.652-.28.653h.56z" fill="#303031"/><defs><linearGradient id="a" x1="5.263" y1="19.73" x2="5.263" y2="15.359" gradientUnits="userSpaceOnUse"><stop stop-color="#ADCB53"/><stop offset="1" stop-color="#6FC6D0"/></linearGradient><linearGradient id="b" x1="5.883" y1="284.598" x2="5.883" y2="69.768" gradientUnits="userSpaceOnUse"><stop stop-color="#ADCB53"/><stop offset="1" stop-color="#6FC6D0"/></linearGradient><linearGradient id="c" x1="20.114" y1="172.488" x2="20.114" y2="15" gradientUnits="userSpaceOnUse"><stop stop-color="#ADCB53"/><stop offset="1" stop-color="#6FC6D0"/></linearGradient><linearGradient id="d" x1="27.195" y1="171.897" x2="27.195" y2="15.015" gradientUnits="userSpaceOnUse"><stop stop-color="#ADCB53"/><stop offset="1" stop-color="#6FC6D0"/></linearGradient><linearGradient id="e" x1="34.344" y1="237.182" x2="34.344" y2="31.533" gradientUnits="userSpaceOnUse"><stop stop-color="#ADCB53"/><stop offset="1" stop-color="#6FC6D0"/></linearGradient><linearGradient id="f" x1="41.41" y1="284.598" x2="41.41" y2="69.768" gradientUnits="userSpaceOnUse"><stop stop-color="#ADCB53"/><stop offset="1" stop-color="#6FC6D0"/></linearGradient></defs></svg>