<svg width="36" height="36" fill="none" xmlns="http://www.w3.org/2000/svg"><path d="M18 0c2.837 0 5.52.656 7.907 1.825C31.884 4.753 36 10.895 36 18c0 9.942-8.058 18-18 18-9.94 0-18-8.057-18-18C0 8.06 8.06 0 18 0z" fill="#F2F4F7"/><path d="M10.882 19.931h-.59v-1.702h.572c.358 0 .53.19.53.428a.391.391 0 0 1-.305.395.429.429 0 0 1 .343.424c0 .255-.193.455-.55.455zm-.03-1.559h-.39v.61h.398c.231 0 .36-.118.36-.308 0-.182-.122-.301-.368-.301zm.01.75h-.4v.665h.407c.246 0 .392-.124.392-.329 0-.204-.155-.336-.399-.336zm.908-.893h.17v1.702h-.17v-1.702zm1.333 1.719c-.477 0-.842-.358-.842-.87 0-.508.365-.869.842-.869.48 0 .843.36.843.87 0 .511-.363.869-.843.869zm0-.149c.378 0 .667-.275.667-.72 0-.446-.29-.719-.667-.719-.377 0-.667.273-.667.718 0 .446.29.721.667.721zm1.647.149c-.342 0-.566-.195-.575-.455h.18c.014.14.12.311.394.311.236 0 .375-.138.375-.314 0-.501-.935-.185-.935-.825 0-.263.217-.456.546-.456.324 0 .518.18.548.414h-.185c-.02-.119-.134-.265-.37-.267-.2-.003-.366.107-.366.304 0 .492.935.19.935.823 0 .232-.187.465-.548.465zm1.605-1.738c.38 0 .662.19.784.516h-.2c-.095-.227-.294-.368-.584-.368-.373 0-.657.275-.657.72 0 .444.284.72.657.72.29 0 .49-.142.584-.363h.2c-.122.32-.404.51-.784.51-.472 0-.833-.355-.833-.866 0-.512.36-.87.833-.87zm1.105.019h.171v1.702h-.17v-1.702zm1.464.139h-.718v.635h.646v.142h-.646v.645h.718v.141h-.888v-1.704h.888v.14zm1.57-.139v1.702h-.17l-.942-1.432v1.432h-.17v-1.702h.17l.942 1.43v-1.43h.17zm1.153-.019c.38 0 .662.19.784.516h-.2c-.095-.227-.295-.368-.584-.368-.373 0-.658.275-.658.72 0 .444.285.72.658.72.29 0 .49-.142.584-.363h.2c-.122.32-.405.51-.784.51-.473 0-.833-.355-.833-.866 0-.512.36-.87.833-.87zm1.99.158h-.719v.635h.646v.142h-.646v.645h.719v.141h-.89v-1.704h.89v.14zm.773 1.58c-.342 0-.566-.195-.575-.455h.18c.014.14.12.311.394.311.236 0 .375-.138.375-.314 0-.501-.935-.185-.935-.825 0-.263.217-.456.546-.456.323 0 .518.18.547.414h-.185c-.02-.119-.134-.265-.37-.267-.2-.003-.365.107-.365.304 0 .492.935.19.935.823 0 .232-.187.465-.548.465z" fill="#6B6B6B"/><path d="M12.42 15.447v2.363h-.575l-.963-1.458v1.458h-.576v-2.363h.576l.963 1.464v-1.464h.575zm1.821.461h-.872v.478h.772v.444h-.771v.519h.872v.461h-1.448v-2.363h1.447v.461zm.398-.461h.575v1.414c0 .28.138.44.41.44.274 0 .418-.16.418-.44v-1.414h.576v1.41c0 .653-.458.976-1.003.976-.549 0-.976-.323-.976-.976v-1.41zm3.272 0c.579 0 .868.333.868.744a.688.688 0 0 1-.525.683l.545.936h-.65l-.49-.892h-.139v.892h-.575v-2.363h.966zm-.034.478h-.357v.586h.357c.215 0 .316-.111.316-.296 0-.176-.1-.29-.316-.29zm2.286 1.909a1.19 1.19 0 0 1-1.216-1.212c0-.71.546-1.208 1.216-1.208a1.178 1.178 0 0 1 1.208 1.208 1.183 1.183 0 0 1-1.209 1.212zm0-.525c.377 0 .622-.273.622-.687 0-.42-.245-.687-.622-.687-.384 0-.627.266-.627.687 0 .414.243.686.626.686zm2.565-1.364a.52.52 0 0 1 .494.303h.633c-.134-.511-.558-.828-1.12-.828-.697 0-1.189.498-1.189 1.205 0 .707.492 1.202 1.188 1.202.563 0 .987-.313 1.121-.825h-.633a.52.52 0 0 1-.494.303c-.354 0-.596-.262-.596-.68 0-.417.242-.68.596-.68zm3.255.246c0-.41-.29-.744-.869-.744h-.966v2.363h.576v-.892h.138l.491.892h.65l-.546-.936a.687.687 0 0 0 .526-.683zm-.902.32h-.357v-.586h.357c.215 0 .316.114.316.29 0 .184-.1.296-.316.296zm1.282 1.3h.576v-2.364h-.576v2.363zm2.45-.9-.962-1.464h-.575v2.363h.575v-1.458l.963 1.458h.575v-2.363h-.575v1.464zm.927.899h1.447v-.461h-.872v-.519h.771v-.444h-.77v-.478h.871v-.461H29.74v2.363z" fill="url(#a)"/><path d="M7.11 20.065c1.766-.325 2.887-2.915.94-3.82-.713-.324-1.886-.09-2.06.775 2.433-.62 2.308 2.329.619 2.95a1.837 1.837 0 0 1-.545.111c.346.067.703.062 1.047-.016z" fill="url(#b)"/><path d="M7.942 15.97a1.931 1.931 0 0 1 1.029.764c-.476-1.66-3.13-2.48-4.107-.845-.654.993.228 2.79 1.492 2.435-1.381-1.337-.043-2.817 1.586-2.354z" fill="url(#c)"/><path d="M7.628 17.952a.888.888 0 0 0-.327-.595c-.733 2.602-3.575.568-2.734-1.365.015-.035.031-.07.049-.104-1.196 1.24-.591 3.928 1.305 3.978.998.024 1.84-.927 1.707-1.914z" fill="url(#d)"/><path d="M31.472 15.682a.264.264 0 1 1 .528 0 .264.264 0 1 1-.528 0zm.048 0a.214.214 0 0 0 .131.207.215.215 0 0 0 .287-.122.216.216 0 0 0 .014-.085.216.216 0 1 0-.432 0zm.262.026.08.115h-.068l-.073-.113h-.031v.114h-.058v-.287h.125a.086.086 0 0 1 .096.086.08.08 0 0 1-.07.085zm-.092-.12v.074h.063c.024 0 .043-.01.043-.037 0-.026-.02-.036-.043-.036h-.063z" fill="#0BBAB4"/><defs><linearGradient id="a" x1="9.304" y1="16.624" x2="30.54" y2="16.624" gradientUnits="userSpaceOnUse"><stop stop-color="#2B5F51"/><stop offset=".802" stop-color="#0BBAB4"/></linearGradient><linearGradient id="b" x1="6.163" y1="16.693" x2="8.835" y2="18.884" gradientUnits="userSpaceOnUse"><stop offset=".091" stop-color="#0BBAB4"/><stop offset=".367" stop-color="#528BA6"/><stop offset=".544" stop-color="#7C719E"/><stop offset=".716" stop-color="#A05998"/><stop offset=".9" stop-color="#C24392"/><stop offset="1" stop-color="#CF3B91"/></linearGradient><linearGradient id="c" x1="5.214" y1="18.003" x2="7.204" y2="14.669" gradientUnits="userSpaceOnUse"><stop offset=".463" stop-color="#0BBAB4"/><stop offset=".648" stop-color="#0FACA5"/><stop offset=".999" stop-color="#1B8880"/><stop offset="1" stop-color="#1C8880"/></linearGradient><linearGradient id="d" x1="7.526" y1="18.904" x2="2.119" y2="16.983" gradientUnits="userSpaceOnUse"><stop offset=".364" stop-color="#CF3B91"/><stop offset=".95" stop-color="#936"/></linearGradient></defs></svg>