<svg height="36" viewBox="0 0 36 36" width="36" xmlns="http://www.w3.org/2000/svg"><mask id="a" fill="#fff"><path d="M0 0h4.668v5.964H0z" fill-rule="evenodd"/></mask><g fill="none" fill-rule="evenodd"><path d="M18 0c2.837 0 5.52.656 7.907 1.825C31.884 4.753 36 10.895 36 18c0 9.942-8.058 18-18 18-9.94 0-18-8.057-18-18C0 8.06 8.06 0 18 0z" fill="#f2f4f7" fill-rule="nonzero"/><path d="M19.01 18.622c-.536 0-.868.079-.868.471 0 .455.424.492.822.492a8.9 8.9 0 0 0 .498-.024v-.923a30.864 30.864 0 0 0-.451-.016zm-.219 1.4c-.65 0-1.252-.115-1.252-.944 0-.903.93-.903 1.487-.903.055 0 .317.012.397.016 0-.506-.008-.627-.742-.627-.29 0-.614.058-.9.109l-.054.01v-.5l.037-.008c.321-.066.647-.1.975-.1.711 0 1.314.071 1.314.954v1.926l-.043.004c-.493.055-.884.063-1.219.063zm9.024-1.4c-.536 0-.868.079-.868.471 0 .455.425.492.822.492.149 0 .416-.018.497-.024v-.923a29.858 29.858 0 0 0-.45-.016zm-.22 1.4c-.648 0-1.25-.115-1.25-.944 0-.903.93-.903 1.487-.903.055 0 .317.012.397.016-.001-.506-.008-.627-.741-.627-.291 0-.615.058-.9.109l-.055.01v-.5l.037-.008c.33-.067.65-.1.975-.1.712 0 1.314.071 1.314.954v1.926l-.043.004a10.53 10.53 0 0 1-1.22.063zm-6.012 0c-.286 0-.583-.032-.937-.101l-.04-.007v-.523l.056.012c.314.067.583.124.853.124.218 0 .726-.034.726-.356 0-.268-.351-.336-.633-.39l-.017-.004a1.632 1.632 0 0 1-.144-.03c-.414-.107-.855-.269-.855-.822 0-.54.428-.85 1.173-.85.358 0 .618.038.827.069l.1.015v.508l-.053-.01a4.45 4.45 0 0 0-.78-.088c-.296 0-.647.055-.647.319 0 .218.288.281.62.354.467.1 1.044.227 1.044.862 0 .583-.471.918-1.293.918zm-5.4-.058-1.694-2.958-.001 2.958h-.591v-3.745h.827l1.695 2.932v-2.932h.598v3.745zm8.59-2.383c-.608 0-.904.328-.904 1.002 0 .606.357.983.93.983.11 0 .236-.008.408-.023v-1.921a2.686 2.686 0 0 0-.434-.041zm.006 2.474c-.962 0-1.56-.558-1.56-1.456 0-.932.55-1.512 1.439-1.512h.075c.11 0 .265.004.475.03v-1.126h.627v3.963s-.596.101-1.056.101zm6.203-2.475c-.638 0-.96.325-.96.966 0 .824.48.998.887.998.098 0 .209 0 .455-.031v-1.915a5.449 5.449 0 0 0-.382-.018zm.375 3.657v-1.228c-.244.033-.374.033-.48.033-.248 0-.524-.055-.738-.145-.478-.199-.764-.704-.764-1.352 0-.324.079-.916.607-1.234.265-.158.577-.226 1.047-.226.168 0 .395.013.615.025l.356.02v3.821z" fill="#231f20"/><g fill="#0996c7"><path d="m11.093 14-2.076 5.702a.396.396 0 0 1-.333.259v.003h2.194a.395.395 0 0 0 .373-.262L13.327 14z"/><path d="M8.505 19.877a.376.376 0 0 0 .307-.159c.007-.01.032-.045.05-.092l.761-2.093-.446-1.222a.377.377 0 0 0-.703.02l-.76 2.092.446 1.226a.374.374 0 0 0 .345.228"/><path d="M4.668 0H2.45a.396.396 0 0 0-.374.262L0 5.964h2.235L4.31.262A.397.397 0 0 1 4.668 0z" mask="url(#a)" transform="translate(4 15.994)"/></g></g></svg>