<svg width="36" height="36" fill="none" xmlns="http://www.w3.org/2000/svg"><path d="M18 0c2.837 0 5.52.656 7.907 1.825C31.884 4.753 36 10.895 36 18c0 9.942-8.058 18-18 18-9.94 0-18-8.057-18-18C0 8.06 8.06 0 18 0z" fill="#F2F4F7"/><g fill="#0081C6"><path d="M10.129 22.476h-.118l1.04-4.89h1.486l.493 2.875.612-2.875h1.112l-1.04 4.89H12.26l-.488-3.045-.648 3.045h-.995zm5.688-2.558c-.084.152-.148.404-.22.744-.086.405-.13.68-.13.851 0 .126.025.186.047.209.022.024.063.041.154.041.15-.006.209-.028.305-.184.09-.158.178-.459.283-.957.06-.285.102-.51.101-.66-.018-.214-.026-.236-.211-.253-.166.005-.242.058-.33.209zm-.274 2.623c-.426 0-.724-.091-.917-.275-.192-.184-.258-.446-.258-.74 0-.255.047-.541.114-.852.18-.899.523-1.75 1.789-1.741.436 0 .736.097.927.283.191.186.254.445.253.725 0 .24-.044.502-.102.773-.204 1.023-.564 1.827-1.786 1.827h-.02zm3.512-3.543h.119l-.043.2c.235-.199.518-.267.804-.265h.117l-.216 1.017-.082-.005a1.339 1.339 0 0 0-.113-.005c-.635.01-.688.359-.765.67l-.397 1.866h-1.113l.74-3.478h.95zm2.09.947c-.084.179-.142.454-.212.782-.076.359-.12.625-.12.799.017.231.032.244.169.257.115-.002.183-.048.275-.222.086-.174.164-.463.252-.874.067-.318.124-.588.123-.764-.016-.196-.024-.22-.165-.233-.156.004-.234.074-.322.255zm.146 2.53h-.118l.035-.165a1.09 1.09 0 0 1-.705.231h-.013c-.29.001-.503-.098-.628-.265-.124-.166-.16-.379-.161-.6 0-.332.084-.694.146-.982.071-.33.154-.76.344-1.117.187-.356.506-.647 1.006-.644.264-.005.483.066.634.24l.337-1.587h1.113l-1.04 4.89h-.95m5.904-2.558c-.084.152-.148.404-.22.744-.088.407-.132.68-.13.851-.002.126.023.186.046.209.02.024.063.041.155.041.149-.006.209-.028.303-.184.091-.158.18-.459.284-.957.061-.285.102-.51.101-.66-.018-.214-.027-.236-.21-.253-.168.005-.242.058-.33.209zm-.276 2.623c-.425 0-.723-.091-.916-.275-.192-.184-.259-.445-.259-.74 0-.255.049-.541.114-.852.181-.899.524-1.75 1.79-1.741.437 0 .736.097.928.283.191.186.253.445.253.726 0 .24-.044.501-.102.772-.205 1.023-.564 1.827-1.788 1.827h-.02zm3.372-.065.507-2.38c.018-.088.03-.166.03-.229-.017-.142-.01-.162-.17-.176-.227.001-.293.152-.363.444l-.498 2.341h-1.113l.74-3.478h1.113l-.034.157c.069-.051.14-.092.21-.122.158-.072.328-.1.508-.1.413.001.778.233.779.657a.88.88 0 0 1-.019.175l-.577 2.711h-1.113z"/><path d="M24.22 13.29a33.77 33.77 0 0 0-4.427-.29C11.07 13 4 16.214 4 20.179c0 .803.295 1.575.83 2.297h2.878c-.54-.72-.837-1.492-.837-2.297 0-3.806 6.557-6.892 14.645-6.892.915 0 1.81.042 2.679.117l.024-.115zm1.254 5.828c-.2-.13-.459-.184-.736-.185-.607-.001-1.414.22-1.586 1a.955.955 0 0 0-.023.205c.003.467.383.681.707.837.337.156.61.29.602.473.002.01.001.019.001.03 0 .143-.142.26-.317.26-.173 0-.316-.117-.316-.26v-.002s-.005-.127.05-.246h-.975l-.02.07a1.703 1.703 0 0 0-.067.447c-.004.306.134.528.357.644.222.116.51.149.848.15h.003c.794 0 1.4-.454 1.533-1.079a.99.99 0 0 0 .023-.212c-.001-.476-.378-.718-.708-.885a4.102 4.102 0 0 1-.462-.246c-.085-.047-.159-.128-.159-.224 0-.143.141-.26.317-.26.026 0 .066.006.112.018.114.036.194.124.2.23 0 0 .004.117-.046.25h.923l.02-.07c.032-.116.048-.224.048-.324a.711.711 0 0 0-.33-.621z"/></g></svg>