<svg width="36" height="36" fill="none" xmlns="http://www.w3.org/2000/svg"><path d="M18 0c2.837 0 5.52.656 7.907 1.825C31.884 4.753 36 10.895 36 18c0 9.942-8.058 18-18 18-9.94 0-18-8.057-18-18C0 8.06 8.06 0 18 0z" fill="#F2F4F7"/><path d="M12.655 15c-2.673.012-5.68.78-6.98 1.851a2.684 2.684 0 0 0-.4.411c.08-.05.164-.1.249-.148.137-.08.278-.16.423-.234 2.049-1.064 4.897-1.674 7.64-1.371l.009-.084-.29-.03.004-.035.067.008.003-.029.328.037.003-.033.033.003.003-.028.03.003v-.027l-.358-.036.005-.053.063.007.003-.03-.066-.007.003-.028.165.017v-.028l-.189-.019.004-.031.324.036.003-.027.035.003.006-.055c-.363-.03-.738-.045-1.12-.043zm-.312.557c-2.4.016-4.69.569-6.213 1.342-.148.076-.29.154-.424.233-.176.106-.34.214-.487.326l-.051.038-.007.063-.007.06.09-.052.159-.09a10.733 10.733 0 0 1 1.143-.534c2.047-.814 4.688-1.2 6.787-.884l.003-.03.037.003.005-.049.296.03.003-.028.03.003.007-.057.03.003.002-.03-.154-.015.003-.03.028.003.003-.027-.03-.004.004-.034.262.027.003-.028.03.003.005-.05-.26-.03.003-.034.031.003.01-.083a15.463 15.463 0 0 0-1.341-.048zm-.694.496a14.323 14.323 0 0 0-5.394 1.137 11.074 11.074 0 0 0-.826.396 7.805 7.805 0 0 0-.289.162l-.036.021.003.18a15.266 15.266 0 0 1 .906-.407 13.39 13.39 0 0 1 1.436-.504 13.79 13.79 0 0 1 5.232-.474l.005-.056.034.003.002-.03-.224-.024.006-.057.032.004.003-.028.093.01.006-.057.036.004.003-.028.132.014.006-.058.04.004.002-.023.09.009.003-.028.033.003.003-.026-.096-.01.003-.028.259.028.004-.027.037.004.003-.03a12.26 12.26 0 0 0-1.547-.084zm-.657.903-.299.422-.007.012c.1.098.176.194.236.29a1.19 1.19 0 0 1 .178.501c.01.062.016.126.019.195.005.078.005.162.004.254a.753.753 0 0 0 .165-.237 1.076 1.076 0 0 0 .082-.29 1.352 1.352 0 0 0 0-.376 1.371 1.371 0 0 0-.378-.771zm-.369.515-.117.166-.2.284a2.676 2.676 0 0 0 .15.193c.053.07.102.133.143.207.08.142.134.322.151.649l.002.04a.583.583 0 0 0 .05-.032c.17-.122.229-.356.209-.614a1.305 1.305 0 0 0-.03-.195 1.56 1.56 0 0 0-.205-.505 1.09 1.09 0 0 0-.153-.193zm-5.631.227c-.008.01-.013.023-.019.032a1.59 1.59 0 0 0-.206.615c-.062.591.294 1.095.877 1.447.873.53 2.257.723 3.495.37a3.773 3.773 0 0 0 1.665-.959c-1.561 1.008-5.057 1.048-5.707-.823a1.986 1.986 0 0 1-.105-.682zm5.24.329-.043.059-.128.179-.136.189c.11.12.223.294.308.463.07.14.121.278.136.38l.24-.16c.034-.022.047-.087.04-.176a1.808 1.808 0 0 0-.2-.656 1.14 1.14 0 0 0-.141-.208.443.443 0 0 0-.076-.07zm-5.634.26-.02.038c-.253.528-.224.985-.005 1.356.729 1.234 3.567 1.546 5.224.549.252-.152.477-.334.663-.548a5.085 5.085 0 0 1-1.027.51c-1.583.57-3.2.25-4.11-.431-.525-.394-.816-.906-.732-1.436l.007-.038zm-.358.506c-.158.302-.233.58-.24.83-.01.423.175.771.486 1.043.361.316.893.528 1.493.635l.72.076a5.423 5.423 0 0 0 1.947-.274c.533-.186.997-.465 1.312-.843-.514.407-1.507.683-2.523.716a5.265 5.265 0 0 1-1.503-.158c-.707-.19-1.292-.558-1.551-1.158a1.873 1.873 0 0 1-.141-.867zm8.63-1.337h.78l.795 1.315h.009l.328-1.315h.702l-.513 2.058h-.772l-.809-1.295h-.008l-.323 1.295h-.703l.514-2.058zm4.198 2.115c-.984 0-1.434-.509-1.29-1.087.144-.578.848-1.087 1.832-1.087.985 0 1.434.51 1.29 1.087-.144.578-.847 1.087-1.832 1.087zm.434-1.74c-.45 0-.837.19-.952.653-.075.301.02.654.626.654.573 0 .873-.336.953-.654.08-.323-.054-.653-.627-.653zm2.205-.375h1.544c.694 0 1.065.213.95.676-.066.266-.371.48-.776.555l.5.827h-.862l-.423-.74h-.49l-.184.74h-.772l.513-2.058zm.539.936h.707c.247-.003.433-.087.48-.277.048-.191-.096-.275-.342-.278h-.707l-.138.555zm2.657-.936H24.1c.94 0 1.5.297 1.317 1.029-.182.731-.89 1.029-1.83 1.029H22.39l.513-2.058zm.367 1.624h.442c.577 0 .85-.263.933-.595.083-.333-.06-.596-.64-.596h-.438l-.297 1.191zm2.441.434.513-2.058h2.273l-.1.399h-1.5l-.094.375h1.4l-.099.4h-1.4l-.122.485h1.63l-.099.399h-2.402zm4.088-1.107-.782-.951h.936l.407.627.716-.627H32l-1.252.95.908 1.108h-.945l-.52-.77-.924.77h-.933l1.465-1.107z" fill="#135091"/></svg>