<svg height="36" viewBox="0 0 36 36" width="36" xmlns="http://www.w3.org/2000/svg"><mask id="a" fill="#fff"><path d="M0 0h9.97v1.492H0z" fill-rule="evenodd"/></mask><g fill="none" fill-rule="evenodd"><path d="M18 0c2.837 0 5.52.656 7.907 1.825C31.884 4.753 36 10.895 36 18c0 9.942-8.058 18-18 18-9.94 0-18-8.057-18-18C0 8.06 8.06 0 18 0z" fill="#f2f4f7" fill-rule="nonzero"/><path d="M16.465 18.807c.112 0 .36-.001.575-.1.214-.097.396-.28.398-.672-.002-.55-.409-.681-.913-.687H14.95v1.459zm1.041 1.923-.013-.012c-.09-.098-.095-.315-.115-.866-.008-.308-.062-.491-.186-.6-.125-.108-.34-.153-.692-.153h-1.55v1.63h-.322v-3.673h1.877c.348 0 .658.048.888.199.23.152.368.409.367.795a.935.935 0 0 1-.612.885c.355.105.55.4.552.755.01.652.032.86.095.972l.036.068zm-6.23 0v-3.674h2.921v.292h-2.599v1.334h2.493v.292h-2.493v1.464h2.63v.292zm-.97 0-2.618-3.192v3.192h-.322v-3.674h.358l2.617 3.192v-3.192h.323v3.674zm-6.293 0v-3.674h2.922v.292H4.336v1.334H6.83v.292H4.336v1.464h2.63v.292z" fill="#000"/><path d="m6.939 15.766-2.617-3.191v3.19H4v-3.672h.358l2.617 3.19v-3.19h.322v3.673zm.97 0v-3.673h2.922v.29h-2.6v1.335h2.494v.292H8.231v1.464h2.63v.292zm6.344-3.673h3.308v.29h-1.445v3.383h-.322v-3.382h-1.445v-.29l-1.502 1.805 1.553 1.867h-.424l-1.344-1.62-1.358 1.62h-.41l1.558-1.867-1.503-1.806h.43l1.284 1.554 1.308-1.554z" fill="#7ac143"/><path d="m23.83 20.645-.187-.002h-.089v-1.448l-1.71-2.14h.438l1.433 1.834 1.464-1.833h.407l-1.71 2.139v1.45zm-3.72.165c-.554 0-1.043-.175-1.393-.504-.351-.33-.56-.811-.56-1.414 0-.443.15-.921.472-1.291.32-.37.81-.626 1.48-.626.893-.001 1.567.445 1.746 1.24l.013.056h-.325l-.008-.036c-.145-.636-.721-.966-1.425-.968-1 .002-1.63.744-1.631 1.625.003.88.556 1.624 1.63 1.626.868-.003 1.423-.515 1.497-1.374h-1.437v-.292h1.765l-.002.048c-.015.3-.104.684-.19.928-.28.66-.931.982-1.63.982z" fill="#000"/><path d="M24.179 12.035c-.112-.021-.05-.035-.18-.035-.66 0-1.014.395-1.245.81h-.012v-.713h-.86v3.668h.86v-1.772c0-.851.616-1.107 1.05-1.107.066 0 .309.002.384.01zm2.755 2.246c0 .786-.755.974-1.202.974-.283 0-.67-.088-.67-.558 0-.302.15-.457.779-.537.59-.074.85-.107 1.093-.222zm1 .829c-.07-.017-.167-.017-.167-.211v-1.686c0-.463-.048-1.195-1.72-1.195-.95 0-1.571.288-1.691 1.222h.815c.029-.396.325-.591.876-.591.482 0 .905.101.905.511 0 .275-.127.322-1.323.45-.531.053-1.436.141-1.436 1.121 0 .699.47 1.115 1.303 1.115.936 0 1.34-.316 1.505-.491.023.135.084.457.628.457.135 0 .372-.011.483-.026l.003-.646c-.11-.01-.13-.017-.18-.03zm-9.543-1.536c.14-.733.69-.936 1.08-.936.415 0 .988.217 1.092.936zm3.05.461c0-1.051-.55-2.035-1.982-2.035-1.147 0-1.946.766-1.946 1.967 0 .957.543 1.899 2 1.899 1.233 0 1.672-.793 1.855-1.193h-.915c-.165.298-.41.515-.964.515-.835 0-1.071-.651-1.098-1.017h3.05z" fill="#0096d6"/><path d="M9.288 1.02v.036c0 .175.077.263.235.263.145 0 .218-.102.218-.209 0-.151-.077-.217-.205-.255L9.379.801C9.17.72 9.08.612 9.08.407c0-.262.176-.407.446-.407.367 0 .406.23.406.378v.033h-.229V.38c0-.13-.059-.207-.202-.207-.098 0-.192.055-.192.207 0 .123.062.185.215.244l.155.056c.202.072.291.183.291.38 0 .306-.185.432-.474.432-.356 0-.437-.237-.437-.438V1.02zM8.044.029h.776v.193h-.547V.62h.515v.193h-.515v.458h.563v.193h-.792zm-.261.92v.03c0 .26-.104.513-.442.513-.362 0-.475-.233-.475-.745 0-.513.113-.747.477-.747.408 0 .432.302.432.451v.026h-.229V.453c0-.133-.041-.286-.205-.28-.169 0-.245.105-.245.567 0 .463.076.579.245.579.19 0 .213-.213.213-.346V.949zM6.163.668c.147 0 .229-.088.229-.233 0-.153-.066-.233-.217-.233H5.98v.466zM5.751.029h.507c.2 0 .363.1.363.369 0 .185-.082.328-.239.352v.004c.143.015.218.093.225.294.002.093.005.205.009.292.004.07.038.104.068.124h-.26c-.022-.026-.032-.07-.038-.127-.008-.086-.006-.167-.01-.271C6.372.91 6.324.841 6.167.841H5.98v.623h-.229zm-.968 0v1.029c0 .181.072.261.211.261.136 0 .209-.08.209-.261V.029h.229V1.04c0 .332-.165.452-.438.452-.276 0-.441-.12-.441-.452V.029zm-.745.712c0-.483-.108-.568-.245-.568-.136 0-.245.085-.245.568 0 .494.109.578.245.578.137 0 .245-.084.245-.578zm-.719.006c0-.513.145-.747.474-.747.33 0 .475.234.475.747 0 .512-.145.745-.475.745-.329 0-.474-.233-.474-.745zm-.895.273v.036c0 .175.076.263.236.263.144 0 .216-.102.216-.209 0-.151-.076-.217-.204-.255L2.515.801c-.209-.081-.3-.189-.3-.394 0-.262.177-.407.447-.407.367 0 .406.23.406.378v.033h-.23V.38c0-.13-.058-.207-.201-.207-.098 0-.192.055-.192.207 0 .123.062.185.215.244l.154.056c.203.072.292.183.292.38 0 .306-.185.432-.475.432-.355 0-.436-.237-.436-.438V1.02zM1.18.029h.776v.193h-.547V.62h.515v.193h-.515v.458h.563v.193H1.18zM.413.668C.559.668.642.58.642.435.642.282.575.202.424.202H.229v.466zM0 .029h.507c.201 0 .364.1.364.369 0 .185-.083.328-.24.352v.004c.143.015.218.093.226.294.001.093.004.205.008.292.004.07.038.104.068.124H.674c-.022-.026-.032-.07-.038-.127C.627 1.251.63 1.17.625 1.066.621.91.573.841.416.841H.229v.623H0z" fill="#000" mask="url(#a)" transform="translate(22.03 23.276)"/></g></svg>