<svg width="36" height="36" fill="none" xmlns="http://www.w3.org/2000/svg"><path d="M18 0c2.837 0 5.52.656 7.907 1.825C31.884 4.753 36 10.895 36 18c0 9.942-8.058 18-18 18-9.94 0-18-8.057-18-18C0 8.06 8.06 0 18 0z" fill="#F2F4F7"/><path d="M12.14 19.454c-.195 0-.295-.116-.295-.268.004-.267.012-.531.016-.779h1.881c.088 0 .32 0 .38-.223.071-.264.091-.484.091-.484h-2.348c0-.347-.004-.647-.004-.894h2.536c.088 0 .32 0 .38-.224.072-.264.091-.483.091-.483H10.95s-.044.866-.044 2.356c0 .54 0 .84.012 1.099.012.223.132.663.747.663h2.768c.088 0 .312 0 .38-.224.063-.236.091-.531.091-.531l-2.764-.008z" fill="#042B60"/><path d="M23.169 19.454c-.196 0-.296-.116-.296-.268.004-.267.012-.531.016-.779h1.881c.088 0 .32 0 .38-.223a3.12 3.12 0 0 0 .092-.484h-2.349c0-.347-.004-.647-.004-.894h2.536c.088 0 .32 0 .38-.224.072-.264.092-.483.092-.483h-3.915s-.044.866-.044 2.356c0 .54 0 .84.012 1.099.012.223.132.663.747.663h2.768c.088 0 .312 0 .38-.224.064-.236.092-.531.092-.531l-2.768-.008z" fill="#C18F00"/><path d="M8.661 15.12c-.231.06-.223.291-.223.38v3.363c-.38-.456-1.023-1.219-1.706-1.998a34.707 34.707 0 0 0-1.486-1.597.825.825 0 0 0-.583-.224H4v5.209s.415-.044.707-.12c.232-.06.224-.292.224-.38V16.37c.53.663 1.893 2.3 3.211 3.61.128.129.308.22.575.225h.655V15c-.004 0-.42.044-.71.12z" fill="#042B60"/><path d="M31.349 16.154c-.196.049-.196.232-.196.304v2.668c-.327-.363-.883-.97-1.482-1.597a35.79 35.79 0 0 0-1.258-1.259.722.722 0 0 0-.5-.18h-.642v4.155s.407-.032.659-.1c.195-.048.195-.232.195-.304v-2.688c.484.54 1.626 1.83 2.745 2.872.107.104.263.176.495.18H32v-4.15c.004 0-.4.032-.651.1z" fill="#C18F00"/><path d="M18.264 15.938c-1.338 0-2.425.995-2.425 2.213 0 1.223 1.086 2.213 2.425 2.213 1.338 0 2.424-.994 2.424-2.213 0-1.218-1.086-2.213-2.424-2.213zm0 3.735c-.847 0-1.53-.679-1.53-1.514 0-.834.687-1.514 1.53-1.514.842 0 1.525.675 1.525 1.514 0 .84-.683 1.514-1.525 1.514z" fill="#042B60"/></svg>