<svg height="36" viewBox="0 0 36 36" width="36" xmlns="http://www.w3.org/2000/svg"><mask id="a" fill="#fff"><path d="M0 0h13.27v7.096H0z" fill-rule="evenodd"/></mask><mask id="b" fill="#fff"><path d="M0 0h15.528v17.899H0z" fill-rule="evenodd"/></mask><mask id="c" fill="#fff"><path d="M0 0h3.512v4.118H0z" fill-rule="evenodd"/></mask><g fill="none" fill-rule="evenodd"><path d="M18 0c2.837 0 5.52.656 7.907 1.825C31.884 4.753 36 10.895 36 18c0 9.942-8.058 18-18 18-9.94 0-18-8.057-18-18C0 8.06 8.06 0 18 0z" fill="#f2f4f7" fill-rule="nonzero"/><g fill="#2b5692"><path d="M4.785 1.909c-.535.232-.606.784-.232 1.123.446.392 1.213.053 1.141-.57.606.035.998-.607.91-1.034.267-.233.285-.732-.036-.927C6.21.286 5.89.358 5.676.768c-.552-.036-1.087.392-.891 1.14l-.25-.107c-.338-.73.25-1.461.98-1.283A.9.9 0 0 1 6.819.144c.463.286.57 1.034.07 1.39.232.678-.248 1.248-.962 1.177-.09.891-.91.999-1.462.589a1.429 1.429 0 0 1-.482-.82c-.07-.268-.07-.5-.32-.768-.196-.196-.553-.196-.553-.196 0-.641-.589-1.23-1.337-.944C1.505.34 1.166.322.934.608c-.125.16-.214.588.215.784-.019.588.427.962 1.087.91.018.302.356.605.677.641l-.017.16c-.321-.035-.5.071-.714.34-.766-.037-1.302.32-1.283.873a.563.563 0 0 0-.339.962c.303.303.749.179.91-.178.552.107 1.033-.285 1.051-.73.5 0 .731-.215.82-.679l.178.019c.054.499-.178.98-.784.927-.018.606-.588.927-1.141.73-.25.482-.837.66-1.32.197a.827.827 0 0 1 .322-1.409c0-.588.445-1.14 1.283-.927 0 0 .108-.267.375-.285-.179-.072-.304-.16-.34-.357A.865.865 0 0 1 .882 1.552C.311 1.25.293.68.578.34c.303-.356.802-.428 1.23-.053.767-.41 1.604.107 1.55.963.536-.036.856.41.785.89.09-.213.196-.302.393-.338zm2.193 5.187L6.87 6.99c.303-.286.606-.714.66-.963.035-.25.391-.196.32.054-.089.338-.481.73-.873 1.015zM9.562 1.82a.217.217 0 0 0 .215-.214.206.206 0 0 0-.215-.215.206.206 0 0 0-.213.215c0 .106.089.214.213.214zm3.441.445c.143 0 .268-.107.268-.25 0-.142-.125-.249-.268-.249s-.25.107-.25.25c0 .142.108.25.25.25z" mask="url(#a)" transform="translate(7 7)"/><path d="M9.396 16.004c.054.232 0 .499.214.749.071.088.481.624.784.89-.41.162-1.212.5-1.782.572a.902.902 0 0 0-.357.16 1.76 1.76 0 0 0-.178.588c-.018.178-.018.375-.018.57 0 .18.089.75.285 1.124.197.374.393.552.625.659.053-.017.16-.036.32-.036.428-.017.766.232.927.429.054.089.18.107.321.107.356 0 .749-.126 1.105-.268.09-.053.303-.214.517-.374.232-.179 1.444-1.212 1.979-1.463.285.144.749.34 1.23.34.018 0 .107.018.214-.019.142-.035.339-.089.589-.142.428-.09.927-.16 1.087-.16.393.018 1.551.036 1.836.036s.696-.018.856-.036c.25-.09.803-.232 1.32-.463.516-.232 1.604-1 1.782-1.177a1.45 1.45 0 0 0 .232-.232c.018-.036.036-.053.036-.071l-.018-.767s.267-.285.374-.392v-.036c-.053-.143-.089-.606-.07-1.07l-.25-.124a2.915 2.915 0 0 1-.429 1.39c-.392.053-1.159.285-1.425.606l.16.036c.25-.142.516-.232.838-.232.267 0 .392.071.392.143 0 .053-.054.178-.072.231-.017.036-.036.107-.09.143a4.97 4.97 0 0 1-1.3 1.034c-.338.196-.677.321-1.177.481a3.37 3.37 0 0 0-.499.143c-.196 0-1.194-.035-1.782-.035-.589 0-1.801.089-2.176.177-.178.054-.23.125-.427.125-.375 0-.874-.196-1.177-.338-.053 0-.16.053-.267.107-.214.106-.695.783-.98.57-.143.303-.767.571-.964.873.019-.142.268-1.176.286-1.39 0-.035.018-.07-.018-.107-.214-.375-.856-.606-1.212-.677-.09-.018-.143-.036-.214-.054l-.57-.16-.517.16.605.107-.766.517c.143-.053.963-.285 1.016-.303a.395.395 0 0 1 .25 0c.124.035.428.107.624.178.106.036.285.232.338.34.018.052.018.141.036.356 0 .124-.018.32-.054.463-.089.374-.267.66-.32.767a.42.42 0 0 1-.268.231c-.16.09-.374.126-.588.143-.161 0-.268-.017-.34-.107-.195-.285-.712-.553-1.23-.446-.32-.195-.64-.82-.64-1.319 0-.302.142-.784.23-1.016.518-.071 1.57-.464 2.069-.695.107 0 .41-.107.695-.107.678 0 1.355.588 1.765.998.072-.107.196-.285.553-.285.481 0 .766.445.891.892l.25-.179a1.492 1.492 0 0 0-.375-.749 1.178 1.178 0 0 0-.73-.302c-.161 0-.304.035-.41.035-.34 0-.482-.16-.75-.339-.266-.178-.784-.463-1.158-.463-.232 0-.34.09-.535.09-.285 0-.392-.108-.517-.286-.071-.072-.356-.321-.427-.428-.054-.071-.126-.303-.161-.428zm.75-6.81-.144.178c-.41-.267-1.212-.98-1.39-1.248l.125-.125c.392.197 1.14.874 1.408 1.195zm-.733 1.533.072.142c-.303.304-.873.732-1.194.892l-.107-.143c.285-.32.856-.73 1.23-.89zm3.673-2.852.126.089a4.478 4.478 0 0 1-1.053 1.39l-.142-.125c.267-.427.82-1.14 1.07-1.354z"/><path d="M25.565 11.921c-.07.072-.142.179-.213.268l-.197-.285c.678-.91 2.497-1.337 3.566-1.426v-.482c-.143.035-.286.089-.428.124-.178.037-.357.09-.5.072-.16 0-.284-.053-.338-.142-.142-.197 0-.5.464-.785l-.375-.32c-.285.374-.552.784-.838 1.015-.267.232-.534.339-.748.179-.125-.09-.16-.125-.179-.357.018-.339.214-.855.393-1.194l-.428-.054c-.071.517-.285.945-.518 1.301a3.188 3.188 0 0 1-.998 1.016l-.249-.23c.303-.18.677-.465.927-.857.303-.464.553-1.034.553-1.533l1.247.108a4.299 4.299 0 0 0-.57 1.104c-.053.196-.053.357.018.41.125.09.357-.07.589-.303.32-.356.641-.873.765-1.051l.927.749c-.41.213-.801.462-.73.605.071.126.339.09.624 0 .231-.07.481-.178.677-.303v1.23c-.446 0-1.194.09-1.908.304.178.231.66.32.964.374l-.144.998c-.784-.338-1.39-.516-2.353-.535l.321-.285c.696.018 1.409.232 1.801.428l.053-.374c-.356-.054-.802-.25-.997-.481a3.48 3.48 0 0 0-.857.427zM9.79 16.29c.089.088.16.178.267.266.106.072.232.143.338.215.178.089.375.195.553.267.179.035.393.053.589.053.285 0 .624-.053.908.09.197.07.197.284.357.338.231.089.873.107 1.23.107.713 0 1.48-.09 1.943-.196l-.213-.25c-.321.053-1.249.16-1.677.16-.588 0-1.158-.106-1.158-.338 0-.178.178-.428.535-.428.374 0 .945.232 1.051.268.108.018.143.018.214-.018l.215-.107c-.286-.143-1.301-.481-1.659-.481-.16 0-.267.017-.374.16-.125.178-.5.338-1.07.338-.32 0-.784-.07-.873-.106a4.09 4.09 0 0 1-.73-.428c-.286-.196-.536-.428-.696-.695a.427.427 0 0 1-.09-.25c0-.07.036-.125.036-.178a.834.834 0 0 0 .179.178c.303.304.748.517 1.212.606.143.036.25.053.393.053.195 0 .373-.106.498-.213l-.196-.214c-.053.017-.178.017-.249.017-.678 0-1.533-.427-1.73-.944-.017-.054-.053-.072-.017-.125.017-.054.035-.143.054-.232.035.036.124.107.213.178.25.161.731.375.838.446.232-.071.41-.16.552-.231.143-.072.34-.144.553-.144.5 0 1.07.286 1.605.554l.356-.144c-.48-.338-1.497-.801-2.067-.801-.34 0-.66.25-.892.25-.267 0-1.052-.393-1.052-.714 0-.25.5-.392 1.337-.481a7.724 7.724 0 0 0-.41.642l.214.124c1.284-1.872 2.638-3.083 3.762-3.832.41-.268.499-.429.642-.714.356-.731.694-1.266 1.265-1.266.267 0 .482.143.642.321l.41.125-.427.285.427.179c-.553.16-1.32.712-1.64 1.515-.588.017-.874.517-1.07.91-.142.285-.338.391-.66.587l-2.442 1.712.34.054 2.263-1.516c.445-.303.66-.534.766-.73.197-.428.428-.75.874-.75.214 0 .445.108.642.286l.392.124-.428.268.357.214c-1.034.32-1.676 1.07-2.05 2.496l.267.053c.143-.463.285-.892.517-1.283.606 0 1.212-.019 1.818-.019 1.587 0 2.906.072 3.62.269l-.25-.429c-.767-.142-1.872-.196-3.37-.196-.517 0-1.016.018-1.533.018.339-.339.802-.642 1.533-.855l-.517-.286.571-.32-.785-.286a1.141 1.141 0 0 0-.516-.303c.25-.766 1.105-1.213 1.925-1.515l-.57-.232.57-.321-.891-.285c-.232-.268-.446-.392-.802-.392-.82 0-1.16.712-1.498 1.337-.16.338-.268.48-.57.677a13.193 13.193 0 0 0-2.211 1.854c-.392-.285-1.23-1.141-1.444-1.605-.09.108-.179.358-.179.358.09.088 1.053 1.051 1.409 1.479-.018.018-.054.053-.072.089-.392.072-1.39.178-1.729.124l-.178.34c.25-.019 1.23-.143 1.658-.161-.125.142-.25.302-.374.463-1.284.143-2.121.41-2.121.874 0 .07.017.16.017.25 0 .195-.071.267-.214.356-.089.053-.089.107-.053.16.035.054.231.34.231.393 0 .106-.089.196-.16.285-.071.071-.071.089-.018.179l.374.783z"/><path d="m11.446 15.255-.16-.106c.09-.072.267-.197.446-.268a.772.772 0 0 1 .267-.053.9.9 0 0 1 .48.16c.233.124.5.267.714.267.071 0 .142-.017.232-.017.214 0 .41.089.517.089.071 0 .107-.054.16-.126a.936.936 0 0 1 .464-.356c.196-.089.463-.125.73-.125.232 0 .428.036.536.054 0 0-.161.196-.197.25-.23 0-.64-.018-.909.088-.178.072-.232.179-.232.304 0 .195.232.285.464.356.16.036.321.054.446.054.179 0 .499-.072.82-.143a7.15 7.15 0 0 0 .856-.214l.143.25c-.429.142-.874.285-1.284.357a2.954 2.954 0 0 1-.642.088c-.339 0-.695-.142-.98-.284-.25-.108-.464-.232-.678-.232-.214 0-.428.07-.624.196-.107.053-.41.267-.678.374-.214.072-.374.125-.588.125-.178 0-.303-.036-.392-.107l.321-.196a.33.33 0 0 0 .16.053c.054 0 .107-.017.232-.07.07-.019.178-.09.25-.126.124-.09.16-.143.213-.178.108-.071.143-.178.018-.285-.071-.054-.124-.107-.196-.16-.124-.073-.196-.125-.41-.125-.232-.001-.41.052-.499.106zm10.376-.16.285-.642a11.38 11.38 0 0 1-.944-1.283l-.25-.429c-.588-1.104-.375-1.64-.678-2.139-.267-.392-1.515-.142-1.711-.107l.356-.588-.713.053.606-.712c.072-.108.089-.179.16-.429.108-.391.429-1.033 1.392-1.033 1.051 0 1.39.855 1.835 1.23.63.507 1.237 1.042 1.82 1.604l.248.232c.331.33.641.681.928 1.052l.196.285c1.284 1.854 2.852 5.402 3.565 7.024.054.16.107.32.16.445a20.788 20.788 0 0 1-1.55-.962l-.303-.214-.588-.428-.321-.267a7.009 7.009 0 0 1-.571-.464l.642 3.69c.035.232.231.197.374 0 .143-.195.214-.249.143-.499l-.59-2.727.322.267.57 2.3c.054.214.143.286.392.286.25.017.286-.072.25-.232l-.623-1.926.303.214.589 1.73c.16.445 0 .498-.269.498-.249 0-.499-.07-.641.018-.142.107-.32.357-.553.57-.178.197-.463.161-.517-.213l-.713-4.261c-.446-.41-.891-.838-1.283-1.283-.16-.072-.357-.16-.535-.232l-.25-.125c-.107-.054-.178-.071-.196-.09-.196.233-.393.5-.606.678-.107.107-.197.16-.357.16-.053 0-.124 0-.178-.035-.072-.035-.124-.107-.196-.214-.054-.071-.125-.178-.196-.285-.143-.232-.285-.535-.428-.767-.143-.267-.285-.463-.303-.498a.298.298 0 0 0-.089-.107c-.089.107-.143.338-.143.48l-.25-.089c.019-.178.09-.41.143-.516 0-.09-.107-.215-.196-.215-.125 0-.25.125-.303.375l-.267.125c.017-.41.16-.856.57-.856.32 0 .535.25.678.481.16.232.677.927.784 1.07l.196.25c.036.16.107.25.142.303.072.106.143.106.25 0 .054-.037.196-.161.356-.322.126-.125.25-.303.303-.374.143.054.428.196.642.286-.945-1.177-1.872-2.604-2.264-3.566-.16-.41.161-.535.303-.143.428 1.07 1.658 2.977 2.567 3.975 1.034 1.142 2.942 2.817 4.19 3.477-.179-.357-.41-.856-.696-1.444-1.515-.856-3.03-2.425-3.744-3.78l.304.036c.66 1.177 2.246 2.746 3.191 3.191-.856-1.818-1.98-4.118-2.835-5.098-1.087-1.23-2.263-2.193-2.834-2.675-.553-.499-.785-1.104-1.57-1.104-.658 0-1.016.48-1.14.944-.036.108-.053.16-.107.25l-.32.374.677-.071-.392.535s1.05-.232 1.425.267c.393.534.144 1.14.803 2.335.285.518.98 1.445 1.212 1.659l-.464.944z"/><path d="M17.882 15.79s-.054-.214-.09-.303c0 0 .073-.018.16-.018.126 0 .483.035.625.035.535 0 .731-.16.891-.302.143-.125.286-.232.642-.232.321 0 .696.124.803.178l-.018.304a1.231 1.231 0 0 0-.57-.143c-.126 0-.25 0-.34.053-.089.053-.16.125-.249.196-.09.072-.214.143-.392.214-.161.071-.375.107-.696.107-.41 0-.642-.071-.766-.09m-2.193 1.177-.374-.178c.517-.25 1.301-.516 1.64-.57.32-.054.695-.09.91-.16.106.25.302.498.57.498.106 0 .267-.07.445-.142.196-.09.375-.179.481-.214.107-.054.446-.196.75-.34a6.36 6.36 0 0 1 .427-.195l.196.107c-.053.25-.16.57-.267.802-.036.09-.089.16-.125.214a3.03 3.03 0 0 1-.41.356 7.786 7.786 0 0 1-.696.429c-.195.106-.391.231-.605.32l-.09-.196c.315-.185.618-.388.91-.606.12-.085.233-.182.338-.285a.57.57 0 0 0 .143-.16c.089-.107.232-.357.267-.464-.124.053-.553.267-.748.357-.232.124-.59.303-.803.41a.931.931 0 0 1-.392.106c-.231 0-.339-.16-.391-.266-.144-.25-.286-.268-.696-.268-.464-.018-1.105.178-1.48.445m.286-1.586s-.197-.054-.25-.054c.124-.178.302-.32.428-.41.267-.178.534-.284.962-.303a3.71 3.71 0 0 1 .463-.036c.126.018.321.018.5.054.125.018.25.053.357.072.053.018.267.018.338 0 .303-.054.66-.161.838-.268l.071.286c-.392.213-.837.41-1.266.41-.196 0-.428-.018-.641-.037-.357-.035-.678-.089-.785-.089-.303 0-.73.143-1.015.375"/><path d="M12.658 15.386c.035-.446.427-.785.89-.785.482 0 .874.34.91.785zm2.87.427c0-1.016-.606-2.032-1.98-2.032-1.265 0-1.96.998-1.96 2.032 0 1.105.749 2.086 1.979 2.086.838 0 1.658-.428 1.818-1.159.018-.089-.054-.232-.178-.232H14.6a.286.286 0 0 0-.249.142c-.178.25-.428.376-.802.376-.517 0-.873-.41-.909-.874h2.549c.232 0 .339-.125.339-.339zM1.07 15.386c.035-.446.427-.785.891-.785.482 0 .874.34.927.785zm2.87.427c0-1.016-.606-2.032-1.979-2.032C.695 13.781 0 14.78 0 15.813c0 1.105.748 2.086 1.98 2.086.837 0 1.657-.428 1.817-1.159.018-.089-.053-.232-.178-.232h-.606a.285.285 0 0 0-.25.142c-.178.25-.428.376-.784.376-.535 0-.892-.41-.927-.874H3.6c.232 0 .34-.125.34-.339zm5.348 2.015c-.784 0-1.265-.589-1.265-1.248v-1.908H7.79a.23.23 0 0 1-.214-.214v-.321c0-.124.106-.213.214-.213h.232v-1.177a.3.3 0 0 1 .303-.303h.445c.16 0 .286.142.286.303v1.177h.694c.126 0 .215.089.215.213v.32c0 .108-.09.215-.215.215h-.694v1.766c0 .338.213.588.588.588h.071c.124 0 .232.088.232.232v.339a.236.236 0 0 1-.232.23zm2.55-4.939v.214c0 .107.07.179.178.179h3.138a.274.274 0 0 0 .266-.268v-.374c0-.143-.124-.285-.266-.267 0 0-3.031.302-3.138.32-.108 0-.178.09-.178.196zm-.571-.142c0-.16-.142-.303-.32-.303H10.5c-.179 0-.322.143-.322.303l.018 4.778a.3.3 0 0 0 .304.303h.446c.178 0 .32-.143.32-.303zM3.19.428a.23.23 0 0 0 .214-.214A.218.218 0 0 0 3.191 0a.206.206 0 0 0-.214.214c0 .108.09.214.214.214zm-1.622 6.49.25-.108c.214.09.553.196.784.196.142 0 .25-.053.339-.089.07-.035.909-.445 1.319-.588a.952.952 0 0 1 .32-.072c.108 0 .108.037.143.09.072.125.695.999.749 1.051.517-.16 1.052-.392 1.354-.677.322-.303.59-.66.857-.945a1.32 1.32 0 0 1 .267-.231c.267-.143 1.106-.161 1.444-.143l-.197.285c-.623 0-.962.072-1.122.179-.054.053-.161.16-.25.285-.214.267-.445.642-.535.713.178.124.375.232.696.232.517 0 .891-.321 1.088-.5l.178.09c-.127.18-.284.337-.464.463-.214.142-.482.25-.623.286-.304-.054-.963-.197-1.124-.214-.57.231-1.515.605-1.818.694a.642.642 0 0 1-.215.036 7.63 7.63 0 0 1-.909 0c-.214 0-.427 0-.534-.017l-.286-.286c.25.054.34.054.571.054.535 0 .89-.09.998-.107.107-.036.125-.09.09-.179a1.498 1.498 0 0 0-.25-.41 2.675 2.675 0 0 0-.268-.231c-.07-.054-.142-.071-.356 0-.179.053-.767.374-1.017.516a.591.591 0 0 1-.445.036c-.25-.053-.82-.267-1.034-.41z" mask="url(#b)" transform="translate(12.89 11.101)"/><path d="M20.057 23.598H11.82a.338.338 0 0 0-.338.34l.017 3.244-1.853-3.37a.613.613 0 0 0-.535-.303h-.678a.339.339 0 0 0-.338.339v4.742c0 .196.142.339.338.339h.428a.328.328 0 0 0 .338-.34l-.017-3.315s1.783 3.227 1.872 3.352a.551.551 0 0 0 .516.303h.625a.328.328 0 0 0 .338-.34v-4.188h7.524a.236.236 0 0 0 .23-.232v-.339a.235.235 0 0 0-.23-.232"/><path d="M1.747.785c.357 0 .625.123.731.356.036.106.125.124.25.124h.498c.072 0 .18-.07.18-.178C3.405.517 2.71 0 1.746 0 .75 0 .09.481.09 1.23c0 .588.464.927 1.016 1.087.268.054.713.16.928.232.213.054.427.125.427.321 0 .321-.32.41-.695.41-.339 0-.677-.143-.767-.393-.053-.142-.16-.16-.303-.16h-.5c-.089 0-.196.09-.196.197v.07c0 .553.75 1.124 1.783 1.124.713 0 1.729-.303 1.729-1.266 0-.57-.374-.963-.998-1.123-.232-.053-.802-.214-.928-.232-.231-.071-.445-.142-.445-.32 0-.304.268-.392.606-.392" mask="url(#c)" transform="translate(16.972 24.882)"/></g></g></svg>