<svg height="36" viewBox="0 0 36 36" width="36" xmlns="http://www.w3.org/2000/svg"><mask id="a" fill="#fff"><path d="M0 0h28v4.66H0z" fill-rule="evenodd"/></mask><g fill="none" fill-rule="evenodd"><path d="M18 0c2.837 0 5.52.656 7.907 1.825C31.884 4.753 36 10.895 36 18c0 9.942-8.058 18-18 18-9.94 0-18-8.057-18-18C0 8.06 8.06 0 18 0z" fill="#f2f4f7" fill-rule="nonzero"/><path d="M.102 0h3.83c.749 0 1.353.607 1.356 1.355v2.776c0 .292-.237.528-.53.528s-.531-.235-.528-.527V1.48a.495.495 0 0 0-.494-.493H1.159a.098.098 0 0 0-.1.101v3.043a.53.53 0 0 1-1.06.001V.101C-.001.045.047 0 .103 0zM6.88 2.871a.1.1 0 0 1 .102-.101h2.75a.459.459 0 0 0 0-.916H6.98a.1.1 0 0 1-.101-.101V1.48c0-.272.219-.493.494-.493h3.237a.493.493 0 0 0 0-.987H7.178a1.357 1.357 0 0 0-1.355 1.355v1.914c0 .749.606 1.352 1.355 1.355h3.433a.493.493 0 1 0 0-.986H7.374a.493.493 0 0 1-.494-.494zm12.36 1.261a.53.53 0 0 0 1.058-.001V1.088a.1.1 0 0 1 .1-.101h1.67a.493.493 0 0 0 0-.987h-4.59a.493.493 0 1 0 0 .987h1.66a.1.1 0 0 1 .102.101zm-3.562-.741a.13.13 0 0 1 .083.119c0 .07-.057.127-.128.127l-3.535.001a.493.493 0 1 0 0 .986h3.59a1.106 1.106 0 0 0 .382-2.142l-3.538-1.249a.125.125 0 0 1-.085-.119c0-.071.053-.127.126-.127h3.53a.494.494 0 0 0 0-.987h-3.59a1.103 1.103 0 0 0-.418 2.125zm8.099-.52a.1.1 0 0 1 .1-.101h2.752a.459.459 0 0 0 0-.916h-2.751a.1.1 0 0 1-.101-.101V1.48c0-.273.219-.493.493-.493h3.237a.493.493 0 1 0 0-.987h-3.433a1.357 1.357 0 0 0-1.355 1.355v1.914c0 .749.607 1.352 1.355 1.355h3.433a.495.495 0 0 0 0-.987H24.27a.492.492 0 0 1-.493-.493z" fill="#017" mask="url(#a)" transform="translate(4 16)"/></g></svg>