<svg height="36" viewBox="0 0 36 36" width="36" xmlns="http://www.w3.org/2000/svg"><mask id="a" fill="#fff"><path d="M0 0h28v3.948H0z" fill-rule="evenodd"/></mask><g fill="none" fill-rule="evenodd"><path d="M18 0c2.837 0 5.52.656 7.907 1.825C31.884 4.753 36 10.895 36 18c0 9.942-8.058 18-18 18-9.94 0-18-8.057-18-18C0 8.06 8.06 0 18 0z" fill="#f2f4f7" fill-rule="nonzero"/><path d="M26.758 2.536 26.054.685h-.613l1.039 2.498c-.095.212-.194.283-.355.283a.69.69 0 0 1-.335-.095l-.194.426c.181.101.384.153.591.151.401 0 .623-.189.821-.699L28 .684h-.595zm-3.782.642h.572V1.771c0-.387.231-.619.561-.619.34 0 .534.222.534.609v1.417h.571V1.587c0-.576-.325-.954-.888-.954-.386 0-.618.203-.778.434V.685h-.572zm-1.81-.364c-.273 0-.486-.136-.486-.378v-.009c0-.26.217-.415.585-.415.227 0 .421.042.567.099v.17c0 .316-.288.533-.666.533zm-.16.416c.382 0 .642-.161.812-.363v.311h.557V1.7c0-.326-.085-.59-.269-.77-.175-.179-.453-.278-.827-.278-.396 0-.665.08-.939.203l.151.448c.226-.094.434-.156.713-.156.402 0 .618.189.618.544v.061a2.085 2.085 0 0 0-.67-.104c-.609 0-1.029.264-1.029.803v.009c0 .501.415.77.883.77zm-2.492-.496c-.386 0-.727-.321-.727-.798v-.009c0-.477.341-.798.727-.798.388 0 .714.316.714.798v.009c0 .491-.322.798-.714.798zM17.23 3.933h.571V2.791c.175.231.435.439.851.439.59 0 1.156-.467 1.156-1.294v-.009c0-.831-.571-1.294-1.156-1.294-.407 0-.666.207-.851.467V.685h-.571zm-4.408-.755h.572V1.771c0-.383.217-.619.533-.619.317 0 .506.217.506.605v1.421h.571V1.771c0-.402.222-.619.534-.619.321 0 .505.213.505.609v1.417h.571V1.587c0-.61-.33-.954-.873-.954-.378 0-.642.174-.841.439-.132-.265-.387-.439-.746-.439-.382 0-.6.207-.76.429V.685h-.572zm-1.807-.444c-.444 0-.76-.364-.76-.798v-.009c0-.435.293-.793.751-.793.448 0 .765.363.765.802v.01c0 .429-.293.788-.756.788zm-.009.5c.77 0 1.336-.59 1.336-1.298v-.009c0-.713-.562-1.294-1.327-1.294s-1.332.59-1.332 1.303v.01c0 .708.562 1.288 1.323 1.288zm-2.554 0c.486 0 .774-.193 1.02-.467l-.344-.34c-.181.184-.378.307-.648.307-.439 0-.746-.354-.746-.798v-.009c0-.435.307-.793.723-.793.283 0 .467.127.642.311l.359-.383C9.222.807 8.929.633 8.461.633c-.75 0-1.298.595-1.298 1.303v.01c0 .708.548 1.288 1.289 1.288zm-2.065-.013a.997.997 0 0 0 .516-.128v-.468a.756.756 0 0 1-.355.085c-.193 0-.307-.089-.307-.311V1.176h.67V.684h-.67V0H5.67v.685h-.316v.491h.316v1.313c0 .547.297.732.717.732zM3.269 1.757c.052-.388.298-.657.647-.657.378 0 .595.288.633.657zm.713 1.477c.458 0 .784-.184 1.02-.467l-.335-.297c-.199.193-.397.297-.676.297-.368 0-.656-.227-.717-.632h1.832c.005-.057.009-.109.009-.161 0-.718-.401-1.341-1.194-1.341-.713 0-1.219.585-1.219 1.298v.01c0 .769.557 1.293 1.28 1.293zM0 3.178h.571V1.771c0-.387.231-.619.562-.619.34 0 .534.222.534.609v1.417h.571V1.587c0-.576-.326-.954-.888-.954-.387 0-.618.203-.779.434V.685H0z" fill="#192341" mask="url(#a)" transform="translate(4 16)"/></g></svg>