<svg width="36" height="36" fill="none" xmlns="http://www.w3.org/2000/svg"><path d="M18 0c2.837 0 5.52.656 7.907 1.825C31.884 4.753 36 10.895 36 18c0 9.942-8.058 18-18 18-9.94 0-18-8.057-18-18C0 8.06 8.06 0 18 0z" fill="#F2F4F7"/><path fill-rule="evenodd" clip-rule="evenodd" d="M9.206 19.421c-.074-.03-.152-.052-.226-.082a4.53 4.53 0 0 1-.741-.386c-.009-.009-.022-.013-.03-.026.017-.048.047-.09.073-.134a2.27 2.27 0 0 0 .26-.685c.013.004.03 0 .044.013.026.009.043.035.06.056.182.195.347.403.469.642a.944.944 0 0 1 .117.472.316.316 0 0 1-.026.13z" fill="#F27139"/><path fill-rule="evenodd" clip-rule="evenodd" d="m8.503 19.941-.182.095-.195.091a.055.055 0 0 1-.052 0c-.06-.026-.125-.047-.19-.073-.117-.044-.226-.1-.338-.152a4.89 4.89 0 0 1-1.088-.72 3.683 3.683 0 0 1-.321-.316c-.017-.022-.04-.039-.056-.056-.018-.013-.018-.03-.005-.048l.17-.243c.012-.021.02-.021.038-.004a4.7 4.7 0 0 0 .3.299c.303.282.632.524.992.724.208.117.42.212.646.295.086.034.177.06.264.09 0 .014.009.014.017.018zm-4.399-2.206a3.29 3.29 0 0 1 .173-.516.052.052 0 0 1 .022-.021 4.826 4.826 0 0 1 1.231-.642c.126-.043.251-.073.381-.104.026-.004.04 0 .052.026.04.091.083.182.126.269.009.022.009.03-.017.039-.325.07-.642.178-.945.312-.356.16-.685.368-.993.611-.004.009-.017.018-.03.026z" fill="#254060"/><path fill-rule="evenodd" clip-rule="evenodd" d="M4.095 19.425c.057-.047.117-.1.178-.147.19-.152.394-.282.607-.399.048-.026.09-.056.143-.073.113.212.247.416.412.593.039.04.082.07.117.117a.196.196 0 0 1-.044.061c-.06.004-.117.022-.177.035a2.49 2.49 0 0 1-.694.048.899.899 0 0 1-.442-.14.513.513 0 0 1-.1-.095z" fill="#F27139"/><path fill-rule="evenodd" clip-rule="evenodd" d="M8.152 15.898c.044.039.078.078.113.112.087.091.16.19.234.295.009.013.013.03.017.048.013.195.018.39.013.585a4.066 4.066 0 0 1-.151 1.014c-.013.043-.03.082-.04.126-.004.021-.017.021-.034.021l-.182-.013c-.048-.004-.095 0-.139-.013-.013-.004-.017-.008-.013-.017.03-.07.035-.143.06-.212.044-.13.07-.265.096-.404.057-.316.083-.632.078-.953a4.104 4.104 0 0 0-.026-.399c-.013-.065-.017-.126-.026-.19zm-2.345.242a.293.293 0 0 0 .052.104c0 .009-.004.013-.013.013-.45.07-.85.256-1.23.49l-.105.065c0-.017.01-.026.018-.035a2.136 2.136 0 0 1 1.152-.85c.022-.008.031 0 .035.018l.091.195zm2.783 1.98c-.013-.012-.03-.008-.043-.012.039-.126.086-.252.112-.382.018-.086.03-.173.044-.26a3.963 3.963 0 0 0 .035-.707v-.03c.025.044.038.079.051.113.04.082.07.174.087.26.07.308.091.62.022.932-.005.013-.005.026-.009.044-.013.06-.013.06-.078.056-.065-.005-.126-.013-.19-.018-.01 0-.022.005-.03.005zm-3.077 1.457a.196.196 0 0 0 .043-.06c.035.026.056.06.082.09.226.256.49.46.785.633.07.044.143.083.217.13-.052-.008-.104-.012-.152-.021a2.145 2.145 0 0 1-1.075-.525c-.039-.034-.039-.034-.009-.082.03-.06.07-.113.109-.165zM4 18.342c.013-.03.009-.061.013-.091a.165.165 0 0 0 .004-.065c-.004-.052.022-.078.061-.109a5.328 5.328 0 0 1 1.001-.659c.36-.182.741-.312 1.136-.398.017-.005.026 0 .03.017.044.091.083.182.13.273.009.022.005.026-.017.03a4.985 4.985 0 0 0-2.328 1.196c-.008.01-.013.022-.03.018v-.212z" fill="#254060"/><path fill-rule="evenodd" clip-rule="evenodd" d="M6.64 15c.052.004.095.026.143.039.108.035.212.078.32.126.018.008.03.017.03.039.022.134.04.273.057.407.026.212.04.43.04.646.003.221-.01.446-.036.667a4.974 4.974 0 0 1-.125.703 6.943 6.943 0 0 1-.087.32c-.004.018-.004.026.013.04.165.147.338.29.507.433.1.078.2.156.3.23.082.06.168.12.255.182.052.034.1.069.152.1.004.012.017.017.03.025a4.552 4.552 0 0 0 .741.386c.074.03.152.052.226.082a2.88 2.88 0 0 1-.278.239c-.004.004-.008.004-.008.004-.074.091-.152.056-.239.022-.082-.035-.165-.065-.247-.096-.07-.026-.134-.06-.204-.09-.16-.074-.316-.157-.476-.239-.091-.048-.17-.108-.26-.16-.104-.061-.2-.135-.3-.204-.047-.03-.086-.078-.134-.113a5.35 5.35 0 0 1-.585-.546c-.013-.013-.022-.017-.04-.013-.48.16-.953.343-1.403.572-.005 0-.005.005-.01.005-.051.017-.094.047-.142.073a4.304 4.304 0 0 0-.785.546 2.864 2.864 0 0 1-.078-.42c-.004-.017.005-.03.018-.043A5.885 5.885 0 0 1 5.63 17.96c.277-.117.563-.208.858-.277.026-.004.039-.013.043-.043a9.635 9.635 0 0 0 .187-1.526c0-.009.004-.017.004-.026a4.733 4.733 0 0 0-.026-.785A1.783 1.783 0 0 0 6.64 15z" fill="#254060"/><path fill-rule="evenodd" clip-rule="evenodd" d="M7.684 20.279c-.182.048-.36.078-.542.095-.013 0-.026 0-.043-.008a4.65 4.65 0 0 1-1.162-.755 3.315 3.315 0 0 1-.247-.247c-.017-.021-.017-.038-.004-.056.06-.082.117-.165.178-.247.013-.022.021-.017.034-.004a5.251 5.251 0 0 0 .81.702c.291.204.603.364.933.498.013.009.026.013.043.022zm-.217-4.919a3.883 3.883 0 0 1 .352.238c.013.009.013.022.017.035l.039.308a5.354 5.354 0 0 1-.065 1.5c-.017.09-.04.177-.056.268-.022.104-.061.204-.096.308-.004.013-.013.017-.026.017l-.204-.013c-.034 0-.069-.009-.104-.013-.026-.004-.017-.021-.013-.034.018-.044.03-.091.044-.14.026-.086.043-.177.07-.264.047-.182.077-.364.099-.55.009-.065.013-.13.017-.195a4.62 4.62 0 0 0 .009-.815 6.085 6.085 0 0 0-.087-.629c.004-.008.004-.013.004-.021z" fill="#254060"/><path fill-rule="evenodd" clip-rule="evenodd" d="M6.644 15c.03.1.043.2.056.303.03.26.03.52.026.78 0 .01-.004.018-.004.027a2.379 2.379 0 0 0-.863.13c-.026-.03-.039-.07-.052-.104.083-.282.191-.55.365-.794a.857.857 0 0 1 .372-.316.335.335 0 0 1 .1-.026z" fill="#F27139"/><path d="m15.954 17.63.65-.948h-.68l-.308.463.338.486z" fill="#F27139"/><path d="M11.477 16.682h.533v2.21h-.503l-1.005-1.322v1.322h-.538v-2.21h.507l1.006 1.33v-1.33zm.966 0h1.747v.46h-1.17v.41h1.057v.46l-1.057.005v.416h1.2v.46h-1.777v-2.211zm4.227 2.21-1.145-1.608-.429-.602h-.672l.733 1.083-.785 1.127h.676l.455-.676.477.676h.69zm.038-2.21h1.899v.476h-.663v1.734h-.577v-1.734h-.659v-.476z" fill="#254060"/><path d="M20.267 18.51a.77.77 0 0 0 .295-.294.826.826 0 0 0 .108-.425.83.83 0 0 0-.416-.724.827.827 0 0 0-.425-.108h-.59v1.66h.603c.16 0 .3-.035.425-.108zm.156-1.681c.173.095.308.23.407.394.1.17.148.356.148.564a1.075 1.075 0 0 1-.564.958 1.193 1.193 0 0 1-.585.143h-.888v-2.21h.901c.213.004.408.056.58.15zm.988-.147h1.534v.277h-1.23v.68h1.1v.274h-1.1v.706h1.27v.273H21.41v-2.21zm3.368.325a.857.857 0 0 0-.771.04.807.807 0 0 0-.308.307.857.857 0 0 0 0 .854c.073.13.177.234.307.307.13.074.273.113.43.113a.919.919 0 0 0 .637-.264l.182.199a1.244 1.244 0 0 1-.39.256 1.158 1.158 0 0 1-1.023-.061 1.093 1.093 0 0 1-.412-.407 1.13 1.13 0 0 1-.152-.573 1.113 1.113 0 0 1 .568-.975 1.221 1.221 0 0 1 1.032-.06c.143.056.268.138.372.242l-.182.217a1.005 1.005 0 0 0-.29-.195zm1.253 1.075h.927l-.468-1.075-.46 1.075zm1.278.81-.234-.537H25.91l-.23.537h-.32l.98-2.21h.316l.98 2.21h-.326zm1.972-.382a.77.77 0 0 0 .295-.294.826.826 0 0 0 .108-.425.805.805 0 0 0-.412-.724.827.827 0 0 0-.424-.108h-.59v1.66h.603a.81.81 0 0 0 .42-.108zm.156-1.681c.174.095.308.23.408.394.1.17.147.356.147.564a1.075 1.075 0 0 1-.563.958 1.193 1.193 0 0 1-.585.143h-.889v-2.21h.902c.216.004.407.056.58.15zm.993-.147h1.534v.277h-1.23v.68h1.1v.274h-1.1v.706H32v.273h-1.569v-2.21z" fill="#F27139"/></svg>