<svg height="36" viewBox="0 0 36 36" width="36" xmlns="http://www.w3.org/2000/svg"><mask id="a" fill="#fff"><path d="M0 5.734h28V0H0z" fill-rule="evenodd"/></mask><g fill="none" fill-rule="evenodd"><path d="M18 0c2.837 0 5.52.656 7.907 1.825C31.884 4.753 36 10.895 36 18c0 9.942-8.058 18-18 18-9.94 0-18-8.057-18-18C0 8.06 8.06 0 18 0z" fill="#f2f4f7" fill-rule="nonzero"/><g fill="#0066a5"><path d="M4 19.569v-2.88h.438v.409c.211-.314.517-.47.916-.47a1.2 1.2 0 0 1 .477.093.744.744 0 0 1 .326.245.958.958 0 0 1 .152.36c.018.09.027.249.027.474v1.769h-.488v-1.75c0-.2-.019-.347-.057-.446a.474.474 0 0 0-.201-.236.65.65 0 0 0-.34-.088.785.785 0 0 0-.536.198c-.151.132-.226.382-.226.75v1.572zm4.82-1.443c-.177.072-.443.133-.798.183a1.872 1.872 0 0 0-.427.097.417.417 0 0 0-.261.388c0 .129.049.237.148.324.098.086.243.129.433.129.188 0 .355-.041.502-.123a.749.749 0 0 0 .322-.335c.053-.11.08-.271.08-.485zm.04 1.082a1.858 1.858 0 0 1-.523.327 1.524 1.524 0 0 1-.54.094c-.316 0-.56-.076-.73-.231a.757.757 0 0 1-.255-.59c0-.14.032-.269.097-.385.064-.116.148-.21.252-.28s.222-.123.352-.16a3.69 3.69 0 0 1 .434-.072c.395-.047.685-.103.872-.168 0-.067.002-.109.002-.127 0-.198-.046-.338-.14-.419-.124-.11-.31-.164-.555-.164-.231 0-.4.04-.51.121-.11.08-.191.223-.243.428l-.477-.066c.043-.205.114-.37.214-.496s.244-.223.433-.29c.188-.068.406-.103.654-.103.247 0 .447.03.602.087a.791.791 0 0 1 .339.219.765.765 0 0 1 .152.333c.017.083.025.233.025.448v.648c0 .451.01.738.03.859s.06.237.12.348h-.511a1.092 1.092 0 0 1-.094-.361zm2.157-.075.066.431a1.78 1.78 0 0 1-.367.043c-.177 0-.314-.028-.41-.084s-.166-.13-.206-.222c-.04-.09-.06-.283-.06-.576v-1.659h-.36v-.378h.36v-.712l.49-.293v1.005h.487v.378h-.488v1.687c0 .14.008.23.025.27s.045.07.084.094a.328.328 0 0 0 .166.035c.054 0 .125-.006.213-.019"/><path d="M7.385 4.569h.488v-2.88h-.488zm0-3.418h.488V.596h-.488zM8.826 3.13c0 .368.081.643.242.826s.364.274.608.274a.774.774 0 0 0 .606-.275c.161-.184.242-.465.242-.841 0-.355-.08-.624-.243-.807a.777.777 0 0 0-.605-.274c-.244 0-.447.091-.608.273s-.242.456-.242.824m-.5-.001c0-.532.148-.926.445-1.182a1.34 1.34 0 0 1 .905-.319c.396 0 .72.129.971.388s.376.616.376 1.072c0 .37-.055.661-.166.873a1.184 1.184 0 0 1-.486.493 1.413 1.413 0 0 1-.695.176c-.403 0-.728-.129-.977-.387-.248-.258-.373-.629-.373-1.114m3.162 1.44v-2.88h.438v.409c.211-.314.517-.47.916-.47.173 0 .332.03.478.093a.756.756 0 0 1 .326.245.957.957 0 0 1 .151.36c.018.09.027.249.027.474v1.769h-.488v-1.75c0-.2-.019-.347-.057-.446a.474.474 0 0 0-.2-.236.65.65 0 0 0-.34-.088c-.208 0-.386.066-.537.198s-.226.382-.226.75V4.57zm4.822-1.443c-.178.072-.445.133-.8.183-.2.029-.344.061-.427.097s-.148.089-.193.157a.417.417 0 0 0-.068.231c0 .129.05.237.148.324.1.086.243.129.433.129.188 0 .355-.041.502-.123a.756.756 0 0 0 .323-.335c.052-.11.08-.271.08-.485zm.038 1.082a1.858 1.858 0 0 1-.523.327 1.524 1.524 0 0 1-.539.094c-.317 0-.56-.076-.73-.231a.76.76 0 0 1-.256-.59c0-.14.032-.269.097-.385.064-.116.148-.21.252-.28s.222-.123.352-.16c.096-.024.241-.049.434-.072.395-.047.685-.103.872-.168l.002-.127c0-.198-.046-.338-.138-.419-.125-.11-.31-.164-.557-.164-.23 0-.4.04-.51.121-.109.08-.19.223-.243.428l-.477-.066c.043-.205.115-.37.215-.496a.926.926 0 0 1 .432-.29 1.92 1.92 0 0 1 .655-.103c.246 0 .447.03.601.087a.791.791 0 0 1 .34.219.777.777 0 0 1 .152.333c.016.083.024.233.024.448v.648c0 .451.01.738.03.859s.06.237.12.348h-.51a1.092 1.092 0 0 1-.095-.361zm1.087.361h.488V.596h-.488zm1.779-1.499c0 .306.06.529.177.67a.546.546 0 0 0 .437.213c.185 0 .342-.073.47-.218s.192-.36.192-.645c0-.298-.06-.52-.184-.663a.581.581 0 0 0-.465-.216c-.182 0-.332.07-.45.212s-.177.357-.177.648m-.683 1.68.871.106c.015.103.048.173.101.212.072.055.186.083.341.083.2 0 .35-.03.448-.09a.366.366 0 0 0 .151-.193c.024-.063.036-.18.036-.35l.003-.42c-.229.313-.517.47-.865.47-.387 0-.694-.164-.92-.49-.177-.258-.266-.58-.266-.965 0-.481.116-.85.35-1.105.231-.254.52-.381.866-.381.357 0 .65.156.882.468v-.407h.71V4.27c0 .34-.028.593-.084.76s-.134.3-.235.397c-.102.096-.237.17-.406.225s-.383.08-.64.08c-.489 0-.835-.083-1.039-.25a.793.793 0 0 1-.307-.64l.003-.091m4.081-.182h-.76v-2.88h.704v.409c.121-.194.231-.32.327-.38a.62.62 0 0 1 .331-.09c.173 0 .341.047.502.143l-.236.664a.668.668 0 0 0-.358-.125.426.426 0 0 0-.27.088c-.075.059-.134.165-.177.318-.042.154-.063.475-.063.964zm1.319 0h.76v-2.88h-.76zm2.039-1.496c0 .309.041.532.126.669a.574.574 0 0 0 .96.075c.122-.15.184-.373.184-.671 0-.331-.06-.571-.179-.717s-.27-.218-.457-.218a.568.568 0 0 0-.453.216c-.12.144-.182.359-.182.646zM28 4.569h-.705v-.423c-.118.165-.257.288-.417.37s-.322.125-.485.125c-.332 0-.615-.133-.852-.401-.237-.266-.355-.64-.355-1.116 0-.49.116-.861.345-1.114.23-.255.521-.382.872-.382.322 0 .601.133.837.4V.597H28zM24.885.575l-.575.575-.576-.575L24.31 0z" mask="url(#a)" transform="translate(4 15)"/></g></g></svg>