<svg height="36" viewBox="0 0 36 36" width="36" xmlns="http://www.w3.org/2000/svg"><mask id="a" fill="#fff"><path d="M0 0h24v8.397H0z" fill-rule="evenodd"/></mask><mask id="b" fill="#fff"><path d="M0 0h12.588v12.589H0z" fill-rule="evenodd"/></mask><g fill="none" fill-rule="evenodd"><path d="M18 0c2.837 0 5.52.656 7.907 1.825C31.884 4.753 36 10.895 36 18c0 9.942-8.058 18-18 18-9.94 0-18-8.057-18-18C0 8.06 8.06 0 18 0z" fill="#f2f4f7" fill-rule="nonzero"/><g fill="#444d55"><path d="M21.401 2.57c.863 0 1.389.696 1.389 1.67 0 1.005-.516 1.661-1.389 1.661-.863 0-1.379-.656-1.379-1.66 0-.975.525-1.67 1.38-1.67zm-8.407 0c.826 0 1.417.696 1.417 1.643 0 .967-.535 1.679-1.425 1.679-.854 0-1.362-.703-1.362-1.641s.508-1.68 1.37-1.68zm-7.3-.787a341.605 341.605 0 0 1 1.859 4.795l-.769 1.82h1.164c.92-2.252 1.773-4.439 2.636-6.615h-1.23c-.403 1.162-.9 2.702-1.2 3.518-.346-.966-.657-1.952-1.2-3.518zm12.799-.123c-.563 0-1.023.282-1.192.78.009-.103.009-.216.009-.329v-.338h-1.08c.01.3.01.582.01.891v4.045h1.145V4.38c0-1.012.16-1.65 1.051-1.65.113 0 .245.008.329.037V1.68c-.066-.01-.15-.02-.272-.02zm2.927-.046c-1.548 0-2.57 1.088-2.57 2.636 0 1.51.965 2.609 2.551 2.609C22.996 6.859 24 5.77 24 4.249c0-1.547-1.023-2.635-2.58-2.635zM14.355 0v1.436c0 .337 0 .628.01.975-.273-.403-.836-.788-1.614-.788-1.409 0-2.298 1.116-2.298 2.608 0 1.538.928 2.59 2.27 2.59.844 0 1.416-.375 1.698-.806v.694H15.5V0zM0 0v6.708h1.19V3.781h2.862v2.927h1.19V0h-1.19v2.73H1.191V0z" mask="url(#a)" transform="translate(6 21.603)"/><path d="M6.294 0H.321a.322.322 0 0 0 0 .644c3.116 0 5.65 2.534 5.65 5.65s-2.534 5.651-5.65 5.651a.322.322 0 0 0 0 .644h5.973a6.301 6.301 0 0 0 6.294-6.295A6.301 6.301 0 0 0 6.294 0m-1.06 11.866a6.3 6.3 0 0 0 3.373-5.572A6.3 6.3 0 0 0 5.235.722a5.66 5.66 0 0 1 4.72 5.572 5.659 5.659 0 0 1-4.72 5.572m1.38-5.572A6.3 6.3 0 0 0 3.247.722a5.659 5.659 0 0 1 4.716 5.572 5.66 5.66 0 0 1-4.716 5.572 6.302 6.302 0 0 0 3.368-5.572m.61 5.572a6.298 6.298 0 0 0 3.372-5.572A6.3 6.3 0 0 0 7.225.722a5.66 5.66 0 0 1 4.72 5.572 5.658 5.658 0 0 1-4.72 5.572" mask="url(#b)" transform="translate(11.706 6)"/></g></g></svg>