<svg width="36" height="36" fill="none" xmlns="http://www.w3.org/2000/svg"><path d="M18 0c2.837 0 5.52.656 7.907 1.825C31.884 4.753 36 10.895 36 18c0 9.942-8.058 18-18 18-9.94 0-18-8.057-18-18C0 8.06 8.06 0 18 0z" fill="#F2F4F7"/><path d="M31.638 17.282c.049 0 .065-.011.065-.055 0-.046-.044-.046-.087-.046h-.094v.1h.116zm-.116.26h-.097v-.44h.211c.038 0 .087 0 .119.02.04.024.052.073.052.118 0 .08-.043.113-.12.123l.106.18h-.11l-.098-.18h-.063v.18zm-.225-.209a.297.297 0 1 0 .298-.297.296.296 0 0 0-.298.297zm-.107 0a.405.405 0 1 1 .81 0 .405.405 0 0 1-.81 0zm-16.663 1.625c-.205.966.28 1.61 1.514 1.61 1.235 0 1.994-.644 2.2-1.61.205-.966-.28-1.61-1.515-1.61-1.234 0-1.994.644-2.2 1.61zm1.511 0c.13-.608.277-.791.514-.791.236 0 .307.182.177.79-.13.61-.277.792-.513.792-.237 0-.308-.183-.178-.791z" fill="#0067A6"/><path d="M21.36 20.475h-1.425l.06-.457h-.012c-.34.435-.727.55-1.071.55-.61 0-.986-.302-.815-1.108l.43-2.02h1.46l-.384 1.8c-.048.223 0 .348.174.348.163 0 .301-.094.363-.339l.404-1.81h1.46l-.645 3.036zm.823-3.037h1.425l-.035.332c.27-.271.49-.368.677-.368a.69.69 0 0 1 .369.085l-.253 1.153c-.185-.077-.327-.139-.573-.14-.278-.002-.434.22-.52.635l-.274 1.34h-1.462l.646-3.037z" fill="#0067A6"/><path d="M26.46 18.693c.07-.384.065-.592-.19-.592-.24 0-.389.128-.555.907-.15.71-.053.818.171.818.236 0 .34-.176.454-.57h1.354c-.198.847-.824 1.318-2.027 1.318-.948 0-1.66-.399-1.4-1.627.224-1.051 1.046-1.594 2.12-1.594 1.18 0 1.56.513 1.427 1.34H26.46z" fill="#0067A6"/><path d="M29.788 19.513c-.088.217-.265.313-.428.313-.289 0-.377-.15-.303-.501l.02-.09h2.088l.044-.206c.232-1.09-.194-1.676-1.341-1.676-1.087 0-1.91.543-2.134 1.597-.26 1.227.453 1.625 1.34 1.625 1.135 0 1.74-.374 1.996-1.062h-1.282zm-.576-.92.01-.043c.062-.295.252-.448.487-.448.229 0 .347.153.283.448l-.008.043h-.772zM14.789 17.33c.198-.996-.54-1.33-1.62-1.33-.119 0-.235.005-.346.014l-1.748.875c-.081.129-.143.27-.186.424l1.587.016a.26.26 0 0 1 .006-.084c.028-.133.174-.254.453-.254.216 0 .346.087.307.339h1.547zm-3.927.09a1.74 1.74 0 0 0-.037.274c.832.41 2.181 1.075 2.802 1.385.228.114.1.056.1.056l-.104-.044-2.798-1.298c.016.37.216.64.695.793l1.15.362c.153.047.262.132.228.295-.041.194-.24.356-.494.356-.164 0-.261-.054-.31-.139a.505.505 0 0 1-.02-.33h-.605a692.288 692.288 0 0 1 1.12 1.437c1.007-.102 1.765-.561 1.963-1.492.111-.526-.047-.918-.547-1.148-.401-.187-.986-.308-1.298-.405-.11-.035-.187-.076-.217-.144l-1.624.024-.004.018zm-.442 1.71c-.125.589.057.96.409 1.181l-.35-1.182h-.06zm.976 0h-.847c.11.404.224.829.326 1.209.322.183.77.251 1.252.251.156 0 .309-.007.456-.022l-.071-.078-1.116-1.36zm-.224-2.377 1.552-.73c-.697.074-1.23.326-1.552.73zm-1.061.392.038-.057.72-.961h-.545l-.194.949-.019.069zm.059.08h.014l.073-.041.589-.277.166-.78h-.053l-.727 1.02-.062.078zm.652-.209-.417.209h.373l.044-.21zm-1.505.209h.31l-.28-.14-.03.14zm.585-.085-.019-.057-.256-.956H9.55l-.096.455.415.51.033.048zm-.129.043.073.042h.005l-.06-.067-.361-.465-.064.299.407.191zm.237.005.02-.135.213-.926h-.534l.273.926.029.135zm.338.271.344.17.037-.17h-.38zm-.428.107c-.008.012-.026.043-.038.057-.173.231-.522.693-.904 1.196l-.355 1.67h.688l.592-2.857.018-.066zm.239.054-.035-.049c.003.011.015.041.02.054.06.228.175.652.307 1.14l.133-.626-.425-.52zm-.139-.086c-.004.018-.01.09-.016.117-.114.502-.428 1.851-.658 2.838h.739l.333-1.57-.374-1.265-.024-.12zm-.218.026.06-.073-.085.043-.582.27-.182.853.789-1.093zm.454-.03-.082-.046c.01.013.049.051.063.07.088.11.217.276.37.473l.065-.304-.416-.194zm-1.038.16.468-.23h-.419l-.049.23zm-.259.22c-.837.388-1.978.915-2.53 1.167-.224.103-.092.04-.092.04l.085-.05 2.559-1.26.086-.405-1.573-.026-.196.92-.127-.925-1.123-.021-.099-.006.103-.007 1.113-.01-.165-1.2H4.927L4 20.487h1.64l.427-2.011.271 2.011h1.353l1.02-1.417.248-1.16zm.304-1.433-.271-.351H7.759l-.02.1 1.434.674.09-.423zm.075-.351h-.255l.202.248.053-.248zm-1.045 4.363h.043v-.001h.075l.272-1.28c-.369.486-.733.966-.973 1.28h.583z" fill="#0067A6"/><path d="m9.155 16.988-1.427-.714-.223 1.05 1.58-.012.07-.324z" fill="#0067A6"/><path d="m10.48 19.13.349 1.18.046.029-.326-1.21h-.07zm2.244-3.107-1.552.73a1.624 1.624 0 0 0-.097.136l1.748-.876a2.458 2.458 0 0 0-.1.01zm-1.858 1.379 1.624-.023a.155.155 0 0 1-.014-.05l-1.587-.016-.023.09zm2.761 1.678c-.62-.31-1.97-.976-2.802-1.386a1.106 1.106 0 0 0 0 .1l2.798 1.297.104.044s.128.058-.1-.056zm-2.157.05h-.074l1.116 1.36.07.078h.006a10.07 10.07 0 0 1-.067-.088l-1.052-1.35zm-1.346-1.558.034.048.426.519.024-.112-.37-.473c-.015-.019-.054-.057-.064-.07l.082.046.416.193.02-.094-.344-.17-.043-.021c-.02-.01-.088-.03-.1-.037l.107.01.427-.007.02-.093-.451-.004-.11.01.104-.04.103-.052.417-.209.024-.109-.589.277-.073.04-.025.015.011-.014.062-.077.727-1.021h-.09l-.72.96-.038.058.02-.07.193-.948h-.081l-.213.926-.02.135-.028-.135-.273-.926h-.081l.255.956.02.057-.034-.049-.415-.51-.024.112.36.465.06.067.006.006-.01-.006-.073-.042-.407-.19-.02.091.281.14.1.05.108.043-.114-.01-.423.003-.02.094.446.006c.022 0 .092-.01.107-.01l-.104.04-.04.02-.469.23-.023.11.582-.27.085-.043-.06.073-.789 1.093-.035.166c.382-.503.73-.965.904-1.196.012-.014.03-.046.039-.057l-.018.067-.592 2.856h.035c.23-.987.544-2.336.658-2.838.007-.027.012-.1.016-.117l.024.12.374 1.266.033-.155-.308-1.14-.02-.053zm-.839-1.197-.202-.249h-.091l.271.351.022-.102zm-.112.525-1.435-.674-.01.048 1.427.714.018-.087zM7.71 20.489l.973-1.28.029-.138L7.69 20.49h.02zm-1.288-1.422-.085.049s-.132.064.093-.039c.55-.252 1.692-.78 2.529-1.167l.022-.104-2.559 1.26zm.743-1.739-1.113.009-.103.007.099.006c.272.006.677.013 1.123.02l-.006-.042zm1.921-.016-1.581.013-.011.051c.546.01 1.12.018 1.573.025l.019-.09z" fill="#fff"/></svg>