<svg height="36" viewBox="0 0 36 36" width="36" xmlns="http://www.w3.org/2000/svg"><mask id="a" fill="#fff"><path d="M0 0h28v1.633H0z" fill-rule="evenodd"/></mask><g fill="none" fill-rule="evenodd"><path d="M18 0c2.837 0 5.52.656 7.907 1.825C31.884 4.753 36 10.895 36 18c0 9.942-8.058 18-18 18-9.94 0-18-8.057-18-18C0 8.06 8.06 0 18 0z" fill="#f2f4f7" fill-rule="nonzero"/><path d="M4.035 21.539H31.89v-8.578H4.035z" fill="#c9322d"/><path d="M4.035 12.436H31.89V12H4.035zm0 10.065H31.89v-.417H4.035z" fill="#000"/><path d="M24.492 20.252v-.236h.653v-5.532h-.653v-.235h5.894l.054 2.104h-.29c-.254-.96-.852-1.868-1.813-1.868h-.526v2.611h.145c.272 0 .889-.272.96-1.178h.29v2.647h-.29c-.071-.943-.688-1.233-.96-1.233h-.145v2.684h.598c.653 0 1.36-.49 1.832-2.049h.272l-.037 2.285zm-3.881-3.247h.363c.345 0 .508-.29.508-.689V15.12c0-.453-.236-.635-.671-.635h-.2zm0 3.011h.29c.672 0 .69-.599.69-.834V18.04c0-.67-.345-.798-.78-.798h-.2zm-3.373.236v-.236h.67v-5.532h-.67v-.235h4.842c.907 0 2.14.308 2.14 1.433 0 1.051-1.161 1.323-2.031 1.341v.182c.199 0 .38.018.562.036.834.073 1.632.49 1.632 1.414 0 1.705-2.05 1.597-3.264 1.597zm-4.552 0v-.236h.67v-5.532h-.67v-.235h4.062v.235h-.671v5.532h.67v.236zm-7.308 0v-.236h.218c.38 0 .489-.417.489-.816v-4.262c-.163-.218-.308-.472-.58-.472h-.127v-.217h3.337l2.393 3.21V14.92c0-.254-.272-.436-.598-.436h-.182v-.235h1.814v.235h-.272c-.453 0-.435.327-.435 1.053v4.715H9.948l-3.555-4.824V19.2c0 .4.09.817.509.817h.29v.235H5.378z" fill="#fff"/><path d="M26.585.726h.145c.327 0 .417-.036.417-.199V.291c0-.109.055-.181-.326-.181h-.236zm-.798.871v-.072h.254V.11h-.254V.038h1.288c.326 0 .671.109.671.38 0 .254-.454.327-.726.345v.018c.454.054.653.181.653.399 0 .199 0 .29.055.326.018.019.09.036.253 0l.019.055a1.423 1.423 0 0 1-.381.072c-.399 0-.544-.127-.544-.489-.018-.272-.073-.345-.345-.345h-.145v.726h.272v.072zm-2.992 0v-.072h.254V.11h-.217V.038h1.795l.018.417h-.127c-.127-.273-.272-.345-.599-.345h-.308v.653c.327 0 .381-.072.453-.29h.109v.671h-.109c-.054-.236-.126-.309-.453-.309v.69h.327c.507 0 .598-.163.689-.436h.09l-.018.508zm-2.122 0v-.072h.236V.11h-.236V.038h1.07V.11h-.272v1.415h.272v.072zM18.297.726h.145c.327 0 .417-.036.417-.199V.291c0-.109.055-.181-.326-.181h-.236zm-.797.871v-.072h.253V.11h-.272V.038h1.306c.326 0 .671.109.671.38 0 .254-.453.327-.726.345v.018c.454.054.654.181.654.399 0 .199 0 .29.054.326.018.019.091.036.254 0l.018.055a1.423 1.423 0 0 1-.381.072c-.399 0-.544-.127-.544-.489-.018-.272-.073-.345-.345-.345h-.145v.726h.272v.072zM14.471.038h1.995l.036.507h-.09c-.109-.29-.218-.471-.671-.435v1.415h.272v.072h-1.088v-.072h.272V.11c-.454-.036-.563.145-.671.435h-.091zm-1.324 0h.109v.417h-.109c-.054-.2-.29-.381-.562-.381-.181 0-.436.072-.436.217s.127.182.291.218c.181.018.453.072.598.109.2.054.363.181.363.453s-.236.562-.78.562a.988.988 0 0 1-.453-.108l-.164.09h-.108v-.453h.108c.091.217.309.398.635.398.363 0 .526-.162.526-.308 0-.2-.309-.217-.635-.272-.308-.072-.634-.163-.634-.508 0-.271.308-.472.689-.472.163 0 .308.038.435.11zm-4.515 0H9.72V.11h-.29v1.125c0 .218.091.326.453.326a.746.746 0 0 0 .472-.146c.072-.072.072-.253.072-.434V.183c0-.036-.054-.073-.145-.073h-.145V.038h.689V.11h-.199c-.073 0-.091.037-.091.073v.979c0 .109-.018.236-.127.327-.127.091-.326.144-.689.144-.544 0-.834-.127-.834-.508V.11h-.254zM6.111 1.525h.308c.291 0 .417-.091.472-.218.036-.055.036-.145.036-.236V.527c0-.181-.036-.236-.054-.29C6.8.147 6.691.11 6.419.11h-.308zM5.567.11h-.254V.038h1.215c.58 0 1.034.362 1.034.761 0 .544-.526.762-.943.781-.109.017-.218.017-.345.017h-.961v-.072h.254zM3.971 1.633h-.073L2.484.237v1.197c0 .072.055.091.127.091h.2v.072h-.726v-.072h.163c.109 0 .109-.055.109-.11V.255c0-.127.036-.145-.163-.145h-.109V.038h.87l.907.924V.164c0-.036-.127-.054-.199-.054h-.109V.038h.707V.11h-.145c-.091 0-.145.018-.145.054zM0 1.597v-.072h.235V.11H0V.038h1.069V.11H.797v1.415h.272v.072z" fill="#000" mask="url(#a)" transform="translate(4 22.935)"/></g></svg>