<svg width="36" height="36" fill="none" xmlns="http://www.w3.org/2000/svg"><path d="M18 0c2.837 0 5.52.656 7.907 1.825C31.884 4.753 36 10.895 36 18c0 9.942-8.058 18-18 18-9.94 0-18-8.057-18-18C0 8.06 8.06 0 18 0z" fill="#F2F4F7"/><path d="M7.68 21.776v-.003l-2.318-4A.438.438 0 0 0 5 17.536h-.276a.724.724 0 0 1-.628-1.085l1.21-2.09a.726.726 0 0 1 1.346.458.723.723 0 0 1-.091.267l-.002.005-.263.456a.331.331 0 0 0 .292.489h5.521a.33.33 0 0 0 .29-.49l-.262-.455v-.004a.725.725 0 0 1 1.252-.727l1.21 2.091a.72.72 0 0 1-.265.989.727.727 0 0 1-.362.097H13.7a.436.436 0 0 0-.362.238l-2.321 4-.003.004a1.914 1.914 0 0 1-3.333 0v-.002zm-.347-4.025a.438.438 0 0 0 0 .437l1.646 2.844a.434.434 0 0 0 .367.219h.003a.435.435 0 0 0 .365-.219l1.647-2.844a.434.434 0 0 0-.379-.653h-3.27a.437.437 0 0 0-.379.217v-.001zm19.553.962V16.06a.573.573 0 0 1 1.146 0v2.654a1.41 1.41 0 0 0 2.822 0V16.06a.573.573 0 0 1 1.146 0v2.654a2.557 2.557 0 0 1-5.114 0zm-6.245 1.978v-2.653a1.41 1.41 0 1 0-2.822 0v2.653a.574.574 0 0 1-1.146 0v-2.653a2.557 2.557 0 0 1 5.114 0v2.653a.573.573 0 0 1-1.146 0zm3.123-.037V16.06a.574.574 0 0 1 1.145 0v4.594a.574.574 0 0 1-1.145 0v.001z" fill="#DF001F"/></svg>