<svg width="36" height="36" fill="none" xmlns="http://www.w3.org/2000/svg"><path d="M18 0c2.837 0 5.52.656 7.907 1.825C31.884 4.753 36 10.895 36 18c0 9.942-8.058 18-18 18-9.94 0-18-8.057-18-18C0 8.06 8.06 0 18 0z" fill="#F2F4F7"/><g fill-rule="evenodd" clip-rule="evenodd"><path d="M7.326 19.009c-.29.289-.675.448-1.084.448a1.526 1.526 0 0 1-1.533-1.529c0-.408.16-.792.449-1.081.29-.289.675-.448 1.084-.448a1.527 1.527 0 0 1 1.532 1.529c0 .408-.16.792-.448 1.081zm-1.084-3.317A2.242 2.242 0 0 0 4 17.928a2.242 2.242 0 0 0 4.483 0 2.242 2.242 0 0 0-2.241-2.236zm2.442-.17h.174v-.174h-.174v.174zm0-.347h.174V15h-.174v.175zm-.492.516h.163v-.17h-.163v.17z" fill="#F3B53B"/><path d="M7.868 16.018h.165v-.163h-.165v.163zm.487-.163h.183v-.164h-.183v.164zm-.65 0h.163v-.156h-.163v.156zm.487.163h.163v-.163h-.163v.163zm.319-.67h.173v-.173H8.51v.172zm-.32.172h.32v-.173h-.32v.173zm-.158.335h.159v-.335h-.16v.335zm0 .327h-.165v-.164h-.273v.118h-.146v.146h.163v.162H7.45v-.162h-.174v.255H7.11v.163H7v.163h-.12a9.4 9.4 0 0 0-.574 1.076c-.367-.51-.652-.713-.877-.786-.122-.037-.268.095-.066.302.462.508.608.928.749 1.264.074.176.408.204.475.024.142-.38.348-.808.593-1.16v-.181h.13v-.164h.138v-.19h.164v-.184h-.166v-.166h.166v.166h.162V16.7h.13v-.2h.146v-.137h.14v-.345h-.158v.164zm8.808 2.287a.563.563 0 0 1-.071.183.384.384 0 0 1-.353.181.419.419 0 0 1-.212-.05.389.389 0 0 1-.136-.13.56.56 0 0 1-.072-.184 1.03 1.03 0 0 1 0-.415.539.539 0 0 1 .072-.183.407.407 0 0 1 .136-.132.409.409 0 0 1 .212-.051.42.42 0 0 1 .214.05.407.407 0 0 1 .139.132.545.545 0 0 1 .071.184 1.045 1.045 0 0 1 0 .415zm.223-.86a.796.796 0 0 0-.28-.18 1.004 1.004 0 0 0-.367-.064.991.991 0 0 0-.365.064.8.8 0 0 0-.277.18.797.797 0 0 0-.179.282c-.042.11-.063.235-.063.371s.021.26.063.37a.783.783 0 0 0 .456.46c.108.04.23.06.365.06.135 0 .259-.02.368-.062a.783.783 0 0 0 .279-.178.799.799 0 0 0 .178-.28c.042-.11.064-.234.064-.37 0-.135-.022-.26-.064-.37a.797.797 0 0 0-.178-.282zm1.923-.055a.45.45 0 0 0-.187-.138.807.807 0 0 0-.309-.051.675.675 0 0 0-.29.067.586.586 0 0 0-.25.213l-.006.008c-.003.005-.006.007-.01.007-.005 0-.007-.002-.007-.007v-.241h-.42v1.697h.444v-.89c0-.18.03-.312.091-.392.063-.081.163-.123.3-.123.12 0 .206.039.255.114a.63.63 0 0 1 .07.33v.96h.444v-1.047c0-.105-.01-.203-.028-.29a.544.544 0 0 0-.097-.217zm-8.216.851-1.043-1.649h-.479v2.358h.44v-1.657l.035.054 1.005 1.603h.482v-2.358h-.44v1.65zm1.95.063a.559.559 0 0 1-.07.184.386.386 0 0 1-.353.181.418.418 0 0 1-.212-.05.385.385 0 0 1-.136-.13.557.557 0 0 1-.072-.184 1.038 1.038 0 0 1 0-.415.543.543 0 0 1 .072-.183.409.409 0 0 1 .136-.132.409.409 0 0 1 .212-.051.42.42 0 0 1 .214.05.405.405 0 0 1 .138.132.54.54 0 0 1 .072.184 1.053 1.053 0 0 1 0 .415zm.224-.858a.799.799 0 0 0-.28-.18 1.003 1.003 0 0 0-.367-.065.99.99 0 0 0-.365.064.791.791 0 0 0-.456.462c-.042.11-.063.235-.063.371s.02.26.063.37a.798.798 0 0 0 .178.28.78.78 0 0 0 .278.178c.108.042.23.063.365.063.135 0 .258-.021.367-.063a.783.783 0 0 0 .28-.178.803.803 0 0 0 .178-.28c.042-.11.063-.234.063-.37 0-.135-.021-.26-.063-.37a.795.795 0 0 0-.179-.282zm2.14-.708-.445-.004-.004.492h-.115s-.212-.008-.395.06a.488.488 0 0 0-.299.292c-.001.005-.005.008-.01.008s-.008-.003-.008-.008v-.322h-.42v1.697h.444v-.763c0-.08.007-.154.024-.222a.525.525 0 0 1 .044-.121c.08-.128.255-.256.63-.26h.101l-.01.99c0 .083.013.152.04.203.027.05.065.09.113.118a.479.479 0 0 0 .168.057c.066.011.136.017.209.018.046 0 .094 0 .145-.003a1.15 1.15 0 0 0 .117-.01l.004-.33a.747.747 0 0 1-.131.008c-.087-.001-.144-.017-.175-.047-.03-.031-.045-.088-.044-.175l.008-.83h.342v-.36h-.338l.004-.488zm5.026.034h-.517v2.167h1.572v-.4h-1.055v-1.767zm1.277 2.167h.479V17.4h-.479v1.703zm0-1.939h.479v-.408h-.479v.408zm1.087-.24c-.073.07-.101.182-.101.396v.08h-.263v.372h.263v1.33h.488v-1.33h.355v-.369h-.358v-.068c0-.084.006-.118.022-.136.019-.016.038-.022.101-.022h.235v-.359h-.4c-.186 0-.269.034-.342.105zm1.344 1.17c.003-.239.02-.292.041-.313.022-.025.073-.031.155-.031h.264c.098 0 .126.01.145.028.023.024.038.086.038.316h-.643zm.621-.694h-.59c-.177 0-.272.028-.345.102-.114.114-.158.248-.158.75 0 .501.044.634.158.746.076.077.168.105.346.105h.646c.187 0 .257-.047.31-.1.086-.083.115-.181.118-.435h-.447c-.003.121-.01.135-.025.154-.02.022-.044.031-.142.031h-.296c-.082 0-.133-.006-.155-.031-.019-.021-.038-.069-.04-.338h1.036c.056 0 .07-.019.07-.068v-.08c0-.49-.026-.622-.14-.734-.073-.074-.168-.102-.346-.102zm1.015-.464h-.25v2.167h1.379v-.21h-1.128v-1.957zm2.392 1.916c-.035.034-.082.046-.203.046h-.393c-.12 0-.168-.012-.206-.046-.05-.05-.076-.13-.076-.579 0-.446.025-.526.076-.576.038-.037.086-.046.206-.046h.393c.12 0 .168.01.203.046.05.05.08.13.08.576 0 .449-.03.53-.08.58zm-.178-1.406h-.443c-.174 0-.273.022-.346.093-.107.106-.145.239-.145.734 0 .499.038.632.145.737.073.071.172.093.346.093h.443c.171 0 .273-.022.343-.093.11-.105.149-.238.149-.737 0-.495-.038-.628-.149-.734-.07-.07-.172-.093-.343-.093zm1.802 1.41c-.038.033-.079.043-.184.043h-.37c-.12 0-.168-.013-.206-.047-.051-.05-.076-.13-.076-.579 0-.446.025-.526.076-.576.038-.037.085-.046.206-.046h.37c.105 0 .143.01.178.043.035.034.054.084.063.294h.229c-.007-.275-.039-.38-.118-.458-.063-.062-.136-.084-.304-.084h-.444c-.174 0-.272.022-.345.093-.108.106-.146.239-.146.734 0 .499.038.632.146.737.073.071.171.093.346.093h.446c.162 0 .241-.025.301-.084.083-.08.114-.176.124-.476h-.228c-.007.21-.026.275-.064.312zm1.869-1.41h-.282l-.625.725h-.174v-1.297h-.235v2.229h.235v-.74h.168l.643.74h.295l-.748-.848.723-.808zm.57-.073-.055.205-.058-.205h-.09v.28h.056v-.214l.062.215h.054l.062-.215v.215H32v-.281h-.09zm-.472.046h.076v.235h.06v-.235h.074v-.046h-.21v.046z" fill="#0A0B09"/></g></svg>