<svg height="36" viewBox="0 0 36 36" width="36" xmlns="http://www.w3.org/2000/svg"><mask id="a" fill="#fff"><path d="M0 0h1.875v4.693H0z" fill-rule="evenodd"/></mask><mask id="b" fill="#fff"><path d="M0 0h3.343v4.693H0z" fill-rule="evenodd"/></mask><mask id="c" fill="#fff"><path d="M0 0h1.011v1.011H0z" fill-rule="evenodd"/></mask><mask id="d" fill="#fff"><path d="M0 0h1.011v1.011H0z" fill-rule="evenodd"/></mask><mask id="e" fill="#fff"><path d="M0 0h1.011v1.011H0z" fill-rule="evenodd"/></mask><mask id="f" fill="#fff"><path d="M0 0h1.011v1.011H0z" fill-rule="evenodd"/></mask><mask id="g" fill="#fff"><path d="M0 0h1.011v1.011H0z" fill-rule="evenodd"/></mask><mask id="h" fill="#fff"><path d="M0 0h1.011v1.011H0z" fill-rule="evenodd"/></mask><mask id="i" fill="#fff"><path d="M0 0h1.011v1.011H0z" fill-rule="evenodd"/></mask><mask id="j" fill="#fff"><path d="M0 0h1.011v1.011H0z" fill-rule="evenodd"/></mask><mask id="k" fill="#fff"><path d="M0 0h1.011v1.011H0z" fill-rule="evenodd"/></mask><g fill="none" fill-rule="evenodd"><path d="M18 0c2.837 0 5.52.656 7.907 1.825C31.884 4.753 36 10.895 36 18c0 9.942-8.058 18-18 18-9.94 0-18-8.057-18-18C0 8.06 8.06 0 18 0z" fill="#f2f4f7" fill-rule="nonzero"/><path d="M5.594 16.607c.175-.174.323-.3.466-.39a.971.971 0 0 1 .534-.136c.337 0 .576.115.72.344.141.23.213.534.213.91v2.449c0 .103-.052.169-.156.198-.103.03-.243.05-.418.064v.106h1.984v-.087a3.265 3.265 0 0 1-.189-.024c-.069-.01-.132-.022-.19-.04s-.109-.04-.15-.071c-.043-.033-.064-.072-.064-.117v-2.858c0-.44-.1-.8-.3-1.078-.202-.28-.49-.418-.866-.418-.175 0-.343.034-.505.102s-.31.154-.447.257a2.3 2.3 0 0 0-.364.346 3.442 3.442 0 0 0-.268.354" fill="#00adef"/><path d="M1.35 1.327v3.017a.249.249 0 0 0 .068.14.29.29 0 0 0 .118.064.753.753 0 0 0 .155.024c.059.003.12.011.185.025v.096H0v-.096c.15-.014.278-.043.384-.088.107-.045.16-.119.16-.224V.943A.368.368 0 0 0 .53.826.221.221 0 0 0 .448.738L.244.626A2.476 2.476 0 0 0 .01.515V.456L1.284 0h.065z" fill="#00adef" mask="url(#a)" transform="translate(4 15.459)"/><g fill="#797a7d"><path d="M0 1.148C.175.974.322.849.465.758A.975.975 0 0 1 1 .622c.336 0 .576.115.719.344.142.231.214.534.214.91v2.449c0 .103-.053.169-.156.198-.104.03-.243.051-.418.064v.106h1.984v-.087a4.711 4.711 0 0 1-.19-.024 1.572 1.572 0 0 1-.189-.039.442.442 0 0 1-.151-.073.143.143 0 0 1-.063-.116V1.496c0-.44-.1-.8-.301-1.078C2.249.139 1.959 0 1.584 0c-.175 0-.343.034-.505.102S.768.256.632.359a2.308 2.308 0 0 0-.365.346A3.571 3.571 0 0 0 0 1.059" mask="url(#b)" transform="translate(28.657 15.459)"/><path d="M28.413 16.786v3.017a.252.252 0 0 0 .068.14.29.29 0 0 0 .117.064c.046.012.098.02.156.024s.12.01.185.025v.096h-1.876v-.096c.149-.014.277-.043.384-.087.107-.046.16-.12.16-.225V16.4a.37.37 0 0 0-.014-.116.218.218 0 0 0-.083-.088l-.203-.111a2.365 2.365 0 0 0-.234-.112v-.06l1.273-.455h.067zM9.18 20.153v-.099c.08-.006.158-.015.237-.025s.15-.026.213-.05a.452.452 0 0 0 .158-.094.19.19 0 0 0 .064-.148v-3.393a.63.63 0 0 0-.014-.138.195.195 0 0 0-.085-.109 1.75 1.75 0 0 0-.212-.118 2.707 2.707 0 0 0-.262-.109v-.06l1.337-.435h.06v4.422c.012.065.04.114.083.143s.093.051.153.064.123.022.193.025c.07.003.137.012.202.025v.099zm1.41-5.761a.501.501 0 0 1-.37.149.497.497 0 0 1-.364-.154.499.499 0 0 1-.153-.365c0-.147.05-.27.15-.364.097-.097.22-.145.367-.145s.27.048.37.145c.098.095.147.217.147.364s-.049.27-.148.37m12.867 2.478c.013-.08.05-.194.11-.342a1.96 1.96 0 0 1 .25-.44c.11-.145.239-.273.387-.38a.824.824 0 0 1 .499-.164c.282 0 .508.087.677.262a.875.875 0 0 1 .251.627.48.48 0 0 1-.033.208.712.712 0 0 1-.104.15.759.759 0 0 1-.227.048c-.086.007-.178.01-.277.01-.152 0-.29.002-.415.005l-.361.01c-.115.003-.184.005-.303.005l-.044.135h2.746a1.835 1.835 0 0 0-.187-.72 1.545 1.545 0 0 0-.412-.51 1.666 1.666 0 0 0-.594-.302 2.601 2.601 0 0 0-.727-.099 1.84 1.84 0 0 0-.866.203 2.107 2.107 0 0 0-.662.53 2.391 2.391 0 0 0-.42.736 2.405 2.405 0 0 0-.15.825c0 .343.053.668.158.974.106.307.256.574.451.802.194.227.43.403.707.53.277.123.584.187.921.187.27 0 .516-.05.736-.149.222-.1.411-.225.57-.376s.283-.318.376-.5c.092-.18.151-.344.178-.49l-.08-.019c-.079.243-.242.45-.489.618a1.504 1.504 0 0 1-.865.252 1.8 1.8 0 0 1-.802-.168 1.61 1.61 0 0 1-.573-.46 2.078 2.078 0 0 1-.347-.672 2.67 2.67 0 0 1-.108-1.009c.007-.069.01-.13.01-.183zm-10.979-.001c.013-.08.05-.193.11-.341a1.927 1.927 0 0 1 .636-.821.826.826 0 0 1 .5-.164c.282 0 .508.088.676.263a.873.873 0 0 1 .252.628.482.482 0 0 1-.034.207.712.712 0 0 1-.104.149.766.766 0 0 1-.227.049c-.086.007-.178.01-.277.01-.152 0-.29.002-.415.005l-.36.01c-.116.003-.186.005-.304.005l-.044.135h2.746a1.835 1.835 0 0 0-.187-.721 1.568 1.568 0 0 0-1.005-.811 2.601 2.601 0 0 0-.726-.1 1.84 1.84 0 0 0-.867.204c-.26.135-.48.31-.662.529s-.323.463-.42.737a2.405 2.405 0 0 0-.15.825c0 .343.054.668.159.974.106.307.256.574.45.8.195.229.43.406.708.53s.584.188.92.188c.27 0 .517-.05.737-.148.222-.1.41-.224.569-.376s.284-.32.376-.5c.093-.181.152-.344.178-.49l-.08-.02c-.078.245-.241.45-.488.619s-.536.253-.866.253c-.303 0-.571-.057-.801-.17-.231-.11-.422-.265-.574-.46s-.267-.417-.346-.671a2.665 2.665 0 0 1-.11-1.01c.008-.068.01-.13.01-.182zm3.419 3.284v-.109c.303-.02.504-.051.603-.094s.149-.117.149-.223v-5.689a.351.351 0 0 0-.015-.118c-.01-.027-.038-.057-.084-.09a9.395 9.395 0 0 1-.267-.153 2.684 2.684 0 0 0-.297-.153v-.059L17.4 13h.069v6.777c0 .065.015.115.044.148.03.034.075.056.134.07a1.4 1.4 0 0 0 .228.024c.092.003.2.012.326.025v.109zm5.946-.791a1.326 1.326 0 0 1-.41.46 1.739 1.739 0 0 1-.588.257c-.221.054-.453.08-.697.08-.29 0-.564-.026-.821-.08a3.297 3.297 0 0 1-.712-.228v-1.306h.073c.053.159.119.325.199.5.08.174.175.337.288.485.112.148.248.27.406.366.159.096.347.144.565.144.318 0 .57-.091.759-.273.188-.181.283-.46.283-.836a.712.712 0 0 0-.193-.509.972.972 0 0 0-.53-.272c-.18-.034-.351-.07-.516-.109a4.69 4.69 0 0 1-.445-.129 1.236 1.236 0 0 1-.61-.446 1.246 1.246 0 0 1-.232-.761c0-.205.043-.389.129-.554.087-.165.202-.308.348-.426.146-.119.314-.21.505-.272.192-.063.396-.094.614-.094.276 0 .52.024.73.074.213.049.414.11.605.183l.119 1.227-.08.02a10.737 10.737 0 0 0-.276-.549c-.093-.169-.195-.314-.307-.436s-.24-.216-.381-.282a1.146 1.146 0 0 0-.49-.099.957.957 0 0 0-.331.06.848.848 0 0 0-.49.459.957.957 0 0 0-.08.401c0 .245.07.42.209.525a1.4 1.4 0 0 0 .524.237c.145.034.303.068.474.105.172.036.32.07.445.103.297.073.549.225.756.455.208.232.312.515.312.852 0 .257-.051.48-.154.668"/><path d="M1.011.506A.506.506 0 1 1 0 .506a.506.506 0 0 1 1.011 0" mask="url(#c)" transform="translate(4.377 21.869)"/><path d="M1.011.506a.506.506 0 1 1-1.013 0 .506.506 0 0 1 1.013 0" mask="url(#d)" transform="translate(7.644 21.869)"/><path d="M1.011.506A.506.506 0 1 1 0 .506a.506.506 0 0 1 1.011 0" mask="url(#e)" transform="translate(10.912 21.869)"/><path d="M1.011.506A.507.507 0 1 1-.002.505.507.507 0 0 1 1.01.506" mask="url(#f)" transform="translate(14.18 21.869)"/><path d="M1.011.506a.506.506 0 1 1-1.013 0 .506.506 0 0 1 1.013 0" mask="url(#g)" transform="translate(17.447 21.869)"/><path d="M1.011.506A.506.506 0 1 1 0 .506a.506.506 0 0 1 1.011 0" mask="url(#h)" transform="translate(20.714 21.869)"/><path d="M1.011.506a.506.506 0 1 1-1.013 0 .506.506 0 0 1 1.013 0" mask="url(#i)" transform="translate(23.982 21.869)"/><path d="M1.011.506A.506.506 0 1 1 0 .506a.506.506 0 0 1 1.011 0" mask="url(#j)" transform="translate(30.516 21.869)"/><path d="M1.011.506a.506.506 0 1 1-1.013 0 .506.506 0 0 1 1.013 0" mask="url(#k)" transform="translate(27.25 21.869)"/></g></g></svg>