<svg width="36" height="36" fill="none" xmlns="http://www.w3.org/2000/svg"><path d="M18 0c2.837 0 5.52.656 7.907 1.825C31.884 4.753 36 10.895 36 18c0 9.942-8.058 18-18 18-9.94 0-18-8.057-18-18C0 8.06 8.06 0 18 0z" fill="#F2F4F7"/><path d="M21.808 10.461c.567 0 1.066-.276 1.384-.692h1.731v16.616H23.36L12.46 12.26v8.931a1.73 1.73 0 1 0 2.078 0v-2.838l7.795 10.108H27V7.692h-3.808a1.73 1.73 0 1 0-1.384 2.77zm-8.135-2.769H9v20.77h3.115a1.73 1.73 0 1 0 0-2.077h-1.038V9.769h1.558l10.211 13.472V14.27a1.73 1.73 0 1 0-2.077 0v2.797l-7.096-9.374z" fill="#BF2C37"/></svg>