<svg height="36" viewBox="0 0 36 36" width="36" xmlns="http://www.w3.org/2000/svg"><mask id="a" fill="#fff"><path d="M0 0h4.592v4.653H0z" fill-rule="evenodd"/></mask><mask id="b" fill="#fff"><path d="M0 0h4.854v4.69H0z" fill-rule="evenodd"/></mask><mask id="c" fill="#fff"><path d="M0 0h4.854v4.69H0z" fill-rule="evenodd"/></mask><mask id="d" fill="#fff"><path d="M.178 0h.644v1H.178z" fill-rule="evenodd"/></mask><g fill="none" fill-rule="evenodd"><path d="M18 0c2.837 0 5.52.656 7.907 1.825C31.884 4.753 36 10.895 36 18c0 9.942-8.058 18-18 18-9.94 0-18-8.057-18-18C0 8.06 8.06 0 18 0z" fill="#f2f4f7" fill-rule="nonzero"/><g fill="#0b318f"><path d="M2.735 2.646c.028 0 .028-.019.023-.042L2.184.976c-.028-.089-.06-.089-.09 0l-.53 1.628c-.015.028 0 .042.018.042zM2.105.234C2.179.033 2.203 0 2.235 0c.038 0 .06.028.13.22.09.228 1.037 2.72 1.406 3.64.219.536.392.635.518.672a.853.853 0 0 0 .242.037c.038 0 .06.005.06.037 0 .038-.055.047-.12.047-.09 0-.532 0-.947-.014-.117-.005-.183-.005-.183-.042 0-.023.019-.037.042-.042.038-.014.075-.065.038-.163l-.56-1.484c-.014-.024-.023-.037-.056-.037H1.517c-.028 0-.047.018-.061.046l-.364 1.069a1.21 1.21 0 0 0-.084.406c0 .121.126.172.229.172h.06c.042 0 .06.015.06.038 0 .037-.036.046-.087.046-.145 0-.407-.019-.472-.019s-.396.019-.681.019c-.08 0-.117-.014-.117-.046 0-.023.024-.038.056-.038.042 0 .126-.004.178-.014.275-.037.396-.265.508-.569z" mask="url(#a)" transform="translate(4 15.649)"/><path d="M.84 3.827c.014.494.075.653.233.699.117.029.248.038.304.038.028 0 .046.014.046.037 0 .038-.037.047-.107.047-.345 0-.583-.019-.639-.019s-.308.019-.579.019C.037 4.648 0 4.643 0 4.601c0-.023.019-.037.047-.037a.787.787 0 0 0 .247-.038c.15-.042.182-.219.182-.764L.481.303C.481.07.5 0 .546 0c.047 0 .149.131.21.191.089.103.989 1.073 1.918 2.072.598.639 1.255 1.377 1.447 1.573L4.055.77C4.051.378 4.009.243 3.822.196a1.651 1.651 0 0 0-.294-.028c-.042 0-.046-.019-.046-.042 0-.037.046-.042.121-.042.27 0 .56.018.63.018.065 0 .266-.018.513-.018.065 0 .108.005.108.042 0 .023-.024.042-.066.042-.028 0-.07 0-.145.018-.2.042-.223.173-.223.537l-.015 3.538c0 .396-.014.429-.056.429-.046 0-.121-.065-.438-.387a84 84 0 0 1-1.577-1.634C1.633 1.913.952 1.153.756.938z" mask="url(#b)" transform="translate(8.956 15.644)"/><path d="M.84 3.827c.014.494.075.653.233.699.117.029.248.038.304.038.028 0 .046.014.046.037 0 .038-.037.047-.107.047-.345 0-.583-.019-.639-.019s-.308.019-.579.019C.037 4.648 0 4.643 0 4.601c0-.023.019-.037.047-.037a.787.787 0 0 0 .247-.038c.15-.042.182-.219.182-.764L.481.303C.481.07.5 0 .546 0c.047 0 .149.131.21.191.089.103.989 1.073 1.918 2.072.598.639 1.255 1.377 1.447 1.573L4.055.77C4.051.378 4.009.243 3.822.196a1.651 1.651 0 0 0-.294-.028c-.042 0-.046-.019-.046-.042 0-.037.046-.042.121-.042.271 0 .56.018.63.018.065 0 .266-.018.513-.018.066 0 .108.005.108.042 0 .023-.024.042-.066.042-.028 0-.07 0-.145.018-.2.042-.223.173-.223.537l-.015 3.538c0 .396-.014.429-.056.429-.046 0-.121-.065-.438-.387a87.321 87.321 0 0 1-1.577-1.634C1.633 1.913.952 1.153.756.938z" mask="url(#c)" transform="translate(14.047 15.644)"/><path d="M21.673 18.295c.028 0 .028-.02.023-.042l-.574-1.628c-.028-.09-.06-.09-.09 0l-.53 1.628c-.015.028 0 .042.018.042zm-.63-2.412c.074-.201.098-.234.13-.234.038 0 .06.028.13.22.09.228 1.037 2.72 1.406 3.64.219.536.392.635.518.672a.853.853 0 0 0 .242.037c.038 0 .06.005.06.037 0 .038-.055.047-.12.047-.09 0-.532 0-.947-.014-.117-.005-.183-.005-.183-.042 0-.023.019-.037.042-.042.038-.014.07-.065.038-.163l-.56-1.484c-.014-.024-.023-.037-.056-.037h-1.298c-.027 0-.046.018-.06.046l-.364 1.069a1.21 1.21 0 0 0-.084.406c0 .12.126.172.229.172h.06c.042 0 .06.015.06.038 0 .037-.036.046-.088.046-.145 0-.406-.02-.471-.02-.066 0-.397.02-.681.02-.08 0-.117-.014-.117-.046 0-.023.023-.038.056-.038.042 0 .126-.004.177-.014.276-.037.397-.265.509-.57zm3.766 2.673c0 .887.023 1.274.13 1.381.099.098.253.14.724.14.322 0 .583-.004.728-.182a.841.841 0 0 0 .159-.363c.005-.047.018-.08.056-.08.028 0 .037.023.037.088 0 .066-.042.43-.088.603-.042.14-.061.163-.38.163-.432 0-.745-.014-1.002-.019a10.637 10.637 0 0 0-.616-.018c-.023 0-.126.004-.247.004-.122.005-.252.014-.346.014-.065 0-.097-.014-.097-.046 0-.019.013-.038.046-.038.056 0 .126-.014.182-.023.12-.023.15-.159.177-.33.028-.253.028-.73.028-1.313v-1.064c0-.942 0-1.11-.013-1.302-.015-.205-.061-.303-.262-.345a.959.959 0 0 0-.205-.019c-.024 0-.047-.014-.047-.037 0-.037.028-.047.098-.047.27 0 .653.02.68.02s.473-.02.655-.02c.065 0 .098.014.098.047 0 .023-.024.037-.047.037-.042 0-.126.005-.2.02-.173.027-.225.134-.234.344-.014.192-.014.364-.014 1.302zm3.425.174c0-.328-.061-.459-.14-.636-.042-.098-.85-1.423-1.064-1.74a1.711 1.711 0 0 0-.411-.449.571.571 0 0 0-.261-.097c-.028 0-.061-.015-.061-.042 0-.024.024-.042.08-.042.116 0 .569.018.597.018.042 0 .27-.018.509-.018.065 0 .079.018.079.042 0 .023-.037.027-.09.055-.045.024-.078.061-.078.108 0 .07.028.144.079.233.098.173 1.004 1.732 1.11 1.91.118-.253.883-1.578 1.005-1.775a.577.577 0 0 0 .102-.308c0-.084-.023-.149-.098-.168-.056-.018-.088-.028-.088-.06 0-.024.037-.037.098-.037.158 0 .349.018.396.018.037 0 .47-.018.584-.018.042 0 .079.013.079.037 0 .028-.028.047-.08.047a.555.555 0 0 0-.275.084c-.121.074-.187.144-.322.307-.201.243-1.045 1.662-1.152 1.92-.09.217-.09.404-.09.6v.52c0 .096 0 .348.019.6.015.178.066.308.248.331.084.015.219.024.27.024.038 0 .047.018.047.037 0 .028-.028.047-.098.047-.331 0-.714-.019-.742-.019s-.411.02-.592.02c-.066 0-.098-.015-.098-.048 0-.019.014-.037.046-.037.056 0 .126-.014.182-.024.122-.023.177-.158.187-.33.019-.253.019-.509.019-.602v-.509z"/><path d="M.449.332h.047C.543.332.57.299.57.242S.533.169.49.169H.449zm0 .126c0 .019.005.023.047.028V.5h-.15V.486C.388.48.393.476.393.458V.192C.393.172.388.168.346.164V.15H.51c.056 0 .112.023.112.084 0 .05-.037.084-.08.102L.599.41a.31.31 0 0 0 .08.08v.004H.627C.594.495.575.439.505.34H.454v.117zM.5.62C.65.62.78.48.78.327S.655.033.5.033c-.15 0-.28.14-.28.294C.225.486.35.62.5.62zM.5 0a.327.327 0 0 1 0 .654.328.328 0 0 1-.323-.327A.334.334 0 0 1 .5 0z" mask="url(#d)" transform="translate(31.178 15)"/></g></g></svg>