<svg height="36" viewBox="0 0 36 36" width="36" xmlns="http://www.w3.org/2000/svg"><mask id="a" fill="#fff"><path d="M0 .108h1v.784H0z" fill-rule="evenodd"/></mask><mask id="b" fill="#fff"><path d="M0 .107h1v.786H0z" fill-rule="evenodd"/></mask><mask id="c" fill="#fff"><path d="M0 0h28v1.157H0z" fill-rule="evenodd"/></mask><mask id="d" fill="#fff"><path d="M0 0h27.92v3.782H0z" fill-rule="evenodd"/></mask><mask id="e" fill="#fff"><path d="M0 11.203h28V.108H0z" fill-rule="evenodd"/></mask><g fill="none" fill-rule="evenodd"><path d="M18 0c2.837 0 5.52.656 7.907 1.825C31.884 4.753 36 10.895 36 18c0 9.942-8.058 18-18 18-9.94 0-18-8.057-18-18C0 8.06 8.06 0 18 0z" fill="#f2f4f7" fill-rule="nonzero"/><path d="M17.136 12.374a1.596 1.596 0 1 1 0 3.191 1.596 1.596 0 0 1 0-3.191zm-5.52.355c.046.033.393.409.465.488l.182.193c.112.129.334.346.46.487l.916.972c.036.033.058.064.091.099l.728.775c.033.03.064.074.1.094v-1.73c.036-.008.504-.01.75-.006a1.833 1.833 0 1 0-.003-.22h-.746v-1.66l-.228-.001.002 3.047a6.667 6.667 0 0 1-.373-.385l-.186-.197c-.207-.233-.518-.531-.736-.772-.22-.248-.509-.525-.733-.773-.167-.19-.377-.395-.55-.582-.049-.05-.332-.362-.365-.375v3.547h.226zm-7.362.004.29.292c.178.197.395.408.551.592l2.1 2.221.002-3.617H6.97v3.05l-2.02-2.128c-.063-.068-.126-.127-.183-.193a33.414 33.414 0 0 0-.738-.77l.002 3.551.224-.004zm5.042-.625H9.29l-.73 1.815c-.126.305-.242.602-.367.9-.046.11-.356.856-.362.907h.226l.471-1.153 1.528.002c.03.033.42 1.019.476 1.151h.226c-.01-.058-.063-.167-.087-.229l-.639-1.582c-.057-.139-.687-1.719-.735-1.811zm-.683 2.254c.051-.156.264-.65.34-.843.044-.107.312-.794.347-.832l.672 1.677z" fill="#03afde"/><path d="m8.614 14.362 1.358.002-.671-1.677c-.035.038-.303.725-.347.832-.077.194-.29.687-.34.843" fill="#fff"/><g fill="#00aeef"><path d="M24.634 13.85c.022-.04.05-.082.077-.124.035-.055.053-.048.12-.077.025-.01.128-.053.143-.055.056-.004.075.049.163.007.103-.046.107-.202.006-.253-.118-.061-.213.03-.213.152-.283.08-.267.107-.38.283-.023.037-.04.079-.078.086-.038.008-.112.01-.154.013-.085.009-.553.063-.597.037-.033-.022-.052-.046-.116-.042-.162.014-.17.233-.035.277.107.037.162-.033.193-.12.355-.038.715-.058 1.07-.091l.534-.048c.132-.01.12-.031.19-.101.08-.077.045-.086.194-.088-.002.077.013.094-.028.138-.08.079-.11.125-.19.134-.594.07-1.243.167-1.84.246-.132.018-.753.11-.861.106-.068-.003-.257-.021-.31-.01-.056.01-.678.519-.74.543-.061-.031-.142-.088-.201-.123-.052-.033-.15-.1-.195-.117.01-.092-.002-.14-.06-.18-.2-.13-.357.29-.035.26.05-.005.376.214.444.256.083.05.134-.024.28-.136.077-.057.506-.395.547-.402.042-.004.167.007.218.009.158.009.276-.017.425-.035v.205c-.028.052-.105.059-.088.173a.138.138 0 0 0 .14.118c.108 0 .236-.147.054-.281v-.23l.434-.057v.11c-.175.072-.07.333.108.265a.145.145 0 0 0 .079-.19c-.033-.078-.072-.038-.081-.104l-.003-.031c0-.022.003-.043.003-.065.142-.016.259-.056.395-.018.12.03.24.063.362.094-.053.072-.152.158-.218.226-.133-.017-.232.08-.171.204.05.1.2.099.253.003.046-.086-.022-.11.024-.163.026-.031.066-.072.096-.103.27-.27.216-.213-.146-.318.087-.03.342-.05.447-.064l.678-.09c.106-.013.108-.044.163-.1.03-.027.112-.097.118-.14.013-.058.018-.186-.017-.225-.044-.022-.123-.013-.178-.011-.077 0-.086.026-.123.063-.138.134-.09.119-.231.13-.11.01-.603.059-.67.055m2.371.046.533.046c.343.03.727.046 1.061.092l.028.057a.138.138 0 0 0 .17.062c.137-.046.122-.263-.036-.277-.066-.004-.08.02-.116.042-.042.029-.226-.004-.29-.01l-.463-.04c-.064-.014-.145-.24-.22-.275a1.824 1.824 0 0 0-.239-.094c.002-.075-.017-.112-.06-.145a.147.147 0 0 0-.16-.004c-.094.057-.085.213.022.254.09.035.106-.02.163-.01.026.006.11.045.143.058.072.029.074.014.116.079.024.038.055.082.075.119-.123.013-.525-.042-.679-.055-.09-.006-.092.004-.14-.046-.096-.101-.118-.147-.215-.147-.053 0-.125-.01-.167.01-.03.036-.03.185-.018.236.01.037.093.108.123.138.057.057.053.079.165.095l.672.087c.138.02.307.033.448.06-.086.032-.273.052-.314.107-.025.057.16.208.206.259.028.029.048.055.08.077-.02.088-.02.14.038.188.123.099.292-.05.211-.188-.033-.057-.09-.062-.176-.066l-.206-.22c.11-.04.246-.065.36-.096.138-.04.25.004.393.018l.002.076c-.002.103-.052.029-.086.132-.024.084.02.162.091.184.138.042.232-.098.17-.213-.056-.098-.076.022-.069-.164l.434.057-.002.23c-.048.04-.1.075-.086.163a.139.139 0 0 0 .14.118c.124 0 .23-.16.051-.281l.002-.214c.156.017.27.04.435.034.051-.002.184-.017.224-.004l.67.505c.11.086.087.055.3-.071.06-.034.23-.162.292-.157.17.019.235-.152.13-.244-.073-.06-.262-.06-.23.167-.067.02-.304.19-.398.237l-.65-.485c-.127-.104-.143-.055-.41-.048-.09.002-.203-.02-.29-.031l-2.42-.323c-.06-.01-.065-.031-.096-.061-.122-.121-.103-.077-.103-.206.055-.003.093-.012.125.017.121.1.088.156.266.17"/><path d="m30.383 12.4-.257.197c-.044.031-.017.02-.066.011-.22-.04-.231.237-.076.274.162.038.174-.108.183-.184l.529-.395c.09-.069.08-.042.286.028l.1.033c.097.031.065.014.079.055.025.066.062.112.157.101.217-.024.116-.395-.108-.25-.022.013.002.028-.098-.007-.447-.158-.315-.138-.791.04-.13.048-.263.096-.393.147-.226.088-.568.232-.8.261-.312.042-.633.08-.95.12-.157.02-.311.025-.444.082-.126.055-.248.108-.372.16-.243.103-.51.206-.744.318-.013-.072.029-.125-.103-.213.024-.019.015-.008.059-.022.068-.022.084-.09.139-.11.013-.006.182 0 .173-.16-.011-.177-.344-.206-.265.093-.12.151-.187.028-.283.096-.038.051.072.136.12.182.037.038.05.036.05.106.003.228-.006.193.475-.013a9.74 9.74 0 0 1 .452-.194c.059-.004.722.435.812.464.002.221.215.22.272.092a.138.138 0 0 0-.06-.18c-.104-.064-.111.035-.197-.02l-.691-.41a1.93 1.93 0 0 1 .263-.117c.062-.022.96-.129 1.038-.134 0 .158.003.128.275.128.116 0 .13-.016.197.052-.002.055-.024.103.01.156.107.16.362-.009.234-.169-.044-.055-.06-.04-.138-.053-.046-.006-.075-.057-.117-.079-.052-.028-.274-.002-.322-.01-.031-.007-.02.004-.033-.022.013-.022.004-.014.033-.022l.158-.02c.213-.026.312-.08.53-.165.104-.039.616-.244.684-.248zm-8.401 0c.046.001.865.313 1.014.373.077.03.204.041.292.05.128.015.084.007.1.031-.014.026.003.01-.028.02-.048.015-.274-.02-.33.012-.036.02-.069.071-.109.077-.074.016-.103 0-.144.053-.123.15.11.331.226.175.041-.052.02-.098.018-.16.07-.068.078-.052.195-.052.272 0 .276.026.276-.128.064.005.968.112 1.03.13.043.015.243.101.27.121l-.676.403c-.104.066-.099-.035-.207.022a.147.147 0 0 0-.068.178c.044.125.272.147.28-.083.102-.044.75-.463.8-.466.082-.002.81.38.913.363.048-.077-.004-.167.035-.224.038-.05.314-.242.07-.239-.124.002-.14-.01-.197-.075.03-.099.026-.18-.068-.217-.156-.057-.259.13-.15.237.044.048.062.026.12.042.078.021.032.07.171.12l.026.011c0 .002.004.002.006.004a.557.557 0 0 0-.076.071c-.03.035-.02.087-.02.14-.09-.024-.215-.088-.305-.127l-.61-.26c-.404-.177-.257-.122-.696-.177-.263-.033-.977-.103-1.144-.167l-1.262-.472c-.165-.063-.169-.028-.334.026l-.162.056c-.112.041-.055-.025-.162-.03-.235-.014-.172.366.05.273.03-.013.044-.024.057-.048l.027-.057c.026-.05.232-.097.298-.116.123-.042.073-.05.25.081.145.107.297.208.44.327.004.061.006.213.175.186.101-.017.151-.158.074-.239-.083-.09-.138-.002-.204-.044l-.248-.189-.013-.013zm4.551 1.756c-.04.057-.024.19-.024.278 0 .137-.002.13-.058.233-.032.07-.063.132-.098.202-.04.077-.027.165-.027.26 0 .159-.008 1.114.003 1.182.009.05.063.064.092.029.026-.033.01-1.175.01-1.315 0-.114.027-.136.07-.224.172-.338.09-.154.115-.47.073.064.149.15.222.222.052.05.052.057.092.136.024.05.048.094.073.145.085.176.063.132.235.21.454.212.948.413 1.396.622.052.024.11.068.15.024.029-.037.025-.738.005-.801-.11-.03-.2.088-.292.107-.037.009-.08-.05-.164-.017-.18.07-.044.382.142.248.066-.05.037-.1.073-.136a1.06 1.06 0 0 1 .147-.07v.552c-.09-.023-.231-.098-.321-.138a23.403 23.403 0 0 1-.31-.138c-.074-.035-.897-.391-.921-.417-.027-.028-.123-.244-.15-.296-.047-.097-.142-.167-.21-.237a2.451 2.451 0 0 0-.114-.114c-.037-.04-.064-.09-.136-.077m-2.955.733c-.028.075-.013.432-.013.542 0 .323-.027.316.208.215.15-.064 1.497-.658 1.52-.682.056-.062.13-.286.188-.363.07-.087.204-.182.264-.267.015.072 0 .15.006.226.004.046.11.24.14.296.042.088.042.07.042.18v1.194c0 .059-.01.114.038.125.065.015.065-.04.065-.092v-1.328c-.015-.131-.182-.26-.182-.481 0-.092.02-.237-.022-.298-.077-.013-.103.042-.142.08-.09.093-.275.256-.319.348-.186.377-.072.268-.454.439-.206.094-.415.182-.619.274-.1.046-.564.259-.63.277v-.553c.25.078.121.138.226.21.112.075.237-.02.224-.14a.15.15 0 0 0-.103-.117c-.083-.022-.107.03-.149.022-.08-.017-.193-.14-.288-.107"/><path d="m30.248 13.177-.748.746c-.037.035-.092.066-.062.138.071.022.646-.14.758-.17.112-.025.704-.16.761-.192.068-.037.42-.454.481-.452.088 0 .125 0 .164-.066.084-.136-.087-.274-.208-.19-.064.048-.052.096-.052.188l-.303.3c-.044.045-.097.119-.165.137l-1.214.3.579-.581c.153-.152.053-.061.183-.088.178-.035.118-.34-.086-.272-.099.033-.083.098-.088.202m-7.552.72c.026.022.02-.028.02.02l-.004.002-.007.002-.01-.004c-.196-.038-.73-.182-.965-.242-.078-.02-.16-.035-.241-.06-.085-.025-.36-.363-.465-.436-.002-.09.01-.142-.053-.186a.152.152 0 0 0-.182.01c-.055.049-.11.245.138.245.033 0 .044.024.066.045l.057.058.119.118c.04.042.206.218.245.235l1.337.334c.028.008.114.035.143.03.127-.022-.055-.171-.055-.171l-.628-.627c-.094-.097-.097-.071-.092-.148.007-.08-.035-.13-.092-.147-.167-.055-.253.158-.134.248.026.022.053.029.098.027.056-.002.042-.01.078.026.076.083.6.612.627.62m.198-.322c-.064-.046-.191-.217-.292-.29.072-.293-.217-.267-.26-.13a.139.139 0 0 0 .109.185c.127.02.032-.028.188.126.05.05.095.103.145.155.05.053.11.099.158.154.05.055.099.108.152.16.03.03.046.05.074.08.029.032.042.056.1.054.052-.035.122-.198.148-.265.284-.047.165-.321-.006-.288-.088.017-.137.107-.097.202.022.052.009.042-.02.099-.015.03-.04.079-.052.11l-.266-.27c.024-.042.079-.084.112-.122l.117-.122c.048-.051.044-.077.13-.097l.477-.105c.06-.013.044-.011.084.015.125.083.28-.048.206-.184a.14.14 0 0 0-.156-.072c-.105.019-.081.087-.116.125-.026.026-.318.076-.377.089-.268.06-.17.014-.32.15l-.172.179c-.013.016-.016.02-.03.034-.025.026-.003.013-.036.028"/><path d="M29.096 14.068c.053.02.132-.088.176-.134.147-.156.316-.316.454-.47.136-.151.103-.114.187-.125.215-.031.096-.377-.099-.266-.086.051-.07.119-.053.211-.105.081-.217.235-.292.29-.046-.024-.134-.136-.175-.18-.035-.037-.15-.158-.185-.169l-.575-.123c-.022-.083-.059-.147-.165-.134-.195.022-.145.334.058.279.045-.013.054-.044.092-.044l.366.081.12.027c.06.013.067.008.102.041l.283.303c-.02.038-.1.103-.134.139-.037.039-.088.109-.134.131-.015-.035-.035-.072-.052-.109-.03-.058-.037-.049-.018-.099.04-.092-.009-.185-.097-.202a.138.138 0 0 0-.173.14c0 .117.088.136.167.145.02.066.105.237.147.268zm2.886.551v-.105c-.05-.06-.055-.095-.165-.088-.048.004-.04-.002-.072-.035l-.062-.062c-.206-.204-.148-.19-.31-.162-.287.046-.582.105-.869.142-.083-.14-.304-.048-.253.12.032.109.181.124.241.052.042-.047 0-.05.054-.073l.88-.143c0 .222.025.233-.048.376a2.765 2.765 0 0 1-.072.132c-.04.037-.093.01-.132.079-.116.202.215.31.261.114.016-.071-.019-.101-.035-.147a3.33 3.33 0 0 0 .112-.202c.035-.07.018-.187.02-.277.051.027.081.07.123.11.103.1.02.04.051.156a.136.136 0 0 0 .131.103c.094.002.106-.05.145-.09m-11.018.199c-.016.048-.055.083-.033.156.013.046.061.09.114.096a.146.146 0 0 0 .141-.226c-.038-.054-.1-.039-.132-.076a1.306 1.306 0 0 1-.072-.137c-.066-.12-.047-.18-.047-.366.176.017.376.06.553.09.09.015.187.031.277.044.086.013.06 0 .092.064a.14.14 0 0 0 .094.061.146.146 0 0 0 .17-.154.146.146 0 0 0-.189-.123c-.064.02-.046.06-.103.057-.027 0-.099-.015-.134-.022l-.268-.044c-.624-.103-.51-.149-.72.064-.099.1-.103.127-.17.123-.238-.015-.185.353.036.272.132-.046.064-.164.095-.206a.82.82 0 0 1 .164-.153c.005.28-.026.201.132.48m1.816.788c.036-.154.203-.499.135-.54-.05-.028-.358.211-.434.263-.376.253-.2.158-.345.158-.05 0-.088.02-.114.057-.105.156.112.308.224.183.04-.046.026-.08.041-.134l.244-.172c.061-.044.191-.14.25-.169-.022.102-.138.358-.123.435.064.048.226.024.32.024.095 0 .251.016.323-.017.016-.06.01-.178.01-.253.026-.052.107-.059.087-.17a.142.142 0 0 0-.14-.122c-.165 0-.194.227-.053.277v.18zm6.292.099c.087.018.224.007.325.007.09 0 .25.024.307-.025.02-.083-.1-.336-.123-.432l.498.336c.01.061.01.11.044.143.12.116.325-.047.218-.189a.135.135 0 0 0-.123-.057c-.08.004-.057.037-.127-.013-.07-.053-.134-.095-.209-.145-.073-.053-.143-.097-.215-.149-.303-.225-.26-.106-.169.16.028.083.068.182.09.265h-.43v-.18c.146-.057.111-.285-.062-.274a.14.14 0 0 0-.132.125c-.01.108.062.11.09.165 0 .083-.013.2.018.263z"/><path d="M20.841 15.16a.145.145 0 0 0-.268-.106.145.145 0 0 0 .053.184c.083.055.077-.022.211.037l.932.43c.066.018.113-.02.031-.136-.077-.11-.136-.215-.213-.33-.033-.05-.035-.027-.019-.084a.143.143 0 0 0-.185-.178c-.143.05-.136.294.09.274.035.08.15.209.171.279zm10.049.091c.23.02.226-.22.1-.27-.087-.038-.158.013-.186.07-.021.046-.013.066-.004.11.01.046-.003.048-.03.088-.071.11-.137.217-.212.327-.032.048-.081.17.044.125.047-.015.137-.062.184-.086.247-.118.499-.233.747-.344.06-.027.037-.027.098-.016.152.022.202-.118.156-.208-.063-.123-.293-.097-.263.114l-.803.368c.03-.083.136-.193.169-.278m-9.232-1.846c0 .09-.006.145.055.185.127.085.287-.066.204-.194-.044-.068-.101-.06-.187-.063l-.566-.57c.046-.023.114-.045.16-.065.082-.033.088-.057.147 0 .005.082.009.134.07.169a.149.149 0 0 0 .179-.024c.094-.1.013-.287-.176-.226-.13-.072-.031-.11-.351.02-.255.103-.27.04.199.505.062.06.209.223.266.263zm9.542-.648c-.034.051-.45.457-.532.538-.09.092-.088-.009-.178.06-.049.034-.093.11-.047.188.033.057.11.094.188.057.078-.035.078-.09.074-.196l.438-.434c.034-.033.207-.187.204-.228-.002-.055-.083-.068-.13-.088-.38-.149-.25-.116-.378-.048-.037.02-.037-.005-.092-.005-.143 0-.187.185-.079.261.046.031.12.033.167-.002.122-.099-.027-.256.197-.166.055.021.114.05.167.063m-5.158.692a.145.145 0 0 0 .05.134c.035.029.025.039.031.024.002-.002.004.005.007.007v.81l-.07.067a.145.145 0 0 0 .129.218c.127-.005.169-.147.114-.224l-.051-.044c-.01-.011-.008-.01-.017-.017v-.81c.024-.022.055-.04.073-.068.048-.08.002-.22-.13-.216a.14.14 0 0 0-.136.119m-3.518 1.497c.116-.088.083-.077.14-.062.155.042.24-.142.145-.24a.154.154 0 0 0-.179-.018c-.056.032-.069.076-.065.164l-.272.196c-.046.03-.093.065-.139.098-.08.059-.084.079-.144.072-.166-.022-.226.152-.13.242.066.064.264.066.235-.158zm7.277-.156c.019-.22-.188-.21-.247-.139-.09.106-.004.27.158.23.044-.012.037-.006.077.023l.463.336c-.03.193.147.25.24.154.06-.062.07-.26-.143-.238-.058.007-.077-.028-.15-.08zm-4.613-.277c.099.002.145.01.191-.059.086-.128-.084-.288-.206-.195-.062.046-.057.094-.053.186l-.164.167c-.097-.007-.152-.004-.191.06-.082.133.076.282.204.195.061-.044.063-.095.054-.185zm2.059-.068c0-.088.011-.134-.048-.182-.123-.1-.297.06-.21.188.05.077.087.057.185.064.03.033.145.147.172.165-.027.261.173.228.234.17.053-.056.104-.254-.166-.24zm-.656-1.881c-.066-.044-.1.004-.195.092-.126.116-.115.004-.242.03-.158.03-.075.053-.222-.065-.017-.013-.074-.068-.092-.073-.05-.015-.09.027-.063.073.01.024.127.125.167.167.087.101.157-.01.263.004.048.01.085.038.138.035.06 0 .097-.066.189-.147.033-.029.072-.046.057-.116m-3.894 1.333v.02l.009.004.007-.002.004-.002c0-.048.006.002-.02-.02"/><path d="M.507.4C.496.383.538.381.487.385z" mask="url(#a)" transform="translate(21.475 12)"/><path d="M.492.399.512.39C.462.386.508.384.493.399" mask="url(#b)" transform="translate(29.891 12)"/></g><path d="m27.111.779.138-.013a.297.297 0 0 0 .049.138.244.244 0 0 0 .111.088.43.43 0 0 0 .321.009.2.2 0 0 0 .096-.071.149.149 0 0 0 .031-.093.153.153 0 0 0-.028-.093.24.24 0 0 0-.102-.066 1.747 1.747 0 0 0-.199-.054.936.936 0 0 1-.215-.071.314.314 0 0 1-.121-.103.26.26 0 0 1-.04-.141.294.294 0 0 1 .189-.269.506.506 0 0 1 .207-.04c.083 0 .156.013.219.042a.303.303 0 0 1 .145.116.324.324 0 0 1 .054.178l-.14.01a.238.238 0 0 0-.078-.16c-.044-.037-.109-.054-.197-.054-.086 0-.153.017-.195.05a.153.153 0 0 0-.06.118c0 .041.014.073.043.099s.103.053.224.079c.118.029.202.053.248.072.064.03.112.069.143.115a.304.304 0 0 1-.005.327.324.324 0 0 1-.147.121.489.489 0 0 1-.215.044.665.665 0 0 1-.254-.044.345.345 0 0 1-.16-.134.351.351 0 0 1-.062-.2zm-.668-.033.149.038a.504.504 0 0 1-.168.278.455.455 0 0 1-.294.095.533.533 0 0 1-.294-.072.481.481 0 0 1-.172-.213.78.78 0 0 1 .007-.607.467.467 0 0 1 .189-.197.571.571 0 0 1 .272-.068c.112 0 .207.028.281.086.077.056.13.137.16.241l-.145.033a.325.325 0 0 0-.114-.176.294.294 0 0 0-.184-.056.364.364 0 0 0-.215.061.317.317 0 0 0-.123.166.713.713 0 0 0 .006.464.31.31 0 0 0 .129.16c.06.035.122.053.19.053a.31.31 0 0 0 .21-.073.36.36 0 0 0 .116-.213zm-1.591.393h.149V.019h-.149zm-1.538 0V.019h.151l.588.878V.019h.141v1.12h-.152l-.586-.878v.878zM21.821.597c0 .134.038.24.11.318a.357.357 0 0 0 .272.117.35.35 0 0 0 .274-.119c.073-.076.11-.189.11-.333a.571.571 0 0 0-.046-.238.357.357 0 0 0-.336-.212.378.378 0 0 0-.27.107c-.074.072-.114.19-.114.36zM21.67.594c0-.186.048-.331.149-.436A.504.504 0 0 1 22.205 0a.54.54 0 0 1 .279.075.476.476 0 0 1 .191.206.704.704 0 0 1 .063.301.658.658 0 0 1-.067.302.469.469 0 0 1-.196.205.56.56 0 0 1-.272.068.51.51 0 0 1-.47-.283.633.633 0 0 1-.063-.28zM20.353.513h.318a.442.442 0 0 0 .158-.021.165.165 0 0 0 .086-.067.184.184 0 0 0 .03-.1.175.175 0 0 0-.057-.132c-.039-.033-.098-.051-.182-.051h-.353zm-.15.626V.019h.496c.101 0 .176.009.229.031.05.02.092.055.125.106.031.05.046.107.046.169a.281.281 0 0 1-.077.199.392.392 0 0 1-.239.106c.039.017.07.037.09.054a.83.83 0 0 1 .123.15l.193.305h-.186l-.148-.233a2.195 2.195 0 0 0-.105-.155.448.448 0 0 0-.077-.076.277.277 0 0 0-.065-.028.41.41 0 0 0-.084-.006h-.171v.498zm-1.057 0V.151h-.369V.019h.887v.132h-.369v.988zm-.999-.393.147.038a.498.498 0 0 1-.167.278.463.463 0 0 1-.296.095.54.54 0 0 1-.294-.072.481.481 0 0 1-.172-.213.78.78 0 0 1-.059-.301c0-.117.022-.218.068-.306a.473.473 0 0 1 .189-.197.558.558 0 0 1 .27-.068c.112 0 .206.028.283.086.077.056.13.137.161.241L18.13.36a.33.33 0 0 0-.113-.176.3.3 0 0 0-.186-.056.366.366 0 0 0-.215.061c-.057.041-.097.096-.121.166s-.035.141-.035.216c0 .094.013.178.042.248.026.072.07.125.127.16a.37.37 0 0 0 .191.053.305.305 0 0 0 .208-.073.373.373 0 0 0 .119-.213zm-2.222.393V.019h.809v.132h-.661v.343h.617v.132h-.617v.382h.687v.131zm-1.264 0V.019h.15v.989h.549v.131zm-1.418 0V.019h.808v.132h-.658v.343h.616v.132h-.616v.382h.687v.131zm-1.801-.131h.239a.593.593 0 0 0 .173-.02.264.264 0 0 0 .101-.06.364.364 0 0 0 .081-.14.7.7 0 0 0 .029-.217.544.544 0 0 0-.057-.271.287.287 0 0 0-.141-.126.553.553 0 0 0-.191-.023h-.234zm-.147.131V.019h.383c.088 0 .154.005.2.016a.387.387 0 0 1 .165.081.428.428 0 0 1 .131.191.714.714 0 0 1 .044.266c0 .085-.008.16-.028.226s-.046.121-.077.163a.432.432 0 0 1-.103.102.392.392 0 0 1-.134.055.687.687 0 0 1-.18.02zm-1.425 0V.019h.808v.132h-.661v.343h.619v.132h-.619v.382h.687v.131zm-1.058 0V.151h-.368V.019h.886v.132h-.371v.988zm-1.8 0V.019h.152l.588.878V.019h.143v1.12h-.152L7.155.261v.878zm-.792 0h.149V.019H6.22zM4.835.513h.316a.442.442 0 0 0 .158-.021.159.159 0 0 0 .088-.067.174.174 0 0 0 .028-.1.165.165 0 0 0-.057-.132C5.331.16 5.27.142 5.188.142h-.353zm-.149.626V.019h.496c.098 0 .176.009.226.031.053.02.094.055.125.106.031.05.046.107.046.169a.277.277 0 0 1-.077.199c-.05.056-.131.091-.237.106a.397.397 0 0 1 .088.054.72.72 0 0 1 .123.15l.193.305h-.184L5.338.906A2.905 2.905 0 0 0 5.23.751a.448.448 0 0 0-.075-.076.258.258 0 0 0-.067-.028.401.401 0 0 0-.082-.006h-.171v.498zM3.404.55h.29c.094 0 .162-.017.202-.052a.19.19 0 0 0 .061-.152.204.204 0 0 0-.035-.12.174.174 0 0 0-.095-.066.682.682 0 0 0-.138-.009h-.285zm-.149.589V.019h.423c.075 0 .13.005.169.012a.326.326 0 0 1 .139.053.25.25 0 0 1 .089.107.312.312 0 0 1 .036.151.346.346 0 0 1-.092.242c-.06.065-.17.098-.327.098h-.288v.457zm-1.798-.131h.237a.593.593 0 0 0 .173-.02.25.25 0 0 0 .101-.06.33.33 0 0 0 .081-.14.696.696 0 0 0 .031-.217A.533.533 0 0 0 2.023.3a.289.289 0 0 0-.14-.126.557.557 0 0 0-.191-.023h-.235zm-.149.131V.019h.386c.086 0 .154.005.198.016.066.015.12.042.164.081a.438.438 0 0 1 .132.191.713.713 0 0 1 .046.266c0 .085-.011.16-.031.226a.537.537 0 0 1-.076.163.408.408 0 0 1-.101.102.428.428 0 0 1-.134.055.703.703 0 0 1-.18.02zM0 .841.138.823C.153.9.18.957.217.992s.083.051.138.051A.231.231 0 0 0 .588.81.205.205 0 0 0 .524.654.203.203 0 0 0 .368.592.372.372 0 0 0 .27.608L.285.487h.024c.057 0 .11-.013.158-.044C.513.413.537.364.537.3A.166.166 0 0 0 .485.177.182.182 0 0 0 .353.128a.194.194 0 0 0-.134.049.275.275 0 0 0-.068.155L.013.305A.355.355 0 0 1 .129.09.326.326 0 0 1 .351.015c.061 0 .116.013.169.039.05.027.09.062.116.106a.268.268 0 0 1 .042.145.225.225 0 0 1-.04.131.264.264 0 0 1-.114.095.26.26 0 0 1 .154.095.302.302 0 0 1 .055.181.327.327 0 0 1-.108.248.367.367 0 0 1-.27.102.347.347 0 0 1-.244-.088A.336.336 0 0 1 0 .841z" fill="#1a3e54" mask="url(#c)" transform="translate(4 22.046)"/><path d="M24.778 3.644V0L27.5 2.803V.139h.42v3.643L25.2 1.01v2.634zm-.724-1.745c0 .25-.048.487-.147.709s-.242.419-.428.593a2.1 2.1 0 0 1-1.414.537 2.082 2.082 0 0 1-1.405-.537 1.83 1.83 0 0 1-.434-.595c-.1-.222-.147-.457-.147-.707s.048-.487.147-.711a1.83 1.83 0 0 1 .434-.595c.187-.169.402-.301.646-.393.243-.095.498-.14.759-.14.266 0 .52.045.766.14.244.092.459.224.648.393.186.173.329.371.428.592.099.225.147.461.147.714zm-1.99 1.446c.205 0 .4-.035.583-.107.184-.074.349-.18.496-.319a1.362 1.362 0 0 0 .448-1.02c0-.195-.038-.384-.114-.56a1.43 1.43 0 0 0-.334-.469 1.554 1.554 0 0 0-1.078-.422 1.58 1.58 0 0 0-.586.108 1.42 1.42 0 0 0-.49.314 1.406 1.406 0 0 0-.447 1.029 1.368 1.368 0 0 0 .448 1.02c.149.141.313.246.496.319.182.072.375.107.579.107zm-3.157.299h.443V.139h-.443zM17.58 1.699c.24.096.426.226.547.386a.914.914 0 0 1 .186.574c0 .322-.11.581-.327.778-.22.198-.507.297-.867.297-.292 0-.538-.07-.738-.213a1.04 1.04 0 0 1-.401-.602l.4-.186c.057.213.147.373.272.482a.674.674 0 0 0 .467.165.8.8 0 0 0 .54-.179.597.597 0 0 0 .206-.472.62.62 0 0 0-.145-.409 1.083 1.083 0 0 0-.432-.294l-.452-.182c-.248-.096-.433-.221-.553-.376a.857.857 0 0 1-.182-.55c0-.251.098-.457.294-.619.197-.163.447-.244.753-.244.224 0 .417.046.58.134.164.09.293.222.383.397l-.366.22c-.081-.136-.176-.237-.28-.303s-.218-.099-.35-.099a.593.593 0 0 0-.408.143.473.473 0 0 0-.16.367c0 .125.04.232.125.322.079.093.206.171.377.241zm-5.388 1.945V0l2.724 2.803V.139h.42v3.643L12.617 1.01v2.634zm-2.711 0V.139h1.962V.52h-1.52v1.006h1.52v.389h-1.52v1.342h1.52v.387zm-2.627.138-1.157-2.52-.467 2.382h-.433L5.553 0l1.302 2.9 1.3-2.9.756 3.644h-.432l-.474-2.382zM3.78 3.644h.44V.139h-.44zm-3.78 0V.139h.714c.528 0 .9.026 1.117.074.217.051.406.136.568.253.213.156.376.353.485.595.112.241.167.52.167.833s-.055.589-.165.83a1.483 1.483 0 0 1-.487.593 1.545 1.545 0 0 1-.555.252c-.21.051-.531.075-.97.075zm.448-.391h.28c.46 0 .776-.02.95-.057.177-.037.324-.101.44-.194.154-.118.27-.273.349-.461.079-.19.119-.408.119-.651 0-.246-.037-.461-.117-.647a1.15 1.15 0 0 0-.351-.461 1.06 1.06 0 0 0-.445-.198C1.493.547 1.179.525.729.525H.448z" fill="#1a3e54" mask="url(#d)" transform="translate(4 17.263)"/><path d="M23.985 7.289h.898v-.414h-.898z" fill="#1a3e54" mask="url(#e)" transform="translate(4 12)"/></g></svg>