<svg width="36" height="36" fill="none" xmlns="http://www.w3.org/2000/svg"><defs><linearGradient id="a" x1="8.138" y1="22.275" x2="8.138" y2="14" gradientUnits="userSpaceOnUse"><stop stop-color="#8AB232"/><stop offset="1" stop-color="#BCCB2A"/></linearGradient></defs><path d="M18 0c2.837 0 5.52.656 7.907 1.825C31.884 4.753 36 10.895 36 18c0 9.942-8.058 18-18 18-9.94 0-18-8.057-18-18C0 8.06 8.06 0 18 0z" fill="#F2F4F7"/><path d="M30.943 19.352c-.285-.017-.453-.076-.596-.218-.109-.126-.176-.344-.176-.604v-1.452h.722a.057.057 0 0 0 .058-.058v-.697a.057.057 0 0 0-.058-.058h-.722v-.957a.057.057 0 0 0-.058-.058h-.931a.057.057 0 0 0-.06.059v3.22c0 .571.169.99.52 1.284.27.235.706.36 1.217.36h.092a.057.057 0 0 0 .06-.058v-.696c-.01-.042-.034-.067-.068-.067zm-11.668-.017h-.05c-.269 0-.437-.059-.554-.185-.109-.134-.168-.344-.168-.654v-3.825a.057.057 0 0 0-.058-.059h-.931a.057.057 0 0 0-.06.059v3.834c0 .595.168 1.031.512 1.325.252.218.646.335 1.108.335.067 0 .134 0 .21-.008.033 0 .058-.034.058-.059v-.704a.064.064 0 0 0-.017-.042.12.12 0 0 0-.05-.017zm-10.888-3.18c-.436 0-.746.194-1.015.42l-.017-.268a.057.057 0 0 0-.058-.059h-.84a.057.057 0 0 0-.058.059v3.74c0 .034.025.06.059.06h.93a.057.057 0 0 0 .06-.06v-2.566c.343-.386.494-.445.713-.445.31 0 .645.21.645.806v2.223c0 .033.026.058.06.058h.93a.057.057 0 0 0 .059-.058v-2.416c.025-.982-.73-1.493-1.468-1.493zM14 17.9c.042-.578.344-.914.813-.914.52 0 .755.269.755.864v.05H14zm.797-1.744c-1.275 0-1.846 1.015-1.846 2.021 0 1.007.58 2.022 1.87 2.022.588 0 1.125-.201 1.469-.562a.064.064 0 0 0 .008-.084l-.369-.503a.065.065 0 0 0-.084-.017c-.302.218-.62.335-.922.335h-.076c-.436-.016-.721-.301-.822-.822h2.466c.034 0 .059-.025.059-.05.025-.184.033-.344.033-.444-.016-1.183-.68-1.896-1.786-1.896zm7.423 0c-.436 0-.746.193-1.015.42l-.017-.27a.057.057 0 0 0-.058-.058h-.839a.057.057 0 0 0-.059.059v3.74c0 .034.025.06.059.06h.931a.057.057 0 0 0 .059-.06v-2.566c.344-.386.495-.445.713-.445.31 0 .646.21.646.806v2.223c0 .033.025.058.058.058h.931a.057.057 0 0 0 .06-.058v-2.416c.024-.982-.722-1.493-1.469-1.493zm3.44 1.745c.041-.58.343-.915.813-.915.52 0 .755.269.755.864v.05h-1.569zm.796-1.745c-1.275 0-1.845 1.015-1.845 2.021 0 1.007.579 2.022 1.87 2.022.588 0 1.125-.201 1.468-.562a.065.065 0 0 0 .009-.084l-.37-.503a.065.065 0 0 0-.083-.017c-.302.218-.62.335-.923.335h-.075c-.436-.016-.722-.301-.822-.822h2.466c.033 0 .059-.025.059-.05.025-.184.033-.344.033-.444-.025-1.183-.68-1.896-1.787-1.896zm5.126 3.582h.109c.016 0 .025 0 .033-.009.009-.008.017-.008.025-.017.009-.008.009-.025.009-.042 0-.016 0-.025-.009-.033-.008-.009-.008-.017-.016-.017-.009-.008-.017-.008-.026-.008h-.125v.126zm0 .226h-.05v-.403h.159a.18.18 0 0 1 .1.026c.017.016.026.05.026.083 0 .017 0 .034-.009.05-.008.018-.017.026-.025.034a.107.107 0 0 1-.034.025c-.008.009-.025.009-.042.009l.118.176h-.059l-.117-.176h-.076v.176h.009zm-.218-.201c0 .042.008.084.025.117a.237.237 0 0 0 .067.092c.025.026.059.05.092.067a.268.268 0 0 0 .117.026.267.267 0 0 0 .118-.026.221.221 0 0 0 .092-.067.375.375 0 0 0 .067-.092.267.267 0 0 0 .026-.117.267.267 0 0 0-.026-.118.239.239 0 0 0-.067-.092.372.372 0 0 0-.092-.067.267.267 0 0 0-.117-.025.268.268 0 0 0-.118.025c-.034.017-.067.033-.092.067a.37.37 0 0 0-.067.092.267.267 0 0 0-.026.118zm-.05 0a.32.32 0 0 1 .1-.243.32.32 0 0 1 .243-.101.32.32 0 0 1 .243.1.318.318 0 0 1 .101.244.319.319 0 0 1-.1.243.318.318 0 0 1-.244.1.319.319 0 0 1-.243-.1.321.321 0 0 1-.1-.243z" fill="#A4AAAD"/><path d="M8.135 14A4.138 4.138 0 0 0 4 18.135a4.138 4.138 0 0 0 4.135 4.136 4.138 4.138 0 0 0 4.136-4.136C12.279 15.854 10.417 14 8.135 14zm3.289 4.135a3.294 3.294 0 0 1-3.289 3.289 3.294 3.294 0 0 1-3.288-3.289 3.294 3.294 0 0 1 3.288-3.288 3.299 3.299 0 0 1 3.289 3.288z" fill="url(#a)"/></svg>