<svg height="36" viewBox="0 0 36 36" width="36" xmlns="http://www.w3.org/2000/svg"><mask id="a" fill="#fff"><path d="M0 8.104h28V0H0z" fill-rule="evenodd"/></mask><g fill="none" fill-rule="evenodd"><path d="M18 0c2.837 0 5.52.656 7.907 1.825C31.884 4.753 36 10.895 36 18c0 9.942-8.058 18-18 18-9.94 0-18-8.057-18-18C0 8.06 8.06 0 18 0z" fill="#f2f4f7" fill-rule="nonzero"/><g fill="#2e2a2b"><path d="m17.014 18.932-1.13-1.773v1.773h-.866v-3.526h.758l1.129 1.772v-1.772h.867v3.526zm3.63-.356c-.252.252-.55.386-.98.386s-.728-.134-.981-.386c-.361-.362-.361-.812-.361-1.407 0-.594 0-1.045.36-1.406.254-.253.55-.387.982-.387s.728.134.98.387c.362.36.362.812.362 1.406 0 .595 0 1.045-.362 1.407m-.634-2.273a.433.433 0 0 0-.346-.154.434.434 0 0 0-.347.154c-.08.103-.13.222-.13.866s.05.758.13.862a.436.436 0 0 0 .347.158.436.436 0 0 0 .346-.158c.079-.104.129-.218.129-.862s-.05-.763-.13-.866m3.329 2.629-.624-1.312h-.292v1.312h-.867v-3.526h1.397c.782 0 1.203.554 1.203 1.133 0 .481-.297.784-.574.922l.762 1.471zm-.426-2.749h-.49v.713h.49c.238 0 .377-.173.377-.357 0-.182-.139-.356-.377-.356zm4.274 2.154c-.243.392-.614.595-1.144.595h-1.308v-3.527h1.308c.53 0 .901.203 1.144.594.173.283.173.561.173 1.17 0 .608 0 .886-.173 1.168m-.788-1.96c-.079-.12-.197-.199-.416-.199h-.38v1.981h.38c.22 0 .337-.08.416-.198.07-.1.095-.193.095-.793 0-.594-.025-.693-.095-.792"/><path d="M23.909 4.932h.867V1.406h-.867zm2.759.03c-.431 0-.728-.134-.98-.386-.362-.362-.362-.812-.362-1.407s0-1.046.362-1.407c.252-.253.549-.387.98-.387.668 0 1.204.372 1.333 1.15h-.882c-.055-.199-.164-.377-.451-.377a.42.42 0 0 0-.342.15c-.08.102-.134.226-.134.87 0 .645.055.768.134.872a.424.424 0 0 0 .342.15c.287 0 .396-.18.45-.377h.883c-.13.777-.665 1.148-1.333 1.148m-15.151.926a.376.376 0 0 0-.188-.05c-.105 0-.173.071-.173.164 0 .072.028.116.187.208.17.1.228.195.228.322 0 .175-.11.313-.322.313a.561.561 0 0 1-.231-.047v-.144a.457.457 0 0 0 .21.071c.126 0 .197-.084.197-.174 0-.086-.022-.135-.171-.226-.2-.12-.244-.188-.244-.33 0-.182.14-.278.307-.278a.57.57 0 0 1 .2.037zm.754-.159h.515v.12h-.375V6.2h.358v.12h-.358v.393h.396v.12h-.536zm1.241 0h.215l.278.88h.003l.284-.88h.21v1.105h-.135V5.88h-.002l-.314.954h-.102l-.3-.954h-.004v.954h-.133zm1.741 1.105h.139V5.728h-.139zm1.543-.022a.684.684 0 0 1-.2.034c-.352 0-.499-.266-.499-.566 0-.345.201-.563.49-.563.08 0 .158.015.21.04v.136a.383.383 0 0 0-.209-.055c-.18 0-.345.144-.345.413 0 .286.114.474.355.474a.39.39 0 0 0 .198-.052zm1.074-1.095c.246 0 .403.211.403.554 0 .382-.154.575-.416.575-.245 0-.402-.21-.402-.554 0-.382.154-.575.415-.575m-.013 1.015c.146 0 .27-.12.27-.46 0-.225-.07-.44-.257-.44-.146 0-.269.12-.269.46 0 .224.07.44.256.44m1.121-1.003h.173l.417.912h.003v-.912h.133v1.105h-.173l-.417-.906h-.003v.906h-.133zm1.462 0h.24c.148 0 .232.034.296.08.098.067.204.206.204.455 0 .32-.152.57-.567.57h-.173zm.139.985h.084c.244 0 .37-.167.37-.45 0-.23-.097-.415-.37-.415h-.084zm1.987-.287c0 .11-.006.17-.044.247-.046.092-.143.172-.303.172s-.257-.08-.302-.172a.493.493 0 0 1-.045-.247v-.698h.14v.72c0 .171.075.283.207.283s.208-.112.208-.284v-.719h.14zm1.404.385a.678.678 0 0 1-.2.034c-.35 0-.499-.266-.499-.566 0-.345.201-.563.49-.563.08 0 .158.015.21.04v.136a.38.38 0 0 0-.209-.055c-.18 0-.345.144-.345.413 0 .286.114.474.355.474a.39.39 0 0 0 .198-.052zm.866-.963h-.253v-.12h.646v.12h-.253v.985h-.14zm1.348-.132c.246 0 .403.211.403.554 0 .382-.154.575-.416.575-.245 0-.402-.21-.402-.554 0-.382.154-.575.415-.575m-.013 1.015c.146 0 .27-.12.27-.46 0-.225-.07-.44-.257-.44-.146 0-.269.12-.269.46 0 .224.07.44.256.44m1.121-1.003h.284c.117 0 .182.028.233.075a.286.286 0 0 1 .082.211c0 .117-.056.231-.219.265v.003c.067.012.1.045.121.108l.155.443h-.15l-.127-.374c-.032-.09-.07-.127-.176-.127h-.063v.501h-.14zm.14.491h.108c.148 0 .205-.098.205-.195 0-.124-.08-.183-.203-.183h-.11z" mask="url(#a)" transform="translate(4 14)"/></g><path d="M0 1.814v-.228c.005-.016.003-.035.004-.052a.352.352 0 0 1 .086-.191c.006-.008.014-.013.024-.011.015.009.017.025.014.039-.006.041.013.064.048.08.008.003.015.009.022.013.03.013.056.033.085.047l.09.052.074.043c.031.016.06.034.09.051.03.016.06.033.088.051.035.017.067.039.102.058.035.018.068.039.103.058.036.02.072.042.108.061l.108.063c.04.02.077.044.116.065l.11.063c.04.02.077.045.116.067.037.019.072.041.11.062.03.015.058.034.088.05l.337.193c.45.255.898.512 1.347.767l1.44.823 1.31.747a890.534 890.534 0 0 1 1.353.774c.038.019.073.041.11.062a.966.966 0 0 1 .098.056c.041.021.08.044.12.068.04.02.078.045.118.067.045.024.09.051.134.077l.128.073c.035.018.068.039.103.058l.105.061.108.062c.037.02.074.039.11.062.04.02.078.045.118.067.04.021.08.045.12.067l.107.063c.04.02.076.043.114.065.035.019.07.038.103.059.043.022.085.049.128.072l.125.072c.04.022.08.043.12.068.027.017.06.026.08.053.004.015-.004.026-.012.038a.411.411 0 0 1-.143.135c-.31.186-.623.371-.934.556l-.913.542a.372.372 0 0 1-.196.039c-.09.002-.158-.048-.23-.089l-1.21-.683-.965-.546c-.015-.009-.032-.016-.048-.025-.039-.027-.083-.048-.125-.072a23.03 23.03 0 0 0-.51-.287l-.022-.014-.072-.042c-.027-.017-.059-.027-.084-.047a3.197 3.197 0 0 0-.1-.055c-.038-.026-.079-.044-.118-.068-.032-.02-.068-.038-.1-.057l-.12-.068a4.955 4.955 0 0 1-.099-.056c-.04-.024-.08-.043-.119-.067-.036-.021-.074-.04-.109-.062-.036-.021-.074-.039-.108-.063a2.059 2.059 0 0 1-.114-.061c-.035-.024-.073-.04-.108-.063-.033-.018-.067-.036-.099-.056-.024-.014-.05-.025-.074-.04-.032-.023-.07-.037-.102-.059-.034-.017-.065-.039-.1-.055-.03-.014-.034-.012-.034.021v.002c.002.339-.005.677-.007 1.014-.002.23.002.46-.005.69-.006.205.001.411-.004.616a11.36 11.36 0 0 0-.005.261c0 .01 0 .019-.007.027-.005.005-.01.004-.018.004a.394.394 0 0 1-.213-.067c-.134-.074-.267-.151-.4-.226L1.5 7.585l-.416-.237-.51-.29-.358-.203a.518.518 0 0 1-.122-.091.21.21 0 0 1-.063-.148c.001-.117-.008-.234-.006-.351.001-.084.002-.167 0-.251-.006-.274 0-.549-.006-.823-.005-.206.002-.412-.005-.617-.007-.216 0-.433-.004-.649-.004-.151 0-.302-.003-.454-.003-.27 0-.541-.003-.81 0-.118 0-.237-.002-.355v-.467c0-.007.002-.016-.002-.025" fill="#7fd4f5" mask="url(#a)" transform="translate(4 14)"/><path d="M.005 2.311H0v-.326c.002-.004.004-.003.005 0z" fill="#c0eafa" mask="url(#a)" transform="translate(4 14)"/><path d="M.005 1.985H0v-.171c.008.01.005.024.005.035z" fill="#a0dff8" mask="url(#a)" transform="translate(4 14)"/><path d="M7.246 0v.005c-.011.014-.024.014-.04.005V0z" fill="#a1d2ef" mask="url(#a)" transform="translate(4 14)"/><path d="M2.507 8.104V8.1h.016c.007-.007.014-.007.02.001v.004z" fill="#d6edf9" mask="url(#a)" transform="translate(4 14)"/><path d="M7.205 0v.005L7.202.01c-.01.005-.017.006-.023-.004V0z" fill="#d1f0fb" mask="url(#a)" transform="translate(4 14)"/><path d="M7.205.005h.042a.464.464 0 0 1 .134.041.16.16 0 0 1 .006.05L7.386 5.51c0 .02.009.043-.015.056a263.334 263.334 0 0 0-1.037-.59l-.67-.382a408.44 408.44 0 0 0-1.467-.839l-.714-.406-.823-.47-.753-.43-.325-.186c-.012-.014-.012-.03-.012-.047V.44c0-.02-.002-.04.01-.058l.343-.218c.066-.042.129-.089.203-.116a.56.56 0 0 1 .455.027c.115.055.223.121.333.182l1.914 1.065a.11.11 0 0 1 .052.02c.159.087.318.176.476.265l.514.286.428.238c.157.088.315.175.47.263.142.08.283.156.423.235.026.014.029.012.029-.018 0-.143.004-.287-.001-.43-.007-.167.002-.334-.005-.5-.008-.177.002-.353-.006-.528C7.202.985 7.21.817 7.204.65 7.196.474 7.202.3 7.199.123 7.198.094 7.192.066 7.194.035c0-.01 0-.022.01-.03" fill="#2e9adc" mask="url(#a)" transform="translate(4 14)"/><path d="m7.825.29.11.06c.01.005.017.01.026.017-.002.027 0 .055 0 .082v5.373c0 .016 0 .03-.002.047 0 .01 0 .022-.01.027-.045-.025-.09-.05-.135-.077a.035.035 0 0 1-.007-.026c.002-.027.001-.055.001-.083V.363L7.81.312c.001-.01.002-.021.016-.022" fill="#2d84cc" mask="url(#a)" transform="translate(4 14)"/><path d="M7.949 5.896V.403c0-.014-.004-.028.012-.036.04.02.08.042.118.066.009.014.011.03.011.047l-.001.023v5.433c-.001.012-.002.023-.011.033z" fill="#2c7ec8" mask="url(#a)" transform="translate(4 14)"/><path d="M9.076 1.002c.043.021.084.046.125.071a.204.204 0 0 1 .005.05L9.205 6.55c0 .018.008.04-.011.055a1.652 1.652 0 0 1-.13-.074c-.006-.017-.005-.037-.005-.055V1.024c.002-.01.003-.02.017-.021" fill="#2a51a8" mask="url(#a)" transform="translate(4 14)"/><path d="M9.194 6.607V1.12c0-.016-.002-.032.006-.046l.107.061c.008.005.017.008.021.018.003.059.002.118.002.178V6.65c0 .011 0 .02-.01.027-.044-.021-.085-.046-.126-.07" fill="#2a4ca4" mask="url(#a)" transform="translate(4 14)"/><path d="M9.319 6.677V1.185c0-.01-.006-.026.009-.032a.324.324 0 0 1 .125.15c-.004.02 0 .042 0 .063v5.352c0 .012-.003.022-.015.026a1.393 1.393 0 0 1-.12-.067" fill="#2946a1" mask="url(#a)" transform="translate(4 14)"/><path d="M8.507.677c.041.025.086.043.125.071.005.015.005.03.005.044V6.22c0 .02.008.045-.016.06l-.119-.069a.068.068 0 0 1-.006-.035V.701c.001-.009.002-.018.011-.024" fill="#2b67b8" mask="url(#a)" transform="translate(4 14)"/><path d="M7.825.29c-.01.012-.005.026-.005.04v5.42c0 .023 0 .047-.006.069l-.119-.067c-.006-.01-.006-.02-.006-.03V.297L7.69.246c.001-.011.002-.021.016-.022.041.02.08.043.12.067" fill="#2d88cf" mask="url(#a)" transform="translate(4 14)"/><path d="M7.706.222c-.01.013-.005.026-.005.04v5.441c0 .016 0 .033-.006.048l-.118-.067c-.008-.017-.007-.035-.007-.053V.228l.001-.05c.001-.01.002-.02.016-.023.04.024.082.04.12.067" fill="#2d8dd3" mask="url(#a)" transform="translate(4 14)"/><path d="M8.62 6.279c.006-.016.006-.031.006-.048V.789c0-.014-.005-.03.007-.04.04.02.08.043.118.067v5.503c-.001.01-.001.022-.011.028a1.403 1.403 0 0 1-.12-.068" fill="#2b63b5" mask="url(#a)" transform="translate(4 14)"/><path d="M8.3.56a.962.962 0 0 1 .108.061c.002.025.002.05.002.075v5.426c-.002.012-.005.023-.017.028-.036-.02-.073-.04-.109-.063a.055.055 0 0 1-.01-.036V.578C8.277.563 8.282.551 8.3.56" fill="#2c71bf" mask="url(#a)" transform="translate(4 14)"/><path d="M8.74 6.347V.86c0-.015-.007-.033.01-.043.036.021.075.038.11.062.005.018.004.035.004.054V6.37c0 .015-.003.03-.016.04a1.282 1.282 0 0 1-.109-.062" fill="#2b5eb2" mask="url(#a)" transform="translate(4 14)"/><path d="M8.848 6.409c.011-.11.004-.222.004-.333L8.853.919c0-.014-.005-.03.006-.04.037.018.073.039.108.06a.16.16 0 0 1 .006.05v5.435c0 .017.005.037-.01.05l-.115-.065" fill="#2a5aaf" mask="url(#a)" transform="translate(4 14)"/><path d="M8.393 6.15c.008-.014.005-.028.005-.043V.658c0-.013-.007-.029.01-.037a.809.809 0 0 1 .1.056v5.492c0 .014.001.029-.006.043l-.109-.062" fill="#2b6cbc" mask="url(#a)" transform="translate(4 14)"/><path d="M8.962 6.474V.975c0-.012 0-.023.005-.035.036.022.075.037.11.062-.01.013-.007.027-.007.04V6.49c0 .014.003.03-.005.043l-.103-.059" fill="#2a55ab" mask="url(#a)" transform="translate(4 14)"/><path d="M8.078 5.97c-.002-.006-.005-.012-.003-.019.005-.016.003-.034.003-.05V.433c.037.021.075.037.109.061a.082.082 0 0 1 .006.038v5.443c-.001.018.006.04-.012.054a1.732 1.732 0 0 1-.103-.06" fill="#2c79c5" mask="url(#a)" transform="translate(4 14)"/><path d="M8.18 6.029V.549c0-.02 0-.037.007-.054.036.025.078.038.113.064-.01 0-.015.004-.015.014v5.515z" fill="#2c75c2" mask="url(#a)" transform="translate(4 14)"/><path d="M7.587.155c-.009.013-.005.027-.005.04V5.64c0 .015.003.03-.005.043a3.113 3.113 0 0 1-.098-.056.054.054 0 0 1-.012-.038V.167L7.468.12c.001-.011.002-.022.016-.022.036.017.07.036.103.057" fill="#2e92d6" mask="url(#a)" transform="translate(4 14)"/><path d="M7.485.098c-.01.012-.006.026-.006.04v5.49l-.108-.062c.007-.014.005-.029.005-.043V.086c0-.013-.005-.027.005-.04.034.02.073.027.104.052" fill="#2e96d9" mask="url(#a)" transform="translate(4 14)"/><path d="M9.437 6.745c.007-.014.005-.028.005-.043V1.33c0-.01-.004-.022.01-.027a.561.561 0 0 1 .052.216c.011.176.01.35.012.527l.01.82.007.48.008.71.007.5.01.732c.001.178.004.354.006.532l.008.775a.39.39 0 0 1-.052.199l-.083-.05" fill="#29429e" mask="url(#a)" transform="translate(4 14)"/><path d="m4.875 6.755-.623.367-.023.012c-.014.004-.018-.006-.021-.016-.002-.01-.001-.019-.001-.028v-.67c0-.016-.005-.032.01-.043l.515.289.126.07c.007.004.017.006.017.018" fill="#293f9b" mask="url(#a)" transform="translate(4 14)"/><path d="m3.076 7.816-.114.067c-.01-.005-.011-.014-.011-.024V5.692c0-.011.002-.022.016-.022a.975.975 0 0 1 .109.061c.013.018.01.039.01.06v1.976a.084.084 0 0 1-.01.049" fill="#2d80ca" mask="url(#a)" transform="translate(4 14)"/><path d="M2.695 8.043a.243.243 0 0 1-.1.047c-.01-.006-.01-.016-.011-.026v-2.58c.002-.01.003-.02.017-.021a.71.71 0 0 1 .093.052.194.194 0 0 1 .005.049v2.43c0 .017-.002.033-.004.049" fill="#2e95d8" mask="url(#a)" transform="translate(4 14)"/><path d="M2.967 5.67c-.007.008-.005.018-.005.026v2.187c-.03.02-.061.038-.093.055-.015 0-.019-.01-.021-.022-.002-.01-.001-.022-.001-.033V5.668c0-.01-.001-.022.001-.033.001-.012.006-.023.02-.023.034.018.068.036.099.057" fill="#2d86ce" mask="url(#a)" transform="translate(4 14)"/><path d="M2.695 8.043c-.01-.008-.007-.02-.007-.028V5.54c0-.01-.002-.02.006-.027.034.018.069.035.1.057-.004.01-.001.02-.001.029l-.001 2.335c0 .019.003.04-.011.056-.027.02-.057.036-.086.052" fill="#2d8fd4" mask="url(#a)" transform="translate(4 14)"/><path d="m3.076 7.816-.001-.025v-2.06c.039.021.078.038.113.064a.1.1 0 0 1 .007.042V7.71a.12.12 0 0 1-.005.038c-.036.026-.076.046-.114.068" fill="#2c7ac5" mask="url(#a)" transform="translate(4 14)"/><path d="M3.19 7.748c-.009-.008-.006-.02-.006-.028V5.822c0-.01-.002-.02.004-.027a.893.893 0 0 1 .11.06.128.128 0 0 1 .005.044V7.64c0 .015 0 .03-.008.045-.033.024-.069.043-.105.062" fill="#2c75c2" mask="url(#a)" transform="translate(4 14)"/><path d="M3.296 7.685c-.005-.01-.003-.02-.003-.03V5.888c0-.01-.003-.022.004-.032a.956.956 0 0 1 .109.061c.007.011.006.024.006.036V7.58l-.002.038a1.174 1.174 0 0 1-.114.067" fill="#2c6fbd" mask="url(#a)" transform="translate(4 14)"/><path d="M3.41 7.618C3.4 7.61 3.4 7.6 3.4 7.59V5.953c0-.012.003-.023.006-.035.04.02.081.042.12.067v1.5c0 .023 0 .045-.005.068a1.127 1.127 0 0 1-.112.065" fill="#2b69b9" mask="url(#a)" transform="translate(4 14)"/><path d="m1.38.51.109-.069c.009.006.01.015.01.024v1.702c0 .016.005.031-.005.045l-.11-.062c-.01-.008-.014-.02-.015-.034V.568c0-.02-.003-.04.01-.058" fill="#37a1df" mask="url(#a)" transform="translate(4 14)"/><path d="M2.781 7.99V5.606c0-.011-.009-.03.013-.033.025.015.051.023.074.04-.014.01-.01.024-.01.036v2.254c0 .013-.005.028.011.037-.027.022-.06.032-.088.052" fill="#2d8bd1" mask="url(#a)" transform="translate(4 14)"/><path d="M1.38.51v1.601c0 .012-.001.026.005.04l-.118-.069c-.008-.01-.007-.022-.007-.034V.62c0-.012 0-.026.006-.038.037-.025.074-.05.114-.072" fill="#3da5e1" mask="url(#a)" transform="translate(4 14)"/><path d="M1.493 2.212c-.005-.01-.005-.022-.005-.035V.441c.03-.02.061-.04.093-.059v1.881l-.088-.05" fill="#329ddd" mask="url(#a)" transform="translate(4 14)"/><path d="M3.522 7.552c-.01-.009-.007-.02-.007-.029v-1.51c0-.01-.005-.023.01-.028.034.016.067.035.099.054.012.016.01.034.01.053v.901c0 .164-.001.328.002.492-.036.025-.076.045-.114.067" fill="#2b63b5" mask="url(#a)" transform="translate(4 14)"/><path d="M1.265.583a.07.07 0 0 1 .006.035v1.427a.152.152 0 0 1-.005.038l-.108-.062c-.013-.015-.012-.034-.012-.051V.7c0-.016-.002-.034.011-.05.035-.023.071-.046.108-.067" fill="#43aae3" mask="url(#a)" transform="translate(4 14)"/><path d="M2.6 5.463c-.008.009-.005.02-.005.029V8.09c-.016.008-.035.008-.052.01l-.02-.001a165.459 165.459 0 0 1 .01-1.41c.005-.248.002-.497.006-.745.003-.16.002-.32.004-.482 0-.034 0-.034.03-.019l.028.02" fill="#2e99db" mask="url(#a)" transform="translate(4 14)"/><path d="M3.635 7.485c-.007-.002-.011-.007-.011-.015l-.002-.015V6.06l.002-.021c.04.02.08.044.118.068.006.017.005.034.005.052v1.175l.001.083a1.4 1.4 0 0 1-.113.067" fill="#2b5eb1" mask="url(#a)" transform="translate(4 14)"/><path d="M1.157.65v1.37c-.039-.02-.078-.04-.114-.065-.006-.012-.006-.024-.006-.035V.748c0-.01 0-.018.006-.025.037-.026.075-.05.114-.072" fill="#49aee5" mask="url(#a)" transform="translate(4 14)"/><path d="M3.749 7.418c-.011-.003-.012-.011-.012-.021V6.146c0-.013-.004-.027.006-.038.036.018.07.037.103.058a.086.086 0 0 1 .01.045v1.105a.082.082 0 0 1-.01.044.802.802 0 0 1-.097.057" fill="#2a58ad" mask="url(#a)" transform="translate(4 14)"/><path d="M1.044.723a.124.124 0 0 1 .005.043v1.15c0 .013.002.027-.005.038a.605.605 0 0 1-.108-.062C.92 1.877.925 1.86.925 1.842l-.001-.793V.835c0-.015 0-.03.012-.044.035-.024.07-.047.108-.068" fill="#4fb2e7" mask="url(#a)" transform="translate(4 14)"/><path d="M3.845 7.36V6.166l.095.052c.008.004.017.007.022.016.006.014.003.028.003.043v.966c0 .017.005.035-.006.05-.036.026-.075.046-.114.067" fill="#2a52a9" mask="url(#a)" transform="translate(4 14)"/><path d="M.936.792v1.1a.683.683 0 0 1-.11-.061c-.01-.011-.01-.023-.01-.036V.898A.07.07 0 0 1 .826.86l.11-.068" fill="#55b6e8" mask="url(#a)" transform="translate(4 14)"/><path d="M3.96 7.293c-.009-.045-.006-.091-.006-.136V6.28c0-.016 0-.032.008-.047a.705.705 0 0 1 .101.056.194.194 0 0 1 .005.054v.834a.232.232 0 0 1-.005.053c-.032.025-.069.042-.104.062" fill="#2a4ca4" mask="url(#a)" transform="translate(4 14)"/><path d="M.827.86v.97c-.037-.014-.07-.036-.104-.057-.015-.011-.016-.027-.016-.044v-.75C.707.964.706.947.714.93L.827.86" fill="#5abaea" mask="url(#a)" transform="translate(4 14)"/><path d="M.714.931C.72.943.719.956.719.97v.766c0 .012-.002.026.005.038L.62 1.716c-.01-.014-.01-.028-.01-.045v-.64c0-.013 0-.026.005-.038C.647.97.68.95.714.931" fill="#60bfec" mask="url(#a)" transform="translate(4 14)"/><path d="M4.064 7.231c-.01-.008-.006-.019-.006-.029v-.883c0-.011-.003-.022.006-.029.026.017.058.025.082.045v.805c0 .016 0 .031-.005.046-.023.019-.053.028-.077.045" fill="#2948a2" mask="url(#a)" transform="translate(4 14)"/><path d="M4.14 7.186c-.006-.01-.006-.023-.006-.035v-.78c.001-.013-.003-.027.011-.036a.5.5 0 0 1 .072.041v.732c0 .01-.002.021.012.025a.72.72 0 0 1-.089.053" fill="#29439f" mask="url(#a)" transform="translate(4 14)"/><path d="M.615.993c.007.012.005.025.005.038v.686C.591 1.699.562 1.68.532 1.665a.068.068 0 0 1-.011-.04V1.08a.06.06 0 0 1 .006-.03c.029-.02.059-.037.088-.056" fill="#65c2ee" mask="url(#a)" transform="translate(4 14)"/><path d="M.527 1.048c.007.012.006.024.006.038v.578a.781.781 0 0 1-.088-.052c-.007-.01-.006-.023-.006-.035v-.442c0-.012 0-.025.005-.035a.643.643 0 0 1 .083-.052" fill="#69c5ef" mask="url(#a)" transform="translate(4 14)"/><path d="M.444 1.1c.006.01.005.021.005.032v.45c0 .011 0 .021-.005.031l-.077-.04a.08.08 0 0 1-.01-.046V1.19c0-.015 0-.03.01-.042.025-.017.05-.034.077-.047" fill="#6dc8f0" mask="url(#a)" transform="translate(4 14)"/><path d="M.367 1.147v.425L.279 1.52a.066.066 0 0 1-.011-.039v-.242c0-.015.002-.028.01-.039z" fill="#72cbf2" mask="url(#a)" transform="translate(4 14)"/><path d="M.279 1.2v.32l-.083-.047A.121.121 0 0 1 .19 1.43v-.146c0-.01 0-.02.006-.026A.475.475 0 0 1 .279 1.2" fill="#76cef3" mask="url(#a)" transform="translate(4 14)"/><path d="M.197 1.257c.01.066.002.134.003.201l-.003.015-.024-.012C.133 1.444.11 1.415.12 1.366c.002-.01-.003-.022-.005-.033a.4.4 0 0 1 .083-.076" fill="#7bd2f4" mask="url(#a)" transform="translate(4 14)"/><path d="M7.205.005c.006.194 0 .388.006.581.004.17 0 .34.005.51.006.172 0 .345.006.517.004.172 0 .343.004.515.006.168.003.337.005.506 0 .03 0 .03-.025.016l-.8-.447-.75-.417-.818-.456a.04.04 0 0 1-.01-.008l.548-.319L6.653.26C6.75.202 6.85.144 6.95.088a.638.638 0 0 1 .229-.084.217.217 0 0 0 .026.001" fill="#7fd5f6" mask="url(#a)" transform="translate(4 14)"/></g></svg>