<svg width="36" height="36" xmlns="http://www.w3.org/2000/svg"><g fill="none"><path d="M18 0c2.837 0 5.52.656 7.907 1.825C31.884 4.753 36 10.895 36 18c0 9.942-8.058 18-18 18-9.94 0-18-8.057-18-18C0 8.06 8.06 0 18 0z" fill="#F2F4F7"/><path d="M5.348 20.664H4v-4.585h2.332l2.675 3.423v-3.423h1.348v4.585H8.07l-2.722-3.481v3.48m11.457-1.417c0 .638-.112.857-.299 1.068-.286.314-.702.408-1.504.408H12.7c-.802 0-1.218-.094-1.504-.408-.186-.21-.3-.43-.3-1.068V17.48c0-.637.114-.857.3-1.068.286-.314.702-.408 1.504-.408h2.302c.802 0 1.218.094 1.504.408.187.211.3.43.3 1.068v1.767m-1.86.314c.307 0 .416-.018.49-.085.069-.063.1-.143.1-.413v-1.4c0-.269-.031-.349-.1-.412-.074-.067-.183-.085-.49-.085h-2.19c-.307 0-.416.018-.49.085-.069.063-.099.144-.099.413v1.4c0 .269.03.35.1.412.073.067.182.085.49.085h2.188zm3.819-3.48v4.584h-1.409V16.08h1.409m2.38 0h1.86l-2.51 2.145 2.83 2.44h-1.99l-2.57-2.391 2.38-2.194zm2.44 0h1.41v4.585h-1.41V16.08zm6.78 4.585-.416-.799h-2.726l-.412.799h-1.556l2.497-4.585h1.75L32 20.664h-1.634m-2.654-1.795h1.752l-.876-1.66-.876 1.66z" fill="#1C4598"/></g></svg>