<svg height="36" viewBox="0 0 36 36" width="36" xmlns="http://www.w3.org/2000/svg"><mask id="a" fill="#fff"><path d="M0 0h26v17.938H0z" fill-rule="evenodd"/></mask><g fill="none" fill-rule="evenodd"><path d="M18 0c2.837 0 5.52.656 7.907 1.825C31.884 4.753 36 10.895 36 18c0 9.942-8.058 18-18 18-9.94 0-18-8.057-18-18C0 8.06 8.06 0 18 0z" fill="#f2f4f7" fill-rule="nonzero"/><path d="M25.203 13.427c.358 0 .66.292.66.637 0 .345-.302.637-.66.637s-.659-.292-.659-.637c0-.345.302-.637.66-.637zm0-.133a.784.784 0 0 0-.796.77c0 .425.356.769.796.769.44 0 .797-.344.797-.77a.784.784 0 0 0-.797-.769zm-.357 1.195h.137v-.346h.083c.11 0 .165.027.275.213l.054.133h.194l-.11-.16c-.11-.159-.165-.186-.22-.212.191 0 .246-.133.246-.239 0-.053-.027-.106-.083-.16-.053-.052-.164-.052-.274-.052h-.302zm.137-.717h.165c.083 0 .22 0 .22.132 0 .134-.137.134-.22.134h-.165zM6.46 5.44c.192.318.577-.213.522-.319-.027-.08-.714 0-.522.319zm4.123.901c.055.558-.11 1.01-.11 1.089 0 .132.165.159.275.106.22-.133.357-.504.357-1.115 0-.132 0-.185-.247-.24-.248-.025-.303-.025-.275.16zm4.232 2.627c.66.053 1.127.266 1.567.505.137.08.577.398.742-.398.055-.185.137-.61.137-.796.028-.16.275-1.99-.742-1.99-.165.026-.137.08-.11.132.055.08.11.187.137.345.11.425.028.664-.136.823-.166.132-.468.16-.523-.08-.192-.663-.467-1.247-1.017-1.168-.11.027-.11.107-.055.24.027.133.11.45.138.716.027.345-.138.504-.386.637-.411.24-1.456.398-2.198.212-.44-.132-.468-.45-.468-.583s.028-.584 0-.717c-.027-.318-.054-.478-.274-.504-.302-.027-.193.026-.22.319 0 0 0 1.22-.935 1.193-.22 0-.33-.212-.302-.371.082-.345.138-.664.138-1.035-.028-.265 0-.345-.578-.53-.66-.186-.604-.186-.934.29-.22.293-.495.824-.632 1.168-.247.69-.028 1.141.165 1.434.083.185.385.45.742.636.687.425 1.237.77 1.732 1.142.164.132.247.16.247-.16.028-1.035 1.071-1.3 1.182-1.353.412-.133 1.209-.212 2.583-.107zm.852-2.467c.22.239.357.637.385.822.027.16.275.107.302-.053.056-.238-.027-.663-.22-.876a.446.446 0 0 0-.385-.105c-.164.026-.22.08-.082.212zm-3.49 1.008c0 .292.247.345.412.398.412.107 1.237.08 1.814-.186.44-.185.192-.928.11-1.087-.083-.187-.247-.266-.468-.24-.137.027-.494.027-.796.027-.248 0-.44-.027-.852-.027-.302-.027-.275.107-.248.293.055.345.027.716.027.822zM6.073 5.254c-.027.08-.027.318-.11.424-.055.054-.164.213-.302.372-.165.212-.028.291.164.504.166.212.606 0 1.073.345.247.186.33.345.631.796.11.16.166.08.247-.132.111-.319.523-1.142.826-1.593.11-.132.247-.318.055-.45-.166-.106-.522-.266-.88-.479-.66-.345-.99-.557-1.236-.372-.247.213-.44.48-.468.585zm.825-3.557c0-.716.605-1.3 1.346-1.3s1.347.585 1.347 1.3c0 .718-.605 1.301-1.347 1.301S6.9 2.415 6.9 1.698zm1.264 2.177c1.127 0 2.006-.876 2.006-1.937 0-1.088-.879-1.938-2.006-1.938-1.1 0-2.007.85-2.007 1.938 0 1.061.907 1.937 2.007 1.937zm9.427 3.423c0 .053.028.398-.027.982-.056.371-.138.663-.083.956.055.265.22 1.193.275 1.273s.165.027.165-.053c0-.053.082-2.494-.138-3.105-.082-.185-.164-.212-.192-.053zM9.482 3.874c.138-.08.22-.133.275-.186.22-.186.302-.08.083.239-.275.424-.687.716-1.21.955-.11.053-.247.107 0 .212.192.08.688.266 1.127.398.247.08 1.951.637 3.546.637 1.182 0 2.226-.159 2.83-.212.44-.026 1.43-.106 1.924.743.413.69.303 2.919.33 3.424.027.344 0 3.316 0 3.556 0 .185 0 .318-.137.345h-.825c-.22 0-.192.079-.192.132 0 .106.027.239-.22.239h-.824c-.11 0-.194-.133-.083-.318 1.045-1.831.962-3.212.357-3.981-.049.138-.086.28-.11.424-.083.425-.164.611-.275.69-1.072.85-1.621 2.096-1.868 2.76-.055.133-.138.08-.193.133-.083.106.082.292-.247.292h-.88c-.137 0-.22-.16-.082-.345.33-.398 2.253-2.123 2.143-3.954 0-.08-.055-.451-.137-.53 0-.027-.33-.293-1.017.264-.082.053-.082.053-.193-.026-.11-.053-.934-.345-1.538-.16-.386.107-.853.585-.66 1.3.247 1.036.797 1.911.99 2.947.026.186-.111.132-.166.212-.083.106.083.292-.247.292h-.852c-.138 0-.247-.053-.138-.371.028-.107.055-.266.11-.584.028-.32 0-.637-.055-1.009-.192-1.167-.879-1.751-1.43-2.096-.356.239-.96 2.017-1.152 3.21-.028.186-.028.24-.028.266-.028.318-.193.213-.248.292-.083.106.055.293-.275.293h-.797c-.164 0-.192-.16-.055-.372.495-.876 1.292-2.256 1.292-3.716 0-.16 0-.663-.248-.955-.549-.637-.851-1.38-1.126-1.857-.192-.345-.495-.425-.66-.478-.193-.053-.357.026-.577-.08-.055-.053-.192-.238-.33-.371-.11-.133-.22-.318-.082-.478.247-.292.467-.505.494-.69 0-.026-.027-.133 0-.186.055-.133.275-.371.413-.557.082-.08.027-.212-.11-.372-.138-.132-.523-.663-.523-1.512 0-.345.11-.318.193-.106.11.239.467 1.247 1.593 1.539 1.046.265 1.733-.026 2.09-.292zm-2.61 11.57c0-.053-.028-.053-.056-.053H6.57c-.055 0-.055.026-.055.08l-.66 1.804-.659-1.805c-.028-.08-.056-.08-.11-.08h-.303c-.027 0-.082 0-.082.054 0 .026 0 .053.027.08l.907 2.282c0 .053.028.053.055.08h.192c.056 0 .083-.027.11-.08l.853-2.283c.027-.053.027-.079.027-.079zm1.84 1.195c0 .45-.109.742-.246.875-.138.132-.248.158-.44.158a.51.51 0 0 1-.413-.158c-.137-.133-.247-.425-.247-.875 0-.452.11-.744.247-.877.138-.106.248-.159.412-.159a.64.64 0 0 1 .44.159c.138.133.248.425.248.877zm.44 0c0-.558-.192-.93-.467-1.116a1.121 1.121 0 0 0-.66-.185c-.22 0-.467.053-.632.185-.302.186-.467.558-.467 1.116 0 .582.165.953.467 1.14.165.107.413.16.632.16.248 0 .467-.053.66-.16.275-.187.468-.558.468-1.14zm-4.975 0c0 .45-.11.742-.247.875-.137.132-.247.158-.44.158a.512.512 0 0 1-.412-.158c-.138-.133-.247-.425-.247-.875 0-.452.11-.744.247-.877.137-.106.248-.159.412-.159.193 0 .303.053.44.159.138.133.247.425.247.877zm.44 0c0-.558-.192-.93-.467-1.116a1.123 1.123 0 0 0-.659-.185c-.22 0-.468.053-.632.185-.303.186-.467.558-.467 1.116 0 .582.164.953.467 1.14.164.107.412.16.632.16.247 0 .467-.053.66-.16.274-.187.466-.558.466-1.14zm-2.61 1.14v-1.645c0-.293-.029-.796-1.018-.796-.384 0-.632.08-.77.106-.165.053-.22.132-.22.212v2.123c0 .08.028.107.083.107H.33c.083 0 .11-.027.11-.107v-1.964c0-.106.193-.212.524-.212.603 0 .603.345.603.584v1.592c0 .08.028.107.11.107h.248c.054-.027.082-.054.082-.107zm20.31-.584c0-.796-1.209-.663-1.209-1.194 0-.186.138-.371.413-.371.301 0 .356.185.521.185a.18.18 0 0 0 .166-.185c0-.186-.303-.292-.66-.292-.44 0-.852.238-.852.69 0 .424.303.584.66.742.302.107.577.213.577.478 0 .213-.165.424-.522.424-.358 0-.44-.238-.605-.238-.082 0-.193.027-.193.158 0 .187.386.347.798.347.44 0 .906-.213.906-.744zm.797.61v-3.237c0-.08-.027-.08-.11-.08h-.247c-.054 0-.082 0-.082.08v3.238c0 .053 0 .08.082.08h.247c.083 0 .11 0 .11-.08zm1.512.027c0-.026-.027-.053-.027-.08l-.962-1.193c.33-.24.687-.61.88-1.009.027-.053.027-.08.027-.106 0-.053-.028-.053-.083-.053h-.22c-.11 0-.137 0-.164.08-.138.397-.495.848-.88 1.06l-.027.028.027.026.88 1.22c.055.08.055.08.136.08h.358s.055-.026.055-.053zm-4.397-.053v-2.282c0-.08-.028-.106-.11-.106h-.248c-.082 0-.082.026-.082.106v2.282c0 .08 0 .107.055.107h.274c.083 0 .11-.027.11-.107zm.027-3.078a.242.242 0 0 0-.245-.24h-.002c-.165 0-.275.107-.275.267 0 .132.11.238.275.238.164 0 .275-.133.247-.265zm-1.512 2.76c0 .131-.192.212-.44.212-.466 0-.797-.398-.797-1.061 0-.585.303-.982.77-.982.248 0 .385.079.467.159zm.44.158v-3.025c0-.08-.028-.08-.082-.08h-.247c-.083 0-.111.027-.111.107v.85a1 1 0 0 0-.522-.133c-.77 0-1.182.716-1.182 1.3 0 .876.495 1.3 1.265 1.3.357 0 .88-.159.88-.319zm-2.17-2.043c0-.159-.304-.238-.661-.238-.247 0-.44.053-.55.08-.164.026-.247.105-.247.185v2.203c0 .053.055.08.11.08h.248c.054 0 .11-.027.11-.08v-2.017c0-.133.082-.213.247-.213.303 0 .358.213.522.213.11 0 .22-.053.22-.213zm-2.228 1.063c0 .45-.11.742-.247.875s-.247.158-.412.158c-.192 0-.302-.026-.44-.158-.137-.133-.246-.425-.246-.875 0-.452.11-.744.247-.877a.637.637 0 0 1 .44-.159c.164 0 .274.053.411.159.138.133.247.425.247.877zm.44 0c0-.558-.164-.93-.467-1.116-.165-.132-.412-.185-.632-.185-.247 0-.467.053-.66.185-.275.186-.467.558-.467 1.116 0 .582.192.953.467 1.14.193.107.412.16.66.16.22 0 .467-.053.632-.16.303-.187.468-.558.468-1.14zm-2.61 1.14v-1.645c0-.293 0-.796-1.017-.796-.358 0-.633.08-.77.106-.166.053-.22.132-.22.212v2.123c0 .08.028.107.082.107h.247c.083 0 .11-.027.11-.107v-1.964c0-.106.193-.212.55-.212.577 0 .577.345.577.584v1.592c0 .08.028.107.11.107h.276c.054-.027.054-.054.054-.107z" fill="#30528e" mask="url(#a)" transform="translate(5 7)"/></g></svg>