<svg width="36" height="36" fill="none" xmlns="http://www.w3.org/2000/svg"><path d="M18 0c2.837 0 5.52.656 7.907 1.825C31.884 4.753 36 10.895 36 18c0 9.942-8.058 18-18 18-9.94 0-18-8.057-18-18C0 8.06 8.06 0 18 0z" fill="#F2F4F7"/><path d="M15.616 19.27h-.85l1.104-2.803h-.85l1.19-3.018h-.85L16.72 10h.85l-1.02 2.587h.85l-1.19 3.018h.85l-1.444 3.665z" fill="#83898C"/><path d="M13.338 23.998a.9.9 0 0 0-.152-.624.754.754 0 0 0-.586-.176h-1.495c-.047 0-.063.018-.063.07v2.006c0 .053.016.071.063.071h.46c.047 0 .063-.018.063-.07v-.9c0-.018.008-.036.018-.036.01 0 .023.033.029.047l.167.365a.063.063 0 0 0 .068.047h.69a.753.753 0 0 0 .586-.176.9.9 0 0 0 .152-.624zm-.585 0a.325.325 0 0 1-.053.23c-.047.053-.11.058-.204.058h-.82c-.032 0-.047-.017-.047-.053v-.47c0-.036.015-.054.047-.054h.82c.095 0 .157.006.204.06a.326.326 0 0 1 .053.229zm3.46.274c0-.577-.041-.739-.167-.88-.125-.142-.34-.223-1.14-.223-.8 0-1.014.082-1.14.223-.125.14-.167.302-.167.88 0 .577.042.738.168.879.125.141.34.224 1.14.224.8 0 1.014-.083 1.14-.224.125-.141.167-.303.167-.88zm-.584 0c0 .282-.016.408-.078.479-.063.07-.173.088-.644.088-.47 0-.58-.018-.643-.088-.063-.07-.078-.197-.078-.48 0-.282.015-.408.078-.479.063-.07.17-.088.643-.088s.58.017.644.088c.062.07.078.197.078.48zm4.34-1.021a.037.037 0 0 0-.004-.018.044.044 0 0 0-.025-.026.046.046 0 0 0-.019-.003h-.45c-.062 0-.072.032-.088.1l-.38 1.524c-.004.018-.01.03-.025.03-.016 0-.02-.012-.026-.03l-.38-1.523c-.018-.071-.026-.101-.088-.101h-.654c-.063 0-.07.03-.09.1l-.378 1.524c-.005.018-.01.03-.026.03-.015 0-.02-.012-.027-.03l-.378-1.523c-.019-.071-.027-.101-.09-.101h-.46a.046.046 0 0 0-.033.013.045.045 0 0 0-.014.034c.003.03.01.06.02.088l.435 1.582a.76.76 0 0 0 .136.312.422.422 0 0 0 .308.112h.455c.063 0 .078-.018.094-.083l.343-1.44c.005-.018.01-.03.026-.03.015 0 .02.011.026.03l.259 1.1a.71.71 0 0 0 .13.311.422.422 0 0 0 .309.112h.455c.063 0 .07-.006.089-.076l.528-1.93a.355.355 0 0 0 .02-.088h.001zm2.272 2.023v-.364c0-.053-.015-.071-.062-.071h-1.37a.132.132 0 0 1-.095-.03.177.177 0 0 1-.026-.105v-.605c0-.02.005-.036.016-.036.016 0 .023.03.031.047l.157.347a.07.07 0 0 0 .073.047h1.11c.046 0 .06-.044.04-.082l-.166-.365a.07.07 0 0 0-.073-.047h-1.14c-.032 0-.047-.018-.047-.053v-.117a.176.176 0 0 1 .026-.106.132.132 0 0 1 .094-.03h1.365c.047 0 .063-.017.063-.07v-.366c0-.053-.016-.07-.063-.07h-1.34c-.25 0-.46.023-.584.164a1.006 1.006 0 0 0-.146.659v.5c-.029.23.023.463.146.659.126.14.335.165.585.165h1.344c.047 0 .062-.018.062-.071zm2.714 0v-.37a.407.407 0 0 0-.078-.277.314.314 0 0 0-.24-.106s-.017-.003-.017-.015.016-.014.016-.014a.281.281 0 0 0 .194-.107.738.738 0 0 0 .12-.476.798.798 0 0 0-.151-.535.755.755 0 0 0-.585-.177H22.63c-.047 0-.063.018-.063.071v2.006c0 .053.016.07.063.07h.46c.047 0 .063-.017.063-.07v-.9c0-.017.007-.035.018-.035.01 0 .02.03.029.047l.167.364a.063.063 0 0 0 .068.048h.674a.257.257 0 0 1 .21.059c.044.07.063.153.052.235v.181c0 .053.015.071.063.071h.46c.047 0 .063-.018.063-.07h-.002zm-.59-1.277a.326.326 0 0 1-.052.23c-.047.052-.11.058-.204.058h-.91c-.03 0-.047-.018-.047-.053v-.47c0-.035.016-.053.048-.053h.91c.093 0 .156.006.203.06a.326.326 0 0 1 .053.229M8.573 22.334V20.33c0-.053-.016-.07-.063-.07h-.455c-.045 0-.063.017-.063.07v1.546c0 .018-.008.03-.023.03-.016 0-.024-.024-.034-.04l-.821-1.383a.47.47 0 0 0-.162-.17.501.501 0 0 0-.262-.053h-.627c-.047 0-.063.017-.063.07v2.006c0 .053.016.07.063.07h.455c.047 0 .062-.017.062-.07v-1.547c0-.017.008-.03.024-.03s.024.024.034.041l.82 1.383c.04.069.095.128.162.17.081.041.172.06.262.053h.628c.047 0 .063-.018.063-.07zm2.944-1.002c0-.577-.042-.739-.167-.88-.125-.141-.34-.224-1.14-.224-.8 0-1.015.083-1.14.224-.126.14-.168.302-.168.88 0 .577.042.738.168.879.125.141.34.224 1.14.224.8 0 1.014-.083 1.14-.224.126-.141.167-.303.167-.88zm-.585 0c0 .282-.016.408-.078.479-.063.07-.173.088-.643.088-.471 0-.58-.018-.643-.088-.063-.07-.079-.197-.079-.48 0-.282.016-.408.079-.479.062-.07.17-.088.643-.088s.58.018.643.088c.051.155.078.317.078.48zm3.305 1.002v-.37a.406.406 0 0 0-.079-.277.314.314 0 0 0-.24-.106s-.016-.003-.016-.014c0-.012.016-.015.016-.015a.284.284 0 0 0 .194-.106.738.738 0 0 0 .12-.476.796.796 0 0 0-.151-.536.754.754 0 0 0-.585-.176h-1.584c-.047 0-.063.018-.063.07v2.006c0 .053.016.07.063.07h.46c.047 0 .063-.017.063-.07v-.9c0-.018.008-.035.018-.035.01 0 .02.03.029.047l.167.365a.064.064 0 0 0 .068.047h.674a.259.259 0 0 1 .21.059c.044.07.063.153.052.235v.182c0 .053.016.07.063.07h.46c.047 0 .063-.017.063-.07h-.002zm-.59-1.277a.325.325 0 0 1-.052.23c-.046.053-.11.058-.204.058h-.91c-.03 0-.047-.017-.047-.053v-.47c0-.036.016-.053.048-.053h.91c.094 0 .157.006.203.059a.327.327 0 0 1 .053.23zm2.993-.345v-.383c0-.053-.015-.07-.063-.07h-2.002c-.047 0-.058.02-.063.035l-.136.376a.28.28 0 0 0-.02.077c0 .023.02.035.047.035h.842c.031 0 .047.017.047.053v1.5c0 .053.016.07.063.07h.46c.047 0 .063-.017.063-.07v-1.27c0-.03-.006-.065-.032-.077l-.319-.153c-.015-.009-.031-.018-.031-.03s.016-.023.031-.023h1.051c.047 0 .063-.018.063-.07zm2.689 1.623v-2.006c0-.053-.016-.07-.063-.07h-.46c-.047 0-.063.017-.063.07v.676c0 .036-.015.053-.047.053h-1.203c-.03 0-.047-.017-.047-.053v-.676c0-.053-.015-.07-.062-.07h-.46c-.048 0-.063.017-.063.07v2.005c0 .054.016.071.063.071h.46c.047 0 .062-.017.062-.07v-1.189c0-.017.008-.035.019-.035.01 0 .02.03.029.047l.167.365a.063.063 0 0 0 .068.047h.968c.032 0 .047.018.047.053v.712c0 .053.016.07.063.07h.46c.047 0 .063-.017.063-.07h-.001zm2.202 0v-.37c0-.054-.016-.071-.063-.071h-1.082a.132.132 0 0 1-.094-.03.177.177 0 0 1-.026-.106v-1.43c0-.052-.016-.07-.063-.07h-.46c-.047 0-.063.018-.063.07v1.254c0 .282.016.524.141.665.126.141.34.159.591.159h1.056c.047 0 .063-.018.063-.07v-.001zm2.928.036a.158.158 0 0 0-.02-.065l-.9-1.795a.484.484 0 0 0-.167-.206.531.531 0 0 0-.266-.047h-.408a.08.08 0 0 0-.073.053l-1 1.994a.15.15 0 0 0-.02.065c0 .023.017.035.043.035h.523c.044 0 .065-.012.094-.07l.34-.73c.007-.018.015-.04.031-.04s.024.023.031.04l.161.353a.067.067 0 0 0 .069.047h.745l.154.33c.029.058.047.07.094.07h.528c.026 0 .042-.012.042-.035zm-1.066-.872c-.005.012-.015.012-.03.012h-.665c-.016 0-.026 0-.032-.012-.005-.011.008-.041.016-.059l.317-.688c.007-.017.015-.041.03-.041.016 0 .027.027.032.041l.317.688c.01.02.02.047.015.06zm3.746.835V20.33c0-.053-.015-.07-.062-.07h-.455c-.044 0-.063.017-.063.07v1.546c0 .018-.008.03-.023.03-.016 0-.024-.024-.034-.04l-.821-1.383a.472.472 0 0 0-.162-.17.5.5 0 0 0-.262-.053h-.627c-.047 0-.063.017-.063.07v2.006c0 .053.016.07.063.07h.455c.047 0 .063-.017.063-.07v-1.547c0-.017.007-.03.023-.03s.023.024.034.041l.821 1.383a.47.47 0 0 0 .162.17c.08.041.171.06.262.053h.627c.047 0 .063-.018.063-.07zM30 21.332c0-.56-.042-.739-.167-.88a.822.822 0 0 0-.612-.194h-1.668c-.047 0-.063.018-.063.07v2.006c0 .053.016.07.063.07h.46c.047 0 .063-.017.063-.07v-.352c0-.017.008-.035.018-.035.01 0 .02.03.029.047l.17.37a.067.067 0 0 0 .068.041h.86a.824.824 0 0 0 .612-.194c.125-.141.167-.32.167-.88zm-.585 0c0 .282-.015.409-.078.48a.388.388 0 0 1-.298.081h-.915c-.031 0-.047-.018-.047-.053v-1.017c0-.035.016-.053.047-.053h.915a.397.397 0 0 1 .298.082c.063.07.078.197.078.48z" fill="#000"/><path d="m17.57 10.001-1.02 2.586h.85l-1.19 3.019h.85l-1.445 3.664h5.608l-3.654-9.269z" fill="#00743F"/></svg>