<svg width="36" height="36" fill="none" xmlns="http://www.w3.org/2000/svg"><path d="M18 0c2.837 0 5.52.656 7.907 1.825C31.884 4.753 36 10.895 36 18c0 9.942-8.058 18-18 18-9.94 0-18-8.057-18-18C0 8.06 8.06 0 18 0z" fill="#F2F4F7"/><path d="m11.641 23.193.433-1.29.434 1.29h-.867zm2.675 2.148c-.173-.193-.52-.79-.704-1.215-.183-.424-1.516-3.903-1.516-3.903h-.043s-1.333 3.479-1.517 3.903c-.183.424-.53 1.022-.704 1.215h1.224c-.026-.402.14-.812.234-1.067.095-.255.208-.526.208-.526h1.153s.113.271.207.526c.095.255.26.665.234 1.067h1.224zM5 20.228c.303.244.446.37.69.69v3.077c0 .093-.01.816-.168 1.346h1.084c-.16-.413-.21-1.051-.21-1.497v-2.018L8.14 24.61c.185.3.296.453.437.73h.95c-.075-.21-.168-.478-.168-1.268v-2.75c0-.547.06-.825.126-1.094h-.983c.084.295.143.53.143 1.472v2.33l-1.88-2.935c-.404-.514-.454-.64-.547-.867H5zm11.89.185c-.243-.1-.571-.244-1.042-.244-.833 0-1.514.673-1.514 1.48 0 .782.437 1.052 1.53 1.733.152.1.43.328.43.68 0 .362-.32.715-.766.715-.47 0-.765-.353-1-.622v1.085c.235.067.48.135.883.135 1.068 0 1.732-.614 1.732-1.455 0-.496-.21-.9-.942-1.32-.647-.37-1.076-.623-1.076-1.102 0-.404.353-.69.798-.69.455 0 .74.219.968.404v-.799zm.95 3.263c0 .841-.135 1.311-.227 1.665h1.194c-.101-.396-.202-1.051-.202-1.447v-.832l.303.008c.647.05 1.837-.294 1.837-1.412 0-.866-.862-1.43-1.888-1.43h-1.21c.075.185.193.463.193 1.37v2.078zm.765-2.54c0-.168.017-.395.026-.571.243.034 1.363.232 1.363 1.143 0 .917-1.06.95-1.389 1.002v-1.573zm2.414-.908c.143.438.193.95.193 1.295v2.506c0 .656-.11 1.018-.193 1.312H23.7l.37-.85c-1.085.37-1.446.37-2.094.37v-1.875c.387.034.58.06 1.16.227l.438-.714h-1.598v-1.792c.538-.016.833.051 1.413.312l.387-.79h-2.758zm3.599 3.792c0 .446-.025.816-.135 1.32h1.034c-.134-.546-.143-.706-.143-1.1v-1.262c1.06 1.404 1.38 1.774 2.069 2.363h.698c-.605-.723-1.236-1.489-1.69-2.288.227-.125.967-.538.967-1.37 0-.69-.622-1.48-1.934-1.455l-1 .009c.058.176.134.462.134 1.06v2.724zm.756-3.354c1.027.1 1.27.714 1.27 1.093 0 .79-.782 1.009-1.27 1.143v-2.236zm5.373-.253c-.243-.1-.571-.244-1.033-.244-.841 0-1.514.673-1.514 1.48 0 .782.429 1.052 1.521 1.733.152.1.43.328.43.68 0 .362-.32.715-.757.715-.471 0-.774-.353-1.009-.622v1.085c.244.067.48.135.883.135 1.068 0 1.732-.614 1.732-1.455 0-.496-.202-.9-.942-1.32-.639-.37-1.068-.623-1.068-1.102 0-.404.345-.69.79-.69.455 0 .74.22.967.404v-.799z" fill="#231F20"/><path d="M15.98 14.01c.352.08.485-.023.582-.194.097-.17.116-.337-.134-.598l-1.778-1.72-.026-.026c-.2.21-.38.44-.538.685l.039.024 2.215 1.379a.114.114 0 1 1-.113.199l-2.322-1.19-.045-.022a4.682 4.682 0 0 0-.327.81l.056.015 2.391.638z" fill="#F25D1B"/><path d="M15.48 14.676s1.017.002 1.402-.679c.385-.68-.14-1.55-.14-1.55l-.983-1.824-.014-.025c-.267.15-.518.325-.75.522l.022.024 1.442 1.649s.504.576.215 1.087c-.289.51-1.043.375-1.043.375l-2.155-.387-.063-.012a4.704 4.704 0 0 0-.078.852l.001.068.075-.004 2.07-.096z" fill="#F25D1B"/><path d="M16.236 15.146c.656-.375.965-.968.965-.968s.349-.57.332-1.326c-.013-.626-.364-2.19-.487-2.721l-.006-.023c-.303.066-.595.16-.874.282l.01.024c.212.491.899 2.094.975 2.37.098.351.128.849-.126 1.297-.253.448-.693.675-1.045.773-.275.076-2.003.313-2.533.385l-.08.01c.035.314.102.617.196.909l.089-.029c.518-.168 2.04-.672 2.584-.983zm3.397-1.942c-.245.266-.223.432-.123.601.1.17.234.27.585.184l2.38-.68.06-.017a4.668 4.668 0 0 0-.34-.807l-.05.027-2.302 1.23a.114.114 0 1 1-.116-.198l2.191-1.417.045-.029a4.735 4.735 0 0 0-.55-.678l-.032.033-1.748 1.751z" fill="#F25D1B"/><path d="m22.596 13.803-2.148.425s-.751.148-1.05-.357c-.297-.506.197-1.091.197-1.091l1.413-1.673.029-.034a4.714 4.714 0 0 0-.76-.511l-.02.036-.951 1.84s-.51.88-.113 1.554c.397.673 1.413.654 1.413.654l2.071.06.076.002c0-.314-.031-.621-.09-.918l-.067.013z" fill="#F25D1B"/><path d="M20.11 14.832c-.354-.091-.8-.314-1.06-.758-.262-.443-.239-.938-.148-1.292.072-.276.73-1.89.934-2.386l.015-.037a4.671 4.671 0 0 0-.881-.268l-.008.037c-.114.533-.438 2.103-.44 2.73-.004.756.355 1.32.355 1.32s.319.587.982.95c.55.302 2.08.78 2.6.939l.087.026a4.69 4.69 0 0 0 .183-.911l-.08-.01c-.531-.062-2.263-.268-2.54-.34zm-1.631 1.998c-.108-.345-.263-.409-.46-.407-.195.002-.35.069-.45.415l-.602 2.4-.013.052c.28.067.57.108.866.122l.003-.06.086-2.608a.114.114 0 1 1 .228-.002l.132 2.606.003.064c.298-.014.588-.056.868-.123l-.018-.07-.643-2.389z" fill="#F25D1B"/><path d="M19.305 16.93s-.507-.88-1.288-.874c-.782.007-1.273.896-1.273.896l-1.088 1.764-.023.037c.261.157.539.288.83.392l.016-.047.706-2.073s.247-.725.834-.73c.587-.006.846.715.846.715l.743 2.06.025.072c.294-.105.573-.238.836-.396l-.046-.072-1.118-1.744z" fill="#F25D1B"/><path d="M19.334 16.041c-.653-.381-1.32-.353-1.32-.353s-.668-.016-1.315.376c-.536.325-1.715 1.411-2.113 1.783l-.028.026c.207.228.435.435.683.619l.025-.034c.32-.428 1.364-1.825 1.565-2.028.256-.261.671-.535 1.186-.54.515-.005.932.262 1.192.519.204.2 1.273 1.578 1.6 2.001l.054.07c.25-.186.48-.397.687-.628l-.072-.065c-.404-.365-1.602-1.43-2.144-1.746z" fill="#F25D1B"/><path d="M18.017 15.227c-.402.004-.721.008-1.065.094a4.87 4.87 0 0 0 .648-.91 4.45 4.45 0 0 0 .431-.994c.103.333.243.648.444.989.204.346.388.647.633.901-.34-.077-.695-.083-1.091-.08zm1.96.31c-.593-.327-.922-.713-1.25-1.27-.329-.558-.507-1.033-.505-1.71 0-.501.165-1.835.25-2.5l.005-.037a4.772 4.772 0 0 0-.947.008l.004.022c.097.664.285 1.995.294 2.495.013.678-.156 1.156-.475 1.72-.318.562-.64.954-1.229 1.292-.433.25-1.67.774-2.29 1.032l-.091.038c.136.306.305.594.5.861l.03-.023c.526-.417 1.584-1.244 2.013-1.502.58-.35 1.08-.443 1.726-.449.647-.005 1.147.078 1.734.418.433.251 1.506 1.06 2.04 1.467l.079.062c.2-.278.371-.578.508-.897a18.27 18.27 0 0 1-.087-.034c-.624-.248-1.87-.75-2.308-.993z" fill="#F25D1B"/></svg>