<svg height="36" viewBox="0 0 36 36" width="36" xmlns="http://www.w3.org/2000/svg"><mask id="a" fill="#fff"><path d="M.033 0h.934v1.544H.033z" fill-rule="evenodd"/></mask><mask id="b" fill="#fff"><path d="M0 0h7.083v7.078H0z" fill-rule="evenodd"/></mask><g fill="none" fill-rule="evenodd"><path d="M18 0c2.837 0 5.52.656 7.907 1.825C31.884 4.753 36 10.895 36 18c0 9.942-8.058 18-18 18-9.94 0-18-8.057-18-18C0 8.06 8.06 0 18 0z" fill="#f2f4f7" fill-rule="nonzero"/><path d="M30.611 16.938a25.116 25.116 0 0 1-.166-.428 61.202 61.202 0 0 0-.153-.41c-.015.004-.03.006-.043.008-.013.003-.028.004-.043.004s-.029-.001-.042-.004a.551.551 0 0 1-.043-.007l-.109.276-.122.3c-.04.102-.082.203-.123.303l-.116.28a14.42 14.42 0 0 1-.099.234l-.072.162a.392.392 0 0 1 .06-.005h.106c.017 0 .034.002.052.005a5.16 5.16 0 0 1 .153-.454 6.089 6.089 0 0 1 .522 0 29.64 29.64 0 0 1 .155.454.99.99 0 0 1 .095-.005h.191c.032 0 .067.002.102.005a5.52 5.52 0 0 1-.143-.32 16.68 16.68 0 0 1-.162-.398zm-.702.13.101-.267c.035-.088.072-.176.111-.267.036.09.07.179.102.267l.098.268zm-.663-.665c.004-.097.008-.194.014-.291l-.083.008a1.538 1.538 0 0 1-.203 0l-.083-.008a9.442 9.442 0 0 1 .018.622v.306c0 .125 0 .235-.004.332a8.572 8.572 0 0 1-.014.284.712.712 0 0 1 .083-.005h.203c.03 0 .058.002.083.005-.006-.093-.01-.188-.014-.284a12.3 12.3 0 0 1-.004-.332v-.306c0-.124.001-.234.004-.331zm-.593-.291c-.046 0-.089.003-.129.004l-.122.004c-.042 0-.089 0-.139.002s-.11 0-.18 0h-.18l-.14-.002-.127-.004-.138-.004a.41.41 0 0 1 .008.148l-.008.05c.036-.005.071-.01.108-.013.04-.004.077-.006.114-.008a2.19 2.19 0 0 1 .19-.01.982.982 0 0 1 .005.08l.001.12v.56a10.7 10.7 0 0 1-.018.617.699.699 0 0 1 .083-.005h.202c.031 0 .058.002.084.005a6.506 6.506 0 0 1-.014-.284 10.968 10.968 0 0 1-.004-.332v-.681l.001-.047c0-.011.001-.021.003-.032a2.083 2.083 0 0 1 .188.009c.036.002.073.004.111.008s.071.008.101.013l-.008-.05a.41.41 0 0 1 0-.1l.008-.048zm-1.58 0a.677.677 0 0 1 .008.088l.005.155.002.196.001.217v.414a81.766 81.766 0 0 1-.49-.535l-.486-.535a.546.546 0 0 1-.1.01.554.554 0 0 1-.102-.01l.007.186a11.087 11.087 0 0 1-.001.618c-.004.123-.008.237-.014.343l-.014.269a1.488 1.488 0 0 1-.01.128c.033-.003.067-.005.102-.005h.051a.34.34 0 0 1 .055.005l-.005-.067a7.795 7.795 0 0 1-.008-.266v-.49c0-.087 0-.175.004-.263.336.354.663.716.982 1.086a.735.735 0 0 1 .18 0v-.574l.006-.29.011-.311c.005-.11.011-.233.02-.37a.555.555 0 0 1-.103.012.554.554 0 0 1-.1-.011zm-1.637.008a12.911 12.911 0 0 1-.496-.001 6.453 6.453 0 0 0-.2-.007 9.442 9.442 0 0 1 .018.622v.306c0 .125 0 .235-.004.332a9.145 9.145 0 0 1-.014.284.446.446 0 0 1 .044-.004l.077-.001h.6l.15.005a.13.13 0 0 1-.008-.034.736.736 0 0 1 0-.112l.007-.045a4.41 4.41 0 0 1-.515.029 6.585 6.585 0 0 1-.005-.425l.001-.144c.17 0 .34.007.51.02a1.36 1.36 0 0 0-.008-.054.24.24 0 0 1-.003-.037c0-.016 0-.03.002-.043.001-.014.005-.033.01-.06a12.569 12.569 0 0 1-.51.02v-.246c.001-.08.004-.162.01-.245.017 0 .044 0 .083.003.04 0 .083.004.132.007a8.965 8.965 0 0 1 .293.018l-.007-.046a1.011 1.011 0 0 1-.002-.056c0-.04.003-.07.01-.094-.03.003-.089.006-.175.008zm-1.208.145a.73.73 0 0 0-.273-.12 1.73 1.73 0 0 0-.352-.033c-.099 0-.179.002-.24.006a3.438 3.438 0 0 1-.268.002l-.083-.008c.006.097.01.194.014.29.002.098.004.208.004.332v.306c0 .125-.002.235-.004.332-.004.096-.008.19-.014.284a.755.755 0 0 1 .083-.005h.101a22.33 22.33 0 0 0 .495.005.743.743 0 0 0 .715-.477.88.88 0 0 0 .062-.337.87.87 0 0 0-.063-.354.547.547 0 0 0-.177-.223zm-.263 1.096a.501.501 0 0 1-.402.174c-.047 0-.086-.001-.118-.003l-.08-.004-.002-.07V16.32l.002-.07.102-.008c.034-.002.078-.003.131-.003.078 0 .15.014.212.04a.476.476 0 0 1 .161.12c.046.052.08.115.105.188a.777.777 0 0 1 .037.25c0 .233-.049.408-.148.523zm-1.337-.958c.003-.097.007-.194.013-.291l-.083.008a1.538 1.538 0 0 1-.285-.008 10.63 10.63 0 0 1 .018.622v.306a10.7 10.7 0 0 1-.018.616.699.699 0 0 1 .083-.005h.202c.03 0 .057.002.083.005a9.13 9.13 0 0 1-.018-.616v-.306c0-.124.002-.234.005-.331zm-.807.43a.87.87 0 0 0-.164-.095 1.929 1.929 0 0 1-.164-.082.542.542 0 0 1-.128-.096.19.19 0 0 1-.05-.136c0-.054.022-.101.065-.141a.235.235 0 0 1 .168-.061c.134 0 .225.065.273.194h.033l.037-.123c.01-.032.022-.066.035-.1a.461.461 0 0 0-.156-.081.68.68 0 0 0-.405.002.448.448 0 0 0-.313.45.403.403 0 0 0 .173.348.8.8 0 0 0 .162.095c.058.027.112.054.162.08a.53.53 0 0 1 .124.097.201.201 0 0 1 .05.139.23.23 0 0 1-.065.162c-.043.045-.109.067-.199.067a.35.35 0 0 1-.12-.02.257.257 0 0 1-.094-.052.295.295 0 0 1-.096-.17h-.043a1.67 1.67 0 0 1-.027.14c-.012.05-.025.097-.038.145a.402.402 0 0 0 .145.064.838.838 0 0 0 .217.026c.09 0 .171-.012.244-.035a.543.543 0 0 0 .187-.101.464.464 0 0 0 .164-.365.391.391 0 0 0-.05-.21.53.53 0 0 0-.127-.14zm-1.13-.713a12.819 12.819 0 0 1-.496-.001 6.388 6.388 0 0 0-.199-.007 9.438 9.438 0 0 1 .018.622v.306a10.7 10.7 0 0 1-.018.616.394.394 0 0 1 .044-.004l.076-.001h.6l.15.005a.186.186 0 0 1-.007-.034c-.002-.013-.002-.032-.002-.056a.429.429 0 0 1 .008-.101 4.375 4.375 0 0 1-.514.029 5.27 5.27 0 0 1-.006-.425l.001-.144c.17 0 .34.007.511.02l-.008-.054a.28.28 0 0 1-.001-.08.54.54 0 0 1 .01-.06 12.569 12.569 0 0 1-.512.02l.001-.246c.001-.08.004-.162.011-.245.016 0 .044 0 .083.003.04 0 .083.004.131.007l.151.008c.051.003.1.006.142.01l-.006-.046a.47.47 0 0 1 .006-.15 2.59 2.59 0 0 1-.174.008zm-1.198 1.04a8.784 8.784 0 0 1-.304-.5c.148-.038.261-.102.34-.193s.12-.208.12-.352a.474.474 0 0 0-.194-.391.543.543 0 0 0-.08-.046.534.534 0 0 0-.102-.031 1.063 1.063 0 0 0-.138-.018 3.077 3.077 0 0 0-.445.002 2.519 2.519 0 0 1-.316.003 4.021 4.021 0 0 1-.109-.011 12.325 12.325 0 0 1 .023.82v.403a14.069 14.069 0 0 1-.023.81.995.995 0 0 1 .11-.005h.266a.93.93 0 0 1 .11.006 10.614 10.614 0 0 1-.023-.811v-.121h.025l.53.932c.045-.004.09-.006.135-.006h.268c.043 0 .088.002.133.006a86.26 86.26 0 0 1-.326-.496zm-.7-.556-.033-.002-.033-.005c0-.268.003-.536.008-.805.082 0 .151.004.21.012s.105.025.142.05a.24.24 0 0 1 .081.119.67.67 0 0 1 .026.207c0 .142-.034.248-.104.318-.068.07-.168.106-.298.106zm-1.62-.492-.053.008a.436.436 0 0 1-.145-.008 6.035 6.035 0 0 1-.054.2l-.085.292-.099.33c-.03.105-.062.209-.095.313h-.005a7.298 7.298 0 0 0-.12-.382l-.074-.222a13.398 13.398 0 0 0-.07-.214l-.057-.184a1.546 1.546 0 0 1-.034-.133l-.056.008a.42.42 0 0 1-.112 0l-.056-.008-.07.212c-.069.206-.139.41-.21.616l-.107.307h-.004c-.02-.078-.044-.163-.069-.255l-.076-.286a19.838 19.838 0 0 1-.15-.594l-.09.008a1.383 1.383 0 0 1-.184 0l-.097-.008c.006.015.02.055.04.12.018.065.042.144.07.237.03.093.06.195.093.307l.096.33a22.535 22.535 0 0 1 .153.55.379.379 0 0 1 .058-.005h.06c.041 0 .08.002.114.005.027-.086.056-.171.085-.257l.102-.292.105-.291.092-.257h.004c.066.183.13.367.193.552.06.18.115.362.162.545a.392.392 0 0 1 .06-.005h.058c.042 0 .08.002.114.005l.084-.27.1-.308.104-.312c.057-.172.116-.344.175-.515l.05-.14zm-3.167 1.26a8.572 8.572 0 0 1-.014.284.446.446 0 0 1 .044-.004l.076-.001h.601l.15.005a.13.13 0 0 1-.008-.034.736.736 0 0 1 0-.112l.007-.045a4.41 4.41 0 0 1-.515.029 6.587 6.587 0 0 1-.007-.281l.002-.144.001-.143c.17 0 .34.006.51.02a1.36 1.36 0 0 0-.008-.055.24.24 0 0 1-.003-.037c0-.016 0-.03.002-.043a.54.54 0 0 1 .01-.06c-.083.006-.165.009-.247.013l-.264.007.001-.246c0-.081.004-.162.01-.245.017 0 .044 0 .083.003.04 0 .083.004.132.007l.15.008.143.01-.007-.046a.728.728 0 0 1-.002-.055c0-.04.003-.071.01-.095-.03.003-.089.006-.175.008-.098.002-.197.003-.296.003-.067 0-.134-.001-.199-.004-.067-.003-.134-.006-.2-.007a9.442 9.442 0 0 1 .017.622v.306c0 .125-.002.235-.004.332zm-1.984.057c-.003-.07-.004-.14-.005-.21a24.354 24.354 0 0 1-.002-.302v-.343l.002-.175a5.01 5.01 0 0 1 .005-.172c.455.48.887.957 1.293 1.43a1.127 1.127 0 0 1 .237 0v-.355l.001-.401a39.809 39.809 0 0 1 .046-1.278.777.777 0 0 1-.133.015.787.787 0 0 1-.133-.015c.004.02.007.059.01.116s.005.125.006.204l.003.259.002.286v.545c-.217-.234-.432-.47-.647-.705l-.638-.705a.798.798 0 0 1-.133.015.797.797 0 0 1-.134-.015c.002.07.005.153.01.246s.005.207.005.343a15.32 15.32 0 0 1-.025.923l-.019.353a1.587 1.587 0 0 1-.015.169c.045-.004.091-.006.136-.006h.068c.024 0 .047.002.071.006l-.006-.087-.005-.141z" fill="#79ad4f"/><path d="M.959 1.454c0-.024 0-.042.002-.056 0-.013.004-.028.007-.045a4.351 4.351 0 0 1-.515.029 44.526 44.526 0 0 1-.003-.207L.449.928V.622A10.941 10.941 0 0 1 .467 0 1.612 1.612 0 0 1 .18.008L.098 0a9.58 9.58 0 0 1 .018.622v.306a10.7 10.7 0 0 1-.018.616.446.446 0 0 1 .044-.004l.076-.001h.357l.243.001.15.004A.128.128 0 0 1 .96 1.51c-.002-.013-.002-.032-.002-.056" fill="#79ad4f" mask="url(#a)" transform="translate(31.033 16.111)"/><path d="M23.351 19.534a.071.071 0 0 0 0 .142.072.072 0 0 0 .071-.071.071.071 0 0 0-.07-.071zm-.318-.724c-.035 0-.115.006-.154.006-.04 0-.08-.003-.12-.006.004.107.01.215.01.322v.214c0 .106-.006.214-.01.32.02-.002.04-.005.06-.005s.04.003.061.006a6.923 6.923 0 0 1-.01-.321v-.07c.032.003.064.005.101.005.12 0 .334-.043.334-.261 0-.208-.198-.21-.272-.21zm-.075.425a.372.372 0 0 1-.088-.011v-.368h.112c.128 0 .21.03.21.17 0 .17-.132.209-.234.209zm-.418-.23c0-.147-.118-.195-.258-.195-.047 0-.094.006-.14.006-.049 0-.096-.003-.143-.006.005.107.01.215.01.322v.214c0 .106-.005.214-.01.32a.305.305 0 0 1 .122 0 6.923 6.923 0 0 1-.01-.32v-.091h.047c.107.108.272.337.321.412a.44.44 0 0 1 .147 0c-.072-.08-.279-.348-.34-.424.094-.012.254-.076.254-.237zm-.429.198v-.071c0-.09.003-.18.007-.27a.987.987 0 0 1 .121-.007c.084 0 .192.033.192.163 0 .149-.135.19-.237.19a.402.402 0 0 1-.083-.005zm-.743-.41c-.273 0-.464.164-.464.446 0 .28.191.444.464.444.275 0 .466-.163.466-.444 0-.282-.19-.445-.466-.445zm0 .845c-.194 0-.343-.124-.343-.4 0-.275.15-.398.343-.398.195 0 .344.123.344.399 0 .275-.149.399-.344.399zm-.945-1.11c.161 0 .278.1.326.153l.01-.003a.628.628 0 0 1 .036-.134.918.918 0 0 0-.372-.078c-.378 0-.642.223-.642.613 0 .389.264.613.625.613a.661.661 0 0 0 .357-.097l.015-.102-.007-.007c-.065.05-.185.143-.348.143-.269 0-.474-.17-.474-.55 0-.381.205-.55.474-.55zm-1.536.288c-.107 0-.214-.003-.32-.006a.14.14 0 0 1 .006.038.129.129 0 0 1-.007.04c.07-.008.18-.013.266-.013.003.086.004.17.004.257v.214c0 .106-.005.214-.01.32.021-.003.041-.005.061-.005s.04.003.061.006a6.923 6.923 0 0 1-.01-.321v-.214c0-.086.001-.171.003-.257.086 0 .197.005.266.013a.228.228 0 0 1-.006-.04c0-.012.003-.024.006-.038-.107.003-.213.006-.32.006zm-.498 0a.213.213 0 0 1-.042-.006c.01.192.01.434.01.656-.152-.153-.426-.453-.629-.672h-.02c.004.055.004.177.004.333 0 .164-.016.482-.026.54.016-.004.031-.006.046-.006s.03.003.043.006a7.864 7.864 0 0 1-.01-.418c0-.132.002-.207.003-.253.212.226.438.465.627.687h.018c0-.055-.004-.33-.004-.457 0-.097.012-.342.02-.416-.014.003-.026.006-.04.006zm-1.21.793a5.815 5.815 0 0 1-.003-.186c0-.12 0-.151.002-.181.06 0 .215.003.301.012-.002-.013-.004-.026-.004-.038s.002-.026.004-.038c-.073.005-.155.012-.3.012 0-.031-.003-.1-.003-.164 0-.06.004-.104.006-.158.161 0 .222.009.326.017-.002-.013-.004-.025-.004-.038 0-.012.001-.025.004-.037a4.075 4.075 0 0 1-.22.006c-.076 0-.149-.003-.224-.006.005.106.011.213.011.32v.214c0 .107-.006.215-.01.323a4.29 4.29 0 0 1 .45 0c-.003-.012-.004-.024-.005-.036 0-.011.002-.028.004-.038a2.408 2.408 0 0 1-.335.016zm-.405-.815c-.122.229-.319.588-.369.684a15.39 15.39 0 0 1-.356-.684h-.02c-.029.263-.078.598-.122.873.015-.003.028-.006.044-.006.015 0 .028.003.043.006a8.62 8.62 0 0 1 .06-.641h.002c.108.215.222.429.32.635h.011c.098-.224.212-.428.325-.635h.003c.026.212.043.419.06.64.02-.003.04-.005.06-.005s.037.003.057.006c-.04-.284-.064-.555-.102-.873zm-1.272.022c-.107 0-.214-.003-.32-.006a.136.136 0 0 1 0 .078c.07-.008.18-.013.265-.013.003.086.004.17.004.257v.214c0 .106-.005.214-.01.32a.323.323 0 0 1 .061-.005c.02 0 .04.003.06.006-.004-.107-.009-.215-.009-.321v-.214c0-.086.001-.171.004-.257.085 0 .195.005.265.013a.137.137 0 0 1 0-.078c-.107.003-.214.006-.32.006zm-.793.178c0-.091.067-.154.16-.154s.13.07.148.117h.015a.351.351 0 0 1 .033-.105.273.273 0 0 0-.184-.058c-.165 0-.269.096-.269.234 0 .292.391.194.391.423 0 .1-.067.18-.177.18a.217.217 0 0 1-.197-.13h-.015a.396.396 0 0 1-.023.11.3.3 0 0 0 .205.072c.191 0 .304-.128.304-.28 0-.273-.39-.177-.39-.41zm-.57.615a6.488 6.488 0 0 1-.002-.186l.001-.181c.06 0 .216.003.302.012a.17.17 0 0 1 0-.076c-.073.005-.155.012-.302.012v-.164c0-.06.003-.104.004-.158.161 0 .222.009.327.017a.164.164 0 0 1 0-.075c-.074.004-.148.006-.222.006s-.147-.003-.222-.006c.005.106.01.213.01.32v.214c0 .107-.005.215-.01.323a4.262 4.262 0 0 1 .45 0 .158.158 0 0 1 0-.074 2.423 2.423 0 0 1-.336.016zm-.34-.8a9.176 9.176 0 0 1-.282.735 12.236 12.236 0 0 1-.283-.734.347.347 0 0 1-.129 0c.12.286.272.652.347.857a.168.168 0 0 1 .041-.006c.013 0 .027.003.041.006.11-.29.23-.575.358-.857-.016.003-.032.006-.046.006a.242.242 0 0 1-.047-.006zm-.867.007a.193.193 0 0 1-.042-.006c.01.192.01.434.01.656-.152-.153-.427-.453-.629-.672h-.02c.004.055.004.177.004.333 0 .164-.016.482-.027.54a.2.2 0 0 1 .046-.006c.015 0 .03.003.044.006a7.724 7.724 0 0 1-.01-.418c0-.132.001-.207.002-.253.213.226.44.465.628.687h.017l-.003-.457c0-.097.012-.342.02-.416-.014.003-.027.006-.04.006zm-.969-.328a.496.496 0 0 1-.168 0c.007.147.014.296.014.443v.294c0 .148-.007.297-.014.445a.407.407 0 0 1 .168 0 9.445 9.445 0 0 1-.014-.445v-.294c0-.147.007-.296.014-.443z" fill="#6f6d6d"/><path d="m7.538 14.56-2.975 2.976L5.62 18.59h1.51v-1.12h.787v1.12h1.541l1.056-1.055zm-.008 1.503L5.692 17.9l-.32-.321 1.837-1.837v-.001l.32-.321h.002l.32.32v.002l.447.446v-.292h.467v.76l.923.923-.32.32z" fill="#79ad4f"/><path d="M8.766 16.656v-.759h-.468v.291l-.447-.446-.32-.322v.001H7.53l-.321.32v.001L5.372 17.58l.32.322 1.839-1.838 1.837 1.838.32-.322z" fill="#fff"/><path d="M3.554.007 3.547 0 0 3.547l.023.023.002-.001 3.509 3.509.024-.024-.001-.001 3.5-3.5v.002l.026-.024L3.556.005zm-.023 7.02L.049 3.546l3.5-3.5L7.03 3.529z" fill="#6f6d6d" mask="url(#b)" transform="translate(4 14)"/><path d="M7.917 17.471h-.788v1.12h-1.51l.218.217H9.24l.218-.218H7.917z" fill="#fff"/><path d="m5.837 18.808 1.701 1.701 1.701-1.7z" fill="#6f6d6d"/></g></svg>