<svg height="36" viewBox="0 0 36 36" width="36" xmlns="http://www.w3.org/2000/svg"><mask id="a" fill="#fff"><path d="M0 0h28v6.898H0z" fill-rule="evenodd"/></mask><mask id="b" fill="#fff"><path d="M0 6.898h28V0H0z" fill-rule="evenodd"/></mask><g fill="none" fill-rule="evenodd"><path d="M18 0c2.837 0 5.52.656 7.907 1.825C31.884 4.753 36 10.895 36 18c0 9.942-8.058 18-18 18-9.94 0-18-8.057-18-18C0 8.06 8.06 0 18 0z" fill="#f2f4f7" fill-rule="nonzero"/><path d="M3.662 6.898C1.467 6.897 0 5.341 0 3.455S1.47-.005 3.66 0h20.682C26.53-.005 28 1.569 28 3.455s-1.466 3.442-3.662 3.443z" fill="#e40520" mask="url(#a)" transform="translate(4 15)"/><path d="M7.67 15.849c-1.739.003-2.806 1.165-2.806 2.602 0 1.436 1.06 2.607 2.805 2.6H28.33c1.745.007 2.806-1.164 2.806-2.6 0-1.437-1.067-2.6-2.806-2.602z" fill="#fff"/><g fill="#e40520"><path d="M6.778 16.82H7.79l1.4 2.264V16.82h1.003v3.248H9.19l-1.408-2.265v2.265H6.778zm8.872.334h.977v.437h.529v.321h-.53l.002 2.155h-.978v-2.155h-.53v-.321h.53z"/><path d="M6.751 5.067h.977V2.908h-.977zm-.002-2.584h.979v-.664h-.979zm17.114.277c-.788 0-1.427.544-1.427 1.213 0 .67.64 1.213 1.427 1.213.79 0 1.427-.543 1.427-1.213s-.638-1.212-1.427-1.212zm.392 1.21v.457c0 .345-.204.487-.4.487-.195 0-.4-.142-.4-.486l.001-.466.001-.45c0-.344.203-.484.398-.484s.4.14.4.483v.46zm-3.094.007V3.59c0-.334-.23-.42-.383-.42-.155 0-.383.086-.383.42l.001.385v.384c0 .334.227.42.382.42.153 0 .383-.086.383-.42zm-.007-2.157h.964v3.247h-.965v-.124a1.174 1.174 0 0 1-1.126.08 1.152 1.152 0 0 1-.667-1.07c0-.57.537-1.192 1.241-1.131.232.02.396.105.553.193zm-11.14.988c.365-.01 1.106.229 1.1 1.084v1.175h-.97v-1.42c0-.187-.18-.396-.447-.396s-.463.209-.463.397l.001 1.419h-.97v-2.16h.97v.227c.187-.178.456-.316.779-.326m7.936 0c.364-.01 1.105.229 1.1 1.084-.002.152 0 1.175 0 1.175h-.97v-1.42c0-.187-.18-.396-.446-.396s-.465.209-.465.397l.001 1.419h-.97l.002-2.16h.969v.227c.187-.178.456-.316.779-.326m-3.073 1.504v.13c0 .396-.26.484-.403.484s-.41-.088-.41-.483l.002-.446h1.839c0-.67-.646-1.225-1.44-1.225s-1.438.543-1.438 1.212c0 .67.644 1.213 1.438 1.213.659 0 1.215-.376 1.385-.886zm-.811-.651c-.002-.19.002-.316.064-.424a.401.401 0 0 1 .344-.197h-.001a.399.399 0 0 1 .344.197c.062.108.065.235.064.424zm11.426-1.485c.095 0 .179-.006.179-.12 0-.09-.083-.109-.16-.109h-.153v.23zm-.134.416h-.113v-.74h.282c.175 0 .261.065.261.211 0 .132-.083.19-.192.203l.21.326h-.125l-.195-.32h-.128z" mask="url(#b)" transform="translate(4 15)"/><path d="M25.493 2.757a.517.517 0 0 0 .519-.536.517.517 0 0 0-.519-.532.518.518 0 0 0-.522.532c0 .309.229.536.522.536m-.651-.536a.64.64 0 0 1 .651-.64.64.64 0 0 1 .648.64.64.64 0 0 1-.648.643.641.641 0 0 1-.651-.643" mask="url(#b)" transform="translate(4 15)"/></g></g></svg>