<svg width="36" height="36" fill="none" xmlns="http://www.w3.org/2000/svg"><path d="M18 0c2.837 0 5.52.656 7.907 1.825C31.884 4.753 36 10.895 36 18c0 9.942-8.058 18-18 18-9.94 0-18-8.057-18-18C0 8.06 8.06 0 18 0z" fill="#F2F4F7"/><path d="M4.548 21.893H4v-.21h1.353v.21h-.547v1.466h-.258v-1.466zm2.046-.209h.258v.708h.837v-.708h.258v1.675H7.69v-.757h-.837v.757h-.258v-1.675zm2.819 0h.983v.209h-.741v.483h.676v.21h-.676v.548h.74v.209h-.982v-1.66zm2.352 0h.435c.08 0 .178 0 .258.016.08.016.161.032.226.064a.61.61 0 0 1 .16.129.534.534 0 0 1 .065.242c0 .048-.016.096-.032.145-.016.048-.049.08-.08.112a.289.289 0 0 1-.113.081l-.145.048a.337.337 0 0 1 .096.065.903.903 0 0 1 .08.113l.34.66h-.29l-.275-.58c-.016-.032-.048-.064-.064-.097-.016-.016-.049-.032-.065-.048s-.048-.016-.08-.016h-.242v.741h-.258v-1.675h-.016zm.258.708h.21c.128 0 .209-.016.273-.064a.23.23 0 0 0 .097-.193c0-.08-.032-.145-.097-.178-.064-.048-.145-.064-.257-.064h-.242v.5h.016zm2.852-.708h.257l.741 1.675H15.6l-.178-.419h-.87l-.177.42h-.258l.758-1.676zm.112.225-.354.822h.709l-.355-.822zm2.111-.225h.467c.097 0 .177.016.258.032.08.016.145.048.21.08a.352.352 0 0 1 .144.162.537.537 0 0 1 .049.241.537.537 0 0 1-.049.242.456.456 0 0 1-.145.16.983.983 0 0 1-.193.081c-.08.017-.145.033-.226.033h-.241v.676h-.258v-1.707h-.016zm.258.789h.257c.033 0 .08 0 .13-.016a.785.785 0 0 0 .112-.048.165.165 0 0 0 .08-.097.304.304 0 0 0 0-.274l-.096-.097a1.103 1.103 0 0 0-.129-.048c-.048-.016-.08-.016-.129-.016h-.21v.596h-.015zm2.158-.789h.983v.209h-.74v.483h.676v.21h-.677v.548h.741v.209h-.983v-1.66zm3.754.982c0 .242-.064.42-.177.532-.113.129-.29.177-.5.177-.225 0-.386-.064-.499-.177a.783.783 0 0 1-.177-.532v-.982h.258v.95c0 .08 0 .161.016.226a.578.578 0 0 0 .064.177c.032.048.08.08.13.113.047.032.128.032.209.032.08 0 .145-.016.209-.032a.433.433 0 0 0 .129-.113.338.338 0 0 0 .064-.177c.016-.065.016-.145.016-.226v-.95h.258v.982zm1.643-.773h-.547v-.21h1.353v.21h-.548v1.466h-.258v-1.466zm2.03-.209h.258v1.675h-.258v-1.675zm2.771.273a.706.706 0 0 0-.37-.096.753.753 0 0 0-.274.048.615.615 0 0 0-.403.596.614.614 0 0 0 .403.612c.08.033.161.049.258.049h.096c.032 0 .065-.016.113-.016a.229.229 0 0 0 .097-.033c.032-.016.064-.016.08-.032l.016.226a.495.495 0 0 1-.209.048c-.08 0-.145.016-.193.016a.973.973 0 0 1-.677-.241.843.843 0 0 1-.193-.274.866.866 0 0 1-.065-.355c0-.129.016-.241.065-.354a.843.843 0 0 1 .193-.274.878.878 0 0 1 .29-.177.946.946 0 0 1 .37-.065c.065 0 .13 0 .21.016.064.017.129.033.193.065v.241zm2.111-.032c-.032-.016-.065-.016-.08-.032-.033-.016-.05-.016-.081-.016-.032 0-.049-.016-.08-.016H31.5c-.033 0-.065 0-.113.016a.231.231 0 0 0-.097.032.285.285 0 0 0-.08.065c-.016.032-.033.064-.033.112 0 .049.017.097.049.13.032.031.08.064.145.096.064.032.113.064.177.08.064.033.129.065.177.097.065.048.097.097.145.161a.468.468 0 0 1 .048.226.468.468 0 0 1-.048.225.455.455 0 0 1-.145.161.772.772 0 0 1-.21.081c-.08.016-.16.032-.241.032-.064 0-.129 0-.177-.016-.065-.016-.113-.032-.177-.048l.032-.226a.27.27 0 0 1 .08.032c.033.017.065.017.097.033a.203.203 0 0 0 .097.016c.032 0 .064.016.096.016.033 0 .08 0 .113-.016a.792.792 0 0 0 .113-.049.195.195 0 0 0 .08-.08.304.304 0 0 0 .033-.129c0-.065-.016-.113-.049-.145a.333.333 0 0 0-.145-.097c-.064-.032-.112-.064-.177-.08a1.758 1.758 0 0 1-.177-.097c-.065-.032-.097-.08-.145-.145a.403.403 0 0 1-.048-.21c0-.08.016-.144.048-.193a.502.502 0 0 1 .113-.145.593.593 0 0 1 .177-.08.952.952 0 0 1 .419-.016l.193.048-.048.177zM21.995 15.9h-1.32v.644h1.32V15.9zm2.385-2.513h-1.321v.5h1.32v-.5zm0 .741h-1.321v.129h1.32v-.13zm0 5.042h-1.321v.468h1.32v-.468z" fill="#D24827"/><path d="M4.016 20.024h1.225v-6.283H4.016v6.283zm5.59 0h1.177v-2.932c0-1.144-.564-1.804-1.563-1.804-.66 0-1.16.241-1.515.74h-.048V15.4H6.545v4.624h1.16V17.77c0-.226.033-.645.21-1 .193-.37.483-.563.886-.563.805 0 .805.822.805 1.353v2.465zm1.821-3.786h.902v2.4c0 .935.548 1.499 1.45 1.499.338 0 .628-.033.87-.097l-.032-.918a1.24 1.24 0 0 1-.532.113c-.403 0-.58-.258-.58-.79v-2.207h1.08v-.854h-1.08v-1.305l-1.192.37v.935h-.902v.854h.016zm14.242 3.786h1.176V15.53h-1.176v4.495zm6.315-1.031c-.016-.338-.016-.693-.016-1.16v-.596c0-.693-.145-1.176-.467-1.482-.323-.306-.822-.467-1.53-.467a4.1 4.1 0 0 0-1.596.338l.032.999a2.466 2.466 0 0 1 1.418-.483c.757 0 1.063.29 1.063 1.014v.017h-.692c-.677 0-1.193.08-1.563.273-.516.258-.79.693-.79 1.321 0 .677.548 1.37 1.612 1.37.596 0 1.16-.322 1.417-.79v-.016h.049v.146c0 .16.016.37.048.547H32c0-.387-.016-.709-.016-1.031zm-1.37-.145a1.031 1.031 0 0 1-.853.419c-.435 0-.774-.177-.774-.564 0-.709.806-.805 1.354-.805h.531c0 .338-.048.676-.258.95zm-8.619-3.464h-1.32v.29h1.32v-.29zm0 1.386h-1.32v.274h1.32v-.274zm0-2.642h-1.32v.419h1.32v-.42zm0 5.51h-1.32v.386h1.32v-.386zm0-6.638h-1.32v.258h1.32V13zm0 2.062h-1.32v.113h1.32v-.113zm0 2.529h-1.32v.13h1.32v-.13zm0-3.882h-1.32v.193h1.32v-.193zm0 4.189h-1.32v.402h1.32v-.402zm0 1.015h-1.32v.145h1.32v-.145zm2.385-.065h-1.321v.145h1.32v-.145zm-5.961-.128c-.032.047-.049.128-.145.24-.258.29-.66.307-.757.307-.451 0-1.112-.242-1.192-1.257h3.254c0-.274.096-1.675-.919-2.4a2.048 2.048 0 0 0-1.224-.37c-1.482 0-2.288 1.143-2.288 2.545 0 1.015.435 1.595.758 1.885.563.5 1.337.531 1.562.531.677 0 1.112-.225 1.337-.386.258-.194.484-.484.613-.79a1.09 1.09 0 0 0 .08-.274h-1.08v-.032zm-2.095-1.515c.145-.629.548-1.112 1.096-1.112s.934.483 1.015 1.112v.032h-2.127l.017-.032zm8.056.902h-1.321v.306h1.32v-.306zm0-3.512h-1.321v.274h1.32v-.274zm0-1.595h-1.321v.129h1.32V13zm0 4.785h-1.321v.112h1.32v-.112zm0-.741h-1.321v.419h1.32v-.42zm0-1.982h-1.321v.322h1.32v-.322zm0 4.833h-1.321v.113h1.32v-.113zm0-3.479h-1.321v.338h1.32v-.338zm0-.693h-1.321v.145h1.32v-.145zm1.289-.613h1.16v-.74h-1.16v.74z" fill="#9DAEB6"/></svg>