<svg width="36" height="36" fill="none" xmlns="http://www.w3.org/2000/svg"><path d="M18 0c2.837 0 5.52.656 7.907 1.825C31.884 4.753 36 10.895 36 18c0 9.942-8.058 18-18 18-9.94 0-18-8.057-18-18C0 8.06 8.06 0 18 0z" fill="#F2F4F7"/><path d="M31.453 19.313a5.042 5.042 0 0 1 0-.393c0-.026.025-.052.038-.078.026.014.06.022.076.044a4 4 0 0 1 .153.234l.146-.223c.045-.072.08-.078.134-.018v.48l-.08.032a.322.322 0 0 1-.025-.077 1.235 1.235 0 0 0-.02-.25 4.822 4.822 0 0 0-.07.097c-.073.112-.094.111-.171 0a.26.26 0 0 0-.085-.086c0 .08.004.162 0 .243 0 .028-.027.055-.042.081-.022-.03-.053-.058-.054-.086zm-.491-.379c-.022-.005-.04-.03-.059-.046.018-.014.035-.041.053-.042a5.67 5.67 0 0 1 .345 0c.017 0 .034.034.05.052-.018.013-.034.033-.054.037a.82.82 0 0 1-.122 0v.352c0 .036-.028.103-.043.103-.073 0-.051-.065-.053-.108v-.347a.533.533 0 0 1-.117 0zm-1.795-1.526-.449-.39a.092.092 0 0 1 0-.16c.3-.261.597-.522.898-.78a.218.218 0 0 1 .129-.048c.297-.003.595 0 .892 0 .058 0 .111 0 .122.092a.3.3 0 0 1-.048.066c-.466.409-.933.817-1.4 1.223a.096.096 0 0 1-.144-.003zm1.018 1.99a3.278 3.278 0 0 0-.326 0 .403.403 0 0 1-.333-.123c-.26-.237-.528-.464-.793-.696-.084-.072-.083-.11 0-.184.14-.122.281-.242.419-.364a.114.114 0 0 1 .136-.03.114.114 0 0 1 .039.03l1.371 1.199c.03.025.035.079.052.119a.364.364 0 0 1-.114.045c-.15.006-.3.004-.451.004z" fill="#000"/><path d="M27.078 16.073c.595.515 1.188 1.031 1.781 1.548.08.073.08.11 0 .179-.595.519-1.191 1.037-1.788 1.554a.188.188 0 0 1-.111.039c-.154.004-.307 0-.46 0h-.442a.372.372 0 0 1-.114-.046c.017-.04.023-.093.053-.12.417-.367.837-.731 1.257-1.097l.37-.32c.1-.089.1-.108 0-.194l-1.621-1.411a.185.185 0 0 1-.066-.098c-.006-.06.041-.08.096-.08h.94c.04.003.076.02.105.046z" fill="#A8CB3A"/><path d="M24.916 19.398c-.078 0-.112-.033-.114-.107v-3.08c0-.174.015-.188.192-.188h.527c.124 0 .146.023.146.145v3.09c0 .13-.007.138-.133.139-.209 0-.413-.002-.618.001zm-.383-3.204v2.811c-.016.319-.182.456-.496.408a.755.755 0 0 1-.394-.182 876.433 876.433 0 0 0-2.156-1.877.617.617 0 0 0-.102-.058.582.582 0 0 0-.028.123v1.775c0 .173-.03.203-.2.203h-.5c-.117 0-.16-.04-.16-.153v-2.8c0-.241.083-.36.291-.444h.173c.272.041.456.225.65.395.64.56 1.282 1.117 1.925 1.672.035.023.073.04.112.053a.515.515 0 0 0 .028-.115V16.22c0-.161.03-.193.188-.193h.5c.129.003.169.046.169.167zm-4.359 3.03c-.654-.95-1.315-1.898-1.967-2.85-.125-.181-.258-.34-.49-.374h-.057a.618.618 0 0 0-.408.255c-.683.992-1.369 1.983-2.056 2.973a.167.167 0 0 0-.028.127c.008.024.073.04.112.04.224.004.448 0 .672.004a.157.157 0 0 0 .149-.08c.163-.24.33-.478.495-.719a.145.145 0 0 1 .133-.072h1.91a.152.152 0 0 1 .145.072c.165.243.332.485.503.728a.161.161 0 0 0 .103.066c.247.005.493.005.739 0a.114.114 0 0 0 .089-.061.17.17 0 0 0-.044-.11zm-2.086-1.45h-.784c-.098 0-.115-.028-.062-.105.129-.19.261-.378.391-.567.039-.056.073-.052.108 0 .132.192.267.383.397.575.044.069.03.095-.05.097zm-1.983-1.746c.164 0 .195.032.195.198v.384c0 .128-.043.173-.172.173h-1.09c-.146 0-.155.008-.155.15v2.283c0 .146-.035.18-.18.18h-.5c-.137 0-.175-.036-.175-.177v-2.273c0-.156-.007-.163-.16-.163h-1.08c-.146 0-.185-.04-.186-.18v-.404c0-.134.042-.17.175-.17h3.328zm-6.77 2.531c.135.046.277.073.42.081.422.007.843 0 1.265-.012a.879.879 0 0 0 .26-.058c.146-.051.195-.127.195-.282v-2.052c0-.183.026-.208.213-.208h.47c.133 0 .175.04.175.17v2.197c0 .5-.32.851-.848.94a3.33 3.33 0 0 1-.582.056c-.54 0-1.08-.012-1.619-.037a1.066 1.066 0 0 1-.737-.325.816.816 0 0 1-.238-.589v-2.244c0-.13.036-.167.164-.168h.518c.13 0 .173.04.174.172v2.1a.236.236 0 0 0 .17.259zm-1.301-2.373v2.83c-.03.335-.205.463-.534.39a.807.807 0 0 1-.364-.182 922.655 922.655 0 0 0-2.152-1.878c-.032-.018-.065-.033-.098-.05a.427.427 0 0 0-.026.105v1.803c0 .158-.034.193-.189.193s-.32-.004-.479 0A.212.212 0 0 1 4 19.32v-2.974c.045-.157.113-.296.29-.345h.164c.27.036.454.218.646.384a277.09 277.09 0 0 0 1.945 1.694c.031.02.064.036.099.048a.442.442 0 0 0 .032-.112V16.22c0-.158.033-.19.19-.192h.51c.117.003.158.045.158.158z" fill="#000"/></svg>