<svg height="36" viewBox="0 0 36 36" width="36" xmlns="http://www.w3.org/2000/svg"><mask id="a" fill="#fff"><path d="M0 0h28v8.68H0z" fill-rule="evenodd"/></mask><g fill="none" fill-rule="evenodd"><path d="M18 0c2.837 0 5.52.656 7.907 1.825C31.884 4.753 36 10.895 36 18c0 9.942-8.058 18-18 18-9.94 0-18-8.057-18-18C0 8.06 8.06 0 18 0z" fill="#f2f4f7" fill-rule="nonzero"/><path d="M4.617 2.918h.496v-.372H3.749v.372h.496v1.58h.372zM3.184 8.22l-.695-.615a3.184 3.184 0 0 0 1.39 0zm3.183-3.722-.362.32A2.84 2.84 0 0 1 3.37 7.331V5.539l-.371-.468v2.261A2.842 2.842 0 0 1 .363 4.821L0 4.499c0 1.156.617 2.168 1.538 2.726l1.646 1.456L4.83 7.225a3.184 3.184 0 0 0 1.538-2.727zM4.109 5.856h.474L1.95 2.546h-.64v.4h.468v2.538H1.31v.372h1.309v-.372H2.15v-2.09zM2.699.829a.485.485 0 1 1 .971 0 .485.485 0 0 1-.97 0zM3 3.252l.37.467V1.686h2.135v-.372H3.857a.829.829 0 1 0-1.344 0H.865v.372h2.134zm9.455 2.827c0-.194-.125-.358-.401-.358H11.4v.705h.65c.298 0 .405-.166.405-.347zm.405 1.213h.148v.318h-.18c-.163 0-.285-.021-.394-.085-.107-.061-.2-.163-.305-.321 0 0-.125-.196-.175-.28l-.04-.068-.02-.031a.347.347 0 0 0-.033-.041.087.087 0 0 0-.01-.009c-.004-.002-.01-.002-.012-.002h-.44v.814h-.38V5.372h1.034c.54 0 .786.349.786.7 0 .089-.013.171-.04.244s-.063.135-.111.191a.742.742 0 0 1-.41.218c.02.043.227.354.227.354.104.154.216.213.355.213zm5.278-1.575h.717v1.87h.384v-1.87h.714v-.345h-1.815zm-1.314.54c-.321-.046-.52-.111-.52-.298 0-.192.194-.317.492-.317.228.004.43.094.529.237l.007.012.289-.195-.007-.011c-.16-.252-.43-.375-.828-.375-.288 0-.55.09-.7.241a.54.54 0 0 0-.157.401c0 .493.443.595.859.652.383.051.545.155.545.345 0 .323-.411.347-.537.347-.173 0-.49-.046-.668-.352l-.008-.013-.286.19.007.013c.187.344.489.504.953.504.442 0 .917-.182.919-.689 0-.501-.427-.629-.89-.692zm-1.873.41c0 .37-.216.61-.552.61l-.04-.001c-.34-.013-.541-.241-.541-.611v-1.29h-.377v1.293c0 .57.36.946.917.961l.043.001c.56 0 .924-.378.924-.962V5.375h-.376v1.292zM8.625 5.372h1.816v.345h-.715v1.87h-.381v-1.87h-.718v-.345zm5.64-2.62v-.705h.654c.277 0 .4.165.4.358 0 .181-.106.347-.402.347zm1.429 1.185h.179v-.319h-.148c-.14 0-.252-.058-.355-.212 0 0-.208-.31-.226-.352.343-.073.56-.294.56-.655 0-.351-.245-.7-.786-.7h-1.033v2.216h.38v-.814h.44c.002 0 .009 0 .015.003.025.017.053.069.099.148.05.084.175.279.175.279.209.316.373.406.7.406zm2.28-1.893h-.714v1.871h-.383V2.044h-.718v-.345h1.815zm6.636.708h-.651v-.705h.654c.276 0 .4.165.4.358 0 .181-.105.347-.403.347zm.456.654s-.208-.31-.226-.352c.343-.073.56-.294.56-.655 0-.351-.247-.7-.786-.7H23.58v2.216h.378v-.814h.44a.03.03 0 0 1 .015.003c.026.017.054.069.1.148.05.084.175.279.175.279.208.316.37.406.699.406h.179v-.319h-.147c-.14 0-.252-.058-.354-.212zM10.135 1.699h.379v2.216h-.287L9.01 2.399v1.516h-.382V1.699h.29l.004.006 1.215 1.522V1.699zm8.798 2.216h-.378V1.699h.378v.952h1.125v-.952h.377v2.216h-.377v-.909h-1.125zm3.947 0h-1.644V1.699h1.635v.37h-1.256v.56h1.074v.354h-1.074v.558h1.265zM28 1.699v2.216h-.287l-.005-.006-1.213-1.51v1.516h-.383V1.699h.29l.005.006 1.212 1.522V1.699zm-15.812 1.91a.798.798 0 1 1-.001-1.597.798.798 0 0 1 0 1.597zm1.152-.798a1.153 1.153 0 1 0-2.307 0 1.153 1.153 0 0 0 2.307 0z" fill="#115740" mask="url(#a)" transform="translate(4 14)"/></g></svg>