<svg width="36" height="36" fill="none" xmlns="http://www.w3.org/2000/svg"><path d="M18 0c2.837 0 5.52.656 7.907 1.825C31.884 4.753 36 10.895 36 18c0 9.942-8.058 18-18 18-9.94 0-18-8.057-18-18C0 8.06 8.06 0 18 0z" fill="#F2F4F7"/><path d="M10.332 12.263A3.979 3.979 0 0 1 13.281 11c2.304 0 3.831 1.682 4.124 4.202.094.819.093 1.973.093 3.309v5.423h-3.17v-3.703s-.006-3.169-.025-3.761c-.085-2.58-1.612-4.2-3.97-4.202-.713.751-1.094 1.67-1.15 3.076-.008.196-.006.891-.003 1.807l.003 1.563c.002 2.414 0 5.22 0 5.22H6.014v-5.698c0-.195-.003-.392-.007-.59-.007-.398-.014-.798.007-1.195.036-.662.15-1.312.46-1.916a4.188 4.188 0 0 1 3.858-2.272zm19.654 6.527a17 17 0 0 0 .007-1.195 32.489 32.489 0 0 1-.007-.59v-5.698h-3.169s-.002 2.807 0 5.22c0 .555.002 1.089.003 1.563.003.916.005 1.611-.003 1.807-.056 1.406-.437 2.325-1.149 3.077-2.359-.002-3.886-1.623-3.971-4.202-.02-.593-.028-2.063-.028-3.765v-3.703l-3.166.003v5.423c0 1.337-.002 2.49.093 3.309.292 2.52 1.82 4.202 4.123 4.202a3.98 3.98 0 0 0 2.949-1.263 4.188 4.188 0 0 0 3.859-2.272c.308-.604.423-1.254.459-1.915z" fill="#820AD1"/></svg>