<svg width="36" height="36" fill="none" xmlns="http://www.w3.org/2000/svg"><path d="M18 0c2.837 0 5.52.656 7.907 1.825C31.884 4.753 36 10.895 36 18c0 9.942-8.058 18-18 18-9.94 0-18-8.057-18-18C0 8.06 8.06 0 18 0z" fill="#F2F4F7"/><path fill-rule="evenodd" clip-rule="evenodd" d="M20.463 18.675c0 .464-.239.561-.44.561-.39 0-.39-.375-.39-.555v-1.52h-.858v1.963c0 .62.279.935.828.935.043 0 .085-.003.126-.007l.064-.008c.051-.009.1-.02.146-.036a.976.976 0 0 0 .543-.396v.4h.84v-2.85h-.858v1.513zm2.882-1.514h-.722v-.111c0-.245.155-.39.415-.39h.04c.022.002.055.003.108.004l.101-.711a19.273 19.273 0 0 0-.379-.01c-.765 0-1.14.338-1.143 1.03v3.039h.858v-2.275h.634l.088-.575zm.621 1.892c0-.216.176-.391.393-.391a.4.4 0 0 1 .4.391c0 .213-.18.386-.4.386a.386.386 0 0 1-.393-.386zm.316-1.891h-.546l-.095.562.36-.001c.361 0 .702 0 .702.385v.2a1.342 1.342 0 0 0-.471-.136v.001a.755.755 0 0 0-.099-.007c-.63 0-1.038.374-1.038.953 0 .565.37.946.92.946a.99.99 0 0 0 .157-.012s.404-.05.608-.37l.003-.003v.332h.704v-1.869c0-.724-.182-.981-1.205-.981z" fill="#00AA4E"/><mask id="a" style="mask-type:alpha" maskUnits="userSpaceOnUse" x="27" y="17" width="5" height="4"><path d="M32 17.114v2.898h-4.174v-2.898H32z" fill="#fff"/></mask><g mask="url(#a)"><path fill-rule="evenodd" clip-rule="evenodd" d="M31.184 17.114c-.207 0-.4.055-.57.161 0 0-.116.068-.355.265l-.043-.066a.749.749 0 0 0-.677-.36.937.937 0 0 0-.286.045s-.29.075-.605.426v-.423h-.822v2.85h.846v-1.514c0-.506.3-.561.428-.561.39 0 .39.361.39.555v1.52h.846v-1.514c0-.506.3-.561.428-.561.39 0 .39.361.39.555v1.52H32v-1.957c0-.624-.274-.94-.816-.94z" fill="#00AA4E"/></g><path fill-rule="evenodd" clip-rule="evenodd" d="m17.385 18.303-1.526-2.33h-.62v4.039h.957v-2.283l1.37 2.283h.777v-4.038h-.958v2.33zm9.976-1.146s-.358.058-.582.438v-.433h-.858v2.85h.858v-1.355c0-.424.244-.667.67-.667h.03v-.851a.831.831 0 0 0-.118.019z" fill="#00AA4E"/><mask id="b" style="mask-type:alpha" maskUnits="userSpaceOnUse" x="4" y="15" width="11" height="7"><path d="M14.444 15H4v6.856h10.444V15z" fill="#fff"/></mask><g mask="url(#b)"><path fill-rule="evenodd" clip-rule="evenodd" d="m7.486 19.832-2.317 1.33L4 20.471v-4.69l1.073-.74 2.414 1.348C7.942 15.934 9.266 15 10.09 15c.647 0 1.25.343 1.824 1.293.818 1.355 1.316 3.562 1.77 4.208a.66.66 0 0 0 .76.214c-.272.454-1.192 1.141-2.262 1.141-1.386 0-1.993-1.391-2.174-1.72-.155-.28-.974-2.07-1.104-2.304-.3-.541-.653-1.078-1.031-1.078a.424.424 0 0 0-.381.21l-.005 2.868z" fill="#00AA4E"/></g></svg>