<svg width="36" height="36" fill="none" xmlns="http://www.w3.org/2000/svg"><path d="M18 0c2.837 0 5.52.656 7.907 1.825C31.884 4.753 36 10.895 36 18c0 9.942-8.058 18-18 18-9.94 0-18-8.057-18-18C0 8.06 8.06 0 18 0z" fill="#F2F4F7"/><path d="M7.147 20.002h-.935v-1.74c0-.457-.065-.93-.563-.93-.663 0-.714.609-.714.8v1.87H4v-3.434h.895v.412c.206-.322.553-.498.985-.498.795 0 1.267.508 1.267 1.363v2.157zm6.094-.905.84-2.53h.98l-1.302 3.44h-1.056l-1.352-3.44h1.045l.83 2.53h.015zm9.453.99c-.795 0-1.268-.507-1.268-1.362v-2.157h.936v1.74c0 .457.065.93.563.93.663 0 .714-.609.714-.8v-1.87h.935v3.439h-.895v-.412c-.211.316-.553.492-.985.492zm6.58-.005c-.995 0-1.714-.759-1.714-1.8 0-1.076.69-1.8 1.715-1.8 1.08 0 1.705.68 1.705 1.866v.281H28.5c.071.428.378.694.81.694.418 0 .644-.206.83-.432l.03-.04.679.512-.035.04c-.353.433-.916.68-1.54.68zm-.768-2.182h1.538c-.025-.442-.301-.694-.764-.694-.428 0-.699.247-.774.694zM9.5 20.087c-1.005 0-1.825-.81-1.825-1.8 0-.995.82-1.8 1.825-1.8 1.006 0 1.826.81 1.826 1.8s-.82 1.8-1.826 1.8zm0-2.73a.936.936 0 0 0-.94.925c0 .513.423.925.94.925.518 0 .94-.417.94-.925a.936.936 0 0 0-.94-.925zm16.788 2.645h-.935v-3.434h.935v.412a1.115 1.115 0 0 1 1.046-.487l.045.005v.91l-.06-.01a1.3 1.3 0 0 0-.186-.015c-.834 0-.845.784-.845.789v1.83z" fill="#5EB3E4"/><path d="M16.916 20.067c-1.005 0-1.825-.81-1.825-1.8 0-.995.82-1.8 1.825-1.8 1.006 0 1.826.81 1.826 1.8s-.82 1.8-1.826 1.8zm0-2.73a.936.936 0 0 0-.94.925c0 .513.422.925.94.925s.94-.417.94-.925a.936.936 0 0 0-.94-.925z" fill="#7082C2"/><path d="M19.682 20.067c-1.006 0-1.825-.81-1.825-1.8 0-.995.82-1.8 1.825-1.8a1.786 1.786 0 0 1 1.292.548l.035.035-.628.609-.036-.035a.921.921 0 0 0-.663-.282.936.936 0 0 0-.94.925c0 .513.422.925.94.925a.93.93 0 0 0 .724-.346l.03-.04.684.547-.03.04a1.807 1.807 0 0 1-1.408.674z" fill="#7082C2"/><path d="M18.742 18.262c0-.433-.158-.85-.443-1.176a1.784 1.784 0 0 0 0 2.353c.286-.325.444-.744.443-1.177z" fill="#003B71"/><path d="M31.457 16c.302 0 .543.246.543.553a.546.546 0 0 1-.543.553.545.545 0 0 1-.538-.553.542.542 0 0 1 .538-.553zm0 .985a.419.419 0 0 0 .412-.432.419.419 0 0 0-.412-.433c-.226 0-.407.191-.407.433 0 .241.176.432.407.432zm-.191-.713h.231c.11 0 .181.07.181.175 0 .086-.06.131-.1.146v.005s.005.005.02.03l.105.201h-.14l-.096-.206h-.07v.206h-.131v-.558zm.201.256c.05 0 .08-.03.08-.086 0-.055-.03-.08-.08-.08h-.07v.166h.07z" fill="#5EB3E4"/></svg>