<svg width="36" height="36" fill="none" xmlns="http://www.w3.org/2000/svg"><defs><linearGradient id="a" x1="26.699" y1="17.635" x2="31.879" y2="20.314" gradientUnits="userSpaceOnUse"><stop stop-color="#A30B9E"/><stop offset="1" stop-color="#720DFD"/></linearGradient></defs><path d="M18 0c2.837 0 5.52.656 7.907 1.825C31.884 4.753 36 10.895 36 18c0 9.942-8.058 18-18 18-9.94 0-18-8.057-18-18C0 8.06 8.06 0 18 0z" fill="#F2F4F7"/><path d="M5.273 16.782v4.582H4V15h.93l5.434 4.518V15h1.272v6.364h-.795l-5.568-4.582z" fill="#071866"/><path fill-rule="evenodd" clip-rule="evenodd" d="M15.773 21.364a3.182 3.182 0 1 0 0-6.364 3.182 3.182 0 0 0 0 6.364zm0-1.273a1.909 1.909 0 1 0 0-3.818 1.909 1.909 0 0 0 0 3.818z" fill="#071866"/><path d="m27.12 15-5.938 4.754V15h-1.273v6.364h1.273L29.149 15h-2.03zm-3.577 6.364L30.988 15H32v6.364l-1.273-.637v-3.869l-5.173 4.506h-2.018.007z" fill="#071866"/><path d="M27.29 16.91a4.417 4.417 0 0 0 2.247 2.615c.866.452 1.718.585 2.463.477v1.362c-.936 0-2.01-.096-3.004-.611a5.886 5.886 0 0 1-2.723-2.94l1.018-.904z" fill="url(#a)"/></svg>