<svg width="36" height="36" fill="none" xmlns="http://www.w3.org/2000/svg"><defs><linearGradient id="a" x1="18.558" y1="11.765" x2="21.907" y2="13.698" gradientUnits="userSpaceOnUse"><stop stop-color="#E85298"/><stop offset="1" stop-color="#E85298"/><stop offset="1" stop-color="#E85298"/></linearGradient><linearGradient id="b" x1="18.3" y1="9.115" x2="15.966" y2="11.897" gradientUnits="userSpaceOnUse"><stop stop-color="#E85298"/><stop offset="1" stop-color="#E85298"/></linearGradient><linearGradient id="c" x1="14.748" y1="13.342" x2="18.556" y2="16.536" gradientUnits="userSpaceOnUse"><stop stop-color="#E85298"/><stop offset="1" stop-color="#E85298"/></linearGradient></defs><path d="M18 0c2.837 0 5.52.656 7.907 1.825C31.884 4.753 36 10.895 36 18c0 9.942-8.058 18-18 18-9.94 0-18-8.057-18-18C0 8.06 8.06 0 18 0z" fill="#F2F4F7"/><path d="m18.56 7.903 6.693 3.863-3.344 5.796-6.693-3.863 3.344-5.796z" fill="url(#a)"/><path d="m22.137 10.46-4.671 5.567-5.832-4.894 4.67-5.563 5.833 4.89z" fill="url(#b)"/><path d="m16.035 9.153 5.77 4.842-5.19 6.185-5.77-4.842 5.19-6.185z" fill="url(#c)"/><path d="M23.584 18.531h-4.47l-2.229-3.867h4.464l2.23-3.863 2.229 3.863-2.224 3.867zm-8.933-3.867 2.23-3.863h-4.465l-2.229 3.863 2.23 3.867h4.463l-2.23-3.867zM15.77 5l-2.23 3.862h4.464l2.23 3.868 2.229-3.862-2.23-3.863H15.77V5z" fill="#92308D"/><path d="m23.578 10.802 2.23 3.862-2.23 3.867-2.229-3.867 2.23-3.862zm-8.927 3.862h-4.464l2.23 3.867h4.463l-2.23-3.867zM18 8.863l2.23 3.867 2.229-3.862-2.23-3.863L18 8.863z" fill="#3B1E87"/><path d="M16.336 21.994v.555h-.674v1.441c0 .254.12.306.347.306.13 0 .228-.026.275-.041l.052-.016v.555l-.026.005a2.218 2.218 0 0 1-.58.062c-.162 0-.69-.052-.69-.741v-1.571h-.394v-.55h.394v-.715l.622-.218v.928h.674zm4.173-.907-.746 3.712h-.633l-.653-2.582-.669 2.582h-.622l-.778-3.712h.648l.503 2.52.628-2.52h.606c.062.233.628 2.488.633 2.514l.461-2.514h.622zm.643 2.017c.016-.265.202-.612.596-.612.43 0 .56.378.576.612h-1.172zm.627-1.162c-.471 0-1.275.311-1.275 1.468 0 1.378 1.1 1.451 1.317 1.451.466 0 .674-.098.881-.192l.02-.01v-.586l-.056.036a1.52 1.52 0 0 1-.757.197c-.653 0-.747-.466-.752-.663h1.794l.005-.031c.057-.39 0-.928-.316-1.296-.218-.25-.503-.374-.86-.374zm3.469 2.074c0 .42-.368.845-1.063.845-.306 0-.643-.078-.887-.192l-.02-.01v-.601l.057.03c.202.11.523.224.834.224.28 0 .446-.099.446-.275 0-.166-.098-.218-.342-.327l-.099-.041c-.119-.052-.222-.099-.393-.177-.166-.072-.545-.243-.545-.757 0-.274.213-.793 1.006-.793.326 0 .653.088.778.15l.02.011v.591l-.057-.026a1.578 1.578 0 0 0-.72-.181c-.094 0-.39.02-.39.228 0 .16.188.243.343.31l.031.011c.109.047.197.088.27.12l.078.036c.476.207.653.43.653.824zm-14.04-2.93h.607V24.8h-.59l-1.618-2.582V24.8H9v-3.712h.607l1.602 2.602v-2.602zm15.118 1.458v1.44c0 .26.12.307.347.307.13 0 .229-.026.275-.037L27 24.24v.555l-.031.005a2.179 2.179 0 0 1-.576.062c-.16 0-.684-.052-.684-.741V22.55h-.4V22h.4v-.715l.617-.218v.928H27v.555h-.674v-.005zM13.847 23.98c-.072.088-.295.321-.643.321-.264 0-.435-.155-.435-.389 0-.243.197-.383.534-.383h.544v.45zm-.477-2.048a2.24 2.24 0 0 0-.84.15l-.025.01v.57l.057-.025c.145-.073.492-.135.715-.135.544 0 .57.208.57.477h-.58c-.773 0-1.125.482-1.125.933 0 .628.497.95.99.95.337 0 .55-.125.72-.276v.218h.617v-1.897c0-.882-.772-.975-1.099-.975zm9.223 6.283c0-.067.016-.14.037-.202.098-.373.414-.617.751-.617.53 0 .814.472.814 1.021 0 .628-.306 1.058-.834 1.058a.766.766 0 0 1-.747-.58 1.27 1.27 0 0 1-.02-.203v-.477zm-.492 2.707h.492v-1.488h.01c.167.27.483.43.846.43.643 0 1.244-.487 1.244-1.472 0-.83-.498-1.395-1.161-1.395-.446 0-.768.197-.975.534h-.01l-.021-.472h-.446c.01.26.02.545.02.897v2.966zm-.529-3.858h-.498v1.68a.67.67 0 0 1-.046.254.712.712 0 0 1-.659.451c-.45 0-.611-.352-.611-.87v-1.52h-.498v1.602c0 .964.513 1.198.943 1.198.488 0 .778-.29.908-.508h.01l.026.446h.44c-.015-.218-.02-.467-.02-.747v-1.986h.005zm-3.971.311c.59 0 .819.591.819 1.053 0 .617-.358 1.063-.83 1.063-.487 0-.834-.451-.834-1.053 0-.523.259-1.063.845-1.063zm.01-.373c-.757 0-1.358.54-1.358 1.457 0 .866.57 1.41 1.311 1.41.664 0 1.364-.44 1.364-1.457.005-.84-.529-1.41-1.317-1.41zm-2.7 2.8h.492V28.34c0-.083.01-.166.02-.233.068-.374.317-.638.67-.638a.86.86 0 0 1 .17.015v-.471a.576.576 0 0 0-.14-.016c-.332 0-.632.233-.757.601h-.02l-.016-.539h-.435c.015.254.02.534.02.856v1.887h-.005zm-.483-2.001h-1.255v.394h.778v1.135c-.114.057-.332.104-.658.104-.887 0-1.473-.57-1.473-1.54 0-.96.607-1.535 1.535-1.535.383 0 .637.073.845.166l.12-.404c-.167-.078-.509-.176-.95-.176-1.28 0-2.058.83-2.068 1.97 0 .596.202 1.104.534 1.42.373.358.85.503 1.425.503.514 0 .95-.13 1.172-.207V27.8h-.005z" fill="#3D0964"/></svg>