<svg width="36" height="36" fill="none" xmlns="http://www.w3.org/2000/svg"><path d="M18 0c2.837 0 5.52.656 7.907 1.825C31.884 4.753 36 10.895 36 18c0 9.942-8.058 18-18 18-9.94 0-18-8.057-18-18C0 8.06 8.06 0 18 0z" fill="#F2F4F7"/><path d="M7.155 16.582a.526.526 0 0 0 .482-.319.512.512 0 0 0-.113-.563.523.523 0 0 0-.891.366.511.511 0 0 0 .322.477c.063.026.131.04.2.04zm3.102 4.636v-4.66h.925l1.927 3.111v-3.11h.883v4.659h-.954l-1.898-3.039v3.039h-.883zm6.215-1.074.899.149a1.46 1.46 0 0 1-.548.745c-.249.17-.561.256-.936.256-.593 0-1.032-.192-1.317-.576-.224-.307-.337-.694-.337-1.163 0-.559.148-.997.443-1.314a1.467 1.467 0 0 1 1.121-.475c.508 0 .908.166 1.201.497.293.332.434.84.42 1.524h-2.26c.007.265.08.472.219.619a.683.683 0 0 0 .52.22c.141 0 .26-.038.356-.114a.705.705 0 0 0 .219-.368zm.051-.903c-.006-.259-.074-.455-.202-.589a.622.622 0 0 0-.47-.201.633.633 0 0 0-.488.212c-.128.143-.191.335-.189.579l1.35-.001z" fill="#002F6C"/><path d="m17.228 21.218 1.23-1.739-1.179-1.637h1.102l.604.93.636-.929h1.06l-1.157 1.599 1.262 1.776h-1.108l-.693-1.046-.7 1.046h-1.057zm5.79 2.156v-1.286h.94v.152h-.768v.394h.719v.15h-.719v.438h.798v.152h-.97zm1.186 0v-.932h.144v.132a.34.34 0 0 1 .3-.153c.053 0 .107.01.156.03a.246.246 0 0 1 .106.08.31.31 0 0 1 .05.116c.007.051.01.103.009.154v.573h-.16v-.567a.422.422 0 0 0-.018-.144.151.151 0 0 0-.066-.076.26.26 0 0 0-.287.035c-.05.041-.075.122-.075.242v.509h-.159zm1.654-.3.165.02a.4.4 0 0 1-.144.223.44.44 0 0 1-.27.078.432.432 0 0 1-.327-.126.49.49 0 0 1-.121-.352c0-.157.04-.279.122-.366a.418.418 0 0 1 .318-.13.408.408 0 0 1 .308.127.5.5 0 0 1 .12.357v.042h-.701c.006.103.035.18.087.235a.263.263 0 0 0 .197.082.245.245 0 0 0 .149-.046.3.3 0 0 0 .098-.144zm-.523-.256h.526a.313.313 0 0 0-.06-.176.244.244 0 0 0-.198-.091.256.256 0 0 0-.185.073.287.287 0 0 0-.083.194zm.887.556v-.932h.144v.141a.387.387 0 0 1 .101-.13.179.179 0 0 1 .103-.032.33.33 0 0 1 .164.051l-.055.147a.228.228 0 0 0-.117-.034.154.154 0 0 0-.094.031.168.168 0 0 0-.06.087.608.608 0 0 0-.026.184v.488l-.16-.001zm.578.076.154.024a.147.147 0 0 0 .055.103.267.267 0 0 0 .162.044c.074 0 .13-.015.17-.044a.212.212 0 0 0 .082-.123.977.977 0 0 0 .012-.202.33.33 0 0 1-.26.122.357.357 0 0 1-.301-.139.53.53 0 0 1-.106-.332.614.614 0 0 1 .048-.246.388.388 0 0 1 .142-.175.384.384 0 0 1 .217-.061.34.34 0 0 1 .275.133v-.112h.147v.805a.758.758 0 0 1-.045.309.325.325 0 0 1-.142.143.496.496 0 0 1-.238.053.454.454 0 0 1-.273-.075c-.069-.05-.102-.125-.1-.226zm.131-.559c0 .122.025.212.074.268a.235.235 0 0 0 .184.084.236.236 0 0 0 .185-.084c.05-.056.074-.144.074-.263 0-.114-.026-.2-.076-.258a.235.235 0 0 0-.185-.087.232.232 0 0 0-.181.086c-.05.058-.075.142-.075.255zm.9.841-.017-.148c.03.009.06.013.09.014a.178.178 0 0 0 .086-.017.144.144 0 0 0 .052-.05.764.764 0 0 0 .049-.117l.014-.039-.357-.933h.172l.196.54c.025.068.048.14.068.215a2.1 2.1 0 0 1 .066-.212l.2-.543h.16l-.358.947a1.843 1.843 0 0 1-.09.212.315.315 0 0 1-.097.114.232.232 0 0 1-.131.037.326.326 0 0 1-.103-.02zm1.432-.358v-1.286h.172v1.135h.64v.152l-.812-.001zm1.344-.142.024.14a.611.611 0 0 1-.121.014.277.277 0 0 1-.135-.027.152.152 0 0 1-.067-.072.556.556 0 0 1-.02-.186v-.536h-.116v-.123h.116v-.231l.16-.095v.325h.16v.123h-.16v.545a.267.267 0 0 0 .008.087.064.064 0 0 0 .027.03.106.106 0 0 0 .055.012.494.494 0 0 0 .07-.006zm.768.142v-.118a.294.294 0 0 1-.264.139.372.372 0 0 1-.207-.062.406.406 0 0 1-.146-.171.587.587 0 0 1-.052-.253.654.654 0 0 1 .047-.252.367.367 0 0 1 .351-.234.317.317 0 0 1 .26.128v-.463h.159v1.286h-.148zm-.505-.465c0 .119.026.208.076.267a.227.227 0 0 0 .18.089.227.227 0 0 0 .178-.084c.049-.056.073-.143.073-.259 0-.127-.025-.221-.074-.28a.229.229 0 0 0-.184-.09.222.222 0 0 0-.177.086c-.048.057-.072.147-.072.27zm.949.465v-.18H32v.18h-.181z" fill="#002F6C"/><path d="M9.122 13.823a.514.514 0 0 0-.008-.078.23.23 0 0 0-.018-.059.403.403 0 0 0-.13-.144c-.01-.006-.022-.012-.031-.02l-.037-.027v.003A3.223 3.223 0 0 0 7.171 13C5.422 13 4 14.379 4 16.073c0 1.695 1.423 3.074 3.17 3.074a3.225 3.225 0 0 0 1.578-.407c.066-.032.135-.074.135-.074a1.11 1.11 0 0 0 .065-.048l.018-.012v-.002a.531.531 0 0 0 .115-.128.23.23 0 0 0 .019-.059.901.901 0 0 0-.01-.301.31.31 0 0 0-.028-.079.124.124 0 0 0-.038-.046.075.075 0 0 0-.049-.011c-.03.002-.069.023-.116.063a2.68 2.68 0 0 1-1.688.592c-1.456 0-2.64-1.148-2.64-2.56 0-1.411 1.183-2.56 2.64-2.56a2.678 2.678 0 0 1 1.737.634h.002c.023.018.05.03.08.035a.076.076 0 0 0 .048-.012.124.124 0 0 0 .038-.046.321.321 0 0 0 .028-.079.907.907 0 0 0 .019-.223" fill="#7BB931"/><path d="M9.458 16.075c0-1.194-1.002-2.165-2.233-2.165-.419 0-.83.114-1.185.332l-.002-.004-.043.031c-.013.01-.024.014-.036.021l-.004.003-.004.003a.273.273 0 0 0-.059.078.177.177 0 0 0-.012.019.226.226 0 0 0-.018.056.673.673 0 0 0 .008.232.272.272 0 0 0 .025.07c.01.023.027.042.047.056a.12.12 0 0 0 .068.02h.01c.04-.002.081-.024.13-.068a1.76 1.76 0 0 1 1.073-.365c.956 0 1.735.754 1.735 1.682 0 .927-.778 1.681-1.734 1.681-.418 0-.821-.147-1.139-.415a.118.118 0 0 0-.044-.023v.002a.148.148 0 0 0-.04-.01h-.01a.12.12 0 0 0-.067.021.148.148 0 0 0-.048.055.273.273 0 0 0-.025.07.605.605 0 0 0-.014.17.43.43 0 0 0 .007.063c.003.02.01.038.018.056a.324.324 0 0 0 .07.088l-.002.005.03.02.013.009.045.033.002-.004c.36.225.778.344 1.204.344 1.232 0 2.234-.971 2.234-2.165" fill="#7BB931"/><path d="M8.066 16.851a.205.205 0 0 0-.019-.052.118.118 0 0 0-.107-.067h-.009a.162.162 0 0 0-.083.035.978.978 0 0 1-.645.238c-.53 0-.96-.417-.96-.93 0-.514.43-.931.96-.931.241 0 .474.088.653.249l.012.01.016.007a.115.115 0 0 0 .036.006l.01.002h.01a.116.116 0 0 0 .065-.02.131.131 0 0 0 .043-.048.207.207 0 0 0 .018-.052.391.391 0 0 0 .01-.11.29.29 0 0 0-.005-.043.176.176 0 0 0-.015-.044.224.224 0 0 0-.034-.047.337.337 0 0 0-.05-.044l-.004-.004-.006-.003-.006-.005-.005-.003a1.362 1.362 0 0 0-.748-.222c-.74 0-1.342.584-1.342 1.302 0 .717.602 1.3 1.342 1.3.27.001.536-.078.76-.228L8 17.122v-.005a.225.225 0 0 0 .057-.069.179.179 0 0 0 .014-.044.33.33 0 0 0 .004-.094.355.355 0 0 0-.008-.057m14.955 2.652v-.785h2.05v1.856c-.2.19-.489.359-.866.504a3.182 3.182 0 0 1-1.147.218c-.493 0-.922-.102-1.288-.307-.362-.2-.65-.506-.826-.877a2.81 2.81 0 0 1-.276-1.24c0-.485.103-.917.308-1.294.206-.377.506-.667.902-.869.302-.154.678-.231 1.127-.231.585 0 1.041.121 1.37.364.328.242.54.578.634 1.006l-.944.175a.986.986 0 0 0-.374-.542c-.183-.133-.412-.199-.686-.199-.415 0-.745.13-.99.391-.246.26-.368.647-.368 1.16 0 .552.124.967.372 1.244.249.276.574.415.977.414a1.65 1.65 0 0 0 .6-.116 2.06 2.06 0 0 0 .514-.281v-.591h-1.089zm4.401.639.9.149a1.457 1.457 0 0 1-.548.745c-.25.17-.562.256-.936.256-.594 0-1.033-.192-1.317-.576-.225-.307-.337-.694-.337-1.163 0-.559.147-.997.443-1.314a1.467 1.467 0 0 1 1.12-.475c.508 0 .908.166 1.201.497.294.332.434.84.421 1.524h-2.26c.006.265.079.472.218.619a.684.684 0 0 0 .52.22.56.56 0 0 0 .357-.114c.096-.076.168-.199.218-.368zm.051-.903c-.006-.259-.073-.455-.202-.589a.652.652 0 0 0-.741-.144.653.653 0 0 0-.216.155c-.128.143-.192.335-.19.579l1.35-.001zm4.241 1.977h-.902v-1.723c0-.364-.02-.6-.058-.707a.499.499 0 0 0-.501-.339.73.73 0 0 0-.421.128.641.641 0 0 0-.255.336c-.046.14-.07.399-.069.776v1.528h-.903v-3.375h.839v.496c.297-.381.672-.572 1.124-.572.187-.002.373.034.546.107.164.07.29.161.374.271a.98.98 0 0 1 .176.375c.033.14.05.34.05.6v2.099z" fill="#7BB931"/></svg>