<svg height="36" viewBox="0 0 36 36" width="36" xmlns="http://www.w3.org/2000/svg"><mask id="a" fill="#fff"><path d="M0 0h11.464v10.139H0z" fill-rule="evenodd"/></mask><g fill="none" fill-rule="evenodd"><path d="M18 0c2.837 0 5.52.656 7.907 1.825C31.884 4.753 36 10.895 36 18c0 9.942-8.058 18-18 18-9.94 0-18-8.057-18-18C0 8.06 8.06 0 18 0z" fill="#f2f4f7" fill-rule="nonzero"/><path d="m20.225 13-2.093 3.37L16.037 13h-.569v10.139h.57l2.094-3.37 2.093 3.37h.574l-.006-.008V13z" fill="#6dacde"/><path d="m12.362 13 3.1 5.07-3.1 5.069h3.106V13z" fill="#938647"/><path d="M20.794 13v10.131l.005.008H23.9l-3.102-5.069L23.9 13z" fill="#6d9a45"/><path d="M29.103 17.091c0 .601-.28 1.292-1.009 1.292h-4.189v-2.868h3.923c.94 0 1.275.391 1.275 1.076zM28.33 13h-4.428l-3.1 5.07 3.1 5.069h.001v-2.24h5.24c2.2 0 2.857-1.733 2.857-3.242v-1.191C32 14.482 31.285 13 28.33 13z" fill="#bfd730"/><path d="M11.464 5.069 8.362 0h-.001L8.36 6.127 3.106 0H0v10.139l3.108-.001-.001-6.126 5.255 6.127z" fill="#fcb316" mask="url(#a)" transform="translate(4 13)"/></g></svg>