<svg height="36" viewBox="0 0 36 36" width="36" xmlns="http://www.w3.org/2000/svg"><g fill="none" fill-rule="evenodd"><path d="M18 0c2.837 0 5.52.656 7.907 1.825C31.884 4.753 36 10.895 36 18c0 9.942-8.058 18-18 18-9.94 0-18-8.057-18-18C0 8.06 8.06 0 18 0z" fill="#f2f4f7" fill-rule="nonzero"/><path d="M31.559 18.601a.504.504 0 0 0-.441-.289.53.53 0 0 0-.289.076c.076-.122.274-.335.532-.487l.183.152zm.258-1.217c-.106.182-.334.365-.471.456l-.167-.136v-.533a.45.45 0 0 0 .638.213zm.168.456-.289-.228a.758.758 0 0 0 .274-.548v-.09h-.031c-.03.075-.091.151-.213.151s-.197-.061-.273-.151l-.685.379v.548l.259.198c-.259.228-.304.38-.304.502 0 .151.076.258.197.304l.015-.031c-.03-.03-.061-.045-.061-.122 0-.045.061-.121.183-.121.152 0 .243.107.289.153l.654-.396v-.548zm-2.145.137v-.745l.031-.015.334.532zm.761.259-.38.289-.381-.305v-.182l.715-.487v-.015l-.365-.547-.791.425v1.035l.533.38.684-.547zm-1.323.228-.107.075-.167-.151v-1.035l.152-.121-.031-.03-.121.106-.35-.319-.456.319-.35-.319-.426.319-.274-.319-.441.304.016.045.106-.076.152.168v.988l-.122.121.35.29.335-.304-.137-.137v-1.035l.137-.091.228.213v.913l-.122.121.35.289.335-.303-.137-.137v-1.005l.121-.075.244.213v.912l-.107.106.35.32.472-.32zm-2.54.015-.122.076-.152-.152v-1.05l.152-.106-.031-.03-.106.091-.274-.319-.441.304.031.045.106-.076.137.168v.988l-.198.153.015.03.107-.076.335.304.456-.304zm-.457-2.251h-.015l-.304.259v.015l.259.289h.03l.304-.259v-.015zm-1.855 1.825-.182.091c-.107-.137-.168-.319-.168-.578 0-.106.015-.228.046-.319l.319-.137zm1.323-1.673c0-.304-.289-.38-.517-.38v.046c.137 0 .244.045.244.152 0 .061-.046.152-.183.152-.107 0-.335-.061-.502-.122-.198-.061-.38-.122-.532-.122a.497.497 0 0 0-.517.487c0 .228.167.304.228.335l.015-.031c-.046-.03-.092-.061-.092-.152 0-.061.062-.167.213-.167.138 0 .32.061.563.137.213.061.441.106.563.121v.472l-.228.198v.015l.228.198v.653a.694.694 0 0 1-.38.092c-.229 0-.426-.061-.593-.244l.623-.304v-1.065l-.76.335c.076-.197.243-.335.395-.441l-.015-.03c-.456.121-.867.532-.867 1.049 0 .608.502 1.065 1.065 1.065a.99.99 0 0 0 1.004-.989h-.031c-.091.198-.228.38-.395.472v-.624l.243-.197v-.016l-.228-.197v-.457c.228 0 .456-.152.456-.441zm-4.198 2.023-.198.152.031.03.092-.076.334.305.456-.305-.03-.03-.122.076-.152-.152v-2.342h-.015l-.548.365v.03c.061.031.152.046.152.228zm1.674.076-.518.35-.699-1.065.502-.775h.03c.061.06.152.121.259.121a.288.288 0 0 0 .228-.121h.03c-.015.304-.228.486-.38.486s-.228-.076-.32-.122l-.045.077.76 1.125.153-.091zm-1.826-1.46h-.03c-.046.03-.091.061-.137.061-.061 0-.137-.031-.167-.076h-.031l-.258.289-.259-.289-.456.304.015.03.122-.076.152.168v.958l-.198.151.031.032.091-.076.365.303.471-.319-.015-.03-.137.076-.182-.153v-1.064c.076.076.167.152.273.152.214.015.335-.198.35-.441zm-2.266 1.277v-1.094l.381.273v1.08zm.822-.958-.487-.349-.745.425v.989l-.153.122.015.03.122-.091.487.365.761-.457zm-2.084 1.08c0 .121-.076.244-.244.244h-.121v-.898c.03-.03.106-.076.182-.076s.137.046.183.076zm0-.714c-.031-.031-.107-.077-.183-.077s-.152.046-.182.077v-.396c.03.03.106.076.182.076s.152-.046.183-.076zm0-.457c-.046.046-.107.091-.183.091s-.152-.045-.182-.091v-.669l.152-.106.213.197zm.624-.928-.153.137-.334-.304-.502.365v-.334h-.046l.016 2.463c-.046 0-.183-.03-.29-.061l-.03-2.053a.362.362 0 0 0-.38-.365.443.443 0 0 0-.457.426h.046c.015-.091.061-.167.152-.167s.167.061.167.258v.594c-.273.015-.44.167-.44.365 0 .121.06.304.243.304v-.031c-.061-.03-.076-.076-.076-.106 0-.091.076-.122.197-.122h.061v.943c-.228.076-.319.243-.319.426 0 .259.198.441.502.441.213 0 .395-.031.578-.076.152-.03.35-.076.441-.076.122 0 .167.061.167.137 0 .106-.045.152-.106.167v.03c.243-.045.395-.197.395-.426 0-.227-.228-.364-.472-.364-.121 0-.379.045-.562.075a3.473 3.473 0 0 1-.487.076c-.106 0-.228-.044-.228-.197 0-.122.106-.228.365-.228.137 0 .304.015.471.061.183.045.35.091.502.091.228 0 .426-.076.426-.396v-1.87l.183-.152zm-2.83.837-.106.076-.289-.243-.335.304.137.137v1.141l-.365-.229v-.943l.122-.076-.35-.334-.335.304.137.137v1.095l-.045.03-.32-.228v-.913c0-.212-.106-.273-.228-.35-.106-.075-.167-.121-.167-.228 0-.091.091-.136.137-.167v-.03c-.122 0-.441.121-.441.41 0 .153.076.213.152.289s.152.137.152.274v.883l-.168.121.031.03.152-.121.35.304.38-.258.426.258.806-.471v-1.02l.198-.152zm-3.239.821v-.745l.03-.015.335.532zm.76.259-.38.289-.38-.305v-.182l.715-.487v-.015l-.365-.547-.791.425v1.004l-.152.121.03.032.137-.107.517.38.685-.548zm-1.11-1.993c0-.045-.015-.091-.03-.137h-.031c-.045.122-.106.183-.258.183a.402.402 0 0 1-.289-.137l-.441.502.03.03.152-.137a.557.557 0 0 0 .38.153v1.262l-.897-1.536c-.076-.122-.182-.289-.395-.289-.244 0-.457.213-.426.547h.045c.016-.091.061-.197.168-.197.076 0 .152.076.197.152v.502c-.273 0-.456.121-.456.35 0 .121.061.304.243.349v-.03a.14.14 0 0 1-.045-.106c0-.077.061-.138.167-.138h.076v.639c-.319 0-.578.183-.578.487 0 .289.244.426.517.411v-.03c-.167-.016-.243-.092-.243-.199 0-.136.091-.197.213-.197s.228.075.304.167l.441-.486-.03-.031-.107.122c-.167-.153-.258-.198-.456-.229V16.7l1.217 2.129h.091V16.7a.466.466 0 0 0 .441-.457zm-3.665 1.734v-.745l.03-.015.335.532zm.76.259-.38.289-.38-.305v-.182l.714-.487v-.015l-.364-.547-.791.425v1.004l-.153.121.031.032.137-.107.517.38.684-.548zm-2.783.167-.198.152.031.03.091-.076.334.305.457-.305-.016-.03-.121.076-.152-.152v-1.034l.121-.091.259.213v.927c0 .579-.122.669-.38.761v.045c.426.016.821-.121.821-.866v-1.005l.137-.106-.03-.03-.122.091-.38-.319-.426.319v-1.247h-.031l-.532.365v.03c.061.031.152.061.152.228zm-1.612-.35-.183.091c-.106-.137-.167-.319-.167-.578 0-.106 0-.228.03-.319l.32-.137zm1.323-1.673c0-.304-.289-.38-.517-.38v.046c.137 0 .243.045.243.152 0 .061-.045.152-.183.152-.106 0-.334-.061-.501-.122-.198-.076-.38-.137-.533-.137a.497.497 0 0 0-.517.487c0 .228.168.304.228.335l.016-.031c-.031-.031-.076-.061-.076-.152 0-.061.06-.167.213-.167.136 0 .319.06.562.137.213.06.442.106.563.121v.472l-.228.198v.015l.228.198v.654a.71.71 0 0 1-.38.091c-.228 0-.426-.061-.594-.244l.624-.304v-1.05l-.76.335c.061-.197.228-.335.395-.426l-.015-.045c-.456.121-.867.547-.867 1.064 0 .609.502 1.065 1.065 1.065a.988.988 0 0 0 1.003-.988h-.03c-.091.197-.228.38-.396.471v-.623l.244-.198v-.015l-.244-.198v-.472c.229 0 .457-.152.457-.441z" fill="#000"/></g></svg>