<svg width="36" height="36" fill="none" xmlns="http://www.w3.org/2000/svg"><path d="M18 0c2.837 0 5.52.656 7.907 1.825C31.884 4.753 36 10.895 36 18c0 9.942-8.058 18-18 18-9.94 0-18-8.057-18-18C0 8.06 8.06 0 18 0z" fill="#F2F4F7"/><path d="M26.17 18.218h-.057v-.102h.057c.034 0 .056.023.056.045 0 .046-.034.057-.056.057zm.056.034c.034-.011.057-.045.057-.09 0-.046-.034-.091-.102-.091h-.102c-.011 0-.023.011-.023.022v.284c0 .011.012.023.023.023h.011a.024.024 0 0 0 .023-.023v-.114h.057l.068.114c.011.011.011.023.034.023h.022c.012 0 .023-.012.012-.023l-.08-.125zm-.056.238c-.125 0-.227-.113-.227-.25 0-.135.102-.249.227-.249.124 0 .226.114.226.25s-.102.25-.226.25zm0-.533a.28.28 0 0 0-.284.284.28.28 0 0 0 .284.283.28.28 0 0 0 .283-.283c-.011-.159-.136-.284-.283-.284zm-.51 1.848c0-.805-1.18-.68-1.18-1.201 0-.182.148-.363.408-.363.272 0 .352.181.488.181.068 0 .17-.045.17-.17 0-.181-.306-.284-.635-.284-.43 0-.816.239-.816.68 0 .409.294.59.635.738.272.113.532.215.532.487 0 .193-.158.42-.487.42-.34 0-.43-.25-.59-.25-.079 0-.181.035-.181.16 0 .192.385.362.77.362.443-.023.885-.25.885-.76zm-2.45-.884h-1.043c.045-.385.25-.692.669-.692.306 0 .51.273.51.533 0 .08-.022.16-.136.16zm.59-.068c0-.42-.318-.896-.941-.896-.51 0-1.055.374-1.055 1.338 0 .578.318 1.247 1.055 1.247.544 0 .85-.385.895-.578.023-.102-.045-.136-.068-.136-.056 0-.09.023-.17.102a.821.821 0 0 1-.59.238c-.362 0-.77-.328-.759-1.02h1.417c.148 0 .216-.148.216-.295zm-3.21-.896a.991.991 0 0 0-.668.25 1.03 1.03 0 0 0-.714-.25c-.273 0-.545.068-.67.114-.158.056-.215.113-.215.192v2.177a.05.05 0 0 0 .046.046h.34c.022 0 .045-.023.045-.046v-2.007c0-.113.181-.204.442-.204.465 0 .488.295.488.51v1.702c0 .022.022.034.045.034h.329c.023 0 .034-.012.045-.023v-1.713c0-.215.023-.498.465-.51.476.012.465.34.465.567v1.645c0 .022.023.045.045.045h.329a.049.049 0 0 0 .046-.046v-1.712c0-.317-.046-.77-.862-.77zm-2.562.057h-.283c-.023 0-.034.011-.045.034l-.658 1.87-.67-1.87c-.01-.023-.022-.034-.044-.034h-.397c-.034 0-.057.034-.046.068l.953 2.347-.09.272c-.058.193-.126.34-.262.476a.387.387 0 0 1-.294.125c-.114 0-.182-.023-.261-.023-.102 0-.17.069-.17.16 0 .124.056.203.25.203.09 0 .441-.011.702-.294.215-.227.374-.67.465-.896l.884-2.381c.023-.023 0-.057-.034-.057zm-2.404 2.2h-1.043l1.066-2.064c.034-.057-.011-.136-.08-.136h-1.44a.049.049 0 0 0-.045.045v.182c0 .022.023.045.046.045h1.02l-1.1 2.064c-.034.056.012.136.08.136h1.496a.049.049 0 0 0 .046-.046v-.181c0-.023-.023-.045-.046-.045zm-2.21-.964c0 .442-.091.737-.227.862a.521.521 0 0 1-.409.159.507.507 0 0 1-.408-.16c-.136-.124-.226-.407-.226-.861 0-.453.09-.737.226-.862a.521.521 0 0 1 .409-.159c.17 0 .283.035.408.16.136.124.227.408.227.861zm.442 0c0-.567-.182-.93-.454-1.122a1.05 1.05 0 0 0-.612-.182 1.05 1.05 0 0 0-.612.181c-.273.182-.454.556-.454 1.123s.181.93.454 1.111c.17.114.396.182.612.182.215 0 .442-.057.612-.182.272-.181.454-.544.454-1.111zm-2.313-1.236h-.261c-.023 0-.034.011-.046.034l-.635 1.86-.657-1.86c0-.023-.023-.034-.046-.034h-.363c-.034 0-.056.034-.045.068l.907 2.381c.012.023.023.034.046.034h.226c.023 0 .034-.011.046-.034l.873-2.381c.011-.045-.023-.068-.045-.068zM8.98 19.25c0 .442-.09.737-.227.862a.521.521 0 0 1-.408.159.507.507 0 0 1-.408-.16c-.136-.124-.227-.407-.227-.861 0-.453.09-.737.227-.862a.521.521 0 0 1 .408-.159c.17 0 .283.035.408.16.136.124.227.408.227.861zm.43 0c0-.567-.18-.93-.453-1.122a1.05 1.05 0 0 0-.612-.182 1.05 1.05 0 0 0-.612.181c-.273.182-.454.556-.454 1.123s.181.93.454 1.111c.17.114.396.182.612.182.215 0 .442-.057.612-.182.272-.181.454-.544.454-1.111zm-3.446-1.293c-.363 0-.613.068-.749.114-.158.056-.215.113-.215.192v2.177c0 .023.023.046.045.046h.341a.049.049 0 0 0 .045-.046v-2.007c0-.113.181-.204.51-.204.556 0 .556.34.556.567v1.645c0 .022.022.045.045.045h.329a.049.049 0 0 0 .045-.046v-1.7c.012-.272.012-.783-.952-.783zm24.809-1.236c0 .216-.147.306-.283.306-.5 0-.873-.34-1.418-.884.386-.34.919-.76 1.384-.76a.32.32 0 0 1 .317.33v1.008zm-1.95-.476c-.045.045-.09.09-.136.125l-.102-.102c-.034-.034-.08-.068-.114-.114.034-.034.069-.068.114-.102l.102-.102.102.102.102.102a.31.31 0 0 1-.068.091zm-.907-1.791c0-.103.056-.261.34-.261h.907c.26 0 .374.125.374.295 0 .453-.385.805-.85 1.258-.386-.408-.771-.873-.771-1.292zm2.62.76c-.534 0-1.158.51-1.532.85l-.102-.102-.102-.102c.601-.567.93-.919.93-1.406 0-.182-.08-.454-.465-.454h-1.054c-.306 0-.477.125-.477.42 0 .362.272.805.85 1.428l-.101.102-.114.114c-.748-.703-1.077-.919-1.542-.919-.215 0-.385.148-.385.408 0 0 .068-.328.351-.328.477 0 .794.317 1.452.963-.533.5-1.032.794-1.35.794-.158 0-.396-.034-.442-.363 0 .375.204.477.476.477.386 0 .85-.295 1.418-.806a60.282 60.282 0 0 0 .226.227c-.532.544-.827.987-.827 1.304 0 .148.068.272.147.329.08.057.216.09.34.09-.102-.01-.215-.033-.283-.101a.425.425 0 0 1-.125-.306c0-.363.454-.885.828-1.26.76.783.93 1.135.93 1.339 0 .181-.148.306-.352.317.488 0 .488-.294.488-.362 0-.273-.227-.692-.941-1.418l.102-.102.102-.102c.657.658 1.032.953 1.587.953.272 0 .431-.193.431-.409v-1.122c-.023-.386-.306-.454-.465-.454z" fill="#2D0028"/></svg>