<svg width="36" height="36" fill="none" xmlns="http://www.w3.org/2000/svg"><path d="M18 0c2.837 0 5.52.656 7.907 1.825C31.884 4.753 36 10.895 36 18c0 9.942-8.058 18-18 18-9.94 0-18-8.057-18-18C0 8.06 8.06 0 18 0z" fill="#F2F4F7"/><path d="M24.274 18.525c0 .268-.198.437-.578.437-.127 0-.24-.014-.31-.014v-.832h.254c.38 0 .634.113.634.41zm-.057-1.255c0 .268-.197.423-.606.423h-.225v-.775c.098 0 .211-.014.338-.014.367 0 .493.155.493.366zm.677 1.24a.659.659 0 0 0-.536-.662v-.014a.708.708 0 0 0 .48-.648c0-.48-.367-.733-1.015-.733-.38 0-.776 0-1.03.014v2.946c.381 0 .706.014.889.014.916 0 1.212-.493 1.212-.916zm1.551 0c0 .254-.197.522-.479.522-.155 0-.254-.084-.254-.226 0-.183.127-.352.733-.352v.056zm.593.903c-.015-.17-.015-.381-.015-.55v-.916c0-.466-.211-.747-.916-.747-.296 0-.578.056-.804.126l.057.48a1.35 1.35 0 0 1 .648-.17c.324 0 .437.113.437.339v.113c-.761 0-1.283.281-1.283.803 0 .353.226.564.635.564.338 0 .606-.17.719-.409-.014.113-.028.24-.028.367h.55zm2.452 0V17.89c0-.38-.155-.69-.662-.69a.833.833 0 0 0-.762.436c.029-.127.029-.296.029-.395h-.536v2.172h.564v-1.044c0-.38.24-.705.521-.705.212 0 .283.142.283.367v1.382h.563zm2.51 0-.832-1.17.776-1.002h-.705l-.649.903v-1.917h-.564v3.186h.564V18.34l.691 1.072H32zm-19.062-1.466c0 .662-.408.902-.76.902-.508 0-.734-.352-.734-.93 0-.607.367-.889.747-.889.48 0 .747.31.747.916zm.776-.057c0-1.03-.635-1.48-1.466-1.48-.874 0-1.58.606-1.58 1.565 0 .93.48 1.494 1.467 1.494.874 0 1.58-.606 1.58-1.579zm2.58 1.452-.085-.606a1.895 1.895 0 0 1-.563.098c-.579 0-.832-.324-.832-.901 0-.536.282-.875.804-.875.197 0 .394.028.578.085l.084-.62a2.478 2.478 0 0 0-.649-.071c-1.057 0-1.621.634-1.621 1.593 0 .677.325 1.41 1.495 1.41.268 0 .55-.042.79-.113zm2.016-.832c0 .226-.183.367-.507.367-.113 0-.226-.014-.282-.014v-.705h.24c.338 0 .55.113.55.352zm-.042-1.212c0 .226-.183.353-.536.353h-.211V17h.296c.31 0 .451.114.451.297zm.832 1.198a.66.66 0 0 0-.522-.648v-.014c.282-.113.466-.367.466-.635 0-.493-.41-.747-1.1-.747-.395 0-.874 0-1.17.014v2.947c.465 0 .817.014 1.015.014.93 0 1.31-.465 1.31-.93zm2.594.846-.085-.606a1.883 1.883 0 0 1-.55.098c-.578 0-.831-.324-.831-.901 0-.536.282-.875.79-.875.197 0 .394.028.577.085l.085-.62a2.42 2.42 0 0 0-.649-.071c-1.057 0-1.62.634-1.62 1.593 0 .677.323 1.41 1.493 1.41.283 0 .564-.042.79-.113zm-14.071-.084a2 2 0 0 0 .282-.198.818.818 0 0 0 .156-.155c.225-.268.366-.592.366-.958a1.48 1.48 0 0 0-1.48-1.48c-.17 0-.339.027-.48.084l-1.029-1.142a3.018 3.018 0 0 1 1.508-.41 2.936 2.936 0 0 1 2.947 2.948 2.945 2.945 0 0 1-2.947 2.947 2.922 2.922 0 0 1-2.072-.86h3.61l.027-.029-3.806-.155-.028-.028h4.032l.014-.028-4.215-.198-.015-.014H6.13s.832.028 1.494-.324zm-3.355-.07c-.014-.057-.043-.113-.07-.17h.887l.156.17h1.31l-.281.296H4.649a.429.429 0 0 0-.381-.297zm-.099-.268A2.828 2.828 0 0 1 4 17.947c0-.198.014-.38.056-.564l1.425.508v.056c0 .338.112.663.324.916h.014a1.514 1.514 0 0 1-.198-.747c0-.056 0-.113.015-.17l1.522.536v.438H4.17zm2.99-1.001-1.171-.776c.14-.17.324-.296.536-.38l.634.634v.522zm0 .507-1.51-.578c.043-.226.142-.451.282-.634l1.227.775v.437zm-1.678-.634-1.396-.536a3.03 3.03 0 0 1 .394-.93l1.255.775a1.462 1.462 0 0 0-.253.69zm.324-.776L4.578 16.2c.197-.269.437-.508.719-.691l1.058 1.085c-.212.099-.41.24-.55.423z" fill="#EE2722"/></svg>