<svg width="36" height="36" fill="none" xmlns="http://www.w3.org/2000/svg"><path d="M18 0c2.837 0 5.52.656 7.907 1.825C31.884 4.753 36 10.895 36 18c0 9.942-8.058 18-18 18-9.94 0-18-8.057-18-18C0 8.06 8.06 0 18 0z" fill="#F2F4F7"/><path d="M8.698 22.693c-1.787-.151-2.557-.733-2.69-2.035-.057-.547.218-2.469.59-4.13.53-2.366 1.853-3.356 4.667-3.492 2.735-.133 4.146.656 4.145 2.316 0 .926-.8 4.594-1.162 5.328-.77 1.564-2.676 2.255-5.55 2.013zm2.798-2.431c.117-.066.3-.294.409-.506.252-.494.865-3.505.786-3.863-.096-.436-.372-.543-1.415-.549-1.273-.008-1.553.122-1.862.863-.162.386-.716 3.067-.716 3.463 0 .381.278.68.697.75.508.083 1.852-.017 2.101-.158zm6.985 2.43c-1.071-.113-1.503-.261-1.891-.65-.698-.697-.725-1.589-.132-4.313.475-2.182.758-2.906 1.381-3.525.441-.438 1.22-.858 1.876-1.011 1.303-.304 3.921-.183 4.637.214.64.356.76.61.76 1.599 0 .475-.033 1.022-.074 1.216l-.075.353H22.33l.06-.321c.13-.694-.151-.902-1.22-.902-.771 0-1.262.161-1.531.504-.238.302-.915 3.532-.832 3.972.09.483.343.603 1.272.603 1.13 0 1.496-.236 1.65-1.06l.067-.351H23.1c1.49 0 1.41-.06 1.164.882-.409 1.572-1.064 2.261-2.5 2.633-.67.173-2.367.254-3.284.157zm6.774-.074c0-.09.232-1.35.514-2.798.282-1.449.694-3.576.915-4.727L27.087 13h1.473c1.355 0 1.47.013 1.435.165-.062.263-1.54 7.887-1.706 8.794l-.15.824h-1.443c-1.311 0-1.442-.015-1.441-.165" fill="#283A6A"/></svg>