<svg height="36" viewBox="0 0 36 36" width="36" xmlns="http://www.w3.org/2000/svg"><mask id="a" fill="#fff"><path d="M0 0h2.31v2.756H0z" fill-rule="evenodd"/></mask><mask id="b" fill="#fff"><path d="M.015 0h.97v1h-.97z" fill-rule="evenodd"/></mask><mask id="c" fill="#fff"><path d="M0 .14h1v.72H0z" fill-rule="evenodd"/></mask><g fill="none" fill-rule="evenodd"><path d="M18 0c2.837 0 5.52.656 7.907 1.825C31.884 4.753 36 10.895 36 18c0 9.942-8.058 18-18 18-9.94 0-18-8.057-18-18C0 8.06 8.06 0 18 0z" fill="#f2f4f7" fill-rule="nonzero"/><path d="M12.286 18.09c0-.215-.027-.4-.081-.556s-.13-.284-.226-.386a.906.906 0 0 0-.34-.226 1.194 1.194 0 0 0-.423-.074c-.15 0-.29.025-.42.074a.918.918 0 0 0-.341.226 1.068 1.068 0 0 0-.226.386c-.054.157-.081.341-.081.555s.027.4.08.554c.055.156.13.285.227.387a.91.91 0 0 0 .34.226c.13.048.27.074.42.074.153 0 .294-.026.424-.074a.914.914 0 0 0 .34-.226 1.05 1.05 0 0 0 .226-.387 1.69 1.69 0 0 0 .08-.554m-2.515 0c0-.219.036-.415.106-.585a1.222 1.222 0 0 1 .756-.706c.177-.062.372-.093.584-.093.213 0 .409.031.587.093s.33.152.458.27c.127.12.227.264.297.436.07.17.107.366.107.585s-.036.414-.107.585c-.07.171-.17.317-.297.435s-.28.206-.458.265a1.918 1.918 0 0 1-.587.087c-.212 0-.407-.03-.584-.087a1.232 1.232 0 0 1-.458-.265 1.218 1.218 0 0 1-.298-.435 1.533 1.533 0 0 1-.106-.585m4.14-.112a.802.802 0 0 0 .117.016 1.307 1.307 0 0 0 .391-.023.702.702 0 0 0 .237-.095.573.573 0 0 0 .18-.181.533.533 0 0 0 .071-.288.495.495 0 0 0-.057-.25.463.463 0 0 0-.144-.157.583.583 0 0 0-.193-.08 1.044 1.044 0 0 0-.206-.02 3.473 3.473 0 0 0-.375.02l-.015.42a9.698 9.698 0 0 0-.008.418v.22zm-.318-.22c0-.17-.003-.337-.01-.501l-.02-.5c.074.005.147.01.22.013.072.004.145.006.22.006.074 0 .148-.003.22-.01.073-.006.146-.01.221-.01.108 0 .211.01.31.032s.183.054.256.102c.074.047.131.11.174.188a.598.598 0 0 1 .064.29c0 .123-.028.23-.084.318a.75.75 0 0 1-.202.22.99.99 0 0 1-.257.136 1.28 1.28 0 0 1-.249.063l.127.163c.054.069.115.147.182.23l.21.263c.071.092.141.179.208.263.067.083.13.16.19.23s.106.123.142.159a.746.746 0 0 0-.116-.01h-.227a.699.699 0 0 0-.113.01 13.12 13.12 0 0 0-.436-.592 19.578 19.578 0 0 0-.29-.37c-.1-.121-.19-.225-.274-.31h-.147v.282c0 .17.003.338.01.503.006.164.014.327.021.486a2.235 2.235 0 0 0-.379 0c.008-.16.015-.322.021-.486.007-.165.01-.333.01-.503v-.665zm4.818-.669a1.131 1.131 0 0 0-.705-.24c-.16 0-.31.026-.447.074a.943.943 0 0 0-.36.227c-.101.1-.18.23-.238.386a1.568 1.568 0 0 0-.087.554c0 .188.025.358.077.51.052.153.127.28.226.385.1.105.22.185.364.242.143.056.305.085.485.085a2.028 2.028 0 0 0 .342-.032c.055-.01.107-.022.155-.038a.57.57 0 0 0 .12-.053c.004-.08.006-.155.007-.233v-.236a6.107 6.107 0 0 0-.018-.528.93.93 0 0 0 .27.015.415.415 0 0 0 .08-.015 4.427 4.427 0 0 0-.01.279 23.01 23.01 0 0 0-.003.662c.002.053.002.104.002.156a2.151 2.151 0 0 1-.461.118 8.265 8.265 0 0 1-.275.038 2.124 2.124 0 0 1-.869-.065 1.144 1.144 0 0 1-.767-.69 1.591 1.591 0 0 1-.105-.6c0-.218.036-.414.109-.585a1.23 1.23 0 0 1 .305-.436 1.33 1.33 0 0 1 .478-.27c.186-.062.393-.093.62-.093.132 0 .248.007.35.022a1.75 1.75 0 0 1 .477.129c.059.026.112.05.158.074a.714.714 0 0 0-.056.138.982.982 0 0 0-.033.159h-.046a1.081 1.081 0 0 0-.145-.14m1.783 1.122c.067 0 .137 0 .21.004s.141.004.208.004c.072 0 .144 0 .216-.002l.217-.005-.429-.982zm1.712 1.202a.747.747 0 0 0-.102-.008H21.6a.608.608 0 0 0-.102.008 8.63 8.63 0 0 0-.176-.477l-.114-.28a22.47 22.47 0 0 1-.109-.267 10.145 10.145 0 0 0-.25-.006c-.086-.002-.17-.002-.256-.002a9.206 9.206 0 0 0-.472.008c-.083.2-.157.392-.224.574a5.646 5.646 0 0 0-.15.45 1.27 1.27 0 0 0-.287 0 159.124 159.124 0 0 0 1.21-2.705h.073c.062.149.13.31.201.485l.221.527c.074.179.15.355.224.53s.145.338.211.489l.177.404c.052.118.095.209.13.27zm2.061-1.004c-.335-.359-.67-.717-1.005-1.072-.003.072-.005.17-.008.29a21.467 21.467 0 0 0-.002.696c0 .08.002.163.004.251l.006.268.008.25.007.204.008.117a1.384 1.384 0 0 0-.28 0c.007-.025.012-.073.019-.142a7.35 7.35 0 0 0 .017-.25l.017-.315c.006-.113.012-.227.016-.34l.009-.332c.003-.108.004-.206.004-.291l-.001-.637a9.82 9.82 0 0 0-.01-.4h.062l.504.549c.18.194.357.386.534.575l.502.538c.158.168.297.312.416.43v-.525c0-.271-.002-.534-.006-.791a15.843 15.843 0 0 0-.026-.724c.052.013.096.02.132.02a.523.523 0 0 0 .123-.02c-.005.057-.01.142-.017.255l-.019.363a17.3 17.3 0 0 0-.025.677v.232l.002.274.004.288.004.27.001.218v.128h-.054a39.493 39.493 0 0 0-.946-1.053m4.464-.318a1.7 1.7 0 0 0-.082-.556 1.054 1.054 0 0 0-.226-.386c-.096-.1-.21-.177-.34-.226s-.27-.074-.423-.074a1.18 1.18 0 0 0-.419.074.898.898 0 0 0-.34.226 1.07 1.07 0 0 0-.227.386c-.053.157-.08.341-.08.555s.027.4.08.554c.055.156.13.285.227.387.096.101.21.177.34.226.13.048.27.074.42.074.152 0 .293-.026.422-.074a.906.906 0 0 0 .34-.226 1.05 1.05 0 0 0 .226-.387 1.69 1.69 0 0 0 .081-.554m-2.516 0c0-.219.036-.415.106-.585a1.222 1.222 0 0 1 .756-.706c.178-.062.372-.093.584-.093.214 0 .41.031.587.093s.331.152.458.27c.128.12.227.264.297.436.071.17.106.366.106.585s-.035.414-.106.585-.169.317-.297.435c-.127.118-.28.206-.458.265a1.918 1.918 0 0 1-.587.087c-.212 0-.406-.03-.584-.087a1.232 1.232 0 0 1-.458-.265 1.218 1.218 0 0 1-.298-.435 1.533 1.533 0 0 1-.106-.585" fill="#1b4298"/><path d="M1.261 1.703C.926 1.344.591.986.256.631.253.703.251.8.248.921a21.523 21.523 0 0 0 .001.947l.006.267.008.251a7.835 7.835 0 0 0 .015.32 1.38 1.38 0 0 0-.278 0c.005-.025.011-.073.017-.142s.012-.153.017-.249l.018-.316c.006-.113.011-.227.015-.34l.01-.332c.002-.108.004-.206.004-.291L.079.399A8.25 8.25 0 0 0 .069 0h.062l.505.548.533.575.502.538c.159.168.297.312.416.431v-.526c0-.271-.002-.534-.006-.791a17.488 17.488 0 0 0-.025-.724c.052.013.095.02.131.02a.53.53 0 0 0 .124-.02 5.688 5.688 0 0 0-.017.255l-.02.363-.017.379a7.868 7.868 0 0 0-.008.298v.232l.002.274.004.288.004.271c.002.084.002.156.002.217v.128h-.053a39.577 39.577 0 0 0-.947-1.053" fill="#1b4298" mask="url(#a)" transform="translate(29.704 16.704)"/><g fill="#e20177"><path d="M7.774 17.754H6.738a.229.229 0 1 1 0-.458h1.036a.229.229 0 1 1 0 .458m-.647 1.066v-.639a.229.229 0 1 1 .458 0v.64a.229.229 0 1 1-.458 0m-.657-1.953v-.639a.229.229 0 1 1 .457 0v.639a.229.229 0 1 1-.458 0m.001 3.16v-1.017a.229.229 0 1 1 .457 0v1.017a.229.229 0 1 1-.458 0m-.657-2.372v-.639a.229.229 0 1 1 .458 0v.64a.229.229 0 1 1-.458 0m0 1.749v-.33a.23.23 0 1 1 .458 0v.33a.229.229 0 1 1-.458 0m2.201-1.453h.483a.229.229 0 1 1 0 .458h-.483a.229.229 0 1 1 0-.458"/><path d="M.244.271h.483a.229.229 0 1 1 0 .458H.244a.229.229 0 1 1 0-.458" mask="url(#b)" transform="translate(4 17.682)"/><path d="M5.155 18.82v-.639a.229.229 0 1 1 .458 0v.64a.229.229 0 1 1-.458 0m1.233-.816a.31.31 0 1 1 0 .62.31.31 0 0 1 0-.62"/></g><path d="M8.421 17.306a.219.219 0 1 1 0 .438.219.219 0 0 1 0-.438" fill="#009ddc"/><path d="M.5.422A.219.219 0 1 1 .5.86a.219.219 0 0 1 0-.438" fill="#54b948" mask="url(#c)" transform="translate(5.54 19.414)"/><path d="M5.382 17.306a.219.219 0 1 1 0 .438.219.219 0 0 1 0-.438" fill="#1b4298"/></g></svg>