<svg height="36" viewBox="0 0 36 36" width="36" xmlns="http://www.w3.org/2000/svg"><mask id="a" fill="#fff"><path d="M0 0h28v9.313H0z" fill-rule="evenodd"/></mask><g fill="none" fill-rule="evenodd"><path d="M18 0c2.837 0 5.52.656 7.907 1.825C31.884 4.753 36 10.895 36 18c0 9.942-8.058 18-18 18-9.94 0-18-8.057-18-18C0 8.06 8.06 0 18 0z" fill="#f2f4f7" fill-rule="nonzero"/><g fill="#0079c1"><path d="M11.358 13.551c-.01.477-.065.979-.14 1.28a7.734 7.734 0 0 0-.155-1.819c-.12-.57-.455-1.524-.726-1.965-.25.42-.554 1.245-.716 1.96-.16.715-.164 1.581-.164 1.84a8.96 8.96 0 0 1-.12-1.783 7.811 7.811 0 0 1 .259-1.617c.318-1.021.676-1.675.74-1.778.07.103.52.907.754 1.752a7.64 7.64 0 0 1 .268 2.13m-1.015 3.65c-.14-.265-.358-.768-.38-1.546-.005-.751.296-1.394.384-1.529.077.135.339.695.37 1.462a3.36 3.36 0 0 1-.374 1.613m1.099-5.77c-.286-1.249-1.002-2.265-1.1-2.431-.154.233-.724 1.13-1.016 2.125a7.729 7.729 0 0 0-.253 3.064c.11.969.517 1.965.517 1.965.218.522.545 1.083.757 1.357.31-.404 1.027-1.612 1.25-3.188.125-.876.128-1.643-.155-2.892"/><path d="M26.79 4.657H28v4.656h-.93v-2.92h-.035l-.479 2.92h-.745l-.479-2.92h-.034v2.92h-.93V4.657h1.21l.604 3.272zm-5.08 3.825c0 .326.04.831.693.831h.77c.653 0 .693-.505.693-.831V5.489c0-.326-.04-.832-.694-.832h-.769c-.654 0-.694.506-.694.832zm1.223.081c0 .08-.06.154-.147.154a.144.144 0 0 1-.146-.154V5.388c0-.12.093-.153.146-.153a.15.15 0 0 1 .147.153zm-1.725.75-.458-1.815c.331-.133.337-.44.337-.566V5.489c0-.326-.038-.832-.69-.832h-1.464v4.656h.931V7.591h.068l.317 1.722zm-1.344-2.302V5.235h.121c.1 0 .171.086.171.233v1.309c0 .147-.072.234-.17.234zm-3.567 2.302h.933V7.73h.533c.65 0 .691-.506.691-.831v-1.41c0-.326-.04-.832-.69-.832h-1.467zm.933-2.164V5.235h.12c.101 0 .173.086.173.233v1.449c0 .145-.072.232-.174.232zm-3.274 1.579.893-3.491h-.8v-.58h1.756v.579l-.89 3.481h.946v.596h-1.905zm-2.779.585h.911l.084-1.236h.44l.087 1.236h.911l-.485-4.656h-1.463zm1.03-1.749.16-2.327h.051l.163 2.327zm-1.4.918c0 .326-.04.831-.695.831H9.34c-.65 0-.69-.505-.69-.831V5.489c0-.326.04-.832.69-.832h.772c.654 0 .694.506.694.832v.658h-.934v-.759c0-.08-.059-.153-.146-.153-.053 0-.146.033-.146.153v3.175c0 .119.093.153.146.153.087 0 .146-.073.146-.153V7.544h-.14v-.512h1.074zM6.824 4.656H4.656v1.456c.003-.002.006-.004.006-.006a1.31 1.31 0 0 1 1.852 1.852l-.006.006a.027.027 0 0 1-.01.006 2.599 2.599 0 0 1-1.842.76 2.608 2.608 0 0 1-1.849-.765 2.619 2.619 0 0 1 0-3.698 2.61 2.61 0 0 1 1.85-.766V0A4.658 4.658 0 0 0-.002 4.656a4.657 4.657 0 0 0 8.056 3.183V4.656z" mask="url(#a)" transform="translate(4 13.146)"/></g></g></svg>