<svg width="36" height="36" fill="none" xmlns="http://www.w3.org/2000/svg"><path d="M18 0c2.837 0 5.52.656 7.907 1.825C31.884 4.753 36 10.895 36 18c0 9.942-8.058 18-18 18-9.94 0-18-8.057-18-18C0 8.06 8.06 0 18 0z" fill="#F2F4F7"/><path d="M20.828 19.053h2.006c-.535 3.877-3.853 6.864-7.877 6.864a7.96 7.96 0 0 1 0-15.917c4.024 0 7.342 2.989 7.877 6.865h-2.006v2.188zM17.58 17.96a2.623 2.623 0 1 0-5.246-.002 2.623 2.623 0 0 0 5.246.002zm6.127-7.493v6.398h2.185v2.188h-2.185v6.168H29V10.467" fill="#212529"/></svg>