<svg width="36" height="36" fill="none" xmlns="http://www.w3.org/2000/svg"><path d="M18 0c2.837 0 5.52.656 7.907 1.825C31.884 4.753 36 10.895 36 18c0 9.942-8.058 18-18 18-9.94 0-18-8.057-18-18C0 8.06 8.06 0 18 0z" fill="#F2F4F7"/><path d="M4 17.358C4 16.52 4.645 16 5.353 16a1.328 1.328 0 1 1-.005 2.657A1.314 1.314 0 0 1 4 17.357s0 .005 0 0zm.655-.03c0 .39.264.761.707.761.462 0 .688-.423.688-.75 0-.333-.226-.761-.697-.761-.453 0-.698.385-.698.75 0-.004 0 0 0 0zm2.382-.635h.535v.207s.033-.072.115-.135c.082-.072.217-.134.419-.134a.58.58 0 0 1 .438.183.586.586 0 0 1 .115.159.697.697 0 0 1 .611-.347c.135 0 .352.034.506.192.178.193.207.318.207.747v1.05h-.578v-1.026c0-.082 0-.183-.038-.27-.034-.091-.106-.154-.255-.154-.159 0-.24.072-.275.159-.043.086-.043.183-.043.24v1.05h-.572V17.57c0-.054 0-.155-.034-.241-.039-.092-.106-.164-.255-.164-.164 0-.246.077-.284.168-.044.092-.044.198-.044.256v1.02h-.577l.01-1.916zm3.355 0h.54v.207c.067-.091.187-.27.529-.27.65 0 .712.525.712.785v1.204h-.577v-1.054c0-.212-.043-.4-.303-.4-.284 0-.328.207-.328.405v1.044h-.578v-1.92h.005zm2.195-.645h.578v.438h-.578v-.438zm0 .645h.578v1.926h-.578v-1.926zm2.932 1.19a1.02 1.02 0 0 1-1.006.793c-.583 0-1.03-.457-1.03-1.03 0-.563.438-1.02 1.015-1.02.51 0 .924.337 1.02.808h-.582a.436.436 0 0 0-.419-.269.412.412 0 0 0-.332.135.523.523 0 0 0-.125.351c0 .28.183.486.457.486.241 0 .352-.14.42-.255h.582zm.226-.237c0-.467.337-1.02 1.035-1.02s1.035.553 1.035 1.02c0 .472-.337 1.02-1.035 1.02s-1.035-.543-1.035-1.02zm.577.01a.47.47 0 0 0 .463.481.47.47 0 0 0 .462-.486.471.471 0 0 0-.462-.486c-.256 0-.463.207-.463.491zm1.825-.963h.539v.207s.033-.072.116-.135c.081-.072.216-.134.418-.134a.58.58 0 0 1 .438.183.582.582 0 0 1 .116.159.697.697 0 0 1 .612-.347c.134 0 .35.034.505.192.178.193.207.318.207.747v1.05h-.578v-1.026c0-.082 0-.183-.039-.27-.033-.091-.105-.154-.255-.154-.159 0-.24.072-.274.159-.043.086-.043.183-.043.24v1.05h-.578V17.57c0-.054 0-.155-.034-.241-.038-.092-.105-.164-.255-.164-.164 0-.245.077-.284.168-.043.092-.043.198-.043.256v1.02h-.578v-1.925h.01v.01zm5.507.02a1.043 1.043 0 0 0-.29-.275 1.029 1.029 0 0 0-.596-.178c-.563 0-1.05.428-1.05 1.073 0 .65.491 1.083 1.055 1.083.269 0 .51-.09.688-.23a.957.957 0 0 0 .347-.54h-1.276v-.236h1.608c-.005.15-.039.337-.116.496-.221.482-.736.766-1.251.766a1.32 1.32 0 0 1-1.343-1.334c0-.77.601-1.323 1.343-1.323.52 0 1 .288 1.203.712l-.322-.015zm.846.038h.246v.303c.135-.274.38-.351.597-.356v.255h-.024c-.361 0-.563.226-.563.65v1.016H24.5V16.75zm.94.93c0-.52.39-.983.986-.983.602 0 .992.462.992.982 0 .525-.39.982-.992.982s-.987-.457-.987-.982zm.254.004c0 .423.323.74.737.74a.724.724 0 0 0 .736-.745.724.724 0 0 0-.736-.746.73.73 0 0 0-.737.75zm3.827.93h-.245v-.333c-.102.245-.357.39-.689.385-.582-.01-.784-.405-.784-.862v-1.059h.255v1.01c0 .405.178.675.602.67.39-.005.61-.236.61-.62V16.75h.256l-.005 1.863zm.496-1.864h.245v.39a.86.86 0 0 1 .78-.438c.626 0 .958.51.958.992 0 .52-.38.977-.958.977-.414 0-.679-.241-.765-.434v1.088h-.255l-.005-2.575zm1.723.93c0-.352-.245-.747-.75-.747a.735.735 0 0 0-.525.216.763.763 0 0 0-.208.535c0 .207.082.395.217.53.13.13.318.21.525.21a.728.728 0 0 0 .741-.745" fill="#B04642"/></svg>