<svg width="36" height="36" fill="none" xmlns="http://www.w3.org/2000/svg"><path d="M18 0c2.837 0 5.52.656 7.907 1.825C31.884 4.753 36 10.895 36 18c0 9.942-8.058 18-18 18-9.94 0-18-8.057-18-18C0 8.06 8.06 0 18 0z" fill="#F2F4F7"/><path d="M28.484 14.95a3.515 3.515 0 1 0 0 7.03 3.515 3.515 0 0 0 0-7.03zm0 4.977a1.462 1.462 0 1 1 0-2.923 1.462 1.462 0 0 1 0 2.923zM7.52 14.95h-.01a3.516 3.516 0 1 0 .01 0zm0 4.977a1.462 1.462 0 0 1-.009-2.923h.01a1.463 1.463 0 0 1 0 2.923zm11.17-1.379v3.365h-2.052v-3.362a1.465 1.465 0 0 0-1.463-1.46h-1.092v4.822H12.03v-6.875h3.14a3.519 3.519 0 0 1 3.516 3.51h.004zm5.532-3.159v1.705h-4.42v-2.056L21.853 14v1.389h2.367zm0 4.538v2.054h-.905a3.52 3.52 0 0 1-3.515-3.51v-.677h2.054v.675a1.464 1.464 0 0 0 1.462 1.46l.904-.002z" fill="#FF002B"/></svg>