<svg width="36" height="36" fill="none" xmlns="http://www.w3.org/2000/svg"><path d="M18 0c2.837 0 5.52.656 7.907 1.825C31.884 4.753 36 10.895 36 18c0 9.942-8.058 18-18 18-9.94 0-18-8.057-18-18C0 8.06 8.06 0 18 0z" fill="#F2F4F7"/><path d="M6.952 17.645c0-1.448-.243-2.048-.911-2.048-.59 0-.887.421-.887 1.881 0 1.442.23 2.036.911 2.036.602 0 .887-.415.887-1.869zM4 17.608c0-1.627 1.1-2.27 2.077-2.27 1.045 0 2.03.637 2.03 2.171 0 1.64-1.1 2.265-2.078 2.265-1.045 0-2.029-.68-2.029-2.166zm9.053.105 1.039-.056c0-.748-.097-1.02-.462-1.02-.31 0-.552.296-.577 1.076zm-.96.365c0-1.076.784-1.677 1.586-1.677.828 0 1.348.417 1.378 1.508 0 .021-.016.04-.037.04h-1.93a.038.038 0 0 0-.037.038c.027.983.402 1.254 1.02 1.254.301 0 .544-.07.748-.163a.036.036 0 0 1 .043.01l.08.097a.038.038 0 0 1 0 .05 1.77 1.77 0 0 1-1.266.538c-1.057 0-1.585-.643-1.585-1.695zm12.509.05c0-1.25-.237-1.485-.65-1.485-.383 0-.608.284-.608 1.348 0 1.269.2 1.541.644 1.541.365 0 .614-.216.614-1.404zm-2.278-.031c0-1.188.826-1.696 1.646-1.696.88 0 1.652.539 1.652 1.665 0 1.188-.814 1.708-1.652 1.708-.88 0-1.646-.545-1.646-1.677zm5.901.031c0-1.25-.237-1.485-.65-1.485-.383 0-.608.284-.608 1.348 0 1.269.2 1.541.644 1.541.365 0 .614-.216.614-1.404zm-2.278-.031c0-1.188.826-1.696 1.646-1.696.88 0 1.652.539 1.652 1.665 0 1.188-.814 1.708-1.652 1.708-.88 0-1.646-.545-1.646-1.677zm-8.393-1.696c-.443 0-.844.205-1.166.44h-.025l.012-.39a.049.049 0 0 0-.053-.05l-.85.097a.05.05 0 0 0-.044.05v3.102c0 .027.021.05.048.05h.87a.049.049 0 0 0 .048-.05v-2.593c.133-.03.352-.08.565-.08.285 0 .419.117.419.495v2.178c0 .027.021.05.048.05h.876a.049.049 0 0 0 .048-.05v-2.42c0-.556-.28-.829-.796-.829zm3.402 2.748c-.098.037-.262.136-.51.136-.462 0-.705-.316-.705-1.287 0-1.021.303-1.35.74-1.35.226 0 .371.13.475.26v2.24zm.966-3.354c0-.32.01-.614.016-.734a.058.058 0 0 0-.063-.06l-.874.1a.05.05 0 0 0-.045.05v.867c0 .223.012.451.012.451a1.73 1.73 0 0 0-.462-.068c-.947 0-1.761.514-1.761 1.8 0 1.127.589 1.572 1.19 1.572.425 0 .766-.173 1.027-.402h.024l-.012.342a.058.058 0 0 0 .065.06l.833-.095a.058.058 0 0 0 .05-.058v-3.825zm9.581.606c-.353 0-.699.273-.887.477h-.024l.011-.416a.058.058 0 0 0-.063-.06l-.84.096a.05.05 0 0 0-.044.05v3.093c0 .032.026.058.057.058h.852a.058.058 0 0 0 .057-.058v-2.51c.085-.08.225-.16.334-.16.055 0 .091.012.128.08.115.192.206.303.467.303.237 0 .449-.192.449-.489 0-.303-.206-.464-.497-.464zm-21.498 3.125a.616.616 0 0 1-.48-.223v-2.252c.098-.037.25-.111.492-.111.462 0 .723.309.723 1.194 0 1.132-.255 1.392-.735 1.392zm.54-3.125c-.424 0-.764.204-1.02.427h-.03l.012-.37a.055.055 0 0 0-.06-.057l-.843.097a.05.05 0 0 0-.044.05v4.481c0 .03.025.053.055.05l.867-.1a.05.05 0 0 0 .043-.05v-.84c0-.216-.006-.377-.006-.377.134.037.335.061.462.061 1.014 0 1.755-.563 1.755-1.85 0-1.132-.613-1.522-1.19-1.522z" fill-rule="evenodd" clip-rule="evenodd" fill="#147BD1"/></svg>