<svg width="36" height="36" xmlns="http://www.w3.org/2000/svg"><g fill="none"><path d="M18 0c2.837 0 5.52.656 7.907 1.825C31.884 4.753 36 10.895 36 18c0 9.942-8.058 18-18 18-9.94 0-18-8.057-18-18C0 8.06 8.06 0 18 0z" fill="#F2F4F7"/><g fill="#000"><path d="M8.016 19.636v.577H4.41v-3.964h.65v3.387h2.955zM7.51 17.69l.72-1.37h-.684l-.54 1.37h.504zm5.893-.79a2.574 2.574 0 0 0-.977-.888 2.88 2.88 0 0 0-2.654 0c-.402.21-.744.52-.977.887-.234.368-.36.794-.36 1.22 0 .427.126.853.36 1.221.233.368.575.677.977.888a2.88 2.88 0 0 0 2.654 0 2.57 2.57 0 0 0 .977-.888c.234-.368.36-.794.36-1.22 0-.426-.126-.853-.36-1.22zm-.56 2.19c-.175.289-.43.532-.731.698a2.076 2.076 0 0 1-1.991 0 1.967 1.967 0 0 1-.73-.697 1.857 1.857 0 0 1-.269-.956c0-.334.094-.668.268-.956.175-.289.43-.532.731-.698a2.075 2.075 0 0 1 1.99 0c.302.166.557.41.732.698.174.288.267.619.268.956a1.858 1.858 0 0 1-.268.956zm5.445-1.132c-.117.258-.34.408-.513.498-.173.09-.299.122-.425.117l1.262 1.64h-.72l-1.221-1.586H15.08v1.586h-.648v-3.964h2.595c.262 0 .528.051.763.183s.438.333.533.617c.096.284.083.651-.034.91zm-.726-.027a.627.627 0 0 0 .211-.494.692.692 0 0 0-.238-.489c-.135-.113-.309-.123-.473-.123H15.08v1.226h1.983c.175 0 .364-.004.5-.12zm4.474.012v.54h-2.199v1.153h2.956v.577H19.19v-3.964h3.605v.576h-2.956v1.118h2.2zm.036-2.307H21.1l-.396.505 1.37-.505zm1.992 3.568-.514 1.009h-.649l2.019-3.964h.649l2.018 3.964h-.649l-.513-1.01h-2.361zm1.18-2.318-.923 1.813h1.846l-.923-1.813zm6.272 2.75v.577h-3.604v-3.964h.648v3.387h2.956zm-.281-2.592-.006-.094c0-.018 0-.035-.006-.055a.173.173 0 0 0-.032-.055.062.062 0 0 0-.04-.023.126.126 0 0 0 .067-.054.19.19 0 0 0 .027-.102.209.209 0 0 0-.033-.11c-.044-.065-.122-.076-.19-.073h-.287v.663h.111v-.272h.167c.018 0 .048-.003.078.02.04.048.023.11.03.164 0 .031.003.061.017.088h.125v-.02c-.023-.01-.025-.043-.028-.077zm-.138-.292a.162.162 0 0 1-.095.022h-.157v-.201c.069 0 .138-.003.206.002.032.004.06.023.073.052.015.044.015.091-.027.125z"/><path d="M31.478 16.528a.562.562 0 0 0-.763-.205.562.562 0 0 0-.205.764.563.563 0 0 0 .484.279.562.562 0 0 0 .56-.559.562.562 0 0 0-.076-.28zm-.067.522a.48.48 0 0 1-.411.237.476.476 0 0 1-.411-.71.475.475 0 0 1 .822.473z"/></g></g></svg>