<svg width="36" height="36" fill="none" xmlns="http://www.w3.org/2000/svg"><path d="M18 0c2.837 0 5.52.656 7.907 1.825C31.884 4.753 36 10.895 36 18c0 9.942-8.058 18-18 18-9.94 0-18-8.057-18-18C0 8.06 8.06 0 18 0z" fill="#F2F4F7"/><path d="M26.901 14.042c-.26-1.35-1.061-2.537-2.204-3.373l-.108-.082c-1.115-.791-2.527-1.259-4.066-1.259-.108 0-.216 0-.324.01h-.036c-.044 0-.08 0-.125.008h-.055c-.035 0-.071.01-.107.01-.018 0-.036 0-.063.008-.036 0-.063.01-.1.01-.017 0-.044.008-.062.008-.027 0-.063.01-.09.01-.027 0-.045.008-.072.008-.027 0-.063.01-.09.01-.027 0-.045.008-.072.008-.027.01-.054.01-.081.018-.027 0-.045.01-.072.01-.027.008-.054.008-.081.017-.027.01-.045.01-.072.018-.027.009-.054.009-.08.018-.028.009-.046.009-.073.018-.027.009-.054.009-.08.018-.028.009-.046.009-.073.018a.263.263 0 0 1-.08.018c-.028.009-.046.009-.073.018l-.08.027c-.028.009-.046.018-.073.018l-.08.027a.167.167 0 0 1-.064.018l-.08.027a.166.166 0 0 1-.063.018c-.018.009-.037.009-.055.018v1.142c2.312.036 4.372 1.601 5.28 4.021h3.644v-.17a5.805 5.805 0 0 0-.09-.693zm-10.947 6.603c.053 0 .107-.009.161-.009h.018c.045 0 .09-.009.135-.009h.036c.045-.009.081-.009.126-.018.01 0 .027 0 .036-.009.036-.009.081-.009.117-.018.018 0 .027-.009.045-.009.036-.009.072-.009.108-.018.018 0 .036-.009.054-.009.036-.009.072-.009.108-.018.018 0 .036-.009.054-.009.036-.009.063-.018.099-.018.018 0 .036-.009.054-.009l.099-.027c.018-.009.036-.009.054-.018l.099-.027c.018-.009.036-.009.054-.018l.099-.027c.018-.009.036-.009.054-.018l.09-.027c.018-.009.036-.009.054-.018l.09-.027c.018-.009.036-.009.054-.018a.13.13 0 0 1 .063-.018v-1.142c-2.312-.036-4.372-1.601-5.28-4.021H9v.17c.072 1.422.738 2.7 1.781 3.653 1.178 1.08 2.843 1.754 4.687 1.754.162 0 .324-.009.486-.018zm-3.626-7.952v.162c0 .027 0 .063.01.09 0 .027 0 .044.008.072 0 .027 0 .063.01.09 0 .026 0 .044.008.071 0 .027.01.063.01.09 0 .027.008.045.008.072 0 .027.01.063.01.09 0 .027.008.045.008.072 0 .027.01.063.01.09 0 .018.008.045.008.063.01.027.01.063.018.09 0 .018.01.045.01.063.008.027.008.063.017.09 0 .018.01.045.01.063.008.027.008.063.017.09 0 .018.01.036.018.063a.32.32 0 0 1 .018.09c.01.018.01.036.018.054l.027.099c.01.018.01.036.018.054l.027.099c.01.018.01.036.018.054l.027.099c.01.018.01.036.018.054a.439.439 0 0 0 .036.099c.01.018.01.027.018.045.01.018.018.044.027.063h1.143c.035-2.312 1.6-4.372 4.02-5.28V6h-.17c-3.05.162-5.425 3.005-5.425 6.468v.225z" fill="#E82C2A"/><path d="M18.175 9.544c.027-.009.045-.018.072-.027l.081-.027c.027-.009.045-.018.072-.027l.081-.027a.278.278 0 0 1 .072-.018c.027-.009.054-.018.081-.018.027-.009.054-.009.072-.018.027-.009.054-.009.081-.018.027-.009.054-.009.081-.018.027-.009.054-.009.081-.018.027-.009.054-.009.081-.018.027-.009.054-.009.081-.018.027-.009.054-.009.08-.018.028-.009.055-.009.082-.018.027 0 .054-.009.08-.009.028 0 .055-.009.082-.009.027 0 .054-.009.08-.009.028 0 .055-.009.082-.009.027 0 .054-.009.08-.009.028 0 .055-.009.082-.009.027 0 .054-.009.08-.009.028 0 .055-.009.082-.009.027 0 .054 0 .08-.009.027 0 .054 0 .081-.009h.774c.081 0 .153.01.234.01h.036c.072.008.153.008.225.017h.018l.234.027c.018 0 .027 0 .045.01.08.008.153.026.234.035h.018c.072.01.144.027.216.045.009 0 .026.01.035.01.072.017.144.035.225.053.01 0 .027.01.036.01.153.035.297.08.441.125.01 0 .027.01.036.01.072.026.144.044.216.071.009 0 .018.01.027.01.063.026.135.053.198.08.009 0 .018.01.018.01.072.026.135.053.207.09.009.008.027.008.036.017.072.027.135.063.198.09 0 0 .009 0 .009.009.063.036.126.063.189.099.009.009.018.009.027.018l.188.108c.01.009.018.009.027.018.063.036.126.072.19.117.062.036.125.08.18.117.008.009.017.018.035.018.063.036.117.08.171.126.01.009.018.009.018.018a1.975 1.975 0 0 1 .18.144l.162.134.027.027c.054.045.108.09.162.144l.009.01c.054.044.099.098.153.143l.027.027c.045.045.099.1.144.153l.027.027c.045.054.09.1.135.153l.009.01.134.161.027.027c.046.054.082.108.127.162.008.009.008.018.017.018l.108.162c.01.009.01.018.018.027.036.054.072.117.108.17a.068.068 0 0 1 .018.037c.036.063.072.117.108.18v.009c.036.063.063.117.1.18.008.009.008.027.017.036.027.063.063.116.09.18.01.008.01.018.018.035.027.063.054.117.072.18 0 0 0 .01.01.01 0-.01 0-.019-.01-.028 0-.009-.009-.027-.009-.036 0-.018-.009-.036-.009-.053 0-.01-.009-.018-.009-.027-.009-.027-.009-.054-.018-.082l-.009-.035v-.01c0-.018-.009-.026-.009-.044-.009-.054-.027-.1-.045-.162 0-.01 0-.018-.009-.018-.009-.018-.009-.036-.018-.063l-.027-.081v-.018l-.009-.027v-.01c-.009-.017-.009-.035-.018-.044-.027-.081-.054-.171-.09-.27-.009-.018-.018-.045-.027-.063l-.009-.036c-.009-.018-.009-.027-.018-.045 0-.009-.009-.018-.009-.018-.027-.081-.063-.162-.099-.252-.009-.018-.018-.045-.027-.072l-.027-.063c-.045-.108-.099-.216-.152-.342l-.018-.036-.01-.018-.17-.341-.027-.045c-.018-.027-.027-.054-.045-.081-.027-.054-.063-.108-.09-.153 0-.01-.01-.01-.01-.018-.008-.01-.008-.018-.017-.027-.01-.018-.027-.045-.036-.063l-.01-.01-.008-.017-.081-.135c-.01-.01-.018-.027-.027-.036l-.108-.162-.018-.018c-.01-.01-.018-.027-.027-.036l-.216-.297-.01-.009.055-.045.009-.009-.036.027-.027.018a6.744 6.744 0 0 0-.315-.396l-.018-.018c-.045-.045-.08-.099-.126-.144-.018-.018-.036-.036-.045-.054-.036-.045-.072-.08-.117-.126-.018-.027-.045-.045-.063-.071l-.108-.108a.575.575 0 0 1-.072-.081l-.108-.108-.08-.081c-.037-.036-.072-.063-.108-.1-.027-.026-.054-.053-.09-.08-.036-.027-.072-.063-.108-.09-.027-.027-.063-.054-.09-.081-.036-.027-.072-.063-.108-.09a.63.63 0 0 0-.09-.072l-.108-.081c-.036-.027-.063-.054-.1-.072a89.18 89.18 0 0 0-.107-.08c-.036-.028-.063-.046-.099-.073-.036-.027-.072-.054-.108-.072l-.099-.072c-.036-.027-.072-.045-.117-.072-.036-.018-.072-.045-.108-.063-.036-.027-.08-.045-.117-.072-.036-.018-.072-.045-.108-.063-.036-.018-.08-.045-.117-.063a.671.671 0 0 1-.108-.063c-.036-.018-.08-.045-.116-.063l-.108-.054c-.036-.018-.081-.036-.117-.054l-.108-.054c-.036-.018-.081-.035-.117-.053-.036-.018-.072-.036-.117-.054-.036-.018-.081-.036-.117-.054a.624.624 0 0 0-.117-.045c-.045-.018-.081-.036-.126-.045-.036-.018-.081-.027-.117-.045-.045-.018-.081-.027-.126-.045-.036-.018-.08-.027-.117-.045a.664.664 0 0 0-.126-.036c-.045-.01-.08-.027-.126-.036-.045-.01-.08-.027-.126-.036-.045-.01-.08-.027-.126-.036a.665.665 0 0 1-.126-.036.66.66 0 0 1-.126-.036l-.125-.027-.126-.027-.126-.027c-.045-.01-.09-.018-.126-.027-.045-.01-.081-.018-.126-.018a.695.695 0 0 0-.135-.018c-.045-.01-.081-.01-.126-.018-.045-.01-.09-.01-.135-.018-.045-.01-.081-.01-.126-.018-.045-.01-.09-.01-.135-.018-.045 0-.08-.01-.126-.01-.045 0-.09-.008-.135-.008-.045 0-.08 0-.126-.01-.045 0-.09-.008-.135-.008h-.224v3.571c.009 0 .009 0 .018-.009-.01-.054.017-.063.044-.063zm-5.604 5.37c0-.009-.009-.018-.009-.027-.009-.018-.009-.027-.018-.045-.009-.036-.027-.072-.036-.099-.009-.018-.009-.036-.018-.053l-.027-.09c-.009-.018-.009-.045-.018-.063l-.027-.09c-.009-.027-.009-.045-.018-.072a.263.263 0 0 1-.018-.081c-.009-.027-.009-.045-.018-.072-.009-.027-.009-.054-.018-.081-.009-.027-.009-.045-.018-.072-.009-.027-.009-.054-.018-.081-.009-.027-.009-.054-.018-.072-.009-.027-.009-.054-.018-.081-.009-.027-.009-.054-.018-.072-.009-.027-.009-.054-.009-.081 0-.027-.009-.054-.009-.072 0-.027-.009-.054-.009-.081 0-.027-.009-.054-.009-.072 0-.027-.009-.054-.009-.08 0-.028-.009-.046-.009-.073 0-.027-.009-.054-.009-.09 0-.027-.009-.045-.009-.072 0-.027-.009-.063-.009-.09 0-.027 0-.045-.009-.072 0-.036 0-.063-.009-.099v-.674c0-.081.01-.153.01-.234v-.045c.008-.072.008-.144.017-.216v-.027c.01-.072.018-.153.027-.225 0-.018.01-.036.01-.054a1.75 1.75 0 0 1 .035-.225c0-.009 0-.018.01-.027.008-.072.026-.135.035-.207 0-.018.01-.027.01-.045l.053-.215c0-.018.01-.027.01-.045a4.75 4.75 0 0 1 .053-.207v-.01c.018-.071.045-.143.063-.215.01-.018.01-.036.018-.045.018-.072.045-.135.072-.207.01-.01.01-.027.018-.036.027-.063.045-.126.072-.18 0-.01.01-.018.01-.036.026-.063.053-.135.08-.198.01-.018.018-.027.018-.045.027-.063.063-.126.09-.189 0-.009.01-.018.01-.027.026-.063.062-.117.089-.17.009-.019.018-.028.018-.046.036-.063.063-.117.099-.18.009-.018.018-.027.027-.045.036-.054.063-.117.099-.17 0-.01.009-.01.009-.019a1.19 1.19 0 0 1 .117-.17c.009-.018.018-.027.027-.045.036-.054.08-.108.117-.162.009-.01.018-.018.027-.036.036-.045.072-.1.108-.144l.027-.027c.045-.054.08-.108.126-.153.009-.01.018-.027.036-.036.045-.054.09-.1.134-.153l.018-.018c.046-.045.09-.09.127-.135l.035-.036c.045-.045.09-.09.144-.135.01-.009.027-.018.036-.036.045-.045.09-.08.135-.126l.018-.018c.054-.045.1-.09.153-.126.01-.009.027-.018.036-.027.054-.045.108-.08.153-.117.01-.009.018-.018.027-.018.045-.036.099-.072.144-.099A.124.124 0 0 1 15 6.773l.162-.108c.018-.009.027-.018.045-.027a1.67 1.67 0 0 1 .17-.098c.01 0 .01-.01.019-.01.054-.026.108-.062.162-.09.018-.008.027-.017.045-.017.054-.027.117-.054.17-.081.019-.01.028-.01.046-.018.054-.027.107-.045.161-.072.01 0 .01-.01.018-.01-.044.01-.08.019-.125.028h-.01a.266.266 0 0 1-.09.018l.019-.018h-.01a.129.129 0 0 0-.053.018c-.081.018-.18.045-.28.08-.017.01-.035.01-.062.019h-.01l-.026.009c-.018.009-.036.009-.045.018-.1.036-.216.072-.342.117l-.036.009c-.018.009-.027.009-.045.018-.054.018-.108.035-.162.062-.009 0-.018.01-.018.01-.054.017-.099.044-.153.062l-.036.01-.036.017c-.108.045-.216.1-.342.153l-.053.027c-.027.01-.055.027-.082.036-.08.045-.17.09-.26.135l-.045.027c-.01.01-.018.01-.027.018-.045.018-.081.045-.126.072-.01.01-.018.01-.027.018-.054.027-.108.063-.153.09l-.01.01-.026.008c-.108.063-.225.144-.342.216l-.027.009c-.117.081-.225.162-.342.243l-.009.009c-.144.108-.279.216-.423.333l-.009.009-.189.162c-.009.009-.027.018-.036.036-.053.045-.107.099-.161.144-.018.018-.036.027-.045.045l-.135.134a.391.391 0 0 0-.054.063l-.126.126-.063.063c-.036.045-.081.081-.117.126-.018.027-.045.054-.063.072-.036.045-.072.081-.108.126-.018.027-.045.054-.063.081-.036.036-.063.081-.099.117a.325.325 0 0 0-.063.09l-.09.117c-.027.027-.045.063-.063.09-.027.036-.054.08-.08.117-.019.036-.046.063-.064.099-.027.036-.054.08-.08.117-.019.036-.046.063-.064.099a.822.822 0 0 0-.072.117c-.018.036-.045.072-.063.108-.027.036-.045.08-.072.117a.671.671 0 0 1-.063.107c-.018.037-.044.082-.063.117l-.054.108-.062.117c-.018.036-.036.072-.054.117-.018.036-.036.081-.054.117a.671.671 0 0 0-.063.108c-.018.036-.036.081-.054.117-.018.045-.036.081-.054.126a.625.625 0 0 0-.045.117c-.018.045-.036.08-.045.126-.018.036-.027.08-.045.117-.018.045-.027.08-.045.126-.018.036-.027.08-.045.117-.018.045-.027.08-.045.126-.01.036-.027.08-.036.117-.01.045-.027.09-.036.126-.01.036-.027.08-.036.117-.01.044-.027.09-.036.125 0 .045-.01.09-.018.126l-.027.135c-.01.036-.018.081-.027.117l-.027.135-.027.126-.027.135c-.01.045-.018.081-.018.126-.009.045-.009.09-.018.135-.009.045-.009.08-.018.126-.009.045-.009.09-.018.135 0 .045-.009.08-.009.126 0 .045-.009.09-.009.135 0 .045-.009.08-.009.126 0 .045-.009.09-.009.134 0 .045 0 .082-.009.127v.224h3.571zm7.439 8.664c2.15-.927 3.653-3.293 3.653-6.045v-.396c0-.027 0-.063-.01-.09 0-.027 0-.045-.008-.072 0-.027 0-.054-.01-.081 0-.027-.008-.054-.008-.08 0-.028-.01-.055-.01-.082 0-.027-.008-.054-.008-.08 0-.028-.01-.055-.01-.073 0-.027-.008-.054-.008-.08 0-.028-.01-.046-.01-.073a.263.263 0 0 0-.017-.08c0-.028-.01-.046-.01-.073-.008-.027-.008-.054-.017-.09 0-.027-.01-.045-.01-.072-.008-.027-.008-.053-.017-.09-.01-.018-.01-.045-.018-.063-.01-.027-.01-.053-.018-.09-.01-.017-.01-.044-.018-.062a.266.266 0 0 1-.018-.09c-.01-.018-.01-.045-.018-.063a1.133 1.133 0 0 1-.027-.09c-.01-.018-.01-.045-.018-.063l-.027-.081c-.01-.018-.01-.045-.018-.063l-.027-.081a.166.166 0 0 1-.018-.063l-.027-.081c-.01-.018-.01-.027-.018-.045h-1.142c-.037 2.312-1.602 4.372-4.021 5.28v3.625h.17a5.267 5.267 0 0 0 1.764-.413z" fill="#E82C2A"/><path d="M23.384 22.2c.045-.026.08-.062.126-.09.027-.026.063-.044.09-.071.036-.027.072-.063.108-.09.036-.027.063-.054.099-.081.036-.027.072-.063.108-.09.036-.027.063-.054.099-.08a.985.985 0 0 0 .099-.09c.026-.028.062-.055.09-.082l.098-.099c.027-.027.063-.054.09-.09l.1-.099a.811.811 0 0 0 .08-.09c.036-.036.063-.072.1-.099.026-.027.053-.063.08-.09.027-.035.063-.072.09-.107.027-.027.054-.064.081-.09.027-.036.063-.072.09-.108.027-.027.045-.063.072-.09.027-.036.054-.072.09-.117.027-.027.045-.063.072-.09.027-.036.054-.081.08-.117l.064-.09c.027-.036.054-.081.08-.117l.064-.09a1.31 1.31 0 0 0 .08-.126c.019-.036.046-.063.064-.099.027-.045.054-.08.072-.126.018-.036.036-.063.054-.099.027-.045.045-.08.072-.126.018-.036.036-.063.053-.099.027-.045.046-.09.064-.126.018-.036.036-.063.054-.099.017-.045.044-.09.063-.125.017-.037.035-.063.044-.1a.907.907 0 0 1 .063-.134c.018-.036.027-.072.045-.1l.054-.134c.018-.036.027-.072.045-.108l.054-.135c.018-.036.027-.072.045-.108.018-.045.036-.09.045-.135.01-.036.027-.072.036-.108.018-.045.027-.09.045-.135.01-.036.027-.072.036-.108a.749.749 0 0 0 .036-.135c.01-.036.018-.072.036-.117.01-.045.027-.09.036-.135.01-.036.018-.08.027-.117l.027-.135c.01-.036.018-.08.027-.116l.027-.135.027-.126a.626.626 0 0 0 .018-.135.547.547 0 0 0 .018-.126c.01-.045.01-.09.018-.135.009-.045.009-.09.018-.126.009-.045.009-.09.018-.126.009-.045.009-.09.009-.135 0-.045.009-.09.009-.126 0-.045.009-.09.009-.135 0-.045.009-.08.009-.126 0-.045 0-.09.009-.135v-.225h-3.571c0 .01 0 .01.009.018.009.027.018.045.027.072l.027.081c.009.027.018.045.027.072l.027.081c.009.027.018.045.018.072l.027.081c.009.027.009.045.018.072.009.027.018.054.018.081.009.027.009.045.018.072.009.027.009.054.018.081.009.027.009.045.018.072.009.027.009.054.018.08.009.028.009.046.018.073.009.027.009.054.018.09 0 .027.009.045.009.072.009.027.009.054.018.09 0 .027.009.045.009.072 0 .027.009.063.009.09 0 .027.009.045.009.072 0 .027.009.063.009.09 0 .027.009.045.009.072 0 .027.009.063.009.09 0 .027 0 .045.009.072 0 .026.009.062.009.09 0 .026 0 .044.009.071 0 .036 0 .063.009.1v.674c0 .081-.01.153-.01.234v.045c-.008.072-.008.144-.017.216v.027c-.01.072-.018.153-.027.225 0 .018-.01.036-.01.054-.008.072-.026.152-.035.225 0 .009 0 .017-.01.026-.008.072-.026.135-.035.207 0 .018-.01.027-.01.045l-.053.216c0 .018-.01.027-.01.045l-.053.216v.01c-.018.071-.045.143-.063.215-.01.018-.01.027-.018.045-.027.072-.045.135-.072.207 0 .009-.01.027-.01.036-.026.063-.044.126-.071.189 0 .009-.01.018-.01.027-.026.063-.053.135-.08.198-.01.018-.01.027-.018.045-.027.063-.063.135-.09.197 0 .01-.01.01-.01.018-.026.064-.062.127-.089.18-.009.01-.009.027-.018.036l-.108.19a.068.068 0 0 0-.018.035c-.036.063-.072.117-.108.18 0 0 0 .01-.009.01-.036.062-.08.116-.117.18-.009.008-.018.026-.027.035a2.097 2.097 0 0 1-.126.171c-.009.009-.009.018-.018.027-.036.054-.08.108-.117.162-.009.009-.009.018-.018.018l-.135.162-.027.027c-.045.054-.09.108-.143.162l-.01.009c-.044.054-.099.099-.143.153l-.027.027a2.385 2.385 0 0 1-.153.144l-.027.027c-.054.044-.1.09-.153.135l-.01.008c-.053.046-.107.09-.161.135l-.027.027c-.054.045-.108.081-.162.126-.01 0-.01.01-.018.01-.054.035-.108.08-.162.116-.009.01-.018.01-.018.018-.054.036-.117.072-.17.108-.01.01-.019.01-.028.018a4.867 4.867 0 0 1-.369.207c-.009.01-.018.01-.027.018-.063.027-.126.063-.189.09-.009 0-.018.009-.027.009l-.189.081h-.009c.01 0 .018 0 .027-.009.01 0 .018 0 .027-.009.027-.009.055-.009.082-.018h.008a.32.32 0 0 1 .09-.018l.036-.009c.018 0 .036-.009.054-.009.063-.018.135-.036.207-.054l.09-.027c.01 0 .027-.009.036-.009l.036-.009h.01c.017 0 .026-.009.044-.018a.76.76 0 0 1 .153-.045c.063-.018.117-.045.189-.063l.036-.009c.018-.009.027-.009.045-.018.099-.036.216-.08.342-.135l.036-.018.027-.009c.108-.045.216-.099.342-.153l.053-.027c.046-.018.082-.045.127-.063.009 0 .009-.009.018-.009.027-.018.062-.027.09-.045a.982.982 0 0 0 .098-.054l.018-.009.027-.018.243-.134s.01 0 .01-.01a.068.068 0 0 1 .035-.018.188.188 0 0 0 .054-.036l.01-.008.017-.01a.96.96 0 0 0 .135-.09c.01-.008.018-.008.027-.017.054-.036.117-.072.171-.108l.018-.018c.108-.072.216-.153.324-.234.009 0 .009-.01.018-.01M10.7 20.411c.054.072.108.144.162.207.018.027.045.054.063.08.036.046.072.082.108.127.027.027.054.063.081.09.027.036.063.072.09.108.027.036.063.063.09.099.027.036.063.063.09.099.027.036.063.063.09.099l.09.09.099.099c.027.026.054.053.09.08.036.036.072.063.108.1.027.026.054.053.09.08.035.036.072.063.107.1.027.026.055.053.09.071.036.027.072.063.117.09.027.027.054.045.09.072l.117.09c.027.027.063.045.09.072.036.027.081.054.117.09l.09.063c.045.027.081.054.126.081l.09.063c.045.027.081.054.126.08.027.019.063.037.09.055.045.027.09.054.126.08.027.019.063.037.09.055.045.027.09.054.135.072.027.018.063.036.09.054.045.027.09.045.135.072a.42.42 0 0 0 .09.045c.045.027.09.045.134.063.027.018.064.027.09.045.045.018.09.045.135.063.027.018.063.027.09.045.045.018.09.036.144.063.036.009.063.027.1.036.044.018.098.035.143.053.036.01.063.027.1.037.044.018.098.036.143.053.036.01.063.027.099.037.045.018.099.026.144.044a.439.439 0 0 1 .099.036c.045.018.099.027.144.045.036.01.072.018.099.027.045.01.099.027.144.036l.108.027c.045.01.099.018.144.036l.108.027c.044.01.098.018.143.027.036.01.072.018.108.018.045.01.1.018.144.027.036.01.072.01.117.018a.788.788 0 0 0 .144.018c.036.01.081.01.117.018.045.01.1.01.144.018.036 0 .081.01.117.01.045 0 .09.008.144.008.045 0 .08.01.126.01.045 0 .09.008.135.008.045 0 .08 0 .126.01h.225v-3.572c-.01 0-.018.009-.018.009-.027.009-.045.018-.072.027l-.081.027c-.027.009-.045.018-.072.027l-.081.027a.277.277 0 0 1-.072.018c-.027.009-.054.018-.081.018a.262.262 0 0 1-.081.018c-.027.009-.054.009-.081.018-.027.009-.054.009-.081.018-.027.009-.054.009-.081.018-.027.009-.054.009-.081.018-.027.009-.054.009-.08.018-.028.009-.055.009-.082.018-.027.009-.054.009-.08.018-.028.009-.055.009-.073.018-.027.009-.054.009-.08.009-.028 0-.055.009-.073.009-.027 0-.054.009-.08.009-.028 0-.046.009-.073.009-.027 0-.063.009-.09.009-.027 0-.045.009-.072.009-.027 0-.063.009-.09.009-.018 0-.044 0-.063.009-.036 0-.063.009-.098.009h-.063c-.036 0-.072 0-.108.009h-.675c-.072 0-.153-.01-.225-.01h-.045c-.072-.008-.144-.008-.207-.017h-.036c-.072-.01-.153-.018-.225-.027-.018 0-.036-.01-.054-.01a1.75 1.75 0 0 1-.225-.035c-.008 0-.018 0-.026-.01-.072-.008-.135-.026-.207-.035-.018 0-.027-.01-.045-.01l-.216-.053c-.018 0-.027-.01-.045-.01a6.626 6.626 0 0 1-.207-.053h-.01c-.071-.018-.143-.045-.215-.063-.018-.009-.027-.009-.045-.018-.072-.027-.135-.045-.207-.072-.009 0-.027-.009-.036-.009-.063-.027-.126-.045-.189-.072-.009 0-.018-.009-.027-.009-.063-.027-.135-.054-.198-.08-.018-.01-.027-.01-.045-.019-.063-.027-.135-.063-.198-.09-.009 0-.009-.009-.018-.009-.063-.027-.126-.063-.18-.09-.008-.009-.026-.009-.035-.018a1.913 1.913 0 0 0-.19-.099.068.068 0 0 0-.035-.018c-.063-.036-.117-.072-.18-.108 0 0-.01 0-.01-.009-.062-.036-.116-.08-.18-.117-.008-.009-.026-.018-.035-.027a2.057 2.057 0 0 1-.171-.125c-.009-.01-.018-.01-.027-.018-.054-.037-.108-.082-.153-.117-.009-.01-.018-.01-.027-.018a192.777 192.777 0 0 1-.198-.162 1.152 1.152 0 0 1-.153-.144l-.009-.01a1.093 1.093 0 0 1-.144-.143l-.027-.027a97.615 97.615 0 0 0-.144-.144l-.027-.027c-.045-.045-.09-.1-.134-.144l-.01-.009a964.234 964.234 0 0 1-.161-.198c-.045-.054-.081-.108-.126-.162-.01-.009-.01-.018-.018-.027-.036-.054-.072-.099-.108-.153-.01-.009-.01-.018-.018-.027a2.801 2.801 0 0 1-.126-.207 1.147 1.147 0 0 1-.1-.18v-.009c-.035-.053-.062-.116-.09-.17-.008-.01-.008-.028-.017-.037a1.688 1.688 0 0 0-.09-.18c-.01-.008-.01-.026-.018-.035a1.377 1.377 0 0 1-.072-.171c0-.01 0-.01-.009-.018 0 .009 0 .018.009.027 0 .018.009.036.009.054 0 .009.009.027.009.036 0 .018.009.027.009.045 0 .009.009.027.009.036 0 .009.009.018.009.027v.018l.009.018c0 .009 0 .018.009.018 0 .009.009.018.009.036.027.098.054.215.099.341l.009.027v.01c.009.017.009.035.018.053.009.036.027.072.036.108.018.063.045.135.072.207 0 .01 0 .01.009.018l.009.036c0 .01.009.027.009.036v.01c.009.017.009.035.018.053a.439.439 0 0 1 .027.063 3.9 3.9 0 0 0 .09.225l.009.018.018.054c.045.108.099.216.153.342l.027.054c.036.08.08.153.117.234.018.036.036.063.054.099l.027.045c.053.107.126.215.197.332l.018.036c.027.054.063.1.1.153.008.01.017.027.026.036l.09.144s0 .01.01.01l.008.017.01.01.116.17c.036.054.081.117.126.171l.027-.027zm3.607 7.25c.315 0 .495-.135.495-.35v-.01c0-.233-.189-.35-.495-.35h-.602v.72h.602v-.01zm-1.52-1.43h1.565c.504 0 .855.117 1.08.324.198.17.297.405.297.692v.01c0 .458-.27.755-.684.917l.792 1.035h-1.062l-.666-.9h-.404v.9h-.918V26.23zm3.598 0h.972l.791 1.151.792-1.151h.971v2.977h-.917V27.5l-.846 1.17h-.018l-.845-1.16v1.7h-.9v-2.98zm6.162 1.809-.369-.846-.377.845h.746zm-.8-1.836h.881l1.413 3.005h-.981l-.243-.531H21.54l-.234.53h-.972l1.413-3.004zm3.265.746h-.998v-.719h2.914v.72h-.998v2.258h-.918V26.95zm-14.384 1.512a.726.726 0 0 1-.728-.729c0-.405.323-.728.728-.728.405 0 .729.323.729.728a.726.726 0 0 1-.729.729zm0-2.294a1.566 1.566 0 0 0 0 3.13 1.566 1.566 0 0 0 0-3.13z" fill="#E82C2A"/></svg>