<svg height="36" viewBox="0 0 36 36" width="36" xmlns="http://www.w3.org/2000/svg"><g fill="none"><path d="M18 0c2.837 0 5.52.656 7.907 1.825C31.884 4.753 36 10.895 36 18c0 9.942-8.058 18-18 18-9.94 0-18-8.057-18-18C0 8.06 8.06 0 18 0z" fill="#f2f4f7"/><path d="M8 7.974h19.983v20.035H8zm17.302 14.492v.128h.286v.797h.157v-.798h.288v-.127h-.731m.913 0v.925h.156c.001-.253-.001-.505.002-.758.105.25.199.505.299.757h.1c.102-.253.197-.508.3-.76.003.253.001.507.002.76l.155.001c.002-.308 0-.616.001-.925h-.237c-.088.232-.178.463-.267.694l-.272-.694h-.239m-15.843.986c-.389.015-.78.192-1.012.512-.2.27-.279.61-.277.941-.006.311.056.632.223.898.134.218.34.39.578.486.285.116.606.137.907.075a1.27 1.27 0 0 0 .725-.426c.165-.197.26-.444.298-.696a2.04 2.04 0 0 0-.055-.879 1.265 1.265 0 0 0-.473-.667 1.449 1.449 0 0 0-.914-.244m2.662.394v-.324c-.233 0-.466-.001-.699.001v2.794h.75c0-.618-.002-1.236 0-1.854.031-.091.115-.157.198-.2.19-.09.407-.099.614-.1v-.693c-.327-.03-.653.131-.863.376m1.832-.3c-.254.08-.481.246-.634.465.165.097.332.19.498.285a.84.84 0 0 1 .579-.315c.162-.014.356-.006.472.126.082.094.058.226.062.34-.381.045-.766.108-1.121.26-.2.086-.396.21-.514.4a.88.88 0 0 0-.072.72.72.72 0 0 0 .389.442c.212.1.454.094.68.058.226-.038.442-.126.633-.252l.064.242h.655c-.008-.646-.002-1.292-.003-1.938a.795.795 0 0 0-.142-.545c-.156-.207-.413-.305-.66-.345a1.989 1.989 0 0 0-.886.057m3.645-.06c-.262.054-.491.2-.705.355-.021-.11-.046-.218-.065-.328l-.612.085v2.715h.732v-2.001c.172-.144.37-.275.598-.304.115-.012.25-.005.334.085.082.097.095.231.1.354v1.866h.736v-1.985a1.215 1.215 0 0 0-.067-.392.669.669 0 0 0-.346-.387c-.22-.1-.472-.108-.705-.063m1.912.406c-.224.304-.303.692-.295 1.064.003.34.078.695.293.965.17.22.436.356.71.385.201.02.416.01.595-.091a.832.832 0 0 0 .286-.306c.005.118.001.235.002.353-.004.156-.027.325-.135.446-.098.109-.25.148-.393.148-.149.002-.31-.003-.439-.087-.064-.041-.097-.114-.116-.185l-.726.117a.785.785 0 0 0 .4.526c.312.173.682.192 1.03.159.3-.03.618-.116.833-.343.193-.203.253-.492.257-.764v-2.765c-.208.001-.415-.003-.623.002-.016.103-.036.205-.054.308a.6.6 0 0 0-.324-.28 1.285 1.285 0 0 0-.561-.079c-.295.023-.568.19-.74.427m3.062-.02c-.203.24-.293.555-.315.864-.022.338.01.69.164.995.12.239.324.434.572.532.319.129.676.128 1.008.057.325-.07.631-.266.797-.56l-.54-.3a.86.86 0 0 1-.307.287.783.783 0 0 1-.467.06.539.539 0 0 1-.377-.236c-.102-.16-.13-.356-.132-.543h1.85a1.984 1.984 0 0 0-.074-.733 1.145 1.145 0 0 0-.464-.64c-.28-.18-.629-.22-.953-.182-.29.035-.575.17-.762.398z" fill="#f60"/><path d="M24.06 24.126a.51.51 0 0 1 .354-.163c.169-.013.353.034.469.166.102.113.136.27.14.42h-1.124a.71.71 0 0 1 .16-.423zm-2.74-.132a.54.54 0 0 1 .483.152c.143.146.202.355.214.556.006.147 0 .295-.024.44a.784.784 0 0 1-.188.424.526.526 0 0 1-.388.145.47.47 0 0 1-.362-.137c-.122-.126-.163-.306-.182-.476a2.327 2.327 0 0 1 .001-.52.818.818 0 0 1 .17-.422.477.477 0 0 1 .277-.162zm-10.978.089c.178-.027.378.003.518.126.131.113.195.284.224.45.03.189.03.382-.007.569-.034.164-.107.329-.243.432-.152.113-.355.133-.536.096a.54.54 0 0 1-.355-.257c-.109-.19-.133-.414-.128-.629.007-.193.04-.394.15-.557a.54.54 0 0 1 .377-.23zm4.823.965c.208-.086.433-.125.656-.153v.654c-.186.167-.423.299-.68.294a.308.308 0 0 1-.23-.097.407.407 0 0 1-.04-.468.602.602 0 0 1 .294-.23z" fill="#f60"/><path d="M27.983 7.974H28v20.052H8v-.017h19.983V7.974z" fill="#fed9bf"/><path d="M25.302 22.466h.731v.127h-.287v.798h-.157v-.798h-.287v-.127zm.913 0h.24l.27.694c.09-.231.18-.462.268-.694h.237v.925a9.8 9.8 0 0 0-.156 0l-.001-.761c-.104.252-.2.507-.3.76h-.101c-.1-.252-.194-.507-.299-.757-.003.253 0 .505-.002.758h-.156v-.925zm-15.843.986c.32-.017.65.057.914.244.228.16.392.402.473.667.086.284.097.587.055.88a1.418 1.418 0 0 1-.298.695 1.27 1.27 0 0 1-.725.426 1.579 1.579 0 0 1-.907-.075 1.221 1.221 0 0 1-.578-.486 1.639 1.639 0 0 1-.223-.898c-.002-.33.078-.672.277-.94.231-.321.623-.498 1.012-.513m-.03.63a.54.54 0 0 0-.376.231c-.11.163-.144.364-.151.557-.005.215.02.44.128.629a.54.54 0 0 0 .355.257c.18.037.384.017.536-.096.136-.103.21-.268.243-.432.036-.187.037-.38.007-.568-.029-.167-.093-.338-.224-.451-.14-.123-.34-.153-.518-.126zm2.692-.236c.21-.245.536-.407.863-.376v.693c-.207.001-.424.01-.614.1-.083.043-.167.109-.197.2-.003.618 0 1.236-.002 1.854h-.748v-2.794c.232-.002.465 0 .698 0v.323zm1.832-.3c.285-.092.591-.099.885-.057.248.04.505.138.66.345.12.153.156.355.143.545 0 .646-.005 1.292.003 1.938h-.655l-.064-.242a1.656 1.656 0 0 1-.632.252c-.227.036-.47.041-.681-.058a.723.723 0 0 1-.39-.443.88.88 0 0 1 .073-.719c.118-.19.313-.314.514-.4.355-.152.74-.215 1.12-.26-.003-.114.021-.246-.06-.34-.117-.132-.311-.14-.473-.126a.84.84 0 0 0-.579.315c-.166-.094-.333-.188-.498-.285.153-.22.38-.384.634-.465m.299 1.502a.602.602 0 0 0-.295.23.407.407 0 0 0 .042.468c.058.062.143.1.23.097.256.005.493-.127.68-.294v-.654a2.542 2.542 0 0 0-.657.153zm3.345-1.562c.234-.045.486-.037.706.063.163.074.286.22.346.387.046.125.064.259.067.392v1.985h-.736v-1.866c-.005-.123-.018-.257-.1-.354-.084-.09-.219-.097-.334-.085-.228.029-.426.16-.598.304v2h-.732v-2.714l.612-.085c.02.11.044.219.065.328.214-.154.443-.301.705-.355zm1.913.406c.172-.238.445-.404.74-.427.19-.01.384.007.561.079a.6.6 0 0 1 .324.28c.018-.103.038-.205.054-.308.208-.005.415-.001.623-.002v2.765c-.004.272-.064.561-.257.764-.215.227-.532.313-.834.343-.347.033-.717.014-1.028-.16a.785.785 0 0 1-.401-.525l.726-.117c.019.07.052.144.116.185.13.084.29.089.44.087.141 0 .294-.039.392-.148.108-.12.13-.29.135-.446 0-.118.003-.235-.002-.353a.832.832 0 0 1-.286.306c-.18.102-.394.11-.594.091a1.041 1.041 0 0 1-.711-.385c-.215-.27-.29-.625-.293-.965-.008-.372.07-.76.295-1.064m.898.102a.477.477 0 0 0-.277.162.818.818 0 0 0-.17.423 2.327 2.327 0 0 0-.001.52c.02.169.06.349.182.475.092.1.23.141.362.137a.526.526 0 0 0 .388-.145.784.784 0 0 0 .188-.424c.024-.145.03-.293.024-.44-.012-.2-.07-.41-.214-.556a.54.54 0 0 0-.482-.152zm2.164-.123a1.16 1.16 0 0 1 .762-.398c.324-.038.674.001.953.182.228.145.386.383.464.64.07.236.094.487.073.733h-1.849c.002.187.03.382.132.543.082.13.226.214.377.236a.783.783 0 0 0 .467-.06.86.86 0 0 0 .306-.288l.54.3c-.165.295-.47.49-.796.561-.332.07-.69.072-1.008-.057a1.107 1.107 0 0 1-.572-.532c-.154-.306-.186-.657-.164-.995.022-.309.112-.624.315-.865m.574.255a.71.71 0 0 0-.16.422h1.124c-.004-.149-.038-.306-.14-.42-.116-.13-.3-.178-.47-.165a.514.514 0 0 0-.354.163z" fill="#fff"/></g></svg>