<svg height="36" viewBox="0 0 36 36" width="36" xmlns="http://www.w3.org/2000/svg"><g fill="none" fill-rule="evenodd"><path d="M18 0c2.837 0 5.52.656 7.907 1.825C31.884 4.753 36 10.895 36 18c0 9.942-8.058 18-18 18-9.94 0-18-8.057-18-18C0 8.06 8.06 0 18 0z" fill="#f2f4f7" fill-rule="nonzero"/><path d="M4 23.242h28V13H4z" fill="#e32124"/><path d="M16.64 18.501h1.315l-.694-1.119-1.276 2.024h-.58l1.55-2.428a.372.372 0 0 1 .306-.157c.119 0 .232.056.3.151l1.556 2.434h-.582l-.273-.451h-1.33l-.291-.451zm6.026.451v-2.107h-.49v2.315c0 .066.025.125.072.172a.269.269 0 0 0 .182.074h2.247l.29-.451H22.67zm-8.146-.377a.865.865 0 1 0 0-1.733h-2.155v2.561h.493v-2.11h1.63a.413.413 0 0 1 0 .828h-1.39l1.467 1.282h.715l-.988-.828h.223zm-5.183.828a1.28 1.28 0 1 1 0-2.558h1.488a1.279 1.279 0 0 1 0 2.558zm1.455-.451a.829.829 0 1 0 0-1.656H9.37a.828.828 0 0 0 0 1.656zm9.351.451a1.28 1.28 0 1 1 0-2.558h1.77l-.292.451h-1.448a.828.828 0 0 0 0 1.656h1.775l-.29.451h-1.52zm6.023-.451a.828.828 0 0 1-.796-.602h2.103l.29-.452h-2.395a.829.829 0 0 1 .796-.605h1.449l.288-.451h-1.77a1.28 1.28 0 1 0 .001 2.558h1.519l.288-.451h-1.775zm2.001-1.831c0-.125.101-.229.225-.229a.23.23 0 0 1 .23.229.23.23 0 0 1-.23.225.23.23 0 0 1-.224-.225zm.225.288a.288.288 0 1 0 0-.576.285.285 0 0 0-.283.288c0 .157.127.288.284.288zm-.025-.457c.045 0 .065 0 .083.008a.092.092 0 0 1 .066.089c0 .003 0 .015-.003.027-.005.012-.01.036-.043.056-.006.004-.006.004-.015.007l.074.136h-.07l-.067-.125h-.04v.125h-.066v-.323zm.026.145c.02 0 .042 0 .054-.021.003-.009.006-.018.006-.027a.047.047 0 0 0-.024-.041c-.015-.006-.03-.006-.062-.006h-.016v.092h.041z" fill="#fefefe"/></g></svg>