<svg width="36" height="36" fill="none" xmlns="http://www.w3.org/2000/svg"><defs><radialGradient id="a" cx="0" cy="0" r="1" gradientUnits="userSpaceOnUse" gradientTransform="rotate(53.897 -10.517 14.77) scale(2.81991)"><stop stop-color="#FFE7B0"/><stop offset="1" stop-color="#EF7D00"/></radialGradient></defs><path d="M18 0c2.837 0 5.52.656 7.907 1.825C31.884 4.753 36 10.895 36 18c0 9.942-8.058 18-18 18-9.94 0-18-8.057-18-18C0 8.06 8.06 0 18 0z" fill="#F2F4F7"/><path d="M12.837 22.228c1.156 0 2.028-.902 2.028-2.097 0-1.196-.872-2.097-2.028-2.097-1.156 0-2.028.901-2.028 2.097s.872 2.097 2.028 2.097zm0-5.208c1.755 0 3.13 1.366 3.13 3.111 0 1.731-1.375 3.087-3.13 3.087s-3.13-1.356-3.13-3.087c0-1.745 1.375-3.111 3.13-3.111zm12.649 6.092h-1.102v-6.058c0-.243.299-.51.815-.51h.287v6.568zm2.934-.791c.952 0 1.477-.682 1.477-1.585 0-.903-.582-1.522-1.477-1.522-.918 0-1.477.62-1.477 1.521 0 .902.574 1.586 1.477 1.586zm1.514-3.324v-.059c0-.31.4-.515.794-.515H31v4.689h-1.066v-.558s-.613.682-1.648.682c-1.614 0-2.377-1.324-2.377-2.5 0-1.187.764-2.437 2.377-2.437 1.035 0 1.648.698 1.648.698m-10.745-.635v.89a9.172 9.172 0 0 0-.395-.01c-.819 0-1.24.123-1.24.123v3.744h-1.102v-3.88c0-.385.741-.874 2.406-.874 0 0 .224.003.33.007m.402 4.75v-6.058c0-.243.3-.51.816-.51h.287v3.491l1.695-1.608 1.417-.001-2.151 2.007 2.532 2.679h-1.394l-1.874-1.982-.225.213v1.769h-1.102z" fill="#C10C1A"/><path d="m8.743 12.049-.925 2.874H5.07a.07.07 0 0 0-.04.126l2.492 1.81c.002.002.004 0 .003-.001l-.823-1.335h1.61l.497-1.568.503 1.587a5.173 5.173 0 0 1 1.098-.615c.002 0 .001-.004 0-.004h-.612l-.923-2.874A.068.068 0 0 0 8.809 12a.068.068 0 0 0-.066.049" fill="url(#a)"/><path d="M11.52 14.923c-1.148 0-4.005 1.633-4.008 5.23 0 .002.003.004.005.004.003 0 .005-.002.005-.004.262-1.786 1.19-2.862 2.1-3.636 1.096-.932 3.076-1.4 3.267-1.459a.07.07 0 0 0 .047-.066.07.07 0 0 0-.07-.069H11.52z" fill="#C10C1A"/></svg>