<svg width="36" height="36" fill="none" xmlns="http://www.w3.org/2000/svg"><path d="M18 0c2.837 0 5.52.656 7.907 1.825C31.884 4.753 36 10.895 36 18c0 9.942-8.058 18-18 18-9.94 0-18-8.057-18-18C0 8.06 8.06 0 18 0z" fill="#F2F4F7"/><path d="M4.308 15a.302.302 0 0 0-.308.308v5.745c0 .163.13.308.308.308h25.886L32 15H4.308z" fill="#CD2029"/><path d="M4.308 15a.302.302 0 0 0-.308.308v5.745c0 .163.13.308.308.308h25.886L32 15H4.308z" fill="#CD2029"/><path d="M14.066 17.404v-.56h-1.563a.646.646 0 0 0-.836.05.632.632 0 0 0-.172.542 1.103 1.103 0 0 0-.91.028.845.845 0 0 0-.215-.345 1.072 1.072 0 0 0-.737-.276H9.18c0-.032.01-.06.01-.093a.64.64 0 0 0-.183-.448.64.64 0 0 0-.896 0 .57.57 0 0 0-.13.206 1.572 1.572 0 0 0-2.002.163c-.336.336-.523.817-.523 1.358 0 .541.173 1.012.5 1.33.284.284.662.438 1.082.438.593 0 1.064-.265 1.349-.713v.583h2.025l.103-.122c.196.164.317.164.602.164.163 0 .317-.033.448-.093v.041h2.002v.5h.583c.369 0 .723-.084.9-.644l.654-2.123h-1.633v.014h-.005z" fill="#fff"/><path d="M13.403 20.301v-.5h-1.992a1.184 1.184 0 0 1-.336.043c-.145 0-.257 0-.36-.019a.854.854 0 0 1-.214-.093l-.061.07H8.223v-.345c-.308.308-.723.48-1.218.48-.448 0-.868-.163-1.176-.471-.345-.345-.532-.859-.532-1.419s.196-1.082.56-1.451c.318-.317.738-.49 1.186-.49.317 0 .611.084.858.224.033-.042.061-.084.094-.112a.759.759 0 0 1 .541-.224c.205 0 .397.084.541.224a.78.78 0 0 1 .224.509h.318c.317 0 .611.112.826.317.06.06.13.154.196.275.13-.051.266-.07.41-.07.103 0 .206.01.299.033a.748.748 0 0 1 .224-.462.759.759 0 0 1 .961-.093h1.648v.56h1.647l-.051.163-.644 2.086-.01.042c-.093.308-.247.5-.438.602-.182.103-.397.121-.584.121h-.7zm.252-.756v.5h.448c.173 0 .336-.02.462-.094.122-.07.234-.196.318-.448l.326-1.064c.112-.345.215-.695.276-.9h-1.433v-.131h.13-.13v.13h-.13v-.56H12.46l-.033-.041a.565.565 0 0 0-.308-.103.5.5 0 0 0-.369.154.5.5 0 0 0-.154.369c0 .018 0 .042.01.07l.032.224-.205-.094a.882.882 0 0 0-.378-.07.897.897 0 0 0-.43.103l-.13.06-.051-.144a.713.713 0 0 0-.182-.299.895.895 0 0 0-.644-.247h-.602l.018-.145c0-.032.01-.051.01-.07a.5.5 0 0 0-.154-.368.5.5 0 0 0-.369-.154.5.5 0 0 0-.369.154.537.537 0 0 0-.112.163l-.06.154-.131-.093a1.39 1.39 0 0 0-.84-.257c-.378 0-.737.145-1.003.41-.318.318-.49.757-.49 1.27 0 .509.163.952.462 1.246.256.257.611.397.989.397.55 0 .97-.248 1.237-.654l.233-.378v.9h1.83l.144-.181.103.084c.093.07.144.103.214.121.07.019.164.019.308.019a.971.971 0 0 0 .397-.084l.173-.07v.112h2.048v.01z" fill="#000"/><path d="M8.75 17.24h.892c.308 0 .611.163.611.583 0 .224-.093.43-.275.523v.01c.182.05.247.298.257.49 0 .083-.042.387.018.461h-.448c-.042-.07.01-.275 0-.326-.01-.206-.042-.42-.256-.42h-.336v.746H8.75V17.24zm.463.887h.378c.13 0 .214-.084.214-.248 0-.154-.102-.224-.233-.224h-.36v.472zm1.582.541c.009.205.112.336.298.336a.254.254 0 0 0 .248-.163h.41c-.084.345-.368.5-.662.5-.439 0-.738-.3-.738-.799 0-.462.327-.789.724-.789.48 0 .714.411.695.91h-.975v.005zm.541-.275c-.01-.164-.112-.308-.257-.308-.154 0-.256.121-.284.308h.541zm.584-.593h.42v1.503h-.42V17.8zm.685-.56h.406v2.063h-.406V17.24zm.635 0h.415v2.063h-.415V17.24zm1.419 2.193c-.103.327-.248.369-.532.369h-.196v-.397h.144c.094 0 .164-.06.164-.163 0-.084-.084-.317-.103-.387l-.327-1.055h.439l.247.97.248-.97h.429l-.513 1.633zm-2.782-2.063c0-.144.112-.256.257-.256.145 0 .257.112.257.257a.253.253 0 0 1-.257.256.262.262 0 0 1-.257-.256zm-3.607.635c0 .892-.5 1.419-1.246 1.419-.695 0-1.195-.532-1.195-1.39 0-.808.509-1.433 1.237-1.433.714.004 1.204.574 1.204 1.404zM7.033 16.9c-.429 0-.653.36-.653 1.04 0 .5.154 1.186.714 1.186.448 0 .635-.41.635-1.073-.01-.69-.266-1.153-.696-1.153zm1.778-.14a.253.253 0 0 0-.256-.257.253.253 0 0 0-.257.256v.033c0 .01 0 .033.019.06 0 .01.009.01.009.02 0 0 0 .009.01.009.018.042.06.102.13.172l-.093.07.093.164s.308-.196.336-.49c.01 0 .01-.019.01-.038z" fill="#009D57"/><path d="M6.637 18.057s-.061.051-.042.154c0 0 .032.121.196.121.07-.01.093-.07.224-.084h.018v.13s-.009.07-.06.122c-.042.06.009.103.009.103s.06.06.13-.019a.448.448 0 0 0 .085-.247v-.084s.214.144.345-.06c.042-.094-.019-.164-.019-.164s.103-.112-.018-.215c-.103-.07-.196 0-.196 0s.102-.182-.052-.266c-.112-.051-.182.033-.182.033s-.112-.112-.233 0c0 0-.112.112.033.247 0 0-.131-.112-.248.019-.093.126.01.21.01.21z" fill="#009D57"/><path d="M16.936 17.483h-.644l-.48 1.922h.531l.06-.317h.398l.06.317h.532l-.457-1.922zm-.467 1.218.084-.462c.019-.122.042-.248.052-.369h.009c.01.121.033.257.051.378l.084.439h-.275v.014h-.005zm2.194.457a.728.728 0 0 0 .06-.299v-1.381h-.508v1.4c0 .112-.01.247-.154.247-.131 0-.145-.144-.145-.256v-1.386h-.509V18.7c0 .06.01.163.01.163.009.112.032.215.06.299.084.196.257.298.602.298.224 0 .462-.06.584-.266v-.037zm1.106-1.255h.387v-.42h-1.288v.42h.401v1.512h.5v-1.512zm1.82.55c0-.541-.01-1.012-.696-1.012-.686 0-.695.471-.695 1.012 0 .145 0 .285.019.411a.823.823 0 0 0 .084.299c.093.182.266.298.592.298.336 0 .509-.112.602-.298.042-.084.061-.182.084-.299.01-.126.01-.266.01-.41zm-.532.103c0 .103-.01.308-.01.308 0 .033-.009.06-.009.103-.01.084-.051.163-.145.163-.093 0-.13-.084-.154-.163 0-.033-.009-.103-.009-.103-.01-.103-.01-.215-.01-.317v-.094c0-.121 0-.233.01-.345 0-.112 0-.317.163-.317.122 0 .154.112.164.214.009.154.009.299.009.448v.103h-.01zm6.323-.653h.378v-.42h-1.274v.42h.387v1.512h.509v-1.512zm-4.671.774h.172c.397 0 .644-.196.644-.592 0-.448-.256-.593-.676-.593h-.644v1.923h.508v-.738h-.004zm0-.368v-.472c.196 0 .298.033.298.234 0 .21-.112.238-.298.238zm1.782-.826h-.644l-.48 1.922h.532l.06-.317h.397l.06.317h.533l-.458-1.922zM24.02 18.7l.084-.462c.019-.122.042-.248.051-.369h.01c.009.121.032.257.051.378l.084.439h-.28v.014zm2.347.164c-.009-.215-.051-.369-.317-.41.247-.052.327-.206.327-.449 0-.429-.248-.522-.626-.522h-.704v1.922h.513v-.774c.266 0 .299.06.299.233l.009.299c0 .084 0 .172.042.256h.541v-.032c-.07-.033-.084-.131-.084-.215v-.014c.014-.07.014-.266 0-.294zm-.793-.574v-.448c.182 0 .308.01.308.224-.005.205-.135.224-.308.224zm2.319.868c.084.215.285.299.602.299.308 0 .532-.084.626-.299a.63.63 0 0 0 .06-.299v-.009c0-.695-.826-.523-.826-.9 0-.094.052-.164.154-.164.13 0 .145.145.145.247h.48c0-.42-.223-.583-.634-.583-.369 0-.644.163-.644.56 0 .695.705.532.798.85.01.018.01.041.01.07 0 .102-.061.181-.173.181-.145 0-.154-.144-.164-.256v-.033h-.49v.033a.88.88 0 0 0 .056.303z" fill="#fff"/><path d="M8.75 17.24h.892c.308 0 .611.163.611.583 0 .224-.093.43-.275.523v.01c.182.05.247.298.257.49 0 .083-.042.387.018.461h-.448c-.042-.07.01-.275 0-.326-.01-.206-.042-.42-.256-.42h-.336v.746H8.75V17.24zm.463.887h.378c.13 0 .214-.084.214-.248 0-.154-.102-.224-.233-.224h-.36v.472zm1.582.541c.009.205.112.336.298.336a.254.254 0 0 0 .248-.163h.41c-.084.345-.368.5-.662.5-.439 0-.738-.3-.738-.799 0-.462.327-.789.724-.789.48 0 .714.411.695.91h-.975v.005zm.541-.275c-.01-.164-.112-.308-.257-.308-.154 0-.256.121-.284.308h.541zm.584-.593h.42v1.503h-.42V17.8zm.685-.56h.406v2.063h-.406V17.24zm.635 0h.415v2.063h-.415V17.24zm1.419 2.193c-.103.327-.248.369-.532.369h-.196v-.397h.144c.094 0 .164-.06.164-.163 0-.084-.084-.317-.103-.387l-.327-1.055h.439l.247.97.248-.97h.429l-.513 1.633zm-2.782-2.063c0-.144.112-.256.257-.256.145 0 .257.112.257.257a.253.253 0 0 1-.257.256.262.262 0 0 1-.257-.256zm-3.607.635c0 .892-.5 1.419-1.246 1.419-.695 0-1.195-.532-1.195-1.39 0-.808.509-1.433 1.237-1.433.714.004 1.204.574 1.204 1.404zM7.033 16.9c-.429 0-.653.36-.653 1.04 0 .5.154 1.186.714 1.186.448 0 .635-.41.635-1.073-.01-.69-.266-1.153-.696-1.153zm1.778-.14a.253.253 0 0 0-.256-.257.253.253 0 0 0-.257.256v.033c0 .01 0 .033.019.06 0 .01.009.01.009.02 0 0 0 .009.01.009.018.042.06.102.13.172l-.093.07.093.164s.308-.196.336-.49c.01 0 .01-.019.01-.038z" fill="#009D57"/><path d="M6.637 18.057s-.061.051-.042.154c0 0 .032.121.196.121.07-.01.093-.07.224-.084h.018v.13s-.009.07-.06.122c-.042.06.009.103.009.103s.06.06.13-.019a.448.448 0 0 0 .085-.247v-.084s.214.144.345-.06c.042-.094-.019-.164-.019-.164s.103-.112-.018-.215c-.103-.07-.196 0-.196 0s.102-.182-.052-.266c-.112-.051-.182.033-.182.033s-.112-.112-.233 0c0 0-.112.112.033.247 0 0-.131-.112-.248.019-.093.126.01.21.01.21z" fill="#009D57"/><path d="M16.936 17.483h-.644l-.48 1.922h.531l.06-.317h.398l.06.317h.532l-.457-1.922zm-.467 1.218.084-.462c.019-.122.042-.248.052-.369h.009c.01.121.033.257.051.378l.084.439h-.275v.014h-.005zm2.194.457a.728.728 0 0 0 .06-.299v-1.381h-.508v1.4c0 .112-.01.247-.154.247-.131 0-.145-.144-.145-.256v-1.386h-.509V18.7c0 .06.01.163.01.163.009.112.032.215.06.299.084.196.257.298.602.298.224 0 .462-.06.584-.266v-.037zm1.106-1.255h.387v-.42h-1.288v.42h.401v1.512h.5v-1.512zm1.82.55c0-.541-.01-1.012-.696-1.012-.686 0-.695.471-.695 1.012 0 .145 0 .285.019.411a.823.823 0 0 0 .084.299c.093.182.266.298.592.298.336 0 .509-.112.602-.298.042-.084.061-.182.084-.299.01-.126.01-.266.01-.41zm-.532.103c0 .103-.01.308-.01.308 0 .033-.009.06-.009.103-.01.084-.051.163-.145.163-.093 0-.13-.084-.154-.163 0-.033-.009-.103-.009-.103-.01-.103-.01-.215-.01-.317v-.094c0-.121 0-.233.01-.345 0-.112 0-.317.163-.317.122 0 .154.112.164.214.009.154.009.299.009.448v.103h-.01zm6.323-.653h.378v-.42h-1.274v.42h.387v1.512h.509v-1.512zm-4.671.774h.172c.397 0 .644-.196.644-.592 0-.448-.256-.593-.676-.593h-.644v1.923h.508v-.738h-.004zm0-.368v-.472c.196 0 .298.033.298.234 0 .21-.112.238-.298.238zm1.782-.826h-.644l-.48 1.922h.532l.06-.317h.397l.06.317h.533l-.458-1.922zM24.02 18.7l.084-.462c.019-.122.042-.248.051-.369h.01c.009.121.032.257.051.378l.084.439h-.28v.014zm2.347.164c-.009-.215-.051-.369-.317-.41.247-.052.327-.206.327-.449 0-.429-.248-.522-.626-.522h-.704v1.922h.513v-.774c.266 0 .299.06.299.233l.009.299c0 .084 0 .172.042.256h.541v-.032c-.07-.033-.084-.131-.084-.215v-.014c.014-.07.014-.266 0-.294zm-.793-.574v-.448c.182 0 .308.01.308.224-.005.205-.135.224-.308.224zm2.319.868c.084.215.285.299.602.299.308 0 .532-.084.626-.299a.63.63 0 0 0 .06-.299v-.009c0-.695-.826-.523-.826-.9 0-.094.052-.164.154-.164.13 0 .145.145.145.247h.48c0-.42-.223-.583-.634-.583-.369 0-.644.163-.644.56 0 .695.705.532.798.85.01.018.01.041.01.07 0 .102-.061.181-.173.181-.145 0-.154-.144-.164-.256v-.033h-.49v.033a.88.88 0 0 0 .056.303z" fill="#fff"/><path d="M15.33 19.947a.179.179 0 0 0 .173-.173.182.182 0 0 0-.172-.173.182.182 0 0 0-.173.173c0 .103.084.173.173.173zm0-.033a.14.14 0 0 1-.144-.145.14.14 0 0 1 .145-.144.14.14 0 0 1 .144.144.14.14 0 0 1-.144.145zm.043-.121c.032 0 .051-.019.051-.052a.085.085 0 0 0-.019-.051c-.009-.01-.032-.01-.051-.01h-.093v.183h.042v-.084h.042l.042.084h.042l-.056-.07zm-.07-.033v-.051h.042c.018 0 .042 0 .042.018 0 .019-.01.033-.033.033h-.051z" fill="#000"/></svg>