<svg width="36" height="36" fill="none" xmlns="http://www.w3.org/2000/svg"><path d="M18 0c2.837 0 5.52.656 7.907 1.825C31.884 4.753 36 10.895 36 18c0 9.942-8.058 18-18 18-9.94 0-18-8.057-18-18C0 8.06 8.06 0 18 0z" fill="#F2F4F7"/><path d="M7.708 17.38c0 .854-.508 1.778-1.848 1.778-.97 0-1.86-.53-1.86-1.779 0-1.027.67-1.825 1.987-1.755 1.409.08 1.72 1.143 1.72 1.755zM5.2 16.733c-.127.184-.173.415-.173.646 0 .52.266.994.832.994.554 0 .82-.439.82-.947 0-.37-.093-.647-.289-.82a.787.787 0 0 0-.6-.185c-.278.011-.451.104-.59.312zm11.552-.728c.103-.104.161-.185.346-.266a1.65 1.65 0 0 1 .635-.115c.208 0 .44.034.612.127.359.185.463.485.463 1.016v2.31H17.78v-1.905c0-.3-.011-.416-.046-.509-.08-.184-.254-.254-.462-.254-.531 0-.531.416-.531.844v1.825h-1.017v-3.373h1.029v.3zM15.239 18.2c-.092.196-.393.958-1.72.958-1.029 0-1.745-.612-1.745-1.72 0-.81.416-1.814 1.779-1.814.208 0 .797-.023 1.247.439.45.473.474 1.132.486 1.513h-2.484c0 .416.243.843.797.843s.75-.358.878-.589l.762.37zm-1.016-1.248c-.023-.139-.046-.335-.197-.474a.718.718 0 0 0-.496-.184.728.728 0 0 0-.52.22c-.139.15-.173.3-.208.45l1.42-.012zm15.19-.543h.67v-.693h-.67V15h-1.017v.705h-.162l-.462.693h.624v1.605c0 .324.012.566.15.763.22.312.6.335.959.335.185 0 .323-.023.531-.058v-.774l-.358.012c-.277 0-.277-.174-.265-.382v-1.49zM19.293 15h1.017v.705h1.051l-.462.693h-.6v1.501c-.012.208-.012.381.265.381l.358-.011v.774c-.219.035-.346.058-.53.058-.347 0-.74-.023-.96-.335-.138-.197-.15-.44-.15-.763V15h.012zm11.725 1.41h-.127v-.601h-.23v-.104h.577v.104h-.231v.6h.011zm.982 0h-.127v-.428l.011-.139-.034.116-.15.462h-.116l-.15-.462-.035-.116.012.139v.427h-.116v-.693h.174l.173.555.173-.555h.173v.693H32z" fill="#000"/><path d="m24.55 18.2-.197.288c-.185.254-.52.659-1.502.659-1.028 0-1.71-.613-1.71-1.721 0-.809.417-1.814 1.78-1.814.208 0 .797-.023 1.247.439.45.474.474 1.132.486 1.513H22.18c-.011.416.208.843.751.843.555 0 .716-.358.844-.589l.773.381zm-.948-1.248c-.023-.139-.046-.335-.196-.474a.718.718 0 0 0-.497-.184.728.728 0 0 0-.52.219c-.138.15-.173.3-.207.45l1.42-.011z" fill="#000"/><path d="m28.026 19.077-1.27-1.767 1.05-1.594h-1.154l-.497.75-.543-.75h-1.155l1.144 1.594-1.178 1.767h1.155l.612-.935.67.935h1.166zm-18.92-3.072c.092-.15.404-.381.9-.381.844 0 1.444.623 1.444 1.744 0 .693-.254 1.779-1.49 1.779-.439 0-.785-.243-.866-.382v1.41H8.078v-4.47h1.028v.3zm.693.393a.632.632 0 0 0-.52.254c-.15.173-.208.438-.208.739 0 .393.115.635.243.774a.64.64 0 0 0 .462.208c.496 0 .716-.509.716-1.005 0-.416-.127-.855-.543-.947-.058-.012-.104-.023-.15-.023z" fill="#000"/></svg>