<svg width="36" height="36" fill="none" xmlns="http://www.w3.org/2000/svg"><path d="M18 0c2.837 0 5.52.656 7.907 1.825C31.884 4.753 36 10.895 36 18c0 9.942-8.058 18-18 18-9.94 0-18-8.057-18-18C0 8.06 8.06 0 18 0z" fill="#F2F4F7"/><g fill-rule="evenodd" clip-rule="evenodd"><path d="M5.653 14.126c.031-.13.242-.177.311-.055.059.103.06.226.055.341.04.004.08.005.119.005.07-.088.075-.203.113-.305.026-.058.102-.126.164-.076.056.048.065.13.065.2l.009-.06c.022.125.059.248.072.375.004.22.018.451-.076.657-.037.09-.142.163-.24.123-.068-.023-.092-.1-.108-.162a1.334 1.334 0 0 1-.04-.331 1.59 1.59 0 0 0-.094-.014c-.006.124-.006.25-.039.37-.025.087-.112.155-.205.134-.084-.038-.123-.127-.147-.21-.089-.326-.04-.67.041-.992zm3.664-.014c.11-.091.264-.077.398-.078.245-.01.493.222.451.475-.007.109-.088.195-.178.247.08.13.188.26.19.42-.01.12-.154.166-.253.124-.128-.055-.217-.17-.304-.276-.003.1.008.21-.054.296-.05.068-.165.078-.221.013a.363.363 0 0 1-.097-.184c-.045-.204-.03-.415-.019-.622.024-.139-.016-.301.087-.415zm.265.283c.002.03-.01.066.006.094.029.069.156.037.143-.04-.014-.07-.095-.065-.149-.054zm-4.969-.318c.168-.057.347-.044.521-.038.123.018.254.052.342.146.049.051.06.13.035.194-.076.114-.215.16-.347.16-.047.194-.024.398-.077.591-.022.074-.069.17-.16.162-.066.006-.12-.039-.16-.084a.434.434 0 0 1-.103-.284 1.807 1.807 0 0 1 .023-.402c-.114.017-.236.066-.345.006-.08-.028-.113-.127-.077-.202.06-.141.212-.205.348-.249zm2.272.018c.077-.059.179-.036.268-.042.135.006.28-.018.401.055.06.031.1.101.083.17-.022.053-.076.086-.131.098-.12.03-.245.013-.367.01.002.033.003.067.008.1.102.025.23.035.29.135.048.07.001.17-.073.2-.082.046-.18.026-.269.032.007.036.005.083.049.096.136.012.278.011.407.06.11.04.134.22.029.279-.146.088-.325.093-.49.083-.13-.02-.266-.072-.342-.184a.399.399 0 0 1-.064-.178c-.012-.256-.015-.522.09-.761a.351.351 0 0 1 .11-.153zm3.565-.017c.106-.051.245.042.251.158.01.229 0 .459-.003.688-.01.115-.004.246-.083.34-.038.05-.11.087-.17.052-.1-.045-.142-.163-.14-.267 0-.263-.008-.528.023-.79a.214.214 0 0 1 .122-.18zm-1.895.018c.09-.014.166.042.246.073a.535.535 0 0 1 .283.238c.076.13.073.287.057.432a.537.537 0 0 1-.277.375c-.096.054-.212.04-.317.033a.582.582 0 0 1-.392-.28.69.69 0 0 1 .023-.596.524.524 0 0 1 .377-.275zm-.04.557c-.006.071.061.113.116.141.033-.023.08-.036.09-.08.01-.064-.037-.148-.11-.139-.049-.008-.103.023-.097.078zm3.435-.555c.089-.062.235.005.232.117.005.286.005.572-.005.857-.011.062-.023.144-.092.168-.144.047-.241-.13-.239-.253-.005-.227.011-.454.026-.681.01-.073.014-.158.078-.208zm.446.028c.163-.04.316.055.421.172.072.062.104.155.171.22.014-.122-.02-.257.06-.362.025-.052.089-.033.136-.037.064.078.09.177.112.273.039.196.037.396.034.594-.004.087-.013.184-.076.25-.037.042-.096.035-.145.03-.104-.035-.178-.12-.254-.194-.062-.06-.083-.148-.15-.203-.011.119.012.246-.047.355-.03.057-.107.058-.16.038a.29.29 0 0 1-.135-.255v-.646c0-.08 0-.161.033-.235zm-1.463.21c.111-.223.438-.289.632-.139.076.056.09.172.041.25-.08.095-.22.05-.324.087-.144.054-.143.304.014.34l.045-.026c-.032-.03-.077-.059-.062-.109-.002-.093.105-.13.183-.123a.255.255 0 0 1 .258.142c.032.17-.003.376-.16.474-.196.116-.469.04-.597-.142a.725.725 0 0 1-.03-.755zm2.624-.022c.04-.08.11-.147.199-.167a.49.49 0 0 1 .43.07c.17.126.23.341.261.54.007.119.01.237.004.356a.199.199 0 0 1-.109.17c-.062.008-.14.021-.185-.034-.1-.086-.104-.224-.123-.344a.792.792 0 0 0-.144.027c-.023.076-.04.154-.065.23-.032.09-.153.116-.224.057a.386.386 0 0 1-.13-.234 1.11 1.11 0 0 1 .086-.67zm.305.213c0 .042-.014.097.033.119.047.01.088-.01.122-.042-.006-.036.007-.08-.024-.108-.032-.045-.136-.037-.13.031zm.742-.314c.044-.098.174-.077.255-.044.09.029.142.122.135.213.011.115-.037.225-.026.34l.018.008c.126.05.271.011.39.088.085.06.106.203.021.272-.096.07-.218.087-.333.109-.12.012-.25.026-.365-.02-.072-.026-.113-.101-.126-.173a2.258 2.258 0 0 1-.003-.533c.004-.087.006-.177.034-.26zm10.264 1.946c.15.002.302-.01.452.003.038.066.067.136.096.205.188.401.402.79.586 1.192.053.107.125.204.168.315.018.046.051.084.076.126.063.108.099.23.163.338.04.07.094.137.099.221l.034-.003c.17-.411.359-.813.534-1.222.072-.174.157-.34.243-.508.6.003 1.201-.005 1.802.002-.188.408-.4.805-.6 1.206-.352.686-.707 1.37-1.06 2.054-.007.104 0 .208.012.31.005.292.008.583.01.875.008.146-.006.292.013.438.002.277.007.555.01.832-.006.123.02.244.011.366-.62-.002-1.242.001-1.863 0 0-.2-.002-.398-.01-.596-.033-.185-.002-.375-.033-.56-.011-.33-.033-.659-.051-.987-.035-.23-.013-.47-.081-.694-.13-.33-.271-.656-.41-.982-.176-.409-.35-.819-.53-1.226.041.004.083.008.125.01l-.068-.061-.065.028c-.179-.403-.36-.806-.541-1.207-.085-.135-.041-.3-.023-.448.12 0 .24-.002.36-.005.18-.026.36-.016.541-.022zm.695.659c-.01.035 0 .047.033.035.01-.035-.001-.047-.033-.035zm3.031.075c-.027.018 0 .071.03.047.023-.02-.001-.07-.03-.047zm-4.115.079c-.024.037-.04.079-.06.118l.12-.084c-.018-.014-.033-.039-.06-.034zm2.83.171.012.073.048.01c-.006-.037-.021-.07-.06-.082zm-1.65.309c0 .06-.044.098-.087.132l-.009.06a.225.225 0 0 1 .199-.057c-.023-.043-.047-.085-.063-.13l-.04-.005zm-1.029.04c-.027.02.005.065.032.045.028-.02-.005-.067-.032-.045zm2.513.124.005.05h.06l.003-.047c-.023 0-.045-.002-.068-.003zm.242.007-.027.04c.034.01.068.022.103.03a2.526 2.526 0 0 1-.006-.072l-.07.002zm.74.446c-.023.029.024.07.046.037.021-.03-.026-.071-.047-.037zm-1.133.081c.041.02.081.042.123.061-.005-.049-.047-.076-.08-.106a.237.237 0 0 1-.043.045zm-.89.01-.022.064.07.001c0-.023 0-.045.002-.068-.013 0-.037.003-.05.004zm.65.023c.017.025.034.05.053.073a.947.947 0 0 1 .012-.053l-.064-.02zm-.504.161c-.033.062.071.003 0 0zm1.165.062c.011.011.011.011 0 0zm-2.047.129.071-.004.01-.073a.242.242 0 0 0-.08.077zm.55.014c.002.07.06-.033 0 0zm.056-.007.006.06.06.004v-.065h-.066zm.046.098.002.04a.404.404 0 0 1 .134.047 2.707 2.707 0 0 1-.01-.089l-.126.002zm-1.061.055c.001.07.06-.033 0 0zm.48-.008v.062l.071.002a.457.457 0 0 0-.005-.052l-.067-.012zm.166.071c.012.012.012.012 0 0zm.14.14.017.015c.02.037.05.067.085.089l.04-.101.016-.018a.613.613 0 0 1-.055-.104c-.018.052-.063.085-.104.119zm.804.096a.145.145 0 0 0 .013.106c.085.005.053-.17-.013-.107zm-.115.02c-.034.02.004.07.034.046.032-.021-.005-.072-.034-.046zm-.792.067c.022.027.043.056.067.083.038 0 .075-.01.112-.019v-.05l-.057-.037a.752.752 0 0 1-.122.023zm.66.082c-.01.036-.022.07-.033.105.037-.012.075-.025.113-.033v-.07c-.027 0-.054 0-.08-.002zm-.42.488c-.02.025.022.051.04.027.02-.024-.025-.052-.04-.027zm.532.26c-.024.029.03.054.049.029.021-.03-.031-.053-.05-.03zm.104.066.053.061c.029-.039.052-.082.078-.123l-.025-.002-.106.064zm-.691-.045.006.066h.053l-.003-.056-.056-.01zm1.492.086c.03.017.061.033.093.048l.043-.052a.948.948 0 0 1-.021-.048 1.793 1.793 0 0 0-.114.052zm-1.692.302a4.682 4.682 0 0 0-.004.065l.048-.015v-.044l-.044-.006zm1.223.492.007.057.04-.003.008-.047a10.572 10.572 0 0 0-.055-.007zm-.494.233c-.024.03.026.068.047.035.024-.03-.026-.067-.047-.034zm.557.38c-.034.06.07.003 0 0zm-.473.694c.012.024.045.019.067.03a1.62 1.62 0 0 0-.015-.107c-.019.024-.055.042-.052.077zm.206.1.008.033a.31.31 0 0 1 .101.08l.028-.107c-.044.029-.093.01-.137-.007zm-6.115-5.887c.283.007.567-.009.849.008.148.032.3.021.45.023.14 0 .28-.002.42 0a.223.223 0 0 1 .1.022.115.115 0 0 1 .093-.02c.034.096.037.2.053.3.079.535.055 1.078.016 1.615 0 .038 0 .077-.003.116-.004.085-.021.168-.022.253-.005.369-.04.737-.036 1.105l-.008.292c-.03.214-.01.43-.014.646.025.195.01.396.058.589.195.044.395.024.593.028.566-.003 1.132.008 1.698-.01.029.205.035.413.044.62.03.252.015.506.017.759-1.464.011-2.928.007-4.392.006-.001-.179.002-.358 0-.537-.003-.132.021-.263.016-.395.002-.36.01-.721.011-1.082.003-.079 0-.157-.01-.235-.025.112-.044.225-.07.337a1.89 1.89 0 0 1-.114.338 2.435 2.435 0 0 1 .017-.414c.01-.127-.004-.255.02-.38.008-.146.007-.293.02-.438-.005-.099.041-.192.03-.29a2.37 2.37 0 0 1 .003-.376c.025-.11.009-.223.025-.333.048-.56.036-1.124.037-1.686.018-.132.012-.265.02-.397.029-.154.014-.318.079-.464zm.622.059a7.559 7.559 0 0 0-.005.05l.054-.002-.001-.053-.048.005zm.107.356.001.077a.152.152 0 0 1 .155.002.8.8 0 0 1-.079-.075l-.077-.004zm-.385.996c.023.028.045.057.07.084l-.02-.11a1.963 1.963 0 0 0-.05.026zm.465.194c.04.038.083.074.122.114-.01-.034-.03-.073-.005-.106.026-.015.053-.026.08-.039-.043.009-.09.015-.122.05-.017-.028-.056-.067-.075-.019zm.308.083c-.024.012-.018.062.013.055.022-.012.016-.062-.013-.055zm.619.117-.02.012a.349.349 0 0 1 .187.004c-.023-.024-.043-.05-.065-.074-.036.016-.069.038-.102.058zm-1.576.186c.012.01.012.01 0 0zm.806 0c-.031.022.008.07.037.047.034-.022-.008-.069-.037-.047zm-.104.101c.046.047.096.113.171.084a.791.791 0 0 0-.171-.084zm.576.145c.04.044.09.082.136.121-.03-.056-.056-.136-.136-.121zm.246.175c-.01.034.001.045.035.034.01-.034-.001-.045-.035-.034zm-.162.234c-.012.043.018.128.077.096.02-.047-.02-.127-.077-.096zm-.478.09c.003.03.008.061.013.09h.045a1.34 1.34 0 0 1-.002-.057l-.056-.032zm-1.025.442.003.045.04.003.006-.058-.049.01zm.77.026c.028.057.052.118.104.16a.622.622 0 0 1-.025-.153 2.45 2.45 0 0 1-.08-.007zm-.757.315v.064l.082-.01-.082-.054zm.564.219c-.027.015-.027.03 0 .045.025-.016.026-.031 0-.045zm-.408.188-.002.052c.04-.01.082-.02.122-.034-.038-.019-.08-.017-.12-.018zm-.093.5c-.033.062.07.002 0 0zm-.085.145c-.033.062.07.003 0 0zm1.912.469c.039-.002.09.01.093-.045-.036.005-.088-.005-.093.044zm1.377.286c.01.025.019.051.04.07.026-.016.035-.045.044-.072-.028 0-.056 0-.084.002zm-2.48.082.036.066.072-.008a.409.409 0 0 0-.107-.058zm-.439.377.056.003.022-.1a.306.306 0 0 0-.078.096zm3.378-.082c-.01.03 0 .04.03.03.008-.03-.002-.04-.03-.03zm-3.152.034c-.022.026.024.062.044.033.02-.027-.024-.06-.044-.034zm-.51.147c.015.027.023.064.051.082.03.003.06 0 .09 0-.036-.044-.08-.086-.142-.082zm2.67.299.001.035.072.025c.06-.04.13-.065.203-.072a.826.826 0 0 1-.048-.057l-.047.064a.176.176 0 0 1-.075-.099.173.173 0 0 1-.106.104zm-2.477-.105.005.061c.032 0 .063 0 .094-.003a.676.676 0 0 0-.1-.058zm9.06-5.196c.033-.295.008-.594.037-.89.205.01.41-.002.615.022.285.003.569.025.854.029.133.022.268.012.402.02.037.312.032.627.05.94.022.1.013.2.021.3.02.115.022.232.02.349 0 .142.068.291.017.43.06.075.032.172.05.26.018.247.072.492.052.742-.028.186-.043.374-.06.56h-.089l.004-.098-.093.087c.055.014.118.016.163.053 0 .17-.032.338-.034.509-.005.057-.01.114-.012.171h-.018c-.283.01-.565-.036-.848-.034-.14 0-.277-.028-.416-.025-.174.002-.346-.025-.52-.025-.095-.009-.194.008-.285-.023-.001-.25-.003-.503.02-.753.004-.453.025-.905.038-1.358.009-.248-.003-.498.026-.745 0-.174.004-.348.005-.521zm1.331-.284.055.1a1.95 1.95 0 0 1 .008-.08l-.063-.02zm-1.044.365c.04.04.027.098.03.15.021-.023.043-.046.063-.07-.028-.03-.063-.052-.093-.08zm.034.465c-.033.06.07.003 0 0zm.243.076-.013.037.056.004-.003-.055-.04.014zm-.385.16a1.23 1.23 0 0 0-.02.092.093.093 0 0 0 .077-.093l-.057.002zm1.457.18c.01.013.01.013 0 0zm-.994.315.008.09c.034-.016.066-.035.1-.053a1.284 1.284 0 0 1-.108-.037zm.858.317.059.054.002-.06a10.44 10.44 0 0 1-.06.006zm.572.441c-.022.012-.018.063.012.056.022-.011.017-.062-.012-.056zm-.474 1.15c.022.044.035.099.083.123.007-.06-.04-.093-.083-.123zm-.856.398c.137-.051.271.02.398.065.107.041.228.053.32.125.122.086.174.232.246.357.028.056.067.112.06.178 0 .174.003.35-.008.523-.036.139-.07.278-.105.418-.006.047-.056.063-.092.08-.203.076-.405.156-.618.194-.11.017-.218.064-.33.062a1.268 1.268 0 0 1-.364-.187c-.15-.121-.259-.281-.386-.424-.051-.049-.032-.123-.034-.186.01-.131-.024-.267.021-.394.03-.098.045-.199.071-.298.111-.11.245-.196.365-.298.13-.112.301-.15.456-.215zm.284.898c.041.08.134.06.209.07-.073-.017-.131-.073-.209-.07zm-.2.247c-.01.035.001.047.035.036.01-.035-.002-.047-.035-.036zm-.422.439-.024.05.032.042.09-.003a1.657 1.657 0 0 1-.098-.09zm-.243.062c-.024.03.026.069.047.035.024-.029-.026-.067-.047-.035z" fill="#000"/><path d="M14.986 14.73a.49.49 0 0 1 .39.088c-.119-.076-.264-.038-.39-.088zm-2.142 1.367c.126-.015.247.035.37.053.048.014.12.007.14.066.31.864.63 1.726.954 2.586.28.747.556 1.494.845 2.237.175.458.35.916.517 1.377.044.124.095.245.127.373-.328.012-.656-.002-.984.005-.409.02-.818.005-1.227.014a3.262 3.262 0 0 1-.313.012c-.157-.004-.315.01-.471-.006 0-.187.004-.375-.006-.562-.009-.146.009-.292-.003-.438-.003-.06-.043-.106-.074-.152-.061-.084-.095-.183-.151-.27-.049.077-.034.17-.035.256.005.187-.01.376.015.562.01.167.002.334.006.5-.004.04.006.12-.056.114-.234.01-.47-.012-.704.02-.589.01-1.179-.005-1.768.015-.268-.008-.536.017-.804-.002-.077-.006-.157.021-.23-.008a.411.411 0 0 1 .061-.363c.133-.178.234-.376.352-.564.434-.724.88-1.44 1.313-2.163.412-.686.82-1.375 1.225-2.065.296-.488.55-1 .832-1.498.02-.035.04-.07.07-.1zm-.565 1.287.001.054.092-.001v-.052l-.093-.001zm.223 1.782c-.007.154-.042.309-.003.46.021.11.107.187.184.26a.838.838 0 0 0 .307.185c.003-.103-.015-.205-.021-.308a.772.772 0 0 0 .265.027.897.897 0 0 0-.732-.624zm-.6.861a.813.813 0 0 0-.254.305c.101.024.205.034.31.028a.626.626 0 0 0-.117.37c.238-.005.458-.146.599-.333.095-.121.096-.284.1-.431.008-.056-.063-.042-.098-.05-.183-.002-.39-.01-.54.111zm2.352.152.084.076.085-.071-.169-.005zm-1.609.005a.741.741 0 0 0 .184.618c.155.138.373.19.576.186a.595.595 0 0 0-.2-.32c.134-.012.28.03.404-.037-.074-.08-.138-.171-.226-.238a1.192 1.192 0 0 0-.738-.209zm-.386.58c-.196.023-.396.11-.51.276-.08.125-.146.271-.123.423.139-.02.266-.085.392-.145-.002.103.007.206.02.308.127-.043.245-.115.351-.197.155-.147.191-.37.242-.57.02-.053-.019-.11-.068-.13-.103-.006-.203.024-.305.035zm.477.198c-.019.11-.046.22-.03.332.027.155.085.316.212.418a.9.9 0 0 0 .522.208c-.016-.134-.084-.253-.15-.368.13.027.265.032.398.013a1.374 1.374 0 0 0-.184-.23c-.077-.077-.148-.165-.25-.208a2.147 2.147 0 0 0-.518-.165zm-1.27.793a.347.347 0 0 1 .033.053c.04-.017.08-.032.12-.047l.004-.049a.38.38 0 0 0-.157.043zm-5.492-5.494c.383-.09.78-.117 1.173-.095.237.023.47.076.702.125.09.018.171.057.25.102.187.105.408.129.591.241.192.118.38.243.563.375.092.067.136.175.183.274.092.188.172.382.262.57a.927.927 0 0 1 .09.34c-.033-.005-.065-.01-.097-.013l.026.04c.029 0 .057-.001.085.007.102.425.17.86.17 1.299.002.117.033.233.014.351-.024.154 0 .313-.041.465-.096.363-.316.673-.5.996-.06.104-.17.162-.254.245-.355.328-.774.574-1.199.8-.15.072-.317.097-.48.128-.079.014-.156.049-.238.04-.25-.03-.502-.03-.751-.065-.649-.137-1.235-.498-1.694-.97a2.486 2.486 0 0 1-.518-.754c-.195-.47-.322-.976-.31-1.487a4.57 4.57 0 0 1 .283-1.392c.069-.198.152-.392.26-.572.09-.157.197-.303.294-.455a.586.586 0 0 1 .232-.207c.288-.155.583-.31.904-.388zm1.323 1.178a.274.274 0 0 0 .01.143l.03-.002c.044-.048 0-.109-.04-.141zm.76.005a.467.467 0 0 0 .067.145l.074-.038a8.76 8.76 0 0 1 .02-.07c-.058.013-.113-.01-.162-.037zm.334.165-.028.082c.05.013.099.026.149.037a.403.403 0 0 0-.121-.12zm-3.421.596.074.004-.03-.126c-.037.03-.041.078-.044.122zm4.348-.022c.083.06.18.097.284.087l.002-.065c-.096-.001-.19-.034-.286-.022zm-.133.422-.094.143h.076c.022-.035.05-.067.06-.108a.947.947 0 0 0-.042-.035zm.201.03.001.05h.05v-.05h-.05zm-.654.223c.031-.01.063-.018.092-.033.013-.032.021-.065.03-.098-.062.02-.11.064-.122.13zm-.099-.087c0 .045.002.09.005.135l.048-.037c-.008-.037-.033-.067-.053-.098zm.67.071v.072h.052l-.008-.061-.044-.01zm-.019.3c.031.04.05.087.057.137a.37.37 0 0 0 .059-.187l-.116.05zm9.984-2.838c.227-.002.453-.04.68-.028-.003.278 0 .556.001.834-.001.176.031.351.016.527a.562.562 0 0 1-.088-.12l-.04-.007c.035.34.023.681.02 1.021-.188.021-.378.015-.567.033-.222.023-.447-.003-.668.026-.122.013-.244.005-.365.01-.003.136.028.27.021.406 0 .059-.033.11-.06.159.032.036.07.076.06.13-.04.318-.006.64-.026.959-.014.118.016.236.002.354-.029.22-.013.443-.018.665.005.264-.015.529.018.79.023.264-.023.524-.025.787-.582 0-1.165-.005-1.748 0-.018-.15-.008-.302-.01-.453.002-.207-.005-.416.003-.624.022-.262.005-.525.019-.787.026-.188.01-.378.03-.566.024-.486.03-.973.013-1.458-.009-.177-.025-.353-.027-.53-.67 0-1.34-.025-2.009-.036-.033-.427-.021-.857-.031-1.285-.026-.23-.019-.46-.015-.69.156-.011.312.002.468-.018.143-.02.288-.003.432-.013.229-.024.46-.022.689-.039.208.006.415-.03.623-.023.201.001.403-.003.604 0 .111.002.221-.021.333-.02.555 0 1.11.001 1.665-.004zm-1.495.125.008.085.047.007c.007-.03.015-.062.024-.092h-.079zm.103-.002.046.072.05.002v-.07l-.096-.004zm-1.498 1.249c.016-.018.033-.036.047-.056-.017-.029-.038-.054-.058-.08-.028.046-.023.094.011.136zm5-1.336c.128-.028.259-.012.389-.015.213-.002.426.003.64.005.046-.003.063.05.073.085.03.156.034.316.065.472.008.227.04.454.03.682-.001.139-.024.276-.025.415-.003.1.004.203-.04.296.04-.537.063-1.08-.016-1.614-.016-.101-.02-.205-.053-.301a.115.115 0 0 0-.092.02.223.223 0 0 0-.101-.022c-.14-.002-.28 0-.42 0-.15-.002-.302.01-.45-.023zm-.227.05.048-.004v.053l-.053.002.005-.05zm.107.357.077.004a.779.779 0 0 0 .08.075.152.152 0 0 0-.156-.002l-.001-.077zm4.305.07c.032-.01.043.001.033.036-.033.012-.044 0-.033-.035zm3.031.076c.029-.023.053.028.03.047-.03.024-.057-.029-.03-.047zm2.615.037.063.02a1.954 1.954 0 0 0-.008.08l-.055-.1zm-6.73.042c.027-.005.042.02.06.035l-.12.083c.02-.04.036-.08.06-.118zm2.83.171c.039.013.054.046.06.083l-.048-.01a1.891 1.891 0 0 1-.012-.073zm2.856.152c.03.028.065.05.094.08-.02.025-.043.047-.064.07-.003-.051.01-.11-.03-.15zm-4.506.157.04.004c.016.046.04.088.063.13a.226.226 0 0 0-.199.058l.01-.06c.042-.034.087-.072.086-.132zm-1.029.04c.027-.022.06.025.032.045-.027.02-.06-.026-.032-.045zm2.513.124.068.003-.002.047h-.061l-.005-.05zm.242.007.07-.002.006.073c-.035-.009-.069-.02-.103-.03l.027-.041zm-6.512.12a.597.597 0 0 1 .05-.026l.02.11c-.025-.027-.047-.056-.07-.084zm9.326.017c.07.003-.033.06 0 0zm.244.076.04-.014.002.055-.056-.004.014-.037zm-9.105.101c.019-.048.058-.01.075.019.031-.035.079-.041.122-.05-.027.013-.054.025-.08.04-.025.032-.005.07.005.105-.039-.04-.082-.075-.122-.114zm8.72.06.056-.002a.093.093 0 0 1-.076.093.988.988 0 0 1 .02-.091zm-8.412.023c.03-.007.035.043.013.055-.03.007-.037-.043-.013-.055zm.619.117c.033-.02.066-.042.102-.058.021.024.042.05.065.074a.343.343 0 0 0-.186-.004l.019-.012zm5.86-.068c.02-.034.067.008.046.037-.022.032-.07-.008-.047-.037zm-1.133.081a.237.237 0 0 0 .043-.045c.033.03.075.057.08.106-.042-.019-.082-.042-.123-.06zm-.89.01.05-.003a1.93 1.93 0 0 0-.003.068l-.069-.001.023-.063zm.65.023.065.02a.888.888 0 0 0-.012.054 1.155 1.155 0 0 1-.052-.074zm4.762-.006c.01.012.01.012 0 0zm-10.825.146c.012.01.012.01 0 0zm.806 0c.029-.022.07.025.037.047-.029.024-.068-.025-.037-.047zm4.753.021c.071.003-.033.062 0 0zm-3.763.305c0-.085.018-.168.023-.253.033.203-.031.404-.015.607 0 .174-.006.347-.01.52-.034.242-.01.486-.025.73.002.337-.022.679.04 1.014.125.007.247.037.372.036.43-.003.86 0 1.291-.001.208-.021.418-.034.627-.03.023.06.035.123.032.187-.007.183.041.362.027.544-.013.153.024.304.018.457-.003.069.01.143-.02.208-.022.045-.078.042-.121.044-1.435-.004-2.87.003-4.305-.004-.012-.18.031-.359.023-.54-.022-.47.007-.94 0-1.41l-.05.014c.026-.112.045-.225.07-.336.01.077.014.156.01.234-.002.36-.009.721-.011 1.082.006.132-.02.263-.016.395.002.18-.001.358 0 .537 1.464 0 2.928.005 4.392-.006-.002-.253.013-.507-.017-.758-.009-.207-.015-.416-.044-.622-.566.02-1.132.008-1.698.011-.198-.004-.398.016-.593-.028-.048-.193-.033-.393-.058-.59.004-.214-.015-.431.014-.645l.008-.291c-.004-.37.03-.737.036-1.106zm4.928-.243c.011.011.011.011 0 0zm-6.022.018a.78.78 0 0 1 .171.085c-.075.028-.125-.038-.171-.085zm3.976.11a.243.243 0 0 1 .08-.076l-.01.073-.07.004zm4.456.158c.005-.07-.004-.144.023-.212-.013.453-.034.905-.038 1.358-.023.25-.021.502-.02.753.09.031.19.014.285.023.174 0 .346.027.52.025.14-.003.277.025.416.025.283-.002.565.043.848.035l.001.031c-.137-.004-.274-.027-.412-.021-.216.008-.428-.047-.644-.037-.154.008-.304-.034-.458-.024-.198.01-.394-.02-.59-.037a2.078 2.078 0 0 1 .02-.348c.021-.127.003-.256.006-.385a3.75 3.75 0 0 1 .022-.477c.014-.111 0-.223.002-.334 0-.126.01-.25.02-.375zm.697-.201c.035.014.07.026.107.037-.033.018-.065.037-.099.053l-.008-.09zm-4.605.058c.061-.033.003.07 0 0zm.057-.007h.067v.064l-.061-.004-.006-.06zm-4.005.027c.08-.015.106.065.136.121-.046-.04-.095-.076-.136-.121zm4.051.071.125-.002.012.09a.4.4 0 0 0-.135-.048l-.002-.04zm-1.061.055c.06-.033.001.07 0 0zm.48-.008.066.012.005.052-.07-.002-.002-.062zm-3.224.057c.034-.011.046 0 .035.034-.034.011-.045 0-.035-.034zm3.39.015c.012.012.012.012 0 0zm5.775.05.06-.006-.001.06a1.785 1.785 0 0 1-.059-.055zm-5.552.153.058-.061-.039.1a.225.225 0 0 1-.085-.088c.022.016.044.032.066.05zm.721.032c.066-.064.098.111.013.107a.145.145 0 0 1-.013-.107zm-.115.02c.03-.026.066.025.034.046-.03.025-.068-.025-.034-.046zm-4.86.055c.02.01.038.02.057.032 0 .018 0 .037.002.056l-.045.002a1.46 1.46 0 0 1-.013-.09zm4.727.094.082.001v.071c-.04.008-.077.021-.114.034.011-.035.023-.07.032-.106zm5.651.086c.03-.006.034.045.012.057-.03.006-.034-.045-.012-.057zm-.014.728c.017-.187.032-.375.06-.56.009.243-.045.483-.057.726-.02.127-.006.26-.052.384.002-.17.035-.339.034-.509-.045-.037-.108-.039-.163-.053l.093-.087-.004.098h.09zm-11.388-.467.05-.01-.007.058-.04-.003-.003-.045zm.77.026.079.007a.62.62 0 0 0 .025.152c-.052-.04-.076-.102-.104-.159zm4.561.115c.016-.025.06.003.04.028-.017.023-.06-.003-.04-.028zm-5.318.2.082.053a7.728 7.728 0 0 0-.082.012v-.065zm5.85.06c.019-.024.071 0 .05.029-.02.025-.073 0-.05-.03zm.105.066.106-.064.026.003c-.027.04-.05.083-.08.122l-.052-.061zm-.691-.045.056.01.003.056h-.053a2.942 2.942 0 0 1-.006-.066zm-4.7.138c.026.014.025.03 0 .045-.027-.015-.027-.03 0-.045zm-.408.188c.04.002.082 0 .12.018-.04.014-.082.023-.122.034l.002-.052zm4.908.062.043.006.001.044a4.7 4.7 0 0 0-.048.015l.004-.065zm5.851.079c.044.03.09.063.083.123-.048-.024-.061-.078-.083-.123zm-10.852.359c.07.002-.033.062 0 0zm6.224.054.055.007-.007.047-.04.003c-.003-.014-.006-.043-.008-.057zm-6.309.091c.07.003-.033.062 0 0zm5.815.143c.021-.033.072.004.047.034-.021.033-.071-.005-.047-.034zm-3.902.326c.004-.05.056-.04.092-.045-.003.055-.054.043-.092.045zm4.459.053c.07.003-.034.06 0 0zm-3.083.233.085-.002c-.01.027-.019.056-.045.072-.021-.019-.03-.045-.04-.07zm7.076.037c.078-.003.136.053.209.07-.075-.01-.168.01-.209-.07zm-9.555.045a.409.409 0 0 1 .107.058l-.072.008a1.993 1.993 0 0 1-.035-.066zm9.355.202c.034-.01.045.001.035.036-.034.01-.045-.001-.035-.036zm-9.795.175a.306.306 0 0 1 .078-.098l-.022.101-.056-.003zm3.378-.082c.029-.01.038 0 .03.03-.03.01-.04 0-.03-.03zm-3.152.034c.02-.028.065.006.044.033-.02.03-.066-.007-.044-.034zm-.51.147c.061-.005.105.038.142.082-.03 0-.06.003-.09 0-.029-.018-.037-.055-.053-.082zm6.02.002c.043.017.093.036.136.007-.01.035-.02.07-.028.106a.307.307 0 0 0-.101-.08l-.008-.033zm-3.35.297a.172.172 0 0 0 .106-.103.177.177 0 0 0 .075.098l.047-.064c.015.02.03.039.048.057a.437.437 0 0 0-.203.072l-.072-.025-.001-.035zm-2.477-.105a.691.691 0 0 1 .1.058 1.74 1.74 0 0 1-.095.003c0-.015-.004-.046-.005-.061zm9.221.033c.021-.032.07.006.047.036-.021.033-.07-.006-.047-.036z" fill="#A1C9D6"/></g></svg>