<svg width="36" height="36" fill="none" xmlns="http://www.w3.org/2000/svg"><path d="M18 0c2.837 0 5.52.656 7.907 1.825C31.884 4.753 36 10.895 36 18c0 9.942-8.058 18-18 18-9.94 0-18-8.057-18-18C0 8.06 8.06 0 18 0z" fill="#F2F4F7"/><g fill="#152D6D"><path d="M30.793 17.43H32v3.692c0 1.774-1.207 2.401-2.4 2.401-1.194 0-2.4-.627-2.4-2.4v-2.998c-.37.099-.777.121-1.115.084.3.446.326.946.326 1.108 0 .313-.094 1.887-2.085 1.887H23.6v2.186h-1.207v-5.96h1.933a3.113 3.113 0 0 1-1.03-2.317 3.113 3.113 0 1 1 5.11 2.388v3.621c0 .954.6 1.291 1.194 1.291.592 0 1.193-.337 1.193-1.29V17.43zm-4.384-.314a2.004 2.004 0 1 0 0-4.007 2.004 2.004 0 0 0 0 4.007zm-2.083 3.032c.877 0 .919-.693.919-.831 0-.137-.042-.83-.919-.83H23.6v1.66h.726M9.59 17.116a2.003 2.003 0 1 0 .001-4.006 2.003 2.003 0 0 0 0 4.006zm0-5.116a3.113 3.113 0 0 1 .623 6.164v2.958c0 .954.6 1.291 1.193 1.291.593 0 1.194-.337 1.194-1.29V17.43h1.207v3.692c0 1.774-1.207 2.401-2.4 2.401-1.194 0-2.401-.627-2.401-2.4V18.17a3.094 3.094 0 0 1-.591-.175L6.423 20.41l2.545 2.98H7.39l-2.182-2.695v2.695H4v-5.96h1.207v2.695l2.235-2.76A3.113 3.113 0 0 1 9.59 12z"/><path d="M17.363 12.133h1.208v3.692c0 1.469-.828 2.151-1.79 2.343l1.268 2.986 1.582-3.724h.943v-4.24h-1.319v-1.057H23.1v1.057h-1.319v4.903h-1.155l.935 5.297h-1.218l-.564-3.564-1.513 3.564h-.433l-1.513-3.564-.564 3.564h-1.218l.926-5.243c-.92-.217-1.694-.902-1.694-2.322v-3.692h1.207v3.692c0 .954.6 1.291 1.194 1.291.593 0 1.192-.337 1.192-1.291v-3.692"/></g></svg>