<svg width="36" height="36" fill="none" xmlns="http://www.w3.org/2000/svg"><path d="M18 0c2.837 0 5.52.656 7.907 1.825C31.884 4.753 36 10.895 36 18c0 9.942-8.058 18-18 18-9.94 0-18-8.057-18-18C0 8.06 8.06 0 18 0z" fill="#F2F4F7"/><path d="M4 13h9.53v9.53H4V13zm8.54 8.54v-7.55H4.99v7.548h7.548zm-6.691-6.081v2.878c0 1.315.724 2.097 1.944 2.097 1.258 0 1.982-.782 1.982-2.097v-2.878h-.99v2.878c0 .743-.325 1.163-.973 1.163-.686 0-.991-.439-.991-1.163v-2.878h-.972zm5.203.59c.344 0 .61-.247.61-.59 0-.362-.247-.61-.61-.61a.59.59 0 0 0-.61.61c0 .343.267.59.61.59zm-.495.458v3.87h.991v-3.87h-.991zm5.909 2.287c1.067 0 1.772-.629 1.772-1.677 0-1.01-.686-1.658-1.772-1.658h-1.868v4.936h.99v-1.581h.878v-.02zm-.115-.781h-.781v-1.754h.781c.572 0 .877.324.877.858 0 .572-.305.896-.877.896zm2.211.438c0 1.163.744 1.983 1.792 1.983.629 0 1.03-.23 1.258-.591v.552h.991v-3.888h-.991v.61c-.248-.4-.648-.648-1.258-.648-1.067 0-1.792.839-1.792 1.982zm3.05 0c0 .667-.42 1.106-1.03 1.106-.666 0-1.01-.477-1.01-1.106 0-.686.382-1.124 1.01-1.124.63 0 1.03.457 1.03 1.124zm3.469 1.087c-.381 0-.476-.172-.476-.515v-1.677h.857v-.839h-.857V15.44h-.992v1.067h-.457v.839h.457v1.677c0 .915.4 1.353 1.354 1.353h.514v-.838h-.4zm1.925-2.478v-1.83h-.991v5.165h.991v-2.058c0-.667.343-1.067.934-1.067.572 0 .877.38.877.972v2.134h.991v-2.23c0-1.01-.724-1.677-1.64-1.677-.571 0-.933.21-1.162.59zm2.726-1.849v.152h.324v.992h.19v-.992h.305v-.152h-.82zm2.058 0-.4.915-.381-.915h-.229v1.144h.172v-.877l.38.877h.134l.362-.877v.877H32V15.21h-.21z" fill="#FA4616"/></svg>