<svg height="36" viewBox="0 0 36 36" width="36" xmlns="http://www.w3.org/2000/svg"><mask id="a" fill="#fff"><path d="M2.344 0C.71.076-.155 1.126.023 1.567l1.105 1.819c.564.928 1.452.949 1.745.949h3.062L2.364 0z" fill-rule="evenodd"/></mask><mask id="b" fill="#fff"><path d="M0 .1h1v.8H0z" fill-rule="evenodd"/></mask><mask id="c" fill="#fff"><path d="M0 .1h1v.8H0z" fill-rule="evenodd"/></mask><mask id="d" fill="#fff"><path d="M.09 0h.82v1H.09z" fill-rule="evenodd"/></mask><mask id="e" fill="#fff"><path d="M0 .101h1v.798H0z" fill-rule="evenodd"/></mask><mask id="f" fill="#fff"><path d="M.09 6.689h28V.101h-28z" fill-rule="evenodd"/></mask><g fill="none" fill-rule="evenodd"><path d="M18 0c2.837 0 5.52.656 7.907 1.825C31.884 4.753 36 10.895 36 18c0 9.942-8.058 18-18 18-9.94 0-18-8.057-18-18C0 8.06 8.06 0 18 0z" fill="#f2f4f7" fill-rule="nonzero"/><path d="M2.344 0C.71.076-.155 1.126.023 1.567l1.105 1.819c.564.928 1.452.949 1.745.949h3.062L2.364 0z" mask="url(#a)" transform="translate(15 16)"/><path d="M10.4 21.047a.38.38 0 0 1-.358.339h-1.49c-.003-.007.002-.012.006-.017l.092-.105.132-.151.104-.118.13-.148.105-.118.131-.15.104-.119.107-.122c.035-.039.07-.078.103-.117l.11-.125c.035-.039.07-.078.103-.117l.11-.124.103-.119.108-.122a5.9 5.9 0 0 1 .104-.119l.107-.122.074-.085c.004-.004.01-.009.016-.006v1.729c-.003.007 0 .014-.002.02v.016" fill="#00603e"/><path d="M8.06 21.386h-.471c-.005-.01.003-.016.008-.021l.154-.175.15-.172.153-.173c.05-.06.103-.117.154-.176l.13-.147.15-.172.132-.15.129-.146.105-.12c.042-.05.086-.098.129-.148l.103-.117.133-.15.103-.117.108-.124.105-.12a6.22 6.22 0 0 1 .107-.121l.104-.12.108-.121.104-.12.108-.122.132-.15.129-.146c.02-.024.04-.05.063-.072.004-.003.006-.01.013-.006v.542l-.22.25c-.063.07-.125.143-.188.215l-.2.227-.151.172-.155.177-.13.146-.15.172-.131.15-.152.173-.128.145-.132.15-.128.147-.13.146-.104.12-.13.147c-.035.04-.071.08-.106.122l-.006.005" fill="#006e3e"/><path d="M10.402 18.18a.107.107 0 0 0-.026.026l-.03.036c-.02.023-.042.044-.062.068-.018.02-.035.043-.054.063l-.034.038-.06.069-.026.029c-.019.023-.04.045-.06.067l-.055.065-.028.03c-.019.024-.039.044-.058.067-.028.03-.054.062-.08.092l-.06.067c-.019.02-.038.044-.056.065a.695.695 0 0 0-.026.03l-.06.067c-.019.02-.037.043-.056.064-.009.01-.019.02-.028.032-.018.022-.039.043-.058.065l-.08.093-.06.067-.056.065-.027.029-.06.068c-.019.02-.036.042-.055.064l-.028.03-.058.066-.08.094-.06.067c-.019.02-.038.043-.057.065l-.025.028-.06.069c-.02.02-.037.043-.056.063l-.028.03c-.019.025-.039.045-.058.068a3.86 3.86 0 0 0-.08.093l-.062.067c-.018.022-.036.044-.056.065-.01.01-.02.023-.03.035-.02.024-.044.047-.064.073-.007.01-.017.018-.025.027-.019.024-.04.046-.06.069-.019.02-.037.043-.055.063a.406.406 0 0 1-.027.03c-.027.033-.056.064-.084.095l-.07.08c-.028.03-.055.064-.08.094-.02.02-.04.043-.059.064-.026.032-.055.062-.082.094a.31.31 0 0 1-.029.033c-.02.026-.044.049-.065.075a5.872 5.872 0 0 1-.025.028c-.019.023-.04.045-.06.067-.01.014-.024.026-.034.04a.019.019 0 0 0-.002.008h-.344a.266.266 0 0 1-.084-.011c-.009-.007-.002-.012.002-.016l.08-.09c.042-.05.086-.1.13-.15l.126-.142.131-.15.108-.124.102-.114c.036-.042.072-.084.11-.125.034-.04.067-.08.102-.118l.11-.123a3.71 3.71 0 0 1 .102-.117l.108-.124c.035-.04.07-.078.103-.117l.053-.06.042-.014a.382.382 0 0 0 .23-.215c.001-.003.001-.007.005-.01.002-.002.002-.005.003-.007v-.002c.002-.002.002-.005.003-.008l.201-.23c.06-.067.12-.133.178-.201l.174-.198.155-.176.151-.172.13-.147c.043-.05.084-.1.127-.147l.132-.15.151-.172.128-.145.045-.051c.005-.006.01-.015.02-.01z" fill="#00743d"/><path d="M8.06 21.386c.005-.012.014-.02.02-.027l.062-.07.054-.062.025-.028.06-.068.055-.064.029-.032c.018-.022.038-.043.057-.064.027-.031.054-.064.082-.094a.975.975 0 0 1 .029-.033c.02-.025.044-.05.065-.074.008-.011.017-.02.026-.03.027-.032.056-.063.084-.094l.08-.094.058-.063.082-.095.058-.066.058-.067a.221.221 0 0 1 .025-.027c.019-.024.04-.046.06-.07l.056-.063.028-.031c.018-.022.038-.042.057-.064l.082-.095.058-.065.058-.067a.645.645 0 0 0 .025-.03l.06-.066.055-.065.029-.031c.018-.022.039-.043.058-.065l.08-.093.059-.065.058-.068.025-.028c.019-.024.04-.045.06-.068l.055-.064.029-.031c.018-.023.039-.044.058-.066l.08-.093c.02-.022.04-.043.059-.066l.058-.067.026-.03c.016-.017.033-.035.048-.054.003-.004.006-.007.012-.007v.56a.04.04 0 0 0-.018.016c-.007.01-.016.019-.025.028a1.251 1.251 0 0 1-.035.04l-.057.066-.027.03c-.03.03-.056.064-.084.096a3.86 3.86 0 0 0-.152.173l-.058.065-.058.068c-.011.01-.02.022-.031.034l-.064.073-.025.029c-.03.032-.056.064-.084.095-.027.028-.051.06-.078.089-.021.022-.04.046-.06.068a.886.886 0 0 0-.056.066.216.216 0 0 0-.03.03c-.017.023-.038.044-.057.066-.018.023-.04.043-.057.066-.018.022-.038.043-.057.064-.02.024-.041.045-.06.07-.007.009-.017.017-.024.027l-.061.068c-.02.02-.036.042-.055.064l-.027.03-.084.095-.071.08c-.027.03-.053.062-.08.094a.896.896 0 0 0-.058.065l-.06.067c-.017.022-.037.04-.055.063l-.061.07a.44.44 0 0 1-.03.032.071.071 0 0 0-.01.017h-.479z" fill="#00673e"/><path d="M10.402 17.75c-.01.001-.016.01-.02.017-.01.014-.025.026-.036.04-.018.022-.038.043-.057.064-.028.031-.054.064-.082.094l-.03.034-.065.073c-.007.011-.017.02-.025.03l-.084.094a7.862 7.862 0 0 1-.08.094c-.02.022-.04.042-.058.064l-.082.094-.03.034c-.02.024-.044.048-.064.073l-.027.031-.06.067c-.033.035-.063.073-.095.108-.026.03-.05.06-.077.09l-.06.067c-.02.021-.038.044-.057.065l-.028.032-.058.065-.057.066c-.019.022-.039.042-.058.065-.019.022-.04.044-.059.068-.008.011-.018.021-.027.031l-.06.067c-.027.03-.05.06-.078.09a2.435 2.435 0 0 0-.069.08c-.003.002-.006.003-.009.002a.778.778 0 0 0 .017-.08c.002-.003.001-.007.001-.01v-.476c0-.005.002-.008.006-.012.048-.05.093-.105.14-.158l.127-.145.13-.147.108-.124.101-.115c.036-.04.072-.083.11-.124l.102-.118.11-.123.102-.117c.037-.04.072-.083.108-.124l.104-.117.106-.12.105-.122.1-.113c.004-.005.008-.01.015-.006z" fill="#007a3d"/><path d="M10.402 17.198c-.006 0-.009.004-.012.008-.026.03-.05.06-.076.088l-.034.038-.059.068-.027.03c-.029.031-.055.064-.084.095-.024.027-.048.053-.07.08a1.966 1.966 0 0 1-.074.083l-.068.078a2.946 2.946 0 0 1-.072.081l-.07.082a1.335 1.335 0 0 0-.07.08l-.072.08-.07.082c-.033.035-.064.072-.096.107-.026.03-.05.06-.077.09l-.06.067-.055.064-.029.031c-.018.022-.038.043-.057.064l-.08.095a.695.695 0 0 0-.027.03l-.084.093a2.005 2.005 0 0 1-.072.082l-.054.063c-.006.008-.012.016-.022.018-.005-.005-.002-.01-.002-.016v-.47c-.002-.009.003-.015.008-.02.027-.034.057-.065.085-.098l.132-.15.127-.145.13-.148.131-.149.127-.144.106-.122c.044-.05.09-.1.132-.15l.105-.119.13-.148.104-.119.13-.147.103-.118c.005-.006.011-.016.023-.009z" fill="#00813d"/><path d="M4.405 18.856v-.226c.076-.082.148-.168.223-.252.06-.067.12-.134.178-.202l.174-.198c.051-.06.102-.116.154-.175l.151-.173c.043-.05.087-.1.131-.148l.102-.117.108-.122.103-.117.108-.124.104-.118.11-.125.101-.116.11-.124c.035-.04.068-.08.103-.118l.106-.121.105-.12.11-.123.102-.118.11-.125.103-.118.107-.121.105-.12c.011-.013.024-.025.036-.04h.198c.003.008-.002.013-.006.018l-.169.192-.174.198-.13.149c-.052.057-.102.115-.152.173l-.127.144-.108.122-.103.118-.109.124-.102.117-.11.125-.13.149-.13.146-.104.12c-.044.049-.088.098-.13.148l-.105.118-.132.15-.104.119-.13.148-.107.122c-.035.038-.068.077-.102.116-.037.04-.073.083-.11.125l-.103.118-.109.123-.103.118c-.037.04-.072.083-.11.124-.009.01-.017.022-.028.03-.004.005-.008.01-.015.007" fill="#75b54a"/><path d="M4.405 18.428v-.261c.075-.082.147-.167.221-.25l.2-.227c.058-.066.116-.132.173-.2l.156-.174.151-.173.131-.15c.051-.056.101-.114.151-.171l.128-.146c.043-.05.086-.1.13-.147l.108-.123.1-.116.11-.124.103-.118.11-.123a3.71 3.71 0 0 1 .102-.117c.036-.041.072-.083.11-.124a3.71 3.71 0 0 1 .102-.117l.11-.125.04-.046h.228c.005.007 0 .01-.005.014-.046.055-.094.108-.14.162-.05.057-.1.115-.152.17l-.13.15-.13.147a8.905 8.905 0 0 1-.128.146l-.129.148-.132.15-.102.116-.105.119-.105.12c-.037.04-.073.083-.11.125l-.103.117-.106.12-.106.122-.108.123-.103.118c-.037.04-.073.083-.11.124l-.105.12-.108.122-.127.145a6.22 6.22 0 0 1-.107.122l-.13.148c-.022.025-.043.052-.067.075-.005.004-.008.01-.016.009" fill="#80b94b"/><path d="M4.405 18.856a.053.053 0 0 0 .026-.023c.011-.014.024-.027.036-.04.028-.032.055-.064.084-.095l.067-.077.08-.093.061-.068c.02-.021.037-.042.055-.064l.025-.027.06-.068.055-.064.03-.033c.018-.023.04-.043.058-.066.02-.021.038-.044.057-.066s.04-.042.057-.065c.02-.022.041-.044.06-.068.008-.011.018-.02.027-.03l.06-.068c.032-.036.063-.073.096-.108l.067-.077c.027-.03.053-.063.081-.093l.06-.068c.02-.021.037-.042.055-.064l.025-.028.06-.068c.02-.021.037-.043.056-.065l.03-.031c.017-.023.038-.044.057-.066l.057-.066c.02-.022.04-.043.057-.064.02-.024.041-.045.06-.07l.027-.03.06-.067a9.06 9.06 0 0 0 .094-.108c.027-.028.052-.06.077-.09l.062-.067.055-.065.03-.032c.017-.022.038-.043.057-.065l.057-.067c.02-.021.04-.042.057-.063.02-.024.041-.045.06-.07l.027-.03.06-.067c.032-.035.062-.072.095-.108l.077-.09.06-.067c.02-.021.037-.044.056-.065a.425.425 0 0 1 .03-.031c.017-.023.037-.043.056-.065l.08-.093.03-.034.065-.073a.193.193 0 0 1 .027-.03l.06-.07a.064.064 0 0 0 .024-.03h.19c.004.006 0 .01-.004.014l-.145.164-.128.146-.13.15c-.045.048-.087.097-.13.147l-.127.144-.13.148-.13.15c-.036.038-.069.077-.103.116-.037.04-.073.083-.11.125l-.102.116c-.037.04-.074.084-.11.125l-.027.03a.012.012 0 0 0-.003.013c-.005.004-.01.005-.017.007a.379.379 0 0 0-.255.303s0 .004-.002.007c-.005-.007-.008-.01-.016-.002-.06.072-.123.14-.184.21l-.2.23-.2.227-.2.228-.178.202-.174.198c-.044.05-.088.1-.13.15-.045.049-.087.097-.13.146l-.128.146c-.008.008-.015.019-.024.027-.004.003-.008.009-.015.005z" fill="#6fb249"/><path d="M4.78 15.396h.691c.003.007-.003.012-.006.017l-.194.219-.212.242-.223.254c-.066.077-.133.152-.2.228l-.2.228c-.009.009-.015.023-.03.022v-.858c.004-.02.002-.04.007-.06a.39.39 0 0 1 .272-.282.218.218 0 0 1 .063-.01h.015c.005 0 .012.003.017 0" fill="#aecc50"/><path d="M4.405 18.428a.222.222 0 0 0 .037-.038c.008-.011.018-.02.026-.03.02-.022.04-.042.058-.065l.081-.093a.447.447 0 0 0 .034-.04c.021-.02.04-.044.06-.066a.16.16 0 0 1 .024-.027l.06-.068.055-.064.03-.033c.017-.023.038-.043.056-.065l.06-.067c.017-.022.037-.042.055-.063.02-.023.042-.046.06-.07a.221.221 0 0 1 .025-.027l.061-.07.055-.062a.858.858 0 0 1 .027-.031c.027-.032.056-.063.084-.094l.071-.081.08-.093c.02-.023.04-.043.058-.065l.06-.068c.017-.022.037-.043.056-.064.02-.024.041-.045.06-.07l.024-.027.061-.067c.02-.022.036-.043.055-.065l.027-.03.084-.095.07-.08.081-.093c.02-.022.04-.043.058-.065l.06-.068c.017-.022.037-.042.056-.064.02-.023.041-.045.06-.07.007-.01.016-.017.024-.027l.061-.068.054-.063A.858.858 0 0 1 6.54 16l.085-.094.071-.081.08-.093c.02-.022.04-.043.058-.066l.06-.067c.017-.022.037-.042.056-.065l.06-.068c.01-.013.021-.024.032-.036.01-.01.017-.02.025-.03.002-.001.002-.003.002-.005h.18c0 .007-.006.012-.01.017-.022.022-.04.046-.062.069l-.054.063-.029.03c-.018.024-.038.044-.057.066-.027.032-.055.062-.082.095-.018.022-.038.043-.058.065l-.058.067-.027.03-.084.095-.07.08c-.028.03-.054.063-.082.093l-.058.066-.058.067-.057.065-.06.068-.027.03-.06.069c-.027.029-.05.06-.078.089l-.06.068c-.019.02-.037.043-.055.064l-.029.03c-.018.024-.039.044-.058.067-.026.03-.054.06-.08.093-.019.023-.04.044-.06.066a1.94 1.94 0 0 1-.084.097l-.084.094-.07.082-.082.092-.058.066-.058.067c-.019.022-.039.042-.058.065l-.059.068-.027.03-.06.069-.096.108-.067.076c-.027.03-.053.063-.08.094l-.06.067a3.166 3.166 0 0 0-.056.065l-.025.027c-.019.024-.04.045-.06.068-.019.022-.038.043-.056.066-.01.01-.02.019-.029.03-.018.023-.038.043-.057.065l-.08.093a.516.516 0 0 0-.03.035c-.022.024-.044.047-.065.072-.009.01-.016.022-.03.026z" fill="#7ab74a"/><path d="M10.402 16.703c-.015 0-.02.012-.028.021-.012.011-.022.025-.034.04l-.064.073c-.009.01-.018.018-.025.028l-.058.066-.082.092-.034.04c-.02.021-.039.044-.058.067l-.025.027c-.019.024-.04.045-.059.067l-.056.065-.03.033c-.018.022-.038.042-.057.064l-.058.068-.056.062c-.02.024-.042.046-.06.07l-.028.03-.06.068c-.027.03-.05.061-.078.09l-.06.068c-.019.02-.037.043-.055.064l-.028.031-.057.065a3.676 3.676 0 0 0-.082.094l-.03.034c-.022.024-.044.048-.064.073a.221.221 0 0 1-.025.027l-.06.07-.055.062-.025.028-.074.084-.006.006c-.005-.006-.002-.01-.002-.017v-.327c0-.005 0-.009.004-.012.065-.067.124-.14.186-.209.066-.074.131-.15.196-.225.052-.057.103-.116.154-.175.051-.057.101-.115.152-.17l.131-.15.102-.117.108-.124.103-.116c.037-.04.073-.083.11-.125l.101-.116c.037-.04.073-.083.11-.124l.098-.114c.005-.005.01-.01.018-.009z" fill="#02863d"/><path d="M6.841 15.396a.02.02 0 0 1-.007.014l-.03.034a1.41 1.41 0 0 0-.063.072.406.406 0 0 1-.027.03c-.027.033-.057.063-.084.095a2.702 2.702 0 0 1-.07.08c-.028.03-.054.063-.08.094-.02.02-.04.043-.06.065l-.058.068a1.18 1.18 0 0 0-.057.064c-.02.023-.04.044-.06.069l-.027.03-.06.067c-.027.03-.05.06-.078.09a3.166 3.166 0 0 0-.115.132l-.028.03c-.019.024-.04.044-.058.067-.027.03-.055.06-.08.092-.02.024-.04.044-.06.067-.019.02-.038.045-.058.067l-.027.03-.084.095-.07.08c-.028.03-.054.063-.08.093l-.059.065-.059.068-.057.064-.06.069a.365.365 0 0 1-.027.03l-.06.068c-.027.03-.05.06-.077.09l-.06.067c-.02.02-.037.043-.056.065l-.028.03c-.019.024-.039.044-.058.067-.027.03-.055.06-.08.092l-.06.066-.058.067a.406.406 0 0 1-.027.03c-.027.033-.056.063-.084.095-.023.028-.047.054-.07.08l-.023.027c-.004.003-.007.006-.012.006v-.224c.032-.038.065-.075.098-.111.033-.04.067-.078.1-.116l.11-.125.103-.117.107-.121.105-.12.106-.121.106-.121.107-.121.105-.12.107-.122.105-.12.106-.121.106-.12.106-.121.106-.121.107-.121.105-.12.106-.12.105-.121.108-.122c.008-.008.014-.018.023-.025z" fill="#86bc4c"/><path d="M6.642 15.396c0 .007-.005.013-.01.018-.022.02-.04.045-.061.067l-.059.069-.025.028c-.03.03-.055.064-.084.094-.027.03-.051.06-.077.09l-.034.037-.059.07-.028.029c-.028.03-.055.064-.084.096l-.071.08-.071.08-.077.09-.034.038-.059.069-.027.03c-.029.03-.056.064-.084.095-.025.026-.048.054-.072.08l-.072.083-.068.078-.072.08a1.948 1.948 0 0 1-.072.083l-.068.078-.072.082-.072.082-.094.107-.077.089-.061.068a3.624 3.624 0 0 0-.054.064l-.029.03c-.018.023-.038.044-.057.065l-.082.095-.029.032c-.022.026-.044.049-.065.075l-.026.029-.084.095-.052.06a.053.053 0 0 1-.015.012v-.23l.214-.242.178-.202.199-.227.152-.172.177-.203.152-.172c.051-.06.103-.118.154-.176l.128-.146.129-.147.131-.15.102-.115.106-.12.106-.121c.037-.041.072-.084.11-.124z" fill="#8cbe4c"/><path d="M10.402 16.35c-.014.006-.02.019-.029.029l-.03.035-.06.069c-.02.02-.037.042-.056.063a.858.858 0 0 1-.027.03c-.029.032-.055.064-.084.095l-.07.08-.08.094-.06.066-.058.067-.056.063c-.02.024-.04.045-.06.07a.252.252 0 0 1-.028.03c-.02.022-.039.046-.06.068-.027.029-.05.06-.077.089l-.06.069c-.02.02-.038.042-.056.063l-.028.03c-.019.024-.04.045-.059.067-.026.032-.054.06-.08.094-.019.022-.039.042-.058.065l-.059.067-.027.03-.084.095c-.023.028-.047.054-.07.08l-.08.094-.062.068c-.004.003-.007.008-.013.008-.005-.004-.002-.008-.002-.013v-.256c0-.011.003-.018.01-.026l.082-.09.13-.15.133-.15.127-.145.131-.15.127-.144.13-.15.11-.122c.033-.04.067-.078.101-.116l.11-.124.101-.117.111-.126.102-.116.054-.062c.004-.004.007-.01.014-.007z" fill="#0a893e"/><path d="M6.443 15.396c0 .01-.01.016-.017.023-.018.023-.038.042-.056.065l-.06.068-.026.03c-.027.032-.056.062-.084.094l-.08.093-.058.064-.08.094a.493.493 0 0 1-.03.033c-.022.026-.045.049-.066.075l-.026.029-.084.095-.08.092c-.019.023-.039.043-.058.065l-.082.095-.029.032c-.02.025-.044.049-.065.075l-.026.028c-.027.033-.056.064-.084.095-.027.03-.053.063-.08.094l-.058.063-.082.095c-.019.023-.039.044-.058.065l-.058.068-.025.028c-.019.024-.04.045-.06.068-.019.02-.037.043-.055.064a.425.425 0 0 1-.029.03c-.018.024-.038.044-.057.066l-.08.093-.06.066-.058.067-.025.029c-.019.023-.04.045-.06.067-.019.02-.037.044-.055.064l-.035.039c-.003.003-.007.007-.012.007v-.2c.032-.027.058-.062.087-.095l.11-.125c.034-.04.07-.078.103-.117l.106-.121.106-.12.106-.121.105-.12.11-.124c.035-.04.068-.08.103-.117l.108-.124.103-.118.107-.121.106-.121.107-.121.105-.12.106-.121.107-.121.08-.091z" fill="#91c04d"/><path d="M4.405 17.339v-.245c.064-.071.126-.144.19-.216l.155-.176.174-.198.131-.15.151-.171.128-.146.107-.121c.034-.04.068-.08.103-.118.036-.041.072-.083.11-.124l.103-.117.108-.124c.011-.013.022-.026.034-.037h.212c.002.006-.002.01-.006.015-.052.057-.1.115-.152.172l-.129.147-.128.145-.129.148-.103.117-.132.15-.108.122-.102.116-.106.122-.106.12c-.036.04-.07.082-.107.122l-.105.12-.108.123-.103.118c-.024.026-.048.055-.073.08-.002.004-.005.008-.009.006" fill="#9ac44e"/><path d="M5.98 17.9v.238c-.018.026-.04.047-.06.07l-.108.125a12.044 12.044 0 0 0-.21.238l-.106.12-.105.12-.11.125a10.79 10.79 0 0 0-.103.117c-.036.04-.072.083-.11.124l-.102.118-.11.125-.103.117-.108.123c-.035.039-.068.079-.103.117l-.122.139c-.004.004-.008.008-.015.003v-.238c.074-.082.145-.165.218-.247l.199-.227.2-.23.179-.2a23.33 23.33 0 0 1 .306-.35l.174-.197.13-.15.15-.17c.006-.006.009-.015.019-.01" fill="#5baa47"/><path d="M5.98 18.581v.232c-.017.025-.04.045-.058.068-.044.052-.09.101-.134.153l-.128.145-.132.151a18.315 18.315 0 0 0-.257.293l-.105.12-.13.147-.104.12-.131.147c-.036.041-.072.083-.11.124l-.1.114c-.036.042-.072.084-.11.125-.02.022-.037.043-.056.066-.006.006-.01.014-.02.011v-.239c.026-.02.045-.048.068-.072l.108-.124.129-.146.104-.12c.044-.049.088-.098.13-.149l.104-.117.133-.15.13-.15.102-.115.109-.124.104-.118.108-.123.103-.118c.037-.04.072-.083.109-.124.006-.006.01-.013.017-.019.004-.005.008-.013.017-.008" fill="#49a345"/><path d="M4.405 19.918c.004 0 .008 0 .012-.004l.076-.088.035-.039c.02-.021.04-.045.058-.067l.025-.029.06-.066.055-.065.03-.033c.018-.022.04-.043.058-.065l.057-.066.057-.065c.02-.022.041-.044.06-.068l.026-.031.061-.067c.027-.029.051-.06.077-.09l.061-.068c.02-.021.036-.042.055-.064.01-.01.02-.02.028-.031.018-.022.038-.043.057-.064.027-.033.055-.062.082-.094a.31.31 0 0 1 .03-.033c.021-.026.044-.049.064-.074l.025-.029.06-.067a3.166 3.166 0 0 0 .082-.095c.028-.032.057-.062.084-.095l.071-.08c.027-.031.053-.062.081-.092.015-.018.03-.038.048-.051v.234l-.2.228a56.18 56.18 0 0 0-.235.267c-.07.081-.14.161-.212.241l-.212.242a25.407 25.407 0 0 1-.423.481l-.15.173-.12.137c-.006.006-.01.017-.023.012z" fill="#54a746"/><path d="M5.98 19.041v.223c-.017.023-.04.045-.058.067a9.697 9.697 0 0 1-.134.152l-.131.15-.102.116-.105.12-.106.12-.106.121-.106.12-.106.121-.105.12-.11.125-.103.117-.106.121-.105.12c-.024.026-.047.055-.072.08a.052.052 0 0 0-.013.017c-.008 0-.003-.009-.007-.01v-.22c.03-.036.062-.07.093-.106l.13-.15.105-.118.13-.148.108-.122.103-.117.106-.122.106-.12.109-.124.103-.118.107-.12.105-.12.108-.124.104-.118c.014-.016.027-.032.042-.046.004-.005.008-.012.016-.007" fill="#3e9e44"/><path d="M5.98 19.041c-.013.003-.02.014-.026.022-.011.015-.024.028-.036.04a4.143 4.143 0 0 1-.148.17l-.06.07a.831.831 0 0 0-.057.063l-.06.07-.027.03-.06.067c-.027.03-.051.06-.077.09l-.061.067-.055.064c-.01.011-.02.02-.028.031-.018.023-.038.043-.057.065-.028.031-.054.063-.082.093l-.03.035c-.022.024-.044.048-.064.073l-.027.03-.061.068-.095.11-.067.076c-.028.03-.053.062-.081.093l-.06.066c-.02.022-.036.043-.055.066-.008.008-.018.017-.025.027-.011.015-.024.026-.036.04l-.057.066-.028.032a.642.642 0 0 0-.043.048c-.003.004-.008.006-.012.008v-.224a.04.04 0 0 0 .018-.016c.007-.01.016-.019.025-.028l.035-.04.058-.066.027-.03c.029-.03.055-.064.083-.095.024-.027.048-.053.07-.08l.074-.083.068-.078.073-.082a2.74 2.74 0 0 1 .07-.08l.069-.079.072-.082c.024-.028.048-.055.072-.08.03-.036.06-.072.092-.107l.07-.08c.028-.03.054-.062.08-.094l.06-.064.058-.067c.019-.024.04-.045.059-.068.02-.02.038-.044.057-.066a.333.333 0 0 0 .025-.028c.019-.023.04-.044.06-.067.019-.02.037-.043.055-.064.01-.01.02-.02.029-.032.018-.022.039-.044.058-.065.016-.018.03-.037.047-.054a.052.052 0 0 0 .01-.01v.116z" fill="#44a144"/><path d="M5.98 17.485v.216c-.018.024-.04.046-.06.068l-.131.152-.108.122-.101.116a12.044 12.044 0 0 0-.212.241l-.11.124-.103.118-.11.123a2.31 2.31 0 0 1-.102.117c-.036.042-.072.084-.11.125-.034.04-.067.08-.102.117a12.165 12.165 0 0 1-.211.241l-.097.11c-.005.005-.01.011-.018.006v-.216l.18-.207.179-.2.177-.203c.05-.058.1-.115.152-.172l.128-.147.132-.149.128-.147.128-.146.129-.146.104-.119.108-.123c.008-.008.014-.022.03-.02" fill="#65ae48"/><path d="M8.556 15.396h.208c.007.009 0 .016-.005.02l-.126.144-.128.148c-.037.04-.073.082-.109.123l-.102.116c-.036.04-.072.083-.109.123-.034.039-.067.078-.102.116-.036.042-.072.084-.11.125-.034.039-.067.078-.102.116l-.11.126-.102.116c-.037.04-.072.083-.109.124l-.103.118-.046.052a.016.016 0 0 1-.013.006H7.19c-.014-.001-.009-.008-.005-.014a.3.3 0 0 1 .033-.038l.154-.175.174-.2.154-.173.151-.173.131-.15.13-.146c.034-.04.07-.08.103-.12.044-.05.088-.098.132-.15l.098-.111c.031-.035.063-.07.093-.106.006-.006.011-.013.018-.017" fill="#4fa546"/><path d="M8.556 15.396c-.004.013-.016.02-.023.03l-.026.03c-.024.025-.046.052-.069.078l-.035.04a1.17 1.17 0 0 0-.057.066l-.025.027-.06.069-.056.063c-.009.01-.019.02-.028.032-.018.022-.038.043-.057.064-.028.03-.054.063-.082.095a.518.518 0 0 0-.03.034c-.022.024-.044.048-.064.073l-.026.029-.084.094c-.028.03-.054.063-.08.094a3.681 3.681 0 0 0-.058.064l-.082.094-.03.034c-.022.025-.044.048-.064.074l-.026.029-.084.095c-.027.03-.054.06-.08.092-.019.022-.039.042-.057.064l-.086.098c-.003.003-.004.005-.004.009-.005.003-.012.002-.018.002h-.187c-.016-.001-.007-.01-.004-.014.013-.02.03-.034.043-.05.051-.06.103-.118.156-.178.043-.05.087-.1.131-.148l.101-.116c.036-.042.072-.084.11-.125l.102-.116.11-.125.102-.117c.037-.041.072-.083.11-.123.034-.04.067-.08.102-.118l.108-.123.1-.115c.031-.035.063-.07.092-.105z" fill="#56a846"/><path d="M4.405 20.153c.011-.002.018-.012.023-.02l.031-.035c.018-.022.038-.043.057-.064.02-.024.04-.045.058-.068s.04-.044.06-.067c.02-.02.038-.044.057-.066l.025-.028.06-.067.055-.064c.01-.01.02-.02.028-.032l.058-.065.081-.094c.02-.02.04-.043.058-.065.02-.022.04-.045.058-.068l.025-.027c.02-.024.041-.045.061-.068l.055-.064.028-.03c.018-.024.038-.044.057-.066l.082-.094c.01-.01.02-.023.03-.035.021-.023.044-.047.064-.072l.026-.029.084-.095c.027-.03.053-.062.08-.094.02-.02.04-.042.058-.063.027-.03.054-.064.081-.095l.026-.029.085-.094.006-.01c.005-.004.01-.012.018-.013v.209c-.008 0-.012.006-.015.01-.01.016-.024.027-.036.041-.018.023-.039.043-.058.066l-.08.093-.06.067-.056.065-.027.03c-.029.031-.056.063-.084.095l-.072.082-.07.081-.092.103c-.028.031-.054.063-.08.094l-.062.067-.054.065a.823.823 0 0 0-.028.03c-.029.03-.055.063-.084.095a1.381 1.381 0 0 0-.07.08 6.617 6.617 0 0 1-.08.093l-.059.065-.059.067a35.384 35.384 0 0 1-.094.108l-.026.03-.084.094c-.026.03-.05.06-.077.09a.904.904 0 0 0-.05.057c-.006.006-.01.01-.018.01z" fill="#4fa546"/><path d="M5.899 15.396c-.001.007-.006.013-.011.018-.021.02-.04.045-.06.067l-.06.069-.024.028c-.03.03-.055.064-.084.094l-.078.09a1.23 1.23 0 0 1-.033.037l-.06.07-.027.029c-.03.03-.055.064-.084.095l-.071.082-.071.08-.078.09-.034.039c-.02.02-.04.045-.058.067a.828.828 0 0 1-.027.029c-.03.032-.056.065-.084.096-.025.026-.048.054-.072.08l-.072.083-.068.078-.072.08-.072.083-.094.107-.078.09c-.006.006-.011.016-.022.017v-.227c.018-.026.039-.047.059-.07l.11-.125c.036-.04.07-.082.107-.122l.106-.12.106-.121.105-.12c.036-.04.07-.081.108-.121l.126-.145.106-.121.132-.15.128-.146.085-.096.013-.014z" fill="#a2c74f"/><path d="M7.395 16.967c.005-.015.018-.023.027-.034l.06-.07c.02-.02.037-.041.055-.062l.028-.031.06-.066c.026-.031.052-.062.08-.093l.058-.065.058-.068.027-.03c.03-.031.055-.063.084-.095l.07-.08.081-.093c.02-.022.04-.043.058-.065l.06-.068c.008-.011.018-.02.027-.031a1.68 1.68 0 0 1 .067-.077l.057-.065.06-.068.025-.03c.028-.032.057-.062.084-.094.026-.03.051-.061.078-.09.021-.021.04-.045.06-.067.021-.022.04-.046.06-.07l.034-.037c.007-.007.012-.013.012-.022h.055c.017.003.034 0 .052 0 .03.002.061 0 .092 0 .013.003.008.01.004.015a.271.271 0 0 1-.035.04c-.036.04-.07.083-.107.123l-.11.125-.1.116c-.038.04-.074.083-.11.124l-.104.118-.108.123-.104.118c-.036.04-.07.082-.108.123l-.103.117-.11.125-.102.117c-.037.04-.073.083-.109.125-.017.017-.033.036-.049.054-.004.006-.008.01-.016.01h-.18c-.006 0-.013 0-.018-.002" fill="#49a345"/><path d="M7.82 15.396h.198c.006.008 0 .013-.005.018l-.209.238-.2.227-.2.229-.178.202-.174.198c-.044.05-.088.1-.13.15a8.47 8.47 0 0 0-.153.172l-.104.118-.016.02c-.065.002-.13 0-.194 0-.012 0-.01-.005-.006-.01.007-.013.018-.023.027-.033l.154-.175.151-.172.128-.146.156-.178.128-.145.13-.147c.042-.05.086-.1.13-.15l.102-.115.11-.125.102-.116.052-.06" fill="#64ae48"/><path d="M5.98 17.485a.052.052 0 0 0-.017.013l-.06.068a.252.252 0 0 1-.027.03l-.083.095-.072.081-.072.082-.092.105-.071.081-.08.092c-.02.023-.04.043-.058.066l-.06.067c-.017.024-.038.044-.058.067l-.057.066-.025.028-.061.068-.054.064-.03.031c-.017.022-.037.042-.056.065l-.082.094-.03.033-.063.074a6.56 6.56 0 0 0-.026.03l-.085.093-.08.094-.06.065a3.5 3.5 0 0 1-.057.068l-.048.054c-.003.004-.006.007-.011.006v-.198c.01-.002.017-.01.022-.019l.03-.035.062-.068.054-.064c.01-.01.02-.02.03-.033l.057-.063c.027-.03.053-.063.08-.094l.03-.034c.022-.025.044-.048.064-.073l.028-.03.06-.068.094-.107c.027-.03.05-.06.077-.09l.06-.068c.02-.02.038-.044.057-.065l.028-.03c.019-.024.039-.044.057-.066.028-.03.054-.062.08-.093a.317.317 0 0 0 .03-.034c.023-.024.045-.048.065-.073l.025-.028.06-.068c.019-.02.037-.043.056-.064l.027-.03c.027-.032.056-.063.084-.094.023-.028.047-.054.07-.08l.08-.094a.88.88 0 0 0 .058-.064c.012-.015.026-.027.036-.042.004-.005.008-.01.014-.012.005.005.002.011.004.016l-.001.006c-.003.012 0 .024-.003.036v.143" fill="#6ab049"/><path d="M4.405 19.482a.025.025 0 0 0 .017-.011c.008-.011.02-.021.028-.032l.084-.095.095-.108.068-.077.08-.093.061-.067c.02-.022.037-.044.056-.066a.34.34 0 0 1 .026-.03c.028-.03.055-.063.083-.094.025-.026.048-.054.072-.081l.072-.082.07-.078c.022-.027.046-.054.07-.081l.072-.082.068-.078.072-.081.072-.082.091-.104.08-.094.061-.067c.02-.021.037-.043.055-.063a.695.695 0 0 1 .026-.03c.031-.033.06-.068.09-.102a.01.01 0 0 1 .006-.002v.198a.012.012 0 0 0-.01.005l-.053.062-.03.034-.058.065-.057.066-.057.065-.06.068a.261.261 0 0 1-.027.03l-.06.069c-.027.028-.05.06-.078.089l-.06.068a1.683 1.683 0 0 0-.055.064l-.029.03c-.018.023-.038.044-.056.065-.028.032-.056.063-.082.095l-.03.032c-.02.026-.044.049-.065.075-.007.01-.016.018-.024.028l-.06.068c-.02.02-.037.042-.056.064l-.026.03c-.028.032-.057.062-.085.095l-.07.08c-.028.03-.054.062-.08.093-.02.022-.04.043-.059.066l-.059.067-.057.065c-.019.022-.04.044-.059.068-.007.009-.015.016-.022.023-.013.017-.028.032-.04.046-.004.003-.007.006-.01.006z" fill="#5fac47"/><path d="M5.696 15.396c0 .01-.01.016-.016.023l-.059.067-.057.066-.026.03c-.029.03-.056.063-.084.094l-.08.093-.062.067-.054.065c-.009.01-.018.018-.025.028l-.06.068c-.019.02-.038.043-.056.064l-.028.03c-.018.023-.039.043-.057.066l-.082.093a2.292 2.292 0 0 0-.094.108l-.026.029-.084.095c-.028.03-.054.06-.08.093a3.681 3.681 0 0 0-.058.064c-.027.03-.056.062-.082.094-.018.022-.039.044-.059.065-.017.02-.032.04-.05.058-.004.004-.007.008-.012.01v-.26a.052.052 0 0 0 .017-.013 2.162 2.162 0 0 0 .09-.102c.03-.031.055-.064.084-.095l.072-.081.071-.082.095-.108c.026-.03.051-.06.077-.088.02-.024.04-.045.06-.07.02-.02.037-.041.055-.062l.028-.031c.018-.023.038-.043.058-.065l.082-.095.03-.034a2.22 2.22 0 0 0 .091-.102l.06-.07.09-.1.006-.012z" fill="#a6c94f"/><path d="M7.82 15.396a.017.017 0 0 1-.006.013 2.67 2.67 0 0 0-.093.106l-.06.068c-.019.02-.037.042-.055.063a.268.268 0 0 1-.028.03l-.083.095a2.641 2.641 0 0 0-.072.082c-.024.027-.048.055-.072.08l-.069.079-.07.082a2.946 2.946 0 0 1-.073.08l-.09.106c-.028.03-.054.06-.082.093l-.06.067c-.019.02-.037.043-.055.064l-.027.03c-.029.03-.055.064-.084.095l-.072.08c-.023.029-.047.055-.07.082-.027.029-.05.06-.078.089l-.035.04c-.013.015-.028.028-.039.047h.202c.005-.005.012-.005.02-.005h.277c.01 0 .018-.001.025.005h.63a.029.029 0 0 1 .018-.005h.818c.007 0 .017-.002.021.008H6.376a.411.411 0 0 0-.099.01h-.006c-.003.003-.008 0-.01.004h-.002c-.01-.002-.009-.007-.004-.013l.022-.025.061-.068.06-.068a.22.22 0 0 1 .024-.028c.03-.032.055-.064.084-.095.027-.028.051-.06.077-.09l.034-.037.06-.068a.858.858 0 0 1 .026-.031c.03-.03.056-.063.084-.094l.072-.081.072-.082.068-.08.072-.08.072-.082.094-.107.077-.09.061-.067.055-.064c.01-.01.02-.02.028-.031.018-.022.038-.043.057-.064l.082-.095.031-.035c.004-.004.008-.007.008-.013z" fill="#6ab049"/><path d="M5.98 19.922v.244c-.01.017-.023.028-.036.042l-.223.254-.188.214c-.058.066-.115.133-.174.198l-.154.177-.152.172c-.043.05-.086.1-.131.148-.006.007-.01.017-.018.022h-.137c-.003-.003-.007-.002-.011-.002h-.012c-.01-.003-.021 0-.031-.005l-.011-.004c-.002 0-.003-.001-.004-.003-.004-.008.002-.014.007-.02.02-.025.042-.048.063-.073l.132-.15a10.993 10.993 0 0 0 .234-.267l.108-.122.102-.116.11-.125.103-.117.108-.124.104-.117c.036-.041.07-.082.108-.123l.08-.092c.006-.007.012-.016.023-.011" fill="#279541"/><path d="M10.402 16.064c-.016.01-.024.026-.036.039-.012.014-.025.026-.036.04l-.088.102-.06.068-.06.068-.057.065-.06.068-.027.03-.06.069c-.03.034-.06.07-.092.104l-.07.08-.082.094-.058.066c-.019.022-.04.044-.058.067l-.058.065-.059.068-.025.027c-.019.024-.04.045-.06.068-.019.02-.037.043-.055.064l-.028.03c-.019.025-.039.045-.058.067l-.08.093-.06.066-.058.067a.645.645 0 0 1-.025.029l-.06.067c-.019.02-.036.044-.055.063-.014.015-.024.033-.04.044-.008.004-.007.01-.007.016v.253l.001.017v1.337h-.004l.001-.047v-1.56l.001-.167.001-.016.162-.186.152-.172.131-.15.151-.172.127-.144.107-.123c.034-.04.07-.078.103-.117l.11-.125.131-.15.13-.146c.034-.04.068-.08.103-.118l.131-.15c.01-.01.017-.025.034-.027z" fill="#108b3f"/><path d="M6.972 16.967h-.176c-.002-.01.005-.014.01-.02.043-.047.085-.096.128-.145l.132-.15.128-.146.129-.146c.034-.04.068-.08.103-.118l.132-.15.104-.12.13-.147.108-.123.102-.116.106-.121.06-.07h.174c-.002.013-.012.02-.02.03l-.02.024-.061.069c-.02.02-.037.042-.055.063a.858.858 0 0 1-.027.03c-.027.033-.056.063-.084.095-.023.028-.047.054-.071.08l-.08.094c-.02.022-.04.042-.057.065-.027.03-.056.06-.083.093a.856.856 0 0 1-.03.033c-.02.025-.043.049-.064.075a.615.615 0 0 1-.025.027l-.06.068-.055.064-.027.03-.084.095-.071.08c-.027.03-.053.062-.08.094-.02.02-.04.043-.058.064l-.082.094-.03.033-.063.074-.028.03-.051.059c-.003.003-.004.005-.004.009" fill="#5baa47"/><path d="M10.402 15.895a.182.182 0 0 0-.034.034l-.026.029c-.019.024-.04.045-.06.068-.019.02-.037.043-.055.064l-.029.032a1.173 1.173 0 0 1-.058.065l-.08.094-.06.066a3.98 3.98 0 0 0-.082.094l-.06.068c-.019.02-.037.043-.055.064l-.028.03c-.019.023-.04.045-.059.066l-.08.094-.06.067-.057.066-.025.028-.06.068c-.019.02-.037.043-.055.064l-.028.03c-.019.024-.039.044-.059.067l-.08.093-.06.066c-.019.02-.037.044-.056.065a.695.695 0 0 1-.026.03c-.019.023-.04.045-.06.067a3.166 3.166 0 0 0-.055.065l-.029.03c-.018.023-.039.044-.057.066-.01.012-.022.022-.03.035a.01.01 0 0 1-.009.005c-.003-.013 0-.028 0-.042 0-.04-.003-.081 0-.121l.136-.155.126-.143.132-.151c.034-.04.07-.078.103-.117l.11-.123.13-.15.127-.144.107-.122.13-.148c.042-.05.084-.096.127-.144l.131-.15c.036-.041.071-.083.108-.123l.08-.091c.005-.006.01-.013.02-.014.002 0 .003.002.003.003v.014c.001.007 0 .014.002.02z" fill="#138d3f"/><path d="M8.168 15.396c0 .005-.003.01-.007.015l-.054.06-.056.065-.027.03-.084.095c-.022.027-.046.052-.069.079l-.074.085c-.023.024-.045.05-.067.076-.028.03-.054.062-.08.094l-.062.067-.055.064a5.872 5.872 0 0 1-.025.028c-.019.023-.04.045-.06.067l-.055.065-.028.03-.058.066-.08.094c-.02.022-.04.043-.059.066-.02.02-.039.044-.059.067l-.024.027-.06.069c-.02.02-.038.042-.056.063l-.028.03c-.018.024-.039.044-.057.066-.029.035-.062.067-.089.103h-.147a.023.023 0 0 1 .007-.014c.02-.022.04-.042.057-.065.02-.022.041-.044.06-.068.007-.01.016-.018.023-.027.02-.023.041-.044.061-.068.02-.021.037-.044.056-.064l.03-.035c.022-.023.043-.048.064-.073l.027-.03.084-.095.071-.08.08-.094.06-.065.057-.067.057-.064c.02-.023.041-.045.06-.07l.026-.03c.021-.021.04-.044.061-.067l.078-.09.06-.067c.02-.021.036-.043.055-.065.01-.01.02-.02.028-.031.018-.021.04-.042.057-.064l.082-.094.031-.035c.012-.012.021-.027.034-.037.004-.003.004-.008.004-.012z" fill="#5fac47"/><path d="M6.27 15.396c0 .007-.006.013-.01.018l-.06.067c-.019.02-.037.043-.056.064l-.025.029-.06.067-.055.065-.028.03c-.018.022-.039.043-.058.065l-.08.094-.03.033c-.022.025-.045.049-.065.074a.695.695 0 0 0-.026.03l-.084.094c-.028.03-.054.062-.08.093l-.058.065c-.028.03-.055.062-.082.093-.01.01-.019.023-.029.034-.022.024-.045.048-.065.074l-.026.029-.085.095-.08.093-.057.064c-.028.03-.054.064-.082.095-.01.01-.02.02-.029.032l-.065.074-.026.03-.084.094-.08.094-.058.064-.082.094-.029.032c-.022.026-.044.049-.065.076l-.028.03-.018.02c-.005.007-.01.013-.02.014v-.091c.016-.025.038-.046.057-.068l.135-.153.128-.146.128-.146.11-.123.1-.116.11-.125.103-.117.108-.123.103-.118.11-.123.103-.12.11-.122a3.71 3.71 0 0 1 .102-.117l.106-.122.105-.12c.018-.02.037-.04.054-.061.003-.004.008-.005.011-.008z" fill="#96c24d"/><path d="M4.904 21.393a.075.075 0 0 1 .02-.03c.021-.022.04-.045.06-.068.008-.01.017-.018.024-.028l.061-.067c.02-.022.037-.044.056-.066l.03-.031a.855.855 0 0 1 .057-.065l.057-.067.057-.064c.02-.024.04-.045.06-.07l.026-.03c.021-.021.04-.045.061-.067.032-.035.063-.073.095-.11.023-.024.045-.05.067-.075l.081-.094.061-.067a1.683 1.683 0 0 1 .08-.092l.06-.068c.017-.02.032-.04.05-.057l.013-.011.001.15v.023c-.02.027-.043.049-.064.074l-.135.153-.102.116c-.045.05-.089.102-.133.15a8.905 8.905 0 0 1-.128.147c-.043.05-.086.1-.13.148l-.109.123c-.034.039-.068.078-.1.117l-.026.026z" fill="#229341"/><path d="M5.054 21.393c0-.003 0-.006.002-.008l.057-.062.057-.067c.01-.01.02-.02.028-.031.018-.022.038-.043.057-.064l.082-.095c.01-.01.017-.02.026-.03l.084-.093c.024-.03.047-.055.071-.082.027-.03.051-.061.078-.09l.06-.067.06-.07.025-.027c.028-.03.055-.064.084-.095.026-.028.051-.06.077-.09l.03-.033.041-.046c.002-.002.004-.004.007-.004v.205c-.017.026-.039.046-.058.069l-.134.153a8.905 8.905 0 0 0-.128.146l-.132.15-.127.144-.131.149c-.011.013-.021.026-.033.038z" fill="#1e9140"/><path d="m6.189 15.396-.053.06c-.02.022-.037.044-.056.066l-.026.029c-.02.024-.041.045-.061.068l-.054.064-.03.03c-.017.024-.038.045-.057.067l-.08.094c-.02.022-.041.043-.06.066a3.203 3.203 0 0 0-.056.064l-.025.029-.036.04c-.02.02-.038.044-.057.066l-.027.03-.084.095a2.702 2.702 0 0 1-.071.08l-.08.093-.06.065-.057.069c-.018.02-.038.04-.056.062l-.061.07-.027.03-.06.068-.078.09-.06.067c-.02.02-.037.043-.055.065l-.03.03c-.017.024-.038.044-.057.067-.026.03-.054.06-.08.092l-.06.068c-.02.02-.038.044-.057.066l-.022.024c-.017.018-.031.039-.051.054v-.085l.054-.06c.009-.012.02-.022.029-.033.018-.023.039-.043.058-.066l.08-.093.06-.066.057-.066.025-.03.06-.066.055-.065.029-.031.056-.064.082-.094.03-.033c.02-.025.044-.05.065-.074.007-.01.017-.02.025-.03l.084-.093.08-.094.06-.066.058-.067.057-.065c.019-.022.04-.043.059-.068l.027-.03.06-.068c.027-.03.05-.06.078-.09l.06-.067c.02-.021.037-.043.055-.064l.029-.031c.018-.023.038-.043.057-.065.026-.031.055-.061.082-.094a.875.875 0 0 1 .029-.034l.059-.065.007-.011z" fill="#96c24d"/><path d="M5.237 21.393c0-.01.008-.015.013-.021l.055-.063c.02-.023.042-.045.06-.07l.026-.028c.019-.023.04-.045.06-.067l.055-.064.027-.031c.029-.03.056-.063.084-.094l.072-.082.07-.082c.024-.024.045-.05.068-.075l.076-.086.067-.077.01-.01v.227c-.01.017-.023.028-.035.042l-.185.21-.178.203-.137.156a.049.049 0 0 1-.013.012z" fill="#188f40"/><path d="M5.432 21.393c.005-.015.018-.022.026-.033.017-.023.037-.042.056-.064.02-.023.042-.045.06-.07l.025-.027c.02-.024.041-.045.061-.068l.055-.065.026-.03c.029-.03.056-.063.084-.094l.074-.083c.024-.028.046-.056.07-.08l.01-.01c0 .02 0 .04.002.06v.15l-.001.019-.207.234-.117.134c-.005.006-.016.012-.002.02-.003 0-.006.003-.01.004-.004.002-.007 0-.011 0s-.008 0-.012.003z" fill="#138d3f"/><path d="M.329.398H.196C.19.398.183.4.179.395H.82V.4C.806.406.79.403.776.403H.348c-.007 0-.014 0-.02-.005" fill="#80bf82" mask="url(#b)" transform="translate(8.642 15)"/><path d="M.213.398V.395h.574C.787.397.787.4.785.4.769.406.752.402.735.403H.234C.227.403.219.404.213.398" fill="#75bb81" mask="url(#c)" transform="translate(9.25 15)"/><path d="M.411.511C.408.508.409.503.405.501V.487c.006.001.003.007.006.01.004.004.004.008 0 .013" fill="#c3e4cb" mask="url(#d)" transform="translate(4 20.552)"/><path d="M.49.398V.396h.02v.002C.502.404.495.405.49.398" fill="#c5e2cb" mask="url(#e)" transform="translate(9.547 15)"/><path d="M10.4 21.03c0-.007-.004-.014.002-.02v.02H10.4" fill="#589984"/><path d="M10.402 15.774c-.006-.006-.002-.014-.003-.021h.003z" fill="#64b37f"/><path d="M6.4 6.047h.003V6.03H6.4z" fill="#bbd6cd" mask="url(#f)" transform="translate(4 15)"/><path d="M.78.396C.775.4.77.398.763.398V.396z" fill="#c8dc87" mask="url(#f)" transform="translate(4 15)"/><path d="M6.402.754 6.4.753V.737h.003z" fill="#c6e1cc" mask="url(#f)" transform="translate(4 15)"/><path d="M.764.396v.002H.748V.397z" fill="#e7f0cb" mask="url(#f)" transform="translate(4 15)"/><path d="M1.632 6.39h.013v.003h-.013L1.63 6.39" fill="#c3e2cf" mask="url(#f)" transform="translate(4 15)"/><path d="M.744 6.393V6.39h.013c.001 0 .002 0 .001.002H.757z" fill="#c7e4cd" mask="url(#f)" transform="translate(4 15)"/><path d="M.757 6.393V6.39c.003-.001.007-.002.01.003z" fill="#73bb83" mask="url(#f)" transform="translate(4 15)"/><path d="M1.632 6.39v.003h-.01c.002-.005.006-.003.01-.003" fill="#63b482" mask="url(#f)" transform="translate(4 15)"/><path d="M4.527 4.805c-.006.019-.021.03-.034.044l-.062.072-.025.029-.061.067-.054.064-.03.032c-.017.022-.037.043-.056.064-.027.03-.054.064-.082.094l-.03.033c-.02.025-.043.049-.064.074l-.025.03-.085.094-.08.093-.058.064-.082.095a.875.875 0 0 0-.03.034c-.021.024-.043.048-.063.074a.345.345 0 0 0-.026.028l-.085.095-.08.093-.057.064c-.028.03-.055.063-.082.095a7.95 7.95 0 0 0-.11.123c-.004.005-.01.008-.005.015a.38.38 0 0 1-.235-.165c.007-.015.019-.025.03-.037l.113-.128.105-.12.129-.146.104-.12c.044-.05.088-.098.13-.15l.104-.116c.044-.05.089-.1.132-.151l.104-.117.13-.15.108-.121.03-.034c.005-.004.008-.008.014-.007h.31c.005 0 .01 0 .016-.002a.303.303 0 0 1 .042-.006" fill="#007b3d" mask="url(#f)" transform="translate(4 15)"/><path d="M4.152 4.815c0 .003 0 .005-.003.008a1.998 1.998 0 0 0-.117.133l-.028.03c-.019.023-.039.044-.059.066a6.617 6.617 0 0 1-.08.093l-.06.066a3.86 3.86 0 0 0-.056.066l-.026.029-.06.068c-.019.02-.036.043-.055.064l-.028.03c-.019.024-.039.044-.058.067-.027.03-.054.06-.08.092l-.06.067-.058.066c-.007.01-.016.019-.025.029l-.06.067-.055.064c-.009.01-.019.02-.028.032-.018.022-.039.043-.058.065l-.08.093-.06.066c-.01.012-.019.025-.033.035a.345.345 0 0 1-.058-.167c-.003-.011-.002-.022-.002-.034v-.174c0-.004.001-.008.005-.011.03-.022.05-.052.074-.078.046-.051.09-.103.135-.155l.13-.146.103-.12.131-.147c.042-.05.084-.097.127-.145l.13-.15c.02-.021.041-.041.056-.066.003-.004.007-.006.012-.005h.366c.006 0 .013-.002.018.002" fill="#007f3d" mask="url(#f)" transform="translate(4 15)"/><path d="M5.707.399h.235c.001.014-.009.02-.016.029l-.224.254-.21.24-.237.269-.21.24-.236.269-.212.24c-.013.016-.029.028-.038.047-.024-.005-.049-.013-.074-.015l-.028-.002c-.004-.005-.01-.003-.015-.003h-.105c-.002-.006.002-.01.005-.014l.093-.106.11-.125.104-.12.106-.12.106-.12.105-.12.108-.122.13-.148A10.072 10.072 0 0 1 5.44.704c.034-.04.07-.08.103-.12l.13-.147.034-.038M.699 6.379c-.023-.003-.045-.013-.066-.022a.334.334 0 0 1-.094-.062c-.005-.008 0-.014.005-.019.043-.047.085-.095.126-.143l.129-.147.13-.149.102-.115.11-.124.103-.118.106-.122c.036-.039.07-.08.105-.119.036-.041.07-.081.107-.121l.105-.12.11-.125.102-.116.082-.093c.005-.006.009-.014.019-.01a.177.177 0 0 1 0 .023v.245c-.008.001-.014.005-.02.013-.007.011-.017.02-.026.03l-.06.068c-.02.022-.037.044-.056.066-.01.009-.017.019-.026.028-.03.031-.055.065-.084.096a2.946 2.946 0 0 0-.072.081l-.072.082-.068.078-.072.081-.072.082-.068.078c-.023.028-.048.054-.072.081l-.072.082-.09.104c-.028.03-.054.062-.081.093-.02.023-.041.044-.061.068l-.055.063c-.008.011-.018.021-.027.031-.027.032-.056.062-.084.094-.011.015-.025.027-.036.042-.003.005-.007.01-.007.016" fill="#2f9842" mask="url(#f)" transform="translate(4 15)"/><path d="M4.56 1.986c-.005-.009.002-.014.006-.018.022-.02.04-.045.061-.068.02-.02.036-.042.055-.063.01-.01.02-.02.028-.032.018-.022.04-.044.058-.066.027-.03.055-.06.081-.093.02-.022.04-.043.058-.065l.06-.068a.406.406 0 0 0 .026-.03l.084-.095.07-.08.081-.093c.02-.022.04-.043.058-.065l.06-.067.027-.034.066-.074.026-.029c.028-.03.055-.064.084-.095.026-.029.05-.06.077-.09.02-.02.04-.045.06-.067.02-.02.038-.044.057-.065.008-.01.02-.02.028-.032.018-.022.04-.043.058-.065.02-.023.04-.044.058-.067.015-.019.032-.036.047-.054l.008-.013h.095a.04.04 0 0 0 .02 0 .35.35 0 0 1 .094.023c-.063.068-.122.137-.183.207l-.2.227-.152.173-.177.202-.155.176-.15.173-.129.144-.129.148-.105.12c-.023.025-.045.052-.069.077a.714.714 0 0 0-.083-.057l-.05-.022c-.002-.002-.005 0-.008-.002z" fill="#279541" mask="url(#f)" transform="translate(4 15)"/><path d="M6.353.594a.329.329 0 0 1 .045.144.039.039 0 0 0-.02.016c-.007.012-.017.02-.026.03-.019.025-.04.046-.06.069-.019.02-.037.043-.055.064l-.027.03-.085.095a1.741 1.741 0 0 1-.07.08l-.08.093-.059.066-.058.067-.056.063c-.02.024-.042.046-.06.07l-.028.03-.06.068c-.027.03-.05.06-.078.09l-.06.068c-.019.02-.037.043-.055.064l-.028.03c-.018.023-.039.043-.058.066-.026.03-.055.06-.082.093l-.028.034-.066.074-.024.028-.06.068c-.019.02-.037.043-.056.064l-.027.03c-.027.032-.056.063-.084.094l-.07.08c-.01.014-.023.025-.032.038-.004.005-.008.012-.016.012V2.5c-.002-.064 0-.13-.004-.192-.003-.01 0-.017.006-.025l.194-.22.196-.224.154-.175c.051-.056.101-.114.151-.172l.132-.15.102-.115c.036-.041.071-.083.108-.123l.102-.117.11-.124c.034-.04.067-.08.102-.117.037-.042.072-.084.11-.125.011-.012.021-.026.034-.037.005-.004.008-.011.016-.007.002.002.001.006.004.007.001.002 0 .005.004.006l.002.004" fill="#188f40" mask="url(#f)" transform="translate(4 15)"/><path d="M.411 6.064V6.05c0-.006.001-.01.006-.014.02-.017.036-.037.052-.057l.028-.031c.018-.023.038-.043.057-.065l.082-.094.03-.034c.021-.024.044-.048.064-.073l.027-.03.06-.068.096-.11.067-.076.08-.093.06-.066c.019-.022.038-.043.056-.066a.664.664 0 0 0 .025-.027l.036-.04.057-.066.027-.031c.029-.03.055-.063.084-.094l.071-.081.071-.082c.027-.03.051-.06.078-.088l.034-.04c.021-.021.039-.044.059-.067a.695.695 0 0 1 .026-.03c.03-.03.056-.064.084-.095l.075-.084c.022-.025.044-.052.067-.076l.01-.01v.223l-.1.114a6.22 6.22 0 0 0-.107.122 10.79 10.79 0 0 0-.103.117c-.037.04-.073.083-.11.125l-.103.118-.11.123-.106.122-.102.116-.106.12-.105.12c-.038.042-.073.084-.11.126-.035.038-.07.078-.103.117l-.11.123-.103.12c-.012.013-.023.028-.038.039A.361.361 0 0 1 .418 6.1L.41 6.064" fill="#389c43" mask="url(#f)" transform="translate(4 15)"/><path d="M6.344.577c-.015.005-.023.018-.031.027-.011.015-.025.027-.036.041-.018.023-.038.043-.058.066l-.081.093-.06.066c-.02.022-.037.045-.056.066-.01.01-.017.02-.026.03-.03.031-.056.063-.084.094l-.072.082-.072.081-.092.106a2.67 2.67 0 0 0-.07.08l-.081.093c-.02.022-.04.043-.058.065l-.06.068-.058.067c-.02.021-.038.044-.057.066a.333.333 0 0 0-.025.028l-.061.067-.054.065-.03.031c-.017.022-.038.044-.057.065a7.862 7.862 0 0 1-.081.094l-.06.066a3.98 3.98 0 0 0-.056.067l-.032.035a.03.03 0 0 0-.01.021c-.002-.012-.003-.026-.006-.038a.376.376 0 0 0-.041-.104l-.004-.009c-.002-.008.005-.012.009-.016l.133-.152.103-.117.133-.15a5.9 5.9 0 0 1 .104-.119c.043-.049.087-.098.129-.148l.105-.118a9.37 9.37 0 0 1 .13-.15l.109-.122.1-.116.11-.125.103-.116.105-.12.085-.097c.007-.007.012-.015.023-.01.036.026.066.06.088.097" fill="#1e9140" mask="url(#f)" transform="translate(4 15)"/><path d="M6.256.48a.032.032 0 0 0-.021.015c-.007.01-.018.019-.026.03l-.061.068-.055.064-.026.03a3.003 3.003 0 0 0-.092.105L5.914.86c-.02.02-.036.043-.055.063-.01.01-.02.02-.028.033-.02.022-.04.043-.058.065l-.081.093-.06.066-.057.067-.025.028-.06.067a3.166 3.166 0 0 0-.055.065l-.028.03c-.02.023-.04.044-.058.066l-.081.093-.06.067c-.02.022-.037.045-.056.066l-.025.028c-.02.024-.041.045-.061.068l-.055.064-.03.032c-.018.023-.038.044-.058.066-.026.03-.052.063-.08.094-.022.022-.041.047-.063.069l-.005.007a.66.66 0 0 0-.056-.072l-.003-.003-.003-.003-.003-.003a.008.008 0 0 0-.004-.004l-.003-.003a.03.03 0 0 1 .01-.018c.013-.012.023-.026.035-.04.02-.02.039-.044.058-.066l.025-.028.06-.068.056-.065.029-.032c.018-.022.039-.043.058-.065l.057-.066c.019-.022.039-.042.057-.064.02-.023.04-.045.06-.07l.027-.03.06-.067c.027-.03.05-.06.078-.09l.06-.067.055-.065.028-.031.057-.064.082-.094a.358.358 0 0 1 .026-.03c.027-.032.056-.062.084-.094l.072-.081c.026-.03.05-.061.077-.09l.06-.067.06-.07.02-.023.084-.094c.004-.004.007-.01.014-.01 0 .004.004.003.006.004.002.004.007 0 .01.004.002.002.005.002.007.003.03.012.057.028.08.049" fill="#229341" mask="url(#f)" transform="translate(4 15)"/><path d="M.464 6.206c.003-.008.01-.014.016-.02.027-.032.056-.063.084-.094.023-.028.047-.054.07-.08l.08-.094.06-.066.058-.067a2.292 2.292 0 0 1 .094-.107l.026-.03c.029-.03.055-.063.084-.094.027-.029.05-.06.077-.089l.06-.069c.02-.02.038-.043.057-.064.009-.01.019-.02.028-.032.018-.023.039-.043.058-.066l.058-.065c.018-.024.039-.045.059-.067a3.98 3.98 0 0 0 .057-.067l.025-.027c.019-.024.04-.045.06-.069.019-.02.037-.042.055-.063l.028-.03c.019-.024.039-.045.059-.067.027-.03.053-.062.08-.094l.06-.066c.019-.02.038-.044.057-.066.008-.01.018-.019.026-.03.006-.008.016-.015.022-.025a.042.042 0 0 1 .018-.014c0 .057.002.114 0 .17-.011.002-.016.011-.022.018l-.031.036-.06.067c-.02.022-.036.043-.055.065l-.027.03c-.03.03-.055.064-.084.095-.024.025-.047.053-.07.08l-.073.083-.07.078-.07.081-.072.082-.07.078c-.022.028-.046.054-.07.081l-.072.082c-.032.035-.063.072-.094.108a2.131 2.131 0 0 0-.077.09l-.061.067c-.02.02-.037.042-.055.063l-.03.032c-.017.022-.037.043-.055.064L.68 6.13c-.008.01-.017.018-.026.03l-.084.093a.647.647 0 0 1-.023.027c-.005.004-.007.01-.008.016a.288.288 0 0 1-.072-.084l-.003-.005" fill="#349a43" mask="url(#f)" transform="translate(4 15)"/><path d="M4.152 4.815H3.76c-.006.005-.014.004-.022.004l-.27-.001a.037.037 0 0 0-.03.014l-.16.18-.15.173-.156.177-.09.102c-.005.004-.008.01-.016.006-.002-.012 0-.024 0-.037v-.197c0-.011.002-.02.01-.027.066-.077.133-.153.2-.228.046-.053.091-.105.14-.157.001-.004.006-.007.01-.01.008-.003.017-.002.026-.002h1.192l.04-.001c-.005.006-.012.003-.019.003h-.294z" fill="#07883e" mask="url(#f)" transform="translate(4 15)"/><path d="M3.226 4.814c-.01.019-.027.03-.04.048l-.064.074-.035.039-.058.067-.027.03c-.029.03-.055.064-.084.095-.016.016-.03.035-.045.05-.006.006-.006.013-.006.02v.233c.006.006.005.014.005.022v.315c0 .008 0 .015-.005.022v.215c-.004-.01-.003-.02-.003-.03v-.83a.365.365 0 0 1 .106-.252.378.378 0 0 1 .256-.118M1.654 6.386c-.004-.001-.01 0-.015-.002a.04.04 0 0 1 .015-.021c.022-.027.046-.053.07-.08.017-.022.038-.043.057-.065s.04-.044.058-.067c.01-.011.02-.021.028-.032l.067-.077.032-.036c.004-.003.007-.008.014-.008a.182.182 0 0 1 0 .033c-.004.008.001.017-.003.026v.006c-.004.005 0 .01-.003.014v.002c-.004.004 0 .01-.004.014a.383.383 0 0 1-.287.289h-.009c-.004.004-.01 0-.014.004z" fill="#0d8a3e" mask="url(#f)" transform="translate(4 15)"/><path d="M1.98 2.343c.001-.013-.004-.025.003-.036 0 .012 0 .023-.003.036" fill="#6fb249" mask="url(#f)" transform="translate(4 15)"/><path d="M1.977 6.057c0-.01-.003-.018.003-.026 0 .008 0 .017-.003.026m-.003.02c0-.005-.002-.01.002-.015a.02.02 0 0 1-.002.015m-.004.016c0-.005-.001-.01.004-.014 0 .005 0 .01-.003.014m-.311.293c.004-.005.01-.003.013-.003-.004.003-.008.003-.013.003" fill="#138d3f" mask="url(#f)" transform="translate(4 15)"/><path d="M2.26 1.984c.003-.004.007-.003.01-.003-.002.003-.005.003-.01.003" fill="#6fb249" mask="url(#f)" transform="translate(4 15)"/><path d="M4.81 4.549c0 .003 0 .006-.003.008 0-.003 0-.006.003-.008m-.003.01c0 .003 0 .006-.003.008 0-.004 0-.006.003-.008" fill="#007a3d" mask="url(#f)" transform="translate(4 15)"/><path d="M4.562 1.987c.003 0 .006 0 .007.002-.003.001-.005 0-.007-.002" fill="#2f9842" mask="url(#f)" transform="translate(4 15)"/><path d="M4.827 4.465h.003l-.003.003v-.003" fill="#0a893e" mask="url(#f)" transform="translate(4 15)"/><path d="m4.716 2.081.003.004c-.002 0-.003-.002-.003-.004m-.003-.003.003.003c-.002 0-.003 0-.003-.003m-.003-.003c.001 0 .002.001.002.003-.002 0-.003-.002-.003-.003m-.003-.004c.002.001.003.002.003.004-.002 0-.003-.002-.003-.004m-.004-.003c.002 0 .003.002.003.003-.002 0-.003 0-.003-.003" mask="url(#f)" transform="translate(4 15)" fill="#279541"/><path d="M4.97.399h.197c.005.007 0 .012-.003.016l-.097.11-.131.149-.103.118c-.044.05-.09.1-.132.15l-.105.119-.13.149-.107.122-.102.116-.106.12-.106.12-.11.125a12.4 12.4 0 0 0-.102.118l-.033.036h-.2c.005-.012.017-.02.024-.03l.029-.032.065-.074c.008-.011.018-.021.027-.031.027-.032.057-.062.084-.094l.069-.08.074-.083.068-.078.08-.093.06-.068c.02-.02.038-.043.056-.063l.025-.03.06-.066.055-.064.028-.032c.018-.022.039-.043.057-.064L4.543.89 4.6.826l.059-.07A.21.21 0 0 0 4.684.73l.06-.068L4.8.598l.028-.031c.018-.022.039-.044.059-.065.024-.03.048-.057.073-.084a.033.033 0 0 0 .01-.02" fill="#44a144" mask="url(#f)" transform="translate(4 15)"/><path d="M3.8 1.967c0-.008.006-.013.01-.018l.059-.065.055-.064.028-.032.084-.094c.027-.03.05-.061.077-.09l.035-.038a3.5 3.5 0 0 0 .058-.068l.027-.03c.029-.03.056-.063.084-.095l.072-.082.072-.081.09-.105.072-.08c.028-.031.054-.063.08-.093.02-.023.04-.043.059-.066L4.82.799l.06-.066.057-.067.025-.028c.019-.024.04-.045.06-.067l.055-.065.028-.031c.018-.022.037-.041.055-.062.004-.004.007-.008.007-.014h.195c.005.006 0 .01-.003.015l-.091.105-.105.12c-.036.04-.072.083-.11.124L4.952.88l-.11.125-.102.116c-.036.04-.072.083-.11.124l-.102.118c-.037.042-.072.083-.11.124-.034.039-.067.079-.102.117l-.108.124-.105.118c-.035.04-.07.082-.106.12z" fill="#3e9e44" mask="url(#f)" transform="translate(4 15)"/><path d="M3.995 1.967c.001-.01.008-.015.013-.021.018-.021.038-.041.057-.064l.06-.068a.858.858 0 0 1 .026-.031l.061-.067c.026-.03.05-.061.077-.09l.06-.067c.02-.021.037-.043.055-.065.01-.01.02-.02.028-.031l.058-.064a3.676 3.676 0 0 1 .108-.123c.027-.033.056-.063.084-.095a2.74 2.74 0 0 1 .071-.081l.077-.09c.021-.022.041-.047.062-.07l.06-.067c.006-.01.015-.018.023-.027.03-.031.055-.065.084-.095l.078-.09.033-.037.06-.068a.268.268 0 0 1 .027-.03c.03-.032.054-.065.084-.095.006-.007.01-.015.016-.021.004-.003.005-.006.004-.011h.196c.004.007 0 .012-.005.017l-.099.113c-.036.04-.07.082-.107.122-.037.04-.072.083-.108.124L5.11.92l-.105.119-.13.149-.104.118c-.044.05-.088.099-.13.15l-.106.118-.13.149-.109.123-.104.12z" fill="#389c43" mask="url(#f)" transform="translate(4 15)"/><path d="M4.191 1.967c0-.006.003-.011.006-.015l.055-.06.06-.07.03-.033.063-.073.026-.03c.03-.031.055-.063.084-.094.027-.03.051-.061.077-.09.021-.021.04-.045.061-.067.02-.022.037-.044.056-.066.01-.01.02-.02.028-.031.018-.022.038-.043.058-.064l.08-.093.03-.034c.022-.025.044-.048.064-.074l.025-.028.061-.067.054-.065a.261.261 0 0 0 .027-.03c.028-.031.057-.062.084-.094.024-.027.048-.053.071-.081l.081-.093c.02-.021.04-.043.057-.064l.082-.094c.012-.013.022-.027.035-.04A.033.033 0 0 0 5.557.4h.15c0 .008-.008.014-.013.02l-.057.065-.059.068-.026.029-.084.095c-.027.029-.05.06-.078.09-.02.02-.039.045-.06.067l-.059.069-.025.028c-.029.03-.055.063-.084.095-.027.028-.052.059-.078.088l-.033.039-.06.068-.027.03c-.029.03-.055.065-.084.095l-.07.08c-.028.03-.054.063-.08.094-.02.02-.04.043-.06.065-.019.023-.04.044-.058.068-.009.01-.02.02-.029.032-.02.025-.043.05-.065.075l-.026.028-.084.095-.064.074-.007.01z" fill="#349a43" mask="url(#f)" transform="translate(4 15)"/><path d="M.711 6.382a.01.01 0 0 1-.01-.002c.004-.001.008-.001.01.002" fill="#2f9842" mask="url(#f)" transform="translate(4 15)"/><path d="M.464 6.206c0 .002.002.003.003.005a.005.005 0 0 1-.003-.005" fill="#389c43" mask="url(#f)" transform="translate(4 15)"/><path d="M6.167.428c-.003 0-.008 0-.009-.004.003 0 .007 0 .01.004" fill="#279541" mask="url(#f)" transform="translate(4 15)"/><path d="M6.351.59c-.004 0-.004-.003-.004-.006.003 0 .004.004.004.006M6.347.584c-.003 0-.004-.004-.004-.007.003.002.004.004.004.007" fill="#1e9140" mask="url(#f)" transform="translate(4 15)"/><path d="M6.175.43c-.003 0-.006 0-.007-.002.003 0 .006 0 .007.003M6.158.424c-.003 0-.005 0-.007-.003.003 0 .006 0 .007.003" fill="#279541" mask="url(#f)" transform="translate(4 15)"/><path d="M6.353.594C6.351.593 6.35.592 6.35.59c.002 0 .003.002.003.004" fill="#1e9140" mask="url(#f)" transform="translate(4 15)"/><path d="M2.867 5.828V5.47c.002 0 .005 0 .006-.002l.054-.063.026-.029c.019-.024.04-.045.06-.069a.855.855 0 0 0 .055-.063l.027-.03.084-.095.071-.08.08-.093a1.76 1.76 0 0 1 .058-.064l.052-.06c.005-.006.009-.009.016-.009l.01.001h.295a.053.053 0 0 1-.014.024 3.22 3.22 0 0 0-.117.135l-.061.067c-.018.02-.036.043-.055.063l-.028.032c-.018.022-.038.043-.057.064l-.082.095-.03.034c-.021.023-.044.048-.064.073l-.027.03c-.021.022-.04.045-.06.068l-.078.09-.06.067-.055.064-.027.03c-.019.023-.04.045-.059.066-.006.006-.012.011-.02.012" fill="#00853d" mask="url(#f)" transform="translate(4 15)"/><path d="M13.15 18.24c-.588 0-.87.446-.87.885 0 .392.253.877.864.877.583 0 .825-.522.814-.89.011-.426-.22-.873-.808-.873zm-1.414-.297h.52v.332h.011c.145-.175.48-.388 1-.388.853 0 1.268.56 1.268 1.192 0 .645-.375 1.273-1.263 1.273-.52 0-.814-.16-.982-.378h-.01v1.292h-.544zm5.084 1.233c-.116 0-.23-.01-.346-.01-.295 0-1.022.037-1.022.453 0 .249.301.383.55.383.535 0 .818-.267.818-.618zm-1.61-1.066c.272-.13.594-.222.97-.222.842 0 1.182.333 1.182.975v.973c0 .268.012.393.023.46h-.508v-.303h-.01c-.128.143-.417.36-.913.36-.634 0-1.078-.222-1.078-.734 0-.59.807-.775 1.367-.775.213 0 .363 0 .577.009 0-.406-.185-.614-.728-.614-.305 0-.634.092-.853.24zm2.66 2.824a.95.95 0 0 0 .254.038c.485 0 .646-.536.646-.582 0-.051-.069-.171-.104-.25l-.998-2.196h.594l.791 1.948h.011l.808-1.948h.548l-1.085 2.404c-.201.453-.415.975-1.13.975-.173 0-.272-.02-.369-.033zm4.783-2.594a1.952 1.952 0 0 0-.588-.101c-.606 0-.946.434-.946.88 0 .42.282.883.98.883.185 0 .416-.046.583-.134l.04.388c-.225.083-.485.097-.68.097-.889 0-1.5-.56-1.5-1.233 0-.716.6-1.232 1.5-1.232.22 0 .501.042.657.093zm1.807 1.662c.634 0 .916-.462.916-.882 0-.447-.34-.881-.917-.881-.583 0-.923.434-.923.881 0 .42.282.882.923.882m0-2.114c.895 0 1.494.517 1.494 1.232 0 .674-.61 1.233-1.494 1.233-.889 0-1.5-.559-1.5-1.233 0-.715.6-1.232 1.5-1.232m2.025.055h.508v.342h.012c.207-.273.501-.398.934-.398.341 0 .681.14.837.457.202-.337.646-.457.911-.457.75 0 1.021.388 1.021.901v1.51h-.542v-1.404c0-.29-.086-.655-.525-.655-.554 0-.773.433-.773.872v1.186h-.542v-1.403c0-.29-.087-.655-.526-.655-.553 0-.773.433-.773.872v1.186h-.542zm4.856.375h.075c.05 0 .093-.007.093-.067 0-.054-.05-.063-.092-.063h-.075zm-.083-.194h.168c.108 0 .166.038.166.132 0 .08-.043.116-.118.123l.122.198h-.087l-.117-.195h-.05v.195h-.084zm.455.228c0-.187-.135-.322-.302-.322s-.302.135-.302.322.135.321.302.321.302-.134.302-.32zm-.701 0a.399.399 0 1 1 .797 0 .399.399 0 0 1-.797 0z" fill="#000"/></g></svg>