<svg height="36" viewBox="0 0 36 36" width="36" xmlns="http://www.w3.org/2000/svg"><mask id="a" fill="#fff"><path d="M0 0h5.465v2.7H0z" fill-rule="evenodd"/></mask><mask id="b" fill="#fff"><path d="M0 0h20.596v2.134H0z" fill-rule="evenodd"/></mask><g fill="none" fill-rule="evenodd"><path d="M18 0c2.837 0 5.52.656 7.907 1.825C31.884 4.753 36 10.895 36 18c0 9.942-8.058 18-18 18-9.94 0-18-8.057-18-18C0 8.06 8.06 0 18 0z" fill="#f2f4f7" fill-rule="nonzero"/><path d="M4.012 20.453h5.464v-3.461H4.012z" fill="#008542"/><path d="M4.012 16.327h5.464V15H4.012z" fill="#fdc82f"/><path d="M1.516 1.07h.458c.085 0 .171.057.171.149 0 .131-.108.223-.252.223h-.486zm-.218.761h.395c.195 0 .2.046.23.097.029.046.01.138 0 .172-.03.034-.063.166-.315.166h-.435zM3.76 1.07h.429c.2 0 .212.137.212.177 0 .097-.08.275-.332.275h-.435s.12-.446.126-.452zM5.465.664V0H0v.664h1.053l-.59 2.014H1.66c.515 0 .607-.12.715-.206.138-.12.212-.401.149-.595a.378.378 0 0 0-.183-.218c.154-.08.246-.246.263-.269.057-.126.109-.349-.046-.532-.12-.154-.36-.194-.532-.194h1.27L2.713 2.69h.589l.217-.773h.344c.24 0 .223.154.229.217l.023.566h.542s-.023-.634-.023-.68c-.006-.16-.114-.235-.206-.235a.732.732 0 0 0 .383-.309.554.554 0 0 0 .058-.492c-.098-.274-.366-.32-.544-.32z" fill="#fff" mask="url(#a)" transform="translate(4 16.328)"/><path d="m6.654.326.08-.269H4.881l-.149.532h.595l-.424 1.488h.658L5.985.589h.601zm1.23.606c.172-.017.275-.063.309-.194.046-.143-.051-.212-.206-.212h-.309l-.114.406h.263zm0 .831c0-.018.012-.023.012-.035.046-.166.057-.257-.012-.309-.04-.029-.12-.046-.24-.046h-.2l-.201.704h-.657l.068-.263.503-1.757h.951c.674 0 .835.183.732.572-.069.24-.223.429-.481.498.195.074.309.126.195.532-.08.269-.115.355-.029.355l-.023.063h-.675c0-.045.017-.16.057-.314zM10.213.04c.097-.023.2-.04.297-.04.722 0 .916.526.768 1.053-.166.572-.59.939-1.065 1.047a1.74 1.74 0 0 1-.309.034c-.629 0-.944-.394-.75-1.087C9.309.515 9.71.143 10.213.04zm0 1.574c.189-.08.326-.298.4-.561.075-.269.046-.567-.246-.555a.44.44 0 0 0-.154.028c-.212.086-.337.321-.395.527-.08.257-.085.589.229.589.057 0 .115-.017.166-.028zm2.363-.384c.212 0 .361.017.309.189-.04.143-.154.183-.309.183h-.32l.108-.372h.207zm0-.704h.218c.143 0 .269.006.229.16-.035.115-.149.183-.281.183h-.269l.092-.343zm0 1.546c.458-.024.796-.189.91-.601.063-.224 0-.413-.2-.47.148-.074.331-.229.383-.435.12-.4-.212-.509-.669-.509h-.968l-.577 2.02h.99c.045 0 .091 0 .131-.005zm2.506-1.14c.172-.017.275-.063.315-.194.04-.143-.057-.212-.212-.212h-.303l-.114.406h.257zm.945-.257c.005-.017.005-.029.011-.046.046-.148.046-.274-.011-.36-.086-.143-.31-.212-.727-.212h-.95l-.572 2.02h.658l.2-.704h.2c.132 0 .201.017.246.046.069.052.058.143.012.309-.006.012-.006.017-.012.035a.957.957 0 0 0-.051.314h.669l.017-.063c-.08 0-.045-.086.029-.355.115-.406 0-.458-.189-.532a.69.69 0 0 0 .47-.452zm4.56-.029c.051-.36-.12-.646-.681-.646-.503 0-.944.218-1.064.652-.212.767 1.012.561.915.864-.023.098-.148.155-.314.155a.335.335 0 0 1-.172-.052.188.188 0 0 1-.063-.166h-.635c-.086.367.171.681.698.681.561 0 1.018-.229 1.144-.704.218-.726-1.001-.543-.915-.846.017-.075.097-.115.246-.115.057 0 .12.012.154.034.046.029.069.069.057.143zm-3.348-.52.046-.069h.67l.149 2.02h-.658v-.263h-.664l-.149.263h-.652l.046-.063L17.239.12zm0 1.264h.207L17.44.669l-.201.349-.206.372zM1.276.526h-.178l-.12.446h.298c.143-.005.257-.068.303-.234.057-.183-.149-.212-.292-.212zm0 .922H.835l-.172.629H0L.572.057h.967c.589 0 .789.269.675.681-.12.406-.423.675-.938.71zm2.654.629H2.242l.573-2.02h1.642l-.126.469h-.99l-.085.292h.84l-.137.469H3.13l-.092.315h1.018z" fill="#008542" mask="url(#b)" transform="translate(11.404 16.946)"/></g></svg>