<svg height="36" viewBox="0 0 36 36" width="36" xmlns="http://www.w3.org/2000/svg"><g fill="none" fill-rule="evenodd"><path d="M18 0c2.837 0 5.52.656 7.907 1.825C31.884 4.753 36 10.895 36 18c0 9.942-8.058 18-18 18-9.94 0-18-8.057-18-18C0 8.06 8.06 0 18 0z" fill="#f2f4f7" fill-rule="nonzero"/><path d="m32 20.354-1.005-1.82a1.847 1.847 0 0 0-1.08-3.347h-2.824v5.167h1.719v-1.252l.566-.001.691 1.253zm-3.191-2.558v-1.33h.626a.665.665 0 0 1 0 1.33zm-3.94 0h-.907l.907-1.643zm-1.415-2.609-1.705 3.092a1.061 1.061 0 1 1 .056-.873l.909-1.654A2.77 2.77 0 0 0 20.812 15a2.773 2.773 0 0 0-2.438 1.442l-1.011 1.837a1.06 1.06 0 1 1 .057-.873l.91-1.654a2.78 2.78 0 1 0 .29 3.738 2.78 2.78 0 0 0 4.646-.402h1.587v1.266h1.691v-5.167zM11.75 17.796h-.906l.906-1.643zm-1.398-2.609-2.85 5.167h1.931l.698-1.266h1.619v1.266h1.692v-5.167zm-6.352 0v5.167h1.718v-1.252l1.106-.001a1.957 1.957 0 0 0 0-3.914zm1.718 2.609v-1.33h.625a.666.666 0 0 1 0 1.33z" fill="#000"/></g></svg>