<svg width="36" height="36" fill="none" xmlns="http://www.w3.org/2000/svg"><path d="M18 0c2.837 0 5.52.656 7.907 1.825C31.884 4.753 36 10.895 36 18c0 9.942-8.058 18-18 18-9.94 0-18-8.057-18-18C0 8.06 8.06 0 18 0z" fill="#F2F4F7"/><path d="M25.492 8H8v19.96h17.492V8z" fill="#fff"/><path d="M18.073 21.542c-.253.147-.413.32-.507.547-.186.507-.08 1.08.307 1.721l-.373.374-.427.627c-.2.547-.12 1.12.28 1.748.24.413.68.613 1.334.6h1.668c.253.027.36-.053.307-.253v-3.029h-.948v.76l-1.067-1.507-.16-.467c0-.267.12-.387.36-.36l.134.04c.106.053.146.133.173.253v.427h1.067v-.36c-.013-.32-.066-.574-.173-.76l-.147-.187c-.227-.214-.534-.32-.92-.347l-.547.04-.36.133z" fill="#FDB813"/><path d="M19.06 26.225h.588l.013-.066-1.294-1.521c-.12.08-.2.24-.254.48a1.08 1.08 0 0 0 .16.854l.214.147.574.106z" fill="#fff"/><path d="M24.304 24.25H22.77v1.682h1.534v1.227h.427V8.747h-3.669v18.466h.213v-7.018h3.03v1.24H22.77v1.575h1.534v1.24zm-13.022-2.294c-.093-.414-.333-.587-.68-.52v2.04c.4.067.627-.146.68-.64v-.88z" fill="#1689C5"/><path d="m14.017 20.128.748-.107c.547.027.973.227 1.254.614l.213.334c.107.32.16.76.107 1.307l-1.348-.013v-.667c-.026-.2-.12-.307-.333-.307-.2.013-.307.146-.307.4v3.99l.04.186c.053.12.133.2.254.214.266.093.413-.027.413-.334v-1.174h-.373v-1.228h1.707v1.655l4.577-16.25H8.747v18.478h.44v-7.058h1.441l.748.08c.547.16.92.44 1.12.88.107.227.174.614.227 1.148.053.747-.013 1.228-.173 1.428-.307.694-.8 1.04-1.495.987l-.48-.013v2.495h3.389c-.68-.147-1.014-.667-1.014-1.508v-4.043c-.093-.8.267-1.307 1.067-1.494zm12.916-9.966c.72 0 1.067-.36 1.067-1.095 0-.693-.347-1.027-1.067-1.027-.734 0-1.081.334-1.081 1.027 0 .734.347 1.095 1.08 1.095zm.867-1.095c0 .64-.28.934-.867.934-.6 0-.894-.293-.894-.934 0-.587.293-.894.894-.894.587 0 .867.307.867.894z" fill="#1689C5"/><path d="M27.426 8.814c0-.24-.16-.36-.44-.36h-.467V9.72h.187v-.547h.213l.347.547h.2l-.36-.56c.227-.027.32-.147.32-.347zm-.453-.2c.187 0 .267.066.267.187 0 .146-.12.213-.334.213h-.2v-.4h.267z" fill="#1689C5"/></svg>