<svg width="36" height="36" fill="none" xmlns="http://www.w3.org/2000/svg"><path d="M18 0c2.837 0 5.52.656 7.907 1.825C31.884 4.753 36 10.895 36 18c0 9.942-8.058 18-18 18-9.94 0-18-8.057-18-18C0 8.06 8.06 0 18 0z" fill="#F2F4F7"/><path d="m31.302 16.204-.632 1.792c-.115.322-.172.506-.279.816h-.011c-.083-.268-.158-.483-.267-.799l-.615-1.812h-.735l1.272 3.326-.089.224a.69.69 0 0 1-.637.428h-.316v.566h.324c.526 0 1-.319 1.195-.81.405-1.014 1.095-2.74 1.488-3.731h-.698zM13.657 18.89c0 1.203-.552 1.855-1.666 1.855-.83 0-1.33-.437-1.508-1.095h.672c.115.305.353.578.848.578.76 0 1.03-.474 1.03-1.376-.005 0-.005-.006-.01-.006-.165.285-.532.537-1.115.537-.937 0-1.534-.678-1.534-1.628 0-.988.646-1.655 1.54-1.655.577 0 .924.247 1.114.52-.006-.069-.006-.14-.006-.21v-.21h.635v2.69zm-2.585-1.141c0 .646.362 1.109.982 1.109.557 0 .988-.394.988-1.13 0-.651-.379-1.088-.988-1.088s-.982.437-.982 1.109zm3.633.284c.026.583.4 1.046 1.046 1.046.457 0 .678-.216.847-.5h.64c-.189.6-.714 1.031-1.513 1.031-1.025 0-1.666-.689-1.666-1.729s.667-1.772 1.666-1.772c1.083 0 1.583.824 1.583 1.718v.21h-2.603v-.004zm1.936-.505c-.057-.526-.387-.9-.93-.9-.52 0-.92.343-.983.9h1.913zm1.692-1.325v.426c.107-.31.431-.506.805-.506.083 0 .12.006.163.011v.584a1.317 1.317 0 0 0-.221-.02c-.6 0-.715.442-.715 1.108v1.724h-.64V16.8c0-.209 0-.393-.007-.594h.615v-.003zm7.546 2.85c-.172.284-.494.557-1.057.557-.773 0-1.152-.474-1.152-1.335v-2.071h.638v1.83c0 .651.215 1.045.735 1.045.684 0 .804-.62.804-1.35v-1.525h.64v2.823c0 .172 0 .336.007.5h-.615v-.474zm2.048-2.849h.62v.494h-.62v1.996c0 .316.158.41.405.41.043 0 .12-.005.158-.01v.473c-.095.012-.164.026-.247.026-.589 0-.962-.195-.962-.862v-2.033h-.5v-.494h.5v-.9h.646v.9zM4.664 18.32H4v1.207h.664V18.32zm1.835-3.099c-.356-.19-.603-.221-1.186-.221H4v2.746h1.307c.52 0 .908-.032 1.25-.258.373-.247.565-.658.565-1.132 0-.514-.238-.925-.623-1.135zm-1.04 1.95h-.795V15.59l.75-.006c.683-.008 1.025.233 1.025.778 0 .587-.423.81-.98.81zM19.692 15H20.8c1.66.011 2.458.822 2.464 2.275.006 1.238-.635 2.238-2.355 2.255h-1.215V15h-.003zm.672 3.964h.388c1.203 0 1.832-.46 1.832-1.692-.003-1.083-.626-1.703-1.77-1.703-.22 0-.45.005-.45.005v3.39zm-10.915.566c-.02-.133-.02-.216-.032-.457-.252.362-.589.52-1.12.52-.698 0-1.203-.342-1.203-.962 0-.716.683-.951 1.57-1.072a11.6 11.6 0 0 1 .684-.075c0-.657-.364-.856-.746-.856s-.661.268-.661.618h-.62c0-.675.53-1.129 1.295-1.129.764 0 1.353.316 1.353 1.534v.646c0 .537.026.931.083 1.235H9.45v-.002zm-1.666-.908c0 .31.253.505.658.505.594 0 .913-.361.913-1.008 0-.083 0-.14.006-.178-1.083.112-1.577.219-1.577.68z" fill="#06AC38"/></svg>