<svg height="36" viewBox="0 0 36 36" width="36" xmlns="http://www.w3.org/2000/svg"><mask id="a" fill="#fff"><path d="M0 0h24v20.51H0z" fill-rule="evenodd"/></mask><g fill="none" fill-rule="evenodd"><path d="M18 0c2.837 0 5.52.656 7.907 1.825C31.884 4.753 36 10.895 36 18c0 9.942-8.058 18-18 18-9.94 0-18-8.057-18-18C0 8.06 8.06 0 18 0z" fill="#f2f4f7" fill-rule="nonzero"/><path d="m11.707 7.678-.429.019-.132-.474-.356.338v.625l.546.038-.127.286.498-.012zm.956.176-.059.488.058.11.567-.013-.078-.76-.509.109zm-.195 1.385-.351 1.366-.527.253.02-.566.039-1.033-.488.019-.14-.455-.314.279-.171 1.893-.975-.663.507-.293-.045-.842-.404.198-.273-.956.63-.102-.025-.796-.527-.682.468-.098.586-1.093.37.917.371.137-.022.267.647-.033-.313-1.308 1.093.47-.249.821.698-.139.41-1.288.956.702-.858.625.8.058.273.742-.645-.02-.078.84.644.019.235.761-.84.058-.195 1.385-.507.333-.332-1.796-.466.02zm7.816-.986a.088.088 0 1 0 .001.176.088.088 0 0 0 0-.176zm2.876.161c.147-.087.549 0 .549 0s-.249-.285-.775-.116c-.21.066-.235-.045-.673-.22-.44-.175-1.069-.212-1.537-.102-.315.073-.87.248-.93.424-.058.176.981.358 1.01.314.029-.043.029-.27.029-.27s.008.204.33.424c.321.22.958.066.768.022-.19-.044-.358-.227-.358-.227s.134.055.158.06c.43.092 1.08-.222 1.224-.11.154.116.666.043.666.043s-.608-.154-.461-.242zm-3.351-.205c.223-.175.67-.297.888-.347.182-.043.392-.066.609-.066a2.73 2.73 0 0 1 1.348.336c.09.047.13.068.17.068.02 0 .044-.004.074-.014l.037-.01c-.142-.056-.276-.128-.2-.178.145-.093.542-.008.542-.008s-.241-.3-.819-.176c-.215.047-.2-.086-.644-.248a2.31 2.31 0 0 0-.44-.102c-.07-.011-.129-.259-.203-.264-.107-.008-.273.242-.38.245-.202.007-.436.03-.609.077-.312.084-.826.28-.878.457-.028.092.237.176.505.23zm4.19-3.907L24 11.944l-5.698-3.828zm-4.12 3.604a.088.088 0 1 0-.175.006.088.088 0 0 0 .176-.006zM1.913 6.605a.173.173 0 0 1-.109-.04l-.838 1.23h1.928l-.849-1.252a.173.173 0 0 1-.132.062zm1.384 2.247-.02-.1H.61l-.021.1c-.027.132.1.25.266.25H3.03c.166 0 .293-.118.266-.25zM.634 8.634h2.617l-.154-.75c-.008-.034-.037-.063-.077-.077a.055.055 0 0 0-.008-.045l-.928-1.369a.178.178 0 0 0-.075-.11l-.03-.042a.058.058 0 0 0-.047-.027.06.06 0 0 0-.049.026l-.013.02a.175.175 0 0 0-.134.17l.003.022-.892 1.31a.055.055 0 0 0-.005.055.106.106 0 0 0-.054.068zm5.064-.518L0 11.944V4.302zm4.749 10.059h1.068v-1.463h-1.068zm-.035-1.511h.283v-.92H8.289v1.496h2.123zm0 .67H8.207V15.65h2.569v1.013h.07v-1.079H8.137V17.4h1.04v.349H8.84v.229h1.303v-.23h-.338V17.4h.607zm1.412-4.466.001 7.643-5.698-3.829zm-1.24 5.11h.793v-1.125h-.792zm.455.066a.06.06 0 0 0-.058-.06c-.033 0-.06.027-.06.06s.027.058.06.058a.058.058 0 0 0 .058-.058zm-.524.066h.93v-1.332h-.93zm4.855-1.45h-.218l.067.29h-.444l-.03-.29h-.196l.022.29h-.381l-.013-.29h-.176l-.016.29h-.38l.02-.29h-.175l-.05.29h-.42l.067-.29h-.192l-.19.513h2.896zm-2.839.605c.012.016.03.025.05.025h.219v.505c0 .033.025.058.058.058s.06-.025.06-.058v-.505h2.457v.505c0 .033.026.058.059.058a.058.058 0 0 0 .058-.058v-.505h.154a.06.06 0 0 0 .048-.025.065.065 0 0 0 .007-.055l-.238-.636c-.002-.006-.007-.009-.01-.014v-.42H12.78v.411a.045.045 0 0 0-.018.023l-.238.636a.062.062 0 0 0 .006.055zm.25-1.226h2.672v-.08a.118.118 0 0 0-.118-.118h-.86c-.329 0-.425-.467-1.002-.467-.476 0-.692.372-.692.584zm-.566-3.17 5.698 3.813-5.699 3.83zm4.978-.452c0-.093.034-.17-.155-.175a.914.914 0 0 0-.335-.54v-.363a.035.035 0 0 0-.035-.036h-.186v-.346h-.675v.346h-.186a.035.035 0 0 0-.035.036v.363a.91.91 0 0 0 0 1.445v.364c0 .02.016.036.035.036h.186v.345h.675v-.345h.186c.02 0 .035-.016.035-.036v-.364a.913.913 0 0 0 .338-.554c.186-.005.152-.081.152-.176zm.719-3.841v7.642l-5.698-3.828zm-1.363 3.03v-.149h-.808v.15a.915.915 0 0 1 .808 0zm-.808 1.637v.149h.808v-.15a.916.916 0 0 1-.405.097.915.915 0 0 1-.403-.096zm.79-1.138a.077.077 0 0 0-.109-.007l-.215.189a.15.15 0 0 0-.063-.015c-.013 0-.025.006-.038.009l-.3-.366a.077.077 0 0 0-.119.099l.312.381c-.002.01-.006.019-.006.03a.152.152 0 0 0 .303 0c0-.003 0-.006-.002-.01l.23-.2a.077.077 0 0 0 .007-.11zm.333.152a.72.72 0 0 1 .004.323.742.742 0 0 1-1.127.466.748.748 0 0 1-.337-.622.737.737 0 0 1 .337-.62.74.74 0 0 1 1.123.453zm1.962.904c0 .117.299.218.738.27h1.378c.44-.052.738-.153.738-.27zm.353-1.493c0 .608.225 1.137.556 1.413h1.036c.032-.028.062-.059.093-.09.349-.152 1.124-.53 1.124-.874a.309.309 0 0 0-.105-.239c-.148-.13-.414-.136-.56-.13 0-.026.004-.052.004-.08H19.52c-.005.084-.002.202.027.34.06.279.154.415.155.417a.082.082 0 0 1-.02.114.08.08 0 0 1-.047.015.08.08 0 0 1-.067-.035c-.005-.006-.113-.16-.181-.477a1.478 1.478 0 0 1-.031-.374zm.858-.848c-.013.132.18.244.163.408-.015.163-.033.266-.033.266s.215-.193.231-.359c.017-.165-.176-.274-.163-.406.012-.133.032-.267.032-.267s-.218.226-.23.358zm-1.734-2.244L24 12.39l-5.698 3.828zm3.522 3.541a.143.143 0 0 0-.05-.115c-.103-.09-.328-.096-.462-.088a2.04 2.04 0 0 1-.246.8c.387-.195.758-.439.758-.597zm-16.674.684-.018-.295V12.5c-.4.042-1.514.13-2.243.19-.861.071-1.274.047-1.478.049l-.005.205c.001.007.005.012.014.016l.21.029c.219.03.445.04.665.026l2.84-.196c.008 0 .015-.01.015-.018zm-3.721-.156a34.626 34.626 0 0 0 1.886-.076 1.232 1.232 0 0 0-.042-.08c-.078-.132-.275-.31-.277-.313l.08-.087c.008.009.21.194.297.341.029.046.05.09.066.13l.177-.013a1.283 1.283 0 0 0-.03-.058 1.818 1.818 0 0 0-.278-.313l.08-.087c.008.009.21.194.298.341.022.037.04.073.055.106l.174-.015a1.047 1.047 0 0 1-.018-.032 1.818 1.818 0 0 0-.277-.313l.08-.087c.008.009.212.194.298.341.017.028.03.054.043.08.058-.004.115-.01.172-.016l-.004-.005c-.077-.132-.274-.31-.276-.313l.078-.087c.009.009.213.194.3.341l.029.053.766-.073-.008-.008c.015-.02.074-.13-.017-.495-.009 0-.115-.343-.191-.532a.04.04 0 0 0-.026-.025s-.154-.089-.242.05-.114.35-.293.362c-.177.012-.25-.057-.3-.125s-.066-.098-.084-.175c-.018-.077-.022-.182-.08-.204l-.063-.024c-.071-.026-.146.02-.197.067-.052.047-.136.136-.278.205-.143.07-.272.088-.272.088l-.054.057c-.004 0-.004.005-.004.005L3 11.66l.012.023-.057.043-.047-.02h-.004l-.075.041c-.004 0-.004.01-.004.01l.018.024-.063.035-.05-.022h-.004l-.005.001-.07.044v.004l.022.034-.065.033-.043-.024s-.003-.004-.003 0l-.076.036-.004.005v.004l.015.035-.058.038-.042-.023h-.01l-.071.036-.004.004v.005l.015.035-.076.04-.034-.023s-.005-.004-.008 0c-.023.015-.043.035-.063.053-.003.005-.003.005.001.01l.015.022c-.016.024-.09.046-.24.127s-.39.192-.492.355zm4.307-4.07v7.643L.04 12.39zm2.565 3.922c.061-.123.104-.231.028-.27-.077-.037-.188.03-.249.153-.06.123-.048.252.028.29.078.039.132-.05.193-.173zm-.345.103a.517.517 0 1 0 1.033-.001.517.517 0 0 0-1.033 0zm-.25 0a.766.766 0 1 1 1.531 0 .766.766 0 0 1-1.531 0zm-.663.804c0 .054.044.098.099.098h2.24a.1.1 0 0 0 .1-.098v-1.52a.099.099 0 0 0-.1-.098h-.298c-.082-.186-.178-.391-.208-.391H8.06c-.03 0-.127.205-.21.39h-.707a.098.098 0 0 0-.1.098zm.234-1.782c0 .046.045.085.099.085h.27c.054 0 .099-.039.099-.085v-.083c0-.047-.045-.086-.099-.086h-.27c-.054 0-.1.039-.1.086zm-1.15-3.046 5.697 3.814-5.698 3.828zm11.47-4.3H16.01c0 .211.33.384.746.396v.638c0 .024-.293.026-.293.026a.056.056 0 0 0 0 .113h.678c.03 0 .057-.025.057-.057a.057.057 0 0 0-.057-.056s-.292-.002-.292-.026v-.638c.416-.012.747-.184.747-.396zm-1.313.41c-.23-.109-.382-.29-.382-.496h.382v-.15c0-.204-.427-.61-.427-.82 0-.145-.018-.542-.03-.77h.081v-.293h-.488v.293h.081c-.01.228-.029.625-.029.77 0 .21-.427.596-.427.82v1.268c0 .065.053.118.117.118h1.005a.117.117 0 0 0 .117-.118zm.231-.7c0 .035.03.063.064.063a.063.063 0 1 0-.064-.063zm.142-.484c0 .044.035.079.078.079s.078-.035.078-.079c0-.043-.035-.077-.078-.077s-.078.034-.078.077zm.2.474c0 .038.03.068.068.068a.068.068 0 1 0 0-.136.068.068 0 0 0-.068.068zm.122-.264c0 .04.033.073.073.073a.073.073 0 1 0 0-.146.073.073 0 0 0-.073.073zm.234.234a.122.122 0 1 0 .243 0 .122.122 0 1 0-.243 0zM17.912 0v7.643l-5.698-3.828zm-2.605 3.824a.049.049 0 0 0-.049.05v1.292a.049.049 0 1 0 .098 0V3.873a.05.05 0 0 0-.05-.049zm4.414.7s-.032.01-.119-.024c-.074-.028-.08-.06-.08-.064a.058.058 0 0 0-.116-.015c-.003.013-.016.123.154.188a.423.423 0 0 0 .147.033.125.125 0 0 0 .078-.02c.025-.02.034-.06.013-.086-.02-.025-.051-.032-.077-.012zm1.837.111c0-.217-.105-.403-.33-.481-.071-.026-.196-.001-.283.001a1.425 1.425 0 0 0-.087-.556 1.665 1.665 0 0 0-.136-.25c-.054-.088-.093-.151-.093-.224l-.001-.003v-.056c0-.26.015-.371.015-.373a.058.058 0 0 0-.051-.066.06.06 0 0 0-.065.051 3.119 3.119 0 0 0-.016.388c0 .238 0 .326-.268.595-.082.083-.148.153-.223.233l-.078.083a2.96 2.96 0 0 0-.244.31c-.086-.005-.194-.014-.253.01-.188.077-.251.238-.251.424 0 .26.27.577.564.577.205 0 .418-.166.508-.355a.713.713 0 0 1-.048-.525.446.446 0 0 0-.193-.132c-.046-.015-.116-.008-.18-.002.047-.065.118-.159.182-.226l.079-.084c.074-.08.138-.149.22-.23.16-.16.234-.268.27-.378l.027.044c.04.065.086.138.128.235.075.175.08.406.078.507a.67.67 0 0 0-.245.013c-.208.085-.277.264-.277.47 0 .29.28.64.625.64s.626-.35.626-.64zm-2.253-.93s.346.052.636-.207c.29-.259.414-.73.414-.73s-.626.078-.853.29c-.284.266-.197.647-.197.647zm4.695.11-5.698 3.828V0zm-3.106.608c-.001 0-.036.012-.137-.028-.073-.027-.093-.061-.094-.075a.058.058 0 0 0-.116-.016c-.001.013-.016.13.168.201a.464.464 0 0 0 .162.036c.045 0 .07-.013.08-.021.026-.02.034-.06.015-.085-.02-.025-.053-.032-.078-.012zm-15.387-.96-1.028-.77-.006-.049-.057.001h-.034c-.054.19-.276.33-.543.33-.258 0-.473-.133-.536-.313l-.079.001-1.092.82.546.605.46-.267-.109 1.477h1.737l-.159-1.435.354.206zM5.737 0v7.643L.04 3.815zm-1.73 3.748-.13-.26-.127.26-.286.041.207.203-.05.285.257-.135.256.135-.049-.285.208-.203zM8.3 2.352c.039-.016.058-.065.043-.108-.015-.043-.058-.064-.097-.047a.703.703 0 0 0-.136.148.592.592 0 0 0 .19.007zm-.543-.156a.057.057 0 0 0-.027-.006c-.04 0-.075.036-.075.081 0 .013.002.025.007.035a.081.081 0 0 0 .04.045.59.59 0 0 0 .191-.007.644.644 0 0 0-.136-.148zm1.341 2.247H6.935v.138s.622.014.937.863h.29c.313-.849.937-.862.937-.862zm-2.182-.452c.102.102.33.147.606.147s.399-.052.39-.092h.178c-.008.04.23.102.438.102.209 0 .464-.068.539-.143.075-.075.176-.532-.088-.796-.001-.005-.888-.783-.888-.783.052.007.104.013.157.015a.23.23 0 0 0 .08-.011c.077-.034.116-.13.086-.216-.03-.086-.118-.129-.195-.095-.064.027-.186.198-.21.231l-.003.005-.008.001-.004-.005c-.024-.034-.145-.204-.21-.231-.077-.034-.163.008-.193.094l-.002.003c-.028.086.01.181.087.213a.214.214 0 0 0 .08.011c.05-.002.1-.007.15-.014 0 0-.886.78-.888.79-.272.272-.205.67-.102.774zm4.908-.176L6.127 7.643V0zM7.41 3.17l.447-.594-.095.173a.043.043 0 0 0 .012.057c.017.013.04.007.05-.014l.178-.316.18.32c.012.02.035.026.052.014.018-.012.023-.038.012-.058L8.15 2.58l.437.619c0 .52-.228.664-.475.764h-.217c-.229-.128-.468-.265-.485-.793z" fill="#d31f2a" mask="url(#a)" transform="translate(6 8)"/></g></svg>