<svg width="36" height="36" fill="none" xmlns="http://www.w3.org/2000/svg"><path d="M18 0c2.837 0 5.52.656 7.907 1.825C31.884 4.753 36 10.895 36 18c0 9.942-8.058 18-18 18-9.94 0-18-8.057-18-18C0 8.06 8.06 0 18 0z" fill="#F2F4F7"/><path d="M18.009 4a.629.629 0 1 0-.002 1.258A.629.629 0 0 0 18.009 4zm0 26.528a.63.63 0 1 0-.002 1.259.63.63 0 0 0 .002-1.259zm0-24.813a.612.612 0 1 0 .001 0m-7.427 3.926a.609.609 0 0 0 .583-.795.612.612 0 1 0-.583.795zm-3.846 5.631a.615.615 0 0 0-.728.493.612.612 0 0 0 .514.712.612.612 0 1 0 .22-1.205m.953 7.857a.612.612 0 1 0 .61 1.062.612.612 0 0 0-.61-1.062zm6.57 5.035a.612.612 0 1 0-.419 1.15.612.612 0 0 0 .42-1.15zm7.486-.001a.612.612 0 1 0 .418 1.15.612.612 0 1 0-.418-1.15zm6.57-5.033a.612.612 0 0 0-.612 1.059.602.602 0 0 0 .304.081.613.613 0 0 0 .308-1.135m1.668-7.367a.612.612 0 1 0-1.205.212.612.612 0 0 0 1.206-.212zM25.042 9.5c.11.092.25.143.393.143h.055a.61.61 0 0 0 .555-.664.612.612 0 1 0-1.003.523m-7.036-1.996a.593.593 0 1 0 0 1.186.593.593 0 0 0 0-1.186zm-2.895 1.621a.593.593 0 1 0-.351-.116.594.594 0 0 0 .352.116m-2.752 1.259a.592.592 0 1 0 .221-1.163.594.594 0 0 0-.66.361.593.593 0 0 0 .443.803m-2.412 1.871c.105.084.235.13.37.13a.68.68 0 0 0 .066 0 .593.593 0 1 0-.436-.127M8.639 14.88a.595.595 0 0 0 .217.043.598.598 0 0 0 .592-.605.592.592 0 0 0-.381-.54.591.591 0 0 0-.76.787c.063.145.18.258.326.316m-.478 2.892H8.2a.592.592 0 0 0 .045-1.183.593.593 0 1 0-.091 1.181m.837 2.202a.593.593 0 1 0-1.156.261.593.593 0 0 0 1.156-.26zm.193 2.346a.593.593 0 1 0 .59 1.027.593.593 0 0 0-.59-1.027zm1.681 2.403a.594.594 0 1 0 .93.73.593.593 0 0 0-.93-.73zm2.848 2.653a.592.592 0 1 0-.194-1.153.595.595 0 0 0 .192 1.157m2.889-.309a.581.581 0 0 0-.44.113.588.588 0 0 0-.127.828.594.594 0 0 0 .478.242.593.593 0 0 0 .09-1.178m3.192.113a.593.593 0 1 0-.707.952.593.593 0 0 0 .707-.952zm2.192-.913a.593.593 0 0 0 .51 1.07.594.594 0 1 0-.51-1.07zm2.281-1.54a.592.592 0 1 0 .802.872.592.592 0 0 0-.802-.872zm2.532-2.359a.592.592 0 1 0-.541 1.055.592.592 0 0 0 .54-1.055zm.652-1.632a.591.591 0 1 0-.442-.707.595.595 0 0 0 .441.712v-.005zm-.224-3.458a.594.594 0 0 0 .59.551h.042a.591.591 0 1 0-.632-.55m-.044-2.305a.592.592 0 1 0 0-1.185.592.592 0 0 0 0 1.185zm-1.819-3.602a.59.59 0 1 0 .733.925.59.59 0 0 0-.733-.924zm-2.105-1.052a.586.586 0 0 0 .443.096.593.593 0 1 0-.443-.096zm-2.473-1.209a.577.577 0 0 0 .452-.04.593.593 0 0 0-.547-1.052.593.593 0 0 0 .095 1.092zm-4.661 1.24a.568.568 0 1 0 .633-.943.568.568 0 0 0-.633.943zm-1.427.51a.568.568 0 1 0 .435-1.05.568.568 0 0 0-.435 1.05zm-1.661.541a.567.567 0 0 0 .476.252.561.561 0 0 0 .472-.252.566.566 0 0 0-.833-.753.566.566 0 0 0-.112.753m-.761 1.263a.568.568 0 1 0 0-1.135.568.568 0 0 0 0 1.135zm-1.483.347a.568.568 0 1 0 .001 0" fill="#A0D035"/><path d="M10.735 14.22a.568.568 0 1 0-.218 1.093.569.569 0 0 0 .218-1.094zm-.791 2.6a.568.568 0 0 0 .639-.77.568.568 0 1 0-.635.774m.519 1.029a.568.568 0 1 0-1.136 0 .568.568 0 0 0 1.136 0zm-.728 2.053a.568.568 0 1 0 .2-1.03.568.568 0 0 0-.205 1.03m1.309.834a.566.566 0 0 0-.928-.184.569.569 0 1 0 .928.185zm.226 2.19a.561.561 0 0 0 .471-.252.567.567 0 1 0-1.029-.427.568.568 0 0 0 .558.681m1.009.094a.568.568 0 1 0 .004 1.137.568.568 0 0 0-.004-1.138m1.234 2.146a.567.567 0 1 0 .006-1.134.567.567 0 0 0-.006 1.134zm1.62-.341a.556.556 0 0 0-.435 0 .567.567 0 0 0 .217 1.093.567.567 0 0 0 .222-1.09m1.191 1.537a.568.568 0 0 0 .656-.72.569.569 0 1 0-1.016.48c.084.124.213.21.36.24zm3.596-1.023a.568.568 0 1 0 .09.875.568.568 0 0 0-.086-.875m1.729-.21a.567.567 0 1 0-1.047.436.567.567 0 0 0 1.047-.436zm.991-1.091a.56.56 0 0 0-.426.086.567.567 0 1 0 .426-.086zm1.522-.856a.568.568 0 1 0-.802.805.568.568 0 0 0 .802-.805zm.926-1.3a.568.568 0 1 0-.642.938.568.568 0 0 0 .642-.938zm.958-.715a.568.568 0 1 0-1.05-.434.568.568 0 0 0 1.05.434zm-.061-1.173a.568.568 0 1 0-.112-.01c.037.006.075.01.113.01m.153-2.717a.568.568 0 1 0 0 1.136.568.568 0 0 0 0-1.136zm-.267-1.578a.568.568 0 1 0 .669.443.567.567 0 0 0-.669-.446m-.134-.438a.568.568 0 1 0-.434-1.05.568.568 0 0 0 .434 1.05zm-1.44-1.614a.568.568 0 1 0-.086-.2.568.568 0 0 0 .087.206m-.539-2.121a.568.568 0 1 0 .002 1.136.568.568 0 0 0-.002-1.136zm-1.547.03a.568.568 0 1 0-.226-.307c.038.125.12.234.229.307m-.876-1.749a.568.568 0 1 0-.433 1.05.568.568 0 0 0 .433-1.05zm-1.851.62a.562.562 0 0 0 .613-.29.568.568 0 1 0-.611.29m-1.475-1.281a.568.568 0 1 0 0 1.136.568.568 0 0 0 0-1.136zm0 17.414a.567.567 0 1 0 0-1.135.567.567 0 0 0 0 1.135zm0-15.709a.538.538 0 1 0 0 1.075.538.538 0 0 0 0-1.075zm-2.726 1.113a.538.538 0 1 0 1.012-.368.538.538 0 0 0-1.012.368zm-1.792.53a.537.537 0 0 0 .3.95h.047a.538.538 0 1 0-.34-.952m-.97 2.662a.543.543 0 1 0-.279-1.05.543.543 0 0 0 .28 1.05zm-.469 1.288a.538.538 0 1 0-.882.619.538.538 0 0 0 .882-.619zm-.133 2.121a.538.538 0 1 0-.615.883.538.538 0 0 0 .616-.883zm.602 2.04a.539.539 0 1 0-.279 1.038.539.539 0 0 0 .28-1.037m.962 2.657a.53.53 0 0 0 .341.126h.048a.54.54 0 1 0-.393-.125m2.808.898a.537.537 0 1 0-1.01-.37.537.537 0 0 0 1.01.37zm4.421.041a.53.53 0 0 0-.151-.647.538.538 0 1 0 .15.647zm1.465-.814a.538.538 0 1 0-.01-1.076.538.538 0 0 0 .01 1.076zm1.178-1.798a.538.538 0 1 0 .54-.93.538.538 0 0 0-.54.93zm1.133-3.114a.536.536 0 0 0-.623.437.54.54 0 1 0 .623-.437zm.437-1.816a.539.539 0 1 0-1.06.186.539.539 0 0 0 1.06-.187zm-1.031-1.559a.538.538 0 1 0-.537-.933.538.538 0 0 0 .537.933zm-2.064-1.781a.532.532 0 0 0 .34.127h.048a.538.538 0 1 0-.393-.124m-2.107-1.725a.54.54 0 0 0 .904.548.538.538 0 1 0-.904-.548zm-1.713 13.315a.539.539 0 1 0 0-1.077.539.539 0 0 0 0 1.077zm0-12.326a.495.495 0 1 0 0 .99.495.495 0 0 0 0-.99zm-3.043 1.55a.495.495 0 1 0-.7.7.495.495 0 0 0 .7-.7zm-1.755 4.237a.495.495 0 1 0 0-.991.495.495 0 0 0 0 .99zm1.755 3.247a.495.495 0 1 0-.7-.7.495.495 0 0 0 .7.7zm6.085 0a.495.495 0 1 0 .7-.7.495.495 0 0 0-.7.7zm2.25-3.741a.495.495 0 1 0-.99-.003.495.495 0 0 0 .99.003zm-1.899-2.898a.495.495 0 1 0-.001-.99.495.495 0 0 0 0 .99zm-3.393 8.198a.495.495 0 1 0 0-.99.495.495 0 0 0 0 .99zm0-7.948a.43.43 0 1 0 0-.86.43.43 0 0 0 0 .86zm0 6.245a.43.43 0 1 0 0-.858.43.43 0 0 0 0 .858z" fill="#A0D035"/></svg>