<svg width="36" height="36" fill="none" xmlns="http://www.w3.org/2000/svg"><path d="M18 0c2.837 0 5.52.656 7.907 1.825C31.884 4.753 36 10.895 36 18c0 9.942-8.058 18-18 18-9.94 0-18-8.057-18-18C0 8.06 8.06 0 18 0z" fill="#F2F4F7"/><path d="M8.02 27.814h.246v.907h-.247v-.907zm2.175 0h.239v.907h-.268l-.495-.632H9.67v.632h-.24v-.907h.286l.477.633h.002v-.633zm1.652.173h-.337v-.173h.92v.173h-.337v.734h-.246v-.734zm1.66-.173h.847v.173h-.601v.188h.57v.165h-.57v.208h.606v.173h-.852v-.907zm1.98 0h.659c.251 0 .293.154.293.247 0 .11-.044.181-.147.218v.003c.108.016.124.153.124.242 0 .045.004.151.047.197h-.269c-.023-.041-.024-.078-.024-.174 0-.127-.055-.158-.13-.158h-.307v.332h-.246v-.907zm.246.402h.326c.055 0 .118-.03.118-.116 0-.09-.07-.113-.13-.113h-.314v.229zm2.48.319h-.418l-.074.186h-.265l.4-.907h.296l.4.907h-.266l-.074-.186zm-.21-.525-.142.36h.285l-.143-.36zm2.375.147c-.024-.13-.132-.196-.26-.196-.234 0-.283.184-.283.307s.05.306.283.306c.12 0 .235-.057.26-.2h.267c-.03.264-.247.373-.536.373-.33 0-.536-.143-.536-.479 0-.337.206-.48.536-.48.219 0 .497.056.534.37h-.265zm1.626-.17h-.337v-.173h.92v.173h-.337v.734h-.246v-.734zm1.66-.173h.246v.907h-.247v-.907zm1.295 0h.271l.263.692.264-.692h.27l-.402.907h-.263l-.402-.907zm2.118 0h.848v.173h-.602v.188h.57v.165h-.57v.208h.607v.173h-.853v-.907zM8 25.03h.828v.223h.007c.154-.178.39-.274.77-.274.554 0 1.063.305 1.063 1 0 .694-.51.998-1.064.998-.349 0-.595-.085-.742-.263h-.007v.858H8V25.03zm1.327 1.372c.308 0 .466-.184.466-.424 0-.246-.137-.424-.47-.424-.328 0-.468.157-.468.424 0 .263.14.424.472.424zm1.711-.804c.05-.257.157-.414.369-.513.21-.096.52-.13.972-.13.872 0 1.218.195 1.218.753v.903a.49.49 0 0 0 .079.29H12.8a.708.708 0 0 1-.03-.184c-.193.178-.484.26-.939.26-.574 0-.937-.154-.937-.633 0-.342.243-.561.876-.588l.722-.035c.17-.01.229-.05.229-.154 0-.123-.154-.181-.397-.181-.195 0-.39.03-.431.212h-.855zm1.704.452c-.144.03-.387.051-.691.078-.158.014-.233.066-.233.185 0 .13.106.212.318.212.287 0 .606-.072.606-.393v-.082zm1.306-1.02h.828v.36h.007c.223-.291.503-.411.797-.411.093 0 .189.007.281.02v.767a1.69 1.69 0 0 0-.428-.069c-.304 0-.63.1-.63.503v.701h-.855v-1.87zm2.217.568c.052-.257.157-.414.37-.513.209-.096.52-.13.972-.13.872 0 1.217.195 1.217.753v.903a.49.49 0 0 0 .079.29h-.876a.743.743 0 0 1-.03-.184c-.192.178-.483.26-.938.26-.575 0-.938-.154-.938-.633 0-.342.244-.561.877-.588l.721-.035c.171-.01.23-.05.23-.154 0-.123-.154-.181-.398-.181-.194 0-.39.03-.43.212h-.856zm1.704.452c-.143.03-.387.051-.69.078-.158.014-.233.066-.233.185 0 .13.106.212.317.212.288 0 .606-.072.606-.393v-.082zm3.045.653h-.006c-.154.178-.39.274-.77.274-.555 0-1.065-.304-1.065-.999 0-.695.51-1 1.065-1 .348 0 .595.086.742.264h.007v-.869h.855v2.528h-.828v-.198zm-.5-1.15c-.307 0-.465.186-.465.425 0 .246.137.424.469.424.329 0 .469-.157.469-.424 0-.263-.14-.424-.472-.424zm3.07-.598c.964 0 1.385.322 1.385 1.01 0 .69-.42 1.012-1.386 1.012-.964 0-1.386-.322-1.386-1.013 0-.687.422-1.01 1.387-1.01zm0 1.468c.345 0 .489-.158.489-.459 0-.294-.144-.455-.49-.455-.342 0-.49.161-.49.455 0 .301.148.459.49.459zm1.501.479.863-.98-.791-.892h1.047l.339.503.338-.503h1.047l-.804.893.876.979h-1.088l-.37-.53-.369.53h-1.088zm.478-11.127c-.101-.496.414-.925.17-1.432-.242-.499-1.42-.474-1.439-1.049-.024-.671.953-.33 1.362-.316 0-1.075-.423-1.994-1.58-1.268-.194 0-.459-.04-.551-.212-.346-.636.712-.771.741-1.285.016-.297-.347-.486-.46-.727-.077-.162-.01-.367-.01-.539 0-.072-.083-.074-.14-.089-.218-.056-.42.07-.645.022-.25-.054-.386-.282-.607-.385 0 .092-.159.211-.211.286-.163.226-.75 1.027-1.106.68-.14-.137-.117-.378-.089-.561.206-1.387-.301-1.538-1.52-1.733-.296-.049-1.05-.227-1.396-.122 0 .239.301 1.899-.233 1.812-.634 0-.287-1.648-1.207-1.857-.152.056-.351.079-.45.223-.13.19.129.771.186.995.07.284.055.664-.062.91v.046c-1.04 0-.934-2.307-2.554-1.177 0 .617 1.47 1.398.965 2.076a.601.601 0 0 1-.373.228c-.788.094-1.1-1.607-1.98-1.456a.488.488 0 0 0-.334.26c-.207.402.768.988.909 1.388.077.218.01.418-.024.628-.742 0-1.615-1.064-2.306-.388-.109.104-.227.25-.184.412.07.282.573.235.726.5l.016.033c.261.594-.34 1.033-.348 1.572-.007.269.202.42.117.716-.296 1.006-1.251-.116-1.706.314-.41.386.057 1.188.087 1.643.019.296-.143.52-.161.81-.019.264.172.462.237.697.087.321-.005.677.173.955.513.795 1.39-1.366 1.778-.456.315.737-1.278.697-1.317 1.256-.04.556.928 1.056 1.296 1.414.323.315.579.719.622 1.171.042.452-.17.91-.285 1.307.164 0 .283.071.456.021.808-.239 1.282-1.53 1.15-2.328-.115-.672-.482-1.248-.527-1.951-.045-.691.63-1.853-.016-2.348a4.297 4.297 0 0 0-.087-.05c0 .072-.155.096-.233.098a.533.533 0 0 1-.35-.125c-.14-.11-.222-.278-.11-.44.156-.228.597-.184.649-.492.112-.68-1.314-.814-.451-1.653.16-.157.383-.28.63-.26.401.03 1.365.316 1.31.829-.025.232-.22.45-.136.71.086.27.482.24.587.494.141.345-.147.601-.119.923.006.08.042.11.104.159.122.094.356.127.427.284.18.4-.305.887.34 1.102 0-.284-.064-.667.186-.815 0 .069.139.163.18.23.204.317.289.616.703.722.015-.603-.326-1.117-.326-1.134.298 0 .48.393.817.303.308-.083.035-.425-.037-.57-.204-.41.09-.744-.035-1.123-.131-.402-1.207-.686-1.537-1.01-.111-.107-.228-.283-.173-.451.202-.63.945-.254 1.464-.402.242-.072.426-.24.6-.43.238-.264.404-.696.255-1.056-.088-.214-.244-.376-.206-.645.157-1.132 1.989-1.069 2.788-.658.408.21.794.69.58 1.179-.192.43-.71.18-1.075.34-.322.138-.744.788-.852 1.094-.162.461.292.809.323 1.256.062.979-.398 1.879-.592 2.761-.037.162.106.381.02.53-.141.238-.434.15-.669.237-.182.068-.265.21-.424.31-.342.211-.736.313-.781.782.216 0 .374-.116.604-.137.032-.003.045.018.046.045 0 .016-.004.03-.006.045-.053.407-.374.752-.18 1.178.29 0 .357-.673.837-.498.056 0 .05.004.064.053.098.313.137.581.306.853.047 0 .196-.042.19-.162-.012-.288-.057-.725.04-.971.141-.366.394-.319.329-.814.074 0 .161-.128.242-.155.587-.205.684-.545 1.43-.52.179.003.361.013.511.086.131 0 .081-.202.035-.36-.262-.865-.592-1.721-.592-2.719h.14c0 .112.441.71.526.85.11.177.47 1 .787.82.148-.087.237-1.12.324-1.349.315-.847 1.204-1.034 1.727-.213.495.775.19 2.41-.444 3.011-.25.231-.602.233-.84.45-.25.228-.026.655-.067.954-.04.277-.223.538-.426.737-.456.443-1.06.642-1.524 1.054-.198.174-.24.462-.482.57-.237.102-.528-.03-.775.043l-.543.34c-.335.174-.874.468-1.052.521 0 .711 1.699.332 2.049.144.248-.134.321-.46.567-.566.262-.114.491.153.773.056.262-.095.507-.306.738-.46.445-.302.925-.557 1.34-.912.14-.123.362-.291.422-.46.108-.3-.367-1.039.474-.917.653.087 1.302-1.224 1.427-1.69.073-.357.144-.719.216-1.078l.27-.65c.131-.535-.345-.517-.423-.904zm-14.776 1.373c-.522.109-.888-.49-.653-.913.099-.179.25-.26.421-.359.206.018.384.038.534.162.436.362.224.998-.302 1.11zm3.486-3.807c-.047.023-.137-.02-.19-.042-.663-.281-.39-.71-.135-1.18.509.202.622 1.077.325 1.222zm.928 1.947c.614.3.825.82.805 1.084-.007.085-.058.157-.058.157s-.158.055-.331-.014c-.493-.198-.416-.725-.416-1.227zm4.887 2.168c-.025.213-.103.306-.24.459-.238 0-.46-.115-.53-.327-.065-.192-.005-.432.011-.625.054-.686.106-1.466.333-2.083.228.506.148 1.097.26 1.67.056.29.205.576.166.906zm3.336-2.983c-.312 0-.616.036-.924-.025-1.163-.23-.16-1.535.088-2.059.474.43 1 1.401.836 2.084z" fill="#100F0D"/></svg>