<svg width="36" height="36" fill="none" xmlns="http://www.w3.org/2000/svg"><path d="M18 0c2.837 0 5.52.656 7.907 1.825C31.884 4.753 36 10.895 36 18c0 9.942-8.058 18-18 18-9.94 0-18-8.057-18-18C0 8.06 8.06 0 18 0z" fill="#F2F4F7"/><path d="M13.21 20.997c.117-.063.173-.093.156-.335v-4.553s.048-.36-.19-.36l-.003-.01h2.287c1.24 0 2.184.62 2.184 1.63 0 1.271-1.497 1.755-2.735 1.544v1.749c-.009.22.078.302.173.335v.007H13.21v-.007zm1.682-5.138.006 2.78c0 .15.226.144.389.094.403-.126.854-.624.854-1.341 0-1.134-.919-1.582-1.249-1.533m6.885 1.337v-1.432h-1.683c-1.733 0-2.198.731-2.198 1.515 0 .87.605 1.226.916 1.382.336.166 1.254.455 1.534.56.283.104.647.254.647.777 0 .54-.56.866-1.07.866-.946 0-1.839-.715-1.979-1.592h-.014V21s1.392-.009 2.055 0c1.067.014 2.212-.465 2.257-1.615.017-.375-.118-1.271-1.3-1.68-.56-.195-.853-.196-1.203-.353-.353-.156-.748-.62-.34-1.103.34-.404 1.706-.843 2.375.947M32 21.007l-2.425-.002c-1.618 0-2.688-1.146-2.721-2.645-.037-1.497 1.142-2.603 2.623-2.603h2.061v1.479c-.213-.418-.711-1.354-1.5-1.356-.855-.002-1.661 1.07-1.661 2.636 0 1.197.918 2.367 1.495 2.367a.5.5 0 0 0 .524-.5v-1.78c0-.156-.233-.233-.336-.233v-.023H32v.016c-.11 0-.143.137-.143.223v2.17c0 .082.067.24.143.24m-5.194-1.721c-.073.596-1.176 1.564-1.702 1.59-.387.02-.499 0-.692 0-.193 0-.288-.036-.288-.24v-2.262c.305.09.476.174.61.26.582.373.711.651.711.651l.023.003v-2.188l-.023-.003s-.12.369-.703.765a2.546 2.546 0 0 1-.618.308v-2.272h.935c.806.05 1.366 1.027 1.537 1.313h.008v-1.445h-4.261v.012c.145 0 .196.197.196.328v4.613c0 .173-.11.278-.199.278V21h4.472l.002-1.726" fill="#4F3826"/><path d="M4 18.412a3.413 3.413 0 1 1 6.827.002A3.413 3.413 0 0 1 4 18.412z" fill="#F35E19"/><path d="m6.951 17.547-1.3-1.767.555 1.164-1.033-.77 1.481 1.616-1.873-1.136.955.862-1.249-.314 1.985.926-2.167-.332 1.215.43-1.274.188 2.19.096-2.128.521 1.285-.065-1.106.66 2.061-.75-1.77 1.296 1.165-.553-.767 1.033 1.616-1.48-1.137 1.873.862-.954-.316 1.248.927-1.986-.334 2.165.42-1.212.2 1.274v-2.185l.615 2.124-.064-1.286.66 1.105-.75-2.058 1.297 1.766-.555-1.163 1.033.77-1.478-1.616 1.873 1.136-.955-.862 1.25.316-1.986-.927 2.164.333-1.212-.432 1.274-.187-2.187-.096 2.125-.52-1.285.065 1.106-.66-2.058.748 1.767-1.295-1.165.552.77-1.033-1.615 1.48 1.136-1.874-.862.954.314-1.248-.927 1.987.333-2.166L7.6 16.52l-.188-1.274-.095 2.19-.52-2.13.064 1.286-.661-1.105" fill="#fff"/></svg>