<svg width="36" height="36" xmlns="http://www.w3.org/2000/svg"><g fill="none"><path d="M18 0c2.837 0 5.52.656 7.907 1.825C31.884 4.753 36 10.895 36 18c0 9.942-8.058 18-18 18-9.94 0-18-8.057-18-18C0 8.06 8.06 0 18 0z" fill="#F2F4F7"/><path d="M11.193 18.222h.647c.252 0 .348.087.348.3 0 .206-.096.293-.348.293h-.647v-.593zm-1.001 2.157h1.001v-.877h1.073c.71 0 .967-.419.967-.96 0-.628-.263-.983-.974-.983h-2.067v2.82zm3.371-2.82h2.696v.687h-1.694v.379h1.574v.687h-1.574v.38h1.694v.687h-2.696v-2.82zm4.117.663h.647c.252 0 .348.087.348.3 0 .206-.096.293-.348.293h-.647v-.593zm-1.001 2.157h1.001v-.877h1.073c.71 0 .967-.419.967-.96 0-.628-.263-.983-.974-.983h-2.067v2.82zm4.01-1.197c-.49-.083-.692-.4-.692-.794 0-.73.643-.928 1.467-.928 1.13 0 1.595.328 1.63.924H21.93a.23.23 0 0 0-.153-.225.733.733 0 0 0-.312-.06c-.299 0-.402.084-.402.202 0 .079.032.13.132.146l1.197.198c.504.083.817.343.817.821 0 .688-.504 1.011-1.63 1.011-.771 0-1.613-.118-1.617-.947h1.208c.003.094.035.157.107.2.074.04.184.06.34.06.313 0 .398-.095.398-.229 0-.083-.046-.166-.18-.19l-1.145-.19zm2.846-1.623h1.002v2.82h-1.002v-2.82zm4.714 1.722c-.064.371-.178.671-.426.876-.245.206-.63.32-1.24.32-.607 0-1.734-.047-1.734-1.508 0-1.462 1.127-1.51 1.734-1.51.604 0 1.535.088 1.666 1.206h-1.13c-.028-.202-.149-.494-.536-.494-.409 0-.668.225-.668.798 0 .572.252.797.618.797.316 0 .505-.146.586-.485h1.13zm1.31-.312c0-.573.26-.798.669-.798.408 0 .668.225.668.798 0 .573-.26.797-.668.797-.409 0-.668-.225-.668-.797zm-1.065 0c0 1.461 1.126 1.509 1.734 1.509.607 0 1.734-.048 1.734-1.51 0-1.46-1.127-1.508-1.734-1.508-.608 0-1.734.047-1.734 1.509zM8.678 17.587c.065-1.353-1.102-2.877-2.693-3.065l.003-.019c1.568 0 2.77 1.452 2.77 2.597-.001.239-.02.386-.054.494l-.026-.007zm-.095.172a2.553 2.553 0 0 1-.39.377c-.282-1.626-1.478-3.049-2.323-3.464l-.018.013c.85.697 1.864 2.052 2.258 3.515a3.294 3.294 0 0 1-.647.37c-.802-.914-1.55-2.677-1.791-3.797l-.024.008c.005 1.086.776 2.93 1.717 3.83-.216.086-.44.148-.669.185-.902-.357-1.544-1.501-1.544-2.673 0-.765.234-1.238.279-1.335l-.02-.008c-.054.083-.396.556-.396 1.382 0 1.324.654 2.337 1.521 2.656-.31.034-.624.02-.93-.044l-.006.02c.093.035.408.167.888.167 1.086 0 1.82-.675 2.116-1.188l-.021-.014z" fill="#28458E"/><path d="M6.38 14.025c-.824 0-1.79.594-1.79 1.138 0 .21.193.387.59.387.924 0 1.782-.634 1.782-1.128 0-.26-.25-.397-.583-.397zm.328.382c0 .416-.799.924-1.466.924-.295 0-.454-.116-.454-.307 0-.422.807-.922 1.433-.922.409 0 .487.208.487.305z" fill="#0096D6"/><path d="M4.262 15.414a.921.921 0 0 0-.115.408c0 .344.348.665.989.665 1.233 0 2.658-.908 2.658-1.75 0-.379-.358-.584-.607-.627l-.005.015c.078.025.36.156.36.493 0 .671-1.257 1.586-2.51 1.586-.48 0-.782-.237-.782-.582 0-.109.023-.18.03-.201l-.018-.007z" fill="#EB7B30"/><path d="M8.302 14.8a.654.654 0 0 1 .237.515c0 1.091-1.71 2.164-3.222 2.164-.901 0-1.312-.445-1.294-.84h.016c.035.205.328.572 1.117.572 1.514 0 3.204-1.11 3.204-2.083a.65.65 0 0 0-.071-.317l.013-.011z" fill="#00984A"/><path d="M8.874 15.818c.007.024.043.128.043.292 0 1.214-1.73 2.253-3.235 2.253-.775 0-1.18-.376-1.265-.529l.014-.01c.214.187.637.33 1.13.33 1.329 0 3.312-1.011 3.294-2.331l.019-.005z" fill="#DF002C"/></g></svg>