<svg height="36" viewBox="0 0 36 36" width="36" xmlns="http://www.w3.org/2000/svg"><mask id="a" fill="#fff"><path d="M0 0h12.212v11.846H0z" fill-rule="evenodd"/></mask><mask id="b" fill="#fff"><path d="M0 0h11.02v12.152H0z" fill-rule="evenodd"/></mask><g fill="none" fill-rule="evenodd"><path d="M18 0c2.837 0 5.52.656 7.907 1.825C31.884 4.753 36 10.895 36 18c0 9.942-8.058 18-18 18-9.94 0-18-8.057-18-18C0 8.06 8.06 0 18 0z" fill="#f2f4f7" fill-rule="nonzero"/><g fill="#233e98"><path d="M11.835 4.175C13.165.892 10.679 0 9.055 0l-5.37.004c.448.306.374.713.286.961L.84 10.97c-.123.394-.591.81-.841.876h4.346c-.24-.043-.58-.385-.457-.85l1.137-3.617s5.229.707 6.809-3.204zM7.612.919c.569 0 2.142.075 1.129 3.058-1.066 3.126-3.427 2.484-3.427 2.484L7.05.919z" mask="url(#a)" transform="translate(4 12.136)"/><path d="M19.315 23.982h2.92c-.937-.305-2.32-1.185-2.87-1.815.448-.489.998-1.097 1.097-2.344h-1.52s.296.167.296.523c0 .331-.133.783-.388 1.107-.444-.659-.921-1.41-1.084-2.513.592-.298 1.429-.618 2.096-1.198.627-.554.773-1.072.785-1.414v-.042c0-.355-.141-.688-.397-.942-.437-.438-1.132-.614-1.856-.478a2.84 2.84 0 0 0-1.332.653c-.887.825-1 2.192-1 2.81 0 .146.006.264.01.331-.05.017-.138.054-.138.054-.644.236-2.368.697-2.984 2.113a2.77 2.77 0 0 0-.19 1.02c0 .388.084.822.332 1.218.434.677 1.175 1.105 2.352 1.083 1.283-.02 2.543-.895 2.77-1.054.223.206.798.745 1.1.888m-.003-7.908c-.151.952-1.384 1.915-1.684 2.046-.053-.535-.031-1.382.418-2.073.294-.459.689-.659 1.007-.548.252.087.284.323.259.575m-1.715 6.372c-.173.105-.85.45-1.488.51-.588.054-1.572-.173-1.57-1.355 0-1.012 1.1-1.747 1.692-2.007.246.982.789 2.084 1.366 2.852"/><path d="M7.22 1.067c1.739-.417 3.17.944 3.304 1.036L11.02.525C10.33.32 5.344-1.37 1.823 2.657c-2.167 2.472-2.7 7.547.05 8.905 2.943 1.454 6.19-.224 6.427-.342l1.35-4.278c.143-.518.47-.854 1.05-1.068H6.029c.683.287.633.8.575 1.008l-1.341 4.28c-.177.035-3.933.968-1.83-5.6.453-1.41 1.72-3.998 3.788-4.495" mask="url(#b)" transform="translate(20.979 12)"/></g></g></svg>