<svg width="36" height="36" fill="none" xmlns="http://www.w3.org/2000/svg"><path d="M18 0c2.837 0 5.52.656 7.907 1.825C31.884 4.753 36 10.895 36 18c0 9.942-8.058 18-18 18-9.94 0-18-8.057-18-18C0 8.06 8.06 0 18 0z" fill="#F2F4F7"/><g fill="#2D95E5"><path d="M17.597 17.812c.3-.031.516-.173.637-.425.1-.204.253-.537.254-.54.153-.315.106-.507.04-.614-.1-.159-.294-.215-.442-.215h-1.507l-1.56 3.314h.784l.597-1.302h.42a.237.237 0 0 1 .178.098c.05.083.037.21-.043.379-.189.406-.339.826-.339.826h.794c.022-.11.054-.217.096-.32.062-.145.246-.603.246-.607.152-.372-.036-.52-.155-.594zm-.083-.547c-.066.14-.168.211-.304.211h-.546l.414-.902h.598a.108.108 0 0 1 .08.043c.025.04.016.105-.024.19l-.136.288-.082.17zm-8.276.547c.3-.032.515-.174.637-.425.1-.205.253-.537.255-.541.152-.314.106-.506.04-.614-.1-.156-.295-.213-.443-.213H8.218l-1.56 3.315h.786l.597-1.302h.42a.237.237 0 0 1 .178.097c.051.084.037.211-.042.38-.19.405-.34.826-.34.826h.795c.021-.11.053-.217.095-.32a32.8 32.8 0 0 0 .246-.608c.152-.373-.036-.521-.155-.595zm-.083-.547c-.067.14-.168.208-.303.208h-.547l.426-.902h.586a.109.109 0 0 1 .08.043c.025.04.016.105-.024.19l-.137.288-.081.173zm3.76-.422c.275-.587-.036-.843-.431-.843h-.952c-.4 0-.682.19-.864.578-.097.208-.26.552-.448.944l-.398.839c-.4.84.198.982.49.982h.602c.602.006.898-.164 1.13-.65.157-.323.373-.786.602-1.276l.27-.574zm-.781-.093-.798 1.7c-.111.234-.184.274-.357.274h-.345c-.06 0-.184-.017-.091-.217.133-.289.694-1.498.809-1.74.078-.166.159-.2.264-.2h.43c.082-.003.155.041.088.183zm2.086.744-.26.552h.412l-.232.501c-.067.146-.113.175-.272.175h-.41c-.123 0-.166-.061-.092-.217.093-.198.83-1.736.83-1.736.083-.175.133-.201.261-.201h.424c.102 0 .158.047.089.184-.015.03-.184.4-.184.4l.747.005.17-.366c.248-.534.026-.783-.488-.79h-.812a.982.982 0 0 0-.92.577c-.148.315-.846 1.783-.846 1.783-.255.537-.107.982.591.982h.624c.498.005.743-.073.97-.572l.582-1.273-1.184-.004zm11.259-1.485-1.562 3.32h.805l1.57-3.32h-.814zm2.809.001-1.823 2.923.922-2.924h-.844l-.773 3.319h1.089l2.275-3.319h-.846zm-6.233 2.167-.067-1.228c-.008-.148.028-.348.298-.348h.544l.28-.592h-.927c-.737 0-.982.449-.956.976.017.322.061 1.37.061 1.37.011.253-.085.369-.322.369h-.62l-.278.602h.988c.656.003 1.042-.424.999-1.15zm1.785-1.227c-.008-.147.029-.348.3-.348h.543l.28-.592h-.928c-.608 0-.99.333-.955.976.018.322.061 1.37.061 1.37.012.253-.085.369-.322.369h-.604l-.278.602h.972c.72 0 1.036-.516.998-1.153l-.067-1.223zm-4.548.895h1.007l.259-.553h-1.011l.321-.688h1.044l.273-.589h-1.818l-1.55 3.314h1.963l.283-.6h-1.19l.419-.884zm8.558 1.484h1.964l.286-.6h-1.194l.42-.884h1.007l.258-.553h-1.01l.321-.688h1.043l.274-.589H29.4l-1.55 3.314zM7.095 17.604c.066-.136.196-.417.344-.743.26-.575-.062-.84-.402-.842h-1.49L4 19.34h.804l.54-1.163h.783c.502.004.764-.15.968-.572zm-.415-.77a74.23 74.23 0 0 1-.267.562c-.065.139-.159.2-.3.2H5.61l.477-1.033h.506c.11 0 .19.056.088.271zm25.189-.594a.073.073 0 0 0-.034-.065.14.14 0 0 0-.074-.015h-.131v.302h.037v-.139h.067l.087.14h.043l-.09-.14c.053-.001.095-.023.095-.083zm-.145.054h-.056v-.11h.087c.037 0 .078.006.078.053-.002.064-.067.057-.109.057z"/><path d="M31.73 16.041a.27.27 0 1 0 0 .54.27.27 0 0 0 0-.54zm0 .508a.237.237 0 1 1 .004-.475.237.237 0 0 1-.003.476z"/></g></svg>