<svg width="36" height="36" fill="none" xmlns="http://www.w3.org/2000/svg"><path d="M18 0c2.837 0 5.52.656 7.907 1.825C31.884 4.753 36 10.895 36 18c0 9.942-8.058 18-18 18-9.94 0-18-8.057-18-18C0 8.06 8.06 0 18 0z" fill="#F2F4F7"/><path d="m15.914 19.134.337.312 4.64-4.215c.26-.205.44.05.207.242l-4.73 4.306h-.595c.138-.645.141-.645.141-.645zm13.056.646-.415 1.93h-.245s-3.869 3.463-4.265 3.8c-.4.336-.758.277-.67-.132l.623-2.894.23-.013s4.5-3.994 4.758-4.246c.258-.251.365-.217.309.047l-.186.865-.138.642zm-4.258-.646.185-.865c.057-.264-.05-.302-.308-.047-.26.255-4.759 4.246-4.759 4.246l-.233.013-.622 2.894c-.088.409.273.468.67.132.4-.337 4.265-3.8 4.265-3.8h.245l.415-1.931h.595l4.727-4.303c.233-.192.054-.447-.207-.242l-4.64 4.215-.333-.312zm-4.394 0 .185-.865c.057-.264-.05-.302-.308-.047-.261.255-4.759 4.246-4.759 4.246l-.233.013-.622 2.894c-.088.409.273.468.67.132.399-.337 4.265-3.8 4.265-3.8h.245l.415-1.931h.595l4.727-4.303c.233-.192.054-.447-.207-.242l-4.64 4.215-.333-.312z" fill="#84CCD5"/><path d="m8.142 19.766-.82-3.903-.825 3.903H6l.972-4.595h.689l.811 3.903 2.47-3.903h.764l-.975 4.595h-.522l.843-3.887-2.485 3.887h-.425zm7.366-2.997c.202-.264.475-.46.86-.46.138 0 .27.029.405.054l-.116.522a.863.863 0 0 0-.378-.066c-.629 0-.89.692-1.016 1.293l-.343 1.654h-.516l.567-2.758c.044-.208.072-.41.094-.62h.488c-.013.126-.026.255-.045.38zm-3.025 2.641c.714 0 1.056-.625 1.157-1.295-.12-.003-.236-.013-.355-.013-.566 0-1.403.092-1.403.768 0 .346.286.54.6.54zm.93-.03c-.273.336-.625.462-1.072.462-.531 0-.984-.396-.984-.966 0-1.006 1.135-1.204 1.934-1.204.182 0 .425-.023.425-.265 0-.43-.236-.67-.664-.67H12.03l.056-.43h1.032c.733 0 1.126.405 1.126 1.113 0 .132-.025.374-.085.635l-.176.893c-.066.262-.11.545-.123.815h-.49c.012-.129.025-.258.044-.384zm-2.217-7.763c.227-.296.522-.45.982-.478.613 0 1.075.349 1.075.997 0 .23-.047.468-.097.689l-.375 1.77h-.51l.385-1.865c.044-.21.069-.349.069-.566 0-.368-.201-.595-.595-.595-.676 0-1.028.68-1.176 1.378l-.362 1.648h-.51L11.07 10h.504l-.378 1.617zm-2.22-1.145h-.44l-.366 1.705h.453c.68 0 1.312-.268 1.312-1 0-.586-.437-.705-.96-.705zm-1.334 4.123h-.528L8.1 10h.802c.843 0 1.56.182 1.56 1.173 0 1.004-.906 1.47-1.793 1.47h-.6l-.428 1.952zm6.806-.352c.714 0 1.057-.626 1.158-1.296-.12-.003-.236-.012-.355-.012-.567 0-1.403.09-1.403.767 0 .346.286.541.6.541zm.931-.031c-.273.336-.625.462-1.072.462-.532 0-.985-.396-.985-.966 0-1.006 1.136-1.204 1.935-1.204.182 0 .424-.022.424-.264 0-.431-.236-.67-.663-.67h-1.023l.057-.431h1.032c.733 0 1.126.405 1.126 1.113 0 .132-.025.374-.085.635l-.173.894c-.066.264-.11.544-.123.814h-.494c.013-.129.026-.258.044-.383zm4.014-2.589c.28-.343.541-.481.969-.481.443 0 .786.23.855.657a1.207 1.207 0 0 1 1.104-.657c.592 0 .972.387.972 1.01 0 .135-.047.39-.097.629l-.38 1.818h-.51l.377-1.796a2.76 2.76 0 0 0 .082-.633c0-.349-.148-.6-.51-.6-.638 0-.975.72-1.097 1.317l-.35 1.708h-.51l.378-1.796a2.75 2.75 0 0 0 .082-.632c0-.349-.145-.6-.51-.6-.638 0-.975.72-1.097 1.317l-.35 1.708h-.509l.573-2.79a3.74 3.74 0 0 0 .085-.588h.49c-.01.139-.025.274-.047.41zm-1.994-.025c.201-.264.475-.46.858-.46.139 0 .271.029.403.054l-.116.522a.863.863 0 0 0-.378-.066c-.629 0-.89.692-1.016 1.293l-.342 1.654h-.516l.566-2.758a6.03 6.03 0 0 0 .094-.62h.488c-.013.126-.022.255-.041.38zm7.017 2.645c.714 0 1.057-.626 1.158-1.296-.12-.003-.236-.012-.356-.012-.566 0-1.403.09-1.403.767 0 .346.287.541.601.541zm.928-.031c-.274.336-.626.462-1.073.462-.531 0-.984-.396-.984-.966 0-1.006 1.136-1.204 1.934-1.204.183 0 .425-.022.425-.264 0-.431-.236-.67-.664-.67H23.96l.057-.431h1.031c.733 0 1.126.405 1.126 1.113 0 .132-.025.374-.084.635l-.174.894a4.17 4.17 0 0 0-.122.814h-.49c.012-.129.021-.258.04-.383z" fill="#002E53"/><path d="m15.914 19.134.337.312 4.64-4.215c.26-.205.44.05.207.242l-4.73 4.306h-.595c.138-.645.141-.645.141-.645zm13.056.646-.415 1.93h-.245s-3.869 3.463-4.265 3.8c-.4.336-.758.277-.67-.132l.623-2.894.23-.013s4.5-3.994 4.758-4.246c.258-.251.365-.217.309.047l-.186.865-.138.642zm-4.258-.646.185-.865c.057-.264-.05-.302-.308-.047-.26.255-4.759 4.246-4.759 4.246l-.233.013-.622 2.894c-.088.409.273.468.67.132.4-.337 4.265-3.8 4.265-3.8h.245l.415-1.931h.595l4.727-4.303c.233-.192.054-.447-.207-.242l-4.64 4.215-.333-.312zm-4.394 0 .185-.865c.057-.264-.05-.302-.308-.047-.261.255-4.759 4.246-4.759 4.246l-.233.013-.622 2.894c-.088.409.273.468.67.132.399-.337 4.265-3.8 4.265-3.8h.245l.415-1.931h.595l4.727-4.303c.233-.192.054-.447-.207-.242l-4.64 4.215-.333-.312z" fill="#84CCD5"/><path d="M6.497 19.766H6l.972-4.595h.689l.811 3.903 2.47-3.903h.764l-.975 4.595h-.522l.843-3.887-2.485 3.887h-.425l-.82-3.903-.825 3.903zm9.011-2.997c.202-.264.475-.46.86-.46.138 0 .27.029.405.054l-.116.522a.863.863 0 0 0-.378-.066c-.629 0-.89.692-1.016 1.293l-.343 1.654h-.516l.567-2.758c.044-.208.072-.41.094-.62h.488c-.013.126-.026.255-.045.38zm-3.025 2.641c.714 0 1.056-.625 1.157-1.295-.12-.003-.236-.013-.355-.013-.566 0-1.403.092-1.403.768 0 .346.286.54.6.54zm.93-.03c-.273.336-.625.462-1.072.462-.531 0-.984-.396-.984-.966 0-1.006 1.135-1.204 1.934-1.204.182 0 .425-.023.425-.265 0-.43-.236-.67-.664-.67H12.03l.056-.43h1.032c.733 0 1.126.405 1.126 1.113 0 .132-.025.374-.085.635l-.176.893c-.066.262-.11.545-.123.815h-.49c.012-.129.025-.258.044-.384zm-2.217-7.763c.227-.296.522-.45.982-.478.613 0 1.075.349 1.075.997 0 .23-.047.468-.097.689l-.375 1.77h-.51l.385-1.865c.044-.21.069-.349.069-.566 0-.368-.201-.595-.595-.595-.676 0-1.028.68-1.176 1.378l-.362 1.648h-.51L11.07 10h.504l-.378 1.617zm-2.22-1.145h-.44l-.366 1.705h.453c.68 0 1.312-.268 1.312-1 0-.586-.437-.705-.96-.705zm-1.334 4.123h-.528L8.1 10h.802c.843 0 1.56.182 1.56 1.173 0 1.004-.906 1.47-1.793 1.47h-.6l-.428 1.952zm6.806-.352c.714 0 1.057-.626 1.158-1.296-.12-.003-.236-.012-.355-.012-.567 0-1.403.09-1.403.767 0 .346.286.541.6.541zm.931-.031c-.273.336-.625.462-1.072.462-.532 0-.985-.396-.985-.966 0-1.006 1.136-1.204 1.935-1.204.182 0 .424-.022.424-.264 0-.431-.236-.67-.663-.67h-1.023l.057-.431h1.032c.733 0 1.126.405 1.126 1.113 0 .132-.025.374-.085.635l-.173.894c-.066.264-.11.544-.123.814h-.494c.013-.129.026-.258.044-.383zm4.014-2.589c.28-.343.541-.481.969-.481.443 0 .786.23.855.657a1.207 1.207 0 0 1 1.104-.657c.592 0 .972.387.972 1.01 0 .135-.047.39-.097.629l-.38 1.818h-.51l.377-1.796a2.76 2.76 0 0 0 .082-.633c0-.349-.148-.6-.51-.6-.638 0-.975.72-1.097 1.317l-.35 1.708h-.51l.378-1.796a2.75 2.75 0 0 0 .082-.632c0-.349-.145-.6-.51-.6-.638 0-.975.72-1.097 1.317l-.35 1.708h-.509l.573-2.79a3.74 3.74 0 0 0 .085-.588h.49c-.01.139-.025.274-.047.41zm-1.994-.025c.201-.264.475-.46.858-.46.139 0 .271.029.403.054l-.116.522a.863.863 0 0 0-.378-.066c-.629 0-.89.692-1.016 1.293l-.342 1.654h-.516l.566-2.758a6.03 6.03 0 0 0 .094-.62h.488c-.013.126-.022.255-.041.38zm7.017 2.645c.714 0 1.057-.626 1.158-1.296-.12-.003-.236-.012-.356-.012-.566 0-1.403.09-1.403.767 0 .346.287.541.601.541zm.928-.031c-.274.336-.626.462-1.073.462-.531 0-.984-.396-.984-.966 0-1.006 1.136-1.204 1.934-1.204.183 0 .425-.022.425-.264 0-.431-.236-.67-.664-.67H23.96l.057-.431h1.031c.733 0 1.126.405 1.126 1.113 0 .132-.025.374-.084.635l-.174.894a4.17 4.17 0 0 0-.122.814h-.49c.012-.129.021-.258.04-.383z" fill="#002E53"/></svg>