<svg width="36" height="36" fill="none" xmlns="http://www.w3.org/2000/svg"><path d="M18 0c2.837 0 5.52.656 7.907 1.825C31.884 4.753 36 10.895 36 18c0 9.942-8.058 18-18 18-9.94 0-18-8.057-18-18C0 8.06 8.06 0 18 0z" fill="#F2F4F7"/><path fill-rule="evenodd" clip-rule="evenodd" d="M8.54 16.003H4c0 .363.298.687.649.687h2.834c.175 0 .46-.078.596-.227a1.02 1.02 0 0 0-.227.597v2.834c0 .35.325.649.688.649v-4.54z" fill="#DE4D5F"/><path fill-rule="evenodd" clip-rule="evenodd" d="M7.055 17.494H4c0 .364.298.688.649.688h1.387c.175 0 .422-.078.558-.227a.914.914 0 0 0-.227.558v1.38c0 .351.324.65.688.65v-3.049z" fill="#E36877"/><mask id="a" style="mask-type:alpha" maskUnits="userSpaceOnUse" x="4" y="17" width="17" height="4"><path d="M4 17.588h16.752v3.044H4v-3.044z" fill="#fff"/></mask><g mask="url(#a)" fill-rule="evenodd" clip-rule="evenodd"><path d="M5.57 18.973H4c0 .357.253.655.623.655a.667.667 0 0 0 .421-.13.666.666 0 0 0-.13.422c0 .37.292.623.655.623v-1.57z" fill="#E88491"/><path d="M19.21 20.016a.897.897 0 0 1-.899-.905c0-.481.378-.905.899-.905.514 0 .878.424.878.905 0 .482-.364.905-.878.905zm0-2.428c-.886 0-1.563.638-1.563 1.523 0 .886.677 1.523 1.563 1.523.885 0 1.542-.637 1.542-1.523 0-.885-.657-1.523-1.542-1.523z" fill="#201727"/></g><path fill-rule="evenodd" clip-rule="evenodd" d="M12.264 18.324h-.852v-1.66h.852c.495 0 .892.3.892.833 0 .534-.397.827-.892.827zM12.121 16h-1.425v4.556h.716v-1.568h.71c1.138 0 1.718-.677 1.718-1.49 0-.815-.58-1.498-1.719-1.498zm3.841 1.588c-.47 0-.775.209-.925.54.04-.136.065-.345.065-.494v-.97c0-.404-.208-.664-.65-.664h-.014v4.556h.664v-1.542c0-.508.254-.814.684-.814.436 0 .664.306.664.814v1.542h.664v-1.64c0-.814-.456-1.328-1.152-1.328zm10.258 0c-.414 0-.682.15-.856.364-.045-.189-.117-.286-.335-.286h-.32v2.89h.665V19.04c0-.488.221-.84.69-.84.468 0 .657.352.657.84v1.516h.664v-1.608c0-.865-.456-1.36-1.165-1.36zm-3.56.599c.498 0 .79.315.83.65h-1.653a.812.812 0 0 1 .822-.65zm0-.599c-.873 0-1.485.67-1.485 1.517 0 .84.612 1.516 1.543 1.516.475 0 .872-.15 1.204-.579l-.442-.371c-.209.228-.391.352-.749.352-.468 0-.826-.261-.907-.716h2.274c.02-.105.026-.222.026-.326 0-.775-.573-1.393-1.465-1.393zm8.305 1.525 1.029-1.447h-.437c-.24 0-.403.085-.546.293l-.293.43a.828.828 0 0 0-.137.273 1 1 0 0 0-.143-.273l-.287-.43a.6.6 0 0 0-.546-.293h-.417l1.023 1.447-1.036 1.443h.423a.587.587 0 0 0 .547-.3l.293-.461a.972.972 0 0 0 .137-.274.821.821 0 0 0 .13.274l.3.462c.136.208.299.3.546.3H32l-1.035-1.444zm-2.617-2.976a.41.41 0 0 0-.416.41.41.41 0 0 0 .416.416.41.41 0 0 0 .41-.416.408.408 0 0 0-.41-.41zm-.332 4.419h.664v-2.89h-.664v2.89z" fill="#201727"/></svg>