<svg width="36" height="36" fill="none" xmlns="http://www.w3.org/2000/svg"><path d="M18 0c2.837 0 5.52.656 7.907 1.825C31.884 4.753 36 10.895 36 18c0 9.942-8.058 18-18 18-9.94 0-18-8.057-18-18C0 8.06 8.06 0 18 0z" fill="#F2F4F7"/><path fill-rule="evenodd" clip-rule="evenodd" d="m14.853 15.43.724-1.43.73 1.43h-1.46.006zm15.32 1.248v-1.522l-14.194.816 14.195.706zm-15.083-.7L4 15.308v1.102l11.09-.432zM4.584 17.652H4v4.261h.609v-1.522h1.065a1.37 1.37 0 0 0 0-2.739h-1.09zm.025 2.13v-1.521h1.065a.76.76 0 1 1 0 1.522H4.609zm15.217-2.13h-.609v4.261h.61v-4.26zm0 0h1.065a1.37 1.37 0 0 1 .5 2.648l.973 1.613h-.754l-.926-1.522h-.858v-.608h1.065a.761.761 0 0 0 0-1.522h-1.065v-.609zm-10.956 0h.608v1.826h1.826v-1.826h.609v4.261h-.609v-1.826H9.478v1.826H8.87v-4.26zm20.695 0h.609v3.652H32v.609h-2.435v-4.26zm-14.359 0h.78l1.533 4.261h-.663l-.426-1.217h-1.693l-.444 1.217h-.67l1.583-4.26zm-.243 2.435h1.247l-.608-1.735-.646 1.735h.007zm9.124-.76a1.684 1.684 0 0 1 1.698-1.675h.256a1.687 1.687 0 0 1 1.698 1.674v.913a1.686 1.686 0 0 1-1.698 1.674h-.256a1.687 1.687 0 0 1-1.698-1.674v-.913zm.609.066c0-.627.547-1.132 1.217-1.132s1.217.505 1.217 1.132v.78c0 .626-.547 1.131-1.217 1.131s-1.217-.505-1.217-1.132v-.779z" fill="#6E6E6E"/></svg>