<svg width="36" height="36" fill="none" xmlns="http://www.w3.org/2000/svg"><path d="M18 0c2.837 0 5.52.656 7.907 1.825C31.884 4.753 36 10.895 36 18c0 9.942-8.058 18-18 18-9.94 0-18-8.057-18-18C0 8.06 8.06 0 18 0z" fill="#F2F4F7"/><g fill="#153471"><path fill-rule="evenodd" clip-rule="evenodd" d="M5.01 12v10.42h2.878v-2.863h2.34a3.777 3.777 0 0 0 2.897-1.355c.462 2.395 2.599 4.223 5.121 4.223h5.436l1.396-2.046 1.385-1.045v3.131h2.913l.005-5.557 1.62-1.193v-.107l-8.446 5.74L31 15.06v-.111l-7.81 5.303L31 14.395v-.111l-7.17 4.877L31 13.726v-.107l-6.511 4.42L31 13.067v-.107l-1.624 1.101.005-2.035h-2.908l-4.456 7.537h-3.77a2.351 2.351 0 0 1-2.345-2.34 2.342 2.342 0 0 1 2.344-2.344h4.644l-.01-2.873h-4.634a5.223 5.223 0 0 0-4.456 2.507A3.796 3.796 0 0 0 10.227 12H5.01zm2.878 4.684v-1.811h2.34a.906.906 0 1 1 0 1.812h-2.34z"/><path d="M5.416 23.796c0 .076-.02.096-.06.096h-.083v-.467h.081c.051 0 .061.01.061.056v.315zm-.02-.61H5v1.32h.274v-.375h.096c.244 0 .335-.076.335-.396v-.229c0-.238-.111-.32-.31-.32zm23.549.777h-.066l.066-.594.066.594h-.066zm.223-.776h-.447l-.182 1.32h.28l.035-.315h.182l.03.314h.285l-.183-1.32zm-2.253.523v.028l-.001.003c0 .008-.002.015-.003.022v.003a.084.084 0 0 1-.005.015l-.003.007-.004.006c-.014.02-.038.03-.08.031l-.016.001h-.056v-.416h.087c.056 0 .08.035.08.101v.198zm.279-.051v-.202l-.001-.001c-.011-.212-.104-.27-.38-.27h-.34v1.32h.274v-.457h.046l.023.001c.077.004.099.03.099.08v.376h.279v-.36c0-.162-.066-.183-.188-.213v-.005c.117-.02.188-.066.188-.27zm-3.146.304h-.066l.066-.594.066.594h-.066zm.224-.776h-.447l-.183 1.32h.279l.036-.315h.182l.03.314h.285l-.182-1.32zm-2.037 1.041c0 .051-.02.066-.07.066-.051 0-.072-.015-.072-.066v-.771c0-.05.02-.061.071-.061.051 0 .071.01.071.06v.772zm-.07-1.06c-.23 0-.356.055-.356.274v.806c0 .214.127.27.355.27.234 0 .356-.056.356-.27v-.806c0-.219-.122-.274-.356-.274zm-7.446.542-.001.028v.003a.249.249 0 0 1-.003.022l-.001.003a.067.067 0 0 1-.011.028c-.014.02-.038.03-.08.031l-.016.001h-.056v-.416h.086c.056 0 .082.035.082.101v.198zm.274-.051V23.5l-.001-.044c-.01-.212-.099-.27-.375-.27h-.34v1.32h.274v-.458h.046l.02.001c.08.004.102.03.102.08v.376h.274v-.36c0-.162-.061-.183-.188-.213v-.005c.117-.02.188-.066.188-.27zm4.964.569c0 .051-.02.066-.076.066-.05 0-.071-.015-.071-.066v-.771c0-.05.02-.061.07-.061.057 0 .077.01.077.06v.772zm-.076-1.06c-.228 0-.355.055-.355.274v.806c0 .214.127.27.355.27.233 0 .36-.056.36-.27v-.806c0-.219-.127-.274-.36-.274zm-1.884.795h-.066l.061-.594h.005l.066.594h-.066zm.224-.776h-.452l-.178 1.32h.279l.035-.315h.178l.036.314h.279l-.177-1.32zm-.999.523a.518.518 0 0 1-.004.053v.003a.084.084 0 0 1-.005.015l-.003.007-.005.006c-.013.02-.037.03-.08.031l-.015.001h-.056v-.416h.087c.055 0 .08.035.08.101v.198zm.279-.051V23.5l-.001-.044v-.001c-.011-.212-.104-.27-.38-.27h-.34v1.32h.274v-.457h.046l.023.001c.077.004.099.03.099.08v.376h.279v-.36c0-.162-.066-.183-.188-.213v-.005c.112-.02.188-.066.188-.27zm-1.133.569c0 .051-.02.066-.071.066-.05 0-.071-.015-.071-.066v-.771c0-.05.02-.061.07-.061.052 0 .072.01.072.06v.772zm-.071-1.06c-.229 0-.356.055-.356.274v.806c0 .214.127.27.356.27.233 0 .355-.056.355-.27v-.806c0-.219-.122-.274-.355-.274zm-.75.628c0 .076-.02.096-.06.096h-.083v-.467h.081c.046 0 .061.01.061.056v.315zm-.02-.61h-.397v1.32h.274v-.375h.091c.25 0 .335-.076.335-.396v-.229c0-.238-.106-.32-.304-.32zm-1.661 1.042c0 .051-.02.066-.07.066-.051 0-.072-.015-.072-.066v-.771c0-.05.02-.061.071-.061.051 0 .071.01.071.06v.772zm-.07-1.06c-.234 0-.356.055-.356.274v.806c0 .214.122.27.355.27.229 0 .355-.056.355-.27v-.806c0-.219-.127-.274-.355-.274zm-5.187.795h-.066l.06-.594h.006l.066.594h-.066zm.223-.776h-.446l-.183 1.32h.28l.035-.315h.177l.036.314h.279l-.178-1.32zm-2.721.776h-.07l.065-.594h.005l.066.594h-.066zm.223-.776h-.451l-.178 1.32h.28l.035-.315h.177l.036.314h.28l-.179-1.32z"/><path fill-rule="evenodd" clip-rule="evenodd" d="M11.35 23.442c0-.218.122-.274.355-.274.218 0 .356.04.356.31v.131h-.264v-.137c0-.06-.02-.076-.092-.076-.05 0-.07.015-.07.081v.767c0 .03.02.05.075.05.066 0 .087-.02.087-.045v-.208h-.087v-.25h.35v.427c0 .254-.09.3-.355.3-.233 0-.355-.056-.355-.27v-.806z"/><path d="M23.164 23.425v-.238h-.518v1.32h.274v-.518h.223v-.239h-.223v-.325h.244zm2.072-.238-.137 1.04-.137-1.04h-.432v1.32h.244V23.39h.005l.152 1.116h.315l.178-1.111h.005l-.01 1.111h.248v-1.32h-.431zm-17.318.629.234-.63h-.295l-.178.56v-.56h-.273v1.32h.273v-.588l.209.588h.294l-.264-.69zm-.649-.181v-.239c0-.157-.076-.228-.315-.228h-.101c-.209 0-.28.111-.28.32v.746c0 .172.071.284.28.284h.101c.234 0 .315-.071.315-.305v-.198h-.27v.208c0 .04-.02.056-.07.056-.046 0-.071-.015-.071-.056v-.76c0-.042.025-.057.076-.057.045 0 .066.015.066.056v.173h.269zm2.517-.025v-.133c0-.269-.143-.31-.356-.31-.233 0-.36.056-.36.275v.807c0 .213.127.269.36.269.264 0 .356-.046.356-.3v-.426h-.35v.249h.086v.208c0 .025-.02.045-.092.045-.056 0-.07-.02-.07-.05v-.767c0-.066.014-.081.07-.081.071 0 .092.015.092.076v.137h.264zm.417-.423h-.275v1.32h.274v-1.32zm.755 0 .02 1.025-.005.005-.203-1.03h-.4v1.32h.253l-.015-1.03.203 1.03h.4v-1.32h-.253z"/><path fill-rule="evenodd" clip-rule="evenodd" d="M11.35 23.442c0-.218.122-.274.355-.274.218 0 .356.04.356.31v.131h-.264v-.137c0-.06-.02-.076-.092-.076-.05 0-.07.015-.07.081v.767c0 .03.02.05.075.05.066 0 .087-.02.087-.045v-.208h-.087v-.25h.35v.427c0 .254-.09.3-.355.3-.233 0-.355-.056-.355-.27v-.806z"/><path d="M13.318 23.635v-.239c0-.157-.07-.228-.315-.228h-.101c-.203 0-.28.111-.28.32v.746c0 .172.077.284.28.284h.101c.234 0 .315-.071.315-.305v-.198h-.264v.208c0 .04-.025.056-.07.056-.047 0-.072-.015-.072-.056v-.76c0-.042.025-.057.071-.057.046 0 .071.015.071.056v.173h.264zm5.041-.448v.238h.193v1.081h.274v-1.08h.192v-.24h-.66zm1.025 0h-.274v1.32h.274v-1.32zm1.578 0 .02 1.025-.005.005-.203-1.03h-.401v1.32h.254l-.015-1.03h.005l.198 1.03h.4v-1.32h-.253zm5.12 1.081v-.33h.239v-.223h-.239v-.29h.254v-.238h-.528v1.32h.548v-.24h-.274zm1.534-1.081h-.274v1.32h.274v-1.32zm.837.448v-.239c0-.157-.076-.228-.314-.228h-.102c-.203 0-.28.111-.28.32v.746c0 .172.077.284.28.284h.102c.233 0 .314-.071.314-.305v-.198h-.264v.208c0 .04-.025.056-.076.056-.045 0-.07-.015-.07-.056v-.76c0-.042.025-.057.075-.057.046 0 .071.015.071.056v.173h.264z"/></g></svg>