<svg height="36" viewBox="0 0 36 36" width="36" xmlns="http://www.w3.org/2000/svg"><mask id="a" fill="#fff"><path d="M0 0h14.186v2.887H0z" fill-rule="evenodd"/></mask><mask id="b" fill="#fff"><path d="M0 0h10.071v7.977H0z" fill-rule="evenodd"/></mask><mask id="c" fill="#fff"><path d="M.214 0h.572v1H.214z" fill-rule="evenodd"/></mask><g fill="none" fill-rule="evenodd"><path d="M18 0c2.837 0 5.52.656 7.907 1.825C31.884 4.753 36 10.895 36 18c0 9.942-8.058 18-18 18-9.94 0-18-8.057-18-18C0 8.06 8.06 0 18 0z" fill="#f2f4f7" fill-rule="nonzero"/><path d="M13.505 1.633c0-.287-.151-.426-.457-.426-.317 0-.585.159-.585.6V2.81h-.681V.735h.659v.302h.007c.124-.175.449-.356.848-.356.352 0 .89.135.89.747V2.81h-.681zM10.714 2.81h.682V.735h-.682zm0-2.331h.682V0h-.682zM7.9 0h.682v1.509l.902-.774h.948l-.988.79 1.05 1.285H9.59l-.677-.864-.332.268v.596H7.9zM5.89.735h.659v.406h.008c.248-.317.442-.46.828-.46.078 0 .17.004.248.019v.639a1.382 1.382 0 0 0-.375-.062c-.465 0-.686.236-.686.639v.894H5.89zm-2.247.816v-.007c0-.051.112-.461.65-.461.499 0 .642.349.642.461v.007zm1.23.639c-.097.178-.29.271-.565.271-.464 0-.665-.302-.665-.499v-.008H5.64v-.062c0-.781-.434-1.235-1.332-1.235-.82 0-1.37.333-1.37 1.115s.55 1.115 1.37 1.115c.623 0 1.096-.205 1.293-.697zM.75.549h.875c.213 0 .433.031.433.391 0 .372-.27.38-.503.38H.75zM0 2.81h.75v-.988h1.166c.608 0 .918-.348.918-.936 0-.372-.19-.84-.976-.84H0z" fill="#12110f" mask="url(#a)" transform="translate(4 21.128)"/><path d="M29.62 21.863h.657v.406h.008c.248-.317.441-.46.828-.46.078 0 .171.004.248.019v.639a1.382 1.382 0 0 0-.376-.062c-.464 0-.685.236-.685.639v.894h-.68zm-2.246.816v-.007c0-.051.112-.461.651-.461.5 0 .642.349.642.461v.007zm1.231.639c-.097.178-.29.271-.565.271-.464 0-.666-.302-.666-.499v-.008h1.997v-.062c0-.782-.433-1.235-1.33-1.235-.82 0-1.37.333-1.37 1.115s.55 1.115 1.37 1.115c.622 0 1.095-.205 1.292-.697zm-2.84-.627c0-.279-.222-.356-.419-.356-.283 0-.515.155-.515.48v1.123h-.68v-1.247c0-.279-.22-.356-.41-.356-.29 0-.524.155-.524.48v1.123h-.68v-2.075h.657v.302h.008c.124-.175.45-.356.847-.356.395 0 .612.155.716.39.19-.247.477-.39.856-.39.419 0 .825.178.825.723v1.406h-.681zm-4.297 1.247h.681v-2.81h-.68zm-2.903-2.764h2.581v.526h-1.83v.573h1.738v.503h-1.738v.635h1.846v.527h-2.597z" fill="#949595"/><path d="M2.528 7.977H0L1.011 0h2.528zM5.444.007v.017C6.28.62 6.826 1.627 6.826 2.732s-.546 2.115-1.382 2.71v.013l4.627-2.31z" fill="#254f9e" mask="url(#b)" transform="translate(9.075 12)"/><path d="M.503 0a.279.279 0 1 1-.001.559.28.28 0 0 1-.288-.28C.214.124.34 0 .502 0zM.5.056c-.122 0-.214.1-.214.223 0 .124.092.222.217.222C.626.503.715.403.715.279.715.156.625.056.502.056zM.457.423H.393V.146A.545.545 0 0 1 .5.136c.052 0 .076.009.097.022a.077.077 0 0 1 .027.059C.624.25.6.273.566.284v.003c.027.008.042.031.05.068.01.042.014.06.02.068h-.07C.56.413.555.389.546.357.54.326.524.312.488.312H.457z" fill="#12110f" mask="url(#c)" transform="translate(31.214 21.128)"/></g></svg>