<svg width="36" height="36" fill="none" xmlns="http://www.w3.org/2000/svg"><path d="M18 0c2.837 0 5.52.656 7.907 1.825C31.884 4.753 36 10.895 36 18c0 9.942-8.058 18-18 18-9.94 0-18-8.057-18-18C0 8.06 8.06 0 18 0z" fill="#F2F4F7"/><path d="M18.011 14c-1.039 0-1.94.602-2.375 1.473l-.06.15s-.225.655.233 1.113c.393.393 1.165.368 1.165.368h2.27c.146 0 .222.044.27.113.071.1.023.263.023.263a1.727 1.727 0 0 1-1.526.925 1.724 1.724 0 0 1-1.375-.692c-.227-.297-.8-.283-.925-.203-.079.05-.141.208-.075.339.442.87 1.333 1.48 2.375 1.48 1.022 0 1.91-.58 2.353-1.428l.075-.203s.233-.647-.225-1.105c-.394-.392-1.165-.376-1.165-.376h-2.27c-.146 0-.23-.036-.279-.105-.07-.1-.015-.263-.015-.263a1.73 1.73 0 0 1 1.526-.924c.565 0 1.059.275 1.376.691.226.299.8.284.924.203.079-.05.142-.216.076-.346A2.665 2.665 0 0 0 18.01 14zm-5.562.023a2.655 2.655 0 0 0-2.654 2.653 2.65 2.65 0 1 0 5.3 0 2.649 2.649 0 0 0-2.646-2.653zm11.14 0a2.65 2.65 0 0 0-2.646 2.653v.008a2.643 2.643 0 0 0 2.646 2.645 2.65 2.65 0 0 0 2.555-1.939s.034-.169-.112-.248c-.145-.08-.628-.084-.97.444a1.87 1.87 0 0 1-.248.315 1.732 1.732 0 0 1-1.225.504 1.718 1.718 0 0 1-1.722-1.722v-.007c0-.953.769-1.729 1.722-1.729a1.737 1.737 0 0 1 1.473.827c.342.528.825.516.97.436.146-.08.112-.24.112-.24a2.658 2.658 0 0 0-2.555-1.947zm5.765 0a2.655 2.655 0 0 0-2.653 2.653 2.65 2.65 0 1 0 5.3 0 2.649 2.649 0 0 0-2.647-2.653zm-22.708.007A2.647 2.647 0 0 0 4 16.676v3.788c0 .173.218.805.669.805l.248-.188-.007-2.406a2.648 2.648 0 0 0 4.382-2 2.648 2.648 0 0 0-2.646-2.645zm0 .917c.953 0 1.721.776 1.721 1.729a1.725 1.725 0 1 1-3.45 0c0-.953.776-1.729 1.729-1.729zm5.803 0c.953 0 1.721.776 1.721 1.729a1.724 1.724 0 1 1-3.45 0c0-.953.776-1.729 1.729-1.729zm16.905 0c.953 0 1.721.776 1.721 1.729a1.725 1.725 0 1 1-3.45 0c0-.953.776-1.729 1.73-1.729z" fill="#00588A"/></svg>