<svg width="36" height="36" fill="none" xmlns="http://www.w3.org/2000/svg"><path d="M18 0c2.837 0 5.52.656 7.907 1.825C31.884 4.753 36 10.895 36 18c0 9.942-8.058 18-18 18-9.94 0-18-8.057-18-18C0 8.06 8.06 0 18 0z" fill="#F2F4F7"/><path d="M6 10h24v15.24H6V10z" fill="#50A3DF"/><path d="M14.515 15.38a.573.573 0 0 1-.52.034.563.563 0 0 1-.315-.422.882.882 0 0 1 .088-.57.45.45 0 0 1 .323-.23.66.66 0 0 1 .437.074c.088.054.137.149.199.229.015-.094.019-.189.02-.283-.176-.059-.356-.117-.543-.115a.697.697 0 0 0-.534.227.824.824 0 0 0-.198.649.63.63 0 0 0 .249.425.84.84 0 0 0 .501.151.78.78 0 0 0 .53-.22c0-.056 0-.112-.002-.168-.071.08-.14.166-.235.219m13.444-.411c-.056-.11-.166-.177-.276-.225-.102-.05-.215-.085-.302-.16-.085-.073-.11-.21-.041-.302.094-.13.293-.134.42-.053.085.056.105.162.123.255l.065-.002c0-.11 0-.222-.002-.334-.13-.023-.261-.057-.395-.05a.45.45 0 0 0-.306.128c-.115.115-.144.315-.045.448.146.186.41.202.577.36.09.089.098.25.008.343a.345.345 0 0 1-.503-.02c-.06-.06-.047-.172-.136-.2-.002.115 0 .23.009.345.2.046.422.08.617-.007a.398.398 0 0 0 .187-.526m-1.576-.794c.04.054.086.113.077.186.006.089-.076.145-.096.226.026 0 .053-.004.071-.024.07-.065.139-.144.15-.243.013-.079-.02-.156-.053-.226l-.149.08zm-18.807-.051v.36l.07-.002c.009-.091.02-.21.117-.25.112-.038.234-.022.35-.028v1.074c-.003.055 0 .117-.035.162-.043.019-.09.018-.136.024v.056c.171-.005.343-.005.515 0l-.001-.057a2.478 2.478 0 0 1-.148-.023c-.029-.128-.02-.26-.022-.39l.001-.84c.115.006.235-.018.345.02.102.04.11.163.128.254l.064-.002v-.36c-.416.005-.832.003-1.248.002m3.096.053v-.053c-.17.002-.341.001-.512 0v.055c.046.005.091.012.137.018.062.178.021.37.033.554h-.802c.011-.183-.026-.372.028-.55.055-.017.141.002.152-.075-.178-.001-.357-.003-.536 0 .014.074.098.054.145.089.033.04.03.096.033.145v.919c-.003.055.001.125-.049.161-.037.014-.076.018-.115.025v.056c.169-.007.338-.007.508 0l.003-.058c-.044-.006-.093 0-.133-.022-.032-.04-.034-.095-.036-.143v-.456c.267 0 .535-.001.802.002-.009.197.02.398-.022.594-.058.019-.144.002-.162.078.175.004.35-.003.525.004l.001-.055c-.042-.007-.087-.006-.124-.03-.051-.05-.037-.13-.041-.195.005-.319-.008-.639.006-.957 0-.087.094-.098.16-.106m1.323 1.186c-.087.072-.208.076-.316.08-.069-.003-.14.007-.207-.016-.043-.016-.054-.068-.054-.109-.003-.163 0-.326 0-.489.114.004.233-.01.346.018.052.014.057.076.073.118h.058c-.019-.123 0-.247-.01-.369l-.039-.004c-.023.047-.022.118-.08.138-.112.036-.233.016-.349.02v-.55c.158.009.332-.024.474.062.083.048.047.178.14.214a4.06 4.06 0 0 0-.014-.354 44.91 44.91 0 0 1-.943.002l.002.053c.04.011.088.009.124.034.046.05.034.125.037.188-.004.32.006.64-.004.959.003.087-.091.1-.158.107v.056c.342-.009.684-.004 1.026-.002.005-.127.037-.252.028-.38-.084.049-.062.166-.134.224m4.539-1.158c.036-.016.076-.02.114-.028l-.002-.054c-.173.005-.346-.001-.52.003.015.075.097.06.152.074.059.177.02.367.032.55-.268.002-.536 0-.803.001.01-.183-.025-.372.027-.55l.138-.023v-.054h-.508l.004.053c.038.008.076.012.112.027.046.027.045.088.047.135v.94c-.001.043.002.09-.018.13-.026.053-.094.043-.142.056l-.002.055c.168-.005.336-.005.505 0l.003-.057c-.042-.005-.086-.003-.125-.02-.038-.038-.038-.096-.041-.145v-.456c.267 0 .535-.001.803.001-.002.145 0 .29 0 .435-.005.053-.001.114-.036.158-.038.028-.088.02-.133.026l.001.059a7.47 7.47 0 0 1 .506-.001v-.055c-.04-.008-.082-.011-.12-.028-.039-.035-.04-.092-.04-.14l-.001-.937c0-.053 0-.119.047-.155zm1.027-.025-.003-.056c-.166 0-.332.003-.497-.002a2.543 2.543 0 0 0-.006.054c.069.008.162.024.16.114.006.329 0 .659.003.988-.002.054.003.121-.043.16-.037.018-.08.02-.119.027l.001.056a7.03 7.03 0 0 1 .503 0v-.056c-.044-.008-.09-.007-.128-.033-.035-.034-.032-.088-.033-.134v-.803c.002-.1-.013-.203.032-.296l.13-.02m1.338 1.207c-.055.052-.136.056-.207.062-.103.006-.213.013-.31-.03-.068-.04-.063-.13-.063-.197.005-.312-.005-.625.004-.936 0-.092.101-.1.17-.107v-.055c-.171.003-.342.003-.513 0l-.003.052c.042.01.087.014.127.033.04.04.034.1.037.152-.002.312 0 .625-.001.937-.002.038.001.078-.017.113-.028.052-.095.044-.145.055v.055c.352-.007.704-.005 1.056.002l.014-.349h-.066c-.017.074-.023.16-.082.213m1.759-.264a.485.485 0 0 1-.355.294.924.924 0 0 1-.42.007c-.064-.015-.09-.085-.087-.145-.001-.356.001-.712 0-1.067.209-.026.442-.038.625.088.26.174.344.538.236.823zm-.008-.841a.696.696 0 0 0-.462-.158c-.245 0-.49.004-.736 0l.002.055c.04.008.084.01.122.028.043.038.04.101.043.154v.861c-.001.06.004.122-.016.18-.023.06-.098.053-.15.064v.055c.137-.002.274-.007.411-.003.142.002.286.013.428-.009a.712.712 0 0 0 .464-.272.686.686 0 0 0 .137-.417.698.698 0 0 0-.243-.538m1.037.516c.001-.196-.005-.391.003-.586a.511.511 0 0 1 .228.006c.197.059.286.338.153.496-.099.102-.254.102-.384.084zm.63.51c-.092-.148-.18-.299-.27-.448.07-.035.146-.068.197-.131a.38.38 0 0 0-.076-.532.465.465 0 0 0-.298-.073c-.18.005-.36 0-.54.003.01.074.09.06.142.076.02.044.035.09.033.138v.957c-.002.046.002.102-.035.137-.037.025-.084.022-.126.03l.001.057c.17-.007.34-.006.51 0l-.002-.058a1.998 1.998 0 0 1-.142-.021c-.047-.183-.016-.374-.024-.56.07.008.162-.003.204.068.104.154.186.322.297.471.08.107.228.12.351.111.031 0 .056-.02.082-.035-.055-.015-.112-.02-.166-.04-.066-.026-.1-.093-.138-.15m1.507.084c-.13.063-.282.053-.424.049-.052.002-.106-.032-.108-.088-.009-.174 0-.348-.004-.523.113.003.23-.01.34.018.056.01.062.074.08.118l.05.004a11.256 11.256 0 0 1 0-.376l-.05.002c-.014.047-.012.115-.067.134-.114.038-.235.018-.352.022v-.549c.161.008.347-.03.486.072.072.05.036.175.13.2 0-.117-.015-.233-.015-.35-.272 0-.544.004-.816 0-.053 0-.122-.016-.146.047.05.016.11.014.152.048.027.042.026.093.027.14v.766c-.001.105.01.213-.026.314-.046.01-.092.018-.138.025 0 .019.002.038.003.056.34-.005.681-.006 1.022.002.014-.126.033-.251.035-.378a5.97 5.97 0 0 0-.049.033c-.032.076-.046.175-.13.214zm1.669-1.268a2.003 2.003 0 0 0-.006.056l.112.021c.071.132.047.285.052.427-.003.208.014.415.01.622-.123-.136-.234-.284-.352-.427-.19-.231-.378-.466-.569-.698-.116.003-.232 0-.347.002.015.082.11.057.169.073a.276.276 0 0 1 .04.142c0 .223-.003.446-.005.67-.005.143.008.291-.04.43a4.05 4.05 0 0 1-.122.023c0 .018 0 .037.002.057.143-.006.287-.005.43 0l-.001-.055c-.067-.003-.147-.026-.153-.105-.03-.335-.017-.672-.021-1.009.323.394.646.788.965 1.184l.067.005c.014-.343.02-.686.034-1.028.004-.09-.007-.185.03-.27.018-.055.084-.052.13-.07-.002-.012-.003-.037-.004-.049-.14.001-.28.003-.421 0m-8.784 4.984c.203-.605.416-1.208.613-1.816.25.605.498 1.21.742 1.817-.451 0-.903.002-1.355 0zm2.96 1.926c-.237-.15-.35-.422-.452-.67-.556-1.329-1.114-2.655-1.668-3.984l-.134-.001-1.563 4.111c-.079.19-.16.397-.33.525-.123.092-.283.096-.43.09-.002.07-.002.139-.002.208.494-.033.991-.024 1.486 0 0-.07 0-.14-.003-.208-.094-.001-.191.012-.283-.017-.067-.02-.125-.077-.13-.148-.015-.143.033-.282.073-.417.13-.386.259-.772.39-1.157h1.545c.176.44.359.878.532 1.32.035.108.088.254-.011.344-.125.105-.298.07-.447.075v.207a20.33 20.33 0 0 1 1.828 0l-.001-.207c-.137.004-.283.01-.4-.071m4.595-.92c-.095.044-.145.14-.213.215-.224.266-.5.495-.825.627a2.215 2.215 0 0 1-.914.158 1.809 1.809 0 0 1-1.15-.52 1.916 1.916 0 0 1-.498-.85 2.894 2.894 0 0 1-.083-1.102c.04-.379.141-.757.338-1.086.143-.242.344-.454.592-.59.299-.172.65-.22.99-.2.294.014.593.067.86.198.276.133.503.362.647.633.03.052.052.109.089.157.036.007.073.006.11.008.005-.302.017-.604.026-.906-.197-.046-.385-.12-.58-.173a4.77 4.77 0 0 0-1.228-.206c-.368-.007-.74.06-1.075.215a2.31 2.31 0 0 0-.822.63 2.804 2.804 0 0 0-.634 1.895c.018.417.145.832.383 1.176.332.486.871.804 1.44.93.617.134 1.289.105 1.86-.183.256-.126.482-.304.689-.5-.002-.175.002-.35-.002-.526m-14.113-1.64a.757.757 0 0 1-.519.349 1.503 1.503 0 0 1-.894-.136c-.003-.63 0-1.26-.002-1.89.347-.042.724-.06 1.04.114.252.13.415.39.473.661.065.299.065.633-.098.902zm.172-1.726a1.61 1.61 0 0 0-.827-.182c-.4-.005-.802.027-1.203.018-.237-.002-.474-.018-.71-.018v.199c.146.01.315-.014.434.09.11.105.12.27.127.413v3.345c-.006.14-.017.297-.12.402-.119.11-.29.09-.44.09-.001.07-.002.139-.001.209.113-.006.226-.006.338-.012.463-.022.926 0 1.388.01l.001-.207c-.154-.012-.348.046-.465-.086-.1-.137-.097-.318-.107-.48-.003-.491-.002-.983 0-1.474.46.04.94.077 1.385-.082.279-.1.533-.29.67-.558.144-.277.173-.606.103-.908a1.172 1.172 0 0 0-.573-.769m4.025 3.951a.587.587 0 0 1-.342.29c-.2.07-.416.079-.626.089-.261.002-.527.014-.783-.049a.442.442 0 0 1-.283-.19.755.755 0 0 1-.076-.358v-3.234c.006-.147.027-.319.155-.412.129-.087.293-.062.44-.07v-.199c-.264 0-.528.015-.793.018-.317.006-.634-.016-.95-.018v.2c.147.008.322-.014.437.098.103.106.114.264.12.404v3.154c0 .148.007.299-.034.442a.31.31 0 0 1-.167.203c-.11.054-.237.035-.355.038-.002.07-.002.14-.002.209.375-.009.75-.02 1.125-.02.818-.01 1.636.014 2.455.018.01-.394.028-.788.038-1.182l-.21-.001c-.032.193-.062.392-.15.57m13.863-.597c-.026.16-.057.321-.13.468a.703.703 0 0 1-.323.327 1.553 1.553 0 0 1-.528.134c-.262.03-.526.016-.788.02-.141-.002-.303-.017-.404-.127-.09-.107-.092-.255-.096-.387 0-.526-.003-1.052.002-1.577.287 0 .575-.006.862.006.152.014.319.017.447.111.1.09.104.235.12.359l.188-.002c-.002-.2-.016-.4-.013-.599-.003-.222.01-.443.014-.665l-.19.002c-.009.139-.003.305-.117.405-.117.087-.27.102-.41.115-.289.017-.578.015-.866.013-.045.008-.033-.053-.038-.08l.001-1.804c.384.006.77-.021 1.15.037.217.033.447.102.593.276.132.158.157.371.185.568.063 0 .127 0 .19-.002a22.868 22.868 0 0 1-.059-1.134c-.411 0-.822.02-1.234.017-.658.01-1.316-.01-1.974-.016.001.065-.003.13.006.195.147.015.322-.011.437.103.118.129.115.315.113.478v3.29c0 .133-.02.28-.114.38-.117.111-.289.093-.437.092-.004.07-.005.138-.005.207a75.345 75.345 0 0 1 3.474.001c.05-.403.087-.807.134-1.21l-.19-.001" fill="#fff"/></svg>