<svg width="36" height="36" fill="none" xmlns="http://www.w3.org/2000/svg"><path d="M18 0c2.837 0 5.52.656 7.907 1.825C31.884 4.753 36 10.895 36 18c0 9.942-8.058 18-18 18-9.94 0-18-8.057-18-18C0 8.06 8.06 0 18 0z" fill="#F2F4F7"/><path d="M6.103 23.9h.51c.313 0 .536-.08.586-.364.043-.245-.097-.371-.394-.371h-.573l-.129.735zM5.5 22.612h1.593c.64 0 1.072.284.958.936-.1.573-.518.905-1.376.905h-.667l-.177 1.012H5l.5-2.853zm3.643 1.217h.66c.38 0 .522-.119.56-.336.049-.276-.16-.328-.558-.328h-.546l-.116.664zm-.617-1.217h1.742c.688 0 1.036.249.949.747-.064.363-.404.616-.844.69l-.002.009c.239.016.454.07.518.249.093.26.003.86.07 1.158h-.881c-.043-.277.041-.688-.003-.886-.029-.13-.144-.197-.476-.197h-.553l-.19 1.083h-.83l.5-2.853zm4.394 2.343c.633 0 .915-.415 1.003-.917.088-.502-.05-.917-.681-.917-.633 0-.915.415-1.002.917-.088.502.049.917.68.917zm.424-2.418c1.193 0 1.583.64 1.433 1.501-.151.862-.765 1.502-1.958 1.502-1.194 0-1.584-.64-1.433-1.502.151-.861.765-1.5 1.958-1.5zm2.051.075h.41l-.442 2.529h1.644l-.057.324h-2.054l.499-2.853zm3.129 2.604c.692 0 1.253-.474 1.376-1.178.123-.703-.272-1.177-.964-1.177-.69 0-1.252.474-1.375 1.177-.123.704.272 1.178.963 1.178zm.47-2.679c1.196 0 1.46.822 1.34 1.501-.118.68-.67 1.502-1.866 1.502-1.198 0-1.46-.822-1.342-1.502.12-.68.67-1.5 1.867-1.5zm3.418 1.438h1.324l-.225 1.288a3.892 3.892 0 0 1-1.424.277c-1.157 0-1.56-.7-1.42-1.502.125-.715.709-1.501 1.89-1.501.802 0 1.267.233 1.26.814h-.434c-.035-.364-.38-.49-.843-.49-.802 0-1.324.525-1.438 1.173-.11.629.228 1.181 1.058 1.181.313 0 .684-.07.98-.181l.129-.735h-.913l.056-.324zm2.135-1.363h.411l-.498 2.853h-.411l.498-2.853zm2.883.758c.031-.398-.356-.509-.819-.509-.407 0-.786.201-.841.518-.027.154.04.312.381.371l1.032.182c.448.079.615.343.554.695-.1.57-.67.913-1.516.913-.81 0-1.227-.3-1.169-.929h.435c-.055.383.274.605.815.605.593 0 .961-.234 1.016-.545.138-.79-2.172-.075-1.963-1.269.096-.55.617-.865 1.396-.865.592 0 1.19.178 1.114.834h-.434z" fill="#006455"/><path d="M29.028 16.039c-.773.657-.449 1.694-.13 2.282.397.734-.11 1.816-.806 2.428A5.746 5.746 0 0 0 31 15.928c-.525-.344-1.405-.37-1.972.11z" fill="#00927B"/><path d="M24.997 17.692c-1.108-.94-2.079-.485-2.74.291-.671.789.253 1.024 1.515 1.31.953.218.836 1.511.923 1.803 1.138-1.838.81-2.974.302-3.404z" fill="#5BAC26"/><path d="M26.779 11.964c1.89 1.467.228 2.217.228 2.217 1.074.911 2.159-.835 3.324.163.31.264.506.583.652.927a5.752 5.752 0 0 0-4.066-5.026c-.87.382-1.218.882-.138 1.72z" fill="#009EC5"/><path d="M22.213 17.024c-.428-1.172.116-1.711 1.979-3.037 2.352-1.674-1.327-1.08.17-2.588.53-.534 1.276-.95 1.826-1.323a5.75 5.75 0 0 0-6.667 6.051c.866.804 1.94 1.326 2.692.897z" fill="#006455"/></svg>