<svg width="36" height="36" xmlns="http://www.w3.org/2000/svg"><g fill="none"><path d="M18 0c2.837 0 5.52.656 7.907 1.825C31.884 4.753 36 10.895 36 18c0 9.942-8.058 18-18 18-9.94 0-18-8.057-18-18C0 8.06 8.06 0 18 0z" fill="#F2F4F7"/><path d="M17.54 6c-5.021 0-9.138 4.117-9.138 9.138s4.117 9.138 9.138 9.138c5.02 0 9.138-4.117 9.138-9.138C26.678 10.118 22.56 6 17.54 6zm0 15.464a6.3 6.3 0 0 1-6.327-6.326 6.3 6.3 0 0 1 6.327-6.326 6.3 6.3 0 0 1 6.326 6.326c-.1 3.515-2.912 6.326-6.326 6.326zm8.134 2.009-8.134 3.514-8.134-3.514L8 25.983 17.54 30l9.54-4.017-1.406-2.51z" fill="#000"/></g></svg>