<svg height="36" viewBox="0 0 36 36" width="36" xmlns="http://www.w3.org/2000/svg"><mask id="a" fill="#fff"><path d="M0 0h7.709v7.709H0z" fill-rule="evenodd"/></mask><mask id="b" fill="#fff"><path d="M0 .164h1v.672H0z" fill-rule="evenodd"/></mask><mask id="c" fill="#fff"><path d="M0 .084h1v.832H0z" fill-rule="evenodd"/></mask><g fill="none" fill-rule="evenodd"><path d="M18 0c2.837 0 5.52.656 7.907 1.825C31.884 4.753 36 10.895 36 18c0 9.942-8.058 18-18 18-9.94 0-18-8.057-18-18C0 8.06 8.06 0 18 0z" fill="#f2f4f7" fill-rule="nonzero"/><path d="M3.845 0A3.837 3.837 0 0 0 0 3.846c0 2.13 1.715 3.863 3.845 3.863s3.864-1.733 3.864-3.863C7.709 1.715 5.975 0 3.845 0M1.769 1.697c0-.686.542-1.607 1.589.181.18.325.433.758.433.758-.108.018-.198.09-.289.235l-.469.83-.831 1.408s-.343.56-.415 1.138c-.036-.325-.018-4.55-.018-4.55M3.015 6.68c-.596.342-1.661.342-.632-1.462.18-.308.433-.759.433-.759.072.091.181.145.343.145h2.6s.65.018 1.173-.199c-.234.181-3.917 2.275-3.917 2.275m2.744-2.293h-.867c.036-.09.018-.216-.054-.361l-.487-.812-.813-1.426S3.231 1.21 2.78.867c.289.108 3.936 2.238 3.936 2.238.595.361 1.119 1.264-.957 1.282" fill="#ff5400" mask="url(#a)" transform="translate(4 14)"/><path d="M32 20.77c-.542.145-1.065.253-2.13.253-2.13 0-3.286-1.498-3.286-3.34 0-1.642.686-2.942 3.015-2.942 1.715 0 2.329.722 2.4 1.336h-1.1c-.054-.29-.253-.921-1.372-.921-1.21 0-1.841.903-1.841 2.293 0 1.282.324 3.177 2.815 3.177.668 0 1.373-.2 1.499-.235zm-11.698-4.856c0-.74-.163-.794-1.137-.92v-.163h2.274l3.557 4.964h.018V14.83h.595v6.102h-.866l-3.827-5.308h-.02v5.308h-.594zm-4.766-.108c0-.542.054-.614.975-.614 1.01 0 1.624.452 1.624 1.354 0 1.174-1.047 1.336-2.112 1.336h-.487zm-.975 5.127h.975v-2.708h.524c1.37 0 3.195-.108 3.195-1.68 0-1.587-1.715-1.714-3.087-1.714h-2.744v.163c.974.108 1.137.253 1.137.812z" fill="#002fcd"/><g fill="#ff5400"><path d="M0 .174a.655.655 0 0 1 .124-.01c.069 0 .114.013.145.041.025.022.04.056.04.095 0 .066-.042.11-.095.128V.43c.038.014.062.05.074.101a.79.79 0 0 0 .038.138H.259a.713.713 0 0 1-.033-.12C.211.48.184.454.125.451H.064v.218H0zm.064.23h.067C.2.402.244.363.244.307.244.243.197.214.128.214A.27.27 0 0 0 .064.22z" mask="url(#b)" transform="translate(10.889 20.873)"/><path d="M0 .5a.417.417 0 1 1 .834.002A.417.417 0 0 1 0 .5m.062 0A.354.354 0 1 0 .77.5a.354.354 0 0 0-.708 0" mask="url(#c)" transform="translate(10.62 20.792)"/></g></g></svg>