<svg height="36" viewBox="0 0 36 36" width="36" xmlns="http://www.w3.org/2000/svg"><mask id="a" fill="#fff"><path d="M0 0h28v5.65H0z" fill-rule="evenodd"/></mask><g fill="none" fill-rule="evenodd"><path d="M18 0c2.837 0 5.52.656 7.907 1.825C31.884 4.753 36 10.895 36 18c0 9.942-8.058 18-18 18-9.94 0-18-8.057-18-18C0 8.06 8.06 0 18 0z" fill="#f2f4f7" fill-rule="nonzero"/><path d="M17.815.897c.003-.082.154-.92.163-.897.008.022.152.887.152.917 0 .004-.07.01-.157.01-.138 0-.158-.004-.158-.03zm.69.063a.91.91 0 0 0-.133-.014c-.036-.002-.07-.007-.074-.016a.704.704 0 0 1 .096-.169l.282-.426c.097-.146.179-.264.182-.26.007.007-.024.118-.16.563a6.825 6.825 0 0 0-.078.268c-.011.04-.024.072-.032.072L18.506.96zM17.284.783c-.185-.602-.22-.719-.217-.722.009-.009.574.841.574.86 0 .011-.054.023-.121.03a1.13 1.13 0 0 0-.148.021c-.021.008-.04-.03-.088-.189zm.628.49c-.09-.047-.105-.147-.034-.215.052-.054.115-.056.176-.003a.13.13 0 0 1-.002.201c-.05.042-.087.047-.14.017zm.36-.007c-.048-.06-.045-.114.008-.17.056-.06.135-.062.192-.003.086.086.028.22-.096.22-.053 0-.075-.012-.103-.047zm-.806.007c-.077-.084-.016-.224.098-.224.107 0 .167.133.102.224-.037.055-.15.055-.2 0zm.054.292c-.037-.118-.035-.127.014-.138.1-.022.61-.03.76-.012.087.011.159.021.163.024a.392.392 0 0 1-.021.093l-.028.086h-.872zm8.955 2.501a.163.163 0 0 0 .056-.013c0-.013-.422-1.124-.474-1.25l-.025-.06-.068.165c-.037.09-.093.226-.126.302l-.2.487c-.08.191-.138.352-.131.36.027.025.818.034.968.01zM24.42 5.543c.015-.03.086-.19.16-.354.073-.164.157-.349.184-.413.026-.062.075-.172.11-.244.056-.125.12-.264.275-.613l.113-.253.289-.657c.152-.348.33-.784.416-1.024l.07-.192.184-.005.184-.005.03.093c.033.1.117.327.256.678a40.027 40.027 0 0 0 .663 1.584 85.723 85.723 0 0 0 .531 1.197c.063.14.116.254.116.258 0 .003-.19.007-.418.007h-.418l-.071-.179-.143-.373c-.04-.105-.114-.292-.163-.416L26.7 4.41l-.674.004-.672.005-.128.316c-.07.176-.168.44-.22.592l-.093.274h-.518zm-2.15-1.998a.655.655 0 0 0 .484-.392c.049-.105.056-.137.06-.312.012-.296-.051-.462-.217-.584-.158-.117-.352-.154-.693-.13l-.205.011V3.55l.11.007c.238.012.359.01.46-.012zm-1.278 1.648c.018-.516.018-3.263 0-3.316l-.012-.04h.847c.948 0 1.027.007 1.248.112.147.07.307.22.378.353.094.177.122.428.075.657-.072.341-.32.591-.723.728a1.63 1.63 0 0 0-.172.063c-.007.007.13.208.489.717.15.214.54.737.709.95l.138.174-.457.005c-.25.002-.466 0-.476-.003a1.045 1.045 0 0 1-.122-.176 33.41 33.41 0 0 0-1.056-1.562c-.02-.029-.047-.039-.091-.04-.057 0-.061.002-.057.048.003.027.008.427.014.893l.007.844h-.753zm-7.655.06c.179-.055.354-.156.499-.29.334-.313.483-.725.483-1.332-.003-.954-.541-1.497-1.482-1.497-.09 0-.245.006-.346.011l-.184.012-.013.16c-.024.33-.012 2.923.015 2.952 0 .002.11.008.246.015.373.022.644.01.782-.03zm-1.765-.462c.007-.446.01-1.293.007-1.88l-.01-1.074h.883c.68 0 .926.005 1.08.026.52.068.886.254 1.172.595.256.305.38.686.38 1.162-.002.842-.35 1.452-1.013 1.778-.14.07-.27.116-.483.168-.063.016-.366.023-1.06.028l-.97.007zm-6.951-.728.047-.012-.096-.254c-.053-.14-.126-.333-.165-.429-.036-.096-.107-.276-.152-.399-.082-.217-.086-.222-.107-.175l-.136.32c-.061.15-.138.334-.172.411-.14.333-.215.526-.208.535.026.026.89.027.989.003zm-2.084 1.52c0-.012.019-.058.042-.103.022-.045.1-.216.173-.379l.257-.578c.264-.583.28-.622.56-1.25.282-.638.595-1.418.595-1.48 0-.007.084-.007.186-.005l.185.005.114.306c.208.566.462 1.187.742 1.82.026.063.157.36.289.656.13.3.273.618.313.71s.09.198.112.24l.037.075h-.851l-.12-.319a36.536 36.536 0 0 0-.227-.595l-.106-.277h-.676c-.63 0-.677.002-.686.031a6.961 6.961 0 0 1-.098.248c-.103.253-.27.71-.302.83l-.021.082h-.26c-.166 0-.258-.007-.258-.018zm-1.27-1.959a.642.642 0 0 0 .324-.24.85.85 0 0 0 .167-.54c0-.326-.121-.554-.356-.669-.088-.044-.122-.049-.315-.056-.118-.002-.25 0-.294.007l-.077.01v.751c0 .7.002.751.032.758.016.004.119.008.228.01a.796.796 0 0 0 .292-.03zM0 3.718v-1.88h.789c.664 0 .807.004.914.027.52.117.814.51.777 1.034a1.03 1.03 0 0 1-.58.878c-.255.126-.384.15-.81.151H.719l.007.061c.004.033.012.38.018.771.005.39.015.738.02.774l.01.066H0zm9.922 1.87c-.17-.22-2.484-2.533-2.558-2.559-.038-.013.002 1.998.049 2.462l.01.11h-.476v-.058c0-.03.013-.246.027-.478C6.99 4.761 7 4.26 7 3.242V1.837h.259l.154.171a48.767 48.767 0 0 0 2.333 2.347l.092.08-.01-.552c-.03-1.38-.047-1.994-.056-2.02-.01-.023.019-.026.23-.026h.24l-.011.25c-.006.137-.016.991-.023 1.898l-.011 1.65h-.12c-.107 0-.12-.004-.155-.048zm8.304-.242c.18-.039.382-.144.52-.27.359-.33.546-.94.49-1.59-.047-.54-.184-.878-.46-1.136-.233-.223-.65-.328-1.027-.26-.527.092-.886.51-1.026 1.2-.114.563.018 1.251.312 1.64.168.22.44.383.728.43.103.017.349.01.463-.014zm-.735.276a2.299 2.299 0 0 1-.866-.358 1.91 1.91 0 0 1-.53-.645 2.07 2.07 0 0 1-.17-.848c0-1.08.604-1.803 1.636-1.962.209-.032.63-.032.847.002.497.075.944.313 1.215.652.262.326.38.7.38 1.194 0 .28-.027.476-.1.703-.21.67-.763 1.14-1.49 1.266a4.19 4.19 0 0 1-.922-.004z" fill="#000" mask="url(#a)" transform="translate(4 15)"/></g></svg>