<svg width="36" height="36" fill="none" xmlns="http://www.w3.org/2000/svg"><path d="M18 0c2.837 0 5.52.656 7.907 1.825C31.884 4.753 36 10.895 36 18c0 9.942-8.058 18-18 18-9.94 0-18-8.057-18-18C0 8.06 8.06 0 18 0z" fill="#F2F4F7"/><path d="m19.82 17.055-2.494 3.588C13.828 25.076 6.169 22.918 6 16.465h3.442a3.062 3.062 0 1 0 6.125 0 3.063 3.063 0 0 0-3.063-3.062c-1.692 0-3.062 1.477-3.062 3.062H6c.226-7.309 10.257-8.945 12.111-2.187-.168.646 1.89-4.315 5.931-4.203 6.898-.14 8.84 11.474.222 12.151h-2.353v3.8h-3.366v-7.037h5.383c1.276 0 1.932-.957 1.945-.972 1.884-1.94-.634-6.171-3.837-3.823-.779.659-1.978 2.504-2.217 2.861l-.221.335.221-.335z" fill="#0756A4"/></svg>