<svg width="36" height="36" fill="none" xmlns="http://www.w3.org/2000/svg"><path d="M18 0c2.837 0 5.52.656 7.907 1.825C31.884 4.753 36 10.895 36 18c0 9.942-8.058 18-18 18-9.94 0-18-8.057-18-18C0 8.06 8.06 0 18 0z" fill="#F2F4F7"/><path d="m17.442 17.238-.177.907c-.205 1.079-.62 1.285-1.536 1.285-.936 0-1.247-.18-1.033-1.285l.172-.907c.202-1.045.554-1.23 1.516-1.23.873.005 1.263.151 1.058 1.23zm-1.99 0-.172.907c-.126.668-.021.73.558.73.529 0 .726-.08.848-.73l.172-.907c.134-.634-.063-.676-.58-.676-.625 0-.713.143-.826.676zm2.687 1.612h1.414l-.105.55h-1.994l.643-3.362h.579l-.537 2.812zm3.815-1.687.034-.185c.076-.39-.059-.416-.567-.416-.583 0-.705.11-.83.769l-.14.743c-.125.671-.075.801.534.801.47 0 .68-.016.772-.5l.034-.184h.579l-.042.219c-.18 1.015-.697.978-1.452 1.015-1.075.047-1.188-.344-1.012-1.326l.147-.773c.206-1.074.625-1.318 1.52-1.318.755 0 1.187.005 1.04.97l-.033.185h-.584zm3.464.075-.172.907c-.206 1.079-.622 1.285-1.537 1.285-.936 0-1.247-.18-1.033-1.285l.173-.907c.197-1.045.554-1.23 1.515-1.23.869.005 1.26.151 1.054 1.23zm-1.99 0-.172.907c-.126.668-.021.73.558.73.529 0 .726-.08.848-.73l.172-.907c.134-.634-.063-.676-.583-.676-.622 0-.71.143-.823.676zm2.775 1.05-.214 1.112h-.584l.642-3.362h1.545c.66.017.87.247.722 1.007-.096.5-.189.86-.718.945l-.004.017c.403.042.458.285.365.764l-.121.63h-.58l.122-.63c.055-.282-.012-.479-.29-.483h-.885zm.869-.55c.428 0 .55-.092.646-.588.093-.474.03-.562-.386-.562h-.81l-.214 1.15h.764zm1.872-1.7h1.339c.81 0 1.037.214.856 1.159-.18.948-.5 1.116-1.293 1.116h-.76l-.21 1.092h-.579l.647-3.367zm1.012 1.721c.415-.008.516-.092.604-.567.092-.474.055-.608-.382-.604h-.76l-.222 1.171h.76zM9.512 16.038h1.339c.81 0 1.037.214.856 1.159-.18.948-.5 1.116-1.293 1.116h-.76l-.21 1.092H8.87l.642-3.367zm1.011 1.721c.416-.008.517-.092.605-.567.092-.474.055-.608-.382-.604h-.76l-.222 1.171h.76zm4.03-.521-.172.907c-.205 1.079-.62 1.285-1.536 1.285-.936 0-1.247-.18-1.033-1.285l.172-.907c.202-1.045.555-1.23 1.516-1.23.869.005 1.26.151 1.053 1.23zm-1.99 0-.171.907c-.126.668-.021.73.558.73.529 0 .726-.08.852-.73l.172-.907c.13-.63-.067-.676-.583-.676-.626 0-.714.143-.827.676zM8.87 16.046H4.62l-.189.936c.118-.017.235-.02.361-.012.727.054 1.13.675 1.906.6.697-.076 1.234-.525 1.948-.525m-.213 1.201c-.395.138-.772.336-1.213.382-.773.075-1.18-.542-1.902-.592-.42-.03-.772.092-1.116.277L4 19.417h4.219" fill="#1A5DA2"/><path d="M8.576 17.364c-.605.084-1.104.496-1.726.571-.772.084-1.162-.617-1.885-.671a1.61 1.61 0 0 0-.608.07l-.118.605a1.422 1.422 0 0 1 1.117-.184c.79.193 1.125.625 1.897.541.445-.054.827-.277 1.226-.436l.097-.496zM31.42 16.29a.29.29 0 0 1 .58 0 .29.29 0 0 1-.58 0zm.513 0c0-.122-.1-.223-.223-.223a.22.22 0 0 0-.222.223.22.22 0 0 0 .222.222c.122 0 .223-.1.223-.222zm-.08.16h-.076l-.07-.127h-.06v.126h-.067v-.31h.156c.07 0 .121.012.121.096 0 .059-.03.08-.084.084l.08.13zm-.109-.181c.034 0 .055-.009.055-.046 0-.038-.038-.038-.072-.038h-.075v.084h.092z" fill="#1A5DA2"/></svg>