<svg width="36" height="36" fill="none" xmlns="http://www.w3.org/2000/svg"><path d="M18 0c2.837 0 5.52.656 7.907 1.825C31.884 4.753 36 10.895 36 18c0 9.942-8.058 18-18 18-9.94 0-18-8.057-18-18C0 8.06 8.06 0 18 0z" fill="#F2F4F7"/><path d="m30.77 20.546-.769-1.113h-2.05l-.092-.002-.093-.012-.084-.02-.083-.027-.08-.032-.074-.04-.07-.046-.07-.053-.057-.06-.052-.064-.044-.069-.04-.071-.03-.077-.023-.085-.014-.084-.003-.09h.003l-.003.09-.013.084-.023.085-.027.077-.045.071-.04.069-.055.064-.06.06-.063.053-.074.045-.074.041-.08.032-.083.027-.084.02-.09.012-.097.002H4l.786 1.113h21.348l.096-.002.091-.015.084-.017.084-.03.079-.034.075-.035.073-.049.064-.056.06-.062.053-.061.042-.071.044-.07.028-.078.023-.085.012-.086.003-.087h-.003l.003.087.015.086.023.085.03.079.04.069.044.07.052.062.058.062.068.056.07.049.075.035.08.034.083.03.084.017.093.015.093.002h2.818zm-3.474-5.541h1.963l.087.007.078.017.064.03.056.043.04.056.035.064.021.074.005.08v2.95l-2.35-3.32z" fill="#EF3E42"/><path d="M29.655 18.34h1.962l.085.008.077.02.067.03.052.043.046.052.03.062.023.08.003.08v2.956l-2.345-3.331zm-3.524 2.21.097-.004.092-.017.081-.017.086-.026.077-.038.078-.034.07-.05.066-.053.058-.062.056-.06.04-.072.044-.072.028-.076.024-.085.01-.087.008-.086h-.008l.008.086.01.087.024.085.032.076.038.072.044.071.05.061.062.062.068.053.067.05.079.034.079.038.08.026.084.017.096.017.093.003h2.823l.79 1.108h-3.613l-.093-.006-.096-.01-.084-.02-.08-.029-.08-.027-.078-.046-.066-.047-.069-.05-.061-.06-.051-.064-.044-.067-.038-.073-.032-.08-.024-.083-.01-.085-.007-.09h.006l-.006.09-.01.085-.025.083-.028.08-.044.073-.04.067-.056.065-.058.058-.065.05-.072.048-.077.046-.077.027-.086.028-.08.02-.093.01-.096.008H5.559l-.772-1.11 21.344.001z" fill="#C2C3C6"/><path d="M16.836 18.57h.492l.07-.01.07-.017.066-.02.061-.026.064-.034.052-.035.052-.043.051-.045.037-.05.035-.052.035-.055.023-.063.017-.059.012-.064v-.131l-.012-.064-.017-.064-.023-.06-.035-.057-.035-.052-.037-.046-.05-.047-.053-.038-.052-.034-.064-.034-.061-.034-.066-.017-.07-.021-.07-.015-.08-.01h-.409v-.529l-.003-.003-1.225-1.737h2.182l.073.005.09.005.091.023.103.026.109.034.114.038.113.052.112.058.106.07.103.075.092.09.08.097.07.108.049.115.034.128.01.138-.008.132-.02.118-.035.107-.049.097-.059.09-.061.08-.07.068-.064.066-.066.055-.065.044-.062.041-.056.03-.05.022-.035.017-.024.012-.01.003.01.002.024.011.046.012.052.022.065.027.07.037.079.043.08.05.075.06.08.068.07.076.06.091.056.098.045.107.026.12.009.126-.01.131-.025.122-.044.115-.056.106-.07.098-.08.087-.087.086-.094.074-.104.065-.102.059-.11.047-.113.037-.105.034-.11.022-.105.012-.096.005H15.61v-4.094l1.225 1.737.003.003h-.003.401l.12-.011.12-.034.113-.056.103-.072.087-.09.07-.104.041-.123.017-.128-.017-.13-.042-.115-.069-.1-.086-.087-.104-.075-.112-.05-.115-.027-.117-.014h-.415l.008 1.216-.002 1.826zm-7.987-1.374h1.412v-.524H8.849v-1.004l.007-.031.002-.026.016-.025.017-.022.02-.017.024-.01.025-.007.032-.002h1.393v-.524H8.352l-.075.005-.074.005-.066.017-.063.028-.069.029-.057.036-.058.037-.048.047-.048.045-.04.06-.036.052-.03.064-.03.066-.016.06-.01.071-.004.07v2.703l.004.072.01.068.017.068.03.067.03.055.035.063.04.05.049.05.047.049.058.035.058.034.068.032.063.026.067.016.073.009.075.004h2.034v-.527H8.998l-.032-.006-.03-.008-.019-.014-.024-.017-.017-.02-.014-.02-.005-.027-.007-.03v-1.232h-.001zm6.521 1.901v-4.092h-.923l-.065.004-.066.014-.064.016-.059.025-.06.034-.055.034-.053.038-.047.043-.045.049-.04.047-.034.044-.037.049-.026.044-.026.045-.017.037-.018.039-.017.044-.034.067-.037.093-.055.11-.058.134-.062.136-.07.148-.066.15-.07.15-.063.14-.062.132-.059.118-.044.098-.035.077-.02.046-.011.02-.01-.02-.021-.046-.036-.072-.04-.093-.056-.111-.061-.126-.067-.137-.066-.147-.07-.145-.073-.143-.064-.144-.068-.123-.058-.123-.045-.096-.044-.081-.024-.056-.05-.09-.052-.096-.066-.092-.075-.087-.088-.078-.096-.065-.117-.037-.133-.017h-.928v4.092l.458-.003.074-.002.072-.008.07-.017.065-.026.06-.028.059-.034.058-.038.05-.046.046-.048.04-.056.035-.053.034-.063.022-.06.018-.065.012-.07.005-.073.003-1.867 1.226 2.61 1.226-2.616v1.873l.005.073.008.07.018.065.027.06.026.063.042.054.04.056.044.047.052.047.053.037.063.034.06.029.068.025.067.017.071.008.075.002.454.003zm5.207-.69v.07l-.012.07-.017.065-.023.062-.035.061-.035.059-.036.05-.052.051-.048.046-.057.035-.06.042-.06.023-.069.028-.066.015-.072.008-.07.006h-.504V15.69l.004-.07.013-.073.017-.064.022-.063.031-.059.035-.056.044-.055.044-.047.052-.046.054-.039.065-.033.058-.03.067-.024.067-.017.07-.005.076-.005h.497v3.403zm2.631.145.026.04.028.044.024.043.035.047.032.049.04.047.033.039.046.045.044.043.049.033.05.036.053.023.057.027.062.016.066.008.066.005h.95l.007-4.094h-.504l-.07.005-.079.005-.063.017-.068.024-.061.03-.063.034-.053.04-.056.045-.04.047-.047.055-.035.056-.028.059-.026.063-.018.064-.012.072-.002.071v1.867l-.015-.019-.029-.053-.05-.093-.064-.118-.082-.14-.09-.152-.095-.174-.097-.175-.105-.184-.098-.174-.094-.167-.086-.16-.082-.14-.073-.114-.046-.092-.035-.057-.026-.042-.026-.043-.027-.049-.034-.043-.032-.046-.042-.046-.033-.043-.047-.042-.04-.04-.051-.033-.046-.034-.056-.025-.058-.029-.06-.017-.067-.005-.067-.005h-.974v4.094l.51-.005h.07l.075-.011.068-.017.067-.026.058-.028.061-.036.056-.037.05-.046.048-.049.04-.05.035-.063.03-.056.026-.067.018-.064.012-.067.002-.072v-1.9l.012.02.032.06.052.089.066.122.083.14.087.161.098.17.1.183.1.185.102.177.1.17.087.164.084.14.067.12.052.087.037.061zm3.132-.691v.546l-.01.07-.008.07-.017.064-.02.063-.03.06-.035.058-.039.052-.05.047-.052.049-.052.036-.056.034-.063.028-.065.025-.071.017-.07.012h-.074l-.51.005v-4.094h1.222l.083.006.073.005.072.012.065.011.058.013.061.023.052.015.046.024.047.032.05.03.034.034.043.037.041.044.038.042.04.05.022.031.035.049.044.06.061.081.063.093.077.11.09.118.087.132.096.138.107.148.105.154.114.155.119.167.119.165.11.17.12.168.12.17.122.165.112.165.114.16.108.156.102.142.1.143.089.127.083.12.075.107.066.092.055.081.045.062.036.048.017.034.009.005H28.6l-.067-.005-.066-.017-.065-.025-.063-.029-.06-.039-.06-.045-.053-.052-.051-.05-.052-.059-.05-.058-.045-.056-.04-.056-.04-.053-.036-.053-.03-.045-.025-.042-.018-.028-.017-.025-.023-.028-.031-.043-.044-.062-.061-.082-.085-.123-.117-.161H26.34l.688-.52-.082-.12-.076-.113-.073-.102-.066-.1-.061-.091-.058-.084-.053-.081-.045-.066-.039-.06-.038-.054-.028-.043-.026-.038-.018-.031-.012-.024-.012-.01v-.006 1.018l.688.006-.689.519zm3.216-2.856h2.041l.095.007.08.017.07.032.054.044.05.059.03.068.024.076v3.17l-2.444-3.473zM5.225 17.451v.956l-.006.07-.009.074-.015.064-.032.06-.022.063-.035.054-.048.056-.044.047-.052.048-.052.037-.061.033-.058.03-.067.026-.07.017-.072.008-.07.003h-.509v-4.091L6.226 15l.13.006.128.02.122.03.116.042.11.05.105.063.1.07.088.08.083.084.071.097.063.103.058.104.038.115.032.115.02.123.006.126-.006.122-.02.124-.032.118-.038.114-.058.106-.063.103-.07.092-.084.091-.088.075-.1.074-.104.055-.111.053-.115.042-.122.032-.128.022-.131.003-1.001-.003.387-.525.07-.004.07-.012.063-.017.068-.026.057-.03.055-.037.056-.039.047-.045.044-.053.044-.05.028-.062.031-.06.025-.064.014-.06.009-.068.005-.07-.005-.069-.01-.064-.014-.067-.024-.061-.031-.065-.028-.056-.044-.053-.044-.05-.047-.049-.056-.044-.055-.031-.057-.031-.068-.029-.063-.015-.07-.012-.07-.005h-.387v1.398h.387l-.387.525z" fill="#1F1A17"/></svg>