<svg width="36" height="36" fill="none" xmlns="http://www.w3.org/2000/svg"><path d="M18 0c2.837 0 5.52.656 7.907 1.825C31.884 4.753 36 10.895 36 18c0 9.942-8.058 18-18 18-9.94 0-18-8.057-18-18C0 8.06 8.06 0 18 0z" fill="#F2F4F7"/><path d="M4.508 20.345h-.393c-.033 0-.115 0-.115-.05 0-.032.016-.049.066-.065.36-.115.442-.312.442-.59v-2.935c0-.262-.082-.459-.442-.59-.05 0-.066-.032-.066-.049 0-.065.082-.049.115-.049H7.36c.738 0 1.345.59 1.345 1.328 0 .738-.607 1.327-1.345 1.327H5.721v1c.017.262.098.442.442.558.05.016.066.032.066.065 0 .05-.082.05-.115.05H4.508zm24.197-1.59h.77l-.77-1.312-.082-.131-.688 1.442h.77zm0-2.755h.525l2.197 3.87a.707.707 0 0 0 .245.246c.082.065.18.082.262.114.033.017.066.034.066.066 0 .05-.082.05-.115.05h-1.95c-.033 0-.132 0-.132-.05 0-.032.033-.049.066-.066.098-.032.164-.081.197-.18.033-.115 0-.18-.082-.328a27.453 27.453 0 0 0-.344-.705h-1.836l-.017.033c-.016.066-.147.295-.245.541-.131.262-.18.328-.148.46.017.097.099.147.197.18.033.016.049.032.049.065 0 .049-.082.049-.115.049h-.902c-.032 0-.114 0-.114-.05 0-.032.016-.048.065-.065.082-.032.18-.049.262-.114a.704.704 0 0 0 .246-.246l.115-.246 1.246-2.607-.18-.312c-.164-.262-.329-.426-.509-.524-.082-.05-.164-.05-.245-.082-.05-.017-.066-.033-.05-.066 0-.033.033-.017.05-.033h1.197zm-4.901 4.328h.066c3.016 0 2.983-4.312 0-4.312h-2.476c-.049 0-.13-.016-.13.05 0 .016.032.049.065.049.36.114.442.311.459.557v3.001c-.017.262-.099.442-.46.557-.032.017-.065.033-.065.066 0 .049.082.049.131.049h1.59v-.017h.82zm0-4a.84.84 0 0 1 .836.836v2a.84.84 0 0 1-.836.836h-.82v-3.672h.82zm-6.246 2.426h.77l-.77-1.311-.082-.131-.688 1.442h.77zm0-2.754h.54l2.197 3.87a.558.558 0 0 0 .23.246c.081.065.18.082.278.114.033.017.066.034.066.066 0 .05-.099.05-.131.05h-1.95c-.033 0-.115 0-.115-.05 0-.032.016-.049.065-.066.082-.032.164-.081.18-.18.033-.115 0-.18-.065-.328-.115-.245-.246-.475-.36-.705h-1.837l-.016.033c-.017.066-.132.295-.246.541-.115.262-.18.328-.148.46.033.097.099.147.197.18.033.016.065.032.065.065 0 .049-.081.049-.13.049h-.886c-.033 0-.131 0-.131-.05 0-.032.032-.048.065-.065.098-.032.18-.049.28-.114a.666.666 0 0 0 .229-.246l.114-.246 1.263-2.607-.18-.312a1.555 1.555 0 0 0-.509-.524c-.098-.05-.164-.05-.262-.082-.033-.017-.066-.033-.05-.066.017-.033.05-.017.067-.033h1.18zm-5.41 2.87c.377.13.836.163 1.196.048l1.427 1.23.114.098a.06.06 0 0 1 .017.05c0 .049-.082.049-.115.049h-1.508l-1.131-.935-.918-.738v1.017c.016.245.114.426.459.54.032.017.049.033.049.066 0 .05-.082.05-.115.05H9.639c-.049 0-.131 0-.131-.05 0-.033.033-.05.065-.066.394-.13.443-.327.46-.639v-2.836c-.017-.295-.066-.508-.46-.639-.032 0-.065-.032-.065-.049 0-.065.082-.049.131-.049h3.197a1.322 1.322 0 0 1 1.328 1.317v.011a1.322 1.322 0 0 1-1.317 1.327h-1.044c.05.098.164.131.262.18.033 0 .05.017.082.017zm0-.509h.131c.426 0 .787-.46.787-1.05 0-.573-.361-1.032-.787-1.032h-1.05v2.082h.919zm-5.493-2.082h-.934v2.082h1.082c.442 0 .786-.459.786-1.05 0-.573-.344-1.032-.786-1.032h-.148z" fill="#000"/></svg>