<svg height="36" viewBox="0 0 36 36" width="36" xmlns="http://www.w3.org/2000/svg"><mask id="a" fill="#fff"><path d="M0 0h6.648v5.391H0z" fill-rule="evenodd"/></mask><mask id="b" fill="#fff"><path d="M0 0h28v3.16H0z" fill-rule="evenodd"/></mask><g fill="none" fill-rule="evenodd"><path d="M18 0c2.837 0 5.52.656 7.907 1.825C31.884 4.753 36 10.895 36 18c0 9.942-8.058 18-18 18-9.94 0-18-8.057-18-18C0 8.06 8.06 0 18 0z" fill="#f2f4f7" fill-rule="nonzero"/><path d="M16.159 12.172c.04.035.082.025.084.046.024.052-.074.166-.148.238-.06.025-.316.12-.48.274-.39.246-.957.014-1.432.005-.212.02-.303.087-.457.295-.073.076-.103.094-.18.072-.051-.023-.014-.058 0-.077.045-.049.13-.068.12-.155 0-.1-.09-.162 0-.3.416-.512 1.374-.139 2.04-.197.19-.043.196-.112.142-.107-.585.053-.852-.546-1.475-.367-.484.102-1.155.718-1.533.164-.163-.303.249-.149.175-.436-.007-.08.139-.142.144-.046.044.14.12.265.286.31.723.066 1.294-.63 2.025-.223.24.16.435.357.689.504m.148-.69c.21.23.42.253.694.21.63-.177 1.134-.3 1.75-.329.49-.009 1.105.05 1.47.198.156.075.235.187.175.32-.103.162-.2.187-.175.54-.005.027-.07.048-.074-.024.01-.11.01-.172-.052-.242-.143-.145-.501-.184-.778-.24-.923-.184-1.958-.069-2.866.071a.456.456 0 0 1-.405-.198c-.074-.194.12-.146.04-.39a.18.18 0 0 1-.004-.06c-.005-.025.04-.078.075-.083.08.031.029.103.15.227" fill="#ee3224"/><path d="M15.423 17.224c.007.032.037.062.057.003" fill="#000"/><g fill="#77787b"><path d="M.1 3.27c.024.035.043.011.118.053.034.028.034.084.06.113.036.042.1.011.058.172-.049.258-.047.606.015.848.012.05.044.114.02.138-.035.01-.047-.012-.079-.073C.202 4.32-.07 3.73.017 3.198.05 3.17.082 3.151.1 3.27m2.781-.147c.123.111-.304-.043-.363.033-.01.077.163.145.025.213-.085.052-.195.115-.302.076-.08-.096.151-.08.07-.178-.13-.106-.272.048-.388.097-.087-.007.005-.058-.025-.12-.015-.074-.057-.132.035-.165.273-.063.824-.067.948.044m1.506-.267c.032.061-.089.033-.217.082-.153.076-.183.117-.198.213-.007.05.108-.005.227.097.035.033.091.095.035.16-.084.043-.217.15-.272.057-.049-.09.094-.053.02-.145-.02-.019-.052-.017-.076-.009-.15.328-.09.796-.176 1.168-.052.121-.192.193-.323.261-.042-.012-.176-.13-.285-.077-.105.095-.189.067-.276.043-.054-.032-.136-.039-.12-.11.061-.054.177.052.283.004.06-.047.082-.062.19-.049.121.02.294.04.395-.019.15-.136.04-.224 0-.825-.007-.039-.084-.543.233-.74.155-.096.538-.155.56-.11m-1.484-.209s.022.006.017.027c-.003.022-.017.017-.017.017a2.411 2.411 0 0 0-.904.146c-.356.115-.405.221-.457.227-.148-.039.097-.145-.027-.27-.052-.08.035-.103.09-.112.39-.117.893-.117 1.298-.035m3.655-.077c.054.128.147.418.044.498-.096.002.03-.158-.133-.167-.358.097-.534.612-.598.755-.269.605-.378.824-.38 1.58.005.046.037.146.007.155-.19-.024-.148-.706-.113-.974.143-.777.293-1.267.713-1.856a.33.33 0 0 1 .227-.11c.102 0 .178.015.233.12M4.082.744c.111.086.32.145.311.278-.017.102-.084.132-.16.161-.092.017-.136.02-.176-.097C4.048.9 3.974.827 3.9.727 3.863.67 3.86.643 3.902.594c.1-.067.094.103.18.151M1.075.195a.62.62 0 0 1 .397-.02c.245.106.371.554.721.357.015-.009.032-.018.047-.029.1-.04.205.016.252.111.084.224.245.53.242.56-.034.087-.12.01-.165-.019C2.391.97 2.2.943 1.991.827 1.838.74 1.742.615 1.628.557 1.304.421.835.483.722.16.72.102.742.078.782.068c.053.004.14.152.293.126M3.27.74c-.049-.05-.074-.063-.1-.08-.06-.036-.13-.073-.184-.107C2.78.42 2.561.292 2.482.073c-.008-.089.094-.095.146-.033.101.111.207.231.385.274.2.02.403.064.477.208.04.142.086.366.02.471-.117.09-.134-.148-.24-.254" mask="url(#a)" transform="translate(15.82 10)"/><path d="M20.312 13.508a3.39 3.39 0 0 1-.034.634c-.067.452-.193.662-.279.883-.232.387-.445.806-.697 1.169-.062.067-.014.034-.062.067a.71.71 0 0 1-.508.107c-.212-.03-.445-.064-.628-.141 0 0-.827-.396-1.094-.637 0 0-.03-.03-.022-.04.008-.007.022-.003.022-.003.552.304 1.186.642 1.922.559.41-.115.501-.492.713-.763.334-.522.623-1.195.62-1.835 0-.04.04-.042.047 0"/><path d="M15.99 15.425c.028.085.036.21-.076.305-.086.093-.106.096-.177.132.014-.183.034-.406.054-.585.106.009.173.09.2.148m-.511 1.803c.109-.35.165-.74.212-1.136.299-.14.568-.39.586-.613.022-.277-.247-.396-.465-.532a3.17 3.17 0 0 0-.101-.74s-.005-.03-.025-.034c-.01-.002-.031.014-.031.014-.142.155-.166.385-.24.6-.131-.062-.31-.057-.457-.032-.06.028-.12.086-.07.154.077.169.285.26.504.27-.02.227-.032.332-.047.554 0 0-.004.166.003.316-.257.126-.524.247-.595.517-.015.173.07.275.19.357.126.105.032.244.052.28.042.034.064-.006.126-.063.12-.203-.072-.328-.035-.55.018-.093.127-.271.267-.31.025.313.025.648.069.944m.233-3.621c.009-.04-.023-.083-.055-.023l-.003.01c-.111.167-.232.337-.446.415-.15.058.039.139-.104.269-.027.03-.027.167.059.112a1.36 1.36 0 0 0 .54-.766m5.78 3.037c.009.015-.018.026-.018.026-.208.135-.3.347-.385.558 0 0-.013.027-.03.03-.035.005-.042-.034-.042-.034.007-.23-.186-.062-.15-.218.056-.13.323-.39.609-.371 0 0 .013-.006.017.009m.07-.551c.044.026-.132.128-.186.21-.081.124-.098.228-.167.187-.018-.015.002-.071-.018-.115-.02-.021-.106-.012-.037-.107.032-.035.259-.207.408-.175m-.465-.304s.057.022.042.054c-.007.018-.024.028-.046.035-.344.165-.267.563-.378.916-.077.338-.45.459-.496.826 0 .023-.025.062-.06.005-.101-.15-.042-.406.015-.555.116-.261.546-.29.484-.672-.02-.284-.06-.546.1-.735.06-.043.149-.091.198 0 .008.11.04.097.14.126m-1.791-.514c.01 0 .02.012.02.012a.327.327 0 0 1-.243.299.524.524 0 0 1-.44-.246s-.016-.018-.02-.035c-.001-.018.02-.013.02-.013.189.068.47.149.638-.005 0 0 .017-.013.025-.012m-.06-.316c.047-.06.104-.046.129.009l.047.16c.005.019-.008.046-.033.019-.021-.023-.22-.112-.291.03-.017.002-.017-.003-.032-.011-.06-.033-.151-.181-.29-.072-.09.048-.216.159-.374.107-.042-.021-.064-.046-.034-.064.222.01.353-.15.518-.231.133-.02.249.227.36.053"/></g><path d="M15.42 17.245c.008.032.038.062.058.004" fill="#000"/><path d="M7.383 3.16c.603 0 1.102-.245 1.287-.752.042-.113.071-.262.071-.542V0h-.625v1.86a.91.91 0 0 1-.061.382c-.111.262-.38.375-.672.375-.294 0-.561-.113-.674-.375-.037-.084-.059-.186-.059-.382V0h-.628v1.866c0 .28.03.429.072.542.185.507.686.752 1.289.752zM21.1 0h-2.718v.572h.995v2.504h.624V.572h.914zM4.835 1.359c-.069.036-.166.055-.355.055h-.83V.572h.83c.189 0 .286.019.355.054A.39.39 0 0 1 5.05.99a.392.392 0 0 1-.215.369zm.227.453v-.011c.376-.108.62-.37.62-.847a.902.902 0 0 0-.519-.835C5.015.048 4.83 0 4.492 0H3.025v3.076h.625V1.985h.375c.161 0 .269.018.37.06.275.113.472.418.685 1.031h.728c-.185-.542-.43-1.031-.746-1.264zm-3.225-.387c-.084.036-.18.059-.506.059H.627V.572h.704c.326 0 .422.025.506.06.166.071.233.226.233.4-.001.172-.067.321-.233.393zM2.106.101C1.926.03 1.728 0 1.264 0H0v3.076h.627v-1.02h.637c.464 0 .662-.029.842-.1.393-.155.595-.483.595-.931 0-.441-.202-.768-.595-.924zM18.137 0h-.627v1.973L15.972 0h-.684v3.076h.624V.906l1.657 2.17h.568zm9.678 2.504H26.33V0h-.627v3.076H28zm-6.517.572h.627V0h-.627zM14.845 0h-2.482v3.076h2.589l-.186-.571h-1.775v-.722h1.484v-.572h-1.484V.572h1.728zm-3.852 2.385c-.113.072-.316.12-.568.12h-.558V.572h.558c.252 0 .455.048.568.12.279.173.375.519.375.846 0 .328-.096.674-.375.847zm.245-2.236C11.035.055 10.783 0 10.356 0H9.24v3.077h1.116c.427 0 .679-.054.882-.149.477-.227.763-.698.763-1.39 0-.691-.286-1.162-.763-1.389zm12.139 1.765.425-1.163.434 1.163zM24.106 0h-.608l-1.222 3.076h.679l.215-.59h1.281l.22.59h.679z" fill="#ee3224" mask="url(#b)" transform="translate(4 18.715)"/></g></svg>