<svg width="36" height="36" fill="none" xmlns="http://www.w3.org/2000/svg"><path d="M18 0c2.837 0 5.52.656 7.907 1.825C31.884 4.753 36 10.895 36 18c0 9.942-8.058 18-18 18-9.94 0-18-8.057-18-18C0 8.06 8.06 0 18 0z" fill="#F2F4F7"/><path fill-rule="evenodd" clip-rule="evenodd" d="M5.946 11h24.109c.52 0 .945.424.945.943v11.662a.947.947 0 0 1-.945.942H5.945A.947.947 0 0 1 5 23.605V11.943c0-.519.426-.943.946-.943z" fill="#F37B36"/><path d="M10.954 15.039h.443c.207 0 .679 0 .679-.511 0-.499-.483-.499-.72-.499h-.402v1.01zm-1.042-1.962h1.393c.788 0 1.082.12 1.312.31.334.275.5.694.5 1.124 0 .43-.178.883-.449 1.113-.293.246-.58.367-1.242.367h-.473v1.33h-1.04m6.462.001h-.903v-.34h-.012c-.195.408-.587.442-.829.442-.195 0-.656-.045-.938-.401-.253-.316-.287-.545-.287-.98v-1.905h.955v1.76c0 .219 0 .638.512.638.276 0 .547-.144.547-.649v-1.75h.955m2.043 2.404c.49 0 .8-.396.8-.814 0-.413-.31-.81-.783-.81-.506 0-.793.408-.793.804 0 .442.298.82.776.82zm-1.698-3.465h.956v1.314c.34-.361.794-.361.926-.361.668 0 1.571.476 1.571 1.68 0 1.148-.8 1.721-1.611 1.721-.449 0-.794-.218-.915-.447h-.012v.339h-.915m4.714-4.245h-.956v4.245h.956v-4.245zm1.301 4.245h-.956v-3.184h.956v3.184zm0-3.523h-.956v-.723h.956v.723zm3.688 2.311a1.703 1.703 0 0 1-1.674 1.314 1.688 1.688 0 0 1-1.71-1.703c0-.935.731-1.692 1.686-1.692.847 0 1.531.556 1.693 1.336h-.967c-.104-.218-.294-.447-.69-.447-.456-.023-.76.35-.76.809 0 .464.304.809.76.809.396 0 .586-.23.69-.425M8.993 19.086c-.023-.143-.057-.412-.39-.412-.191 0-.375.131-.375.332 0 .253.115.304.88.648.795.356.996.723.996 1.216 0 .62-.357 1.302-1.485 1.302-1.231 0-1.536-.803-1.536-1.348v-.137h1.082c0 .493.304.58.443.58a.41.41 0 0 0 .414-.408c0-.281-.178-.35-.834-.626-.3-.12-1.042-.418-1.042-1.216 0-.796.777-1.25 1.49-1.25.42 0 .875.155 1.151.482.254.31.271.596.282.837m1.773-.177h.46v.723h-.46v2.46h-.955v-2.46h-.472v-.723h.472v-1.062h.955m2.274 3.453c.414 0 .764-.338.764-.803 0-.464-.35-.803-.764-.803-.415 0-.766.339-.766.803 0 .465.351.804.766.804zm0-2.495c1.162 0 1.72.913 1.72 1.692 0 .78-.558 1.693-1.72 1.693-1.163 0-1.721-.912-1.721-1.693 0-.78.558-1.692 1.72-1.692zm2.025.104h.898v.338h.011c.081-.155.248-.447.8-.447v.957c-.443.012-.754.104-.754.586v1.749h-.955m3.609-.78c.598 0 .8-.505.8-.815 0-.384-.265-.808-.806-.808-.547 0-.789.459-.789.82 0 .298.219.803.794.803zm1.755.78h-.956v-.344h-.011c-.162.31-.558.453-.933.453-1.012 0-1.605-.792-1.605-1.704 0-1.043.754-1.697 1.605-1.697.524 0 .818.252.933.447h.011v-.338h.956m2.037 2.397c.46 0 .783-.332.783-.791 0-.51-.351-.82-.777-.82a.775.775 0 0 0-.771.791c0 .51.368.82.765.82zm1.738.402c0 .476-.034.78-.19 1.05-.247.4-.829.751-1.617.751-1.11 0-1.53-.666-1.594-1.119h1.105c.138.316.495.316.558.316.12 0 .777-.012.777-.866v-.098h-.012c-.097.183-.374.454-.874.454-.87 0-1.612-.655-1.612-1.676 0-1.09.783-1.715 1.612-1.715.356 0 .707.127.88.402h.012v-.298h.955m2.682 1.238a.704.704 0 0 0-.725-.544.705.705 0 0 0-.725.544h1.45zm.846.947a1.87 1.87 0 0 1-.65.814c-.265.19-.582.288-.91.288-.914 0-1.692-.74-1.692-1.687 0-.89.703-1.71 1.675-1.71.972 0 1.686.77 1.686 1.739 0 .126-.011.177-.023.252H26.5c.058.379.374.602.748.602.294 0 .45-.132.581-.298m1.015.7v.09h.039c.016 0 .055 0 .055-.049 0-.04-.034-.041-.051-.041h-.043zm.056-.055c.062 0 .118.026.118.09a.08.08 0 0 1-.052.078c.023.01.043.026.046.075.004.056.004.062.01.079h-.078c-.006-.012-.009-.067-.01-.077-.003-.019-.007-.047-.058-.047h-.032v.124h-.08v-.322h.136zm-.24.164a.23.23 0 0 0 .228.232.229.229 0 0 0 .226-.232.229.229 0 0 0-.225-.232.23.23 0 0 0-.229.232zm.517 0c0 .16-.13.29-.29.29a.29.29 0 1 1 .001-.58.29.29 0 0 1 .29.29z" fill="#FEFEFE"/></svg>