<svg width="36" height="36" fill="none" xmlns="http://www.w3.org/2000/svg"><path d="M18 0c2.837 0 5.52.656 7.907 1.825C31.884 4.753 36 10.895 36 18c0 9.942-8.058 18-18 18-9.94 0-18-8.057-18-18C0 8.06 8.06 0 18 0z" fill="#F2F4F7"/><path fill-rule="evenodd" clip-rule="evenodd" d="M9.7 17.533a.205.205 0 0 0-.204.206c0 .114.092.206.205.206h4.291a.41.41 0 0 1 .41.412v3.71a.41.41 0 0 1-.41.411h-6.13a.41.41 0 0 1-.41-.412V20.83a.41.41 0 0 1 .41-.412h4.291a.205.205 0 0 0 .204-.206.205.205 0 0 0-.204-.206H7.861a.41.41 0 0 1-.409-.413v-3.708a.41.41 0 0 1 .41-.412h4.291a.205.205 0 0 0 .204-.207.205.205 0 0 0-.204-.206H7.657a.617.617 0 0 0-.613.618v6.388a.41.41 0 0 1-.409.412H5.409A.41.41 0 0 1 5 22.066v-8.654A.41.41 0 0 1 5.409 13h8.583a.41.41 0 0 1 .41.412v3.709a.41.41 0 0 1-.41.412H9.701zm6.746 1.99h.353v1.304h1.716v-1.304h.352v2.955h-.352v-1.353h-1.716v1.353h-.353v-2.955zm3.653 2.727c.402 0 .644-.31.644-.81 0-.501-.242-.816-.644-.816s-.645.315-.645.815c0 .501.242.811.645.811zm0 .278c-.57 0-.981-.418-.981-1.089 0-.67.41-1.092.98-1.092.571 0 .982.422.982 1.092 0 .67-.41 1.089-.981 1.089zm1.256-.05v-2.954h.34v2.954h-.34zm2.253-1.072c0-.471-.23-.79-.632-.79-.406 0-.645.335-.645.823 0 .485.239.82.645.82.402 0 .632-.323.632-.795v-.058zm-.004.708a.776.776 0 0 1-.698.414c-.525 0-.92-.43-.92-1.089 0-.662.395-1.092.92-1.092a.73.73 0 0 1 .686.418v-1.241h.34v2.954h-.328v-.364zm.747.364v-2.081h.34v2.081h-.34zm1.088-1.7c.098-.257.357-.431.673-.431.463 0 .738.294.738.79v1.341h-.34v-1.266c0-.385-.169-.584-.493-.584-.316 0-.566.203-.566.704v1.146h-.34v-2.081h.328v.38zm3.304.562c0-.43-.267-.724-.649-.724-.402 0-.64.31-.64.774 0 .46.238.778.64.778.382 0 .649-.298.649-.729v-.099zm-.025.7c-.095.202-.324.4-.686.4-.529 0-.915-.4-.915-1.05 0-.625.386-1.043.915-1.043.362 0 .6.215.698.414v-.364h.333v1.924c0 .662-.427.943-.977.943-.497 0-.833-.202-.915-.608h.344c.07.26.288.344.567.344.406 0 .636-.22.636-.654v-.306zm.907-.178c.025.285.287.405.567.405.283 0 .488-.132.488-.356 0-.153-.099-.252-.361-.302l-.366-.074c-.332-.062-.574-.199-.574-.563 0-.352.312-.625.767-.625.476 0 .768.207.809.6h-.316c-.025-.211-.21-.335-.493-.335-.275 0-.451.136-.451.34 0 .177.123.252.361.297l.41.079c.337.066.534.232.534.567 0 .364-.34.633-.805.633-.492 0-.861-.22-.898-.666h.328zm-5.284-1.976v-.362h.36v.362h-.36zm-7.752-1.645c.046.476.431.637.866.637.419 0 .727-.203.727-.558 0-.249-.136-.41-.534-.485l-.558-.111c-.394-.075-.747-.257-.747-.766 0-.484.415-.848 1.022-.848.628 0 1.043.273 1.1.807h-.34c-.05-.331-.337-.522-.756-.522-.427 0-.681.24-.681.55 0 .295.164.398.521.468l.575.12c.451.091.739.302.739.77 0 .505-.444.86-1.064.86-.636 0-1.17-.277-1.21-.922h.34zm3.785-.199c0-.471-.23-.79-.632-.79-.406 0-.644.335-.644.823 0 .485.238.82.644.82.403 0 .632-.323.632-.795v-.058zm-.016.708a.756.756 0 0 1-.685.414c-.526 0-.92-.43-.92-1.089 0-.662.394-1.092.92-1.092.357 0 .603.22.697.43v-.38h.329v2.817h-.341v-1.1zm2.088.364v-.377c-.098.261-.345.427-.657.427-.467 0-.73-.286-.73-.79v-1.341h.345v1.274c0 .385.16.588.484.588.312 0 .546-.215.546-.716v-1.146h.345v2.08h-.333zm2.033-.82v-.186l-.563.063c-.258.037-.472.103-.472.384 0 .195.136.344.394.344.32 0 .64-.203.64-.604zm.008.468c-.09.244-.374.397-.718.397-.361 0-.67-.21-.67-.595 0-.402.296-.576.715-.625l.665-.087v-.12c0-.331-.201-.472-.485-.472-.275 0-.447.145-.472.385h-.328c.041-.422.37-.662.809-.662.5 0 .812.24.812.74v.957c0 .153.008.297.05.434h-.341a1.841 1.841 0 0 1-.037-.352zm1.868-1.444a.824.824 0 0 0-.176-.016c-.329 0-.628.26-.628.786v1.026h-.34v-2.081h.327v.492c.09-.343.353-.538.657-.538.053 0 .11.004.16.017v.314zm.395.579h1.182c-.008-.36-.185-.637-.554-.637-.324 0-.57.21-.628.637zm.648 1.266c-.582 0-.993-.41-.993-1.08 0-.679.423-1.1.973-1.1.611 0 .886.492.886 1.025v.137h-1.526c.016.48.267.745.66.745.28 0 .448-.137.534-.39h.32c-.094.444-.451.663-.854.663zm-9.877-4.694c.443 0 .685-.186.685-.588 0-.401-.242-.583-.685-.583h-.726v1.17h.726zm-.726.298v1.188h-.35V13h1.084c.653 0 1.03.302 1.03.881 0 .584-.377.886-1.026.886h-.738zm2.168-.029h1.181c-.008-.36-.184-.637-.553-.637-.325 0-.571.21-.628.637zm.648 1.266c-.583 0-.993-.41-.993-1.08 0-.678.423-1.1.973-1.1.611 0 .886.492.886 1.026v.136H18.95c.017.48.267.745.661.745.28 0 .447-.136.534-.389h.32c-.095.443-.452.662-.854.662zm2.34-1.845a.824.824 0 0 0-.176-.017c-.328 0-.628.26-.628.786v1.026h-.34v-2.08h.328v.492c.09-.344.352-.538.656-.538.054 0 .111.004.16.016v.315zm.436 1.179c.025.286.287.405.567.405.283 0 .488-.132.488-.355 0-.153-.099-.253-.361-.302l-.365-.075c-.333-.062-.575-.198-.575-.563 0-.351.312-.624.767-.624.476 0 .768.207.809.6H23.4c-.025-.211-.21-.336-.493-.336-.275 0-.451.137-.451.34 0 .178.123.252.361.298l.41.078c.337.066.534.232.534.567 0 .364-.34.633-.804.633-.493 0-.862-.22-.9-.666h.33zm2.677-1.514c.464 0 .739.293.739.79v1.34h-.34v-1.266c0-.384-.17-.583-.494-.583-.316 0-.566.203-.566.703v1.146h-.34V13h.34v1.254c.099-.265.345-.43.66-.43zm2.204.43c.098-.257.357-.43.673-.43.464 0 .739.293.739.79v1.34h-.34v-1.266c0-.384-.17-.583-.493-.583-.316 0-.567.203-.567.703v1.146h-.34v-2.08h.328v.38zm3.298.563c0-.43-.267-.724-.648-.724-.403 0-.64.31-.64.773 0 .46.237.778.64.778.381 0 .648-.298.648-.728v-.1zm-.025.699c-.094.203-.324.401-.685.401-.53 0-.915-.401-.915-1.05 0-.626.386-1.043.915-1.043.361 0 .6.215.698.413v-.364h.332v1.924c0 .662-.427.944-.977.944-.496 0-.833-.203-.915-.609h.345c.07.261.287.344.566.344.407 0 .636-.22.636-.654v-.306zm-4.34.438v-2.08h.34v2.08h-.34zm-.01-2.592V13h.36v.362h-.36z" fill="#003962"/></svg>