<svg height="36" viewBox="0 0 36 36" width="36" xmlns="http://www.w3.org/2000/svg"><mask id="a" fill="#fff"><path d="M0 0h3.722v3.9H0z" fill-rule="evenodd"/></mask><mask id="b" fill="#fff"><path d="M0 0h4.49v5.309H0z" fill-rule="evenodd"/></mask><mask id="c" fill="#fff"><path d="M0 0h3.986v3.806H0z" fill-rule="evenodd"/></mask><g fill="none" fill-rule="evenodd"><path d="M18 0c2.837 0 5.52.656 7.907 1.825C31.884 4.753 36 10.895 36 18c0 9.942-8.058 18-18 18-9.94 0-18-8.057-18-18C0 8.06 8.06 0 18 0z" fill="#f2f4f7" fill-rule="nonzero"/><g fill="#3d3935"><path d="M15.373 24.38c-.091.126-.39.504-.76.504-.502 0-.607-.352-.607-.647 0-.486.371-.71 1.367-.956zm1.239.594a.078.078 0 0 0-.092-.05l-.012.003c-.115.024-.203.018-.264-.024-.087-.06-.13-.193-.13-.408v-1.947c0-.76-.453-1.145-1.347-1.145-.802 0-1.43.379-1.43.864 0 .248.153.429.377.455a.464.464 0 0 0 .387-.155c.197-.208.17-.455-.068-.722.141-.148.392-.234.677-.234.465 0 .663.275.663.922v.491c-.109.034-.21.065-.398.11-.376.088-.893.206-1.282.42a.886.886 0 0 0-.485.828c0 .406.267.88 1.017.88.42 0 .797-.2 1.183-.627.034.444.202.61.61.61.196 0 .354-.045.54-.136a.106.106 0 0 0 .054-.135z"/><path d="M1.825.208c-.46 0-.986.198-.986 1.738 0 1.175.346 1.746 1.058 1.746.683 0 .987-.539.987-1.746 0-1.17-.346-1.738-1.06-1.738m.04 3.692C.802 3.9 0 3.066 0 1.962 0 .88.837 0 1.865 0c1.041 0 1.857.848 1.857 1.93 0 1.216-.964 1.97-1.857 1.97" mask="url(#a)" transform="translate(23.123 21.378)"/><path d="M1.606 4.588V3.18h.542c.81 0 1.425-.17 1.83-.507.422-.353.512-.802.512-1.115C4.49.27 3.247 0 2.205 0h.004H.096a.087.087 0 0 0-.088.086v.006V.09c0 .045.027.084.069.1.188.068.7-.03.7.52v3.877c0 .282-.125.482-.697.535a.088.088 0 0 0-.08.087v.013c0 .048.039.087.087.087h2.258a.087.087 0 0 0 .087-.087V5.21a.088.088 0 0 0-.08-.086c-.622-.05-.747-.242-.747-.537V3.182m1.95-1.64c0 .896-.222 1.389-1.35 1.389h-.599V.224h.623c1.169 0 1.325.667 1.325 1.317" mask="url(#b)" transform="translate(5 19.907)"/><path d="M10.25 22.841c.083-.808.398-1.25.893-1.25.248 0 .43.07.56.21.179.193.254.543.224 1.04zm.948-1.464c-.982 0-1.782.89-1.782 1.984 0 1.108.75 1.911 1.782 1.911.87 0 1.292-.518 1.533-.908a.086.086 0 0 0-.024-.116l-.01-.007a.086.086 0 0 0-.119.015c-.32.401-.599.633-1.08.633-.61 0-1.263-.42-1.263-1.601v-.008c-.001-.053 0-.124.001-.19h2.497a.013.013 0 0 0 .013-.013l.002-.02c.035-.483-.102-.919-.386-1.223-.277-.3-.68-.457-1.164-.457zm10.349 1.508c-.683-.192-.949-.386-.949-.692 0-.348.276-.602.658-.602.448 0 .64.215 1.114 1.006l.007.011c.002.004.006.007.01.007h.066a.087.087 0 0 0 .086-.088V21.39a.013.013 0 0 0-.013-.013h-.085a.088.088 0 0 0-.067.031l-.152.184a1.797 1.797 0 0 0-.813-.215c-.784 0-1.332.484-1.332 1.179 0 .651.432.894 1.178 1.096.724.198.981.406.981.789 0 .425-.413.618-.706.618-.545 0-.776-.204-1.298-1.144l-.007-.01a.013.013 0 0 0-.012-.006h-.065a.087.087 0 0 0-.087.086v1.275c0 .007.006.012.014.012h.088a.083.083 0 0 0 .061-.025l.24-.239c.28.174.697.264.97.264.407 0 .743-.128.97-.373.201-.217.312-.527.312-.87 0-.593-.316-.903-1.169-1.144m-4.131 1.873c0 .197-.05.261-.363.282a.087.087 0 0 0-.08.086c0 .047.038.085.085.085h1.546c.047 0 .085-.038.085-.084s-.036-.084-.082-.086c-.358-.018-.45-.076-.45-.283v-2.265c.254-.424.437-.645.746-.712a.644.644 0 0 0-.026.17c0 .275.193.467.468.467.27 0 .46-.192.46-.467 0-.26-.163-.564-.621-.564-.376 0-.736.215-1.044.73v-.583a.105.105 0 0 0-.108-.105l-.974.025a.086.086 0 0 0-.083.088v.012c0 .043.03.08.072.085.324.046.369.2.369.36z"/><path d="M1.087.025c.023 0 .044.008.06.024a.086.086 0 0 1 .027.062l.003.647S1.494 0 2.524 0h.01c.64 0 1.009.409 1.009 1.122v2.231c0 .197.05.261.362.28a.088.088 0 0 1 .081.087.087.087 0 0 1-.087.086H2.512a.087.087 0 0 1-.009-.173c.253-.023.293-.086.293-.28V1.34c0-.665-.189-.924-.674-.924-.328 0-.596.287-.764.527 0 0-.086.107-.178.309l.01 2.102c0 .193.04.256.285.279a.087.087 0 0 1 .078.086c0 .05-.04.088-.087.088H.086A.087.087 0 0 1 0 3.72c0-.046.036-.083.082-.087.312-.019.362-.083.362-.28V.598c0-.16-.045-.316-.37-.361A.087.087 0 0 1 0 .15V.138C0 .09.037.052.084.051z" mask="url(#c)" transform="translate(27.014 21.402)"/></g><path d="M20.819 7.746c2.447 1.393 3.016 4.519 1.314 7.68-1.496 2.782-4.763 3.969-7.197 2.553-2.435-1.416-2.91-5.364-1.863-7.636 1.519-3.3 5.043-4.138 7.746-2.597" fill="#007fa3"/><path d="M17.67 15.982a.606.606 0 0 0-.243-.115.465.465 0 0 0-.087-.01.52.52 0 0 0-.418.236.567.567 0 0 0-.098.41c.015.09.05.168.099.228a.502.502 0 0 0 .248.145.727.727 0 0 0 .188.026.56.56 0 0 0 .357-.119.456.456 0 0 0 .17-.364.565.565 0 0 0-.217-.437m3.094-5.838c.478.512.627 1.287.544 1.923-.095.725-.535 1.397-1.267 1.843-.58.352-1.342.494-2.092.5-.006.12-.03.528-.042.593a.425.425 0 0 1-.092.201c-.08.105-.22.173-.358.213-.11.031-.22.043-.297.043h-.038a.375.375 0 0 1-.229-.111.387.387 0 0 1-.094-.231l-.007-.081c-.016-.07-.103-3.596-.086-3.532.013-.423.694-.496 1.065-.422s.276.525.267 1.079c0 0-.018.728-.052 1.498a2.848 2.848 0 0 0 1.198-.328c.71-.351 1.085-.89 1.085-1.684 0-.793-.774-1.683-2.2-1.683-1.426 0-2.037.36-2.728.93-.155.13-.275.26-.388.345-.115.084-.416.098-.496-.102-.097-.242.084-.51.19-.64.169-.203.582-.615 1.04-.853.526-.274 1.168-.57 2.062-.593.81-.02 2.087.046 3.007 1.085" fill="#fff"/></g></svg>