<svg height="36" viewBox="0 0 36 36" width="36" xmlns="http://www.w3.org/2000/svg"><mask id="a" fill="#fff"><path d="M0 0h28v3.625H0z" fill-rule="evenodd"/></mask><g fill="none" fill-rule="evenodd"><path d="M18 0c2.837 0 5.52.656 7.907 1.825C31.884 4.753 36 10.895 36 18c0 9.942-8.058 18-18 18-9.94 0-18-8.057-18-18C0 8.06 8.06 0 18 0z" fill="#f2f4f7" fill-rule="nonzero"/><path d="M27.51 2.071c.01-.412-.175-.729-.626-.729-.387 0-.617.327-.617.729zm-1.243.322c-.034.432.142.877.617.877.362 0 .544-.142.597-.5h.49c-.073.559-.504.838-1.092.838-.788 0-1.101-.558-1.101-1.283 0-.719.362-1.321 1.14-1.321.735.014 1.082.479 1.082 1.16v.229zm-2.541-.953h.01c.156-.309.5-.436.744-.436.17 0 .93.044.93.832v1.698h-.465V1.988c0-.407-.171-.627-.562-.627 0 0-.255-.015-.451.181-.068.069-.196.176-.196.656v1.336h-.465V1.077h.455zm-1.866.9c-.284.015-.661.118-.661.475 0 .303.21.455.485.455.548 0 .65-.475.64-.93zm.464-.323c0-.426-.023-.675-.518-.675-.235 0-.455.136-.46.391h-.49c.025-.538.446-.729.93-.729.504 0 1.004.151 1.004.837v1.174c0 .108.005.314.019.519h-.313c-.044 0-.127.024-.132-.034-.01-.113-.02-.22-.024-.333h-.01c-.152.308-.426.441-.764.441-.426 0-.857-.221-.857-.7 0-.691.613-.891 1.195-.891zM19.78.504h.554V0h-.554zm.043 3.03h.465V1.077h-.465zm-1.042 0h.465V0h-.465zM17.389 2.34c-.284.015-.661.118-.661.475 0 .303.21.455.485.455.548 0 .65-.475.64-.93zm.465-.323c0-.426-.024-.675-.52-.675-.234 0-.454.136-.46.391h-.488c.024-.538.445-.729.93-.729.504 0 1.003.151 1.003.837v1.174c0 .108.005.314.02.519h-.314c-.044 0-.127.024-.132-.034-.01-.113-.02-.22-.024-.333h-.01c-.152.308-.426.441-.764.441-.425 0-.856-.221-.856-.7 0-.691.612-.891 1.194-.891zm-2.86-.94V.553l.466-.147v.671l.568-.015v.348l-.568-.006v1.587c0 .176.137.259.304.259.074 0 .17-.01.245-.029v.357c-.108.005-.21.03-.318.03-.113 0-.201-.005-.314-.024a.449.449 0 0 1-.274-.162c-.083-.118-.108-.127-.108-.455V1.404l-.421.006v-.348zM13.742.504h.553V0h-.553zm.044 3.03h.465V1.077h-.465zm-4.71-2.432V.731l.928-.351v.722h.536v.585h-.536v.971c0 .063-.04.381.175.381.123 0 .25 0 .356-.015v.552c-.21.039-.36.049-.497.049-.63 0-1.01-.088-.962-.839V1.687h-.478v-.585zm-1.527.756c0-.083-.015-.156-.06-.205-.048-.054-.125-.088-.252-.088-.137 0-.22.078-.22.22 0 .181.375.171.956.351.293.093.493.274.493.673 0 .65-.61.816-1.171.816-.6 0-1.186-.122-1.181-.869h.878a.267.267 0 0 0 .064.219.295.295 0 0 0 .22.113c.18 0 .312-.069.312-.225 0-.434-1.45-.176-1.45-1.063 0-.605.645-.771 1.132-.771.58 0 1.118.151 1.157.829zm-3.04 1.23c.39 0 .473-.415.473-.761 0-.347-.083-.761-.473-.761-.391 0-.474.414-.474.761 0 .346.083.761.474.761zm1.424-.761c0 .902-.658 1.298-1.424 1.298-.767 0-1.425-.396-1.425-1.298 0-.903.658-1.298 1.425-1.298.766 0 1.424.395 1.424 1.298zM1.48 1.609c.385-.015.546-.19.546-.449 0-.258-.161-.434-.546-.448H.976v.898h.503zM0 3.551V.028h1.62c.865 0 1.43.278 1.43 1.132s-.565 1.133-1.43 1.133H.977v1.258zm12.507-1.537a.64.64 0 0 0-.112-.366.351.351 0 0 0-.322-.156c-.322.015-.4.244-.425.522zm-.878.498c-.005.317.078.59.425.59.258 0 .419-.122.453-.351h.859c-.03.317-.23.547-.464.683-.214.137-.488.191-.776.191-.98 0-1.371-.42-1.371-1.381 0-.776.58-1.215 1.318-1.215.996 0 1.313.57 1.313 1.483z" fill="#2566af" mask="url(#a)" transform="translate(4 16)"/></g></svg>