<svg height="36" viewBox="0 0 36 36" width="36" xmlns="http://www.w3.org/2000/svg"><mask id="a" fill="#fff"><path d="M0 0h26v25.999H0z" fill-rule="evenodd"/></mask><mask id="b" fill="#fff"><path d="M0 26h26V0H0z" fill-rule="evenodd"/></mask><g fill="none" fill-rule="evenodd"><path d="M18 0c2.837 0 5.52.656 7.907 1.825C31.884 4.753 36 10.895 36 18c0 9.942-8.058 18-18 18-9.94 0-18-8.057-18-18C0 8.06 8.06 0 18 0z" fill="#f2f4f7" fill-rule="nonzero"/><path d="M13 26c1.317-1.753 3.144-2.11 5.412-2.325 2.68-.256 3.877-.53 5.41-2.239.962-1.072 1.633-2.813 1.633-4.391 0-1.1-.057-2.009-.6-3.587-1.166-3.38-1.533-4.649 1.145-7.748L20.417.114C19.212 1.12 16.607 2.87 13 0 9.364 2.898 6.845 1.091 5.584.114L0 5.71c2.664 3.1 2.415 4.378 1.145 7.748-.572 1.522-.6 2.526-.6 3.587 0 1.581.615 3.315 1.632 4.391 1.584 1.677 2.778 1.98 5.411 2.239 2.348.227 4.095.602 5.412 2.324" fill="#fefefe" mask="url(#a)" transform="translate(5 5)"/><path d="M18 30.31c1.347-1.522 3.384-1.86 5.44-2.067 2.577-.257 3.583-.525 5.01-2.065.928-1 1.548-2.554 1.548-4.132 0-1.059-.17-2.348-.659-3.674-1.333-3.614-1.034-5.106 1.06-7.632l-5.04-5.052S22.123 8.701 18 5.518c-4.095 3.183-7.359.17-7.359.17L5.602 10.74c2.144 2.526 2.45 4.044 1.06 7.632-.517 1.33-.659 2.615-.659 3.674 0 1.55.61 3.177 1.546 4.132 1.48 1.508 2.442 1.781 5.01 2.065 2.063.23 4.096.545 5.441 2.067" fill="#373535"/><path d="M18 29.076c2.09-1.348 3.15-1.32 5.298-1.635 1.863-.274 3.083-.422 4.438-1.78 1.918-1.922 1.733-4.653.572-7.747-1.346-3.588-.157-5.683.973-7.118l-4.007-4.018s-3.15 2.498-7.274-.2c-4.122 2.698-7.273.2-7.273.2l-4.012 4.018c1.12 1.435 2.35 3.502.977 7.118-1.18 3.104-1.317 5.825.572 7.748 1.346 1.367 2.555 1.51 4.438 1.779 2.205.315 3.208.287 5.298 1.635" fill="#fefefe"/><path d="M18 27.785c2.265-1.258 3.643-1.13 6.186-1.521 5.41-.832 3.664-6.284 3.664-6.284.03-.517-1.346-3.043-1.174-5.567H9.325c.2 2.495-1.146 5.05-1.174 5.567 0 0-1.719 5.424 3.664 6.284 2.712.433 3.92.263 6.185 1.52" fill="#ec3438"/><path d="M15.29 8.17h.73V4.556h-.73zm2.174-3.081v1.306c.107 0 .752.149.75-.665-.003-.722-.6-.641-.75-.641zm-.73-.548v3.646h.73V7c.204-.01 1.393.117 1.421-1.168.038-1.426-1.169-1.29-1.421-1.29zM5.48 5.089v1.306c.106 0 .752.149.75-.665-.003-.722-.601-.641-.75-.641zm-.73-.548v3.646h.73V7c.204-.01 1.393.117 1.421-1.168.038-1.426-1.169-1.29-1.42-1.29zm6.788.008h.726v3.049h.789v.563h-1.515zm1.88.007h.725v3.047h.788v.566H13.42zm6.79-.13c1.031 0 1.108.653 1.095 1.163h-.717c-.002-.797-.782-.674-.776-.181.004.273.504.564.92.819.372.228.63.604.641 1.008.004.354-.155 1.024-1.163 1.024-1.024 0-1.106-.764-1.11-1.2h.686c0 .887.831.78.837.202 0 0 .05-.272-.407-.546-.514-.308-1.095-.54-1.082-1.291 0-.21.046-.997 1.076-.997zM10.08 8.17h.73V4.556h-.73zM7.276 4.556h.673v1.43h.695v-1.43h.705v3.613h-.705V6.623h-.695v1.546h-.673z" fill="#373535" mask="url(#b)" transform="translate(5 5)"/><path d="M11.28 11.264c-2.435-.804-4.18.501-5.097 3.056-.291.81-.57 1.699-.615 2.501-.053.995.252 1.855 1.344 2.277 1.238.475 3.337.286 4.296-1.292.18-.298.341-.637.46-.985.381-1.128.324-2.374-.848-2.799-1.35-.49-2.211.24-2.211.24s.58-1.926 1.482-1.926c.588 0 .458.843.458.843l2.047.152c.127-.369-.052-1.65-1.317-2.067m-2.162 3.858c.686.144.453 1.051.213 1.7 0 .002 0 .004-.002.006-.241.655-.726 1.366-1.32 1.207-.396-.107-.383-.665-.237-1.214a4.29 4.29 0 0 1 .218-.622c.252-.571.62-1.182 1.128-1.077m11.026-1.791c.128-.369-.054-1.646-1.316-2.067-2.362-.79-4.166.444-5.096 3.056-.29.81-.57 1.699-.614 2.501-.055.995.25 1.855 1.343 2.277 1.237.475 3.336.286 4.295-1.292.183-.298.34-.637.46-.985.381-1.128.324-2.374-.846-2.799-1.351-.49-2.213.24-2.213.24s.58-1.926 1.484-1.926c.586 0 .456.843.456.843m-1.431 1.943c.684.144.451 1.051.213 1.7l-.002.006c-.242.655-.726 1.366-1.322 1.207-.395-.107-.39-.664-.25-1.214a4.29 4.29 0 0 1 .216-.622c.252-.571.637-1.182 1.145-1.077" fill="#fefefe" mask="url(#b)" transform="translate(5 5)"/></g></svg>