<svg width="36" height="36" xmlns="http://www.w3.org/2000/svg"><g fill="none"><path d="M18 0c2.837 0 5.52.656 7.907 1.825C31.884 4.753 36 10.895 36 18c0 9.942-8.058 18-18 18-9.94 0-18-8.057-18-18C0 8.06 8.06 0 18 0z" fill="#F2F4F7"/><path d="m24.192 11.764 1.731-3.006a1.84 1.84 0 0 0-.672-2.513 1.84 1.84 0 0 0-2.513.673l-1.74 3.007a8.459 8.459 0 0 0-9.86 3.847 8.457 8.457 0 0 0-.663 7.032l3.204-5.558a5.489 5.489 0 0 1 3.353-2.572 5.433 5.433 0 0 1 4.183.554c2.631 1.523 3.541 4.906 2.018 7.536a5.523 5.523 0 0 1-7.536 2.018l1.84-3.185a1.84 1.84 0 0 0 2.511-.672 1.84 1.84 0 0 0-.672-2.512 1.84 1.84 0 0 0-2.512.672l-5.855 10.157a1.84 1.84 0 0 0 .672 2.513 1.84 1.84 0 0 0 2.512-.673l1.741-3.007a8.459 8.459 0 0 0 9.86-3.847c2.018-3.491 1.257-7.833-1.602-10.464z" fill="#181A1D"/></g></svg>