<svg width="36" height="36" fill="none" xmlns="http://www.w3.org/2000/svg"><path d="M18 0c2.837 0 5.52.656 7.907 1.825C31.884 4.753 36 10.895 36 18c0 9.942-8.058 18-18 18-9.94 0-18-8.057-18-18C0 8.06 8.06 0 18 0z" fill="#F2F4F7"/><path d="M20.113 15.95c-.555-.53-1.242-1.374-1.516-1.82-.484-.788-.6-1.483-.6-1.483s-.126.695-.618 1.484c-.46.742-1.265 1.577-1.53 1.85a3.036 3.036 0 0 0 2.148 5.186 3.036 3.036 0 0 0 3.037-3.038 3 3 0 0 0-.921-2.179z" fill="#262261"/><path d="M20.48 18.137a2.485 2.485 0 1 1-4.964-.002 2.485 2.485 0 0 1 4.964.002z" fill="#EC2027"/><path d="M22.112 14.873a9.293 9.293 0 0 0-1-1.414c-.656-.765-1.132-1.28-1.546-1.89-.39-.562-.625-1.046-.625-1.538 0-.477.195-.992.195-.992L19.128 9c-.57 1.374-.898 2.194-.788 3.366.117 1.25.96 2.249 1.741 3.085.625.671 1.008 1.1 1.18 1.874.124.539.257 1.671-.547 2.764-.96 1.305-2.523 1.352-2.523 1.352v.39s1.851-.07 3.116-1.218c.875-.79 1.18-1.484 1.406-2.546.195-.906-.031-2.195-.601-3.194zm-6.826 5.217c-.804-1.094-.664-2.226-.546-2.765.171-.773.554-1.203 1.179-1.874.78-.836 1.624-1.836 1.741-3.085.11-1.171-.218-1.992-.788-3.366l-.008.039s.195.508.195.992c0 .492-.242.976-.625 1.538-.422.61-.89 1.125-1.546 1.89-.336.39-.68.851-1 1.414-.57 1-.804 2.288-.609 3.194.227 1.062.539 1.757 1.414 2.546 1.257 1.148 3.116 1.218 3.116 1.218v-.39c-.008 0-1.562-.047-2.523-1.352z" fill="#29ABE2"/><path d="m19.12 19.386-.421-2.53h.312v-.414h-.382l-.125-.75-.008-.03h.172v-.376h-.352l-.086-.46h-.46l-.086.46h-.36v.39h.172l-.008.032-.125.75h-.374v.414h.304l-.421 2.53h-.43v.445h.258v.406c.148.094.304.164.468.227v-.633h1.664v.633c.164-.063.32-.133.468-.227v-.406h.258v-.445l-.437-.016zm-.6-2.53.132.781-.531-.78h.398zm-.524-1.046.398.632h-.796l.398-.632zm-.39.296.07-.437h.203l-.273.437zm.515-.43h.203l.07.438-.273-.437zm.469 2.195h-1.18l.594-.866.586.866zm-1.11-1.015h.399l-.531.781.133-.78zm-.202 1.203h.601l-.781 1.109.18-1.11zm-.125 1.327.843-1.187.844 1.187h-1.687zm.968-1.327h.601l.188 1.109-.789-1.11z" fill="#fff"/><path d="M11.983 23.44h3.436v.757h-1.21v2.452h-1.016v-2.452h-1.21v-.758zm4.287.757h1.21v2.452h1.016v-2.452h1.21v-.758H16.27v.758zm-5.178-.46c.211.202.32.468.32.772 0 .305-.109.578-.32.781-.21.203-.484.305-.796.305h-1.28v1.046H8v-3.21h2.304c.304.008.578.11.788.305zm-.507.78c0-.125-.031-.203-.07-.25-.04-.039-.102-.07-.219-.07h-1.28v.648h1.288c.117 0 .18-.031.219-.07a.495.495 0 0 0 .062-.258zm17.415 0c0 .305-.11.578-.32.781a1.116 1.116 0 0 1-.797.305h-1.288v1.046H24.58v-3.21h2.303c.305 0 .578.102.797.305.21.195.32.46.32.773zm-.828 0c0-.125-.031-.203-.07-.25-.04-.039-.102-.07-.219-.07h-1.288v.648h1.288c.117 0 .172-.031.219-.07a.423.423 0 0 0 .07-.258zm-5.6-.32h2l.297-.758H20.58v2.046c0 .32.133.633.344.828.273.235.671.336 1.054.336h1.827v-.757h-1.694c-.203 0-.32-.047-.422-.125-.094-.078-.117-.149-.125-.282v-.14h1.546l.281-.718h-1.827v-.43h.008z" fill="#262261"/></svg>