<svg height="36" viewBox="0 0 36 36" width="36" xmlns="http://www.w3.org/2000/svg"><g fill="none" fill-rule="evenodd"><path d="M18 0c2.837 0 5.52.656 7.907 1.825C31.884 4.753 36 10.895 36 18c0 9.942-8.058 18-18 18-9.94 0-18-8.057-18-18C0 8.06 8.06 0 18 0z" fill="#f2f4f7" fill-rule="nonzero"/><path d="M8 28h20V8H8z" fill="#000"/><path d="M23.225 21.74v-1.665h1.12v4.31h-1.12v-1.767h-1.616v1.766h-1.12v-4.309h1.12v1.665zm-5.634.954 1.047-2.619h1.216l-1.84 4.31h-.867l-1.812-4.31h1.216zm-5.936-2.619h1.714c.925 0 1.564.43 1.564 1.419 0 1.015-.548 1.461-1.524 1.461h-.634v1.427h-1.12zm1.12 1.979h.19c.406 0 .804 0 .804-.525 0-.542-.371-.549-.804-.549h-.19z" fill="#fff"/></g></svg>