<svg height="36" viewBox="0 0 36 36" width="36" xmlns="http://www.w3.org/2000/svg"><mask id="a" fill="#fff"><path d="M0 0h28v6.883H0z" fill-rule="evenodd"/></mask><g fill="none" fill-rule="evenodd"><path d="M18 0c2.837 0 5.52.656 7.907 1.825C31.884 4.753 36 10.895 36 18c0 9.942-8.058 18-18 18-9.94 0-18-8.057-18-18C0 8.06 8.06 0 18 0z" fill="#f2f4f7" fill-rule="nonzero"/><path d="M25.116 6.169c-.151-.066-.2-.111-.2-.184 0-.067.046-.14.176-.14.083 0 .177.045.232.083l.006.004.066-.183.002-.004-.004-.003a.561.561 0 0 0-.298-.086c-.257 0-.391.168-.391.334 0 .152.087.256.282.338.185.078.217.129.217.206 0 .072-.045.149-.172.149a.525.525 0 0 1-.302-.11l-.006-.003-.072.187-.001.004.004.003a.704.704 0 0 0 .371.116.403.403 0 0 0 .288-.107.34.34 0 0 0 .105-.25c0-.164-.079-.256-.303-.354zm-1.698.69h.727v-.193h-.515v-.313h.465v-.188h-.465v-.296h.515v-.193h-.727zm-.599-.27a.663.663 0 0 1-.317.092c-.252 0-.414-.161-.414-.412s.16-.414.408-.414a.66.66 0 0 1 .31.089l.005.003.072-.175.002-.005-.004-.002a.742.742 0 0 0-.382-.11c-.369 0-.637.259-.637.614 0 .353.268.61.637.61a.733.733 0 0 0 .386-.111l.004-.002-.065-.181zm-1.954-.325a1.12 1.12 0 0 1-.11-.006v-.391a.7.7 0 0 1 .129-.01c.147 0 .238.076.238.196 0 .136-.091.21-.257.21zm.479-.221c0-.235-.182-.375-.485-.375-.105 0-.2.006-.31.02h-.005V6.86h.211v-.423c.037 0 .074.003.112.003.02 0 .039 0 .059-.002l.254.419.002.003h.245l-.309-.475a.366.366 0 0 0 .226-.342zm-1.626.348c0 .19-.094.295-.263.295-.172 0-.264-.102-.264-.295v-.715h-.211v.728c0 .302.172.476.471.476.3 0 .478-.178.478-.476v-.728h-.211zm-1.896.299c-.217 0-.374-.177-.374-.421 0-.245.157-.422.374-.422.215 0 .372.177.372.422 0 .244-.157.42-.372.42zm.004-1.034a.596.596 0 0 0-.604.613c0 .353.25.61.593.61a.595.595 0 0 0 .605-.61c0-.355-.249-.613-.594-.613zm-1.404.513c-.152-.066-.201-.111-.201-.184 0-.067.046-.14.176-.14.083 0 .177.045.232.083l.006.004.066-.183.002-.004-.004-.003a.56.56 0 0 0-.297-.086c-.257 0-.392.168-.392.334 0 .152.087.256.282.338.185.078.218.129.218.206 0 .072-.046.149-.172.149a.528.528 0 0 1-.303-.11l-.006-.003-.071.187-.002.004.004.003a.704.704 0 0 0 .371.116.402.402 0 0 0 .288-.107.34.34 0 0 0 .105-.25c0-.164-.079-.256-.302-.354zm-1.698.69h.726v-.193h-.515v-.313h.466v-.188h-.466v-.296h.515v-.193h-.726zm-1.068-.595a1.12 1.12 0 0 1-.11-.006v-.391a.694.694 0 0 1 .129-.01c.147 0 .237.076.237.196 0 .136-.091.21-.256.21zm.479-.221c0-.235-.182-.375-.486-.375-.104 0-.2.006-.31.02h-.005V6.86h.212v-.423l.111.003c.021 0 .04 0 .059-.002l.254.419.002.003h.246l-.31-.475a.365.365 0 0 0 .227-.342zm-2.527-.367h-.211V6.86h.726v-.194h-.515zm-1.428.746.158-.373.158.373zm.179-.762h-.035l-.543 1.193-.004.007h.219l.114-.27h.456l.113.266.001.004h.224l-.543-1.197zm-1.577.604a1.12 1.12 0 0 1-.11-.006v-.391a.7.7 0 0 1 .129-.01c.147 0 .238.076.238.196 0 .136-.091.21-.257.21zm.479-.221c0-.235-.182-.375-.486-.375-.104 0-.199.006-.309.02h-.005V6.86h.211v-.423l.111.003c.021 0 .04 0 .06-.002l.254.419.002.003h.246l-.31-.475a.366.366 0 0 0 .226-.342zm-1.626.348c0 .19-.094.295-.264.295-.172 0-.263-.102-.263-.295v-.715h-.211v.728c0 .302.172.476.471.476s.478-.178.478-.476v-.728h-.211zm-2.206-.522h.374v.99h.211v-.99h.371v-.193h-.956zm-.984.553.158-.373.158.373zm.179-.762h-.036l-.542 1.193-.004.007h.219l.113-.27h.458l.112.266.001.004h.224l-.543-1.197zm-1.287.748-.715-.753-.002-.003-.04.008v1.2h.212v-.744l.725.765.002.002.03-.006V5.676h-.212zM25.36 3.222c0 .502.045.635.263.752h-1.121c.219-.117.264-.25.264-.752V.852c0-.501-.045-.635-.264-.752h.858c.05 0 .146 0 .275-.005.1-.006.185-.006.252-.006.386 0 .661.073.875.229.24.178.392.468.392.752 0 .452-.398.87-.959 1.009.886 1.182 1.334 1.65 1.805 1.895-.364.028-.426.034-.544.034-.336 0-.516-.111-.913-.586a10.687 10.687 0 0 1-1.037-1.465c.667-.112.986-.391.986-.842 0-.385-.291-.653-.717-.653-.129 0-.236.012-.415.045zm-3.84.256c.275.045.46.06.729.06.516 0 .835-.094 1.155-.333l-.275.77h-2.466c.219-.118.264-.251.264-.76V.854c0-.502-.051-.641-.264-.753h1.968a.522.522 0 0 0 .223-.033v.685c-.19-.184-.341-.234-.722-.234-.286 0-.438.01-.612.04v1.097h.791c.09 0 .129-.005.202-.04v.626c-.095-.123-.208-.162-.466-.162h-.527zm-3.906 0c.274.045.46.06.729.06.515 0 .835-.094 1.154-.333l-.274.77h-2.467c.219-.118.264-.251.264-.76V.854c0-.502-.05-.641-.264-.753h1.968a.532.532 0 0 0 .225-.033v.685c-.191-.184-.343-.234-.724-.234-.286 0-.438.01-.611.04v1.097h.791a.39.39 0 0 0 .201-.04v.626c-.095-.123-.207-.162-.465-.162h-.527zm-5.28-.195c0 .385.067.535.308.69h-1.053c.252-.16.314-.3.314-.69V.792c0-.385-.068-.536-.309-.691h.864c.022.055.028.066.14.217l2.191 2.775V.792c0-.391-.067-.53-.314-.691h1.06c-.253.16-.315.3-.315.69v3.372c-.324-.105-.571-.295-.812-.618L12.334.93zM9.926.58c.37.357.6.902.6 1.432 0 1.149-.965 2.056-2.186 2.056-1.205 0-2.158-.885-2.158-2.011C6.182.886 7.146 0 8.418 0c.561 0 1.133.217 1.508.58zM7.258.858c-.252.263-.409.68-.409 1.104 0 .452.174.914.476 1.249.27.295.606.439 1.037.439.886 0 1.491-.63 1.491-1.543 0-.44-.146-.858-.404-1.17A1.37 1.37 0 0 0 8.334.424a1.56 1.56 0 0 0-1.076.434zM4.153.853c0-.502-.045-.636-.264-.753h1.122c-.219.117-.264.25-.264.753v2.369c0 .5.045.635.264.753H3.889c.219-.118.264-.252.264-.753zM.857 3.283c0 .385.068.54.309.69H0c.219-.116.263-.25.263-.751V.852c0-.5-.044-.634-.263-.75h.566l.661-.007h.185c.331 0 .566.044.779.145.364.178.6.518.6.886 0 .607-.589 1.104-1.306 1.104a.959.959 0 0 1-.426-.08c.37-.043.572-.121.762-.283.208-.178.309-.385.309-.635 0-.452-.326-.73-.858-.73a1.54 1.54 0 0 0-.415.05z" fill="#4a613e" mask="url(#a)" transform="translate(4 15)"/></g></svg>