<svg width="36" height="36" xmlns="http://www.w3.org/2000/svg"><g fill="none"><path d="M18 0c2.837 0 5.52.656 7.907 1.825C31.884 4.753 36 10.895 36 18c0 9.942-8.058 18-18 18-9.94 0-18-8.057-18-18C0 8.06 8.06 0 18 0z" fill="#F2F4F7"/><path d="m14.094 30.452.439-2.786-.977-.023H8.89l3.242-20.56a.265.265 0 0 1 .264-.224h7.867c2.611 0 4.414.543 5.355 1.616.441.503.722 1.03.858 1.608.142.607.145 1.333.006 2.217l-.01.065v.567l.44.25c.338.17.64.401.894.68.377.431.622.978.725 1.626.106.667.071 1.46-.103 2.359-.202 1.033-.527 1.933-.967 2.67a5.491 5.491 0 0 1-1.53 1.677 6.21 6.21 0 0 1-2.062.93c-.76.198-1.626.298-2.576.298h-.613c-.437 0-.863.157-1.196.44-.334.286-.555.68-.624 1.114l-.047.25-.775 4.911-.035.18c-.009.058-.025.086-.048.105a.13.13 0 0 1-.08.03h-3.781z" fill="#253B80"/><path d="M27.33 12.43c-.023.15-.05.304-.08.462-1.037 5.326-4.587 7.166-9.12 7.166h-2.308a1.12 1.12 0 0 0-1.108.95l-1.182 7.495-.335 2.124a.59.59 0 0 0 .583.683h4.094a.985.985 0 0 0 .973-.83l.04-.209.771-4.89.05-.27a.984.984 0 0 1 .972-.831h.613c3.966 0 7.07-1.61 7.978-6.27.38-1.947.183-3.573-.82-4.716a3.914 3.914 0 0 0-1.12-.864z" fill="#179BD7"/><path d="M26.245 11.998a8.183 8.183 0 0 0-1.009-.224 12.819 12.819 0 0 0-2.034-.149h-6.167a.983.983 0 0 0-.972.832l-1.311 8.308-.038.243a1.12 1.12 0 0 1 1.108-.95h2.308c4.533 0 8.083-1.84 9.12-7.166.031-.158.057-.311.08-.462a5.53 5.53 0 0 0-.852-.36 7.586 7.586 0 0 0-.233-.072z" fill="#222D65"/><path d="M16.063 12.457a.98.98 0 0 1 .972-.83h6.167c.73 0 1.412.047 2.034.148a8.13 8.13 0 0 1 1.242.296c.307.101.59.221.853.36.309-1.97-.002-3.31-1.066-4.523C25.09 6.572 22.973 6 20.264 6h-7.868c-.553 0-1.025.403-1.11.95L8.007 27.72a.676.676 0 0 0 .667.783h4.857l1.22-7.738 1.311-8.308z" fill="#253B80"/></g></svg>