<svg height="36" viewBox="0 0 36 36" width="36" xmlns="http://www.w3.org/2000/svg"><mask id="a" fill="#fff"><path d="M0 0h24v4.35H0z" fill-rule="evenodd"/></mask><mask id="b" fill="#fff"><path d="M0 0h24v4.35H0z" fill-rule="evenodd"/></mask><mask id="c" fill="#fff"><path d="M0 0h24v4.35H0z" fill-rule="evenodd"/></mask><mask id="d" fill="#fff"><path d="M0 0h23.57v5.293H0z" fill-rule="evenodd"/></mask><g fill="none" fill-rule="evenodd"><path d="M18 0c2.837 0 5.52.656 7.907 1.825C31.884 4.753 36 10.895 36 18c0 9.942-8.058 18-18 18-9.94 0-18-8.057-18-18C0 8.06 8.06 0 18 0z" fill="#f2f4f7" fill-rule="nonzero"/><path d="M19.65 2.175a2.175 2.175 0 1 1 4.351.001 2.175 2.175 0 0 1-4.35-.001m-4.913 0a2.175 2.175 0 1 1 4.35.001 2.175 2.175 0 0 1-4.35-.001m-4.912 0a2.175 2.175 0 1 1 4.349 0 2.175 2.175 0 0 1-4.35 0m-4.913 0a2.175 2.175 0 1 1 4.35.001 2.175 2.175 0 0 1-4.35-.001M0 2.175a2.175 2.175 0 1 1 4.35 0 2.175 2.175 0 0 1-4.35 0" fill="#226cb4" mask="url(#a)" transform="translate(6 17.825)"/><path d="M19.65 2.175a2.175 2.175 0 1 1 4.35 0 2.175 2.175 0 0 1-4.35 0m-4.912 0a2.175 2.175 0 1 1 4.35 0 2.175 2.175 0 0 1-4.35 0m-4.912 0a2.174 2.174 0 1 1 4.348-.001 2.174 2.174 0 0 1-4.348 0m-4.914 0a2.175 2.175 0 1 1 4.35 0 2.175 2.175 0 0 1-4.35 0M0 2.175a2.174 2.174 0 1 1 4.348 0 2.174 2.174 0 0 1-4.348 0" fill="#809bcf" mask="url(#b)" transform="translate(6 12.912)"/><path d="M19.65 2.175a2.175 2.175 0 1 1 4.35 0 2.175 2.175 0 0 1-4.35 0m-4.912 0a2.175 2.175 0 1 1 4.35 0 2.175 2.175 0 0 1-4.35 0m-4.912 0a2.174 2.174 0 1 1 4.348-.001 2.174 2.174 0 0 1-4.348 0m-4.914 0a2.175 2.175 0 1 1 4.35 0 2.175 2.175 0 0 1-4.35 0M0 2.175a2.174 2.174 0 1 1 4.348 0 2.174 2.174 0 0 1-4.348 0" fill="#c7dbf2" mask="url(#c)" transform="translate(6 8)"/><path d="M15.706 1.254c-.07-.188-.732-1.309-2.316-1.252-1.662.06-2.468 1.49-2.435 2.576.046 1.469 1.116 2.53 2.538 2.53 1.174 0 2.54-.734 2.514-2.674h-2.389v.896l1.229.004c-.228.592-.806.763-1.33.763-.765-.001-1.503-.702-1.502-1.52 0-.896.691-1.54 1.457-1.55.603-.006 1.083.233 1.343.628zm-6.635.167.587 1.76H8.449zM8.425.165h1.303l1.807 4.777h-1.208l-.341-.856H8.133l-.353.856H6.583V4.93zm7.75 0h2.827v.927h-1.701v.96h1.701v.98h-1.701v.982h1.701v.928h-2.827zM5.435 4.94h1.113V.165H5.435zM19.417.184h.985l2.084 2.909V.183h1.084V4.96h-1.02l-2.108-2.932V4.96h-1.025zm-16.82.822c.832.004 1.47.678 1.508 1.51.017.38-.12.824-.244.947l-.384-.428-1.095.169.745.802c-.15.042-.37.09-.61.079-.845-.04-1.477-.77-1.447-1.616a1.513 1.513 0 0 1 1.526-1.463zm2.577 1.532c.005.706-.456 1.548-.613 1.704l.79.79-1.084.261-.44-.463c-.361.147-.719.264-1.197.26C1.18 5.078-.053 3.908.002 2.46.055 1.072 1.197.015 2.584.013c1.411-.002 2.58 1.115 2.59 2.525z" fill="#cc2229" mask="url(#d)" transform="translate(6.006 22.907)"/></g></svg>