<svg width="36" height="36" fill="none" xmlns="http://www.w3.org/2000/svg"><path d="M18 0c2.837 0 5.52.656 7.907 1.825C31.884 4.753 36 10.895 36 18c0 9.942-8.058 18-18 18-9.94 0-18-8.057-18-18C0 8.06 8.06 0 18 0z" fill="#F2F4F7"/><path fill-rule="evenodd" clip-rule="evenodd" d="M4 22.223h1.749v-5.562L4 17.667v4.556zm7.395-1.646c-.583 0-1.07-.488-1.07-1.074 0-.605.487-1.073 1.07-1.073.602 0 1.089.468 1.089 1.073 0 .586-.487 1.074-1.089 1.074zm0-3.942c-.369 0-.738.078-1.088.214V14l-1.749 1.034v4.47c0 1.58 1.282 2.868 2.837 2.868a2.867 2.867 0 0 0 2.856-2.869 2.867 2.867 0 0 0-2.856-2.868zM6.01 17.712a1.07 1.07 0 1 1 2.139 0 1.07 1.07 0 0 1-2.14 0zm8.744 4.511h1.767v-5.562l-1.768 1.006v4.556zm-.187-6.633c0-.59.484-1.069 1.08-1.069.595 0 1.079.479 1.079 1.07 0 .59-.484 1.07-1.08 1.07-.595 0-1.079-.48-1.079-1.07zm9.628 4.145c-.156 0-.273-.136-.273-.292 0-.156.117-.292.273-.292a.3.3 0 0 1 .292.292.3.3 0 0 1-.292.292zm.624.292v-1.655l-.332.195v.39c-.078-.079-.214-.118-.35-.118-.312 0-.565.253-.565.604 0 .37.253.604.564.604.137 0 .273-.04.35-.117v.097h.333zm6.846.725v1.471H32V20.55l-.335.203zm-12.671-3.486c0-.176.098-.293.274-.293.06 0 .098.02.137.02v-.332h-.118a.383.383 0 0 0-.313.156v-.137h-.332v1.171h.352v-.585zm6.753 0c0-.176.098-.293.275-.293.059 0 .097.02.136.02v-.332h-.118a.383.383 0 0 0-.313.156v-.137h-.332v1.171h.352v-.585zm-4.547.311a.71.71 0 0 1-.392-.117l-.138.273c.176.117.412.137.53.137.333 0 .53-.156.53-.39 0-.195-.138-.312-.392-.351l-.1-.02c-.117-.02-.176-.039-.176-.078 0-.058.059-.097.158-.097a.94.94 0 0 1 .372.097l.1-.273a.978.978 0 0 0-.472-.097c-.315 0-.511.136-.511.39 0 .195.137.312.412.35l.1.02c.077 0 .176.02.176.078 0 .04-.04.078-.197.078zm4.442 1.728-.096-.019c-.117-.02-.174-.039-.174-.078 0-.058.057-.098.154-.098.136 0 .29.059.367.098l.096-.273a.944.944 0 0 0-.463-.098c-.309 0-.501.137-.501.39 0 .195.135.313.404.352l.097.019c.077 0 .173.02.173.078 0 .04-.037.078-.192.078a.606.606 0 0 1-.386-.117l-.135.273c.155.117.405.137.521.137.329 0 .52-.156.52-.39 0-.195-.134-.313-.385-.352zm-1.372-1.552a.566.566 0 0 0 .372.117c.156 0 .294-.04.392-.117a.559.559 0 0 0 .157-.41v-.664h-.334v.644c0 .157-.079.235-.215.235-.098 0-.216-.04-.216-.235v-.644h-.333v.664c0 .176.059.312.177.41zm3.74-.546c0-.175.117-.234.232-.234.116 0 .194.078.194.234v.644h.327v-.741c0-.274-.174-.45-.444-.45a.405.405 0 0 0-.308.118v-.098h-.327v1.171h.327v-.644zm-8.164 3.807a.408.408 0 0 0-.313.12v-.1H19.2v1.19h.352v-.655c0-.178.1-.238.215-.238.138 0 .197.08.197.238v.655h.352v-.754c0-.277-.195-.456-.47-.456zm4.25 0c-.135 0-.25.04-.308.12v-.1h-.328v1.19h.328v-.655c0-.178.116-.238.212-.238.135 0 .212.08.212.238v.655h.328v-.754c0-.277-.193-.456-.444-.456zm-5.454 1.209h.353v-1.19h-.353v1.19zm-.037-1.516a.214.214 0 1 1 .428 0 .214.214 0 0 1-.428 0zm8.409 1.516h.354v-1.19h-.354v1.19zm-.037-1.516a.214.214 0 1 1 .428 0 .214.214 0 0 1-.428 0zm-3.712-3.734a.3.3 0 0 1 .292.292.3.3 0 0 1-.292.293.299.299 0 0 1-.291-.293c0-.156.134-.292.291-.292zm-.059.897a.459.459 0 0 0 .332-.117v.097h.35v-1.17h-.35v.098a.459.459 0 0 0-.332-.117c-.311 0-.564.253-.564.604 0 .37.253.605.564.605zm2.143 4.055a.302.302 0 0 1-.292-.297c0-.158.137-.297.292-.297.156 0 .293.139.293.297a.302.302 0 0 1-.293.297zm.273-.792a.453.453 0 0 0-.33-.119.596.596 0 0 0-.585.614c0 .376.273.614.584.614.135 0 .253-.04.33-.119v.1h.351v-1.189h-.35v.099zm3.944-.119a.43.43 0 0 0-.309.12v-.1h-.308v1.19h.327v-.655c0-.178.116-.238.212-.238.135 0 .193.08.193.238v.655h.347v-.754c0-.277-.192-.456-.462-.456zm1.262.911a.304.304 0 0 1-.296-.297c0-.158.138-.297.296-.297.158 0 .277.139.277.297 0 .159-.119.297-.277.297zm.277-.792a.498.498 0 0 0-.336-.119c-.335 0-.592.258-.592.614 0 .376.257.614.592.614.12 0 .257-.04.336-.119v.1h.355v-1.189h-.355v.099zm-4.266-3.575a.3.3 0 0 1-.293-.293.3.3 0 0 1 .293-.292c.155 0 .271.136.271.292 0 .156-.116.293-.271.293zm.271-.78a.49.49 0 0 0-.33-.117c-.332 0-.585.253-.585.604 0 .37.253.605.585.605a.49.49 0 0 0 .33-.117v.097h.332v-1.17h-.332v.098zm-6.447 2.372c.058 0 .098.02.137.02v-.333h-.118a.322.322 0 0 0-.293.157v-.137h-.333v1.171h.333v-.585c0-.176.098-.293.274-.293zm2.219 2.023v-.139h-.333v1.19h.333v-.595c0-.179.118-.298.275-.298.057 0 .097.02.136.02v-.337h-.118a.343.343 0 0 0-.293.159m-1.11-1.731a.3.3 0 0 1-.293.293.3.3 0 0 1-.291-.293.3.3 0 0 1 .291-.293.3.3 0 0 1 .293.293zm-.935 0c0 .37.273.605.585.605.135 0 .252-.04.33-.117v.097h.35v-1.17h-.35v.098a.457.457 0 0 0-.33-.118.591.591 0 0 0-.585.605zm2.116-.605a.416.416 0 0 0-.313.117v-.097h-.333v1.171h.333v-.644c0-.176.118-.234.236-.234.116 0 .195.078.195.234v.644h.334v-.742c0-.273-.177-.449-.452-.449zm-2.934-1.884c.116 0 .192.059.23.195h-.461c.02-.097.077-.195.23-.195zm.02.917a.666.666 0 0 0 .48-.176l-.192-.214a.46.46 0 0 1-.27.097c-.134 0-.23-.058-.27-.195h.79v-.117c0-.35-.211-.604-.558-.604-.346 0-.577.234-.577.604s.25.605.597.605zm1.553 3.64c.02-.1.078-.199.213-.199.114 0 .192.06.23.198h-.443zm.231-.496c-.346 0-.576.238-.576.614s.23.614.576.614a.71.71 0 0 0 .501-.178l-.21-.218a.455.455 0 0 1-.27.099c-.136 0-.232-.06-.27-.198h.789v-.119c0-.356-.213-.614-.54-.614zm.16-3.164h.349v-.859h.254v-.308h-.254v-.413l-.35.19v.223h-.159v.308h.16v.86zm-1.05 2.792-.353.191v.212h-.17v.319h.17v.86h.353v-.86h.258v-.319h-.258v-.403zm5.677 0-.328.191v.212h-.18v.319h.18v.86h.329v-.86h.254v-.319h-.254v-.403zm2.444-2.792h.329v-.859h.254v-.308h-.254v-.413l-.329.19v.223h-.18v.308h.18v.86zm-9.789 1.3a.3.3 0 0 1 .292.293.3.3 0 0 1-.292.292c-.157 0-.273-.136-.273-.292 0-.156.116-.292.273-.292zm-.273.78a.49.49 0 0 0 .33.117c.332 0 .585-.234.585-.604 0-.35-.253-.604-.584-.604a.49.49 0 0 0-.33.117v-.584l-.351.195v1.46h.35v-.097zm9.148 1.995a.301.301 0 0 1-.292-.297.3.3 0 0 1 .292-.297c.155 0 .291.139.291.297a.302.302 0 0 1-.291.297zm0-.91a.604.604 0 0 0-.624.613c0 .337.253.614.624.614.35 0 .623-.258.623-.614a.604.604 0 0 0-.623-.614z" fill="#D6001C"/></svg>