<svg width="36" height="36" fill="none" xmlns="http://www.w3.org/2000/svg"><path d="M18 0c2.837 0 5.52.656 7.907 1.825C31.884 4.753 36 10.895 36 18c0 9.942-8.058 18-18 18-9.94 0-18-8.057-18-18C0 8.06 8.06 0 18 0z" fill="#F2F4F7"/><path d="M8 28h20V8H8v20z" fill="#163E28"/><path d="M17.806 18.005c-1.46-.023-2.444-.885-2.461-2.345l.01-3.354 1.493.656-.01 2.526c0 2.064.538 2.23.968 2.517zm1.305-2.517-.01-2.526 1.492-.656.01 3.354c-.016 1.46-1 2.322-2.46 2.345.43-.287.968-.453.968-2.517z" fill="#D3D2D2"/><path d="M19.485 22.203v-.783h.018l.162.004c.277 0 .479.155.479.369a.39.39 0 0 1-.116.288c-.09.087-.283.13-.543.122zm.58.073.023-.001c.33-.014.527-.201.527-.502 0-.376-.38-.431-.752-.436l-.612.002-.421-.003h-.055l-.002.004v.07l.012.001c.26.03.26.039.26.18v1.314c0 .178-.017.181-.239.221l-.02.004-.01.001-.003.005v.074h.068l.436-.004.437.003h.059l.002-.004v-.075l-.054-.009-.056-.01c-.167-.032-.18-.035-.18-.212v-.604c.266.188.8.744.93.908l.001.002.004.003h.288l.118.002.183.002-.01-.01a68.68 68.68 0 0 1-.934-.926zm2.902.427-.178.028v.003l-.013.112c-.027.25-.046.28-.448.28h-.394v-.858h.386c.123.007.14.072.154.178v.005l.002.01h.07v-.504h-.069l-.001.01c-.014.112-.033.19-.148.199h-.394v-.742h.344c.433 0 .433 0 .472.305l.002.016.013.001.148.019.016.002v-.43h-.109l-1.128.004-.4-.003h-.052l-.005.004v.07l.075.013.029.005c.141.027.156.03.156.212v1.269c0 .193 0 .193-.238.227l-.022.003v.07l.055-.001.379-.003 1.19.003h.106v-.507zm-5.154.298c-.097.093-.383.114-.619.103h-.009v-.84h.138c.227 0 .608.051.608.391 0 .157-.038.27-.118.346zm-.628-1.585h.192c.274 0 .437.139.437.372v.01c0 .1-.034.189-.099.255-.065.067-.214.112-.37.112h-.16v-.749zm.513.794h-.009v-.008h.009c.37-.036.566-.196.566-.463 0-.377-.328-.408-.635-.408l-.686.003-.44-.003h-.032v.065l.004.004.01.002.08.015c.158.028.182.032.182.228v1.247c0 .166 0 .18-.264.235l-.005.001h-.004l-.003.005v.072h.089l.409-.003.593.003c.327 0 .582-.065.697-.18a.476.476 0 0 0 .143-.345c0-.301-.237-.46-.704-.47zm8.404-.814v-.06h-.017l-.32.003-.352-.003h-.03v.065h.01l.105.015c.1.014.151.02.167.047a.047.047 0 0 1 .006.025c0 .03-.017.08-.046.157l-.032.088-.027.077-.27.773a31.416 31.416 0 0 0-.518-1.22h-.03l-.003.005-.001.004-.502 1.198a55.988 55.988 0 0 0-.278-.85l-.028-.09a.523.523 0 0 1-.033-.132c0-.014.003-.024.008-.034.019-.03.075-.045.172-.06l.018-.004v-.064h-.028l-.418.003-.475-.003h-.04v.074l.017.002.05.008c.208.032.208.032.3.285l.036.102c.004.01.39 1.1.495 1.436l.004.014h.043l.005-.012.515-1.247c.156.342.418.979.523 1.243l.005.01.003.003h.042l.006-.015.535-1.491c.113-.304.113-.304.328-.339l.056-.008v-.005zm-13.72-.048v-.01l-.005-.004-.11.001-.287.002-.313-.002h-.085l-.003.004v.077l.01.002c.234.039.307.059.307.214v.96c0 .353-.213.548-.598.548-.22 0-.485-.148-.55-.394a.894.894 0 0 1-.016-.213v-.92c0-.143.028-.15.24-.201l.035-.009.001-.004v-.065h-.074l-.421.003-.422-.002h-.07l-.002.004v.066l.022.003h.004l.013.003c.21.039.236.044.236.199v.924c0 .469.304.697.93.697.565 0 .829-.214.829-.67v-.915c0-.175.056-.19.317-.231l.012-.003v-.064zm2.327-.015h-.043l-.317.003-.322-.003h-.047l-.004.005v.076h.005l.011.001a.976.976 0 0 1 .216.05l.008.002c.043.018.06.026.06.11v1.04l-.86-.726a24.674 24.674 0 0 0-.661-.552h-.001l-.004-.002h-.045v.01l.005 1.447c0 .254-.032.277-.282.34l-.016.004v.076h.018l.075-.001.287-.002.294.002h.079l.003-.004v-.066l-.004-.005-.01-.003c-.219-.062-.287-.091-.287-.313v-.86c.157.12.54.447.947.794l.543.463a.758.758 0 0 0 .006.005h.06l.011.001v-1.637c0-.103.028-.116.062-.131l.007-.004a.8.8 0 0 1 .186-.037l.026-.002v-.081h-.006zm1.036 1.516v-1.228c0-.16.062-.172.227-.206l.07-.014.01-.002v-.072h-.063l-.465.003-.46-.002h-.073l-.002.004v.067l.01.001c.288.056.308.07.308.217v1.155c0 .285 0 .285-.242.345l-.01.002-.054.014v.076h.015l.305-.003.221-.002.428.003.078.002.004-.005v-.071l-.062-.017c-.247-.071-.247-.079-.245-.267zm.813-2.355c-.349-.008-.497-.187-.497-.597 0-.288.038-.57.497-.58.41.01.494.239.494.58 0 .273-.056.587-.494.597zm.183-1.268-.19-.008-.163.006c-.197.015-.334.07-.43.174-.115.122-.153.248-.153.498 0 .295.088.427.165.51a.55.55 0 0 0 .336.169 1.87 1.87 0 0 0 .49-.001.582.582 0 0 0 .346-.166c.099-.106.158-.298.158-.513 0-.2-.026-.362-.15-.496-.095-.1-.225-.156-.41-.173zm2.154.104a.957.957 0 0 1 .012-.001v-.005l.007-.067h-.015l-.34.001-.146-.001-.001.006v.064l.009.003.042.004.094.012c.02.005.029.01.032.017v.005c0 .018-.023.053-.057.101-.063.09-.266.405-.29.443l-.304-.464-.01-.017c-.016-.027-.026-.043-.016-.064.007-.015.012-.025.078-.035l.03-.003v-.072h-.04l-.176.001-.348-.001h-.015v.073l.013.001c.126.015.177.039.275.171.085.126.342.508.348.533.004.015.004.166.004.23v.025c0 .142-.032.148-.166.17l-.045.008-.012.002v.079l.338-.003.282.002h.06v-.078l-.01-.002-.044-.007c-.142-.023-.171-.028-.175-.184-.002-.128 0-.273.007-.285l.108-.166.245-.368c.075-.11.101-.113.215-.127h.01zm-4.237.512v-.513h.218c.246 0 .3.093.305.233a.25.25 0 0 1-.08.202c-.067.066-.279.083-.443.078zm.31.06a.25.25 0 0 1 .005 0c.25-.01.439-.16.439-.347 0-.26-.244-.3-.508-.303h-.183l-.486-.001v.072h.012c.177.021.2.028.2.122v.877c0 .115-.038.122-.177.146l-.032.006-.012.002v.07h.053l.264-.002.273.001h.037l.012.001v-.066l-.004-.005h-.003l-.045-.008c-.1-.017-.155-.026-.155-.13v-.418c.185.133.68.631.685.636l.002.002h.081l.262.002-.011-.011-.708-.645zm6.927.242-.014.001-.1.009h-.016v.005l-.001.016-.005.104v.006c-.01.137-.011.162-.26.162h-.337v-.975c0-.108.038-.116.153-.139l.053-.01.004-.006v-.067h-.02l-.321.002-.289-.002h-.033v.072l.012.001c.194.038.208.047.208.146v.596l-.001.235c0 .13-.006.13-.167.153l-.01.002-.012.001v.01l-.003.072-.001.014h.037l.235-.003.888.003v-.408zm-2.49-.198.228-.437.223.437h-.452zm1.136.518-.032-.004c-.158-.023-.172-.029-.262-.194l-.507-1.032a4.962 4.962 0 0 1-.005-.011h-.008l-.079-.001-.006.003-.005.01c0 .003-.225.425-.225.425-.116.22-.185.352-.323.593-.079.14-.11.185-.252.21l-.059.01v.007l-.003.075h.016l.265-.003.248.002h.03v-.006l-.008-.076h-.005l-.018-.003c-.078-.012-.113-.025-.125-.048a.046.046 0 0 1-.004-.022c0-.029.018-.07.049-.128l.127-.24h.55l.133.262a.322.322 0 0 1 .034.11c0 .01-.002.017-.005.023-.014.025-.058.033-.128.043l-.015.002v.005l-.004.079h.008l.049-.001.204-.002.34.002h.034l.002-.006-.006-.083-.005-.001z" fill="#fff"/></svg>