<svg height="36" viewBox="0 0 36 36" width="36" xmlns="http://www.w3.org/2000/svg"><mask id="a" fill="#fff"><path d="M0 0h28v12.925H0z" fill-rule="evenodd"/></mask><g fill="none" fill-rule="evenodd"><path d="M18 0c2.837 0 5.52.656 7.907 1.825C31.884 4.753 36 10.895 36 18c0 9.942-8.058 18-18 18-9.94 0-18-8.057-18-18C0 8.06 8.06 0 18 0z" fill="#f2f4f7" fill-rule="nonzero"/><path d="m3.256 10.935.434-.358c.033-.028.067-.055.121-.055s.095.048.095.088c0 .061-.115.102-.163.13l-.385.195zm24.409.82c0-.17.021-.509-.061-.57-.034-.02-.034-.026-.115-.033l-.088-.007c-.02-.02-.007-.054.014-.06.121 0 .196-.015.324-.015.142 0 .122.007.244.007.027.014.013.061.013.061-.088.007-.128.021-.142.061-.054.088-.047.4-.047.555v.311c0 .237.02.46-.237.663-.148.123-.399.183-.649.183-.23 0-.474-.047-.637-.163-.182-.114-.284-.304-.284-.629v-.642c-.007-.237.034-.333-.162-.346l-.082-.007c-.02-.013-.013-.06.007-.067.169.006.243.013.379.013h.271c.02.007.007.054.007.054-.197.014-.169.068-.169.353v.588c0 .44.108.717.71.731.494.014.724-.237.704-.724zM25.1 12.6a.308.308 0 0 1 .034.122c0 .026-.034.074-.088.081l-.081.007c-.027.013-.027.054.007.067.108 0 .196-.006.372-.006.169 0 .135 0 .291.006.02-.013.075-.013.027-.047l-.074-.014c-.163-.013-.183-.033-.291-.277l-.501-1.008a15.2 15.2 0 0 0-.257-.508l-.555 1.016c-.156.263-.278.48-.352.608-.041.068-.067.122-.122.15l-.095.026c-.027.014-.04.034-.02.048.102 0 .149-.007.271-.007.182 0 .223 0 .324.007.034-.014.007-.034-.013-.048l-.109-.027c-.087-.007-.101-.08-.101-.115 0-.027-.007-.007.048-.128l.169-.298c.026-.06.087-.068.182-.068h.603c.108 0 .128.014.148.074zm-.737-1.056c.128-.21.101-.21.101-.21s.075.143.102.203l.216.434c.034.061.027.101-.094.094h-.46c-.109 0-.122-.006-.116-.054zm-4.48.92c-.014.237.02.298-.122.34l-.088.026c-.02.021-.014.054 0 .061.142-.007.223-.014.352-.014.122 0 .277.007.419.014.014-.007.014-.047-.013-.054l-.102-.027c-.176-.02-.209-.082-.209-.366V12.1c0-.06.007-.06.142-.06.122 0 .223-.035.291.06.095.122.257.345.345.447.135.15.291.345.528.338.061 0 .095-.013.149-.013s.061-.034.047-.04a.498.498 0 0 1-.237-.089c-.209-.156-.317-.393-.615-.724-.014-.014-.035-.054-.014-.06.176-.062.352-.164.359-.44.007-.19-.102-.306-.244-.374-.129-.054-.331-.067-.521-.067h-.724c-.027 0-.02.047 0 .061l.122.02c.121.014.135.061.135.325zm.23-1.204c0-.08.007-.088.196-.088.332 0 .582.121.575.406 0 .176-.074.264-.169.311-.095.048-.277.061-.386.061-.155 0-.202-.007-.209-.013-.007-.007-.007-.04-.007-.088zm-1.455 1.204c.007.197-.034.332.142.346l.081.02c.021.014.027.047.007.054-.169-.007-.23-.007-.352-.007-.121 0-.155 0-.345.007-.02-.007-.02-.033 0-.047l.088-.027c.149-.027.136-.109.136-.346v-1.157c0-.088 0-.088-.095-.088h-.163c-.128 0-.379-.007-.453.054-.068.061-.061.11-.088.163-.021.041-.068.007-.068.007-.013-.054.021-.21.054-.345.007-.02.258-.007.4-.007h1.218c.162 0 .277-.028.284.007.02.101.014.216.02.297-.013.02-.047.027-.067.014-.007-.068-.021-.116-.068-.142-.068-.048-.264-.055-.426-.055h-.217c-.088 0-.088 0-.088.095zm-1.502-.08c0 .08-.014.44 0 .514-.007.013-.041.013-.075 0-.054-.02-.115-.095-.385-.352l-.697-.67c-.068-.075-.285-.27-.372-.352 0 0-.007 0-.007.081v.575c0 .13-.014.461.02.548.013.034.041.075.115.082l.095.02c.02.021.013.041-.007.054-.135-.007-.176-.007-.284-.007-.129 0-.21 0-.318.007-.021-.013-.013-.04 0-.054l.081-.02a.17.17 0 0 0 .129-.075c.047-.1.04-.413.04-.548l-.02-.785a.259.259 0 0 0-.108-.203.396.396 0 0 0-.19-.06l-.054-.015c-.02-.02-.013-.054.013-.054.129 0 .258-.007.305-.007.054 0 .995.901.995.901.21.21.609.548.609.548.014-.014-.007-.136-.007-.197v-.582c0-.128.034-.466-.088-.514-.027-.013-.081-.06-.156-.06l-.094-.028c-.021-.013-.014-.048.007-.054h.406c.128 0 .135 0 .216.013.027 0 .027.034.007.054l-.041.014a.143.143 0 0 0-.101.054c-.048.068-.034.393-.034.521zm-2.673-.9c0-.292-.014-.332-.19-.346l-.067-.02c-.021-.007-.007-.04.007-.048.155.007.243 0 .372 0 .121 0 .216.014.372.007.013.007.013.034 0 .047l-.068.014c-.176.014-.176.054-.176.345v.974c0 .291 0 .332.183.353l.068.02c.02.007.02.047 0 .054-.149-.007-.251-.007-.373-.007-.128 0-.23 0-.385.007-.014-.007-.014-.04 0-.054l.074-.02c.176-.02.183-.062.183-.353zm-1.557 1.42c.616 0 1.103-.392 1.103-.927 0-.466-.372-.906-1.103-.906-.649 0-1.123.406-1.123.933 0 .481.42.9 1.123.9zm.034-.074a.909.909 0 0 1-.94-.893c0-.583.507-.772.845-.772.616 0 .928.487.928.927 0 .521-.447.738-.833.738zm-3.018-1.523c.23-.176.508-.25.853-.237.481.014.534.15.697.19.034.007.081-.034.108-.027.028.007.034.244.048.426.006.02-.041.02-.055 0a.906.906 0 0 0-.832-.515c-.514 0-.893.258-.893.82.007.473.372.873.92.873.433 0 .731-.23.812-.393.02-.013.074-.027.061.007a1.633 1.633 0 0 1-.074.277c-.034.055-.23.102-.265.116a2.51 2.51 0 0 1-.554.081c-.298 0-.528-.04-.772-.177-.237-.14-.399-.385-.399-.744a.91.91 0 0 1 .345-.697zm-1.997 1.15c0 .298.028.332.136.346l.102.013c.013.021.006.055-.007.061-.19-.006-.23 0-.352 0s-.19-.006-.352-.006c-.013-.007-.02-.04 0-.055l.109-.013c.088-.02.128-.027.121-.346v-.135c0-.156 0-.156-.006-.31l-.488-.65c-.108-.17-.162-.203-.23-.217l-.054-.02c-.006 0-.087-.027-.027-.055.102 0 .21.014.352.014s.203-.014.278-.014c.026.007.026.021.013.041l-.04.013c-.055.014-.109.048-.102.09 0 .026.108.161.129.188.128.196.352.467.352.467s.182-.21.284-.352c.094-.128.169-.209.162-.304 0 .006-.02-.054-.115-.068l-.088-.014c-.047-.013-.054-.054 0-.054.115 0 .223.007.312.007.094 0 .128-.007.209-.007.048 0 .061.041.034.054l-.054.021c-.108.027-.196.176-.359.406l-.318.413v.486zm-2.72-.31c.068.128.136.236.21.358l.014.013c.095-.108.872-1.44.872-1.44s.035-.008.095-.008c.075 0 .135 0 .23-.007.021.014.048.014.041.041l-.041.014c-.162.02-.202.108-.196.304 0 .291.014.752.034 1.151.013.135.013.182.142.223l.088.02c.02.021.027.048-.014.055-.121.006-.209 0-.318 0-.108 0-.148.006-.277.006-.027 0-.068-.026-.02-.054l.074-.027c.081-.027.101-.068.101-.203l-.04-1.029-.041-.006c-.033.013-.094.122-.155.23l-.271.46c-.116.201-.235.4-.359.596-.006.007-.027.007-.02 0 .034-.007-.02 0-.027-.007-.074-.136-.203-.359-.278-.495l-.284-.487a3.686 3.686 0 0 0-.169-.277l-.013.02c-.014.17-.014.142-.02.305a8.614 8.614 0 0 0-.028.642c0 .203.061.217.183.251l.101.027c.014.041-.013.041-.033.048-.102 0-.176-.007-.291-.007-.095 0-.203.007-.305.007-.02-.014-.027-.04-.006-.055l.067-.02c.082-.014.122-.027.142-.223.021-.177.028-.305.048-.576a8.59 8.59 0 0 0 .02-.514c0-.122-.095-.318-.244-.345l-.04-.02c-.014-.02-.014-.04.007-.055.094.007.162.014.237.014.067 0 .101-.014.142-.007.033.007.277.44.284.454zm16.736-.67c0-.285-.007-.325-.183-.346h-.054c-.028-.033-.007-.047.007-.054h.358l.568.007c.19 0 .427-.027.481-.007.034.007.014.237-.02.345-.014.021-.048.014-.061-.007-.048-.128.013-.202-.183-.23-.061-.006-.223-.006-.358-.006l-.217.013c-.061.007-.088.007-.088.11l-.007.533c0 .081.014.081.102.081h.176c.128 0 .284-.013.318-.02.034-.013.074-.02.108-.088l.027-.088c.014-.02.068-.02.081 0 0 .068-.013.15-.013.25 0 .102.006.203.006.264-.006.021-.06.021-.074 0l-.027-.1c-.013-.055-.034-.096-.094-.11a3.884 3.884 0 0 0-.332-.013h-.176c-.088 0-.102 0-.102.074v.36c0 .141 0 .25.054.297.034.033.061.027.325.033.196.007.339-.033.406-.06a.674.674 0 0 0 .278-.176c.027-.027.054-.027.047.027-.02.095-.176.291-.27.298-.271.033-.413.013-.684.013h-.271c-.128 0-.135 0-.311.007-.02-.007-.013-.034.007-.048l.088-.026c.094-.04.094-.136.088-.346zm-19.246 0c0-.285-.007-.325-.183-.346h-.054c-.027-.033-.007-.047.007-.054h.358l.569.007c.189 0 .426-.027.48-.007.034.007.014.237-.027.345-.006.021-.04.014-.054-.007-.047-.128.014-.202-.182-.23-.061-.006-.224-.006-.359-.006l-.217.013c-.068.007-.094.007-.094.11v.533c0 .081.013.081.101.081h.176c.128 0 .284-.013.318-.02.034-.013.075-.02.108-.088l.028-.088c.013-.02.067-.02.081 0 0 .068-.02.15-.02.25 0 .102.013.203.013.264-.007.021-.061.021-.074 0l-.028-.1c-.013-.055-.033-.096-.094-.11a4.026 4.026 0 0 0-.332-.013H3.06c-.088 0-.101 0-.101.074v.36c0 .141.013.236.06.283.034.034.048.041.319.047a1.02 1.02 0 0 0 .405-.06.674.674 0 0 0 .278-.176c.027-.027.054-.027.047.027-.02.095-.176.291-.27.298-.271.033-.413.013-.684.013h-.271c-.128 0-.135 0-.311.007-.02-.007-.013-.034.007-.048l.081-.026c.129-.048.095-.136.095-.346zm-1.841.27c-.182 0-.237-.007-.25-.014-.007-.013-.007-.047-.007-.108v-.704c0-.088.007-.1.23-.1.399 0 .69.188.677.5-.007.27-.136.345-.271.392-.122.048-.25.034-.379.034zm1.503 1.083a.436.436 0 0 1-.251-.095c-.244-.182-.359-.44-.677-.805-.02-.027-.129-.136-.094-.156.169-.08.439-.203.439-.514 0-.23-.149-.379-.318-.46-.169-.082-.399-.082-.622-.082l-.806.013c-.067 0-.061.061 0 .082l.115.014c.149.013.156.067.156.385v1.171c0 .345-.021.372-.163.42 0 0-.088.027-.088.04 0 .034.014.034.034.041.169-.007.216-.007.372-.007.142 0 .332.007.494.014.027-.014.027-.04.007-.06l-.142-.02c-.196-.036-.217-.083-.217-.428v-.44c0-.068.007-.074.17-.074.142 0 .284-.007.338.067.142.183.305.4.379.495.277.372.413.46.717.46a.508.508 0 0 0 .162-.02c.015-.007.015-.034-.005-.04zm16.295-3.614-.393.014-.379-.034-.372.061-.379.047-.392-.074-.399.013-.379-.02-.387.013-.385.014-.379-.027-.372.013-.372-.06-.393.067-.399.027-.392.02-.38-.04-.386.02-.385.007-.379-.06-.372-.028-.386.02-.379.055-.379-.028-.372-.013.074-.379.007-.386-.007-.379-.033-.385.054-.379.02-.373-.061-.426.007-.298.041-.29-.014-.522-.054-.358-.041-.352.054-.407.02-.405.028-.325v-.487l.04-.474-.108-.657.047-.169.034-.175-.047-.38-.034-.372-.034-.379-.04-.399.372-.013.345-.055.446.041.434.081.345.007h.352l.311-.027.318-.047.487.054.494.047.386-.034.379-.027.385-.013.386.006.386.007.386-.034.386.048.379.027.426-.007.419-.02.345.013.352.027.379-.067.406-.02-.033.405.007.393-.041.4-.034.405.047.373.007.372.021.385-.055.38.027.378v.82l.007.44-.014.324-.026.318-.035.385-.04.38.061.378.02.38.055.378.026.386-.033.366-.007.365-.027.365z" fill="#ae4945" mask="url(#a)" transform="translate(4 12)"/><path d="m16.419 16.5.02-.027c.028-.027.055-.061.102-.054.027-.027.25-.251.25-.257.068-.02.136-.041.183-.095.02-.101.088-.135.163-.17.054-.026.115-.053.148-.121v-.006h.007c.068-.007.115-.041.169-.09a.321.321 0 0 1 .176-.087c.04-.067.102-.088.163-.108a.284.284 0 0 0 .128-.047.409.409 0 0 0 .17-.068.415.415 0 0 1 .189-.068c0-.013.027-.101.034-.114-.061-.068-.142-.082-.223-.096l-.041-.006v-.007a.249.249 0 0 0-.176-.061c-.034.034-.068.04-.108.048-.027.006-.061.013-.088.034a1.794 1.794 0 0 0-.474.12 3.136 3.136 0 0 1-.305.096c-.02.027-.047.034-.074.04s-.047.015-.054.035c-.027.054-.074.074-.122.094-.027.014-.061.028-.094.055l-.007.006c-.102.048-.217.109-.251.217-.02.013-.033.034-.054.047v.846l.014-.013a1.5 1.5 0 0 1 .155-.143m.143-1.144.142-.061.033-.02c.055-.02.109-.047.109-.108-.082-.108-.21-.224-.386-.203a.152.152 0 0 1-.102.054s-.074.027-.081.034h-.027v.534l.047-.047c.068-.101.163-.142.265-.183" fill="#f6e6bd"/><path d="M19.755 15.485c-.115.189-.372.176-.467.366-.047-.021-.108.013-.149.027l.013.047c.068.196.278.08.42.08.109-.066.264-.04.4-.046v-.575c-.054.02-.102.04-.156.054z" fill="#b68d37"/><path d="M19.038 15.377h.007z" fill="#f9f6eb"/><path d="M16.419 18.07v-.028a.065.065 0 0 1 .048-.054c.02-.014.027-.02.027-.034v-.007l.08-.1.137-.17c.054-.075.12-.136.189-.203a.943.943 0 0 0 .223-.264c.034-.04.088-.068.129-.095.074-.046.142-.087.176-.168.033-.075.095-.095.162-.108.048-.014.102-.021.129-.061.027-.055.075-.082.115-.11l.08-.054a.583.583 0 0 1 .157-.162c.08-.06.156-.129.176-.223v-.007l.006-.006c.096-.027.163-.102.237-.176l.082-.088.068-.02c.047-.02.074-.027.074-.068v-.027c.013-.047.054-.061.088-.075l.034-.013c.027-.088.095-.122.156-.156.054-.026.108-.054.135-.115a.597.597 0 0 1-.027-.033.15.15 0 0 0-.061-.068c-.054 0-.095-.034-.136-.061-.04-.034-.074-.068-.122-.061-.047.034-.101.047-.148.06-.047.02-.095.035-.13.062l-.006.007-.007-.007c-.047-.014-.074.013-.115.047-.034.027-.074.055-.122.055a.33.33 0 0 1-.142.06c-.047.02-.101.034-.135.075l-.007.007h-.007c-.047-.014-.081.013-.115.04-.033.034-.081.068-.135.06-.047.056-.115.082-.176.109l-.13.06a.658.658 0 0 1-.208.184c-.102.068-.19.128-.237.25-.054.102-.15.163-.237.224-.061.04-.136.087-.182.148-.041.143-.136.25-.244.359 0 0-.021.027-.047.055v1.21c.087-.067.168-.142.168-.25" fill="#f6e6bd"/><path d="M19.505 17.833c-.095.034-.183.006-.284 0a4.972 4.972 0 0 1-1.002.061c-.331.013-.622.081-.927.148-.034.034-.088.021-.121.041a.535.535 0 0 0-.36.15c-.054.053.048.067.014.127-.007.007-.013.007-.013.014h3.16v-.602c-.095.006-.19.027-.257.095-.068-.02-.156.02-.21-.034m-.46-.718c-.095-.006-.163.048-.25.028-.041.047-.11-.048-.136.033-.033.014-.04-.04-.068-.027-.026.047-.087-.013-.121.027-.068-.02-.183.007-.237-.033-.176.04-.332.026-.515.06a.988.988 0 0 1-.094.041c-.061.054-.108.115-.17.19-.053-.014-.033.081-.087.06l.02.047-.034.021c-.047.041-.095.088-.068.156.095.033.197-.02.278.06.102-.006.237.014.352-.033.244.013.399-.068.656-.04.048-.028.088.046.116-.015.21-.013.418-.045.622-.094l.013.013c.143.014.278-.04.413-.074.055.061.149.074.237.061v-.562a3.211 3.211 0 0 0-.36.034c-.168.101-.378.061-.567.047m.52-.94c-.351.047-.676.156-1.021.216-.122.163-.345.224-.426.42-.02.054-.02.128.04.156.339 0 .684.02.995-.068.088.047.196.034.298.054.02-.068.115.014.129-.068.033.014.06-.027.088.007l.304-.054v-.744c-.054.007-.108-.02-.162-.014-.088.061-.142.061-.244.095" fill="#b68d37"/></g></svg>