<svg width="36" height="36" xmlns="http://www.w3.org/2000/svg"><g fill="none" fill-rule="evenodd"><path d="M18 0c2.837 0 5.52.656 7.907 1.825C31.884 4.753 36 10.895 36 18c0 9.942-8.058 18-18 18-9.94 0-18-8.057-18-18C0 8.06 8.06 0 18 0z" fill="#F2F4F7" fill-rule="nonzero"/><path d="M28.376 12.135c.449.669.832 1.38 1.145 2.121h.001c.329.765.578 1.562.745 2.378a12.468 12.468 0 0 1 .185 3.743c-.043.425-.105.847-.186 1.266l-.029.151-3.718 2.693-.601 4.783h-6.415l-.233.156a1.98 1.98 0 0 1-.598.318h-.001a2.186 2.186 0 0 1-.688.106c-.246 0-.475-.034-.693-.106h-.002a2.065 2.065 0 0 1-.593-.312l-.262-.162h-6.355l-.612-4.782-3.737-2.694-.03-.148a12.701 12.701 0 0 1-.004-5.004 12.675 12.675 0 0 1 1.884-4.511 12.388 12.388 0 0 1 3.393-3.397 12.758 12.758 0 0 1 4.52-1.901 12.47 12.47 0 0 1 2.49-.247 12.385 12.385 0 0 1 4.883.995 12.512 12.512 0 0 1 3.975 2.681v.001c.57.574 1.085 1.2 1.536 1.872z" fill="#FFF" fill-rule="nonzero"/><path d="M29.164 14.408a12.13 12.13 0 0 0-6.451-6.47 11.96 11.96 0 0 0-4.73-.963c-1.646 0-3.216.318-4.731.963a12.166 12.166 0 0 0-3.861 2.6 12.056 12.056 0 0 0-2.6 3.87 12.037 12.037 0 0 0-.953 4.722c0 .804.075 1.607.243 2.44l3.749 2.7.589 4.61h6.124l.364.224c.318.243.664.355 1.075.355.403 0 .758-.112 1.066-.355l.337-.224h6.19l.579-4.61 3.73-2.701a12.92 12.92 0 0 0 .243-2.44 11.88 11.88 0 0 0-.963-4.722z" fill="#CC2229"/><path d="M27.37 15.792a4.899 4.899 0 0 0-1.58-2.618l-5.694 9.807 5.039-10.751a5.14 5.14 0 0 0-2.6-1.842l-3.487 12.191 2.553-12.687a5.153 5.153 0 0 0-2.534-.664l-.57.038-.505 13.2-.533-13.2-.56-.038c-.898 0-1.75.225-2.535.664L16.89 22.58l-3.46-12.191c-1.075.346-1.944.954-2.598 1.842l5.067 10.751-5.722-9.807a4.898 4.898 0 0 0-1.58 2.618l6.376 7.834-6.563-6.59a5.114 5.114 0 0 0-.449 2.094c0 .401.047.831.16 1.29l3.683 2.692.486 3.618h4.478l.636.486c.178.122.365.178.58.187a.983.983 0 0 0 .56-.187l.674-.486h4.497l.458-3.618 3.674-2.692c.103-.459.16-.889.16-1.29 0-.72-.16-1.422-.45-2.095l-6.525 6.591 6.338-7.834z" fill="#F6D330"/></g></svg>