<svg width="36" height="36" fill="none" xmlns="http://www.w3.org/2000/svg"><path d="M18 0c2.837 0 5.52.656 7.907 1.825C31.884 4.753 36 10.895 36 18c0 9.942-8.058 18-18 18-9.94 0-18-8.057-18-18C0 8.06 8.06 0 18 0z" fill="#F2F4F7"/><path d="M4 18.338a3.356 3.356 0 1 0 6.713.035A3.356 3.356 0 0 0 7.374 15h-.019A3.355 3.355 0 0 0 4 18.338z" fill="#E4002B"/><path d="M8.53 20.313H6.182a.337.337 0 0 1-.337-.337v-1.38h-.281a.336.336 0 0 1-.238-.574l1.79-1.8a.34.34 0 0 1 .24-.1.34.34 0 0 1 .238.1l1.791 1.8a.336.336 0 0 1-.238.574h-.28v1.38a.337.337 0 0 1-.337.337zm-1.174-3.899a.044.044 0 0 0-.032.013l-1.791 1.8a.044.044 0 0 0-.01.05.045.045 0 0 0 .042.027h.427c.08 0 .146.066.146.146v1.526c0 .025.02.045.045.045h2.348c.024 0 .045-.02.045-.045V18.45c0-.08.065-.146.146-.146h.427c.018 0 .034-.01.041-.028a.045.045 0 0 0-.009-.049l-1.793-1.8a.044.044 0 0 0-.032-.013z" fill="#fff"/><path d="m13.648 19.883-.779-1.072h-.393v1.072h-.57v-2.931h1.173c.665 0 1.076.355 1.076.946 0 .432-.264.745-.678.863l.858 1.122h-.687zm-1.173-2.425v.875h.574c.318 0 .507-.146.507-.435 0-.297-.193-.44-.507-.44h-.574zm4.167 0H15.16v.678h1.302v.498h-1.303v.742h1.483v.507h-2.056v-2.931h2.056v.506zm2.49 2.425-.281-.759h-1.097l-.28.759h-.595l1.15-2.931h.558l1.155 2.93h-.61zm-1.206-1.227h.754l-.377-1.022-.377 1.021zm5.434-.386c.012.079.016.15.016.221 0 .926-.62 1.442-1.39 1.442-.818 0-1.468-.607-1.468-1.517 0-.91.616-1.518 1.467-1.518.537 0 1.086.281 1.308.851l-.49.26c-.164-.39-.437-.587-.818-.587-.498 0-.867.373-.867.993 0 .616.393.993.867.993s.746-.256.8-.675h-.8v-.465h1.375v.001zm1.542-.596v.579h-.227c-.251 0-.431.18-.431.498v1.132h-.541v-2.158h.54v.31c.123-.252.32-.36.546-.36h.113zm.091 1.128c0-.667.474-1.128 1.11-1.128.646 0 1.12.461 1.12 1.128 0 .67-.473 1.131-1.12 1.131-.636 0-1.11-.462-1.11-1.131zm1.677 0c0-.411-.243-.646-.566-.646-.319 0-.557.235-.557.646 0 .414.239.654.557.654.323-.001.566-.24.566-.654zm.855.213v-1.29h.545v1.256c0 .323.171.47.406.47.239 0 .406-.146.406-.47v-1.256h.545v1.29c0 .578-.407.918-.951.918-.54 0-.951-.34-.951-.918zM32 18.802c0 .65-.41 1.131-.968 1.131a.752.752 0 0 1-.671-.369v1.027h-.54v-2.866h.54v.31a.755.755 0 0 1 .67-.36c.559 0 .969.481.969 1.127zm-.553.003c0-.415-.226-.65-.544-.65-.323 0-.55.235-.55.65 0 .415.227.645.55.645.318.001.544-.23.544-.645z" fill="#3D3A40"/></svg>