<svg width="36" height="36" fill="none" xmlns="http://www.w3.org/2000/svg"><path d="M18 0c2.837 0 5.52.656 7.907 1.825C31.884 4.753 36 10.895 36 18c0 9.942-8.058 18-18 18-9.94 0-18-8.057-18-18C0 8.06 8.06 0 18 0z" fill="#F2F4F7"/><path fill-rule="evenodd" clip-rule="evenodd" d="M15.568 15.352v-.839h.322c.346 0 .54.139.54.415 0 .276-.208.424-.563.424h-.299zm-1.1 1.796h1.1v-1.313h.3c.299 0 .474.309.704.848l.198.465h1.082l-.372-.83c-.17-.372-.29-.589-.516-.685.336-.148.507-.396.507-.728 0-.493-.365-.898-1.212-.898h-1.792v3.141zm4.427-.005h2.371v-.663h-1.271v-.6h1.147v-.662h-1.147v-.553h1.253v-.663h-2.354v3.141zm4.724-.748v-1.649h.294c.594 0 .783.41.783.825 0 .562-.253.824-.787.824h-.29zm-1.101.746h1.773c1.069 0 1.506-.815 1.506-1.529 0-.728-.488-1.612-1.704-1.612h-1.575v3.142zm-6.891 2.325h-.767v-.378h.716V18.8h-.716v-.33h.75v-.287h-1.14v1.57h1.158v-.287zm1.988 0h-.806v-1.283h-.391v1.57h1.197v-.287zm1.654-1.772h-.38l-.17.336h.17l.38-.336zm.24 1.77h-.768v-.377h.716V18.8h-.716v-.33h.751v-.287H18.35v1.57h1.158v-.287zm2.279-.175c-.226.108-.364.172-.569.172-.327 0-.56-.2-.56-.481 0-.279.236-.477.57-.477.193 0 .368.065.54.162v-.35a1.108 1.108 0 0 0-.568-.139c-.601 0-.944.392-.944.81 0 .406.303.802.914.802.232 0 .398-.043.617-.156v-.343zm2.224-1.103h-1.529v.288h.569v1.283h.391v-1.283h.57v-.288zm1.142.295h.198c.147 0 .223.06.223.178 0 .133-.105.18-.214.18h-.207v-.358zm-.392-.287v1.57h.392v-.637h.113c.212 0 .274.301.442.637h.43c-.22-.46-.269-.654-.43-.734.18-.083.27-.212.27-.385 0-.235-.192-.451-.514-.451h-.703zm2.478-.008h-.391v1.57h.391v-1.57zm2.323 1.103c-.226.108-.364.172-.569.172-.327 0-.56-.2-.56-.481 0-.279.236-.477.57-.477.193 0 .368.065.54.162v-.35a1.107 1.107 0 0 0-.568-.139c-.601 0-.944.392-.944.81 0 .406.303.802.914.802.232 0 .398-.043.617-.156v-.343zm1.771-.119h-.483l.23-.61.253.61zm-.032-.985h-.453l-.634 1.57h.415l.117-.31h.703l.129.31H32l-.698-1.57zm-16.659 2.777h.325c.322 0 .743.101.743.633s-.421.633-.743.633h-.325v-1.266zm-.173-.152v1.57h.486c.504 0 .94-.212.94-.785 0-.573-.436-.785-.94-.785h-.486zm2.89-.006h-.876v1.57h.894v-.151h-.721v-.564h.682v-.152h-.682v-.551h.702v-.152zm2.361 0h-.875v1.57h.894v-.151h-.721v-.564h.682v-.152h-.682v-.551h.702v-.152zm1.299.079a.664.664 0 0 0-.354-.104c-.263 0-.466.17-.466.417 0 .175.097.306.362.43.322.153.352.247.352.346 0 .095-.071.263-.292.263-.175 0-.325-.116-.408-.199v.212a.73.73 0 0 0 .413.143c.205 0 .458-.133.458-.43 0-.233-.11-.323-.417-.475-.138-.069-.297-.15-.297-.309 0-.057.044-.241.292-.241.16 0 .286.09.357.142v-.195zm1.083.079c.316 0 .352.166.352.278 0 .113-.036.279-.352.279h-.258v-.557h.258zm-.43-.152v1.57h.172v-.709h.276c.394 0 .519-.216.519-.43 0-.215-.125-.431-.519-.431h-.449zm2.359.92h-.58l.285-.652.295.652zm-.237-.924h-.115l-.698 1.58h.18l.223-.505h.718l.228.505h.18l-.716-1.58zm1.674-.16c.004-.027.016-.099.09-.099.046 0 .135.037.189.058.103.041.138.041.165.041.088 0 .19-.075.19-.246h-.084c-.007.04-.016.104-.09.104-.027 0-.052-.003-.151-.044a.472.472 0 0 0-.206-.055c-.16 0-.177.17-.186.241h.083zm.992.164h-.168v1.294l-1.121-1.294h-.148v1.57h.168v-1.294l1.122 1.295h.148V20.81zm1.547.92h-.58l.285-.652.295.652zm-.237-.924h-.115l-.698 1.58h.18l.223-.505h.718l.228.505h.18l-.716-1.58z" fill="#231F20"/><path fill-rule="evenodd" clip-rule="evenodd" d="M4 14.013h8.37v8.37H4v-8.37z" fill="#025B88"/><path fill-rule="evenodd" clip-rule="evenodd" d="M7.911 19.86a.356.356 0 0 1 .571-.284 10.72 10.72 0 0 1 1.187-.608c0-.074.017-.135.048-.188a10.809 10.809 0 0 0-.803.186.356.356 0 0 1-.636.19c-.472.154-.99.357-1.52.62a.356.356 0 1 1-.115-.223c.47-.23 1.007-.452 1.562-.639a.356.356 0 0 1 .635-.194c.436-.121.87-.214 1.28-.268a.356.356 0 1 1 .252.433.356.356 0 0 1-.606.32 12.419 12.419 0 0 0-1.148.59.356.356 0 0 1-.566.347c-.41.265-.852.583-1.291.954a.356.356 0 1 1-.164-.19c.392-.33.846-.667 1.322-.979a.325.325 0 0 1-.007-.068" fill="#fff"/><path fill-rule="evenodd" clip-rule="evenodd" d="M5.569 18.777a.356.356 0 0 1 .654-.194l1.463-.32a.356.356 0 0 1 .649-.142l1.215-.266a.35.35 0 0 1 .059-.14 71.043 71.043 0 0 0-.719-.006.355.355 0 0 1-.665 0c-.632.002-1.166.01-1.49.015a.356.356 0 1 1-.005-.25c.325-.006.862-.014 1.492-.016a.356.356 0 0 1 .666 0c.403.001.825.005 1.241.014a.356.356 0 1 1 .12.42v.027a.356.356 0 0 1-.66.183l-1.205.264a.356.356 0 0 1-.652.142l-1.464.32a.356.356 0 0 1-.708-.051" fill="#fff"/><path fill-rule="evenodd" clip-rule="evenodd" d="M9.328 16.789a.357.357 0 0 1 .07-.148 14.19 14.19 0 0 1-.524-.13.356.356 0 0 1-.64-.189 13.243 13.243 0 0 1-1.663-.662.355.355 0 0 1-.598-.26.356.356 0 0 1 .711 0l-.001.034a14.11 14.11 0 0 0 1.623.649.355.355 0 0 1 .637.193c.456.126.91.224 1.337.28a.355.355 0 1 1-.029.245 8.741 8.741 0 0 1-.233-.037.355.355 0 0 1-.654.269 12.713 12.713 0 0 1-1.405.082.356.356 0 0 1-.67-.013 11.842 11.842 0 0 1-1.792-.212.355.355 0 1 1 .053-.246c.54.106 1.14.178 1.747.208a.355.355 0 0 1 .664.018c.48 0 .943-.026 1.374-.081" fill="#fff"/></svg>