<svg height="36" viewBox="0 0 36 36" width="36" xmlns="http://www.w3.org/2000/svg"><mask id="a" fill="#fff"><path d="M0 0h2.997v3.223H0z" fill-rule="evenodd"/></mask><mask id="b" fill="#fff"><path d="M0 0h3.06v3.236H0z" fill-rule="evenodd"/></mask><mask id="c" fill="#fff"><path d="M0 0h3.26v3.084H0z" fill-rule="evenodd"/></mask><g fill="none" fill-rule="evenodd"><path d="M18 0c2.837 0 5.52.656 7.907 1.825C31.884 4.753 36 10.895 36 18c0 9.942-8.058 18-18 18-9.94 0-18-8.057-18-18C0 8.06 8.06 0 18 0z" fill="#f2f4f7" fill-rule="nonzero"/><g fill="#005c9e"><path d="M5.045 17.473h.629c.353 0 .705-.138.705-.49 0-.328-.239-.379-.503-.379h-.642zm-.39-1.397h1.473c.554-.013.919.213.919.805a.83.83 0 0 1-.705.832v.011c.251.077.314.303.314.542 0 .14-.025.34-.025.541 0 .14.013.265.038.353h-.667c-.013-.075-.025-.139-.025-.2 0-.202.037-.417.037-.63 0-.303-.176-.378-.44-.378h-.642L4.68 19.16H4zm2.467 3.084.655-3.084h2.354l-.126.566H8.33l-.138.667h1.55l-.115.53H8.08l-.15.755h1.698l-.126.566z"/><path d="M2.153 2.833a.969.969 0 0 1-.78.391C.504 3.224 0 2.732 0 1.863 0 .869.642 0 1.687 0c.718 0 1.31.34 1.31 1.095h-.68c-.013-.377-.252-.528-.63-.528C.995.567.68 1.271.68 1.863c0 .429.202.793.705.793.517 0 .743-.276.856-.667h-.717l.113-.503h1.309l-.352 1.661h-.441z" mask="url(#a)" transform="translate(10.181 16.013)"/><path d="m13.291 19.16.642-3.084h2.355l-.114.566H14.5l-.139.667h1.549l-.113.53h-1.549l-.164.755h1.7l-.113.566zm2.871 0 .655-3.084h.705l.83 2.19h.014l.44-2.19h.629l-.654 3.084h-.68l-.843-2.166h-.013l-.441 2.166zm3.21 0 .642-3.084h2.355l-.114.566h-1.674l-.139.667h1.55l-.115.53H20.33l-.164.755h1.712l-.125.566zm3.916-1.687h.63c.365 0 .704-.138.704-.49 0-.328-.239-.379-.503-.379h-.642zm-.39-1.397h1.473c.554-.013.92.213.92.805a.83.83 0 0 1-.706.832v.011c.251.077.314.303.314.542 0 .14-.025.34-.025.541 0 .14.013.265.038.353h-.667c-.013-.075-.025-.139-.025-.2 0-.202.037-.417.037-.63 0-.303-.176-.378-.44-.378h-.642l-.252 1.208h-.68z"/><path d="M1.373 2.669c.667 0 .995-.705.995-1.296 0-.429-.189-.806-.693-.806-.693 0-1.007.705-1.007 1.296.012.429.214.806.705.806M1.687 0C2.519 0 3.06.454 3.06 1.322c0 1.02-.604 1.914-1.687 1.914C.504 3.236 0 2.745 0 1.876 0 .869.643 0 1.687 0" mask="url(#b)" transform="translate(25.554 16)"/><path d="M.642 0h.705l.843 2.191L2.631 0h.63l-.655 3.084h-.68L1.082.919H1.07L.629 3.084H0z" mask="url(#c)" transform="translate(28.74 16.076)"/></g></g></svg>