<svg height="36" viewBox="0 0 36 36" width="36" xmlns="http://www.w3.org/2000/svg"><mask id="a" fill="#fff"><path d="M0 0h28v4.221H0z" fill-rule="evenodd"/></mask><g fill="none" fill-rule="evenodd"><path d="M18 0c2.837 0 5.52.656 7.907 1.825C31.884 4.753 36 10.895 36 18c0 9.942-8.058 18-18 18-9.94 0-18-8.057-18-18C0 8.06 8.06 0 18 0z" fill="#f2f4f7" fill-rule="nonzero"/><g fill="#473b69"><path d="M3.728.782A2.094 2.094 0 0 0 0 2.111c0 1.181.937 2.11 2.119 2.11.856 0 1.683-.597 1.963-1.409h-.568c-.244.554-.849.885-1.447.885-.746 0-1.491-.627-1.521-1.394H4.2c-.014-.584-.096-1.056-.472-1.521zM.546 1.807C.679 1.062 1.351.523 2.111.523c.746 0 1.403.569 1.543 1.284zm5.965 2.414c-.604 0-1.14-.29-1.454-.834-.231-.387-.251-.805-.251-1.166V.088h.547v2.133c0 .31.014.621.177.893.221.384.612.583 1.055.583.392 0 .753-.177.99-.494.206-.288.243-.635.243-.982V.088h.546v4.038h-.516v-.628h-.016c-.25.517-.76.723-1.321.723zM9.826.671h-.015V.088h-.517v4.038h.547V1.867c0-.458.037-.731.413-1.049.229-.191.436-.258.731-.28V0c-.495.013-.96.191-1.159.671zm4.983-.583v.767h-.015C14.506.28 13.864 0 13.229 0c-.686 0-1.195.265-1.579.664a2.038 2.038 0 0 0-.584 1.417c0 1.219.977 2.14 2.178 2.14.635 0 1.255-.287 1.55-.855h.015v.76h.524V.088zm-1.565 3.609c-.864 0-1.631-.686-1.631-1.572 0-.893.731-1.602 1.616-1.602.901 0 1.58.716 1.58 1.61 0 .841-.723 1.564-1.565 1.564zM18.722.582V.088h-2.776v.494h2.112l-2.185 3.064v.48h2.989v-.494h-2.31zm4.14.2a2.094 2.094 0 0 0-3.728 1.329c0 1.181.937 2.11 2.118 2.11.857 0 1.684-.597 1.964-1.409h-.568c-.244.554-.849.885-1.447.885-.746 0-1.492-.627-1.521-1.394h3.654c-.015-.584-.096-1.056-.472-1.521zM19.68 1.807c.133-.745.805-1.284 1.565-1.284.746 0 1.403.569 1.543 1.284zM25.904 0a2.122 2.122 0 0 0-2.119 2.133c0 1.159.974 2.088 2.119 2.088 1.166 0 2.096-.989 2.096-2.14C28 .959 27.026 0 25.904 0zm-.003 3.697a1.58 1.58 0 0 1-1.57-1.57c0-.882.695-1.604 1.57-1.604.885 0 1.553.722 1.553 1.566 0 .865-.633 1.608-1.553 1.608z" mask="url(#a)" transform="translate(4 21.039)"/><path d="M20.12 11.204A4.405 4.405 0 0 0 17.075 10c-2.235 0-4.472 1.777-4.472 4.476 0 1.654.967 3.086 2.058 3.764.917.568 1.79.702 2.377.702l.046-.036-.033-.042c-1.799-.245-3.805-1.879-3.805-4.472 0-2.688 2.08-3.906 3.797-3.906 1.8 0 3.206 1.148 3.722 2.483l-6.319 1.693.058.474 6.883-1.844c-.106-.456-.495-1.37-1.266-2.088m-4.24 6.534a4.407 4.407 0 0 0 3.045 1.204c2.235 0 4.472-1.778 4.472-4.476 0-1.654-.966-3.086-2.057-3.763A4.53 4.53 0 0 0 18.963 10l-.046.036.033.043c1.799.245 3.805 1.878 3.805 4.471 0 2.689-2.08 3.905-3.798 3.905-1.798 0-3.205-1.147-3.721-2.481l6.319-1.694-.058-.474-6.883 1.844c.106.456.494 1.37 1.266 2.088"/></g></g></svg>