<svg height="36" viewBox="0 0 36 36" width="36" xmlns="http://www.w3.org/2000/svg"><mask id="a" fill="#fff"><path d="M0 0h19.935v3.357H0z" fill-rule="evenodd"/></mask><g fill="none" fill-rule="evenodd"><path d="M18 0c2.837 0 5.52.656 7.907 1.825C31.884 4.753 36 10.895 36 18c0 9.942-8.058 18-18 18-9.94 0-18-8.057-18-18C0 8.06 8.06 0 18 0z" fill="#f2f4f7" fill-rule="nonzero"/><path d="m7.408 16-.661.886.661 3.695.666-3.693zm.291 4.58 1.32-2.426-.886-1.183zm-1.887-2.417 1.322 2.418-.445-3.604zm2.214 2.417h2.804l-1.755-2.346zM4 20.579h2.812l-1.064-2.34z" fill="#84bd00"/><path d="M19.784 1.351h-.076c-.1-.296-.381-.526-.651-.526-.237 0-.43.152-.43.343 0 .097.049.192.13.27.13.127.73.434.891.592.198.191.287.365.287.588 0 .561-.52.739-.842.739-.315 0-.507-.1-.641-.1a.148.148 0 0 0-.134.083h-.076v-.766h.076c.076.379.327.639.703.639.282 0 .484-.152.484-.36a.415.415 0 0 0-.135-.291c-.201-.196-.663-.384-.882-.596a.737.737 0 0 1-.233-.54c0-.439.341-.744.824-.744.099 0 .188.018.269.035.081.018.157.035.224.035.041 0 .085-.022.134-.07h.077v.669m-2.369 1.971h-.086l-1.885-2.067v1.558c0 .278.085.356.385.404v.073h-.905v-.072c.282-.044.349-.191.345-.439V1.073c-.202-.199-.242-.231-.35-.252V.747h.789l1.532 1.706V1.308c0-.308-.054-.426-.331-.487V.747h.887v.074c-.301.018-.38.192-.38.418v2.083m-4.383.035c-.829 0-1.425-.557-1.425-1.335s.596-1.34 1.425-1.34c.834 0 1.429.562 1.429 1.34s-.595 1.335-1.429 1.335m0-2.531c-.515 0-.797.413-.797 1.217 0 .614.206 1.17.797 1.17.439 0 .802-.335.802-1.175 0-.713-.228-1.212-.802-1.212m-2.357 2.035c0 .226.058.291.331.356v.073H9.765v-.072c.323-.078.331-.165.331-.413V1.177c0-.226-.059-.291-.331-.357V.746h1.241v.075c-.314.07-.331.166-.331.409zm-1.685.313c-.251.117-.623.183-1.017.183-.945 0-1.425-.665-1.425-1.319 0-.778.605-1.356 1.425-1.356.398 0 .578.152.748.152.072 0 .121-.021.188-.086h.081v.713h-.081c-.157-.386-.506-.634-.9-.634-.538 0-.833.469-.833 1.257 0 .814.358 1.132.842 1.132.237 0 .394-.062.394-.27v-.379c0-.165-.067-.275-.269-.314V2.18h1.102v.073c-.192.053-.255.149-.255.384zm-3.172-.761h-.085c-.032-.222-.148-.327-.363-.327h-.461v.749c0 .231.098.314.358.314h.152c.323 0 .466-.232.551-.474h.076l-.049.618H3.999v-.074c.291-.06.331-.147.331-.408V1.174c0-.222-.053-.3-.331-.353V.747h1.967v.566h-.077C5.805.987 5.706.892 5.415.892h-.506v1.053h.461c.21 0 .309-.087.363-.318h.085zM.43.547C.43.271.366.165 0 .097V0h1.611c.939 0 1.315.366 1.315.827 0 .337-.197.647-.683.782v.011c.376.084.741 1.135 1.048 1.434a.494.494 0 0 0 .307.141v.094h-.979c-.371-.427-.614-1.163-.875-1.417-.15-.146-.266-.152-.567-.152v1.013c0 .293.122.417.434.462v.094H.002v-.093c.277-.023.428-.158.428-.421zm.747.99c.642.044.938-.153.938-.698 0-.422-.243-.652-.706-.652h-.232z" fill="#658d1b" mask="url(#a)" transform="translate(12.065 17.302)"/></g></svg>