<svg width="36" height="36" fill="none" xmlns="http://www.w3.org/2000/svg"><path d="M18 0c2.837 0 5.52.656 7.907 1.825C31.884 4.753 36 10.895 36 18c0 9.942-8.058 18-18 18-9.94 0-18-8.057-18-18C0 8.06 8.06 0 18 0z" fill="#F2F4F7"/><path d="M20.798 5.812c2.265 1.471 3.04 3.837 3.39 5.926.354 2.106-.067 3.618-.448 4.379-.349.696-.642 1.53-1.947 2.476-.186.135-.288-.079-.382-.196-.399-.498-.928-1.505-.804-1.589.054-.036 1.285.19 1.336.109.051-.082-.982-.366-1.243-1.16-.127-.383-.354-.83-.265-1.43.061-.404.178-.783.265-1.196-.036.17.15-.687.236-1.287.03-.2.063-.544.027-.787-.078-.517-.027-1.08-.673-2.081-.075-.116.004-.17.099-.242.533-.405.725-.745 1.001-1.303.062-.106.063-.174-.005-.103-.085.05-.15.105-.238.157-.353.21-.918.45-1.502.407-1.216-.09-2.223-1.483-3.676-.84a1.35 1.35 0 0 0-.448.329c-.055.066-.086.19-.159.236-.094.059-.257.043-.369.079a1.418 1.418 0 0 0-.79.643c-.185.337-.114.765 0 1.103.078.232.177.38.29.565.091.149.143.259.303.341.101-.138.15-.314.238-.473.222-.406.74-.569 1.198-.249.1.07.07.12.036.15-.03.025-.236.09-.378.165-.198.103-.398.28-.554.434-.262.256-.966.826-1.304.209-.087-.157-.034-.503-.094-.498-.098.008-.171.16-.196.314-.04.245.09.485.198.631.122.166.238.225.487.276.368.072.77-.02 1.002-.171.284-.188.647-.97 1.054-.828-.17.168-.405.273-.514.499-.223.463.146.839.61.78.192-.025.279-.127.118-.203-.167-.079-.246-.18-.109-.393.026-.04.055-.093.105-.105.359-.084.707.34.778.565.15.476.027.964-.08 1.405-.133.555-.431 1.083-.837 1.369-.145.1-.898.633-2.013.026-.185-.1.212.73.65 1.135.11.1.263.158.435.28.07.049-.068.215-.105.275-.272.434-.593.903-.738 1.458-.084.316-.18.993-.21.985-.896-.243-1.866-1.624-2.202-2.258-1.2-2.27-1.74-5.612 1.213-8.994a8.995 8.995 0 0 1 1.845-1.55c.306-.184 1.252-.6.572-.49-5.112.82-7.896 4.62-7.517 9.707.028.375.194 1.396.395 2.036.063.203.629 1.506.516 1.43-.882-.591-2.382-2.526-2.057-5.895.044-.453.496-1.628.237-1.287.062-.082-.224.216-.316.329-1.128 1.365-2.089 4.445-.14 7.907.48.854.828 1.565 1.918 2.689.119.122.834.784 1.388 1.028.167.074.172.186.079.198-.385.05-2.13-.158-3.72-1.515-.242-.207-.446-.408-.487-.42-.04-.013.02.287.079.433.597 1.515 2.058 3.864 4.96 4.055.56.036 1.363.023 1.852-.036.276-.037.896-.217.872-.129-.024.089-.323.308-.53.443-.592.389-1.575.979-2.7.826-.344-.046-.688-.115-.95-.26-.128-.073.28.39.554.604 1.889 1.467 3.858 1.356 4.81.944.275-.12.751-.486.843-.497.092-.012.333.65.488.983.264.567.62 1.127.988 1.601.085.109.596.763.725.736.076-.018.3-.345.356-.421a6.611 6.611 0 0 0 1.08-2.324c.096-.395.178-1.148.239-1.134.06.013.17.086.277.133.248.112.58.333 1.04.477 1.026.317 2.44.206 3.32-.146.499-.2.96-.425 1.342-.74.132-.108.582-.433.37-.382-1.066.256-1.88-.235-2.414-.731-.065-.061-.36-.43-.119-.395.526.08 1.32-.046 1.862-.22.52-.166.968-.321 1.384-.59 1.177-.765 2.162-2.201 2.582-3.73.107-.392.3-1.196.302-1.316.004-.271-.146.395-.658 1.027-.769.952-1.7 1.52-2.925 1.879-.841.244-.843.19-.803.134.04-.056.5-.287.764-.437 2.471-1.4 5.617-6.119 2.236-11.25-.176-.268-.642-.77-.558-.617-.078-.142.128.433.254.896.544 2.011.683 4.854-1.815 7.223-.087.083.146-.336.225-.506.33-.71.611-1.804.703-2.502.092-.697.29-4.342-1.546-6.61-.417-.515-2.614-3.416-6.02-3.707-.826-.07.026.146 1.032.8zm-3.88 3.026c-.12.057-.273.086-.356-.026.099-.124.279-.272.237-.526-.026-.154-.153-.266-.264-.341.014-.034.036-.067.04-.079.682 0 .903.703.342.972z" fill="#EE2722"/><path d="M16.255 25.08c.397 0 1.034-.005 1.423-.005-.055-.187-.376-.174-.376-.345v-1.946c.07 0 .103-.002.131-.002l.4.002c.79.024 1.444 1.268 1.98 1.888.12.14.324.294.512.363.279.104.716.07.97-.026.065-.024.105-.052.132-.143-.146 0-.54-.009-.806-.315-.138-.158-.159-.189-.322-.385-.431-.518-.936-1.222-1.636-1.527 0 0 .675-.1 1.03-.431.387-.363.516-1.138.149-1.636a1.074 1.074 0 0 0-.292-.27 1.865 1.865 0 0 0-.465-.202c-.793-.259-2.798-.14-2.798-.14 0 .2.36.27.36.444 0 .162.006 1.417.002 1.98v.013c-.15.016-.316.047-.501.097l-.216.453c.211-.081.45-.135.712-.165l-.002.107-.002 1.833c0 .17-.32.157-.375.345" fill="#fff"/><path d="m17.302 22.37-.002-1.995c.16-.014 1.262-.03 1.614.193.273.172.433.495.433.712 0 .857-.625 1.086-1.39 1.086-.24 0-.435.003-.655.003z" fill="#EE2722"/></svg>