<svg height="36" viewBox="0 0 36 36" width="36" xmlns="http://www.w3.org/2000/svg"><g fill="none"><path d="M18 0c2.837 0 5.52.656 7.907 1.825C31.884 4.753 36 10.895 36 18c0 9.942-8.058 18-18 18-9.94 0-18-8.057-18-18C0 8.06 8.06 0 18 0z" fill="#f2f4f7"/><path d="M30.46 21.434c0 .545.319.824.708.824.388 0 .706-.28.706-.824 0-.53-.318-.809-.706-.809-.39 0-.709.28-.709.81zm1.707.782h.333v.279h-.626v-.307c-.124.195-.401.349-.734.349-.597 0-.986-.475-.986-1.103 0-.627.389-1.102.986-1.102.318 0 .583.14.722.35v-.866h-.334v-.279h.639zm-2.986 0h.334v.279h-.986v-.28h.333v-1.562h-.333v-.265h.625v.293c.125-.223.43-.432.847-.293v.307c-.5-.14-.82.126-.82.614z" fill="#123f75"/><path d="M20.242 15.017c-.555.21-.93.572-.93.572a1.748 1.748 0 0 0-.111-.502s.181-.349.708-.712c.57-.39 1.222-.502 1.222-.502.139.293.236.6.277.92 0 0-.472-.04-1.166.224zm-.402-1.156c-.54.53-.735 1.06-.735 1.06a1.25 1.25 0 0 0-.389-.418s.208-.628.528-1.088c.318-.475.846-.851.846-.851.264.195.486.432.68.683 0 0-.527.237-.93.614zm-.944-.657c-.25.627-.305 1.227-.305 1.227a1.591 1.591 0 0 0-.555-.167s-.013-.6.126-1.228c.151-.725.318-1.157.318-1.157.32.027.626.125.916.25 0 0-.333.642-.5 1.075z" fill="#76a0cd"/><path d="M19.783 17.14c-.68-.321-1.36-.252-1.36-.252.25-.097.459-.25.61-.446 0 0 .598-.07 1.056.014.708.153 1.013.39 1.013.39-.139.293-.32.572-.541.81 0 0-.278-.28-.778-.517zm.516-1.02a3.148 3.148 0 0 0-1.152.153c.083-.154.138-.335.153-.516 0 0 .555-.307 1.054-.377.694-.098 1.097.042 1.097.042a3.66 3.66 0 0 1-.153.948s-.444-.223-1-.25z" fill="#123f75"/><path d="M15.69 15.017c.554.21.93.572.93.572.012-.181.055-.363.11-.502 0 0-.181-.349-.708-.712a3.47 3.47 0 0 0-1.221-.502c-.14.293-.236.6-.278.92 0 0 .472-.04 1.166.224zm.401-1.156c.541.53.735 1.06.735 1.06a1.25 1.25 0 0 1 .389-.418s-.207-.628-.528-1.088c-.318-.475-.846-.851-.846-.851a3.513 3.513 0 0 0-.68.683s.528.237.93.614zm.944-.657c.25.627.305 1.227.305 1.227a1.61 1.61 0 0 1 .555-.167s.013-.6-.125-1.228c-.152-.725-.319-1.157-.319-1.157a2.96 2.96 0 0 0-.916.25s.333.642.5 1.075z" fill="#76a0cd"/><path d="M16.148 17.14c.68-.322 1.36-.252 1.36-.252a1.419 1.419 0 0 1-.61-.446s-.598-.07-1.055.014c-.708.153-1.014.39-1.014.39.14.293.32.572.542.81 0 0 .277-.28.777-.517zm-.516-1.02a3.148 3.148 0 0 1 1.153.153 1.328 1.328 0 0 1-.154-.516s-.554-.307-1.054-.377c-.694-.098-1.097.042-1.097.042.014.32.056.642.153.948 0 0 .444-.223 1-.25z" fill="#123f75"/><path d="M17.964 17.67c.987 0 1.418.85 1.418.85.305-.14.583-.307.846-.53 0 0-.833-1.046-2.264-1.046-1.416 0-2.248 1.046-2.248 1.046.25.223.542.39.847.53 0 0 .43-.85 1.401-.85zm-13.77 2.175v1.256h.514c.555 0 .805-.224.805-.628 0-.405-.236-.628-.805-.628zm0 2.358h.361v.293H3.5v-.293h.36V19.83H3.5v-.279h1.208c.666 0 1.124.293 1.124.92s-.458.921-1.124.921h-.514zm3.582-.88a.68.68 0 0 0-.694-.697.68.68 0 0 0-.695.697zm.25.572c-.098.363-.43.642-.944.642-.625 0-1.014-.39-1.014-1.102 0-.67.403-1.102 1.014-1.102.666 0 1.082.516 1 1.27H6.386c.028.32.25.655.695.655.291 0 .5-.126.61-.363zm1.138.321h.333v.279h-.985v-.28h.333v-1.562h-.333v-.265h.624v.293c.125-.223.43-.432.847-.293v.307c-.5-.14-.82.126-.82.614zm3.261 0h.333v.279h-.972v-.28h.334v-.892c0-.488-.292-.697-.625-.697-.32 0-.597.223-.597.725v.865h.333v.279h-.972v-.28h.334v-1.562h-.334v-.265h.625v.293a.808.808 0 0 1 .68-.335c.459 0 .861.266.861.977zm1.641.042c.416 0 .708-.293.708-.823s-.292-.81-.708-.81c-.403 0-.708.28-.708.81s.305.823.708.823zm0-1.925c.652 0 1.027.474 1.027 1.102 0 .641-.375 1.102-1.027 1.102-.639 0-1.014-.46-1.014-1.102 0-.628.375-1.102 1.014-1.102zm1.705 1.101c0 .545.32.824.708.824.39 0 .707-.28.707-.824 0-.53-.318-.809-.707-.809-.388 0-.708.28-.708.81zm1.708.782h.333v.279h-.626v-.307c-.124.195-.401.349-.734.349-.597 0-.986-.475-.986-1.103 0-.627.389-1.102.986-1.102.318 0 .583.14.721.35v-.866h-.333v-.279h.639zm2.429-2.371v1.088h.68c.443 0 .625-.21.625-.544 0-.32-.182-.544-.626-.544zm-.694-.307h1.373c.555 0 .959.307.959.851 0 .475-.293.754-.722.837l.472.977h.389v.293h-.611l-.61-1.256h-.556v.963h.318v.293h-1.012v-.293h.36V19.83h-.36zm3.15.404h.348v-.405h-.348zm.348 2.273h.333v.28h-.986v-.28h.333v-1.562h-.333v-.265h.653zm2.653-.488c-.111.475-.431.81-1.014.81-.639 0-1.014-.46-1.014-1.103 0-.627.375-1.102 1.014-1.102.305 0 .583.154.709.35v-.294h.29v.768h-.333c-.096-.293-.292-.53-.666-.53-.404 0-.709.278-.709.808s.305.824.709.824c.36 0 .598-.224.694-.53zm.695-.293c0 .545.304.824.693.824.389 0 .707-.28.707-.824 0-.53-.318-.809-.707-.809-.389 0-.694.28-.694.81zm1.387-1.046h.639v.265h-.334v1.563h.334v.279h-.639v-.307c-.126.209-.403.349-.722.349-.597 0-.986-.475-.986-1.103 0-.627.389-1.102.986-1.102.319 0 .596.14.722.35z" fill="#123f75"/></g></svg>