<svg width="36" height="36" fill="none" xmlns="http://www.w3.org/2000/svg"><path d="M18 0c2.837 0 5.52.656 7.907 1.825C31.884 4.753 36 10.895 36 18c0 9.942-8.058 18-18 18-9.94 0-18-8.057-18-18C0 8.06 8.06 0 18 0z" fill="#F2F4F7"/><path d="M6 7c4.449 3.216 7.606 6.581 9.001 11.028l.673-3.994h1.65l-.303 1.452c.375-.622 1.16-1.384 1.878-1.524.136-.026.404-.027.481-.019l-.292 1.83c-.71-.107-2.13.474-2.332 1.626l-.5 2.984h-.7c.016.096.033.192.047.29.346 2.373.258 5.045-.323 8.123l7.468-8.36-.018.003c-1.684.337-3.34-.889-3.34-.889l.455-2.714v.001l1.094-6.527L6 7zm16.53 3.662-.71 4.24c.65-.704 1.36-.988 2.08-.988 1.04 0 1.919.692 1.907 2.125a5.452 5.452 0 0 1-.139 1.127L30 12.317l-7.47-1.655zm.626 4.606c-.636-.038-1.306.609-1.584 1.264-.316.748-.424 2.24-.424 2.24s.527.348 1.222.36c.84.014 1.401-.704 1.639-1.433.372-1.146.123-2.09-.584-2.372a.859.859 0 0 0-.27-.06z" fill="#E72887"/></svg>