<svg width="36" height="36" fill="none" xmlns="http://www.w3.org/2000/svg"><path d="M18 0c2.837 0 5.52.656 7.907 1.825C31.884 4.753 36 10.895 36 18c0 9.942-8.058 18-18 18-9.94 0-18-8.057-18-18C0 8.06 8.06 0 18 0z" fill="#F2F4F7"/><g fill="#1D57CC"><path d="M8.394 15.072a2.677 2.677 0 0 0-.705-.07H5.253l-.231 1.018h2.314c.299 0 .814.038.814.63 0 .313-.163.61-.368.743-.17.117-.453.14-.641.14H4.679l-.679 3h1.37l.446-1.977h.973l.728 1.974H9.02l-.901-2.183c.455-.156.8-.28 1.066-.658.222-.316.338-.694.33-1.08 0-.966-.596-1.405-1.121-1.538z"/><path d="M11.488 20.53a.723.723 0 0 1-.038-.179c0-.047.063-.306.07-.384a.95.95 0 0 1-.359.408 1.7 1.7 0 0 1-.972.272c-1.19 0-1.221-.993-1.221-1.135 0-.266.082-.527.233-.746.476-.673 1.355-.721 2.734-.798.042-.138.069-.28.078-.425 0-.383-.399-.414-.56-.414-.547 0-.656.36-.72.572l-1.206-.04c.109-.344.21-.658.58-.934.438-.326 1.018-.365 1.48-.365.32 0 1.614 0 1.614 1.11a2.41 2.41 0 0 1-.078.573l-.467 2.12a.77.77 0 0 0-.032.197.719.719 0 0 0 .032.171l-1.168-.002zm-1.167-1.48a.438.438 0 0 0-.14.322c0 .406.385.415.503.415.2 0 .397-.06.563-.172.345-.243.439-.603.51-.894-.432.008-1.108.016-1.436.33zm4.636-1.98c.203-.26.54-.69 1.26-.69.744 0 .964.469 1.042.642.187-.235.524-.642 1.229-.642.439 0 1.168.243 1.168 1.073 0 .244-.064.518-.118.774l-.51 2.304h-1.212l.518-2.264a3.8 3.8 0 0 0 .095-.517c0-.218-.14-.438-.47-.438a.781.781 0 0 0-.573.28c-.133.157-.197.406-.243.61l-.548 2.328H15.38l.548-2.393a1.94 1.94 0 0 0 .07-.407c0-.346-.29-.42-.462-.42a.808.808 0 0 0-.596.313 1.65 1.65 0 0 0-.219.486l-.564 2.428h-1.22l.923-4.034h1.223l-.127.567zm6.816-2.069-.409 1.77c.338-.21.62-.391 1.074-.391 1.153 0 1.426 1.066 1.426 1.707 0 1.08-.776 2.56-2.123 2.56a1.61 1.61 0 0 1-.775-.187.83.83 0 0 1-.36-.376l-.111.447h-1.19l1.238-5.527 1.23-.003zm-.878 3.909c0 .602.416.798.682.798.65 0 1.058-.885 1.058-1.652 0-.766-.62-.783-.691-.775-.704.039-1.05 1.081-1.05 1.629zm7.301-2.413-.91 4.034H26.08l.118-.532c-.205.22-.533.56-1.167.56-.587 0-1.12-.36-1.12-.988.01-.173.032-.345.07-.514l.572-2.562h1.214l-.531 2.373c-.02.088-.03.177-.033.266 0 .21.063.486.455.486.12.002.24-.028.345-.087.306-.172.392-.439.494-.84l.49-2.2 1.209.004zm.571 2.593c.039.082.086.16.14.234.195.244.56.36.884.36.134 0 .668-.03.668-.35 0-.22-.253-.306-.41-.35-.35-.11-.806-.252-1.034-.36-.65-.306-.696-.832-.696-.988 0-.515.453-1.277 1.794-1.277.454 0 .93.088 1.308.337.249.16.45.384.579.65l-.91.446c-.179-.252-.382-.54-.994-.54-.39 0-.516.165-.516.314 0 .188.196.268.524.35.91.259 1.621.515 1.621 1.306 0 .721-.704 1.434-2.013 1.434-1.323 0-1.77-.744-1.967-1.064l1.022-.502z"/></g></svg>