<svg height="36" viewBox="0 0 36 36" width="36" xmlns="http://www.w3.org/2000/svg"><mask id="a" fill="#fff"><path d="M0 0h1.588v1.588H0z" fill-rule="evenodd"/></mask><mask id="b" fill="#fff"><path d="M0 0h1.042v1.042H0z" fill-rule="evenodd"/></mask><mask id="c" fill="#fff"><path d="M0 0h3.298v3.34H0z" fill-rule="evenodd"/></mask><g fill="none" fill-rule="evenodd"><path d="M18 0c2.837 0 5.52.656 7.907 1.825C31.884 4.753 36 10.895 36 18c0 9.942-8.058 18-18 18-9.94 0-18-8.057-18-18C0 8.06 8.06 0 18 0z" fill="#f2f4f7" fill-rule="nonzero"/><path d="M1.587.756a.794.794 0 1 0 .001.051v-.03z" fill="#e30621" mask="url(#a)" transform="translate(28.412 15.229)"/><path d="M28.638 17.437a.714.714 0 1 0-1.43.069.714.714 0 0 0 1.43-.07" fill="#dc0d29"/><path d="M27.14 18.508a.642.642 0 1 0-1.284.06.642.642 0 0 0 1.284-.06" fill="#d41130"/><path d="M25.55 19.116a.58.58 0 1 0-1.158.056.58.58 0 0 0 1.157-.056" fill="#cd1537"/><path d="M23.975 19.218a.52.52 0 1 0-1.039.048.52.52 0 0 0 1.04-.048" fill="#c5193d"/><path d="M22.577 18.803a.47.47 0 1 0-.936.044.47.47 0 0 0 .936-.044" fill="#be1b43"/><path d="M21.447 18.062a.422.422 0 1 0-.842.04.422.422 0 0 0 .842-.04" fill="#b61d49"/><path d="M20.564 17.172a.38.38 0 1 0-.758.037.38.38 0 0 0 .758-.037" fill="#ae1e54"/><path d="M19.865 16.236a.341.341 0 1 0-.682.032.341.341 0 0 0 .682-.032" fill="#a61f5e"/><path d="M19.315 15.297a.308.308 0 1 0-.615.03.308.308 0 0 0 .615-.03" fill="#9d2068"/><path d="M18.891 14.382a.28.28 0 1 0-.56 0 .28.28 0 0 0 .56 0" fill="#952071"/><path d="M6 14.524a.89.89 0 1 0 1.782.003A.89.89 0 0 0 6 14.524" fill="#0090d6"/><path d="M7.223 12.778a.793.793 0 1 0 1.587-.076.794.794 0 0 0-1.587.076" fill="#0085cd"/><path d="M8.585 11.326a.715.715 0 1 0 1.428-.07.715.715 0 0 0-1.428.07" fill="#007ac3"/><path d="M10.082 10.255a.642.642 0 1 0 1.284-.06.642.642 0 0 0-1.284.06" fill="#006fb9"/><path d="M11.673 9.647a.579.579 0 1 0 1.157-.055.579.579 0 0 0-1.157.055" fill="#0065af"/><path d="M0 .545A.52.52 0 1 0 .53 0H.497A.52.52 0 0 0 0 .546" fill="#2759a5" mask="url(#b)" transform="translate(13.247 9)"/><path d="M14.646 9.96a.469.469 0 1 0 .936-.045.469.469 0 0 0-.936.045" fill="#444c9b"/><path d="M15.775 10.7a.422.422 0 1 0 .843-.04.422.422 0 0 0-.843.04" fill="#573d90"/><path d="M16.659 11.59a.38.38 0 1 0 .757-.035.38.38 0 0 0-.757.036" fill="#652d87"/><path d="M17.357 12.527a.342.342 0 1 0 .683-.033.342.342 0 0 0-.683.033" fill="#702382"/><path d="M17.908 13.466a.308.308 0 1 0 .614-.03.308.308 0 0 0-.614.03" fill="#82227a"/><g fill="#3c3c3b"><path d="M10.1 24.01a1.2 1.2 0 0 1-.286.34c-.14.104-.285.17-.62.284l.7 1.702H8.726l-.564-1.537h-.748l-.351 1.537H6l.971-4.288h1.89c.091 0 .176 0 .267.006.122.012.401.036.68.23.188.135.474.42.474 1.009 0 .128-.018.424-.182.717m-.972-.99c-.11-.14-.237-.19-.54-.19h-.723l-.268 1.174h.9c.024 0 .134-.006.23-.025a.566.566 0 0 0 .4-.304.717.717 0 0 0 .093-.359c0-.047 0-.182-.092-.296"/><path d="M2.587 1.112C2.497.985 2.472.948 2.41.893c-.152-.14-.388-.2-.59-.2-.26 0-.399.11-.399.243 0 .17.218.225.491.303.134.036.262.072.39.122.315.115.624.268.734.59a.845.845 0 0 1 .042.278c0 .37-.242.625-.328.705-.2.189-.588.407-1.226.407-.226 0-.868-.012-1.33-.547A1.406 1.406 0 0 1 0 2.51l.783-.388c.055.096.086.144.115.181.092.11.31.287.694.287.048 0 .17-.007.303-.05a.299.299 0 0 0 .17-.116.203.203 0 0 0 .037-.115.185.185 0 0 0-.037-.109c-.073-.104-.207-.14-.425-.207-.62-.194-.887-.285-1.075-.588A.838.838 0 0 1 .443.99c0-.09.019-.26.14-.45C.753.274 1.13 0 1.834 0c.723 0 1.081.267 1.289.504.054.067.096.123.175.261z" mask="url(#c)" transform="translate(13.32 23.092)"/><path d="M21.144 26.336h-.996l.765-3.317-1.603 3.317h-.899l-.122-3.366-.734 3.366h-1.003l.96-4.289h1.585l.073 2.812 1.331-2.812h1.608zm6.881 0h-.936l.043-.219c-.05.036-.097.067-.146.103-.116.073-.341.2-.693.2a.999.999 0 0 1-.674-.236c-.2-.164-.443-.468-.443-1.08 0-.208.036-.73.352-1.228.425-.668 1.015-.772 1.312-.772.11 0 .419.012.68.208a.932.932 0 0 1 .2.218l.335-1.482h.941zm-.566-2.138a.506.506 0 0 0-.516-.358.62.62 0 0 0-.328.114c-.346.231-.498.735-.498 1.13 0 .213.049.334.104.42.097.152.236.207.412.207.152 0 .406-.05.615-.359.156-.237.248-.62.248-.893a.763.763 0 0 0-.037-.261zm-14.096.741c.012-.133.025-.273.025-.413 0-.067 0-.28-.06-.487a1.234 1.234 0 0 0-.232-.449c-.377-.468-.953-.49-1.147-.49-.159 0-.566.016-.936.249-.395.247-.686.69-.796 1.146-.048.195-.048.353-.048.426 0 .606.291 1.153.85 1.385.278.115.565.12.674.12.772 0 1.154-.359 1.343-.6a3.71 3.71 0 0 0 .152-.226l-.727-.36c-.05.077-.095.155-.155.22a.82.82 0 0 1-.589.244c-.067 0-.2 0-.352-.085-.334-.182-.285-.596-.28-.68zm-1.871-1.01c.074-.06.213-.175.462-.175.352 0 .516.231.565.358.03.092.03.219.03.238h-1.342c.115-.25.176-.322.285-.42zm1.697 1.671zm11.773-.661c.012-.133.024-.273.024-.413 0-.067 0-.28-.06-.487a1.221 1.221 0 0 0-.231-.449c-.376-.468-.953-.49-1.147-.49-.159 0-.566.016-.936.249-.395.247-.686.69-.795 1.146-.05.195-.05.353-.05.426 0 .606.292 1.153.85 1.385.28.115.566.12.675.12.772 0 1.154-.359 1.342-.6a3.32 3.32 0 0 0 .154-.226l-.73-.36c-.047.077-.093.155-.153.22a.819.819 0 0 1-.588.244c-.067 0-.201 0-.353-.085-.334-.182-.285-.596-.28-.68zm-1.87-1.01a.678.678 0 0 1 .461-.175c.352 0 .516.231.565.358.03.092.03.219.03.238h-1.341c.114-.25.175-.322.284-.42zm1.696 1.671z"/></g></g></svg>