<svg height="36" viewBox="0 0 36 36" width="36" xmlns="http://www.w3.org/2000/svg"><g fill="none" fill-rule="evenodd"><path d="M18 0c2.837 0 5.52.656 7.907 1.825C31.884 4.753 36 10.895 36 18c0 9.942-8.058 18-18 18-9.94 0-18-8.057-18-18C0 8.06 8.06 0 18 0z" fill="#f2f4f7" fill-rule="nonzero"/><path d="M13.247 27.696h9.519V9h-9.519z" fill="#fff"/><path d="M13.247 27.696h9.52V9h-9.52z" stroke="#1a3b73" stroke-width=".193"/><path d="M14.68 13.59c0-.119.096-.216.214-.216s.214.097.214.216c0 .12-.096.216-.214.216a.215.215 0 0 1-.214-.216zm-.14-.518a.214.214 0 1 1 .427 0c0 .12-.096.217-.214.217a.215.215 0 0 1-.214-.217zm-.029-.54a.214.214 0 1 1 .427 0 .214.214 0 1 1-.427 0zm.126-.527c0-.12.096-.216.214-.216s.214.096.214.216-.096.216-.214.216-.214-.097-.214-.216zm.347-.427c0-.119.095-.217.213-.217s.214.098.214.217-.096.216-.214.216a.214.214 0 0 1-.213-.216zm.494-.214c0-.119.096-.216.214-.216s.214.097.214.216c0 .12-.096.217-.214.217a.216.216 0 0 1-.214-.216zm.541.02c0-.12.096-.217.214-.217s.214.097.214.216c0 .12-.096.216-.214.216s-.214-.097-.214-.216zm.514.185c0-.12.096-.217.214-.217s.213.097.213.217a.214.214 0 1 1-.427 0zm.5.217c0-.119.095-.216.213-.216.12 0 .214.097.214.216s-.095.216-.214.216a.214.214 0 0 1-.213-.216zm3.863 1.804c0-.119.096-.216.214-.216s.214.097.214.216c0 .12-.096.216-.214.216s-.214-.096-.214-.216zm.141-.518a.214.214 0 1 1 .428 0c0 .12-.096.217-.214.217s-.214-.097-.214-.217zm.03-.54a.214.214 0 1 1 .426 0 .215.215 0 0 1-.214.216.214.214 0 0 1-.213-.216zm-.128-.527c0-.12.096-.216.214-.216s.214.096.214.216-.096.216-.214.216-.214-.097-.214-.216zm-.346-.427c0-.119.095-.217.213-.217.12 0 .214.098.214.217s-.095.216-.214.216a.214.214 0 0 1-.213-.216zm-.496-.214c0-.119.097-.216.215-.216s.214.097.214.216c0 .12-.096.217-.214.217s-.215-.097-.215-.217zm-.54.02c0-.12.095-.217.214-.217.118 0 .214.097.214.216 0 .12-.096.216-.214.216a.213.213 0 0 1-.214-.215zm-.513.185c0-.12.095-.217.213-.217a.216.216 0 0 1 0 .432.214.214 0 0 1-.213-.215zm-.5.217a.214.214 0 1 1 .428 0 .214.214 0 1 1-.428 0zm-2.969 2.78c-.057.018-.128-.045-.16-.143-.033-.096-.013-.19.043-.209.057-.02.13.043.161.14.033.097.013.191-.044.211zm4.853 0c.056.018.128-.045.161-.143.032-.096.012-.19-.044-.209-.057-.02-.129.043-.16.14-.034.097-.014.191.043.211zm-2.587-.472a.16.16 0 1 1 .321 0c0 .09-.072.163-.16.163s-.16-.073-.16-.163zm.014-.823c0-.08.065-.147.146-.148a.147.147 0 0 1 0 .295.147.147 0 0 1-.146-.147zm0-.37a.146.146 0 1 1 .293 0 .147.147 0 0 1-.147.147.147.147 0 0 1-.146-.147zm0-.37c0-.08.066-.147.146-.147a.147.147 0 0 1 .001.294.146.146 0 0 1-.147-.147zm0-.37c0-.08.066-.147.146-.147a.147.147 0 0 1 0 .295.148.148 0 0 1-.146-.148zm.05-1.176a.485.485 0 0 0-.377.38h.376zm.57.38a.49.49 0 0 0-.38-.382v.381zm-.947.196c.045.223.24.391.473.391.235 0 .43-.168.474-.39zm.24-.64h.471a.428.428 0 0 1-.056-.05c-.082-.083-.068-.177-.035-.21s.127.005.208.087a.422.422 0 0 1 .053.063v-.586a.472.472 0 0 1-.05.06c-.08.082-.175.121-.208.088-.034-.034.005-.129.087-.21a.47.47 0 0 1 .06-.054h-.576a.51.51 0 0 1 .057.05c.082.082.12.177.087.211-.034.033-.127-.006-.208-.089a.445.445 0 0 1-.054-.06v.582a.543.543 0 0 1 .051-.058c.081-.082.174-.12.208-.088.034.034.047.128-.035.211a.515.515 0 0 1-.06.053z" fill="#1a3b73"/><path d="M19.723 13.77a.548.548 0 0 0-.167.15c.027-.05.05-.1.07-.15zm-.508 0c.007.041.015.084.025.131a.502.502 0 0 0-.088-.13zm-.337 0c-.048.103-.04.283.008.423.05-.08.113-.113.182-.1.075.02.113.076.118.161l.323.025c.026-.098.064-.124.112-.134.048-.01.1 0 .144.104.23-.188.166-.436.103-.479h.545c.064.19.1.322.044.354-.103.06-.183-.132-.2-.185-.065.192-.2.64-.2.64.095-.037.22-.118.259-.017.032.086-.063.16-.2.208-.282.1-.584-.09-.643-.285l-.323-.025c-.161.253-.32.352-.55.352s-.472-.22-.454-.417c.02-.226.244-.195.402.075v-.7zm-.363 0-.035.035c-.11.104-.234.153-.28.111-.027-.026-.018-.082.02-.146zm-.73 0c.037.064.047.12.019.146-.045.043-.17-.007-.28-.11a.578.578 0 0 1-.034-.036zm-.933 0a.502.502 0 0 0-.088.131c.01-.047.019-.09.025-.13zm-.474 0c.019.05.042.1.07.15a.56.56 0 0 0-.167-.15zm-.242 0c-.064.043-.128.291.102.48.045-.105.097-.116.145-.105.048.01.086.036.11.134l.325-.025c.005-.085.043-.14.118-.16.069-.014.13.02.183.1.047-.14.055-.32.007-.424h.33v.7c.159-.27.382-.3.403-.075.018.197-.224.417-.454.417s-.39-.098-.55-.352l-.323.025c-.06.195-.361.386-.643.285-.136-.049-.232-.122-.2-.208.038-.1.164-.019.259.017 0 0-.135-.448-.2-.639-.017.052-.096.243-.2.184-.055-.032-.02-.164.045-.354z" fill="#1a3b73"/><path d="M4 24.565h28v-6.939H4zm13.558-8.91h.873v-.323h-.873zm1.29-.161c0-.097.155-.177.347-.177s.348.08.348.177-.156.176-.348.176-.347-.079-.347-.176zm1.054.161v-.323h.396l.137.16-.137.163zm-3.455-.161c0-.097.156-.177.347-.177.192 0 .348.08.348.177s-.156.176-.348.176c-.191 0-.347-.079-.347-.176zm-.36.161v-.323h-.396l-.137.16.137.163zm-.313.683c-.165 0-.299-.127-.299-.284s.134-.284.299-.284h4.441c.165 0 .3.127.3.284s-.135.284-.3.284zm4.524-1.126.041-.404s-.15.162-.411.155-.496-.197-.599-.349c-.021-.035-.051-.037-.073.001-.158.216-.299.374-.684.374s-.529-.243-.577-.313c-.049.07-.193.313-.578.313s-.526-.158-.684-.374c-.023-.038-.051-.036-.072-.001-.103.153-.339.342-.6.349a.564.564 0 0 1-.411-.155l.041.404zm-4.706-1.442.046-.132-.346.105s-.269-.37-.293-1.011c-.039-.953.611-1.112.896-1.116.306-.003.447.077.729.188s.478.278 1.035.341l-.038.277c-.563 0-1.093-.405-1.619-.409-.581-.004-.66.583-.653.763.006.181.017.372.137.626.024-.147.13-.587.286-.664.436-.181.873-.028.873-.028.502-.156.924-.156.924-.156l.002-.577.197-.081v1.568h.469v-1.568l.196.082.002.576s.422 0 .924.157c0 0 .437-.153.874.027.168.077.261.518.285.664.121-.254.131-.445.138-.626.007-.18-.072-.766-.654-.762-.525.003-1.055.408-1.618.408l-.038-.277c.557-.063.752-.23 1.034-.341.283-.111.423-.191.729-.187.286.003.935.162.897 1.115-.026.642-.294 1.011-.294 1.011l-.345-.105.046.133-.545-.001-.006-.003a.146.146 0 0 0-.139.004h-.097c.123-.314.068-.58-.149-.754-.27.25-.325.384-.262.754h-.064c-.046-.047-.104-.084-.17-.081-.047.003-.082.034-.103.081h-.331v-.04a.988.988 0 0 1-.033.04h-.294a.565.565 0 0 1 .097-.121c.028-.025.053-.048.08-.066h-.79a.595.595 0 0 1 .08.066c.042.04.075.082.098.121h-.295l-.033-.04v.04h-.331c-.022-.047-.057-.078-.104-.081-.066-.003-.125.034-.17.081h-.063c.062-.37.007-.504-.262-.754-.218.174-.273.44-.15.754h-.097c-.057-.028-.102-.022-.138-.004a.016.016 0 0 0-.007.004h-.543z" fill="#1a3b73"/><g fill="#fff"><path d="M10.847 22.044a1.212 1.212 0 0 1-.867.362 1.213 1.213 0 0 1-.866-.362 1.236 1.236 0 0 1-.36-.875c0-.684.55-1.238 1.226-1.238a1.235 1.235 0 0 1 1.226 1.238c0 .327-.128.643-.36.875zm.18-1.934a1.464 1.464 0 0 0-1.047-.439c-.816 0-1.481.673-1.481 1.498-.001.396.155.776.434 1.058a1.468 1.468 0 0 0 2.095 0c.28-.284.434-.66.434-1.058 0-.4-.154-.775-.434-1.06zm17.734-.9a.102.102 0 0 1 0-.203.1.1 0 0 1 .1.101.1.1 0 0 1-.1.102zm0-.434a.33.33 0 0 0-.33.332.33.33 0 0 0 .33.333.33.33 0 0 0 .329-.333.33.33 0 0 0-.328-.332z"/><path d="M13.96 19.758v2.614a.973.973 0 0 1-.283.688.952.952 0 0 1-1.361 0 .971.971 0 0 1-.258-.472h-.26c.043.247.16.477.337.654a1.206 1.206 0 0 0 1.724 0c.23-.232.357-.54.357-.87v-2.614zm-3.98 2.29a.877.877 0 0 1-.872-.88.88.88 0 0 1 .872-.88c.233 0 .452.091.616.257s.256.39.256.623c0 .486-.392.88-.872.88zm.797-1.686a1.119 1.119 0 0 0-1.594 0 1.136 1.136 0 0 0-.33.806 1.136 1.136 0 0 0 1.127 1.14c.622 0 1.128-.512 1.128-1.14a1.136 1.136 0 0 0-.33-.806z"/><path d="M12.997 22.426a1.17 1.17 0 0 0 .609-.175v.121a.613.613 0 0 1-.61.615.603.603 0 0 1-.568-.399h-.268a.868.868 0 0 0 .837.658.87.87 0 0 0 .865-.874v-.782c-.05.108-.118.208-.202.293a.929.929 0 0 1-.663.284.949.949 0 0 1-.681-.284.977.977 0 0 1-.282-.688v-1.438h-.256v1.438c-.001.326.128.64.357.871.227.23.538.361.862.36"/><path d="M16.891 21.204a.841.841 0 0 1-.836.845.827.827 0 0 1-.592-.247.851.851 0 0 1 0-1.196.827.827 0 0 1 .592-.247h.836zm-1.609-.78c-.206.209-.32.485-.32.78a1.103 1.103 0 0 0 1.093 1.104 1.1 1.1 0 0 0 1.092-1.104V20.1h-1.092c-.29 0-.569.117-.773.324zm14.332 2.164h.256v-3.743h-.256zm.354 0h.255v-3.743h-.255zm-1.514 0h.256v-2.833h-.256zm.354 0h.256v-2.833h-.256zm-10.819 0h.256v-3.743h-.256zm.355 0h.255v-3.743h-.255zm-5.959-.775a.856.856 0 0 0 .611.256c.47 0 .865-.417.865-.91v-1.4h-.256v1.4c0 .347-.284.65-.609.65a.604.604 0 0 1-.43-.178.614.614 0 0 1-.178-.436v-1.437h-.256v1.437a.87.87 0 0 0 .253.618z"/><path d="M27.334 21.204a.841.841 0 0 1-.836.845.827.827 0 0 1-.592-.247c-.158-.161-.245-.372-.245-.598s.087-.437.245-.598a.827.827 0 0 1 .592-.247h.836zm-1.609-.78c-.206.209-.32.485-.32.78a1.103 1.103 0 0 0 1.093 1.104c.602 0 1.091-.496 1.091-1.104V20.1h-1.091c-.291 0-.569.117-.773.324zm-9.67-.681c-.798 0-1.447.655-1.447 1.46a1.458 1.458 0 0 0 1.447 1.462c.3 0 .592-.095.836-.271v.194h.255v-.906a1.177 1.177 0 0 1-1.092.724 1.177 1.177 0 0 1-.841-.351A1.207 1.207 0 0 1 16.054 20h1.191v2.587h.256v-2.846h-1.446z"/><path d="M7.563 21.252c.142-.06.27-.147.377-.258a1.36 1.36 0 0 0 .388-.937 1.252 1.252 0 0 0-.36-.874 1.164 1.164 0 0 0-.848-.348H5.824v3.747h.255v-3.488H7.12a.92.92 0 0 1 .667.271c.178.182.285.44.285.692 0 .27-.12.56-.313.756a.885.885 0 0 1-.63.267l1.052 1.5h.313zm18.934-1.51c-.797 0-1.446.656-1.446 1.461-.002.387.151.76.424 1.033a1.432 1.432 0 0 0 1.858.158v.193h.256v-.906a1.202 1.202 0 0 1-.25.373 1.175 1.175 0 0 1-.842.352 1.18 1.18 0 0 1-.842-.351 1.205 1.205 0 0 1-.348-.851c0-.664.534-1.203 1.19-1.203h1.19v2.587h.256v-2.846h-1.446z"/><path d="M20.19 22.593h.26l.66-3.748h-.26zm2.351-1.515-1.024-2.233h-.28l1.305 2.85 1.304-2.85h-.282zm1.691-2.233h-.259l.66 3.748h.26zM6.94 20.982h.181c.557 0 .854-.537.854-.925a.901.901 0 0 0-.256-.62.82.82 0 0 0-.598-.244h-.944v3.39h.257V19.45h.687c.167 0 .307.056.417.167a.643.643 0 0 1 .181.44c0 .278-.208.665-.598.665h-.675l1.301 1.858h.314z"/><path d="m22.541 21.93-1.354-2.957-.639 3.62h.26l.489-2.766 1.245 2.718 1.245-2.718.487 2.766h.26l-.638-3.62z"/></g></g></svg>