<svg height="36" viewBox="0 0 36 36" width="36" xmlns="http://www.w3.org/2000/svg"><mask id="a" fill="#fff"><path d="M0 0h3.3v3.549H0z" fill-rule="evenodd"/></mask><mask id="b" fill="#fff"><path d="M.17.06h.66v.88H.17z" fill-rule="evenodd"/></mask><mask id="c" fill="#fff"><path d="M.17 4.882h28V0h-28z" fill-rule="evenodd"/></mask><g fill="none" fill-rule="evenodd"><path d="M18 0c2.837 0 5.52.656 7.907 1.825C31.884 4.753 36 10.895 36 18c0 9.942-8.058 18-18 18-9.94 0-18-8.057-18-18C0 8.06 8.06 0 18 0z" fill="#f2f4f7" fill-rule="nonzero"/><path d="M12.888 18.79a.79.79 0 0 1-.579-.257c-.139-.17-.225-.404-.225-.742 0-.299.136-.47.287-.629.206-.213.73-.264.998-.155.098.038.509.225.583.3v-1.01c-.109-.106-.497-.28-1.169-.284-.505-.07-.932.151-1.266.458-.365.338-.547.796-.547 1.378 0 .586.186 1.041.559 1.367.318.28.711.497 1.184.497.136 0 .264-.01.381-.03.112-.024.769-.218.877-.26v-.937c-.178.128-.8.361-1.083.303" fill="#e20714"/><path d="M1.46 1.479c-.093.008-.194.004-.295.004V.737c.082 0 .19-.008.295.016.15.027.288.109.295.346.008.279-.124.357-.295.38m1.006.427c.17-.07.205-.07.326-.24.108-.16.159-.362.159-.606 0-.365-.132-.637-.392-.816-.225-.151-.633-.217-1.1-.237A9.82 9.82 0 0 0 1.11 0H0v3.51h1.147V2.155a.546.546 0 0 1 .314.066c.264.151.416.57.625 1.328H3.3c-.05-.113-.1-.23-.147-.346-.198-.481-.388-.952-.687-1.297" fill="#e20714" mask="url(#a)" transform="translate(4.17 16.068)"/><path d="M9.028 18.669c-.365 0-.664-.357-.664-.788 0-.435.3-.788.664-.788s.664.353.664.788c0 .43-.299.788-.664.788m0-2.628a1.86 1.86 0 0 0-1.705 1.152 1.948 1.948 0 0 0 0 1.465c.284.676.94 1.153 1.705 1.153 1.018 0 1.85-.847 1.85-1.883 0-1.041-.832-1.887-1.85-1.887m21.861 2.709v-2.683h-1.146v3.51h2.427v-.827zm-3.059-.081c-.366 0-.665-.357-.665-.788 0-.435.3-.788.664-.788s.664.353.664.788c0 .43-.299.788-.664.788m0-2.628c-1.018 0-1.848.846-1.848 1.887 0 1.036.83 1.883 1.848 1.883 1.017 0 1.848-.847 1.848-1.883 0-1.041-.83-1.887-1.848-1.887m-3.856 2.628c-.365 0-.664-.357-.664-.788 0-.435.299-.788.664-.788s.664.353.664.788c0 .43-.3.788-.664.788m0-2.628a1.863 1.863 0 0 0-1.848 1.887c0 .217.035.423.1.617a1.859 1.859 0 0 0 1.748 1.266c1.017 0 1.848-.847 1.848-1.883 0-1.041-.831-1.887-1.848-1.887m-1.537.027h-1.13l-.493 1.739-.427-1.74h-.792l-.435 1.752-.54-1.751h-.854l-.09.112-.038.05.039.133.963 3.215h.916L20 18.07c.117.742.164.777.327 1.507h.962l1.04-3.192z" fill="#e20714"/><path d="m16.557 16.068-1.32 1.49v-1.49h-1.146v3.51h1.146l.011-1.612 1.177 1.612h1.227l-1.2-1.821 1.185-1.527.191-.162z" fill="#e20714"/><g fill="#1d1d1b"><path d="M.25.283V.49h.23v.073H.25v.345H.17v-.7h.318v.074z" mask="url(#b)" transform="translate(4 19.941)"/><path d="M1.605 4.85h.079v-.699h-.08zm1.367-.375c.101 0 .154-.045.154-.13 0-.08-.054-.12-.157-.12h-.046v.25zm.277.375h-.095l-.21-.306h-.02v.306h-.08v-.699h.113c.08 0 .128.011.168.038a.189.189 0 0 1 .078.155c0 .11-.068.183-.176.194zm1.181-.626v.208h.276v.073h-.277v.273h.283v.072h-.361v-.7h.362v.074zm1.718.065c-.036-.057-.066-.076-.121-.076-.065 0-.115.047-.115.108 0 .03.014.056.044.076.017.01.034.02.054.029l.022.01.023.01.022.01c.112.049.158.104.158.19a.215.215 0 0 1-.22.217c-.113 0-.19-.065-.218-.18l.076-.021c.019.084.067.128.14.128.08 0 .143-.06.143-.137a.11.11 0 0 0-.057-.1.387.387 0 0 0-.061-.032l-.021-.01-.021-.01-.021-.01c-.101-.044-.142-.093-.142-.172 0-.101.085-.18.196-.18a.2.2 0 0 1 .18.11zm1.438.011-.12.28h.237zm-.152.353-.084.198h-.085l.322-.733.315.733h-.086l-.083-.198zm1.623-.429v.208h.232v.073h-.232v.345h-.079v-.7h.318v.074zm1.434 0v.208h.276v.073h-.276v.273h.284v.072h-.363v-.7h.363v.074zm3.169.626h.08v-.699h-.08zm1.266-.728.544.57v-.541h.079v.73l-.544-.57v.54h-.08zm2.119.167c-.036-.057-.066-.076-.12-.076-.066 0-.116.047-.116.108 0 .03.015.056.044.076.017.01.035.02.054.029l.023.01.022.01.022.01c.112.049.158.104.158.19a.215.215 0 0 1-.22.217c-.113 0-.19-.065-.218-.18l.076-.021c.02.084.067.128.141.128.08 0 .142-.06.142-.137a.11.11 0 0 0-.057-.1.387.387 0 0 0-.06-.032l-.022-.01-.02-.01-.022-.01c-.1-.044-.142-.093-.142-.172 0-.101.085-.18.197-.18.078 0 .138.038.18.11zm1.313.291c0 .072.005.104.023.134a.18.18 0 0 0 .148.075c.06 0 .12-.03.147-.075.018-.03.023-.062.023-.134v-.429h.08v.45c0 .075-.013.122-.047.165a.258.258 0 0 1-.203.097.255.255 0 0 1-.203-.097c-.034-.043-.047-.089-.047-.165v-.45h.08zm1.685.198h.192v.072h-.271v-.699h.079zm1.58-.478-.12.28h.236zm-.152.353-.084.198h-.085l.322-.733.315.733h-.087l-.082-.198zm1.696.197h-.08v-.626h-.168v-.073h.418v.073h-.17zm1.279 0h.079v-.699h-.08zm1.304-.347c0 .158.128.287.286.287a.287.287 0 0 0 .285-.287.287.287 0 0 0-.285-.29.286.286 0 0 0-.286.29m.65-.001a.364.364 0 0 1-.729 0 .364.364 0 0 1 .728-.001m1.148-.379.544.57v-.541h.08v.73l-.545-.57v.54h-.079z" mask="url(#c)" transform="translate(4 16)"/></g><path d="M27.567.598c.075 0 .113-.034.113-.098 0-.068-.037-.098-.12-.098h-.023v.196zm.262.387h-.118L27.537.73v.255h-.096V.309h.114c.146 0 .223.068.223.193 0 .1-.057.167-.155.184zM27.101.64a.488.488 0 1 0 .977.001A.488.488 0 0 0 27.1.64zm1.07 0a.582.582 0 1 1-1.164.002.582.582 0 0 1 1.164-.002z" fill="#e20714" mask="url(#c)" transform="translate(4 16)"/></g></svg>