<svg height="36" viewBox="0 0 36 36" width="36" xmlns="http://www.w3.org/2000/svg"><g fill="none"><path d="M18 0c2.837 0 5.52.656 7.907 1.825C31.884 4.753 36 10.895 36 18c0 9.942-8.058 18-18 18-9.94 0-18-8.057-18-18C0 8.06 8.06 0 18 0z" fill="#f2f4f7"/><g fill="#6c3c97"><path d="M8.752 16.565c0-.767-.617-1.385-1.371-1.385H6.7v2.757h.68c.754 0 1.371-.618 1.371-1.372m3.095 5.497H9.35L7.367 19.31h-.666v2.746H4.5v-8.247h3.152c1.818 0 3.301 1.235 3.301 2.756 0 .927-.569 1.756-1.434 2.262z"/><path d="M14.328 17.06c-.58 0-1.075.79-1.075 1.768s.494 1.768 1.075 1.768c.595 0 1.089-.79 1.089-1.768s-.494-1.768-1.089-1.768m3.388 1.768c0 1.868-1.52 3.363-3.388 3.363a3.361 3.361 0 0 1-3.375-3.363 3.361 3.361 0 0 1 3.375-3.364c1.868 0 3.388 1.497 3.388 3.364M22.88 15.6l-2.535 2.535v-2.543h-2.2v6.463h2.2v-2.622l2.646 2.622h2.77l-3.364-3.364 2.786-2.784v3.835c0 1.273.766 2.448 2.694 2.448.916 0 1.756-.519 2.164-.989l.99.854h.469V15.6h-2.2v4.179c-.248.432-.593.704-1.127.704-.541 0-.79-.32-.79-1.347V15.6z"/></g></g></svg>