<svg height="36" viewBox="0 0 36 36" width="36" xmlns="http://www.w3.org/2000/svg"><mask id="a" fill="#fff"><path d="M0 0h28v7.508H0z" fill-rule="evenodd"/></mask><g fill="none" fill-rule="evenodd"><path d="M18 0c2.837 0 5.52.656 7.907 1.825C31.884 4.753 36 10.895 36 18c0 9.942-8.058 18-18 18-9.94 0-18-8.057-18-18C0 8.06 8.06 0 18 0z" fill="#f2f4f7" fill-rule="nonzero"/><path d="M4.792 4.952c-.074.125-.256.143-.445.051-.125-.063-.125-.211-.108-.308a.262.262 0 0 1 .063-.142c.045-.058.119-.132.199-.132a.346.346 0 0 1 .325.172c.069.114.035.239-.034.359zm-1.375-.148c-.097.09-.222.08-.365.034-.137-.046-.194-.205-.148-.411.04-.149.217-.171.314-.171.034 0 .068.006.102.022.063.029.171.092.194.183a.332.332 0 0 1-.097.343zM4.917 0 4.57 3.309 3.977.519 2.105.912l.588 2.79L0 4.273l.479 2.225 4.741 1.01 1.084-2.425L6.817.2zm10.492 2.904c.211 0 .383-.171.383-.388s-.166-.388-.383-.388-.388.171-.388.388.166.388.388.388zm-1.466 2.715h.61V2.174h-.61zm10.143.052c.696 0 1.204-.508 1.204-1.244s-.514-1.244-1.204-1.244c-.696 0-1.204.508-1.204 1.244s.508 1.244 1.204 1.244zm-4.353 0c.343 0 .674-.092.953-.275l-.234-.524a1.49 1.49 0 0 1-.713.183c-.32 0-.542-.126-.645-.36h1.723c.017-.092.029-.171.029-.279 0-.742-.513-1.233-1.193-1.233-.69 0-1.192.502-1.192 1.244 0 .764.497 1.244 1.272 1.244zM28 4.427c0-.742-.514-1.244-1.204-1.244-.696 0-1.204.508-1.204 1.244s.514 1.244 1.204 1.244S28 5.169 28 4.427zM12.442 5.665c.343 0 .674-.097.953-.274l-.234-.525a1.49 1.49 0 0 1-.713.183c-.319 0-.542-.125-.644-.36h1.722c.017-.091.029-.171.029-.279 0-.742-.513-1.232-1.192-1.232-.691 0-1.193.502-1.193 1.243-.005.759.497 1.244 1.272 1.244zm2.659-.046h.61v-2.39h-.61zm1.569 0h.981l.639-2.39h-.667l-.462 1.94-.468-1.934h-.656zm2.978-1.825c.313 0 .519.148.587.422H19.06c.074-.28.28-.422.588-.422zm-7.297 0c.314 0 .519.148.588.422h-1.175c.062-.28.274-.422.587-.422zm14.445 1.238c-.354 0-.616-.234-.616-.6 0-.37.262-.598.616-.598.359 0 .616.228.616.598-.005.36-.262.6-.616.6zM8.922 4.427c0-.371.263-.599.617-.599.359 0 .616.228.616.599 0 .365-.257.599-.616.599-.354.006-.617-.234-.617-.599zm15.164.605c-.354 0-.616-.234-.616-.6 0-.37.262-.598.616-.598.36 0 .616.228.616.598 0 .36-.256.6-.616.6zm-1.785-1.187a.57.57 0 0 1 .342.108l.291-.65a.835.835 0 0 0-.445-.12.738.738 0 0 0-.651.36l-.062-.303h-.628l.103.468v1.917h.61V4.102a.466.466 0 0 1 .44-.257zM10.229 5.619h.639l-.109-.496V2.174h-.61V3.52a.957.957 0 0 0-.736-.337c-.61 0-1.084.508-1.084 1.244 0 .742.474 1.244 1.084 1.244a.954.954 0 0 0 .748-.354z" fill="#00ccbc" mask="url(#a)" transform="translate(4 14)"/></g></svg>