<svg width="36" height="36" fill="none" xmlns="http://www.w3.org/2000/svg"><path d="M18 0c2.837 0 5.52.656 7.907 1.825C31.884 4.753 36 10.895 36 18c0 9.942-8.058 18-18 18-9.94 0-18-8.057-18-18C0 8.06 8.06 0 18 0z" fill="#F2F4F7"/><path d="M31.876 13.03c-.31-1.052-1.38-1.927-2.469-2.018L6.757 11a4.242 4.242 0 0 0-.737.127c-1.01.291-1.882 1.318-2.002 2.35L4 21.89l.121.653c.303 1.052 1.368 1.922 2.45 2.019h22.755l.654-.116c1.01-.29 1.88-1.317 2.002-2.35L32 13.682l-.124-.651zm-1.507 9.17a1.076 1.076 0 0 1-.622.779l-.291.09H17.042v-3.891c.701.434 1.784.392 2.438-.127.43-.352.74-.804.829-1.324.115.701.7 1.39 1.38 1.627.658.254 1.494.133 2.044-.291.357-.267.61-.623.755-.997v1.378l.043.025h1.192l.03-.043v-3.015l1.216.012c.085.049.164.11.188.206.012.103 0 .206-.073.279l-1.161.665.018.084 1.058 1.801 1.38.012.03-.024-.931-1.615c.37-.139.792-.519.859-.943.103-.453.03-.95-.279-1.287-.34-.406-.828-.495-1.361-.453H24.5c-.025.459-.013.944-.013 1.408-.212-.616-.834-1.202-1.47-1.347-.92-.243-1.822.09-2.378.87-.157.249-.29.502-.333.798-.109-.64-.678-1.341-1.337-1.596-.588-.253-1.404-.181-1.93.158-.018-.085.037-.2-.048-.249h-1.186l-.03.049v1.596c-.121-.67-.707-1.33-1.35-1.572-.7-.253-1.56-.127-2.123.34a2.41 2.41 0 0 0-.58.694c-.036-.404-.369-.907-.81-1.057l-.478-.09h-2.57l-.03.042v4.255l.042.025h1.192l.03-.043v-3.003l1.174-.012c.097.024.206.103.236.206.03.09.006.2-.06.273l-1.192.695c.357.64.731 1.28 1.13 1.885h1.338l.03-.024c-.309-.538-.606-1.081-.931-1.614.248-.097.472-.265.653-.477 0 .864.611 1.715 1.428 2 .737.279 1.616.097 2.19-.404.363-.332.592-.714.683-1.16v5.282l-9.323-.018c-.394-.085-.75-.46-.829-.853v-8.824c.055-.328.31-.653.623-.78l.279-.091 23.013.018c.393.085.75.459.828.853v8.818zm-13.11-5.386c.17-.29.478-.508.81-.538.394-.018.731.158.956.465.17.29.248.75.048 1.045a1.119 1.119 0 0 1-.725.538c-.43.06-.817-.115-1.065-.477-.205-.284-.168-.736-.024-1.033zm4.296-.012c.158-.308.479-.49.798-.526.382-.024.683.158.931.423h1.204v1.22h-1.222c-.248.291-.58.46-.973.405a1.045 1.045 0 0 1-.738-.496l1.875-.012.024-.042v-.962l-1.899-.01zm-7.054 1.1c-.273.34-.665.508-1.089.405-.382-.073-.707-.459-.774-.822-.06-.447.152-.865.538-1.088.509-.278 1.15-.054 1.41.46.145.332.115.755-.085 1.046z" fill="#0B7AC0"/></svg>