<svg width="36" height="36" fill="none" xmlns="http://www.w3.org/2000/svg"><path d="M18 0c2.837 0 5.52.656 7.907 1.825C31.884 4.753 36 10.895 36 18c0 9.942-8.058 18-18 18-9.94 0-18-8.057-18-18C0 8.06 8.06 0 18 0z" fill="#F2F4F7"/><path fill-rule="evenodd" clip-rule="evenodd" d="M18 30.765a12.766 12.766 0 1 0 0-25.532 12.766 12.766 0 0 0 0 25.532zM18 32a14 14 0 1 0 0-28 14 14 0 0 0 0 28zm0-2.059A11.941 11.941 0 1 0 18 6.06a11.941 11.941 0 0 0 0 23.882zm0 .412a12.352 12.352 0 1 0 0-24.705 12.352 12.352 0 0 0 0 24.705zm0-21.618a.412.412 0 0 0-.412.412v1.647a.412.412 0 0 0 .824 0V9.147A.412.412 0 0 0 18 8.735zm-5.946 2.677a.412.412 0 0 1 0-.824h4.25a.412.412 0 0 1 0 .824h-3.542c.313.099.593.33.725.716l1.812 5.213a1.14 1.14 0 0 1-.807 1.482h6.991a1.125 1.125 0 0 1-.798-1.465l1.803-5.238c.132-.379.412-.61.725-.708h-3.525a.412.412 0 0 1 0-.824h4.25a.412.412 0 1 1 0 .824h-.041a1.1 1.1 0 0 1 .732.708l1.804 5.238a1.125 1.125 0 0 1-.799 1.465h.445a.412.412 0 0 1 0 .824H9.896a.412.412 0 0 1 0-.823h.445a1.14 1.14 0 0 1-.799-1.483l1.812-5.213a1.12 1.12 0 0 1 .725-.716h-.025zm5.534.914a.412.412 0 0 1 .824 0v5.517a.423.423 0 0 1-.033.165h.774c.107-.016.37.05.494.363.14.346.264.378.445.436l.066.017h-4.464c.181 0 .461-.009.618-.38.197-.436.453-.444.576-.444h.741a.411.411 0 0 1-.033-.148v-5.534l-.008.008zm-5.93-.033a.808.808 0 0 1 1.533 0l1.622 4.884h-4.735l1.58-4.884zm12.667-.008a.807.807 0 0 0-1.532 0l-1.598 4.892h4.752l-1.622-4.892zm-14.23 8.186H8.94v3.294h1.153v-1.096h1.812l.782 1.096h1.137l-1.013-1.343c.939-.09 1.07-.625 1.07-.955-.016-.89-.938-.988-1.605-.988h-2.183v-.008zm0 .535v1.112h2.066a.555.555 0 1 0 0-1.112h-2.067zm4.463 1.112c0-.906.74-1.647 1.647-1.647H18a1.647 1.647 0 1 1 0 3.294h-1.795a1.647 1.647 0 0 1-1.647-1.647zm1.136 0c0-.618.502-1.112 1.12-1.112h.577a1.112 1.112 0 0 1 0 2.223h-.577c-.617 0-1.12-.494-1.12-1.111zm10.22-1.647h1.145v3.294h-1.145V20.47zm-6.061 0h1.153l1.63 2.8 1.631-2.8h1.153l-1.919 3.294h-1.73l-1.918-3.294z" fill="#028B57"/></svg>