<svg width="36" height="36" fill="none" xmlns="http://www.w3.org/2000/svg"><path d="M18 0c2.837 0 5.52.656 7.907 1.825C31.884 4.753 36 10.895 36 18c0 9.942-8.058 18-18 18-9.94 0-18-8.057-18-18C0 8.06 8.06 0 18 0z" fill="#F2F4F7"/><path d="M6.913 18.104H5.764l.25-1.122H7.08c.35 0 .556.19.556.463-.003.363-.27.659-.722.659zm1.897-.769c0-.77-.599-1.335-1.64-1.335H5.041L4 20.707h1.185l.36-1.618h.695l.686 1.618h1.182l-.736-1.694c.882-.137 1.438-.84 1.438-1.678m2.081 1.608 1.015-1.735.383 1.735h-1.398zM11.427 16l-2.753 4.704h1.182l.46-.779h2.19l.173.779h1.181L12.825 16h-1.398zm5.809 2.104h-1.052l.246-1.122h.916c.36 0 .582.17.582.463.004.363-.273.66-.692.66zM17.469 16h-2l-1.042 4.704h1.178l.363-1.618h1.321c1.129 0 1.814-.846 1.814-1.738 0-.792-.625-1.348-1.634-1.348m3.861 0h-1.188L19.1 20.707h1.185L21.331 16z" fill="#231F20"/><path d="M29.87 16h-3.736c.057.056.113.116.163.18.42.503.64 1.135.64 1.83a3.601 3.601 0 0 1-1.189 2.694h2.287l1.085-2.68h-1.36l.23-1.039h2.7l-1.419 3.722h.556C31.124 20.714 32 19.648 32 18.35c.003-1.298-.832-2.35-2.13-2.35" fill="#E06538"/><path d="M23.271 19.722h-.652l.606-2.737h.616c.679 0 1.058.506 1.058 1.136 0 .848-.609 1.6-1.628 1.6zm2.377-2.953c-.41-.49-1.078-.766-1.87-.766H22.26l-1.043 4.704h1.911c.743 0 1.315-.163 1.748-.426.886-.533 1.198-1.471 1.198-2.27 0-.496-.156-.916-.426-1.242" fill="#231F20"/></svg>