<svg height="36" viewBox="0 0 36 36" width="36" xmlns="http://www.w3.org/2000/svg"><mask id="a" fill="#fff"><path d="M0 0h2.71v3.607H0z" fill-rule="evenodd"/></mask><mask id="b" fill="#fff"><path d="M0 0h1.124v1.503H0z" fill-rule="evenodd"/></mask><mask id="c" fill="#fff"><path d="M0 .001h.921v.855H0z" fill-rule="evenodd"/></mask><mask id="d" fill="#fff"><path d="M0 .145h.857v.567H0z" fill-rule="evenodd"/></mask><mask id="e" fill="#fff"><path d="M0 .07h.857v.718H0z" fill-rule="evenodd"/></mask><mask id="f" fill="#fff"><path d="M0 0h4.779v3.914H0z" fill-rule="evenodd"/></mask><mask id="g" fill="#fff"><path d="M0 0h4.39v3.612H0z" fill-rule="evenodd"/></mask><g fill="none" fill-rule="evenodd"><path d="M18 0c2.837 0 5.52.656 7.907 1.825C31.884 4.753 36 10.895 36 18c0 9.942-8.058 18-18 18-9.94 0-18-8.057-18-18C0 8.06 8.06 0 18 0z" fill="#f2f4f7" fill-rule="nonzero"/><path d="M12.58 25.69c.059.034.124.018.187.018h1.339c.077.004.089.019.073.093l-.06.28a.398.398 0 0 1-.384.315h-.21c-.307 0-.613 0-.919.002-.062 0-.127-.012-.2.022-.048.229-.1.465-.15.699.05.042.102.026.15.026l1.282.001.203.003c-.032.15-.055.288-.093.421-.046.162-.185.26-.356.27-.032.002-.064.001-.096.001h-2.163c-.038 0-.077.001-.114-.002-.219-.013-.312-.122-.286-.336.01-.081.03-.162.047-.243l.57-2.655c.01-.048.02-.1.043-.145a.386.386 0 0 1 .35-.226h2.546c.05 0 .102-.01.162.016a1.38 1.38 0 0 1-.104.453.364.364 0 0 1-.35.223c-.154.002-.307 0-.46 0h-.766c-.092 0-.097.006-.116.092-.038.174-.077.348-.112.523-.009.048-.033.096-.013.149m10.037-1.437c-.025.121-.045.24-.075.356-.053.207-.187.312-.398.316-.153.004-.306.006-.457.034a.545.545 0 0 0-.45.367 2.734 2.734 0 0 0-.106.385c-.077.348-.151.698-.23 1.045-.017.082-.041.16-.07.238a1.28 1.28 0 0 1-1.187.846c-.326.007-.65.001-.975.001h-.88c-.044 0-.09.009-.14-.02.014-.147.04-.297.096-.436.065-.156.193-.233.361-.238.166-.004.332-.002.498-.002.12 0 .241-.01.361-.031a.55.55 0 0 0 .453-.389c.062-.174.094-.356.134-.536.06-.262.111-.525.168-.784.025-.113.055-.223.1-.33.118-.267.307-.466.56-.608a1.72 1.72 0 0 1 .802-.226c.458-.012.917-.006 1.376-.006.018 0 .035.01.059.018" fill="#1a213e"/><path d="M2.082.02c-.052.315-.13.628-.197.945l-.206.972c-.067.318-.137.636-.206.96.141.026.273.01.406.013.14.003.28.001.421.001h.41a2.087 2.087 0 0 1-.083.42.376.376 0 0 1-.353.274c-.044.003-.089.001-.133.001H.418c-.064 0-.129.002-.191-.007C.07 3.574-.011 3.477 0 3.32c.008-.102.031-.202.052-.302L.617.384C.63.334.637.284.66.238.722.1.829.005.98.002c.357-.005.714 0 1.07.003.006 0 .012.005.031.014" fill="#1a213e" mask="url(#a)" transform="translate(27.29 24.235)"/><path d="M23.234 17.99c-.09.087-.151.198-.25.276-.417.097-.828.055-1.233-.065-.166-.048-.337-.072-.5-.125-.03-.01-.064-.021-.094-.013-.421.095-.83-.009-1.242-.072-.019-.003-.039-.01-.057-.006-.272.063-.512-.043-.751-.148-.223-.097-.457-.156-.692-.216-.102-.025-.217-.043-.253-.172.012-.08.062-.124.134-.15a.389.389 0 0 1 .094-.01c1.735-.001 3.469-.008 5.203.002.052.013.113.019.106.098a.347.347 0 0 1-.05.101c-.023.034-.052.064-.078.096-.03.036-.053.077-.08.116-.016.026-.032.055-.05.08-.068.07-.118.158-.207.208" fill="#961824"/><path d="M22.666 18.613a3.639 3.639 0 0 1-.562.534.275.275 0 0 1-.205-.003c-.426-.173-.883-.233-1.32-.368-.359-.11-.683-.307-1.03-.444-.38-.149-.765-.277-1.15-.412-.113-.048-.232-.087-.347-.131-.064-.024-.134-.041-.152-.123.033-.122.117-.137.223-.106.452.13.905.251 1.352.404.27.093.57.116.863.126.141.005.278.01.413.062.12.047.246.065.372.008.023-.011.05-.023.074-.018.26.054.532.016.787.098.175.055.346.123.524.168.101.025.205.06.158.205" fill="#9d1925"/><path d="M19.717 20.636c-.184.104-.386.162-.585.23a6.935 6.935 0 0 1-1.548.331c-.412.041-.827.06-1.242.005-.029-.148.091-.113.159-.117.222-.013.445-.002.667-.014.36-.02.702-.13 1.04-.236.418-.13.586-.597.39-.989-.038-.074-.07-.15-.106-.224a.678.678 0 0 0-.45-.384c-.214-.058-.424-.133-.636-.2-.1-.032-.196-.064-.22-.186a.218.218 0 0 1 .06-.172.1.1 0 0 1 .056-.02c.533.15 1.063.314 1.563.556.284.138.433.42.598.677.147.228.213.48.254.743" fill="#c0172e"/><path d="m14.106 20.524-.014.001-.01-.011c-.021-.152.103-.12.174-.12.305-.003.609-.016.912-.04.339-.026.654-.132.966-.256.197-.135.398-.267.526-.478.134-.139.188-.337.345-.46a.157.157 0 0 1 .06.003c.339.106.494.282.504.627.008.288-.157.486-.397.629-.4.238-.845.318-1.298.338-.406.02-.814.05-1.222.035a1.388 1.388 0 0 1-.417-.196c-.019-.023-.054-.016-.073-.04h-.002c-.016-.015-.031-.03-.054-.032" fill="#cb1830"/><path d="M17.224 18.834c0 .078.054.113.117.132.229.073.457.15.69.21a.73.73 0 0 1 .528.47c.042.115.115.21.156.326.057.16.07.308-.035.451-.019.026-.045.053-.048.081-.018.14-.121.219-.22.293a.813.813 0 0 1-.35.143c-.093.017-.194.017-.276.056-.077.037-.154.052-.233.071a2.757 2.757 0 0 1-.599.065c-.172.002-.343.001-.516 0-.05 0-.086.015-.096.07a3.703 3.703 0 0 1-.672-.09c-.136-.026-.272-.05-.402-.102-.024-.016-.055-.01-.078-.029l-.02.002-.015-.008a.048.048 0 0 1 .003-.056c.056-.063.13-.035.197-.04.57-.045 1.146.02 1.71-.111.297-.069.594-.136.832-.349.108-.097.167-.212.15-.354-.019-.155.005-.315-.074-.465-.125-.233-.317-.356-.565-.413-.105-.023-.216-.03-.3-.11a.12.12 0 0 1-.022-.052.18.18 0 0 1 .017-.08.314.314 0 0 1 .024-.048c.025-.03.037-.082.097-.063" fill="#c4172f"/><path d="M24.652 11.48c.057.123.103.248.116.382-.092-.007-.151.047-.212.106-.237.231-.455.48-.685.718-.442.459-.896.905-1.35 1.352-.09.089-.151.206-.265.27-.049.018-.1.019-.15.02-.145-.006-.291.016-.436-.015-.083-.036-.069-.094-.032-.155a.55.55 0 0 1 .087-.101c.8-.774 1.55-1.595 2.339-2.378.095-.094.19-.187.32-.237.093-.015.186-.03.268.038" fill="#eb6f0c"/><path d="M22.28 14.275a.636.636 0 0 1 .157-.214c.465-.464.93-.928 1.393-1.394.116-.118.218-.248.332-.368s.233-.235.35-.352c.038-.036.073-.073.113-.104.024-.019.054-.042.086-.028.022.008.038.032.057.048.068.184.112.374.12.572-.042.099-.141.143-.212.215-.55.565-1.124 1.107-1.664 1.683a.22.22 0 0 1-.08.025.507.507 0 0 1-.34-.011.46.46 0 0 0-.115-.019c-.069-.007-.143.008-.197-.053" fill="#ea6c0c"/><path d="M17.759 8.42c.174-.059.349-.114.534-.124.074.088.019.172-.013.25-.337.86-.7 1.71-1.023 2.576-.046.124-.09.254-.198.345-.111.044-.233.019-.346.054-.165.02-.33.023-.496.003a.158.158 0 0 1-.057-.027c-.021-.115.076-.105.13-.1.183.018.257-.086.314-.237.273-.713.547-1.426.818-2.14.074-.195.156-.388.257-.572v.002c.025-.015.057-.012.08-.03" fill="#f9b937"/><path d="M17.109 19.025c.078.092.195.094.296.109.16.022.282.113.419.177a.2.2 0 0 1 .079.082c.04.071.085.14.133.206.047.066.07.156.056.234-.01.061 0 .112.008.168.015.121.01.242-.064.348-.01.015-.015.039-.03.05-.143.1-.256.248-.446.276a.578.578 0 0 0-.213.08c-.089.051-.194.048-.293.07-.13.026-.261.046-.393.066a1.07 1.07 0 0 1-.17.01c-.267.004-.533.002-.8.009-.086.002-.17.03-.261.02-.06-.006-.123.006-.186-.013-.025-.008-.059.015-.089.023-.028.025-.056.02-.085.004l-.017.002-.013-.01a.09.09 0 0 0-.05-.017l-.035-.013-.016.001-.015-.008c-.023-.022-.057-.014-.08-.033l-.02.001-.015-.01c-.021-.016-.055-.009-.074-.031h-.001c-.023-.024-.056-.02-.08-.035h-.002c.026-.034.062-.041.101-.041.065-.001.128.003.19-.025.015-.007.038-.012.054-.005.113.044.223.007.335.001.138-.007.278-.018.417-.012.095.006.19.01.283-.027.034-.014.076-.01.113-.009.193.001.38-.024.552-.12.022-.01.048-.03.07-.027.127.016.214-.055.308-.12.072-.05.168-.057.226-.135.081-.112.182-.207.21-.354a.369.369 0 0 0-.017-.24c-.03-.063-.064-.129-.07-.196-.016-.14-.106-.196-.225-.223-.064-.013-.124-.025-.167-.08l-.017-.017v-.024a.326.326 0 0 1 .022-.069c.016-.026.028-.062.072-.043" fill="#c8172f"/><path d="M27.15 14.58c.077.005.159-.016.23.037-.167.521-.371 1.03-.554 1.546-.121.34-.253.68-.37 1.023-.062.18-.161.267-.35.244a2.264 2.264 0 0 1-.187-.001.203.203 0 0 1-.118-.037c-.056-.072-.026-.148 0-.218.294-.829.589-1.658.902-2.481.024-.065.033-.156.139-.152a.066.066 0 0 1 .034.002c.086.053.186-.008.273.037" fill="#afadab"/><path d="M26.842 14.541c-.095.094-.116.224-.159.34-.183.5-.357 1.006-.542 1.506-.107.286-.216.57-.312.86a.388.388 0 0 0-.026.13.095.095 0 0 1-.057.02c-.133-.013-.267 0-.4-.011a.16.16 0 0 1-.086-.038c-.045-.083-.003-.162.024-.237.298-.825.598-1.65.897-2.474.063-.175.176-.169.315-.133l.242.005c.038 0 .075.005.104.032" fill="#b4b2b0"/><path d="M22.666 18.613c-.017-.114-.084-.168-.197-.16a.293.293 0 0 1-.212-.068.213.213 0 0 0-.105-.043c-.079-.008-.145-.045-.212-.08a.312.312 0 0 0-.257-.026.358.358 0 0 1-.295-.019c-.097-.05-.195-.056-.288.012-.057.042-.123.037-.184.025a1.316 1.316 0 0 1-.236-.07.474.474 0 0 0-.203-.04c-.083.002-.166 0-.248 0a.484.484 0 0 1-.206-.031.612.612 0 0 0-.298-.045c-.085.007-.16-.023-.238-.053a5.158 5.158 0 0 0-.522-.171 9.586 9.586 0 0 1-.472-.135c-.084-.026-.172-.04-.258-.06a.93.93 0 0 1-.109-.032c-.12-.044-.12-.045-.213.068-.072.073-.166.056-.253.056-1.523 0-3.047.002-4.57-.001-.1 0-.264.042-.268-.094-.004-.125.16-.076.252-.093.02-.003.038-.004.057-.008.032-.01.062-.027.095-.04a.43.43 0 0 1 .128-.022c.051-.003.103-.003.154-.003.09.001.18.008.268-.023a.519.519 0 0 1 .062-.011c.167-.02.338.018.504-.027a.742.742 0 0 1 .162-.016c.045 0 .09-.005.135-.002.11.016.233-.036.326.065-.094.106-.222.01-.314.05 1.102-.077 2.216-.032 3.33-.043a.917.917 0 0 0 .09-.01c.036-.01.072-.028.11-.008.06.061.136.098.217.112.125.023.243.078.371.082a.12.12 0 0 1 .055.016c.195.108.422.144.614.258a.29.29 0 0 0 .241.024c.132-.047.255-.015.373.017.106.027.217.01.318.058.025.011.065.005.093-.007.078-.036.146-.014.22.018.12.052.245.063.364-.012a.163.163 0 0 1 .145-.017c.08.024.16.044.239.068.054.017.108.04.167.035a.234.234 0 0 1 .128.03.35.35 0 0 0 .183.047c.025-.002.056-.003.075.01.12.078.257.058.389.076.012.001.03.01.036.004.104-.076.2-.049.297.016.02.014.054.004.07-.017.068-.088.137-.058.208-.007-.09.13-.196.245-.318.347" fill="#991828"/><path d="M15.689 9.33c.267-.179.544-.34.845-.454.034.079-.002.151-.027.221-.269.714-.536 1.43-.79 2.15-.094.265-.28.289-.498.31-.083.013-.166.023-.245-.019-.07-.069-.028-.145-.003-.213.197-.54.37-1.085.593-1.615.051-.124.077-.255.125-.38" fill="#fcc548"/><path d="M24.877 14.388c.123.002.247.003.37.006.049.002.1-.005.14.032-.02.028-.05.048-.08.044-.224-.026-.288.12-.349.295-.276.796-.576 1.583-.854 2.379-.024.065-.043.134-.103.18a.442.442 0 0 1-.251.022c-.031-.009-.06-.022-.091-.025-.05-.003-.103.007-.154-.01-.058-.082-.01-.16.017-.233.29-.796.574-1.593.868-2.386.045-.123.109-.236-.073-.302-.026-.01-.011-.044.012-.06a.713.713 0 0 1 .548.058" fill="#c1c0be"/><path d="m23.733 17.303.27-.002c.108-.083.234-.048.354-.053l.056.001c.333.005.33.004.444-.313l.844-2.317c.023-.065.036-.137.114-.167.061 0 .125-.017.185.012.124.003.25.005.373.006.043.001.089 0 .123.034-.013 0-.026 0-.038.002-.211.001-.166-.009-.233.174l-.472 1.302-.467 1.284c-.009.024-.013.05-.018.073-.06.064-.14.053-.214.053a52.34 52.34 0 0 1-1.1 0c-.08-.001-.185.036-.22-.089" fill="#b7b6b3"/><path d="M23.008 14.31a.695.695 0 0 1 .144-.199 363.95 363.95 0 0 0 1.521-1.522.707.707 0 0 1 .214-.155c.045.086-.016.187.036.271.01.055.027.111.03.167.018.308.018.616 0 .924-.003.036-.017.072-.025.109-.093-.105-.036-.232-.053-.348-.005-.036.008-.082-.04-.096-.033-.009-.059.02-.081.04-.216.208-.426.422-.637.635-.062.063-.067.11.016.165.064.04.014.07-.03.091-.335.052-.666-.03-.998-.031a.117.117 0 0 1-.097-.052" fill="#e9680c"/><path d="M17.68 8.448a.546.546 0 0 1-.082.29c-.096.18-.153.376-.227.566-.09.23-.178.462-.267.693l-.335.87-.206.53a.06.06 0 0 1-.06.04c-.076.003-.152.003-.23.004-.043.001-.09-.003-.122.036-.026.023-.055.024-.084.006-.042-.06-.026-.124-.002-.182.348-.887.652-1.793 1.041-2.664.183-.087.372-.157.573-.189" fill="#fabd3c"/><path d="M19.717 20.636c-.11-.043-.143-.075-.107-.159.047-.111.01-.199-.044-.287-.065-.109-.139-.214-.172-.34-.147-.19-.278-.395-.464-.552a.216.216 0 0 0-.065-.038c-.2-.084-.395-.18-.6-.244-.163-.05-.313-.146-.49-.148-.153-.074-.327-.097-.475-.187a.043.043 0 0 1-.017-.04.467.467 0 0 1 .074-.175c.02-.028.039-.059.075-.067.02.001.036.006.052.017.338.151.693.252 1.043.37.285.075.548.21.813.334.485.23.778.665 1.085 1.08.02.026.02.06.019.093a1.833 1.833 0 0 1-.462.227c-.02.022-.056.013-.077.036l-.007.01-.012-.002c-.024-.001-.04.014-.057.027l-.012.01h-.015c-.02.002-.033.017-.05.024l-.035.011" fill="#b9172c"/><path d="M26.109 17.379c.23-.005.208.032.296-.207.125-.347.255-.692.383-1.038l.162-.45c.114-.315.23-.632.34-.95.019-.051.037-.094.088-.117.11-.005.21.03.31.066.074.028.109.079.1.16-.003.042.006.088-.027.125-.172.423-.31.858-.474 1.286a23.4 23.4 0 0 0-.353.99c-.055.167-.148.244-.321.226-.114 0-.229.005-.342-.002-.064-.005-.147.01-.162-.09" fill="#aba9a7"/><path d="M17.106 8.636a.34.34 0 0 1-.036.204c-.132.249-.215.516-.305.781a3.65 3.65 0 0 1-.13.32 6.748 6.748 0 0 0-.17.423c-.07.184-.13.372-.199.557-.056.149-.13.29-.172.445-.01.036-.014.074-.02.111-.255.09-.519.101-.786.08a.13.13 0 0 1-.057-.042.114.114 0 0 1 .086-.035l.171-.002c.041 0 .07-.015.088-.058.054-.135.117-.265.162-.406.074-.222.165-.438.248-.658l.232-.624.316-.856c.182-.102.37-.186.572-.24" fill="#fbc142"/><path d="M17.07 11.441c.002-.012 0-.026.006-.037.177-.359.296-.74.448-1.11.116-.28.227-.563.345-.842.128-.304.224-.62.365-.919.034-.073.07-.149.059-.236v.001c.034-.027.082-.004.116-.03.113-.029.227-.056.346-.05.07.077.035.158 0 .231-.208.456-.375.93-.574 1.389-.193.448-.358.91-.537 1.364-.028.07-.047.145-.109.197-.15.077-.3.143-.465.042" fill="#f8b532"/><path d="M13.119 11.666a9.42 9.42 0 0 1 1.23-1.35c.178-.163.368-.311.554-.465.03-.025.065-.038.098-.058.06.06.042.131.02.196-.17.513-.365 1.016-.549 1.523a.136.136 0 0 1-.06.07c-.318.089-.646.074-.97.108-.106-.034-.221.064-.323-.024" fill="#fece56"/><path d="M18.411 17.877c.072.025.143.054.216.073.141.038.283.077.413.145.028.015.058.035.088.04.167.022.312.106.468.158.12.041.225.117.345.159.15.051.297.115.43.206a.37.37 0 0 0 .142.053.669.669 0 0 1 .181.056c.023.011.048.025.072.024.216-.007.406.101.612.132.133.02.256.068.378.123.11.049.232.068.348.1-.156.16-.327.298-.514.417a.233.233 0 0 1-.036.029c-.003.012-.011.017-.023.014-.092.037-.17-.005-.221-.069-.142-.175-.337-.27-.529-.364-.705-.35-1.405-.715-2.175-.907a.748.748 0 0 1-.096-.044l-.047-.02c-.031-.014-.065-.022-.097-.032l-.053-.02c-.143-.048-.29-.081-.433-.125-.151-.046-.168-.131-.063-.255.103-.039.197.005.289.039.1.037.205.04.305.068" fill="#a21827"/><path d="M12.13 11.755c.14-.012.278-.052.42-.04.052.088-.02.133-.065.178-.819.822-1.634 1.65-2.464 2.46-.213.208-.452.391-.626.636a.943.943 0 0 1-.389.07c-.113-.05-.091-.131-.027-.196.177-.182.334-.386.556-.52.078-.047.14-.11.203-.173.758-.737 1.462-1.527 2.223-2.261.055-.053.106-.11.169-.154" fill="#f8b31c"/><path d="M17.53 11.364c.116-.302.22-.608.35-.904.117-.267.188-.552.332-.809.077-.138.128-.292.177-.441.092-.278.236-.533.336-.805a.481.481 0 0 0 .03-.186c.01-.006.021-.017.032-.017.219-.018.436-.066.656-.048.003.029-.011.057-.038.057-.222 0-.273.173-.335.333-.29.749-.58 1.496-.886 2.238-.025.062-.027.126-.04.187-.11.244-.327.342-.562.418a.075.075 0 0 1-.052-.023" fill="#f7b22e"/><path d="m24.386 17.302-.383-.001c.08-.296.195-.579.3-.865.024-.066.053-.13.076-.196.126-.38.267-.755.411-1.13.078-.201.143-.408.21-.613.015-.042.038-.066.081-.067l.306-.003c.157 0 .314.002.47.005.05 0 .101-.005.142.033l-.196.003c-.038.025-.079.05-.123.045-.2-.026-.27.089-.332.258-.282.779-.559 1.56-.849 2.335-.026.072-.05.145-.113.196" fill="#bebcba"/><path d="m17.224 18.834-.077.077c-.919-.033-1.837-.01-2.756-.014-.593-.003-1.187-.008-1.78-.002-.09.001-.18.002-.256-.06a.45.45 0 0 1-.111-.193c.078-.095.19-.097.298-.097 1.481-.005 2.961-.005 4.442 0 .108 0 .24-.02.278.136l-.038.153" fill="#cc1c30"/><path d="M12.13 11.755c-.003.072-.06.11-.104.153-.332.333-.675.656-.995 1.001-.415.447-.845.878-1.276 1.309-.076.075-.14.165-.255.191-.022.004-.041.03-.058.046-.15.149-.296.299-.446.445-.047.047-.04.088-.008.135-.051.063-.111.089-.19.048v-.08c-.033-.33.185-.507.407-.695.272-.231.512-.499.763-.752.567-.57 1.144-1.129 1.699-1.71a.275.275 0 0 1 .079-.054c.128-.008.253-.053.384-.037" fill="#f9b825"/><path d="M9.41 14.959c-.015-.029-.031-.059-.001-.087.176-.164.324-.357.524-.497.042-.03.077-.067.113-.103l2.388-2.389c.048-.049.113-.086.117-.167.153-.008.304-.05.458-.038-.045.118-.15.186-.232.269-.772.778-1.544 1.555-2.326 2.323-.221.219-.464.416-.67.652-.12.051-.24.104-.371.037" fill="#f7b014"/><path d="M14.427 11.554c0-.105.048-.197.081-.291.066-.191.145-.378.213-.568.086-.238.165-.479.25-.716a.448.448 0 0 0 .03-.186H15l.041-.033.004-.002c.017-.025.055-.016.07-.045l-.002.002c.017-.007.028-.023.042-.036.166-.134.34-.255.534-.35.016.04.041.077.02.127-.031.076-.047.159-.082.233-.102.22-.179.45-.26.677l-.385 1.078c-.009.023-.012.05-.019.074-.146.113-.314.1-.482.076a.124.124 0 0 1-.054-.04" fill="#fdca50"/><path d="M11.975 18.068a.387.387 0 0 1-.072-.19c.054-.029.112-.02.169-.02h5.296c.063 0 .127-.005.19.014.064.022.098.069.113.133a.168.168 0 0 1-.006.071c-.027.063-.072.096-.143.092-1.788.002-3.576-.005-5.364.004a.403.403 0 0 1-.15-.021h.001c-.013-.027-.01-.061-.034-.083" fill="#af192b"/><path d="M12.008 18.15a.282.282 0 0 1 .163-.044c.033.002.065 0 .096 0h5.084c.05 0 .103-.002.153.004.022.003.042.022.065.034.042.055.008.099-.02.145-.037.05-.085.076-.147.067-1.722.008-3.442-.002-5.162.005a.37.37 0 0 1-.15-.024.339.339 0 0 1-.082-.187" fill="#b91a2d"/><path d="M11.746 11.792a.674.674 0 0 1-.145.198c-.766.764-1.53 1.53-2.294 2.293-.103.103-.229.178-.33.287-.147.163-.148.133-.142.331.001.039-.002.076-.037.102a2.117 2.117 0 0 1 .038-.574.51.51 0 0 1 .164-.29c.724-.718 1.444-1.44 2.164-2.16.06-.06.118-.118.198-.147.129-.007.253-.055.384-.04" fill="#f9bb2d"/><path d="M13.384 20.027c-.027-.017-.055-.03-.078-.051a4.746 4.746 0 0 1-.797-.886c-.014-.02-.023-.044-.034-.067-.002-.083.07-.082.12-.092.3-.065.59-.053.858.12.24.241.524.421.808.602.06.061.162.093.143.209-.038.081-.115.084-.191.097-.275.047-.553.045-.83.068" fill="#d91a32"/><path d="M9.793 14.888c0-.048.025-.084.058-.115.15-.137.273-.303.448-.413.037-.024.065-.061.097-.093l2.377-2.377c.031-.032.072-.059.091-.097.032-.064.099-.074.145-.115l.11-.012c.037-.004.075 0 .11-.01a.517.517 0 0 1 .201-.019c-.321.31-.615.653-.953.945-.247.213-.466.452-.701.677-.438.418-.84.873-1.303 1.266a.833.833 0 0 0-.267.343.572.572 0 0 1-.259.05c-.027-.018-.055-.027-.086-.008-.027.003-.05-.002-.068-.022" fill="#f6ac0c"/><path d="M18.105 10.983a.455.455 0 0 1 .06-.275c.095-.16.137-.342.207-.512.108-.271.214-.544.318-.816.102-.268.234-.522.312-.798.034-.12.096-.233.144-.35a.066.066 0 0 1 .058-.043l.153-.003c.033-.001.063-.007.087-.033h.117c.04.043.034.095.014.142-.139.331-.18.697-.349 1.02a.865.865 0 0 0-.081.27.298.298 0 0 1-.016.055.507.507 0 0 1-.038.075c-.29.393-.581.782-.854 1.185-.03.044-.06.102-.132.083" fill="#f7af2b"/><path d="M13.47 19.102c-.018-.003-.04-.002-.055-.012-.237-.158-.496-.168-.763-.114-.058.012-.13-.012-.177.047a.469.469 0 0 1-.12-.188h4.625c.038 0 .077-.001.115.004.035.007.047.039.052.071v.039c-.015.01-.024.027-.038.038v.038c-.031.017-.037.045-.038.077a.257.257 0 0 1-.072.016c-1.006.016-2.011.003-3.016.006-.171 0-.343.02-.513-.022" fill="#d31d31"/><path d="M13.384 20.027a.15.15 0 0 1 .176-.079c.151.035.3-.007.448-.015.079-.005.16-.028.242-.027.062.001.112-.016.14-.076.054-.042.113-.025.16.003.396.247.837.211 1.274.211.123 0 .255-.037.365.054-.038.073-.092.12-.18.116-.026-.002-.062-.006-.075.008-.08.077-.189.066-.282.1-.2.073-.41.082-.618.097-.145.01-.288.03-.435.025-.14-.006-.28 0-.42-.001-.051-.001-.087.016-.097.07a2.764 2.764 0 0 1-.653-.447c-.01-.018-.021-.036-.044-.04z" fill="#d11931"/><path d="M17.645 18.068v-.038c.024-.039-.01-.101.052-.124.197.16.447.17.676.239.03.036.083.005.115.038.02.023.056.015.076.039.262.026.505.119.746.22.006.001.01.005.017.007.181.058.348.15.523.223.184.074.36.164.537.25.234.112.466.229.694.353a.492.492 0 0 1 .203.168c.054.092.144.14.247.163a1.255 1.255 0 0 1-.32.226c-.091.044-.155-.014-.197-.072-.32-.445-.819-.614-1.283-.834-.6-.287-1.237-.471-1.862-.69-.089-.03-.208-.036-.224-.168" fill="#a91828"/><path d="M17.645 18.068c.025.018.047.045.075.054.208.078.405.187.629.217.056.008.111.03.164.05.202.079.401.16.603.24.006.003.011.006.017.007.381.092.715.292 1.064.458.062.03.127.06.192.085.107.042.2.102.292.175.14.112.244.257.372.379.046.044.085.099.158.1-.09.08-.19.145-.301.191-.019.007-.034.02-.048.032l-.004.001c-.204-.098-.335-.283-.479-.442a1.625 1.625 0 0 0-.575-.423c-.28-.122-.55-.264-.837-.366-.434-.144-.854-.328-1.299-.44-.06-.015-.144-.029-.138-.126.016-.037.04-.072.039-.115l.076-.077" fill="#ae1729"/><path d="M26.645 17.417h.02c.155-.006.155-.007.202-.14.13-.37.26-.74.393-1.108.135-.375.277-.747.413-1.122.016-.045.033-.081.088-.08.007.3-.033.595-.072.893a6.68 6.68 0 0 1-.239 1.097 4.102 4.102 0 0 1-.212.53c-.013.029-.023.06-.057.073a.711.711 0 0 0-.302-.054c-.083-.016-.193.039-.234-.089" fill="#a8a6a3"/><path d="M11.83 17.693c-.015-.066-.051-.127-.044-.2.102-.042.121-.143.151-.232.284-.824.598-1.638.89-2.46.026-.07.043-.148.107-.2a.214.214 0 0 1 .11-.028c.165-.001.205.052.153.212-.11.34-.228.677-.358 1.01-.2.51-.357 1.036-.571 1.542-.05.119-.021.206.06.29-.152.123-.327.078-.497.066" fill="#bebdbb"/><path d="M12.09 18.337a.341.341 0 0 1 .183-.04c.09.002.178 0 .267 0 1.566 0 3.132 0 4.697.002.072 0 .154-.029.217.037.012.01.017.02.012.037-.012.02-.035.025-.051.04 0 .031-.007.06-.039.077-.074.017-.15.024-.227.024-1.563-.001-3.127 0-4.69-.002-.12 0-.247.02-.333-.098-.03-.018-.036-.045-.036-.077" fill="#c01b2e"/><path d="M12.126 18.414c.053.024.106.04.165.038.064-.004.128-.001.192-.001 1.559 0 3.118 0 4.677.002.073 0 .154-.03.217.037-.016.036-.04.07-.038.114-.015.01-.025.027-.038.039v.039h-.039a.21.21 0 0 0-.168-.077h-4.263c-.197 0-.394-.012-.587.038a.547.547 0 0 1-.118-.229" fill="#c51c2f"/><path d="M11.83 17.693c.083-.039.172-.039.26-.046.081-.006.165.007.241-.032a.105.105 0 0 1 .048-.04c.132-.04.271.005.402-.042a.537.537 0 0 1 .097-.014c.11.002.226-.03.324.048-.03.044-.075.04-.12.042-.07 0-.14.002-.21.006-.01.001-.023.013-.025.024a.03.03 0 0 0 .026.039c.064.005.128.007.19.007h4.85c.157.056.314.11.472.167.01.003.018.016.026.025-.146.005-.29.003-.426-.06-.06-.027-.124-.015-.187-.017-.077.055-.165.057-.255.057h-5.407c-.101 0-.208.011-.272-.096l-.012.004a1.164 1.164 0 0 1-.02-.05l-.001-.022" fill="#a01829"/><path d="M11.362 11.832c-.047.052-.092.105-.142.155l-2.176 2.176c-.08.08-.162.158-.208.266a.899.899 0 0 1 .038-.344c.011-.147.087-.253.19-.355a288.62 288.62 0 0 0 1.836-1.834v.001c.048-.031.107.002.155-.028.103-.007.202-.051.307-.037" fill="#fabf36"/><path d="M18.986 18.796c.036.006.078.003.11.019.253.129.522.223.772.361.098.055.214.077.302.154.028.025.067.042.087.072.111.173.276.295.412.445.063.07.126.141.19.21-.104.082-.216.15-.34.195-.02.023-.06.011-.076.04-.047-.067-.098-.13-.14-.2-.075-.122-.193-.206-.275-.317-.092-.125-.205-.227-.306-.34a1.242 1.242 0 0 0-.39-.27c-.169-.086-.358-.133-.517-.24-.104-.005-.188-.076-.289-.09.024-.114.11-.078.178-.071.095.009.184.053.282.032" fill="#b3182a"/><path d="M12.934 14.62c-.083.24-.161.482-.247.72-.066.185-.142.367-.21.55-.13.364-.257.73-.388 1.094-.062.172-.127.343-.193.515-.02.054-.037.053-.094.005l-.016-.01a.886.886 0 0 1-.077-.346c.29-.722.526-1.464.81-2.188.08-.21.074-.212-.128-.3a.052.052 0 0 1 .013-.055c.139-.05.284-.06.43-.056a.147.147 0 0 1 .1.072" fill="#b9b7b5"/><path d="M11.864 17.761c.056.036.12.04.183.04.186-.002.37-.001.554-.001h5.197c-.011.034-.043.067-.019.105.028.045.064.083.12.083.129 0 .238.076.364.089a.154.154 0 0 1 .11.067c-.167.02-.322-.03-.474-.086a.466.466 0 0 1-.216-.143c-.026.023-.051.023-.076 0h-5.444c-.088 0-.179.014-.26-.037a.157.157 0 0 1-.039-.117" fill="#a7192a"/><path d="M10.9 11.896a.125.125 0 0 1-.038.103l-.107.109-1.606 1.605c-.058.058-.11.126-.176.172-.073.053-.034.15-.1.2a1.656 1.656 0 0 1 .078-.498.567.567 0 0 1 .15-.236c.426-.424.852-.85 1.277-1.276a.872.872 0 0 1 .181-.135c.11-.05.227-.04.342-.044" fill="#fbc33e"/><path d="M12.398 14.66c.058 0 .115-.002.173 0 .077.003.091.02.067.093-.072.21-.137.424-.222.628-.077.18-.137.368-.205.55-.133.35-.257.704-.38 1.058-.023.07-.056.126-.122.16a.066.066 0 0 1-.003-.035c-.04-.06.01-.136-.036-.195-.049-.098-.039-.203-.039-.306.167-.342.262-.712.407-1.062.121-.297.184-.618.36-.892" fill="#b5b3b1"/><path d="M22.744 9.026c.254.145.48.328.681.54-.079.174-.195.327-.28.498a.18.18 0 0 1-.15.104.116.116 0 0 1-.071-.025.309.309 0 0 1-.032-.035l-.015-.018c-.01-.01-.019-.023-.028-.034a.285.285 0 0 0-.015-.016l-.032-.03-.018-.012-.039-.023a.189.189 0 0 1-.038-.026c-.048-.041-.091-.086-.137-.13a2.566 2.566 0 0 0-.118-.118l-.037-.032-.019-.017a.214.214 0 0 1-.036-.037c-.016-.024-.018-.048.001-.073.105-.09.151-.213.205-.334.035-.079.048-.192.178-.182" fill="#f08f11"/><path d="M12.398 14.66c-.001.024.001.052-.007.075-.08.22-.162.44-.247.658-.023.059-.05.115-.06.18a.524.524 0 0 1-.046.144c-.104.218-.168.45-.252.675-.022.06-.05.117-.077.175-.014.033-.044.041-.078.046a.982.982 0 0 1-.036-.283c.002-.197 0-.395.002-.592 0-.056-.009-.115.033-.165.042.041.051.085.005.14.115-.192.33-.85.353-1.072.083-.044.178-.033.266-.057.054-.004.108-.009.143.049l.001.026" fill="#afadab"/><path d="M22.97 10.139c.088-.005.129-.069.164-.138.056-.112.11-.227.183-.33a.291.291 0 0 1 .108-.105l.003.003c.013.01.025.021.036.035l.002.002a.204.204 0 0 1 .036.036c.167.143.311.306.429.493a1.403 1.403 0 0 1-.297.493c-.05.054-.1.115-.188.106a.167.167 0 0 1-.072-.038c-.11-.134-.233-.256-.336-.397l-.03-.038a.415.415 0 0 1-.043-.058l-.01-.022a.04.04 0 0 1 .014-.042" fill="#ef880f"/><path d="M.002 1.496a.648.648 0 0 1 .07-.33C.117 1.063.164.96.206.854.236.778.26.701.274.62.304.457.362.303.426.153.446.105.466.06.462.007c.19-.015.38-.004.572.004.03.002.06.015.09.024C1.003.092.942.198.896.319.806.549.728.78.62 1.004c-.16.167-.356.295-.515.465-.025.026-.061.045-.103.027" fill="#f6ac27" mask="url(#b)" transform="translate(19.098 8.145)"/><path d="M24.157 14.346c-.04-.045-.096-.024-.143-.038-.028-.008-.04-.027-.032-.056a.335.335 0 0 1 .091-.143c.216-.214.432-.429.647-.645a.32.32 0 0 1 .142-.09c.032-.009.051.011.055.036.007.045.005.09.006.133l.005.362c.01.164-.027.322-.051.483-.188-.008-.375-.045-.564-.027a.098.098 0 0 1-.052.026c-.042.004-.08-.002-.104-.041" fill="#e8620e"/><path d="M10.559 11.94c-.03.065-.09.107-.138.156-.417.419-.836.835-1.252 1.254-.076.076-.146.157-.219.237.012-.172.046-.34.11-.499.14-.215.341-.371.516-.553.17-.176.344-.351.523-.52h-.001c.045-.037.107.002.153-.033.1-.03.202-.052.308-.043" fill="#fcc746"/><path d="M23.429 10.714c.124-.021.184-.125.253-.21.059-.071.098-.16.144-.24.028-.05.047-.105.104-.13h-.002c.007.02.024.029.036.044.023.02.017.062.053.072.108.125.197.262.262.413-.092.194-.223.366-.313.561-.025.052-.068.09-.134.087a.142.142 0 0 1-.073-.038c-.102-.127-.187-.267-.277-.403l-.039-.064a.153.153 0 0 1-.024-.07l.01-.022" fill="#ee810d"/><path d="M22.744 9.026c-.096.047-.117.145-.15.23-.027.07-.056.14-.091.205-.031.057-.075.102-.147.104-.012.013-.027.016-.044.013-.073-.04-.122-.11-.197-.146l-.137-.097-.058-.038c-.015-.006-.028-.014-.041-.022a4.71 4.71 0 0 1-.066-.033c-.041-.03-.102-.05-.066-.122.095-.105.148-.232.206-.36.037-.076.084-.126.176-.078h-.002c.02.027.058.019.082.038a.04.04 0 0 1 .034.012l.043.026c.165.068.32.153.458.268" fill="#f29615"/><path d="M22.13 8.682c-.06 0-.102.012-.127.081-.037.105-.096.2-.144.3-.024.05-.06.079-.116.08a.058.058 0 0 1-.053.015c-.197-.09-.408-.143-.605-.235a.132.132 0 0 1-.024-.052.887.887 0 0 1 .225-.502c.201.029.386.11.573.183.093.037.191.064.27.13" fill="#f39d19"/><path d="M19.675 9.144c.077-.207.172-.407.237-.618.032-.102.103-.189.12-.298.003-.028.033-.037.057-.04.045-.003.089-.004.133-.008.126.003.253-.007.372.044-.007.242-.133.444-.217.66-.2.104-.419.162-.615.273a.072.072 0 0 1-.087-.013" fill="#f6a923"/><path d="M0 .73C.002.705-.002.678.007.656.08.463.155.272.23.08c.236.015.467.063.69.144C.916.304.87.366.837.433a1.26 1.26 0 0 0-.109.299.171.171 0 0 1-.084.04.225.225 0 0 1-.064.001A1.292 1.292 0 0 0 .162.757C.106.764.048.778 0 .73" fill="#f4a41e" mask="url(#c)" transform="translate(20.364 8.144)"/><path d="M23.234 17.99a.876.876 0 0 1 .182-.233c.08-.051.17-.05.258-.05.819 0 1.637 0 2.456.002.087 0 .18-.02.251.054-.016.01-.032.027-.049.029-.17.017-.343.02-.51.05-.253.044-.508.02-.76.062-.131.022-.267.009-.401.012-.088.002-.178-.003-.266.023-.041.014-.088.01-.132.01a13.73 13.73 0 0 1-.287.003c-.248.002-.496-.005-.742.038" fill="#c1c5c4"/><path d="M23.467 17.685a.225.225 0 0 1 .08-.113c.085-.058.182-.056.278-.056 1.032 0 2.064.002 3.097 0 .083-.002.167-.004.233.06a.597.597 0 0 1-.35.112 2.59 2.59 0 0 1-.399.036c-.906-.001-1.813 0-2.719-.002-.074 0-.154.02-.22-.037" fill="#a5a9a8"/><path d="M23.812 11.288c.066 0 .097-.043.125-.096.07-.133.126-.271.214-.395a.513.513 0 0 1 .128-.134l-.002.003c.001.022.02.033.031.048.15.24.268.493.344.766h-.304a.603.603 0 0 1-.432.034c-.084-.053-.127-.125-.104-.226" fill="#ed7c0d"/><path d="M10.099 12.015a.14.14 0 0 1-.043.102l-.961.954c-.009.008-.022.011-.034.017-.002-.105.045-.197.073-.293.047-.165.121-.319.187-.477a.279.279 0 0 1 .17-.165c.198-.069.397-.128.608-.138" fill="#fdcb4f"/><path d="M9.359 15.314a.874.874 0 0 1-.385-.073c.071-.089.177-.058.266-.074.76-.14 1.522-.27 2.282-.406.061-.011.125-.032.187.002.034.04.035.083.018.129-.05.079-.133.097-.213.11-.652.096-1.293.252-1.949.318-.07.008-.138.018-.206-.006" fill="#e07610"/><path d="M27.155 17.576c-.038-.002-.076-.006-.114-.006l-3.493.002c.007-.038.032-.062.06-.084.086-.055.183-.048.279-.048.693-.003 1.386-.007 2.079.003.24.002.483-.003.723.029.073.01.152.02.225-.017a.487.487 0 0 1 .23.046c.026.01.031.036.037.059a.038.038 0 0 1-.026.016" fill="#9a9d9c"/><path d="M11.71 14.775a7.6 7.6 0 0 1-.65.116c-.162.023-.322.058-.483.087-.198.035-.397.07-.596.103-.148.028-.298.048-.446.082a2.885 2.885 0 0 1-.561.078c-.041-.003-.083-.004-.11-.041.054-.075.14-.083.22-.096.628-.113 1.253-.247 1.889-.317.036-.004-.016-.031.004-.047.076-.078.176-.052.268-.06.164.007.328-.083.492 0 .034.042.042.08-.026.095" fill="#dc6d12"/><path d="M9.359 15.314c.192.003.373-.059.559-.095.117-.023.236-.026.354-.055.336-.081.682-.113 1.02-.189.103-.023.213-.024.317-.05.03-.007.058-.024.087-.037.068.068.018.123-.019.18-.023.023-.05.044-.081.048-.598.087-1.184.255-1.795.25-.044 0-.09.01-.131-.015-.105 0-.212.011-.311-.037" fill="#e4820e"/><path d="M11.666 15.043c.01-.052.041-.098.03-.155l.015-.113c.024-.02.029-.048.029-.077.073-.064.147-.106.235-.028.048.034.09.064.062.138-.107.284-.21.57-.315.854-.012.034-.023.075-.074.076-.03-.052-.009-.11-.019-.165-.02-.11-.02-.112-.109-.114-.108-.003-.216-.002-.324-.003-.043-.001-.089.007-.13-.018.087-.105.207-.057.314-.064.097-.007.187-.013.212-.133.022-.067.035-.138.074-.198" fill="#aaa7a2"/><path d="M10.98 14.774c.036 0 .073.002.11.004v.016l-2.227.406c-.072-.029-.076-.035-.064-.118l.19-.047.42-.076.384-.07.078-.004c.01-.01.023-.01.036-.002l.306-.037c.102-.118.24-.078.368-.089a.564.564 0 0 0 .217-.02c.065-.01.13-.016.182.037" fill="#db6714"/><path d="M23.467 17.685h3.204c.045 0 .09.002.134.003a1.068 1.068 0 0 1-.424.076l-2.544-.003c-.14 0-.28-.003-.421-.005a.11.11 0 0 1 .051-.071" fill="#b2b7b6"/><path d="M11.666 15.043c0 .066.012.135-.032.195-.475.079-.945.21-1.435.152-.177.001-.355.013-.53-.039.288.01.566-.045.844-.108.172-.038.348-.057.523-.086.18-.029.357-.076.542-.081.03-.001.059-.022.088-.033" fill="#e98d0d"/><path d="M10.2 15.39c.05 0 .1-.004.15-.003.19.002.374-.036.558-.07.166-.032.327-.087.5-.087.042 0 .084-.023.127-.031.039-.007.075.002.1.038.005.206-.017.194-.187.195-.127 0-.255.003-.382.006-.22-.006-.442-.01-.663-.019-.069-.003-.14.008-.204-.028" fill="#ed9909"/><path d="M24.923 12.705a.096.096 0 0 1-.038-.082l.001-.188c.046.085.039.179.037.27" fill="#ea6c0c"/><path d="m27.15 14.58-.192.002a.097.097 0 0 1-.082-.04c.092.007.188-.018.273.038" fill="#b4b2b0"/><path d="M11.67 16.92c.063.054.03.128.036.195-.052-.059-.034-.129-.036-.196" fill="#b9b7b5"/><path d="M10.251 11.982c-.042.05-.1.03-.153.033.045-.041.1-.036.153-.033" fill="#fdcb4f"/><path d="M11.055 11.87c-.044.048-.102.028-.155.027.046-.042.101-.032.155-.028" fill="#fbc33e"/><path d="M.487.268C.456.308.412.3.37.298.403.264.444.264.487.268" fill="#f9b937" mask="url(#d)" transform="translate(17.923 8)"/><path d="M15.115 9.713c-.011.033-.038.042-.07.045.014-.029.04-.042.07-.045" fill="#fece56"/><path d="M.468.344c-.02.03-.048.034-.08.03.02-.03.049-.033.08-.03" fill="#fabd3c" mask="url(#e)" transform="translate(17.29 8.076)"/><path d="M22.209 8.72c-.035.002-.065-.003-.082-.04.033.002.063.01.082.04" fill="#f39d19"/><path d="M11.975 18.068c.035.018.038.05.035.083-.03-.02-.036-.05-.035-.083" fill="#b91a2d"/><path d="M15.19 20.981c.03-.001.059.001.078.029a.08.08 0 0 1-.078-.029m-.12-.036.086-.005v.035c-.034.004-.065-.001-.086-.03m-.226-.078c.032-.002.06.001.08.031a.082.082 0 0 1-.08-.031m-.109-.041c.03 0 .056.005.074.031-.03.005-.055-.01-.074-.031m-.082-.036c.033-.002.063.004.08.035-.032.002-.061-.004-.08-.034" fill="#cb1830"/><path d="M14.162 20.557c.031 0 .058.009.073.04a.081.081 0 0 1-.073-.04" fill="#d11931"/><path d="M19.906 20.556c.017-.03.045-.036.077-.036a.08.08 0 0 1-.077.036" fill="#c0172e"/><path d="M20.443 20.292c.015-.033.044-.04.075-.04-.016.03-.043.04-.075.04" fill="#b9172c"/><path d="M24.017 10.25c-.04-.007-.05-.037-.053-.072.031.015.044.042.053.072" fill="#ef880f"/><path d="M22.286 8.759a1.164 1.164 0 0 0-.043-.027c.021-.002.034.009.043.027" fill="#f39d19"/><path d="m21.554 19.592.036-.03c-.005.02-.016.032-.036.03" fill="#a91828"/><path d="M24.308 10.714a.054.054 0 0 1-.03-.048c.022.008.03.026.03.048" fill="#ee810d"/><path d="M13.384 20.026a.054.054 0 0 1 .045.04c-.022-.005-.039-.017-.045-.04" fill="#d91a32"/><path d="m20.862 20.056.048-.031c-.01.021-.025.032-.048.031" fill="#b3182a"/><path d="m23.464 9.604-.036-.035c.02.003.032.015.036.035" fill="#f08f11"/><path d="M14.106 20.524a.067.067 0 0 1 .054.032.056.056 0 0 1-.054-.032" fill="#d11931"/><path d="M19.83 20.591a.065.065 0 0 1 .055-.027c-.012.021-.03.03-.056.027m-.076.035.048-.025c-.01.02-.026.027-.048.025" fill="#c0172e"/><path d="M23.964 10.178a1.953 1.953 0 0 0-.035-.043.046.046 0 0 1 .035.043" fill="#ef880f"/><path d="m23.502 9.642-.036-.036a.04.04 0 0 1 .036.036" fill="#f08f11"/><path d="M14.955 20.906h.047v.023c-.022.004-.037-.004-.047-.023" fill="#cb1830"/><path d="M15.002 20.93v-.025l.038.032-.038-.008" fill="#c4172f"/><path d="m15.155 9.68-.042.035c.006-.02.02-.031.042-.036m-.114.081-.04.034c.006-.02.02-.032.04-.033" fill="#fece56"/><path d="M11.833 17.716c.02.011.025.027.02.049-.02-.011-.028-.028-.02-.049" fill="#bebdbb"/><path d="M3.42 1.453c-.002.16-.037.316-.094.465a1.92 1.92 0 0 1-.76.933 1.128 1.128 0 0 1-.534.19c-.35.023-.586-.165-.647-.509a1.083 1.083 0 0 1 .055-.546c.15-.438.422-.782.817-1.023.137-.084.284-.142.445-.165.398-.056.685.164.717.598v.057m.795-.972a1.854 1.854 0 0 0-.58-.326A2.868 2.868 0 0 0 2.35.02a2.31 2.31 0 0 0-.505.097c-.545.186-1 .5-1.362.948-.186.23-.33.485-.413.77-.21.73.059 1.35.647 1.724.102.065.21.12.323.165.342.138.697.196 1.065.19a2.786 2.786 0 0 0 1.825-.623c.42-.338.712-.765.814-1.302.116-.603-.06-1.109-.53-1.509" fill="#1a213e" mask="url(#f)" transform="translate(22.264 24.08)"/><path d="M2.856 1.334a.75.75 0 0 1-.306.151c-.188.05-.535.064-.762.031.009-.141.051-.275.08-.412.031-.15.061-.3.094-.45.016-.073.034-.09.1-.09.172-.003.345-.006.517.014.043.006.086.018.13.03.152.042.26.126.29.294.03.17-.01.316-.143.432m1.497 2.2c-.191-.249-.375-.502-.573-.742-.235-.286-.479-.565-.838-.706-.014-.006-.016-.02-.008-.032.003-.005.007-.012.01-.012.038-.005.077-.006.115-.01.23-.021.455-.06.67-.146.455-.18.686-.552.645-1.035a.764.764 0 0 0-.406-.63 1.265 1.265 0 0 0-.374-.142 3.154 3.154 0 0 0-.682-.077L1.362 0c-.114 0-.23-.003-.345.001a.386.386 0 0 0-.37.28 1 1 0 0 0-.029.11L.02 3.196a.887.887 0 0 0-.02.151c-.003.116.057.19.16.236.05.02.1.025.15.025h.938c.078 0 .081-.004.099-.084l.261-1.214c.008-.037.015-.075.025-.112.018-.062.035-.073.093-.072.15.006.265.066.351.195.253.376.5.756.713 1.155.051.096.105.138.218.136.37-.009.74-.004 1.11-.004h.273c-.022-.042-.028-.06-.038-.075" fill="#1a213e" mask="url(#g)" transform="translate(6 24.232)"/><path d="M17.594 25.289a.503.503 0 0 1-.216.386.697.697 0 0 1-.131.077c-.275.119-.563.136-.864.118.003-.043.002-.075.008-.105l.183-.858c.022-.105.027-.112.138-.111.128 0 .255.007.381.013a.754.754 0 0 1 .275.076c.163.076.24.216.226.404m1.358-.147a.83.83 0 0 0-.4-.64 1.514 1.514 0 0 0-.497-.19 3.964 3.964 0 0 0-.818-.078H15.88c-.083 0-.166-.004-.25 0a.388.388 0 0 0-.354.25c-.02.045-.029.097-.04.146l-.592 2.786a.965.965 0 0 0-.024.17c-.002.107.054.18.15.224.054.026.11.03.167.03.122.002.243.001.364.001h.647l.051-.222.195-.916c.02-.094.029-.102.127-.104.134-.001.269.002.402-.001.345-.009.69-.027 1.027-.104.27-.06.524-.158.748-.323.35-.256.508-.593.455-1.029" fill="#1a213e"/><path d="m18.067 17.532-3.583-.008c-.006 0-.01-.007-.017-.01.045-.035.097-.018.145-.02.09-.003.179 0 .268-.002.033 0 .061-.01.079-.042l.024-.021c.149-.05.303-.016.455-.026.068-.004.14.009.205-.025a.353.353 0 0 1 .057-.029.584.584 0 0 1 .192-.023c.067 0 .132-.006.198-.002.287.03.567-.06.854-.038.035 0 .07-.005.105-.001.213.009.426-.006.64-.002.126.007.252.001.378.005.067.002.14-.006.19.056l-.076.11-.077.04c-.01.014-.026.023-.037.038" fill="#921827"/><path d="M26.914 17.456c-.022.012-.042.03-.065.034-.037.006-.076.003-.114.003h-2.993c-.044 0-.089-.003-.133-.005.008-.029.02-.056.048-.072.075-.05.16-.038.241-.037.65.01 1.298-.024 1.946.02a.122.122 0 0 0 .073-.019c.064 0 .128 0 .193-.002.031.04.076.038.12.038l.415.001c.026.033.062.038.1.038h.169" fill="#909493"/><path d="m18.258 17.344-.587-.01c.03-.087.108-.077.176-.085a6.68 6.68 0 0 1 .49-.002c.177-.006.354-.005.53-.002.164.002.329-.007.492.002.126-.003.252-.005.378 0 .068 0 .136-.004.203.001.067 0 .135-.005.202 0 .113 0 .225-.006.338 0 .104-.002.207-.006.31-.002.153-.001.305-.005.457 0 .177-.004.355-.005.533 0 .177-.004.355-.005.532 0 .142-.004.282-.004.423 0 .117-.004.235-.004.352 0 .141.007.289-.037.418.055l.151.008c.015.007.02.014.016.02-.005.009-.009.012-.014.012h-5.266c-.045 0-.09.003-.134.003" fill="#ad1925"/><path d="M23.658 17.341c0-.011 0-.02-.002-.032l.078-.006c.039.044.092.035.142.035l1.39.001.076.002c.138.051.285-.012.423.035l.038.001.114.003c-.032.042-.078.036-.122.037h-2.137c-.006-.025.046-.051 0-.076" fill="#918f8d"/><path d="M13.47 19.102c.021-.012.042-.03.065-.034.043-.007.088-.004.133-.004h3.166c.067.001.142-.024.198.038.01.009.013.017.01.025-.003.01-.006.014-.01.014a.161.161 0 0 1-.038.037c-.062.151-.163.278-.249.414-.013.02-.039.031-.057.047a.395.395 0 0 1-.218.06c-.694.002-1.389-.001-2.084 0a.453.453 0 0 1-.15-.023c-.253-.142-.504-.288-.71-.498-.021-.023-.037-.051-.056-.076" fill="#db1e32"/><path d="M14.236 19.676c.075-.048.159-.037.241-.037h2.21c-.106.217-.29.35-.497.46-.326 0-.65-.005-.977 0a1.069 1.069 0 0 1-.457-.113c-.122-.052-.235-.124-.366-.156a.146.146 0 0 0-.078-.076.146.146 0 0 1-.076-.078" fill="#d51d31"/><path d="m16.994 19.178.038-.037v.037z" fill="#d31d31"/><path d="m17.109 18.988.038-.04-.038.04" fill="#c8172f"/><path d="M23.889 11.48h.46c-.037.082-.127.102-.185.161-.29.297-.598.574-.873.883-.492.552-1.039 1.05-1.549 1.581-.048.05-.113.089-.114.17-.13.093-.271.048-.41.041-.097-.038-.076-.103-.033-.168.036-.053.084-.095.13-.14.417-.419.844-.83 1.252-1.257a42.63 42.63 0 0 1 1.089-1.121c.066-.065.123-.15.233-.15" fill="#eb730b"/><path d="m21.17 14.272.459.003.493.003c.016.02.013.039-.007.054a.233.233 0 0 1-.126.033c-.122 0-.243.008-.364.005-.123-.006-.246.005-.37 0-.067-.007-.135.004-.202 0-.08-.005-.158.004-.238-.002a6.693 6.693 0 0 1-.415.001 6.246 6.246 0 0 1-.457 0 9.518 9.518 0 0 1-.564 0c-.107-.003-.217.022-.315-.045-.014-.025-.01-.046.01-.065.26-.083.53-.029.793-.039.292-.007.583-.005.874-.002.143.015.295-.04.428.054" fill="#eaa466"/><path d="M22.13 14.308a.414.414 0 0 0-.008-.03l.158-.003c.077 0 .153 0 .23.002.011.024.006.043-.017.058-.124.038-.248.065-.363-.027" fill="#eb730b"/><path d="M21.781 17.296c-.178.01-.357.01-.535-.001-.062-.07-.03-.142-.005-.214.293-.828.595-1.651.898-2.474.1-.275.105-.274.392-.28.055-.001.113.022.168-.006h.154c.026.074-.014.138-.036.204-.3.866-.628 1.723-.937 2.588-.023.065-.042.134-.099.183" fill="#d2d1d0"/><path d="M21.781 17.296c-.006-.074.028-.137.05-.203.083-.234.172-.464.258-.697.137-.369.275-.738.41-1.109.09-.25.178-.503.264-.756a1.08 1.08 0 0 1 .09-.21l.08.001c.1.025.204.015.305.01.144-.007.165.06.127.177-.012.036-.026.072-.04.108-.304.838-.608 1.678-.915 2.515-.022.06-.042.12-.092.165-.18.01-.358.01-.537-.001" fill="#cecdcb"/><path d="M22.318 17.297c0-.119.057-.22.093-.328.067-.197.147-.39.218-.587.18-.5.358-1.002.54-1.502.052-.143.112-.283.166-.424.024-.062 0-.1-.066-.102-.077-.003-.153-.002-.23-.002-.038 0-.076 0-.106-.03.025-.004.05-.007.075-.013.382.009.765.05 1.149.037l.112.014c-.028.099-.112.07-.18.082-.271.001-.275 0-.368.257-.277.772-.562 1.54-.838 2.312-.036.101-.063.208-.143.287-.14.011-.281.01-.422-.001" fill="#cac9c7"/><path d="M22.7 14.32c-.062.054-.135.03-.202.032-.182.007-.2-.036-.275.183-.067.204-.149.405-.224.607-.131.351-.262.702-.39 1.054-.079.215-.154.43-.23.646-.034.097-.065.193-.105.286a.404.404 0 0 0-.029.167l-.458.001c-.03-.074.005-.137.028-.203.288-.803.59-1.604.874-2.409.021-.06.052-.117.068-.178.035-.131.121-.185.25-.183l.123-.015.38-.003a.08.08 0 0 1 .074.002l.115.014" fill="#d6d5d4"/><path d="m22.585 14.308-.075-.002v-.03c.03 0 .057.005.075.032" fill="#eb6f0c"/><path d="m12.397 14.632-.151-.006c-.06-.093.013-.149.071-.188.33-.225.576-.533.849-.817.67-.695 1.37-1.362 2.04-2.057.018-.02.042-.029.064-.043.27.003.535-.058.805-.044h.076c.013.002.025.004.038.004.017.111-.076.156-.135.215-.507.511-1.013 1.026-1.528 1.527-.339.33-.647.687-.977 1.024-.116.118-.292.166-.365.33a.085.085 0 0 1-.052.024c-.09-.004-.182.009-.272-.009l-.463.04" fill="#f39d07"/><path d="m17.53 11.364.038.002c.028.131-.076.195-.148.267-.652.656-1.31 1.305-1.958 1.963-.254.26-.485.541-.76.787.035.031.12-.007.113.077-.062.074-.15.052-.228.061a1.737 1.737 0 0 1-.125 0c-.126-.01-.247.02-.37.035-.062.005-.124.002-.186 0a.244.244 0 0 1-.115-.027c-.071-.068-.02-.116.032-.154.276-.209.492-.477.731-.722.715-.734 1.44-1.455 2.171-2.175.027-.031.064-.035.102-.035l.244-.001a.994.994 0 0 0 .459-.078" fill="#f29608"/><path d="M16.725 11.478c0 .04-.014.075-.044.103l-.108.108c-.613.615-1.226 1.23-1.842 1.842-.203.202-.373.434-.587.628-.094.085-.176.183-.29.246-.038.022-.078.046-.077.099a.112.112 0 0 1-.072.042c-.081.015-.165-.002-.246.022a.534.534 0 0 1-.108.02c-.018.002-.036.002-.054.002a.202.202 0 0 1-.13-.04c-.005-.074.039-.125.098-.15.128-.053.22-.151.31-.25.82-.886 1.695-1.72 2.542-2.58.027-.027.048-.058.072-.088l.536-.004" fill="#f29a07"/><path d="M17.032 19.14v-.038h.038l-.038.039" fill="#cb1830"/><path d="m25.765 17.376-.32.001c-.039 0-.076-.003-.103-.036h.32c.04 0 .076.003.103.035" fill="#afadab"/><path d="M14.504 17.452a.307.307 0 0 1-.145.007c-.038.02-.079.017-.12.007-.046-.078-.004-.15.022-.218.335-.922.672-1.843 1.004-2.766a.19.19 0 0 1 .038-.066.63.63 0 0 1 .272-.076c.062 0 .126-.003.182.034.013.015.026.04.01.048-.213.113-.23.34-.3.53-.28.764-.562 1.526-.834 2.293-.028.079-.058.154-.129.207" fill="#e9e9e8"/><path d="M14.083 14.508a1.32 1.32 0 0 1 .381-.033c.033.08-.004.152-.03.222-.315.888-.644 1.773-.963 2.66a.365.365 0 0 1-.116.173.167.167 0 0 1-.102.007c-.165.004-.19-.02-.137-.185.124-.394.28-.776.416-1.167.151-.432.314-.86.475-1.287a1.24 1.24 0 0 0 .076-.39" fill="#d5d4d2"/><path d="m14.504 17.452.365-.998.17-.464c.128-.363.257-.728.387-1.091.032-.09.07-.177.103-.265.023-.06.034-.125.067-.176.033-.054.11-.01.158-.048l.014-.012c.025-.027.053-.025.08-.006.057.082.015.162-.012.237l-.951 2.624a.404.404 0 0 1-.095.163c-.051.038-.117.002-.17.033-.039 0-.077.002-.116.003" fill="#eeeeed"/><path d="M14.083 14.508c.039.04.072.07.051.144a5.372 5.372 0 0 1-.108.346c-.075.21-.155.418-.234.626-.025.065-.052.129-.078.194-.017.041-.04.082-.049.124-.053.224-.152.432-.224.648-.091.271-.194.54-.288.809-.039.11-.036.112.1.138l-.05.03-.346.001c-.067-.088-.011-.171.018-.252.319-.873.636-1.749.956-2.622.023-.06.026-.126.062-.18a.546.546 0 0 1 .19-.006" fill="#cfcfcd"/><path d="M13.355 17.53c.105-.285.21-.57.313-.856l.046-.126a43.9 43.9 0 0 1 .43-1.179c.104-.265.19-.537.284-.807.01-.03.024-.058.036-.087.04 0 .08-.002.118-.003.158.013.137.11.1.214-.122.328-.234.661-.36.988-.235.6-.418 1.22-.675 1.81-.037.044-.095.015-.137.041z" fill="#d9d8d7"/><path d="m14.24 17.449.12.01c-.18.046-.363.035-.545.036-.063-.08-.02-.16.008-.235.314-.858.624-1.72.936-2.579.051-.142.078-.29.276-.272.021 0 .039.008.054.022.039.141-.029.261-.073.386-.286.79-.58 1.579-.863 2.37-.042.119-.04.208.087.262" fill="#e0e0df"/><path d="M15.04 14.437c-.046.055-.137.001-.172.061-.026.047-.022.11-.042.164-.153.397-.296.797-.437 1.199-.103.294-.22.583-.328.875a41.26 41.26 0 0 0-.228.647c-.012.035-.012.074-.018.112l-.014.007-.014-.005c-.056.018-.11.03-.162-.007-.004-.092.038-.172.07-.254l.167-.446c.127-.345.26-.689.379-1.037.062-.187.139-.367.204-.552.067-.192.138-.382.204-.573.012-.034.038-.074.012-.108-.017-.024-.052-.032-.079-.048.078-.021.162.001.237-.039.075-.065.15-.069.222.004" fill="#dddddc"/><path d="M14.62 17.449c.042-.049.102-.027.154-.036a.152.152 0 0 1 .177-.015c.02.015.023.033.009.054l-.001-.002-.339-.001" fill="#e9e9e8"/><path d="m13.624 17.49.161.008c-.089.038-.182.03-.276.027.03-.04.075-.029.115-.035" fill="#d5d4d2"/><path d="m18.067 17.532.037-.039-.037.039" fill="#961824"/><path d="M15.27 11.52c-.035.093-.103.16-.171.228-.582.58-1.161 1.165-1.747 1.744-.204.2-.373.434-.584.628-.123.111-.235.231-.38.316-.07.041-.142.093-.142.19-.03.025-.068.025-.105.029l-.165.015c-.082-.017-.156.024-.236.028-.12 0-.241-.006-.36.032-.04.013-.088.003-.133.003-.115-.074-.04-.14.011-.203.135-.164.316-.277.464-.427.807-.817 1.634-1.615 2.426-2.447.098-.102.214-.056.316-.096.168.006.334-.021.5-.042l.268-.003a.574.574 0 0 1 .038.006" fill="#f4a307"/><path d="M24.08 14.391c.063-.008.133.022.189-.03h.043c.048.047.11.023.164.033.044.008.069.044.054.083-.026.071-.056.141-.083.213-.039.1-.076.201-.113.302l-.39 1.053c-.063.172-.124.346-.184.52l-.254.736a2.83 2.83 0 0 1-.422 0c-.056-.067-.027-.136-.004-.2.317-.89.645-1.775.966-2.663.007-.018.022-.032.034-.047" fill="#c5c4c2"/><path d="M24.386 17.302c.065-.254.176-.49.257-.738.058-.175.132-.345.195-.518.13-.358.257-.718.386-1.077.051-.144.106-.287.156-.432.017-.05.048-.07.098-.07.108.002.217 0 .325 0l-.113.322c-.13.364-.258.729-.39 1.092-.15.418-.303.834-.454 1.251l-.029.07c-.025.066-.07.101-.145.1-.095-.002-.19 0-.286 0" fill="#bbbab7"/><path d="M18.986 18.796c-.006.03-.01.068-.053.06-.079-.011-.156-.033-.235-.048-.06-.013-.122-.032-.172.026a.342.342 0 0 1-.13-.025 5.46 5.46 0 0 0-.84-.282c-.064-.014-.099-.048-.103-.114-.01-.009-.014-.018-.01-.026.003-.008.007-.012.01-.012v-.039l.077-.077c.036.05.092.064.147.08.114.034.227.079.343.102.126.026.243.067.356.126.016.008.034.022.052.023.149.008.27.093.402.15.051.02.119 0 .156.056" fill="#b3172b"/><path d="m17.3 18.643.039-.039-.039.039" fill="#c0172e"/><path d="M17.453 18.375v.037h-.037l.037-.037" fill="#b91a2d"/><path d="M14.464 11.56c-.01.009-.02.023-.03.023-.142-.01-.237.06-.308.176-.019.033-.052.056-.08.082l-2.328 2.33c-.12.122-.272.21-.383.343a.73.73 0 0 1-.081.081c-.05.045-.033.09-.007.138l-.167.004c-.038 0-.075.003-.1.037-.065 0-.128.001-.192.003-.059.039-.134-.01-.192.034a1.279 1.279 0 0 0-.383.035c-.032-.053-.014-.103.02-.14.097-.103.191-.208.3-.296a2.16 2.16 0 0 0 .2-.175c.487-.486.966-.983 1.465-1.457.295-.28.591-.56.879-.848.045-.045.096-.086.125-.143a.2.2 0 0 1 .182-.12c.015 0 .03-.02.046-.03.227-.006.45-.052.679-.05.105.002.21-.036.319-.034.012.003.024.006.036.007" fill="#f5a706"/><path d="M18.488 18.183c-.042-.002-.088.007-.115-.038.042.001.087-.007.115.038m.076.039c-.032-.001-.06-.008-.076-.039.032 0 .06.008.076.039" fill="#a7192a"/><path d="M15.04 14.437a19.177 19.177 0 0 0-.221-.004c-.055-.01-.114.009-.166-.016-.01-.024.001-.04.015-.053.354-.33.658-.706 1.002-1.045.58-.572 1.153-1.15 1.729-1.726a.66.66 0 0 0 .17-.227c.065-.033.131-.07.2-.1a.787.787 0 0 0 .336-.283c.02-.016.044-.028.058-.048.127-.183.249-.37.377-.551.125-.177.249-.353.39-.517.05-.057.089-.124.132-.187a.41.41 0 0 0 .039-.038c.02-.015.045-.026.062-.044.153-.172.334-.311.512-.454.028-.01.062-.016.086-.033.168-.113.36-.169.548-.232.017-.006.036-.004.055-.005.101.001.194-.046.298-.039.107.007.213.004.315.041.018.118-.083.164-.146.226-1.252 1.255-2.513 2.499-3.753 3.764-.468.478-.938.954-1.399 1.438a.565.565 0 0 1-.102.085l-.269.041c-.075.059-.15.06-.23.006l-.037.001" fill="#f19308"/><path d="M17.607 17.915h.076c-.001.042.007.088-.038.115-.016-.038-.04-.072-.038-.115" fill="#ae1729"/><path d="m9.906 14.883-.018.004-.018-.002c.011-.019.023-.02.036-.002" fill="#f7b014"/><path d="M13.312 14.557a.844.844 0 0 1 .045-.003.198.198 0 0 0 .058.012.06.06 0 0 1 .041.04c.018.06-.004.113-.024.167-.321.894-.646 1.786-.974 2.678a.39.39 0 0 1-.099.16l-.013.007-.014-.004c-.174-.022-.192-.043-.144-.198.025-.08.062-.154.09-.232.125-.346.246-.693.373-1.039.095-.263.197-.523.294-.785.05-.137.095-.277.143-.415.024-.072.05-.144.078-.215.035-.09.025-.106-.08-.109h-.152c-.028 0-.056-.004-.074-.029.098-.004.198-.008.295-.014.05-.03.107-.003.157-.021" fill="#c3c1bf"/><path d="m13.432 14.583-.039-.001c-.008-.007-.01-.014-.008-.02.003-.007.006-.01.008-.01l.04-.015c.089-.033.186.013.273-.03a.82.82 0 0 0 .07-.003l.117.01a.13.13 0 0 1 .012.125c-.069.176-.13.356-.196.534-.024.066-.05.13-.075.196l-.417 1.14c-.059.162-.114.323-.173.484-.045.124-.083.252-.138.375a.383.383 0 0 0-.049.2l-.068.005c-.233.029-.255.01-.176-.21.278-.78.565-1.554.845-2.333.024-.066.043-.134.074-.196.064-.126.018-.201-.1-.251" fill="#cbcac8"/><path d="m13.432 14.583.037-.001c.222-.004.196.016.137.183-.137.388-.281.774-.424 1.16-.052.142-.098.286-.153.428-.136.355-.259.714-.386 1.072-.014.04-.02.084-.029.125.06.033.12.013.175.023-.14.05-.286.035-.43.038.053-.224.152-.43.227-.646.02-.06.047-.118.067-.178.13-.384.27-.765.418-1.144.082-.213.152-.431.23-.646.036-.101.077-.2.111-.303.012-.035.014-.074.02-.111" fill="#c6c5c3"/><path d="M19.066 14.277a.18.18 0 0 1-.007.031c-.048.061-.118.058-.185.06-.128-.002-.256.013-.382-.016-.084-.036-.071-.094-.033-.156a.54.54 0 0 1 .087-.1c.89-.894 1.737-1.83 2.662-2.688.462-.43.864-.917 1.33-1.341.058-.053.1-.14.201-.12a.58.58 0 0 1 .039 0 .321.321 0 0 0 .038.039l.038.038.039.039.037.038.039.038v.039c-.422.405-.782.87-1.23 1.251-.297.252-.554.548-.834.819-.615.593-1.177 1.24-1.792 1.833-.053.051-.154.104-.047.196" fill="#ee810a"/><path d="M22.74 9.947c-.035.029-.072.053-.103.085-.208.207-.426.404-.618.624-.164.188-.327.376-.512.54-.653.58-1.24 1.227-1.867 1.833-.35.413-.75.779-1.128 1.165-.032.032-.062.065-.063.114-.09.088-.197.056-.301.044-.084-.036-.071-.094-.034-.155.023-.039.056-.07.088-.101 1.357-1.408 2.745-2.785 4.13-4.167.068-.07.13-.164.254-.135a.409.409 0 0 1 .153.153" fill="#ee820a"/><path d="M22.586 9.794a.634.634 0 0 0-.2.142 3035.251 3035.251 0 0 1-3.107 3.108c-.335.411-.735.758-1.101 1.139-.035.037-.074.07-.074.128-.067.07-.15.056-.232.037-.06-.026-.066-.071-.041-.125a.364.364 0 0 1 .081-.105c1.438-1.485 2.902-2.944 4.365-4.404.03-.03.062-.063.105-.08.02-.007.035-.005.05.007.013.014.027.025.04.038a.25.25 0 0 1 .114.115" fill="#ef8509"/><path d="M22.395 9.641c-.032.065-.09.108-.138.158-1.028 1.027-2.055 2.057-3.085 3.082-.217.216-.402.46-.626.67-.219.204-.425.422-.637.634-.037.036-.074.072-.073.128-.038.043-.085.043-.134.025-.05-.03-.045-.072-.024-.116.021-.047.059-.082.095-.119 1.444-1.495 2.922-2.96 4.392-4.43.044-.045.085-.098.153-.11l.039.002.038.038c.009.009.012.017.009.025-.003.009-.006.013-.01.013" fill="#ef8509"/><path d="M22.395 9.641v-.038l.038.038z" fill="#ef8609"/><path d="m22.93 10.101-.037-.038.038.038" fill="#ee820a"/><path d="M22.471 9.68c-.013-.013-.026-.025-.038-.04.012.015.025.027.038.04" fill="#ef8609"/><path d="m22.893 10.063-.039-.039.039.039m-.039-.039-.038-.038.038.038m-.038-.038-.039-.038.039.038" fill="#ee820a"/><path d="M19.066 14.277c-.042-.007-.089.012-.128-.02-.002-.082.058-.125.107-.174.22-.22.45-.434.66-.665.583-.634 1.198-1.236 1.811-1.84.24-.236.502-.452.73-.701.174-.187.338-.38.522-.557a.62.62 0 0 1 .2-.142c.012.013.027.025.04.038l.038.039c.11.143.259.255.345.42a.141.141 0 0 0-.005.027c-.116.211-.296.366-.47.523-.527.48-1.022.992-1.51 1.51a46.503 46.503 0 0 1-1.54 1.538l-.8.004" fill="#ed7d0a"/><path d="m23.007 10.216-.037-.039.037.039m.039.039-.039-.04.039.04" fill="#ee820a"/><path d="M23.39 10.676a.34.34 0 0 1 .038.038c-.033.008-.048-.002-.037-.038z" fill="#ed7d0a"/><path d="m23.39 10.676.039.038.038.076c.013.012.024.028.038.039.087.142.196.27.268.42-.149.185-.351.31-.514.48a205.6 205.6 0 0 1-2.42 2.473.352.352 0 0 1-.09.068l-.882.003c0-.066.048-.102.088-.142l.542-.542c.234-.235.478-.461.7-.706.444-.485.916-.941 1.376-1.411.165-.17.364-.3.52-.478.07-.082.157-.149.212-.246.017-.03.056-.048.085-.072" fill="#ec780b"/><path d="M20.749 14.27a.652.652 0 0 1 .158-.212c.464-.462.938-.914 1.386-1.392.365-.39.74-.768 1.116-1.146.108-.108.228-.2.365-.27l.037.039c.027.063.074.118.078.19-.08.074-.16.144-.238.22-.153.151-.311.3-.458.459-.625.676-1.285 1.32-1.936 1.973-.04.04-.088.075-.088.14h-.42" fill="#ec740b"/><path d="M21.705 9.143a.58.58 0 0 1 .039 0c.026.044.074.054.115.077.01.014.025.024.038.039h.038c.011.013.027.024.038.038.056.031.125.045.154.114.055.104-.033.152-.087.206-.271.278-.547.55-.822.825-.783.784-1.574 1.56-2.348 2.353-.489.5-.976 1.005-1.46 1.509a.193.193 0 0 1-.062.043c-.147.042-.3-.004-.446.036a.563.563 0 0 1-.178.018.215.215 0 0 1-.11-.032c-.037-.041-.026-.082-.002-.124.027-.044.064-.078.1-.115 1.589-1.642 3.212-3.249 4.827-4.865.049-.048.09-.108.166-.122" fill="#ef8809"/><path d="M17.377 14.31c.001-.075.058-.111.103-.156.27-.27.553-.53.807-.813.594-.659 1.242-1.263 1.862-1.893.617-.627 1.244-1.245 1.865-1.868.048-.048.113-.087.113-.169.095.012.144.081.192.153-.036.071-.099.117-.153.17-1.08 1.083-2.163 2.164-3.244 3.246-.365.427-.777.807-1.17 1.207-.035.036-.07.072-.069.13-.043.045-.098.045-.155.047-.057-.002-.113-.003-.15-.055" fill="#ef8609"/><path d="m21.973 9.297-.038-.039.038.039m-.076-.039-.039-.038.039.038m-.192-.115c-.035.071-.097.116-.151.17-1.143 1.144-2.285 2.29-3.432 3.429-.245.242-.459.51-.706.75-.247.24-.487.485-.73.729-.036.036-.075.07-.075.126-.106.099-.236.043-.355.059-.126-.005-.252.001-.378-.005l-.031-.005-.078.002-.191-.009a.622.622 0 0 1 .156-.214c.303-.3.617-.591.904-.908.674-.74 1.404-1.425 2.106-2.137.703-.713 1.414-1.416 2.122-2.124.04-.041.088-.076.112-.13h.038c.019.025.058.011.076.037.22.036.43.095.613.23" fill="#f08e09"/><path d="M21.092 8.914c-.031-.001-.06-.008-.076-.038h.076z" fill="#f19308"/><path d="M10.596 14.811c.055-.057.126-.03.192-.034-.055.058-.127.027-.192.034" fill="#dc6d12"/><path d="M16.956 17.335c-.293.014-.586.047-.88.038.004-.073.065-.077.11-.077.144-.001.192-.092.234-.21.289-.816.591-1.628.89-2.442.036-.1.03-.217.108-.302.04-.013.084-.007.126-.008.14 0 .28-.001.421.001.11.07.048.16.02.235-.27.74-.533 1.483-.809 2.22-.069.183-.107.38-.22.545" fill="#f7f7f6"/><path d="M15.884 17.376a.444.444 0 0 1-.181.008c-.017.01-.034.02-.052.024-.278.046-.337-.014-.244-.274.31-.861.621-1.722.939-2.58.024-.066.048-.132.111-.174.082-.017.165-.004.248-.008h.061c.235-.003.255.022.171.25-.318.868-.634 1.736-.944 2.605-.021.06-.046.12-.11.15" fill="#fefefe"/><path d="M15.884 17.376c.024-.065.05-.13.072-.195l.449-1.232c.065-.178.118-.36.19-.537.105-.264.195-.535.291-.804a2.42 2.42 0 0 0 .05-.143c.013-.047-.003-.068-.057-.072-.039-.003-.077-.001-.115-.001-.012-.008-.016-.016-.012-.023.004-.007.008-.01.012-.01a2.55 2.55 0 0 0 .116-.014 2.19 2.19 0 0 1 .535.005.662.662 0 0 1-.06.314c-.033.083-.063.166-.095.25-.134.363-.269.726-.401 1.09-.076.209-.147.42-.222.629-.07.197-.146.393-.21.591-.027.081-.068.115-.15.117-.068.002-.141-.023-.2.032a.56.56 0 0 1-.193.003" fill="#fbfbfa"/><path d="M16.956 17.335c0-.051 0-.1.02-.15l.282-.768c.124-.334.248-.667.37-1 .06-.161.115-.322.174-.484.045-.126.083-.253.138-.376.027-.062.058-.128.049-.201.143-.047.288-.016.432-.02.114-.003.096.082.08.15-.049.185-.127.36-.191.54-.255.707-.52 1.41-.766 2.12-.044.126-.101.194-.246.177a.63.63 0 0 0-.265.011l-.077.001" fill="#f2f2f2"/><path d="M17.033 17.334c.06-.054.134-.03.202-.031.227-.006.186.02.262-.19.144-.4.292-.798.438-1.198.052-.143.099-.287.154-.43.12-.308.226-.62.337-.93.015-.042.03-.085.04-.128.013-.046-.005-.072-.057-.073-.14 0-.28 0-.42.002a85.845 85.845 0 0 0-.47-.009c.001-.016.01-.025.024-.029a.223.223 0 0 0 .14-.002.33.33 0 0 0 .153-.002c.09.01.18.01.269-.003.115.01.23.007.344-.002l.422.01c.055.065.027.134.003.199-.317.9-.652 1.794-.975 2.691a.316.316 0 0 1-.063.095l-.165.03c-.12-.02-.237.001-.356 0h-.282" fill="#efefef"/><path d="m16.459 14.395-.324.874c-.058.154-.11.311-.168.464-.138.363-.262.73-.391 1.095-.056.156-.113.31-.167.467-.02.057 0 .08.065.082.075.003.151.004.229.006a.156.156 0 0 0-.014.027c-.154.056-.312.011-.467.025-.133-.086-.053-.197-.022-.288.165-.463.335-.924.503-1.386.143-.396.288-.791.43-1.187.073-.2.111-.22.326-.18" fill="#f9f9f9"/><path d="m15.194 17.412.494-.002c-.025.048-.072.045-.116.045l-.612-.003a.116.116 0 0 1 .013-.028.095.095 0 0 1 .046-.04.183.183 0 0 1 .175.028" fill="#991828"/><path d="m19.368 14.323.574-.002c.054.076.01.149-.016.218-.317.869-.636 1.737-.945 2.609-.022.06-.041.122-.11.148-.178.01-.357.015-.537.003-.045-.051-.03-.107-.01-.162.33-.918.665-1.835 1-2.752a.166.166 0 0 1 .044-.062" fill="#e8e7e7"/><path d="M19.368 14.323c.011.092-.027.174-.057.258-.071.196-.146.392-.219.588-.184.5-.37.998-.553 1.499-.067.184-.116.376-.197.556-.01.021-.006.05-.008.075a3.448 3.448 0 0 1-.498.006c0-.119.054-.222.091-.33.066-.192.146-.38.215-.57.132-.366.255-.733.39-1.097.107-.285.216-.57.312-.86a.335.335 0 0 0 .026-.129l.189-.011.31.015" fill="#edecec"/><path d="M18.871 17.296c.014-.035.029-.07.042-.106.16-.442.323-.883.482-1.326.074-.202.142-.408.214-.61l.322-.878c.006-.018.008-.037.012-.055l.46-.002c.046.052.028.107.009.162-.334.917-.67 1.832-1 2.752-.008.024-.026.044-.043.063-.166.01-.332.01-.498 0" fill="#e4e4e3"/><path d="M19.369 17.296c-.012-.087.022-.163.05-.24.083-.233.172-.464.256-.696.152-.41.306-.82.45-1.233.086-.246.174-.491.27-.733.009-.022.006-.049.008-.075h.421c.041.049.016.097-.002.143-.333.881-.643 1.77-.972 2.651-.024.065-.043.134-.098.183-.128.01-.256.01-.383 0" fill="#e1e0df"/><path d="m21.244 14.32.381.002c-.381.913-.684 1.855-1.032 2.78-.027.071-.046.146-.114.194h-.343c-.033-.08.004-.15.029-.221.302-.851.608-1.702.926-2.546.031-.083.06-.17.153-.209" fill="#dbdad9"/><path d="M24.08 14.391c.011.092-.026.175-.055.258-.038.108-.08.215-.119.322-.129.344-.255.688-.383 1.034-.068.185-.122.373-.197.556-.083.199-.143.406-.216.61a.343.343 0 0 0-.026.13c-.115.01-.23.01-.345-.002.002-.026 0-.053.007-.076.12-.321.241-.64.36-.962.054-.15.104-.3.16-.449.136-.354.259-.715.387-1.074.033-.089.066-.178.101-.266.02-.052.056-.082.116-.08h.21" fill="#c7c6c4"/><path d="m20.48 17.296.317-.9.195-.538c.164-.454.328-.908.491-1.364a.328.328 0 0 1 .142-.173l.383.002c-.023.01-.045.027-.068.028-.052.004-.08.034-.099.077-.031.076-.064.151-.092.229-.128.357-.253.715-.383 1.072-.191.523-.386 1.045-.579 1.567z" fill="#d9d8d7"/><path d="M21.244 14.32c-.093.167-.157.346-.222.525a254.92 254.92 0 0 0-.579 1.591l-.275.79c-.008.025-.021.046-.032.07h-.193c-.053-.077-.008-.15.016-.217.309-.861.62-1.721.937-2.578.03-.08.073-.148.157-.181z" fill="#dedddc"/><path d="M21.053 14.32a.88.88 0 0 0-.13.252c-.111.31-.23.619-.346.927l-.057.162c-.127.373-.263.743-.404 1.11-.066.172-.116.35-.172.525h-.192c-.007-.074.027-.138.05-.203.094-.263.193-.526.29-.788.123-.333.248-.668.37-1.002.049-.131.093-.264.142-.395.072-.196.146-.392.22-.589l.229.001" fill="#dedddc"/><path d="M13.312 14.557c-.047.041-.104.021-.157.021a.103.103 0 0 0 .011-.028l.146.007" fill="#bebdbb"/><path d="M13.706 14.508c-.088.043-.18.03-.272.029.023-.024.052-.031.085-.031l.187.002" fill="#f39d07"/><path d="M13.393 14.552v.03l-.036-.028a.038.038 0 0 1 .036-.002" fill="#c6c5c3"/><path d="M15.079 14.436a.793.793 0 0 1 .23-.006c-.004.044.001.092-.013.132-.115.315-.235.628-.352.942l-.169.464-.388 1.091c-.046.131-.098.26-.147.39-.032.002-.064.006-.096.005-.085-.005-.115-.042-.09-.125.05-.157.1-.314.157-.47.133-.365.27-.727.404-1.091.123-.335.25-.668.37-1.002.038-.108.063-.22.094-.33" fill="#e5e4e3"/><path d="m15.002 17.42-.014.008-.015-.004a14.631 14.631 0 0 0-.2-.011c.037-.101.072-.203.11-.304.18-.476.336-.96.527-1.432.068-.171.114-.35.183-.523.088-.217.161-.441.238-.664.01-.03.01-.062.016-.093l-.004-.013c.073-.02.147-.01.22-.009.074.069.028.145.004.211-.324.89-.644 1.781-.97 2.67a.463.463 0 0 1-.095.164" fill="#f3f3f2"/><path d="M15.002 17.42c0-.046.008-.088.025-.13.075-.196.146-.392.219-.589l.39-1.052c.063-.173.127-.346.183-.521.08-.248.192-.484.256-.737.05-.038.116-.003.167-.034.123.01.246.004.369-.01l.115.012c.01.007.012.014.01.021-.004.007-.007.011-.01.011l-.267.004c-.173-.018-.208-.004-.275.184-.144.406-.297.81-.444 1.216-.074.202-.14.407-.215.609-.092.256-.19.51-.282.768-.028.077-.061.155-.05.24a.5.5 0 0 1-.191.008" fill="#f6f6f6"/><path d="m17.543 14.318-.024.029a.16.16 0 0 0-.104.002c-.178 0-.356-.002-.535-.004.035-.035.08-.03.123-.03l.375-.006.165.01" fill="#f08e09"/><path d="M16.726 14.391v-.032h.038v.032z" fill="#f9f9f9"/><path d="m16.242 14.357-.167.034-.231-.008c.028-.028.065-.031.102-.03.1 0 .197.002.296.004" fill="#f19308"/></g></svg>