<svg height="36" viewBox="0 0 36 36" width="36" xmlns="http://www.w3.org/2000/svg"><mask id="a" fill="#fff"><path d="M2.344 0C.71.076-.155 1.126.023 1.567l1.105 1.819c.564.928 1.452.949 1.745.949h3.062L2.364 0z" fill-rule="evenodd"/></mask><mask id="b" fill="#fff"><path d="M0 28h17.139V0H0z" fill-rule="evenodd"/></mask><g fill="none" fill-rule="evenodd"><path d="M18 0c2.837 0 5.52.656 7.907 1.825C31.884 4.753 36 10.895 36 18c0 9.942-8.058 18-18 18-9.94 0-18-8.057-18-18C0 8.06 8.06 0 18 0z" fill="#f2f4f7" fill-rule="nonzero"/><path d="M2.344 0C.71.076-.155 1.126.023 1.567l1.105 1.819c.564.928 1.452.949 1.745.949h3.062L2.364 0z" mask="url(#a)" transform="translate(15 16)"/><path d="M9.826 6.421c0-.879.716-1.596 1.596-1.596h12.296c.893 0 1.609.717 1.609 1.596v23.157a1.6 1.6 0 0 1-1.61 1.596H11.423c-.88 0-1.596-.716-1.596-1.596z" fill="#fff"/><path d="M10.488 9.153V6.421c0-.514.42-.934.934-.934h12.296a.94.94 0 0 1 .947.934v2.732z" fill="#004990"/><path d="M1.488 22.183h14.176V5.816H1.488z" fill="#004990" mask="url(#b)" transform="translate(9 4)"/><path d="M12.675 3.815a.792.792 0 0 0 .257.216c.23.122.434.162.649.162.339 0 .542-.149.542-.365 0-.258-.258-.298-.65-.351-.5-.068-.77-.298-.77-.704.013-.406.392-.718.946-.718.378 0 .636.082.798.163v.528c-.054-.095-.176-.163-.297-.217a1.565 1.565 0 0 0-.501-.081c-.27 0-.433.108-.433.244 0 .229.217.257.69.352.474.094.758.297.744.716-.014.487-.392.812-1.07.812-.297 0-.675-.054-.905-.176zm-8.049.107c-.121-.229-.215-.405-.392-.487.379-.08.568-.297.568-.622 0-.31-.135-.554-.391-.649-.162-.068-.367-.068-.678-.068H2.49c.122.081.189.325.189.541v1.367c0 .202-.067.46-.19.527h.892c-.121-.067-.188-.325-.188-.527V3.57h.378c.19 0 .298.068.379.217.135.217.23.514.393.744h.716c-.215-.149-.325-.379-.433-.609M4.275 2.84c0 .244-.203.338-.514.338h-.568v-.69h.568c.31 0 .514.095.514.352m1.732 1.123c-.148-.135-.216-.352-.216-.649 0-.285.068-.5.216-.649a.71.71 0 0 1 .514-.203.71.71 0 0 1 .513.203c.15.148.23.364.23.65 0 .296-.08.513-.23.648a.71.71 0 0 1-.513.203.71.71 0 0 1-.514-.203m.514.636c.337 0 .623-.095.838-.285.258-.216.433-.54.433-1 0-.446-.175-.785-.433-1.002-.215-.176-.501-.27-.838-.27-.34 0-.622.094-.84.27-.256.217-.432.556-.432 1.002 0 .46.176.784.432 1 .218.19.515.285.84.285m3.517-.69c-.136.177-.42.23-.73.23h-.474V2.638c0-.203.067-.46.176-.541h-.88c.122.08.19.338.19.54v1.367c0 .217-.068.447-.19.528h1.826zm2.204 0c-.136.177-.42.244-.73.23h-.487V2.638c0-.203.067-.46.19-.541h-.88c.12.08.19.338.19.54v1.367c0 .217-.07.46-.19.54h1.812z" fill="#fff" mask="url(#b)" transform="translate(9 4)"/><path d="M.826 2.421c0-.879.716-1.596 1.596-1.596h12.296c.893 0 1.609.717 1.609 1.596v23.157a1.6 1.6 0 0 1-1.61 1.596H2.423c-.88 0-1.596-.716-1.596-1.596zm16.313 0A2.42 2.42 0 0 0 14.718 0H2.422A2.42 2.42 0 0 0 0 2.421v23.157A2.42 2.42 0 0 0 2.422 28h12.296a2.42 2.42 0 0 0 2.42-2.422z" fill="#004990" mask="url(#b)" transform="translate(9 4)"/><path d="M1.488 22.847v2.73c0 .517.42.935.934.935h12.296a.938.938 0 0 0 .947-.934v-2.731z" fill="#004990" mask="url(#b)" transform="translate(9 4)"/><g fill="#fff"><path d="M7.561 19.573v-3.639c.352-.013.69-.027 1.028-.054-.122-.285-.243-.568-.392-.838-.202.026-.417.026-.635.04v-.757c-.474.108-.988.19-1.515.243v5.005c0 1.108-.515 1.406-.826 1.61h3.165c-.295-.204-.824-.502-.824-1.61m7.358 1.596c-.257-.243-.583-.622-.744-1.365-.297-1.367-.92-3.328-2.232-4.79 1.286-.702 2.07-1.813 2.07-3.178.012-.974-.488-2.001-1.38-2.61a3.895 3.895 0 0 0-1.353-.529c.19.406.311.839.338 1.273.554.432.853 1.095.853 1.893 0 1.014-.514 2.204-2.313 2.813.148.284.296.582.418.865l.286-.08c.838.974 1.513 2.502 1.716 3.922.15 1.028-.216 1.543-.458 1.786z" mask="url(#b)" transform="translate(9 4)"/><path d="M11.768 19.532c-.27-.243-.594-.622-.744-1.366-.296-1.366-.892-3.287-2.081-4.654.052-.026.093-.04.146-.067 1.353-.69 2.18-1.84 2.18-3.247.012-.987-.489-2-1.38-2.61-.703-.473-1.65-.662-2.854-.662H2.477c.31.202.824.5.824 1.608v9.39c0 1.121-.513 1.405-.824 1.608H5.64c-.297-.203-.825-.487-.825-1.609v-3.64c1.11 0 2.15-.135 3.03-.364.798.96 1.394 2.448 1.583 3.814.135 1.03-.217 1.556-.46 1.8zm-6.953-6.087v-5.68h2.151c.785.013 1.366.175 1.826.5.608.432.934 1.122.934 1.947 0 1.393-.96 3.165-4.91 3.233z" mask="url(#b)" transform="translate(9 4)"/><path d="M7.561 12.634V9.428h1.705a1.753 1.753 0 0 0-.634-.853h-3.41c.31.203.825.488.825 1.61v2.827c.569-.08 1.082-.202 1.515-.378m3.098 12.053c0 .459.27.81.744.81.338 0 .649-.093.784-.256l-.082.528c-.121.054-.337.12-.688.12-.758 0-1.286-.445-1.286-1.202 0-.405.163-.718.406-.92.216-.19.514-.3.879-.3.352 0 .568.07.689.137v.5c-.147-.161-.364-.242-.702-.242-.473 0-.744.35-.744.825m-6.128.567c-.108-.216-.203-.393-.365-.459.352-.068.527-.285.54-.582 0-.311-.134-.541-.378-.637-.15-.053-.351-.053-.65-.053H2.504c.109.067.176.297.176.513v1.3c0 .189-.067.433-.176.514h.839c-.108-.081-.176-.325-.176-.514v-.42h.35c.19 0 .299.08.38.216.122.204.217.486.365.704l.69.014c-.216-.161-.31-.367-.42-.596m-.337-1.028c0 .23-.19.325-.487.325h-.541v-.649h.54c.299 0 .488.081.488.324m1.648 1.07c-.135-.123-.203-.326-.203-.609 0-.285.068-.487.203-.623a.674.674 0 0 1 .501-.189c.203 0 .365.067.487.189.135.136.203.338.203.623 0 .283-.068.486-.203.609a.674.674 0 0 1-.487.201.685.685 0 0 1-.5-.201m.487.607c.324 0 .595-.093.797-.27.243-.202.421-.515.421-.946 0-.433-.178-.745-.42-.962a1.258 1.258 0 0 0-.798-.257c-.312 0-.582.096-.785.257a1.24 1.24 0 0 0-.419.962c0 .431.176.744.42.946.202.177.472.27.784.27m3.029-2.38c.055.04.082.08.068.135a.44.44 0 0 1-.08.218l-.46.662-.46-.677c-.055-.08-.108-.161-.095-.23.013-.041.027-.081.081-.108h-.933c.161.067.243.189.364.366l.758 1.068v.379c0 .189-.068.433-.176.5h.84c-.11-.067-.178-.311-.178-.5v-.38l.691-.973c.108-.135.257-.38.42-.46zm4.492 1.947h-.596v-.635h.894l.053-.352h-.947v-.58h.528c.298 0 .541.012.663.133v-.513h-1.853c.108.08.175.325.175.513v1.3c0 .202-.067.433-.175.514h1.867l.08-.57c-.135.177-.391.19-.689.19" mask="url(#b)" transform="translate(9 4)"/></g></g></svg>