<svg width="36" height="36" fill="none" xmlns="http://www.w3.org/2000/svg"><path d="M18 0c2.837 0 5.52.656 7.907 1.825C31.884 4.753 36 10.895 36 18c0 9.942-8.058 18-18 18-9.94 0-18-8.057-18-18C0 8.06 8.06 0 18 0z" fill="#F2F4F7"/><path d="M6.336 13.649A1.55 1.55 0 0 1 7.513 13h2.355c-.36 0-.697.12-.961.336a1.5 1.5 0 0 0-.577.985c-.024.144-.024.313-.024.457v5.813a65.078 65.078 0 0 1-2.258-1.129v-4.949c-.024-.312.096-.6.288-.864z" fill="#96A0A1"/><path d="M9.748 13.36c.312-.048.624 0 .913.144.36.192.6.529.696.937.073.36 0 .745-.192 1.057a1.463 1.463 0 0 1-.937.6 1.6 1.6 0 0 1-.745-.095 1.411 1.411 0 0 1-.744-.745c-.168-.409-.144-.913.12-1.273.192-.337.528-.553.889-.625zm15.375 4.373c.336-.192.745-.24 1.105-.168.288.048.577.216.745.456-.12.096-.24.192-.36.264-.097-.096-.193-.192-.313-.24a1.08 1.08 0 0 0-1.009.072c-.216.144-.36.36-.456.6-.144.409-.072.89.192 1.226.288.36.793.48 1.225.312a.938.938 0 0 0 .409-.336c.12.096.24.168.36.264a1.4 1.4 0 0 1-1.105.529c-.264 0-.553-.048-.793-.192a1.59 1.59 0 0 1-.793-1.154 1.844 1.844 0 0 1 .217-1.129c.168-.192.36-.384.576-.504zm-10.354-.12h.408v2.618h1.37v.409h-1.802c.024-1.01.024-2.018.024-3.027zm8.576 0h.409v3.027h-.529c-.552-.817-1.105-1.658-1.657-2.475v2.475h-.409v-3.027h.529c.552.817 1.105 1.657 1.657 2.474v-2.474zm-11.171 0h1.946v.384h-1.537v.889h1.441v.384h-1.441v.961h1.61v.409h-2.019v-3.027zm4.805 0h.408v3.027h-.408v-3.027zm10.547 0h1.945v.384c-.504.024-1.033 0-1.537 0v.889c.48.024.961 0 1.442 0v.384h-1.418c0 .216-.024.409 0 .625v.336c.528-.024 1.081 0 1.61 0v.409h-2.019c-.023-1.01-.023-2.018-.023-3.027zm-17.538.36v.985h.697c.168-.024.336-.072.408-.216a.602.602 0 0 0 .024-.457.503.503 0 0 0-.36-.264c-.264-.048-.505-.048-.769-.048zm-.409-.36h1.154a.92.92 0 0 1 .6.216c.337.288.36.889.049 1.201-.12.144-.313.216-.505.24.288.457.576.913.84 1.37h-.528c-.24-.385-.456-.793-.672-1.177a.498.498 0 0 0-.097-.145h-.432c-.024.433 0 .89 0 1.322-.144-.024-.264 0-.409 0v-3.027zm9.13 1.921h1.105c-.192-.456-.36-.913-.553-1.37a32.79 32.79 0 0 0-.552 1.37zm.312-1.778c.024-.048.024-.096.072-.12h.385l1.297 3.027h-.48c-.097-.24-.193-.504-.313-.744h-1.417c-.097.24-.193.504-.289.744h-.504c.408-.985.84-1.946 1.249-2.907zm-12.853 4.06a.567.567 0 0 1 .769.097c-.048.024-.072.048-.12.096a.404.404 0 0 0-.529-.072c-.144.096-.144.312-.024.408.168.12.385.12.553.24.216.168.168.529-.048.649-.24.144-.601.096-.769-.144v-.024c.048-.024.096-.048.12-.097.12.193.409.265.6.097a.25.25 0 0 0 0-.384c-.168-.12-.408-.12-.576-.265-.192-.144-.168-.456.024-.6zm20.637.096c.288-.264.817-.288 1.057.048-.048.024-.072.072-.12.096a.57.57 0 0 0-.865 0c-.264.289-.216.793.096 1.01.24.168.625.12.793-.12.048.023.072.071.12.095-.264.36-.865.337-1.153.024-.265-.336-.24-.864.072-1.153zM7.13 21.889v-.12h1.176v.12h-.504v1.393h-.144c0-.36.024-.72 0-1.08v-.314h-.529zm1.417 1.369v-1.513h.912v.12h-.768v.552h.72v.12h-.72v.577h.817v.12c-.313.024-.625.024-.961.024zm1.321-1.513h.913v.12h-.769v.552h.745v.12h-.72v.6h.816v.121h-.961c-.024-.505-.024-1.01-.024-1.513zm1.297 0h.144v1.393h.697v.12h-.865c.024-.505.024-1.01.024-1.513zm4.613 0h.144v1.393h.697v.12h-.865c.024-.505.024-1.01.024-1.513zm1.057.816v-.816h.144v.889a.63.63 0 0 0 .12.408c.144.192.48.168.625 0a.625.625 0 0 0 .096-.36v-.913h.144v.96c0 .169-.072.36-.192.457-.168.12-.409.12-.6.072a.469.469 0 0 1-.289-.312c-.048-.144-.048-.264-.048-.385zm1.537.697v-1.513h.216c.169.408.337.816.53 1.224h.023c.168-.408.36-.816.529-1.224h.216v1.513h-.144c0-.36.024-.72 0-1.081v-.216c-.192.432-.384.889-.577 1.321h-.072a72.16 72.16 0 0 1-.576-1.321c-.025.432 0 .865 0 1.321-.049-.024-.096-.024-.145-.024zm1.922-1.513h.145v1.513h-.145v-1.513zm.626 0c.071.024.167-.048.215.048.288.432.6.841.89 1.273v-1.321h.143v1.513h-.192c-.288-.432-.6-.864-.913-1.297-.024.12 0 .24 0 .36v.937h-.144v-1.513zm1.632 0h.145v.937c0 .144.048.312.168.408.144.096.36.096.504 0 .12-.096.145-.264.168-.408v-.937h.145v.96c0 .169-.048.36-.192.481-.12.096-.313.12-.457.096a.502.502 0 0 1-.312-.168.738.738 0 0 1-.145-.457c-.024-.288-.024-.6-.024-.912zm1.538 1.513v-1.513h.216c.192.408.36.84.553 1.249.168-.409.36-.841.553-1.25h.216v1.514h-.144v-1.297l-.577 1.297h-.072c-.169-.384-.337-.769-.505-1.13l-.072-.143v1.273h-.168zm4.66-1.393a.542.542 0 0 0-.335.192.69.69 0 0 0-.025.89c.217.288.697.312.962.047.24-.24.24-.696 0-.937-.169-.168-.41-.24-.601-.192zm-.071-.12a.831.831 0 0 1 .769.192.839.839 0 0 1 .072 1.081c-.337.409-1.082.36-1.322-.12-.168-.312-.12-.768.168-.985.072-.096.193-.144.313-.168zm-14.199.985h.673c-.12-.265-.216-.529-.336-.793-.12.24-.216.528-.337.792zm-.384.528c.216-.505.432-1.01.673-1.513h.144c.216.504.432 1.008.625 1.513h-.169a2.932 2.932 0 0 0-.168-.408h-.793c-.048.144-.12.264-.168.408h-.144zm-1.417-.481c-.025.145.12.265.264.265.12 0 .192-.096.264-.168-.096-.12-.216-.216-.312-.313-.072.024-.192.096-.216.216zm.264-.72c-.072.024-.144.12-.096.192a.43.43 0 0 0 .12.168c.096-.024.216-.12.192-.264a.178.178 0 0 0-.216-.096zm-.216.096c.024-.192.264-.264.408-.168a.24.24 0 0 1 .072.336c-.048.072-.144.12-.216.168.072.096.168.193.264.265.048-.097.096-.169.144-.265h.12c-.072.12-.144.24-.192.36.072.097.168.169.265.265h-.145c-.072-.048-.12-.12-.168-.168-.072.048-.12.12-.192.168a.385.385 0 0 1-.36-.024c-.145-.072-.193-.288-.097-.408.049-.097.145-.145.217-.193-.072-.12-.144-.216-.12-.336zm17.129 1.105c-.096-.024-.096-.192 0-.192.048-.024.096.024.144.072v.096c-.048 0-.096.048-.144.024z" fill="#496B61"/></svg>