<svg width="36" height="36" fill="none" xmlns="http://www.w3.org/2000/svg"><path d="M18 0c2.837 0 5.52.656 7.907 1.825C31.884 4.753 36 10.895 36 18c0 9.942-8.058 18-18 18-9.94 0-18-8.057-18-18C0 8.06 8.06 0 18 0z" fill="#F2F4F7"/><path d="M10.224 14.077c-.065-.207-.23-.664-.381-.816-.226-.226-.584-.261-1.234-.261-.462 0-.766.17-.932.364-.136.157-.199.424-.27.653l-.77 2.313 1.102.003.507-1.529.508 1.536h1.103l-.4-1.21a1.765 1.765 0 0 0-.127-.32.23.23 0 0 0-.16-.12c-.014-.004.24-.003.47 0 .212 0 .426 0 .47-.004.159-.018.263-.143.114-.609zm-1.25.559h-.67l.492-1.477s.32.944.377 1.119c.064.193.019.356-.2.358z" fill="#D23252"/><path d="M13.082 18.007c.177-.126.56-.424.658-.615.145-.285.069-.636-.132-1.254-.143-.44-.4-.676-.635-.774-.192-.08-.463-.058-.705-.055l-2.437-.018.338 1.05 1.61.01-1.303.958.34 1.049 1.028-.756c.052-.036.19-.137.264-.219.075-.081.069-.16.067-.19-.002-.015.075.227.145.446.064.204.128.406.148.448.066.145.217.204.614-.08zm-.918-1.017c-.08-.24-.208-.636-.208-.636l1.558.01s-.8.597-.948.705c-.163.121-.333.128-.402-.079z" fill="#D23252"/><path d="M10.227 21.939c.175.13.577.402.789.436.315.05.625-.13 1.152-.513.374-.272.519-.59.54-.844.016-.207-.09-.46-.166-.685l-.737-2.325-.893.645.488 1.535-1.315-.944-.89.648 1.035.745c.051.038.19.137.29.183.1.046.172.017.2.004.015-.005-.193.143-.379.276a9.923 9.923 0 0 0-.38.28c-.117.108-.126.27.266.559zm.684-1.187c.203-.15.541-.394.541-.394l.471 1.485s-.815-.577-.963-.685c-.167-.117-.225-.276-.049-.406z" fill="#D23252"/><path d="M5.606 20.44c-.07.206-.205.671-.171.883.05.317.317.555.844.937.374.273.72.313.969.253.202-.047.409-.226.601-.368l1.983-1.42-.89-.65-1.31.939.493-1.543-.892-.647-.388 1.215c-.021.06-.073.224-.085.334a.23.23 0 0 0 .058.191c.01.012-.195-.139-.38-.275a7.963 7.963 0 0 0-.383-.275c-.138-.078-.295-.038-.449.425zm1.34.282.542.394-1.266.906.351-1.127c.063-.194.195-.3.373-.172z" fill="#D23252"/><path d="M5.604 15.58c-.218-.002-.703.014-.894.111-.285.146-.43.475-.63 1.093-.144.44-.075.781.058.998.109.18.341.32.538.459l1.962 1.447.343-1.046-1.297-.956c0 .002 1.618-.009 1.618-.009l.34-1.048-1.275.006c-.064-.002-.236 0-.343.022a.235.235 0 0 0-.164.114c-.007.015.072-.227.144-.445.067-.202.134-.405.144-.448.03-.157-.056-.293-.544-.297zm.145 1.363-.207.637-1.253-.925s.998-.012 1.18-.013c.205-.002.346.092.28.3z" fill="#D23252"/><path d="M15.963 16.885h.331c.167 0 .274.07.247.22-.027.148-.154.2-.374.2h-.28l.076-.42zm.057.886c.331 0 .363.091.313.37a1.34 1.34 0 0 0-.03.37h.72l.012-.066c-.084 0-.059-.093-.008-.37.077-.427-.053-.481-.267-.564.266-.066.415-.273.458-.517.076-.413-.128-.604-.852-.604H15.34l-.383 2.121h.711l.135-.74m1.546.739.383-2.12h1.77l-.09.495h-1.058l-.055.303h.896l-.089.495h-.896l-.06.333h1.1l-.088.495m1.228-1.155.084-.471h.202c.151 0 .375.027.34.223-.033.183-.164.248-.33.248h-.297zm-.209 1.155.119-.66h.359c.624 0 .954-.288 1.037-.745.079-.436-.173-.716-.798-.716h-1.046l-.383 2.12m2.601-2.12h.71l-.229 1.27c-.038.209-.027.388.265.388.256 0 .36-.16.402-.388l.228-1.27h.713l-.217 1.2c-.123.68-.499.976-1.22.976-.672 0-1.001-.25-.87-.98m3.45.038c.226 0 .39.012.356.197-.029.16-.167.195-.342.195h-.311l.071-.392h.226zm.157-.739c.152 0 .29.004.26.168-.023.124-.137.185-.278.185h-.295l.063-.353h.25zm-.197 1.626c.564 0 .966-.165 1.051-.639.041-.23-.05-.427-.274-.487.154-.085.328-.244.366-.462.077-.421-.292-.533-.782-.533h-1.036l-.382 2.12m2.358 0 .383-2.12h.712l-.294 1.626h.977l-.09.495m.324-.001.382-2.12h.712l-.383 2.12h-.711zm2.745-1.31c.02-.222-.1-.348-.323-.348-.25 0-.439.21-.513.62-.054.296-.038.576.324.576.229 0 .366-.156.43-.36h.684c-.162.549-.622.878-1.196.878-.717 0-1.074-.43-.949-1.118.123-.688.677-1.115 1.283-1.115.664 0 .977.321.937.867m-12.944 2.805c-.014.073-.006.212.238.212.133 0 .288-.03.32-.17.021-.103-.073-.13-.21-.163l-.136-.034c-.208-.05-.407-.097-.345-.386.032-.148.17-.407.607-.407.413 0 .466.265.433.426h-.27c.004-.058.012-.197-.234-.197-.107 0-.243.038-.268.157-.023.103.06.125.113.137l.311.08c.174.044.327.118.276.354-.087.396-.507.43-.625.43-.492 0-.517-.277-.481-.44m2.46-.678h-.715l-.061.277h.657l-.05.232h-.657l-.074.341h.746l-.05.234h-1.023l.286-1.316h.991m.411.578.077-.352h.35c.166 0 .176.102.16.173-.028.13-.11.18-.257.18h-.33zm-.436.738h.275l.113-.515h.29c.21 0 .205.069.165.249a.856.856 0 0 0-.027.266h.312l.007-.035c-.055-.023-.044-.07-.003-.262.054-.247.002-.287-.098-.334a.416.416 0 0 0 .276-.314c.025-.114.016-.371-.343-.371h-.68m2.041 0h.294l-.745 1.316h-.27l-.167-1.316h.303l.072.997h.003m.954.319h-.282l.287-1.316h.281l-.286 1.316zm1.315-.886c-.006-.08-.016-.227-.248-.227-.136 0-.354.087-.435.46-.052.236-.002.449.236.449.156 0 .284-.087.352-.247h.282c-.118.286-.353.486-.691.486-.359 0-.565-.237-.466-.692.1-.46.424-.695.77-.695.404 0 .509.272.481.466m1.248-.198h-.715l-.06.277h.657l-.051.232h-.657l-.075.341h.748l-.051.234h-1.022l.286-1.316h.99m.264.911c-.014.073-.006.212.238.212.134 0 .29-.03.319-.17.023-.103-.073-.13-.207-.163l-.139-.034c-.207-.05-.405-.097-.343-.386.033-.148.169-.407.606-.407.413 0 .466.265.434.426h-.271c.005-.058.013-.197-.233-.197-.107 0-.243.038-.27.157-.02.103.06.125.114.137l.311.08c.174.044.328.118.277.354-.088.396-.508.43-.626.43-.491 0-.515-.277-.48-.44" fill="#005583"/></svg>