<svg width="36" height="36" fill="none" xmlns="http://www.w3.org/2000/svg"><path d="M18 0c2.837 0 5.52.656 7.907 1.825C31.884 4.753 36 10.895 36 18c0 9.942-8.058 18-18 18-9.94 0-18-8.057-18-18C0 8.06 8.06 0 18 0z" fill="#F2F4F7"/><path d="M4 16.03v3.268h1.084v-2.816h.12c.278 0 .511.21.511.587 0 .384-.15.625-.549.625h-.015l.753 1.604h1.218l-.94-1.446c.42-.105.616-.407.616-.828 0-.618-.519-.995-1.09-.995H4zm5.378 1.882v-.482H8.355v-.624c0-.181.053-.294.196-.294h.947v-.483h-1.49c-.39 0-.736.257-.736.701v1.92c0 .4.256.648.602.648H9.55v-.482h-.925c-.18 0-.27-.083-.27-.226v-.678h1.022zm3.136.874v-2.758h-.541v1.636h-.016l-.782-1.242c-.165-.264-.323-.422-.647-.422-.511 0-.564.346-.564.61v2.688h.542v-2.094h.015l1.143 1.853c.113.188.226.27.451.27.339 0 .4-.255.4-.541zm3.48-2.274h.744v-.483h-1.037c-.647 0-1.129.362-1.129 1.047 0 .618.391.804.782.912l.287.072c.092.022.178.045.251.074.147.058.245.14.245.29 0 .37-.196.392-.496.392h-.918v.482h1.173c.67 0 1.18-.384 1.18-1.145 0-.663-.364-.854-.729-.956l-.268-.065a1.843 1.843 0 0 1-.233-.067c-.137-.053-.228-.131-.228-.282 0-.256.21-.271.376-.271zm-2.887 2.786h1.084V16.03h-1.084v3.27zm11.314-3.268h-1.09l.76 2.703c.105.377.3.595.714.595.421 0 .617-.294.714-.655l.309-1.152h.015l.308 1.242c.098.384.331.565.73.565.27 0 .459-.068.541-.346l.918-2.953h-.55l-.669 2.38h-.015l-.624-2.38h-1.09l.173.701-.466 1.641h-.015l-.663-2.342zm3.678 2.88h-.08v-.136h.091c.046 0 .095.01.095.065 0 .067-.05.072-.106.072zm-.08.246v-.19h.077l.116.19h.074l-.124-.193c.064-.008.113-.042.113-.12 0-.087-.051-.125-.155-.125h-.167v.438h.067zm.082.097a.306.306 0 0 1-.31-.317c0-.18.136-.315.31-.315.17 0 .306.135.306.315a.306.306 0 0 1-.306.317zm-.386-.317c0 .22.177.38.386.38a.379.379 0 1 0 0-.758.378.378 0 0 0-.386.378zm-7.075.362h.496l.204-.603h1.113l.188.603h1.083l-.88-2.673c-.106-.332-.249-.625-.647-.625-.451 0-.594.27-.715.655l-.842 2.643zm-3.165 0h1.084v-1.642h.744v1.642h1.083V16.03h-1.083v1.145h-.744V16.03h-1.084v3.27zm4.015-1.054.413-1.326h.016l.39 1.326h-.82z" fill="#F89728"/><path d="M32 16.072h-3.144v3.188H32v-3.188z" stroke="#F89728" stroke-width=".13"/><path d="M30.412 18.93c.854.007 1.401-.39 1.404-.935.002-.496-.656-.887-1.404-.899-.889-.015-1.373.403-1.373.9 0 .496.584.927 1.372.934z" stroke="#F89728" stroke-width=".13"/><path d="M31.417 18.651s-.407-.346-1.024-.357c-.57-.009-.97.313-.97.313" stroke="#F89728" stroke-width=".13"/><path d="M30.194 17.122v1.157" stroke="#F89728" stroke-width=".07"/><path d="M29.906 17.148v1.21" stroke="#F89728" stroke-width=".09"/><path d="M29.76 17.201v1.202" stroke="#F89728" stroke-width=".1"/><path d="M29.482 17.292v1.282" stroke="#F89728" stroke-width=".12"/><path d="M30.05 17.138v1.166" stroke="#F89728" stroke-width=".08"/><path d="M29.285 17.474s-.498.502.008 1.037v-1.052l-.008.015z" fill="#F89728"/><path d="M29.285 17.474s-.498.502.007 1.037v-1.052" stroke="#F89728" stroke-width=".07"/><path d="M30.424 17.788c-.052 0-.1-.02-.136-.053a.173.173 0 0 0-.04.111.177.177 0 0 0 .353 0 .174.174 0 0 0-.04-.11.204.204 0 0 1-.137.052zm.157-1.68h-.314l.04 1.587a.174.174 0 0 0 .234 0l.04-1.587z" fill="#F89728"/><path d="M29.361 17.364v1.217" stroke="#F89728" stroke-width=".12"/><path d="M29.616 17.223v1.267" stroke="#F89728" stroke-width=".11"/></svg>