<svg width="36" height="36" fill="none" xmlns="http://www.w3.org/2000/svg"><path d="M18 0c2.837 0 5.52.656 7.907 1.825C31.884 4.753 36 10.895 36 18c0 9.942-8.058 18-18 18-9.94 0-18-8.057-18-18C0 8.06 8.06 0 18 0z" fill="#F2F4F7"/><path d="M17.072 14.913h.613v1.84c0 .012.015 1.14 1.376 1.14h.478v-.766h-.462c-.429 0-.453-.336-.453-.374v-1.84h.915v-.779h-.915v-.987h-.94v.987h-.612v.779zm4.389 2.23a.807.807 0 0 1-.807-.806v-.498c0-.445.362-.807.807-.807h.22c.445 0 .806.362.806.807v.498a.808.808 0 0 1-.807.807h-.22zm1.881-.806v-.498c0-.916-.745-1.662-1.662-1.662h-.219c-.917 0-1.663.745-1.663 1.662v.497c0 .917.745 1.663 1.663 1.663h.219c.917 0 1.662-.745 1.662-1.662zm5.236 1.575.001-3.764h-.942l-.001 3.764h.942zm-1.348 0-1.454-1.931 1.382-1.834h-1.041l-1.383 1.834 1.455 1.93h1.04zm-3.406-4.762v4.76h.91l.001-4.76h-.91zm5.266.002-.001 4.76h.91l.001-4.76h-.91zm-15.644 2.136v2.62l.95.001v-2.62c0-.033.012-.32.439-.32h.615c.42 0 .445.276.446.306v2.634h.943v-2.62c0-.011-.016-1.143-1.389-1.144h-.615c-1.373 0-1.389 1.132-1.389 1.143zm14.662-1.36a.464.464 0 1 0 0-.928.464.464 0 0 0 0 .928zM12.22 15.294s.076.216-.012.429c-.002.003-.019.006-.05.007a85.84 85.84 0 0 1-1.658.016c.001-.048.015-.312.188-.501.137-.15.358-.233.657-.245.62-.024.84.167.875.294zm-2.161-.624c-.408.446-.413 1.002-.41 1.111l-.001.715c-.002.216-.01.794.49 1.184.293.23.7.346 1.23.346.441 0 .969-.081 1.586-.241l-.216-.825c-1.448.377-1.933.16-2.076.05-.13-.102-.157-.25-.162-.412.266.003.778-.002 1.683-.017a.86.86 0 0 0 .69-.328c.293-.37.225-.897.196-1.052-.046-.405-.462-1.106-1.759-1.052-.533.02-.954.196-1.251.52zm-3.103-.758h1.015c.445 0 .463.298.464.333v.94c-.001.03-.019.306-.455.31l-1.024.067v-1.65zm2.363 1.272v-.933c0-.011-.015-1.104-1.347-1.104H6.006l-.002 4.76h.951v-1.56l.436-.038 1.204 1.598H9.64l-1.27-1.684a1.11 1.11 0 0 0 .95-1.038" fill="#EC1D23"/><path d="M6 23.645h.911v-4.746H6v4.746zm14.778 0h.911v-4.746h-.91v4.746zm-5.185-4.505a.464.464 0 1 0 .929 0 .464.464 0 0 0-.929 0zm-3.81.464a.464.464 0 1 0 0-.928.464.464 0 0 0 0 .928zm6.042 2.935v-.132c0-.035.019-.332.462-.332h1.091v.554c-.206.045-.708.144-1.1.22-.435-.004-.453-.28-.453-.31zm2.426 1.105v-2.432c.001-.3-.096-1.28-1.35-1.28h-.491c-1.344 0-1.36 1.107-1.36 1.117h.848c0-.014.018-.355.512-.355h.49c.46 0 .479.316.479.352v.267h-1.092c-1.327 0-1.344 1.089-1.344 1.1v.126c0 .01.016 1.072 1.344 1.072.112 0 .712-.13 1.09-.216v.249h.875zm-4.666-3.753v3.752h.945l-.006-3.751h-.939zm-1.401-.007v-.987h-.94v.987h-.612v.779h.613v1.84c0 .012.015 1.14 1.376 1.14h.478v-.766h-.462c-.43 0-.453-.336-.453-.374v-1.84h.915v-.778h-.915zm-1.932 3.758.001-3.752h-.94v3.752h.94zm-2.394-2.626v2.626h.945l-.005-2.612c0-.012-.015-1.14-1.385-1.14h-.612c-1.37 0-1.385 1.127-1.385 1.14v2.611h.947V21.03c0-.033.013-.32.438-.32h.612c.42 0 .444.276.445.306" fill="#007CC5"/></svg>