<svg height="36" viewBox="0 0 36 36" width="36" xmlns="http://www.w3.org/2000/svg"><mask id="a" fill="#fff"><path d="M0 0h3.876v4.853H0z" fill-rule="evenodd"/></mask><mask id="b" fill="#fff"><path d="M0 0h3.97v4.74H0z" fill-rule="evenodd"/></mask><g fill="none" fill-rule="evenodd"><path d="M18 0c2.837 0 5.52.656 7.907 1.825C31.884 4.753 36 10.895 36 18c0 9.942-8.058 18-18 18-9.94 0-18-8.057-18-18C0 8.06 8.06 0 18 0z" fill="#f2f4f7" fill-rule="nonzero"/><g fill="#117aca"><path d="M2.323 1.987c-.853-.241-1.107-.381-1.107-.714 0-.241.207-.448.748-.448.31 0 .764.055 1.143.4.033.034.09.006.11-.011l.486-.488c.027-.025.014-.061-.015-.1C3.32.152 2.631 0 1.978 0 .988 0 .227.44.227 1.279c0 .86.59 1.233 1.704 1.553.637.182.99.322.99.66 0 .355-.4.52-.9.52-.53 0-1.006-.112-1.405-.513-.02-.025-.075-.014-.102.02l-.509.554c-.015.033 0 .066.021.085.468.5 1.196.696 1.93.696 1.033 0 1.92-.441 1.92-1.38 0-.908-.585-1.214-1.554-1.487" mask="url(#a)" transform="translate(4 16)"/><path d="M12.836 16.084h-.859c-.049 0-.083.042-.083.067v2.801c0 .605-.22.993-.98.993-.717 0-.977-.346-.977-.966v-2.806c0-.036-.028-.089-.078-.089h-.844c-.048 0-.08.053-.08.09v2.937c0 1.122.74 1.716 1.964 1.716 1.214 0 2.004-.609 2.004-1.735v-2.94c0-.026-.026-.068-.067-.068m3.237-.059c-1.218 0-2.007.608-2.007 1.732V20.7c0 .026.028.065.069.065h.858c.048 0 .083-.039.083-.065v-2.802c0-.606.22-.993.983-.993.713 0 .975.348.975.967v2.806c0 .036.028.087.077.087h.845c.047 0 .083-.05.083-.087v-2.94c0-1.119-.742-1.713-1.966-1.713m10.724.059h-.858c-.048 0-.08.042-.08.067v2.801c0 .605-.222.993-.986.993-.715 0-.975-.346-.975-.966v-2.806c0-.036-.028-.089-.075-.089h-.845c-.049 0-.083.053-.083.09v2.937c0 1.122.742 1.716 1.964 1.716 1.218 0 2.007-.609 2.007-1.735v-2.94c0-.026-.027-.068-.069-.068"/><path d="M2.005 0C.789 0 0 .608 0 1.732v2.943c0 .026.027.065.067.065h.858c.05 0 .083-.039.083-.065V1.873c0-.606.222-.993.981-.993.717 0 .977.348.977.967v2.806c0 .036.028.087.077.087h.845c.049 0 .083-.051.083-.087v-2.94C3.971.594 3.229 0 2.005 0" mask="url(#b)" transform="translate(28.029 16.025)"/><path d="M21.873 16.035h-.03c-.24-.006-.329-.01-.422-.01-1.216 0-2.007.608-2.007 1.733V20.7c0 .026.03.065.07.065h.86c.047 0 .08-.039.08-.065v-2.802c0-.606.221-.993.981-.993h.468c.084 0 .15-.067.15-.146v-.576a.149.149 0 0 0-.15-.148"/></g></g></svg>