<svg height="36" viewBox="0 0 36 36" width="36" xmlns="http://www.w3.org/2000/svg"><mask id="a" fill="#fff"><path d="M0 0h28v8.017H0z" fill-rule="evenodd"/></mask><g fill="none" fill-rule="evenodd"><path d="M18 0c2.837 0 5.52.656 7.907 1.825C31.884 4.753 36 10.895 36 18c0 9.942-8.058 18-18 18-9.94 0-18-8.057-18-18C0 8.06 8.06 0 18 0z" fill="#f2f4f7" fill-rule="nonzero"/><path d="M12.567 7.682a.509.509 0 0 1-.478.335h-1.267a.507.507 0 0 1-.493-.39L8.505 0h2.16l1.002 4.947L13.243.343a.507.507 0 0 1 .48-.343h1.11c.217 0 .41.138.48.343l1.576 4.604L17.89 0h2.159l-1.823 7.627a.508.508 0 0 1-.494.39h-1.267a.508.508 0 0 1-.477-.335l-1.711-4.726zM4.784 3.765H3.487a.292.292 0 0 0-.251.441L5.7 8.017h2.425L5.93 5.047c1.062-.138 1.943-.696 1.943-2.455C7.873.741 7.075 0 5.119 0H.659A.646.646 0 0 0 0 .66v7.357h2.109V1.526h2.706c.795 0 1.1.365 1.1 1.105 0 .632-.34 1.134-1.13 1.134zM21.644 0a.646.646 0 0 0-.66.66v6.697c0 .365.295.66.66.66H28V6.413h-4.98V4.698h4.13V3.16h-4.13V1.554h4.924V0z" fill="#1d4276" mask="url(#a)" transform="translate(4 14)"/></g></svg>