<svg height="36" viewBox="0 0 36 36" width="36" xmlns="http://www.w3.org/2000/svg"><mask id="a" fill="#fff"><path d="M0 0h18.257v24H0z" fill-rule="evenodd"/></mask><g fill="none" fill-rule="evenodd"><path d="M18 0c2.837 0 5.52.656 7.907 1.825C31.884 4.753 36 10.895 36 18c0 9.942-8.058 18-18 18-9.94 0-18-8.057-18-18C0 8.06 8.06 0 18 0z" fill="#f2f4f7" fill-rule="nonzero"/><path d="M18.257 21.061c0 .793-.324 1.254-.959 1.5C14.83 23.51 11.908 24 9.13 24c-2.78 0-5.702-.49-8.169-1.44-.635-.245-.96-.706-.96-1.499V0h18.257z" fill="#005daa" mask="url(#a)" transform="translate(9 6)"/><path d="M24.705 23.92c.28.158.366.367.368.37.013.015.043.01.043.01l.229-.778s-.41-.295-1.388-.295c-1.479 0-2.585.745-2.585 2.375 0 1.836 1.318 2.313 2.482 2.313 1.08 0 1.506-.344 1.506-.344v-.534s-.383.357-1.202.357c-.676 0-1.67-.309-1.69-1.818-.02-1.396.588-1.85 1.401-1.85.455 0 .681.107.836.195zm-12.313-.19h.707c.59 0 .898.173.898.798 0 .559-.403.89-1.048.89h-.557zm1.867 4.114h1.31l-1.672-2.138c.67-.18 1.172-.546 1.172-1.213 0-.782-.47-1.196-1.693-1.196h-2.531v.04a.758.758 0 0 1 .266.16c.177.174.23.44.23.8v3.547h1.05V25.83h.384zm3.977-.429h-.649v-1.857h.62c.85 0 1.176.254 1.176.891 0 .689-.426.966-1.147.966zm-.052-3.685c.515 0 .863.112.863.66 0 .586-.467.747-1 .747h-.46V23.73zm1.034 1.566c.461-.075.9-.433.9-.975 0-.488-.207-1.024-1.644-1.024h-2.426v.04c.073.022.19.082.266.156.165.162.22.402.226.72v3.632h2.01c1.106 0 1.906-.42 1.906-1.388 0-.786-.612-1.12-1.238-1.161z" fill="#fff"/></g></svg>