<svg width="36" height="36" fill="none" xmlns="http://www.w3.org/2000/svg"><path d="M18 0c2.837 0 5.52.656 7.907 1.825C31.884 4.753 36 10.895 36 18c0 9.942-8.058 18-18 18-9.94 0-18-8.057-18-18C0 8.06 8.06 0 18 0z" fill="#F2F4F7"/><path d="M20.94 27.518v-.884h-.79v.883h-.647v-2.258h.641v.783h.793v-.78h.652v2.256h-.649zm-3.055 0v-1.69h-.663v-.574H19.2v.566h-.663v1.698h-.651zm-4.871-10.88h1.416v7.171h-1.416v-7.172zm-2.875-.007h1.422v7.177H10.14v-7.177zm5.742.004h1.424v7.172h-1.424v-7.172zm2.867 5.752h7.167v1.419h-7.167v-1.42zm.002-2.88h7.17v1.422h-7.17v-1.422zm.002-2.871h7.167v1.42h-7.167v-1.42zm-8.611-2.88h7.167v1.424H10.14v-1.424zm0-2.872h7.164V12.3H10.14v-1.417zm-.014-2.881h7.19v1.429h-7.19V8.003zM20.177 8l.002 7.11c0 .021-.003.042-.005.07h-1.432V8.165c0-.056-.005-.11-.008-.164h1.443zm2.886 0c-.003.054-.009.108-.009.162v7.017h-1.428c-.004-.03-.01-.062-.01-.094V8.062c0-.02.003-.041.004-.062h1.443zm2.861 0v7.18h-1.44V8.163L24.482 8h1.442zM13.122 27.535c-.547-.133-.888-.602-.864-1.196.02-.514.311-.92.766-1.068.507-.165 1.07-.014 1.368.368.462.59.29 1.742-.702 1.909-.015.002-.23.057-.568-.013zm.855-1.14c.001-.302-.143-.518-.387-.579a.497.497 0 0 0-.623.381c-.088.356.066.693.352.764.368.092.657-.156.658-.567zm1.601 1.138c-.396-.098-.644-.334-.669-.74-.031-.507-.007-1.018-.007-1.536h.64v.14c0 .41-.002.818 0 1.227.002.25.12.359.37.36.252 0 .371-.109.375-.357.005-.41.001-.818.001-1.227v-.143h.64c.003.038.008.074.008.11 0 .422.002.844 0 1.265-.003.506-.257.814-.753.913-.02.003-.3.056-.605-.012M10 26.935l.501-.229a.678.678 0 0 0 .594.34.666.666 0 0 0 .259-.038c.05-.02.107-.09.11-.141.004-.042-.06-.113-.107-.13-.115-.04-.238-.05-.356-.081-.17-.046-.344-.087-.505-.157a.577.577 0 0 1-.364-.56.64.64 0 0 1 .35-.601c.508-.279 1.273-.11 1.58.363l-.481.274a.656.656 0 0 0-.544-.255c-.168 0-.243.104-.247.154-.003.046.068.124.122.143.123.042.255.054.382.082.127.03.254.058.378.102.222.08.394.218.427.469.037.273-.033.52-.264.682-.124.087-.27.159-.423.189-.358.071-.663-.013-.744-.035-.295-.08-.502-.274-.668-.52v-.051zm12.52.509a.896.896 0 0 1-.446-.523l.51-.204c.08.164.195.282.378.304.07.008.143.003.212-.008.102-.018.167-.08.168-.19.001-.114-.072-.17-.17-.187-.112-.018-.225-.018-.346-.026v-.486c.08 0 .158.003.236-.001.15-.008.233-.084.227-.2-.005-.108-.09-.172-.236-.176-.21-.004-.362.096-.468.286l-.473-.24c.191-.34.463-.543.843-.573.16-.013.33.006.486.044.251.06.428.22.474.486.041.247-.058.435-.285.573.175.081.3.194.346.375.072.285-.066.587-.357.737a1.27 1.27 0 0 1-1.098.01m3.479.072c-.227.003-.455.008-.682.01h-1.115c0-.146-.005-.284.003-.421.001-.032.044-.067.075-.091.218-.172.445-.334.656-.515.106-.092.197-.21.268-.33.082-.142.043-.292-.062-.365-.106-.072-.277-.053-.384.053-.053.053-.093.119-.143.183l-.483-.26c.256-.547 1.01-.751 1.496-.413.293.203.38.608.203.95-.113.22-.552.595-.631.642H26v.557z" fill="#EADA23"/><path d="M17.308 15.18H10.14v-1.425h7.167v1.424zm-7.168 1.45h1.421v7.178H10.14V16.63zm5.741.004h1.424v7.173h-1.424v-7.173zm10.039 1.422h-7.168v-1.42h7.167v1.42zm0 2.874h-7.17v-1.424h7.17v1.423zm-7.172 1.456h7.167v1.42h-7.167v-1.42zM17.305 12.3h-7.164v-1.417h7.164V12.3zM14.43 23.809h-1.416v-7.173h1.416v7.173zm6.51 3.708v-.883h-.79v.882h-.647v-2.258h.641v.784h.793v-.781h.652v2.256h-.649zm-3.718-2.264H19.2v.566h-.663v1.698h-.651v-1.69h-.663v-.574z" fill="#EADA23"/></svg>