<svg width="36" height="36" fill="none" xmlns="http://www.w3.org/2000/svg"><path d="M18 0c2.837 0 5.52.656 7.907 1.825C31.884 4.753 36 10.895 36 18c0 9.942-8.058 18-18 18-9.94 0-18-8.057-18-18C0 8.06 8.06 0 18 0z" fill="#F2F4F7"/><path d="M17.998 32C25.733 32 32 25.732 32 18.002 32 10.268 25.732 4 17.998 4 10.268 4 4 10.268 4 18.002 4 25.732 10.268 32 17.998 32z" fill="#D7DEE1"/><path d="M17.998 4.579c-7.412 0-13.42 6.01-13.42 13.423 0 7.412 6.008 13.42 13.42 13.42 7.413 0 13.423-6.008 13.423-13.42 0-7.413-6.01-13.423-13.422-13.423z" fill="#0C234C"/><path d="M25.417 8.141a10.417 10.417 0 0 0-7.419-3.078 10.414 10.414 0 0 0-7.415 3.078 10.46 10.46 0 0 0-3.072 7.437s0 4.983.002 5.05c0 .002-.002.002-.002.007h.002a10.442 10.442 0 0 0 3.069 7.225 10.405 10.405 0 0 0 7.416 3.08c2.802 0 5.437-1.093 7.418-3.08a10.46 10.46 0 0 0 3.07-7.247l.001-5.034c0-2.811-1.09-5.45-3.071-7.437h.001zm-.201 19.507a10.145 10.145 0 0 1-7.22 2.996 10.137 10.137 0 0 1-7.215-2.996 10.171 10.171 0 0 1-2.987-7.025c.04-.74.16-1.46.358-2.157a10.544 10.544 0 0 0 9.818 6.725c4.383 0 8.288-2.693 9.839-6.743a9.89 9.89 0 0 1 .394 2.117 10.19 10.19 0 0 1-2.987 7.083zM8.309 18.014a9.96 9.96 0 0 1 2.68-4.168 10.293 10.293 0 0 1 7.041-2.748c2.578 0 5.05.99 6.964 2.79a10.345 10.345 0 0 1 2.694 4.117c-1.418 4.13-5.31 6.898-9.697 6.898a10.26 10.26 0 0 1-9.682-6.889zm19.897.833a10.592 10.592 0 0 0-3.039-5.137c-1.966-1.848-4.508-2.866-7.155-2.866-2.711 0-5.28 1.003-7.234 2.823a10.25 10.25 0 0 0-2.987 5.086v-3.165a10.17 10.17 0 0 1 2.99-7.237 10.12 10.12 0 0 1 7.216-2.996c2.726 0 5.292 1.063 7.219 2.996a10.183 10.183 0 0 1 2.99 7.237v3.26z" fill="#D7DEE1"/><path d="M15.636 7.256c.548-.14 1.33-.206 1.33-.206l1.032 2.12 1.034-2.12s.708.064 1.33.206l.945 2.769.212-2.454c.696.194 1.33.467 2.096.876.688.37.806.787.751 1.218-.002.006-.06.436-.572.251-.014 0 .89.473.693 1.357-.075.318-.39.479-.87.21-.426-.246-.902-.5-1.468-.722a9.896 9.896 0 0 0-1.712-.509l-.2-.587c-.651-.134-1.381-.18-1.381-.18l-.236.522a16.732 16.732 0 0 0-1.242 0l-.237-.521c-.633.033-1.381.179-1.381.179l-.2.587c-.327.067-.654.146-1.042.264l.058-.182c-.64.506-1.188.736-1.188.742-.415.2-1.55.776-1.826.221-.085-.13-.08-.397-.08-.397.34-.22.825-.469 1.167-.66 0 0-.172.7.536.321.252-.12.515-.3.633-.566.164-.458-.339-.37-.527-.312-.32.094-1.502.497-1.508-.303-.002-.57.766-1.151 1.59-1.49 1.233-.51 1.657-.046 1.624.339-.5.136-.606.175-1.03.318.009-.143-.097-.358-.618-.143-.51.249-.64.449-.567.664.094.287.891-.018 1.088-.06 1.118-.24.972.514.97.532 0 0 .79-2.284.796-2.284zm.309 1.845c.218-.046.609-.103.96-.136-.002.006-.53-1.164-.53-1.164l-.43 1.3zm6.31 1.009c.294.112.79.357 1.03.494 0 0 .248.184.373.024.093-.188.024-.376-.391-.597-.27-.155-.776-.373-.966-.451l-.046.53zm.103-1.16s.427.175.715.312c.11.051.173.103.3.112.103-.011.14-.073.151-.125.034-.281-.29-.409-.4-.466a7.93 7.93 0 0 0-.723-.327l-.043.494zm-3.265.015c.339.033.55.057.96.136.002.002-.43-1.3-.43-1.3l-.53 1.164z" fill="#D7AB3A"/><path d="M12.87 17.78c.34.158.612.267.912.224.675-.097.878-.363 1.5-.181.28.081.502.315.502.315s-.16-.058-.336-.07c-.66-.036-1.19.47-1.839.306-.582-.151-.74-.594-.74-.594" fill="#D7DEE1"/><path d="M16.557 17.871c-.215.188-.691 1.203-1.89.63-.037.121.042.515.23.788.163.26.593.372.902.34-.372.341-.127.862-.09 1.641.209-.427.584-.612.584-.612s-.382.694-.385 1.06c-.027.585.576 1.09 1.103 1.863.155-.902.118-1.23.285-1.757.14.312.288 1.851.236 2.463.906-.727 1.945-.745 1.484-2.653.276.342.537 1.032.612 1.435.427-.693 1.433-1.139.664-2.971.418.345.57.936.739 1.16.121-.882.624-2.224-.473-3.235l.007-.007c.276.088.621.336.815.621-.007-.788.497-1.239-.612-2.6a3.13 3.13 0 0 0 .412-1.15c-.418.048-.915.136-1.275.324a.361.361 0 0 0-.294-.203h-3.205c-.221 0-.427.297-.552.87a1.018 1.018 0 0 0-.251-.143c-.39-.149-1.306-.158-1.572.678-.155.391-.03 1.076-.03 1.076s1-.748 1.487.121l1.069.261zm-.327-1.136c-.16-.094-.276-.394-.082-.546.137-.109.533.094.236.41.276.16.437-.104.446-.198l.097-.006c-.04.194-.312.593-.697.339" fill="#D7DEE1"/><path d="M19.589 14.809a.34.34 0 0 1 .194.07l1.257-2.724c-1.357 0-.87.9-.848.954.022.052-.07.027-.07.027a.473.473 0 0 0-.797.336.473.473 0 0 0 .594.455s-.915.872-1.648-.255c-.058-.088.076.1.288.1a.47.47 0 1 0-.267-.854v-.006a.467.467 0 0 0-.29-.836l-.007-.003a.467.467 0 0 0-.288.836v.01a.467.467 0 1 0-.27.851c.215 0 .349-.186.291-.1-.736 1.126-1.65.257-1.65.257a.467.467 0 1 0 .121-.92.476.476 0 0 0-.325.126s-.09.025-.066-.027c.022-.051.506-.954-.852-.954l1.26 2.726s.085-.07.194-.07h3.179z" fill="#D7AB3A"/><path d="M21.091 17.88c.073-.293.04-.711-.6-1.396a5.874 5.874 0 0 1-.654.609c.079.836.112 2.114-.587 2.784 0 0 .008-.542-.3-1.136-.03.745-.364 1.505-1.04 1.966 0 0 .116-.515.04-1.427-.11.34-.379.682-.785.818l-.172-.942s.336-.24.336-.249c0 .01.109.537.109.537.357-.34.076-.879.412-1 .182-.058.275.079.333.19.158.325.16.604.167.958.212-.497.22-.984.145-1.545-.024-.19.067-.29.179-.324.12-.024.215.042.297.14.212.263.351.611.436.92.136-.47.154-1.139-.011-1.605-.022-.091-.049-.191-.049-.191.488-.412.933-.897 1.19-1.509-.68.203-1.575.743-1.575.743l-.184-.198.706-.55c.045-.034.063-.086-.064-.089l-2.611.002c-.246 0-.491.08-.494.494l.327.276s.4-.148.782.115l-.049.224s-.17-.118-.254-.051c-.215.554-.576.633-.87.524-.324-.133-.376-.515-.424-.721-.56-.324-1.436-.376-1.502.612.596-.273 1.208.06 1.372.394l1.557.451c-.53.397-1.245 1.651-2.12 1.242.608.66 1.287-.164 1.502.182.221.366-.797.46-.63 1.393.148-.151.454-.478.663-.284.121.112.064.27.024.318-.442.936-.633 1.366.088 2.105.155-1.142.218-1.451.518-1.46.443-.002.585 1.917.606 2.396.879-.57 1.012-.672.733-2.072-.06-.251-.022-.394.149-.46.184-.07.342.054.418.175.206.318.418.69.539 1.073.221-.373.809-.63.17-2.179-.106-.19-.088-.354.057-.442.318-.215.748.318.9.573-.03-.546.236-1.23-.618-2.096-.14-.17-.14-.291-.024-.406.185-.191.624-.025.863.118" fill="#D9192E"/><path d="M17.15 17.35c.46-.091.382.324.91.424-.443.167-.643-.352-.91-.424zm2.815-1.39c-.173.278-.44.517-.764.593.145-.24.427-.56.764-.594zm-9.391 7.691c-.1-.088-.17-.142-.276-.267v-.436c.27.282.56.533.863.76l.003.425c-.107-.079-.21-.17-.313-.252v2.605a9.915 9.915 0 0 1-.278-.227v-2.608zm.806.221c.345.258.52.367.778.515v.415c-.17-.1-.309-.167-.5-.309l.007.8c.182.12.33.212.457.288l.002.351a5.169 5.169 0 0 1-.457-.285l-.002 1.03c.173.112.3.191.536.33l.002.443c-.409-.258-.457-.288-.824-.546v-3.032m2.021 4.05c-.827.452-1.303-1.411-.897-2.838.079-.27.321-.615.858.002l.002.382c-.427-.61-.636-.427-.652.539-.033 1.72.364 1.693.688 1.478l.001.437zm.26-2.772c.113.055.161.076.33.137v1.33c.158.054.316.103.48.136v-1.306c.139.058.205.07.314.1l.003 3.039c-.113-.03-.206-.061-.316-.094l.003-1.367c-.16-.048-.324-.103-.485-.157v1.351c-.106-.036-.215-.088-.33-.14l.002-3.029zm1.59.527c.125.034.186.046.286.07.178.576.406 1.43.587 2.002h.007l.002-1.893c.103.022.218.048.324.06v3.024c-.094-.011-.154-.027-.248-.04-.182-.578-.442-1.369-.621-1.95h-.009l.009 1.832c-.103-.022-.233-.045-.336-.07 0 0 .002-3.035 0-3.035m3.441.307c.118-.01.212-.022.343-.04v2.639c.25-.009.5-.052.73-.088l-.003.397c-.351.057-.72.103-1.069.127v-3.035zm4.211 1.769c-.642.808-1.378.427-1.324-1.058.036-.978.497-1.866 1.306-1.669l.002.403c-1.1-.497-1.027 1.627-.894 2.072.128.412.388.342.582.212l-.007-.902c-.076.033-.157.075-.233.105l.002-.36c.188-.079.394-.164.564-.264l.002 1.46zm.373-3.09c.105-.055.2-.11.302-.167l.01 3.048a9.894 9.894 0 0 1-.313.17v-3.051m.725-.41c.287-.17.52-.36.778-.55l-.01.423c-.165.121-.316.227-.486.343l.003.845a3.17 3.17 0 0 0 .45-.312l-.001.354c-.167.13-.285.218-.449.318l-.006 1.01c.206-.134.357-.243.527-.374l-.002.397a7.36 7.36 0 0 1-.824.603l.02-3.056zm1.036 1.807c.184.127.5-.219.402-.643-.105-.466-.463-.87-.415-1.436 0-.009.08-.8.615-.984v.357c-.354.067-.366.466-.37.485-.001.148.034.251.043.279.082.218.206.454.294.666.385.909-.118 1.672-.57 1.67v-.395zm-6.777 1.463c0 .869-.151 1.575-.715 1.572-.506-.002-.715-.703-.715-1.572 0-.87.21-1.576.715-1.576.536 0 .715.706.715 1.576zm-.715-1.185c-.26 0-.394.551-.394 1.2 0 .645.134 1.169.394 1.169.258-.002.397-.524.397-1.17 0-.648-.14-1.202-.397-1.199zm3.732.818c0 .86-.151 1.563-.715 1.557-.506 0-.715-.697-.715-1.557s.21-1.557.715-1.557c.533 0 .715.696.715 1.557zm-.715-1.173c-.26 0-.397.549-.397 1.188 0 .639.137 1.16.397 1.157.258 0 .394-.518.394-1.157 0-.64-.136-1.188-.394-1.188z" fill="#D7DEE1"/></svg>