<svg height="36" viewBox="0 0 36 36" width="36" xmlns="http://www.w3.org/2000/svg"><mask id="a" fill="#fff"><path d="M0 0h28v5.575H0z" fill-rule="evenodd"/></mask><g fill="none" fill-rule="evenodd"><path d="M18 0c2.837 0 5.52.656 7.907 1.825C31.884 4.753 36 10.895 36 18c0 9.942-8.058 18-18 18-9.94 0-18-8.057-18-18C0 8.06 8.06 0 18 0z" fill="#f2f4f7" fill-rule="nonzero"/><path d="M27.015 5.505H28V.91h-.985zm-1.474 0h.985V.91h-.985zm-2.62-1.533h2.184c.007-.462-.066-.945-.347-1.333s-.771-.602-1.247-.602c-1.058 0-1.654.811-1.654 1.816 0 1.011.663 1.722 1.681 1.722 1.152 0 1.548-1.005 1.548-1.173l-.912-.066c0 .314-.301.536-.602.536-.429 0-.656-.328-.656-.731zm1.2-.583h-1.207c.034-.389.202-.71.638-.71.428 0 .548.341.569.71zM20.55 5.505h.937V.91h-.984v1.555c-.215-.315-.469-.429-.851-.429-.991 0-1.247.998-1.247 1.809 0 .79.268 1.728 1.225 1.728.436 0 .718-.235.905-.596h.014zm-.047-1.418c0 .167-.007.348-.087.502a.504.504 0 0 1-.43.275c-.489 0-.542-.624-.542-.991 0-.409.021-1.146.583-1.146.449 0 .476.563.476.891zm-2.465.91V3.409c0-.408.033-.784-.316-1.065-.275-.229-.73-.308-1.078-.308-.717 0-1.521.24-1.623 1.065l.933.087c0-.334.274-.496.589-.496.148 0 .316.047.403.16.1.127.087.301.087.449v.081c-.415.04-.957.067-1.347.215-.449.167-.764.508-.764 1.011 0 .644.469.965 1.072.965.508 0 .804-.194 1.085-.596-.007.175.007.355.047.529h.978a1.657 1.657 0 0 1-.066-.509zm-1.139-.328a.594.594 0 0 1-.497.281c-.274 0-.435-.182-.435-.449 0-.497.69-.583 1.065-.624v.134c.001.243.008.443-.133.658zm-2.179-.865c0-.804-.294-1.768-1.265-1.768-.382 0-.663.16-.831.495h-.027V.91h-.985v4.595h.535c.061-.18.102-.375.221-.521.249.408.483.589.971.589 1.027 0 1.381-.878 1.381-1.769zm-1.023 0c0 .368 0 1.078-.557 1.078a.472.472 0 0 1-.415-.234c-.108-.168-.115-.383-.115-.569v-.49c0-.361.067-.877.543-.877.544 0 .544.71.544 1.092zm-2.628 1.193V3.409c0-.408.034-.784-.315-1.065-.274-.229-.73-.308-1.078-.308-.717 0-1.521.24-1.622 1.065l.932.087c0-.334.274-.496.589-.496.148 0 .315.047.402.16.101.127.087.301.087.449v.081c-.415.04-.959.067-1.346.215-.449.167-.764.508-.764 1.011 0 .644.469.965 1.072.965.51 0 .804-.194 1.085-.596-.007.175.007.355.048.529h.977a1.657 1.657 0 0 1-.067-.509zm-1.138-.328a.595.595 0 0 1-.496.281c-.274 0-.436-.182-.436-.449 0-.497.69-.583 1.065-.624v.134c0 .243.007.443-.133.658zm-4.684-2.56c0-.355.349-.428.636-.428.409 0 .657.154.791.543l.91-.302C7.304 1.125 6.646.844 5.843.844c-.422 0-.818.094-1.153.375-.328.275-.496.65-.496 1.079 0 1.004.805 1.247 1.622 1.414.281.06.805.133.805.514 0 .382-.41.496-.718.496-.475 0-.824-.168-.957-.649l-.991.227c.208.898.991 1.273 1.856 1.273.462 0 .964-.088 1.333-.375.355-.275.568-.704.568-1.152 0-.457-.227-.839-.602-1.086-.321-.214-.824-.308-1.2-.389-.261-.046-.663-.127-.663-.462z" fill="#000100" mask="url(#a)" transform="translate(4 15)"/><path d="M3.647 1.823A1.824 1.824 0 1 0 0 1.824a1.824 1.824 0 0 0 3.647-.001" fill="#0082c0" mask="url(#a)" transform="translate(4 15)"/><path d="M2.563 1.388A.448.448 0 0 0 2.34.99C2.218.91 2.069.91 1.925.91h-.817v1.823h.817c.157 0 .335 0 .468-.098a.5.5 0 0 0 .223-.393.452.452 0 0 0-.38-.455v-.006c.19-.047.327-.185.327-.393m-.437.037a.206.206 0 0 1-.077.165c-.064.048-.151.042-.226.042h-.29v-.398h.257c.072 0 .184-.008.244.027.06.034.093.098.093.164m.04.741c0 .075-.035.15-.096.19-.067.044-.165.04-.242.04h-.296v-.44h.313c.07 0 .155 0 .216.035a.214.214 0 0 1 .105.175" fill="#fff" mask="url(#a)" transform="translate(4 15)"/></g></svg>