<svg width="36" height="36" fill="none" xmlns="http://www.w3.org/2000/svg"><path d="M18 0c2.837 0 5.52.656 7.907 1.825C31.884 4.753 36 10.895 36 18c0 9.942-8.058 18-18 18-9.94 0-18-8.057-18-18C0 8.06 8.06 0 18 0z" fill="#F2F4F7"/><path d="M5.286 22.5c.473.103.588.38.588.64 0 .399-.306.7-.927.7-.655 0-.947-.32-.947-.564 0-.123.09-.212.215-.212.277 0 .206.4.727.4.267 0 .416-.146.416-.292 0-.09-.043-.188-.22-.23l-.579-.146c-.468-.118-.554-.372-.554-.607 0-.494.463-.677.899-.677.401 0 .874.22.874.517 0 .127-.11.202-.234.202-.239 0-.196-.329-.674-.329-.239 0-.368.108-.368.264 0 .155.186.202.354.24l.43.094zm1.004-.725c0-.15.1-.254.258-.254s.258.104.258.254v.63h.937v-.63c0-.15.1-.254.258-.254s.259.104.259.254v1.797c0 .15-.1.254-.259.254-.157 0-.258-.104-.258-.254v-.743h-.937v.743c0 .15-.1.254-.258.254s-.258-.104-.258-.254v-1.797zm3.523-.263c.741 0 1.143.484 1.143 1.138 0 .626-.368 1.195-1.143 1.195-.808 0-1.142-.518-1.142-1.195 0-.654.401-1.138 1.142-1.138zm0 1.919c.469 0 .627-.358.627-.786 0-.428-.206-.729-.627-.729-.42 0-.626.301-.626.73 0 .427.143.785.626.785zm1.559-1.571c0-.226.12-.296.3-.296h.79c.435 0 .784.211.784.705 0 .405-.287.706-.784.706h-.574v.602c0 .15-.1.253-.258.253s-.258-.103-.258-.253V21.86zm.516.724h.478c.206 0 .363-.122.363-.315 0-.221-.157-.315-.415-.315h-.426v.63zm2.916-.908c.043-.112.124-.155.253-.155h.125c.115 0 .22.028.277.184l.622 1.702c.019.052.052.141.052.193 0 .122-.11.221-.244.221-.114 0-.196-.042-.234-.141l-.134-.372h-.827l-.134.372c-.033.099-.105.141-.23.141-.143 0-.238-.085-.238-.22 0-.057.033-.147.052-.194l.66-1.73zm.31.395h-.004l-.306.894h.602l-.291-.894zm1.316-.211c0-.226.12-.296.3-.296h.79c.435 0 .784.211.784.705 0 .405-.287.706-.784.706h-.574v.602c0 .15-.1.253-.258.253s-.258-.103-.258-.253V21.86zm.516.724h.478c.206 0 .363-.122.363-.315 0-.221-.157-.315-.416-.315h-.425v.63zm2.773-1.072c.74 0 1.142.484 1.142 1.138 0 .626-.368 1.195-1.142 1.195-.808 0-1.143-.518-1.143-1.195 0-.654.402-1.138 1.143-1.138zm0 1.919c.468 0 .626-.358.626-.786 0-.428-.206-.729-.626-.729-.421 0-.627.301-.627.73 0 .427.144.785.627.785zm2.031-1.44h-.487c-.148 0-.268-.075-.268-.211 0-.141.12-.212.268-.212h1.486c.149 0 .268.075.268.212 0 .14-.12.211-.267.211h-.488v1.586c0 .15-.1.253-.258.253s-.258-.103-.258-.253V21.99h.004zm1.583-.216c0-.15.1-.254.258-.254s.258.104.258.254v.63h.937v-.63c0-.15.1-.254.258-.254s.258.104.258.254v1.797c0 .15-.1.254-.258.254-.157 0-.258-.104-.258-.254v-.743h-.937v.743c0 .15-.1.254-.258.254s-.258-.104-.258-.254v-1.797zm2.495.085c0-.226.12-.296.301-.296h1.21c.153 0 .263.042.263.202s-.11.202-.263.202h-.994v.48h.874c.134 0 .244.037.244.193 0 .155-.105.192-.244.192h-.875v.537h1.019c.153 0 .263.042.263.202s-.11.202-.263.202h-1.234c-.181 0-.3-.07-.3-.296V21.86zm2.175-.085c0-.15.1-.254.259-.254.157 0 .258.104.258.254v.739l.808-.88c.057-.061.114-.113.205-.113.124 0 .244.075.244.202 0 .076-.043.132-.086.174l-.526.546.626.936c.048.07.096.136.096.202 0 .188-.143.245-.263.245-.105 0-.158-.024-.23-.132l-.592-.903-.282.278v.503c0 .15-.1.254-.258.254s-.259-.104-.259-.254v-1.797zm2.2.085c0-.226.119-.296.3-.296h1.21c.153 0 .263.042.263.202s-.11.202-.263.202h-.994v.48h.875c.133 0 .243.037.243.193 0 .155-.105.192-.243.192h-.875v.537h1.018c.153 0 .263.042.263.202s-.11.202-.263.202h-1.233c-.182 0-.302-.07-.302-.296V21.86z" fill="#005091"/><path d="M21.37 17.842c.178.085.393.01.474-.165a.344.344 0 0 0-.167-.465.357.357 0 0 0-.474.164.35.35 0 0 0 .168.466zm-6.74.555a.557.557 0 0 0 .741-.259.54.54 0 0 0-.263-.729.559.559 0 0 0-.741.259.548.548 0 0 0 .263.729zm.793-1.783c.25.118.55.014.67-.23a.491.491 0 0 0-.234-.659.506.506 0 0 0-.67.23.491.491 0 0 0 .235.66zm4.155 1.378a.5.5 0 0 0 .665-.23.486.486 0 0 0-.235-.654.5.5 0 0 0-.664.23.487.487 0 0 0 .234.654zm-2.362-.117a.947.947 0 0 0 1.258-.438.924.924 0 0 0-.445-1.241.953.953 0 0 0-1.262.437.933.933 0 0 0 .45 1.242zm-7.223.663c.176.085.392.01.473-.165a.344.344 0 0 0-.167-.465.357.357 0 0 0-.474.164.346.346 0 0 0 .168.466zm8.954-2.455c.196.094.435.01.53-.184a.39.39 0 0 0-.186-.522.403.403 0 0 0-.53.184.385.385 0 0 0 .186.522zm-.23 3.984a.803.803 0 0 0 1.067-.372.779.779 0 0 0-.378-1.049.803.803 0 0 0-1.066.372c-.187.39-.02.86.377 1.049zm-2.328-.734c.316.15.689.019.842-.292a.617.617 0 0 0-.297-.828.633.633 0 0 0-.841.292.62.62 0 0 0 .296.828zm-3.638-.837a.524.524 0 0 0 .693-.24.508.508 0 0 0-.244-.682.524.524 0 0 0-.693.24.508.508 0 0 0 .244.682zm10.34-.118a.807.807 0 0 0 1.067-.372.78.78 0 0 0-.373-1.048.803.803 0 0 0-1.066.371.778.778 0 0 0 .373 1.049zm-1.864 1.209a.637.637 0 0 0 .842-.292.613.613 0 0 0-.297-.828.633.633 0 0 0-.841.292.615.615 0 0 0 .296.828zm-.406-2.926a.924.924 0 0 0 1.224-.423.893.893 0 0 0-.43-1.204.92.92 0 0 0-1.224.423.895.895 0 0 0 .43 1.204zm-9.705 1.153c.316.15.689.018.841-.292a.617.617 0 0 0-.296-.828.631.631 0 0 0-.841.292.613.613 0 0 0 .296.828zm1.994-.847a.802.802 0 0 0 1.066-.372.779.779 0 0 0-.378-1.048.8.8 0 0 0-1.066.371c-.191.39-.02.86.378 1.049zm10.527-.73a1.74 1.74 0 0 0 2.304-.799 1.695 1.695 0 0 0-.813-2.271 1.748 1.748 0 0 0-2.309.8 1.7 1.7 0 0 0 .818 2.27z" fill="#E30511"/></svg>