<svg width="36" height="36" fill="none" xmlns="http://www.w3.org/2000/svg"><path d="M18 0c2.837 0 5.52.656 7.907 1.825C31.884 4.753 36 10.895 36 18c0 9.942-8.058 18-18 18-9.94 0-18-8.057-18-18C0 8.06 8.06 0 18 0z" fill="#F2F4F7"/><g fill="#012169"><path d="M18.976 15.564h-.894v4.538h.893v-4.538zm-1.293 1.622h-.894v2.939h.894v-2.939zm-2.187.306a1.069 1.069 0 0 0-.846-.376c-.823 0-1.505.658-1.505 1.528 0 1.246 1.129 1.552 1.505 1.552.306 0 .635-.118.846-.376v.305h.894v-2.939h-.894v.306zm-.776 1.857a.713.713 0 0 1-.728-.705c0-.376.329-.705.728-.705.4 0 .73.305.73.705 0 .376-.33.705-.73.705zm11.943-2.163h-.893v2.939h.893v-2.939zm5.337 0h-.564v-1.152h-.87v1.152h-.54v.682h.54v2.257h.87v-2.257H32v-.682zm-3.15-.07c-.4 0-.706.188-.894.494v-.424h-.893v2.94h.893V18.55c0-.4.236-.588.541-.588.33 0 .494.259.494.517v1.646h.893v-1.74c0-.752-.306-1.269-1.034-1.269zm-18.056-.094c0-.259.212-.447.588-.447.282 0 .564.165.564.494h.917c0-.8-.564-1.34-1.457-1.34-.964 0-1.505.635-1.505 1.293 0 .635.353.987 1.058 1.222.54.188 1.128.212 1.128.659 0 .282-.258.47-.634.47-.306 0-.659-.188-.659-.518h-.917c0 .706.541 1.34 1.576 1.34 1.034 0 1.575-.587 1.575-1.316-.047-1.528-2.234-1.175-2.234-1.857zm13.213.094c-.94 0-1.528.682-1.528 1.528 0 .917.681 1.528 1.528 1.528.94 0 1.528-.682 1.528-1.528.023-.846-.564-1.528-1.528-1.528zm0 2.21a.657.657 0 1 1 0-1.317c.376 0 .658.306.658.659.023.352-.282.658-.658.658zm-6.771-2.61a.53.53 0 0 0 .54-.517.53.53 0 0 0-.54-.517.53.53 0 0 0-.54.517.53.53 0 0 0 .54.517zm8.981 0a.53.53 0 0 0 .54-.517.53.53 0 0 0-.54-.517.53.53 0 0 0-.541.517.53.53 0 0 0 .54.517zm-5.031-.94h-1.81v4.35h.94v-1.482h.799c.964 0 1.481-.588 1.481-1.434 0-.8-.494-1.434-1.41-1.434zm-.095 2.045h-.775V16.6h.823c.376 0 .54.329.54.587 0 .33-.211.635-.588.635zM6.868 15.188l.235.658c.988.188 1.74 1.035 1.74 2.07 0 1.151-.94 2.115-2.116 2.115a2.26 2.26 0 0 1-1.34-.47c.188-.047.423-.047.611-.07.635-.518 1.058-1.294 1.058-2.399.024-.8-.235-1.551-.47-2.092-.188 1.364-.8 3.22-1.599 4.114-.235-.329-.352-.729-.352-1.175 0-.988.658-1.81 1.575-2.046l.117-.658A2.717 2.717 0 0 0 4 17.94a2.729 2.729 0 0 0 2.727 2.727 2.729 2.729 0 0 0 2.727-2.727c.024-1.458-1.128-2.657-2.586-2.75z"/><path d="m6.14 19.631 1.88-.235a1.83 1.83 0 0 0 .212-.87c0-.728-.423-1.551-1.035-2.256.024.094.094.423.094.916 0 1.035-.493 1.858-1.152 2.445z"/></g></svg>