<svg height="36" viewBox="0 0 36 36" width="36" xmlns="http://www.w3.org/2000/svg"><mask id="a" fill="#fff"><path d="M0 .02h1v.96H0z" fill-rule="evenodd"/></mask><mask id="b" fill="#fff"><path d="M0 .148h1v.704H0z" fill-rule="evenodd"/></mask><mask id="c" fill="#fff"><path d="M0 .074h1v.852H0z" fill-rule="evenodd"/></mask><mask id="d" fill="#fff"><path d="M0 .074h1v.852H0z" fill-rule="evenodd"/></mask><mask id="e" fill="#fff"><path d="M0 8.095h28V0H0z" fill-rule="evenodd"/></mask><g fill="none" fill-rule="evenodd"><path d="M18 0c2.837 0 5.52.656 7.907 1.825C31.884 4.753 36 10.895 36 18c0 9.942-8.058 18-18 18-9.94 0-18-8.057-18-18C0 8.06 8.06 0 18 0z" fill="#f2f4f7" fill-rule="nonzero"/><g fill="#203c89"><path d="M.428.253a.145.145 0 0 0-.012-.06.133.133 0 0 0-.031-.047.126.126 0 0 0-.046-.033A.13.13 0 0 0 .283.1H.082v.42h.201A.13.13 0 0 0 .339.51.152.152 0 0 0 .385.478.152.152 0 0 0 .416.43.148.148 0 0 0 .428.37zM.492.46a.241.241 0 0 1-.048.075.223.223 0 0 1-.158.068H.082v.364H0V.02h.286a.22.22 0 0 1 .206.142.253.253 0 0 1 .017.09v.119a.248.248 0 0 1-.017.09z" mask="url(#a)" transform="translate(21.092 21.115)"/><path d="M.354.51H.19a.112.112 0 0 0-.044.01.128.128 0 0 0-.035.025.112.112 0 0 0-.024.038.114.114 0 0 0-.009.046v.028A.118.118 0 0 0 .19.775h.052c.016 0 .03-.004.044-.01A.098.098 0 0 0 .321.74.103.103 0 0 0 .345.703.102.102 0 0 0 .354.657zm.052.328L.363.771A.216.216 0 0 1 .297.83.184.184 0 0 1 .21.851H.19A.18.18 0 0 1 .056.793.208.208 0 0 1 0 .653V.645a.204.204 0 0 1 .056-.14A.178.178 0 0 1 .19.446h.164V.343A.1.1 0 0 0 .345.297.107.107 0 0 0 .321.26.108.108 0 0 0 .242.225H.197a.108.108 0 0 0-.08.034.123.123 0 0 0-.033.084v.024L.007.354V.347A.22.22 0 0 1 .021.27.22.22 0 0 1 .062.206.181.181 0 0 1 .197.148h.045c.026 0 .05.005.074.015a.2.2 0 0 1 .116.184v.491z" mask="url(#b)" transform="translate(21.827 21.243)"/><path d="M.722.74a.171.171 0 0 1-.059.134.207.207 0 0 1-.137.052H.474A.17.17 0 0 1 .4.91.201.201 0 0 1 .278.727V.7L.356.687v.045A.118.118 0 0 0 .43.84a.112.112 0 0 0 .044.009h.052A.128.128 0 0 0 .609.82.109.109 0 0 0 .636.788.097.097 0 0 0 .645.745.109.109 0 0 0 .63.685.122.122 0 0 0 .59.647.264.264 0 0 0 .534.62L.468.6C.446.594.424.586.403.577S.363.556.346.542.316.51.306.489A.195.195 0 0 1 .291.408.186.186 0 0 1 .347.274.186.186 0 0 1 .481.223h.045c.026 0 .05.005.074.015a.2.2 0 0 1 .116.184v.002L.639.438V.417A.106.106 0 0 0 .629.37.112.112 0 0 0 .605.334.108.108 0 0 0 .526.3H.481a.127.127 0 0 0-.08.027.102.102 0 0 0-.033.077c0 .023.005.042.016.057.01.015.023.027.04.037A.222.222 0 0 0 .48.524l.065.02a.396.396 0 0 1 .122.06c.016.016.03.034.04.056s.015.049.015.08" mask="url(#c)" transform="translate(22.232 21.17)"/><path d="M.722.74a.171.171 0 0 1-.059.134.207.207 0 0 1-.137.052H.474A.176.176 0 0 1 .4.91.201.201 0 0 1 .278.727V.7L.356.687v.045A.118.118 0 0 0 .43.84a.112.112 0 0 0 .044.009h.052A.128.128 0 0 0 .609.82.109.109 0 0 0 .636.788.097.097 0 0 0 .645.745.109.109 0 0 0 .63.685.122.122 0 0 0 .59.647.264.264 0 0 0 .534.62L.468.6C.446.594.424.586.403.577S.363.556.346.542.316.51.306.489A.195.195 0 0 1 .291.408.186.186 0 0 1 .347.274a.197.197 0 0 1 .06-.038.199.199 0 0 1 .074-.013h.045C.552.223.577.228.6.238a.2.2 0 0 1 .116.184v.002L.639.438V.417A.115.115 0 0 0 .605.334C.596.323.584.314.57.309S.542.299.526.299H.481a.127.127 0 0 0-.08.028.102.102 0 0 0-.033.077c0 .023.005.042.016.057.01.015.023.027.04.037A.222.222 0 0 0 .48.524l.065.02a.396.396 0 0 1 .122.06c.016.016.03.034.04.056s.015.049.015.08" mask="url(#d)" transform="translate(22.922 21.17)"/><path d="M19.915 8.082h.078v-.677h-.078zm-.006-.84h.09v-.108h-.09zm.715.344a.114.114 0 0 0-.009-.046.095.095 0 0 0-.024-.037.087.087 0 0 0-.035-.025.098.098 0 0 0-.044-.01h-.052a.098.098 0 0 0-.044.01.094.094 0 0 0-.035.025.108.108 0 0 0-.024.037.114.114 0 0 0-.009.046V7.9a.1.1 0 0 0 .01.046.108.108 0 0 0 .023.037.11.11 0 0 0 .035.026.112.112 0 0 0 .044.01h.052c.015 0 .03-.004.044-.01a.1.1 0 0 0 .035-.026.095.095 0 0 0 .024-.037.114.114 0 0 0 .01-.046zm.063.387a.18.18 0 0 1-.04.063.19.19 0 0 1-.134.059h-.053a.18.18 0 0 1-.073-.016.196.196 0 0 1-.117-.183V7.59a.2.2 0 0 1 .117-.183.18.18 0 0 1 .073-.015h.052c.026 0 .05.005.074.015a.2.2 0 0 1 .116.183v.306a.2.2 0 0 1-.015.077zm.621.109v-.496a.122.122 0 0 0-.033-.083.107.107 0 0 0-.08-.034h-.051a.108.108 0 0 0-.08.034.157.157 0 0 0-.024.037.144.144 0 0 0-.008.046v.496h-.078v-.677h.026l.042.069c.018-.025.04-.045.067-.06s.055-.022.087-.022h.02a.18.18 0 0 1 .134.058.183.183 0 0 1 .04.064c.01.024.015.049.015.077v.491zm.945-.871a.073.073 0 0 0-.036.008.09.09 0 0 0-.049.052.092.092 0 0 0-.007.038v.096h.15v.077h-.15v.6h-.078v-.6h-.117v-.077h.117v-.092a.182.182 0 0 1 .05-.127.166.166 0 0 1 .12-.052h.07v.077zm.599.375a.114.114 0 0 0-.009-.046.108.108 0 0 0-.024-.037.094.094 0 0 0-.035-.025.098.098 0 0 0-.044-.01h-.052a.095.095 0 0 0-.044.01.098.098 0 0 0-.036.025.125.125 0 0 0-.024.037.134.134 0 0 0-.008.046V7.9c0 .017.003.032.008.046a.125.125 0 0 0 .06.063.108.108 0 0 0 .044.01h.052a.11.11 0 0 0 .079-.035.108.108 0 0 0 .024-.038.114.114 0 0 0 .01-.046zm.062.387a.179.179 0 0 1-.04.063.182.182 0 0 1-.134.059h-.052a.186.186 0 0 1-.134-.059.196.196 0 0 1-.056-.14V7.59a.2.2 0 0 1 .116-.183.185.185 0 0 1 .074-.015h.052a.18.18 0 0 1 .134.058.188.188 0 0 1 .04.063c.011.024.016.05.016.077v.306a.183.183 0 0 1-.016.077zm.457-.491a.104.104 0 0 0-.043.01.136.136 0 0 0-.036.024c-.01.011-.018.024-.024.038s-.009.03-.009.046v.482h-.077v-.677h.025l.042.07a.183.183 0 0 1 .067-.06.176.176 0 0 1 .087-.023h.046v.09zm1.194.38a.236.236 0 0 1-.229.233h-.064a.205.205 0 0 1-.088-.019.236.236 0 0 1-.14-.214v-.038l.08-.013v.051a.145.145 0 0 0 .046.107c.014.015.03.025.048.033s.038.012.058.012h.057c.02 0 .039-.004.057-.012s.034-.018.048-.033a.137.137 0 0 0 .033-.048.13.13 0 0 0 .012-.059v-.028a.152.152 0 0 0-.018-.08.184.184 0 0 0-.048-.057.326.326 0 0 0-.07-.039l-.077-.03a1.115 1.115 0 0 1-.08-.036c-.024-.013-.047-.029-.067-.048s-.037-.043-.05-.07a.26.26 0 0 1-.017-.103v-.018c0-.032.006-.062.017-.09a.248.248 0 0 1 .048-.074.223.223 0 0 1 .157-.068h.058a.212.212 0 0 1 .158.068.246.246 0 0 1 .065.164v.025l-.082.014v-.039a.167.167 0 0 0-.011-.059.172.172 0 0 0-.031-.048.152.152 0 0 0-.046-.032.13.13 0 0 0-.056-.012h-.051c-.02 0-.04.004-.056.012s-.033.02-.046.032a.175.175 0 0 0-.032.048.167.167 0 0 0-.011.06v.017a.151.151 0 0 0 .067.13c.02.015.043.028.069.038l.078.033c.027.012.053.024.079.038a.274.274 0 0 1 .068.05c.02.018.036.042.048.071a.243.243 0 0 1 .019.103zm.599-.108H25a.108.108 0 0 0-.044.009.128.128 0 0 0-.035.026.112.112 0 0 0-.024.038.114.114 0 0 0-.01.046V7.9a.118.118 0 0 0 .113.118h.052a.113.113 0 0 0 .103-.072.118.118 0 0 0 .009-.046zm.052.328-.043-.067a.209.209 0 0 1-.067.058.181.181 0 0 1-.087.022h-.02a.185.185 0 0 1-.073-.015.2.2 0 0 1-.116-.184V7.89a.204.204 0 0 1 .056-.141A.184.184 0 0 1 25 7.69h.164v-.104a.123.123 0 0 0-.033-.084.107.107 0 0 0-.08-.034h-.045a.107.107 0 0 0-.079.034.123.123 0 0 0-.033.084v.024l-.077-.013V7.59a.2.2 0 0 1 .116-.184.18.18 0 0 1 .073-.015h.046a.18.18 0 0 1 .134.058.183.183 0 0 1 .04.064.2.2 0 0 1 .016.077v.49zm.303 0h.078v-.948h-.078zm1.037 0v-.496a.122.122 0 0 0-.033-.083.098.098 0 0 0-.035-.025.112.112 0 0 0-.044-.009h-.038a.105.105 0 0 0-.044.009.101.101 0 0 0-.036.025.122.122 0 0 0-.033.083v.496h-.077v-.496a.115.115 0 0 0-.034-.083.107.107 0 0 0-.08-.034h-.038a.107.107 0 0 0-.079.034.122.122 0 0 0-.033.083v.496h-.078v-.677h.026l.043.069a.2.2 0 0 1 .066-.06.177.177 0 0 1 .088-.022h.006a.18.18 0 0 1 .167.104.16.16 0 0 1 .03-.042c.01-.014.025-.024.039-.033s.03-.016.046-.022a.233.233 0 0 1 .053-.007h.006c.026 0 .05.005.074.015a.2.2 0 0 1 .116.184v.491zm.683-.496a.1.1 0 0 0-.009-.046.095.095 0 0 0-.024-.037.087.087 0 0 0-.035-.025.095.095 0 0 0-.044-.01h-.052a.098.098 0 0 0-.044.01.094.094 0 0 0-.035.025.108.108 0 0 0-.024.037.114.114 0 0 0-.009.046V7.9c0 .017.003.032.009.046a.108.108 0 0 0 .024.037.11.11 0 0 0 .035.026.112.112 0 0 0 .044.01h.052c.016 0 .03-.004.044-.01a.1.1 0 0 0 .035-.026.095.095 0 0 0 .024-.037.1.1 0 0 0 .009-.046zm.063.387a.18.18 0 0 1-.041.063.19.19 0 0 1-.134.059h-.052a.18.18 0 0 1-.073-.016.196.196 0 0 1-.117-.183V7.59a.2.2 0 0 1 .117-.183.18.18 0 0 1 .073-.015h.052c.026 0 .05.005.074.015a.2.2 0 0 1 .116.183v.306a.2.2 0 0 1-.015.077zm.621.109v-.496a.122.122 0 0 0-.033-.083.107.107 0 0 0-.08-.034h-.051a.108.108 0 0 0-.08.034.157.157 0 0 0-.024.037.144.144 0 0 0-.008.046v.496h-.078v-.677h.026l.042.069c.018-.025.04-.045.067-.06s.055-.022.087-.022h.02a.18.18 0 0 1 .134.058.183.183 0 0 1 .04.064c.01.024.016.049.016.077v.491zM7.968 3.779h.13c.264 1.778.611 2.49 1.165 2.49.405 0 .499-.141.499-.72 0-1.233-1.767-2.558-1.767-3.958 0-.957.677-1.375 1.165-1.375.33 0 .563.167.723.394l.48-.394h.103v2.499h-.15C9.976.794 9.666.4 9.262.4c-.357 0-.432.31-.432.562 0 1.056 1.888 2.633 1.888 4.167 0 .705-.45 1.308-1.297 1.308-.328 0-.638-.11-.835-.352l-.526.352h-.094zm4.406 1.435-.355-2.475h-.015l-.486 2.475zm-1.49 1.131v-.11c.2-.014.294-.063.34-.31l.896-4.564h.564l.764 4.874h.279v.11h-1.522v-.11h.309l-.116-.91h-.903l-.1.69c-.024.164.215.22.346.22v.11zm3.15 0v-.11h.293V1.471h-.293v-.11H15.6v.11h-.324v4.764h.255c.51 0 .664-.124 1.043-1.882h.108v1.992zm3.012 0v-.134c.31-.067.44-.235.44-.553V.418h-.375V.282h1.569l.526 3.48h.056l.545-3.48h1.567v.134h-.347V6.21h.367v.134h-1.831V6.21h.375V.786h-.047l-.855 5.56h-.47l-.835-5.56h-.056v4.905c0 .335.206.487.48.52v.134zm6.03-1.131-.354-2.475h-.017l-.486 2.475zm-1.49 1.131v-.11c.2-.014.293-.063.34-.31l.896-4.564h.563l.764 4.874h.278v.11h-1.522v-.11h.31l-.115-.91h-.904l-.1.69c-.024.164.215.22.347.22v.11zm4.385-2.578c.417 0 .501-.103.501-.324V1.81c0-.303-.153-.337-.5-.337zm.542.593c0-.442-.156-.496-.542-.496v2.371h.301v.11h-1.544v-.11h.292V1.472h-.292v-.11h1.305c.99 0 1.428.571 1.428 1.191 0 .65-.293 1.062-.989 1.256v.014c.666.22.951.426.951 1.261v.675c0 .27.047.393.153.393.186 0 .24-.15.288-.627h.123c.015.758-.34.863-.743.863-.502 0-.73-.208-.73-.642zm-19.9-1.592A3.33 3.33 0 1 1 .047 3.893a3.33 3.33 0 0 1 6.566-1.125" mask="url(#e)" transform="translate(4 14)"/></g><path d="M6.28 1.786A3.324 3.324 0 0 1 4.876 6.28c-.041.022-.081.05-.124.067-.085.034-.21.156-.908.274-.849.145-1.732-.152-1.635-.166.615-.085 1.882-.963 1.058-2.536-.853-1.63-.55-1.29.189-1.688.918-.497.393-1.424 1.039-1.311.062.012.212-.157.294-.113.009.004.783.06.79.068.268.258.413.368.701.91" fill="#af2f39" mask="url(#e)" transform="translate(4 14)"/><g fill="#fefefe" mask="url(#e)" transform="translate(4 14)"><path d="M6.535 3.17c-1.086.058-2.148-.317-2.862-1.018A2.69 2.69 0 0 1 2.845.036l.02-.003c-.052.782.24 1.536.821 2.106.74.725 1.846 1.1 2.973 1.003l.001.019c-.044.004-.08.007-.125.009m-.442 1.736c-1.446.077-2.857-.42-3.804-1.35C1.516 2.8 1.128 1.819 1.197.777l.02-.016c-.069 1.035.316 2.03 1.086 2.784.943.924 2.348 1.42 3.789 1.342a4.12 4.12 0 0 0 .192-.012l-.01.019c-.06.006-.121.01-.181.013M.178 2.256v.037c-.063.986.296 1.893 1.037 2.62.942.923 2.362 1.401 3.798 1.277l.031-.003-.029.022a4.91 4.91 0 0 1-.171.012c-1.383.074-2.734-.404-3.642-1.295C.457 4.196.095 3.304.161 2.307"/><path d="M1.758 5.813a3.736 3.736 0 0 1-.669-.019l-.02-.02a4.052 4.052 0 0 0 1.956-.256 4.28 4.28 0 0 0 1.601-1.106A3.931 3.931 0 0 0 5.56.869l.019.006c.304 1.287-.055 2.573-.939 3.55-.44.487-.996.871-1.608 1.111-.411.16-.842.254-1.274.277"/><path d="m1.085 5.79-.023-.022a6.932 6.932 0 0 1 .372-2.44c.279-.789.708-1.438 1.24-1.876C3.454.81 4.432.617 5.57.866L5.56.88c-1.131-.248-2.1-.05-2.873.587-.53.435-.956 1.081-1.233 1.867-.26.737-.387 1.592-.368 2.455"/></g><path d="M3.417 3.988C3.135 1.975 4.558 1.85 4.558 1.85c.7-.116.984-.634 1.023-.972-.036-.029-.054-.038-.08-.052-.456-.21-2.323-.847-3.318.493 0 0-.808 1.014.186 2.378 0 0 .861 1.155.548 1.411-.094.077-.203.218-1.156-.322 0 0 1.057 1.06.367 1.651.03.015.04.017.078.03 1.887-.215 1.211-2.478 1.211-2.478" fill="#fefefe" mask="url(#e)" transform="translate(4 14)"/></g></svg>