<svg width="36" height="36" fill="none" xmlns="http://www.w3.org/2000/svg"><path d="M18 0c2.837 0 5.52.656 7.907 1.825C31.884 4.753 36 10.895 36 18c0 9.942-8.058 18-18 18-9.94 0-18-8.057-18-18C0 8.06 8.06 0 18 0z" fill="#F2F4F7"/><path d="m19.761 16-1.672.004a1.25 1.25 0 0 0-1.14.728h2.574L19.76 16zm2.95.325a1.46 1.46 0 0 0-.688.165 1.17 1.17 0 0 0-.468.446c-.114.192-.171.42-.174.68.002.268.055.502.165.698.11.195.265.343.464.45.198.107.43.163.697.165a2.04 2.04 0 0 0 .42-.04c.125-.023.223-.048.29-.073v-1.308h-.831v.294h.468v.767c-.041.01-.028.017-.083.026a1.69 1.69 0 0 1-.26.017.974.974 0 0 1-.48-.125.898.898 0 0 1-.338-.342 1.036 1.036 0 0 1-.13-.516c0-.19.041-.36.121-.507a.896.896 0 0 1 .338-.35.996.996 0 0 1 .507-.13c.16 0 .288.043.394.077a.957.957 0 0 1 .282.147l.047-.363a3.167 3.167 0 0 0-.199-.074 1.582 1.582 0 0 0-.225-.056c-.084-.016-.195-.048-.317-.048zm-9.167.017c-.608 0-1.1.578-1.1 1.287 0 .71.492 1.282 1.1 1.282.608 0 1.1-.573 1.1-1.282 0-.71-.492-1.287-1.1-1.287zm13.244 0c-.608 0-1.105.578-1.105 1.287 0 .71.497 1.282 1.105 1.282s1.1-.573 1.1-1.282c0-.71-.492-1.287-1.1-1.287zm-21.995.009c-.446 0-.793.233-.793.671 0 .769 1.061.614 1.061 1.166 0 .29-.283.407-.485.407a.978.978 0 0 1-.446-.095l-.104.303c.163.053.333.1.507.1.495 0 .901-.205.901-.732 0-.814-1.061-.705-1.061-1.179 0-.258.235-.33.433-.33.184 0 .283.03.463.1l.1-.294a1.523 1.523 0 0 0-.576-.117zm1.499.043-.81 2.465h.36l.199-.598h.979l.203.598h.369l-.81-2.465h-.49zm1.53 0v2.465h.359v-2.131l.65 2.131h.394l.658-2.131v2.131h.351v-2.465H9.59l-.56 1.915-.558-1.915h-.65zm2.902 0v2.465h.355v-.983h.347c.445 0 .875-.192.875-.74 0-.564-.421-.742-.927-.742h-.65zm13.153 0v2.465h.355v-1.083l.221-.004c.063-.002.12 0 .169.009a.26.26 0 0 1 .134.069c.041.037.08.097.117.182l.303.827h.404l-.386-.966a.721.721 0 0 0-.108-.177.493.493 0 0 0-.135-.1c.15-.029.266-.071.369-.2a.516.516 0 0 0 .12-.35c0-.584-.407-.672-.913-.672h-.65zm4.293 0v1.313c.002.392.089.693.264.897.176.204.369.306.694.307.325 0 .513-.103.689-.307.175-.204.266-.505.268-.897v-1.313h-.377v1.261c.004.272-.042.491-.138.654-.097.163-.204.247-.442.251-.239-.004-.346-.088-.442-.25-.097-.164-.147-.383-.143-.655v-1.26h-.373zm2.335.009v2.491h.334v-.996h.33c.142 0 .277-.021.402-.07a.669.669 0 0 0 .308-.238.77.77 0 0 0 .121-.442c-.002-.188-.043-.337-.121-.446a.64.64 0 0 0-.317-.234 1.298 1.298 0 0 0-.442-.065h-.615zm-16.96.256c.397 0 .723.434.723.97s-.326.966-.724.966c-.398 0-.719-.43-.719-.966s.321-.97.72-.97zm13.243 0c.398 0 .72.434.72.97s-.322.966-.72.966c-.398 0-.723-.43-.723-.966s.325-.97.723-.97zm-15.709.047h.299c.22 0 .546.113.546.425 0 .325-.275.437-.494.437h-.35v-.862zm13.153 0h.303c.22 0 .542.017.542.36 0 .262-.275.355-.494.355h-.35v-.715zm6.607.009h.286a.66.66 0 0 1 .225.043c.08.028.148.072.204.134a.381.381 0 0 1 .09.252.437.437 0 0 1-.077.26.402.402 0 0 1-.178.138.581.581 0 0 1-.216.044h-.334v-.871zm-24.309.017.394 1.222h-.792l.398-1.222zm9.523.156-.239.732h3.167a1.256 1.256 0 0 0-1.122-.732h-1.806zm.896.888c.196.426.625.725 1.122.732h1.807l.238-.732H16.95zm-.541.888-.238.733 1.672-.005a1.25 1.25 0 0 0 1.14-.728h-2.574z" fill="#464242"/></svg>