<svg width="36" height="36" fill="none" xmlns="http://www.w3.org/2000/svg"><path d="M18 0c2.837 0 5.52.656 7.907 1.825C31.884 4.753 36 10.895 36 18c0 9.942-8.058 18-18 18-9.94 0-18-8.057-18-18C0 8.06 8.06 0 18 0z" fill="#F2F4F7"/><path d="M22.326 7h-8.651L18 14.09 22.326 7z" fill="#FAB046"/><path d="M18 14.09H9.325L13.651 7 18 14.09z" fill="#FDE78B"/><path d="M13.675 21.182H5l4.325-7.091 4.35 7.09z" fill="#F7ADAD"/><path d="M18 28.273H9.325l4.326-7.091L18 28.272z" fill="#E6408B"/><path d="M31 21.182h-8.675l4.326-7.091L31 21.18z" fill="#CBEAF1"/><path d="M26.675 14.09H18L22.326 7l4.349 7.09z" fill="#F0EB70"/><path d="M26.675 28.273H18l4.326-7.091 4.349 7.09z" fill="#9880BA"/><path d="M18 14.09H9.325l4.326 7.092L18 14.09z" fill="#F2746B"/><path d="M13.675 21.182H5l4.325 7.09 4.35-7.09z" fill="#F071A7"/><path d="M26.675 14.09H18l4.326 7.092 4.349-7.091z" fill="#A0DAE6"/><path d="M22.326 21.182h-8.651L18 28.272l4.326-7.09z" fill="#CB2127"/><path d="M31 21.182h-8.675l4.326 7.09L31 21.183z" fill="#8597CC"/></svg>