<svg width="36" height="36" fill="none" xmlns="http://www.w3.org/2000/svg"><path d="M18 0c2.837 0 5.52.656 7.907 1.825C31.884 4.753 36 10.895 36 18c0 9.942-8.058 18-18 18-9.94 0-18-8.057-18-18C0 8.06 8.06 0 18 0z" fill="#F2F4F7"/><path d="M17.4 16.8V12h1.8v3H30v7.11L28.362 24h-8.904l1.644-1.8h6.276l.822-.834V16.8H17.4z" fill="#182E64"/><path d="M16.8 15h-3.024L12 16.902V20.4h6.6v1.11l-.648.69H11.07L9.6 24h9.144l1.656-1.782V18.6h-6.624v-.852l.816-.948H16.8V15zm-9.3 7.2h.396l-1.5 1.8H6l1.5-1.8zm1.14 0h-.48L6.66 24h.48l1.5-1.8zm.27 0h.66L8.07 24h-.66l1.5-1.8zm.93 0h.87L9.204 24h-.87l1.5-1.8h.006z" fill="#00439A"/></svg>