<svg height="36" viewBox="0 0 36 36" width="36" xmlns="http://www.w3.org/2000/svg"><mask id="a" fill="#fff"><path d="M0 0h7.888v7.114H0z" fill-rule="evenodd"/></mask><g fill="none" fill-rule="evenodd"><path d="M18 0c2.837 0 5.52.656 7.907 1.825C31.884 4.753 36 10.895 36 18c0 9.942-8.058 18-18 18-9.94 0-18-8.057-18-18C0 8.06 8.06 0 18 0z" fill="#f2f4f7" fill-rule="nonzero"/><path d="M12.4 15.557a3.545 3.545 0 1 1-3.775 5.812l1.095-2.02a1.496 1.496 0 0 0 2.91-.48c0-.738-.534-1.352-1.237-1.473zm-3.43-.107c.657-.436 1.46-.623 2.193-.623.387 0 .61.034.983.132L13.22 13h-2.906z" fill="#b1b2b4"/><g fill="#006caa"><path d="M31.5 20.92h.5v-.163h-1.175v.163h.5v1.47h.175zm-1.26-.163h-.175v1.49h-.003l-.865-1.49h-.288v1.632h.174v-1.48h.004l.867 1.48h.286zm-2.8.163h.817v-.163h-.992v1.632h.992v-.163h-.817v-.599h.782v-.152h-.782zm-1.02-.024h.005v1.493h.176v-1.632h-.303l-.548 1.397-.545-1.397h-.303v1.632h.175v-1.493h.004l.585 1.493h.173zm-3.337 1.493h.175v-.636h.603c.374 0 .376-.356.376-.502 0-.28-.07-.494-.368-.494h-.786zm.71-1.469c.216 0 .27.041.27.354 0 .32-.12.316-.353.316h-.452v-.67zm-1.588 1.47h.175v-1.633h-.175zm-.905-1.633v1.175c0 .304-.125.307-.436.307-.377 0-.437-.042-.437-.307v-1.175h-.175v1.175c0 .462.274.47.612.47.364 0 .61-.033.61-.47v-1.175zm-1.638 1.432-.13-.09c.03-.09.033-.187.033-.322v-.46c0-.425-.142-.574-.537-.574h-.24c-.388.014-.534.17-.534.573v.461c0 .44.095.625.534.625h.24c.19 0 .346-.039.447-.17l.115.083zm-.728-.509-.081.126.482.331c-.051.078-.167.101-.272.101h-.294c-.262 0-.34-.067-.34-.428v-.53c0-.275.078-.374.34-.374h.294c.278 0 .328.147.328.347v.607c0 .038 0 .094-.013.128zm-2.111-.76h.817v-.163h-.993v1.632h.993v-.163h-.817v-.599h.782v-.152h-.782zm13.86-1.11h.793c.463 0 .488-.454.488-.616v-.388c0-.604-.342-.63-.53-.63h-.751zm.175-.164V18.34h.605c.295 0 .326.302.326.393v.43c-.004.291-.046.483-.354.483zm-2.138-1.47h-.175v1.633h.96v-.163h-.785zm-2.236.164h.818v-.164h-.992v1.633h.992v-.163h-.818v-.599h.783v-.152h-.783zm-1.593 1.468h.175v-1.632h-.175zm-1.982-1.468h.772v-.164h-.947v1.633h.175v-.746h.752v-.153h-.752zm-2.14-.164h-.175v1.633h.96v-.163h-.785zm-1.663 1.632h.175v-1.632h-.175zm-1.956-1.645c-.385.005-.503.14-.503.55v.58c0 .385.132.528.503.528h.208c.37 0 .502-.143.502-.528v-.58c0-.41-.117-.545-.502-.55zm.208.163c.259 0 .327.068.327.386v.581c0 .324-.101.363-.327.365h-.208c-.227-.002-.327-.04-.327-.365v-.58c0-.319.068-.387.327-.387zm14.277-1.404h-.01l-.66-1.365h-.49v1.633h.297l-.024-1.365h.01l.657 1.365h.492v-1.633h-.297zm-1.918 0h-.01l-.66-1.365h-.49v1.633h.297l-.024-1.365h.01l.657 1.365h.49v-1.633h-.295zm-1.906-.042.1.31h.3l-.522-1.633h-.437l-.512 1.633h.307l.097-.31zm-.066-.237h-.534l.264-.847h.004zm-1.633-.829h.01l-.024 1.376h.297v-1.633h-.486l-.412 1.213h-.008l-.42-1.213h-.476v1.633h.297l-.025-1.37h.006l.49 1.37h.266zm-2.91-.257h-.296v1.633h.296v-.699h.138l.568.7h.375l-.69-.837.626-.797h-.365l-.514.666h-.138zm-.732.547v-.09c-.021-.468-.241-.47-.626-.47-.455 0-.646.118-.646.64v.374c.006.477.103.667.646.645.383-.018.649 0 .642-.492v-.107h-.296v.09c0 .232-.107.241-.346.241-.311 0-.348-.063-.35-.39v-.36c0-.32.052-.373.35-.373.26 0 .329.013.329.202v.09zm-2.427-.279h.762v-.268h-1.058v1.633h1.064v-.268h-.768v-.433h.723v-.257h-.723zm-1.358-.268h-.296v1.633h1.017v-.268h-.721zm-1.694.921h.455c.175 0 .212.052.212.231 0 .2-.084.213-.261.213h-.406zm.498.712c.326 0 .466-.094.466-.455 0-.207-.041-.357-.258-.383v-.009c.188-.048.22-.174.22-.36 0-.36-.152-.426-.454-.426h-.768v1.633zm-.498-1.365h.418c.147 0 .212.013.212.187s-.037.23-.204.23h-.426zm14.402-1.703c.142.002.195.098.195.235v.305h.297v-.305c0-.23-.052-.35-.262-.37v-.008c.262-.042.274-.218.274-.46 0-.37-.13-.48-.467-.49h-.79v1.633h.298v-.54zm-.455-.267v-.558h.412c.212 0 .25.041.25.272 0 .24-.053.286-.271.286zm-1.686-.558h.762v-.268h-1.058v1.633h1.064v-.268h-.768v-.433h.723v-.257h-.723zm-1.543-.268h-.296v1.633h1.017v-.268h-.721zm-1.563 0h-.297v1.633h1.017v-.268h-.72zm-1.696.268h.76v-.268h-1.056v1.633h1.064v-.268h-.768v-.433h.722v-.257h-.722zm-1.552-.28c-.49 0-.652.09-.652.596v.44c0 .535.175.622.652.622.468 0 .659-.1.659-.623v-.439c0-.525-.214-.596-.66-.596zm0 .267c.264 0 .369.022.363.33v.438c0 .316-.093.355-.363.355-.296 0-.356-.03-.356-.355v-.439c.007-.259.038-.329.356-.329zm-1.27-.255h-.295v.668h-.718v-.668h-.297v1.633h.297v-.697h.718v.697h.296zm-1.93.547v-.09c-.021-.467-.241-.469-.626-.469-.455 0-.646.117-.646.64v.374c.006.476.102.666.646.644.383-.017.648 0 .642-.492v-.106h-.296v.09c0 .232-.107.24-.346.24-.311 0-.348-.063-.35-.389v-.362c0-.319.05-.372.35-.372.259 0 .329.013.329.202v.09zm-3.067.566v.076c0 .468.305.457.646.457.398 0 .603-.039.603-.499 0-.415-.13-.44-.605-.472-.3-.019-.34-.026-.34-.226 0-.174.048-.205.342-.205.208 0 .276.007.276.183v.052h.297v-.052c0-.429-.258-.44-.573-.44-.37 0-.638.013-.638.462 0 .474.264.462.597.483.23.013.348-.018.348.215 0 .19-.037.242-.307.242-.273 0-.35-.013-.35-.2v-.076z"/><path d="M7.888.078 6.772 2.114a1.218 1.218 0 0 0-.472.2c-.227.148-.266.237-.471.514L4.657 4.971c-.329.601-.823 1.32-1.945 1.831C1.757 7.24.785 7.16 0 6.916l1.084-1.959c.347.066.576.04.901-.1.369-.159.57-.344.757-.7L4.19 1.551c.144-.196.679-1.01 1.813-1.369A3.63 3.63 0 0 1 7.888.078" mask="url(#a)" transform="translate(4 15.338)"/></g></g></svg>