<svg width="36" height="36" fill="none" xmlns="http://www.w3.org/2000/svg"><path d="M18 0c2.837 0 5.52.656 7.907 1.825C31.884 4.753 36 10.895 36 18c0 9.942-8.058 18-18 18-9.94 0-18-8.057-18-18C0 8.06 8.06 0 18 0z" fill="#F2F4F7"/><path d="M7.886 16.854c.103.135.19.282.26.438L6.17 18.767l-.826-.525v-.631l.826.525 1.716-1.283z" fill="#21A038"/><path d="M4.501 18.199c0-.029 0-.057.002-.085l-.5-.025a2.219 2.219 0 0 0 .633 1.664l.355-.36A1.687 1.687 0 0 1 4.5 18.2z" fill="url(#a)"/><path d="M6.17 16.508c.028 0 .055 0 .083.002l.025-.507a2.163 2.163 0 0 0-1.643.641l.356.36a1.66 1.66 0 0 1 1.179-.496z" fill="url(#b)"/><path d="M6.17 19.89c-.028 0-.056 0-.084-.003l-.025.508.109.002a2.14 2.14 0 0 0 1.533-.644l-.354-.36a1.663 1.663 0 0 1-1.18.497z" fill="url(#c)"/><path d="m7.11 16.803.422-.315A2.14 2.14 0 0 0 6.17 16v.508c.336 0 .663.102.94.295z" fill="url(#d)"/><path d="M8.34 18.199c0-.132-.012-.264-.035-.394l-.467.348v.046a1.705 1.705 0 0 1-.55 1.253l.337.377a2.192 2.192 0 0 0 .714-1.63z" fill="#21A038"/><path d="M6.17 19.89a1.645 1.645 0 0 1-1.237-.558l-.372.342a2.14 2.14 0 0 0 1.609.724v-.508z" fill="url(#e)"/><path d="m5.05 16.945-.336-.377A2.192 2.192 0 0 0 4 18.2h.501a1.706 1.706 0 0 1 .55-1.254z" fill="url(#f)"/><path d="m16.52 17.257.621-.458h-2.077v2.754h2.077v-.458h-1.485v-.706h1.267v-.458h-1.267v-.674h.864zm-2.854.615h-.722v-.615h1.151l.62-.46h-2.363v2.754h1.237c.694 0 1.092-.315 1.092-.864 0-.526-.36-.815-1.015-.815zm-.103 1.22h-.619v-.762h.619c.375 0 .55.128.55.381 0 .254-.186.382-.55.382zm5.105-2.293h-1.13v2.753h.592v-.78h.538c.722 0 1.168-.38 1.168-.988s-.446-.985-1.168-.985zm-.012 1.515h-.526v-1.057h.526c.38 0 .589.188.589.529 0 .34-.21.528-.59.528zm-7.194.589a1.033 1.033 0 0 1-.498.125c-.522 0-.9-.373-.9-.886 0-.514.378-.887.9-.887a.88.88 0 0 1 .525.163l.414-.306-.028-.02c-.242-.213-.565-.326-.935-.326-.4 0-.765.135-1.025.381a1.33 1.33 0 0 0-.406.98 1.376 1.376 0 0 0 .404.996c.261.255.624.396 1.022.396.417 0 .78-.145 1.027-.41l-.371-.277-.129.07zm10.725-1.031h-.721v-.615h1.549v-.46h-2.142v2.754h1.236c.693 0 1.091-.315 1.091-.864.002-.526-.358-.815-1.013-.815zm-.103 1.22h-.618v-.762h.618c.375 0 .55.128.55.381 0 .254-.185.382-.55.382zm7.856.455h-.601v-2.753h.6v1.156h.328l.883-1.156h.681l-1.047 1.31L32 19.547h-.797l-.895-1.083h-.368v1.083zm-4.556-.523h-1.271l-.216.535h-.64l1.193-2.754h.64l1.172 2.754H25.6l-.215-.535zm-.2-.499-.432-1.07-.435 1.07h.868zm1.887-1.72v1.15h1.244v-1.15h.62v2.754h-.62v-1.085H27.07v1.085h-.62v-2.754h.62z" fill="#21A038"/><defs><linearGradient id="a" x1="7.228" y1="20.23" x2="6.267" y2="15.686" gradientUnits="userSpaceOnUse"><stop offset=".14" stop-color="#F1E813"/><stop offset=".3" stop-color="#E6E418"/><stop offset=".58" stop-color="#C9DA26"/><stop offset=".89" stop-color="#A2CC39"/></linearGradient><linearGradient id="b" x1="4.378" y1="19.214" x2="8.437" y2="18.294" gradientUnits="userSpaceOnUse"><stop offset=".06" stop-color="#0FA7DF"/><stop offset=".54" stop-color="#0098F8"/><stop offset=".92" stop-color="#0290EA"/></linearGradient><linearGradient id="c" x1="3.913" y1="19.055" x2="8.264" y2="18.47" gradientUnits="userSpaceOnUse"><stop offset=".12" stop-color="#A2CC39"/><stop offset=".28" stop-color="#86C239"/><stop offset=".87" stop-color="#219F38"/></linearGradient><linearGradient id="d" x1="3.668" y1="16.932" x2="8.278" y2="17.748" gradientUnits="userSpaceOnUse"><stop offset=".06" stop-color="#0290EA"/><stop offset=".79" stop-color="#0C89CA"/></linearGradient><linearGradient id="e" x1="4.339" y1="17.154" x2="8.651" y2="18.192" gradientUnits="userSpaceOnUse"><stop offset=".13" stop-color="#F1E813"/><stop offset=".3" stop-color="#EAE616"/><stop offset=".53" stop-color="#D8DF1F"/><stop offset=".8" stop-color="#BAD52D"/><stop offset=".98" stop-color="#A2CC39"/></linearGradient><linearGradient id="f" x1="4.187" y1="18.26" x2="4.797" y2="16.695" gradientUnits="userSpaceOnUse"><stop offset=".07" stop-color="#A2CC39"/><stop offset=".26" stop-color="#81C45E"/><stop offset=".92" stop-color="#0FA7DF"/></linearGradient></defs></svg>