<svg height="36" viewBox="0 0 36 36" width="36" xmlns="http://www.w3.org/2000/svg"><mask id="a" fill="#fff"><path d="M0 0h3.202v2.56H0z" fill-rule="evenodd"/></mask><g fill="none" fill-rule="evenodd"><path d="M18 0c2.837 0 5.52.656 7.907 1.825C31.884 4.753 36 10.895 36 18c0 9.942-8.058 18-18 18-9.94 0-18-8.057-18-18C0 8.06 8.06 0 18 0z" fill="#f2f4f7" fill-rule="nonzero"/><g fill="#31312f"><path d="M7.084 17.726a.781.781 0 0 0-.088-.148.142.142 0 0 0-.114-.057.12.12 0 0 0-.123.115l.001.011a.14.14 0 0 0 .02.07l.022.046c.004.007.004.015 0 .02a.014.014 0 0 1-.018-.006v-.002l-.027-.04a.131.131 0 0 0-.229.128l.014.028c.003.007.003.015 0 .02a.014.014 0 0 1-.019-.005v-.002l-.02-.03a.12.12 0 0 0-.169-.028.117.117 0 0 0-.05.103.21.21 0 0 0 .02.078.922.922 0 0 1 .076.414c0 .422-.33.764-.729.764a.783.783 0 0 1-.76-.527.03.03 0 0 0-.036-.018l-.785.241a.027.027 0 0 0-.018.034 1.642 1.642 0 0 0 1.591 1.145c.716 0 1.312-.479 1.53-1.127.132-.405.1-.846-.089-1.227m-1.457-.11a.076.076 0 1 1 0-.152.076.076 0 0 1 0 .152m0-.653c-.042 0-.077-.034-.077-.076s.034-.076.076-.077c.042 0 .077.034.077.076v.001a.076.076 0 0 1-.076.076m0 .327a.076.076 0 1 1 0-.152.076.076 0 0 1 0 .152m.6.368a.426.426 0 0 0-.057-.048.922.922 0 0 0-.135-.08.476.476 0 0 0-.086-.033.13.13 0 0 0-.083 0 .088.088 0 0 0-.05.108c.01.036.04.051.071.065a1.3 1.3 0 0 1 .212.127.1.1 0 0 0 .127 0 .097.097 0 0 0 .003-.137l-.003-.003m.274-.189a.651.651 0 0 0-.166-.126.2.2 0 0 0-.057-.023.097.097 0 0 0-.097.03.095.095 0 0 0-.008.11.206.206 0 0 0 .066.062c.04.029.067.05.103.082a.152.152 0 0 0 .078.046.103.103 0 0 0 .105-.056.115.115 0 0 0-.025-.127m-.477-.276a.391.391 0 0 0-.075-.026.159.159 0 0 0-.078-.004.086.086 0 0 0-.064.104.13.13 0 0 0 .012.027.1.1 0 0 0 .057.037l.056.02c.017.007.035.012.052.017a.09.09 0 0 0 .08-.023.092.092 0 0 0 .001-.129.086.086 0 0 0-.039-.023m-.081-.348a.226.226 0 0 0-.044-.008.094.094 0 0 0-.057.013.084.084 0 0 0-.022.116c.01.014.024.025.041.031a.265.265 0 0 0 .057.015.085.085 0 0 0 .091-.063.087.087 0 0 0-.064-.104m.405.138a.344.344 0 0 0-.145-.053.095.095 0 0 0-.1.09.094.094 0 0 0 .052.089l.057.03a.355.355 0 0 0 .069.03c.029.009.06.002.084-.016a.103.103 0 0 0-.02-.17m.436.317a.529.529 0 0 0-.07-.072.412.412 0 0 0-.075-.057.12.12 0 0 0-.09-.02.099.099 0 0 0-.073.06.101.101 0 0 0 .018.106c.019.019.036.033.057.05s.05.046.075.07a.112.112 0 0 0 .078.04.101.101 0 0 0 .093-.055.111.111 0 0 0-.014-.121"/><path d="M.17 2.354a.768.768 0 0 0 .087.15.148.148 0 0 0 .113.056.12.12 0 0 0 .123-.116v-.01a.166.166 0 0 0-.019-.07L.45 2.317C.447 2.31.447 2.302.453 2.3a.013.013 0 0 1 .02.005v.001l.026.041a.131.131 0 0 0 .229-.128L.714 2.19C.71 2.182.71 2.174.717 2.17c.006-.003.014-.002.017.004a.003.003 0 0 1 .001.002l.021.031a.121.121 0 0 0 .22-.076.216.216 0 0 0-.022-.078.919.919 0 0 1-.079-.414c0-.42.33-.763.727-.763.342-.01.65.204.762.527.005.014.02.023.034.018l.784-.24a.029.029 0 0 0 .02-.036A1.644 1.644 0 0 0 1.61 0C.894 0 .298.48.08 1.128c-.132.405-.1.845.09 1.226" mask="url(#a)" transform="translate(4 15)"/><path d="M5.627 18.117c.042 0 .077.034.077.077 0 .042-.035.076-.077.076s-.077-.034-.077-.076c0-.043.035-.077.077-.077m0-.327c.042 0 .076.036.076.078a.077.077 0 0 1-.153-.001c0-.042.035-.076.077-.076zm-.6-.368a.33.33 0 0 0 .057.048.867.867 0 0 0 .22.112c.027.01.056.01.083 0a.087.087 0 0 0 .05-.107c-.01-.036-.04-.05-.07-.066a1.025 1.025 0 0 1-.118-.063 2.224 2.224 0 0 1-.095-.063.1.1 0 0 0-.126 0 .095.095 0 0 0-.004.136l.004.003m-.274.191c.048.05.104.093.165.126.018.01.037.018.057.022a.097.097 0 0 0 .097-.031.095.095 0 0 0 .008-.108.195.195 0 0 0-.066-.062 2.213 2.213 0 0 1-.104-.082.154.154 0 0 0-.077-.047.105.105 0 0 0-.105.057.112.112 0 0 0 .025.126m.477.276c.024.01.05.02.075.027a.171.171 0 0 0 .078.004.087.087 0 0 0 .052-.131.096.096 0 0 0-.057-.037l-.056-.02a.252.252 0 0 0-.053-.017.086.086 0 0 0-.078.023.09.09 0 0 0-.002.128c.011.01.024.02.04.024m.08.347a.226.226 0 0 0 .044.008.083.083 0 0 0 .041-.16.265.265 0 0 0-.057-.015.083.083 0 0 0-.091.063.086.086 0 0 0 .062.104zm-.407-.138a.344.344 0 0 0 .145.054.097.097 0 0 0 .101-.091c0-.007 0-.015-.002-.022a.094.094 0 0 0-.051-.068l-.059-.03a.36.36 0 0 0-.069-.031.097.097 0 0 0-.085.018.104.104 0 0 0 .02.17m-.433-.317a.536.536 0 0 0 .145.13.118.118 0 0 0 .09.018.097.097 0 0 0 .053-.162.691.691 0 0 0-.057-.05l-.074-.07a.115.115 0 0 0-.078-.04.1.1 0 0 0-.093.056.106.106 0 0 0 .014.12m8.542-1.038c-.302 0-.647.103-.85.346v-1.725a.027.027 0 0 0-.028-.027h-.797a.028.028 0 0 0-.028.027v4.584c0 .016.013.027.028.027h.797a.026.026 0 0 0 .027-.027v-1.824c-.003-.352.2-.628.59-.628.41 0 .583.289.583.64v1.815c0 .015.012.027.027.027h.797a.028.028 0 0 0 .028-.027v-1.961c0-.691-.37-1.247-1.173-1.247m2.333-1.483a.525.525 0 1 0-.004 1.05.52.52 0 0 0 .521-.585.531.531 0 0 0-.517-.465m.398 1.563h-.797a.028.028 0 0 0-.028.027v3.098a.028.028 0 0 0 .028.027h.797a.027.027 0 0 0 .027-.027v-3.098a.027.027 0 0 0-.027-.027m2.556-.083c-.468 0-.814.205-.955.43v-1.806a.027.027 0 0 0-.027-.027h-.785a.027.027 0 0 0-.027.027v4.584c0 .016.012.027.027.027h.772a.026.026 0 0 0 .027-.027v-.356c.167.268.5.46.936.46.896 0 1.486-.71 1.486-1.665 0-.936-.532-1.647-1.454-1.647m-.18 2.557c-.43 0-.793-.333-.793-.904 0-.57.365-.897.793-.897s.782.32.782.897-.346.904-.782.904m6.74-.051a1.364 1.364 0 0 1-.23.019c-.244 0-.372-.09-.372-.366v-1.32h.602a.028.028 0 0 0 .028-.026v-.703a.028.028 0 0 0-.028-.026h-.606v-.915a.028.028 0 0 0-.028-.027h-.783a.028.028 0 0 0-.028.027v.915h-.545c-.014 0-.027.012-.027.026v.703c0 .014.013.026.027.026h.543v1.468c0 .608.385.973 1 .973.157.005.314-.018.462-.07a.029.029 0 0 0 .019-.025v-.652a.028.028 0 0 0-.027-.027h-.006m7.114-3.91h-.793a.027.027 0 0 0-.028.028v1.775c-.09-.166-.346-.39-.891-.39-.891 0-1.512.724-1.512 1.644 0 .954.64 1.659 1.537 1.659.423 0 .744-.192.885-.442v.34c0 .015.012.028.027.028h.773c.015-.001.027-.013.027-.027v-4.587a.027.027 0 0 0-.027-.027M30.392 19.3c-.45 0-.782-.34-.782-.903s.346-.891.782-.891c.435 0 .785.32.785.885 0 .564-.35.909-.785.909m-3.593-2.568c-.808 0-1.55.653-1.55 1.659 0 1.063.762 1.685 1.627 1.685.645 0 1.1-.316 1.326-.738a.027.027 0 0 0-.012-.037h-.001l-.639-.277a.028.028 0 0 0-.034.01c-.122.189-.322.31-.634.31-.423 0-.775-.302-.793-.718h2.229a.026.026 0 0 0 .026-.025c.004-.044.012-.142.012-.237-.003-1.011-.586-1.632-1.56-1.632zm-.692 1.313a.681.681 0 0 1 .705-.625c.487 0 .692.31.704.624zm-4.403.016-.448-.096c-.173-.032-.288-.119-.288-.273 0-.179.18-.314.403-.314.308 0 .45.174.501.34a.027.027 0 0 0 .033.018h.003l.634-.247c.015-.005.021-.02.016-.034-.113-.328-.446-.725-1.193-.725-.68 0-1.179.468-1.179 1.032 0 .442.276.82.884.953l.417.097c.243.052.34.154.34.296 0 .166-.135.313-.417.313-.356 0-.542-.213-.573-.453-.002-.014-.015-.025-.029-.023l-.004.001-.676.147a.028.028 0 0 0-.022.03c.051.362.384.95 1.311.95.826 0 1.223-.526 1.223-1.038 0-.46-.313-.85-.935-.977m-10.898.945-.698-.232a.028.028 0 0 0-.035.017.719.719 0 0 1-.715.506c-.436 0-.808-.32-.808-.89 0-.57.365-.884.801-.884a.67.67 0 0 1 .657.42c.006.013.021.02.034.015l.715-.244a.028.028 0 0 0 .017-.035v-.001c-.174-.487-.65-.941-1.443-.941-.916 0-1.633.698-1.633 1.672s.731 1.672 1.66 1.672c.825 0 1.316-.521 1.466-1.038a.026.026 0 0 0-.018-.033"/></g></g></svg>