<svg height="36" viewBox="0 0 36 36" width="36" xmlns="http://www.w3.org/2000/svg"><mask id="a" fill="#fff"><path d="M0 0h25.877v3.686H0z" fill-rule="evenodd"/></mask><mask id="b" fill="#fff"><path d="M0 7.958h28V0H0z" fill-rule="evenodd"/></mask><g fill="none" fill-rule="evenodd"><path d="M18 0c2.837 0 5.52.656 7.907 1.825C31.884 4.753 36 10.895 36 18c0 9.942-8.058 18-18 18-9.94 0-18-8.057-18-18C0 8.06 8.06 0 18 0z" fill="#f2f4f7" fill-rule="nonzero"/><path d="M24.778 2.343a.765.765 0 0 0 .171-.513.928.928 0 0 0-.927-.927c-.514 0-.904.415-.904.927 0 .22.073.415.195.586l-.463.83a1.86 1.86 0 0 1-.659-1.416c0-1 .83-1.83 1.831-1.83 1.025 0 1.855.83 1.855 1.83 0 .513-.22.977-.537 1.32zm-5.151-.977h.83v.342h.025c.122-.268.317-.415.61-.415.098 0 .17.025.269.05V2.1c-.098-.025-.171-.049-.342-.049-.342 0-.513.195-.513.66v.903h-.879zm-2.001.855c.048-.244.195-.366.439-.366.22 0 .391.171.391.366zm1.66.464c0-.879-.391-1.39-1.294-1.39-.708 0-1.196.536-1.196 1.194 0 .757.561 1.172 1.269 1.172.513 0 1.001-.219 1.172-.708h-.806a.475.475 0 0 1-.366.171c-.268 0-.415-.195-.439-.439zm-3.736.928h.854v-3.1h-.854zm-.488-3.1h-.854V1.61a.776.776 0 0 0-.635-.317c-.756 0-.952.66-.952 1.172 0 .561.318 1.195.952 1.195.415 0 .537-.146.66-.292v.244h.83v-3.1zm-.829 1.976c0 .27-.074.562-.367.562-.317 0-.39-.293-.39-.562 0-.268.073-.56.39-.56.293 0 .367.292.367.56zM9.911 3.613h.855V2.416c0-.365.195-.439.342-.439.268 0 .293.195.293.464v1.172h.854V2.074c0-.536-.366-.78-.781-.78-.342 0-.562.122-.733.341v-.268h-.83zm-1.342-2.49h.854v-.61h-.854zm0 2.49h.854V1.367h-.854zM5.737.513h.854V1.61c.147-.195.342-.317.708-.317.415 0 .782.244.782.78v1.54h-.855V2.44c0-.269-.049-.464-.293-.464-.146 0-.342.073-.342.44v1.196h-.854zM5.346 2.22c-.048-.634-.561-.927-1.147-.927-.683 0-1.22.487-1.22 1.195s.537 1.172 1.22 1.172c.611 0 1.099-.34 1.172-.952h-.806c-.024.172-.146.342-.342.342-.341 0-.39-.293-.39-.562 0-.268.049-.56.39-.56.098 0 .171.024.22.072.049.05.073.123.098.22zm-4.393.342c0 .073.024.146.048.22.049.17.269.22.44.22.17 0 .39-.05.39-.294 0-.146-.122-.195-.659-.342C.684 2.221.123 2.074.123 1.464.123.757.733.44 1.367.44c.684 0 1.27.244 1.294 1.001h-.903a.232.232 0 0 0-.098-.244.644.644 0 0 0-.292-.073c-.123 0-.342.024-.342.22.024.22.463.268.903.39.439.122.879.318.879.88 0 .804-.757 1.073-1.441 1.073C1.001 3.686 0 3.564 0 2.563z" fill="#000" mask="url(#a)" transform="translate(5.293 14)"/><path d="m29.363 15.83-.977 1.88h1.905z" fill="#000"/><path d="M10.204 7.958H28V7.25H10.204zM0 6.713h28v-.708H0zm1.416-1.269H28V4.76H1.416z" fill="#c72d28" mask="url(#b)" transform="translate(4 14)"/></g></svg>