<svg width="36" height="36" fill="none" xmlns="http://www.w3.org/2000/svg"><path d="M18 0c2.837 0 5.52.656 7.907 1.825C31.884 4.753 36 10.895 36 18c0 9.942-8.058 18-18 18-9.94 0-18-8.057-18-18C0 8.06 8.06 0 18 0z" fill="#F2F4F7"/><mask id="a" style="mask-type:alpha" maskUnits="userSpaceOnUse" x="4" y="13" width="28" height="10"><path d="M4 13h28v9.711H4V13z" fill="#fff"/></mask><g mask="url(#a)"><path d="M8.006 13 4 22.711h24.002L32 13H8.006z" fill="#173B7A"/></g><mask id="b" style="mask-type:alpha" maskUnits="userSpaceOnUse" x="4" y="13" width="28" height="10"><path d="M4 13h28v9.711H4V13z" fill="#fff"/></mask><g mask="url(#b)"><path d="M27.743 16.618c.526-1.627-1.278-1.902-2.8-1.902-2.144 0-3.666.485-4.297 2.04a1.825 1.825 0 0 0-.13.485h-1.893l.947-2.299h-.923l-.938 2.299h-3.974l3.763-2.299h-3.026l-3.035 2.007.817-2.007h-2.233L7.674 20.68h2.234l.607-1.48 1.132-.689.737 2.169h2.768l-1.093-2.63h3.326l-1.084 2.63h.914l1.076-2.63h2.63c.243.146.6.25 1.052.307l1.894.243c.526.065.712.146.59.453-.17.413-.727.51-1.23.51-.485 0-.768-.064-.922-.178-.154-.105-.178-.275-.121-.485h-2.598c-.647 1.731 1.384 2.023 2.962 2.023 2.371 0 3.917-.631 4.459-1.991.453-1.125-.113-1.594-1.586-1.764l-1.845-.21c-.543-.065-.631-.22-.559-.405.154-.389.6-.542 1.239-.542.283 0 .566.032.752.13.186.08.283.242.202.485h2.533v-.008z" fill="#FEFEFE"/></g></svg>