<svg width="36" height="36" fill="none" xmlns="http://www.w3.org/2000/svg"><path d="M18 0c2.837 0 5.52.656 7.907 1.825C31.884 4.753 36 10.895 36 18c0 9.942-8.058 18-18 18-9.94 0-18-8.057-18-18C0 8.06 8.06 0 18 0z" fill="#F2F4F7"/><path d="M19.317 19.296h-.232v.693a.63.63 0 0 0 .04.231.429.429 0 0 0 .275.255.656.656 0 0 0 .388 0 .449.449 0 0 0 .278-.255.63.63 0 0 0 .039-.23v-.694h-.231v.693a.423.423 0 0 1-.019.134.263.263 0 0 1-.058.088.307.307 0 0 1-.404 0 .232.232 0 0 1-.058-.088.364.364 0 0 1-.02-.134l.002-.693zM6.139 17.705a.825.825 0 0 0 .083-.388.816.816 0 0 0-.109-.444.957.957 0 0 0-.263-.287 1.616 1.616 0 0 0-.361-.194 12.339 12.339 0 0 1-.352-.143 1.229 1.229 0 0 1-.27-.148.25.25 0 0 1-.109-.209.284.284 0 0 1 .042-.157.356.356 0 0 1 .125-.104.606.606 0 0 1 .16-.062.756.756 0 0 1 .173-.021c.105 0 .21.02.307.06a.79.79 0 0 1 .231.15l.317-.462a1.413 1.413 0 0 0-.45-.231A1.742 1.742 0 0 0 5.2 15a1.298 1.298 0 0 0-.395.065 1.04 1.04 0 0 0-.343.17.899.899 0 0 0-.23.285.77.77 0 0 0-.086.377.705.705 0 0 0 .131.442c.085.115.193.212.317.284.105.063.215.115.33.155.113.039.223.084.33.136.093.043.18.101.256.171a.315.315 0 0 1 .108.232.365.365 0 0 1-.127.286.49.49 0 0 1-.335.123.902.902 0 0 1-.414-.1 1.156 1.156 0 0 1-.333-.25l-.409.42c.157.145.338.264.534.35.197.084.408.126.622.123.14 0 .278-.023.41-.07.12-.043.233-.107.332-.189a.91.91 0 0 0 .231-.3l.01-.005zm1.988-2.106h.844v-.548H6.68v.543h.839v2.631h.612L8.127 15.6zm1.54 2.63h.612v-3.178h-.608l-.004 3.179zm1.678 0h1.776v-.55h-1.156v-2.628h-.615l-.005 3.179zm3.369 1.23a.614.614 0 0 0-.128.195.643.643 0 0 0 0 .479.625.625 0 0 0 .132.194.64.64 0 0 0 .453.178c.1.002.2-.02.292-.063a.564.564 0 0 0 .205-.166v-.532h-.529v.204h.305v.256a.42.42 0 0 1-.553-.025.41.41 0 0 1-.118-.289.413.413 0 0 1 .239-.377.397.397 0 0 1 .446.09l.148-.155a.573.573 0 0 0-.192-.125.643.643 0 0 0-.684.132l-.016.005zm-.965-1.234h1.764v-.546h-1.155v-2.628h-.62l.011 3.174zm3.006 1.403a.125.125 0 0 1 0 .051.112.112 0 0 1-.023.04.132.132 0 0 1-.042.027.27.27 0 0 1-.074 0h-.2v-.254h.191a.204.204 0 0 1 .074 0 .13.13 0 0 1 .042.028c.01.012.017.025.023.04a.132.132 0 0 1 0 .05l.009.018zm.116-.25a.33.33 0 0 0-.107-.064.424.424 0 0 0-.152-.023h-.426v1.193h.232v-.527h.083l.423.527h.284l-.446-.546a.365.365 0 0 0 .12-.069.33.33 0 0 0 .076-.377.33.33 0 0 0-.076-.108l-.011-.005zm-.1-3.784h1.293v-.543H16.16v3.174h.61v-1.429h1.232v-.545H16.77v-.657zm1.67 4.296a.426.426 0 0 1-.107.287.386.386 0 0 1-.64-.13.443.443 0 0 1 0-.317.434.434 0 0 1 .08-.13.422.422 0 0 1 .123-.087.397.397 0 0 1 .312 0 .396.396 0 0 1 .206.217c.02.05.03.105.03.16h-.005zm.189.231a.672.672 0 0 0 0-.479.58.58 0 0 0-.127-.191.612.612 0 0 0-.197-.132.678.678 0 0 0-.504 0 .603.603 0 0 0-.323.323.672.672 0 0 0 0 .479.545.545 0 0 0 .13.192.602.602 0 0 0 .193.132.677.677 0 0 0 .504 0 .58.58 0 0 0 .324-.324zm1.87-4.192a.361.361 0 0 1-.092.24.271.271 0 0 1-.109.072.618.618 0 0 1-.199.024h-.508v-.67h.508a.543.543 0 0 1 .2.027.27.27 0 0 1 .115.076.343.343 0 0 1 .067.109c.017.043.025.09.025.136l-.007-.014zm1.207 2.3-1.188-1.456a.846.846 0 0 0 .59-.844.889.889 0 0 0-.28-.647.84.84 0 0 0-.282-.169 1.171 1.171 0 0 0-.41-.062h-1.156v3.174h.613V16.82h.231l1.13 1.405.752.005zm-.44 1.423a.153.153 0 0 1-.038.101.174.174 0 0 1-.053.035.29.29 0 0 1-.09 0h-.209v-.289h.208a.228.228 0 0 1 .09 0c.02.008.038.02.054.035.025.027.04.064.039.102v.016zm.204-.15a.33.33 0 0 0-.067-.112.343.343 0 0 0-.122-.08.538.538 0 0 0-.188-.026h-.448v1.2h.231v-.486h.218a.6.6 0 0 0 .187-.025.372.372 0 0 0 .122-.079.385.385 0 0 0 .067-.382v-.01zm3.126-2.865c0 .145-.026.29-.079.425a1.107 1.107 0 0 1-.561.576 1.053 1.053 0 0 1-.833 0 1.045 1.045 0 0 1-.545-.576 1.124 1.124 0 0 1-.079-.425 1.116 1.116 0 0 1 .296-.768 1.014 1.014 0 0 1 .745-.319 1.028 1.028 0 0 1 .746.32c.1.099.178.217.232.346.052.134.078.277.078.42zm.493.638c.08-.203.12-.42.12-.638a1.7 1.7 0 0 0-.12-.636 1.55 1.55 0 0 0-.865-.867 1.806 1.806 0 0 0-1.343 0c-.195.082-.373.2-.523.35a1.484 1.484 0 0 0-.34.517 1.656 1.656 0 0 0-.12.636c-.002.218.039.435.12.638.077.194.192.37.34.518.15.148.328.266.523.349.431.17.911.17 1.343 0a1.7 1.7 0 0 0 .525-.35 1.58 1.58 0 0 0 .34-.517zm3.35.95h.43v-3.174h-.613v2.067l-1.769-2.067h-.43v3.174h.613v-2.064l1.769 2.064zm3.56-2.63v-.544h-2.289v.543h.84v2.631h.61v-2.63H32z" fill="#1D1D1B"/></svg>