<svg width="36" height="36" fill="none" xmlns="http://www.w3.org/2000/svg"><path d="M18 0c2.837 0 5.52.656 7.907 1.825C31.884 4.753 36 10.895 36 18c0 9.942-8.058 18-18 18-9.94 0-18-8.057-18-18C0 8.06 8.06 0 18 0z" fill="#F2F4F7"/><g fill="#000"><path d="M4.315 17.527c.196-.008.407.305.555.054.044-.073.059-.621.046-.933-.019-.476.012-.613.382-.906.335-.266.636-.498.98-.687a.216.216 0 0 1 .212.039c.05.042.076.132-.007.219-.278.277-.519.42-.8.645-.102.082-.257.191-.287.332-.023.634.257 1.445-.414 1.885-.324.15-.694.027-.933-.212-.047-.047-.066-.124-.031-.178.077-.104.166-.235.297-.258zm3.594.841c-.111.111-.29.135-.309.125-.032-.016-.04-.023-.053-.045a2.214 2.214 0 0 1-.086-.178c-.07-.16-.102-.329-.164-.502 0 0-.003-.012-.013-.024-.006-.008-.02-.008-.034.002-.197.181-.383.39-.622.483-.096.019-.17-.054-.212-.128-.029-.052-.07-.158-.092-.138-.222.147-.513.385-.795.185-.141-.115-.093-.335-.043-.463a1.41 1.41 0 0 1 .777-.813c.087-.044.232-.042.3 0 .239.188.127.508.17.755.038.054.1.069.165.03.12-.082.29-.195.344-.277-.008-.844.16-1.65.816-2.213.072-.058.169-.051.21-.015.2.175.235.548.138.894a3.485 3.485 0 0 1-.713 1.269c-.008.331.137.621.248.946.024.073-.01.085-.032.107zm-2.002-.637c.008.054.066.097.12.093.17-.039.277-.205.335-.351.02-.078.062-.208-.011-.29-.039-.018-.074-.011-.125.02-.196.123-.326.305-.319.528zm1.797-1.295c-.004.084-.034.227-.011.297.162-.14.244-.327.343-.521.08-.177.17-.491.038-.62-.036-.024-.105.047-.13.092-.128.231-.194.49-.24.752z"/><path d="M8.328 18.173c-.125-.357-.247-.881-.254-.997-.003-.123.1-.212.193-.278.057-.028.135-.078.185-.038.06.042.118.427.186.648.01.021.031.009.065-.027.305-.29.575-.88 1.072-.656.204.085.51-.174.648.1.127.25-.054.575.085.84.042.178.436.008.25.232-.135.15-.312.247-.509.178-.104-.027-.166-.197-.25-.158-.193.13-.436.27-.667.158-.066-.047-.115-.112-.112-.205.017-.357.16-.593.314-.8.007-.015.025-.037.008-.052-.044-.039-.097-.002-.145.03-.343.298-.603.68-.896 1.024-.041.042-.063.058-.113.05-.026 0-.043-.018-.06-.05zm1.335-.469c.023.043.079.062.131.046.185-.08.305-.281.332-.482-.002-.055-.039-.104-.1-.104a.555.555 0 0 0-.363.54zm2.52-.582c-.017-.038-.08-.03-.12-.036-.2-.007-.22-.075-.279.117-.127.305-.216.628-.409.906a.17.17 0 0 1-.193.058c-.135-.062-.188-.205-.239-.324-.108-.347-.243-.683-.308-1.049-.01-.099.008-.254.139-.305.168-.06.58.112.786.15.015.003.032-.007.066-.13.08-.42.177-.837.231-1.269a.152.152 0 0 1 .131-.112.35.35 0 0 1 .252.114c.024.026.024.085.022.116-.032.45-.176.891-.285 1.328-.017.08.088.083.17.1.36.092.621-.008.942-.103.09-.025.141-.053.191-.009.16.141.378.074.42.278.058.255.023.6.22.74.062.035.118-.01.158-.034.107-.078.001-.062.074-.37.046-.216.212-.444.428-.52a.612.612 0 0 1 .39 0 .431.431 0 0 1 .211.443c-.044.306-.304.328-.462.474-.012.046.042.104.092.12.318.08.767-.226 1.094.068.072.064-.073.204-.112.238-.021.017-.049.013-.07.008-.136-.053-.334-.145-.507-.066-.247.1-.575.26-.821.049-.078-.043-.1-.174-.197-.14-.181.086-.459.303-.592.171-.25-.3-.187-.714-.36-1.05-.04-.05-.114-.085-.162-.058-.05.034.055.125.05.278a.844.844 0 0 1-.49.818c-.154.085-.405.077-.544-.031-.158-.139-.177-.382-.123-.563.046-.122.107-.238.186-.346.015-.022.022-.042.02-.059zm-1.055.265c.006.046.025.085.038.13.008.031.036.117.07.126.02.003.027-.003.054-.041a1.43 1.43 0 0 0 .167-.502c.004-.04-.003-.047-.023-.059-.117-.069-.23-.093-.363-.123-.031-.008-.04.024-.033.056l.012.068c.008.024.054.174.078.345zm1.211.24c0 .075.027.143.1.178.062.023.124 0 .178-.02a.41.41 0 0 0 .177-.212c.024-.112.047-.27-.057-.35a.177.177 0 0 0-.185 0c-.155.084-.197.258-.213.404zm2.221-.24a.527.527 0 0 0 .317-.203c.028-.044.022-.136-.031-.174-.047-.028-.091-.034-.139-.012-.135.078-.204.251-.147.39zm17.235-.623c.092 0 .21.073.205.199-.005.125-.063.193-.193.188l-.145-.014c-.397-.058-.834-.054-1.255-.082-.022 0-.053-.001-.066.008-.043.04.003.011.026.225.027.324-.112.651-.417.802a.728.728 0 0 1-.636-.027.523.523 0 0 1-.19-.327c-.016-.09-.096-.016-.134.014-.204.168-.548.386-.66.405-.072.016-.12-.038-.146-.1-.035-.162.058-.282.035-.418-.01-.026-.019-.012-.035.002-.223.204-.467.564-.732.516-.184-.125-.056-.358-.094-.547-.002-.021-.006-.044-.032-.02-.159.115-.276.25-.444.365-.116.079-.358.3-.514.183-.091-.071-.049-.387-.065-.503-.002-.015-.003-.039-.027-.017-.177.153-.336.415-.564.505-.107.015-.189-.078-.239-.159-.02-.03-.025-.065-.051-.092-.002-.004-.02-.011-.036 0-.198.116-.365.33-.626.266a.27.27 0 0 1-.185-.173c-.032-.078-.006-.18-.049-.247-.01-.02-.027-.014-.042-.002-.127.11-.249.253-.364.387-.139.837-.365 1.751-1.084 2.202a.405.405 0 0 1-.285.02c-.17-.105-.216-.305-.178-.502.15-.493.49-.914.806-1.342l.344-.416c.031-.041.002-.027-.027-.02-.182.066-.398.178-.594.066-.073-.03-.103-.183-.174-.139-.135.1-.258.243-.447.185-.106-.035-.134-.144-.185-.227-.012-.017-.029-.031-.048-.02-.12.075-.26.262-.45.247-.104-.004-.204-.05-.25-.146-.012-.039-.027-.116-.066-.104-.2.096-.265.497-.517.37-.293-.262-.216-.707-.216-1.077.003-.03-.01-.069-.042-.08-.085-.017-.04.066-.123.308-.1.297-.316.699-.675.768a.229.229 0 0 1-.212-.131c-.123-.243-.039-.56-.039-.833 0-.017-.01-.034-.017-.036-.01-.002-.024.009-.029.023-.041.12-.093.229-.139.356-.12.266-.43.55-.675.602-.343.061-.666-.1-.86-.398a1.094 1.094 0 0 1-.085-.27c-.01-.086-.058-.096-.077-.1-.02-.006.008.001-.05-.017a2.342 2.342 0 0 0-.52-.117c-.034 0-.052.01-.062.034-.17.387-.262.787-.436 1.172-.05.089-.183.078-.258.058a.395.395 0 0 1-.156-.083c-.026-.022-.025-.075-.01-.12.072-.275.176-.498.266-.78-.046-.266-.185-.494-.231-.76 0-.066.04-.118.1-.139.108-.023.191.006.311.024.013-.002.03-.012.025-.031-.17-.47-.306-.91-.387-1.416-.008-.081.027-.166.09-.204a.175.175 0 0 1 .12-.027c1.484.058 3 .135 4.435.205.114.011.151.03.118.194-.07.273-.306.213-.794.2-1.17-.03-2.33-.166-3.47-.27-.05-.002-.114-.011-.121.056-.006.043.005.1.012.138.057.209.1.403.247.595.012.015.035.005.045-.005.117-.139.207-.386.357-.477.05-.027.154.005.18.085a.298.298 0 0 1 0 .131l-.24.83c-.018.058.004.166.074.193.02.007.088.037.102.043.04.017.285.1.303.106.047.015.061.001.083-.024.18-.22.38-.392.677-.38a.44.44 0 0 1 .378.258.42.42 0 0 1-.015.378c-.123.227-.363.285-.602.277-.078.01.008.116.047.158.139.128.339.193.524.12a.77.77 0 0 0 .428-.633c0-.024-.003-.04-.02-.05-.064-.04-.157-.136-.157-.242 0-.07.035-.127.074-.184.082-.076.17-.085.269-.06.058.014.105.082.199.09.128.013.144-.043.215-.046.062-.003.099.037.103.091-.02.278-.162.606-.016.849.031.038.085.046.127.03.165-.085.214-.41.159-.508-.066-.108-.162-.212-.112-.355a.216.216 0 0 1 .15-.139c.164-.052.32.174.524.112.116-.023.198-.167.326-.095.022.01.069.059.042.138-.092.309-.144.6-.105.929.007.038.046.1.1.073.324-.393.476-.944 1.016-1.106.24-.062.35.317.372.489.022.167.048.374.139.49.032.038.135-.062.177-.131.162-.27.282-.62.554-.809.073-.044.424-.004.552.185.099.136.136.412.124.624.024.058.074.015.1 0 .34-.286.645-.702 1.077-.822.076-.02.197.023.231.074.143.216.131.497.22.74.035.062.104.104.177.073.29-.243.467-.757.692-.854.046-.03.147.019.16.088.054.282-.053.535-.08.805.003.063.08.004.115-.02.32-.239.465-.478.702-.794.066-.1.141-.16.229-.084.117.136.045.445.039.51l-.08.403c.01.033.067.004.094-.015.346-.255.477-.698.803-.86.074-.044.158-.007.195.067.06.123-.122.532-.152.787-.003.021.01.029.006.029.044.012.183-.097.266-.154.424-.282.711-.805 1.303-.76l1.54-.003zm-13.448.3c-.05.064-.042.154.046.158a.324.324 0 0 0 .278-.058c.03-.024.077-.1.046-.166-.03-.057-.084-.105-.172-.082a.405.405 0 0 0-.198.148zm3.532.363c-.015.08-.042.158.047.22.1.046.196-.035.243-.082.08-.1.12-.216.1-.354-.008-.062-.048-.148-.135-.108a.544.544 0 0 0-.255.323zm1.697 1.284c-.247.289-.463.574-.594.898-.02.046-.061.108-.02.158.067.043.132-.03.186-.073.278-.27.444-.629.474-1.003.003-.026-.022-.01-.046.02zm-.123-1.414c-.062.162-.14.376.011.527a.195.195 0 0 0 .174 0c.216-.128.17-.378.15-.575-.015-.07-.054-.15-.139-.139-.08.02-.16.11-.196.187zm1.527.09c-.03.086-.012.229.077.286.065.032.146-.011.2-.061.105-.124.165-.28.107-.445-.023-.062-.096-.117-.153-.084a.59.59 0 0 0-.231.305zm4.546.232a.19.19 0 0 0 .093.12.28.28 0 0 0 .285-.081c.081-.104.082-.269.058-.382-.027-.058-.096-.123-.17-.081-.135.089-.293.235-.266.424z"/></g></svg>