<svg xmlns="http://www.w3.org/2000/svg" xmlns:xlink="http://www.w3.org/1999/xlink" width="36" height="36" fill="none"><defs><pattern id="a" width="1" height="1" patternContentUnits="objectBoundingBox"><use xlink:href="#a" transform="scale(.00264 .01136)"/></pattern><pattern id="b" width="1" height="1" patternContentUnits="objectBoundingBox"><use xlink:href="#b" transform="scale(.0102 .06667)"/></pattern><pattern id="c" width="1" height="1" patternContentUnits="objectBoundingBox"><use xlink:href="#c" transform="scale(.00781 .04348)"/></pattern></defs><path fill="#F2F4F7" d="M18 0a18 18 0 1 1 0 36 18 18 0 0 1 0-36z"/><path fill="#fff" d="M31.74 17.62c0 4.06-6.15 7.35-13.74 7.35S4.26 21.67 4.26 17.6c0-4.06 6.15-7.35 13.74-7.35s13.74 3.3 13.74 7.36"/><path fill="#4E5B19" d="M31.74 17.62h-.26c0 .94-.36 1.85-1.03 2.7-1 1.26-2.7 2.37-4.86 3.15A22.58 22.58 0 0 1 18 24.7c-3.75 0-7.15-.82-9.59-2.13a9.05 9.05 0 0 1-2.86-2.27 4.33 4.33 0 0 1-1.03-2.7c0-.94.36-1.85 1.03-2.7 1-1.26 2.7-2.37 4.86-3.15A22.58 22.58 0 0 1 18 10.52c3.75 0 7.15.82 9.59 2.13a9.06 9.06 0 0 1 2.86 2.27 4.33 4.33 0 0 1 1.02 2.7H32c0-1.09-.41-2.11-1.14-3.03-1.08-1.37-2.87-2.51-5.09-3.32-2.23-.8-4.9-1.27-7.77-1.27-3.83 0-7.3.83-9.84 2.18a9.57 9.57 0 0 0-3.02 2.41A4.86 4.86 0 0 0 4 17.62c0 1.08.41 2.1 1.14 3.02 1.08 1.37 2.87 2.51 5.09 3.32 2.23.8 4.9 1.27 7.77 1.27 3.83 0 7.3-.83 9.84-2.18a9.59 9.59 0 0 0 3.02-2.41A4.86 4.86 0 0 0 32 17.62h-.26"/><path fill="#fff" d="M16.28 15.73a.86.86 0 0 1-.62-.3h.07a.8.8 0 0 0 .55.25.94.94 0 0 0 .49-.15.5.5 0 0 0 .1-.08l.03.04a.56.56 0 0 1-.1.09 1 1 0 0 1-.52.15z"/><path fill="#fff" d="M16.28 15.67a.78.78 0 0 1-.54-.23h1.12a.5.5 0 0 1-.1.09.94.94 0 0 1-.48.14"/><path fill="#fff" d="M16.28 15.68a.8.8 0 0 1-.55-.24h.01a.79.79 0 0 0 .54.23.94.94 0 0 0 .48-.14.5.5 0 0 0 .1-.08.5.5 0 0 1-.1.08.94.94 0 0 1-.48.15"/><path fill="#fff" d="M17.43 15.74c-.17 0-.35-.08-.53-.25a1.55 1.55 0 0 1-.04-.04v-.01h.07c.17.16.34.24.49.24.1 0 .19-.03.26-.1h.02c.1 0 .16-.03.21-.12a.19.19 0 0 0 .1-.02h.1a.21.21 0 0 1-.14.08.24.24 0 0 1-.1.08.33.33 0 0 1-.15.03.41.41 0 0 1-.29.11z"/><path fill="#fff" d="M17.42 15.68c-.15 0-.32-.08-.5-.24h1.09a.19.19 0 0 1-.1.02c-.05.1-.11.11-.2.11h-.04a.35.35 0 0 1-.26.11m3.02-.02a.23.23 0 0 1-.12-.04.26.26 0 0 1-.08.02.31.31 0 0 1-.19-.08.48.48 0 0 1-.31-.09 1.33 1.33 0 0 0 .02-.03h.04a.4.4 0 0 0 .25.05c.06.05.11.08.17.08a.22.22 0 0 0 .1-.02.2.2 0 0 0 .1.04c.06 0 .13-.03.22-.1a.6.6 0 0 0 .1-.05h.12a.7.7 0 0 1-.18.12c-.1.06-.16.1-.24.1"/><path fill="#fff" d="M20.41 15.59a.2.2 0 0 1-.1-.04.22.22 0 0 1-.1.02c-.06 0-.11-.03-.17-.08a.4.4 0 0 1-.25-.05h.94a.6.6 0 0 1-.1.06c-.1.06-.16.09-.22.09m1.12.2a.43.43 0 0 1-.24-.09l-.19-.13-.02-.01-.12-.12h.11l.06.05c.13.08.26.21.39.21.06 0 .13-.04.2-.15a.3.3 0 0 0 .07.06.42.42 0 0 1-.14.15.25.25 0 0 1-.12.03m-7.06.26h-.01a1.06 1.06 0 0 1-.61-.18c-.14-.1-.24-.2-.3-.23l-.02-.01h-.02a.17.17 0 0 1-.13-.08.24.24 0 0 1-.03-.07l.08.01c.01.04.04.07.08.07h.02c.08 0 .17.1.3.2a.99.99 0 0 0 .64.22c.1 0 .21-.01.34-.04.44-.11.58-.34.72-.5h.1a.6.6 0 0 0-.02.02l-.16.18a1.15 1.15 0 0 1-.62.37 1.6 1.6 0 0 1-.36.04"/><path fill="#fff" d="M14.47 15.97a.98.98 0 0 1-.63-.21c-.14-.1-.22-.21-.3-.21h-.03c-.02 0-.05-.02-.06-.04a.15.15 0 0 1-.01-.02.47.47 0 0 0 .25-.03h.19l.03-.02h1.6c-.14.16-.27.38-.7.49a1.61 1.61 0 0 1-.34.04"/><path fill="#fff" d="M14.47 15.98a.99.99 0 0 1-.64-.21c-.13-.1-.22-.21-.3-.21h-.02c-.04 0-.07-.03-.08-.07l.02.01c.01.03.04.05.06.05h.02c.09 0 .17.1.31.2.14.11.33.22.63.22.1 0 .21-.01.34-.04.43-.1.56-.33.7-.5h.02c-.14.17-.28.4-.72.5-.13.04-.24.05-.34.05zm4.56-.15a.4.4 0 0 1-.18-.05.5.5 0 0 1-.16.02c-.2 0-.4-.12-.55-.32a1.22 1.22 0 0 1-.03-.04h.09c.14.18.3.28.47.28a.43.43 0 0 0 .16-.03.4.4 0 0 0 .17.05.24.24 0 0 0 .15-.05.24.24 0 0 0 .1.02c.08 0 .16-.05.28-.18a.79.79 0 0 0 .1-.1h.12a1.03 1.03 0 0 1-.32.31.28.28 0 0 1-.15.06.28.28 0 0 1-.1-.02.3.3 0 0 1-.15.05"/><path fill="#fff" d="M19 15.74a.37.37 0 0 1-.17-.05.43.43 0 0 1-.16.03c-.16 0-.33-.1-.47-.28h1.43a.79.79 0 0 1-.1.1c-.12.12-.2.18-.28.18a.24.24 0 0 1-.1-.03.24.24 0 0 1-.15.05"/><path fill="#231F20" d="M15.57 14.3c-.05-.21-.13-.42-.16-.6-.1-.21.07-.4-.04-.6-.03-.1-.2-.18-.28-.24a.18.18 0 0 1 0-.03v-.07l.05.03.16.1a.36.36 0 0 1 .15.18c.04.06.05.13.05.19 0 .1-.03.2-.03.28a.28.28 0 0 0 .02.13v.02l.14.48v.05a.99.99 0 0 0-.06.08zm-1.31-.59-.04-.08.06-.07c.1-.13.16-.26.17-.4v-.04c.1-.16.25-.23.36-.3l.04-.03v.1c-.12.08-.25.15-.31.27 0 .22-.13.4-.28.55zm.72-.6a.23.23 0 0 1-.17-.06c-.02-.04 0-.07.03-.1a.16.16 0 0 0 .03.09.13.13 0 0 0 .1.05h.05l.02-.01.01-.02.03-.03a.15.15 0 0 0 .03-.04c0 .04-.02.09-.06.11a.31.31 0 0 1-.07.01z"/><path fill="#CF6C10" d="M15.13 14.49a.56.56 0 0 0-.34-.36c-.14-.04-.27-.04-.38-.06a1.18 1.18 0 0 0-.05 0 .66.66 0 0 0 .02-.04l.03-.06-.03-.05-.1.05.1-.05-.12-.2c.15-.17.27-.34.28-.56.06-.12.19-.2.3-.26a.5.5 0 0 1 0 .04v.02c-.03.02-.05.05-.03.09a.23.23 0 0 0 .17.06.3.3 0 0 0 .07 0 .16.16 0 0 0 .06-.12.12.12 0 0 0 0-.05v-.05l-.02-.01v-.02c.08.06.25.13.28.24.11.2-.06.39.04.6.03.18.1.39.16.6a.96.96 0 0 0-.06.09.82.82 0 0 0-.09-.18c-.16-.22-.1-.46-.08-.6.01-.07-.02-.1-.05-.1-.04 0-.09.04-.09.11-.02.28.14.87-.07.87"/><path fill="#231F20" d="M15.73 15.44h-.07l-.01-.01a.35.35 0 0 1 .04-.03l.04.04zm-.2-.98a.93.93 0 0 0-.01-.07.96.96 0 0 1 .12-.17.85.85 0 0 1 .62-.3c.07 0 .15.02.22.05a.83.83 0 0 1 .39.26.78.78 0 0 0-.06.02.78.78 0 0 0-.34-.23.68.68 0 0 0-.21-.04c-.3 0-.58.2-.72.47"/><path fill="#F36118" d="M16.85 15.44h-1.1a1.1 1.1 0 0 1-.05-.04.34.34 0 0 1 .06-.03h.01a.12.12 0 0 0 .08-.12l-.02-.08a.33.33 0 0 1 0-.05l-.01-.05-.17-.04-.14-.09c.08-.12.08-.3.03-.47a.9.9 0 0 1 .16-.23.78.78 0 0 1 .56-.25c.07 0 .14 0 .2.03a.77.77 0 0 1 .35.23.8.8 0 0 0-.08.04.94.94 0 0 0-.34-.15.67.67 0 0 0-.07 0c-.17 0-.16.08-.09.16.07.09.2.17.3.17l.03.01a.54.54 0 0 0-.06.26.81.81 0 0 0 .12.4c.07.11.15.21.23.3"/><path fill="#231F20" d="M15.74 15.44h-.01a1.1 1.1 0 0 1-.04-.04 1.1 1.1 0 0 0 .05.04zm-.2-.97v-.01a.83.83 0 0 1 .72-.48c.07 0 .14.01.2.03.15.05.27.13.36.24h-.01a.77.77 0 0 0-.34-.23.67.67 0 0 0-.21-.03c-.22 0-.42.1-.56.25a.9.9 0 0 0-.16.23"/><path fill="#231F20" d="M18.12 15.44H18a.2.2 0 0 0 .06-.07l.05.07zm-1.2 0h-.07a1.86 1.86 0 0 1-.23-.3.81.81 0 0 1-.12-.4.54.54 0 0 1 .06-.26.36.36 0 0 1 .05.04c-.05.11-.08.3.04.57.1.14.18.26.28.35zm.25-1.1a.22.22 0 0 1-.05-.04l.06.04zm-.4-.01a.65.65 0 0 0-.04-.04.8.8 0 0 1 .08-.04.78.78 0 0 1 .22-.06l.04.07a.08.08 0 0 0-.03-.01.53.53 0 0 0-.26.08zm.6-.07v-.03a.26.26 0 0 0-.01-.07.2.2 0 0 0 .07-.06c.01.02.03.03.02.06a.35.35 0 0 1-.08.1zm-.04-.15a.31.31 0 0 0-.02-.02.45.45 0 0 1 .1-.09.96.96 0 0 1 .18-.1.39.39 0 0 1 .12-.01.48.48 0 0 1 .29.11.66.66 0 0 0-.03.04.4.4 0 0 0-.25-.08.42.42 0 0 0-.12.01c-.08.04-.2.07-.27.14"/><path fill="#ED1835" d="M18 15.44h-1.07a1.8 1.8 0 0 1-.28-.35c-.12-.28-.1-.46-.04-.57a2.1 2.1 0 0 1 .1.12c.06.08.13.16.15.16l.01-.02c0 .06.04.12.07.12.02 0 .04-.04.04-.14a.64.64 0 0 0-.2-.43.53.53 0 0 1 .26-.08.08.08 0 0 1 .04.02.24.24 0 0 0 .04.04.22.22 0 0 0 .05.04h.01a.37.37 0 0 0 .04 0h.04s.05 0 .1-.05v-.04a.35.35 0 0 0 .1-.1c0-.03-.02-.04-.03-.06a.2.2 0 0 1-.07.06.24.24 0 0 0-.03-.05c.07-.07.19-.1.27-.14a.42.42 0 0 1 .12-.01.4.4 0 0 1 .25.08.69.69 0 0 0-.05.09.82.82 0 0 0-.08-.05h-.01c-.02 0-.09 0-.14.12-.02.06-.07.12.1.23a.42.42 0 0 1 .04.04 1 1 0 0 0 0 .13c.04.32.13.58.24.77a.2.2 0 0 1-.06.07"/><path fill="#231F20" d="M20.85 15.44h-.12a.98.98 0 0 0 .14-.12.83.83 0 0 0 .04.06l-.06.06zm-1.06 0h-.04l.01-.02a.49.49 0 0 0 .03.02zm1.23-1.13a.43.43 0 0 0-.17-.11c-.07-.02-.14-.04-.2-.04a.26.26 0 0 0-.06 0 .37.37 0 0 0 0-.03.42.42 0 0 1 .13-.02c.06 0 .12.01.17.03a.41.41 0 0 1 .18.13.28.28 0 0 0-.05.04zm-.47-.03a.28.28 0 0 0 .03-.07.23.23 0 0 0 .06-.02l-.01.06a.99.99 0 0 1-.08.03zm-.22-.02a.07.07 0 0 1-.01-.04.33.33 0 0 0 .02.04zm-.04-.18a.6.6 0 0 0-.32-.09.15.15 0 0 1-.03 0 .72.72 0 0 0-.03-.05h.03a.56.56 0 0 0 .04 0v-.01H20c.1.01.2.04.3.1a.27.27 0 0 0 0 .05z"/><path fill="#DB1530" d="M20.73 15.44h-.94a.49.49 0 0 1-.03-.02c.1-.13.17-.29.25-.43a.94.94 0 0 0 .02-.76l-.09-.24a.15.15 0 0 0 .03 0 .6.6 0 0 1 .32.09.28.28 0 0 0 .02.14l.01.03h.01l.03.04.01.01.02.01s.03.02.08.02h.05l.01-.02a.29.29 0 0 0 .02-.03.99.99 0 0 0 .08-.03v-.06a.23.23 0 0 1-.05.02.33.33 0 0 0 .01-.05.26.26 0 0 1 .05 0c.07 0 .14.02.21.04a.4.4 0 0 1 .17.1.52.52 0 0 0-.08.1.3.3 0 0 1-.03-.01l-.1-.02h-.18l.1.13c-.03.04-.05.08.03.2a.41.41 0 0 1 .03.06.4.4 0 0 0-.04.19v.07a.76.76 0 0 0 .06.2.08.08 0 0 1 0 .01l-.01.01a.06.06 0 0 0 .02 0l.05.08a.98.98 0 0 1-.14.12zm.25-.96v-.07.07z"/><path fill="#231F20" d="M21.07 15.44h-.1a1.06 1.06 0 0 1-.1-.12.81.81 0 0 1-.05-.09.43.43 0 0 0 .06-.04c.06.1.13.19.2.25zm-.26-.22a.76.76 0 0 1-.06-.2.8.8 0 0 1 0-.07.4.4 0 0 1 .03-.19.63.63 0 0 1 .04.1.41.41 0 0 0 0 .08v.07a.71.71 0 0 0 .03.1.25.25 0 0 1-.04.11zm1.06-.57h-.01l.01-.01zm-.06-.06zm-6.17.85h-.1a.44.44 0 0 1 .2-.14.05.05 0 0 0 .03-.05l-.02-.12-.13-.03-.15-.1a.3.3 0 0 0 .04-.05l.14.08.17.04v.05l.01.05.01.08a.12.12 0 0 1-.07.12h-.01a.29.29 0 0 0-.11.06.33.33 0 0 0-.01 0"/><path fill="#FFF200" d="M15.52 15.44H13.9l.04-.03.06-.06-.03-.07a1 1 0 0 1-.07-.37v-.02a.88.88 0 0 1 .14-.13.63.63 0 0 1 .13-.06l.03-.01.28-.03c.13 0 .22.02.3.05a.3.3 0 0 0 .07.15 2.78 2.78 0 0 0-.5-.04 4.23 4.23 0 0 0-.21.01l.08.3c.19-.02.64-.1.92-.1a.85.85 0 0 1 .19.02s-.1-.1-.4-.17a.3.3 0 0 1 .07 0 1 1 0 0 1 .4.1l.2.13.13.03.02.11c0 .02 0 .03-.02.04a.47.47 0 0 0-.22.15"/><path fill="#231F20" d="M15.53 15.44h-.01a.47.47 0 0 1 .22-.15l.02-.04-.02-.11-.12-.03-.21-.13c.02 0 .03.02.05.03l.16.09.13.03.02.12c0 .02 0 .04-.03.05a.44.44 0 0 0-.2.14m4.21 0h-.12c.13-.14.21-.32.3-.5a.93.93 0 0 0 .03-.7c-.08-.23-.14-.39-.38-.43h-.13a.4.4 0 0 0-.2.04.37.37 0 0 0-.01-.03.58.58 0 0 1 .37-.09h.01a.39.39 0 0 1 .3.21l.02.06.1.23A.94.94 0 0 1 20 15c-.08.14-.15.3-.25.43v.02zm-1.55 0h-.08a1.25 1.25 0 0 1-.05-.07 1.88 1.88 0 0 1-.23-.77 1.31 1.31 0 0 1 0-.13l.06.07v.03c.04.38.15.67.3.87zm-.22-1.27a.66.66 0 0 0-.06-.04.7.7 0 0 1 .14-.2.94.94 0 0 1 .34-.18.59.59 0 0 0 .03-.02h.03a.89.89 0 0 1 .4.04.34.34 0 0 0 .02.08.84.84 0 0 0-.44-.04c-.04.02-.32.06-.46.36zm1-.14h-.01a.22.22 0 0 1-.03-.06.5.5 0 0 0 .04.06zm.27-.04a.25.25 0 0 0 0-.08.28.28 0 0 0 .08-.04c0 .03.01.04 0 .07a1.15 1.15 0 0 1-.08.05"/><path fill="#A1C012" d="M19.63 15.44H18.2c-.15-.2-.26-.49-.3-.87v-.03c.1.13.19.31.16.39.02 0 .29-.46-.08-.76.14-.3.42-.34.46-.36a.84.84 0 0 1 .17-.02.63.63 0 0 1 .26.06.41.41 0 0 0 .07.12.22.22 0 0 0 .03.06h.01a.67.67 0 0 0 .03.03l.02.02h.03l.07.01a.16.16 0 0 0 .06-.01l.03-.01.01-.03a.26.26 0 0 0 .02-.04 1.15 1.15 0 0 0 .08-.06c.01-.03 0-.04 0-.07a.28.28 0 0 1-.07.04.31.31 0 0 0-.01-.06.4.4 0 0 1 .2-.04h.14c.23.04.3.2.37.43a.93.93 0 0 1-.02.7c-.1.18-.18.36-.3.5zm.07-1.35a.26.26 0 0 0-.2.1c-.05.06-.13.12.02.3.16.17.23.55.16.66l-.01.03c.02 0 .54-.66.08-1.09h-.05"/><path fill="#E3EE5E" d="m19.66 15.18.02-.03c.07-.1 0-.49-.16-.67-.15-.17-.07-.23-.03-.29a.26.26 0 0 1 .2-.1h.06c.46.43-.06 1.09-.09 1.09"/><path fill="#231F20" d="M10.81 15.45h15v-.03h-15v.03zm18.48.74c-.15.22-.5.12-.92-.02-.41-.13-1.63-.15-1.63.93 0 1.09 2.19.51 2.19 1.69-.12.8-1.96.6-1.96-.4-.32.56-.54.9-.54.9.42-.13 1 .07 1.39.16.38.09 1.58.01 1.58-1.04 0-1.16-2.17-.75-2.17-1.55 0-.72 1.56-.72 1.56.18l.5-.85z"/><path fill="#231F20" d="M29.3 16.18h-.02c-.06.09-.16.12-.28.12a2.3 2.3 0 0 1-.62-.14 1.61 1.61 0 0 0-.48-.07c-.26 0-.55.05-.78.2a.92.92 0 0 0-.4.81c0 .28.15.45.36.57.3.18.77.24 1.15.37.39.12.68.31.68.75h.02-.01c-.05.32-.4.48-.79.48-.27 0-.56-.08-.78-.23a.77.77 0 0 1-.37-.64v-.05l-.02.04a20.59 20.59 0 0 1-.54.9l-.02.03.03-.01c.1-.03.21-.05.33-.05.36 0 .76.13 1.05.2a1.67 1.67 0 0 0 1.13-.19.95.95 0 0 0 .47-.86.72.72 0 0 0-.35-.63c-.3-.2-.76-.29-1.14-.4a1.73 1.73 0 0 1-.49-.19c-.12-.08-.19-.18-.19-.33a.44.44 0 0 1 .21-.38.9.9 0 0 1 .5-.13c.2 0 .4.06.56.17a.61.61 0 0 1 .27.52v.05l.52-.9-.02-.01h.01l-.51.86h.02a.64.64 0 0 0-.27-.54 1.01 1.01 0 0 0-.59-.17.93.93 0 0 0-.5.13.47.47 0 0 0-.22.4c0 .2.14.34.34.43.3.14.77.2 1.15.34.38.14.67.35.67.78 0 .42-.2.69-.45.84-.26.16-.58.21-.83.21a1.29 1.29 0 0 1-.28-.02c-.29-.07-.7-.2-1.06-.2a.88.88 0 0 0-.33.05l.01.02s.23-.35.54-.9l-.01-.01h-.02c0 .29.16.51.39.67.23.15.52.22.8.22.39 0 .75-.16.8-.5a.68.68 0 0 0-.35-.62c-.3-.2-.77-.26-1.15-.38-.39-.12-.68-.29-.68-.69 0-.39.16-.63.38-.78.22-.15.5-.2.76-.2.19 0 .36.03.47.06.24.08.46.15.63.15.13 0 .24-.04.3-.14l-.02-.01h.01m-16.7 1.45s.52.03.52-.54c0-.57-.36-.69-.67-.69h-.62v1.24h.77zm-1.33 1.52v-1.32c-.34 0-.62.18-.62.18.08-.3.62-.34.62-.34v-.95c0-.52-.29-.58-.29-.58l1.86.03c1.51.27 1.05 1.83-.16 1.7h-.88v1.28l.48.31h-1.43l.42-.31z"/><path fill="#231F20" d="M12.6 17.63v.02a.6.6 0 0 0 .29-.08c.12-.07.24-.22.24-.48 0-.29-.1-.46-.23-.57a.75.75 0 0 0-.46-.13h-.64v1.27l.8-.02v-.02l-.77.01v-1.21h.61a.72.72 0 0 1 .44.12c.13.1.22.27.22.55 0 .26-.1.39-.22.45a.57.57 0 0 1-.28.08v.01zm-1.34 1.52h.01v-1.33h-.01c-.35 0-.62.18-.63.18l.01.01h.01c.04-.13.2-.22.33-.27.14-.05.28-.06.28-.06v-.96c0-.26-.06-.41-.14-.5a.31.31 0 0 0-.14-.1v.03l1.85.03c.66.12.94.5.94.85 0 .42-.37.84-.96.84l-.14-.01h-.9v1.3l.46.29h-1.35l.4-.3h-.02v-.01l-.46.34h1.52l-.52-.34v-1.27h-.01v.02h.88v-.02.02h.14c.3 0 .55-.1.72-.26a.82.82 0 0 0 .27-.6c0-.37-.3-.75-.97-.87l-1.86-.03v.02h.01c.05.02.26.12.26.57v.95h.02v-.02s-.14.02-.29.07c-.14.05-.3.13-.34.29v.03l.02-.02.05-.02c.09-.05.3-.15.56-.15v-.02h-.01v1.32h.01v-.01m7.1.1c.98 0 .9-1.46.9-1.46s.1-1.38-.81-1.38-1 .88-1 1.45c0 0-.07 1.4.91 1.4zm.12-3.1c.73 0 1.38.68 1.38 1.7 0 1.04-.61 1.64-1.47 1.64s-1.55-.51-1.55-1.8c0-1.27 1.04-1.54 1.64-1.54z"/><path fill="#231F20" d="M18.36 19.24v.02c.43 0 .66-.28.78-.59.12-.3.14-.65.14-.8v-.1l-.02.01h.01v-.1a2.19 2.19 0 0 0-.12-.77c-.11-.28-.32-.53-.7-.53a.89.89 0 0 0-.86.52c-.14.3-.16.66-.16.95h.01l-.01.04c0 .12.01.46.13.77.12.31.36.6.8.6v-.03c-.43 0-.65-.27-.77-.58a2.21 2.21 0 0 1-.13-.76v-.04c0-.28.02-.65.16-.93.13-.3.38-.5.83-.5.37 0 .57.22.68.5.1.27.12.59.12.75v.19c0 .16-.02.5-.14.8-.12.3-.33.57-.75.57v.01zm.12-3.1v.02c.36 0 .7.16.96.46.25.3.4.72.41 1.23 0 1.03-.6 1.61-1.46 1.61s-1.53-.5-1.54-1.77c0-.64.26-1.02.6-1.24.32-.23.73-.3 1.03-.3v-.02c-.3 0-.71.07-1.05.3-.34.22-.6.61-.6 1.26 0 .64.17 1.09.45 1.38.28.29.67.42 1.1.42.44 0 .81-.15 1.08-.43s.42-.7.42-1.21c0-.52-.17-.95-.42-1.25a1.28 1.28 0 0 0-.98-.47v.01zm6.2 2.98-.4.33h1.33l-.38-.32V16.4h.52c.07 0 .41.09.48.51l.4-.79h-3.35l.37.83s.12-.55.44-.55h.6v2.72"/><path fill="#231F20" d="m24.69 19.12-.01-.01-.44.35h1.4l-.4-.33V16.4h-.01v.02h.52c.07 0 .4.08.47.5v.03l.44-.84h-3.4l.4.88v-.04s.03-.13.1-.27c.07-.13.18-.26.33-.26h.6v-.02h-.01v2.72-.01.01h.02v-2.73h-.6c-.18 0-.3.14-.36.28a1.2 1.2 0 0 0-.1.27h.02l-.36-.8h3.31l-.39.76.01.01h.02c-.08-.43-.42-.52-.5-.52h-.53v2.75l.35.3h-1.26l.4-.31v-.01h-.02m-1.58-3.01-.41.3v2.2c0 .24-.15.85-1.1.85s-1.33-.36-1.33-1.21V16.4l-.31-.3h1.21l-.32.3v2.1c0 .45.06.73.73.73.66 0 .78-.31.78-.87V16.4l-.4-.3h1.15"/><path fill="#231F20" d="m23.1 16.1-.41.3v2.21c0 .23-.15.84-1.1.84-.47 0-.8-.1-1-.29-.21-.2-.3-.49-.3-.91V16.4l-.3-.28h1.15l-.3.28v2.1c0 .22 0 .41.11.54.1.13.3.2.63.2s.53-.08.65-.23c.12-.15.15-.37.15-.65V16.4l-.38-.28h1.1v-.02h-1.18l.43.31h.01-.01v1.95c0 .28-.03.5-.14.63-.11.15-.3.22-.63.22s-.51-.06-.6-.19c-.1-.12-.12-.3-.12-.53v-2.08l.34-.32h-1.28l.34.32h.01-.01v1.84c0 .42.1.73.3.93.22.2.56.3 1.04.3.47 0 .75-.16.91-.35a.83.83 0 0 0 .2-.52v-2.2l.44-.32h-.04v.02m-8.42 1.66s1.4-.04 1.4-.9c0-.87-1.2-.62-1.4-.47v1.37zm-.79-1.26c.58-.54 2.76-.62 2.76.46 0 .61-.9.9-.9.9s.47 1.16 1.14 1.64c0 0-.77.25-.88.37 0 0-.12-1.08-.57-1.9 0 0-.67-.04-.76.11v1.06l.32.29h-1.27l.4-.3V18.1s-.38 0-.44.03c0 0 .12-.2.1-.26h.35V16.6s.04-.11-.25-.1"/><path fill="#231F20" d="M14.7 17.77v.01s.34 0 .7-.13c.34-.11.7-.34.7-.78 0-.25-.1-.41-.24-.5a.9.9 0 0 0-.5-.14c-.3 0-.58.09-.67.16v1.4-.02h.02V16.4h-.02.01c.08-.05.37-.14.65-.14.18 0 .36.03.5.13s.22.24.22.48c0 .42-.34.64-.69.76a2.55 2.55 0 0 1-.47.1c-.13.03-.22.03-.22.03v.01h.02-.02zm-.8-1.26h.01c.25-.22.81-.37 1.36-.37.35 0 .7.06.96.2.25.13.42.33.42.63s-.22.52-.45.67a2.05 2.05 0 0 1-.3.16l-.15.06h-.01v.01s.47 1.16 1.15 1.65h.01v-.02l-.4.14c-.2.07-.43.16-.5.23h.02s-.1-1.07-.56-1.89h-.01l-.22-.01a2.14 2.14 0 0 0-.33.02c-.1.02-.19.04-.22.1v1.06l.3.28h-1.2l.37-.28v-1.07h-.33a.36.36 0 0 0-.12.03l.01.01s.1-.16.1-.24v-.03h-.01v.02h.36V16.6a.08.08 0 0 0-.03-.07.28.28 0 0 0-.16-.04.85.85 0 0 0-.07 0v.02l.01.01v-.01.01a.8.8 0 0 1 .06 0c.08 0 .12.02.15.03l.02.04v1.25h-.36v.04a.42.42 0 0 1-.04.14l-.05.1h.02a.36.36 0 0 1 .12-.01h.3v-.02h-.01v1.05l-.41.31h1.34l-.34-.3v-1.06h-.02.02c.02-.03.1-.06.2-.08l.32-.02.22.01v-.01h-.01c.22.4.36.88.45 1.25a7.26 7.26 0 0 1 .11.64v.03l.03-.02c.05-.06.27-.15.48-.23a8.97 8.97 0 0 1 .4-.14h.02l-.02-.02a3.28 3.28 0 0 1-.82-1 6.3 6.3 0 0 1-.24-.45l-.08-.19h-.01v.02s.92-.28.92-.9c0-.32-.18-.53-.44-.67s-.62-.2-.97-.2c-.55 0-1.12.15-1.38.4l-.02.02h.03v-.02m-3.4-.64c-.21.36-.68.2-1.25-.02-.56-.22-2.22-.24-2.22 1.46s2.98.8 2.98 2.65c-.17 1.25-2.67.94-2.67-.62-.42.88-.73 1.42-.73 1.42.56-.21 1.37.1 1.89.24.52.14 2.14.02 2.14-1.63 0-1.82-2.95-1.18-2.95-2.44 0-1.13 2.13-1.13 2.13.29l.68-1.35z"/><path fill="#231F20" d="M10.5 15.87c-.1.14-.23.2-.4.2a2.6 2.6 0 0 1-.84-.24 1.92 1.92 0 0 0-.65-.1c-.35 0-.74.08-1.06.32-.3.24-.53.64-.53 1.26 0 .43.19.7.47.89.42.27 1.05.37 1.57.57.52.2.93.5.93 1.19h.02-.02c-.06.51-.54.76-1.07.76a1.8 1.8 0 0 1-1.06-.35 1.26 1.26 0 0 1-.5-1.02l-.03-.01c-.21.44-.4.79-.53 1.04l-.2.38-.02.03.03-.01a1.26 1.26 0 0 1 .45-.08c.49 0 1.04.2 1.43.31a2.02 2.02 0 0 0 1.54-.3c.36-.24.63-.67.63-1.34 0-.46-.19-.77-.47-.98-.42-.33-1.04-.46-1.56-.63a2.2 2.2 0 0 1-.66-.3.63.63 0 0 1-.26-.52c0-.27.11-.47.3-.6.17-.14.41-.21.66-.21.55 0 1.13.35 1.13 1.09h.03l.68-1.34-.02-.02.01.01-.7 1.34h.03c0-.37-.15-.65-.37-.83a1.25 1.25 0 0 0-.8-.28 1.14 1.14 0 0 0-.68.21.75.75 0 0 0-.3.62c0 .32.2.52.47.67.42.22 1.04.32 1.55.54.52.22.93.55.93 1.23 0 1.33-1.07 1.66-1.74 1.66-.16 0-.3-.02-.39-.04-.4-.11-.95-.31-1.44-.31-.16 0-.32.02-.46.07v.01h.02s.3-.53.73-1.41h-.02c0 .45.21.8.52 1.04a1.8 1.8 0 0 0 1.07.36c.54 0 1.03-.26 1.1-.79 0-.46-.19-.76-.47-.96-.42-.3-1.05-.41-1.57-.6s-.93-.46-.93-1.09c0-1.23.87-1.55 1.56-1.55a1.9 1.9 0 0 1 .64.1c.32.12.62.23.86.23.17 0 .31-.06.4-.21l-.02-.01h.01m.35-.01v.2a.18.18 0 0 0-.07-.02.08.08 0 0 1-.07-.09c0-.07.1-.1.14-.1zm18.12.09c.01-.02.06-.08.13-.04s.04.12.03.14l-.16-.1zm-18.76-.3c.08-.14.25-.07.16.09l-.16-.09z"/><path fill="#231F20" d="m6.59 20.05.64-1.28s.01.46.08.72l-.72.56zm3.51-3.78-.56 1.1s0-.45-.07-.68l.63-.42"/><path fill="#231F20" d="m10.3 15.69-.09-.05a.3.3 0 0 1-.12.12.41.41 0 0 1-.19.04c-.2 0-.49-.1-.81-.22a1.99 1.99 0 0 0-.67-.1c-.36 0-.77.07-1.1.32-.33.25-.56.68-.56 1.32 0 .22.05.4.14.56.16.28.43.44.73.56.45.18.98.28 1.39.47.2.1.38.22.5.38s.19.36.19.65h.1l-.1-.02a.7.7 0 0 1-.32.52 1.2 1.2 0 0 1-.66.17c-.35 0-.72-.11-1-.33a1.17 1.17 0 0 1-.48-.95l-.17-.04a33.24 33.24 0 0 1-.67 1.3l-.06.1-.12.22.24-.1a1.16 1.16 0 0 1 .4-.06c.47 0 1.02.2 1.41.3a2.08 2.08 0 0 0 1.59-.3c.38-.26.66-.7.66-1.4 0-.47-.2-.8-.5-1.03-.43-.34-1.06-.47-1.57-.63a2.1 2.1 0 0 1-.62-.3.54.54 0 0 1-.24-.45.64.64 0 0 1 .26-.53 1.02 1.02 0 0 1 .62-.18c.25 0 .52.08.71.24.2.17.33.4.33.75l.18.04.68-1.33-.17-.09.08.05-.08-.04-.68 1.33.09.04h.09c0-.4-.16-.7-.4-.9a1.31 1.31 0 0 0-.83-.28c-.27 0-.53.07-.73.22a.83.83 0 0 0-.33.68.71.71 0 0 0 .14.44c.16.21.42.34.72.44.44.15.97.26 1.37.47.2.11.38.24.5.4s.2.38.2.66c-.01.64-.26 1.02-.59 1.25a1.9 1.9 0 0 1-1.43.28c-.38-.11-.94-.31-1.45-.31a1.36 1.36 0 0 0-.48.07l.03.1.09.04s.3-.54.72-1.41l-.08-.04h-.1c0 .48.23.85.55 1.1.32.24.73.37 1.12.37.28 0 .55-.07.76-.2a.89.89 0 0 0 .4-.65v-.01c0-.24-.04-.45-.13-.61a1.4 1.4 0 0 0-.72-.61c-.46-.2-1-.3-1.4-.48a1.3 1.3 0 0 1-.5-.34.88.88 0 0 1-.19-.58c0-.6.2-.95.49-1.17a1.83 1.83 0 0 1 1.58-.2c.33.12.62.24.88.24a.6.6 0 0 0 .27-.06.5.5 0 0 0 .2-.2l-.08-.04-.08-.04.08.04m18.76.31-.08-.05a.18.18 0 0 1-.08.06.33.33 0 0 1-.13.03c-.14 0-.36-.07-.6-.14a1.68 1.68 0 0 0-.49-.07c-.26 0-.57.05-.82.21a.97.97 0 0 0-.42.87c0 .15.04.28.1.38.13.18.33.29.55.37.34.11.73.17 1.03.3a.93.93 0 0 1 .35.23.56.56 0 0 1 .14.38h.09l-.1-.01a.41.41 0 0 1-.21.3.98.98 0 0 1-.48.1 1.36 1.36 0 0 1-.73-.2c-.2-.14-.33-.32-.33-.57v-.36l-.18.31a20.67 20.67 0 0 1-.49.83l-.04.06-.14.22.25-.08a.97.97 0 0 1 .3-.04c.34 0 .74.12 1.03.2l.3.02c.26 0 .6-.05.88-.22a1.03 1.03 0 0 0 .5-.93.8.8 0 0 0-.1-.4c-.13-.2-.33-.34-.55-.43-.33-.14-.72-.2-1.03-.3a1.14 1.14 0 0 1-.35-.17c-.08-.07-.12-.13-.12-.23a.36.36 0 0 1 .17-.3.82.82 0 0 1 .44-.12.9.9 0 0 1 .52.15.53.53 0 0 1 .23.45v.34l.67-1.14-.16-.1.08.05-.08-.05-.5.85.08.05h.1a.72.72 0 0 0-.31-.6 1.08 1.08 0 0 0-.63-.19 1 1 0 0 0-.54.15.54.54 0 0 0-.26.46.45.45 0 0 0 .12.3c.12.15.32.22.53.3.33.09.72.16 1.01.3a.97.97 0 0 1 .36.24.59.59 0 0 1 .13.4.92.92 0 0 1-.12.47.92.92 0 0 1-.48.38 1.69 1.69 0 0 1-.59.1c-.1 0-.2 0-.26-.02-.28-.07-.7-.2-1.07-.2a1.17 1.17 0 0 0-.36.05l.03.1.08.04s.23-.34.54-.9l-.09-.04h-.09c0 .32.18.57.42.73.24.16.54.24.83.24.2 0 .4-.05.57-.14a.6.6 0 0 0 .31-.43v-.02a.77.77 0 0 0-.1-.4c-.12-.2-.33-.32-.55-.4-.33-.13-.73-.2-1.03-.3a.94.94 0 0 1-.36-.22.47.47 0 0 1-.13-.34c0-.37.15-.58.35-.71.2-.14.47-.19.71-.19.18 0 .34.03.44.06.24.08.46.15.65.15a.5.5 0 0 0 .2-.03.38.38 0 0 0 .17-.14l-.08-.05-.08-.05.08.05z"/><path fill="#231F20" d="M12.45 17.43v.1a.67.67 0 0 0 .33-.1.52.52 0 0 0 .2-.19.7.7 0 0 0 .08-.35c0-.3-.1-.5-.26-.62a.82.82 0 0 0-.5-.15h-.72v1.42l.87-.01v-.1.1-.2l-.68.02V16.3h.53c.14 0 .28.03.38.1.1.09.19.22.19.48a.51.51 0 0 1-.06.26.35.35 0 0 1-.2.16.5.5 0 0 1-.15.03h-.01v.1zm-1.33 1.5h.1v-1.4h-.1c-.37 0-.65.2-.66.2l.05.08.1.02a.24.24 0 0 1 .09-.12.78.78 0 0 1 .27-.12.95.95 0 0 1 .12-.02h.03v-.01h.1v-1.03c0-.27-.08-.44-.17-.54a.38.38 0 0 0-.19-.13l-.02.1v.09l1.84.03v-.1l-.01.1c.31.05.53.17.67.3a.63.63 0 0 1 .2.46c0 .36-.33.74-.88.74h-1.11v1.4l.26.17H11l.23-.17v-.05h-.1l-.05-.07-.64.48h2.02l-.71-.46v-1.21h-.1v.1h.89v-.1l-.01.1a1.4 1.4 0 0 0 .14 0c.32 0 .58-.11.77-.28a.89.89 0 0 0 .3-.65.82.82 0 0 0-.26-.59 1.4 1.4 0 0 0-.77-.36h-.01l-1.85-.03-.02.19V16v.03V16v.03s.05.02.1.08c.05.07.1.19.1.41v.94h.1v-.1c-.01 0-.15.02-.3.07a.83.83 0 0 0-.24.12.43.43 0 0 0-.16.23l-.06.23.2-.13a1.15 1.15 0 0 1 .57-.17v-.09h-.1v1.3h.1l-.06-.07.06.07m7.04.1v.09a.82.82 0 0 0 .55-.2c.2-.17.3-.43.37-.67a2.67 2.67 0 0 0 .06-.68h-.1l.1.01v-.1c0-.18-.01-.5-.13-.8a.98.98 0 0 0-.27-.39.76.76 0 0 0-.5-.17c-.24 0-.44.06-.59.16-.23.15-.35.4-.42.64a2.85 2.85 0 0 0-.08.73h.1-.1v.04c0 .13.01.47.14.8.06.15.16.31.3.43s.33.2.57.2v-.19a.67.67 0 0 1-.45-.15 1.08 1.08 0 0 1-.31-.58 2.3 2.3 0 0 1-.06-.5v-.05c0-.28.02-.63.15-.9a.78.78 0 0 1 .27-.32.84.84 0 0 1 .48-.13.57.57 0 0 1 .38.13c.14.12.23.32.28.52a2.32 2.32 0 0 1 .05.6v.11c0 .15-.01.48-.12.76a.9.9 0 0 1-.24.36.64.64 0 0 1-.43.15v.1zm.11-3.07v.09c.34 0 .65.15.89.43.23.27.39.67.39 1.17 0 .49-.15.87-.39 1.12-.24.25-.57.4-.98.4-.4 0-.76-.13-1.02-.39-.25-.26-.42-.68-.42-1.3 0-.6.24-.94.55-1.16.3-.2.7-.27.98-.27v-.19a2 2 0 0 0-1.09.31c-.35.24-.63.66-.63 1.32 0 .64.18 1.11.48 1.42.3.3.7.44 1.15.44.45 0 .84-.16 1.12-.45.28-.3.44-.72.44-1.25s-.17-.98-.44-1.3a1.35 1.35 0 0 0-1.03-.49v.1m6.16 2.94-.06-.07-.62.5h1.84l-.53-.46V16.2h-.1v.1h.52l.06.01a.46.46 0 0 1 .19.12c.06.06.11.15.14.3l.04.27.6-1.17H22.9l.54 1.21.06-.28c0-.03.04-.15.1-.27a.5.5 0 0 1 .11-.14.2.2 0 0 1 .13-.05h.6v-.1h-.1v2.7h.1l-.06-.08.06.07h.09v-2.78h-.69a.4.4 0 0 0-.26.11.86.86 0 0 0-.2.32 1.3 1.3 0 0 0-.07.18l.1.02.08-.04-.3-.68h3.02l-.33.65.09.04.09-.02a.7.7 0 0 0-.28-.47.64.64 0 0 0-.17-.08.42.42 0 0 0-.12-.03h-.61v2.84l.21.18h-.8l.24-.19v-.05h-.1"/><path fill="#231F20" d="m22.87 15.92-.06-.07-.44.32v2.23a.71.71 0 0 1-.17.45c-.13.16-.37.3-.83.3-.46 0-.76-.09-.95-.26a.76.76 0 0 1-.2-.34 1.7 1.7 0 0 1-.07-.51v-1.87l-.17-.15h.73l-.18.15v2.11c0 .12 0 .23.03.33a.53.53 0 0 0 .22.37c.13.09.32.12.57.12.18 0 .32-.02.44-.06a.58.58 0 0 0 .36-.34c.06-.15.07-.33.08-.54v-2l-.21-.14h.85v-.1l-.06-.07.06.07v-.1h-1.42l.62.47.06-.07h-.1v1.94c0 .27-.03.46-.12.57a.4.4 0 0 1-.19.14c-.09.03-.2.05-.37.05a1.2 1.2 0 0 1-.36-.05c-.13-.04-.18-.1-.22-.19-.04-.1-.05-.23-.05-.4v-2.02l.47-.43H19.5l.5.45.06-.07h-.1v1.83c0 .22.03.4.08.57a.92.92 0 0 0 .46.56c.22.12.5.17.87.17.5 0 .8-.16.97-.37a.9.9 0 0 0 .22-.57v-2.14l.6-.43h-.3v.1m-8.33 1.64v.1s.36-.02.72-.14c.18-.06.36-.15.5-.29a.77.77 0 0 0 .25-.57c0-.26-.1-.45-.27-.56a.97.97 0 0 0-.55-.15 1.76 1.76 0 0 0-.59.11.54.54 0 0 0-.12.06l-.04.03v1.5h.1v-.09h.1v-1.36h-.1l.05.07a.37.37 0 0 1 .08-.04 1.51 1.51 0 0 1 .52-.09.8.8 0 0 1 .44.11c.12.08.19.2.2.41a.58.58 0 0 1-.2.44c-.17.16-.44.26-.68.31a2.71 2.71 0 0 1-.41.06v.09h.1-.1zm-.79-1.25.07.07c.1-.1.3-.2.53-.26.23-.06.5-.1.76-.1.34 0 .67.06.91.19a.8.8 0 0 1 .28.23.56.56 0 0 1-.02.67c-.12.15-.3.26-.45.34a2.1 2.1 0 0 1-.25.11h-.01l-.1.04.03.1s.12.28.33.63c.2.36.49.77.84 1.03l.06-.08-.03-.09-.4.14a5.13 5.13 0 0 0-.3.12 1.73 1.73 0 0 0-.13.06.43.43 0 0 0-.09.07l.07.06h.1c0-.01-.12-1.08-.58-1.91l-.03-.05h-.28a2.19 2.19 0 0 0-.33.01.7.7 0 0 0-.15.04.23.23 0 0 0-.12.1l-.01.02v1.11l.16.16h-.73l.2-.15V17.8h-.23a2.8 2.8 0 0 0-.18 0 .9.9 0 0 0-.08 0l-.08.03.05.08.08.05a1.4 1.4 0 0 0 .09-.19.3.3 0 0 0 .02-.1.14.14 0 0 0-.01-.05l-.09.03v.1h.44V16.4H14l.1.03a.14.14 0 0 0 0-.04.16.16 0 0 0-.07-.13.34.34 0 0 0-.2-.05.92.92 0 0 0-.08 0v.1l.07.07-.07-.07.01.1a.7.7 0 0 1 .06 0h.1l.01-.01h-.02v.02l.02-.02h-.02.03-.03.04-.04.05l-.05-.02v.01h.05l-.05-.01v1.17h-.4l.05.13.04-.02h-.04v.02l.04-.02h-.04v.01a.6.6 0 0 1-.07.16l-.01.02.13.13-.03-.03.02.03-.02-.03.02.03a.6.6 0 0 1 .1 0 2.53 2.53 0 0 1 .28 0v-.1h-.09v1l-.57.42h1.78l-.47-.42v-1h-.09l.08.04.05-.02a3.08 3.08 0 0 1 .55-.04h.06v-.09l-.07.05c.21.39.35.85.43 1.21a6.65 6.65 0 0 1 .12.62l.02.2.14-.14a.27.27 0 0 1 .05-.03c.1-.06.3-.14.47-.2a12.6 12.6 0 0 1 .32-.11l.17-.06-.15-.1c-.31-.23-.6-.63-.79-.97a6.05 6.05 0 0 1-.31-.62l-.09.04.03.08s.24-.07.47-.22c.12-.08.24-.18.34-.3a.74.74 0 0 0 .02-.9 1.1 1.1 0 0 0-.57-.37 2.51 2.51 0 0 0-.77-.12 3.13 3.13 0 0 0-.81.11c-.25.07-.46.17-.6.3l-.2.18.26-.02v-.09"/><path fill="#231F20" d="M13.6 18c-.11.03-.17-.07-.13-.14l.13.13z"/><path fill="#fff" d="m10.3 15.69-.05-.02c-.08.13-.19.18-.35.18-.21 0-.5-.1-.83-.23a1.94 1.94 0 0 0-.65-.1c-.35 0-.75.08-1.07.32-.32.24-.54.65-.54 1.28 0 .43.2.71.48.9.43.28 1.05.37 1.56.57.26.1.49.22.65.4.16.18.26.41.26.75h.04l-.04-.01a.75.75 0 0 1-.35.54c-.18.12-.42.19-.68.19a1.73 1.73 0 0 1-1.03-.35 1.21 1.21 0 0 1-.5-.98l-.08-.02a32.7 32.7 0 0 1-.52 1.02l-.2.38-.07.11.12-.04c.13-.05.28-.07.43-.07.48 0 1.02.2 1.41.3a2.03 2.03 0 0 0 1.55-.3c.37-.25.64-.68.64-1.36 0-.46-.19-.78-.47-1-.43-.33-1.05-.46-1.56-.62a2.14 2.14 0 0 1-.64-.3.59.59 0 0 1-.25-.49c0-.25.1-.44.28-.56a1.18 1.18 0 0 1 1.39.06c.2.17.34.43.34.78l.09.02.68-1.33-.08-.04.04.02-.05-.02L9.57 17l.05.02h.04c0-.38-.15-.67-.38-.86a1.27 1.27 0 0 0-.8-.28c-.26 0-.51.08-.7.22a.78.78 0 0 0-.32.64c0 .16.05.3.14.41.15.2.4.32.7.42.43.16.96.27 1.37.48.21.1.4.24.52.42s.2.4.2.68c0 .65-.26 1.05-.6 1.29a1.95 1.95 0 0 1-1.47.28c-.39-.1-.94-.3-1.44-.3-.16 0-.32.01-.46.07l.01.04.04.02s.31-.54.73-1.4l-.04-.02h-.05c0 .46.22.82.53 1.06.31.24.71.36 1.1.36.26 0 .52-.06.73-.2a.84.84 0 0 0 .38-.6v-.01c0-.47-.2-.78-.48-.98-.43-.31-1.05-.41-1.57-.6-.25-.1-.48-.2-.64-.37a.9.9 0 0 1-.26-.67c0-.61.21-.98.5-1.2.3-.23.68-.3 1.02-.3.25 0 .47.03.62.09.32.12.62.23.86.23.18 0 .34-.06.43-.23l-.04-.02-.04-.02.04.02m18.76.3-.04-.02c-.05.08-.13.11-.25.11a2.3 2.3 0 0 1-.6-.14 1.64 1.64 0 0 0-.49-.07c-.26 0-.55.06-.79.21-.24.16-.4.42-.4.83 0 .28.14.47.36.59.31.18.77.24 1.15.36.19.07.35.14.47.26a.6.6 0 0 1 .18.46h.05l-.05-.01a.46.46 0 0 1-.24.33 1.02 1.02 0 0 1-.5.12 1.4 1.4 0 0 1-.75-.22.73.73 0 0 1-.36-.61V18l-.09.16c-.15.27-.28.5-.38.65l-.15.24-.07.1.13-.03c.1-.03.2-.05.3-.05.36 0 .76.13 1.05.2.07.01.18.03.3.03.25 0 .57-.06.84-.22a.98.98 0 0 0 .48-.89.75.75 0 0 0-.36-.65c-.31-.21-.77-.3-1.14-.4a1.69 1.69 0 0 1-.47-.18c-.12-.08-.18-.17-.18-.3a.4.4 0 0 1 .2-.35.86.86 0 0 1 .46-.12.94.94 0 0 1 .55.16.57.57 0 0 1 .24.49v.17l.6-1-.09-.05.04.03-.04-.02-.5.84.04.03h.05a.67.67 0 0 0-.29-.56 1.04 1.04 0 0 0-.6-.18.95.95 0 0 0-.52.14.5.5 0 0 0-.23.42c0 .1.04.2.1.28.12.13.3.2.52.27.32.1.7.16 1.01.3a1 1 0 0 1 .37.26c.1.11.15.24.15.42 0 .41-.19.66-.44.8a1.5 1.5 0 0 1-.8.21 1.25 1.25 0 0 1-.27-.03c-.29-.06-.7-.2-1.06-.2a.93.93 0 0 0-.34.06l.01.04.04.03s.23-.35.54-.9l-.04-.02h-.05c0 .3.16.54.4.69.23.15.52.23.8.23.2 0 .4-.04.55-.13a.55.55 0 0 0 .29-.4.7.7 0 0 0-.36-.64c-.32-.2-.78-.27-1.16-.38a1.3 1.3 0 0 1-.47-.23.52.52 0 0 1-.18-.42c0-.38.15-.6.36-.75a1.52 1.52 0 0 1 1.2-.13c.23.08.45.15.63.15.13 0 .25-.04.33-.15l-.04-.03-.04-.02.04.02m-16.6 1.44v.05a.62.62 0 0 0 .3-.08c.14-.08.26-.23.26-.5 0-.3-.1-.48-.24-.6a.77.77 0 0 0-.48-.13h-.66v1.32l.82-.01v-.05.05-.1l-.73.02v-1.14h.57c.15 0 .3.03.42.12.12.1.2.24.2.51 0 .25-.1.36-.2.43a.53.53 0 0 1-.25.06h-.01v.05zm-1.33 1.5h.05v-1.35h-.04c-.36 0-.64.19-.64.19l.02.04.05.01a.28.28 0 0 1 .1-.15.82.82 0 0 1 .3-.13 1.35 1.35 0 0 1 .12-.02h.04l.05-.01v-.98a.79.79 0 0 0-.15-.51.34.34 0 0 0-.17-.11v.04l-.01.05 1.84.03v-.05.05c.32.06.55.18.7.32a.68.68 0 0 1 .2.49c0 .4-.35.79-.92.79H11.6v1.33l.37.24h-1.12l.32-.24v-.03h-.04l-.03-.04-.53.4h1.72l-.6-.38v-1.24h-.04v.05h.88v-.05l-.01.05h.14c.3 0 .56-.1.74-.27a.84.84 0 0 0 .27-.61.77.77 0 0 0-.23-.55c-.16-.17-.41-.3-.75-.35l-1.85-.03V16v-.02l-.01.02v-.02.02s.06.01.12.09.12.2.13.44v.94h.04v-.05a1.33 1.33 0 0 0-.29.06.78.78 0 0 0-.22.11.38.38 0 0 0-.14.2l-.03.13.1-.07c.06-.04.3-.17.59-.17v-.05h-.05v1.3h.04l-.02-.04.02.04m7.05.1v.04a.8.8 0 0 0 .52-.18c.2-.17.3-.42.35-.65a2.62 2.62 0 0 0 .06-.66h-.04.04v-.1c0-.17-.01-.5-.12-.78a.93.93 0 0 0-.26-.37.71.71 0 0 0-.47-.17.9.9 0 0 0-.88.54c-.14.3-.16.66-.16.95h.04-.04v.04c0 .12 0 .46.13.77.06.16.15.31.29.43a.8.8 0 0 0 .54.18v-.09a.71.71 0 0 1-.48-.17 1.14 1.14 0 0 1-.33-.6 2.34 2.34 0 0 1-.06-.52v-.04c0-.28.02-.64.16-.91.13-.28.35-.48.79-.48.18 0 .3.05.41.14.15.13.24.33.3.54.04.2.05.41.05.53v.19c0 .15-.01.49-.13.78a.94.94 0 0 1-.25.38.68.68 0 0 1-.46.16v.05zm.11-3.07V16c.35 0 .68.16.92.45.25.28.4.7.4 1.2s-.14.89-.4 1.15c-.24.27-.6.4-1.01.41-.42 0-.79-.12-1.05-.4-.27-.27-.43-.7-.43-1.32 0-.62.24-.99.56-1.2.32-.22.72-.29 1.01-.29v-.09c-.3 0-.72.07-1.06.3-.34.23-.6.63-.6 1.28 0 .64.16 1.1.45 1.39.29.3.69.42 1.12.42.44 0 .82-.15 1.09-.43.26-.29.42-.7.42-1.22s-.16-.96-.42-1.26a1.3 1.3 0 0 0-1-.48v.05m6.16 2.94-.03-.03-.52.4h1.59l-.46-.38v-2.68h-.05v.05h.52a.44.44 0 0 1 .21.09.55.55 0 0 1 .22.38l.02.14.5-.98h-3.47l.45 1.01.03-.14v-.02c.02-.05.06-.17.12-.28a.5.5 0 0 1 .12-.14.25.25 0 0 1 .15-.06h.6v-.05h-.05v2.7h.05l-.03-.04.03.03h.04v-2.73h-.64a.35.35 0 0 0-.23.1c-.19.16-.25.47-.25.47l.05.01.04-.02-.33-.75h3.17l-.36.72.04.02.04-.01a.65.65 0 0 0-.25-.44.52.52 0 0 0-.27-.1h-.56v2.77l.29.25h-1.06l.32-.26v-.02h-.04"/><path fill="#fff" d="m22.87 15.92-.03-.03-.42.3v2.21a.76.76 0 0 1-.18.48c-.15.17-.4.32-.87.32s-.78-.1-.98-.28c-.2-.18-.28-.47-.28-.88V16.2l-.25-.23h.97l-.25.22v2.1c0 .23.01.42.13.56a.49.49 0 0 0 .24.16c.1.03.23.05.4.05.34 0 .55-.08.68-.24.12-.16.15-.39.15-.66v-1.97l-.3-.22h.99v-.05l-.03-.04.03.04v-.04h-1.28l.51.37.03-.04h-.05v1.95c0 .27-.03.47-.13.6s-.27.2-.6.2c-.16 0-.28-.01-.38-.04a.42.42 0 0 1-.25-.22c-.04-.1-.05-.25-.05-.42v-2.05l.4-.36h-1.45l.4.38.04-.04h-.05v1.83c0 .43.1.74.32.95.22.21.56.3 1.04.3s.77-.16.94-.35a.85.85 0 0 0 .2-.54v-2.16l.5-.36h-.14v.04m-8.34 1.65v.05s.35-.01.7-.13c.18-.06.36-.15.5-.28a.72.72 0 0 0 .22-.54c0-.25-.1-.42-.25-.52a.94.94 0 0 0-.52-.14c-.15 0-.29.02-.41.05a.83.83 0 0 0-.27.11l-.02.02v1.43h.05v-.05h.05v-1.36h-.05l.03.04a.77.77 0 0 1 .23-.1 1.63 1.63 0 0 1 .4-.05c.17 0 .34.04.46.12s.2.22.2.45a.6.6 0 0 1-.2.47c-.17.18-.46.28-.7.33a2.73 2.73 0 0 1-.42.05v.05h.05-.05zm-.78-1.25.03.03c.23-.22.78-.37 1.32-.37.34 0 .68.06.93.2s.4.32.4.6a.6.6 0 0 1-.12.36 1.4 1.4 0 0 1-.46.36 2.13 2.13 0 0 1-.26.11l-.02.01-.05.02.02.04s.46 1.16 1.15 1.65l.03-.04-.02-.04-.4.13a5.03 5.03 0 0 0-.3.13.76.76 0 0 0-.2.11l.04.03h.05s-.12-1.07-.57-1.89l-.01-.02h-.03l-.23-.01c-.1 0-.22 0-.32.02a.65.65 0 0 0-.14.04.19.19 0 0 0-.1.08v1.08l.23.22h-1l.3-.21v-1.12h-.36a.85.85 0 0 0-.08.01.18.18 0 0 0-.06.02l.03.04.04.03.05-.1a.45.45 0 0 0 .05-.17v-.03l-.05.01v.05h.4v-1.29h-.05l.05.02v-.03a.11.11 0 0 0-.05-.09.37.37 0 0 0-.18-.04.88.88 0 0 0-.07 0v.05l.04.03-.04-.03v.05a.79.79 0 0 1 .07 0c.08 0 .11 0 .13.02v.01h.03-.02.02-.02v1.2h-.38l.03.07a.4.4 0 0 1-.05.13 1.4 1.4 0 0 1-.04.09l.06.06a.16.16 0 0 1 .03 0l.24-.02h.13v-.04h-.04v1.02l-.48.36h1.52l-.4-.36V17.9h-.04l.04.02.05-.04c.1-.04.29-.05.43-.05h.22v-.04l-.03.03a4.96 4.96 0 0 1 .53 1.67l.02.18.01.1.07-.07a.73.73 0 0 1 .17-.1l.44-.17.25-.08.09-.03-.08-.06a3.2 3.2 0 0 1-.8-.97 6.09 6.09 0 0 1-.32-.63l-.04.02.02.04s.23-.07.46-.22c.11-.08.23-.17.32-.29a.7.7 0 0 0 .15-.42c0-.32-.19-.55-.46-.69-.26-.14-.62-.2-.97-.2-.56 0-1.12.15-1.39.4l-.1.09.14-.01v-.05M6.91 19.5l.27-.54s.01.55.19.8l-.46-.26m2.99-2.95-.33.66s-.01-.4-.05-.5l.38-.16m.95-.54a.2.2 0 0 0-.08-.02c-.05 0-.05-.09.07-.08v.1z"/><path fill="#fff" d="m13.51 17.88.06.07c-.08.02-.07-.06-.06-.07zm15.5-1.9c.04-.07.12-.03.08.05l-.08-.05zm-18.76-.31c.04-.08.12-.04.08.04l-.08-.04z"/><path fill="#2C7421" d="M29.05 16.02c-.15.22-.5.11-.91-.02-.41-.13-1.62-.15-1.62.92s2.17.5 2.17 1.67c-.12.79-1.95.6-1.95-.39-.3.56-.53.9-.53.9.41-.14 1 .06 1.38.15.38.08 1.56.01 1.56-1.03 0-1.15-2.15-.75-2.15-1.54 0-.71 1.55-.71 1.55.18l.5-.84m-16.6 1.43s.51.02.51-.54-.36-.68-.66-.68h-.62v1.23l.77-.01zm-1.32 1.5v-1.3c-.34 0-.62.18-.62.18.08-.3.61-.35.61-.35v-.93c0-.52-.28-.58-.28-.58l1.84.03c1.5.27 1.05 1.81-.15 1.69h-.88v1.26l.48.31h-1.42l.42-.31m7.04.1c.97 0 .89-1.46.89-1.46s.09-1.36-.81-1.36-1 .87-1 1.43c0 0-.05 1.38.92 1.38zm.11-3.08c.73 0 1.37.67 1.37 1.7 0 1.02-.6 1.6-1.46 1.6-.85 0-1.53-.5-1.53-1.77 0-1.26 1.03-1.53 1.62-1.53zm6.16 2.95-.41.33h1.32l-.38-.32v-2.7h.52c.07 0 .4.08.48.5l.4-.78h-3.33l.37.82s.11-.54.43-.54h.6v2.69m-1.57-2.98-.4.29v2.19c0 .23-.15.84-1.1.84-.95 0-1.31-.36-1.31-1.2v-1.83l-.32-.3h1.2l-.31.3v2.07c0 .46.06.73.72.73.66 0 .78-.3.78-.86v-1.94l-.4-.3h1.14"/><path fill="#2C7421" d="M14.53 17.59s1.38-.05 1.38-.9c0-.86-1.18-.61-1.38-.47v1.36zm-.78-1.25c.57-.54 2.73-.61 2.73.45 0 .61-.9.9-.9.9s.47 1.14 1.14 1.62c0 0-.76.24-.88.36 0 0-.12-1.07-.56-1.87 0 0-.67-.05-.75.1v1.05l.32.29h-1.26l.38-.3V17.9s-.36 0-.42.03c0 0 .11-.2.09-.26h.35v-1.24s.04-.12-.24-.1m-3.45-.63c-.21.35-.68.2-1.24-.02-.57-.2-2.2-.23-2.2 1.45s2.94.8 2.94 2.62c-.16 1.24-2.64.94-2.64-.6a28.3 28.3 0 0 1-.72 1.4c.56-.21 1.35.1 1.87.23.51.14 2.13.02 2.13-1.61 0-1.8-2.93-1.17-2.93-2.41 0-1.13 2.1-1.13 2.1.28l.69-1.34m.7 4.67c0-.1-.01-.14-.08-.14-.05 0-.09-.01-.09-.04 0-.02.04-.02.08-.02h.76c.04 0 .08 0 .08.03l-.01.1v.1c0 .01 0 .03-.02.03-.03 0-.04-.03-.04-.04-.02-.14-.14-.14-.28-.14h-.1c-.03 0-.04.02-.04.08v.26c0 .03.02.04.09.04.1 0 .15-.01.19-.07.02-.04.02-.07.04-.07.04 0 .04.02.04.04l-.01.14v.14c0 .02 0 .04-.03.04-.02 0-.02-.05-.05-.09-.03-.05-.09-.06-.18-.06-.07 0-.09.02-.09.06v.28c0 .11.06.14.13.14.02 0 .04.02.04.04s-.05.02-.1.02h-.41c-.03 0-.05 0-.05-.02s.03-.03.04-.04c.07-.02.09-.07.09-.13v-.68m.88.74a.15.15 0 0 1-.05.06c-.03.02-.07.03-.07.05 0 .02.02.02.05.02h.35c.02 0 .04 0 .04-.02s-.06-.04-.11-.05c-.04 0-.08-.04-.08-.06 0-.07.05-.22.14-.22h.26c.08 0 .12 0 .14.02a.5.5 0 0 1 .08.2c0 .04-.03.07-.08.08-.02 0-.04.02-.04.03 0 .01 0 .02.03.02h.48c.03 0 .05 0 .05-.02s-.03-.03-.07-.04c-.07-.02-.1-.1-.12-.15l-.43-.84-.03-.04c-.02 0-.02.02-.05.06l-.49.9zm.4-.58.04-.04s.02 0 .03.03l.11.2a.2.2 0 0 1 .03.07l-.08.01h-.18c-.04 0-.07 0-.07-.02l.02-.04.1-.21m1.07.52c0 .06-.02.11-.1.13 0 0-.04.02-.04.04s.03.02.05.02h.41c.08 0 .1 0 .1-.02s-.01-.04-.03-.04c-.07 0-.13-.03-.13-.16v-.26c0-.02 0-.03.05-.03.07 0 .1.04.12.09l.2.33a.18.18 0 0 0 .15.1c.06 0 .26-.02.26-.08 0-.02 0-.03-.03-.03h-.05c-.01 0-.03 0-.05-.02a2.28 2.28 0 0 1-.27-.42c0-.02.05-.03.08-.04.07-.04.13-.1.13-.2 0-.25-.24-.3-.47-.3l-.3.02-.2-.01c-.04 0-.05 0-.05.02 0 .03.01.04.04.04.07 0 .13.04.13.13v.7zm.26-.74c0-.06.01-.08.1-.08.15 0 .22.1.22.22 0 .15-.06.22-.21.22-.11 0-.11-.04-.11-.06v-.3m1.02.1c0-.05-.02-.14-.08-.16-.06-.03-.08-.03-.08-.06 0-.02 0-.02.02-.02h.31c.04 0 .05 0 .06.02l.33.63.06.1.04-.07.37-.65c.02-.03.03-.03.04-.03h.31c.01 0 .02 0 .02.02 0 .03-.03.03-.09.05-.06.02-.09.04-.09.13v.55c0 .12.01.2.15.26.03 0 .05.02.05.04s-.04.02-.07.02h-.41c-.04 0-.07 0-.07-.02s.02-.03.05-.04c.04-.02.04-.05.04-.13v-.54c-.02 0-.03.02-.05.06l-.34.63c-.01.02-.03.04-.05.04-.02 0-.03-.01-.04-.03l-.33-.65c-.01-.03-.03-.05-.04-.05l-.01.04v.4c0 .1.02.19.14.23.03 0 .05.02.05.04s-.03.02-.05.02h-.36c-.01 0-.03 0-.03-.02s.02-.03.04-.04c.1-.05.11-.1.11-.18v-.58m1.7.02c0-.08 0-.2-.08-.2-.05-.01-.1-.02-.1-.05 0-.02.04-.02.07-.02h.8c.04 0 .07 0 .07.03v.2c0 .02 0 .03-.03.03s-.03-.03-.03-.04c-.02-.1-.07-.14-.27-.14h-.1c-.06 0-.07.02-.07.08v.27c0 .02.03.03.1.03.1 0 .17-.03.2-.1.02-.04.03-.04.04-.04.03 0 .03.02.03.04v.28c0 .02 0 .04-.03.04s-.03-.04-.05-.07c-.04-.07-.1-.08-.2-.08-.07 0-.09.02-.09.06v.27c0 .11.02.13.11.13.18 0 .28-.05.34-.1s.08-.1.1-.1c.03 0 .03 0 .03.03a.45.45 0 0 1-.02.12c-.03.06-.1.13-.18.13h-.69c-.06 0-.08 0-.08-.02s.03-.04.06-.05c.06-.02.07-.06.07-.15v-.58m1.13.61c0 .06-.02.11-.09.13-.02 0-.04.02-.04.04s.02.02.05.02h.4c.09 0 .1 0 .1-.02s0-.04-.03-.04c-.07 0-.13-.03-.13-.16v-.26c0-.02.01-.03.06-.03.06 0 .09.04.12.09l.2.33a.18.18 0 0 0 .15.1c.05 0 .25-.02.25-.08 0-.02 0-.03-.02-.03h-.06c-.01 0-.03 0-.04-.02a2.27 2.27 0 0 1-.28-.42c0-.02.05-.03.09-.04.07-.04.12-.1.12-.2 0-.25-.23-.3-.46-.3l-.3.02-.21-.01c-.04 0-.05 0-.05.02 0 .03.02.04.04.04.07 0 .13.04.13.13v.7zm.26-.74c0-.06.02-.08.1-.08.15 0 .23.1.23.22 0 .15-.07.22-.22.22-.11 0-.11-.04-.11-.06v-.3m.92.66v-.05c0-.01 0-.03.03-.03s.04.05.05.07c.07.12.2.23.35.23.12 0 .22-.07.22-.18 0-.25-.64-.13-.64-.55 0-.16.15-.3.35-.3.15 0 .23.05.29.05l.07-.02c.02 0 .03.01.03.03l.02.25c0 .02 0 .03-.03.03s-.04-.02-.05-.06c-.04-.12-.19-.22-.32-.22-.1 0-.2.06-.2.14 0 .27.64.13.64.56 0 .15-.13.34-.38.34-.11 0-.2-.03-.31-.05-.02 0-.05 0-.05-.03l-.06-.21m1.67-.55c0-.06-.02-.15-.09-.17-.05-.03-.08-.03-.08-.06 0-.02 0-.02.02-.02h.31c.04 0 .05 0 .06.02l.34.63.05.1.04-.07.38-.65c.01-.03.02-.03.04-.03h.3c.01 0 .02 0 .02.02 0 .03-.03.03-.08.05-.07.02-.1.04-.1.13v.55c0 .12.02.2.15.26.03 0 .05.02.05.04s-.03.02-.07.02h-.41c-.03 0-.07 0-.07-.02s.02-.03.05-.04c.04-.02.05-.05.05-.13v-.5l-.01-.04c-.01 0-.03.02-.05.06l-.34.63c-.01.02-.03.04-.05.04-.02 0-.03-.01-.04-.03l-.33-.65c-.01-.03-.02-.05-.04-.05l-.01.04v.4c0 .1.03.19.14.23.03 0 .05.02.05.04s-.03.02-.05.02h-.36c-.01 0-.03 0-.03-.02s.02-.03.04-.04c.1-.05.12-.1.12-.18v-.58m1.65.69a.15.15 0 0 1-.06.06c-.03.02-.07.03-.07.05 0 .02.02.02.05.02h.35c.02 0 .04 0 .04-.02s-.06-.04-.1-.05c-.04 0-.09-.04-.09-.06 0-.07.05-.22.14-.22h.26c.08 0 .12 0 .14.02a.5.5 0 0 1 .08.2c0 .04-.03.07-.08.08-.02 0-.04.02-.04.03 0 .01.01.02.03.02h.48c.03 0 .05 0 .05-.02s-.03-.03-.07-.04c-.07-.02-.1-.1-.12-.15l-.43-.84-.03-.04-.05.06-.49.9zm.4-.58.03-.04c.01 0 .02 0 .03.03l.12.2a.2.2 0 0 1 .02.07l-.07.01h-.19c-.04 0-.07 0-.07-.02l.02-.04.11-.21m1.06.52c0 .06-.02.11-.1.13 0 0-.04.02-.04.04s.03.02.05.02h.42c.07 0 .1 0 .1-.02s-.02-.04-.04-.04c-.07 0-.13-.03-.13-.16v-.26c0-.02.01-.03.05-.03.07 0 .1.04.13.09l.2.33a.18.18 0 0 0 .14.1c.06 0 .26-.02.26-.08 0-.02 0-.03-.02-.03h-.06c-.01 0-.03 0-.04-.02a2.28 2.28 0 0 1-.28-.42c0-.02.05-.03.08-.04.07-.04.13-.1.13-.2 0-.25-.24-.3-.47-.3l-.3.02-.2-.01c-.04 0-.05 0-.05.02 0 .03.01.04.04.04.07 0 .13.04.13.13v.7zm.26-.74c0-.06.01-.08.1-.08.15 0 .23.1.23.22 0 .15-.07.22-.22.22-.11 0-.11-.04-.11-.06v-.3m1.05.05c0-.1-.06-.13-.14-.13-.02 0-.03-.01-.03-.04 0-.02.05-.02.1-.02h.4c.03 0 .06 0 .06.02s-.03.03-.05.04c-.06.02-.08.08-.08.13v.31c.01 0 .03 0 .06-.03l.39-.32a.05.05 0 0 0 .02-.05c0-.02-.03-.03-.07-.04-.04 0-.05-.01-.05-.04 0-.02.02-.02.05-.02h.36c.03 0 .06 0 .06.02s-.04.03-.06.04a.62.62 0 0 0-.12.07l-.3.22-.03.04.02.04.45.56c.03.04.1.04.1.06 0 .02-.03.02-.06.02h-.28l-.04-.01-.34-.44c-.02-.03-.04-.07-.06-.07l-.1.07v.25c0 .11.05.14.13.14.02 0 .03.02.03.04s-.05.02-.1.02h-.4c-.03 0-.06 0-.06-.02s.03-.03.05-.04c.06-.02.09-.07.09-.13v-.7m1.39.09c0-.08-.01-.2-.08-.2-.06-.01-.1-.02-.1-.05 0-.02.04-.02.07-.02h.8c.03 0 .07 0 .07.03l-.01.1v.1c0 .02 0 .03-.02.03-.03 0-.04-.03-.04-.04-.01-.1-.06-.14-.26-.14h-.11c-.05 0-.06.02-.06.08v.27c0 .02.03.03.1.03.1 0 .17-.03.2-.1.02-.04.02-.04.04-.04.03 0 .03.02.03.04l-.01.14v.14c0 .02 0 .04-.03.04-.02 0-.02-.04-.04-.07-.05-.07-.1-.08-.2-.08-.08 0-.1.02-.1.06v.27c0 .11.03.13.12.13.18 0 .28-.05.34-.1s.07-.1.1-.1c.02 0 .03 0 .03.03a.44.44 0 0 1-.03.12.21.21 0 0 1-.18.13h-.69c-.05 0-.08 0-.08-.02s.04-.04.07-.05c.06-.02.07-.06.07-.15v-.58zm1.42-.12c0-.06-.04-.07-.12-.07-.17 0-.24.01-.29.17l-.03.01c-.02 0-.03 0-.03-.02v-.05l.02-.16c0-.03.02-.03.06-.03h1.04c.05 0 .05 0 .06.05l.01.16v.04l-.02.01-.03-.01c-.05-.16-.12-.17-.29-.17-.1 0-.12.02-.12.07v.72c0 .12.12.12.17.14.02.01.05 0 .05.04 0 .02-.02.02-.04.02h-.62c-.02 0-.04 0-.04-.02 0-.03.03-.03.05-.04.05-.02.17-.02.17-.14v-.72"/><path fill="#231F20" d="M26.67 15.13c0-.06-.05-.1-.11-.1h-.09v.3h.08v-.1l.09.11.06-.03-.08-.1a.1.1 0 0 0 .05-.08zm-.13-.03h.02c.03 0 .04.01.04.03 0 .02-.02.04-.04.04h-.02v-.07z"/><path fill="#231F20" d="M26.78 15.18h.02a.23.23 0 1 0-.45 0 .23.23 0 0 0 .45 0h-.04c0 .1-.08.18-.18.18a.18.18 0 1 1 .18-.18h.02z"/><path fill="url(#a)" d="M10.34 11.42h16.03v3.76H10.34z"/><path fill="url(#b)" d="M10.55 15.01h4.16v.66h-4.16z"/><path fill="url(#c)" d="M20.73 15.01h5.43v1.01h-5.43z"/></svg>