<svg width="36" height="36" fill="none" xmlns="http://www.w3.org/2000/svg"><path d="M18 0c2.837 0 5.52.656 7.907 1.825C31.884 4.753 36 10.895 36 18c0 9.942-8.058 18-18 18-9.94 0-18-8.057-18-18C0 8.06 8.06 0 18 0z" fill="#F2F4F7"/><path d="M10.73 19.644a.71.71 0 0 0 .216.258.895.895 0 0 0 .318.145c.122.033.249.05.376.049.095 0 .19-.009.284-.023.098-.015.194-.044.284-.086a.6.6 0 0 0 .22-.172.423.423 0 0 0 .087-.295.396.396 0 0 0-.116-.296.9.9 0 0 0-.305-.189 2.71 2.71 0 0 0-.428-.131c-.16-.039-.32-.08-.485-.127a4.018 4.018 0 0 1-.49-.155 1.673 1.673 0 0 1-.429-.234 1.118 1.118 0 0 1-.304-.362c-.08-.16-.12-.337-.116-.515-.005-.21.046-.418.147-.602.099-.166.23-.31.387-.423.164-.118.347-.205.542-.258.197-.053.4-.08.604-.08.227 0 .454.025.676.078.206.048.402.135.575.258.167.115.305.269.4.448.1.201.15.424.147.648h-.955a.848.848 0 0 0-.085-.333.552.552 0 0 0-.193-.206.773.773 0 0 0-.274-.108 1.69 1.69 0 0 0-.57.002.62.62 0 0 0-.217.088.516.516 0 0 0-.16.157.42.42 0 0 0-.062.238.4.4 0 0 0 .05.214.44.44 0 0 0 .198.152c.132.058.268.105.408.14l.683.175c.083.015.199.046.349.09a1.6 1.6 0 0 1 .443.212c.153.101.283.233.382.387.114.186.17.401.16.619a1.38 1.38 0 0 1-.121.573c-.08.177-.201.332-.353.454a1.688 1.688 0 0 1-.586.299 2.734 2.734 0 0 1-.808.108 2.736 2.736 0 0 1-.72-.093 1.738 1.738 0 0 1-.616-.286 1.42 1.42 0 0 1-.426-.495 1.463 1.463 0 0 1-.15-.717h.955a.837.837 0 0 0 .078.394zm4.107.315c.155.14.36.212.568.201a.808.808 0 0 0 .464-.134.552.552 0 0 0 .24-.286h.774c-.09.338-.295.634-.58.836-.282.176-.61.266-.942.258a1.887 1.887 0 0 1-.692-.122 1.43 1.43 0 0 1-.516-.35 1.567 1.567 0 0 1-.33-.54 1.985 1.985 0 0 1-.11-.694 1.957 1.957 0 0 1 .118-.681 1.593 1.593 0 0 1 .867-.906 1.69 1.69 0 0 1 .676-.131c.25-.006.498.05.722.16.204.1.38.248.516.43.135.184.233.392.29.612.059.237.08.482.064.725h-2.361a.898.898 0 0 0 .232.622zm1.009-1.71a.63.63 0 0 0-.493-.176.774.774 0 0 0-.356.072.66.66 0 0 0-.224.18.636.636 0 0 0-.122.225c-.02.07-.034.142-.041.214h1.453a1.032 1.032 0 0 0-.227-.516h.01zm1.442.24c.007-.183.061-.361.157-.517a1.1 1.1 0 0 1 .354-.335c.15-.085.311-.146.48-.178a2.71 2.71 0 0 1 .54-.054c.165 0 .33.012.495.036.159.02.314.065.459.134.13.06.242.15.33.263.094.141.14.308.132.477v1.69c-.001.142.008.283.025.424a.753.753 0 0 0 .088.302h-.905a1.08 1.08 0 0 1-.062-.315 1.19 1.19 0 0 1-.516.307 2.012 2.012 0 0 1-.594.087 1.548 1.548 0 0 1-.433-.056.955.955 0 0 1-.351-.176.832.832 0 0 1-.238-.302 1.014 1.014 0 0 1-.085-.433.95.95 0 0 1 .111-.457.826.826 0 0 1 .258-.286 1.2 1.2 0 0 1 .351-.16c.13-.03.262-.054.395-.07.134-.02.258-.036.397-.049.117-.011.232-.03.346-.057a.582.582 0 0 0 .237-.11.242.242 0 0 0 .083-.212.483.483 0 0 0-.046-.23.346.346 0 0 0-.127-.131.498.498 0 0 0-.183-.062 1.498 1.498 0 0 0-.222-.016.663.663 0 0 0-.415.114.496.496 0 0 0-.176.377l-.885-.006zm2.064.66a.392.392 0 0 1-.142.077 1.17 1.17 0 0 1-.183.05 2.244 2.244 0 0 1-.204.03l-.214.031c-.067.012-.132.03-.196.052a.58.58 0 0 0-.17.082.398.398 0 0 0-.16.343.4.4 0 0 0 .044.202.317.317 0 0 0 .118.129.517.517 0 0 0 .176.067c.069.012.139.018.209.018a.774.774 0 0 0 .408-.088.601.601 0 0 0 .299-.47c.009-.066.014-.133.015-.2v-.323zM4.318 15a2.774 2.774 0 0 1-.072 1.23l2.52 2.666L4.318 15z" fill="#084"/><path d="M23.746 20.978a1.094 1.094 0 0 1-.23.472c-.14.161-.317.287-.515.367a2.195 2.195 0 0 1-.893.152 2.136 2.136 0 0 1-.488-.06 1.645 1.645 0 0 1-.454-.185 1.096 1.096 0 0 1-.338-.325.932.932 0 0 1-.155-.475h.888a.515.515 0 0 0 .258.35c.13.067.274.1.42.096a.647.647 0 0 0 .55-.224.899.899 0 0 0 .168-.573v-.43a.885.885 0 0 1-.413.381c-.177.08-.369.122-.563.121a1.444 1.444 0 0 1-.63-.129 1.206 1.206 0 0 1-.45-.356 1.468 1.468 0 0 1-.259-.516 2.51 2.51 0 0 1-.08-.632c0-.206.031-.41.093-.606.054-.187.141-.362.258-.516a1.29 1.29 0 0 1 .439-.356c.187-.091.393-.136.601-.132a1.26 1.26 0 0 1 .563.121c.173.09.314.23.405.403v-.439h.848v3.045c.008.149 0 .299-.023.446zm-1.223-1.076a.76.76 0 0 0 .24-.201.993.993 0 0 0 .142-.287c.031-.109.047-.221.046-.335a1.82 1.82 0 0 0-.038-.382.96.96 0 0 0-.124-.317.64.64 0 0 0-.235-.22.73.73 0 0 0-.364-.082.672.672 0 0 0-.325.075.68.68 0 0 0-.224.204.89.89 0 0 0-.134.296 1.54 1.54 0 0 0-.04.349c0 .117.012.235.035.35.02.11.06.215.118.31a.625.625 0 0 0 .57.315.72.72 0 0 0 .333-.075zm2.707.062a.792.792 0 0 0 .58.196.813.813 0 0 0 .465-.134.578.578 0 0 0 .24-.286h.774a1.478 1.478 0 0 1-.578.836 1.708 1.708 0 0 1-.945.258 1.896 1.896 0 0 1-.691-.122 1.442 1.442 0 0 1-.516-.35 1.565 1.565 0 0 1-.33-.54 1.983 1.983 0 0 1-.104-.694 1.898 1.898 0 0 1 .12-.681 1.598 1.598 0 0 1 .863-.906c.211-.092.439-.14.669-.142.25-.005.5.05.725.16.203.102.38.25.516.431.13.188.224.4.276.622.06.237.08.482.062.725H25.01c-.008.228.07.45.22.622v.005zm1.011-1.71a.639.639 0 0 0-.488-.176.774.774 0 0 0-.355.072.67.67 0 0 0-.346.405 1.12 1.12 0 0 0-.042.215h1.453a1.033 1.033 0 0 0-.222-.522v.005zm2.3-.762v.45h.017c.103-.18.256-.323.441-.413a1.29 1.29 0 0 1 .545-.13c.2-.006.399.027.585.098.144.056.27.15.364.271.092.125.155.269.186.421.036.181.053.365.052.55v2.002h-.893v-1.837a1.127 1.127 0 0 0-.127-.602.487.487 0 0 0-.425-.206.614.614 0 0 0-.516.217 1.195 1.195 0 0 0-.165.715v1.705h-.914v-3.246l.85.005zm-21.99-1.548c-.406 0-.807.097-1.169.284l.736 1.166a1.682 1.682 0 1 1-.663.498l-.919-.97a2.552 2.552 0 1 0 2.015-.986v.008zm24.416 1.98a.516.516 0 1 1 .037.191.514.514 0 0 1-.037-.2v.008zm.067 0a.449.449 0 1 0 0-.008v.007zm.439.064h-.109v.235h-.077v-.594h.24a.178.178 0 0 1 .188.18.173.173 0 0 1-.15.176l.158.238h-.098l-.152-.235zm-.109-.292v.22h.163a.108.108 0 0 0 .076-.03.105.105 0 0 0 .032-.076.11.11 0 0 0-.066-.105.108.108 0 0 0-.042-.009h-.163z" fill="#231F20"/></svg>