<svg height="36" viewBox="0 0 36 36" width="36" xmlns="http://www.w3.org/2000/svg"><linearGradient id="a" x1="-.118%" x2="100.277%" y1="50%" y2="50%"><stop offset="0" stop-color="#54b6ae"/><stop offset=".1" stop-color="#54b6ae"/><stop offset=".3" stop-color="#3b98da"/><stop offset=".42" stop-color="#254a9a"/><stop offset=".55" stop-color="#ed1443"/><stop offset=".84" stop-color="#f25c19"/><stop offset="1" stop-color="#f25c19"/></linearGradient><g fill="none"><path d="M18 0c2.837 0 5.52.656 7.907 1.825C31.884 4.753 36 10.895 36 18c0 9.942-8.058 18-18 18-9.94 0-18-8.057-18-18C0 8.06 8.06 0 18 0z" fill="#f2f4f7"/><path d="M5.133 21.234c-.388-.117-.559-.192-.559-.414 0-.2.265-.27.492-.27.198 0 .412.06.556.154a.144.144 0 0 0 .207-.056l.066-.132a.144.144 0 0 0-.05-.184 1.487 1.487 0 0 0-.772-.221c-.563 0-.941.29-.941.72 0 .558.472.7.85.813.397.119.57.195.569.432 0 .237-.28.321-.54.321-.25 0-.523-.133-.688-.286a.152.152 0 0 0-.12-.043.143.143 0 0 0-.107.07l-.076.128a.143.143 0 0 0 .023.175c.245.242.614.392.964.392.59 0 .986-.306.986-.76.005-.576-.475-.722-.86-.839m2.599-1.033a.144.144 0 0 0-.13-.083h-.157a.143.143 0 0 0-.13.084l-1.1 2.425a.143.143 0 0 0 .13.203h.16a.143.143 0 0 0 .13-.085l.275-.606h1.234l.278.607c.023.05.074.083.13.083h.16a.143.143 0 0 0 .13-.203zm-.63 1.505.42-.931.425.931zm2.459-1.588h-.145a.143.143 0 0 0-.143.143v2.425c0 .08.064.143.143.143h.145c.08 0 .144-.064.144-.143v-2.425a.143.143 0 0 0-.144-.143m3.025 0h-.142a.143.143 0 0 0-.143.143v1.766l-1.361-1.85a.143.143 0 0 0-.116-.059h-.17a.143.143 0 0 0-.143.143v2.425c0 .08.064.143.143.143h.146a.143.143 0 0 0 .143-.143v-1.765l1.358 1.85c.027.037.07.058.115.058h.17c.08 0 .144-.064.144-.143v-2.425a.143.143 0 0 0-.144-.143m2.501 0h-1.783a.143.143 0 0 0-.143.143v.143c0 .079.064.143.143.143h.676v2.139c0 .08.064.143.143.143h.145c.08 0 .144-.064.144-.143v-2.14h.675c.08 0 .144-.063.144-.142v-.143a.143.143 0 0 0-.144-.143m1.067 1.322h-.774a.143.143 0 0 0-.143.143v.118c0 .08.064.143.143.143h.774a.143.143 0 0 0 .143-.143v-.118a.143.143 0 0 0-.143-.143m3.013-.087h-.565a.143.143 0 0 0-.144.143v.146c0 .08.065.143.144.143h.29v.444a1.026 1.026 0 0 1-.579.178c-.535 0-.97-.42-.97-.935 0-.514.435-.932.97-.932.249 0 .493.091.671.251a.143.143 0 0 0 .208-.017l.086-.107a.144.144 0 0 0-.017-.198 1.437 1.437 0 0 0-.948-.355c-.773 0-1.402.61-1.402 1.358 0 .75.626 1.36 1.395 1.36.348 0 .696-.127.954-.35a.144.144 0 0 0 .05-.108v-.878a.144.144 0 0 0-.143-.143m2.033-1.239c-.772 0-1.4.61-1.4 1.358 0 .75.628 1.36 1.4 1.36.77 0 1.399-.61 1.399-1.36 0-.749-.628-1.358-1.4-1.358m0 2.29c-.53 0-.963-.418-.963-.932 0-.512.432-.929.963-.929.531 0 .964.417.964.929 0 .514-.433.932-.964.932m3.696-1.007a.683.683 0 0 0 .227-.536c0-.458-.345-.743-.9-.743h-.992a.143.143 0 0 0-.143.143v2.425c0 .08.064.143.143.143h.999c.635 0 1.014-.297 1.014-.795a.71.71 0 0 0-.348-.637m-.677-.18h-.7v-.67h.7c.215 0 .471.057.471.332 0 .224-.158.339-.47.339m-.7.428h.7c.22 0 .592.048.592.37 0 .318-.322.384-.593.384h-.7zm3.484-1.445a.144.144 0 0 0-.13-.083h-.157a.143.143 0 0 0-.13.084l-1.1 2.425a.143.143 0 0 0 .13.202h.16a.143.143 0 0 0 .13-.084l.275-.606h1.234l.277.607c.024.05.075.083.13.083h.16a.143.143 0 0 0 .13-.203zm-.63 1.505.42-.931.425.931zm2.459-1.588h-.146a.144.144 0 0 0-.143.143v2.425c0 .08.064.143.143.143h.146a.144.144 0 0 0 .144-.143v-2.425a.144.144 0 0 0-.144-.143m3.025 0h-.143a.143.143 0 0 0-.143.143v1.766l-1.36-1.85a.143.143 0 0 0-.116-.059h-.17a.143.143 0 0 0-.144.143v2.425c0 .08.064.143.144.143h.145c.08 0 .143-.064.143-.143v-1.765l1.358 1.85c.027.037.07.058.116.058h.17a.143.143 0 0 0 .143-.143v-2.425a.143.143 0 0 0-.143-.143" fill="#254a9a"/><path d="M12.191 2.822V.438h-.439V3.15zM20.7.446h-1.727l-.012.012-1.519 1.502a.218.218 0 0 1-.372-.155V.437h-.451v3.381a.22.22 0 0 1-.069.16l-1.261 1.19a.218.218 0 0 1-.15.06h-.63a.219.219 0 0 1-.22-.218V.438h-.447v7.341c0 .09-.054.169-.136.202a.222.222 0 0 1-.238-.048l-2.09-2.12a.217.217 0 0 1-.063-.154V4.021l-.855.64a.224.224 0 0 1-.268-.005l-1.945-1.56a.218.218 0 0 1-.081-.17V.438h-.441v1.371c0 .482-.332.993-.946.993-.614 0-.946-.514-.946-.998V.438h-.446v.93c0 .377-.26.778-.74.778s-.74-.401-.74-.779v-.93h-.445V.48l-.001.524c0 .32-.303.6-.647.6-.345 0-.648-.279-.648-.598V.438H.22a.219.219 0 0 1 0-.437h2.166a.217.217 0 0 1 .219.218v.747c0 .08.088.2.21.2.12 0 .21-.11.21-.207l.002-.741A.22.22 0 0 1 3.244 0h.88a.22.22 0 0 1 .22.22v1.147c0 .119.063.342.303.342s.303-.223.303-.34V.218c0-.12.098-.218.219-.218h.883a.22.22 0 0 1 .218.218v1.585c0 .194.107.561.509.561.373 0 .509-.332.509-.556V.22c0-.12.098-.218.218-.218h.878c.12 0 .218.098.218.218v2.602l.016.012 1.716 1.376.981-.733V.219c0-.12.098-.218.219-.218h.876c.12 0 .218.098.218.218v2.712a.22.22 0 0 1-.087.175l-.789.589V5.57l.012.012 1.64 1.664V.22a.22.22 0 0 1 .22-.218h.884a.22.22 0 0 1 .219.218v4.573h.325l.012-.011 1.118-1.056V.22c0-.12.098-.218.218-.218h.889c.12 0 .218.098.218.218v1.062L18.73.07a.218.218 0 0 1 .153-.062H20.7a.219.219 0 0 1 0 .437" fill="url(#a)" transform="matrix(1 0 0 -1 7.549 19.135)"/></g></svg>