<svg width="36" height="36" fill="none" xmlns="http://www.w3.org/2000/svg"><path d="M18 0c2.837 0 5.52.656 7.907 1.825C31.884 4.753 36 10.895 36 18c0 9.942-8.058 18-18 18-9.94 0-18-8.057-18-18C0 8.06 8.06 0 18 0z" fill="#F2F4F7"/><path d="M14.7 16.784c-.248-.117-.514-.164-.873-.164-.668 0-1.126.392-1.126.854 0 .392.21.668.635.86l.374.158c.387.163.495.308.495.55 0 .234-.22.421-.603.421-.298 0-.588-.075-.84-.2l-.159.387c.29.135.635.205 1.023.205.644 0 1.148-.364 1.148-.905 0-.43-.205-.696-.686-.901l-.313-.14c-.415-.173-.509-.309-.509-.514 0-.224.197-.383.589-.383.27 0 .513.066.69.154l.155-.383zm1.769 1.213v-.36h-.682c0-.205.01-.438.038-.667l-.547.117c.01.196.01.34.01.55h-.364v.36h.36c0 .364-.02.794-.02 1.125 0 .476.285.733.663.733.262 0 .5-.065.659-.182l-.112-.303a.632.632 0 0 1-.37.098c-.153 0-.303-.098-.317-.308-.028-.3-.01-.738-.01-1.158h.692" fill="#232856"/><path fill-rule="evenodd" clip-rule="evenodd" d="M18.504 18.72c0 .468-.22.79-.602.79-.383 0-.598-.327-.598-.79 0-.466.22-.788.598-.788.383 0 .602.322.602.789zm-1.746.029c0 .653.434 1.106 1.144 1.106.681 0 1.153-.513 1.153-1.157 0-.65-.453-1.112-1.153-1.112-.682 0-1.144.51-1.144 1.163z" fill="#232856"/><path d="M20.512 17.95c.186 0 .364.043.504.108l.126-.355a1.71 1.71 0 0 0-.677-.117c-.672 0-1.167.495-1.167 1.126 0 .756.476 1.143 1.074 1.143.322 0 .569-.07.793-.224l-.121-.322a.884.884 0 0 1-.514.154c-.397 0-.69-.252-.69-.803 0-.439.247-.71.672-.71zm1.54 1.854a31.754 31.754 0 0 1-.023-1.092c.275.354.737.858 1.05 1.176l.542-.206a12.09 12.09 0 0 1-1.079-1.106c.29-.28.742-.686 1.008-.938h-.592c-.21.228-.65.663-.925.933 0-.966.005-1.437.024-2.1h-.56c.023.663.027 1.045.027 1.722 0 .63-.004.99-.027 1.61h.555zm2.362-1.611c0-.672.005-1.055.028-1.722h-.56c.023.663.028 1.045.028 1.722 0 .63-.005.99-.028 1.61h.56a36.87 36.87 0 0 1-.028-1.61z" fill="#232856"/><path fill-rule="evenodd" clip-rule="evenodd" d="M25.343 18.674c0-.486.308-.752.663-.752a.84.84 0 0 1 .378.075 10 10 0 0 1 .014.635c0 .173-.005.369-.014.504-.14.224-.313.308-.504.308-.308.005-.537-.233-.537-.77zm1.564 0c0-.453.005-.686.037-1.125l-.373.112a1.666 1.666 0 0 0-.546-.08c-.673 0-1.223.481-1.223 1.196 0 .695.401 1.073.845 1.073a.842.842 0 0 0 .742-.401l.042.355h.509c-.033-.472-.033-.668-.033-1.13z" fill="#232856"/><path d="M27.99 17.638h-.509c.023.443.028.648.028 1.092 0 .415-.005.663-.028 1.074h.56c-.018-.318-.023-.5-.023-.813 0-.247.005-.518.023-.695.131-.206.313-.304.5-.304.229 0 .378.14.397.425a13.05 13.05 0 0 1-.01 1.387h.556c-.024-.294-.024-.453-.024-.743 0-.238.014-.406.014-.69 0-.5-.289-.79-.71-.79-.316 0-.555.136-.732.407l-.042-.35z" fill="#232856"/><path fill-rule="evenodd" clip-rule="evenodd" d="M30.413 18.674c0-.485.313-.752.667-.752.16 0 .271.024.383.075.005.136.01.383.01.635 0 .173-.005.369-.014.504-.14.224-.313.308-.505.308-.308.005-.541-.233-.541-.77zm1.036-2.203c.019.439.028.78.028 1.157a1.41 1.41 0 0 0-.378-.042c-.672 0-1.223.481-1.223 1.196 0 .695.401 1.073.84 1.073a.842.842 0 0 0 .742-.401l.038.354H32c-.023-.62-.028-.985-.028-1.61 0-.672 0-1.055.028-1.723h-.55v-.004z" fill="#232856"/><path d="M4 21.489h6.489V15H4v6.489zm3.081-5.443a1.553 1.553 0 0 0-1.414 1.559c0 .822.625 1.494 1.414 1.56v.251a1.797 1.797 0 0 1-1.639-1.522v.014c0 .948.724 1.723 1.644 1.788v.327a2.1 2.1 0 0 1-1.9-1.587 2.042 2.042 0 0 0 1.9 1.862v.397c-1.28-.065-2.297-1.139-2.297-2.455a2.437 2.437 0 0 1 2.292-2.451v.257zm.322 4.654v-.252a1.553 1.553 0 0 0 1.415-1.56c0-.821-.621-1.493-1.415-1.559v-.252c.836.061 1.513.7 1.643 1.522v-.014c0-.948-.723-1.722-1.643-1.788v-.326a2.1 2.1 0 0 1 1.9 1.587 2.042 2.042 0 0 0-1.9-1.863v-.397c1.28.066 2.297 1.14 2.297 2.456 0 1.307-1.013 2.38-2.297 2.446z" fill="#232856"/></svg>