<svg width="36" height="36" fill="none" xmlns="http://www.w3.org/2000/svg"><path d="M18 0c2.837 0 5.52.656 7.907 1.825C31.884 4.753 36 10.895 36 18c0 9.942-8.058 18-18 18-9.94 0-18-8.057-18-18C0 8.06 8.06 0 18 0z" fill="#F2F4F7"/><path d="M26.424 16.422a2.153 2.153 0 1 0 4.306 0 2.153 2.153 0 0 0-4.306 0zm-1.27 0a3.422 3.422 0 1 1 6.845 0 3.422 3.422 0 0 1-6.845 0z" fill="#CC171E"/><path d="M6.356 13c-1.504 0-2.317.92-2.317 1.898 0 .526.24.88.406 1.073.323.378.75.57 1.139.746l.419.17c.452.185 1.008.415 1.008 1.06 0 .444-.343.996-1.257.996-.627 0-1.238-.238-1.754-.59v1.126c.766.305 1.43.367 1.846.367 1.531 0 2.447-.891 2.447-1.99a1.7 1.7 0 0 0-.366-1.073c-.295-.379-.722-.571-1.1-.746l-.458-.197c-.48-.194-1.073-.456-1.073-1.047 0-.406.308-.903 1.139-.903a2.4 2.4 0 0 1 1.531.55v-1.1a3.934 3.934 0 0 0-1.61-.34zm10.655 0c-2.332 0-3.783 1.545-3.783 3.456 0 2.012 1.446 3.39 3.613 3.39.875 0 1.739-.218 2.526-.615l.052-2.946h-2.303l-.537.89h1.662l-.026 1.493c-.194.101-.574.3-1.256.3-1.503 0-2.461-1.122-2.461-2.526 0-1.485 1.088-2.526 2.591-2.526.931 0 1.6.378 1.925.563v-1.126c-.668-.221-1.302-.353-2.003-.353zm-8.024.17v6.506h3.704l.537-.93h-3.037v-2.002h2.252v-.917H10.19v-1.74h2.618v-.917H8.987zm11.257 0v6.506h1.204v-2.788c.554 0 .617-.002.995-.04l1.728 2.828h1.348l-1.898-3.09c.286-.165 1.034-.593 1.034-1.636 0-.674-.374-1.461-1.361-1.701-.314-.074-.621-.079-.916-.079h-2.134zm1.204.877h.812c.618 0 1.165.258 1.165.969 0 .47-.27.884-.851.995a3.993 3.993 0 0 1-.615.065h-.51v-2.029zM4.55 20.88c-.332 0-.537.204-.537.445a.4.4 0 0 0 .092.262.683.683 0 0 0 .275.183l.104.04c.08.031.17.08.223.143a.246.246 0 0 1 .065.157c0 .134-.112.301-.353.301A.815.815 0 0 1 4 22.267v.223c.054.022.217.078.419.078.357 0 .576-.207.576-.47 0-.273-.219-.375-.367-.446l-.104-.04c-.126-.051-.288-.125-.288-.3 0-.125.096-.262.314-.262a.58.58 0 0 1 .366.13v-.209a.898.898 0 0 0-.366-.091zm2.683 0c-.52 0-.838.425-.838.864 0 .455.317.824.838.824.502 0 .838-.38.838-.85a.815.815 0 0 0-.838-.838zm3.783 0c-.548 0-.93.364-.93.85 0 .494.363.838.89.838.31 0 .508-.1.59-.144l.013-.693h-.537l-.118.17h.445l-.013.419c-.04.022-.08.045-.196.065-.057.011-.113.026-.17.026a.66.66 0 0 1-.68-.68c0-.4.288-.681.693-.681.227 0 .401.094.497.144v-.223a1.416 1.416 0 0 0-.484-.091zm5.118 0c-.332 0-.537.204-.537.445 0 .093.029.187.092.262a.686.686 0 0 0 .275.183l.104.04c.08.031.17.08.223.143a.246.246 0 0 1 .065.157c0 .134-.112.301-.353.301a.814.814 0 0 1-.419-.144v.223c.055.022.217.078.419.078.357 0 .576-.207.576-.47 0-.273-.205-.375-.354-.446l-.117-.04c-.126-.051-.288-.125-.288-.3 0-.125.096-.262.314-.262a.58.58 0 0 1 .366.13v-.209a.898.898 0 0 0-.366-.091zm6.217 0c-.331 0-.523.204-.523.445a.4.4 0 0 0 .091.262.682.682 0 0 0 .275.183l.105.04c.08.031.17.08.223.143a.237.237 0 0 1 .052.157c0 .134-.1.301-.34.301a.814.814 0 0 1-.42-.144v.223c.055.022.218.078.42.078.357 0 .575-.207.575-.47 0-.273-.218-.375-.366-.446l-.105-.04c-.125-.051-.3-.125-.3-.3 0-.125.108-.262.326-.262.191 0 .307.086.367.13v-.209a.96.96 0 0 0-.38-.091zm2.356 0c-.548 0-.929.364-.929.85 0 .494.362.838.89.838.31 0 .508-.1.59-.144l.025-.693h-.55l-.117.17h.458l-.013.419a.625.625 0 0 1-.21.065c-.057.011-.113.026-.17.026a.66.66 0 0 1-.68-.68c0-.4.302-.681.706-.681.228 0 .39.094.485.144v-.223a1.414 1.414 0 0 0-.485-.091zm3.168 0c-.52 0-.838.425-.838.864 0 .455.317.824.838.824.502 0 .838-.38.838-.85a.815.815 0 0 0-.838-.838zm-22.527.052v1.597h.903l.092-.157h-.785v-1.44h-.21zm3.063 0v.982c0 .168.026.356.183.497.13.117.305.157.485.157.2 0 .433-.064.563-.261a.605.605 0 0 0 .091-.367v-1.008h-.21v.903c0 .14.003.243-.039.34-.068.16-.228.236-.405.236-.225 0-.371-.128-.42-.262-.028-.09-.025-.214-.025-.314v-.903H8.41zm3.56 0v1.597h.21v-.772h.877v.772h.21v-1.597h-.21v.668h-.877v-.668h-.21zm2.409 0v1.597h.903l.092-.157h-.786v-.602h.602v-.17h-.602v-.51h.694v-.158h-.903zm2.304 0v.157h.51v1.44h.21v-1.44h.51v-.157h-1.23zm1.767 0-.655 1.597h.21l.183-.458h.68l.17.458h.223l-.615-1.597h-.196zm.693 0v.157h.524v1.44h.196v-1.44h.51v-.157h-1.23zm1.466 0v1.597h.89l.105-.157h-.785v-.602h.602v-.17h-.602v-.51h.68v-.158h-.89zm5.053 0v1.597h.21v-.694c.182.003.261-.008.3-.013l.432.707h.25l-.472-.76c.084-.05.262-.154.262-.405a.429.429 0 0 0-.157-.327c-.13-.107-.284-.102-.393-.105h-.432zm3.403 0v.982c0 .168.013.356.17.497.13.117.305.157.485.157.2 0 .432-.064.563-.261a.61.61 0 0 0 .091-.367v-1.008h-.21v.903c0 .14.003.243-.039.34-.068.16-.228.236-.405.236-.225 0-.371-.128-.42-.262-.028-.09-.025-.214-.025-.314v-.903h-.21zm1.78 0v1.597h.21v-.68h.078c.132 0 .324 0 .471-.092a.474.474 0 0 0 .223-.393.447.447 0 0 0-.262-.393c-.093-.043-.161-.039-.261-.039h-.459zM7.22 21.05c.343 0 .615.27.615.668 0 .35-.22.693-.602.693-.386 0-.615-.314-.615-.68 0-.39.25-.681.602-.681zm20.655 0c.343 0 .615.27.615.668 0 .35-.22.693-.602.693-.386 0-.628-.314-.628-.68 0-.39.262-.681.615-.681zm-2.003.04h.144c.12 0 .222-.005.301.052a.266.266 0 0 1 .105.222.292.292 0 0 1-.13.249c-.083.054-.19.052-.236.052-.034 0-.06.002-.079 0l-.105.144v-.72zm5.184 0h.222c.162 0 .328.058.328.274a.326.326 0 0 1-.144.262c-.105.068-.244.055-.302.052l-.104.144v-.733zm-12.527.065c.016.052.018.066.026.091l.25.668h-.55l.248-.668c.011-.027.013-.046.026-.091z" fill="#000"/></svg>