<svg width="36" height="36" fill="none" xmlns="http://www.w3.org/2000/svg"><path d="M18 0c2.837 0 5.52.656 7.907 1.825C31.884 4.753 36 10.895 36 18c0 9.942-8.058 18-18 18-9.94 0-18-8.057-18-18C0 8.06 8.06 0 18 0z" fill="#F2F4F7"/><path d="M11.657 22.198c-1.217-.374-1.462-1.424-1.388-2.587h1.759c0 .803.035 1.476 1 1.476.594 0 .885-.383.885-.953 0-1.51-3.538-1.604-3.538-4.1 0-1.312.628-2.358 2.77-2.358 1.712 0 2.562.766 2.446 2.52h-1.712c0-.628-.104-1.265-.816-1.265-.568 0-.907.313-.907.893 0 1.592 3.539 1.453 3.539 4.09 0 1.453-.714 2.048-1.586 2.284h-2.452zm8.316-5.804c.012-.779-.116-1.463-1.048-1.463-1.094 0-1.094 1.475-1.094 3.101 0 2.625.257 3.09 1.257 3.09.292 0 .606-.07.873-.163V19.1h-.954v-1.289h2.713v4.252c-.188.036-.481.087-.813.135h-3.009c-1.63-.406-1.849-1.696-1.849-4.258 0-2.116.106-4.265 2.98-4.265 1.725 0 2.795.965 2.69 2.719h-1.746zm5.067-2.719c1.537-.003 2.377.598 2.493 1.947v.574H25.82c.002-.612-.151-1.266-.863-1.266-.57 0-.909.314-.909.894 0 1.472 3.025 1.464 3.484 3.537v1.215c-.188.98-.803 1.426-1.529 1.622h-2.452c-1.217-.374-1.461-1.425-1.388-2.587h1.76c0 .803.034 1.476 1 1.476.593 0 .884-.383.884-.953 0-1.51-3.54-1.604-3.54-4.1 0-1.313.63-2.354 2.772-2.359z" fill="#76777A"/><path d="M5 22.4h26v-.202H5v.202z" fill="#F69138"/><path d="M27.533 24.133h.202V12h-.202v12.133z" fill="#F69138"/></svg>