<svg width="36" height="36" fill="none" xmlns="http://www.w3.org/2000/svg"><path d="M18 0c2.837 0 5.52.656 7.907 1.825C31.884 4.753 36 10.895 36 18c0 9.942-8.058 18-18 18-9.94 0-18-8.057-18-18C0 8.06 8.06 0 18 0z" fill="#F2F4F7"/><path d="M4.642 17.001v1.121h1.182v-1.12h.642v2.92h-.642v-1.26H4.642v1.26H4v-2.92h.642zm2.243 1.116a.698.698 0 0 1 .229-.217.998.998 0 0 1 .313-.117c.115-.023.232-.035.35-.035.105 0 .213.008.322.023a.988.988 0 0 1 .298.088c.09.044.164.104.221.182a.51.51 0 0 1 .086.31v1.375c.005.108.005.112.025.196H8.17c-.012-.047-.01-.049-.016-.085-.005-.034-.005-.084-.008-.12a.755.755 0 0 1-.327.201 1.313 1.313 0 0 1-.384.057c-.1 0-.194-.012-.281-.036a.645.645 0 0 1-.23-.115.533.533 0 0 1-.153-.197.666.666 0 0 1-.055-.282c0-.12.021-.22.064-.297a.531.531 0 0 1 .163-.187.732.732 0 0 1 .229-.104 2.31 2.31 0 0 1 .26-.055 3.93 3.93 0 0 1 .257-.033c.084-.008.16-.02.225-.037a.39.39 0 0 0 .155-.072c.038-.031.056-.077.053-.137a.31.31 0 0 0-.03-.15.224.224 0 0 0-.082-.085.319.319 0 0 0-.118-.041.963.963 0 0 0-.145-.01.435.435 0 0 0-.268.073c-.065.05-.103.132-.114.247h-.582a.678.678 0 0 1 .102-.34zm1.145.821a.919.919 0 0 1-.118.031 1.886 1.886 0 0 1-.133.02 2.446 2.446 0 0 0-.138.02 1.032 1.032 0 0 0-.129.034.381.381 0 0 0-.11.055.263.263 0 0 0-.075.088.284.284 0 0 0-.029.135c0 .051.01.095.029.13a.219.219 0 0 0 .077.084.33.33 0 0 0 .114.043.725.725 0 0 0 .135.013.51.51 0 0 0 .265-.058.381.381 0 0 0 .139-.137.439.439 0 0 0 .055-.161c.007-.055.01-.098.01-.131v-.217a.262.262 0 0 1-.092.051zm13.304-.821a.697.697 0 0 1 .23-.217.998.998 0 0 1 .312-.117c.115-.023.232-.035.35-.035.105 0 .213.008.322.023a.989.989 0 0 1 .298.088c.09.044.164.104.221.182a.51.51 0 0 1 .086.31v1.375c.005.108.005.112.024.196h-.558c-.012-.047-.01-.049-.016-.085-.005-.034-.005-.084-.008-.12a.755.755 0 0 1-.326.201 1.313 1.313 0 0 1-.385.057c-.1 0-.194-.012-.282-.036a.645.645 0 0 1-.228-.115.533.533 0 0 1-.153-.197.665.665 0 0 1-.056-.282c0-.12.021-.22.064-.297a.53.53 0 0 1 .163-.187.732.732 0 0 1 .229-.104 2.45 2.45 0 0 1 .26-.055 3.93 3.93 0 0 1 .257-.033c.084-.008.16-.02.225-.037a.39.39 0 0 0 .155-.072c.038-.031.056-.077.053-.137a.31.31 0 0 0-.03-.15.224.224 0 0 0-.082-.085.318.318 0 0 0-.118-.041.962.962 0 0 0-.145-.01.435.435 0 0 0-.268.073c-.065.05-.104.132-.114.247h-.582a.678.678 0 0 1 .102-.34zm1.145.821a.919.919 0 0 1-.118.031 1.888 1.888 0 0 1-.133.02 2.47 2.47 0 0 0-.138.02 1.038 1.038 0 0 0-.129.034.38.38 0 0 0-.11.055.262.262 0 0 0-.075.088.284.284 0 0 0-.029.135c0 .051.01.095.029.13a.22.22 0 0 0 .077.084.33.33 0 0 0 .114.043.724.724 0 0 0 .135.013.51.51 0 0 0 .265-.058.38.38 0 0 0 .139-.137.437.437 0 0 0 .055-.161c.007-.055.01-.098.01-.131v-.217a.26.26 0 0 1-.092.051zM9.567 17.806v.243h.012a.69.69 0 0 1 .277-.227.881.881 0 0 1 .37-.072.99.99 0 0 1 .383.063c.1.042.178.1.235.176a.68.68 0 0 1 .12.274c.024.108.036.227.036.358v1.3h-.582v-1.194c0-.175-.027-.305-.082-.391-.055-.086-.152-.129-.291-.129-.159 0-.274.047-.345.141-.07.094-.106.25-.106.465v1.109h-.579v-2.116h.552zm14.447 0v.243h.012a.69.69 0 0 1 .278-.227.881.881 0 0 1 .369-.072.98.98 0 0 1 .383.063c.1.042.178.1.235.176a.679.679 0 0 1 .121.274c.023.108.035.227.035.358v1.3h-.582v-1.194c0-.175-.027-.305-.082-.391-.055-.086-.152-.129-.291-.129-.159 0-.273.047-.344.141-.071.094-.107.25-.107.465v1.109h-.579v-2.116h.552zm6.553 0v.243h.012a.69.69 0 0 1 .278-.227.881.881 0 0 1 .369-.072c.156 0 .283.02.383.063.1.042.178.1.235.176a.679.679 0 0 1 .121.274c.023.108.035.227.035.358v1.3h-.582v-1.194c0-.175-.027-.305-.082-.391-.054-.086-.151-.129-.29-.129-.16 0-.274.047-.345.141-.071.094-.107.25-.107.465v1.109h-.579v-2.116h.552zM14.3 19.416c.087.085.213.127.377.127a.52.52 0 0 0 .302-.088c.085-.06.137-.122.156-.188h.51c-.08.255-.206.436-.375.546-.17.109-.374.163-.614.163-.166 0-.316-.026-.45-.08a.937.937 0 0 1-.34-.227 1.022 1.022 0 0 1-.215-.352 1.287 1.287 0 0 1-.076-.45c0-.158.026-.306.078-.442a1.036 1.036 0 0 1 .563-.59c.133-.057.28-.085.44-.085a.94.94 0 0 1 .8.385c.086.117.148.25.186.4.038.151.052.308.04.472h-1.525c.008.188.056.325.143.41zm.657-1.115c-.07-.077-.176-.115-.317-.115a.505.505 0 0 0-.231.047.44.44 0 0 0-.225.265.663.663 0 0 0-.027.14h.945a.674.674 0 0 0-.145-.337zm1.527-1.3v2.92h-.582v-2.92h.582zm.823 2.397c.026.045.06.082.1.11.041.029.088.05.142.063a.667.667 0 0 0 .295.006.44.44 0 0 0 .122-.045.28.28 0 0 0 .092-.081.214.214 0 0 0 .038-.13c0-.087-.059-.152-.174-.196a3.475 3.475 0 0 0-.485-.131 2.868 2.868 0 0 1-.248-.067.847.847 0 0 1-.215-.103.451.451 0 0 1-.209-.395c0-.136.027-.248.08-.336a.59.59 0 0 1 .21-.206.922.922 0 0 1 .296-.107 1.814 1.814 0 0 1 .669.002.882.882 0 0 1 .288.11.675.675 0 0 1 .211.208c.056.086.09.194.1.325h-.55c-.009-.112-.051-.188-.128-.228a.578.578 0 0 0-.27-.06 1.03 1.03 0 0 0-.107.006.353.353 0 0 0-.104.027.215.215 0 0 0-.08.06.157.157 0 0 0-.033.104.16.16 0 0 0 .057.127c.038.033.088.06.15.08.061.02.131.039.21.055.08.016.16.034.242.053.085.02.167.043.248.07.08.027.152.063.214.108a.525.525 0 0 1 .152.168c.038.067.057.15.057.248 0 .14-.028.256-.084.35a.672.672 0 0 1-.219.228.898.898 0 0 1-.309.12 1.816 1.816 0 0 1-.714-.001.953.953 0 0 1-.313-.123.7.7 0 0 1-.225-.227.708.708 0 0 1-.096-.353h.551c0 .063.013.116.04.161zm9.031-2.397v1.567l.733-.76h.687l-.798.776.888 1.338h-.704l-.58-.945-.226.217v.728h-.581v-2.92h.581z" fill="#005FA0"/><path d="M28.422 19.416c.087.085.213.127.376.127.117 0 .218-.03.303-.088.084-.06.136-.122.155-.188h.512c-.082.255-.208.436-.377.546a1.106 1.106 0 0 1-.613.163c-.167 0-.317-.026-.45-.08a.938.938 0 0 1-.34-.227 1.024 1.024 0 0 1-.215-.352 1.29 1.29 0 0 1-.076-.45c0-.158.026-.306.078-.442a1.037 1.037 0 0 1 1.003-.675.94.94 0 0 1 .8.385c.085.117.147.25.185.4.039.151.052.308.041.472H28.28c.008.188.056.325.143.41zm.656-1.115c-.07-.077-.175-.115-.317-.115a.505.505 0 0 0-.23.047.44.44 0 0 0-.226.265.67.67 0 0 0-.026.14h.945a.675.675 0 0 0-.146-.337zM12.777 17v1.021h-.006a.641.641 0 0 0-.266-.202.86.86 0 0 0-.36-.07.871.871 0 0 0-.41.091.878.878 0 0 0-.292.244 1.07 1.07 0 0 0-.176.35 1.523 1.523 0 0 0 0 .837c.039.137.098.258.175.363a.838.838 0 0 0 .297.25c.12.06.259.09.417.091a.984.984 0 0 0 .356-.059.619.619 0 0 0 .286-.216h.008v.222h.552V17h-.581zm-.51 2.55c-.384 0-.545-.357-.545-.688 0-.348.14-.686.545-.686.401 0 .532.338.532.682 0 .348-.123.691-.532.691zM18.898 17v2.922h.552V19.7h.008a.62.62 0 0 0 .286.216c.112.046.253.06.356.06a.909.909 0 0 0 .417-.093.837.837 0 0 0 .297-.25c.077-.105.136-.225.175-.362a1.523 1.523 0 0 0 0-.837 1.069 1.069 0 0 0-.176-.35.877.877 0 0 0-.292-.244.87.87 0 0 0-.41-.092.858.858 0 0 0-.36.07.64.64 0 0 0-.266.203h-.006V17h-.581zm.56 1.858c0-.344.13-.682.53-.682.406 0 .546.338.546.686 0 .331-.161.687-.545.687-.41 0-.532-.343-.532-.691z" fill="#005FA0"/></svg>