<svg height="36" viewBox="0 0 36 36" width="36" xmlns="http://www.w3.org/2000/svg"><g fill="none"><path d="M18 0c2.837 0 5.52.656 7.907 1.825C31.884 4.753 36 10.895 36 18c0 9.942-8.058 18-18 18-9.94 0-18-8.057-18-18C0 8.06 8.06 0 18 0z" fill="#f2f4f7"/><path d="M25.517 10.115a.22.22 0 0 0-.198-.185l-1.831-.136-1.348-1.339c-.133-.133-.393-.093-.494-.063l-.68.21c-.405-1.167-1.121-2.24-2.38-2.24-.035 0-.07.002-.107.004-.358-.474-.801-.68-1.185-.68-2.933 0-4.334 3.667-4.774 5.53l-2.053.637c-.636.2-.656.22-.74.82C9.666 13.126 8 26 8 26l12.972 2.43L28 26.91l-2.483-16.795zM20.25 8.824l-1.097.34v-.237c0-.726-.1-1.31-.262-1.773.649.082 1.081.82 1.36 1.67zm-2.164-1.526c.18.452.298 1.1.298 1.976v.127l-2.268.702c.437-1.684 1.255-2.498 1.97-2.805zm-.871-.825c.126 0 .254.043.376.127-.94.443-1.948 1.557-2.373 3.782l-1.792.554c.498-1.697 1.682-4.463 3.789-4.463z" fill="#95bf46"/><path d="m25.319 9.93-1.831-.136-1.348-1.339a.333.333 0 0 0-.187-.086l-.98 20.061L28 26.91l-2.483-16.795a.22.22 0 0 0-.198-.185" fill="#5e8e3e"/><path d="m18.586 13.814-.867 2.578s-.76-.406-1.69-.406c-1.365 0-1.433.857-1.433 1.073 0 1.177 3.069 1.628 3.069 4.386 0 2.17-1.376 3.567-3.232 3.567-2.227 0-3.365-1.386-3.365-1.386l.596-1.97s1.17 1.005 2.158 1.005c.646 0 .908-.508.908-.88 0-1.535-2.518-1.604-2.518-4.127 0-2.124 1.525-4.18 4.602-4.18 1.186 0 1.772.34 1.772.34" fill="#fff"/></g></svg>