<svg width="36" height="36" fill="none" xmlns="http://www.w3.org/2000/svg"><path d="M18 0c2.837 0 5.52.656 7.907 1.825C31.884 4.753 36 10.895 36 18c0 9.942-8.058 18-18 18-9.94 0-18-8.057-18-18C0 8.06 8.06 0 18 0z" fill="#F2F4F7"/><g fill-rule="evenodd" clip-rule="evenodd"><path d="M17.235 12H31v.258H17.235V12zm-5.582 4.6a.536.536 0 0 1-.535-.537v-.46c0-.296.24-.536.535-.536h3.517c.296 0 .536.24.536.537v.459c0 .296-.24.537-.536.537h-3.517zM8.54 19.667a.533.533 0 0 1-.466-.268l-1.19-2.06a.218.218 0 0 1 .154-.325l.94-.147a.492.492 0 0 1 .506.244l.542.947a.154.154 0 0 0 .133.076h2.464c.057 0 .106-.03.133-.076l.542-.947a.492.492 0 0 1 .506-.244l.94.146a.218.218 0 0 1 .155.325l-1.19 2.061a.533.533 0 0 1-.467.268H8.54zM8.52 12a.533.533 0 0 0-.466.268l-1.19 2.1a.218.218 0 0 0 .154.325l.94.146a.493.493 0 0 0 .506-.245l.542-.985a.154.154 0 0 1 .133-.076h2.464c.057 0 .106.03.133.076l.542.986a.493.493 0 0 0 .506.244l.94-.146a.218.218 0 0 0 .155-.326l-1.19-2.099a.533.533 0 0 0-.467-.268H8.52zm-2.984 4.6A.536.536 0 0 1 5 16.064v-.46c0-.297.24-.537.536-.537h3.517c.295 0 .535.24.535.537v.46c0 .296-.24.537-.535.537H5.536zm11.7 2.81h13.763v.257H17.235v-.258z" fill="#00529C"/><path d="M6.626 23.315c.125 0 .165-.124.165-.229 0-.105-.04-.231-.165-.231-.126 0-.164.126-.164.231 0 .105.038.23.164.23zm0-.668c.256 0 .435.19.435.439 0 .248-.18.437-.435.437a.421.421 0 0 1-.435-.437c0-.249.179-.439.435-.439zm.577.024h.262v.114h.003a.275.275 0 0 1 .237-.138c.104 0 .196.034.24.134a.303.303 0 0 1 .258-.134c.263 0 .291.2.291.358v.494h-.27v-.486c0-.09-.043-.142-.113-.142-.116 0-.127.09-.127.223v.405h-.27v-.47c0-.098-.03-.158-.102-.158-.097 0-.139.056-.139.224v.404h-.27v-.828zm1.734.405c0 .146.04.24.163.24.121 0 .162-.127.162-.24 0-.105-.04-.221-.16-.221-.073 0-.165.05-.165.221zm-.261-.405h.257v.096h.004a.263.263 0 0 1 .227-.12c.259 0 .369.224.369.457 0 .215-.115.419-.349.419a.276.276 0 0 1-.235-.113h-.003v.366h-.27v-1.105zm1.34.684c.13 0 .172-.073.166-.244-.038.024-.108.029-.167.045-.06.014-.112.04-.112.105 0 .067.053.094.113.094zm-.35-.428a.255.255 0 0 1 .13-.222.546.546 0 0 1 .262-.058c.195 0 .385.043.385.278v.362c0 .07 0 .146.031.212h-.272a.337.337 0 0 1-.016-.078.372.372 0 0 1-.271.102c-.158 0-.282-.08-.282-.25 0-.27.293-.25.48-.287.047-.01.072-.026.072-.077 0-.062-.075-.086-.13-.086-.075 0-.123.033-.136.104h-.253zm.955-.256h.262v.114h.003a.312.312 0 0 1 .26-.138c.275 0 .297.201.297.32v.532h-.27v-.4c0-.113.012-.228-.136-.228-.101 0-.146.086-.146.177v.45h-.27v-.827zm1.002-.31h.27v.424h.003c.042-.085.153-.138.252-.138.275 0 .297.201.297.32v.532h-.27v-.4c0-.113.012-.228-.136-.228-.101 0-.146.086-.146.177v.45h-.27V22.36zm1.011.31h.27v.828h-.27v-.828zm0-.31h.27v.207h-.27v-.208zm.8.994c.129 0 .172-.073.166-.244-.039.024-.109.029-.168.045-.06.014-.11.04-.11.105 0 .067.052.094.112.094zm-.35-.428a.254.254 0 0 1 .13-.222.544.544 0 0 1 .261-.058c.196 0 .385.043.385.278v.362c0 .07 0 .146.032.212h-.272a.327.327 0 0 1-.016-.078.372.372 0 0 1-.272.102c-.157 0-.281-.08-.281-.25 0-.27.292-.25.48-.287.046-.01.072-.026.072-.077 0-.062-.075-.086-.13-.086-.075 0-.123.033-.136.104h-.253zm1.76.19c.007.133.09.176.215.176.09 0 .182-.032.182-.116 0-.1-.163-.12-.326-.166-.163-.046-.333-.12-.333-.328 0-.25.25-.346.463-.346.226 0 .453.11.455.366h-.296c.005-.103-.092-.137-.183-.137-.064 0-.143.022-.143.097 0 .088.164.104.33.15.163.047.328.123.328.329 0 .288-.245.38-.494.38-.261 0-.492-.114-.493-.406h.295zm.83-.446h.27v.828h-.27v-.828zm0-.31h.27v.207h-.27v-.208zm.69.715c0 .113.042.24.166.24.133 0 .161-.127.161-.232 0-.12-.043-.23-.16-.23-.125 0-.166.117-.166.222zm.588.423h-.258v-.096h-.003a.264.264 0 0 1-.227.12c-.26 0-.37-.223-.37-.456 0-.215.115-.42.349-.42.102 0 .18.039.235.114h.003v-.4h.271v1.138zm.75-.5c-.004-.092-.07-.168-.16-.168-.096 0-.16.068-.175.169h.335zm-.335.152c.005.114.07.188.184.188.066 0 .13-.03.155-.09h.252c-.049.191-.225.274-.41.274-.268 0-.451-.163-.451-.44 0-.254.201-.436.445-.436.296 0 .444.224.431.504h-.606zm.75-.48h.263v.145h.003c.04-.105.132-.16.248-.16.021 0 .043 0 .064.006v.247a.37.37 0 0 0-.104-.016c-.133 0-.203.093-.203.196v.41h-.27v-.828zm1.356-.327-.25.238h-.19l.153-.238h.287zm.133 1.155h-.262v-.113h-.003a.304.304 0 0 1-.252.137c-.237 0-.305-.137-.305-.354v-.498h.27v.48c0 .11.048.149.134.149.059 0 .148-.039.148-.185v-.444h.27v.828zm.191-.828h.262v.145h.004c.04-.105.132-.16.248-.16.02 0 .043 0 .064.006v.247a.369.369 0 0 0-.104-.016c-.134 0-.203.093-.203.196v.41h-.27v-.828zm1.02.184c-.12 0-.158.105-.158.207 0 .097.045.194.156.194.115 0 .164-.089.164-.192 0-.105-.041-.21-.162-.21zm.418.543c0 .136-.025.391-.412.391-.192 0-.374-.043-.405-.264h.27c.006.036.02.059.046.071a.214.214 0 0 0 .099.018c.129 0 .141-.091.141-.193v-.078h-.003a.261.261 0 0 1-.22.12c-.249 0-.362-.178-.362-.41 0-.22.129-.406.363-.406.098 0 .173.043.22.128h.004v-.104h.26v.727zm.183-.727h.27v.828h-.27v-.828zm0-.31h.27v.207h-.27v-.208zm.999.613c-.002-.07-.064-.12-.132-.12-.151 0-.175.13-.175.245 0 .107.046.216.16.216.095 0 .142-.054.155-.142h.262c-.024.222-.195.35-.415.35-.248 0-.432-.17-.432-.424 0-.264.167-.452.432-.452.205 0 .388.109.407.327h-.262zm.744.381c.129 0 .172-.073.166-.244-.039.024-.109.029-.168.045-.06.014-.11.04-.11.105 0 .067.052.094.112.094zm-.35-.428a.255.255 0 0 1 .13-.222.545.545 0 0 1 .262-.058c.195 0 .384.043.384.278v.362c0 .07 0 .146.032.212h-.272a.309.309 0 0 1-.016-.078.373.373 0 0 1-.272.102c-.157 0-.281-.08-.281-.25 0-.27.293-.25.48-.287.046-.01.072-.026.072-.077 0-.062-.075-.086-.13-.086-.075 0-.123.033-.136.104h-.253zm1.465-.567h.303l.395.702h.003v-.702h.278v1.14h-.303l-.395-.71h-.003v.71h-.278v-1.14zm1.509.995c.129 0 .172-.073.165-.244-.038.024-.108.029-.167.045-.06.014-.111.04-.111.105 0 .067.053.094.113.094zm-.35-.428a.256.256 0 0 1 .129-.222.545.545 0 0 1 .262-.058c.196 0 .385.043.385.278v.362c0 .07 0 .146.032.212h-.272c-.01-.025-.012-.051-.016-.078a.373.373 0 0 1-.272.102c-.157 0-.281-.08-.281-.25 0-.27.292-.25.48-.287.046-.01.072-.026.072-.077 0-.062-.075-.086-.13-.086-.075 0-.123.033-.136.104h-.253zm1.492.047c-.002-.07-.064-.12-.132-.12-.151 0-.175.13-.175.245 0 .107.046.216.16.216.095 0 .142-.054.155-.142h.262c-.024.222-.195.35-.415.35-.248 0-.432-.17-.432-.424 0-.264.167-.452.432-.452.205 0 .388.109.407.327h-.262zm.415-.303h.27v.828h-.27v-.828zm0-.31h.27v.207h-.27v-.208zm.856.954c.125 0 .165-.124.165-.229 0-.105-.04-.231-.165-.231-.126 0-.164.126-.164.231 0 .105.038.23.164.23zm0-.668c.256 0 .436.19.436.439 0 .248-.18.437-.436.437a.421.421 0 0 1-.434-.437c0-.249.177-.439.434-.439zm.577.024h.263v.114h.003a.313.313 0 0 1 .259-.138c.275 0 .297.201.297.32v.532h-.27v-.4c0-.113.013-.228-.135-.228-.102 0-.147.086-.147.177v.45h-.27v-.827zm1.34.684c.13 0 .172-.073.166-.244-.038.024-.108.029-.167.045-.06.014-.111.04-.111.105 0 .067.052.094.113.094zm-.35-.428a.255.255 0 0 1 .13-.222.546.546 0 0 1 .262-.058c.196 0 .385.043.385.278v.362c0 .07 0 .146.032.212h-.272a.327.327 0 0 1-.016-.078.372.372 0 0 1-.272.102c-.157 0-.281-.08-.281-.25 0-.27.292-.25.48-.287.046-.01.071-.026.071-.077 0-.062-.075-.086-.13-.086-.075 0-.123.033-.135.104h-.253zm.965-.567H31v1.14h-.27v-1.14zm-7.191-5.767c.027.542.375.716.905.716.375 0 .764-.13.764-.471 0-.406-.684-.484-1.373-.67-.683-.187-1.398-.484-1.398-1.329 0-1.006 1.05-1.4 1.946-1.4.95 0 1.906.446 1.913 1.484h-1.244c.02-.42-.388-.555-.77-.555-.267 0-.601.09-.601.393 0 .356.689.42 1.386.606.69.187 1.384.497 1.384 1.33 0 1.166-1.03 1.54-2.081 1.54-1.099 0-2.068-.464-2.075-1.644h1.244zm3.345-3.06h1.274l1.661 2.835h.013v-2.835H31v4.6h-1.274l-1.66-2.867h-.014v2.867h-1.167v-4.6zm-6.329 1.647c-.067-.465-.442-.71-.964-.71-.804 0-1.112.684-1.112 1.369 0 .684.308 1.368 1.112 1.368.582 0 .918-.323.964-.852h1.247c-.068 1.187-.972 1.882-2.184 1.882-1.447 0-2.383-1.062-2.383-2.398 0-1.337.936-2.4 2.383-2.4 1.031 0 2.15.632 2.184 1.741h-1.247zM5.79 22.767c-.016-.115-.105-.175-.229-.175-.19 0-.264.169-.264.338s.073.338.264.338c.138 0 .218-.08.23-.21h.295c-.016.293-.23.465-.519.465-.343 0-.566-.263-.566-.593 0-.33.223-.593.566-.593.245 0 .51.156.519.43H5.79z" fill="#231F20"/></g></svg>