<svg width="36" height="36" xmlns="http://www.w3.org/2000/svg"><g fill="none"><path d="M18 0c2.837 0 5.52.656 7.907 1.825C31.884 4.753 36 10.895 36 18c0 9.942-8.058 18-18 18-9.94 0-18-8.057-18-18C0 8.06 8.06 0 18 0z" fill="#F2F4F7"/><path d="M7.003 16.152v.817a3.699 3.699 0 0 0-1.153-.215c-.419 0-.652.127-.652.357 0 .146.102.243.395.374l.786.353c.63.283.947.696.947 1.232 0 .827-.716 1.35-1.851 1.35-.414 0-.893-.06-1.4-.175v-.844c.502.137.963.21 1.321.21.47 0 .721-.131.721-.375 0-.146-.098-.254-.323-.354l-.861-.384C4.295 18.214 4 17.83 4 17.283 4 16.5 4.69 16 5.773 16c.38 0 .846.058 1.23.152zm.936-.066H9.21v4.248H7.94v-4.248zm5.41 0v.778h-1.921v.958h1.678v.704h-1.678v.993h1.946v.815H10.19v-4.248h3.158zm6.012 0v4.248h-1.232v-2.796l-1.206 2.829h-.778l-1.198-2.83v2.797h-.85v-4.248h1.554l1.098 2.583 1.093-2.583h1.519zm4.14 0v.778h-1.923v.958h1.677v.704h-1.677v.993h1.945v.815h-3.185v-4.248H23.5zm4.483 0v4.248h-1.358l-1.53-2.725v2.725h-.85v-4.248h1.394l1.496 2.688v-2.688h.848zm3.693.066v.817a3.707 3.707 0 0 0-1.147-.215c-.426 0-.658.125-.658.355 0 .15.095.24.397.376l.784.353c.634.286.947.695.947 1.238 0 .823-.717 1.344-1.85 1.344-.414 0-.895-.06-1.402-.174V19.4c.503.137.962.21 1.318.21.467 0 .725-.13.725-.367 0-.156-.09-.257-.326-.362l-.858-.383c-.642-.287-.933-.666-.933-1.215 0-.783.69-1.283 1.77-1.283.38 0 .85.057 1.233.15z" fill="#00A0B0"/></g></svg>