<svg width="36" height="36" fill="none" xmlns="http://www.w3.org/2000/svg"><path d="M18 0c2.837 0 5.52.656 7.907 1.825C31.884 4.753 36 10.895 36 18c0 9.942-8.058 18-18 18-9.94 0-18-8.057-18-18C0 8.06 8.06 0 18 0z" fill="#F2F4F7"/><path d="M28.236 17.302h.245c.116 0 .197-.017.239-.051a.17.17 0 0 0 .064-.14.178.178 0 0 0-.116-.165.616.616 0 0 0-.203-.021h-.229v.377zm-.202.704v-1.25h.43a1 1 0 0 1 .319.035.304.304 0 0 1 .156.12.33.33 0 0 1-.04.421.381.381 0 0 1-.258.115c.044.018.079.04.106.065.05.05.112.133.184.248l.153.246h-.247l-.11-.198c-.087-.155-.157-.252-.21-.29-.037-.03-.091-.044-.162-.044h-.119v.532h-.202zm.51-1.611a.989.989 0 0 0-.476.125.89.89 0 0 0-.362.359.975.975 0 0 0-.003.966.907.907 0 0 0 .36.357.97.97 0 0 0 .481.13.973.973 0 0 0 .481-.13.971.971 0 0 0-.006-1.682.997.997 0 0 0-.475-.125zm0-.193c.195 0 .386.05.571.15.186.1.33.243.434.43.103.185.155.38.155.582 0 .2-.052.391-.152.577a1.067 1.067 0 0 1-.43.429 1.16 1.16 0 0 1-1.156 0 1.068 1.068 0 0 1-.43-.43 1.177 1.177 0 0 1-.153-.576c0-.202.051-.397.155-.582.105-.187.25-.33.435-.43.185-.1.376-.15.571-.15zM18 4l12 20.798H6L18 4z" fill="#E61E0A"/><path d="M16.213 18.44h-.816a.258.258 0 0 0-.244.207l-.684 3.75c-.02.113.055.206.169.206h.815a.258.258 0 0 0 .244-.206l.684-3.75a.167.167 0 0 0-.168-.207zm.488-1.548.129-.71c.02-.113-.055-.206-.17-.206h-.816a.258.258 0 0 0-.243.206l-.128.71c-.02.113.055.206.17.206h.814a.259.259 0 0 0 .244-.206zm8.817 5.515c.056-.14.096-.52.096-.52.009-.056.022-.204-.115-.247-.137-.04-.462.008-.462-.204 0-.075.254-1.33.28-1.733.028-.402.003-.932-.657-1.193-.24-.094-2.383-.07-2.383-.07-.127 0-.241.08-.257.182l-.097.451c-.017.103.075.186.202.189h1.479c.527 0 .72.1.729.19.01.092.025.607-.198.597-.196-.007-2.861-.533-2.861 1.225 0 .305-.517.418-.652.212-.136-.207-.829-.9-.834-1.022-.007-.123 1.146-.72 1.392-1.697.023-.092.04-.328-.142-.328-.128 0-.605.002-.703 0-.094 0-.219.022-.328.247-.475 1.1-1.717 1.353-1.63.944.03-.134 1.446-7.969 1.446-7.969a.167.167 0 0 0-.169-.205h-.815a.259.259 0 0 0-.244.205L16.64 22.397c-.02.115.054.206.169.206h.817a.257.257 0 0 0 .242-.206l.23-1.213c.067-.174.168-.25.392-.25.805 0 1.216 1.727 2.04 1.742.494.008 1.084-.367 1.198-.37.237-.006.37.37 1.162.37.705 0 1.216-.257 1.381-.257.146 0 .453.156.606.197.374.1.587-.07.642-.21zm-2.356-.584c-.607.028-.94-.263-.94-.548 0-.392.602-.517 1.089-.5.488.018.823.123.81.507-.009.284-.444.516-.959.54z" fill="#FAB500"/><path d="M10.365 22.689c.06-.029.098-.066.131-.078a.372.372 0 0 1 .143.007l.008.003c.566.16 2.614.707 3.117-1.675l1.393-7.637c.01-.09.17-1.058 1.517-.604.453.152.492-.074.505-.115l.207-.89c.007-.254-.197-.195-.585-.27-.298-.056-.386.104-.453.136-.07.032-.306-.026-.66-.042-.204-.01-1.436.145-1.684 1.348l-1.354 7.321c-.061.22-.041 2.287-2.416 1.12-.405-.198-.557-.093-.594.115-.025.149-.138.9-.157 1.052-.008.063.038.163.157.18l.421.065a.48.48 0 0 0 .292-.029l.012-.007" fill="#FAB500"/></svg>