<svg width="36" height="36" fill="none" xmlns="http://www.w3.org/2000/svg"><path d="M18 0c2.837 0 5.52.656 7.907 1.825C31.884 4.753 36 10.895 36 18c0 9.942-8.058 18-18 18-9.94 0-18-8.057-18-18C0 8.06 8.06 0 18 0z" fill="#F2F4F7"/><path d="m15.962 19.357.784-.451c.154.309.415.463.783.463.346 0 .558-.155.558-.38 0-.226-.296-.297-.807-.404-.7-.154-1.152-.439-1.152-1.033 0-.642.653-1.08 1.377-1.08.618 0 1.045.166 1.425.642l-.748.428c-.142-.247-.356-.368-.665-.368-.32 0-.498.142-.498.332 0 .237.356.285.83.404.654.166 1.152.391 1.152 1.044 0 .677-.665 1.14-1.496 1.14-.688-.002-1.21-.191-1.543-.737zm3.514.642v-3.013l.879-.514v3.526h-.88zm1.496 0v-1.853c0-.95.7-1.674 1.674-1.674.988 0 1.674.772 1.674 1.674v1.852h-.89v-1.793c0-.546-.332-.866-.783-.866-.487 0-.784.345-.784.866v1.793h-.891zm3.82-1.723c0-1.056.76-1.804 1.828-1.804.665 0 1.258.345 1.543.878l-.76.452a.874.874 0 0 0-.795-.475c-.522 0-.914.391-.914.95 0 .546.368.961.914.961.356 0 .665-.178.807-.475l.76.44a1.767 1.767 0 0 1-1.555.889c-1.054 0-1.827-.76-1.827-1.816zm3.859 1.722V15.51l.88-.511v1.733c.242-.165.526-.256.819-.261.973 0 1.65.665 1.65 1.65v1.877h-.889v-1.794c0-.546-.332-.866-.783-.866-.487 0-.784.345-.784.866v1.793h-.893zm-14.816-1.726a1.788 1.788 0 0 1-1.159 1.69c-.601.235-1.305.148-1.984-.235l-.494-.285c-.11.127-.238.236-.38.326l-1.58.925h-.003v-.798h.003l2.375-1.392c-.014.116-.04.23-.076.341l.494.283c.634.36 1.107.304 1.392.193a1.125 1.125 0 0 0 .665-.692 1.1 1.1 0 0 0-.678-1.387c-.286-.108-.76-.16-1.389.21l-3.856 2.257-.005.003c-.427.25-.867.379-1.284.382a1.935 1.935 0 0 1-.696-.122 1.802 1.802 0 0 1-1.094-2.243 1.822 1.822 0 0 1 1.073-1.124c.6-.235 1.305-.151 1.984.236l.494.284c.11-.126.238-.236.38-.326l.033-.02.184-.108-.785-.444a.346.346 0 0 1 .34-.6l1.128.645 1.105-.642a.346.346 0 0 1 .35.594L7.224 18.04c.014-.108.038-.215.073-.318l-.494-.283c-.634-.36-1.107-.303-1.392-.192a1.105 1.105 0 0 0 .012 2.078c.287.108.76.159 1.39-.21l3.863-2.26c.428-.25.867-.379 1.284-.381.237-.003.473.039.695.122a1.789 1.789 0 0 1 1.18 1.676" fill="#272727"/></svg>