<svg height="36" viewBox="0 0 36 36" width="36" xmlns="http://www.w3.org/2000/svg"><mask id="a" fill="#fff"><path d="M0 .042h1v.916H0z" fill-rule="evenodd"/></mask><mask id="b" fill="#fff"><path d="M0 .087h1v.826H0z" fill-rule="evenodd"/></mask><mask id="c" fill="#fff"><path d="M0 .042h1v.916H0z" fill-rule="evenodd"/></mask><mask id="d" fill="#fff"><path d="M0 .041h1V.96H0z" fill-rule="evenodd"/></mask><mask id="e" fill="#fff"><path d="M0 .041h1V.96H0z" fill-rule="evenodd"/></mask><mask id="f" fill="#fff"><path d="M0 6.007h28V0H0z" fill-rule="evenodd"/></mask><g fill="none" fill-rule="evenodd"><path d="M18 0c2.837 0 5.52.656 7.907 1.825C31.884 4.753 36 10.895 36 18c0 9.942-8.058 18-18 18-9.94 0-18-8.057-18-18C0 8.06 8.06 0 18 0z" fill="#f2f4f7" fill-rule="nonzero"/><path d="M.181.827.286.701A.364.364 0 0 0 .526.8C.599.8.643.77.643.723V.721C.643.676.616.653.48.618.318.578.213.532.213.372V.37c0-.146.118-.242.282-.242a.47.47 0 0 1 .3.101L.702.362C.631.313.561.283.493.283S.389.314.389.353v.002c0 .054.035.071.174.107.164.042.256.101.256.242v.002c0 .16-.122.25-.296.25A.517.517 0 0 1 .181.827" fill="#005480" mask="url(#a)" transform="translate(10.407 20.049)"/><path d="M.532.562.425.3.318.56zM.345.087h.164L.855.9H.669L.595.719H.254l-.073.18H0z" fill="#005480" mask="url(#b)" transform="translate(11.594 20.094)"/><path d="M.834.138v.164H.588v.643H.411V.302H.166V.138z" fill="#005480" mask="url(#c)" transform="translate(12.546 20.049)"/><path d="M.369.296V.46h.38v.158h-.38v.17h.438v.157H.193V.138h.608v.158z" fill="#005480" mask="url(#d)" transform="translate(13.622 20.048)"/><path d="M.79.784v.16H.21V.139h.178v.646z" fill="#005480" mask="url(#e)" transform="translate(14.676 20.048)"/><path d="M12.92 5.994h.178v-.807h-.178zm5.96-.646h.138c.145 0 .243.1.243.243 0 .145-.098.242-.243.242h-.137zm-.177-.161v.807h.315c.253 0 .428-.177.428-.405s-.175-.402-.428-.402zm-2.164.16h.176c.087 0 .14.039.14.112 0 .074-.05.12-.137.12h-.18zm-.177-.16v.807h.177v-.258h.139l.173.258h.208l-.197-.29c.102-.037.172-.12.172-.222 0-.105-.024-.168-.07-.213-.051-.053-.131-.082-.234-.082zm4.62.15c.144 0 .245.115.245.254 0 .14-.1.253-.242.253-.144 0-.244-.115-.244-.255s.098-.252.242-.252zm.003-.164c-.25 0-.43.189-.43.418v.002c0 .229.179.414.428.414a.416.416 0 0 0 .429-.417v-.002a.414.414 0 0 0-.427-.415z" fill="#005480" mask="url(#f)" transform="translate(4 15)"/><path d="M26.794.4a3.97 3.97 0 0 1 .695 2.252c0 .811-.241 1.592-.698 2.258a.254.254 0 0 0 .065.354v.001c.116.08.275.051.355-.065a4.484 4.484 0 0 0 .79-2.548c0-.912-.272-1.79-.786-2.542a.256.256 0 0 0-.421.29zm-.81 4.165a.256.256 0 0 0 .358-.05 3.064 3.064 0 0 0 .618-1.854 3.06 3.06 0 0 0-.627-1.865.256.256 0 1 0-.408.31c.343.45.524.987.524 1.555 0 .563-.178 1.097-.515 1.546a.255.255 0 0 0 .05.358zm-.91-.625c.11.088.272.07.36-.04a2.007 2.007 0 0 0 .017-2.487.256.256 0 0 0-.36-.045v.001a.255.255 0 0 0-.043.358v.001c.206.261.318.585.316.918 0 .343-.113.667-.328.934a.256.256 0 0 0 .038.36zM.512 2.652c0-.809.24-1.587.696-2.252A.256.256 0 1 0 .786.111 4.476 4.476 0 0 0 0 2.652C0 3.567.273 4.448.79 5.2a.255.255 0 0 0 .42-.29 3.967 3.967 0 0 1-.698-2.258zM2.027.746a.256.256 0 0 0-.358.05 3.06 3.06 0 0 0-.627 1.865c0 .675.213 1.315.617 1.853a.256.256 0 0 0 .358.051.256.256 0 0 0 .05-.358 2.555 2.555 0 0 1-.514-1.546c0-.568.18-1.106.523-1.556a.256.256 0 0 0-.05-.359zm.54 3.154c.089.11.25.127.36.04a.257.257 0 0 0 .039-.36 1.47 1.47 0 0 1-.328-.934c0-.336.109-.654.316-.918a.256.256 0 0 0-.402-.316l-.001.001A2.005 2.005 0 0 0 2.568 3.9z" fill="#00adee" mask="url(#f)" transform="translate(4 15)"/><g fill="#005480"><path d="M21.584 1.094c-.422 0-.689.298-.836.524v-.44h-1.077v2.954h1.173v-1.46c0-.355.008-.66.33-.654.312.01.338.175.338.61v1.504h1.173v-1.46c0-.355-.003-.652.327-.653.31 0 .338.174.338.608v1.505h1.172V2.385c0-.807-.365-1.29-1.109-1.29-.427 0-.649.185-.903.54-.14-.316-.437-.54-.926-.54m-16.619 0c-.614 0-1.398.218-1.398.974 0 1.144 1.81.767 1.81 1.24 0 .21-.192.265-.373.265a.474.474 0 0 1-.287-.09.327.327 0 0 1-.124-.27H3.477c.062.794.806 1.003 1.482 1.003 1.083 0 1.59-.417 1.59-1.032 0-1.105-1.865-.829-1.865-1.24 0-.147.13-.209.332-.209.09 0 .174.023.236.073a.31.31 0 0 1 .113.215h1.066c-.068-.784-.823-.93-1.466-.93m1.782 3.054h.952V1.749h-.952zm0-2.594h.952v-.455h-.952zm4.328.196v1.46c0 .686.34 1.007.861 1.007.393 0 .627-.092.865-.422v.353h.884V1.75h-.953v1.154c0 .37-.087.576-.36.576-.23 0-.345-.105-.345-.434V1.75zm3.92-.07c-.5 0-1.136.18-1.136.793 0 .93 1.47.623 1.47 1.007 0 .17-.156.215-.302.215a.39.39 0 0 1-.234-.073.267.267 0 0 1-.1-.22h-.907c.05.646.655.815 1.204.815.88 0 1.291-.339 1.291-.838 0-.898-1.516-.673-1.516-1.007 0-.119.106-.169.271-.169a.3.3 0 0 1 .192.06.25.25 0 0 1 .092.173h.865c-.055-.637-.668-.756-1.19-.756zm-5.433 0c-.37 0-.604.18-.737.554h-.009V1.75H7.95v2.4h.953v-.83c0-.517.197-.7.586-.7.064 0 .133.018.197.027v-.952c-.04-.004-.083-.014-.124-.014z" mask="url(#f)" transform="translate(4 15)"/><path d="M24.675.856h.061v.323h-.057V.947l-.102.152h-.002l-.101-.151v.231h-.055V.856h.06l.098.152zm-.316 0v.053h-.102v.27h-.058v-.27h-.102V.856zm-6.825.322.373.739.394-.739h1.286l-1.01 1.404 1.021 1.55H18.29l-.417-.845-.428.845h-1.297l1.06-1.545-.976-1.409zm-7.645 2.97h.952V1.749h-.952zm0-2.594h.952v-.455h-.952zm2.59 4.278v.161h-.58v-.807h.178v.646zm1.73-.645v.164h-.245v.643h-.178V5.35h-.245v-.164zm.611.158v.163h.38v.158h-.38v.169h.439v.158h-.614v-.806h.608v.158zm3.136.31-.107-.26-.107.26zm-.187-.475h.164l.346.813h-.185l-.075-.18h-.34l-.074.18h-.18zm2.142.814h.177v-.807h-.177z" mask="url(#f)" transform="translate(4 15)"/></g></g></svg>