<svg height="36" viewBox="0 0 36 36" width="36" xmlns="http://www.w3.org/2000/svg"><mask id="a" fill="#fff"><path d="M0 0h3.906v3.91H0z" fill-rule="evenodd"/></mask><g fill="none" fill-rule="evenodd"><path d="M18 0c2.837 0 5.52.656 7.907 1.825C31.884 4.753 36 10.895 36 18c0 9.942-8.058 18-18 18-9.94 0-18-8.057-18-18C0 8.06 8.06 0 18 0z" fill="#f2f4f7" fill-rule="nonzero"/><g fill="#000"><path d="M13.773 14.093h7.496l1.188 2.13 1.319-2.13h3.393v-2.717h3.287v2.717H32v1.973h-1.544v6.167c0 .408.382.758.785.738l.251-.01H32v1.784a7.314 7.314 0 0 1-2.256.371c-1.136 0-2.575-.617-2.575-1.947v-7.103h-1.351l-1.816 2.906 3.282 5.878h-4.131l-1.36-2.324-1.461 2.324h-3.246l3.173-5.082-3.173-5.675V24.85h-3.313zm-.471.827H9.889v-1.712c0-.476-.56-.769-.973-.769-.539 0-.995.392-.995.942v1.335c0 .324.414.607.681.727l3.219 1.456c.675.303 1.481 1.02 1.481 1.821v3.821c0 .911-.827 1.613-1.586 1.952-.906.41-2.015.441-2.994.441-1.188 0-2.523-.063-3.544-.734C4.419 23.703 4 22.94 4 22.04v-2.273h3.706v2.272c0 .471.633.717 1.021.717.518 0 .989-.282.989-.843v-1.696c0-.408-.382-.732-.722-.885l-3.173-1.407c-.863-.388-1.622-1.167-1.622-2.167v-2.953c0-2.282 2.942-2.79 4.69-2.79 1.413 0 4.413.367 4.413 2.277z"/><path d="M1.953 0c1.062 0 1.953.89 1.953 1.953 0 1.062-.885 1.958-1.953 1.958A1.975 1.975 0 0 1 0 1.951C0 .89.891 0 1.953 0" mask="url(#a)" transform="translate(13.527 10)"/></g></g></svg>