<svg width="36" height="36" fill="none" xmlns="http://www.w3.org/2000/svg"><path d="M18 0c2.837 0 5.52.656 7.907 1.825C31.884 4.753 36 10.895 36 18c0 9.942-8.058 18-18 18-9.94 0-18-8.057-18-18C0 8.06 8.06 0 18 0z" fill="#F2F4F7"/><mask id="a" style="mask-type:alpha" maskUnits="userSpaceOnUse" x="31" y="23" width="1" height="2"><path d="M31.458 23.95H32v.543h-.542v-.543z" fill="#fff"/></mask><g mask="url(#a)"><path fill-rule="evenodd" clip-rule="evenodd" d="M31.729 24.44a.219.219 0 1 1 0-.437.219.219 0 0 1 0 .438zm0-.49a.272.272 0 0 0 0 .543.272.272 0 0 0 0-.543z" fill="#FEFEFE"/></g><path fill-rule="evenodd" clip-rule="evenodd" d="M31.753 24.21h-.067v-.074h.067c.023 0 .038.015.038.037 0 .02-.015.037-.038.037zm.097-.038c0-.058-.046-.09-.093-.09h-.111a.014.014 0 0 0-.015.015v.247c0 .008.006.015.015.015h.027a.014.014 0 0 0 .015-.015v-.085h.047l.037.09c.003.005.008.01.014.01h.034c.01 0 .018-.01.013-.02a6.194 6.194 0 0 0-.04-.084.083.083 0 0 0 .057-.083zm-21.736-1.545H9.87a.05.05 0 0 0-.05.05V23.9c0 .18-.106.263-.207.263a.225.225 0 0 1-.17-.083c-.024-.024-.05-.029-.078-.003l-.134.138a.055.055 0 0 0-.006.065.499.499 0 0 0 .394.189c.302 0 .543-.208.543-.569v-1.225a.05.05 0 0 0-.05-.05zm.43 1.415a.216.216 0 0 0-.212.215.213.213 0 0 0 .427 0 .218.218 0 0 0-.215-.215zm2.238-1.402a.044.044 0 0 0-.046-.04h-.042a.045.045 0 0 0-.044.027l-.569 1.225h-.008l-.569-1.225a.047.047 0 0 0-.044-.026h-.041c-.029 0-.044.018-.047.039l-.307 1.744c-.006.037.015.06.049.06h.232a.05.05 0 0 0 .047-.039l.15-.984h.008l.458 1.02c.008.016.02.03.044.03h.046c.024 0 .04-.014.044-.03l.453-1.02h.008l.152.984c.005.018.026.04.05.04h.235c.034 0 .054-.024.046-.06l-.305-1.745zm.731 1.402a.216.216 0 0 0-.212.215.214.214 0 0 0 .427 0 .218.218 0 0 0-.215-.215zm1.625-.672c-.21-.086-.306-.17-.306-.291 0-.084.08-.182.228-.182.142 0 .339.13.36.143.03.02.07 0 .09-.031l.098-.149c.018-.026.01-.07-.015-.085a.91.91 0 0 0-.518-.174c-.41 0-.582.267-.582.498 0 .307.244.462.487.561.217.088.328.18.328.312 0 .111-.1.2-.235.2-.168 0-.378-.154-.39-.161a.06.06 0 0 0-.089.018l-.093.16c-.023.042-.01.055.013.079a.834.834 0 0 0 .57.202c.364 0 .594-.246.594-.514 0-.335-.29-.485-.54-.587zm2.656-.73a.045.045 0 0 0-.047-.04h-.041c-.024 0-.037.011-.044.027l-.57 1.225h-.007l-.57-1.225a.047.047 0 0 0-.043-.026h-.042c-.028 0-.044.018-.046.039l-.308 1.744c-.005.037.015.06.049.06h.233a.05.05 0 0 0 .046-.039l.15-.984h.008l.458 1.02c.008.016.02.03.044.03h.047a.046.046 0 0 0 .044-.03l.452-1.02h.008l.153.984c.005.018.026.04.049.04h.235c.034 0 .055-.024.047-.06l-.305-1.745zm2.124-.013h-.246a.05.05 0 0 0-.049.05v1.064c0 .218-.153.392-.378.392s-.375-.174-.375-.395v-1.062a.05.05 0 0 0-.049-.05h-.246a.05.05 0 0 0-.049.05v1.08a.71.71 0 0 0 .72.714c.408 0 .721-.32.721-.714v-1.08a.051.051 0 0 0-.05-.05zm1.909 1.355a.048.048 0 0 0-.065 0 .62.62 0 0 1-.396.148.587.587 0 0 1-.58-.6c0-.327.247-.605.578-.605.145 0 .29.058.398.153.02.021.047.021.065 0l.158-.163a.048.048 0 0 0-.003-.073.874.874 0 0 0-.626-.241.934.934 0 0 0-.934.937.93.93 0 0 0 1.563.68c.018-.018.023-.052.002-.07l-.16-.166zm1.36-.499.675-.763c.034-.039.008-.093-.041-.093h-.26a.062.062 0 0 0-.048.026l-.652.737v-.7a.063.063 0 0 0-.063-.063h-.227a.061.061 0 0 0-.062.062v1.693c0 .034.026.062.062.062h.227a.063.063 0 0 0 .063-.062v-.792l.675.836c.005.008.02.018.046.018h.282a.057.057 0 0 0 .047-.09l-.724-.87zm2.296-.856H24.43a.05.05 0 0 0-.05.05v1.718c0 .026.022.05.05.05h1.053a.05.05 0 0 0 .05-.05v-.213a.05.05 0 0 0-.05-.05h-.766v-.454h.64a.05.05 0 0 0 .048-.05v-.215a.05.05 0 0 0-.049-.049h-.639v-.426h.766a.05.05 0 0 0 .05-.049v-.213a.05.05 0 0 0-.05-.05zm1.322.828h-.422v-.517h.422c.137 0 .256.114.256.252a.264.264 0 0 1-.256.265zm.592-.27a.561.561 0 0 0-.564-.558h-.74a.05.05 0 0 0-.049.05v1.718c0 .026.02.05.05.05h.237a.05.05 0 0 0 .05-.05v-.662h.287l.344.688c.005.01.018.023.041.023h.272c.044 0 .062-.041.044-.075l-.355-.66c.225-.09.383-.285.383-.524zm2.365.897c-.017-.01-.038-.012-.066.008-.145.104-.285.194-.523.194a.754.754 0 0 1-.765-.742c0-.4.332-.744.765-.744.186 0 .38.077.523.194.027.025.05.028.071.002l.074-.07c.022-.02.02-.051-.002-.072a.997.997 0 0 0-.663-.24c-.549 0-.99.416-.99.933 0 .517.441.928.99.928.243 0 .48-.08.665-.251.02-.018.025-.054.003-.07l-.082-.07zm.956-.243a.38.38 0 0 1-.387-.378c0-.204.17-.37.387-.37.218 0 .387.166.387.37a.38.38 0 0 1-.387.378zm0-.918a.556.556 0 0 0-.566.54c0 .297.25.546.566.546a.556.556 0 0 0 .566-.546c0-.292-.25-.54-.566-.54zm.507 1.386h-.991a.03.03 0 0 0-.03.03v.09c0 .017.014.03.03.03h.99a.03.03 0 0 0 .03-.03v-.09a.03.03 0 0 0-.03-.03zM5.118 22.652h-1.07a.048.048 0 0 0-.048.049v.073c0 .025.02.048.048.048h.44v1.574a.05.05 0 0 0 .047.048h.096a.05.05 0 0 0 .048-.048v-1.574h.44a.048.048 0 0 0 .047-.048v-.073a.048.048 0 0 0-.048-.049zm1.707 0h-.099a.048.048 0 0 0-.048.049v.758H5.653V22.7a.048.048 0 0 0-.048-.049h-.098a.05.05 0 0 0-.048.049v1.695a.05.05 0 0 0 .048.048h.098a.048.048 0 0 0 .048-.048v-.768h1.025v.768c0 .025.02.048.048.048h.099a.05.05 0 0 0 .048-.048V22.7a.05.05 0 0 0-.048-.049zm1.582 0h-.994a.048.048 0 0 0-.048.049v1.695c0 .025.02.048.048.048h.994a.048.048 0 0 0 .048-.048v-.073a.048.048 0 0 0-.048-.049H7.56v-.646h.725c.025 0 .048-.02.048-.048v-.073a.05.05 0 0 0-.048-.048H7.56v-.637h.848a.048.048 0 0 0 .048-.048v-.073a.048.048 0 0 0-.048-.049z" fill="#FEFEFE"/><path fill-rule="evenodd" clip-rule="evenodd" d="m9.232 24.216.134-.138c.029-.026.054-.02.078.003a.225.225 0 0 0 .17.083c.101 0 .207-.083.207-.262v-1.226a.05.05 0 0 1 .05-.049h.243a.05.05 0 0 1 .049.05v1.225c0 .36-.24.568-.543.568a.495.495 0 0 1-.394-.19.055.055 0 0 1 .006-.064zm1.312-.174c.116 0 .215.098.215.215a.213.213 0 0 1-.427 0c0-.117.095-.215.212-.215zm.828-1.402a.045.045 0 0 1 .047-.04h.041c.021 0 .036.011.044.027l.57 1.225h.007l.57-1.225c.007-.016.02-.026.043-.026h.042c.028 0 .044.018.046.039l.306 1.744c.007.037-.013.06-.047.06h-.236c-.023 0-.043-.02-.049-.039l-.152-.984h-.008l-.453 1.02c-.005.016-.02.03-.044.03h-.046c-.024 0-.037-.014-.044-.03l-.458-1.02h-.008l-.15.984a.05.05 0 0 1-.046.04h-.233c-.034 0-.055-.024-.05-.06l.308-1.745zm2.141 1.402c.116 0 .215.098.215.215a.214.214 0 0 1-.427 0c0-.117.096-.215.212-.215zm.988.148.093-.161a.06.06 0 0 1 .088-.018c.013.007.223.16.391.16.134 0 .235-.088.235-.2 0-.132-.11-.223-.328-.311-.243-.099-.487-.254-.487-.56 0-.232.171-.5.583-.5a.91.91 0 0 1 .517.175c.026.015.034.06.015.085l-.098.148c-.02.032-.06.052-.09.032-.021-.013-.218-.143-.36-.143-.147 0-.228.098-.228.181 0 .123.096.206.306.291.25.102.54.252.54.587 0 .268-.23.514-.595.514a.831.831 0 0 1-.569-.202c-.023-.024-.036-.037-.013-.078zm1.883-1.55a.044.044 0 0 1 .046-.04h.042c.02 0 .036.011.043.027l.57 1.225h.007l.57-1.225c.007-.016.02-.026.044-.026h.04c.03 0 .045.018.048.039l.305 1.744c.008.037-.013.06-.047.06h-.235c-.023 0-.044-.02-.05-.039l-.152-.984h-.008l-.453 1.02a.043.043 0 0 1-.043.03h-.047c-.023 0-.036-.014-.044-.03l-.458-1.02h-.008l-.15.984a.05.05 0 0 1-.046.04h-.233c-.034 0-.054-.024-.05-.06l.309-1.745zm2.142.036a.05.05 0 0 1 .05-.049h.245a.05.05 0 0 1 .05.05v1.061c0 .22.15.395.374.395.225 0 .378-.174.378-.392v-1.065c0-.026.02-.049.05-.049h.245a.05.05 0 0 1 .049.05v1.08a.711.711 0 0 1-.722.713.71.71 0 0 1-.719-.714v-1.08zm2.83-.076c.261 0 .45.084.626.242a.05.05 0 0 1 .003.073l-.158.163c-.018.021-.044.021-.065 0a.611.611 0 0 0-.398-.153c-.331 0-.577.278-.577.605 0 .325.248.6.58.6a.62.62 0 0 0 .395-.148.047.047 0 0 1 .065 0l.16.166c.021.018.016.052-.002.07a.93.93 0 0 1-1.563-.68c0-.52.417-.937.934-.937zm1.153.09c0-.035.026-.063.062-.063h.228c.033 0 .062.028.062.062v.701l.652-.737a.062.062 0 0 1 .049-.026h.258c.05 0 .075.054.042.093l-.675.764.724.87a.057.057 0 0 1-.047.09h-.282c-.025 0-.04-.01-.046-.018l-.675-.836v.792a.063.063 0 0 1-.062.062h-.228a.061.061 0 0 1-.062-.062v-1.693zm1.872-.014c0-.026.02-.049.05-.049h1.052a.05.05 0 0 1 .05.05v.212a.05.05 0 0 1-.05.05h-.766v.425h.64c.025 0 .048.024.048.05v.215a.05.05 0 0 1-.049.05h-.639v.454h.766a.05.05 0 0 1 .05.05v.212a.05.05 0 0 1-.05.05H24.43a.05.05 0 0 1-.049-.05v-1.719zm2.424.779c.137 0 .256-.12.256-.265a.258.258 0 0 0-.256-.252h-.422v.517h.422zm-.76-.779c0-.026.02-.049.048-.049h.74c.31 0 .564.25.564.558 0 .239-.158.434-.383.524l.355.66c.018.034 0 .075-.044.075h-.272a.044.044 0 0 1-.041-.023l-.344-.688h-.287v.662a.05.05 0 0 1-.05.05h-.238a.05.05 0 0 1-.049-.05v-1.719zm3.13-.064c.277 0 .477.09.664.24.022.02.024.052.002.072l-.074.07c-.021.026-.043.023-.07-.003a.859.859 0 0 0-.524-.193.755.755 0 0 0-.765.744c0 .398.332.742.765.742.238 0 .378-.09.523-.194.027-.02.05-.018.066-.008l.082.07c.022.016.017.052-.003.07a.972.972 0 0 1-.666.25c-.548 0-.989-.41-.989-.927 0-.517.441-.933.99-.933zm1.543 1.227a.38.38 0 0 0 .387-.378c0-.204-.17-.37-.387-.37a.376.376 0 0 0-.387.37c0 .21.17.378.387.378zm0-.918c.316 0 .566.248.566.54 0 .297-.25.546-.566.546a.556.556 0 0 1-.566-.546c0-.292.25-.54.566-.54zm-.484 1.386h.99a.03.03 0 0 1 .03.03v.09a.03.03 0 0 1-.03.03h-.99a.03.03 0 0 1-.03-.03v-.09a.03.03 0 0 1 .03-.03z" fill="#010202"/><mask id="b" style="mask-type:alpha" maskUnits="userSpaceOnUse" x="4" y="22" width="2" height="3"><path d="M4 22.652h1.166v1.792H4v-1.792z" fill="#fff"/></mask><g mask="url(#b)"><path fill-rule="evenodd" clip-rule="evenodd" d="M4.487 22.822h-.44A.048.048 0 0 1 4 22.774v-.073c0-.026.02-.049.048-.049h1.07c.028 0 .048.023.048.049v.073c0 .025-.02.048-.048.048H4.68v1.574a.05.05 0 0 1-.048.048h-.096a.05.05 0 0 1-.048-.048v-1.574z" fill="#010202"/></g><path fill-rule="evenodd" clip-rule="evenodd" d="M5.46 22.7a.05.05 0 0 1 .047-.048h.098c.028 0 .048.023.048.049v.758h1.025V22.7c0-.026.02-.049.048-.049h.099a.05.05 0 0 1 .048.049v1.695a.05.05 0 0 1-.048.048h-.099a.048.048 0 0 1-.048-.048v-.768H5.653v.768c0 .025-.02.048-.048.048h-.098a.05.05 0 0 1-.048-.048V22.7zm1.905 0c0-.025.02-.048.048-.048h.994a.05.05 0 0 1 .049.049v.073c0 .025-.02.048-.049.048H7.56v.637h.725a.05.05 0 0 1 .048.048v.073a.048.048 0 0 1-.048.048H7.56v.646h.848a.05.05 0 0 1 .049.049v.073c0 .025-.02.048-.049.048h-.994a.048.048 0 0 1-.048-.048v-1.695z" fill="#010202"/><path fill-rule="evenodd" clip-rule="evenodd" d="M18.665 15.225c-1.212-1.89.76-2.582 1.727-3.66.391.877 1.013 2.6-.606 3.104-.447.152-.91.372-1.12.556z" fill="#00A69D"/><path fill-rule="evenodd" clip-rule="evenodd" d="M17.914 16.958c1.905-2.693 3.878-1.93 5.856-1.208-1.994 1.9-4.014 2.747-5.856 1.208z" fill="#8CC33D"/><path fill-rule="evenodd" clip-rule="evenodd" d="M17.825 13.966c-1.677-.708-1.657-1.952-1.217-2.966 0 0 2.26.569 1.217 2.966z" fill="#AB3B65"/><path fill-rule="evenodd" clip-rule="evenodd" d="M16.473 15.479c-.32-.375-.69-.525-1.173-.426a3.396 3.396 0 0 0-1.27.543c-.48.328-.751.669-.9.921a1.29 1.29 0 0 0-.21.66c-.034.875 1.178 1.72 2.346 2.378 1.168.657 1.947.59 1.925-.676-.012-.72-.16-2.745-.718-3.4z" fill="#E71324"/><path fill-rule="evenodd" clip-rule="evenodd" d="M19.684 15.097c-.579-.537-1.406-.831-2.111-.479-.666.333-.944.993-1.176 1.662-.176.51-.3 1.04-.42 1.566-.292 1.28.424 1.42 1.632.91 1.043-.438 2.191-.895 2.444-1.596.255-.556.296-1.447-.369-2.063z" fill="#D6DE23"/><path fill-rule="evenodd" clip-rule="evenodd" d="M19.353 14.835c-.289.125-.546.266-.688.39a2.478 2.478 0 0 1-.34-.757c.358.02.714.157 1.028.367z" fill="#00974A"/><path fill-rule="evenodd" clip-rule="evenodd" d="M20.054 17.16c-.077.211-.235.4-.447.574-.577-.07-1.143-.316-1.693-.776.64-.905 1.288-1.42 1.942-1.677.483.6.427 1.376.198 1.879z" fill="#6FBB43"/><path fill-rule="evenodd" clip-rule="evenodd" d="M17.192 18.913c-.95.302-1.471.058-1.215-1.066.12-.527.244-1.057.42-1.567.069-.196.14-.39.225-.578.436.807.558 2.525.57 3.177v.034z" fill="#B7292F"/></svg>