<svg width="36" height="36" fill="none" xmlns="http://www.w3.org/2000/svg"><path d="M18 0c2.837 0 5.52.656 7.907 1.825C31.884 4.753 36 10.895 36 18c0 9.942-8.058 18-18 18-9.94 0-18-8.057-18-18C0 8.06 8.06 0 18 0z" fill="#F2F4F7"/><path d="M12.552 15.463c-.355 0-.926.099-1.36.394v-1.872c0-.177-.098-.275-.256-.275H9.97c-.177 0-.275.078-.275.275v6.365c0 .177.098.276.256.276h.965c.178 0 .256-.099.256-.276v-3.094c0-.354.454-.59.926-.59.296 0 .513.058.65.196.119.118.178.296.178.532v2.956c0 .177.099.276.256.276h.966c.177 0 .256-.099.256-.276v-2.956c.02-1.34-.788-1.93-1.852-1.93zm-5.577 1.222c-1.123-.355-1.3-.572-1.3-.946 0-.375.355-.552.965-.552.572 0 1.34.178 1.596.237.197.039.296-.06.296-.217v-.67c0-.138-.04-.276-.256-.335-.473-.158-1.064-.256-1.813-.256-1.143 0-2.345.492-2.345 1.911 0 1.044.63 1.636 2.03 2.07 1.005.314 1.34.61 1.34 1.004 0 .433-.375.67-1.202.67-.867 0-1.675-.335-1.99-.414-.197-.059-.296.04-.296.197v.769c0 .216.158.295.315.354.04.02.907.375 1.99.375h.02c1.833 0 2.739-.769 2.739-2.03-.02-1.38-.926-1.793-2.089-2.167zm22.207-3.606a.493.493 0 0 0-.256-.079c-.138 0-.217.098-.217.256v1.005c0 .138.04.197.119.276 0 0 .02.02.078.06 1.064.728 1.695 1.832 1.695 3.21 0 1.38-.63 2.503-1.695 3.213a.34.34 0 0 1-.078.059c-.08.059-.119.138-.119.276v1.005c0 .157.08.256.217.256.079 0 .177-.04.256-.08 1.636-.886 2.818-2.6 2.818-4.708 0-2.168-1.163-3.882-2.818-4.75zM17.28 15.483c-.512 0-1.083.079-1.477.217-.158.04-.256.138-.256.335v.61c0 .138.079.257.335.198.295-.06.808-.178 1.3-.178.63 0 .966.296.966.769v.177a3.86 3.86 0 0 0-.985-.118c-1.32 0-2.148.61-2.148 1.714 0 .946.71 1.616 2.108 1.616h.276c.749 0 1.636-.237 1.872-.296.098-.02.276-.079.276-.295V17.67c0-.828-.138-1.3-.493-1.635-.335-.335-.926-.552-1.773-.552zm.868 4.059c-.079.02-.453.118-.867.118-.572 0-.848-.236-.848-.59 0-.356.237-.631.966-.631.296 0 .571.059.749.118v.985zm9.202-3.862h-.887c-.177 0-.276.098-.276.276v2.936c0 .335-.197.67-.729.67-.355 0-.69-.158-.69-.493v-3.113c0-.178-.098-.276-.275-.276h-.887c-.177 0-.276.098-.276.276v3.113c0 .355-.355.492-.729.492-.532 0-.69-.315-.69-.67v-2.935c0-.178-.098-.276-.276-.276h-.886c-.178 0-.276.098-.276.276v3.054c0 1.162.828 1.793 2.03 1.793.748 0 1.26-.276 1.517-.473.256.197.729.473 1.458.473 1.202 0 2.088-.493 2.088-1.793v-3.055c.06-.177-.039-.275-.216-.275z" fill="#0082BB"/></svg>