<svg height="36" viewBox="0 0 36 36" width="36" xmlns="http://www.w3.org/2000/svg"><mask id="a" fill="#fff"><path d="M0 0h12.113v4.362H0z" fill-rule="evenodd"/></mask><g fill="none" fill-rule="evenodd"><path d="M18 0c2.837 0 5.52.656 7.907 1.825C31.884 4.753 36 10.895 36 18c0 9.942-8.058 18-18 18-9.94 0-18-8.057-18-18C0 8.06 8.06 0 18 0z" fill="#f2f4f7" fill-rule="nonzero"/><path d="M9.084 2.556h1.559c.572 0 .653.218.653.452 0 .212-.075.453-.653.453H9.084zm0-1.65h1.555c.415 0 .464.213.464.376 0 .295-.161.453-.464.453H9.084zM8.267.084v4.198h2.376c.894 0 1.47-.5 1.47-1.274 0-.463-.248-.787-.474-.952.133-.151.284-.39.284-.774 0-.829-.643-1.198-1.28-1.198zm-3.873 0v4.198h3.581v-.821H5.211v-.953h2.417v-.821H5.211V.906h2.661V.084zM2.109 0C1.237 0 .31.469.31 1.34c0 .78.672 1.135 1.295 1.135h.588c.607 0 1.11.041 1.11.522 0 .4-.691.548-1.128.548-.754 0-1.134-.295-1.383-.489l-.227-.168-.073.076L0 3.439l.12.117c.266.262.818.807 2.015.807.989 0 1.989-.418 1.989-1.359 0-.885-.647-1.339-1.924-1.339h-.522c-.547 0-.547-.227-.547-.325 0-.382.596-.518.996-.518.549 0 .814.163 1.095.336l.219.131.066-.098.39-.559-.102-.076A2.802 2.802 0 0 0 2.109 0z" fill="#b9ad9d" mask="url(#a)" transform="translate(12 27.637)"/><path d="M20.829 25.569h.759c.177 0 .347.05.347.296 0 .232-.151.292-.347.292h-.76zm-6.205 0h.788c.189 0 .38.083.38.3 0 .284-.185.31-.416.31h-.752zm2.58-.036c.42 0 .734.316.734.703a.714.714 0 0 1-.734.708.717.717 0 0 1-.737-.708c0-.387.318-.704.737-.704zm5.308-.169v1.748h1.398v-.203h-1.19v-.603h1.19V26.1h-1.19v-.533h1.19v-.204zm-1.888 0v1.748h.205v-.747h.759c.308 0 .55-.13.55-.5 0-.415-.333-.5-.55-.5zm-2.094 0v1.07c0 .447.216.715.77.715.536 0 .773-.268.773-.716v-1.069h-.208v1.07c0 .37-.194.51-.565.51s-.566-.14-.566-.51v-1.07zm-4.114 0v1.748h.208v-.725h.694l.4.726h.238l-.405-.726c.206-.021.445-.144.445-.522 0-.452-.44-.5-.704-.5zm2.788-.04c-.54 0-.941.42-.941.912s.405.913.94.913c.539 0 .939-.42.939-.913s-.4-.912-.938-.912zm-3.941 0c-.576 0-.96.432-.96.901 0 .632.469.924.952.924.45 0 .792-.207.792-.526v-.463h-.806v.204h.602v.248c0 .162-.194.333-.576.333-.46 0-.756-.3-.756-.72 0-.357.298-.693.763-.693.289 0 .489.171.598.266l.139-.149c-.105-.1-.323-.325-.748-.325z" fill="#b9ad9d"/><path d="M16.095 24.568v-2.42L14.2 20.585l-1.895 1.563v2.42zm3.285-8.746h3.375V4h-3.486v6.434a5.697 5.697 0 0 0-1.69-.271c-3.128 0-5.204 2.276-5.29 4.712a4.488 4.488 0 0 0-.006.231c0 3.15 2.156 4.195 4.176 4.928l.148.054v-.004l.57.207c1.788.629 3.496 1.192 3.496 2.815 0 .575-.15 1.068-.416 1.463h3.649c.14-.528.21-1.084.21-1.663 0-4.37-3.846-5.492-4.725-5.746-2.726-.789-3.66-1.088-3.66-2.233 0-.914.697-1.558 1.704-1.582h.165c.767.019 1.355.398 1.59.983.016.035.037.088.066.178.1.309.13.624.125.916z" fill="#d5311a"/></g></svg>