<svg width="36" height="36" fill="none" xmlns="http://www.w3.org/2000/svg"><path d="M18 0c2.837 0 5.52.656 7.907 1.825C31.884 4.753 36 10.895 36 18c0 9.942-8.058 18-18 18-9.94 0-18-8.057-18-18C0 8.06 8.06 0 18 0z" fill="#F2F4F7"/><path d="M8.488 17.656c-.023.342-.16.936-.788.936H5.37c-.628 0-.765-.594-.788-.936a1.405 1.405 0 0 1-.022-.229c0-.08 0-.148.011-.205.011-.331.126-1.005.776-1.017h2.376c.65 0 .753.686.776 1.017 0 .057.012.125.012.205a1.92 1.92 0 0 0-.023.229zm.56-.457c-.012-.365-.115-1.096-.709-1.108H4.708c-.582.012-.685.754-.697 1.108 0 .057-.011.137-.011.217 0 .103 0 .183.011.251.023.377.149 1.028.72 1.028h3.597c.57 0 .696-.651.72-1.028 0-.068.01-.148.01-.251 0-.08 0-.149-.01-.217z" fill="#00A1DF"/><path d="m7.049 18.033 1.016.24v-.24H7.05zm1.016-1.53c0-.012 0-.012 0 0l-3.06.308s-.012 0-.012.011v.012l1.37.285c.126.023.218.103.218.183 0 .068-.069.114-.149.148h-.045l-1.382.24s-.012 0-.012.011c0 0 0 .012.012.012l3.06-.32s.012 0 .012-.011c0 0 0-.012-.012-.012l-1.347-.274c-.08-.023-.126-.034-.16-.057-.046-.034-.08-.08-.08-.125 0-.08.091-.138.206-.16l1.381-.252z" fill="#00A1DF"/><path d="m8.065 18.318-1.381-.32c-.08-.023-.149-.08-.138-.137 0-.057.069-.114.149-.125l1.37-.274s.012 0 .012-.012c0 0 0-.011-.012-.011l-3.06.33s-.012 0-.012.012v.012l3.072.548v-.023c0 .011 0 .011 0 0z" fill="#00A1DF"/><path d="m9.87 17.896.022.32c.103.17.389.285.571.285.309 0 .571-.16.571-.48 0-.16-.091-.274-.308-.342l-.514-.149c-.285-.091-.514-.308-.514-.628 0-.582.434-.81.97-.81.23 0 .469.045.686.125l.023.046c-.034.114-.046.33-.046.525h-.148l-.023-.297a.711.711 0 0 0-.491-.206c-.343 0-.503.195-.503.446 0 .16.115.285.389.354l.422.114c.343.091.548.297.548.628 0 .628-.514.88-1.073.88-.263 0-.525-.058-.765-.172a2.99 2.99 0 0 0 .057-.628h.125v-.011zm2.02-.423c0-.205-.01-.251-.09-.251l-.16-.012v-.137c.25-.011.468-.09.685-.16l.023.023v.274l.296-.228c.092-.068.194-.068.274-.068.217 0 .4.09.469.296l.296-.228c.092-.068.195-.068.275-.068.388 0 .513.194.513.673v.686c0 .09 0 .137.012.17.011.035.045.058.114.058l.126.011v.137c-.137 0-.24-.011-.354-.011-.114 0-.229.011-.343.011v-.993c0-.183-.034-.274-.091-.343a.33.33 0 0 0-.229-.08c-.148 0-.285.149-.285.252v.799c0 .091 0 .137.011.171.012.034.046.057.114.057l.126.012v.137c-.16 0-.308-.012-.49-.012-.16 0-.32.012-.458.012v-.137l.114-.012c.08 0 .103-.023.115-.057.011-.034.011-.08.011-.171v-.628c0-.183-.034-.274-.091-.343a.33.33 0 0 0-.229-.08c-.148 0-.285.149-.285.252v.799c0 .091 0 .137.011.171.012.034.046.057.115.057l.102.012v.137c-.125 0-.285-.012-.468-.012-.16 0-.32.012-.468.012v-.137l.126-.012c.08-.011.102-.023.114-.057.011-.034.011-.08.011-.171v-.81h-.011zm2.924 0c0-.205-.011-.251-.091-.251l-.16-.012v-.137c.137-.022.274-.034.41-.08l.252-.08.034.023v.96c0 .24.012.48.297.48.126 0 .24-.08.309-.184a.316.316 0 0 0 .034-.148v-.57c0-.206-.012-.252-.091-.252l-.16-.012v-.137c.137-.022.274-.034.41-.08l.252-.08.034.023v1.337c0 .09 0 .137.012.17.011.035.045.058.114.058l.125.011v.137c-.148 0-.308-.011-.41-.011-.058 0-.16.011-.309.011l.023-.308-.274.274a.377.377 0 0 1-.24.08c-.4 0-.571-.228-.571-.571v-.65zm2.158 0c0-.205-.011-.251-.091-.251l-.16-.012v-.137c.137-.022.274-.034.411-.08l.251-.08.035.023v.343l.16-.171c.102-.114.182-.194.285-.194a.35.35 0 0 1 .16.022l-.023.469-.091.034a.235.235 0 0 0-.217-.137c-.137 0-.286.137-.286.24v.719c0 .091 0 .137.012.171.011.035.08.057.16.057l.137.012v.137c-.218 0-.366-.012-.549-.012-.16 0-.32.012-.468.012V18.5l.126-.012c.08-.011.103-.022.114-.057.011-.034.011-.08.011-.171v-.788h.023zm2.433-1.096-.058.023a.44.44 0 0 0-.228-.092c-.228 0-.228.149-.228.343v.4c.16 0 .33-.012.48-.012l.01.034-.045.217h-.457v.994c0 .091 0 .137.012.171.011.034.091.057.171.057l.16.012v.137c-.24 0-.4-.012-.582-.012-.16 0-.32.012-.514.012v-.137l.148-.012c.08 0 .126-.023.137-.057.011-.034.011-.08.011-.171v-.994l-.285.023v-.091a1.69 1.69 0 0 0 .285-.16v-.183c0-.285.023-.342.206-.502l.274-.229c.171-.137.251-.148.343-.148.045 0 .102.011.148.023v.354h.012zm.89-.046a.278.278 0 0 1-.274.274.278.278 0 0 1-.274-.274.27.27 0 0 1 .274-.274.27.27 0 0 1 .274.274zm-.49 1.142c0-.205-.012-.251-.092-.251l-.16-.012v-.137c.137-.022.274-.034.411-.08l.251-.08.035.023v1.337c0 .09 0 .137.011.17.012.035.046.058.114.058l.126.011v.137c-.16 0-.309-.011-.491-.011-.16 0-.32.011-.468.011v-.137l.125-.011c.08-.012.103-.023.114-.057.012-.034.012-.08.012-.171v-.8h.011zm.913-.205-.24.011v-.08l.24-.16v-.205c0-.114-.012-.229-.012-.331a6.91 6.91 0 0 0 .446-.183l.057.034a2.346 2.346 0 0 0-.046.503v.216l.423-.022-.035.24h-.388v.867c0 .183.057.24.229.24.08 0 .114-.023.17-.046l.035.069-.183.217c-.023.034-.102.068-.228.068-.331 0-.468-.137-.468-.468v-.97zm1.792-.618c0-.148 0-.25-.022-.296-.012-.034-.057-.046-.149-.046l-.137-.011v-.149c.149 0 .354.012.571.012.217 0 .423-.012.571-.012v.149l-.137.011c-.091.012-.137.023-.148.046-.023.046-.023.148-.023.297v.674c0 .011.011.023.034.023l.685-.674a6.71 6.71 0 0 0 .286-.309.18.18 0 0 0 .057-.137v-.08c.114 0 .228.012.331.012.114 0 .228-.012.331-.012v.149c-.148.011-.297.023-.4.125l-.81.754.97 1.142c.08.091.172.183.332.183v.148c-.126 0-.24-.011-.366-.011s-.251.011-.377.011l-.765-.913c-.08-.103-.205-.252-.274-.286-.034 0-.046.023-.046.035v.662c0 .148 0 .251.023.297.012.034.057.045.149.045l.137.012v.148c-.149 0-.354-.011-.571-.011-.217 0-.423.011-.571.011v-.148l.137-.012c.091-.011.137-.023.148-.045.023-.046.023-.149.023-.297V16.65h.012zm3.346 1.143-.16.046c-.194.057-.342.09-.342.33 0 .15.091.218.194.218a.45.45 0 0 0 .308-.16v-.434zm0-.16c0-.251-.102-.434-.376-.434-.058 0-.195.023-.206.046l-.08.182-.114-.022v-.252l.194-.114a.87.87 0 0 1 .423-.125c.32 0 .616.148.605.536 0 .149-.012.297-.012.446 0 .148.012.308.012.456 0 .092.023.137.103.149l.114.011v.137c-.114 0-.217-.011-.32-.011-.103 0-.206.011-.331.011l-.023-.034.023-.228-.343.262c-.057.046-.137.046-.205.046-.274 0-.411-.183-.411-.445 0-.137.045-.309.17-.389a1.3 1.3 0 0 1 .458-.17l.32-.058z" fill="#000"/><path d="M27.113 18.25a.44.44 0 0 0 .376.205c.343 0 .423-.365.423-.64 0-.296-.126-.57-.457-.57a.403.403 0 0 0-.342.182v.823zm-.446-.777c0-.205-.011-.251-.091-.251l-.16-.012v-.137c.137-.022.274-.034.411-.08l.251-.08.035.023v.297l.228-.182a.571.571 0 0 1 .377-.137c.388 0 .662.296.662.685 0 .148-.034.297-.08.422a.8.8 0 0 1-.262.354c-.092.069-.183.149-.286.217-.126.08-.217.114-.297.114-.114 0-.228-.034-.331-.057v.571c0 .092 0 .137.011.172.012.034.046.057.115.057l.16.011v.137c-.195 0-.343-.011-.537-.011-.16 0-.32.011-.469.011v-.137l.126-.011c.08-.012.103-.023.114-.057.012-.035.012-.08.012-.172v-1.747h.011zm2.421.777c.08.125.217.205.377.205.343 0 .422-.365.422-.64 0-.296-.125-.57-.456-.57a.403.403 0 0 0-.343.182v.823zm-.445-.777c0-.205-.012-.251-.092-.251l-.16-.012v-.137c.138-.022.275-.034.412-.08l.25-.08.035.023v.297l.229-.182a.571.571 0 0 1 .376-.137c.389 0 .663.296.663.685 0 .148-.035.297-.08.422a.8.8 0 0 1-.263.354c-.091.069-.183.149-.285.217-.126.08-.217.114-.297.114-.114 0-.229-.034-.332-.057v.571c0 .092 0 .137.012.172.011.034.046.057.114.057l.16.011v.137c-.194 0-.343-.011-.537-.011-.16 0-.32.011-.468.011v-.137l.126-.011c.08-.012.102-.023.114-.057a.611.611 0 0 0 .011-.172v-1.747h.012zm2.695.32-.16.046c-.194.057-.343.09-.343.33 0 .15.092.218.194.218a.477.477 0 0 0 .309-.16v-.434zm0-.16c0-.251-.103-.434-.377-.434-.057 0-.194.023-.206.046l-.08.182-.114-.022v-.252l.194-.114a.87.87 0 0 1 .423-.125c.32 0 .616.148.605.536 0 .149-.011.297-.011.446 0 .148.011.308.011.456 0 .092.023.137.103.149l.114.011v.137c-.114 0-.217-.011-.32-.011-.102 0-.205.011-.33.011l-.024-.034.023-.228-.343.262c-.057.046-.137.046-.205.046-.274 0-.411-.183-.411-.445 0-.137.046-.309.171-.389a1.3 1.3 0 0 1 .457-.17l.32-.058z" fill="#000"/></svg>