<svg height="36" viewBox="0 0 36 36" width="36" xmlns="http://www.w3.org/2000/svg"><mask id="a" fill="#fff"><path d="M0 0h28v6.335H0z" fill-rule="evenodd"/></mask><g fill="none" fill-rule="evenodd"><path d="M18 0c2.837 0 5.52.656 7.907 1.825C31.884 4.753 36 10.895 36 18c0 9.942-8.058 18-18 18-9.94 0-18-8.057-18-18C0 8.06 8.06 0 18 0z" fill="#f2f4f7" fill-rule="nonzero"/><path d="M.987 4.324c0 .125.087.19.184.19.096 0 .18-.067.18-.19v-.49c0-.391-.084-.533-.374-.806l-.532-.504C.24 2.33.004 2.061.004 1.557V.936C.004.254.57 0 1.17 0c.596 0 1.159.26 1.159.931v.802H1.35V.955c0-.122-.084-.19-.181-.19-.096 0-.183.065-.183.19v.373c0 .324.102.466.37.722l.539.524c.336.329.452.625.452 1.033v.695c0 .722-.581.976-1.18.976C.566 5.278 0 5.024 0 4.336v-.994h.987zm21.475 1.185c0 .122-.084.189-.181.189-.096 0-.183-.065-.183-.189v-.335h-.876v.227c0 .646.447.934 1.056.934.605 0 1.06-.288 1.06-.934V1.072h-.863l-.013.289h-.021a.682.682 0 0 0-.578-.338c-.316 0-.64.242-.64.692v2.468c0 .473.304.749.645.749a.681.681 0 0 0 .568-.302h.026zm0-1.453c0 .122-.084.19-.181.19-.096 0-.183-.065-.183-.19v-2.09c0-.125.087-.189.183-.189.097 0 .18.066.18.189zm4.48-2.282c-.097 0-.184.065-.184.19v3.242h-.877V1.072h.859l.017.287h.019c.083-.115.295-.336.588-.336.34 0 .636.275.636.712v1.552h-.878v-1.35c0-.099-.094-.163-.182-.163zm-2.15.887v-.77c0-.122-.084-.189-.18-.189-.097 0-.184.064-.184.189v.77zm-.364 1.73c0 .124.087.19.184.19.096 0 .18-.068.18-.19V3.57h.877v.754c0 .624-.514.932-1.061.932-.555 0-1.057-.308-1.057-.932V1.955c0-.621.5-.932 1.056-.932.569 0 1.062.318 1.062.932v1.337h-1.241zM19.95 1.774c-.095 0-.183.065-.183.19v3.242h-.877V1.072h.86l.017.287h.019c.083-.115.294-.336.587-.336.34 0 .636.275.636.712v1.552h-.877v-1.35c0-.099-.095-.163-.183-.163zm-2.151.887v-.77c0-.122-.085-.189-.181-.189-.097 0-.184.064-.184.189v.77zm-.365 1.73c0 .124.087.19.184.19.096 0 .18-.068.18-.19V3.57h.877v.754c0 .624-.513.932-1.061.932-.555 0-1.057-.308-1.057-.932V1.955c0-.621.502-.932 1.056-.932.57 0 1.062.318 1.062.932v1.337h-1.24v1.099zm-1.97-.076c0 .123-.084.191-.182.191-.096 0-.183-.066-.183-.191v-2.35c0-.125.087-.19.183-.19.097 0 .182.068.182.19zm.213-3.293c-.293 0-.504.248-.56.339h-.018V.017h-.877v5.189h.867l.01-.289h.018a.61.61 0 0 0 .554.338c.37.001.673-.32.673-.803V1.774c0-.465-.315-.752-.667-.752zm-4.155 4.184h-.876V1.072h.868l.009.288h.018a.678.678 0 0 1 .589-.337.63.63 0 0 1 .582.4h.013a.717.717 0 0 1 .626-.4c.336 0 .657.227.657.79v3.393h-.876V1.962c0-.125-.086-.19-.183-.19s-.182.067-.182.19v3.244h-.881V1.964c0-.125-.087-.191-.184-.191s-.18.068-.18.191zm-1.966-.892c0 .122-.085.19-.182.19-.095 0-.182-.065-.182-.19V1.072h-.877v3.443c0 .456.315.741.653.741a.682.682 0 0 0 .58-.339h.02l.016.289h.848V1.072h-.876zM5.769 2.003c0-.125.086-.19.183-.19s.18.068.18.19v3.203h.878V1.774c0-.559-.362-.752-.64-.752a.709.709 0 0 0-.585.337H5.77V.017h-.877v5.189h.875zM3.803 1.89c0-.122-.085-.189-.181-.189-.097 0-.183.065-.183.189v2.498c0 .125.086.191.183.191.096 0 .18-.068.18-.191V3.57h.877v.755c0 .612-.482.931-1.061.931-.555 0-1.055-.309-1.055-.931V1.954c0-.621.5-.931 1.055-.931.57 0 1.06.32 1.06.931v.676h-.875zm3.422 3.314h.877V.017h-.877z" fill="#234b8d" mask="url(#a)" transform="translate(4 15)"/></g></svg>