<svg width="36" height="36" fill="none" xmlns="http://www.w3.org/2000/svg"><path d="M18 0c2.837 0 5.52.656 7.907 1.825C31.884 4.753 36 10.895 36 18c0 9.942-8.058 18-18 18-9.94 0-18-8.057-18-18C0 8.06 8.06 0 18 0z" fill="#F2F4F7"/><circle cx="18" cy="18" r="14" fill="#2380BA"/><path d="M16.445 11.778v2.395h-2.396c-.296 0-.498.343-.404.623l2.706 7.482a1.447 1.447 0 0 1-1.353 1.944h-4.776v-2.395h2.645c.28 0 .466-.311.389-.576l-2.645-7.249a1.65 1.65 0 0 1 1.556-2.224h4.278z" fill="#fff"/><path d="M17.222 11.778v12.444h7.95l-2.894-2.395h-1.945v-10.05h-3.11zm5.445 9.364 3.11 2.567v-8.82h-3.11v6.253zm0-7.03h3.11v-2.334h-3.11v2.333z" fill="#FBAF42"/></svg>