<svg width="36" height="36" fill="none" xmlns="http://www.w3.org/2000/svg"><path d="M18 0c2.837 0 5.52.656 7.907 1.825C31.884 4.753 36 10.895 36 18c0 9.942-8.058 18-18 18-9.94 0-18-8.057-18-18C0 8.06 8.06 0 18 0z" fill="#F2F4F7"/><path d="M31.305 20.033a.349.349 0 0 1 .695 0 .349.349 0 0 1-.695 0zm.639 0a.289.289 0 0 0-.29-.28.279.279 0 0 0-.28.284c0 .154.131.28.285.28a.275.275 0 0 0 .21-.084.263.263 0 0 0 .075-.2zm-.406-.178h.121c.08 0 .131.033.131.103 0 .042-.028.084-.07.093l.089.15h-.08l-.084-.136h-.037v.136h-.075v-.346h.005zm.117.15c.037 0 .06-.02.06-.052 0-.037-.023-.046-.06-.046h-.042v.098h.042zm-11.387-5.96h-.523v4.658h.523v-4.658zm1.736 0h-.523v4.658h.523v-4.658zm1.741 1.555h-.523v3.103h.523v-3.104zm.915 1.595v-.046c0-.934.601-1.582 1.455-1.582.719 0 1.4.429 1.4 1.535v.159h-2.342c.023.704.364 1.092.998 1.092.481 0 .761-.178.826-.537h.495c-.107.62-.625.943-1.325.943-.882 0-1.508-.616-1.508-1.564zm2.347-.331c-.047-.635-.378-.896-.892-.896-.513 0-.844.34-.928.896h1.82zm-10.79.985c0-.714.752-.957 1.559-.957h.453v-.224c0-.49-.192-.695-.668-.695-.429 0-.667.177-.714.555h-.499c.065-.7.63-.961 1.232-.961s1.134.242 1.134 1.101v2.035h-.495v-.388a1.122 1.122 0 0 1-.97.448c-.579 0-1.036-.28-1.036-.91l.004-.004zm2.007-.22v-.392h-.43c-.625 0-1.082.15-1.082.607 0 .317.15.518.588.518.523 0 .924-.266.924-.747m6.426 4.373c0-.714.76-.957 1.559-.957h.452v-.224c0-.49-.191-.695-.667-.695-.43 0-.667.177-.714.555h-.495c.066-.704.63-.96 1.232-.96s1.134.242 1.134 1.1v2.035h-.494v-.392a1.117 1.117 0 0 1-.971.448c-.579 0-1.036-.275-1.036-.905v-.005zm2.007-.22v-.391h-.43c-.625 0-1.082.15-1.082.606 0 .318.149.518.588.518.522 0 .924-.266.924-.746m1.39-.42v-.047c0-.933.602-1.582 1.456-1.582.719 0 1.396.43 1.396 1.535v.16H28.56c.023.704.364 1.091.998 1.091.481 0 .752-.177.826-.537h.495c-.107.621-.625.943-1.325.943-.878 0-1.503-.616-1.508-1.563zm2.352-.332c-.046-.634-.378-.896-.891-.896s-.845.341-.929.896h1.82zm-17.425-3.248h.48c.038.364.234.598.733.598.472 0 .677-.159.677-.49 0-.332-.243-.43-.728-.518-.807-.15-1.083-.374-1.083-.91 0-.574.565-.868 1.055-.868.56 0 1.04.224 1.125.896h-.476c-.075-.346-.262-.495-.658-.495-.36 0-.588.177-.588.448 0 .27.149.387.723.49.644.117 1.092.261 1.092.915 0 .56-.387.938-1.139.938-.756 0-1.19-.374-1.218-1.004" fill="#5078A1"/><path d="M23.124 14.288c0-.22.177-.397.401-.397a.397.397 0 1 1 0 .794.4.4 0 0 1-.401-.397zm-12.46 0c0-.159.098-.303.247-.369a.404.404 0 0 1 .439.089c.117.112.15.285.084.434a.399.399 0 0 1-.373.243.4.4 0 0 1-.397-.397z" fill="#F26D6B"/><path d="M22.755 19.706a.966.966 0 0 0-.854.485.805.805 0 0 0-.76-.485c-.364-.01-.71.177-.896.49v-.457h-.5v3.108h.523v-1.792c0-.546.369-.896.681-.896.383 0 .537.205.537.746v1.942h.523v-1.792c0-.556.266-.896.644-.896s.574.205.574.746v1.942h.522v-1.932c-.004-.901-.466-1.21-.994-1.21z" fill="#5078A1"/><path d="M8.004 20.845h-.523c0-2.889.654-4.476 2.39-5.885l.322.392c-1.615 1.316-2.189 2.753-2.189 5.493z" fill="#94ADC6"/><path d="M8.004 20.672h-.523v2.146h.523v-2.146zM6.24 13h-.5v10.883h.5V13zM4.5 17.461H4v5.358h.5V17.46z" fill="#94ADC6"/></svg>