<svg width="36" height="36" fill="none" xmlns="http://www.w3.org/2000/svg"><defs><radialGradient id="a" cx="0" cy="0" r="1" gradientUnits="userSpaceOnUse" gradientTransform="translate(4.016 14.924) scale(5.78986)"><stop offset=".238" stop-color="#E7B041"/><stop offset=".882" stop-color="#C7352D"/></radialGradient><radialGradient id="c" cx="0" cy="0" r="1" gradientUnits="userSpaceOnUse" gradientTransform="matrix(5.36147 0 0 5.36127 8.061 16.375)"><stop offset=".238" stop-color="#E7AE40"/><stop offset=".852" stop-color="#C9382F"/></radialGradient><linearGradient id="b" x1="9.151" y1="16.919" x2="4.51" y2="20.641" gradientUnits="userSpaceOnUse"><stop offset=".1" stop-color="#C9382F"/><stop offset=".197" stop-color="#D15734"/><stop offset=".475" stop-color="#E7AE40"/><stop offset=".9" stop-color="#C9382F"/></linearGradient></defs><path d="M18 0c2.837 0 5.52.656 7.907 1.825C31.884 4.753 36 10.895 36 18c0 9.942-8.058 18-18 18-9.94 0-18-8.057-18-18C0 8.06 8.06 0 18 0z" fill="#F2F4F7"/><path fill-rule="evenodd" clip-rule="evenodd" d="M11.887 16.245c.926 0 1.303.355 1.303 1.226v.674c0 .871-.39 1.243-1.303 1.243h-.559v-3.143h.559zm1.913 1.9v-.674c0-1.16-.646-1.774-1.868-1.774h-1.208v4.232h1.208c1.24 0 1.868-.6 1.868-1.784zm1.262-.305.71.318c.455.207.539.39.539.678 0 .44-.249.636-.806.636a9.8 9.8 0 0 1-1.18-.073l-.051-.006v.487l.034.008c.165.043.705.12 1.197.12.917 0 1.421-.416 1.421-1.171 0-.571-.257-.918-.889-1.196l-.715-.312c-.45-.198-.532-.375-.532-.65 0-.369.227-.512.81-.512.43 0 .93.05 1.125.072l.05.006v-.493l-.034-.008a5.826 5.826 0 0 0-1.157-.113c-.946 0-1.406.343-1.406 1.048 0 .547.257.884.884 1.162zm4.88-.199-.715-.311c-.45-.199-.532-.375-.532-.65 0-.37.227-.513.81-.513.445 0 .973.055 1.125.072l.05.006v-.492l-.034-.008a5.802 5.802 0 0 0-1.158-.114c-.944 0-1.404.343-1.404 1.049 0 .548.256.884.883 1.16l.71.318c.455.208.538.391.538.678 0 .446-.24.636-.805.636-.51 0-.918-.042-1.18-.073l-.05-.006v.488l.034.008c.165.043.706.118 1.196.118.93 0 1.421-.405 1.421-1.17 0-.571-.257-.918-.889-1.196zm4.44-.945c-.3 0-.606.101-.938.311-.14-.21-.367-.311-.69-.311-.366 0-.667.14-.872.276v-.199h-.588v3.157h.588v-2.467c.208-.116.5-.248.754-.248.376 0 .376.2.376.635v2.08h.592v-2.08c0-.123 0-.262-.018-.4.259-.145.536-.235.728-.235.414 0 .414.2.414.635v2.08h.593v-2.08c0-.46 0-1.155-.94-1.155zm1.582 3.233h.594v-3.155h-.593v3.155zm2.218-3.952h-.594v.796h-.62v.462l.62.044v1.903c0 .602.219.825.806.825.245 0 .496-.057.58-.086l.03-.01v-.428l-.05.006a5.646 5.646 0 0 1-.505.027c-.25 0-.267-.024-.267-.356v-1.878h.823v-.509h-.823v-.796zm2.788.719c-.323 0-.644.075-.956.223v-1.394h-.589v4.405h.589v-2.508c.213-.1.543-.201.855-.201.364 0 .537.108.537.724v1.985H32v-2.002c0-.83-.337-1.232-1.03-1.232" fill="#5B5C5C"/><path d="M6.854 15H4c0 .544.139 1.054.384 1.494.495.894 1.417 1.494 2.473 1.494 1.057 0 1.98-.6 2.474-1.494C8.833 15.6 7.91 15 6.854 15z" fill="url(#a)"/><path d="M6.99 18.021c1.28 0 2.006-.663 2.34-1.693a2.848 2.848 0 0 1-2.473 1.445c-1.056 0-1.978.58-2.473 1.445-.242.421-.38.908-.384 1.426.075-.425.31-.825.512-1.178a2.857 2.857 0 0 1 2.477-1.445z" fill="url(#b)"/><path d="M9.329 16.41c-.014-.028-.032-.057-.046-.082-.332 1.026-1.052 1.687-2.322 1.687a2.821 2.821 0 0 0-2.453 1.438c-.201.352-.434.75-.508 1.174v.018h2.83a2.822 2.822 0 0 0 2.453-1.44 2.913 2.913 0 0 0 .046-2.794z" fill="url(#c)"/></svg>