<svg height="36" viewBox="0 0 36 36" width="36" xmlns="http://www.w3.org/2000/svg"><mask id="a" fill="#fff"><path d="M0 0h28v5.231H0z" fill-rule="evenodd"/></mask><g fill="none" fill-rule="evenodd"><path d="M18 0c2.837 0 5.52.656 7.907 1.825C31.884 4.753 36 10.895 36 18c0 9.942-8.058 18-18 18-9.94 0-18-8.057-18-18C0 8.06 8.06 0 18 0z" fill="#f2f4f7" fill-rule="nonzero"/><path d="M12.815 1.095V3.47c0 1.099.27 1.76 1.612 1.76.137 0 .33-.006.438-.016v-.728a5.645 5.645 0 0 1-.272.007c-.718 0-.88-.218-.88-.897V1.095zM26.14 3.459c.71.088.956.083.956.554 0 .394-.07.52-.664.52h-2.467v.699h2.391c1.121 0 1.611-.297 1.642-1.054a7.592 7.592 0 0 0 0-.427c-.022-.677-.44-.848-1.336-.955l-.947-.114c-.697-.086-.94-.07-.94-.49 0-.28.115-.398.567-.398h2.298v-.7H25.4c-1.02 0-1.54.252-1.54 1.018 0 .093-.003.143 0 .252.022.677.394.868 1.325.979zm-23.859 0c.71.088.955.083.955.554 0 .394-.07.52-.663.52H.104v.699h2.391c1.123 0 1.612-.297 1.643-1.054.003-.093.003-.317 0-.427-.022-.677-.44-.848-1.336-.955l-.948-.114c-.697-.086-.94-.07-.94-.49 0-.28.115-.398.568-.398h2.296v-.7H1.542c-1.02 0-1.54.252-1.54 1.018 0 .093-.004.143 0 .252.021.677.393.868 1.323.979zm6.043-2.02c-.244-.206-.603-.311-1.119-.336a5.584 5.584 0 0 0-.615 0c-.569.017-1.17.184-1.59.45v3.679h.898v-3.24c.202-.124.518-.176.737-.184.2-.006.317-.01.483 0 .481.025.756.222.756.74v2.684h.898V2.6c0-.22-.027-.4-.074-.555.185-.158.532-.237.771-.245.2-.007.33-.01.498 0 .496.024.754.222.754.739v2.693h.9v-2.64c0-1.06-.42-1.482-1.567-1.497-.192-.003-.273-.005-.586 0-.427.006-.86.124-1.144.344m9.725 3.038c-.185.018-.37.026-.515.026-.66 0-.877-.175-.877-.898V1.764h1.218v-.67h-1.218V0h-.899v1.095H14.8v.669h.958v1.715c0 1.295.45 1.753 1.651 1.753.184 0 .427-.013.64-.035zM18.971 0v5.232h.897V2.036c.178-.127.507-.218.88-.232.098-.002.287-.001.41 0 .643.015.93.298.93.932v2.496h.897V2.65c0-1.092-.463-1.537-1.577-1.556a16.916 16.916 0 0 0-.596 0c-.344.008-.677.073-.943.232V0z" fill="#0081c6" mask="url(#a)" transform="translate(4 15)"/></g></svg>