<svg width="36" height="36" fill="none" xmlns="http://www.w3.org/2000/svg"><path d="M18 0c2.837 0 5.52.656 7.907 1.825C31.884 4.753 36 10.895 36 18c0 9.942-8.058 18-18 18-9.94 0-18-8.057-18-18C0 8.06 8.06 0 18 0z" fill="#F2F4F7"/><path fill-rule="evenodd" clip-rule="evenodd" d="M10.893 16.833h-.447a.078.078 0 0 0-.08.08v1.928c0 .042.038.08.08.08h.447c.045 0 .08-.035.08-.08v-1.928a.08.08 0 0 0-.08-.08zM10.65 16c-.208 0-.321.106-.321.303s.113.303.322.303c.208 0 .322-.106.322-.303S10.859 16 10.65 16zm2.24 2.44c-.039-.069-.08-.073-.16-.035a.469.469 0 0 1-.193.042c-.148 0-.322-.064-.322-.364v-.806h.595a.08.08 0 0 0 .08-.08v-.288a.08.08 0 0 0-.08-.08h-.595v-.579c0-.053-.045-.064-.072-.06l-.432.086a.105.105 0 0 0-.083.099v.455h-.31a.08.08 0 0 0-.08.08v.29c0 .043.034.08.08.08h.31v.955c0 .45.3.72.795.72a.942.942 0 0 0 .512-.133c.087-.057.102-.11.053-.2l-.099-.183zm1.556-1.645c-.193 0-.382.061-.53.125v-.803a.08.08 0 0 0-.08-.08h-.435a.08.08 0 0 0-.08.08v2.72c0 .042.034.08.08.08h.435a.08.08 0 0 0 .08-.08v-1.379a1.03 1.03 0 0 1 .44-.125c.283 0 .344.16.344.42v1.084c0 .042.034.08.08.08h.435a.08.08 0 0 0 .08-.08v-1.25c-.004-.504-.31-.792-.849-.792zm-5.36 0c-.246 0-.523.125-.682.235-.147-.166-.37-.235-.647-.235-.201 0-.413.076-.591.178l-.03-.064c-.031-.06-.046-.08-.103-.08h-.295a.08.08 0 0 0-.08.08v1.928c0 .042.034.08.08.08h.435a.08.08 0 0 0 .08-.08v-1.379a.88.88 0 0 1 .405-.125c.28 0 .337.156.337.42v1.084c0 .042.034.08.08.08h.435a.08.08 0 0 0 .08-.08v-1.246c0-.038-.004-.091-.008-.129a.883.883 0 0 1 .413-.129c.28 0 .337.156.337.42v1.084c0 .042.034.08.08.08h.436a.08.08 0 0 0 .08-.08v-1.246c-.016-.515-.312-.796-.842-.796zm-3.742.365-.254-.069c-.265-.072-.44-.136-.44-.3 0-.23.28-.253.497-.253.22 0 .473.05.75.151.064.023.102.016.125-.049l.106-.318c.022-.068.015-.098-.057-.129A2.162 2.162 0 0 0 5.158 16c-.542 0-1.125.208-1.125.803 0 .428.261.67.932.86l.291.08c.311.083.436.136.436.33 0 .196-.186.321-.504.321-.269 0-.538-.068-.886-.216-.08-.026-.133-.026-.163.05l-.125.318c-.03.08-.011.117.057.151.322.16.75.262 1.117.262.652-.004 1.125-.326 1.125-.936 0-.565-.348-.697-.97-.864zm11.724.696h-1.436c-.042 0-.08.034-.08.076v.379c0 .041.034.076.08.076h1.436c.041 0 .08-.035.08-.076v-.379a.077.077 0 0 0-.08-.076zm10.022-.189c.016-.266.19-.402.444-.402.19 0 .398.121.398.402h-.841zm.448-.872c-.622 0-1.072.459-1.072 1.088 0 .651.431 1.072 1.102 1.072.307 0 .572-.069.807-.212.06-.038.072-.099.038-.167l-.11-.205c-.03-.057-.08-.072-.148-.038a1.14 1.14 0 0 1-.511.13c-.322 0-.515-.122-.546-.433h1.288c.072 0 .129 0 .129-.31-.004-.56-.386-.925-.977-.925zm-7.682.872c.015-.266.189-.402.443-.402.19 0 .398.121.398.402h-.841zm.446-.872c-.62 0-1.072.459-1.072 1.088 0 .651.432 1.072 1.103 1.072.307 0 .572-.069.807-.212.06-.038.072-.099.038-.167l-.11-.205c-.03-.057-.08-.072-.148-.038a1.14 1.14 0 0 1-.511.13c-.322 0-.516-.122-.546-.433h1.288c.072 0 .129 0 .129-.31-.004-.56-.387-.925-.978-.925z" fill="#FF9E18"/><mask id="a" style="mask-type:alpha" maskUnits="userSpaceOnUse" x="28" y="16" width="4" height="3"><path fill-rule="evenodd" clip-rule="evenodd" d="M28.617 16.814H32v2.073h-3.383v-2.073z" fill="#fff"/></mask><g mask="url(#a)"><path fill-rule="evenodd" clip-rule="evenodd" d="M31.947 16.814h-.443a.128.128 0 0 0-.11.08l-.371 1.254-.42-1.254a.13.13 0 0 0-.114-.08h-.36a.134.134 0 0 0-.114.08l-.42 1.254-.364-1.254c-.011-.045-.06-.08-.106-.08h-.459c-.041 0-.06.027-.049.065l.644 1.928a.13.13 0 0 0 .11.08h.379a.134.134 0 0 0 .113-.08l.44-1.258.428 1.258a.13.13 0 0 0 .114.08h.382a.134.134 0 0 0 .114-.08l.655-1.928c.012-.038-.007-.065-.05-.065z" fill="#FF9E18"/></g><path fill-rule="evenodd" clip-rule="evenodd" d="M22.632 18.417a.938.938 0 0 1-.424-.106v-.857a.88.88 0 0 1 .405-.125c.345 0 .56.209.56.546 0 .333-.207.542-.54.542zm.068-1.622c-.189 0-.378.057-.575.178l-.03-.064c-.031-.06-.046-.08-.103-.08h-.295a.08.08 0 0 0-.08.08v2.762c0 .041.034.08.08.08h.435a.08.08 0 0 0 .08-.08v-.788c.087.03.23.068.466.068.636 0 1.102-.459 1.102-1.095-.004-.705-.44-1.06-1.08-1.06zm2.542 0c-.193 0-.383.061-.53.125v-.803a.08.08 0 0 0-.08-.08h-.435a.08.08 0 0 0-.08.08v2.72c0 .042.034.08.08.08h.435a.08.08 0 0 0 .08-.08v-1.379c.132-.072.31-.125.44-.125.283 0 .344.16.344.42v1.084c0 .042.034.08.08.08h.435a.08.08 0 0 0 .08-.08v-1.25c-.004-.504-.311-.792-.849-.792zm-8.667.531h-.409a.078.078 0 0 0-.08.08v1.435c0 .042.035.08.08.08h.41a.078.078 0 0 0 .079-.08v-1.436a.078.078 0 0 0-.08-.08z" fill="#FF9E18"/><path fill-rule="evenodd" clip-rule="evenodd" d="M18.772 16.038h-.443a.08.08 0 0 0-.08.08V18l-1.42-1.875c-.053-.072-.087-.087-.19-.087h-.473a.08.08 0 0 0-.08.08v.928a.08.08 0 0 0 .08.079h.402a.08.08 0 0 0 .08-.08V16.8l1.533 2.023c.053.072.106.095.201.095h.394a.08.08 0 0 0 .08-.08v-2.72a.083.083 0 0 0-.084-.08z" fill="#FF9E18"/></svg>