<svg height="36" viewBox="0 0 36 36" width="36" xmlns="http://www.w3.org/2000/svg"><mask id="a" fill="#fff"><path d="M0 0h2.198v2.424H0z" fill-rule="evenodd"/></mask><mask id="b" fill="#fff"><path d="M0 0h2.226v2.443H0z" fill-rule="evenodd"/></mask><mask id="c" fill="#fff"><path d="M0 0h2.226v2.435H0z" fill-rule="evenodd"/></mask><mask id="d" fill="#fff"><path d="M0 0h2.39v2.468H0z" fill-rule="evenodd"/></mask><g fill="none" fill-rule="evenodd"><path d="M18 0c2.837 0 5.52.656 7.907 1.825C31.884 4.753 36 10.895 36 18c0 9.942-8.058 18-18 18-9.94 0-18-8.057-18-18C0 8.06 8.06 0 18 0z" fill="#f2f4f7" fill-rule="nonzero"/><g fill="#29b5e8"><path d="m9.67 20.042-1.395-.807a.411.411 0 0 0-.615.395v1.577a.409.409 0 0 0 .819 0V20.3l.782.452a.41.41 0 1 0 .41-.71"/><path d="M2.198 1.214a.402.402 0 0 0-.2-.354L.6.054A.399.399 0 0 0 .054.2.403.403 0 0 0 .2.748l.805.464-.805.465a.397.397 0 0 0-.147.547.401.401 0 0 0 .547.148l1.397-.807a.4.4 0 0 0 .2-.351" mask="url(#a)" transform="translate(4 17.099)"/><path d="m.205 1.581 1.396.806a.412.412 0 0 0 .493-.061.41.41 0 0 0 .132-.301V.41a.41.41 0 1 0-.818 0v.919L.615.872a.409.409 0 1 0-.41.71" mask="url(#b)" transform="translate(4.713 15)"/><path d="M7.564 18.31v-.005a.12.12 0 0 0-.029-.071l-.164-.164a.11.11 0 0 0-.07-.029h-.007a.118.118 0 0 0-.07.03l-.163.162a.116.116 0 0 0-.029.071v.007a.11.11 0 0 0 .029.07l.163.164a.118.118 0 0 0 .07.029h.007a.11.11 0 0 0 .07-.03l.164-.162a.116.116 0 0 0 .029-.071zm.494.069a.156.156 0 0 1-.04.096l-.553.553a.162.162 0 0 1-.097.04h-.14a.158.158 0 0 1-.097-.04l-.554-.553a.156.156 0 0 1-.04-.096v-.141c0-.031.018-.074.04-.096l.554-.554a.151.151 0 0 1 .097-.04h.14c.031 0 .074.017.097.04l.553.554c.022.022.04.065.04.096zm.216-.992 1.397-.806a.41.41 0 1 0-.41-.71l-.782.452v-.914a.409.409 0 1 0-.818 0v1.583a.411.411 0 0 0 .614.395"/><path d="M1.882.007a.404.404 0 0 0-.28.048L.206.861a.41.41 0 1 0 .41.71l.793-.458v.914a.41.41 0 0 0 .817 0V.41a.408.408 0 0 0-.344-.403" mask="url(#c)" transform="translate(4.712 19.18)"/><path d="M10.543 17.295a.41.41 0 0 0-.561-.15l-1.396.805a.414.414 0 0 0-.205.363.41.41 0 0 0 .205.359l1.396.807a.411.411 0 0 0 .411-.711l-.791-.457.791-.456a.41.41 0 0 0 .15-.56"/><path d="M.305 1.022h1.776A.91.91 0 0 0 1.2.285a.92.92 0 0 0-.895.737zm2.085.132v.015c0 .077-.064.133-.142.133H.286a.928.928 0 0 0 .906.882h.114l.028-.001.025-.001.001-.001a.847.847 0 0 0 .417-.161h.001l.02-.016.004-.003.017-.014a.043.043 0 0 0 .007-.006l.014-.011.009-.008.012-.01.011-.011a.065.065 0 0 0 .009-.008l.014-.013.007-.007.014-.015.007-.006.014-.016.006-.007.015-.016.006-.007.013-.016.008-.01.011-.014.01-.013.009-.012.014-.02.004-.006.034-.053.001-.001c.002-.005.005-.008.008-.012l.004-.005.006-.007.006-.006.006-.005.006-.005.01-.006.008-.005c.003-.001.005-.003.008-.003l.006-.003c.003-.002.006-.002.01-.003l.005-.002a.12.12 0 0 1 .072.001h.001l.015.005.003.002a.052.052 0 0 1 .015.007l.003.001c.065.048.086.131.045.2l-.014.022-.004.006a1.347 1.347 0 0 1-.553.488h-.002a.998.998 0 0 1-.314.09l-.007.001-.029.003-.016.001-.02.001-.04.001h-.115C.531 2.463 0 1.913 0 1.239 0 .553.534 0 1.2 0l.059.001a1.15 1.15 0 0 1 .625.222l.029.022.016.012a1.272 1.272 0 0 1 .461.896z" mask="url(#d)" transform="translate(29.61 17.062)"/><path d="M25.855 19.246c.488 0 .885-.426.885-.95 0-.526-.396-.954-.884-.954-.486 0-.887.427-.887.954l.001.049.002.02c0 .01.002.019.003.028l.002.022c.002.008.002.018.003.026l.003.018.005.029c0 .005.002.008.003.013l.007.033c0 .003 0 .005.003.007.1.407.448.705.855.705zm1.13-2.142a.139.139 0 0 1 .04.086v2.198a.143.143 0 0 1-.142.142.143.143 0 0 1-.142-.142v-.29a1.139 1.139 0 0 1-.178.176l-.005.005a1.13 1.13 0 0 1-.702.251 1.154 1.154 0 0 1-.971-.544l-.019-.031-.012-.02a.196.196 0 0 1-.012-.021c-.006-.01-.01-.021-.017-.03l-.005-.011a1.279 1.279 0 0 1-.134-.514l-.002-.063a1.325 1.325 0 0 1 .136-.577l.005-.01.017-.031.012-.021a1.155 1.155 0 0 1 1.001-.595c.271 0 .527.1.731.272.057.047.108.099.155.156v-.3a.144.144 0 0 1 .04-.086v-.001a.055.055 0 0 0 .009-.006l.003-.003.005-.004.006-.004.004-.003.008-.004v-.001a.037.037 0 0 0 .012-.005.138.138 0 0 1 .027-.008l.002-.001.012-.001.014-.001.015.001.012.001.003.001c.008.002.018.004.026.008l.01.005.002.001.008.004.004.003.005.004.006.004.003.003.006.006zm-3.573-1.071h-.118a.366.366 0 0 0-.032.003h-.006c-.011 0-.022.002-.032.003h-.004l-.034.005h-.001a.668.668 0 0 0-.194.06h-.002a.314.314 0 0 1-.025.015c-.002 0-.003.002-.005.003l-.022.013a.043.043 0 0 0-.007.006l-.018.012c-.003.004-.008.007-.012.01l-.01.009-.02.017-.002.004a.24.24 0 0 0-.022.023l-.003.004-.018.02-.006.009a.192.192 0 0 0-.013.017l-.004.006-.014.02-.001.004a.673.673 0 0 0-.083.229l-.001.005-.006.034-.001.01-.005.032-.001.018a.107.107 0 0 0-.003.025l-.002.028-.002.018-.001.039v.009l-.001.05v.235h-.296a.161.161 0 0 0-.054.009.138.138 0 0 0-.091.129.15.15 0 0 0 .144.153h.297v2.088a.135.135 0 0 0 .037.086l.01.009.002.002a.055.055 0 0 0 .008.006l.004.003a.147.147 0 0 0 .084.025l.013-.001a.14.14 0 0 0 .075-.031v-.001l.008-.008.003-.002.006-.006a.142.142 0 0 0 .033-.096v-2.074h.32a.146.146 0 0 0 .143-.152v-.013a.125.125 0 0 0-.037-.082v-.001a.073.073 0 0 1-.01-.008l-.002-.003-.007-.005-.005-.004-.005-.002a.04.04 0 0 0-.01-.005l-.001-.001a.037.037 0 0 0-.011-.005l-.002-.001-.011-.004h-.003l-.011-.002-.004-.001-.01-.001h-.006l-.005-.001h-.323v-.274c0-.003 0-.007.002-.01v-.035l.004-.033a.577.577 0 0 1 .063-.234v-.003l.007-.01.004-.006.004-.005a.106.106 0 0 1 .009-.011c.038-.042.096-.068.18-.078l.004-.001.015-.001.007-.001.014-.001h.023l.012-.001h.031l.014-.001h.055a.145.145 0 0 0 0-.291m.766.005-.01-.004h-.005a.019.019 0 0 0-.007-.003.02.02 0 0 0-.006-.002h-.009l-.006-.003h-.015a.145.145 0 0 0-.143.142v3.221c0 .078.066.142.143.142h.017c.004-.002.008-.002.013-.003h.003l.01-.004h.002a.142.142 0 0 0 .101-.12l.001-.015v-3.235a.14.14 0 0 0-.089-.116m-10.914 2.735-.002-.024-.002-.017-.003-.019a.335.335 0 0 1-.003-.018l-.004-.015-.004-.02a.036.036 0 0 1-.004-.012.094.094 0 0 0-.007-.022l-.002-.008a.26.26 0 0 0-.01-.025l-.001-.004-.013-.026h-.001a.515.515 0 0 0-.14-.175h-.001l-.026-.02-.001-.002h-.002a1.2 1.2 0 0 0-.287-.15c-.002 0-.003-.002-.005-.003l-.006-.002a5.516 5.516 0 0 0-.206-.072h-.001c-.002 0-.003 0-.005-.002l-.023-.008c-.005 0-.008-.002-.012-.003l-.072-.025-.058-.019c-.006 0-.02-.006-.032-.01h-.001l-.022-.007c-.06-.02-.108-.036-.15-.052a1.042 1.042 0 0 1-.18-.083l-.003-.002c-.07-.044-.117-.098-.128-.169l-.001-.016-.001-.002-.001-.017c0-.009 0-.017.002-.025v-.024l.003-.005c0-.007.002-.013.003-.019 0 0 0-.002.002-.003a.382.382 0 0 1 .196-.229l.017-.01c.006-.003.01-.006.017-.008l.027-.012c.005-.002.009-.005.015-.006l.029-.01a.053.053 0 0 1 .015-.006c.01-.003.018-.007.028-.009a.105.105 0 0 1 .017-.004l.026-.007a.058.058 0 0 0 .018-.004.216.216 0 0 0 .027-.005c.005 0 .01 0 .015-.002l.032-.003h.008l.038-.002.044.001h.007a.674.674 0 0 1 .276.074l.009.005.02.011.004.002.02.013a.003.003 0 0 0 .003.001l.023.014v.001l.022.015.008.006a5.316 5.316 0 0 1 .125.098l.007.005.002.001.005.004.013.01c.002 0 .004 0 .005.002l.013.007.005.002.013.005.003.002.016.004a.083.083 0 0 0 .036 0h.003l.01-.003s.002 0 .003-.002a.11.11 0 0 0 .018-.009h.002l.015-.012a.063.063 0 0 0 .012-.013c.002-.003.005-.006.006-.01h.002c.025-.043.01-.098-.033-.157l-.003-.004-.005-.006a1.048 1.048 0 0 0-.544-.32h-.004l-.027-.006a.03.03 0 0 1-.008-.002c-.008 0-.015-.002-.023-.003h-.01l-.021-.002h-.008l-.03-.002-.045.001-.026.001h-.02l-.033.003-.01.001-.038.004h-.004l-.04.006h-.003a.427.427 0 0 0-.038.007h-.003a1.276 1.276 0 0 0-.077.017l-.001.001a.532.532 0 0 0-.038.01l-.034.011-.003.001c-.01.004-.021.007-.031.012l-.004.001-.03.013c-.001 0-.003 0-.004.002a.136.136 0 0 0-.027.012l-.006.003a.196.196 0 0 0-.025.013l-.007.004-.023.014-.007.004-.03.018c-.011.01-.022.016-.032.025l-.002.001a.664.664 0 0 0-.13.123l-.003.006-.014.018-.008.014-.007.011c-.005.008-.01.016-.013.024l-.002.003a.614.614 0 0 0-.058.225v.004a.708.708 0 0 0-.002.047v.043c.006.17.084.298.224.397l.003.003.018.012.013.008c0 .002.003.002.004.003.138.087.307.137.448.177l.149.043.012.004c.084.027.149.05.203.072l.01.004.006.002a1.832 1.832 0 0 1 .157.077.455.455 0 0 1 .128.115l.003.004a.041.041 0 0 1 .007.011.016.016 0 0 1 .004.007l.005.008.005.01a.049.049 0 0 0 .003.007c0 .004.003.007.004.011l.003.007c0 .004.002.008.004.012v.007a.027.027 0 0 1 .004.012v.007c.002.004.002.01.003.014v.005l.002.021-.001.031-.001.01-.003.022-.001.007a.298.298 0 0 1-.018.06l-.001.002a.126.126 0 0 1-.013.026l-.001.003a.312.312 0 0 1-.037.055l-.022.025-.001.001a.454.454 0 0 1-.052.045l-.001.001c-.01.006-.018.013-.027.017l-.004.002a.377.377 0 0 1-.088.046l-.017.008-.048.017-.006.003-.03.007-.007.003a1.157 1.157 0 0 1-.091.02h-.002a4.545 4.545 0 0 0-.043.006l-.015.001-.015.001a1.286 1.286 0 0 1-.123-.002c-.011 0-.024 0-.034-.003a.163.163 0 0 1-.031-.003l-.025-.003a5.753 5.753 0 0 1-.053-.009l-.024-.005-.026-.007a.264.264 0 0 1-.03-.007.133.133 0 0 0-.02-.005c-.015-.005-.031-.01-.047-.017l-.01-.003a.922.922 0 0 1-.102-.044l-.005-.003a1.714 1.714 0 0 1-.092-.05.781.781 0 0 0-.074-.041l-.004-.002a.012.012 0 0 1-.003-.002l-.015-.006c-.001 0-.003 0-.004-.002a.12.12 0 0 0-.035-.009h-.011c-.001-.002-.002-.002-.003-.002a.085.085 0 0 0-.061.025l-.011.011-.003.004-.006.008-.003.005-.005.007-.002.005-.004.007-.001.005-.003.008-.001.005-.002.01-.001.002v.013c0 .005 0 .01.002.014v.002c0 .004 0 .008.003.012 0 .002 0 .003.002.005s0 .006.003.01a.207.207 0 0 0 .038.059.56.56 0 0 0 .065.057c.008.004.015.01.023.015l.004.003a.721.721 0 0 0 .086.053l.018.01a.485.485 0 0 0 .023.011l.015.008.037.018.005.003.04.017.018.007a1.377 1.377 0 0 0 .427.091l.03.001h.05a.98.98 0 0 0 .568-.182.647.647 0 0 0 .27-.524v-.038l-.001-.014m1.453-1.705h-.002a.995.995 0 0 0-.727.313v-.17a.14.14 0 0 0-.138-.143h-.014a.142.142 0 0 0-.086.04v.002c-.003.002-.006.004-.007.007-.002 0-.003.002-.003.003l-.004.005a.022.022 0 0 1-.004.005l-.002.004a.055.055 0 0 1-.006.008v.002l-.006.01-.007.028c0 .006-.002.01-.003.014v2.222l-.002.01.007.006c0 .003.001.008.003.01v.003a.027.027 0 0 0 .006.01.148.148 0 0 0 .092.073h.052a.036.036 0 0 0 .011-.002l.005-.001c.004-.001.01-.001.014-.003h.001a.125.125 0 0 0 .06-.045l.002-.002a.1.1 0 0 0 .02-.035l.002-.005v-.001c.003-.007.004-.015.006-.022l.001-.002v-1.336a.738.738 0 0 1 .726-.723h.001c.398 0 .723.324.723.722v1.314l.001.014a.131.131 0 0 0 .04.086l.007.008c.002 0 .002.002.003.002l.005.004a.027.027 0 0 0 .006.005c.002 0 .003 0 .004.002l.008.005h.002a.047.047 0 0 1 .01.006h.001c.008.004.017.005.026.007h.002l.012.002h.029l.012-.001.003-.001c.01-.002.018-.003.026-.007l.011-.005.002-.001.008-.005.004-.002.005-.005.006-.004.003-.002.007-.007v-.001a.127.127 0 0 0 .04-.086l.001-.014v-1.314c0-.554-.45-1.006-1.005-1.007m3.446 1.133v-.002a.988.988 0 0 0-.24-.556l-.017-.02-.011-.01-.021-.022c-.006-.007-.014-.013-.02-.018l-.012-.012-.032-.027h-.001a.85.85 0 0 0-.434-.186h-.004c-.012-.002-.024-.002-.037-.003h-.007c-.015-.002-.03-.002-.045-.002l-.044.001-.008.001c-.013.001-.025.001-.037.003h-.004a.85.85 0 0 0-.434.185l-.001.001c-.01.01-.021.018-.032.027l-.012.011-.02.02-.02.02-.011.011-.017.02a.992.992 0 0 0-.241.556v.001l-.003.042-.001.007-.001.048c0 .523.402.95.886.95s.886-.427.886-.95l-.002-.048v-.007l-.003-.042m-.881-1.137c.646 0 1.17.554 1.17 1.234 0 .681-.524 1.234-1.17 1.234-.02 0-.04 0-.06-.002h-.008a.88.88 0 0 1-.051-.005h-.001a1.132 1.132 0 0 1-.684-.335l-.023-.023h-.001a.174.174 0 0 1-.012-.015l-.027-.029-.021-.026a.205.205 0 0 0-.015-.019c-.01-.013-.021-.026-.03-.04l-.004-.006a1.247 1.247 0 0 1-.22-.548c-.003-.018-.004-.037-.006-.055l-.001-.007-.004-.05v-.012c-.002-.02-.002-.04-.002-.062s0-.04.002-.062v-.01c0-.018.002-.035.004-.052v-.007l.007-.055c.029-.199.104-.386.22-.548 0-.002.002-.004.003-.005l.03-.042a.143.143 0 0 0 .016-.018l.02-.026.027-.028.013-.015.022-.022c.19-.192.429-.31.686-.337l.052-.005h.009l.059-.002m4.61.061-.003-.003a.125.125 0 0 0-.055-.04.03.03 0 0 0-.008-.004l-.004-.002a.122.122 0 0 0-.06-.005.151.151 0 0 0-.103.068l-.01.018v.001l-.68 1.866-.536-1.273a.185.185 0 0 0-.02-.033.16.16 0 0 0-.12-.056c-.008 0-.014 0-.022.002h-.002a.154.154 0 0 0-.112.086l-.535 1.273-.259-.704-.427-1.16a.089.089 0 0 0-.008-.018v-.002a.131.131 0 0 0-.06-.055.29.29 0 0 0-.039-.013h-.043l-.008.001-.006.001-.008.003-.004.001-.009.004a.128.128 0 0 0-.059.05c0 .001 0 .002-.002.003v.003a.142.142 0 0 0-.01.127l.492 1.327.317.852a.11.11 0 0 0 .06.066l.001.002.002.002h.002l.003.004h.001c.004.003.01.005.018.006h.002l.007.003h.004a.1.1 0 0 0 .055.005l.015-.003.004-.002.014-.005.005-.003.01-.005a.02.02 0 0 1 .01-.005.012.012 0 0 1 .004-.005l.012-.008.002-.003.012-.013.001-.002a.086.086 0 0 0 .01-.016.098.098 0 0 0 .008-.018l.001-.002.002-.003.002-.004.536-1.282.542 1.287a.139.139 0 0 0 .033.052c.002 0 .003.003.005.004l.01.008c.002 0 .003.003.005.003l.012.009c.001 0 .003 0 .004.002l.014.006.004.002c.005 0 .01.003.013.004l.018.004h.018l.02-.002h.005l.016-.005.004-.001a.142.142 0 0 0 .018-.008l.001-.001a.127.127 0 0 0 .02-.013.15.15 0 0 0 .051-.07l.335-.901.471-1.267a.14.14 0 0 0-.014-.132l-.005-.007m7.56.039-.001-.007-.001-.006-.002-.008-.002-.005-.004-.01-.001-.003-.006-.011a.14.14 0 0 0-.026-.033l-.001-.001a.135.135 0 0 0-.178-.018l-.005.003-.007.005-.011.011-1.393 1.358v-2.285a.145.145 0 0 0-.09-.116v-.001l-.008-.003-.005-.001-.008-.002a.01.01 0 0 0-.006-.002l-.008-.001-.007-.002h-.015a.144.144 0 0 0-.142.142v3.221c0 .078.065.142.142.142l.015-.001h.002l.013-.002.003-.001c.003-.001.007-.001.01-.003h.003a.144.144 0 0 0 .1-.121v-.558l.47-.468.912 1.1a.116.116 0 0 0 .025.028l.007.005.009.006.004.002.012.004.003.001.014.004h.003l.014.003h.003l.019.001.027-.002a.172.172 0 0 0 .047-.014v-.001a.106.106 0 0 0 .02-.012l.002-.002a.148.148 0 0 0 .023-.19l-.011-.015-.926-1.124.919-.888a.15.15 0 0 0 .043-.088v-.031"/></g></g></svg>