<svg height="36" viewBox="0 0 36 36" width="36" xmlns="http://www.w3.org/2000/svg"><mask id="a" fill="#fff"><path d="M0 0h5.237v4.424H0z" fill-rule="evenodd"/></mask><mask id="b" fill="#fff"><path d="M0 0h5.05v4.322H0z" fill-rule="evenodd"/></mask><mask id="c" fill="#fff"><path d="M0 0h1.943v1.045H0z" fill-rule="evenodd"/></mask><mask id="d" fill="#fff"><path d="M0 0h2.42v1.217H0z" fill-rule="evenodd"/></mask><mask id="e" fill="#fff"><path d="M0 0h14.001v8.629H0z" fill-rule="evenodd"/></mask><g fill="none" fill-rule="evenodd"><path d="M18 0c2.837 0 5.52.656 7.907 1.825C31.884 4.753 36 10.895 36 18c0 9.942-8.058 18-18 18-9.94 0-18-8.057-18-18C0 8.06 8.06 0 18 0z" fill="#f2f4f7" fill-rule="nonzero"/><path d="M7.744 20.676h-.071a1.148 1.148 0 0 0-.38 0h-.07a3.044 3.044 0 0 1-.841-.158c-1.225-.445-2.003-1.297-2.328-2.56a.789.789 0 0 1-.028-.27c.028-.101.088-.053.133-.021.114.083.227.169.346.246.34.22.714.36 1.11.442.06.012.129.006.17.068.01.06-.033.103-.06.149-.234.427.059.962.546.977a.622.622 0 0 0 .565-.288.632.632 0 0 0 .045-.663c-.021-.042-.054-.08-.056-.13.006-.076.07-.085.126-.102.343-.101.673-.228.97-.43.778-.525 1.255-1.247 1.397-2.175.074-.484.05-.968-.11-1.44-.022-.064-.064-.13-.028-.203.078-.034.138.016.194.052.76.495 1.279 1.172 1.529 2.048.07.245.103.494.099.748v.403c-.004.772-.29 1.439-.767 2.029a3.48 3.48 0 0 1-1.966 1.216c-.174.04-.351.035-.525.062" fill="#ea9100"/><path d="M4.718 0c.083.037.18.038.25.104.1.271.2.541.238.829.129.984-.136 1.841-.821 2.566a2.966 2.966 0 0 1-1.587.884c-.047.01-.092.025-.136.041-.102-.007-.19-.064-.29-.082a.207.207 0 0 0-.147-.001c-.1.009-.183.079-.285.081a.488.488 0 0 0-.168-.05c-.598-.094-1.136-.32-1.586-.735C.128 3.583.058 3.545 0 3.491v-.214c.06-.019.098.021.132.057.482.515 1.082.797 1.776.874.475.053.939-.02 1.376-.216.948-.427 1.515-1.16 1.697-2.181.102-.573-.01-1.122-.246-1.648C4.712.112 4.667.06 4.718 0" fill="#ec9502" mask="url(#a)" transform="translate(4 13.891)"/><path d="M4.718.066c-.004.1.057.179.093.264.177.412.266.843.233 1.288A2.87 2.87 0 0 1 4.272 3.4a2.836 2.836 0 0 1-1.64.883 2.772 2.772 0 0 1-1.57-.195 2.997 2.997 0 0 1-.888-.591C.117 3.444.08 3.369 0 3.343v-.236c.03-.026.06-.022.084.003.105.12.237.215.324.351.036.077.11.112.172.159a2.638 2.638 0 0 0 1.862.515 2.607 2.607 0 0 0 1.574-.715 2.664 2.664 0 0 0 .849-1.722 2.514 2.514 0 0 0-.183-1.24 3.338 3.338 0 0 0-.16-.343C4.504.082 4.454.031 4.53 0a.543.543 0 0 1 .187.066" fill="#ed9803" mask="url(#b)" transform="translate(4 13.825)"/><path d="M7.744 13.662h.047c.312.353.55.747.622 1.218.106.699-.048 1.334-.513 1.88a2.28 2.28 0 0 1-.758.576c-.058.028-.12.069-.19.022-.025-.072 0-.14.02-.206.172-.102.349-.196.502-.328.453-.392.696-.883.715-1.485a1.97 1.97 0 0 0-.42-1.3c-.07-.09-.157-.164-.234-.248-.032-.036-.084-.067-.051-.13h.142a.13.13 0 0 0 .118 0" fill="#f09f07"/><path d="M6.957 17.357c.21-.021.37-.15.533-.265.528-.377.834-.9.91-1.535a2.185 2.185 0 0 0-.474-1.681c-.052-.065-.136-.114-.135-.214h.072c.038.049.104.008.146.046.01.066.055.112.09.163.244.34.407.716.45 1.132a2.357 2.357 0 0 1-.485 1.733c-.26.34-.594.585-.987.75-.057.025-.115.057-.181.024-.024-.07-.003-.12.06-.153" fill="#ef9d06"/><path d="M4.38 17.287c-.108-.115-.215-.23-.325-.343-.01-.012-.036-.01-.055-.012v-.12c.085-.047.121.025.162.073.222.253.463.485.761.647.366.196.753.32 1.174.316.101-.001.201-.041.304-.015.044.013.087.02.132.004.011-.003.022-.006.034-.007.04-.004.08-.006.12-.021.78-.182 1.38-.615 1.76-1.322a2.45 2.45 0 0 0 .192-1.95 2.376 2.376 0 0 0-.254-.57.394.394 0 0 1-.058-.13c-.005-.026-.018-.067.037-.06.02-.002.037.002.044.024.181.207.276.46.35.717.232.818.114 1.59-.369 2.29a2.604 2.604 0 0 1-1.919 1.145c-.77.085-1.456-.145-2.052-.64a.456.456 0 0 0-.039-.026" fill="#ee9904"/><path d="M7.483 13.662c.016.085.091.126.146.179.282.269.461.596.541.974.137.642.011 1.228-.4 1.75a2.168 2.168 0 0 1-.67.546c-.034.019-.069.038-.11.034-.039-.03-.042-.071-.036-.115.041-.046.101-.058.152-.087.327-.18.57-.441.752-.763.116-.17.168-.365.203-.561a1.927 1.927 0 0 0-.214-1.275 1.166 1.166 0 0 0-.167-.241 1.243 1.243 0 0 0-.306-.315c-.026-.026-.055-.052-.044-.096.007-.015.023-.02.034-.03z" fill="#f1a108"/><path d="M0 0c.089-.002.142.065.196.116.414.385.908.604 1.457.717.097.02.216-.021.29.084-.025.077-.087.108-.158.128-.21-.06-.427-.093-.634-.167A3.398 3.398 0 0 1 .18.34C.152.319.11.204.045.314.01.28.048.219 0 .189z" fill="#ec9502" mask="url(#c)" transform="translate(4 17.382)"/><path d="M7.862 16.197c-.097.245-.273.428-.472.59-.127.101-.257.206-.424.24-.024-.017-.027-.04-.023-.067.018-.06.078-.073.124-.102.531-.335.864-.795.907-1.439.045-.665-.208-1.195-.73-1.603-.047-.038-.127-.064-.093-.154h.071c.021.022.051.005.074.017.028.036.046.081.092.101.104.086.2.181.285.285.281.334.414.73.434 1.157a1.89 1.89 0 0 1-.196.911c-.012.024-.022.05-.049.064" fill="#f1a108"/><path d="M7.151 13.662c.02.108.124.139.192.196.405.337.622.764.662 1.287.035.453-.075.864-.349 1.224a1.8 1.8 0 0 1-.586.52c-.037.02-.082.03-.109.067-.048-.001-.042-.036-.042-.067.017-.057.07-.07.113-.096.522-.315.82-.77.872-1.381.043-.506-.125-.938-.45-1.315-.093-.108-.212-.187-.324-.274-.037-.03-.12-.057-.05-.133l.024-.028z" fill="#f2a309"/><path d="M2.417 1.194c-.111-.015-.22.025-.33.023a2.438 2.438 0 0 1-1.49-.53 2.71 2.71 0 0 1-.47-.464C.096.182.06.143 0 .152V.104C.042.082.014.04.028.009c.072-.032.1.029.13.069.216.286.473.528.786.703.314.177.646.308 1.016.304.145.055.302.04.45.075.01.01.014.021.007.034" fill="#ee9a04" mask="url(#d)" transform="translate(4 16.662)"/><path d="M7.293 20.676a.628.628 0 0 1 .38 0z" fill="#f4c77f"/><path d="m11.014 17.382-.01.001h-.01v-.166c.006-.01.013-.012.02 0z" fill="#f9e2bc"/><path d="M10.995 16.954a.06.06 0 0 1 .019 0v.144c-.008.01-.015.01-.021-.001 0-.048 0-.096.002-.143" fill="#f9e3be"/><path d="M7.294 13.687c-.026-.003-.056.005-.071-.025h.142l-.024.025c-.016.013-.031.013-.047 0" fill="#f4b949"/><path d="M7.744 13.662c-.04.037-.08.034-.118 0z" fill="#f4b43e"/><path d="m10.993 17.096.02.001v.12h-.02v-.12" fill="#f4c982"/><path d="m5.785 18.427.158-.128c.093-.039.183-.085.286-.094a.366.366 0 0 1 .14.001c.098.023.196.047.286.096.097.02.163.075.188.173a.688.688 0 1 1-1.12.039l.062-.087" fill="#fefefe"/><path d="m6.842 18.475-.187-.174c.028-.057.09-.05.134-.058.69-.13 1.248-.487 1.702-1.009.361-.414.58-.902.675-1.445.102-.577.023-1.132-.188-1.672-.016-.04-.043-.079-.01-.122.076.034.16.05.223.11-.007.141.071.263.101.396.23 1.011.046 1.934-.587 2.757-.45.585-1.05.95-1.759 1.141-.046.012-.095.014-.104.076" fill="#eb9401"/><path d="M8.077 13.73c.056 0 .116-.015.165.029.272.375.437.789.484 1.252.08.782-.164 1.456-.685 2.029a2.441 2.441 0 0 1-1.16.702c-.063.018-.128.04-.195.008-.036-.056.018-.074.045-.1.037-.034.07-.073.117-.095.53-.12.93-.434 1.25-.858a2.307 2.307 0 0 0 .466-1.59 2.287 2.287 0 0 0-.36-1.09c-.035-.057-.075-.111-.11-.168-.021-.036-.051-.074-.017-.12" fill="#ee9b05"/><path d="M4.38 17.287c.026-.016.047-.01.072.013.406.344.878.555 1.404.62.47.059.932-.004 1.37-.197.647-.286 1.125-.751 1.4-1.404.291-.691.286-1.39-.002-2.088-.062-.15-.163-.277-.216-.43.042 0 .087-.01.123.024-.032.04-.003.073.015.105.281.484.403 1.01.354 1.563a2.684 2.684 0 0 1-.766 1.68 2.657 2.657 0 0 1-1.669.819 2.651 2.651 0 0 1-1.938-.547c-.057-.044-.138-.07-.148-.158" fill="#ed9904"/><path d="M6.676 17.737c.294-.006.546-.14.791-.283.596-.347.976-.866 1.158-1.528a2.45 2.45 0 0 0-.343-2.046c-.024-.037-.044-.075-.04-.121a.145.145 0 0 1 .122.019c-.05.072.017.119.045.164.15.245.244.508.311.786.13.539.061 1.057-.147 1.565a2.466 2.466 0 0 1-.63.9c-.362.327-.777.558-1.266.64-.035.028-.083-.006-.118.023h-.024c-.032.008-.058 0-.076-.028.053-.076.132-.09.217-.091" fill="#ee9a04"/><path d="M8.077 13.73c.016.103.092.17.144.253a2.37 2.37 0 0 1 .356 1.609 2.386 2.386 0 0 1-.8 1.505 2.194 2.194 0 0 1-.764.454.481.481 0 0 1-.163.02c-.022-.047.009-.061.046-.07.232-.035.43-.155.616-.283.433-.3.74-.702.902-1.204a2.274 2.274 0 0 0-.078-1.666 2.665 2.665 0 0 0-.33-.556c-.017-.023-.074-.06.003-.084.026-.002.053-.01.068.022" fill="#ef9c06"/><path d="M5.136 14.585c.285-.272.61-.48.975-.633.13.021.264.012.397.047.53.142.924.603.986 1.148.065.58-.281 1.076-.718 1.307-.056.03-.111.061-.167.09-.073.02-.134-.019-.198-.039a.409.409 0 0 0-.23-.002c-.054.01-.108.031-.164.021-.191-.063-.385-.113-.553-.232-.51-.362-.667-1.02-.38-1.602.018-.034.047-.064.052-.105" fill="#f5aa0c"/><path d="M6.604 16.537c.02-.057.075-.067.119-.09.38-.198.64-.498.726-.923a1.295 1.295 0 0 0-.922-1.485.9.9 0 0 0-.313-.046c-.041.003-.08 0-.103-.04.144-.065.29-.124.447-.155.272.093.52.222.723.433a1.52 1.52 0 0 1 .04 2.045 2.048 2.048 0 0 1-.511.397c-.096-.004-.157-.06-.206-.136" fill="#f4a70b"/><path d="M6.795 16.675c0-.05.045-.059.078-.078.442-.255.705-.625.78-1.138.102-.692-.361-1.389-.99-1.586-.04-.012-.1-.009-.105-.074.112-.053.235-.067.356-.085.094.11.232.16.34.251a1.695 1.695 0 0 1-.236 2.791c-.037.021-.074.044-.12.05-.07-.015-.101-.06-.103-.13M4.48 15.393c.059-.11.125-.215.205-.311.09-.024.064.044.06.083-.013.16.015.316.054.469.12.464.41.78.847.97.045.02.099.03.123.085 0 .085-.026.158-.104.204-.638-.228-1.026-.67-1.154-1.338-.01-.054-.026-.107-.03-.162" fill="#f3a50a"/><path d="M5.755 16.7c-.073-.07-.174-.084-.259-.132a1.43 1.43 0 0 1-.763-1.117c-.016-.113-.035-.223-.009-.337.006-.025-.02-.028-.04-.032.094-.127.185-.258.31-.36.053.06.013.12-.004.179-.145.506-.024.938.352 1.302.126.123.28.2.444.26.054.02.116.031.14.096a.227.227 0 0 1-.17.14" fill="#f4a80b"/><path d="M4.123 16.244c.025-.116.059-.23.112-.337.055.04.072.102.097.158.252.557.663.937 1.248 1.125a.12.12 0 0 1 .041.023c.037.082.074.163.07.256-.158.011-.293-.065-.43-.125-.515-.225-.881-.606-1.138-1.1" fill="#f09f07"/><path d="M6.886 16.79c.528-.26.85-.684.945-1.26.078-.48-.056-.914-.357-1.3a1.856 1.856 0 0 0-.502-.421c-.034-.021-.088-.033-.059-.095.056-.007.111-.016.166-.024-.03.065.03.086.063.107a1.742 1.742 0 0 1 .793 1.34c.03.398-.057.764-.27 1.098a1.675 1.675 0 0 1-.61.579c-.04.023-.089.032-.118.074-.056-.012-.069-.047-.05-.097M4.48 15.393c.059.039.053.105.062.16.085.512.362.89.798 1.165.103.064.232.074.319.166.03.06.01.109-.032.154-.13.039-.23-.041-.33-.095a1.926 1.926 0 0 1-.963-1.267c.035-.101.086-.195.147-.283" fill="#f2a309"/><path d="M4.333 15.676c.052.023.053.077.065.12.152.502.468.871.92 1.127.088.05.182.108.294.104.044.064.047.128-.005.19-.11.002-.208-.05-.3-.097a2.095 2.095 0 0 1-1.073-1.213.677.677 0 0 1 .1-.23" fill="#f1a108"/><path d="M4.123 16.244c.057.016.073.068.097.111.284.51.711.848 1.254 1.05.068.025.15.013.207.071.081.016.093.08.1.145-.042.046-.094.034-.143.022a2.362 2.362 0 0 1-1.411-.926c-.055-.076-.117-.149-.156-.236a.768.768 0 0 1 .052-.237" fill="#ef9c06"/><path d="M4.07 16.481c.127.083.178.228.27.338.356.42.8.684 1.336.803.037.008.07 0 .104-.004a.21.21 0 0 1 .166.135c-.09.08-.183.018-.268 0a2.503 2.503 0 0 1-1.542-.999c-.028-.037-.055-.078-.108-.083.013-.064.01-.13.043-.19" fill="#ee9b05"/><path d="M5.92 16.572c-.029-.043-.075-.056-.12-.07a1.286 1.286 0 0 1-.9-1.307c.008-.114.036-.225.071-.333.014-.045.03-.09.022-.14a.56.56 0 0 1 .142-.136c.048.057-.012.094-.03.133a1.212 1.212 0 0 0 .243 1.438c.115.113.25.2.406.252.088.03.183.043.261.1-.006.06-.037.082-.096.063" fill="#f5a90c"/><path d="M6.369 18.206h-.14a.127.127 0 0 1 .14 0" fill="#ed9803"/><path d="M5.92 16.572c.038-.011.076-.023.095-.063l.166-.034a1.22 1.22 0 0 1 .234 0l.188.063.191.138.092.115c.016.032.033.065.051.097 0 .026.003.05.024.069l.004.07.024.118-.033.212-.06.144c-.016.024-.03.048-.047.07l-.173.166-.214.095a.035.035 0 0 1-.045.006.795.795 0 0 1-.472-.084l-.166-.136c-.032-.046-.066-.093-.098-.141l-.074-.26.005-.19.046-.143c.032-.062.087-.111.097-.184l.164-.128" fill="#fefefe"/><path d="M6.417 17.837a.718.718 0 0 1 .046-.005l.073.024c-.04.035-.08.035-.12 0zm.142.019c.033-.04.079-.018.119-.023-.034.039-.079.017-.119.023" fill="#ee9904"/><path d="M7.862 16.197c.16-.288.236-.602.231-.924a1.85 1.85 0 0 0-.377-1.128c-.019-.025-.044-.045-.043-.08.15.12.227.291.297.461.104.255.162.525.152.804a2.08 2.08 0 0 1-.19.797c-.014.031-.025.07-.07.07m-.189-2.132a1.962 1.962 0 0 1-.284-.285.69.69 0 0 1 .284.285m-.379-.378h.047c-.003.04.035.06.048.093-.056-.006-.088-.037-.095-.093" fill="#f1a108"/><path d="M6.181 16.386a1.102 1.102 0 0 1-1.11-1.12c.013-.642.501-1.103 1.114-1.098.636.005 1.098.49 1.104 1.108a1.102 1.102 0 0 1-1.108 1.11m.234.09-.234-.001a.33.33 0 0 1 .234 0" fill="#f6ab0d"/><path d="M6.174 16.268c-.562-.036-.98-.425-.978-.994.002-.536.398-.992 1.025-.97.555.02.936.423.942.97.006.57-.42.965-.989.994" fill="#f6ad0e"/><path d="M6.934 15.156c.11.414-.012.735-.343.891-.25.118-.49.078-.717-.069-.196-.095-.27-.278-.288-.472-.044-.428.259-.77.688-.801.233-.017.536.154.64.361a.149.149 0 0 1 .02.09" fill="#fefefe"/><path d="M6.934 15.156c-.118-.219-.287-.371-.543-.407a.687.687 0 0 0-.59 1.154l.073.075c-.15.017-.239-.085-.315-.183-.206-.268-.249-.569-.099-.875a.774.774 0 0 1 .69-.448.8.8 0 0 1 .805.6c.007.032.012.063-.02.084" fill="#f8b00f"/><g fill="#585854"><path d="M20.204 20.325c-1.772 0-3.059-1.276-3.059-3.035 0-1.758 1.287-3.034 3.059-3.034 1.779 0 3.071 1.276 3.071 3.034 0 1.759-1.292 3.035-3.071 3.035m0-5.218c-1.215 0-2.064.898-2.064 2.183 0 1.286.849 2.184 2.064 2.184 1.223 0 2.077-.898 2.077-2.184 0-1.285-.854-2.183-2.077-2.183m-5.863 5.218c-.979 0-1.727-.379-2.225-1.126a.038.038 0 0 1 .01-.052l.695-.474a.037.037 0 0 1 .052.01c.352.547.859.836 1.468.836.648 0 1.302-.282 1.302-.913 0-.515-.403-.718-1.056-.878l-.779-.182c-.976-.244-1.491-.775-1.491-1.535 0-1.213 1.077-1.756 2.145-1.756.916 0 1.603.371 1.934 1.045a.036.036 0 0 1-.013.047l-.719.476a.036.036 0 0 1-.05-.011l-.003-.003c-.257-.489-.671-.748-1.198-.748-.569 0-1.144.252-1.144.816 0 .519.368.699 1.092.865l.817.195c.86.199 1.417.825 1.417 1.596 0 1.322-1.214 1.792-2.254 1.792m12.86 0c-.669 0-1.637-.277-2.205-1.052v.868a.037.037 0 0 1-.037.038h-.84a.037.037 0 0 1-.038-.038v-7.104c0-.02.016-.037.037-.037h.841c.021 0 .037.017.037.037v2.27c.568-.774 1.536-1.051 2.205-1.051 1.78 0 3.071 1.276 3.071 3.034 0 1.759-1.29 3.035-3.07 3.035m.086-5.212c-1.248 0-2.189.936-2.189 2.177 0 1.242.941 2.178 2.19 2.178 1.218 0 2.07-.896 2.07-2.178s-.852-2.177-2.07-2.177"/><path d="M8.997 7.699c0-.035-.019-.052-.052-.052H8.85V7.39h.277c.107 0 .159.05.159.136v.035c0 .027-.004.053-.004.053h.004a.466.466 0 0 1 .427-.252c.268 0 .422.14.422.461v.472c0 .033.02.051.053.051h.095V8.6h-.287c-.114 0-.162-.047-.162-.161v-.554c0-.148-.038-.248-.19-.248a.331.331 0 0 0-.324.248.49.49 0 0 0-.024.161V8.6h-.299zm-.828-.337c.347 0 .536.254.536.574 0 .035-.007.112-.007.112h-.835c.024.213.18.325.363.325.195 0 .339-.136.339-.136l.126.209s-.185.183-.486.183c-.401 0-.65-.289-.65-.633 0-.372.251-.634.614-.634zm.228.478c-.005-.146-.105-.245-.228-.245-.154 0-.263.092-.296.245zm-1.655-.141c0-.035-.02-.052-.053-.052h-.095V7.39h.276c.106 0 .161.046.161.148v.071a.504.504 0 0 1-.005.075h.005c.054-.172.199-.31.384-.31a.38.38 0 0 1 .055.005v.297s-.032-.005-.074-.005a.34.34 0 0 0-.33.254.76.76 0 0 0-.026.197V8.6h-.299v-.901zm-.873-.068h-.157V7.39h.163v-.329h.295v.329h.275v.241H6.17v.488c0 .199.157.227.239.227.034 0 .055-.004.055-.004v.263s-.038.007-.092.007c-.169 0-.503-.05-.503-.455zm-1.11.586s.154.177.36.177c.093 0 .164-.038.164-.119 0-.17-.639-.168-.639-.559 0-.243.219-.354.47-.354.164 0 .425.055.425.252v.126h-.266v-.06c0-.056-.085-.085-.151-.085-.107 0-.181.038-.181.109 0 .189.643.152.643.555 0 .227-.202.37-.465.37-.332 0-.503-.216-.503-.216zm-1.429-.83c.323 0 .484.253.484.54 0 .026-.005.064-.005.064h-.951c0 .344.232.541.508.541.227 0 .367-.149.367-.149l.055.083s-.166.163-.422.163a.596.596 0 0 1-.612-.619c0-.401.272-.623.576-.623zm.379.511c-.011-.289-.184-.42-.381-.42-.219 0-.42.143-.463.42zm-1.608-.342c0-.035-.019-.051-.052-.051h-.102v-.09h.116c.098 0 .138.04.138.13v.083c0 .054-.005.097-.005.097h.005c.06-.182.188-.32.375-.32.035 0 .068.007.068.007v.1s-.028-.004-.054-.004c-.185 0-.301.156-.353.332a.836.836 0 0 0-.036.248V8.6h-.1zm-.595.321h.078V7.86c0-.282-.097-.382-.343-.382-.062 0-.264.017-.264.117v.081h-.1v-.11c0-.139.268-.179.366-.179.363 0 .441.196.441.448v.623c0 .036.019.053.052.053h.102V8.6h-.116c-.097 0-.138-.038-.138-.144 0-.065.005-.107.005-.107h-.005c.003 0-.102.28-.41.28-.192 0-.403-.107-.403-.344 0-.403.524-.408.735-.408zm-.327.66c.258 0 .405-.269.405-.503V7.97h-.076c-.201 0-.633 0-.633.308 0 .126.102.259.304.259zM.154 7.556c0-.035-.019-.051-.052-.051H0v-.09h.116c.097 0 .138.04.138.13v.083c0 .054-.005.097-.005.097h.005c.059-.182.187-.32.375-.32.035 0 .068.007.068.007v.1s-.028-.004-.054-.004c-.185 0-.301.156-.354.332a.868.868 0 0 0-.035.248V8.6h-.1zm13.81-1.78h-.842a.037.037 0 0 1-.037-.037V.036c0-.02.017-.036.037-.036h.842c.021 0 .037.016.037.036v5.703a.037.037 0 0 1-.037.037z" mask="url(#e)" transform="translate(17.999 14.402)"/><path d="M28.936 21.764c.28 0 .373.171.373.171h.004v-.03c0-.055.038-.113.133-.113h.28v.257h-.092c-.031 0-.052.017-.052.048v.832c0 .415-.323.571-.639.571a.97.97 0 0 1-.429-.104l.092-.237s.15.081.335.081c.182 0 .342-.079.342-.297v-.057l.002-.063h-.005c-.071.101-.176.156-.337.156-.346 0-.543-.28-.543-.612s.187-.603.536-.603m.354.605c0-.275-.138-.348-.302-.348-.182 0-.282.133-.282.336 0 .212.107.368.301.368.145 0 .283-.083.283-.356m2.71.634h-.3v-.716c0-.147-.04-.247-.191-.247a.34.34 0 0 0-.327.25.524.524 0 0 0-.02.158v.555h-.3v-1.375c0-.036-.02-.053-.052-.053h-.096v-.256H31c.112 0 .162.05.162.159v.424c0 .06-.005.103-.005.103h.005a.46.46 0 0 1 .415-.24c.27 0 .422.14.422.46zm-1.987-.97h-.157v-.24h.164v-.33h.294v.33h.275v.24h-.275v.489c0 .199.156.227.239.227a.273.273 0 0 0 .055-.005v.264s-.038.007-.093.007c-.168 0-.502-.05-.502-.455z"/></g></g></svg>