<svg height="36" viewBox="0 0 36 36" width="36" xmlns="http://www.w3.org/2000/svg"><mask id="a" fill="#fff"><path d="M0 0h28v4.764H0z" fill-rule="evenodd"/></mask><g fill="none" fill-rule="evenodd"><path d="M18 0c2.837 0 5.52.656 7.907 1.825C31.884 4.753 36 10.895 36 18c0 9.942-8.058 18-18 18-9.94 0-18-8.057-18-18C0 8.06 8.06 0 18 0z" fill="#f2f4f7" fill-rule="nonzero"/><path d="M25.167 1.62c.05.147.105.313.118.364a.73.73 0 0 0 .057.159c.06.11.112.305.089.328-.013.012-.216.022-.455.022-.401 0-.435-.003-.445-.061a.229.229 0 0 1 .022-.127c.035-.073.124-.312.153-.417.009-.035.035-.108.06-.165a.466.466 0 0 0 .045-.146.41.41 0 0 1 .047-.137.431.431 0 0 0 .048-.143c0-.09.048-.1.109-.02.03.042.098.198.152.344zM24.674.219c-.032.07-.073.18-.1.245-.07.19-.151.398-.196.509a.474.474 0 0 0-.044.143.13.13 0 0 1-.026.073 2.185 2.185 0 0 0-.1.223c-.04.105-.091.235-.116.293-.026.054-.045.118-.045.143s-.012.057-.025.076a1.766 1.766 0 0 0-.1.22 25.151 25.151 0 0 1-.21.524c-.03.08-.075.192-.101.246-.022.057-.063.149-.086.207-.27.629-.42.827-.68.9l-.118.035v.6h1.782v-.604l-.15-.031a.616.616 0 0 1-.232-.106c-.1-.085-.096-.14.028-.46l.096-.255c.016-.051.073-.054.74-.048l.726.01.048.143c.026.079.057.159.07.178s.032.115.045.207c.016.152.009.178-.058.242a.487.487 0 0 1-.248.095l-.175.025v.605l1.27.009c.74.003 1.282-.005 1.304-.022.022-.02.032-.134.026-.317l-.01-.288-.118-.021a.65.65 0 0 1-.197-.083c-.114-.083-.131-.118-.448-.933a9.21 9.21 0 0 0-.093-.222c-.012-.035-.057-.143-.095-.24-.035-.094-.08-.202-.093-.237-.015-.035-.047-.121-.076-.191a13.373 13.373 0 0 0-.213-.541l-.1-.254a2.038 2.038 0 0 0-.097-.223c-.013-.016-.026-.048-.026-.073s-.02-.09-.044-.143c-.022-.058-.074-.182-.112-.277-.092-.23-.127-.318-.174-.414l-.04-.08-.667-.01-.671-.005zM17.856.132a1.724 1.724 0 0 0-.006.312l.01.267.137.032a.73.73 0 0 1 .238.114l.102.083v2.88l-.108.089a.554.554 0 0 1-.23.11c-.085.017-.124.039-.126.074l-.007.309-.006.254h1.686l.009-.3c.01-.33 0-.352-.175-.352-.07 0-.13-.03-.197-.098l-.1-.1V2.519c0-.897.01-1.285.037-1.275.04.012.073.076.53 1.01.21.43.56 1.15.784 1.6l.403.819.706-.007.707-.01.003-1.79a53.65 53.65 0 0 1 .025-1.868c.029-.114.169-.23.306-.251l.124-.02.01-.28c.006-.152-.004-.295-.02-.317-.02-.03-.216-.038-.798-.038-.426 0-.795.009-.824.019-.041.016-.051.07-.051.248 0 .33.016.366.165.388a.522.522 0 0 1 .217.108c.108.102.098.019.108 1.012.003.55-.003.67-.038.658a.29.29 0 0 0-.054-.015c-.01 0-.464-.917-.767-1.543a5.88 5.88 0 0 0-.258-.5.528.528 0 0 1-.073-.162.295.295 0 0 0-.067-.13L20.195.09h-1.161c-.94 0-1.165.009-1.178.04zm-2.85-.003a2.544 2.544 0 0 0 0 .318l.01.274.117.022a.816.816 0 0 1 .22.083c.137.086.143.143.13 1.689l-.01 1.295-.092.096a.39.39 0 0 1-.23.117l-.132.019-.013.289a1.56 1.56 0 0 0 .007.319c.009.013.563.018 1.227.015l1.206-.01.01-.238c.012-.34 0-.38-.156-.4a.48.48 0 0 1-.22-.108l-.095-.09V.957l.092-.095A.497.497 0 0 1 17.31.74l.136-.03V.108l-1.212-.01c-.958-.006-1.218 0-1.228.032zM10.23.113c-.013.009-.022.153-.022.315 0 .318.006.33.19.33.055 0 .128.036.188.093l.099.092V3.82l-.096.089a.496.496 0 0 1-.222.11c-.153.026-.165.06-.153.398l.01.239h2.513l.01-.305.009-.306-.166-.02c-.206-.025-.368-.142-.394-.285a4.822 4.822 0 0 1-.01-.544c.013-.522.017-.532.293-.474.249.05.369.19.417.48l.022.137.274-.01.277-.01.009-.938c.003-.515 0-.97-.01-1.011-.015-.067-.034-.07-.282-.07-.296 0-.306.006-.306.26 0 .093-.026.147-.121.248-.121.125-.13.128-.334.128-.261 0-.255.013-.238-.592l.009-.432.095-.077c.182-.146.777-.083 1.2.127.2.102.566.443.694.653.044.069.095.13.11.13.042 0 .398-.172.475-.23.066-.053.079-.018-.17-.55a15.39 15.39 0 0 1-.18-.397 9.015 9.015 0 0 0-.16-.334l-.066-.127-1.972-.01C11.138.094 10.24.1 10.23.113zM7.479.746c.077.013.175.073.287.172.39.35.579 1.09.467 1.868-.07.486-.203.794-.445 1.03-.153.153-.21.188-.334.207-.5.073-.795-.15-1.005-.754-.067-.185-.074-.264-.074-.872 0-.57.01-.696.06-.86.208-.654.503-.88 1.044-.791zM6.916.008a3.051 3.051 0 0 1-.223.05c-.49.103-.85.278-1.167.57a2.336 2.336 0 0 0-.515.688c-.032.07-.073.149-.086.18-.131.268-.201 1.044-.121 1.346.016.07.048.185.063.255.02.07.092.248.163.398.18.369.595.789.948.96.299.144.46.208.604.23.06.009.175.03.254.048.176.038.726.04.923.003.309-.055.477-.096.532-.121.03-.016.17-.086.31-.153.338-.166.67-.477.873-.824.083-.14.159-.283.172-.318.117-.382.156-.557.168-.827.02-.296.007-.411-.08-.764A2.11 2.11 0 0 0 9.08.64C8.758.345 8.462.193 7.934.059 7.784.02 6.986-.017 6.916.008zM1.492.027c-.06.016-.17.042-.24.057C.927.158.497.43.313.686c-.144.2-.182.276-.255.499-.076.239-.076.468.004.719.076.236.193.407.384.55.153.119.54.309.62.309.026 0 .077.016.112.035s.13.044.213.06c.153.029.319.06.738.147.372.074.58.146.71.244.108.083.118.106.118.249 0 .283-.143.446-.481.547a1.392 1.392 0 0 1-.77-.007c-.397-.114-.645-.298-.897-.67a1.212 1.212 0 0 0-.153-.198c-.048-.032-.41-.032-.454 0-.026.016-.042.27-.048.786l-.013.763h.302c.287 0 .303-.003.312-.07.019-.14.083-.15.347-.063.137.044.312.089.39.099.08.009.208.03.287.048.08.018.309.03.51.03.668.004 1.208-.2 1.58-.591a1.92 1.92 0 0 0 .357-.648c.05-.16.04-.685-.01-.86-.121-.394-.413-.648-.91-.798-.42-.127-.521-.153-.604-.153a.551.551 0 0 1-.175-.031 1.753 1.753 0 0 0-.248-.061c-.777-.143-.951-.232-.958-.493-.003-.175.074-.267.318-.382.43-.204 1.187-.013 1.543.388.073.083.144.182.159.22.026.067.048.073.226.073a.797.797 0 0 0 .236-.025c.022-.013.04-.242.05-.653.02-.725.039-.68-.29-.665-.177.01-.19.019-.222.105-.022.07-.05.093-.111.093-.044 0-.086-.013-.095-.03C3.118.228 2.959.175 2.558.06c-.162-.048-.92-.07-1.066-.032z" fill="#2c3865" mask="url(#a)" transform="translate(4 16)"/></g></svg>