<svg height="36" viewBox="0 0 36 36" width="36" xmlns="http://www.w3.org/2000/svg"><mask id="a" fill="#fff"><path d="M0 0h1.046v1.046H0z" fill-rule="evenodd"/></mask><mask id="b" fill="#fff"><path d="M0 0h4.64v5.19H0z" fill-rule="evenodd"/></mask><mask id="c" fill="#fff"><path d="M0 0h3.721v5.188H0z" fill-rule="evenodd"/></mask><mask id="d" fill="#fff"><path d="M0 0h3.578v2.461H0z" fill-rule="evenodd"/></mask><g fill="none" fill-rule="evenodd"><path d="M18 0c2.837 0 5.52.656 7.907 1.825C31.884 4.753 36 10.895 36 18c0 9.942-8.058 18-18 18-9.94 0-18-8.057-18-18C0 8.06 8.06 0 18 0z" fill="#f2f4f7" fill-rule="nonzero"/><g fill="#000"><path d="M.523 0a.523.523 0 1 0 0 1.047.523.523 0 0 0 0-1.047" mask="url(#a)" transform="translate(15.27 15)"/><path d="M2.595 5.19C1.164 5.19 0 4.026 0 2.595S1.164 0 2.595 0C3.288 0 3.94.27 4.43.76a.441.441 0 1 1-.626.625 1.712 1.712 0 0 0-2.919 1.21 1.711 1.711 0 0 0 2.983 1.141.443.443 0 0 1 .66.591 2.6 2.6 0 0 1-1.933.863" mask="url(#b)" transform="translate(27.36 16.631)"/><path d="M20.866 21.086a.447.447 0 0 0-.588-.24c-.092.04-.484.152-.718-.007-.164-.111-.232-.253-.232-.84v-2.387h.781a.448.448 0 1 0 0-.897h-.78v-1.241a.449.449 0 1 0-.899 0v1.24h-.502a.449.449 0 1 0 0 .898h.502v2.387c0 .586.048 1.19.626 1.583.268.182.56.238.82.238.385 0 .697-.124.751-.146a.449.449 0 0 0 .24-.588m4.637-2.294h-2.78c.124-.854.696-1.293 1.39-1.293.693 0 1.192.415 1.368 1.139.02.093.022.154.022.154m.566 2.379v-.001a.484.484 0 0 0 .134-.35m-2.001.133c-.711 0-1.381-.493-1.478-1.294h3.024c.25 0 .439-.07.56-.205.114-.13.164-.317.138-.53a2.896 2.896 0 0 0-.237-.926 2.411 2.411 0 0 0-.5-.725 2.182 2.182 0 0 0-.714-.473 2.32 2.32 0 0 0-.882-.17c-1.36 0-2.346 1.092-2.346 2.595 0 1.479 1.052 2.595 2.448 2.595.283 0 .506-.014.72-.063.714-.164 1.087-.54 1.134-.586v-.001a.484.484 0 0 0 .134-.35.437.437 0 0 0-.148-.306l-.005-.004a.437.437 0 0 0-.296-.117c-.177 0-.364.17-.364.17-.295.24-.594.389-1.175.389"/><path d="M3.72 3.616C3.7 2.712 2.823 2.4 2.107 2.148l-.06-.02c-.634-.216-1.115-.413-1.045-.823.05-.33.423-.399.727-.399.489 0 .8.184 1.007.363a.45.45 0 0 0 .66-.022c.092-.106.247-.423-.107-.711A2.52 2.52 0 0 0 1.72 0l-.072.001c-.58.01-.941.144-1.25.462a1.25 1.25 0 0 0-.346.936c.03.87.763 1.2 1.447 1.442l.289.1c.533.182.993.339.977.759-.011.21-.135.38-.361.49a1.273 1.273 0 0 1-.521.123c-.13 0-.264 0-.404-.016l-.038-.004a1.565 1.565 0 0 1-.727-.34.437.437 0 1 0-.558.671 2.434 2.434 0 0 0 1.408.559c.044.003.198.005.259.005.585 0 1.232-.278 1.574-.676.238-.278.33-.562.323-.896" mask="url(#c)" transform="translate(4 16.63)"/><path d="M15.793 21.818a.449.449 0 0 1-.449-.449v-4.29a.449.449 0 0 1 .898 0v4.29a.449.449 0 0 1-.449.45"/></g><path d="M8.706 19.22a2.63 2.63 0 0 0 1.009 2.073 2.625 2.625 0 0 0 1.01-2.073c0-.841-.394-1.591-1.01-2.073a2.63 2.63 0 0 0-1.01 2.073" fill="#0073bb"/><path d="M0 2.277A2.634 2.634 0 0 0 3.578.184 2.632 2.632 0 0 0 0 2.277" fill="#000" mask="url(#d)" transform="translate(10.368 19.39)"/><path d="M10.368 16.772a2.632 2.632 0 0 0 3.578 2.093 2.633 2.633 0 0 0-3.578-2.093" fill="#72bf44"/></g></svg>