<svg width="36" height="36" fill="none" xmlns="http://www.w3.org/2000/svg"><path d="M18 0c2.837 0 5.52.656 7.907 1.825C31.884 4.753 36 10.895 36 18c0 9.942-8.058 18-18 18-9.94 0-18-8.057-18-18C0 8.06 8.06 0 18 0z" fill="#F2F4F7"/><path d="M13.569 17.615a.79.79 0 1 1 1.578 0 .79.79 0 0 1-1.579 0zm.075 0a.714.714 0 1 0 1.428 0 .714.714 0 0 0-1.428 0z" fill="#68CEF2"/><path d="M13.569 18.44a.79.79 0 1 1 1.578 0 .79.79 0 0 1-1.579 0zm.075 0a.714.714 0 1 0 1.428 0 .714.714 0 0 0-1.428 0z" fill="#68CEF2"/><path d="M13.569 19.266a.79.79 0 1 1 1.578 0 .79.79 0 0 1-1.579 0zm.075 0a.714.714 0 1 0 1.428 0 .714.714 0 0 0-1.428 0zm-.901-1.651a.79.79 0 1 1 1.579 0 .79.79 0 0 1-1.579 0zm.075 0a.714.714 0 1 0 1.429 0 .714.714 0 0 0-1.429 0z" fill="#68CEF2"/><path d="M12.743 18.44a.79.79 0 1 1 1.579 0 .79.79 0 0 1-1.579 0zm.075 0a.714.714 0 1 0 1.429 0 .714.714 0 0 0-1.429 0z" fill="#68CEF2"/><path d="M12.743 19.266a.79.79 0 1 1 1.579 0 .79.79 0 0 1-1.579 0zm.075 0a.714.714 0 1 0 1.429 0 .714.714 0 0 0-1.429 0zm-.075-2.476a.79.79 0 1 1 1.579 0 .79.79 0 0 1-1.579 0zm.075 0a.714.714 0 1 0 1.429 0 .714.714 0 0 0-1.429 0z" fill="#68CEF2"/><path d="M12.743 20.091a.79.79 0 1 1 1.579 0 .79.79 0 0 1-1.579 0zm.075 0a.714.714 0 1 0 1.429 0 .714.714 0 0 0-1.429 0zm-.9-3.301a.79.79 0 1 1 1.579 0 .79.79 0 0 1-1.58 0zm.075 0a.714.714 0 1 0 1.428 0 .714.714 0 0 0-1.428 0z" fill="#68CEF2"/><path d="M11.918 20.091a.79.79 0 1 1 1.578 0 .79.79 0 0 1-1.578 0zm.075 0a.714.714 0 1 0 1.428 0 .714.714 0 0 0-1.428 0zm-.901-3.301a.79.79 0 1 1 1.58 0 .79.79 0 0 1-1.58 0zm.075 0a.714.714 0 1 0 1.429 0 .714.714 0 0 0-1.428 0z" fill="#68CEF2"/><path d="M11.092 20.091a.79.79 0 1 1 1.579 0 .79.79 0 0 1-1.579 0zm.075 0a.714.714 0 1 0 1.43 0 .714.714 0 0 0-1.43 0zm-.9-2.476a.79.79 0 1 1 1.579 0 .79.79 0 0 1-1.579 0zm.075 0a.714.714 0 1 0 1.429 0 .714.714 0 0 0-1.429 0z" fill="#68CEF2"/><path d="M10.267 18.44a.79.79 0 1 1 1.579 0 .79.79 0 0 1-1.579 0zm.075 0a.714.714 0 1 0 1.429 0 .714.714 0 0 0-1.429 0z" fill="#68CEF2"/><path d="M10.267 19.266a.79.79 0 1 1 1.58 0 .79.79 0 0 1-1.58 0zm.075 0a.714.714 0 1 0 1.429 0 .714.714 0 0 0-1.429 0zm-.075-2.476a.79.79 0 1 1 1.58 0 .79.79 0 0 1-1.58 0zm.075 0a.714.714 0 1 0 1.429 0 .714.714 0 0 0-1.429 0z" fill="#68CEF2"/><path d="M10.267 20.091a.79.79 0 1 1 1.579 0 .79.79 0 0 1-1.579 0zm.075 0a.714.714 0 1 0 1.429 0 .714.714 0 0 0-1.429 0zm-.9-2.476a.79.79 0 1 1 1.578 0 .79.79 0 0 1-1.578 0zm.075 0a.714.714 0 1 0 1.428 0 .714.714 0 0 0-1.428 0z" fill="#68CEF2"/><path d="M9.442 18.44a.79.79 0 1 1 1.578 0 .79.79 0 0 1-1.578 0zm.075 0a.714.714 0 1 0 1.428 0 .714.714 0 0 0-1.428 0z" fill="#68CEF2"/><path d="M9.442 19.266a.79.79 0 1 1 1.579 0 .79.79 0 0 1-1.58 0zm.075 0a.714.714 0 1 0 1.428 0 .714.714 0 0 0-1.428 0zm9.757-1.651a.79.79 0 1 1 1.579 0 .79.79 0 0 1-1.58 0zm.075 0a.714.714 0 1 0 1.428 0 .714.714 0 0 0-1.428 0z" fill="#68CEF2"/><path d="M19.274 18.44a.79.79 0 1 1 1.579 0 .79.79 0 0 1-1.58 0zm.075 0a.714.714 0 1 0 1.428 0 .714.714 0 0 0-1.428 0z" fill="#68CEF2"/><path d="M19.274 19.266a.79.79 0 1 1 1.579 0 .79.79 0 0 1-1.58 0zm.075 0a.714.714 0 1 0 1.428 0 .714.714 0 0 0-1.428 0zm-.075-2.476a.79.79 0 1 1 1.579 0 .79.79 0 0 1-1.58 0zm.075 0a.714.714 0 1 0 1.428 0 .714.714 0 0 0-1.428 0z" fill="#68CEF2"/><path d="M19.274 20.091a.79.79 0 1 1 1.578 0 .79.79 0 0 1-1.578 0zm.075 0a.714.714 0 1 0 1.428 0 .714.714 0 0 0-1.428 0zm-.901-2.476a.79.79 0 1 1 1.58 0 .79.79 0 0 1-1.58 0zm.075 0a.714.714 0 1 0 1.429 0 .714.714 0 0 0-1.429 0z" fill="#68CEF2"/><path d="M18.448 18.44a.79.79 0 1 1 1.58 0 .79.79 0 0 1-1.58 0zm.075 0a.714.714 0 1 0 1.429 0 .714.714 0 0 0-1.429 0z" fill="#68CEF2"/><path d="M18.448 19.266a.79.79 0 1 1 1.58 0 .79.79 0 0 1-1.58 0zm.075 0a.714.714 0 1 0 1.429 0 .714.714 0 0 0-1.429 0zm-.075-2.476a.79.79 0 1 1 1.58 0 .79.79 0 0 1-1.58 0zm.075 0a.714.714 0 1 0 1.429 0 .714.714 0 0 0-1.429 0z" fill="#68CEF2"/><path d="M18.448 20.091a.79.79 0 1 1 1.579 0 .79.79 0 0 1-1.579 0zm.075 0a.714.714 0 1 0 1.429 0 .714.714 0 0 0-1.429 0zm-.9-1.651a.79.79 0 1 1 1.579 0 .79.79 0 0 1-1.579 0zm.075 0a.714.714 0 1 0 1.428 0 .714.714 0 0 0-1.428 0z" fill="#68CEF2"/><path d="M17.623 19.266a.79.79 0 1 1 1.58 0 .79.79 0 0 1-1.58 0zm.075 0a.714.714 0 1 0 1.428 0 .714.714 0 0 0-1.428 0zm-.9-1.651a.79.79 0 1 1 1.578 0 .79.79 0 0 1-1.578 0zm.075 0a.714.714 0 1 0 1.428 0 .714.714 0 0 0-1.428 0z" fill="#68CEF2"/><path d="M16.798 18.44a.79.79 0 1 1 1.578 0 .79.79 0 0 1-1.578 0zm.075 0a.714.714 0 1 0 1.428 0 .714.714 0 0 0-1.428 0z" fill="#68CEF2"/><path d="M15.973 17.615a.79.79 0 1 1 1.578 0 .79.79 0 0 1-1.578 0zm.075 0a.714.714 0 1 0 1.428 0 .714.714 0 0 0-1.428 0z" fill="#68CEF2"/><path d="M15.973 18.44a.79.79 0 1 1 1.578 0 .79.79 0 0 1-1.578 0zm.075 0a.714.714 0 1 0 1.428 0 .714.714 0 0 0-1.428 0z" fill="#68CEF2"/><path d="M15.973 19.266a.79.79 0 1 1 1.578 0 .79.79 0 0 1-1.578 0zm.075 0a.714.714 0 1 0 1.428 0 .714.714 0 0 0-1.428 0zm-.075-2.476a.79.79 0 1 1 1.578 0 .79.79 0 0 1-1.578 0zm.075 0a.714.714 0 1 0 1.428 0 .714.714 0 0 0-1.428 0z" fill="#68CEF2"/><path d="M15.973 20.091a.79.79 0 1 1 1.578 0 .79.79 0 0 1-1.578 0zm.075 0a.714.714 0 1 0 1.428 0 .714.714 0 0 0-1.428 0zm-.901-2.476a.79.79 0 1 1 1.579 0 .79.79 0 0 1-1.579 0zm.075 0a.714.714 0 1 0 1.429 0 .714.714 0 0 0-1.429 0z" fill="#68CEF2"/><path d="M15.147 18.44a.79.79 0 1 1 1.579 0 .79.79 0 0 1-1.579 0zm.075 0a.714.714 0 1 0 1.429 0 .714.714 0 0 0-1.429 0z" fill="#68CEF2"/><path d="M15.147 19.266a.79.79 0 1 1 1.579 0 .79.79 0 0 1-1.579 0zm.075 0a.714.714 0 1 0 1.429 0 .714.714 0 0 0-1.429 0zm-.075-2.476a.79.79 0 1 1 1.579 0 .79.79 0 0 1-1.579 0zm.075 0a.714.714 0 1 0 1.429 0 .714.714 0 0 0-1.429 0z" fill="#68CEF2"/><path d="M15.147 20.091a.79.79 0 1 1 1.579 0 .79.79 0 0 1-1.579 0zm.075 0a.714.714 0 1 0 1.429 0 .714.714 0 0 0-1.429 0zm9.758-.825a.79.79 0 1 1 1.578 0 .79.79 0 0 1-1.579 0zm.074 0a.714.714 0 1 0 1.429 0 .714.714 0 0 0-1.429 0z" fill="#68CEF2"/><path d="M24.98 20.091a.79.79 0 1 1 1.578 0 .79.79 0 0 1-1.579 0zm.074 0a.714.714 0 1 0 1.429 0 .714.714 0 0 0-1.429 0zm-.9-2.476a.79.79 0 1 1 1.579 0 .79.79 0 0 1-1.58 0zm.075 0a.714.714 0 1 0 1.429 0 .714.714 0 0 0-1.429 0z" fill="#68CEF2"/><path d="M24.154 18.44a.79.79 0 1 1 1.579 0 .79.79 0 0 1-1.58 0zm.075 0a.714.714 0 1 0 1.428 0 .714.714 0 0 0-1.428 0z" fill="#68CEF2"/><path d="M24.154 19.266a.79.79 0 1 1 1.579 0 .79.79 0 0 1-1.58 0zm.075 0a.714.714 0 1 0 1.428 0 .714.714 0 0 0-1.428 0z" fill="#68CEF2"/><path d="M24.154 20.091a.79.79 0 1 1 1.579 0 .79.79 0 0 1-1.58 0zm.075 0a.714.714 0 1 0 1.429 0 .714.714 0 0 0-1.429 0z" fill="#68CEF2"/><path d="M23.329 19.266a.79.79 0 1 1 1.578 0 .79.79 0 0 1-1.578 0zm.075 0a.714.714 0 1 0 1.428 0 .714.714 0 0 0-1.428 0zm-.075-2.476a.79.79 0 1 1 1.578 0 .79.79 0 0 1-1.578 0zm.075 0a.714.714 0 1 0 1.428 0 .714.714 0 0 0-1.428 0z" fill="#68CEF2"/><path d="M22.503 19.266a.79.79 0 1 1 1.579 0 .79.79 0 0 1-1.579 0zm.075 0a.714.714 0 1 0 1.429 0 .714.714 0 0 0-1.429 0zm-.075-2.476a.79.79 0 1 1 1.579 0 .79.79 0 0 1-1.579 0zm.075 0a.714.714 0 1 0 1.429 0 .714.714 0 0 0-1.429 0z" fill="#68CEF2"/><path d="M21.678 17.615a.79.79 0 1 1 1.579 0 .79.79 0 0 1-1.58 0zm.075 0a.714.714 0 1 0 1.429 0 .714.714 0 0 0-1.429 0z" fill="#68CEF2"/><path d="M21.678 18.44a.79.79 0 1 1 1.579 0 .79.79 0 0 1-1.58 0zm.075 0a.714.714 0 1 0 1.428 0 .714.714 0 0 0-1.428 0z" fill="#68CEF2"/><path d="M21.678 19.266a.79.79 0 1 1 1.579 0 .79.79 0 0 1-1.58 0zm.075 0a.714.714 0 1 0 1.428 0 .714.714 0 0 0-1.428 0z" fill="#68CEF2"/><path d="M21.678 20.091a.79.79 0 1 1 1.578 0 .79.79 0 0 1-1.578 0zm.075 0a.714.714 0 1 0 1.429 0 .714.714 0 0 0-1.429 0z" fill="#68CEF2"/><path d="M20.853 19.266a.79.79 0 1 1 1.578 0 .79.79 0 0 1-1.578 0zm.075 0a.714.714 0 1 0 1.428 0 .714.714 0 0 0-1.428 0z" fill="#68CEF2"/><path d="M20.853 20.091a.79.79 0 1 1 1.578 0 .79.79 0 0 1-1.578 0zm.075 0a.714.714 0 1 0 1.428 0 .714.714 0 0 0-1.428 0zm9.493-3.301a.79.79 0 1 1 1.579 0 .79.79 0 0 1-1.579 0zm.075 0a.714.714 0 1 0 1.429 0 .714.714 0 0 0-1.429 0zm-.075 3.301a.79.79 0 1 1 1.579 0 .79.79 0 0 1-1.579 0zm.075 0a.714.714 0 1 0 1.429 0 .714.714 0 0 0-1.429 0zm-.9-1.651a.79.79 0 1 1 1.579 0 .79.79 0 0 1-1.58 0zm.075 0a.714.714 0 1 0 1.428 0 .714.714 0 0 0-1.428 0z" fill="#68CEF2"/><path d="M29.596 16.79a.79.79 0 1 1 1.579 0 .79.79 0 0 1-1.58 0zm.075 0a.714.714 0 1 0 1.428 0 .714.714 0 0 0-1.428 0zm-.075 3.301a.79.79 0 1 1 1.578 0 .79.79 0 0 1-1.578 0zm.075 0a.714.714 0 1 0 1.429 0 .714.714 0 0 0-1.43 0zm-.901-1.651a.79.79 0 1 1 1.58 0 .79.79 0 0 1-1.58 0zm.076 0a.714.714 0 1 0 1.428 0 .714.714 0 0 0-1.428 0z" fill="#68CEF2"/><path d="M28.77 16.79a.79.79 0 1 1 1.58 0 .79.79 0 0 1-1.58 0zm.076 0a.714.714 0 1 0 1.428 0 .714.714 0 0 0-1.428 0zm-.076 3.301a.79.79 0 1 1 1.58 0 .79.79 0 0 1-1.58 0zm.076 0a.714.714 0 1 0 1.428 0 .714.714 0 0 0-1.428 0zm-.901-1.651a.79.79 0 1 1 1.579 0 .79.79 0 0 1-1.579 0zm.075 0a.714.714 0 1 0 1.429 0 .714.714 0 0 0-1.429 0z" fill="#68CEF2"/><path d="M27.945 16.79a.79.79 0 1 1 1.579 0 .79.79 0 0 1-1.579 0zm.075 0a.714.714 0 1 0 1.429 0 .714.714 0 0 0-1.429 0zm-.075 3.301a.79.79 0 1 1 1.579 0 .79.79 0 0 1-1.579 0zm.075 0a.714.714 0 1 0 1.429 0 .714.714 0 0 0-1.429 0z" fill="#68CEF2"/><path d="M27.12 17.615a.79.79 0 1 1 1.579 0 .79.79 0 0 1-1.58 0zm.075 0a.714.714 0 1 0 1.429 0 .714.714 0 0 0-1.429 0z" fill="#68CEF2"/><path d="M27.12 18.44a.79.79 0 1 1 1.579 0 .79.79 0 0 1-1.58 0zm.075 0a.714.714 0 1 0 1.428 0 .714.714 0 0 0-1.428 0z" fill="#68CEF2"/><path d="M27.12 19.266a.79.79 0 1 1 1.579 0 .79.79 0 0 1-1.58 0zm.075 0a.714.714 0 1 0 1.428 0 .714.714 0 0 0-1.428 0zm-.075-2.476a.79.79 0 1 1 1.579 0 .79.79 0 0 1-1.58 0zm.075 0a.714.714 0 1 0 1.428 0 .714.714 0 0 0-1.428 0z" fill="#68CEF2"/><path d="M27.12 20.091a.79.79 0 1 1 1.578 0 .79.79 0 0 1-1.578 0zm.075 0a.714.714 0 1 0 1.429 0 .714.714 0 0 0-1.429 0zm-.9-2.476a.79.79 0 1 1 1.578 0 .79.79 0 0 1-1.578 0zm.075 0a.714.714 0 1 0 1.428 0 .714.714 0 0 0-1.428 0z" fill="#68CEF2"/><path d="M26.295 18.44a.79.79 0 1 1 1.578 0 .79.79 0 0 1-1.578 0zm.075 0a.714.714 0 1 0 1.428 0 .714.714 0 0 0-1.428 0z" fill="#68CEF2"/><path d="M26.295 19.266a.79.79 0 1 1 1.578 0 .79.79 0 0 1-1.578 0zm.075 0a.714.714 0 1 0 1.428 0 .714.714 0 0 0-1.428 0zm-18.243 0a.79.79 0 1 1 1.579 0 .79.79 0 0 1-1.58 0zm.075 0a.714.714 0 1 0 1.428 0 .714.714 0 0 0-1.428 0zm-.075-2.476a.79.79 0 1 1 1.579 0 .79.79 0 0 1-1.58 0zm.075 0a.714.714 0 1 0 1.428 0 .714.714 0 0 0-1.428 0z" fill="#68CEF2"/><path d="M7.301 18.44a.79.79 0 1 1 1.58 0 .79.79 0 0 1-1.58 0zm.075 0a.714.714 0 1 0 1.429 0 .714.714 0 0 0-1.429 0z" fill="#68CEF2"/><path d="M7.301 19.266a.79.79 0 1 1 1.58 0 .79.79 0 0 1-1.58 0zm.075 0a.714.714 0 1 0 1.429 0 .714.714 0 0 0-1.429 0zm-.075-2.476a.79.79 0 1 1 1.58 0 .79.79 0 0 1-1.58 0zm.075 0a.714.714 0 1 0 1.429 0 .714.714 0 0 0-1.429 0z" fill="#68CEF2"/><path d="M7.301 20.091a.79.79 0 1 1 1.579 0 .79.79 0 0 1-1.579 0zm.075 0a.714.714 0 1 0 1.43 0 .714.714 0 0 0-1.43 0zm-.9-1.651a.79.79 0 1 1 1.579 0 .79.79 0 0 1-1.579 0zm.075 0a.714.714 0 1 0 1.429 0 .714.714 0 0 0-1.429 0z" fill="#68CEF2"/><path d="M6.476 16.79a.79.79 0 1 1 1.579 0 .79.79 0 0 1-1.579 0zm.075 0a.714.714 0 1 0 1.429 0 .714.714 0 0 0-1.429 0zm-.075 3.301a.79.79 0 1 1 1.579 0 .79.79 0 0 1-1.579 0zm.075 0a.714.714 0 1 0 1.429 0 .714.714 0 0 0-1.429 0zM5.65 18.44a.79.79 0 1 1 1.58 0 .79.79 0 0 1-1.58 0zm.076 0a.714.714 0 1 0 1.428 0 .714.714 0 0 0-1.428 0z" fill="#68CEF2"/><path d="M5.65 16.79a.79.79 0 1 1 1.58 0 .79.79 0 0 1-1.58 0zm.076 0a.714.714 0 1 0 1.428 0 .714.714 0 0 0-1.428 0zm-.076 3.301a.79.79 0 1 1 1.58 0 .79.79 0 0 1-1.58 0zm.076 0a.714.714 0 1 0 1.428 0 .714.714 0 0 0-1.428 0z" fill="#68CEF2"/><path d="M4.825 17.615a.79.79 0 1 1 1.58 0 .79.79 0 0 1-1.58 0zm.075 0a.714.714 0 1 0 1.43 0 .714.714 0 0 0-1.43 0z" fill="#68CEF2"/><path d="M4.825 18.44a.79.79 0 1 1 1.58 0 .79.79 0 0 1-1.58 0zm.075 0a.714.714 0 1 0 1.429 0 .714.714 0 0 0-1.428 0z" fill="#68CEF2"/><path d="M4.825 16.79a.79.79 0 1 1 1.58 0 .79.79 0 0 1-1.58 0zm.075 0a.714.714 0 1 0 1.429 0 .714.714 0 0 0-1.428 0zm-.075 3.301a.79.79 0 1 1 1.579 0 .79.79 0 0 1-1.579 0zm.075 0a.714.714 0 1 0 1.43 0 .714.714 0 0 0-1.43 0z" fill="#68CEF2"/><path d="M4 17.615a.79.79 0 1 1 1.579 0 .79.79 0 0 1-1.579 0zm.075 0a.714.714 0 1 0 1.429 0 .714.714 0 0 0-1.429 0zM4 20.091a.79.79 0 1 1 1.579 0 .79.79 0 0 1-1.579 0zm.075 0a.714.714 0 1 0 1.429 0 .714.714 0 0 0-1.429 0z" fill="#68CEF2"/><path d="M13.757 17.615a.601.601 0 1 1 1.202 0 .601.601 0 0 1-1.202 0zm.075 0a.526.526 0 1 0 1.052 0 .526.526 0 0 0-1.052 0z" fill="#0087CD"/><path d="M13.757 18.44a.601.601 0 1 1 1.202 0 .601.601 0 0 1-1.202 0zm.075 0a.526.526 0 1 0 1.052 0 .526.526 0 0 0-1.052 0z" fill="#0087CD"/><path d="M13.757 19.266a.601.601 0 1 1 1.202 0 .601.601 0 0 1-1.202 0zm.075 0a.526.526 0 1 0 1.052 0 .526.526 0 0 0-1.052 0zm-.901-1.651a.601.601 0 1 1 1.203 0 .601.601 0 0 1-1.203 0zm.076 0a.526.526 0 1 0 1.051 0 .526.526 0 0 0-1.051 0z" fill="#0087CD"/><path d="M12.931 18.44a.601.601 0 1 1 1.203 0 .601.601 0 0 1-1.203 0zm.076 0a.526.526 0 1 0 1.051 0 .526.526 0 0 0-1.051 0z" fill="#0087CD"/><path d="M12.931 19.266a.601.601 0 1 1 1.203 0 .601.601 0 0 1-1.203 0zm.076 0a.526.526 0 1 0 1.051 0 .526.526 0 0 0-1.051 0zm-.076-2.476a.601.601 0 1 1 1.203 0 .601.601 0 0 1-1.203 0zm.076 0a.526.526 0 1 0 1.051 0 .526.526 0 0 0-1.051 0z" fill="#0087CD"/><path d="M12.931 20.091a.601.601 0 1 1 1.203 0 .601.601 0 0 1-1.203 0zm.076 0a.526.526 0 1 0 1.051 0 .526.526 0 0 0-1.051 0zm-.901-3.301a.601.601 0 1 1 1.202 0 .601.601 0 0 1-1.202 0zm.075 0a.526.526 0 1 0 1.052 0 .526.526 0 0 0-1.052 0z" fill="#0087CD"/><path d="M12.106 20.091a.601.601 0 1 1 1.202 0 .601.601 0 0 1-1.202 0zm.075 0a.526.526 0 1 0 1.052 0 .526.526 0 0 0-1.052 0zm-.901-3.301a.601.601 0 1 1 1.203 0 .601.601 0 0 1-1.202 0zm.076 0a.526.526 0 1 0 1.052 0 .526.526 0 0 0-1.052 0z" fill="#0087CD"/><path d="M10.455 16.79a.601.601 0 1 1 1.203 0 .601.601 0 0 1-1.203 0zm.076 0a.526.526 0 1 0 1.051 0 .526.526 0 0 0-1.051 0z" fill="#0087CD"/><path d="M9.63 17.615a.601.601 0 1 1 1.202 0 .601.601 0 0 1-1.202 0zm.075 0a.526.526 0 1 0 1.052 0 .526.526 0 0 0-1.052 0zm1.575 2.476a.601.601 0 1 1 1.203 0 .601.601 0 0 1-1.202 0zm.076 0a.526.526 0 1 0 1.052 0 .526.526 0 0 0-1.052 0z" fill="#0087CD"/><path d="M10.455 17.615a.601.601 0 1 1 1.203 0 .601.601 0 0 1-1.203 0zm.076 0a.526.526 0 1 0 1.051 0 .526.526 0 0 0-1.051 0z" fill="#0087CD"/><path d="M10.455 18.44a.601.601 0 1 1 1.203 0 .601.601 0 0 1-1.203 0zm.076 0a.526.526 0 1 0 1.051 0 .526.526 0 0 0-1.051 0z" fill="#0087CD"/><path d="M10.455 19.266a.601.601 0 1 1 1.203 0 .601.601 0 0 1-1.203 0zm.076 0a.526.526 0 1 0 1.051 0 .526.526 0 0 0-1.051 0z" fill="#0087CD"/><path d="M10.455 20.091a.601.601 0 1 1 1.203 0 .601.601 0 0 1-1.203 0zm.076 0a.526.526 0 1 0 1.051 0 .526.526 0 0 0-1.051 0zM9.63 18.44a.601.601 0 1 1 1.202 0 .601.601 0 0 1-1.202 0zm.075 0a.526.526 0 1 0 1.052 0 .526.526 0 0 0-1.052 0z" fill="#0087CD"/><path d="M9.63 19.266a.6.6 0 1 1 1.202-.001.6.6 0 0 1-1.202 0zm.075 0a.526.526 0 1 0 1.052 0 .526.526 0 0 0-1.052 0zm9.757-1.651a.601.601 0 1 1 1.202 0 .601.601 0 0 1-1.202 0zm.075 0a.526.526 0 1 0 1.052 0 .526.526 0 0 0-1.052 0z" fill="#0087CD"/><path d="M19.462 18.44a.601.601 0 1 1 1.203 0 .601.601 0 0 1-1.203 0zm.075 0a.526.526 0 1 0 1.052 0 .526.526 0 0 0-1.052 0z" fill="#0087CD"/><path d="M19.462 19.266a.601.601 0 1 1 1.203 0 .601.601 0 0 1-1.203 0zm.075 0a.526.526 0 1 0 1.052 0 .526.526 0 0 0-1.052 0zm-.075-2.476a.601.601 0 1 1 1.203 0 .601.601 0 0 1-1.203 0zm.075 0a.526.526 0 1 0 1.052 0 .526.526 0 0 0-1.052 0z" fill="#0087CD"/><path d="M19.462 20.091a.601.601 0 1 1 1.202 0 .601.601 0 0 1-1.202 0zm.075 0a.526.526 0 1 0 1.052 0 .526.526 0 0 0-1.052 0zm-.9-2.476a.601.601 0 1 1 1.202 0 .601.601 0 0 1-1.202 0zm.075 0a.526.526 0 1 0 1.051 0 .526.526 0 0 0-1.051 0z" fill="#0087CD"/><path d="M18.637 18.44a.601.601 0 1 1 1.202 0 .601.601 0 0 1-1.202 0zm.075 0a.526.526 0 1 0 1.051 0 .526.526 0 0 0-1.051 0z" fill="#0087CD"/><path d="M18.637 19.266a.601.601 0 1 1 1.202 0 .601.601 0 0 1-1.202 0zm.075 0a.526.526 0 1 0 1.052 0 .526.526 0 0 0-1.052 0zm-.075-2.476a.601.601 0 1 1 1.202 0 .601.601 0 0 1-1.202 0zm.075 0a.526.526 0 1 0 1.052 0 .526.526 0 0 0-1.052 0z" fill="#0087CD"/><path d="M18.637 20.091a.601.601 0 1 1 1.202 0 .601.601 0 0 1-1.202 0zm.075 0a.526.526 0 1 0 1.052 0 .526.526 0 0 0-1.052 0zm-.901-1.651a.601.601 0 1 1 1.203 0 .601.601 0 0 1-1.203 0zm.076 0a.526.526 0 1 0 1.051 0 .526.526 0 0 0-1.051 0z" fill="#0087CD"/><path d="M17.811 19.266a.601.601 0 1 1 1.203 0 .601.601 0 0 1-1.203 0zm.076 0a.526.526 0 1 0 1.051 0 .526.526 0 0 0-1.051 0zM16.16 16.79a.601.601 0 1 1 1.203 0 .601.601 0 0 1-1.202 0zm.076 0a.526.526 0 1 0 1.052 0 .526.526 0 0 0-1.052 0z" fill="#0087CD"/><path d="M15.335 17.615a.601.601 0 1 1 1.203 0 .601.601 0 0 1-1.203 0zm.076 0a.526.526 0 1 0 1.051 0 .526.526 0 0 0-1.051 0z" fill="#0087CD"/><path d="M15.335 16.79a.601.601 0 1 1 1.203 0 .601.601 0 0 1-1.203 0zm.076 0a.526.526 0 1 0 1.051 0 .526.526 0 0 0-1.051 0zm1.575.825a.601.601 0 1 1 1.202 0 .601.601 0 0 1-1.202 0zm.075 0a.526.526 0 1 0 1.052 0 .526.526 0 0 0-1.052 0z" fill="#0087CD"/><path d="M16.986 18.44a.601.601 0 1 1 1.202 0 .601.601 0 0 1-1.202 0zm.075 0a.526.526 0 1 0 1.052 0 .526.526 0 0 0-1.052 0z" fill="#0087CD"/><path d="M16.16 17.615a.601.601 0 1 1 1.203 0 .601.601 0 0 1-1.202 0zm.076 0a.526.526 0 1 0 1.052 0 .526.526 0 0 0-1.052 0z" fill="#0087CD"/><path d="M16.16 18.44a.601.601 0 1 1 1.203 0 .601.601 0 0 1-1.202 0zm.076 0a.526.526 0 1 0 1.052 0 .526.526 0 0 0-1.052 0z" fill="#0087CD"/><path d="M16.16 19.266a.601.601 0 1 1 1.203 0 .601.601 0 0 1-1.202 0zm.076 0a.526.526 0 1 0 1.052 0 .526.526 0 0 0-1.052 0z" fill="#0087CD"/><path d="M16.16 20.091a.601.601 0 1 1 1.203 0 .601.601 0 0 1-1.202 0zm.076 0a.526.526 0 1 0 1.052 0 .526.526 0 0 0-1.052 0zm-.901-1.651a.601.601 0 1 1 1.203 0 .601.601 0 0 1-1.203 0zm.076 0a.526.526 0 1 0 1.051 0 .526.526 0 0 0-1.051 0z" fill="#0087CD"/><path d="M15.335 19.266a.601.601 0 1 1 1.203 0 .601.601 0 0 1-1.203 0zm.076 0a.526.526 0 1 0 1.051 0 .526.526 0 0 0-1.051 0z" fill="#0087CD"/><path d="M15.335 20.091a.601.601 0 1 1 1.203 0 .601.601 0 0 1-1.203 0zm.076 0a.526.526 0 1 0 1.051 0 .526.526 0 0 0-1.051 0zm9.757-.825a.601.601 0 1 1 1.202 0 .601.601 0 0 1-1.203 0zm.075 0a.526.526 0 1 0 1.051 0 .526.526 0 0 0-1.051 0z" fill="#0087CD"/><path d="M25.168 20.091a.601.601 0 1 1 1.202 0 .601.601 0 0 1-1.203 0zm.075 0a.526.526 0 1 0 1.051 0 .526.526 0 0 0-1.051 0zm-.901-2.476a.601.601 0 1 1 1.202 0 .601.601 0 0 1-1.202 0zm.075 0a.526.526 0 1 0 1.052 0 .526.526 0 0 0-1.052 0z" fill="#0087CD"/><path d="M24.342 18.44a.601.601 0 1 1 1.203 0 .601.601 0 0 1-1.203 0zm.075 0a.526.526 0 1 0 1.052 0 .526.526 0 0 0-1.052 0z" fill="#0087CD"/><path d="M24.342 19.266a.601.601 0 1 1 1.203 0 .601.601 0 0 1-1.203 0zm.075 0a.526.526 0 1 0 1.052 0 .526.526 0 0 0-1.052 0z" fill="#0087CD"/><path d="M24.342 20.091a.601.601 0 1 1 1.202 0 .601.601 0 0 1-1.202 0zm.075 0a.526.526 0 1 0 1.052 0 .526.526 0 0 0-1.052 0z" fill="#0087CD"/><path d="M23.517 19.266a.601.601 0 1 1 1.202 0 .601.601 0 0 1-1.202 0zm.075 0a.526.526 0 1 0 1.052 0 .526.526 0 0 0-1.052 0zm-.075-2.476a.601.601 0 1 1 1.202 0 .601.601 0 0 1-1.202 0zm.075 0a.526.526 0 1 0 1.052 0 .526.526 0 0 0-1.052 0z" fill="#0087CD"/><path d="M22.691 16.79a.601.601 0 1 1 1.203 0 .601.601 0 0 1-1.203 0zm.076 0a.526.526 0 1 0 1.051 0 .526.526 0 0 0-1.051 0zm-.076 2.476a.601.601 0 1 1 1.203 0 .601.601 0 0 1-1.203 0zm.076 0a.526.526 0 1 0 1.051 0 .526.526 0 0 0-1.051 0z" fill="#0087CD"/><path d="M21.866 17.615a.601.601 0 1 1 1.202 0 .601.601 0 0 1-1.202 0zm.075 0a.526.526 0 1 0 1.052 0 .526.526 0 0 0-1.052 0z" fill="#0087CD"/><path d="M21.866 18.44a.601.601 0 1 1 1.203 0 .601.601 0 0 1-1.203 0zm.075 0a.526.526 0 1 0 1.052 0 .526.526 0 0 0-1.052 0z" fill="#0087CD"/><path d="M21.866 19.266a.601.601 0 1 1 1.203 0 .601.601 0 0 1-1.203 0zm.075 0a.526.526 0 1 0 1.052 0 .526.526 0 0 0-1.052 0z" fill="#0087CD"/><path d="M21.866 20.091a.601.601 0 1 1 1.202 0 .601.601 0 0 1-1.202 0zm.075 0a.526.526 0 1 0 1.052 0 .526.526 0 0 0-1.052 0z" fill="#0087CD"/><path d="M21.04 19.266a.601.601 0 1 1 1.203 0 .601.601 0 0 1-1.202 0zm.076 0a.526.526 0 1 0 1.052 0 .526.526 0 0 0-1.052 0z" fill="#0087CD"/><path d="M21.04 20.091a.601.601 0 1 1 1.203 0 .601.601 0 0 1-1.202 0zm.076 0a.526.526 0 1 0 1.052 0 .526.526 0 0 0-1.052 0zm9.494-3.301a.601.601 0 1 1 1.202 0 .601.601 0 0 1-1.203 0zm.075 0a.526.526 0 1 0 1.051 0 .526.526 0 0 0-1.051 0zm-.075 3.301a.601.601 0 1 1 1.202 0 .601.601 0 0 1-1.203 0zm.075 0a.526.526 0 1 0 1.052 0 .526.526 0 0 0-1.052 0zm-.901-1.651a.601.601 0 1 1 1.202 0 .601.601 0 0 1-1.202 0zm.075 0a.526.526 0 1 0 1.052 0 .526.526 0 0 0-1.052 0z" fill="#0087CD"/><path d="M29.784 16.79a.601.601 0 1 1 1.202 0 .601.601 0 0 1-1.202 0zm.075 0a.526.526 0 1 0 1.052 0 .526.526 0 0 0-1.052 0zm-.075 3.301a.601.601 0 1 1 1.202 0 .601.601 0 0 1-1.202 0zm.075 0a.526.526 0 1 0 1.052 0 .526.526 0 0 0-1.052 0zm-.9-1.651a.601.601 0 1 1 1.202 0 .601.601 0 0 1-1.202 0zm.075 0a.526.526 0 1 0 1.052 0 .526.526 0 0 0-1.052 0z" fill="#0087CD"/><path d="M28.959 16.79a.601.601 0 1 1 1.202 0 .601.601 0 0 1-1.202 0zm.075 0a.526.526 0 1 0 1.052 0 .526.526 0 0 0-1.052 0zm-.075 3.301a.601.601 0 1 1 1.202 0 .601.601 0 0 1-1.202 0zm.075 0a.526.526 0 1 0 1.052 0 .526.526 0 0 0-1.052 0z" fill="#0087CD"/><path d="M28.133 16.79a.601.601 0 1 1 1.203 0 .601.601 0 0 1-1.203 0zm.076 0a.526.526 0 1 0 1.051 0 .526.526 0 0 0-1.051 0z" fill="#0087CD"/><path d="M27.308 16.79a.601.601 0 1 1 1.202 0 .601.601 0 0 1-1.202 0zm.075 0a.526.526 0 1 0 1.052 0 .526.526 0 0 0-1.052 0z" fill="#0087CD"/><path d="M26.483 17.615a.601.601 0 1 1 1.202 0 .601.601 0 0 1-1.202 0zm.075 0a.526.526 0 1 0 1.052 0 .526.526 0 0 0-1.052 0zm1.575.825a.601.601 0 1 1 1.203 0 .601.601 0 0 1-1.203 0zm.076 0a.526.526 0 1 0 1.051 0 .526.526 0 0 0-1.051 0zm-.076 1.651a.601.601 0 1 1 1.202 0 .601.601 0 0 1-1.202 0zm.076 0a.526.526 0 1 0 1.051 0 .526.526 0 0 0-1.051 0z" fill="#0087CD"/><path d="M27.308 17.615a.601.601 0 1 1 1.202 0 .601.601 0 0 1-1.202 0zm.075 0a.526.526 0 1 0 1.052 0 .526.526 0 0 0-1.052 0z" fill="#0087CD"/><path d="M27.308 18.44a.601.601 0 1 1 1.202 0 .601.601 0 0 1-1.202 0zm.075 0a.526.526 0 1 0 1.052 0 .526.526 0 0 0-1.052 0z" fill="#0087CD"/><path d="M27.308 19.266a.601.601 0 1 1 1.203 0 .601.601 0 0 1-1.203 0zm.075 0a.526.526 0 1 0 1.052 0 .526.526 0 0 0-1.052 0z" fill="#0087CD"/><path d="M27.308 20.091a.601.601 0 1 1 1.202 0 .601.601 0 0 1-1.202 0zm.075 0a.526.526 0 1 0 1.052 0 .526.526 0 0 0-1.052 0zm-.9-1.651a.601.601 0 1 1 1.202 0 .601.601 0 0 1-1.202 0zm.075 0a.526.526 0 1 0 1.052 0 .526.526 0 0 0-1.052 0z" fill="#0087CD"/><path d="M26.483 19.266a.601.601 0 1 1 1.202 0 .601.601 0 0 1-1.202 0zm.075 0a.526.526 0 1 0 1.052 0 .526.526 0 0 0-1.052 0zm-18.243 0a.601.601 0 1 1 1.202 0 .601.601 0 0 1-1.202 0zm.075 0a.526.526 0 1 0 1.052 0 .526.526 0 0 0-1.052 0zm-.075-2.476a.601.601 0 1 1 1.202 0 .601.601 0 0 1-1.202 0zm.075 0a.526.526 0 1 0 1.052 0 .526.526 0 0 0-1.052 0z" fill="#0087CD"/><path d="M7.49 18.44a.601.601 0 1 1 1.202 0 .601.601 0 0 1-1.202 0zm.075 0a.526.526 0 1 0 1.052 0 .526.526 0 0 0-1.052 0z" fill="#0087CD"/><path d="M7.49 19.266a.601.601 0 1 1 1.202 0 .601.601 0 0 1-1.202 0zm.075 0a.526.526 0 1 0 1.052 0 .526.526 0 0 0-1.052 0zM7.49 16.79a.601.601 0 1 1 1.202 0 .601.601 0 0 1-1.202 0zm.075 0a.526.526 0 1 0 1.052 0 .526.526 0 0 0-1.052 0z" fill="#0087CD"/><path d="M7.49 20.091a.601.601 0 1 1 1.202 0 .601.601 0 0 1-1.202 0zm.075 0a.526.526 0 1 0 1.052 0 .526.526 0 0 0-1.052 0zm-.901-1.651a.601.601 0 1 1 1.203 0 .601.601 0 0 1-1.203 0zm.076 0a.526.526 0 1 0 1.051 0 .526.526 0 0 0-1.051 0zm-.076-1.65a.601.601 0 1 1 1.203 0 .601.601 0 0 1-1.203 0zm.076 0a.526.526 0 1 0 1.051 0 .526.526 0 0 0-1.051 0z" fill="#0087CD"/><path d="M6.664 20.091a.601.601 0 1 1 1.202 0 .601.601 0 0 1-1.202 0zm.076 0a.526.526 0 1 0 1.051 0 .526.526 0 0 0-1.051 0zm-.901-3.301a.601.601 0 1 1 1.202 0 .601.601 0 0 1-1.202 0zm.075 0a.526.526 0 1 0 1.052 0 .526.526 0 0 0-1.052 0z" fill="#0087CD"/><path d="M5.014 16.79a.601.601 0 1 1 1.202 0 .601.601 0 0 1-1.202 0zm.075 0a.526.526 0 1 0 1.052 0 .526.526 0 0 0-1.052 0z" fill="#0087CD"/><path d="M4.188 17.615a.601.601 0 1 1 1.202 0 .601.601 0 0 1-1.202 0zm.076 0a.526.526 0 1 0 1.051 0 .526.526 0 0 0-1.051 0zm1.575.825a.601.601 0 1 1 1.202 0 .601.601 0 0 1-1.202 0zm.075 0a.526.526 0 1 0 1.052 0 .526.526 0 0 0-1.052 0zm-.075 1.651a.601.601 0 1 1 1.202 0 .601.601 0 0 1-1.202 0zm.075 0a.526.526 0 1 0 1.052 0 .526.526 0 0 0-1.052 0z" fill="#0087CD"/><path d="M5.014 17.615a.601.601 0 1 1 1.202 0 .601.601 0 0 1-1.202 0zm.075 0a.526.526 0 1 0 1.052 0 .526.526 0 0 0-1.052 0z" fill="#0087CD"/><path d="M5.014 18.44a.601.601 0 1 1 1.202 0 .601.601 0 0 1-1.202 0zm.075 0a.526.526 0 1 0 1.052 0 .526.526 0 0 0-1.052 0zm-.075 1.651a.601.601 0 1 1 1.202 0 .601.601 0 0 1-1.202 0zm.075 0a.526.526 0 1 0 1.052 0 .526.526 0 0 0-1.052 0z" fill="#0087CD"/><path d="M4.188 20.091a.601.601 0 1 1 1.202 0 .601.601 0 0 1-1.202 0zm.076 0a.526.526 0 1 0 1.051 0 .526.526 0 0 0-1.051 0z" fill="#0087CD"/><path fill-rule="evenodd" clip-rule="evenodd" d="M9.818 18.44a.413.413 0 1 1 .826 0 .413.413 0 0 1-.826 0z" fill="#0057A4"/><path fill-rule="evenodd" clip-rule="evenodd" d="M9.818 19.266a.413.413 0 1 1 .826 0 .413.413 0 0 1-.826 0zm0-1.651a.413.413 0 1 1 .826 0 .413.413 0 0 1-.826 0zm.826.825a.413.413 0 1 1 .825 0 .413.413 0 0 1-.825 0z" fill="#0057A4"/><path fill-rule="evenodd" clip-rule="evenodd" d="M10.644 19.266a.413.413 0 1 1 .825 0 .413.413 0 0 1-.825 0zm0-1.651a.413.413 0 1 1 .825 0 .413.413 0 0 1-.825 0z" fill="#0057A4"/><path fill-rule="evenodd" clip-rule="evenodd" d="M10.644 16.79a.413.413 0 1 1 .825 0 .413.413 0 0 1-.825 0zm0 3.301a.413.413 0 1 1 .825 0 .413.413 0 0 1-.825 0z" fill="#0057A4"/><path fill-rule="evenodd" clip-rule="evenodd" d="M11.47 16.79a.413.413 0 1 1 .825 0 .413.413 0 0 1-.826 0zm0 3.301a.413.413 0 1 1 .824 0 .413.413 0 0 1-.825 0z" fill="#0057A4"/><path fill-rule="evenodd" clip-rule="evenodd" d="M12.294 16.79a.413.413 0 1 1 .826 0 .413.413 0 0 1-.825 0zm0 3.301a.413.413 0 1 1 .826 0 .413.413 0 0 1-.825 0zm.826-1.651a.413.413 0 1 1 .825 0 .413.413 0 0 1-.825 0z" fill="#0057A4"/><path fill-rule="evenodd" clip-rule="evenodd" d="M13.12 19.266a.413.413 0 1 1 .825 0 .413.413 0 0 1-.825 0zm0-1.651a.413.413 0 1 1 .825 0 .413.413 0 0 1-.825 0z" fill="#0057A4"/><path fill-rule="evenodd" clip-rule="evenodd" d="M13.12 16.79a.413.413 0 1 1 .825 0 .413.413 0 0 1-.825 0zm.825 2.476a.413.413 0 1 1 .826 0 .413.413 0 0 1-.826 0z" fill="#0057A4"/><path fill-rule="evenodd" clip-rule="evenodd" d="M13.945 18.44a.413.413 0 1 1 .826 0 .413.413 0 0 1-.826 0z" fill="#0057A4"/><path fill-rule="evenodd" clip-rule="evenodd" d="M13.945 17.615a.413.413 0 1 1 .826 0 .413.413 0 0 1-.826 0zm-.825 2.476a.413.413 0 1 1 .825 0 .413.413 0 0 1-.825 0zm2.404-1.651a.413.413 0 1 1 .825 0 .413.413 0 0 1-.825 0z" fill="#0057A4"/><path fill-rule="evenodd" clip-rule="evenodd" d="M15.524 19.266a.413.413 0 1 1 .825 0 .413.413 0 0 1-.825 0zm0-1.651a.413.413 0 1 1 .825 0 .413.413 0 0 1-.825 0z" fill="#0057A4"/><path fill-rule="evenodd" clip-rule="evenodd" d="M15.524 16.79a.413.413 0 1 1 .825 0 .413.413 0 0 1-.825 0zm0 3.301a.413.413 0 1 1 .825 0 .413.413 0 0 1-.825 0zm.826-1.651a.413.413 0 1 1 .825 0 .413.413 0 0 1-.826 0z" fill="#0057A4"/><path fill-rule="evenodd" clip-rule="evenodd" d="M16.35 19.266a.413.413 0 1 1 .825 0 .413.413 0 0 1-.826 0zm0-1.651a.413.413 0 1 1 .825 0 .413.413 0 0 1-.826 0z" fill="#0057A4"/><path fill-rule="evenodd" clip-rule="evenodd" d="M16.35 16.79a.413.413 0 1 1 .825 0 .413.413 0 0 1-.826 0zm0 3.301a.413.413 0 1 1 .825 0 .413.413 0 0 1-.826 0zm.824-1.651a.413.413 0 1 1 .826 0 .413.413 0 0 1-.826 0z" fill="#0057A4"/><path fill-rule="evenodd" clip-rule="evenodd" d="M17.174 17.615a.413.413 0 1 1 .826 0 .413.413 0 0 1-.826 0zm.826.825a.413.413 0 1 1 .825 0 .413.413 0 0 1-.825 0z" fill="#0057A4"/><path fill-rule="evenodd" clip-rule="evenodd" d="M18 19.266a.413.413 0 1 1 .825 0 .413.413 0 0 1-.825 0zm.825-.826a.413.413 0 1 1 .825 0 .413.413 0 0 1-.825 0z" fill="#0057A4"/><path fill-rule="evenodd" clip-rule="evenodd" d="M18.825 19.266a.413.413 0 1 1 .826 0 .413.413 0 0 1-.826 0zm0-1.651a.413.413 0 1 1 .826 0 .413.413 0 0 1-.826 0z" fill="#0057A4"/><path fill-rule="evenodd" clip-rule="evenodd" d="M18.825 16.79a.413.413 0 1 1 .826 0 .413.413 0 0 1-.826 0zm.825 2.476a.413.413 0 1 1 .826 0 .413.413 0 0 1-.825 0z" fill="#0057A4"/><path fill-rule="evenodd" clip-rule="evenodd" d="M19.65 18.44a.413.413 0 1 1 .826 0 .413.413 0 0 1-.825 0z" fill="#0057A4"/><path fill-rule="evenodd" clip-rule="evenodd" d="M19.65 17.615a.413.413 0 1 1 .826 0 .413.413 0 0 1-.825 0z" fill="#0057A4"/><path fill-rule="evenodd" clip-rule="evenodd" d="M19.65 16.79a.413.413 0 1 1 .826 0 .413.413 0 0 1-.825 0zm-.825 3.301a.413.413 0 1 1 .826 0 .413.413 0 0 1-.826 0z" fill="#0057A4"/><path fill-rule="evenodd" clip-rule="evenodd" d="M19.65 20.091a.413.413 0 1 1 .826 0 .413.413 0 0 1-.825 0zm1.58-.825a.413.413 0 1 1 .825 0 .413.413 0 0 1-.826 0z" fill="#0057A4"/><path fill-rule="evenodd" clip-rule="evenodd" d="M21.23 20.091a.413.413 0 1 1 .825 0 .413.413 0 0 1-.826 0zm.825-1.651a.413.413 0 1 1 .825 0 .413.413 0 0 1-.825 0z" fill="#0057A4"/><path fill-rule="evenodd" clip-rule="evenodd" d="M22.055 19.266a.413.413 0 1 1 .825 0 .413.413 0 0 1-.825 0zm0-1.651a.413.413 0 1 1 .825 0 .413.413 0 0 1-.825 0z" fill="#0057A4"/><path fill-rule="evenodd" clip-rule="evenodd" d="M22.055 20.091a.413.413 0 1 1 .825 0 .413.413 0 0 1-.825 0zm.825-.825a.413.413 0 1 1 .825 0 .413.413 0 0 1-.825 0zm0-2.476a.413.413 0 1 1 .825 0 .413.413 0 0 1-.825 0z" fill="#0057A4"/><path fill-rule="evenodd" clip-rule="evenodd" d="M23.705 19.266a.413.413 0 1 1 .826 0 .413.413 0 0 1-.826 0zm0-2.476a.413.413 0 1 1 .826 0 .413.413 0 0 1-.826 0zm.825 1.65a.413.413 0 1 1 .826 0 .413.413 0 0 1-.826 0z" fill="#0057A4"/><path fill-rule="evenodd" clip-rule="evenodd" d="M24.53 19.266a.413.413 0 1 1 .826 0 .413.413 0 0 1-.825 0zm0-1.651a.413.413 0 1 1 .826 0 .413.413 0 0 1-.826 0z" fill="#0057A4"/><path fill-rule="evenodd" clip-rule="evenodd" d="M25.356 19.266a.413.413 0 1 1 .825 0 .413.413 0 0 1-.825 0zm-.826.825a.413.413 0 1 1 .826 0 .413.413 0 0 1-.826 0z" fill="#0057A4"/><path fill-rule="evenodd" clip-rule="evenodd" d="M25.356 20.091a.413.413 0 1 1 .825 0 .413.413 0 0 1-.825 0zm1.315-1.651a.413.413 0 1 1 .826 0 .413.413 0 0 1-.826 0z" fill="#0057A4"/><path fill-rule="evenodd" clip-rule="evenodd" d="M26.671 19.266a.413.413 0 1 1 .826 0 .413.413 0 0 1-.826 0zm0-1.651a.413.413 0 1 1 .826 0 .413.413 0 0 1-.826 0zm.826.825a.413.413 0 1 1 .825 0 .413.413 0 0 1-.825 0z" fill="#0057A4"/><path fill-rule="evenodd" clip-rule="evenodd" d="M27.497 19.266a.413.413 0 1 1 .825 0 .413.413 0 0 1-.825 0zm0-1.651a.413.413 0 1 1 .825 0 .413.413 0 0 1-.825 0z" fill="#0057A4"/><path fill-rule="evenodd" clip-rule="evenodd" d="M27.497 16.79a.413.413 0 1 1 .825 0 .413.413 0 0 1-.825 0zm0 3.301a.413.413 0 1 1 .825 0 .413.413 0 0 1-.825 0zm.825-1.651a.413.413 0 1 1 .825 0 .413.413 0 0 1-.825 0z" fill="#0057A4"/><path fill-rule="evenodd" clip-rule="evenodd" d="M28.322 16.79a.413.413 0 1 1 .825 0 .413.413 0 0 1-.825 0zm0 3.301a.413.413 0 1 1 .825 0 .413.413 0 0 1-.825 0zm.825-1.651a.413.413 0 1 1 .825 0 .413.413 0 0 1-.825 0z" fill="#0057A4"/><path fill-rule="evenodd" clip-rule="evenodd" d="M29.147 16.79a.413.413 0 1 1 .826 0 .413.413 0 0 1-.826 0zm0 3.301a.413.413 0 1 1 .825 0 .413.413 0 0 1-.825 0zm.826-1.651a.413.413 0 1 1 .825 0 .413.413 0 0 1-.825 0z" fill="#0057A4"/><path fill-rule="evenodd" clip-rule="evenodd" d="M29.973 16.79a.413.413 0 1 1 .825 0 .413.413 0 0 1-.825 0z" fill="#0057A4"/><path fill-rule="evenodd" clip-rule="evenodd" d="M30.798 16.79a.413.413 0 1 1 .826 0 .413.413 0 0 1-.826 0zm-.825 3.301a.413.413 0 1 1 .825 0 .413.413 0 0 1-.825 0z" fill="#0057A4"/><path fill-rule="evenodd" clip-rule="evenodd" d="M30.798 20.091a.413.413 0 1 1 .825 0 .413.413 0 0 1-.825 0zM4.377 17.615a.413.413 0 1 1 .825 0 .413.413 0 0 1-.825 0zm0 2.476a.413.413 0 1 1 .825 0 .413.413 0 0 1-.825 0zm.825-1.651a.413.413 0 1 1 .825 0 .413.413 0 0 1-.825 0z" fill="#0057A4"/><path fill-rule="evenodd" clip-rule="evenodd" d="M5.202 17.615a.413.413 0 1 1 .825 0 .413.413 0 0 1-.825 0z" fill="#0057A4"/><path fill-rule="evenodd" clip-rule="evenodd" d="M5.202 16.79a.413.413 0 1 1 .826 0 .413.413 0 0 1-.826 0zm0 3.301a.413.413 0 1 1 .825 0 .413.413 0 0 1-.825 0zm.825-1.651a.413.413 0 1 1 .826 0 .413.413 0 0 1-.826 0z" fill="#0057A4"/><path fill-rule="evenodd" clip-rule="evenodd" d="M6.027 16.79a.413.413 0 1 1 .826-.001.413.413 0 0 1-.826 0zm0 3.301a.413.413 0 1 1 .826 0 .413.413 0 0 1-.826 0zm.826-1.651a.413.413 0 1 1 .825 0 .413.413 0 0 1-.825 0z" fill="#0057A4"/><path fill-rule="evenodd" clip-rule="evenodd" d="M6.853 16.79a.413.413 0 1 1 .825 0 .413.413 0 0 1-.825 0zm0 3.301a.413.413 0 1 1 .825 0 .413.413 0 0 1-.825 0zm.825-1.651a.413.413 0 1 1 .825 0 .413.413 0 0 1-.825 0z" fill="#0057A4"/><path fill-rule="evenodd" clip-rule="evenodd" d="M7.678 19.266a.413.413 0 1 1 .826 0 .413.413 0 0 1-.826 0zm0-2.476a.413.413 0 1 1 .826 0 .413.413 0 0 1-.826 0z" fill="#0057A4"/><path fill-rule="evenodd" clip-rule="evenodd" d="M8.503 19.266a.413.413 0 1 1 .826 0 .413.413 0 0 1-.826 0zm0-2.476a.413.413 0 1 1 .826 0 .413.413 0 0 1-.826 0zm-.825 3.301a.413.413 0 1 1 .825 0 .413.413 0 0 1-.825 0z" fill="#0057A4"/><path fill-rule="evenodd" clip-rule="evenodd" d="M4.472 17.615a.317.317 0 1 1 .634 0 .317.317 0 0 1-.634 0zm0 2.476a.317.317 0 1 1 .634 0 .317.317 0 0 1-.634 0zm.826-1.651a.317.317 0 1 1 .634 0 .317.317 0 0 1-.634 0zm0-.825a.317.317 0 1 1 .634 0 .317.317 0 0 1-.634 0zm0-.825a.317.317 0 1 1 .634 0 .317.317 0 0 1-.634 0zm0 3.301a.317.317 0 1 1 .634 0 .317.317 0 0 1-.634 0zm.825-1.651a.317.317 0 1 1 .634 0 .317.317 0 0 1-.634 0zm0-1.65a.317.317 0 1 1 .634 0 .317.317 0 0 1-.634 0zm0 3.301a.317.317 0 1 1 .634 0 .317.317 0 0 1-.634 0zm.825-1.651a.317.317 0 1 1 .634 0 .317.317 0 0 1-.634 0zm0-1.65a.317.317 0 1 1 .634 0 .317.317 0 0 1-.634 0zm0 3.301a.317.317 0 1 1 .635 0 .317.317 0 0 1-.635 0zm.826-1.651a.317.317 0 1 1 .633 0 .317.317 0 0 1-.633 0zm0 .826a.317.317 0 1 1 .634 0 .317.317 0 0 1-.634 0zm0-2.476a.317.317 0 1 1 .633 0 .317.317 0 0 1-.633 0zm0 3.301a.317.317 0 1 1 .634 0 .317.317 0 0 1-.634 0zm.826-.825a.317.317 0 1 1 .633 0 .317.317 0 0 1-.634 0zm0-2.476a.317.317 0 1 1 .633 0 .317.317 0 0 1-.634 0zm18.167 1.65a.317.317 0 1 1 .634 0 .317.317 0 0 1-.634 0zm0 .826a.317.317 0 1 1 .634 0 .317.317 0 0 1-.634 0zm0-1.651a.317.317 0 1 1 .634 0 .317.317 0 0 1-.634 0zm.825.825a.317.317 0 1 1 .634 0 .317.317 0 0 1-.634 0zm0 .826a.317.317 0 1 1 .634 0 .317.317 0 0 1-.634 0zm0-1.651a.317.317 0 1 1 .634 0 .317.317 0 0 1-.634 0zm0-.825a.317.317 0 1 1 .634 0 .317.317 0 0 1-.634 0zm0 3.301a.317.317 0 1 1 .634 0 .317.317 0 0 1-.634 0zm.825-1.651a.317.317 0 1 1 .634 0 .317.317 0 0 1-.634 0zm0-1.65a.317.317 0 1 1 .634 0 .317.317 0 0 1-.634 0zm0 3.301a.317.317 0 1 1 .635 0 .317.317 0 0 1-.635 0zm.826-1.651a.317.317 0 1 1 .634 0 .317.317 0 0 1-.634 0zm0-1.65a.317.317 0 1 1 .634 0 .317.317 0 0 1-.634 0zm0 3.301a.317.317 0 1 1 .634 0 .317.317 0 0 1-.634 0zm.825-1.651a.317.317 0 1 1 .634 0 .317.317 0 0 1-.634 0zm0-1.65a.317.317 0 1 1 .634 0 .317.317 0 0 1-.634 0zm0 3.301a.317.317 0 1 1 .634 0 .317.317 0 0 1-.634 0zm.825 0a.317.317 0 1 1 .635 0 .317.317 0 0 1-.634 0zm0-3.301a.317.317 0 1 1 .634 0 .317.317 0 0 1-.634 0zM9.914 18.44a.317.317 0 1 1 .634 0 .317.317 0 0 1-.634 0zm0 .826a.317.317 0 1 1 .634 0 .317.317 0 0 1-.634 0zm0-1.651a.317.317 0 1 1 .634 0 .317.317 0 0 1-.634 0zm.826.825a.317.317 0 1 1 .633 0 .317.317 0 0 1-.634 0zm0 .826a.317.317 0 1 1 .633 0 .317.317 0 0 1-.634 0zm0-1.651a.317.317 0 1 1 .634 0 .317.317 0 0 1-.635 0zm0-.825a.317.317 0 1 1 .633 0 .317.317 0 0 1-.634 0zm0 3.301a.317.317 0 1 1 .634 0 .317.317 0 0 1-.635 0zm.825-3.301a.317.317 0 1 1 .634 0 .317.317 0 0 1-.634 0zm0 3.301a.317.317 0 1 1 .634 0 .317.317 0 0 1-.634 0zm.825-3.301a.317.317 0 1 1 .634 0 .317.317 0 0 1-.634 0zm0 3.301a.317.317 0 1 1 .634 0 .317.317 0 0 1-.634 0zm.825-1.651a.317.317 0 1 1 .634 0 .317.317 0 0 1-.634 0zm0 .826a.317.317 0 1 1 .634 0 .317.317 0 0 1-.634 0zm0-1.651a.317.317 0 1 1 .635 0 .317.317 0 0 1-.635 0zm0-.825a.317.317 0 1 1 .634 0 .317.317 0 0 1-.634 0zm0 3.301a.317.317 0 1 1 .635 0 .317.317 0 0 1-.635 0zm.825-.825a.317.317 0 1 1 .635 0 .317.317 0 0 1-.634 0zm0-.826a.317.317 0 1 1 .635 0 .317.317 0 0 1-.634 0zm0-.825a.317.317 0 1 1 .635 0 .317.317 0 0 1-.634 0zm1.58.825a.317.317 0 1 1 .633 0 .317.317 0 0 1-.634 0zm0 .826a.317.317 0 1 1 .633 0 .317.317 0 0 1-.634 0zm0-1.651a.317.317 0 1 1 .634 0 .317.317 0 0 1-.635 0zm0-.825a.317.317 0 1 1 .633 0 .317.317 0 0 1-.634 0zm0 3.301a.317.317 0 1 1 .634 0 .317.317 0 0 1-.635 0zm.825-1.651a.317.317 0 1 1 .634 0 .317.317 0 0 1-.634 0zm0 .826a.317.317 0 1 1 .634 0 .317.317 0 0 1-.634 0zm0-1.651a.317.317 0 1 1 .634 0 .317.317 0 0 1-.634 0zm0-.825a.317.317 0 1 1 .634 0 .317.317 0 0 1-.634 0zm0 3.301a.317.317 0 1 1 .634 0 .317.317 0 0 1-.634 0zm.825-1.651a.317.317 0 1 1 .634 0 .317.317 0 0 1-.634 0zm0-.825a.317.317 0 1 1 .634 0 .317.317 0 0 1-.634 0zm.825.825a.317.317 0 1 1 .634 0 .317.317 0 0 1-.634 0zm0 .826a.317.317 0 1 1 .634 0 .317.317 0 0 1-.634 0zm.825-.826a.317.317 0 1 1 .635 0 .317.317 0 0 1-.634 0zm0 .826a.317.317 0 1 1 .635 0 .317.317 0 0 1-.634 0zm0-1.651a.317.317 0 1 1 .635 0 .317.317 0 0 1-.634 0zm0-.825a.317.317 0 1 1 .635 0 .317.317 0 0 1-.634 0zm0 3.301a.317.317 0 1 1 .635 0 .317.317 0 0 1-.634 0zm.826 0a.317.317 0 1 1 .634 0 .317.317 0 0 1-.634 0zm0-.825a.317.317 0 1 1 .634 0 .317.317 0 0 1-.634 0zm0-.826a.317.317 0 1 1 .634 0 .317.317 0 0 1-.634 0zm0-.825a.317.317 0 1 1 .634 0 .317.317 0 0 1-.634 0zm0-.825a.317.317 0 1 1 .634 0 .317.317 0 0 1-.634 0zm1.579 2.476a.317.317 0 1 1 .634 0 .317.317 0 0 1-.634 0zm0 .825a.317.317 0 1 1 .634 0 .317.317 0 0 1-.634 0zm.825-1.651a.317.317 0 1 1 .634 0 .317.317 0 0 1-.634 0zm0 .826a.317.317 0 1 1 .634 0 .317.317 0 0 1-.634 0zm0-1.651a.317.317 0 1 1 .634 0 .317.317 0 0 1-.634 0zm0 2.476a.317.317 0 1 1 .634 0 .317.317 0 0 1-.634 0zm.825-.825a.317.317 0 1 1 .635 0 .317.317 0 0 1-.635 0zm0-2.476a.317.317 0 1 1 .634 0 .317.317 0 0 1-.634 0zm.825 2.476a.317.317 0 1 1 .635 0 .317.317 0 0 1-.634 0zm0-2.476a.317.317 0 1 1 .635 0 .317.317 0 0 1-.634 0zm.826 1.65a.317.317 0 1 1 .634 0 .317.317 0 0 1-.634 0zm0 .826a.317.317 0 1 1 .634 0 .317.317 0 0 1-.634 0zm0-1.651a.317.317 0 1 1 .634 0 .317.317 0 0 1-.634 0zm0 2.476a.317.317 0 1 1 .634 0 .317.317 0 0 1-.634 0zm.825 0a.317.317 0 1 1 .635 0 .317.317 0 0 1-.634 0zm0-.825a.317.317 0 1 1 .635 0 .317.317 0 0 1-.634 0z" fill="#fff"/></svg>