<svg height="36" viewBox="0 0 36 36" width="36" xmlns="http://www.w3.org/2000/svg"><mask id="a" fill="#fff"><path d="M0 0h28v3.56H0z" fill-rule="evenodd"/></mask><g fill="none" fill-rule="evenodd"><path d="M18 0c2.837 0 5.52.656 7.907 1.825C31.884 4.753 36 10.895 36 18c0 9.942-8.058 18-18 18-9.94 0-18-8.057-18-18C0 8.06 8.06 0 18 0z" fill="#f2f4f7" fill-rule="nonzero"/><path d="M19.226 18.899a1.127 1.127 0 0 1-.077.048l-.007.004h.007c.5.138.995.134 1.09-.18.123-.401-.672-.833-1.047-1.04-.081-.043-.116-.016-.064.043.237.273.574.81.098 1.125" fill="#f47216"/><path d="M3.558 2.601c-.344 0-.796-.148-.796-.745 0-.605.502-.728.796-.728s.796.123.796.728c0 .597-.452.745-.796.745zm0-1.851c-.56 0-1.222.28-1.222 1.102 0 .814.596 1.132 1.222 1.132s1.22-.318 1.22-1.132c0-.822-.66-1.102-1.22-1.102zm-2.236.914C.9 1.588.487 1.536.487 1.339c0-.128.127-.24.496-.24.274 0 .59.064.675.257l.388-.163C1.898.895 1.458.751.954.751c-.441 0-.915.167-.915.614 0 .387.352.507.933.617.387.073.746.109.746.319 0 .132-.177.301-.617.301-.312 0-.628-.065-.725-.288L0 2.472c.155.344.564.522 1.038.522.948 0 1.13-.452 1.13-.706 0-.427-.423-.549-.846-.624zm7.594-.509V.784c-.412-.037-.702.062-.928.297L7.966.78h-.397v2.189h.419V1.834c0-.316.255-.717.928-.679zm-.03.697c0-.823.665-1.102 1.127-1.102.524 0 .779.301.779.301l.022-.272h.382V2.97h-.381l-.023-.289s-.262.29-.784.29c-.524 0-1.122-.305-1.122-1.119zm.425.004c0 .597.49.745.724.745.444 0 .757-.251.757-.753s-.356-.732-.761-.732c-.23 0-.72.135-.72.74zM6.19 2.971c-.524 0-.783-.333-.783-.333v.922h-.404V.779h.382l.022.272S5.66.75 6.186.75c.462 0 1.126.235 1.126 1.102 0 .866-.598 1.119-1.122 1.119zm-.022-1.855c-.405 0-.761.23-.761.732s.313.753.757.753c.233 0 .724-.095.724-.744 0-.651-.49-.741-.72-.741zm12.05.548c-.42-.076-.834-.128-.834-.325 0-.128.127-.24.495-.24.274 0 .59.064.676.257l.388-.163c-.15-.298-.588-.442-1.093-.442-.441 0-.915.167-.915.614 0 .387.353.507.933.617.388.073.746.109.746.319 0 .132-.176.301-.616.301-.313 0-.628-.065-.725-.288l-.376.158c.154.344.563.522 1.038.522.947 0 1.13-.452 1.13-.706 0-.427-.423-.549-.846-.624zm4.352.009c0-.298-.3-.546-.668-.546-.393 0-.718.243-.745.546zm-1.854.188c0-.685.505-1.124 1.18-1.124.672 0 1.133.49 1.133 1.086 0 0 0 .092-.01.177l-1.87.008c.019.338.41.593.812.593.433 0 .69-.269.69-.269l.3.263c-.304.292-.635.38-.99.38-.737 0-1.245-.431-1.245-1.098zm3.938-.706V.784c-.413-.037-.703.062-.93.297l-.02-.301h-.396v2.189h.418V1.834c0-.316.255-.717.929-.679zm.787-.881a.273.273 0 1 0-.547 0 .274.274 0 0 0 .547 0zm.249 1.578c0-.823.666-1.102 1.127-1.102.525 0 .78.301.78.301l.02-.272H28V2.97h-.382l-.021-.289s-.262.29-.784.29c-.524 0-1.123-.305-1.123-1.119zm.426.004c0 .597.49.745.723.745.445 0 .758-.251.758-.753s-.356-.732-.762-.732c-.23 0-.72.135-.72.74zm-1.157 1.11h.418V.778h-.418zm-5.424-1.832h-.421V.781h.42V.258h.41v.523h.67v.353h-.67v1.062c0 .265.073.404.414.404.13 0 .276-.037.276-.037v.367c-.142.02-.245.031-.406.031-.643 0-.693-.464-.693-.717z" fill="#231f20" mask="url(#a)" transform="translate(4 16)"/><path d="M19.142 18.95s-.63.397-1.74.397c-.43 0-.792-.066-.946-.217-.161-.158-.25-.426-.25-.672 0-.21.089-.388.27-.388.47 0 1.928.742 2.666.88" fill="#db1d2b"/><path d="M17.044 16.657c.023-.015.051-.033.077-.047l.007-.005h-.007c-.5-.138-.995-.133-1.09.18-.123.402.672.833 1.047 1.04.081.043.115.016.064-.043-.236-.273-.574-.81-.098-1.125" fill="#f47216"/><path d="M17.128 16.605s.63-.395 1.74-.395c.43 0 .792.065.946.216.161.16.25.426.25.672 0 .211-.089.388-.27.388-.47 0-1.928-.742-2.666-.88" fill="#db1d2b"/></g></svg>