<svg width="36" height="36" fill="none" xmlns="http://www.w3.org/2000/svg"><path d="M18 0c2.837 0 5.52.656 7.907 1.825C31.884 4.753 36 10.895 36 18c0 9.942-8.058 18-18 18-9.94 0-18-8.057-18-18C0 8.06 8.06 0 18 0z" fill="#F2F4F7"/><path d="M23.652 12.912a5.014 5.014 0 0 0-6.923.688v-1.782h-2.546v13.999h2.546V21.49a5.09 5.09 0 0 0 3.817 1.782c1.731 0 3.258-.891 4.226-2.291a10.537 10.537 0 0 1-10.181 7.381 10.664 10.664 0 0 1-9.316-5.345c.738.535 1.73.89 3.054.89 4.429 0 4.938-3.13 4.938-3.715v-.051c0-.611 0-2.29-2.901-3.258l-.382-.102c-2.596-.84-2.876-.941-2.876-1.45 0-.535.509-.84 1.094-.84.585 0 1.044.33 1.044.84h3.36c-.153-1.171-1.12-3.513-4.531-3.513-.764 0-1.451.127-2.01.33A10.715 10.715 0 0 1 14.59 8c3.843 0 7.203 1.96 9.06 4.912zM4.053 17.163c.408.458 1.044.89 2.011 1.196 2.927.916 3.538 1.324 3.538 1.91 0 .585-.738.94-1.4.94-.662 0-1.273-.712-1.273-1.145H4.181a9.85 9.85 0 0 1-.128-2.901zm19.166.025c0 1.604-1.349 2.877-3.003 2.877-1.63 0-2.978-1.273-2.978-2.877 0-1.578 1.349-2.85 2.978-2.85 1.654 0 3.003 1.272 3.003 2.85z" fill="#E31B23"/><path d="M29.455 13.09H26.91v2.546h-2.546c.102.381.23 1.4 0 2.545h2.546v2.545h2.545v-2.545H32v-2.545h-2.545V13.09z" fill="#FDB913"/></svg>