<svg height="36" viewBox="0 0 36 36" width="36" xmlns="http://www.w3.org/2000/svg"><mask id="a" fill="#fff"><path d="M0 0h4.86v4.421H0z" fill-rule="evenodd"/></mask><mask id="b" fill="#fff"><path d="M0 10.984h28V0H0z" fill-rule="evenodd"/></mask><g fill="none" fill-rule="evenodd"><path d="M18 0c2.837 0 5.52.656 7.907 1.825C31.884 4.753 36 10.895 36 18c0 9.942-8.058 18-18 18-9.94 0-18-8.057-18-18C0 8.06 8.06 0 18 0z" fill="#f2f4f7" fill-rule="nonzero"/><g fill="#000"><path d="m19.592 11-4.953 3.618-1.92-1.391 1.92-1.424 1.364 1.022.555-.401L14.638 11l-3.034 2.227 3.035 2.198 4.953-3.622 1.919 1.424-1.92 1.391-1.362-.989-.555.401 1.918 1.395 3.035-2.198z"/><path d="M4.14 1.078C3.52.77 2.87.583 2.224.583c-.435 0-.775.061-.99.154-.248.094-.341.248-.341.435 0 .186.126.341.374.401.186.061.46.093.868.126.588.032.989.061 1.176.094.528.06.929.214 1.177.401.247.187.373.462.373.803 0 .462-.187.803-.588 1.05-.402.248-.99.374-1.732.374-1.083 0-1.951-.248-2.54-.71l.402-.528c.68.402 1.39.622 2.166.622.495 0 .896-.061 1.177-.215.247-.126.4-.309.4-.556 0-.28-.186-.462-.527-.556-.186-.06-.681-.092-1.456-.154-.71-.06-1.21-.153-1.485-.279C.336 1.89.183 1.61.183 1.209c0-.402.186-.71.555-.962C1.046.094 1.574 0 2.255 0c.929 0 1.704.215 2.32.621z" mask="url(#a)" transform="translate(4 17.503)"/><path d="M5.845 10.862h.709V6.591h-.709zm7.922.001h-.714V7.366h-.028l-2.2 2.782-2.198-2.782h-.028v3.497h-.714V6.592h.896l2.045 2.567 2.045-2.567h.896zm6.558-2.139c0 .71-.28 1.271-.868 1.704-.495.374-1.116.556-1.886.556-.742 0-1.39-.187-1.886-.556-.588-.433-.868-.989-.868-1.704 0-.682.28-1.236.868-1.67.528-.374 1.144-.589 1.886-.589s1.363.187 1.858.588c.621.401.896.99.896 1.671m-.742 0c0-.494-.215-.896-.649-1.209-.34-.28-.803-.4-1.33-.4-.589 0-1.083.153-1.457.461-.373.308-.555.681-.555 1.144 0 .494.187.868.555 1.176.374.308.868.434 1.457.434.62 0 1.083-.154 1.456-.434a1.54 1.54 0 0 0 .523-1.172m5.976-2.133v3.496l-3.282-3.495h-.868v4.27h.714V7.367l3.249 3.497h.896V6.592zm1.792.281v-.215h.126c.061 0 .126.032.126.093 0 .06-.033.094-.126.094h-.126zm.22.336h.093l-.154-.248c.093-.032.154-.093.154-.187 0-.092-.06-.186-.187-.186h-.215v.62h.094V6.96h.093zm-.127.247a.553.553 0 0 1-.555-.556.555.555 0 1 1 .555.556zm0-1.05a.472.472 0 0 0-.462.462c0 .247.215.462.462.462a.473.473 0 0 0 .463-.462.449.449 0 0 0-.463-.462z" mask="url(#b)" transform="translate(4 11)"/></g></g></svg>