<svg width="36" height="36" fill="none" xmlns="http://www.w3.org/2000/svg"><path d="M18 0c2.837 0 5.52.656 7.907 1.825C31.884 4.753 36 10.895 36 18c0 9.942-8.058 18-18 18-9.94 0-18-8.057-18-18C0 8.06 8.06 0 18 0z" fill="#F2F4F7"/><path d="M7.19 19.788a1.127 1.127 0 0 1-.331.83 1.3 1.3 0 0 1-.558.328 2.423 2.423 0 0 1-.698.098 2.2 2.2 0 0 1-.63-.093 1.423 1.423 0 0 1-.558-.316 1.328 1.328 0 0 1-.297-.401A1.164 1.164 0 0 1 4 19.71h.74c0 .097.02.188.059.272.04.084.089.156.149.215a.63.63 0 0 0 .31.172 1.582 1.582 0 0 0 .75-.006.606.606 0 0 0 .408-.32.472.472 0 0 0 .045-.227c0-.145-.047-.255-.143-.328a.755.755 0 0 0-.328-.142 3.616 3.616 0 0 0-.443-.056 4.358 4.358 0 0 1-.437-.051 1.501 1.501 0 0 1-.39-.118 1.101 1.101 0 0 1-.32-.221 1.018 1.018 0 0 1-.218-.331 1.124 1.124 0 0 1-.081-.44c0-.157.032-.3.095-.432.064-.13.148-.248.253-.353.13-.13.298-.234.504-.308a1.92 1.92 0 0 1 .662-.112c.213 0 .417.032.613.098a1.313 1.313 0 0 1 .785.67c.073.142.111.297.115.465h-.74a.577.577 0 0 0-.053-.21.696.696 0 0 0-.12-.183.631.631 0 0 0-.27-.157 1.1 1.1 0 0 0-.336-.056c-.112 0-.227.015-.345.045a.617.617 0 0 0-.3.174.45.45 0 0 0-.135.336c0 .131.038.231.113.3a.53.53 0 0 0 .291.132c.127.019.27.036.43.05a9.5 9.5 0 0 1 .434.05c.15.023.29.064.423.122.133.058.248.134.348.23.099.095.177.21.235.344.058.135.087.286.087.454zm3.13 1.189-.28-.314a1.606 1.606 0 0 1-.53.314 1.8 1.8 0 0 1-.598.1c-.175 0-.343-.027-.504-.084a1.28 1.28 0 0 1-.42-.238 1.134 1.134 0 0 1-.393-.883c0-.247.065-.457.194-.634.128-.175.3-.328.512-.46a3.08 3.08 0 0 1-.173-.198 1.396 1.396 0 0 1-.135-.2.953.953 0 0 1-.087-.212.958.958 0 0 1-.03-.253.977.977 0 0 1 .319-.737.974.974 0 0 1 .345-.199c.132-.045.273-.067.423-.067.146 0 .285.021.418.064.132.043.25.107.35.19a.933.933 0 0 1 .33.726.982.982 0 0 1-.213.63 1.415 1.415 0 0 1-.238.234 2.756 2.756 0 0 1-.3.202l.69.751a.7.7 0 0 0 .07-.221 3.71 3.71 0 0 0 .042-.53v-.224h1.026v.555h-.46a2.83 2.83 0 0 1-.061.465 1.266 1.266 0 0 1-.18.427l.735.796h-.852zm-1.61-1.76c-.067.04-.128.08-.184.117a.765.765 0 0 0-.149.13.553.553 0 0 0-.137.38.584.584 0 0 0 .216.465c.065.053.14.092.227.118a.917.917 0 0 0 .269.04c.12 0 .239-.017.359-.051a.633.633 0 0 0 .308-.196l-.908-1.004zm.696-1.296a.409.409 0 0 0-.126-.32.459.459 0 0 0-.317-.111.491.491 0 0 0-.308.103c-.09.07-.135.173-.135.312a.45.45 0 0 0 .036.179.88.88 0 0 0 .09.16c.036.05.076.098.12.143l.13.128.182-.103a.907.907 0 0 0 .165-.12.467.467 0 0 0 .163-.37zm5.254.348c0 .19-.03.364-.09.522a1.064 1.064 0 0 1-.266.403c-.117.112-.264.2-.44.26a1.823 1.823 0 0 1-.605.093h-.84v1.424H11.7v-3.974h1.559c.228 0 .43.03.605.092.176.062.323.148.44.258.118.11.207.244.267.4.06.158.09.331.09.522zm-.728.006a.653.653 0 0 0-.168-.466c-.112-.119-.29-.179-.533-.179h-.813v1.284h.813c.243 0 .42-.059.533-.177a.643.643 0 0 0 .168-.462zm4.989 2.696-.084-.437a.804.804 0 0 1-.134.176.942.942 0 0 1-.222.166 1.462 1.462 0 0 1-.294.12 1.24 1.24 0 0 1-.348.048 2.12 2.12 0 0 1-.647-.096 1.23 1.23 0 0 1-.535-.347 1.577 1.577 0 0 1-.256-.342 1.886 1.886 0 0 1-.157-.381 2.356 2.356 0 0 1-.081-.423 5.211 5.211 0 0 1-.003-.93 2.25 2.25 0 0 1 .076-.419 1.583 1.583 0 0 1 .42-.718 1.5 1.5 0 0 1 .547-.347c.211-.079.423-.118.636-.118.247 0 .471.042.673.124.202.082.37.192.505.33a1.5 1.5 0 0 1 .246.345c.067.13.107.282.118.457h-.74a.475.475 0 0 0-.062-.202 1.604 1.604 0 0 0-.112-.162c-.138-.16-.35-.241-.634-.241a.963.963 0 0 0-.353.07.776.776 0 0 0-.297.199.858.858 0 0 0-.162.246 1.544 1.544 0 0 0-.096.295 1.95 1.95 0 0 0-.042.31 4.142 4.142 0 0 0 .003.586c.008.107.023.213.045.317.022.105.054.205.095.3a.84.84 0 0 0 .163.25c.078.086.176.15.294.19.118.042.235.062.35.062a.89.89 0 0 0 .345-.062.799.799 0 0 0 .46-.524c.032-.125.047-.264.047-.417h-.947v-.6h1.648v2.175h-.465zm2.219-.005c-.07.014-.122.025-.154.03a.981.981 0 0 1-.154.009c-.24 0-.431-.062-.577-.185-.146-.124-.219-.324-.219-.6v-3.302h.706v3.184c0 .086.017.154.051.205.034.05.11.076.23.076.03 0 .052-.001.067-.003a.421.421 0 0 1 .05-.003v.589zm2.975-1.452c0 .246-.03.453-.09.62-.06.165-.143.318-.252.456a1.322 1.322 0 0 1-1.02.454 1.32 1.32 0 0 1-.602-.134 1.268 1.268 0 0 1-.418-.32 1.631 1.631 0 0 1-.253-.457 1.853 1.853 0 0 1-.09-.62c0-.246.03-.453.09-.619.06-.166.144-.318.253-.457.1-.123.24-.23.418-.32.177-.089.378-.134.602-.134.224 0 .425.045.603.135.177.09.316.196.417.32.109.138.193.29.253.456.059.166.09.373.09.62zm-.712 0c0-.139-.013-.272-.04-.401a.685.685 0 0 0-.167-.334.602.602 0 0 0-.443-.185.593.593 0 0 0-.443.185.683.683 0 0 0-.168.334 2.008 2.008 0 0 0 0 .802c.026.129.082.24.168.333a.602.602 0 0 0 .443.185.596.596 0 0 0 .443-.185.684.684 0 0 0 .168-.334 2.01 2.01 0 0 0 .039-.4zm3.946.006c0 .276-.043.521-.13.736a1.292 1.292 0 0 1-.392.536 1.085 1.085 0 0 1-.706.246c-.16 0-.316-.03-.465-.092a.748.748 0 0 1-.354-.295l-.044.32h-.606v-4.048h.7v1.346a.743.743 0 0 1 .3-.205 1.23 1.23 0 0 1 .463-.081c.15 0 .284.02.402.062a.985.985 0 0 1 .31.173c.348.288.522.722.522 1.301zm-.712-.012a1.96 1.96 0 0 0-.037-.376.778.778 0 0 0-.149-.33.721.721 0 0 0-.193-.163.54.54 0 0 0-.277-.067.591.591 0 0 0-.337.087.606.606 0 0 0-.201.224.943.943 0 0 0-.099.303 1.95 1.95 0 0 0 .025.757.69.69 0 0 0 .203.361c.048.045.106.08.174.107a.645.645 0 0 0 .235.039c.108 0 .2-.023.277-.068a.718.718 0 0 0 .194-.162.787.787 0 0 0 .148-.334c.024-.125.037-.25.037-.378zm3.823 1.43a.706.706 0 0 1-.347.079.481.481 0 0 1-.354-.124.461.461 0 0 1-.14-.286.826.826 0 0 1-.336.309c-.157.085-.34.128-.55.128-.175 0-.328-.025-.46-.075a.972.972 0 0 1-.327-.202.836.836 0 0 1-.2-.291.906.906 0 0 1-.066-.345.838.838 0 0 1 .286-.65.968.968 0 0 1 .313-.183c.12-.043.249-.07.387-.081l.858-.062v-.18a.53.53 0 0 0-.098-.333c-.065-.084-.197-.126-.396-.126-.164 0-.292.035-.384.106a.399.399 0 0 0-.148.308h-.678a1.02 1.02 0 0 1 .115-.426.86.86 0 0 1 .26-.294c.108-.076.234-.133.376-.17a1.8 1.8 0 0 1 .46-.057c.25 0 .473.044.67.132a.799.799 0 0 1 .422.462c.038.094.061.191.07.292.01.1.015.2.015.297v1.082c0 .067.012.115.036.143.024.028.066.042.126.042.03 0 .05-.002.062-.006.011 0 .02-.001.028-.005v.516zm-.936-1.262-.74.056a.546.546 0 0 0-.292.107.321.321 0 0 0-.129.275c0 .112.042.2.126.266a.46.46 0 0 0 .289.098c.22 0 .4-.057.538-.171.139-.114.208-.28.208-.496v-.135zM32 20.966a.987.987 0 0 1-.308.039c-.24 0-.432-.062-.578-.185-.146-.124-.218-.324-.218-.6v-3.302h.706v3.184c0 .086.017.154.05.205.034.05.11.076.23.076.03 0 .052-.001.068-.003a.418.418 0 0 1 .05-.003v.589z" fill="#D6002A"/><path d="M32 15H4v.645h28V15z" fill="#000"/></svg>