<svg height="36" viewBox="0 0 36 36" width="36" xmlns="http://www.w3.org/2000/svg"><mask id="a" fill="#fff"><path d="M0 0h8.761v9.107H0z" fill-rule="evenodd"/></mask><mask id="b" fill="#fff"><path d="M0 0h17.435v5.221H0z" fill-rule="evenodd"/></mask><g fill="none" fill-rule="evenodd"><path d="M18 0c2.837 0 5.52.656 7.907 1.825C31.884 4.753 36 10.895 36 18c0 9.942-8.058 18-18 18-9.94 0-18-8.057-18-18C0 8.06 8.06 0 18 0z" fill="#f2f4f7" fill-rule="nonzero"/><path d="M.017 2.962c.072.842.711 1.6 1.683 2.112l.046.023a4.442 4.442 0 0 0 1.107.423c.69.159 1.253.08 1.403-.243a.444.444 0 0 0 .038-.178.671.671 0 0 0-.063-.303c-.129-.284-.284-.606-.422-.928-.15-.353-.28-.705-.325-1.006a1.662 1.662 0 0 1 .076-.586l.03-.085c.436-1.127 2.065-1.543 3.638-.93.511.2.952.484 1.301.814l.196-.106C8.323 1.346 7.61.812 6.708.457A7.27 7.27 0 0 0 4.762.02C2.264-.17.142.964.006 2.556v.016c-.01.13-.006.26.011.39m8.727 3.184c-.072-.843-.71-1.601-1.683-2.112l-.045-.024a4.92 4.92 0 0 0-1.108-.422c-.69-.16-1.253-.081-1.403.243a.424.424 0 0 0-.038.178.67.67 0 0 0 .063.302c.13.285.284.607.422.928.151.354.28.706.325 1.006.01.199-.015.397-.076.586-.01.028-.019.057-.03.085-.436 1.127-2.065 1.543-3.638.929a4.016 4.016 0 0 1-1.3-.813l-.197.107c.402.622 1.115 1.157 2.017 1.51l.014.007a6.997 6.997 0 0 0 1.932.43c2.498.19 4.622-.943 4.755-2.535l.002-.016c.01-.131.005-.26-.012-.39" fill="#bd1421" mask="url(#a)" transform="translate(4 13)"/><path d="M15.459.7c.153 0 .434.028.565.086.132.058.243.135.334.231a.97.97 0 0 1 .154.22c.041.079.072.178.093.296.022.117.037.262.044.432.007.171.011.386.011.646 0 .259-.004.474-.011.645s-.022.315-.044.433a1.053 1.053 0 0 1-.093.296.964.964 0 0 1-.488.45c-.131.057-.412.087-.565.087s-.434-.03-.565-.087a.964.964 0 0 1-.488-.45 1.053 1.053 0 0 1-.093-.296c-.022-.118-.037-.262-.044-.433s-.011-.386-.011-.645c0-.26.004-.475.011-.646.007-.17.022-.315.044-.432.021-.118.052-.217.093-.296a.97.97 0 0 1 .154-.22c.091-.096.202-.173.334-.231.131-.058.412-.086.565-.086zM2.135.094v5.033h.76V1.762l1.182 2.453h.564l1.154-2.453v3.365h.76V.094h-.76L4.359 3.226 2.895.094zM0 5.127h.76V.094H0zM7.93.091l-.004 5.036h.76V1.762l1.182 2.453h.563l1.154-2.453v3.365h.761V.094h-.761l-1.436 3.132L8.677.091zM15.459 0c-.273 0-.659.047-.881.141a1.84 1.84 0 0 0-.599.407 1.447 1.447 0 0 0-.288.397c-.067.139-.116.291-.147.454s-.049.345-.054.545a26.981 26.981 0 0 0 0 1.334c.005.199.023.381.054.544.031.164.08.315.147.455.067.138.163.271.288.396.176.178.376.314.599.407.222.094.608.141.881.141.272 0 .66-.047.885-.141.224-.093.426-.229.603-.407.124-.125.22-.258.286-.396.067-.14.116-.291.144-.455.029-.163.046-.345.05-.544a26.708 26.708 0 0 0 0-1.334 3.528 3.528 0 0 0-.05-.545 1.71 1.71 0 0 0-.144-.454 1.438 1.438 0 0 0-.286-.397 1.857 1.857 0 0 0-.603-.407C16.119.047 15.731 0 15.459 0z" fill="#042e66" mask="url(#b)" transform="translate(14.565 16.695)"/></g></svg>