<svg width="36" height="36" fill="none" xmlns="http://www.w3.org/2000/svg"><path d="M18 0c2.837 0 5.52.656 7.907 1.825C31.884 4.753 36 10.895 36 18c0 9.942-8.058 18-18 18-9.94 0-18-8.057-18-18C0 8.06 8.06 0 18 0z" fill="#F2F4F7"/><path d="M32 13H4v10.595h28V13z" fill="#EC0000"/><mask id="a" style="mask-type:alpha" maskUnits="userSpaceOnUse" x="4" y="13" width="28" height="11"><path d="M32 13H4v10.595h28V13z" fill="#fff"/></mask><g mask="url(#a)"><path fill-rule="evenodd" clip-rule="evenodd" d="M27.99 17.556c0 .106-.016.242-.031.318-.09-.015-.182-.015-.273-.015-.09 0-.181 0-.272.015v1.437h-.363v-1.664c.151-.061.424-.091.636-.091.09-.015.226 0 .302 0zm-2.483.741h.832c0-.272-.15-.439-.408-.439s-.394.152-.424.44zm1.18.303h-1.18c.045.303.227.439.545.439.197 0 .409-.045.59-.121-.015.09-.03.227-.06.333a1.297 1.297 0 0 1-.545.106c-.62 0-.924-.348-.924-.923 0-.5.227-.893.818-.893.53 0 .757.348.757.771.03.107.015.197 0 .288zm-2.224.333v-1.044a1.868 1.868 0 0 0-.303-.03c-.363 0-.545.226-.545.62 0 .348.136.59.47.59a.57.57 0 0 0 .378-.136zm.378-1.968v2.362h-.333l-.015-.212c-.09.151-.242.257-.484.257-.44 0-.742-.318-.742-.893 0-.59.318-.923.938-.923.091 0 .182.015.273.03v-.56a.965.965 0 0 1 .363-.06zm-1.877 1.226v1.136h-.363v-1.075c0-.272-.09-.393-.454-.393-.09 0-.197.015-.288.03v1.438h-.363v-1.68c.242-.061.5-.091.666-.091.59-.015.802.227.802.635zm-2.27.757v-1.06c-.076-.014-.166-.014-.272-.014-.379 0-.56.242-.56.62 0 .348.136.59.469.59a.86.86 0 0 0 .363-.136zm.363-1.301v1.68h-.333l-.015-.197c-.09.151-.242.242-.469.242-.439 0-.742-.318-.742-.893 0-.59.318-.923.939-.923.227-.015.423.015.62.09zm-1.982 1.407a.818.818 0 0 0 .287-.045l-.045.318a.79.79 0 0 1-.318.06c-.363 0-.59-.166-.59-.575v-1.786c.12-.03.257-.06.363-.06v.635h.59c0 .121-.015.212-.03.318h-.545v.832c0 .212.106.303.288.303zm-1.03-.863v1.136h-.363v-1.075c0-.272-.09-.393-.454-.393-.09 0-.197.015-.288.03v1.438h-.378v-1.68c.242-.061.5-.091.666-.091.62-.015.817.227.817.635zm-2.255.757v-1.06c-.075-.014-.166-.014-.272-.014-.379 0-.56.242-.56.62 0 .348.136.59.469.59a.86.86 0 0 0 .363-.136zm.364-1.301v1.68h-.334l-.015-.197c-.09.151-.242.242-.469.242-.439 0-.741-.318-.741-.893 0-.59.317-.923.938-.923.227-.015.424.015.62.09zm-3.36 1.604c0-.136.03-.227.06-.333.182.09.424.136.62.136.318 0 .485-.106.485-.303 0-.196-.121-.287-.439-.423l-.166-.076c-.318-.136-.53-.318-.53-.681 0-.379.272-.636.817-.636.212 0 .424.03.62.091a1.6 1.6 0 0 1-.06.333 1.865 1.865 0 0 0-.545-.09c-.287 0-.424.12-.424.287 0 .181.137.272.364.378l.181.076c.424.181.606.378.606.696 0 .393-.288.65-.863.65-.303.016-.53-.014-.726-.105zm-1.68-1.665a.72.72 0 0 0-.106-.348l-.56-.969a.669.669 0 0 1-.091-.242l-.03.046a.78.78 0 0 0 0 .771l.454.772a.78.78 0 0 1 0 .772l-.03.06a.79.79 0 0 0-.092-.241l-.408-.712-.258-.454a.669.669 0 0 1-.09-.242l-.03.045a.78.78 0 0 0 0 .772l.454.787a.78.78 0 0 1 0 .772l-.03.046a.79.79 0 0 0-.092-.242l-.56-.97a.84.84 0 0 1-.106-.423c-.605.151-1.014.484-1.014.878 0 .53.803.969 1.786.969.984 0 1.786-.44 1.786-.97.03-.378-.393-.71-.983-.877z" fill="#fff"/></g></svg>