<svg height="36" viewBox="0 0 36 36" width="36" xmlns="http://www.w3.org/2000/svg"><g fill="none"><path d="M18 0c2.837 0 5.52.656 7.907 1.825C31.884 4.753 36 10.895 36 18c0 9.942-8.058 18-18 18-9.94 0-18-8.057-18-18C0 8.06 8.06 0 18 0z" fill="#f2f4f7"/><path d="M18 5C10.82 5 5 10.82 5 18s5.82 13 13 13 13-5.82 13-13S25.18 5 18 5zm5.962 18.75a.81.81 0 0 1-1.114.269c-3.053-1.866-6.895-2.287-11.42-1.254a.81.81 0 1 1-.361-1.58c4.951-1.13 9.2-.644 12.626 1.45a.81.81 0 0 1 .269 1.114zm1.59-3.54a1.014 1.014 0 0 1-1.394.334c-3.493-2.147-8.821-2.77-12.954-1.515a1.015 1.015 0 0 1-1.265-.675c-.161-.536.141-1.1.676-1.264 4.721-1.433 10.59-.74 14.603 1.727.477.294.628.917.335 1.394zm.137-3.686c-4.19-2.488-11.102-2.717-15.103-1.504a1.215 1.215 0 1 1-.705-2.326c4.592-1.394 12.225-1.125 17.05 1.738a1.216 1.216 0 0 1-1.242 2.092z" fill="#2ebd59"/></g></svg>