<svg width="36" height="36" fill="none" xmlns="http://www.w3.org/2000/svg"><path d="M18 0c2.837 0 5.52.656 7.907 1.825C31.884 4.753 36 10.895 36 18c0 9.942-8.058 18-18 18-9.94 0-18-8.057-18-18C0 8.06 8.06 0 18 0z" fill="#F2F4F7"/><path d="M24.491 16.903a.045.045 0 0 1-.032.02l-4.544.914c-.066.014-.068.085-.002.103l3.606.934c.022.006.032.004.05-.012l1.737-1.884c.05-.048.112-.002.082.06l-2.825 5.849c-.03.064.048.11.09.052l2.694-3.791c.01-.014.016-.017.032-.021l4.57-.948c.066-.015.068-.086.003-.103l-3.585-.929c-.039-.01-.045-.034-.037-.063l1-4.012c.017-.067-.052-.1-.092-.043l-2.747 3.874zm-3.448 6.729a.846.846 0 0 0 .446.11c.315 0 .431-.132.431-.29 0-.193-.19-.266-.351-.27l-.234-.007c-.089-.002-.15-.03-.15-.102 0-.048.046-.112.253-.112.12 0 .242.04.348.102a.024.024 0 0 0 .033-.01l.05-.1a.025.025 0 0 0-.007-.03l-.046-.027a.884.884 0 0 0-.401-.093c-.233 0-.386.11-.386.272 0 .204.21.256.311.257l.252.006c.094.003.172.037.172.116 0 .068-.07.131-.283.131-.239 0-.362-.09-.425-.134-.012-.01-.028-.005-.035.008l-.053.1a.022.022 0 0 0 .008.03c.017.012.04.027.067.043zm-1.59.061c0 .013.01.023.023.023h.11c.013 0 .024-.01.024-.023v-.585l.31.487c.01.015.03.015.04 0l.31-.487v.585c0 .013.01.023.024.023h.11c.013 0 .023-.01.023-.023v-.84a.024.024 0 0 0-.023-.024h-.11a.028.028 0 0 0-.02.011l-.334.519-.335-.519a.026.026 0 0 0-.018-.011h-.11a.024.024 0 0 0-.025.024v.84zm-1.434 0c0 .013.012.023.024.023h.755c.013 0 .023-.01.023-.023v-.11a.023.023 0 0 0-.023-.023h-.62v-.218h.334c.013 0 .024-.01.024-.024v-.11a.024.024 0 0 0-.024-.024h-.335v-.198h.602c.013 0 .024-.01.024-.024v-.11a.024.024 0 0 0-.024-.023h-.736a.024.024 0 0 0-.024.024v.84zm-1.104 0c0 .013.01.023.023.023h.11c.013 0 .024-.01.024-.023v-.707h.314c.012 0 .023-.01.023-.024v-.11a.023.023 0 0 0-.023-.023H16.6a.023.023 0 0 0-.024.024v.11c0 .013.01.023.023.023h.315v.707zm-1.749-.061a.916.916 0 0 0 .445.11c.315 0 .432-.132.432-.29 0-.193-.19-.266-.352-.27l-.234-.007c-.088-.002-.149-.03-.149-.102 0-.048.045-.112.253-.112.12 0 .242.04.348.102a.024.024 0 0 0 .033-.01l.05-.1a.025.025 0 0 0-.008-.03l-.046-.027a.874.874 0 0 0-.4-.093c-.234 0-.387.11-.387.272 0 .204.21.256.312.257l.251.006c.095.003.172.037.172.116 0 .068-.07.131-.283.131-.238 0-.361-.09-.424-.134-.012-.01-.028-.005-.035.008l-.054.1a.023.023 0 0 0 .008.03c.018.012.04.027.068.043zm-1.062.061c0 .013.01.023.024.023h.11c.012 0 .023-.01.023-.023v-.408l.377-.416c.015-.017.005-.04-.017-.04h-.146a.028.028 0 0 0-.018.008l-.275.304-.274-.304a.028.028 0 0 0-.018-.008h-.144c-.022 0-.032.023-.017.04l.375.416v.408zm-1.788-.061a.916.916 0 0 0 .445.11c.315 0 .432-.132.432-.29 0-.193-.19-.266-.352-.27l-.234-.007c-.09-.002-.15-.03-.15-.102 0-.048.046-.112.253-.112.12 0 .242.04.348.102a.024.024 0 0 0 .033-.01l.05-.1c.006-.009.002-.022-.007-.03l-.046-.027a.878.878 0 0 0-.401-.093c-.234 0-.387.11-.387.272 0 .204.211.256.312.257l.251.006c.094.003.172.037.172.116 0 .068-.069.131-.283.131-.238 0-.361-.09-.425-.134-.011-.01-.027-.005-.033.008l-.054.1a.023.023 0 0 0 .008.03.703.703 0 0 0 .068.043zm-.793-.36c0 .164-.141.313-.373.313-.23 0-.372-.15-.372-.312 0-.164.141-.312.372-.312.232 0 .373.148.373.312zm-.373.47c.297 0 .53-.186.53-.47 0-.283-.233-.469-.53-.469-.296 0-.529.186-.529.47 0 .283.233.469.53.469zm-1.874-.756h.387c.098 0 .187.02.187.116 0 .088-.078.116-.187.116h-.387v-.232zm.567.72c.004.006.013.01.02.01h.138c.02 0 .03-.02.019-.037l-.224-.319c.094-.024.21-.105.21-.258 0-.21-.188-.273-.343-.273h-.52a.024.024 0 0 0-.023.024v.84c0 .013.01.023.023.023h.11c.013 0 .023-.01.023-.023v-.317h.336l.231.33zm-2.173-.013c0 .013.011.023.023.023h.755c.013 0 .024-.01.024-.023v-.11a.024.024 0 0 0-.024-.023h-.62v-.218h.335c.012 0 .023-.01.023-.024v-.11a.024.024 0 0 0-.023-.024h-.336v-.198h.604c.012 0 .023-.01.023-.024v-.11a.024.024 0 0 0-.023-.023h-.738a.024.024 0 0 0-.023.024v.84zm-1.124-.682.188.34h-.375l.187-.34zm-.392.694s.117-.2.114-.197h.554l.114.197a.027.027 0 0 0 .02.011h.11c.02 0 .03-.018.022-.035l-.474-.84c-.003-.007-.013-.012-.02-.012h-.095a.026.026 0 0 0-.02.012l-.475.84c-.01.017 0 .035.02.035h.11a.027.027 0 0 0 .02-.011zm1.585-2.846c.175 0 .227.128.227.207 0 .035-.015.207-.221.207H6.252a.044.044 0 0 0-.026.016l-.221.421c-.012.023 0 .044.026.044H7.74c.478 0 .714-.343.712-.686-.003-.342-.24-.684-.712-.684h-.972c-.161 0-.227-.094-.227-.208 0-.146.107-.207.227-.207h1.55c.006 0 .023-.01.026-.016l.22-.42c.013-.024 0-.044-.026-.044h-1.77c-.47 0-.71.342-.712.685-.002.342.234.685.712.685h.972zm8.771.879c.004.006.02.016.027.016h.487c.025 0 .038-.02.026-.043l-.446-.904a.031.031 0 0 1 .012-.04c.567-.3.528-1.278-.347-1.278h-1.695a.03.03 0 0 0-.03.03v2.205c0 .015.015.03.03.03h.466a.03.03 0 0 0 .03-.03v-1.726a.03.03 0 0 1 .029-.029h1.17c.2 0 .23.16.226.202a.217.217 0 0 1-.232.213h-.678c-.007 0-.024.01-.027.016l-.218.415c-.013.024-.001.043.026.043h.696c.007 0 .023.01.027.017l.422.863zm3.826-1.769a.03.03 0 0 1 .03.03v1.725c0 .015.013.03.029.03h.46a.03.03 0 0 0 .03-.03v-1.726a.03.03 0 0 1 .03-.029h.764c.006 0 .023-.01.026-.016l.22-.42c.013-.024.002-.044-.026-.044h-2.224c-.006 0-.023.01-.026.016l-.222.42c-.012.024 0 .044.027.044h.882zm-2.29 1.755c0 .015.014.03.03.03h.458c.016 0 .031-.015.031-.03v-2.206c0-.016-.015-.029-.03-.029h-.46a.03.03 0 0 0-.03.03v2.205zm-6.768-.865c.472 0 .711-.343.712-.685.001-.343-.235-.685-.712-.685H9.584a.03.03 0 0 0-.029.03v2.205c0 .015.014.03.03.03h.464a.03.03 0 0 0 .03-.03v-1.726a.03.03 0 0 1 .03-.029h1.17c.2 0 .23.16.226.202a.217.217 0 0 1-.232.213h-.679c-.006 0-.023.01-.026.016l-.218.415c-.013.024 0 .044.026.044h.902zm1.672.865c0 .015.014.03.03.03h.46a.03.03 0 0 0 .029-.03v-2.206a.03.03 0 0 0-.03-.029h-.46a.03.03 0 0 0-.029.03v2.205zm11.073 1.708.03-.001a.068.068 0 0 0 .025-.008.046.046 0 0 0 .017-.015.055.055 0 0 0 .007-.03.038.038 0 0 0-.008-.024.051.051 0 0 0-.017-.014.087.087 0 0 0-.024-.006l-.025-.002h-.068v.1h.063zm-.063.193h-.056v-.34h.13c.04 0 .071.008.092.023.021.015.031.04.031.075 0 .03-.008.053-.025.067a.119.119 0 0 1-.063.026l.095.149H24.1l-.088-.146h-.052v.146zm.296-.176a.278.278 0 0 0-.018-.103.229.229 0 0 0-.125-.133.229.229 0 0 0-.092-.018.232.232 0 0 0-.169.071.24.24 0 0 0-.05.08.29.29 0 0 0-.002.201.234.234 0 0 0 .22.156.228.228 0 0 0 .167-.07.235.235 0 0 0 .05-.08.274.274 0 0 0 .019-.104zm.066 0a.294.294 0 0 1-.186.285.305.305 0 0 1-.332-.066.308.308 0 0 1-.086-.219.31.31 0 0 1 .09-.223.308.308 0 0 1 .423 0 .303.303 0 0 1 .09.223z" fill="#073FB5"/></svg>