<svg width="36" height="36" fill="none" xmlns="http://www.w3.org/2000/svg"><path d="M18 0c2.837 0 5.52.656 7.907 1.825C31.884 4.753 36 10.895 36 18c0 9.942-8.058 18-18 18-9.94 0-18-8.057-18-18C0 8.06 8.06 0 18 0z" fill="#F2F4F7"/><g fill="#002D72"><path d="M4.947 17.445c.01.038.014.084.061.136.084.102.266.144.425.144.186 0 .368-.06.368-.21a.14.14 0 0 0-.028-.084c-.051-.07-.2-.093-.49-.14a5.807 5.807 0 0 1-.494-.102c-.411-.108-.686-.229-.686-.686 0-.775 1.026-.784 1.316-.784.606 0 1.199.168 1.334.802l-.928.047c-.038-.243-.378-.261-.467-.261-.177 0-.331.06-.331.191 0 .08.056.117.177.154.117.037.705.117.84.135.317.061.71.136.71.626a.718.718 0 0 1-.201.5c-.173.186-.472.382-1.139.382-.453 0-.863-.094-1.083-.224-.242-.145-.308-.34-.331-.593 0 .01.947-.033.947-.033zm3.01-.429c0 .29.178.555.49.555.318 0 .481-.256.481-.555 0-.257-.145-.565-.509-.541-.382.028-.462.36-.462.541zm-.004-.966c.107-.103.317-.303.765-.303.579 0 1.157.396 1.157 1.292 0 .742-.443 1.274-1.157 1.274-.397 0-.611-.163-.765-.289v1.05h-.924v-3.276h.928v.22c0 .009-.004.032-.004.032zm2.17 2.18h.928v-2.418h-.928v2.417zm-.005-2.665h.933V15h-.933v.565zm2.259.625a.87.87 0 0 1 .289-.308.768.768 0 0 1 .439-.121v.956a1.817 1.817 0 0 0-.224-.018c-.252 0-.35.065-.411.126-.093.098-.093.21-.098.322v1.082h-.933v-2.422h.938v.383zm2.09.97c-.135.015-.382.043-.382.257 0 .075.046.243.331.243a.788.788 0 0 0 .443-.135c.192-.122.224-.271.252-.402-.154.005-.485.019-.644.038zm-1.236-.597c.023-.154.065-.438.322-.616.2-.135.564-.224 1.059-.224.42 0 .821.042 1.05.173.34.187.34.55.34.714v1.265c.005.186.024.256.117.354h-.97a1.162 1.162 0 0 1-.038-.233c-.242.117-.602.303-1.045.303-.238 0-.49-.046-.677-.214a.712.712 0 0 1-.247-.565.82.82 0 0 1 .112-.42.707.707 0 0 1 .373-.275c.35-.122 1.013-.136 1.47-.145 0-.065 0-.126-.046-.196-.038-.051-.117-.14-.406-.14-.047 0-.196.01-.299.037-.168.047-.191.117-.215.182h-.9z"/><path d="m17.435 15.826.439.635.541-.635 1.083.005-1.069 1.152 1.097 1.256h-1.13l-.48-.668-2.613 3.449h-1.755l3.86-3.99-1.107-1.204h1.134z"/><path d="M18.7 20.231c.01.038.014.084.06.136.085.102.267.144.425.144.187 0 .369-.06.369-.21a.14.14 0 0 0-.028-.084c-.051-.07-.2-.093-.49-.14a5.707 5.707 0 0 1-.49-.102c-.41-.112-.686-.229-.686-.686 0-.775 1.027-.784 1.316-.784.607 0 1.2.168 1.335.802l-.929.047c-.037-.243-.378-.261-.467-.261-.177 0-.331.06-.331.191 0 .08.056.117.177.154.117.037.705.112.84.135.318.061.71.136.71.626a.718.718 0 0 1-.201.5c-.173.186-.471.382-1.139.382-.452 0-.863-.094-1.082-.224-.243-.145-.308-.34-.332-.593l.943-.033zm3.304-.284c-.135.014-.383.042-.383.256 0 .075.047.243.332.243a.788.788 0 0 0 .443-.135c.191-.122.224-.27.252-.402-.154.005-.485.02-.644.038zm-1.237-.598c.024-.154.066-.438.322-.616.201-.135.565-.224 1.06-.224.42 0 .821.042 1.05.173.34.187.34.55.34.714v1.265c.005.186.024.256.117.354h-.97a1.162 1.162 0 0 1-.038-.233c-.243.117-.602.303-1.045.303-.238 0-.49-.046-.677-.214a.712.712 0 0 1-.247-.565.82.82 0 0 1 .112-.42.708.708 0 0 1 .373-.275c.35-.122 1.013-.136 1.47-.145 0-.065 0-.126-.047-.196-.037-.051-.116-.14-.406-.14-.046 0-.196.01-.298.037-.168.047-.192.117-.215.182h-.9zm4.107-.373a.813.813 0 0 1 .728-.43v.957c-.075-.009-.15-.018-.224-.018-.252 0-.35.065-.41.126-.094.098-.094.21-.099.322v1.082h-.933v-2.422h.938v.383zm1.787.817c0 .387.229.667.616.667a.613.613 0 0 0 .374-.117.47.47 0 0 0 .177-.266l.933.038a1.222 1.222 0 0 1-.359.616c-.355.326-.85.364-1.195.364-.462 0-.989-.117-1.292-.504a1.295 1.295 0 0 1-.252-.78c0-.494.252-.812.429-.966.317-.28.765-.359 1.185-.359.49 0 .938.15 1.209.467.15.182.196.34.224.434l-.924.098c-.065-.224-.294-.346-.518-.346-.355-.009-.607.248-.607.654zm3.197 0c0 .49.331.634.607.634.191 0 .574-.112.574-.634 0-.397-.238-.64-.63-.626-.425.01-.551.355-.551.626zm2.142.004c0 .854-.686 1.28-1.554 1.28-.737 0-1.559-.323-1.559-1.27 0-.91.742-1.265 1.489-1.279 1.237-.019 1.624.658 1.624 1.27z"/></g></svg>