<svg height="36" viewBox="0 0 36 36" width="36" xmlns="http://www.w3.org/2000/svg"><g fill="none" fill-rule="evenodd"><path d="M18 0c2.837 0 5.52.656 7.907 1.825C31.884 4.753 36 10.895 36 18c0 9.942-8.058 18-18 18-9.94 0-18-8.057-18-18C0 8.06 8.06 0 18 0z" fill="#f2f4f7" fill-rule="nonzero"/><path d="M15.747 16.09c-.976.202-1.343.657-1.39 1.721-.078 1.783.856 2.342 3.55 2.126 1.633-.131 2.068-.505 2.112-1.812.038-1.162-.24-1.67-1.07-1.955-.447-.153-2.588-.207-3.202-.08m6.435 0c-.96.217-1.307.643-1.36 1.669-.082 1.615.438 2.104 2.336 2.196 1.73.084 2.636-.178 2.983-.861.253-.499.234-.525-.38-.525h-.524l-.193.203c-.491.516-2.57.491-2.957-.035-.224-.305-.163-1.376.092-1.616.474-.445 2.608-.361 2.916.114l.12.186h.542l.54.001-.035-.221c-.077-.485-.463-.878-1.044-1.065-.369-.119-2.566-.152-3.036-.046M3.5 17.993v1.932h1.708c2.976-.001 3.323-.116 3.323-1.1 0-.5-.147-.733-.536-.847l-.246-.072.168-.037c.498-.11.714-1 .349-1.433-.279-.332-.352-.342-2.667-.359L3.5 16.061zm5.996-.024v1.902l.117.028c.065.016 1.009.022 2.099.014l1.98-.014v-.887L12.143 19l-1.551-.014v-2.918H9.496zm17.74.014.013 1.916h1.043l.014-.603.015-.602.418-.245c.51-.298.425-.304.859.054.2.164.675.552 1.057.86l.695.562h1.14v-.196c0-.191-.023-.214-1.15-1.129-.81-.659-1.132-.95-1.093-.99.03-.03.542-.337 1.136-.683 1.389-.808 1.417-.86.453-.86h-.66l-1.233.723c-.679.397-1.321.775-1.429.84l-.195.115v-1.679H27.22zm-21.3-1.086c1.313.004 1.421.028 1.421.317 0 .293-.095.312-1.538.312H4.49v-.304c0-.333.017-.371.148-.346.048.01.633.019 1.3.02m12.29.028c.652.153.954 1.093.565 1.76-.32.546-2.592.637-3.09.123-.395-.408-.294-1.544.158-1.778.358-.185 1.762-.248 2.367-.105M7.292 18.4c.144.082.202.291.127.456-.09.197-.35.233-1.69.233H4.49v-.356c0-.196.017-.373.038-.395.07-.07 2.634-.012 2.763.062" fill="#000"/></g></svg>