<svg width="36" height="36" fill="none" xmlns="http://www.w3.org/2000/svg"><path d="M18 0c2.837 0 5.52.656 7.907 1.825C31.884 4.753 36 10.895 36 18c0 9.942-8.058 18-18 18-9.94 0-18-8.057-18-18C0 8.06 8.06 0 18 0z" fill="#F2F4F7"/><path d="M22.072 19.576h.716v-1.041h.604c.838 0 1.38-.47 1.38-1.197v-.01c0-.714-.513-1.176-1.306-1.176h-1.394v3.424zm1.345-1.673h-.629v-1.109h.614c.403 0 .643.206.643.55v.01c0 .328-.252.549-.628.549zm4.049 1.673h.835l-.84-1.228.028-.01c.47-.174.729-.549.729-1.054v-.01c0-.318-.1-.587-.29-.777-.227-.225-.57-.345-.996-.345H25.37v3.424h.717v-1.11h.636l.744 1.11zm-.583-1.738h-.797v-1.044h.782c.396 0 .624.19.624.52v.01c0 .317-.234.514-.61.514zm4.37 1.738H32l-1.467-3.448h-.673l-1.468 3.448h.727l.318-.779h1.499l.317.779zm-.57-1.406h-.993l.496-1.211.497 1.211zm-19.585.959c.376.327.892.507 1.456.507.771 0 1.25-.407 1.25-1.063v-.01c0-.613-.414-.844-1.083-1.018-.603-.155-.766-.232-.766-.48v-.01c0-.167.145-.336.47-.336.305 0 .607.1.896.296l.37-.522c-.34-.266-.762-.401-1.257-.401-.7 0-1.19.425-1.19 1.033v.01c0 .695.469.87 1.132 1.038.563.145.717.245.717.465v.01c0 .22-.206.361-.525.361a1.62 1.62 0 0 1-1.049-.385l-.421.505zm3.37.447h2.595v-.632H15.18v-.776h1.636v-.632H15.18v-.752h1.86v-.632h-2.571v3.424zm6.04 0h.71v-3.424h-.785l-.926 1.49-.925-1.49h-.787v3.424h.702V17.27l1 1.518 1.01-1.533v2.32z" fill="#001689"/><path d="M7.043 15.788c.218 0 .395.156.395.347 0 .191-.177.347-.395.347-.218 0-.395-.156-.395-.347 0-.191.177-.347.395-.347zm2.333.705c.047-.09.065-.165.07-.185.002-.006.005-.026-.004-.034-.01-.008-.02-.002-.027.002-1.607 1.212-3.226-.337-3.065.667.02.13.148.363.303.588 0 0 .01.015 0 .027-.006.008-.015.01-.023.014-.839.444-1.394 1.114-1.733 1.651a2.394 2.394 0 0 1 1.967-3.75c.67 0 1.29.27 1.748.76l.005.006.007-.003c.135-.065.267-.145.392-.24l.01-.007-.008-.009A2.865 2.865 0 0 0 6.864 15 2.867 2.867 0 0 0 4 17.864c0 .662.228 1.295.643 1.805-.106.209-.163.358-.181.403-.07.178-.008.232.018.242.051.021.127-.003.203-.1.535-.68 1.977-2.353 2.691-1.87.405.273.393.58.088.862-.13.12-.423.3-.602.386-.278.131-.428.157-.405.255.021.09.138.09.605-.032.537-.138 1.705-.54 1.217-1.515-.238-.476-1.046-.866-1.046-.877.007-.01.025-.008.025-.008.947-.07 1.482-.303 1.787-.537a2.394 2.394 0 0 1-2.178 3.377c-.48 0-.944-.142-1.341-.412l-.01-.006-.005.01c-.08.127-.158.257-.233.386l-.005.009.009.005c.471.315 1.02.481 1.584.481a2.867 2.867 0 0 0 2.864-2.864c0-.48-.122-.951-.352-1.371z" fill="#E40032"/><path d="M31.271 16.2h-.14v-.072h.357v.071h-.14v.368h-.077v-.368zm.298-.072h.082l.133.207.134-.207H32v.439h-.077v-.315l-.139.207h-.002l-.138-.206v.314h-.075v-.44z" fill="#001689"/></svg>