<svg height="36" viewBox="0 0 36 36" width="36" xmlns="http://www.w3.org/2000/svg"><mask id="a" fill="#fff"><path d="M0 0h28v6.574H0z" fill-rule="evenodd"/></mask><g fill="none" fill-rule="evenodd"><path d="M18 0c2.837 0 5.52.656 7.907 1.825C31.884 4.753 36 10.895 36 18c0 9.942-8.058 18-18 18-9.94 0-18-8.057-18-18C0 8.06 8.06 0 18 0z" fill="#f2f4f7" fill-rule="nonzero"/><path d="M11.228 2.554h-.689c-.008-.326-.244-.51-.562-.51-.274 0-.593.102-.593.428 0 .741 1.939.252 1.939 1.465 0 .748-.644 1.088-1.325 1.088-.777 0-1.421-.274-1.413-1.125h.733c0 .37.2.622.593.622.289 0 .673-.104.673-.45 0-.779-1.91-.253-1.91-1.503 0-.74.689-1.03 1.325-1.03.675.001 1.185.328 1.229 1.015zm2.834 2.405L13.73 3.85c-.074-.244-.119-.488-.17-.733-.037.178-.066.356-.119.525l-.051.185-.31 1.132h-.823l-.762-2.33h.785l.325 1.22.045.17.037.164.045.288c.037-.28.104-.547.178-.814l.289-1.029h.8l.303 1.073c.074.251.126.502.163.762l.022-.133a4.18 4.18 0 0 1 .156-.658l.289-1.044h.748l-.8 2.331zm1.962 0h.695V2.627h-.695zm-.022-2.768h.74v-.577h-.74zm3.072 1.052h-.622c-.015-.17-.17-.259-.333-.259-.147 0-.363.045-.355.237.008.147.171.192.289.221l.267.067c.407.09.873.26.873.747 0 .593-.607.77-1.095.77-.48 0-.954-.215-.992-.733h.644c.022.207.185.311.385.311.178 0 .406-.074.406-.289 0-.444-1.392-.126-1.392-1.03 0-.547.548-.724 1.007-.724.423 0 .843.17.911.63zm2.287 0h-.622c-.014-.17-.17-.259-.333-.259-.147 0-.363.045-.355.237.008.147.171.192.289.221l.267.067c.407.09.873.26.873.747 0 .593-.606.77-1.095.77-.48 0-.954-.215-.991-.733h.644c.023.207.185.311.385.311.178 0 .407-.074.407-.289 0-.444-1.391-.126-1.391-1.03 0-.547.547-.724 1.007-.724.422 0 .843.17.91.63zm3.271.06c.414-.12.726-.37.726-.83 0-.644-.599-.859-1.155-.859h-1.384V4.96h.718V3.606h.562c.644 0 .488.895.591 1.353h.786c-.355-.629.075-1.48-.844-1.657zm-.577-.246h-.518V2.14h.525c.297 0 .541.126.541.452 0 .334-.244.466-.548.466zm2.842 1.548c-.37 0-.437-.319-.437-.629H28c0-.748-.267-1.413-1.132-1.413-.748 0-1.125.607-1.125 1.295 0 .717.429 1.17 1.147 1.17.488 0 .992-.208 1.029-.756h-.621c-.046.22-.172.333-.401.333zm-.045-1.62c.348 0 .415.288.429.57h-.822c.009-.253.083-.57.393-.57zM3.287-.002a3.287 3.287 0 1 0 0 6.575 3.287 3.287 0 0 0 0-6.575zM1.675 4.96h.733V2.824h-.733zm1.246 0h.732V2.824h-.732zm1.251 0h.732V2.824h-.732zM1.647 2.305h3.287v-.692H1.647z" fill="#4a6f67" mask="url(#a)" transform="translate(4 15)"/></g></svg>