<svg width="36" height="36" fill="none" xmlns="http://www.w3.org/2000/svg"><defs><radialGradient id="a" cx="0" cy="0" r="1" gradientUnits="userSpaceOnUse" gradientTransform="rotate(45 -16.868 15.193) scale(2.5996)"><stop stop-color="#FBFAB4"/><stop offset="1" stop-color="#CBA037"/></radialGradient><radialGradient id="b" cx="0" cy="0" r="1" gradientUnits="userSpaceOnUse" gradientTransform="rotate(45 -21.195 17.83) scale(2.64367)"><stop stop-color="#FBFAB4"/><stop offset="1" stop-color="#CBA037"/></radialGradient></defs><path d="M18 0c2.837 0 5.52.656 7.907 1.825C31.884 4.753 36 10.895 36 18c0 9.942-8.058 18-18 18-9.94 0-18-8.057-18-18C0 8.06 8.06 0 18 0z" fill="#F2F4F7"/><path d="M6.056 20.302s-.688.31-1.303-.196c-.148-.123-.32-.358-.406-.873l-.143.248s.078.743.712 1.05c.198.096.507.141.762.103l.378-.332zm.216-4.019s.687-.311 1.301.195c.148.124.32.36.407.873l.143-.247s-.078-.744-.712-1.05a1.436 1.436 0 0 0-.763-.104l-.376.333" fill="#BE8D1E"/><path d="M4.253 19.715v-.011h-.004v-.015h-.003v-.018h-.004v-.018h-.004v-.015h-.003v-.018H4.23v-.015h-.004v-.018h-.003v-.015H4.22v-.018h-.004v-.019h-.003v-.014h-.004v-.019h-.004v-.018h-.003v-.015h-.004v-.018h-.004v-.015h-.003v-.018h-.004V19.4h-.004v-.015H4.18v-.018h-.004v-.019h-.004v-.018H4.17v-.015h-.004v-.018H4.16v-.018h-.003v-.015h-.004v-.018H4.15v-.019h-.003v-.018h-.004v-.015h-.004v-.018h-.003v-.018h-.004v-.018h-.004v-.019h-.003v-.014H4.12v-.019h-.004v-.018h-.003v-.018H4.11v-.019h-.004v-.018h-.003v-.018h-.004v-.019h-.004v-.018h-.003v-.018h-.004v-.015h-.004v-.018h-.003v-.019h-.004v-.022h-.004v-.018H4.07v-.018h-.004v-.019h-.004v-.018H4.06v-.018h-.004v-.019h-.004v-.018h-.003v-.022h-.004V18.7H4.04v-.019h-.003v-.022h-.004v-.018h-.004v-.022h-.003v-.018h-.004v-.022h-.004v-.022h-.003v-.022H4.01v-.03h-.004v-.033h-.003v-.044H4v-.223h.004v-.051h.003v-.037h.004v-.033h.004v-.03h.003v-.025h.004v-.022h.004v-.026h.003v-.018h.004v-.022h.004v-.018h.003v-.019h.004v-.018h.004v-.018h.003v-.015h.004v-.015h.004v-.018h.003v-.015h.004v-.014h.004v-.015h.003v-.01h.004v-.016h.004v-.014h.003v-.011h.004v-.015h.004v-.01h.003v-.012H4.1v-.014h.004v-.011h.003v-.012h.004v-.01h.004v-.015h.003v-.011h.004v-.007h.004v-.012h.003v-.01h.004v-.011h.004v-.011h.003v-.012h.004v-.007h.004v-.01h.003v-.012h.004v-.007h.004v-.011h.003v-.007h.004v-.011h.004v-.008h.003v-.01h.004v-.008h.004v-.011h.003v-.007h.004v-.011h.004v-.008h.003v-.007h.004v-.007h.004v-.011h.003v-.008h.004v-.007h.004v-.007h.003v-.011h.004v-.008h.004v-.007h.003v-.007h.004v-.008h.004v-.007h.003v-.007h.004v-.008h.004v-.007h.003V17.3h.004v-.008h.004v-.007h.003v-.007h.004v-.008h.004v-.007h.003v-.007h.004v-.008h.004v-.007h.003v-.007h.004v-.008h.004v-.007h.003v-.004h.004v-.007H4.3v-.007h.003v-.008h.004v-.007h.004v-.004h.003v-.007h.004v-.007h.004v-.008h.003v-.007h.004v-.004h.004v-.007h.003v-.007h.004v-.004h.003v-.007h.004v-.004h.004v-.007h.003v-.008h.004v-.003h.004v-.008h.003v-.007h.004v-.004h.004v-.007h.003v-.007h.004v-.004h.004v-.007h.003v-.004h.004v-.007h.004v-.004h.003v-.007h.004v-.004h.004v-.007h.003v-.004h.004v-.007h.004v-.004h.003v-.007h.004v-.004h.004v-.003h.003v-.008h.004v-.003h.004v-.008h.003v-.003h.004v-.008h.004v-.004h.003v-.003h.004v-.008h.004v-.003h.003v-.008h.004v-.003h.004v-.004h.003v-.007h.004v-.004h.004v-.003h.003v-.008h.004v-.004h.004v-.003h.003v-.008h.004v-.003h.004v-.004h.003v-.007h.004v-.004h.004v-.003h.003v-.004h.004v-.004h.004v-.007h.003v-.004h.004v-.004h.004v-.003h.003v-.008h.004v-.003h.004v-.004h.003v-.003h.004v-.004h.004v-.004h.003v-.007h.004v-.004h.004v-.003h.003v-.004h.004V16.8h.004v-.003h.003v-.004h.004v-.007h.004v-.004h.003v-.004H4.6v-.003h.004v-.004h.003v-.004h.004v-.003h.004v-.004h.003v-.004h.004v-.007h.004v-.004h.003v-.003h.004v-.004h.004v-.004h.003v-.003h.004v-.004h.004v-.004h.003v-.003h.004v-.004h.004v-.004h.003v-.007h.004v-.004h.004V16.7h.003v-.004h.004v-.004h.004v-.003h.003v-.004h.004v-.004h.004v-.003h.003v-.004H4.7v-.004h.004v-.003h.003v-.004h.004v-.004h.004v-.003h.003v-.008h.004v-.003h.004v-.004h.003v-.004h.004v-.003h.004v-.004h.003v-.004h.004v-.003h.004v-.004h.003v-.004h.004v-.003h.004v-.004h.003v-.004h.004V16.6h.004v-.004h.003v-.004h.004v-.003h.004v-.004h.003v-.004h.004v-.003h.004v-.004h.003v-.004H4.8v-.003h.004v-.004h.003v-.004h.004v-.003h.004v-.004h.003v-.007h.004v-.004h.004v-.004h.003v-.003h.004v-.004h.004v-.004h.003v-.003h.004v-.004h.004v-.004h.003v-.003h.004v-.004h.004v-.004h.003v-.003h.004v-.004h.004v-.004h.003v-.003h.004v-.004h.004v-.004h.003v-.003h.004v-.004h.004v-.004h.003v-.003h.004v-.004h.004v-.004h.003v-.003h.004v-.004h.004v-.004h.003v-.003h.004v-.004h.004v-.004h.003v-.003h.004v-.004h.004v-.004h.003v-.003h.004v-.004h.004v-.004h.003v-.003h.004v-.004h.004v-.004h.003v-.003h.004v-.004h.004v-.004h.003v-.003h.004v-.004h.004v-.004h.003v-.003h.004v-.004h.004v-.004h.003v-.003h.004v-.004H5v-.004h.003v-.003h.004v-.004h.004v-.004h.003v-.003h.004v-.004h.004v-.004h.003v-.003h.004v-.004h.004v-.004h.003v-.003h.004v-.004h.003v-.004h.004v-.003h.004v-.004h.004v-.003h.003v-.004h.004v-.004h.003v-.003h.004v-.004h.004v-.004h.003v-.003h.004v-.004h.004v-.004h.003v-.004h.004v-.003h.004v-.004h.003v-.003h.004v-.004h.004v-.004h.003v-.003h.004v-.004h.004v-.004h.003v-.003h.004v-.004h.004v-.004h.003v-.003h.004v-.004h.004v-.004h.003v-.004h.004v-.003h.004v-.004h.003v-.003h.004v-.004h.004V16.2h.003v-.003h.004v-.004h.004v-.004h.003v-.003h.008v-.004h.003v-.004h.004v-.004h.004v-.003h.003v-.004h.004v-.004h.004v-.003h.003v-.004h.004v-.003h.004v-.004h.003v-.004h.004v-.003h.004v-.004h.003v-.004h.004v-.003h.004v-.004h.003v-.004h.004v-.003h.004v-.004h.003v-.004h.004v-.003h.004v-.004h.003V16.1h.004v-.003h.004v-.004h.003v-.004h.004v-.003h.004v-.004h.003v-.004h.004v-.003h.004v-.004h.003v-.004H5.3v-.003h.004v-.004h.003v-.004h.004v-.003h.004v-.004h.003v-.004h.004v-.003h.004v-.004h.003v-.004h.004v-.003h.004v-.004h.003v-.004h.004v-.003h.004v-.004h.003v-.004h.004v-.003h.004v-.004h.003v-.004h.008V16h.003v-.004h.004v-.004h.004v-.003h.003v-.004h.004v-.004h.004v-.003h.003v-.004H5.4v-.004h.004v-.003h.003v-.004h.004v-.004h.004v-.003h.003v-.004h.004v-.004h.004v-.003h.003v-.004h.004v-.004h.004v-.003h.003v-.004h.004v-.004h.004v-.003h.003v-.004h.004v-.004h.004v-.003h.003v-.004h.004v-.004h.004V15.9h.003v-.004h.004v-.004h.004v-.003h.003v-.004h.004v-.004h.004v-.003h.003v-.004H5.5v-.004h.004v-.003h.003v-.004h.004v-.004h.004v-.003h.003v-.004h.004v-.004h.004v-.003h.007v-.004h.004v-.004h.003v-.003h.004v-.004h.004v-.004h.003v-.003h.004v-.004h.004v-.004h.003v-.003h.004v-.004h.004v-.004h.003v-.003h.004v-.004h.004v-.004h.003v-.003h.004v-.004h.004v-.004h.003v-.003h.004v-.004h.004v-.004h.003v-.003h.004v-.004h.004v-.004h.003v-.003h.004v-.004h.004v-.004h.003v-.003h.004v-.004h.004v-.004h.003v-.003h.004v-.004h.004v-.004h.003v-.003h.004v-.004h.004v-.004h.003v-.003h.004v-.004h.004v-.004h.003v-.003h.004v-.004h.004v-.004h.003v-.003h.008v-.004h.003v-.004h.004v-.003H5.7v-.004h.003v-.004h.004v-.003h.004v-.004h.003v-.004h.004v-.003h.004v-.004h.003v-.004h.004v-.003h.004v-.004h.003v-.004h.004v-.003h.004v-.004h.003v-.003h.004v-.004h.003v-.004h.004v-.004h.004v-.003h.003v-.004h.004v-.003h.004v-.004h.003v-.004h.004v-.004h.004v-.003h.003v-.004h.004v-.003h.004v-.004h.003v-.004h.004v-.004h.004v-.003h.003v-.004h.004v-.004h.004v-.003h.003v-.004h.004v-.003h.004v-.004h.003v-.004h.004v-.004h.004v-.003h.003v-.004h.004v-.003h.004v-.004h.003v-.004h.004v-.004h.004v-.003h.003v-.004h.008v-.003h.003v-.004h.004V15.5h.004v-.004h.003v-.003h.004v-.004h.004v-.004h.003v-.003h.004v-.004h.004v-.003h.003v-.004h.004v-.004h.004v-.004h.003v-.003h.004v-.004h.004v-.003h.003v-.004h.004v-.004h.004v-.004h.003v-.003h.004v-.004h.004v-.003h.003v-.004h.004v-.004h.004v-.003h.003v-.004h.004v-.004h.004v-.003h.003v-.004h.004V15.4h.004v-.003h.003v-.004h.004v-.004h.004v-.003h.003v-.004H6v-.004h.004v-.003h.003v-.004h.004v-.004h.004v-.003h.003v-.004h.004v-.004h.004v-.003h.003v-.004h.004v-.004h.004v-.003h.003v-.004h.004v-.004h.004v-.003h.003v-.004h.004v-.004h.004v-.003h.003v-.004h.004v-.004h.004v-.003h.003v-.004h.004v-.004h.004V15.3h.003v-.004h.004v-.004h.004v-.003h.003v-.004H6.1v-.004h.004v-.003h.003v-.004h.004v-.004h.004v-.003h.003v-.004h.004v-.004h.004v-.003h.003v-.004h.004v-.004h.004v-.003h.003v-.004h.004v-.004h.004v-.003h.003v-.004h.004v-.004h.004v-.003h.003v-.004h.004v-.004h.004v-.003h.003v-.004h.004v-.004h.004V15.2h.003v-.004h.004v-.004h.004v-.003h.003v-.004H6.2v-.004h.004v-.003h.003v-.004h.004v-.004h.004v-.003h.003v-.004h.004v-.004h.004v-.003h.003v-.004h.004v-.004h.004v-.003h.003v-.004h.004v-.004h.004v-.003h.003v-.004h.004v-.004h.004v-.003h.003v-.004h.004v-.004h.004v-.003h.003v-.004h.004v-.004h.004v-.003h.003v-.004h.004v-.004h.004v-.003h.003v-.004h.004v-.004h.004v-.003h.003v-.004h.004v-.004h.004v-.003h.003v-.004h.004v-.004h.004v-.003h.003v-.004h.004v-.004h.004v-.003h.003v-.004h.004v-.004h.004v-.003h.003v-.004h.004v-.004h.004v-.003h.003v-.004h.004v-.004h.004v-.003h.003v-.004h.004v-.004h.004v-.003h.003v-.004h.004v-.004h.004v-.003h.003v-.004h.004v-.004H6.4v-.003h.003v-.004h.004v-.004h.004v-.003h.003v-.004h.004v-.004h.004v-.003h.003v-.004h.004v-.004h.004v-.003h.003v-.004h.004v-.004h.004v-.003h.003v-.004h.004v-.004h.003v-.003h.004v-.008h.004v-.003h.003v-.004h.004v-.004h.004v-.003h.003v-.004h.004v-.003h.004v-.004h.003v-.004h.004v-.004h.004v-.003h.003v-.004h.004v-.004h.004v-.003h.003v-.004h.004v-.003h.004v-.004h.003v-.004h.004v-.004h.004v-.003h.003v-.004h.004v-.003h.004v-.004h.003v-.004h.004v-.004h.004v-.003h.003v-.004h.004v-.003h.004v-.004h.003v-.008h.004v-.003h.004V14.8h.003v-.004h.004v-.003h.004v-.004h.003v-.003h.004v-.004h.004v-.004h.003v-.004h.004v-.003h.004v-.004h.003v-.003h.004v-.004h.004v-.004h.003v-.004h.004v-.003h.004v-.004h.003v-.003h.004v-.004h.004v-.004h.003v-.007h.004v-.004h.004v-.004h.003v-.003h.004v-.004h.004v-.003h.003v-.004h.004V14.7h.004v-.003h.003v-.004h.004v-.004h.004v-.007h.003v-.004h.004v-.003h.004v-.004h.003v-.004H6.7v-.003h.004v-.004h.003v-.004h.004v-.003h.004v-.008h.003v-.003h.004v-.004h.004v-.004h.003v-.003h.004v-.008h.004v-.003h.003v-.004h.004v-.004h.004v-.003h.003v-.008h.004V14.6h.004v-.004h.003v-.004h.004v-.003h.004v-.004h.003v-.007h.004v-.004h.004v-.004h.003v-.007h.004v-.004h.004v-.003h.003v-.004H6.8v-.007h.004v-.004h.003v-.004h.004v-.007h.004v-.004h.003v-.003h.004v-.004h.004v-.007h.003v-.004h.004v-.004h.004v-.007h.003v-.004h.004v-.003h.004v-.008h.003v-.003h.004v-.008h.004v-.003h.003v-.004h.004v-.007h.004v-.004h.003v-.004h.004v-.007h.004v-.004h.003v-.007h.004v-.004h.004v-.007h.003v-.004H6.9v-.007h.004v-.004h.003v-.007h.004v-.004h.004v-.007h.003v-.004h.004v-.007h.004v-.004h.003v-.007h.004v-.004h.004v-.007h.003v-.004h.004v-.007h.004v-.004h.003v-.007h.004v-.007h.004v-.004h.003v-.007h.004v-.008h.004v-.003h.003v-.008h.004v-.003h.004v-.008h.003v-.007h.004v-.004h.004v-.007h.003v-.007h.004v-.008h.004v-.003h.003v-.008h.004v-.007h.004v-.007h.003v-.004h.004v-.007h.004v-.008h.003V14.2h.004v-.007h.004v-.008h.003v-.003h.004v-.007h.004v-.008h.003v-.007h.004v-.008h.004v-.007h.003v-.007h.004v-.008h.004v-.007h.003v-.007h.004v-.008h.004V14.1h.003v-.007h.004v-.008h.004v-.007h.003v-.007h.004v-.008H7.1v-.007h.003v-.007h.004v-.008h.004v-.01h.003v-.008h.004v-.007h.004v-.007h.003V14h.004v-.01h.004v-.008h.003v-.007h.004v-.011h.004v-.008h.003v-.01h.004v-.008h.003v-.007h.004v-.011h.004v-.008h.003v-.01h.004v-.008h.004v-.011h.003v-.011h.004v-.007h.004v-.011h.003v-.011h.004v-.008h.004v-.01h.003v-.012h.004v-.01h.004v-.008h.003v-.011h.004v-.011h.004v-.011h.003v-.011h.004v-.015h.004v-.01h.003v-.012h.004v-.01h.004v-.012h.003v-.014h.004v-.011h.004v-.011h.003v-.015h.004v-.015h.004v-.01h.003v-.015h.004v-.015h.004v-.015h.003v-.014h.004v-.015h.004v-.015h.003v-.018h.004v-.014h.004v-.015h.003v-.018h.004v-.019h.004v-.018h.003v-.022h.004v-.018h.004v-.022h.003v-.023h.004v-.025h.004v-.026h.003v-.025h.004v-.03h.004V13.2h.003v-.044h.004v-.059h.004v-.055h.003v.007h.004v.008h.004v.01h.003v.008h.004v.011h.004v.007h.003v.008h.004v.01h.004v.008h.003v.011h.004v.011h.004v.007h.003v.011H7.4v.008h.004v.01h.003v.008h.004v.01h.004v.012h.003v.007h.004v.011h.004v.011h.003v.008h.004v.01h.004v.012h.003v.01h.004v.008h.004v.01h.003v.012h.004v.01h.004v.012h.003v.007h.004v.011h.004v.011h.003v.011h.004v.011h.004v.011h.003v.011h.004v.011h.004v.011h.003v.011H7.5v.011h.004v.011h.003v.011h.004v.011h.004v.011h.003v.011h.004v.011h.004v.015h.003v.01h.004v.012h.004v.014h.003v.011h.004v.011h.004v.015h.003v.011h.004v.011h.004v.015h.003v.014h.004v.011h.004v.015h.003v.015h.004v.01h.004v.015h.003v.015h.004v.015h.004v.014h.003v.015H7.6v.015h.004v.018h.003v.015h.004v.018h.004v.018h.003v.015h.004v.018h.004v.022h.003v.019h.004v.022h.004v.022h.003V14h.004v.03h.004v.029h.003v.037h.004v.062h.004v.183h-.004v.088H7.65v.059h-.003v.044h-.004v.036h-.004v.037h-.003v.03h-.004v.025h-.004v.03h-.003v.025H7.62v.022h-.004v.018h-.003v.022H7.61v.022h-.004v.022h-.003v.015h-.004v.018h-.004v.018h-.003v.019h-.004v.014h-.004v.019h-.003v.014h-.004v.015h-.004v.015H7.57v.014h-.004v.011h-.004v.015H7.56v.015h-.004v.014h-.004v.011h-.003v.011h-.004v.015H7.54v.011h-.003v.011h-.004v.015h-.004v.01h-.003v.012h-.004v.01h-.004v.012h-.003v.01H7.51v.012h-.004v.007h-.003v.011H7.5v.011h-.004v.011h-.003v.011h-.004v.007h-.004v.011h-.003v.011h-.004v.008h-.004v.01h-.003v.008h-.004v.01h-.004v.008H7.46v.008h-.004v.01h-.004v.008H7.45v.01h-.004v.008h-.004v.008h-.003v.01h-.004v.008H7.43v.007h-.003v.008h-.004v.007h-.004v.007h-.003v.008h-.004v.007h-.004v.01h-.003v.008H7.4v.008h-.004v.007h-.003v.007H7.39v.008h-.004v.007h-.003v.007h-.004v.008h-.004v.007h-.003v.007h-.004v.004h-.004v.007h-.003v.008h-.004v.007h-.004v.007H7.35v.004h-.004v.007h-.004v.008H7.34v.007h-.004v.007h-.004v.004h-.003v.007h-.004v.008H7.32v.007h-.003v.007h-.004v.004H7.31v.007h-.003v.004h-.004v.007h-.004v.008h-.003v.003H7.29v.007h-.004v.004h-.003v.007H7.28v.004h-.004v.007h-.003v.008h-.004v.003h-.004v.008h-.003v.003h-.004v.008h-.004v.003h-.003v.008h-.004v.007h-.004v.004H7.24v.003h-.004v.008h-.004v.003H7.23v.008h-.004v.003h-.004v.004h-.003v.007h-.004v.004H7.21v.007h-.003v.004h-.004v.004H7.2v.007h-.003v.004h-.004v.007h-.004v.004h-.003v.003H7.18v.008h-.004v.003h-.003v.004H7.17v.007h-.003v.004h-.004v.004h-.004v.003h-.003v.008h-.004v.003h-.004v.004h-.003v.004H7.14v.007h-.004v.004h-.003v.003H7.13v.004h-.004v.004h-.003v.003h-.004v.008h-.004v.003h-.003v.004h-.004v.004h-.004v.003h-.003v.004h-.004v.007h-.004v.004H7.09v.004h-.004v.003h-.004v.004H7.08v.004h-.004v.003H7.07v.008h-.003v.003h-.004v.004H7.06v.004h-.003v.003h-.004v.004h-.004v.004h-.003v.003h-.004v.004h-.004v.007h-.003v.004H7.03v.004h-.004v.003h-.003v.004H7.02v.004h-.004v.003h-.003v.004h-.004v.004h-.004v.003h-.003v.004h-.004v.004h-.004v.003h-.003v.008h-.004v.003h-.004v.004H6.98v.004h-.004v.003h-.004v.004H6.97v.004h-.004v.003H6.96v.004h-.003v.004h-.004v.003H6.95v.004h-.003v.004h-.004v.003h-.004v.004h-.003v.004h-.004v.003h-.004v.008h-.003v.003H6.92v.004h-.004v.004h-.003v.003H6.91v.004h-.004v.004h-.003v.003h-.004v.004h-.004v.004h-.003v.003h-.004v.004h-.004v.004h-.003v.003h-.004v.004h-.004v.003H6.87v.004h-.004v.004h-.004v.003H6.86v.004h-.004v.004h-.004v.003h-.003v.004h-.004v.004H6.84v.003h-.003v.004h-.004v.004h-.004v.004h-.003v.003h-.004v.004h-.004v.003h-.003v.004H6.81v.004h-.004v.003h-.003v.004H6.8v.008h-.004v.003h-.003v.004h-.004v.004h-.004v.003h-.003v.004h-.004v.004h-.004v.003h-.003v.004h-.004v.003h-.004v.004H6.76v.004h-.004v.003h-.004v.004H6.75v.004h-.004v.003h-.004v.004h-.003v.004h-.004v.004H6.73v.003h-.003v.004h-.004v.003h-.004v.004h-.003v.004h-.004v.003h-.004v.004h-.003v.004H6.7v.003h-.004v.004h-.003v.004H6.69v.003h-.004v.004h-.003v.004h-.004v.003h-.004v.004h-.003v.004h-.004v.003h-.004v.004h-.003v.004h-.004v.003h-.004v.004H6.65v.004h-.004v.003h-.004v.004H6.64v.004h-.004v.003h-.004v.004h-.003v.004h-.004v.003H6.62v.004h-.003v.004h-.004v.003H6.61v.004h-.003v.004h-.004v.003h-.004v.004h-.003v.004H6.59v.003h-.004v.004h-.003v.004H6.58v.003h-.004v.004h-.003v.004h-.004v.003h-.004v.004h-.007v.004h-.004v.003h-.003v.004h-.004v.004h-.004v.003H6.54v.004h-.004v.004h-.004v.003H6.53v.004h-.004v.004h-.004v.003h-.003v.004h-.004v.004H6.51v.003h-.003v.004h-.004v.004H6.5v.003h-.003v.004h-.004v.004h-.004v.003h-.003v.004H6.48v.004h-.004v.003h-.003v.004H6.47v.004h-.003v.003h-.004v.004h-.004v.004h-.003v.003h-.004v.004h-.004v.004h-.003v.003H6.44v.004h-.004v.004h-.003v.003H6.43v.004h-.004v.004h-.003v.003h-.004v.004h-.004v.004h-.003v.003h-.004v.004h-.004v.004h-.003v.003h-.004v.004h-.004v.004H6.39v.003h-.004v.004h-.004v.004H6.38v.003h-.004v.004H6.37v.004h-.003v.003h-.004v.004H6.36v.004h-.003v.003h-.004v.004h-.004v.004h-.007v.003h-.004v.004h-.003v.004H6.33v.003h-.004v.004h-.003v.004H6.32v.003h-.004v.004h-.003v.004h-.004v.003h-.004v.004h-.003v.004h-.004v.003h-.004v.004h-.003v.004h-.004v.003h-.004v.004H6.28v.004h-.004v.003h-.004v.004H6.27v.004h-.004v.003H6.26v.004h-.003v.004h-.004v.003H6.25v.004h-.003v.004h-.004v.003h-.004v.004h-.003v.004h-.004v.003h-.004v.004h-.003v.004H6.22v.003h-.004v.004h-.003v.004H6.21v.003h-.004v.004h-.003v.004h-.004v.003h-.004v.004h-.003v.004h-.004v.003h-.004v.004h-.007v.003h-.004v.004H6.17v.004h-.004v.003h-.004v.004H6.16v.004h-.004v.003h-.004v.004h-.003v.004h-.004v.003H6.14v.004h-.003v.004h-.004v.004h-.004v.003h-.003v.004h-.004v.003h-.004v.004h-.003v.004H6.11v.003h-.004v.004h-.003v.004H6.1v.003h-.004v.004h-.003v.004h-.004v.004h-.004v.003h-.003v.004h-.004v.004h-.004v.003h-.003v.004h-.004v.003h-.004v.004H6.06v.004h-.004v.003h-.004v.004H6.05v.004h-.004v.003h-.004v.004h-.003v.004h-.004v.004H6.03v.003h-.003v.004h-.008v.003h-.003v.004h-.004v.004h-.004v.003h-.003V17H6v.004h-.004v.003h-.003v.004H5.99v.004h-.004v.003h-.003v.004h-.004v.004h-.004v.004h-.003v.003h-.004v.004h-.004v.003h-.003v.004h-.004v.004h-.004v.003H5.95v.004h-.004v.004h-.004v.003H5.94v.004h-.004v.004h-.004v.003h-.003v.004h-.004v.004H5.92v.003h-.003v.004h-.004v.004H5.91v.003h-.003v.004h-.004v.004h-.004v.003h-.003v.004H5.89v.004h-.004v.003h-.003v.004H5.88v.004h-.004v.003h-.003v.004h-.004v.004h-.004v.003h-.003v.004h-.004v.004h-.004v.003h-.003v.004h-.004v.004H5.84v.003h-.004v.004h-.004v.004H5.83v.003h-.004v.004h-.004v.004h-.003v.003h-.004v.004H5.81v.004h-.003v.003h-.004v.004H5.8v.004h-.003v.003h-.004v.004h-.004v.004h-.003v.003H5.78v.004h-.004v.004h-.003v.003H5.77v.004h-.004v.004h-.003v.003h-.004v.004h-.004v.004h-.003v.003h-.004v.004h-.003v.004H5.74v.003h-.004v.004h-.003v.004H5.73v.003h-.004v.004h-.003v.004h-.004v.003h-.004v.004h-.003v.004h-.004v.003h-.004v.004h-.003v.004h-.004v.003h-.004v.004H5.69v.004h-.004v.003h-.004v.004H5.68v.004h-.004v.003H5.67v.004h-.003v.004h-.004v.003H5.66v.004h-.003v.004h-.004v.003h-.004v.004h-.003v.004h-.004v.003h-.004v.004h-.003v.004H5.63v.003h-.004v.004h-.003v.004H5.62v.003h-.004v.004h-.003v.004h-.004v.003h-.004v.004h-.003v.004h-.004v.003h-.004v.004h-.003v.004h-.004v.003h-.004v.004H5.58v.004h-.004v.003h-.004v.004H5.57v.004h-.004v.003H5.56v.004h-.003v.004h-.004v.003H5.55v.004h-.003v.004h-.004v.003h-.004v.004h-.003v.004h-.004v.003h-.004v.004h-.003v.004H5.52v.003h-.004v.004h-.003v.004H5.51v.003h-.004v.004H5.5v.004h-.004v.003h-.003v.004h-.004v.004h-.004v.003h-.003v.004h-.004v.004h-.004v.003H5.47v.004h-.004v.003h-.004v.004H5.46v.008h-.004v.003h-.004v.004h-.003v.003h-.004v.004H5.44v.004h-.003v.004h-.004v.003h-.004v.004h-.003v.003h-.004v.004h-.004v.004h-.003v.003H5.41v.004h-.004v.004h-.003v.003H5.4v.004h-.004v.004h-.003v.004h-.004v.003h-.004v.004h-.003v.004h-.004v.003h-.004v.004h-.003v.003h-.004v.004h-.004v.004H5.36v.003h-.004v.004h-.004v.004H5.35v.003h-.004v.004h-.004v.004h-.003v.004h-.004v.003H5.33v.004h-.003v.003h-.004v.004h-.004v.004h-.003v.003h-.004v.004h-.004v.004h-.003v.003H5.3v.004h-.004v.004h-.003v.003H5.29v.004h-.004v.004h-.003v.004h-.004v.003h-.004v.004h-.003v.003h-.004v.004h-.004v.004h-.003v.003h-.004v.004h-.004v.004H5.25v.003h-.004v.004h-.004v.004H5.24v.003h-.004v.004h-.004v.004h-.003v.003h-.004v.004H5.22v.004h-.003v.003h-.004v.004H5.21v.007h-.003v.004h-.004v.004h-.004v.003h-.003v.004H5.19v.004h-.004v.003h-.003v.004H5.18v.004h-.004v.003h-.003v.004h-.004v.004h-.004v.003h-.003v.004h-.004v.004h-.004v.003h-.003v.004h-.004v.004h-.004v.003H5.14v.004h-.004v.004h-.004v.003H5.13v.004h-.004v.004h-.004v.003h-.003v.004h-.004v.004H5.11v.003h-.003v.008h-.004v.003H5.1v.004h-.003v.004h-.004v.003h-.004v.004h-.003v.004H5.08v.003h-.004v.004h-.003v.004H5.07v.003h-.004v.004h-.003v.004h-.004v.003h-.003v.004h-.004v.004h-.004v.003h-.003v.004H5.04v.004h-.004v.003h-.003v.008H5.03v.003h-.004v.004h-.003v.004h-.004v.003h-.004v.004h-.003V18h-.004v.003h-.004v.004h-.003v.004h-.004v.003h-.004v.004H4.99v.007h-.004v.004h-.004v.004H4.98v.003h-.004v.004H4.97v.004h-.003v.003h-.004v.004H4.96v.004h-.003v.007h-.004v.004h-.004v.003h-.003v.004h-.004v.004h-.004v.007h-.003v.004H4.93v.003h-.004v.004h-.003v.004H4.92v.003h-.004v.008h-.003v.003h-.004v.004h-.004v.004h-.003v.003h-.004v.008h-.004v.003h-.003v.004h-.004v.004h-.004v.007H4.88v.004h-.004v.003h-.004v.008H4.87v.003h-.004v.004H4.86v.004h-.003v.007h-.004v.004H4.85v.003h-.003v.004h-.004v.007h-.004v.004h-.003v.004h-.004v.007h-.004v.004h-.003v.007H4.82v.003h-.004v.004h-.003v.007H4.81v.004h-.004v.004h-.003v.007h-.004v.004h-.004v.003h-.003v.008h-.004v.003h-.004v.008h-.003v.003h-.004v.008h-.004v.004H4.77v.003h-.004v.008h-.004v.003H4.76v.008h-.004v.003h-.004v.008h-.003v.003h-.004v.008H4.74v.003h-.003v.008h-.004v.003h-.004v.008h-.003v.003h-.004v.008h-.004v.007h-.003v.003H4.71v.008h-.004v.003h-.003v.008H4.7v.004h-.004v.007h-.003v.007h-.004v.004h-.004v.007h-.003v.004h-.004v.007h-.004v.007h-.003v.004h-.004v.007h-.004v.008H4.66v.007h-.004v.004h-.004v.007H4.65v.007h-.004v.004h-.004v.007h-.003v.008h-.004v.007H4.63v.004h-.003v.007h-.004v.007h-.004v.008h-.003v.007h-.004v.007h-.004v.004h-.003v.007H4.6v.008h-.004v.007h-.003v.007H4.59v.008h-.004v.007h-.003v.007h-.004v.008h-.004v.007h-.003v.004h-.004v.007h-.004v.007h-.003v.008h-.004v.01h-.004v.008H4.55v.007h-.004v.008h-.004v.007H4.54v.007h-.004v.008h-.004v.007h-.003v.007h-.004v.008H4.52v.01h-.003v.008h-.004v.007H4.51v.008h-.003v.01h-.004v.008h-.004v.007h-.003v.008H4.49v.01h-.004v.008h-.003v.007H4.48v.011h-.004v.008h-.003v.01h-.004v.008h-.004v.007h-.003v.011h-.004v.011h-.004v.008h-.003v.01h-.004v.008h-.004v.01H4.44v.008h-.004v.011h-.004v.011H4.43v.011h-.004v.008h-.004v.01h-.003v.012h-.004v.01H4.41v.011h-.003v.011h-.004v.012H4.4v.01h-.003v.012h-.004v.01h-.004v.011h-.003v.012H4.38v.01h-.004v.011h-.003v.011H4.37v.015h-.004v.011h-.003v.015h-.004v.01h-.003v.015h-.004v.011h-.004v.015h-.003v.015H4.34v.01h-.004v.015h-.003v.015H4.33v.015h-.004v.014h-.003v.015h-.004v.018h-.004v.015h-.003v.015h-.004v.018h-.004v.018h-.003v.019h-.004v.018h-.004v.018H4.29v.019h-.004v.022h-.004v.022H4.28v.022h-.004v.025H4.27v.026h-.003v.03h-.004v.032H4.26v.037h-.003v.022" fill="url(#a)"/><path d="M7.694 20.76c-.141-1.143-2.265-4.507-2.223-5.425.079-1.727 1.88-2.291 1.88-2.291-1.708-.328-3.287 1.255-3.081 2.914.141 1.142 2.264 4.506 2.223 5.425-.08 1.725-1.764 2.17-1.764 2.17 1.707.329 3.171-1.134 2.965-2.793z" fill="#532048"/><path d="M4.726 23.556v-.015h-.004v-.018h-.004v-.014h-.003v-.019H4.71v-.014h-.004v-.019h-.003v-.015H4.7v-.018h-.004v-.018h-.003v-.018h-.004v-.015h-.004v-.018h-.003v-.019h-.004v-.018h-.004V23.3h-.003v-.019h-.004v-.018h-.004v-.018H4.66v-.019h-.004v-.022h-.004v-.018H4.65v-.018h-.004v-.022h-.004v-.019h-.003v-.022h-.004v-.018H4.63v-.022h-.003v-.022h-.004v-.022h-.004V23h-.003v-.018h-.004v-.026h-.004v-.022h-.003v-.026H4.6v-.021h-.004v-.026h-.003v-.026H4.59v-.026h-.004v-.025h-.003v-.03h-.004v-.029h-.004v-.03h-.003v-.036h-.004v-.036h-.004v-.044h-.003v-.048h-.004v-.073h-.004V22.3h.004v-.102h.004v-.055h.003v-.052h.004v-.037h.004v-.036h.003v-.033h.004v-.026h.004v-.025h.003v-.03h.004v-.022h.004v-.022h.003v-.022h.004v-.018h.004v-.022h.003v-.022h.004v-.015h.004v-.018h.003v-.015h.004v-.018h.004v-.015h.003v-.018h.004v-.015h.004v-.014h.003v-.015h.004v-.01h.004v-.016h.003v-.014h.004v-.015h.004v-.015h.003v-.01h.004v-.012h.004v-.01h.003v-.012h.004v-.014h.004v-.011h.003v-.011h.004v-.011h.004v-.011h.003v-.015H4.7v-.007h.004v-.011h.003v-.011h.004v-.008h.004v-.01h.003v-.011h.004v-.012h.004v-.007h.003v-.01h.004v-.012h.004v-.007h.003v-.011h.004v-.008h.004v-.01h.003v-.008h.004v-.007h.004v-.011h.003v-.007h.004v-.008h.004v-.01h.003v-.008h.004v-.007h.004v-.011h.003v-.008h.004v-.007h.004v-.007h.003v-.008H4.8v-.007h.004v-.007h.003v-.008h.004v-.007h.004v-.007h.003v-.008h.004v-.007h.004v-.007h.003v-.008h.004v-.007h.004v-.007h.003v-.008h.004v-.007h.004v-.007h.003v-.008h.004v-.007h.004v-.004h.003v-.007h.004v-.007h.004v-.008h.003v-.003h.004v-.008h.004v-.007h.003v-.007h.004v-.004h.004v-.007h.003v-.008h.004v-.007h.004v-.004h.003v-.007h.004v-.007h.004v-.004h.003v-.007h.004v-.008h.004v-.003h.003v-.008h.004v-.003h.004v-.008h.003v-.003h.004v-.008h.004v-.003h.003v-.008h.004v-.003h.004v-.008h.003v-.003h.004v-.008h.004v-.003h.003v-.008h.004v-.003h.004v-.008h.003v-.007h.004v-.004h.003v-.003h.004v-.008h.004v-.003H5v-.004h.004v-.007h.004v-.004h.003v-.004h.004v-.007h.004v-.004h.003v-.007h.004v-.003h.004v-.004h.003v-.008h.004v-.003h.004V20.8h.003v-.007h.004v-.004h.004v-.004h.003v-.003h.004v-.008h.004v-.003h.003v-.004h.004v-.003h.004v-.008h.003v-.003h.004v-.004h.004v-.004h.003v-.004h.004v-.007h.004v-.004h.003v-.003h.004v-.004h.004v-.003h.003v-.004h.004v-.008h.004v-.003h.003V20.7h.004v-.003h.004v-.004h.003v-.004h.004v-.004h.004v-.003h.003v-.008h.004v-.003h.004v-.004h.003v-.003h.004v-.004h.004v-.004h.003v-.003h.004v-.004h.004v-.004h.003v-.004h.004v-.003h.004v-.004h.003v-.007h.004v-.004h.004v-.003h.003v-.004h.004v-.004h.004v-.003h.003v-.004h.004v-.004h.004V20.6h.003v-.004h.004v-.004h.004v-.003h.003v-.004h.004v-.004h.004v-.003h.003v-.004h.004v-.004h.004v-.003h.003v-.008h.004v-.003h.004v-.004h.003v-.004h.004v-.003h.004v-.004h.003v-.004h.004v-.003h.004v-.004h.003v-.004h.004v-.003h.004v-.004h.003v-.004h.004v-.003h.004v-.004h.003v-.004h.004V20.5h.004v-.004h.003v-.004h.004v-.003h.004v-.004h.003v-.004h.004v-.003h.004v-.004h.003v-.004h.004v-.003h.004v-.004h.003v-.004h.004v-.003h.004v-.004h.003v-.004h.004v-.003h.004v-.004h.003v-.004h.004v-.003h.004v-.004h.003v-.004h.004v-.003h.004v-.004h.003v-.004H5.4v-.003h.004v-.004h.003v-.004h.004v-.003h.004v-.004h.003v-.004h.004v-.003h.004v-.004h.003v-.004h.004v-.003h.004v-.004h.003v-.004h.004v-.003h.004v-.004h.003v-.004h.004v-.003h.004v-.004h.003v-.004h.004v-.003h.004v-.004h.003v-.004h.004v-.003h.004v-.004h.003v-.004h.004v-.003h.004v-.004h.003v-.004H5.5v-.003h.004v-.004h.003v-.004h.004v-.003h.004v-.004h.003v-.004h.004v-.003h.007v-.004h.004v-.004h.004v-.003h.003v-.004h.004v-.004h.004v-.003h.003v-.004h.004v-.004h.004v-.003h.003v-.004h.004v-.004h.004v-.003h.003v-.004h.004v-.004h.004v-.003h.003v-.004h.004v-.004h.004v-.003h.003v-.004h.004v-.004h.004v-.003h.003v-.004h.004v-.004h.004v-.003h.003v-.004h.004v-.004h.004v-.003h.003v-.004h.004v-.004h.004v-.003h.003v-.004h.004v-.004h.004v-.003h.007v-.004h.004v-.004h.003v-.003h.004v-.004h.004v-.004h.003v-.003h.004v-.004h.004v-.004h.003v-.003h.004v-.004h.003v-.004h.004v-.003h.004v-.004H5.7v-.003h.004v-.004h.004v-.004h.003v-.003h.004v-.004h.004V20.1h.003v-.004h.004v-.003h.004v-.004h.003v-.003h.004v-.004h.004v-.004h.007v-.003h.004v-.004h.003v-.004h.004v-.003h.004v-.004h.003v-.004h.004v-.004h.004v-.003h.003v-.004h.004v-.004h.004v-.003h.003v-.004h.004v-.003h.004v-.004h.003v-.004h.004v-.003h.004v-.004h.003v-.004h.004v-.003h.004v-.004h.003V20h.004v-.004h.004v-.003h.007v-.004h.004v-.003h.003v-.004h.004v-.004h.004v-.003h.003v-.004h.004v-.004h.004v-.003h.003v-.004h.004v-.004h.004v-.004h.003v-.003h.004v-.004h.004v-.004h.003v-.003h.004v-.004h.004v-.003h.003v-.004h.004v-.004h.004v-.003h.003v-.004h.008v-.004h.003v-.003h.004v-.004h.004v-.004h.003V19.9h.004v-.004h.004v-.004h.003v-.003h.004v-.004h.004v-.004h.003v-.003h.004v-.004h.004v-.004h.003v-.003h.004v-.004h.004v-.004h.003v-.003h.004v-.004h.004v-.004h.003v-.003h.008v-.004h.003v-.004h.004v-.003h.004v-.004h.003v-.004h.004v-.003h.004v-.004h.003v-.004h.004v-.003h.004v-.004h.003v-.004h.004V19.8h.004v-.004h.003v-.004h.004v-.003h.004v-.004h.003v-.004h.004v-.003h.004v-.004h.007v-.004h.004v-.003h.003v-.004h.004v-.004h.004v-.003h.003v-.004h.004v-.004h.004v-.003h.003v-.004H6.1v-.004h.004v-.003h.003v-.004h.004v-.004h.004v-.003h.003v-.004h.004v-.004h.004v-.003h.003v-.004h.004v-.004h.004v-.003h.007v-.004h.004v-.004h.003v-.003h.004v-.004h.004v-.004h.003v-.003h.004v-.004h.004v-.004h.003v-.003h.004v-.004h.004v-.004h.003v-.003h.004v-.004h.004v-.004h.003v-.003H6.2v-.004h.004v-.004h.003v-.003h.004v-.004h.007v-.004h.004v-.003h.004v-.004h.003v-.004h.004v-.003h.004v-.004h.003v-.004h.004v-.003h.004v-.004h.003v-.004h.004v-.003h.004v-.004h.003v-.004h.004v-.003h.004v-.004h.003v-.004h.004v-.003h.004v-.004h.003v-.004h.004v-.003h.007v-.004h.004v-.004h.004v-.003h.003v-.004h.004v-.004h.004v-.003h.003v-.004h.004v-.004h.004v-.003h.003v-.004h.004v-.004h.004v-.003h.003v-.004h.004v-.004h.004v-.003h.003v-.004h.004v-.004h.004v-.003h.003v-.004h.004v-.004h.004v-.003h.007v-.004h.004v-.004h.003v-.003h.004v-.004h.003v-.004h.004v-.003h.004v-.004H6.4v-.004h.004v-.003h.004v-.004h.003v-.004h.004v-.003h.004v-.004h.003v-.004h.004v-.003h.004v-.004h.003v-.003h.004v-.004h.004v-.004h.003v-.004h.004v-.003h.007V19.4h.004v-.003h.004v-.004h.003v-.004h.004v-.003h.004v-.004h.003v-.004h.004v-.003h.004v-.004h.003v-.004h.004v-.004h.004v-.003h.003v-.004h.004v-.004h.004v-.003h.003v-.004h.004v-.003h.004v-.004h.003v-.004h.004v-.003h.004v-.004h.003v-.004h.004v-.003h.007v-.004h.004v-.004h.004v-.004h.003v-.003h.004V19.3h.004v-.003h.003v-.004h.004v-.004h.004v-.003h.003v-.004h.004v-.004h.004v-.003h.003v-.004h.004v-.004h.004v-.003h.003v-.004h.004v-.004h.004v-.004h.003v-.003h.004v-.004h.004v-.003h.003v-.004h.004v-.004h.004v-.003h.003v-.004h.008v-.004h.003v-.003h.004v-.004h.004v-.004h.003v-.004h.004v-.003h.004v-.004h.003V19.2h.004v-.004h.004v-.004h.003v-.003h.004v-.004h.004v-.004h.003v-.003h.004v-.004h.004v-.004h.003v-.003h.004v-.004h.004v-.004h.003v-.003h.004v-.004h.004v-.004h.003v-.003h.004v-.004h.004v-.004h.003v-.003h.004v-.004h.004v-.004h.007v-.003h.004v-.004h.003v-.004h.004v-.003h.004v-.004h.003v-.004h.004V19.1h.004v-.004h.003v-.004h.004v-.003h.004v-.004h.003v-.004h.004v-.003h.004v-.004h.003v-.004H6.8v-.003h.004v-.004h.003v-.004h.004v-.003h.004v-.004h.003v-.004h.004v-.003h.004v-.004h.003v-.004h.004v-.003h.004v-.004h.003v-.004h.004v-.003h.004v-.004h.003v-.004h.004v-.003h.004v-.004h.003v-.004h.004v-.003h.004v-.004h.003v-.004h.004v-.003h.004v-.004h.003v-.004h.008v-.003h.003v-.004H6.9v-.004h.004v-.003h.003v-.004h.004v-.004h.004v-.003h.003v-.004h.004v-.004h.004v-.003h.003v-.004h.004v-.004h.004v-.003h.003v-.004h.004v-.004h.004v-.003h.003v-.004h.004v-.004h.004v-.003h.003v-.004h.004v-.004h.004v-.003h.003v-.004h.004v-.004h.004v-.003h.003v-.004h.004v-.004h.004v-.003h.003v-.004h.004v-.004h.004v-.003h.003v-.004h.004v-.004h.004v-.003h.003v-.004h.004v-.004h.004v-.003h.003v-.004h.004v-.004h.004v-.003h.003v-.004h.004v-.004h.004v-.003h.003v-.004h.004v-.004h.004v-.003h.003v-.004h.004v-.004h.004v-.003h.003v-.004h.004v-.004h.004v-.003h.003v-.004h.004v-.004h.003v-.003h.004v-.004h.004v-.004H7.1v-.003h.004v-.004h.004v-.004h.003v-.003h.004v-.004h.004v-.004h.003v-.003h.004v-.004h.004v-.004h.003v-.003h.004v-.004h.004v-.004h.003v-.003h.004v-.004h.004v-.004h.003v-.003h.004v-.004h.004v-.003h.003v-.004h.004V18.7h.004v-.003h.003v-.004h.004v-.004h.004v-.003h.003v-.004h.004v-.004h.004v-.004h.003v-.003h.004v-.004h.004v-.004h.003v-.003h.004v-.004h.004v-.003h.003v-.004h.004v-.004h.004v-.003h.003v-.004h.004v-.004h.004v-.003h.003v-.008h.004v-.004h.004v-.003h.003v-.004h.004v-.003h.004v-.004h.003V18.6h.004v-.003h.004v-.004h.003v-.004h.004v-.003h.004v-.004h.003v-.004h.004v-.003h.004v-.004h.003v-.004h.004v-.004h.004v-.003h.003v-.004h.004v-.003h.004v-.008h.003v-.003h.004v-.004h.004v-.004h.003v-.003h.004v-.004h.004v-.004h.003v-.004h.004v-.003h.004v-.008h.003v-.003h.004v-.004h.004V18.5h.003v-.004h.004v-.004h.004v-.003h.003v-.008h.004v-.003h.004v-.004h.003v-.004h.004v-.003h.004v-.004h.003v-.007h.004v-.004h.004v-.004h.003v-.003h.004v-.004h.004v-.007h.003v-.004h.004v-.004h.004v-.003h.003v-.008h.004v-.003h.004v-.004h.003v-.004h.004v-.007h.004v-.004h.003v-.003h.004v-.004h.004v-.004h.003v-.007h.004v-.004h.004v-.003h.003v-.008h.004v-.003h.004v-.004h.003v-.007h.004v-.004h.004v-.004h.003v-.007H7.5v-.004h.004v-.003h.003v-.008h.004v-.003h.004v-.004h.003v-.007h.004v-.004h.004v-.007h.003v-.004h.004v-.004h.004v-.007h.003v-.004h.004v-.007h.004v-.004h.003v-.007h.004v-.004h.004v-.003h.003v-.008h.004v-.003h.004v-.008h.003v-.003h.004v-.008h.004v-.003h.003v-.008h.004v-.003h.004v-.008h.003v-.003H7.6v-.008h.004v-.003h.003v-.008h.004v-.003h.004v-.008h.003v-.003h.004v-.008h.004v-.007h.003v-.004h.004v-.007h.004v-.007h.003v-.004h.004v-.007h.004v-.004h.003v-.007h.004v-.008h.004v-.003h.003v-.008h.004v-.007h.004v-.004h.003v-.007h.004v-.007h.004v-.008h.003v-.003h.004v-.008h.004v-.007h.003v-.007h.004v-.004h.004v-.007h.003v-.008h.004V18h.004v-.007h.003v-.004h.004v-.007h.004v-.008h.003v-.007h.004v-.007h.004v-.008h.003v-.007h.004v-.007h.004v-.004h.003v-.007h.004v-.008h.004v-.007h.003v-.007h.004v-.008h.004v-.007h.003v-.007h.004v-.008h.004v-.007h.003v-.007h.004v-.011h.004v-.008h.003v-.007h.004v-.007H7.8v-.008h.003v-.007h.004v-.007h.003v-.011h.004v-.007h.004v-.008h.003v-.007h.004v-.011h.004v-.007h.003v-.008h.004v-.007h.004v-.011h.003v-.007h.004v-.008h.004v-.01h.003v-.008h.004v-.011h.004v-.007h.003v-.011h.004v-.008h.004v-.01h.003v-.008h.004v-.011h.004v-.007h.003v-.011h.004V17.6h.004v-.008h.003v-.01h.004v-.012h.004v-.01h.003v-.008h.004v-.011h.004v-.011h.003v-.011h.004v-.011h.004v-.011h.003v-.011h.004v-.011h.004v-.011h.003v-.01h.004v-.012h.004v-.01h.003v-.016h.004v-.01h.004v-.012h.003v-.014h.004v-.011h.004v-.015h.003v-.01h.004v-.016h.004v-.014h.003v-.011h.004v-.015h.004v-.015h.003v-.014h.004v-.015h.004v-.015h.003v-.014h.004v-.018h.004v-.015h.003v-.018h.004v-.019h.004v-.018h.003v-.018h.004v-.019h.004v-.018h.003v-.022h.004v-.022h.004v-.022h.003v-.026h.004v-.025h.004v-.033h.003v-.033h.004v-.026h.004v.007h.003v.015h.004v.018h.004v.015h.003v.018h.004v.015h.004v.018h.003v.015H8.1v.018h.004v.019h.003v.014h.004v.019h.004v.014h.003v.019h.004v.018h.004v.014h.003v.019h.004v.018h.004v.015h.003v.018h.004v.018h.004v.015h.003v.018h.004v.019h.004v.014h.003v.019h.004v.018h.004v.018h.003v.015h.004v.018h.004v.019h.003v.018h.004v.015h.004v.018h.003v.018H8.2v.019h.004v.018h.003v.018h.004v.019h.004v.014h.003v.019h.004v.018h.004v.018h.003v.019h.004v.018h.004v.018h.003v.019h.004v.018h.004v.018h.003v.019h.004v.018h.004v.018h.003v.022h.004v.019h.004v.018h.003v.018h.004v.018h.004v.022h.003v.019h.004v.022h.004v.018h.003v.022H8.3v.018h.004v.023h.003v.021h.004v.022h.004v.03h.003v.03h.004v.05h.004v.21H8.32v.043h-.004v.04h-.003v.034H8.31v.025h-.004v.03h-.003v.025h-.004v.022h-.004v.018h-.003v.019h-.004v.022h-.004v.018h-.003v.018h-.004v.015h-.004v.018H8.27v.015h-.004v.015h-.004v.014H8.26v.015h-.004v.015H8.25v.014h-.003v.011h-.004v.015H8.24v.011h-.003v.015h-.004v.01h-.004v.012h-.003v.014h-.004v.011h-.004v.011h-.003v.011H8.21v.011h-.004v.011h-.003v.011H8.2v.011h-.004v.011h-.003v.011h-.004v.008h-.004V19h-.003v.012h-.004v.01h-.004v.008h-.003v.011h-.004v.007h-.004v.011H8.16v.008h-.004v.01h-.004v.008H8.15v.01h-.004v.008h-.004v.011h-.003v.008h-.004v.007H8.13v.007h-.003v.011h-.004v.008h-.004v.007h-.003v.007h-.004v.008h-.004v.007h-.003v.01H8.1v.008h-.004v.007h-.003v.008H8.09v.007h-.004v.008h-.003v.01h-.004v.004h-.004v.008h-.003v.007h-.004v.007h-.004v.008h-.003v.007h-.004v.007h-.004v.008H8.05v.007h-.004v.007h-.004v.004H8.04v.007h-.004v.008h-.004v.007h-.003v.007h-.004v.008H8.02v.007h-.003v.003h-.004v.008H8.01v.007h-.003v.004h-.004v.007h-.004v.008h-.003v.003H7.99v.008h-.004v.007h-.003v.007H7.98v.004h-.004v.007h-.003v.007h-.004v.004h-.004v.007h-.003v.008h-.004v.003h-.004v.008h-.003v.003h-.004v.008h-.004v.003H7.94v.008h-.004v.003h-.004v.008H7.93v.003h-.004v.008h-.004v.003h-.003v.008h-.004v.003H7.91v.008h-.003v.003h-.004v.008H7.9v.003h-.003v.008h-.004v.003h-.004v.008h-.003v.003H7.88v.008h-.004v.003h-.003v.004H7.87v.007h-.004v.004h-.003v.004h-.004v.007h-.004v.004h-.003v.003h-.004v.008h-.004v.003h-.003v.004h-.004v.007h-.004v.004H7.83v.007h-.004v.004h-.004v.004H7.82v.007h-.004v.004h-.004v.003h-.003v.004h-.004v.007h-.003v.004h-.004v.004h-.004v.003H7.79v.004h-.004v.007h-.004v.004H7.78v.004h-.004v.003H7.77v.004h-.003v.007h-.004v.004H7.76v.004h-.003v.003h-.004v.004h-.004v.004h-.003v.007h-.004v.004h-.004v.003h-.003v.004H7.73v.004h-.004v.003h-.003v.004H7.72v.004h-.004v.007h-.003v.004h-.004v.003h-.004v.004h-.003v.004h-.004v.003h-.004v.004h-.003v.004h-.004v.003h-.004v.004H7.68v.004h-.004v.007h-.004v.004H7.67v.003h-.004v.004H7.66v.004h-.003v.003h-.004v.004H7.65v.004h-.003v.003h-.004v.004h-.004v.004h-.003v.003h-.004v.004h-.004v.004h-.003v.003H7.62v.004h-.004v.004h-.003v.003H7.61v.004h-.004v.007h-.003v.004h-.004v.004h-.004v.003h-.003v.004h-.004v.003h-.004v.004h-.003v.004h-.004v.003h-.004v.004H7.57v.004h-.004v.003h-.004v.004H7.56v.004h-.004v.003h-.004v.004h-.003v.004h-.004v.004H7.54v.003h-.003v.004h-.004v.003h-.004v.004h-.003v.004h-.004v.003h-.004v.004h-.003v.004H7.51v.003h-.004v.004h-.003v.004H7.5v.004h-.004v.003h-.003v.004h-.004v.004h-.004v.003h-.003v.004h-.004v.003h-.004v.004h-.003v.004h-.004v.003h-.004v.004H7.46v.004h-.004v.003h-.004v.004H7.45v.004h-.004v.004h-.004v.003h-.003v.004h-.004v.003H7.43v.004h-.003v.004h-.004v.003h-.004v.004h-.003v.004h-.004v.003h-.004v.004h-.003v.004H7.4v.004h-.004v.003h-.003v.004H7.39v.004h-.004v.003h-.003v.004h-.004v.003h-.004v.004h-.003v.004h-.004v.003h-.004v.004h-.003v.004h-.004v.003h-.004v.004H7.35v.004h-.004v.003h-.004v.004H7.34v.004h-.004v.003h-.004v.004h-.003v.004h-.004v.003H7.32v.004h-.007v.004H7.31v.003h-.003v.004h-.004v.004h-.004v.003h-.003v.004H7.29v.004h-.004v.003h-.003v.004H7.28v.004h-.004v.003h-.003v.004h-.004v.004h-.004v.003h-.003v.004h-.004v.004h-.004v.003h-.003v.004h-.004v.004h-.004v.003H7.24v.004h-.004v.004h-.004v.003H7.23v.004h-.004v.004h-.004v.003h-.003v.004h-.004v.004H7.21v.003h-.003v.004h-.004v.004H7.2v.003h-.007v.004h-.004v.004h-.003v.003H7.18v.004h-.004v.004h-.003v.003H7.17v.004h-.004v.004h-.003v.003h-.004v.004h-.004v.004h-.003v.003h-.004v.004h-.004v.004h-.003v.003h-.004v.004h-.004v.004H7.13v.003h-.004v.004h-.004v.004H7.12v.003h-.004v.004h-.004v.004h-.003v.003h-.004v.004h-.007v.004h-.004v.003H7.09v.004h-.004v.004h-.004v.003H7.08v.004h-.004v.004H7.07v.003h-.003v.004h-.004v.004H7.06v.003h-.003v.004h-.004v.004h-.004v.003h-.003v.004h-.004v.004h-.004v.003h-.003v.004H7.03v.004h-.004v.003h-.003v.004H7.02v.004h-.004v.003H7.01v.004h-.004v.004h-.003v.003h-.004v.004h-.004v.004h-.003v.003h-.004v.004h-.004v.004H6.98v.003h-.004v.004h-.004v.004H6.97v.003h-.004v.004H6.96v.004h-.003v.003h-.004v.004H6.95v.004h-.003v.003h-.004v.004h-.004v.004h-.003v.003h-.008v.004h-.003v.004H6.92v.003h-.004v.004h-.003v.004H6.91v.003h-.004v.004h-.003v.004h-.004v.003h-.004v.004h-.003v.004h-.004v.003h-.004v.004h-.003v.004h-.004v.003h-.004v.004H6.87v.003h-.004v.004h-.004v.004H6.86v.003h-.01v.004h-.003v.004h-.004v.003H6.84v.004h-.003v.004h-.004v.004h-.004v.003h-.003v.004h-.004v.003h-.004v.004h-.003v.004H6.81v.003h-.004v.004h-.003v.004H6.8v.003h-.004v.004h-.003v.004h-.004v.004h-.004v.003h-.003v.004h-.008v.004h-.003v.003h-.004v.004h-.004v.003H6.76v.004h-.004v.004h-.004v.003H6.75v.004h-.004v.004h-.004v.003h-.003v.004h-.004v.004H6.73v.004h-.003v.003h-.004v.004h-.004v.003h-.003v.004h-.004v.004h-.004v.003h-.003v.004h-.008v.004h-.003v.003H6.69v.004h-.004v.004h-.003v.004h-.004v.003h-.004v.004h-.003v.004h-.004v.003h-.004v.004h-.003v.003h-.004v.004h-.004v.004H6.65v.003h-.004v.004h-.004v.004H6.64v.003h-.004v.004h-.004v.004h-.003v.003H6.62v.004h-.003v.004h-.004v.003H6.61v.004h-.003v.004h-.004v.003h-.004v.004h-.003v.004H6.59v.003h-.004v.004h-.003v.004H6.58v.003h-.004v.004h-.003v.004h-.004v.003h-.004v.004h-.003v.004h-.004v.003h-.004v.004h-.003v.004h-.008v.003H6.54v.004h-.004v.004h-.004v.003H6.53v.004h-.004v.004h-.004v.003h-.003v.004h-.004v.004H6.51v.003h-.003v.004h-.004v.004H6.5v.003h-.003v.004h-.004v.004h-.004v.003h-.003v.004H6.48v.004h-.004v.003h-.003v.004H6.47v.004h-.007v.003h-.004v.004h-.004v.004h-.003v.003h-.004v.004h-.004v.004h-.003v.003h-.004v.004h-.004v.004H6.43v.003h-.004v.004h-.004v.004H6.42v.003h-.004v.004h-.004v.004h-.003v.003h-.004v.004h-.003v.004h-.004v.003h-.004v.004H6.39v.004h-.004v.003h-.007v.004h-.004v.004H6.37v.003h-.003v.004h-.004v.004H6.36v.003h-.003v.004h-.004v.004h-.004v.003h-.003v.004h-.004v.004h-.004v.003h-.003v.004H6.33v.004h-.004v.003h-.003v.004H6.32v.004h-.004v.003h-.003v.004h-.004v.004h-.004v.003h-.003v.004h-.004v.004H6.29v.003h-.004v.004h-.004v.004H6.28v.003h-.004v.004h-.004v.004H6.27v.003h-.004v.004H6.26v.004h-.003v.003h-.004v.004H6.25v.004h-.003v.003h-.004v.004h-.004v.004h-.003v.003h-.004v.004h-.004v.004h-.003v.003H6.22v.004h-.004v.004h-.003v.003H6.21v.004h-.004v.004h-.003v.003h-.004v.004h-.007v.004h-.004v.003h-.004v.004h-.003v.004h-.004v.003h-.004v.004H6.17v.004h-.004v.003h-.004v.004H6.16v.004h-.004v.003h-.004v.004h-.003v.004h-.004v.003H6.14v.004h-.003v.003h-.004v.004h-.004v.004h-.003v.003h-.004v.004h-.004v.004h-.003v.004H6.11v.003h-.004v.004h-.003v.003H6.1v.004h-.004v.004h-.003v.003h-.004v.004h-.004v.004h-.003v.003h-.004v.004h-.007v.004h-.004v.004h-.004v.003H6.06v.004h-.004v.004h-.004v.003H6.05v.004h-.004v.003h-.004v.004h-.003v.004h-.004v.003H6.03v.004h-.003v.004h-.004v.003h-.004v.004h-.003v.004h-.004v.004h-.004v.003h-.003v.004H6v.003h-.004v.004h-.003v.004H5.99v.003h-.004v.004h-.003v.004h-.004v.003h-.004v.004h-.003v.004h-.004v.003h-.004v.004h-.003v.004h-.004v.004h-.004v.003H5.95v.004h-.004v.003h-.004v.004H5.94v.004h-.004v.003h-.004v.004h-.003v.004h-.004v.003H5.92v.004h-.003v.004h-.004v.003H5.91v.004h-.003v.004h-.004v.003h-.007v.004H5.89v.004h-.004v.003h-.003v.004H5.88v.004h-.004v.003h-.003v.004h-.004v.004h-.004v.003h-.003v.004h-.004v.004h-.004v.003h-.003v.004h-.004v.004h-.004v.003H5.84v.004h-.004v.004h-.004v.003H5.83v.004h-.004v.004h-.004v.003h-.003v.004h-.004v.004H5.81v.003h-.003v.004h-.004v.004H5.8v.003h-.003v.004h-.004v.004h-.004v.003h-.003v.004H5.78v.004h-.004v.003h-.003v.004H5.77v.004h-.004v.003h-.003v.004h-.004v.004h-.004v.003h-.003v.004h-.004v.004h-.004v.003h-.003v.004h-.004v.004h-.004v.003H5.73v.004h-.004v.004h-.004v.003H5.72v.004h-.004v.004h-.004v.003h-.003v.004h-.004v.004h-.003v.003h-.004v.004h-.004v.004H5.69v.003h-.004v.004h-.004v.004H5.68v.003h-.004v.008H5.67v.003h-.003v.004h-.004v.004H5.66v.003h-.003v.004h-.004v.004h-.004v.003h-.003v.004h-.004v.004h-.004v.003h-.003v.004H5.63v.004h-.004v.003h-.003v.004H5.62v.004h-.004v.003h-.003v.004h-.004v.004h-.004v.003h-.003v.004h-.004v.004h-.004v.003h-.003v.004h-.004v.004h-.004v.003H5.58v.004h-.004v.004h-.004v.003H5.57v.004h-.004v.004H5.56v.003h-.003v.008h-.004v.003H5.55v.004h-.003v.004h-.004v.003h-.004v.004h-.003v.004h-.004v.003h-.004v.004h-.003v.004H5.52v.003h-.004v.008h-.003v.003H5.51v.004h-.004v.004h-.003v.003h-.004v.004h-.004v.004h-.003v.003h-.004v.008h-.004v.003h-.003v.004h-.004v.004h-.004v.003H5.47v.004h-.004v.004h-.004v.007H5.46v.004h-.004v.003h-.004v.004h-.003v.003h-.004v.008H5.44v.004h-.003v.003h-.004v.004h-.004v.003h-.003v.008h-.004v.003h-.004v.004h-.003v.004H5.41v.007h-.004v.004h-.003v.004H5.4v.003h-.004v.004h-.003v.007h-.004v.004h-.004v.003h-.003v.008h-.004v.003h-.004v.004h-.003v.004h-.004v.007h-.004v.004H5.36v.004h-.004v.007h-.004v.003H5.35v.004h-.004v.004h-.004v.007h-.003v.004h-.004v.007H5.33v.004h-.003v.003h-.004v.008h-.004v.004h-.003v.003h-.004v.008h-.004v.003h-.003v.008H5.3v.003h-.004v.004h-.003v.007H5.29v.004h-.004v.003h-.003v.008h-.004v.003h-.004v.008h-.003v.003h-.004v.008h-.004v.003h-.003v.008h-.004v.003h-.004v.008H5.25v.003h-.004v.004h-.004v.007H5.24v.004h-.004v.007h-.004v.004h-.003v.007h-.004v.004H5.22v.007h-.003v.008h-.004v.003H5.21v.008h-.003v.003h-.004v.008h-.004v.003h-.003v.008H5.19v.003h-.004v.008h-.003v.007H5.18v.004h-.004v.007h-.003v.007h-.004v.004h-.004v.007h-.003v.004h-.004v.007h-.004v.008h-.003v.003h-.004v.008h-.004v.007H5.14v.004h-.004v.007h-.004v.007H5.13v.008h-.004v.003h-.004v.008h-.003v.007h-.004v.007H5.11v.004h-.003v.007h-.004v.008H5.1v.007h-.003v.004h-.004v.007h-.004v.007h-.003v.008H5.08v.007h-.004v.007h-.003v.008H5.07v.003h-.004v.008h-.003v.007h-.004v.007h-.004v.008h-.003v.007h-.004v.007h-.004v.008h-.003v.007h-.004v.007h-.004v.008H5.03v.007h-.004v.007h-.004v.008H5.02v.007h-.004v.007h-.004v.008h-.003v.007h-.004v.007h-.003v.008h-.004v.007h-.004v.007H4.99v.008h-.003v.01h-.004v.008H4.98v.007h-.004v.008H4.97v.007h-.003v.01h-.004v.008H4.96v.008h-.003v.007h-.004v.01h-.004v.008h-.003v.008h-.004v.01h-.004v.008h-.003v.007H4.93v.011h-.004v.008h-.003v.01H4.92v.008h-.004v.01h-.003v.008h-.004v.011h-.004v.007h-.003v.011h-.004v.008h-.004v.01h-.003v.012h-.004v.007h-.004V23H4.88v.011h-.004v.007h-.004v.011H4.87v.011h-.004v.011H4.86v.008h-.003v.01h-.004v.012H4.85v.01h-.003v.012h-.004v.01h-.004v.012h-.003v.01h-.004v.012h-.004v.01h-.003v.015H4.82v.011h-.004v.011h-.003v.011H4.81v.015h-.004v.011h-.003v.015h-.004v.01h-.004v.015h-.003v.011h-.004v.015h-.004v.015h-.003v.014h-.004v.015h-.004v.015H4.77v.014h-.004v.015h-.004v.015H4.76v.018h-.004v.014h-.004v.019h-.003v.018h-.004v.018H4.74v.023h-.003v.021h-.004v.022h-.004v.004" fill="url(#b)"/><path d="M10.957 16.694c.189 0 .403.076.46.142a.146.146 0 0 1-.015.114c-.014.038-.057.043-.104.02a.902.902 0 0 0-.402-.086c-.237 0-.555.123-.555.516 0 .312.246.497.54.706.502.36.677.587.677.928 0 .493-.397.762-.88.762-.275 0-.508-.075-.598-.156a.105.105 0 0 1-.042-.09c.01-.128 0-.085.029-.146.17.15.44.203.63.203.298 0 .606-.194.606-.553 0-.342-.237-.484-.678-.825-.464-.36-.535-.607-.535-.825 0-.264.175-.71.862-.71h.005zm3.771 1.828c-.289-.71-.468-1.15-.54-1.307-.198.431-.388.834-.592 1.307h1.132zm-1.212.18c-.232.508-.383.82-.479 1.004-.013.029-.038.048-.08.048a.356.356 0 0 1-.166-.052l.01-.039a190.83 190.83 0 0 0 1.283-2.699l-.076-.175a.395.395 0 0 1 .152-.038c.07 0 .09.038.104.07.213.484.658 1.574.863 2.028.184.403.302.697.373.838v.02a.44.44 0 0 1-.18.047c-.052 0-.076-.029-.123-.142-.109-.251-.175-.417-.393-.91h-1.288m3.664-.444c.09.014.563.01.63-.01.203-.066.412-.298.412-.654 0-.525-.356-.672-.697-.672-.118 0-.27.01-.345.028v1.308zm-.237-.947c0-.233 0-.346-.01-.512a3.15 3.15 0 0 1 .596-.058c.503 0 .948.19.948.844 0 .493-.389.725-.502.79.076.124.18.29.46.683.312.44.459.578.54.644v.02a.409.409 0 0 1-.18.041c-.086 0-.18-.047-.295-.193-.156-.2-.274-.365-.705-1.018-.067-.1-.095-.11-.213-.115h-.402v1.19c0 .08-.015.104-.062.113-.128.015-.17.015-.19.015.01-.19.015-.47.015-.862V17.31m3.381.118c0-.222 0-.435-.01-.596.053-.024.114-.052.171-.067h1.227a.312.312 0 0 1-.1.148c-.047.032-.1.032-.303.032h-.749v1.17h1.123c-.038.175-.128.18-.274.18h-.849v1.236c.09.034.389.043.66.043.231 0 .492-.005.63-.024l.01.01c-.03.066-.092.16-.182.175-.056.01-.199.02-.496.02-.366 0-.673-.02-.787-.049l-.071-.094v-2.184m2.974 0c0-.227 0-.42-.019-.639.147-.019.398-.048.598-.048.6 0 1.06.242 1.06.853 0 .654-.53.895-.848.872-.08 0-.147-.014-.176-.038a.158.158 0 0 1-.051-.133c.051.01.104.015.18.015.184 0 .63-.11.63-.659 0-.672-.507-.73-.81-.73-.128 0-.218.006-.327.02v2.198c0 .326.009.483.014.577a.494.494 0 0 1-.19.038c-.027 0-.06-.014-.06-.085v-2.24m3.916-.484h-.928c-.067 0-.1-.038-.076-.08a.726.726 0 0 1 .114-.124c.056.02.16.024.71.024h1.487c.01.029-.061.148-.095.18h-.975v2.194c0 .326.009.483.014.577a.808.808 0 0 1-.204.038c-.033 0-.047-.014-.047-.085v-2.724zm4.013 1.577c-.289-.71-.468-1.15-.54-1.307-.198.431-.388.834-.591 1.307h1.131zm-1.212.18a28.94 28.94 0 0 1-.478 1.004c-.014.029-.038.048-.081.048a.364.364 0 0 1-.166-.052l.01-.039c.29-.586 1.146-2.396 1.283-2.699l-.075-.175a.389.389 0 0 1 .151-.038c.071 0 .09.038.104.07.214.484.659 1.574.862 2.028.184.403.304.697.374.838v.02a.434.434 0 0 1-.18.047c-.051 0-.076-.029-.122-.142-.11-.251-.176-.417-.394-.91h-1.288m-16.229 1.981h-.343c-.027 0-.04-.016-.029-.043a.215.215 0 0 1 .05-.07c.025.007.068.009.267.009h.602a.137.137 0 0 1-.062.104h-.338v.81c0 .125.004.185.006.222a.572.572 0 0 1-.126.015c-.019 0-.027-.006-.027-.034v-1.014m1.843.394v-.449c0-.035.01-.043.036-.046a.961.961 0 0 1 .117-.008c-.004.07-.006.177-.006.328v.59c0 .127.004.187.006.223a.729.729 0 0 1-.127.016c-.017 0-.026-.006-.026-.029v-.53a2.96 2.96 0 0 1-.264.006h-.345v.499c0 .035-.009.04-.043.046a.714.714 0 0 1-.11.008 6.65 6.65 0 0 0 .006-.334v-.577c0-.122-.002-.197-.006-.231a.745.745 0 0 1 .122-.015c.024 0 .03.01.03.095v.408h.61zm.805-.242c0-.086 0-.161-.004-.23a.618.618 0 0 1 .121-.025h.449a.155.155 0 0 1-.047.092c-.021.011-.053.011-.132.011h-.24v.399h.405c-.022.099-.053.104-.112.103h-.293v.426a2.394 2.394 0 0 0 .47.006l.004.004c-.014.045-.043.088-.083.101a1.373 1.373 0 0 1-.205.009c-.145 0-.262-.009-.306-.02l-.027-.035v-.84m1.317.305c.037.005.188.004.212-.005.06-.021.136-.096.136-.23 0-.183-.119-.237-.238-.237a.576.576 0 0 0-.11.009v.463zm-.145-.353c0-.089 0-.133-.004-.192a1.56 1.56 0 0 1 .256-.026c.234 0 .394.084.394.331 0 .18-.142.27-.19.298.03.053.072.122.163.255.109.165.162.223.196.254l-.002.008a.263.263 0 0 1-.1.018c-.05 0-.089-.017-.133-.075a4.485 4.485 0 0 1-.24-.366c-.029-.049-.04-.055-.081-.057l-.114.001v.442c0 .033-.007.042-.03.045-.05.006-.101.007-.12.007a7.29 7.29 0 0 0 .005-.333v-.61m2.011.468c-.1-.26-.159-.409-.183-.464-.065.147-.124.282-.198.464h.38zm-.421.102a15.96 15.96 0 0 1-.159.352c-.006.012-.017.02-.037.02a.312.312 0 0 1-.104-.02l.001-.015c.105-.226.416-.913.475-1.047l-.024-.056a.583.583 0 0 1 .113-.018c.023 0 .033.013.04.03.083.192.239.586.31.754.073.168.117.278.147.342l-.001.01a.41.41 0 0 1-.123.02c-.023 0-.034-.01-.052-.056-.04-.095-.062-.16-.13-.316h-.456m1.311-.521c0-.088 0-.162-.007-.244a1.62 1.62 0 0 1 .256-.023c.249 0 .433.096.433.35a.326.326 0 0 1-.332.341.128.128 0 0 1-.064-.013c-.023-.012-.043-.048-.043-.082a.371.371 0 0 0 .054.004c.073 0 .227-.038.227-.243 0-.224-.162-.255-.274-.255a.685.685 0 0 0-.104.006v.818c0 .126.004.183.006.22a.486.486 0 0 1-.122.015c-.018 0-.03-.006-.03-.034v-.86zm1.248-.002c0-.086 0-.161-.003-.23a.607.607 0 0 1 .121-.025h.448a.15.15 0 0 1-.047.092c-.02.011-.053.011-.132.011h-.24v.399h.405c-.021.099-.052.104-.112.103h-.293v.426a2.398 2.398 0 0 0 .47.006l.005.004c-.014.045-.044.088-.083.101a1.37 1.37 0 0 1-.206.009c-.144 0-.262-.009-.305-.02l-.028-.035v-.84zm1.317.336c0 .395.18.465.323.465.178 0 .326-.102.326-.498v-.511c0-.034.015-.042.034-.045.055-.006.068-.008.105-.008a6.413 6.413 0 0 0-.006.33v.238c0 .518-.254.605-.47.605-.286 0-.458-.147-.458-.59v-.335a3.21 3.21 0 0 0-.006-.233.854.854 0 0 1 .122-.015c.028 0 .03.01.03.097v.5m1.71-.487h-.344c-.027 0-.04-.016-.029-.043a.24.24 0 0 1 .05-.07c.025.007.068.009.267.009h.601a.132.132 0 0 1-.06.104h-.339v.81c0 .125.004.185.006.222a.57.57 0 0 1-.126.015c-.019 0-.026-.006-.026-.034v-1.014m1.087.136c0-.122-.003-.196-.007-.23a.892.892 0 0 1 .126-.015c.023 0 .026.013.026.093v.825c0 .127.005.187.006.224a.546.546 0 0 1-.124.015c-.019 0-.028-.006-.028-.035v-.877m1.676.769a.184.184 0 0 1-.052.106.54.54 0 0 1-.258.053c-.404 0-.622-.247-.622-.59 0-.152.05-.324.19-.45a.62.62 0 0 1 .435-.154c.174 0 .292.06.324.097a.098.098 0 0 1-.027.068c-.014.013-.034.011-.066-.003a.507.507 0 0 0-.242-.054c-.238 0-.455.172-.455.486 0 .281.17.49.49.49a.777.777 0 0 0 .277-.051l.006.002m.875-1.035c.088 0 .175.036.201.065a.102.102 0 0 1-.013.063c-.012.021-.033.021-.058.008a.325.325 0 0 0-.145-.03c-.086 0-.187.048-.187.17 0 .107.086.166.208.254.166.122.25.204.25.354 0 .205-.169.31-.362.31a.413.413 0 0 1-.24-.061c-.02-.014-.028-.026-.028-.045a.14.14 0 0 1 .026-.08.406.406 0 0 0 .24.079c.104 0 .208-.064.208-.186 0-.107-.066-.158-.241-.289-.178-.132-.209-.231-.209-.32 0-.112.07-.292.348-.292h.002" fill="#532048"/></svg>