<svg width="36" height="36" fill="none" xmlns="http://www.w3.org/2000/svg"><path d="M18 0c2.837 0 5.52.656 7.907 1.825C31.884 4.753 36 10.895 36 18c0 9.942-8.058 18-18 18-9.94 0-18-8.057-18-18C0 8.06 8.06 0 18 0z" fill="#F2F4F7"/><path d="M8.55 14.244h-.333c-.994 0-1.765.403-1.765 1.28 0 .568.415.817.877 1.03l1.09.474c.9.39 1.67.995 1.67 2.24 0 1.776-1.338 2.807-3.47 2.807h-.392c-.557 0-1.338-.142-1.895-.32-.213-.06-.332-.19-.332-.391 0-.036 0-.083.106-.58.048-.202.167-.332.332-.332.048 0 .095 0 .154.023a5.879 5.879 0 0 0 1.86.356h.308c.984 0 1.73-.486 1.73-1.422 0-.651-.462-.936-1.066-1.196l-1.031-.45c-.675-.309-1.516-.96-1.516-2.133 0-1.73 1.552-2.63 3.506-2.63h.273c.474 0 1.173.107 1.718.296.225.071.343.19.343.391 0 .036 0 .07-.094.533-.048.202-.178.355-.368.355a.36.36 0 0 1-.142-.035 4.988 4.988 0 0 0-1.564-.296zm6.165 0h-.332c-.995 0-1.765.403-1.765 1.28 0 .568.414.817.876 1.03l1.09.474c.9.39 1.67.995 1.67 2.24 0 1.776-1.338 2.807-3.47 2.807h-.391c-.557 0-1.339-.142-1.896-.32-.213-.06-.332-.19-.332-.391 0-.036 0-.083.107-.58.047-.202.166-.332.332-.332a.39.39 0 0 1 .154.023 5.88 5.88 0 0 0 1.86.356h.308c.983 0 1.73-.486 1.73-1.422 0-.651-.462-.936-1.067-1.196l-1.03-.45c-.676-.309-1.517-.96-1.517-2.133 0-1.73 1.552-2.63 3.507-2.63h.272c.474 0 1.173.107 1.718.296.225.071.344.19.344.391 0 .036 0 .07-.095.533-.047.202-.178.355-.367.355a.36.36 0 0 1-.143-.035 4.987 4.987 0 0 0-1.563-.296zm13.032.083-.533 2.57h1.646c.9 0 1.54-.77 1.54-1.623 0-.64-.414-.947-1.184-.947h-1.469zm-.782 3.743-.557 2.678h1.777c1.043 0 1.6-.687 1.6-1.623 0-.675-.545-1.055-1.28-1.055h-1.54zm-.545-4.55c.06-.26.237-.426.521-.426h2.749c1.457 0 2.31.64 2.31 1.967 0 1.078-.71 2.026-1.718 2.429.628.26 1.066.853 1.066 1.67 0 1.611-1.137 2.82-3.056 2.82h-3.234c-.237 0-.368-.119-.368-.308 0-.036.012-.13.024-.178l1.706-7.973zm-9.095 8.46h-.698c-.214 0-.345-.095-.345-.25 0-.059.012-.118.036-.177 1.268-3.246 3.27-6.777 4.561-8.46h1.931c.427 1.636 1.066 4.965 1.114 8.46 0 .26-.142.427-.427.427h-.722c-.273 0-.45-.166-.45-.427-.024-2.666-.427-5.557-.794-7.191-1.244 1.848-2.678 4.667-3.66 7.19-.107.262-.285.428-.546.428z" fill="#123167"/><path d="M20.005 18.276c-.205-.113-.373-.014-.373.22v1.825c0 .235.168.333.373.22l1.672-.926c.206-.113.206-.3 0-.413l-1.672-.926z" fill="#123167"/></svg>