<svg width="36" height="36" fill="none" xmlns="http://www.w3.org/2000/svg"><path d="M18 0c2.837 0 5.52.656 7.907 1.825C31.884 4.753 36 10.895 36 18c0 9.942-8.058 18-18 18-9.94 0-18-8.057-18-18C0 8.06 8.06 0 18 0z" fill="#F2F4F7"/><path d="M9.361 24.014a.259.259 0 0 1-.043-.004l-.076-.014a8.653 8.653 0 0 1-3.107-1.217c-1.416-.95-2.134-2.258-2.134-3.889a3.866 3.866 0 0 1 1.323-2.982c.776-.714 1.792-1.213 2.688-1.653 1.282-.63 2.389-1.174 2.389-2.122 0-.638-.732-.956-1.168-1.088l-.049-.014c-.049-.014-.057-.022-.057-.025v-.002c.002-.003.009-.004.02-.004.014 0 .028.002.043.005l.076.014c1.104.2 2.16.613 3.106 1.216 1.416.95 2.134 2.258 2.134 3.889a3.866 3.866 0 0 1-1.324 2.982c-.775.714-1.79 1.213-2.687 1.653-1.282.63-2.389 1.174-2.389 2.122 0 .646.748.964 1.193 1.096l.024.007c.051.015.058.023.057.026-.002.003-.006.004-.019.004zm1.478-12.139a.516.516 0 0 1 .066.259 1.82 1.82 0 0 1-.693 1.394 7.38 7.38 0 0 1-1.616.996l-.614.302a9.97 9.97 0 0 0-2.314 1.447 3.353 3.353 0 0 0-1.163 2.617 3.918 3.918 0 0 0 1.366 3.056 2.223 2.223 0 0 1-.286-1.098c0-.37.11-.733.315-1.041a3.48 3.48 0 0 1 .83-.865 15.537 15.537 0 0 1 2.522-1.435 15.542 15.542 0 0 0 2.522-1.434c.77-.595 1.146-1.219 1.146-1.907 0-1.438-1.733-2.16-2.08-2.29zm18.771 8.808a3.272 3.272 0 0 1-1.264-.243 2.896 2.896 0 0 1-.983-.67 3.232 3.232 0 0 1-.863-2.263 3.294 3.294 0 0 1 .83-2.311 2.819 2.819 0 0 1 2.084-.864 2.362 2.362 0 0 1 1.936.895c.445.62.673 1.368.648 2.13a.341.341 0 0 1-.01.083.406.406 0 0 1-.406.3h-3.991a2.004 2.004 0 0 0 2.089 1.936 2.385 2.385 0 0 0 1.404-.48.337.337 0 0 1 .204-.072.368.368 0 0 1 .306.185l.012.02.104.18a.358.358 0 0 1-.116.526l-.044.032a3.4 3.4 0 0 1-1.94.616zm-.218-5.44a1.734 1.734 0 0 0-1.756 1.577l-.005.042h3.338a1.747 1.747 0 0 0-.38-1.061 1.482 1.482 0 0 0-1.197-.557zm-5.714 5.44a3.459 3.459 0 0 1-2.062-.658.348.348 0 0 1-.098-.52l.013-.02.122-.167a.372.372 0 0 1 .297-.173.48.48 0 0 1 .24.077l.089.056c.426.284.924.44 1.436.448.633 0 1.043-.315 1.043-.803 0-.512-.585-.727-1.262-.976-.892-.328-1.904-.7-1.904-1.864a1.553 1.553 0 0 1 .66-1.306 2.674 2.674 0 0 1 1.56-.443 3.17 3.17 0 0 1 1.697.467.34.34 0 0 1 .146.506l-.012.021-.11.18a.364.364 0 0 1-.309.198.478.478 0 0 1-.224-.065l-.05-.027a2.477 2.477 0 0 0-1.2-.32c-.636 0-1.03.293-1.03.766 0 .525.588.739 1.27.986.889.322 1.896.688 1.896 1.854 0 1.05-.908 1.783-2.208 1.783zm-5.064 0a3.456 3.456 0 0 1-2.062-.658.35.35 0 0 1-.098-.52l.013-.02.122-.167a.372.372 0 0 1 .297-.173.48.48 0 0 1 .24.077l.09.056c.425.284.923.44 1.435.448.633 0 1.043-.315 1.043-.803 0-.512-.585-.727-1.263-.976-.892-.328-1.903-.7-1.903-1.864a1.553 1.553 0 0 1 .66-1.306 2.674 2.674 0 0 1 1.56-.443 3.168 3.168 0 0 1 1.697.467.34.34 0 0 1 .146.506l-.012.021-.11.18a.364.364 0 0 1-.309.198.478.478 0 0 1-.224-.065l-.05-.027a2.475 2.475 0 0 0-1.2-.32c-.636 0-1.03.293-1.03.766 0 .525.588.739 1.27.986.889.322 1.896.688 1.896 1.854 0 1.05-.908 1.783-2.208 1.783z" fill="#123282"/></svg>