<svg width="36" height="36" fill="none" xmlns="http://www.w3.org/2000/svg"><path d="M18 0c2.837 0 5.52.656 7.907 1.825C31.884 4.753 36 10.895 36 18c0 9.942-8.058 18-18 18-9.94 0-18-8.057-18-18C0 8.06 8.06 0 18 0z" fill="#F2F4F7"/><path d="M16.895 25.114h6.622V11h-6.622v14.114z" fill="#0A85C7"/><path d="M14.488 18.862c-.979-.331-1.836-.563-1.836-1.137 0-.53.483-.828 1.187-.828.528 0 1.016.231 1.298.682h1.648c-.357-1.173-1.47-2.018-2.89-2.018-1.628 0-2.816 1.027-2.816 2.23 0 1.347 1.122 1.81 2.045 2.142 1.089.397 2.178.64 2.178 1.38 0 .497-.473.894-1.243.894-.701 0-1.245-.34-1.542-.81h-1.676c.444 1.336 1.538 2.2 3.108 2.2 1.76 0 2.948-.982 2.948-2.362 0-1.512-1.287-1.976-2.409-2.373z" fill="#0A85C7"/><path d="M8.647 18.862c-.979-.331-1.837-.563-1.837-1.137 0-.53.484-.828 1.188-.828.528 0 1.016.231 1.297.682h1.649c-.357-1.173-1.471-2.018-2.891-2.018-1.628 0-2.816 1.027-2.816 2.23 0 1.347 1.122 1.81 2.046 2.142 1.089.397 2.177.64 2.177 1.38 0 .497-.472.894-1.242.894-.702 0-1.245-.34-1.542-.81H5c.444 1.336 1.537 2.2 3.108 2.2 1.76 0 2.947-.982 2.947-2.362 0-1.512-1.286-1.976-2.408-2.373zm20.47 2.536a2.502 2.502 0 0 1-1.704.665c-1.375 0-2.398-.971-2.398-2.484 0-1.468.957-2.506 2.398-2.506a2.52 2.52 0 0 1 1.505.506h1.977a3.949 3.949 0 0 0-3.482-2.018c-2.211 0-3.992 1.69-3.992 4.018 0 2.33 1.781 4.019 3.992 4.019 1.591 0 2.937-.867 3.587-2.2" fill="#0A85C7"/><path d="M20.698 21.23c-.293.28-.615.449-.967.449-.498 0-.857-.316-.857-.757 0-.335.202-.648.666-.854l1.151 1.155.007.007zm-1.142-1.169h-.002.001zm.527-2.228c.344 0 .585.228.585.588 0 .383-.278.618-.805.81-.286-.317-.388-.508-.388-.773 0-.367.241-.625.608-.625zm1.998 2.229h-1.403l-.34-.347c.682-.257 1.129-.661 1.129-1.345 0-.706-.55-1.25-1.362-1.25-.916 0-1.473.603-1.473 1.301 0 .383.132.699.425 1.082-.703.301-1.091.779-1.091 1.448 0 .904.717 1.478 1.67 1.478.622 0 1.135-.258 1.575-.67l.007-.007.863.866" fill="#fff"/></svg>