<svg width="36" height="36" fill="none" xmlns="http://www.w3.org/2000/svg"><path d="M18 0c2.837 0 5.52.656 7.907 1.825C31.884 4.753 36 10.895 36 18c0 9.942-8.058 18-18 18-9.94 0-18-8.057-18-18C0 8.06 8.06 0 18 0z" fill="#F2F4F7"/><mask id="a" style="mask-type:alpha" maskUnits="userSpaceOnUse" x="7" y="4" width="22" height="28"><path d="M29 31.506H7V4h22v27.506z" fill="#fff"/></mask><g mask="url(#a)" fill-rule="evenodd" clip-rule="evenodd"><path d="M29 13.177 17.988 4 6.977 13.177l5.505 4.588-5.505 4.587 11.011 9.177L29 22.352l-5.506-4.587L29 13.177z" fill="#2490C3"/><path d="m17.988 22.352-5.505-4.588-5.506 4.588h11.011zm0-9.176 5.506 4.588L29 13.176H17.988z" fill="#173249"/><path d="M23.494 8.588 17.988 4v9.177H29l-5.506-4.59z" fill="#81CAE0"/></g><mask id="b" style="mask-type:alpha" maskUnits="userSpaceOnUse" x="7" y="4" width="22" height="28"><path d="M29 31.506H7V4h22v27.506z" fill="#fff"/></mask><g mask="url(#b)" fill-rule="evenodd" clip-rule="evenodd"><path d="M17.988 22.352v9.177L29 22.352H17.988z" fill="#3FABD1"/><path d="M17.988 22.352H6.977l11.011 9.177v-9.177z" fill="#53B6D8"/><path d="M17.988 13.176H6.977l11.011 9.176v-9.176z" fill="#3FABD1"/><path d="m23.494 17.764-5.506-4.588v9.176H29l-5.506-4.588z" fill="#2595C7"/><path d="M17.988 4 6.977 13.177h11.011V4z" fill="#53B6D8"/><path d="m20.19 14.093-.825-.917h-1.377H29l-8.81.917zm-2.202 8.259-1.223-1.02 1.223 1.02z" fill="#0E1820"/></g><mask id="c" style="mask-type:alpha" maskUnits="userSpaceOnUse" x="7" y="21" width="11" height="2"><path d="M7 21.332v1.02h10.988v-1.02H7z" fill="#fff"/></mask><g mask="url(#c)" fill-rule="evenodd" clip-rule="evenodd"><path d="m17.988 22.352-1.223-1.02 1.223 1.02z" fill="#225162"/><path d="M16.612 22.352H6.977l8.809-.917.826.917zm-.826-.917-3.304-3.67 4.283 3.568-.729.075-.25.026" fill="#0E1820"/><path d="M17.989 22.352h-1.377l-.826-.917.25-.025.73-.078 1.223 1.02z" fill="#0C1214"/></g></svg>