<svg width="36" height="36" fill="none" xmlns="http://www.w3.org/2000/svg"><path d="M18 0c2.837 0 5.52.656 7.907 1.825C31.884 4.753 36 10.895 36 18c0 9.942-8.058 18-18 18-9.94 0-18-8.057-18-18C0 8.06 8.06 0 18 0z" fill="#F2F4F7"/><path d="M6.03 13.346a.535.535 0 1 1 1.069-.001.535.535 0 0 1-1.07 0z" fill="#939598"/><path d="M9.7 10.536a.536.536 0 1 1 1.072 0 .536.536 0 0 1-1.072 0z" fill="#00AEEF"/><path d="M11.152 11.94a.536.536 0 1 1 1.071 0 .536.536 0 0 1-1.071 0z" fill="#6395BD"/><path d="M13.498 10.536a.535.535 0 1 1 1.069-.002.535.535 0 0 1-1.07.002z" fill="#5A8A5C"/><path d="M14.949 10.536a.535.535 0 1 1 1.07 0 .535.535 0 0 1-1.07 0z" fill="#007C97"/><path d="M14.949 11.94a.536.536 0 1 1 1.071 0 .536.536 0 0 1-1.071 0z" fill="#007D6F"/><path d="M13.498 13.346a.535.535 0 1 1 1.069-.002.535.535 0 0 1-1.07.002z" fill="#5A76BA"/><path d="M19.045 10.536a.535.535 0 1 1 1.07 0 .535.535 0 0 1-1.07 0z" fill="#ACD36A"/><path d="M17.593 11.94a.536.536 0 1 1 1.073.002.536.536 0 0 1-1.073-.001z" fill="#00AC5B"/><path d="M17.593 13.346a.536.536 0 1 1 1.072.001.536.536 0 0 1-1.072-.001z" fill="#5EBB46"/><path d="M26.292 10.536a.535.535 0 1 1 1.07-.001.535.535 0 0 1-1.07 0z" fill="#EC008C"/><path d="M24.84 11.94a.535.535 0 1 1 1.07 0 .535.535 0 0 1-1.07 0z" fill="#B455A0"/><path d="M26.292 11.94a.535.535 0 1 1 1.07 0 .535.535 0 0 1-1.07 0z" fill="#F78F41"/><path d="M24.84 13.346a.535.535 0 1 1 1.07-.002.535.535 0 0 1-1.07.002z" fill="#A1823A"/><path d="M28.92 10.536a.536.536 0 1 1 1.071 0 .536.536 0 0 1-1.072 0z" fill="#ED1C24"/><path d="M7.48 10.536a.536.536 0 1 1 1.072 0 .536.536 0 0 1-1.071 0z" fill="#D1D3D4"/><path d="M6.03 11.94a.535.535 0 1 1 1.07 0 .535.535 0 0 1-1.07 0z" fill="#636466"/><path d="M22.275 10.536a.536.536 0 1 1 1.072 0 .536.536 0 0 1-1.072 0z" fill="#B17129"/><path d="M8.944 17.568c-.034-.551-.442-.884-1.08-.884-.573 0-.905.306-.905.646 0 .503.516.652 1.155.816 1.069.272 1.742.51 1.742 1.482 0 .891-.707 1.53-1.898 1.53-1.224 0-1.91-.612-1.958-1.7h.788c.048.64.503 1 1.238 1 .599 0 .952-.34.952-.7 0-.15-.108-.374-.265-.517-.231-.211-.599-.273-1.074-.395-1.014-.265-1.497-.64-1.497-1.455 0-.769.66-1.38 1.816-1.38 1.068 0 1.755.605 1.762 1.557h-.776zm2.932.408c-.517 0-.817.326-.864.918h1.72c-.006-.592-.32-.918-.856-.918zm-.864 1.469c.013.673.347 1.04.912 1.04.407 0 .7-.218.795-.585h.755c-.136.741-.769 1.245-1.598 1.245-1.014 0-1.653-.708-1.653-1.918 0-1.19.632-1.897 1.673-1.897.993 0 1.632.673 1.632 1.85 0 .08-.006.17-.014.265h-2.502zm6.059 1.585h-.76v-2.353c0-.436-.232-.674-.654-.674-.565 0-.912.34-.912.945v2.081h-.761v-3.584h.734v.483a1.299 1.299 0 0 1 1.095-.571c1.007 0 1.258.483 1.258 1.394v2.278zm2.626-2.544c-.02-.354-.286-.544-.755-.544-.402 0-.605.17-.605.387 0 .259.21.368.598.456l.456.102c.762.177 1.149.4 1.149 1.06 0 .742-.557 1.198-1.55 1.198-.98 0-1.524-.47-1.524-1.279h.748c.034.442.312.653.843.653.462 0 .721-.197.721-.476 0-.258-.204-.347-.557-.435l-.538-.136c-.748-.184-1.115-.442-1.115-1.027 0-.666.517-1.115 1.401-1.115.912 0 1.47.462 1.47 1.156h-.742zm2.523.993c-.354.068-.524.244-.524.537 0 .326.21.517.585.517.544 0 .98-.34.98-.85v-.45c-.327.164-.688.177-1.041.246zm-.116 1.666c-.734 0-1.156-.408-1.156-1.06 0-.851.564-1.082 1.523-1.205.633-.082.796-.088.796-.422 0-.347-.238-.503-.735-.503-.468 0-.72.204-.72.565v.027h-.721v-.061c0-.7.544-1.156 1.469-1.156.952 0 1.442.36 1.442 1.06v1.775c0 .218.02.334.217.334.041 0 .095-.007.15-.014v.558c-.13.034-.258.055-.388.055-.462 0-.68-.177-.687-.545a1.48 1.48 0 0 1-1.19.592zm3.577-4.686v.986h.599v.565h-.599v2.108c0 .238.048.327.3.327.054 0 .102-.008.15-.008l.149-.006v.605c-.204.02-.381.04-.537.04-.633 0-.817-.258-.817-.863V18.01h-.51v-.565h.51v-.986h.755zm2.169 3.02c-.353.068-.523.244-.523.537 0 .326.211.517.585.517.544 0 .98-.34.98-.85v-.45c-.327.164-.688.177-1.041.246zm-.115 1.666c-.734 0-1.156-.408-1.156-1.06 0-.851.564-1.082 1.523-1.205.633-.082.796-.088.796-.422 0-.347-.238-.503-.734-.503-.47 0-.721.204-.721.565v.027h-.721v-.061c0-.7.544-1.156 1.469-1.156.952 0 1.442.36 1.442 1.06v1.775c0 .218.02.334.217.334.041 0 .096-.007.15-.014v.558c-.13.034-.259.055-.388.055-.462 0-.68-.177-.687-.545-.292.38-.72.592-1.19.592zM7.94 22.161v.357h-.752v2.088h-.404v-2.088h-.755v-.357h1.91zm.567.919c-.258 0-.408.162-.432.458h.86c-.003-.296-.159-.459-.428-.459zm-.432.734c.007.337.174.52.457.52.203 0 .35-.109.397-.293h.378c-.069.371-.385.623-.8.623-.506 0-.826-.354-.826-.96 0-.594.316-.948.837-.948.496 0 .816.337.816.925 0 .04-.004.085-.007.133H8.075zm2.71-.388c-.02-.214-.166-.344-.387-.344-.296 0-.449.211-.449.626 0 .405.156.62.439.62.227 0 .374-.134.407-.378h.364c-.03.442-.329.713-.808.713-.487 0-.796-.36-.796-.948 0-.602.316-.96.833-.96.452 0 .747.253.771.67h-.374zm.97-1.265v.884c.115-.177.306-.275.547-.275.395 0 .612.197.612.564 0 .028.004.082.004.16v1.112h-.381v-1.105c0-.276-.096-.405-.344-.405-.255 0-.438.17-.438.45v1.06h-.381v-2.445h.38zm3.06 2.445h-.38v-1.177c0-.217-.117-.336-.327-.336-.283 0-.456.17-.456.473v1.04h-.38v-1.792h.367v.241a.65.65 0 0 1 .547-.285c.504 0 .629.241.629.697v1.139zm.643-.895c0 .409.177.626.493.626.313 0 .49-.217.49-.626 0-.411-.177-.629-.49-.629-.316 0-.493.222-.493.63zm1.37 0c0 .599-.334.953-.877.953-.548 0-.881-.35-.881-.953 0-.601.33-.955.877-.955.547 0 .881.357.881.955zm.707.895h-.38V22.16h.38v2.445zm.711-.895c0 .409.177.626.493.626.313 0 .49-.217.49-.626 0-.411-.177-.629-.49-.629-.316 0-.493.222-.493.63zm1.37 0c0 .599-.333.953-.877.953-.548 0-.88-.35-.88-.953 0-.601.33-.955.877-.955.547 0 .88.357.88.955zm1.088.599c.313 0 .47-.2.47-.609 0-.404-.167-.615-.483-.615-.282 0-.459.22-.459.598 0 .412.173.626.472.626zm-.075.326c-.48 0-.785-.374-.785-.931 0-.578.31-.95.789-.95a.6.6 0 0 1 .537.283v-.224h.364v1.717c0 .554-.218.816-.85.816-.496 0-.772-.214-.775-.548h.39c.01.153.144.235.385.235.36 0 .483-.146.483-.455v-.208c-.116.174-.3.265-.538.265zm1.646-.03h-.38v-1.793h.38v1.793zm-.413-2.246c0-.117.1-.212.223-.212.122 0 .222.095.222.212 0 .117-.1.212-.222.212a.218.218 0 0 1-.223-.212zm1.563.72c-.259 0-.408.162-.432.458h.86c-.003-.296-.16-.459-.428-.459zm-.432.734c.007.337.173.52.455.52.205 0 .35-.109.398-.293h.378c-.068.371-.384.623-.8.623-.506 0-.825-.354-.825-.96 0-.594.316-.948.836-.948.496 0 .816.337.816.925 0 .04-.003.085-.007.133h-1.251zm2.553-.48c-.01-.177-.142-.272-.377-.272-.2 0-.302.085-.302.194 0 .13.105.183.299.228l.227.05c.381.09.575.201.575.531 0 .37-.278.598-.775.598-.49 0-.762-.234-.762-.639h.374c.017.221.156.327.422.327.23 0 .36-.099.36-.238 0-.13-.102-.174-.279-.218l-.268-.068c-.374-.092-.558-.22-.558-.513 0-.333.259-.558.7-.558.456 0 .735.231.735.578h-.37z" fill="#939598"/></svg>