<svg width="36" height="36" fill="none" xmlns="http://www.w3.org/2000/svg"><path d="M18 0c2.837 0 5.52.656 7.907 1.825C31.884 4.753 36 10.895 36 18c0 9.942-8.058 18-18 18-9.94 0-18-8.057-18-18C0 8.06 8.06 0 18 0z" fill="#F2F4F7"/><path fill-rule="evenodd" clip-rule="evenodd" d="M9.235 19.767c-.012 0-.368.011-.448 0a1.973 1.973 0 0 1-.39-.07 3.068 3.068 0 0 1-.471-.217 2.1 2.1 0 0 0-.792-.104h-1.01c-.269-.025-.54.01-.792.104-.15.085-.308.158-.471.218a1.993 1.993 0 0 1-.39.069h-.448v-.39c.011 0 .367 0 .448-.012.131-.006.262-.025.39-.057.163-.063.32-.14.47-.23.256-.085.525-.12.793-.103h1.01c.269-.026.54.01.792.103.15.09.308.167.471.23.128.032.259.05.39.057.08 0 .425.011.448.011v.39z" fill="#5287B7"/><path fill-rule="evenodd" clip-rule="evenodd" d="M6.617 19.72h1.01c.236.006.466.073.666.196.288.155.617.219.942.184v.39c-.368.011-.746-.023-1.022-.241a1.67 1.67 0 0 0-.677-.15H5.722a1.467 1.467 0 0 0-.677.15c-.286.23-.665.264-1.034.252v-.39c.325.024.65-.04.942-.184.2-.122.43-.19.665-.195l1-.011zm.586-1.492c.235 0 .467.055.677.16.367.265.884.219 1.366.23v.39c-.482 0-1.01.047-1.377-.24a1.564 1.564 0 0 0-.7-.15H6.1a1.564 1.564 0 0 0-.7.15c-.367.287-.896.241-1.378.241v-.39c.482-.012.987.034 1.366-.23a1.64 1.64 0 0 1 .677-.16h1.137zm-.586-.746c.39 0 .792-.011 1.102.172.243.155.528.231.815.219h.7v.39c-.275 0-.528.011-.792 0a1.409 1.409 0 0 1-.723-.218 1.632 1.632 0 0 0-.758-.16h-.689a1.693 1.693 0 0 0-.757.16 1.309 1.309 0 0 1-.723.218c-.264.011-.516 0-.792 0v-.39h.7c.287.01.571-.065.815-.219.321-.183.723-.172 1.102-.172zm0-.746h.207c.248-.003.493.056.712.172.247.155.535.23.827.218h.872v.39h-.988a1.461 1.461 0 0 1-.585-.137 1.152 1.152 0 0 0-.505-.207 2.723 2.723 0 0 0-.529-.034 2.66 2.66 0 0 0-.528.034 1.307 1.307 0 0 0-.505.207 1.984 1.984 0 0 1-.585.138h-.987v-.38h.872c.292.012.58-.064.828-.217.218-.116.463-.175.71-.173a.991.991 0 0 1 .184-.01v-.001zM6.641 16c.28-.012.557.064.792.218.239.128.51.188.78.173h1.022v.39H8.064a1.37 1.37 0 0 1-.609-.16 1.422 1.422 0 0 0-.838-.23 1.422 1.422 0 0 0-.838.23c-.19.095-.396.15-.608.16H4.01v-.39h1.023c.27.015.54-.045.78-.173.239-.142.513-.218.792-.218h.035z" fill="#5287B7"/><path d="M13.47 17.356c0-.065.005-.13.012-.195v-.471s-.286-.344-.93-.333a1.205 1.205 0 0 0-.988.47 1.087 1.087 0 0 0-.172.781c.057.402.31.643.689.884.39.253.666.322.918.586.264.252.207.723.023.941a.828.828 0 0 1-.46.276.923.923 0 0 1-.756-.184 1.863 1.863 0 0 1-.505-.78l-.023.768c.3.28.692.439 1.102.448a1.264 1.264 0 0 0 1.251-.964 1.09 1.09 0 0 0-.16-.838 1.691 1.691 0 0 0-.356-.333c-.333-.264-1.137-.585-1.252-.941a.674.674 0 0 1 .643-.896 1.017 1.017 0 0 1 .964.78m18.345.001c0-.065.004-.13.011-.195v-.471s-.286-.344-.93-.333a1.206 1.206 0 0 0-.988.47 1.086 1.086 0 0 0-.172.781c.058.402.31.643.689.884.39.253.666.322.918.586a.73.73 0 0 1 .023.941.827.827 0 0 1-.46.276.923.923 0 0 1-.756-.184 1.863 1.863 0 0 1-.505-.78l-.023.769c.3.279.692.438 1.102.447a1.253 1.253 0 0 0 1.251-.964 1.09 1.09 0 0 0-.16-.838 1.694 1.694 0 0 0-.356-.333c-.333-.264-1.137-.585-1.251-.941a.658.658 0 0 1 .631-.895 1.016 1.016 0 0 1 .838.481c.061.092.108.192.138.299m-17.093-.471s-.012-.103-.012-.184c0-.08.012-.275.012-.298h2.8s.012.253.012.322c0 .05-.008.1-.023.149a.457.457 0 0 0-.218-.195c-.057-.012-.321-.023-.54-.035-.137 0-.252-.011-.275-.011-.046 0-.092.011-.092.057l-.011 3.478c0 .035.034.276.172.333h-.884a.346.346 0 0 0 .172-.321V16.7c0-.022-.011-.046-.057-.046a7.096 7.096 0 0 0-.838.023.541.541 0 0 0-.218.207m6.382-.022c.012-.13.012-.26 0-.39-.011-.058-.046-.069-.069-.069h-2.284a.796.796 0 0 1 .172.195c.03.053.047.112.046.172 0 .023.012 1.275.012 1.504 0 .23 0 1.768-.023 1.986-.012.115-.195.253-.195.253h2.479c.081-.197.12-.408.115-.62a.683.683 0 0 1-.482.344 5.552 5.552 0 0 1-1.297-.023s-.07 0-.07-.057c0-.39 0-1.229-.01-1.642 0-.057 0-.115.057-.115.344-.018.69-.018 1.034 0 .068 0 .126.069.183.138.02-.18.02-.36 0-.54 0 0-.08.115-.16.127-.264.023-1.034.011-1.056.011-.023 0-.046-.023-.058-.069v-1.32c0-.023.012-.08.069-.08.046 0 .872-.012 1.228.023.12.02.229.081.31.172m1.572 3.651s.16-.104.16-.218l-.01-3.662c0-.035 0-.138-.196-.23h1.343c.07 0 1.229.035 1.24 1.01a1.09 1.09 0 0 1-.815 1.022s-.023.012-.023.023a.114.114 0 0 0 .011.035c.112.09.212.195.299.31.16.206.941 1.412.976 1.446a.723.723 0 0 0 .344.241c-.19.017-.383.017-.574 0a.499.499 0 0 1-.39-.252c-.127-.173-.804-1.286-.976-1.504a.368.368 0 0 0-.298-.138h-.356a.082.082 0 0 0-.078.058.082.082 0 0 0-.003.034l.012 1.595a.324.324 0 0 0 .172.218h-.838v.012zm.666-2.227c0 .023.011.092.046.103.203.014.407.006.608-.023a.93.93 0 0 0 .712-.975c-.011-.264-.115-.69-.723-.77a2.443 2.443 0 0 0-.574-.01c-.07 0-.08.045-.08.102.01.035.01 1.573.01 1.573m4.558 2.227a.419.419 0 0 1-.16-.196c0-.034-.012-3.512 0-3.673a.33.33 0 0 1 .137-.24h-.78a.294.294 0 0 1 .137.229c.012.16 0 3.626 0 3.673a.356.356 0 0 1-.149.207h.815z" fill="#333"/></svg>