<svg width="36" height="36" fill="none" xmlns="http://www.w3.org/2000/svg"><path d="M18 0c2.837 0 5.52.656 7.907 1.825C31.884 4.753 36 10.895 36 18c0 9.942-8.058 18-18 18-9.94 0-18-8.057-18-18C0 8.06 8.06 0 18 0z" fill="#F2F4F7"/><path d="m11.846 18.088-.03.141c-.024.114-.008.215.14.215a.223.223 0 0 0 .199-.199c.035-.168-.09-.23-.196-.305a.986.986 0 0 1-.296-.26.507.507 0 0 1-.05-.398c.079-.374.345-.565.706-.565.406 0 .555.27.454.644h-.429c.02-.117.059-.276-.093-.286a.176.176 0 0 0-.19.133.198.198 0 0 0 .088.244c.152.111.289.18.376.281.088.101.123.233.072.475-.085.382-.337.595-.726.595-.427 0-.557-.24-.501-.506l.04-.209h.433m.943-.515.065-.304h.168l.09-.421h.421l-.09.42h.202l-.065.305h-.201l-.169.783c-.018.084.015.103.07.103a.523.523 0 0 1 .112-.006l-.063.297a1.924 1.924 0 0 1-.276.023c-.228 0-.327-.117-.28-.341l.183-.86h-.169m1.876.508.09-.421c.068-.32-.181-.432-.477-.43-.326 0-.594.128-.673.506l-.13.604c-.072.337.17.464.47.462.368-.005.612-.18.674-.563h-.42c-.035.125-.05.265-.204.258-.091-.005-.114-.074-.097-.157l.056-.26h.713l-.002.001zm-.652-.28.021-.098c.022-.104.072-.199.191-.199a.115.115 0 0 1 .111.15l-.03.147h-.293zm1.925.28.09-.421c.068-.32-.181-.432-.477-.43-.326 0-.594.128-.673.506l-.13.604c-.072.337.17.464.47.462.368-.005.612-.18.674-.563h-.42c-.035.125-.05.265-.204.258-.091-.005-.114-.074-.096-.157l.055-.26h.713l-.002.001zm-.652-.28.021-.098c.022-.104.072-.199.191-.199a.115.115 0 0 1 .111.15l-.03.147h-.292zm.652.954.423-1.989h.421l-.422 1.989h-.422zm1.78 0a.85.85 0 0 0 .434-.093.61.61 0 0 0 .29-.429l.188-.883c.04-.192.053-.385-.105-.491-.133-.084-.337-.093-.506-.093h-.505l-.42 1.99h.628l-.004-.001zm.181-1.631c.227.005.301.018.253.253l-.138.65c-.05.265-.079.392-.387.371l.272-1.274zm1.132 1.107h.005l.35-.96h.413l-.537 1.267c-.192.403-.252.715-.717.715-.074 0-.122-.013-.168-.013l.066-.313a.8.8 0 0 1 .08.01.132.132 0 0 0 .143-.073c.01-.084.012-.169.006-.253l-.008-1.347h.42l-.06.96m1.275-.954-.042.186h.005a.45.45 0 0 1 .342-.228c.2 0 .354.108.311.31l-.258 1.218h-.421l.227-1.06c.01-.07-.005-.127-.084-.122a.14.14 0 0 0-.142.122l-.225 1.06h-.421l.315-1.485h.393m1.278 1.484h.41a.472.472 0 0 1 0-.169l.195-.909c.069-.326-.055-.454-.472-.454-.337 0-.619.14-.68.512h.422c.034-.125.057-.23.21-.23.084 0 .117.071.1.153-.034.16-.221.178-.417.239a.614.614 0 0 0-.476.505c-.05.236.064.398.302.398.168 0 .271-.064.402-.18v.132l.004.003zm.055-.491c-.023.095-.078.226-.202.226a.118.118 0 0 1-.13-.1c-.003-.02 0-.04.007-.06a.278.278 0 0 1 .139-.19c.079-.04.16-.076.242-.108l-.056.232zm1.131-.995-.037.169h.005a.515.515 0 0 1 .36-.215.246.246 0 0 1 .272.196h.01a.455.455 0 0 1 .349-.196c.198 0 .353.109.31.31l-.258 1.218h-.421l.221-1.056c.01-.069-.005-.127-.084-.122a.139.139 0 0 0-.141.122l-.23 1.06h-.42l.228-1.06c0-.064 0-.122-.075-.122a.143.143 0 0 0-.153.122l-.226 1.061h-.421l.316-1.485h.392m1.508-.147.076-.358h.421l-.076.358h-.42zm-.347 1.631.316-1.485h.421l-.316 1.485h-.42zm1.484-.934v-.026c0-.056.018-.114.02-.168a.086.086 0 0 0-.025-.07.085.085 0 0 0-.07-.023c-.109 0-.146.084-.168.18l-.131.613c-.02.093-.01.169.099.169.156 0 .179-.234.203-.345h.408c-.025.121-.062.24-.11.353a.551.551 0 0 1-.46.289c-.04 0-.078.008-.142.008-.302 0-.497-.122-.42-.461l.128-.605c.084-.382.305-.505.63-.505.416.005.542.186.432.595h-.398m1.214-.115c.012-.101.039-.204-.096-.204a.154.154 0 0 0-.168.125.14.14 0 0 0 .098.149c.247.124.526.196.451.549-.07.331-.352.472-.662.472-.337 0-.538-.143-.446-.505h.404c-.027.103-.024.223.103.223a.168.168 0 0 0 .181-.14.117.117 0 0 0-.03-.114c-.152-.09-.374-.154-.474-.305a.346.346 0 0 1-.047-.279c.068-.32.352-.459.646-.459.308 0 .523.154.437.483h-.395m.283 1.312c.07 0 .137-.026.189-.074a.382.382 0 0 0 .109-.188h-.242l.096-.454h.446l-.097.456c-.059.276-.272.393-.535.411l.032-.152m1.098-.261.423-1.989h.466l-.422 1.989h-.467zm1.334-1.486-.04.186h.005a.45.45 0 0 1 .343-.228c.199 0 .354.108.31.31l-.26 1.218h-.421l.227-1.06c.01-.068-.005-.127-.084-.121a.14.14 0 0 0-.143.122l-.226 1.06h-.421l.316-1.485h.392m1.394.55v-.026c0-.056.019-.114.02-.168a.086.086 0 0 0-.025-.07.085.085 0 0 0-.07-.023c-.108 0-.145.084-.168.18l-.13.613c-.02.093-.01.169.098.169.157 0 .18-.234.203-.345h.408c-.025.121-.061.24-.11.353a.551.551 0 0 1-.459.289c-.04 0-.078.008-.142.008-.302 0-.497-.122-.421-.461l.129-.605c.084-.382.305-.505.63-.505.416.005.542.186.43.595h-.398m.485.93.096-.454h.45l-.098.454h-.448zm-26.092-.301.107.104c.084.084.189.134.291.029.076-.077.034-.184-.043-.259-.126-.127-.27-.073-.41-.043a1.333 1.333 0 0 1-.443.056.647.647 0 0 1-.395-.201c-.284-.276-.273-.58-.023-.834.281-.286.63-.23.9.062l-.299.303c-.093-.084-.21-.205-.324-.104a.139.139 0 0 0-.011.213c.084.099.168.1.283.084.205-.04.363-.096.514-.097.152-.002.297.052.48.231.29.287.304.591.037.864-.296.302-.603.253-.802.056l-.162-.158.3-.306zm1.542-.56a.694.694 0 0 0 .216-.361c.03-.158-.04-.31-.188-.46L6 16.413c-.145-.143-.312-.266-.518-.218-.168.04-.317.181-.434.301l-.348.355 1.51 1.482.435-.443v.002zM5.299 16.79c.162-.156.225-.201.404-.03l.493.485c.207.192.302.289.07.493l-.967-.948zm1.87.572-1.51-1.482.323-.33 1.51 1.482-.323.33z" fill="#231F20"/><path d="M6.335 15h1.812l2.79 2.755-2.777 2.862H6.335l2.79-2.815L6.336 15z" fill="#BF2F38"/><path d="M31.69 17.348c.04 0 .06-.007.06-.053 0-.047-.043-.042-.078-.042h-.089v.096h.107v-.001zm-.107.21H31.5v-.369h.204a.105.105 0 0 1 .116.066.103.103 0 0 1 .007.047.09.09 0 0 1-.061.094.09.09 0 0 1-.04.004l.089.155h-.093l-.084-.147h-.063v.147l.01.003zm-.178-.185a.241.241 0 0 0 .252.257.246.246 0 0 0 .257-.26.255.255 0 1 0-.51.001v.002zm-.085 0a.34.34 0 0 1 .68 0 .326.326 0 0 1-.207.313.33.33 0 0 1-.13.024.324.324 0 0 1-.344-.339l.001.002z" fill="#231F20"/></svg>