<svg height="36" viewBox="0 0 36 36" width="36" xmlns="http://www.w3.org/2000/svg"><mask id="a" fill="#fff"><path d="M0 8.266V0h28v8.266" fill-rule="evenodd"/></mask><mask id="b" fill="#fff"><path d="M0 8.266V0h28v8.266" fill-rule="evenodd"/></mask><g fill="none"><path d="M18 0c2.837 0 5.52.656 7.907 1.825C31.884 4.753 36 10.895 36 18c0 9.942-8.058 18-18 18-9.94 0-18-8.057-18-18C0 8.06 8.06 0 18 0z" fill="#f2f4f7"/><g fill="#009e4d"><path d="M7.185 15.62c-.64-.284-1.022-.394-1.401-.394-.398 0-.653.143-.653.363 0 .664 2.254.477 2.254 2.014 0 .847-.71 1.34-1.699 1.34-.775 0-1.156-.2-1.596-.428v-.95c.634.42 1.022.568 1.511.568.424 0 .653-.148.653-.407 0-.723-2.254-.458-2.254-2.04 0-.764.66-1.27 1.686-1.27.496 0 .943.105 1.499.344zm3.155 3.12c-.375.137-.693.202-1.01.202-1.05 0-1.728-.611-1.728-1.542 0-.913.705-1.558 1.69-1.558.303 0 .692.078 1.003.194v.699a1.713 1.713 0 0 0-.764-.202c-.564 0-.926.338-.926.86 0 .53.356.88.893.88.227 0 .428-.053.843-.208zm8.185-1.682c.038-.415.28-.655.648-.655.363 0 .609.247.648.655zm.583-1.215c-.92 0-1.576.65-1.576 1.566 0 .922.682 1.533 1.732 1.533.233 0 .796 0 1.333-.397v-.584c-.44.313-.73.421-1.105.421-.592 0-.955-.306-.987-.829h2.144c.045-1.091-.672-1.71-1.54-1.71m1.903 3.045h.938v-2.99h-.938zm3.548-.818c-.196.176-.358.247-.558.247-.442 0-.721-.364-.721-.908 0-.597.28-.941.752-.941.169 0 .39.078.527.175zm0-3.598v1.557a1.75 1.75 0 0 0-.78-.187c-.854 0-1.446.632-1.446 1.547 0 .895.592 1.554 1.394 1.554.318 0 .564-.084.832-.297v.24h.937v-4.414zm2.325 2.586c.04-.415.28-.655.648-.655.363 0 .611.247.65.655zm.584-1.215c-.921 0-1.576.65-1.576 1.566 0 .922.682 1.533 1.732 1.533.232 0 .796 0 1.334-.397v-.584c-.44.313-.731.421-1.108.421-.589 0-.952-.306-.985-.829h2.144c.044-1.091-.673-1.71-1.541-1.71"/><g mask="url(#a)" transform="matrix(1 0 0 -1 4 22.683)"><path d="M26.414 5.928h.013c.279.622.59.914.952.914.187 0 .349-.071.621-.272l-.258-.83c-.246.156-.408.221-.557.221-.344 0-.564-.324-.771-.873v-1.29h-.94v2.99h.94zm-8.42 2.114c.088-.232-.07-.556-.353-.723-.284-.167-.583-.114-.67.118-.09.233.068.557.351.723.283.168.583.115.672-.118"/></g><path d="M13.718 16.985c0-.81-.55-1.142-1.094-1.142-.37 0-.673.156-.944.5h-.013v-1.871h-.94v4.407h.94v-1.894c.22-.318.407-.454.627-.454.292 0 .486.208.486.655v1.05c.315-.162.635-.261.938-.298zm2.355-1.143c-.383 0-.675.142-.973.484v-.428h-.939v2.032c.325.032.74.181.939.428v-1.396c.246-.37.421-.494.655-.494.266 0 .468.175.468.597v1.815h.938v-1.893c0-.88-.622-1.145-1.088-1.145m1.607 3.896h-1.091v.775h1.052v.333h-1.052v.799h1.123v.332h-1.489v-2.57h1.456zm.89 2.241h.334v-2.573h-.334zm1.988-1.441c.237 0 .383.163.394.419h-.85c.046-.268.2-.42.456-.42zm-.462.642h1.19c0-.627-.287-.93-.736-.93-.465 0-.789.344-.789.858 0 .469.292.902.818.902.287 0 .472-.063.677-.2v-.325c-.198.13-.39.205-.593.205-.323 0-.515-.174-.567-.51m3.371-.453c-.192-.131-.32-.17-.467-.17-.306 0-.517.235-.517.578 0 .35.225.561.573.561.143 0 .28-.037.448-.112v.329a1.37 1.37 0 0 1-.504.097c-.506 0-.857-.348-.857-.845 0-.56.321-.915.834-.915.196 0 .328.046.49.117zm1.522-.445h.536v.301h-.536v.87c0 .2.144.257.241.257a.723.723 0 0 0 .381-.126v.314a.996.996 0 0 1-.408.112c-.363 0-.547-.226-.547-.531v-.896h-.295v-.037l.628-.614zm1.813 0v.393h.007c.17-.3.332-.425.49-.425.136 0 .263.064.403.196l-.177.295c-.102-.1-.233-.17-.312-.17-.23 0-.41.233-.41.523v.885h-.335v-1.697zm4.323.445c-.193-.131-.321-.17-.468-.17-.305 0-.516.235-.516.578 0 .35.226.561.572.561.143 0 .28-.037.45-.112v.329c-.115.053-.33.097-.506.097-.505 0-.858-.348-.858-.845 0-.56.322-.915.835-.915.197 0 .327.046.49.117zm-2.537 1.252h.334v-1.697h-.334z"/><g mask="url(#b)" transform="matrix(1 0 0 -1 4 22.683)"><path d="M24.933 3.01c.032-.082-.025-.198-.125-.257-.101-.06-.208-.04-.239.042-.03.083.025.197.127.256.1.06.206.041.237-.042M9.982 2.872c-.059 0-.084-.01-.108-.036-.01-.01-.013-.021-.017-.043l-.299-1.135C9.488 1.259 8.998.86 8.36.86h-.886l.153.584h.57a.18.18 0 0 1 .142.064.136.136 0 0 1 .035.069l.236.992c.07.399.49.84 1.129.84h.908l-.116-.538zm.205-.692.1.368h.924c.113.532.024 1.026-.3 1.35-.654.654-2.024.432-3.044-.544a3.552 3.552 0 0 1-.416-.483h.555l-.129-.369h-.663a3.02 3.02 0 0 1-.169-.348h.787l-.126-.368h-.773C6.8 1.223 6.885.699 7.217.366c.647-.647 2.012-.42 3.032.556.178.17.326.353.459.541h-.714l.109.368h.834c.061.117.118.232.162.349z"/></g></g></g></svg>