<svg width="36" height="36" fill="none" xmlns="http://www.w3.org/2000/svg"><path d="M18 0c2.837 0 5.52.656 7.907 1.825C31.884 4.753 36 10.895 36 18c0 9.942-8.058 18-18 18-9.94 0-18-8.057-18-18C0 8.06 8.06 0 18 0z" fill="#F2F4F7"/><path d="M31 23.985H5V13h26v10.985z" fill="#fff"/><path d="M5.457 13.52h25.087v4.774H5.457V13.52z" fill="#23346A"/><path d="M5.457 18.75h25.087v4.775H5.457V18.75z" fill="#009340"/><path d="M10.014 17.064h-.849c-.435 0-.88-.072-.88-.612v-.208h.369v.202c0 .18.075.285.457.285h.948c.452 0 .532-.099.532-.376 0-.24-.062-.314-.45-.314h-.58c-.93 0-1.281-.06-1.281-.697 0-.562.358-.672.978-.672h.658c.722 0 .99.173.99.638v.12h-.369l-.001-.041c-.005-.317-.007-.383-.803-.383h-.324c-.604 0-.757.035-.757.36 0 .23.045.317.52.317h.904c.614 0 .887.184.887.597v.147c0 .637-.594.637-.95.637m4.043-.024h-2.314v-2.343h2.302v.334h-1.912v.636h1.837v.334h-1.837v.705h1.925v.333zm2.316 0h-.424l-.012-.022-1.251-2.258-.035-.063h.44l.012.022 1.058 1.917 1.058-1.917.012-.022h.439l-.034.063-1.251 2.258-.012.021zm4.278 0h-2.315v-2.343h2.302v.334h-1.912v.636h1.837v.334h-1.837v.705h1.924v.334zm3.349 0h-.372v-.538c0-.305-.12-.354-.407-.354h-1.448v.892h-.39v-2.343h1.848c.673 0 .797.23.797.682v.184c0 .278-.137.39-.286.437.177.074.258.208.258.42v.62zm-2.227-1.226h1.424c.367 0 .44-.11.44-.285v-.206c0-.199-.05-.292-.515-.292h-1.35v.783zm5.948 1.226h-.515l-.012-.012-1.997-1.915v1.927h-.388v-2.343h.514l.012.012 1.997 1.915v-1.927h.389v2.343zm-16.218 5.23h-.39v-2.008H9.97v-.334h2.673v.334h-1.141v2.008zm4.437 0h-.371v-.537c0-.305-.12-.355-.407-.355h-1.449v.892h-.39v-2.342h1.848c.674 0 .797.23.797.682v.184c0 .278-.136.39-.286.438.177.073.258.207.258.42v.618zm-2.227-1.225h1.424c.368 0 .442-.11.442-.286v-.206c0-.198-.052-.291-.517-.291h-1.349v.783zm5.358 1.225h-2.314v-2.342h2.302v.334h-1.913v.636h1.838v.334h-1.837v.704h1.924v.334zm3.646 0h-.514l-.013-.011-1.996-1.916v1.927h-.39v-2.342h.514l.012.012 1.997 1.915v-1.927h.39v2.342zm2.214 0h-.39v-2.008h-1.142v-.334h2.672v.334h-1.141v2.008z" fill="#fff"/></svg>