<svg height="36" viewBox="0 0 36 36" width="36" xmlns="http://www.w3.org/2000/svg"><mask id="a" fill="#fff"><path d="M.22.21h.56v.58H.22z" fill-rule="evenodd"/></mask><mask id="b" fill="#fff"><path d="M0 0h5.659v1.73H0z" fill-rule="evenodd"/></mask><g fill="none" fill-rule="evenodd"><path d="M18 0c2.837 0 5.52.656 7.907 1.825C31.884 4.753 36 10.895 36 18c0 9.942-8.058 18-18 18-9.94 0-18-8.057-18-18C0 8.06 8.06 0 18 0z" fill="#f2f4f7" fill-rule="nonzero"/><g fill="#235773"><path d="M.496.368H.46V.47h.023c.052 0 .07-.03.07-.057C.551.382.536.368.495.368zM.554.65.464.506H.458V.65H.402V.322h.1c.078 0 .11.033.11.083C.611.46.576.495.523.5a.76.76 0 0 1 .033.047L.625.65zM.267.486c0 .127.104.237.232.237A.23.23 0 0 0 .73.491.235.235 0 0 0 .5.253a.233.233 0 0 0-.233.233zM.78.488C.78.64.651.768.5.768a.275.275 0 0 1-.28-.28A.28.28 0 0 1 .5.21c.156 0 .28.12.28.28z" mask="url(#a)" transform="translate(31.22 19.627)"/><path d="M24.708 19.37h.102v.07c0 .307-.217.659-.552.659-.262 0-.389-.164-.389-.332 0-.38.54-.397.839-.397zm-12.221-.777c.397 0 .589.368.589.737 0 .527-.29.744-.597.744-.344 0-.585-.29-.585-.74 0-.471.27-.741.593-.741zm-2.209-.03c.258 0 .482.185.494.529H9.668c.061-.344.307-.528.61-.528zm3.62-.265v.34h.111c.057 0 .09.028.09.09v1.379c0 .184.078.262.262.262h.332v-.34h-.11c-.058 0-.091-.028-.091-.09v-1.38c0-.183-.077-.261-.262-.261zm-7.677 0v.34h.042c.056 0 .085.016.102.082l.47 1.649h.404l.353-1.28.05-.19h.007l.049.19.357 1.28h.4l.47-1.65c.018-.065.039-.081.095-.081h.05v-.34h-.198c-.159 0-.223.045-.268.22l-.315 1.233c-.029.106-.043.22-.043.22h-.007s-.017-.114-.046-.22l-.389-1.444H7.49l-.386 1.444c-.028.106-.049.22-.049.22h-.007s-.014-.114-.043-.22l-.318-1.232c-.046-.176-.106-.221-.265-.221zm21.758-.05c-.667 0-1.113.476-1.113 1.086 0 .622.454 1.084 1.105 1.084.548 0 .843-.356.843-.356l-.172-.283s-.254.287-.642.287c-.385 0-.729-.266-.729-.736 0-.44.303-.741.708-.741.151 0 .385.065.385.213v.107h.36v-.206c0-.352-.495-.454-.745-.454zm-3.627 0c-.201 0-.716.057-.716.397v.183h.372v-.104c0-.135.242-.16.34-.16.323 0 .458.13.458.495v.02h-.09c-.348 0-1.248.042-1.248.709 0 .413.347.63.704.63.495 0 .659-.41.659-.41h.008s-.008.054-.008.124c0 .147.073.237.257.237h.316v-.34h-.111c-.057 0-.09-.028-.09-.09v-.88c0-.458-.18-.81-.851-.81zm-8.558 0c-.421 0-.769.185-.769.582 0 .667 1.129.626 1.129.999 0 .18-.167.266-.36.266-.38 0-.626-.307-.626-.307l-.205.266s.275.364.827.364c.434 0 .762-.237.762-.606 0-.691-1.13-.605-1.13-.998 0-.164.151-.246.385-.246.127 0 .311.053.311.176v.103h.356v-.197c0-.315-.43-.401-.68-.401zm-5.512 0c-.589 0-1.039.427-1.039 1.086 0 .613.446 1.084 1.101 1.084.49 0 .798-.303.798-.303l-.173-.282s-.249.24-.605.24c-.368 0-.687-.248-.712-.69h1.51s.012-.111.012-.164c0-.536-.311-.97-.892-.97zm15.53-.762v.74h-.278v.32h.27v1.066c0 .692.528.774.789.774.086 0 .139-.01.139-.01v-.351s-.036.008-.093.008c-.152 0-.438-.053-.438-.466v-1.021h.495v-.32h-.495v-.74zM5.15 17.322c-.585 0-1.005.254-1.012.813-.011.924 1.544.723 1.544 1.408 0 .298-.285.468-.557.473-.645.01-.875-.422-.875-.422l-.25.304s.277.52 1.117.52c.577 0 .974-.403.974-.898 0-1.063-1.547-.744-1.532-1.4.006-.294.21-.412.591-.41.231 0 .442.099.442.269v.098h.38v-.213c-.008-.396-.513-.542-.822-.542zm23.801-.042v.34h.111c.057 0 .089.028.089.089v2.66h.397v-.97c0-.098.009-.192.037-.274a.682.682 0 0 1 .655-.512c.331 0 .393.23.393.52v.974c0 .184.077.262.262.262h.332v-.34h-.111c-.057 0-.09-.028-.09-.09v-.896c0-.528-.221-.794-.708-.794a.843.843 0 0 0-.77.463h-.008s.008-.074.008-.173v-1.005c0-.177-.077-.254-.262-.254zm-14.844.413h.356v-.414h-.356zm6.476-.418-.178 2.627c-.004.06-.03.095-.081.095h-.112v.369h.315c.17 0 .229-.081.24-.274l.104-1.603c.011-.181.007-.466.007-.466h.007s.078.306.14.466l.529 1.332h.31l.529-1.332a5.07 5.07 0 0 0 .136-.462h.008s-.004.28.007.462l.107 1.603c.011.193.07.274.237.274h.321v-.37h-.115c-.052 0-.077-.033-.081-.094l-.177-2.627h-.381l-.613 1.665c-.063.163-.129.382-.129.382h-.008s-.066-.22-.129-.382l-.613-1.665zm-3.844-.002v.339h.11c.057 0 .09.029.09.09v2.667h.397v-.97c0-.098.009-.192.037-.274a.682.682 0 0 1 .655-.512c.331 0 .393.23.393.52v.974c0 .184.078.262.262.262h.331v-.34h-.11c-.058 0-.091-.028-.091-.09v-.896c0-.528-.22-.794-.707-.794a.843.843 0 0 0-.77.463h-.008s.008-.074.008-.173v-1.013c0-.176-.077-.253-.262-.253zm-3.876 0v.339h.111c.057 0 .09.029.09.09v.727c0 .078.008.139.008.139h-.008s-.16-.32-.639-.32c-.548 0-.937.427-.937 1.086 0 .642.352 1.084.913 1.084.507 0 .679-.376.679-.376h.008s-.004.045-.004.106c0 .139.074.22.254.22h.324v-.34h-.111c-.057 0-.09-.027-.09-.09v-2.403c0-.185-.078-.262-.262-.262z"/><path d="m3.852.682.869.274-.368.116zm-1.892 0 .868.274-.367.116-.502-.39zm-1.891 0 .868.274-.367.116zM4.721.069v.887l.227-.303.642.029-.869.274.367.116.17.602-.537-.718v.375l-.537.343.537-.718-.227-.303zm-1.892 0v.887l.227-.304.642.03-.869.273.367.117.17.602-.537-.718v.375l-.538.343.538-.718-.227-.303zm-1.891 0 .226.583.643.03-.87.273.368.117.17.602L.937.956v.375L.4 1.674.937.956.71.653.937.07v.886l.227-.304L.937.069zm3.783-.07-.245.63-.692.032.541.42-.183.649.579-.37.579.37-.182-.65.541-.42-.693-.03zm-1.892 0-.245.63-.692.032.541.42-.183.649.579-.37.58.37-.184-.65.542-.42-.693-.03zm-1.891 0-.245.63L0 .66l.541.42-.183.649.58-.37.579.37-.183-.65.541-.42L1.183.63z" mask="url(#b)" transform="translate(6.562 16)"/></g></g></svg>