<svg height="36" viewBox="0 0 36 36" width="36" xmlns="http://www.w3.org/2000/svg"><mask id="a" fill="#fff"><path d="M0 0h28v8.019H0z" fill-rule="evenodd"/></mask><g fill="none" fill-rule="evenodd"><path d="M18 0c2.837 0 5.52.656 7.907 1.825C31.884 4.753 36 10.895 36 18c0 9.942-8.058 18-18 18-9.94 0-18-8.057-18-18C0 8.06 8.06 0 18 0z" fill="#f2f4f7" fill-rule="nonzero"/><path d="M20.592 15.52v.726h.62v2.361c0 .82.427 1.287 1.171 1.287.491 0 .897-.162 1.243-.376V18.8c-.354.235-.827.406-1.057.406-.21 0-.452-.068-.452-.598V15.52z" fill="#cf0e3e"/><path d="M21.209 1.799V1.52h-.895v4.278h.905V2.582c.297-.335.693-.455 1.35-.356v-.778c-.537-.043-.985.067-1.36.351zm3.658.85c0 1.584 2.21 1.212 2.21 2.048 0 .402-.343.52-.818.52-.756 0-1.486-.397-1.486-.397v.808c.492.21 1.03.281 1.462.281 1.169 0 1.765-.532 1.765-1.315 0-1.26-1.536-1.254-2.062-1.689-.255-.209-.217-.57.1-.701.36-.149.806-.147 1.67.114v-.697a3.785 3.785 0 0 0-1.135-.202c-1.04 0-1.706.46-1.706 1.23zm-24.773 0c0 1.584 2.225 1.212 2.225 2.048 0 .402-.358.536-.833.536C.73 5.233 0 4.836 0 4.836v.805c.49.213 1.03.283 1.46.283 1.17 0 1.782-.547 1.782-1.33 0-1.26-1.551-1.254-2.077-1.689-.255-.209-.218-.602.1-.732.36-.148.82-.146 1.685.114V1.59a3.817 3.817 0 0 0-1.135-.201c-1.04 0-1.721.49-1.721 1.26zm23.129 3.147h.868V1.52h-.868zM18.118 1.52h1.537V.799h-.76V.001L18.118 0zm-5.454 2.168c0 1.007.586 2.206 2.078 2.206.55 0 .974-.121 1.422-.34v-.728c-.436.234-.816.366-1.19.366-.861 0-1.356-.656-1.356-1.504 0-.917.533-1.577 1.408-1.577.423 0 .94.221.94.221v-.719s-.482-.191-1.018-.191c-1.068 0-2.284.634-2.284 2.266zM10.17 2.111c.584 0 .972.366 1.029 1.109h-2.02c.018-.418.317-1.109.992-1.109zM8.908 5.389c.375.361.849.504 1.492.504.83 0 1.466-.411 1.466-.411v-.675s-.71.399-1.273.399c-.372 0-.683-.076-.926-.29zm-.672-1.75c0 .704.245 1.342.672 1.75.375.361.849.504 1.492.504.83 0 1.466-.411 1.466-.411v-.675s-.71.399-1.273.399c-.372 0-.683-.076-.926-.29-.268-.236-.44-.588-.48-1.015h2.948v-.272c0-1.341-.778-2.207-1.934-2.207-1.33 0-1.965 1.149-1.965 2.217zM5.344 2.131c.883 0 1.41.567 1.41 1.517 0 .914-.504 1.528-1.254 1.528a2 2 0 0 1-.746-.156V2.216c.222-.067.44-.085.59-.085zM3.85 8.019h.903V5.76c.22.069.576.134.824.134 1.254 0 2.129-.923 2.129-2.246 0-1.641-1.201-2.226-2.325-2.226-.831 0-1.531.315-1.531.315z" fill="#72217b" mask="url(#a)" transform="translate(4 14)"/></g></svg>