<svg height="36" viewBox="0 0 36 36" width="36" xmlns="http://www.w3.org/2000/svg"><g fill="none" fill-rule="evenodd"><path d="M18 0c2.837 0 5.52.656 7.907 1.825C31.884 4.753 36 10.895 36 18c0 9.942-8.058 18-18 18-9.94 0-18-8.057-18-18C0 8.06 8.06 0 18 0z" fill="#f2f4f7" fill-rule="nonzero"/><path d="M7.398 17.991h1.154V15H7.398zm-1.7-2.99v5.981h1.156l-.001-5.981zM4 20.982h1.155v-2.991H4z" fill="#fbc600"/><path d="M16.939 17.703v1.609h-.371v-1.613c0-.49-.2-.718-.629-.718-.511 0-.778.377-.778.75v1.58h-.371v-2.645h.37v.289c.182-.184.458-.326.802-.326.63 0 .977.382.977 1.074zm4.384-1.074c-.344 0-.62.142-.801.326v-1.452h-.371v3.809h.371V17.73c0-.373.267-.75.778-.75.43 0 .629.228.629.718v1.613h.37v-1.61c0-.691-.346-1.073-.976-1.073zm5.502 1.34v.037c0 .766-.545 1.344-1.269 1.344-.71 0-1.265-.588-1.265-1.34v-.037c0-.764.547-1.34 1.274-1.34.73 0 1.261.563 1.261 1.336zm-.375.037v-.037c0-.582-.363-.988-.885-.988s-.899.417-.899.992v.037c0 .572.376.987.894.987.525 0 .891-.408.891-.991zm1.964-1.377c-.345 0-.62.142-.802.326v-.29h-.37v2.647h.37V17.73c0-.373.268-.75.779-.75.429 0 .629.228.629.718v1.613h.37v-1.61c0-.691-.347-1.073-.976-1.073zm-9.842 2.369c-.518 0-.894-.416-.894-.987v-.038c0-.575.378-.991.899-.991.362 0 .647.195.788.509h.399a1.218 1.218 0 0 0-1.186-.856c-.727 0-1.275.575-1.275 1.339v.037c0 .75.556 1.34 1.265 1.34.615 0 1.1-.417 1.233-1.011h-.383c-.112.399-.429.658-.846.658zm5.44-2.37c-.344 0-.62.143-.802.327v-.29h-.37v2.648h.37V17.73c0-.373.268-.75.778-.75a.847.847 0 0 1 .26.037v-.368a1.356 1.356 0 0 0-.237-.021zm-13.021 1.153c-.589-.098-.692-.203-.692-.417 0-.23.239-.383.582-.383.36 0 .562.13.62.412l.003.015h.387l-.009-.051c-.077-.466-.431-.723-.995-.723-.56 0-.967.307-.967.73 0 .553.47.677.992.765.492.085.643.154.643.445 0 .267-.241.433-.617.433-.514 0-.672-.27-.712-.508H9.83c.047.528.471.856 1.107.856.593 0 1.006-.325 1.006-.791.001-.574-.45-.698-.952-.783zm20.631-1.115-.803 2.174-.937-2.174h-.384l1.118 2.633-.35 1.034h.389L32 16.666zm-17.524 0-.803 2.174-.937-2.174h-.384l1.118 2.633-.349 1.034h.388l1.345-3.667z" fill="#3b3d44"/></g></svg>