<svg height="36" viewBox="0 0 36 36" width="36" xmlns="http://www.w3.org/2000/svg"><mask id="a" fill="#fff"><path d="M0 0h28v5.934H0z" fill-rule="evenodd"/></mask><mask id="b" fill="#fff"><path d="M0 0h8.359v7.026H0z" fill-rule="evenodd"/></mask><g fill="none" fill-rule="evenodd"><path d="M18 0c2.837 0 5.52.656 7.907 1.825C31.884 4.753 36 10.895 36 18c0 9.942-8.058 18-18 18-9.94 0-18-8.057-18-18C0 8.06 8.06 0 18 0z" fill="#f2f4f7" fill-rule="nonzero"/><g fill="#000"><path d="M26.978 3.446H28v-.669c0-1.432-1.413-1.371-1.413-1.371h-1.9v4.527h1.033V2.464l.863-.001c.261.001.396.15.396.444m-16.268.539h1.022v-.669c0-1.432-1.413-1.371-1.413-1.371H8.417v4.527h1.035V2.464l.862-.001c.262.001.396.15.396.444M7.19 4.911c-.336 0-.552-.088-.555-.366.003-.162 0-2.117 0-2.117h1.396V1.406H6.635V0H5.616v1.406H2.084S.645 1.345.645 2.796c0 1.446 1.44 1.385 1.44 1.385h1.71c.3 0 .362.247.362.365 0 .113-.064.366-.362.366H0v1.022h3.78s1.463.063 1.463-1.392c0-1.413-1.463-1.383-1.463-1.383H2.077c-.298.001-.362-.251-.362-.365.001-.116.062-.365.362-.366h3.54v2.117S5.494 5.934 6.95 5.934h1.081V4.911" mask="url(#a)" transform="translate(4 14)"/><path d="M5.487 3.122V0H4.466v5.933h1.021V4.66l.579-.722L7.19 5.933h1.169L6.794 3.147l1.438-1.741h-1.33M0 6.004v1.02h1.284c.07.006.486.013.831-.217.491-.293.731-1.041.787-1.23.064-.226 1.249-4.171 1.249-4.171h-1.13l-.888 3.21-.89-3.21H.114l1.256 4.17.033.105c.047.152-.02.32-.177.323" mask="url(#b)" transform="translate(15.66 14)"/><path d="M28.27 17.652c-.001-1.252-.95-2.271-2.261-2.271-1.41.025-2.278 1.02-2.278 2.274 0 1.23.952 2.278 2.207 2.278h1.474v-1.021H26.03c-.528 0-1.11-.383-1.175-.857h3.378c.025-.132.037-.264.037-.403zm-3.415-.488c.086-.4.62-.796 1.154-.796s1.044.359 1.154.796z"/></g></g></svg>