<svg height="36" viewBox="0 0 36 36" width="36" xmlns="http://www.w3.org/2000/svg"><mask id="a" fill="#fff"><path d="M0 26h21.575V0H0z" fill-rule="evenodd"/></mask><g fill="none" fill-rule="evenodd"><path d="M18 0c2.837 0 5.52.656 7.907 1.825C31.884 4.753 36 10.895 36 18c0 9.942-8.058 18-18 18-9.94 0-18-8.057-18-18C0 8.06 8.06 0 18 0z" fill="#f2f4f7" fill-rule="nonzero"/><path d="M14.795 8.5c.2-.654.707-.32.707-.32s1.315 1 4.92 3.295c3.606 2.294 8.1-.889 8.1-.889L17.848 3C13.164 7.963 7.17 9.743 7.17 9.743l.018.006 13.646 9.57c-.2.654-.707.32-.707.32s-1.315-1.001-4.92-3.295c-3.606-2.295-8.1.89-8.1.89l10.675 7.585c4.683-4.964 10.676-6.742 10.676-6.742l-.017-.007z" fill="#ff0016"/><path d="M20.373 25.918h1.202v-3.271h-1.202zm-4.258 0v-3.271h1.205v1.21l1.3-1.21h1.508l-1.73 1.585 1.802 1.686h-1.627l-1.241-1.17.012 1.17zm-7.987-3.265h3.76v.7l-1.837 1.652h1.837v.919h-3.76v-.79l1.794-1.628H8.131zm6.472-.023h1.215v2.281c0 .469-.29.8-.873.997-.27.089-.592.092-.957.092-.328 0-.623.006-.895-.065-.64-.256-.96-.598-.96-1.024V22.63h1.222v1.954c0 .356.047.62.633.62.596 0 .608-.277.608-.632zm-7.935 0h1.213v2.281c0 .469-.291.8-.873.997-.27.089-.592.092-.958.092-.327 0-.622.006-.894-.065-.64-.256-.96-.598-.96-1.024V22.63h1.222v1.954c0 .356.047.62.632.62.597 0 .609-.277.609-.632zM0 24.83l1.642.009c.029.154-.016.154.07.235.136.125.346.154.522.123.145-.026.368-.07.379-.249.012-.195-.123-.262-.292-.284-.234-.031-.47-.039-.702-.076-.6-.099-.919-.142-1.174-.306-.258-.162-.28-.518-.28-.77 0-.166.066-.322.198-.47.132-.148.33-.264.594-.348.265-.085.627-.126 1.088-.126.566 0 .997.076 1.294.229.296.154.473.494.53.829H2.472c.01-.021-.028-.11-.033-.132-.054-.193-.24-.25-.42-.29-.147-.032-.315-.035-.447.046-.08.049-.143.101-.143.172 0 .051.034.097.1.139.065.042.218.082.459.119.598.094 1.026.188 1.285.285.258.096.446.215.564.357a.735.735 0 0 1 .177.478.836.836 0 0 1-.236.573c-.156.174-.376.307-.658.397-.281.09-.637.136-1.065.136-.752 0-1.274-.106-1.563-.318-.29-.21-.454-.432-.492-.758z" fill="#015cd0" mask="url(#a)" transform="translate(7 3)"/></g></svg>