<svg height="36" viewBox="0 0 36 36" width="36" xmlns="http://www.w3.org/2000/svg"><mask id="a" fill="#fff"><path d="M0 0h14.518v4.809H0z" fill-rule="evenodd"/></mask><mask id="b" fill="#fff"><path d="M0 0h11.512v11.506H0z" fill-rule="evenodd"/></mask><g fill="none" fill-rule="evenodd"><path d="M18 0c2.837 0 5.52.656 7.907 1.825C31.884 4.753 36 10.895 36 18c0 9.942-8.058 18-18 18-9.94 0-18-8.057-18-18C0 8.06 8.06 0 18 0z" fill="#f2f4f7" fill-rule="nonzero"/><path d="M5.772 4.705a.121.121 0 0 0 .127-.127V.869h1.26a.121.121 0 0 0 .126-.127V.23A.121.121 0 0 0 7.16.103H3.804a.122.122 0 0 0-.126.127v.512c0 .075.052.127.126.127h1.26v3.709c0 .075.052.127.127.127zm5.742-.161c.075.081.03.161-.063.161h-.73c-.099 0-.15-.023-.214-.098l-.437-.483c-.294.392-.702.685-1.38.685-.84 0-1.503-.506-1.503-1.375 0-.667.357-1.024.898-1.323-.265-.305-.386-.627-.386-.908C7.7.489 8.2 0 8.954 0c.771 0 1.242.455 1.242 1.127 0 .576-.414.897-.85 1.139l.643.696.363-.632c.046-.075.098-.104.19-.104h.558c.092 0 .144.063.086.161l-.644 1.104zM8.965.713c-.299 0-.472.19-.472.443 0 .196.104.368.34.621.408-.236.581-.379.581-.632 0-.236-.15-.432-.449-.432zm-.259 3.371c.368 0 .616-.178.817-.483L8.591 2.6c-.357.201-.587.402-.587.805 0 .397.322.679.702.679zm-4.469.471c.03.075-.017.15-.098.15h-.598c-.086 0-.139-.04-.167-.121l-.34-.978H1.176l-.34.978c-.028.081-.08.121-.167.121H.106a.108.108 0 0 1-.098-.15L1.568.219c.028-.081.08-.115.166-.115h.771c.086 0 .144.034.173.115zM2.77 2.853 2.108.955 1.44 2.853zm9.653 1.852c-.075 0-.126-.052-.126-.127V.869h-1.26a.12.12 0 0 1-.127-.127V.23a.12.12 0 0 1 .127-.127h3.354c.075 0 .127.053.127.127v.512a.121.121 0 0 1-.127.127h-1.26v3.709a.121.121 0 0 1-.127.127z" fill="#000" mask="url(#a)" transform="translate(17.482 15.354)"/><path d="M8.7.81A5.692 5.692 0 0 0 5.756 0 5.715 5.715 0 0 0 2.77.835c-.26.16-.406.288-.406.453 0 .485 1.134 1.006 3.147 1.006 1.99 0 3.535-.571 3.535-1.121 0-.132-.115-.223-.347-.362m.857.639a.236.236 0 0 1 .036.133c0 .639-1.956 1.77-5.071 1.77-2.288 0-2.717-.85-2.717-1.39 0-.192.075-.39.238-.59.009-.012 0-.016-.01-.007-.297.252-.57.535-.81.84-.114.146-.185.274-.185.35 0 1.12 2.806 1.93 5.428 1.93 2.795 0 4.043-.912 4.043-1.714 0-.286-.112-.453-.397-.777a6.988 6.988 0 0 0-.546-.553c-.01-.007-.015-.001-.01.008M.556 3.285c-.168.335-.355.9-.411 1.193a.377.377 0 0 0 .03.279c.353.749 2.139 1.948 6.304 1.948 2.542 0 4.516-.625 4.836-1.765.059-.21.062-.431-.014-.73a5.604 5.604 0 0 0-.376-.994c-.005-.01-.013-.008-.011.003.05 1.494-4.118 2.457-6.221 2.457-2.277 0-4.178-.907-4.178-2.053 0-.11.023-.22.052-.335.003-.01-.006-.012-.011-.003M4.599 8.06C1.653 8.06.264 6.688.012 5.75.009 5.739 0 5.74 0 5.754c0 .315.032.722.086.992.026.13.133.338.29.502.713.744 2.49 1.785 5.572 1.785 4.195 0 5.155-1.397 5.35-1.857.14-.33.214-.923.214-1.422a5.71 5.71 0 0 0-.008-.312c0-.015-.01-.016-.012-.002-.21 1.125-3.795 2.62-6.893 2.62m1.548 2.533c1.416 0 2.972-.387 3.903-1.151a3.11 3.11 0 0 0 .715-.858c.125-.214.248-.47.347-.72.005-.011-.003-.017-.012-.004-.866 1.275-3.373 2.069-5.961 2.069-1.83 0-3.798-.585-4.57-1.702-.006-.01-.014-.006-.01.005.719 1.527 2.897 2.36 5.588 2.36m-3.921-.294a5.749 5.749 0 0 0 7.322-.217c.012-.011.006-.018-.006-.011-.454.304-1.748.965-3.786.965-1.771 0-2.89-.394-3.522-.747-.012-.006-.016.003-.008.01" fill="#00a8e0" mask="url(#b)" transform="translate(4 12)"/></g></svg>