<svg width="36" height="36" fill="none" xmlns="http://www.w3.org/2000/svg"><path d="M18 0c2.837 0 5.52.656 7.907 1.825C31.884 4.753 36 10.895 36 18c0 9.942-8.058 18-18 18-9.94 0-18-8.057-18-18C0 8.06 8.06 0 18 0z" fill="#F2F4F7"/><path d="M8.198 15.78v-.592c0-.085-.023-.11-.11-.11H4.1c-.075 0-.102.015-.1.095v.602c0 .08.02.098.098.098H5.42c.093 0 .123.017.12.117v3.133c0 .075.013.1.095.097h.915c.09 0 .12-.017.12-.115v-3.12c0-.085.018-.11.105-.11h1.343a.075.075 0 0 0 .092-.053.075.075 0 0 0 0-.04l-.012-.002zm2.32 2.28a.637.637 0 0 1-.335.475c-.31.186-.681.243-1.033.158a.407.407 0 0 1-.337-.515.325.325 0 0 1 .25-.235c.213-.046.43-.072.647-.08a2.58 2.58 0 0 0 .81-.148c.007.115.007.23 0 .345h-.002zm.145 1.158h.967a2.065 2.065 0 0 1-.112-.865v-1.228a1.353 1.353 0 0 0-.048-.4.865.865 0 0 0-.65-.585 4.08 4.08 0 0 0-2.065-.032 1.042 1.042 0 0 0-.84.875c-.012.07 0 .09.073.087H8.8a.113.113 0 0 0 .125-.087.52.52 0 0 1 .453-.36c.055-.004.11-.004.165 0 .242-.02.485.002.72.065a.31.31 0 0 1 .222.39.248.248 0 0 1-.188.21.25.25 0 0 1-.1.005c-.274.025-.552.042-.83.062a5.072 5.072 0 0 0-.907.105.912.912 0 0 0-.695.533.927.927 0 0 0 .558 1.235c.423.137.876.162 1.312.072.33-.04.64-.174.895-.387l.058.25c0 .008.003.016.007.024a.062.062 0 0 0 .04.03.062.062 0 0 0 .025 0h.003zm4.295-1.27a.815.815 0 0 1-.65.602 1.325 1.325 0 0 1-.635-.025.89.89 0 0 1 .205-1.725 1.037 1.037 0 0 1 .835.225.87.87 0 0 1 .25.923h-.005zm.575.967a1.708 1.708 0 0 0 .18-2.25 1.66 1.66 0 0 0-1.33-.64 1.524 1.524 0 0 0-1.275.463v-1.395c0-.073-.018-.095-.093-.093h-.822c-.095 0-.113.025-.113.115V19.1a.301.301 0 0 1 0 .043c0 .05.015.065.065.065h.863a.053.053 0 0 0 .051-.014.052.052 0 0 0 .014-.051v-.305a.5.5 0 0 1 .127.105c.195.19.444.316.713.36.21.03.422.03.632 0a1.8 1.8 0 0 0 .988-.388zm3.73-1.665h1a.47.47 0 0 0 0-.047 1.405 1.405 0 0 0-1.035-1.095 3.312 3.312 0 0 0-1.423-.078 2.185 2.185 0 0 0-.54.143 1.428 1.428 0 0 0-.932 1.327c-.06.845.275 1.53 1.215 1.75.488.113.996.119 1.487.018a1.407 1.407 0 0 0 1.23-1.208c.015-.072 0-.08-.067-.08h-.895a.078.078 0 0 0-.095.073.673.673 0 0 1-.413.475 1.08 1.08 0 0 1-.53.077.858.858 0 0 1-.81-.53 1.14 1.14 0 0 1-.07-.5.83.83 0 0 1 .623-.812c.154-.043.315-.058.475-.045a.75.75 0 0 1 .722.5.055.055 0 0 0 .055.047l.003-.015zm4.334.71a.807.807 0 0 1-.672.628 1.386 1.386 0 0 1-.677-.025.84.84 0 0 1-.605-.898c0-.695.482-1 1.124-.937.08.005.159.019.236.04a.825.825 0 0 1 .625.787c.01.135.002.27-.028.403l-.003.002zm.768.748a1.65 1.65 0 0 0 .32-1.155 1.454 1.454 0 0 0-1.08-1.415 3.457 3.457 0 0 0-1.095-.133c-.24.003-.48.035-.712.095a1.5 1.5 0 0 0-1.095.885c-.096.262-.135.54-.115.818a1.433 1.433 0 0 0 1 1.375 3.33 3.33 0 0 0 1.774.09 1.63 1.63 0 0 0 1-.56h.003zm3.323-1.77v-.708c0-.165 0-.165-.158-.182a1.364 1.364 0 0 0-1.275.452l-.188.218v-.535c0-.063-.012-.083-.08-.083h-.822c-.067 0-.085.018-.085.085v2.933c0 .077.028.087.095.087h.832c.075 0 .098-.015.098-.095v-1.3a.832.832 0 0 1 .75-.875c.25-.04.507-.023.75.05.07.02.087 0 .087-.067l-.005.02zm2.277 1.625a.895.895 0 1 1 .865-1.313.893.893 0 0 1-.865 1.323v-.01zm2.032-.705v-.08a.589.589 0 0 1 0-.25v-.063c-.035 0-.02-.04-.022-.062a1.448 1.448 0 0 0-.81-1.153 2.214 2.214 0 0 0-1-.215 1.422 1.422 0 0 0-1.087.455.062.062 0 0 1-.055.035v-.33c0-.065-.018-.08-.083-.08h-.823c-.065 0-.09.013-.09.085v4.088a.07.07 0 0 0 .052.09.07.07 0 0 0 .038-.003h.843c.082 0 .098-.025.098-.1V18.88c.19.225.457.373.75.415.237.047.481.056.722.028a1.618 1.618 0 0 0 1.42-1.25.683.683 0 0 1 .05-.215" fill="#004A6A"/></svg>