<svg width="36" height="36" fill="none" xmlns="http://www.w3.org/2000/svg"><path d="M18 0c2.837 0 5.52.656 7.907 1.825C31.884 4.753 36 10.895 36 18c0 9.942-8.058 18-18 18-9.94 0-18-8.057-18-18C0 8.06 8.06 0 18 0z" fill="#F2F4F7"/><path d="M6.392 16.037c.294-.1.639.01.824.259.267.363.524.734.79 1.1.292-.294.578-.594.88-.876.247.308.465.64.694.96.067.063-.009.127-.053.173l-1.471 1.47c-.113.137-.356.146-.459-.007-.43-.595-.852-1.195-1.278-1.793a.832.832 0 0 0-.38-.31c-.163-.073-.345-.033-.517-.055.06-.18.232-.282.352-.418.195-.179.356-.417.618-.503zm4.119.71c1.022.004 2.045-.001 3.067.003-.002.224 0 .448-.002.673-.354.002-.707-.002-1.06.001-.005.915 0 1.829-.004 2.743-.32.002-.64-.002-.959.003.004-.916-.001-1.831.003-2.747-.346 0-.692-.002-1.038.003-.017-.226-.006-.452-.007-.679zm3.956.002c.387-.002.774.002 1.161-.002.451 1.14.901 2.279 1.348 3.42-.358 0-.716.003-1.074-.002a20.81 20.81 0 0 0-.236-.684h-1.364c-.08.23-.155.46-.236.688-.317 0-.633-.005-.949.002.449-1.141.9-2.28 1.35-3.422zm.058 2.1c.309.006.618.003.927.001-.15-.477-.29-.958-.446-1.434-.177.472-.323.955-.48 1.433zm2.83-2.102c.318 0 .637.002.956 0-.002.917-.005 1.834.001 2.752.513.004 1.026-.006 1.539.004-.002.221.001.443 0 .664-.832.002-1.664-.003-2.496.003.002-1.141.002-2.282 0-3.423zm2.897 0c.32.001.638.003.957 0v2.75c.515.004 1.03 0 1.544.002l-.002.668c-.832.002-1.665-.003-2.498.003-.002-1.141 0-2.282 0-3.423zm2.856 0c.329.001.659.002.988 0v3.42c-.33.002-.66-.003-.989.003l.001-3.422zm1.617 0c.438.002.876.001 1.314.001.39.844.759 1.697 1.159 2.535-.015-.845-.007-1.69-.014-2.535.278.002.557-.005.836 0a410.09 410.09 0 0 0 0 3.419c-.428.003-.857-.004-1.285.004-.398-.874-.77-1.76-1.175-2.63-.003.875.007 1.75.005 2.627l-.842-.001c.004-1.14.001-2.28.002-3.42zm4 .001c.319-.001.637.003.956-.003.001.5-.006 1 .003 1.5.368-.494.728-.993 1.088-1.493.377-.007.753-.004 1.13-.003-.385.507-.79 1-1.175 1.507L32 20.167h-1.183a98.162 98.162 0 0 0-1.132-1.81c-.011.604-.004 1.208-.004 1.812-.318-.002-.637 0-.955-.002-.005-1.14-.003-2.279-.001-3.419z" fill="#04529C"/><path d="M4.98 17.474c.309-.106.658.051.837.313.43.606.857 1.215 1.288 1.82.106.152.237.3.417.363.165.07.347.037.521.058-.05.15-.181.244-.286.354-.157.145-.295.31-.46.448a.735.735 0 0 1-.826.065.943.943 0 0 1-.308-.302c-.43-.609-.862-1.216-1.29-1.825a.843.843 0 0 0-.384-.306c-.156-.058-.324-.042-.486-.046L4 18.322c.193-.199.393-.39.586-.59a.872.872 0 0 1 .394-.257z" fill="#EE4035"/></svg>