<svg height="36" viewBox="0 0 36 36" width="36" xmlns="http://www.w3.org/2000/svg"><mask id="a" fill="#fff"><path d="M0 0h4.92v6.197H0z" fill-rule="evenodd"/></mask><mask id="b" fill="#fff"><path d="M0 0h2.584v2.618H0z" fill-rule="evenodd"/></mask><mask id="c" fill="#fff"><path d="M0 0h1.77v2.618H0z" fill-rule="evenodd"/></mask><mask id="d" fill="#fff"><path d="M0 0h2.584v2.618H0z" fill-rule="evenodd"/></mask><mask id="e" fill="#fff"><path d="M.172 0h.656v1H.172z" fill-rule="evenodd"/></mask><mask id="f" fill="#fff"><path d="M0 .015h1v.97H0z" fill-rule="evenodd"/></mask><mask id="g" fill="#fff"><path d="M0 .015h1v.97H0z" fill-rule="evenodd"/></mask><mask id="h" fill="#fff"><path d="M0 .015h1v.97H0z" fill-rule="evenodd"/></mask><mask id="i" fill="#fff"><path d="M.041.01h.918v.98H.041z" fill-rule="evenodd"/></mask><g fill="none" fill-rule="evenodd"><path d="M18 0c2.837 0 5.52.656 7.907 1.825C31.884 4.753 36 10.895 36 18c0 9.942-8.058 18-18 18-9.94 0-18-8.057-18-18C0 8.06 8.06 0 18 0z" fill="#f2f4f7" fill-rule="nonzero"/><path d="M5.992 19.99v-.004zm0 0v-.004z" fill="#fff"/><path d="M8.625 18.355a2.344 2.344 0 1 0-4.16.33 1.45 1.45 0 0 1 2.54 1.052 2.342 2.342 0 0 0 1.62-1.381" fill="#f9b000"/><path d="M4.465 18.685a1.448 1.448 0 0 0 .542 2.285 1.447 1.447 0 0 0 1.999-1.233 2.331 2.331 0 0 1-1.441-.114 2.335 2.335 0 0 1-1.1-.938" fill="#488bca"/><path d="M6.115 18.294a1.448 1.448 0 0 0-1.65.391 2.338 2.338 0 0 0 2.54 1.051 1.447 1.447 0 0 0-.89-1.442" fill="#ed6a25"/><path d="M4.518 3.311a2.234 2.234 0 0 1-1.394 1.273 1.562 1.562 0 0 0-2.635-1.09 2.235 2.235 0 0 1-.085-1.887A2.214 2.214 0 0 1 1.609.402a2.217 2.217 0 0 1 1.704 0 2.23 2.23 0 0 1 1.205 2.91M2.071 5.863A1.33 1.33 0 0 1 .33 5.142a1.303 1.303 0 0 1-.103-.502c0-.285.089-.549.23-.755.268.376.632.666 1.063.845s.894.23 1.35.153a1.332 1.332 0 0 1-.799.981m.822-1.22c-.432.085-.874.042-1.284-.128s-.754-.452-.998-.818a1.332 1.332 0 0 1 2.282.945M3.402.188a2.437 2.437 0 0 0-1.882 0A2.447 2.447 0 0 0 .189 1.52 2.468 2.468 0 0 0 0 2.39v2.216a1.556 1.556 0 0 0 1.559 1.591c.417 0 .82-.168 1.114-.465v.001l1.558-1.568H4.23A2.46 2.46 0 0 0 3.402.188" fill="#e2e6e9" mask="url(#a)" transform="translate(4 15)"/><g fill="#18223e"><path d="m13.659 17.58-.24-1.53-.906 1.419-.905-1.418-.241 1.53h-.376l.375-2.54 1.147 1.747 1.147-1.746.375 2.539z"/><path d="M2.203 1.31c0-.524-.393-.954-.915-.954-.518 0-.907.43-.907.955 0 .522.389.952.907.952.522 0 .915-.43.915-.952M0 1.31C0 .585.563 0 1.288 0c.73 0 1.296.585 1.296 1.31A1.292 1.292 0 1 1 0 1.31" mask="url(#b)" transform="translate(14.718 15)"/><path d="M18.19 15.03h.382v2.202h1.026v.348H18.19z"/><path d="M0 1.84h.378c.007.219.211.43.529.43.304 0 .482-.185.482-.396 0-.226-.204-.334-.411-.39l-.326-.081C.107 1.266.019.943.019.733.019.285.415 0 .867 0c.459 0 .818.289.818.752h-.378c0-.241-.188-.404-.452-.404C.615.348.4.492.4.726c0 .08.026.252.348.333l.322.08c.43.109.7.342.7.716 0 .426-.348.763-.863.763C.363 2.618 0 2.25 0 1.84" mask="url(#c)" transform="translate(20.186 15)"/><path d="M2.203 1.31c0-.524-.393-.954-.915-.954-.518 0-.907.43-.907.955 0 .522.389.952.907.952.522 0 .915-.43.915-.952M0 1.31C0 .585.563 0 1.288 0c.73 0 1.296.585 1.296 1.31A1.292 1.292 0 1 1 0 1.31" mask="url(#d)" transform="translate(22.668 15)"/><path d="M28.191 15.038v2.539l-1.67-1.645v1.645h-.38v-2.54l1.671 1.59v-1.59zM10.98 19.899c0-.722.573-1.307 1.295-1.307.404 0 .755.178.981.459l-.28.225a.888.888 0 0 0-.697-.329c-.519 0-.919.426-.919.952 0 .521.397.951.92.951a.9.9 0 0 0 .695-.329l.281.226a1.246 1.246 0 0 1-.98.459 1.297 1.297 0 0 1-1.297-1.307m5.193 0c0-.526-.393-.956-.915-.956-.518 0-.907.43-.907.956 0 .521.389.951.907.951.522 0 .915-.43.915-.951m-2.203 0c0-.726.563-1.311 1.288-1.311.73 0 1.296.585 1.296 1.311a1.292 1.292 0 1 1-2.584 0m5.416 0c0-.526-.393-.956-.915-.956-.518 0-.907.43-.907.956 0 .521.389.951.907.951.522 0 .915-.43.915-.951m-2.203 0c0-.726.562-1.311 1.288-1.311.729 0 1.296.585 1.296 1.311a1.293 1.293 0 1 1-2.584 0m3.854-.015h.5c.352 0 .496-.189.496-.459 0-.267-.16-.459-.407-.459h-.59zm.292.333h-.292v.951h-.381v-2.55h.974c.559 0 .784.403.784.807 0 .366-.185.726-.655.784l.678.96h-.456zm1.84.211h.378c.007.22.211.43.53.43.303 0 .481-.186.481-.397 0-.225-.204-.333-.41-.388l-.327-.082c-.545-.137-.633-.459-.633-.67 0-.448.396-.733.847-.733.46 0 .82.29.82.752h-.379c0-.24-.189-.404-.452-.404-.24 0-.455.144-.455.377 0 .082.026.253.348.334l.322.081c.43.107.7.341.7.715 0 .425-.348.762-.863.762-.544 0-.907-.366-.907-.777m3.515-1.114a.196.196 0 0 0-.2-.205.204.204 0 0 0-.206.205c0 .13.098.209.206.209a.2.2 0 0 0 .2-.21m.136.002c0 .205-.146.337-.32.337-.087 0-.18-.038-.223-.11v.096h-.135v-.992h.135v.443c.043-.073.133-.108.223-.108.176 0 .32.129.32.334m.637-.054c-.012-.1-.086-.156-.186-.156-.099 0-.174.05-.193.156zm.132.11h-.512c.017.104.095.155.199.155a.208.208 0 0 0 .181-.09l.107.053a.322.322 0 0 1-.294.163.324.324 0 0 1-.333-.339.32.32 0 0 1 .333-.333c.183 0 .322.13.322.332a.61.61 0 0 1-.003.058zm.724-.377-.269.644h-.128l-.269-.644h.145l.188.469.187-.47zm.58.267c-.012-.1-.087-.156-.186-.156s-.174.05-.193.156zm.132.11h-.512c.018.104.095.155.199.155a.208.208 0 0 0 .18-.09l.109.053a.325.325 0 0 1-.295.163.324.324 0 0 1-.333-.339.32.32 0 0 1 .333-.333c.183 0 .322.13.322.332a.61.61 0 0 1-.003.058zm.588-.368-.024.128a.234.234 0 0 0-.095-.022c-.117 0-.172.123-.172.296v.232h-.137v-.644h.137v.146c.033-.113.098-.158.18-.158a.24.24 0 0 1 .11.022m.599.311a.205.205 0 0 0-.205-.206c-.11 0-.2.085-.2.206 0 .12.09.209.2.209a.2.2 0 0 0 .205-.21zm.137-.32v.644h-.136v-.096c-.042.072-.135.11-.221.11-.176 0-.321-.132-.321-.337s.145-.334.319-.334c.09 0 .18.035.223.108v-.095zm.701.32a.205.205 0 0 0-.205-.206c-.11 0-.2.085-.2.206 0 .12.09.209.2.209a.2.2 0 0 0 .205-.21zm.137-.32v.548c0 .299-.138.417-.355.417a.33.33 0 0 1-.295-.178l.115-.056c.036.069.11.109.18.109.135 0 .22-.077.22-.281v-.01c-.044.07-.137.109-.222.109-.176 0-.32-.132-.32-.337s.144-.334.318-.334c.09 0 .18.035.223.107v-.094z"/><path d="M.692.281C.68.18.606.125.506.125c-.099 0-.173.05-.193.156zM.825.39H.312c.018.105.095.156.2.156a.207.207 0 0 0 .18-.091L.8.509a.325.325 0 0 1-.295.163.324.324 0 0 1-.333-.339A.32.32 0 0 1 .505 0c.183 0 .322.129.322.332 0 .018 0 .037-.002.058z" mask="url(#e)" transform="translate(31.172 18.98)"/><path d="M26.14 20.847c0-.204.161-.335.347-.335.106 0 .196.043.253.11l-.09.084a.213.213 0 0 0-.16-.067c-.12 0-.214.085-.214.208s.095.208.215.208a.21.21 0 0 0 .159-.067l.09.084a.324.324 0 0 1-.252.11c-.186 0-.347-.13-.347-.335"/><path d="M.542.349C.542.225.448.142.338.142S.135.225.135.349c0 .125.093.209.203.209S.542.474.542.348M0 .349C0 .146.154.016.338.016c.183 0 .339.13.339.334S.521.687.338.687A.329.329 0 0 1 0 .349" mask="url(#f)" transform="translate(26.827 20.498)"/><path d="M28.68 20.802v.367h-.135v-.358c0-.106-.056-.168-.143-.168-.092 0-.153.064-.161.16v.366h-.136v-.359c0-.107-.055-.167-.135-.167-.085 0-.17.051-.17.182v.344h-.135v-.643h.135v.102c.029-.072.113-.116.2-.116a.22.22 0 0 1 .21.13.24.24 0 0 1 .223-.13c.16 0 .248.106.248.29"/><path d="M.542.353c0-.121-.088-.211-.2-.211-.108 0-.206.08-.206.21s.107.206.206.206c.112 0 .2-.084.2-.205M.678.35c0 .206-.145.336-.32.336C.267.687.178.65.135.577v.409H0V.029h.135v.096C.178.052.271.015.358.015c.174 0 .32.13.32.336" mask="url(#g)" transform="translate(28.874 20.498)"/><path d="M.541.349A.204.204 0 0 0 .335.143a.197.197 0 0 0-.199.206c0 .12.089.209.199.209.109 0 .206-.08.206-.21zm.137-.32v.644H.542V.577C.499.649.407.687.32.687.145.687 0 .554 0 .35 0 .145.145.015.319.015c.091 0 .18.036.223.109V.029z" mask="url(#h)" transform="translate(29.672 20.498)"/><path d="M31.153 20.802v.367h-.135v-.358c0-.105-.063-.165-.146-.165-.084 0-.186.047-.186.18v.343h-.136v-.643h.136v.1c.037-.08.14-.114.21-.114.162 0 .258.106.257.29"/><path d="m.872.032-.4.957H.329L.467.65.21.031h.146L.541.48.726.032z" mask="url(#i)" transform="translate(31.041 20.494)"/></g></g></svg>