<svg width="36" height="36" fill="none" xmlns="http://www.w3.org/2000/svg"><path d="M18 0c2.837 0 5.52.656 7.907 1.825C31.884 4.753 36 10.895 36 18c0 9.942-8.058 18-18 18-9.94 0-18-8.057-18-18C0 8.06 8.06 0 18 0z" fill="#F2F4F7"/><path d="M28.256 17.1c-.33 0-.616.052-.878.159-.1.041-.172.136-.172.227 0 .124.086.204.22.204a.956.956 0 0 0 .241-.047 1.7 1.7 0 0 1 .475-.078c.452 0 .734.213.734.554v.425c-.177-.13-.451-.209-.74-.209-.569 0-1.144.33-1.144.962 0 .625.54.91 1.04.91.323 0 .625-.11.845-.306 0 .02.002.006.004.038.006.113.08.252.235.252.154 0 .235-.102.235-.22v-1.887c0-.598-.43-.984-1.095-.984zm-.155 2.657c-.306 0-.632-.129-.632-.491 0-.226.175-.486.668-.486.361 0 .735.169.735.455-.001.327-.393.522-.772.522zm-9.611-1.33a10.03 10.03 0 0 0-.156-.063c-.314-.126-.61-.244-.61-.423 0-.345.442-.372.579-.372.249 0 .49.066.6.13a.28.28 0 0 0 .137.037c.13 0 .219-.09.219-.226a.241.241 0 0 0-.121-.22 1.737 1.737 0 0 0-.825-.191c-.66 0-1.086.349-1.086.889 0 .492.67.736 1.07.881.265.095.568.233.568.457 0 .302-.32.409-.595.409-.23 0-.463-.076-.691-.226a.31.31 0 0 0-.175-.064c-.104 0-.215.067-.215.256 0 .084.032.154.087.192.34.216.644.313.984.313.515 0 1.117-.24 1.117-.915.001-.496-.45-.683-.887-.864zm3.202-1.286c-.146 0-.22.083-.22.246v1.251c0 .704-.397 1.083-.771 1.083-.305 0-.616-.107-.616-.902l-.005-1.442c0-.154-.081-.236-.235-.236-.149 0-.23.085-.23.236v1.61c0 .409.107.725.32.94.181.183.43.282.719.282.302 0 .587-.16.798-.442v.205c0 .141.084.22.24.22.148 0 .23-.076.23-.215v-2.59c0-.158-.082-.246-.23-.246zm3.836-.041c-.31 0-.64.194-.813.457v-1.311c0-.162-.081-.246-.234-.246-.153 0-.235.07-.235.23v3.705c0 .165.081.256.23.256.137 0 .24-.107.24-.25v-.13a.982.982 0 0 0 .813.396c.388 0 .713-.17.942-.486.2-.28.31-.639.31-1.042 0-.784-.43-1.579-1.253-1.579zm.026 2.657c-.565 0-.817-.539-.817-1.088 0-.534.256-1.109.817-1.109.275 0 .74.238.74 1.13 0 .5-.193 1.067-.74 1.067zM13.147 17.1c-.329 0-.616.052-.878.159-.1.041-.172.136-.172.227 0 .124.086.204.22.204a.955.955 0 0 0 .241-.047 1.7 1.7 0 0 1 .475-.078c.454 0 .735.213.735.554v.425c-.177-.13-.45-.209-.74-.209-.568 0-1.144.33-1.144.962 0 .625.54.91 1.04.91.323 0 .625-.11.845-.306 0 .02.002.006.004.038.005.113.08.252.235.252.154 0 .235-.102.235-.22v-1.887c0-.598-.43-.984-1.096-.984zm-.155 2.657c-.306 0-.632-.129-.632-.491 0-.226.175-.486.668-.486.361 0 .735.169.735.455 0 .327-.392.522-.771.522zM23.616 17.1c-.354 0-.667.148-.864.403v-.116c0-.16-.082-.245-.236-.245-.148 0-.23.087-.23.245v2.574c0 .148.082.23.23.23.149 0 .236-.082.236-.23V18.3c0-.382.378-.709.688-.709.064 0 .128.006.19.019a.777.777 0 0 0 .163.017.245.245 0 0 0 .245-.245c0-.13-.11-.28-.422-.28zm-7.779 0a.905.905 0 0 0-.735.35v-.063c0-.16-.082-.245-.235-.245-.149 0-.23.087-.23.245v2.574c0 .148.081.23.23.23.148 0 .235-.082.235-.23V18.3c0-.505.349-.735.673-.735.448 0 .652.381.652.735v1.662c0 .148.082.23.23.23.148 0 .235-.082.235-.23v-1.826c0-.648-.536-1.035-1.055-1.035zm15.108 0a.904.904 0 0 0-.735.35v-.063c0-.16-.082-.245-.236-.245-.148 0-.23.087-.23.245v2.574c0 .148.082.23.23.23.149 0 .236-.082.236-.23V18.3c0-.505.348-.735.673-.735.448 0 .652.381.652.735v1.662c0 .148.082.23.23.23.148 0 .235-.082.235-.23v-1.826c0-.648-.536-1.035-1.055-1.035zm-19.583 0c-.355 0-.668.148-.865.403v-.116c0-.16-.082-.245-.236-.245-.148 0-.23.087-.23.245v2.574c0 .148.085.23.233.23.148 0 .233-.082.233-.23V18.3c0-.382.378-.709.688-.709a.91.91 0 0 1 .19.019.776.776 0 0 0 .163.017.246.246 0 0 0 .246-.245c0-.13-.11-.28-.422-.28z" fill="#333E48"/><path d="M10.241 16.218H7.813c-.148 0-.23.085-.23.233 0 .148.082.232.23.232h.982v3.279c0 .148.084.23.232.23.148 0 .233-.082.233-.23v-3.279h.981c.149 0 .23-.084.23-.232 0-.148-.081-.233-.23-.233z" fill="#333E48"/><path d="M7.793 18.557H5.365c-.148 0-.23.084-.23.232 0 .148.082.233.23.233h2.428c.149 0 .23-.084.23-.233 0-.148-.081-.232-.23-.232z" fill="url(#a)"/><path d="M7.793 17.387H6.5c-.149 0-.23.085-.23.233 0 .148.081.233.23.233h1.293c.148 0 .23-.085.23-.233 0-.148-.082-.233-.23-.233z" fill="url(#b)"/><path d="M7.793 19.726H4.23c-.148 0-.23.085-.23.233 0 .148.082.232.23.232h3.563c.149 0 .23-.084.23-.232 0-.148-.081-.233-.23-.233z" fill="url(#c)"/><defs><linearGradient id="a" x1="5.135" y1="18.789" x2="8.023" y2="18.789" gradientUnits="userSpaceOnUse"><stop stop-color="#009D4E"/><stop offset=".26" stop-color="#009A4E"/><stop offset=".47" stop-color="#00904D"/><stop offset=".66" stop-color="#007F4B"/><stop offset=".84" stop-color="#006748"/><stop offset="1" stop-color="#004C45"/></linearGradient><linearGradient id="b" x1="147.542" y1="44.148" x2="256.675" y2="44.148" gradientUnits="userSpaceOnUse"><stop stop-color="#009D4E"/><stop offset=".26" stop-color="#009A4E"/><stop offset=".47" stop-color="#00904D"/><stop offset=".66" stop-color="#007F4B"/><stop offset=".84" stop-color="#006748"/><stop offset="1" stop-color="#004C45"/></linearGradient><linearGradient id="c" x1="4" y1="85.084" x2="578.556" y2="85.084" gradientUnits="userSpaceOnUse"><stop stop-color="#009D4E"/><stop offset=".26" stop-color="#009A4E"/><stop offset=".47" stop-color="#00904D"/><stop offset=".66" stop-color="#007F4B"/><stop offset=".84" stop-color="#006748"/><stop offset="1" stop-color="#004C45"/></linearGradient></defs></svg>