<svg width="36" height="36" fill="none" xmlns="http://www.w3.org/2000/svg"><path d="M18 0c2.837 0 5.52.656 7.907 1.825C31.884 4.753 36 10.895 36 18c0 9.942-8.058 18-18 18-9.94 0-18-8.057-18-18C0 8.06 8.06 0 18 0z" fill="#F2F4F7"/><path d="M10.043 16.895a.757.757 0 0 0-.578.27v-.173h-.58v2.828h.645v-.99a.8.8 0 0 0 .513.186 1.044 1.044 0 0 0 1.03-1.057 1.044 1.044 0 0 0-1.03-1.058v-.006zM9.98 18.43a.47.47 0 1 1 .45-.47.46.46 0 0 1-.45.47z" fill="#047BC1"/><path d="M12.134 18.63a.386.386 0 0 1-.66.276.387.387 0 1 1 .66-.275z" fill="#FCAF17"/><path fill-rule="evenodd" clip-rule="evenodd" d="M8.113 16.721A.361.361 0 1 1 8.11 16a.361.361 0 0 1 .002.722z" fill="#047BC1"/><path d="M8.436 16.992h-.643v1.93h.643v-1.93z" fill="#047BC1"/><path fill-rule="evenodd" clip-rule="evenodd" d="M4 16.092v.539h.835v2.289h.644v-2.289h.836v-.54H4z" fill="#047BC1"/><path d="M13.484 18.425a.47.47 0 1 1 0-.94.44.44 0 0 1 .324.145l.425-.426a1.057 1.057 0 1 0 0 1.5l-.425-.423a.444.444 0 0 1-.324.144z" fill="#047BC1"/><path fill-rule="evenodd" clip-rule="evenodd" d="M19.111 16.894a.65.65 0 0 0-.6.316.641.641 0 0 0-.575-.316.627.627 0 0 0-.563.316v-.218h-.578v1.928h.643v-1.203a.284.284 0 0 1 .395-.278.285.285 0 0 1 .17.278v1.203h.605v-1.203a.284.284 0 0 1 .395-.278.285.285 0 0 1 .17.278v1.203h.643v-1.324c0-.435-.273-.705-.705-.705" fill="#047BC1"/><path d="M15.412 16.895a1.058 1.058 0 1 0 0 2.116 1.058 1.058 0 0 0 0-2.116zm0 1.528a.47.47 0 1 1 .45-.47.46.46 0 0 1-.45.47zm-8.069-1.442a.687.687 0 0 0-.578.313v-.302h-.58v1.928h.647v-.804a.518.518 0 0 1 .54-.54.85.85 0 0 1 .1.011V17a.917.917 0 0 0-.129-.01" fill="#047BC1"/><path d="M22.384 17.442v.297h.628v.777a1.13 1.13 0 0 1-.288.117c-.135.033-.273.05-.412.048a1.058 1.058 0 0 1-1.012-.707 1.3 1.3 0 0 1 0-.878 1.054 1.054 0 0 1 .561-.615 1.07 1.07 0 0 1 .454-.092c.15-.003.297.024.435.08a.96.96 0 0 1 .326.223l.018.02.02-.019.19-.19.02-.02-.02-.019a1.235 1.235 0 0 0-.419-.274 1.525 1.525 0 0 0-.573-.098 1.477 1.477 0 0 0-.568.108 1.363 1.363 0 0 0-.754.756c-.074.184-.111.38-.11.577a1.54 1.54 0 0 0 .108.577 1.347 1.347 0 0 0 .75.757c.183.073.377.11.574.108.18 0 .36-.02.536-.064.169-.046.33-.115.479-.207l.013-.009v-1.253h-.956zm6.132-.369v.94a.917.917 0 0 1-.045.3.601.601 0 0 1-.117.209.48.48 0 0 1-.353.156.512.512 0 0 1-.222-.042.351.351 0 0 1-.137-.118.488.488 0 0 1-.074-.186 1.26 1.26 0 0 1-.023-.25v-1.01h-.312v1.12a.83.83 0 0 0 .175.55.652.652 0 0 0 .529.21.748.748 0 0 0 .375-.1.777.777 0 0 0 .235-.201v.256h.285v-1.834h-.316zm2.627.538a.932.932 0 0 0-.192-.306.918.918 0 0 0-.688-.278.883.883 0 0 0-.386.092.736.736 0 0 0-.267.22v-.266h-.313v2.747h.313v-1.175a.745.745 0 0 0 .267.214c.12.06.252.09.386.091a.984.984 0 0 0 .39-.073.894.894 0 0 0 .49-.51 1.086 1.086 0 0 0 0-.758v.002zm-.304.647a.577.577 0 0 1-.328.364.675.675 0 0 1-.274.054.647.647 0 0 1-.608-.415.78.78 0 0 1 0-.547.669.669 0 0 1 .137-.22.62.62 0 0 1 .466-.196.654.654 0 0 1 .273.055.588.588 0 0 1 .203.147.658.658 0 0 1 .125.22c.06.175.06.365 0 .54m-6.007-.955v-.258h-.023a.777.777 0 0 0-.696.255v-.229h-.296v1.834h.313v-1.058a.538.538 0 0 1 .67-.521l.034.008-.002-.03zm1.059-.315a1.002 1.002 0 1 0-.002 2.004 1.002 1.002 0 0 0 .002-2.005zm0 1.726a.712.712 0 0 1-.697-.726.698.698 0 1 1 1.395 0 .712.712 0 0 1-.698.726zm5.446-1.581h-.122v-.062h.315v.062h-.122v.336h-.07v-.336zm.239-.062h.11l.104.283h.002l.102-.283H32v.398h-.07v-.32h-.002l-.12.32h-.05l-.119-.32v.32h-.07v-.398z" fill="#7AAADB"/></svg>