<svg height="36" viewBox="0 0 36 36" width="36" xmlns="http://www.w3.org/2000/svg"><mask id="a" fill="#fff"><path d="M0 0h3.213v3.667H0z" fill-rule="evenodd"/></mask><mask id="b" fill="#fff"><path d="M0 0h3.316v3.667H0z" fill-rule="evenodd"/></mask><mask id="c" fill="#fff"><path d="M.099 0h.802v1H.099z" fill-rule="evenodd"/></mask><g fill="none" fill-rule="evenodd"><path d="M18 0c2.837 0 5.52.656 7.907 1.825C31.884 4.753 36 10.895 36 18c0 9.942-8.058 18-18 18-9.94 0-18-8.057-18-18C0 8.06 8.06 0 18 0z" fill="#f2f4f7" fill-rule="nonzero"/><g fill="#0360a2"><path d="M4.803 19.361c0 .301.05.553.2.704a.696.696 0 0 0 .553.2.814.814 0 0 0 .553-.251c.1-.151.15-.503.15-1.004 0-.35-.05-.652-.201-.853a.546.546 0 0 0-.502-.3.809.809 0 0 0-.553.25 1.21 1.21 0 0 0-.2.753zm0 1.506H4V16h.803v1.857c.15-.251.301-.453.453-.503a1 1 0 0 1 .552-.15c.385-.014.747.178.953.501.251.301.352.753.352 1.354.014.476-.107.946-.352 1.354-.25.402-.602.553-1.103.553a1.744 1.744 0 0 1-.501-.101 1.44 1.44 0 0 1-.351-.25zm5.519-.552a.716.716 0 0 1-.603-.301c-.15-.2-.2-.502-.2-.853s.05-.653.2-.853a.748.748 0 0 1 .653-.301c.301 0 .503.1.603.3a.693.693 0 0 1 .15.453h-.753l-.1.653h.904c-.05.6-.352.902-.854.902zm2.46-1.605h-.753a1.552 1.552 0 0 0-.453-.903 1.482 1.482 0 0 0-1.204-.501c-.5 0-.953.15-1.254.5a1.867 1.867 0 0 0-.45 1.305c-.013.46.148.908.451 1.254a1.56 1.56 0 0 0 1.255.553c.47.017.925-.166 1.254-.502a2.07 2.07 0 0 0 .501-1.055h.752z"/><path d="M14.637 20.265v.6a3.359 3.359 0 0 1-.553.1 1.013 1.013 0 0 1-.552-.15 1.163 1.163 0 0 1-.35-.35 2.065 2.065 0 0 1-.102-.703v-1.805h-.55v-.603h.602l.1-.903.653-.05v.953h.703v.603h-.703v1.706c-.003.157.033.31.101.453.1.1.25.1.45.1a.386.386 0 0 0 .201.049"/><path d="M2.41 1.407a.839.839 0 0 0-.25-.603.815.815 0 0 0-.553-.25.757.757 0 0 0-.553.2.869.869 0 0 0-.25.653zm.05 1.054.703.1a1.469 1.469 0 0 1-.553.804 1.59 1.59 0 0 1-1.003.3 1.484 1.484 0 0 1-1.204-.503 2.27 2.27 0 0 1-.401-1.354A1.873 1.873 0 0 1 .454.504 1.483 1.483 0 0 1 1.658.003c.502 0 .904.15 1.154.5.267.384.407.839.4 1.305v.1H.806c-.016.186 0 .373.05.553.065.145.149.279.25.4a.847.847 0 0 0 .503.15.836.836 0 0 0 .852-.55z" mask="url(#a)" transform="translate(14.737 17.303)"/><path d="m20.459 19.563.703.05a1.905 1.905 0 0 1-.501 1.003c-.257.204-.577.31-.904.301a1.265 1.265 0 0 1-1.104-.553 2.241 2.241 0 0 1-.401-1.303c-.02-.477.142-.944.452-1.305a1.392 1.392 0 0 1 1.155-.503c.753 0 1.204.401 1.354 1.205l-.703.1c-.05-.45-.25-.653-.653-.653a.652.652 0 0 0-.602.351 2.138 2.138 0 0 0-.201.853c0 .351.05.653.2.803a.626.626 0 0 0 .554.301c.3.052.55-.199.65-.65m3.915 1.304h-.803V18.56a.671.671 0 0 0-.151-.503.539.539 0 0 0-.35-.15.812.812 0 0 0-.553.251 1.488 1.488 0 0 0-.25.903v1.807h-.804V16.1h.804v1.857c.2-.502.552-.753 1.053-.753.703 0 1.104.401 1.104 1.254v2.408h-.05zm3.363 0h-.803V18.66a.664.664 0 0 0-.15-.5.613.613 0 0 0-.4-.2.81.81 0 0 0-.554.25c-.173.231-.26.513-.25.803v1.806h-.804v-3.514h.703v.803c.251-.603.603-.904 1.054-.904.294.002.58.108.803.301.2.2.351.552.351 1.053z"/><path d="M2.46 1.407a.839.839 0 0 0-.25-.603.813.813 0 0 0-.552-.25.759.759 0 0 0-.553.2.869.869 0 0 0-.25.653zm.05 1.054.704.1a1.467 1.467 0 0 1-.552.804c-.291.21-.644.316-1.004.3a1.484 1.484 0 0 1-1.204-.503c-.301-.35-.452-.753-.452-1.354A1.873 1.873 0 0 1 .454.504 1.482 1.482 0 0 1 1.658.003c.5 0 .903.15 1.154.5a1.7 1.7 0 0 1 .5 1.305v.1H.903c-.015.186 0 .373.052.553.064.145.148.279.25.4a.846.846 0 0 0 .5.15.812.812 0 0 0 .807-.55z" mask="url(#b)" transform="translate(27.984 17.303)"/><path d="M8.265 20.866h-.753v-3.16h.803c-.05 0-.05 3.16-.05 3.16m.051-3.914a.402.402 0 0 1-.803 0 .43.43 0 0 1 .4-.4.432.432 0 0 1 .403.4"/><path d="M.4.402h.05c.05 0 .1 0 .1-.1a.105.105 0 0 0-.1-.1H.4zm0 .25H.35V.2H.5a.187.187 0 0 1 .15.05c.051 0 .051.05.051.1A.107.107 0 0 1 .6.451c.05 0 .05.05.101.1 0 .05 0 .1.05.1H.65A.14.14 0 0 0 .6.552.107.107 0 0 0 .5.451H.45zM.5.1a.341.341 0 0 0-.35.335v.017a.35.35 0 0 0 .701.015V.452A.343.343 0 0 0 .516.101L.5.1zm0-.1a.395.395 0 0 1 .401.39v.012A.402.402 0 1 1 .49 0z" mask="url(#c)" transform="translate(31.099 17.254)"/></g></g></svg>