<svg width="36" height="36" fill="none" xmlns="http://www.w3.org/2000/svg"><path d="M18 0c2.837 0 5.52.656 7.907 1.825C31.884 4.753 36 10.895 36 18c0 9.942-8.058 18-18 18-9.94 0-18-8.057-18-18C0 8.06 8.06 0 18 0z" fill="#F2F4F7"/><path d="M18.12 14.194c.315.049.378-.016.42-.315.104-.695.31-1.371.612-2.006.413-.846 1.066-1.776 1.986-2.401a9.878 9.878 0 0 1 3.021-1.3 7.368 7.368 0 0 1 2.203-.146c1.325.12 2.058.497 2.426.987.123.162.196.357.211.56.011.244-.094.56-.445.871-.351.312-1.065.682-2.055 1.014-1.026.341-2.43.703-3.828 1.024-.811.183-1.61.413-2.395.688-.925.314-1.204 1.235-.63 1.517a8.64 8.64 0 0 1 1.802 1.18c.881.7 1.686 1.49 2.401 2.36.87 1.064 2.296 3.093 2.807 5.063.568 2.164.214 4.214-1.01 4.787-1.2.563-2.8-.249-3.923-1.416-1.066-1.102-1.812-2.406-2.517-4.406-.607-1.73-.853-4.228-.853-5.537 0-.436 0-.529.011-.922.04-.343-.884-.63-1.879.013-1.131.728-2.239 2.045-2.893 2.813-.285.335-.672.826-1.08 1.34-.54.677-1.134 1.382-1.677 1.775-.814.581-2.124.833-3.048.178C7.276 21.55 7 20.861 7 20.16a2.66 2.66 0 0 1 .362-1.38c.315-.54.814-1.12 1.618-1.784a14.24 14.24 0 0 1 3.485-1.987c2.027-.817 4.21-1.073 5.655-.814z" fill="#01ACFB"/></svg>