<svg width="36" height="36" fill="none" xmlns="http://www.w3.org/2000/svg"><path d="M18 0c2.837 0 5.52.656 7.907 1.825C31.884 4.753 36 10.895 36 18c0 9.942-8.058 18-18 18-9.94 0-18-8.057-18-18C0 8.06 8.06 0 18 0z" fill="#F2F4F7"/><path d="M30 12H6v12.598h24V12z" fill="#E98300"/><path d="M16.24 16.599h-4.825a.708.708 0 0 1 0-1.416h4.824a.708.708 0 0 1 0 1.416zM16 19.434a.709.709 0 0 0-.709-.708h-4.824a.708.708 0 1 0 0 1.415h4.825a.708.708 0 0 0 .708-.706zm-7.662-1.777a.709.709 0 0 0 .709.71h4.824a.708.708 0 0 0 0-1.416H9.048a.706.706 0 0 0-.709.706zm9.992-2.434-.3 1.11h1.491l-1.015 3.766h1.285l1.009-3.766h1.492l.294-1.11H18.33zm4.628 0-1.306 4.876h3.918l.286-1.08h-2.658l.24-.886h2.374l.269-.984h-2.379l.234-.85h2.65l.292-1.075H22.96l-.001-.002zm-5.665 6.693a.395.395 0 0 0 .284-.12l-.108-.138a.248.248 0 0 1-.163.073.147.147 0 0 1-.14-.102.146.146 0 0 1-.005-.06.248.248 0 0 1 .214-.26.176.176 0 0 1 .163.098l.163-.115a.327.327 0 0 0-.305-.163.443.443 0 0 0-.457.446.327.327 0 0 0 .356.336l-.002.005zm.769 0a.441.441 0 0 0 .43-.431.325.325 0 0 0-.357-.343.44.44 0 0 0-.43.431.326.326 0 0 0 .358.338l-.001.005zm.01-.181a.152.152 0 0 1-.154-.1.154.154 0 0 1-.01-.064.243.243 0 0 1 .214-.244.154.154 0 0 1 .164.163.244.244 0 0 1-.213.242l-.001.003zm.45.163h.212l.113-.43a.162.162 0 0 1 .163-.148.09.09 0 0 1 .074.021.088.088 0 0 1 .03.07.302.302 0 0 1-.01.067l-.11.41h.212l.108-.4a.611.611 0 0 0 .024-.142.201.201 0 0 0-.138-.194.202.202 0 0 0-.084-.01.308.308 0 0 0-.202.092l.02-.092h-.213l-.199.756zm.862 0h.21l.12-.43a.163.163 0 0 1 .163-.148.09.09 0 0 1 .074.021.09.09 0 0 1 .03.07.285.285 0 0 1-.01.067l-.11.41h.21l.108-.4a.605.605 0 0 0 .025-.135.202.202 0 0 0-.227-.21.308.308 0 0 0-.204.09l.023-.09h-.213l-.199.755zm1.107-.299h.511a.462.462 0 0 0 .038-.163.28.28 0 0 0-.304-.294.448.448 0 0 0-.442.446.31.31 0 0 0 .211.312.31.31 0 0 0 .133.014.436.436 0 0 0 .286-.098l-.097-.13a.276.276 0 0 1-.163.058.147.147 0 0 1-.12-.034.15.15 0 0 1-.051-.114l-.002.003zm.02-.13a.225.225 0 0 1 .209-.164.107.107 0 0 1 .087.026.106.106 0 0 1 .035.084.16.16 0 0 1 0 .049h-.326l-.005.005zm.98.447a.394.394 0 0 0 .28-.12l-.108-.138a.247.247 0 0 1-.163.073.147.147 0 0 1-.14-.102.146.146 0 0 1-.005-.06.248.248 0 0 1 .214-.26.177.177 0 0 1 .163.098l.163-.115a.327.327 0 0 0-.305-.163.443.443 0 0 0-.419.572.327.327 0 0 0 .316.21l.003.005zm.64 0c.052 0 .104-.01.153-.031l.049-.18a.282.282 0 0 1-.108.025.046.046 0 0 1-.062-.054.179.179 0 0 1 0-.033l.083-.313h.175l.049-.181h-.17l.05-.191h-.21l-.05.184H22l-.05.181h.09l-.09.345a.366.366 0 0 0-.012.093.163.163 0 0 0 .189.147l.003.008zm.314-.013h.208l.2-.76h-.212l-.196.76zm.208-.836h.222l.052-.188h-.222l-.052.188zm.408.833h.19l.49-.751h-.226l-.296.49-.034-.49h-.206l.082.75zm.618 0h.213l.204-.758h-.21l-.207.758zm.218-.828h.225l.05-.188h-.213l-.062.188zm.465.84a.37.37 0 0 0 .153-.03l.05-.18a.286.286 0 0 1-.13.025.045.045 0 0 1-.032-.024.045.045 0 0 1-.005-.02.162.162 0 0 1 0-.033l.083-.314h.175l.049-.18h-.175l.05-.192h-.21l-.04.178h-.089l-.049.181h.093l-.09.338a.371.371 0 0 0-.014.093.164.164 0 0 0 .119.15.162.162 0 0 0 .067.004l-.005.005zm.434.21a.346.346 0 0 0 .305-.21l.464-.77h-.229l-.279.506-.034-.506h-.215l.091.751a.09.09 0 0 1-.082.046.147.147 0 0 1-.081-.03l-.113.154c.05.038.11.059.173.059z" fill="#fff"/></svg>