<svg height="36" viewBox="0 0 36 36" width="36" xmlns="http://www.w3.org/2000/svg"><mask id="a" fill="#fff"><path d="M0 0h4.493v2.977H0z" fill-rule="evenodd"/></mask><mask id="b" fill="#fff"><path d="M0 0h1.71v2.529H0z" fill-rule="evenodd"/></mask><mask id="c" fill="#fff"><path d="M0 0h3.198v2.04H0z" fill-rule="evenodd"/></mask><mask id="d" fill="#fff"><path d="M0 0h4.493v2.966H0z" fill-rule="evenodd"/></mask><mask id="e" fill="#fff"><path d="M0 0h1.71v2.529H0z" fill-rule="evenodd"/></mask><mask id="f" fill="#fff"><path d="M0 0h3.198v2.04H0z" fill-rule="evenodd"/></mask><g fill="none" fill-rule="evenodd"><path d="M18 0c2.837 0 5.52.656 7.907 1.825C31.884 4.753 36 10.895 36 18c0 9.942-8.058 18-18 18-9.94 0-18-8.057-18-18C0 8.06 8.06 0 18 0z" fill="#f2f4f7" fill-rule="nonzero"/><g fill="#fefefe"><path d="M4.848 19.385a.96.96 0 0 1-.535-.205c-.012.04.01.059.023.082.105.19.231.369.362.544.213.287.505.392.851.384a.993.993 0 0 0 .303-.027c.458-.086.873-.283 1.275-.51.261-.147.513-.307.73-.517.086-.057.15-.137.22-.21.177-.188.344-.394.416-.641.113-.391.145-.796.134-1.23-.02.072-.035.119-.049.166-.063.217-.196.393-.33.569-.415.46-.918.802-1.477 1.06-.611.284-1.227.554-1.923.535"/><path d="M4.308 1.153a.868.868 0 0 0 .158-.308c.055-.18.027-.34-.118-.475a1.207 1.207 0 0 0-.313-.223A1.675 1.675 0 0 0 3.363 0a4.137 4.137 0 0 0-1.689.34c-.453.188-.867.438-1.203.8-.339.367-.532.784-.455 1.3.04.26.15.444.42.503l.122.022c.226.024.45.01.67-.041a6.558 6.558 0 0 0 2.39-1.087c.265-.191.511-.406.69-.685" mask="url(#a)" transform="translate(4 16)"/><path d="M22.13 18.178c-.008-.073.008-.146-.067-.175-.149-.057-.436.08-.428.265.02.41.008.822.005 1.232a.383.383 0 0 0 .134.292c.077.075.15.073.227-.005a.437.437 0 0 0 .124-.318v-.755c0-.039-.002-.076.037-.103a.953.953 0 0 1 .226-.128c.191-.065.29.004.29.206.001.27.004.54 0 .81a.366.366 0 0 0 .103.266c.101.112.2.106.29-.017a.518.518 0 0 0 .092-.314v-.727c0-.036-.003-.07.034-.096a.89.89 0 0 1 .252-.136c.17-.049.261.02.261.196.001.275.004.551 0 .827a.385.385 0 0 0 .137.3c.074.067.14.066.215-.003a.405.405 0 0 0 .131-.297c.004-.326.012-.653 0-.98-.02-.479-.419-.694-.839-.464a1.214 1.214 0 0 0-.22.154c-.034.03-.049.025-.075-.01-.175-.248-.4-.305-.676-.178-.087.041-.165.096-.254.158m2.824 1.602c.049.016.086.03.123.04a.834.834 0 0 0 .991-.383c.203-.355.205-.72.008-1.079a.761.761 0 0 0-1.008-.324c-.061.03-.114.075-.157-.019-.003-.007-.015-.01-.023-.014-.167-.072-.418.09-.418.271 0 .632.002 1.264-.001 1.896a.384.384 0 0 0 .123.288c.086.087.174.083.254-.01a.455.455 0 0 0 .108-.29v-.377m-7.693-1.203c-.003.191.036.374.11.55.286.661 1.07.945 1.704.619a.468.468 0 0 0 .272-.385c.014-.118-.035-.167-.154-.161-.058.004-.11.026-.164.046-.07.025-.14.056-.211.074-.555.147-1.013-.186-1.025-.744-.008-.376.209-.692.547-.788a.875.875 0 0 1 .637.07c.05.024.103.052.155.026.123-.065.162-.184.183-.312.019-.115-.058-.159-.141-.201-.868-.446-1.911.211-1.913 1.206m-1.272 1.058c.03.043.058.09.093.129.103.118.203.11.294-.02.066-.093.09-.2.089-.314v-1.26c0-.156-.057-.22-.202-.166-.153.057-.277.017-.42-.02-.472-.121-.974.204-1.097.696-.123.495.17 1.009.65 1.136.296.078.426.038.593-.181m11.674-.009c.033.048.06.095.094.136.103.119.202.114.294-.015a.502.502 0 0 0 .091-.304v-1.275c0-.153-.055-.217-.195-.165-.157.06-.284.017-.43-.02-.479-.122-.992.223-1.099.725-.11.515.22 1.03.718 1.123.29.053.406.008.527-.205m-15.569-.535c.165 0 .33-.001.495.002a.187.187 0 0 0 .174-.091.392.392 0 0 0 .064-.202.805.805 0 0 0-.526-.783c-.334-.12-.65-.07-.917.164a.927.927 0 0 0-.309.95c.136.609.801.98 1.48.592a.255.255 0 0 0 .104-.12c.038-.085.088-.184.018-.261-.069-.076-.169-.03-.252.005-.088.037-.175.079-.269.1-.26.064-.517-.055-.607-.28-.022-.054-.022-.078.05-.076.164.004.33 0 .495 0m8.355-1.131a.942.942 0 0 0-.954.959c0 .539.422.964.954.962a.95.95 0 0 0 .951-.957.946.946 0 0 0-.95-.964m7.985.931c0 .201.003.401 0 .603a.381.381 0 0 0 .121.288c.088.09.171.087.254-.008a.45.45 0 0 0 .11-.306v-.737c0-.032-.005-.064.031-.086.13-.08.26-.16.416-.186.178-.03.277.051.277.231.001.27.004.54 0 .808a.39.39 0 0 0 .124.288c.086.085.167.082.248-.01a.422.422 0 0 0 .111-.286c.001-.322.01-.642-.003-.962-.015-.389-.346-.633-.729-.554a1.168 1.168 0 0 0-.415.185c-.043.028-.064.03-.06-.03.002-.05-.004-.1-.056-.123-.144-.062-.449.07-.433.256.017.21.004.42.004.63m-18.271-.193c0 .261.004.521-.002.782a.405.405 0 0 0 .124.298c.089.095.184.092.269-.008a.488.488 0 0 0 .115-.33c-.002-.516 0-1.032-.002-1.547 0-.063.017-.083.08-.08.123.005.246 0 .369.002.08.002.138-.03.186-.09a.487.487 0 0 0 .1-.246c.018-.145-.023-.194-.17-.194H9.8a.472.472 0 0 0-.31.104c-.04.033-.071.072-.072.128-.004.132.153.296.285.297.128.001.258.004.387 0 .06-.003.073.02.073.075-.002.27-.001.54-.001.81"/><path d="M.872.983.477.151C.404-.003.329-.032.17.031-.009.104-.04.185.046.357c.182.363.363.728.547 1.091a.134.134 0 0 1 .003.133c-.094.194-.183.39-.273.586-.022.046-.042.094-.021.146.042.1.095.198.21.214s.16-.086.209-.168l.009-.017.934-2.01A.454.454 0 0 0 1.71.115C1.706.052 1.676.017 1.612.007a.373.373 0 0 0-.38.2L.966.784C.938.847.908.908.872.983" mask="url(#b)" transform="translate(30.29 17.986)"/><path d="M0 1.447c.134.131.276.248.434.346.211.132.431.237.686.246.308.011.573-.113.816-.286.61-.434.995-1.036 1.262-1.721C3.2.026 3.195.017 3.191 0a2.983 2.983 0 0 1-.329.425c-.484.503-1.075.831-1.736 1.04-.282.088-.57.133-.866.069-.09-.02-.171-.065-.26-.087" mask="url(#c)" transform="translate(5.125 18.817)"/><path d="M13.093 18.477h.003c0 .323-.005.647.002.971.004.177.104.301.266.373.066.028.138.044.207.001.093-.058.176-.25.154-.357-.007-.03-.02-.059-.05-.07-.088-.037-.097-.108-.097-.19.002-.52 0-1.039 0-1.557 0-.084.002-.168 0-.25-.001-.05-.012-.096-.064-.12-.161-.075-.421.086-.421.264zm1.38.336v-.675c-.001-.058-.004-.115-.072-.139-.18-.066-.414.096-.414.287 0 .402.003.803-.001 1.205a.39.39 0 0 0 .114.282c.095.101.185.097.272-.013a.492.492 0 0 0 .101-.327v-.62m.031-1.429c.002-.14-.043-.189-.155-.188a.377.377 0 0 0-.116.015c-.112.036-.234.08-.262.207-.025.117.062.206.14.284.08.08.165.077.247-.002a.478.478 0 0 0 .146-.316"/></g><path d="M8.308 17.153c-.179.279-.425.494-.69.685a6.558 6.558 0 0 1-2.39 1.087 2.01 2.01 0 0 1-.67.04c.005-.04-.013-.074-.029-.11-.143-.326-.217-.66-.079-1.005.103-.26.262-.478.474-.662.214-.186.45-.338.7-.465.236-.121.488-.21.746-.278.392-.103.788-.172 1.192-.083.211.046.401.138.533.319a.941.941 0 0 1 .173.398c.006.03.006.06.04.074m13.822 1.025c.088-.062.166-.117.253-.158.275-.127.501-.07.676.177.026.036.041.04.074.011.067-.059.142-.11.221-.154.42-.23.818-.015.838.464.013.327.005.654.001.98a.405.405 0 0 1-.13.297c-.076.07-.142.07-.216.002a.385.385 0 0 1-.138-.299c.005-.276.002-.552.001-.827 0-.177-.092-.245-.26-.196a.89.89 0 0 0-.253.136c-.037.025-.034.06-.034.096v.727c0 .114-.025.22-.093.314-.089.123-.188.13-.289.017a.366.366 0 0 1-.104-.267c.005-.27.002-.539.001-.809 0-.202-.099-.27-.29-.206a.953.953 0 0 0-.226.128c-.039.027-.037.064-.037.103v.755c0 .122-.038.23-.124.318-.077.078-.15.08-.227.005a.383.383 0 0 1-.134-.292c.003-.41.014-.822-.005-1.232-.008-.186.28-.322.428-.265.075.03.06.102.066.175m-14.271.958c-.217.21-.47.37-.73.518-.402.226-.817.423-1.275.509a.993.993 0 0 1-.303.027c0-.021-.003-.038-.022-.054a4.124 4.124 0 0 1-.52-.513c-.061-.073-.144-.133-.16-.238.696.019 1.312-.251 1.923-.534a4.505 4.505 0 0 0 1.477-1.061c0 .039.008.079 0 .116a4.422 4.422 0 0 1-.286.947c-.041.09-.105.176-.104.283m17.095-.207v.332c-.002.04.008.066.048.084.4.179.705-.025.736-.393.017-.198-.037-.378-.22-.488-.166-.1-.333-.061-.493.03-.05.03-.077.066-.073.13.006.1.002.203.002.305m0 .85v.378a.444.444 0 0 1-.109.289c-.08.093-.167.097-.254.01a.388.388 0 0 1-.123-.288c.003-.632.001-1.263.002-1.895 0-.181.251-.344.418-.271.008.004.02.007.022.014.044.093.096.048.158.018a.763.763 0 0 1 1.008.325 1.05 1.05 0 0 1-.008 1.079.836.836 0 0 1-.992.383c-.037-.011-.073-.025-.122-.041m-7.693-1.204c.002-.995 1.045-1.652 1.913-1.206.083.042.16.086.14.201-.02.128-.06.247-.182.312-.052.026-.105-.002-.155-.026a.875.875 0 0 0-.637-.07c-.338.096-.555.412-.547.788.012.558.47.891 1.025.744.072-.018.14-.049.21-.074.055-.02.107-.042.165-.046.119-.006.168.043.154.161a.468.468 0 0 1-.272.385 1.242 1.242 0 0 1-1.703-.619 1.336 1.336 0 0 1-.111-.55" fill="#990ce2"/><path d="M4.308 1.153c-.034-.014-.034-.043-.04-.074A.941.941 0 0 0 4.095.68C3.963.5 3.773.408 3.562.36c-.404-.088-.8-.02-1.192.084-.258.068-.51.157-.747.278-.25.127-.485.279-.699.465a1.695 1.695 0 0 0-.474.662c-.138.346-.064.679.08 1.006.015.035.033.069.028.11l-.122-.022c-.27-.06-.38-.242-.42-.502-.077-.517.116-.934.455-1.3.336-.363.75-.613 1.203-.801A4.137 4.137 0 0 1 3.364 0c.232.005.458.048.671.146.118.055.218.134.313.223.145.135.173.295.118.475a.868.868 0 0 1-.158.308" fill="#9211d8" mask="url(#d)" transform="translate(4 16)"/><path d="M15.979 18.898v-.278c0-.158 0-.158-.154-.195-.01-.002-.018-.006-.027-.006a.493.493 0 0 0-.547.234.516.516 0 0 0 .077.592.495.495 0 0 0 .587.096c.044-.02.068-.047.065-.102-.005-.113-.001-.228-.001-.34m.009.734c-.167.22-.298.26-.593.181-.48-.127-.773-.64-.65-1.136.123-.49.625-.817 1.096-.696.143.037.267.078.42.02.146-.054.203.011.203.167v1.26a.529.529 0 0 1-.09.314c-.09.13-.19.137-.293.02-.036-.04-.062-.087-.093-.13m11.668-.739c0-.117-.002-.233 0-.35.002-.046-.011-.07-.055-.088a.58.58 0 0 0-.36-.035.446.446 0 0 0-.357.362c-.044.214.016.4.2.528.169.118.348.106.529.02.035-.018.044-.04.043-.079v-.358m.007.73c-.121.213-.238.258-.528.206-.497-.092-.827-.609-.717-1.123.107-.503.62-.848 1.099-.726.146.038.273.08.43.021.14-.053.194.012.194.164v1.276a.504.504 0 0 1-.09.304c-.092.128-.191.133-.294.014-.035-.04-.061-.088-.094-.136m-15.709-.904c.12 0 .238-.003.358 0 .063.003.069-.02.055-.072a.398.398 0 0 0-.405-.29c-.201.002-.387.137-.426.307-.012.05.01.056.05.055h.368m.14.37c-.165 0-.331.004-.496 0-.072-.002-.072.023-.05.077.09.224.346.343.608.28.094-.022.18-.064.269-.101.083-.035.182-.081.252-.005.07.077.019.176-.018.26a.255.255 0 0 1-.105.12c-.68.39-1.343.019-1.48-.59a.928.928 0 0 1 .309-.951c.268-.234.584-.283.918-.164a.807.807 0 0 1 .525.783.392.392 0 0 1-.064.202.187.187 0 0 1-.174.09c-.164-.002-.33 0-.494 0m8.352-.682c-.269 0-.469.216-.469.506 0 .295.204.516.473.513.266-.003.467-.224.467-.512s-.204-.507-.47-.507m.001-.45c.535 0 .953.425.951.964a.95.95 0 0 1-.95.957.949.949 0 0 1-.955-.962c0-.541.416-.96.954-.959m7.986.931c0-.21.013-.42-.004-.629-.016-.187.29-.318.433-.256.052.023.058.073.055.122-.003.06.018.06.061.031.127-.086.263-.153.415-.185.383-.079.714.165.73.554.011.32.003.64.002.962a.422.422 0 0 1-.11.286c-.082.092-.163.095-.249.01a.39.39 0 0 1-.125-.288c.005-.269.002-.539.001-.808 0-.18-.099-.26-.277-.23-.156.025-.286.104-.416.185-.036.022-.03.054-.03.086-.002.246-.002.491-.002.737a.45.45 0 0 1-.109.306c-.083.095-.166.097-.254.008a.381.381 0 0 1-.122-.288c.004-.202.001-.402.001-.603m-18.271-.192v-.809c0-.056-.011-.078-.072-.076-.13.005-.26.002-.387.001-.132 0-.29-.165-.285-.297 0-.056.033-.095.073-.128a.472.472 0 0 1 .309-.104h1.43c.148 0 .189.05.172.194a.487.487 0 0 1-.101.246.217.217 0 0 1-.186.09c-.123-.003-.246.003-.37-.002-.062-.003-.08.017-.08.08.003.515 0 1.031.003 1.546a.488.488 0 0 1-.115.331c-.085.1-.18.103-.27.008a.405.405 0 0 1-.123-.298c.006-.26.002-.52.002-.782" fill="#990ce2"/><path d="M.872.983C.908.908.938.847.966.785l.266-.579a.373.373 0 0 1 .38-.199c.064.01.094.045.098.108a.454.454 0 0 1-.046.217L.73 2.342l-.009.017c-.049.082-.094.184-.209.168s-.168-.114-.21-.214c-.021-.052-.001-.1.021-.146.09-.196.179-.392.273-.586a.134.134 0 0 0-.003-.133C.409 1.085.228.72.046.358-.04.184-.009.103.17.03c.159-.063.234-.034.307.12l.395.832" fill="#990ce2" mask="url(#e)" transform="translate(30.29 17.986)"/><path d="M0 1.447c.089.022.17.067.26.087.296.064.584.019.866-.069.661-.209 1.252-.537 1.736-1.04.123-.128.226-.27.329-.425.004.017.009.026.007.032-.267.685-.652 1.287-1.262 1.721-.243.173-.508.297-.816.286-.255-.009-.475-.114-.686-.246A2.527 2.527 0 0 1 0 1.447" fill="#9211d8" mask="url(#f)" transform="translate(5.125 18.817)"/><path d="M13.093 18.477v-.935c0-.178.26-.339.42-.264.053.024.064.07.065.12.002.082 0 .166 0 .25 0 .518.002 1.037 0 1.556 0 .083.009.154.098.19.03.012.042.041.049.071.022.107-.061.3-.154.357-.07.043-.141.027-.207 0-.162-.073-.262-.197-.266-.374-.007-.324-.002-.648-.002-.97zm1.38.336v.62a.492.492 0 0 1-.101.327c-.087.11-.177.114-.272.013a.39.39 0 0 1-.114-.282c.004-.402.001-.803.001-1.205 0-.19.234-.353.414-.287.068.024.071.081.072.14v.017z" fill="#990ce2"/><path d="M7.858 19.136c-.001-.107.063-.192.104-.283.138-.303.22-.623.287-.947.007-.037 0-.077-.001-.116.133-.176.267-.352.33-.57l.05-.164c.01.433-.021.838-.134 1.229-.072.247-.24.453-.418.64-.07.074-.132.154-.218.21m-3.01.25c.017.104.1.165.162.238.156.186.33.357.518.513.019.016.022.033.022.054-.346.008-.638-.097-.851-.384a4.81 4.81 0 0 1-.363-.544c-.013-.023-.036-.042-.024-.082a.96.96 0 0 0 .535.205" fill="#9211d8"/><path d="M14.504 17.384a.478.478 0 0 1-.146.316c-.082.08-.166.081-.246.002-.08-.078-.166-.167-.141-.284.028-.128.15-.17.262-.207a.377.377 0 0 1 .116-.015c.112 0 .157.047.155.188" fill="#990ce2"/><path d="M24.953 18.929c0-.102.004-.204-.002-.305-.004-.064.022-.1.073-.13.16-.091.327-.13.493-.03.183.11.237.29.22.488-.03.368-.337.572-.736.393-.04-.018-.05-.043-.049-.084.002-.11.001-.222.001-.332m-8.974-.031c0 .113-.004.228 0 .341.004.055-.02.081-.064.102a.495.495 0 0 1-.587-.096.516.516 0 0 1-.077-.592.493.493 0 0 1 .547-.234c.009 0 .018.004.027.006.154.037.154.037.154.195zm11.677-.004v.358c0 .038-.008.061-.043.08-.181.085-.36.097-.528-.02-.185-.13-.245-.315-.201-.529a.446.446 0 0 1 .357-.362.58.58 0 0 1 .36.035c.044.017.057.042.056.087-.003.118-.001.234-.001.351m-15.702-.174h-.369c-.04 0-.062-.005-.05-.055.04-.17.225-.305.427-.307a.398.398 0 0 1 .404.29c.014.053.008.075-.054.073-.12-.004-.239-.001-.359-.001m8.493-.311c.267 0 .471.219.471.507s-.2.509-.467.512c-.269.003-.473-.218-.473-.513 0-.29.2-.506.47-.506" fill="#fefefe"/></g></svg>