<svg height="36" viewBox="0 0 36 36" width="36" xmlns="http://www.w3.org/2000/svg"><mask id="a" fill="#fff"><path d="M0 0h21.756v3.547H0z" fill-rule="evenodd"/></mask><mask id="b" fill="#fff"><path d="M0 0h3.509v4.723H0z" fill-rule="evenodd"/></mask><g fill="none" fill-rule="evenodd"><path d="M18 0c2.837 0 5.52.656 7.907 1.825C31.884 4.753 36 10.895 36 18c0 9.942-8.058 18-18 18-9.94 0-18-8.057-18-18C0 8.06 8.06 0 18 0z" fill="#f2f4f7" fill-rule="nonzero"/><path d="M31.629 23.344c-.1.277-.218.324-.347.324a.365.365 0 0 1-.153-.03l.035-.11a.247.247 0 0 0 .115.026c.089 0 .17-.07.227-.265l-.345-.766h.152l.26.596h.006l.2-.596h.142zm-.697-.06v-.461c0-.09-.014-.19-.125-.19-.085 0-.164.056-.223.107v.545h-.142v-.762h.119l.018.087a.43.43 0 0 1 .27-.107c.113 0 .227.076.227.272v.51zm-.83-.36-.138.005c-.126.005-.177.047-.177.125 0 .072.047.129.14.129a.24.24 0 0 0 .176-.074zm.04.36-.03-.071a.325.325 0 0 1-.23.089.23.23 0 0 1-.238-.237c0-.154.11-.243.31-.25l.149-.005v-.03c0-.117-.068-.16-.158-.16a.333.333 0 0 0-.2.068l-.053-.097a.445.445 0 0 1 .279-.088c.159 0 .276.069.276.265v.257c0 .18.005.233.016.26zm-1.016-.657a.368.368 0 0 0-.118.019v.51a.27.27 0 0 0 .116.027c.15 0 .249-.11.249-.284 0-.188-.114-.272-.247-.272zm.004.675a.346.346 0 0 1-.122-.022v.388h-.142v-1.113a.764.764 0 0 1 .264-.052c.246 0 .389.15.389.39 0 .259-.185.409-.39.409zm-.606-.017v-.49c0-.095-.02-.166-.118-.166-.092 0-.166.057-.222.105a.482.482 0 0 1 0 .039v.512h-.142v-.486c0-.096-.022-.17-.12-.17-.092 0-.164.057-.221.107v.549h-.143v-.762h.119l.018.089a.438.438 0 0 1 .269-.11c.094 0 .164.05.192.125a.443.443 0 0 1 .276-.124c.12 0 .236.06.236.247v.535zm-1.7-.383c0 .17.08.282.214.282s.212-.114.212-.282c0-.17-.078-.281-.215-.281s-.211.113-.211.28zm.468-.295c.067.07.105.174.105.297s-.04.227-.11.297a.339.339 0 0 1-.252.1.34.34 0 0 1-.247-.093.42.42 0 0 1-.11-.303c0-.124.039-.227.109-.3a.338.338 0 0 1 .25-.102.34.34 0 0 1 .255.104zm-.984.695c-.323 0-.518-.23-.518-.535a.53.53 0 0 1 .545-.552c.123 0 .218.028.273.062l-.001.14a.475.475 0 0 0-.273-.078c-.241 0-.39.186-.39.418 0 .24.144.416.383.416a.543.543 0 0 0 .254-.067l.04.11a.623.623 0 0 1-.313.086zm-1.363-.683c-.107 0-.173.094-.173.204h.339c0-.098-.055-.204-.166-.204zm-.171.315c0 .136.087.247.24.247a.378.378 0 0 0 .186-.054l.04.096a.44.44 0 0 1-.253.079c-.25 0-.363-.195-.363-.408 0-.22.128-.391.322-.391.2 0 .317.156.317.394v.037zm-.243-.273a.188.188 0 0 0-.08-.017c-.045 0-.111.034-.16.084v.557h-.142v-.762h.119l.017.086c.095-.088.155-.106.215-.106.035 0 .068.013.087.027zm-.721.264-.14.004c-.125.005-.177.047-.177.125 0 .072.047.129.14.129a.242.242 0 0 0 .177-.074zm.04.36-.031-.072a.325.325 0 0 1-.231.089.23.23 0 0 1-.238-.237c0-.154.11-.243.31-.25l.15-.005v-.03c0-.117-.068-.16-.16-.16a.327.327 0 0 0-.198.068l-.053-.097a.44.44 0 0 1 .278-.088c.16 0 .276.069.276.265v.257c0 .18.005.233.016.26zm-.792.005h-.12l-.183-.584h-.005l-.184.584h-.118l-.261-.767h.145l.179.576h.005l.18-.576h.12l.186.578h.004l.176-.578h.137zm-1.126.012c-.12 0-.173-.067-.173-.168v-.497h-.127v-.114h.127v-.171l.144-.045v.216h.236l-.047.114h-.19v.449c0 .063.025.092.075.092a.238.238 0 0 0 .132-.05l.042.097a.393.393 0 0 1-.22.077zm-.348-1.02a.228.228 0 0 0-.094-.02c-.068 0-.098.043-.098.122v.139h.2l-.046.116h-.154v.646h-.144v-.646h-.1v-.116h.1v-.126c0-.208.14-.253.239-.253.035 0 .085.008.125.029zm-1.124.62c0 .17.08.282.214.282s.21-.114.21-.282c0-.17-.076-.281-.213-.281-.138 0-.211.113-.211.28zm.467-.295c.068.07.105.174.105.297s-.04.227-.108.297a.339.339 0 0 1-.253.1.339.339 0 0 1-.247-.093.421.421 0 0 1-.11-.303c0-.124.039-.227.108-.3a.338.338 0 0 1 .25-.102c.105 0 .192.037.255.104zm-1.09.695a.529.529 0 0 1-.302-.09l.065-.11a.4.4 0 0 0 .234.077c.092 0 .2-.043.2-.147 0-.175-.257-.21-.386-.353a.267.267 0 0 1-.074-.191c0-.152.116-.273.319-.273.113 0 .194.027.245.053l-.001.142a.456.456 0 0 0-.237-.071c-.1 0-.181.04-.181.134 0 .223.468.22.468.544 0 .172-.152.285-.35.285zm-1.326-.52c0 .097.063.17.16.17.093 0 .163-.058.163-.167a.16.16 0 0 0-.165-.166c-.092 0-.158.064-.158.163zm.035.512c-.035.023-.093.06-.093.127 0 .074.09.136.234.136.137 0 .224-.05.224-.124 0-.125-.27-.11-.365-.14zm.129.374c-.23 0-.36-.103-.36-.227 0-.086.06-.147.144-.188a.102.102 0 0 1-.053-.095c0-.04.028-.095.09-.143a.263.263 0 0 1-.127-.233c0-.155.122-.28.294-.28.058 0 .1.01.138.029.01.004.013.003.019-.001.04-.04.117-.072.222-.057l-.036.119c-.04-.01-.08-.013-.11.002a.264.264 0 0 1 .083.196c0 .166-.13.28-.304.28a.291.291 0 0 1-.1-.016.115.115 0 0 0-.032.079c0 .112.526 0 .526.285 0 .129-.12.25-.394.25zm-.624-.383v-.462c0-.09-.014-.19-.126-.19-.084 0-.163.056-.223.107v.545h-.142v-.762h.12l.018.087a.43.43 0 0 1 .27-.107c.112 0 .227.076.227.272v.51zm-.857 0h.142v-.762h-.142zm.166-1.003c0 .052-.043.096-.095.096s-.094-.042-.095-.094v-.002a.095.095 0 0 1 .19 0zm-.453 1.003-.308-.381h-.003v.38h-.142v-1.14h.142v.645h.003l.268-.266h.177l-.327.316.366.446zm-.795 0v-.462c0-.09-.015-.19-.126-.19-.084 0-.163.056-.223.107v.545h-.141v-.762h.119l.017.087c.088-.065.165-.107.27-.107.113 0 .227.076.227.272v.51zm-.83-.36-.138.004c-.126.005-.178.047-.178.125 0 .072.047.129.14.129a.24.24 0 0 0 .177-.074zm.04.36-.03-.072a.329.329 0 0 1-.23.089.23.23 0 0 1-.24-.237c0-.154.112-.243.312-.25l.149-.005v-.028c0-.12-.068-.161-.158-.161a.334.334 0 0 0-.201.067l-.053-.097a.445.445 0 0 1 .279-.088c.16 0 .276.069.276.265v.257c0 .18.005.233.016.26zm-.99-.478h-.154v.35h.147c.143 0 .219-.076.219-.182 0-.096-.081-.168-.211-.168zm-.154-.457v.329h.129c.085 0 .174-.06.174-.17 0-.098-.058-.16-.182-.16zm.145.935h-.29v-1.062h.31c.2 0 .288.136.288.26 0 .103-.048.19-.142.23v.002a.261.261 0 0 1 .208.256c0 .147-.093.314-.374.314zm-1.194-.666c-.106 0-.172.094-.172.204h.339c0-.098-.055-.204-.167-.204zm-.17.315c0 .136.087.247.24.247a.38.38 0 0 0 .185-.053l.04.095a.445.445 0 0 1-.253.079c-.248 0-.363-.195-.363-.408 0-.22.128-.391.323-.391.2 0 .316.156.316.394v.037zm-.454.35v-.462c0-.092-.016-.188-.13-.188-.083 0-.16.057-.217.106v.545h-.142v-1.141h.142v.466a.419.419 0 0 1 .263-.107c.11 0 .228.067.228.28v.502zm-.617-.934h-.297v.935h-.146v-.935h-.304v-.127h.79z" fill="#99b8d3"/><path d="M20.619 3.547c-.468 0-.784-.152-.989-.29l.21-.363c.148.111.426.253.763.253.3 0 .653-.142.653-.485 0-.568-.837-.683-1.258-1.146a.878.878 0 0 1-.242-.627c0-.494.379-.889 1.042-.889.368 0 .632.089.8.173l-.005.464a1.504 1.504 0 0 0-.774-.233c-.321 0-.59.132-.59.438 0 .726 1.527.721 1.527 1.773 0 .563-.495.932-1.137.932zM17.456.421c-.747 0-1.231.526-1.231 1.357 0 .832.484 1.358 1.231 1.358s1.232-.526 1.232-1.358c0-.789-.443-1.357-1.232-1.357zm-1.242.073A1.73 1.73 0 0 1 17.456 0c.537 0 .995.199 1.3.542.279.316.437.741.437 1.232 0 .531-.19.989-.511 1.304-.31.3-.731.469-1.226.469-.479 0-.884-.153-1.189-.432-.342-.316-.542-.784-.542-1.332 0-.52.179-.967.489-1.289zm-1.563 3-1.694-2.237a3.407 3.407 0 0 1-.358-.516h-.011c.011.117.016.259.016.432v2.321h-.468V.026h.479l1.626 2.153c.211.278.31.41.378.552h.011c-.005-.131-.011-.279-.011-.453V.026h.469v3.468zm-4.984 0V.026h1.774l-.153.416h-1.152v1.074h1.142v.41h-1.142v1.152h1.316v.416zm-1.299 0V1.137c0-.127 0-.206.01-.369h-.005a1.971 1.971 0 0 1-.19.347l-.857 1.369h-.274L6.136 1.11c-.058-.089-.121-.184-.189-.342h-.011c.021.163.021.242.021.363v2.363h-.468V.026h.458l1.052 1.563c.09.143.147.231.189.326h.011c.042-.089.084-.183.179-.331l.99-1.558h.468v3.468zm-5.348 0V.026h1.774l-.153.416H3.489v1.074h1.142v.41H3.489v1.152h1.316v.416zM2.436.442h-.968v3.052H.994V.442H0V.026h2.578z" fill="#004e8f" mask="url(#a)" transform="translate(10.244 17.667)"/><path d="m7.509 18.424 2.5-2.225-.41-3.371-2.812 2.104z" fill="#90d1df"/><path d="m3.509 4.723-.722-3.492L0 0l.898 3.188z" fill="#c2e6ee" mask="url(#b)" transform="translate(4 13.7)"/><path d="m4 13.701 2.787 1.23L9.6 12.828 6.758 12z" fill="#def2f6"/><path d="M5.572 14.122c.024.001.04-.009.06-.002.008.002.025.008.033.006.01-.002.008-.006.017-.006 0-.013-.01-.017-.01-.04.017.004.022.02.037.023.025.008.036-.014.063-.016v.014l.013-.003c0 .006 0 .006.003.01.012.004.004-.005.013-.007.036-.007.048.023.073-.002a.094.094 0 0 0 .014-.034c.013.003.01.006.027.007 0-.007 0-.006.003-.01.007-.003.003 0 .01 0-.004-.008 0-.002-.007-.006 0-.032-.02-.018-.03-.038-.016.004-.014.013-.023.024-.008.005-.018 0-.026 0-.02.011-.038.01-.054.03l-.02-.005-.003-.003c0-.032.02-.028.04-.04v-.016c-.024.003-.03.013-.046.013l-.003.003c.003-.015.018-.02.02-.033 0-.006-.006-.015-.006-.027.009 0 .018 0 .023.004.009-.004.003-.01.01-.02 0-.018.006-.012.017-.016-.002-.013-.005-.015-.007-.027-.022.001-.016.005-.026.01-.01.004-.016-.006-.02-.007s-.01.006-.01.006l-.003-.003H5.75a.037.037 0 0 0-.003.017c-.014 0-.015.002-.024.006.004.017.006.018.016.027.003.003.003.003.004.01-.008 0-.012 0-.017.003-.016.006 0 .01-.01.017h-.003a.904.904 0 0 0-.053.002c-.01.004-.013.011-.027.013 0-.008 0-.012.003-.016.007-.006.014-.005.017-.007h.003c-.003-.003-.002-.002-.01-.003v-.01l-.003-.004h-.02v.017l-.016.003c0-.008 0-.01.003-.013-.022-.015-.056-.009-.076-.028-.003-.007-.003-.003.003-.01v-.003a.154.154 0 0 1-.03-.004c.003-.012.003-.014.01-.019v-.007c-.014-.002-.035.002-.05-.007-.008.005-.002 0-.002.013-.011.005-.018.007-.024.016h-.016c-.002-.013-.01-.018-.003-.03a1.618 1.618 0 0 0-.083-.027v-.014c.009 0 .015.001.02.004.012 0 .008.002.013-.006.003-.004.002 0 .004-.007l-.017-.017c-.01-.004-.02.002-.026-.003-.013-.01-.026-.04-.046-.054-.003-.002-.025 0-.037 0 .003-.008.002-.006.007-.01v-.01c-.014.006-.023.014-.033.01h-.006a.07.07 0 0 1 .013-.04v-.004c-.016.005-.02.01-.03.013-.015.005-.021-.01-.03-.007-.012.004-.03.01-.043 0H5.12v-.01c.01 0 .015 0 .02.003l.024.001v-.007c-.018 0-.037-.006-.047-.004-.028.007-.063.016-.083.002-.015-.008-.013-.025-.023-.04a.58.58 0 0 1-.033-.02c-.003-.005.003-.013-.003-.017a.388.388 0 0 1-.033-.007c-.016-.009-.031-.03-.046-.04-.013-.008-.032-.007-.043-.017H4.85v-.006h.007c-.006-.01-.016-.014-.03-.014.002-.006 0-.004.003-.007-.005-.009-.01-.007-.013-.02-.017 0-.031.01-.043.006-.006-.002-.008-.014-.016-.013-.01.002-.021.014-.034.016 0-.007 0-.006.003-.01v-.003a.231.231 0 0 0-.086.012c-.021-.003-.044-.007-.07-.007 0 .012.013.03 0 .04.005.011.008.007.017.014.002.003.002.003.003.01h.01v.003c.002.004.002.003.003.01l-.036-.004v-.01c-.007.005-.007.004-.011.014l-.03-.008c.003-.01-.001-.005.007-.009v-.01c-.01.001-.041-.003-.05.003h-.03c.004.01.006.008.007.02-.01 0-.011.001-.016.003.01.026.05.025.089.024v.01c-.03.006-.021.018-.04.026-.011.004-.05-.004-.07-.004v-.01c-.03.007-.044.016-.08.02l-.003.002c.004.008-.001.002.006.007-.003.018-.011.015-.026.02 0 .02.008.021.029.02-.002.01-.005.012-.007.023-.008.002-.01.001-.013.003l-.007.004c.007.013.013 0 .024.006.003.002.007.011.01.014.006-.006.012-.006.023-.007v.011h-.01c.005.003.01.003.02.003-.003.016-.014.011-.02.016v.007l-.017-.003c-.005.001-.007.011-.01.013H4.34l-.02-.004-.014.007c-.027.005-.037-.008-.053.006h-.007l.028.012.026-.005.029.006.075.023.023-.005.02.01-.035.007-.01.007.027.008.026.001-.003-.016.028.023.035.037.063.03.05.03.759.335c0-.008 0-.012.003-.016-.001-.023-.013-.026-.023-.04l-.03-.004v-.01c.022-.005.023-.022.04-.03-.003-.009-.008-.01-.02-.013.005-.035.082-.04.105-.053h.006v-.009c.017 0 .059-.014.07-.003.02.001.029.003.033-.013z" fill="#6695bc"/><path d="M6.1 13.705v.01h-.01a.066.066 0 0 0 .037.013v.01c-.011 0-.024 0-.03-.003H6.09a.154.154 0 0 0 .012.013c-.002.01.002.006-.006.01.004.01.009.009.013.02.036-.005.088.006.143.009v-.01c-.006.002-.004 0-.007.003-.008-.004-.008-.01-.016-.013.002-.013 0-.004.007-.011a.052.052 0 0 0 .006-.013l-.006-.003c-.005-.003-.004 0-.013 0v-.01l-.011-.001c-.004-.006-.002-.005-.01-.01 0-.015.003-.02.007-.03-.006-.004-.01-.007-.02-.01 0 0-.027 0-.032.004-.003.003-.003.002-.004.009-.023-.002-.028-.004-.053-.004-.004.004-.008.008-.013.01a.014.014 0 0 0 .003.004c.004.003.003.002.01.003m-.326.04a.049.049 0 0 1 .004-.01.049.049 0 0 1-.007-.003v-.004a.043.043 0 0 1-.006.007c-.013-.003-.01-.006-.02-.01.003-.014.006-.017.016-.023v-.007h-.036c.003.003 0 0 .006.003-.001.007 0 .007-.003.01v.003l-.006-.003a.033.033 0 0 0-.004.017l-.036-.007v-.004c-.01-.01-.005-.015 0-.026-.01-.004-.013-.006-.027-.007-.001-.013-.002-.013-.006-.02-.04 0-.05.016-.076.012.003.007.005.007.006.017l.023-.003v.01c.009-.004.013-.006.027-.006v.01a.139.139 0 0 1 .019.006c.003.004.002.003.004.01-.013 0-.031-.001-.04-.007h-.007c.003.01.006.01.01.017.032 0 .06.007.083.008v.01c.018-.003.017.002.03.006.02.007.035-.006.046-.005m-.441-.038c-.001.013 0 .014-.006.019l-.001.007c.057 0 .04.012.07-.006.01-.006.026.005.03.004.003-.001.01-.01.013-.01a.39.39 0 0 1 .086.007h.007c-.001-.018-.006-.022-.013-.033a.371.371 0 0 1-.033-.004c-.002-.031-.055-.042-.076-.033v.013l-.04.006v.01c-.01-.002-.03.004-.046.006.002.007.004.009.009.014m.213-.078v.013c.01-.002.012-.008.017-.01.015-.004.01.009.016.01l.02-.002c0-.007 0-.007.004-.011.004.006 0-.001.006 0v.004h.007c-.003.014 0 .006-.01.009a.049.049 0 0 0 .003.007c.01-.001.018-.005.027 0 .008-.002.005-.003.013-.006v-.01c.008 0 .01 0 .014.004h.009l-.003-.004c-.008-.012-.032-.01-.05-.013-.032-.008-.075.004-.106-.001.007.013.018.01.033.01m2.473.33c-.023-.033-.088-.04-.14-.045l.005-.006v-.003c-.036 0-.071 0-.107.002v-.01c.022-.002.06-.001.073-.012.006-.003-.003-.006-.006-.011-.025 0-.076.007-.096-.007-.002-.004-.002-.003-.003-.01l.039.003a.333.333 0 0 0-.125-.037v-.01c.048 0 .08.018.116.03.025.009.059.009.079.025h.037l-.004-.003a.277.277 0 0 0-.1-.048v-.01c.014 0 .02 0 .027.007h.02v-.003c-.031-.008-.064-.024-.095-.038-.01-.004-.025-.018-.033-.02-.011-.002-.004.01-.017.007l-.013-.014a.272.272 0 0 0-.066-.014v.01c-.016-.002-.016-.006-.024.007-.04-.011-.046-.047-.095-.051.018.015.043.02.059.037.003.004.002.003.003.01a.119.119 0 0 1-.066-.03l-.007-.001c.004.008.006.008.007.02a.065.065 0 0 1-.036-.023h-.007a.071.071 0 0 1 .003.023c-.033-.006-.042-.05-.09-.054v.013c-.011.003-.008 0-.012.01-.024-.002-.024-.014-.04-.02-.007-.004-.018.002-.034.003.003-.016.008-.016.014-.027a.271.271 0 0 0-.09-.024v.01a.13.13 0 0 1-.042-.02c-.008.004-.005.004-.011.01-.014.01-.03.008-.05.006 0-.007 0-.007-.002-.01-.004-.004-.027.003-.04-.001-.018-.005-.054-.003-.07-.007.002.006 0 .003.003.007a.086.086 0 0 0 .037.013v.01H7v.01c-.046.002-.048-.005-.083-.014-.01-.002-.018.003-.024.003a.171.171 0 0 1-.07-.017l-.02.009v.014c.008-.001.01-.001.014-.003.012.005.002.008.02.013v.01h.023v.01c.01.003.022.004.036.004v.01l-.003.003a.162.162 0 0 1-.096-.024c-.006.002-.003 0-.007.003l-.003.003c.017.005.02.012.037.014l-.001.01h-.026a.048.048 0 0 0 .02.017c.002 0 .013-.001.019.003.017 0 .015-.001.014.01a.12.12 0 0 1 .076.02c.015.012.018.028.039.035-.003.009-.003.009-.01.013v.007c-.001.004.005.003.003.016-.001 0-.011-.002-.006.004.004.005.004-.002.006.01-.016.004-.016.015-.027.023v.013h-.017a.053.053 0 0 1 .004.016h-.017v.01c-.007.002-.007 0-.01.004h-.006l-.001.01-.023-.001a.126.126 0 0 0 .003.01c.009 0 .013 0 .017-.003a.16.16 0 0 1 .04.004c-.002.007-.001.006-.004.01-.004.003-.008.003-.016.003.004.003.008.003.016.004-.003.01.002.005-.006.009.003.003 0 .002.006.004-.003.01-.005.01-.007.023h-.023a.291.291 0 0 0-.03-.031h-.013l.004.003c.005.005.01.007.019.008a.035.035 0 0 1-.003.016c.007.003.013.006.023.007-.003.014-.007.01-.01.023l-.02-.003c-.01.005-.028.024-.043.006-.016.004-.015.01-.034.013a.066.066 0 0 1-.016.03l-.017-.004c-.017.007-.017.025-.043.026 0 .006 0 .003.003.007-.003.016-.007.02-.017.02v.007c.014-.002.019-.006.036-.007 0 .008 0 .01-.003.014-.01.006-.014.003-.02.013-.047 0-.02.027-.053.032a.1.1 0 0 0 .01.01c-.002.008-.001.007-.004.01-.006.01-.005.007-.013.007.004.014.013.014.003.027v.003h.013v.01c.01-.003.024-.01.033-.003H6.7v.01a.918.918 0 0 0-.02.003c.003.003.003.003.009.004-.004.007.002.002-.006.006v.007c.013 0 .017 0 .023.007.008-.001.073-.033.073-.033.007-.006.006-.01.01-.02.035.003.045-.002.077-.006v-.016c.033.002.016-.01.033-.016l.027.003c.02-.002.062-.005.073-.013h.007v.014c.014.002.02.01.03.013.019.006.055-.012.072-.015.027-.006.043.004.054-.016.017.002.01.005.016.016l.03-.003v.01c.037-.002.099.028.133.005h.053v-.003c-.044-.011-.034-.03-.096-.024.004-.015.004-.01.013-.01v-.007h-.016v-.01c.013-.004.024 0 .03-.013a.076.076 0 0 1 .043.017c.004-.004.004-.006.006-.013.014.004.016.01.03.014-.002.013 0 .013-.013.016.003.009.005.01.01.017.013-.004.015-.01.033-.01-.003.012-.005.012-.014.017v.003a.053.053 0 0 0 .037-.016h.003c-.005-.008-.005-.008-.013-.004H7.44c.003-.013.003-.018.014-.023-.003-.01-.006-.015-.013-.02-.006-.004-.007-.001-.02 0v-.014h.023c-.004-.003-.01-.003-.02-.003v-.013h.014l-.01-.007c-.002-.004-.002-.003-.003-.01.018 0 .03.009.046.01.012.002.016-.008.027-.003.009.005.01.005.006.014v.006c.019.005.099.02.123.005h.007a.115.115 0 0 0-.033-.01c.002-.018.012-.012.016-.033.016.002.02.009.027.02.017-.001.019-.004.033-.006v-.004c-.007-.002-.01-.002-.013-.007-.003-.003-.002-.003-.003-.01h.013c-.006-.004-.018-.007-.027-.01.002-.007 0-.006.004-.01l.003-.01c.015.002.03-.003.05.004.015.006.012.016.037.017v-.01c-.02-.002-.02-.01-.037-.014v-.012l-.013-.001c0-.007.002-.008.003-.013l.05-.02.03.004c.007-.002.019-.012.03-.016.018-.007.038.002.043.01.005-.004.003-.003.01-.006v-.011c.022 0 .142-.005.16.005h.006l-.003-.003" fill="#6695bc"/><path d="M6.667 13.863c-.012-.01-.031-.013-.043-.023-.003-.004-.002-.004-.004-.01.03.004.122.054.153.034.006-.002.003 0 .007-.003a.065.065 0 0 1-.02-.004c0-.008 0-.015.003-.019a.136.136 0 0 0-.06-.017v-.01c-.032-.015-.056-.03-.085-.04l-.033.002c-.012-.004-.02-.018-.04-.02v.01c-.023-.003-.017-.017-.033-.017v-.01c-.016-.002-.014-.007-.023-.01a.208.208 0 0 0-.09.002c-.005-.01-.01-.012-.013-.024-.01 0-.026-.005-.036-.003-.006.001-.013.01-.024.006l-.013-.014c-.021-.009-.042 0-.06-.013h-.02v.006l.027.001c-.002.011-.004.007-.007.02h-.016c.018.016.059.01.079.023h.007c-.004.017-.014.004-.03.013l-.004.004c.014.004.032.014.037.006.017.001.015 0 .013.011a.095.095 0 0 0 .036.01v.01c-.016 0-.03 0-.04-.007H6.33c.005.01.01.015.02.02v.014c-.012 0-.014-.002-.02-.007-.02-.01-.015-.037-.053-.048-.006-.003-.002 0-.01 0-.003.001-.002 0-.003.007h-.007c.013.007.01.022.003.033a.067.067 0 0 0 .03.011v.01a.074.074 0 0 0-.014.003c-.014.003-.023-.018-.036-.024-.022-.01-.041.002-.066.003v.01c.02-.004.029.001.053 0v.01c-.006.005-.004.002-.007.01h-.027v.013c-.02-.002-.012-.006-.02-.017-.004-.008-.01-.008-.016-.013-.008.001-.01 0-.013.003-.003.002.002.006.003.017-.016-.002-.025-.008-.036-.01-.012-.003-.018.003-.027.002l-.004.004c.005.008 0 .004.01.006.002.007 0 .007.004.01.002.003.01 0 .013-.003.009.005.004 0 .007.011.006-.002.006 0 .009-.004.013.004.01.006.017.013.003.002 0 .003.007.004.016-.009.045.018.059.011.009.004.009.008.01.02.018 0 .032.002.04-.003.008.004.004 0 .006.01.01-.002.005-.002.014 0V13.9c-.001-.002-.011-.006-.007-.013a.108.108 0 0 0-.027-.01v-.01c.018.001.052.017.07.01.004 0 .002-.008.007-.009.017-.004.02.018.04.01v-.007c.01-.004.02.006.027.004.004 0 .008-.006.02-.007v-.006h-.02c0-.016.004-.015.006-.027.02.003.026.01.047.007v.01l.016.001v-.01c.024.001.02.011.034.016.014.007.052-.008.066-.009v.01c.044 0 .067.004.113.004zm-.461.256c-.002-.005 0-.003-.003-.006-.006-.004 0-.001-.01-.001-.002-.008-.001-.001 0-.01h-.017c.003-.005 0-.003.004-.006-.005-.003-.008-.003-.017-.004v-.006a.217.217 0 0 1 .024-.007v-.006c-.011-.004-.028-.005-.043-.004.002-.01-.002-.006.007-.007l-.004-.006c.003-.01-.002-.006.007-.007.002-.006 0-.003.003-.007-.003-.003-.003-.002-.01-.003.006-.026 0-.008-.003-.034.009 0 .01-.001.017-.003l.003-.01a.153.153 0 0 0-.056-.03v-.004l-.007.007c-.007-.004-.01-.01-.013-.016-.017-.001-.053-.011-.053-.011-.012 0-.02.01-.03.01l-.01.026c-.012-.003-.01-.01-.013-.01-.01-.003-.015.008-.027.009.004-.018.012-.015.014-.036a.094.094 0 0 0 .037-.01h.029v-.002c-.051-.027-.091-.007-.132.01-.017.009-.018 0-.027.015h-.004l.02.013v.01l-.033-.004c-.001.007-.001.007-.003.01v.007c.01.001.024.003.039.003-.002.01.002.005-.006.006l-.004.01c.02.007.04.022.06.024v.01l.01-.006c.02.004.029.021.053.023 0-.009 0-.014.003-.02h.014c0 .016.005.02-.004.027v.003l.016.004v.01h-.01c.003.01.005.008.007.02-.011 0-.024 0-.03.003H6c.007.004.024.003.03.007.007.008.01.023.01.036h-.01a.07.07 0 0 0-.003.02c-.026.006-.051.013-.081.013v.017l-.003.003a.223.223 0 0 0-.063 0l.004-.014c-.012-.006-.028-.01-.04 0-.011.002-.007.002-.014.006.004.008.006.008.01.013.025.001.032.005.05.004-.001.007-.001.007-.004.01v.007c.009-.005.01-.008.024-.01-.002.016-.006.02-.017.027.006.003.004 0 .013 0l.003.003c-.003.015-.003.013-.02.013-.002.018.003.026.023.03-.002.011 0 .008-.007.014.009.013.02.016.03.026h.017c-.002-.008-.005-.012 0-.02 0-.015.002-.02.007-.029.016.001.027.014.02.026.005.01-.001.004.013.004-.003.008-.002.006-.007.01v.006c.022-.004.026-.018.05-.022v-.014l.014.001c-.003-.02-.007-.027-.01-.044h.01c-.007-.01-.004-.009-.003-.026.01.001.012.01.016.01.01.002.01-.013.024-.007h.006v.011h.01c-.002.013-.001.007.003.02-.011.01-.016.01-.023.02h-.004v.003a.047.047 0 0 0 .017-.004v.014h.003c.006-.01.014-.014.02-.024l.014.001c0 .007 0 .006.003.01.005.007.02-.015.026-.016.01-.004.008.005.01.006l.024-.003v-.013h-.023c.004-.008-.002-.003.006-.007-.004-.003-.01-.003-.02-.003l-.003-.004c.004-.016.013-.012.02-.023h.004v-.003h-.014v-.01h-.013c-.001-.016-.002-.02-.016-.024 0-.018.003-.019.01-.03.012.001.014.001.02.007h.003c-.002-.008-.003-.008-.006-.013H6.15v-.01c.022-.003.028-.01.056-.01zm-.35-.23c.013-.003.023.013.034.014a.173.173 0 0 1 .059-.017v-.002c-.023-.008-.04-.022-.06-.032-.005.004-.02 0-.03.003-.008.005-.025.023-.036.033l-.003.01.006.004c.016.006.019-.01.03-.014zm-.02-.043c-.01-.02-.054-.016-.068-.024-.005.002-.008.017-.01.026-.01 0-.013 0-.017-.003-.008-.004-.005-.007-.01-.013-.002-.003-.015 0-.02-.001.005.025.016.032.013.06.016-.001.05-.005.059-.002.003-.003.003-.003.004-.01.009 0 .015 0 .02-.003 0-.001-.003-.017-.003-.027.008 0 .012 0 .017-.003zm.214-.018c-.007-.015-.015-.004-.027-.013-.004-.004-.002-.012-.006-.017-.013-.017-.04-.026-.056-.031l-.004.004c.005.011.01.012.013.03.01 0 .02 0 .027.003.006.01-.003.011.006.016-.003.013-.026.022-.04.03v.006h.013c.004.03.009.005.027.014.008.004.017.022.026.027.01.005.019 0 .027 0 .005.003.03.02.036.02.005.002.003-.012.013-.006v.006a.075.075 0 0 0 .03.017c.013.005.023-.003.03.001.016-.004.012-.01.023-.01.002-.006 0-.003.004-.007-.04-.042-.1-.028-.136-.054-.003-.004-.002-.003-.004-.01a.79.79 0 0 1-.02.003c.004-.015.005-.01.004-.027h.017zm-.192-.051.003.009h-.023v.01a.05.05 0 0 1 .02-.003l-.001.01c.007 0 .02.006.02.006.012-.004.007-.008.024-.005.007-.02.015-.025.026-.024.002-.005 0-.003.004-.006v-.004c-.01-.002-.016-.005-.024 0-.007-.004-.004-.005-.01-.01l-.01-.007h-.006v.013h-.013v-.01c-.016.004-.026.016-.037.004h-.01a.031.031 0 0 0 .007.009c.006.004.024.004.03.008zm-.224.13c-.001-.008-.003-.015-.003-.026h-.01l-.003-.027c.025-.001.013-.005.023-.02.007-.01.019-.013.027-.016l-.003-.027c-.03 0-.046.017-.06.039h-.02c0-.013 0-.017.007-.023.003-.01.006-.002.013-.013.003-.003.002-.001.004-.007l-.007-.006c-.004-.003-.003-.002-.01-.004v.013h-.046v-.01l.023-.003c-.004-.006-.01-.011-.013-.017l-.033.003c0-.007 0-.006.003-.01.006-.003.003-.001.01 0v-.013c-.018-.002-.07-.002-.076-.007-.01.004-.004-.001-.007.01-.011 0-.023 0-.03.006s0 .003 0 .02l-.023.003c.01.022.056.034.079.044v.013c-.038-.006-.06-.027-.103-.027l-.003.009c.005.013.019.018.03.024-.003.012-.006.014-.011.023.046.02.088.03.139.018.002.016.003.015.014.02-.003.008-.002.006-.007.01.013.01.026.015.056.014l-.003-.01c.006-.013.013-.013.03-.013v.01h.013zm.241.485c-.004.006-.005.009-.01.013-.011.005-.04-.002-.05.006-.042-.002-.006-.015-.033-.027a.15.15 0 0 1 .063-.046.04.04 0 0 0-.016-.02c.002-.008.006-.01.007-.013.005-.016-.01-.015-.003-.027v-.003l-.027-.001v-.01c-.025 0-.017-.005-.026-.02v-.003c-.006-.002-.004.002-.007.003-.035 0-.037.026-.06.027l-.003.019a.629.629 0 0 0-.08.029c-.013.01-.002.026-.014.04-.003.01-.037.033-.052.033l.275.12c0-.004-.002-.003-.002-.008h-.01c.004-.014.009-.01.01-.03.008.002.01 0 .014.004.012-.001.01-.003.02-.006-.002-.006-.003-.006-.004-.013h.014l-.003-.004c0-.021.005-.017.016-.026h.004c-.004-.003-.003-.003-.01-.004v-.007l.003-.003h.013c0-.01.003-.017.004-.026h.01v-.004c-.02 0-.031.009-.043.007zm-.111-.201v-.003a.07.07 0 0 0-.024-.004v-.007l.004-.003h.014c-.001-.018-.01-.034-.003-.043v-.006a.15.15 0 0 1-.02.002v-.013c-.03.013-.045.03-.087.03a.02.02 0 0 1 .004.006.918.918 0 0 0 .02.003c-.002.013 0 .009-.007.014v.006l.07-.01-.001.03z" fill="#6695bc"/><path d="m5.564 14.392.003.026.008.014-.011.02-.021-.006-.017-.028.004-.042-.901-.397c.008.016.042.058.048.073h.013l.003.04h.01c.002.009.003.014.007.02v.003c.002.007.004-.007.004-.007.007.004.026.05.036.064.006.009 0 .003.01.003l.007.01c-.005.009 0 .004-.01.007.013.02.032.033.047.05.01.014.018.032.03.044.007.003.003 0 .01 0 .008.018.014.034.027.047v.01a.068.068 0 0 1-.027-.013h-.007c.046.076.046.17.077.257a.479.479 0 0 0 .04.078.121.121 0 0 1 .014.01l.003.026a.121.121 0 0 0 .014.01v.017l.016.017c.01.014.01.029.02.043.017.024.045.039.06.064.036.056.049.12.09.168 0 .012.003.01-.005.016.014.023.036.036.05.057.008.013.006.032.013.047.009.019.027.025.037.04.005.008.005.017.01.024.002.005 0 .003.004.006a.126.126 0 0 0 .003-.01c-.03-.03-.036-.07-.057-.107-.005-.004-.011-.01-.017-.013-.005-.01-.002-.02-.007-.027-.014-.026-.035-.052-.05-.077-.008-.013-.008-.032-.016-.044v-.013c.036.015.057.097.08.13.013.02.034.04.047.06.005.01 0 .019.006.03a.212.212 0 0 0 .024.02l.01.028c.01.016.029.033.04.05.02.033.015.07.034.1a.566.566 0 0 0 .047.06c.006.006.014.005.02.01.025.033.068.094.107.108.005.004.012-.002.02-.007l.026.027c.013.017.017.04.03.057.008.008.019.01.028.017.015.012.027.029.043.04.003.004 0-.001.003-.003h.004c.014.024.032.05.047.08l.01.037c.008.01.024.017.033.027.007.008.005.017.01.026.009.015.02.01.03.018a.234.234 0 0 1 .03.043h.004c-.002-.014-.01-.02-.003-.03v-.013h.006c.008.008.022.019.027.029.006.014 0 .024.007.034.006.01.019.023.023.037.008.025.002.049.02.064-.01.018-.01.047-.03.057.002.02-.001.043.004.053 0 .017.003.019.006.03h.014c0 .007 0 .007.003.01-.001.018-.002.018-.014.024.003.058.039.084.064.127.018.03.023.066.04.097.009.016.027.035.034.05l.013.05c.035.059.103.098.128.165.01.029.016.06.023.09v.037c.006.02.018.048.024.07v.067l.023.087c.007.028-.007.08.006.104 0 .016.002.018-.013.02a.402.402 0 0 1 .034.128h.02c0 .022.007.076.017.083-.005.014-.01.018-.01.03-.008-.001-.007-.001-.01-.003-.005.005-.005.009-.011.013.004.004.013.004.017.007.01.01.006.034.02.047l-.003.007c-.003.002-.003.002-.01.003-.002.017-.001.029.01.04.003.01.005-.003.007-.007h.006l.007.007c-.001.01-.003.01 0 .017-.003.003-.003.002-.01.003v.007c.01.006 0 .003.013.004-.003.013.01.04.02.053.002.003 0 0 .004 0 .015.005 0 .009.02.02-.005.008 0 .003-.007.007.004.009.007.013.017.017.002 0 .02-.005.04-.004-.006-.011-.012-.03-.02-.04.002-.02.01-.012.017-.023.007-.012-.012-.02.016-.037-.004-.045-.04-.038-.04-.091.008 0 .01 0 .014.004h.01c-.002-.008 0-.016-.004-.024 0-.027.01-.023.02-.023-.004-.027-.028-.021-.033-.061.019.004.027.015.04.024l.004-.003c-.004-.016-.007-.047-.017-.057v-.004a.734.734 0 0 1 .057.027c.012-.001.012-.003.02-.007 0-.01.008-.024.006-.03-.001-.01-.016-.013-.02-.02-.003-.007.004-.013.004-.017-.002-.01-.022-.03-.03-.036v-.007a.283.283 0 0 1 .064.05c.013-.007.012-.02.026-.027-.003-.038.004-.013.017-.037.008-.013-.004-.022 0-.036.002-.008.01-.018.013-.024.01-.035-.023-.06-.007-.084.004-.014.013-.013.02-.023.01.002.009 0 .014.007.003-.004.002-.003.003-.011.02 0 .024.01.03-.003.009.004.01.007.014.014.008-.005.004 0 .007-.011.007.002.006 0 .01.004h.006c-.01-.046.009-.164-.023-.211v-.024c.008.004.005.002.01.007.007-.01 0-.025.007-.036l.013-.011v-.02l.01-.003a.317.317 0 0 0-.023-.107c-.011-.014-.041-.03-.054-.047-.015-.021-.024-.045-.044-.06-.023-.02-.041-.014-.06-.044-.02.002-.007 0-.027.004-.001-.008 0-.01-.003-.014 0-.041-.041-.055-.06-.081-.01.007-.005.008-.003.017l-.011.007c-.022-.004-.032-.018-.04-.037H6.4c0-.011.003-.015 0-.02.003-.021.01-.016.02-.027.008-.013-.02-.04-.026-.053-.028-.057-.062-.131-.124-.131-.007-.013-.014-.03-.024-.04-.003-.003-.003-.002-.01-.003-.003-.042-.035-.061-.063-.077.003-.01 0-.006.006-.011-.006-.03-.033-.02-.037-.06-.02-.005-.018-.002-.04 0-.005-.007-.016-.026-.023-.03l-.03-.007-.01-.027c-.006-.007-.02-.01-.027-.016-.012.002-.011.002-.017.01-.01-.005-.014-.015-.017-.027-.001-.008.003-.006.007-.017-.003-.003-.001 0-.003-.006h-.01v.013c-.027 0-.027.007-.041-.004-.002.008-.004.017 0 .024-.001.019-.005.019-.013.03a.263.263 0 0 1-.05-.05c-.01.003-.01.003-.013.01-.031-.003-.027-.021-.041-.04-.012-.018-.03-.034-.036-.057-.013-.041 0-.085-.024-.114-.021-.026-.068-.03-.087-.05-.004-.01.003-.065 0-.077-.003-.011-.014-.022-.01-.037l.006-.01c-.001-.02-.035-.04-.05-.03-.015.012.013.039-.01.05l.007.007v.007c-.013-.003-.011-.011-.02-.014h-.03a.15.15 0 0 1-.01-.017l-.024-.016c-.007-.011-.005-.022-.01-.034-.006-.014-.021-.023-.026-.037-.015-.032-.018-.061-.027-.1-.005-.02-.024-.09-.017-.101.003-.008.004-.005.006-.013h.014c0-.008 0-.01.004-.014.002-.002.007-.004.009-.007a.165.165 0 0 1 .07.054c.006-.002.004 0 .007-.003.006-.01-.01-.02-.013-.033.019.002.024.01.037.02.004.005.004-.001.01-.004l.037.04c.007.003.004.003.01-.003.037.013.065.136.097.17v.004h.007c-.01-.026-.007-.055-.017-.08-.01-.026-.057-.082-.044-.124.005-.017.018-.013.02-.037.02-.004.02-.015.038-.02 0-.037-.013-.066-.021-.084-.002-.018-.015-.03-.027-.037v-.006c.012.002.012.005.017.013.003-.006 0-.002 0-.01h.007a.076.076 0 0 1 .013.04h.007c0-.026.005-.062-.007-.077.003-.012.004-.01.01-.017a.105.105 0 0 1 .05.02l.004-.003c-.01-.028-.026-.037-.02-.077h.016v-.013c.015.003.012.004.027.003v-.01c.009.003.019 0 .03-.003a.156.156 0 0 0 .02.016c-.007.006-.02.01-.026.014.002.014.006.025.01.037l.007.003c.005-.011.012-.015.016-.027a.04.04 0 0 1 .017.01.035.035 0 0 0 .01-.017c.006.003.003 0 .007.004h.01l-.004-.004c-.013-.017-.028-.01-.04-.033h-.003v-.003c.007.002.009.002.013.006h.004c-.004-.017-.011-.013-.02-.023-.004.006-.001.004 0 .013h-.007c-.013-.023-.028-.03-.027-.07-.022-.001-.018-.007-.03-.017v-.007c.012.003.01.003.017.01.008-.003.008-.003.013-.01.003-.003 0 0 .003-.006-.01-.01-.016-.02-.03-.024-.01-.008-.03-.01-.04 0-.016.007-.013.029-.023.04-.004.003-.003.003-.01.004.003-.026.013-.036.01-.057.012-.006.02-.014.037-.017v-.013c.045.005.075.032.113.047.006-.006.003-.005.014-.007l-.003-.02c.015-.002.018-.005.026.007.01-.005.009-.01.02-.014-.002-.012-.007-.01-.01-.016-.003-.008.005-.01.004-.014-.001-.002-.008-.026-.011-.03-.002-.005-.01-.003-.013-.006l-.016-.028a.047.047 0 0 0-.031.014h-.006c-.002-.01-.004-.01 0-.017v-.013c.007.002.008.002.013.006.008 0 .009 0 .013-.003l.004-.003h-.004c-.004-.013-.013-.02-.026-.024-.004-.004-.002.002-.01.004a.04.04 0 0 1-.004-.02c-.005 0-.005.002-.013.003l-.001-.031z" fill="#3371a6"/><path d="M5.698 15.408c.062.006.133.106.174.144v.007h-.007c-.008-.01-.026-.01-.036-.017-.004-.007.004-.007 0-.017l-.074-.08h-.013c-.007-.005-.008-.02-.017-.023-.014-.005-.017.007-.03.01v-.007c.007-.008.004-.005.003-.017zm.258-.693c0 .02-.004.03-.004.044.01-.001.005-.004.01 0 .007.008.002.01.007.02.012.01.038.013.04.023.005.009-.003.009 0 .02.003.01.014.01.017.024-.008.004-.005 0-.006.013a.049.049 0 0 1-.007-.003v.003c-.004.006-.005.018-.01.024a.008.008 0 0 0-.004-.004c0-.008.002-.01.004-.023-.01-.005-.013-.014-.02-.017-.004 0-.007.002-.01.003l-.041-.013-.003-.014a.044.044 0 0 0 .014-.016c-.008-.006-.008-.005-.011-.017.01-.007.006-.047.01-.067zm.958.851a.037.037 0 0 1-.01-.011c-.002.007 0 .003 0 .01-.005 0-.011.003-.016.004-.001-.028-.013-.028-.023-.044-.003.004-.002.003-.004.01-.006-.002-.003 0-.006-.003-.005.005-.003.006-.01.01.006.01.018.012.029.017v.007c-.006.004-.002.004-.013.006.007.005.019.007.024.014.006.008.003.013.009.02-.004.008 0 .003-.013.003.007.006.016.005.024.01.006.004.006.01.009.017l.017.012.003.005.003.003-.02-.096-.003.006zm-.465 2.059.016.004a.472.472 0 0 0 .05.08c.007.009.018.009.024.02h-.007c-.01-.008-.014-.002-.023-.01l.007-.003c-.017-.01-.044-.021-.051-.041.006-.002.003 0 .007-.003l-.017-.017c.003-.007.004-.005.007-.013-.01-.005-.011-.004-.013-.017z" fill="#3371a6"/><g fill="#004e8f"><path d="M8.991 13.672c0-.015 0-.028.006-.036.005-.015.012-.017.033-.016l.006.003c0-.016.003-.024.013-.029.012.012.026-.006.043-.01v.003c-.01.008-.01.022-.017.033-.007.01-.018.01-.029.016l-.03.04a.085.085 0 0 0-.025-.004zm.166.641c.001-.019.004-.023.003-.042h.003v.003c.017.02.014.061.023.088.005.014.015.025.02.04h-.004c-.004-.005-.005-.005-.013-.008v.007c-.015.022.005.055.01.07-.013.004-.009.011-.017.021 0-.012.002-.05 0-.055l-.009-.007c-.009-.02.007-.053-.007-.074a.043.043 0 0 0-.006-.007h-.007v.007c-.017.026.005.063-.003.097-.017.075-.028.16-.065.215-.006-.003-.006-.004-.013-.006v.006c-.019.025-.013.056-.023.091-.005.017-.015.023-.016.046.03.014.034.036.032.081-.01.01-.01.03-.026.036v-.007c-.012-.019 0-.054-.006-.07-.01.004-.015.01-.026.012.002-.019.004-.018.003-.039a.053.053 0 0 0-.017-.004.18.18 0 0 1-.019.02c-.005.008-.004.02-.01.026v-.006c-.006-.01.001-.02.004-.033l-.013-.003a.351.351 0 0 0-.04.104c.01 0 .014-.007.017-.003l.006.013h.007c.005-.027.017-.026.032-.036v.016c-.02.013-.028.048-.029.08h.013c.01.015.014.034.03.044v.003h-.007c-.008.005-.008-.004-.013.007-.003.003 0 .001-.003.006h.006c.003-.002.006 0 .017 0 0 .014-.004.016-.007.027.011 0 .008-.002.013.006.008.012-.002.023-.006.033.006.001.006 0 .01.002-.01.01-.017.046-.017.063l.003.016-.01.006a.126.126 0 0 0-.006.05c-.007.012-.03.061-.042.068l-.007-.004c-.004.034-.03.041-.036.072l.007.01h-.007v-.004l-.006-.016c-.006.004-.01.001-.013.003-.02.025-.026.055-.026.095.013.007.01.016.02.026.012.012.024.007.035.026.032.053-.014.12-.026.163h-.003c0-.015-.002-.018-.007-.027-.006.004-.005.005-.013.007v-.01h-.01c-.005-.01-.008-.017-.023-.019l-.006.006v-.003c-.006-.004-.003-.004-.013-.007-.002.005-.004.007-.007.01.005.026.005.068.007.094.018.005.02.016.023.033.013 0 .015.001.03.004a.25.25 0 0 1 .032.074l-.013.007c-.009-.008-.015-.008-.023-.01-.008-.013-.03-.07-.039-.078-.007-.005-.016.002-.02-.007v-.06c-.017-.027-.027-.082-.042-.112h-.006v.01c.005.012-.006.02-.007.04-.009-.003-.004-.006-.01.002-.006.006.002.004-.006.007v-.007c-.006-.009 0-.033-.007-.042-.003-.005-.012-.005-.016-.01.005-.004.004-.002.006-.01-.009-.005-.023-.015-.029-.029s.007-.026-.007-.033c-.004.006-.009.007-.016.01a.159.159 0 0 1 .004.026c-.006 0-.032.018-.036.03-.01.012-.007.04-.014.055-.003.007-.013.016-.016.022-.013.035-.012.067-.026.101-.003.008-.013.016-.016.023-.008.024.007.053.01.07.002.008-.006.016-.006.022-.004.017.01.016.006.035-.006.027-.007.041-.02.07l-.006-.005c-.02-.02-.03-.053-.042-.08-.01-.022-.03-.043-.04-.066a.224.224 0 0 1-.01-.026c0-.004.007-.005.004-.013l-.01-.01.003-.029-.009-.026-.004.003c-.008.01-.004.018-.003.036-.009.006-.009.01-.023.013-.008-.008-.013-.005-.016-.02.008-.005.01-.008.013-.02h-.006c-.005.012-.006.01-.02.011v-.013h-.007c-.002.007 0 .005-.006.01a.095.095 0 0 0-.023-.03c-.014.028-.08.083-.117.088-.003-.013-.004-.019-.016-.023v.003c-.015.017-.012.033-.046.033-.009-.007-.009-.005-.023-.003-.004-.016-.014-.018-.023-.03h-.019c0 .023-.009.022-.01.046.017.006.01.014.02.026l.01-.003v.006a.074.074 0 0 0 .013.004s.008.03.01.032h.006c0-.01 0-.023.003-.029 0 .022-.002.032.016.036.011-.02.03-.018.03-.049.01-.01.007-.034.016-.046v.007c.01.016 0 .031.023.035.014-.01.02.003.036.007 0 .026-.01.043-.017.062v.042c-.004.011-.018.031-.023.043-.004.012 0 .022-.006.032l-.026.026a.31.31 0 0 1-.004.032c-.006.013-.023.023-.029.037v.016c-.006.015-.035.04-.042.052-.008.014-.004.017-.013.026v.007h-.013a.008.008 0 0 0-.004-.004c-.007-.07-.037-.075-.058-.123-.006.002-.01.002-.019.003-.009-.015-.013-.038-.02-.056a.139.139 0 0 1-.065-.068l-.01.006c.001-.012.002-.014-.006-.019a.066.066 0 0 1-.007.026.048.048 0 0 0-.023-.016v.003h-.003l.003.006c.005.011.015.01.02.017.012.017.013.04.026.055l.016.007c.006.008.002.022.007.03l.02.006c.006.015.008.046.02.061.005.01.023.008.028.017.008.015.001.025.013.036.013.007.034.004.046.013.014.01.021.032.032.045.006-.002.003 0 .007-.003a.375.375 0 0 0 .078-.098h.007v.007c-.005.008.004.037 0 .055-.007.028-.003.066-.01.098-.022.088-.055.18-.079.257-.01.04.003.144.027.156.003.003.003.002.01.004.001.04.028.078.016.123-.012.04-.042.08-.053.124-.008.036.037.063.023.104-.004.013-.023.025-.026.04-.002.011.014.05.007.074-.013.044-.018.102-.036.143a.411.411 0 0 1-.039.062c-.009.007-.023.007-.029.017-.012.017-.016.041-.036.05-.003-.004-.009-.006-.013-.008-.014-.029-.018-.06-.039-.088-.012-.015-.03-.016-.04-.036-.01-.025-.007-.059-.022-.08-.01-.018-.043-.039-.052-.057a.417.417 0 0 1-.007-.13c.002-.006.011-.015.007-.029-.009-.03-.036-.068-.039-.1h-.01c-.005-.024-.016-.034-.039-.037-.002-.007 0-.006-.004-.01l-.012-.006c.002-.004.002-.003.003-.01h-.01c-.002-.008-.003-.009-.007-.013.003-.007.01-.009.01-.013.006-.014-.012-.073-.013-.09a2.752 2.752 0 0 0-.029-.004c0 .01.002.008 0 .013-.012.01-.016.01-.023.026h-.003a.918.918 0 0 0-.003-.02c-.014 0-.018-.006-.036-.003a1.197 1.197 0 0 1-.069.101c-.01.006-.01-.006-.016 0a.327.327 0 0 0-.055.072c-.022-.006-.057-.008-.085-.014-.005-.017-.016-.02-.019-.039a.042.042 0 0 1-.033-.013.012.012 0 0 0 0-.016c-.003.006-.01.02-.016.013-.006-.008-.002-.019-.007-.029l-.013-.013c-.007-.017-.002-.038-.003-.053v-.045c-.005-.015-.015-.02-.016-.046-.008.001-.009.002-.013.004v-.088c.013-.018.006-.033.01-.056.001-.01.01-.025.013-.036v-.028l.012-.01a.187.187 0 0 0 .023-.066c.003-.018-.013-.05-.006-.078.006-.024.023-.038.03-.058.004-.018-.002-.042.003-.056.006.005.005.006.02.007.008-.017.01-.02.031-.02a.309.309 0 0 1 .056-.097c.013-.018.043-.022.05-.046.005 0 .005 0 .01-.003h.001v-.01h.014c.01-.022.02-.023.04-.036l-.005.026c.002.004.012.007.013.013l-.009.046c.01-.002.01-.003.016-.007.003.011-.002.005.007.01.003-.002.006 0 .016 0 .014-.025.036-.043.052-.065l.094-.127c.017-.023.046-.043.056-.072h-.003c-.005-.008.001-.002-.007-.006-.003.008 0 .005-.007.01-.003-.014-.006-.01-.009-.023h-.014v-.007a.045.045 0 0 0 .014-.006c-.008-.007-.002-.02-.01-.033-.005.006-.002.004-.01.007 0-.01-.003-.02-.013-.023l-.026.026.003.023c-.009-.002-.006-.007-.013.003h-.003l.003.003c.01.011.022.023.036.03v.003h-.009c-.008.03-.013.015-.007.05-.012 0-.014.004-.023.01 0-.019-.005-.016-.01-.028.004-.004.004-.005.007-.013h-.007c0 .004-.003.016-.006.007-.01-.008-.006-.01-.013-.023-.007-.01-.01.001-.017-.01-.005-.01-.005-.032-.009-.042-.013.002-.016-.003-.03.003-.002-.007-.002-.008-.006-.013v.003c-.006.005-.003.005-.013.007-.005-.003-.008-.003-.016-.003 0-.006-.003-.01-.004-.017-.008-.002-.005-.003-.013-.006v.013h-.01v-.013h-.006v.003c-.006.007-.013.014-.016.023.004.005.005.014.01.02.004.003.014.002.02.006.011.01.002.021.022.026.004-.002.04 0 .058 0 .003.006.003.01.004.02h-.007c-.005-.008 0-.005-.013-.007-.003.007-.004.006-.006.016.016.016.01.04 0 .062H7.6v-.013c.008-.008.006-.01.003-.022l-.023-.02c-.004.005-.006.006-.012.01 0-.005-.003-.009-.004-.013l-.023.006c-.009 0-.023-.01-.035-.013-.002-.02-.007-.024-.03-.023l-.026.062c-.015.006-.033.007-.039.023-.014.018.008.025 0 .05-.006.02-.029.046-.036.074-.004.016.008.02.01.026l-.003.04-.013.012c-.005.013 0 .02-.007.03-.013.018-.036.02-.038.051-.017-.003-.013-.01-.027-.016-.007.012-.014.016-.026.023 0-.03-.01-.02-.016-.036v-.059c-.002-.007-.005-.034-.01-.042l-.009-.003c-.006-.01.007-.026.01-.036a.214.214 0 0 0 .087-.059c.01-.01.004-.065.003-.065-.004-.015-.013-.017-.026-.022.002-.008.004-.007 0-.014l-.009-.003c-.005.008-.018.01-.027.013v-.019l.01-.01c.004-.003.004.001.01-.004.008-.006.011-.01.013-.025-.004-.005-.004-.006-.006-.014.023-.002.044-.034.045-.055 0-.004-.006-.01-.003-.019.005-.006.011-.01.016-.017.007-.01.013-.038.016-.049.004-.013-.002-.028.004-.038.013-.025.044-.028.045-.066a.122.122 0 0 1-.022-.08c.011-.009.014-.027.026-.034.001.017.006.018.01.026.005.017-.009.028-.01.036-.004.014.004.02.006.03h.007c.003-.003.003-.003.01-.004.002.011-.002.005.006.01v-.003c.012-.01.016-.029.033-.036.004.007.004.007.01.006.024-.018.03-.057.054-.074.001.007.002.007.004.012.005-.002.003 0 .006-.003.027-.029.011-.078.02-.124.006-.003.005-.004.013-.006.005.008.004.008.016.01.003-.01.006-.014.007-.029-.012-.012-.02-.018-.02-.042h.003c.013-.039.063-.043.072-.089a1.385 1.385 0 0 1-.023-.003c0 .008 0 .008-.003.013h-.01v.01h-.01v.013c-.019.011-.023.04-.049.042-.006-.01-.009-.002-.019-.006-.006-.01.003-.012 0-.023-.005-.016-.014-.025-.02-.039a.35.35 0 0 0 .046-.12c-.008-.006-.01-.008-.023-.01-.005.008-.01.016-.023.02-.003.025-.01.028-.012.054.01.003.005 0 .01.007-.013.012-.003.021-.01.032-.003.004-.015.006-.017.01a.276.276 0 0 0-.02.098c.006.004.006.01.01.013.015.011.024-.002.027.023a.425.425 0 0 0-.02.065c0 .008.005.006.006.01a.21.21 0 0 1-.006.055l-.019.02-.007.03h-.01c-.002-.008-.005-.024-.01-.03-.007-.007-.009-.003-.013-.013a.04.04 0 0 1-.006-.02c-.007 0-.007 0-.01-.003-.004-.005-.003-.013-.003-.023-.01 0-.009-.003-.013 0-.016.018-.016.054-.036.068-.006.005-.012.006-.023.007-.005-.008-.01-.01-.013-.02h.01a.047.047 0 0 0-.007-.019c-.009.001-.003.005-.009-.004a.077.077 0 0 0 .013-.032h-.007c-.003.011-.005.014-.013.02 0-.016-.008-.049-.007-.052l.01-.004-.003-.016.023-.023-.003-.013.01-.003.003-.026c.001-.005.011-.007.013-.01.004-.007-.004-.013-.004-.016.001-.006.008-.017.01-.023h.01c-.002-.027.004-.039.007-.065h.01c0-.018.003-.019.01-.029-.015 0-.012.006-.014-.01a.09.09 0 0 0 .013-.026c.008.001.004.003.01 0l.003-.007c-.009-.007-.003-.004 0-.016-.01-.003-.005.001-.01-.006.01-.006.017-.006.02-.02-.003-.003 0 0-.003-.007h-.007c-.003.01-.003.01-.01.013v-.023l.004-.002c.005.002.005.008.01.002l.012-.012c-.002-.01-.006-.009-.003-.017.001-.007.001-.006.003-.01.004.003.003.002.01.004.004-.012.012-.009.016-.017.005-.009.004-.022.007-.029.013.002.016-.006.03-.013v-.007c-.009 0-.013 0-.017-.003H7.5c.01-.009.018-.005.026-.009.01-.017.014-.04.023-.056.005.004.003.004.01.007l.003-.013h.003v.013h.01v-.007c.003-.005.005-.02.006-.026.004 0 .007-.002.01-.003v.003c-.005.005-.005.007-.006.017l.003.003h.01c0-.013.001-.02.006-.026.002.004 0 .002.004.003l.01-.01c.005.004.002.004.012.007-.002.013-.007.016-.012.026h.012c.01-.01.017-.026.033-.03.003.012.001.011.013.014.005-.012.012-.015.02-.023.012 0 .026-.003.04-.004.003.002.006.01.018.007.008-.002.011-.008.023-.01.012.013.017.015.016.043-.014.013-.022.034-.039.045l-.078.023v.01c.018-.002.016.001.036.003-.002.021.002.03.013.045.006 0 .007-.005.01-.006.004 0 .011.007.03 0l.002-.003v-.013h-.013c-.004-.007-.006-.006-.01-.013a.036.036 0 0 0 .007-.01c.01.002.008.004.016.007.01-.016.026-.01.03-.033l-.013-.01a.144.144 0 0 1 .042-.065h.006c.003.01 0 .005.007.01v-.007c.005-.007.004-.026.003-.039h-.013l.003-.036-.016-.003v-.006c.012-.002.035-.015.036-.014a.036.036 0 0 0 .01.007v.007c-.013.007-.016.018-.02.035.011-.002.016.003.023 0 .005-.005.017-.016.02-.023v-.022c.003 0 .006-.002.01-.004.015-.03.035-.082.061-.1v.006c-.004.008.001.015.01.02.01-.032.034-.036.048-.059.007-.01 0-.01.01-.016.005.008.002.007.013.01.002-.014.012-.023.01-.033 0-.006-.008-.01-.01-.023.018-.01.035-.023.056-.029.001.012-.002.008.006.013.012-.017.047 0 .056-.019.003-.005.003-.01.003-.02a.124.124 0 0 1-.033-.013h-.003c.005-.012.004-.013.003-.033-.009-.004-.007.003-.009-.013.023-.027.02-.082.025-.107a.049.049 0 0 1 .007.003c.003.008.003.012.01.016a.045.045 0 0 1 .022-.016v.003c.007.006.006.005.007.016-.005.008-.006.022-.007.033.014.004.013.004.014.02.007.015-.003.037.01.055.003.003.012.005.016.007-.01.023-.008.052-.02.078-.007-.003-.004-.003-.009-.007v.01h-.014c-.004.01-.004.008-.003.02h.01c.005-.014.016-.012.03-.017.007-.017.032-.066.025-.078-.004-.012-.008-.01-.009-.026.006-.006.006-.01.015-.013.013-.009.015-.003.03 0 0-.008-.002-.015-.003-.023h-.027c-.004.015-.016.014-.029.02v-.007c-.008-.013.007-.026 0-.042-.004-.012-.012-.007-.013-.03.01-.008.016-.014.017-.032a.039.039 0 0 1-.01-.019h.006c.004.005.004.002.007.01.001.002.001.03.003.038l.013.003a.27.27 0 0 1 .03-.016v-.009c-.017 0-.019.004-.033.006-.002-.005 0-.003-.003-.006.007-.01.02-.03.03-.04.015-.013.048-.016.067-.013v-.019c-.013.001-.025.003-.035 0-.006-.014-.01-.02-.01-.033.023-.02.05-.042.071-.065.01.003.006.004.013.007V14.2c.004-.004.005-.009.007-.016h-.007c-.002.002-.006.001-.013.003 0-.016.002-.008-.006-.02.012-.003.012-.002.013-.016l-.003-.006c.015-.004.017-.02.023-.033h.01v-.01c.028-.019.048-.053.071-.078.01.002.004.01.01 0 .016-.006.022-.02.036-.029.002.011-.002.005.006.01v-.02c-.007 0-.006 0-.01-.003l-.003-.007c.012-.002.026-.008.04-.013v-.003c-.002 0-.003-.002-.004-.003h-.01c.001-.035.024-.07.06-.072v.004c-.009.004-.013.011-.017.02h.01a.046.046 0 0 1 .025-.02c0 .01-.002.007 0 .016h.007c.013-.022.034-.032.052-.049.01.004.011.005.016.013.016-.012.017-.006.016.02.001.003.003.001 0 .003-.022.043-.064.091-.078.14h.007v-.003c.011-.013.021-.027.033-.039a.075.075 0 0 1 .012-.007c.005-.007.003-.02.007-.026.005.003.004.003.01 0l.006-.013.006.003h.004c-.003.01-.002.013 0 .023h.006c.001-.038.037-.055.066-.062 0 .01-.004.008.01.01.011-.015.037-.02.055-.029v-.007c-.009 0-.013 0-.016-.003.01-.004.005 0 .01-.01-.007-.005-.006-.003-.008-.013a.243.243 0 0 1 .037-.016c.003 0 .006.007.012.003l.004-.013h.02v.01c-.013.006-.015.012-.02.026h-.004c0-.012.002-.008-.006-.013v.006a.059.059 0 0 0-.006.02c.017 0 .014 0 .03.003 0-.008 0-.012.002-.016.006.004.016.005.026.01v.01h.026c.002-.02.006-.03.007-.053h.006c.008.008.01.005.026.003v-.012c.008-.006.01-.01.02-.014.006-.005.013-.006.026-.006v-.013c.011-.002.012-.003.016-.013.006-.009 0-.019-.003-.036.007-.004.006-.005.016-.006 0-.006-.002-.01-.003-.017.016-.004.023-.016.036-.023a.12.12 0 0 1 .035-.009c.002 0 0 .01.007.006.001 0 .004-.012.006-.013.008-.004.016-.004.023-.006 0 .01-.004.008.01.01.003.01 0 .004.006.01.004-.012.002-.01.014-.014.005.007.005.007.01.007.035-.01.035-.045.077-.049.002.004.01.01.01.013s-.006.006-.003.013l.016.01c.004.006.003.017.007.022a.173.173 0 0 1 .016-.08c.038 0 .03-.032.05-.043v.003h.002c-.003.01-.006.01-.003.016.004.004.01.005.016.007.004-.007.007-.008.01-.017.003-.004.003-.007.004-.016h-.007c-.004.003 0 .001-.007.003v-.009l.007-.013c.035-.029.118-.075.17-.039.002.004.002.01.003.02.01.001.01.006.012.002.006-.004.004-.002.007-.009-.003-.004-.003-.008-.003-.017.01.001.018-.005.026-.016.006.004.02.008.026.013a.14.14 0 0 0-.026.04c-.009.023.011.027-.01.04H9.59a.487.487 0 0 1-.076.096c.01.011.011.02.017.036h-.007c-.01.008-.01 0-.019.003a.711.711 0 0 0-.069.147c-.007-.007-.005-.009-.019-.01a.271.271 0 0 0-.023.045h-.003v-.016h-.003c-.003.02-.01.024-.02.036l-.003-.004c-.004-.004-.005-.009-.007-.016l-.003.007c-.009.01-.008.03-.016.04-.003-.004 0-.002-.007-.004 0-.012.002-.008-.006-.013-.007.021-.028.034-.039.052-.007.01-.01.033-.013.045.01 0 .008-.007.013.004a.05.05 0 0 0-.02.026c-.01.002-.01.004-.019.006.003-.009.005-.008.003-.016-.03.015-.043.045-.062.072-.026.034-.065.068-.085.107-.008.017-.006.034-.012.052-.008.018-.02.031-.023.055h.006c.01-.005.02 0 .03-.006 0 .012-.006.007.006.01a.182.182 0 0 1 .013-.029c.011.005.014.008.033.01z"/><path d="M7.395 14.63c.019 0 .032-.003.039-.008.008-.01 0-.017.01-.022.004.009-.001.003.007.007.005-.02.024-.026.049-.026v.003c-.012.012-.011.026-.02.039a.22.22 0 0 1-.075.043c0-.01.005-.005-.003-.01a.033.033 0 0 1-.023.015c0-.01-.001-.001-.006-.012.015-.004.02-.015.022-.03zm.707-.359c-.004.041-.04.058-.06.084a.8.8 0 0 0-.07.121l-.004.03c-.013.036-.037.08.02.093-.003.003-.001.002-.007.004-.007.013-.026.024-.042.03l.003-.02h-.006c-.008.006-.02.011-.026.016-.002-.01-.002-.01-.007-.016.005-.01.015-.02.017-.033.002-.01-.008-.003-.007-.01 0-.004.015-.023.016-.029.003-.013-.01-.006-.006-.02.004-.015.02-.04.026-.058-.008-.002-.005 0-.01-.006.02-.009.015-.029.026-.046.006-.01.019-.011.026-.02l.007-.021c.013-.021.043-.032.058-.053.015-.02.014-.04.046-.046zm1.254-.329c.026.03-.001.047.006.072.002.007.015.013.016.022.002.01-.008.027-.01.033-.004.016.007.028.01.04-.024.015-.027.087-.036.123h-.006c-.002-.054-.041-.09-.02-.15.004-.01-.005-.023-.003-.029a.042.042 0 0 0 .01-.004.353.353 0 0 0 .033-.107zm-.922-.023v-.009c-.011.001-.01.002-.016.006v-.006a.044.044 0 0 0 .013-.023h-.007c-.01.011-.022.008-.026 0 .019-.018.012-.052.046-.056.007.006.01.003.019 0v.004c-.01.007-.012.022-.016.035h.01c.007-.003.004 0 .013.004.004-.018.01-.023.026-.03 0 .024-.002.023.006.037l-.003.002a.143.143 0 0 1-.065.037zm.586 1.417c.012-.001.012-.002.02-.006.001.025-.009.08.009.09.008-.01.014-.01.026-.01l-.003.017v.004c-.019-.01-.018-.002-.036.006 0-.013.002-.015-.006-.02-.006.009 0 .003-.01.004v-.013c-.008-.015.008-.01.006-.023-.001-.013-.006-.03-.006-.05zm-1.735-.592c.009-.002.01-.002.016-.007.006.007.006.006.019.007l.004-.004c0-.008 0-.015.003-.02l.009-.003c.006.008.005.008.017.01-.003-.02-.008-.02-.007-.04.03 0 .054.007.082-.005v.006c-.038.026-.033.113-.049.124-.013.007-.01-.006-.023-.003-.003 0-.005.005-.013.006l-.007-.01c.025-.007.028-.017.036-.035h-.006c-.008.01-.021.023-.036.025v-.006a.1.1 0 0 0 .039-.045h-.013c-.006.009-.005 0-.013.006-.011.01-.009.026-.026.033-.005.003-.013.003-.023.003-.003-.012.004-.012-.009-.016-.006.004-.002.002-.007 0-.003-.004-.002-.003-.004-.01.008-.006.008-.005.011-.016zm1.865.08a.075.075 0 0 1-.006.043l-.003-.003c-.007-.011.002-.016-.007-.023-.008.012-.016.016-.02.033h.007l.009-.003v.003c-.002.004-.002.005-.003.013h-.009v.023h-.01c0-.011.001-.017.003-.023h-.01c-.002.003-.006.005-.009.007v-.014c.008-.01.008-.025.016-.035.013-.011.028-.018.033-.03.004-.01.004-.042.009-.052.003.01-.002.005.007.01v-.006c.016-.017.017-.062.023-.09-.011-.001-.006.003-.01-.005.006-.01.011-.026.016-.036h.003c.002.012.008.019.01.026.004.016-.008.039-.01.049-.002.01.005.02.003.029-.003.022.008.032-.003.046 0 0-.001-.013-.003-.007v.007c-.005.006-.005.016-.01.023-.002-.006 0-.004-.003-.007-.001.017-.007.02-.023.023zm-1.927.828a.247.247 0 0 0 .029-.01v.03c-.005.006-.006.015-.007.025h.007c.004-.002.006-.002.013-.003l.017.023.009-.003c.01.01.013.026.023.036.006-.007.006-.01.013-.007.007.01 0 .03 0 .042.01.003.005-.001.01.007-.02.019-.064.05-.065.075-.013.002-.011.004-.016.013h-.004v-.006a.103.103 0 0 0 .013-.043l-.003-.003a.037.037 0 0 0-.017.016l-.006-.006c.005-.011.01-.015.013-.03-.01-.005-.01-.004-.01-.02.013-.006.019-.01.02-.03-.01-.007-.007-.015-.023-.018-.005.008-.002.007-.013.01 0-.01.002-.014 0-.016-.004-.007-.004 0-.006-.01-.012-.001-.011-.003-.02 0v-.01c.003-.005.003-.016.007-.026H7.2c-.004.006-.007.006-.013.009v-.006c.018-.017.006-.027.016-.05.008-.004.016-.01.023-.015.004-.005.003-.015.007-.02-.001.02-.007.029-.01.046zm2.217-.006c.009 0 .017.002.026.003v.003a.227.227 0 0 0-.038.013c-.016-.007-.02-.011-.027-.023a.116.116 0 0 0-.03.017c-.002.005.002.014 0 .016l-.012.013c.01 0 .008-.002.013.006-.007.007-.006.01-.016.014-.011.006-.023-.004-.027-.004a.088.088 0 0 0-.006.01H9.32c0-.021-.004-.048-.036-.05-.014.016-.025.013-.04.008 0 .009-.001.015-.01.019 0-.015-.002-.012-.01-.02.012-.003.012-.007.015-.02h-.007l-.01.01c-.004-.01-.008-.007-.013-.015.012-.013.008-.023.033-.023l.016.039.003-.003c.023-.025.003-.066.052-.066.019-.014.05-.011.075-.006.002.01.002.01.007.016.006-.007.009-.008.022-.01v.007c-.007.006-.008.006-.01.019.01.007.016.018.026.023a.043.043 0 0 0 .007-.006z"/><path d="M8.877 15.912c.01-.002.014-.007.017-.003.004.006 0 .011.009.016.004-.003.003-.002.01-.003.002.008.002.005.006.01-.007.023-.002.047-.01.064-.011-.006-.03-.01-.042-.019-.013-.01-.01-.026-.02-.039-.005-.007-.018-.007-.025-.013a.142.142 0 0 0-.004-.02c-.004-.007-.011 0-.02-.005-.002-.008-.006-.014-.01-.02l-.01.003c-.005-.003-.01-.01-.018-.013v-.01c.015-.002.024-.012.032-.01.027.023.078.027.082.046.003.004.003.008.003.016zm-1.712-.065a.036.036 0 0 1 .006-.02c-.01-.001-.005.003-.01-.005.012-.006.018-.01.02-.026.004-.01-.002-.005 0-.01.007-.015.014-.025.036-.026v.006c.008.014-.007.019-.004.033.003.01.01.015.01.039-.013.014-.027.05-.05.052l-.005.005v-.002c-.003-.005-.001 0 0-.01.009-.006.012-.014.013-.03-.007-.003-.006-.004-.016-.005zm2.305.027h.009c0 .006.003.014.004.021h.006l.01-.002c0 .01-.002.012 0 .016.01.007.019.005.026.016.03.038.023.134.01.182a1.611 1.611 0 0 0-.007.085c0 .003.007.018.004.026l-.023.023c-.007.014-.004.025-.013.036a.045.045 0 0 0-.02-.01.117.117 0 0 1-.01.033c-.021.002-.026.014-.038.007-.013-.015-.007-.032-.03-.036v-.016c-.01.002-.007.002-.013.006-.001-.012.002-.008-.007-.013v.007c-.01.008-.008.026-.016.035-.002-.016-.017-.03-.03-.035a.043.043 0 0 1-.02.012c-.005-.003 0-.007-.008-.002a.553.553 0 0 0-.075.094l-.003.029c-.003.006-.012.006-.017.01a.139.139 0 0 0-.045.078c-.017.002-.027.009-.036.003-.003-.003-.002-.003-.004-.01.02-.014-.018-.106-.03-.126-.004-.01-.013-.01-.018-.023h.009c.004.003 0 0 .007.003v-.013c-.02-.016-.017-.044-.016-.075.017-.003.012-.036.026-.052.016-.02.042-.044.052-.068.013-.033-.006-.056.013-.08.004.01-.002.004.006.008 0-.021.006-.021.01-.042l-.003.003c-.002.006-.003-.007-.003-.007.016-.014.01-.035.026-.055a.04.04 0 0 0 .013.007c.003.01-.001.012.006.016v-.007c.003-.004.002-.004.004-.012.009 0 .003.005.009-.004.007-.012-.004-.011-.003-.023.002-.018.01-.03.013-.052.007-.001.006 0 .01-.003.004-.004.004-.006.006-.013.006-.005-.002-.005-.006-.01h.033a.157.157 0 0 1 .019-.026v.003c.003.004.002.004.003.01-.008.009-.008.033-.01.056a.014.014 0 0 1 .004.003c.016-.001.04.006.058.009.006-.008.009-.007.01-.022.02-.035-.02-.107.003-.137v.007c.01.013.016.033.023.048l.01-.01c.009.027.02.052.032.079a.09.09 0 0 1 .03.003zm-.362-.092h.01l-.003.014c.012 0 .008-.004.009.012h-.002c-.006-.01-.008-.005-.017-.002-.003-.013-.008-.021-.013-.033l-.003.003c-.012.018.006.044 0 .065l-.004-.003c-.023-.026-.02-.102-.01-.14.023-.013.043-.02.049-.053h.004v.01c-.006.009-.01.023-.013.033a.046.046 0 0 0-.042.048l.003.007.013.006c0-.019.008-.025.019-.032v.006a.113.113 0 0 0-.016.033c.012.002.009 0 .013.01.003.003.003.007.003.016zm-.143.098c-.002-.015-.006-.02-.007-.036l-.012.004c-.002-.03-.01-.034-.004-.06.008.003.012.004.02-.002.005-.01-.002-.017 0-.026 0-.007.01-.012.013-.016.008-.016.002-.03.009-.05.003-.006.014-.013.017-.02.01-.022-.001-.038.013-.057.004.006.006.012.013.016l.006-.007v.004l.01.003c-.01.023-.022.054-.006.078.004.007.01.004.016.013-.025.01-.005.03-.01.052-.001.003-.01.01-.01.013-.002.009.003.022.004.026.004.023-.007.033-.013.046-.01-.008-.018-.013-.026-.005-.004.007 0 .007-.003.01-.008.009-.016.012-.03.014zm-2.027-.226h.001l-.001-.001h.003v-.002a.345.345 0 0 0 .066-.101c.004-.014-.005-.018-.007-.03-.013-.002-.019-.004-.026-.01-.005.01-.009.007-.017.014-.003.006-.001.002 0 .009-.005.002-.006.003-.014.004v.013c-.015.002-.013.006-.026.01l.02.096zm1.277 1.167h.011c.002-.015.014-.022.019-.033.007-.015-.001-.032 0-.038l.013-.013c.004-.01-.001-.023.003-.03v.007c.012.009.019.028.023.045-.013.002-.011 0-.013.013.009.01.002.03.006.049.007.029.008.183-.022.195-.006.005-.005.006-.01.004-.012-.01-.003-.014-.01-.03l-.016-.016a.213.213 0 0 1 .01-.071c-.003-.007-.014-.013-.017-.02-.008-.021.002-.041.003-.062zm1.525-.605c-.014.002-.007.004-.013.009l-.01-.006c-.004.002-.008.007-.013.009v-.006c.014-.016.001-.026.013-.052l.013-.01c.014-.028.016-.062.022-.098.005.004.003.004.01.007.003-.008.002-.005.007-.01v.013c-.006.01.001.027-.003.04a.312.312 0 0 0-.026.104zm-.739-.258c.016-.003.015-.011.029-.016l.003.016c-.023.004-.022.017-.042.026h-.016c-.011.004-.018.016-.027.02-.01.004-.015-.002-.023 0v-.017c.012-.005.012-.01.027-.013.005-.002.006.004.012 0 .014-.008.016-.014.02-.026l.02-.002v.002c-.003.004-.002.003-.003.01zm.742-.035h.013c.004.013.004.025.019.029.002-.006.001-.004.004-.006.001.015 0 .014.016.016.004-.01.011-.016.013-.016.003.004.003.01.003.019-.018.024-.01.054-.023.085h-.006c0-.011.001-.024-.003-.03-.011-.007-.009.006-.013-.01.007-.008.009-.02.009-.036a.107.107 0 0 1-.032-.051z"/></g></g></svg>