<svg width="36" height="36" fill="none" xmlns="http://www.w3.org/2000/svg"><path d="M18 0c2.837 0 5.52.656 7.907 1.825C31.884 4.753 36 10.895 36 18c0 9.942-8.058 18-18 18-9.94 0-18-8.057-18-18C0 8.06 8.06 0 18 0z" fill="#F2F4F7"/><path d="M31.868 16.64a.253.253 0 0 1 .132.225.255.255 0 0 1-.132.223.277.277 0 0 1-.136.033.27.27 0 0 1-.23-.127.245.245 0 0 1-.035-.13.259.259 0 0 1 .132-.224.266.266 0 0 1 .133-.034.27.27 0 0 1 .136.035zm-.027.405a.192.192 0 0 0 .074-.074.21.21 0 0 0 .027-.106.215.215 0 0 0-.027-.108.193.193 0 0 0-.074-.075.219.219 0 0 0-.11-.027.21.21 0 0 0-.106.027.193.193 0 0 0-.074.075.214.214 0 0 0-.027.108c0 .04.01.075.027.106a.192.192 0 0 0 .074.074.213.213 0 0 0 .107.027.22.22 0 0 0 .109-.027zm-.014-.19a.113.113 0 0 1-.049.028l.078.116h-.07l-.065-.106h-.025v.106h-.06v-.277h.082c.085 0 .128.028.128.084 0 .02-.006.036-.018.049zm-.13-.006h.03c.039 0 .058-.015.058-.043 0-.014-.005-.024-.014-.03a.082.082 0 0 0-.045-.01h-.03v.083zm-18.702.629a.086.086 0 0 1-.062.025h-.75c-.024 0-.036.012-.036.035v1.703c0 .18.04.309.12.389.082.08.21.12.386.12h.221c.024 0 .045.008.063.024a.08.08 0 0 1 .025.06v.53c0 .052-.029.083-.088.092l-.382.007c-.387 0-.676-.063-.867-.19-.19-.128-.289-.368-.294-.721v-2.014c0-.024-.012-.035-.036-.035h-.42a.086.086 0 0 1-.062-.025.08.08 0 0 1-.026-.06v-.495a.087.087 0 0 1 .088-.085h.42c.024 0 .036-.011.036-.035v-.826a.08.08 0 0 1 .026-.06.087.087 0 0 1 .063-.025h.639c.024 0 .045.008.062.025a.08.08 0 0 1 .026.06v.826c0 .024.012.035.037.035h.75c.024 0 .045.009.062.025a.08.08 0 0 1 .026.06v.495a.084.084 0 0 1-.027.06zm3.37 1.156-.007.219c0 .056-.03.084-.088.084h-2.3c-.024 0-.037.012-.037.036a.979.979 0 0 0 .067.318c.117.339.404.51.86.516a.938.938 0 0 0 .793-.396c.02-.029.044-.043.073-.043.02 0 .037.007.052.021l.455.36c.045.034.052.071.022.114a1.49 1.49 0 0 1-.606.48c-.252.113-.532.17-.841.17-.382 0-.707-.083-.974-.247a1.436 1.436 0 0 1-.584-.693c-.113-.254-.169-.608-.169-1.06 0-.273.03-.494.088-.664.098-.33.283-.59.555-.78.272-.191.599-.287.98-.287.966 0 1.51.485 1.632 1.456.02.117.03.25.03.396zm-2.112-1.015a.691.691 0 0 0-.254.364 1.17 1.17 0 0 0-.059.311c-.01.024 0 .035.03.035h1.491c.025 0 .037-.011.037-.035a1.294 1.294 0 0 0-.044-.268.685.685 0 0 0-.26-.396.81.81 0 0 0-.49-.142.75.75 0 0 0-.451.131zm5.187-.498c.237.226.356.535.356.926v2.318a.08.08 0 0 1-.026.06.087.087 0 0 1-.062.024h-.676a.087.087 0 0 1-.063-.024.08.08 0 0 1-.026-.06v-2.149a.733.733 0 0 0-.19-.526.667.667 0 0 0-.508-.201c-.21 0-.38.066-.51.197a.714.714 0 0 0-.195.523v2.156a.08.08 0 0 1-.026.06.086.086 0 0 1-.062.024h-.676a.087.087 0 0 1-.063-.024.08.08 0 0 1-.026-.06v-3.442a.08.08 0 0 1 .026-.06.087.087 0 0 1 .063-.024h.676c.024 0 .045.008.062.024a.08.08 0 0 1 .026.06v.227c0 .014.005.023.015.028.01.005.017 0 .022-.014.2-.255.504-.382.91-.382.398 0 .715.113.953.34zm3.15-.183c.235.103.417.246.544.427.127.181.19.388.19.618v2.382a.08.08 0 0 1-.025.06.086.086 0 0 1-.062.024h-.676a.086.086 0 0 1-.063-.024.08.08 0 0 1-.026-.06v-.226c0-.015-.005-.023-.015-.025-.01-.002-.02.001-.029.01-.24.255-.588.382-1.043.382-.368 0-.67-.09-.908-.268-.238-.18-.356-.446-.356-.8 0-.367.133-.653.4-.858.267-.205.643-.307 1.128-.307h.786c.025 0 .037-.012.037-.035v-.17c0-.184-.056-.326-.169-.428-.113-.101-.282-.152-.507-.152a.931.931 0 0 0-.452.096.417.417 0 0 0-.216.265c-.015.056-.05.08-.103.07l-.713-.085a.162.162 0 0 1-.063-.024c-.017-.012-.023-.027-.018-.046.04-.287.2-.523.481-.707.282-.183.636-.275 1.062-.275.31 0 .581.052.816.156zm-.402 2.734a.553.553 0 0 0 .257-.466v-.332c0-.024-.012-.036-.037-.036h-.617c-.26 0-.464.048-.614.142a.45.45 0 0 0-.224.402c0 .151.058.268.173.35a.745.745 0 0 0 .444.124c.24 0 .446-.061.618-.184zm4.76-1.038c0 .334-.047.628-.14.883-.108.31-.282.554-.522.728-.24.174-.534.261-.881.261-.343 0-.625-.125-.845-.374-.01-.015-.02-.02-.03-.015-.01.005-.015.015-.015.029v.219a.08.08 0 0 1-.025.06.086.086 0 0 1-.063.025h-.676a.086.086 0 0 1-.062-.025.08.08 0 0 1-.026-.06v-4.777a.08.08 0 0 1 .026-.06.087.087 0 0 1 .062-.025h.676c.025 0 .045.008.063.025a.08.08 0 0 1 .026.06v1.533c0 .014.004.024.014.029.01.004.02.002.03-.007.21-.24.49-.36.837-.36.363 0 .663.086.9.26.238.175.413.418.526.728.083.264.125.552.125.863zm-.875.014c0-.368-.073-.655-.22-.863-.133-.197-.329-.296-.588-.296a.61.61 0 0 0-.551.31c-.123.194-.184.474-.184.841 0 .363.057.636.17.82.126.226.317.34.572.34.137 0 .26-.03.368-.09a.663.663 0 0 0 .257-.25c.117-.198.176-.468.176-.813zM27.3 20.43a.08.08 0 0 1-.026-.06v-4.777a.08.08 0 0 1 .026-.06.087.087 0 0 1 .062-.024h.676a.09.09 0 0 1 .063.024.08.08 0 0 1 .026.06v4.777a.08.08 0 0 1-.026.06.086.086 0 0 1-.063.025h-.676a.085.085 0 0 1-.062-.025zm4.44-1.802-.007.22c0 .056-.03.084-.088.084h-2.3c-.025 0-.037.012-.037.035a.979.979 0 0 0 .066.318c.118.34.404.511.86.516a.938.938 0 0 0 .793-.396c.02-.028.045-.042.074-.042.02 0 .037.007.051.02l.456.361c.044.033.051.07.022.113a1.49 1.49 0 0 1-.606.48c-.253.114-.533.17-.842.17-.382 0-.706-.082-.973-.247a1.436 1.436 0 0 1-.584-.692c-.113-.255-.17-.608-.17-1.06 0-.273.03-.495.089-.665.098-.33.282-.59.554-.78.272-.191.6-.286.981-.286.965 0 1.509.485 1.631 1.455.02.118.03.25.03.396zm-2.112-1.014a.69.69 0 0 0-.254.364 1.16 1.16 0 0 0-.059.31c-.01.024 0 .036.03.036h1.491c.025 0 .037-.012.037-.036a1.293 1.293 0 0 0-.044-.268.684.684 0 0 0-.261-.396.81.81 0 0 0-.489-.141.755.755 0 0 0-.451.13zm-19.282.792-.85-2.523a.538.538 0 0 0-.406-.356l-2.652-.517a.539.539 0 0 0-.503.17l-1.799 2.015a.538.538 0 0 0-.108.529l.85 2.523a.537.537 0 0 0 .405.355l2.653.518a.54.54 0 0 0 .503-.17l1.799-2.016a.538.538 0 0 0 .108-.528zm-1.027-2.464.559 1.66-1.188-1.874a.472.472 0 0 0-.092-.107l.457.09a.35.35 0 0 1 .264.231zm-.876 4.377-1.035.052 1.675-.97.007-.004-.403.766a.293.293 0 0 1-.244.156zm-2.601-.017-.585-.923a.386.386 0 0 0 .034.023l1.688.977a.37.37 0 0 0 .024.013l-.9.046a.293.293 0 0 1-.261-.136zm.088-4.49 1.035-.053-1.674.97c-.003 0-.005.002-.008.004l.404-.766a.293.293 0 0 1 .243-.156zm2.602.016.585.923a.436.436 0 0 0-.034-.023l-1.688-.977a.37.37 0 0 0-.024-.013l.9-.045a.29.29 0 0 1 .261.135zm.571 3.215a.23.23 0 0 1-.114.198l-1.688.977a.23.23 0 0 1-.229 0l-1.687-.978a.23.23 0 0 1-.114-.197v-1.956a.23.23 0 0 1 .114-.198l1.688-.977a.226.226 0 0 1 .228 0l1.688.978c.07.04.114.116.114.197v1.956zm-4.012.075-.49-.773a.293.293 0 0 1-.012-.293l.495-.94v1.93a.4.4 0 0 0 .007.076zm4.192-2.106.49.773c.056.088.06.2.012.293l-.495.94v-1.93a.427.427 0 0 0-.007-.076zm-3.208-1.708a.352.352 0 0 1 .328-.11l1.655.322-2.137.108a.48.48 0 0 0-.169.041l.323-.361zm-1.8 2.016 1.19-1.333-1.041 1.978a.48.48 0 0 0-.054.19l-.165-.49a.35.35 0 0 1 .07-.345zm.78 2.867-.56-1.659 1.188 1.874c.026.04.057.076.093.106l-.457-.089a.35.35 0 0 1-.264-.232zm3.244.64a.351.351 0 0 1-.328.11l-1.656-.323 2.138-.108a.477.477 0 0 0 .169-.041l-.323.361zm1.8-2.017-1.19 1.333 1.041-1.978a.478.478 0 0 0 .054-.19l.165.49a.35.35 0 0 1-.07.345z" fill="#000"/></svg>