<svg width="48" height="44" fill="none" xmlns="http://www.w3.org/2000/svg"><path d="M30 0c2.837 0 5.52.656 7.907 1.825C43.884 4.753 48 10.895 48 18c0 9.942-8.058 18-18 18-9.94 0-18-8.057-18-18 0-9.94 8.06-18 18-18z" fill="#F2F4F7"/><path d="m21.562 16.095-1.032.624 1.032 4.862v-5.486zm.063-.184L27.25 15H16l5.625.911zm-.189.104-5.023-.817 4.018 1.427 1.005-.61zm5.41-.817-5.032.817 1.01.61 4.022-1.427zm-5.154.897v5.486l1.033-4.862-1.033-.624z" fill="#8B2332"/><path d="M37.831 18.613v-.821h.406v.074c0 .04 0 .104.002.142l.002.068.037-.053c.088-.13.148-.188.234-.225a.587.587 0 0 1 .224-.04l.045-.003v.434h-.093a.529.529 0 0 0-.2.024.295.295 0 0 0-.126.077.256.256 0 0 0-.07.117c-.03.088-.033.164-.034.674v.354h-.427v-.822zm-17.018 2.944a.236.236 0 0 1-.205-.283.234.234 0 1 1 .204.283zm.061-.048a.192.192 0 0 0 .148-.15.232.232 0 0 0 0-.073.198.198 0 0 0-.034-.074.233.233 0 0 0-.044-.043.201.201 0 0 0-.073-.03.184.184 0 0 0-.166.052.182.182 0 0 0-.052.167.18.18 0 0 0 .053.099.166.166 0 0 0 .046.034c.02.01.041.017.063.02.01.001.05 0 .059-.002z" fill="#5C6670" stroke="#5C6670" stroke-width=".01"/><path d="M20.735 21.319v-.122h.064c.072 0 .073.001.093.01.022.011.032.029.032.057 0 .027-.01.046-.035.057-.011.006-.011.006-.008.007.02.007.026.017.053.07l.021.043h-.066l-.018-.038a.177.177 0 0 0-.025-.043c-.01-.009-.016-.011-.035-.011h-.014v.092h-.062v-.122zm.105-.015c.014-.003.02-.012.022-.027.002-.017-.005-.029-.018-.033a.085.085 0 0 0-.027-.002h-.02v.063h.019l.024-.001zm15.737-4.15a1.072 1.072 0 0 0-.562.151 1.067 1.067 0 0 0-.44.583 1.619 1.619 0 0 0-.008.879 1.017 1.017 0 0 0 .343.514.935.935 0 0 0 .517.203c.034.003.18.002.214-.001a.73.73 0 0 0 .405-.155 2.21 2.21 0 0 0 .156-.153c.01-.012.02-.02.022-.02.002.002.044.257.045.268a.65.65 0 0 0 .153.005h.153v-1.19h-.92v.369h.515v.008a.542.542 0 0 1-.42.466.633.633 0 0 1-.445-.064.55.55 0 0 1-.254-.279 1.008 1.008 0 0 1-.062-.398c0-.19.02-.317.07-.44a.581.581 0 0 1 .349-.34.666.666 0 0 1 .403.004.443.443 0 0 1 .292.3l.01.034h.455l-.002-.011a.802.802 0 0 0-.11-.308.893.893 0 0 0-.346-.317 1.078 1.078 0 0 0-.533-.108zm-10.239.044v.39h.435v-.39h-.435zm6.805.007v2.216h.43l.002-.496c.001-.488.001-.496.009-.53.032-.145.099-.238.199-.275a.343.343 0 0 1 .136-.022c.088 0 .135.017.183.065.036.036.062.09.074.152.01.048.011.134.011.612v.501h.428l-.002-.585c-.001-.59-.002-.635-.015-.706a.457.457 0 0 0-.122-.229c-.087-.09-.196-.14-.378-.169a.281.281 0 0 0-.102-.005.579.579 0 0 0-.26.088.688.688 0 0 0-.133.131l-.027.036-.001-.392-.001-.392h-.431zm-9.58.007v.387h.669v1.83h.467v-1.83h.664v-.387h-1.8zm16.09.525c-.047 0-.093.002-.12.004-.224.023-.392.106-.512.254a.918.918 0 0 0-.184.391c-.035.166-.028.369.018.526a.885.885 0 0 0 .2.355c.118.123.278.192.488.212.052.005.217.002.267-.005a.706.706 0 0 0 .475-.248.93.93 0 0 0 .2-.507 1.672 1.672 0 0 0-.005-.266.96.96 0 0 0-.122-.35c-.132-.222-.314-.334-.587-.362a1.453 1.453 0 0 0-.118-.004zm-13.525.024a.458.458 0 0 0-.198.051c-.074.038-.133.1-.218.23l-.026.04v-.145l-.001-.145h-.406v1.643h.427v-.408c0-.418.002-.476.015-.55.022-.126.075-.2.173-.248a.522.522 0 0 1 .256-.042l.079.002v-.433h-.012l-.089.005zm3.56-.011a.609.609 0 0 0-.221.039c-.092.036-.15.087-.227.202l-.025.037v-.24h-.416v1.64h.43l.002-.527c.001-.568 0-.557.02-.62.032-.098.104-.149.225-.16.121-.011.204.027.247.113a.317.317 0 0 1 .032.119c.002.02.004.235.004.554v.521h.427l.001-.517c.002-.567 0-.538.023-.61a.243.243 0 0 1 .18-.177.408.408 0 0 1 .154-.002c.092.025.148.09.166.192.005.026.005.113.005.573v.541h.437l.003-.552c.003-.663.002-.69-.027-.783a.49.49 0 0 0-.193-.258.587.587 0 0 0-.346-.083.527.527 0 0 0-.449.274l-.017-.032a.453.453 0 0 0-.158-.183.577.577 0 0 0-.276-.061zm13.61.004a.562.562 0 0 0-.303.092.608.608 0 0 0-.154.157.172.172 0 0 1-.024.03c-.002 0-.003-.054-.003-.12v-.12h-.409v2.288h.424v-.43l.001-.429.026.036c.08.112.178.18.298.206a.733.733 0 0 0 .363-.018.776.776 0 0 0 .156-.077c.227-.159.337-.437.326-.82a1.043 1.043 0 0 0-.074-.387.666.666 0 0 0-.626-.408zm-11.009 0a.566.566 0 0 0-.311.091.843.843 0 0 0-.151.154l-.026.036v-.121l-.001-.122h-.41v2.29h.424v-.86l.023.033c.092.13.193.193.344.218.043.007.163.006.212-.002a.629.629 0 0 0 .397-.225c.108-.128.17-.305.19-.528a2.11 2.11 0 0 0-.008-.32.754.754 0 0 0-.207-.45.643.643 0 0 0-.476-.194zm-5.95.035v1.64h.434v-1.64h-.435zm.682 0v.523c0 .596.002.645.026.756.05.23.198.364.438.393.043.005.193.002.231-.005a.47.47 0 0 0 .229-.108.444.444 0 0 0 .12-.125.111.111 0 0 1 .019-.025c.002 0 .003.052.003.115v.115h.413v-1.64h-.43l-.002.49c-.002.531-.002.521-.023.604a.294.294 0 0 1-.22.226.54.54 0 0 1-.185.001.218.218 0 0 1-.097-.052.239.239 0 0 1-.072-.144c-.006-.032-.006-.068-.008-.58v-.544h-.442zm13.646 0 .001.557c.002.5.002.564.008.611.02.176.063.28.148.366a.46.46 0 0 0 .116.084.68.68 0 0 0 .191.054c.044.005.193.002.232-.005a.504.504 0 0 0 .25-.125.432.432 0 0 0 .096-.104.17.17 0 0 1 .022-.029c.001 0 .002.052.002.115v.115h.413v-1.64h-.43l-.002.493c-.001.53 0 .517-.02.596a.295.295 0 0 1-.215.229.308.308 0 0 1-.102.01c-.075 0-.094-.004-.142-.027a.205.205 0 0 1-.102-.12c-.022-.063-.022-.043-.023-.637l-.001-.543h-.442zm-1.011.303a.357.357 0 0 1 .268.115c.077.09.114.208.118.374a.72.72 0 0 1-.057.338.334.334 0 0 1-.252.2.425.425 0 0 1-.261-.03.357.357 0 0 1-.172-.194.83.83 0 0 1 .014-.6.343.343 0 0 1 .265-.198.462.462 0 0 1 .077-.005zm-7.484.033c.101 0 .173.025.233.081.085.08.14.246.14.417a.594.594 0 0 1-.12.392.315.315 0 0 1-.154.092.538.538 0 0 1-.169.005.343.343 0 0 1-.27-.253.899.899 0 0 1-.025-.301.651.651 0 0 1 .053-.238c.062-.133.161-.195.312-.195zm11.013.002c.064 0 .076 0 .102.008a.387.387 0 0 1 .096.042c.02.014.054.049.072.074a.718.718 0 0 1 .065.129c.069.192.045.45-.056.6a.309.309 0 0 1-.265.136.327.327 0 0 1-.138-.018c-.126-.043-.206-.149-.234-.31a1.109 1.109 0 0 1 .01-.364.371.371 0 0 1 .183-.265.297.297 0 0 1 .165-.032z" fill="#5C6670" stroke="#5C6670" stroke-width=".01"/></svg>