<svg height="36" viewBox="0 0 36 36" width="36" xmlns="http://www.w3.org/2000/svg"><mask id="a" fill="#fff"><path d="M0 0h5.978v5.978H0z" fill-rule="evenodd"/></mask><mask id="b" fill="#fff"><path d="M0 0h3.495v4.304H0z" fill-rule="evenodd"/></mask><g fill="none" fill-rule="evenodd"><path d="M18 0c2.837 0 5.52.656 7.907 1.825C31.884 4.753 36 10.895 36 18c0 9.942-8.058 18-18 18-9.94 0-18-8.057-18-18C0 8.06 8.06 0 18 0z" fill="#f2f4f7" fill-rule="nonzero"/><path d="M0 2.989a2.989 2.989 0 1 1 5.977 0 2.989 2.989 0 0 1-5.977 0m2.989 1.985a1.985 1.985 0 1 0 0-3.97 1.985 1.985 0 0 0 0 3.97m0-.973a1.03 1.03 0 1 0 0-2.062 1.03 1.03 0 0 0 0 2.062" fill="#e30620" mask="url(#a)" transform="translate(4 15)"/><g fill="#1d1d1b"><path d="M10.949 15.844h3.406v.859h-1.172v3.445h-1.04V16.71h-1.194zm6.587 0h2.021c1.15 0 1.31.787 1.31 1.245 0 .665-.574.999-.625 1.012 0 0 .503.188.503.758v.801c0 .321.197.41.232.487h-.82c-.392-.045-.386-.357-.383-.535v-.69c-.009-.169-.06-.357-.414-.364h-.83v1.59h-.997zm1.948.866h-.955v.859s.745.003.857 0c.3-.006.53-.14.53-.433 0-.318-.196-.426-.432-.426zm5.775-.866v4.304h3.1v-.885H26.27V18.3h1.782v-.814H26.27v-.777h2.088v-.867z"/><path d="M0 .866h1.229v3.438h1.018V.866h1.248V0H0z" mask="url(#b)" transform="translate(28.505 15.844)"/><path d="M14.854 15.843h1.105l1.504 4.304h-1.07l-.311-.894h-1.27l-.293.894h-1.062zm.577 1.519-.366 1.111h.754zm9.471.382h-1.85v.837h.879c-.002.172.026.344-.181.586a.906.906 0 0 1-.646.267.962.962 0 0 1-.664-.231c-.391-.331-.482-.951-.482-1.274 0-.408.162-1.42 1.158-1.461 0 0 .672-.044.847.767h.933c-.02-.411-.497-1.564-1.78-1.566a2.047 2.047 0 0 0-1.47.598c-.337.338-.64.905-.64 1.703 0 .866.319 1.429.61 1.738.513.544 1.028.586 1.297.586.213 0 .62-.032 1.149-.39l.14.243h.7zm6.371 1.875c.147 0 .278.106.278.27s-.131.272-.278.272-.278-.106-.278-.271.13-.271.278-.271zm0 .484c.112 0 .205-.09.205-.213s-.094-.213-.206-.213c-.113 0-.204.089-.204.213s.09.213.205.213zm-.108-.366h.114c.077 0 .119.024.119.09 0 .056-.034.078-.08.082l.081.132h-.063l-.073-.13h-.039v.13h-.06zm.06.127h.053c.034 0 .06-.005.06-.042 0-.033-.035-.037-.063-.037h-.05z"/></g></g></svg>