<svg width="36" height="36" fill="none" xmlns="http://www.w3.org/2000/svg"><path d="M18 0c2.837 0 5.52.656 7.907 1.825C31.884 4.753 36 10.895 36 18c0 9.942-8.058 18-18 18-9.94 0-18-8.057-18-18C0 8.06 8.06 0 18 0z" fill="#F2F4F7"/><g fill="#000"><path d="M25.093 15.836c-.262-.199-.41-.052-.493.09-.141.237-.513.922-.846 1.447-.442.699-.59.833-.59.833s0-1.339-.019-1.454c-.057-.384-.256-.346-.403-.32-.391.064-.385.211-.404.34-.045.32.02 1.697.038 1.87.013.173-.012.782.34.833.263.039.519-.205.711-.416.192-.212.404-.468.859-1.102.5-.705.852-1.288.98-1.519.122-.23.116-.384-.173-.602zm1.711.993c.25-.25.545-.436.686-.359.16.09-.026.468-.334.699-.198.147-.544.371-.897.371a3.21 3.21 0 0 1 .545-.711zm5.004-1.025c-.23-.231-.39-.096-.5.025-.019.026-.544.551-1.102 1.186-.43.5-.807.96-.807.96s-.013-.313.032-.704c.026-.224.102-.66.122-.794.109-.699-.32-.725-.48-.737-.168-.013-.25.076-.296.294-.044.193-.294 1.269-.198 2.371.019.199.057.404.057.417l-.096.14c-.942-.262-1.582-.91-1.582-.91s.307-.089.647-.294c.269-.167.788-.57.73-1.288-.045-.609-.685-.884-.916-.84-.211.045-.59.308-.936.622-.025-.166-.025-.352-.198-.371-.122-.013-.27.044-.372.102a.672.672 0 0 0-.269.256l-.397.91c-.013.032-.038.039-.058.045a.402.402 0 0 0-.294.244s-.09.192.07.365c-.077.211-.288.705-.288.705-.257.602-.244.813-.148.942.045.064.212.16.41.192.148.025.263-.064.391-.263.186-.295.558-1.07.558-1.07s.73.8 2.204 1.333c0 0-.782 1.083-.897 1.678 0 0-.058.391.468.391a.95.95 0 0 0 .474-.121.26.26 0 0 0 .121-.154.122.122 0 0 0-.012-.084c-.013-.025-.039-.038-.052-.057-.025-.026-.025-.064-.006-.103.288-.846 1.467-2.28 1.717-2.595.66-.826 1.884-2.108 1.974-2.21.16-.205.185-.327-.07-.583z"/><path d="M21.998 18.488c-.07-.038-.16-.012-.3.026-.231.064-.808.282-1.007.346-.083.026-.237.064-.3-.013-.103-.128.044-.532.134-.756.09-.224.224-.404.647-.525.154-.045.41-.128.512-.16.116-.039.263-.116.327-.372.07-.295-.147-.34-.352-.391-.288-.083-.474-.09-.346-.372.051-.115.102-.166.211-.198.116-.032 1.09-.186 1.48-.257.218-.038.289-.153.385-.346.198-.41-.052-.435-.25-.416-.449.038-1.173.173-1.48.218-.167.025-.058-.256-.25-.27a1.324 1.324 0 0 0-.827.231c-.121.096-.179.385-.179.385l-.372 1.294c-.032.148-.077.295-.185.359-.257.154-.782.167-.737.737 0 0 .012.282.237.846.057.14.057.23.038.378l-.058.333c-.019.096-.064.301 0 .378.065.077.186.07.334.051.16-.02.974-.186 1.826-.544a1.59 1.59 0 0 0 .333-.193c.23-.18.27-.55.27-.55.006-.065.006-.167-.09-.219zM9.145 17.45c.064-.403.327-.679.724-.679.378 0 .647.308.667.68h-1.39zm.73-1.416c-1.012 0-1.851.73-1.851 1.75 0 1.114.762 1.768 1.877 1.768.77 0 1.5-.333 1.704-1.102h-1.05c-.103.244-.372.365-.641.365-.474 0-.75-.3-.769-.756h2.518c.058-1.128-.557-2.025-1.787-2.025zm5.934 2.686c-.52 0-.68-.5-.68-.923 0-.423.16-.93.68-.93.525 0 .685.507.685.93 0 .422-.166.922-.685.922zm0-2.686c-1.064 0-1.8.763-1.8 1.763 0 .999.736 1.755 1.8 1.755 1.063 0 1.813-.756 1.813-1.755-.006-1-.75-1.763-1.813-1.763zM5.692 15.003H4.57v1.115H4v.724h.57v1.448c0 .929.244 1.21 1.205 1.21.205 0 .41-.025.615-.031v-.827c-.103 0-.199.013-.288.013-.244 0-.404-.058-.404-.333v-1.48h.692v-.724h-.698v-1.115zm2.12 1.115h-1.12v3.35h1.12v-3.35zm0-1.115h-1.12v.807h1.12v-.807zm5.485 0h-1.121v1.115h-.57v.724h.57v1.448c0 .929.243 1.21 1.204 1.21.205 0 .41-.025.616-.031v-.827c-.103 0-.2.013-.289.013-.243 0-.403-.058-.403-.333v-1.48h.692v-.724h-.692v-1.115h-.007z"/></g></svg>