<svg height="36" viewBox="0 0 36 36" width="36" xmlns="http://www.w3.org/2000/svg"><mask id="a" fill="#fff"><path d="M0 0h6.056v1.467H0z" fill-rule="evenodd"/></mask><g fill="none" fill-rule="evenodd"><path d="M18 0c2.837 0 5.52.656 7.907 1.825C31.884 4.753 36 10.895 36 18c0 9.942-8.058 18-18 18-9.94 0-18-8.057-18-18C0 8.06 8.06 0 18 0z" fill="#f2f4f7" fill-rule="nonzero"/><g fill="#c31230"><path d="m14.67 14-.95 1.705L12.775 14h-1.8l1.684 2.926-2.404 4.161h1.78l1.678-3.066.831 1.446h1.672l-1.478-2.547L16.413 14zM4 14v1.416h1.824v5.663h1.679v-5.663h1.824V14z"/><path d="M14.03 20.204h-.069c-.004-.08-.018-.204-.119-.25-.03-.016-.076-.014-.145-.014l-.102.922c-.004.045-.014.122.035.158.02.015.04.02.072.021l-.005.048h-.495l.006-.048a.147.147 0 0 0 .076-.02c.056-.037.063-.114.068-.159l.101-.922c-.069 0-.114-.002-.15.013-.11.047-.15.17-.172.251h-.069l.057-.348h.93zm2.697-5.534a.317.317 0 1 1 0-.634.318.318 0 0 1 0 .634zm0-.597a.279.279 0 0 0-.28.281.28.28 0 1 0 .56 0 .281.281 0 0 0-.28-.28zm-.119.096h.157c.054 0 .106.01.111.09.002.045-.013.061-.046.087.036.023.036.028.042.09.004.045-.003.053.017.082h-.054l-.007-.043c-.007-.042.013-.106-.06-.106h-.115v.15h-.045zm.046.04v.12h.111c.031 0 .06-.008.065-.053.006-.06-.037-.068-.065-.068zm-7.196-.207h1.601v4.42c0 2.022-.969 2.728-2.528 2.728-.369 0-.585-.01-.9-.116V19.78c.503.011.622-.008.714-.014.511-.039 1.113-.258 1.113-1.365z"/><path d="M14.898 20.083c.005-.045.015-.12-.034-.159-.02-.015-.041-.019-.073-.02l.005-.047h.495l-.005.046c-.031.002-.054.005-.077.021-.056.038-.063.114-.067.16l-.086.78c-.005.043-.015.12.032.156a.128.128 0 0 0 .073.021l-.005.05h-.494l.005-.05c.032-.002.055-.005.077-.02.056-.037.064-.114.068-.158l.044-.396h-.516l-.043.396c-.004.044-.014.121.035.157.018.015.042.02.072.021l-.005.05h-.495l.006-.05a.141.141 0 0 0 .077-.02c.055-.037.062-.114.067-.158l.085-.78c.005-.045.015-.12-.033-.159-.018-.015-.041-.019-.072-.02l.005-.047h.495l-.006.046a.141.141 0 0 0-.077.021c-.056.038-.063.114-.068.16l-.033.298h.515z"/><path d="M17.513 20.204h-.07c-.004-.08-.018-.204-.118-.25-.031-.016-.077-.014-.145-.014l-.102.922c-.004.045-.014.122.035.16.018.013.04.017.072.02l-.005.047h-.495l.005-.048a.157.157 0 0 0 .077-.02c.056-.037.063-.114.068-.159l.1-.922c-.068 0-.113-.002-.15.013-.11.047-.15.171-.172.251h-.07l.058-.348h.929zm-2.374.837a.145.145 0 0 0 .077-.02c.057-.037.064-.113.069-.158l.085-.779c.005-.045.015-.122-.034-.16-.018-.016-.042-.019-.073-.02l.006-.047h.807l-.007.28-.064.011c-.03-.118-.055-.173-.16-.207a1.113 1.113 0 0 0-.214-.012l-.054.492c.088 0 .178.008.234-.084a.292.292 0 0 0 .036-.088h.067l-.047.425H15.8c-.002-.035-.003-.06-.016-.089-.036-.09-.128-.082-.216-.082l-.032.287c-.004.046-.02.176.018.204.046.035.226.012.277-.01.114-.047.143-.143.175-.233l.062.013-.056.325h-.878z"/><path d="M17.743 21.052c-.125.091-.374.074-.49.04l.03-.265h.104c.003.064.012.148.072.181.028.015.055.01.07.002.057-.033.06-.109.066-.159l.084-.767c.005-.045.015-.122-.041-.16-.021-.016-.046-.018-.083-.02l.005-.047h.562l-.005.047a.175.175 0 0 0-.087.02c-.062.038-.07.115-.074.16l-.074.672c-.01.092-.02.21-.14.296"/><path d="M21.65 20.728c-.082.206-.252.316-.436.37-.184.057-.469.009-.62-.164-.134-.151-.149-.38-.11-.545a.766.766 0 0 1 .381-.481c.313-.158.633-.047.767.175.117.198.098.44.018.645zm-.858-.485c-.059.2-.08.53.063.707.074.094.171.122.253.099.13-.035.197-.123.251-.258.087-.213.108-.542-.023-.761-.068-.115-.172-.134-.233-.124a.546.546 0 0 0-.076.02c-.133.055-.203.2-.235.317zm-.368-.03h-.066c-.008-.137-.03-.241-.168-.302a.33.33 0 0 0-.337.053c-.168.134-.23.39-.23.544-.002.14.04.398.204.494.095.056.205.044.323-.036.11-.075.173-.16.237-.24l-.017.244c-.245.152-.577.208-.792.07-.19-.117-.243-.286-.238-.484a.762.762 0 0 1 .271-.582c.254-.205.65-.148.847-.071zm-1.883-.31c-.027.003-.079.006-.097.054-.018.04.018.107.06.184l.094.18.113-.133c.076-.09.134-.166.126-.228-.004-.043-.032-.056-.085-.056l.005-.046h.406l-.006.046c-.089-.003-.138.07-.229.175l-.279.327.224.445c.071.146.104.184.195.19l-.005.048h-.55l.005-.048c.03.003.081-.004.098-.044.012-.027-.027-.1-.064-.172l-.107-.21-.14.18c-.052.065-.122.152-.107.202.011.029.044.044.08.044l-.006.048h-.42l.006-.048c.11-.004.173-.071.298-.223l.244-.29-.232-.455c-.058-.117-.073-.167-.165-.17l.004-.045h.54z"/><path d="m22.394 20.742.436-.885h.358l-.005.046c-.014.002-.045.002-.065.017-.062.05-.063.112-.068.17l-.075.774c-.01.118-.004.17.104.177l-.005.05h-.492l.005-.05a.127.127 0 0 0 .081-.02c.057-.039.056-.098.061-.162l.073-.753-.488.99h-.088l-.251-.947-.083.675c-.017.141-.023.205.13.217l-.005.05h-.389l.005-.05c.041 0 .062-.01.082-.026.057-.04.061-.127.067-.167l.104-.762c.015-.11.028-.172-.094-.183l.004-.046h.356z"/><path d="m24.452 19.858.273.99c.037.135.06.173.14.189l-.005.052h-.5l.005-.05c.028 0 .074-.002.095-.036.022-.035.003-.103-.02-.193l-.033-.127h-.311c-.042.105-.12.272-.096.316.02.036.055.046.098.047l-.005.043H23.7l.004-.038c.1-.016.135-.064.207-.216l.465-.977zm-.062.739-.092-.391-.165.39zm-.366-.588a.446.446 0 0 1-.034.349c-.1.163-.293.17-.428.17h-.06l-.036.335c-.004.043-.014.122.034.158.019.016.042.019.073.02l-.005.048h-.495l.005-.047c.032-.002.056-.005.078-.021.056-.036.064-.113.068-.158l.085-.78c.005-.044.015-.121-.033-.16-.02-.014-.043-.017-.073-.02l.005-.046h.459c.105 0 .29-.008.357.152zm-.275.32c.04-.091.045-.246 0-.331s-.145-.074-.18-.064l-.057.512c.024.007.048.014.093.014.064 0 .115-.057.144-.13z"/><path d="m25.724 19.904.006-.046h.368l-.005.046c-.13.012-.147.068-.163.215l-.108.979h-.108l-.648-.96-.075.69c-.017.147-.011.202.114.214l-.006.048h-.367l.005-.048c.129-.012.146-.067.163-.214l.076-.701c.008-.07.02-.155-.046-.202-.018-.014-.056-.02-.081-.021l.006-.046h.35l.57.842.063-.581c.016-.147.01-.203-.114-.215"/><path d="M5.792 1.101a.126.126 0 0 1 .097-.08.143.143 0 0 1 .165.168.12.12 0 0 1-.083.1.133.133 0 0 1-.136-.026.143.143 0 0 1-.043-.162zm-.015-.72h-.066C5.703.243 5.681.14 5.543.078a.33.33 0 0 0-.338.053c-.166.134-.228.39-.229.544-.002.14.04.398.204.494.095.056.205.044.322-.036.11-.075.174-.16.238-.24l-.017.243c-.244.152-.577.21-.792.072-.19-.118-.243-.287-.238-.485a.764.764 0 0 1 .271-.582c.254-.205.65-.148.848-.07zm-1.35-.31.005-.046H4.8l-.005.046c-.129.011-.147.068-.163.215l-.108.98h-.108l-.648-.96-.075.69c-.016.146-.01.201.114.212l-.005.048h-.368l.005-.048c.129-.01.147-.066.163-.213l.077-.702c.007-.069.019-.154-.047-.202a.189.189 0 0 0-.08-.02l.005-.046h.352l.569.842.063-.58c.016-.148.01-.205-.114-.216zm-1.335.02C3.073.077 3.05.073 3.019.071l.005-.046h.495l-.005.046a.145.145 0 0 0-.077.02c-.057.038-.064.114-.069.16l-.085.78c-.005.044-.015.121.033.157.019.015.043.018.073.02l-.005.05H2.89l.005-.05c.03-.002.055-.004.077-.02.056-.036.064-.113.068-.157l.086-.78c.004-.046.015-.122-.034-.16zM2.32 1.467h-.178l.165-.44h.204zM2.26.355l-.072.008c0-.07-.016-.219-.111-.267-.044-.02-.147-.023-.199.018a.247.247 0 0 0-.09.18c-.002.097.075.137.159.186l.083.046c.159.092.244.152.234.346a.466.466 0 0 1-.197.356c-.149.101-.466.052-.603.007L1.498.92h.069c.006.117.024.226.146.28.057.025.148.033.214-.02a.255.255 0 0 0 .09-.186C2.02.87 1.909.815 1.833.774L1.75.725C1.634.664 1.545.61 1.538.45a.44.44 0 0 1 .116-.313c.164-.169.405-.143.546-.113 0 0 .081.016.094.02zm-1.755.853c.031-.002.055-.004.077-.02.057-.036.064-.113.069-.157l.085-.78C.741.205.751.128.702.09.684.076.66.073.63.071L.635.025h.807l-.007.28-.064.011C1.341.198 1.316.143 1.212.11A1.017 1.017 0 0 0 .997.096L.943.588c.087 0 .178.008.234-.084.019-.028.026-.055.035-.088h.068l-.047.425h-.067a.235.235 0 0 0-.017-.089C1.114.662 1.022.67.934.67L.902.957c-.005.046-.019.176.018.205.045.035.226.011.277-.01.113-.047.143-.144.175-.234l.062.013-.057.325H.5zM.202.091C.184.077.161.073.13.071L.135.025h.494L.625.071C.593.073.569.076.547.091.49.13.483.205.479.251l-.086.78c-.005.044-.015.121.034.157.019.015.042.018.073.02l-.006.05H0l.005-.05c.031-.002.055-.004.077-.02.057-.036.064-.113.069-.157l.085-.78C.241.204.251.128.202.09z" mask="url(#a)" transform="translate(25.943 19.833)"/></g></g></svg>