<svg width="36" height="36" fill="none" xmlns="http://www.w3.org/2000/svg"><path d="M18 0c2.837 0 5.52.656 7.907 1.825C31.884 4.753 36 10.895 36 18c0 9.942-8.058 18-18 18-9.94 0-18-8.057-18-18C0 8.06 8.06 0 18 0z" fill="#F2F4F7"/><path d="m23.122 10.89-7.25 10.376v-6.574h1.817l2.63-3.832H6.89v3.832h4.633v9.546h6.997l2.475-3.646 2.513 3.646h4.907l-4.58-7.664 4.031-5.722-4.743.037zM29.6 10l-4.685 6.67L30 25.188h-6.938l-2.038-2.965-2.016 2.965h-8.375v-9.576H6V10h16.01l-3.854 5.61h-1.394v2.855L22.655 10H29.6z" fill="#000"/></svg>