<svg width="36" height="36" fill="none" xmlns="http://www.w3.org/2000/svg"><path d="M18 0c2.837 0 5.52.656 7.907 1.825C31.884 4.753 36 10.895 36 18c0 9.942-8.058 18-18 18-9.94 0-18-8.057-18-18C0 8.06 8.06 0 18 0z" fill="#F2F4F7"/><path d="M13.19 16.794v1.819l.806-.952h.55l-.733.817.757 1.428h-.464l-.561-1.135-.342.39v.745h-.415v-3.112h.403zm2.04.916c.158-.074.304-.11.463-.11.305 0 .61.146.72.451.037.098.05.232.05.379v1.477h-.416v-.257c-.195.171-.427.293-.696.293a.609.609 0 0 1-.634-.635c0-.341.232-.598.537-.72.122-.049.39-.122.793-.22v-.073a.308.308 0 0 0-.317-.317c-.281 0-.513.207-.696.378l-.305-.268c.17-.159.305-.28.5-.379zm.83 1.025c-.245.06-.416.11-.501.146-.183.073-.39.195-.39.427 0 .16.11.244.268.244.22 0 .451-.146.622-.268v-.55zm1.28-1.087v1.453c0 .17.074.415.294.415.22 0 .451-.183.61-.317v-1.55h.415v2.258h-.415v-.269c-.183.146-.44.305-.683.305-.452 0-.635-.39-.635-.781v-1.514h.415zm2.308-.854v1.037c.17-.134.39-.22.61-.22.623 0 .903.635.903 1.172 0 .55-.268 1.172-.903 1.172-.232 0-.415-.097-.598-.232v.196h-.415v-3.125h.403zm.305 2.685a.715.715 0 0 0 .268.061c.403 0 .513-.451.513-.78 0-.343-.122-.758-.537-.758-.22 0-.415.122-.561.269v1c.134.11.232.172.317.208zm4.565-1.794a.804.804 0 0 1 .33-.073c.244 0 .402.122.5.342.244-.171.476-.342.781-.342.159 0 .28.049.39.146a.69.69 0 0 1 .196.513v1.648H26.3v-1.575c0-.134-.073-.33-.244-.33-.22 0-.488.208-.647.33v1.563h-.415v-1.563c0-.134-.061-.33-.22-.33-.232 0-.488.196-.671.33v1.563h-.415v-2.259h.415v.269c.183-.11.317-.195.415-.232zm5.322-.805v.427h-.415v-.428h.415zm0 .768v2.43c0 .329-.171.67-.538.67-.06 0-.11-.012-.17-.012v-.427c.036.012.085.012.146.012.049 0 .073-.024.098-.048a.31.31 0 0 0 .06-.196v-2.429h.404zm-7.922.062c.159-.074.305-.11.464-.11.305 0 .61.146.72.451.037.098.049.232.049.379v1.477h-.415v-.257c-.195.171-.427.293-.696.293a.609.609 0 0 1-.635-.635c0-.341.232-.598.537-.72.122-.049.391-.122.794-.22v-.073a.308.308 0 0 0-.317-.317c-.27 0-.513.207-.696.378l-.293-.268c.146-.159.28-.28.488-.379zm.83 1.025c-.244.06-.415.11-.5.146-.184.073-.391.195-.391.427 0 .16.11.244.268.244.22 0 .452-.146.623-.268v-.55zm4.87-1.025c.159-.074.305-.11.464-.11.305 0 .61.146.72.451.037.098.049.232.049.379v1.477h-.415v-.257c-.195.171-.427.293-.696.293a.609.609 0 0 1-.634-.635c0-.341.231-.598.536-.72.123-.049.391-.122.794-.22v-.073a.308.308 0 0 0-.317-.317c-.269 0-.513.207-.696.378l-.305-.268c.158-.159.305-.28.5-.379zm.83 1.025c-.244.06-.415.11-.5.146-.183.073-.39.195-.39.427 0 .16.109.244.268.244.22 0 .451-.146.622-.268v-.55zm2.319-1.025c.159-.074.305-.11.464-.11.305 0 .61.146.72.451.037.098.049.232.049.379v1.477h-.415v-.257c-.195.171-.44.293-.696.293a.609.609 0 0 1-.634-.635c0-.341.232-.598.537-.72.122-.049.39-.122.793-.22v-.073a.308.308 0 0 0-.317-.317c-.269 0-.513.207-.696.378l-.293-.268c.146-.147.28-.28.488-.379zm.83 1.025c-.244.06-.415.11-.5.146-.183.073-.39.195-.39.427 0 .16.109.244.268.244.22 0 .451-.146.622-.268v-.55zM7.49 15a3.49 3.49 0 1 1 .002 6.98A3.49 3.49 0 0 1 7.491 15zm-1.415 6.066v-5.163a2.93 2.93 0 0 0-1.526 2.588c0 1.11.61 2.075 1.526 2.575zm1.38-2.197-.83.842v1.587a2.95 2.95 0 0 0 2.734-.525L7.453 18.87zm2.282-2.27-1.892 1.892 1.892 1.892a2.954 2.954 0 0 0 .695-1.892c0-.72-.268-1.38-.695-1.892zm-3.113 2.343 2.734-2.734a2.96 2.96 0 0 0-1.867-.67c-.305 0-.586.048-.867.133v3.271z" fill="#000"/></svg>