<svg height="36" viewBox="0 0 36 36" width="36" xmlns="http://www.w3.org/2000/svg"><mask id="a" fill="#fff"><path d="M0 0h28v9.375H0z" fill-rule="evenodd"/></mask><g fill="none" fill-rule="evenodd"><path d="M18 0c2.837 0 5.52.656 7.907 1.825C31.884 4.753 36 10.895 36 18c0 9.942-8.058 18-18 18-9.94 0-18-8.057-18-18C0 8.06 8.06 0 18 0z" fill="#f2f4f7" fill-rule="nonzero"/><path d="M13.964 0C4.839 0 0 6.476 0 6.476l1.984 1.339s.239-.6.789-1.461c.003.216.032.367.032.367.35 2.719 2.993 2.654 2.993 2.654h16.387s2.679.073 3.029-2.645c0 0 .028-.14.03-.354.539.839.775 1.421.775 1.421l1.98-1.326S23.09 0 13.965 0" fill="#ed1c24" mask="url(#a)" transform="translate(4 13)"/><path d="M28.808 19.69s-.357 2.08-2.657 2.08H9.79c-2.3 0-2.623-2.1-2.623-2.1-.09-.556.019-.939.19-1.202 1.659-2.18 4.935-5.108 10.6-5.108 5.714 0 9.018 2.97 10.674 5.15.19.243.262.64.177 1.18" fill="#fff"/><path d="M26.696 19.76s-.177.083-.252.005c-.075-.08-.008-.226-.008-.226l.739-1.554h-.753l-.116.207c-.44-.387-1.27-.187-1.782.348-.296.31-.465.677-.487.995a2.166 2.166 0 0 1-.405.21s-.177.085-.253.005c-.076-.08-.008-.225-.008-.225l1.312-2.701h-.752l-.69 1.355c-.44-.387-1.268-.188-1.782.349-.1.104-.187.219-.264.342v-.002c-.003.01-.01.019-.014.03-.016.027-.032.054-.046.082-.41.71-.918.828-.918.828-1.077.32-1.2-.206-1.2-.206 1.206-.445 1.659-.975 1.618-1.378-.041-.405-.596-.426-.596-.426-.913-.055-1.702.583-1.894 1.207a1.19 1.19 0 0 0-.04.564c-.366.195-.576.226-.576.226-.304.096-.341-.05-.377-.136-.037-.09-.174-.866-.174-.866l1.28-.838h-.783l-.962.596c-.217.09-.133-.14-.133-.14l.786-1.59h-.755l-1.275 2.584c-.146.087-.44.258-.653.343 0 0-.177.083-.252.003-.078-.08-.01-.224-.01-.224l.74-1.556h-.753l-.116.209c-.44-.387-1.27-.188-1.782.349-.514.536-.644 1.244-.293 1.58.28.269.786.218 1.239-.086 0 0 .115-.1.177.016.064.12.324.39.922.155.193-.076.365-.162.512-.244l-.156.317h.753l.378-.765.328-.21s.1-.078.14.09c0 0 .164.644.227.727.064.085.189.273.719.122a9.27 9.27 0 0 0 .984-.347c.178.245.518.41 1.078.41a2.63 2.63 0 0 0 1.657-.6c.017.164.08.308.192.414.28.268.785.218 1.238-.087 0 0 .115-.1.178.017.064.12.323.39.923.155.274-.11.459-.212.579-.293.033.086.08.16.145.222.282.268.786.219 1.24-.088 0 0 .115-.098.178.018.063.12.323.39.92.153.6-.236.772-.45.772-.45l-.151-.265c-.02.01-.205.158-.493.27zm-13.084-.444c-.262.367-.63.552-.824.414-.195-.14-.143-.548.118-.914.26-.367.63-.552.825-.414.194.137.139.547-.12.914zm5.343-.267s.17-.57.718-.796c0 0 .156-.054.24.016 0 0 .116.112-.023.32-.125.188-.425.526-.751.639 0 0-.296.129-.184-.18zm3.806.267c-.262.367-.63.552-.825.414-.193-.14-.141-.548.12-.914.26-.367.63-.552.824-.414.194.137.142.547-.12.914zm3.063.013c-.26.368-.628.553-.823.414-.195-.138-.141-.547.119-.915.26-.366.63-.551.824-.414.195.14.14.548-.12.915zm-12.64-1.907.275-.585h-3.5l-.274.585h1.355l-1.403 2.855h.907l1.402-2.855z" fill="#ed1c24"/></g></svg>