<svg height="36" viewBox="0 0 36 36" width="36" xmlns="http://www.w3.org/2000/svg"><g fill="none"><path d="M18 0c2.837 0 5.52.656 7.907 1.825C31.884 4.753 36 10.895 36 18c0 9.942-8.058 18-18 18-9.94 0-18-8.057-18-18C0 8.06 8.06 0 18 0z" fill="#f2f4f7"/><path d="M11.902 19.996c0 .745-.015 1.816 0 2.873 0 .774.387 1.504 1.042 1.95.372.253.49.551.506.968.044 1.027.104 2.069.208 3.096.045.447-.045.625-.52.61-.894-.015-1.772 0-2.665.045-.64.03-.938-.223-1.028-.863a61.436 61.436 0 0 1-.55-8.753c.015-.76-.238-1.012-.938-1.027a8.915 8.915 0 0 1-1.25-.134c-.879-.134-1.087-.58-.61-1.325a34.463 34.463 0 0 1 3.795-4.897 35.692 35.692 0 0 1 6.669-5.582c1.042-.67 1.935-.7 2.902.06 1.653 1.28 2.65 2.098 2.918 1.904.045-.03.03-.074.074-.431.075-.655.105-.983.268-1.161.134-.15.328-.194 1.057-.15 1.22.075 1.772.09 2.055.358.282.268.357.819.506 1.935.06.491.119 1.057.268 2.516.03.402.119.804.268 1.176.133.327.327.625.55.893a28.721 28.721 0 0 1 2.456 3.334c.507.79.298 1.25-.61 1.385a9.83 9.83 0 0 1-1.325.134c-.625.015-.818.282-.818.908a63.003 63.003 0 0 1-.387 7.502c-.298 2.5-.15 2.278-2.501 2.173-.983-.044-.968-.03-.878-1.012.387-4.213.61-8.425.297-12.668-.015-.238-.06-.49-.074-.744-.03-.357-.075-.7-.506-.804-.402-.104-.655.12-.879.402-1.25 1.578-2.01 3.38-2.5 5.3-.358 1.384-.432 2.798-.417 4.242.015.73.312 1.101 1.042 1.116.223 0 .446.06.655.075.402.015.565.193.52.61a60.579 60.579 0 0 0-.237 2.873c-.03.461-.239.58-.655.566-1.474-.03-2.948-.15-4.436-.015-.298.03-.462-.104-.477-.417a256.203 256.203 0 0 0-.238-3.602c-.015-.283.12-.447.328-.61a2.293 2.293 0 0 0 .997-1.966c.015-2.381 0-4.763.194-7.145.03-.312-.045-.58-.387-.595-.313-.015-.373.268-.373.536a469.114 469.114 0 0 0-.208 4.57c-.015.476 0 1.012-.67.997-.67-.03-.64-.58-.625-1.042.045-1.355.12-2.694.164-4.049 0-.149.015-.298.03-.446.014-.268-.06-.536-.358-.551-.297-.03-.387.223-.402.506-.06 1.28-.134 2.545-.208 3.826-.015.372 0 .744-.015 1.101-.015.387-.193.67-.625.67-.476 0-.67-.298-.67-.715.03-1.295.09-2.605.134-3.9.015-.297.03-.595.06-.893.03-.297-.045-.595-.388-.595-.312-.015-.357.268-.387.536-.104 1.34-.06 2.694-.148 4.346z" fill="#f7931e"/></g></svg>