<svg width="36" height="36" fill="none" xmlns="http://www.w3.org/2000/svg"><path d="M18 0c2.837 0 5.52.656 7.907 1.825C31.884 4.753 36 10.895 36 18c0 9.942-8.058 18-18 18-9.94 0-18-8.057-18-18C0 8.06 8.06 0 18 0z" fill="#F2F4F7"/><path d="M27.469 17.819c-.17 0-.34.031-.498.094.214.67.636 1.253 1.203 1.663.118.084.242.157.372.22.152-.208.233-.46.233-.718 0-.695-.587-1.26-1.31-1.26" fill="#E71618"/><path d="M30.474 18.507c.48-.371 1.694-1.175 1.506-1.5-.152-.264-.815.054-1.565.465-.589.324-.462-.067-.087-.638.33-.503.826-1.181.549-1.365-.322-.213-1.308.97-1.539 1.203-.23.233-.44.359-.325-.292.155-.863.185-1.315-.007-1.37-.27-.076-.438.263-.841 1.213-.29.68-.542.802-.573.19-.04-1.098-.317-.846-.423-.677-.292.464-.391 1.026-.326 1.59.238-.091.49-.137.744-.137 1.124 0 2.035.886 2.035 1.978 0 .317-.078.63-.227.909.641.118 1.317.061 1.827-.194.085-.043.29-.17.163-.346-.257-.352-.718-.167-1.212-.312-.433-.127-.047-.449.3-.717" fill="#E71618"/><path d="M28.546 19.81a1.333 1.333 0 0 1-1.077.542c-.724 0-1.31-.565-1.31-1.261a1.268 1.268 0 0 1 .812-1.166 3.12 3.12 0 0 1-.128-.589c-.757.289-1.293 1.004-1.293 1.842 0 1.093.912 1.979 2.037 1.979a2.03 2.03 0 0 0 1.05-.284c.318-.189.58-.46.758-.787a3.316 3.316 0 0 1-.85-.277z" fill="#5A5C5E"/><path d="M5.62 18.203a.145.145 0 0 0-.044-.1.142.142 0 0 0-.1-.039H4.168a.143.143 0 0 0-.144.139.142.142 0 0 0 .144.137h.502v1.494c0 .04.017.078.046.106a.152.152 0 0 0 .258-.106V18.34h.502a.142.142 0 0 0 .144-.137m.437.304a.712.712 0 0 0-.664.46.727.727 0 0 0-.049.282v.005a.732.732 0 0 0 .455.69c.09.037.187.054.284.052a.762.762 0 0 0 .556-.215.128.128 0 0 0 .046-.096.134.134 0 0 0-.042-.093.132.132 0 0 0-.094-.036.136.136 0 0 0-.088.033.528.528 0 0 1-.372.146.424.424 0 0 1-.439-.368h.955a.14.14 0 0 0 .142-.137c0-.36-.237-.723-.69-.723zm-.006.255c.247 0 .363.184.393.37H5.65c.042-.22.201-.37.401-.37zm1.031-.788a.142.142 0 0 0-.103.041.146.146 0 0 0-.044.103v1.72a.148.148 0 0 0 .093.136c.018.006.038.01.057.01a.14.14 0 0 0 .104-.042.143.143 0 0 0 .043-.104v-1.72a.149.149 0 0 0-.045-.103.146.146 0 0 0-.105-.04zm1.179 1.203.426-.404a.143.143 0 0 0 .054-.11.138.138 0 0 0-.086-.127.149.149 0 0 0-.167.043l-.676.664v-1.125a.148.148 0 0 0-.297 0v1.72a.148.148 0 0 0 .094.135c.019.007.038.01.057.01a.14.14 0 0 0 .136-.089.144.144 0 0 0 .01-.056v-.24l.24-.228.45.55a.147.147 0 0 0 .125.063.136.136 0 0 0 .13-.08.139.139 0 0 0-.023-.152l-.473-.575zm1.286-.67c-.433 0-.77.327-.77.744v.006c0 .414.335.738.765.738.434 0 .774-.326.774-.744v-.005c0-.415-.338-.74-.768-.74zm-.47.74a.467.467 0 0 1 .284-.443.468.468 0 0 1 .619.263.48.48 0 0 1 .034.184v.006a.466.466 0 0 1-.286.439.454.454 0 0 1-.18.034.462.462 0 0 1-.437-.296.475.475 0 0 1-.033-.183v-.005zm3.046-.74a.585.585 0 0 0-.485.23.52.52 0 0 0-.451-.23.526.526 0 0 0-.404.17v-.01a.149.149 0 0 0-.298 0v1.167a.15.15 0 0 0 .045.104.147.147 0 0 0 .105.04.142.142 0 0 0 .136-.088.145.145 0 0 0 .012-.056v-.678c0-.22.143-.38.341-.38.2 0 .314.13.314.356v.702a.145.145 0 0 0 .147.145.145.145 0 0 0 .15-.145v-.686c0-.222.135-.373.337-.373.204 0 .316.129.316.363v.696a.15.15 0 0 0 .148.144.148.148 0 0 0 .149-.144v-.744c0-.36-.215-.583-.562-.583m1.371-.422a.137.137 0 0 0-.137.136v1.65a.14.14 0 0 0 .139.135c.036 0 .07-.014.096-.04a.14.14 0 0 0 .043-.095v-1.65a.14.14 0 0 0-.14-.136zm1.21.46a.561.561 0 0 0-.45.2v-.051a.138.138 0 0 0-.136-.133.138.138 0 0 0-.136.133v1.177a.137.137 0 0 0 .041.095.135.135 0 0 0 .097.037.131.131 0 0 0 .135-.132v-.687a.381.381 0 0 1 .238-.37.37.37 0 0 1 .152-.024c.228 0 .358.137.358.378v.703a.137.137 0 0 0 .041.095.132.132 0 0 0 .097.037.129.129 0 0 0 .095-.038.133.133 0 0 0 .04-.094v-.752c0-.349-.225-.574-.571-.574m2.103-.538a.132.132 0 0 0-.095.037.13.13 0 0 0-.04.095v.64a.655.655 0 0 0-.507-.23.697.697 0 0 0-.658.456.712.712 0 0 0-.045.28v.005a.711.711 0 0 0 .428.678.696.696 0 0 0 .556-.006.638.638 0 0 0 .226-.18v.093a.135.135 0 0 0 .138.132.128.128 0 0 0 .095-.037.13.13 0 0 0 .04-.095v-1.736a.134.134 0 0 0-.138-.132zm-.127 1.276v.005a.491.491 0 0 1-.137.346.464.464 0 0 1-.775-.16.477.477 0 0 1-.03-.186v-.005c0-.29.192-.492.465-.492a.473.473 0 0 1 .444.305.48.48 0 0 1 .034.187m1.234-.738c-.43 0-.767.324-.767.738v.005c0 .41.334.733.761.733.43 0 .769-.324.769-.738v-.005c0-.411-.336-.733-.763-.733zm-.49.733a.483.483 0 0 1 .297-.458.47.47 0 0 1 .187-.036.483.483 0 0 1 .456.308.503.503 0 0 1 .035.192v.004a.48.48 0 0 1-.674.455.484.484 0 0 1-.3-.46v-.005zm2.175-.733a.565.565 0 0 0-.45.2v-.051a.137.137 0 0 0-.136-.133.136.136 0 0 0-.136.133v1.177a.139.139 0 0 0 .041.095.133.133 0 0 0 .097.037.128.128 0 0 0 .125-.08.131.131 0 0 0 .01-.052v-.687a.38.38 0 0 1 .238-.37.371.371 0 0 1 .152-.024c.227 0 .358.137.358.378v.703a.132.132 0 0 0 .085.123.12.12 0 0 0 .052.009.131.131 0 0 0 .135-.132v-.752c0-.349-.224-.574-.57-.574m1.458 0a.707.707 0 0 0-.657.456.721.721 0 0 0-.048.28v.005a.726.726 0 0 0 .45.684c.09.036.186.054.283.051a.757.757 0 0 0 .552-.213.116.116 0 0 0 .043-.087.121.121 0 0 0-.125-.117.126.126 0 0 0-.08.03.552.552 0 0 1-.385.15.448.448 0 0 1-.46-.397h.983a.129.129 0 0 0 .13-.125c-.001-.356-.236-.717-.685-.717zm-.427.632c.038-.238.207-.4.422-.4.265 0 .386.2.414.4h-.836zm1.861-.02-.005-.002c-.172-.05-.334-.098-.334-.203v-.005c0-.098.097-.166.24-.166a.746.746 0 0 1 .352.101c.02.01.04.014.062.014a.12.12 0 0 0 .124-.116.128.128 0 0 0-.067-.11 1.039 1.039 0 0 0-.465-.119c-.3 0-.511.172-.511.418v.005c0 .278.282.355.488.412.187.05.328.097.328.209v.005c0 .111-.103.185-.26.185a.778.778 0 0 1-.428-.139.115.115 0 0 0-.07-.021.116.116 0 0 0-.117.08.12.12 0 0 0 .046.135c.166.112.36.173.559.176.318 0 .532-.175.532-.437v-.005c0-.28-.285-.362-.473-.417m.842-.595a.133.133 0 0 0-.135.132v1.177a.135.135 0 0 0 .085.123c.017.006.035.01.052.009a.13.13 0 0 0 .126-.08.137.137 0 0 0 .01-.052v-1.177a.138.138 0 0 0-.042-.095.133.133 0 0 0-.096-.037m1.487.152c-.11-.105-.27-.159-.477-.159a1.168 1.168 0 0 0-.472.095.119.119 0 0 0-.03.204c.022.017.05.026.078.024a.15.15 0 0 0 .05-.01.87.87 0 0 1 .353-.074c.176 0 .386.06.386.34v.007a1.551 1.551 0 0 0-.4-.048c-.39 0-.633.179-.633.467v.006c0 .297.28.452.557.452a.654.654 0 0 0 .476-.183v.042a.126.126 0 0 0 .133.125.126.126 0 0 0 .122-.079.13.13 0 0 0 .01-.05v-.742a.556.556 0 0 0-.153-.417zm-.108.64v.107c0 .192-.19.337-.44.337-.154 0-.322-.076-.322-.24v-.005c0-.157.142-.25.38-.25.129 0 .257.017.382.05" fill="#1A1818"/></svg>