<svg height="36" viewBox="0 0 36 36" width="36" xmlns="http://www.w3.org/2000/svg"><mask id="a" fill="#fff"><path d="M2.344 0C.71.076-.155 1.126.023 1.567l1.105 1.819c.564.928 1.452.949 1.745.949h3.062L2.364 0z" fill-rule="evenodd"/></mask><mask id="b" fill="#fff"><path d="M0 0h4.21v3.332H0z" fill-rule="evenodd"/></mask><mask id="c" fill="#fff"><path d="M0 0h8.864v4.827H0z" fill-rule="evenodd"/></mask><g fill="none" fill-rule="evenodd"><path d="M18 0c2.837 0 5.52.656 7.907 1.825C31.884 4.753 36 10.895 36 18c0 9.942-8.058 18-18 18-9.94 0-18-8.057-18-18C0 8.06 8.06 0 18 0z" fill="#f2f4f7" fill-rule="nonzero"/><path d="M2.344 0C.71.076-.155 1.126.023 1.567l1.105 1.819c.564.928 1.452.949 1.745.949h3.062L2.364 0z" mask="url(#a)" transform="translate(15 16)"/><g fill="#5c5e65"><path d="M12.532 17.097v.587h1.38v2.745h.975v-2.745h1.416v-.587zm3.984 3.332h.976v-3.332h-.976zm1.581-3.332h.976v2.508c0 .242.23.237.432.237h1.272v.587h-1.62c-.55 0-1.06-.137-1.06-.647zm9.128 0h-1.108l-1.563 3.024-.742-1.003c.287-.059.816-.159.816-.983 0-.796-.592-1.038-1.394-1.038h-2.231v3.332h.976v-1.26h.858l.843 1.26h1.76l.37-.738h1.673l.363.738h1.038zm-4.082 1.507h-1.157v-.943h1.157c.307 0 .502.096.502.474 0 .405-.167.47-.502.47zm2.925.523.614-1.192.57 1.192z"/><path d="m1.06 0 .997 1.598L3.151 0h1.06l-1.68 2.299v1.033h-.976V2.299L0 0z" mask="url(#b)" transform="translate(27.79 17.097)"/></g><path d="M8.328 18.484 10.22 17.3l-.827-1.096-1.19 2.194a.967.967 0 0 1 .126.086m.314.449 2.567-.317-.822-1.092-1.809 1.262a.961.961 0 0 1 .064.147m.022.541 3.774.772-1.04-1.38-2.709.445a.971.971 0 0 1-.025.163" fill="#eb9c47"/><path d="M8.62 4.505c-1.162-.167-3.688-.533-4.261-.639-.582-.106-.915-.356-.915-.861 0-.267.139-.426.297-.675C4.27 1.496 5.24 0 5.24 0H4.189l-4.19 4.827h8.865z" fill="#1f4576" mask="url(#c)" transform="translate(4 16)"/><path d="M30.492 20.043h.305v.058h-.12v.319h-.066v-.319h-.119zm.348 0h.093l.104.295.102-.295h.092v.377h-.063v-.29h-.001l-.104.29h-.055l-.104-.29h-.001v.29h-.063z" fill="#5c5e65"/></g></svg>