<svg height="36" viewBox="0 0 36 36" width="36" xmlns="http://www.w3.org/2000/svg"><mask id="a" fill="#fff"><path d="M0 0h15.285v15.83H0z" fill-rule="evenodd"/></mask><mask id="b" fill="#fff"><path d="M0 0h18.224v16.582H0z" fill-rule="evenodd"/></mask><g fill="none" fill-rule="evenodd"><path d="M18 0c2.837 0 5.52.656 7.907 1.825C31.884 4.753 36 10.895 36 18c0 9.942-8.058 18-18 18-9.94 0-18-8.057-18-18C0 8.06 8.06 0 18 0z" fill="#f2f4f7" fill-rule="nonzero"/><path d="M11.729.02c.539-.032 1.077-.016 1.616-.016h1.94L14.73 3.02c-.077.37-.307.74-.646.924-.246.139-.554.17-.831.154H9.898c-.324 1.847-.632 3.71-.955 5.557-.261 1.523-.523 3.032-.77 4.556-.061.293-.076.6-.2.877-.122.262-.323.507-.585.616a1.716 1.716 0 0 1-.785.122H2.586c.616-3.062 1.247-6.141 1.863-9.204.169-.846.338-1.677.507-2.524H0c.2-1 .385-2 .585-3.001C.662.774.831.48 1.093.28A1.37 1.37 0 0 1 1.94.034h6.896C9.805.02 10.76.02 11.73.02" fill="#0058a9" mask="url(#a)" transform="translate(11.918 7)"/><path d="M3.072.035c.277-.016.54-.046.816-.03 1.554.06 3.078.538 4.464 1.215-.631 3.062-1.247 6.142-1.863 9.204h4.017c.262.016.539-.015.786-.123a1.2 1.2 0 0 0 .584-.616c.123-.277.154-.584.2-.877.262-1.524.524-3.032.77-4.556 1.74 1.554 3.31 3.34 4.371 5.433a9.97 9.97 0 0 1 .831 2.17c.139.586.216 1.201.155 1.801a3.516 3.516 0 0 1-.57 1.6c-.154.263-.416.448-.646.617-.832.585-1.878.77-2.864.692-1.031-.076-2.031-.384-3-.738-2.31-.862-4.434-2.233-6.235-3.91-1.6-1.462-3.016-3.17-3.97-5.125-.432-.924-.801-1.894-.894-2.91a4.377 4.377 0 0 1 .077-1.416c.14-.554.4-1.092.816-1.477.57-.569 1.37-.878 2.155-.954" fill="#00baf2" mask="url(#b)" transform="translate(8 12.418)"/></g></svg>