<svg height="36" viewBox="0 0 36 36" width="36" xmlns="http://www.w3.org/2000/svg"><mask id="a" fill="#fff"><path d="M0 0h28v4.606H0z" fill-rule="evenodd"/></mask><g fill="none" fill-rule="evenodd"><path d="M18 0c2.837 0 5.52.656 7.907 1.825C31.884 4.753 36 10.895 36 18c0 9.942-8.058 18-18 18-9.94 0-18-8.057-18-18C0 8.06 8.06 0 18 0z" fill="#f2f4f7" fill-rule="nonzero"/><path d="M16.335 3.983h.376v-1.26L18.005.664h-.866l-.804 1.395-.804-1.395h-.866l1.294 2.059v1.26zm-3.464-.565c.542 0 .983-.499.983-1.116 0-.615-.441-1.114-.983-1.114-.543 0-.983.499-.983 1.114 0 .617.44 1.116.983 1.116zM11.11 2.303a1.76 1.76 0 1 1 3.52 0 1.76 1.76 0 0 1-3.52 0zM9.886 1.276v2.707h-.742V1.276h.003-1.038V.664h2.811v.612zm16.282 1.4h.467l-.463-1.214h-.006l-.464 1.214zm-.679.56-.001.001-.284.746h-.867l1.37-3.319h.923L28 3.983h-.867l-.284-.746-.001-.001zm-1.932-1.96v2.707h-.742V1.276h.003-1.037V.664h2.811v.612zm-3.758 2.142c.543 0 .984-.499.984-1.116 0-.615-.441-1.114-.984-1.114-.542 0-.982.499-.982 1.114 0 .617.44 1.116.982 1.116zm-1.76-1.115a1.76 1.76 0 1 1 3.521.001 1.76 1.76 0 0 1-3.521-.001zM3.535 3.655c.283 0 .515-.591.528-1.331h.001a5.666 5.666 0 0 1-1.058 0h.001c.013.74.244 1.331.528 1.331zm0-1.894c.163 0 .327-.007.49-.021-.078-.511-.268-.872-.49-.872s-.411.361-.49.872c.163.014.326.021.49.021zm.228 2.61c1.583-.083 2.831-1.015 2.831-2.151 0-.386-.145-.749-.397-1.063l-.003-.006c-.019.525-.764.969-1.795 1.131l.001.103c0 .952-.273 1.754-.644 1.987zM3.535.332c.377 0 .697.572.816 1.37l.001-.001c.733-.114 1.246-.378 1.246-.684 0-.411-.924-.744-2.063-.744s-2.064.333-2.064.744c0 .306.514.57 1.247.684v.001c.119-.798.44-1.37.817-1.37zM0 2.303C0 1.031 1.582 0 3.535 0 5.487 0 7.07 1.031 7.07 2.303S5.487 4.606 3.535 4.606C1.582 4.606 0 3.575 0 2.303zm3.313 2.069c-.371-.233-.644-1.034-.644-1.986l.001-.104h.001C1.64 2.121.895 1.676.876 1.151l-.003.007A1.681 1.681 0 0 0 .476 2.22c0 1.137 1.248 2.068 2.831 2.151z" fill="#cc2229" mask="url(#a)" transform="translate(4 16)"/></g></svg>