<svg height="36" viewBox="0 0 36 36" width="36" xmlns="http://www.w3.org/2000/svg"><mask id="a" fill="#fff"><path d="M0 .047h2.28v.906H0z" fill-rule="evenodd"/></mask><mask id="b" fill="#fff"><path d="M0 .183h1.378v.634H0z" fill-rule="evenodd"/></mask><mask id="c" fill="#fff"><path d="M0 .172h1v.656H0z" fill-rule="evenodd"/></mask><mask id="d" fill="#fff"><path d="M0 .172h1v.656H0z" fill-rule="evenodd"/></mask><mask id="e" fill="#fff"><path d="M0 .172h1v.656H0z" fill-rule="evenodd"/></mask><mask id="f" fill="#fff"><path d="M.245 0h.51v1h-.51z" fill-rule="evenodd"/></mask><mask id="g" fill="#fff"><path d="M0 .248h1v.504H0z" fill-rule="evenodd"/></mask><mask id="h" fill="#fff"><path d="M0 .248h1v.504H0z" fill-rule="evenodd"/></mask><mask id="i" fill="#fff"><path d="M0 .154h1.694v.692H0z" fill-rule="evenodd"/></mask><mask id="j" fill="#fff"><path d="M0 .002h2.271v.996H0z" fill-rule="evenodd"/></mask><mask id="k" fill="#fff"><path d="M0 .036h1.733v.928H0z" fill-rule="evenodd"/></mask><mask id="l" fill="#fff"><path d="M.003 0h.994v1.953H.003z" fill-rule="evenodd"/></mask><mask id="m" fill="#fff"><path d="M0 .18h1.22v.64H0z" fill-rule="evenodd"/></mask><mask id="n" fill="#fff"><path d="M0 .181h1.199V.82H0z" fill-rule="evenodd"/></mask><mask id="o" fill="#fff"><path d="M0 .029h1V.97H0z" fill-rule="evenodd"/></mask><mask id="p" fill="#fff"><path d="M0 .131h1V.87H0z" fill-rule="evenodd"/></mask><mask id="q" fill="#fff"><path d="M0 .064h1.488v.872H0z" fill-rule="evenodd"/></mask><mask id="r" fill="#fff"><path d="M0 .138h1v.724H0z" fill-rule="evenodd"/></mask><mask id="s" fill="#fff"><path d="M0 .061h1.503V.94H0z" fill-rule="evenodd"/></mask><mask id="t" fill="#fff"><path d="M0 3.172h28v-3H0z" fill-rule="evenodd"/></mask><g fill="none" fill-rule="evenodd"><path d="M18 0c2.837 0 5.52.656 7.907 1.825C31.884 4.753 36 10.895 36 18c0 9.942-8.058 18-18 18-9.94 0-18-8.057-18-18C0 8.06 8.06 0 18 0z" fill="#f2f4f7" fill-rule="nonzero"/><path d="M.008.714C-.001.701.004.688.004.674L.003.233C.003.219.001.206 0 .193h2.28l-.001.29c-.021.019-.045.013-.068.013H.089C.02.496.02.496.02.563L.019.6C.015.638.029.678.008.714" fill="#0e8be7" mask="url(#a)" transform="translate(11.108 16.126)"/><path d="M4 17.715a.294.294 0 0 1 .028-.008.247.247 0 0 1 .085-.013l3.914.001h.877c.031 0 .06.001.088.012.005.015.005.016-.009.024-.046.026-.097.046-.147.067-.038.004-.077.004-.115.004H4.235c-.016 0-.032-.004-.048.001-.064-.023-.122-.06-.187-.08z" fill="#0c7edd"/><path d="M.577.81A.97.97 0 0 1 .095.653.413.413 0 0 1 0 .571c.01-.02.028-.02.045-.02.141.002.282-.008.422.006a.902.902 0 0 0 .052.001h.792c.023 0 .051-.007.067.02a.641.641 0 0 1-.338.193 1.044 1.044 0 0 1-.23.04C.788.817.764.805.742.816h-.09C.628.807.601.818.577.81" fill="#0971d3" mask="url(#b)" transform="translate(13.259 18.355)"/><path d="M.675.318v.008a.033.033 0 0 1-.024.01C.544.337.438.341.33.334A.098.098 0 0 0 .324.318z" fill="#86c6f3" mask="url(#c)" transform="translate(20.202 16)"/><path d="M.335.325V.318h.33L.659.334C.56.34.461.337.362.336A.035.035 0 0 1 .335.325" fill="#86c6f3" mask="url(#d)" transform="translate(22.216 16)"/><path d="M.668.318v.007C.658.337.644.337.63.337H.367c-.012 0-.025 0-.034-.01L.332.317z" fill="#85c5f3" mask="url(#e)" transform="translate(22.76 16)"/><path d="M.755.646A.077.077 0 0 0 .74.639C.734.61.737.581.736.551a2.705 2.705 0 0 1 0-.156c0-.015 0-.03.012-.041h.007z" fill="#86c5f2" mask="url(#f)" transform="translate(31.245 16.748)"/><path d="M.463.746c.025.002.05-.01.074.007H.462V.746" fill="#7eb3e6" mask="url(#g)" transform="translate(13.373 18.42)"/><path d="M.466.752C.487.737.511.746.534.745L.533.752z" fill="#7db3e6" mask="url(#h)" transform="translate(13.535 18.42)"/><path d="M17.276 17.499v-.061c-.01-.03 0-.06-.007-.088v-.023c.02-.017.044-.012.067-.012l1.555-.001c.028 0 .055-.002.082.004.017.017.03.037.042.057.005.008.007.022.023.019.014-.012.032-.012.05-.012h.802c.093.002.186 0 .28 0 .02 0 .04-.002.057.013a.31.31 0 0 1 .057.104c-.018.016-.04.012-.06.012h-2.877c-.024 0-.05.006-.07-.012" fill="#0d88e4"/><path d="M15.263 17.438a.563.563 0 0 1 .34-.29 1.24 1.24 0 0 1 .892.016.517.517 0 0 1 .307.282c-.017.013-.038.012-.057.012H15.32c-.02 0-.044.003-.057-.02" fill="#0d8ae5"/><path d="M13.014 18.358c-.013-.079-.017-.159-.013-.24 0-.022.012-.03.032-.032h.011c.228-.002.456-.007.683.001.116.003.232.003.348.004h.765c.03 0 .042.012.04.044-.005.05.003.1-.005.15-.007.02-.025.01-.038.01h-1.183c-.033 0-.049.005-.043.041-.014.013-.033.011-.05.01-.146-.002-.293.007-.44-.006-.036-.003-.075-.009-.107.018" fill="#0b7ddc"/><path d="M28.847 18.126a.995.995 0 0 1 .022-.261c.007-.006.014-.006.02-.006.084.003.167 0 .25.002.02 0 .043-.002.052.025.003.03.025.035.05.034h.988c.032 0 .05-.007.05-.042.003-.02.014-.03.032-.03.086-.004.172-.004.258 0 .008 0 .014.005.02.009.02.089.027.179.028.269-.014.015-.032.013-.05.013h-1.67c-.017 0-.035.002-.05-.013" fill="#0c7fde"/><path d="M7.287 18.044c0-.002 0-.005.002-.007-.008-.007-.02-.004-.028-.004H5.755c-.008 0-.015-.002-.022.003l.007.03c-.018.017-.04.012-.06.012H4.8a.059.059 0 0 0-.014.002 3.88 3.88 0 0 1-.262-.12c0-.02.017-.021.032-.023.015-.003.029-.002.044-.002h3.815c.015 0 .03-.001.045.002.015.002.03.003.032.024-.072.032-.144.064-.216.098-.045.006-.09.005-.134.005h-.783c-.025 0-.053.004-.072-.02" fill="#0b79d9"/><path d="M17.276 17.499h3.008a.26.26 0 0 1 .025.082c-.012.019-.032.019-.05.019h-.634c-.016 0-.032-.006-.048-.005a.43.43 0 0 0-.098-.031c-.032-.003-.064-.002-.096-.002a.305.305 0 0 0-.164.072c-.014.01-.03.01-.046.01h-.716a.184.184 0 0 1-.033-.002c-.04-.05-.097-.066-.156-.078a.59.59 0 0 0-.103 0 .263.263 0 0 0-.218.143c-.204-.005-.407 0-.61-.002-.02 0-.043.004-.06-.012z" fill="#0d86e3"/><path d="M4.187 17.803c.001-.009.006-.014.015-.014h.034l4.551.001c.016 0 .035-.008.05.008-.059.028-.118.06-.18.081a.453.453 0 0 1-.074.005H4.415c-.019 0-.038-.004-.056.001-.057-.028-.117-.05-.172-.082" fill="#0b7bdb"/><path d="m11.116 16.84.001-.11c.02-.019.045-.014.068-.014h2.138c.021 0 .044-.004.064.013 0 .037.013.084-.005.108-.017.024-.068.007-.103.007l-.654.001c-.048 0-.048 0-.048.05v2.157c0 .015.005.03-.004.044-.012-.012-.012-.028-.012-.042l.001-.248a8.526 8.526 0 0 1 0-.277 12.034 12.034 0 0 1 0-.38 15.124 15.124 0 0 1 0-.426 11.657 11.657 0 0 1 0-.374c-.002-.094 0-.189 0-.282 0-.073 0-.073-.07-.073h-.515c-.02 0-.043.004-.06-.01 0-.046 0-.092-.002-.137-.013-.006-.027-.003-.04-.003h-.718c-.014 0-.027.004-.04-.004z" fill="#0d88e4"/><path d="M8.538 17.498c.065.029.131.056.194.09-.002.019-.019.017-.03.018-.019.003-.039.002-.057.002H6.016l-1.666-.001c-.023 0-.05.012-.066-.018.064-.032.127-.067.195-.09 1.324.006 2.65 0 3.974.003.028 0 .057-.004.085-.004" fill="#0c81df"/><path d="M8.538 17.498c-.015.013-.032.016-.052.016H4.527a.069.069 0 0 1-.048-.015c.06-.034.123-.061.186-.09.026.005.053.003.08.003.642-.001 1.286.002 1.93.002.2-.001.398.002.597 0 .342-.004.683 0 1.024-.002.021 0 .042-.001.063.004.06.026.122.05.18.082" fill="#0c82e0"/><path d="M13.12 17.573a.783.783 0 0 1 .21-.275.295.295 0 0 1 .066-.006c.383 0 .766.013 1.148.008l.04.002c.07.062.124.136.164.219-.017.016-.04.01-.06.012-.215.006-.431-.01-.646-.008a.106.106 0 0 0-.047.008.074.074 0 0 1-.025.005.312.312 0 0 0-.201.055c-.008.004-.018.007-.028.003-.013-.003-.027-.003-.041-.003-.173.004-.346-.011-.518-.008-.021 0-.043.005-.061-.012" fill="#0d88e4"/><path d="m1.682.502.012.096c-.012.007-.024.006-.036.006h-.495c-.011 0-.022.001-.032-.005C1.128.594 1.126.591 1.12.597A.652.652 0 0 1 .631.82.78.78 0 0 1 .23.743.498.498 0 0 1 0 .511C0 .493.015.493.026.491.041.488.056.49.071.49h1.543c.023 0 .048-.005.068.013" fill="#0a72d4" mask="url(#i)" transform="translate(15.204 18.326)"/><path d="M23.808 17.976c0-.013.002-.024.003-.037.007-.006.016-.005.025-.005.309 0 .619-.009.929-.006l.376.001c.13.001.262.01.392.005a.03.03 0 0 1 .022.005c.01.064.013.13.015.194-.012.007-.027.005-.04.005h-1.665c-.021 0-.042.003-.062-.009-.011-.015-.007-.032-.002-.049 0-.022 0-.044.002-.067.005-.012-.002-.025.005-.037" fill="#0c7fde"/><path d="M4.359 17.885a.027.027 0 0 1 .025-.014h4.219c.018 0 .038-.003.054.008-.052.032-.11.055-.165.081-.006-.01-.014-.013-.025-.013H4.574c-.017 0-.038-.008-.05.013l-.165-.075" fill="#0b7bdb"/><path d="M8.992 17.708H4.028a.989.989 0 0 1 .144-.067.46.46 0 0 1 .074-.005h4.535c.022 0 .043.003.064.005.051.018.1.042.147.067" fill="#0c7fdd"/><path d="M12.572 17.722v.427c-.014.013-.032.011-.05.011h-.555c-.018 0-.036.001-.05-.012v-.426c.014-.014.032-.012.05-.012h.556c.017 0 .035-.002.049.012" fill="#0b7bdb"/><path d="M15.248 18.163a.623.623 0 0 1 .202-.187c.013-.005.027-.004.04-.004h1.308c.077 0 .078 0 .077.078 0 .038.003.076-.002.115-.015.013-.033.01-.05.01H15.3c-.018 0-.037.004-.052-.012" fill="#0c7fdd"/><path d="M15.263 17.438c.015.01.031.008.047.008l1.441.001c.017 0 .034-.008.051 0 .042.081.06.17.066.262-.013.023-.036.017-.056.017-.152.001-.303.002-.455 0-.04 0-.073.003-.084.05-.003-.032-.005-.065-.009-.096-.014-.115-.08-.179-.193-.199a.243.243 0 0 0-.066 0 .208.208 0 0 0-.159.106c-.014.014-.03.013-.049.013h-.516c-.022 0-.046.002-.06-.019a.401.401 0 0 1 .042-.143" fill="#0d86e3"/><path d="M16.273 17.775c.002-.067-.011-.06.063-.06h.489c.015 0 .031.002.044-.006.006.062.007.126.007.19l-.001.562c-.017-.008-.014-.025-.015-.039a1.536 1.536 0 0 1 0-.096c-.002-.04 0-.08 0-.12 0-.015 0-.03.01-.042 0-.05 0-.103.002-.154 0-.018-.007-.028-.026-.026h-1.334a.215.215 0 0 1-.062-.008.821.821 0 0 1 .299-.116c.132-.032.269-.037.405-.044.028-.002.057-.006.085-.003.032.003.038-.01.034-.038" fill="#0c82df"/><path d="M2.271.559H.001V.466C-.002.446.005.436.025.439h2.246z" fill="#0d8ae5" mask="url(#j)" transform="translate(11.116 16.17)"/><path d="M1.733.62H.089C.076.62.061.617.051.63A.309.309 0 0 1 0 .493C.009.468.032.475.05.475h.351C.501.474.6.475.699.473.733.47.764.489.797.492A.24.24 0 0 0 .95.46C.966.45.982.439 1.002.444c.223.003.446 0 .67 0 .018 0 .038-.003.053.012l.008.165" fill="#0a75d6" mask="url(#k)" transform="translate(15.153 18.208)"/><path d="m11.917 18.148.655.001v.381c-.014.014-.032.012-.05.012h-.556c-.017 0-.035.002-.049-.012z" fill="#0a77d8"/><path d="M8.359 17.416a.186.186 0 0 1-.062.009l-.971-.001h-2.61c-.017 0-.038.008-.05-.014.047-.02.093-.042.14-.063.128.01.256.004.384.005.164.002.328 0 .49 0 .02.002.048-.01.055.023l-.004.02c.007.016.02.01.032.01h1.489c.013 0 .033.008.033-.017-.013-.042-.027-.084-.033-.128-.01-.021.009-.022.02-.025.017-.004.033-.003.049-.003.203 0 .405.002.608-.001.009 0 .017 0 .026-.002.136.059.27.12.404.187" fill="#0c84e1"/><path d="M12.572 17.722h-.655v-.373c.014-.014.032-.012.05-.012h.556c.017 0 .035-.002.049.012z" fill="#0c80de"/><path d="m21.593 18.365.123.342.096-.267c.011-.011.025-.012.038-.012h.216c.015 0 .04-.004.037.026-.042.118-.08.236-.127.35a.15.15 0 0 1-.037.006h-.472l-.03-.003-.11-.295c-.019-.048-.035-.098-.052-.147.011-.012.026-.011.041-.011l.244-.001c.012 0 .026-.002.033.012" fill="#0a74d5"/><path d="M17.276 18.567v-.38c.014-.015.032-.014.05-.014h.533c.018 0 .036 0 .05.013v.381c-.014.014-.032.012-.05.012h-.534c-.017 0-.035.002-.049-.012" fill="#0b79d9"/><path d="M12.572 17.35h-.655v-.367c.204 0 .408.001.613 0 .036 0 .045.01.044.045-.002.107-.002.214-.002.321" fill="#0c84e1"/><path d="M8.845 17.64c-.015.01-.031.008-.047.008H4.216c-.015 0-.03.001-.043-.008.035-.02.073-.036.11-.052.015.013.032.007.048.007h4.351c.017 0 .036.007.05-.008.037.02.079.028.113.053" fill="#0c80de"/><path d="M19.712 19.094c-.01-.012-.004-.026-.004-.039v-.97c0-.087-.002-.173-.003-.259.013-.013.03-.01.049-.01h.537c.048 0 .052.003.052.052 0 .106.002.211-.002.317-.018.016-.04.013-.06.013h-.492c-.065 0-.064 0-.065.066 0 .094.002.186-.001.28.002.112.002.223 0 .335.002.058 0 .116 0 .174 0 .015 0 .03-.011.041" fill="#0c7fde"/><path d="M16.87 18.164v.164c-.013.013-.03.012-.046.012h-.492c-.013 0-.027 0-.04-.006-.017-.012-.012-.03-.014-.047-.003-.02.007-.043-.008-.061-.018-.011-.038-.005-.057-.006-.022-.001-.044-.003-.065.003-.069.009-.138.016-.204.04a.33.33 0 0 0-.11.059c-.012.01-.024.02-.04.018h-.582c-.016 0-.032 0-.045-.012a.452.452 0 0 1 .08-.165h1.444z" fill="#0b7cdb"/><path d="M14.876 18.284v-.131c0-.05 0-.05-.051-.05-.29 0-.577.005-.866-.001-.304-.005-.608-.005-.913-.005-.02 0-.037-.002-.044.02l.006-.126c.004-.02.02-.025.037-.025.096-.001.193-.004.29.002.028.002.057.004.085.004.337 0 .673-.004 1.009.003.13.003.26.002.39.005.021 0 .047-.006.054.027.008.09.01.184.003.277" fill="#0c80de"/><path d="M14.585 17.302c-.01.014-.025.01-.038.01-.233 0-.468.005-.701-.002-.161-.006-.323-.003-.484-.006a.056.056 0 0 1-.032-.007.907.907 0 0 1 .539-.224.951.951 0 0 1 .504.082.647.647 0 0 1 .212.147" fill="#0e8be7"/><path d="M14.874 18.006c-.01-.017-.024-.015-.04-.015-.101 0-.204.003-.305 0-.384-.015-.77 0-1.153-.009-.11-.002-.218-.002-.328-.006-.015 0-.03 0-.04.014a5.39 5.39 0 0 0 .015-.126.08.08 0 0 1 .043-.012l.535.001c.008 0 .017.001.025.003.015.004.03.005.045.005h.569c.192-.002.383 0 .574 0 .017 0 .036 0 .045.018a.772.772 0 0 1 .015.127" fill="#0c81df"/><path d="M.988.161c0 .027.01.057-.007.083C.951.245.921.238.891.232a2.282 2.282 0 0 0-.117 0C.696.245.617.256.55.303.51.331.48.366.446.401.407.409.368.403.33.404H.111c-.059 0-.059 0-.059.061v1.446c0 .015 0 .03-.012.042-.009-.013-.005-.027-.005-.04L.036.509C.036.35.026.193.016.036.012.011.017 0 .045 0c.083.002.167.002.25.001.02-.001.028.004.028.026.001.042.005.084.007.126.001.013.004.017.014.008C.36.148.378.149.395.149H.94c.017 0 .035-.002.05.012" fill="#0d89e5" mask="url(#l)" transform="translate(31.003 17.143)"/><path d="M18.973 17.318c-.017.011-.036.01-.054.01h-1.65c-.005-.057-.009-.113-.015-.167-.003-.02 0-.03.023-.03h.562c.022 0 .028.01.03.028.002.047.006.094.01.146.04-.028.067-.063.105-.084.288.008.575.004.863.002.012 0 .024 0 .036.006l.09.09" fill="#0e8be6"/><path d="M1.22.575a.644.644 0 0 1-.33.189 1.098 1.098 0 0 1-.58.004A.697.697 0 0 1 0 .582C0 .563.012.559.026.556.041.554.056.554.071.554H1.15c.025 0 .053-.007.071.021" fill="#0971d3" mask="url(#m)" transform="translate(24.092 18.351)"/><path d="m23.802 18.127 1.725-.001c.014 0 .03-.002.043.008a.236.236 0 0 1-.001.075c-.013.007-.027.003-.04.003h-1.363c-.014 0-.03-.003-.044.003v.047c.008.01 0 .024.005.036l.016.098c-.014.012-.032.01-.05.01h-.19a.205.205 0 0 0-.073.012.944.944 0 0 1-.03-.254c-.004-.013-.007-.025.002-.037" fill="#0b7cdb"/><path d="M24.09 17.326a.734.734 0 0 1 .448-.23.955.955 0 0 1 .578.093c.068.035.13.078.179.138-.014.014-.032.012-.05.012H24.14c-.017 0-.035.002-.05-.013" fill="#0e8be7"/><path d="M28.847 18.126h1.769c.002.028.004.056-.001.083-.013.007-.027.003-.04.003h-1.363c-.015 0-.03-.003-.045.003 0 .058.013.115.02.173-.01.01-.026.01-.04.01a9.283 9.283 0 0 1-.236 0c-.014 0-.03 0-.042-.01a1.043 1.043 0 0 1-.022-.262" fill="#0b7ddc"/><path d="M13.014 18.358c-.004-.029.014-.03.036-.03.187.01.374.007.561.008a.642.642 0 0 0 .046.215c.018.04.047.072.076.104-.007.025-.028.02-.045.02l-.197.001c-.132.001-.263-.003-.394.002a.912.912 0 0 1-.083-.32" fill="#0b78d8"/><path d="M1.199.58a.692.692 0 0 1-.315.18C.664.815.444.829.228.739a.75.75 0 0 1-.226-.15C-.005.568.009.566.02.563.035.56.05.56.065.56h1.108c.01.004.026.003.026.02" fill="#0971d3" mask="url(#n)" transform="translate(29.143 18.353)"/><path d="M.183.366h.633V.68C.803.693.785.691.766.691.589.692.41.692.232.691.215.691.197.693.183.68z" fill="#0a74d5" mask="url(#o)" transform="translate(17.093 18.201)"/><path d="M.814.791.688.794H.227C.213.794.2.792.186.791.178.741.183.688.183.637.183.584.178.531.186.48.2.467.218.47.235.47h.528c.018 0 .035-.002.05.01.01.033.004.068.004.102-.001.07.005.14-.003.21" fill="#0971d3" mask="url(#p)" transform="translate(18.307 18.303)"/><path d="M29.15 17.311a.742.742 0 0 1 .434-.214.937.937 0 0 1 .579.092.47.47 0 0 1 .16.123c-.015.023-.041.02-.064.02h-1.045c-.022 0-.048.004-.063-.02" fill="#0e8be7"/><path d="M1.376.698c-.01-.014-.025-.009-.038-.009H.215C.202.689.185.681.18.705A.978.978 0 0 1 .001.459V.444C0 .427.013.426.025.425.128.422.231.424.334.424l.01.003c.17.225.535.273.762.121.115-.009.23-.003.344-.004.015 0 .03.002.038.018-.035.048-.065.1-.112.136" fill="#0a74d5" mask="url(#q)" transform="translate(28.965 18.236)"/><path d="M.828.497v.29C.822.794.814.793.807.793H.196C.189.792.18.792.175.788.169.69.172.594.173.497.187.483.205.484.223.484h.556c.017 0 .035-.002.049.013" fill="#0a70d2" mask="url(#r)" transform="translate(11.744 18.31)"/><path d="M1.399.693C1.384.684 1.368.684 1.352.684H.225C.208.685.189.679.179.701A.825.825 0 0 1 0 .438C.011.426.027.426.042.426.136.424.231.429.326.423A.04.04 0 0 1 .35.43c.163.213.476.253.671.165.034-.015.066-.035.098-.053.051-.008.104-.002.156-.003.062-.001.124-.002.186 0 .015 0 .037-.005.042.02a.789.789 0 0 1-.104.134" fill="#0a74d5" mask="url(#s)" transform="translate(23.913 18.234)"/><path d="M7.917 2.806h.655V2.53h-.655z" fill="#0a73d4" mask="url(#t)" transform="translate(4 16)"/><path d="M20.09 1.326h1.205a.657.657 0 0 1 .158.239c-.015.016-.034.012-.052.012-.09.002-.177-.003-.266.004-.017 0-.03-.01-.041-.022a.493.493 0 0 0-.298-.167c-.01-.001-.018-.004-.026-.006a.09.09 0 0 0-.04-.003h-.095a.527.527 0 0 0-.252.089.051.051 0 0 1-.038.01c-.103-.004-.205-.001-.308-.002-.02-.001-.043.005-.055-.018a.544.544 0 0 1 .108-.136" fill="#0d88e4" mask="url(#t)" transform="translate(4 16)"/><path d="M13.91 2.186h-.634v-.284c.014-.014.032-.012.05-.012h.534c.017 0 .035-.002.05.012z" fill="#0c80de" mask="url(#t)" transform="translate(4 16)"/><path d="M10.637 2.933c-.015-.009-.03-.008-.047-.008h-.318c-.32.005-.64-.01-.962-.008-.018 0-.035 0-.05.01a.507.507 0 0 1-.097-.12c.004-.022.022-.02.036-.02.068 0 .136-.005.205.003a.486.486 0 0 0 .066.003l.96.001c.088 0 .176.01.264.007.014 0 .027.001.038.012-.027.044-.053.09-.095.12" fill="#0a74d5" mask="url(#t)" transform="translate(4 16)"/><path d="M10.039 2.717c.12-.026.178-.113.208-.224.007-.025.017-.032.042-.032h.513c.023 0 .032.005.029.03a.64.64 0 0 1-.06.247.103.103 0 0 1-.056.012c-.114 0-.227.004-.34 0-.091-.006-.183-.005-.275-.009-.022 0-.048.003-.061-.024" fill="#0a76d7" mask="url(#t)" transform="translate(4 16)"/><path d="M16.338 2.186c0-.11 0-.22.002-.33 0-.03-.017-.029-.036-.029h-.6c-.012-.043-.015-.089-.035-.13a.236.236 0 0 0-.092-.103c.013-.01.029-.006.044-.006h.63c.02 0 .039-.002.058-.007a.614.614 0 0 1 .03.19c.011.434.002.868.005 1.303 0 .007.002.014-.005.02-.011-.01-.011-.026-.011-.04 0-.058-.001-.116.001-.174a9.409 9.409 0 0 1 0-.336c-.003-.106-.001-.212-.001-.32 0-.014.001-.027.01-.038" fill="#0d85e2" mask="url(#t)" transform="translate(4 16)"/><path d="M15.121 3.094v-.31a.06.06 0 0 1-.012-.04l.001-.213a5.46 5.46 0 0 1 0-.18c-.002-.067 0-.133 0-.198-.002-.04-.005-.045-.047-.045h-.509c-.02 0-.043.004-.06-.01-.008-.08-.002-.159-.005-.239 0-.018.01-.025.025-.027.007-.002.014-.002.022-.002h.56c.01 0 .02 0 .028.004.015.006.02.015.012.03-.02.402-.006.803-.01 1.206 0 .008.002.017-.005.024" fill="#0c80de" mask="url(#t)" transform="translate(4 16)"/><path d="M25.15 1.311c.016.01.032.008.048.008h1.075a.17.17 0 0 0 .05-.007.335.335 0 0 1 .082.09c-.012.022-.033.017-.052.018h-.313c-.018 0-.038-.003-.057.004-.012.005-.022.002-.033-.002-.042-.016-.087-.023-.131-.036-.012-.005-.026-.005-.04-.005-.046 0-.092 0-.138.006a.47.47 0 0 0-.256.126c-.027.027-.046.064-.086.074-.093-.005-.187 0-.28-.003-.018 0-.037.003-.053-.01a.78.78 0 0 1 .184-.263" fill="#0d89e5" mask="url(#t)" transform="translate(4 16)"/><path d="M10.039 2.717c.02.01.042.014.064.014.223.002.446.011.669.007l-.04.075c-.434-.01-.868-.005-1.302-.009-.076 0-.152-.005-.227-.006-.013 0-.028-.005-.04.008a.424.424 0 0 1-.066-.128c.005-.023.024-.014.037-.014h.558c.014 0 .03.005.04-.009a.42.42 0 0 0 .307.062" fill="#0a74d5" mask="url(#t)" transform="translate(4 16)"/><path d="M21.554 1.94a.147.147 0 0 1-.055.007c-.435-.01-.87-.01-1.306-.006-.11 0-.22.005-.33.006a.153.153 0 0 1-.053-.008c.013-.095.033-.188.071-.276.014-.012.03-.012.047-.012h.22c.022.001.045 0 .06.022.003.016-.004.03-.009.044a.848.848 0 0 0-.042.147c-.012.053-.009.056.044.056h.975c.055 0 .055-.002.048-.058-.005-.034-.028-.068-.012-.105.015-.013.033-.015.052-.016h.216c.014 0 .028.001.038.011.013.063.032.124.036.187" fill="#0c82e0" mask="url(#t)" transform="translate(4 16)"/><path d="m23.484 1.417.073.2c-.008.01-.017.012-.027.012-.092 0-.185.005-.277-.002l-.032-.075-.088.23a.175.175 0 0 0-.072-.011h-.164c-.016 0-.033.002-.045-.01.04-.115.08-.232.125-.344.007-.006.016-.006.025-.006.152.002.305.003.458-.001.008 0 .017 0 .024.007" fill="#0d87e3" mask="url(#t)" transform="translate(4 16)"/><path d="m1.03 1.244.32-.151c.166-.078.332-.154.498-.23a.44.44 0 0 1 .03-.011c-.013.052-.025.1-.04.147-.024.09-.043.18-.074.268-.22-.007-.438-.001-.657-.002-.016-.001-.033 0-.05-.002-.01-.002-.025-.001-.026-.02" fill="#0d88e4" mask="url(#t)" transform="translate(4 16)"/><path d="M15.121 1.289a.602.602 0 0 1 .37-.184.826.826 0 0 1 .477.058.47.47 0 0 1 .176.127c-.017.023-.044.019-.068.019h-.894c-.022 0-.046.002-.06-.02" fill="#0e8ce7" mask="url(#t)" transform="translate(4 16)"/><path d="M3.955 1.228c-.01.021-.03.017-.045.017h-.62c-.013 0-.033-.01-.038.014-.038-.112-.063-.229-.096-.343L3.14.856c.035.003.06.022.089.035l.714.33c.004.001.008.005.012.007" fill="#0d89e5" mask="url(#t)" transform="translate(4 16)"/><path d="m17.018.73.156.44c-.011.012-.027.011-.042.011h-.25c-.015 0-.03 0-.042-.01a32.892 32.892 0 0 1-.135-.365c-.008-.02-.023-.039-.021-.063.002-.017.017-.017.028-.017a10 10 0 0 1 .3 0l.006.003" fill="#0d87e3" mask="url(#t)" transform="translate(4 16)"/><path d="M16.84 1.17h.333l.15.426c-.01.015-.026.018-.042.018-.083.002-.166 0-.249 0a.06.06 0 0 1-.035-.01l-.126-.34c-.012-.031-.022-.062-.032-.093" fill="#0c82df" mask="url(#t)" transform="translate(4 16)"/><path d="m19.41 2.619.001.458c0 .013.002.025-.017.024l-.276-.001-.005-.003c-.004-.006-.004-.012-.004-.018v-.445c0-.005 0-.01.002-.015.011-.011.025-.011.038-.012h.223c.014 0 .028 0 .038.012" fill="#0a72d3" mask="url(#t)" transform="translate(4 16)"/><path d="M17.018.73c-.023.01-.048.006-.073.006h-.222c-.014.001-.028-.005-.04.007-.044-.105-.08-.215-.12-.322a3.019 3.019 0 0 1-.031-.087c.008-.012.02-.008.03-.008h.315z" fill="#0e8be7" mask="url(#t)" transform="translate(4 16)"/><path d="M13.276 2.88h.633l.001.198c.001.019-.005.025-.023.025a58.017 58.017 0 0 0-.59 0c-.017 0-.023-.006-.023-.025.002-.065.002-.131.002-.197" fill="#0970d3" mask="url(#t)" transform="translate(4 16)"/><path d="m24.172 2.754-.12.334c-.006.014-.016.014-.028.014h-.227c-.016 0-.024-.004-.029-.021l-.112-.318c.008-.03.034-.021.052-.021h.403c.021 0 .043-.004.061.012" fill="#0a72d4" mask="url(#t)" transform="translate(4 16)"/><path d="M11.167 2.328h.595c.014 0 .03-.006.041.01v.003a.256.256 0 0 0-.039.194c.001.01-.003.02-.014.024-.015.006-.03.005-.047.005h-.515c-.02 0-.04.003-.057-.011a.572.572 0 0 1 .036-.225" fill="#0b79d9" mask="url(#t)" transform="translate(4 16)"/><path d="m16.338 2.88.001.215-.126.003h-.461l-.04-.003.001-.214c.014-.014.032-.012.049-.012h.527c.017 0 .035-.002.049.012" fill="#0970d2" mask="url(#t)" transform="translate(4 16)"/><path d="M13.91 1.902h-.634v-.209h.631c.014 0 .034-.01.04.014-.022.038-.023.081-.033.122-.002.011.004.024-.004.035v.038" fill="#0c83e0" mask="url(#t)" transform="translate(4 16)"/><path d="M9.986 1.526a.062.062 0 0 1 .042-.013c.086 0 .174-.006.26.001.154.013.307.002.46.007.035.064.06.13.075.201-.017.015-.037.012-.057.012h-.474c-.021 0-.042 0-.063.005-.028.006-.03-.018-.035-.033-.03-.076-.075-.132-.155-.157-.018-.004-.04-.003-.053-.023" fill="#0d85e2" mask="url(#t)" transform="translate(4 16)"/><path d="M17.438 2.807c.008-.012.02-.009.03-.009h.48c.01 0 .02-.002.029.007l-.1.277c-.004.016-.013.02-.03.02h-.28c-.013 0-.025 0-.031-.019l-.098-.276" fill="#0970d2" mask="url(#t)" transform="translate(4 16)"/><path d="M17.593 2.365h-.318a58.964 58.964 0 0 1-.143-.381v-.015c.011-.011.026-.011.041-.011a9.44 9.44 0 0 1 .238 0c.015 0 .03 0 .041.01l.113.313c.01.028.02.056.028.084" fill="#0b79d9" mask="url(#t)" transform="translate(4 16)"/><path d="M21.803 1.536c-.045-.101-.079-.206-.117-.31-.03-.081-.029-.082.06-.082h.213c.016 0 .028 0 .034.02.042.122.086.243.13.364-.01.01-.023.012-.035.012h-.267a.04.04 0 0 1-.018-.004" fill="#0d8ae6" mask="url(#t)" transform="translate(4 16)"/><path d="M19.41 1.835v.41c-.01.012-.024.013-.038.013h-.222c-.013 0-.027-.001-.038-.011-.007-.058-.003-.116-.003-.175 0-.08-.003-.158.002-.237.011-.011.025-.012.038-.012h.223c.014 0 .028 0 .038.012" fill="#0b7ada" mask="url(#t)" transform="translate(4 16)"/><path d="M9.12 1.573c.088 0 .175-.005.262.002.113.008.226.004.339.006.01 0 .023-.003.026.013a.027.027 0 0 1-.006.017.387.387 0 0 0-.08.163c-.002.013-.005.032-.028.022-.02-.011-.041-.01-.063-.01h-.467c-.02 0-.04.005-.056-.011a.817.817 0 0 1 .074-.202" fill="#0c84e1" mask="url(#t)" transform="translate(4 16)"/><path d="M17.453 1.97h-.321c-.04-.093-.071-.188-.104-.28-.011-.03-.028-.056-.03-.087h.279a.13.13 0 0 0 .047-.008c.044.125.09.248.129.374" fill="#0b7ddc" mask="url(#t)" transform="translate(4 16)"/><path d="M19.091.326h.336c.008.09.002.182.003.274.001.076 0 .077-.078.077h-.235c-.02 0-.028-.004-.027-.027l.001-.324m5.225 1.18.113-.337c.006-.016.012-.025.032-.024h.287c.021 0 .025.006.017.025l-.13.344c-.008.006-.018.006-.028.006-.08-.003-.159-.001-.238-.002-.018 0-.038.004-.053-.012" fill="#0e8be6" mask="url(#t)" transform="translate(4 16)"/><path d="M12.29 2.328h.58c.005.044-.005.089.005.133.007.02.003.04.002.06-.01.013-.026.013-.04.013h-.562a.092.092 0 0 1-.029-.004c-.012-.004-.015-.014-.01-.023.018-.055.023-.113.038-.168a.02.02 0 0 1 .015-.011" fill="#0b79d9" mask="url(#t)" transform="translate(4 16)"/><path d="M23.484 1.417c-.074.015-.148.005-.222.007-.075.002-.15 0-.227 0a.19.19 0 0 1-.058-.007l.09-.256c.004-.015.014-.017.027-.017h.273c.015 0 .024.004.03.02.028.085.058.169.087.253" fill="#0e8ce7" mask="url(#t)" transform="translate(4 16)"/><path d="M1.786 2.238c.03.113.062.227.096.346-.05-.014-.09-.037-.13-.056a97.207 97.207 0 0 1-.564-.26l-.03-.015c.009-.028.032-.026.052-.026.056-.002.113-.001.168-.001h.35c.02 0 .04-.003.058.012" fill="#0a73d5" mask="url(#t)" transform="translate(4 16)"/><path d="m18.188 1.364.127-.366c.01-.019.028-.019.045-.019h.224c.018 0 .037 0 .049.019l-.127.352-.006.014c-.075.01-.149.002-.224.004-.029 0-.059.005-.088-.004" fill="#0c84e1" mask="url(#t)" transform="translate(4 16)"/><path d="M27.044 3.096v-.38a.058.058 0 0 1 .039-.012h.22c.014 0 .028.001.038.012l-.002.355c0 .017 0 .031-.024.031h-.258c-.005 0-.01-.005-.013-.006" fill="#0a72d3" mask="url(#t)" transform="translate(4 16)"/><path d="M18.188 1.364a.046.046 0 0 1 .028-.008h.26c.008 0 .017 0 .024.008-.041.11-.08.222-.12.333-.004.012-.006.023-.015.033-.09.009-.18.004-.271.003-.012-.001-.024-.005-.03-.018l.124-.351" fill="#0c80de" mask="url(#t)" transform="translate(4 16)"/><path d="M18.064 1.714c.015.01.031.008.047.008l.215.001c.013 0 .028-.006.04.007l-.117.33c-.005.013-.006.03-.018.043-.089.01-.177.004-.266.003a.036.036 0 0 1-.03-.018l.13-.374" fill="#0b7bdb" mask="url(#t)" transform="translate(4 16)"/><path d="M19.114 1.835v.41c.01.014.01.028.01.043v.289c0 .015 0 .03-.01.042l-.001.478c-.01-.012-.004-.025-.004-.036V1.17c-.001-.02.007-.027.028-.026h.247c.02-.001.029.003.028.026l-.002.313c-.014.013-.032.01-.05.01-.063.002-.128 0-.193.002-.038 0-.042.004-.042.043v.242c-.001.019.002.038-.011.054" fill="#0c82e0" mask="url(#t)" transform="translate(4 16)"/><path d="M22.065 2.246c-.04-.092-.071-.187-.105-.28-.011-.03-.029-.054-.03-.086.011-.012.027-.012.041-.012h.231c.015 0 .03 0 .042.012.027.052.042.108.062.163l.071.202c-.028.01-.057.005-.085.005-.076-.002-.152.005-.227-.004" fill="#0c7fdd" mask="url(#t)" transform="translate(4 16)"/><path d="M22.244 1.88h-.314c-.044-.113-.093-.226-.127-.344.013-.008.028-.008.044-.008h.275l.114.317c.004.01.011.022.008.035" fill="#0d84e1" mask="url(#t)" transform="translate(4 16)"/><path d="M18.633.998c-.06-.015-.12-.006-.182-.007-.045 0-.09-.008-.136.007l.128-.366c.008-.006.018-.006.028-.005.08.002.158 0 .238 0 .018 0 .037-.002.052.013-.04.12-.082.24-.128.358" fill="#0d88e4" mask="url(#t)" transform="translate(4 16)"/><path d="M27.991 1.304h-.643a.48.48 0 0 1 .374-.216 1.94 1.94 0 0 1 .253.003c.008.001.015.001.018.011 0 .067 0 .135-.002.202" fill="#0e8be6" mask="url(#t)" transform="translate(4 16)"/><path d="M24.316 1.506h.265a.16.16 0 0 1 .054.008l-.124.339-.009.019c-.085-.005-.17-.002-.255-.003-.018-.001-.037.003-.053-.011z" fill="#0d85e2" mask="url(#t)" transform="translate(4 16)"/><path d="M19.114 2.62h.296v-.374h-.296z" fill="#0a76d7" mask="url(#t)" transform="translate(4 16)"/><path d="M22.852 1.76h.25c.014 0 .033-.005.032.021A6.736 6.736 0 0 1 23 2.15c-.082.007-.165.003-.247.002a.04.04 0 0 1-.035-.018l.135-.373" fill="#0c80de" mask="url(#t)" transform="translate(4 16)"/><path d="M15.121 1.289a.165.165 0 0 0 .06.008h.905c.02 0 .04-.001.058-.007a.272.272 0 0 1 .083.104l-1.189-.001a.377.377 0 0 1 .083-.104" fill="#0d89e5" mask="url(#t)" transform="translate(4 16)"/><path d="M27.044 1.85v-.288c0-.016.001-.026.021-.026l.358.001c.01 0 .017.004.025.007a.608.608 0 0 0-.095.285c0 .006-.003.013-.005.02-.01.012-.025.012-.038.012a8.664 8.664 0 0 1-.228 0c-.013 0-.027 0-.038-.01" fill="#0c84e1" mask="url(#t)" transform="translate(4 16)"/><path d="M12.335 2.925c.011-.009.025-.008.04-.008h.486c.013 0 .025 0 .036.007l.03.153c.004.018.002.025-.018.025a47.349 47.349 0 0 0-.533 0c-.019 0-.026-.009-.028-.026-.007-.05-.014-.1-.014-.15" fill="#0a72d3" mask="url(#t)" transform="translate(4 16)"/><path d="M3.224 2.275c.013-.05.023-.1.042-.149.015-.013.033-.012.05-.012h.74c.02 0 .043-.003.056.02l-.291.14c-.01.003-.02.011-.031.008-.08-.005-.16-.002-.24-.002h-.286c-.013 0-.027.002-.04-.005" fill="#0a76d6" mask="url(#t)" transform="translate(4 16)"/><path d="m19.114 1.835-.001-.32c-.001-.027.009-.032.033-.032h.264v.352z" fill="#0c7fdd" mask="url(#t)" transform="translate(4 16)"/><path d="M17.935 2.089c.027.012.056.007.083.008h.178c.012 0 .025-.004.035.007-.042.117-.08.236-.127.35-.004-.02-.021-.013-.033-.013h-.258c.04-.118.08-.235.122-.352" fill="#0a78d8" mask="url(#t)" transform="translate(4 16)"/><path d="M24.172 2.754h-.475c-.013 0-.03-.006-.04.009a.485.485 0 0 1-.045-.128c.01-.011.021-.012.034-.012l.253-.001a.04.04 0 0 1 .018.005c.018.005.015-.011.018-.02.01-.03.014-.06.03-.084.007-.015.021-.02.035-.02h.235c.01 0 .02.004.027.012-.028.08-.055.16-.09.239" fill="#0a76d7" mask="url(#t)" transform="translate(4 16)"/><path d="M18.762.64h-.268a.143.143 0 0 1-.051-.008c.035-.103.068-.207.109-.307l.286.001c.012 0 .028-.006.038.008-.038.101-.071.205-.114.305" fill="#0e8ce7" mask="url(#t)" transform="translate(4 16)"/><path d="M11.22 1.58a.195.195 0 0 0 .059.009l.568-.001a.33.33 0 0 0-.022.139c.002.02-.005.026-.026.026h-.566c-.024 0-.03-.007-.03-.03.005-.047.003-.095.017-.142" fill="#0d85e2" mask="url(#t)" transform="translate(4 16)"/><path d="M24.966 1.573h.282c.02 0 .04.002.06.008.005.01 0 .016-.005.024-.053.075-.076.164-.101.25-.004.013 0 .03-.02.032-.003-.02-.02-.014-.032-.014a8.513 8.513 0 0 0-.226 0 .203.203 0 0 1-.055-.008.966.966 0 0 1 .097-.292" fill="#0c84e1" mask="url(#t)" transform="translate(4 16)"/><path d="M14.883 1.23c-.037.01-.074.007-.11.007h-.734c-.02 0-.04.003-.055-.016a.644.644 0 0 1 .31-.12.857.857 0 0 1 .476.057c.041.018.08.04.113.071" fill="#0e8ce7" mask="url(#t)" transform="translate(4 16)"/><path d="M1.03 1.244c.013.014.029.008.043.008h.652c.014 0 .034-.01.039.015-.01.037-.02.072-.028.108-.012-.018-.03-.011-.045-.011H.868c-.022 0-.045 0-.062-.017.074-.037.149-.073.225-.103" fill="#0d85e2" mask="url(#t)" transform="translate(4 16)"/><path d="M3.224 2.275c.01-.008.023-.007.036-.007h.49c.015 0 .03-.003.04.014l-.262.125-.37.171c-.004.003-.01.004-.02.008l.086-.31" fill="#0a73d4" mask="url(#t)" transform="translate(4 16)"/><path d="M22.717 2.133c.066.016.133.003.2.008.027.002.056-.009.082.008l-.112.315-.007.013c-.088.01-.177.004-.265.002a.023.023 0 0 1-.019-.01l.121-.336" fill="#0b7bda" mask="url(#t)" transform="translate(4 16)"/><path d="M15.136 1.864c.002-.02-.01-.021-.025-.021l-.59-.001c-.02 0-.028.005-.028.027 0 .076 0 .152.002.227.009.012.01.025.01.039 0 .072.002.143 0 .214v.181c.002.071 0 .144 0 .215 0 .014-.001.027-.01.039l-.002.31c-.008-.011-.004-.026-.004-.039V2.017c0-.096 0-.192-.018-.288-.007-.015.005-.019.016-.022.013-.004.026-.004.04-.004h.585c.012 0 .024 0 .036.003.012.004.026.007.018.024l-.03.134" fill="#0c83e1" mask="url(#t)" transform="translate(4 16)"/><path d="M11.13 2.552h.627c.01-.004.014.004.017.01a.258.258 0 0 0 .08.104c.007.005.01.011.01.02-.016.01-.034.008-.051.008h-.618c-.014 0-.03-.006-.043.006-.017-.047-.018-.098-.021-.148" fill="#0a76d7" mask="url(#t)" transform="translate(4 16)"/><path d="M25.31 2.664c-.034.012-.069.008-.104.008h-.204c-.012 0-.027-.005-.037.009a.952.952 0 0 1-.096-.293h.32c.021.1.063.192.12.276" fill="#0b78d8" mask="url(#t)" transform="translate(4 16)"/><path d="M10.218 1.737c.005-.022.024-.014.037-.014l.568-.001c.014.052.032.103.036.158-.015-.011-.031-.008-.047-.008h-.572c-.005-.006-.012-.011-.014-.02a.651.651 0 0 1-.013-.077c-.002-.013-.006-.026.005-.038" fill="#0c82e0" mask="url(#t)" transform="translate(4 16)"/><path d="M20.263 2.664c-.117.017-.233.004-.35.008a.943.943 0 0 1-.083-.254c.002-.025.021-.023.038-.023h.275a.825.825 0 0 0 .12.269" fill="#0a78d8" mask="url(#t)" transform="translate(4 16)"/><path d="M22.065 2.246a.072.072 0 0 1 .032-.008h.252c.01 0 .019.002.028.007.035.095.072.188.1.284-.014.015-.032.012-.049.012a5.704 5.704 0 0 1-.185 0 .183.183 0 0 0-.066.01c-.039-.101-.082-.201-.112-.305" fill="#0b79d9" mask="url(#t)" transform="translate(4 16)"/><path d="M27.34 2.716h-.295V2.41c.01-.01.024-.01.038-.01h.22c.014 0 .028 0 .038.01z" fill="#0a77d8" mask="url(#t)" transform="translate(4 16)"/><path d="M26.587 1.857h-.267c-.017 0-.034-.002-.032.022-.02 0-.017-.018-.02-.03a.696.696 0 0 0-.088-.233c-.007-.012-.013-.025-.008-.039.01-.013.023-.015.036-.015.088-.002.175 0 .262 0 .012 0 .024.001.034.011a.948.948 0 0 1 .083.284" fill="#0d85e2" mask="url(#t)" transform="translate(4 16)"/><path d="M22.737 2.873c-.023.066-.048.133-.07.199-.008.022-.017.03-.042.03a7.776 7.776 0 0 0-.216 0c-.024 0-.034-.007-.042-.03l-.072-.198c.009-.015.024-.02.039-.02h.364c.016 0 .03.005.039.019" fill="#0971d3" mask="url(#t)" transform="translate(4 16)"/><path d="M27.044 1.85h.304c0 .175 0 .351-.002.526 0 .004-.003.007-.005.011-.013-.015-.01-.032-.01-.05v-.156c-.001-.039-.004-.043-.043-.043h-.194c-.017 0-.035.002-.05-.012z" fill="#0c7fde" mask="url(#t)" transform="translate(4 16)"/><path d="M23.755 2.178c.037.088.069.178.097.27-.014.02-.037.017-.057.018-.081.001-.161-.003-.242.003-.035-.09-.071-.182-.097-.275 0-.02.017-.025.03-.026a2.86 2.86 0 0 1 .245 0c.01 0 .016.004.023.01m3.29-.051.261-.001c.03-.001.038.009.037.038-.002.074 0 .149 0 .224 0 .007 0 .014-.002.022h-.296z" fill="#0b7bdb" mask="url(#t)" transform="translate(4 16)"/><path d="M22.737 2.873a.195.195 0 0 0-.06-.007h-.316a.187.187 0 0 0-.066.008c-.021-.054-.046-.106-.058-.164.007-.026.03-.02.049-.02l.377-.001h.09c.015 0 .032-.001.045.013l-.061.17" fill="#0a74d5" mask="url(#t)" transform="translate(4 16)"/><path d="M12.239 2.522h.639v.12c-.011.011-.025.011-.038.011h-.647a.052.052 0 0 1-.018-.003c-.01-.003-.02-.008-.014-.018.026-.036.04-.082.078-.11" fill="#0a76d7" mask="url(#t)" transform="translate(4 16)"/><path d="M24.194 1.857h.268c.015 0 .031-.003.04.015a2.852 2.852 0 0 1-.09.24c-.074.01-.149.001-.223.003-.027 0-.055.005-.08-.004.027-.085.056-.17.085-.254" fill="#0c80de" mask="url(#t)" transform="translate(4 16)"/><path d="M21.148 2.657a.6.6 0 0 0 .09-.211c.003-.017.01-.025.029-.024h.269c.014 0 .024.003.02.02-.02.076-.04.152-.075.222a.085.085 0 0 1-.049.012h-.228c-.02 0-.043.002-.057-.02" fill="#0b78d8" mask="url(#t)" transform="translate(4 16)"/><path d="M23.755 2.178h-.252c-.018 0-.035 0-.047.016a3.053 3.053 0 0 1-.09-.248c.003-.017.017-.017.028-.018.088-.003.175.001.262-.002.005 0 .01.003.014.006.027.082.062.162.084.246" fill="#0c7fdd" mask="url(#t)" transform="translate(4 16)"/><path d="M26.2 2.65a.718.718 0 0 0 .083-.206c.004-.016.01-.023.028-.023h.272c.017 0 .023.006.019.023-.021.072-.038.145-.074.213a.09.09 0 0 1-.05.012h-.22c-.021 0-.044.001-.058-.02" fill="#0b78d8" mask="url(#t)" transform="translate(4 16)"/><path d="M1.786 2.238H1.21c-.02 0-.038-.001-.052.015a3.056 3.056 0 0 1-.225-.104c.002-.019.019-.017.03-.018.02-.003.04-.002.06-.002l.677.001c.02 0 .045-.006.06.018l.025.09m21.013.464h-.52c-.014 0-.03-.006-.042.008a1.501 1.501 0 0 1-.06-.158c0-.027.019-.022.035-.022l.266-.001.04.105c.007.019.013.017.02 0 .012-.011.027-.011.042-.011a6.6 6.6 0 0 1 .199 0c.016 0 .037-.005.042.019l-.022.06" fill="#0a76d7" mask="url(#t)" transform="translate(4 16)"/><path d="M4.112 2.133c-.016-.01-.034-.008-.051-.008h-.795c.003-.028.013-.054.02-.082a.206.206 0 0 0 .067.008h.88c.014 0 .029-.005.043.007l-.164.075" fill="#0a78d8" mask="url(#t)" transform="translate(4 16)"/><path d="M20.205 1.68c-.013-.02-.032-.018-.051-.018h-.272a.7.7 0 0 1 .1-.2c.013.008.028.006.043.006h.29c.014 0 .029-.005.039.01.007.008.002.015-.004.021a.719.719 0 0 0-.128.168c-.004.006-.008.013-.017.012" fill="#0d88e4" mask="url(#t)" transform="translate(4 16)"/><path d="M1.76 2.148c-.011-.01-.025-.007-.04-.007H.973c-.013 0-.027-.005-.038.008-.05-.02-.101-.04-.15-.069.013-.02.032-.014.049-.014h.907l.02.082" fill="#0a77d7" mask="url(#t)" transform="translate(4 16)"/><path d="M24.262 2.514h-.253c-.015 0-.03-.002-.043.008l.08-.232c.011-.01.025-.01.038-.01.074-.002.15-.002.223 0 .014 0 .027 0 .038.01-.027.076-.05.152-.083.224" fill="#0b7ad9" mask="url(#t)" transform="translate(4 16)"/><path d="M26.503 1.573h-.29c-.014 0-.033-.008-.037.016-.016.002-.022-.012-.028-.021a.438.438 0 0 0-.15-.123c-.01-.005-.022-.01-.024-.022.006-.022.024-.014.037-.014h.351c.015 0 .03.003.043-.007.04.053.075.109.098.17" fill="#0d88e4" mask="url(#t)" transform="translate(4 16)"/><path d="M15.166 1.73c-.002-.018-.017-.015-.028-.015H14.5c-.01 0-.026-.005-.029.014-.015-.029-.026-.06-.047-.088a.08.08 0 0 1 .043-.009l.752.001-.053.097m6.353.023h-.213c-.031 0-.062-.001-.092.007-.012.004-.016-.006-.018-.014a.712.712 0 0 0-.071-.147c-.005-.008-.008-.016-.003-.025.037-.013.075-.008.113-.008h.219c.03.059.05.122.065.187" fill="#0d85e2" mask="url(#t)" transform="translate(4 16)"/><path d="M24.345 2.29h-.299l.062-.18c.01-.006.023-.006.035-.006h.23a.08.08 0 0 1 .04.007l-.068.18" fill="#0b7ddc" mask="url(#t)" transform="translate(4 16)"/><path d="M23.553 2.47c.004-.022.02-.016.033-.016h.207a.188.188 0 0 0 .058-.007l.066.18c-.03.011-.061.006-.092.007h-.212a1.085 1.085 0 0 1-.06-.165" fill="#0a77d7" mask="url(#t)" transform="translate(4 16)"/><path d="M23.67 1.932c-.088.016-.175.003-.262.007-.014.001-.03-.005-.043.007a2.414 2.414 0 0 1-.065-.186c.009-.01.022-.012.034-.012a9.52 9.52 0 0 1 .239 0c.015 0 .03.003.038.02l.059.164" fill="#0c83e0" mask="url(#t)" transform="translate(4 16)"/><path d="M9.046 1.775h.56c.014 0 .037-.008.036.021.011.02.001.04-.002.058a.024.024 0 0 1-.013.011h-.604c.01-.029.01-.062.023-.09" fill="#0c82e0" mask="url(#t)" transform="translate(4 16)"/><path d="M26.2 2.65c.028.01.058.006.088.007h.24c-.023.048-.041.1-.075.141-.014-.008-.031-.007-.047-.007h-.288c-.016 0-.032.002-.046-.007a.657.657 0 0 0 .128-.135" fill="#0a74d6" mask="url(#t)" transform="translate(4 16)"/><path d="M22.82 2.642c-.01-.013-.025-.008-.039-.008h-.245l.06-.165h.241a.08.08 0 0 1 .043.008c-.02.055-.034.112-.06.165" fill="#0a76d7" mask="url(#t)" transform="translate(4 16)"/><path d="M23.61 1.767c-.013-.01-.028-.007-.043-.007H23.3a.531.531 0 0 1-.046-.134c.01-.013.024-.008.037-.008h.267l.053.15" fill="#0d85e1" mask="url(#t)" transform="translate(4 16)"/><path d="M21.148 2.657c.022.009.046.007.07.007h.264c-.021.043-.037.089-.066.129-.011-.014-.025-.01-.038-.01h-.3c-.015 0-.031 0-.046-.008a.72.72 0 0 0 .116-.118" fill="#0a74d5" mask="url(#t)" transform="translate(4 16)"/><path d="M12.16 2.641h.717v.022h-.69c-.014 0-.03.006-.042-.008 0-.01.005-.014.014-.014" fill="#0a76d7" mask="url(#t)" transform="translate(4 16)"/><path d="M3.285 1.387c.006.012.004.02-.01.021H1.768c-.012 0-.033.012-.037-.013.01.014.025.01.037.01h1.479c.014 0 .035.008.038-.018" fill="#0d85e2" mask="url(#t)" transform="translate(4 16)"/><path d="M1.733 2.036c.006-.016.019-.006.028-.006l1.49-.001c.012 0 .027-.005.038.008-.012-.006-.025-.004-.037-.004H1.766l-.033.003" fill="#0b7bdb" mask="url(#t)" transform="translate(4 16)"/><path d="M25.167 2.214c.013-.01.03-.006.043-.006h1.404c-.012.008-.026.004-.039.004h-1.364l-.044.002m-5.045 0c.013-.012.029-.006.043-.006h1.404c-.012.008-.026.004-.04.004h-1.363l-.044.002" fill="#0c7fde" mask="url(#t)" transform="translate(4 16)"/><path d="m7.117.84.755.001c.015 0 .031-.005.043.006L7.79.845h-.632c-.014 0-.028.004-.04-.005" fill="#0d8ae5" mask="url(#t)" transform="translate(4 16)"/><path d="M7.918 3.097h.654c-.007.007-.016.005-.024.005h-.609c-.007 0-.015.002-.02-.005" fill="#0d88e4" mask="url(#t)" transform="translate(4 16)"/><path d="M27.777 1.376a.329.329 0 0 1 .117 0z" fill="#0e8be6" mask="url(#t)" transform="translate(4 16)"/><path d="M14.165 1.564a.204.204 0 0 1 .104 0zm1.219-.002a.195.195 0 0 1 .096.002 3.074 3.074 0 0 0-.096-.002" fill="#0d88e4" mask="url(#t)" transform="translate(4 16)"/><path d="M13.27 1.35c.012.028.002.06.005.088-.01-.029-.001-.06-.005-.089" fill="#0e8be6" mask="url(#t)" transform="translate(4 16)"/><path d="m19.802 2.127-.001.037a.167.167 0 0 1 0-.083v.046" fill="#0c82e0" mask="url(#t)" transform="translate(4 16)"/><path d="M12.005 1.481a.094.094 0 0 1 .066 0z" fill="#0d8ae5" mask="url(#t)" transform="translate(4 16)"/><path d="M20.127 2.298c-.009-.011-.004-.024-.005-.036.008.01.003.024.005.036" fill="#0c7fde" mask="url(#t)" transform="translate(4 16)"/><path d="M19.808 1.976c-.001.013.004.026-.005.037.002-.013-.002-.025.005-.037" fill="#0c82e0" mask="url(#t)" transform="translate(4 16)"/><path d="M13.91 1.864c.001-.012-.003-.024.004-.035 0 .012.004.024-.004.035" fill="#0d86e3" mask="url(#t)" transform="translate(4 16)"/><path d="M16.338 2.186v.358c-.014.014-.032.012-.049.012h-.527c-.017 0-.035.002-.049-.012 0-.109 0-.218-.002-.328 0-.03.015-.03.037-.03h.59" fill="#0b7ada" mask="url(#t)" transform="translate(4 16)"/><path d="M15.713 2.881h.625v-.336h-.625z" fill="#0a74d5" mask="url(#t)" transform="translate(4 16)"/><path d="M12.283 2.335c0-.042.003-.084-.001-.126.015.039.002.079.007.119a.043.043 0 0 1-.006.007m-.069-.126c-.021.009-.044.002-.066.004.022-.01.044-.003.066-.004" fill="#0c7fdd" mask="url(#t)" transform="translate(4 16)"/><path d="M9.633 1.857c.006.015.019.011.029.011h.544c.01 0 .023.004.029-.01l.005.014h-.578c-.012 0-.025.004-.035-.007l.006-.008" fill="#0c84e1" mask="url(#t)" transform="translate(4 16)"/><path d="M14.495 2.784V2.53c.014-.015.032-.013.049-.013h.527c.017 0 .035-.002.049.013v.254z" fill="#0a76d7" mask="url(#t)" transform="translate(4 16)"/><path d="M20.63 1.372c-.011.008-.024.003-.036.005.01-.01.023-.004.035-.005m.142.005c-.012-.002-.026.002-.038-.005.013 0 .027-.004.038.005" fill="#0e8be7" mask="url(#t)" transform="translate(4 16)"/><path d="M14.495 2.35v-.254h.59c.026 0 .038.004.037.034-.002.074-.002.147-.002.22-.014.014-.032.012-.05.012h-.526c-.017 0-.035.002-.05-.012" fill="#0b7cdb" mask="url(#t)" transform="translate(4 16)"/><path d="M14.495 2.53h.625v-.18h-.625z" fill="#0b79d9" mask="url(#t)" transform="translate(4 16)"/><path d="M25.817 1.377c-.012-.002-.025.003-.036-.005.012 0 .025-.004.036.005" fill="#0e8be7" mask="url(#t)" transform="translate(4 16)"/></g></svg>