<svg width="36" height="36" fill="none" xmlns="http://www.w3.org/2000/svg"><path d="M18 0c2.837 0 5.52.656 7.907 1.825C31.884 4.753 36 10.895 36 18c0 9.942-8.058 18-18 18-9.94 0-18-8.057-18-18C0 8.06 8.06 0 18 0z" fill="#F2F4F7"/><path d="M29.052 23.238v-6.366h1.707v6.37h-1.707v-.004zm-2.995 0v-6.366h1.665v6.366h-1.665zm-11.527-4.91a1.67 1.67 0 0 0-1.664 1.664c0 .914.75 1.664 1.664 1.664a1.67 1.67 0 0 0 1.664-1.664c0-.919-.75-1.664-1.664-1.664zm0 5.075a3.359 3.359 0 0 1-3.372-3.372 3.36 3.36 0 0 1 3.372-3.372c1.872 0 3.371 1.5 3.371 3.372a3.36 3.36 0 0 1-3.371 3.372zm7.406-1.747h-.624c-.251-.043-.498-.043-.667-.208-.126-.165-.165-.373-.165-.75v-.832c0-.958.624-1.417 1.538-1.417.915 0 1.539.706 1.539 1.664-.04.876-.706 1.543-1.62 1.543zm0-4.871h-.251c-.46.043-.876.165-1.248.373v-2.206h-1.665v6.284c0 1.915 1.04 2.162 2.163 2.162h1.04c1.872 0 3.246-1.417 3.246-3.29-.039-1.906-1.37-3.323-3.285-3.323zM9.702 23.277c-.75 0-2.041.082-2.665-.46-.542-.459-.707-.996-.707-1.664v-2.54H5V16.95h1.33v-1.834h1.708v1.873h2.331v1.668H8.038v1.499c0 .581-.126 1.539.75 1.582h1.625v1.539h-.71zm21.266-9.448c-.165-.58-.79-.957-1.374-.788-.416.125-.624.416-.832.667-.165.208-.29.373-.499.46-.251.043-.416-.044-.667-.126-.29-.126-.624-.29-1.04-.165-.58.126-.958.75-.832 1.33v.087c.164.58.788.958 1.373.789.46-.126.668-.416.833-.667.164-.209.25-.373.498-.46.251-.043.416.043.667.126.29.125.581.29 1.04.164.581-.125.958-.75.832-1.33.044-.043.044-.043 0-.087z" fill="#1F1F1F"/></svg>