<svg width="36" height="36" fill="none" xmlns="http://www.w3.org/2000/svg"><path d="M18 0c2.837 0 5.52.656 7.907 1.825C31.884 4.753 36 10.895 36 18c0 9.942-8.058 18-18 18-9.94 0-18-8.057-18-18C0 8.06 8.06 0 18 0z" fill="#F2F4F7"/><path d="M6.304 17.819C6.304 14.604 11.54 12 18.003 12 24.46 12 29.7 14.604 29.7 17.819s-5.235 5.818-11.698 5.818c-6.462 0-11.697-2.608-11.697-5.818zm11.698 4.633c5.65 0 10.233-2.076 10.233-4.633s-4.582-4.634-10.233-4.634c-5.65 0-10.232 2.072-10.232 4.634-.005 2.557 4.577 4.633 10.232 4.633z" stroke="#000" stroke-width=".04"/><path fill-rule="evenodd" clip-rule="evenodd" d="M6.836 17.814c0-3.01 5.007-5.445 11.185-5.445 6.178 0 11.184 2.44 11.184 5.445 0 3.01-5.006 5.45-11.184 5.45-6.178-.005-11.185-2.44-11.185-5.45zm.434 0c0-2.809 4.816-5.086 10.751-5.086 5.94 0 10.75 2.277 10.75 5.086S23.957 22.9 18.022 22.9c-5.94 0-10.75-2.277-10.75-5.086zm1.055-3.266c-1.274.933-2.02 2.057-2.02 3.27 0 1.214.746 2.338 2.02 3.271-.145-.107-.28-.195-.41-.307 0 0-.201-.16-.225-.173a16.562 16.562 0 0 0-.42-.317c-.032-.014-.289-.15-.298-.15a2.54 2.54 0 0 1-.15-.051l-.149-.051c-.098-.024-.485-.014-.55.018a.665.665 0 0 0-.15.182c-.046.07-.056.22-.135.252-.019.005-.196.15-.317.052-.084-.066-.229-.206-.234-.201-.028-.028-.051-.042-.084-.065.01-.014-.126-.168-.107-.21.07-.038.033-.131.023-.192-.004-.032-.06-.079-.065-.098a.527.527 0 0 1 .019-.219c.014-.028.06-.08.093-.075.033.005.107.131.154.178 0 0 .098.06.135.093.019.014.098-.065.103-.07-.028-.023-.014-.037-.037-.126-.005-.01.023-.047.023-.056.01.005.051-.01.06 0a.18.18 0 0 1 .07.084c.01-.01.015-.019.015-.023h.018c.005-.024-.014-.06 0-.084.028-.052.13-.033.098-.15 0-.004-.032-.037-.032-.05a.196.196 0 0 1-.02-.066c.015-.136.094-.22-.05-.299-.028-.018-.056.005-.084-.018-.033-.024-.056-.09-.103-.098-.093-.029-.34-.033-.42.018-.075.052-.112.15-.154.206-.117.158.07.368.028.387-.103.046-.075.028-.257-.187-.032-.042-.13-.023-.135-.023-.033-.01-.07.004-.103 0-.093-.028-.149-.159-.2-.233a.603.603 0 0 1-.042-.075.474.474 0 0 1-.028-.098c-.005-.019-.005-.042-.01-.07a1.45 1.45 0 0 1-.004-.252l-.005-.028c-.01-.005-.037-.047-.051-.052-.024-.009-.038-.041-.066-.05-.028-.005-.056-.122-.065-.169-.01-.042 0-.13 0-.168.005 0 .037-.084.037-.084.042-.084.22-.345.3-.415.004-.005.148-.112.181-.168.014-.028 0-.051.019-.084.004-.01.046-.033.051-.051.019-.084-.028-.159-.019-.22 0 0 .136-.172.21-.219.005-.005.014-.019.014-.019.005-.032.042-.084.042-.13 0-.07-.144-.15-.107-.266a.2.2 0 0 0-.005-.117.398.398 0 0 1 .014-.182.787.787 0 0 1 .168-.22 1.71 1.71 0 0 1 .234-.181s.224-.135.266-.15c0 0 1.24-.42 1.885-.555a2.94 2.94 0 0 0 1.008-.406l.018-.009v.019h.005zm-3.262 1.511c.07.056.159-.102.182-.149.014-.033 0-.056.019-.084 0-.005.135-.121.019-.098-.098.014-.248.313-.22.332zm.299.383c-.023.01-.06.093.019.065.023-.004.06-.088-.019-.065zm-.57-.098c.01.014-.009.033 0 .051.01.02.043.038.066.033.023-.005.028-.014.033-.033.004-.018-.028-.116-.033-.135-.005-.019-.005-.042-.019-.051-.014-.01-.042-.019-.051 0-.005.018-.005.037-.019.051l.024.084zm.962 3.248c-.126.088 0 .21 0 .21.205 0 .13-.299 0-.21zm-.541.63c.023 0 .07-.122.116-.136.047-.014.154.042.234 0 .023-.009.023-.056.037-.074.014-.019.047.004.065-.028.028-.052-.037-.234-.07-.248-.037-.014-.074.01-.079.028-.005.019.042.168.033.187-.01.019-.042.033-.07.037-.028.005-.112.01-.131-.037-.023-.051.028-.121.019-.168-.014-.047-.098 0-.136-.06-.009-.015-.018-.052-.018-.052-.019-.019-.01-.07-.061-.051-.051.014-.019.126-.005.182.005.023.061.046.066.065.023.084-.052.15-.052.22.005.07.028.135.052.135zm.69-1.26c-.051.042.089.597.028.835-.004.014-.08.075-.08.08-.018.065.094.004.108 0 .052-.029.187-.047.243-.136.089-.14-.051-.55-.08-.593-.027-.042-.083-.032-.107-.079-.023-.051-.014-.098-.028-.107-.023-.01-.032-.042-.084 0zm.313.144c-.005.02.163.5.163.546-.004.047-.065.066-.074.112-.01.047.074.117.102.117.028 0 .065-.159.075-.159.121-.032.247.075.28.019.065-.098-.262-.504-.308-.504-.047 0-.112-.06-.13-.08-.02-.018-.02-.055-.038-.07-.019-.018-.065 0-.07.02zm-.686-1.05a.101.101 0 0 1 .08.02c.018.009.023.046.041.06.056.037.094.154.145.191.098.08.191-.065.308.028a.383.383 0 0 1 .135.233c.15.028.07-.214-.014-.27-.037-.023-.158-.047-.182-.08-.023-.032.01-.074 0-.102-.01-.028-.042-.037-.07-.047-.023-.01-.182 0-.252-.056-.032-.023-.046-.107-.08-.121-.055-.023-.162-.08-.181 0-.023.08.07.145.07.145zm-.957.971a.942.942 0 0 0 .159-.107c0-.173.084-.154.117-.15.037.005.028-.032.065-.065.037-.032.103-.098.135-.116a.406.406 0 0 1 .182-.02c.038.015.192.052.243.066.051.014.117.084.15.103.037.018.065.093.102.117.019.014.051.037.084.032.075-.01-.005-.08.019-.098-.042-.042-.257-.28-.285-.285-.033-.004-.075.033-.098.02-.023-.015-.005-.076-.019-.099-.042-.084-.074-.051-.149-.102-.005-.005-.051-.024-.065-.033-.047-.033-.089-.103-.066-.117.019-.014.005-.032.033-.032.033 0 .051.004.065.018.014.01.019.042.033.052.047.028.093.05.135.084.08.065.173.135.266.181 0 .005.019.015.019.02.126.023.112-.075.047-.122a1.04 1.04 0 0 0-.15-.066c0-.023.01-.06 0-.083-.004-.01-.028-.02-.032-.033-.108-.005-.173-.005-.234-.051-.023-.02-.037-.09-.065-.098-.042-.02-.103.009-.15 0l-.018-.033c-.028-.019-.051 0-.084-.019-.028-.014-.042-.065-.065-.084-.056-.037-.122-.042-.168-.084a.097.097 0 0 1-.033-.098c.005-.018.051-.051.084-.032.033.018.042.07.065.084.019.009.052 0 .066.018.023.019.037.089.065.098h.033c.009-.004.042-.046.051-.051.093-.028.205.028.299 0 .074-.023.051-.084.084-.135.05-.075.28-.122.317-.117.037 0 .07.08.084.084.028.005.037.023.051-.019.014-.037-.13-.289-.084-.298.047-.01.047.079.103.084.15.014.187-.201.15-.252-.038-.052-.295.046-.323-.131-.004-.042.028-.051.038-.07.014-.019 0-.084.018-.117.014-.028.089-.037.098-.065.01-.028.014-.07 0-.084-.014-.014-.037-.01-.051 0-.014.01 0 .06-.033.065-.037.005-.06-.004-.065-.032-.005-.028.019-.145.019-.168 0-.024.004-.06-.02-.084-.022-.019-.036.004-.05.018-.014.01-.014.061-.033.066-.135.042-.145-.056-.168-.066-.023-.014-.037-.009-.051 0-.01.01-.075.103-.117.117-.014.005-.028 0-.051-.019-.019-.018-.038-.079-.066-.098-.028-.023-.046-.023-.065-.018-.019.01-.135.168-.22.233-.032.023-.111.01-.158.056-.159.15-.145.313-.075.378.005-.014.047-.01.052-.019.014-.028-.01-.056 0-.084 0-.009.014-.032.032-.032.019 0 .033-.01.052 0 .028.009.06.046.074.06.019.014.01.033.024.042.014.01.065-.023.098 0 .037.024.06.084.098.103.07.028.14.014.2.051.028.019.028.061.052.084a.384.384 0 0 0-.266.117c-.01.005-.024.047-.033.051-.117.038-.364-.032-.383-.084-.018-.046.01-.163 0-.182-.009-.018-.032-.028-.05-.018-.015.009-.024.042-.034.051a.597.597 0 0 0-.149.135c-.028.042-.019.07-.051.103-.024.019-.047.051-.066.051l-.028.014c-.065.014-.224.243-.256.369l-.005.023c0 .014 0 .033.01.047a.489.489 0 0 0 .079.098c.014.005.037-.005.056-.033.018-.028-.01-.07 0-.098.032-.098.13-.056.21-.084.042-.018.07-.252.107-.266.037-.014.075.019.084.052.01.032-.019.12-.051.168-.028.042-.103.074-.136.116-.023.033-.018.075-.05.098-.024.019-.052.01-.066.033-.024.033-.024.098-.005.117.019.018.168.037.191.065.005.005.042.046.024.07-.019.018-.196.01-.229.023-.033.014-.056.042-.06.06a.725.725 0 0 0-.01.127c0 .042.019.21.056.257l.014.023c.042.075.042.159.121.191.07.014.126-.042.126-.042zm1.316-2.874c-.084.023-.144.15-.112.177.038.024.08-.046.136-.042.05.005.093.126.112.136.056.027.14-.01.177.023.051.042.06.186.135.2.075.014.173-.163.177-.223.005-.056-.079-.15-.135-.178-.065-.037-.382-.126-.49-.093zm.196-.229c-.042.01-.2.103-.13.136.228-.038.392-.047.494-.014.056.018.126.116.182.144.098.042.163-.233.06-.285-.195-.083-.568.01-.606.02zm-1.208 1.428c.032.01.07-.023.084-.07.009-.047-.01-.089-.042-.098-.033-.01-.07.023-.084.07-.01.047.009.089.042.098zm1.24-.57c-.21.066-.074.323.052.313.126 0 .257-.415-.051-.312zm-.76-1.138c-.046.005-.317.107-.392.317-.009.02-.046.01-.065.052a.739.739 0 0 0 .028.354c.019.038.06.066.112.056.047-.009.126-.149.22-.111.023.009.037.074.037.074.014.005.032.014.056 0 .018-.014-.028-.242 0-.331.023-.07.172-.117.2-.182.024-.051.033-.08.056-.15a.212.212 0 0 1 .075-.083c.023-.024.051-.075.037-.08-.018-.004-.028-.032-.037-.037-.145-.051-.21.08-.233.098-.024.014-.07.019-.094.023zm.523.075c.159.037.387.06.527 0 .196-.08.294-.159.471-.275.02 0 .257-.061.276-.061.116-.08.312-.168.275-.285-.294-.037-.938.262-.957.285-.037 0-.177.06-.233.06-.158.02-.41.02-.41.215-.01.024.032.06.05.06zm21.678 5.455c1.349-.948 2.142-2.105 2.142-3.355s-.793-2.408-2.142-3.355l.14.079c.192.13.542.303 1.008.397.644.135 1.885.555 1.885.555.042.019.266.15.266.15s.145.097.234.181a.788.788 0 0 1 .168.22c.014.041.028.14.014.181a.168.168 0 0 0-.005.117c.033.117-.107.196-.107.266 0 .047.032.093.042.13 0 0 .009.02.014.02.074.046.21.219.21.219.014.06-.038.135-.02.219.006.014.048.037.052.051.014.033 0 .056.019.084.033.056.182.164.182.168.075.07.252.332.299.416 0 0 .032.084.037.084 0 .037.01.126 0 .168-.01.046-.042.158-.066.168-.027.004-.041.041-.065.05-.01.005-.042.047-.051.052v.028c.01.084.005.2-.005.252-.005.023-.005.051-.01.07 0 0-.013.075-.027.098a.598.598 0 0 1-.042.075c-.051.075-.107.21-.2.233-.033.01-.07-.005-.099 0-.01 0-.102-.014-.14.023-.182.215-.154.234-.256.187-.042-.019.116-.215.028-.387-.033-.06-.075-.159-.154-.206-.075-.05-.327-.042-.42-.018-.047.014-.066.08-.098.098-.028.018-.056 0-.084.018-.145.08-.066.168-.052.3.005.018-.014.074-.018.064-.005.01-.033.047-.033.052-.028.116.07.098.098.15.014.022-.005.06 0 .083h.019c.004.01.004.014.01.019a.42.42 0 0 1 .078-.08c.01-.004.052.01.061 0-.005.01.023.047.023.056-.023.084-.009.103-.042.112.005.014.084.094.103.08.037-.028.135-.094.135-.094.047-.046.126-.172.159-.177.033-.005.08.047.093.075a.51.51 0 0 1 .019.219c-.005.019-.06.07-.065.098-.01.065-.047.159.018.182.028.051-.112.205-.102.22a1.308 1.308 0 0 0-.084.065c-.005-.005-.154.135-.234.2-.12.098-.298-.042-.317-.051-.08-.033-.089-.182-.135-.252-.019-.028-.108-.163-.15-.182-.065-.033-.452-.037-.55-.019-.014.005-.117.042-.15.052a2.682 2.682 0 0 1-.149.051c-.01.005-.27.14-.303.15-.014.004-.821.634-.821.634a7.016 7.016 0 0 1-.355.261v-.005h-.005zm3.169-5.45c-.117-.024.014.098.018.098.019.028 0 .05.019.084.023.046.117.205.182.149.023-.014-.126-.313-.22-.331zm-.103.788c.08.028.042-.06.019-.065-.08-.028-.042.056-.019.065zm.602-.252c-.014-.014-.01-.033-.019-.051-.004-.019-.037-.01-.051 0-.014.01-.014.032-.019.051-.004.019-.037.112-.032.135.004.02.009.033.032.033.024.005.061-.018.066-.033.009-.018-.01-.037 0-.05l.023-.085zm-.383 3.831c0-.07-.07-.135-.051-.22.005-.018.06-.041.065-.065.014-.056.047-.168-.004-.182-.052-.014-.042.033-.061.052 0 0-.01.037-.019.051-.037.06-.121.019-.135.06-.014.047.037.117.019.169-.024.046-.108.042-.131.037-.028-.005-.06-.019-.07-.037-.01-.019.042-.164.037-.187-.004-.019-.042-.042-.079-.028-.037.014-.098.191-.07.247.019.033.051.01.065.028.014.019.014.061.038.075.079.042.186-.014.233 0 .047.01.093.135.117.135.018-.004.042-.065.046-.135zm.714-1.036c.08-.032.084-.116.122-.191a.098.098 0 0 1 .014-.024c.037-.05.056-.214.056-.256a.833.833 0 0 0-.01-.13c-.004-.02-.028-.047-.06-.062-.033-.014-.21 0-.23-.023-.018-.018.02-.06.024-.07.024-.028.168-.046.192-.065.018-.019.018-.084-.005-.117-.014-.023-.047-.014-.065-.032-.028-.024-.028-.07-.052-.098-.032-.042-.107-.075-.135-.117-.033-.047-.06-.135-.051-.168.009-.033.046-.06.084-.051.037.014.065.247.107.266.075.032.177-.01.21.084.01.032-.019.074 0 .098.018.028.037.037.056.032.014-.004.056-.065.08-.098.009-.01.004-.028.009-.046l-.005-.024c-.033-.126-.191-.35-.257-.368l-.028-.014c-.018 0-.042-.028-.065-.052-.033-.032-.023-.06-.051-.102a.596.596 0 0 0-.15-.136c-.01-.004-.018-.042-.032-.051-.014-.01-.042 0-.052.019-.009.018.019.14 0 .182-.018.051-.266.121-.382.084-.01-.005-.028-.042-.033-.052a.393.393 0 0 0-.266-.116c.023-.024.023-.066.051-.084.061-.038.131-.024.201-.052.037-.018.065-.079.098-.102.037-.024.089.009.098 0 .014-.01.005-.028.023-.042.019-.014.047-.047.075-.06.019-.01.033 0 .051 0 .019.004.033.022.033.032.01.028-.014.056 0 .084.005.009.047 0 .051.018.07-.065.084-.228-.074-.378-.047-.046-.126-.032-.159-.056-.084-.065-.196-.228-.22-.233-.018-.01-.037-.005-.065.019-.028.023-.046.084-.065.098-.019.018-.037.018-.051.018-.042-.014-.108-.107-.117-.116-.01-.01-.023-.014-.051 0-.024.014-.033.107-.168.065-.019-.005-.019-.056-.033-.065-.014-.014-.028-.038-.051-.019-.024.019-.019.06-.019.084 0 .023.028.14.019.168-.01.028-.033.037-.066.033-.037-.005-.018-.06-.032-.066-.014-.009-.038-.014-.052 0-.014.014-.009.056 0 .084.01.028.09.042.098.066.02.032.005.098.02.116.013.02.046.028.036.07-.032.178-.289.08-.322.131-.037.051 0 .266.15.252.056-.005.051-.093.098-.084.046.01-.098.261-.084.299.014.037.018.023.051.018.014-.004.047-.079.084-.084.037-.004.266.042.317.117.033.047.01.112.084.135.094.028.206-.028.299 0 .01 0 .037.047.051.052h.033c.028-.01.042-.08.065-.098.019-.014.047-.005.066-.019.023-.014.032-.065.065-.084.033-.019.08.019.084.033a.106.106 0 0 1-.033.098c-.046.042-.112.046-.168.084-.023.014-.042.07-.065.084-.033.018-.056 0-.084.018l-.019.033c-.046.01-.107-.019-.149 0-.028.01-.042.08-.065.098-.061.047-.126.047-.234.051-.004.019-.032.024-.032.033-.01.023 0 .06 0 .084a.849.849 0 0 0-.15.065c-.065.047-.079.145.047.122 0-.005.023-.015.023-.02.098-.046.187-.12.266-.181.042-.033.089-.056.136-.084.014-.01.018-.042.032-.051a.135.135 0 0 1 .066-.02c.032 0 .014.02.032.034.019.014-.018.084-.065.116a.808.808 0 0 1-.065.033c-.075.051-.108.014-.15.103-.014.023.01.084-.018.098-.024.014-.066-.024-.103-.014-.023.004-.243.242-.285.284.024.019-.06.089.02.098.032.005.06-.018.083-.033.037-.023.065-.098.103-.116.032-.019.098-.089.149-.103.051-.014.21-.051.243-.065a.34.34 0 0 1 .182.018c.032.02.093.084.135.117.037.033.033.07.065.066.033-.005.117-.024.117.149 0 .014.154.103.159.107a.11.11 0 0 0 .13.042zm-.387-1.801c-.01-.047-.047-.075-.084-.07-.033.01-.051.051-.042.098.01.047.047.075.084.07.033-.01.051-.051.042-.098zm-1.451 1.83c-.019.013-.019.05-.038.07-.018.018-.084.078-.13.078-.047 0-.373.406-.308.504.037.056.159-.051.28-.018.01.004.047.158.075.158.027 0 .107-.07.102-.116-.01-.047-.07-.066-.075-.112-.004-.047.169-.528.164-.546-.005-.014-.052-.033-.07-.019zm.303-.122c-.014.01 0 .056-.028.107-.023.051-.08.037-.107.08-.028.041-.168.452-.08.592.056.089.192.107.243.135.014.005.126.066.107 0 0-.004-.074-.065-.079-.079-.065-.233.08-.793.028-.835-.056-.042-.065-.01-.084 0zm.527-1.05c-.018-.08-.13-.023-.182 0-.032.014-.05.098-.079.121-.075.056-.229.047-.252.056-.023.01-.06.019-.07.047-.01.028.023.065 0 .103-.023.032-.145.056-.182.079-.08.056-.163.298-.014.27 0-.004.019-.135.136-.233.116-.098.21.052.307-.028.047-.037.09-.154.145-.191.019-.014.023-.051.042-.06a.101.101 0 0 1 .08-.02c-.005 0 .088-.065.07-.144zm-.713-.812c.126.005.26-.247.05-.313-.312-.107-.177.308-.05.313zm-.21-.859c-.056.029-.136.122-.136.178.005.056.103.238.178.224.074-.014.079-.159.135-.2.042-.034.121.008.177-.024.019-.01.056-.13.112-.136.051-.004.098.066.135.047.033-.032-.028-.154-.112-.177-.107-.033-.424.056-.49.088zm-.318-.335c-.102.046-.037.326.06.284.057-.028.127-.126.183-.145.103-.032.27-.023.494.014.07-.032-.093-.126-.13-.135-.033-.01-.406-.102-.607-.018zm1.25-.29c-.023-.018-.088-.144-.233-.098-.009.005-.018.033-.037.038-.014.004.014.06.037.079.024.019.066.06.07.084a.918.918 0 0 0 .056.15c.033.065.182.116.201.181.028.089-.019.317 0 .331.019.014.042.005.056 0 0 0 .014-.065.037-.074.098-.037.173.103.22.112.046.01.088-.019.112-.056a.738.738 0 0 0 .028-.355c-.019-.042-.061-.028-.066-.051-.074-.21-.345-.313-.392-.317-.023 0-.07-.005-.088-.024zm-.377.047c0-.196-.257-.196-.41-.215-.062 0-.197-.06-.234-.06-.019-.02-.663-.322-.957-.285-.037.117.159.205.276.285.018 0 .256.06.275.06.177.117.275.196.471.276.136.06.369.037.527 0 .01-.005.052-.042.052-.061zm.07 4.139s.126-.122 0-.21c-.13-.089-.206.21 0 .21zM12.8 16.204c.345 0 .672.005.924.028h-.005c.056.01.154.06.205.108l.089.079.01-.117c.004-.084.07-.317.116-.392l.056-.088h-.103l-3.033.004h-.065l.005.06c.004.048-.024.248-.08.412l-.065.196.159-.131a.471.471 0 0 1 .2-.107c.276-.029.49-.047.994-.047v3.247c0 .117-.103.196-.103.196l-.153.117.19-.014c.08-.005.285-.019.365-.019.065 0 .233.01.354.019l.154.01-.107-.108c-.028-.028-.098-.117-.098-.196l-.01-3.257zm3.07 3.602c.63 0 1.19-.214 1.577-.602.383-.382.583-.9.583-1.507 0-.555-.172-1.012-.518-1.357-.382-.383-.98-.602-1.628-.602-1.237 0-2.1.84-2.1 2.043 0 .588.191 1.088.555 1.451.374.374.906.574 1.53.574zm-1.097-3.252a1.415 1.415 0 0 1 1.102-.518c.4 0 .75.136 1.008.392.321.322.49.812.49 1.419 0 1.008-.57 1.66-1.447 1.66-.397 0-.728-.144-.994-.424a1.923 1.923 0 0 1-.49-1.339c-.005-.457.056-.83.331-1.19zm3.533 3.168h1.213c.536 0 1.204 0 1.703-.438.48-.425.714-.98.714-1.685 0-.597-.22-1.105-.611-1.432-.43-.36-.92-.355-1.442-.35h-1.708l.084.098c.047.056.126.168.126.229v3.233c0 .093-.089.21-.121.247l-.094.098h.136zm.68-3.57c.099 0 .14-.004.234-.004.14-.005.27-.01.406-.01.64 0 1.055.117 1.307.37.238.237.35.61.35 1.18 0 .77-.257 1.288-.761 1.544-.397.201-.984.164-1.456.136l-.075-.005v-3.21h-.004zm3.15.332c.043.14-.041.462-.041.462s.05-.023.074-.056c.052-.065.21-.49.247-.588a.515.515 0 0 0-.004-.354c-.056-.131-.28-.187-.415-.127-.201.094-.224.341-.122.44.075.074.224.088.262.223zm.593 2.44a2.314 2.314 0 0 1-.103.486l-.009.032.023.024c.21.233.686.34.943.34.42 0 .798-.144 1.06-.4a1.27 1.27 0 0 0 .363-.925c0-.653-.509-.854-.952-1.031-.42-.168-.784-.313-.784-.765a.57.57 0 0 1 .164-.41.66.66 0 0 1 .47-.183c.295 0 .519.159.63.448l.015.037h.135l.014-.042.019-.07c.037-.13.07-.256.126-.378l.018-.037-.032-.028c-.233-.21-.579-.28-.826-.28-.78 0-1.283.444-1.283 1.125 0 .7.513.9.96 1.078.412.163.766.303.766.756 0 .424-.313.755-.71.755-.363 0-.606-.158-.844-.55l-.018-.028h-.14l-.005.046z" fill="#000"/></svg>