<svg width="36" height="36" fill="none" xmlns="http://www.w3.org/2000/svg"><path d="M18 0c2.837 0 5.52.656 7.907 1.825C31.884 4.753 36 10.895 36 18c0 9.942-8.058 18-18 18-9.94 0-18-8.057-18-18C0 8.06 8.06 0 18 0z" fill="#F2F4F7"/><path d="m5.852 19.16 1.782 1.785 1.31-1.31-1.784-1.783H5.852v1.308z" fill="#0094CE"/><path d="M5.575 16.266a.918.918 0 0 1 .277.657v.929H7.16l-1.582-1.583-.003-.003z" fill="#009DC6"/><path d="M4.923 17.852a.918.918 0 0 1-.647-.267l1.576 1.576v-1.31h-.93z" fill="#004282"/><path d="M4.276 17.585a.926.926 0 1 1 1.576-.662v.929h-.93a.919.919 0 0 1-.646-.267z" fill="#00406D"/><path d="M4.928 16a.92.92 0 0 1 .645.265l1.587 1.587h1.786V16H4.928z" fill="#1FC0DA"/><path d="M4 16.928v4.017h1.852v-1.784l-1.576-1.576A.936.936 0 0 1 4 16.93z" fill="#004B8D"/><path d="m26.328 20.28-1.416-1.402v.848l.568.554h.848z" fill="#231F20"/><path d="m28.255 20.28.433-.802h2.129l.436.802H32l-1.763-3.273a.547.547 0 0 0-.965 0s-.962 1.789-1.463 2.717l-1.05-1.05a1.002 1.002 0 0 0 .512-.895c0-.668-.494-1.059-1.105-1.067h-1.833a.943.943 0 0 0-.948.941v2.114c0 .308.16.512.46.513h.146v-2.64a.334.334 0 0 1 .329-.326h1.882a.47.47 0 0 1 0 .937h-.716l2.028 2.029h.74zm.739-1.394.76-1.449.763 1.449h-1.523zm-15.362-.391c0 .917.72 1.844 2.095 1.844 1.376 0 2.096-.927 2.096-1.844 0-.916-.72-1.844-2.096-1.844-1.376 0-2.095.928-2.095 1.844zm.635 0c0-.615.382-1.272 1.46-1.272 1.078 0 1.461.657 1.461 1.272s-.382 1.272-1.46 1.272c-1.08 0-1.46-.657-1.46-1.272zm-3.948-1.784c-.441 0-.446.593 0 .602h1.202v2.967h.677v-2.96H13.4a.303.303 0 1 0 0-.604l-3.081-.005zm11.563.252-1.345 2.146-1.344-2.146c-.105-.167-.2-.246-.462-.246-.26 0-.463.106-.477.365v3.198h.636v-2.593l1.303 2.093a.409.409 0 0 0 .693 0l1.304-2.093v2.593h.636v-3.19c0-.228-.221-.373-.477-.373s-.357.08-.462.246" fill="#231F20"/></svg>