<svg width="36" height="36" fill="none" xmlns="http://www.w3.org/2000/svg"><path d="M18 0c2.837 0 5.52.656 7.907 1.825C31.884 4.753 36 10.895 36 18c0 9.942-8.058 18-18 18-9.94 0-18-8.057-18-18C0 8.06 8.06 0 18 0z" fill="#F2F4F7"/><path fill-rule="evenodd" clip-rule="evenodd" d="M11.93 11v1.463c0 .667-.998 1.102-2.076 1.543-.833.34-2.075.84-2.595 1.664.19-.585.422-1.285.61-1.87.205-.628.86-.966 1.86-1.372 1.001-.406 2.063-.74 2.201-1.428" fill="#EC008C"/><path fill-rule="evenodd" clip-rule="evenodd" d="M4 14.63c.71-.074 1.625-.17 1.82-.192.63-.066.972.614 1.395 1.361.405.715.877 1.4 1.727 1.568-1.24-.003-1.601-.008-2.362-.001-.798-.016-1.11-.556-1.456-1.278-.347-.722-.614-1.453-1.124-1.458" fill="#EC008C"/><path fill-rule="evenodd" clip-rule="evenodd" d="M11.93 15.843v2.25c0 1.02-1.516 1.55-2.933 2.056-1.416.505-3.158 1.002-3.878 2.11.33-1.004.667-1.99.974-2.999.348-1.152 1.701-1.448 3.238-1.893 1.537-.445 2.428-.71 2.598-1.524z" fill="#EC008C"/><path fill-rule="evenodd" clip-rule="evenodd" d="M10.136 13.982c.909-.094 2.231-.23 2.466-.256.807-.085 1.514.68 2.11 1.671.598.991 1.434 1.871 2.592 1.97l-3.658-.001c-1.137-.023-1.323-.949-1.716-1.784-.393-.836-.966-1.526-1.794-1.6" fill="#EC008C"/><path d="M14.095 19.171h-1.05v-.586h2.841v.586h-1.09v2.709h-.7v-2.71zm1.103 2.709 1.365-3.295h.808l1.364 3.295h-.823l-.318-.763H16.34l-.319.763h-.823zm1.77-2.503-.47 1.153h.938l-.468-1.154zm2.487-.792v1.974c0 .158.013.28.039.368a.5.5 0 0 0 .132.223c.14.136.333.203.58.203a.982.982 0 0 0 .411-.08.473.473 0 0 0 .244-.216c.047-.094.07-.26.07-.498v-1.974h.7v1.94c0 .256-.026.468-.08.635a.882.882 0 0 1-.25.403c-.26.228-.628.343-1.108.343-.508 0-.88-.112-1.115-.335a.95.95 0 0 1-.253-.392 2.027 2.027 0 0 1-.07-.603v-1.991h.7zm3.366 2.042v1.253h-.7v-3.295h1.608c.462 0 .785.058.968.176.124.08.22.183.288.312.068.13.103.273.103.429 0 .314-.08.555-.239.725a.946.946 0 0 1-.391.236c.13.043.226.09.292.143a.7.7 0 0 1 .18.226c.039.078.067.153.085.226a2.5 2.5 0 0 1 .042.325c.019.236.046.402.08.497h-.787a2.83 2.83 0 0 1-.073-.468 1.332 1.332 0 0 0-.105-.444.549.549 0 0 0-.23-.24c-.128-.069-.313-.102-.555-.1h-.566zm0-.586h.985c.165 0 .281-.024.35-.073.105-.074.158-.201.158-.381 0-.201-.08-.33-.237-.387a.91.91 0 0 0-.271-.029h-.985v.87zm4.227-1.478c.33 0 .62.056.87.17.294.133.5.358.617.672.093.248.14.54.14.874 0 .335-.056.625-.17.871a1.187 1.187 0 0 1-.65.618 2.04 2.04 0 0 1-.756.13c-.37 0-.693-.069-.968-.207a1.167 1.167 0 0 1-.528-.544c-.121-.247-.182-.547-.182-.9 0-.627.156-1.074.468-1.341.264-.225.65-.34 1.16-.343zm.005.556c-.324 0-.555.105-.695.316-.11.164-.164.428-.164.79 0 .387.069.67.207.853.137.179.355.268.655.268.289 0 .503-.091.64-.271.138-.182.207-.462.207-.842 0-.344-.056-.607-.167-.789-.13-.215-.358-.324-.683-.325zm2.739.344v2.417h-.67v-3.295h.899l1.31 2.454v-2.454H32v3.295h-.864l-1.344-2.417z" fill="#656263"/><path d="M14.323 23.624v.518h-.228v-1.425h.63c.11 0 .192.01.245.029a.38.38 0 0 1 .207.172.5.5 0 0 1 .057.248c0 .161-.05.284-.15.367a.35.35 0 0 1-.151.07 1.186 1.186 0 0 1-.25.02h-.36zm0-.182h.375c.106 0 .18-.02.221-.061.048-.047.071-.12.071-.22a.28.28 0 0 0-.072-.204c-.038-.04-.114-.059-.23-.059h-.365v.544zm1.765-.746c.27 0 .457.08.564.243.078.119.117.284.117.494 0 .258-.065.446-.195.563-.125.111-.293.167-.507.167-.243 0-.42-.07-.532-.208a.624.624 0 0 1-.107-.225 1.094 1.094 0 0 1 .002-.596.61.61 0 0 1 .115-.225.561.561 0 0 1 .224-.16.908.908 0 0 1 .32-.053zm-.002.181c-.197 0-.329.069-.395.206a.805.805 0 0 0-.06.345c0 .176.029.309.088.397.07.104.191.156.364.156.197 0 .328-.07.392-.208a.837.837 0 0 0 .052-.334c0-.18-.026-.31-.078-.392-.07-.112-.19-.168-.363-.17zm.892-.16h.228v.829c0 .089.005.157.015.205.01.047.027.085.052.112.066.066.169.099.309.097h.306v.182h-.351c-.11 0-.2-.01-.265-.032a.404.404 0 0 1-.267-.274 1.01 1.01 0 0 1-.027-.263v-.856zm1.112 1.425v-.182h.616a.428.428 0 0 0 .204-.036c.062-.036.093-.097.093-.184 0-.111-.04-.18-.122-.206a.853.853 0 0 0-.218-.018h-.119c-.164 0-.282-.022-.353-.067-.101-.065-.152-.166-.152-.304 0-.092.023-.172.07-.243a.362.362 0 0 1 .175-.144.897.897 0 0 1 .307-.041h.587v.181h-.587a.848.848 0 0 0-.143.01.234.234 0 0 0-.085.031c-.055.035-.082.093-.082.173 0 .071.024.122.072.153a.46.46 0 0 0 .238.046h.086c.122 0 .212.005.272.016a.35.35 0 0 1 .149.061.349.349 0 0 1 .109.144c.026.06.039.128.039.2 0 .169-.066.287-.198.356a.46.46 0 0 1-.139.042 1.66 1.66 0 0 1-.232.012h-.587zm1.583-1.425v1.425h-.228v-1.425h.228zm0 .7.69-.7h.278l-.723.687.765.738h-.306l-.704-.726zm1.088.725.59-1.425h.3l.566 1.425h-.242l-.145-.373h-.675l-.152.373h-.242zm.736-1.255-.274.7h.534l-.26-.7zm2.567-.17v.181h-.416a.791.791 0 0 0-.178.016.29.29 0 0 0-.113.055.338.338 0 0 0-.103.14.741.741 0 0 0-.043.223h.853v.182h-.853a.535.535 0 0 0 .069.279c.035.061.08.104.133.13a.54.54 0 0 0 .224.037h.427v.182h-.47a.87.87 0 0 1-.29-.04c-.134-.05-.232-.156-.294-.32a.917.917 0 0 1-.05-.325.92.92 0 0 1 .081-.418c.06-.117.138-.2.231-.25a.852.852 0 0 1 .39-.072h.402zm.505.288v1.137h-.221v-1.425h.271l.727 1.14v-1.14h.221v1.425h-.264l-.734-1.137zm2.357-.288v.181h-.415a.793.793 0 0 0-.178.016.29.29 0 0 0-.113.055.338.338 0 0 0-.103.14.738.738 0 0 0-.043.223h.852v.182h-.852a.534.534 0 0 0 .068.279c.036.061.08.104.134.13a.539.539 0 0 0 .223.037h.427v.182h-.468a.87.87 0 0 1-.292-.04c-.133-.05-.231-.156-.293-.32a.92.92 0 0 1-.05-.325c0-.172.027-.311.081-.418.06-.117.137-.2.23-.25a.852.852 0 0 1 .39-.072h.402zm.512.82v.605h-.228v-1.425h.65c.187 0 .318.025.393.076.05.034.088.079.116.135a.408.408 0 0 1 .041.183c0 .123-.04.22-.119.287a.462.462 0 0 1-.176.087.414.414 0 0 1 .196.152.685.685 0 0 1 .066.288 1.9 1.9 0 0 0 .013.156.193.193 0 0 0 .024.06h-.232a.138.138 0 0 1-.016-.044 4.908 4.908 0 0 1-.016-.16c-.014-.152-.055-.256-.125-.313-.07-.058-.19-.087-.36-.087h-.227zm0-.181h.408c.12 0 .2-.015.239-.043.055-.042.083-.104.083-.186 0-.095-.03-.16-.09-.197-.035-.021-.112-.032-.232-.032h-.408v.458zm1.716-.032h.668v.818h-.528c-.142 0-.25-.012-.326-.036a.496.496 0 0 1-.246-.174c-.087-.112-.13-.277-.13-.496 0-.313.087-.523.262-.63a.557.557 0 0 1 .181-.07c.067-.013.157-.02.27-.02h.517v.182h-.5c-.092 0-.157.003-.194.01a.321.321 0 0 0-.112.044c-.121.075-.182.23-.182.466 0 .093.007.168.02.226a.47.47 0 0 0 .065.159c.04.06.087.102.142.124a.77.77 0 0 0 .262.033h.271v-.454h-.44v-.182zm.969.818v-1.425h.228v1.425h-.228zm.42 0 .59-1.425h.3L32 24.142h-.242l-.145-.373h-.676l-.151.373h-.243zm.737-1.255-.274.7h.534l-.26-.7z" fill="#EC008C"/></svg>