<svg height="36" viewBox="0 0 36 36" width="36" xmlns="http://www.w3.org/2000/svg"><mask id="a" fill="#fff"><path d="M0 0h19.993v1.415H0z" fill-rule="evenodd"/></mask><mask id="b" fill="#fff"><path d="M0 0h6.625v6.225H0z" fill-rule="evenodd"/></mask><g fill="none" fill-rule="evenodd"><path d="M18 0c2.837 0 5.52.656 7.907 1.825C31.884 4.753 36 10.895 36 18c0 9.942-8.058 18-18 18-9.94 0-18-8.057-18-18C0 8.06 8.06 0 18 0z" fill="#f2f4f7" fill-rule="nonzero"/><path d="M16.601 1.016c0 .163.006.167.154.167h.493a.04.04 0 0 1 .039.039v.125c0 .027-.01.037-.039.04a2.484 2.484 0 0 1-.421.027c-.324 0-.495.002-.495-.398V.4c0-.402.171-.4.495-.4.232 0 .358.018.421.028.029.004.039.013.039.041v.125c0 .02-.019.039-.039.039h-.493c-.148 0-.154.004-.154.167v.179h.623c.022 0 .039.017.039.038v.14a.038.038 0 0 1-.039.039h-.623zm2.879.399c-.172 0-.346-.029-.44-.05-.019-.004-.037-.018-.037-.039v-.14c0-.022.018-.037.037-.037h.004c.078.01.261.035.44.035.174 0 .226-.063.226-.176 0-.145-.348-.226-.518-.296a.35.35 0 0 1-.23-.341c0-.213.173-.37.535-.37.186 0 .355.036.422.051.019.005.035.019.035.037v.145a.034.034 0 0 1-.034.035h-.003c-.129-.012-.262-.035-.431-.035-.145 0-.253.05-.253.137 0 .065.074.124.16.158l.329.13c.164.066.271.163.271.349 0 .197-.123.407-.513.407zM18.445.441c0-.146-.113-.208-.308-.208a5.1 5.1 0 0 0-.253.008v.421c.031.002.22.006.253.006.201 0 .308-.038.308-.21zm.292.959h-.238c-.021 0-.028-.021-.038-.039L18.18.888h-.043c-.05 0-.208-.005-.253-.008v.481c0 .021-.015.039-.037.039h-.194a.039.039 0 0 1-.039-.039V.084c0-.039.023-.052.062-.058.101-.016.319-.026.461-.026.3 0 .577.108.577.441v.017c0 .206-.104.32-.263.381l.306.522c.004.006.004.01.004.015 0 .013-.008.024-.024.024zM16.093.242h-.388v1.119a.04.04 0 0 1-.04.039h-.192a.04.04 0 0 1-.039-.039V.242h-.389c-.021 0-.039-.013-.039-.035V.053c0-.021.018-.037.039-.037h1.048c.021 0 .039.016.039.037v.154c0 .022-.018.035-.039.035zm-1.864 1.172c-.313 0-.583-.135-.583-.55V.053c0-.021.018-.037.039-.037h.193c.021 0 .039.016.039.037v.811c0 .221.102.327.312.327.211 0 .313-.106.313-.327V.053c0-.021.018-.037.039-.037h.193c.021 0 .039.016.039.037v.811c0 .415-.27.55-.584.55zm-1.559-.398c0 .163.006.167.153.167h.493c.022 0 .039.018.039.039v.125c0 .027-.01.037-.039.04a2.474 2.474 0 0 1-.421.027c-.323 0-.494.002-.494-.398V.4c0-.402.171-.4.494-.4.232 0 .359.018.421.028.029.004.039.013.039.041v.125a.04.04 0 0 1-.039.039h-.493c-.147 0-.153.004-.153.167v.179h.623c.021 0 .039.017.039.038v.14a.039.039 0 0 1-.039.039h-.623zm-.835-.575c0-.146-.113-.208-.308-.208a5.1 5.1 0 0 0-.253.008v.421c.031.002.22.006.253.006.2 0 .308-.038.308-.21zm.292.959h-.237c-.021 0-.03-.021-.039-.039L11.57.888h-.043c-.051 0-.208-.005-.253-.008v.481c0 .021-.015.039-.037.039h-.195a.039.039 0 0 1-.038-.039V.084c0-.039.023-.052.062-.058.101-.016.319-.026.461-.026.3 0 .577.108.577.441v.017c0 .206-.103.32-.263.381l.305.522a.02.02 0 0 1 .005.015c0 .013-.008.024-.024.024zM8.344.608c0-.257-.155-.371-.346-.371-.19 0-.346.114-.346.371v.199c0 .257.156.372.346.372.191 0 .346-.115.346-.372zm-.346.806c-.321 0-.618-.178-.618-.607V.608C7.38.18 7.677 0 7.998 0s.619.18.619.608v.199c0 .429-.298.607-.619.607zm-1.376.001c-.172 0-.347-.029-.44-.05-.019-.004-.037-.018-.037-.039v-.14c0-.022.018-.037.037-.037h.004c.078.01.26.035.44.035.173 0 .226-.063.226-.176 0-.145-.348-.226-.518-.296s-.23-.205-.23-.341c0-.213.173-.37.535-.37.185 0 .355.036.421.051.02.005.035.019.035.037v.145c0 .019-.014.035-.033.035h-.004C6.93.257 6.796.234 6.627.234c-.144 0-.253.05-.253.137 0 .065.074.124.16.158l.33.13c.164.066.27.163.27.349 0 .197-.122.407-.512.407zM10.03 1.4h-.197c-.046 0-.087 0-.118-.071L9.187.445C9.182.433 9.175.429 9.169.429c-.005 0-.009.004-.009.016v.916a.038.038 0 0 1-.038.039h-.165a.039.039 0 0 1-.039-.039V.094c0-.043.035-.078.078-.078h.21c.041 0 .062.012.086.063l.549.937c.004.009.01.016.016.016.004 0 .01-.007.01-.018V.053c0-.021.015-.037.036-.037h.168c.021 0 .037.016.037.037v1.269a.078.078 0 0 1-.078.078zm-4.277 0h-.196c-.018 0-.031-.021-.031-.039V.519c0-.014-.002-.02-.006-.02-.002 0-.006.006-.01.012l-.314.696a.072.072 0 0 1-.062.034h-.101c-.026 0-.051-.013-.062-.034L4.654.511C4.65.505 4.646.499 4.644.499c-.003 0-.006.006-.006.02v.842c0 .018-.013.039-.031.039h-.196c-.018 0-.034-.011-.034-.03V.094c0-.043.036-.078.078-.078h.16c.031 0 .058.02.072.047l.373.761c.01.017.014.027.022.027s.012-.01.022-.027l.373-.761a.083.083 0 0 1 .072-.047h.16c.043 0 .078.035.078.078V1.37c0 .019-.016.03-.034.03zM3.803.608c0-.257-.155-.371-.346-.371-.19 0-.346.114-.346.371v.199c0 .257.156.372.346.372.191 0 .346-.115.346-.372zm-.346.806c-.321 0-.618-.178-.618-.607V.608c0-.428.297-.608.618-.608s.619.18.619.608v.199c0 .429-.298.607-.619.607zM2.492 1.4H2.3a.04.04 0 0 1-.04-.039V.796h-.617v.565a.039.039 0 0 1-.038.039h-.193a.04.04 0 0 1-.039-.039V.053c0-.021.018-.037.039-.037h.193c.021 0 .038.016.038.037v.506h.617V.053c0-.021.018-.037.04-.037h.192c.021 0 .039.016.039.037v1.308a.04.04 0 0 1-.039.039zM1.087.242H.699v1.119A.039.039 0 0 1 .66 1.4H.467a.039.039 0 0 1-.038-.039V.242h-.39C.018.242 0 .229 0 .207V.053C0 .032.018.016.039.016h1.048c.022 0 .039.016.039.037v.154c0 .022-.017.035-.039.035z" fill="#807e82" mask="url(#a)" transform="translate(12.007 17.404)"/><path d="M1.958 1.218a.113.113 0 0 0-.158-.02.112.112 0 1 0 .158.019M3.087.796a.113.113 0 0 0-.223.032c.01.062.067.104.128.095s.104-.065.095-.127m.546 4.508a.112.112 0 1 0 .033.222.111.111 0 0 0 .094-.127.11.11 0 0 0-.127-.095m1.052-.454a.113.113 0 0 0-.019.157.113.113 0 0 0 .177-.139.113.113 0 0 0-.158-.018m-3.422-.211a.24.24 0 1 0 .45-.166.24.24 0 0 0-.45.166m.453.404a.217.217 0 1 0 .415-.129.217.217 0 0 0-.415.129m.569.275a.175.175 0 0 0 .212.126.174.174 0 1 0-.087-.337.173.173 0 0 0-.125.21m.616.135a.143.143 0 1 0 .282-.056.146.146 0 0 0-.169-.114.147.147 0 0 0-.113.17M1.117 3.664a.24.24 0 0 0 .108-.321.238.238 0 0 0-.321-.107.24.24 0 0 0 .213.428m-.009-.633a.216.216 0 0 0 .083-.295.215.215 0 0 0-.295-.082.216.216 0 1 0 .212.377m.136-.63a.175.175 0 0 0 .054-.241.172.172 0 0 0-.24-.053.173.173 0 0 0-.054.24.175.175 0 0 0 .24.054m.285-.561a.143.143 0 0 0 .034-.2.14.14 0 0 0-.199-.034.143.143 0 1 0 .165.234M1.28 4.273a.262.262 0 0 0 .136-.343.261.261 0 0 0-.479.207.263.263 0 0 0 .343.136m2.912.88a.103.103 0 0 0-.054.136.105.105 0 1 0 .192-.083.104.104 0 0 0-.138-.053M5.508 2.56a.238.238 0 1 0 .213.428.239.239 0 1 0-.213-.428m.008.633a.217.217 0 1 0 .213.378.217.217 0 0 0-.213-.378m-.135.63a.174.174 0 1 0 .185.294.174.174 0 0 0-.185-.294m-.286.56a.143.143 0 1 0 .2.033.143.143 0 0 0-.2-.032M2.487.935A.104.104 0 0 0 2.35.882a.105.105 0 0 0-.055.138c.023.053.085.076.138.053a.102.102 0 0 0 .054-.136m2.875.65a.239.239 0 0 0-.307-.14.238.238 0 0 0-.142.306.24.24 0 1 0 .449-.166m-.454-.404a.216.216 0 0 0-.271-.142.216.216 0 0 0-.143.272.217.217 0 0 0 .414-.13M4.34.908a.174.174 0 1 0-.337.085.174.174 0 0 0 .337-.085M3.723.774a.143.143 0 1 0-.281.056.144.144 0 0 0 .169.113.144.144 0 0 0 .112-.17m1.828 1.658a.26.26 0 1 1-.205-.48.26.26 0 0 1 .205.48M2.681.197a.142.142 0 0 0-.177-.1.143.143 0 1 0 .075.277.146.146 0 0 0 .102-.177m1.542.076A.144.144 0 0 0 4.12.097a.142.142 0 0 0-.176.1.145.145 0 0 0 .279.076M2.579 5.85a.144.144 0 1 0-.075.277.144.144 0 0 0 .177-.101.144.144 0 0 0-.102-.176m1.467 0a.145.145 0 0 0-.102.177c.021.076.1.12.176.1a.142.142 0 0 0 .102-.176.142.142 0 0 0-.176-.101M.128 3.867a.306.306 0 1 0 .612.032.306.306 0 0 0-.612-.032m.329.705a.277.277 0 1 0 .305-.247.277.277 0 0 0-.305.247m.529.612a.222.222 0 1 0 .44.069.223.223 0 1 0-.44-.07m.657.472a.184.184 0 1 0 .218-.142.183.183 0 0 0-.218.142M.451 2.647a.307.307 0 1 0-.034-.612.307.307 0 0 0 .034.612M.762 1.9a.278.278 0 1 0-.06-.555.278.278 0 0 0 .06.555m.479-.674a.224.224 0 0 0-.07-.441.223.223 0 0 0 .07.44m.62-.513a.184.184 0 0 0-.077-.36.184.184 0 0 0 .077.36M.334 3.446a.334.334 0 1 0-.003-.667.334.334 0 0 0 .003.667m2.978 2.51a.134.134 0 1 0 .002.268.134.134 0 0 0-.002-.267m2.862-2.38a.306.306 0 1 0 .033.61.306.306 0 0 0-.033-.61m-.311.748a.28.28 0 0 0-.248.306.279.279 0 0 0 .306.247.278.278 0 0 0-.058-.553m-.479.673a.223.223 0 0 0-.185.255.222.222 0 1 0 .44-.07.224.224 0 0 0-.255-.185m-.62.515a.184.184 0 1 0 .076.36.184.184 0 0 0-.076-.36M3.446.133A.133.133 0 0 0 3.312 0a.134.134 0 1 0 .134.133m3.051 2.224a.307.307 0 1 0-.323.29.308.308 0 0 0 .323-.29m-.329-.705a.277.277 0 0 0-.247-.306.28.28 0 0 0-.306.248.281.281 0 0 0 .248.306.279.279 0 0 0 .305-.248m-.529-.612a.223.223 0 0 0-.185-.255.224.224 0 0 0-.07.44.223.223 0 0 0 .255-.185M4.982.57a.184.184 0 1 0-.36-.077.184.184 0 0 0 .36.078m1.309 2.875a.334.334 0 1 1 .001-.668.334.334 0 0 1-.001.668m-2.225.432a.113.113 0 0 0 .046-.155.114.114 0 1 0-.201.109.114.114 0 0 0 .155.046m.165-.26a.102.102 0 0 0-.096-.18.103.103 0 0 0-.042.14.102.102 0 0 0 .138.04m.081-.3a.09.09 0 0 0 .036-.121.089.089 0 0 0-.12-.036.09.09 0 0 0-.037.122.092.092 0 0 0 .121.036m-.014-.313c.037-.021.052-.068.032-.104a.077.077 0 0 0-.103-.032.077.077 0 0 0-.031.105.075.075 0 0 0 .102.03m-.711 1.002a.115.115 0 0 0-.155-.047.112.112 0 0 0-.045.155.114.114 0 1 0 .2-.108m-.313.013a.102.102 0 0 0-.138-.042.103.103 0 0 0-.042.138c.028.05.09.069.139.042a.1.1 0 0 0 .041-.138m-.3-.081c-.024-.042-.079-.06-.121-.035a.087.087 0 0 0-.036.12c.022.044.077.06.12.037a.091.091 0 0 0 .037-.122m-.26-.165c-.02-.036-.067-.05-.104-.031s-.05.067-.03.103a.073.073 0 0 0 .103.03c.037-.018.05-.065.031-.102m1.172.126a.13.13 0 0 0-.177-.053.129.129 0 0 0-.052.176.13.13 0 0 0 .229-.123m.22-1.216c.017.03.056.042.086.025a.063.063 0 0 0 .026-.086.065.065 0 0 0-.087-.027c-.029.018-.042.058-.025.088m-1.067-.468a.114.114 0 1 0 .201-.108.114.114 0 1 0-.201.108m.313-.012a.1.1 0 0 0 .137.04.101.101 0 1 0-.096-.178.1.1 0 0 0-.041.138m.3.08a.09.09 0 0 0 .12.036.088.088 0 0 0 .037-.121.09.09 0 0 0-.121-.037.09.09 0 0 0-.036.122m.26.165a.077.077 0 0 0 .104.032.078.078 0 0 0 .031-.105.076.076 0 0 0-.104-.03.075.075 0 0 0-.031.103M2.433 3.514a.064.064 0 1 0 .087.026.064.064 0 0 0-.087-.026m.127-1.17a.114.114 0 0 0-.047.156c.03.056.099.076.155.046a.112.112 0 0 0 .047-.154.114.114 0 0 0-.155-.048m-.165.26a.101.101 0 1 0 .096.179.1.1 0 0 0 .042-.137.102.102 0 0 0-.138-.041m-.082.3a.089.089 0 0 0-.035.12.09.09 0 1 0 .157-.084.09.09 0 0 0-.122-.036m.013.313a.078.078 0 0 0-.03.104c.02.038.067.05.103.03a.075.075 0 0 0 .032-.103.077.077 0 0 0-.105-.031M2.969 2.2a.13.13 0 1 1-.229.122c-.035-.062-.011-.141.052-.175s.143-.011.177.053m.341 2.374a.144.144 0 0 0 .18-.097.147.147 0 0 0-.098-.182.145.145 0 1 0-.082.279m.411-.091a.13.13 0 0 0 .161-.088.128.128 0 0 0-.088-.16.128.128 0 0 0-.161.086.13.13 0 0 0 .088.162m.371-.225a.103.103 0 0 0 .127-.07.102.102 0 0 0-.196-.058.104.104 0 0 0 .069.128m.29-.32a.082.082 0 0 0 .103-.056.082.082 0 0 0-.056-.102.083.083 0 0 0-.047.158m-1.677.307a.144.144 0 0 0-.099-.18.143.143 0 0 0-.18.099.144.144 0 0 0 .098.18.147.147 0 0 0 .181-.1m-.316-.288a.131.131 0 0 0-.089-.161.13.13 0 1 0 .089.16m-.225-.37a.101.101 0 0 0-.069-.126.1.1 0 0 0-.126.069.101.101 0 0 0 .068.127.104.104 0 0 0 .127-.07m-.096-.413a.082.082 0 1 0-.158-.046.081.081 0 0 0 .056.102.082.082 0 0 0 .102-.056M3.1 4.43a.167.167 0 0 0-.113-.208.167.167 0 1 0-.094.32.167.167 0 0 0 .207-.112m1.423-.962a.064.064 0 0 0 .042.077.062.062 0 0 0 .077-.042.063.063 0 0 0-.042-.077.064.064 0 0 0-.077.042m-.603-1.49a.146.146 0 0 0 .28.082.146.146 0 1 0-.28-.081m.317.288a.129.129 0 0 0 .087.16.13.13 0 0 0 .161-.087.13.13 0 0 0-.248-.073m.225.372a.102.102 0 1 0 .195.058.1.1 0 0 0-.069-.126.1.1 0 0 0-.126.068m.095.413a.083.083 0 0 0 .056.103.084.084 0 0 0 .103-.057.084.084 0 0 0-.056-.103.084.084 0 0 0-.103.057M2.06 2.68a.063.063 0 0 0-.077.042c-.009.033.009.067.042.077s.067-.01.077-.042a.063.063 0 0 0-.042-.077m1.256-1.03c-.078-.024-.158.02-.181.098s.021.157.099.18a.148.148 0 0 0 .181-.098.145.145 0 0 0-.099-.18m-.411.09a.13.13 0 0 0-.161.089.128.128 0 0 0 .088.16.129.129 0 0 0 .161-.086.132.132 0 0 0-.088-.162m-.372.225a.102.102 0 0 0-.126.069.101.101 0 0 0 .069.127.103.103 0 0 0 .127-.07.104.104 0 0 0-.07-.126m-.29.319a.085.085 0 0 0-.103.057.083.083 0 0 0 .056.102.084.084 0 0 0 .103-.056.084.084 0 0 0-.056-.103m1.603-.394a.168.168 0 1 1-.32-.098.168.168 0 0 1 .32.098M2.431 4.844a.187.187 0 1 0 .256-.272.187.187 0 0 0-.256.272m.544.139c.067.063.172.06.234-.006a.167.167 0 0 0-.006-.236.166.166 0 1 0-.228.242m.576-.041c.053.048.136.046.185-.006s.048-.136-.006-.185a.13.13 0 0 0-.185.006.132.132 0 0 0 .006.185m.537-.204a.106.106 0 1 0 .145-.155.106.106 0 1 0-.145.155M1.9 4.088a.187.187 0 1 0-.271-.256.188.188 0 0 0 .007.265c.076.07.195.066.264-.01m-.2-.533a.166.166 0 1 0-.242-.228.166.166 0 0 0 .242.228m-.042-.575a.133.133 0 0 0-.006-.186.131.131 0 1 0 .006.186m.136-.548a.107.107 0 0 0-.005-.15.106.106 0 1 0-.144.154c.042.04.108.038.149-.004m.465 2.113a.215.215 0 1 0-.313-.295.215.215 0 0 0 .313.295m2.281-.276a.08.08 0 0 0 .003.112.079.079 0 0 0 .111-.004.076.076 0 0 0-.003-.111.079.079 0 0 0-.111.003m.185-2.132a.188.188 0 0 0 .007.265.19.19 0 0 0 .265-.008.188.188 0 0 0-.009-.265.186.186 0 0 0-.263.008m.2.534a.167.167 0 0 0 .008.235.166.166 0 1 0 .227-.242.168.168 0 0 0-.235.007m.042.576a.132.132 0 0 0 .006.185.13.13 0 0 0 .185-.006.13.13 0 0 0-.006-.185.133.133 0 0 0-.185.006m-.135.547a.107.107 0 0 0 .003.15c.044.04.111.039.151-.004a.107.107 0 0 0-.005-.151.107.107 0 0 0-.149.005m-2.75-1.948a.08.08 0 0 0-.111.003c-.031.032-.029.082.003.112s.082.029.111-.004a.078.078 0 0 0-.003-.111m2.113-.465a.188.188 0 0 0-.257.273.188.188 0 0 0 .257-.273m-.545-.14a.166.166 0 1 0-.228.241.166.166 0 0 0 .228-.24m-.576.042a.133.133 0 0 0-.185.005.131.131 0 1 0 .185-.005m-.537.205a.106.106 0 0 0-.15.003.106.106 0 0 0 .154.146.104.104 0 0 0-.004-.15m2.141.489a.214.214 0 0 1-.303.008.214.214 0 0 1-.009-.303.214.214 0 0 1 .304-.01c.086.08.09.217.008.305" fill="#f58933" mask="url(#b)" transform="translate(4 15)"/></g></svg>