<svg height="36" viewBox="0 0 36 36" width="36" xmlns="http://www.w3.org/2000/svg"><mask id="a" fill="#fff"><path d="M0 0h6.053v2.611H0z" fill-rule="evenodd"/></mask><mask id="b" fill="#fff"><path d="M0 0h1.393v2.024H0z" fill-rule="evenodd"/></mask><mask id="c" fill="#fff"><path d="M0 8.671h28V0H0z" fill-rule="evenodd"/></mask><g fill="none" fill-rule="evenodd"><path d="M18 0c2.837 0 5.52.656 7.907 1.825C31.884 4.753 36 10.895 36 18c0 9.942-8.058 18-18 18-9.94 0-18-8.057-18-18C0 8.06 8.06 0 18 0z" fill="#f2f4f7" fill-rule="nonzero"/><g fill="#295fb9"><path d="M4 14.021v2.032l4.291-2.032zm0 2.854v1.451l1.896-1.32c-.335-.043-1.217-.153-1.896-.13m0 2.293 2.615-2.09s1.749.285 2.728.669l-1.319 1.975S6.428 19.179 4 19.169m0 2.957v-2.513c.004-.017 2.269 0 3.749.534l-1.344 1.979zm8.1 0c-1.626-1.133-3.55-1.784-3.59-1.795l-1.03 1.795zm-3.371-2.174 1.164-2.024s1.551.618 2.206 1.006v2.693s-1.278-.938-3.37-1.675m1.335-2.367 2.035-3.563v4.473c-.55-.318-1.195-.611-2.035-.91m-.484-.191c-.925-.395-2.501-.663-2.501-.663l3.356-2.71h1.427z"/><path d="M4.718 0h1.335L2.45 2.611S.615 2.463 0 2.449z" mask="url(#a)" transform="translate(4 14.021)"/><path d="M12.966 14.868V14h4.546v.868h-1.755v4.774l-1.036-.004v-4.77z"/><path d="M20.467 17.83H17.45s-.007 1.213 1.06 1.206c0 0 .763.136 1.039-.656h.89s-.15 1.398-1.957 1.37c0 0-1.894.141-1.936-2.199.17-3.124 4.402-2.507 3.92.28zm-.883-.592c-.321-1.774-2.228-1.049-2.081 0zm8.168 4.23h-1.05s-.003.413.368.411c0 0 .266.046.362-.224h.31s-.052.477-.682.467c0 0-.659.048-.674-.75.06-1.065 1.533-.854 1.366.096zm-.308-.202c-.11-.606-.776-.358-.724 0zm-6.358-1.616v-4.084h.821l-.007.82c.264-.602.611-.973 1.57-.934v.89c-1.219-.21-1.495.763-1.496 1.372v1.936zm6.951 2.446v-1.39h.305l-.002.28c.097-.205.227-.331.583-.318v.303c-.453-.072-.555.26-.556.467v.659zm-13.001-.004V20.7h.305l-.002.28c.097-.205.227-.331.583-.32v.305c-.453-.072-.555.26-.556.467v.659zm8.884-2.455v-4.05l.867-.008v.622c.716-1.27 2.625-.863 2.665.474v2.983h-.867v-2.666c-.098-1.264-1.716-.899-1.798.03v2.616zm-4.985 2.482V20.7l.325-.002v.218c.269-.444.985-.303 1 .165v1.045h-.325v-.934c-.037-.442-.644-.314-.675.01v.916zm12.626-4.057-.01.805c.018.018-.07.21.41.147l.007.643s-1.088.336-1.258-.42c0 0-.593.58-1.384.477 0 0-1.413.146-1.435-1.267 0 0-.155-1.015 1.555-1.155 0 0 1.243.042 1.243-.566 0 0 .071-.525-.904-.546 0 0-.764-.063-.834.615l-.883.02s-.064-1.328 1.844-1.398c0 0 1.575-.063 1.667 1.252l-.015 1.169zm-.9-.21-.02-.294s-.481.245-1.018.259c0 0-.834-.042-.806.714 0 0-.028.609.94.518 0 0 .925-.154.911-.7v-.287zm-5.865 4.282v-1.418l.325-.002v.218c.27-.444.985-.303 1 .166v1.044h-.326v-.933c-.036-.443-.644-.315-.674.01v.915zm-11.788-.044 1.012.015s.731-.014.727-1.035c0 0 .068-.93-.854-.933h-.885zm.423-1.593h.423c.68.044.57 1.35 0 1.27h-.423zm9.601 1.608v-1.989h1.5v.38l-1.077.006v.44h.973v.316h-.973v.486l1.078.007v.354zm-1.77-1.171s-.33 0-.33.428c0 0-.01.41.34.417.397-.05.323-.877-.01-.845zm.639 1.318s-.05.386-.703.407c0 0-.611.053-.632-.47h.396c.006.29.572.242.59.007v-.325s-.142.194-.467.187c0 0-.537-.018-.57-.73-.011 0 .033-.712.63-.69 0 0 .287-.018.407.233v-.206h.356z"/><path d="M.747.297s-.33 0-.33.428c0 0-.01.41.34.417.397-.049.324-.876-.01-.845zm.639 1.318s-.05.386-.702.408c0 0-.612.052-.633-.47h.396c.006.29.572.241.59.007v-.325s-.142.194-.467.186c0 0-.536-.018-.568-.73C-.01.691.032-.02.63 0c0 0 .287-.018.407.233V.028h.356z" mask="url(#b)" transform="translate(28.955 20.647)"/><path d="M12.096 8.104h.385V6.687h-.385zm0-1.64h.385v-.325h-.385zm2.144 1.644h.385V6.69h-.385zm0-1.641h.385v-.325h-.385zm-1.102 1.638-.507-1.439h.412l.303 1.018.334-1.018h.368l-.485 1.44zm13.406-1.389.406-.018.33.994.306-1.008.414.004-.633 1.646s-.08.279-.424.277l-.272.006v-.283l.258-.007c.02 0 .19.01.117-.212z" mask="url(#c)" transform="translate(4 14)"/></g></g></svg>