<svg width="36" height="36" fill="none" xmlns="http://www.w3.org/2000/svg"><path d="M18 0c2.837 0 5.52.656 7.907 1.825C31.884 4.753 36 10.895 36 18c0 9.942-8.058 18-18 18-9.94 0-18-8.057-18-18C0 8.06 8.06 0 18 0z" fill="#F2F4F7"/><path d="M12.881 20.111v-2.336c0-.034-.02-.053-.048-.053h-.708c-.058 0-.073-.025-.073-.074v-.346c0-.053.02-.073.073-.073h2.176c.053 0 .073.024.073.073v.346c0 .054-.025.074-.073.074h-.703c-.029 0-.049.02-.049.053v2.336c0 .054-.024.074-.073.074h-.522c-.043 0-.073-.02-.073-.074zm1.679-1.355c0-1.005.526-1.595 1.574-1.595.225 0 .454.043.635.112.097.034.117.063.117.141v.342c0 .068-.015.087-.064.087-.073 0-.302-.185-.673-.185-.546 0-.897.356-.897 1.068 0 .64.312 1.015.897 1.015.42 0 .595-.195.683-.195.039 0 .054.024.054.068v.336c0 .088-.03.127-.161.18-.152.064-.415.103-.698.103-1 .005-1.468-.58-1.468-1.477zm3.701 1.355v-2.809c0-.058.024-.078.073-.078h1.673c.058 0 .078.024.078.073v.337c0 .053-.024.073-.078.073h-1.03c-.028 0-.048.015-.048.054v.595c0 .034.02.053.049.053h.824c.054 0 .073.025.073.073v.337c0 .054-.024.073-.073.073h-.82c-.029 0-.048.02-.048.054v.688c0 .038.02.058.054.058h1.117c.058 0 .073.024.073.078v.337c0 .048-.015.073-.073.073h-1.766c-.054.005-.078-.015-.078-.069zm2.346-.005v-2.121c0-.059.024-.078.073-.078h.483c.044 0 .063.024.063.058 0 .025.01.044.044.044.112 0 .303-.16.64-.16.614 0 .775.326.775.945v1.312c0 .054-.03.078-.078.078h-.483c-.049 0-.073-.024-.073-.078v-1.263c0-.366-.074-.546-.41-.546-.19 0-.395.063-.395.253v1.556c0 .05-.024.078-.078.078h-.478c-.054 0-.083-.024-.083-.078zm4.019-1.316c.044 0 .053-.02.053-.06 0-.223-.117-.477-.448-.477-.322 0-.474.263-.474.478 0 .039.005.058.06.058h.809zm-1.532.258c0-.8.454-1.2 1.141-1.2.717 0 1.069.415 1.069 1.239 0 .068-.02.093-.078.093h-1.41c-.054 0-.068.024-.068.087 0 .376.322.512.688.512.38 0 .57-.136.668-.136.048 0 .063.03.063.083v.254c0 .053-.02.087-.098.121-.136.064-.395.113-.687.113-.834 0-1.288-.347-1.288-1.166zm2.59 1.063v-2.126c0-.054.024-.078.068-.078h.483c.054 0 .069.02.069.073 0 .039 0 .063.043.063.113 0 .244-.175.537-.175.166 0 .19.044.19.117v.336c0 .044-.02.073-.063.073-.064 0-.127-.02-.264-.02-.283 0-.424.128-.424.367v1.365c0 .05-.024.073-.068.073h-.503c-.039.005-.068-.019-.068-.068zm3.156-.658v-.912c0-.176-.171-.264-.386-.264-.336 0-.58.205-.58.766 0 .439.156.712.551.712.195 0 .415-.073.415-.302zm-1.361 1.604c-.122-.044-.142-.083-.142-.18v-.249c0-.068.025-.102.073-.102.103 0 .322.18.771.18.19 0 .366-.034.488-.122.117-.078.166-.214.166-.37v-.117c0-.035-.01-.059-.04-.059-.068 0-.214.141-.58.141-.639 0-1.004-.424-1.004-1.14 0-.781.439-1.196 1.043-1.196.351 0 .459.147.566.147.024 0 .04-.01.044-.04 0-.029.015-.048.044-.048h.473c.049 0 .068.024.068.073v2.107c0 .36-.034.585-.205.766-.224.244-.604.326-1.004.326a2.2 2.2 0 0 1-.761-.117zm2.585.005v-.273c0-.068.024-.093.073-.093.024 0 .058.005.127.005.122 0 .195-.029.248-.136a.635.635 0 0 0 .069-.215.329.329 0 0 0-.025-.117l-.75-2.195c-.015-.039-.025-.058-.025-.078 0-.029.024-.053.068-.053h.507c.044 0 .074.02.083.053l.468 1.605c.01.024.015.039.035.039.024 0 .024-.015.034-.039l.448-1.605c.01-.044.044-.053.083-.053h.42c.039 0 .058.024.058.049a.262.262 0 0 1-.02.087l-.819 2.502c-.14.449-.41.634-.819.634-.215 0-.263-.034-.263-.117z" fill="#237CC1"/><path d="M6.965 21.19v-.157c-.79-.385-1.385-1.112-1.385-2.063a2.4 2.4 0 0 1 1.658-2.297l-.556-.561c-.887.337-1.692 1.214-1.692 2.312 0 .283.049.55.132.8h-.083a2.502 2.502 0 0 1-.39-1.351c0-1.04.624-1.927 1.507-2.302L5.59 15A2.906 2.906 0 0 0 4 17.6c-.01 1.994 2.375 3.375 2.965 3.59z" fill="#799B3D"/><path d="M7.224 15v.156c.79.38 1.385 1.107 1.385 2.063a2.4 2.4 0 0 1-1.658 2.297l.556.556c.887-.336 1.692-1.214 1.692-2.311 0-.283-.049-.552-.132-.8h.083c.249.39.39.853.39 1.35a2.496 2.496 0 0 1-1.507 2.303l.561.575a2.906 2.906 0 0 0 1.59-2.6c.01-1.994-2.37-3.374-2.96-3.589z" fill="#237CC1"/></svg>