<svg width="36" height="36" fill="none" xmlns="http://www.w3.org/2000/svg"><path d="M18 0c2.837 0 5.52.656 7.907 1.825C31.884 4.753 36 10.895 36 18c0 9.942-8.058 18-18 18-9.94 0-18-8.057-18-18C0 8.06 8.06 0 18 0z" fill="#F2F4F7"/><g fill="#00A6CA"><path d="M8.258 19.014a.713.713 0 0 0-.252-.126 1.047 1.047 0 0 0-.28-.042c-.07 0-.14.014-.21.028a.815.815 0 0 0-.196.07.658.658 0 0 0-.168.126.59.59 0 0 0-.113.168.296.296 0 0 0-.084-.224.427.427 0 0 0-.182-.126.655.655 0 0 0-.238-.042c-.084 0-.168.014-.266.028v.364a.39.39 0 0 1 .14.014c.042.014.056.028.07.056a.202.202 0 0 1 .028.099v1.834h.532v-1.358a.48.48 0 0 1 .057-.252.382.382 0 0 1 .126-.169.518.518 0 0 1 .196-.098c.07-.014.154-.042.224-.042.14 0 .266.028.378.085l.238-.393zm2.339 1.863c-.042-.014-.056-.042-.07-.07a.264.264 0 0 1-.028-.112V19.07a1.896 1.896 0 0 0-.476-.154 1.877 1.877 0 0 0-.49-.056 1.63 1.63 0 0 0-.533.084c-.154.056-.294.14-.42.253-.126.112-.21.238-.28.406a1.29 1.29 0 0 0-.112.532c0 .168.014.322.07.462.042.14.112.266.196.378a.765.765 0 0 0 .336.252c.14.056.295.085.463.085a.902.902 0 0 0 .49-.14.662.662 0 0 0 .322-.379.58.58 0 0 0 .056.294c.042.07.084.127.154.154a.41.41 0 0 0 .224.057c.084 0 .168 0 .252-.028v-.393c-.07.014-.126.014-.154 0zm-.616-.812a.808.808 0 0 1-.168.532c-.098.14-.252.21-.448.21-.225 0-.379-.07-.49-.196-.113-.126-.155-.294-.155-.518 0-.126.028-.238.07-.35a.83.83 0 0 1 .154-.266.711.711 0 0 1 .546-.224c.07 0 .155 0 .239.014.084.014.168.042.252.07v.728zm3.152-.925a.794.794 0 0 0-.295-.21.936.936 0 0 0-.42-.084c-.084 0-.154 0-.238.014a1.05 1.05 0 0 0-.224.07.589.589 0 0 0-.196.126.503.503 0 0 0-.14.196.416.416 0 0 0-.07-.252.382.382 0 0 0-.168-.126 1.233 1.233 0 0 0-.239-.028c-.084 0-.182.014-.266.028v.364a.39.39 0 0 1 .14.014c.043.015.056.028.07.056.014.029.029.056.029.099v1.833h.532v-1.33c0-.098.014-.182.042-.252a.475.475 0 0 1 .126-.197.533.533 0 0 1 .42-.168.55.55 0 0 1 .392.154c.112.099.154.253.154.435v1.372h.533v-1.372c0-.14-.014-.28-.056-.406.014-.14-.043-.239-.127-.337zm2.381.883c-.084-.056-.196-.084-.308-.112-.112-.028-.239-.042-.365-.056a3.636 3.636 0 0 1-.42-.084c-.098-.042-.14-.098-.14-.196 0-.056.014-.098.042-.14a.26.26 0 0 1 .112-.098.52.52 0 0 1 .154-.07.821.821 0 0 1 .364-.014c.07.014.127.028.168.056a.44.44 0 0 1 .127.098c.028.042.056.084.056.14h.462a.558.558 0 0 0-.07-.308 1.056 1.056 0 0 0-.21-.224c-.098-.056-.196-.112-.322-.14a1.772 1.772 0 0 0-.77 0 .837.837 0 0 0-.323.14.685.685 0 0 0-.224.224.58.58 0 0 0-.084.322c0 .14.042.238.098.322.07.084.14.14.238.182.098.042.21.07.336.098.126.014.238.042.364.056.154.014.28.056.379.098.098.042.14.112.14.224 0 .07-.014.126-.056.183-.043.041-.085.084-.127.111a.693.693 0 0 1-.182.057c-.07.014-.126.014-.196.014s-.126-.014-.196-.014c-.056-.014-.112-.043-.168-.07-.056-.028-.084-.07-.126-.113a.294.294 0 0 1-.056-.154h-.518c.014.14.042.267.112.365a.65.65 0 0 0 .252.224 1.2 1.2 0 0 0 .336.126 1.74 1.74 0 0 0 .756 0 .755.755 0 0 0 .323-.14c.084-.07.168-.14.224-.224a.666.666 0 0 0 .084-.337.598.598 0 0 0-.084-.336c-.028-.098-.098-.154-.182-.21zm5.939-.883a.794.794 0 0 0-.294-.21.936.936 0 0 0-.42-.084c-.085 0-.155 0-.239.014a1.05 1.05 0 0 0-.224.07.589.589 0 0 0-.196.126.503.503 0 0 0-.14.196.415.415 0 0 0-.07-.252.382.382 0 0 0-.168-.126 1.235 1.235 0 0 0-.238-.028c-.084 0-.182.014-.252.028v.364a.39.39 0 0 1 .14.014c.042.015.056.028.07.056a.201.201 0 0 1 .028.099v1.833h.532v-1.33a.68.68 0 0 1 .042-.252.475.475 0 0 1 .126-.197.532.532 0 0 1 .42-.168.55.55 0 0 1 .392.154c.112.099.154.253.154.435v1.372h.533v-1.372c0-.14-.014-.28-.056-.406a.489.489 0 0 0-.14-.337zm.938-1.274a.343.343 0 0 0-.224.084c-.07.056-.098.126-.098.238 0 .112.042.182.098.238.07.056.14.084.224.07a.285.285 0 0 0 .21-.084c.07-.056.098-.126.098-.238 0-.112-.028-.182-.098-.238-.056-.056-.126-.07-.21-.07zm.266 1.036h-.532v2.354h.532v-2.354zm2.48.252a1.266 1.266 0 0 0-.407-.224 1.576 1.576 0 0 0-.924 0c-.14.056-.28.126-.392.224a1.11 1.11 0 0 0-.28.379c-.07.154-.113.322-.113.532 0 .21.042.392.113.532.07.154.168.28.28.392.112.098.252.183.392.224.154.056.294.07.462.07.154 0 .308-.027.462-.07a.992.992 0 0 0 .392-.224c.113-.098.21-.224.28-.392a1.29 1.29 0 0 0 .113-.532c0-.21-.042-.378-.112-.532a.927.927 0 0 0-.266-.379zm-.21 1.247a1.03 1.03 0 0 1-.155.238.47.47 0 0 1-.224.14c-.084.028-.168.056-.252.056a.88.88 0 0 1-.266-.042.609.609 0 0 1-.224-.14.733.733 0 0 1-.168-.238.848.848 0 0 1-.056-.336c0-.126.014-.224.056-.322a.533.533 0 0 1 .154-.224.75.75 0 0 1 .224-.14c.084-.028.168-.042.252-.056a.88.88 0 0 1 .266.042c.084.028.168.07.238.14a.61.61 0 0 1 .168.238c.042.098.07.21.07.336-.014.098-.042.21-.084.308z"/><path d="M4 18.342v-.504h2.535v.504h-.994v2.914h-.56v-2.914H4zm12.214 1.765v-2.27h.56v2.256c0 .448.336.7.77.7.435 0 .757-.252.757-.7v-2.255h.56v2.269c0 .756-.602 1.19-1.316 1.19-.729 0-1.33-.434-1.33-1.19zm11.948.588v-.84c0-.14-.014-.28-.056-.406a1.174 1.174 0 0 0-.168-.322.794.794 0 0 0-.294-.21.934.934 0 0 0-.42-.085c-.084 0-.155 0-.239.015a1.05 1.05 0 0 0-.224.07.587.587 0 0 0-.196.126c-.056.056-.112.112-.14.196a.416.416 0 0 0-.07-.252.383.383 0 0 0-.168-.126 1.226 1.226 0 0 0-.238-.028c-.084 0-.182.014-.252.028v.364a.39.39 0 0 1 .14.014c.042.014.056.028.07.056.014.028.028.056.028.098v1.835h.532v-1.33a.68.68 0 0 1 .042-.253.476.476 0 0 1 .126-.196.534.534 0 0 1 .42-.168.55.55 0 0 1 .393.154c.112.098.154.252.154.434v.855c0 .574.35.63.812.546v-.336c-.21.014-.252-.056-.252-.239zM29.549 14c-.91 0-1.71.49-2.13 1.233-.154.294-.181.546-.055.756.14.252.462.28.63.28h.308l-.112.35c-.07.21-.042.448.07.603a.58.58 0 0 0 .49.238c.14 0 .294-.028.434-.084a.755.755 0 0 1-.098-.182c-.014-.056-.042-.113-.042-.182a.627.627 0 0 1-.28.055c-.056 0-.14-.014-.182-.084-.042-.056-.056-.14-.028-.238l.154-.476h.49l.127-.406h-.477l.21-.658h-.42l-.21.658h-.448c-.14 0-.224-.042-.266-.112-.042-.084 0-.252.112-.448v-.014c.378-.547.994-.91 1.709-.91 1.134 0 2.059.924 2.059 2.058a2.062 2.062 0 0 1-2.06 2.06 2.074 2.074 0 0 1-2.03-1.682l-.393.084a2.479 2.479 0 0 0 2.424 2.003A2.469 2.469 0 0 0 32 16.437c.014-1.33-1.093-2.437-2.451-2.437z"/><path d="M31.117 17.138a.587.587 0 0 1-.308-.07c-.028-.029-.07-.056-.084-.127 0-.027 0-.07.014-.112l.308-.938h-.42l-.266.812c-.07.21-.294.379-.49.379-.056 0-.126-.015-.154-.07-.028-.043-.056-.099-.014-.197l.308-.938h-.42l-.267.812a.606.606 0 0 0 .07.56c.113.14.267.225.477.225a.926.926 0 0 0 .574-.224.48.48 0 0 0 .224.182c.14.042.224.042.322.042.042 0 .098-.014.112-.014.014-.014.014-.028.028-.042l.043-.084.041-.084.043-.084c.014-.014.014-.043.027-.056-.041.028-.098.028-.168.028zm-2.409 3.837c0-.42.63-.42.63 0s-.63.42-.63 0zm.575 0c0-.364-.519-.364-.519 0s.518.364.518 0zm-.127.14-.055.014-.085-.112h-.07v.112h-.042v-.308h.126c.056 0 .112.042.112.098 0 .042-.028.084-.07.084l.084.112zm-.196-.14h.07c.042 0 .07-.028.07-.056 0-.042-.028-.056-.07-.056h-.07v.112z"/></g></svg>