<svg width="36" height="36" fill="none" xmlns="http://www.w3.org/2000/svg"><path d="M18 0c2.837 0 5.52.656 7.907 1.825C31.884 4.753 36 10.895 36 18c0 9.942-8.058 18-18 18-9.94 0-18-8.057-18-18C0 8.06 8.06 0 18 0z" fill="#F2F4F7"/><path d="M14.345 18.78c-.335 0-.71-.154-.899-.275v1.683h-.543v-4.222h.543v.272c.242-.16.563-.275.9-.275.905 0 1.429.571 1.429 1.41-.002.837-.525 1.407-1.43 1.407zm-.034-2.329c-.396 0-.697.161-.865.356v1.127c.14.18.47.356.865.356.65 0 .92-.403.92-.92 0-.522-.27-.919-.92-.919zm4.701-.485v2.158c0 .2.095.248.262.248v.377c-.09.021-.183.032-.275.032-.268 0-.462-.114-.517-.288-.235.175-.59.288-.911.288-.905 0-1.428-.57-1.428-1.407 0-.838.523-1.408 1.428-1.408.331 0 .704.15.894.272l-.003-.272h.55zm-1.408 2.326c.395 0 .697-.16.865-.355v-1.126c-.14-.181-.469-.355-.865-.355-.65 0-.918.402-.918.918 0 .522.268.918.918.918zm3.803-1.817c-.348 0-.811.147-1.025.268v1.972h-.544v-2.75h.544v.262c.28-.127.777-.261 1.072-.261.946 0 1.079.502 1.079.992v1.757h-.543v-1.71c0-.328-.08-.53-.583-.53zm4.6 2.306c-.985 0-1.508-.57-1.508-1.407 0-.838.523-1.408 1.508-1.408.986 0 1.508.569 1.508 1.408 0 .837-.522 1.407-1.508 1.407zm0-2.326c-.697 0-.965.402-.965.918 0 .517.267.918.965.918.697 0 .966-.402.966-.918s-.269-.918-.966-.918zm3.638.02c-.348 0-.81.147-1.026.268v1.972h-.542v-2.75h.542v.262c.283-.127.779-.261 1.072-.261.945 0 1.08.502 1.08.992v1.757h-.543v-1.71c0-.328-.08-.53-.583-.53zm-5.794-.509h-.543v2.749h.543v-2.75zm.005-.679a.287.287 0 1 1-.573 0 .287.287 0 0 1 .573 0z" fill="#928A80"/><path d="M5.154 16.455v1.205c0 .422.088.624.603.624.065 0 .16-.01.264-.027v.485a1.871 1.871 0 0 1-.33.038c-.926 0-1.08-.437-1.08-1.12v-1.205H4v-.49h.611V15h.543v.965h.867v.49h-.867zm4.433.862c.042.046.121-.033.121-.033.062-.059.137-.063.137-.063a.244.244 0 0 1 .142.029h-.006a.185.185 0 0 0-.185.184c0 .1.104.18.203.185v.002h.019c.109 0 .153-.021.17-.037l.009-.008v-.003l.002-.002c.053-.17-.081-.337-.081-.337-.106-.143-.26-.13-.26-.13a.336.336 0 0 0-.214.078c-.093.079-.057.135-.057.135zm1.424.253.001.002.001.003.01.008c.016.016.06.037.169.037h.018v-.001c.1-.007.203-.088.203-.185a.185.185 0 0 0-.185-.185h-.005a.24.24 0 0 1 .279.034s.079.077.12.033c0 0 .037-.055-.056-.136a.336.336 0 0 0-.215-.079s-.153-.012-.26.131c0 .001-.132.17-.08.338.001 0 0 0 0 0z" fill="#46433B"/><path d="M12.19 15.97h-.57s.627 2.392-.569 2.465c-.383.024-.373-.268-.373-.268s.45-.226.156-.364c0 0-.111-.04-.229-.04-.118 0-.234.04-.234.04-.297.133.155.364.155.364s.01.29-.372.268c-1.196-.073-.541-2.466-.541-2.466h-.579c-.001.005-.554 2.263.644 2.687.212.075.44.11.627.126.235.01.489.006.712-.01.165-.02.352-.054.529-.116 1.198-.424.644-2.682.644-2.687zm-4.939.483v-.497l-.543.001v2.758h.543v-1.672c.009-.226.375-.366.404-.377.268-.09.582-.145.783-.145v-.59c-.274.002-.92.197-1.187.522z" fill="#46433B"/><path d="M31.311 15.492h-.144v.415h-.112v-.415h-.144v-.104h.4v.104zm.575.415-.05-.338-.155.336h-.027l-.154-.336-.052.338h-.114l.08-.519h.112l.14.318.14-.318h.114l.08.519h-.114z" fill="#928A80"/></svg>