<svg height="36" viewBox="0 0 36 36" width="36" xmlns="http://www.w3.org/2000/svg"><mask id="a" fill="#fff"><path d="M0 0h26v17.401H0z" fill-rule="evenodd"/></mask><g fill="none" fill-rule="evenodd"><path d="M18 0c2.837 0 5.52.656 7.907 1.825C31.884 4.753 36 10.895 36 18c0 9.942-8.058 18-18 18-9.94 0-18-8.057-18-18C0 8.06 8.06 0 18 0z" fill="#f2f4f7" fill-rule="nonzero"/><path d="M23.734 0c.998.114 2.248.873 2.266 2.44v12.58c-.059 1.192-.872 2.208-2.266 2.382H2.411C.125 17.23.004 15.144 0 15.08V2.295C.116 1.22.9.03 2.528 0z" fill="#cf402f" mask="url(#a)" transform="translate(5 9)"/><path d="M17.666 15.333c.262.61.173 1.482-.232 2.005-.204.203-.466.435-.698.465a.766.766 0 0 1 .582.493c.435.9.144 2.092.638 2.963h-1.482c-.319-.783-.26-1.713-.58-2.498-.146-.232-.32-.261-.524-.291h-1.975v2.79h-1.423v-7.176h3.312c.842 0 .697.029.987.058.61.117 1.191.581 1.395 1.191m11.882.174c.087.262.203.495.232.784h-1.482a1.68 1.68 0 0 0-1.278-1.161c-.842-.116-1.627.29-2.005.93-.551 1.016-.522 2.47.088 3.428.464.64 1.365.813 2.12.64.64-.176 1.162-.874 1.25-1.511h-1.656v-1.222h2.992v3.864h-.987c-.059-.29-.089-.581-.175-.87-.668.9-1.83 1.19-2.963.986-1.249-.26-2.15-1.219-2.411-2.469-.407-1.627.028-3.486 1.278-4.415.988-.726 2.673-.785 3.777-.232.522.232.958.726 1.22 1.248" fill="#fff"/><path d="M11.478 15.333h-2.18v5.926h-1.48v-5.926h-2.15v-1.249h5.81zm9.267 1.86c.523-.989.959-2.063 1.424-3.08.029-.029 1.017 0 1.685 0l-2.383 4.474v2.672h-1.48v-2.672l-.205-.407-2.236-4.067h1.713z" fill="#fff"/><path d="M15.284 15.333c1.307.116 1.161 1.86.028 1.918H13.28v-1.918z" fill="#cf402f"/></g></svg>