<svg height="36" viewBox="0 0 36 36" width="36" xmlns="http://www.w3.org/2000/svg"><mask id="a" fill="#fff"><path d="M0 0h28v1.395H0z" fill-rule="evenodd"/></mask><g fill="none" fill-rule="evenodd"><path d="M18 0c2.837 0 5.52.656 7.907 1.825C31.884 4.753 36 10.895 36 18c0 9.942-8.058 18-18 18-9.94 0-18-8.057-18-18C0 8.06 8.06 0 18 0z" fill="#f2f4f7" fill-rule="nonzero"/><path d="M18.954 0h3.429c.02 0 .02.02-.02.039-.378.18-.937.738-.937.738-.38.379-.678.619-1.316.619h-3.27c-.02 0-.02-.041 0-.041.36-.199.898-.757.898-.757.199-.259.658-.598 1.216-.598m-5.602 0h3.409c.04 0 .04.02 0 .039-.378.18-.936.738-.936.738-.38.379-.678.619-1.317.619h-3.27c-.02 0-.02-.041-.02-.041.38-.199.898-.757.898-.757.22-.259.678-.598 1.236-.598M7.75 0h3.409c.04 0 .04.02 0 .039-.378.18-.937.738-.937.738-.378.379-.678.619-1.335.619h-3.25c-.04 0-.04-.041-.02-.041.359-.199.897-.757.897-.757C6.734.339 7.192 0 7.75 0m16.806 0h3.429c.02 0 .02.02 0 .039-.398.18-.937.738-.937.738-.4.379-.698.619-1.336.619h-3.27c-.02 0-.02-.041 0-.041.36-.199.898-.757.898-.757.219-.259.658-.598 1.216-.598M2.148 0h3.409c.04 0 .04.02 0 .039-.378.18-.937.738-.937.738-.378.379-.678.619-1.335.619H.015c-.02 0-.02-.041 0-.041.359-.199.897-.757.897-.757C1.13.339 1.59 0 2.148 0" fill="#28539c" mask="url(#a)" transform="translate(4 20.658)"/><path d="M28.795 18.585c-1.036 0-1.694-.838-1.694-1.875 0-1.036.658-1.874 1.694-1.874 1.017 0 1.695.838 1.695 1.874 0 1.037-.678 1.875-1.695 1.875zm.14-4.506c-1.934 0-3.309 1.116-3.309 2.692 0 1.554 1.236 2.571 3.05 2.571 1.953 0 3.31-1.076 3.31-2.671 0-1.555-1.237-2.592-3.05-2.592zm-9.21.259c-.659-.219-1.516-.338-2.174-.338-1.196 0-2.352.378-2.352 1.654 0 2.193 3.588 1.037 3.588 2.393 0 .438-.638.617-1.156.617-.917 0-1.555-.159-2.353-.677v1.116c.6.2 1.416.319 2.293.319 1.236 0 2.392-.358 2.392-1.654 0-2.313-3.568-1.276-3.568-2.393 0-.458.578-.618 1.076-.618.838 0 1.755.259 2.253.758zm-6.12 1.794c-.32.12-.918.14-1.217.14h-.479v-1.336h.638c.58 0 1.555.12 1.934.459v-1.216h-4.126c.2.239.238.398.238.877v3.269c0 .498-.039.638-.218.898h4.385v-1.237c-.598.458-1.754.458-2.213.458h-.638v-1.415h.46c.318 0 .896.04 1.235.16zm-5.783-1.216c.798 0 1.755.16 2.154.499v-1.236H4.314v1.236c.398-.339 1.256-.479 2.173-.479v3.389c0 .498-.04.638-.239.898h1.814c-.2-.26-.24-.4-.24-.898zM23.892 14c-2.154 0-3.59 1.116-3.59 2.811 0 1.554 1.316 2.591 3.27 2.591.638 0 1.196-.08 1.854-.259v-1.296c-.459.518-1.017.717-1.615.717-1.156 0-1.953-.757-1.953-1.873 0-1.097.816-1.894 1.973-1.894.618 0 1.116.239 1.515.658v-1.316A7.996 7.996 0 0 0 23.891 14z" fill="#cc2131"/></g></svg>