<svg width="36" height="36" fill="none" xmlns="http://www.w3.org/2000/svg"><path d="M18 0c2.837 0 5.52.656 7.907 1.825C31.884 4.753 36 10.895 36 18c0 9.942-8.058 18-18 18-9.94 0-18-8.057-18-18C0 8.06 8.06 0 18 0z" fill="#F2F4F7"/><path d="M29.91 20.75h1.771v.78H29.91v-.78zm-17.301-5.927h.27V16.8h-.318v.778h1.653V16.8h-.31v-1.976h.272v.713h.59v-1.46h-2.738v1.468h.58v-.72zm3.77 2.754h-1.535v-.778h.274v-1.976h-.274v-.747h1.534c.906 0 1.346.276 1.346.952a.806.806 0 0 1-.597.834c.476.09.516.29.516.75v.2h.164l.566-1.977h-.252v-.759h1.974v.747h-.254l.501 1.986h.184a2.426 2.426 0 0 1-.167-.925c0-1.135.561-1.879 1.28-1.879a.887.887 0 0 1 .684.295v-.224h.571v1.36h-.613v-.018c0-.417-.138-.628-.386-.628-.309 0-.418.333-.418 1.032 0 .656.11.968.423.968.216 0 .364-.18.404-.523h.669c0 .889-.457 1.379-1.249 1.379a1.232 1.232 0 0 1-1.137-.713v.644h-1.472v-.768h.312l-.07-.305h-.803l-.078.305h.294v.768h-2.107v-.86c0-.408-.087-.553-.475-.553h-.095v.63h.28l.005.783zm2.377-1.774h.457l-.152-.673a4.229 4.229 0 0 1-.058-.319 2.483 2.483 0 0 1-.069.319l-.178.673zm-2.659-.297c.04.002.08.002.12 0 .335 0 .492-.103.492-.343 0-.24-.172-.345-.535-.345h-.076v.688zm-2.725 3.736-.328-.131c-.13-.053-.205-.098-.205-.21 0-.111.1-.211.262-.211a.475.475 0 0 1 .497.476h.428v-1.113h-.476v.159a.685.685 0 0 0-.554-.238c-.592 0-1 .476-1 1.21a1.034 1.034 0 0 0 .784 1.102l.278.095c.157.055.238.135.238.27 0 .136-.119.274-.319.274-.266 0-.45-.2-.544-.592h-.416v1.21h.456v-.237a.862.862 0 0 0 .7.314c.618 0 1.022-.476 1.022-1.242 0-.613-.252-.899-.823-1.136zm18.523-.06c0 .747-.435 1.232-1.094 1.232-.658 0-1.094-.476-1.094-1.232s.438-1.224 1.094-1.224c.657 0 1.094.49 1.094 1.234v-.01zm-.858.07c0-.476-.031-.702-.238-.702s-.238.192-.238.599c0 .456.04.668.238.668.197 0 .238-.169.238-.556v-.01zm-15.265-.436h.209v1.665c0 .237-.114.387-.319.387-.204 0-.33-.14-.33-.392V18.81h.209v-.758h-1.396v.763h.214v1.615c0 .803.397 1.189 1.208 1.189.728 0 1.075-.374 1.075-1.14v-1.664h.214v-.763h-1.084v.763zm8.011 1.341h.714v1.375h-2.41v-.766h.239V18.79h-.207c.028.116.043.235.043.354 0 .747-.397 1.142-1.163 1.142h-.267v.475h.262v.766H19.51v-.761h.257V18.79h-.214c.026.116.04.235.04.354 0 .747-.397 1.142-1.163 1.142h-.256v.475h.259v.766h-1.484v-.761h.257V18.79h-.257v-.737h1.576c.507 0 .84.209.985.594v-.594h1.581c.526 0 .866.223 1.002.637v-.637h1.427v.737h-.238v1.976h.49l.012-.609zm-5.127-1.008c0-.238-.135-.36-.413-.36h-.07v.771h.065a.373.373 0 0 0 .418-.411zm2.562 0c0-.238-.136-.36-.414-.36h-.072v.771h.058a.373.373 0 0 0 .428-.411zm4.575-.364h.205l-.34.659-.355-.659h.214v-.732h-1.472v.74h.19l.759 1.307v.673h-.335v.766h1.624v-.773h-.33v-.673l.713-1.308h.192v-.732h-1.065v.732zm2.909 1.971c-.295 0-.4-.309-.4-.967 0-.697.105-1.033.397-1.033.238 0 .366.215.366.63v.02h.588v-1.353h-.54v.223a.813.813 0 0 0-.65-.304c-.68 0-1.21.746-1.21 1.878 0 1.073.504 1.765 1.294 1.765.749 0 1.172-.49 1.189-1.382h-.633c-.06.345-.197.523-.402.523zm.19-5.945h-.271v-.735h1.531c.906 0 1.346.276 1.346.952a.806.806 0 0 1-.597.834c.476.09.516.29.516.75v.2h.238v.765h-1.22v-.86c0-.408-.085-.553-.476-.553h-.095v.63h.281v.783h-1.532v-.778h.272l.007-1.988zm.98.683c.04.002.079.002.118 0 .336 0 .493-.102.493-.343 0-.24-.172-.345-.535-.345h-.076v.688zm-2.702 2.14a1.366 1.366 0 0 1-1.118-.5 1.902 1.902 0 0 1-.428-1.281c0-.106.007-.211.02-.316h-.498v-.714h-.27V16.8h.308v.778h-1.652V16.8h.318v-1.976h-.273v.713h-.583v-1.46h2.742v1.006A1.446 1.446 0 0 1 27.163 14c.965 0 1.576.714 1.576 1.846.012.46-.136.909-.418 1.272a1.395 1.395 0 0 1-1.153.523l.002-.007zm.435-1.82c0-.736-.074-1.086-.423-1.086-.35 0-.426.35-.426 1.087s.076 1.084.426 1.084.42-.342.42-1.077l.003-.007zm4.176-1.497.072.142h-.112l-.06-.123v.123h-.102v-.318h.133c.095 0 .143.035.143.095a.086.086 0 0 1-.076.088l.002-.007zm-.043-.07c0-.026-.016-.037-.054-.037h-.015v.076h.022c.03-.005.047-.02.047-.038zm.262.07a.283.283 0 0 1-.088.209.3.3 0 0 1-.428 0 .3.3 0 0 1-.088-.212c0-.08.031-.158.088-.216a.304.304 0 0 1 .516.216v.003zm-.064 0a.238.238 0 0 0-.407-.17.238.238 0 0 0 0 .34.24.24 0 0 0 .169.072.238.238 0 0 0 .238-.238v-.004z" fill="#000"/><path d="m6.138 21.294 4.278-1.458 1.434-5.529H4l2.138 6.987z" fill="#D20000"/><path d="M8.074 15.26h.34v1.02h-.476v-.151c0-.414-.444-.402-.392-.093.024.133.323.604.58 1.113.69 1.365-.302 2.238-.856 1.61l-.093.128h-.311v-1.113h.492v.279c-.024.404.844.475.128-.826a5.77 5.77 0 0 1-.475-.95c-.252-.729.261-1.05.599-1.04a.496.496 0 0 1 .362.138l.102-.114zm1.757 3.204v.4s0 .268-.2.268c-.304 0-.325-.402-.344-1.427-.024-1.34.506-1.346.544-.865v.183h.476v-1.01h-.338l-.09.113c-.026-.135-1.14-.59-1.19 1.53-.042 1.833.407 2.104.897 2.104.326 0 .742-.321.742-.951v-.345h-.497zM5.03 15.556h.418v-.32h.131v2.41l-.152.093v.475h.92v-.475l-.152-.093v-2.41h.136v.32h.42v-.978H5.03v.978z" fill="#fff"/></svg>