<svg width="36" height="36" fill="none" xmlns="http://www.w3.org/2000/svg"><defs><linearGradient id="a" x1="6.042" y1="17.554" x2="31.896" y2="17.554" gradientUnits="userSpaceOnUse"><stop stop-color="#004BAA"/><stop offset=".999" stop-color="#00A55D"/></linearGradient><linearGradient id="b" x1="6.027" y1="12.996" x2="31.872" y2="12.996" gradientUnits="userSpaceOnUse"><stop stop-color="#004BAA"/><stop offset=".999" stop-color="#00A55D"/></linearGradient></defs><path d="M18 0c2.837 0 5.52.656 7.907 1.825C31.884 4.753 36 10.895 36 18c0 9.942-8.058 18-18 18-9.94 0-18-8.057-18-18C0 8.06 8.06 0 18 0z" fill="#F2F4F7"/><g fill="#000"><path d="M6.978 23.683c-.796 0-1.059-.401-1.059-.915h.17c.007.409.206.76.882.76.669 0 .819-.3.819-.557 0-.752-1.776-.234-1.776-1.11 0-.475.356-.712.927-.712.571 0 .98.269.98.872h-.165c-.008-.51-.353-.72-.822-.72-.459 0-.755.179-.755.553 0 .712 1.78.233 1.78 1.105 0 .33-.2.724-.98.724zm2.175-.004c-.752 0-.95-.49-.95-1.023 0-.53.206-1.028.946-1.028.69 0 .883.506.86 1.11H8.376c.015.447.206.801.773.801.47 0 .658-.253.688-.51h.172c-.034.342-.274.65-.856.65zm.687-1.09c.004-.471-.188-.821-.706-.821-.56 0-.755.381-.759.821H9.84zm2.914 1.071v-1.17c0-.451-.094-.716-.526-.716-.424 0-.544.261-.544.716v1.169h-.17V22.49c0-.451-.097-.716-.525-.716-.424 0-.548.261-.548.716v1.169h-.17v-2.013h.098l.038.362c.067-.226.259-.382.627-.382.364 0 .537.176.6.46.057-.273.245-.46.64-.46.533 0 .65.359.65.869v1.164h-.17zm.518 0v-2.013h.165v2.013h-.165zm2.265-.779c0 .498-.275.798-.857.798-.75 0-.942-.49-.942-1.016 0-.538.203-1.036.935-1.036.582 0 .864.3.864.799h-.17c-.01-.421-.225-.65-.694-.65-.601 0-.77.412-.77.887 0 .47.165.868.774.868.473 0 .68-.238.69-.65h.17zm1.107.798c-.75 0-.931-.502-.931-1.028 0-.517.188-1.023.935-1.023.747 0 .939.506.939 1.023 0 .534-.192 1.028-.943 1.028zm.004-1.9c-.623 0-.77.413-.77.872 0 .468.147.876.766.876.624 0 .778-.4.778-.876 0-.459-.15-.872-.774-.872zm2.768 1.881v-1.087c0-.506-.102-.802-.676-.802-.552 0-.706.304-.706.802v1.087h-.17v-2.013h.095l.04.436c.076-.273.32-.456.779-.456.68 0 .796.374.796.958v1.075h-.158zm2.114 0-.03-.464c-.079.28-.304.483-.808.483-.695 0-.856-.44-.856-1.02 0-.572.162-1.032.856-1.032.485 0 .695.199.778.46v-1.18h.161v2.753h-.101zm-.793-1.885c-.608 0-.732.366-.732.884 0 .526.124.876.721.876.616 0 .744-.347.744-.884 0-.506-.105-.876-.733-.876zm2.836 1.885-.03-.432c-.08.268-.297.451-.778.451-.676 0-.8-.37-.8-.954v-1.078h.166v1.09c0 .506.094.798.672.798.574 0 .702-.288.702-.806v-1.082h.17v2.013h-.102zm2.189-.779c0 .498-.274.798-.856.798-.752 0-.943-.49-.943-1.016 0-.538.203-1.036.935-1.036.582 0 .864.3.864.799h-.17c-.01-.421-.224-.65-.694-.65-.6 0-.77.412-.77.887 0 .47.166.868.774.868.473 0 .68-.238.69-.65h.17zm.447-1.09v1.277c0 .323.143.467.552.467.049 0 .097-.004.154-.008v.148c-.05.004-.098.004-.143.004-.51 0-.725-.171-.725-.611V21.79h-.233v-.12l.233-.032v-.47h.162v.478h.706v.144h-.706z"/><path d="M27.824 23.679c-.752 0-.932-.502-.932-1.028 0-.517.188-1.023.935-1.023.748 0 .94.506.94 1.023 0 .534-.192 1.028-.943 1.028zm.003-1.9c-.623 0-.77.413-.77.872 0 .468.147.876.767.876.623 0 .777-.4.777-.876 0-.459-.15-.872-.774-.872zm1.383.794v1.087h-.166v-2.013h.097l.038.432c.075-.272.293-.46.77-.451v.155c-.608-.011-.74.28-.74.79zm-15.858-1.171a.104.104 0 0 1-.084-.03.102.102 0 0 1-.028-.086.113.113 0 0 1 .223-.017.114.114 0 0 1-.048.115.112.112 0 0 1-.063.018z"/></g><path d="M31.797 14.32c-.032-.002-.063-.002-.093-.002-.666 0-1.09.208-1.56.543a.64.64 0 0 1-.18.093c-.046 0-.052-.128-.053-.183l-.002-.133a.207.207 0 0 0-.205-.204h-1.571a.206.206 0 0 0-.206.206v1.306a2.37 2.37 0 0 0-.515-.797c-.51-.513-1.284-.773-2.3-.773-1.074 0-1.89.266-2.427.789l.13-.467a.207.207 0 0 0-.106-.24.206.206 0 0 0-.092-.021h-1.69a.205.205 0 0 0-.2.155l-.734 3.18a.13.13 0 0 1-.13.101.13.13 0 0 1-.13-.105l-.666-3.167a.207.207 0 0 0-.201-.164h-1.817a.207.207 0 0 0-.203.17l-.571 3.16a.134.134 0 0 1-.213.083.134.134 0 0 1-.049-.075l-.677-3.18a.205.205 0 0 0-.2-.158h-1.692a.207.207 0 0 0-.199.26l.13.478c-.526-.567-1.307-.856-2.328-.856-1.158 0-2.01.361-2.532 1.073a2.595 2.595 0 0 0-.222.367V14.48a.206.206 0 0 0-.206-.206H6.248a.205.205 0 0 0-.206.206v5.942a.206.206 0 0 0 .206.205h1.84a.205.205 0 0 0 .205-.205v-1.044c.107.213.245.41.41.581.52.54 1.3.813 2.32.813 1.15 0 1.996-.348 2.516-1.035.34-.449.54-1.04.594-1.758l.684 2.497a.206.206 0 0 0 .198.152h1.998a.207.207 0 0 0 .201-.166l.617-3.328a.133.133 0 0 1 .214-.078.14.14 0 0 1 .048.076l.612 3.332a.207.207 0 0 0 .202.164H21a.207.207 0 0 0 .198-.15l.681-2.434c.054.729.241 1.3.57 1.738.526.698 1.426 1.052 2.675 1.052 1.63 0 2.431-.64 2.803-1.346v.934a.206.206 0 0 0 .206.206h1.578a.206.206 0 0 0 .205-.206v-3.215c0-.759.186-1.119 1.882-1.141A.207.207 0 0 0 32 15.86v-1.335a.208.208 0 0 0-.203-.206zm-20.774 4.643c-.695 0-1.018-.447-1.018-1.405a2.109 2.109 0 0 1 .166-.925.148.148 0 0 0-.133-.211H8.293v-.288a.137.137 0 0 0 .038.006h2.716c.714 0 1.019.424 1.019 1.417 0 .985-.312 1.406-1.043 1.406zm13.043-2.155c.083-.667.343-.926.926-.926.59 0 .817.234.901.926a.077.077 0 0 1-.076.087h-1.674a.077.077 0 0 1-.077-.087zm1.975 1.58a.15.15 0 0 0-.147.124c-.07.389-.252.792-.854.792-.606 0-.908-.342-.978-1.108a.08.08 0 0 1 .02-.06.076.076 0 0 1 .057-.025h1.804l1.984-.004v.28h-1.886z" fill="url(#a)"/><path d="M8.427 13.99h1.702a.206.206 0 0 0 .206-.205v-1.58a.206.206 0 0 0-.206-.205H4.206a.206.206 0 0 0-.206.206v1.58a.206.206 0 0 0 .206.205h1.702a.05.05 0 0 1 .017.002H8.41a.077.077 0 0 1 .017-.002z" fill="url(#b)"/></svg>