<svg width="36" height="36" xmlns="http://www.w3.org/2000/svg"><g fill="none"><path d="M18 0c2.837 0 5.52.656 7.907 1.825C31.884 4.753 36 10.895 36 18c0 9.942-8.058 18-18 18-9.94 0-18-8.057-18-18C0 8.06 8.06 0 18 0z" fill="#F2F4F7"/><g fill="#E82127"><path d="m18.029 30.953 3.365-18.927c3.208 0 4.22.352 4.366 1.788 0 0 2.152-.803 3.237-2.432-4.235-1.963-8.49-2.051-8.49-2.051l-2.484 3.024h.006L15.546 9.33s-4.256.089-8.49 2.051c1.084 1.63 3.237 2.432 3.237 2.432.147-1.436 1.157-1.787 4.344-1.79l3.392 18.93z"/><path d="M18.028 8.457c3.423-.026 7.342.53 11.353 2.278.537-.965.674-1.391.674-1.391C25.67 7.609 21.564 7.014 18.027 7c-3.536.015-7.642.609-12.027 2.344 0 0 .196.525.674 1.391 4.01-1.748 7.93-2.304 11.353-2.278z"/></g></g></svg>