<svg width="36" height="36" fill="none" xmlns="http://www.w3.org/2000/svg"><path d="M18 0c2.837 0 5.52.656 7.907 1.825C31.884 4.753 36 10.895 36 18c0 9.942-8.058 18-18 18-9.94 0-18-8.057-18-18C0 8.06 8.06 0 18 0z" fill="#F2F4F7"/><path d="M19.88 21.147s.065-.072.065-.217a.366.366 0 0 0-.37-.374c-.22 0-.385.177-.385.411 0 .315.313.488.642.488.573 0 .943-.366 1.27-1.142l1.026-2.428h.324v-.402h-1.185v.401h.417l-.735 1.859-.734-1.858h.495v-.402h-1.614v.401h.395l1.117 2.532c-.218.55-.378.685-.728.731zm9.733-3.664h-1.09v.401h.451v2.074h-.45v.402h1.51v-.402h-.39v-1.18c0-.548.373-.893.716-.893.316 0 .52.23.52.644v1.43h-.397v.401H32v-.402h-.456v-1.607c0-.585-.299-.935-.8-.935-.44 0-.853.17-1.131.675v-.608zm-3.496 1.439c0-.856.23-1.192.749-1.192.518 0 .748.336.748 1.192 0 .854-.23 1.191-.748 1.191s-.75-.337-.75-1.191zm2.238 0c0-.895-.605-1.506-1.49-1.506-.883 0-1.49.61-1.49 1.506 0 .893.607 1.505 1.49 1.505.885 0 1.49-.612 1.49-1.505zm-4.666-1.506c-.586 0-1.01.385-1.01.888 0 .454.27.696.993.891.55.143.797.257.797.548 0 .252-.177.398-.486.398-.385 0-.766-.292-.977-.743h-.372v1.03h.352l.093-.443c.19.244.48.442.924.442.68 0 1.048-.464 1.048-.908 0-.522-.371-.724-1.014-.895-.51-.134-.77-.253-.77-.53 0-.226.182-.398.454-.398.42 0 .653.335.841.68h.367v-.96h-.359l-.088.404c-.148-.232-.397-.404-.793-.404zm-8.353-1.312v1.097h.315c.112-.624.24-.694.885-.695h.496v3.452h-.845v.402h2.373v-.402h-.844v-3.452h.495c.646.001.774.07.886.695h.315v-1.097h-4.076zm-7.09 2.015h-.54a.242.242 0 0 1-.242-.242h-.337c0 .112.032.215.088.304H7.16a.305.305 0 0 1-.305-.305h-.337c0 .167.07.318.183.422a.574.574 0 0 0-.183.423h.337c0-.168.137-.305.305-.305h.055a.564.564 0 0 0-.088.305h.337c0-.134.109-.242.242-.242h.54v-.36zm2.086 2.552v-.476h-1.04v-4.09h.625c.755 0 .916.082 1.048.822h.375v-1.3H6.518v1.3h.374c.133-.74.294-.823 1.048-.823h.625v4.091h-1.04v.476h2.807zm.564-2.841h-.258v.289H9.61v.36h1.027v.288h.258a.47.47 0 0 1 .444-.313v-.311a.47.47 0 0 1-.444-.313zm-1.968-4.298a4.396 4.396 0 1 0 .002 8.792 4.396 4.396 0 0 0-.002-8.792zm4.93 4.396a4.929 4.929 0 1 1-9.859 0 4.929 4.929 0 0 1 9.858 0zm-.673 4.397-.115.354-.12-.354h-.14v.477h.087v-.383l.134.383h.072l.134-.386v.386h.087v-.477h-.14zm-.834 0h.389v.077h-.148v.4h-.094v-.4h-.147" fill="#00205B"/></svg>