<svg width="36" height="36" fill="none" xmlns="http://www.w3.org/2000/svg"><path d="M18 0c2.837 0 5.52.656 7.907 1.825C31.884 4.753 36 10.895 36 18c0 9.942-8.058 18-18 18-9.94 0-18-8.057-18-18C0 8.06 8.06 0 18 0z" fill="#F2F4F7"/><path fill-rule="evenodd" clip-rule="evenodd" d="m19.548 8 .445.223c-.185.693-.557 2.228-.544 2.835.006.761.154 1.083.408 1.263-.018.043-.099.105-.266 0-.21-.124-.384-.607-.452-.88-.068.292-.31.874-.68.93-.471.061-.589-.576-.564-1.01.024-.433.402-1.287.928-1.287.08-.006.236 0 .372.21.062-.6.223-1.98.359-2.284h-.006zm-.527 2.47c.106.05.205.353-.092.972-.316.662-.496.693-.613.644-.124-.044-.205-.372 0-.997.111-.26.402-.755.705-.619zm-3.54-.229c.26 0 .396.235.433.353-.204 0-.774 0-.78.953 0 .762.272.966.408.978.1 0 .297-.155.297-.706 0-.557-.198-.817-.297-.872l.297-.18c.199.074.434.056.527.037.111-.495.39-.774.514-.848.198-.124.637-.167.668.396.037.564-.501.997-.774 1.146 0 .47.279.606.434.606.483 0 .445-.7.34-1.003.49-.043.44 1.27-.39 1.27-.68 0-.817-.966-.792-1.424l-.186.198c.087 1.306-.371 1.56-.638 1.56-.297 0-.798-.254-.798-1.245 0-.891.415-1.225.743-1.219h-.007zm1.3.978c-.013-.334.086-1.052.42-1.015.137.012.093.57-.427 1.015h.006zm-6.482 1.653c-.26-.198-.929-.39-.929.464 0 1.028.805 1.672 1.214 1.653.408-.019.31-.768.26-.929.05.087.235.267.557.304.328.03.415-.372.415-.576.093.093.315.254.489.143.21-.143.198-.632.099-.774v.018c-.006.13-.025.39-.167.477-.149.08-.372-.285-.465-.495l-.582-1.35.799-.495.477 1.288c.105.272.365.736.7.736.34 0 .358-.402.327-.6.093.117.34.328.62.266.34-.08.68-.347.464-1.647l.154-.31a1.42 1.42 0 0 1-.501 0l-.316.205c.143.062.434.359.427 1.034.007.155-.024.47-.229.526-.26.062-.495-.57-.526-1.065-.037-.495.18-.873.644-.866-.037-.1-.155-.298-.371-.316-.273-.019-.694.266-.694 1.034 0 .619.143.885.217.94 0 .186-.031.558-.217.514-.185-.043-.353-.495-.414-.718l-.397-1.238 1.14-.805V10l-1.195.711-.18-.804h-.501l.247.928c-.074.087-.328.266-.718.297l.043.254h-.086l-.23-.774-.52.1.366.922c-.161.124-.545.346-.799.31.044.13.137.39.384.39a.592.592 0 0 0 .297-.13l.273-.18c.185.433.606 1.35.743 1.529.05.155.074.476-.21.507-.063-.012-.23-.099-.341-.334l-.564-.916-.198.062H10.3zm-.136.248c.167.229.495.804.508 1.269 0 .464-.273.328-.415.198a2.173 2.173 0 0 1-.47-1.176c-.007-.15.061-.415.377-.291zM5.57 14.729a.68.68 0 0 1-.57.21.619.619 0 0 0 .57.403c.674-.025 1.54-1.158 1.888-1.721l2.717 3.083h.644l-3.15-3.43a29.31 29.31 0 0 1 1.695-2.166c.217-.186.291-.08.304 0 .346-.31.334-.613.284-.725-.414-.371-1.61.718-2.55 2.025a19.326 19.326 0 0 1-1.832 2.321zm18.36-5.88c-1.002 0-2.909.6-2.909 2.55 0 .712.477 2.104 2.309 2.104a2.58 2.58 0 0 0 1.616-.6l-.08-.149.179-.123-.1-.124c-.142.123-.65.489-1.3.489-.816 0-2.284-.613-2.284-1.709 0-.631.353-1.61 2.631-1.838.285-.013.96.043 1.362.328l-.408.235c-.106.062-.186.204-.186.415v.229c-.012.13.05.334.334.136l.656-.421c.137-.087.267-.31 0-.743-.253-.408-.817-.786-1.82-.786v.006zm3.418 1.3-3.021 3.484.222.415c.26-.384.935-1.164 1.554-1.257.025.019.019.093-.173.267-.248.223-.681.928-.619 1.163.05.236.16.459.792.347-.173.365-.08 1.114.638 1.053.409-.038.631-.248.73-.508l-.123-.21c-.062.13-.198.39-.57.451-.384.062-.495-.247-.415-.452l.23-.334c.482.105 1.578.136 1.578-.52 0-.198-.173-.47-.613-.477-.526-.012-1.133.527-1.263.644l-.012.006c-.18.161-.656.322-.62 0 .026-.253.725-1.058 1.078-1.423l-.223-.31c-.204.05-.712.198-1.114.427l1.944-2.24v-.527zm-.545 4.24c.229-.21.823-.657.99-.378.168.26-.557.334-.99.371v.007zm4.03-.155.167-.6-2.383 1.361-.421-.414v.63l-2.223 1.134-.223.142c-.445.273-.928.576-.916.916.006.409.34.502.595.428a6.048 6.048 0 0 0 2.971-2.297l.644.805.105-.62-.371-.507 2.055-.978zm-2.978 1.486c-.743.365-2.315 1.2-2.73 1.671.52-.105 1.796-.594 2.724-1.671h.006z" fill="#000"/><path d="M17.895 12.99c-1.084 0-1.814 1.083-1.888 1.504.26-.371.996-1.059 1.888-1.034.891.025 1.572.929 1.801 1.393-.235-1.442-1.2-1.857-1.801-1.857v-.006z" fill="url(#a)"/><path d="M17.851 12.99c.242-.186.83-.34 1.25.557-.16-.186-.643-.557-1.25-.557z" fill="#CC1127"/><path d="M15.87 15.274a.76.76 0 0 0 .31.526c.043-.452.415-1.368 1.597-1.424 1.182-.056 1.696 1.01 1.808 1.548.272-.322.223-.817.167-1.028-.272-.501-1.034-1.504-1.9-1.498-1.078.012-1.759.928-1.845 1.046-.069.087-.075.297-.069.39.013.062.038.192 0 .266a.607.607 0 0 0-.061.174h-.007z" fill="url(#b)"/><path d="M16.279 16.345c-.062-.124-.087-.409-.099-.539 0-.52.508-1.516 1.671-1.486 1.152.031 1.684 1.072 1.734 1.573l-.075.34a2.29 2.29 0 0 0-.346-1.176v.508l-.477-.663.173.49-.662-.886.328.7-.328-.502-.074.198c.136.378.693.6.953.663a1.27 1.27 0 0 1-.879-.36l.1.36a3.219 3.219 0 0 0-.886-1.145l-.625.383c0 .174-.186.415-.273.514l-.099.495h-.136v.533z" fill="#000"/><path fill-rule="evenodd" clip-rule="evenodd" d="m19.405 16.029-.148.099v.279a.65.65 0 0 1-.638.451c-.359-.024-.508-.216-.557-.451a1.047 1.047 0 0 1 0-.322.31.31 0 0 0-.297-.013c.012.1.012.223-.006.335-.05.235-.198.433-.558.451a.65.65 0 0 1-.637-.451v-.28l-.143-.098v-.167h.273a.99.99 0 0 1 1.034.043l.012.043a.483.483 0 0 1 .34 0l.02-.043a.99.99 0 0 1 1.033-.043h.272v.167zm-.272.018c-.155-.123-.588-.29-.966 0v.31a.49.49 0 0 0 .47.34.495.495 0 0 0 .496-.34v-.31zm-2.445 0c.154-.123.594-.29.965 0v.31a.483.483 0 0 1-.464.34.495.495 0 0 1-.495-.34v-.31h-.006z" fill="#000"/><path d="M16.873 18.196c-.123.074-.384.272-.371.44.006.21.105.334.44.532.334.198.63.458.63.588l-1.15.563c-.02.681-.032 2.16.074 2.662h.123a15.506 15.506 0 0 1-.074-2.575l1.474-.644c.31-.124 1.114-.712 1.275-.96v.248l.278.124c-.006-.334-.117-1.01-.513-1.04.092.087.229.31.074.507v.007c-.198.247-.514.65-1.35 1.033-.111-.123-.396-.402-.594-.507-.248-.124-.693-.403-.31-.972l-.006-.006zm-1.838.464a9.4 9.4 0 0 1 1.386-.21c.031.049-.099.167-.848.21a.866.866 0 0 0-.353.155l-.185-.155zm1.176 1.944-.093.81.186.186.043-.866-.136-.124v-.006zm-.198 1.72.093-.804.192.186-.037.854-.248-.235zM16 22.43l-.049.42h.297l.006-.222-.018.025L16 22.43zm.223-1.925.124.124.1-2.068-.224 1.944zm3.213-.613-.043-.266.297.136.062.427a1.89 1.89 0 0 0-.316-.297zm.019.124.148.99c.103.042.202.092.297.149l-.123-.805a1.537 1.537 0 0 0-.322-.34v.006zm.266 1.733-.1-.65c.104.048.204.104.298.167l.1.656a1.984 1.984 0 0 0-.298-.167v-.006zm.018.105.112.706c.1.058.197.12.29.186l-.104-.712a1.52 1.52 0 0 0-.297-.18zm.162 1.053-.038-.248c.103.063.202.131.297.204v.006l.025-.006c.143.353.087.588.044.657-.124-.1-.273-.032-.403.03l-.03.019v-.57l.265-.086h-.16v-.006zm-.223-3.238-.297-.136-.062-.36.31.168.049.328zm-4.879 6.81v.712h.168v-.719h-.168v.006zm.223-.031h.025v.742h.167v-.742h.08v.742h.186v-.817h.075v.817h.272v-.978l-.34.044c-.23-.18-.093-.458 0-.576v-.285c-.279.075-.254.551-.205.78l-.185-.13-.075.403zm.886-.254v.997h.29l.069-1.084c-.124.037-.248.062-.36.087zm.445-.112-.074 1.115h.409l-.137-1.177a5.222 5.222 0 0 1-.198.062zm.279-.086.142 1.195h.434l-.08-1.406c-.161.08-.327.15-.496.21zm1.058 1.195h-.39l-.086-1.45.278-.166.21.105h-.018v1.51h.006zm.075-1.48v1.486h.44v-1.282l-.434-.204h-.006zm1.021 1.486h-.495v-1.245l.526.223h-.03v1.022zm.087-.997v.99h.328v-.854h.025l-.353-.136zm.724.99h-.31v-.83l.31.112v.718zm.087-.693v.694h.272v-.607l-.272-.087zm.916.694h-.563v-.582l.278.068v.514h.087v-.496l.198.031v.465zm.328 0h-.248v-.459h.186l.062.459zm-4.148-6.414a.167.167 0 0 0 .2-.164.168.168 0 0 0-.127-.162.167.167 0 0 0-.17.268c.025.03.06.05.098.058zm.168.842a.167.167 0 1 1-.328.064.167.167 0 0 1 .328-.064zm-.075 1.096a.166.166 0 0 0 .139-.035.166.166 0 0 0 0-.258.166.166 0 0 0-.139-.035.168.168 0 0 0-.135.164.168.168 0 0 0 .135.164zm3.139-3.758c-.037-.359-.167-.489-.23-.514.267 0 .36.198.372.297v.514l.056.235v.793c-.093-.142-.254-.446-.198-.532.074-.1.05-.341 0-.768v-.025zm.402-.365c.044.03.1.16 0 .433-.13.328.019.236.223.08-.037.106-.074.335.056.422.124.092-.037.854-.13 1.225.117-.142.334-.65.272-1.529.019-.21-.043-.631-.42-.631zm.954.29c-.378-.154-.477.063-.477.193l.29-.124-.061.619.186-.495.142.427.273-.149-.168.434-.105.52-.266.65c.043.557-.019.96-.062 1.09.173-.137.198-.477.223-.738 0-.092.012-.185.025-.247a6.84 6.84 0 0 1 .185-.669c.013-.16.044-.495.044-.606 0-.1.204-.421.31-.57-.026-.05-.162-.186-.54-.334zm-.143 3.591c.26.044.892.242 1.331.725.025-.88-.037-2.724-.458-3.083-.062-.019-.117.068.186.532-.013.508 0 1.64.186 2.123-.106-.148-.508-.414-1.239-.297h-.006zm-7.162-3.188c.167-.285.483-.377.619-.39l-.297.217c.662-.1.78.155.755.297-.235-.204-.477-.204-.557-.173.402.322.433.693.402.835-.247-.736-.718-.83-.922-.786zm-.05.681c.13.062.452.31.706.867-.124-.087-.452-.378-.706-.867zm-.247.291c-.075.062-.18.248-.174.594.013.39.446.62.669.681a.685.685 0 0 1 .495.718 1.336 1.336 0 0 0-.415-.328c.08.118.205.49.254.657-.24-.41-.543-.78-.897-1.096-.434-.607-.149-1.059.061-1.226h.007zm-.644 3.652a6.065 6.065 0 0 1 .03-1.238c-.141.539-.309 1.369-.073 1.412.061.012.21 0 .39-.173.185-.174.464-.112.588-.062.21-.025.668-.025.804.154a.766.766 0 0 0-.65-.433 2.229 2.229 0 0 0-1.09.34zm.582.57h.012-.012zm.012 0 .025-.03c.068-.088.235-.292 1.065-.199 0 .062-.136.47-.198.669v-.298l-.335.514c-.012-.142.013-.501.198-.774a2.11 2.11 0 0 0-.755.112v.006zm1.319 1.746c-.136.08-.47.223-.712.124l.576-.242c-.025-.08-.186-.192-.626 0l.322-.186c-.186-.05-.538-.216-.42-.544.03.099.148.297.346.31-.056-.125-.124-.39.074-.416-.018.124-.037.372.074.421.013-.253.081-.767.23-.804v.34c-.056.21-.1.7.136.99v.007zm5.262-2.254c-.149-.241.068-.39.198-.433l-.056.23c.347-.02 1.09-.013 1.294.203a1.7 1.7 0 0 0 .662.39c.112-.148-.08-.408-.192-.52.254-.018.236-.099.186-.136.037.013.124.124.167.458.037.328-.216.273-.353.198a3.962 3.962 0 0 0-1.9-.39h-.006zm.154-.742c.161-.013.607.05 1.12.377a4.19 4.19 0 0 1-1.113-.384l-.007.006zm1.22.464a.402.402 0 0 1 .415.136c-.124 0-.372-.043-.415-.136zm-1.653 1.188c.266.087.867.508 1.145 1.505.056.155.23.483.483.544.303.08-.062-.99-.21-1.2.13.167.365.476.39.588.062.024.18.012.123-.267h.106v-.408c.037-.031.099-.155.055-.427.081-.062.236-.291.217-.427h-.111v.191l-.161-.29v.408c-.136-.272-.533-.792-1.065-.7.173.025.607.217.953.818l-.427-.335.31.545c-.236-.278-.88-.817-1.597-.736.52.11 1.553.495 1.547 1.176-.303-.403-1.065-1.158-1.758-.985zm-3.467-1.238c.075.155.143.26.217.34v-.897l-.204-.043v.607h-.013v-.007zm-.061-.619-.551-.16-.075.284c.124-.03.409.012.62.372v-.496h.005zm.365.08v.96a.547.547 0 0 0 .408.112v-.99l-.408-.081zm.495.1v.96l.396-.094v-.817l-.402-.05h.006zm.477.062v.786l.476-.118v-.656a4.078 4.078 0 0 1-.476-.018v.006zm.557.006v.644l.402-.112v-.57a4.384 4.384 0 0 1-.396.038h-.006zm.489-.05v.557l.29-.099.087-.012v-.52a3.49 3.49 0 0 1-.377.074zm.458-.093v.52c.111-.012.235-.03.31-.03l.074-.013v-.576l-.384.1zm-4.439 1.647c.007-.068.038-.216.106-.247 0-.08.05-.236.173-.236-.019.056-.062.18-.093.236-.03.061-.136.185-.186.247z" fill="#000"/><path d="M15.431 22.95c-.136.062-.334.29-.08.643a.533.533 0 0 1 .08-.643z" fill="#8B8A89"/><path d="M16.985 24.219a1.78 1.78 0 0 1-.595.724l1.115.632.619.297c-.124-.47.062-.91.347-1.152.229-.185.557-.154.693-.111-.044-.433-.427-.7-.588-.768l-.743.21a2.51 2.51 0 0 1-.848.168z" fill="#878787"/><path d="M15.251 24.51c.025.05.44.346 1.09.408-.31.019-.953-.03-1.09-.408z" fill="#8B8A89"/><path d="M17.647 25.166c-.266-.124-.495.043-.594.136l.7.396c.136-.222.061-.433-.106-.532z" fill="#494949"/><path d="m18.91 24.467-.415-.477v.322l.415.155zm-1.566-.13c.204-.062.631-.062.68.47-.073-.154-.309-.47-.68-.47z" fill="#F0F3FA"/><path fill-rule="evenodd" clip-rule="evenodd" d="M19.944 25.531a.85.85 0 0 1-.681.836c-.031 0-.05-.006-.062-.019a.106.106 0 0 0-.062-.018l-.761-.335a.848.848 0 1 1 1.566-.464zM19.238 25a.164.164 0 1 1-.328 0 .164.164 0 0 1 .328 0zm.161.322a.16.16 0 1 0 0-.322.16.16 0 0 0 0 .322zm.297.18a.164.164 0 1 1-.328 0 .164.164 0 0 1 .328 0zm-.266.507a.164.164 0 1 0 0-.329.164.164 0 0 0 0 .329zm-.192-.118a.164.164 0 1 1-.328 0 .164.164 0 0 1 .328 0zm-.52.043a.16.16 0 1 0 0-.321.16.16 0 0 0 0 .322zm.043-.488a.164.164 0 1 1-.328 0 .164.164 0 0 1 .328 0zm-.061-.162a.164.164 0 1 0 0-.327.164.164 0 0 0 0 .328z" fill="#646464"/><path d="M19.065 25.612a.16.16 0 1 0 0-.322.16.16 0 0 0 0 .322z" fill="#000"/><path d="M19.455 26.423c.873-.434.687-1.226.464-1.548.669.087.929.743 1.021.891.081.124.285.743.397 1.04-.335.031-1.375-.229-1.882-.383z" fill="#878787"/><path d="m14.8 19.44 1.002 2.99-.383.136a.514.514 0 0 0-.322-.31 6.623 6.623 0 0 1-.57-2.34c.037-.402.198-.482.273-.476z" fill="#5F5E5C"/><path d="m17.53 25.655-1.158-.7.037-.068 1.164.694-.044.074zm1.101-1.158a21.242 21.242 0 0 0-1.522-.29l.012-.081c.359.05.947.155 1.529.29.582.137 1.337.335 1.702.515l-.037.074c-.353-.173-1.102-.371-1.684-.508z" fill="#000"/><path fill-rule="evenodd" clip-rule="evenodd" d="M20.767 25.457a.522.522 0 0 0-.155-.025c-.266 0-.482.112-.482.254 0 .142.216.254.482.254a.464.464 0 0 0 .304-.106.365.365 0 0 0 .05-.043l-.199-.334zm.087.322-.149-.254a.643.643 0 0 0-.39.05c-.074.043-.099.08-.099.11 0 .032.025.075.1.112a.663.663 0 0 0 .296.062.372.372 0 0 0 .242-.08z" fill="#F0F3FA"/><path fill-rule="evenodd" clip-rule="evenodd" d="M20.835 26.46c.062-.043.093-.093.093-.136 0-.044-.025-.093-.093-.136a.497.497 0 0 0-.266-.069.496.496 0 0 0-.266.069c-.062.043-.093.093-.093.136 0 .043.031.093.093.136.062.043.16.074.266.074a.495.495 0 0 0 .266-.074zm-.266.155c.248 0 .446-.13.446-.291 0-.161-.198-.285-.446-.285-.247 0-.44.124-.44.285 0 .16.199.29.44.29z" fill="#3F3F3F"/><path d="M15.833 26.212c-.16-.328-.012-1.009.08-1.306h.477l1.078.663c-.155.148-.396.278-.657.371l.199-.08a.433.433 0 0 0-.254-.062c-.124.012-.18.198-.186.235a6.513 6.513 0 0 1-.743.18h.006zm.254-.643c-.142.03-.105.185-.068.266 0-.155.254-.161.384-.143-.043-.055-.167-.148-.31-.123h-.006z" fill="#878787"/><path d="M16.248 25.884c.019-.08.087-.235.186-.204.111.031-.08.149-.186.204zm-.836-3.33.384-.149.161.508-.087.217a.745.745 0 0 1-.061-.031c-.087-.044-.217-.112-.397-.124v-.421zm.223.322a.114.114 0 1 0 0-.23.114.114 0 0 0 0 .23z" fill="#000"/><defs><linearGradient id="a" x1="16.329" y1="13.925" x2="19.48" y2="13.925" gradientUnits="userSpaceOnUse"><stop stop-color="#8F1A22"/><stop offset="1" stop-color="#D03C4C"/></linearGradient><linearGradient id="b" x1="16.025" y1="14.661" x2="19.795" y2="15.008" gradientUnits="userSpaceOnUse"><stop stop-color="#8F1A22"/><stop offset="1" stop-color="#CB0F25"/></linearGradient></defs></svg>