<svg width="36" height="36" fill="none" xmlns="http://www.w3.org/2000/svg"><path d="M18 0c2.837 0 5.52.656 7.907 1.825C31.884 4.753 36 10.895 36 18c0 9.942-8.058 18-18 18-9.94 0-18-8.057-18-18C0 8.06 8.06 0 18 0z" fill="#F2F4F7"/><path d="M9.18 19.056c-.422 0-.63-.24-.63-.641v-1.059h-.381v-.413h.38v-.529l.502-.124v.653h.526v.413H9.05v1.015c0 .16.072.229.233.229.104 0 .188-.005.325-.02V19c-.14.036-.281.056-.43.056zm1.928-.028v-1.287c0-.24-.08-.389-.344-.389-.302 0-.43.321-.43.578v1.098h-.5v-2.895h.5v1.03c.12-.176.353-.272.57-.272.445 0 .706.317.706.746v1.391h-.502zm2.655-.886h-1.396a.551.551 0 0 0 .152.41.44.44 0 0 0 .31.128c.144 0 .232-.028.304-.1.044-.045.08-.1.1-.177h.482a.823.823 0 0 1-.177.385c-.176.208-.437.293-.701.293a.91.91 0 0 1-.658-.257c-.209-.2-.321-.493-.321-.834 0-.333.1-.63.3-.834a.905.905 0 0 1 .666-.265c.31 0 .59.125.762.385.153.229.189.465.18.726l-.003.14zm-.626-.73a.419.419 0 0 0-.317-.12.428.428 0 0 0-.349.16.512.512 0 0 0-.107.325h.902a.542.542 0 0 0-.129-.364zm1.68-.746v2.362H14.3v-2.362h-.842v-.48h2.201v.48h-.842z" fill="#000"/><path d="M16.517 17.389c-.353 0-.537.252-.537.59v1.05h-.505v-2.086h.425l.044.313c.096-.24.344-.34.59-.34.051 0 .104.003.155.011v.482a.844.844 0 0 0-.172-.02zm1.869 1.671c-.217 0-.337-.136-.353-.292-.097.168-.337.313-.634.313-.497 0-.754-.313-.754-.654 0-.397.31-.625.706-.654l.614-.044v-.128c0-.197-.069-.329-.353-.329-.233 0-.37.104-.381.297h-.485c.027-.47.4-.678.866-.678.357 0 .662.113.782.425.052.133.06.281.06.421v.774c0 .096.032.133.116.133.032 0 .064-.008.064-.008v.368a.495.495 0 0 1-.248.056zm-.421-.958-.53.04c-.152.012-.3.105-.3.273 0 .16.14.26.296.26.313 0 .534-.168.534-.477v-.096zm2.257.927-.032-.229c-.124.192-.357.277-.585.277a.8.8 0 0 1-.51-.177c-.248-.204-.369-.517-.369-.91 0-.41.125-.726.373-.93a.786.786 0 0 1 .51-.169c.264 0 .457.088.545.196v-.954h.501v2.896h-.433zm-.517-1.717a.411.411 0 0 0-.337.165c-.104.136-.132.325-.132.505s.028.373.132.51c.072.091.18.163.337.163.393 0 .473-.373.473-.673 0-.301-.08-.67-.473-.67zm3.135.83h-1.395a.55.55 0 0 0 .153.41.439.439 0 0 0 .308.128c.145 0 .233-.028.305-.1.044-.045.08-.1.1-.177h.482a.829.829 0 0 1-.177.385c-.176.208-.437.293-.702.293a.91.91 0 0 1-.657-.257c-.209-.2-.321-.493-.321-.834 0-.333.1-.63.3-.834a.905.905 0 0 1 .666-.265c.31 0 .59.125.762.385.152.229.188.465.18.726l-.003.14zm-.625-.73a.42.42 0 0 0-.317-.12.427.427 0 0 0-.349.16.509.509 0 0 0-.108.325h.902a.544.544 0 0 0-.128-.364zm2.823 1.312c-.189.197-.473.305-.798.305h-1.107v-2.843h1.107c.325 0 .61.108.798.304.293.301.333.722.333 1.115s-.04.818-.333 1.119zm-.397-1.913a.563.563 0 0 0-.401-.16h-.59v1.912h.59a.562.562 0 0 0 .4-.16c.201-.2.205-.537.205-.798 0-.26-.004-.594-.204-.794zm2.775 1.331H26.02a.549.549 0 0 0 .153.41.44.44 0 0 0 .308.128c.145 0 .233-.028.305-.1a.38.38 0 0 0 .1-.177h.481a.822.822 0 0 1-.176.385c-.176.208-.437.293-.702.293a.91.91 0 0 1-.658-.257c-.208-.2-.32-.493-.32-.834 0-.333.1-.63.3-.834a.906.906 0 0 1 .666-.265c.31 0 .59.125.762.385.152.229.189.465.18.726l-.003.14zm-.626-.73a.42.42 0 0 0-.317-.12.428.428 0 0 0-.349.16.51.51 0 0 0-.108.325h.902a.543.543 0 0 0-.128-.364zm2.787-1.279v2.895h.501v-.55l.333-.36.585.91h.582l-.826-1.28.746-.806h-.63l-.79.847v-1.656h-.501zm-.838 1.66c-.205-.032-.257-.036-.445-.06-.113-.016-.24-.06-.24-.209 0-.108.071-.184.16-.22.076-.032.144-.032.216-.032.104 0 .213.036.273.096a.285.285 0 0 1 .084.197h.477a.65.65 0 0 0-.184-.43c-.153-.164-.405-.244-.654-.244-.26 0-.481.076-.633.208a.595.595 0 0 0-.213.47c0 .264.192.497.477.557.184.04.393.052.577.08.13.02.21.1.21.22 0 .229-.258.266-.426.266a.474.474 0 0 1-.317-.093.334.334 0 0 1-.107-.199h-.471a.703.703 0 0 0 .217.44c.173.164.41.24.674.24.285 0 .545-.072.714-.24a.621.621 0 0 0 .18-.457c0-.33-.24-.538-.57-.59z" fill="#000"/><path d="M4.822 16v.539h.55v1.406h.531V16H4.822z" fill="#0099FA"/><path d="M4.53 17.82c0-.42.234-.784.577-.972H4.32a1.639 1.639 0 0 0 .797 2.526v-.576a1.107 1.107 0 0 1-.586-.978zm1.639-1.55v.578a1.108 1.108 0 0 1-.796 2.048v.54a1.638 1.638 0 0 0 .795-3.166z" fill="#0099FA"/><path d="M31.807 17.068a.191.191 0 0 1-.193-.196c0-.11.082-.197.193-.197.11 0 .193.087.193.197a.19.19 0 0 1-.193.196zm0-.359c-.095 0-.157.07-.157.163 0 .094.062.162.157.162s.157-.069.157-.162c0-.094-.062-.163-.157-.163zm.043.262-.034-.075h-.04v.075h-.036v-.205h.076c.039 0 .072.023.072.064 0 .027-.012.049-.037.06l.038.081h-.039zm-.034-.172h-.04v.063h.04c.021 0 .035-.01.035-.032 0-.02-.016-.03-.035-.03z" fill="#231F20"/></svg>