<svg height="36" viewBox="0 0 36 36" width="36" xmlns="http://www.w3.org/2000/svg"><mask id="a" fill="#fff"><path d="M0 .057h1v.886H0z" fill-rule="evenodd"/></mask><mask id="b" fill="#fff"><path d="M.065.057h.87v.886h-.87z" fill-rule="evenodd"/></mask><mask id="c" fill="#fff"><path d="M0 20.827h22V.057H0z" fill-rule="evenodd"/></mask><g fill="none" fill-rule="evenodd"><path d="M18 0c2.837 0 5.52.656 7.907 1.825C31.884 4.753 36 10.895 36 18c0 9.942-8.058 18-18 18-9.94 0-18-8.057-18-18C0 8.06 8.06 0 18 0z" fill="#f2f4f7" fill-rule="nonzero"/><path d="m7 8.153.005 3.781 3.299-.005.014 11.94 4.583-.007-.014-11.938 3.231-.004-.006-3.78z" fill="#005cb9"/><path d="m27.37 23.87-11.68.014-.004-3.513 5.209-3.923c.939-.806 2.057-1.747 2.055-3.09-.001-.895-.561-1.611-1.501-1.61-1.433.002-1.834 1.48-1.9 2.666l-3.872-.756c.422-3.29 2.791-5.351 6.103-5.355 3.066-.004 5.662 1.648 5.667 4.96.002 1.656-.758 2.888-1.965 3.963l-3.554 2.667-.358.225 5.975-.008z" fill="#fff"/><g fill="#1d1d1b"><path d="m27.37 23.87-11.68.014-.004-3.513 5.209-3.923c.939-.806 2.057-1.747 2.055-3.09-.001-.895-.561-1.611-1.501-1.61-1.433.002-1.834 1.48-1.9 2.666l-3.872-.756c.422-3.29 2.791-5.351 6.103-5.355 3.066-.004 5.662 1.648 5.667 4.96.002 1.656-.758 2.888-1.965 3.963l-3.554 2.667-.358.225 5.975-.008zm-16.339 2.87h-.414v-1.077h-.299v-.341l1.003-.001v.341h-.29zm2.181-.282h-.378l-.086.279h-.354l.439-1.418.459-.001.446 1.418h-.445zm-.075-.31-.116-.411-.115.41zm2.544.586-.245-.535-.148.207v.328l-.409.001-.002-1.418h.409l.001.584.393-.586h.39l-.357.52.446.898zm2.664-.003-1.065.001-.002-1.418 1.065-.002v.327l-.64.001.002.206h.516v.316l-.516.001v.23l.639-.002zm3.479-.005-.414.001V25.65h-.298v-.34l1.002-.002v.341h-.29zm2.868-.003h-.366l-.197-.78h-.004l-.183.781h-.381l-.38-1.418h.409l.198.818h.004l.192-.819h.34l.21.818h.005l.195-.819h.333zm2.819-.709c.001.403-.247.727-.677.728-.43 0-.678-.323-.679-.726 0-.424.245-.734.677-.734.433 0 .68.308.68.732m-.892.003c0 .137.015.4.213.4.2 0 .213-.263.213-.4 0-.139-.02-.416-.213-.415-.192 0-.213.277-.213.415"/><path d="M.188.057v.09h.26V.83h.104V.148h.26V.057z" mask="url(#a)" transform="translate(27.353 8)"/><path d="M.194.829h.1V.373c0-.018 0-.046-.003-.085L.29.202V.178l.222.65h.105L.84.179c0 .042 0 .08-.002.117L.836.373v.456h.1V.057h-.15L.564.71.342.057H.194z" mask="url(#b)" transform="translate(28.065 8)"/><path d="M3.356 20.808h.399v-1.293h-.399zm8.973-2.588h.854v-.4h-.854zm-7.02 2.588-.372-.605-.114-.234-.004.004.004.015a.814.814 0 0 1 .026.216v.604h-.322v-1.293h.375l.433.722.004-.004-.029-.359v-.359h.323v1.293zm1.653 0h-.377v-.982h-.271v-.31h.914v.31h-.266zm1.917 0h-.97v-1.293h.97v.298h-.582V20h.47v.29h-.47v.208h.582zm1.439 0-.19-.494h-.123v.494h-.402v-1.293h.658c.113 0 .238.015.334.08a.354.354 0 0 1 .159.308c0 .17-.076.272-.23.342l.235.563zm-.168-.77c.087 0 .19-.014.19-.126a.118.118 0 0 0-.062-.105c-.034-.017-.075-.017-.113-.017h-.16v.247zm1.968.515h-.345l-.079.255h-.323l.402-1.294h.42l.404 1.294h-.405zm-.067-.282-.106-.375-.106.375zm2.175.066c-.024.299-.241.49-.54.49-.388 0-.591-.28-.591-.648 0-.373.179-.683.586-.683.33 0 .519.196.545.519l-.37.019c.004-.11-.037-.247-.172-.247-.174 0-.182.27-.182.392 0 .13.008.35.186.35.123 0 .17-.107.176-.214zm1.294.471h-.376v-.982h-.271v-.31h.914v.31h-.266zm.957 0h.4v-1.293h-.4zm1.903 0h-.406l-.417-1.293h.417l.203.7.038.127.036-.122.203-.705h.326zm2.037 0h-.97v-1.293h.97v.298h-.583V20h.472v.29h-.472v.208h.583z" mask="url(#c)" transform="translate(7 8)"/></g></g></svg>