<svg width="36" height="36" fill="none" xmlns="http://www.w3.org/2000/svg"><path d="M18 0c2.837 0 5.52.656 7.907 1.825C31.884 4.753 36 10.895 36 18c0 9.942-8.058 18-18 18-9.94 0-18-8.057-18-18C0 8.06 8.06 0 18 0z" fill="#F2F4F7"/><path d="M6.896 15.71a.304.304 0 0 1-.062-.195v-2.073l-2.445.699v1.2a.694.694 0 0 1-.176.44.348.348 0 0 1-.213.118v1.273c.122.07.22.176.276.304.075.162.108.34.097.518v3.1c0 1.034.362 1.796 1.822 1.866.521.011 1.055.051 1.541-.17v-1.31a1.624 1.624 0 0 1-.545-.336c-.2-.141-.334-.517-.334-.86V17.84a.687.687 0 0 1 .085-.436.497.497 0 0 1 .386-.166h.565V15.88h-.617c-.146 0-.305-.025-.38-.17zm8.54 5.558a1.504 1.504 0 0 1-.111-.503v-4.966H12.46v1.363a.504.504 0 0 1 .313.236.728.728 0 0 1 .12.43v2.805a.886.886 0 0 1-.062.424.317.317 0 0 1-.256.144h-.405a.68.68 0 0 1-.557-.202c-.25-.281-.156-.84-.156-1.178V15.8h-2.93v1.362c.077.024.148.06.213.106a.569.569 0 0 1 .22.455v3.3c0 2.077 2.189 2.314 3.544 1.583.142-.076.467-.168.467.112v.14h2.771v-1.32a.556.556 0 0 1-.308-.27zm16.366-.087a.71.71 0 0 1-.079-.388v-3.19c0-2.072-1.962-2.303-3.296-1.563-.135.056-.468.164-.468-.112v-.195h-2.755v1.387a1.05 1.05 0 0 1 .423.747v2.817a.838.838 0 0 1-.082.43.56.56 0 0 1-.182.183v1.55h3.084v-1.504a.658.658 0 0 1-.281-.221.714.714 0 0 1-.152-.438v-2.672a2.011 2.011 0 0 1 .008-.23.562.562 0 0 1 .04-.202c.04-.1.194-.136.27-.136h.394a.472.472 0 0 1 .388.203c.25.282.168.834.168 1.178v4.02H32v-1.497a.483.483 0 0 1-.198-.167zm-12.955-8.16c-1.485.076-1.937.867-1.937 1.936v.34a.582.582 0 0 1-.14.44.303.303 0 0 1-.175.107v1.315a.643.643 0 0 1 .254.301c.087.175.061.34.061.522v2.729c0 .185.028.36-.099.518a.524.524 0 0 1-.201.153v1.464h3.201v-1.452a.634.634 0 0 1-.258-.206.761.761 0 0 1-.122-.477l-.012-2.882c0-.17-.027-.299.085-.442a.497.497 0 0 1 .39-.153h.325v-1.408h-.325a.457.457 0 0 1-.393-.146.273.273 0 0 1-.082-.213v-.195a.76.76 0 0 1 .271-.641 1.04 1.04 0 0 1 .737-.202v-1.282c-.505-.199-1.046-.145-1.58-.126zm5.432 8.137a.78.78 0 0 1-.163-.447v-4.937h-2.875v1.386a.64.64 0 0 1 .22.222c.124.146.194.33.2.522v2.807a.842.842 0 0 1-.08.44.618.618 0 0 1-.181.182v1.513h3.06v-1.513a.549.549 0 0 1-.181-.175z" fill="#EC7700"/></svg>