<svg height="36" viewBox="0 0 36 36" width="36" xmlns="http://www.w3.org/2000/svg"><g fill="none"><path d="M18 0c2.837 0 5.52.656 7.907 1.825C31.884 4.753 36 10.895 36 18c0 9.942-8.058 18-18 18-9.94 0-18-8.057-18-18C0 8.06 8.06 0 18 0z" fill="#f2f4f7"/><path d="M28.702 21.766a1.183 1.183 0 0 1-.226.135c-.145.072-.303.146-.446.146a.338.338 0 0 1-.224-.071.37.37 0 0 1-.06-.063c-.011-.016-.022-.033-.034-.048a.916.916 0 0 1-.112-.205c-.228.224-.635.415-1.227.415-.5 0-.897-.128-1.18-.396-.276-.262-.434-.638-.434-1.157v-2.966c0-.125.026-.21.115-.278.093-.071.27-.095.497-.095.22 0 .399.024.491.096.089.068.114.152.114.277v2.83c0 .42.173.628.67.628.498 0 .792-.296.792-.703v-2.755c0-.125.025-.21.115-.278.093-.07.263-.095.49-.095.22 0 .4.024.492.096.088.068.113.152.113.277v3.293c0 .109.017.206.038.284.02.076.043.133.056.166.04.08.077.16.077.266 0 .089-.061.156-.117.2zm-5.425-3.431v3.288c0 .126-.025.21-.115.278-.093.071-.27.095-.49.095-.227 0-.406-.024-.498-.096-.09-.067-.114-.152-.114-.277v-3.2l-.561.04c-.502.037-.522-.39-.522-.627 0-.468.173-.636.484-.636h2.418c.237 0 .416.075.487.414.078.377.046.639-.376.669zm7.608 3.576c-.093.071-.27.095-.49.095-.227 0-.405-.024-.498-.096-.089-.067-.114-.152-.114-.277v-4.077c0-.125.025-.21.115-.278.093-.071.271-.095.497-.095.22 0 .399.024.491.096.09.067.114.152.114.277v4.077c0 .126-.025.21-.115.278zM5.643 14.964h3.218c.315 0 .553.1.647.547.104.498.061.844-.5.884l-1.01.072c.743 4.693 5.091 6.222 7.458 1.168.392-.836.52-.989.949-.882.582.144.661.443.384 1.286-2.046 6.231-8.925 6.855-10.274-1.465l-.82.059c-.669.048-.695-.515-.695-.828 0-.619.23-.84.643-.84zm11.7-3.013a1.193 1.193 0 1 1 0 2.386 1.193 1.193 0 0 1 0-2.386z" fill="#cc2131"/></g></svg>