<svg width="36" height="36" fill="none" xmlns="http://www.w3.org/2000/svg"><path d="M18 0c2.837 0 5.52.656 7.907 1.825C31.884 4.753 36 10.895 36 18c0 9.942-8.058 18-18 18-9.94 0-18-8.057-18-18C0 8.06 8.06 0 18 0z" fill="#F2F4F7"/><path d="M18 32c7.732 0 14-6.268 14-14S25.732 4 18 4 4 10.268 4 18s6.268 14 14 14z" fill="#2E89CD"/><path d="M28.02 23.641a.83.83 0 1 0-1.662.006v.005a.831.831 0 0 0 1.662-.005v-.006zm.108 0v.006a.94.94 0 1 1-1.878.005v-.005a.94.94 0 1 1 1.878-.006zm-.696-.172c0-.103-.07-.157-.194-.157h-.232v.313h.232c.124 0 .194-.064.194-.156zm-.032.275.253.361h-.221l-.227-.328h-.2v.328h-.183v-.955h.432c.21 0 .367.103.367.303a.288.288 0 0 1-.221.29zm-9.346-1.6a5.968 5.968 0 0 1-.222-.637H13.28s1.365-1.237 3.078-2.953a4.379 4.379 0 0 0 1.26-3.112v-.008a4.345 4.345 0 0 0-7.455-3.074 4.41 4.41 0 0 0-1.272 3.128h3.136a1.3 1.3 0 0 1 .367-.912 1.248 1.248 0 0 1 1.789 1.74l-.016.015s-2.503 2.424-4.684 4.552c-.391.41-.604.96-.591 1.527a2.228 2.228 0 0 0 2.207 2.232H20.4a5.316 5.316 0 0 1-1.298-.956 4.811 4.811 0 0 1-1.05-1.542zm8.844-1.941a4.389 4.389 0 1 1-8.777 0v-9.104h3.136v9.253a1.254 1.254 0 0 0 2.508 0v-9.253H26.9l-.002 9.104" fill="#fff"/></svg>