<svg width="36" height="36" fill="none" xmlns="http://www.w3.org/2000/svg"><path d="M18 0c2.837 0 5.52.656 7.907 1.825C31.884 4.753 36 10.895 36 18c0 9.942-8.058 18-18 18-9.94 0-18-8.057-18-18C0 8.06 8.06 0 18 0z" fill="#F2F4F7"/><path d="M15.818 15.572v-1.358h.98v1.358h.808v.789h-.808v2.324c0 .22.112.285.355.285.15 0 .308-.047.448-.08v.808c-.27.032-.504.065-.775.065-.728 0-1.013-.364-1.013-.947v-2.45h-.57v-.79h.575v-.004zm2.124 4.774c.149.033.266.033.41.033.341 0 .528-.093.65-.322.093-.196.158-.317.158-.48 0-.15-.08-.323-.126-.49l-1.097-3.51h.99l.681 2.53h.014l.705-2.53h.98l-1.298 4.116c-.434 1.176-.784 1.494-1.587 1.494-.238 0-.354-.014-.476-.033v-.808h-.004zm4.756-6.37h-.98v5.703h.98v-5.703zm1.54 3.808c.014.854.397 1.186.854 1.186.458 0 .672-.206.915-.49l.71.443c-.379.584-.934.836-1.723.836-1.069 0-1.74-.831-1.74-2.134 0-1.302.671-2.133 1.787-2.133 1.073-.009 1.675.901 1.675 1.89v.402h-2.478zm1.582-.663c-.014-.569-.317-.9-.788-.9-.472 0-.775.331-.79.9h1.578zm1.475 2.563v-4.108h.901v.705h.014c.238-.49.57-.765 1.265-.798v1.036c-.159.005-.215.005-.285.005-.49 0-.915.56-.915.663v2.497h-.98zM4.756 15.576a.756.756 0 1 1 0 1.512.756.756 0 0 1 0-1.512zm1.288 1.289c.416 0 .756.34.756.756a.756.756 0 1 1-.756-.756zm1.289 1.288a.756.756 0 1 1 0 1.513.756.756 0 0 1 0-1.513zm0 2.577c.415 0 .756.34.756.755a.756.756 0 1 1-.756-.756zm1.287-1.289a.756.756 0 1 1-.756.756.76.76 0 0 1 .757-.756zm1.289-1.288a.756.756 0 1 1 0 1.513.756.756 0 0 1 0-1.513z" fill="#059"/><path d="M7.333 15.576a.756.756 0 1 1 0 1.513.756.756 0 0 1 0-1.513zm1.287-1.288a.756.756 0 1 1-.756.756.76.76 0 0 1 .757-.756zm1.289 1.288a.756.756 0 1 1 0 1.513.756.756 0 0 1 0-1.513zm1.288 1.289a.76.76 0 0 1 .756.756c0 .415-.34.756-.756.756a.756.756 0 1 1 0-1.512zm1.288 1.288a.756.756 0 1 1 0 1.512.756.756 0 0 1 0-1.512zM9.909 13c.415 0 .756.34.756.756 0 .415-.34.756-.756.756a.756.756 0 1 1 0-1.512zm10.436 8.028v-.397h.168v.397h.276v.145h-.276v.854c0 .056.038.084.136.084a.733.733 0 0 0 .15-.014v.135a.76.76 0 0 1-.197.019c-.182 0-.257-.047-.257-.196v-.882h-.196v-.145h.196zm1.587.948c-.079.135-.191.28-.462.28-.266 0-.522-.187-.522-.626 0-.387.195-.625.49-.625.247 0 .457.163.457.546v.112h-.78c0 .261.16.448.355.448.15 0 .262-.08.332-.206l.13.07zm-.2-.458c0-.22-.108-.369-.285-.369-.2 0-.308.15-.322.37h.607zm1.148-.131c-.047-.144-.14-.238-.285-.238-.205 0-.327.178-.327.481s.122.48.327.48c.154 0 .238-.05.332-.219l.135.061c-.122.205-.229.303-.462.303-.299 0-.49-.233-.49-.62 0-.388.191-.626.49-.626.247 0 .364.14.438.327l-.158.051zm.555-.826v.63h.005a.489.489 0 0 1 .355-.186c.177 0 .345.093.345.35v.873h-.168v-.869c0-.158-.075-.21-.196-.21-.126 0-.266.103-.345.182v.897h-.168V20.56h.172zm1.167.467v.163h.005a.49.49 0 0 1 .355-.186c.177 0 .345.093.345.35v.872h-.168v-.868c0-.158-.075-.21-.196-.21-.126 0-.266.103-.346.182v.896h-.168v-1.199h.173zm1.419 1.222c-.327 0-.49-.275-.49-.62s.163-.62.49-.62c.327 0 .49.275.49.62.005.345-.159.62-.49.62zm0-1.1c-.2 0-.327.172-.327.48s.126.48.327.48c.196 0 .327-.172.327-.48s-.126-.48-.327-.48zm.892-.589h-.169v1.667h.169V20.56zm.723 1.689c-.327 0-.49-.275-.49-.62s.163-.62.49-.62c.327 0 .49.275.49.62s-.163.62-.49.62zm0-1.1c-.196 0-.327.172-.327.48s.126.48.327.48c.2 0 .327-.172.327-.48-.005-.308-.131-.48-.327-.48zm1.694 0a.434.434 0 0 0-.186.032.422.422 0 0 1 .084.243c0 .238-.197.42-.44.42a.67.67 0 0 1-.214-.033c-.065.019-.093.056-.093.112s.037.089.098.089c.57 0 .751.102.751.336 0 .177-.172.322-.546.322-.336 0-.518-.093-.518-.29 0-.12.075-.177.2-.242-.093-.028-.149-.098-.149-.173 0-.103.07-.15.164-.205a.401.401 0 0 1-.164-.336c0-.252.201-.42.453-.42.13 0 .22.027.299.084a.569.569 0 0 1 .257-.108v.168h.004zm-.57 1.03c-.26 0-.335.117-.335.201 0 .09.056.15.387.15.2 0 .36-.056.364-.173 0-.121-.121-.177-.415-.177zm.01-1.03c-.191 0-.29.12-.29.275 0 .158.127.275.309.275.191 0 .284-.126.284-.266 0-.173-.102-.285-.303-.285zm.798 1.077h.168v-1.2h-.168v1.2zm0-1.489h.168v-.2h-.168v.2zm1.382 1.238c-.08.135-.192.28-.462.28-.266 0-.523-.187-.523-.626 0-.387.191-.625.49-.625.247 0 .458.163.458.546v.112h-.78c0 .261.159.448.355.448.15 0 .261-.08.331-.206l.13.07zm-.206-.458c0-.22-.107-.369-.284-.369-.201 0-.308.15-.322.37h.606zm.491.406a.414.414 0 0 0 .345.187c.182 0 .257-.098.257-.2 0-.304-.71-.145-.696-.584.01-.206.168-.327.397-.322a.533.533 0 0 1 .41.21l-.116.102c-.093-.111-.177-.168-.308-.168-.14 0-.22.07-.22.178 0 .261.696.126.696.574 0 .233-.2.35-.42.35a.597.597 0 0 1-.48-.229l.134-.098zm-20.033-2.189c.047 0 .098.005.098-.06 0-.052-.042-.056-.08-.056h-.074v.116h.056zm-.056.2h-.047v-.358h.14c.08 0 .117.037.117.097 0 .066-.042.094-.084.099l.098.158h-.056l-.098-.159h-.07v.164zm.317-.181a.253.253 0 0 0-.252-.262.253.253 0 0 0-.252.262c0 .144.107.261.252.261.145 0 .252-.112.252-.261zm.052 0a.303.303 0 1 1-.607 0c0-.168.135-.304.303-.304a.31.31 0 0 1 .304.304z" fill="#ADB64E"/></svg>