<svg width="36" height="36" fill="none" xmlns="http://www.w3.org/2000/svg"><path d="M18 0c2.837 0 5.52.656 7.907 1.825C31.884 4.753 36 10.895 36 18c0 9.942-8.058 18-18 18-9.94 0-18-8.057-18-18C0 8.06 8.06 0 18 0z" fill="#F2F4F7"/><g fill="#000"><path d="M8.93 18.544H4v1.159h1.276v2.7h2.37v-2.7H8.93v-1.16z"/><path d="m8.918 18.544 2.234 2.17v1.69h2.36v-1.69l2.232-2.17h-2.661l-.465.596c-.1.131-.19.267-.273.41-.073-.126-.155-.246-.237-.367l-.501-.64H8.918"/><path fill-rule="evenodd" clip-rule="evenodd" d="M17.996 19.588h.31c.09 0 .729-.033.729.317a.26.26 0 0 1-.092.197c-.145.13-.39.137-.628.137h-.319v-.651zm-2.206-1.044v3.86h2.206v-1.416l1.194 1.416h2.496l-1.558-1.547a2.87 2.87 0 0 0 .52-.154c.291-.126.674-.371.674-.875 0-.399-.254-.634-.419-.76-.465-.366-1.14-.486-1.877-.514-.191-.01-.383-.01-.575-.01h-2.66"/><path d="M31.861 18.806c-.291-.082-.82-.257-1.632-.333a7.13 7.13 0 0 0-.628-.033c-.975 0-1.968.224-2.424.782a.959.959 0 0 0-.236.612c0 .69.847.924 1.23 1.006.255.05.674.104.948.132.173.021.464.043.464.202 0 .12-.21.235-.61.235-.574 0-1.13-.23-1.577-.416l-.747 1.061c.437.137 1.34.438 2.643.438.765 0 1.385-.104 1.959-.41.665-.366.747-.771.747-.985 0-.262-.119-.781-1.194-1.033-.274-.06-.747-.126-1.03-.164-.181-.022-.482-.044-.482-.197 0-.12.173-.191.528-.196.51 0 .93.147 1.358.3l.683-1zm-9.939-.262v3.86h4.383v-1.077H24.11v-.361h1.968v-1.028H24.11v-.317h2.132v-1.077h-4.32zm-16.91-3.082v1.916h-1.01v-2.824h3.17c.547 0 .787.058 1.069.276.277.213.356.561.364.844 0 .007.003 1.704 0 1.702H7.596v-.978c-.008-.303.052-.66-.098-.82-.158-.17-.413-.105-.732-.116H5.012zm15.84-.909h-1.01v2.824h1.01v-2.824zm2.457.87c-1.01 0-1.118.276-1.118.597 0 .294.217.526 1.069.526l2.31.003-.68.84c.002.002-2.206-.005-2.215-.006-1.096-.034-1.465-.668-1.467-1.436-.002-.72.487-1.38 1.913-1.39l3.845.006-.006 2.818-1.004.005v-1.958c.003.002-2.639-.005-2.647-.005zm5.096.034v1.915h-1.01v-2.824h3.17c.547 0 .788.058 1.07.276.276.213.356.56.364.844 0 .007.002 1.704 0 1.703h-1.01v-.98c-.008-.302.052-.66-.097-.819-.159-.17-.414-.104-.732-.116h-1.755z"/><path fill-rule="evenodd" clip-rule="evenodd" d="M10.876 14.546h2.487c1.094 0 1.98.633 1.98 1.413s-.886 1.414-1.98 1.414h-2.487c-1.093 0-1.98-.633-1.98-1.414 0-.78.887-1.413 1.98-1.413zm.373.856h1.741c.766 0 1.386.011 1.386.557 0 .547-.62.574-1.386.574h-1.74c-.766 0-1.387-.027-1.387-.574 0-.546.621-.557 1.386-.557z"/><path d="M16.64 14h-1.01v3.377h1.01V14zm.086 1.72 1.533-1.163 1.437.006-1.703 1.175 1.688 1.64h-1.366l-1.589-1.657z"/></g></svg>