<svg height="36" viewBox="0 0 36 36" width="36" xmlns="http://www.w3.org/2000/svg"><mask id="a" fill="#fff"><path d="M0 0h4.816v4.822H0z" fill-rule="evenodd"/></mask><mask id="b" fill="#fff"><path d="M0 0h1.437v3.173H0z" fill-rule="evenodd"/></mask><mask id="c" fill="#fff"><path d="M0 .023h1v.954H0z" fill-rule="evenodd"/></mask><mask id="d" fill="#fff"><path d="M.29.29h.42v.42H.29z" fill-rule="evenodd"/></mask><mask id="e" fill="#fff"><path d="M0 .196h1v.608H0z" fill-rule="evenodd"/></mask><mask id="f" fill="#fff"><path d="M0 .205h1v.59H0z" fill-rule="evenodd"/></mask><g fill="none" fill-rule="evenodd"><path d="M18 0c2.837 0 5.52.656 7.907 1.825C31.884 4.753 36 10.895 36 18c0 9.942-8.058 18-18 18-9.94 0-18-8.057-18-18C0 8.06 8.06 0 18 0z" fill="#f2f4f7" fill-rule="nonzero"/><g fill="#039"><path d="M0 0h4.816v4.313c-.002.17.003.34-.003.509H3.8a3.54 3.54 0 0 0 .137-.486 3.113 3.113 0 0 0-.555-2.485A3.143 3.143 0 0 0 2.249.899 3.176 3.176 0 0 0 0 .693V0" mask="url(#a)" transform="translate(26.612 15)"/><path d="M26.992 15.656a1.62 1.62 0 0 1 .665-.007c.3.061.576.257.709.537.07.14.094.298.099.453 0 .364-.131.716-.316 1.026-.176.289-.4.549-.655.772a3.485 3.485 0 0 1-.782.524c-.033.016-.065.033-.1.043v-.261c.028.046.047.097.075.143.04-.018.08-.039.118-.061-.06-.128-.125-.253-.187-.381-.01-.016-.006-.036-.007-.053 0-.049-.001-.099.002-.148a1.65 1.65 0 0 0 .32-.21c.01-.012.022.006.028.013.106.146.218.287.33.428.004.006.01.012.016.017a.708.708 0 0 0 .148-.13 6.988 6.988 0 0 0-.371-.415c-.006-.008-.021-.016-.016-.026.085-.063.162-.137.23-.217.022-.021.038-.049.062-.066.152.121.303.241.45.365.05-.06.097-.12.143-.182a5.562 5.562 0 0 0-.477-.325c.065-.096.134-.19.186-.293.157.065.307.145.456.227.017.009.033.021.052.026.042-.065.067-.139.096-.21a3.963 3.963 0 0 0-.516-.217 1.12 1.12 0 0 0 .077-.231c.18.029.354.085.527.142.022-.082.03-.167.034-.251a3.775 3.775 0 0 0-.52-.094c.007-.053.008-.106.009-.16.168.013.335.034.5.066a.766.766 0 0 0-.052-.221c-.155-.03-.317-.018-.474-.024-.012-.041-.024-.082-.041-.12.145-.017.29-.014.437-.009a.524.524 0 0 0-.137-.169 2.434 2.434 0 0 0-.381.037c-.022-.034-.051-.062-.077-.092.103-.022.207-.042.312-.051-.007-.017-.025-.023-.04-.032-.054-.029-.108-.058-.165-.08-.028-.013-.056.004-.083.008-.056.012-.11.034-.165.046-.04-.018-.075-.04-.116-.054.046-.023.097-.037.146-.054a1.306 1.306 0 0 0-.342-.018c-.07.014-.14-.003-.207-.011"/><path d="M27.747 15.626c.186.02.374.047.55.112.143.052.273.133.385.235.22.19.37.46.41.748.049.316-.03.636-.147.928a3.305 3.305 0 0 1-.528.84 3.909 3.909 0 0 1-1.38 1.08c-.138.062-.28.118-.424.164-.002-.225 0-.45-.001-.676.044-.017.086-.039.13-.056.079.168.163.334.257.495.048-.017.092-.043.136-.068-.082-.155-.167-.31-.253-.462-.007-.012-.025-.034-.004-.04a2.95 2.95 0 0 0 .5-.335l.355.452c.065-.04.12-.095.18-.146-.102-.13-.212-.255-.32-.382-.015-.019-.04-.034-.048-.057.053-.05.11-.098.16-.152.066-.074.136-.145.195-.225.15.122.295.252.43.391.06-.068.122-.137.168-.216-.115-.1-.232-.198-.352-.294-.032-.025-.067-.046-.093-.077.09-.11.162-.235.223-.363.123.064.237.141.354.215.047.03.09.066.14.093.044-.08.088-.163.117-.25a6.038 6.038 0 0 0-.484-.27c-.01-.006-.028-.014-.02-.028.035-.097.067-.197.088-.298.147.046.286.111.424.177.034.015.066.037.102.047.02-.1.034-.2.033-.303a3.685 3.685 0 0 0-.522-.187c.002-.064-.005-.127-.006-.19.16.03.315.08.468.134.01 0 .03.015.036.001-.02-.1-.053-.195-.095-.287a3.994 3.994 0 0 0-.46-.088c-.015-.052-.045-.1-.056-.152.106.014.214.022.319.043.027.006.054.01.08.012a.991.991 0 0 0-.206-.217c-.015-.012-.031-.024-.051-.023-.092-.003-.183-.006-.275-.004-.03-.025-.054-.056-.083-.08-.01-.01-.025-.017-.024-.032.065-.004.13-.003.196-.004-.025-.027-.063-.034-.095-.05a1.36 1.36 0 0 0-.347-.093c-.052-.024-.11-.038-.162-.062"/><path d="M26.721 15.726a1.21 1.21 0 0 1 .645.048c.153.06.293.168.372.315.105.193.11.424.065.634-.067.298-.22.57-.41.807-.207.253-.457.47-.735.642a.227.227 0 0 1-.047.023V17.6c.09.103.17.215.256.32.043-.016.077-.056.113-.087-.12-.126-.239-.254-.358-.381-.016-.012-.017-.04.002-.051.063-.051.12-.112.174-.173.16.102.312.215.463.33.03-.034.06-.07.088-.105.004-.008.022-.022.01-.031a5.766 5.766 0 0 0-.49-.278c.05-.062.092-.13.128-.201.161.048.32.105.474.17.028.01.054.027.084.032.026-.051.053-.102.077-.155a3.6 3.6 0 0 0-.578-.156c.02-.05.04-.097.05-.15.203.012.406.037.605.083.015-.062.032-.124.035-.187a5.225 5.225 0 0 0-.613-.02c.006-.04.007-.08.011-.121.204-.016.408-.022.612-.013-.004-.054-.008-.11-.026-.16-.2 0-.399.036-.596.068a1.06 1.06 0 0 0-.024-.093c.188-.05.381-.078.574-.1a.641.641 0 0 0-.08-.121 4.178 4.178 0 0 0-.527.14.396.396 0 0 0-.05-.076 2.78 2.78 0 0 1 .481-.151.483.483 0 0 0-.142-.088 2.223 2.223 0 0 0-.404.168c-.019-.017-.04-.031-.06-.045 0-.013.014-.015.022-.022a1.96 1.96 0 0 1 .306-.148.894.894 0 0 0-.218-.035c-.08.037-.154.09-.227.143a.654.654 0 0 0-.086-.026c.04-.044.092-.074.14-.11-.077-.002-.15.018-.226.028v-.033l-.049-.002c.05-.022.106-.026.16-.038m1.844.105c.046.005.089.023.132.037.162.053.316.135.44.253.115.11.21.239.284.379.168.316.216.689.152 1.039-.073.39-.248.753-.47 1.079a4.668 4.668 0 0 1-1.233 1.205h-.5c-.057-.096-.115-.191-.171-.287.21-.116.418-.243.609-.391.104.132.203.267.309.396.066-.053.133-.106.195-.163a4.547 4.547 0 0 0-.318-.39c.153-.13.29-.276.422-.428.12.115.233.239.349.36.075-.064.13-.15.189-.228-.115-.123-.242-.235-.363-.352.023-.034.05-.064.074-.098.078-.103.14-.216.202-.328.033.013.058.04.086.06.102.076.197.158.295.238.044-.092.097-.183.124-.282a3.598 3.598 0 0 0-.38-.28c.05-.12.093-.242.115-.37.137.064.26.153.386.237.024-.118.033-.238.03-.358a3.335 3.335 0 0 0-.372-.2 2.258 2.258 0 0 0-.012-.232c.119.047.236.102.35.16a1.116 1.116 0 0 0-.101-.323c-.012-.021-.02-.05-.045-.056a7.063 7.063 0 0 0-.291-.095 1.242 1.242 0 0 0-.091-.178c.093.019.185.043.273.08a1.191 1.191 0 0 0-.357-.317c-.043-.026-.101-.008-.144-.034a.834.834 0 0 0-.168-.133"/><path d="M26.612 15.906a.552.552 0 0 1 .428.281.737.737 0 0 1 .004.554c-.07.19-.182.363-.323.508-.037.035-.068.076-.11.106.002-.083-.002-.166.002-.248.029.016.055.04.087.05.024-.018.04-.044.06-.066-.047-.03-.098-.052-.148-.075v-.18c.092.01.18.042.269.07.016-.03.034-.061.046-.094-.105-.017-.208-.044-.314-.046a1.768 1.768 0 0 1 0-.103c.123-.004.247.002.37.012a.675.675 0 0 0 .027-.105c-.133-.003-.265.015-.398.026v-.08c.134-.028.27-.05.406-.062l-.003-.09a2.084 2.084 0 0 0-.402.105l-.001-.075c.124-.05.249-.094.379-.123a.428.428 0 0 0-.025-.068c-.124.033-.24.092-.354.145v-.084c.098-.047.195-.095.294-.137a.364.364 0 0 0-.057-.054c-.08.045-.16.09-.236.139v-.083c.043-.027.085-.055.13-.08.009-.007.026-.01.029-.023a.28.28 0 0 0-.093-.038c-.025.009-.043.03-.067.04v-.121M4 16.293h.734v1.435c.003.147.041.305.156.406.126.114.304.141.468.146a.958.958 0 0 0 .404-.067.421.421 0 0 0 .217-.209.708.708 0 0 0 .057-.318v-1.392c.244-.002.487 0 .731 0v1.35c.002.134-.003.271-.035.402a.955.955 0 0 1-.358.57c-.226.17-.51.233-.787.254-.25.013-.504.006-.748-.054-.23-.058-.456-.169-.607-.357-.161-.193-.225-.448-.232-.695zm4.12.656c.001-.219-.004-.438.001-.657.206.004.412 0 .618.001.015-.002.024.013.035.021.148.156.3.308.448.464.165.167.326.338.491.504.16.171.327.334.486.506.005-.193 0-.386.002-.579v-.916h.687l.001 2.538-.552-.001-1.53-1.559c-.002.52 0 1.04 0 1.56-.23 0-.458-.002-.686.001-.005-.23 0-.46-.002-.69zm4.335.094c.001-.25-.002-.5.001-.75.25.002.5 0 .748 0v2.538h-.748c-.003-.596 0-1.192 0-1.788m1.994-.75h2.58c.003.196.002.393.002.59h-.923c-.002.65 0 1.3-.002 1.948-.245-.002-.49 0-.735 0 0-.65.002-1.299-.001-1.948h-.916l-.005-.005v-.585m3.808 0h2.37c-.002.19.001.38-.002.572-.545-.002-1.09 0-1.635-.001 0 .14.002.283 0 .424.461.004.924 0 1.387.002v.533h-1.386c-.002.146 0 .292-.002.438.55.002 1.1 0 1.648 0l.001.57h-2.38v-2.538m4.468.586-.001 1.366c.088.004.175 0 .263.002.142-.002.284.004.426-.008.177-.017.364-.063.492-.194.119-.118.158-.29.163-.452a.874.874 0 0 0-.06-.357.512.512 0 0 0-.208-.237c-.147-.09-.322-.113-.491-.12h-.584m-.737-.586h.937c.245.003.492-.01.736.025.232.033.465.098.664.224.16.1.293.243.377.412.095.19.133.406.129.618 0 .203-.037.408-.127.59a1.04 1.04 0 0 1-.294.358c-.205.157-.456.24-.71.279-.252.042-.51.03-.766.032h-.946c.002-.846 0-1.692 0-2.538m7.412.07c.056.025.129.029.164.086.18.207.308.46.368.727.067.29.054.592-.016.878-.117.485-.39.915-.703 1.296-.141.161-.29.32-.452.461-.036 0-.073.002-.11-.002-.086-.11-.168-.225-.26-.332.165-.14.315-.297.455-.463.092.103.182.21.27.316.038-.029.065-.07.098-.105.033-.043.07-.083.098-.13-.002-.026-.027-.042-.041-.06a5.752 5.752 0 0 0-.234-.26c.079-.1.147-.209.215-.317.03-.05.06-.099.085-.152.04.021.07.06.105.09.063.062.125.125.187.19.057-.094.094-.198.134-.299a2.682 2.682 0 0 0-.274-.259c-.014-.007-.01-.02-.006-.033a1.8 1.8 0 0 0 .116-.39c.029.005.049.028.072.043.073.053.139.114.206.173.02-.134.03-.27.02-.407a3.079 3.079 0 0 0-.25-.188c-.007-.088-.007-.177-.021-.264.075.041.145.088.219.13a1.669 1.669 0 0 0-.168-.403c-.012-.019-.02-.042-.037-.057-.038-.023-.081-.037-.12-.058-.013-.004-.016-.019-.022-.029-.028-.063-.066-.122-.098-.183"/><path d="M.928 0c.041.004.063.045.09.072.2.219.332.497.385.788.061.316.037.644-.043.955-.128.507-.403.966-.745 1.358H0c.029-.034.065-.062.096-.094.072-.07.139-.146.205-.222.021-.023.037-.053.065-.068.077.094.149.192.222.29.073-.078.135-.165.2-.249a3.133 3.133 0 0 0-.222-.29c.119-.162.228-.332.323-.509.076.083.142.175.208.264.06-.097.1-.206.135-.315a2.527 2.527 0 0 0-.2-.26c.054-.145.094-.295.119-.447.072.059.13.134.193.202.021-.154.027-.31.013-.465C1.303.957 1.252.901 1.19.857 1.183.752 1.168.648 1.154.544c.04.03.079.061.12.09A1.796 1.796 0 0 0 .96.06C.947.041.927.024.928 0" mask="url(#b)" transform="translate(28.834 16.65)"/><path d="M30.26 17.404c.038.02.05.062.066.1.062.143.113.295.133.451.02.17.001.34-.021.509a2.983 2.983 0 0 1-.239.794 3.941 3.941 0 0 1-.309.553 1.028 1.028 0 0 1-.055 0c-.044-.076-.096-.15-.138-.226a4.41 4.41 0 0 0 .316-.517c.003 0 .007 0 .01.002.038.052.069.109.102.165.021-.03.031-.066.047-.1.033-.077.063-.154.084-.235a7.187 7.187 0 0 1-.096-.167c.048-.152.097-.307.121-.466 0-.02.017-.002.021.005.023.03.046.06.071.088.03-.153.041-.31.033-.465a.893.893 0 0 0-.086-.116c-.013-.015-.011-.035-.013-.053a2.67 2.67 0 0 0-.047-.321"/><path d="M30.523 18.368c.005-.017-.003-.07.026-.055.031.263-.02.526-.085.78a3.457 3.457 0 0 1-.287.729h-.237c.011-.036.037-.064.055-.096.077-.12.142-.247.21-.372a.95.95 0 0 1 .057.109c.048-.096.078-.201.113-.303.024-.06-.05-.111-.025-.17.058-.152.095-.312.124-.473.011.003.02.013.03.02a4.59 4.59 0 0 0 .02-.17"/><path d="M.647.082.664.078a3.003 3.003 0 0 1-.193.888L.335.967C.362.907.392.848.42.788.42.78.436.762.44.78c.005.005.004.031.017.026.074-.238.138-.48.19-.724" mask="url(#c)" transform="translate(29.898 18.845)"/><path d="M.447.35C.355.38.307.5.364.58a.159.159 0 0 0 .238.039L.549.615.488.517.465.516v.1H.414a9.283 9.283 0 0 0 0-.236c.05 0 .1-.005.15.005.037.009.049.054.039.086C.597.499.567.507.547.52c.027.025.035.072.068.085C.653.569.665.512.653.462.633.375.53.317.447.35M.362.34a.213.213 0 0 1 .285.01.225.225 0 0 1 .064.146V.5a.217.217 0 0 1-.105.179.215.215 0 0 1-.268-.044A.213.213 0 0 1 .362.34" mask="url(#d)" transform="translate(31.29 19.112)"/><path d="M.224.756C.372.71.517.653.659.589.698.66.74.73.777.804H.223z" mask="url(#e)" transform="translate(26.388 19.018)"/><path d="M.378.753C.444.711.5.658.564.614.603.675.648.731.68.795H.32A.584.584 0 0 1 .379.753" mask="url(#f)" transform="translate(27.63 19.027)"/></g></g></svg>