<svg width="36" height="36" fill="none" xmlns="http://www.w3.org/2000/svg"><path d="M18 0c2.837 0 5.52.656 7.907 1.825C31.884 4.753 36 10.895 36 18c0 9.942-8.058 18-18 18-9.94 0-18-8.057-18-18C0 8.06 8.06 0 18 0z" fill="#F2F4F7"/><path d="M16.627 19.01h-1.213l-.29.832h-.584l1.164-3.13h.668l1.164 3.13h-.615l-.294-.831zm-1.056-.475h.897l-.449-1.275-.448 1.275zm3.645 1.06a.67.67 0 0 1-.225.114 1.22 1.22 0 0 1-.365.044c-.19 0-.349-.022-.476-.066a.704.704 0 0 1-.308-.2.797.797 0 0 1-.167-.337 1.95 1.95 0 0 1-.05-.47v-.124c0-.172.015-.326.046-.458a.748.748 0 0 1 .169-.337.776.776 0 0 1 .332-.206c.139-.047.317-.071.533-.071.22 0 .4.024.541.073a.79.79 0 0 1 .333.204.7.7 0 0 1 .164.319c.03.124.044.262.044.415v1.134c0 .176-.02.327-.059.452a.686.686 0 0 1-.19.308.805.805 0 0 1-.34.174 1.964 1.964 0 0 1-.5.055h-.356c-.065 0-.136 0-.213-.002a17.104 17.104 0 0 1-.275-.006l.092-.458.221.006.185.002h.319c.099 0 .183-.008.253-.024a.374.374 0 0 0 .168-.083.334.334 0 0 0 .095-.165.98.98 0 0 0 .029-.263v-.03zm-.505-.3c.105 0 .19-.008.255-.024a.32.32 0 0 0 .154-.08.3.3 0 0 0 .077-.155 1.22 1.22 0 0 0 .02-.245v-.216a3.03 3.03 0 0 0-.013-.316.373.373 0 0 0-.066-.193.273.273 0 0 0-.154-.097 1.105 1.105 0 0 0-.272-.026c-.114 0-.205.008-.272.026a.268.268 0 0 0-.154.097.397.397 0 0 0-.067.193 3.223 3.223 0 0 0-.013.316v.088c0 .129.006.234.015.316.01.083.033.147.067.193.034.047.084.08.152.097.067.018.157.027.27.027z" fill="#1D8649"/><path d="m22.521 16.712-.101.505h-1.53v.769h1.503l-.097.505H20.89v.844h1.634l-.097.505h-2.123v-3.128h2.217zm2.373 2.715c0 .155-.035.263-.106.323-.07.06-.192.09-.365.09h-.716c-.313 0-.535-.06-.665-.176-.13-.117-.195-.286-.195-.506v-.097c0-.243.072-.42.215-.529.143-.11.368-.164.673-.164.152 0 .28.012.38.037a.813.813 0 0 1 .227.085v-.08a.702.702 0 0 0-.024-.197.249.249 0 0 0-.081-.126.337.337 0 0 0-.156-.063 1.467 1.467 0 0 0-.248-.018h-.185c-.067 0-.136 0-.204.002l-.205.004-.184.002.091-.462a44.24 44.24 0 0 1 .712-.008c.358 0 .62.063.787.189.166.125.25.323.25.593v1.101h-.001zm-.554 0v-.356a.493.493 0 0 0-.016-.134.164.164 0 0 0-.063-.09.34.34 0 0 0-.136-.05 1.378 1.378 0 0 0-.233-.016h-.066c-.167 0-.28.02-.34.061-.058.041-.087.116-.087.225v.083c0 .094.028.164.082.209.053.045.155.068.3.068h.56zm2.567.168a.67.67 0 0 1-.225.114c-.09.03-.213.044-.364.044-.191 0-.35-.022-.477-.066a.704.704 0 0 1-.308-.2.795.795 0 0 1-.167-.337 1.945 1.945 0 0 1-.05-.47v-.124c0-.172.015-.326.046-.458a.748.748 0 0 1 .169-.337.776.776 0 0 1 .332-.206 1.7 1.7 0 0 1 .534-.071c.219 0 .4.024.54.073a.79.79 0 0 1 .333.204.7.7 0 0 1 .164.319c.03.124.045.262.045.415v1.134c0 .176-.02.327-.06.452a.686.686 0 0 1-.19.308.805.805 0 0 1-.339.174 1.965 1.965 0 0 1-.5.055h-.357c-.065 0-.136 0-.213-.002a17.051 17.051 0 0 1-.274-.006l.091-.458.222.006.184.002h.319c.099 0 .183-.008.253-.024a.374.374 0 0 0 .169-.083.334.334 0 0 0 .095-.165c.019-.07.028-.158.028-.263v-.03zm-.505-.3c.105 0 .19-.008.255-.024a.321.321 0 0 0 .154-.08.3.3 0 0 0 .077-.155 1.22 1.22 0 0 0 .02-.245v-.216a3.03 3.03 0 0 0-.013-.316.374.374 0 0 0-.066-.193.273.273 0 0 0-.154-.097 1.105 1.105 0 0 0-.272-.026c-.114 0-.205.008-.272.026a.268.268 0 0 0-.154.097.397.397 0 0 0-.067.193 3.192 3.192 0 0 0-.012.316v.088c0 .129.005.234.015.316.01.083.032.147.066.193.034.047.084.08.152.097.065.018.157.027.27.027zm1.543-2.719h.571v3.265h-.571v-3.265zm1.564 2.316c0 .105.006.192.018.26a.28.28 0 0 0 .072.157.298.298 0 0 0 .152.08c.065.014.15.022.255.022h.352c.131 0 .294-.004.488-.009l-.088.44a9.493 9.493 0 0 1-.406.008h-.371a1.58 1.58 0 0 1-.515-.07.722.722 0 0 1-.318-.203.731.731 0 0 1-.162-.323 1.882 1.882 0 0 1-.047-.437v-.246c0-.176.016-.331.049-.466a.786.786 0 0 1 .169-.34.738.738 0 0 1 .324-.21 1.62 1.62 0 0 1 .517-.07c.193 0 .353.021.48.063.128.042.23.102.309.178a.628.628 0 0 1 .164.27c.033.105.049.218.049.341v.075c0 .099-.006.181-.018.244a.34.34 0 0 1-.06.147.198.198 0 0 1-.107.07.647.647 0 0 1-.162.019h-1.144zm.474-.976c-.099 0-.18.009-.241.024a.276.276 0 0 0-.146.088.352.352 0 0 0-.07.172 1.764 1.764 0 0 0-.018.274h.945v-.101a.885.885 0 0 0-.023-.215.294.294 0 0 0-.075-.14.31.31 0 0 0-.144-.078.914.914 0 0 0-.228-.024z" fill="#4E5859"/><path d="M8.412 23.469s.648-.799.271-1.414c-.279-.458-1.173-.361-1.665-.5-.99-.279-1.932-1.297-1.742-2.189 0 0 1.432 1.92 3.33 1.21-.224.043-1.414-.436-2.231-1.203-.98-.922-1.769-2.007-1.163-3.846 0 0 .063 3.124 3.462 3.873 0 0-4.32-2.094-2.713-6.21 0 0 .234 2.285 1 2.927 0 0-1.358-2.023.046-4.117 0 0-.422 2.805 1.133 4.107 1.198 1.003 1.996 1.099 2.784 2.266.611.903.686 1.943-.39 3.172 0 0 .33-2.362-2.014-3.667 0 0 3.19 3.368-.108 5.59z" fill="#1D8649"/><path d="M11.921 16.416c-.12.086-.195.186-.168.224.028.038.147 0 .266-.086.12-.086.195-.186.168-.224-.028-.038-.146.001-.266.087zm1.67-.011c-.14.064-.266.136-.381.214-.112.07-.205.14-.293.226l-.045.046c-.672.649-.843 1.593-1.127 2.415l-.001-.003c-.036-.403-.193-.782-.435-1.139a3.9 3.9 0 0 0-.728-.818l-.024-.024c.095-.127.257-.337.394-.482.164-.172.572-.521.64-.577.068-.055.418-.274.709-.131.198-.14.566-.313.775-.22.206.092.364.226.517.493z" fill="#54575A"/></svg>