<svg width="36" height="36" xmlns="http://www.w3.org/2000/svg"><g fill="none"><path d="M18 0c2.837 0 5.52.656 7.907 1.825C31.884 4.753 36 10.895 36 18c0 9.942-8.058 18-18 18-9.94 0-18-8.057-18-18C0 8.06 8.06 0 18 0z" fill="#F2F4F7"/><path d="M7.689 16.064v2.238c0 .766-.37 1.219-1.48 1.219-1.112 0-1.483-.453-1.483-1.219V16.73a.698.698 0 0 0-.695-.673v.435a.26.26 0 0 1 .257.238v1.726c0 .888.695 1.518 1.922 1.518 1.224 0 1.917-.63 1.917-1.518v-2.39H7.69zm12.74 3.393V18.41a.27.27 0 0 1 .264-.265h1.911v-.442h-1.917a.694.694 0 0 0-.258.055v-1.262h3.118v-.44h-3.56v3.842h3.69v-.44h-3.248zm7.905-1.478a.69.69 0 0 0-.262.052l-.003-1.561 2.407-.001a.754.754 0 0 1 .756.755.756.756 0 0 1-.756.757l-2.142-.002zm3.366 1.505a.257.257 0 0 1-.348-.03l-.84-1.067a1.166 1.166 0 0 0-.039-2.332H27.63v3.842h.44l.004-1.252a.268.268 0 0 1 .265-.256h1.618l1.051 1.336a.697.697 0 0 0 .962.101l-.269-.342zm-16.765 0-2.425-.002v-1.09a.273.273 0 0 1 .267-.269h2.158a.68.68 0 0 1 0 1.362M12.51 16.47l2.436.002a.618.618 0 0 1 0 1.236H12.74a.706.706 0 0 0-.23.055V16.47zm3.059 1.442a1.031 1.031 0 0 0-.624-1.856l-2.875-.001v3.842h2.865a1.094 1.094 0 0 0 .634-1.985" fill="#10111C"/></g></svg>