<svg height="36" viewBox="0 0 36 36" width="36" xmlns="http://www.w3.org/2000/svg"><g fill="none"><path d="M18 0c2.837 0 5.52.656 7.907 1.825C31.884 4.753 36 10.895 36 18c0 9.942-8.058 18-18 18-9.94 0-18-8.057-18-18C0 8.06 8.06 0 18 0z" fill="#f2f4f7"/><path d="M30 18C29.765 5.178 12.724.41 6.157 12.37c.313.235.704.47 1.016.704-.469 1.017-.86 2.111-1.016 3.206-.156.703-.156 1.407-.156 2.188-.078 6.645 5.316 12.04 11.96 12.04 6.645 0 12.039-5.395 12.039-12.04zM8.893 20.11c-.156 1.329-.078 1.72-.078 1.876l-.313.078c-.078-.156-.39-.938-.469-1.954-.312-3.909 2.346-7.348 6.332-8.052 3.675-.547 7.27 1.72 8.052 4.925l-.312.078c-.079-.078-.235-.312-.782-.938-4.456-4.377-11.414-2.267-12.43 3.987zm11.492 2.19a3.406 3.406 0 0 1-2.736 1.407 3.303 3.303 0 0 1-3.284-3.283c0-1.72 1.33-3.127 3.05-3.283 1.094-.079 2.032.547 2.5 1.485.548 1.016.313 2.267-.468 3.049.312.234.625.39.938.625zm6.8.156c-1.719 3.909-5.315 6.02-9.145 5.941-7.27-.39-9.46-8.833-4.535-11.882l.235.235c-.078.078-.39.312-.86 1.25-.547 1.095-.703 2.19-.625 2.815.39 5.94 8.677 7.113 11.491 1.25 3.674-7.973-5.941-16.181-14.54-9.928l-.156-.156c2.267-3.518 6.644-5.081 10.866-4.065 6.332 1.564 9.85 8.286 7.27 14.54z" fill="#000"/></g></svg>