<svg width="36" height="36" fill="none" xmlns="http://www.w3.org/2000/svg"><path d="M18 0c2.837 0 5.52.656 7.907 1.825C31.884 4.753 36 10.895 36 18c0 9.942-8.058 18-18 18-9.94 0-18-8.057-18-18C0 8.06 8.06 0 18 0z" fill="#F2F4F7"/><path fill-rule="evenodd" clip-rule="evenodd" d="M5.901 16.08h.528l1.939 3.275h-.603l-.348-.553-2.479.006-.317.54H4l1.901-3.267zm-.615 2.138h1.79l-.895-1.54h-.025l-.87 1.54zm4.256-2.137 1.938 2.572s2.05-2.56 2.038-2.572c0-.006.726-.006.726 0 .007 0 .007 3.268.007 3.268h-.578v-2.436l-1.957 2.436h-.441l-1.901-2.467v2.467l-.553.006V16.08h.72zm5.28 0h3.3v.559h-2.74v.764h2.596v.516l-2.59-.007-.007.889h2.74v.547h-3.299V16.08zm7.617.391c.03.112.093.61.05.889a.574.574 0 0 1-.349.472c.64.192.274 1.025.386 1.516h-.553l-.006-.64c.012-.1 0-.36-.031-.417-.006-.012-.019-.13-.174-.167l-2.467.006v1.218h-.565V16.08h3.206a.61.61 0 0 1 .503.391zm-.473.634a.574.574 0 0 0-.068-.323c-.062-.124-.198-.15-.335-.143h-2.268v.926h2.268c.13.006.267-.019.335-.137a.585.585 0 0 0 .069-.33v.007zm1.169 1.733c.223.572.72.497.956.51h2.032c.329 0 .708-.062.888-.355.13-.21.168-.733.168-.733h-.49s0 .056-.02.125a.558.558 0 0 1-.037.124s-.05.18-.298.273c-.248.1-2.205.087-2.479-.006a.459.459 0 0 1-.28-.267h-.006c-.074-.336-.086-1.367 0-1.634.044-.118.156-.243.28-.274.267-.099 2.23-.105 2.473-.012.248.1.298.28.298.28.018.037.03.074.043.112a.629.629 0 0 1 .019.136h.49s-.037-.521-.167-.74c-.18-.291-.56-.353-.895-.353h-2.03c-.23.012-.485.043-.684.168-.254.161-.366.453-.379.751-.024.622-.093 1.392.112 1.889l.007.006zm8.219-.354s-.069.18-.317.274c-.249.099-2.206.086-2.479-.007a.46.46 0 0 1-.28-.267c-.08-.335-.092-1.367-.006-1.634.05-.118.156-.242.28-.273.341-.118 2.23-.106 2.479-.013.248.1.323.293.323.293l-.006-.007c.117.224.105 1.435.006 1.634zm-.435.839c.23-.013.472-.037.665-.162.26-.161.372-.453.385-.752.025-.62.093-1.391-.112-1.882a1.158 1.158 0 0 0-.323-.354c-.236-.15-.385-.174-.714-.174h-2.032c-.236.012-.484.044-.683.168-.261.161-.373.453-.385.751-.025.622-.093 1.392.117 1.892.224.581.721.5.957.513h2.125z" fill="#A67631"/></svg>