<svg height="36" viewBox="0 0 36 36" width="36" xmlns="http://www.w3.org/2000/svg"><mask id="a" fill="#fff"><path d="M0 0h28v1.789H0z" fill-rule="evenodd"/></mask><g fill="none" fill-rule="evenodd"><path d="M18 0c2.837 0 5.52.656 7.907 1.825C31.884 4.753 36 10.895 36 18c0 9.942-8.058 18-18 18-9.94 0-18-8.057-18-18C0 8.06 8.06 0 18 0z" fill="#f2f4f7" fill-rule="nonzero"/><path d="M26.438.89h.833c.132 0 .18-.075.18-.18V.634c0-.113-.057-.18-.227-.18h-.786zm-.54-.871h1.468c.51 0 .634.256.634.597v.151c0 .265-.114.559-.493.559h-1.069v.445h-.54zm-2.508 0h.54v1.013c0 .217.075.303.293.303h.54c.217 0 .293-.086.293-.303V.019h.54v1.127c0 .435-.227.643-.72.643h-.766c-.492 0-.72-.208-.72-.643zm-2.12.966c0 .256.047.35.302.35h.692c.255 0 .312-.094.312-.35v-.19c0-.217-.057-.349-.341-.349h-.634c-.284 0-.331.132-.331.349zm-.559-.35c0-.52.294-.635.776-.635h.862c.483 0 .776.114.776.635v.521c0 .51-.293.633-.776.633h-.862c-.482 0-.776-.123-.776-.633zM18.837.88h.89c.151 0 .198-.056.198-.189V.634c0-.151-.075-.18-.246-.18h-.842zm-.54-.861h1.628c.417 0 .531.199.531.52v.105c0 .236-.058.379-.303.435.16.039.293.105.293.388v.303h-.539v-.208c0-.189-.057-.246-.219-.246h-.852v.454h-.539zm-2.546.616c0-.52.284-.635.776-.635h.805c.615 0 .7.218.7.559v.057h-.53c0-.18-.104-.199-.274-.199h-.587c-.265 0-.341.066-.341.369v.217c0 .294.076.361.341.361h.577c.142 0 .284-.02.284-.19v-.047h-.672v-.37h1.212v.502c0 .502-.265.53-.871.53h-.644c-.492 0-.776-.123-.776-.633zM12.145.019h.53v.625h1.136V.019h.539V1.77h-.539v-.662h-1.136v.662h-.53zM9.589.635c0-.52.293-.635.776-.635h.634c.757 0 .861.161.852.654h-.53V.606c0-.123-.095-.16-.256-.16h-.586c-.285 0-.341.132-.341.349v.19c0 .256.057.35.312.35h.578c.237 0 .312-.019.312-.237h.54v.161c0 .293-.114.53-.653.53h-.862c-.482 0-.776-.123-.776-.634zM7.402.019h2.054v.435h-.757V1.77h-.54V.454h-.757zm-1.277 1.06h.681L6.465.426zm-.01-1.06h.7l.966 1.751h-.606l-.161-.312H5.916l-.151.312h-.606zm-3.834 0h.531l.369 1.287h.009L3.635.019h.492l.455 1.287.369-1.287h.529L4.913 1.77h-.616L3.881.616 3.474 1.77h-.625zM0 1.193h.53c.01.189.085.199.237.199h.663c.113 0 .227-.01.227-.143 0-.151-.067-.16-.758-.16C.095 1.089 0 .985 0 .559 0 .237.028 0 .71 0h.748c.615 0 .681.208.681.511v.057H1.6c0-.122-.019-.18-.266-.18H.738C.615.388.54.426.54.521c0 .151.066.161.634.161.842-.01 1.032.047 1.032.559 0 .472-.162.548-.872.548H.682C.189 1.789 0 1.695 0 1.316z" fill="#384593" mask="url(#a)" transform="translate(4 18.195)"/><path d="M31.11 16.709v-.417h-.417v.417h-.416v.417h.416v.407h.417v-.407h.407v-.417zm-1.126.208a.911.911 0 0 1 .908-.917h.01c.5 0 .918.406.918.917a.925.925 0 0 1-.918.918.919.919 0 0 1-.918-.918zm-12.382-.123h.152a.548.548 0 1 0-.53.682c.256 0 .464-.18.53-.417h-.152zm3.71-.009h.256a.669.669 0 0 0-1.325.132.668.668 0 0 0 1.325.133h-.255zm4.999.312h-.331v-.331h.33v-.331h.209a.77.77 0 0 0-.625-.303.794.794 0 0 0-.795.793v.002c0 .435.36.785.795.785a.782.782 0 0 0 .616-.283h-.2z" fill="#c93231"/></g></svg>