<svg width="36" height="36" fill="none" xmlns="http://www.w3.org/2000/svg"><path d="M18 0c2.837 0 5.52.656 7.907 1.825C31.884 4.753 36 10.895 36 18c0 9.942-8.058 18-18 18-9.94 0-18-8.057-18-18C0 8.06 8.06 0 18 0z" fill="#F2F4F7"/><path fill-rule="evenodd" clip-rule="evenodd" d="M31.465 18.723a.351.351 0 0 0-.023-.12l.01-.003-1.879-3.33a.217.217 0 0 0-.015-.025.427.427 0 0 0-.075-.1l-.026-.021a.447.447 0 0 0-.1-.063.442.442 0 0 0-.18-.041h-.017a.455.455 0 0 0-.133.028l-.046.02a.449.449 0 0 0-.12.087.453.453 0 0 0-.061.086l-2.316 4.137-.015.035-.004.01a.334.334 0 0 0-.044.147l-.007.036c0 .223.191.404.427.404a.083.083 0 0 0 .033-.005.443.443 0 0 0 .16-.043.474.474 0 0 0 .116-.08.33.33 0 0 0 .061-.079.163.163 0 0 0 .022-.036l1.944-3.494 1.476 2.625.041.071.006-.002.027.03c.009.01.018.016.034.029.027.022.055.04.087.055a.422.422 0 0 0 .492-.072.39.39 0 0 0 .125-.286zm-6.238-2.201c0-.397-.15-.758-.422-1.015-.343-.326-.875-.506-1.498-.506h-2.255a.212.212 0 0 0-.059.01l-.03.005a.302.302 0 0 0-.07.017.414.414 0 0 0-.264.376v4.174c0 .22.192.405.42.407h.012a.417.417 0 0 0 .427-.404c0-.018-.002-.03-.005-.026v-3.79h1.782c.7 0 1.101.281 1.101.785 0 .468-.405.785-1.033.808l-.085.005v.005a.41.41 0 0 0-.339.396.34.34 0 0 0 .015.095h-.046l1.54 1.93a.518.518 0 0 0 .23.169.45.45 0 0 0 .129.026l.02.001c.02 0 .037-.004.05-.008a.428.428 0 0 0 .259-.123.384.384 0 0 0 .121-.27.4.4 0 0 0-.123-.28l-1.075-1.342c.764-.211 1.198-.728 1.198-1.445zm6.297 2.586a.465.465 0 0 0-.476.451c0 .249.214.451.476.451a.465.465 0 0 0 .476-.45.465.465 0 0 0-.476-.451zM8.725 15.404h.089A.417.417 0 0 0 8.386 15a.417.417 0 0 0-.427.404l.003 2.336c0 .972-.773 1.48-1.537 1.48-.902 0-1.557-.636-1.557-1.514v-1.375a.417.417 0 0 0-.426-.405.417.417 0 0 0-.427.405v1.409c0 1.305 1.03 2.29 2.398 2.29h.022c1.38-.012 2.38-.988 2.38-2.33l-.001-2.296h-.089zm-4.284.433a.43.43 0 0 0 .441-.417.43.43 0 0 0-.44-.418.43.43 0 0 0-.442.418c0 .23.198.417.441.417zm14.456-.832L15.06 15a.16.16 0 0 0-.045.005c-.02.002-.035.008-.058.016a.378.378 0 0 0-.071.023c-.028.012-.048.027-.083.052a.277.277 0 0 0-.04.032.395.395 0 0 0-.068.094l-.018.028a.382.382 0 0 0-.033.154c0 .051.011.103.033.152a.135.135 0 0 0 .018.03.389.389 0 0 0 .066.093.332.332 0 0 0 .049.038.386.386 0 0 0 .153.073c.01.004.024.01.032.01.02.006.045.008.076.008h1.468v3.778a.413.413 0 0 0 .039.165l-.002-.003.01.019a.395.395 0 0 0 .097.117c.03.026.064.048.106.067l.025.01a.424.424 0 0 0 .308 0 .225.225 0 0 0 .046-.024.428.428 0 0 0 .085-.055.512.512 0 0 0 .092-.116c.01-.019.016-.037.025-.06.004-.009.01-.022.015-.04a.424.424 0 0 0 .009-.083v-3.774h1.57v-.017a.4.4 0 0 0 .325-.388c-.001-.207-.172-.381-.392-.4zm-4.754 4.176h-2.789v-3.777a.39.39 0 0 0-.124-.286.452.452 0 0 0-.469-.087.405.405 0 0 0-.26.373v4.182c0 .163.102.309.26.373a.44.44 0 0 0 .167.031h3.215a.416.416 0 0 0 .427-.404.416.416 0 0 0-.427-.404z" fill="#5B6770"/></svg>