<svg height="36" viewBox="0 0 36 36" width="36" xmlns="http://www.w3.org/2000/svg"><mask id="a" fill="#fff"><path d="M0 15.607h28V0H0z" fill-rule="evenodd"/></mask><g fill="none" fill-rule="evenodd"><path d="M18 0c2.837 0 5.52.656 7.907 1.825C31.884 4.753 36 10.895 36 18c0 9.942-8.058 18-18 18-9.94 0-18-8.057-18-18C0 8.06 8.06 0 18 0z" fill="#f2f4f7" fill-rule="nonzero"/><g fill="#006caa"><path d="M13.655 23.58c.004.006.009.013.012.02a.167.167 0 0 1 .013.07v.006l-.007.037-.021.044a.278.278 0 0 0-.033.084c-.006.006-.016.016-.033.039-.047.059-.17.217-.233.175 0 0-.004-.005-.004-.027v-.021c.019-.17.136-.274.259-.384l.047-.043zm10.319-.091.007.004c-.004.006-.074.057-.074.057l-.087.057a.284.284 0 0 0-.038.014l-.018.008.002-.005a.068.068 0 0 0 .023-.022 2.06 2.06 0 0 0 .185-.113zM20 23.416c.013.006.016.01.016.01 0 .007-.011.027-.087.079a.6.6 0 0 1-.017.012l-.061.046-.037.016-.034.017.01-.025.016-.014.013-.015.043-.028.138-.098zm-2.155-.096a.236.236 0 0 0 .01.003c.028.008.044.015.055.029l-.01.014-.003.006c-.04.049-.107.08-.166.108l-.058.029-.05.026c-.05.027-.092.048-.136.065a.134.134 0 0 1 .017-.04c.053-.071.106-.145.18-.197l.016-.011.042-.022.048-.005.055-.005zm-7.843-.002a.217.217 0 0 0 .038.004s.023 0 .033.002c.003.003.007.013.007.045 0 .03-.005.067-.008.097l-.002.01-.005.067v.003a.102.102 0 0 0 .024.045 1.78 1.78 0 0 0-.086.09c-.08.086-.164.176-.266.252-.003 0-.063.029-.063.029h-.011a.285.285 0 0 1-.022-.056.38.38 0 0 0 .033-.11l.015-.068a.839.839 0 0 1 .24-.36l.008-.007.065-.043zm-3.673-.008a.418.418 0 0 1 .12.02c0 .008-.005.035-.005.035l-.008.027a.308.308 0 0 1-.035.104l-.003.005-.001.005a.22.22 0 0 1-.025.056c-.003.004-.007.008-.011.016l-.036.056c-.061.096-.117.188-.21.272 0 0-.044.044-.063.05a.084.084 0 0 1-.047 0c-.035-.014-.043-.068-.043-.112v-.008l.01-.108.002-.006.005-.04-.002-.011a.02.02 0 0 0 .006-.002v-.001c.007-.006.014-.017.027-.072l.019-.031.008-.026c.01-.031.014-.046.035-.054a.027.027 0 0 0 .017-.02c.004-.021.028-.042.044-.058a.806.806 0 0 0 .03-.037.563.563 0 0 1 .11-.054.79.79 0 0 0 .02-.003zm8.95-.001.07.006c.003.003.01.013.01.05a.79.79 0 0 1-.01.112l-.005.066s.016.042.026.053a39.31 39.31 0 0 0-.09.099 1.965 1.965 0 0 1-.262.262l-.063.03-.012-.001a.24.24 0 0 1-.024-.062.361.361 0 0 0 .033-.118l.015-.067a.904.904 0 0 1 .238-.378s.055-.04.074-.052zm4.73-.033c-.003 0-.004 0-.052.017l-.041.014a.681.681 0 0 0-.142.098l-.046.048-.094.094c-.013.012-.015.014-.015.02 0 .007.003.008.005.01a17.54 17.54 0 0 1-.04.04.24.24 0 0 1-.051.013s-.082.012-.11.04a.076.076 0 0 0-.02.049l.003.017c.017.038.072.055.118.059v.02l.004.017a.05.05 0 0 0-.01.03 11.296 11.296 0 0 0 .014.089l.008.093c.02.058.079.193.185.226l.077.016c.029.006.06.013.097.01.197-.014.44-.238.486-.283a.962.962 0 0 0 .157-.227l.016-.026a.384.384 0 0 0 .036-.107l.005-.006s.01.029.01.054l-.006.053.01.069-.01.117v.029a.333.333 0 0 0-.01.065l.01.07a.462.462 0 0 0-.003.058c0 .078.018.19.138.227a.027.027 0 0 0 .018-.005l.024-.011c.029-.013.052-.023.072-.043l.046-.063a.492.492 0 0 1 .066-.087c.01-.006.014-.008.04-.096 0-.002.002-.003.005-.007l.042-.08c.002-.002.003-.006.003-.01s-.002-.007-.003-.01a.02.02 0 0 0-.017-.01c-.062-.005-.13.09-.131.092l-.007.017c-.016.025-.1.122-.128.149a.24.24 0 0 0-.02-.05 1.61 1.61 0 0 1 .01-.02l-.001-.063-.005-.05a.324.324 0 0 0 .012-.034l.006-.184v-.02l.003-.07a.29.29 0 0 0-.121-.263.16.16 0 0 0-.143-.046c-.016.002-.032.047-.032.049l-.007.099-.02.063-.02.072a.971.971 0 0 1-.328.373c-.006.003-.022.01-.073.037l-.037.018c-.008.004-.005.013-.005.013l-.006.007a.208.208 0 0 1-.073.014c-.165-.001-.201-.096-.234-.187a.442.442 0 0 0 .002-.05l-.004-.101a.267.267 0 0 0 .036-.048c.009-.017.014-.031.026-.04l.197-.085c.06-.036.258-.156.26-.261l-.006-.03c-.02-.051-.08-.081-.176-.092zm-2.791-.03.048.009c.043.006.092.012.1.03v.009c0 .008-.004.027-.03.06l-.012.024.002.008a2.623 2.623 0 0 1-.23.23c-.002.004-.005.007-.01.032v.006l-.013.004c-.004.002-.005 0-.093.08l-.024.024c-.004.004-.028.02-.19.149l-.041.033-.024.02-.031.028-.097.05c-.018 0-.032.013-.044.024-.007.006-.016.016-.021.017l-.003-.006v-.001a.754.754 0 0 0-.006-.063l.003-.032v-.07l-.01-.058.005-.066.002-.038a1.95 1.95 0 0 0-.001-.018l.004-.058c.007-.031.055-.102.078-.11a.014.014 0 0 0 .01-.01c.024-.105.187-.18.275-.22h-.002l.1-.045c.044-.011.095-.014.14-.017l.009-.001.02-.005a.02.02 0 0 0 .008-.003l.026-.002a.104.104 0 0 0 .052-.014zm-7.196-.094a.248.248 0 0 0-.111.047c-.002 0-.026.017-.026.017l-.048.033-.128.15-.043.068-.051.077-.003.006v.007a.198.198 0 0 1-.016.046l-.026.055-.005.009a.814.814 0 0 0-.058.278v.015l.005.059.028.052.022.032a.033.033 0 0 0 .02.015c.198.014.383-.19.518-.338l.053-.058a.987.987 0 0 0 .033-.038l.018-.02-.02.126.009.18.009.059-.002.003c0 .012.005.027.058.11l.026.025c.025.017.108-.013.117-.02l.026-.022c.017-.013.023-.041.02-.104v-.001a.029.029 0 0 0-.02-.024c-.027-.008-.051.004-.068.017a.797.797 0 0 1-.005-.04.636.636 0 0 1-.014-.133v-.041l.01-.087.01-.048.012-.054v-.065l.013-.076v-.003l-.01-.054-.003-.002-.027-.025h-.004c-.037-.011-.076.008-.091.017-.01.005-.017.015-.028.028l.005-.026a.227.227 0 0 0 .01-.065c0-.13-.135-.166-.207-.185l-.003-.002zm5.278-.007a.238.238 0 0 0-.11.048c-.001.002-.021.015-.02.015a.784.784 0 0 0-.053.038c-.002 0-.003 0-.124.153l-.093.152-.02.062-.03.065a.877.877 0 0 0-.057.287l-.001.016.006.057c0 .006.002.007.028.056l.02.034c0 .002.02.013.02.013.193.015.375-.198.509-.352l.052-.06.054-.062-.018.137.007.187.009.067c0 .009.004.025.055.109 0 .002.027.026.027.026.02.015.083-.007.104-.018a.24.24 0 0 0 .032-.027c.013-.01.02-.031.02-.076l-.001-.026a.026.026 0 0 0-.018-.024.076.076 0 0 0-.068.02l-.006-.046a.669.669 0 0 1-.014-.14s0-.05.002-.053c0-.014.008-.083.008-.083a.585.585 0 0 0 .012-.05l.01-.055v-.066l.013-.083-.01-.053-.032-.027c-.033-.01-.07.007-.088.019a.156.156 0 0 0-.036.039c0-.004.003-.01.004-.015a.469.469 0 0 0 .015-.094c0-.122-.104-.16-.202-.188zm-7.3-.03c.02.005.04.01.053.02a.177.177 0 0 1 .009.104l-.01.026-.017.056-.013.008-.006.004-.003.005-.007.023-.003.004h-.001a.943.943 0 0 1-.225.236l-.031.024h-.002l-.013.004.01-.05.012-.062-.007-.044c.002-.021.012-.044.022-.067l.017-.038a.636.636 0 0 1 .11-.193l.02-.026A5.07 5.07 0 0 0 8 23.115zm1.25-.003a.248.248 0 0 0-.022.009.195.195 0 0 0-.038.092c-.006.028-.01.055-.023.065l-.004.004c-.004.005-.006.006-.008.05v.03l-.01.05c-.006.028-.013.058-.013.088l.004.035-.006.023-.005.04-.01.155.003.037v.019c0 .01-.006.038-.006.038 0 .006.008.078.017.105l.005.044c.006.034.02.119.092.144a.1.1 0 0 0 .092-.016.12.12 0 0 0 .043-.111l-.001-.005-.002-.003c-.004-.005-.008-.012-.04-.02l-.024.007-.011.004c-.006-.01-.023-.05-.028-.214l-.001-.036v-.017l-.005-.03.015-.094h-.001l-.011-.058.002-.004a.606.606 0 0 0 .012-.03c.002-.001.002-.001.025-.124l.025-.135a1.065 1.065 0 0 0 .03-.054l.002-.005.002-.008c0-.032-.02-.07-.1-.075zm2.183-.003a.086.086 0 0 0-.027 0l-.005.002s-.025.008-.04.01h-.001l-.101.036s-.06.028-.065.028c-.004 0-.02.01-.02.01-.001.002-.05.02-.05.02l-.052.034-.032.02-.01.009a.284.284 0 0 0-.064.162v.008a.276.276 0 0 0 .077.177l.057.038h.003c.002.003.285.083.378.054a.766.766 0 0 0 .039.014l.05.002h.018l.033.004a.215.215 0 0 0 .08-.002.07.07 0 0 0 .037.017c.047.006.08.02.09.039l.005.02-.002.02-.012.024a.377.377 0 0 0-.011.029.228.228 0 0 0-.061.067.543.543 0 0 0-.02.025l-.02.015-.025.024-.024.02c-.08.063-.285.142-.362.083l-.024-.035-.003-.008a.166.166 0 0 1-.02-.083l.002-.028-.002-.032v-.04l-.005-.014-.006-.014a.048.048 0 0 0-.035-.017h-.013l-.003.002c-.03.01-.034.04-.036.05l-.001.008a.405.405 0 0 0-.011.097c0 .076.016.143.046.185.042.06.14.099.219.087l.043-.01.035-.01a1.2 1.2 0 0 1 .024-.003l.003-.001.096-.027.002-.001c.099-.045.365-.24.374-.417a.16.16 0 0 0-.01-.073c-.015-.042-.045-.06-.067-.074l-.013-.01c-.012-.01-.114-.063-.167-.051a.516.516 0 0 0-.051-.006l-.108-.008-.058-.006-.016.008-.004-.002-.033-.004-.008-.006s-.015-.002-.027.006l-.035-.004a.167.167 0 0 1-.007-.004c-.015-.005-.036-.013-.06-.01l-.082-.022-.013.005c-.012-.002-.124-.027-.124-.113v-.011c.002-.003.005-.015.028-.034a.628.628 0 0 1 .219-.105l-.01.013a.113.113 0 0 0-.052.036.202.202 0 0 1-.006.019v.006l.002.01v.002c.01.02.032.029.052.022l.02-.007.03-.001.003-.001c.007-.002.009-.002.06-.035l.064-.045.019-.02.003-.002v-.001l.045-.041.006-.011.006-.032a.074.074 0 0 0-.023-.053c-.03-.031-.077-.036-.115-.027l-.003-.002a.018.018 0 0 0-.013-.004zm7.232-.107c.038-.001.12.016.192.02l.114.008.136.006-.007.026a6.061 6.061 0 0 1-.116.415 3.09 3.09 0 0 1-.112.303l-.032.07a2.153 2.153 0 0 1-.102.212.284.284 0 0 1-.135.125s-.043-.04-.044-.297v-.014c0-.127.008-.277.02-.405.01-.082.013-.162.019-.205v-.005l.005-.05c0-.005.012-.032.012-.032v-.001c.003-.014-.002-.024-.007-.033l-.001-.03.013-.036.02-.053.005-.016c0-.005.008-.007.02-.008zm-13.101-.003-.008.003c-.013.008-.104.07-.114.126l-.01.01-.008.007a.15.15 0 0 0-.031.066.111.111 0 0 0-.033.032.145.145 0 0 0-.025.039l-.006.01-.04.069-.027.05s-.012.022-.024.04l-.065.113-.017.039c-.014.034-.027.065-.051.083l-.006.005-.001.007c-.016.058-.072.164-.072.164l-.028.057-.005-.035a.124.124 0 0 0 .018-.066.163.163 0 0 0-.01-.06.13.13 0 0 0 .013-.032l.002-.022a.04.04 0 0 0-.005-.02l.012-.016c0-.004.002-.005.023-.15l.01-.088.024-.093-.001-.028-.001-.01.01-.044v-.001l-.013-.084c-.006-.04-.014-.084-.06-.116-.097-.067-.215.019-.264.074l-.044.06-.032.035c-.038.039-.08.084-.09.13a.025.025 0 0 1-.006.002l-.015.01-.003.008a.245.245 0 0 1-.041.07l-.021.03-.05.08-.027.046.01-.045.01-.11v-.004c.005-.013.009-.034.017-.067l.022-.123.012-.058-.005-.034-.002-.002a.079.079 0 0 0-.045-.046c-.023-.01-.051-.007-.084.008 0 0-.017.016-.03.135l-.007.092-.01.062h.002l-.01.02-.003.02.008.01-.008.008-.013.098-.006.062-.012.059-.021.13-.025.199v.059l-.007.066v.003a.074.074 0 0 0 .037.055c.035.022.075.015.106-.017a.167.167 0 0 0 .044-.106l-.003-.014a.778.778 0 0 1 .017-.023l.029-.071-.001-.01-.005-.021v-.01l.005-.02v-.01l.007-.008c.004-.005.009-.016.03-.061l.014-.046.02-.045.006-.031.03-.041.029-.06.035-.072c.045-.075.102-.151.175-.24l.03-.045a.225.225 0 0 1 .105-.072l.01.032c0 .015.002.036.005.074a.565.565 0 0 1-.016.118l-.003.015c-.004.018-.02.05-.02.056 0 .009.004.014.006.019v.015a5.453 5.453 0 0 0-.012.078l-.012.054a.799.799 0 0 0 0 .049l-.008.048a8.608 8.608 0 0 0-.02.159l.003.122c-.003.017-.01.146-.01.146l.012.029.01.022c.006.008.015.017.036.017.007 0 .014-.004.02-.01a.954.954 0 0 0 .028-.005c.062-.026.079-.057.094-.083l.023-.04s.029-.068.046-.097l.027-.05a.242.242 0 0 0 .009-.048l.004-.004c.013-.022.03-.077.03-.077s.022-.041.023-.06a.049.049 0 0 0 .024-.021.103.103 0 0 0 .018-.055v-.005a.406.406 0 0 0 .059-.094s.02-.028.033-.057a.13.13 0 0 0 .02-.057v-.003a.669.669 0 0 0 .104-.147v-.029l.032-.03.026-.037c.008-.017.014-.025.032-.033a.505.505 0 0 1 .002.047l-.003.09-.01.167-.01.24c0 .108.01.193.029.27l-.003.028c0 .03.009.079.032.11a.081.081 0 0 0 .056.037c.064.008.117-.05.138-.111.02-.054.009-.102-.03-.123h-.027c-.005.002-.017.009-.02.022l-.003.006a.086.086 0 0 1-.002-.008.118.118 0 0 0-.02-.066l.008-.056-.004-.081-.006-.097.007-.1.005-.1.008-.04-.002-.065-.001-.013.002-.04c0-.008.007-.043.007-.091 0-.091-.018-.151-.054-.18-.024-.017-.05-.022-.075-.028a.113.113 0 0 1-.018-.003zm16.966-.19a.05.05 0 0 0-.021.005c-.027.017-.068.04-.07.093l.008.034c.004.012.007.019.004.029s.02.037.02.037l.018.02.042.017.004-.001c.093-.016.093-.016.093-.036l-.004-.018a.017.017 0 0 0 .002-.005l.006-.037a.153.153 0 0 0-.093-.138h-.01zM9.352 22.51h-.006c-.048.003-.076.028-.1.048l-.002.003-.002.003-.004.016c-.004.005-.004.01-.004.013 0 .01.005.026.019.03.008.004.015.012.023.02a.56.56 0 0 0 .022.026c.003.003.002.003.07.036.012.007.024-.001.028-.004.042-.01.05-.043.054-.062l.006-.021-.003-.022a.04.04 0 0 0-.014-.012l-.017-.023-.017-.02v-.001l-.027-.017zm-2.063-.01a.411.411 0 0 0-.047.01l-.03.013v.009a3.65 3.65 0 0 1-.053.174l-.003.006-.005.016-.002.013.002.008-.015.052-.02.1-.013.113a31.806 31.806 0 0 0-.28.043l-.122-.015-.011-.005a.536.536 0 0 1-.024-.012.05.05 0 0 0-.045-.013c-.025.004-.042.026-.051.044a.069.069 0 0 0-.004.072c.017.03.05.05.106.055.014 0 .146.03.146.03l.067.012c.014.003.024 0 .034-.005l.009.005c.016.019.037.013.049.009a.047.047 0 0 0 .026-.023.034.034 0 0 0 .006-.015l.006-.014-.01-.005-.016-.014c-.008-.004-.022-.006-.022-.006l.02-.004.039-.01.067-.015-.001.02-.012.15v.084c-.004.034-.02.072-.031.103l-.014.034c-.023.063-.052.12-.081.173l-.011.02-.016.033a.284.284 0 0 1-.06.096l-.006.006-.001.007c-.007.039-.054.098-.098.142l-.02-.001c-.033-.013-.073-.165-.073-.165l-.003-.018h-.001l-.005-.047-.001-.01.005-.022-.01-.038a.529.529 0 0 0-.006-.03c0-.01 0-.02.002-.036l-.008-.044-.002-.013c.003-.01.008-.023.016-.055l.003-.015a.277.277 0 0 0 .013-.083.174.174 0 0 0-.012-.07l-.001-.002-.022-.036-.006-.012a3.963 3.963 0 0 0-.031-.047c-.022-.017-.07-.026-.07-.026l-.042-.011c-.026-.012-.104-.044-.168-.028a.323.323 0 0 0-.24.088l-.047.036c-.002 0-.026.035-.026.035a1.148 1.148 0 0 1-.013.014.34.34 0 0 0-.023.034l-.05.08a.748.748 0 0 0-.09.258v.092l-.001.033c0 .037.005.067.018.093l.002.01c.007.038.04.109.118.118a.086.086 0 0 1 .002.008c.004.005.018.018.034.013l.029-.01.02-.007c.153-.037.233-.158.304-.265l.057-.083a.424.424 0 0 0 .039-.036c.013-.011.029-.024.04-.04l.002.01c0 .007 0 .016.003.032l.004.047a.596.596 0 0 1 .012.03c.016.096.032.197.099.283.015.02.03.04.062.053.04.019.083.02.124.005.127-.046.22-.248.282-.382l.01-.018.02.14.012.047.019.09c0 .007 0 .016.003.03l.019.1.024.049.012.042.026.054v.007a.1.1 0 0 0 .033.072l.007.01.01.012.005.013c.016.036.042.097.09.1.03 0 .055-.017.077-.056 0 0 .003-.007.003-.012a.106.106 0 0 0-.003-.018c-.003-.007-.01-.011-.016-.014l-.008-.017-.016-.026-.021-.022a.194.194 0 0 0-.003-.018c0-.004-.003-.013-.013-.045l-.001-.004-.03-.035-.003-.003c0-.003.003-.004.003-.007v-.004l-.013-.042-.005-.012-.004-.006-.001-.016v-.001l-.014-.037-.005-.015v-.017c0-.004 0-.004-.014-.051l-.013-.04a.703.703 0 0 0-.005-.03l-.007-.056-.015-.02c0-.002.003-.003.003-.003a.273.273 0 0 0 .007-.022l-.003-.016-.014-.011.006-.048s-.005-.027-.01-.037a.027.027 0 0 0 .004-.016l-.01-.035-.006-.012a.087.087 0 0 0 .003-.014l.003-.021-.007-.047-.005-.043.005-.047v-.055c.002-.001.007-.018.007-.018.006-.017.013-.036.013-.057l-.005-.028a.134.134 0 0 0 .019-.044.857.857 0 0 0 .007-.04l.003-.023.012-.035.003-.063c0-.006.004-.015.006-.026l.029-.008a.568.568 0 0 0 .037 0l.033.004c.022-.003.347-.01.366-.008l.06-.012.009-.002c-.01.01-.02.024-.031.036l-.005.005-.023.037-.018.026a.729.729 0 0 0-.021.029c-.017.026-.097.173-.098.25l-.01.017a.593.593 0 0 0-.04.19l.012.078c.015.082.064.282.192.359.052.032.11.04.174.024a.285.285 0 0 0 .13-.093l.049-.043.035-.032.098-.144a1.42 1.42 0 0 0 .115-.187l.027-.062c.035-.086.063-.146.085-.18l.004.036.007.044-.002.054-.005.013-.006.035-.012.076-.013.048-.005.03c-.004.009-.017.056-.017.056v.033l-.006.028-.011.055a.74.74 0 0 0-.016.042l-.003.068v.024l-.004.015a2.313 2.313 0 0 0-.005.038.098.098 0 0 0 .077.077c.045.005.13-.054.13-.054l.067-.067.203-.171.053-.04s.007-.015.007-.038l-.001-.048c0-.013-.008-.022-.025-.03-.014-.003-.044.012-.044.012l-.037.023-.05.03-.054.04-.03.035a.741.741 0 0 0-.12.1l-.026.02.004-.035c0-.006.003-.014.005-.024l.007-.058.02-.065.003-.022.007-.053.02-.043c.017-.072.03-.15.033-.224v-.01a.391.391 0 0 0-.027-.151l-.004-.011c-.013-.032-.03-.072-.081-.09a.09.09 0 0 0-.104.03l-.037.066-.011.024-.071.163a3.3 3.3 0 0 1-.108.199l-.02.033c-.015.029-.032.06-.055.073l-.008.009a.444.444 0 0 0-.014.032l-.024.035-.014.016c-.04.049-.11.138-.185.128-.07-.01-.097-.098-.115-.158l-.005-.015c-.004-.014-.01-.027-.01-.037l.003-.01a1.22 1.22 0 0 1 .142-.08l.02-.03c.04-.03.125-.136.125-.136a.757.757 0 0 0 .137-.23.247.247 0 0 0 .014-.078l-.007-.065-.002-.018-.01-.044c-.035-.064-.113-.106-.21-.112h-.006l-.005.002a.625.625 0 0 0-.066.037l-.001-.003c-.013-.025-.08-.028-.08-.028a6.643 6.643 0 0 0-.137-.002c-.01-.005-.023-.007-.05-.006 0 0-.022-.01-.025-.01-.008-.006-.012-.006-.077 0l-.15.01-.013.002-.044.006c.015-.071.024-.123.025-.154 0 0-.003-.026-.006-.034 0-.002.004-.003.004-.003l.003-.01.007-.063.004-.013a.05.05 0 0 0-.005-.018l.007-.024.01-.034.004-.03a.128.128 0 0 0-.025-.077l-.003-.005-.043-.02zm16.316-.075c.006.012.024.063.024.063a.062.062 0 0 1 .007.03c0 .057-.096.253-.096.253l-.07.098a.306.306 0 0 1-.067.084.835.835 0 0 1-.044.024l.009-.018.013-.06.03-.068.003-.012c.027-.092.074-.261.142-.338l.047-.055.002-.001zm-7.164-.176h-.002c-.038.018-.044.048-.05.072a.674.674 0 0 1-.003.018l.003.073s.008.018.016.027l.004.07-.001.038.006.058.006.076-.003.03-.001.173-.02.317-.024.3a.608.608 0 0 0-.005.046c-.003.007-.004.02-.008.045l-.026.04a.155.155 0 0 0-.04.08v.02a.084.084 0 0 0 .066.065l.012.079a1.59 1.59 0 0 0-.004.06l-.002.097-.015.04c0 .015.027.14.04.159.016.019.039.029.07.028.045-.002.117-.05.18-.095l.04-.025.03-.016.065-.031c0-.001.05-.035.068-.05l.044-.021.02-.008.036-.022.105-.046c.07-.041.134-.074.202-.104l.03-.017.038-.013.005.015.003.038c.002.029.003.049.04.086a.182.182 0 0 0 .163.05.97.97 0 0 0 .347-.14l.04-.023c.16-.1.276-.204.437-.386l.037-.041c0-.002.033-.041.04-.051a3.228 3.228 0 0 1-.013.125l-.002.084c-.002.18-.015.207-.02.212-.002.003-.002.008-.002.01l.003.025.006.01.004.067-.002.084.015.088-.002.085c0 .004.045.208.123.235.038.013.08-.007.102-.02a.586.586 0 0 0 .15-.162c.117-.16.193-.31.238-.47l.017-.035.018-.037.047-.156-.001.027a.438.438 0 0 0-.022.076l-.003.036a.37.37 0 0 0-.013.06l-.003.054-.012.057c-.013.07-.028.142-.031.208v.055a3.844 3.844 0 0 1-.005.028l-.01.049.002.078-.006.046-.018.125.003.02.004.058-.002.02v.002c0 .003 0 .005.032.127a.014.014 0 0 0 .014.012.106.106 0 0 0 .104-.038.156.156 0 0 0 .034-.101l-.005-.048c-.001-.004-.043-.075-.043-.076l-.001-.033.004-.065.004-.048a2.7 2.7 0 0 0 .006-.036l.006-.037a3.97 3.97 0 0 1 .073-.568l.002-.071c.004-.012.01-.04.025-.104l.006-.053a.365.365 0 0 0 .012-.03l.007-.07.005-.056.027-.11a.25.25 0 0 1 .004-.021c.002-.017.003-.03.01-.037.026-.034.184-.03.268-.028h.083l.038-.008.049.003.049.004.144-.006.035.002.087-.016.066.008.06-.01.029-.006a.508.508 0 0 0 .028.002l.028.002.03-.005.025-.003c.007 0 .04.009.04.009l.06-.012.115-.01.063-.013h.029l.04.004.03-.002c.006 0 .01-.004.013-.008l.008-.001a.025.025 0 0 0 .007-.017l-.01-.032-.003-.01c-.01-.01-.011-.011-.202-.015l-.061.007-.02-.002-.045-.002a.695.695 0 0 0-.19.008h-.027l-.012.002a.482.482 0 0 0-.042-.01c-.006-.001-.012.003-.016.007a.028.028 0 0 0-.011.005l-.062.003h-.032a.13.13 0 0 0-.078-.002h-.001l-.015.002h-.025l-.064-.006c-.003-.001-.008-.001-.033.003l-.02.004h-.064l-.032.002c-.024-.003-.053-.008-.08-.002l-.09.002h-.02a.15.15 0 0 0-.06 0l-.027-.002h-.04a.08.08 0 0 1-.032 0 6.21 6.21 0 0 1 .008-.086l.004-.051.007-.086a1.94 1.94 0 0 0 .01-.185c0-.103-.014-.164-.042-.191a.063.063 0 0 0-.052-.015c-.03.005-.052.035-.058.064-.001 0-.02.137-.03.185l-.007.038a5.09 5.09 0 0 0-.012.108c-.006.079-.008.15-.03.222-.013 0-.15 0-.171.004a.03.03 0 0 0-.013-.004h-.046c-.03.003-.068.004-.074-.003l-.008-.005a.138.138 0 0 0-.083.01l-.033-.002c-.042-.001-.042.023-.042-.002 0-.026-.003-.02-.004-.03l.025-.072.013-.043v-.032l.04-.104.022-.055a.274.274 0 0 0 .013-.022s.018-.022.02-.027c.004-.008.016-.022.02-.036a.525.525 0 0 1 .017-.054c.005-.032-.021-.063-.048-.078-.027-.014-.067-.012-.087.007l-.033.058c-.021.037-.04.065-.06.119l-.011.058a2.62 2.62 0 0 0-.042.175.21.21 0 0 0-.016.06l.002.023v.013c-.003.01 0 .024-.008.026l-.028.005-.023.004h-.07l-.184-.011-.05.003-.068.003a.274.274 0 0 0-.028-.005.291.291 0 0 0-.114 0 .79.79 0 0 0-.03-.006.193.193 0 0 0-.08-.002 1.297 1.297 0 0 0-.095-.021c-.02 0-.036.004-.05.019-.011.013-.018.024-.018.035l.004.015c.013.039.088.054.11.057l.075.03.087.006.102.009.012-.002a.992.992 0 0 1 .149-.018l.04.006h.017l.044-.003a.112.112 0 0 0 .02-.004l.017-.002c.005 0 .027.006.027.006h.007l.044.009.028-.001c.015-.004.019-.003.022 0a.125.125 0 0 1 .002.015c-.002.008-.004.009-.011.037l-.001.004s-.005.028-.007.05l-.004.004-.001.005a.32.32 0 0 1-.036.085c-.03.046-.103.129-.102.128a.801.801 0 0 0-.066.076 1.82 1.82 0 0 1-.25.22l-.004.004h-.001c-.008.003-.018.015-.042.03l-.041.027a3.058 3.058 0 0 1-.243.137l-.025.01-.064.028-.056.008c-.04.003-.062-.004-.073-.025l-.01-.026-.008-.024a.032.032 0 0 1-.003-.014c0-.017.009-.038.024-.052.016-.014.039-.022.059-.031l.032-.013.102-.06a.758.758 0 0 0 .076-.034l.046-.021.144-.092.08-.054h.005c.01-.006.015-.022.019-.041 0 0 .01-.045.01-.062a.117.117 0 0 0-.013-.06c-.02-.035-.061-.06-.128-.076a.125.125 0 0 0-.063-.006c-.194-.012-.321.156-.42.323-.003.004-.008.009-.015.02-.017.024-.038.053-.04.085l-.025.056a.196.196 0 0 0-.061.033.736.736 0 0 0-.03.018l-.111.05a.418.418 0 0 1-.03.017.237.237 0 0 1-.04.022 7.58 7.58 0 0 0 .218-.22s.038-.042.04-.046l.039-.02.002-.002a.12.12 0 0 1 .035-.051 1.91 1.91 0 0 0 .019-.024.407.407 0 0 0 .088-.18v-.01a.1.1 0 0 0-.036-.077c-.072-.06-.233-.05-.304-.033-.014-.006-.041-.006-.132.008l-.016.002c-.002 0-.005.004-.007.006-.024-.001-.067.015-.067.015l-.083.03a7.918 7.918 0 0 0-.196.105l-.051.027s-.002 0-.114.094l.003-.045c0-.008.007-.032.007-.032a.156.156 0 0 0 .008-.051l-.002-.035c0-.042.015-.186.015-.186.002-.03.006-.072.015-.083a.26.26 0 0 0 .005-.016l-.006-.016-.002-.006-.008-.092.01-.066c.004-.006.005-.016.006-.055l-.001-.027.005-.04a1.47 1.47 0 0 0-.005-.034.341.341 0 0 1-.008-.028.647.647 0 0 0 .007-.106v-.01a.663.663 0 0 0-.034-.218.073.073 0 0 0-.04-.041zm7.2-.026a.201.201 0 0 0-.063.015c-.004.002-.004.002-.058.049 0 0-.024.02-.07.088-.024.039-.074.1-.074.1a9.474 9.474 0 0 0-.175.555l-.064.292-.045.209-.006.053c-.004.034-.007.069-.024.093a.218.218 0 0 1-.052.006.221.221 0 0 0-.072.012 2.626 2.626 0 0 0-.065-.005c-.01 0-.017.006-.026.015a.195.195 0 0 0-.114.015.167.167 0 0 0-.048.005l-.015-.003-.2.035.01-.025c.013-.035.026-.068.028-.107v-.001l-.012-.052c-.001-.02-.002-.054-.028-.071-.015-.011-.034-.013-.056-.008-.066.014-.08.092-.093.168l-.001.004c-.011.062-.022.128-.057.154a.141.141 0 0 0-.08.034.1.1 0 0 0-.035.082c0 .059.039.126.063.167l.014.027.045.096c0 .002.056.072.057.073-.002.007 0 .024 0 .024 0 .028.06.084.069.09l.003.014.01.032c.002.004.038.03.04.033l.003.008.01.047c.006.02.035.022.035.022h.013c.01 0 .02-.006.023-.015a.076.076 0 0 0 .003-.021c0-.027-.018-.052-.036-.066a.04.04 0 0 1-.005-.01c-.006-.053-.066-.168-.102-.187v-.033c.005-.008.01-.021.01-.055a.44.44 0 0 0-.006-.077.498.498 0 0 0 .015-.13v-.028a.714.714 0 0 0 .069-.028c.014-.002.134-.031.134-.031s.09-.028.092-.03l.04-.003a.17.17 0 0 0 .089-.023h.012a.547.547 0 0 0 .077.007l.057-.01a.457.457 0 0 1 .069-.01 8.156 8.156 0 0 0-.055.384l-.02.145-.011.179-.018.148.003.088-.008.103-.008.1.004.056.006.135-.071-.091a1.028 1.028 0 0 0-.051-.09l-.06-.097-.035-.062-.04-.042a.044.044 0 0 0-.005-.01.08.08 0 0 0-.038-.038c.006-.032-.02-.058-.04-.07l-.005-.001c.008-.026-.012-.042-.02-.048a.027.027 0 0 0-.026-.003l-.027.01c-.007.003-.016.014-.015.025l.005.018c.01.015.032.017.05.019l-.018.03v.005c0 .017.013.026.048.04v.004l.002.015c.008.036.03.073.053.109l.084.15a.331.331 0 0 1 .07.109l.01.042.032.045a.25.25 0 0 0 .025.034l.028.062.035.046.035.13.002.022c.002.019.004.042.022.063a.08.08 0 0 0 .045.024h.027a.093.093 0 0 0 .07-.05.092.092 0 0 0 .006-.037c0-.038-.012-.102-.031-.186l-.008-.036-.012-.156h-.001a.884.884 0 0 0 .003-.037v-.02l-.004-.182.005-.052.005-.19.003-.126.013-.071.01-.064.03-.297s.03-.238.04-.264l.045-.045c.013.002.199.033.245.039l.002.026-.01.025.012.067.005.019.01.089c.02.052.082.176.195.208l.08.016a.424.424 0 0 0 .103.01c.203-.013.452-.218.5-.26.03-.02.066-.05.057-.084-.004-.013-.017-.031-.055-.037a.146.146 0 0 0-.017.004.906.906 0 0 1-.137.055c-.035.008-.064.037-.093.064l-.054.046-.071.032-.036.025a.309.309 0 0 1-.086.02c-.164 0-.201-.08-.237-.162a.218.218 0 0 0 .004-.051l-.001-.044c0-.01.002-.023.005-.046l.023-.034c.009-.016.014-.026.023-.032l.202-.078c.08-.042.267-.148.269-.245v-.001l-.007-.031-.002-.001c-.022-.048-.083-.078-.186-.088l-.097.029a.59.59 0 0 0-.147.09c-.002 0-.046.044-.046.044a.412.412 0 0 1-.096.08c-.012.006-.02.015-.02.028a.05.05 0 0 0 .005.009l-.008.006-.075.019-.052.009h-.041a4.144 4.144 0 0 1-.18-.026.041.041 0 0 0 .006-.01l.015-.055-.005-.014v-.031a.58.58 0 0 0 0-.012c.002 0 .005-.02.006-.022a.28.28 0 0 0 .006-.014v-.015c0-.035.007-.053.01-.055.01-.003.014-.024.014-.024l-.004-.038c.002-.01.006-.023.01-.05v-.04l.009-.015.018-.04c0-.003.002-.005.008-.057l.019-.051.006-.048a.558.558 0 0 0 .026.012c.007 0 .023-.004.024-.004h.02c.007 0 .007 0 .08-.034.06-.033.082-.067.11-.11 0 0 .105-.137.113-.176l.023-.036a.072.072 0 0 0 .02-.052l.005-.054c.003-.008.005-.021.009-.041l.006-.046.004-.065-.007-.045-.018-.076c-.001-.003 0-.004-.023-.035-.02-.027-.041-.06-.093-.056zm-1.676-.016-.02.002-.01.008a.055.055 0 0 0-.031.022.097.097 0 0 0-.023.064l-.002.043-.025.084-.004.07-.041.243s-.018.105-.018.133c0 .01 0 .022.003.033a.286.286 0 0 1-.017.047c-.001.002-.002.003-.02.14l-.02.115-.003.037-.015.095-.022.175v.05a.624.624 0 0 0-.012.03c-.003.006-.003.022-.005.096v.053l-.002.132c0 .064.002.13.007.194v.056a.96.96 0 0 0 .04.16l.028.087c.02.03.07.046.109.034.039-.014.079-.048.08-.092v-.013c-.006-.037-.032-.053-.051-.065-.015-.01-.025-.015-.028-.026l-.006-.052-.012-.031s-.007-.024-.01-.028c.003-.01.003-.025.004-.053v-.077l-.02-.161.006-.02-.004-.085.01-.035.009-.077-.004-.04-.003-.028c0-.004.005-.012.007-.018a.12.12 0 0 0 .01-.022l-.003-.024.017-.074-.005-.052.004-.03.002-.044c.003-.001.016-.015.016-.015l-.002-.037-.002-.002c0-.005.004-.014.004-.014l.006-.025-.003-.012.012-.023v-.016l.002-.07.01-.041.017-.087a.055.055 0 0 0-.007-.03.416.416 0 0 0 .009-.023l.013-.044c0-.001 0-.027.002-.034l.022-.091-.002-.028.014-.03a1.7 1.7 0 0 0 .05-.317.197.197 0 0 0-.008-.083c-.012-.024-.053-.034-.053-.034zm-8.644-.005a.02.02 0 0 0-.015.006l-.028.02-.043.046-.093.11a.753.753 0 0 0-.06.123l-.01.022c-.005.006-.011.019-.037.066-.04.093-.087.258-.087.258l-.001.02v.029l-.02.095-.021.136a.958.958 0 0 0-.02.062l-.006.057a11.489 11.489 0 0 0-.01.232c-.002.002-.01.008-.06.01a.23.23 0 0 0-.077.005.178.178 0 0 0-.043-.005l-.051-.001h-.03l-.025-.01a1.027 1.027 0 0 0-.068-.007 5.028 5.028 0 0 0-.131-.058l-.027-.017-.031-.017s-.014-.004-.062.013c-.008.002-.022.028-.022.028-.006.015-.014.034-.001.057.039.073.165.107.24.126l.053.015.123.009.032.005.049-.008a.187.187 0 0 0 .027.002l.104-.006v.022l-.005.064.002.124-.005.124.004.245-.001.034-.001.006a7.317 7.317 0 0 0-.01.143c0 .006.004.01.009.016 0 0 .003 0 .004.002 0 .02.005.068.005.068l-.01.095.002.032c-.001 0 0 .047 0 .047l-.003.036-.002.006.005.017.003.012v.015l.003.03c0 .017-.003.034-.036.056h-.003l-.006.008-.008.025.013.048c.005.024.012.059.043.073l.053.01h.004c.007-.001.014-.001.04-.044l.02-.044c.013-.026.004-.02.01-.072a2.52 2.52 0 0 0-.002-.08l.01-.034v-.025l-.001-.042-.003-.134-.006-.056-.004-.045s0-.032.003-.066l.005-.041a.87.87 0 0 0-.005-.04v-.032l-.001-.058-.003-.016-.001-.11-.007-.063.002-.017.002-.017-.003-.123.007-.127-.001-.016-.004-.04c0-.018.003-.027.006-.031.003-.005.028-.013.046-.015l.016-.008a.383.383 0 0 1 .064-.012l.18-.033.104-.021.058-.008a.354.354 0 0 0 .025-.008.07.07 0 0 1 .028-.006l.018.01a.384.384 0 0 0-.041.038l-.025.022-.02.016c-.117.125-.236.275-.236.459v.023c.002.035.007.089.055.112.035.016.089.042.148.027.124-.033.337-.325.377-.445a.272.272 0 0 0 .014-.09l-.001-.03-.001-.011v-.023a.595.595 0 0 1 .077.033c.002.013.005.06.005.129 0 .074-.003.122-.005.13l-.001.003-.002.005.004.036.003.04-.002.08c0 .09.009.155.04.178a.051.051 0 0 0 .053.006c.072-.03.076-.13.08-.226.003-.063.006-.248.006-.323v-.044l.004-.07a.267.267 0 0 1 .03-.058l.014-.01a.098.098 0 0 1 .049-.024l.059-.015a.475.475 0 0 1 .089-.013.389.389 0 0 0 .098-.015c.012-.006.02-.016.02-.027l.002-.004c0-.017-.012-.028-.013-.03l-.005-.003a.536.536 0 0 0-.136-.036c-.001-.001-.027.003-.027.003l-.062.01a.082.082 0 0 0-.035.01c-.013-.003-.052 0-.052 0l-.003-.001-.005-.004h-.005c-.033.002-.072.004-.102.029 0 0-.06.094-.066.1a.122.122 0 0 1-.051-.02 10.597 10.597 0 0 0-.074-.03l.017-.037-.024-.052a.114.114 0 0 0-.086-.022.29.29 0 0 0-.105.008.24.24 0 0 0-.104.019l-.058.019a.502.502 0 0 0-.115.025c-.013 0-.03.004-.058.008l-.064.013a1.333 1.333 0 0 0-.193.036l-.006-.071.014-.138.023-.107.008-.076v-.01c.004-.014.008-.044.017-.101l.035-.161.04-.11.004-.016s0-.011.002-.018l.009-.01.01-.014c.003-.002.003-.002.02-.055a.292.292 0 0 1 .029-.082 4.28 4.28 0 0 0 .045-.054l.028-.034a1.21 1.21 0 0 1 .017-.024l.013-.02c.012-.017.02-.026.042-.03l.01.01.01.01.02.02a.29.29 0 0 1 .024.06l.008.028.01.02.009.015a4.534 4.534 0 0 0 .031.112s.019.053.019.089-.005.077-.011.115l-.001.006c-.013.093-.056.19-.056.19a.047.047 0 0 0 .003.037l.003.005c.012.013.022.027.042.027a.04.04 0 0 0 .029-.013 8.7 8.7 0 0 0 .035-.041c.003-.004.003-.005.018-.047a.324.324 0 0 0 .039-.126l.005-.055v-.038a.43.43 0 0 0 .003-.041.191.191 0 0 0-.008-.057c-.01-.11-.081-.39-.178-.441a.105.105 0 0 0-.06-.01h-.02l-.006-.004-.007-.001zm-2.441-.131-.02.003a.024.024 0 0 0-.011.007c-.018.005-.03.019-.035.024a.1.1 0 0 0-.022.067v.01l-.001.033c-.006.013-.011.037-.023.077l-.004.068-.034.234-.006.038c-.004.027-.01.056-.01.086a.24.24 0 0 0 .004.037.25.25 0 0 1-.016.043l-.001.004-.016.133-.031.237-.02.172s0 .038.002.046l-.003.009-.008.019c-.003.006-.003.006-.003.093v.045c0 .1.003.21.014.32l.002.057a.93.93 0 0 0 .045.15l.028.08.002.006c.023.03.077.045.117.032.04-.015.082-.05.083-.096l-.002-.014c-.008-.037-.036-.053-.055-.064-.014-.01-.024-.014-.027-.022a1.87 1.87 0 0 1-.007-.05l-.013-.03-.008-.022v-.053l-.002-.076-.013-.077-.01-.073.004-.02.002-.004-.002-.03-.005-.048.008-.028.002-.008.005-.053h-.002c.002-.004.002-.011.003-.02l-.005-.04-.003-.023c0-.005.004-.011.005-.016a.038.038 0 0 0 .01-.023v-.006l-.002-.02.006-.031.009-.038-.004-.034-.002-.016.002-.027a.359.359 0 0 0 .002-.042l.015-.015-.001-.011-.002-.028-.001-.002.003-.012.005-.024-.004-.012.003-.002.006-.016a.234.234 0 0 0 .004-.02v-.066l.005-.026.004-.013.015-.08v-.003c0-.014-.004-.024-.007-.032l.007-.02.013-.045v-.031l.002-.004.018-.08v-.005l-.002-.025a.044.044 0 0 0 .003-.008l.009-.017v-.003c.015-.048.043-.208.045-.31v-.007a.162.162 0 0 0-.012-.075c-.014-.024-.037-.03-.053-.033zm2.69-4.334c-.001.248-.204.45-.451.45s-.445-.202-.443-.45a.455.455 0 0 1 .452-.45c.247 0 .446.201.443.45m-2.821 1.008c-.505 0-.775.083-1.065.313-.252-.213-.499-.314-1.036-.314-.553 0-.91.137-1.243.282v2.762h.752v-2.432c.148-.054.272-.108.492-.108.407 0 .606.187.605.475v2.063h.761v-2.301a.885.885 0 0 1 .588-.231c.4 0 .51.204.51.464v2.068h.772v-2.112c0-.47-.347-.928-1.136-.93m-4.878.098.002 2.388c-.128.066-.31.153-.523.153-.389 0-.574-.223-.574-.507v-2.034H4v1.995c0 .661.515 1.052 1.325 1.052.58 0 .933-.13 1.3-.306v-2.74zm9.782 2.526c-.47-.02-.757-.424-.757-1.086.001-.656.196-1.016.717-1.046.26-.016.452.088.57.14l.163-.41c-.25-.14-.462-.22-.877-.22-.753 0-1.396.552-1.397 1.548 0 .99.52 1.54 1.378 1.59.407.023.667-.075.967-.233l-.176-.443c-.203.103-.34.17-.588.16m4.438-2.338v2.758h.767v-2.451c.176-.09.459-.105.716-.027l.304-.534c-.877-.133-1.434.105-1.787.255"/><path d="M8.712 11.788h.784V8.843h-.784zm5.364-.388c-.528 0-.648-.528-.648-1.095 0-.574.108-1.125.648-1.125.547.001.648.551.648 1.125 0 .567-.102 1.095-.648 1.095m0-2.641c-.948 0-1.42.662-1.42 1.559 0 .884.472 1.552 1.42 1.552.949 0 1.42-.668 1.42-1.551 0-.897-.464-1.559-1.42-1.56m5.226.449c.413-.007.657.202.667.798l-1.32.207c-.03-.702.216-.998.653-1.005m.242 2.149c-.56 0-.81-.2-.872-.755l2.02-.267c.033-1.007-.458-1.587-1.357-1.588-.885 0-1.47.567-1.47 1.548 0 1.01.635 1.589 1.597 1.589.514 0 .879-.121 1.118-.238l-.182-.455a2.062 2.062 0 0 1-.854.166" mask="url(#a)" transform="translate(4 10)"/></g><path d="M19.053 6.37a3.737 3.737 0 0 1-.248-.57 4.69 4.69 0 0 1-.26-1.283c0-.009.005-.02-.008-.026v-.026c.016.003.028-.006.04-.012.234-.112.48-.197.72-.296h.016a3.66 3.66 0 0 0 .194 1.224l.012.041c-.043.111-.097.217-.148.325-.09.192-.178.385-.27.577-.01.02-.015.048-.048.046" fill="#5cb142" mask="url(#a)" transform="translate(4 10)"/><path d="M23.276 3.36v-.007h.233l.001.008c-.007.009-.018.012-.028.013-.035.002-.069 0-.103 0-.035-.002-.072.012-.103-.013" fill="#c3e2d0" mask="url(#a)" transform="translate(4 10)"/><path d="M23.329 8.946h-.19c-.002-.005-.001-.01.004-.013a.446.446 0 0 1 .182-.001c.005.004.007.009.004.014" fill="#90c9a1" mask="url(#a)" transform="translate(4 10)"/><path d="M27.992 4.326H28v.156c-.006.003-.01.002-.014-.003-.015-.041-.006-.083-.006-.125 0-.011.003-.021.012-.028" fill="#46a576" mask="url(#a)" transform="translate(4 10)"/><path d="M23.329 8.946V8.94c.027-.021.052-.021.078-.001v.007z" fill="#c4e2ce" mask="url(#a)" transform="translate(4 10)"/><path d="M27.992 4.483 28 4.482v.069c-.006.003-.01.002-.013-.003-.01-.023-.013-.044.005-.065" fill="#86c4a5" mask="url(#a)" transform="translate(4 10)"/><path d="M23.139 8.939v.007h-.068l-.001-.007c.023-.02.046-.02.069 0" fill="#c7e3d0" mask="url(#a)" transform="translate(4 10)"/><path d="M27.992 4.552H28v.042h-.008c-.013-.014-.013-.028 0-.042" fill="#c3e1d2" mask="url(#a)" transform="translate(4 10)"/><path d="M27.992 4.326v.027c-.109.22-.21.444-.314.666l-.249.535-.348.745-.264.566c-.11.236-.222.472-.33.71-.027.057-.057.112-.076.173a2.659 2.659 0 0 1-.456.362c-.028-.013-.012-.034-.005-.05.023-.065.056-.126.085-.188.113-.238.224-.478.336-.717l.437-.941.272-.581c.127-.273.255-.546.381-.82.084-.181.17-.361.253-.542.007-.014.013-.03.027-.038a1.4 1.4 0 0 1 .251.093" fill="#0a8847" mask="url(#a)" transform="translate(4 10)"/><path d="M27.741 4.232c-.035.08-.07.16-.107.24-.13.28-.263.56-.394.84l-.296.634-.359.772-.237.507-.39.84c-.007.016-.016.03-.003.045-.068.059-.148.1-.225.147l-.06.034c-.025-.013-.012-.031-.007-.047.02-.056.048-.108.073-.161.153-.324.303-.65.456-.975.16-.34.317-.681.476-1.022.14-.3.281-.6.42-.901.146-.314.293-.626.438-.941.01-.022.015-.05.043-.061.061.003.115.03.172.05m-2.989 2.303a1.846 1.846 0 0 1-.346.22c-.014-.016-.014-.016-.005-.04.024-.062.056-.122.084-.183.133-.28.261-.562.395-.841.013-.027.011-.057.025-.082.086-.11.173-.218.248-.335.169-.261.264-.55.322-.851.005-.03.012-.06.019-.088.051-.07.078-.15.113-.226l.197-.42c.008-.017.012-.045.044-.035.059.007.116.027.175.04.013.004.02.009.017.024-.009.042-.009.085-.022.126-.018 0-.018.017-.023.027l-.257.55-.209.449-.343.737-.259.554-.175.374" fill="#0c8847" mask="url(#a)" transform="translate(4 10)"/><path d="M27.569 4.182c-.096.206-.192.413-.29.62l-.188.403-.406.873c-.064.137-.13.274-.193.412l-.402.864-.197.421-.22.471c-.006.015-.015.028-.002.044-.081.055-.167.1-.256.14-.016-.018-.017-.019-.007-.045a1.9 1.9 0 0 1 .057-.12l.326-.7c.146-.315.294-.629.44-.945.06-.13.119-.26.183-.389a5.23 5.23 0 0 0 .326-.469c.19-.323.323-.669.407-1.034l.013-.049c.05-.06.07-.135.105-.204.05-.102.096-.204.144-.307.006-.014.009-.034.033-.03a.58.58 0 0 1 .127.044" fill="#0e8a47" mask="url(#a)" transform="translate(4 10)"/><path d="M26.414 6.231a.087.087 0 0 1-.009.045c-.092.193-.182.387-.273.58l-.365.782-.289.62c-.019.042-.039.083-.057.125-.006.014-.022.029-.007.047-.089.053-.187.087-.282.13l-.042.018c-.03-.007-.018-.027-.012-.042l.051-.11c.113-.236.223-.474.333-.713.126-.272.255-.543.38-.815.01-.023.015-.05.03-.071.123-.13.25-.254.367-.39l.175-.205" fill="#108a47" mask="url(#a)" transform="translate(4 10)"/><path d="M24.399 8.8c-.148.04-.297.07-.449.087-.016-.02-.004-.036.003-.052.043-.098.09-.195.135-.292.131-.28.26-.558.392-.836a.119.119 0 0 1 .021-.038c.163-.066.324-.136.482-.212.019.024.004.047-.006.068l-.201.429-.372.796a.079.079 0 0 0-.005.05" fill="#1a8f46" mask="url(#a)" transform="translate(4 10)"/><path d="M24.752 6.536c-.003-.03.013-.053.024-.077.071-.154.145-.308.217-.463l.436-.94.181-.388a290.838 290.838 0 0 0 .393-.836c.003-.004.007-.011.013-.004.003.005.001.012.002.017-.017.1-.036.202-.049.303-.013.096-.027.193-.038.289-.001.013-.005.025-.008.037-.037.059-.06.124-.088.186-.168.363-.34.724-.507 1.086-.055.12-.113.239-.166.359-.008.017-.025.029-.025.049-.091.104-.179.209-.287.296-.035.027-.066.057-.098.086" fill="#088747" mask="url(#a)" transform="translate(4 10)"/><path d="M24.399 8.8c-.032-.008-.017-.027-.01-.043l.116-.25.402-.856.056-.121c.011-.023.022-.046.02-.073.15-.078.296-.164.439-.254.021.026.005.05-.005.072-.046.096-.09.192-.135.289-.133.284-.267.569-.398.854-.031.067-.061.133-.094.198a.271.271 0 0 0-.029.08 2.374 2.374 0 0 1-.362.104" fill="#158d47" mask="url(#a)" transform="translate(4 10)"/><path d="M20.243 5.301a2.028 2.028 0 0 1-.187-.546 3.561 3.561 0 0 1-.062-.818c.001-.027.01-.043.04-.052.114-.034.228-.07.35-.11-.05.393-.037.776.055 1.155-.04.051-.058.114-.086.171-.027.054-.055.107-.076.163-.007.016-.014.033-.034.037" fill="#5cb142" mask="url(#a)" transform="translate(4 10)"/><path d="M24.761 8.697c-.02-.02-.003-.039.004-.054.06-.132.122-.262.183-.394l.412-.884.042-.085c.012-.024.024-.049.02-.077a3.37 3.37 0 0 0 .45-.377c.001.04-.019.075-.035.11-.09.196-.184.391-.276.587l-.425.911-.049.106c-.006.012-.016.026.003.037a2.69 2.69 0 0 1-.329.12" fill="#138c47" mask="url(#a)" transform="translate(4 10)"/><path d="M21.45 8.584a2.562 2.562 0 0 1-.336-.156c-.017-.025-.004-.048.006-.069.069-.143.135-.288.203-.432.072-.155.146-.31.217-.467.009-.02.017-.04.029-.058.009-.014.017-.03.039-.026l.325.157c.008.018-.002.033-.008.05-.088.184-.174.37-.261.556-.065.136-.126.273-.192.408-.006.013-.01.027-.022.037" fill="#399f44" mask="url(#a)" transform="translate(4 10)"/><path d="M23.139 8.939h-.07l-.051-.003c-.028-.017-.011-.038-.004-.056.03-.071.064-.141.098-.211.114-.242.225-.486.34-.728.007-.013.012-.026.023-.036.149-.008.295-.03.44-.06.013.016.004.03-.003.045l-.247.529c-.074.16-.151.319-.223.48-.006.015-.01.03-.027.038a.019.019 0 0 1-.008.002h-.268" fill="#239446" mask="url(#a)" transform="translate(4 10)"/><path d="M20.726 8.206a3.516 3.516 0 0 1-.301-.21c-.003-.03.013-.054.024-.077.09-.188.175-.377.264-.565.049-.106.099-.21.147-.316.009-.02.014-.049.047-.048.102.05.203.1.302.154.013.032-.008.056-.02.08l-.117.253c-.11.233-.217.468-.328.7-.005.01-.008.022-.018.03" fill="#42a444" mask="url(#a)" transform="translate(4 10)"/><path d="M20.906 6.99c-.02.01-.027.03-.036.047l-.195.425-.25.533a2.52 2.52 0 0 1-.26-.21c-.01-.017 0-.03.006-.045.073-.16.15-.32.222-.479l.18-.382c.008-.02.01-.053.044-.055l.29.166" fill="#46a643" mask="url(#a)" transform="translate(4 10)"/><path d="M20.617 6.825c-.047.06-.068.134-.102.202-.052.103-.097.209-.146.314l-.204.443a2.7 2.7 0 0 1-.26-.241c.028-.087.073-.168.111-.251.097-.21.196-.417.292-.626.007-.015.012-.033.031-.04.09.072.185.134.278.199" fill="#4aa843" mask="url(#a)" transform="translate(4 10)"/><path d="M24.5 7.669c-.008.058-.042.106-.066.157-.13.286-.267.571-.4.856l-.075.168c-.005.012-.01.024-.01.037-.094.019-.189.03-.284.033-.013-.015-.004-.03.002-.044l.234-.502c.089-.191.179-.381.266-.573a.056.056 0 0 1 .016-.025l.318-.107" fill="#1d9146" mask="url(#a)" transform="translate(4 10)"/><path d="M21.45 8.584c.013-.063.049-.116.075-.172.129-.28.26-.56.392-.84l.016-.039c.086.034.173.07.259.103-.015.062-.05.115-.076.173l-.27.577-.122.261c-.005.013-.008.028-.024.033a2.045 2.045 0 0 1-.25-.096" fill="#359d45" mask="url(#a)" transform="translate(4 10)"/><path d="M23.475 7.904c-.01.06-.045.107-.069.161-.09.2-.186.398-.28.597l-.109.233c-.006.014-.009.027.001.04a2.411 2.411 0 0 1-.224-.017c-.014-.007-.03.002-.044-.006l-.033-.003c-.014-.017-.003-.032.004-.047.11-.229.214-.46.323-.689.04-.083.077-.167.116-.25.006-.013.011-.027.022-.037z" fill="#279645" mask="url(#a)" transform="translate(4 10)"/><path d="m20.339 6.627-.396.85c-.01.024-.017.049-.04.066a1.944 1.944 0 0 1-.212-.231c.005-.046.032-.084.05-.125.114-.241.225-.483.338-.724.009-.018.013-.044.044-.033l.216.197" fill="#4daa43" mask="url(#a)" transform="translate(4 10)"/><path d="M20.726 8.206c.007-.054.04-.098.06-.146.089-.194.184-.385.272-.58.05-.11.109-.219.15-.336.077.035.149.074.218.121l-.21.447c-.09.192-.178.385-.27.577-.006.012-.01.027-.021.036a2.092 2.092 0 0 1-.2-.119" fill="#3ea244" mask="url(#a)" transform="translate(4 10)"/><path d="M20.82 4.64a1.3 1.3 0 0 1-.085-.35 2.396 2.396 0 0 1-.001-.574c.003-.025.009-.038.035-.044.095-.02.19-.044.285-.066.014-.003.034-.013.03.017-.015.144.007.286.022.428-.088.18-.168.363-.256.543-.008.016-.013.035-.03.045" fill="#5cb142" mask="url(#a)" transform="translate(4 10)"/><path d="M19.053 6.37c.036-.02.044-.06.06-.093.067-.143.133-.288.199-.432l.175-.374c.008-.018.012-.038.032-.049.045.112.09.223.137.335-.067.12-.118.248-.178.371-.08.164-.152.33-.232.493-.007.014-.012.03-.03.035a2.52 2.52 0 0 1-.163-.286" fill="#58af42" mask="url(#a)" transform="translate(4 10)"/><path d="M24.182 7.776c-.007.062-.044.111-.068.166-.066.147-.137.293-.205.439l-.238.51c-.004.009-.004.019-.006.029-.042.011-.085.009-.127.01-.026.009-.054-.002-.08.006h-.043c.05-.125.111-.244.167-.367.107-.232.217-.463.326-.695l.007-.029.267-.069" fill="#1f9246" mask="url(#a)" transform="translate(4 10)"/><path d="M19.562 7.155a2.228 2.228 0 0 1-.19-.26c.081-.155.148-.317.224-.474.057-.12.111-.244.171-.363.007-.015.012-.036.037-.034l.18.251c-.088.171-.164.35-.247.523-.048.101-.095.202-.14.303-.01.02-.018.04-.035.054" fill="#52ac43" mask="url(#a)" transform="translate(4 10)"/><path d="M19.804 6.024c-.038.036-.05.085-.073.13-.07.146-.136.293-.204.44-.04.09-.083.18-.126.27-.006.014-.01.03-.03.032a2.077 2.077 0 0 1-.155-.24l.405-.86c.007-.016.011-.037.035-.039.036.08.084.152.126.227l.022.04" fill="#56ae42" mask="url(#a)" transform="translate(4 10)"/><path d="M20.924 8.325c.007-.052.04-.095.06-.141.07-.156.144-.31.216-.463l.198-.425a.059.059 0 0 1 .027-.031c.058.043.121.077.183.112-.035.017-.042.053-.057.083l-.202.436c-.072.156-.146.31-.219.467a.125.125 0 0 0-.017.066 1.453 1.453 0 0 1-.189-.104" fill="#3da244" mask="url(#a)" transform="translate(4 10)"/><path d="M24.905 5.61a.17.17 0 0 1-.02.098c-.138.29-.272.581-.408.871l-.069.148c-.004.009-.016.019-.003.03a1.866 1.866 0 0 1-.274.132c-.017-.018-.005-.035.003-.051l.322-.689c.021-.044.04-.09.062-.133.132-.132.262-.267.387-.406" fill="#108b47" mask="url(#a)" transform="translate(4 10)"/><path d="M22.044 8.785c-.063-.017-.128-.03-.189-.055-.012-.016 0-.03.006-.044l.356-.765c.031-.067.064-.134.094-.203.005-.012.005-.033.028-.031.064.017.128.037.19.06-.053.125-.113.247-.171.37l-.289.624c-.007.015-.01.033-.025.044" fill="#319b45" mask="url(#a)" transform="translate(4 10)"/><path d="M22.552 8.888c-.057-.009-.116-.014-.172-.03-.033-.007-.025-.03-.017-.05.02-.05.044-.099.068-.149.111-.233.217-.469.33-.702.02-.045.032-.095.068-.132l.218.042c-.027.026-.04.06-.056.091-.085.187-.173.373-.259.56l-.159.338c-.005.011-.008.025-.02.032" fill="#2b9845" mask="url(#a)" transform="translate(4 10)"/><path d="M24.527 3.423h.009c.013.008.03 0 .043.007.018-.003.017.01.017.021l-.001.126c-.163.342-.321.686-.481 1.03l-.335.716c-.028.061-.068.117-.077.186l-.12.077c-.034-.008-.016-.03-.011-.045.029-.07.063-.138.095-.207.123-.265.248-.528.368-.794a.117.117 0 0 0 .009-.024c.115-.167.187-.352.219-.55.018-.05.049-.09.07-.139.058-.129.119-.256.179-.384.003-.008.01-.014.016-.02" fill="#0e8a47" mask="url(#a)" transform="translate(4 10)"/><path d="M25.137 6.154c-.007-.031.015-.054.025-.078.06-.133.123-.265.184-.398l.41-.88.142-.3c.005-.01.004-.03.026-.024a3.02 3.02 0 0 1-.77 1.662c-.004.006-.011.012-.017.018" fill="#068648" mask="url(#a)" transform="translate(4 10)"/><path d="M24.595 3.776a1.65 1.65 0 0 1-.008.337c-.007-.016-.01-.015-.019 0-.033.065-.063.132-.094.2-.072.155-.146.31-.218.467-.057.125-.118.25-.174.375-.003.008-.007.016-.006.024-.067.072-.132.146-.213.204l-.034.032c-.018-.018-.007-.037.001-.056l.245-.526c.13-.276.258-.552.386-.828.03-.064.06-.13.092-.194.01-.017.016-.038.042-.036" fill="#0a8847" mask="url(#a)" transform="translate(4 10)"/><path d="M19.562 7.155c.01-.044.035-.08.053-.12.088-.195.18-.388.271-.58.025-.053.05-.105.072-.157.006-.013.011-.023.026-.023l.14.154c-.017 0-.024.01-.03.023l-.174.374c-.05.112-.102.224-.155.335-.024.051-.04.105-.075.15a1.208 1.208 0 0 1-.128-.156" fill="#50ab43" mask="url(#a)" transform="translate(4 10)"/><path d="m22.339 7.687-.215.458a43.51 43.51 0 0 0-.145.312l-.124.273a.976.976 0 0 1-.156-.05l.196-.424.278-.598c.005-.01.009-.018.019-.022.05.013.099.03.147.051" fill="#339c45" mask="url(#a)" transform="translate(4 10)"/><path d="M22.044 8.785c.001-.036.021-.065.036-.096.089-.195.182-.388.272-.582l.14-.304c.01-.02.014-.044.037-.056a1.2 1.2 0 0 1 .156.043c-.06.135-.125.267-.186.4-.096.213-.2.42-.291.634l-.164-.04" fill="#2f9a45" mask="url(#a)" transform="translate(4 10)"/><path d="M22.208 8.823c-.014-.037.014-.063.027-.09.09-.196.181-.389.272-.584.047-.099.092-.2.138-.3.01-.02.015-.047.04-.059.048.01.097.02.144.035l-.118.262-.33.707c-.01.02-.03.043 0 .064a1.456 1.456 0 0 1-.173-.035" fill="#2d9945" mask="url(#a)" transform="translate(4 10)"/><path d="M22.552 8.888c.015-.067.053-.124.08-.185.088-.195.182-.388.273-.582l.102-.22c.008-.019.016-.035.04-.034.045.003.09.01.135.02-.007.052-.039.095-.06.141-.087.193-.179.384-.269.576-.043.093-.087.184-.129.277-.005.008-.005.02-.007.028l-.165-.02" fill="#299745" mask="url(#a)" transform="translate(4 10)"/><path d="M24.595 3.776c-.036.024-.045.066-.062.1-.048.102-.093.204-.14.305-.13.28-.262.559-.394.839l-.158.343a.083.083 0 0 0-.012.053.684.684 0 0 1-.127.094c-.02-.014-.01-.03-.003-.046l.213-.45c.146-.315.292-.631.44-.946l.211-.451a.082.082 0 0 1 .032-.04z" fill="#0c8947" mask="url(#a)" transform="translate(4 10)"/><path d="M23.39 7.11a1.067 1.067 0 0 1-.32.017c-.013-.016-.004-.03.002-.044l.19-.407c.005-.012.01-.024.023-.03.121-.03.238-.068.354-.11.015.017.005.035-.002.052-.063.134-.125.27-.19.404-.019.039-.03.083-.058.119" fill="#1d9146" mask="url(#a)" transform="translate(4 10)"/><path d="M23.39 7.11c0-.034.02-.061.033-.091.065-.144.133-.287.201-.43.008-.018.017-.034.015-.053l.318-.143c.02.02.006.04-.003.059-.043.103-.093.203-.139.305-.038.083-.079.165-.116.249-.007.015-.013.03-.026.043-.093.03-.187.052-.284.062" fill="#198f46" mask="url(#a)" transform="translate(4 10)"/><path d="m23.286 6.647-.2.431c-.007.016-.017.03-.015.048a1.737 1.737 0 0 1-.337-.043c-.021-.012-.01-.027-.003-.04.05-.112.104-.22.152-.333.019-.042.05-.038.085-.03.108.002.213-.012.318-.033m-.596-.745a1.184 1.184 0 0 1-.25-.034c-.01-.015-.002-.03.004-.044.084-.176.167-.352.248-.529 0-.004.005-.007.008-.01.088.001.173-.017.259-.034.007.021-.001.04-.01.057-.084.176-.165.353-.248.529-.01.021-.019.041-.01.065" fill="#239446" mask="url(#a)" transform="translate(4 10)"/><path d="M24.518 6.016c.003.044-.025.08-.042.116-.068.151-.14.301-.21.451l-.127.268a.064.064 0 0 0-.008.038c-.069.035-.143.058-.216.084-.016-.022-.003-.042.006-.06.083-.177.162-.354.246-.53.025-.052.044-.106.074-.155.096-.066.19-.135.277-.212" fill="#138c47" mask="url(#a)" transform="translate(4 10)"/><path d="M24.241 6.228c.001.043-.025.076-.042.111-.085.19-.175.377-.263.565a.167.167 0 0 0-.02.07c-.079.033-.16.054-.243.075.002-.035.022-.064.036-.095.078-.17.158-.34.24-.512a.093.093 0 0 0 .008-.049l.284-.165" fill="#158d47" mask="url(#a)" transform="translate(4 10)"/><path d="M22.69 5.902c-.018-.007-.026-.014-.016-.037.07-.144.14-.288.206-.434.027-.06.06-.116.079-.18l.232-.072c.017.024.002.045-.007.065-.066.136-.128.273-.193.409-.036.078-.07.157-.11.233a.508.508 0 0 1-.19.016" fill="#1e9246" mask="url(#a)" transform="translate(4 10)"/><path d="M22.545 4.586c-.048.013-.098.008-.147.007-.013-.015-.004-.03.002-.044.073-.161.149-.32.223-.48l.28-.601c.015-.033.026-.07.055-.096l.216-.008c.002.005.001.008-.004.011-.006.003-.013.007-.02.005-.061-.011-.084.026-.106.075-.146.321-.298.639-.446.96-.019.042-.041.082-.058.125-.008.017-.01.032.005.046" fill="#239446" mask="url(#a)" transform="translate(4 10)"/><path d="M22.88 5.886a.087.087 0 0 1 .01-.045l.282-.597c.01-.02.02-.041.018-.065l.233-.102c.01.03-.005.057-.017.082-.09.19-.176.382-.267.57a.48.48 0 0 0-.034.09.972.972 0 0 1-.225.067" fill="#1a9046" mask="url(#a)" transform="translate(4 10)"/><path d="M22.545 4.586c-.024.001-.039 0-.024-.033.082-.172.162-.344.242-.516.098-.211.197-.42.293-.631.012-.027.025-.038.053-.036.021.002.043.001.065.001.017.019.005.038-.004.055-.11.229-.214.461-.322.691-.069.146-.138.29-.203.438a.06.06 0 0 1-.014.021.278.278 0 0 1-.086.01" fill="#1e9246" mask="url(#a)" transform="translate(4 10)"/><path d="M22.7 5.285c-.014.076-.06.14-.09.208-.051.121-.11.24-.164.358l-.005.017a1.155 1.155 0 0 1-.198-.052c-.011-.013-.005-.027 0-.04.077-.165.155-.329.23-.495.003-.008.007-.02.02-.015l.207.02" fill="#299745" mask="url(#a)" transform="translate(4 10)"/><path d="M22.958 3.372c-.042.092-.083.185-.126.277-.13.28-.263.557-.392.837-.015.034-.039.067-.042.107l-.086-.01c-.028-.014-.013-.034-.007-.052.023-.06.055-.12.083-.18.146-.31.291-.623.436-.935.006-.013.011-.027.022-.037a.466.466 0 0 1 .112-.007" fill="#279745" mask="url(#a)" transform="translate(4 10)"/><path d="M20.82 4.64a4.88 4.88 0 0 1 .074-.165c.058-.127.117-.252.176-.378.008-.018.016-.038.036-.046a2.4 2.4 0 0 0 .085.301c-.018.014-.026.034-.036.054l-.19.407c-.01.018-.016.041-.04.047a.83.83 0 0 1-.105-.22" fill="#56ae42" mask="url(#a)" transform="translate(4 10)"/><path d="m23.276 3.36.104.003c.013.016.004.03-.002.044-.082.173-.16.347-.242.519-.085.182-.169.365-.256.546-.007.014-.01.029-.007.045a.413.413 0 0 1-.128.035c-.02-.014-.022-.015-.01-.041.017-.042.037-.083.057-.124.092-.194.181-.39.273-.584.063-.133.123-.267.188-.4.006-.014.011-.03.024-.04z" fill="#158d47" mask="url(#a)" transform="translate(4 10)"/><path d="M23.484 3.363c.009 0 .018 0 .026-.002.013.001.025.001.025.02-.002.088.006.177-.008.266-.018-.018-.007-.04-.014-.069-.03.061-.055.117-.081.173-.073.16-.148.317-.221.475a.88.88 0 0 0-.048.11.475.475 0 0 1-.18.137c-.017-.019-.017-.018-.004-.048.026-.063.057-.125.087-.187.127-.275.255-.55.385-.826.008-.018.015-.037.033-.049" fill="#0d8947" mask="url(#a)" transform="translate(4 10)"/><path d="M24.076 5.18c-.017-.04.014-.068.028-.1.07-.153.144-.306.216-.461l.232-.497c.007-.014.011-.033.03-.04.008.01.003.02.005.03-.024.363-.15.684-.4.95-.038.039-.069.084-.11.118" fill="#068648" mask="url(#a)" transform="translate(4 10)"/><path d="M22.036 4.507a.302.302 0 0 1-.094-.045c-.005-.028.011-.05.022-.073l.257-.55.185-.398c.01-.02.021-.034.043-.035l.095-.008c.007.04-.018.071-.033.104-.113.238-.223.478-.335.716-.04.084-.078.17-.118.253-.006.013-.01.027-.022.036" fill="#399f44" mask="url(#a)" transform="translate(4 10)"/><path d="M23.105 5.819c-.017-.013-.005-.026 0-.038l.142-.308c.05-.108.102-.215.151-.322.011-.023.017-.05.025-.073l.2-.12c.015.02.006.038-.002.056-.079.17-.159.341-.237.512-.033.072-.073.14-.096.216-.058.034-.12.055-.183.077" fill="#158d47" mask="url(#a)" transform="translate(4 10)"/><path d="M22.036 4.507c.007-.052.04-.095.06-.14.067-.153.142-.304.212-.455.08-.17.157-.343.236-.514l.112-.009c.006.015-.003.028-.009.041-.132.275-.258.553-.388.83-.044.093-.09.185-.128.281a.317.317 0 0 1-.095-.034" fill="#349d45" mask="url(#a)" transform="translate(4 10)"/><path d="M22.13 4.542c-.01-.012-.004-.023.002-.036l.189-.404.314-.67.02-.042.122-.008c-.077.123-.127.259-.19.389-.071.148-.14.298-.21.448-.047.102-.092.206-.143.307-.007.014-.01.03-.027.037a.33.33 0 0 1-.076-.021" fill="#309b45" mask="url(#a)" transform="translate(4 10)"/><path d="m22.207 4.563.203-.44.33-.709c.01-.019.023-.023.037-.033.023 0 .046 0 .07-.002-.006.047-.034.085-.053.126-.087.194-.18.386-.27.58l-.213.458c-.006.015-.01.027 0 .04a.466.466 0 0 1-.104-.02" fill="#2c9945" mask="url(#a)" transform="translate(4 10)"/><path d="M23.277 3.363c-.01.059-.046.108-.07.16-.09.2-.187.4-.28.6l-.184.392c-.006.013-.017.026.002.037a.446.446 0 0 1-.114.024c.011-.072.053-.132.083-.196.128-.281.26-.56.392-.84.018-.04.036-.08.056-.12a.086.086 0 0 0 .011-.05v-.006l.104-.001" fill="#198f46" mask="url(#a)" transform="translate(4 10)"/><path d="m23.484 3.363-.136.296-.364.78c-.005.011-.015.022 0 .034-.034.023-.073.031-.11.044-.028-.005-.017-.02-.011-.035l.134-.284c.126-.269.25-.537.377-.806.004-.009.005-.019.006-.029z" fill="#108b47" mask="url(#a)" transform="translate(4 10)"/><path d="M22.45 3.407c-.023.006-.028.026-.036.044a431.324 431.324 0 0 0-.464.997l-.008.014a.334.334 0 0 1-.07-.048c-.026-.018-.009-.038 0-.057l.163-.354c.086-.181.17-.363.255-.544.006-.013.011-.027.021-.037.013-.008.03 0 .043-.006l.095-.01" fill="#3ea244" mask="url(#a)" transform="translate(4 10)"/><path d="M22.968 6.68c-.044-.009-.066.011-.083.051-.045.104-.094.206-.141.31-.006.012-.02.024-.01.042a1.613 1.613 0 0 1-.25-.06c-.01-.013-.003-.025.002-.036.049-.112.103-.22.154-.33a.035.035 0 0 1 .017-.02l.31.042" fill="#299745" mask="url(#a)" transform="translate(4 10)"/><path d="M24.043 4.516c.01.024-.005.044-.014.063l-.24.518-.21.452c-.005.012-.016.026.003.037a.793.793 0 0 1-.15.085c-.015-.019-.015-.019-.003-.049.027-.068.06-.134.09-.2.1-.208.194-.419.295-.627.002-.006 0-.014.007-.02a3.44 3.44 0 0 0 .222-.259" fill="#108b47" mask="url(#a)" transform="translate(4 10)"/><path d="M20.243 5.301c.06-.106.104-.219.157-.328.01-.016.003-.05.04-.043.028.105.064.208.107.31l.014.035c-.046.075-.077.158-.116.237-.01.022-.012.055-.048.056a1.447 1.447 0 0 1-.154-.267" fill="#58af42" mask="url(#a)" transform="translate(4 10)"/><path d="M21.838 6.738c-.086-.052-.172-.104-.26-.155-.01-.013 0-.025.006-.036.035-.073.066-.147.104-.219.006-.013.009-.032.03-.028.069.04.14.074.213.106l.045.023c.01.012.007.024.002.036-.037.084-.077.167-.116.25-.005.01-.011.02-.024.023" fill="#399f44" mask="url(#a)" transform="translate(4 10)"/><path d="M23.82 4.776c.002.032-.014.059-.026.085l-.265.564c-.03.068-.062.135-.092.204-.005.012-.019.026-.006.043-.044.03-.095.046-.143.07-.019-.018-.002-.034.005-.05a88.2 88.2 0 0 1 .208-.443l.114-.244c.007-.015.006-.031.007-.046.071-.056.135-.12.198-.183" fill="#138c47" mask="url(#a)" transform="translate(4 10)"/><path d="m21.838 6.738.132-.28c.004-.009.004-.019.006-.029l.25.094c.01.013.007.027 0 .04l-.128.275c-.006.012-.012.025-.028.03a1.149 1.149 0 0 1-.232-.13" fill="#349d45" mask="url(#a)" transform="translate(4 10)"/><path d="M20.925 4.86c.053-.082.085-.174.128-.26.038-.077.073-.156.11-.233.006-.012.01-.025.028-.015.03.061.06.121.092.181-.076.14-.135.285-.204.426-.01.023-.016.05-.044.06a.752.752 0 0 1-.11-.159" fill="#52ac43" mask="url(#a)" transform="translate(4 10)"/><path d="M21.737 4.972c.053.03.106.06.156.094-.01.042-.032.077-.05.114-.047.103-.093.206-.143.308-.006.013-.011.03-.026.038a1.112 1.112 0 0 1-.163-.097c-.005-.02.007-.036.015-.052l.176-.376c.007-.015.012-.033.035-.029" fill="#3ea244" mask="url(#a)" transform="translate(4 10)"/><path d="M22.312 3.422c-.004.047-.033.085-.051.126-.09.195-.181.387-.272.581l-.116.249c-.006.013-.008.023 0 .036a.42.42 0 0 1-.086-.055c-.011-.016-.001-.028.005-.041.073-.16.149-.319.223-.479.058-.126.119-.251.175-.378a.081.081 0 0 1 .019-.029.396.396 0 0 1 .103-.01" fill="#42a444" mask="url(#a)" transform="translate(4 10)"/><path d="M22.209 3.432c-.002.03-.016.055-.028.08l-.343.73c-.018.038-.034.077-.051.116a.372.372 0 0 1-.078-.059c-.011-.015-.001-.028.005-.04l.172-.37.193-.414c.009-.02.02-.034.044-.034l.086-.009" fill="#46a643" mask="url(#a)" transform="translate(4 10)"/><path d="M21.674 5.526c.047-.103.092-.206.14-.308.026-.051.04-.108.079-.151l.162.086c-.042.096-.088.19-.132.285-.021.045-.041.091-.063.136-.008.015-.013.033-.032.039a1.558 1.558 0 0 1-.154-.087" fill="#399f44" mask="url(#a)" transform="translate(4 10)"/><path d="M21.719 6.3c-.052.073-.076.16-.12.237l-.02.046c-.083-.043-.162-.094-.241-.144-.005-.012 0-.022.004-.033.03-.073.066-.143.099-.214.007-.016.014-.04.043-.03.08.04.162.084.235.138" fill="#3ea244" mask="url(#a)" transform="translate(4 10)"/><path d="M22.07 6.869c.05-.104.1-.208.148-.313.004-.01.005-.022.008-.033l.235.07c-.053.119-.11.235-.164.354a.034.034 0 0 1-.012.012 1.395 1.395 0 0 1-.215-.09" fill="#309b45" mask="url(#a)" transform="translate(4 10)"/><path d="M25.848 3.654c-.034.01-.036.042-.047.067l-.224.478-.042.095a.072.072 0 0 1-.041.041c.032-.168.068-.336.088-.507.009-.069.015-.139.02-.209.002-.013 0-.025.02-.02.076.02.153.03.226.055" fill="#108b47" mask="url(#a)" transform="translate(4 10)"/><path d="m21.828 5.613.197-.42c.007-.014.011-.032.03-.04l.155.052c-.007.043-.033.079-.05.117-.056.12-.11.242-.169.36-.004.009-.008.017-.016.02-.052-.023-.099-.057-.147-.09" fill="#359d45" mask="url(#a)" transform="translate(4 10)"/><path d="M22.285 6.959c.014-.066.055-.121.08-.184.018-.05.044-.098.067-.147.007-.013.012-.03.03-.035l.195.045-.124.272c-.018.037-.037.074-.049.113a1.28 1.28 0 0 1-.199-.064" fill="#2c9945" mask="url(#a)" transform="translate(4 10)"/><path d="M22.494 5.266c-.066.143-.134.285-.2.43-.017.04-.045.075-.051.12a.882.882 0 0 1-.138-.05c-.013-.019-.003-.034.004-.049.073-.149.139-.3.21-.448.007-.012.007-.033.03-.03.048.01.097.018.145.027" fill="#2d9a45" mask="url(#a)" transform="translate(4 10)"/><path d="M21.737 4.972c-.018.007-.021.024-.03.04-.064.14-.13.278-.196.417a.864.864 0 0 1-.14-.093c-.004-.014.002-.026.008-.037.062-.129.122-.259.182-.389.008-.016.013-.037.038-.033l.138.095" fill="#42a444" mask="url(#a)" transform="translate(4 10)"/><path d="M21.035 5.02c.059-.106.103-.218.156-.326l.07-.143a.025.025 0 0 1 .023-.017c.03.046.063.092.096.138-.05.116-.107.227-.158.342l-.041.09c-.007.016-.013.035-.033.042a.681.681 0 0 1-.113-.127" fill="#4eaa43" mask="url(#a)" transform="translate(4 10)"/><path d="M22.349 5.24c-.045.073-.075.155-.114.233-.042.083-.08.17-.12.255a.066.066 0 0 0-.01.036.61.61 0 0 1-.13-.06c.007-.049.037-.088.056-.13.052-.119.11-.235.166-.353.003-.006.009-.01.013-.016l.139.034" fill="#319b45" mask="url(#a)" transform="translate(4 10)"/><path d="M22.122 3.442c-.04.02-.046.065-.063.101-.05.102-.096.205-.143.308l-.208.447a.27.27 0 0 1-.068-.067c-.01-.014 0-.025.004-.036.097-.207.192-.413.291-.619.02-.038.028-.083.058-.117l.13-.017" fill="#4ba943" mask="url(#a)" transform="translate(4 10)"/><path d="m21.148 5.147.209-.452c.005-.01.008-.022.022-.023l.107.11c-.054.117-.106.233-.163.347-.02.04-.029.088-.063.122a.789.789 0 0 1-.112-.104" fill="#4aa843" mask="url(#a)" transform="translate(4 10)"/><path d="M21.26 5.25c.028-.083.072-.158.106-.238.028-.065.061-.129.092-.193.007-.014.011-.03.028-.036l.113.094c-.019.007-.023.025-.03.04l-.197.42a.724.724 0 0 1-.112-.087" fill="#46a643" mask="url(#a)" transform="translate(4 10)"/><path d="M20.398 5.569c.026-.017.03-.046.043-.072l.093-.198c.006-.014.012-.024.028-.024l.127.232c-.039.075-.07.152-.108.228-.008.015-.013.032-.028.04a1.208 1.208 0 0 1-.156-.206" fill="#53ad43" mask="url(#a)" transform="translate(4 10)"/><path d="M23.163 4.335c-.012-.033.011-.057.022-.083l.281-.597c.016-.033.023-.072.061-.104v.096a.358.358 0 0 1-.016.126c-.055.181-.12.356-.266.488-.027.025-.06.043-.082.074" fill="#078648" mask="url(#a)" transform="translate(4 10)"/><path d="M21.484 6.163c-.04.01-.04.05-.054.078-.033.065-.062.132-.092.198-.065-.041-.13-.081-.19-.128-.005-.037.02-.064.034-.095.027-.06.049-.121.087-.175l.215.122" fill="#42a444" mask="url(#a)" transform="translate(4 10)"/><path d="M21.484 3.94a1.049 1.049 0 0 1-.074-.367c0-.017.001-.03.023-.032.09-.013.177-.033.266-.04.012.014.003.027-.003.039-.055.124-.113.246-.172.368-.007.015-.01.043-.04.032" fill="#5cb142" mask="url(#a)" transform="translate(4 10)"/><path d="M24.527 3.423c-.015.063-.053.117-.078.177-.038.091-.083.178-.123.268-.016.036-.04.066-.064.097.025-.177.049-.353.042-.532-.001-.028.008-.034.035-.03.063.008.125.013.188.02" fill="#128c47" mask="url(#a)" transform="translate(4 10)"/><path d="M21.484 3.94c.037-.021.043-.062.06-.094.051-.108.1-.217.15-.325l.005-.02a.499.499 0 0 1 .121-.018c.011.014.002.027-.003.04l-.239.51c-.008.018-.013.039-.035.047a.508.508 0 0 1-.059-.14" fill="#56af42" mask="url(#a)" transform="translate(4 10)"/><path d="M21.993 3.458c-.002.035-.022.064-.036.095-.092.2-.187.398-.28.597a2.906 2.906 0 0 0-.037.081.236.236 0 0 1-.053-.073c-.003-.032.02-.053.032-.077.09-.195.183-.39.27-.586.007-.012.012-.023.026-.027l.078-.01" fill="#4fab43" mask="url(#a)" transform="translate(4 10)"/><path d="M27.442 4.137c-.046.064-.07.14-.104.209-.05.1-.094.202-.141.303-.007.017-.018.029-.037.03.043-.2.084-.4.1-.608l.182.066" fill="#0e8a47" mask="url(#a)" transform="translate(4 10)"/><path d="m20.819 5.671.143.145c-.025.082-.07.154-.102.231a.035.035 0 0 1-.021.02 1.14 1.14 0 0 1-.147-.139c-.013-.015-.005-.029.002-.044.029-.06.054-.124.087-.183.008-.014.01-.039.038-.03" fill="#4caa43" mask="url(#a)" transform="translate(4 10)"/><path d="M20.819 5.671c-.038.026-.046.071-.063.108-.023.05-.053.095-.064.15a1.123 1.123 0 0 1-.14-.154l.117-.255c.004-.008.012-.011.02-.012l.13.164" fill="#50ab43" mask="url(#a)" transform="translate(4 10)"/><path d="m21.915 3.468-.293.637c-.01.02-.026.034-.036.053a.23.23 0 0 1-.043-.078c.091-.194.183-.387.273-.581.003-.005.003-.011.004-.016.031-.012.063-.011.095-.015" fill="#52ac43" mask="url(#a)" transform="translate(4 10)"/><path d="M21.27 6.041c-.034.093-.08.18-.123.27a1.433 1.433 0 0 1-.154-.115c-.01-.012-.004-.024.002-.035.032-.062.058-.127.09-.188.008-.015.014-.037.04-.027l.144.095" fill="#46a643" mask="url(#a)" transform="translate(4 10)"/><path d="M21.125 5.946c-.03.006-.032.035-.042.055l-.09.195a1.36 1.36 0 0 1-.155-.129l.1-.216c.006-.013.01-.028.023-.035l.164.13" fill="#49a843" mask="url(#a)" transform="translate(4 10)"/><path d="M22.355 3.416c-.013.01-.03.005-.043.006a.078.078 0 0 1 .043-.006" fill="#42a444" mask="url(#a)" transform="translate(4 10)"/><path d="M24.58 3.43c-.016 0-.03.006-.044-.006a.072.072 0 0 1 .043.007" fill="#128c47" mask="url(#a)" transform="translate(4 10)"/><path d="M26.411 7.748c-.006-.034.011-.063.024-.092l.341-.727.291-.623.365-.782.291-.627.237-.506c.007-.014.01-.035.031-.038l.001.13v.069l.001.043c-.009.16-.029.318-.056.476 0 .005-.004.01-.006.015-.029.045-.049.094-.07.14-.07.154-.142.306-.213.458-.113.244-.227.489-.342.733l-.263.565c-.028.059-.062.117-.08.18-.085.114-.18.218-.277.323-.086.094-.186.173-.275.263" fill="#068648" mask="url(#a)" transform="translate(4 10)"/><path d="M26.963 7.162c-.01-.014-.005-.027.001-.04l.187-.401.397-.853.197-.42.16-.34c.005-.011.006-.027.026-.022a4.758 4.758 0 0 1-.085.376 4.727 4.727 0 0 1-.633 1.367 3.11 3.11 0 0 1-.25.333" fill="#048548" mask="url(#a)" transform="translate(4 10)"/><path d="M23.459 8.936c.025-.014.053-.004.08-.006a.268.268 0 0 1-.08.006" fill="#239446" mask="url(#a)" transform="translate(4 10)"/><path d="M22.75 8.912c.015.001.03-.005.043.006a.08.08 0 0 1-.043-.006" fill="#299745" mask="url(#a)" transform="translate(4 10)"/><path d="M19.999 3.898c-.23.077-.468.162-.69.254.12-1.404.576-1.955.866-2.378.253-.369 1.102-1.135 1.603-1.329.335-.131.889-.384 1.742-.445h.223c.62.032 1.643.297 1.908.477.769.523 1.007.875 1.308 1.658.146.381.207.656.259 1.1.03.262.058.496.044.836-.398-.16-.798-.26-1.221-.371a3.886 3.886 0 0 0-.172-1.414c-.225-.586-.427-.948-1.03-1.302-.371-.218-1.247-.339-1.54-.325-.476.023-1.191.285-1.446.373-.316.11-.934.645-1.124.922-.202.294-.68.934-.73 1.944" fill="#006caa" mask="url(#a)" transform="translate(4 10)"/><path d="M21.577 2.924c.067-.098.293-.32.405-.358.09-.032.28-.142.592-.141.165 0 .477.152.557.206.203.14.239.225.329.428a.971.971 0 0 1 .072.302c.235.005.536.018.774.039 0-.013-.018-.13-.02-.143-.026-.194-.135-.393-.218-.532-.2-.34-.36-.421-.65-.59-.17-.098-.492-.151-.648-.155-.332-.01-.741.138-.897.215-.182.09-.391.364-.507.553-.123.203-.231.37-.281.853.095-.022.232-.038.326-.056a1.213 1.213 0 0 1 .166-.621" fill="#006caa" mask="url(#a)" transform="translate(4 10)"/><path d="M21.124 2.53c.115-.174.461-.447.647-.543.187-.096.6-.359 1.003-.343.253.01.752.163.967.324.348.263.541.351.687.715.061.151.166.517.166.746.337.034.687.102 1.011.167l.002-.044a2.245 2.245 0 0 0-.16-.812c-.198-.493-.507-.946-.998-1.27-.263-.174-1.108-.297-1.427-.277-.4.025-1.05.256-1.274.367-.277.138-.623.497-.779.734-.15.225-.506.745-.588 1.485.093-.03.241-.067.358-.099.061-.544.274-.984.385-1.15" fill="#006caa" mask="url(#a)" transform="translate(4 10)"/></g></svg>