<svg height="36" viewBox="0 0 36 36" width="36" xmlns="http://www.w3.org/2000/svg"><mask id="a" fill="#fff"><path d="M0 0h24v20.758H0z" fill-rule="evenodd"/></mask><g fill="none" fill-rule="evenodd"><path d="M18 0c2.837 0 5.52.656 7.907 1.825C31.884 4.753 36 10.895 36 18c0 9.942-8.058 18-18 18-9.94 0-18-8.057-18-18C0 8.06 8.06 0 18 0z" fill="#f2f4f7" fill-rule="nonzero"/><path d="M6.582 16.29h-.75v-3.364h.75c1.035 0 1.615.41 1.615 1.682 0 1.274-.58 1.683-1.615 1.683zm.128-5.333H3.583v9.801h2.243v-2.5h.878c2.45 0 3.79-1.2 3.79-3.65s-1.34-3.65-3.79-3.65zm6.588 2.938c.104-.847.476-1.267 1.298-1.267.847 0 1.194.444 1.298 1.267zm1.298-3.114c-2.48 0-3.632 1.597-3.632 3.803 0 2.322 1.225 3.802 3.803 3.802 1.11 0 2.236-.433 2.907-1.15l-1.31-1.323a2.156 2.156 0 0 1-1.481.578c-.823 0-1.354-.261-1.542-1.036h4.796c.03-.214.03-.804.03-.92 0-2.072-.993-3.748-3.57-3.748zm7.32.17c-2.164 0-3.17.982-3.17 3.114v4.188h2.249v-4.188c0-.907.372-1.15 1.097-1.15H24v-1.958h-2.084zM16.894 0h-2.248v2.078h2.248zm0 2.937h-2.248v7.32h2.248zm-5.248 3.115v4.211h2.25V6.052c0-2.134-1.012-3.115-3.17-3.115h-3.4v7.32h2.248V4.893h.982c.719 0 1.097.243 1.097 1.151zm-5.07-3.115h-2.25V8.3h-.98c-.72 0-1.098-.243-1.098-1.152V2.937H0v4.211c0 2.134 1.011 3.115 3.169 3.115H6.57v-7.32z" fill="#008dd1" mask="url(#a)" transform="translate(6 8)"/></g></svg>