<svg width="36" height="36" fill="none" xmlns="http://www.w3.org/2000/svg"><path d="M18 0c2.837 0 5.52.656 7.907 1.825C31.884 4.753 36 10.895 36 18c0 9.942-8.058 18-18 18-9.94 0-18-8.057-18-18C0 8.06 8.06 0 18 0z" fill="#F2F4F7"/><path d="M6.172 21.512h.238v1.038c0 .18-.02.324-.06.43a.527.527 0 0 1-.222.259.782.782 0 0 1-.419.1.858.858 0 0 1-.412-.087A.495.495 0 0 1 5.07 23a1.205 1.205 0 0 1-.07-.45v-1.038h.238v1.037c0 .156.015.272.044.345a.327.327 0 0 0 .149.171c.07.04.156.06.258.06.174 0 .298-.04.372-.118.074-.08.111-.232.111-.458v-1.037zm.831 1.797v-1.797h.244l.943 1.41v-1.41h.229v1.797h-.245l-.943-1.41v1.41h-.228zm2.053 0v-1.797h.239v1.797h-.239zm1.313 0v-1.586h-.593v-.211H11.2v.21h-.592v1.587h-.238zm1.28 0v-1.797h1.297v.21h-1.06v.553h.992v.21h-.992v.613h1.102v.21h-1.34zm1.866 0v-1.797h.62c.139 0 .246.008.32.025.102.024.19.067.263.13a.73.73 0 0 1 .212.306c.047.125.071.268.071.428 0 .136-.016.257-.048.362a.882.882 0 0 1-.122.262.649.649 0 0 1-.164.163.664.664 0 0 1-.214.09c-.085.02-.18.03-.29.03h-.648zm.239-.211h.383c.118 0 .211-.01.278-.033a.4.4 0 0 0 .161-.093.57.57 0 0 0 .132-.228 1.12 1.12 0 0 0 .047-.347c0-.188-.03-.333-.092-.434a.464.464 0 0 0-.225-.204.923.923 0 0 0-.307-.036h-.377v1.375zm2.88.21v-1.585h-.591v-.211h1.422v.21h-.592v1.587h-.238zm1.28 0v-1.796h.797c.16 0 .282.016.365.048a.41.41 0 0 1 .2.171.51.51 0 0 1 .074.27.453.453 0 0 1-.124.323c-.082.088-.21.143-.382.167.063.03.11.06.144.09.069.063.135.143.196.238l.31.49h-.296l-.238-.374a3.314 3.314 0 0 0-.17-.248.543.543 0 0 0-.122-.12.363.363 0 0 0-.108-.048.734.734 0 0 0-.132-.008h-.275v.798h-.239zm.239-1.003h.51a.757.757 0 0 0 .254-.034.265.265 0 0 0 .14-.108.292.292 0 0 0 .047-.16.269.269 0 0 0-.092-.21c-.062-.056-.159-.083-.291-.083h-.568v.595zm1.57 1.004.69-1.797h.26l.732 1.797h-.27l-.208-.545h-.757l-.195.545h-.252zm.517-.738h.612l-.187-.498a6.365 6.365 0 0 1-.129-.375 2.547 2.547 0 0 1-.1.346l-.196.527zm2.832.107.238.06a.8.8 0 0 1-.268.447.74.74 0 0 1-.474.154.85.85 0 0 1-.472-.118.735.735 0 0 1-.277-.343 1.226 1.226 0 0 1-.095-.481c0-.187.036-.35.107-.49a.737.737 0 0 1 .305-.317.888.888 0 0 1 .435-.108.73.73 0 0 1 .453.137.71.71 0 0 1 .256.386l-.233.055a.553.553 0 0 0-.181-.285.48.48 0 0 0-.299-.09.58.58 0 0 0-.345.1.523.523 0 0 0-.195.266 1.072 1.072 0 0 0-.057.345c0 .152.023.286.067.4a.49.49 0 0 0 .207.255.577.577 0 0 0 .304.085.51.51 0 0 0 .337-.115.59.59 0 0 0 .187-.343zm1.188.63v-1.585h-.593v-.211h1.423v.21h-.592v1.587h-.239zm1.156-.874c0-.298.08-.531.24-.7a.817.817 0 0 1 .62-.252c.167 0 .316.04.45.119a.776.776 0 0 1 .304.33c.07.142.105.303.105.482 0 .182-.037.345-.11.489a.75.75 0 0 1-.313.326.894.894 0 0 1-.436.11.852.852 0 0 1-.454-.122.788.788 0 0 1-.303-.334 1.01 1.01 0 0 1-.103-.448zm.246.004c0 .217.058.387.174.511a.575.575 0 0 0 .438.187.574.574 0 0 0 .442-.189c.115-.125.173-.303.173-.534a.92.92 0 0 0-.074-.383.569.569 0 0 0-.537-.342.608.608 0 0 0-.434.173c-.121.115-.182.308-.182.577zm1.982.87v-1.796h.797c.16 0 .282.016.365.048a.41.41 0 0 1 .2.171.51.51 0 0 1 .074.27.453.453 0 0 1-.124.323c-.082.088-.21.143-.382.167.063.03.11.06.143.09.07.063.136.143.197.238l.31.49h-.296l-.238-.374a3.284 3.284 0 0 0-.17-.248.543.543 0 0 0-.122-.12.364.364 0 0 0-.108-.048.732.732 0 0 0-.132-.008h-.275v.798h-.239zm.239-1.003h.51a.757.757 0 0 0 .254-.034.265.265 0 0 0 .14-.108.291.291 0 0 0 .047-.16.269.269 0 0 0-.092-.21c-.062-.056-.159-.083-.291-.083h-.568v.595zm1.69.427.222-.02a.49.49 0 0 0 .074.222.41.41 0 0 0 .181.14.683.683 0 0 0 .276.054c.09 0 .17-.013.24-.04a.333.333 0 0 0 .155-.112.26.26 0 0 0 .05-.154.234.234 0 0 0-.048-.147.366.366 0 0 0-.162-.106 3.332 3.332 0 0 0-.32-.088 1.628 1.628 0 0 1-.347-.112.485.485 0 0 1-.191-.167.409.409 0 0 1-.063-.224c0-.091.026-.176.077-.255a.476.476 0 0 1 .226-.18.852.852 0 0 1 .33-.061c.132 0 .25.021.351.064.102.043.18.106.235.19a.544.544 0 0 1 .088.283l-.228.017a.365.365 0 0 0-.124-.256c-.071-.059-.175-.087-.314-.087-.143 0-.248.026-.314.079a.238.238 0 0 0-.099.19c0 .065.024.118.07.16.046.041.165.084.359.128.193.044.325.082.397.114a.543.543 0 0 1 .232.183.486.486 0 0 1-.008.524.54.54 0 0 1-.235.198.822.822 0 0 1-.346.07c-.163 0-.299-.024-.408-.071a.567.567 0 0 1-.258-.214.602.602 0 0 1-.099-.322z" fill="#232322"/><path fill-rule="evenodd" clip-rule="evenodd" d="M18 20.282A4.14 4.14 0 1 0 18 12a4.14 4.14 0 0 0 0 8.282z" fill="#232322"/><path fill-rule="evenodd" clip-rule="evenodd" d="M20.898 14.422v1.248h-2.155v1.145c0 .196.16.356.356.356h.031c.196 0 .356-.16.356-.356v-.584h1.412V17.5c0 .47-.384.854-.854.854h-4.073a.856.856 0 0 1-.854-.854v-3.078h1.443v2.393c0 .196.16.356.356.356h.03c.195 0 .355-.16.355-.356V15.67h-.438v-1.248h.438v-.569h1.442v.57h2.155z" fill="#FFD500"/></svg>