<svg width="36" height="36" fill="none" xmlns="http://www.w3.org/2000/svg"><path d="M18 0c2.837 0 5.52.656 7.907 1.825C31.884 4.753 36 10.895 36 18c0 9.942-8.058 18-18 18-9.94 0-18-8.057-18-18C0 8.06 8.06 0 18 0z" fill="#F2F4F7"/><path d="m4.965 17.526-.583.587a1.338 1.338 0 0 0 0 1.872 1.313 1.313 0 0 0 1.857 0l1.302-1.307a.295.295 0 0 1 .373 0l-1.12-1.125a1.3 1.3 0 0 0-1.83-.027z" fill="#00918C"/><path d="M8.568 15.295a1.317 1.317 0 0 0-1.76.088c-.01.01-.014.02-.023.024l-.075.075-1.736 1.75a1.31 1.31 0 0 1 1.834.023l1.12 1.125 1.298 1.306a1.313 1.313 0 0 0 1.857 0 1.338 1.338 0 0 0 0-1.871" fill="#00ADA8"/><path d="M16.455 18.109c0 1.139-.64 1.708-1.629 1.708-.985 0-1.615-.57-1.615-1.675v-2.198h.668v2.17c0 .71.364 1.087.956 1.087.593 0 .952-.36.952-1.06v-2.197h.668v2.165zm2.333 1.708c-.471 0-.77-.238-.966-.504v1.32h-.658v-3.747h.658v.481c.21-.299.509-.541.966-.541.677 0 1.33.541 1.33 1.498 0 .956-.648 1.493-1.33 1.493zm-.154-2.422c-.443 0-.83.364-.83.929 0 .56.387.924.83.924.448 0 .817-.355.817-.924 0-.57-.373-.929-.817-.929zm3.006 2.417c-.406 0-.86-.149-1.214-.429l.294-.443c.308.233.644.354.938.354.28 0 .444-.12.444-.312v-.01c0-.224-.304-.298-.64-.401-.424-.121-.896-.294-.896-.845v-.009c0-.546.448-.877 1.018-.877.359 0 .746.126 1.05.326l-.262.467c-.275-.168-.57-.275-.807-.275-.257 0-.401.121-.401.289v.01c0 .21.308.293.644.4.415.131.886.323.886.84v.01c.005.607-.462.905-1.054.905zm2.38-.952c0 .257.13.36.35.36a.882.882 0 0 0 .406-.098v.541c-.164.093-.346.15-.588.15-.481 0-.822-.21-.822-.845v-1.512h-.364v-.565h.364v-.789h.654v.789h.77v.565h-.77v1.404zm3.02.901v-.355c-.192.234-.495.416-.925.416-.541 0-1.017-.308-1.017-.887v-.01c0-.62.494-.928 1.157-.928.346 0 .57.051.794.121v-.074c0-.397-.248-.616-.705-.616-.318 0-.56.07-.817.177l-.177-.527c.312-.14.625-.238 1.087-.238.845 0 1.255.448 1.255 1.213v1.703h-.653v.005zm.018-1.223a1.865 1.865 0 0 0-.658-.116c-.41 0-.654.168-.654.462v.01c0 .274.243.424.551.424.434 0 .76-.248.76-.607v-.173zm1.937 1.223h-.659v-2.875h.659v.644c.177-.434.508-.723 1.012-.704v.7h-.037c-.574 0-.975.378-.975 1.138v1.097zm2.235-.9c0 .256.13.359.35.359a.882.882 0 0 0 .406-.098v.541a1.12 1.12 0 0 1-.588.15c-.48 0-.826-.21-.826-.845v-1.512h-.364v-.565h.364v-.789h.658v.789H32v.565h-.77v1.404z" fill="#333"/></svg>