<svg height="36" viewBox="0 0 36 36" width="36" xmlns="http://www.w3.org/2000/svg"><g fill="none"><path d="M18 0c2.837 0 5.52.656 7.907 1.825C31.884 4.753 36 10.895 36 18c0 9.942-8.058 18-18 18-9.94 0-18-8.057-18-18C0 8.06 8.06 0 18 0z" fill="#f2f4f7"/><path d="M3.5 19.915v-1.48h.218v1.46a.231.231 0 0 0 .231.258c.162 0 .231-.108.231-.256v-1.462h.207V19.9a.417.417 0 0 1-.45.446c-.256 0-.437-.137-.437-.43zm1.36-1.478h.232l.48 1.332v-1.332h.213v1.884h-.209l-.51-1.447h-.008v1.447h-.197zm1.412 0h.219v1.884h-.22zm.711 0h.53c.31 0 .451.17.451.47 0 .24-.11.404-.293.435v.01c.222.043.312.22.312.446 0 .377-.19.523-.456.523h-.541zm.452.83c.161 0 .282-.1.282-.337 0-.218-.1-.306-.245-.306H7.24v.642zm.04.866c.164 0 .251-.116.251-.347 0-.231-.116-.335-.288-.335H7.24v.682zm1.09-1.703h.29l.379 1.89H9.02l-.116-.557H8.49l-.106.564H8.18zm.305 1.148-.168-.897h-.007l-.17.897zm.776-1.141h.22v1.884h-.22zm.713 0h.22v1.693h.53v.19h-.75zm.999 1.023h.454v.175h-.454zm.863-1.023h.471c.34 0 .508.189.508.523 0 .267-.111.438-.285.489l.306.872h-.252l-.284-.823h-.214v.823h-.25zm.466.893c.177 0 .263-.125.263-.347 0-.186-.063-.357-.273-.357h-.206v.708zm.81.567v-1.04a.409.409 0 0 1 .14-.329.488.488 0 0 1 .362-.118c.28 0 .495.135.495.425v1.055a.408.408 0 0 1-.134.338.489.489 0 0 1-.368.124c-.297-.006-.495-.154-.495-.455zm.762 0v-1.065c-.011-.127-.127-.224-.266-.222s-.25.103-.258.23v1.06a.237.237 0 0 0 .126.223c.084.047.19.047.273 0a.237.237 0 0 0 .125-.223zm.615-1.46h.504c.28 0 .496.125.496.396v1.06c0 .29-.215.428-.5.428h-.5zm.483 1.696a.272.272 0 0 0 .198-.067.21.21 0 0 0 .071-.176v-1.04a.203.203 0 0 0-.073-.171.263.263 0 0 0-.196-.06h-.235v1.514zm1.128-1.703h.292l.377 1.89h-.22l-.108-.557h-.412l-.116.558h-.203zm.304 1.148-.166-.897h-.008l-.169.897zm.766-1.141h.265l.285.808h.006l.293-.808h.251v1.884h-.195v-1.502h-.006l-.277.782h-.146l-.272-.78v1.5h-.197zm1.555 1.486V18.84c0-.263.183-.431.462-.431s.423.16.423.382v.214H19.8v-.183a.211.211 0 0 0-.231-.23.222.222 0 0 0-.238.251v1.055a.224.224 0 0 0 .242.253.213.213 0 0 0 .231-.224v-.185h.192v.195a.395.395 0 0 1-.428.407c-.272.003-.457-.147-.457-.42zm1.305-.026v-1.04a.407.407 0 0 1 .14-.33.488.488 0 0 1 .363-.117c.279 0 .494.135.494.425v1.055a.407.407 0 0 1-.134.339.489.489 0 0 1-.37.123c-.295-.006-.493-.154-.493-.455zm.762 0v-1.065a.238.238 0 0 0-.135-.206.282.282 0 0 0-.261.004.237.237 0 0 0-.127.21v1.06c0 .133.117.24.261.24.145 0 .262-.107.262-.24zm.54-.437h.455v.175h-.455zm.723-1.025h.212l.175 1.378h.008l.206-1.378h.217l.205 1.375h.006l.172-1.375h.196l-.26 1.899h-.204l-.224-1.441h-.008l-.22 1.44h-.203zm1.797.002h.748v.187h-.528v.618h.423v.188h-.423v.703h.531v.188h-.75zm.989 1.441.206-.008c.016.172.077.302.231.302s.207-.138.207-.265a.555.555 0 0 0-.164-.357l-.226-.25a.72.72 0 0 1-.225-.461.39.39 0 0 1 .41-.423c.208 0 .372.115.39.441h-.194c-.021-.182-.082-.27-.21-.27s-.192.076-.192.23a.57.57 0 0 0 .184.34l.197.221a.758.758 0 0 1 .23.521c0 .264-.147.454-.414.454s-.411-.175-.43-.475zm1.421-1.257h-.36v-.184h.936v.184h-.356v1.7h-.22zm.973-.184h.745v.184h-.527v.627h.419v.19h-.419v.883h-.218zm1.105 0h.219v1.884h-.22zm.712 0h.749v.187h-.53v.618h.424v.188h-.423v.703h.531v.188h-.75zm1.187 0h.218v1.693h.532v.19h-.75zm.991 0h.504c.28 0 .496.125.496.396v1.06c0 .29-.215.428-.501.428h-.499zm.483 1.696a.272.272 0 0 0 .197-.067.21.21 0 0 0 .072-.176v-1.04a.203.203 0 0 0-.073-.171.264.264 0 0 0-.196-.06h-.236v1.514z" fill="#3b3836"/><path d="m20.573 13.956-.158-.974-1.424.578h-.007l.027.106s.361-.14.483-.005a.204.204 0 0 1 .05.09c.034.107.084.329.174.819a.27.27 0 0 1-.045.207l-.006.005-.64.647c-.025-.164-.017-.115 0 0-.143-.933-.393-2.449-.393-2.449l-1.43.584.025.105s.363-.14.484 0a.198.198 0 0 1 .051.089c.033.107.084.329.174.819a.261.261 0 0 1-.06.222l-.631.638a328.63 328.63 0 0 0-.392-2.442l-1.43.584.026.106s.362-.14.483 0c.057.063.096.036.568 2.86v.008c.007.054.038.404-.33.717l.115.133s1.141-.748 1.027-1.55l-.01-.064.727-.73c.066.374.15.854.252 1.471v.01c.008.057.035.404-.33.715l.11.131s1.14-.742 1.024-1.551c0-.019 0-.04-.008-.06l.734-.73.567-.566a.775.775 0 0 0 .193-.523z" fill="#e1251b"/></g></svg>