<svg width="36" height="36" xmlns="http://www.w3.org/2000/svg"><g fill="none"><path d="M18 0c2.837 0 5.52.656 7.907 1.825C31.884 4.753 36 10.895 36 18c0 9.942-8.058 18-18 18-9.94 0-18-8.057-18-18C0 8.06 8.06 0 18 0z" fill="#F2F4F7"/><path d="M16.118 22h-2.27l1.418-8.723h2.272L16.118 22zm-4.181-8.723-2.166 6-.256-1.292-.764-3.923s-.092-.785-1.077-.785h-3.58l-.041.148s1.094.227 2.375.997L8.401 22h2.367l3.613-8.723h-2.444zM29.799 22h2.086l-1.818-8.723H28.24c-.843 0-1.048.65-1.048.65L23.806 22h2.367l.473-1.296h2.887L29.8 22zM27.3 18.914l1.194-3.264.671 3.264H27.3zm-3.317-3.54.324-1.873s-1-.38-2.042-.38c-1.127 0-3.804.493-3.804 2.888 0 2.253 3.141 2.281 3.141 3.465 0 1.184-2.817.972-3.747.225l-.338 1.959s1.015.492 2.564.492c1.55 0 3.888-.802 3.888-2.986 0-2.268-3.17-2.48-3.17-3.465 0-.987 2.212-.86 3.184-.324z" fill="#1A1F71"/></g></svg>