<svg height="36" viewBox="0 0 36 36" width="36" xmlns="http://www.w3.org/2000/svg"><mask id="a" fill="#fff"><path d="M0 0h13.16v10.898H0z" fill-rule="evenodd"/></mask><mask id="b" fill="#fff"><path d="M0 0h5.214v3.609H0z" fill-rule="evenodd"/></mask><g fill="none" fill-rule="evenodd"><path d="M18 0c2.837 0 5.52.656 7.907 1.825C31.884 4.753 36 10.895 36 18c0 9.942-8.058 18-18 18-9.94 0-18-8.057-18-18C0 8.06 8.06 0 18 0z" fill="#f2f4f7" fill-rule="nonzero"/><path d="M16.991 16.27c-1.915 1.437-3.686 1.282-5.315-.464 3.303-1.265 5.044-3.223 6.74-1.545l-1.258 1.8h-.002v.002h-.002v.003h-.003v.001h-.003v.002h-.002v.004h-.002v.003c-.004 0-.005.003-.007.003v.004h-.003v.001c0 .002-.004.006-.005.007v.004h-.002v.003l-.002.001-.002.001v.003l-.002.001-.003.001v.001l-.018.021v.001l-.002.006v.001c-.003.001-.007.007-.01.007v.001c-.005.002-.009.007-.014.01h-.002v.002l-.004.001-.004.003v.002a.022.022 0 0 1-.009.005l-.003.004-.002.003c0 .034-.047.045-.047.067 0 .002-.007.007-.007.01l-.004.004c-.003.003 0 .013 0 .016" fill="#ecb833"/><path d="M13.16 3.057C8.17 7.574 6.214-3.11 0 .933l7 9.965" fill="#00939a" mask="url(#a)" transform="translate(4 13)"/><path d="m22.121 22.551.74.022.3-.924h1.57l.3.902.715.022-1.5-3.724h-.532m-5.404.023 1.71 3.704.392-.003 1.501-3.724-.669-.023-1.017 2.752-1.224-2.729" fill="#77787b"/><path d="M23.472 21.07h.947l-.416-1.307" fill="#fff"/><path d="M3.097 3.586V0h2.117v.277c-.155.097-.301.218-.444.33H3.658v.795h1.395v.604H3.658v.976H5.21v.604M0 3.609V.075h.654v2.934H2.28v.6" fill="#77787b" mask="url(#b)" transform="translate(26.786 18.919)"/></g></svg>