<svg width="36" height="36" fill="none" xmlns="http://www.w3.org/2000/svg"><path d="M18 0c2.837 0 5.52.656 7.907 1.825C31.884 4.753 36 10.895 36 18c0 9.942-8.058 18-18 18-9.94 0-18-8.057-18-18C0 8.06 8.06 0 18 0z" fill="#F2F4F7"/><path d="M10.102 16.032h-.723v4.185h.723v-4.185zm18.995-.103c-.693 0-1.091.25-1.445.472v-.37h-.722v4.186h.722v-3.405c.25-.117.723-.28 1.253-.28.515 0 .678.296.678.885v2.8h.722v-3.006c0-.59-.28-1.282-1.208-1.282zm-13.808.117L15.451 15h.56v1.046h1.105v.516h-1.105v2.27c0 .766.074.943.516.943.34 0 .472-.044.707-.104v.487c-.295.147-.56.236-.885.236-.766 0-1.061-.5-1.061-1.253v-2.58h-.62v-.515h.621zm-1.534.605v-.486c-.295-.133-.619-.206-1.105-.206-.663 0-1.415.295-1.415 1.119 0 .619.413.885.796 1.105l.53.28c.324.177.663.369.663.766 0 .383-.25.576-.766.576-.546 0-.796-.06-1.223-.133v.486c.37.147.782.236 1.253.236.603 0 1.458-.22 1.458-1.252 0-.59-.442-.973-.84-1.195l-.618-.339c-.413-.22-.516-.34-.516-.575 0-.354.398-.5.796-.5.368 0 .634.015.987.118zm4.745 1.06c.015-.855.516-1.208.988-1.208.796 0 1.003.486 1.003 1.208H18.5zm1.032-1.752c-.692 0-1.841.5-1.841 2.373 0 1.857 1.355 2.063 2.063 2.063.546 0 .87-.073 1.312-.25v-.472c-.679.117-.737.133-1.238.133-.973 0-1.342-.56-1.342-1.532v-.104h2.711v-.383c.002-1.431-.986-1.828-1.665-1.828zm3.316 2.211c0 1.355.56 1.723 1.179 1.723.604 0 1.15-.368 1.15-1.724 0-1.341-.546-1.709-1.15-1.709-.75-.001-1.179.352-1.179 1.71zm3.14 0c0 1.37-.767 2.224-1.961 2.224s-1.975-.855-1.975-2.225c0-1.355.782-2.21 1.975-2.21 1.194 0 1.96.853 1.96 2.21zM6.711 20.276 8.612 15h-.78l-1.489 4.288L4.825 15H4l1.945 5.276h.766zm24.803-4.008h.147l.03.03.014.03-.03.043c-.014.014-.044.014-.073.014h-.09v-.117h.002zm0 .353v-.176h.044c.03 0 .044 0 .059.014.014.014.03.044.06.089l.043.073h.074l-.044-.089c-.03-.03-.044-.06-.06-.073l-.043-.03c.044 0 .073-.014.089-.03.03-.03.03-.044.03-.089 0-.014 0-.03-.015-.059-.014-.014-.03-.03-.044-.03-.03-.014-.06-.014-.117-.014h-.133v.413h.057v.001zm-.09-.545a.264.264 0 0 0-.132.147.286.286 0 0 0-.06.176c0 .074.015.133.06.192a.32.32 0 0 0 .133.147.452.452 0 0 0 .384 0c.06-.03.103-.088.147-.146a.405.405 0 0 0 0-.37.356.356 0 0 0-.147-.146.405.405 0 0 0-.192-.044.504.504 0 0 0-.192.044zm.355.059c.044.03.09.06.118.117a.298.298 0 0 1 0 .31.293.293 0 0 1-.118.117.305.305 0 0 1-.162.044.386.386 0 0 1-.163-.044c-.043-.03-.089-.06-.117-.117a.544.544 0 0 1-.03-.163.28.28 0 0 1 .044-.147c.014-.059.06-.089.118-.117a.282.282 0 0 1 .147-.044.33.33 0 0 1 .163.044z" fill="#F4901E"/></svg>