<svg width="36" height="36" fill="none" xmlns="http://www.w3.org/2000/svg"><path d="M18 0c2.837 0 5.52.656 7.907 1.825C31.884 4.753 36 10.895 36 18c0 9.942-8.058 18-18 18-9.94 0-18-8.057-18-18C0 8.06 8.06 0 18 0z" fill="#F2F4F7"/><path d="M30 14.6V11l-3.6 3.6H30z" fill="#522872"/><path d="M26.4 14.6v3.6l3.6-3.6h-3.6z" fill="#722F89"/><path d="M26.4 14.6h-3.6l3.6 3.6v-3.6z" fill="#7EBD01"/><path d="M22.8 14.6V11l3.6 3.6h-3.6z" fill="#A2D65E"/><path fill-rule="evenodd" clip-rule="evenodd" d="M7.53 18.8H6l2.268 5.4h1.5L12 18.8h-1.488l-1.506 3.96L7.53 18.8zm11.67 0H18v5.4h1.2v-1.878c0-1.326.582-2.322 1.8-2.322v-1.2c-.912 0-1.356.228-1.8 1.098V18.8zm7.2 5.4h-1.2v-.96c-.3.642-.918.96-1.668.96a1.835 1.835 0 0 1-1.932-1.83V18.8h1.2v2.7c0 .84.216 1.5 1.2 1.5s1.2-.822 1.2-1.524V18.8h1.2v5.4zm-11.76-5.4c1.8 0 2.76 1.362 2.76 3h-4.2a1.512 1.512 0 0 0 1.512 1.38c.702 0 1.134-.3 1.488-.78l.978.468a2.796 2.796 0 0 1-2.46 1.332A2.64 2.64 0 0 1 12 21.5c0-1.392 1.164-2.7 2.64-2.7zm-1.44 2.28a1.609 1.609 0 0 1 1.518-1.344c.756 0 1.368.588 1.482 1.344h-3z" fill="#7EBD01"/></svg>