<svg height="36" viewBox="0 0 36 36" width="36" xmlns="http://www.w3.org/2000/svg"><mask id="a" fill="#fff"><path d="M0 0h28v28H0z" fill-rule="evenodd"/></mask><g fill="none" fill-rule="evenodd"><path d="M18 0c2.837 0 5.52.656 7.907 1.825C31.884 4.753 36 10.895 36 18c0 9.942-8.058 18-18 18-9.94 0-18-8.057-18-18C0 8.06 8.06 0 18 0z" fill="#f2f4f7" fill-rule="nonzero"/><path d="m26.394 7.489-1.08 2.636-5.616.003 1.09-2.705h5.572C24.005 3.007 19.354 0 14 0 8.646 0 3.997 3.006 1.642 7.422h4.23c.814 0 1.31.386 1.48.926l3.343 9.455.338 1.06.389-1.104 2.952-7.564c.606-1.456.676-2.773 3.766-2.773h1.11l-2.747 6.713h6.902l-1.11 2.704-6.9.003-3.374 8.246H9.96L3.63 9.426c-.41-.961-1-1.316-2.21-1.577A13.95 13.95 0 0 0 0 14c0 7.732 6.269 14 14 14 7.732 0 14-6.268 14-14a13.922 13.922 0 0 0-1.606-6.511" fill="#004c97" mask="url(#a)" transform="translate(4 4)"/></g></svg>