<svg height="36" viewBox="0 0 36 36" width="36" xmlns="http://www.w3.org/2000/svg"><g fill="none"><path d="M18 0c2.837 0 5.52.656 7.907 1.825C31.884 4.753 36 10.895 36 18c0 9.942-8.058 18-18 18-9.94 0-18-8.057-18-18C0 8.06 8.06 0 18 0z" fill="#f2f4f7"/><path d="M6.557 21.537a3.6 3.6 0 0 1-2.995-2.836 4.281 4.281 0 0 1-.042-1.13c.209-1.604 1.403-2.831 3.013-3.096a4.375 4.375 0 0 1 1.235.029c1.276.279 2.273 1.168 2.676 2.386.122.369.177.714.177 1.111 0 1.674-1.146 3.103-2.797 3.486-.26.06-1.013.09-1.267.05zm.37-1.62c-.187-.217-.473-.672-.56-.89-.08-.198-.088-.246-.088-.501s.007-.299.077-.451c.138-.3.39-.467.704-.469.46-.002.798.393.796.93-.002.352-.185.763-.55 1.232l-.212.271.204-.018a2.518 2.518 0 0 0 1.568-.746c.226-.23.341-.394.48-.682.18-.38.236-.629.237-1.076 0-.3-.011-.424-.059-.613A2.54 2.54 0 0 0 6.796 15a2.549 2.549 0 0 0-2.177 1.904c-.085.34-.084.895.002 1.218a2.547 2.547 0 0 0 2.3 1.907l.104.003zm14.194.181a2.708 2.708 0 0 1-.738-.248c-.389-.225-.643-.647-.73-1.217a3.687 3.687 0 0 1 .045-1.048c.107-.417.326-.744.643-.959.317-.215.977-.337 1.522-.281.558.057.894.194 1.178.48.21.213.324.427.41.775.081.322.087 1 .012 1.289-.163.63-.538 1.009-1.159 1.172-.286.075-.878.093-1.183.037zm.913-.681c.202-.09.292-.171.387-.35.116-.218.165-.463.165-.837 0-.87-.307-1.25-1.008-1.249-.324 0-.507.058-.678.212-.231.208-.33.518-.33 1.037 0 .718.224 1.118.692 1.236.18.046.622.017.772-.05zm-8.72.585c-.015-.036-.366-.832-.781-1.77-.416-.938-.756-1.715-.756-1.727s.156-.023.345-.023c.31 0 .358.007.464.063.066.034.15.11.188.168.038.058.267.571.508 1.14.242.57.448 1.052.458 1.072.011.022.196-.405.456-1.055.24-.601.463-1.131.495-1.178a.571.571 0 0 1 .176-.147c.108-.057.152-.063.5-.063h.383l-.738 1.634c-.406.898-.768 1.673-.805 1.72-.113.15-.251.2-.58.216-.285.014-.29.013-.314-.05zm3.8-.002c-.504-.095-.93-.54-1.093-1.144-.084-.31-.084-.904 0-1.203.131-.461.397-.83.726-1.005.305-.163.407-.176 1.39-.178l.887-.001v.645l-.767.014-.767.013-.177.087a.62.62 0 0 0-.253.196c-.074.107-.147.33-.147.448v.062l1.015.007 1.015.007v.619l-1.015.006-1.015.007v.059c0 .032.02.129.044.215a.68.68 0 0 0 .407.456c.145.057.2.061.913.07l.76.01v.641l-.894-.002c-.492-.002-.955-.015-1.028-.029zm7.929-.022a1.9 1.9 0 0 1-.307-.108 1.171 1.171 0 0 1-.444-.467c-.121-.265-.13-.383-.132-1.697v-1.237h.282c.244 0 .295.008.376.059.18.112.174.067.188 1.326l.014 1.142.067.12a.436.436 0 0 0 .201.188c.13.067.148.069.786.078l.653.008v.642l-.746-.002c-.64-.001-.773-.009-.938-.052zm2.201-1.607c.007-1.58.01-1.664.059-1.736.085-.125.19-.162.493-.175l.276-.01v1.657c0 1.83.006 1.765-.17 1.872-.07.043-.135.052-.376.052h-.29zM28.516 20c.007-.02.326-.756.709-1.636.778-1.791.784-1.802 1.05-1.87.188-.05.657-.052.694-.005.021.026 1.458 3.315 1.528 3.497.016.041-.015.046-.336.046-.523 0-.607-.053-.81-.515l-.124-.279-.718-.007-.717-.007-.028.072c-.015.04-.08.183-.145.319-.094.196-.141.261-.232.324-.111.077-.123.08-.5.088-.31.007-.382.002-.371-.027zm2.505-1.454a32.116 32.116 0 0 0-.501-1.158c-.017-.018-.215.417-.503 1.104l-.037.088h.528c.411 0 .524-.008.513-.034z" fill="#ed1c24"/></g></svg>