<svg height="36" viewBox="0 0 36 36" width="36" xmlns="http://www.w3.org/2000/svg"><g fill="none" fill-rule="evenodd"><path d="M18 0c2.837 0 5.52.656 7.907 1.825C31.884 4.753 36 10.895 36 18c0 9.942-8.058 18-18 18-9.94 0-18-8.057-18-18C0 8.06 8.06 0 18 0z" fill="#f2f4f7" fill-rule="nonzero"/><path d="m4 14 4.76 8.244.68-1.177-.68-1.177-2.721-4.712h5.441l-2.04 3.534.68 1.177L13.52 14z" fill="#005ea0"/><path d="m9.593 16.265-.833 1.443-.834-1.443z" fill="#a60b29"/><path d="M15.357 14.592h.594l.821 2.294h.016l.83-2.294h.572l-1.195 2.98h-.459zm3.393 2.98h.531V14.59h-.531zm8.426-1.697c.077 0 .153-.005.229-.017a.663.663 0 0 0 .204-.063.384.384 0 0 0 .15-.133.382.382 0 0 0 .057-.22.33.33 0 0 0-.057-.2.397.397 0 0 0-.14-.125.57.57 0 0 0-.191-.063 1.307 1.307 0 0 0-.208-.016h-.48v.837zm-.964-1.284h1.036c.137 0 .274.014.408.044.125.027.244.076.352.145a.771.771 0 0 1 .246.265.805.805 0 0 1 .092.402.76.76 0 0 1-.183.53.915.915 0 0 1-.5.274l.797 1.32h-.64l-.688-1.262h-.388v1.262h-.53zm-5.638.464h1.372l.268-.463h-2.171v2.98h.53v-1.254h1.314v-.447h-1.313zm-6.576 4.919c.083 0 .166-.006.248-.02a.712.712 0 0 0 .211-.066.392.392 0 0 0 .147-.133.392.392 0 0 0 .057-.218.363.363 0 0 0-.203-.342.592.592 0 0 0-.205-.061 1.901 1.901 0 0 0-.238-.015h-.388v.855zm-.901-1.301h.975a2.12 2.12 0 0 1 .463.046.976.976 0 0 1 .354.15.73.73 0 0 1 .23.272.898.898 0 0 1 .08.396.848.848 0 0 1-.093.416.742.742 0 0 1-.251.27 1.065 1.065 0 0 1-.368.15 1.98 1.98 0 0 1-.447.047h-.408v1.234h-.53zm2.694 0h.531v1.204h1.393v-1.204h.531v2.98h-.531v-1.32h-1.393v1.32h-.531zm4.93 1.844-.459-1.213-.467 1.213zm-.673-1.844h.46l1.283 2.98h-.607l-.278-.681h-1.292l-.27.682h-.593zm3.212 1.285c.077 0 .153-.006.229-.018a.61.61 0 0 0 .205-.062.373.373 0 0 0 .207-.354.338.338 0 0 0-.055-.2.4.4 0 0 0-.138-.124.57.57 0 0 0-.192-.063 1.326 1.326 0 0 0-.208-.017h-.48v.838zm-.964-1.285h1.036c.137 0 .274.014.408.044.125.027.244.075.352.145a.753.753 0 0 1 .246.265.805.805 0 0 1 .092.402.76.76 0 0 1-.183.53.921.921 0 0 1-.5.274l.797 1.32h-.64l-.688-1.262h-.387v1.262h-.53zm2.943 0h.829l.775 2.118h.012l.767-2.118h.833v2.98h-.526v-2.395h-.008l-.906 2.395h-.37l-.892-2.395h-.01v2.395h-.504zm5.691 1.844-.458-1.213-.467 1.213zm-.673-1.844h.459L32 21.653h-.606l-.278-.681h-1.292l-.27.682h-.595zm-7.285-2.601c-.002.15.022.302.072.444.044.127.114.244.203.345a.953.953 0 0 0 .717.31.961.961 0 0 0 .925-.656c.05-.14.074-.29.072-.44a1.237 1.237 0 0 0-.072-.43 1.055 1.055 0 0 0-.201-.343.942.942 0 0 0-.723-.313.944.944 0 0 0-.719.313 1.076 1.076 0 0 0-.202.344 1.26 1.26 0 0 0-.072.43m-.56-.002c-.003-.221.036-.44.115-.646.144-.372.44-.665.813-.804.197-.074.407-.112.618-.11.214-.002.426.036.625.11a1.396 1.396 0 0 1 .819.802c.079.206.118.425.115.646.003.218-.036.435-.115.638a1.449 1.449 0 0 1-.82.82 1.627 1.627 0 0 1-.624.115 1.592 1.592 0 0 1-.618-.115 1.426 1.426 0 0 1-.49-.324 1.482 1.482 0 0 1-.323-.496 1.696 1.696 0 0 1-.115-.638" fill="#636363"/></g></svg>