<svg height="36" viewBox="0 0 36 36" width="36" xmlns="http://www.w3.org/2000/svg"><mask id="a" fill="#fff"><path d="M0 11.846h28V0H0z" fill-rule="evenodd"/></mask><g fill="none" fill-rule="evenodd"><path d="M18 0c2.837 0 5.52.656 7.907 1.825C31.884 4.753 36 10.895 36 18c0 9.942-8.058 18-18 18-9.94 0-18-8.057-18-18C0 8.06 8.06 0 18 0z" fill="#f2f4f7" fill-rule="nonzero"/><g fill="#231f20"><path d="M19.162 22.29v-2.148h1.42v.374h-1v.504h.852v.374h-.851v.522h1v.374zm-1.158.019a.796.796 0 0 1-.581-.236c-.218-.218-.212-.486-.212-.857s-.006-.64.212-.857a.796.796 0 0 1 .58-.236c.405 0 .72.23.795.68h-.427c-.042-.173-.151-.305-.363-.305a.35.35 0 0 0-.27.11c-.082.092-.106.195-.106.608s.024.516.106.606c.06.07.154.113.27.113.212 0 .32-.134.363-.306h.427c-.075.45-.394.68-.794.68zm-1.6-.02-.853-1.317v1.318h-.421v-2.148h.375l.855 1.316v-1.316h.42v2.148zm-2.483-1.514-.273.782h.536zm.503 1.515-.128-.38h-.766l-.131.38h-.44l.786-2.148h.33l.788 2.148zm-2.391-1.774h-.396v.567h.396c.185 0 .306-.117.306-.284 0-.165-.121-.283-.306-.283zm.327 1.774-.421-.856h-.302v.856h-.422v-2.148h.845c.44 0 .7.298.7.657a.58.58 0 0 1-.393.565l.482.926zm-2.408.019c-.442 0-.794-.3-.794-.754v-1.413h.42v1.397c0 .247.147.396.374.396s.376-.15.376-.396v-1.397h.418v1.413c0 .455-.352.754-.794.754zm-1.957 0c-.328 0-.576-.07-.788-.285l.273-.271c.136.136.32.182.52.182.249 0 .383-.094.383-.267a.242.242 0 0 0-.067-.181c-.042-.04-.091-.06-.191-.075l-.261-.036c-.184-.027-.321-.085-.418-.178a.572.572 0 0 1-.154-.423c0-.383.285-.652.75-.652.298 0 .514.073.698.25l-.266.263c-.137-.13-.301-.147-.443-.147-.224 0-.333.124-.333.27 0 .055.018.113.064.155a.375.375 0 0 0 .199.085l.255.036c.196.027.32.08.412.165.115.11.167.267.167.456 0 .417-.35.653-.8.653zm-1.473-.02-.854-1.317v1.318h-.422v-2.148h.377l.854 1.316v-1.316h.42v2.148zm-2.323 0h.428v-2.81h-.428z"/><path d="M.199 10.29h.428V7.48H.199zm2.323 0-.854-1.318v1.318h-.42V8.142h.374l.855 1.316V8.142h.421v2.148zm1.472.018c-.327 0-.575-.069-.787-.284l.272-.272c.137.136.321.181.521.181.25 0 .382-.093.382-.266 0-.074-.02-.138-.067-.18-.042-.039-.09-.06-.19-.075l-.26-.037c-.186-.027-.323-.084-.419-.177a.571.571 0 0 1-.154-.423c0-.384.284-.652.751-.652.297 0 .512.072.697.25l-.267.263c-.136-.13-.3-.148-.442-.148-.224 0-.333.124-.333.272 0 .054.018.111.063.153.042.04.112.073.2.085l.254.037c.197.026.321.081.412.165.116.11.167.266.167.456 0 .417-.349.652-.8.652m1.958 0c-.442 0-.794-.299-.794-.755V8.141h.421v1.397c0 .248.146.395.373.395s.375-.147.375-.395V8.141h.419v1.412c0 .456-.352.755-.794.755m2.081-1.792h-.396v.567h.396c.185 0 .307-.117.307-.283s-.122-.284-.307-.284zm.327 1.774-.421-.857h-.302v.857h-.422V8.14h.845c.44 0 .701.3.701.66 0 .3-.186.488-.395.564l.482.926zm1.561-1.515-.273.781h.536zm.502 1.515-.127-.38H9.53l-.13.38h-.44l.785-2.149h.33l.788 2.15zm1.982 0-.854-1.318v1.318h-.422V8.142h.376l.855 1.316V8.142h.42v2.148zm1.6.018a.8.8 0 0 1-.582-.235c-.218-.218-.212-.487-.212-.858s-.006-.639.212-.857a.796.796 0 0 1 .582-.235c.403 0 .718.23.793.68h-.426c-.043-.173-.152-.306-.364-.306a.349.349 0 0 0-.27.112c-.082.091-.106.193-.106.606s.024.517.106.607a.351.351 0 0 0 .27.111c.212 0 .32-.133.364-.305h.426c-.075.451-.393.68-.793.68m1.157-.018V8.142h1.42v.374h-1v.504h.852v.374h-.851v.522h1v.374zm12.08-1.774h-.394v.588h.395c.19 0 .312-.118.312-.293s-.121-.295-.312-.295zm.022.965h-.416v.809h-.42V8.14h.836c.445 0 .711.306.711.67 0 .367-.266.67-.71.67zm-2.1.827c-.443 0-.794-.298-.794-.754V8.14h.421v1.398c0 .247.145.394.373.394.227 0 .375-.147.375-.394V8.14h.418v1.413c0 .456-.35.754-.793.754zm-1.718-1.696a.35.35 0 0 0-.27-.115.358.358 0 0 0-.272.115c-.082.09-.103.19-.103.604s.021.513.103.603c.061.07.157.114.272.114.116 0 .21-.044.27-.114.082-.09.106-.19.106-.603s-.024-.513-.106-.604zm.312 1.46a.78.78 0 0 1-.582.236.786.786 0 0 1-.584-.235c-.218-.218-.213-.486-.213-.857s-.005-.64.213-.857a.787.787 0 0 1 .584-.236.78.78 0 0 1 .582.236c.218.217.216.486.216.857s.002.639-.216.857zM21.29 8.517h-.397v.567h.397c.185 0 .306-.117.306-.283s-.12-.284-.306-.284zm.328 1.774-.422-.857h-.303v.857h-.42V8.14h.845c.44 0 .7.3.7.66a.58.58 0 0 1-.395.564l.482.926zm-1.912-.296c-.214.226-.48.32-.776.32-.294 0-.547-.107-.742-.3-.277-.277-.273-.588-.273-1.128 0-.541-.004-.853.273-1.13.195-.193.44-.3.742-.3.598 0 .946.392 1.025.873h-.432c-.07-.308-.277-.49-.593-.49a.571.571 0 0 0-.417.174c-.139.15-.17.308-.17.873 0 .563.031.725.17.876.1.106.25.17.417.17a.6.6 0 0 0 .46-.198c.102-.12.141-.26.141-.442v-.157h-.6V8.77h1.028v.43c0 .363-.067.596-.253.793z" mask="url(#a)" transform="translate(4 12)"/><path d="M19.705 9.994c-.214.226-.479.32-.776.32-.294 0-.547-.107-.742-.3-.276-.277-.273-.588-.273-1.128 0-.541-.003-.853.273-1.13.195-.193.44-.3.742-.3.598 0 .946.392 1.026.873h-.433c-.07-.308-.277-.49-.593-.49a.571.571 0 0 0-.417.174c-.139.15-.17.308-.17.873 0 .563.031.725.17.876.1.106.25.17.417.17a.6.6 0 0 0 .46-.198c.102-.12.141-.261.141-.442v-.157h-.6V8.77h1.028v.43c0 .363-.067.596-.253.793m1.585-1.477h-.397v.567h.396c.185 0 .307-.117.307-.283s-.122-.284-.307-.284zm.326 1.774-.42-.857h-.303v.857h-.422V8.14h.845c.44 0 .7.3.7.66a.58.58 0 0 1-.394.564l.482.926zm1.83-1.677a.348.348 0 0 0-.27-.115.357.357 0 0 0-.272.115c-.082.09-.103.19-.103.603s.021.514.103.604a.36.36 0 0 0 .272.114.35.35 0 0 0 .27-.114c.083-.09.106-.192.106-.605s-.023-.512-.106-.602m.312 1.46a.78.78 0 0 1-.582.236.788.788 0 0 1-.584-.236c-.218-.217-.212-.486-.212-.857s-.006-.64.212-.857a.788.788 0 0 1 .584-.235.78.78 0 0 1 .582.235c.218.217.216.486.216.857s.002.64-.216.857m1.406.235c-.442 0-.794-.299-.794-.755V8.141h.421v1.397c0 .248.146.395.373.395s.376-.147.376-.395V8.141h.418v1.412c0 .456-.352.755-.794.755m2.079-1.793h-.394v.59h.394c.19 0 .312-.119.312-.294s-.122-.296-.312-.296m.021.966h-.415v.808h-.421V8.141h.836c.445 0 .712.305.712.67s-.267.67-.712.67M18.303 3.81l-.487 1.396h.96zm.9 2.708-.228-.68h-1.37l-.234.68h-.785l1.403-3.841h.59l1.408 3.84zm-3.764 0L13.91 4.16v2.358h-.753V2.677h.672l1.528 2.352V2.677h.752v3.84zm-3.852 0L10.059 4.16v2.358h-.752V2.677h.671l1.528 2.352V2.677h.752v3.84zm-5.557 0V2.677h2.54v.668H6.783v.902h1.522v.669H6.783v.933H8.57v.669zm-1.652 0h.752V2.677h-.752zm-2.083 0H1.7L.042 1.495h.794l1.16 3.654 1.162-3.654h.808z" mask="url(#a)" transform="translate(4 12)"/><path d="M2.294 6.518H1.7L.042 1.495h.793l1.162 3.654 1.161-3.654h.807zm2.083-.001h.753V2.676h-.753zm1.653.001V2.677h2.54v.668H6.782v.902h1.522v.669H6.782v.933H8.57v.669zm5.557 0L10.06 4.16v2.358h-.753V2.677h.672l1.527 2.352V2.677h.752v3.84zm3.851 0L13.91 4.16v2.358h-.753V2.677h.673l1.526 2.352V2.677h.753v3.84zm2.865-2.708-.487 1.396h.96zm.9 2.708-.228-.68h-1.37l-.234.68h-.785l1.403-3.841h.59l1.41 3.84z" mask="url(#a)" transform="translate(4 12)"/></g><path d="M.166 11.846h27.735v-.462H.166zm23.441-7.361h.386v1.188c.127-.483.465-.862.989-1.037.68-.228 1.43-.367 2.193-.576a2.09 2.09 0 0 0 .793-.395v.683c-.163.388-.568.677-1.151.828-.784.205-1.956.507-1.956.507-.352.092-.65.184-.868.39v.454h-.386v-.454c-.16-.188-.415-.322-.645-.412l-1.34-.524c-.341-.133-.613-.374-.744-.696v-.739c.132.153.303.277.509.358l1.345.527c.513.201.773.604.875 1.088zM24.02.696a.4.4 0 0 1 .396-.394h1.196V1.51a.393.393 0 0 1-.39.395h-1.203z" fill="#ed1c24" mask="url(#a)" transform="translate(4 12)"/><path d="M24.02 3.966V2.752c0-.212.095-.383.314-.383h1.278c0 1.786-1.593 1.599-1.593 1.599m-.461-.002V2.752c0-.212-.095-.383-.314-.383h-1.279c0 1.786 1.593 1.599 1.593 1.599m0-3.272a.398.398 0 0 0-.396-.394h-1.197V1.51c0 .218.176.395.392.395h1.201z" fill="#ed1c24" mask="url(#a)" transform="translate(4 12)"/></g></svg>