<svg height="36" viewBox="0 0 36 36" width="36" xmlns="http://www.w3.org/2000/svg"><mask id="a" fill="#fff"><path d="M0 0h22v22H0z" fill-rule="evenodd"/></mask><g fill="none" fill-rule="evenodd"><path d="M18 0c2.837 0 5.52.656 7.907 1.825C31.884 4.753 36 10.895 36 18c0 9.942-8.058 18-18 18-9.94 0-18-8.057-18-18C0 8.06 8.06 0 18 0z" fill="#f2f4f7" fill-rule="nonzero"/><path d="M7.491 7.568c.709-.312.833-.656.867-1.38.004-.084-.025-.104-.108-.083-.176.047-.355.084-.533.125-.419.095-.643.504-.506.923.203-.415.348-.561.581-.558-.27.28-.384.596-.301.973m-1.157.552c-.206-.028-.403-.001-.601.018-.201.019-.366.136-.587.242.171-.33.449-.403.714-.5a1.616 1.616 0 0 0-.629-.026c-.178.029-.352.093-.437.268-.125.257-.243.515-.454.732 1.195.167 1.509.004 1.994-.734m2.204 5.689c.067.184.13.329.219.46.28.419.687.422.979.009.128-.18.218-.38.305-.583.509-1.187 1.021-2.374 1.522-3.564.103-.243.221-.46.457-.594.004-.003-.001-.021-.002-.035-.189 0-.379-.011-.567.002-.527.036-.934.25-1.124.783-.068.195-.166.379-.249.569-.394.912-.726 1.849-1.153 2.748-.076.158-.156.278-.387.205m5.209-4.347c-.079 0-.158-.002-.236 0-.719.03-1.242.29-1.542 1.023-.451 1.097-.94 2.18-1.412 3.273-.23.532-.438 1.078-.867 1.5.653.203 1.35-.074 1.661-.656a5.14 5.14 0 0 0 .199-.433c.548-1.303 1.057-2.622 1.646-3.908.136-.297.236-.62.551-.8m-2.432 5.79c.03.018.045.03.061.033.744.097 1.378-.063 1.683-.825.035-.085.075-.167.11-.251.438-1.054.855-2.116 1.321-3.156.249-.554.357-1.2.933-1.591-.276-.015-.515.03-.756.07-.432.074-.765.272-.926.704-.037.103-.095.198-.142.297-.556 1.195-1.047 2.417-1.579 3.622-.174.394-.344.798-.705 1.098m-1.699-.666c-.05.01-.079.017-.107.024-.532.137-.762.023-.979-.485-.143-.337-.285-.674-.43-1.01-.433-.995-.837-2.003-1.325-2.973-.066-.13-.125-.271-.25-.357-.409-.281-.878-.304-1.356-.312.29.158.406.432.53.706.34.757.666 1.519.979 2.287.263.644.528 1.286.801 1.925.145.337.35.63.69.802.575.293 1.267.014 1.447-.607m4.63-2.03.007-.003-.01-.001c.376.406.837.535 1.377.439 1.15-.202 1.924-1.628 1.578-2.742-.129-.413-.41-.672-.85-.73-.396-.051-.747.035-1.021.38.043 0 .067.004.089 0 .582-.12.904.139.944.73.049.739-.301 1.292-.813 1.762-.319.292-.705.333-1.114.204-.06-.02-.114-.08-.187-.038M6.349 8.695c.054-.04.11-.076.162-.118 2.036-1.637 4.347-2.061 6.856-1.505 1.397.309 2.49 1.142 3.448 2.17.037.04.07.089.115.117.088.054.21.063.277.008.08-.068-.029-.14-.071-.195a5.77 5.77 0 0 0-1.72-1.544c-1.863-1.073-3.852-1.292-5.922-.785-1.225.3-2.311.877-3.175 1.822-.026.026-.068.04-.068.088.055.013.075-.024.098-.058m-.946-1.41c.321.198.675.235 1.069.23l-.251-.373c.127.029.179.086.234.137l.006-.008-.012.006c.025-.088-.04-.15-.067-.221a.874.874 0 0 1 .044-.77c-.006.449.159.802.456 1.103.328-.62.183-1.394-.331-1.821-.069-.057-.088-.024-.12.03-.083.142-.157.292-.258.42-.201.258-.343.518-.169.847.001.002-.007.01-.017.025-.435-.36-.952-.3-1.487-.29.155.289.263.572.38.85.047.113.149.177.26.22.275.108.556.078.842.037-.234-.091-.473-.165-.626-.38l.047-.041m-5.4 14.71C.003 14.72.004 7.444 0 .169c0-.138.031-.17.168-.17C7.389.005 14.61.005 21.831 0c.138 0 .169.032.169.17-.004 7.22-.004 14.44 0 21.663 0 .137-.031.168-.169.168-7.276-.004-14.552-.004-21.828-.004" fill="#df2f79" mask="url(#a)" transform="translate(7 7)"/><path d="M16.617 21.586c-.18.62-.872.9-1.448.607-.34-.172-.545-.465-.69-.802a128.09 128.09 0 0 1-.8-1.925c-.314-.768-.64-1.53-.98-2.287-.124-.274-.24-.548-.53-.706.478.008.948.03 1.357.312.124.086.184.227.249.357.488.97.893 1.978 1.325 2.973.146.336.287.673.43 1.01.217.508.448.622.98.484l.106-.023m1.699.666c.36-.3.532-.704.705-1.098.532-1.205 1.024-2.427 1.58-3.622.046-.099.104-.194.142-.297.16-.432.493-.63.926-.703.24-.041.479-.086.755-.071-.576.392-.684 1.037-.933 1.591-.466 1.04-.883 2.102-1.321 3.156-.035.084-.075.166-.11.251-.305.762-.94.922-1.682.825-.017-.002-.031-.015-.062-.032m2.432-5.79c-.315.18-.415.5-.55.799-.59 1.286-1.099 2.605-1.648 3.908a4.833 4.833 0 0 1-.198.433c-.31.582-1.009.859-1.66.657.428-.423.636-.97.866-1.501.471-1.092.961-2.176 1.412-3.274.3-.732.822-.991 1.541-1.022.08-.002.158 0 .237 0" fill="#fefcfd"/><path d="M15.538 20.809c.231.073.311-.047.387-.205.427-.9.76-1.836 1.153-2.748.083-.19.18-.374.25-.57.19-.532.595-.746 1.123-.782.188-.013.378-.002.567-.002.001.015.006.033.002.035-.236.134-.355.35-.457.594-.502 1.19-1.013 2.377-1.523 3.565a3.078 3.078 0 0 1-.304.583c-.293.412-.699.409-.98-.01a2.039 2.039 0 0 1-.218-.46m5.708-1.252c.073-.041.127.019.187.038.409.129.795.088 1.114-.204.512-.47.862-1.022.813-1.761-.04-.592-.362-.85-.944-.731-.022.004-.046 0-.09 0 .275-.344.626-.43 1.022-.38.44.058.72.317.85.73.346 1.115-.428 2.54-1.577 2.743-.541.095-1.002-.034-1.378-.44z" fill="#fefcfd"/><g fill="#fdf9fb"><path d="M13.319 15.665c.865-.945 1.95-1.521 3.176-1.822 2.069-.507 4.058-.287 5.922.785.679.39 1.245.92 1.719 1.544.042.056.152.128.07.195-.065.055-.187.047-.276-.008-.045-.027-.077-.076-.114-.116-.958-1.028-2.051-1.861-3.448-2.171-2.51-.556-4.821-.132-6.857 1.506-.052.042-.108.079-.162.118l-.03-.031m.137-1.385c-.056-.052-.108-.11-.234-.138l.25.373c-.394.004-.748-.032-1.07-.229l-.064-.046c-.018-.01-.037-.03-.054-.003-.004.005.014.024.022.036l.05.054c.153.214.392.29.627.38-.287.04-.568.071-.843-.037-.111-.044-.213-.107-.26-.219-.116-.28-.225-.562-.38-.85.536-.01 1.052-.07 1.487.29.01-.017.019-.024.017-.026-.173-.329-.031-.589.169-.847.102-.128.175-.278.259-.42.032-.054.05-.087.119-.03.514.427.66 1.201.33 1.821a1.481 1.481 0 0 1-.455-1.103.877.877 0 0 0-.044.77c.028.071.093.133.068.221zm-.123.84c-.484.738-.798.9-1.993.734.21-.217.33-.476.454-.733.085-.174.26-.238.437-.267.205-.034.412-.023.628.026-.264.097-.542.171-.714.5.222-.106.386-.223.588-.242.198-.019.395-.046.6-.019"/><path d="M14.491 14.568c-.083-.377.031-.693.301-.973-.233-.003-.378.143-.581.558-.137-.42.087-.828.506-.923.178-.041.357-.078.533-.125.083-.021.112-.001.108.083-.034.724-.158 1.068-.867 1.38m-1.142 1.127c-.022.034-.042.071-.098.057 0-.048.042-.062.068-.088l.03.031m.101-1.418.012-.006a.043.043 0 0 1-.006.007h-.006"/></g><path d="M21.243 19.552h.01l-.007.005-.003-.005" fill="#fefcfd"/><path d="M13.05 13.924c-.01.01-.015.02-.021.028-.01-.014-.02-.028-.024-.042-.001-.006.012-.015.019-.023l.026.037m.227.218-.014.036c-.014-.01-.03-.017-.042-.029-.003-.003.008-.018.012-.028l.044.021m-.921.185-.05-.053.031-.033.065.045-.046.04m-.05-.053c-.008-.013-.026-.03-.022-.037.017-.027.036-.007.053.004l-.031.033m-.166 1.117-.022-.015c.012-.009.022-.02.035-.028.003 0 .02.01.02.015-.003.015-.006.033-.034.027" fill="#df2f79"/></g></svg>