<svg height="36" viewBox="0 0 36 36" width="36" xmlns="http://www.w3.org/2000/svg"><g fill="none"><path d="M18 0c2.837 0 5.52.656 7.907 1.825C31.884 4.753 36 10.895 36 18c0 9.942-8.058 18-18 18-9.94 0-18-8.057-18-18C0 8.06 8.06 0 18 0z" fill="#f2f4f7"/><path d="M8.705 20.561h1.067v-3.577H8.705zm.001-4.079h1.065v-.976H8.706zm22.539 4.079h1.067v-3.577h-1.067zm0-4.079h1.066v-.976h-1.066zm-8.359.393c-.807.015-1.41.237-1.792.662a1.58 1.58 0 0 0-.407 1.04v1.987h1.06V18.61c0-.494.468-.84 1.14-.84.677 0 1.15.346 1.15.84v1.954h1.06v-1.987c0-.176-.04-.633-.408-1.04-.385-.425-.991-.647-1.803-.662zm-15.837.109-1.24 2.607-1.282-2.607H3.312l1.844 3.58h1.3l1.796-3.58zm6.942 0-1.24 2.607-1.282-2.607h-1.215l1.845 3.58h1.3l1.795-3.58zm4.743 1.163.01.018-2.786.533.412.75 3.654-.721-.002-.059a2.786 2.786 0 0 0-.075-.413c-.064-.239-.48-1.426-2.398-1.379-.724.018-1.34.23-1.735.598-.367.342-.57.816-.57 1.334 0 .51.252.975.71 1.312.407.301 1.003.448 1.82.448l1.95-.004v-.88h-1.916c-.102 0-.518.009-.72-.034-.129-.027-.77-.197-.814-.86a.75.75 0 0 1 .22-.604c.266-.283.638-.455 1.155-.455.72 0 1.017.3 1.085.416zm10.655-3.617v2.345l-1.151-.005c-.375 0-1.315.065-1.934.653-.334.319-.504.741-.504 1.255-.002.442.16.843.465 1.162.436.455 1.064.697 1.815.697.785 0 1.422-.204 1.843-.613.371-.362.541-.869.541-1.456V14.53zm0 4.055c0 .556-.258 1.117-1.286 1.117-.437 0-.788-.107-1.028-.376a.742.742 0 0 1-.204-.494c0-.36.109-.55.31-.727.25-.22.635-.345 1.056-.341l1.152.001v.82z" fill="#7a1f5e"/></g></svg>