<svg width="36" height="36" fill="none" xmlns="http://www.w3.org/2000/svg"><path d="M18 0c2.837 0 5.52.656 7.907 1.825C31.884 4.753 36 10.895 36 18c0 9.942-8.058 18-18 18-9.94 0-18-8.057-18-18C0 8.06 8.06 0 18 0z" fill="#F2F4F7"/><g fill="#022169"><path d="M8.526 20.651H7.93L7.582 22.2h-.008l-.352-1.548h-.6v1.96h.384v-1.64h.004l.36 1.64h.4l.368-1.64h.004v1.64h.384v-1.96zm1.452.892c0-.36-.376-.42-.58-.42-.296 0-.608.064-.652.508h.368c.012-.084.044-.204.236-.204.1 0 .252.008.252.168 0 .084-.072.108-.132.116l-.344.052c-.244.036-.424.18-.424.464 0 .3.224.424.444.424.26 0 .384-.12.472-.212a.546.546 0 0 0 .036.172h.412v-.056c-.048-.016-.084-.056-.084-.228v-.784h-.004zm-.372.548c0 .176-.172.288-.34.288-.072 0-.176-.04-.176-.176 0-.16.116-.192.26-.22.16-.024.22-.048.26-.08v.188h-.004zm1.056-1.328h-.384v.392h-.196v.272h.196v.884c0 .188.06.316.392.316h.048c.06 0 .12-.004.18-.004v-.288c-.028.004-.056.004-.08.004-.156 0-.16-.032-.16-.116v-.792h.236v-.272h-.236v-.396h.004zm1.248 1.424c-.033.104-.14.16-.248.16-.309 0-.333-.248-.34-.356h1v-.068c0-.664-.397-.8-.684-.8-.636 0-.697.56-.697.736 0 .6.316.796.724.796.249 0 .54-.116.64-.464h-.396v-.004zm-.576-.448c.02-.192.116-.308.296-.308.123 0 .271.072.295.308h-.591zm1.151.872h.384v-.756c0-.16.056-.348.352-.348a.94.94 0 0 1 .108.004v-.388c-.024-.004-.048-.004-.072-.004-.232 0-.32.144-.4.288h-.004v-.252h-.368v1.456zm.988 0h.384v-1.456h-.384v1.456zm.384-1.98h-.384v.356h.384v-.356zm1.456.912c0-.36-.376-.42-.58-.42-.3 0-.608.064-.652.508h.368c.012-.084.044-.204.236-.204.1 0 .252.008.252.168 0 .084-.072.108-.132.116l-.344.052c-.244.036-.424.18-.424.464 0 .3.224.424.444.424.26 0 .384-.12.472-.212a.546.546 0 0 0 .036.172h.412v-.056c-.048-.016-.084-.056-.084-.228v-.784h-.004zm-.372.548c0 .176-.172.288-.34.288-.072 0-.176-.04-.176-.176 0-.16.116-.192.26-.22.16-.024.22-.048.26-.08v.188h-.004zm1.024-1.44h-.384v1.964h.384v-1.964zm1.476.952c-.032-.412-.368-.48-.652-.48-.452 0-.588.272-.588.488 0 .544.904.36.904.604 0 .056-.048.152-.244.152-.24 0-.316-.092-.316-.212h-.392c.012.388.368.504.7.504.228 0 .636-.076.636-.5 0-.536-.912-.368-.912-.6 0-.064.028-.14.236-.14s.24.1.256.192h.372v-.008zm2.599-.312c-.02-.288-.26-.695-.847-.695-.504 0-.9.347-.9 1.035 0 .68.376 1.032.896 1.032.492 0 .772-.296.852-.724h-.412c-.048.24-.208.368-.436.368-.348 0-.488-.316-.488-.668 0-.556.288-.688.488-.688.34 0 .4.22.436.34h.412zm1.597.596c0-.524-.352-.764-.744-.764s-.744.24-.744.764.352.764.744.764.744-.24.744-.764zm-.392 0c0 .184-.056.444-.348.444-.296 0-.348-.256-.348-.444 0-.184.056-.444.348-.444s.348.256.348.444zm2.651-.28c0-.32-.22-.488-.504-.488-.232 0-.34.16-.387.232-.1-.156-.196-.232-.404-.232a.43.43 0 0 0-.412.252h-.004v-.212h-.368v1.456h.384v-.884c0-.16.056-.284.236-.284.228 0 .228.172.228.296v.876h.384v-.872c0-.172.067-.3.26-.3.111 0 .207.072.207.288v.884h.385v-1.012h-.005zm.62.313c0-.233.064-.469.324-.469.244 0 .324.216.324.444 0 .172-.068.44-.316.44-.236 0-.332-.2-.332-.416zm0-.76h-.368v2.02h.384v-.753h.004c.048.08.144.224.412.224.432 0 .612-.384.612-.78 0-.504-.284-.748-.604-.748a.465.465 0 0 0-.436.248h-.004v-.212zm2.404.383c0-.36-.376-.42-.58-.42-.296 0-.608.064-.652.508h.368c.012-.084.044-.204.236-.204.1 0 .252.008.252.168 0 .084-.072.108-.132.116l-.344.052c-.244.036-.424.18-.424.464 0 .3.224.424.444.424.26 0 .384-.12.472-.212a.546.546 0 0 0 .036.172h.412v-.056c-.048-.016-.084-.056-.084-.228v-.784h-.004zm-.372.548c0 .176-.172.288-.34.288-.072 0-.176-.04-.176-.176 0-.16.116-.192.26-.22.16-.024.22-.048.26-.08v.188h-.004zm1.944-.484c0-.32-.22-.488-.504-.488a.465.465 0 0 0-.436.252h-.004v-.212h-.368v1.456h.384v-.832c0-.22.132-.336.3-.336.244 0 .248.18.248.288v.884h.384v-1.012h-.004zM30 21.16h-.404l-.3 1.071h-.004l-.312-1.072h-.428l.536 1.516c-.036.2-.112.22-.252.22-.032 0-.056-.004-.072-.004v.308c.056.004.12.004.172.004.332 0 .384-.072.564-.608l.5-1.436zm-17.187-6.488h-1.712v3.844c0 .78.064 1.028.336 1.32.305.315.564.38 1.472.38h.628c.908 0 1.16-.065 1.472-.38.272-.28.348-.552.348-1.332v-3.832h-1.72v3.66c0 .424-.128.595-.412.595-.28 0-.412-.171-.412-.607v-3.648zm4.712-1.668h-1.732v7.211h1.732v-7.211zm3.188 1.668h-1.56c-.92 0-1.224.216-1.224.876v3.42c.012 1.051.204 1.243 1.224 1.243h1.56v-1.3h-.532c-.4 0-.52-.108-.52-.463v-1.764c0-.596.076-.704.488-.716h.564v-1.296zm2.88 3.592c0 .424-.12.628-.38.628s-.38-.196-.38-.628v-1.712c0-.432.12-.628.38-.628s.38.196.38.628v1.712zm1.72-3.604h-1.72v.584a1.578 1.578 0 0 0-.128-.164c-.292-.38-.444-.444-1.028-.444h-.368c-.716 0-.964.304-.964 1.192v2.968c0 1.18.216 1.428 1.2 1.428h.336c.532 0 .672-.088.952-.616v.595h1.72V14.66zm.443 0v5.543h1.732v-3.635c0-.444.12-.64.388-.64.26 0 .4.204.4.616v3.66h1.72v-4.32c-.012-1.016-.24-1.244-1.288-1.244-.672 0-.94.128-1.224.608v-.584h-1.728v-.004z"/><path fill-rule="evenodd" clip-rule="evenodd" d="M7.99 13H6.026s-.072 2.204.024 3.656c.112 1.736 1.264 3.587 1.264 3.587h2.12l.032.012s1.152-1.847 1.264-3.587c.095-1.448.024-3.66.024-3.66H8.79s-.016 3.56-.036 3.94c-.068 1.16-.38 1.695-.38 1.695s-.316-.495-.384-1.667c-.02-.388 0-3.976 0-3.976z"/></g></svg>