<svg width="36" height="36" fill="none" xmlns="http://www.w3.org/2000/svg"><path d="M18 0c2.837 0 5.52.656 7.907 1.825C31.884 4.753 36 10.895 36 18c0 9.942-8.058 18-18 18-9.94 0-18-8.057-18-18C0 8.06 8.06 0 18 0z" fill="#F2F4F7"/><g fill="#696566"><path d="m16.018 19.943-1.226-3.415c-.016-.047-.04-.11-.04-.164 0-.148.126-.288.305-.288.156 0 .258.101.305.249l1.016 2.943 1.023-2.95c.047-.14.14-.242.296-.242h.032c.164 0 .266.102.312.241l1.015 2.95 1.032-2.957c.04-.125.124-.234.29-.234.17 0 .296.132.296.28 0 .055-.024.117-.039.165l-1.234 3.422c-.063.179-.188.273-.328.273h-.024c-.156 0-.273-.094-.328-.273l-1.008-2.902-1.015 2.902c-.055.179-.173.273-.329.273h-.016c-.148 0-.272-.094-.335-.273m8.938-3.564c0-.165.133-.306.297-.306a.3.3 0 0 1 .305.306v.693c.297-.673.956-.99 1.393-.99.18 0 .298.132.298.304a.298.298 0 0 1-.267.305c-.782.094-1.424.681-1.424 1.847v1.372a.298.298 0 0 1-.296.305.301.301 0 0 1-.306-.305v-3.532zm4.236 3.881c-1.09 0-1.978-.845-1.978-2.084v-.016c0-1.154.805-2.083 1.901-2.083 1.173 0 1.84.968 1.84 2.029 0 .163-.131.28-.276.28h-2.866c.084.866.689 1.354 1.395 1.354.491 0 .85-.194 1.142-.465a.26.26 0 0 1 .17-.069c.144 0 .26.116.26.256 0 .07-.03.14-.093.193-.375.364-.82.605-1.495.605zm1.173-2.316c-.061-.729-.475-1.363-1.265-1.363-.69 0-1.212.58-1.288 1.363h2.553zm-9.664 1.066v-.016c0-.85.703-1.303 1.724-1.303.516 0 .882.07 1.242.172v-.141c0-.725-.446-1.1-1.202-1.1-.406 0-.642.052-.94.184a.301.301 0 0 1-.107.024.267.267 0 0 1-.266-.258c0-.124.054-.201.164-.25.397-.172.697-.23 1.211-.23.57 0 1.006.148 1.302.445.274.273.414.663.414 1.178v2.226a.286.286 0 0 1-.29.296.276.276 0 0 1-.286-.28v-.385c-.281.367-.75.694-1.459.694-.749 0-1.506-.429-1.506-1.256zm2.973-.312v-.39a4.222 4.222 0 0 0-1.187-.172c-.755 0-1.177.328-1.177.835v.015c0 .507.467.804 1.014.804.741 0 1.35-.453 1.35-1.092M5.102 16.341a.569.569 0 0 0-.764-.285.558.558 0 0 0-.28.764l1.28 2.782c.202.436.414.665.812.665.426 0 .611-.249.812-.665l1.128-2.457a.162.162 0 0 1 .161-.104c.096 0 .177.078.177.18V19.6c0 .366.203.667.594.667.391 0 .602-.3.602-.667v-1.946c0-.376.27-.62.636-.62s.61.253.61.62V19.6c0 .366.204.667.594.667.391 0 .603-.3.603-.667v-1.946c0-.376.268-.62.635-.62.366 0 .61.253.61.62V19.6c0 .366.204.667.595.667.39 0 .603-.3.603-.667v-2.215c0-.814-.655-1.384-1.442-1.384-.787 0-1.28.544-1.28.544-.261-.34-.622-.543-1.233-.543-.644 0-1.208.543-1.208.543a1.445 1.445 0 0 0-1.078-.543c-.57 0-1.025.251-1.301.884l-.818 1.927-1.048-2.47zm25.9.243v-.003a.498.498 0 1 1 .998-.002v.002c0 .273-.22.502-.5.502a.497.497 0 0 1-.498-.499zm.902-.003v-.002a.401.401 0 0 0-.404-.407.405.405 0 0 0-.404.409v.002c0 .224.174.407.404.407a.405.405 0 0 0 .404-.41"/><path d="M31.32 16.379c0-.03.023-.054.053-.054h.166c.063 0 .111.018.141.05a.15.15 0 0 1 .043.11v.001a.148.148 0 0 1-.097.147l.074.09c.01.013.017.024.017.04a.05.05 0 0 1-.05.05c-.024 0-.04-.012-.053-.028l-.103-.13h-.085v.105c0 .03-.023.053-.053.053a.053.053 0 0 1-.054-.053v-.381zm.213.181c.052 0 .08-.027.08-.068v-.002c0-.045-.03-.07-.082-.07h-.106v.14h.108z"/></g></svg>