<svg height="36" viewBox="0 0 36 36" width="36" xmlns="http://www.w3.org/2000/svg"><mask id="a" fill="#fff"><path d="M0 0h3.777v4.412H0z" fill-rule="evenodd"/></mask><mask id="b" fill="#fff"><path d="M0 0h3.778v4.412H0z" fill-rule="evenodd"/></mask><mask id="c" fill="#fff"><path d="M0 0h1.405v3.444H0z" fill-rule="evenodd"/></mask><mask id="d" fill="#fff"><path d="M0 0h3.006v4.328H0z" fill-rule="evenodd"/></mask><g fill="none" fill-rule="evenodd"><path d="M18 0c2.837 0 5.52.656 7.907 1.825C31.884 4.753 36 10.895 36 18c0 9.942-8.058 18-18 18-9.94 0-18-8.057-18-18C0 8.06 8.06 0 18 0z" fill="#f2f4f7" fill-rule="nonzero"/><g fill="#065475"><path d="M3.071 2.599c0 .832-.318 1.14-1.174 1.14-.868 0-1.191-.308-1.191-1.14v-.787c0-.841.312-1.14 1.191-1.14.856 0 1.174.309 1.174 1.14zM1.897 0C.638 0 0 .61 0 1.812v.787c0 1.237.603 1.813 1.897 1.813 1.248 0 1.88-.61 1.88-1.813v-.787C3.777.576 3.18 0 1.897 0z" mask="url(#a)" transform="translate(8.48 16)"/><path d="M3.071 2.599c0 .832-.318 1.14-1.174 1.14-.868 0-1.191-.308-1.191-1.14v-.787c0-.841.312-1.14 1.191-1.14.856 0 1.174.309 1.174 1.14zM1.897 0C.638 0 0 .61 0 1.812v.787c0 1.237.603 1.813 1.897 1.813 1.248 0 1.881-.61 1.881-1.813v-.787C3.778.576 3.18 0 1.897 0z" mask="url(#b)" transform="translate(17.507 16)"/><path d="M.887 3.444a.706.706 0 0 0 .496-.855L.717 0H0l.824 3.226c.02.078.042.151.063.218" mask="url(#c)" transform="translate(4 16.084)"/><path d="m7.293 16.084-.82 3.217c-.102.378-.226.438-.464.438H4.962c.077.193.16.336.253.434.16.153.429.23.794.23.369 0 .635-.077.788-.232.15-.159.278-.44.389-.86l.833-3.227zm19.898 0a.706.706 0 0 0-.706.705v3.538h.734v-4.243zm-13.434 1.482a.706.706 0 0 0-.572-.693 1.91 1.91 0 0 0-.135.745v2.71h.706v-2.71l.001-.053"/><path d="M14.888 16c-.771 0-1.31.226-1.597.672h1.597c.798 0 1.114.248 1.114.946v2.709h.715v-2.709c0-1.089-.621-1.618-1.83-1.618m7.749 3.528a.707.707 0 0 0 .496-.855l-.666-2.589h-.717l.824 3.226c.021.078.041.151.063.218"/><path d="m25.042 16.084-.819 3.217c-.103.378-.227.438-.465.438h-1.047c.077.193.16.336.253.434.161.153.429.23.794.23.37 0 .634-.077.788-.232.15-.159.278-.44.389-.86l.833-3.227z"/><path d="M2.025.64h.981a1.216 1.216 0 0 0-.231-.4C2.614.087 2.39 0 2.025 0c-.369 0-.593.087-.746.24-.151.16-.26.442-.372.863L0 4.328h.741l.891-3.25C1.735.7 1.801.64 2.025.64" mask="url(#d)" transform="translate(27.95 16)"/><path d="M31.1 17.101a5.21 5.21 0 0 0-.071-.249.706.706 0 0 0-.484.866l.213.772h-.741a.707.707 0 0 0-.705.662h1.63l.325 1.175H32z"/></g></g></svg>