<svg height="36" viewBox="0 0 36 36" width="36" xmlns="http://www.w3.org/2000/svg"><mask id="a" fill="#fff"><path d="M0 0h3.19v2.996H0z" fill-rule="evenodd"/></mask><mask id="b" fill="#fff"><path d="M0 0h3.187v3.024H0z" fill-rule="evenodd"/></mask><mask id="c" fill="#fff"><path d="M0 .014h1v.972H0z" fill-rule="evenodd"/></mask><mask id="d" fill="#fff"><path d="M0 .005h1v.99H0z" fill-rule="evenodd"/></mask><mask id="e" fill="#fff"><path d="M0 .005h1.008v.99H0z" fill-rule="evenodd"/></mask><mask id="f" fill="#fff"><path d="M0 .012h1.092v.976H0z" fill-rule="evenodd"/></mask><mask id="g" fill="#fff"><path d="M0 .005h1v.99H0z" fill-rule="evenodd"/></mask><mask id="h" fill="#fff"><path d="M0 .019h1.008V.98H0z" fill-rule="evenodd"/></mask><mask id="i" fill="#fff"><path d="M0 .005h1v.99H0z" fill-rule="evenodd"/></mask><mask id="j" fill="#fff"><path d="M0 .012h1v.976H0z" fill-rule="evenodd"/></mask><mask id="k" fill="#fff"><path d="M0 .052h1v.896H0z" fill-rule="evenodd"/></mask><mask id="l" fill="#fff"><path d="M0 .038h1.008v.924H0z" fill-rule="evenodd"/></mask><mask id="m" fill="#fff"><path d="M0 .024h1.148v.952H0z" fill-rule="evenodd"/></mask><g fill="none" fill-rule="evenodd"><path d="M18 0c2.837 0 5.52.656 7.907 1.825C31.884 4.753 36 10.895 36 18c0 9.942-8.058 18-18 18-9.94 0-18-8.057-18-18C0 8.06 8.06 0 18 0z" fill="#f2f4f7" fill-rule="nonzero"/><g fill="#231f20"><path d="M4 15.112h.756l.168.336c.112.224.224.42.308.644l.42.84c.028.056.056.112.084.196.028-.056.056-.14.084-.196.14-.28.28-.588.448-.868.112-.224.224-.476.364-.7.028-.056.084-.14.112-.196h.784c-.056.084-.084.168-.14.28-.056.084-.084.196-.14.28s-.084.168-.14.252-.084.196-.14.28c-.028.084-.084.168-.112.224-.056.084-.084.168-.14.252s-.084.168-.112.252c-.056.084-.084.168-.14.252s-.084.168-.112.252c-.056.084-.084.168-.14.252s-.084.168-.14.252c-.028.056-.084.14-.112.196-.084.14-.14.28-.224.42-.084-.14-.14-.28-.224-.42-.056-.084-.084-.168-.14-.224-.364-.672-.7-1.344-1.064-2.016-.056-.084-.084-.168-.14-.252 0-.28-.084-.42-.168-.588m8.54 0h1.876c.196.028.42.056.588.14.112.056.168.112.252.196a.736.736 0 0 1 .196.42.682.682 0 0 1 0 .336.52.52 0 0 1-.056.196.944.944 0 0 1-.616.56l.084.084c.056.056.112.14.168.196.028.056.112.112.14.168l.112.112.112.112c.028.056.084.084.112.14.028.028.084.056.112.112l.084.084h-.784c-.028-.056-.084-.084-.112-.14l-.112-.112c-.028-.028-.056-.056-.084-.112s-.084-.084-.112-.14-.084-.084-.112-.112c-.028-.056-.084-.084-.112-.14-.056-.056-.112-.112-.168-.196-.028-.056-.112-.112-.14-.168-.028-.028-.084-.056-.112-.112s-.084-.084-.112-.112c-.028-.056-.084-.084-.112-.112h.616c.112 0 .224 0 .308-.028v-.028.028a.451.451 0 0 0 .196-.112c.028-.056.056-.084.084-.14s0-.112.028-.168c0-.14-.084-.252-.168-.308s-.196-.084-.308-.084h-1.204v2.296h-.644zm4.256 0h.588l.252.252c.14.112.252.252.392.364l.336.336c.056.056.112.14.196.196l.588.588c.028.028.056.084.112.14v-1.876h.644v2.856h-.56l-.308-.308c-.084-.056-.14-.14-.224-.196l-1.288-1.288c-.028-.028-.056-.084-.084-.112v1.932h-.644z"/><path d="M2.513 1.708a1.09 1.09 0 0 1-.364.56c-.168.112-.364.196-.56.196h-.14c-.336-.056-.644-.28-.756-.616a.854.854 0 0 1 0-.644.61.61 0 0 1 .14-.224.966.966 0 0 1 .252-.224c.112-.056.224-.112.365-.14.083 0 .139-.028.223 0 .28.028.56.168.7.392.14.196.196.448.14.7m.476-.924a.875.875 0 0 0-.252-.308c-.112-.14-.252-.224-.42-.308-.14-.084-.28-.112-.42-.14-.056 0-.084 0-.14-.028H1.42a2.098 2.098 0 0 0-.448.112A1.722 1.722 0 0 0 .44.448c-.196.168-.336.42-.392.644-.084.308-.056.672.056.952.056.14.14.252.224.364l.168.168c.252.224.56.364.869.392.055 0 .139 0 .223.028h.196c.14-.028.308-.056.448-.112a1.74 1.74 0 0 0 .56-.364c.113-.112.196-.252.28-.392A1.525 1.525 0 0 0 2.989.784" mask="url(#a)" transform="translate(8.29 15)"/><path d="M2.263 2.184c-.14.14-.336.224-.532.28h-.14c-.224 0-.448-.084-.616-.196a.337.337 0 0 1-.14-.14.736.736 0 0 1-.196-.42c0-.084-.028-.168 0-.224 0-.224.112-.42.252-.56.14-.168.336-.252.532-.308.28-.056.56.028.784.224.168.14.28.336.336.532.028.28-.056.616-.28.812M3.13 1.12C3.103.98 3.019.84 2.963.728a1.7 1.7 0 0 0-.924-.672C1.955.028 1.87.028 1.787 0h-.364c-.112.028-.224.028-.336.084a1.56 1.56 0 0 0-.98.896c-.196.448-.112 1.008.168 1.4.196.28.504.476.84.588.084.028.196.056.308.056h.307c.364-.028.728-.168.98-.42.196-.196.364-.42.42-.7.028-.084.028-.14.056-.224v-.308c-.028-.084-.028-.168-.056-.252" mask="url(#b)" transform="translate(28.813 15)"/><path d="M27.324 16.68a.771.771 0 0 1-.364.56c-.168.112-.392.14-.616.14h-.56v-1.736h.784c.028 0 .085.028.112.028a.838.838 0 0 1 .28.112c.224.14.364.42.364.7 0 .084.028.14 0 .196m.644-.252c0-.028 0-.084-.028-.112-.028-.364-.252-.7-.532-.924a1.507 1.507 0 0 0-.7-.252c-.084-.028-.14-.028-.224-.028H25.14v2.856h1.372c.056 0 .084 0 .14-.028.056 0 .14-.028.196-.028.225-.056.42-.14.616-.28.056-.056.14-.112.169-.168.279-.28.363-.672.335-1.036m-6.02.56.084-.168.084-.168c.056-.112.112-.196.14-.308.056-.084.084-.196.14-.28.028-.056.056-.14.112-.196.056.112.112.224.169.364.055.084.11.196.167.308.084.168.168.308.252.476-.364-.028-.756-.028-1.148-.028m2.24.7c-.084-.14-.14-.28-.224-.448-.056-.084-.084-.168-.14-.28-.056-.084-.084-.196-.14-.28s-.084-.196-.14-.28c-.084-.168-.168-.308-.224-.448a1.308 1.308 0 0 1-.14-.28c-.056-.084-.084-.196-.14-.28s-.084-.196-.14-.28h-.644a.838.838 0 0 0-.112.224c-.056.112-.14.224-.196.364-.056.084-.084.196-.14.28s-.084.196-.14.28a1.031 1.031 0 0 0-.112.252c-.056.084-.112.196-.168.308-.056.084-.084.196-.14.308l-.168.336a.876.876 0 0 0-.14.28c-.028.084-.112.168-.14.28h.7c.084-.14.14-.308.224-.448h1.736l.084.168c.056.084.084.168.14.252h.7a6.784 6.784 0 0 0-.196-.308"/><path d="M.234.061c.14-.027.308-.027.476 0C.794.09.878.118.962.173.934.203.906.23.878.286.71.202.514.146.318.202.29.23.234.23.206.286c0 .028.028.084.056.084.056.028.14.028.224.028.056.027.112 0 .14.027.112 0 .224.03.308.084C.962.54.99.566.99.622v.14C.962.817.962.872.906.901a.573.573 0 0 1-.308.084H.43c-.028 0-.084 0-.112-.029A.93.93 0 0 1 .01.845V.818C.038.79.066.734.094.706a.749.749 0 0 0 .532.112C.682.818.766.79.794.734.822.706.822.65.822.622.794.593.766.566.738.566.598.538.458.538.318.51A.314.314 0 0 1 .094.425C.038.37.066.315.066.257.066.173.15.09.234.061" mask="url(#c)" transform="translate(24.85 18.998)"/><path d="M.08.07h.168V.8H.92v.139H.108C.08.659.08.379.08.07" mask="url(#d)" transform="translate(13.916 18.989)"/><path d="M.028.07h.98v.142h-.42v.727H.42V.212H0C.028.182.028.128.028.07" mask="url(#e)" transform="translate(15.368 18.989)"/><path d="M0 .064h.196C.224.12.28.149.308.176c.028.029.056.057.084.113C.42.317.448.344.476.4c.028.027.056.056.056.084C.56.457.588.4.644.373.672.317.728.289.756.233L.84.149.896.092h.196c-.028.057-.056.084-.084.113C.98.26.924.289.868.344.812.4.784.457.728.512a.22.22 0 0 1-.112.113V.96H.448V.625S.42.595.42.569C.308.428.168.289.056.176.056.12.028.092 0 .064" mask="url(#f)" transform="translate(16.936 18.996)"/><path d="M.01.07h.98v.142H.57v.727H.43V.212H.01z" mask="url(#g)" transform="translate(19.474 18.989)"/><path d="M0 .056h.14v.561a.21.21 0 0 0 .14.196C.364.84.476.84.56.84S.728.813.784.756A.21.21 0 0 0 .84.646V.083h.168v.561c0 .056 0 .14-.056.195A.45.45 0 0 1 .644.98H.392C.28.952.14.924.056.813 0 .73.028.645.028.561 0 .365 0 .225 0 .056" mask="url(#h)" transform="translate(22.984 19.003)"/><path d="M.01.07h.98v.142H.57v.727H.43V.212H.01z" mask="url(#i)" transform="translate(26.614 18.989)"/><path d="M.066.064h.868v.14H.206v.224H.71v.14H.206v.253h.756V.96H.038C.066.653.066.373.066.064" mask="url(#j)" transform="translate(10.598 18.996)"/><path d="M.14.472v-.28h.476a.26.26 0 0 1 .14.028C.812.248.812.277.84.332v.056A.12.12 0 0 1 .728.5C.532.472.336.472.14.472m.84.393A1.539 1.539 0 0 0 .784.613v-.03A.219.219 0 0 0 .924.53C.98.472.98.388.98.332A.314.314 0 0 0 .896.109C.84.052.756.052.7.052H0V.92h.168V.613h.42c.084.11.14.195.224.307.056.029.112 0 .168 0 .028 0 0-.028 0-.055" mask="url(#k)" transform="translate(8.928 19.036)"/><path d="M.14.486v-.28h.448c.056 0 .112 0 .168.028.056.028.056.112.056.168C.812.459.756.486.7.486zM.952.85C.896.766.84.71.784.627v-.03A.191.191 0 0 0 .98.403C1.008.318.98.262.952.178S.812.038.728.038H0v.868h.168V.598h.42C.672.71.756.795.84.906h.168A.06.06 0 0 1 .952.85z" mask="url(#l)" transform="translate(21.304 19.022)"/><path d="M.364.612C.392.556.448.472.476.416S.56.276.588.22c.028.028.028.084.056.112.056.084.084.14.112.224 0 .028.028.056.028.056zm.728.252L1.008.696A.838.838 0 0 1 .896.472C.812.332.728.192.672.024H.476C.392.192.308.332.224.5.168.556.14.64.112.724.084.78.056.864 0 .92h.168C.224.864.224.808.28.724h.588C.896.78.924.836.98.92h.168C1.12.92 1.12.892 1.092.864z" mask="url(#m)" transform="translate(12.176 19.008)"/></g></g></svg>