<svg width="36" height="36" fill="none" xmlns="http://www.w3.org/2000/svg"><path d="M18 0c2.837 0 5.52.656 7.907 1.825C31.884 4.753 36 10.895 36 18c0 9.942-8.058 18-18 18-9.94 0-18-8.057-18-18C0 8.06 8.06 0 18 0z" fill="#F2F4F7"/><path d="M11.038 17.52a3.52 3.52 0 1 1-7.04 0 3.52 3.52 0 0 1 7.04 0z" fill="#EE3124"/><path d="M7.548 19.481c-.968.003-1.973-.822-1.977-2.147-.003-.877.47-1.72 1.074-2.22.589-.49 1.397-.802 2.129-.804a.88.88 0 0 1 .253.028c-.64.133-1.149.729-1.148 1.404 0 .022.003.046.005.057 1.07.26 1.558.907 1.56 1.802.003.896-.704 1.876-1.896 1.88z" fill="#fff"/><path d="m13.31 18.977-1.075-2.568h.703l.671 1.704.65-1.704h.67l-1.044 2.568h-.575zm3.493-1.297c0-.107-.012-.21-.038-.306a.74.74 0 0 0-.112-.249.578.578 0 0 0-.18-.165.496.496 0 0 0-.25-.062.5.5 0 0 0-.432.227.74.74 0 0 0-.112.25 1.2 1.2 0 0 0-.038.304c0 .111.013.213.038.308a.817.817 0 0 0 .11.248.51.51 0 0 0 .434.23.496.496 0 0 0 .43-.23.771.771 0 0 0 .112-.248 1.16 1.16 0 0 0 .038-.308zm.65.002c0 .167-.026.332-.077.493a1.33 1.33 0 0 1-.23.434c-.1.127-.23.231-.384.31a1.178 1.178 0 0 1-.54.117 1.128 1.128 0 0 1-.924-.427 1.372 1.372 0 0 1-.23-.434 1.603 1.603 0 0 1 0-.983 1.32 1.32 0 0 1 .23-.428 1.13 1.13 0 0 1 .924-.419c.206 0 .385.038.538.115.152.077.28.178.383.304.104.126.18.269.233.428.051.16.077.324.077.49zm1.983-.708a.964.964 0 0 0-.355-.075.608.608 0 0 0-.291.065.59.59 0 0 0-.202.174.789.789 0 0 0-.119.246.995.995 0 0 0-.04.28c0 .106.012.21.036.308a.784.784 0 0 0 .106.256.571.571 0 0 0 .18.176.48.48 0 0 0 .258.068.534.534 0 0 0 .25-.068.442.442 0 0 0 .18-.158v-1.272h-.003zm.054 2.003-.027-.197a.836.836 0 0 1-.24.179.746.746 0 0 1-.35.077.955.955 0 0 1-.467-.112 1.052 1.052 0 0 1-.34-.298 1.36 1.36 0 0 1-.21-.431 1.817 1.817 0 0 1-.072-.512c0-.166.026-.33.075-.49.049-.16.124-.302.225-.428a1.12 1.12 0 0 1 .916-.418c.134 0 .28.025.435.074v-.996h.66v3.553h-.605zm2.466-1.204c-.071.004-.144.01-.22.018a2.282 2.282 0 0 0-.214.035c-.142.028-.242.077-.298.147a.349.349 0 0 0-.082.227c0 .086.03.154.093.206a.407.407 0 0 0 .266.077.62.62 0 0 0 .25-.053c.08-.035.15-.08.207-.133v-.524h-.002zm.054 1.201-.027-.191a.72.72 0 0 1-.273.184.957.957 0 0 1-.682.012.786.786 0 0 1-.532-.759.75.75 0 0 1 .074-.339.743.743 0 0 1 .203-.248 1.11 1.11 0 0 1 .294-.165c.111-.042.227-.074.348-.095.085-.018.179-.031.281-.04.1-.008.186-.016.253-.023v-.038c0-.143-.036-.244-.109-.304a.461.461 0 0 0-.302-.09.895.895 0 0 0-.396.094 1.416 1.416 0 0 0-.241.15l-.217-.462a.973.973 0 0 1 .13-.09 1.594 1.594 0 0 1 .496-.19c.105-.022.217-.035.338-.035.142 0 .272.018.39.056a.776.776 0 0 1 .504.48c.047.122.071.27.071.444v1.65h-.603zm3.154-.229a1.883 1.883 0 0 1-.116.074 1.16 1.16 0 0 1-.2.092 1.856 1.856 0 0 1-.636.11c-.155 0-.304-.027-.447-.08a1.05 1.05 0 0 1-.38-.244 1.163 1.163 0 0 1-.262-.412 1.584 1.584 0 0 1-.098-.586c0-.226.032-.423.095-.592.064-.17.15-.311.259-.423.108-.114.234-.196.375-.25.141-.055.29-.083.445-.083a1.135 1.135 0 0 1 .678.204.902.902 0 0 1 .199.193c.05.07.092.137.124.2l-.485.328a1.262 1.262 0 0 0-.2-.256.417.417 0 0 0-.309-.12.47.47 0 0 0-.368.188c-.104.125-.155.32-.155.584 0 .254.053.448.158.581.106.135.259.202.46.202a1.023 1.023 0 0 0 .454-.098.788.788 0 0 0 .221-.15l.188.538zm2.023-1.071c0-.107-.013-.208-.037-.303a.75.75 0 0 0-.11-.246.57.57 0 0 0-.18-.164.49.49 0 0 0-.247-.062.495.495 0 0 0-.25.062.57.57 0 0 0-.179.164.723.723 0 0 0-.11.246 1.178 1.178 0 0 0-.037.303c0 .109.013.211.037.305.025.094.06.176.108.246a.504.504 0 0 0 .43.228c.095 0 .177-.02.247-.061.07-.04.13-.097.18-.167a.761.761 0 0 0 .11-.246 1.16 1.16 0 0 0 .038-.305zm.645.002c0 .166-.025.33-.077.489a1.38 1.38 0 0 1-.227.431c-.1.128-.226.23-.38.307a1.182 1.182 0 0 1-.537.116c-.204 0-.383-.04-.536-.116a1.11 1.11 0 0 1-.38-.307 1.309 1.309 0 0 1-.227-.431 1.62 1.62 0 0 1-.077-.489c0-.165.025-.327.077-.485a1.32 1.32 0 0 1 .226-.426c.101-.125.227-.225.381-.301a1.2 1.2 0 0 1 .536-.113c.205 0 .383.037.534.113.151.076.278.176.38.301.103.125.18.267.23.426.05.158.077.32.077.485zm3.513 1.286v-1.497a.787.787 0 0 0-.095-.41c-.064-.104-.183-.156-.355-.156a.53.53 0 0 0-.15.024 1.01 1.01 0 0 0-.268.122.977.977 0 0 0-.084.06 2.756 2.756 0 0 1 .032.318v1.539h-.655v-1.497a1.29 1.29 0 0 0-.018-.22.524.524 0 0 0-.066-.179.37.37 0 0 0-.125-.122.38.38 0 0 0-.193-.045c-.1 0-.192.027-.28.08-.088.053-.163.11-.221.17v1.813h-.655v-2.548h.602l.026.19c.079-.07.174-.13.288-.18a.875.875 0 0 1 .348-.073c.12 0 .24.018.357.056a.88.88 0 0 1 .33.193c.116-.07.245-.13.384-.178.14-.048.288-.071.448-.071.19 0 .35.025.479.074.128.049.232.12.309.211a.819.819 0 0 1 .166.339 1.9 1.9 0 0 1 .05.46v1.528h-.654v-.001z" fill="#EE3124"/></svg>