<svg height="36" viewBox="0 0 36 36" width="36" xmlns="http://www.w3.org/2000/svg"><mask id="a" fill="#fff"><path d="M0 0h26v26.077H0z" fill-rule="evenodd"/></mask><g fill="none" fill-rule="evenodd"><path d="M18 0c2.837 0 5.52.656 7.907 1.825C31.884 4.753 36 10.895 36 18c0 9.942-8.058 18-18 18-9.94 0-18-8.057-18-18C0 8.06 8.06 0 18 0z" fill="#f2f4f7" fill-rule="nonzero"/><path d="M8.208.911c3.27-1.303 7.078-1.214 10.26.301-.907-.138-1.829-.034-2.727.118-2.437.46-4.754 1.607-6.565 3.311-1.736 1.706-2.953 3.97-3.296 6.393-.228 1.717-.017 3.518.753 5.08.794 1.64 2.191 2.984 3.876 3.678 1.622.688 3.504.68 5.148.067 2.467-.906 4.239-3.35 4.441-5.96.127-1.711-.289-3.532-1.438-4.844-1.098-1.285-2.703-1.993-4.31-2.396-.086-1.584.662-3.15 1.845-4.18.657-.593 1.473-.97 2.316-1.212l.064-.023a13.16 13.16 0 0 1 5.774 5.413 12.882 12.882 0 0 1 1.648 6.588c-.012 2.963-1.12 5.897-3.018 8.163a12.979 12.979 0 0 1-7.043 4.337c-2.744.632-5.696.36-8.264-.807a13.06 13.06 0 0 1-5.997-5.473 12.911 12.911 0 0 1-1.672-6.587c.005-2.858 1.02-5.695 2.792-7.93C4.21 3.163 6.09 1.743 8.208.91" fill="#e60000" mask="url(#a)" transform="translate(5 5)"/><path d="M20.742 6.33c.897-.153 1.82-.256 2.727-.118l.13.021-.087.033c-.844.243-1.66.62-2.317 1.213-1.184 1.03-1.93 2.596-1.844 4.18 1.606.403 3.212 1.11 4.31 2.395 1.149 1.313 1.565 3.133 1.438 4.845-.203 2.611-1.976 5.054-4.442 5.96-1.643.612-3.526.62-5.149-.066-1.684-.694-3.08-2.04-3.875-3.679-.77-1.562-.981-3.363-.754-5.079.344-2.423 1.561-4.687 3.298-6.394 1.81-1.704 4.127-2.85 6.565-3.311" fill="#fff"/></g></svg>