<svg width="36" height="36" fill="none" xmlns="http://www.w3.org/2000/svg"><defs><linearGradient id="b" x1="13.786" y1="16.33" x2="21.782" y2="19.083" gradientUnits="userSpaceOnUse"><stop stop-color="#E2E2DC"/><stop offset="1" stop-color="#fff"/></linearGradient><linearGradient id="e" x1="9.762" y1="21.333" x2="9.762" y2="20.563" gradientUnits="userSpaceOnUse"><stop stop-color="#fff" stop-opacity="0"/><stop offset=".17" stop-color="#FAFAF9" stop-opacity="0"/><stop offset=".427" stop-color="#BBBBB8" stop-opacity=".1"/><stop offset=".523" stop-color="#8F8F8C" stop-opacity=".2"/><stop offset=".624" stop-color="#686866" stop-opacity=".3"/><stop offset=".723" stop-color="#4A4948" stop-opacity=".6"/><stop offset=".821" stop-color="#343432" stop-opacity=".8"/><stop offset=".914" stop-color="#272625" stop-opacity=".9"/><stop offset="1" stop-color="#232221"/></linearGradient><linearGradient id="f" x1="26.243" y1="21.333" x2="26.243" y2="20.563" gradientUnits="userSpaceOnUse"><stop stop-color="#fff" stop-opacity="0"/><stop offset=".17" stop-color="#FAFAF9" stop-opacity="0"/><stop offset=".427" stop-color="#BBBBB8" stop-opacity="0"/><stop offset=".523" stop-color="#8F8F8C" stop-opacity="0"/><stop offset=".624" stop-color="#686866" stop-opacity="0"/><stop offset=".723" stop-color="#4A4948" stop-opacity=".25"/><stop offset=".821" stop-color="#343432" stop-opacity=".5"/><stop offset=".914" stop-color="#272625" stop-opacity=".75"/><stop offset="1" stop-color="#232221"/></linearGradient><linearGradient id="h" x1="28.286" y1="12.703" x2="22.88" y2="7.296" gradientUnits="userSpaceOnUse"><stop offset=".006" stop-color="#212111"/><stop offset=".646" stop-color="#41403F"/><stop offset=".651" stop-color="#454443"/><stop offset=".656" stop-color="#52514F"/><stop offset=".661" stop-color="#666564"/><stop offset=".666" stop-color="#838281"/><stop offset=".671" stop-color="#A9A8A6"/><stop offset=".676" stop-color="#D6D5D2"/><stop offset=".68" stop-color="#FDFCF9"/><stop offset=".683" stop-color="#FAF9F6"/><stop offset=".684" stop-color="#F2F1EE"/><stop offset=".686" stop-color="#E3E2DF"/><stop offset=".687" stop-color="#CECECA"/><stop offset=".688" stop-color="#B3B3AF"/><stop offset=".689" stop-color="#93938E"/><stop offset=".69" stop-color="#70706B"/><stop offset=".692" stop-color="#6D6D68"/><stop offset=".715" stop-color="#535250"/><stop offset=".74" stop-color="#3E3C3D"/><stop offset=".769" stop-color="#2E2B2D"/><stop offset=".806" stop-color="#222023"/><stop offset=".857" stop-color="#1C191D"/><stop offset="1" stop-color="#1A171B"/></linearGradient><linearGradient id="j" x1="23.68" y1="7.054" x2="28.748" y2="7.054" gradientUnits="userSpaceOnUse"><stop stop-color="#5D5D5F"/><stop offset=".085" stop-color="#505051"/><stop offset=".258" stop-color="#3C3C3C"/><stop offset=".45" stop-color="#2E2D2D"/><stop offset=".672" stop-color="#262524"/><stop offset="1" stop-color="#232221"/></linearGradient><linearGradient id="k" x1="28.695" y1="12.105" x2="28.695" y2="7" gradientUnits="userSpaceOnUse"><stop stop-color="#5D5D5F"/><stop offset=".096" stop-color="#555456"/><stop offset=".458" stop-color="#393939"/><stop offset=".772" stop-color="#292827"/><stop offset="1" stop-color="#232221"/></linearGradient><linearGradient id="l" x1="9.939" y1="13.335" x2="13.184" y2="17.725" gradientUnits="userSpaceOnUse"><stop stop-color="#fff"/><stop offset=".109" stop-color="#D8E8F3"/><stop offset=".338" stop-color="#8CBCDC"/><stop offset=".542" stop-color="#5099C9"/><stop offset=".714" stop-color="#257FBC"/><stop offset=".848" stop-color="#0A70B4"/><stop offset=".927" stop-color="#006AB1"/><stop offset=".929" stop-color="#046BB2"/><stop offset=".949" stop-color="#2678B8"/><stop offset=".968" stop-color="#3E81BD"/><stop offset=".986" stop-color="#4D86C0"/><stop offset="1" stop-color="#5288C1"/></linearGradient><radialGradient id="a" cx="0" cy="0" r="1" gradientUnits="userSpaceOnUse" gradientTransform="translate(10.366 15.642) scale(22.3002)"><stop stop-color="#fff"/><stop offset=".047" stop-color="#FCFCFB"/><stop offset=".225" stop-color="#FAFAF9"/><stop offset=".372" stop-color="#B9B9B8"/><stop offset=".497" stop-color="#888887"/><stop offset=".592" stop-color="#6A6A69"/><stop offset=".646" stop-color="#5F5F5E"/><stop offset=".728" stop-color="#555554"/><stop offset=".867" stop-color="#3A3939"/><stop offset="1" stop-color="#1B1919"/></radialGradient><radialGradient id="c" cx="0" cy="0" r="1" gradientUnits="userSpaceOnUse" gradientTransform="translate(24.346 24.63) scale(24.4737)"><stop stop-color="#C5C6C2"/><stop offset="1" stop-color="#868680"/></radialGradient><radialGradient id="d" cx="0" cy="0" r="1" gradientUnits="userSpaceOnUse" gradientTransform="translate(21.85 21.634) scale(17.1865)"><stop stop-color="#fff"/><stop offset=".199" stop-color="#F2F2F3"/><stop offset=".298" stop-color="#EAEAEB"/><stop offset=".299" stop-color="#E9E9EA"/><stop offset=".371" stop-color="#C3C3C3"/><stop offset=".443" stop-color="#A5A5A5"/><stop offset=".513" stop-color="#8F8F8F"/><stop offset=".579" stop-color="#828281"/><stop offset=".64" stop-color="#7E7E7D"/><stop offset=".753" stop-color="#545352"/><stop offset=".855" stop-color="#353333"/><stop offset=".941" stop-color="#222020"/><stop offset="1" stop-color="#1B1919"/></radialGradient><radialGradient id="g" cx="0" cy="0" r="1" gradientUnits="userSpaceOnUse" gradientTransform="translate(7.996 15.644) scale(13.8741)"><stop stop-color="#006AB1"/><stop offset=".002" stop-color="#006AB1"/><stop offset=".128" stop-color="#0061A4"/><stop offset=".242" stop-color="#005E9F"/><stop offset=".506" stop-color="#00548E"/><stop offset=".837" stop-color="#004374"/><stop offset=".959" stop-color="#004173"/><stop offset="1" stop-color="#003B6F"/></radialGradient><radialGradient id="i" cx="0" cy="0" r="1" gradientUnits="userSpaceOnUse" gradientTransform="translate(27.842 7.655) scale(5.79817)"><stop stop-color="#555552"/><stop offset="1" stop-color="#50504D"/></radialGradient></defs><path d="M18 0c2.837 0 5.52.656 7.907 1.825C31.884 4.753 36 10.895 36 18c0 9.942-8.058 18-18 18-9.94 0-18-8.057-18-18C0 8.06 8.06 0 18 0z" fill="#F2F4F7"/><path d="M18 10.775c1.941 0 3.667.79 4.925 2.049 1.294 1.258 2.049 3.02 2.049 4.96 0 1.906-.755 3.667-2.05 4.925A6.925 6.925 0 0 1 18 24.76c-1.941 0-3.667-.791-4.96-2.05a6.988 6.988 0 0 1 0-9.885c1.293-1.258 3.019-2.05 4.96-2.05zm0 .108c-1.905 0-3.63.79-4.853 2.013-1.258 1.258-2.049 2.983-2.049 4.889 0 1.905.79 3.63 2.049 4.852 1.222 1.259 2.948 2.014 4.853 2.014 1.905 0 3.63-.755 4.853-2.014 1.258-1.222 2.013-2.947 2.013-4.852A6.872 6.872 0 0 0 18 10.883z" fill="#C5C5C1"/><path d="M18 7.072c2.445 0 4.71.826 6.506 2.193l1.187-1.187 2.085 2.085-1.186 1.223a10.624 10.624 0 0 1 2.084 6.362c0 5.896-4.78 10.713-10.676 10.713-5.895 0-10.677-4.817-10.677-10.713 0-5.895 4.782-10.676 10.677-10.676zm0 2.516c-4.493 0-8.16 3.667-8.16 8.16 0 4.53 3.667 8.16 8.16 8.16 4.494 0 8.16-3.63 8.16-8.16 0-4.493-3.666-8.16-8.16-8.16z" fill="url(#a)"/><path d="M18 9.552c2.265 0 4.314.9 5.824 2.409a8.2 8.2 0 0 1 2.408 5.823c0 2.265-.935 4.314-2.408 5.824-1.51 1.473-3.56 2.408-5.824 2.408a8.264 8.264 0 0 1-5.823-2.408c-1.474-1.51-2.409-3.559-2.409-5.824a8.2 8.2 0 0 1 2.409-5.823C13.65 10.45 15.735 9.552 18 9.552zm0 .108a8.127 8.127 0 0 0-5.752 2.373 8.063 8.063 0 0 0-2.372 5.751c0 2.23.898 4.278 2.372 5.752 1.474 1.438 3.523 2.372 5.752 2.372 2.229 0 4.278-.934 5.752-2.372a8.128 8.128 0 0 0 2.372-5.752 8.064 8.064 0 0 0-2.372-5.751A8.127 8.127 0 0 0 18 9.66z" fill="url(#b)"/><path d="M18 7c2.445 0 4.745.827 6.543 2.229l-.036.036A10.745 10.745 0 0 0 18 7.072c-5.895 0-10.676 4.781-10.676 10.676 0 5.896 4.78 10.713 10.676 10.713s10.677-4.817 10.677-10.713c0-2.372-.755-4.565-2.085-6.362l.036-.036a10.682 10.682 0 0 1 2.12 6.398c0 2.984-1.222 5.68-3.163 7.621A10.643 10.643 0 0 1 18 28.497a10.705 10.705 0 0 1-7.585-3.128c-1.941-1.977-3.163-4.637-3.163-7.62 0-2.948 1.222-5.644 3.163-7.586C12.356 8.223 15.016 7 18 7z" fill="url(#c)"/><path d="M18 9.624c4.494 0 8.16 3.63 8.16 8.16 0 4.494-3.666 8.16-8.16 8.16-4.493 0-8.16-3.666-8.16-8.16 0-4.53 3.667-8.16 8.16-8.16zm0 1.15c-3.846 0-6.974 3.128-6.974 7.01A6.98 6.98 0 0 0 18 24.758a6.98 6.98 0 0 0 6.974-6.974c0-3.882-3.127-7.01-6.974-7.01z" fill="url(#d)"/><path opacity=".67" d="M11.378 19.96H7.556c.094.45.225.884.374 1.31h4.039a6.944 6.944 0 0 1-.59-1.31z" fill="url(#e)"/><path opacity=".86" d="M24.627 19.96h3.823c-.095.45-.225.884-.374 1.31h-4.04c.24-.412.44-.85.591-1.31z" fill="url(#f)"/><path d="M28.64 15.052c.252.863.36 1.762.36 2.696 0 .971-.144 1.906-.36 2.804H7.396v-.036h21.21c.252-.898.36-1.833.36-2.803a10.6 10.6 0 0 0-.324-2.66z" fill="#1A171B"/><path d="M7.36 15.017h21.28c.216.862.324 1.76.324 2.696 0 .97-.107 1.905-.36 2.803H7.396A10.356 10.356 0 0 1 7 17.713c0-.935.144-1.834.36-2.696z" fill="url(#g)"/><path d="m26.124 7.36 2.373 2.372-1.762 1.761.108.144-1.258 1.007-.396.143 2.589-2.624-2.085-2.085-2.588 2.589.108-.36 2.911-2.948z" fill="url(#h)"/><path d="M23.752 7.108c2.085 1.114 3.774 2.84 4.925 4.889v-4.89h-4.925z" fill="url(#i)"/><path d="M23.752 7.108c2.085 1.114 3.774 2.84 4.925 4.889" stroke="#B1B0A8" stroke-width=".34" stroke-linecap="round"/><path d="M23.752 7.108a12.304 12.304 0 0 1 4.889 4.889" stroke="#CBCAC4" stroke-width=".236" stroke-linecap="round"/><path d="M23.716 7.108c2.085 1.114 3.774 2.84 4.925 4.925" stroke="#E6E6E1" stroke-width=".132" stroke-linecap="round"/><path d="M23.716 7.108c2.049 1.15 3.774 2.84 4.889 4.925" stroke="#fff" stroke-width=".028" stroke-linecap="round"/><path d="M28.677 7c.035 0 .071.036.071.108H23.68c0-.072.036-.108.072-.108h4.925z" fill="url(#j)"/><path d="M28.748 11.997c0 .072-.035.108-.072.108l-.035-.072V7h.036c.036 0 .071.036.071.108v4.889z" fill="url(#k)"/><path d="M7.398 15.058c-.215.863-.36 1.761-.36 2.696 0 .077.027.535.03.612l.062.694c-.001-.056-.029-1.188-.029-1.244 0-.935.156-1.801.372-2.664l7.53-.032 3.251-.062H7.398z" fill="url(#l)"/><path d="M25.693 19.082c-.953 0-1.729-.582-1.729-1.298 0-.715.776-1.297 1.729-1.297.973 0 1.765.582 1.765 1.297 0 .716-.792 1.298-1.765 1.298zm0-2.229c-.352 0-.608.392-.608.931 0 .51.261.896.608.896.33 0 .608-.41.608-.896 0-.513-.273-.931-.608-.931zm-10.928 2.229c-.954 0-1.729-.582-1.729-1.298 0-.683.792-1.261 1.729-1.261.973 0 1.764.566 1.764 1.261 0 .716-.791 1.298-1.764 1.298zm0-2.193c-.347 0-.608.385-.608.895s.261.896.608.896c.33 0 .608-.41.608-.896 0-.485-.279-.895-.608-.895zm6.398 2.12-1.117-2.086-.572.002-.003-.327 2.448-.003.003.327-.615.003.866 1.469.749-1.474-.428.005-.004-.327 1.693-.003.003.327-.578.003-1.113 2.085h-1.332zm-4.493 0-.003-.398.578-.003-.003-1.686-.572.003-.003-.327 2.268-.003.003.327-.579.003.004 1.686.608-.003c.196 0 .714-.129.751-.716l.363-.003.003 1.12H16.67zm-6.435 0-1.117-2.086-.572.002-.004-.327 2.448-.003.003.327-.614.003.866 1.469.785-1.474-.465.005-.003-.327 1.693-.003.003.327-.578.003-1.113 2.085h-1.332z" fill="#fff"/><path d="M25.693 16.49c.97 0 1.761.575 1.761 1.295 0 .718-.79 1.293-1.761 1.293-.935 0-1.726-.575-1.726-1.293 0-.72.791-1.295 1.726-1.295zm0 2.193c.323 0 .611-.395.611-.899 0-.539-.288-.934-.611-.934-.36 0-.611.395-.611.934 0 .504.252.899.61.899zm-10.928-2.157c.97 0 1.761.575 1.761 1.258 0 .72-.79 1.294-1.761 1.294-.935 0-1.726-.575-1.726-1.294 0-.683.791-1.258 1.726-1.258zm0 2.157c.323 0 .61-.395.61-.899 0-.503-.287-.899-.61-.899-.36 0-.611.396-.611.9 0 .503.251.898.61.898zm9.418-2.085v.324h-.575l-1.114 2.084h-1.33l-1.115-2.084h-.575v-.324h2.445v.324h-.612l.863 1.473.755-1.473h-.431v-.324h1.689zm-5.248 0v.324h-.575v1.689h.61c.216 0 .72-.144.756-.719h.359v1.114H16.67v-.395h.575v-1.69h-.575v-.323h2.265zm-5.68 0v.324h-.575l-1.115 2.084h-1.33l-1.114-2.084h-.575v-.324h2.444v.324h-.61l.862 1.473.79-1.473h-.467v-.324h1.69zm12.438-.115c-.955 0-1.732.584-1.732 1.301 0 .718.777 1.3 1.732 1.3.975 0 1.768-.582 1.768-1.3 0-.717-.793-1.3-1.768-1.3zm0 2.194c-.345 0-.605-.384-.605-.892 0-.538.255-.929.605-.929.333 0 .604.417.604.928 0 .484-.277.893-.604.893zM14.765 16.52c-.94 0-1.732.579-1.732 1.265 0 .717.777 1.3 1.732 1.3.975 0 1.768-.583 1.768-1.3 0-.698-.793-1.265-1.768-1.265zm0 2.157c-.345 0-.605-.384-.605-.892 0-.51.26-.893.605-.893.327 0 .604.409.604.893 0 .483-.277.892-.604.892zm9.425-2.085h-1.703v.336h.427l-.744 1.454-.851-1.454h.606v-.336h-2.458v.336h.578l1.112 2.081.002.004h1.338l.002-.004 1.113-2.08h.578v-.337zm-5.249 0h-2.278v.336h.575v1.676h-.575v.409h3.428v-1.127h-.372v.006c-.037.584-.553.712-.748.712h-.605v-1.676h.575v-.336zm-5.68 0H11.56v.336h.463l-.78 1.454-.851-1.454h.606v-.336H8.539v.336h.577l1.114 2.081.001.004h1.338l.002-.004 1.113-2.08h.578v-.337z" fill="#1D2D28"/></svg>