<svg height="36" viewBox="0 0 36 36" width="36" xmlns="http://www.w3.org/2000/svg"><mask id="a" fill="#fff"><path d="M0 0h26v6.92H0z" fill-rule="evenodd"/></mask><mask id="b" fill="#fff"><path d="M0 0h14.346v6.687H0z" fill-rule="evenodd"/></mask><g fill="none" fill-rule="evenodd"><path d="M18 0c2.837 0 5.52.656 7.907 1.825C31.884 4.753 36 10.895 36 18c0 9.942-8.058 18-18 18-9.94 0-18-8.057-18-18C0 8.06 8.06 0 18 0z" fill="#f2f4f7" fill-rule="nonzero"/><path d="M5.444 0 3.487 4.139H3.47L1.512 0H0l2.668 5.565h1.62L6.958 0zm16.3 0h1.324v2.868l1.21-1.348h1.535l-1.48 1.529L26 5.565h-1.598l-.99-1.628-.344.335v1.293h-1.325zm-3.751 2.758c.063-.336.297-.497.663-.497.273 0 .64.115.64.412 0 .25-.126.327-.351.375-.92.187-2.355.086-2.355 1.408 0 .836.608 1.226 1.38 1.226.483 0 .99-.141 1.333-.5.016.133.03.258.078.383h1.33c-.155-.32-.155-.694-.155-1.038V2.75c0-1.136-.926-1.347-1.884-1.347-.46 0-.928.078-1.287.28-.359.211-.608.555-.632 1.075zM17.916 4.4c0-.32.249-.446.545-.516.29-.079.632-.102.819-.219.031.838-.18 1.197-.81 1.197-.297 0-.554-.133-.554-.462zm-6.32 2.519h1.326v-1.79h.016c.272.365.653.553 1.152.553 1.145 0 1.707-.998 1.707-2.05 0-1.137-.538-2.229-1.808-2.229-.467 0-.857.203-1.114.585h-.015V1.52h-1.264zm2.09-4.503c.582 0 .786.568.786 1.083 0 .552-.204 1.168-.795 1.168-.6 0-.802-.46-.802-1.168 0-.833.452-1.083.81-1.083zm-7.243 1.13c0 1.215.873 2.135 2.126 2.135 1.251 0 2.133-.92 2.133-2.136 0-1.215-.882-2.143-2.133-2.143-1.253 0-2.126.928-2.126 2.143zm1.325 0c0-.514.187-1.13.8-1.13.615 0 .809.616.809 1.13 0 .514-.194 1.121-.808 1.121-.614 0-.8-.607-.8-1.122z" fill="#000" mask="url(#a)" transform="translate(5 19.582)"/><path d="m11.136 6.687 3.21-6.688H3.209L0 6.687z" fill="#106955" mask="url(#b)" transform="translate(8.334 10)"/><path d="m24.457 19.587 3.21-6.687H15.814l-3.208 6.687z" fill="#cf4037"/><path d="m23.293 16.137 2.817.004-.26.543-11.852.003.261-.546 3.14-.002.463-.58h5.312zm-.61-3.237.448 2.295-4.985.002L19.88 12.9z" fill="#fff"/></g></svg>