<svg width="36" height="36" fill="none" xmlns="http://www.w3.org/2000/svg"><path d="M18 0c2.837 0 5.52.656 7.907 1.825C31.884 4.753 36 10.895 36 18c0 9.942-8.058 18-18 18-9.94 0-18-8.057-18-18C0 8.06 8.06 0 18 0z" fill="#F2F4F7"/><path d="M24.066 17.05c.018 0 .018.018.018.037v.707a.04.04 0 0 1-.037.037 1.475 1.475 0 0 0-.632-.093 1.73 1.73 0 0 0-.54.093c-.018 0-.018.018-.018.037v2.604a.04.04 0 0 1-.037.037h-.744a.04.04 0 0 1-.037-.037v-3.125c0-.018 0-.018.018-.037a2.783 2.783 0 0 1 1.34-.335c.334 0 .594.056.669.075zm-2.585 1.488v.372a.04.04 0 0 1-.038.037H19.12a.04.04 0 0 0-.037.037.99.99 0 0 0 .353.65c.205.15.446.242.725.242.558 0 .986-.223 1.116-.316.019-.018.056 0 .056.038v.632c0 .018 0 .018-.019.018-.074.056-.483.317-1.208.317-.54 0-.986-.168-1.32-.484-.335-.316-.503-.762-.503-1.302 0-.539.168-.985.484-1.339.297-.334.725-.502 1.19-.502.967 0 1.525.595 1.525 1.6zm-.8-.112a.04.04 0 0 0 .037-.037c-.037-.502-.297-.763-.762-.763-.41 0-.725.28-.837.744a.04.04 0 0 0 .037.037l1.525.019zm7.494.353c-.186-.167-.446-.297-.855-.372-.39-.111-.52-.223-.52-.427 0-.224.185-.372.502-.372.427-.019.8.223.93.316.018.018.055 0 .055-.019v-.67c0-.018 0-.018-.018-.018-.075-.056-.447-.26-.986-.26a1.6 1.6 0 0 0-.298.018 1.06 1.06 0 0 0-.948 1.023c0 .595.279.912 1.023 1.079.427.111.632.204.632.483 0 .298-.298.372-.54.372-.464 0-.873-.26-1.004-.372-.018-.018-.055 0-.055.019v.688c0 .019 0 .019.018.019.075.055.428.279 1.06.279.39 0 .707-.093.93-.26.242-.187.372-.466.372-.8-.019-.317-.111-.54-.297-.726zm-3.142-2.268a.512.512 0 0 0 .502-.503.5.5 0 0 0-.502-.502.5.5 0 0 0-.502.502c0 .26.223.503.502.503zm-.372 3.98h.744a.04.04 0 0 0 .037-.038V17.05a.04.04 0 0 0-.037-.037h-.744a.039.039 0 0 0-.037.037v3.403c0 .019.018.037.037.037zm5.84-1.916 1.45-1.507c.018-.018 0-.055-.019-.055h-.893s-.018 0-.018.018l-1.19 1.283c-.019.019-.056 0-.056-.018v-2.418c0-.018-.019-.037-.037-.037h-.744c-.019 0-.038.019-.038.037v4.575a.04.04 0 0 0 .038.037h.744a.04.04 0 0 0 .037-.037v-1.488c0-.037.037-.037.056-.018l1.246 1.543.018.019h.874c.037 0 .037-.037.019-.056L30.5 18.631c-.018-.02-.018-.038 0-.056zm-12.628-2.697-1.6 3.627c-.018.018-.055.018-.055 0l-1.6-3.645h-.836c-.019 0-.037.018-.037.055l1.86 4.24a.701.701 0 0 0 1.282 0l1.86-4.24c.019-.018 0-.055-.037-.055h-.818l-.019.018zm-13.26.13a.328.328 0 0 1 .28-.148h1.32c.056 0 .074.055.056.093l-.354.8c-.018.018-.037.037-.055.037H4.335c-.056 0-.075-.056-.056-.093a3.38 3.38 0 0 1 .335-.689zm1.172-1.078c-.056 0-.093-.093-.037-.13.707-.503 1.58-.8 2.53-.8a4.18 4.18 0 0 1 2.51.818c.056.037.018.112-.037.112H5.785zm1.153 6.527c.019-.018.037-.037.056-.037l3.738.019c.056 0 .093.074.037.111-.707.502-1.58.8-2.51.8a4 4 0 0 1-1.507-.28c-.037-.018-.055-.055-.037-.092l.223-.52zm.465-1.06.354-.8c.018-.018.037-.037.055-.037l4.37.019c.056 0 .075.056.056.093a4.696 4.696 0 0 1-.335.688.328.328 0 0 1-.278.149l-4.147-.019c-.056 0-.093-.056-.075-.093zm5.096-2.622c.018.13.018.26.018.41 0 .13 0 .278-.018.408 0 .038-.038.056-.075.056l-4.147-.018c-.056 0-.074-.056-.056-.093l.224-.521a.554.554 0 0 1 .483-.316h3.496c.037.018.075.055.075.074z" fill="#00358E"/><path d="M12.238 16.697a4.696 4.696 0 0 0-.335-.689.328.328 0 0 0-.278-.148H7.664a.51.51 0 0 0-.465.297l-1.32 2.994c0 .019-.02.019-.038.019-.019 0-.019 0-.037-.019l-.502-1.153a.49.49 0 0 0-.465-.297h-.744c-.037 0-.056.018-.074.055-.019.15-.019.28-.019.428 0 .13 0 .26.019.41 0 .037.037.055.074.055h.39c.02 0 .056.019.056.037.112.242.651 1.488 1.005 2.288.055.13.185.204.297.204a.32.32 0 0 0 .298-.204l1.71-3.887a.49.49 0 0 1 .465-.298h3.868c.038 0 .075-.055.056-.093z" fill="#2A7DE1"/></svg>