<svg width="36" height="36" fill="none" xmlns="http://www.w3.org/2000/svg"><path d="M18 0c2.837 0 5.52.656 7.907 1.825C31.884 4.753 36 10.895 36 18c0 9.942-8.058 18-18 18-9.94 0-18-8.057-18-18C0 8.06 8.06 0 18 0z" fill="#F2F4F7"/><path fill-rule="evenodd" clip-rule="evenodd" d="M21.467 10.556h-.29c-.466-2.734-2.71-3.2-4-2.756-1.044.356-1.288 1.222-1.266 1.6 0 1.644 2.6 3.333 4.467 4.556l.91.6a7.75 7.75 0 0 1 1.045.844l2.067-5.178c.089-.51-.067-1.533-1.422-1.533v-.267H28v.267c-.511 0-1.667.333-2.289 1.711l-2.6 5.778c1.778 2.089 2.289 4.51 2.289 5.689 0 7-6.4 7.444-8 7.333-2.089-.133-6.667-1.867-6.667-6.244 0-2.734 1.4-4.29 2.867-5.067l-3.2-7.178c-.267-.667-1.111-2-2.4-2v-.289h5.511v.267c-.422.044-1.133.378-.711 1.555.244.645 1.556 3.712 3.022 7h.267c1.422 0 2.622.512 3.044.756v2.733h-.355c-.022-1.51-1.934-2.755-2.667-2.8l2.733 6.223L21.29 18a14.334 14.334 0 0 0-2.445-2.133c-1.533-1.09-4.288-3.045-4.288-5.29C14.556 7.957 16.822 7 18.444 7c1.334 0 2.534.533 3 .8v2.756h.023zm-3.378 16.888 3.867-8.644c.888 1.178 1.622 2.711 1.622 4.556 0 3.688-2.89 5.2-5.6 5.2-2.711 0-5.622-3.645-5.622-5.778 0-1.511.177-3.334 1.51-4.245l3.978 8.89h.223l.022.021z" fill="#F1396D"/></svg>