<svg height="36" viewBox="0 0 36 36" width="36" xmlns="http://www.w3.org/2000/svg"><mask id="a" fill="#fff"><path d="M.104 0h.792v1.342H.104z" fill-rule="evenodd"/></mask><mask id="b" fill="#fff"><path d="M0 0h1v1.574H0z" fill-rule="evenodd"/></mask><mask id="c" fill="#fff"><path d="M.048 0h.904v1.076H.048z" fill-rule="evenodd"/></mask><mask id="d" fill="#fff"><path d="M.098.032h.804v.936H.098z" fill-rule="evenodd"/></mask><mask id="e" fill="#fff"><path d="M.183.097h.634v.806H.183z" fill-rule="evenodd"/></mask><mask id="f" fill="#fff"><path d="M.07 0h.86v1H.07z" fill-rule="evenodd"/></mask><g fill="none" fill-rule="evenodd"><path d="M18 0c2.837 0 5.52.656 7.907 1.825C31.884 4.753 36 10.895 36 18c0 9.942-8.058 18-18 18-9.94 0-18-8.057-18-18C0 8.06 8.06 0 18 0z" fill="#f2f4f7" fill-rule="nonzero"/><path d="m4.849 21.449-.088.234h.634l2.366-1.027z" fill="#000"/><path d="M9.512 21.679c-.164 0-.328-.002-.492-.001-.034 0-.053-.007-.067-.041l-.946-2.4a.079.079 0 0 1-.005-.021c.007-.04.003-.081.003-.122v-1.061c0-.034-.01-.073.03-.095.089.222.179.445.267.668l1.184 3.008c.007.018.017.036.026.054z" fill="#00a2de"/><path d="M.69 1.321c-.009.03-.034.019-.052.019-.178.002-.356.002-.535.002v-.034l.012.002c.082.007.165.002.247.004h.112c.067-.006.07-.008.07-.066.002-.325 0-.651.001-.976C.545.266.543.261.541.256L.644 0C.67.002.675.022.678.043c.004.021.003.044.003.066v.872c0 .113-.003.227.008.34" fill="#0067a6" mask="url(#a)" transform="translate(4.08 20.337)"/><path d="M5.168 20.65a5.535 5.535 0 0 1-.156.393c-.04-.023-.03-.062-.03-.095v-.815c-.001-.144.002-.29-.002-.434l.152-.383c.034.003.034.03.039.053.006.027.004.055.004.084v1.08c0 .038-.005.077-.007.116" fill="#006ead"/><path d="M8.035 17.938c-.015.023-.013.05-.013.076v1.133c0 .024.01.054-.02.069a7.474 7.474 0 0 1-.169-.425c.017-.039.015-.08.015-.12v-1.038c0-.034-.009-.073.03-.096.057.132.11.265.157.4" fill="#009fdc"/><path d="m7.125 17.001-.154-.393c.008-.014.004-.029.004-.044v-1.13c0-.033-.015-.079.04-.091.054.124.104.249.148.377.01.377.002.755.004 1.132 0 .033.003.066-.001.1-.004.023-.006.05-.041.049" fill="#0093d1"/><path d="m7.688 18.422-.144-.36c.008-.037 0-.077 0-.116.002-.355 0-.711.002-1.066 0-.038-.007-.08.03-.107.057.129.11.26.156.395.014.396.003.793.006 1.19 0 .019 0 .038-.01.054-.008.018-.02.035-.04.01" fill="#009bd8"/><path d="M5.45 19.937c-.04.116-.086.23-.137.344-.032-.004-.033-.031-.038-.054-.004-.023-.002-.048-.002-.072.001-.388-.002-.775.001-1.162 0-.008 0-.015-.003-.022.05-.12.096-.24.145-.358.03.002.033.025.036.048.004.02.002.044.002.066l.001 1.109c0 .034-.004.067-.006.1" fill="#0073b2"/><path d="M5.874 18.861a4.303 4.303 0 0 1-.145.367c-.033-.002-.033-.03-.038-.053-.006-.027-.004-.055-.004-.083v-1.057c0-.039.006-.078.008-.117.042-.113.083-.226.135-.336.027-.009.031.012.035.03.005.023.003.048.003.072.001.331.002.663 0 .994 0 .062.02.121.006.183" fill="#007bba"/><path d="M6.434 17.449a4.36 4.36 0 0 1-.147.369c-.038-.023-.028-.061-.029-.095v-1.061c0-.037.004-.075-.014-.11l.152-.381c.034 0 .036.028.04.05.005.026.003.052.003.079l.001 1.038c0 .037-.009.073-.006.11" fill="#0086c4"/><path d="M5.874 18.861a.681.681 0 0 1-.024-.18v-1.038c0-.02.015-.05-.02-.06.045-.12.09-.242.145-.359.03.001.033.025.037.047.004.024.002.048.002.072v1.081c0 .034-.003.067-.006.1-.04.114-.083.228-.134.337" fill="#007ebd"/><path d="M7.409 17.716c-.05-.123-.097-.246-.146-.369a.391.391 0 0 0 .015-.127 184.1 184.1 0 0 1 0-1.05c0-.03-.015-.07.028-.088.05.113.096.228.135.345a.581.581 0 0 1 .018.161v1.002c0 .03.002.06-.007.088-.007.02-.01.048-.043.038" fill="#0097d4"/><path d="M6.244 16.552c.013-.006.02-.003.026.01.01.02.006.04.006.061v1.118c0 .026-.003.053.011.077a3.715 3.715 0 0 1-.132.336c-.034 0-.035-.028-.039-.05-.005-.026-.003-.052-.003-.079 0-.37-.002-.744.001-1.115a.054.054 0 0 0-.005-.022c.041-.114.086-.226.135-.336" fill="#0083c1"/><path d="M7.688 18.422c.018.01.029.004.03-.016.003-.014.002-.03.002-.045v-1.118c0-.026-.003-.052.012-.075.055.12.102.244.145.369-.014.024-.011.05-.011.076v1.1c0 .03.009.065-.032.078a4.876 4.876 0 0 1-.146-.37" fill="#009eda"/><path d="M7.306 16.083c-.02.019-.01.042-.01.063l-.001 1.122c0 .03.009.065-.032.08L7.125 17c.033-.014.025-.043.025-.067v-1.138c0-.026-.002-.052.013-.075.053.118.1.239.143.362" fill="#0095d2"/><path d="M5.271 18.97c.034.013.02.042.02.063v1.165c0 .029-.005.06.022.083a4.489 4.489 0 0 1-.146.369c-.015-.025-.01-.051-.01-.076V19.41c0-.033.001-.067-.025-.093l.14-.346" fill="#0071b0"/><path d="M4.98 19.698c.024.023.02.055.02.084v1.185c0 .025-.003.051.012.075a3.115 3.115 0 0 1-.124.312c-.03-.01-.034-.037-.038-.063-.003-.024-.002-.048-.002-.072v-.962c0-.082-.004-.164.007-.246a4 4 0 0 1 .125-.313" fill="#006bab"/><path d="M5.45 19.937c-.016-.024-.014-.05-.014-.076v-1.178c0-.024.01-.054-.02-.07l.135-.336c.028-.01.03.013.034.03.006.024.004.048.004.072v1.066c0 .052.013.104-.006.155a3.75 3.75 0 0 1-.134.337" fill="#0076b5"/><path d="M5.583 19.6c-.027-.42-.004-.841-.013-1.262 0-.02.015-.05-.02-.061l.145-.36c.018.02.01.044.01.066v1.152c0 .034-.001.068.025.094a4.93 4.93 0 0 1-.147.37" fill="#0078b7"/><path d="M6.11 16.888c.035.01.02.04.02.061v1.124c0 .03-.004.061.025.081a4.518 4.518 0 0 1-.147.37c-.015-.023-.012-.05-.012-.076v-1.154c0-.025.01-.054-.02-.07a3.61 3.61 0 0 1 .133-.336" fill="#0081bf"/><path d="M6.434 17.449c-.02-.018-.012-.042-.012-.063v-1.134c0-.03.004-.06-.025-.081l.144-.36c.027 0 .027.022.03.039.004.022.003.045.003.067v.973c0 .063.007.126.006.19a4.489 4.489 0 0 1-.146.369" fill="#0088c6"/><path d="M4.855 20.012c.019.019.01.042.01.063v1.184a.18.18 0 0 0 .023.096 3.282 3.282 0 0 1-.12.303.214.214 0 0 1-.025-.121l-.001-1.13c0-.024.009-.052-.02-.07.045-.108.078-.221.133-.325" fill="#0069a8"/><path d="M7.409 17.716c.038-.02.032-.058.032-.092v-1.197c.05.113.096.228.136.345a.273.273 0 0 0-.013.098v1.127c0 .023.007.05-.02.065l-.135-.346" fill="#0099d6"/><path d="M7.015 15.343c-.031.016-.021.045-.021.07-.001.385 0 .77-.002 1.155 0 .012.024.046-.02.04-.036-.062-.052-.132-.082-.196-.006-.014-.001-.04-.031-.036-.011-.015-.008-.032-.008-.049.002-.347 0-.695 0-1.043 0-.059.002-.119-.002-.178-.002-.033-.005-.07.042-.076.047.102.088.207.124.313" fill="#0090ce"/><path d="M6.58 17.08a.215.215 0 0 1-.024-.117V15.88c0-.023.01-.05-.015-.068l.112-.28c.034 0 .034.029.04.05.006.029.004.057.004.085v1.027c0 .035-.008.07-.006.105a2.603 2.603 0 0 1-.11.28" fill="#008bc9"/><path d="M.572.03C.543.046.531.067.544.1.55.117.548.14.548.16L.55 1.3c0 .025 0 .051-.01.076a1.409 1.409 0 0 1-.08.198c-.03-.026-.029-.063-.029-.098V.337C.431.324.433.311.428.3L.535.024C.54.014.542-.002.553 0c.015.001.016.02.019.03" fill="#008fcc" mask="url(#b)" transform="translate(6.32 15)"/><path d="M6.748 15.299c.035.01.02.04.02.06v1.1c0 .04.006.078.012.116a1.607 1.607 0 0 1-.089.224c-.02-.018-.011-.042-.011-.063l-.001-1.111c0-.034.002-.067-.026-.093.03-.078.057-.158.095-.233" fill="#008dcb"/><path d="M.486.001c.04-.008.02.024.02.035l.001.515v.436c0 .092.021.091-.089.088C.395 1.05.4 1.02.4.99V.503A2.987 2.987 0 0 0 .392.235C.422.156.447.076.486.001" fill="#0065a5" mask="url(#c)" transform="translate(4.134 20.592)"/><path d="M.442.112c.024.035.026.075.026.115v.725H.356C.334.926.339.896.338.867.337.702.34.537.337.372l.105-.26" fill="#0063a3" mask="url(#d)" transform="translate(4.085 20.715)"/><path d="M.42.307c.02.02.02.046.02.073v.507H.239c-.017 0-.04.008-.045-.02L.42.308" fill="#0060a1" mask="url(#e)" transform="translate(4 20.78)"/><g fill="#000"><path d="m13.473 19.676.877-2.188h.407l-1.284 3.117-1.288-3.117h.406zm2.441-2.189h1.587v.336h-1.218v.947h1.185v.341h-1.185v1h1.218v.335h-1.587zm2.991-.144 2.222 2.329v-2.184h.368v3.08l-2.22-2.33v2.209h-.37zm4.896 3.103h-.369v-2.623h-.76v-.336h1.89v.336h-.76zm3.211-1.106h-1.026l.513-1.171zm-.513-1.98-1.414 3.086h.396l.336-.742h.01l.014-.028h1.316l.014.028h.005l.336.742h.396zm3.733.688c-.112-.187-.252-.28-.476-.28-.233 0-.495.163-.495.42 0 .233.229.354.41.424l.21.084c.42.164.734.397.734.892 0 .536-.416.924-.947.924-.481 0-.854-.355-.915-.831l.373-.08c-.005.327.257.56.574.56.318 0 .546-.265.546-.578 0-.317-.257-.457-.51-.56l-.204-.084c-.336-.145-.644-.336-.644-.751 0-.481.425-.766.873-.766.33 0 .602.159.76.448z"/><path d="M.49.406c.066 0 .174.01.174-.074 0-.061-.07-.07-.127-.07h-.14v.144zm.22.267H.64L.505.458H.398v.215H.346V.201h.206C.678.201.72.248.72.327.72.421.654.453.57.458zM.874.429A.372.372 0 0 0 .5.056a.375.375 0 1 0 0 .751C.71.807.874.639.874.429zm-.803 0a.428.428 0 1 1 .858 0 .428.428 0 1 1-.857 0z" mask="url(#f)" transform="translate(31.253 17.454)"/></g></g></svg>