<svg height="36" viewBox="0 0 36 36" width="36" xmlns="http://www.w3.org/2000/svg"><mask id="a" fill="#fff"><path d="M0 0h6.138v4.448H0z" fill-rule="evenodd"/></mask><g fill="none" fill-rule="evenodd"><path d="M18 0c2.837 0 5.52.656 7.907 1.825C31.884 4.753 36 10.895 36 18c0 9.942-8.058 18-18 18-9.94 0-18-8.057-18-18C0 8.06 8.06 0 18 0z" fill="#f2f4f7" fill-rule="nonzero"/><path d="M30.945 17.558c-.41-.167-.596-.328-.596-.565 0-.162.157-.353.445-.353.277 0 .66.252.7.277.062.04.138 0 .178-.061l.192-.287c.035-.051.02-.136-.03-.167a1.785 1.785 0 0 0-1.01-.338c-.803 0-1.136.52-1.136.969 0 .596.474.899.949 1.09.424.172.64.349.64.606 0 .218-.196.389-.458.389-.33 0-.737-.298-.763-.313-.045-.035-.131-.035-.171.035l-.182.314c-.045.08-.02.106.025.15.1.097.475.395 1.11.395.713 0 1.162-.48 1.162-1 0-.651-.565-.944-1.055-1.141m-2.17-1.444h-.565v3.438a.1.1 0 0 0 .095.096h.566V16.21a.1.1 0 0 0-.096-.096m-2.522 1.611h-.823V16.72h.823c.268 0 .5.222.5.49a.514.514 0 0 1-.5.515zm.41.495c.438-.177.746-.556.746-1.02 0-.601-.494-1.085-1.1-1.085h-1.54v3.437c0 .05.04.096.096.096h.56v-1.383h.56l.672 1.338c.01.02.035.045.081.045h.694zm-7.041.221.495-1.11h.015l.505 1.11zm.626-2.322c-.015-.03-.036-.056-.086-.056h-.05c-.046 0-.071.025-.086.056l-1.63 3.53h.585c.08 0 .126-.052.146-.103l.247-.545h1.51l.247.545c.036.071.07.102.147.102h.585zm3.775-.005h-2.302v.51c0 .05.04.095.096.095h.772v2.833a.1.1 0 0 0 .096.096h.566V16.72h.868v-.509a.095.095 0 0 0-.096-.096m-6.223-.001h-.565v3.438a.1.1 0 0 0 .095.096h.566V16.21a.1.1 0 0 0-.096-.096m-1.855-.017a.093.093 0 0 0-.086.056l-.969 2.171h-.035l-.97-2.17a.092.092 0 0 0-.086-.057h-.66l1.62 3.53a.09.09 0 0 0 .085.054h.051c.046 0 .071-.025.086-.055l1.625-3.529z" fill="#1e1b6a"/><path d="M9.452 19.517c-2.685 2.085-5.346-1.498-4.942-3.503.002-.01-.013-.017-.018-.007a3.9 3.9 0 0 0 1.4 5.242.632.632 0 0 0 .164.068c.51.13 2.222.342 3.41-1.787.006-.01-.006-.019-.014-.013" fill="#71278a"/><path d="M8.527 15.756c3.15 1.283 1.376 5.379-.563 6.032-.01.004-.007.019.003.019a3.9 3.9 0 0 0 3.84-3.834.613.613 0 0 0-.024-.176c-.143-.506-.814-2.095-3.252-2.06-.01 0-.014.015-.004.019" fill="gold"/><path d="M.616 4.436C.153 1.068 4.586.556 6.122 1.908c.008.007.02-.004.015-.013A3.903 3.903 0 0 0 .896.487a.593.593 0 0 0-.14.11C.389.971-.652 2.347.598 4.441c.006.01.019.004.018-.006" fill="#1e1b6a" mask="url(#a)" transform="translate(5.116 14)"/><path d="M9.55 17.98a1.657 1.657 0 0 1-.173.663H8.76c.047-.204.076-.427.082-.662v-.021h.708zm-.265.822a1.646 1.646 0 0 1-.91.68c-.007.003-.012-.004-.008-.01a1.712 1.712 0 0 0 .35-.67zm-1.293.743c-.005 0-.01-.003-.01-.008v-.735h.575c-.123.404-.328.686-.565.743zm-.167-.722v.714a.008.008 0 0 1-.01.008c-.237-.057-.442-.34-.566-.743h.576zm-1.304-.021h.568l.006.02c.083.27.202.496.344.65.005.006 0 .013-.007.01a1.649 1.649 0 0 1-.91-.68zm-.264-.821v-.021h.708v.02c.005.236.034.459.082.663H6.43a1.64 1.64 0 0 1-.173-.662zm.185-.842.012-.02h.604l-.006.02a3.251 3.251 0 0 0-.086.662h-.708c.015-.237.08-.462.184-.662zm.997-.805c-.138.15-.253.367-.336.626h-.552c.211-.302.52-.53.881-.637.007-.002.012.006.007.01zm.386-.064v.69h-.56c.124-.38.322-.644.55-.698.005-.002.01.003.01.008zm.167-.008c.228.054.426.318.551.698h-.562v-.69c0-.005.006-.01.011-.008zm1.263.698h-.55a1.707 1.707 0 0 0-.337-.626c-.005-.005 0-.013.006-.011.361.108.67.335.881.637zm-.666.159.005.02c.05.2.08.425.087.662h-.7v-.682zm-1.377.02.005-.02h.608v.682h-.699c.007-.237.037-.462.086-.662zm-.005 1.504a3.154 3.154 0 0 1-.082-.662v-.021h.7v.683zm1.475-.662a3.222 3.222 0 0 1-.082.662h-.619v-.683h.701zm.682-.842c.105.2.17.425.184.662h-.707a3.25 3.25 0 0 0-.087-.662c0-.007-.003-.013-.005-.02h.604l.011.02zm.176 0-.01-.02a1.766 1.766 0 0 0-.087-.16 1.805 1.805 0 0 0-3.079 0l-.015.024c-.026.044-.049.09-.072.136l-.01.02a1.795 1.795 0 0 0-.169.764c0 .264.056.514.158.74l.011.025c.021.045.045.09.07.134l.012.02a1.805 1.805 0 0 0 3.108 0c.005-.006.008-.013.012-.02.025-.044.05-.09.071-.134l.01-.025a1.81 1.81 0 0 0-.01-1.504z" fill="#1e1b6a"/></g></svg>