<svg width="36" height="36" fill="none" xmlns="http://www.w3.org/2000/svg"><path d="M18 0c2.837 0 5.52.656 7.907 1.825C31.884 4.753 36 10.895 36 18c0 9.942-8.058 18-18 18-9.94 0-18-8.057-18-18C0 8.06 8.06 0 18 0z" fill="#F2F4F7"/><path d="M18.3 30.672c-.107.18-.323.251-.502.143a.28.28 0 0 1-.143-.143 24.978 24.978 0 0 1-.862-1.508.435.435 0 0 1 .072-.538c2.153-3.768 4.342-7.572 6.532-11.305.897-1.507 1.758-3.05 2.655-4.557.108-.18.036-.395-.143-.503-.072-.036-.108-.036-.18-.036H13.85c-.394.036-.79-.18-.933-.538-.359-.574-.502-.825-.646-1.077-.107-.18-.072-.394.108-.502a.51.51 0 0 1 .215-.072h17.047c.215 0 .359.144.359.359 0 .072 0 .144-.036.18a2087.588 2087.588 0 0 0-11.663 20.097z" fill="#46C1BE"/><path d="M15.537 22.381c.108.216.359.252.574.144a.28.28 0 0 0 .144-.144c.43-.753.825-1.435 1.22-2.117 1.005-1.758 2.046-3.517 3.05-5.311a.729.729 0 0 1 .718-.36h1.4c.251 0 .43.216.43.431a.51.51 0 0 1-.071.216l-6.747 11.663c-.108.216-.359.252-.574.144a.28.28 0 0 1-.144-.144L6.063 10.574a.386.386 0 0 1 .071-.502.519.519 0 0 1 .252-.072h1.758c.18 0 .323.108.395.251 1.687 2.943 3.373 5.85 5.06 8.793a190.26 190.26 0 0 0 1.938 3.337z" fill="#004A73"/></svg>