<svg height="36" viewBox="0 0 36 36" width="36" xmlns="http://www.w3.org/2000/svg"><mask id="a" fill="#fff"><path d="M0 0h5.583v5.03H0z" fill-rule="evenodd"/></mask><g fill="none" fill-rule="evenodd"><path d="M18 0c2.837 0 5.52.656 7.907 1.825C31.884 4.753 36 10.895 36 18c0 9.942-8.058 18-18 18-9.94 0-18-8.057-18-18C0 8.06 8.06 0 18 0z" fill="#f2f4f7" fill-rule="nonzero"/><g fill="#004a88"><path d="M28.368 16.903c.042-.167.148-.246.333-.246h2.308l.162-.649h-3.174c-.631 0-1.025.352-1.216 1.114l-.116.465c-.19.763.027 1.123.659 1.123h1.327c.2 0 .298.104.256.271l-.066.262c-.041.167-.19.273-.391.273h-2.238l-.162.648h3.042c.702 0 1.129-.306 1.282-.92l.223-.894c.154-.614-.121-.92-.823-.92h-1.265c-.184 0-.252-.079-.21-.246zm-12.783 0c.042-.167.149-.246.333-.246h2.308l.161-.649h-3.173c-.631 0-1.025.352-1.215 1.114l-.118.465c-.19.763.028 1.123.659 1.123h1.328c.201 0 .298.104.256.271l-.065.262c-.042.167-.191.273-.392.273h-2.238l-.162.648h3.042c.701 0 1.129-.306 1.282-.92l.223-.894c.154-.614-.12-.92-.822-.92h-1.266c-.185 0-.253-.079-.21-.246zm4.283 2.192.608-2.438h.871l.162-.648h-.87l.25-1.009-1.785.874-.778 3.124c-.202.807.094 1.166.71 1.166h1.587l.161-.648h-.644c-.27 0-.357-.079-.272-.421"/><path d="M2.415 5.03 5.583 0h-.855L2.294 4.004h-.008L1.784 0H0l.7 5.03z" mask="url(#a)" transform="translate(4 15.134)"/><path d="M12.585 16.009h-2.29c-.702 0-1.12.342-1.31 1.104L8.5 19.06c-.19.763.057 1.105.758 1.105h3.325l.162-.65h-2.467c-.202 0-.298-.104-.257-.271l.142-.57h2.792l.388-1.561c.19-.762-.058-1.104-.759-1.104m-.762.92-.273 1.096h-1.224l.266-1.07c.054-.218.136-.297.337-.297h.637c.203 0 .3.105.257.272m13.545-.921h-3.182l-.162.649h2.325c.202 0 .3.105.257.272l-.125.5h-1.739c-.7 0-1.129.307-1.282.92l-.224.894c-.153.614.122.92.823.92h3.307l.762-3.051c.19-.762-.058-1.104-.76-1.104zm-1.407 3.507h-.9c-.2 0-.298-.105-.256-.272l.223-.893c.041-.167.191-.272.392-.272h.9zm7.416.648a.625.625 0 0 1-.624-.629.625.625 0 1 1 1.248 0 .625.625 0 0 1-.624.63m0-1.184a.545.545 0 0 0-.542.554c0 .307.238.553.542.553s.543-.246.543-.553a.546.546 0 0 0-.543-.554m.121.618.122.266h-.092l-.112-.25h-.165v.25h-.08v-.668h.233c.148 0 .223.101.223.211a.198.198 0 0 1-.129.191m-.094-.32h-.153v.254h.152c.101 0 .142-.064.142-.127 0-.062-.039-.128-.141-.128"/></g></g></svg>