<svg height="36" viewBox="0 0 36 36" width="36" xmlns="http://www.w3.org/2000/svg"><mask id="a" fill="#fff"><path d="M0 0h28v5.952H0z" fill-rule="evenodd"/></mask><g fill="none" fill-rule="evenodd"><path d="M18 0c2.837 0 5.52.656 7.907 1.825C31.884 4.753 36 10.895 36 18c0 9.942-8.058 18-18 18-9.94 0-18-8.057-18-18C0 8.06 8.06 0 18 0z" fill="#f2f4f7" fill-rule="nonzero"/><path d="M11.127 1.449h1.19V.414h-1.19zm0 4.4h1.19V1.967h-1.19zM3.882 3.882c0-1.139.828-2.019 1.967-2.019.517 0 .983.155 1.293.466.466.414.673 1.087.673 1.915H5.02c.052.518.363.88.88.88.311 0 .57-.155.673-.414h1.139c-.052.31-.311.673-.621.88a2.164 2.164 0 0 1-1.191.362c-1.242 0-2.018-.932-2.018-2.07zm2.743-.414c-.052-.466-.311-.777-.776-.777-.518 0-.725.311-.829.777zm9.73.414c0-1.139.828-2.019 2.07-2.019s2.071.88 2.071 2.019c0 1.138-.829 2.07-2.071 2.07s-2.07-.932-2.07-2.07zm2.898 0c0-.725-.31-1.191-.88-1.191-.569 0-.879.466-.879 1.191 0 .724.31 1.19.879 1.19.57 0 .88-.466.88-1.19zm-6.418 1.915h3.313v-.932h-1.967c.155-.155.414-.31.621-.569l1.294-1.449v-.932h-3.209v.983h1.863c-.103.104-.258.207-.569.518l-1.346 1.501zm-11.489 0h1.242l1.346-3.882H2.743l-.518 1.76c-.103.362-.207 1.035-.207 1.035s-.103-.673-.207-1.035l-.517-1.76H0zm19.512 0h1.19V3.623c0-.466.259-.828.725-.828.414 0 .621.31.621.673v2.277h1.19V3.209c0-.828-.518-1.449-1.345-1.449-.518 0-.88.207-1.191.621v-.518H20.91v3.934zM8.229 1.967h1.139v.621c.259-.466.569-.673 1.035-.673.103 0 .207 0 .259.052v1.035c-.725-.104-1.242.259-1.242 1.087v1.759H8.229z" fill="#000" mask="url(#a)" transform="translate(4 15)"/><path d="M24.687 1.967h.57l.62 1.294L27.378 0H28l-1.812 3.882h-.62z" fill="#e00" mask="url(#a)" transform="translate(4 15)"/></g></svg>