<svg width="36" height="36" fill="none" xmlns="http://www.w3.org/2000/svg"><path d="M18 0c2.837 0 5.52.656 7.907 1.825C31.884 4.753 36 10.895 36 18c0 9.942-8.058 18-18 18-9.94 0-18-8.057-18-18C0 8.06 8.06 0 18 0z" fill="#F2F4F7"/><path d="M13.828 16.483h-1.233a.202.202 0 0 0-.203.202v.274c.003.072.063.13.136.13h.203c.006 0 .01.002.015.009.004.006.006.015.004.021l-.483 1.436c-.004.009-.012.015-.023.013-.009 0-.018-.006-.02-.013l-.722-1.945v-.002a.134.134 0 0 0-.116-.084h-.435a.144.144 0 0 0-.119.084v.002l-.722 1.945a.02.02 0 0 1-.02.015.025.025 0 0 1-.023-.013l-.482-1.438c-.003-.006 0-.015.004-.021.004-.005.008-.009.015-.009h.202a.135.135 0 0 0 .136-.13v-.274a.202.202 0 0 0-.202-.202H8.507a.14.14 0 0 0-.11.056.126.126 0 0 0-.02.113c.018.05.04.11.059.172.02.062.04.12.06.173.018.054.067.09.125.092h.207c.01 0 .022.007.024.017l.959 2.798a.132.132 0 0 0 .125.092h.297a.133.133 0 0 0 .125-.086c.263-.758.767-2.2.787-2.25a.025.025 0 0 1 .023-.019c.011 0 .022.007.024.018.02.05.524 1.494.787 2.249a.138.138 0 0 0 .125.088h.297a.132.132 0 0 0 .125-.092l.957-2.798c.008-.017.02-.017.024-.017h.206a.134.134 0 0 0 .125-.09c.02-.053.04-.115.06-.173.022-.058.044-.122.061-.171a.126.126 0 0 0-.02-.114.14.14 0 0 0-.111-.058zm14.429 2.948h-.224a.063.063 0 0 1-.063-.065V16.61c0-.05-.04-.09-.092-.088h-.655a.091.091 0 0 0-.072.034l-.271.336a.092.092 0 0 0 .015.129.088.088 0 0 0 .052.019h.084a.07.07 0 0 1 .064.064v2.258a.092.092 0 0 1-.017.052c-.07.092-.228.286-.306.383a.089.089 0 0 0 .009.128.1.1 0 0 0 .058.024h1.142a.076.076 0 0 0 .065-.026l.267-.332c.062-.073.02-.16-.056-.16zm-.728-3.281a.49.49 0 0 0 .49-.489.49.49 0 0 0-.49-.488.49.49 0 0 0-.492.488c0 .27.22.488.492.488zm4.322.656c0-.047-.026-.092-.088-.092h-.114v.298h.043v-.11h.039l.075.11h.05l-.08-.114c.056-.004.075-.049.075-.092zm-.16.054v-.11h.076a.05.05 0 0 1 .048.052v.004a.049.049 0 0 1-.043.054h-.08z" fill="#7F187F"/><path d="M31.741 16.605a.259.259 0 0 0-.258.257.259.259 0 0 0 .517 0 .257.257 0 0 0-.259-.257zm0 .476a.218.218 0 0 1-.22-.217v-.002a.215.215 0 0 1 .212-.218h.008c.121 0 .22.098.22.218s-.097.219-.22.219zm-14.694 2.363c-.19.008-.284-.08-.284-.296v-1.547c0-.677-.572-1.107-1.216-1.107-1 0-1.36.47-1.4.997a.091.091 0 0 0 .086.097h.497a.09.09 0 0 0 .089-.084c.026-.274.211-.475.521-.475.343 0 .55.174.55.563v.336h-.179c-.614 0-1.037.08-1.321.257-.285.178-.427.505-.427.888 0 .283.097.514.293.698.197.184.425.265.724.265.18 0 .356-.04.518-.117.16-.071.306-.165.435-.279a.065.065 0 0 1 .09.002c.005.005.009.01.011.015.14.244.293.324.584.324.263 0 .39-.244.504-.392.044-.058-.004-.15-.075-.145zm-1.153-.249h-.004c0 .022-.035.052-.048.064-.08.067-.168.125-.263.17a.658.658 0 0 1-.271.05.491.491 0 0 1-.36-.147.522.522 0 0 1-.136-.362c0-.2.076-.336.229-.436.153-.1.403-.148.702-.148h.149l.002.81zm10.52.248c-.19.009-.284-.079-.284-.295v-1.547c0-.677-.571-1.107-1.215-1.107-1 0-1.36.47-1.401.997a.091.091 0 0 0 .086.097h.498a.09.09 0 0 0 .088-.084c.026-.274.211-.475.522-.475.342 0 .55.174.55.563v.336h-.177c-.615 0-1.04.08-1.321.257-.285.178-.43.505-.43.888 0 .283.098.514.294.698.196.184.424.265.724.265.179 0 .355-.04.517-.117.16-.071.306-.165.435-.279a.065.065 0 0 1 .09.002c.005.005.01.01.012.015.14.244.293.324.584.324.262 0 .39-.244.504-.392.043-.058-.004-.15-.075-.145zm-1.15-.248h-.005c0 .022-.034.052-.047.064-.08.067-.168.125-.263.17a.658.658 0 0 1-.271.05.491.491 0 0 1-.36-.147.522.522 0 0 1-.136-.362c0-.2.075-.336.228-.436.153-.1.403-.148.703-.148h.149v.81h.002zm5.794-2.686a.735.735 0 0 0-.258-.034.989.989 0 0 0-.397.068l-.008.005a.655.655 0 0 0-.119.068c-.14.086-.263.193-.37.317 0 0-.048.036-.057-.024v-.31a.09.09 0 0 0-.09-.09h-.655a.08.08 0 0 0-.067.032s-.207.255-.274.343c-.04.05-.015.147.071.147h.082c.035 0 .065.03.065.064v2.27a.09.09 0 0 1-.015.05c-.065.08-.229.285-.308.386a.092.092 0 0 0 .017.128c.015.013.034.02.054.02h1.416a.09.09 0 0 0 .09-.09v-.34a.09.09 0 0 0-.09-.09h-.224a.063.063 0 0 1-.065-.065v-1.32c.026-.628.403-.82.584-.876l.026-.008.006-.003c.05-.012.1-.019.151-.019.215 0 .295.032.414.062.05.013.09-.04.09-.09v-.513c-.004-.04-.036-.073-.069-.088zm-7.7.01h-1.025a.066.066 0 0 1-.065-.063v-.503c0-.244.127-.489.39-.489.298 0 .343.249.356.437.002.047.04.086.088.088h.425a.087.087 0 0 0 .084-.09c-.009-.63-.412-.899-1.058-.899-.395 0-.653.122-.847.357-.194.236-.293.5-.293.97v.126a.062.062 0 0 1-.063.062l-1.752.005a.088.088 0 0 0-.092.087v.343c0 .051.043.092.092.092h.188a.065.065 0 0 1 .06.088s-.482 1.115-.676 1.56a.066.066 0 0 1-.084.034.076.076 0 0 1-.035-.034l-.685-1.56a.065.065 0 0 1 .034-.084.08.08 0 0 1 .024-.004h.131c.052 0 .093-.04.093-.092v-.34c0-.05-.04-.09-.093-.088H16.97a.09.09 0 0 0-.09.094c0 .015.004.028.01.04.048.084.154.283.184.341a.094.094 0 0 0 .075.047h.306c.026 0 .05.015.06.039 0 0 1.128 2.512 1.169 2.6a.476.476 0 0 1-.003.35c-.051.204-.398.573-.59.506-.131-.045-.149-.282-.306-.312a.15.15 0 0 0-.086.01c-.028.011-.285.339-.34.397a.1.1 0 0 0 0 .122c.14.143.374.336.715.348.418.018.83-.038 1.21-.757 0 0 1.214-2.946 1.358-3.262a.069.069 0 0 1 .06-.035h.64c.035 0 .065.028.065.063v2.262c0 .02-.006.036-.017.051-.075.097-.228.287-.306.384a.088.088 0 0 0 .013.126.083.083 0 0 0 .058.019h1.431c.052 0 .093-.04.093-.092v-.336a.092.092 0 0 0-.093-.092h-.245a.063.063 0 0 1-.063-.064v-2.267c0-.034.028-.062.063-.062h.756a.091.091 0 0 0 .071-.034c.065-.084.194-.253.263-.34a.092.092 0 0 0-.017-.13.096.096 0 0 0-.054-.018z" fill="#7F187F"/><path d="m7.914 17.61-.247-.925a.09.09 0 0 0-.065-.065l-.93-.246a.086.086 0 0 0-.087.024l-.625.62 1.308 1.3.625-.621a.094.094 0 0 0 .021-.088z" fill="#82D170"/><path d="m4.003 19.024.248.924a.09.09 0 0 0 .065.065l.933.246c.03.008.064 0 .086-.024l.625-.62-1.306-1.3-.625.621a.095.095 0 0 0-.026.088z" fill="#F8CF1C"/><path d="m5.247 16.374-.931.246a.09.09 0 0 0-.065.064l-.248.925c-.008.03 0 .064.024.086l.625.62 1.306-1.297-.625-.62a.086.086 0 0 0-.086-.024z" fill="#C6D636"/><path d="m7.882 18.928-.616-.613-1.306 1.297.616.613a.117.117 0 0 0 .108.03l.907-.24a.114.114 0 0 0 .08-.08l.241-.9a.115.115 0 0 0-.03-.107z" fill="#D57DEA"/><path d="m5.96 17.018-1.306 1.297 1.306 1.297 1.308-1.297-1.308-1.297z" fill="#7F187F"/><path d="m7.914 17.61-.247-.925a.09.09 0 0 0-.065-.065l-.93-.246a.086.086 0 0 0-.087.024l-.625.62 1.308 1.3.625-.621a.094.094 0 0 0 .021-.088z" fill="#82D170"/><path d="m4.003 19.024.248.924a.09.09 0 0 0 .065.065l.933.246c.03.008.064 0 .086-.024l.625-.62-1.306-1.3-.625.621a.095.095 0 0 0-.026.088z" fill="#F8CF1C"/><path d="m5.247 16.374-.931.246a.09.09 0 0 0-.065.064l-.248.925c-.008.03 0 .064.024.086l.625.62 1.306-1.297-.625-.62a.086.086 0 0 0-.086-.024z" fill="#C6D636"/><path d="m7.882 18.928-.616-.613-1.306 1.297.616.613a.117.117 0 0 0 .108.03l.907-.24a.114.114 0 0 0 .08-.08l.241-.9a.115.115 0 0 0-.03-.107z" fill="#D57DEA"/><path d="m5.96 17.018-1.306 1.297 1.306 1.297 1.308-1.297-1.308-1.297z" fill="#7F187F"/></svg>