<svg width="36" height="36" fill="none" xmlns="http://www.w3.org/2000/svg"><path d="M18 0c2.837 0 5.52.656 7.907 1.825C31.884 4.753 36 10.895 36 18c0 9.942-8.058 18-18 18-9.94 0-18-8.057-18-18C0 8.06 8.06 0 18 0z" fill="#F2F4F7"/><path fill-rule="evenodd" clip-rule="evenodd" d="M4 14.28h.736l1.927 5.706L8.743 14l2.156 5.935 1.851-5.656h.736l-2.587 7.33-2.156-5.986-2.08 5.986L4 14.279zm12.707 6.34c-.305.634-.888.989-1.649.989-1.37 0-2.257-.939-2.257-2.334 0-1.394.913-2.358 2.181-2.358.786 0 1.395.33 1.725.964v-.787h.634v4.312h-.634v-.786zm-1.598.43c.938 0 1.598-.658 1.598-1.876 0-1.065-.634-1.7-1.573-1.7-.964 0-1.598.66-1.598 1.827 0 1.116.558 1.75 1.573 1.75zm2.942-3.448v-.508h.862V15.32h.66v1.775h.938v.508h-.939v3.804h-.66v-3.804h-.861zm3.398 1.674c.026 1.116.685 1.775 1.624 1.775.71 0 1.192-.33 1.547-1.014l.608.278c-.482.888-1.14 1.294-2.155 1.294-1.395 0-2.334-.964-2.334-2.308 0-1.446.964-2.384 2.308-2.384 1.268 0 2.156.862 2.156 2.206v.152H21.45zm1.497-1.776c-.761 0-1.37.507-1.446 1.268h2.917c-.051-.811-.584-1.268-1.471-1.268zm5.148-.583c.178 0 .356.05.558.101l-.228.558c-.152-.05-.304-.05-.43-.05-.736 0-1.421.684-1.421 1.75v2.13h-.66v-4.312h.66v.863c.456-.71.862-1.04 1.521-1.04zm1.167 3.398c.228.482.609.736 1.167.736s.888-.304.888-.71c0-.609-.559-.685-1.32-.964-.76-.304-1.115-.66-1.115-1.192 0-.735.608-1.268 1.522-1.268.76 0 1.293.304 1.547.887l-.584.305c-.152-.406-.507-.634-1.014-.634-.457 0-.787.279-.787.634 0 .43.38.609 1.116.837.862.253 1.319.532 1.319 1.344 0 .76-.634 1.319-1.7 1.319-.811 0-1.42-.38-1.648-.964l.61-.33z" fill="#000"/></svg>