<svg width="36" height="36" fill="none" xmlns="http://www.w3.org/2000/svg"><path d="M18 0c2.837 0 5.52.656 7.907 1.825C31.884 4.753 36 10.895 36 18c0 9.942-8.058 18-18 18-9.94 0-18-8.057-18-18C0 8.06 8.06 0 18 0z" fill="#F2F4F7"/><path d="M6.912 21.484c0 3.028 3.943 5.481 8.804 5.481 4.861 0 8.804-2.453 8.804-5.481s-3.943-5.482-8.804-5.482c-4.861 0-8.804 2.454-8.804 5.482z" fill="#fff"/><path d="M15.924 26.52c-4.305.428-8.022-1.52-8.302-4.344-.28-2.826 2.985-5.46 7.287-5.887 4.305-.427 8.021 1.521 8.298 4.345.283 2.827-2.982 5.464-7.283 5.887zm8.607-9.38c-.366-.112-.618-.183-.427-.664.416-1.044.459-1.945.007-2.59-.843-1.206-3.154-1.141-5.801-.033 0 0-.833.363-.617-.294.405-1.31.344-2.403-.287-3.038-1.435-1.439-5.256.053-8.531 3.329C6.425 16.3 5 18.9 5 21.15c0 4.298 5.514 6.914 10.906 6.914 7.071 0 11.774-4.108 11.774-7.37.004-1.972-1.657-3.092-3.15-3.554z" fill="#E6162D"/><path d="M29.227 9.272a6.876 6.876 0 0 0-6.551-2.12.995.995 0 0 0 .416 1.944 4.89 4.89 0 0 1 4.657 1.507 4.89 4.89 0 0 1 1.022 4.786.995.995 0 0 0 1.894.613v-.004a6.866 6.866 0 0 0-1.438-6.726z" fill="#F93"/><path d="M26.604 11.64a3.342 3.342 0 0 0-3.19-1.03.86.86 0 0 0-.66 1.019.855.855 0 0 0 1.016.656 1.637 1.637 0 0 1 1.901 2.106.859.859 0 0 0 1.632.527 3.35 3.35 0 0 0-.699-3.278z" fill="#F93"/><path d="M16.16 21.405c-.15.258-.483.38-.742.272-.258-.104-.337-.394-.19-.645.15-.251.47-.373.725-.273.258.093.351.384.208.646zm-1.373 1.758c-.416.663-1.31.954-1.98.65-.66-.302-.858-1.073-.442-1.723.413-.646 1.274-.933 1.941-.653.675.29.89 1.055.48 1.726zm1.564-4.7c-2.049-.534-4.362.488-5.252 2.293-.908 1.84-.029 3.885 2.037 4.552 2.146.692 4.671-.37 5.55-2.353.869-1.945-.215-3.943-2.335-4.492z" fill="#000"/></svg>