<svg width="36" height="36" fill="none" xmlns="http://www.w3.org/2000/svg"><path d="M18 0c2.837 0 5.52.656 7.907 1.825C31.884 4.753 36 10.895 36 18c0 9.942-8.058 18-18 18-9.94 0-18-8.057-18-18C0 8.06 8.06 0 18 0z" fill="#F2F4F7"/><path d="m7.725 18.83-1.033-3.203c-.146-.489-.395-.627-.773-.627H4c.15.062.25.45.25.45l.927 3.217c.107.404.441.617.82.617H8.03c-.146-.027-.306-.453-.306-.453zm3.064 0 1.033-3.203c.146-.489.394-.627.772-.627h1.92c-.151.062-.251.45-.251.45l-.927 3.217c-.107.404-.44.617-.82.617h-2.033c.146-.027.306-.453.306-.453zm-.399-3.805H8.132v4.259h2.258v-4.259z" fill="#ED1A3A"/><path d="M15.308 17.105a.55.55 0 0 1 .422-.178.5.5 0 0 1 .385.162c.1.108.15.287.15.537H15.1c.028-.228.097-.402.207-.52zm1.83 1.572c-.37.109-.702.163-.998.163-.23 0-.413-.031-.55-.094a.824.824 0 0 1-.325-.255.882.882 0 0 1-.15-.441h2.035c-.007-.613-.136-1.031-.386-1.256-.25-.225-.585-.338-1.004-.338-.342 0-.63.064-.863.19-.234.127-.411.3-.533.52a1.45 1.45 0 0 0-.184.715c0 .28.072.539.216.776.144.237.35.411.617.524.267.112.579.169.934.169.376 0 .773-.053 1.192-.157v-.516zm.352.522v-.548c.44.152.816.228 1.127.228.166 0 .299-.03.397-.088.1-.058.149-.133.149-.222 0-.08-.037-.146-.111-.2a1.356 1.356 0 0 0-.339-.152l-.3-.102c-.31-.103-.54-.218-.688-.346a.602.602 0 0 1-.221-.486c0-.239.111-.436.335-.592.224-.156.565-.235 1.024-.235.269 0 .588.034.96.099v.515a3.568 3.568 0 0 0-.89-.143c-.185 0-.323.026-.416.079-.092.052-.139.12-.139.204 0 .066.03.124.09.176.059.05.165.098.319.146l.258.083c.425.137.704.27.837.397.13.129.195.283.195.461 0 .233-.12.437-.358.613-.24.176-.586.264-1.042.264a4.87 4.87 0 0 1-1.186-.151zm4.753.074a2.217 2.217 0 0 1-.5.079c-.29 0-.514-.035-.674-.105a.81.81 0 0 1-.36-.282c-.079-.118-.119-.292-.119-.52v-1.457h-.366v-.47h.366v-.47l.888-.088v.557h.706v.47h-.706v1.355c0 .199.042.333.126.403.083.07.206.104.367.104.076 0 .166-.011.272-.033v.457zm1.312-1.802c.11-.13.228-.232.356-.308a.748.748 0 0 1 .381-.112c.203 0 .36.075.47.225.11.15.165.355.165.616 0 .252-.058.477-.173.673a.569.569 0 0 1-.526.295.882.882 0 0 1-.328-.064 1.131 1.131 0 0 1-.345-.238V17.47zm0 2.819v-1.291c.12.102.226.174.317.218a1.353 1.353 0 0 0 .61.133c.439 0 .781-.146 1.025-.436.245-.291.367-.653.367-1.087 0-.41-.11-.74-.328-.993-.22-.252-.529-.378-.929-.378-.24 0-.45.05-.627.149-.177.1-.322.248-.435.446v-.536h-.887v3.775h.887zm4.098-1.514a.843.843 0 0 1-.314.064.474.474 0 0 1-.301-.1.316.316 0 0 1-.128-.262c0-.129.07-.235.21-.32.142-.085.357-.128.645-.128h.209v.558a1.333 1.333 0 0 1-.32.188zm.362.214a.508.508 0 0 0 .275.29c.119.046.26.07.424.07.146 0 .313-.025.5-.073l-.012-.42a.997.997 0 0 1-.122.01.326.326 0 0 1-.166-.05c-.057-.033-.084-.125-.084-.276v-1.223c0-.23-.058-.404-.173-.52a1.04 1.04 0 0 0-.46-.258 2.336 2.336 0 0 0-.655-.084c-.398 0-.798.065-1.2.193v.517a2.46 2.46 0 0 1 1.04-.246c.17 0 .313.03.424.088.112.058.168.172.168.342v.25h-.237c-.592 0-1.021.09-1.286.272-.265.182-.397.41-.397.681 0 .223.089.411.265.566.177.154.413.23.707.23a1.35 1.35 0 0 0 .617-.137c.094-.045.206-.119.333-.222h.04zm3.985.235a4.61 4.61 0 0 1-1.018.125c-.558 0-.977-.14-1.258-.42a1.398 1.398 0 0 1-.421-1.032c0-.425.148-.772.445-1.04.297-.268.733-.402 1.31-.402.264 0 .57.038.916.112v.541c-.357-.1-.642-.15-.854-.15-.301 0-.522.098-.661.293-.14.195-.21.409-.21.642 0 .18.04.348.121.505a.75.75 0 0 0 .337.34c.144.072.306.107.487.107.261 0 .53-.045.806-.137v.516z" fill="#405661"/></svg>