<svg width="36" height="36" fill="none" xmlns="http://www.w3.org/2000/svg"><path d="M18 0c2.837 0 5.52.656 7.907 1.825C31.884 4.753 36 10.895 36 18c0 9.942-8.058 18-18 18-9.94 0-18-8.057-18-18C0 8.06 8.06 0 18 0z" fill="#F2F4F7"/><path d="M18 4a14 14 0 1 0 14 13.998A14.014 14.014 0 0 0 18 4zm0 26.93a12.931 12.931 0 1 1 12.933-12.928A12.947 12.947 0 0 1 18 30.927v.004z" fill="#002D82"/><path d="m26.97 16.409 2.408-4.168h-3.876c-.7 0-.906.408-1.238 1.02l-1.81 3.148h4.517zm-9.264 4.317-4.305-7.461c-.332-.612-.538-1.02-1.238-1.02H8.286l7.16 12.396 2.26-3.915zm6.757 0-4.302-7.461c-.333-.612-.539-1.02-1.239-1.02h-3.876l7.159 12.396 2.258-3.915z" fill="#FFD100"/></svg>