<svg width="36" height="36" fill="none" xmlns="http://www.w3.org/2000/svg"><path d="M18 0c2.837 0 5.52.656 7.907 1.825C31.884 4.753 36 10.895 36 18c0 9.942-8.058 18-18 18-9.94 0-18-8.057-18-18C0 8.06 8.06 0 18 0z" fill="#F2F4F7"/><path d="M5.008 22.895c-.012-.012-.01-.04.005-.048a3.401 3.401 0 0 0 .436 0c.018.006.016.034.004.048l-.046.005c-.043.004-.066.016-.066.034 0 .024.041.126.104.268.112.25.23.501.346.748.049-.1.103-.213.155-.325a.36.36 0 0 0 .032-.082.164.164 0 0 0-.016-.052c-.07-.16-.144-.32-.22-.481-.03-.062-.06-.104-.129-.11l-.048-.005c-.014-.016-.012-.04.004-.048a3.303 3.303 0 0 0 .435 0c.014.006.016.032.004.048l-.052.005c-.078.006-.08.02-.042.11.042.098.098.224.154.348a3.86 3.86 0 0 0 .119-.262c.072-.17.062-.192-.002-.197l-.06-.004c-.014-.02-.01-.042.004-.048a3.01 3.01 0 0 0 .38 0c.015.006.017.032.005.048l-.058.005c-.084.006-.12.096-.164.178a4.652 4.652 0 0 0-.157.319.17.17 0 0 0-.018.048c0 .008.004.024.014.048.068.154.139.304.205.457a30.105 30.105 0 0 0 .34-.822c.026-.072.06-.158.06-.182 0-.029-.024-.045-.066-.047l-.058-.004c-.016-.018-.014-.04.002-.048a3.244 3.244 0 0 0 .379 0c.016.006.018.032.004.048l-.038.005c-.1.01-.118.07-.238.348l-.147.339c-.088.204-.168.4-.25.615-.006.005-.014.006-.024.006a.071.071 0 0 1-.028-.006c-.064-.178-.18-.429-.243-.569a6.142 6.142 0 0 0-.25.57c-.006.004-.014.005-.024.005a.09.09 0 0 1-.03-.006 13.758 13.758 0 0 0-.139-.323c-.128-.278-.252-.556-.382-.835-.038-.082-.063-.136-.147-.145l-.05-.004zm2.332.799c-.012.035-.01.036.031.036h.185c.044 0 .047-.006.033-.047l-.081-.245a.931.931 0 0 0-.034-.094H7.47a.787.787 0 0 0-.036.088l-.095.262zm.298.134c-.011-.034-.017-.038-.062-.038h-.227c-.038 0-.047.004-.057.036l-.053.158a.588.588 0 0 0-.033.125c0 .018.008.026.044.03l.05.004c.01.008.01.031-.004.037l-.156-.004c-.05 0-.104.003-.145.004-.009-.005-.012-.03-.003-.037l.05-.004c.036-.004.069-.02.09-.074.027-.07.069-.167.132-.335l.153-.406c.021-.054.03-.083.026-.107a.167.167 0 0 0 .078-.057c.01 0 .02.003.023.013.02.067.043.136.066.202l.206.604c.044.13.063.152.128.16l.04.004c.01.008.008.031 0 .037a3.753 3.753 0 0 0-.182-.004c-.072 0-.129.003-.173.004-.012-.005-.013-.03-.002-.037l.043-.004c.032-.004.053-.012.053-.027a.306.306 0 0 0-.02-.08l-.066-.204zm.862.372a.47.47 0 0 1-.235-.056.692.692 0 0 1-.04-.21c.007-.01.03-.013.035-.004.023.076.084.224.259.224.126 0 .188-.083.188-.173 0-.066-.014-.14-.124-.21l-.142-.094c-.076-.05-.163-.135-.163-.258 0-.143.112-.259.307-.259.046 0 .1.009.14.02.02.005.04.009.052.009.014.036.027.12.027.183-.006.01-.03.014-.037.004-.02-.072-.06-.17-.205-.17-.147 0-.178.098-.178.167 0 .087.072.15.127.185l.12.076c.095.058.188.145.188.288 0 .165-.124.278-.32.278m1.151-.25c0 .158.003.18.09.189l.048.004c.009.005.006.033-.003.037a5.696 5.696 0 0 0-.406 0c-.009-.004-.012-.03 0-.037l.054-.005c.086-.007.094-.03.094-.188v-.671c0-.047 0-.049-.045-.049h-.083c-.065 0-.147.004-.185.038a.274.274 0 0 0-.068.104c-.012.009-.033.001-.039-.01a1.57 1.57 0 0 0 .057-.225c.004-.003.024-.004.029 0 .009.048.059.047.128.047h.608c.082 0 .095-.003.118-.042.007-.004.023-.002.027.004a.903.903 0 0 0-.023.229c-.006.012-.032.012-.039.002-.004-.037-.015-.093-.038-.11-.034-.025-.091-.037-.174-.037h-.107c-.045 0-.043.001-.043.051v.67zm.831-.54c0-.157-.003-.18-.091-.19l-.024-.003c-.01-.005-.007-.033.002-.037.065.003.116.004.178.004h.282c.096 0 .185 0 .203-.004.01.025.018.133.024.2-.005.008-.03.012-.037.002-.023-.07-.036-.123-.115-.143a.729.729 0 0 0-.145-.008h-.109c-.045 0-.045.002-.045.06v.3c0 .042.005.042.05.042h.087c.063 0 .11-.002.128-.008.018-.007.029-.015.036-.053l.012-.062c.008-.009.033-.009.04.002 0 .036-.007.094-.007.151 0 .054.006.112.006.145-.006.01-.031.01-.039.001l-.014-.059c-.005-.026-.016-.05-.046-.057a.529.529 0 0 0-.116-.007h-.087c-.045 0-.05.001-.05.04v.212c0 .08.005.131.03.157.017.018.049.034.18.034.117 0 .16-.005.193-.022a.379.379 0 0 0 .107-.146c.01-.008.032-.003.038.01a1.33 1.33 0 0 1-.068.21c-.135-.004-.27-.005-.403-.005h-.135c-.065 0-.116.002-.205.004-.009-.004-.012-.028-.002-.037l.05-.004c.085-.008.092-.03.092-.188v-.542zm1.927-.419a.864.864 0 0 1 .541-.17c.108 0 .26.022.355.048.024.006.038.01.056.008.002.046.012.173.028.295-.01.014-.04.016-.054.004-.03-.136-.12-.293-.411-.293-.307 0-.567.195-.567.61 0 .42.266.653.595.653a.428.428 0 0 0 .419-.286c.014-.01.044-.007.052.008a.764.764 0 0 1-.096.274 1.196 1.196 0 0 1-.387.066.878.878 0 0 1-.499-.134.647.647 0 0 1-.285-.551c0-.223.1-.413.253-.531m2.228.73c0-.248-.11-.515-.397-.515-.156 0-.359.107-.359.436 0 .222.108.51.404.51.18 0 .352-.134.352-.43zm-.906-.031c0-.3.225-.53.535-.53.347 0 .521.25.521.515a.513.513 0 0 1-.521.524c-.334 0-.535-.239-.535-.51zm2.326.229c0 .046 0 .225.004.264-.003.009-.012.016-.029.016a3.936 3.936 0 0 0-.192-.227l-.349-.397c-.04-.046-.143-.17-.174-.203h-.003a.403.403 0 0 0-.008.098v.328c0 .07.002.266.028.311.009.017.039.026.076.029l.047.004c.009.012.007.03-.003.038a4.089 4.089 0 0 0-.332 0c-.011-.008-.013-.029-.004-.038l.04-.004c.035-.005.06-.014.067-.03.02-.055.02-.238.02-.31v-.434c0-.043-.002-.074-.034-.109-.02-.02-.057-.031-.093-.036l-.025-.003c-.01-.009-.01-.031.002-.037a2.4 2.4 0 0 0 .17.005.42.42 0 0 0 .07-.005c.03.076.207.275.257.33l.145.164c.104.116.178.2.248.272h.003c.006-.007.006-.031.006-.063v-.322c0-.07-.002-.266-.03-.31-.01-.014-.033-.023-.093-.03l-.026-.003c-.01-.01-.009-.034.003-.038a3.303 3.303 0 0 0 .332 0c.012.008.012.028.003.038l-.021.002c-.048.008-.078.02-.084.032-.026.054-.023.24-.023.31l.002.359zm1.377 0c0 .046 0 .225.004.264-.003.009-.012.016-.028.016a3.84 3.84 0 0 0-.193-.227l-.348-.397c-.041-.046-.143-.17-.175-.203h-.003a.403.403 0 0 0-.007.098v.328c0 .07.001.266.027.311.01.017.039.026.077.029l.046.004c.01.012.008.03-.003.038a4.096 4.096 0 0 0-.332 0c-.01-.008-.012-.029-.004-.038l.041-.004c.035-.005.059-.014.066-.03.021-.055.02-.238.02-.31v-.434c0-.043-.002-.074-.033-.109a.174.174 0 0 0-.094-.036l-.025-.003c-.01-.009-.01-.031.003-.037.063.005.143.005.17.005a.42.42 0 0 0 .069-.005c.03.076.207.275.257.33l.146.164c.104.116.177.2.248.272h.003c.005-.007.005-.031.005-.063v-.322c0-.07-.001-.266-.03-.31-.009-.014-.033-.023-.093-.03l-.026-.003c-.01-.01-.009-.034.003-.038a3.31 3.31 0 0 0 .332 0c.012.008.012.028.003.038l-.02.002c-.049.008-.079.02-.085.032-.026.054-.023.24-.023.31l.002.359zm.569-.51c0-.157-.004-.18-.092-.19l-.024-.003c-.01-.005-.006-.033.003-.037.064.003.116.004.177.004h.283c.096 0 .184 0 .203-.004.009.025.018.133.024.2-.006.008-.03.012-.038.002-.023-.07-.036-.123-.114-.143a.734.734 0 0 0-.146-.008h-.108c-.046 0-.046.002-.046.06v.3c0 .042.005.042.05.042h.088c.063 0 .11-.002.128-.008.017-.007.028-.015.035-.053l.012-.062c.008-.009.033-.009.04.002 0 .036-.007.094-.007.151 0 .054.007.112.007.145-.007.01-.032.01-.04.001l-.013-.059c-.006-.026-.017-.05-.047-.057a.529.529 0 0 0-.115-.007h-.088c-.045 0-.05.001-.05.04v.212c0 .08.005.131.03.157.017.018.049.034.181.034.116 0 .16-.005.193-.022a.38.38 0 0 0 .106-.146c.01-.008.032-.003.038.01a1.33 1.33 0 0 1-.068.21 13.555 13.555 0 0 0-.402-.005h-.136a6 6 0 0 0-.204.004c-.01-.004-.012-.028-.003-.037l.05-.004c.085-.008.093-.03.093-.188v-.542zm1.139-.122a.646.646 0 0 1 .406-.128c.081 0 .195.016.266.036a.099.099 0 0 0 .043.006c0 .034.008.13.02.22-.007.011-.03.013-.04.004-.023-.103-.09-.22-.308-.22-.23 0-.426.146-.426.457 0 .316.2.49.447.49a.32.32 0 0 0 .314-.215c.01-.007.033-.004.04.006a.563.563 0 0 1-.073.206.886.886 0 0 1-.29.05.66.66 0 0 1-.375-.101.485.485 0 0 1-.213-.414.5.5 0 0 1 .19-.398m1.542.663c0 .158.004.18.09.189l.048.004c.01.005.007.033-.002.037a5.673 5.673 0 0 0-.407 0c-.008-.004-.011-.03 0-.037l.055-.005c.085-.007.093-.03.093-.188v-.671c0-.047 0-.049-.045-.049h-.083c-.064 0-.147.004-.185.038a.28.28 0 0 0-.067.104c-.012.009-.033.001-.04-.01.025-.068.047-.165.058-.225.004-.003.024-.004.028 0 .01.048.059.047.128.047h.609c.081 0 .095-.003.117-.042.008-.004.024-.002.027.004a.903.903 0 0 0-.022.229c-.006.012-.032.012-.04.002-.004-.037-.015-.093-.037-.11-.035-.025-.092-.037-.175-.037h-.106c-.045 0-.044.001-.044.051v.67zm.832-.537c0-.16-.004-.185-.092-.193l-.037-.003c-.01-.006-.006-.033.003-.037a3.723 3.723 0 0 0 .376 0c.009.005.012.031.003.037l-.038.003c-.089.008-.092.033-.092.193v.535c0 .16.003.18.092.19l.037.005c.01.006.007.033-.002.038a4.703 4.703 0 0 0-.376 0c-.009-.005-.012-.029-.003-.038l.037-.004c.089-.01.092-.032.092-.191v-.535zm1.49.309c0-.248-.11-.515-.397-.515-.156 0-.36.107-.36.436 0 .222.11.51.405.51.18 0 .352-.134.352-.43zm-.907-.031c0-.3.226-.53.535-.53.348 0 .522.25.522.515a.513.513 0 0 1-.522.524c-.333 0-.535-.239-.535-.51zm2.326.229c0 .046 0 .225.005.264-.003.009-.013.016-.029.016a3.986 3.986 0 0 0-.192-.227l-.35-.397c-.04-.046-.142-.17-.174-.203h-.002a.403.403 0 0 0-.008.098v.328c0 .07.002.266.027.311.01.017.04.026.077.029l.047.004c.008.012.007.03-.003.038a4.113 4.113 0 0 0-.332 0c-.011-.008-.013-.029-.003-.038l.04-.004c.035-.005.059-.014.066-.03.021-.055.02-.238.02-.31v-.434c0-.043-.002-.074-.033-.109a.177.177 0 0 0-.093-.036l-.026-.003c-.009-.009-.009-.031.003-.037.063.005.143.005.17.005.024 0 .05-.002.069-.005.03.076.207.275.257.33l.146.164c.104.116.177.2.248.272h.003c.006-.007.006-.031.006-.063v-.322c0-.07-.002-.266-.03-.31-.01-.014-.034-.023-.093-.03l-.026-.003c-.01-.01-.009-.034.003-.038a3.31 3.31 0 0 0 .332 0c.012.008.012.028.003.038l-.021.002c-.049.008-.078.02-.084.032-.026.054-.023.24-.023.31v.359zm.713.28a.47.47 0 0 1-.234-.056.684.684 0 0 1-.04-.21c.007-.01.03-.013.035-.004.023.076.084.224.259.224.126 0 .188-.083.188-.173 0-.066-.014-.14-.123-.21l-.144-.094c-.075-.05-.162-.135-.162-.258 0-.143.112-.259.307-.259.046 0 .1.009.14.02.02.005.04.009.052.009.014.036.027.12.027.183-.005.01-.03.014-.037.004-.02-.072-.06-.17-.205-.17-.147 0-.178.098-.178.167 0 .087.072.15.127.185l.12.076c.095.058.188.145.188.288 0 .165-.124.278-.32.278m.982-.072c0 .158-.12.249-.26.29-.018-.005-.024-.037-.012-.047.062-.02.165-.07.165-.175 0-.084-.097-.106-.115-.116a.06.06 0 0 1-.034-.058c0-.046.034-.09.098-.09.07 0 .159.064.159.196m1.274-.97c0-.212-.004-.246-.122-.257l-.05-.004c-.012-.008-.008-.044.004-.05a5.536 5.536 0 0 0 .5 0c.013.006.017.042.005.05l-.05.004c-.118.01-.123.044-.123.257v.714c0 .212.005.24.123.254l.05.006c.012.008.008.044-.004.05a5.473 5.473 0 0 0-.501 0c-.012-.005-.016-.038-.004-.05l.05-.006c.119-.014.122-.042.122-.254v-.714zm1.621.762c0 .046 0 .225.004.264-.003.009-.012.016-.028.016a3.986 3.986 0 0 0-.193-.227l-.348-.397c-.041-.046-.144-.17-.175-.203h-.003a.401.401 0 0 0-.007.098v.328c0 .07.001.266.027.311.009.017.039.026.076.029l.047.004c.009.012.008.03-.003.038a4.105 4.105 0 0 0-.332 0c-.01-.008-.012-.029-.003-.038l.04-.004c.035-.005.06-.014.067-.03.021-.055.02-.238.02-.31v-.434c0-.043-.002-.074-.033-.109a.18.18 0 0 0-.094-.036l-.025-.003c-.01-.009-.01-.031.002-.037a2.4 2.4 0 0 0 .17.005.5.5 0 0 0 .07-.005c.03.076.207.275.256.33l.146.164c.104.116.178.2.248.272h.003c.006-.007.006-.031.006-.063v-.322c0-.07 0-.266-.03-.31-.009-.014-.033-.023-.093-.03l-.026-.003c-.01-.01-.008-.034.003-.038a3.31 3.31 0 0 0 .333 0c.012.008.012.028.002.038l-.02.002c-.049.008-.079.02-.085.032-.026.054-.022.24-.022.31v.359zm.632-.632a.646.646 0 0 1 .405-.128c.082 0 .196.016.266.036.019.005.029.008.043.006.001.034.009.13.02.22-.007.011-.03.013-.04.004-.023-.103-.09-.22-.308-.22-.23 0-.425.146-.425.457 0 .316.2.49.446.49a.32.32 0 0 0 .314-.215c.01-.007.033-.004.04.006a.567.567 0 0 1-.073.206.885.885 0 0 1-.29.05.66.66 0 0 1-.374-.101.484.484 0 0 1-.214-.414c0-.166.075-.31.19-.398m1.128.807c0-.068.048-.118.112-.118.068 0 .112.054.112.118s-.044.11-.112.11a.11.11 0 0 1-.113-.11z" fill="#231F20"/><path d="m18.037 21.84-4.501-4.5 4.501-4.502 4.502 4.501" fill="#1A5DAD"/><path d="m18.037 21.84-4.501-4.5 4.501-4.502 4.502 4.501-4.502 4.502z" stroke="#fff" stroke-width="1.251"/><path d="M18.047 21.003 13.545 16.5l4.502-4.5 4.501 4.501" fill="#00674E"/><path d="M18.047 21.003 13.545 16.5l4.502-4.5 4.501 4.501-4.501 4.502z" stroke="#fff" stroke-width="1.251"/><path d="m18.037 21.841-4.501-4.501 4.501-4.502 4.502 4.502" fill="#1A5DAD"/><path d="M18.047 21.003 13.545 16.5l4.502-4.5 4.501 4.501" fill="#00674E"/><path d="m18.069 16.861.52 3.135h1.295l1.205-5.264-1.352.03-.575 3.25-.546-3.71h-1.094l-.546 3.71-.575-3.25-1.352-.03 1.205 5.264h1.295" fill="#fff"/><path d="M20.161 14.76c0 .1.023.537.09.854-.03.065-.233.087-.286.038-.203-.508-.686-.782-1.418-.782-.837 0-1.734.52-1.734 1.608s.867 1.673 1.772 1.673c.912 0 1.335-.476 1.538-.847.06-.044.242-.028.287.038-.053.405-.181.733-.287.858-.407.082-.942.203-1.53.203-.74 0-1.494-.126-2.03-.416-.542-.3-.957-.754-.957-1.433 0-.667.392-1.137.913-1.449.535-.322 1.304-.486 2.089-.486.769 0 1.327.13 1.553.142z" fill="#1A5DAD"/><path d="M20.161 14.76c0 .1.023.537.09.854-.03.065-.233.087-.286.038-.203-.508-.686-.782-1.418-.782-.837 0-1.734.52-1.734 1.608s.867 1.673 1.772 1.673c.912 0 1.335-.476 1.538-.847.06-.044.242-.028.287.038-.053.405-.181.733-.287.858-.407.082-.942.203-1.53.203-.74 0-1.494-.126-2.03-.416-.542-.3-.957-.754-.957-1.433 0-.667.392-1.137.913-1.449.535-.322 1.304-.486 2.089-.486.769 0 1.327.13 1.553.142z" stroke="#1A5DAD" stroke-width=".417"/><path d="m18.864 15.964-.247-1.677h-1.093l-.265 1.799" fill="#fff"/></svg>