<svg height="36" viewBox="0 0 36 36" width="36" xmlns="http://www.w3.org/2000/svg"><mask id="a" fill="#fff"><path d="M0 0h11.971v3.813H0z" fill-rule="evenodd"/></mask><g fill="none" fill-rule="evenodd"><path d="M18 0c2.837 0 5.52.656 7.907 1.825C31.884 4.753 36 10.895 36 18c0 9.942-8.058 18-18 18-9.94 0-18-8.057-18-18C0 8.06 8.06 0 18 0z" fill="#f2f4f7" fill-rule="nonzero"/><g fill="#000"><path d="M12.126 16.433h.588v.516h.463v.409h-.463v1.003c0 .177.107.3.285.3.096 0 .149-.01.166-.012v.354c-.03.01-.19.062-.408.062-.479 0-.631-.307-.631-.696zm5.438.516h-.588v2.054h.592v-1.236c0-.246.132-.41.367-.41.264 0 .371.195.371.41v1.236h.592v-1.374c0-.424-.236-.741-.736-.741-.408 0-.55.242-.589.31h-.009zm-.789-.061c-.535 0-.66.3-.701.395h-.008v-.334h-.531v2.054h.592v-1.02c0-.442.295-.623.648-.623zm-5.325.638.379-.256c-.049-.083-.251-.382-.841-.382-.44 0-.806.226-.806.626 0 .373.271.55.569.643.089.027.177.052.257.078.159.05.283.094.283.218 0 .11-.123.187-.336.187a.511.511 0 0 1-.449-.237l-.398.222c.039.096.253.44.884.44.481 0 .889-.203.889-.653 0-.375-.267-.551-.583-.647-.08-.025-.159-.05-.231-.071-.143-.044-.294-.083-.294-.22 0-.1.095-.162.27-.162.274 0 .367.157.407.214zm-3.906-1.477-.537 2.106-.537-2.106h-.74l-.552 2.165-.552-2.165H4l.763 2.954h.785l.534-2.093.533 2.093h.741l.764-2.954zm1.899 2.329c-.028.05-.128.262-.45.262-.259 0-.442-.202-.46-.484h1.453v-.18c0-.54-.322-1.088-1.02-1.088-.626 0-1.023.47-1.023 1.088 0 .607.389 1.088 1.048 1.088.577 0 .799-.343.851-.456zm-.477-1.068c.266 0 .407.19.429.437h-.862c.024-.231.151-.437.433-.437zm5.755 1.068c-.028.05-.128.262-.449.262-.259 0-.443-.202-.46-.484h1.452v-.18c0-.54-.323-1.088-1.019-1.088-.627 0-1.023.47-1.023 1.088 0 .607.388 1.088 1.047 1.088.578 0 .799-.343.851-.456zm-.476-1.068c.265 0 .406.19.428.437h-.861c.023-.231.15-.437.433-.437z"/><path d="M7.103.433h.588v.516h.463v.409h-.463V2.36c0 .177.107.3.285.3.096 0 .149-.01.166-.012v.354c-.03.01-.191.062-.408.062-.479 0-.631-.307-.631-.695zM0 .049h1.008c.919 0 1.495.45 1.495 1.477s-.556 1.477-1.495 1.477H0zm.635 2.463h.336c.77 0 .882-.516.882-.986S1.734.54.971.54H.635zm9.889.492h.607V.049h-.607zm.937-.195a.255.255 0 1 1 .51.001.255.255 0 0 1-.51-.001zm.465 0a.21.21 0 1 0-.42 0 .21.21 0 0 0 .42 0zm-.256.02v.126h-.051v-.298h.094c.06 0 .107.023.107.082 0 .045-.028.063-.056.069v.002c.03.007.043.026.047.059l.01.086h-.05l-.006-.053c-.007-.053-.024-.073-.063-.073zM5.126.949v.22h-.008c-.035-.062-.181-.281-.563-.281-.629 0-.858.513-.858 1.037 0 .525.229 1.037.858 1.037.389 0 .533-.227.563-.282h.008v.234c0 .284-.2.459-.435.459a.514.514 0 0 1-.449-.25c-.053.028-.397.234-.397.234.042.087.219.457.865.457.68 0 1.005-.435 1.005-1.043V.949zm-.397 1.57c-.335 0-.397-.328-.397-.594 0-.303.085-.595.397-.595s.397.292.397.595c0 .266-.068.595-.397.595zm3.604-1.266c.057-.073.263-.365.808-.365.509 0 .979.227.979.813v1.302h-.575v-.206h-.007c-.031.042-.174.268-.589.268-.385 0-.672-.266-.672-.666 0-.472.391-.694.991-.694h.261V1.66c0-.222-.166-.35-.431-.35a.509.509 0 0 0-.422.205zm.534 1.11c0 .173.128.277.299.277.257 0 .362-.212.363-.454v-.124h-.234c-.309 0-.428.129-.428.302zm-6.053.64h.608V.949h-.608zM3.118 0a.33.33 0 1 0 0 .66.33.33 0 0 0 0-.66zm2.995 3.003h.608V.949h-.608zM6.416 0a.331.331 0 1 0 0 .662.331.331 0 0 0 0-.662z" mask="url(#a)" transform="translate(20.028 16)"/></g></g></svg>