<svg width="36" height="36" fill="none" xmlns="http://www.w3.org/2000/svg"><path d="M18 0c2.837 0 5.52.656 7.907 1.825C31.884 4.753 36 10.895 36 18c0 9.942-8.058 18-18 18-9.94 0-18-8.057-18-18C0 8.06 8.06 0 18 0z" fill="#F2F4F7"/><path d="m12.354 14.798.041 2.08 1.06-2.08h.395l.14 2.08.962-2.08h.395l-1.266 2.557h-.379l-.148-2.122-1.085 2.122h-.378l-.124-2.557h.387zm3.363 0h1.957l-.074.312h-1.604l-.172.773h1.48l-.066.296h-1.48l-.197.863h1.628l-.066.304H15.14l.576-2.548zm4.555.772h-.362a.539.539 0 0 0-.156-.394c-.099-.099-.255-.148-.477-.148-.263 0-.502.09-.707.263-.206.18-.345.444-.428.814-.065.296-.049.543.058.732.107.189.304.28.6.28a.89.89 0 0 0 .683-.297c.098-.107.18-.238.255-.41h.361c-.09.27-.246.492-.468.673a1.425 1.425 0 0 1-.946.33c-.312 0-.56-.091-.732-.272-.23-.238-.287-.608-.172-1.102.082-.378.263-.682.526-.929a1.482 1.482 0 0 1 1.036-.395c.345 0 .592.083.74.255.156.19.214.378.189.6z" fill="#1188C9"/><path d="M12.173 18.078h1.85l-.066.313h-1.513l-.164.773h1.398l-.066.296h-1.398l-.18.863h1.537l-.066.304H11.63l.543-2.549zm1.957.682h.296l-.058.264a.977.977 0 0 1 .33-.23.805.805 0 0 1 .336-.074c.263 0 .42.09.477.271.033.099.025.247-.016.428l-.255 1.184h-.313l.247-1.168a.617.617 0 0 0 .008-.271c-.033-.115-.115-.173-.263-.173a.623.623 0 0 0-.444.173.492.492 0 0 0-.14.189 1.158 1.158 0 0 0-.082.28l-.205.97h-.313l.395-1.842zm3.207.297c.04.09.057.205.057.329 0 .082-.016.222-.057.41H15.98c-.033.19-.025.338.041.453.058.115.173.173.354.173a.597.597 0 0 0 .419-.165.823.823 0 0 0 .164-.214h.305a.993.993 0 0 1-.132.23 1.588 1.588 0 0 1-.197.206.999.999 0 0 1-.387.19 1.304 1.304 0 0 1-.263.024c-.23 0-.41-.082-.534-.255-.124-.164-.156-.403-.09-.707.065-.296.197-.535.394-.724a.963.963 0 0 1 .69-.28c.132 0 .256.034.362.091a.46.46 0 0 1 .23.239zm-.272.485a.788.788 0 0 0-.016-.32c-.05-.149-.181-.223-.378-.223-.14 0-.272.05-.395.156a.779.779 0 0 0-.238.395h1.027v-.008zm.757-.782h.296l-.066.321c.033-.065.115-.14.222-.23a.556.556 0 0 1 .354-.131h.032c.017 0 .033 0 .066.008l-.066.329c-.016 0-.032-.008-.049-.008h-.05a.56.56 0 0 0-.394.148.617.617 0 0 0-.197.345l-.222 1.06h-.313l.387-1.841zm2.055.075a.61.61 0 0 1 .14.172l.05-.23h.287l-.353 1.677a1.47 1.47 0 0 1-.222.56c-.181.255-.453.378-.814.378-.198 0-.354-.041-.477-.132-.115-.09-.165-.23-.14-.42h.313c0 .083.016.149.049.19.057.066.156.107.312.107.239 0 .411-.082.518-.255.066-.099.124-.28.173-.526a.946.946 0 0 1-.271.214.792.792 0 0 1-.362.065.595.595 0 0 1-.477-.213c-.123-.14-.148-.379-.074-.707.066-.313.189-.551.378-.724.19-.173.387-.263.6-.263a.6.6 0 0 1 .37.107zm-.353.172c-.222 0-.387.099-.51.305a1.507 1.507 0 0 0-.156.427c-.041.206-.033.37.024.477.058.107.165.165.305.165a.606.606 0 0 0 .534-.305c.074-.115.132-.246.165-.394.049-.23.04-.395-.033-.51a.374.374 0 0 0-.33-.165zm2.335-.247h.345c-.066.116-.222.387-.46.815-.181.32-.33.575-.444.773-.28.468-.469.756-.568.863-.098.107-.23.156-.41.156-.042 0-.075 0-.1-.008-.024 0-.049-.008-.082-.016l.058-.28c.05.016.09.025.115.025.025 0 .041.008.066.008a.288.288 0 0 0 .131-.025.295.295 0 0 0 .083-.066c.008-.008.04-.057.09-.14.058-.082.09-.147.115-.188l-.28-1.9h.354l.173 1.505.814-1.521zm3.24-.608c.221.132.328.362.312.7h-.337c0-.19-.058-.322-.173-.404-.115-.082-.263-.123-.46-.123a.965.965 0 0 0-.65.263c-.197.173-.337.436-.41.79-.067.304-.05.55.04.74.09.189.288.287.584.287.23 0 .436-.066.608-.197.181-.132.305-.346.37-.642h-.797l.066-.287h1.11l-.288 1.356h-.222l-.017-.329c-.14.132-.263.214-.361.264-.173.082-.37.131-.6.131-.305 0-.535-.099-.716-.288-.18-.246-.23-.575-.14-1.003.09-.427.28-.765.56-1.011.27-.239.575-.362.928-.362a.961.961 0 0 1 .593.115zm.707.608h.296l-.066.321c.033-.065.115-.14.222-.23a.556.556 0 0 1 .353-.131h.033c.017 0 .033 0 .066.008l-.066.329c-.016 0-.033-.008-.05-.008h-.048a.56.56 0 0 0-.395.148.617.617 0 0 0-.197.345l-.222 1.06h-.321l.395-1.841zm2.45.889a1.53 1.53 0 0 1-.378.74c-.19.197-.436.288-.74.288-.255 0-.436-.083-.551-.255-.115-.173-.14-.403-.074-.691.065-.313.197-.56.394-.74a.998.998 0 0 1 .691-.28.68.68 0 0 1 .55.239c.14.156.174.395.108.699zm-.32.008c.032-.173.04-.313.007-.42-.049-.172-.18-.254-.394-.254a.574.574 0 0 0-.46.213 1.24 1.24 0 0 0-.24.527c-.04.197-.032.362.026.493.057.132.18.197.37.197a.553.553 0 0 0 .476-.23 1.87 1.87 0 0 0 .214-.526zm1.068-.897-.263 1.226c-.016.09-.025.172 0 .23.033.107.123.165.271.165a.563.563 0 0 0 .502-.288c.066-.107.115-.247.156-.428l.197-.904h.313l-.395 1.85h-.296l.058-.272a.787.787 0 0 1-.19.181.787.787 0 0 1-.46.148c-.263 0-.427-.09-.485-.263a.725.725 0 0 1 0-.378l.271-1.258.321-.008zm1.505.009h.304l-.05.247a1.33 1.33 0 0 1 .247-.198.81.81 0 0 1 .395-.107c.206 0 .37.083.485.239.115.164.14.386.074.69-.082.403-.255.691-.501.864a.87.87 0 0 1-.502.164.558.558 0 0 1-.329-.09.496.496 0 0 1-.148-.181l-.197.946h-.313l.535-2.574zm1.118.904a1.01 1.01 0 0 0 .017-.378c-.033-.205-.165-.304-.379-.304-.213 0-.386.107-.51.32a1.673 1.673 0 0 0-.156.436.777.777 0 0 0-.008.362c.041.19.165.288.378.288.148 0 .28-.058.403-.18.115-.116.206-.297.255-.544z" fill="#6D6E71"/><path d="M4 14h1.858v2.952L4 18.81V14z" fill="#1188C9"/><path d="M4 19.024v.896l4.111-4.086s.206-.148.197-.502v-1.324H6.344v2.377s.025.213-.123.419L4 19.024zm1.891 1.562h4.843V18.72H7.741l-1.85 1.866z" fill="#1188C9"/><path d="M5.677 20.586h-.896l4.095-4.12s.148-.205.501-.197h1.357v1.965H8.26s-.173-.008-.345.124l-2.237 2.228z" fill="#1188C9"/><path d="M4.526 20.586H4v-.427l4.555-4.498s.156-.107.156-.428V14h2.023v1.875H9.51s-.247-.008-.362.098l-4.62 4.613z" fill="#1188C9"/></svg>