<svg height="36" viewBox="0 0 36 36" width="36" xmlns="http://www.w3.org/2000/svg"><mask id="a" fill="#fff"><path d="M0 0h23.61v9.893H0z" fill-rule="evenodd"/></mask><mask id="b" fill="#fff"><path d="M.159 0h.534v.851H.159z" fill-rule="evenodd"/></mask><g fill="none" fill-rule="evenodd"><path d="M18 0c2.837 0 5.52.656 7.907 1.825C31.884 4.753 36 10.895 36 18c0 9.942-8.058 18-18 18-9.94 0-18-8.057-18-18C0 8.06 8.06 0 18 0z" fill="#f2f4f7" fill-rule="nonzero"/><path d="M8.67 3.44a.663.663 0 0 0-.32-.113 1.5 1.5 0 0 0-.311.014h-.007a1.816 1.816 0 0 0-.54.18 2.179 2.179 0 0 0-.425.307 2.767 2.767 0 0 0-.36.382 3.828 3.828 0 0 0-.326.515 5.86 5.86 0 0 0-.408 1.048c-.075 0-.24-.033-.316-.047a.899.899 0 0 0-.083-.015h-.032c.35-1.455.593-2.28.771-2.85l.29-.835c.077-.158.123-.374.116-.474-.02-.292-.222-.585-.58-.507-.379.084-.603.568-.905 1.633a32.57 32.57 0 0 0-.606 2.439c-.09.44-.18.883-.268 1.324l-.039.2c-.03.137-.046.177-.095.187-.024.006-.055-.01-.069-.068a4.58 4.58 0 0 1-.077-.707c-.023-.754-.087-1.537-.059-2.526.016-.566.015-.657-.023-.802-.07-.28-.419-.447-.797-.35-.379.094-.49.52-.707 1.1-.148.393-.372 1.09-.594 1.768-.208.7-.453 1.56-.453 1.56l-.046.178-.045.178c-.054.146-.073.174-.109.185-.037.01-.058-.02-.068-.064-.023-.088-.02-.651-.013-.948.015-.605.073-1.261.13-1.849.032-.424.141-1.166.173-1.59.012-.127.023-.262.026-.353.008-.27-.01-.4-.129-.535-.184-.161-.41-.149-.669-.09-.418.095-.731.354-.694.497.006.02.027.041.049.073a.68.68 0 0 1 .121.236c.031.109.045.26.045.505l-.028.657a60.97 60.97 0 0 0-.154 2.665c-.018.703.005 1.191.06 1.887.029.35.103.635.143.788.07.276.21.581.451.642.18.046.318.035.555-.027.217-.057.544-.264.618-.59l.277-1.092c.082-.39.27-1.078.428-1.675.093-.356.212-.753.276-.96.038-.105.057-.133.08-.139.025-.006.04.002.046.025a.284.284 0 0 1 .007.066l.003.074.005.224c.019.731.158 1.988.29 2.503.085.336.11.752.628.828.24.035.44-.033.44-.033.382-.115.48-.335.566-.712.056-.238.23-.893.323-1.316l.085-.372c.07.022.389.072.521.084.002.04.005.06.008.086l.01.068c.004.032.009.063.016.095l.027.126c.055.221.141.41.255.56.11.148.225.247.383.334.15.082.407.118.65.092.04 0 .08-.006.118-.013l.05-.01v-.003c.036-.007.08-.018.115-.028.382-.11.874-.45 1.051-.947.07-.196.031-.319-.013-.388a.253.253 0 0 0-.21-.117.635.635 0 0 0-.081.007c-.167.027-.293.121-.404.205-.1.075-.195.146-.313.168-.134.026-.226.022-.304-.016-.086-.042-.116-.073-.151-.163a.762.762 0 0 1-.042-.191 2.42 2.42 0 0 0 .67-.296A3.073 3.073 0 0 0 8.754 5.08c.12-.264.193-.545.217-.833a1.094 1.094 0 0 0-.066-.514.691.691 0 0 0-.235-.294m-.788 1.556a2.06 2.06 0 0 1-.375.45c-.119.106-.25.198-.391.273a.74.74 0 0 1-.152.063c.02-.114.058-.266.112-.392.078-.188.178-.372.298-.55a2.1 2.1 0 0 1 .373-.444.487.487 0 0 1 .206-.118c.118-.02.125.134.124.164 0 .186-.106.414-.195.554m15.493 1.18a1.17 1.17 0 0 1-.34.7 1.977 1.977 0 0 1-.604.4 2.572 2.572 0 0 1-1.214.2l-.04-.005c-.36-.045-.604-.16-.747-.352a.795.795 0 0 1-.172-.592c.033-.239.158-.355.257-.409a.552.552 0 0 1 .318-.088l.011.001a.786.786 0 0 1 .332.147c.086.06.201.1.343.118.192.026.337.015.43-.032.068-.032.107-.068.111-.1.003-.014.006-.045-.045-.094a1.081 1.081 0 0 0-.256-.172 8.793 8.793 0 0 0-.38-.182 2.352 2.352 0 0 1-.405-.23 1.186 1.186 0 0 1-.318-.325.722.722 0 0 1-.096-.498c.03-.216.126-.44.283-.663a2.66 2.66 0 0 1 1.27-.958c.268-.093.534-.123.79-.085a.801.801 0 0 1 .566.332c.127.186.169.441.125.76a.928.928 0 0 1-.165.417c-.075.103-.218.222-.479.18-.178-.027-.25-.123-.278-.199a1.27 1.27 0 0 1-.06-.202c-.011-.046-.014-.107-.043-.14a.145.145 0 0 0-.1-.025s-.04-.001-.128.023c-.08.026-.157.06-.23.102a.874.874 0 0 0-.208.166.321.321 0 0 0-.087.16c-.004.028-.007.074.05.13.07.067.162.134.272.2.11.068.237.135.388.207.15.07.293.156.425.256s.24.217.322.344c.094.147.13.318.102.509m-2.706-3.118a.423.423 0 0 1 .004-.233c.013-.043.054-.146.078-.243a.796.796 0 0 0 .009-.374.725.725 0 0 1-.004-.344.336.336 0 0 1 .253-.216.608.608 0 0 1 .373.04c.122.06.225.204.25.309.056.22.031.396.006.538-.032.157-.091.31-.176.447a.837.837 0 0 1-.22.222.453.453 0 0 1-.41.034.323.323 0 0 1-.163-.18m-.257.107a.96.96 0 0 1 .012.313 3.113 3.113 0 0 1-.068.395c-.001.006-.185.728-.259 1.074-.057.275-.092.49-.135.74 0 .004 0 .01-.002.015-.04.243-.102.783-.138 1.164-.071.737-.088.912-.29 1.48-.206.58-.68.964-.9 1.088-.4.223-.85.339-1.339.349h-.003a1.298 1.298 0 0 0-.08-.008 1.323 1.323 0 0 1-.172-.018c-.513-.092-.81-.417-.755-.84.03-.22.202-.354.424-.321.189.033.38.05.573.05.533-.007.9-.184 1.118-.55.228-.382.255-.633.295-.981l.015-.14c.021-.18.037-.345.055-.52a2.7 2.7 0 0 1-.702.644c-.161.094-.319.15-.468.164h-.01a.671.671 0 0 1-.563-.28 1.683 1.683 0 0 1-.257-.59 3.168 3.168 0 0 1-.088-.726 6.466 6.466 0 0 1 .028-.688c.062-.652.196-1.171.398-1.542.225-.413.51-.621.847-.614.018 0 .044.003.092.008a.37.37 0 0 1 .288.21.501.501 0 0 1 .037.266.987.987 0 0 1-.127.368 3.748 3.748 0 0 0-.188.428 5.77 5.77 0 0 0-.146.48 3.316 3.316 0 0 0-.117.786c-.007.097-.006.193.001.29a.729.729 0 0 0 .052.227c.015.036.061.06.076.063.023.006.046.01.069.01a.277.277 0 0 0 .144-.046c.036-.023.127-.1.232-.243.074-.1.217-.309.333-.587.056-.13.125-.343.2-.568.083-.252.23-.75.315-.958a2.17 2.17 0 0 1 .183-.357.942.942 0 0 1 .243-.249.648.648 0 0 1 .399-.111c.032.001.068.01.115.021a.33.33 0 0 1 .162.1.442.442 0 0 1 .1.204M16.714.009c-.41-.065-.708.247-.837.555-.046.108-.059.162-.103.303-.045.137-.062.24-.096.381-.027.11-.052.22-.077.33-.028.128-.03.147-.067.342-.032.163-.06.327-.086.49-.02.13-.039.237-.058.367a3.715 3.715 0 0 0-1.793 1.035c-.28.288-.517.617-.7.975a3.502 3.502 0 0 0-.378 1.417.56.56 0 0 1-.104-.114.883.883 0 0 1-.128-.305 1.725 1.725 0 0 1-.044-.381 2.895 2.895 0 0 1 .057-.565l.022-.152c.004-.032.008-.063.014-.094.059-.36.085-.602.049-.847-.024-.163-.154-.475-.485-.486a.545.545 0 0 0-.08.003 1.49 1.49 0 0 0-.64.253 3.006 3.006 0 0 0-.776.794c.032-.097.074-.193.114-.287.03-.064.056-.129.082-.195.054-.136.11-.277.122-.39a.362.362 0 0 0-.047-.247.358.358 0 0 0-.132-.115.388.388 0 0 0-.154-.034.707.707 0 0 0-.427.116 1.207 1.207 0 0 0-.223.183 1.64 1.64 0 0 0-.168.231c-.07.113-.136.267-.2.471-.064.207-.12.416-.17.627-.053.224-.1.448-.143.673a8.504 8.504 0 0 0-.137 1.168c-.01.174-.007.348.011.52a.968.968 0 0 0 .117.392c.074.122.195.18.353.163h.008c.029-.005.13-.02.226-.053.089-.03.223-.127.336-.305.066-.1.133-.37.213-.71l.05-.207c.315-1.227.771-1.485.996-1.532l-.047.415c-.01.18-.024.342-.028.532.005.359.04.565.085.744.05.203.142.45.254.578.132.151.259.25.489.237h.005c.1-.015.15-.023.258-.068a.84.84 0 0 0 .39-.373.758.758 0 0 0 .16.201c.1.091.245.134.43.128h.013a1.82 1.82 0 0 0 .679-.176 3.378 3.378 0 0 0 1.088-.836c-.016.261-.029.51.086.852.046.14.107.256.202.386.107.143.268.216.483.218l.026-.002a.71.71 0 0 0 .462-.247.586.586 0 0 0 .128-.474.346.346 0 0 0-.064-.139 1.171 1.171 0 0 1-.172-.37c-.055-.228-.068-.418-.058-.785.004-.176.019-.368.032-.55.014-.18.034-.364.056-.56l.041-.378a2.23 2.23 0 0 1 .014-.118h.025a.5.5 0 0 0 .292-.098c.115-.081.186-.228.208-.436a.505.505 0 0 0-.13-.43 1.04 1.04 0 0 0-.216-.165c.01-.068.023-.132.031-.19.011-.074.024-.14.036-.194l.023-.113.019-.094c.001-.008.13-.61.389-1.506a1.98 1.98 0 0 0 .071-.35c.015-.138-.018-.369-.277-.41M15 4.662a3.77 3.77 0 0 1-.431.701c-.159.2-.322.36-.486.474-.144.102-.263.179-.36.163-.065-.017-.056-.129-.048-.2a1.73 1.73 0 0 1 .195-.618c.11-.209.245-.404.402-.58.159-.176.332-.321.515-.434.143-.09.285-.151.424-.184A2.543 2.543 0 0 1 15 4.66" fill="#dd1438" mask="url(#a)" transform="translate(6 17.96)"/><path d="M12.335 15.873c.099.051.21.068.179.087-.055.033-.246 0-.337-.058-.04-.024-.054.033-.018.079a.35.35 0 0 0 .062.07c.349.305.8.397 1.205.326a5.075 5.075 0 0 0 4.29 2.343c1.391 0 2.69-.55 3.658-1.547.24-.248.453-.516.636-.8.412.077.87-.013 1.226-.323a.332.332 0 0 0 .063-.071c.036-.046.021-.103-.019-.078-.091.057-.283.092-.337.058-.03-.02.08-.035.18-.087.53-.267.434-1.11.277-.934-.114.143-.262.293-.546.283.258-.299.283-.72.194-.645-.084.086-.195.265-.421.418.129-.465.192-.951.185-1.447a5.06 5.06 0 0 0-1.548-3.581 5.109 5.109 0 0 0-1.087-.807c-.213-.39-.483-.672-.966-.782-.227-.032-.34-.028-.526.053a.373.373 0 0 0-.086-.161c-.204-.201-.573-.225-.754-.256a2.88 2.88 0 0 0-.94.063c-.773.196-1.3.572-1.682 1.099a5.103 5.103 0 0 0-2.42 5.801c-.207-.147-.313-.317-.393-.399-.089-.074-.063.346.194.646-.284.01-.432-.14-.547-.284-.156-.175-.252.668.278.934" fill="#fff"/><path d="M.475 0a.306.306 0 1 1-.001.613C.298.613.159.478.159.306S.298 0 .474 0zM.472.062C.34.062.237.171.237.306S.34.55.475.55C.608.552.708.441.708.308c0-.137-.1-.246-.234-.246zM.426.464H.354V.158C.382.155.422.148.472.148c.058 0 .083.01.104.026a.075.075 0 0 1 .032.064C.608.275.58.3.544.312v.003c.03.009.045.034.055.075A.25.25 0 0 0 .62.464H.546C.536.452.532.427.522.39.517.357.498.343.459.343H.426zm0-.171h.035C.5.293.53.279.53.248.532.22.512.201.468.201a.162.162 0 0 0-.04.004z" fill="#000" mask="url(#b)" transform="translate(29.149 25.093)"/><path d="M17.716 18.72a5.078 5.078 0 0 1-3.55-1.437 5.104 5.104 0 0 1-.11-7.208 5.056 5.056 0 0 1 3.66-1.548c1.331 0 2.591.51 3.548 1.439a5.063 5.063 0 0 1 1.548 3.58 5.061 5.061 0 0 1-1.439 3.627 5.056 5.056 0 0 1-3.657 1.548m0-9.792a4.66 4.66 0 0 0-3.37 1.427 4.7 4.7 0 0 0 .101 6.638 4.673 4.673 0 0 0 3.27 1.324c1.28 0 2.476-.506 3.368-1.425a4.668 4.668 0 0 0 1.324-3.34 4.66 4.66 0 0 0-1.426-3.298 4.673 4.673 0 0 0-3.268-1.326" fill="#2f1e18"/><path d="M23.28 15.9c-.09.058-.282.092-.337.058-.03-.019.08-.035.18-.086.529-.267.433-1.109.277-.933-.113.142-.262.292-.546.282.257-.3.283-.72.193-.646-.185.192-.508.848-1.92.622.04-.05.081-.098.127-.143a.719.719 0 0 1-.219-.222c-.216-.34-.4-.4-.51-.429.18-.174.302-.357.41-.564.367-.781.324-1.631.284-1.856-.042-.346-.13-.886-.403-1.39-.307-.575-.608-1.624-1.644-1.977-.211-.01-.322.001-.507.082-.017-.037-.193-.18-.212-.213-.11-.1-.432-.188-.576-.235-.297-.005-.56-.08-.888.009-1.389.376-2.009 1.07-2.42 2.346a3.81 3.81 0 0 0-.087.556c.014-.036-.451 1.371-.143 2.144.057.064.062.189.12.253.146.34.38.551.52.864-.455.019-.615.715-.629.773-1.43.237-1.754-.426-1.94-.618-.089-.075-.063.346.194.646-.285.01-.433-.14-.546-.283-.158-.176-.253.666.277.934.098.05.21.067.178.085-.054.035-.246 0-.336-.056-.042-.027-.056.04-.01.087 1.363.906 1.991-.09 2.2-.119.752.216 2.085-.314 1.494-.772-.161-.252-.405-.684-.413-1.182-.034-.28-.001-.366-.309-.34.11-.34.222-.638.109-1.154a.19.19 0 0 0-.057.041c.606-.592 1.801-.661 2.454-1.309.086-.147.42-.196.501-.349-.075.532-.312 1-.805 1.47 0 0 .347 0 .622-.196.47-.335.69-.741 1.013-1.093.002-.018.091-.097.087-.12a.67.67 0 0 1 .19.167c.384.591.073.447.496.984.025.029.071.15.095.18.092.174.136.28.253.442.152.104.122.281.211.582-.026.376-.103.668-.353.834-.013.327-.289 1.084-.289 1.084.025.075-.289.575.452.727.195.039.489 0 .738-.045.02-.16.074-.313.155-.455a1.058 1.058 0 0 0 .057.51l.023-.007c.207.028.837 1.025 2.2.12.046-.048.031-.116-.011-.09" fill="#dd1438"/><path d="M17.64 17.988c.263.066.497-.136.501-.204.004-.056-.132-.274-.183-.32a.284.284 0 0 0-.284-.058c-.08.029-.236.187-.234.335.003.122.2.247.2.247zm.997-.854-.25-.132c.075.437.234.747.322.86a.23.23 0 0 0 .136.073.157.157 0 0 0 .09-.018s.068-.03.084-.075c.05-.143-.186-.378-.247-.91zm-2.148-.27-.21-.051-.026-.129a.278.278 0 0 0-.043.063c-.022.084-.04.16-.123.344-.091.204-.361.418-.086.499a.179.179 0 0 0 .177-.046c.165-.148.316-.488.382-.692a.737.737 0 0 0 .026-.116zm.443.262-.128-.149c-.09.551-.294.697-.23.837.02.045.068.081.068.081a.18.18 0 0 0 .09.03.16.16 0 0 0 .127-.052c.151-.186.256-.496.29-.696a.429.429 0 0 0 .002-.128zm2.463-.15c-.057-.132-.095-.22-.093-.337-.008-.018-.028-.035-.055-.048l.002.136-.238-.099a.206.206 0 0 0-.028.144c.078.459.293.696.349.754.057.06.102.065.152.069a.162.162 0 0 0 .143-.056c.086-.127-.128-.324-.232-.563z" fill="#24ace9"/><path d="M23.299 15.979a.382.382 0 0 1-.063.07c-.569.499-1.407.427-1.884.016-.079-.068-.1-.118-.263-.139a1.046 1.046 0 0 1-.077-.56 1.256 1.256 0 0 0-.14.363c-.02 0-.04.03-.059.036-.68.264-1.091.087-1.36-.446.024-.035.166-.22.184-.255.055-.12.221-.478.266-.963.078-.648.074-.797.098-.955.036-.308.034-.387-.031-.608-.058-.181-.106-.244-.214-.45a6.447 6.447 0 0 1-.5-.805 1.718 1.718 0 0 1-.146-.365s-.247.6-.755.976c-.434.322-.768.426-1.013.381.375-.212.762-.444 1.047-.911.4-.653.475-1.312.475-1.312s.027-.002.108.043c.06.034.172.15.229.354.02.078.105.36.208.593.187.42.364.622.741.97.368.34.726.822.591 1.53-.078.41-.263.667-.467 1.014a.597.597 0 0 0-.071.377c.056.378.432.173.903.288-.032.044-.062.09-.09.137a1.2 1.2 0 0 1 .523.304s.463.6 1.36.478a.839.839 0 0 0 .4-.161m-3.1-5.1c.304.4 1.05 1.1.976 2.2 0 0 .096-.279.084-.642-.048-1.624-.962-1.687-1.655-3.025 0 0-.104.55.595 1.467m-.988-2.502c-.227-.032-.342-.028-.526.053a.371.371 0 0 0-.086-.161c-.205-.202-.573-.225-.754-.256a2.884 2.884 0 0 0-.94.063c-1.348.342-1.95 1.227-2.334 2.517a6.74 6.74 0 0 0-.198.989c-.167.384-.484 1.376.167 2.338.116.174.502.655.602.917.14.636-.661.256-1.223.827 0 0-.463.6-1.36.478a.839.839 0 0 1-.4-.161.35.35 0 0 0 .063.07c.569.498 1.406.427 1.883.016.105-.09.108-.148.464-.148.622 0 1.18-.046 1.506-.52-.253-.329-.367-.445-.465-.648a.99.99 0 0 0-.113-.409c-.051-.642-.118-.725-.108-1.046-.025-.412-.006-.885.42-1.061.428-.176.543-.122 1.271-.5 1.347-.699 1.38-1.556 1.241-1.663 0 0-.313.55-.712.896-.597.518-1.355.71-2.157 1.014-.805.304-.901.611-.901.611-.204-1.153.482-1.823.482-1.823-.069-.023-.414.39-.568.628.172-.752.361-1.208.552-1.583a3.49 3.49 0 0 1 .266-.397c.214-.24.308-.34.63-.556.2-.135.423-.261.698-.334.6-.159 1.498-.145 1.855.156.097.082.141.213.141.213s.172-.1.295-.137c.173-.052.378 0 .507.052.708.313.873 1.111 1.407 1.78-.527-1.08-.636-1.995-1.605-2.215m-3.363 3.039c.744-.223 1.054-.812 1.754-1.298-.117.016-.26.081-.357.136-.59.34-.776.486-1.051.675-.277.19-.634.418-.892.507 0 0 .185.102.546-.02" fill="#9c0b2b"/><path d="M20.173 12.637c-.083-.019-.117.023-.156.104a1.298 1.298 0 0 0-.047-.203c-.058-.181-.106-.244-.214-.45a6.491 6.491 0 0 1-.5-.805 1.66 1.66 0 0 1-.146-.366s-.246.6-.755.978c-.434.321-.768.425-1.013.38.467-.445.703-.89.79-1.388-.192.27-.518.572-1.052.847-.728.38-.843.324-1.27.5-.305.126-.401.402-.422.7a2.419 2.419 0 0 0-.014-.125c-.008-.17-.054-.167-.054-.167s-.27.004-.288.403c-.004.246.038.316.075.4.04.095.087.213.146.242.103.05.148.016.165-.004a1.804 1.804 0 0 1 .011.07l.009.054c.084.539.163.863.301 1.069l.035.082c.03.051.06.098.086.14.09.07.136.141.145.212a.62.62 0 0 1 .017.021l.053.067-.005.007a.472.472 0 0 0 .041.037c.055.061.112.112.165.156l-.033 1.044.035.17.21.052.102-.133.342.395.297-.104s.071.03.132.083c.06.053.434.219.434.219l.173-.068.219-.164.088-.15.362.192.344-.518.268.11-.018-1.183a3.95 3.95 0 0 0 .097-.108c.103-.118.223-.243.313-.377.002-.008.007-.016.01-.026.002 0 .003-.003.004-.005l.01-.025.006-.012.01-.022.008-.02a.147.147 0 0 0 .008-.021c.004-.008.008-.016.01-.026l.009-.02c.003-.009.008-.02.01-.03l.009-.02.012-.035a.423.423 0 0 0 .008-.02l.013-.038.007-.022.013-.04.007-.023.013-.046.007-.023a.824.824 0 0 1 .012-.047l.006-.025.011-.048.007-.027.01-.051.006-.028a1.17 1.17 0 0 0 .009-.054l.006-.029.008-.06.004-.027.01-.087c.02-.171.034-.308.046-.42.028.02.096.045.185-.048.11-.09.203-.356.199-.572-.003-.19-.05-.398-.16-.424" fill="#fcd3d7"/><path d="M14.553 14.998a.826.826 0 0 0-.033-.228c-.027-.138-.055-.232-.111-.475-.067-.288-.253-.299-.321-.293-.054.004-.33.075-.514.23-.193.146-.196.253-.172.33.02.061.113.23.184.32.205.252.513.315.384.405-.036.041-.026.11.017.266.035.098.07.183.104.238.034.046.064.138.196.15.032.003.072 0 .063.022a.295.295 0 0 0-.025.129c.002.054.076.221.109.305.038.095.127.523.327.52a.842.842 0 0 0 .26-.05c.186-.055.418-.209.446-.33.042-.173-.069-.246-.127-.327-.109-.115-.351-.35-.421-.425-.016-.017-.037-.034-.06-.058-.069-.068-.035-.086-.004-.131.037-.076-.07-.29-.098-.333-.045-.068-.12-.147-.186-.149-.142-.023-.018-.033-.018-.116" fill="#24ace9"/><path d="M14.056 14.861c.021.133.144.284.245.2.065-.052-.058-.067-.145-.375-.056-.2-.116.072-.1.175m.471.966c.22-.077.213-.08.293-.134.025-.018.09.011.03.096-.024.034-.064.018-.055.094.011.098.255.247.09.275-.149.026-.235-.21-.246-.244-.013-.033-.079.003-.112 0-.07-.005-.128-.042 0-.087" fill="#2f1e18"/><path d="M14.357 15.164c-.085.01-.187.017-.231.073s-.051.072-.02.126c.03.056.046.01.095-.035s.11-.07.15-.075c.045-.006.1-.031.116-.079.012-.038-.03-.018-.11-.01" fill="#fff"/><path d="M21.162 15.83c.072-.001.171-.105.216-.173.028-.042.152-.258.08-.326-.04-.039-.049-.052.01-.108.025-.024.047-.04.063-.058.072-.073.382-.41.455-.49.04-.053.168-.154.113-.296-.043-.097-.347-.259-.508-.319a.99.99 0 0 0-.26-.076c-.158-.018-.285.444-.321.54a1.45 1.45 0 0 0-.074.323c0 .04.013.088.032.126.013.02-.031.019-.067.022-.142.013-.212.107-.24.14a.635.635 0 0 0-.112.217c-.039.154-.026.217.015.256.145.087-.163.124-.381.414a1.3 1.3 0 0 0-.207.31c-.023.075-.042.159.193.32.177.137.513.215.572.22.074.004.23.044.29-.24.048-.237.065-.309.086-.415.023-.128.036-.23.024-.268-.006-.068-.124-.112.021-.12" fill="#24ace9"/><path d="M21.532 14.913c-.049.091-.086.215-.229.15-.18-.081.045-.204.182-.328.13-.116.086.106.047.178m-.504.883c-.248-.014-.24-.034-.323-.08-.027-.015-.135.03-.058.089.027.02.085.078.063.149-.03.09-.188.265-.033.248.175-.019.216-.23.235-.261.02-.032.05-.045.09-.05.073-.006.152-.088.026-.095" fill="#2f1e18"/><path d="M17.082 15.168s-.104-.3-.211-.293c.188-.002.434.044.62.027.03 0 .089-.029.118-.032.29-.035.632.063.898-.03-.09.1-.146.346-.278.423-.14.083-.468.106-.671.092-.205-.013-.332-.098-.476-.187m4.146.084c-.073-.072-.146-.149-.22-.147s-.102.016-.117.088.029.05.098.062c.07.011.144.07.18.101.04.04.114.065.134.026s-.008-.062-.075-.13" fill="#fff"/><path d="M19.358 13.946c.008-.046.04-.064.078-.056.036.006.063.04.054.083-.006.04-.042.069-.076.062a.075.075 0 0 1-.056-.09m-.404-.032c.007-.047.04-.068.084-.06.034.008.054.047.049.088-.007.038-.04.068-.071.06a.078.078 0 0 1-.062-.088m.299-.33c.007-.04.034-.061.081-.05.037.007.051.037.045.078-.007.044-.03.079-.068.07-.047-.01-.064-.054-.058-.098m-.516.056c.006-.033.03-.062.057-.056.032.006.053.04.048.077v.003c-.007.039-.035.065-.069.057-.028-.005-.042-.042-.036-.081m-.387-.084c.006-.042.024-.065.063-.057.033.009.054.04.052.085-.007.037-.038.05-.074.043-.035-.008-.046-.042-.041-.071m-1.358-.02c0-.038.022-.07.06-.07.04.002.062.032.062.07s-.023.07-.063.07c-.039 0-.06-.033-.06-.07m-.286.36c0-.04.017-.074.058-.073.033 0 .059.034.059.072 0 .042-.027.08-.06.076-.042 0-.057-.037-.057-.074m-.295-.294c0-.031.04-.07.078-.068.024 0 .063.037.062.07-.013.055-.037.078-.062.078-.05-.001-.079-.024-.078-.08m-.243.42c0-.038.032-.08.066-.077.035-.003.072.038.072.078 0 .033-.038.064-.074.064-.032.003-.064-.031-.064-.065m-.288-.226c0-.037.02-.065.058-.065.031 0 .072.028.071.066a.076.076 0 0 1-.073.077c-.036 0-.056-.032-.056-.078" fill="#dd1438"/><path d="M19.226 13.177c.053-.1-.18-.469-.33-.45-.15.016-.26.083-.379.297-.007.012.003.07-.004.083.056.11.215.19.403.188.06 0 .118-.009.17-.023.003-.07.088.004.14-.095m-2.7-.42a.649.649 0 0 0-.39.407c0 .05.105.102.108.121.051.017.227-.018.288-.018.209.003.446-.11.386-.25 0 0-.201-.323-.392-.26" fill="#fff"/><path d="M16.864 12.237c-.052-.014-.082-.033-.147-.042a.963.963 0 0 0-.14-.006c-.09.006-.136.005-.227.03-.123.03-.35.164-.373.11-.02-.07.018-.134.063-.18.162-.052.297-.082.504-.164a.64.64 0 0 1 .196.035c.067.027.118.066.18.104.05.031.15.08.143.124-.013.037-.137.006-.2-.01m.599 2.684c.029-.001.143-.012.172-.015.29-.027.555.048.822-.028-.092.085-.168.218-.3.284-.14.069-.4.069-.602.054-.206-.014-.374-.125-.518-.202-.038.115.024.16.112.239.102.09.26.214.497.22.343.009.614-.025.786-.31.052-.092.195-.284.343-.355.082-.038.272-.127.24-.177-.055-.071-.167-.058-.248-.04-.06.012-.079.124-.181.132-.242.032-.476-.053-.774-.044-.215.007-.383.057-.612.074-.222.019-.298-.099-.506-.123-.094-.013-.112.041-.04.132a.438.438 0 0 0 .276.132c.188 0 .346.04.533.027m.895-2.64c.01.036.138 0 .199-.024.047-.017.085-.039.145-.05a.7.7 0 0 1 .138-.015c.092-.001.15 0 .23.013.124.02.359.144.378.09.02-.1-.067-.182-.135-.218a.786.786 0 0 0-.645-.044c-.076.036-.102.066-.173.115-.05.034-.142.087-.137.132m-.272 1.714c-.132-.04-.163.1-.296.1-.188 0-.227-.12-.326-.109-.082.009-.124.133-.18.141-.044-.008-.035.067.021.08.113.03.088-.065.163-.038.043.016.053.091.179.15s.25-.011.363-.113c.072-.07.207-.066.172-.108-.03-.014-.052-.09-.096-.103m-2.048-.814c.054.03.168.084.257.057.011-.034-.018-.05-.037-.051-.057-.003-.097-.052-.096-.077a.383.383 0 0 1 .18-.25c.085-.06.15-.029.176.02-.002.036-.015.064-.046.07-.05.012-.086-.03-.121-.015a.148.148 0 0 0-.018.19c.024.03.053.04.064.03.046-.058.157-.056.269-.048.047-.033.05-.114.063-.183.08-.09.12.091.172.163.035.048.072.104.12.109.08.008.185-.057.145-.176-.023-.03-.087.031-.112.012-.097-.093-.01-.28-.21-.38-.215-.108-.547-.07-.68.097a.885.885 0 0 0-.15.247c-.02.072-.04.147.024.185m2.792-.572a.72.72 0 0 0-.271.224c-.06.09-.097.25-.172.252-.03-.01-.002-.076-.046-.071a.096.096 0 0 0-.077.122c.01.03.037.052.077.057.137.018.157-.108.21-.18a.822.822 0 0 1 .181-.18c.045-.025.11-.046.166-.002.033.029 0 .09-.024.102-.062.006-.121-.017-.15-.01-.03.006-.074.086-.081.184.065.028.082-.023.145-.024.104-.001.207.067.26.015.053-.053.052-.15.051-.19.089.003.129.127.091.193-.029.034-.1.027-.1.09.301.06.33-.065.353-.133.016-.055.01-.1-.015-.175a.489.489 0 0 0-.598-.274m-2.522 3.164c-.005.229-.007.455-.011.765a2 2 0 0 0 .1.15c.076.105.184-.25.316-.176.14.08.134.328.284.447.09.07.256-.328.344-.111.094.235.264.29.447.383.083-.072.203-.082.303-.2.095-.112.15-.226.22-.247.108-.033.172.232.288.19.19-.07.156-.419.332-.466.09-.024.104.129.208.146.106.015.206-.354.26-.505.027-.076.066-.098.124-.076.084.032.089.143.097.335.011.27.136.53.286.71.15.18-.233.08-.383-.31-.093-.244-.067-.245-.137-.12 0 0-.128.223-.212.245-.106.029-.208-.128-.208-.128s-.125.435-.338.435c-.2.001-.268-.212-.316-.13-.035.062-.08.153-.26.219.097.073.18.15.217.284.068.317-.167.517-.444.538-.2.014-.442-.07-.506-.258-.07-.24.077-.458.22-.561a.565.565 0 0 1-.316-.239s-.112.156-.279.126c-.105-.019-.248-.227-.299-.406-.002-.008-.117.158-.253.135-.18-.03-.178-.162-.266-.293-.02-.028-.084-.122-.097-.041a.871.871 0 0 1-.083.255c-.092.185-.358.39-.475.313.105-.042.278-.249.332-.434.06-.205.074-.399.052-.6-.017-.162.141-.072.247.037l.005-.103c.007-.115.008-.245.009-.368a.385.385 0 0 0-.088-.23c-.066-.078-.167-.243-.225-.325 0 0-.067-.108-.11-.187a2.466 2.466 0 0 1-.244-.845c-.027-.237-.022-.292-.03-.443.032.143.078.38.095.455.078.343.143.502.263.709.12.216.272.387.418.54.085.09.26.235.372.324.149.12.216.174.385.28.148.095.423.285.8.28.354-.004.546-.143.661-.21.248-.142.376-.255.547-.416.199-.185.3-.277.42-.417.156-.182.3-.377.429-.835.07-.251.116-.543.145-.707.004.058.013.125-.005.35a3.531 3.531 0 0 1-.07.463c-.052.22-.1.366-.185.525-.09.164-.114.178-.264.404-.105.149-.11.154-.114.267-.003.473-.109 1.123-.19.097-.52.441-.968.72-1.393.725-.416.005-.851-.271-1.425-.745m1.388 2.173c.16.04.308-.047.333-.16a.305.305 0 0 0-.036-.207.277.277 0 0 0-.112-.115c-.058-.04-.147-.032-.176-.023l-.024.01c-.158.062-.252.426.015.495" fill="#2f1e18"/></g></svg>