<svg width="36" height="36" fill="none" xmlns="http://www.w3.org/2000/svg"><path d="M18 0c2.837 0 5.52.656 7.907 1.825C31.884 4.753 36 10.895 36 18c0 9.942-8.058 18-18 18-9.94 0-18-8.057-18-18C0 8.06 8.06 0 18 0z" fill="#F2F4F7"/><path d="M18.05 17.782h2.545s.491.072.81-.405c.404-.621 1.662-2.457 1.662-2.457s.39-.42.014-1.026a79.67 79.67 0 0 0-1.258-1.836s.217.419-.1.896c-.449.665-3.008 4.525-3.008 4.525s-.202.289-.448.13c-.13-.087-.115-.203 0-.405.116-.203 1.273-1.865 1.273-1.865s.202-.26.216-.55c0-.23.015-.26-.144-.52-.188-.303-1.605-2.269-1.605-2.269s-1.416 1.966-1.604 2.27c-.174.274-.145.289-.145.52 0 .289.203.55.203.55s1.17 1.662 1.272 1.864c.115.202.13.318 0 .405-.246.173-.448-.13-.448-.13s-2.56-3.874-3.007-4.54c-.318-.462-.101-.881-.101-.881s-.926 1.315-1.258 1.836c-.39.607.014 1.026.014 1.026s1.258 1.836 1.663 2.457c.318.492.81.405.81.405h2.645zm-8.326 4.033c.03-.217.16-.405.405-.405.26 0 .361.188.361.405h-.766zm1.735 1.012c-.275.144-.622.275-.925.275-.492 0-.81-.347-.81-.81h1.706c-.014-.853-.434-1.344-1.301-1.344-.766 0-1.344.55-1.344 1.33 0 .419.144.824.506 1.084.303.231.722.274 1.098.274.29 0 .593-.057.868-.173l.202-.636zm.202.665a4.1 4.1 0 0 0 .925.13c.579 0 1.403-.159 1.403-.896 0-.275-.188-.492-.42-.65-.173-.116-.404-.174-.592-.232-.13-.043-.318-.087-.318-.26 0-.145.216-.174.318-.174.245 0 .491.073.708.217v-.578a3.363 3.363 0 0 0-.853-.101c-.289 0-.578.029-.838.173-.26.145-.405.362-.405.665 0 .737 1.316.766 1.316 1.128 0 .202-.232.245-.39.245-.348 0-.68-.13-.97-.303l.116.636z" fill="#267E44"/><path d="M15.102 21.526h.159c.202 0 .318-.029.448.116h.014v-.636h-.621v-.13c0-.232-.03-.506.289-.506.086 0 .159.043.231.086l.361-.563c-.188-.073-.404-.073-.665-.073-.317 0-.592.044-.852.26-.275.246-.318.506-.318.839v.072l-.362.535h.362v1.402c0 .26.014.42-.188.593v.014h1.33v-.014c-.203-.174-.188-.333-.188-.593v-1.402zm4.423-.592h-.014a.727.727 0 0 1-.347.086h-.767v.015c.203.173.188.332.188.592v1.316c0 .26.015.42-.188.593v.014h1.33v-.014c-.202-.174-.188-.333-.188-.593v-.824c0-.145-.014-.231.073-.332a.57.57 0 0 1 .433-.188c.087 0 .188.029.29.043v-.665l-.203-.015c-.274 0-.506.145-.593.39v-.418h-.014zm2.082 0h-.015a.784.784 0 0 1-.361.086h-.766v.015c.202.173.188.332.188.592v1.316c0 .26.014.42-.188.593v.014h1.33v-.014c-.203-.174-.188-.333-.188-.593v-.824c0-.231-.044-.593.289-.593.332 0 .303.362.303.593v.824c0 .26.015.42-.188.593v.014h1.33v-.014c-.202-.174-.188-.333-.188-.593v-.91c0-.203-.014-.521.304-.521s.289.303.289.52v.91c0 .261.014.42-.188.594v.014h1.33v-.014c-.202-.174-.188-.333-.188-.593v-1.099c0-.289-.043-.491-.275-.68a1.095 1.095 0 0 0-.665-.202c-.303 0-.592.087-.81.319a.843.843 0 0 0-.664-.319c-.275 0-.506.102-.665.319v-.347h-.014zm4.221.881c.028-.217.159-.405.404-.405.26 0 .362.188.362.405h-.767zm1.734 1.012c-.274.144-.621.275-.925.275-.491 0-.81-.347-.81-.81h1.706c-.014-.853-.433-1.344-1.3-1.344-.767 0-1.345.55-1.345 1.33 0 .419.144.824.506 1.084.303.231.723.274 1.099.274.289 0 .592-.057.867-.173l.202-.636z" fill="#267E44"/><path d="M28.69 20.934h-.015a.727.727 0 0 1-.347.086h-.766v.015c.203.173.188.332.188.592v1.316c0 .26.015.42-.188.593v.014h1.33v-.014c-.202-.174-.188-.333-.188-.593v-.824c0-.145-.014-.231.072-.332a.57.57 0 0 1 .434-.188c.087 0 .188.029.29.043v-.665l-.203-.015c-.275 0-.506.145-.593.39v-.418h-.014zm.983 2.558c.303.072.621.13.925.13.578 0 1.402-.159 1.402-.896 0-.275-.188-.492-.42-.65-.173-.116-.404-.174-.592-.232-.13-.043-.318-.087-.318-.26 0-.145.217-.174.318-.174.246 0 .492.073.708.217v-.578a3.364 3.364 0 0 0-.853-.101c-.289 0-.578.029-.838.173-.246.145-.405.362-.405.665 0 .737 1.316.766 1.316 1.128 0 .202-.232.245-.39.245-.347 0-.68-.13-.969-.303l.116.636zM6.63 21.425s.781 2.27.796 2.27h.607l1.17-3.76v-.014H8.28v.015c.101.116.188.246.188.419 0 .145-.058.304-.087.434l-.463 1.633h-.014l-.55-1.792c-.057-.203-.13-.39-.13-.593 0-.029.015-.072.03-.087v-.014H6.095v.014c.13.102.246.405.246.564 0 .116-.058.304-.087.42l-.39 1.503H5.85l-.665-2.501H4v.014c.202.16.29.347.361.593l.593 2.053c.116.375.361 1.07.361 1.084 0 .014.55-.03.752 0l.564-2.255zm10.409 1.749a1.76 1.76 0 0 1-.333-.029c-.144-.029-.245-.188-.245-.39 0-.188.173-.26.318-.333l.173-.087v.188c-.015.26-.015.463.087.65zm.433.361c.145.058.29.073.448.073l.217-.015.232-.477c-.477-.014-.463-.318-.463-.68v-.433c0-.318-.029-.636-.303-.853-.217-.159-.507-.202-.767-.202-.23 0-.462.014-.694.072l-.26.622c.203-.102.463-.188.694-.188.145 0 .347.058.347.231 0 .463-1.518.13-1.518 1.142 0 .26.145.506.362.65.159.102.404.13.592.13l1.113-.072z" fill="#267E44"/></svg>