<svg width="36" height="36" fill="none" xmlns="http://www.w3.org/2000/svg"><path d="M18 0c2.837 0 5.52.656 7.907 1.825C31.884 4.753 36 10.895 36 18c0 9.942-8.058 18-18 18-9.94 0-18-8.057-18-18C0 8.06 8.06 0 18 0z" fill="#F2F4F7"/><path fill-rule="evenodd" clip-rule="evenodd" d="M18.365 21.856h1.837l.197.007.086.059.056.087-.055.139-.075.143-.015.125-.04.096-.069.081-.155.027-.175-.004h-.843l-.167-.005-.146.021-.053.043-.041.053-.02.223.012.236.027.054.008.04.017.025v.012h.492l.132-.006.122.022.058.067.014.092.002.024-.013.011-.052.087-.04.093-.08.142-.012.084-.054.074-.073.055-.139.022-.154-.009-.143.016-.059.035-.046.063-.02.235.007.261v1.473l-.372.004-.323-.023-.046-.064-.009-.22V22.44l-.002-.074.015-.056.078-.134.05-.146.086-.035.086-.072.109-.068zm-12.298.105.16.01.101.074.22.115.113.08.07.079.021.235-.006.261v2.257l-.005.126.025.113.015.026.023.016.017.061.048.041.239.021.238-.02.072-.082.036-.104.005-2.513v-.469l-.004-.125.013-.117.03-.046.047-.029h.144l.094.07.164.076.136.131.067.079.011.172v2.573l.006.21.029.055.045.084.032.03.052.015.234.01.118-.018.082-.044.066-.167.004-2.667v-.385l-.002-.088.015-.079.038-.041.057-.022.121.006.093.072.216.139.192.181.02.146.004.278-.006.484v2.257l-.01.219-.033.063-.092.164-.15.115-.148.066-1.72.004h-.69l-.315-.006-.119-.046-.118-.08-.091-.107-.036-.123h-.012l-.034-.162L6 25.343l.008-.517v-2.818l.059-.047zm9.957.772.07.028.044.052.034.154-.02.34.075.047.212.017.23-.006.163.011.002.11-.016.053-.033.024-.016.127-.066.173-.091.159-.091.09-.112.014-.115.004-.094.04-.024.006-.011.019v1.18l.041.064.147.072.267.002.143.011.071.042-.01.087-.027.05-.007.08-.04.075-.013.084-.057.103-.035.114h-.585l-.13.004-.12-.018-.166-.152-.044-.013-.032-.02h-.011l-.027-.101-.02-.11-.012-.01-.033-.065-.017-.07-.037-.066-.013-.2.007-.208v-.982l-.072-.023h-.178l-.066-.024-.023-.071.006-.08.081-.156.017-.098.037-.055.056-.13.065-.118.05-.024.062-.004.011-.012h.012l-.013-.122.013-.119.068-.084.118-.094.226-.137.075-.027.075-.037zm-5.663.585h.948l.502.005.114.05.097.085.172.178.022.09.033.073.011.165-.004.172v.41l-.01.23-.03.053-.098.174-.175.099-.073.034-.236.013-.242-.007h-.434l-.018.001-.006-.013h-.011L10.88 25l-.005-.326.009-.196.03-.045.046-.03.172-.01h.304l.109-.015.032-.032.035-.023-.022-.08-.055-.058-.157-.013h-.374l-.143-.005-.135.014-.045.024-.029.036v1.1l.06.117v.012h1.615l.069.023.014.103-.014.103-.032.056-.002.027-.012.015-.076.187-.048.088-.074.071-.157.021-.173-.005h-1.075l-.204.008-.19-.02-.071-.057-.07-.032-.088-.07-.04-.01-.028-.018h-.011L10 25.858l-.044-.085-.004-1.11v-.585l.005-.315.099-.218.04-.048.057-.034.119-.053.089-.092zm9.514 0h.807l.145-.007.133.023.042.038.022.051-.077.263-.065.15-.048.066-.01.053-.037.03-.002.048-.021.033-.245.008-.13.001-.086.024-.052.044-.038.056-.011.206v1.754l-.36.007-.193-.012-.118-.038-.02-.03-.012-.196v-.374l.002-1.544.024-.095.022-.091.069-.096.05-.106.067-.076.028-.07.114-.12zm1.415 0h.82l.177-.007.17.017.103.056.096.073.07.03.144.139.106.163.021.097.029.054.017.087.03.065.013.188-.005.195v.749l.007.22-.018.21-.07.138-.026.104-.113.13-.13.117-.145.021-.16-.005-1.217-.004-.085-.03-.082-.039-.095-.023-.052-.082-.04-.094-.038-.044-.033-.048-.014-.161-.046-.096-.011-.166.004-.171-.003-.12.013-.11.069-.085.065-.085.067-.197v-.012l.074-.024.064-.042.133-.076.456-.014.425.023.026.097.008.186-.005.33.002.036-.013.022v.012h-.351l-.195.01-.06.035-.04.057-.019.14.023.043.04.026.095.026.064.03.323.011.298-.026.06-.071.034-.084.015-.206-.007-.213-.004-.596-.032-.086-.01-.16h-.948l-.18.005-.16-.021-.038-.068.018-.092.078-.158.018-.086.04-.119v-.036l.013-.021.117-.164zm5.114 0h.83l.173-.006.165.014.276.112.126.085.108.104.031.07.073.076.059.085.014.43-.026.405-.038.04-.004.073-.029.031-.05.024H28.1l-.001.05-.021.032-.071.012.002.049-.013.033v.011l-.122.014-.055.041-.059.033h-.314l-.118-.039-.26.002-.125-.022-.045-.026-.027-.042-.01-.206-.006-.16.014-.153.03-.047.052-.03.15-.026.309.005.13-.039.028-.003.018-.015h.01l-.02-.14-.032-.053-.055-.048-.115-.021-.128.005h-.468l-.074-.003-.054.014h-.012l-.042.13-.005.63-.007.219.014.213.041.099.073.078.178.018.193-.006h.995l.091-.002.072.013h.012v.082l.048-.002.033.014h.012l-.01.172-.093.198-.037.051-.015.083-.013.033-.04.033-.185.02-.203-.006h-.925l-.213.007-.206-.014-.205-.095-.049-.046-.054-.031-.029-.004-.016-.016h-.012l-.026-.08-.02-.083-.059-.048-.039-.06-.008-.184v-.375l.003-1.204.057-.14.033-.048v-.03l.012-.016.066-.114.095-.095.07-.03.079-.07.1-.065zm2.492 0h.75l.156-.007.139.03.04.057.013.088-.035.216-.078.196-.04.063-.032.024.002.047-.014.034v.012l-.242-.007-.218.02-.06.046-.042.062-.017.157.006.166v1.52l.002.042-.014.029-.079.034-.09.014-.193-.002-.195.006-.093-.014-.066-.045-.025-.21.004-.239v-1.45l-.004-.179.011-.171.07-.115.044-.062.02-.06.01-.021.06-.075.071-.065.14-.141zm-15.797.047h1.708l.174.007.048.046.01.082-.02.076-.036.034-.009.052-.038.03-.01.113-.07.093-.034.113-.024.06-.035.038-.113.02-.123-.005h-.737l-.131-.004-.12.019-.044.043-.016.06.01.08.05.056.092.017.1-.002h.387l.196.007.063.031.107.03.132.12.093.054.074.08.02.134.03.062.02.098.03.064.006.22-.005.34-.029.064-.021.097-.034.085-.001.048-.015.033v.012l-.088.033-.067.06-.061.06-.077.031-2.011.003.012-.076.034-.052h.012l.005-.085.032-.07.022-.097.027-.044.044-.094.022-.083.051-.07.124-.021.14.003h1.155l.016-.012h.012l.002-.17-.018-.079-.05-.052-.13-.02-.143.005h-.41l-.184-.008-.056-.028-.117-.058-.108-.071-.08-.047-.01-.04-.018-.029-.047-.082-.035-.061-.01-.079-.04-.072-.008-.29-.007-.214.014-.206.086-.165-.001-.03.014-.017.067-.121.051-.039.055-.03.095-.09zm10.825 0h1.673l.172.01.034.027.012.047-.023.128-.078.232-.012.011-.03.06-.016.065-.049.066-.066.052-.147.021-.16-.006-.994.002-.078.016-.063.052.011.175.05.06.06.045.105.014.113-.002h.491l.245.007.084.053.076.072.043.013.032.02h.012l-.002.066.014.05v.012l.093.034.044.142.003.49-.009.243-.036.066-.02.097-.072.087-.03.066-.072.084-.084.07-.127.042-.147.012-.304-.007h-1.51l.007-.162.033-.073.02-.095.08-.113.034-.059.014-.07.133-.107.174-.018.184.008h.947l.071-.012h.012v-.293l-.012-.011v-.012l-.901-.003-.093-.044-.094-.044h-.037l-.021-.014H23.7l.002-.042-.012-.028v-.012l-.072-.033-.042-.066-.106-.12-.02-.131-.035-.085-.007-.267.007-.21.057-.126.066-.124.02-.098.049-.102.063-.076.083-.052.17-.1z" fill="#008752"/><path fill-rule="evenodd" clip-rule="evenodd" d="M18.368 21.865h1.837l.198.007c.046.01.136.097.142.145.007.058-.11.219-.13.282l-.016.124a.322.322 0 0 1-.108.178c-.05.04-.253.022-.331.022h-.843c-.076 0-.263-.018-.313.016a.287.287 0 0 0-.094.096c-.027.056-.023.386-.007.458l.027.055c.006.016.004.064.025.064v.011h.491c.074 0 .195-.018.254.016.06.035.072.09.073.16 0 .017.008.035-.012.035-.044.05-.061.12-.092.179-.026.049-.059.093-.08.142l-.013.084a.305.305 0 0 1-.126.129c-.164.074-.438-.083-.54.127-.037.074-.014.386-.014.495v1.47h-.557a.382.382 0 0 1-.139-.02c-.02-.018-.04-.036-.045-.064-.016-.066-.008-.146-.008-.22v-3.408c0-.025-.01-.129.011-.129.037-.044.13-.221.13-.28l.085-.036.086-.071c.035-.027.072-.037.11-.067zm-12.301.104c.053 0 .112-.005.16.01l.101.075c.096.045.354.17.403.273.037.08.015.382.015.495v2.252c0 .074-.018.184.02.239.01.014.02.041.038.041a.11.11 0 0 0 .065.103c.058.027.419.028.477 0 .054-.028.101-.128.109-.185l.004-2.51v-.466c0-.077-.013-.174.01-.242a.13.13 0 0 1 .076-.075.293.293 0 0 1 .145 0l.094.07.163.077.136.13.067.079c.018.048.011.116.011.172v2.567l.007.21.028.054c.032.062.044.122.13.13.118.011.361.03.434-.052a.435.435 0 0 0 .066-.167l.003-2.66v-.386c0-.053-.009-.126.013-.167.037-.068.144-.08.217-.057l.093.072c.148.089.291.175.407.32.041.052.018.775.018.906v2.253c0 .072.01.154-.009.218l-.033.063a.468.468 0 0 1-.242.279c-.045.024-.096.058-.15.066l-1.719.004h-.957a.46.46 0 0 1-.048-.008c-.146-.03-.365-.184-.365-.354h-.01c-.019-.021-.03-.088-.036-.178v-3.604a.171.171 0 0 0 .059-.047zm9.96.771c.222.036.128.397.128.572l.074.048c.095.031.326.01.442.01.058 0 .112.012.164.012.01.042.01.186-.047.186.023.113-.156.502-.264.547-.065.027-.157.007-.227.02l-.095.04c-.016.004-.035.002-.035.024l.001 1.178c.006.028.021.043.04.064a.35.35 0 0 0 .147.072c.093.015.459-.029.48.054.024.086-.035.1-.035.138l-.007.08-.04.074-.014.084c-.03.072-.092.128-.092.216h-.584c-.062 0-.144.011-.206 0a.166.166 0 0 1-.044-.014l-.166-.15c-.018-.013-.076-.014-.076-.034h-.013c-.009-.077-.045-.124-.046-.21 0-.015.004-.011-.012-.011-.042-.045-.028-.08-.05-.134-.01-.024-.031-.04-.036-.066-.025-.123-.007-.277-.007-.407v-.817c0-.034.01-.164 0-.164-.072-.057-.253.014-.316-.046-.03-.03-.025-.11-.017-.151.01-.054.054-.11.082-.156l.017-.097.037-.056c.027-.06.079-.204.12-.247.027-.027.07-.027.111-.029.018 0 .013.003.013-.011h.012a.513.513 0 0 1 0-.24c.036-.1.321-.27.412-.316.05-.027.098-.022.149-.063zm-5.664.583h.947l.503.005c.08.014.151.079.21.136l.172.177.022.089.034.074c.02.1.007.228.007.336v.41c0 .074.01.163-.01.23l-.03.052c-.069.169-.104.203-.274.272-.025.01-.045.03-.073.034-.145.026-.325.007-.479.007h-.432c-.018 0-.024.007-.024-.012h-.012c-.006-.053-.034-.083-.042-.13l-.005-.325c0-.065-.008-.14.01-.196a.136.136 0 0 1 .076-.074c.05-.016.115-.01.172-.01l.304-.001c.035-.001.08 0 .108-.015.023-.013.041-.054.067-.054-.015-.055-.018-.112-.076-.14-.044-.019-.104-.012-.158-.012h-.374c-.088 0-.2-.016-.278.01-.021.006-.073.038-.073.06l-.002 1.003c0 .022-.015.094.002.094l.059.117v.011h1.521c.033 0 .164-.006.164.024a.38.38 0 0 1 0 .204l-.032.057c-.006.016.004.042-.015.042-.06.114-.075.27-.197.346a.13.13 0 0 1-.04.013h-1.73l-.03-.01-.071-.056-.07-.031-.088-.072c-.016-.008-.068-.008-.068-.027h-.011c-.013-.1-.08-.111-.09-.187l-.004-1.108v-.584l.004-.314c.01-.058.072-.162.1-.218.037-.077.15-.095.216-.134.037-.022.063-.061.09-.093zm9.515 0h.807c.079 0 .217-.022.279.016.029.02.06.053.064.09.005.06-.148.478-.19.478.001.03-.01.082-.047.082-.002.023.002.081-.023.081-.106.032-.392-.02-.461.034-.032.024-.078.06-.09.099-.02.057-.012.139-.012.206v1.75h-.502c-.08-.006-.143-.019-.169-.042l-.02-.031c-.02-.054-.011-.13-.011-.194v-.374l.001-1.54c.002-.08.047-.114.047-.188.066-.053.076-.133.118-.2l.067-.077.029-.07.113-.12zm1.416 0h.82c.108 0 .248-.018.348.01.077.022.13.087.198.129l.07.03c.097.084.205.185.25.303l.021.096.029.053.017.088.03.063c.024.115.008.261.008.384v.747c0 .123.023.32-.01.429l-.07.139-.026.103c-.022.044-.2.22-.244.247a.15.15 0 0 1-.055.016h-.25l-1.217-.004c-.063-.008-.11-.051-.167-.07l-.095-.023c-.04-.023-.068-.134-.092-.174-.02-.033-.061-.056-.07-.093l-.015-.16c-.007-.039-.04-.06-.047-.096-.02-.102-.006-.229-.006-.337 0-.075-.012-.165.01-.23.021-.068.114-.1.134-.17.009-.026.05-.195.066-.195v-.012c.11-.014.17-.114.272-.142.075-.022.846-.02.881.008.05.039.03.512.03.612 0 .019.008.06-.012.06v.01h-.351c-.065 0-.14-.007-.196.01-.09.03-.137.139-.118.233.014.074.102.074.159.093l.063.03c.076.016.578.02.621-.014a.318.318 0 0 0 .094-.156c.029-.122.008-.285.008-.417l-.004-.595c-.004-.038-.023-.054-.032-.085-.016-.048-.01-.106-.01-.16h-.948c-.083 0-.283.017-.341-.018-.1-.059.032-.258.058-.316l.02-.086c.01-.044.034-.066.038-.118.002-.02-.008-.058.014-.058.045-.053.064-.11.117-.164zm5.115 0h.83c.108 0 .24-.017.338.01.182.045.384.15.511.299l.03.07c.034.057.117.093.133.16.02.09.02.778-.013.834-.008.013-.021.04-.038.04.023.135-.083.1-.083.128h-.01c-.002.022.002.082-.024.082l-.07.012c0 .02.01.082-.012.082v.011c-.04 0-.088-.002-.122.014-.042.019-.065.065-.113.073a1.075 1.075 0 0 1-.314 0c-.047-.007-.067-.034-.12-.038-.125-.01-.412.042-.456-.088-.02-.057-.01-.139-.01-.206 0-.1-.016-.224.008-.313.042-.15.397-.09.54-.097.06-.003.085-.029.132-.039.014-.003.045 0 .045-.018h.012c-.004-.114-.017-.179-.11-.24-.051-.035-.171-.017-.241-.017h-.469c-.024 0-.128-.01-.128.012h-.012c-.008.054-.035.08-.042.129l-.005.63c0 .136-.02.301.007.43.01.048.063.156.115.177.085.033.266.011.37.011h.995c.026 0 .164-.008.164.012h.012v.081c.02 0 .08-.01.08.012h.013c-.002.058.006.12-.01.173-.02.067-.063.131-.093.196-.008.018-.038.031-.038.052-.027.066.012.105-.067.148a.201.201 0 0 1-.055.015h-1.633l-.046-.008a.99.99 0 0 1-.205-.095c-.032-.027-.062-.067-.102-.077-.016-.004-.045.002-.045-.02h-.012c-.008-.063-.046-.095-.046-.162-.035-.025-.088-.065-.098-.108l-.008-.184v-.373l.003-1.202a.363.363 0 0 1 .057-.14c.01-.016.033-.026.033-.047.004-.018-.009-.046.013-.046.038-.072.083-.163.16-.21l.07-.03.079-.07c.033-.025.068-.03.1-.065zm2.493 0h.75c.087 0 .23-.023.294.023.152.105-.058.643-.131.643 0 .02.01.081-.012.081v.012c-.104 0-.39-.02-.46.014a.242.242 0 0 0-.102.107c-.03.087-.011.223-.011.323v1.517c0 .02.008.07-.012.07a.309.309 0 0 1-.155.047h-.46c-.043-.008-.08-.023-.102-.054-.038-.055-.02-.356-.02-.447V24.21c0-.114-.014-.244.007-.35.011-.064.133-.16.133-.235 0-.016-.007-.022.011-.022.029-.054.086-.099.13-.14l.14-.14zM13.1 23.37h1.709l.173.008c.093.023.06.238.003.238 0 .028-.01.082-.047.082l-.012.112-.069.093c-.024.05-.036.181-.092.21-.059.031-.164.016-.237.016h-.738c-.076 0-.188-.016-.249.014a.118.118 0 0 0-.062.103c-.005.056.01.11.062.137.05.024.13.015.19.015h.387l.197.006.064.03c.033.011.078.01.106.031l.132.12c.057.032.136.066.167.133l.02.134.03.062.02.098c.008.023.025.036.03.063l.006.222-.005.337c-.004.026-.019.042-.028.064l-.022.097c-.01.031-.03.049-.034.085-.002.018.005.08-.016.08v.013c-.141.014-.173.172-.293.184l-2.012.003v-.003l.013-.074c.006-.019.034-.029.034-.051h.011c-.013-.083.015-.092.037-.156l.022-.096.027-.043c.013-.034.032-.062.044-.095.024-.065.014-.107.074-.153.043-.033.199-.018.265-.018h1.123c.018 0 .047.008.047-.011h.011c-.003-.099.03-.255-.066-.3-.067-.034-.191-.015-.273-.015l-.41-.001-.185-.007-.055-.029c-.082-.039-.154-.07-.226-.129l-.078-.046c-.012-.016-.01-.069-.03-.069-.014-.015-.043-.082-.046-.082l-.036-.061c-.005-.02.005-.079-.01-.079l-.04-.072c-.02-.084-.007-.197-.007-.29 0-.134-.02-.293.006-.418.007-.038.087-.15.087-.164 0-.02-.009-.048.012-.048.015-.028.048-.1.068-.12.034-.04.066-.042.105-.07l.096-.09zm10.827 0h1.674c.055 0 .122-.006.17.01.13.044-.045.35-.053.434-.001.014.004.012-.012.012-.036.039-.03.076-.046.123a.308.308 0 0 1-.115.119c-.074.036-.218.014-.308.014l-.994.002c-.029 0-.058 0-.077.016-.017.012-.046.052-.064.052.008.032.005.176.012.176.022.034.07.089.11.104.06.022.146.012.218.012h.491l.245.007c.064.012.105.086.159.124.017.013.076.013.076.033h.012c0 .023-.01.116.012.116v.012c.033.004.073.035.093.035 0 .057.038.084.044.14l.003.49c0 .08.01.17-.009.242l-.036.066c-.01.034-.004.066-.02.098l-.072.086-.03.065a.638.638 0 0 1-.156.155.463.463 0 0 1-.17.047h-1.918l.006-.162.033-.073.021-.096c.043-.083.127-.136.127-.24l.133-.107c.097-.033.248-.01.359-.01h.854c.028 0 .163.006.163-.012h.012v-.293c0-.015.005-.01-.012-.01v-.012l-.9-.004c-.08-.008-.107-.08-.188-.087-.02-.002-.058.006-.058-.014h-.012c0-.02.008-.07-.011-.07v-.012c-.083-.013-.07-.043-.114-.1l-.106-.118c-.02-.037-.013-.09-.02-.132l-.034-.084c-.017-.08-.008-.18-.008-.267 0-.07-.007-.145.008-.209.019-.085.09-.168.122-.25l.02-.098c.012-.032.034-.072.05-.102.064-.121.22-.143.316-.228z" fill="#008752"/><path d="M21.407 13.382v.313l-2.504-1.428v.665l2.524 1.37-.001 2.633-2.523-1.303v1.819h3.208v-5.838l2.21 1.32v6.713l-13.32.012v-6.76l2.19-1.316v5.869H16.4v-1.82l-2.504 1.292V14.3l2.504-1.369v-.665l-2.504 1.428v-2.62L17.651 9l3.756 2.074v2.308z" fill="#008752"/></svg>