<svg height="36" viewBox="0 0 36 36" width="36" xmlns="http://www.w3.org/2000/svg"><mask id="a" fill="#fff"><path d="M0 0h27.06v6.927H0z" fill-rule="evenodd"/></mask><mask id="b" fill="#fff"><path d="M0 0h12.069v11.663H0z" fill-rule="evenodd"/></mask><mask id="c" fill="#fff"><path d="M0 0h19.481v9.55H0z" fill-rule="evenodd"/></mask><g fill="none" fill-rule="evenodd"><path d="M18 0c2.837 0 5.52.656 7.907 1.825C31.884 4.753 36 10.895 36 18c0 9.942-8.058 18-18 18-9.94 0-18-8.057-18-18C0 8.06 8.06 0 18 0z" fill="#f2f4f7" fill-rule="nonzero"/><path d="M26.339 6.039h.163l.316.46.044.076h.011v-.536h.187v.875h-.16l-.325-.477-.038-.065h-.013v.542h-.187v-.875zm-.433.436c0-.233-.076-.303-.198-.303-.124 0-.2.084-.203.303-.002.219.076.306.201.306.121 0 .2-.073.2-.306zm-.596.002c0-.333.16-.449.398-.449s.393.124.393.449c0 .326-.157.45-.395.45-.239 0-.396-.121-.396-.45zm-.406.437h.187v-.875h-.187zm-.626-.724-.24.006v-.157h.668v.157l-.243-.006v.724h-.187V6.19zm-.627.402-.087-.301-.011-.049h-.014l-.011.049-.089.301zm-.499.302.306-.861h.181l.323.861v.02h-.206l-.07-.195h-.271l-.062.195h-.201zm-.555-.432c.092 0 .173-.027.173-.139 0-.111-.065-.13-.17-.13h-.06v.269zm-.241-.423h.238c.263 0 .371.07.371.273 0 .165-.084.209-.181.239v.013l.027.005c.089.035.143.209.197.318v.024h-.205c-.041-.116-.084-.293-.171-.317h-.092v.317h-.187zm-.436.436c0-.233-.076-.303-.198-.303-.124 0-.2.084-.203.303-.002.219.076.306.201.306.124 0 .2-.073.2-.306zm-.593.002c0-.333.16-.449.398-.449.239 0 .393.124.393.449 0 .326-.157.45-.396.45-.24 0-.395-.121-.395-.45zm-.585 0h.068c.108 0 .162-.035.162-.143 0-.11-.054-.141-.154-.141h-.076zm-.187-.438h.233c.255 0 .377.06.377.284 0 .225-.147.29-.331.29h-.095v.303h-.187v-.877zm-.628.423c.092 0 .173-.027.173-.139 0-.111-.065-.13-.17-.13h-.06v.269zm-.241-.423h.238c.263 0 .372.07.372.273 0 .165-.084.209-.182.239v.013l.027.005c.089.035.143.209.198.318v.024h-.206c-.041-.116-.084-.293-.171-.317h-.092v.317h-.187zm-.436.436c0-.233-.076-.303-.198-.303-.124 0-.2.084-.203.303-.002.219.076.306.2.306.125 0 .201-.073.201-.306zm-.593.002c0-.333.16-.449.398-.449.239 0 .393.124.393.449 0 .326-.157.45-.396.45-.241 0-.395-.121-.395-.45zm-.187.42a1.154 1.154 0 0 1-.225.028c-.279 0-.435-.119-.435-.445 0-.336.208-.455.471-.455.081 0 .135.017.176.028v.159a.872.872 0 0 0-.182-.025c-.151 0-.273.025-.273.288 0 .26.124.287.262.287.074 0 .133-.016.201-.03zm7.788-1.665V.068L27.06 0v5.232zm-1.349-1.803c0-.691-.108-1.254-.75-1.254-.647 0-.809.541-.809 1.254 0 .661.13 1.232.772 1.232.644 0 .787-.542.787-1.232zm-.755-1.893c1.137 0 1.573.682 1.573 1.893 0 1.134-.409 1.877-1.587 1.877-1.18 0-1.594-.743-1.594-1.877-.003-1.211.471-1.893 1.608-1.893zm-2.835 1.893c0-.691-.108-1.254-.75-1.254-.647 0-.81.541-.81 1.254 0 .661.13 1.232.772 1.232.641 0 .788-.542.788-1.232zm-.758-1.893c1.137 0 1.573.682 1.573 1.893 0 1.134-.409 1.877-1.589 1.877-1.181 0-1.596-.743-1.596-1.877.003-1.211.477-1.893 1.612-1.893zm-6.496 3.696V.068L14.866 0v5.232zM11.866 1.59h.544l.108.298h.052a1.49 1.49 0 0 1 .983-.349c.051 0 .108 0 .168.008v.801c-.147-.021-.298-.043-.453-.043-.219 0-.392.051-.603.149v2.783h-.802V1.59zm-1.479 3.643h.801V1.59h-.801zM10.788.12c.414 0 .482.243.482.52 0 .273-.087.527-.482.527s-.474-.251-.474-.527c0-.277.073-.52.474-.52zM6.751.068 7.552 0v1.27l-.013.475h.029c.372-.142.672-.209 1.035-.209.647 0 1.086.298 1.086 1.432v2.264h-.802V3.036c0-.683-.327-.772-.698-.772-.233 0-.431.052-.634.111v2.857h-.804zm-2.57 5.164-.983-3.761-.999 3.761h-.807L0 .052h.801l.992 3.764.996-3.764h.794L4.59 3.816 5.578.052h.802l-1.392 5.18z" fill="#000" mask="url(#a)" transform="translate(4.94 14.579)"/><path d="M11.888.194c-.669-.723-3.166.65-5.71 2.792v.28C8.67 1.141 11.018-.107 11.56.478c.277.298.033 1.226-.59 2.307a.755.755 0 0 0-.28.262A25.396 25.396 0 0 1 7.473 6.83C4.228 9.95 1.084 11.84.448 11.153.085 10.76.68 9.493 1.766 7.99h-.3C.316 9.59-.308 10.968.152 11.467c.802.867 4.44-1.252 7.68-4.363 1.468-1.41 2.583-2.607 3.271-3.668.198-.306.205-.526.124-.62.78-1.238 1.06-2.194.661-2.622" fill="#eeb111" mask="url(#b)" transform="translate(13.808 12.004)"/><g fill="#000"><path d="M6.43 1.675c.034-.033.061-.065.066-.117.006-.051-.024-.086-.07-.105-.089-.032-.2-.003-.279.024-.043.016-.086.03-.133.044a4.512 4.512 0 0 1-.614.127c-.11.013-.227.027-.34.035a6.287 6.287 0 0 1-.456.016c-.103 0-.206-.003-.309-.005a9.288 9.288 0 0 1-.422-.022c-.13-.011-.26-.021-.393-.038a4.676 4.676 0 0 1-.647-.122 2.171 2.171 0 0 1-.225-.07.271.271 0 0 0-.103-.021c-.032 0-.076.007-.092.04-.019.032.003.07.024.092a.294.294 0 0 0 .087.06c.095.038.193.073.29.1a4.715 4.715 0 0 0 .595.127c.112.016.226.033.342.043.12.014.241.022.363.03.124.008.252.01.376.014.257.002.512-.006.77-.024.091-.01.183-.017.273-.028l.067-.008c0 .046.06.076.098.087a.416.416 0 0 0 .141.016 10.79 10.79 0 0 0 1.115-.141c.171-.032.333-.07.48-.111a3.53 3.53 0 0 0 .403-.132c.12-.046.225-.098.314-.15a.97.97 0 0 0 .211-.162.4.4 0 0 0 .101-.173.283.283 0 0 0-.017-.176.465.465 0 0 0-.135-.173 1.237 1.237 0 0 0-.255-.168 2.617 2.617 0 0 0-.365-.155A6.646 6.646 0 0 0 6.664.177c-.2-.035-.41-.064-.633-.09A14.517 14.517 0 0 0 4.612.003a15.92 15.92 0 0 0-1.476.046c-.235.024-.47.048-.699.078-.227.03-.444.065-.65.106a7.208 7.208 0 0 0-.573.135 4.491 4.491 0 0 0-.48.16 2.423 2.423 0 0 0-.37.18C.26.772.176.838.116.904a.437.437 0 0 0-.11.206.332.332 0 0 0 .026.21.61.61 0 0 0 .17.21c.082.067.184.135.31.197.124.065.273.125.44.184.168.057.355.112.561.163a11.242 11.242 0 0 0 1.419.238c.263.03.536.05.818.068l.122.008a.214.214 0 0 0 .108-.02c.032-.012.065-.04.068-.077.003-.038-.027-.068-.06-.084a.303.303 0 0 0-.105-.028 10.364 10.364 0 0 1-1.861-.27 6.512 6.512 0 0 1-.31-.09 2.399 2.399 0 0 1-.624-.287.844.844 0 0 1-.157-.138.363.363 0 0 1-.08-.14.27.27 0 0 1-.006-.144c.01-.046.035-.092.07-.138S1 .88 1.056.836a1.61 1.61 0 0 1 .21-.128 2.43 2.43 0 0 1 .272-.116c.058-.022.117-.041.174-.06.116-.035.236-.067.355-.097.067-.016.138-.03.211-.046.132-.027.271-.052.417-.073.146-.022.295-.041.45-.058.151-.016.308-.026.468-.037a12.748 12.748 0 0 1 1.884.032c.147.014.29.03.428.052.136.019.268.04.393.065.246.049.465.103.65.168.181.062.33.132.44.205a.51.51 0 0 1 .2.225c.023.076.01.152-.045.225s-.146.144-.273.209a2.415 2.415 0 0 1-.47.175 2.392 2.392 0 0 1-.39.098m12.23 4.427c-.054.826-.365 1.048-.812 1.048-.089 0-.17 0-.249-.003-.37.356-.748.699-1.135 1.035V9.55l.802-.09V7.792h.021c.225.044.474.073.7.073.93 0 1.494-.631 1.494-1.906 0-.244-.019-.463-.054-.656-.255.27-.51.537-.767.799m-1.405-1.096c.197-.068.392-.103.598-.103.414 0 .682.122.778.528.205-.231.405-.466.601-.702a1.09 1.09 0 0 0-1.016-.612c-.4 0-.809.184-1.048.32h-.035l-.065-.268h-.604v3.43c.26-.232.515-.47.766-.712.025-.78.025-1.161.025-1.881" mask="url(#c)" transform="translate(4 12)"/><path d="M6.405 13.02a.327.327 0 0 1-.122.027c-.035 0-.092-.007-.11-.042-.021-.038.01-.08.038-.105a.319.319 0 0 1 .103-.068c.525-.249 1.243-.336 1.81-.336h.064c.208.003.414.011.612.027.18.017.36.038.539.071.159.03.303.065.425.105.119.038.214.082.287.128.07.043.116.092.138.138a.147.147 0 0 1 .013.056.139.139 0 0 1-.027.082.411.411 0 0 1-.157.124c-.07.038-.162.074-.273.104a3.593 3.593 0 0 1-.358.075 4.304 4.304 0 0 1-.406.044c-.068.005-.138.007-.208.01l-.165.003H8.57c-.063 0-.125-.003-.187-.006a2.424 2.424 0 0 1-.176-.013 2.926 2.926 0 0 1-.312-.043 2.231 2.231 0 0 1-.241-.06.844.844 0 0 1-.157-.07.183.183 0 0 1-.07-.076.076.076 0 0 1 .01-.07.203.203 0 0 1 .076-.063.527.527 0 0 1 .125-.048 1.317 1.317 0 0 1 .314-.049 1.51 1.51 0 0 1 .233 0c.057.002.11.011.16.016a1.011 1.011 0 0 1 .279.081.203.203 0 0 1 .075.062c.017.025.02.05.01.071a.117.117 0 0 1-.031.046.505.505 0 0 0 .067-.006 1.167 1.167 0 0 0 .296-.065.38.38 0 0 0 .127-.075.146.146 0 0 0 .03-.046A.102.102 0 0 0 9.2 13a.116.116 0 0 0-.03-.049.417.417 0 0 0-.152-.095 2.032 2.032 0 0 0-.124-.042 2.131 2.131 0 0 0-.151-.035 3.752 3.752 0 0 0-.18-.03 3.325 3.325 0 0 0-.435-.024c-.55 0-1.21.078-1.722.295"/></g></g></svg>