<svg width="36" height="36" fill="none" xmlns="http://www.w3.org/2000/svg"><path d="M18 0c2.837 0 5.52.656 7.907 1.825C31.884 4.753 36 10.895 36 18c0 9.942-8.058 18-18 18-9.94 0-18-8.057-18-18C0 8.06 8.06 0 18 0z" fill="#F2F4F7"/><path d="M12.212 19.276c.008-.279.025-.559.052-.84h-1.279c.031.281.052.561.061.84.009.279.014.577.014.895v.312c0 .318-.005.618-.014.899-.01.28-.03.552-.06.812h1.278c-.027-.26-.044-.531-.052-.812s-.012-.581-.012-.899v-.313c0-.317.004-.615.012-.894zm-.588-2.644a.68.68 0 0 0-.475.18.57.57 0 0 0-.196.435.57.57 0 0 0 .196.437c.13.12.289.179.475.179.187 0 .346-.06.476-.18a.57.57 0 0 0 .196-.436.57.57 0 0 0-.195-.436.68.68 0 0 0-.477-.18zm2.74 1.33c.012-.393.03-.791.056-1.195h-1.28a46.785 46.785 0 0 1 .065 2.49v.469a42.54 42.54 0 0 1-.064 2.468h1.279c-.025-.388-.044-.78-.056-1.173a41.727 41.727 0 0 1-.019-1.295v-.468c0-.47.006-.902.019-1.296zm7.054 3.665a12.088 12.088 0 0 1 .003-1.155c.01-.204.016-.439.016-.705 0-.506-.115-.873-.344-1.1-.23-.227-.558-.34-.983-.34-.255 0-.495.063-.722.19a1.846 1.846 0 0 0-.596.553 1.243 1.243 0 0 0-.43-.552 1.13 1.13 0 0 0-.659-.192c-.272 0-.514.06-.727.18-.213.12-.399.29-.558.51h-.017l.038-.588h-1.236c.031.282.052.563.06.842.01.28.015.578.015.896v.314c0 .318-.005.618-.014.9-.01.282-.03.553-.06.814h1.283a10.22 10.22 0 0 1-.056-.815 29.456 29.456 0 0 1-.013-.902v-.314c0-.361.06-.643.178-.847.12-.204.307-.306.563-.306.238 0 .4.087.485.259.085.173.127.416.127.73v.478c0 .319-.004.62-.012.902-.01.282-.027.554-.056.815h1.28l-.003-.003a9.862 9.862 0 0 1-.056-.812 29.028 29.028 0 0 1-.013-.902v-.565c0-.094.01-.193.026-.298a.908.908 0 0 1 .102-.294.635.635 0 0 1 .209-.223.602.602 0 0 1 .336-.087c.216 0 .383.077.502.231.12.155.179.396.179.726 0 .476-.006.898-.018 1.267a8.468 8.468 0 0 1-.077.96h1.279l-.002-.001c-.01-.183-.02-.37-.029-.566zm4.434.274a.289.289 0 0 1-.157-.07.331.331 0 0 1-.09-.16 1.132 1.132 0 0 1-.03-.294c0-.282.004-.564.01-.849.007-.284.011-.593.011-.926 0-.23-.038-.425-.114-.587a1.025 1.025 0 0 0-.324-.395 1.388 1.388 0 0 0-.493-.223 3.286 3.286 0 0 0-.7-.07c-.273 0-.548.046-.823.14-.276.094-.674.342-.912.52 0 0 .056.369.09.461l.073.37s.57-.588 1.23-.66c.467-.05.668.104.734.258a.63.63 0 0 1 .025.177c0 .068-.01.125-.03.172a.29.29 0 0 1-.132.13 1.48 1.48 0 0 1-.311.117c-.139.039-.328.084-.567.137a3.434 3.434 0 0 0-.52.152 1.53 1.53 0 0 0-.396.223.915.915 0 0 0-.256.321c-.06.125-.09.274-.09.446 0 .125.023.25.068.372a.892.892 0 0 0 .217.328c.1.096.225.17.378.223.153.052.337.078.553.078.263 0 .482-.05.658-.149.174-.099.328-.232.46-.399a.865.865 0 0 0 .298.407c.13.094.3.141.509.141.13 0 .252-.016.366-.047a5.1 5.1 0 0 0 .417-.14s.198-.079.113-.184c-.04-.05-.116.003-.265-.02zm-1.454-1.412c-.004.117-.005.288-.005.512 0 .255-.059.448-.175.578a.584.584 0 0 1-.457.195.444.444 0 0 1-.354-.152c-.089-.102-.133-.248-.133-.441 0-.198.036-.35.107-.454a.765.765 0 0 1 .274-.246c.111-.06.233-.11.368-.148.134-.04.26-.09.38-.153 0 .089-.001.192-.005.309zm4.768-2.124c-.023 0-.108-.01-.136-.01-.29 0-.54.085-.751.255-.21.17-.39.434-.54.793l-.018-.015.025-.954h-1.165c.022.28.036.561.043.84.006.28.01.578.01.896v.312c0 .318-.004.618-.01.9-.007.28-.021.552-.043.812h1.271a10.59 10.59 0 0 1-.055-.814 30.557 30.557 0 0 1-.013-.9v-.314c0-.209.074-.39.223-.544.147-.154.35-.231.605-.231a.862.862 0 0 1 .434.11s.08.017.077-.063c-.002-.063-.008-.086-.008-.132 0-.047-.007-.116-.007-.158l-.004-.227c.007-.143.015-.219.023-.307a2.17 2.17 0 0 1 .039-.249zm-19.463.068h-.456l-.619 2.111c-.083-.255-.166-.508-.246-.758a67.861 67.861 0 0 1-.418-1.353H6.542L5.93 20.52l-.218-.69c-.147-.477-.29-.943-.426-1.397H4l.128.327a122.48 122.48 0 0 1 .716 1.995c.09.261.178.518.26.771l.218.668h.989c.13-.416.268-.836.413-1.259.145-.422.291-.852.439-1.29h.017a53.027 53.027 0 0 0 .4 1.24l.222.672c.074.227.145.439.214.637h.946l.234-.657.269-.75a54.975 54.975 0 0 1 .54-1.462c.083-.214.159-.398.227-.555a3.38 3.38 0 0 1 .162-.337h-.691z" fill="#8E8E7B"/><path d="m25.326 14-3.44 2.085L18.445 14h-2.332l5.771 3.627L27.657 14h-2.331z" fill="#749993"/><path d="m29.668 14-3.44 2.085L22.788 14h-2.33l5.77 3.627L32 14h-2.332z" fill="#004655"/></svg>