<svg height="36" viewBox="0 0 36 36" width="36" xmlns="http://www.w3.org/2000/svg"><mask id="a" fill="#fff"><path d="M0 0h21.033v6.338H0z" fill-rule="evenodd"/></mask><mask id="b" fill="#fff"><path d="M0 0h5.694v6.051H0z" fill-rule="evenodd"/></mask><g fill="none" fill-rule="evenodd"><path d="M18 0c2.837 0 5.52.656 7.907 1.825C31.884 4.753 36 10.895 36 18c0 9.942-8.058 18-18 18-9.94 0-18-8.057-18-18C0 8.06 8.06 0 18 0z" fill="#f2f4f7" fill-rule="nonzero"/><path d="M0 .146h1.416l.46 4.375L3.73.146h1.405l.493 4.419L7.417.146h1.411L6.263 6.197H4.658l-.521-4.164-1.773 4.164H.813zm8.356 6.051L9.462.146h1.458l-1.1 6.051zm2.19-.005.293-1.562c.895.179 1.03-.325 1.264-1.54l.113-.602c.326-1.697.982-2.543 2.858-2.315l-.293 1.561c-.895-.178-1.052.499-1.253 1.551l-.113.602c-.326 1.719-1.003 2.532-2.869 2.305zM16.5 2.581c.146-.749.873-1.345 1.751-1.345.759 0 1.334.553 1.334 1.345zm4.533.189c0-1.626-1.134-2.77-2.722-2.77-2.022 0-3.378 1.469-3.378 3.567 0 1.638 1.144 2.771 2.76 2.771 1.469 0 2.564-.711 3.015-1.844h-1.633c-.217.353-.678.575-1.242.575-.867 0-1.409-.575-1.458-1.388h4.565c.06-.309.093-.575.093-.911z" fill="#2e4369" mask="url(#a)" transform="translate(10.967 15)"/><path d="M1.68 1.605 0 3.21h2.858l.298-.7H1.708l.906-.905-.526-.906h2.456L2.278 6.051h.85L5.695 0H.738z" fill="#00b9ff" mask="url(#b)" transform="translate(4 15.146)"/></g></svg>