<svg height="36" viewBox="0 0 36 36" width="36" xmlns="http://www.w3.org/2000/svg"><mask id="a" fill="#fff"><path d="M0 0h12.786v9.665H0z" fill-rule="evenodd"/></mask><g fill="none" fill-rule="evenodd"><path d="M18 0c2.837 0 5.52.656 7.907 1.825C31.884 4.753 36 10.895 36 18c0 9.942-8.058 18-18 18-9.94 0-18-8.057-18-18C0 8.06 8.06 0 18 0z" fill="#f2f4f7" fill-rule="nonzero"/><path d="M24.023 13.973v2.01h3.57l-5.396 7.147h7.9l.323-2.013h-3.962L32 13.973z" fill="#b71488"/><path d="M17.996 12.955h8.678l-6.22 7.962h3.415l-1.672 2.212h-6.413l5.965-7.962-4.285-.008z" fill="#482a7f"/><path d="M15.53 22.004c.763 0 1.387.624 1.387 1.395 0 .77-.624 1.394-1.387 1.394a1.394 1.394 0 1 1 0-2.789zm1.441-.895h-2.158L16.285 12h2.173z" fill="#b71488"/><path d="m0 0 1.195 9.665h1.834l2.752-5.48.408 5.48h1.804L12.786 0h-2.69L7.785 5.202 7.414 0h-2.11L2.852 5.202 2.45 0z" fill="#482a7f" mask="url(#a)" transform="translate(4 13.464)"/></g></svg>