<svg width="36" height="36" fill="none" xmlns="http://www.w3.org/2000/svg"><path d="M18 0c2.837 0 5.52.656 7.907 1.825C31.884 4.753 36 10.895 36 18c0 9.942-8.058 18-18 18-9.94 0-18-8.057-18-18C0 8.06 8.06 0 18 0z" fill="#F2F4F7"/><path fill-rule="evenodd" clip-rule="evenodd" d="M12.191 19.87H12l-.439-1.267a7.79 7.79 0 0 1-.123-.384h-.008c-.043.145-.087.268-.127.384l-.457 1.267h-.196l-.83-2.467h.286l.534 1.64c.043.138.083.26.116.384h.006c.033-.12.08-.242.128-.377l.414-1.163-.164-.484h.28l.548 1.625c.046.142.094.26.127.38h.007c.03-.125.065-.248.105-.369l.523-1.636h.28l-.818 2.467zm2.11-.217a.716.716 0 0 1-.535.217.7.7 0 0 1-.523-.213c-.153-.162-.235-.408-.235-.694 0-.287.086-.526.235-.687a.709.709 0 0 1 .527-.224.71.71 0 0 1 .534.224c.15.162.235.4.235.687 0 .286-.085.529-.238.69zm-.53-1.374c-.318 0-.5.265-.5.676 0 .412.19.684.502.684.314 0 .503-.273.503-.684 0-.411-.182-.676-.506-.676zm1.441 1.591c-.203 0-.29-.14-.29-.33v-2.397h.255v2.271c0 .171.039.205.136.205.018 0 .046 0 .088-.01l.031.2a.42.42 0 0 1-.22.061zm1.023 0c-.258 0-.383-.153-.383-.386v-1.223h-.292v-.236h.292v-.397l.277-.096v.493h.55l-.1.237h-.45V19.4c0 .153.056.222.174.222a.54.54 0 0 0 .318-.13l.087.198a.836.836 0 0 1-.473.18zm.888-.86c0 .331.192.625.578.625.148 0 .31-.059.413-.125l.081.183a.93.93 0 0 1-.549.177c-.545 0-.81-.445-.81-.94 0-.504.287-.878.707-.878.45 0 .696.356.696.896v.062h-1.116zm.424-.73c-.258 0-.42.227-.42.503h.821c0-.243-.136-.504-.401-.504zm1.859.09a.407.407 0 0 0-.159-.03c-.099 0-.261.09-.367.214v1.316h-.258v-1.773h.212l.035.202c.23-.22.357-.247.477-.247a.31.31 0 0 1 .17.053l-.11.266zm.74 1.5a.919.919 0 0 1-.503-.132l.1-.21c.124.08.267.124.415.125.208 0 .36-.095.36-.257 0-.426-.774-.275-.774-.885 0-.25.176-.46.565-.46.18 0 .316.04.428.093v.235a.974.974 0 0 0-.418-.103c-.172 0-.316.063-.316.22 0 .39.788.29.788.86 0 .363-.295.514-.644.514zm3.082 0-1.006-1.116h-.004v1.116h-.279v-2.468h.28v1.135h.003l.937-1.127h.347l-1.036 1.213 1.128 1.247h-.37zm.916 0c-.203 0-.29-.14-.29-.33v-2.397h.254v2.271c0 .171.039.205.137.205.017 0 .045 0 .087-.01l.032.2a.42.42 0 0 1-.22.06v.001zm1.66-.038-.07-.184a.906.906 0 0 1-.575.222c-.24 0-.54-.124-.54-.625v-1.193h.273v1.167c0 .297.124.414.346.414a.634.634 0 0 0 .473-.238v-1.343h.274v1.035c0 .56.01.67.037.745h-.218zm2.442.038h-.247l-.442-1.457h-.01l-.439 1.457h-.239l-.591-1.818h.277l.433 1.433H27l.438-1.433h.247l.441 1.438h.011l.427-1.438h.265l-.583 1.818zm.998-.86c0 .331.192.625.579.625.147 0 .31-.059.412-.125l.081.183a.93.93 0 0 1-.549.177c-.545 0-.81-.445-.81-.94 0-.504.287-.878.707-.878.45 0 .697.356.697.896v.062h-1.117zm.424-.73c-.258 0-.42.227-.42.503h.821c0-.243-.136-.504-.4-.504zm1.859.09a.404.404 0 0 0-.16-.03c-.098 0-.26.09-.366.214v1.316h-.258v-1.773h.212l.035.202c.23-.22.357-.247.477-.247.074 0 .138.03.17.053l-.11.266z" fill="#474747"/><mask id="a" style="mask-type:alpha" maskUnits="userSpaceOnUse" x="4" y="16" width="5" height="5"><path d="M6.182 20.546a2.182 2.182 0 1 0 0-4.364 2.182 2.182 0 0 0 0 4.364z" fill="#fff"/></mask><g mask="url(#a)"><path d="M6.182 20.546a2.182 2.182 0 1 0 0-4.364 2.182 2.182 0 0 0 0 4.364z" fill="#409BD2"/><path fill-rule="evenodd" clip-rule="evenodd" d="M4 16.182h2.91v2.909H4v-2.91z" fill="#A6D1EA"/><path fill-rule="evenodd" clip-rule="evenodd" d="M3.09 17.637h6.183v1.454H3.09v-1.454z" fill="#D4E8B1"/><path fill-rule="evenodd" clip-rule="evenodd" d="M5.455 17.637h3.818v1.454H5.455v-1.454z" fill="#409BD2"/><path fill-rule="evenodd" clip-rule="evenodd" d="M5.455 15.273h1.454v6.181H5.455v-6.181z" fill="#D4E8B1"/><path fill-rule="evenodd" clip-rule="evenodd" d="M5.455 17.637h1.454v3.818H5.455v-3.818z" fill="#409BD2"/><path fill-rule="evenodd" clip-rule="evenodd" d="M5.455 17.637h2.909v2.909h-2.91v-2.91z" fill="#A4CD58"/><path fill-rule="evenodd" clip-rule="evenodd" d="M5.455 17.637h1.454v1.454H5.455v-1.454z" fill="#E5202E"/><path fill-rule="evenodd" clip-rule="evenodd" d="M6.91 19.09h1.454v1.455H6.909v-1.454z" fill="#007AC3"/></g></svg>