<svg width="36" height="36" fill="none" xmlns="http://www.w3.org/2000/svg"><path d="M18 0c2.837 0 5.52.656 7.907 1.825C31.884 4.753 36 10.895 36 18c0 9.942-8.058 18-18 18-9.94 0-18-8.057-18-18C0 8.06 8.06 0 18 0z" fill="#F2F4F7"/><g fill="#46BEAA"><path d="M15.979 11c-.65.104-1.281.254-1.892.448 3.848 4.915 4.628 10.745 4.771 12.552h1.982c-.669-6.63-3.347-11.213-4.861-13zM8.483 24h1.93c-.65-3.341-2.587-6.292-3.262-7.247a13.607 13.607 0 0 0-1.008 1.839A14.566 14.566 0 0 1 8.484 24zm-.214-8.723c2.912 3.848 3.64 7.319 3.835 8.723h1.683c-1.027-5.843-3.445-8.801-4.245-9.783l-.103-.123c-.41.37-.806.76-1.17 1.183zM15.485 24h1.696c-.448-5.551-3.263-10.017-4.765-11.889-.533.26-1.04.553-1.534.878 3.835 4.797 4.46 9.405 4.609 11.011h-.006zm-8.678 0a10.771 10.771 0 0 0-1.372-3.38A13.325 13.325 0 0 0 5 24h1.807z" fill-opacity=".5"/><path d="M16.524 24c.39-6.39 3.38-10.998 4.986-12.675.325.091.63.195.942.306C20.997 13.1 18.221 17.337 17.409 24h-.884zm13.501 0H31c0-.793-.065-1.567-.201-2.32a6.937 6.937 0 0 0-.78 2.32h.006zm-2.522 0a13.697 13.697 0 0 1 2.424-5.239 11.696 11.696 0 0 0-.5-1.04C27.64 19.606 26.82 22.583 26.606 24h.897zm-3.315 0c.611-4.329 2.756-7.326 3.835-8.379a10.138 10.138 0 0 0-.488-.565c-2.86 2.58-4.03 6.799-4.322 8.944h.975zm-3.425 0h-.969a19.02 19.02 0 0 1 4.992-11.226c.292.183.585.378.858.586A18.311 18.311 0 0 0 20.769 24h-.006z"/></g></svg>