<svg height="36" viewBox="0 0 36 36" width="36" xmlns="http://www.w3.org/2000/svg"><mask id="a" fill="#fff"><path d="M0 0h5.743v4.532H0z" fill-rule="evenodd"/></mask><mask id="b" fill="#fff"><path d="M0 24h20.96V0H0z" fill-rule="evenodd"/></mask><g fill="none" fill-rule="evenodd"><path d="M18 0c2.837 0 5.52.656 7.907 1.825C31.884 4.753 36 10.895 36 18c0 9.942-8.058 18-18 18-9.94 0-18-8.057-18-18C0 8.06 8.06 0 18 0z" fill="#f2f4f7" fill-rule="nonzero"/><g fill="#722080"><path d="M8 25.376h.937l.59 2.25c.088.385.195.987.195.987h.014s.113-.564.208-.963l.495-2.274h.886l.494 2.268c.095.4.21.97.21.97h.012s.133-.603.222-.996l.57-2.242h.906l-1.293 4.53h-.855l-.551-2.426c-.076-.331-.159-.806-.159-.806h-.012s-.07.475-.145.806l-.558 2.425h-.85zm7.585 3.383c0 .316-.273.62-.766.62-.304 0-.507-.108-.507-.411 0-.304.221-.406.671-.507.216-.051.45-.101.602-.19zm.81.665v-1.653c0-.76-.391-1.197-1.368-1.197-.95 0-1.374.5-1.399 1.07h.766c.025-.31.221-.457.627-.457.362 0 .545.153.545.388 0 .247-.247.29-.785.366-.723.103-1.305.33-1.305 1.046 0 .645.468.995 1.134.995.557 0 .792-.191.956-.437h.012c.02.145.051.296.101.36h.831v-.032c-.076-.056-.114-.203-.114-.449zm.359-2.199h.45v1.907c0 .614.463.78.88.78.342 0 .54-.013.54-.013v-.633s-.146.004-.253.004c-.191 0-.324-.08-.324-.32v-1.725h.558v-.57h-.558v-1.012h-.842v1.013h-.451zm2.204 1.629c.05.69.577 1.146 1.52 1.146.811 0 1.369-.393 1.369-1.045 0-.76-.603-.911-1.148-1.026-.462-.095-.892-.12-.892-.4 0-.232.22-.36.557-.36.368 0 .59.128.627.475h.78c-.064-.653-.539-1.077-1.395-1.077-.74 0-1.324.336-1.324 1.039 0 .709.571.868 1.153.982.444.09.856.12.856.43 0 .228-.216.374-.595.374-.386 0-.654-.164-.71-.538zm4.902.487c-.532 0-.824-.423-.824-1.057s.292-1.065.824-1.065c.525 0 .823.43.823 1.065s-.298 1.057-.823 1.057m0-2.774c-1.008 0-1.698.747-1.698 1.717 0 .97.69 1.716 1.698 1.716 1.007 0 1.698-.746 1.698-1.716s-.69-1.717-1.698-1.717m2.996.089h-.842v3.249h.861v-1.843c0-.444.278-.748.659-.748.36 0 .564.247.564.595v1.996h.861v-2.121c0-.71-.45-1.217-1.121-1.217-.443 0-.741.184-.963.533h-.02zM8 19.62v.775h1.365v3.769h.922v-3.77h1.366v-.774z"/><path d="M12.627 23.599c-.532 0-.825-.426-.825-1.06 0-.638.293-1.07.825-1.07.53 0 .827.432.827 1.07 0 .634-.298 1.06-.827 1.06m0-2.784c-1.01 0-1.702.75-1.702 1.723s.692 1.721 1.702 1.721c1.012 0 1.704-.749 1.704-1.72s-.692-1.724-1.704-1.724m2.781 3.349h.782l.445-1.602.153-.565h.012s.076.304.146.565l.432 1.602h.788l.973-3.26H18.3l-.414 1.512c-.07.266-.147.61-.147.61h-.012s-.082-.344-.152-.617l-.426-1.504h-.738l-.406 1.504c-.07.267-.14.617-.14.617h-.012s-.077-.344-.147-.61l-.393-1.511h-.86zm5.466-2.681c.394 0 .667.285.693.699h-1.449c.076-.427.299-.7.756-.7m.064 2.108c-.49 0-.768-.31-.832-.812h2.363c0-1.163-.56-1.963-1.608-1.963-.954 0-1.608.75-1.608 1.715 0 .973.61 1.729 1.69 1.729.84 0 1.355-.49 1.475-1.068h-.851c-.095.248-.292.4-.63.4m2.871-2.687h-.834v3.26h.865v-1.589c0-.686.406-.985.972-.928h.02v-.756a.57.57 0 0 0-.204-.026c-.382 0-.603.19-.8.559h-.02zm1.249 2.204c.05.695.577 1.15 1.525 1.15.813 0 1.372-.394 1.372-1.048 0-.762-.604-.915-1.15-1.028-.464-.096-.895-.12-.895-.4 0-.236.221-.363.558-.363.368 0 .591.127.63.476h.781c-.064-.654-.54-1.08-1.398-1.08-.744 0-1.329.337-1.329 1.042 0 .712.572.872 1.157.986.445.088.858.12.858.431 0 .229-.216.375-.598.375-.387 0-.654-.165-.711-.54z"/><path d="M1.318 4.532h.85l.558-2.428c.076-.33.146-.805.146-.805h.012s.083.475.159.805l.552 2.428h.856L5.743 0h-.906l-.57 2.244c-.09.393-.223.995-.223.995h-.013s-.113-.57-.208-.97L3.329 0H2.44l-.495 2.276c-.096.4-.209.963-.209.963h-.013s-.108-.602-.197-.99L.939 0h-.94z" mask="url(#a)" transform="translate(8 13.884)"/><path d="M6.097 8.657h.862v-.774h-.862zm0 3.758h.862v-3.25h-.862zm1.569 0h.862V7.883h-.862zm1.569 0h.863V7.883h-.863zM10.8 8.657h.863v-.774H10.8zm0 3.758h.863v-3.25H10.8zm1.35-1.051c.05.69.577 1.147 1.521 1.147.812 0 1.37-.393 1.37-1.045 0-.76-.603-.914-1.148-1.028-.463-.094-.893-.12-.893-.4 0-.233.221-.36.557-.36.368 0 .59.127.628.475h.78c-.063-.653-.54-1.078-1.395-1.078-.742 0-1.325.336-1.325 1.04 0 .71.57.868 1.153.983.445.09.856.12.856.431 0 .227-.215.373-.596.373-.387 0-.652-.164-.71-.538zM.298 4.651h1.55V0H.297zm4.643 0h1.551V0H4.941zm-2.323 0H4.17V2.326H2.62zm12.144 0h1.55V0h-1.55zm4.644 0h1.549V0h-1.55zm-2.322 0h1.55V2.326h-1.55zm-7.233 0h1.551V0h-1.55zM7.529 2.326h1.55V.001H7.53zm4.644 0h1.55V.001h-1.55z" mask="url(#b)" transform="translate(8 6)"/></g></g></svg>