<svg width="36" height="36" fill="none" xmlns="http://www.w3.org/2000/svg"><path d="M18 0c2.837 0 5.52.656 7.907 1.825C31.884 4.753 36 10.895 36 18c0 9.942-8.058 18-18 18-9.94 0-18-8.057-18-18C0 8.06 8.06 0 18 0z" fill="#F2F4F7"/><path d="M11.162 14.288H9.975l-.033.078-1.21 2.847.076-2.793.004-.132H7.597l-.034.077-1.232 2.847.098-2.791.004-.133H5.267l-.002.127-.065 5.088-.002.13h1.2l.033-.078 1.293-3.05-.054 2.998-.002.13h1.2l.033-.078 2.184-5.088.077-.179zm1.211 1.424h-1.134l-.022.1-.813 3.665-.034.156h1.134l.022-.1.812-3.665.035-.156zm-.01-.417h.103l.022-.1.18-.817.036-.156h-1.135l-.022.1-.181.817-.034.156h1.031zm2.072-1.007h-1.134l-.022.1-1.128 5.09-.035.155h1.135l.022-.1 1.128-5.089.034-.156zm1.747 0h-1.134l-.022.1-1.129 5.09-.034.155h1.134l.022-.1 1.128-5.089.035-.156zm1.396 1.424h-1.134l-.023.1-.812 3.665-.035.156h1.135l.022-.1.812-3.665.035-.156zm-.01-.417h.102l.023-.1.18-.817.035-.156h-1.134l-.022.1-.181.817-.035.156h1.032zm3.273 1.986c.132-.593.098-.992-.108-1.253-.194-.248-.542-.369-1.093-.38-.572-.016-1.282.3-1.617.718l-.075.093.088.08.468.43.093.084.086-.09c.193-.204.44-.41.81-.41.134 0 .239.034.287.094.035.044.044.106.027.185l-.05.221c-1.49.187-2.242.659-2.434 1.522-.07.315-.017.603.15.811.114.143.338.312.752.312.432.004.78-.125 1.088-.287l-.004.087-.006.134h1.13l-.018-.144a1.459 1.459 0 0 1 .045-.485l.381-1.722zm-1.395 1.176c-.25.172-.575.336-.774.336-.059 0-.137-.01-.18-.064-.044-.056-.037-.145-.023-.21.086-.384.58-.513 1.1-.612l-.123.55zm7.039-2.527c-.146-.183-.378-.283-.654-.283-.59 0-1 .215-1.321.455-.144-.285-.45-.455-.84-.455a1.7 1.7 0 0 0-1.005.294l.015-.072.035-.156h-1.057l-.022.1-.812 3.664-.035.156h1.134l.023-.1.573-2.586c.273-.203.551-.339.704-.34.07.004.162.019.199.067.033.043.037.13.01.25l-.566 2.553-.035.156h1.135l.022-.1.573-2.586c.273-.203.551-.339.704-.34.071.004.162.019.2.067.032.043.036.13.01.25l-.567 2.553-.034.156h1.134l.022-.1.583-2.632c.094-.422.051-.75-.128-.972zm2.115.622c.177 0 .335.106.495.332l.075.106.105-.077.653-.477.096-.07-.063-.101c-.244-.393-.709-.618-1.273-.618-.633 0-1.394.364-1.572 1.163-.189.853.484 1.119.975 1.313.354.14.518.22.488.356-.041.185-.243.314-.49.314-.268 0-.466-.145-.622-.456l-.064-.126-.12.076-.68.435-.093.06.046.1c.242.534.705.816 1.34.816.906 0 1.547-.448 1.713-1.198.2-.9-.513-1.171-.983-1.35-.345-.133-.504-.209-.475-.34.038-.171.189-.258.45-.258z" fill="#231F20"/><path fill-rule="evenodd" clip-rule="evenodd" d="M14.584 20.477c-4.491 1.84-8.177 2.29-8.232 1.005-.015-.342.231-.772.681-1.254h-.655c-.978.936-1.482 1.738-1.36 2.29.347 1.574 5.646.544 11.936-2.29h-1.78c-.194.084-.39.168-.59.249zm13.951-8.707c-.331-1.546-5.302-.687-11.384 1.887l.269.142c3.714-1.478 6.924-2.379 8.607-2.312 2.008.08 1.347 1.519-1.302 3.61h1.255c1.742-1.37 2.718-2.571 2.555-3.327zm.504 1.542c-.061-.222-.225-.39-.477-.506-.16.308-.411.648-.75 1.015-.042.333-.324.767-.822 1.277h1.22c.648-.722.953-1.34.829-1.787z" fill="#1378C7"/><path fill-rule="evenodd" clip-rule="evenodd" d="m18.3 15.056.265.14c3.3-1.299 6.257-2.118 7.92-2.119a2.72 2.72 0 0 0 .272-.456c-1.97.143-5.023 1-8.457 2.435zm.6 5.172c-.995.53-2.085 1.05-3.23 1.53-4.023 1.688-7.434 2.358-8.42 1.742-.837.073-1.35-.014-1.622-.093-.05.115-.083.225-.1.33-.275 1.728 4.173 1.228 9.936-1.116a46.919 46.919 0 0 0 5.018-2.393H18.9zm-9.34 0h-.545A18.769 18.769 0 0 0 6.95 21.8c.125.074.389.14.555.15.449-.516 1.155-1.106 2.055-1.722z" fill="#1378C7"/><path d="M29.991 19.141c0-.261.198-.459.45-.459.25 0 .448.198.448.46a.446.446 0 0 1-.448.461.447.447 0 0 1-.45-.462zm.45.554a.552.552 0 1 0 0-1.105.552.552 0 1 0 0 1.105zm-.116-.51h.11l.169.277h.108l-.181-.281c.093-.012.165-.062.165-.176 0-.125-.075-.181-.225-.181h-.243v.637h.096v-.276zm0-.082v-.197h.131c.067 0 .139.014.139.093 0 .098-.073.104-.155.104h-.116z" fill="#231F20"/></svg>