<svg height="36" viewBox="0 0 36 36" width="36" xmlns="http://www.w3.org/2000/svg"><mask id="a" fill="#fff"><path d="M0 0h9.15v8.497H0z" fill-rule="evenodd"/></mask><g fill="none" fill-rule="evenodd"><path d="M18 0c2.837 0 5.52.656 7.907 1.825C31.884 4.753 36 10.895 36 18c0 9.942-8.058 18-18 18-9.94 0-18-8.057-18-18C0 8.06 8.06 0 18 0z" fill="#f2f4f7" fill-rule="nonzero"/><path d="M4.575 8.497c-2.212 0-3.363-.487-4.05-1.638C.138 6.197 0 5.01 0 4.248c0-.762.138-1.948.525-2.61C1.212.488 2.363 0 4.575 0s3.362.488 4.049 1.638c.388.662.526 1.848.526 2.61 0 .763-.138 1.949-.526 2.61-.687 1.152-1.837 1.639-4.049 1.639" fill="#1563a8" mask="url(#a)" transform="translate(13.497 12)"/><path d="M16.971 18.65a.844.844 0 0 1-.788-.513l-1.1-2.662a.843.843 0 0 1 .763-1.163c.25 0 .612.113.788.513l1.1 2.662a.842.842 0 0 1-.763 1.163m2.212 0a.843.843 0 0 1-.787-.513l-1.1-2.662a.842.842 0 0 1 .762-1.163c.25 0 .613.113.788.513l1.1 2.662a.842.842 0 0 1-.763 1.163m1.381-2.012a.843.843 0 0 1-.787-.513l-.269-.65a.843.843 0 0 1 .763-1.163c.25 0 .612.113.787.513l.27.65a.842.842 0 0 1-.764 1.163" fill="#fff"/><path d="m5.892 22.203-.436 1.366a.123.123 0 0 1-.118.085.115.115 0 0 1-.11-.082l-.278-.997-.28.997c-.015.049-.059.082-.11.082s-.1-.032-.117-.085l-.439-1.366C4.002 22.19 4 22.182 4 22.17a.115.115 0 0 1 .082-.117.094.094 0 0 1 .036-.008.12.12 0 0 1 .115.085l.323 1.01.285-1.012c.01-.035.042-.083.108-.083s.1.048.11.083l.281 1.012.323-1.01a.122.122 0 0 1 .116-.085c.011 0 .023.003.035.008a.12.12 0 0 1 .085.115.087.087 0 0 1-.007.035zm.836.235-.266.597h.532zm.67 1.204a.117.117 0 0 1-.158-.058l-.149-.335h-.726l-.148.335a.121.121 0 0 1-.11.07.11.11 0 0 1-.048-.01.118.118 0 0 1-.069-.107c0-.017.003-.036.01-.053l.62-1.368c.018-.04.061-.071.108-.071s.09.028.108.07l.62 1.37a.118.118 0 0 1 .01.049c0 .045-.024.09-.069.108zm1.191-1.344h-.523v.46h.523c.136 0 .247-.083.247-.228 0-.143-.108-.232-.247-.232zm.215.635.266.544a.106.106 0 0 1 .011.052.12.12 0 0 1-.068.113.1.1 0 0 1-.054.012.118.118 0 0 1-.11-.07l-.295-.61h-.488v.555a.126.126 0 0 1-.252 0V22.19c0-.07.056-.125.125-.125h.617c.294 0 .533.142.533.457a.412.412 0 0 1-.285.41zm1.892.72a.107.107 0 0 1-.092-.044l-.829-1.116v1.044c0 .065-.054.117-.12.117s-.118-.052-.118-.117v-1.372a.12.12 0 0 1 .12-.12h.003c.035 0 .07.019.09.045 0 0 .466.648.83 1.117v-1.042c0-.066.05-.12.116-.12a.12.12 0 0 1 .12.12v1.372a.118.118 0 0 1-.12.117zm1.654-.017h-.909a.128.128 0 0 1-.128-.126v-1.32c0-.07.057-.125.128-.125h.874c.066 0 .12.05.12.116s-.054.12-.12.12h-.749v.415h.42a.116.116 0 0 1 .117.115v.003a.117.117 0 0 1-.118.117h-.419v.448h.784c.066 0 .118.052.118.117a.117.117 0 0 1-.118.119zm1.282-1.338h-.523v.46h.523c.137 0 .248-.083.248-.228 0-.143-.109-.232-.248-.232zm.215.635.266.544a.107.107 0 0 1 .012.052.121.121 0 0 1-.068.113.106.106 0 0 1-.055.012.118.118 0 0 1-.11-.07l-.295-.61h-.488v.555a.126.126 0 0 1-.252 0V22.19c0-.07.056-.125.125-.125h.618c.294 0 .532.142.532.457a.41.41 0 0 1-.285.41zm2.858.72a.117.117 0 0 1-.118-.114v-.874c-.282.572-.438.926-.438.926a.104.104 0 0 1-.1.063c-.05 0-.084-.02-.105-.065l-.44-.922v.867a.12.12 0 0 1-.12.12.118.118 0 0 1-.118-.12v-1.371a.116.116 0 0 1 .115-.118h.002c.052 0 .09.033.111.076l.554 1.158.55-1.161a.12.12 0 0 1 .107-.073.12.12 0 0 1 .12.12v1.372a.118.118 0 0 1-.12.117zm1.202.013c-.398 0-.655-.261-.655-.664v-.83c0-.071.054-.127.125-.127.07 0 .127.056.127.126v.862c0 .239.144.4.403.4s.4-.161.4-.4v-.86c0-.071.056-.127.127-.128.07 0 .127.056.127.127v.83c0 .403-.256.664-.654.664zm11.74 0c-.399 0-.656-.261-.656-.664v-.83c0-.071.054-.127.125-.127.07 0 .127.056.127.126v.862c0 .239.144.4.403.4s.401-.161.401-.4v-.86a.127.127 0 0 1 .126-.128h.001c.07 0 .127.056.127.127v.83c0 .403-.257.664-.655.664zm-8.904-.012a.127.127 0 0 1-.128-.126v-1.355c0-.071.056-.127.126-.128h.002c.07 0 .124.056.124.128v1.354a.124.124 0 0 1-.124.127zm1.937-.29a.805.805 0 0 1-.62.302.802.802 0 0 1-.796-.816.8.8 0 0 1 .796-.812c.195 0 .386.068.527.205a.122.122 0 0 1 .041.087c0 .028-.01.055-.028.075a.106.106 0 0 1-.083.04.124.124 0 0 1-.078-.028.536.536 0 0 0-.379-.146c-.33 0-.542.269-.542.579 0 .312.212.585.542.585a.549.549 0 0 0 .452-.228.1.1 0 0 1 .08-.035c.03 0 .06.009.081.03a.11.11 0 0 1 .035.08c0 .028-.01.059-.028.083zm2.395.013c-.153.197-.403.289-.643.289a.802.802 0 0 1-.799-.813c0-.443.346-.815.8-.815.2 0 .397.066.536.2a.134.134 0 0 1 .043.095.097.097 0 0 1-.024.065.102.102 0 0 1-.085.043.12.12 0 0 1-.073-.024.59.59 0 0 0-.398-.15c-.33 0-.547.275-.547.586s.217.582.547.582a.56.56 0 0 0 .42-.17v-.28h-.349a.115.115 0 0 1-.116-.113c0-.064.054-.113.116-.113h.473c.078 0 .127.056.127.128v.41a.107.107 0 0 1-.028.08zm1.215-1.08h-.523v.462h.523c.137 0 .248-.084.248-.23 0-.142-.109-.231-.248-.231zm.214.636s.01.017.266.544c.01.017.013.034.013.052a.12.12 0 0 1-.069.113.1.1 0 0 1-.054.012.12.12 0 0 1-.11-.07l-.296-.61h-.487v.555a.126.126 0 0 1-.252 0V22.19c0-.07.056-.125.125-.125h.617c.295 0 .532.142.532.457a.41.41 0 0 1-.285.41zm1.361-.664c-.327 0-.547.269-.547.58 0 .315.22.583.547.583.328 0 .545-.268.545-.582 0-.312-.217-.581-.545-.581zm0 1.397a.805.805 0 0 1-.799-.816c0-.442.347-.812.8-.812s.795.37.795.812a.802.802 0 0 1-.796.816zm3.635-1.368h-.516v.477h.516c.165 0 .245-.115.245-.235s-.08-.243-.245-.243zm-.033.71h-.483v.52c0 .072-.056.126-.127.126s-.125-.054-.125-.125V22.19c0-.07.054-.125.125-.125h.61c.365 0 .532.224.532.474s-.167.469-.532.469zm-11.514-.657a1.1 1.1 0 0 0-.38-.082c-.155 0-.365.03-.365.188 0 .176.322.244.5.303.255.085.49.16.49.447 0 .342-.319.459-.632.459-.174 0-.42-.038-.576-.14a.113.113 0 0 1-.056-.105c0-.075.055-.114.11-.114a.22.22 0 0 1 .08.023.969.969 0 0 0 .441.102c.158 0 .38-.04.38-.216 0-.186-.283-.21-.573-.314-.208-.075-.417-.163-.417-.444 0-.323.317-.42.611-.42.15 0 .344.042.487.103a.115.115 0 0 1 .073.104c0 .062-.038.117-.11.117a.182.182 0 0 1-.063-.011z" fill="#000"/></g></svg>