<svg height="36" viewBox="0 0 36 36" width="36" xmlns="http://www.w3.org/2000/svg"><mask id="a" fill="#fff"><path d="M0 0h3.852v9.487H0z" fill-rule="evenodd"/></mask><mask id="b" fill="#fff"><path d="M0 0h2.146v2.113H0z" fill-rule="evenodd"/></mask><g fill="none" fill-rule="evenodd"><path d="M18 0c2.837 0 5.52.656 7.907 1.825C31.884 4.753 36 10.895 36 18c0 9.942-8.058 18-18 18-9.94 0-18-8.057-18-18C0 8.06 8.06 0 18 0z" fill="#f2f4f7" fill-rule="nonzero"/><g fill="#ffb819"><path d="M17.552 13.489c.66 0 1.205-.343 1.278-.786l.651-7.374c0-.731-.852-1.329-1.927-1.329-1.072 0-1.925.598-1.925 1.329l.652 7.374c.07.443.615.786 1.273.786m-3.988 2.304c.332-.571.306-1.214-.042-1.5l-6.062-4.25c-.63-.365-1.575.075-2.11 1.003-.539.93-.445 1.967.185 2.333l6.711 3.125c.421.155.99-.144 1.32-.715m7.972 0c.33.572.9.87 1.32.713l6.712-3.123c.632-.365.722-1.402.189-2.332-.54-.93-1.484-1.37-2.114-1.004l-6.062 4.25c-.345.287-.372.929-.042 1.5"/><path d="M1.923 0c.66 0 1.205.341 1.278.784l.651 7.374c0 .731-.852 1.329-1.927 1.329C.853 9.487 0 8.889 0 8.158L.652.784C.722.341 1.267 0 1.925 0" mask="url(#a)" transform="translate(15.63 22.7)"/><path d="M21.54 20.397c.33-.57.9-.868 1.32-.71l6.712 3.12c.632.365.722 1.404.189 2.334-.54.926-1.484 1.367-2.114 1.004l-6.062-4.248c-.345-.289-.372-.93-.042-1.502m-7.977.001c.332.571.306 1.214-.042 1.501l-6.062 4.246c-.63.366-1.575-.075-2.11-1.003-.539-.928-.445-1.967.185-2.332l6.711-3.123c.421-.158.99.14 1.32.713"/><path d="M1.083 0c.594 0 1.063.461 1.063 1.051 0 .599-.469 1.062-1.07 1.062A1.056 1.056 0 0 1 0 1.051C0 .461.474 0 1.076 0zM1.07.185c-.477 0-.84.389-.84.866 0 .489.363.87.853.87.474.009.824-.381.824-.864s-.35-.872-.831-.872zM.884 1.631H.68V.527c.111-.017.23-.03.383-.03.184 0 .277.03.348.084a.283.283 0 0 1 .112.232c0 .137-.097.224-.216.264v.013c.099.04.151.124.183.264.033.17.053.237.08.277h-.21c-.033-.04-.06-.138-.087-.29-.026-.12-.099-.171-.256-.171H.884zm0-.62h.139c.151 0 .284-.047.284-.178 0-.106-.067-.18-.264-.18a.724.724 0 0 0-.159.014z" mask="url(#b)" transform="translate(30.854 24.64)"/></g></g></svg>