<svg width="36" height="36" fill="none" xmlns="http://www.w3.org/2000/svg"><path d="M18 0c2.837 0 5.52.656 7.907 1.825C31.884 4.753 36 10.895 36 18c0 9.942-8.058 18-18 18-9.94 0-18-8.057-18-18C0 8.06 8.06 0 18 0z" fill="#F2F4F7"/><path d="M11.546 15.554v.012c.293.021.617.126.822.402.284.356.196.773-.014 1.243l-1.092 2.441-.895-2.336c-.124-.356-.322-.725-.2-1.131.13-.407.588-.615.97-.619v-.012H4v.012c.53.035.999.538 1.197 1.005l2.141 4.902h.035l1.693-3.705 1.422 3.705h.047l1.877-4.217c.44-.906 1.082-1.676 1.988-1.69v-.012h-2.854zm-3.464 4.195-1.384-3.171a.795.795 0 0 1 .018-.662c.127-.235.451-.393.853-.3.548.128.894.605 1.139 1.22l.322.838-.948 2.075z" fill="#98989B"/><path d="M24.434 16.69c-1.314 0-2.364 1.04-2.364 2.389 0 .734.232 1.39.716 1.829-.103.077-.345.246-.529.246-.4 0-.614-.322-.614-.87v-3.49h.942c.12.004.207.009.229.01.035.003.055.011.073-.012.015-.018.035-.04.03-.055-.004-.015-.022-.014-.035-.014h-1.238V15h-.012c0 .755-.831 1.83-1.976 1.755-.854-.057-1.868-.255-2.576.337-.45.376-.559.928-.468 1.378.244 1.21 2.017.818 2.51 1.698a.764.764 0 0 1-.05.837c-.27.393-.75.54-1.217.418-.726-.222-1.23-.984-1.33-1.698h-.011c-.027.127-.09.357-.222.6-.31.543-.848.85-1.454.8-.566-.024-1.095-.43-1.329-.947a2.727 2.727 0 0 1-.234-1.145h3.277c-.015-1.297-.72-2.342-2.235-2.342-1.314 0-2.364 1.04-2.364 2.388 0 1.32.812 2.44 2.428 2.44.99 0 1.805-.61 2.133-1.499v1.428h.578c.886.011 1.804.309 2.645-.333.658-.502.648-1.857-.004-2.324-.4-.287-.946-.425-1.25-.518-.32-.098-.715-.24-.798-.505-.086-.276-.019-.597.207-.787.373-.29.822-.269 1.449-.173.533.082.986.543.986 1.473v1.73c0 .748.348 1.438 1.23 1.438.574 0 1.103-.363 1.279-.497.382.323.912.515 1.598.515 1.315 0 2.343-1.04 2.343-2.388 0-1.32-.726-2.388-2.343-2.388zm-10.137.042c.71 0 .903.988.914 2.23h-1.935c.022-1.242.385-2.23 1.021-2.23zm10.117 4.694c-.771 0-1.022-1.051-1.022-2.347s.366-2.347 1.022-2.347c.655 0 1.022 1.051 1.022 2.347s-.251 2.347-1.022 2.347z" fill="#98989B"/><path d="M28.938 17.244a.745.745 0 0 1 .206-.028c.115 0 .243.014.36.072.26.128.446.492.446.92v2.518a.743.743 0 0 1-.752.735v.012H32v-.012a.74.74 0 0 1-.674-.73v-2.8c0-.66-.574-1.195-1.281-1.195h-.111c-.787 0-1.454.523-1.573 1.218-.008.046-.024.036-.024.003 0-.034-.02-.693-.03-1.004a1.299 1.299 0 0 0-.024-.248c-.705.146-1.49.228-1.91.265v.013l.033-.001c.358 0 .65.402.65.9v2.768c0 .403-.328.739-.76.81v.013h2.861v-.012a.743.743 0 0 1-.752-.735v-2.514c0-.129.02-.253.052-.373.08-.304.261-.532.48-.595z" fill="#98989B"/></svg>