<svg width="36" height="36" fill="none" xmlns="http://www.w3.org/2000/svg"><path d="M18 0c2.837 0 5.52.656 7.907 1.825C31.884 4.753 36 10.895 36 18c0 9.942-8.058 18-18 18-9.94 0-18-8.057-18-18C0 8.06 8.06 0 18 0z" fill="#F2F4F7"/><mask id="a" style="mask-type:alpha" maskUnits="userSpaceOnUse" x="4" y="17" width="6" height="5"><path d="M4 17.423h5.357v4.34H4v-4.34z" fill="#fff"/></mask><g mask="url(#a)"><path fill-rule="evenodd" clip-rule="evenodd" d="M8.812 17.423a.234.234 0 0 0-.217.144l-1.39 3.312-.263-3.456H6.53a.235.235 0 0 0-.215.141l-1.442 3.3-.24-3.44h-.405a.235.235 0 0 0-.234.257l.403 4.082h.472a.235.235 0 0 0 .215-.14l1.425-3.25.276 3.39h.474a.235.235 0 0 0 .214-.139l1.884-4.2h-.545z" fill="#4B2B6D"/></g><path fill-rule="evenodd" clip-rule="evenodd" d="M11.31 19.848c0 .722-.385 1.49-1.1 1.49-.728 0-.88-.51-.88-.937 0-.721.385-1.489 1.1-1.489.728 0 .88.51.88.936zm-.887-1.428c-.975 0-1.683.833-1.683 1.981 0 .895.552 1.429 1.477 1.429.979 0 1.69-.833 1.69-1.982 0-.894-.555-1.428-1.484-1.428zm2.681-1.173a.234.234 0 0 0-.23.194l-.765 4.322h.394a.234.234 0 0 0 .23-.193l.765-4.323h-.394z" fill="#4B2B6D"/><mask id="b" style="mask-type:alpha" maskUnits="userSpaceOnUse" x="15" y="18" width="7" height="5"><path d="M15.26 18.42h6.24v4.576h-6.24V18.42z" fill="#fff"/></mask><g mask="url(#b)" fill-rule="evenodd" clip-rule="evenodd" fill="#4B2B6D"><path d="m17.007 19.857-.121-.039c-.324-.101-.603-.19-.603-.462 0-.26.272-.443.662-.443.424 0 .86.219.983.286l.032.018.3-.408-.041-.024c-.285-.168-.794-.365-1.292-.365-.73 0-1.24.4-1.24.973 0 .63.574.813.954.934l.095.03c.385.121.69.217.69.507 0 .31-.355.474-.706.474-.434 0-.92-.251-1.11-.36l-.031-.017-.32.406.04.025c.163.103.745.438 1.421.438.782 0 1.307-.405 1.307-1.009 0-.578-.442-.771-1.02-.964zm3.885-.209c0 1.09-.508 1.678-.985 1.678-.386 0-.705-.255-.909-.476l.25-1.428c.312-.253.651-.497 1.048-.497.492 0 .596.393.596.723zm-.462-1.228c-.347 0-.7.137-1.075.416l.062-.349h-.395a.234.234 0 0 0-.23.194l-.765 4.322h.394a.234.234 0 0 0 .231-.193l.256-1.444c.203.178.57.464 1.09.464.884 0 1.502-.917 1.502-2.23 0-1.095-.82-1.18-1.07-1.18z"/></g><path fill-rule="evenodd" clip-rule="evenodd" d="M22.358 19.982c.15-.653.61-1.088 1.157-1.088.355 0 .584.165.584.42 0 .43-.507.668-1.428.668h-.313zm.27.413c1.363 0 2.054-.368 2.054-1.094 0-.527-.459-.881-1.142-.881-1.077 0-1.83.817-1.83 1.987 0 .904.452 1.423 1.24 1.423.623 0 1.223-.328 1.48-.467l.036-.02-.234-.44-.037.02-.088.046c-.28.15-.701.374-1.084.374-.588 0-.711-.498-.711-.917v-.03h.316zm2.866-.413c.15-.653.61-1.088 1.157-1.088.354 0 .583.165.583.42 0 .43-.507.668-1.428.668h-.312zm.27.413c1.362 0 2.054-.368 2.054-1.094 0-.527-.46-.881-1.143-.881-1.077 0-1.83.817-1.83 1.987 0 .904.452 1.423 1.24 1.423.623 0 1.223-.328 1.48-.467l.037-.02-.235-.44-.037.02-.088.046c-.279.15-.701.374-1.084.374-.588 0-.71-.498-.71-.917v-.03h.315zm4.671-.989-.237 1.332c-.337.307-.71.588-1.146.588-.45 0-.516-.454-.516-.724 0-.824.384-1.677 1.027-1.677.288 0 .574.157.872.481zm.577-2.159a.234.234 0 0 0-.23.194l-.257 1.455c-.202-.183-.566-.476-1.053-.476-.91 0-1.544.92-1.544 2.237 0 .567.259 1.173.985 1.173.494 0 .923-.28 1.177-.491l-.073.424h.394a.234.234 0 0 0 .23-.193l.766-4.323h-.395zm.661 3.995a.06.06 0 0 1-.025.051.121.121 0 0 1-.074.02h-.02v-.12h.026c.047 0 .068.005.076.01.012.007.017.02.017.039zm.156.314-.147-.194a.19.19 0 0 0 .06-.05.133.133 0 0 0 .024-.08c0-.048-.023-.081-.068-.1a.296.296 0 0 0-.105-.013h-.13v.44h.09v-.172h.039l.127.167.003.005h.104a.31.31 0 1 1 .003-.003zm.056-.493a.388.388 0 0 0-.552 0 .388.388 0 0 0 0 .552.388.388 0 0 0 .552 0 .388.388 0 0 0 0-.552zm-16.327-2.576h-.85l.07-.393c.045-.227.14-.324.316-.324.122 0 .375.066.492.101l.033.01.235-.425-.045-.017c-.166-.067-.547-.192-.806-.192-.47 0-.712.249-.814.831l-.073.41h-.431l-.082.473h.431l-.377 2.134-.12.668h.394a.234.234 0 0 0 .231-.193l.084-.46.38-2.149h.85l.082-.474zm14.136-1.681-5.947-2.768a.06.06 0 0 0-.08.08l.863 1.786a.051.051 0 0 1-.044.074l-8.023.285c-.027 0-.027.04 0 .041l9.37.456a.03.03 0 0 0 .029-.042l-.458-1.033a.048.048 0 0 1 .057-.066l4.214 1.24c.033.009.05-.038.02-.053zm-3.632-1.916 1.671.772c.027.013.05-.024.026-.042l-2.111-1.615c-.021-.016-.05.007-.038.031l.376.779c.016.033.043.06.076.075zm2.824 2.48a.077.077 0 0 1-.04.01l-5.656-.311-2.138-.121c-.026.008-.021.046.006.048l2.445.296-.01-.008.01.008 5.49.532a.06.06 0 0 0 .052-.02l.66-.807c.016-.02-.006-.048-.03-.036l-.79.41z" fill="#4B2B6D"/></svg>