<svg width="36" height="36" fill="none" xmlns="http://www.w3.org/2000/svg"><path d="M18 0c2.837 0 5.52.656 7.907 1.825C31.884 4.753 36 10.895 36 18c0 9.942-8.058 18-18 18-9.94 0-18-8.057-18-18C0 8.06 8.06 0 18 0z" fill="#F2F4F7"/><path d="m19.325 18.735.948.004-.458-1.148-.49 1.144zm-7.611-1.372-.005.933c.108.028.313.042.444.005a.508.508 0 0 0 .247-.215c.093-.224.047-.504-.13-.658-.155-.126-.37-.103-.556-.065zm10.98-.005-.004.933c.107.028.313.042.443.005a.477.477 0 0 0 .243-.215c.093-.224.047-.504-.13-.662-.15-.122-.365-.098-.551-.061zm.565.98c.299.355.607.84.976 1.115-.388.047-.635-.406-.789-.606-.126-.168-.22-.294-.369-.42a.213.213 0 0 0-.084-.047 1.94 1.94 0 0 1-.298-.01l.004.971c0 .052.024.094.038.112h-.257a.224.224 0 0 0 .033-.112v-1.997l-.052-.06c.411 0 .84-.085 1.083.233a.59.59 0 0 1 0 .63.574.574 0 0 1-.285.191zm-14.947.812.868-1.657c.08-.149.07-.172.065-.205h.201l-.051.065-1.13 2.1-.401-.779-.415.78-.971-1.956c-.051-.093-.06-.15-.13-.21h.307c-.07.056-.037.098.024.22l.816 1.637.299-.602c-.42-.9-.415-.886-.485-1.04-.028-.061-.075-.164-.14-.21h.298c-.07.065-.009.116.014.168l.434.905.444-.873c.079-.149.074-.172.065-.205h.196l-.051.065-.588 1.139c.004-.005.21.443.331.658zm1.176.345c-.056 0-.103-.056-.103-.13 0-.07.047-.131.103-.131.056 0 .103.056.103.13 0 .075-.047.131-.103.131zm3.617 0c-.056 0-.103-.056-.103-.13 0-.07.047-.131.103-.131.056 0 .102.056.102.13 0 .075-.046.131-.102.131zm-1.391-.154c0 .052.023.094.037.112h-.256a.225.225 0 0 0 .032-.112v-1.997l-.051-.06c.41 0 .84-.085 1.083.233a.59.59 0 0 1 0 .63c-.187.252-.546.242-.85.224l.005.97zm8.139-2.076c.294.672.821 1.974.854 2.048.018.038.028.08.116.14h-.364c.047-.06.042-.121.024-.186l-.173-.406-1.055.004c-.056.122-.182.341-.224.472-.023.051-.009.084.014.112h-.224s.075-.07.112-.154l.92-2.03zm6.08 1.078-.004.998h.574c.046 0 .051-.014.098-.037-.01.051-.019.121-.075.15h-.807l.037-.057v-2.02c0-.038 0-.066-.047-.094h.808v.145c-.033-.033-.061-.033-.117-.033l-.462-.004v.821h.541c.07 0 .084-.005.098-.023v.172c-.018-.023-.037-.023-.07-.023l-.574.005zm-8.53-.938c.014.051.028.13.018.196a1.01 1.01 0 0 0-.34-.187c-.402-.112-.878-.065-1.139.28-.22.28-.29.681-.159 1.031.112.294.238.425.472.546.298.131.751.201 1.045-.004l.168-.122c-.019.117-.019.159-.028.234-.565.168-1.288.177-1.685-.304a1.2 1.2 0 0 1-.088-1.274c.21-.354.541-.522.9-.527.383-.014.551.028.836.13zm11.447 2.048c.037-.028.042-.042.042-.07v-1.302c-.224-.284-.336-.583-.607-.798h.341c-.042.038-.065.075-.028.126l.415.584.444-.574c.032-.052.084-.094.018-.136h.262c-.257.238-.434.523-.663.812v1.288c0 .033.005.042.051.07h-.275zM4.191 18.31c0-1.171 1.069-2.119 2.38-2.119h22.867c1.311 0 2.38.952 2.38 2.119 0 1.167-1.069 2.119-2.38 2.119H6.571c-1.316 0-2.38-.952-2.38-2.119zM6.567 16C5.153 16 4 17.036 4 18.31s1.153 2.31 2.567 2.31h22.866c1.414 0 2.567-1.036 2.567-2.31S30.847 16 29.433 16H6.567z" fill="#003562"/></svg>