<svg height="36" viewBox="0 0 36 36" width="36" xmlns="http://www.w3.org/2000/svg"><mask id="a" fill="#fff"><path d="M0 0h9.72v19.48H0z" fill-rule="evenodd"/></mask><mask id="b" fill="#fff"><path d="M0 0h9.76v26H0z" fill-rule="evenodd"/></mask><g fill="none" fill-rule="evenodd"><path d="M18 0c2.837 0 5.52.656 7.907 1.825C31.884 4.753 36 10.895 36 18c0 9.942-8.058 18-18 18-9.94 0-18-8.057-18-18C0 8.06 8.06 0 18 0z" fill="#f2f4f7" fill-rule="nonzero"/><g fill="#476e42"><path d="M9.72 9.72c0 5.386-4.374 9.76-9.72 9.76v-3.16c3.604 0 6.56-2.956 6.56-6.6 0-3.605-2.956-6.56-6.56-6.56V0c5.346 0 9.72 4.333 9.72 9.72" mask="url(#a)" transform="translate(18.76 11.52)"/><path d="M9.76 26v-3.16a6.602 6.602 0 0 1-6.602-6.6c0-3.604 2.957-6.56 6.602-6.56V6.52c-2.551 0-4.86.973-6.602 2.552V0H0v16.24C0 21.626 4.374 26 9.76 26" mask="url(#b)" transform="translate(9 5)"/><path d="M16.938 25.776v-.891c-1.134 0-1.62-.932-1.62-2.106 0-.972.202-2.43-.163-3.078.81 0 1.296.688 1.296 1.215 0 .283-.04 1.175-.04 1.944 0 .607.284.77.527.81v-.486a.222.222 0 0 1-.122-.203c0-.081.04-.162.122-.203v-.405c-.04.04-.162.082-.243.162 0-.485.12-.77.243-.972v-1.296l-1.094-.768c-.405-.284-1.984-.973-2.389-1.054.567.85.85.972.85 3.2 0 1.133-.08 3.725 1.944 4.09.202.04.446.04.689.04zm0-2.106v-.486h.08c.122 0 .243-.081.243-.203 0-.12-.12-.202-.243-.202h-.08v-.405c.445-.203.729.081.729.567 0 .527-.284.729-.567.729zm.81 1.093v1.013h-.81v-.891h.08c.284 0 .527-.04.73-.122zm0-3.968-.81-.527v1.296a.854.854 0 0 1 .81-.284zm0-1.701v1.174l-.81-.567v-.607zm1.053 0h-.243v1.782l.243.162zm-.244 2.268v.526c.122.283.203.648.163 1.215 0 .283-.041.567-.163.81v.567c.082-.08.203-.162.243-.203v-2.753zm.244 4.86v-.446a1.83 1.83 0 0 1-.243-.365v.567a.69.69 0 0 1 .243.244zm.243-7.128H18.8v1.944l.243-.162zm0 6.884v-.567c-.081.162-.163.324-.243.365v.445c.04-.08.162-.162.243-.243zm-.243-4.454.243-.162v.526c-.122.283-.203.648-.163 1.215 0 .283.082.567.163.81v.567c-.081-.08-.163-.162-.243-.203zm-1.054-1.256.81.608v-1.782h-.81zm0 1.012v-.485l.81.567v.526c-.162-.405-.485-.567-.81-.608zm0 4.496v-1.013c.405-.161.648-.486.81-.85v.567c-.08.122-.162.243-.162.446 0 .08.082.283.162.485v.567c-.122-.08-.243-.161-.364-.161-.04-.041-.203-.041-.446-.041zm2.106-1.013v1.013c-.202 0-.364 0-.445.04-.122 0-.243.08-.364.162v-.567c.121-.202.202-.405.202-.486-.04-.202-.08-.323-.202-.445v-.567c.162.364.445.689.81.85zm0-3.968-.81.567v.526c.203-.405.487-.567.81-.608zm0-1.701v1.174l-.81.608v-1.782zm.81 3.28c-.405-.203-.688.081-.688.567 0 .527.243.729.567.729h.121v-.486h-.08c-.122 0-.243-.081-.243-.203 0-.12.12-.202.242-.202h.081zm-.81-2.106.81-.567v-.607h-.81zm0 1.012c.244-.04.567 0 .81.284v-1.296l-.81.527zm0 4.496h.81v-.891h-.04c-.324 0-.567-.04-.77-.122zm1.377-6.723v.243l-.567.405v-.607c.203 0 .405-.041.567-.041zm0 6.682c-.162.04-.364.04-.567.04v-.89a2.4 2.4 0 0 0 .567-.081zm-.567-5.467.567-.364v.769c-.04.08-.04.161-.04.243v1.944c0 .608-.283.77-.527.81v-.486a.222.222 0 0 0 .122-.203c0-.08-.04-.162-.122-.202v-.406a.87.87 0 0 1 .244.163c0-.486-.082-.77-.244-.973zm.567-.972.527-.364c-.081.04-.283.08-.527.12zm0 .608.527-.405c.405-.284 1.985-.972 2.39-1.054-.568.851-.851.973-.851 3.2 0 1.134.081 3.726-1.944 4.09h-.122v-.931c.73-.284 1.053-1.053 1.053-2.025s-.161-2.43.162-3.078c-.688 0-1.093.486-1.215.972z"/></g></g></svg>