<svg height="36" viewBox="0 0 36 36" width="36" xmlns="http://www.w3.org/2000/svg"><mask id="a" fill="#fff"><path d="M0 0h6.335v4.166H0z" fill-rule="evenodd"/></mask><mask id="b" fill="#fff"><path d="M0 0h4.128v4.166H0z" fill-rule="evenodd"/></mask><g fill="none" fill-rule="evenodd"><path d="M18 0c2.837 0 5.52.656 7.907 1.825C31.884 4.753 36 10.895 36 18c0 9.942-8.058 18-18 18-9.94 0-18-8.057-18-18C0 8.06 8.06 0 18 0z" fill="#f2f4f7" fill-rule="nonzero"/><path d="M25.59 15.037c.024.044-.02.056-.039.074-1.16 1.143-2.489 2.005-4.072 2.444a7.213 7.213 0 0 1-2.406.25c-.605-.04-1.188-.175-1.72-.479-.918-.525-1.32-1.44-1.089-2.476.16-.719.512-1.34.983-1.893 1.291-1.514 2.931-2.452 4.862-2.89a6.072 6.072 0 0 1 2.78-.002c.534.127 1.013.362 1.368.802.18.222.298.477.385.747a.349.349 0 0 1 .012.054c.001.006-.004.012-.006.02-.038.011-.039-.02-.049-.043-.36-.858-1.008-1.347-1.922-1.483a3.16 3.16 0 0 0-1.932.326c-1.27.644-2.062 1.657-2.294 3.081-.052.32-.06.642-.01.962.115.752.492 1.314 1.211 1.612.505.208 1.028.214 1.555.115.726-.137 1.366-.465 1.958-.897.144-.105.27-.233.424-.324" fill="#0179b4"/><path d="M4.58 3.203c.044-.019.043-.062.054-.093.313-.85.623-1.703.938-2.553.064-.174.04-.314-.106-.43-.024-.02-.058-.036-.033-.079.018-.032.04-.047.078-.047l.77.001c.1 0 .034.063.025.087-.165.45-.333.897-.501 1.346-.326.873-.653 1.746-.976 2.62-.032.087-.075.117-.165.11a1.72 1.72 0 0 0-.296 0c-.097.01-.14-.024-.17-.117-.3-.914-.603-1.826-.906-2.739-.01-.03-.023-.06-.043-.113-.047.123-.088.225-.126.328-.317.846-.634 1.69-.947 2.537-.03.08-.063.11-.147.103a3.002 3.002 0 0 0-.342 0c-.074.005-.107-.019-.131-.092C1.183 2.937.806 1.802.432.667.412.605.389.543.369.48.317.316.227.185.059.117.039.108-.014.11.005.057.019.02.043 0 .087.001c.246.002.492.004.738 0C.894-.003.9.042.914.086c.178.526.354 1.053.53 1.58L1.927 3.1l.029.08.046-.11.944-2.505c.078-.205.057-.29-.1-.439C2.825.105 2.79.09 2.814.047a.08.08 0 0 1 .079-.046c.194.002.389.004.583 0 .069-.003.073.041.087.086l.965 2.95.054.166" fill="#030303" mask="url(#a)" transform="translate(4 19.759)"/><path d="M25.59 15.037c-.155.091-.28.22-.425.324-.592.432-1.232.76-1.958.897-.527.1-1.05.093-1.555-.115-.719-.298-1.096-.86-1.212-1.612-.05-.32-.04-.642.011-.962-.002.235-.007.47.06.698.174.591.592.908 1.173 1.033s1.153.056 1.713-.12c1.145-.364 2.086-1.039 2.9-1.907.632-.676 1.107-1.446 1.368-2.34.194-.663.275-1.333.154-2.02-.155-.89-.67-1.45-1.533-1.697-.695-.199-1.377-.173-2.04.12-.21.093-.407.207-.54.404-.019.027-.037.044-.07.024-.043-.026-.014-.05 0-.073a.938.938 0 0 1 .312-.289 2.65 2.65 0 0 1 1.235-.392 3.059 3.059 0 0 1 2.003.523c.533.36.826.881.954 1.501.16.778.053 1.541-.18 2.287-.389 1.235-1.062 2.304-1.92 3.264-.014.016-.033.03-.05.043l.004-.002-.014.021-.015.017v.002c-.02.018-.044.033-.049.062l.001-.003c-.014.003-.023.011-.022.026l.001-.002c-.015.001-.025.007-.023.024l.001-.002c-.017 0-.025.007-.023.024h.001c-.017-.003-.025.004-.023.022h.002c-.018-.003-.028.003-.024.022h.002c-.02-.005-.029.002-.024.022h.002c-.02-.005-.03.001-.024.023l.002-.002c-.02-.005-.032 0-.024.024l.002-.002c-.022-.007-.033-.002-.024.024l.002-.002c-.024-.008-.034-.003-.024.024l.001-.002c-.025-.01-.035-.004-.023.024l.002-.002c-.03-.02-.038.002-.045.025l.001-.002c-.016 0-.024.006-.023.023h.001c-.016-.002-.026.003-.023.022z" fill="#ee801c"/><path d="M10.799 22.395c.403 0 .788.003 1.172-.003.09 0 .13.027.154.11.024.088.064.171.095.257.039.108.025.127-.093.127-.466.001-.932.004-1.398-.002-.095 0-.137.03-.161.116-.023.084-.062.164-.093.246-.086.227-.047.373.134.53.026.023.089.03.06.096-.025.06-.073.05-.12.05h-.883c-.014-.042.01-.07.023-.103.446-1.156.89-2.314 1.34-3.468.075-.19.069-.348-.105-.477-.02-.014-.044-.026-.025-.06.02-.037.04-.056.085-.055.113.003.227.001.34.001.206 0 .412.002.618 0 .052-.002.085.01.108.064.57 1.346 1.144 2.692 1.716 4.037l.019.06c-.244 0-.478-.002-.712.001-.07.001-.07-.055-.085-.095a1653.652 1653.652 0 0 1-1.394-3.529l-.795 2.097" fill="#030303"/><path d="m0 4.164.591-1.529.798-2.066c.08-.208.058-.296-.106-.448-.019-.018-.056-.027-.031-.068.019-.03.034-.053.075-.053.334.001.668.002 1.001 0 .063 0 .065.049.081.087.276.645.55 1.291.825 1.936l.858 2.019c.015.036.041.069.035.122-.234 0-.468-.001-.701.001-.077 0-.073-.064-.089-.105-.4-1.009-.797-2.02-1.195-3.029L1.947.539l-.796 2.097h.739c.151 0 .301.005.451-.003.078-.004.111.025.132.095.026.088.061.172.092.258.047.126.038.141-.093.141-.466 0-.932.002-1.398-.002-.081-.001-.126.018-.149.102-.025.095-.069.185-.103.277-.078.21-.038.353.127.502.03.027.097.034.074.103-.025.074-.086.055-.138.055H0" fill="#030303" mask="url(#b)" transform="translate(27.872 19.76)"/><path d="M21.624 19.657c.287-.001.591.043.892.114.068.015.096.044.091.117-.006.121 0 .243-.002.363 0 .135-.076.177-.193.118-.383-.194-.779-.323-1.216-.224-.349.079-.542.366-.45.67.045.153.16.253.284.338.225.152.466.276.72.37.256.094.494.221.72.372.678.45.634 1.168.11 1.656-.325.303-.725.434-1.16.464a3.603 3.603 0 0 1-1.259-.153c-.067-.019-.104-.05-.119-.122a6.64 6.64 0 0 0-.108-.459c-.018-.065.008-.098.056-.136.052-.042.078-.004.113.018.377.24.78.406 1.236.392.27-.008.508-.107.703-.296.262-.254.258-.579-.008-.829-.158-.148-.348-.24-.542-.329a7.7 7.7 0 0 1-1.048-.552c-.486-.316-.485-.849-.335-1.204.112-.266.332-.42.59-.527a2.33 2.33 0 0 1 .925-.161m-7.382 2.084v1.43c0 .035.026.088-.032.101-.064.016-.067-.046-.083-.082-.15-.341-.299-.683-.45-1.023a.402.402 0 0 1-.038-.18c.001-.587 0-1.174.002-1.761 0-.069-.019-.116-.074-.157-.079-.058-.153-.125-.229-.188-.022-.019-.049-.036-.028-.073.015-.025.03-.051.066-.047h.033c.61.001 1.218.001 1.827.007.241.002.471.064.68.188.51.303.632.906.28 1.382-.205.278-.48.456-.81.553-.124.036-.124.036-.057.15l.748 1.267c.115.195.254.367.454.483.026.015.078.021.058.075-.016.043-.045.059-.093.059a36.212 36.212 0 0 0-.737 0c-.047 0-.073-.018-.095-.058l-1.079-1.96c-.039-.071-.009-.123.075-.134.215-.03.426-.074.62-.177.304-.159.454-.415.46-.756.003-.303-.27-.585-.615-.627-.274-.033-.55-.009-.825-.014-.084-.002-.057.06-.057.101v1.441m5.636-1.981c-.097.169-.186.316-.268.467-.027.049-.064.05-.109.05-.279-.001-.558.002-.836-.002-.067-.001-.086.014-.086.084.002.979.004 1.958 0 2.938-.001.238.146.37.311.499.02.016.059.027.04.067-.016.032-.031.068-.079.062-.018-.003-.037-.001-.056-.001-.245 0-.491-.004-.737.003-.091.002-.115-.022-.115-.114.003-1.134 0-2.267.005-3.4.001-.12-.035-.142-.144-.14-.323.008-.646.004-.968.004-.132-.001-.15-.034-.082-.15.07-.12.116-.284.22-.345.105-.061.271-.021.409-.021h2.367zm5.291 2.333c0-.539-.007-1.078.003-1.617.005-.234-.068-.414-.259-.547a.206.206 0 0 1-.043-.035c-.021-.024-.071-.033-.046-.085.018-.037.046-.049.088-.049.275.001.55.003.825-.001.076-.001.069.041.069.09v.946c0 .837.001 1.673-.003 2.508 0 .083.021.102.102.102.532-.005 1.064 0 1.596-.005.101-.001.105.027.07.108-.048.11-.09.224-.129.337-.019.056-.043.081-.107.081-.693-.003-1.386-.004-2.079 0-.078 0-.088-.027-.088-.095.002-.579.001-1.158.001-1.738m-.95-.496c0 .543.005 1.085-.004 1.628-.004.222.066.39.245.52.04.03.121.045.097.123-.028.09-.11.053-.17.054-.23.004-.46-.003-.692.004-.092.003-.115-.022-.115-.113.003-1.101-.003-2.201.006-3.301.002-.257-.069-.457-.284-.603-.03-.021-.088-.036-.066-.097.021-.06.071-.052.12-.052.252 0 .505.005.758-.002.091-.002.106.03.105.112-.002.576 0 1.15 0 1.727m5.667-2.695c-.057.141-.11.265-.157.39-.016.043-.035.065-.086.062-.11-.004-.22 0-.33 0-.084-.003-.135-.078-.102-.156.036-.084.079-.164.115-.248.015-.035.036-.049.074-.049.156.002.313.001.486.001m-17.309 0-.158.4c-.015.037-.037.054-.08.052-.11-.003-.22 0-.329 0-.09-.003-.138-.078-.103-.164.115-.288.115-.288.424-.288zm-1.178.006c.08.007.193-.045.24.018.027.036-.048.148-.078.226-.08.202-.081.202-.296.202l-.166-.001c-.098-.001-.146-.073-.108-.164.005-.013.013-.026.017-.04.057-.196.163-.311.39-.241m19.145 0c.078.002.197-.044.235.012.036.054-.044.15-.074.227-.082.207-.083.206-.305.206h-.154c-.107-.002-.151-.073-.107-.174l.012-.03c.059-.194.164-.314.393-.241" fill="#030303"/><g fill="#0179b4"><path d="M25.916 14.728c.005-.029.028-.043.048-.062l-.048.062m-.284.267c.007-.022.015-.044.045-.024-.006.024-.014.045-.045.024m-.044.044c-.003-.02.007-.024.023-.023.013.027.005.035-.023.023m.406-.413-.003.002z"/><path d="M25.675 14.972c-.012-.027-.002-.034.023-.024.001.017-.006.025-.023.024"/><path d="M25.697 14.95c-.01-.026 0-.031.024-.024 0 .016-.007.024-.024.024"/><path d="M25.72 14.928c-.01-.025.001-.03.023-.024 0 .016-.008.024-.024.024"/><path d="M25.741 14.906c-.008-.023.003-.028.024-.024 0 .015-.008.024-.024.024"/><path d="M25.763 14.884c-.005-.02.004-.028.024-.024 0 .015-.009.023-.024.024"/><path d="M25.785 14.862c-.004-.02.004-.027.024-.023-.002.013-.009.022-.024.023"/><path d="M25.807 14.84c-.003-.02.006-.025.024-.023l-.024.023"/><path d="M25.83 14.818c-.003-.018.005-.025.022-.023z"/><path d="M25.851 14.796c0-.018.006-.025.023-.024l-.023.024"/><path d="M25.873 14.774c0-.017.008-.023.023-.024l-.023.024"/><path d="M25.895 14.751c0-.015.008-.022.022-.025l-.022.025m.071-.087.014-.017-.014.017m-.356.353c0-.017.007-.024.023-.023.013.027.005.035-.023.023"/></g></g></svg>