<svg width="36" height="36" fill="none" xmlns="http://www.w3.org/2000/svg"><path d="M18 0c2.837 0 5.52.656 7.907 1.825C31.884 4.753 36 10.895 36 18c0 9.942-8.058 18-18 18-9.94 0-18-8.057-18-18C0 8.06 8.06 0 18 0z" fill="#F2F4F7"/><path fill-rule="evenodd" clip-rule="evenodd" d="m4.98 18.992-.957-2.606A.285.285 0 0 1 4 16.279a.28.28 0 0 1 .29-.27.289.289 0 0 1 .283.202l.744 2.16.73-2.151a.298.298 0 0 1 .286-.22h.042a.295.295 0 0 1 .286.22l.73 2.151.744-2.164a.289.289 0 0 1 .276-.198.274.274 0 0 1 .282.265.313.313 0 0 1-.027.112l-.956 2.606a.316.316 0 0 1-.296.228h-.056a.304.304 0 0 1-.29-.228l-.722-2.053-.72 2.053a.31.31 0 0 1-.296.228h-.055a.313.313 0 0 1-.296-.228zm4.18-.068v-2.641a.284.284 0 0 1 .568 0v1.055h1.543v-1.055a.284.284 0 0 1 .569 0v2.641a.284.284 0 0 1-.569 0v-1.073H9.73v1.073a.284.284 0 0 1-.568 0H9.16zm3.405 0v-2.641a.284.284 0 0 1 .567 0v2.641a.284.284 0 0 1-.567 0zm2.087 0v-2.381h-.785a.26.26 0 0 1-.263-.256.26.26 0 0 1 .263-.256h2.148a.258.258 0 0 1 .259.257.258.258 0 0 1-.259.255h-.79v2.381a.286.286 0 0 1-.573 0zm2.06-.027V16.31a.279.279 0 0 1 .287-.279h1.164c.307-.02.61.08.845.279a.693.693 0 0 1 .217.52v.01a.747.747 0 0 1-.461.7c.378.126.642.337.642.764v.009c0 .561-.475.862-1.196.862H17a.278.278 0 0 1-.287-.278zm.56-1.54h.776c.365 0 .61-.139.61-.427v-.01c0-.246-.204-.4-.569-.4h-.818v.837zm0 1.33h.942c.388 0 .624-.149.624-.431v-.01c0-.265-.217-.422-.665-.422h-.902v.862zm2.637.238V16.31a.279.279 0 0 1 .287-.279h1.155c.34-.019.674.094.933.315a.937.937 0 0 1 .268.678v.009c0 .503-.3.808-.735.939l.62.759a.317.317 0 0 1 .092.212.265.265 0 0 1-.273.256.326.326 0 0 1-.277-.144l-.786-.975h-.716v.845a.285.285 0 0 1-.568 0zm.568-1.334h.832c.406 0 .665-.207.665-.526v-.01c0-.336-.25-.52-.67-.52h-.827v1.056zm2.882 1.586a.28.28 0 0 1-.287-.279V16.31a.278.278 0 0 1 .287-.279h1.88a.253.253 0 0 1 .254.248.25.25 0 0 1-.254.247H23.64v.817h1.39a.253.253 0 0 1 .255.251.25.25 0 0 1-.254.243h-1.39v.845h1.39a.253.253 0 0 1 .255.247.25.25 0 0 1-.255.247H23.36zm5.717-.279V16.31a.278.278 0 0 1 .286-.279h.92c1.016 0 1.718.679 1.718 1.563v.01c0 .885-.702 1.572-1.718 1.572h-.92a.277.277 0 0 1-.286-.279v.001zm.568-.225h.638c.679 0 1.122-.444 1.122-1.06v-.009c0-.615-.443-1.069-1.122-1.069h-.638v2.138zm-1.612.26v-.516h-1.59l-.319.634a.283.283 0 0 1-.376.126.267.267 0 0 1-.163-.262.271.271 0 0 1 .028-.106l1.07-2.132c.044-.098.297-.646 1.133-.646l.5-.002a.28.28 0 0 1 .283.234l.003.044v2.625a.285.285 0 0 1-.568 0h-.001zm0-2.396-.171-.002-.066.002c-.274.013-.466.11-.552.282l-.556 1.109h1.345v-1.392z" fill="#002D72"/></svg>