<svg width="36" height="36" fill="none" xmlns="http://www.w3.org/2000/svg"><path d="M18 0c2.837 0 5.52.656 7.907 1.825C31.884 4.753 36 10.895 36 18c0 9.942-8.058 18-18 18-9.94 0-18-8.057-18-18C0 8.06 8.06 0 18 0z" fill="#F2F4F7"/><path d="M30.103 30.705a.792.792 0 0 1-.805.805.786.786 0 0 1-.798-.805c0-.462.357-.805.805-.805.448 0 .798.336.798.805zm-.133 0a.664.664 0 0 0-.665-.68.66.66 0 0 0-.665.68.66.66 0 0 0 .665.679.668.668 0 0 0 .665-.68zm-.504.392a.19.19 0 0 1-.042-.084l-.021-.12c-.021-.07-.049-.09-.119-.09h-.119v.294h-.196v-.812h.378c.182 0 .294.077.294.238 0 .119-.084.196-.175.203.07.014.112.049.126.133l.035.147a.167.167 0 0 0 .049.09h-.21zm-.154-.658h-.147v.217h.147c.077 0 .119-.035.119-.112.007-.063-.042-.105-.119-.105zM32 18c0-7.735-6.265-14-14-14S4 10.265 4 18s6.265 14 14 14 14-6.265 14-14zm-9.821.532h2.758l-2.758 9.338h-2.877l-1.288-5.74h-.035l-1.288 5.74h-2.877l-2.758-9.331h2.758l-2.751-9.338h2.926l1.337 6.034h.035l1.393-6.034h2.499l1.393 6.034h.035l1.337-6.034h2.933l-2.772 9.331zm-1.505 6.034 1.337-6.034h-2.702l-1.288-5.74h-.035l-1.288 5.74h-2.702l1.337 6.034h.035l1.393-6.034h2.499l1.393 6.034h.021z" fill-rule="evenodd" clip-rule="evenodd" fill="#000586"/></svg>