<svg width="36" height="36" fill="none" xmlns="http://www.w3.org/2000/svg"><path d="M18 0c2.837 0 5.52.656 7.907 1.825C31.884 4.753 36 10.895 36 18c0 9.942-8.058 18-18 18-9.94 0-18-8.057-18-18C0 8.06 8.06 0 18 0z" fill="#F2F4F7"/><path d="M6.575 15 4 19.454h1.764s.377.022.454-.319c.069-.305.181-1.032.181-1.032H6.32s-.045.128-.07.182c-.017.039-.1.23-.496.222h-.217l1.035-1.782 1.033 1.782s-.2.001-.267 0c-.17-.002-.387-.04-.468-.28-.029-.087-.046-.124-.045-.124h-.08l.169.985s.055.366.44.366h1.795L6.575 15z" fill="#008147"/><path d="M13.683 17.003c.039.021.084.09.042.21a20.06 20.06 0 0 1-.384.946c-.103.233-.223.516-.326.733-.14-.304-.285-.647-.42-.952.085-.232.273-.65.406-.873.033-.056.107-.107.248-.098.011 0 .011-.003.011-.012.002-.04.002-.073.003-.123 0-.004.002-.011-.009-.01a5.694 5.694 0 0 1-.29.009c-.095 0-.376-.011-.385-.012-.009-.002-.011 0-.012.01a.775.775 0 0 0 0 .13c0 .006-.001.004.01.005.129.012.172.089.155.14a5.856 5.856 0 0 1-.244.575 4.95 4.95 0 0 1-.242-.553c-.015-.043-.01-.07.008-.099.03-.048.098-.054.143-.057.008 0 .011-.004.011-.01.003-.058 0-.086-.001-.122 0-.006 0-.012-.012-.01-.01 0-.289.008-.383.008-.094 0-.277-.007-.388-.014-.01 0-.017 0-.018.008-.005.048 0 .08 0 .128 0 .005-.002.01.01.01.072.003.183.046.224.122.188.341.295.655.468 1.002-.108.25-.233.556-.354.801a53.003 53.003 0 0 1-.692-1.735c-.02-.055-.016-.102.003-.13.034-.047.102-.063.162-.061.009 0 .011-.004.011-.01a1.505 1.505 0 0 0 0-.127c0-.004.002-.008-.009-.008a9.852 9.852 0 0 1-.454.014 5.31 5.31 0 0 1-.376-.013c-.015-.001-.018.001-.018.01a1.21 1.21 0 0 0 0 .116c0 .005 0 .012.01.012a.306.306 0 0 1 .178.057c.08.06.152.235.205.364.433 1.055.659 1.623.847 2.086.013.03.006.028.037.027.033 0 .023.003.036-.027.232-.54.384-.862.497-1.083.026-.051.022-.044.043 0 .113.237.362.804.488 1.087.011.025.005.02.036.02.03 0 .025.001.033-.02.44-1.104.814-1.92.989-2.29.061-.13.115-.201.3-.225.01-.001.012 0 .013-.01 0-.049.003-.08.002-.121 0-.007-.002-.01-.009-.009-.01.001-.293.013-.387.015a5.845 5.845 0 0 1-.383-.015c-.015 0-.017 0-.017.012 0 .055 0 .068.002.125 0 .004 0 .006.011.007a.424.424 0 0 1 .171.04zm2.989 1.259c-.082.233-.158.433-.266.704-.017.043-.018.045-.035.003-.189-.454-.241-.603-.388-.995-.027-.071-.03-.115.016-.156.022-.02.07-.04.157-.047.021-.001.025.002.026-.013a.851.851 0 0 0-.001-.09c-.003-.025-.005-.024-.026-.023a5.69 5.69 0 0 1-.776-.005c-.016-.002-.02-.002-.02.02a.934.934 0 0 0 .002.093c.001.017 0 .015.017.017.017 0 .119.012.148.031a.259.259 0 0 1 .103.13c.097.209.524 1.301.582 1.46.008.024.01.039-.005.073a6.575 6.575 0 0 1-.114.261.513.513 0 0 1-.206.225c-.05.023-.13.017-.21.04a.176.176 0 0 0-.076.294.22.22 0 0 0 .164.05c.08-.006.2-.055.312-.235.164-.263.272-.551.37-.79.174-.425.42-1.097.516-1.304.007-.014.04-.1.105-.154a.32.32 0 0 1 .208-.078c.023-.002.025-.005.027-.021a.687.687 0 0 0 0-.094c-.002-.016 0-.021-.023-.02-.2.02-.542.027-.686.008-.034-.004-.04 0-.041.015-.001.019-.006.073-.003.097.003.02.012.015.027.016.042.006.099 0 .151.042.04.03.05.07.05.1-.003.047-.046.18-.105.346zm2.79-.264c.046-.069.225-.369.512-.356.055.002.153.024.16.101.008.078-.043.276-.14.248-.176-.05-.344-.075-.46.077-.033.043-.07.123-.075.284-.003.085 0 .482.004.83.002.112.08.136.1.145.045.018.128.013.169.016.008 0 .012.003.013.013a.414.414 0 0 1 0 .104c-.001.006-.003.01-.02.008-.043-.002-.157-.014-.391-.016-.223-.001-.395.017-.447.02-.01.001-.017 0-.018-.008a.393.393 0 0 1 0-.108c0-.006.003-.008.014-.01.037-.002.151-.003.213-.049a.127.127 0 0 0 .053-.112c-.001-.304-.002-.558 0-.898a.932.932 0 0 0-.04-.27c-.035-.067-.123-.065-.184-.07-.015-.001-.02-.003-.02-.013a.677.677 0 0 1 0-.076c0-.017-.006-.017.016-.026.17-.07.32-.137.453-.217.015-.01.018-.013.027-.009l.035.019c.01.004.01.007.01.022.002.015.003.306.008.35.001.01.003.008.008 0zm.968-.795c-.003 1.09-.001 1.923-.006 1.976a.21.21 0 0 1-.04.1c-.035.046-.14.053-.21.054-.026 0-.03.007-.03.023.001.035 0 .065.002.093.001.017.006.018.028.016.13-.011.25-.023.409-.022.157 0 .243.002.401.015.031.003.035.004.036-.014a.818.818 0 0 0 0-.085c0-.026-.003-.027-.026-.028-.05-.003-.144-.004-.19-.04a.132.132 0 0 1-.063-.113c-.007-.587-.005-.923.004-1.036.003-.042.004-.053.026-.074.044-.044.14-.108.219-.148.023-.012.302-.153.505.01.153.122.139.29.14.408.01.479-.006.78-.006.78s-.002.129-.05.168c-.04.032-.157.04-.202.04-.028 0-.025.004-.027.028a1.098 1.098 0 0 0-.002.08c0 .028.007.024.036.022.148-.012.293-.01.392-.012.122-.003.265.006.385.02.035.004.04.005.04-.015l-.001-.082c-.001-.029 0-.026-.028-.028-.064-.007-.145-.012-.177-.046s-.057-.077-.059-.166c0-.093.017-.404.014-.593-.003-.188.037-.513-.093-.68-.105-.137-.265-.217-.517-.221a.337.337 0 0 0-.122.027c-.138.051-.318.171-.413.225-.043.023-.054.04-.056-.036a15.3 15.3 0 0 1 0-.89c.003-.114.003-.175.017-.294.005-.034.007-.034-.011-.043a.6.6 0 0 1-.052-.024c-.014-.008-.013-.005-.037.009a2.59 2.59 0 0 1-.447.214c-.027.01-.024.013-.024.026 0 .019.002.052 0 .075 0 .018.004.018.026.02.053.001.132 0 .17.06.026.04.04.08.039.201zm6.53 2.232a.213.213 0 0 0 .056.06c.01.002.106-.036.24-.066.146-.032.296-.037.302-.043a.444.444 0 0 0 .002-.114c-.005-.007-.018 0-.11-.01-.086-.01-.153-.065-.155-.211-.003-.284-.012-.762-.004-1.086.005-.218.021-.338.015-.341-.004-.003-.139.013-.285.028-.139.014-.342.019-.346.024a.32.32 0 0 0 .002.123c.006.007.117.006.16.01.094.01.153.058.153.21 0 .282-.005 1.003-.005 1.003s-.253.216-.456.212c-.218-.005-.391-.067-.394-.52-.002-.457.006-1.08-.004-1.087-.01-.008-.134.016-.277.027-.115.008-.265.002-.272.014a.356.356 0 0 0 0 .127c.005.007.038.007.08.007.087 0 .15.043.15.199-.001.268.027.985.027.985s.005.214.116.339c.12.134.378.267.738.066.185-.104.281-.21.292-.203.006.004-.013.197-.026.247zm1.513-1.819a.681.681 0 0 0-.51.108c-.15.106-.2.317-.151.513.032.133.123.225.223.307.21.175.579.283.528.561-.042.232-.38.311-.557.148-.125-.114-.14-.314-.154-.321a.337.337 0 0 0-.111.013c-.006.01.052.428.06.441.008.011.392.185.727.048a.506.506 0 0 0 .324-.54c-.025-.254-.254-.375-.415-.482-.094-.06-.197-.123-.279-.21-.127-.133-.114-.293.004-.392.104-.087.256-.097.384.016.125.11.13.233.144.24a.233.233 0 0 0 .091-.018 3.544 3.544 0 0 0-.035-.354.99.99 0 0 0-.273-.078zm2.854.381c.045-.068.225-.368.511-.356.056.003.154.025.161.102.008.078-.043.275-.141.248-.175-.05-.344-.076-.459.076-.033.044-.07.124-.075.285-.004.084 0 .482.004.83.001.112.08.136.1.145.045.018.128.013.168.016.008 0 .013.002.014.012a.399.399 0 0 1 0 .105c-.001.006-.003.009-.02.008-.043-.002-.157-.015-.391-.016-.223-.001-.395.017-.447.02-.01.001-.017 0-.018-.008a.392.392 0 0 1 0-.108c0-.006.003-.008.014-.01.037-.002.151-.003.213-.05.033-.024.053-.056.053-.11-.001-.306-.002-.56 0-.9a.92.92 0 0 0-.041-.269c-.034-.067-.122-.065-.183-.07-.015-.001-.02-.003-.02-.014a.632.632 0 0 1 0-.075c0-.017-.006-.017.016-.026.17-.07.32-.138.453-.218.015-.009.018-.012.027-.008.01.004.024.013.035.018.01.005.01.007.01.023.002.015.003.307.008.35.001.009.003.007.008 0zm-1.575.187h.424s.095.01.088-.128c-.008-.154-.12-.27-.309-.274-.228-.005-.393.17-.45.311-.038.09-.045.09.023.09h.223zm.04.156h-.041a2.05 2.05 0 0 0-.307.013c-.03.04-.025.384.086.553a.692.692 0 0 0 .627.326.714.714 0 0 0 .36-.138l.068.096c-.105.136-.63.522-1.116.145-.402-.311-.33-.845-.306-.98.038-.23.245-.728.816-.729.547 0 .613.455.582.61-.024.12-.122.107-.122.107s-.36-.004-.648-.003z" fill="#000"/><path fill-rule="evenodd" clip-rule="evenodd" d="M23.32 18.808c0-.099-.001-.187-.005-.19-.007-.007-.06.009-.209.062-.076.028-.255.1-.307.146-.083.074-.139.169-.073.333.05.124.196.143.314.11a.659.659 0 0 0 .27-.186 2.48 2.48 0 0 0 .009-.244v-.03zm.302.029a11.79 11.79 0 0 0-.005.282c0 .172.094.188.094.188.088.015.175-.06.175-.06l.052.078c-.295.227-.448.191-.528.13-.085-.063-.079-.201-.098-.208-.015-.006-.248.254-.524.256-.323.002-.422-.245-.424-.42a.342.342 0 0 1 .142-.287c.158-.12.79-.287.811-.32.015-.025.015-.189 0-.358-.02-.24-.18-.318-.316-.294a.614.614 0 0 0-.282.163.307.307 0 0 0-.03.117c-.002.035-.021.059-.045.068-.036.014-.13.048-.143.05-.06.012-.078-.007-.063-.076a.372.372 0 0 1 .053-.136.205.205 0 0 1 .052-.052c.138-.095.494-.316.549-.331a.472.472 0 0 1 .396.1c.095.071.152.235.15.398-.002.22-.009.474-.014.677l-.002.035z" fill="#000"/><path d="M24.63 18.184h.425s.094.01.087-.128c-.007-.154-.12-.27-.308-.274-.228-.005-.393.17-.451.311-.037.09-.044.09.023.09h.224zm.04.156h-.04a2.052 2.052 0 0 0-.308.013c-.03.04-.025.384.087.553a.692.692 0 0 0 .627.326c.189-.006.359-.138.359-.138l.068.096c-.105.136-.63.522-1.115.145-.402-.311-.33-.845-.307-.98.039-.23.246-.728.817-.729.547 0 .612.455.582.61-.024.12-.122.107-.122.107s-.361-.004-.648-.003zm-6.784-.156h.424s.095.01.088-.128c-.008-.154-.12-.27-.309-.274-.227-.005-.393.17-.45.311-.038.09-.045.09.023.09h.223zm.04.156h-.041a2.05 2.05 0 0 0-.307.013c-.03.04-.025.384.086.553a.692.692 0 0 0 .627.326.714.714 0 0 0 .36-.138l.068.096c-.105.136-.63.522-1.115.145-.402-.311-.33-.845-.307-.98.038-.23.246-.728.816-.729.547 0 .613.455.582.61-.023.12-.121.107-.121.107s-.361-.004-.649-.003zm-3.439-.156h.425s.094.01.087-.128c-.007-.154-.12-.27-.308-.274-.228-.005-.393.17-.45.311-.038.09-.045.09.023.09h.223zm.04.156h-.04a2.05 2.05 0 0 0-.307.013c-.03.04-.026.384.086.553a.692.692 0 0 0 .627.326c.189-.006.359-.138.359-.138l.068.096c-.105.136-.629.522-1.115.145-.402-.311-.33-.845-.307-.98.039-.23.246-.728.816-.729.548 0 .613.455.582.61-.023.12-.121.107-.121.107s-.36-.004-.648-.003z" fill="#000"/></svg>