<svg width="36" height="36" fill="none" xmlns="http://www.w3.org/2000/svg"><defs><linearGradient id="a" x1="11" y1="17.917" x2="20.712" y2="17.917" gradientUnits="userSpaceOnUse"><stop stop-color="#3CBEEB"/><stop offset="1" stop-color="#E261A5"/></linearGradient></defs><path d="M18 0c2.837 0 5.52.656 7.907 1.825C31.884 4.753 36 10.895 36 18c0 9.942-8.058 18-18 18-9.94 0-18-8.057-18-18C0 8.06 8.06 0 18 0z" fill="#F2F4F7"/><path d="M19.167 16.166h1.458v4.667h-1.458v-4.666z" fill="#000"/><path d="M11 15h10.5l-3.378 5.833H11v-2.537h2.456v-2.13L11 15z" fill="url(#a)"/><path d="M7.366 15h1.75L7.5 17.8l1.75 3.033H7.5l-.875-1.516-.875 1.516H4L5.75 17.8 4.134 15h1.75l.741 1.283.74-1.283z" fill="#000"/><path fill-rule="evenodd" clip-rule="evenodd" d="M11.233 15h-1.4v5.833h1.459v-1.75h1.166a2.042 2.042 0 1 0 0-4.083h-1.225zm.059 1.458v1.167h1.166a.583.583 0 0 0 0-1.167h-1.166z" fill="#000"/><path d="M22.958 18.016v2.817H21.5v-4.666h1.458v.39c.325-.262.732-.4 1.15-.39.775.011 1.411.384 1.475 1.808v2.858h-1.458v-2.7c0-.275-.14-.683-.595-.683-.38 0-.543.332-.572.566zm6.855 1.686a2.006 2.006 0 0 1-1.75 1.131c-1.132 0-2.042-1.05-2.042-2.333 0-1.284.91-2.334 2.041-2.334.712 0 1.342.42 1.704 1.05l-.992.788c-.117-.35-.35-.583-.612-.583-.38 0-.683.484-.683 1.079s.303 1.079.683 1.079c.291 0 .536-.286.641-.683l1.01.805zm1.312 1.132a.875.875 0 1 0 0-1.75.875.875 0 0 0 0 1.75z" fill="#000"/></svg>