<svg height="36" viewBox="0 0 36 36" width="36" xmlns="http://www.w3.org/2000/svg"><mask id="a" fill="#fff"><path d="M0 0h26.06v5.698H0z" fill-rule="evenodd"/></mask><g fill="none" fill-rule="evenodd"><path d="M18 0c2.837 0 5.52.656 7.907 1.825C31.884 4.753 36 10.895 36 18c0 9.942-8.058 18-18 18-9.94 0-18-8.057-18-18C0 8.06 8.06 0 18 0z" fill="#f2f4f7" fill-rule="nonzero"/><path d="m31.79 15.095-.186.624h-.012l-.185-.624h-.21v.739h.118v-.624h.012l.187.624h.168l.187-.624h.012v.624h.12v-.74zm-1.217 0v.115h.19v.624h.123v-.624h.191v-.115z" fill="#231f20"/><path d="M2.698 1.932c.187-.196.625-.737 1.112-1.653.081-.158.154-.197.264-.197h.903c.08 0 .177.039.124.197-.36 1.062-1.176 1.996-1.629 2.477.494.468 1.37 1.574 1.783 2.658.035.098.016.21-.19.21h-1.08c-.11 0-.196-.01-.272-.196-.266-.665-.685-1.364-1.162-1.823-.522.553-.918 1.234-1.186 1.823-.064.146-.129.196-.272.196H.104c-.066 0-.134-.077-.09-.196.293-.807.88-1.81 1.716-2.566C1.075 2.066.44 1.096.19.279.152.156.22.082.31.082h1.16c.126 0 .191.052.255.197.284.666.676 1.299.973 1.653zm20.792 0c.188-.196.625-.737 1.11-1.653.083-.158.157-.197.265-.197h.901c.083 0 .18.039.127.197-.358 1.062-1.176 1.996-1.628 2.477.492.467 1.368 1.573 1.78 2.658.035.098.017.21-.188.21H24.78c-.11 0-.2-.01-.274-.196-.267-.665-.685-1.364-1.162-1.824-.523.554-.919 1.234-1.186 1.824-.066.146-.13.196-.273.196h-.989c-.067 0-.134-.077-.09-.196.293-.807.88-1.81 1.72-2.566-.662-.796-1.295-1.766-1.544-2.583-.038-.123.027-.197.12-.197h1.16c.127 0 .193.052.255.197.286.666.676 1.299.974 1.653zM12.104.787c.415-.535 1.064-.78 2.125-.78.252 0 .502.026.748.075.125.03.145.128.121.257l-.126.618c-.027.116-.06.149-.15.149a.474.474 0 0 1-.076-.006 4.931 4.931 0 0 0-.44-.038c-.529 0-.779.132-.968.329-.219.235-.225.582-.225 1.2v2.75c0 .182-.08.283-.274.283H12c-.179 0-.256-.088-.27-.282v-2.7c0-.983.056-1.443.375-1.855zm-1.32 1.554c-.068-.74-.34-1.336-.796-1.738-.436-.39-1.023-.6-1.749-.6-.537 0-1.213.186-1.712.594-.593.489-1.055 1.254-1.055 2.284 0 .888.29 1.603.808 2.085.507.475 1.227.732 2.116.732.717 0 1.584-.27 1.953-.5.131-.078.173-.115.14-.245l-.233-.658c-.026-.105-.147-.134-.243-.085a4.44 4.44 0 0 1-.45.203c-.32.12-.656.2-.97.2-.666 0-1.046-.18-1.335-.516a1.414 1.414 0 0 1-.325-.79h3.675c.132 0 .192-.091.192-.25v-.263c0-.13-.006-.331-.017-.453zm-1.317-.022H6.932c.025-.182.08-.36.16-.525a1.303 1.303 0 0 1 1.193-.746c.734 0 1.182.498 1.182 1.238zm11.16.528c0 1.637-1.158 2.847-2.798 2.847-1.669 0-2.803-1.16-2.803-2.846C15.026 1.252 16.146 0 17.83 0c1.64 0 2.797 1.21 2.797 2.847zm-1.447 0c0-.957-.368-1.805-1.348-1.805-.982 0-1.36.848-1.36 1.805s.378 1.806 1.36 1.806c.98 0 1.348-.85 1.348-1.806z" fill="#d92231" mask="url(#a)" transform="translate(4 15)"/></g></svg>