<svg height="36" viewBox="0 0 36 36" width="36" xmlns="http://www.w3.org/2000/svg"><mask id="a" fill="#fff"><path d="M0 0h14.9v14.901H0z" fill-rule="evenodd"/></mask><mask id="b" fill="#fff"><path d="M0 0h24v2.8H0z" fill-rule="evenodd"/></mask><g fill="none" fill-rule="evenodd"><path d="M18 0c2.837 0 5.52.656 7.907 1.825C31.884 4.753 36 10.895 36 18c0 9.942-8.058 18-18 18-9.94 0-18-8.057-18-18C0 8.06 8.06 0 18 0z" fill="#f2f4f7" fill-rule="nonzero"/><path d="M14.55 13.884c0 .367-.3.666-.666.666H1.017a.668.668 0 0 1-.666-.666V1.016A.667.667 0 0 1 1.017.35h12.867c.366 0 .666.3.666.666zM13.884 0H1.017C.456 0 0 .456 0 1.016v12.868c0 .56.456 1.017 1.017 1.017h12.867a1.02 1.02 0 0 0 1.017-1.017V1.016A1.018 1.018 0 0 0 13.884 0z" fill="#fff" mask="url(#a)" transform="translate(10.55 8)"/><path d="M25.1 21.884c0 .367-.3.666-.666.666H11.566a.668.668 0 0 1-.666-.666V9.016c0-.366.3-.666.666-.666h12.868c.366 0 .666.3.666.666z" fill="#003e7e"/><path d="M21.26 20.523h1.145l.136.36a.492.492 0 0 0 .423.297h.312l-.928-2.452h-.713a.496.496 0 0 0-.43.296l-.816 2.156h.623zm.505-1.332c.037-.097.098-.097.135 0l.349.921h-.833zm-4.86 1.332.248.657h.623l-.817-2.156a.495.495 0 0 0-.43-.296h-.712l-.929 2.452h.312c.17 0 .362-.135.424-.297l.136-.36zm-.157-.411h-.832l.349-.92c.037-.098.098-.098.134 0zm-1.75-1.384h-.663L13.93 19.8l-.458-.797a.609.609 0 0 0-.475-.275h-.331l1.004 1.763-.263.689h.345a.497.497 0 0 0 .43-.297zm4.244 1.153h-.568v-.723h.568c.223 0 .36.104.36.357 0 .245-.126.366-.36.366zm.473.345c.32-.122.482-.353.482-.72a.588.588 0 0 0-.003-.06c-.03-.48-.408-.718-.863-.718h-1.239v2.451h.582v-.883h.417l.449.883h.657zm-.907-5.099a.63.63 0 1 0 0 1.261.63.63 0 0 0 0-1.261m-1.603 0a.63.63 0 1 0 0 1.261.63.63 0 0 0 0-1.261m3.206 0a.63.63 0 1 0 0 1.261.63.63 0 0 0 0-1.261m-4.809 0a.632.632 0 1 0 0 1.263.632.632 0 0 0 0-1.263m7.44.975c-.165-.336-.453-.908-.506-1.101 0 0-.173-.44.292-.512a.375.375 0 0 0 .337-.358l-.002-.216a.062.062 0 0 0-.058-.059h-.765c-.014 0-.54.06-.546.699-.015 1.092.008 1.238-.285 1.286a.05.05 0 0 1-.047-.051l.001-.033a1.053 1.053 0 0 0-1.806-.732c-.008.012-.026.028-.048.028s-.04-.016-.048-.028a1.048 1.048 0 0 0-1.507 0 .06.06 0 0 1-.048.028c-.021 0-.04-.016-.048-.028a1.048 1.048 0 0 0-1.507 0 .06.06 0 0 1-.048.028c-.022 0-.04-.016-.048-.028a1.052 1.052 0 0 0-1.803.765c0 .03-.027.052-.056.052-.297-.048-.273-.19-.29-1.287-.005-.64-.53-.699-.544-.699h-.766a.062.062 0 0 0-.057.059l-.003.216c.01.186.141.33.337.358.464.072.292.512.292.512-.053.193-.34.765-.505 1.101-.105.218-.32.755.017 1.272.194.3.425.58 1.242.567h7.565c.82.013 1.047-.267 1.242-.567h-.001c.336-.518.122-1.054.016-1.272m-5.274-1.913c.027.02.102.016.168.016h1.075c-.544-.477-.886-1.675-.886-2.4 0-.728.342-1.925.886-2.4h-1.075c-.066 0-.141-.003-.168.016 0 0-.962.94-.962 2.384s.962 2.384.962 2.384m2.318 0c.026.02.102.016.168.016h1.078c-.547-.477-.887-1.675-.887-2.4 0-.728.34-1.925.887-2.4h-1.078c-.066 0-.142-.003-.168.016 0 0-.963.924-.963 2.384s.963 2.384.963 2.384m-5.602-2.384c0-1.46.966-2.384.966-2.384.024-.02.102-.016.165-.016h1.078c-.544.475-.883 1.672-.883 2.4 0 .725.34 1.923.883 2.4h-1.078c-.063 0-.141.004-.165-.016 0 0-.966-.924-.966-2.384" fill="#fff"/><path d="M23.375 2.203a1.67 1.67 0 0 1-.521-.091c-.01-.007-.026-.012-.026-.035v-.015l.031-.144c.004-.02.015-.031.033-.031.005 0 .007 0 .013.002.032.01.237.076.45.076.19 0 .32-.062.32-.214 0-.193-.141-.193-.334-.224-.162-.026-.499-.058-.499-.45 0-.395.351-.462.605-.462.24 0 .427.053.466.065.024.005.033.02.033.037v.006l-.027.155c-.002.02-.017.025-.031.025h-.009c-.034-.005-.23-.048-.392-.048-.164 0-.32.04-.32.198 0 .174.17.188.335.211.24.037.498.078.498.458 0 .375-.282.48-.625.48zM22.641.71l-.34 1.409a.055.055 0 0 1-.055.046h-.452a.056.056 0 0 1-.058-.046L21.495.962h-.006l-.25 1.158a.057.057 0 0 1-.059.046h-.45c-.028 0-.048-.017-.057-.046L20.342.714V.699c0-.025.014-.046.037-.046h.246c.031 0 .045.015.051.043l.248 1.253h.078L21.24.765a.056.056 0 0 1 .057-.045h.398c.03 0 .052.017.057.045l.243 1.184h.075l.236-1.253c.005-.028.02-.043.054-.043h.24c.023 0 .042.019.042.042v.001a.03.03 0 0 1-.002.015zm-3.186.141c-.351 0-.366.205-.366.559 0 .351.015.556.366.556.348 0 .363-.205.363-.556 0-.354-.015-.559-.363-.559zm0 1.35c-.625 0-.703-.353-.703-.791 0-.44.078-.796.703-.796s.7.356.7.796c0 .438-.075.792-.7.792zM18.568.876c-.178 0-.33.018-.44.046v1.201c0 .027-.017.044-.043.044h-.24c-.008 0-.046-.017-.046-.044V.896c0-.119.052-.153.176-.197.124-.046.331-.078.487-.08h.049c.046 0 .04 0 .066.006.012.002.032.011.032.043V.83c0 .024-.006.044-.04.044zM16.731.821c-.228 0-.338.091-.338.322 0 .23.11.32.338.32s.34-.09.34-.32-.112-.322-.34-.322zm.17 1.37h-.3c-.127 0-.254.032-.254.191 0 .176.168.204.41.204.181 0 .397-.032.397-.23 0-.153-.127-.164-.254-.164zm.682-1.35a.359.359 0 0 1-.201.062c-.05 0-.056-.005-.118-.016.02.016.118.112.118.285 0 .383-.262.498-.632.498-.109 0-.117.003-.193.003-.126 0-.16.06-.16.132 0 .112.077.136.213.136h.36c.267 0 .504.074.504.368 0 .364-.303.49-.724.49-.483 0-.72-.089-.72-.377 0-.245.18-.273.303-.3v-.04c-.13-.03-.254-.034-.254-.251 0-.182.118-.221.309-.253-.121-.037-.317-.099-.317-.424 0-.402.262-.539.657-.539.182 0 .253.027.365.059a.543.543 0 0 0 .245-.006c.052-.018.101-.04.15-.064.009-.002.017-.008.023-.008.012 0 .018.006.024.022l.06.182c.002.006.006.012.006.018s-.006.013-.018.023zm-3.067.233c-.044-.17-.14-.225-.332-.225-.21 0-.303.058-.34.22-.023.088-.023.184-.026.282l.723-.003a1.09 1.09 0 0 0-.025-.274zm.354.447c0 .025-.017.054-.05.054h-1.002c.003.142.038.222.107.288.08.078.199.104.371.104.182 0 .305-.04.413-.068.006-.004.01-.004.014-.004.017 0 .028.009.037.035l.034.132c.004.003.004.009.004.011 0 .021-.015.032-.032.04-.106.044-.3.09-.513.09-.564 0-.766-.238-.766-.789 0-.52.132-.799.697-.799.294 0 .47.082.57.232.093.128.12.31.12.536 0 .036 0 .094-.004.138zm-2.377-.7c-.227 0-.337.091-.337.322 0 .23.11.32.337.32.228 0 .34-.09.34-.32s-.112-.322-.34-.322zm.17 1.37h-.3c-.126 0-.253.032-.253.191 0 .176.167.204.409.204.181 0 .397-.032.397-.23 0-.153-.127-.164-.253-.164zm.683-1.35a.364.364 0 0 1-.203.062c-.048 0-.054-.005-.117-.016a.38.38 0 0 1 .117.285c0 .383-.261.498-.63.498-.11 0-.118.003-.192.003-.127 0-.162.06-.162.132 0 .112.078.136.213.136h.36c.268 0 .504.074.504.368 0 .364-.303.49-.723.49-.484 0-.72-.089-.72-.377 0-.245.179-.273.302-.3v-.04c-.13-.03-.254-.034-.254-.251 0-.182.119-.221.309-.253-.12-.037-.317-.099-.317-.424 0-.402.262-.539.657-.539.182 0 .254.027.366.059A.543.543 0 0 0 13.1.668c.052-.018.102-.04.15-.064.01-.002.018-.008.024-.008.012 0 .017.006.023.022l.06.182c.002.006.006.012.006.018s-.006.013-.017.023zm-2.198.052s-.159-.041-.32-.041c-.273 0-.385.072-.385.553 0 .507.132.562.394.562.167 0 .311-.04.311-.04zm.147 1.25c-.113.029-.26.06-.464.06-.562 0-.723-.219-.723-.789 0-.527.142-.799.65-.799.2 0 .35.038.42.056l-.03-.17V.098c0-.032.015-.047.044-.053L11.425 0h.011c.023 0 .038.017.038.042v1.876c0 .089-.006.179-.179.225zM9.49 1.074c-.044-.17-.14-.225-.332-.225-.211 0-.303.058-.34.22-.024.088-.024.184-.026.282l.723-.003a1.05 1.05 0 0 0-.026-.274zm.354.447c0 .025-.018.054-.048.054H8.792c.002.142.037.222.106.288.081.078.199.104.372.104.182 0 .305-.04.411-.068.006-.004.012-.004.015-.004.018 0 .03.009.038.035l.034.132c.003.003.003.009.003.011 0 .021-.014.032-.031.04-.107.044-.3.09-.513.09-.565 0-.766-.238-.766-.789 0-.52.132-.799.697-.799.294 0 .469.082.57.232.092.128.118.31.118.536 0 .036 0 .094-.003.138zm-1.59.633a.624.624 0 0 1-.239.038c-.228 0-.354-.121-.354-.346V.094c0-.03.014-.043.043-.049L7.94 0h.01c.024 0 .039.016.039.042v1.785c0 .103.063.123.12.123a.404.404 0 0 0 .102-.012h.01c.012 0 .024.006.026.027l.03.144v.01c0 .024-.018.035-.024.035zM7.398.711l-.34 1.409a.055.055 0 0 1-.055.046H6.55a.055.055 0 0 1-.057-.046L6.25.962h-.005l-.25 1.158a.056.056 0 0 1-.058.046h-.45c-.028 0-.048-.017-.057-.046L5.1.714V.699c0-.025.013-.046.036-.046h.245c.032 0 .046.015.052.043l.247 1.253h.078l.24-1.184A.056.056 0 0 1 6.054.72h.398c.029 0 .052.017.058.045l.242 1.184h.074L7.064.696c.006-.028.02-.043.055-.043h.239c.023 0 .043.019.043.042v.001c0 .006 0 .01-.003.015zM4.212.852c-.352 0-.367.205-.367.559 0 .351.015.556.367.556.348 0 .363-.205.363-.556 0-.354-.015-.559-.363-.559zm0 1.35c-.626 0-.704-.353-.704-.791 0-.44.078-.796.704-.796.625 0 .7.356.7.796 0 .438-.075.792-.7.792zm-1.05-.036h-.237c-.03 0-.048-.017-.048-.044V1.09c0-.18-.066-.236-.235-.236-.211 0-.427.06-.427.06v1.21c0 .026-.017.043-.043.043h-.24c-.025 0-.045-.017-.045-.044V.898c0-.112.037-.152.193-.201.147-.044.406-.082.59-.082.352 0 .537.099.537.43v1.077c0 .027-.018.044-.044.044zm-1.511 0h-.369a.067.067 0 0 1-.043-.02L.472 1.23h-.12v.893c0 .027-.02.044-.047.044H.05c-.026 0-.049-.02-.049-.044V.08C0 .057.023.038.049.038h.256c.027 0 .046.02.046.042v.865h.121l.735-.888a.051.051 0 0 1 .04-.02l.334.005c.015 0 .032.018.032.036a.026.026 0 0 1-.008.02l-.841.977.91 1.037c.005.004.008.012.009.02 0 .017-.018.034-.032.034z" fill="#003e7e" mask="url(#b)" transform="translate(6 25.023)"/></g></svg>