<svg width="36" height="36" fill="none" xmlns="http://www.w3.org/2000/svg"><path d="M18 0c2.837 0 5.52.656 7.907 1.825C31.884 4.753 36 10.895 36 18c0 9.942-8.058 18-18 18-9.94 0-18-8.057-18-18C0 8.06 8.06 0 18 0z" fill="#F2F4F7"/><path d="M7.184 12.674c.611.518 3.682 0 4.217-.423.46 0-.983 5.16-1.144 6.367-.122.923.468 2.14.73 2.946.12.364.25.553.625.327.296-.176.41-.156.684.032.395.273.78.58 1.284.616 1.846.117 2.283-2.868 2.374-4.376.163-2.293.278-4.165-2.434-4.633.377-.349.783-1.547.741-2.057-.02-.21.913-.74 1.352-.886.647-.216 2.94-.195 3.801-.216.648-.01 1.477-.489 1.545-1.232.078-1.03-1.196-1.428-1.862-1.428-.91 0-5.764.811-6.885 1.43-1.045.56-2.607.528-3.645.996-.28.114-.283 0-.239-.094 3.162-6.88 10.769-5.054 13.161-4.045 1.063.374 3.528 1.56 4.3 2.168 4.462 2.418 6.97 14.284 3.765 14.942-.291.078-.421.268-.395.593-.56-.663-1.794-1.32-2.54-.624-.096.09-.624 0-.557.28.026.107.122.105.195.087.733-.175 1.451 1.482 2.085 1.799-.174.013-.304.13-.473.13-.728.35-.514 2.394-1.931 3.575-.58.629-2.853 3.127-5.263 1.52-.723-.483-2.47-.35-2.667-.111-.572.717-1.768.359-2.444-.044-1.558-.947-3.789-1.035-5.193-3.09-1.739-2.547-4.508-3.499-5.251-7.071-.69-4.443 1.812-7.686 2.061-7.478h.003zm11.895 12.02c.286.385.598 1.188 1.06 1.368.807.312.918-.754.947-1.287.065-1.191.146-2.748-.075-3.94-.237-1.403-.097-2.812-.156-4.222a2.445 2.445 0 0 0-.312-1.118c-.266-.447-.918-.228-1.204.1-.172.202-.26.103-.39-.006-.221-.187-.356-.15-.416.12-.406 1.742.164 4.037-.551 5.688-.536 1.222-.422 3.786-.26 5.013.075.546.098 1.095.13 1.656.013.208.078.219.202.042.754-1.131.2-2.977.79-4.225.308.325-.075.424.235.811zm4.992.12a1.13 1.13 0 0 0-.5.21c-.442.307-.858.398-1.336.611-.304.133-.572.343-.894.442-.198.065-.411.572-.148.666.14.052.182.148.205.28.06.39.764.72 1.058.88 1.175.623 2.761.493 3.593-.656.333-.463.33-1.601.006-2.137-.383-.624-.76-1.445-1.545-1.622-.104-.026-.39-.125-.252-.268.538-.577.863-1.456 1.154-2.184.167-.419-.265-.973-.59-.962-.112.005-.14-.052-.127-.15.05-.292.244-.461.322-.74.125-.423.5-1.003.416-1.455a1.1 1.1 0 0 0-.525-.785c-.2-.12-.588.041-.507-.305.14-.598.034-1.417.047-2.04 0-.066-.003-.203.166-.076.45.346.598 1.056 1.258.96.4-.053.804-.554.674-.986-.133-.408-.091-1.295-.788-1.095-.242.068-.751.622-.996.4-.223-.207-.283-.498-.265-.797.02-.351-.265-.83-.655-.83-.213.01-.434.291-.416.51.09 1.253.13 3.684.12 3.843-.008.145.078.74-.13.878-.308.21-.575.472-.79.775-.357.494-.243 1.014.251 1.456.073.068.125.148.11.229-.151.718-.72.936-1.061 1.529-.213.369-.073.87.31 1.032.511.216 1.255-.437 1.611-.762.047.04.034.068.026.094-.094.574-.468 1.006-.788 1.438-.32.431-.826.22-1.123.527-.14.156-.431.799-.304.994.494.803.525.623 1.274.314.31-.122 1.15-.59 1.43-.208.385.51.712 1.082.4 1.737-.395.785-1.417.819-2.163.749a1.517 1.517 0 0 1-.72-.289c-.187-.133-.127-.317.083-.372.458-.112.874.138 1.35.037a.597.597 0 0 0 .465-.783c-.102-.291.039-.871.294-1.087v-.002zm-.952-7.72c-.125-.156-.055-.423-.229-.605a.445.445 0 0 1-.122-.206c-.039-.192-.182-.26-.356-.161a.506.506 0 0 1-.41.062c-.196-.057-.297.091-.375.198-.122.164.02.762.205.884.17.122.3.286.512.364.291.104.79-.091.775-.536z" fill="#E52011"/><path d="M13.637 17.05c-.608-.257-1.107.011-1.664.22-.13.046-.177.002-.177-.144 0-1.076.676-1.568 1.49-2.04.07-.04.117-.024.187.03.307.234.453 2.054.164 1.935zm-.967 1.956c.37.12.559-.187.876-.2.21-.013.294.026.268.244-.047.46-.099.97-.234 1.412-.07.223-.138.255-.364.216-.933-.17-1.396-1.948-.546-1.672zm6.255 5.374h-.03c0-.005 0-.013.004-.018l.026.026v-.008zm1.155-2.184c-.037.455.005.905 0 1.36-.008.268-.052.53-.037.8.003.068-.075.17-.187.118-.304-.149-.52-.4-.777-.62-.349-.29.112-.998.2-1.328.073-.265.478-.242.65-.41.039-.034.091-.063.14-.034.045.015.016.075.013.114h-.002zm-.128-1.81c-.018.235-.15.292-.325.338-.07.019-.088-.02-.096-.078-.065-.369.044-.712.174-1.053.021-.057.07-.07.123-.07.054 0 .067.044.08.084.057.255.072.519.044.78zm-.072-1.835c0 .042.013.099-.045.107-.046.005-.083-.04-.083-.084.031-.418-.15-.819-.09-1.248.03-.195.116-.364.134-.561.006-.044.026-.094.078-.084.065.008.032.063.04.102.122.52-.021 1.222-.034 1.768z" fill="#E52011"/></svg>