<svg width="36" height="36" fill="none" xmlns="http://www.w3.org/2000/svg"><path d="M18 0c2.837 0 5.52.656 7.907 1.825C31.884 4.753 36 10.895 36 18c0 9.942-8.058 18-18 18-9.94 0-18-8.057-18-18C0 8.06 8.06 0 18 0z" fill="#F2F4F7"/><g fill="#000"><path d="m10.004 17.649-.637-.637v1.802h.637v-1.165zm-2.548-1.92h1.55l-.633-.633-.003-.003h-.815A1.049 1.049 0 0 0 7.456 13v2.097L5.712 13.36c-.193.1-.375.22-.543.357l1.648 1.643v3.607l1.275 1.273v-.9l-.637-.637V15.73z"/><path d="M8.093 15.733 8.09 18.81h.636l.003-2.435-.636-.64zm2.184 1.278-.636-.636H8.73l.636.636h.911zm-4.094 1.357v-2.74L4.72 14.165a3.27 3.27 0 0 0-.36.542l1.186 1.185v.9l-1.438-1.437a3.2 3.2 0 0 0-.108.793l2.183 2.22zm-2.173-1.31v.9l4.082 4.081v-.9L4.01 17.06zm7.266.95h-.637v.804h-.636a1.046 1.046 0 0 0 1.048 1.078 1.049 1.049 0 0 0 1.049-1.078l-.824-.804zm5.186.819-.478.907H13.01l1.935-3.716h-1.713l.477-.909h2.977l-1.936 3.718h1.713zm1.728-1.867h1.526v.91H18.19v.957h1.526v.908h-2.65V15.11h2.65v.91H18.19v.941zm3.658-1.851c.59 0 .929.062 1.179.222.318.195.512.59.512 1.034 0 .325-.103.596-.312.804-.131.139-.235.201-.485.271.285.062.41.124.555.263.208.194.312.465.312.805 0 .43-.173.81-.471 1.012-.23.153-.507.215-.978.215h-1.893V15.11h1.58zm-.458 1.915h.277c.514 0 .729-.16.729-.542 0-.374-.215-.534-.742-.534h-.264v1.075zm0 1.907h.41c.47 0 .672-.16.672-.534 0-.222-.083-.382-.25-.473-.125-.069-.235-.082-.575-.082h-.257v1.088zm3.779.804h-1.124V15.11h1.498c.61 0 1.053.111 1.358.347.32.25.5.666.5 1.172 0 .707-.298 1.171-.895 1.408l1.02 1.7H26.18l-1.012-1.79v1.79zm.36-2.421c.458 0 .735-.235.735-.638 0-.38-.27-.644-.665-.644h-.43v1.282h.36zm5.252 2.421H32l-1.517-4.625h-1.43l-1.524 4.624h1.184l.286-.909h1.499l.284.91zm-1.499-1.82.465-1.481.464 1.481h-.929z"/></g></svg>