<svg width="36" height="36" fill="none" xmlns="http://www.w3.org/2000/svg"><path d="M18 0c2.837 0 5.52.656 7.907 1.825C31.884 4.753 36 10.895 36 18c0 9.942-8.058 18-18 18-9.94 0-18-8.057-18-18C0 8.06 8.06 0 18 0z" fill="#F2F4F7"/><path d="M17.529 12.453v6.837h-5.662l5.662-6.837zm0-2.453a2.832 2.832 0 0 1-5.662 0h5.662zm.933 9.29a2.832 2.832 0 0 1 5.662 0h-5.662zm0-2.453V10h5.664l-5.664 6.836v.001zm3.167 8.302c.29.007.573-.102.784-.302l.389.42c-.257.263-.613.46-1.167.46-.949 0-1.562-.63-1.562-1.482a1.452 1.452 0 0 1 1.476-1.482c.942 0 1.477.717 1.43 1.712H20.75c.08.413.37.676.877.676l.002-.002zm.676-1.149c-.06-.386-.29-.67-.75-.67-.43 0-.728.243-.805.67h1.556zM7 25.107l1.714-1.742H7.041v-.546H9.51v.557l-1.715 1.741h1.739v.547H7v-.557zm4.458.032c.291.006.573-.103.785-.303l.389.42c-.257.264-.613.46-1.167.46-.95 0-1.563-.63-1.563-1.482a1.455 1.455 0 0 1 1.476-1.482c.943 0 1.477.717 1.43 1.712H10.58c.079.413.37.677.877.677v-.002zm.678-1.15c-.06-.385-.29-.67-.751-.67-.428 0-.727.243-.804.67h1.556zm4.375.245c0-.909.68-1.48 1.43-1.48a1.231 1.231 0 0 1 .95.426v-1.679h.605v4.156h-.606v-.392a1.216 1.216 0 0 1-.954.45c-.727 0-1.424-.576-1.424-1.48v-.001zm2.413-.006a.904.904 0 1 0-.903.928c.52 0 .902-.415.902-.928h.001zm4.45.824.55-.285a.814.814 0 0 0 .731.416c.343 0 .52-.176.52-.376 0-.227-.33-.278-.69-.353-.485-.103-.99-.262-.99-.848 0-.45.428-.866 1.102-.86.532 0 .927.21 1.151.551l-.509.279a.738.738 0 0 0-.64-.325c-.326 0-.492.16-.492.342 0 .205.263.262.675.353.47.103 1 .256 1 .848 0 .393-.343.922-1.155.917-.593 0-1.011-.24-1.252-.66v.001zm4.053-.66-.48.524v.739h-.606v-4.156h.606v2.722l1.286-1.411h.738l-1.115 1.217L29 25.655h-.686l-.886-1.263zm-12.746-1.64c-.721 0-1.324.467-1.324 1.242v1.663h.618v-1.586c0-.466.268-.746.727-.746.459 0 .686.279.686.746v1.586h.615v-1.663c0-.774-.606-1.241-1.324-1.241" fill="#03363D"/></svg>