<svg width="36" height="36" fill="none" xmlns="http://www.w3.org/2000/svg"><path d="M18 0c2.837 0 5.52.656 7.907 1.825C31.884 4.753 36 10.895 36 18c0 9.942-8.058 18-18 18-9.94 0-18-8.057-18-18C0 8.06 8.06 0 18 0z" fill="#F2F4F7"/><path d="m25.165 11.386-6.232-6.232a.5.5 0 0 0-.35-.154.505.505 0 0 0-.281.084.483.483 0 0 0-.183.604l2.302 5.698a.408.408 0 0 1 .028.126.264.264 0 0 1-.028.112l-2.302 5.727a.474.474 0 0 0 .183.603.472.472 0 0 0 .617-.07l6.232-6.231.14-.14-.126-.127zm-7.327 19.607-2.301-5.712c-.014-.043-.028-.07-.028-.127 0-.042.014-.084.028-.112l2.301-5.712c.113-.28-.027-.491-.182-.604a.506.506 0 0 0-.28-.084.501.501 0 0 0-.352.155l-6.231 6.231-.14.14.14.14 6.232 6.232a.503.503 0 0 0 .35.155.552.552 0 0 0 .281-.085.509.509 0 0 0 .183-.617z" fill="#82BC00"/><path d="m10.105 24.354 1.839-1.838a7.314 7.314 0 0 1-1.263-4.127 7.332 7.332 0 0 1 8.603-7.214l-1.123-2.793h-.154A10.003 10.003 0 0 0 8 18.39c0 2.274.758 4.365 2.035 6.035l.07-.07zM25.923 12.27l-.07.07L24 14.18a7.35 7.35 0 0 1 1.333 4.196 7.332 7.332 0 0 1-7.326 7.326 7.93 7.93 0 0 1-1.305-.112l1.122 2.793h.169c5.53 0 10.007-4.477 10.007-10.007.014-2.288-.772-4.407-2.077-6.105z" fill="#212529"/></svg>