<svg height="36" viewBox="0 0 36 36" width="36" xmlns="http://www.w3.org/2000/svg"><mask id="a" fill="#fff"><path d="M0 0h20.021v14.316H0z" fill-rule="evenodd"/></mask><mask id="b" fill="#fff"><path d="M0 0h20.022v11.757H0z" fill-rule="evenodd"/></mask><g fill="none" fill-rule="evenodd"><path d="M18 0c2.837 0 5.52.656 7.907 1.825C31.884 4.753 36 10.895 36 18c0 9.942-8.058 18-18 18-9.94 0-18-8.057-18-18C0 8.06 8.06 0 18 0z" fill="#f2f4f7" fill-rule="nonzero"/><g fill="#006aff"><path d="M13.535 5.932c.101-.022.146.012.207.078.346.386 1.454 1.739 1.755 2.108.056.067.018.14-.027.179-2.236 1.744-4.725 4.216-6.11 5.982-.029.04-.007.04.016.034 2.416-1.04 8.09-2.702 10.645-3.165V7.91L10.02 0 0 7.906v3.538C3.103 9.6 10.282 6.743 13.535 5.932" mask="url(#a)" transform="translate(8.006 7)"/><path d="M5.4 9.286c-.082.045-.15.034-.217-.033L3.315 7.028c-.05-.063-.056-.096.012-.19C4.77 4.723 7.715 1.43 9.594.037c.034-.021.022-.05-.017-.033C7.62.643 2.057 3.035 0 4.2v7.558h20.022v-7.28c-2.729.465-10.903 2.897-14.621 4.81" mask="url(#b)" transform="translate(8 17.243)"/></g></g></svg>