<svg height="36" viewBox="0 0 36 36" width="36" xmlns="http://www.w3.org/2000/svg"><mask id="a" fill="#fff"><path d="M0 0h1.468v1.665H0z" fill-rule="evenodd"/></mask><mask id="b" fill="#fff"><path d="M0 0h1.933v1.534H0z" fill-rule="evenodd"/></mask><g fill="none" fill-rule="evenodd"><path d="M18 0c2.837 0 5.52.656 7.907 1.825C31.884 4.753 36 10.895 36 18c0 9.942-8.058 18-18 18-9.94 0-18-8.057-18-18C0 8.06 8.06 0 18 0z" fill="#f2f4f7" fill-rule="nonzero"/><g fill="#54534a"><path d="M1.45.14.425 1.468h.673c.108 0 .146-.012.32-.236h.032c-.03.078-.116.268-.151.433a.42.42 0 0 0-.224-.052H0L1.055.253h-.79C.21.253.183.262.122.448H.094V0C.183.097.186.114.25.114h1.218z" mask="url(#a)" transform="translate(4 17)"/><path d="M5.582 18.616v-.032c.238-.064.244-.07.244-.146v-1.156c0-.078-.003-.078-.24-.136v-.038h.734v.038c-.24.07-.24.066-.24.136v1.156c0 .085 0 .085.243.146v.032z"/><path d="M7.148 18.65c-.41-.003-.84-.26-.84-.755 0-.543.433-.793.869-.793.415 0 .81.296.81.8 0 .437-.412.751-.84.748m-.008-1.409c-.401-.008-.604.323-.604.663 0 .253.195.601.595.601a.588.588 0 0 0 .576-.6c0-.324-.171-.664-.567-.664m2.483.041v1.325h-.14l-1.109-1.08c-.018-.018-.023-.018-.023 0v.908c0 .071 0 .071.235.14v.032h-.622v-.032c.24-.069.241-.069.241-.14v-1.333h.128l1.124 1.107c.015.014.021 0 .021 0v-.933c0-.064.003-.069-.238-.142v-.032h.621v.035c-.237.07-.237.075-.237.145m.7 1.363a.834.834 0 0 1-.41-.088l-.008-.4h.026c.078.235.11.244.148.266.023.012.122.074.229.074.14 0 .267-.08.267-.218-.005-.315-.703-.34-.703-.768 0-.273.259-.444.535-.444.128 0 .224.017.326.052l-.018.401h-.032c-.075-.209-.064-.218-.102-.247a.266.266 0 0 0-.186-.058c-.177 0-.281.087-.281.253 0 .287.726.383.714.767-.008.322-.331.407-.505.41m2.133-.025h-.777v-.033c.244-.085.244-.085.244-.147v-1.172c0-.073-.002-.073-.244-.148v-.031h.775c.162 0 .408.133.408.344 0 .146-.109.326-.278.35.21.038.371.202.371.404 0 .332-.244.433-.499.433m-.087-1.387c-.075-.005-.186.004-.186.06v.406c0 .042.006.042.038.044.09.014.228-.035.228-.035.127-.065.167-.156.167-.251 0-.122-.109-.215-.247-.224m.07.663c-.056-.017-.256-.044-.256.032v.485c0 .052.031.049.06.058a.57.57 0 0 0 .271-.02c.08-.028.181-.075.18-.249-.003-.175-.098-.255-.256-.306m1.432.724v-.033c.204-.068.204-.068.185-.112l-.187-.421h-.471c-.002.008-.166.406-.17.417-.016.038-.016.051.18.12v.029h-.558v-.036c.209-.067.21-.067.242-.138 0 0 .25-.617.535-1.357h.144c.28.772.522 1.353.522 1.353.033.077.033.077.244.145v.033zm-.22-1.214-.198.501h.372a6.227 6.227 0 0 1-.174-.501z"/><path d="M16.106 17.268v1.352h-.142l-1.13-1.102c-.017-.02-.024-.017-.024 0v.926c0 .073 0 .071.242.142v.034h-.634v-.034c.244-.069.246-.069.246-.142v-1.358h.13l1.145 1.127c.014.013.02.002.02.002v-.949c0-.069.003-.07-.241-.147v-.03h.632v.033c-.244.073-.244.075-.244.146"/><path d="M17.593 18.533c-.067.038-.185.104-.482.104-.433 0-.854-.282-.854-.774 0-.437.295-.797.88-.8.07 0 .265.021.48.088l-.011.392h-.04c-.044-.215-.162-.346-.44-.343-.31.001-.623.246-.61.674a.603.603 0 0 0 .604.617c.286.004.42-.167.519-.322l.027.011zm.98.103c-.417-.003-.854-.267-.854-.771 0-.552.441-.803.883-.803.424 0 .827.298.827.81 0 .449-.42.766-.856.764m.02-1.436c-.406-.004-.615.333-.615.674 0 .26.198.617.608.617.333 0 .586-.286.586-.617 0-.328-.175-.67-.579-.674"/><path d="M20.605 18.633c-.168-.018-.61-.567-.654-.616-.02-.023-.08-.087-.08 0v.424c0 .063 0 .068.273.146v.033h-.777v-.033c.244-.085.244-.085.244-.146v-1.172c0-.073-.002-.073-.244-.15v-.03h.775c.161 0 .414.169.414.379 0 .3-.213.43-.372.448-.04.012-.049.019-.02.054a5.7 5.7 0 0 0 .53.54c.056.046.122.102.173.103v.034a1.787 1.787 0 0 1-.262-.014m-.548-1.4c-.076-.004-.186.004-.186.06v.486c0 .042.006.042.037.044.092.014.23-.035.23-.035.126-.065.163-.216.154-.313-.01-.122-.097-.233-.235-.242"/><path d="M21.375 18.023c-.095-.007-.11-.03-.11.046v.371c0 .062 0 .063.272.146v.034h-.777v-.034c.244-.084.244-.084.244-.146v-1.172c0-.073-.002-.073-.244-.149v-.03h.828c.213 0 .422.192.426.414.007.411-.353.538-.639.52m.076-.79c-.076-.003-.187.004-.187.06v.525c0 .043.01.043.04.05a.458.458 0 0 0 .324-.068.353.353 0 0 0 .126-.286c-.008-.155-.166-.277-.303-.282m1.473 1.404c-.417-.003-.854-.267-.854-.771 0-.552.44-.803.883-.803.424 0 .827.298.827.81 0 .449-.421.766-.856.764m.02-1.436c-.406-.004-.615.333-.615.674 0 .26.198.617.609.617.332 0 .585-.286.585-.617 0-.328-.175-.67-.58-.674"/><path d="M25 18.633c-.168-.018-.61-.567-.654-.616-.02-.023-.08-.087-.08 0v.424c0 .063 0 .068.273.146v.033h-.776v-.033c.244-.085.244-.085.244-.146v-1.172c0-.073-.003-.073-.244-.15v-.03h.774c.162 0 .415.169.415.379 0 .3-.213.43-.373.448-.04.012-.05.019-.02.054.189.232.51.525.53.54.056.046.122.102.174.103v.034a1.787 1.787 0 0 1-.262-.014m-.548-1.4c-.076-.004-.187.004-.187.06v.486c0 .042.007.042.038.044.09.014.229-.035.229-.035.126-.065.164-.216.155-.313-.011-.122-.098-.233-.235-.242"/><path d="M26.093 18.62v-.033c.204-.068.204-.068.184-.112 0 0-.142-.324-.186-.421h-.471a41.35 41.35 0 0 1-.171.417c-.015.038-.015.051.18.12v.029h-.557v-.036c.209-.067.21-.067.242-.138 0 0 .25-.617.535-1.357h.144c.28.772.52 1.353.52 1.353.035.077.035.077.246.145v.033zm-.22-1.214-.197.501h.37a5.889 5.889 0 0 1-.173-.501zm1.925.082c-.084-.253-.082-.25-.13-.25h-.343v1.201c0 .036.005.036.244.148v.033h-.75v-.03c.245-.113.245-.113.245-.15v-1.207h-.342c-.049 0-.053.002-.135.255h-.034v-.455c.1.051.104.056.17.056h.944c.051 0 .053.002.167-.056v.455z"/><path d="M27.8 18.62v-.033c.242-.061.246-.071.246-.148v-1.173c0-.08-.002-.08-.244-.144v-.033h.748v.033c-.247.071-.244.073-.244.144v1.173c0 .085 0 .085.246.148v.033z"/><path d="M29.32 18.636c-.417-.003-.854-.267-.854-.771 0-.552.44-.803.883-.803.424 0 .827.298.827.81 0 .449-.421.766-.856.764m.02-1.436c-.406-.004-.615.333-.615.674 0 .26.198.617.608.617.333 0 .586-.286.586-.617 0-.328-.175-.67-.58-.674"/><path d="M1.689.182v1.352h-.142L.418.432C.399.412.393.415.393.431v.927c0 .073 0 .071.242.142v.034H0V1.5c.244-.069.247-.069.247-.142V0h.13l1.145 1.127c.014.013.021.002.021.002V.18c0-.069.001-.071-.243-.147V.002h.633v.034c-.244.073-.244.075-.244.146" mask="url(#b)" transform="translate(30.067 17.086)"/></g></g></svg>