<svg height="36" viewBox="0 0 36 36" width="36" xmlns="http://www.w3.org/2000/svg"><g fill="none" fill-rule="evenodd"><path d="M18 0c2.837 0 5.52.656 7.907 1.825C31.884 4.753 36 10.895 36 18c0 9.942-8.058 18-18 18-9.94 0-18-8.057-18-18C0 8.06 8.06 0 18 0z" fill="#f2f4f7" fill-rule="nonzero"/><path d="M7 28.153h22V8H7z" fill="#dc0606"/><path d="M23.05 12.711c0-.188.08-.404.196-.535h1.2c.16.138.282.362.282.622 0 .246-.239.462-.795.462-.528 0-.883-.143-.883-.549zm2.263-1.266h-2.827v.68l.196.022a1.09 1.09 0 0 0-.254.695c0 .772.608 1.185 1.505 1.185.81 0 1.438-.405 1.438-1.12a.956.956 0 0 0-.347-.73l.29-.044zm-2.263 4.122c0-.188.08-.405.196-.536h1.084a.83.83 0 0 1 .282.623c0 .245-.173.462-.73.462-.528 0-.832-.145-.832-.55zm3.133.96c.065-.21.121-.511.121-.982 0-.846-.456-1.243-1.395-1.243h-2.423v.68l.196.02a1.09 1.09 0 0 0-.254.695c0 .773.557 1.186 1.454 1.186.81 0 1.373-.406 1.373-1.122a.954.954 0 0 0-.346-.73h.166c.354 0 .614.196.614.622 0 .362-.065.572-.13.745zm-.87.627H23.34c-.594 0-.912.39-.912.86 0 .434.203.708.457.91l-.399.045v.686h2.827v-.73h-1.829c-.274-.217-.383-.455-.383-.673 0-.217.109-.368.463-.368h1.75zm.962 4.202-3.789-1.512v.73l1.844.687-1.844.644v.788l2.69-1.034 1.1.492zm-.962 1.408-.614-.124v1.548l-2.213-1.358v2.405l.623.127v-1.34l2.204 1.432zm-.574-12.143v-.104c0-.088-.004-.17-.106-.17-.085 0-.099.074-.099.142v.132zm-.286.1v-.248c0-.153.06-.225.184-.225.117 0 .165.074.175.169l.283-.183v.107l-.275.175v.105h.275v.1zm.79-.215a.452.452 0 0 0-.47-.45.452.452 0 1 0 0 .904.454.454 0 0 0 .47-.454zm-1.017 0c0-.299.237-.55.546-.55.316 0 .553.251.553.55a.549.549 0 1 1-1.099 0zm-4.65 1.046c.21-.257.529-.49.956-.104.427.385.795.72.678.834-.082.08-.263-.025-.383-.09-.154.077-.226.183-.272.363-.045.179-.1.386-.192.414.105.509.052 1.465-.117 1.763l-.004.539c.463.833.775 3.1.164 4.143 0 0-.01 1.344-.267 1.935 0 0-.294 1.277-.209 1.956.141.061.49.267.551.384.06.115.09.295.075.343-.166.297-1.046.305-1.447.005-.092-.277.057-1.37.015-2.02-.041-.65-.105-.905-.235-1.773a5.442 5.442 0 0 1-1.796.1c-.17.739-.468 1.808-.508 2.446-.03.472-.07 1.854-.07 1.854.012.14.097.244.112.336.016.122.041.314.007.41-.23.436-1.23.383-1.393.012-.008-.096.025-.342.077-.413.055-.095.28-.25.329-.368.055-.457.114-2.164-.011-2.55-.188-.357-.32-1.324-.356-2.183-.1-.043-.623-.33-1.113-.641-.169.573-.536.866-.536.866l.17.792c.124.013.472.16.537.27.065.112.071.22.06.296-.109.19-.866.164-1.006-.021l-.527-1.6s.196-.532.11-1.233c-1.62.172-2.107 2.25-2.29 3.234l.032.145c.005.034.01.196 0 .241-.154.253-.911.219-1.089.006 0-.074.026-.207.084-.291.058-.086.328-.283.394-.327l.359-1.421c.058-1.589.466-3.095 1.12-3.908-.895-1.115-.807-2.357-.084-3.008.075-.067.202-.146.249-.119.052.032.035.085-.048.207-.502.754-.415 1.773.525 2.33 1.086-.667 4.216-.815 4.216-.815l.09-.296c-.063-.114-.168-.659-.137-.942-.045-.021-.139-.136-.258-.24-.127-.11-.28-.109-.327-.186-.35.442-.256-.117-.21-.327.09-.405.149-.983.781-1.037.142-.012.445.003.563.148.11-.167 1.008-.357 1.183-.333.198-.164 1.37-.204 1.448-.126" fill="#fff"/></g></svg>