<svg width="36" height="36" fill="none" xmlns="http://www.w3.org/2000/svg"><path d="M18 0c2.837 0 5.52.656 7.907 1.825C31.884 4.753 36 10.895 36 18c0 9.942-8.058 18-18 18-9.94 0-18-8.057-18-18C0 8.06 8.06 0 18 0z" fill="#F2F4F7"/><path d="M13.337 17.952c.15.928-.655 1.45-1.47 1.51-.52 1.068-2.352 1.79-3.937 1.012-.674.102-1.05-.067-1.338-.391.578-.747 2.336-2.09 4.483-1.396 1.147.37 1.445-.5 1.155-.826-1.081-1.228-3.524-.123-3.61-.03.959-1.469 4.39-1.88 4.717.121zm-3.288-1.687c.006 0-.78-.28-1.878.195a1.185 1.185 0 0 1-.13-.056c1.057-.702 1.982-1 2.775-.884-.48-.551-2.784-.957-4.104.366-1.632-.321-2.775 1.062-2.71 2.325.066 1.262 1.444 2.05 2.23 1.836a.23.23 0 0 1 .056 0c.175-.835.883-2.777 3.761-3.78v-.002zm6.573 1.154.141-.643H14.31l-.055.25a.286.286 0 0 0 .296.37h1.14l-2.019 1.783-.136.598h2.603l.15-.654h-1.647l1.98-1.704zm1.64.518c-.113-.029-.762-.126-.722-.35.045-.249.351-.274.5-.27.308.01.404.145.42.193a.273.273 0 0 0 .284.191h.484c.054-.3.068-.992-1.058-.992-.361 0-.843.09-1.162.458-.17.197-.464.686-.164 1.053.158.185.563.33 1.012.417.285.056.435.17.404.305-.02.09-.133.293-.551.293-.188 0-.593-.03-.516-.45h-.767c-.09.383-.124 1.048 1.046 1.048.45 0 1.367-.057 1.607-1.012.168-.696-.609-.829-.818-.883zm2.708 1.06a.685.685 0 0 1-.491.18c-.58.006-.514-.562-.436-.912.08-.351.266-.9.816-.9.39 0 .435.253.455.327h.787c-.027-.833-.665-.992-1.116-.98-1.237.03-1.595 1.063-1.706 1.544-.323 1.403.574 1.574 1.004 1.574a1.687 1.687 0 0 0 1.574-.98h-.562a.417.417 0 0 0-.325.149v-.001zm3.222.289a1.473 1.473 0 0 1-.892.501c-.686.113-1.628.085-1.391-.9.076-.314.193-.521.43-.674.396-.26.922-.297 1.092-.316.059-.006.49-.038.563-.294.073-.255-.324-.268-.434-.27-.338 0-.45.132-.512.214h-.754c.304-.803 1.146-.833 1.374-.833.254 0 1.276 0 1.08.846-.296 1.287-.306 1.416-.556 1.727v-.001zm-.338-1.021a3 3 0 0 1-.473.146c-.158.047-.45.066-.598.203-.124.113-.338.598.176.609a.825.825 0 0 0 .836-.699c.024-.117.06-.258.06-.258v-.001zm1.941-2.362h-.405l-.886 3.879h.787l.805-3.511a.285.285 0 0 0-.3-.372v.004zm2.045 2.954h.563a1.714 1.714 0 0 1-1.575.98c-1.2 0-1.124-1.07-1.002-1.573.337-1.412 1.284-1.544 1.704-1.544.562 0 1.44.231.994 1.77h-1.95c-.05.203-.09.703.449.698.147.01.293-.03.415-.113.072-.05.14-.218.402-.222v.004zm-1.152-.88h1.15c.098-.55-.243-.609-.436-.609-.165-.004-.558.056-.714.605v.005zm2.843-.867c-.528.36-.703.939-.764 1.218-.048.218-.332 1.454-.332 1.454h.788s.3-1.366.36-1.544c.061-.217.265-.805 1.052-.782l.182-.675a2.125 2.125 0 0 0-1.286.324v.005zm1.377-.913.024-.096h.425l-.02.095h-.152l-.088.414h-.112l.086-.415-.163.002zm.698-.096.039.369.199-.369H32l-.112.51h-.105l.092-.405-.215.404h-.085l-.05-.404-.075.404h-.106l.107-.509h.155z" fill="#009CDA"/></svg>