<svg width="36" height="36" fill="none" xmlns="http://www.w3.org/2000/svg"><path d="M18 0c2.837 0 5.52.656 7.907 1.825C31.884 4.753 36 10.895 36 18c0 9.942-8.058 18-18 18-9.94 0-18-8.057-18-18C0 8.06 8.06 0 18 0z" fill="#F2F4F7"/><g fill="#F14F1D"><path d="m9.584 15.42-.105.844-3.486 3.655s1.398-.097 3.542 1.526c2.143 1.624 4.515.666 5.603-.373l.73.747s-3.165 3.54-7.776.033c0 0-1.072-.812-1.803-.812-.73 0-2.289-.016-2.289-.016l.13-.7 3.523-3.767H5.02l.28-1.116 4.222-.026"/><path d="M12.421 15.32s-2.32.43-2.697 3.035c-.378 2.607 2.437 3.48 3.987 2.32 1.551-1.16 2.137-3.466.808-4.874 0 0-.651-.716-2.098-.482zm.671.997c.696.224.985 1.256.647 2.305-.338 1.05-1.176 1.719-1.871 1.495-.695-.224-.985-1.257-.647-2.306.338-1.05 1.176-1.719 1.871-1.494m6.233.02s-1.375-.505-1.945 1.349c0 0 2.476.272 2.308-.908 0 0-.052-.35-.363-.44zm1.556.882c-.299 1.828-3.631 1.452-3.631 1.452-.104.26.013.636.013.636.92 1.646 2.827.415 2.827.415l.116 1.037c-.428.402-4.642 1.206-4.279-2.062.363-3.267 3.086-3.449 3.086-3.449.48-.065 2.166.143 1.868 1.971m.845-1.725c.027 0-.19.985-.19.985h.763l-.512 2.788s-.424 1.729.88 1.886c1.305.157 1.305-.142 1.305-.142l.031-1.021s-1.084.35-.927-.671c.157-1.022.55-2.84.55-2.84h1.253l.256-1.047-1.305.015.283-1.493s-1.477.425-1.43.425c.047 0-.157 1.084-.157 1.084l-.8.03m6.059-1.256c-.26.383-.75.504-1.096.27-.347-.234-.418-.734-.159-1.117.259-.384.75-.505 1.096-.271.346.234.418.734.159 1.118zm-1.574 1.198-1.056 5.579h1.366l1.043-5.574-1.353-.005zm5.431 3.918c-.014.142-.041.23-.041.23-.698 2.447-4.025 1.301-4.025 1.301l.4-.956c.21.105.762.225.762.225 1.472.26 1.785-.887.854-1.493a1.877 1.877 0 0 0-.338-.173 2.396 2.396 0 0 1-.31-.148c-.758-.525-.715-1.229-.67-1.483.011-.06.022-.096.022-.096.642-2.237 3.704-1.19 3.704-1.19l-.368.875c-.194-.096-.702-.206-.702-.206-1.206-.212-1.566.598-1.024 1.17.13.137.313.261.55.354 1 .39 1.164 1.214 1.191 1.496 0 0 .002.063-.005.094"/></g></svg>